<?xml version="1.0" encoding="UTF-8"?>
<svg  xmlns="http://www.w3.org/2000/svg" xmlns:xlink="http://www.w3.org/1999/xlink" xmlns:go="http://purl.org/svgmap/profile" property="医療機関分類,施設名称,所在地,診療科目１,診療科目２,診療科目３,開設者分類" viewBox="13921.875 -3937.5 70.3125 70.3125" go:dataArea="13921.875 -3937.5 70.3125 70.3125" >
<metadata>
 <rdf:RDF xmlns:rdf="http://www.w3.org/1999/02/22-rdf-syntax-ns#" xmlns:crs="http://opengis.org/xmldtds/transformations.dtd" xmlns:svg="http://www.w3.org/svg" >
  <rdf:Description>
   <crs:CoordinateReferenceSystem rdf:resource="http://purl.org/crs/84" svg:transform="matrix(100.0,0.0,0.0,-100.0,0.0,0.0)" />
  </rdf:Description>
 </rdf:RDF>
</metadata>
<globalCoordinateSystem srsName="http://purl.org/crs/84" transform="matrix(100.0,0.0,0.0,-100.0,0.0,0.0)" />
<defs>
 <g id="p0" >
  <image xlink:href="mappin.png" preserveAspectRatio="none" x="-8" y="-25" width="19" height="27"/>
 </g>
 <g id="p1" >
  <image xlink:href="mappin1.png" preserveAspectRatio="none" x="-8" y="-25" width="19" height="27"/>
 </g>
 <g id="p2" >
  <image xlink:href="mappin2.png" preserveAspectRatio="none" x="-8" y="-25" width="19" height="27"/>
 </g>
 <g id="p3" >
  <image xlink:href="mappin3.png" preserveAspectRatio="none" x="-8" y="-25" width="19" height="27"/>
 </g>
 <g id="p4" >
  <image xlink:href="mappin4.png" preserveAspectRatio="none" x="-8" y="-25" width="19" height="27"/>
 </g>
 <g id="p5" >
  <image xlink:href="mappin5.png" preserveAspectRatio="none" x="-8" y="-25" width="19" height="27"/>
 </g>
 <g id="p6" >
  <image xlink:href="mappin6.png" preserveAspectRatio="none" x="-8" y="-25" width="19" height="27"/>
 </g>
 <g id="p7" >
  <image xlink:href="mappin7.png" preserveAspectRatio="none" x="-8" y="-25" width="19" height="27"/>
 </g>
 <g id="p8" >
  <image xlink:href="mappin8.png" preserveAspectRatio="none" x="-8" y="-25" width="19" height="27"/>
 </g>
 <g id="p9" >
  <image xlink:href="mappin9.png" preserveAspectRatio="none" x="-8" y="-25" width="19" height="27"/>
 </g>
</defs>
<g fill="green" fill-rule="evenodd" >
<use xlink:href="#p0" content="2,木村医院,秋田県にかほ市象潟町狐森１０１,循環器内科　内科,,,9" xlink:title="木村医院" transform="ref(svg,13990.8071,-3920.0735)" x="0" y="0"/>
<use xlink:href="#p0" content="2,（医）　　ＹＡＭＡＺＥＮ　さいとうクリニック,秋田県にかほ市象潟町家の後４７,リハビリテーション科　外科　整形外科　内科,,,9" xlink:title="（医）　　ＹＡＭＡＺＥＮ　さいとうクリニック" transform="ref(svg,13990.066,-3920.6163)" x="0" y="0"/>
<use xlink:href="#p0" content="2,象潟駅前皮フ科,秋田県にかほ市象潟町家の後１３-９,皮膚科,,,9" xlink:title="象潟駅前皮フ科" transform="ref(svg,13990.1752,-3920.8526)" x="0" y="0"/>
<use xlink:href="#p0" content="2,神坂医院,秋田県にかほ市象潟町４塩越２４５,小児科,,,9" xlink:title="神坂医院" transform="ref(svg,13989.8835,-3920.5329)" x="0" y="0"/>
<use xlink:href="#p0" content="2,池田医院,秋田県にかほ市象潟町３塩越９,小児科　内科,,,9" xlink:title="池田医院" transform="ref(svg,13989.8588,-3920.9733)" x="0" y="0"/>
<use xlink:href="#p0" content="2,（特養）蕉風苑診療所,秋田県にかほ市象潟町大砂川下橋２０-３,内科,,,9" xlink:title="（特養）蕉風苑診療所" transform="ref(svg,13990.1825,-3916.0677)" x="0" y="0"/>
<use xlink:href="#p0" content="2,須田医院,秋田県にかほ市金浦十二林２９-１,内科,,,9" xlink:title="須田医院" transform="ref(svg,13991.8617,-3925.6528)" x="0" y="0"/>
<use xlink:href="#p0" content="2,障害者支援施設金浦療護園医務室,秋田県にかほ市前川中ノ森２０-２,内科,,,9" xlink:title="障害者支援施設金浦療護園医務室" transform="ref(svg,13991.448,-3923.7794)" x="0" y="0"/>
<use xlink:href="#p0" content="2,（特養）浩寿苑医務室,秋田県にかほ市前川中ノ森２４-５,内科,,,9" xlink:title="（特養）浩寿苑医務室" transform="ref(svg,13991.4639,-3923.7036)" x="0" y="0"/>
<use xlink:href="#p0" content="2,武道島いとうクリニック,秋田県にかほ市象潟町家の後６５-１０,循環器内科　消化器内科　心臓血管外科　内科,,,9" xlink:title="武道島いとうクリニック" transform="ref(svg,13990.2913,-3920.5272)" x="0" y="0"/>
<use xlink:href="#p0" content="2,（医）加納医院,山形県酒田市日吉町１-６-２５,内科　消化器科　リウマチ科,,,9" xlink:title="（医）加納医院" transform="ref(svg,13983.1971,-3892.0037)" x="0" y="0"/>
<use xlink:href="#p0" content="2,石黒内科医院,山形県酒田市東中の口町３-２,内科,,,9" xlink:title="石黒内科医院" transform="ref(svg,13984.584,-3891.1565)" x="0" y="0"/>
<use xlink:href="#p0" content="2,近藤内科循環器クリニック,山形県酒田市相生町１-６-２５,内科,,,9" xlink:title="近藤内科循環器クリニック" transform="ref(svg,13984.3262,-3891.6788)" x="0" y="0"/>
<use xlink:href="#p0" content="2,小松医院,山形県酒田市泉町３-１７,内科　小児科,,,9" xlink:title="小松医院" transform="ref(svg,13984.127,-3892.8339)" x="0" y="0"/>
<use xlink:href="#p0" content="2,今野医院,山形県酒田市中町３-３-２６,内科　胃腸科　小児科,,,9" xlink:title="今野医院" transform="ref(svg,13983.3856,-3891.8106)" x="0" y="0"/>
<use xlink:href="#p0" content="2,佐藤整形外科医院,山形県酒田市寿町１-３８,整形外科,,,9" xlink:title="佐藤整形外科医院" transform="ref(svg,13983.5126,-3891.8962)" x="0" y="0"/>
<use xlink:href="#p0" content="2,斎藤医院,山形県酒田市相生町１-５-１０,内科　小児科,,,9" xlink:title="斎藤医院" transform="ref(svg,13984.4095,-3891.895)" x="0" y="0"/>
<use xlink:href="#p0" content="2,桜井医院,山形県酒田市北今町１-３５,内科　小児科,,,9" xlink:title="桜井医院" transform="ref(svg,13983.523,-3892.2906)" x="0" y="0"/>
<use xlink:href="#p0" content="2,竹内医院,山形県酒田市幸町２-６-６,内科　精神科　神経科　心療内科,,,9" xlink:title="竹内医院" transform="ref(svg,13984.3707,-3892.1836)" x="0" y="0"/>
<use xlink:href="#p0" content="2,（医）海野医院,山形県酒田市中央西町４‐４,眼科,,,9" xlink:title="（医）海野医院" transform="ref(svg,13983.8254,-3891.9405)" x="0" y="0"/>
<use xlink:href="#p0" content="2,本間医院,山形県酒田市南千日町１０-４８,内科　産婦人科,,,9" xlink:title="本間医院" transform="ref(svg,13984.0088,-3892.6529)" x="0" y="0"/>
<use xlink:href="#p0" content="2,村上医院,山形県酒田市中町１-１３-１１,内科　小児科,,,9" xlink:title="村上医院" transform="ref(svg,13983.8113,-3891.5062)" x="0" y="0"/>
<use xlink:href="#p0" content="2,村山医院,山形県酒田市東栄町７-１１,内科　外科　泌尿器科　消化器内科,,,9" xlink:title="村山医院" transform="ref(svg,13984.747,-3891.3144)" x="0" y="0"/>
<use xlink:href="#p0" content="2,吉田医院,山形県酒田市本町１-２-６,内科　消化器科　循環器科,,,9" xlink:title="吉田医院" transform="ref(svg,13983.9308,-3891.3708)" x="0" y="0"/>
<use xlink:href="#p0" content="2,酒井医院,山形県酒田市相生町２-５-４０,内科,,,9" xlink:title="酒井医院" transform="ref(svg,13984.1426,-3892.0956)" x="0" y="0"/>
<use xlink:href="#p0" content="2,太田医院,山形県酒田市寿町５-９,小児科　産婦人科,,,9" xlink:title="太田医院" transform="ref(svg,13983.5064,-3892.1653)" x="0" y="0"/>
<use xlink:href="#p0" content="2,杉山小児科,山形県酒田市本町３-１１-３９,小児科,,,9" xlink:title="杉山小児科" transform="ref(svg,13983.2764,-3891.6134)" x="0" y="0"/>
<use xlink:href="#p0" content="2,岡本医院,山形県酒田市漆曽根字腰廻１６６,内科　小児科,,,9" xlink:title="岡本医院" transform="ref(svg,13988.7866,-3893.692)" x="0" y="0"/>
<use xlink:href="#p0" content="2,真田医院,山形県酒田市浜田１-７-５６,内科　呼吸器科　胃腸科　循環器科,,,9" xlink:title="真田医院" transform="ref(svg,13984.6996,-3891.9191)" x="0" y="0"/>
<use xlink:href="#p0" content="2,守川整形外科医院,山形県酒田市幸町１-１３-２４,整形外科,,,9" xlink:title="守川整形外科医院" transform="ref(svg,13984.4535,-3891.9286)" x="0" y="0"/>
<use xlink:href="#p0" content="2,山本医院,山形県酒田市新井田町１５-３,内科　胃腸科　こう門科,,,9" xlink:title="山本医院" transform="ref(svg,13984.3584,-3891.3325)" x="0" y="0"/>
<use xlink:href="#p0" content="2,冨樫クリニック,山形県酒田市本町３-１０-５,内科,,,9" xlink:title="冨樫クリニック" transform="ref(svg,13983.3548,-3891.5434)" x="0" y="0"/>
<use xlink:href="#p0" content="2,菅原外科内科医院,山形県酒田市東大町１-１０-６,内科　呼吸器科　消化器科　循環器科　小児科　外科　皮膚科,,,9" xlink:title="菅原外科内科医院" transform="ref(svg,13985.5934,-3890.8609)" x="0" y="0"/>
<use xlink:href="#p0" content="2,小澤内科医院,山形県酒田市山居町２-４-１８,内科,,,9" xlink:title="小澤内科医院" transform="ref(svg,13983.4624,-3890.9541)" x="0" y="0"/>
<use xlink:href="#p0" content="2,大井医院,山形県酒田市亀ヶ崎４-５-４６,内科　胃腸科　外科　こう門科,,,9" xlink:title="大井医院" transform="ref(svg,13984.0613,-3890.1034)" x="0" y="0"/>
<use xlink:href="#p0" content="2,まこと眼科,山形県酒田市一番町３-２４,眼科,,,9" xlink:title="まこと眼科" transform="ref(svg,13984.1363,-3891.5657)" x="0" y="0"/>
<use xlink:href="#p0" content="2,折居整形外科,山形県酒田市本町３-８-１１,胃腸科　外科　整形外科　こう門科　リハビリテーション科,,,9" xlink:title="折居整形外科" transform="ref(svg,13983.3341,-3891.4131)" x="0" y="0"/>
<use xlink:href="#p0" content="2,（特養）芙蓉荘診療所,山形県酒田市宮野浦３-２０-１,内科　神経科,,,9" xlink:title="（特養）芙蓉荘診療所" transform="ref(svg,13981.1262,-3891.4124)" x="0" y="0"/>
<use xlink:href="#p0" content="2,本間医院,山形県酒田市若浜町１４-１,耳鼻いんこう科　気管食道科,,,9" xlink:title="本間医院" transform="ref(svg,13984.7264,-3891.2002)" x="0" y="0"/>
<use xlink:href="#p0" content="2,サイトー内科,山形県酒田市一番町９-９,内科,,,9" xlink:title="サイトー内科" transform="ref(svg,13984.2394,-3891.4175)" x="0" y="0"/>
<use xlink:href="#p0" content="2,かとう医院,山形県東田川郡庄内町余目字町１５-１,内科　循環器科,,,9" xlink:title="かとう医院" transform="ref(svg,13990.6746,-3884.9432)" x="0" y="0"/>
<use xlink:href="#p0" content="2,菅原医院,山形県東田川郡庄内町余目字町２６５,内科　外科　婦人科,,,9" xlink:title="菅原医院" transform="ref(svg,13990.2143,-3885.3749)" x="0" y="0"/>
<use xlink:href="#p0" content="2,斎藤整形外科医院,山形県東田川郡庄内町余目字町１７-１,リウマチ科　整形外科　リハビリテーション科,,,9" xlink:title="斎藤整形外科医院" transform="ref(svg,13990.6706,-3884.9829)" x="0" y="0"/>
<use xlink:href="#p0" content="2,遠田医院,山形県飽海郡遊佐町遊佐字舞鶴２１-７,内科　外科,,,9" xlink:title="遠田医院" transform="ref(svg,13991.2722,-3901.4781)" x="0" y="0"/>
<use xlink:href="#p0" content="2,菅原医院,山形県飽海郡遊佐町北目字菅野谷地１０２,内科　小児科　麻酔科,,,9" xlink:title="菅原医院" transform="ref(svg,13988.8886,-3905.9382)" x="0" y="0"/>
<use xlink:href="#p0" content="2,土門医院,山形県飽海郡遊佐町庄泉字開元６５,内科　泌尿器科,,,9" xlink:title="土門医院" transform="ref(svg,13988.7657,-3901.1377)" x="0" y="0"/>
<use xlink:href="#p0" content="2,村上医院,山形県飽海郡遊佐町吉出字野添１６３,内科　産婦人科,,,9" xlink:title="村上医院" transform="ref(svg,13990.7944,-3902.1709)" x="0" y="0"/>
<use xlink:href="#p0" content="2,（福）山形県社会福祉事業団松濤荘診療所,山形県飽海郡遊佐町菅里字菅野南山７-１,内科　精神科,,,9" xlink:title="（福）山形県社会福祉事業団松濤荘診療所" transform="ref(svg,13987.8132,-3904.6767)" x="0" y="0"/>
<use xlink:href="#p0" content="2,佐藤循環器科内科,山形県酒田市亀ヶ崎２-４-１３,内科　呼吸器科　胃腸科　循環器科,,,9" xlink:title="佐藤循環器科内科" transform="ref(svg,13984.5023,-3890.9106)" x="0" y="0"/>
<use xlink:href="#p0" content="2,（医）のざきヒフ科クリニック,山形県酒田市中町２-６-２０,皮膚科,,,9" xlink:title="（医）のざきヒフ科クリニック" transform="ref(svg,13983.4651,-3891.6041)" x="0" y="0"/>
<use xlink:href="#p0" content="2,ほんま内科胃腸科医院,山形県酒田市光ヶ丘２-１９-１９,内科,,,9" xlink:title="ほんま内科胃腸科医院" transform="ref(svg,13982.8178,-3892.8426)" x="0" y="0"/>
<use xlink:href="#p0" content="2,上田診療所,山形県酒田市上野曽根字上中割７３,胃腸科　外科　こう門科,,,9" xlink:title="上田診療所" transform="ref(svg,13988.6874,-3894.2597)" x="0" y="0"/>
<use xlink:href="#p0" content="2,光風園診療所,山形県酒田市宮野浦３-２１-２８,内科　精神科,,,9" xlink:title="光風園診療所" transform="ref(svg,13981.3042,-3891.3138)" x="0" y="0"/>
<use xlink:href="#p0" content="2,障がい者支援施設月光園,山形県飽海郡遊佐町当山字上戸８-１,内科　精神科　神経内科　外科,,,9" xlink:title="障がい者支援施設月光園" transform="ref(svg,13991.7822,-3904.0394)" x="0" y="0"/>
<use xlink:href="#p0" content="2,あいおい皮膚科クリニック,山形県酒田市相生町２-５-３５,皮膚科,,,9" xlink:title="あいおい皮膚科クリニック" transform="ref(svg,13984.0804,-3892.1235)" x="0" y="0"/>
<use xlink:href="#p0" content="2,（医）西尾医院,山形県酒田市亀ヶ崎２-４-１２,皮膚科　泌尿器科,,,9" xlink:title="（医）西尾医院" transform="ref(svg,13984.5312,-3890.917)" x="0" y="0"/>
<use xlink:href="#p0" content="2,菅原内科胃腸科医院,山形県酒田市北新橋１-１３-５,内科,,,9" xlink:title="菅原内科胃腸科医院" transform="ref(svg,13985.7417,-3892.1934)" x="0" y="0"/>
<use xlink:href="#p0" content="2,酒田市飛島診療所,山形県酒田市飛島字勝浦甲６６,内科　外科,,,9" xlink:title="酒田市飛島診療所" transform="ref(svg,13954.9594,-3919.0162)" x="0" y="0"/>
<use xlink:href="#p0" content="2,池田外科胃腸科医院,山形県酒田市上安町１-８０-２８,胃腸科　外科　皮膚科　こう門科,,,9" xlink:title="池田外科胃腸科医院" transform="ref(svg,13986.1806,-3892.6041)" x="0" y="0"/>
<use xlink:href="#p0" content="2,こども医院さいとう,山形県酒田市松原南１１-２１,小児科　アレルギー科　アレルギー疾患内科　小児アレルギー科,,,9" xlink:title="こども医院さいとう" transform="ref(svg,13985.368,-3890.085)" x="0" y="0"/>
<use xlink:href="#p0" content="2,さとう小児科医院,山形県酒田市新井田町１-３,小児科　アレルギー科,,,9" xlink:title="さとう小児科医院" transform="ref(svg,13984.6634,-3891.5683)" x="0" y="0"/>
<use xlink:href="#p0" content="2,（医）尾形内科胃腸科医院,山形県酒田市みずほ１-２-２８,内科　胃腸科,,,9" xlink:title="（医）尾形内科胃腸科医院" transform="ref(svg,13984.8927,-3890.708)" x="0" y="0"/>
<use xlink:href="#p0" content="2,宮部内科医院,山形県酒田市本町１-５-１３,内科　精神科　整形外科　皮膚科,,,9" xlink:title="宮部内科医院" transform="ref(svg,13983.8488,-3891.1485)" x="0" y="0"/>
<use xlink:href="#p0" content="2,（特養）サンシティ曙診療所,山形県酒田市曙町２-２６-１,内科,,,9" xlink:title="（特養）サンシティ曙診療所" transform="ref(svg,13986.4366,-3891.9553)" x="0" y="0"/>
<use xlink:href="#p0" content="2,鬼海小児科医院,山形県酒田市大町１０-６２,小児科,,,9" xlink:title="鬼海小児科医院" transform="ref(svg,13985.2512,-3890.6092)" x="0" y="0"/>
<use xlink:href="#p0" content="2,さとう眼科クリニック,山形県酒田市亀ヶ崎５-５-２２,眼科,,,9" xlink:title="さとう眼科クリニック" transform="ref(svg,13984.8168,-3889.9527)" x="0" y="0"/>
<use xlink:href="#p0" content="2,河合眼科医院,山形県酒田市東泉町２-９-３,眼科,,,9" xlink:title="河合眼科医院" transform="ref(svg,13984.7573,-3893.0144)" x="0" y="0"/>
<use xlink:href="#p0" content="2,江部耳鼻咽喉科医院,山形県酒田市新井田町１-３７,耳鼻いんこう科,,,9" xlink:title="江部耳鼻咽喉科医院" transform="ref(svg,13984.6109,-3891.5847)" x="0" y="0"/>
<use xlink:href="#p0" content="2,丸岡医院,山形県酒田市松原南１５-１,内科　消化器科　循環器科,,,9" xlink:title="丸岡医院" transform="ref(svg,13985.2073,-3890.0052)" x="0" y="0"/>
<use xlink:href="#p0" content="2,石川整形外科医院,山形県酒田市本町２-１-３６,整形外科,,,9" xlink:title="石川整形外科医院" transform="ref(svg,13983.749,-3891.4102)" x="0" y="0"/>
<use xlink:href="#p0" content="2,（福）山形県社会福祉事業団吹浦荘診療所,山形県飽海郡遊佐町菅里字菅野南山２１-１４,内科　精神科　歯科,,,9" xlink:title="（福）山形県社会福祉事業団吹浦荘診療所" transform="ref(svg,13988.0157,-3904.8012)" x="0" y="0"/>
<use xlink:href="#p0" content="2,大山内科循環器科クリニック,山形県酒田市亀ヶ崎３-８-１１,内科　循環器科,,,9" xlink:title="大山内科循環器科クリニック" transform="ref(svg,13984.7551,-3890.3618)" x="0" y="0"/>
<use xlink:href="#p0" content="2,さつきクリニック,山形県酒田市曙町２-１８-６,内科　循環器内科,,,9" xlink:title="さつきクリニック" transform="ref(svg,13986.4639,-3891.9848)" x="0" y="0"/>
<use xlink:href="#p0" content="2,（医）齋藤クリニック,山形県酒田市あきほ町６５４-８,内科　精神科　神経科　心療内科,,,9" xlink:title="（医）齋藤クリニック" transform="ref(svg,13985.0037,-3888.9807)" x="0" y="0"/>
<use xlink:href="#p0" content="2,矢島医院,山形県酒田市高見台１-１３-１４,胃腸科　外科,,,9" xlink:title="矢島医院" transform="ref(svg,13981.8872,-3890.2962)" x="0" y="0"/>
<use xlink:href="#p0" content="2,松浦内科医院,山形県酒田市こあら２-３-９,内科　胃腸科　小児科,,,9" xlink:title="松浦内科医院" transform="ref(svg,13986.1249,-3891.5254)" x="0" y="0"/>
<use xlink:href="#p0" content="2,高木整形外科クリニック,山形県酒田市亀ヶ崎７-１-３０,リウマチ科　整形外科　リハビリテーション科,,,9" xlink:title="高木整形外科クリニック" transform="ref(svg,13984.7721,-3889.7798)" x="0" y="0"/>
<use xlink:href="#p0" content="2,（特養）ゆうすい,山形県飽海郡遊佐町遊佐字木ノ下２,内科,,,9" xlink:title="（特養）ゆうすい" transform="ref(svg,13991.9037,-3901.1278)" x="0" y="0"/>
<use xlink:href="#p0" content="2,岡田内科循環器科クリニック,山形県酒田市東大町３-３８-３,内科　循環器科,,,9" xlink:title="岡田内科循環器科クリニック" transform="ref(svg,13986.5242,-3890.4493)" x="0" y="0"/>
<use xlink:href="#p0" content="2,影沢内科医院,山形県酒田市砂越字粕町１００,内科　消化器内科,,,9" xlink:title="影沢内科医院" transform="ref(svg,13991.2048,-3889.2039)" x="0" y="0"/>
<use xlink:href="#p0" content="2,犬塚医院,山形県鶴岡市本町２-１１-１５,内科　循環器科,,,9" xlink:title="犬塚医院" transform="ref(svg,13982.5424,-3872.3814)" x="0" y="0"/>
<use xlink:href="#p0" content="2,池田内科医院,山形県鶴岡市本町３-１７-１７,内科　呼吸器科　消化器科　循環器科　放射線科,,,9" xlink:title="池田内科医院" transform="ref(svg,13982.1631,-3872.2513)" x="0" y="0"/>
<use xlink:href="#p0" content="2,斎藤内科医院,山形県鶴岡市本町２-６-３０,内科　消化器科,,,9" xlink:title="斎藤内科医院" transform="ref(svg,13982.8536,-3872.3226)" x="0" y="0"/>
<use xlink:href="#p0" content="2,齋藤医院,山形県鶴岡市加茂字加茂１７７,内科,,,9" xlink:title="齋藤医院" transform="ref(svg,13973.4069,-3876.1732)" x="0" y="0"/>
<use xlink:href="#p0" content="2,中里医院,山形県鶴岡市大山２-２３-５,内科　小児科,,,9" xlink:title="中里医院" transform="ref(svg,13976.6157,-3874.7843)" x="0" y="0"/>
<use xlink:href="#p0" content="2,福原医院,山形県鶴岡市本町２-２-４５,眼科,,,9" xlink:title="福原医院" transform="ref(svg,13982.8844,-3872.4343)" x="0" y="0"/>
<use xlink:href="#p0" content="2,（医）渡部泌尿器科内科医院,山形県鶴岡市本町２-１６-４,内科　泌尿器科,,,9" xlink:title="（医）渡部泌尿器科内科医院" transform="ref(svg,13982.855,-3872.2586)" x="0" y="0"/>
<use xlink:href="#p0" content="2,（福）山形県社会福祉事業団慈丘園診療所,山形県鶴岡市下川字窪畑１８３-５,内科　精神科,,,9" xlink:title="（福）山形県社会福祉事業団慈丘園診療所" transform="ref(svg,13976.5604,-3879.1791)" x="0" y="0"/>
<use xlink:href="#p0" content="2,いずみまちクリニック,山形県鶴岡市泉町８-６６,リウマチ科　外科　整形外科　リハビリテーション科,,,9" xlink:title="いずみまちクリニック" transform="ref(svg,13983.0963,-3873.1332)" x="0" y="0"/>
<use xlink:href="#p0" content="2,今立小児科医院,山形県鶴岡市鳥居町２-３０,小児科,,,9" xlink:title="今立小児科医院" transform="ref(svg,13983.7646,-3873.2269)" x="0" y="0"/>
<use xlink:href="#p0" content="2,鶴岡市養護老人ホーム友江荘,山形県鶴岡市友江町２-１８,内科,,,9" xlink:title="鶴岡市養護老人ホーム友江荘" transform="ref(svg,13982.6635,-3870.3768)" x="0" y="0"/>
<use xlink:href="#p0" content="2,岡田医院,山形県鶴岡市日吉町１１-１４,内科　呼吸器科　消化器科　循環器科,,,9" xlink:title="岡田医院" transform="ref(svg,13983.6535,-3873.3465)" x="0" y="0"/>
<use xlink:href="#p0" content="2,（福）思恩会立しおん荘診療所,山形県鶴岡市湯野浜１-１７-３５,内科,,,9" xlink:title="（福）思恩会立しおん荘診療所" transform="ref(svg,13975.7269,-3878.59)" x="0" y="0"/>
<use xlink:href="#p0" content="2,黒沢眼科医院,山形県鶴岡市昭和町１０-２０,眼科,,,9" xlink:title="黒沢眼科医院" transform="ref(svg,13983.4277,-3872.5029)" x="0" y="0"/>
<use xlink:href="#p0" content="2,（医）三浦産婦人科医院,山形県鶴岡市朝暘町４-１０,産婦人科,,,9" xlink:title="（医）三浦産婦人科医院" transform="ref(svg,13984.457,-3872.8843)" x="0" y="0"/>
<use xlink:href="#p0" content="2,佐藤医院,山形県鶴岡市羽黒町野荒町字街道上６-２,内科,,,9" xlink:title="佐藤医院" transform="ref(svg,13991.7166,-3871.8109)" x="0" y="0"/>
<use xlink:href="#p0" content="2,木根淵医院,山形県鶴岡市本町１-６-３４,皮膚科　泌尿器科,,,9" xlink:title="木根淵医院" transform="ref(svg,13983.0333,-3872.738)" x="0" y="0"/>
<use xlink:href="#p0" content="2,（医）石田内科医院,山形県鶴岡市文園町１-５２,内科　胃腸科,,,9" xlink:title="（医）石田内科医院" transform="ref(svg,13982.9188,-3871.8034)" x="0" y="0"/>
<use xlink:href="#p0" content="2,協立大山診療所,山形県鶴岡市大山２-２６-３,内科　心療内科　整形外科　放射線科,,,9" xlink:title="協立大山診療所" transform="ref(svg,13976.4592,-3874.7039)" x="0" y="0"/>
<use xlink:href="#p0" content="2,荘内地区健康管理センター,山形県鶴岡市馬場町１-４５,内科　放射線科,,,9" xlink:title="荘内地区健康管理センター" transform="ref(svg,13982.9869,-3872.8982)" x="0" y="0"/>
<use xlink:href="#p0" content="2,（医）千仁会中目内科胃腸科医院,山形県鶴岡市昭和町１０-５,内科　胃腸科　循環器科,,,9" xlink:title="（医）千仁会中目内科胃腸科医院" transform="ref(svg,13983.4737,-3872.5209)" x="0" y="0"/>
<use xlink:href="#p0" content="2,山形県立鶴岡乳児院,山形県鶴岡市道形町４９-６,小児科,,,9" xlink:title="山形県立鶴岡乳児院" transform="ref(svg,13984.8237,-3874.5873)" x="0" y="0"/>
<use xlink:href="#p0" content="2,中鉢医院,山形県鶴岡市双葉町６-１３,精神科　心療内科,,,9" xlink:title="中鉢医院" transform="ref(svg,13982.2667,-3871.8636)" x="0" y="0"/>
<use xlink:href="#p0" content="2,武田医院,山形県鶴岡市東新斎町１４-８,内科　精神科　心療内科　児童精神科　老年精神科,,,9" xlink:title="武田医院" transform="ref(svg,13981.5137,-3873.7519)" x="0" y="0"/>
<use xlink:href="#p0" content="2,佐藤医院,山形県鶴岡市羽黒町黒瀬字黒瀬１１６,内科　小児科　婦人科,,,9" xlink:title="佐藤医院" transform="ref(svg,13988.5133,-3871.8632)" x="0" y="0"/>
<use xlink:href="#p0" content="2,桂医院,山形県鶴岡市桂荒俣字下桂１０５-２,内科　消化器科,,,9" xlink:title="桂医院" transform="ref(svg,13984.4977,-3867.4953)" x="0" y="0"/>
<use xlink:href="#p0" content="2,（医）滝沢眼科,山形県鶴岡市本町３-７-６５,眼科,,,9" xlink:title="（医）滝沢眼科" transform="ref(svg,13982.1991,-3872.5569)" x="0" y="0"/>
<use xlink:href="#p0" content="2,黒羽根整形外科,山形県鶴岡市城南町６-６７,整形外科　リハビリテーション科,,,9" xlink:title="黒羽根整形外科" transform="ref(svg,13983.3231,-3871.1919)" x="0" y="0"/>
<use xlink:href="#p0" content="2,わかな内科医院,山形県鶴岡市家中新町１１-４１,内科,,,9" xlink:title="わかな内科医院" transform="ref(svg,13981.9862,-3872.8528)" x="0" y="0"/>
<use xlink:href="#p0" content="2,（医）石原小児科医院,山形県鶴岡市上畑町３-２３,小児科,,,9" xlink:title="（医）石原小児科医院" transform="ref(svg,13982.992,-3873.5439)" x="0" y="0"/>
<use xlink:href="#p0" content="2,こどもクリニックすずき,山形県鶴岡市切添町１６-１５,小児科,,,9" xlink:title="こどもクリニックすずき" transform="ref(svg,13984.517,-3872.9382)" x="0" y="0"/>
<use xlink:href="#p0" content="2,島眼科医院,山形県鶴岡市本町２-３-９,眼科,,,9" xlink:title="島眼科医院" transform="ref(svg,13983.1414,-3872.478)" x="0" y="0"/>
<use xlink:href="#p0" content="2,（医）石橋内科胃腸科医院,山形県鶴岡市藤島字笹花４８-１５,内科　胃腸科,,,9" xlink:title="（医）石橋内科胃腸科医院" transform="ref(svg,13990.6417,-3876.6177)" x="0" y="0"/>
<use xlink:href="#p0" content="2,（特養）池幸園医務室,山形県鶴岡市美原町４-４０,内科,,,9" xlink:title="（特養）池幸園医務室" transform="ref(svg,13982.1573,-3872.2031)" x="0" y="0"/>
<use xlink:href="#p0" content="2,本田耳鼻咽喉科医院,山形県鶴岡市新海町１３-２４,耳鼻いんこう科　気管食道科,,,9" xlink:title="本田耳鼻咽喉科医院" transform="ref(svg,13981.2762,-3873.0019)" x="0" y="0"/>
<use xlink:href="#p0" content="2,スズキ内科クリニック,山形県鶴岡市若葉町２５-１５,内科　消化器内科　循環器内科,,,9" xlink:title="スズキ内科クリニック" transform="ref(svg,13982.6269,-3872.9933)" x="0" y="0"/>
<use xlink:href="#p0" content="2,いとうクリニック,山形県鶴岡市日出１-１７-８,耳鼻いんこう科,,,9" xlink:title="いとうクリニック" transform="ref(svg,13984.6498,-3872.5933)" x="0" y="0"/>
<use xlink:href="#p0" content="2,丸岡真柄医院,山形県鶴岡市丸岡字町の内２９１-４０,内科　小児科,,,9" xlink:title="丸岡真柄医院" transform="ref(svg,13983.5304,-3868.0416)" x="0" y="0"/>
<use xlink:href="#p0" content="2,たんぽぽクリニック,山形県鶴岡市日枝字鳥居上４３-１,産科　婦人科,,,9" xlink:title="たんぽぽクリニック" transform="ref(svg,13981.6925,-3871.0983)" x="0" y="0"/>
<use xlink:href="#p0" content="2,協立三川診療所,山形県東田川郡三川町大字横山字袖東４-９,内科　整形外科,,,9" xlink:title="協立三川診療所" transform="ref(svg,13984.7526,-3879.6007)" x="0" y="0"/>
<use xlink:href="#p0" content="2,おぎわら医院,山形県鶴岡市切添町２１-２,内科　整形外科,,,9" xlink:title="おぎわら医院" transform="ref(svg,13984.276,-3873.0599)" x="0" y="0"/>
<use xlink:href="#p0" content="2,真島医院,山形県鶴岡市山王町３-２９,内科　小児科　外科,,,9" xlink:title="真島医院" transform="ref(svg,13983.3925,-3873.2332)" x="0" y="0"/>
<use xlink:href="#p0" content="2,（特養）永寿荘診療所,山形県鶴岡市茅原町２８-１０,内科　精神科　神経科,,,9" xlink:title="（特養）永寿荘診療所" transform="ref(svg,13984.2465,-3875.2761)" x="0" y="0"/>
<use xlink:href="#p0" content="2,中村内科胃腸科医院,山形県鶴岡市新海町１４-２０,内科　胃腸科　小児科,,,9" xlink:title="中村内科胃腸科医院" transform="ref(svg,13981.2726,-3872.9398)" x="0" y="0"/>
<use xlink:href="#p0" content="2,（医）三原皮膚科,山形県鶴岡市錦町１７-３,形成外科　皮膚科,,,9" xlink:title="（医）三原皮膚科" transform="ref(svg,13983.3372,-3873.7231)" x="0" y="0"/>
<use xlink:href="#p0" content="2,上野整形外科,山形県鶴岡市日吉町１０-４３,リウマチ科　整形外科　リハビリテーション科,,,9" xlink:title="上野整形外科" transform="ref(svg,13983.6373,-3873.5279)" x="0" y="0"/>
<use xlink:href="#p0" content="2,茅原クリニック,山形県鶴岡市茅原町２６-２３,内科　外科,,,9" xlink:title="茅原クリニック" transform="ref(svg,13984.1516,-3875.3748)" x="0" y="0"/>
<use xlink:href="#p0" content="2,（医）愛康会こばやしクリニック,山形県鶴岡市藤浪４-１１１-２,内科　外科　脳神経外科　皮膚科　泌尿器科　リハビリテーション科　アレルギー疾患内科,,,9" xlink:title="（医）愛康会こばやしクリニック" transform="ref(svg,13989.8984,-3875.9758)" x="0" y="0"/>
<use xlink:href="#p0" content="2,（医）秀医会中村整形外科医院,山形県鶴岡市ほなみ町５-３０,内科　リウマチ科　整形外科　リハビリテーション科,,,9" xlink:title="（医）秀医会中村整形外科医院" transform="ref(svg,13984.2471,-3871.7156)" x="0" y="0"/>
<use xlink:href="#p0" content="2,（特養）なの花荘医務室,山形県東田川郡三川町大字横山字堤１８９-２,内科,,,9" xlink:title="（特養）なの花荘医務室" transform="ref(svg,13984.9308,-3878.1744)" x="0" y="0"/>
<use xlink:href="#p0" content="2,さくまクリニック,山形県鶴岡市湯田川字中田８-３,内科　胃腸科　麻酔科,,,9" xlink:title="さくまクリニック" transform="ref(svg,13977.2367,-3869.5435)" x="0" y="0"/>
<use xlink:href="#p0" content="2,（福）ふじの里立ふじの花荘診療所,山形県鶴岡市藤の花１-１８-１,内科,,,9" xlink:title="（福）ふじの里立ふじの花荘診療所" transform="ref(svg,13990.823,-3877.3065)" x="0" y="0"/>
<use xlink:href="#p0" content="2,おかべ内科胃腸科医院,山形県鶴岡市平成町１１-１８,内科　胃腸科,,,9" xlink:title="おかべ内科胃腸科医院" transform="ref(svg,13976.9224,-3874.5532)" x="0" y="0"/>
<use xlink:href="#p0" content="2,山形県立総合療育訓練センター庄内支所,山形県鶴岡市道形町４９-２１,内科　小児科　整形外科　歯科,,,9" xlink:title="山形県立総合療育訓練センター庄内支所" transform="ref(svg,13984.8723,-3874.5667)" x="0" y="0"/>
<use xlink:href="#p0" content="2,島貫小児科医院,山形県酒田市あきほ町６５８-４,小児科,,,9" xlink:title="島貫小児科医院" transform="ref(svg,13984.9622,-3888.9654)" x="0" y="0"/>
<use xlink:href="#p0" content="2,石沢内科胃腸科医院,山形県酒田市亀ヶ崎２-２-５７,内科　胃腸科,,,9" xlink:title="石沢内科胃腸科医院" transform="ref(svg,13984.3516,-3890.7542)" x="0" y="0"/>
<use xlink:href="#p0" content="2,鶴岡協立病院附属クリニック,山形県鶴岡市文園町１１-３,内科　小児科,,,9" xlink:title="鶴岡協立病院附属クリニック" transform="ref(svg,13982.7338,-3871.4773)" x="0" y="0"/>
<use xlink:href="#p0" content="2,すこやかレディースクリニック,山形県鶴岡市東原町１９-２７,内科　神経科　産科　婦人科,,,9" xlink:title="すこやかレディースクリニック" transform="ref(svg,13984.6526,-3871.9046)" x="0" y="0"/>
<use xlink:href="#p0" content="2,川上医院,山形県鶴岡市本町３-７-１０,内科　小児科,,,9" xlink:title="川上医院" transform="ref(svg,13982.2717,-3872.5408)" x="0" y="0"/>
<use xlink:href="#p0" content="2,（特養）ライフケア黒森,山形県酒田市黒森字葭葉山５４-１０,内科,,,9" xlink:title="（特養）ライフケア黒森" transform="ref(svg,13981.6974,-3885.3046)" x="0" y="0"/>
<use xlink:href="#p0" content="2,（特養）かたばみ荘,山形県酒田市北千日堂前字松境１８-１,内科　精神科,,,9" xlink:title="（特養）かたばみ荘" transform="ref(svg,13983.4529,-3893.665)" x="0" y="0"/>
<use xlink:href="#p0" content="2,山王中央クリニック,山形県鶴岡市山王町１４-１５,内科　心療内科,,,9" xlink:title="山王中央クリニック" transform="ref(svg,13983.6474,-3872.9773)" x="0" y="0"/>
<use xlink:href="#p0" content="2,藤吉内科医院,山形県鶴岡市山王町１４-１５,内科　呼吸器科　消化器科　循環器科　心療内科　放射線科,,,9" xlink:title="藤吉内科医院" transform="ref(svg,13983.6474,-3872.9773)" x="0" y="0"/>
<use xlink:href="#p0" content="2,青木皮膚科医院,山形県酒田市ゆたか２-１-１１,皮膚科,,,9" xlink:title="青木皮膚科医院" transform="ref(svg,13984.5674,-3893.5756)" x="0" y="0"/>
<use xlink:href="#p0" content="2,（医）外科内科渡邊クリニック,山形県酒田市亀ヶ崎３-２-１,内科　呼吸器科　胃腸科　外科　こう門科,,,9" xlink:title="（医）外科内科渡邊クリニック" transform="ref(svg,13984.2271,-3890.5498)" x="0" y="0"/>
<use xlink:href="#p0" content="2,いくま内科胃腸科クリニック,山形県酒田市錦町５-３２-６９８,内科　胃腸科,,,9" xlink:title="いくま内科胃腸科クリニック" transform="ref(svg,13983.3836,-3887.7824)" x="0" y="0"/>
<use xlink:href="#p0" content="2,さとう内科クリニック,山形県酒田市東泉町１-１２-５０,内科,,,9" xlink:title="さとう内科クリニック" transform="ref(svg,13984.6943,-3892.9603)" x="0" y="0"/>
<use xlink:href="#p0" content="2,腰越クリニック,山形県鶴岡市美咲町２５-１６,内科　精神科　心療内科,,,9" xlink:title="腰越クリニック" transform="ref(svg,13979.9707,-3873.6322)" x="0" y="0"/>
<use xlink:href="#p0" content="2,健生ふれあいクリニック,山形県酒田市泉町１-１６,循環器内科,,,9" xlink:title="健生ふれあいクリニック" transform="ref(svg,13984.1976,-3892.7205)" x="0" y="0"/>
<use xlink:href="#p0" content="2,山原整形外科クリニック,山形県酒田市大宮字一貫野８２,リウマチ科　整形外科　リハビリテーション科,,,9" xlink:title="山原整形外科クリニック" transform="ref(svg,13985.9666,-3888.956)" x="0" y="0"/>
<use xlink:href="#p0" content="2,いでは診療所,山形県鶴岡市羽黒町荒川字谷地堰４２-４,内科　循環器科,,,9" xlink:title="いでは診療所" transform="ref(svg,13989.9485,-3871.8381)" x="0" y="0"/>
<use xlink:href="#p0" content="2,恵風園,山形県鶴岡市羽黒町川代字向山１３６-１,内科,,,9" xlink:title="恵風園" transform="ref(svg,13991.4842,-3868.4459)" x="0" y="0"/>
<use xlink:href="#p0" content="2,安孫子皮ふ科,山形県酒田市亀ヶ崎７-１-５,皮膚科,,,9" xlink:title="安孫子皮ふ科" transform="ref(svg,13984.7801,-3889.8131)" x="0" y="0"/>
<use xlink:href="#p0" content="2,長島整形外科クリニック,山形県酒田市駅東２-４-８,リウマチ科　整形外科　リハビリテーション科,,,9" xlink:title="長島整形外科クリニック" transform="ref(svg,13984.8863,-3892.3646)" x="0" y="0"/>
<use xlink:href="#p0" content="2,酒田市飛島健診診療所,山形県酒田市飛島字中村甲２８３,内科,,,9" xlink:title="酒田市飛島健診診療所" transform="ref(svg,13955.9642,-3919.594)" x="0" y="0"/>
<use xlink:href="#p0" content="2,加納医院デイケアセンター,山形県酒田市日吉町１-６-３８,内科　リウマチ科　リハビリテーション科,,,9" xlink:title="加納医院デイケアセンター" transform="ref(svg,13983.2493,-3892.0832)" x="0" y="0"/>
<use xlink:href="#p0" content="2,菊地内科クリニック,山形県鶴岡市東原町２５-５１,内科,,,9" xlink:title="菊地内科クリニック" transform="ref(svg,13984.4165,-3871.9446)" x="0" y="0"/>
<use xlink:href="#p0" content="2,荻原耳鼻咽喉科医院,山形県酒田市駅東２-４-１３,耳鼻いんこう科,,,9" xlink:title="荻原耳鼻咽喉科医院" transform="ref(svg,13984.8815,-3892.34)" x="0" y="0"/>
<use xlink:href="#p0" content="2,よこやま皮膚科医院,山形県鶴岡市美咲町２５-１２,皮膚科,,,9" xlink:title="よこやま皮膚科医院" transform="ref(svg,13979.9987,-3873.6445)" x="0" y="0"/>
<use xlink:href="#p0" content="2,池田内科医院浜中診療所,山形県酒田市浜中字上村３７２-１０,内科,,,9" xlink:title="池田内科医院浜中診療所" transform="ref(svg,13978.276,-3882.5531)" x="0" y="0"/>
<use xlink:href="#p0" content="2,きれん耳鼻咽喉科医院,山形県酒田市あきほ町６５９-１,耳鼻いんこう科,,,9" xlink:title="きれん耳鼻咽喉科医院" transform="ref(svg,13984.9818,-3888.9387)" x="0" y="0"/>
<use xlink:href="#p0" content="2,さいとうクリニック,山形県鶴岡市辻興屋字三丁場２３-４,内科,,,9" xlink:title="さいとうクリニック" transform="ref(svg,13979.2825,-3878.8665)" x="0" y="0"/>
<use xlink:href="#p0" content="2,ほんまクリニック,山形県酒田市新橋１-１４-１０,内科　呼吸器科　循環器科,,,9" xlink:title="ほんまクリニック" transform="ref(svg,13985.3983,-3892.1987)" x="0" y="0"/>
<use xlink:href="#p0" content="2,まつざわ眼科,山形県酒田市亀ヶ崎１-１０-１,眼科,,,9" xlink:title="まつざわ眼科" transform="ref(svg,13984.2398,-3890.6884)" x="0" y="0"/>
<use xlink:href="#p0" content="2,五十嵐ハートクリニック,山形県鶴岡市美咲町２４-８,内科,,,9" xlink:title="五十嵐ハートクリニック" transform="ref(svg,13980.1577,-3873.7385)" x="0" y="0"/>
<use xlink:href="#p0" content="2,島田クリニック,山形県鶴岡市宝町１０-２,精神科　心療内科,,,9" xlink:title="島田クリニック" transform="ref(svg,13983.6515,-3873.2491)" x="0" y="0"/>
<use xlink:href="#p0" content="2,（特養）さくらホーム広野,山形県酒田市広野字末広１０２-１,内科,,,9" xlink:title="（特養）さくらホーム広野" transform="ref(svg,13984.7274,-3884.888)" x="0" y="0"/>
<use xlink:href="#p0" content="2,おのこども診療所,山形県鶴岡市桜新町１２-１,小児科　アレルギー科,,,9" xlink:title="おのこども診療所" transform="ref(svg,13983.9349,-3871.7383)" x="0" y="0"/>
<use xlink:href="#p0" content="2,諸星外科内科クリニック,山形県酒田市ゆたか１-５-１,内科　消化器科　外科　心臓血管外科　こう門科,,,9" xlink:title="諸星外科内科クリニック" transform="ref(svg,13984.3439,-3893.346)" x="0" y="0"/>
<use xlink:href="#p0" content="2,三浦クリニック,山形県鶴岡市美咲町２７-３,泌尿器科,,,9" xlink:title="三浦クリニック" transform="ref(svg,13979.9735,-3873.83)" x="0" y="0"/>
<use xlink:href="#p0" content="2,すずき整形外科,山形県鶴岡市藤島字笹花４２-３４,リウマチ科　整形外科　リハビリテーション科,,,9" xlink:title="すずき整形外科" transform="ref(svg,13990.4436,-3876.668)" x="0" y="0"/>
<use xlink:href="#p0" content="2,湯野浜思恩園診療所,山形県鶴岡市湯野浜１-１７-３４,内科　循環器科,,,9" xlink:title="湯野浜思恩園診療所" transform="ref(svg,13975.816,-3878.6102)" x="0" y="0"/>
<use xlink:href="#p0" content="2,鶴岡市高齢者福祉センターおおやま（特養）おおやま医務室,山形県鶴岡市大山３-３４-１,内科,,,9" xlink:title="鶴岡市高齢者福祉センターおおやま（特養）おおやま医務室" transform="ref(svg,13976.4452,-3875.1193)" x="0" y="0"/>
<use xlink:href="#p0" content="2,おおたきこどもクリニック,山形県酒田市東泉町５-８-２,小児科　アレルギー科,,,9" xlink:title="おおたきこどもクリニック" transform="ref(svg,13985.3068,-3893.377)" x="0" y="0"/>
<use xlink:href="#p0" content="2,古谷眼科クリニック,山形県東田川郡庄内町余目字猿田９２-１２,眼科,,,9" xlink:title="古谷眼科クリニック" transform="ref(svg,13990.4691,-3884.4872)" x="0" y="0"/>
<use xlink:href="#p0" content="2,（医）いぶき会宝田整形外科クリニック,山形県鶴岡市宝田１-９-８０,リウマチ科　整形外科　リハビリテーション科,,,9" xlink:title="（医）いぶき会宝田整形外科クリニック" transform="ref(svg,13983.1714,-3874.2708)" x="0" y="0"/>
<use xlink:href="#p0" content="2,のぞみ診療所,山形県酒田市中町３-４-１２,内科　外科　循環器内科,,,9" xlink:title="のぞみ診療所" transform="ref(svg,13983.4164,-3891.7599)" x="0" y="0"/>
<use xlink:href="#p0" content="2,（公財）やまがた健康推進機構庄内検診センター,山形県酒田市東町１-２３-１,内科　呼吸器科　消化器科　循環器科　婦人科,,,9" xlink:title="（公財）やまがた健康推進機構庄内検診センター" transform="ref(svg,13986.3333,-3890.9845)" x="0" y="0"/>
<use xlink:href="#p0" content="2,おおかつ眼科,山形県鶴岡市錦町２０-１８,眼科,,,9" xlink:title="おおかつ眼科" transform="ref(svg,13983.1042,-3873.6824)" x="0" y="0"/>
<use xlink:href="#p0" content="2,かめがさき整形外科,山形県酒田市亀ヶ崎３-２-１３,整形外科　リハビリテーション科,,,9" xlink:title="かめがさき整形外科" transform="ref(svg,13984.3255,-3890.4989)" x="0" y="0"/>
<use xlink:href="#p0" content="2,乙黒医院,山形県鶴岡市桜新町３-２２,内科　外科,,,9" xlink:title="乙黒医院" transform="ref(svg,13983.9031,-3871.7634)" x="0" y="0"/>
<use xlink:href="#p0" content="2,伊藤耳鼻咽喉科医院,山形県鶴岡市馬場町７-２８,耳鼻いんこう科,,,9" xlink:title="伊藤耳鼻咽喉科医院" transform="ref(svg,13982.8876,-3872.7606)" x="0" y="0"/>
<use xlink:href="#p0" content="2,須田内科クリニック,山形県鶴岡市宝田１-９-８６,内科,,,9" xlink:title="須田内科クリニック" transform="ref(svg,13983.1643,-3874.178)" x="0" y="0"/>
<use xlink:href="#p0" content="2,小真木原クリニック,山形県鶴岡市日枝字小真木原１１６-３,内科　脳神経外科,,,9" xlink:title="小真木原クリニック" transform="ref(svg,13981.2157,-3871.2138)" x="0" y="0"/>
<use xlink:href="#p0" content="2,浅野内科クリニック,山形県酒田市あきほ町６５３-９,内科　呼吸器科　消化器科　胃腸科　循環器科,,,9" xlink:title="浅野内科クリニック" transform="ref(svg,13985.0668,-3888.979)" x="0" y="0"/>
<use xlink:href="#p0" content="2,わだ内科医院,山形県鶴岡市下川字七窪２-１１９８,内科　呼吸器科　循環器科　小児科　アレルギー科,,,9" xlink:title="わだ内科医院" transform="ref(svg,13976.9235,-3878.8973)" x="0" y="0"/>
<use xlink:href="#p0" content="2,酒田市休日診療所,山形県酒田市船場町２-１-３１,内科　小児科　外科,,,9" xlink:title="酒田市休日診療所" transform="ref(svg,13983.2621,-3891.3864)" x="0" y="0"/>
<use xlink:href="#p0" content="2,くろき脳神経クリニック,山形県酒田市富士見町３-２-３,内科　神経内科　脳神経外科　リハビリテーション科,,,9" xlink:title="くろき脳神経クリニック" transform="ref(svg,13986.3766,-3892.0798)" x="0" y="0"/>
<use xlink:href="#p0" content="2,脳神経外科・内科藤森クリニック,山形県酒田市亀ヶ崎３-７-１３,内科　脳神経外科,,,9" xlink:title="脳神経外科・内科藤森クリニック" transform="ref(svg,13984.6068,-3890.4134)" x="0" y="0"/>
<use xlink:href="#p0" content="2,みかわキッズクリニック,山形県東田川郡三川町大字猪子字大堰端３７９-７,小児科　アレルギー科,,,9" xlink:title="みかわキッズクリニック" transform="ref(svg,13983.8443,-3881.7458)" x="0" y="0"/>
<use xlink:href="#p0" content="2,美咲クリニック,山形県鶴岡市美咲町２５-５,内科　精神科　心療内科　リウマチ科　整形外科　形成外科　皮膚科　リハビリテーション科　美容皮膚科,,,9" xlink:title="美咲クリニック" transform="ref(svg,13980.0305,-3873.6893)" x="0" y="0"/>
<use xlink:href="#p0" content="2,皮ふ科さいとう医院,山形県酒田市あきほ町６５８-６,皮膚科,,,9" xlink:title="皮ふ科さいとう医院" transform="ref(svg,13984.9333,-3888.9313)" x="0" y="0"/>
<use xlink:href="#p0" content="2,（医）池田内科医院,山形県酒田市広野字末広１０５-４,内科,,,9" xlink:title="（医）池田内科医院" transform="ref(svg,13984.7277,-3884.7866)" x="0" y="0"/>
<use xlink:href="#p0" content="2,高橋クリニック,山形県鶴岡市ほなみ町７-１１,内科　外科　胃腸内科　内視鏡内科,,,9" xlink:title="高橋クリニック" transform="ref(svg,13984.4052,-3871.7077)" x="0" y="0"/>
<use xlink:href="#p0" content="2,水戸部クリニック,山形県酒田市駅東２-６-１１,内科　皮膚科　泌尿器科,,,9" xlink:title="水戸部クリニック" transform="ref(svg,13984.8134,-3892.4049)" x="0" y="0"/>
<use xlink:href="#p0" content="2,志田整形外科医院,山形県鶴岡市みどり町１８-５,整形外科　リハビリテーション科,,,9" xlink:title="志田整形外科医院" transform="ref(svg,13980.6861,-3873.3476)" x="0" y="0"/>
<use xlink:href="#p0" content="2,さくらこころのクリニック,山形県酒田市東大町２-６-４,精神科　心療内科,,,9" xlink:title="さくらこころのクリニック" transform="ref(svg,13985.5059,-3890.8392)" x="0" y="0"/>
<use xlink:href="#p0" content="2,養護老人ホームかたばみの家,山形県酒田市北千日堂前字松境１６,内科　精神科,,,9" xlink:title="養護老人ホームかたばみの家" transform="ref(svg,13983.4501,-3893.5864)" x="0" y="0"/>
<use xlink:href="#p0" content="2,鶴岡市休日夜間診療所,山形県鶴岡市泉町５-３０,内科　小児科　外科,,,9" xlink:title="鶴岡市休日夜間診療所" transform="ref(svg,13982.7925,-3872.985)" x="0" y="0"/>
<use xlink:href="#p0" content="2,はらだこども医院,山形県鶴岡市西新斎町３-７,小児科　アレルギー科,,,9" xlink:title="はらだこども医院" transform="ref(svg,13981.4245,-3873.3666)" x="0" y="0"/>
<use xlink:href="#p0" content="2,斎藤胃腸クリニック,山形県鶴岡市本町２-２-３５,内科　外科　胃腸内科,,,9" xlink:title="斎藤胃腸クリニック" transform="ref(svg,13982.9092,-3872.41)" x="0" y="0"/>
<use xlink:href="#p0" content="2,心臓・血圧満天クリニック,山形県鶴岡市のぞみ町５-１７,内科　血管外科,,,9" xlink:title="心臓・血圧満天クリニック" transform="ref(svg,13983.5203,-3871.4285)" x="0" y="0"/>
<use xlink:href="#p0" content="2,さかい往診クリニック,山形県酒田市みずほ２-２０-７,内科　外科,,,9" xlink:title="さかい往診クリニック" transform="ref(svg,13985.1787,-3890.2646)" x="0" y="0"/>
<use xlink:href="#p0" content="2,奥山皮フ科,山形県鶴岡市切添町２１-２２,皮膚科,,,9" xlink:title="奥山皮フ科" transform="ref(svg,13984.2762,-3872.9939)" x="0" y="0"/>
<use xlink:href="#p0" content="2,さとう整形外科クリニック,山形県鶴岡市城北町２６-１０,整形外科　リハビリテーション科,,,9" xlink:title="さとう整形外科クリニック" transform="ref(svg,13981.9984,-3873.6405)" x="0" y="0"/>
<use xlink:href="#p0" content="2,山形県赤十字血液センター庄内出張所,山形県鶴岡市美咲町２６-１２,内科,,,9" xlink:title="山形県赤十字血液センター庄内出張所" transform="ref(svg,13980.066,-3873.7734)" x="0" y="0"/>
<use xlink:href="#p0" content="2,しょうない眼科,山形県酒田市大宮町１-４-１７,眼科,,,9" xlink:title="しょうない眼科" transform="ref(svg,13985.6403,-3888.9836)" x="0" y="0"/>
<use xlink:href="#p0" content="2,（特養）かけはし,山形県鶴岡市民田字代家田９９-１９９-１,内科,,,9" xlink:title="（特養）かけはし" transform="ref(svg,13982.6581,-3870.4777)" x="0" y="0"/>
<use xlink:href="#p0" content="2,わたべクリニック,山形県酒田市みずほ１-２-２０,精神科　心療内科,,,9" xlink:title="わたべクリニック" transform="ref(svg,13984.9884,-3890.6673)" x="0" y="0"/>
<use xlink:href="#p0" content="2,みどりまちクリニック,山形県鶴岡市みどり町２９-２２,内科　循環器内科,,,9" xlink:title="みどりまちクリニック" transform="ref(svg,13981.0213,-3873.1602)" x="0" y="0"/>
<use xlink:href="#p0" content="2,川口耳鼻咽喉科クリニック,山形県酒田市若竹町２-３-２,アレルギー科　耳鼻いんこう科,,,9" xlink:title="川口耳鼻咽喉科クリニック" transform="ref(svg,13983.8313,-3890.2518)" x="0" y="0"/>
<use xlink:href="#p0" content="2,今泉クリニック,山形県酒田市若浜町５-２９,内科,,,9" xlink:title="今泉クリニック" transform="ref(svg,13984.9787,-3891.3442)" x="0" y="0"/>
<use xlink:href="#p0" content="2,森田内科クリニック,山形県東田川郡庄内町余目字土堤下１９-３,内科　糖尿病内科　内分泌内科,,,9" xlink:title="森田内科クリニック" transform="ref(svg,13990.4917,-3884.4454)" x="0" y="0"/>
<use xlink:href="#p0" content="2,いでは診療所分院,山形県鶴岡市三瀬戊８７,内科　循環器内科,,,9" xlink:title="いでは診療所分院" transform="ref(svg,13966.9908,-3870.135)" x="0" y="0"/>
<use xlink:href="#p0" content="2,山形県庄内保健所酒田出張所,山形県酒田市若浜町１-４０,内科　,,,9" xlink:title="山形県庄内保健所酒田出張所" transform="ref(svg,13984.9065,-3891.3364)" x="0" y="0"/>
<use xlink:href="#p0" content="2,山形県庄内保健所,山形県東田川郡三川町大字横山字袖東１９-１,内科,,,9" xlink:title="山形県庄内保健所" transform="ref(svg,13985.0007,-3880.0869)" x="0" y="0"/>
</g>
</svg>
