<?xml version="1.0" encoding="UTF-8"?>
<svg  xmlns="http://www.w3.org/2000/svg" xmlns:xlink="http://www.w3.org/1999/xlink" xmlns:go="http://purl.org/svgmap/profile" property="医療機関分類,施設名称,所在地,診療科目１,診療科目２,診療科目３,開設者分類" viewBox="13992.1875 -3796.875 35.15625 35.15625" go:dataArea="13992.1875 -3796.875 35.15625 35.15625" >
<metadata>
 <rdf:RDF xmlns:rdf="http://www.w3.org/1999/02/22-rdf-syntax-ns#" xmlns:crs="http://opengis.org/xmldtds/transformations.dtd" xmlns:svg="http://www.w3.org/svg" >
  <rdf:Description>
   <crs:CoordinateReferenceSystem rdf:resource="http://purl.org/crs/84" svg:transform="matrix(100.0,0.0,0.0,-100.0,0.0,0.0)" />
  </rdf:Description>
 </rdf:RDF>
</metadata>
<globalCoordinateSystem srsName="http://purl.org/crs/84" transform="matrix(100.0,0.0,0.0,-100.0,0.0,0.0)" />
<defs>
 <g id="p0" >
  <image xlink:href="mappin.png" preserveAspectRatio="none" x="-8" y="-25" width="19" height="27"/>
 </g>
 <g id="p1" >
  <image xlink:href="mappin1.png" preserveAspectRatio="none" x="-8" y="-25" width="19" height="27"/>
 </g>
 <g id="p2" >
  <image xlink:href="mappin2.png" preserveAspectRatio="none" x="-8" y="-25" width="19" height="27"/>
 </g>
 <g id="p3" >
  <image xlink:href="mappin3.png" preserveAspectRatio="none" x="-8" y="-25" width="19" height="27"/>
 </g>
 <g id="p4" >
  <image xlink:href="mappin4.png" preserveAspectRatio="none" x="-8" y="-25" width="19" height="27"/>
 </g>
 <g id="p5" >
  <image xlink:href="mappin5.png" preserveAspectRatio="none" x="-8" y="-25" width="19" height="27"/>
 </g>
 <g id="p6" >
  <image xlink:href="mappin6.png" preserveAspectRatio="none" x="-8" y="-25" width="19" height="27"/>
 </g>
 <g id="p7" >
  <image xlink:href="mappin7.png" preserveAspectRatio="none" x="-8" y="-25" width="19" height="27"/>
 </g>
 <g id="p8" >
  <image xlink:href="mappin8.png" preserveAspectRatio="none" x="-8" y="-25" width="19" height="27"/>
 </g>
 <g id="p9" >
  <image xlink:href="mappin9.png" preserveAspectRatio="none" x="-8" y="-25" width="19" height="27"/>
 </g>
</defs>
<g fill="green" fill-rule="evenodd" >
<use xlink:href="#p0" content="2,（医）石橋医院,山形県米沢市信夫町５-１９,内科　消化器科,,,9" xlink:title="（医）石橋医院" transform="ref(svg,14009.6143,-3791.9503)" x="0" y="0"/>
<use xlink:href="#p0" content="2,内科島津医院,山形県米沢市中央４-８-４７,内科,,,9" xlink:title="内科島津医院" transform="ref(svg,14010.7135,-3791.721)" x="0" y="0"/>
<use xlink:href="#p0" content="2,（福）山形県社会福祉事業団梓園診療所,山形県米沢市大字三沢２６１００-１４,内科　整形外科,,,9" xlink:title="（福）山形県社会福祉事業団梓園診療所" transform="ref(svg,14013.7712,-3788.5101)" x="0" y="0"/>
<use xlink:href="#p0" content="2,松田外科医院,山形県米沢市城西４-４-２５,外科　整形外科　消化器内科,,,9" xlink:title="松田外科医院" transform="ref(svg,14009.4157,-3791.2183)" x="0" y="0"/>
<use xlink:href="#p0" content="2,平井医院,山形県米沢市舘山４-３-１８,内科　外科　泌尿器科,,,9" xlink:title="平井医院" transform="ref(svg,14007.1427,-3791.213)" x="0" y="0"/>
<use xlink:href="#p0" content="2,（医）消化器内科遠藤一平医院,山形県米沢市中央４-７-２６,内科　消化器内科　胃腸内科,,,9" xlink:title="（医）消化器内科遠藤一平医院" transform="ref(svg,14010.7977,-3791.5839)" x="0" y="0"/>
<use xlink:href="#p0" content="2,成島園診療所,山形県米沢市広幡町成島字窪平山２１２０-５,内科,,,9" xlink:title="成島園診療所" transform="ref(svg,14007.7846,-3793.4682)" x="0" y="0"/>
<use xlink:href="#p0" content="2,博済会高橋胃腸科外科医院,山形県米沢市西大通１-６-８７,内科　外科　消化器内科,,,9" xlink:title="博済会高橋胃腸科外科医院" transform="ref(svg,14009.8946,-3791.9415)" x="0" y="0"/>
<use xlink:href="#p0" content="2,（医）斎藤医院,山形県米沢市駅前４-３-３５,外科　泌尿器科,,,9" xlink:title="（医）斎藤医院" transform="ref(svg,14012.1169,-3791.095)" x="0" y="0"/>
<use xlink:href="#p0" content="2,米沢栄光の里診療所,山形県米沢市万世町梓山５４９４-１,内科　精神科　歯科,,,9" xlink:title="米沢栄光の里診療所" transform="ref(svg,14020.1607,-3788.5893)" x="0" y="0"/>
<use xlink:href="#p0" content="2,小児科入間田医院,山形県米沢市中央６-１-２５,小児科,,,9" xlink:title="小児科入間田医院" transform="ref(svg,14010.6778,-3791.7798)" x="0" y="0"/>
<use xlink:href="#p0" content="2,神尾胃腸科,山形県米沢市城西３-２-５,内科　消化器科,,,9" xlink:title="神尾胃腸科" transform="ref(svg,14009.9122,-3791.4174)" x="0" y="0"/>
<use xlink:href="#p0" content="2,万世園診療所,山形県米沢市万世町梓山字大石原５４９６-１２,内科　精神科,,,9" xlink:title="万世園診療所" transform="ref(svg,14020.6632,-3788.4233)" x="0" y="0"/>
<use xlink:href="#p0" content="2,星の村診療所,山形県米沢市大字笹野２０２-３,内科,,,9" xlink:title="星の村診療所" transform="ref(svg,14011.0749,-3787.7595)" x="0" y="0"/>
<use xlink:href="#p0" content="2,（医）メディカルプラザ山口医院,山形県米沢市川井小路１-３,内科　胃腸科　神経内科　外科　整形外科　脳神経外科　皮膚科　こう門科,,,9" xlink:title="（医）メディカルプラザ山口医院" transform="ref(svg,14011.6433,-3791.5326)" x="0" y="0"/>
<use xlink:href="#p0" content="2,（医）齋藤内科医院,山形県米沢市桜木町１-７０,内科　胃腸科　循環器科　小児科,,,9" xlink:title="（医）齋藤内科医院" transform="ref(svg,14011.7419,-3791.6919)" x="0" y="0"/>
<use xlink:href="#p0" content="2,（医）慈敬会よねざわ眼科,山形県米沢市中央３-３-２,眼科,,,9" xlink:title="（医）慈敬会よねざわ眼科" transform="ref(svg,14011.3423,-3791.5398)" x="0" y="0"/>
<use xlink:href="#p0" content="2,（医）古川医院,山形県米沢市金池２-６-３５,内科　小児科　消化器内科,,,9" xlink:title="（医）古川医院" transform="ref(svg,14011.4091,-3791.9202)" x="0" y="0"/>
<use xlink:href="#p0" content="2,（医）くまの医院,山形県米沢市門東町１-４-４,内科　循環器科,,,9" xlink:title="（医）くまの医院" transform="ref(svg,14010.8805,-3790.7186)" x="0" y="0"/>
<use xlink:href="#p0" content="2,ささきクリニック,山形県米沢市中央３-１-２４,内科　精神科　心療内科,,,9" xlink:title="ささきクリニック" transform="ref(svg,14011.3378,-3791.6831)" x="0" y="0"/>
<use xlink:href="#p0" content="2,中條医院,山形県米沢市中央５-２-４３,内科　アレルギー科　外科　耳鼻いんこう科　リハビリテーション科　放射線科,,,9" xlink:title="中條医院" transform="ref(svg,14010.9514,-3791.9522)" x="0" y="0"/>
<use xlink:href="#p0" content="2,花の里診療所,山形県米沢市大字笹野１７０,内科　精神科,,,9" xlink:title="花の里診療所" transform="ref(svg,14011.1252,-3787.6987)" x="0" y="0"/>
<use xlink:href="#p0" content="2,（医）小林医院,山形県米沢市中央７-１-３０,内科　消化器科　胃腸科,,,9" xlink:title="（医）小林医院" transform="ref(svg,14010.8135,-3791.9736)" x="0" y="0"/>
<use xlink:href="#p0" content="2,（公財）やまがた健康推進機構米沢検診センター,山形県米沢市西大通１-５-６６,内科,,,9" xlink:title="（公財）やまがた健康推進機構米沢検診センター" transform="ref(svg,14009.9505,-3791.7507)" x="0" y="0"/>
<use xlink:href="#p0" content="2,島田皮膚科医院,山形県米沢市林泉寺２-４-１,皮膚科,,,9" xlink:title="島田皮膚科医院" transform="ref(svg,14009.5556,-3790.3417)" x="0" y="0"/>
<use xlink:href="#p0" content="2,早川小児科医院,山形県米沢市成島町１-５-１６,小児科,,,9" xlink:title="早川小児科医院" transform="ref(svg,14009.0351,-3791.8365)" x="0" y="0"/>
<use xlink:href="#p0" content="2,米沢市平日夜間・休日診療所,山形県米沢市西大通１-５-６０,内科　小児科,,,9" xlink:title="米沢市平日夜間・休日診療所" transform="ref(svg,14010.0125,-3791.7801)" x="0" y="0"/>
<use xlink:href="#p0" content="2,酒井耳鼻咽喉科医院,山形県米沢市木場町３-８,耳鼻いんこう科,,,9" xlink:title="酒井耳鼻咽喉科医院" transform="ref(svg,14009.4868,-3791.627)" x="0" y="0"/>
<use xlink:href="#p0" content="2,大辻外科胃腸科,山形県米沢市中央１-２-１０,内科　胃腸科　外科　整形外科　形成外科　皮膚科　泌尿器科　こう門科,,,9" xlink:title="大辻外科胃腸科" transform="ref(svg,14011.2743,-3791.3107)" x="0" y="0"/>
<use xlink:href="#p0" content="2,（医）根際会もり医院,山形県米沢市成島町２-１-３５,内科　外科　整形外科　消化器内科　肛門外科,,,9" xlink:title="（医）根際会もり医院" transform="ref(svg,14008.77,-3792.2075)" x="0" y="0"/>
<use xlink:href="#p0" content="2,（医）金池クリニック,山形県米沢市金池３-２-３１,耳鼻いんこう科　気管食道科,,,9" xlink:title="（医）金池クリニック" transform="ref(svg,14011.4701,-3792.0986)" x="0" y="0"/>
<use xlink:href="#p0" content="2,笹井内科クリニック,山形県米沢市掘川町４-４１,内科　循環器内科　呼吸器内科,,,9" xlink:title="笹井内科クリニック" transform="ref(svg,14009.792,-3790.3171)" x="0" y="0"/>
<use xlink:href="#p0" content="2,羅医院,山形県米沢市通町４-７-２７,内科　循環器科,,,9" xlink:title="羅医院" transform="ref(svg,14012.7325,-3789.1607)" x="0" y="0"/>
<use xlink:href="#p0" content="2,くぼた診療所,山形県米沢市窪田町窪田１３０６-１,内科,,,9" xlink:title="くぼた診療所" transform="ref(svg,14012.8852,-3796.3425)" x="0" y="0"/>
<use xlink:href="#p0" content="2,中山胃腸科内科医院,山形県米沢市丸の内２-２-５３,内科　胃腸科,,,9" xlink:title="中山胃腸科内科医院" transform="ref(svg,14010.8384,-3791.1503)" x="0" y="0"/>
<use xlink:href="#p0" content="2,（医）堀内医院,山形県米沢市大町３-６-７,内科　外科　消化器内科　肛門外科　胃腸内科,,,9" xlink:title="（医）堀内医院" transform="ref(svg,14011.2538,-3790.828)" x="0" y="0"/>
<use xlink:href="#p0" content="2,すだ記念整形外科,山形県米沢市金池５-９-１８,リウマチ科　整形外科　リハビリテーション科,,,9" xlink:title="すだ記念整形外科" transform="ref(svg,14011.8531,-3792.3732)" x="0" y="0"/>
<use xlink:href="#p0" content="2,石山内科クリニック,山形県米沢市太田町５-１５３０-６７,内科　消化器科,,,9" xlink:title="石山内科クリニック" transform="ref(svg,14011.3623,-3788.811)" x="0" y="0"/>
<use xlink:href="#p0" content="2,（医）さの医院,山形県米沢市中央３-４-３６,消化器内科　糖尿病・脂質代謝内科,,,9" xlink:title="（医）さの医院" transform="ref(svg,14011.2046,-3791.5684)" x="0" y="0"/>
<use xlink:href="#p0" content="2,こせき腎・泌尿器科こせき小児科,山形県米沢市大町４-４-１４,内科　小児科　泌尿器科,,,9" xlink:title="こせき腎・泌尿器科こせき小児科" transform="ref(svg,14011.4732,-3791.0346)" x="0" y="0"/>
<use xlink:href="#p0" content="2,徳町アイクリニック,山形県米沢市徳町１０５-２,眼科,,,9" xlink:title="徳町アイクリニック" transform="ref(svg,14009.4797,-3792.3162)" x="0" y="0"/>
<use xlink:href="#p0" content="2,米沢駅前クリニック,山形県米沢市下花沢２-７-２０,精神科　心療内科　児童精神科　老年精神科,,,9" xlink:title="米沢駅前クリニック" transform="ref(svg,14013.2014,-3790.9093)" x="0" y="0"/>
<use xlink:href="#p0" content="2,（特養）おいたまの郷,山形県米沢市大字下新田２８,内科　呼吸器科　循環器科,,,9" xlink:title="（特養）おいたまの郷" transform="ref(svg,14014.8228,-3795.9503)" x="0" y="0"/>
<use xlink:href="#p0" content="2,庄司眼科クリニック,山形県米沢市徳町４-４７,眼科,,,9" xlink:title="庄司眼科クリニック" transform="ref(svg,14010.1359,-3792.3121)" x="0" y="0"/>
<use xlink:href="#p0" content="2,たかだ内科,山形県米沢市万世町金谷６６６,内科　循環器内科　呼吸器内科,,,9" xlink:title="たかだ内科" transform="ref(svg,14014.9439,-3790.3836)" x="0" y="0"/>
<use xlink:href="#p0" content="2,田中クリニック,山形県米沢市大字川井２３５６-１,内科　胃腸科　小児科　外科　こう門科,,,9" xlink:title="田中クリニック" transform="ref(svg,14014.5705,-3792.3859)" x="0" y="0"/>
<use xlink:href="#p0" content="2,泉町クリニック,山形県米沢市泉町２-３-１０,内科　精神科　神経内科　心療内科,,,9" xlink:title="泉町クリニック" transform="ref(svg,14010.3748,-3789.1306)" x="0" y="0"/>
<use xlink:href="#p0" content="2,前田整形外科クリニック,山形県米沢市春日２-６-５１,リウマチ科　整形外科　リハビリテーション科,,,9" xlink:title="前田整形外科クリニック" transform="ref(svg,14011.0886,-3792.6332)" x="0" y="0"/>
<use xlink:href="#p0" content="2,（特養）サンファミリア米沢,山形県米沢市塩井町塩野５２０,内科,,,9" xlink:title="（特養）サンファミリア米沢" transform="ref(svg,14011.0567,-3792.8434)" x="0" y="0"/>
<use xlink:href="#p0" content="2,春日皮フ科,山形県米沢市春日２-３-５０,皮膚科,,,9" xlink:title="春日皮フ科" transform="ref(svg,14010.9188,-3792.2267)" x="0" y="0"/>
<use xlink:href="#p0" content="2,しおいクリニック,山形県米沢市塩井町塩野２０５７,内科　外科　整形外科　皮膚科,,,9" xlink:title="しおいクリニック" transform="ref(svg,14010.1608,-3793.5917)" x="0" y="0"/>
<use xlink:href="#p0" content="2,いまい医院,山形県米沢市花沢町２６９５-５,内科　乳腺外科,,,9" xlink:title="いまい医院" transform="ref(svg,14012.1385,-3791.8814)" x="0" y="0"/>
<use xlink:href="#p0" content="2,さくらクリニック,山形県米沢市塩井町塩野１４９５-５,産科　婦人科,,,9" xlink:title="さくらクリニック" transform="ref(svg,14010.2871,-3792.8482)" x="0" y="0"/>
<use xlink:href="#p0" content="2,かとう整形外科クリニック,山形県米沢市御廟３-２-１０,リウマチ科　整形外科　リハビリテーション科,,,9" xlink:title="かとう整形外科クリニック" transform="ref(svg,14009.5136,-3790.5904)" x="0" y="0"/>
<use xlink:href="#p0" content="2,ゆめクリニック,山形県米沢市東３-９-３,婦人科,,,9" xlink:title="ゆめクリニック" transform="ref(svg,14012.4942,-3790.7853)" x="0" y="0"/>
<use xlink:href="#p0" content="2,花沢アイクリニック,山形県米沢市花沢町２６９５-１,眼科,,,9" xlink:title="花沢アイクリニック" transform="ref(svg,14012.1345,-3791.8477)" x="0" y="0"/>
<use xlink:href="#p0" content="2,産科婦人科島貫医院,山形県米沢市中央２-５-１２,産科　婦人科,,,9" xlink:title="産科婦人科島貫医院" transform="ref(svg,14010.8002,-3791.2916)" x="0" y="0"/>
<use xlink:href="#p0" content="2,ごとう整形外科クリニック,山形県米沢市花沢町２６８７-１,リウマチ科　整形外科　リハビリテーション科,,,9" xlink:title="ごとう整形外科クリニック" transform="ref(svg,14012.2078,-3791.8954)" x="0" y="0"/>
<use xlink:href="#p0" content="2,黄木脳神経クリニック,山形県米沢市中田町９８１-２,内科　神経内科　脳神経外科,,,9" xlink:title="黄木脳神経クリニック" transform="ref(svg,14011.8677,-3794.2366)" x="0" y="0"/>
<use xlink:href="#p0" content="2,（特養）回春堂医務室,山形県米沢市大字花沢２９８６-１,内科　外科,,,9" xlink:title="（特養）回春堂医務室" transform="ref(svg,14012.3869,-3792.2171)" x="0" y="0"/>
<use xlink:href="#p0" content="2,（医）大道寺医院,山形県米沢市東３-４-４１,内科　外科　消化器内科　胃腸内科,,,9" xlink:title="（医）大道寺医院" transform="ref(svg,14012.6145,-3790.8331)" x="0" y="0"/>
<use xlink:href="#p0" content="2,きだ内科クリニック,山形県米沢市金池６-４-１,内科　消化器内科,,,9" xlink:title="きだ内科クリニック" transform="ref(svg,14011.6139,-3792.5409)" x="0" y="0"/>
<use xlink:href="#p0" content="2,よこやまクリニック,山形県米沢市東１-３-２１,内科　外科,,,9" xlink:title="よこやまクリニック" transform="ref(svg,14012.8192,-3790.4174)" x="0" y="0"/>
<use xlink:href="#p0" content="2,岡田こどもクリニック,山形県米沢市門東町１-４-１８,小児科　アレルギー疾患内科,,,9" xlink:title="岡田こどもクリニック" transform="ref(svg,14010.7908,-3790.5928)" x="0" y="0"/>
<use xlink:href="#p0" content="2,（特養）おいたまの郷医務室２,山形県米沢市大字下新田２８,内科　外科　泌尿器科,,,9" xlink:title="（特養）おいたまの郷医務室２" transform="ref(svg,14014.8228,-3795.9503)" x="0" y="0"/>
<use xlink:href="#p0" content="2,厚生労働省第二（共済）米沢病院所属所診療部,山形県米沢市大字三沢２６１００-１,内科　循環器科　神経内科　外科　整形外科　脳神経外科,,,9" xlink:title="厚生労働省第二（共済）米沢病院所属所診療部" transform="ref(svg,14014.0398,-3788.2321)" x="0" y="0"/>
<use xlink:href="#p0" content="2,山形県置賜保健所,山形県米沢市金池３-１-２６,内科　泌尿器科,,,9" xlink:title="山形県置賜保健所" transform="ref(svg,14011.6051,-3792.0218)" x="0" y="0"/>
<use xlink:href="#p0" content="2,南東北桧原診療所,福島県耶麻郡北塩原村大字桧原字道前原１１３１-５４,内科　外科,,,9" xlink:title="南東北桧原診療所" transform="ref(svg,14003.7116,-3771.6518)" x="0" y="0"/>
<use xlink:href="#p0" content="2,南東北裏磐梯診療所,福島県耶麻郡北塩原村大字桧原字剣ヶ峯１０９３-７３２,内科　外科,,,9" xlink:title="南東北裏磐梯診療所" transform="ref(svg,14008.4314,-3765.8756)" x="0" y="0"/>
</g>
</svg>
