<?xml version="1.0" encoding="UTF-8"?>
<svg  xmlns="http://www.w3.org/2000/svg" xmlns:xlink="http://www.w3.org/1999/xlink" xmlns:go="http://purl.org/svgmap/profile" property="医療機関分類,施設名称,所在地,診療科目１,診療科目２,診療科目３,開設者分類" viewBox="13113.28125 -3410.15625 35.15625 35.15625" go:dataArea="13113.28125 -3410.15625 35.15625 35.15625" >
<metadata>
 <rdf:RDF xmlns:rdf="http://www.w3.org/1999/02/22-rdf-syntax-ns#" xmlns:crs="http://opengis.org/xmldtds/transformations.dtd" xmlns:svg="http://www.w3.org/svg" >
  <rdf:Description>
   <crs:CoordinateReferenceSystem rdf:resource="http://purl.org/crs/84" svg:transform="matrix(100.0,0.0,0.0,-100.0,0.0,0.0)" />
  </rdf:Description>
 </rdf:RDF>
</metadata>
<globalCoordinateSystem srsName="http://purl.org/crs/84" transform="matrix(100.0,0.0,0.0,-100.0,0.0,0.0)" />
<defs>
 <g id="p0" >
  <image xlink:href="mappin.png" preserveAspectRatio="none" x="-8" y="-25" width="19" height="27"/>
 </g>
 <g id="p1" >
  <image xlink:href="mappin1.png" preserveAspectRatio="none" x="-8" y="-25" width="19" height="27"/>
 </g>
 <g id="p2" >
  <image xlink:href="mappin2.png" preserveAspectRatio="none" x="-8" y="-25" width="19" height="27"/>
 </g>
 <g id="p3" >
  <image xlink:href="mappin3.png" preserveAspectRatio="none" x="-8" y="-25" width="19" height="27"/>
 </g>
 <g id="p4" >
  <image xlink:href="mappin4.png" preserveAspectRatio="none" x="-8" y="-25" width="19" height="27"/>
 </g>
 <g id="p5" >
  <image xlink:href="mappin5.png" preserveAspectRatio="none" x="-8" y="-25" width="19" height="27"/>
 </g>
 <g id="p6" >
  <image xlink:href="mappin6.png" preserveAspectRatio="none" x="-8" y="-25" width="19" height="27"/>
 </g>
 <g id="p7" >
  <image xlink:href="mappin7.png" preserveAspectRatio="none" x="-8" y="-25" width="19" height="27"/>
 </g>
 <g id="p8" >
  <image xlink:href="mappin8.png" preserveAspectRatio="none" x="-8" y="-25" width="19" height="27"/>
 </g>
 <g id="p9" >
  <image xlink:href="mappin9.png" preserveAspectRatio="none" x="-8" y="-25" width="19" height="27"/>
 </g>
</defs>
<g fill="green" fill-rule="evenodd" >
<use xlink:href="#p0" content="2,相川医院,山口県山口市鋳銭司５９６４-１,内科　整形外科　呼吸器内科　消化器内科（胃腸内科）　リハビリテーション科　皮膚科　外科,,,9" xlink:title="相川医院" transform="ref(svg,13144.3749,-3408.3949)" x="0" y="0"/>
<use xlink:href="#p0" content="2,（特養）温泉ホーム日吉台診療所,山口県山口市陶３９６８,内科,,,9" xlink:title="（特養）温泉ホーム日吉台診療所" transform="ref(svg,13142.0666,-3409.8335)" x="0" y="0"/>
<use xlink:href="#p0" content="2,賀宝の里白松苑医務室,山口県山口市佐山１５８,内科,,,9" xlink:title="賀宝の里白松苑医務室" transform="ref(svg,13135.0201,-3404.9692)" x="0" y="0"/>
<use xlink:href="#p0" content="2,社福）博愛会救護施設聖和苑医務室,山口県山口市鋳銭司３３５４,精神科,,,9" xlink:title="社福）博愛会救護施設聖和苑医務室" transform="ref(svg,13145.9754,-3407.4889)" x="0" y="0"/>
<use xlink:href="#p0" content="2,たむら医院,山口県山口市江崎２４７５-２,内科　リハビリテーション科　麻酔科,,,9" xlink:title="たむら医院" transform="ref(svg,13136.5942,-3406.3673)" x="0" y="0"/>
<use xlink:href="#p0" content="2,（医）恭仁会利重クリニック,山口県山口市江崎２２２９-１,内科　消化器内科,,,9" xlink:title="（医）恭仁会利重クリニック" transform="ref(svg,13136.8296,-3405.474)" x="0" y="0"/>
<use xlink:href="#p0" content="2,社福）相清福祉会梅光苑診療所,山口県山口市鋳銭司２３６１-３,外科　呼吸器内科　消化器内科（胃腸内科）　整形外科,,,9" xlink:title="社福）相清福祉会梅光苑診療所" transform="ref(svg,13143.8837,-3406.6659)" x="0" y="0"/>
<use xlink:href="#p0" content="2,日吉台内科医院,山口県山口市陶９６３,内科,,,9" xlink:title="日吉台内科医院" transform="ref(svg,13142.1257,-3409.8719)" x="0" y="0"/>
<use xlink:href="#p0" content="2,ますだ内科循環器科,山口県山口市秋穂二島１８８８,内科　循環器内科　小児科,,,9" xlink:title="ますだ内科循環器科" transform="ref(svg,13141.5442,-3403.9397)" x="0" y="0"/>
<use xlink:href="#p0" content="2,ハートクリニック南山口,山口県山口市深溝８０３-１,内科　循環器内科　リハビリテーション科,,,9" xlink:title="ハートクリニック南山口" transform="ref(svg,13136.7182,-3405.1582)" x="0" y="0"/>
<use xlink:href="#p0" content="2,山口嘉川クリニック,山口県山口市嘉川１３６０-３,内科　リウマチ科　アレルギー科,,,9" xlink:title="山口嘉川クリニック" transform="ref(svg,13138.0434,-3407.7032)" x="0" y="0"/>
<use xlink:href="#p0" content="2,よしまつ医院,山口県山口市秋穂二島５７８９-１,内科　小児科　消化器内科　呼吸器内科,,,9" xlink:title="よしまつ医院" transform="ref(svg,13142.6382,-3403.547)" x="0" y="0"/>
<use xlink:href="#p0" content="2,（特養）秋穂あかり園医務室,山口県山口市秋穂東３９８０,内科,,,9" xlink:title="（特養）秋穂あかり園医務室" transform="ref(svg,13144.4992,-3401.4251)" x="0" y="0"/>
<use xlink:href="#p0" content="2,秋穂クリニック,山口県山口市秋穂東３９５３,内科　呼吸器内科　外科　リハビリテーション科　放射線科　運動器リハビリテーション科,,,9" xlink:title="秋穂クリニック" transform="ref(svg,13144.5915,-3401.3977)" x="0" y="0"/>
<use xlink:href="#p0" content="2,小野医院,山口県山口市秋穂東１２５５-１,内科,,,9" xlink:title="小野医院" transform="ref(svg,13146.3345,-3402.7517)" x="0" y="0"/>
<use xlink:href="#p0" content="2,養護老人ホーム秋楽園診療所,山口県山口市秋穂東３９９３,内科　外科,,,9" xlink:title="養護老人ホーム秋楽園診療所" transform="ref(svg,13144.3917,-3401.5306)" x="0" y="0"/>
<use xlink:href="#p0" content="2,吉武医院,山口県山口市秋穂東６２９２-１,消化器外科（胃腸外科）　呼吸器外科　小児外科　内科　リハビリテーション科,,,9" xlink:title="吉武医院" transform="ref(svg,13143.2247,-3401.3163)" x="0" y="0"/>
<use xlink:href="#p0" content="2,あだち眼科,山口県山口市小郡下郷１２１６-１０,眼科,,,9" xlink:title="あだち眼科" transform="ref(svg,13139.6148,-3409.7521)" x="0" y="0"/>
<use xlink:href="#p0" content="2,池田医院,山口県山口市小郡下郷１２４８-４２,内科,,,9" xlink:title="池田医院" transform="ref(svg,13139.5709,-3409.5937)" x="0" y="0"/>
<use xlink:href="#p0" content="2,いちょうの木クリニック,山口県山口市小郡船倉町１-１３,内科　消化器内科　内視鏡内科　放射線科,,,9" xlink:title="いちょうの木クリニック" transform="ref(svg,13140.4018,-3409.4425)" x="0" y="0"/>
<use xlink:href="#p0" content="2,うちクリニック,山口県山口市小郡下郷２２７１-５,耳鼻いんこう科,,,9" xlink:title="うちクリニック" transform="ref(svg,13139.2388,-3409.5753)" x="0" y="0"/>
<use xlink:href="#p0" content="2,おかむら医院,山口県山口市小郡下郷２１９３-２,内科　消化器内科（胃腸内科）　放射線科,,,9" xlink:title="おかむら医院" transform="ref(svg,13138.9233,-3409.1763)" x="0" y="0"/>
<use xlink:href="#p0" content="2,（医）小川整形外科,山口県山口市小郡下郷１２２９-５,整形外科,,,9" xlink:title="（医）小川整形外科" transform="ref(svg,13139.4669,-3409.5648)" x="0" y="0"/>
<use xlink:href="#p0" content="2,小田皮膚科医院,山口県山口市小郡下郷２３３１-７,皮膚科　アレルギー科,,,9" xlink:title="小田皮膚科医院" transform="ref(svg,13139.2683,-3409.4436)" x="0" y="0"/>
<use xlink:href="#p0" content="2,（医）新生会小橋クリニック,山口県山口市小郡高砂町７-１０,精神科　心療内科　内科,,,9" xlink:title="（医）新生会小橋クリニック" transform="ref(svg,13140.0047,-3409.1596)" x="0" y="0"/>
<use xlink:href="#p0" content="2,小林外科,山口県山口市小郡下郷１１３２-１,外科　胃腸科　整形外科　麻酔科　泌尿器科,,,9" xlink:title="小林外科" transform="ref(svg,13139.8529,-3410.1208)" x="0" y="0"/>
<use xlink:href="#p0" content="2,小林哲郎診療所,山口県山口市小郡平成町２-１０,内科　外科　消化器内科（胃腸内科）　肛門外科　リハビリテーション科　皮膚科,,,9" xlink:title="小林哲郎診療所" transform="ref(svg,13140.1404,-3408.8583)" x="0" y="0"/>
<use xlink:href="#p0" content="2,ざいつ内科クリニック,山口県山口市小郡下郷１２１６-２,内科　血液内科　糖尿病内科（代謝内科）　アレルギー科　リウマチ科,,,9" xlink:title="ざいつ内科クリニック" transform="ref(svg,13139.5995,-3409.7465)" x="0" y="0"/>
<use xlink:href="#p0" content="2,田中内科,山口県山口市小郡下郷２２７８-４,内科　小児科　リハビリテーション科,,,9" xlink:title="田中内科" transform="ref(svg,13139.2718,-3409.5743)" x="0" y="0"/>
<use xlink:href="#p0" content="2,田村産婦人科医院,山口県山口市小郡下郷１６１８,産婦人科,,,9" xlink:title="田村産婦人科医院" transform="ref(svg,13140.102,-3409.9167)" x="0" y="0"/>
<use xlink:href="#p0" content="2,（医）中村眼科,山口県山口市小郡下郷２２５８-１７,眼科,,,9" xlink:title="（医）中村眼科" transform="ref(svg,13139.2567,-3409.7413)" x="0" y="0"/>
<use xlink:href="#p0" content="2,ハートクリニック新山口,山口県山口市小郡平成町１-１８,内科,,,9" xlink:title="ハートクリニック新山口" transform="ref(svg,13140.0471,-3408.7825)" x="0" y="0"/>
<use xlink:href="#p0" content="2,はまもと小児クリニック,山口県山口市小郡下郷２２４０-７,小児科,,,9" xlink:title="はまもと小児クリニック" transform="ref(svg,13139.4821,-3409.9397)" x="0" y="0"/>
<use xlink:href="#p0" content="2,みすみクリニック,山口県山口市小郡下郷２２５０-２,外科　内科　整形外科　リハビリテーション科,,,9" xlink:title="みすみクリニック" transform="ref(svg,13139.4146,-3409.7494)" x="0" y="0"/>
<use xlink:href="#p0" content="2,（医）村田外科胃腸科,山口県山口市小郡下郷７５６-４,肛門内科　胃腸内科　肛門外科,,,9" xlink:title="（医）村田外科胃腸科" transform="ref(svg,13139.2307,-3410.149)" x="0" y="0"/>
<use xlink:href="#p0" content="2,小児科柳澤医院,山口県山口市小郡御幸町７-５,小児科,,,9" xlink:title="小児科柳澤医院" transform="ref(svg,13140.2561,-3409.5058)" x="0" y="0"/>
<use xlink:href="#p0" content="2,山川泌尿器科,山口県山口市小郡下郷２２７１-５,泌尿器科,,,9" xlink:title="山川泌尿器科" transform="ref(svg,13139.2388,-3409.5753)" x="0" y="0"/>
<use xlink:href="#p0" content="2,（一社）山口総合健診センター,山口県山口市小郡下郷１７７３-１,内科,,,9" xlink:title="（一社）山口総合健診センター" transform="ref(svg,13138.998,-3409.9146)" x="0" y="0"/>
<use xlink:href="#p0" content="2,山手ささきクリニック,山口県山口市小郡下郷２２２０,外科　消化器外科　肛門外科　消化器内科　内視鏡内科　漢方内科　麻酔科,,,9" xlink:title="山手ささきクリニック" transform="ref(svg,13139.1774,-3409.7777)" x="0" y="0"/>
<use xlink:href="#p0" content="2,やまね耳鼻科,山口県山口市小郡下郷１１８０,耳鼻咽喉科,,,9" xlink:title="やまね耳鼻科" transform="ref(svg,13139.7806,-3409.9692)" x="0" y="0"/>
<use xlink:href="#p0" content="2,よしかね循環器内科,山口県山口市小郡下郷２２２１-１２,循環器内科　内科　呼吸器内科,,,9" xlink:title="よしかね循環器内科" transform="ref(svg,13139.2167,-3409.8441)" x="0" y="0"/>
<use xlink:href="#p0" content="2,若草クリニック,山口県山口市小郡黄金町１５-１１,心療内科　精神科,,,9" xlink:title="若草クリニック" transform="ref(svg,13139.9781,-3408.9266)" x="0" y="0"/>
<use xlink:href="#p0" content="2,正司眼科医院,山口県山口市阿知須４８０２-２,眼科,,,9" xlink:title="正司眼科医院" transform="ref(svg,13135.5894,-3400.9938)" x="0" y="0"/>
<use xlink:href="#p0" content="2,（特養）白松苑診療所,山口県山口市阿知須５０４４-１,内科,,,9" xlink:title="（特養）白松苑診療所" transform="ref(svg,13135.4207,-3401.4388)" x="0" y="0"/>
<use xlink:href="#p0" content="2,ひろなか内科循環器科,山口県山口市阿知須４５１６-１,内科　循環器内科,,,9" xlink:title="ひろなか内科循環器科" transform="ref(svg,13135.3655,-3400.8527)" x="0" y="0"/>
<use xlink:href="#p0" content="2,しま産婦人科,山口県宇部市島２-１-３,産科　婦人科,,,9" xlink:title="しま産婦人科" transform="ref(svg,13124.4404,-3396.232)" x="0" y="0"/>
<use xlink:href="#p0" content="2,清水泌尿器科,山口県宇部市浜町２-３-３４,泌尿器科,,,9" xlink:title="清水泌尿器科" transform="ref(svg,13123.519,-3396.4641)" x="0" y="0"/>
<use xlink:href="#p0" content="2,徳久内科医院,山口県宇部市恩田町２-２２-４１,循環器内科　呼吸器内科　内科,,,9" xlink:title="徳久内科医院" transform="ref(svg,13126.5022,-3394.3574)" x="0" y="0"/>
<use xlink:href="#p0" content="2,永井レディースクリニック,山口県宇部市厚南北５-２-４５,産婦人科　内科,,,9" xlink:title="永井レディースクリニック" transform="ref(svg,13121.7561,-3400.2383)" x="0" y="0"/>
<use xlink:href="#p0" content="2,永谷眼科,山口県宇部市島３-１０-１１,眼科,,,9" xlink:title="永谷眼科" transform="ref(svg,13124.2439,-3396.337)" x="0" y="0"/>
<use xlink:href="#p0" content="2,のむら大腸肛門クリニック,山口県宇部市大字妻崎開作８３-１,肛門外科　消化器内科（胃腸内科）　消化器外科（胃腸外科）,,,9" xlink:title="のむら大腸肛門クリニック" transform="ref(svg,13121.6784,-3398.0908)" x="0" y="0"/>
<use xlink:href="#p0" content="2,はしもと産婦人科医院,山口県宇部市大字東須恵１９５９-１０,産婦人科,,,9" xlink:title="はしもと産婦人科医院" transform="ref(svg,13120.301,-3398.0878)" x="0" y="0"/>
<use xlink:href="#p0" content="2,針間産婦人科,山口県宇部市常盤町２-１-４４,産婦人科,,,9" xlink:title="針間産婦人科" transform="ref(svg,13124.9891,-3395.0847)" x="0" y="0"/>
<use xlink:href="#p0" content="2,南園クリニック,山口県宇部市昭和町１-２-１５,脳神経外科　内科　循環器内科　腎臓内科,,,9" xlink:title="南園クリニック" transform="ref(svg,13125.3647,-3394.3171)" x="0" y="0"/>
<use xlink:href="#p0" content="2,吉永外科医院,山口県宇部市錦町４-１１,外科　肛門外科　消化器内科（胃腸内科）　消化器外科（胃腸外科）　整形外科　放射線科,,,9" xlink:title="吉永外科医院" transform="ref(svg,13125.154,-3394.6286)" x="0" y="0"/>
<use xlink:href="#p0" content="2,渡木クリニック,山口県宇部市海南町２-５８-１,産婦人科,,,9" xlink:title="渡木クリニック" transform="ref(svg,13126.0923,-3395.8758)" x="0" y="0"/>
<use xlink:href="#p0" content="2,伊藤医院,山口県山陽小野田市大字厚狭２１-１,内科　アレルギー科　耳鼻いんこう科,,,9" xlink:title="伊藤医院" transform="ref(svg,13116.1708,-3405.5258)" x="0" y="0"/>
<use xlink:href="#p0" content="2,河村医院,山口県山陽小野田市大字鴨庄１８-６,整形外科　外科　内科　リハビリテーション科,,,9" xlink:title="河村医院" transform="ref(svg,13115.8433,-3405.6194)" x="0" y="0"/>
<use xlink:href="#p0" content="2,紫苑リハビリ内科クリニック,山口県山陽小野田市大字厚狭字埴生田５０３-１,内科　リハビリテーション科,,,9" xlink:title="紫苑リハビリ内科クリニック" transform="ref(svg,13117.3728,-3405.3247)" x="0" y="0"/>
<use xlink:href="#p0" content="2,中島医院,山口県山陽小野田市日の出３-１５-１２,内科　呼吸器科　循環器科　消化器科　リハビリテーション科,,,9" xlink:title="中島医院" transform="ref(svg,13118.1702,-3400.6743)" x="0" y="0"/>
<use xlink:href="#p0" content="2,村重医院,山口県山陽小野田市須恵１-１２-１０,内科　神経内科　婦人科　リハビリテーション科,,,9" xlink:title="村重医院" transform="ref(svg,13117.87,-3397.1918)" x="0" y="0"/>
<use xlink:href="#p0" content="2,あいべ内科クリニック,山口県宇部市大字船木字行光６８３,内科　消化器内科　呼吸器内科　循環器内科,,,9" xlink:title="あいべ内科クリニック" transform="ref(svg,13121.8061,-3404.3558)" x="0" y="0"/>
<use xlink:href="#p0" content="2,浅山眼科,山口県宇部市常盤町１-１-４,眼科,,,9" xlink:title="浅山眼科" transform="ref(svg,13124.7006,-3395.2627)" x="0" y="0"/>
<use xlink:href="#p0" content="2,東整形外科,山口県宇部市恩田町２-８-８,整形外科　リウマチ科　リハビリテーション科,,,9" xlink:title="東整形外科" transform="ref(svg,13126.5584,-3394.5875)" x="0" y="0"/>
<use xlink:href="#p0" content="2,荒川耳鼻咽喉科医院,山口県宇部市中央町１-６-３２,耳鼻いんこう科,,,9" xlink:title="荒川耳鼻咽喉科医院" transform="ref(svg,13124.2836,-3395.549)" x="0" y="0"/>
<use xlink:href="#p0" content="2,荒木皮膚科・眼科,山口県宇部市上野中町１-８,皮膚科　眼科,,,9" xlink:title="荒木皮膚科・眼科" transform="ref(svg,13127.3242,-3395.4286)" x="0" y="0"/>
<use xlink:href="#p0" content="2,有好内科クリニック,山口県宇部市東梶返３-９-２１,内科　糖尿病内科　血液内科　感染症内科,,,9" xlink:title="有好内科クリニック" transform="ref(svg,13127.1204,-3395.1187)" x="0" y="0"/>
<use xlink:href="#p0" content="2,池田医院,山口県宇部市東須恵３２６９-１,内科　皮膚科　消化器内科（胃腸内科）　アレルギー科,,,9" xlink:title="池田医院" transform="ref(svg,13119.7926,-3398.5198)" x="0" y="0"/>
<use xlink:href="#p0" content="2,いけだ整形外科,山口県宇部市昭和町１-４-７,リウマチ科　整形外科　リハビリテーション科,,,9" xlink:title="いけだ整形外科" transform="ref(svg,13125.5039,-3394.1503)" x="0" y="0"/>
<use xlink:href="#p0" content="2,いそべ整形外科医院,山口県宇部市松山町１-８-２３,整形外科　リウマチ科　リハビリテーション科,,,9" xlink:title="いそべ整形外科医院" transform="ref(svg,13125.4394,-3394.5398)" x="0" y="0"/>
<use xlink:href="#p0" content="2,いそやま泌尿器科クリニック,山口県宇部市西岐波浜田１５５０-５,泌尿器科　腎臓内科,,,9" xlink:title="いそやま泌尿器科クリニック" transform="ref(svg,13131.6789,-3396.1978)" x="0" y="0"/>
<use xlink:href="#p0" content="2,いのくまこどもクリニック,山口県宇部市大字西岐波字大澤４５３５-５,小児科,,,9" xlink:title="いのくまこどもクリニック" transform="ref(svg,13128.9008,-3394.449)" x="0" y="0"/>
<use xlink:href="#p0" content="2,猪熊耳鼻咽喉科,山口県宇部市中村３-５-２２,耳鼻いんこう科,,,9" xlink:title="猪熊耳鼻咽喉科" transform="ref(svg,13126.2329,-3396.2034)" x="0" y="0"/>
<use xlink:href="#p0" content="2,今釜整形外科,山口県宇部市中村２-６-１１,整形外科　リウマチ科　リハビリテーション科,,,9" xlink:title="今釜整形外科" transform="ref(svg,13126.2898,-3396.3127)" x="0" y="0"/>
<use xlink:href="#p0" content="2,今村皮膚科形成外科,山口県宇部市松山町１-８-２２,皮膚科　形成外科　婦人科,,,9" xlink:title="今村皮膚科形成外科" transform="ref(svg,13125.4314,-3394.5237)" x="0" y="0"/>
<use xlink:href="#p0" content="2,内田内科消化器科,山口県宇部市床波２-５-２６,内科　消化器内科（胃腸内科）　放射線科,,,9" xlink:title="内田内科消化器科" transform="ref(svg,13130.7629,-3395.4178)" x="0" y="0"/>
<use xlink:href="#p0" content="2,内田皮膚科・泌尿器科医院,山口県宇部市上町１-３-４,皮膚科　泌尿器科,,,9" xlink:title="内田皮膚科・泌尿器科医院" transform="ref(svg,13124.04,-3395.8432)" x="0" y="0"/>
<use xlink:href="#p0" content="2,うのしま医院,山口県宇部市浜町２-１１-１５,内科　胃腸科,,,9" xlink:title="うのしま医院" transform="ref(svg,13123.4039,-3396.5239)" x="0" y="0"/>
<use xlink:href="#p0" content="2,宇部西クリニック,山口県宇部市際波東河田２８７-１,内科　消化器内科（胃腸内科）　放射線科　リハビリテーション科,,,9" xlink:title="宇部西クリニック" transform="ref(svg,13122.4278,-3399.6278)" x="0" y="0"/>
<use xlink:href="#p0" content="2,宇部フロンティア大学附属文京クリニック,山口県宇部市文京町２-２２,心療内科　精神科,,,9" xlink:title="宇部フロンティア大学附属文京クリニック" transform="ref(svg,13123.2108,-3397.1965)" x="0" y="0"/>
<use xlink:href="#p0" content="2,江本智子ウィメンズクリニック,山口県宇部市神原町１-４-８,婦人科　女性内科,,,9" xlink:title="江本智子ウィメンズクリニック" transform="ref(svg,13125.7363,-3395.1467)" x="0" y="0"/>
<use xlink:href="#p0" content="2,江本内科,山口県宇部市神原町１-４-１０,糖尿病内科（代謝内科）　内分泌内科　内科,,,9" xlink:title="江本内科" transform="ref(svg,13125.7332,-3395.1262)" x="0" y="0"/>
<use xlink:href="#p0" content="2,大西クリニック,山口県宇部市大字東岐波２１１８-１３,心療内科　精神科,,,9" xlink:title="大西クリニック" transform="ref(svg,13134.5036,-3398.9514)" x="0" y="0"/>
<use xlink:href="#p0" content="2,緒方耳鼻咽喉科クリニック,山口県宇部市東小串１-１-６８,耳鼻いんこう科,,,9" xlink:title="緒方耳鼻咽喉科クリニック" transform="ref(svg,13125.1808,-3396.2674)" x="0" y="0"/>
<use xlink:href="#p0" content="2,岡本医院,山口県宇部市中央町２-１３-１８,外科　内科　肛門外科,,,9" xlink:title="岡本医院" transform="ref(svg,13124.2851,-3395.4839)" x="0" y="0"/>
<use xlink:href="#p0" content="2,沖中耳鼻咽喉科クリニック,山口県宇部市岬町１-２-３３,耳鼻いんこう科,,,9" xlink:title="沖中耳鼻咽喉科クリニック" transform="ref(svg,13126.2765,-3393.305)" x="0" y="0"/>
<use xlink:href="#p0" content="2,オクダ内科循環器科,山口県宇部市大字際波字新開壱ノ割７６８-１３,内科　循環器内科　呼吸器内科,,,9" xlink:title="オクダ内科循環器科" transform="ref(svg,13122.247,-3399.6585)" x="0" y="0"/>
<use xlink:href="#p0" content="2,おぐらクリニック,山口県宇部市常藤町４-２６,内科　外科　消化器内科（胃腸内科）　肛門科　リハビリテーション科　麻酔科,,,9" xlink:title="おぐらクリニック" transform="ref(svg,13125.3204,-3394.8879)" x="0" y="0"/>
<use xlink:href="#p0" content="2,尾崎循環器内科,山口県宇部市大字西岐波４６９５-１,循環器内科　内科　呼吸器内科,,,9" xlink:title="尾崎循環器内科" transform="ref(svg,13128.8583,-3394.3915)" x="0" y="0"/>
<use xlink:href="#p0" content="2,小沢内科医院,山口県宇部市琴芝町１-４-３１,内科　循環器内科　呼吸器内科,,,9" xlink:title="小沢内科医院" transform="ref(svg,13125.1191,-3395.3823)" x="0" y="0"/>
<use xlink:href="#p0" content="2,小野整形外科クリニック,山口県宇部市大字西岐波字山村２７５９-６,整形外科　リウマチ科　リハビリテーション科,,,9" xlink:title="小野整形外科クリニック" transform="ref(svg,13131.0066,-3395.7999)" x="0" y="0"/>
<use xlink:href="#p0" content="2,小羽山クリニック,山口県宇部市北小羽山町２-６-５２,外科　内科　循環器内科　胃腸科　肛門科　皮膚科　アレルギー科,,,9" xlink:title="小羽山クリニック" transform="ref(svg,13125.9711,-3397.8133)" x="0" y="0"/>
<use xlink:href="#p0" content="2,おばやま脳血管心臓病クリニック,山口県宇部市南小羽山町２-１９-１３,脳外科　循環器内科　内科,,,9" xlink:title="おばやま脳血管心臓病クリニック" transform="ref(svg,13125.8528,-3397.4896)" x="0" y="0"/>
<use xlink:href="#p0" content="2,香月医院,山口県宇部市寿町２-１-３,精神科　神経内科,,,9" xlink:title="香月医院" transform="ref(svg,13124.9935,-3395.3684)" x="0" y="0"/>
<use xlink:href="#p0" content="2,金沢守クリニック,山口県宇部市東岐波５６８９-４,リウマチ科　内科　外科,,,9" xlink:title="金沢守クリニック" transform="ref(svg,13133.7024,-3397.6894)" x="0" y="0"/>
<use xlink:href="#p0" content="2,金子小児科,山口県宇部市上町１-６-１６,小児科,,,9" xlink:title="金子小児科" transform="ref(svg,13123.9512,-3395.9507)" x="0" y="0"/>
<use xlink:href="#p0" content="2,上宇部外科,山口県宇部市海南町２-１２,外科　整形外科　消化器外科（胃腸外科）　循環器内科　呼吸器内科　リハビリテーション科,,,9" xlink:title="上宇部外科" transform="ref(svg,13126.2006,-3395.8942)" x="0" y="0"/>
<use xlink:href="#p0" content="2,上宇部こどもクリニック,山口県宇部市常盤台１-２０-２,小児科　アレルギー科　内科,,,9" xlink:title="上宇部こどもクリニック" transform="ref(svg,13126.8485,-3395.9605)" x="0" y="0"/>
<use xlink:href="#p0" content="2,かわかみ整形外科・小児科クリニック,山口県宇部市野原１-５-５,整形外科　リウマチ科　リハビリテーション科　小児科,,,9" xlink:title="かわかみ整形外科・小児科クリニック" transform="ref(svg,13127.064,-3395.0125)" x="0" y="0"/>
<use xlink:href="#p0" content="2,河野医院,山口県宇部市文京町４-５１,内科　消化器内科（胃腸内科）,,,9" xlink:title="河野医院" transform="ref(svg,13123.1612,-3397.1206)" x="0" y="0"/>
<use xlink:href="#p0" content="2,河原内科,山口県宇部市西平原２-５-５,消化器内科（胃腸内科）,,,9" xlink:title="河原内科" transform="ref(svg,13122.602,-3397.5212)" x="0" y="0"/>
<use xlink:href="#p0" content="2,かわむらクリニック,山口県宇部市大字東岐波３８４８-６,内科　皮膚科　心療内科　外科　リハビリテーション科　消化器内科（胃腸内科）,,,9" xlink:title="かわむらクリニック" transform="ref(svg,13134.0175,-3398.0057)" x="0" y="0"/>
<use xlink:href="#p0" content="2,北村クリニック,山口県宇部市松山町２-６-３２,内科　呼吸器内科　循環器内科　消化器内科（胃腸内科）,,,9" xlink:title="北村クリニック" transform="ref(svg,13125.6797,-3394.2029)" x="0" y="0"/>
<use xlink:href="#p0" content="2,きばた小児科医院,山口県宇部市大字東岐波字大石前１３０７-１,小児科,,,9" xlink:title="きばた小児科医院" transform="ref(svg,13134.6263,-3399.2865)" x="0" y="0"/>
<use xlink:href="#p0" content="2,きわなみ内科クリニック,山口県宇部市西宇部南３-２-１５,内科　呼吸器内科　消化器内科（胃腸内科）　放射線科,,,9" xlink:title="きわなみ内科クリニック" transform="ref(svg,13121.975,-3400.1833)" x="0" y="0"/>
<use xlink:href="#p0" content="2,きわらクリニック耳鼻咽喉科,山口県宇部市東岐波１０５３-６,耳鼻いんこう科,,,9" xlink:title="きわらクリニック耳鼻咽喉科" transform="ref(svg,13134.5888,-3398.8904)" x="0" y="0"/>
<use xlink:href="#p0" content="2,くが医院,山口県宇部市東本町２-６-２５,内科,,,9" xlink:title="くが医院" transform="ref(svg,13124.9493,-3394.6982)" x="0" y="0"/>
<use xlink:href="#p0" content="2,くさの胃腸内科クリニック,山口県宇部市大字東須恵１９７６-１,消化器内科（胃腸内科）,,,9" xlink:title="くさの胃腸内科クリニック" transform="ref(svg,13120.2572,-3398.0613)" x="0" y="0"/>
<use xlink:href="#p0" content="2,くどうクリニック,山口県宇部市大字芦河内１１-５,精神科　心療内科　内科,,,9" xlink:title="くどうクリニック" transform="ref(svg,13125.9228,-3407.7115)" x="0" y="0"/>
<use xlink:href="#p0" content="2,くまがい眼科,山口県宇部市東岐波２１２９-１,眼科,,,9" xlink:title="くまがい眼科" transform="ref(svg,13134.4959,-3398.8902)" x="0" y="0"/>
<use xlink:href="#p0" content="2,栗栖クリニック,山口県宇部市大字東岐波字塩田１０９６-１,消化器内科（胃腸内科）　内科　外科　リハビリテーション科,,,9" xlink:title="栗栖クリニック" transform="ref(svg,13134.8873,-3399.0799)" x="0" y="0"/>
<use xlink:href="#p0" content="2,くろいし眼科,山口県宇部市大字東須恵１９６６-１,眼科　小児眼科,,,9" xlink:title="くろいし眼科" transform="ref(svg,13120.1705,-3398.1194)" x="0" y="0"/>
<use xlink:href="#p0" content="2,くろいし内科クリニック,山口県宇部市大字妻崎開作５０３-１,内科　循環器内科　呼吸器内科,,,9" xlink:title="くろいし内科クリニック" transform="ref(svg,13120.7251,-3398.2923)" x="0" y="0"/>
<use xlink:href="#p0" content="2,くろかわクリニック,山口県宇部市亀浦１-２-２２,脳神経外科　神経内科,,,9" xlink:title="くろかわクリニック" transform="ref(svg,13128.7085,-3394.2652)" x="0" y="0"/>
<use xlink:href="#p0" content="2,こじまこどもクリニック,山口県宇部市居能町３-２-１９,小児科,,,9" xlink:title="こじまこどもクリニック" transform="ref(svg,13123.0296,-3396.913)" x="0" y="0"/>
<use xlink:href="#p0" content="2,小林整形外科,山口県宇部市西宇部南４-９-２６,整形外科,,,9" xlink:title="小林整形外科" transform="ref(svg,13122.0203,-3400.2242)" x="0" y="0"/>
<use xlink:href="#p0" content="2,ささい小児科,山口県宇部市東小羽山町４-１-２,小児科,,,9" xlink:title="ささい小児科" transform="ref(svg,13126.3392,-3398.2538)" x="0" y="0"/>
<use xlink:href="#p0" content="2,ささい放射線科,山口県宇部市東小羽山町４-１-２,放射線科,,,9" xlink:title="ささい放射線科" transform="ref(svg,13126.3383,-3398.2594)" x="0" y="0"/>
<use xlink:href="#p0" content="2,佐藤クリニック,山口県宇部市常盤町１-４-２５,心臓内科　内科,,,9" xlink:title="佐藤クリニック" transform="ref(svg,13124.8863,-3395.16)" x="0" y="0"/>
<use xlink:href="#p0" content="2,重松整形外科医院,山口県宇部市亀浦３-４-１２,整形外科,,,9" xlink:title="重松整形外科医院" transform="ref(svg,13129.0119,-3394.1964)" x="0" y="0"/>
<use xlink:href="#p0" content="2,しながわクリニック,山口県宇部市東琴芝１-５-１４,外科　内科　リハビリテーション科,,,9" xlink:title="しながわクリニック" transform="ref(svg,13125.7368,-3395.6065)" x="0" y="0"/>
<use xlink:href="#p0" content="2,耳鼻咽喉科クリニカ厚南,山口県宇部市大字東須恵字用尺７５１-１８,耳鼻いんこう科,,,9" xlink:title="耳鼻咽喉科クリニカ厚南" transform="ref(svg,13120.7523,-3399.033)" x="0" y="0"/>
<use xlink:href="#p0" content="2,末冨放射線科医院,山口県宇部市大字際波１４４５-３,放射線科　消化器内科（胃腸内科）　呼吸器内科,,,9" xlink:title="末冨放射線科医院" transform="ref(svg,13121.8573,-3399.3585)" x="0" y="0"/>
<use xlink:href="#p0" content="2,すが眼科,山口県宇部市大字東須恵字用尺７５１-１９,眼科,,,9" xlink:title="すが眼科" transform="ref(svg,13120.78,-3399.0571)" x="0" y="0"/>
<use xlink:href="#p0" content="2,すがメンタルクリニック,山口県宇部市大字中野開作４３３-３,精神科　心療内科,,,9" xlink:title="すがメンタルクリニック" transform="ref(svg,13121.6393,-3398.2788)" x="0" y="0"/>
<use xlink:href="#p0" content="2,鈴木眼科医院,山口県宇部市今村北４-２６-１５,眼科,,,9" xlink:title="鈴木眼科医院" transform="ref(svg,13130.749,-3395.7826)" x="0" y="0"/>
<use xlink:href="#p0" content="2,鈴木小児科医院,山口県宇部市今村北４-２６-１５,小児科,,,9" xlink:title="鈴木小児科医院" transform="ref(svg,13130.749,-3395.7826)" x="0" y="0"/>
<use xlink:href="#p0" content="2,生協上宇部クリニック,山口県宇部市海南町２-２５,内科,,,9" xlink:title="生協上宇部クリニック" transform="ref(svg,13126.3044,-3395.8576)" x="0" y="0"/>
<use xlink:href="#p0" content="2,大楽産婦人科仮設診療所,山口県宇部市鵜の島町８-３０,産婦人科,,,9" xlink:title="大楽産婦人科仮設診療所" transform="ref(svg,13123.7823,-3396.2042)" x="0" y="0"/>
<use xlink:href="#p0" content="2,たお内科クリニック,山口県宇部市島２-４-１１,内科,,,9" xlink:title="たお内科クリニック" transform="ref(svg,13124.4024,-3395.9467)" x="0" y="0"/>
<use xlink:href="#p0" content="2,高田外科医院,山口県宇部市床波２-５-３３-３,外科　整形外科　呼吸器内科　消化器内科（胃腸内科）,,,9" xlink:title="高田外科医院" transform="ref(svg,13130.6845,-3395.3893)" x="0" y="0"/>
<use xlink:href="#p0" content="2,竹川小児科医院,山口県宇部市際波１４９３-３,小児科　アレルギー科,,,9" xlink:title="竹川小児科医院" transform="ref(svg,13122.2346,-3401.3757)" x="0" y="0"/>
<use xlink:href="#p0" content="2,たての皮膚科クリニック,山口県宇部市大字東岐波５６７６,皮膚科,,,9" xlink:title="たての皮膚科クリニック" transform="ref(svg,13133.6242,-3397.6029)" x="0" y="0"/>
<use xlink:href="#p0" content="2,田中外科,山口県宇部市浜町２-１２-３９,外科　脳神経外科　リハビリテーション科　麻酔科,,,9" xlink:title="田中外科" transform="ref(svg,13123.3313,-3396.5567)" x="0" y="0"/>
<use xlink:href="#p0" content="2,田中内科消化器科,山口県宇部市大字東須恵７３１,内科　消化器内科（胃腸内科）　リハビリテーション科　放射線科,,,9" xlink:title="田中内科消化器科" transform="ref(svg,13120.9068,-3399.1124)" x="0" y="0"/>
<use xlink:href="#p0" content="2,たはら整形外科,山口県宇部市大字中野開作６５,整形外科　リハビリ科　リウマチ科,,,9" xlink:title="たはら整形外科" transform="ref(svg,13121.9264,-3399.2146)" x="0" y="0"/>
<use xlink:href="#p0" content="2,近本眼科,山口県宇部市恩田町２-５-１５,眼科,,,9" xlink:title="近本眼科" transform="ref(svg,13126.3752,-3394.7659)" x="0" y="0"/>
<use xlink:href="#p0" content="2,土屋医院,山口県宇部市上町２-３-１１,心療内科　神経内科　精神科,,,9" xlink:title="土屋医院" transform="ref(svg,13123.7094,-3395.9912)" x="0" y="0"/>
<use xlink:href="#p0" content="2,寺西眼科,山口県宇部市恩田町２-２３-１７,眼科,,,9" xlink:title="寺西眼科" transform="ref(svg,13126.5782,-3394.37)" x="0" y="0"/>
<use xlink:href="#p0" content="2,ときわクリニック,山口県宇部市西岐波４７３９-２,外科　内科　呼吸器科　胃腸科　整形外科　リハビリテーション科,,,9" xlink:title="ときわクリニック" transform="ref(svg,13129.1234,-3394.8932)" x="0" y="0"/>
<use xlink:href="#p0" content="2,床波内科,山口県宇部市今村南１-２-４０-５,内科　循環器内科　放射線科,,,9" xlink:title="床波内科" transform="ref(svg,13130.2227,-3395.0508)" x="0" y="0"/>
<use xlink:href="#p0" content="2,とみた小児科医院,山口県宇部市大字妻崎開作５９９-１,小児科,,,9" xlink:title="とみた小児科医院" transform="ref(svg,13120.7082,-3398.099)" x="0" y="0"/>
<use xlink:href="#p0" content="2,永井皮ふ科医院,山口県宇部市厚南北１-３-２２,皮膚科,,,9" xlink:title="永井皮ふ科医院" transform="ref(svg,13121.8878,-3399.9262)" x="0" y="0"/>
<use xlink:href="#p0" content="2,永田消化器内科クリニック,山口県宇部市恩田町４-２-１７,内科　消化器内科（胃腸内科）,,,9" xlink:title="永田消化器内科クリニック" transform="ref(svg,13126.8511,-3394.2901)" x="0" y="0"/>
<use xlink:href="#p0" content="2,中野医院,山口県宇部市大字船木７０２-１,外科　内科　整形外科　肛門科　胃腸科　皮膚泌尿器科,,,9" xlink:title="中野医院" transform="ref(svg,13122.059,-3404.3408)" x="0" y="0"/>
<use xlink:href="#p0" content="2,なかの眼科クリニック,山口県宇部市大字西岐波１７２２-１,眼科,,,9" xlink:title="なかの眼科クリニック" transform="ref(svg,13132.2004,-3395.9438)" x="0" y="0"/>
<use xlink:href="#p0" content="2,なかの耳鼻咽喉科クリニック,山口県宇部市大字妻崎開作１１０-３,耳鼻いんこう科,,,9" xlink:title="なかの耳鼻咽喉科クリニック" transform="ref(svg,13121.6839,-3397.9064)" x="0" y="0"/>
<use xlink:href="#p0" content="2,中村内科,山口県宇部市大字東須恵字東１ノ面田１０９８-１,内科　循環器内科　消化器内科（胃腸内科）　呼吸器内科,,,9" xlink:title="中村内科" transform="ref(svg,13120.5393,-3398.7938)" x="0" y="0"/>
<use xlink:href="#p0" content="2,なにわ皮ふ科医院,山口県宇部市相生町３-１８,皮膚科　アレルギー科,,,9" xlink:title="なにわ皮ふ科医院" transform="ref(svg,13124.512,-3395.2591)" x="0" y="0"/>
<use xlink:href="#p0" content="2,波乗りクリニック,山口県宇部市大字東岐波４３２７-８,一般内科　総合診療科　心療内科,,,9" xlink:title="波乗りクリニック" transform="ref(svg,13134.8186,-3396.7286)" x="0" y="0"/>
<use xlink:href="#p0" content="2,なわたクリニック,山口県宇部市沖ノ旦６８６-１,内科　循環器内科　婦人科,,,9" xlink:title="なわたクリニック" transform="ref(svg,13122.7399,-3399.6501)" x="0" y="0"/>
<use xlink:href="#p0" content="2,名和田内科,山口県宇部市居能町３-１-５,内科　消化器内科,,,9" xlink:title="名和田内科" transform="ref(svg,13123.1371,-3396.8587)" x="0" y="0"/>
<use xlink:href="#p0" content="2,西垣内放射線科,山口県宇部市大字妻崎開作９１４-２,放射線科　消化器内科（胃腸内科）　呼吸器内科　リハビリテーション科,,,9" xlink:title="西垣内放射線科" transform="ref(svg,13120.14,-3397.5199)" x="0" y="0"/>
<use xlink:href="#p0" content="2,西川医院,山口県宇部市西岐波岩上３２５-１,内科　外科　胃腸内科　肛門外科　放射線科　リハビリテーション科　精神科,,,9" xlink:title="西川医院" transform="ref(svg,13130.1686,-3395.9365)" x="0" y="0"/>
<use xlink:href="#p0" content="2,西村外科医院,山口県宇部市大字妻崎開作８１２-１,外科　消化器外科（胃腸外科）,,,9" xlink:title="西村外科医院" transform="ref(svg,13120.3805,-3397.7207)" x="0" y="0"/>
<use xlink:href="#p0" content="2,ニシムラ内科,山口県宇部市東岐波花園２１５１-２,内科,,,9" xlink:title="ニシムラ内科" transform="ref(svg,13134.3681,-3398.8008)" x="0" y="0"/>
<use xlink:href="#p0" content="2,にしむら内科クリニック,山口県宇部市大字山門４-１-２７,内科　消化器内科（胃腸内科）　循環器内科　呼吸器内科　放射線科　リハビリテーション科,,,9" xlink:title="にしむら内科クリニック" transform="ref(svg,13127.4806,-3396.4011)" x="0" y="0"/>
<use xlink:href="#p0" content="2,西日本産業衛生会宇部検診診療所,山口県宇部市宇部市琴芝町２-１-１０宇部市保健センター内,内科,,,9" xlink:title="西日本産業衛生会宇部検診診療所" transform="ref(svg,13125.3461,-3395.4068)" x="0" y="0"/>
<use xlink:href="#p0" content="2,根木胃腸科,山口県宇部市島３-６-１５,胃腸科,,,9" xlink:title="根木胃腸科" transform="ref(svg,13124.1012,-3396.1145)" x="0" y="0"/>
<use xlink:href="#p0" content="2,野中耳鼻科,山口県宇部市西本町１-１-４２,耳鼻いんこう科　アレルギー科,,,9" xlink:title="野中耳鼻科" transform="ref(svg,13123.9912,-3395.7809)" x="0" y="0"/>
<use xlink:href="#p0" content="2,長谷川眼科琴芝クリニック,山口県宇部市北琴芝２-５-２１,眼科,,,9" xlink:title="長谷川眼科琴芝クリニック" transform="ref(svg,13125.9676,-3395.9808)" x="0" y="0"/>
<use xlink:href="#p0" content="2,浜通りクリニック,山口県宇部市東藤曲２-５-２０,精神科　心療内科　呼吸器内科　アレルギー科,,,9" xlink:title="浜通りクリニック" transform="ref(svg,13123.2909,-3396.9554)" x="0" y="0"/>
<use xlink:href="#p0" content="2,はらぐち内科呼吸器科,山口県宇部市明神町１-１-２１,内科　呼吸器内科　循環器内科　アレルギー科,,,9" xlink:title="はらぐち内科呼吸器科" transform="ref(svg,13126.1916,-3393.2204)" x="0" y="0"/>
<use xlink:href="#p0" content="2,原田外科医院,山口県宇部市恩田町５-８-５,外科　内科　消化器内科（胃腸内科）　肛門外科　整形外科　リハビリテーション科,,,9" xlink:title="原田外科医院" transform="ref(svg,13127.0545,-3394.2122)" x="0" y="0"/>
<use xlink:href="#p0" content="2,はりま内科胃腸科,山口県宇部市大字西岐波字道瀬１８８６-５,内科　胃腸科　大腸　大腸,,,9" xlink:title="はりま内科胃腸科" transform="ref(svg,13131.5507,-3396.0017)" x="0" y="0"/>
<use xlink:href="#p0" content="2,ひがしきわ整形外科クリニック,山口県宇部市大字東岐波大津出字５６１０-７,整形外科,,,9" xlink:title="ひがしきわ整形外科クリニック" transform="ref(svg,13133.3946,-3397.2721)" x="0" y="0"/>
<use xlink:href="#p0" content="2,久本皮ふ科医院,山口県宇部市北琴芝２-１０-１０,皮膚科,,,9" xlink:title="久本皮ふ科医院" transform="ref(svg,13125.8861,-3395.8719)" x="0" y="0"/>
<use xlink:href="#p0" content="2,ひらき内科,山口県宇部市開１-３-３,内科　神経内科　リハビリテーション科,,,9" xlink:title="ひらき内科" transform="ref(svg,13127.8903,-3396.4726)" x="0" y="0"/>
<use xlink:href="#p0" content="2,開クリニック,山口県宇部市開６-１１-５,外科　内科　整形外科　リハビリテーション科,,,9" xlink:title="開クリニック" transform="ref(svg,13127.9104,-3396.0057)" x="0" y="0"/>
<use xlink:href="#p0" content="2,ひらた内科クリニック,山口県宇部市若松町５-５,呼吸器内科　アレルギー科　リウマチ科　内科,,,9" xlink:title="ひらた内科クリニック" transform="ref(svg,13124.2991,-3395.9311)" x="0" y="0"/>
<use xlink:href="#p0" content="2,廣重内科,山口県宇部市床波２-３-６,内科,,,9" xlink:title="廣重内科" transform="ref(svg,13130.6,-3395.2761)" x="0" y="0"/>
<use xlink:href="#p0" content="2,ふくたクリニック,山口県宇部市島３-８-１３,内科　循環器科　呼吸器科　リウマチ科,,,9" xlink:title="ふくたクリニック" transform="ref(svg,13124.1514,-3396.2473)" x="0" y="0"/>
<use xlink:href="#p0" content="2,フジイ内科医院,山口県宇部市大字小串８２６,内科,,,9" xlink:title="フジイ内科医院" transform="ref(svg,13124.3565,-3396.5266)" x="0" y="0"/>
<use xlink:href="#p0" content="2,富士消化器内科クリニック,山口県宇部市草江２-１-４５,消化器内科,,,9" xlink:title="富士消化器内科クリニック" transform="ref(svg,13127.3686,-3394.1192)" x="0" y="0"/>
<use xlink:href="#p0" content="2,藤田放射線科,山口県宇部市琴芝町１-２-５７,放射線科,,,9" xlink:title="藤田放射線科" transform="ref(svg,13125.1334,-3395.545)" x="0" y="0"/>
<use xlink:href="#p0" content="2,ふじつ眼科,山口県宇部市小串９１-２０,眼科,,,9" xlink:title="ふじつ眼科" transform="ref(svg,13125.2849,-3396.844)" x="0" y="0"/>
<use xlink:href="#p0" content="2,藤野内科,山口県宇部市寿町１-３-３３,内科　循環器内科　呼吸器内科,,,9" xlink:title="藤野内科" transform="ref(svg,13124.7933,-3395.3757)" x="0" y="0"/>
<use xlink:href="#p0" content="2,ふじもと内科胃腸科医院,山口県宇部市東梶返４-７-７,内科,,,9" xlink:title="ふじもと内科胃腸科医院" transform="ref(svg,13126.4214,-3394.8431)" x="0" y="0"/>
<use xlink:href="#p0" content="2,藤本内科・脳神経内科,山口県宇部市則貞５-５-７,内科　神経内科,,,9" xlink:title="藤本内科・脳神経内科" transform="ref(svg,13128.0191,-3394.2931)" x="0" y="0"/>
<use xlink:href="#p0" content="2,ブライトンクリニック,山口県宇部市大字西岐波１５５１-１,耳鼻咽喉科　皮膚科　心療内科,,,9" xlink:title="ブライトンクリニック" transform="ref(svg,13131.619,-3396.1542)" x="0" y="0"/>
<use xlink:href="#p0" content="2,扶老会クリニック,山口県宇部市船木８３３,内科　胃腸科　皮膚科　循環器科　リハビリテーション科　精神科　神経科,,,9" xlink:title="扶老会クリニック" transform="ref(svg,13119.1823,-3404.8989)" x="0" y="0"/>
<use xlink:href="#p0" content="2,ペインクリニック山本医院,山口県宇部市東須恵字上流川２２９７-１,麻酔科　ペインクリニック内科　疼痛緩和内科,,,9" xlink:title="ペインクリニック山本医院" transform="ref(svg,13120.1158,-3397.8509)" x="0" y="0"/>
<use xlink:href="#p0" content="2,ヘルスポートクリニック山口,山口県宇部市琴芝町１-１-６３防長ビル２Ｆ,内科,,,9" xlink:title="ヘルスポートクリニック山口" transform="ref(svg,13124.9663,-3395.4439)" x="0" y="0"/>
<use xlink:href="#p0" content="2,松岡小児科,山口県宇部市西宇部南４-６-７,小児科　アレルギー科,,,9" xlink:title="松岡小児科" transform="ref(svg,13122.2166,-3400.1595)" x="0" y="0"/>
<use xlink:href="#p0" content="2,松谷医院,山口県宇部市中央町３-１１-１６,内科　胃腸内科,,,9" xlink:title="松谷医院" transform="ref(svg,13124.1326,-3395.6073)" x="0" y="0"/>
<use xlink:href="#p0" content="2,三井外科医院,山口県宇部市昭和町４-４-１６,外科　内科　呼吸器内科　整形外科　肛門外科　リハビリテーション科,,,9" xlink:title="三井外科医院" transform="ref(svg,13125.8496,-3393.4659)" x="0" y="0"/>
<use xlink:href="#p0" content="2,水木神経内科医院,山口県宇部市明治町２-５-７,精神科　心療内科　神経内科　内科,,,9" xlink:title="水木神経内科医院" transform="ref(svg,13125.3578,-3394.0529)" x="0" y="0"/>
<use xlink:href="#p0" content="2,むべの里診療所,山口県宇部市大字東須恵３２０-１９,内科,,,9" xlink:title="むべの里診療所" transform="ref(svg,13119.9861,-3399.1701)" x="0" y="0"/>
<use xlink:href="#p0" content="2,むらかみこどもクリニック,山口県宇部市大字東須恵字四町開作１９９７-１１,小児科　アレルギー科,,,9" xlink:title="むらかみこどもクリニック" transform="ref(svg,13120.2121,-3398.0886)" x="0" y="0"/>
<use xlink:href="#p0" content="2,村上内科胃腸科,山口県宇部市西小串１-３-１８,内科胃腸科　内科,,,9" xlink:title="村上内科胃腸科" transform="ref(svg,13124.6284,-3396.2521)" x="0" y="0"/>
<use xlink:href="#p0" content="2,森重整形外科,山口県宇部市寿町２-８-１６,リウマチ科　整形外科　リハビリテーション科,,,9" xlink:title="森重整形外科" transform="ref(svg,13124.9232,-3395.2833)" x="0" y="0"/>
<use xlink:href="#p0" content="2,矢野外科医院,山口県宇部市鍋倉町６-４５,外科　消化器内科（胃腸内科）　肛門外科　放射線科　リハビリテーション科　麻酔科,,,9" xlink:title="矢野外科医院" transform="ref(svg,13123.2823,-3396.8793)" x="0" y="0"/>
<use xlink:href="#p0" content="2,山田皮ふ科,山口県宇部市開１-２-７,皮膚科,,,9" xlink:title="山田皮ふ科" transform="ref(svg,13127.7826,-3396.4997)" x="0" y="0"/>
<use xlink:href="#p0" content="2,やまもとクリニック,山口県宇部市大字妻崎開作３１６-２６,内科　外科　消化器科　リハビリテーション科,,,9" xlink:title="やまもとクリニック" transform="ref(svg,13121.2627,-3398.4249)" x="0" y="0"/>
<use xlink:href="#p0" content="2,山本内科,山口県宇部市北琴芝２-１２-１２,内科,,,9" xlink:title="山本内科" transform="ref(svg,13125.7677,-3395.7462)" x="0" y="0"/>
<use xlink:href="#p0" content="2,よこやま皮ふ科クリニック,山口県宇部市大字中野開作６８-４,皮膚科,,,9" xlink:title="よこやま皮ふ科クリニック" transform="ref(svg,13121.9032,-3399.2714)" x="0" y="0"/>
<use xlink:href="#p0" content="2,よしかわ脳神経外科クリニック,山口県宇部市東小串２-１-６,脳神経外科　神経内科,,,9" xlink:title="よしかわ脳神経外科クリニック" transform="ref(svg,13125.2682,-3396.3155)" x="0" y="0"/>
<use xlink:href="#p0" content="2,よしもと小児科医院,山口県宇部市中尾１-７-１０,小児科,,,9" xlink:title="よしもと小児科医院" transform="ref(svg,13126.7604,-3396.9444)" x="0" y="0"/>
<use xlink:href="#p0" content="2,渡辺内科医院,山口県宇部市松山町４-９-７,内科　消化器内科（胃腸内科）　放射線科,,,9" xlink:title="渡辺内科医院" transform="ref(svg,13125.8277,-3393.7522)" x="0" y="0"/>
<use xlink:href="#p0" content="2,わだ泌尿器科クリニック,山口県宇部市沼１-１-２３,泌尿器科,,,9" xlink:title="わだ泌尿器科クリニック" transform="ref(svg,13126.426,-3396.4059)" x="0" y="0"/>
<use xlink:href="#p0" content="2,厚狭セントヒル泌尿器科,山口県山陽小野田市大字厚狭字今市１４４５-１,泌尿器科,,,9" xlink:title="厚狭セントヒル泌尿器科" transform="ref(svg,13117.4129,-3406.1064)" x="0" y="0"/>
<use xlink:href="#p0" content="2,あさひクリニック,山口県山陽小野田市大字郡４４５-５,外科　内科　小児科　皮膚科　リハビリテーション科,,,9" xlink:title="あさひクリニック" transform="ref(svg,13117.13,-3405.0172)" x="0" y="0"/>
<use xlink:href="#p0" content="2,伊藤医院,山口県山陽小野田市千代町１-１-１,内科,,,9" xlink:title="伊藤医院" transform="ref(svg,13118.1364,-3398.21)" x="0" y="0"/>
<use xlink:href="#p0" content="2,いとう眼科クリニック,山口県山陽小野田市日の出２-１６９５-２,眼科,,,9" xlink:title="いとう眼科クリニック" transform="ref(svg,13117.9948,-3400.6769)" x="0" y="0"/>
<use xlink:href="#p0" content="2,伊藤産科婦人科医院,山口県山陽小野田市高栄１-２-１３,産科婦人科,,,9" xlink:title="伊藤産科婦人科医院" transform="ref(svg,13117.7364,-3398.4553)" x="0" y="0"/>
<use xlink:href="#p0" content="2,稲本内科医院,山口県山陽小野田市くし山２-１-１０,内科　消化器内科（胃腸内科）　放射線科　リハビリテーション科,,,9" xlink:title="稲本内科医院" transform="ref(svg,13118.4538,-3401.3901)" x="0" y="0"/>
<use xlink:href="#p0" content="2,井上医院,山口県山陽小野田市新生２-４-２,脳神経外科　外科　神経内科　内科　リハビリテーション科,,,9" xlink:title="井上医院" transform="ref(svg,13117.9677,-3400.231)" x="0" y="0"/>
<use xlink:href="#p0" content="2,いのうえ内科医院,山口県山陽小野田市須恵１-４-１０,内科,,,9" xlink:title="いのうえ内科医院" transform="ref(svg,13117.8924,-3397.3903)" x="0" y="0"/>
<use xlink:href="#p0" content="2,岡野整形外科クリニック,山口県山陽小野田市大字西高泊６４８-２４,整形外科　リハビリテーション科,,,9" xlink:title="岡野整形外科クリニック" transform="ref(svg,13117.6093,-3400.7352)" x="0" y="0"/>
<use xlink:href="#p0" content="2,生協小野田診療所,山口県山陽小野田市くし山１-１７-２０,内科　消化器科　小児科　放射線科,,,9" xlink:title="生協小野田診療所" transform="ref(svg,13118.2511,-3401.1465)" x="0" y="0"/>
<use xlink:href="#p0" content="2,小野田ライフケアクリニック,山口県山陽小野田市高栄１-２-１０,アレルギー科　心療内科　神経内科　精神科　呼吸器内科　内科　小児科,,,9" xlink:title="小野田ライフケアクリニック" transform="ref(svg,13117.7437,-3398.4939)" x="0" y="0"/>
<use xlink:href="#p0" content="2,おもて整形外科,山口県山陽小野田市日の出４-５-８,整形外科　リハビリテーション科,,,9" xlink:title="おもて整形外科" transform="ref(svg,13118.5989,-3400.5376)" x="0" y="0"/>
<use xlink:href="#p0" content="2,河野内科,山口県山陽小野田市大字厚狭６８０-２３,内科　感染症内科　呼吸器内科　アレルギー科　リウマチ科　小児科,,,9" xlink:title="河野内科" transform="ref(svg,13117.7583,-3405.3933)" x="0" y="0"/>
<use xlink:href="#p0" content="2,かわむら内科,山口県山陽小野田市大字郡土井ノ内３２１１-１,内科　呼吸器内科　循環器内科　消化器内科（胃腸内科）　リハビリテーション科　放射線科,,,9" xlink:title="かわむら内科" transform="ref(svg,13114.5634,-3402.3735)" x="0" y="0"/>
<use xlink:href="#p0" content="2,久保整形外科医院,山口県山陽小野田市大字厚狭１３２-１,整形外科,,,9" xlink:title="久保整形外科医院" transform="ref(svg,13116.4313,-3405.4835)" x="0" y="0"/>
<use xlink:href="#p0" content="2,しおん内科外科クリニック,山口県山陽小野田市日の出３-７-２,内科　外科,,,9" xlink:title="しおん内科外科クリニック" transform="ref(svg,13118.4372,-3400.7161)" x="0" y="0"/>
<use xlink:href="#p0" content="2,耳鼻咽喉科タハラクリニック,山口県山陽小野田市大字東高泊１２７５-６,耳鼻いんこう科　アレルギー科,,,9" xlink:title="耳鼻咽喉科タハラクリニック" transform="ref(svg,13118.0199,-3401.2518)" x="0" y="0"/>
<use xlink:href="#p0" content="2,耳鼻咽喉科伯野医院,山口県山陽小野田市大字山川４５-２,耳鼻いんこう科,,,9" xlink:title="耳鼻咽喉科伯野医院" transform="ref(svg,13115.9404,-3405.5766)" x="0" y="0"/>
<use xlink:href="#p0" content="2,しまもと耳鼻咽喉科,山口県山陽小野田市中央３-６-１９,耳鼻いんこう科,,,9" xlink:title="しまもと耳鼻咽喉科" transform="ref(svg,13117.9913,-3397.7857)" x="0" y="0"/>
<use xlink:href="#p0" content="2,ジョイ皮ふ科クリニック,山口県山陽小野田市中川６-４-１おのだサンパーク東館,皮膚科　アレルギー科,,,9" xlink:title="ジョイ皮ふ科クリニック" transform="ref(svg,13117.2048,-3398.6075)" x="0" y="0"/>
<use xlink:href="#p0" content="2,女性クリニックおがた,山口県山陽小野田市中央３-６-３０,産婦人科,,,9" xlink:title="女性クリニックおがた" transform="ref(svg,13118.0017,-3397.8318)" x="0" y="0"/>
<use xlink:href="#p0" content="2,しらさわ内科クリニック,山口県山陽小野田市北竜王町１０-１０,内科　消化器内科（胃腸内科）　放射線科,,,9" xlink:title="しらさわ内科クリニック" transform="ref(svg,13117.6301,-3397.0237)" x="0" y="0"/>
<use xlink:href="#p0" content="2,新生皮ふ科クリニック,山口県山陽小野田市新生２-４-３,皮膚科　アレルギー科,,,9" xlink:title="新生皮ふ科クリニック" transform="ref(svg,13117.9597,-3400.2143)" x="0" y="0"/>
<use xlink:href="#p0" content="2,砂川小児科医院,山口県山陽小野田市住吉本町１-３-２４,小児科,,,9" xlink:title="砂川小児科医院" transform="ref(svg,13117.7266,-3397.9989)" x="0" y="0"/>
<use xlink:href="#p0" content="2,すながわこどもクリニック,山口県山陽小野田市日の出２-２-６,小児科,,,9" xlink:title="すながわこどもクリニック" transform="ref(svg,13118.0653,-3400.4636)" x="0" y="0"/>
<use xlink:href="#p0" content="2,たかはし小児科医院,山口県山陽小野田市西高泊７５８-１,小児科,,,9" xlink:title="たかはし小児科医院" transform="ref(svg,13116.8252,-3400.8793)" x="0" y="0"/>
<use xlink:href="#p0" content="2,田中としろう眼科,山口県山陽小野田市厚狭今市１４３４-１８,眼科,,,9" xlink:title="田中としろう眼科" transform="ref(svg,13117.3443,-3405.9639)" x="0" y="0"/>
<use xlink:href="#p0" content="2,田原耳鼻咽喉科医院,山口県山陽小野田市住吉本町１-５-２７,耳鼻いんこう科　アレルギー科,,,9" xlink:title="田原耳鼻咽喉科医院" transform="ref(svg,13117.7836,-3398.0235)" x="0" y="0"/>
<use xlink:href="#p0" content="2,たみたに内科循環器科,山口県山陽小野田市大字鴨庄１１-３,内科　循環器内科　呼吸器内科　消化器内科（胃腸内科）　リハビリテーション科,,,9" xlink:title="たみたに内科循環器科" transform="ref(svg,13115.6083,-3405.6441)" x="0" y="0"/>
<use xlink:href="#p0" content="2,てらい内科クリニック,山口県山陽小野田市桜１-１-５,内科　消化器内科（胃腸内科）,,,9" xlink:title="てらい内科クリニック" transform="ref(svg,13115.7984,-3405.3191)" x="0" y="0"/>
<use xlink:href="#p0" content="2,中村内科胃腸科医院,山口県山陽小野田市日の出４-５-６,内科　消化器内科（胃腸内科）　循環器内科　外科,,,9" xlink:title="中村内科胃腸科医院" transform="ref(svg,13118.5864,-3400.5341)" x="0" y="0"/>
<use xlink:href="#p0" content="2,西村内科医院,山口県山陽小野田市大字西高泊５８６-１,内科　消化器内科（胃腸内科）　呼吸器内科　小児科　放射線科　リハビリテーション科,,,9" xlink:title="西村内科医院" transform="ref(svg,13117.0787,-3400.9902)" x="0" y="0"/>
<use xlink:href="#p0" content="2,博和会みみ・はな・のど内科クリニック,山口県山陽小野田市厚狭４６７-１,耳鼻咽喉科　内科　アレルギー科　リハビリテーション科,,,9" xlink:title="博和会みみ・はな・のど内科クリニック" transform="ref(svg,13117.1075,-3405.401)" x="0" y="0"/>
<use xlink:href="#p0" content="2,長谷川眼科,山口県山陽小野田市中川４-４-１,眼科,,,9" xlink:title="長谷川眼科" transform="ref(svg,13117.6995,-3398.8651)" x="0" y="0"/>
<use xlink:href="#p0" content="2,はせがわ耳鼻クリニック,山口県山陽小野田市大字厚狭４５８-１３,耳鼻いんこう科,,,9" xlink:title="はせがわ耳鼻クリニック" transform="ref(svg,13117.2575,-3405.3091)" x="0" y="0"/>
<use xlink:href="#p0" content="2,はたもとクリニック,山口県山陽小野田市日の出３-１０-１,心療内科　神経内科　精神科　内科,,,9" xlink:title="はたもとクリニック" transform="ref(svg,13118.3502,-3400.6822)" x="0" y="0"/>
<use xlink:href="#p0" content="2,早川内科医院,山口県山陽小野田市大字小野田３９６６-３,内科,,,9" xlink:title="早川内科医院" transform="ref(svg,13118.0715,-3395.7761)" x="0" y="0"/>
<use xlink:href="#p0" content="2,はりま内科・胃腸科,山口県山陽小野田市大字小野田７０３６-１,内科　消化器内科（胃腸内科）,,,9" xlink:title="はりま内科・胃腸科" transform="ref(svg,13118.2218,-3399.6417)" x="0" y="0"/>
<use xlink:href="#p0" content="2,松岡整形外科,山口県山陽小野田市北竜王町１６-１７,整形外科,,,9" xlink:title="松岡整形外科" transform="ref(svg,13117.6861,-3396.8308)" x="0" y="0"/>
<use xlink:href="#p0" content="2,むらた循環器内科,山口県山陽小野田市大字西高泊字ワカリ６７２-２,内科　循環器内科,,,9" xlink:title="むらた循環器内科" transform="ref(svg,13117.546,-3400.4633)" x="0" y="0"/>
<use xlink:href="#p0" content="2,山田循環器科内科,山口県山陽小野田市新生町２０５５-５,内科,,,9" xlink:title="山田循環器科内科" transform="ref(svg,13118.2986,-3400.1345)" x="0" y="0"/>
<use xlink:href="#p0" content="2,吉武医院,山口県山陽小野田市大字厚狭字沖田２７-１,内科　小児科　リハビリテーション科,,,9" xlink:title="吉武医院" transform="ref(svg,13116.6379,-3405.3266)" x="0" y="0"/>
<use xlink:href="#p0" content="2,吉武内科クリニック,山口県山陽小野田市大字厚狭１０４０-１,内科　消化器内科（胃腸内科）　小児科　リハビリテーション科,,,9" xlink:title="吉武内科クリニック" transform="ref(svg,13117.3771,-3405.8674)" x="0" y="0"/>
<use xlink:href="#p0" content="2,吉中内科医院,山口県山陽小野田市住吉本町１-３-１７,内科　胃腸科　呼吸器科　循環器科,,,9" xlink:title="吉中内科医院" transform="ref(svg,13117.7395,-3398.03)" x="0" y="0"/>
<use xlink:href="#p0" content="2,わたなべ泌尿器科,山口県山陽小野田市中川４-６-１３,泌尿器科,,,9" xlink:title="わたなべ泌尿器科" transform="ref(svg,13117.5364,-3399.001)" x="0" y="0"/>
<use xlink:href="#p0" content="2,宇部興産機械医務室,山口県宇部市大字小串字沖ノ山１９８０,不明,,,9" xlink:title="宇部興産機械医務室" transform="ref(svg,13123.0061,-3395.3772)" x="0" y="0"/>
<use xlink:href="#p0" content="2,宇部興産中央医務室,山口県宇部市大字小串１９７８-１０,不明,,,9" xlink:title="宇部興産中央医務室" transform="ref(svg,13123.7253,-3395.3692)" x="0" y="0"/>
<use xlink:href="#p0" content="2,宇部興産西医務室,山口県宇部市大字小串１９７８-６,不明,,,9" xlink:title="宇部興産西医務室" transform="ref(svg,13123.1873,-3395.9891)" x="0" y="0"/>
<use xlink:href="#p0" content="2,宇部興産東医務室,山口県宇部市大字小串１９７８-２,不明,,,9" xlink:title="宇部興産東医務室" transform="ref(svg,13123.1181,-3394.6145)" x="0" y="0"/>
<use xlink:href="#p0" content="2,宇部市休日・夜間救急診療所,山口県宇部市琴芝町２-１-１０市健康推進課,小児科　内科　外科　歯科,,,9" xlink:title="宇部市休日・夜間救急診療所" transform="ref(svg,13125.3461,-3395.4062)" x="0" y="0"/>
<use xlink:href="#p0" content="2,協和発酵バイオ（株）山口事業所宇部・協和発酵キリン（株）宇部工場診療所,山口県宇部市大字藤曲２５４８,不明,,,9" xlink:title="協和発酵バイオ（株）山口事業所宇部・協和発酵キリン（株）宇部工場診療所" transform="ref(svg,13122.5481,-3396.7004)" x="0" y="0"/>
<use xlink:href="#p0" content="2,軽費老人ホーム好生園診療室,山口県宇部市野原１-１６-１５,内科,,,9" xlink:title="軽費老人ホーム好生園診療室" transform="ref(svg,13126.9673,-3394.7159)" x="0" y="0"/>
<use xlink:href="#p0" content="2,厚生労働省第二（共済）山口宇部医療センター診療部,山口県宇部市東岐波６８５,血液・腫瘍内科　呼吸器内科　呼吸器外科　内科　緩和ケア内科　乳腺・消化器外科　小児科　放射線科　循環器内科　精神科　外科　麻酔科　アレルギー科　リハビリテーション科　消化器内科（胃腸内科）　病理診断科　臨床検査科　整形外科　神経内科　耳鼻いんこう科　歯科,,,9" xlink:title="厚生労働省第二（共済）山口宇部医療センター診療部" transform="ref(svg,13134.6969,-3397.7259)" x="0" y="0"/>
<use xlink:href="#p0" content="2,セントラル硝子（株）宇部工場診療所,山口県宇部市沖宇部５２５３,不明,,,9" xlink:title="セントラル硝子（株）宇部工場診療所" transform="ref(svg,13125.0487,-3393.8771)" x="0" y="0"/>
<use xlink:href="#p0" content="2,高嶺園診療所,山口県宇部市川上大固屋７１４-１１,内科　外科,,,9" xlink:title="高嶺園診療所" transform="ref(svg,13126.9251,-3399.1924)" x="0" y="0"/>
<use xlink:href="#p0" content="2,（特養）アスワン山荘医務室,山口県宇部市二俣瀬区王坂４０-２２１,内科,,,9" xlink:title="（特養）アスワン山荘医務室" transform="ref(svg,13128.1593,-3406.3185)" x="0" y="0"/>
<use xlink:href="#p0" content="2,（特養）宇部あかり園医務室,山口県宇部市大字西岐波字岩上２２９-１０５,内科,,,9" xlink:title="（特養）宇部あかり園医務室" transform="ref(svg,13130.1515,-3396.6685)" x="0" y="0"/>
<use xlink:href="#p0" content="2,（特養）神原苑診療所,山口県宇部市神原町２-１-２２,内科,,,9" xlink:title="（特養）神原苑診療所" transform="ref(svg,13126.1288,-3394.8895)" x="0" y="0"/>
<use xlink:href="#p0" content="2,（特養）楠園医務室,山口県宇部市大字船木８３３-３,内科,,,9" xlink:title="（特養）楠園医務室" transform="ref(svg,13119.2204,-3405.0009)" x="0" y="0"/>
<use xlink:href="#p0" content="2,（特養）センチュリー２１医務室,山口県宇部市大字山中１２６-１,内科,,,9" xlink:title="（特養）センチュリー２１医務室" transform="ref(svg,13133.2999,-3405.9869)" x="0" y="0"/>
<use xlink:href="#p0" content="2,（特養）日の山園診療所,山口県宇部市大字東岐波字道田２２３,内科　外科,,,9" xlink:title="（特養）日の山園診療所" transform="ref(svg,13135.2116,-3399.898)" x="0" y="0"/>
<use xlink:href="#p0" content="2,（特養）むべの里医務室,山口県宇部市大字東須恵字大浴３２０-１,内科,,,9" xlink:title="（特養）むべの里医務室" transform="ref(svg,13119.997,-3399.1435)" x="0" y="0"/>
<use xlink:href="#p0" content="2,山口大学保健管理センター医学部分室,山口県宇部市小串１-１-１,不明,,,9" xlink:title="山口大学保健管理センター医学部分室" transform="ref(svg,13124.8602,-3395.8136)" x="0" y="0"/>
<use xlink:href="#p0" content="2,山口大学保健管理センター工学部分室,山口県宇部市常盤台２-１６-１,内科　心療内科,,,9" xlink:title="山口大学保健管理センター工学部分室" transform="ref(svg,13127.2528,-3395.6417)" x="0" y="0"/>
<use xlink:href="#p0" content="2,山口県宇部環境保健所,山口県宇部市常盤町２-３-２８,不明,,,9" xlink:title="山口県宇部環境保健所" transform="ref(svg,13125.0188,-3394.9542)" x="0" y="0"/>
<use xlink:href="#p0" content="2,養護老人ホームむべの里博愛園医務室,山口県宇部市東芝中町３-５,内科,,,9" xlink:title="養護老人ホームむべの里博愛園医務室" transform="ref(svg,13125.9485,-3393.8997)" x="0" y="0"/>
<use xlink:href="#p0" content="2,ルネサスセミコンダクタマニュファクチュアリング（株）山口工場健康管理室,山口県宇部市東万倉神元１９２-３,不明,,,9" xlink:title="ルネサスセミコンダクタマニュファクチュアリング（株）山口工場健康管理室" transform="ref(svg,13124.1351,-3405.2843)" x="0" y="0"/>
<use xlink:href="#p0" content="2,わかばアイクリニック,山口県宇部市寿町１-４-５,眼科,,,9" xlink:title="わかばアイクリニック" transform="ref(svg,13124.8347,-3395.2849)" x="0" y="0"/>
<use xlink:href="#p0" content="2,小野田老人ホーム医務室,山口県山陽小野田市若山東の山３２５-２,内科,,,9" xlink:title="小野田老人ホーム医務室" transform="ref(svg,13118.3726,-3397.4825)" x="0" y="0"/>
<use xlink:href="#p0" content="2,山陽小野田市急患診療所,山口県山陽小野田市大字東高泊１９４７-１,小児科　内科,,,9" xlink:title="山陽小野田市急患診療所" transform="ref(svg,13117.8895,-3399.8408)" x="0" y="0"/>
<use xlink:href="#p0" content="2,長寿園診療所,山口県山陽小野田市小野田１３２４-１０,内科,,,9" xlink:title="長寿園診療所" transform="ref(svg,13118.3664,-3399.1176)" x="0" y="0"/>
<use xlink:href="#p0" content="2,（特養）高千帆苑医務室,山口県山陽小野田市有帆６６２-１,内科,,,9" xlink:title="（特養）高千帆苑医務室" transform="ref(svg,13119.5502,-3402.6094)" x="0" y="0"/>
<use xlink:href="#p0" content="2,（特養）フクシア医務室,山口県山陽小野田市大字厚狭字埴生田５０３-１,内科　外科,,,9" xlink:title="（特養）フクシア医務室" transform="ref(svg,13117.3707,-3405.3251)" x="0" y="0"/>
<use xlink:href="#p0" content="2,日本化薬（株）厚狭工場診療所,山口県山陽小野田市大字郡２３００,不明,,,9" xlink:title="日本化薬（株）厚狭工場診療所" transform="ref(svg,13115.243,-3403.7971)" x="0" y="0"/>
</g>
</svg>
