<?xml version="1.0" encoding="UTF-8"?>
<svg  xmlns="http://www.w3.org/2000/svg" xmlns:xlink="http://www.w3.org/1999/xlink" xmlns:go="http://purl.org/svgmap/profile" property="医療機関分類,施設名称,所在地,診療科目１,診療科目２,診療科目３,開設者分類" viewBox="13992.1875 -3937.5 70.3125 70.3125" go:dataArea="13992.1875 -3937.5 70.3125 70.3125" >
<metadata>
 <rdf:RDF xmlns:rdf="http://www.w3.org/1999/02/22-rdf-syntax-ns#" xmlns:crs="http://opengis.org/xmldtds/transformations.dtd" xmlns:svg="http://www.w3.org/svg" >
  <rdf:Description>
   <crs:CoordinateReferenceSystem rdf:resource="http://purl.org/crs/84" svg:transform="matrix(100.0,0.0,0.0,-100.0,0.0,0.0)" />
  </rdf:Description>
 </rdf:RDF>
</metadata>
<globalCoordinateSystem srsName="http://purl.org/crs/84" transform="matrix(100.0,0.0,0.0,-100.0,0.0,0.0)" />
<defs>
 <g id="p0" >
  <image xlink:href="mappin.png" preserveAspectRatio="none" x="-8" y="-25" width="19" height="27"/>
 </g>
 <g id="p1" >
  <image xlink:href="mappin1.png" preserveAspectRatio="none" x="-8" y="-25" width="19" height="27"/>
 </g>
 <g id="p2" >
  <image xlink:href="mappin2.png" preserveAspectRatio="none" x="-8" y="-25" width="19" height="27"/>
 </g>
 <g id="p3" >
  <image xlink:href="mappin3.png" preserveAspectRatio="none" x="-8" y="-25" width="19" height="27"/>
 </g>
 <g id="p4" >
  <image xlink:href="mappin4.png" preserveAspectRatio="none" x="-8" y="-25" width="19" height="27"/>
 </g>
 <g id="p5" >
  <image xlink:href="mappin5.png" preserveAspectRatio="none" x="-8" y="-25" width="19" height="27"/>
 </g>
 <g id="p6" >
  <image xlink:href="mappin6.png" preserveAspectRatio="none" x="-8" y="-25" width="19" height="27"/>
 </g>
 <g id="p7" >
  <image xlink:href="mappin7.png" preserveAspectRatio="none" x="-8" y="-25" width="19" height="27"/>
 </g>
 <g id="p8" >
  <image xlink:href="mappin8.png" preserveAspectRatio="none" x="-8" y="-25" width="19" height="27"/>
 </g>
 <g id="p9" >
  <image xlink:href="mappin9.png" preserveAspectRatio="none" x="-8" y="-25" width="19" height="27"/>
 </g>
</defs>
<g fill="green" fill-rule="evenodd" >
<use xlink:href="#p0" content="2,小松医院,秋田県由利本荘市舘石沢舘６,内科　老年内科,,,9" xlink:title="小松医院" transform="ref(svg,14012.7601,-3933.7238)" x="0" y="0"/>
<use xlink:href="#p0" content="2,由利本荘市（特養）東光苑苑内医務室,秋田県由利本荘市東由利蔵蔵８３,内科,,,9" xlink:title="由利本荘市（特養）東光苑苑内医務室" transform="ref(svg,14026.4291,-3931.5733)" x="0" y="0"/>
<use xlink:href="#p0" content="2,高村診療所,秋田県由利本荘市東由利老方高村２３,外科　小児科　内科,,,9" xlink:title="高村診療所" transform="ref(svg,14031.6296,-3933.6919)" x="0" y="0"/>
<use xlink:href="#p0" content="2,老方診療所,秋田県由利本荘市東由利老方老方１４,外科　内科,,,9" xlink:title="老方診療所" transform="ref(svg,14028.604,-3930.3481)" x="0" y="0"/>
<use xlink:href="#p0" content="2,（医）東仁会小松医院,秋田県由利本荘市東由利舘合舘前７,小児科　内科　婦人科,,,9" xlink:title="（医）東仁会小松医院" transform="ref(svg,14028.326,-3928.6437)" x="0" y="0"/>
<use xlink:href="#p0" content="2,須郷大吹川診療所,秋田県由利本荘市東由利黒渕更田２１,外科　小児科　内科,,,9" xlink:title="須郷大吹川診療所" transform="ref(svg,14022.6424,-3927.05)" x="0" y="0"/>
<use xlink:href="#p0" content="2,大琴診療所,秋田県由利本荘市東由利宿ヤツマ１４７,外科　内科,,,9" xlink:title="大琴診療所" transform="ref(svg,14022.8172,-3931.0264)" x="0" y="0"/>
<use xlink:href="#p0" content="2,沼診療所,秋田県由利本荘市東由利杉森沼３４,外科　小児科　内科,,,9" xlink:title="沼診療所" transform="ref(svg,14019.3767,-3929.997)" x="0" y="0"/>
<use xlink:href="#p0" content="2,（特養）白百合苑医務室,秋田県由利本荘市前郷家岸７９-１７,内科,,,9" xlink:title="（特養）白百合苑医務室" transform="ref(svg,14011.1374,-3931.4038)" x="0" y="0"/>
<use xlink:href="#p0" content="2,（医）渡邊医院,秋田県由利本荘市前郷家岸７９-２０,消化器内科（胃腸内科）　内科,,,9" xlink:title="（医）渡邊医院" transform="ref(svg,14011.2174,-3931.3879)" x="0" y="0"/>
<use xlink:href="#p0" content="2,西沢診療所,秋田県由利本荘市西沢舞台５,外科　小児科　内科,,,9" xlink:title="西沢診療所" transform="ref(svg,14007.0274,-3928.3175)" x="0" y="0"/>
<use xlink:href="#p0" content="2,鮎川診療所,秋田県由利本荘市東鮎川下山崎８,外科　内科,,,9" xlink:title="鮎川診療所" transform="ref(svg,14006.7267,-3932.8176)" x="0" y="0"/>
<use xlink:href="#p0" content="2,（医）有誠会佐藤医院,秋田県由利本荘市矢島町七日町曲り渕１２８-１,矯正歯科　歯科　小児歯科　消化器内科（胃腸内科）　内科,,,9" xlink:title="（医）有誠会佐藤医院" transform="ref(svg,14014.0696,-3923.2361)" x="0" y="0"/>
<use xlink:href="#p0" content="2,木村医院,秋田県由利本荘市矢島町七日町七日町３９,外科　循環器内科　内科,,,9" xlink:title="木村医院" transform="ref(svg,14013.6372,-3922.8927)" x="0" y="0"/>
<use xlink:href="#p0" content="2,大井医院,秋田県由利本荘市矢島町七日町栩木田６８,小児科　整形外科　内科,,,9" xlink:title="大井医院" transform="ref(svg,14014.3045,-3922.6789)" x="0" y="0"/>
<use xlink:href="#p0" content="2,（福）中央会指定介護老人福祉施設ふるさと矢島,秋田県由利本荘市矢島町城内八森下４８１-１,内科,,,9" xlink:title="（福）中央会指定介護老人福祉施設ふるさと矢島" transform="ref(svg,14013.6414,-3923.4491)" x="0" y="0"/>
<use xlink:href="#p0" content="2,加賀医院,秋田県由利本荘市鳥海町伏見久保１２-９,小児科　消化器内科（胃腸内科）　内科,,,9" xlink:title="加賀医院" transform="ref(svg,14019.2552,-3919.1964)" x="0" y="0"/>
<use xlink:href="#p0" content="2,由利本荘市（特養）鳥寿苑内医務室,秋田県由利本荘市鳥海町伏見久保７７,呼吸器内科　循環器内科　内科,,,9" xlink:title="由利本荘市（特養）鳥寿苑内医務室" transform="ref(svg,14018.905,-3918.969)" x="0" y="0"/>
<use xlink:href="#p0" content="2,由利本荘市鳥海診療所,秋田県由利本荘市鳥海町伏見久保８-２,呼吸器内科　循環器内科　内科,,,9" xlink:title="由利本荘市鳥海診療所" transform="ref(svg,14019.164,-3919.299)" x="0" y="0"/>
<use xlink:href="#p0" content="2,由利本荘市直根診療所,秋田県由利本荘市鳥海町中直根茅野６５-３,外科　消化器科　内科,,,9" xlink:title="由利本荘市直根診療所" transform="ref(svg,14016.7665,-3915.1767)" x="0" y="0"/>
<use xlink:href="#p0" content="2,由利本荘市笹子診療所,秋田県由利本荘市鳥海町上笹子堺台１０５,消化器内科,,,9" xlink:title="由利本荘市笹子診療所" transform="ref(svg,14029.3249,-3910.9359)" x="0" y="0"/>
<use xlink:href="#p0" content="2,医師会健診センターせんがり,秋田県由利本荘市堤脇４０-１,内科,,,9" xlink:title="医師会健診センターせんがり" transform="ref(svg,14004.4883,-3937.3913)" x="0" y="0"/>
<use xlink:href="#p0" content="2,本荘由利広域市町村圏組合立休日応急診療所,秋田県由利本荘市堤脇４５,小児科　内科,,,9" xlink:title="本荘由利広域市町村圏組合立休日応急診療所" transform="ref(svg,14004.5031,-3937.4107)" x="0" y="0"/>
<use xlink:href="#p0" content="2,（特養）ひまわり内医務室,秋田県由利本荘市西目町海士剥御月森１,循環器内科　内科,,,9" xlink:title="（特養）ひまわり内医務室" transform="ref(svg,14001.9874,-3936.8738)" x="0" y="0"/>
<use xlink:href="#p0" content="2,秋田県心身障害者コロニー診療所,秋田県由利本荘市西目町出戸孫七山３-２,リハビリテーション科　胃腸科　外科　眼科　歯科　耳鼻いんこう科　小児外科　整形外科　精神科　内科　泌尿器科　皮膚科　婦人科,,,9" xlink:title="秋田県心身障害者コロニー診療所" transform="ref(svg,14000.9598,-3928.97)" x="0" y="0"/>
<use xlink:href="#p0" content="2,きくち医院,秋田県由利本荘市西目町沼田新道下２-７１,小児科　内科,,,9" xlink:title="きくち医院" transform="ref(svg,14001.1987,-3934.3059)" x="0" y="0"/>
<use xlink:href="#p0" content="2,（特養）陽光苑医務室,秋田県にかほ市金浦古賀の田３１-２,内科,,,9" xlink:title="（特養）陽光苑医務室" transform="ref(svg,13992.5764,-3925.6639)" x="0" y="0"/>
<use xlink:href="#p0" content="2,（医）今仁会すずらん診療所,秋田県にかほ市平沢行ヒ森１０-７,消化器内科（胃腸内科）　内科,,,9" xlink:title="（医）今仁会すずらん診療所" transform="ref(svg,13996.686,-3928.5439)" x="0" y="0"/>
<use xlink:href="#p0" content="2,（医）宗休会加藤医院,秋田県にかほ市平沢上町８５-３,消化器内科,,,9" xlink:title="（医）宗休会加藤医院" transform="ref(svg,13996.0652,-3929.0756)" x="0" y="0"/>
<use xlink:href="#p0" content="2,ＴＤＫ健康管理センター,秋田県にかほ市平沢新町６７,内科,,,9" xlink:title="ＴＤＫ健康管理センター" transform="ref(svg,13996.6307,-3929.1307)" x="0" y="0"/>
<use xlink:href="#p0" content="2,（医）秋峰会にかほ眼科医院,秋田県にかほ市平沢田角森６６-１,眼科,,,9" xlink:title="（医）秋峰会にかほ眼科医院" transform="ref(svg,13995.8927,-3928.5401)" x="0" y="0"/>
<use xlink:href="#p0" content="2,（特養）楽しいわが家医務室,秋田県にかほ市平沢字宝田３２,内科,,,9" xlink:title="（特養）楽しいわが家医務室" transform="ref(svg,13996.2202,-3928.3257)" x="0" y="0"/>
<use xlink:href="#p0" content="2,にかほ市国民健康保険院内診療所,秋田県にかほ市院内〆カケ７-１,小児科　内科,,,9" xlink:title="にかほ市国民健康保険院内診療所" transform="ref(svg,13997.1377,-3927.1311)" x="0" y="0"/>
<use xlink:href="#p0" content="2,にかほ市国民健康保険小出診療所,秋田県にかほ市中三地前田１４-１,小児科　内科,,,9" xlink:title="にかほ市国民健康保険小出診療所" transform="ref(svg,13996.3198,-3924.3926)" x="0" y="0"/>
<use xlink:href="#p0" content="2,しおたこどもクリニック,秋田県横手市杉沢中杉沢５１９-２,アレルギー科　小児科,,,9" xlink:title="しおたこどもクリニック" transform="ref(svg,14056.2738,-3934.4157)" x="0" y="0"/>
<use xlink:href="#p0" content="2,こはま泌尿器科クリニック,秋田県横手市杉沢中杉沢５１９-１,外科　内科　泌尿器科,,,9" xlink:title="こはま泌尿器科クリニック" transform="ref(svg,14056.2903,-3934.3934)" x="0" y="0"/>
<use xlink:href="#p0" content="2,（医）橋本内科医院,秋田県横手市大町５-２５,呼吸器内科　循環器内科　消化器内科（胃腸内科）　内科,,,9" xlink:title="（医）橋本内科医院" transform="ref(svg,14056.8074,-3931.4871)" x="0" y="0"/>
<use xlink:href="#p0" content="2,石田内科医院,秋田県横手市四日町１-１１,内科,,,9" xlink:title="石田内科医院" transform="ref(svg,14056.6409,-3931.7097)" x="0" y="0"/>
<use xlink:href="#p0" content="2,（医）桐山会山田眼科医院,秋田県横手市四日町５-２５,眼科,,,9" xlink:title="（医）桐山会山田眼科医院" transform="ref(svg,14056.8591,-3931.3456)" x="0" y="0"/>
<use xlink:href="#p0" content="2,千葉小児科医院,秋田県横手市寿町２-１４,小児科,,,9" xlink:title="千葉小児科医院" transform="ref(svg,14056.1669,-3931.3366)" x="0" y="0"/>
<use xlink:href="#p0" content="2,熊谷医院,秋田県横手市寿町２-８,内科,,,9" xlink:title="熊谷医院" transform="ref(svg,14056.1957,-3931.3376)" x="0" y="0"/>
<use xlink:href="#p0" content="2,（医）敬仁会福嶋内科医院,秋田県横手市平城町３-３４,呼吸器内科　循環器内科　神経内科　内科,,,9" xlink:title="（医）敬仁会福嶋内科医院" transform="ref(svg,14056.0367,-3931.5667)" x="0" y="0"/>
<use xlink:href="#p0" content="2,樋口産婦人科医院,秋田県横手市平城町５-４,婦人科,,,9" xlink:title="樋口産婦人科医院" transform="ref(svg,14056.1522,-3931.4302)" x="0" y="0"/>
<use xlink:href="#p0" content="2,（医）敬仁会針生皮膚科内科医院,秋田県横手市平城町７-８,内科　皮膚科,,,9" xlink:title="（医）敬仁会針生皮膚科内科医院" transform="ref(svg,14056.0384,-3931.6059)" x="0" y="0"/>
<use xlink:href="#p0" content="2,（医）横手胃腸科クリニック,秋田県横手市清川町１３-３１,消化器内科（胃腸内科）　心療内科　内科,,,9" xlink:title="（医）横手胃腸科クリニック" transform="ref(svg,14057.422,-3930.9267)" x="0" y="0"/>
<use xlink:href="#p0" content="2,秋田県横手保健所,秋田県横手市旭川１-３-４６,小児科　心療内科　精神科　内科,,,9" xlink:title="秋田県横手保健所" transform="ref(svg,14057.5373,-3930.9441)" x="0" y="0"/>
<use xlink:href="#p0" content="2,石橋小児科医院,秋田県横手市旭川１-５-５,アレルギー科　小児科,,,9" xlink:title="石橋小児科医院" transform="ref(svg,14057.6604,-3930.8791)" x="0" y="0"/>
<use xlink:href="#p0" content="2,すずき皮膚科クリニック,秋田県横手市駅前町１０-１０,皮膚科,,,9" xlink:title="すずき皮膚科クリニック" transform="ref(svg,14056.2745,-3930.6855)" x="0" y="0"/>
<use xlink:href="#p0" content="2,（福）横手福祉会（特養）さくら診療所,秋田県横手市駅前町１４-９,内科,,,9" xlink:title="（福）横手福祉会（特養）さくら診療所" transform="ref(svg,14056.215,-3930.5971)" x="0" y="0"/>
<use xlink:href="#p0" content="2,（医）暁会高橋耳鼻咽喉科眼科クリニック,秋田県横手市前郷二番町４-２５,アレルギー科　眼科　耳鼻いんこう科,,,9" xlink:title="（医）暁会高橋耳鼻咽喉科眼科クリニック" transform="ref(svg,14056.3511,-3931.0252)" x="0" y="0"/>
<use xlink:href="#p0" content="2,（医）賢友会細谷内科医院,秋田県横手市前郷二番町８-１８,リハビリテーション科　呼吸器内科　循環器内科　消化器内科　腎臓内科　糖尿病内科　内科,,,9" xlink:title="（医）賢友会細谷内科医院" transform="ref(svg,14056.2933,-3930.8879)" x="0" y="0"/>
<use xlink:href="#p0" content="2,八木橋医院,秋田県横手市前郷一番町１１-７,外科　腫瘍内科　内科　肛門外科,,,9" xlink:title="八木橋医院" transform="ref(svg,14056.5024,-3931.0895)" x="0" y="0"/>
<use xlink:href="#p0" content="2,あさのクリニック,秋田県横手市前郷八ツ口１,外科　内科　皮膚科,,,9" xlink:title="あさのクリニック" transform="ref(svg,14055.0704,-3931.0827)" x="0" y="0"/>
<use xlink:href="#p0" content="2,高橋内科医院,秋田県横手市安田ブンナ沢８０-４５,循環器内科　内科,,,9" xlink:title="高橋内科医院" transform="ref(svg,14056.3741,-3929.5789)" x="0" y="0"/>
<use xlink:href="#p0" content="2,朝日ヶ丘レディースクリニック,秋田県横手市朝日が丘４-１-６,産婦人科,,,9" xlink:title="朝日ヶ丘レディースクリニック" transform="ref(svg,14054.0508,-3929.4636)" x="0" y="0"/>
<use xlink:href="#p0" content="2,（医）復古堂医院,秋田県横手市朝日が丘３-１-４５,アレルギー科　小児科　内科　皮膚科,,,9" xlink:title="（医）復古堂医院" transform="ref(svg,14053.4966,-3929.7258)" x="0" y="0"/>
<use xlink:href="#p0" content="2,条里コスモス眼科,秋田県横手市条里１-１０-１７,眼科,,,9" xlink:title="条里コスモス眼科" transform="ref(svg,14055.2721,-3930.8604)" x="0" y="0"/>
<use xlink:href="#p0" content="2,（医）暁会条里プラタナス耳鼻科,秋田県横手市条里１-１０-１７,耳鼻いんこう科,,,9" xlink:title="（医）暁会条里プラタナス耳鼻科" transform="ref(svg,14055.2721,-3930.8604)" x="0" y="0"/>
<use xlink:href="#p0" content="2,渡辺内科循環器科医院,秋田県横手市条里３-３-１０,循環器内科　内科,,,9" xlink:title="渡辺内科循環器科医院" transform="ref(svg,14055.3667,-3931.6075)" x="0" y="0"/>
<use xlink:href="#p0" content="2,いそべレディスクリニック,秋田県横手市条里１-１-２１,産婦人科　女性内科　性感染症内科　内科　婦人科,,,9" xlink:title="いそべレディスクリニック" transform="ref(svg,14055.419,-3931.0795)" x="0" y="0"/>
<use xlink:href="#p0" content="2,おぎわら内科診療所,秋田県横手市条里１-１５-２,内科,,,9" xlink:title="おぎわら内科診療所" transform="ref(svg,14055.0995,-3930.8912)" x="0" y="0"/>
<use xlink:href="#p0" content="2,（医）渓水会湊クリニック,秋田県横手市条里３-１-２５,心療内科　精神科　内科,,,9" xlink:title="（医）渓水会湊クリニック" transform="ref(svg,14055.3129,-3931.4214)" x="0" y="0"/>
<use xlink:href="#p0" content="2,（福）ファミリーケアサービス（特養）すこやか横手診療所,秋田県横手市横山町１-１,内科,,,9" xlink:title="（福）ファミリーケアサービス（特養）すこやか横手診療所" transform="ref(svg,14056.3658,-3930.4513)" x="0" y="0"/>
<use xlink:href="#p0" content="2,佐野耳鼻咽喉科,秋田県横手市横手町四ノ口４６-１,耳鼻いんこう科,,,9" xlink:title="佐野耳鼻咽喉科" transform="ref(svg,14055.1223,-3931.3609)" x="0" y="0"/>
<use xlink:href="#p0" content="2,（医）ツインクリニック内科・整形外科,秋田県横手市横手町大関越１６６-１,リウマチ科　リハビリテーション科　呼吸器内科　循環器内科　整形外科　内科,,,9" xlink:title="（医）ツインクリニック内科・整形外科" transform="ref(svg,14054.948,-3931.9272)" x="0" y="0"/>
<use xlink:href="#p0" content="2,小田嶋まさる内科,秋田県横手市横手町大関越１７４,消化器内科　内科　内視鏡内科,,,9" xlink:title="小田嶋まさる内科" transform="ref(svg,14055.0734,-3931.9089)" x="0" y="0"/>
<use xlink:href="#p0" content="2,（医）十薬会和賀胃腸科内科医院,秋田県横手市婦気大堤谷地添１２６,消化器内科（胃腸内科）　内科,,,9" xlink:title="（医）十薬会和賀胃腸科内科医院" transform="ref(svg,14055.3146,-3930.3292)" x="0" y="0"/>
<use xlink:href="#p0" content="2,（特養）すこやか森の家,秋田県横手市婦気大堤婦気前１５４-１,内科,,,9" xlink:title="（特養）すこやか森の家" transform="ref(svg,14055.3466,-3930.0477)" x="0" y="0"/>
<use xlink:href="#p0" content="2,（医）ゆあさ整形外科クリニック,秋田県横手市赤坂大沼下４１-２,リハビリテーション科　整形外科,,,9" xlink:title="（医）ゆあさ整形外科クリニック" transform="ref(svg,14054.0712,-3930.0191)" x="0" y="0"/>
<use xlink:href="#p0" content="2,胃腸科内科高橋クリニック,秋田県横手市赤坂大道添７９-３,消化器内科（胃腸内科）　内科,,,9" xlink:title="胃腸科内科高橋クリニック" transform="ref(svg,14054.1128,-3930.3179)" x="0" y="0"/>
<use xlink:href="#p0" content="2,梅の木ペインクリニック,秋田県横手市梅の木町１８-９,ペインクリニック科　整形外科　内科　皮膚科　麻酔科,,,9" xlink:title="梅の木ペインクリニック" transform="ref(svg,14055.8738,-3931.4107)" x="0" y="0"/>
<use xlink:href="#p0" content="2,（医）松井医院,秋田県横手市赤川村ノ前３８-１,リハビリテーション科　外科　内科　泌尿器科,,,9" xlink:title="（医）松井医院" transform="ref(svg,14052.1714,-3932.5167)" x="0" y="0"/>
<use xlink:href="#p0" content="2,横手市養護老人ホームひらか荘診療所,秋田県横手市平鹿町醍醐下村１２３-１,内科,,,9" xlink:title="横手市養護老人ホームひらか荘診療所" transform="ref(svg,14051.3145,-3925.5698)" x="0" y="0"/>
<use xlink:href="#p0" content="2,醍醐クリニック,秋田県横手市平鹿町醍醐石成２５-１,小児科　内科,,,9" xlink:title="醍醐クリニック" transform="ref(svg,14053.3996,-3924.2845)" x="0" y="0"/>
<use xlink:href="#p0" content="2,山崎医院分院,秋田県横手市平鹿町浅舞館廻１９２-１,呼吸器内科　循環器内科　小児科　消化器内科（胃腸内科）　内科,,,9" xlink:title="山崎医院分院" transform="ref(svg,14048.4587,-3926.6557)" x="0" y="0"/>
<use xlink:href="#p0" content="2,（特養）平寿苑診療所,秋田県横手市平鹿町浅舞館廻３５３,内科,,,9" xlink:title="（特養）平寿苑診療所" transform="ref(svg,14048.3856,-3926.7502)" x="0" y="0"/>
<use xlink:href="#p0" content="2,山崎医院,秋田県横手市平鹿町浅舞浅舞２０５-１,呼吸器内科　循環器内科　消化器内科（胃腸内科）　神経内科　腎臓内科　糖尿病内科（代謝内科）　内科,,,9" xlink:title="山崎医院" transform="ref(svg,14048.711,-3926.2552)" x="0" y="0"/>
<use xlink:href="#p0" content="2,西成医院,秋田県横手市平鹿町浅舞５３,外科　小児科　整形外科　内科,,,9" xlink:title="西成医院" transform="ref(svg,14048.6971,-3926.2113)" x="0" y="0"/>
<use xlink:href="#p0" content="2,（福）ひらか福祉会（特養）あやめ苑診療所,秋田県横手市平鹿町浅舞福田２０７-４,外科　整形外科　内科,,,9" xlink:title="（福）ひらか福祉会（特養）あやめ苑診療所" transform="ref(svg,14049.0656,-3926.768)" x="0" y="0"/>
<use xlink:href="#p0" content="2,（医）至一会中川医院,秋田県横手市雄物川町今宿棒突２９-３,消化器内科（胃腸内科）　内科,,,9" xlink:title="（医）至一会中川医院" transform="ref(svg,14043.0634,-3929.4176)" x="0" y="0"/>
<use xlink:href="#p0" content="2,雄物川クリニック,秋田県横手市雄物川町今宿棒突４４-１,産婦人科　小児科　内科,,,9" xlink:title="雄物川クリニック" transform="ref(svg,14043.1044,-3929.195)" x="0" y="0"/>
<use xlink:href="#p0" content="2,温泉保健施設えがおの丘診療所,秋田県横手市雄物川町今宿末館５７-１,整形外科,,,9" xlink:title="温泉保健施設えがおの丘診療所" transform="ref(svg,14040.2857,-3928.1822)" x="0" y="0"/>
<use xlink:href="#p0" content="2,（特養）雄水苑診療所,秋田県横手市雄物川町今宿末館５０,内科,,,9" xlink:title="（特養）雄水苑診療所" transform="ref(svg,14040.3676,-3928.4464)" x="0" y="0"/>
<use xlink:href="#p0" content="2,佐々木医院分院,秋田県横手市雄物川町沼館宮の目１８３-１,小児科　内科　皮膚科,,,9" xlink:title="佐々木医院分院" transform="ref(svg,14043.0614,-3930.0843)" x="0" y="0"/>
<use xlink:href="#p0" content="2,佐々木医院,秋田県横手市雄物川町沼館２３６,小児科　内科　皮膚科,,,9" xlink:title="佐々木医院" transform="ref(svg,14042.8262,-3929.6511)" x="0" y="0"/>
<use xlink:href="#p0" content="2,横手市雄物川町大沢診療所,秋田県横手市雄物川町大沢大沢１８２,内科,,,9" xlink:title="横手市雄物川町大沢診療所" transform="ref(svg,14038.602,-3927.4448)" x="0" y="0"/>
<use xlink:href="#p0" content="2,渡邊医院,秋田県横手市大雄田根森東９４-３,胃腸科　外科　内科,,,9" xlink:title="渡邊医院" transform="ref(svg,14048.846,-3933.2583)" x="0" y="0"/>
<use xlink:href="#p0" content="2,（特養）すこやか大雄,秋田県横手市大雄八柏谷地１０３-１,内科,,,9" xlink:title="（特養）すこやか大雄" transform="ref(svg,14049.4793,-3932.331)" x="0" y="0"/>
<use xlink:href="#p0" content="2,下田医院,秋田県横手市大雄阿気５-１,内科,,,9" xlink:title="下田医院" transform="ref(svg,14045.35,-3934.4437)" x="0" y="0"/>
<use xlink:href="#p0" content="2,（福）ファミリーケアサービス（特養）すこやか館合診療所,秋田県横手市雄物川町薄井新城７-２,内科,,,9" xlink:title="（福）ファミリーケアサービス（特養）すこやか館合診療所" transform="ref(svg,14044.6056,-3932.5197)" x="0" y="0"/>
<use xlink:href="#p0" content="2,（医）義業会曽根医院,秋田県横手市大森町袴形西神成７-２,外科　消化器内科（胃腸内科）　内科　肛門外科,,,9" xlink:title="（医）義業会曽根医院" transform="ref(svg,14044.6132,-3937.3)" x="0" y="0"/>
<use xlink:href="#p0" content="2,阿部医院,秋田県横手市大森町大森２６４,内科,,,9" xlink:title="阿部医院" transform="ref(svg,14042.6321,-3934.4881)" x="0" y="0"/>
<use xlink:href="#p0" content="2,横手市（特養）白寿園診療所,秋田県横手市大森町菅生田２４５-２７,神経内科　内科,,,9" xlink:title="横手市（特養）白寿園診療所" transform="ref(svg,14041.4243,-3934.7551)" x="0" y="0"/>
<use xlink:href="#p0" content="2,秋田県南部老人福祉総合エリア養護老人ホーム医務室,秋田県横手市大森町菅生田２４５-３４,内科,,,9" xlink:title="秋田県南部老人福祉総合エリア養護老人ホーム医務室" transform="ref(svg,14041.4862,-3934.9445)" x="0" y="0"/>
<use xlink:href="#p0" content="2,養護老人ホーム映月荘,秋田県横手市上境館１３３-５,内科,,,9" xlink:title="養護老人ホーム映月荘" transform="ref(svg,14053.6861,-3934.5871)" x="0" y="0"/>
<use xlink:href="#p0" content="2,（特養）ビハーラ横手診療所,秋田県横手市上境谷地中１３９,内科,,,9" xlink:title="（特養）ビハーラ横手診療所" transform="ref(svg,14052.8135,-3934.2377)" x="0" y="0"/>
<use xlink:href="#p0" content="2,日立オートモティブシステムズステアリング（株）診療所,秋田県横手市安本下御所野１-２,内科,,,9" xlink:title="日立オートモティブシステムズステアリング（株）診療所" transform="ref(svg,14054.954,-3935.3184)" x="0" y="0"/>
<use xlink:href="#p0" content="2,（医）阿部耳鼻咽喉科医院,秋田県横手市十文字町西原２番町１-４,耳鼻咽喉科,,,9" xlink:title="（医）阿部耳鼻咽喉科医院" transform="ref(svg,14052.7828,-3922.6848)" x="0" y="0"/>
<use xlink:href="#p0" content="2,高橋整形外科,秋田県横手市十文字町西原１番町４７-２,リハビリテーション科　整形外科,,,9" xlink:title="高橋整形外科" transform="ref(svg,14052.7166,-3922.6365)" x="0" y="0"/>
<use xlink:href="#p0" content="2,（医）岡田小児科医院,秋田県横手市十文字町西原１番町５１-２,小児科,,,9" xlink:title="（医）岡田小児科医院" transform="ref(svg,14052.7752,-3922.6041)" x="0" y="0"/>
<use xlink:href="#p0" content="2,聖愛内科胃腸科クリニック,秋田県横手市十文字町仁井田東３７-２,消化器内科（胃腸内科）　内科,,,9" xlink:title="聖愛内科胃腸科クリニック" transform="ref(svg,14051.9246,-3921.7953)" x="0" y="0"/>
<use xlink:href="#p0" content="2,（医）高橋医院高橋医院,秋田県横手市十文字町仁井田東５５-３,消化器内科　糖尿病内科（代謝内科）　内科,,,9" xlink:title="（医）高橋医院高橋医院" transform="ref(svg,14052.0997,-3921.9544)" x="0" y="0"/>
<use xlink:href="#p0" content="2,渡部医院,秋田県横手市十文字町佐賀会下沖田１７-２,リウマチ科　リハビリテーション科　整形外科,,,9" xlink:title="渡部医院" transform="ref(svg,14052.0108,-3921.971)" x="0" y="0"/>
<use xlink:href="#p0" content="2,（特養）憩寿園診療所,秋田県横手市十文字町梨木御休ノ上１０８,内科,,,9" xlink:title="（特養）憩寿園診療所" transform="ref(svg,14052.378,-3923.7634)" x="0" y="0"/>
<use xlink:href="#p0" content="2,（特養）花むつみ診療所,秋田県横手市十文字町睦合川井川４７,内科,,,9" xlink:title="（特養）花むつみ診療所" transform="ref(svg,14044.9028,-3923.1851)" x="0" y="0"/>
<use xlink:href="#p0" content="2,石川医院,秋田県横手市十文字町通町２-３,内科,,,9" xlink:title="石川医院" transform="ref(svg,14052.4822,-3922.1112)" x="0" y="0"/>
<use xlink:href="#p0" content="2,（医）白鳥会井田内科胃腸科医院,秋田県横手市十文字町海道下１２１-４,消化器内科（胃腸内科）　内科,,,9" xlink:title="（医）白鳥会井田内科胃腸科医院" transform="ref(svg,14051.8562,-3922.8652)" x="0" y="0"/>
<use xlink:href="#p0" content="2,横手市（特養）シルバードームいきいきの郷診療所,秋田県横手市増田町増田七日町１７７,内科,,,9" xlink:title="横手市（特養）シルバードームいきいきの郷診療所" transform="ref(svg,14054.9268,-3920.3244)" x="0" y="0"/>
<use xlink:href="#p0" content="2,下田内科消化器科医院,秋田県横手市増田町増田字石神５５-２,内科,,,9" xlink:title="下田内科消化器科医院" transform="ref(svg,14054.0356,-3920.1393)" x="0" y="0"/>
<use xlink:href="#p0" content="2,横手市増田町診療所,秋田県横手市増田町増田中町９５,耳鼻いんこう科,,,9" xlink:title="横手市増田町診療所" transform="ref(svg,14054.6564,-3920.4129)" x="0" y="0"/>
<use xlink:href="#p0" content="2,（医）桃雲堂高橋医院,秋田県横手市増田町増田本町４９-１,内科,,,9" xlink:title="（医）桃雲堂高橋医院" transform="ref(svg,14054.2281,-3920.4371)" x="0" y="0"/>
<use xlink:href="#p0" content="2,上平野沢診療所,秋田県横手市山内平野沢田野沢６３-３,外科　小児科　内科,,,9" xlink:title="上平野沢診療所" transform="ref(svg,14062.2018,-3925.0185)" x="0" y="0"/>
<use xlink:href="#p0" content="2,武道診療所,秋田県横手市山内平野沢武道１０１-１,外科　小児科　内科,,,9" xlink:title="武道診療所" transform="ref(svg,14061.6195,-3923.3782)" x="0" y="0"/>
<use xlink:href="#p0" content="2,横手市（特養）鶴寿苑診療所,秋田県横手市山内土渕鶴ケ池３１-３,内科,,,9" xlink:title="横手市（特養）鶴寿苑診療所" transform="ref(svg,14062.0525,-3928.2315)" x="0" y="0"/>
<use xlink:href="#p0" content="2,横手市山内診療所,秋田県横手市山内平野沢相野々３-１,内科,,,9" xlink:title="横手市山内診療所" transform="ref(svg,14062.0222,-3927.6341)" x="0" y="0"/>
<use xlink:href="#p0" content="2,伊藤小児科・内科医院,秋田県横手市婦気大堤字谷地添５-１,アレルギー科　循環器内科　小児科　内科,,,9" xlink:title="伊藤小児科・内科医院" transform="ref(svg,14055.3318,-3930.789)" x="0" y="0"/>
<use xlink:href="#p0" content="2,スギ眼科クリニック,秋田県横手市十文字町本町１３-６,眼科,,,9" xlink:title="スギ眼科クリニック" transform="ref(svg,14052.337,-3922.188)" x="0" y="0"/>
<use xlink:href="#p0" content="2,（特養）悠西苑,秋田県横手市平鹿町浅舞字新堀１４６,内科,,,9" xlink:title="（特養）悠西苑" transform="ref(svg,14048.4971,-3926.8309)" x="0" y="0"/>
<use xlink:href="#p0" content="2,（特養）ビハーラ赤坂診療所,秋田県横手市赤坂字仁坂１０５-２,内科,,,9" xlink:title="（特養）ビハーラ赤坂診療所" transform="ref(svg,14053.3212,-3929.755)" x="0" y="0"/>
<use xlink:href="#p0" content="2,（医）尚仁会松田記念泌尿器科クリニック,秋田県湯沢市森大島３４-１,泌尿器科　泌尿器科（人工透析）,,,9" xlink:title="（医）尚仁会松田記念泌尿器科クリニック" transform="ref(svg,14048.5291,-3918.0547)" x="0" y="0"/>
<use xlink:href="#p0" content="2,たかはし内科ひだまりクリニック,秋田県湯沢市大島８９-２,内科,,,9" xlink:title="たかはし内科ひだまりクリニック" transform="ref(svg,14048.6005,-3917.7075)" x="0" y="0"/>
<use xlink:href="#p0" content="2,（医）暁星会ゆざわ眼科医院,秋田県湯沢市鶴館７０-３,眼科,,,9" xlink:title="（医）暁星会ゆざわ眼科医院" transform="ref(svg,14048.4767,-3917.2298)" x="0" y="0"/>
<use xlink:href="#p0" content="2,（医）黎明会みたに小児科医院,秋田県湯沢市両神５９-１,小児科,,,9" xlink:title="（医）黎明会みたに小児科医院" transform="ref(svg,14047.9227,-3917.2439)" x="0" y="0"/>
<use xlink:href="#p0" content="2,池田産婦人科クリニック,秋田県湯沢市両神１４２-３,産婦人科　内科,,,9" xlink:title="池田産婦人科クリニック" transform="ref(svg,14047.6363,-3917.3582)" x="0" y="0"/>
<use xlink:href="#p0" content="2,佐藤外科胃腸科,秋田県湯沢市沖鶴１６７-２,胃腸科　外科　内科　肛門科,,,9" xlink:title="佐藤外科胃腸科" transform="ref(svg,14047.7919,-3917.3627)" x="0" y="0"/>
<use xlink:href="#p0" content="2,（医）湯沢内科循環器科クリニック,秋田県湯沢市沖鶴２１５-１,呼吸器科　循環器科　内科,,,9" xlink:title="（医）湯沢内科循環器科クリニック" transform="ref(svg,14047.629,-3917.4231)" x="0" y="0"/>
<use xlink:href="#p0" content="2,大沼整形外科クリニック,秋田県湯沢市中野１８２-１,整形外科,,,9" xlink:title="大沼整形外科クリニック" transform="ref(svg,14048.2262,-3916.0638)" x="0" y="0"/>
<use xlink:href="#p0" content="2,後藤医院,秋田県湯沢市中野１８１-１,消化器内科（胃腸内科）　糖尿病内科（代謝内科）　内科,,,9" xlink:title="後藤医院" transform="ref(svg,14048.2393,-3916.0377)" x="0" y="0"/>
<use xlink:href="#p0" content="2,（特養）いさみが岡,秋田県湯沢市山田勇ヶ岡５０,内科,,,9" xlink:title="（特養）いさみが岡" transform="ref(svg,14045.3119,-3914.4735)" x="0" y="0"/>
<use xlink:href="#p0" content="2,（特養）健寿苑診療所,秋田県湯沢市駒形町八面寺下谷地７５-４,呼吸器科　循環器科　内科,,,9" xlink:title="（特養）健寿苑診療所" transform="ref(svg,14054.4891,-3916.0334)" x="0" y="0"/>
<use xlink:href="#p0" content="2,七山医院,秋田県湯沢市川連町野村２１-２,小児科　内科,,,9" xlink:title="七山医院" transform="ref(svg,14056.7768,-3915.3838)" x="0" y="0"/>
<use xlink:href="#p0" content="2,菅クリニック,秋田県湯沢市三梨町下宿５８-１,消化器内科　内科,,,9" xlink:title="菅クリニック" transform="ref(svg,14057.6004,-3914.4796)" x="0" y="0"/>
<use xlink:href="#p0" content="2,湯沢市立皆瀬診療所,秋田県湯沢市皆瀬下菅生１０,小児科　整形外科　内科,,,9" xlink:title="湯沢市立皆瀬診療所" transform="ref(svg,14058.9001,-3907.8162)" x="0" y="0"/>
<use xlink:href="#p0" content="2,（特養）シャイントピアみなせ,秋田県湯沢市皆瀬小野１８８-１,内科,,,9" xlink:title="（特養）シャイントピアみなせ" transform="ref(svg,14058.9571,-3907.4401)" x="0" y="0"/>
<use xlink:href="#p0" content="2,秋田県湯沢保健所,秋田県湯沢市千石町２-１-１０,内科,,,9" xlink:title="秋田県湯沢保健所" transform="ref(svg,14048.7344,-3915.5713)" x="0" y="0"/>
<use xlink:href="#p0" content="2,（医）久保胃腸科内科医院,秋田県湯沢市前森３-３-１８,胃腸科内科,,,9" xlink:title="（医）久保胃腸科内科医院" transform="ref(svg,14049.1499,-3917.0239)" x="0" y="0"/>
<use xlink:href="#p0" content="2,湯沢医院,秋田県湯沢市佐竹町３-２２,リハビリテーション科　整形外科　内科,,,9" xlink:title="湯沢医院" transform="ref(svg,14049.3158,-3916.3109)" x="0" y="0"/>
<use xlink:href="#p0" content="2,守口耳鼻咽喉科医院,秋田県湯沢市佐竹町５-２３,耳鼻いんこう科　小児耳鼻いんこう科,,,9" xlink:title="守口耳鼻咽喉科医院" transform="ref(svg,14049.7634,-3916.4525)" x="0" y="0"/>
<use xlink:href="#p0" content="2,湯沢雄勝広域市町村圏組合（特養）診療所,秋田県湯沢市裏門１-２-１９,内科,,,9" xlink:title="湯沢雄勝広域市町村圏組合（特養）診療所" transform="ref(svg,14050.181,-3916.4115)" x="0" y="0"/>
<use xlink:href="#p0" content="2,（医）松清会まつした医院,秋田県湯沢市北荒町３-１,循環器内科　小児科　内科,,,9" xlink:title="（医）松清会まつした医院" transform="ref(svg,14049.3999,-3916.4995)" x="0" y="0"/>
<use xlink:href="#p0" content="2,山本内科医院,秋田県湯沢市表町２-３-７,糖尿病内科（代謝内科）　内科,,,9" xlink:title="山本内科医院" transform="ref(svg,14048.8063,-3916.3841)" x="0" y="0"/>
<use xlink:href="#p0" content="2,（医）小野崎医院,秋田県湯沢市表町３-１-２９,外科　消化器内科（胃腸内科）　皮膚科,,,9" xlink:title="（医）小野崎医院" transform="ref(svg,14049.0789,-3916.6922)" x="0" y="0"/>
<use xlink:href="#p0" content="2,秋山クリニック,秋田県湯沢市表町４-１１-１６,産婦人科　心療内科　内科,,,9" xlink:title="秋山クリニック" transform="ref(svg,14048.8856,-3916.9604)" x="0" y="0"/>
<use xlink:href="#p0" content="2,石岡胃腸科クリニック,秋田県湯沢市表町４-１０-２６,小児科　消化器内科（胃腸内科）　内科,,,9" xlink:title="石岡胃腸科クリニック" transform="ref(svg,14048.929,-3916.8977)" x="0" y="0"/>
<use xlink:href="#p0" content="2,小川医院,秋田県湯沢市田町２-１-９,呼吸器内科　循環器内科　内科,,,9" xlink:title="小川医院" transform="ref(svg,14049.1534,-3916.0246)" x="0" y="0"/>
<use xlink:href="#p0" content="2,（医）斉藤内科皮膚科,秋田県湯沢市愛宕町３-１１-３７,循環器内科　内科　皮膚科,,,9" xlink:title="（医）斉藤内科皮膚科" transform="ref(svg,14049.0669,-3914.806)" x="0" y="0"/>
<use xlink:href="#p0" content="2,高橋胃腸科クリニック,秋田県湯沢市千石町２-１-７,消化器内科,,,9" xlink:title="高橋胃腸科クリニック" transform="ref(svg,14048.905,-3915.6041)" x="0" y="0"/>
<use xlink:href="#p0" content="2,湯沢雄勝広域市町村圏組合養護老人ホーム愛宕荘診療所,秋田県湯沢市関口石田１０８,内科,,,9" xlink:title="湯沢雄勝広域市町村圏組合養護老人ホーム愛宕荘診療所" transform="ref(svg,14048.6259,-3913.9257)" x="0" y="0"/>
<use xlink:href="#p0" content="2,障がい者支援施設愛光園,秋田県湯沢市寺沢段ノ上４-５,外科　内科　泌尿器科,,,9" xlink:title="障がい者支援施設愛光園" transform="ref(svg,14045.7427,-3903.0149)" x="0" y="0"/>
<use xlink:href="#p0" content="2,（医）せいとく会菅医院,秋田県湯沢市小野東堺７７-１,外科　内科　泌尿器科　婦人科,,,9" xlink:title="（医）せいとく会菅医院" transform="ref(svg,14045.4399,-3906.4886)" x="0" y="0"/>
<use xlink:href="#p0" content="2,（特養）平成園,秋田県湯沢市小野大沢田２２１,消化器内科（胃腸内科）　内科,,,9" xlink:title="（特養）平成園" transform="ref(svg,14045.9251,-3905.7676)" x="0" y="0"/>
<use xlink:href="#p0" content="2,高橋内科医院,秋田県湯沢市小野東堺４８-３,胃腸内科　内科,,,9" xlink:title="高橋内科医院" transform="ref(svg,14045.4151,-3906.3459)" x="0" y="0"/>
<use xlink:href="#p0" content="2,（特養）松喬苑,秋田県雄勝郡羽後町林崎五林坂７,内科,,,9" xlink:title="（特養）松喬苑" transform="ref(svg,14039.3995,-3921.6149)" x="0" y="0"/>
<use xlink:href="#p0" content="2,（医）みわ内科クリニック,秋田県雄勝郡羽後町貝沢稲荷２３-９,呼吸器内科　循環器内科　内科,,,9" xlink:title="（医）みわ内科クリニック" transform="ref(svg,14043.9631,-3919.2606)" x="0" y="0"/>
<use xlink:href="#p0" content="2,鳥居クリニック,秋田県雄勝郡羽後町貝沢外鳥居１２-１,内科,,,9" xlink:title="鳥居クリニック" transform="ref(svg,14043.4975,-3919.176)" x="0" y="0"/>
<use xlink:href="#p0" content="2,（医）神馬医院,秋田県雄勝郡羽後町西馬音内中野１３１,外科　小児科　消化器内科　内科　肛門外科,,,9" xlink:title="（医）神馬医院" transform="ref(svg,14041.1694,-3919.9303)" x="0" y="0"/>
<use xlink:href="#p0" content="2,（特養）ひまわり苑,秋田県雄勝郡羽後町西馬音内中野１９-３９,内科,,,9" xlink:title="（特養）ひまわり苑" transform="ref(svg,14041.0629,-3919.7534)" x="0" y="0"/>
<use xlink:href="#p0" content="2,（特養）たかせ,秋田県雄勝郡羽後町下仙道風平９７-１,内科,,,9" xlink:title="（特養）たかせ" transform="ref(svg,14031.9987,-3916.8976)" x="0" y="0"/>
<use xlink:href="#p0" content="2,小内医院,山形県新庄市鉄砲町７-２８,外科,,,9" xlink:title="小内医院" transform="ref(svg,14030.0295,-3875.9885)" x="0" y="0"/>
<use xlink:href="#p0" content="2,新庄市立神室荘診療所,山形県新庄市十日町１３１９,内科,,,9" xlink:title="新庄市立神室荘診療所" transform="ref(svg,14031.1593,-3878.8935)" x="0" y="0"/>
<use xlink:href="#p0" content="2,廣野医院,山形県新庄市下金沢町５-３３,内科　循環器科　小児科　神経科,,,9" xlink:title="廣野医院" transform="ref(svg,14030.2965,-3875.4698)" x="0" y="0"/>
<use xlink:href="#p0" content="2,渡部外科胃腸科医院,山形県新庄市五日町７２０-２,胃腸科　外科　皮膚科　泌尿器科　こう門科,,,9" xlink:title="渡部外科胃腸科医院" transform="ref(svg,14029.3247,-3875.9179)" x="0" y="0"/>
<use xlink:href="#p0" content="2,山科内科医院,山形県新庄市小田島町５-３３,内科　胃腸科　循環器科,,,9" xlink:title="山科内科医院" transform="ref(svg,14029.6895,-3876.5857)" x="0" y="0"/>
<use xlink:href="#p0" content="2,（特養）新寿荘,山形県新庄市大字本合海字福田界２６４５,内科,,,9" xlink:title="（特養）新寿荘" transform="ref(svg,14026.6183,-3874.1767)" x="0" y="0"/>
<use xlink:href="#p0" content="2,障がい者支援施設光生園診療所,山形県最上郡舟形町舟形２３８７-１,内科　外科,,,9" xlink:title="障がい者支援施設光生園診療所" transform="ref(svg,14029.907,-3868.8844)" x="0" y="0"/>
<use xlink:href="#p0" content="2,（福）山形県社会福祉事業団福寿荘診療所,山形県最上郡真室川町大字木ノ下１１０１-１,内科,,,9" xlink:title="（福）山形県社会福祉事業団福寿荘診療所" transform="ref(svg,14024.0446,-3886.3653)" x="0" y="0"/>
<use xlink:href="#p0" content="2,真室川町立釜渕診療所,山形県最上郡真室川町大字釜渕８１８-１,内科　整形外科,,,9" xlink:title="真室川町立釜渕診療所" transform="ref(svg,14026.7345,-3893.4689)" x="0" y="0"/>
<use xlink:href="#p0" content="2,姉崎外科内科医院,山形県最上郡真室川町大字新町１２５-３,内科　胃腸科　小児科　外科　整形外科　泌尿器科,,,9" xlink:title="姉崎外科内科医院" transform="ref(svg,14025.287,-3885.7065)" x="0" y="0"/>
<use xlink:href="#p0" content="2,佐藤医院,山形県最上郡鮭川村大字佐渡８３５,内科　外科,,,9" xlink:title="佐藤医院" transform="ref(svg,14022.1567,-3879.5415)" x="0" y="0"/>
<use xlink:href="#p0" content="2,新庄整形外科医院,山形県新庄市城西町４-３２,整形外科,,,9" xlink:title="新庄整形外科医院" transform="ref(svg,14029.0089,-3876.4561)" x="0" y="0"/>
<use xlink:href="#p0" content="2,障害者支援施設清流園診療所,山形県最上郡戸沢村大字蔵岡字上ノ山３７１８,内科　精神科　歯科,,,9" xlink:title="障害者支援施設清流園診療所" transform="ref(svg,14017.4779,-3873.3657)" x="0" y="0"/>
<use xlink:href="#p0" content="2,（公財）やまがた健康推進機構最上検診センター,山形県新庄市大手町２-４９,内科　呼吸器科　消化器科　循環器科　外科　婦人科,,,9" xlink:title="（公財）やまがた健康推進機構最上検診センター" transform="ref(svg,14029.8106,-3876.8184)" x="0" y="0"/>
<use xlink:href="#p0" content="2,戸沢村中央診療所,山形県最上郡戸沢村大字古口２６６４-５,内科,,,9" xlink:title="戸沢村中央診療所" transform="ref(svg,14014.1978,-3873.7547)" x="0" y="0"/>
<use xlink:href="#p0" content="2,三條医院,山形県新庄市大手町５-１１,内科　小児科　心療内科　産婦人科,,,9" xlink:title="三條医院" transform="ref(svg,14029.9037,-3876.8418)" x="0" y="0"/>
<use xlink:href="#p0" content="2,知的障害者更生施設最上ふれあい学園診療所医務室,山形県最上郡最上町大字富沢４４６７,内科　精神科,,,9" xlink:title="知的障害者更生施設最上ふれあい学園診療所医務室" transform="ref(svg,14055.3755,-3872.0909)" x="0" y="0"/>
<use xlink:href="#p0" content="2,大蔵村診療所,山形県最上郡大蔵村大字清水２３２５-３,内科　外科　歯科,,,9" xlink:title="大蔵村診療所" transform="ref(svg,14023.0427,-3870.379)" x="0" y="0"/>
<use xlink:href="#p0" content="2,山口皮膚科診療所,山形県新庄市堀端町７-７８,皮膚科,,,9" xlink:title="山口皮膚科診療所" transform="ref(svg,14029.2003,-3876.679)" x="0" y="0"/>
<use xlink:href="#p0" content="2,（特養）翠明荘診療所,山形県最上郡大蔵村大字清水３１３７-６０,内科　精神科,,,9" xlink:title="（特養）翠明荘診療所" transform="ref(svg,14023.2496,-3869.4706)" x="0" y="0"/>
<use xlink:href="#p0" content="2,みすぎ荘診療所,山形県最上郡金山町大字金山字荒屋８２９-１,内科,,,9" xlink:title="みすぎ荘診療所" transform="ref(svg,14031.7889,-3887.7759)" x="0" y="0"/>
<use xlink:href="#p0" content="2,鈴木整形外科医院,山形県新庄市金沢字下田２３９４-１,整形外科,,,9" xlink:title="鈴木整形外科医院" transform="ref(svg,14029.8181,-3875.85)" x="0" y="0"/>
<use xlink:href="#p0" content="2,若狭眼科,山形県新庄市金沢２８８２-１,眼科,,,9" xlink:title="若狭眼科" transform="ref(svg,14031.1394,-3875.6503)" x="0" y="0"/>
<use xlink:href="#p0" content="2,内科皮ふ科小児科ふなしん,山形県最上郡舟形町舟形３６５-１５,内科　小児科　皮膚科,,,9" xlink:title="内科皮ふ科小児科ふなしん" transform="ref(svg,14031.6357,-3869.1958)" x="0" y="0"/>
<use xlink:href="#p0" content="2,（福）舟和会えんじゅ荘診療所,山形県最上郡舟形町長者原１７１２-１,内科　皮膚科,,,9" xlink:title="（福）舟和会えんじゅ荘診療所" transform="ref(svg,14029.925,-3870.0073)" x="0" y="0"/>
<use xlink:href="#p0" content="2,（医）土田医院,山形県新庄市桧町１８-２,内科　胃腸科　小児科,,,9" xlink:title="（医）土田医院" transform="ref(svg,14029.51,-3877.2857)" x="0" y="0"/>
<use xlink:href="#p0" content="2,（特養）ひめゆり荘,山形県最上郡鮭川村大字石名坂５８９-７,内科　精神科　神経科,,,9" xlink:title="（特養）ひめゆり荘" transform="ref(svg,14028.7418,-3883.5377)" x="0" y="0"/>
<use xlink:href="#p0" content="2,きねぶち医院,山形県新庄市十日町２７６４-１,内科　胃腸科　小児科　外科,,,9" xlink:title="きねぶち医院" transform="ref(svg,14028.8175,-3876.8541)" x="0" y="0"/>
<use xlink:href="#p0" content="2,三條クリニック,山形県新庄市桧町１０-７,皮膚科　泌尿器科,,,9" xlink:title="三條クリニック" transform="ref(svg,14029.4436,-3877.2213)" x="0" y="0"/>
<use xlink:href="#p0" content="2,（特養）まごころ荘,山形県最上郡戸沢村大字蔵岡字野中沢前山２７５９,内科　精神科,,,9" xlink:title="（特養）まごころ荘" transform="ref(svg,14017.4303,-3873.4985)" x="0" y="0"/>
<use xlink:href="#p0" content="2,永井医院,山形県最上郡最上町向町５３６-９,内科　循環器科　小児科　整形外科,,,9" xlink:title="永井医院" transform="ref(svg,14051.5059,-3876.0433)" x="0" y="0"/>
<use xlink:href="#p0" content="2,真室川町立及位診療所,山形県最上郡真室川町大字及位４２４-１９,内科,,,9" xlink:title="真室川町立及位診療所" transform="ref(svg,14036.052,-3897.9057)" x="0" y="0"/>
<use xlink:href="#p0" content="2,（医）こくの医院,山形県新庄市大字泉田字泉田１０-１,内科　消化器科　外科,,,9" xlink:title="（医）こくの医院" transform="ref(svg,14032.2816,-3881.0555)" x="0" y="0"/>
<use xlink:href="#p0" content="2,東山整形外科クリニック,山形県新庄市東谷地田町５-７,リウマチ科　整形外科　リハビリテーション科,,,9" xlink:title="東山整形外科クリニック" transform="ref(svg,14031.2669,-3875.6878)" x="0" y="0"/>
<use xlink:href="#p0" content="2,（特養）悠悠,山形県最上郡真室川町大字新町４６９-５,内科　整形外科,,,9" xlink:title="（特養）悠悠" transform="ref(svg,14024.7651,-3885.1307)" x="0" y="0"/>
<use xlink:href="#p0" content="2,阿部内科・循環器科クリニック,山形県新庄市大字泉田字泉田４６５,内科　循環器科　小児科　リハビリテーション科,,,9" xlink:title="阿部内科・循環器科クリニック" transform="ref(svg,14032.2757,-3880.7031)" x="0" y="0"/>
<use xlink:href="#p0" content="2,新庄クリニック,山形県新庄市末広町８-２３,内科　泌尿器科,,,9" xlink:title="新庄クリニック" transform="ref(svg,14030.5044,-3875.6408)" x="0" y="0"/>
<use xlink:href="#p0" content="2,（医）慈心会新庄井出眼科,山形県新庄市沖の町３-３,眼科,,,9" xlink:title="（医）慈心会新庄井出眼科" transform="ref(svg,14030.3983,-3876.2257)" x="0" y="0"/>
<use xlink:href="#p0" content="2,（特養）かつろくの里,山形県新庄市金沢字西ノ山３０２７-１０,内科,,,9" xlink:title="（特養）かつろくの里" transform="ref(svg,14033.5085,-3876.9466)" x="0" y="0"/>
<use xlink:href="#p0" content="2,東山内科クリニック,山形県新庄市東谷地田町２-６,内科　消化器科　小児科,,,9" xlink:title="東山内科クリニック" transform="ref(svg,14031.4738,-3875.7122)" x="0" y="0"/>
<use xlink:href="#p0" content="2,姉崎医院,山形県最上郡真室川町大字大沢８１３,内科　小児科　婦人科,,,9" xlink:title="姉崎医院" transform="ref(svg,14021.2784,-3888.9658)" x="0" y="0"/>
<use xlink:href="#p0" content="2,新庄市夜間休日診療所,山形県新庄市堀端町３-３３,内科　小児科,,,9" xlink:title="新庄市夜間休日診療所" transform="ref(svg,14029.5939,-3876.6109)" x="0" y="0"/>
<use xlink:href="#p0" content="2,よしだ耳鼻咽喉科クリニック,山形県新庄市桧町２１-２,アレルギー科　耳鼻いんこう科,,,9" xlink:title="よしだ耳鼻咽喉科クリニック" transform="ref(svg,14029.4329,-3877.3238)" x="0" y="0"/>
<use xlink:href="#p0" content="2,ふくい整形外科,山形県新庄市大字松本４９２,整形外科,,,9" xlink:title="ふくい整形外科" transform="ref(svg,14028.9835,-3874.8498)" x="0" y="0"/>
<use xlink:href="#p0" content="2,栄町耳鼻咽喉科クリニック,山形県新庄市栄町６-６,耳鼻いんこう科,,,9" xlink:title="栄町耳鼻咽喉科クリニック" transform="ref(svg,14029.568,-3875.9418)" x="0" y="0"/>
<use xlink:href="#p0" content="2,丸橋内科クリニック,山形県新庄市栄町６-１,内科,,,9" xlink:title="丸橋内科クリニック" transform="ref(svg,14029.5281,-3875.9349)" x="0" y="0"/>
<use xlink:href="#p0" content="2,町立金山診療所,山形県最上郡金山町大字金山５４８-２,内科　小児科　外科　整形外科,,,9" xlink:title="町立金山診療所" transform="ref(svg,14033.2639,-3887.9368)" x="0" y="0"/>
<use xlink:href="#p0" content="2,東山内科クリニック分院こらっせ診療所,山形県新庄市本町４-３３こらっせ新庄２Ｆ,内科　小児科,,,9" xlink:title="東山内科クリニック分院こらっせ診療所" transform="ref(svg,14030.0855,-3876.7022)" x="0" y="0"/>
<use xlink:href="#p0" content="2,須藤医院,山形県新庄市沖の町１０-２２,内科　小児科,,,9" xlink:title="須藤医院" transform="ref(svg,14030.1104,-3876.409)" x="0" y="0"/>
<use xlink:href="#p0" content="2,（特養）紅梅荘診療所,山形県最上郡最上町大字向町７３-３,内科　精神科,,,9" xlink:title="（特養）紅梅荘診療所" transform="ref(svg,14051.7215,-3875.9863)" x="0" y="0"/>
<use xlink:href="#p0" content="2,香音クリニック,山形県新庄市大手町２-２９,内科　リウマチ科　形成外科,,,9" xlink:title="香音クリニック" transform="ref(svg,14029.7609,-3876.7196)" x="0" y="0"/>
<use xlink:href="#p0" content="2,桜クリニック,山形県最上郡金山町大字金山３２８-１,内科,,,9" xlink:title="桜クリニック" transform="ref(svg,14034.0184,-3888.4709)" x="0" y="0"/>
<use xlink:href="#p0" content="2,奥山医院,山形県東田川郡庄内町狩川字小野里１１７,内科　消化器科　循環器科　外科,,,9" xlink:title="奥山医院" transform="ref(svg,13997.2601,-3879.3999)" x="0" y="0"/>
<use xlink:href="#p0" content="2,成澤医院,山形県東田川郡庄内町清川字腹巻野４５-１,内科　胃腸科　外科,,,9" xlink:title="成澤医院" transform="ref(svg,14002.5192,-3878.3492)" x="0" y="0"/>
<use xlink:href="#p0" content="2,余目診療所,山形県東田川郡庄内町前田野目字前割１４９,内科　小児科　皮膚科,,,9" xlink:title="余目診療所" transform="ref(svg,13993.0395,-3880.1881)" x="0" y="0"/>
<use xlink:href="#p0" content="2,酒田市立升田診療所,山形県酒田市升田字東向１６,内科,,,9" xlink:title="酒田市立升田診療所" transform="ref(svg,14004.5184,-3899.941)" x="0" y="0"/>
<use xlink:href="#p0" content="2,（特養）幸楽荘診療所,山形県酒田市小泉字前田５０,内科,,,9" xlink:title="（特養）幸楽荘診療所" transform="ref(svg,13993.5268,-3896.9399)" x="0" y="0"/>
<use xlink:href="#p0" content="2,酒田市立青沢診療所,山形県酒田市北青沢字家ノ前２８０,内科,,,9" xlink:title="酒田市立青沢診療所" transform="ref(svg,14004.7182,-3896.7525)" x="0" y="0"/>
<use xlink:href="#p0" content="2,酒田市国民健康保険地見興屋診療所,山形県酒田市地見興屋字前割７-２,内科　外科,,,9" xlink:title="酒田市国民健康保険地見興屋診療所" transform="ref(svg,13999.6015,-3881.2525)" x="0" y="0"/>
<use xlink:href="#p0" content="2,（特養）寿康園診療所,山形県酒田市楢橋字大柳３-１,内科　精神科,,,9" xlink:title="（特養）寿康園診療所" transform="ref(svg,13995.0275,-3889.2325)" x="0" y="0"/>
<use xlink:href="#p0" content="2,（特養）山水園診療所,山形県東田川郡庄内町狩川字笠山４３３-３,内科　精神科　神経科,,,9" xlink:title="（特養）山水園診療所" transform="ref(svg,13996.8131,-3878.2399)" x="0" y="0"/>
<use xlink:href="#p0" content="2,阿部内科胃腸科医院,山形県東田川郡庄内町南野字南浦９５-１,内科　胃腸科,,,9" xlink:title="阿部内科胃腸科医院" transform="ref(svg,13994.028,-3881.3577)" x="0" y="0"/>
<use xlink:href="#p0" content="2,和光園診療所,山形県酒田市相沢字北森１５５,内科,,,9" xlink:title="和光園診療所" transform="ref(svg,13994.7381,-3887.8732)" x="0" y="0"/>
<use xlink:href="#p0" content="2,（特養）ソラーナ,山形県東田川郡庄内町南野字北野１００-２,内科,,,9" xlink:title="（特養）ソラーナ" transform="ref(svg,13994.2098,-3881.6028)" x="0" y="0"/>
<use xlink:href="#p0" content="2,酒田市国民健康保険松山診療所,山形県酒田市字西田８-１,内科　外科,,,9" xlink:title="酒田市国民健康保険松山診療所" transform="ref(svg,13995.5586,-3885.6901)" x="0" y="0"/>
<use xlink:href="#p0" content="2,（特養）さくらホーム,山形県酒田市中牧田字丸福１７１,内科,,,9" xlink:title="（特養）さくらホーム" transform="ref(svg,13993.9576,-3887.521)" x="0" y="0"/>
<use xlink:href="#p0" content="2,かみじ荘診療所,山形県鶴岡市羽黒町手向字薬師沢１９８-３,内科,,,9" xlink:title="かみじ荘診療所" transform="ref(svg,13994.1135,-3871.8079)" x="0" y="0"/>
<use xlink:href="#p0" content="2,最上保健所,山形県新庄市金沢字大道上２０３４,不明,,,9" xlink:title="最上保健所" transform="ref(svg,14030.7661,-3875.4267)" x="0" y="0"/>
</g>
</svg>
