<?xml version="1.0" encoding="UTF-8"?>
<svg  xmlns="http://www.w3.org/2000/svg" xmlns:xlink="http://www.w3.org/1999/xlink" xmlns:go="http://purl.org/svgmap/profile" property="医療機関分類,施設名称,所在地,診療科目１,診療科目２,診療科目３,開設者分類" viewBox="13394.53125 -3515.625 35.15625 35.15625" go:dataArea="13394.53125 -3515.625 35.15625 35.15625" >
<metadata>
 <rdf:RDF xmlns:rdf="http://www.w3.org/1999/02/22-rdf-syntax-ns#" xmlns:crs="http://opengis.org/xmldtds/transformations.dtd" xmlns:svg="http://www.w3.org/svg" >
  <rdf:Description>
   <crs:CoordinateReferenceSystem rdf:resource="http://purl.org/crs/84" svg:transform="matrix(100.0,0.0,0.0,-100.0,0.0,0.0)" />
  </rdf:Description>
 </rdf:RDF>
</metadata>
<globalCoordinateSystem srsName="http://purl.org/crs/84" transform="matrix(100.0,0.0,0.0,-100.0,0.0,0.0)" />
<defs>
 <g id="p0" >
  <image xlink:href="mappin.png" preserveAspectRatio="none" x="-8" y="-25" width="19" height="27"/>
 </g>
 <g id="p1" >
  <image xlink:href="mappin1.png" preserveAspectRatio="none" x="-8" y="-25" width="19" height="27"/>
 </g>
 <g id="p2" >
  <image xlink:href="mappin2.png" preserveAspectRatio="none" x="-8" y="-25" width="19" height="27"/>
 </g>
 <g id="p3" >
  <image xlink:href="mappin3.png" preserveAspectRatio="none" x="-8" y="-25" width="19" height="27"/>
 </g>
 <g id="p4" >
  <image xlink:href="mappin4.png" preserveAspectRatio="none" x="-8" y="-25" width="19" height="27"/>
 </g>
 <g id="p5" >
  <image xlink:href="mappin5.png" preserveAspectRatio="none" x="-8" y="-25" width="19" height="27"/>
 </g>
 <g id="p6" >
  <image xlink:href="mappin6.png" preserveAspectRatio="none" x="-8" y="-25" width="19" height="27"/>
 </g>
 <g id="p7" >
  <image xlink:href="mappin7.png" preserveAspectRatio="none" x="-8" y="-25" width="19" height="27"/>
 </g>
 <g id="p8" >
  <image xlink:href="mappin8.png" preserveAspectRatio="none" x="-8" y="-25" width="19" height="27"/>
 </g>
 <g id="p9" >
  <image xlink:href="mappin9.png" preserveAspectRatio="none" x="-8" y="-25" width="19" height="27"/>
 </g>
</defs>
<g fill="green" fill-rule="evenodd" >
<use xlink:href="#p0" content="2,江原内科医院,岡山県津山市昭和町１-１０,内科,,,9" xlink:title="江原内科医院" transform="ref(svg,13400.1291,-3505.5082)" x="0" y="0"/>
<use xlink:href="#p0" content="2,神尾内科医院,岡山県津山市河辺７７０,内科　胃腸科　循環器科（循環器内科）,,,9" xlink:title="神尾内科医院" transform="ref(svg,13405.0705,-3506.4164)" x="0" y="0"/>
<use xlink:href="#p0" content="2,淀川眼科医院,岡山県津山市南新座１０７-３,眼科,,,9" xlink:title="淀川眼科医院" transform="ref(svg,13399.6322,-3505.8302)" x="0" y="0"/>
<use xlink:href="#p0" content="2,（特養）亀楽荘医務室,岡山県備前市吉永町吉永中３６３,内科,,,9" xlink:title="（特養）亀楽荘医務室" transform="ref(svg,13420.8206,-3481.0987)" x="0" y="0"/>
<use xlink:href="#p0" content="2,たかばクリニック,岡山県備前市吉永町吉永中７６７-６,内科　小児科,,,9" xlink:title="たかばクリニック" transform="ref(svg,13420.2765,-3481.3723)" x="0" y="0"/>
<use xlink:href="#p0" content="2,備前市国民健康保険市立神根診療所,岡山県備前市吉永町神根本１６２-４,内科　外科　整形外科　耳鼻咽喉科,,,9" xlink:title="備前市国民健康保険市立神根診療所" transform="ref(svg,13423.8819,-3484.1863)" x="0" y="0"/>
<use xlink:href="#p0" content="2,備前市国民健康保険市立三国診療所,岡山県備前市吉永町都留岐３１９,内科　外科　整形外科　耳鼻咽喉科,,,9" xlink:title="備前市国民健康保険市立三国診療所" transform="ref(svg,13424.3589,-3489.2699)" x="0" y="0"/>
<use xlink:href="#p0" content="2,（特養）深谷荘医務室,岡山県備前市三石２７９１-１,内科,,,9" xlink:title="（特養）深谷荘医務室" transform="ref(svg,13427.9951,-3481.5753)" x="0" y="0"/>
<use xlink:href="#p0" content="2,渋藤医院,岡山県和気郡和気町父井原４３４-１,内科　小児科　皮膚科　リハビリテーション科,,,9" xlink:title="渋藤医院" transform="ref(svg,13409.3589,-3484.4868)" x="0" y="0"/>
<use xlink:href="#p0" content="2,（医）つるの里クリニック,岡山県和気郡和気町田賀４０-１,内科　リハビリテーション科,,,9" xlink:title="（医）つるの里クリニック" transform="ref(svg,13406.5514,-3483.9538)" x="0" y="0"/>
<use xlink:href="#p0" content="2,ひまわり園診療所（特養）,岡山県和気郡和気町和気町佐伯１５８,内科,,,9" xlink:title="ひまわり園診療所（特養）" transform="ref(svg,13409.2677,-3484.4881)" x="0" y="0"/>
<use xlink:href="#p0" content="2,障害者支援施設ぽれぽれ診療所,岡山県和気郡和気町小坂１２７３-７,内科,,,9" xlink:title="障害者支援施設ぽれぽれ診療所" transform="ref(svg,13403.9508,-3484.4571)" x="0" y="0"/>
<use xlink:href="#p0" content="2,和気町国民健康保険塩田診療所,岡山県和気郡和気町塩田６４４-１,内科,,,9" xlink:title="和気町国民健康保険塩田診療所" transform="ref(svg,13409.67,-3490.0395)" x="0" y="0"/>
<use xlink:href="#p0" content="2,和気町国民健康保険日笠診療所,岡山県和気郡和気町日笠上４０５,内科,,,9" xlink:title="和気町国民健康保険日笠診療所" transform="ref(svg,13416.3825,-3484.4118)" x="0" y="0"/>
<use xlink:href="#p0" content="2,和気広虫荘診療室,岡山県和気郡和気町和気１０８,内科,,,9" xlink:title="和気広虫荘診療室" transform="ref(svg,13414.499,-3480.6626)" x="0" y="0"/>
<use xlink:href="#p0" content="2,養護老人ホーム藤見苑医務室,岡山県和気郡和気町藤野１０２５,内科,,,9" xlink:title="養護老人ホーム藤見苑医務室" transform="ref(svg,13417.2251,-3482.0086)" x="0" y="0"/>
<use xlink:href="#p0" content="2,紅葉川荘医務室,岡山県備前市吉永町神根本６１-６,内科,,,9" xlink:title="紅葉川荘医務室" transform="ref(svg,13423.9596,-3484.3124)" x="0" y="0"/>
<use xlink:href="#p0" content="2,赤磐市国民健康保険是里診療所,岡山県赤磐市是里３１２１,内科,,,9" xlink:title="赤磐市国民健康保険是里診療所" transform="ref(svg,13404.767,-3492.8576)" x="0" y="0"/>
<use xlink:href="#p0" content="2,赤磐市国民健康保険佐伯北診療所,岡山県赤磐市塩木１４,内科　耳鼻咽喉科,,,9" xlink:title="赤磐市国民健康保険佐伯北診療所" transform="ref(svg,13406.4068,-3489.1243)" x="0" y="0"/>
<use xlink:href="#p0" content="2,（特養）パインスクエア医務室,岡山県赤磐市稲蒔１２２２,内科,,,9" xlink:title="（特養）パインスクエア医務室" transform="ref(svg,13408.2269,-3489.5705)" x="0" y="0"/>
<use xlink:href="#p0" content="2,（医）森医院,岡山県赤磐市惣分２８,内科,,,9" xlink:title="（医）森医院" transform="ref(svg,13401.3372,-3483.8009)" x="0" y="0"/>
<use xlink:href="#p0" content="2,（医）森医院仁美診療所,岡山県赤磐市仁堀中１６８４-１,内科,,,9" xlink:title="（医）森医院仁美診療所" transform="ref(svg,13401.1972,-3487.283)" x="0" y="0"/>
<use xlink:href="#p0" content="2,米井医院,岡山県赤磐市周匝１４５２-１,内科　小児科,,,9" xlink:title="米井医院" transform="ref(svg,13409.7521,-3492.1022)" x="0" y="0"/>
<use xlink:href="#p0" content="2,（特養）ワインの里医務室,岡山県赤磐市西軽部１２４４-１,内科,,,9" xlink:title="（特養）ワインの里医務室" transform="ref(svg,13401.4841,-3480.6591)" x="0" y="0"/>
<use xlink:href="#p0" content="2,森クリニック,岡山県赤磐市周匝７２８-１,内科,,,9" xlink:title="森クリニック" transform="ref(svg,13409.3912,-3491.8555)" x="0" y="0"/>
<use xlink:href="#p0" content="2,青木クリニック,岡山県津山市戸川町１２,内科　消化器科（消化器内科・胃腸内科）,,,9" xlink:title="青木クリニック" transform="ref(svg,13399.8948,-3505.956)" x="0" y="0"/>
<use xlink:href="#p0" content="2,障害者支援施設あすなろ園医務室,岡山県津山市西下１００３-１,神経内科,,,9" xlink:title="障害者支援施設あすなろ園医務室" transform="ref(svg,13409.0697,-3510.6557)" x="0" y="0"/>
<use xlink:href="#p0" content="2,綾部内科医院,岡山県津山市上河原２３２-１０,内科,,,9" xlink:title="綾部内科医院" transform="ref(svg,13400.3176,-3508.4999)" x="0" y="0"/>
<use xlink:href="#p0" content="2,軽費老人ホームイーエスガーデン,岡山県津山市津山口３０７,内科,,,9" xlink:title="軽費老人ホームイーエスガーデン" transform="ref(svg,13398.1556,-3505.6247)" x="0" y="0"/>
<use xlink:href="#p0" content="2,（一財）江原積善会ＥＳクリニック,岡山県津山市津山口３０８,内科　精神科,,,9" xlink:title="（一財）江原積善会ＥＳクリニック" transform="ref(svg,13398.1839,-3505.5625)" x="0" y="0"/>
<use xlink:href="#p0" content="2,（医）瑞生会石井医院,岡山県津山市沼８５７-１,小児科　産婦人科,,,9" xlink:title="（医）瑞生会石井医院" transform="ref(svg,13401.6316,-3507.3031)" x="0" y="0"/>
<use xlink:href="#p0" content="2,（医）いちば医院,岡山県津山市二宮１９００-５,内科　呼吸器科（呼吸器内科）　循環器科（循環器内科）　外科,,,9" xlink:title="（医）いちば医院" transform="ref(svg,13397.3718,-3506.0584)" x="0" y="0"/>
<use xlink:href="#p0" content="2,（医）井戸内科クリニック,岡山県津山市山下１０１,内科　消化器科（消化器内科・胃腸内科）,,,9" xlink:title="（医）井戸内科クリニック" transform="ref(svg,13400.4043,-3506.1525)" x="0" y="0"/>
<use xlink:href="#p0" content="2,上野眼科クリニック,岡山県津山市山下９-５,眼科,,,9" xlink:title="上野眼科クリニック" transform="ref(svg,13400.6751,-3506.0545)" x="0" y="0"/>
<use xlink:href="#p0" content="2,（特養）鶯園診療所,岡山県津山市瓜生原３３７-１,内科　循環器科（循環器内科）　整形外科　泌尿器科　歯科,,,9" xlink:title="（特養）鶯園診療所" transform="ref(svg,13404.2567,-3504.2927)" x="0" y="0"/>
<use xlink:href="#p0" content="2,薄元医院,岡山県津山市山北４３５-８,内科　胃腸科,,,9" xlink:title="薄元医院" transform="ref(svg,13400.2295,-3507.0525)" x="0" y="0"/>
<use xlink:href="#p0" content="2,内田整形外科医院,岡山県津山市山北５５０,リウマチ科　整形外科　リハビリテーション科,,,9" xlink:title="内田整形外科医院" transform="ref(svg,13400.4168,-3507.2741)" x="0" y="0"/>
<use xlink:href="#p0" content="2,産賀眼科医院,岡山県津山市田町１３０,眼科,,,9" xlink:title="産賀眼科医院" transform="ref(svg,13399.5433,-3506.1247)" x="0" y="0"/>
<use xlink:href="#p0" content="2,（医）おおうみクリニック,岡山県津山市河辺９３３-３,内科,,,9" xlink:title="（医）おおうみクリニック" transform="ref(svg,13404.5428,-3506.207)" x="0" y="0"/>
<use xlink:href="#p0" content="2,（医）大桑医院,岡山県津山市川崎１１３６,内科　胃腸科　外科,,,9" xlink:title="（医）大桑医院" transform="ref(svg,13403.0513,-3506.2359)" x="0" y="0"/>
<use xlink:href="#p0" content="2,大澤皮膚科医院,岡山県津山市河辺９３３-１,皮膚科,,,9" xlink:title="大澤皮膚科医院" transform="ref(svg,13404.5427,-3506.232)" x="0" y="0"/>
<use xlink:href="#p0" content="2,（医）慈秀会太田整形外科医院,岡山県津山市川崎１６５,整形外科　リハビリテーション科,,,9" xlink:title="（医）慈秀会太田整形外科医院" transform="ref(svg,13403.043,-3505.9442)" x="0" y="0"/>
<use xlink:href="#p0" content="2,岡外科胃腸肛門科,岡山県津山市河辺９４３-１,消化器科（消化器内科・胃腸内科）　外科　整形外科　肛門科（肛門外科）　麻酔科,,,9" xlink:title="岡外科胃腸肛門科" transform="ref(svg,13404.6103,-3506.3128)" x="0" y="0"/>
<use xlink:href="#p0" content="2,岡本眼科医院,岡山県津山市上河原２２２-７,眼科,,,9" xlink:title="岡本眼科医院" transform="ref(svg,13400.5085,-3508.3445)" x="0" y="0"/>
<use xlink:href="#p0" content="2,奥田医院,岡山県津山市大篠２６１８,内科,,,9" xlink:title="奥田医院" transform="ref(svg,13402.9841,-3511.9505)" x="0" y="0"/>
<use xlink:href="#p0" content="2,小野形成外科整形外科,岡山県津山市田町２０,整形外科　形成外科,,,9" xlink:title="小野形成外科整形外科" transform="ref(svg,13400.07,-3506.2882)" x="0" y="0"/>
<use xlink:href="#p0" content="2,（医）小畑内科医院,岡山県津山市志戸部６６２-１４,内科　消化器科（消化器内科・胃腸内科）　循環器科（循環器内科）　小児科　放射線科　腎臓内科　糖尿病内科（代謝内科）,,,9" xlink:title="（医）小畑内科医院" transform="ref(svg,13401.9877,-3507.8692)" x="0" y="0"/>
<use xlink:href="#p0" content="2,影山医院,岡山県津山市上村６２-１,内科　呼吸器科（呼吸器内科）　消化器科（消化器内科・胃腸内科）　循環器科（循環器内科）,,,9" xlink:title="影山医院" transform="ref(svg,13409.8073,-3509.9372)" x="0" y="0"/>
<use xlink:href="#p0" content="2,神谷内科医院,岡山県津山市南新座１０９,内科,,,9" xlink:title="神谷内科医院" transform="ref(svg,13399.5955,-3505.8329)" x="0" y="0"/>
<use xlink:href="#p0" content="2,河原外科,岡山県津山市椿高下４７-６,外科　整形外科,,,9" xlink:title="河原外科" transform="ref(svg,13400.1755,-3506.5634)" x="0" y="0"/>
<use xlink:href="#p0" content="2,（医）ウナデ会河原内科松尾小児科クリニック,岡山県津山市二宮２１３７-１０,内科　消化器科（消化器内科・胃腸内科）　循環器科（循環器内科）　アレルギー科　小児科,,,9" xlink:title="（医）ウナデ会河原内科松尾小児科クリニック" transform="ref(svg,13396.7989,-3505.9019)" x="0" y="0"/>
<use xlink:href="#p0" content="2,（医）野ゆり会かんざき医院,岡山県津山市山方５５-１０,内科　消化器科（消化器内科・胃腸内科）　小児科,,,9" xlink:title="（医）野ゆり会かんざき医院" transform="ref(svg,13399.9178,-3510.2237)" x="0" y="0"/>
<use xlink:href="#p0" content="2,かんだ小児科医院,岡山県津山市勝間田町４８-１,小児科,,,9" xlink:title="かんだ小児科医院" transform="ref(svg,13401.1318,-3506.1046)" x="0" y="0"/>
<use xlink:href="#p0" content="2,（医）衣笠内科医院,岡山県津山市椿高下３９,内科,,,9" xlink:title="（医）衣笠内科医院" transform="ref(svg,13400.0971,-3506.537)" x="0" y="0"/>
<use xlink:href="#p0" content="2,（特養）高寿園医務室,岡山県津山市下高倉東１９４３-１１,内科,,,9" xlink:title="（特養）高寿園医務室" transform="ref(svg,13404.4091,-3510.219)" x="0" y="0"/>
<use xlink:href="#p0" content="2,坂本眼科医院,岡山県津山市田町２１-１服部ビル２Ｆ,眼科,,,9" xlink:title="坂本眼科医院" transform="ref(svg,13400.0727,-3506.3316)" x="0" y="0"/>
<use xlink:href="#p0" content="2,坂本クリニック,岡山県津山市高野本郷１２５７-６,内科　呼吸器科（呼吸器内科）　消化器科（消化器内科・胃腸内科）　循環器科（循環器内科）　アレルギー科　小児科　糖尿病内科（代謝内科）,,,9" xlink:title="坂本クリニック" transform="ref(svg,13404.6296,-3507.3298)" x="0" y="0"/>
<use xlink:href="#p0" content="2,笹岡皮膚科クリニック,岡山県津山市小原１２５-１５,皮膚科,,,9" xlink:title="笹岡皮膚科クリニック" transform="ref(svg,13400.0662,-3507.9729)" x="0" y="0"/>
<use xlink:href="#p0" content="2,（医）佐良山診療所,岡山県津山市皿５４４,内科　呼吸器科（呼吸器内科）,,,9" xlink:title="（医）佐良山診療所" transform="ref(svg,13396.8742,-3504.1276)" x="0" y="0"/>
<use xlink:href="#p0" content="2,（特養）サンライフみのり医務室,岡山県津山市二宮９９９,内科　精神科　形成外科　歯科,,,9" xlink:title="（特養）サンライフみのり医務室" transform="ref(svg,13396.6432,-3506.8423)" x="0" y="0"/>
<use xlink:href="#p0" content="2,救護施設三楽園医務室,岡山県津山市一方２１８-１,精神科,,,9" xlink:title="救護施設三楽園医務室" transform="ref(svg,13398.0395,-3505.636)" x="0" y="0"/>
<use xlink:href="#p0" content="2,勝田郡老人福祉施設組合養護老人ホーム特定施設塩手荘,岡山県津山市市場２１５１,内科,,,9" xlink:title="勝田郡老人福祉施設組合養護老人ホーム特定施設塩手荘" transform="ref(svg,13412.7946,-3511.7729)" x="0" y="0"/>
<use xlink:href="#p0" content="2,（医）こころ勝北診療所,岡山県津山市杉宮１４-２,内科　小児科,,,9" xlink:title="（医）こころ勝北診療所" transform="ref(svg,13410.1331,-3508.7881)" x="0" y="0"/>
<use xlink:href="#p0" content="2,（医）勝北クリニック勝北すこやかクリニック,岡山県津山市坂上２２１-１,内科　消化器科（消化器内科・胃腸内科）　小児科　リハビリテーション科,,,9" xlink:title="（医）勝北クリニック勝北すこやかクリニック" transform="ref(svg,13410.1018,-3509.7781)" x="0" y="0"/>
<use xlink:href="#p0" content="2,砂田眼科医院,岡山県津山市田町７７,眼科,,,9" xlink:title="砂田眼科医院" transform="ref(svg,13399.8295,-3506.2655)" x="0" y="0"/>
<use xlink:href="#p0" content="2,角田医院,岡山県津山市田町８５,内科　脳神経外科　リハビリテーション科,,,9" xlink:title="角田医院" transform="ref(svg,13399.8711,-3506.1858)" x="0" y="0"/>
<use xlink:href="#p0" content="2,（特養）第３日本原荘診療所,岡山県津山市新野東１７９８-１,内科　精神科,,,9" xlink:title="（特養）第３日本原荘診療所" transform="ref(svg,13412.7584,-3510.3866)" x="0" y="0"/>
<use xlink:href="#p0" content="2,軽費老人ホーム第２日本原荘診療所,岡山県津山市新野東１７９８-１,内科,,,9" xlink:title="軽費老人ホーム第２日本原荘診療所" transform="ref(svg,13412.826,-3510.3906)" x="0" y="0"/>
<use xlink:href="#p0" content="2,田口医院,岡山県津山市押渕２２８,内科　麻酔科,,,9" xlink:title="田口医院" transform="ref(svg,13403.2356,-3501.1139)" x="0" y="0"/>
<use xlink:href="#p0" content="2,（医）多胡医院　多胡クリニック,岡山県津山市草加部９５５-１,内科　胃腸科　外科　整形外科　リハビリテーション科　麻酔科,,,9" xlink:title="（医）多胡医院　多胡クリニック" transform="ref(svg,13407.0161,-3509.5779)" x="0" y="0"/>
<use xlink:href="#p0" content="2,たまち内科クリニック,岡山県津山市田町９-１,内科,,,9" xlink:title="たまち内科クリニック" transform="ref(svg,13399.9502,-3506.2169)" x="0" y="0"/>
<use xlink:href="#p0" content="2,（医）光樹会近光整形外科診療所,岡山県津山市椿高下１２７-１,整形外科　リハビリテーション科　麻酔科,,,9" xlink:title="（医）光樹会近光整形外科診療所" transform="ref(svg,13400.4124,-3506.5273)" x="0" y="0"/>
<use xlink:href="#p0" content="2,（公財）中国労働衛生協会津山検診所,岡山県津山市戸島６３４-２５,内科,,,9" xlink:title="（公財）中国労働衛生協会津山検診所" transform="ref(svg,13394.7898,-3507.4397)" x="0" y="0"/>
<use xlink:href="#p0" content="2,（医）辻医院,岡山県津山市小原２７-１,内科　小児科,,,9" xlink:title="（医）辻医院" transform="ref(svg,13400.284,-3507.687)" x="0" y="0"/>
<use xlink:href="#p0" content="2,（医）津山内田整形外科,岡山県津山市津山口４９-１,リウマチ科　整形外科　リハビリテーション科,,,9" xlink:title="（医）津山内田整形外科" transform="ref(svg,13398.9376,-3505.7032)" x="0" y="0"/>
<use xlink:href="#p0" content="2,津山広済寮医務室,岡山県津山市小田中１４１２,内科　精神科,,,9" xlink:title="津山広済寮医務室" transform="ref(svg,13398.8839,-3506.1274)" x="0" y="0"/>
<use xlink:href="#p0" content="2,（医）平野同仁会津山第一クリニック,岡山県津山市田町１５０,内科　外科　肛門科（肛門外科）,,,9" xlink:title="（医）平野同仁会津山第一クリニック" transform="ref(svg,13399.4971,-3506.3907)" x="0" y="0"/>
<use xlink:href="#p0" content="2,津山中央クリニック,岡山県津山市二階町６５,小児科　外科　整形外科　皮膚科　眼科　耳鼻咽喉科　リハビリテーション科,,,9" xlink:title="津山中央クリニック" transform="ref(svg,13400.1331,-3506.0445)" x="0" y="0"/>
<use xlink:href="#p0" content="2,津山東クリニック,岡山県津山市川崎１７６-１,内科　泌尿器科,,,9" xlink:title="津山東クリニック" transform="ref(svg,13403.28,-3505.9359)" x="0" y="0"/>
<use xlink:href="#p0" content="2,（医）清風会津山ファミリークリニック,岡山県津山市田町８６,内科　小児科,,,9" xlink:title="（医）清風会津山ファミリークリニック" transform="ref(svg,13399.8206,-3506.19)" x="0" y="0"/>
<use xlink:href="#p0" content="2,岡山県美作保健所,岡山県津山市椿高下１１４,不明,,,9" xlink:title="岡山県美作保健所" transform="ref(svg,13400.2185,-3506.5252)" x="0" y="0"/>
<use xlink:href="#p0" content="2,津山市立ときわ園診療所,岡山県津山市井口１００-１,内科,,,9" xlink:title="津山市立ときわ園診療所" transform="ref(svg,13399.0747,-3505.3914)" x="0" y="0"/>
<use xlink:href="#p0" content="2,（医）薫風会ながえ医院,岡山県津山市沼８５６-３,内科　呼吸器科（呼吸器内科）　胃腸科　循環器科（循環器内科）　外科　整形外科　肛門科（肛門外科）,,,9" xlink:title="（医）薫風会ながえ医院" transform="ref(svg,13401.6313,-3507.3257)" x="0" y="0"/>
<use xlink:href="#p0" content="2,中尾内科クリニック,岡山県津山市沼８５４-６,内科　呼吸器科（呼吸器内科）　消化器科（消化器内科・胃腸内科）　循環器科（循環器内科）,,,9" xlink:title="中尾内科クリニック" transform="ref(svg,13401.4485,-3507.2518)" x="0" y="0"/>
<use xlink:href="#p0" content="2,中西クリニック,岡山県津山市東一宮４３-１３,内科　呼吸器科（呼吸器内科）,,,9" xlink:title="中西クリニック" transform="ref(svg,13400.3009,-3509.7772)" x="0" y="0"/>
<use xlink:href="#p0" content="2,内科・小児科西医院,岡山県津山市高野本郷１２７４-１,内科　小児科,,,9" xlink:title="内科・小児科西医院" transform="ref(svg,13405.2413,-3507.4664)" x="0" y="0"/>
<use xlink:href="#p0" content="2,（特養）日本原荘診療所,岡山県津山市新野東１７９７,内科,,,9" xlink:title="（特養）日本原荘診療所" transform="ref(svg,13412.9082,-3510.4259)" x="0" y="0"/>
<use xlink:href="#p0" content="2,（医）新和会ぬかだ健康クリニック,岡山県津山市山北５５９-５,内科　消化器科（消化器内科・胃腸内科）　外科,,,9" xlink:title="（医）新和会ぬかだ健康クリニック" transform="ref(svg,13400.3702,-3507.3034)" x="0" y="0"/>
<use xlink:href="#p0" content="2,パナソニック（株）ＡＩＳ社機構部品事業部インプットデバイスディビジョン健康管理室,岡山県津山市河辺字下閂１１１１-１,内科,,,9" xlink:title="パナソニック（株）ＡＩＳ社機構部品事業部インプットデバイスディビジョン健康管理室" transform="ref(svg,13404.2096,-3506.0633)" x="0" y="0"/>
<use xlink:href="#p0" content="2,（医）三和会林小児科,岡山県津山市山下３７,小児科,,,9" xlink:title="（医）三和会林小児科" transform="ref(svg,13400.2206,-3506.1525)" x="0" y="0"/>
<use xlink:href="#p0" content="2,平福診療所,岡山県津山市平福５４６-１,内科,,,9" xlink:title="平福診療所" transform="ref(svg,13396.8744,-3504.9026)" x="0" y="0"/>
<use xlink:href="#p0" content="2,（医）盛鳳会福田産婦人科,岡山県津山市田町１０５,産婦人科,,,9" xlink:title="（医）盛鳳会福田産婦人科" transform="ref(svg,13399.5821,-3506.2961)" x="0" y="0"/>
<use xlink:href="#p0" content="2,藤井医院,岡山県津山市北園町２３-１７,内科　婦人科,,,9" xlink:title="藤井医院" transform="ref(svg,13400.3933,-3507.7008)" x="0" y="0"/>
<use xlink:href="#p0" content="2,（医）藤田会藤田耳鼻咽喉科医院,岡山県津山市小原２５-５,呼吸器科（呼吸器内科）　アレルギー科　耳鼻咽喉科　気管食道科（気管食道外科）,,,9" xlink:title="（医）藤田会藤田耳鼻咽喉科医院" transform="ref(svg,13400.3123,-3507.7478)" x="0" y="0"/>
<use xlink:href="#p0" content="2,（医）本位田診療所,岡山県津山市新野東１７９７-１２,内科　眼科　リハビリテーション科,,,9" xlink:title="（医）本位田診療所" transform="ref(svg,13412.8407,-3510.4278)" x="0" y="0"/>
<use xlink:href="#p0" content="2,本渡記念循環器クリニック,岡山県津山市小原７９-５,内科　循環器科（循環器内科）,,,9" xlink:title="本渡記念循環器クリニック" transform="ref(svg,13400.2836,-3507.7975)" x="0" y="0"/>
<use xlink:href="#p0" content="2,またの内科循環器科クリニック,岡山県津山市新職人町１８,内科　循環器科（循環器内科）,,,9" xlink:title="またの内科循環器科クリニック" transform="ref(svg,13399.9695,-3505.866)" x="0" y="0"/>
<use xlink:href="#p0" content="2,パナソニック（株）ＡＶＣネットワークス社ストレージ事業部津山工場健康管理室,岡山県津山市草加部１４５８-５,内科　呼吸器科（呼吸器内科）,,,9" xlink:title="パナソニック（株）ＡＶＣネットワークス社ストレージ事業部津山工場健康管理室" transform="ref(svg,13407.4788,-3510.0608)" x="0" y="0"/>
<use xlink:href="#p0" content="2,（医）水島圭一内科医院,岡山県津山市沼５２-１０,内科　心療内科　呼吸器科（呼吸器内科）　循環器科（循環器内科）　アレルギー科　小児科　皮膚科　放射線科,,,9" xlink:title="（医）水島圭一内科医院" transform="ref(svg,13401.1048,-3507.6383)" x="0" y="0"/>
<use xlink:href="#p0" content="2,障がい者支援施設みすず荘医務室,岡山県津山市瓜生原３２６-１,内科　整形外科,,,9" xlink:title="障がい者支援施設みすず荘医務室" transform="ref(svg,13404.1309,-3504.2825)" x="0" y="0"/>
<use xlink:href="#p0" content="2,水田皮膚科泌尿器科,岡山県津山市南新座１０５,皮膚科　泌尿器科,,,9" xlink:title="水田皮膚科泌尿器科" transform="ref(svg,13399.6728,-3505.8223)" x="0" y="0"/>
<use xlink:href="#p0" content="2,光井産婦人科,岡山県津山市南新座１８,産婦人科,,,9" xlink:title="光井産婦人科" transform="ref(svg,13399.7377,-3505.8551)" x="0" y="0"/>
<use xlink:href="#p0" content="2,（医）晴風会三村医院,岡山県津山市北園町３５-５,内科,,,9" xlink:title="（医）晴風会三村医院" transform="ref(svg,13400.426,-3507.7938)" x="0" y="0"/>
<use xlink:href="#p0" content="2,森岡レディスクリニック,岡山県津山市東一宮６２-１７,産婦人科,,,9" xlink:title="森岡レディスクリニック" transform="ref(svg,13400.4805,-3510.0597)" x="0" y="0"/>
<use xlink:href="#p0" content="2,（医）聖美会安田医院,岡山県津山市上河原２１５-７,内科　小児科　皮膚科,,,9" xlink:title="（医）聖美会安田医院" transform="ref(svg,13400.1652,-3508.4215)" x="0" y="0"/>
<use xlink:href="#p0" content="2,耳鼻咽喉科気管食道科山田医院,岡山県津山市大手町８-１０山田ビル,耳鼻咽喉科　気管食道科（気管食道外科）,,,9" xlink:title="耳鼻咽喉科気管食道科山田医院" transform="ref(svg,13400.2566,-3506.0124)" x="0" y="0"/>
<use xlink:href="#p0" content="2,耳鼻咽喉科山本医院,岡山県津山市南新座３１,アレルギー科　耳鼻咽喉科,,,9" xlink:title="耳鼻咽喉科山本医院" transform="ref(svg,13399.8124,-3505.7842)" x="0" y="0"/>
<use xlink:href="#p0" content="2,（医）弓狩小児科医院,岡山県津山市南新座２３-１,小児科,,,9" xlink:title="（医）弓狩小児科医院" transform="ref(svg,13399.8211,-3505.8498)" x="0" y="0"/>
<use xlink:href="#p0" content="2,（特養）いずみ山荘医務室,岡山県苫田郡鏡野町公保田７３-２,内科　整形外科　脳神経外科,,,9" xlink:title="（特養）いずみ山荘医務室" transform="ref(svg,13395.5854,-3510.8668)" x="0" y="0"/>
<use xlink:href="#p0" content="2,（医）天空会三村医院,岡山県苫田郡鏡野町香-美８５０-８,内科　心療内科　小児科,,,9" xlink:title="（医）天空会三村医院" transform="ref(svg,13395.3813,-3511.7586)" x="0" y="0"/>
<use xlink:href="#p0" content="2,秋田医院,岡山県久米郡久米南町下弓削９９７,内科　小児科,,,9" xlink:title="秋田医院" transform="ref(svg,13396.2272,-3492.9)" x="0" y="0"/>
<use xlink:href="#p0" content="2,（特養）イーエスサウスヒルズ医務室,岡山県久米郡久米南町下弓削６４７,内科　泌尿器科,,,9" xlink:title="（特養）イーエスサウスヒルズ医務室" transform="ref(svg,13396.6448,-3493.1756)" x="0" y="0"/>
<use xlink:href="#p0" content="2,近藤クリニック,岡山県久米郡久米南町下弓削３８９-１,内科　胃腸科　循環器科（循環器内科）　麻酔科,,,9" xlink:title="近藤クリニック" transform="ref(svg,13395.9296,-3492.636)" x="0" y="0"/>
<use xlink:href="#p0" content="2,救護施設ニュー三楽園医務室,岡山県久米郡久米南町下弓削６８７-１,精神科,,,9" xlink:title="救護施設ニュー三楽園医務室" transform="ref(svg,13396.68,-3493.0945)" x="0" y="0"/>
<use xlink:href="#p0" content="2,みさき福祉園医務室,岡山県久米郡美咲町原田２６０,内科,,,9" xlink:title="みさき福祉園医務室" transform="ref(svg,13396.1405,-3498.7229)" x="0" y="0"/>
<use xlink:href="#p0" content="2,（医）亀乃甲診療所,岡山県久米郡美咲町原田３１５４-１,内科　小児科,,,9" xlink:title="（医）亀乃甲診療所" transform="ref(svg,13395.5959,-3499.4995)" x="0" y="0"/>
<use xlink:href="#p0" content="2,障がい者支援施設さやかなる苑医務室,岡山県久米郡美咲町書副１８２-４,内科　整形外科,,,9" xlink:title="障がい者支援施設さやかなる苑医務室" transform="ref(svg,13405.0044,-3498.9908)" x="0" y="0"/>
<use xlink:href="#p0" content="2,関医院,岡山県久米郡美咲町原田１７３２-１,内科　外科,,,9" xlink:title="関医院" transform="ref(svg,13395.8626,-3499.8282)" x="0" y="0"/>
<use xlink:href="#p0" content="2,田口医院大戸分院,岡山県久米郡美咲町大戸下２５３-６,内科　麻酔科,,,9" xlink:title="田口医院大戸分院" transform="ref(svg,13403.06,-3497.3944)" x="0" y="0"/>
<use xlink:href="#p0" content="2,美咲町中央保健センター医務室,岡山県久米郡美咲町原田２１５０,内科　歯科,,,9" xlink:title="美咲町中央保健センター医務室" transform="ref(svg,13395.4511,-3499.685)" x="0" y="0"/>
<use xlink:href="#p0" content="2,（特養）吉井川荘医務室,岡山県久米郡美咲町吉ヶ原８３８,内科,,,9" xlink:title="（特養）吉井川荘医務室" transform="ref(svg,13407.6601,-3494.3272)" x="0" y="0"/>
<use xlink:href="#p0" content="2,（特養）ロマンシティあいだ,岡山県美作市井口４１-２,内科,,,9" xlink:title="（特養）ロマンシティあいだ" transform="ref(svg,13412.8276,-3493.8418)" x="0" y="0"/>
<use xlink:href="#p0" content="2,（福）藤暢会（特養）あかり,岡山県勝田郡勝央町小矢田６５３-１,内科,,,9" xlink:title="（福）藤暢会（特養）あかり" transform="ref(svg,13412.6371,-3502.773)" x="0" y="0"/>
<use xlink:href="#p0" content="2,太平台医院,岡山県勝田郡勝央町平１２４２,内科　小児科,,,9" xlink:title="太平台医院" transform="ref(svg,13411.4492,-3504.6805)" x="0" y="0"/>
<use xlink:href="#p0" content="2,内科小児科大村医院,岡山県勝田郡勝央町勝間田２２０-２,内科　消化器科（消化器内科・胃腸内科）　小児科　皮膚科,,,9" xlink:title="内科小児科大村医院" transform="ref(svg,13411.6127,-3504.0093)" x="0" y="0"/>
<use xlink:href="#p0" content="2,（医）小坂田医院,岡山県勝田郡勝央町勝間田１７８,内科　呼吸器科（呼吸器内科）　消化器科（消化器内科・胃腸内科）　循環器科（循環器内科）　小児科,,,9" xlink:title="（医）小坂田医院" transform="ref(svg,13411.64,-3503.8675)" x="0" y="0"/>
<use xlink:href="#p0" content="2,小林医院,岡山県勝田郡勝央町岡３７,内科　呼吸器科（呼吸器内科）　消化器科（消化器内科・胃腸内科）　循環器科（循環器内科）　麻酔科,,,9" xlink:title="小林医院" transform="ref(svg,13412.2458,-3503.6357)" x="0" y="0"/>
<use xlink:href="#p0" content="2,（福）勝明福祉会（特養）南光荘,岡山県勝田郡勝央町美野１８７７,内科,,,9" xlink:title="（福）勝明福祉会（特養）南光荘" transform="ref(svg,13415.2873,-3506.6866)" x="0" y="0"/>
<use xlink:href="#p0" content="2,（医）清風会奈義ファミリークリニック,岡山県勝田郡奈義町豊沢２９２-１,内科　小児科,,,9" xlink:title="（医）清風会奈義ファミリークリニック" transform="ref(svg,13417.8287,-3512.1383)" x="0" y="0"/>
<use xlink:href="#p0" content="2,（特養）なぎみ苑,岡山県勝田郡奈義町広岡３０,内科,,,9" xlink:title="（特養）なぎみ苑" transform="ref(svg,13416.6784,-3511.5872)" x="0" y="0"/>
<use xlink:href="#p0" content="2,陸上自衛隊日本原駐屯地医務室,岡山県勝田郡奈義町滝本官有無番地,内科　耳鼻咽喉科　歯科,,,9" xlink:title="陸上自衛隊日本原駐屯地医務室" transform="ref(svg,13415.1697,-3511.5206)" x="0" y="0"/>
<use xlink:href="#p0" content="2,野々上医院,岡山県勝田郡奈義町滝本１３３２-１,内科　リハビリテーション科　麻酔科,,,9" xlink:title="野々上医院" transform="ref(svg,13415.7588,-3511.9107)" x="0" y="0"/>
<use xlink:href="#p0" content="2,平山クリニック,岡山県津山市東一宮４３-１２,内科　整形外科　麻酔科,,,9" xlink:title="平山クリニック" transform="ref(svg,13400.3742,-3509.7776)" x="0" y="0"/>
<use xlink:href="#p0" content="2,（医）西下病院サンクリニック,岡山県津山市田町２７,内科　神経内科　リウマチ科,,,9" xlink:title="（医）西下病院サンクリニック" transform="ref(svg,13399.9857,-3506.3899)" x="0" y="0"/>
<use xlink:href="#p0" content="2,やよい診療所,岡山県津山市沼６８３-１,内科,,,9" xlink:title="やよい診療所" transform="ref(svg,13401.3708,-3507.744)" x="0" y="0"/>
<use xlink:href="#p0" content="2,こころの健康こうやまクリニック,岡山県津山市河辺９３１-８,心療内科　精神科,,,9" xlink:title="こころの健康こうやまクリニック" transform="ref(svg,13404.61,-3506.2081)" x="0" y="0"/>
<use xlink:href="#p0" content="2,郷奉メンタルクリニック北園,岡山県津山市北園町４０-１２,心療内科　精神科,,,9" xlink:title="郷奉メンタルクリニック北園" transform="ref(svg,13400.5095,-3507.8603)" x="0" y="0"/>
<use xlink:href="#p0" content="2,ケアハウスオークパーク一時介護室,岡山県津山市一方２１６-３,内科,,,9" xlink:title="ケアハウスオークパーク一時介護室" transform="ref(svg,13398.0207,-3505.6583)" x="0" y="0"/>
<use xlink:href="#p0" content="2,（特養）川柳の里三清荘医務室,岡山県久米郡久米南町羽出木７５３-１１,内科,,,9" xlink:title="（特養）川柳の里三清荘医務室" transform="ref(svg,13399.2976,-3494.9897)" x="0" y="0"/>
<use xlink:href="#p0" content="2,わたなべ内科医院,岡山県津山市二宮５３-６,内科,,,9" xlink:title="わたなべ内科医院" transform="ref(svg,13397.4857,-3506.0296)" x="0" y="0"/>
<use xlink:href="#p0" content="2,青山医院,岡山県美作市福本５４９,内科　消化器科（消化器内科・胃腸内科）　循環器科（循環器内科）　小児科　リハビリテーション科,,,9" xlink:title="青山医院" transform="ref(svg,13412.3497,-3493.7879)" x="0" y="0"/>
<use xlink:href="#p0" content="2,江川医院,岡山県美作市林野３４５,内科　小児科,,,9" xlink:title="江川医院" transform="ref(svg,13414.8127,-3500.1722)" x="0" y="0"/>
<use xlink:href="#p0" content="2,（医）岡本医院,岡山県美作市栄町４０-８,眼科,,,9" xlink:title="（医）岡本医院" transform="ref(svg,13414.9129,-3500.9075)" x="0" y="0"/>
<use xlink:href="#p0" content="2,（医）金澤会金澤外科内科医院,岡山県美作市江見４８１-１,内科　外科,,,9" xlink:title="（医）金澤会金澤外科内科医院" transform="ref(svg,13422.4701,-3501.558)" x="0" y="0"/>
<use xlink:href="#p0" content="2,（医）河田医院,岡山県美作市栄町７５-１,内科　耳鼻咽喉科,,,9" xlink:title="（医）河田医院" transform="ref(svg,13415.0311,-3501.1038)" x="0" y="0"/>
<use xlink:href="#p0" content="2,（医）菊池クリニック,岡山県美作市入田２２５-１,アレルギー科　皮膚科,,,9" xlink:title="（医）菊池クリニック" transform="ref(svg,13414.2859,-3500.1552)" x="0" y="0"/>
<use xlink:href="#p0" content="2,木田医院,岡山県美作市中山１４８２-３,内科　消化器科（消化器内科・胃腸内科）　小児科　腎臓内科,,,9" xlink:title="木田医院" transform="ref(svg,13412.9581,-3499.6793)" x="0" y="0"/>
<use xlink:href="#p0" content="2,岡山国際サーキット診療所,岡山県美作市滝宮１２１０,不明,,,9" xlink:title="岡山国際サーキット診療所" transform="ref(svg,13422.0915,-3491.4238)" x="0" y="0"/>
<use xlink:href="#p0" content="2,美作養護老人ホーム組合作東寮,岡山県美作市川北１０８９,内科　脳神経外科,,,9" xlink:title="美作養護老人ホーム組合作東寮" transform="ref(svg,13421.4696,-3501.4416)" x="0" y="0"/>
<use xlink:href="#p0" content="2,岡山県美作保健所勝英支所,岡山県美作市入田２９１-２,不明,,,9" xlink:title="岡山県美作保健所勝英支所" transform="ref(svg,13414.2029,-3500.3986)" x="0" y="0"/>
<use xlink:href="#p0" content="2,総合ケアサービスセンターかつた,岡山県美作市大町１７２７,内科,,,9" xlink:title="総合ケアサービスセンターかつた" transform="ref(svg,13419.8627,-3507.1269)" x="0" y="0"/>
<use xlink:href="#p0" content="2,（医）清風会湯郷ファミリークリニック,岡山県美作市湯郷８１５-６,内科　小児科,,,9" xlink:title="（医）清風会湯郷ファミリークリニック" transform="ref(svg,13413.3361,-3499.2333)" x="0" y="0"/>
<use xlink:href="#p0" content="2,（医）豊医会原医院,岡山県美作市豊国原３６３-２,内科　外科　整形外科　リハビリテーション科,,,9" xlink:title="（医）豊医会原医院" transform="ref(svg,13415.9908,-3502.12)" x="0" y="0"/>
<use xlink:href="#p0" content="2,原田内科医院,岡山県美作市豆田５０-３,内科　消化器科（消化器内科・胃腸内科）　リウマチ科　小児科,,,9" xlink:title="原田内科医院" transform="ref(svg,13427.3731,-3505.5656)" x="0" y="0"/>
<use xlink:href="#p0" content="2,（医）福井医院,岡山県美作市湯郷９１６,内科　整形外科　リハビリテーション科,,,9" xlink:title="（医）福井医院" transform="ref(svg,13413.0863,-3499.2729)" x="0" y="0"/>
<use xlink:href="#p0" content="2,松野内科医院,岡山県美作市真加部５４-１,内科　循環器科（循環器内科）,,,9" xlink:title="松野内科医院" transform="ref(svg,13419.1079,-3507.79)" x="0" y="0"/>
<use xlink:href="#p0" content="2,みまさか園,岡山県美作市北山４０４-１,一般内科,,,9" xlink:title="みまさか園" transform="ref(svg,13415.6315,-3503.19)" x="0" y="0"/>
<use xlink:href="#p0" content="2,美作市立英田診療所,岡山県美作市中川１６７５-６,内科,,,9" xlink:title="美作市立英田診療所" transform="ref(svg,13416.2134,-3491.6323)" x="0" y="0"/>
<use xlink:href="#p0" content="2,美作市立粟井診療所,岡山県美作市小野２５６５-１,内科,,,9" xlink:title="美作市立粟井診療所" transform="ref(svg,13424.318,-3507.6752)" x="0" y="0"/>
<use xlink:href="#p0" content="2,美作市立作東診療所,岡山県美作市江見２８０,内科　循環器科（循環器内科）　外科　放射線科,,,9" xlink:title="美作市立作東診療所" transform="ref(svg,13422.5319,-3501.3322)" x="0" y="0"/>
<use xlink:href="#p0" content="2,美作市立福山診療所,岡山県美作市万善２４-１,内科,,,9" xlink:title="美作市立福山診療所" transform="ref(svg,13419.9936,-3495.0681)" x="0" y="0"/>
<use xlink:href="#p0" content="2,山田医院,岡山県美作市栄町１０-１４,内科　産婦人科,,,9" xlink:title="山田医院" transform="ref(svg,13414.874,-3500.7628)" x="0" y="0"/>
<use xlink:href="#p0" content="2,和田外科医院,岡山県美作市北山９１,外科　整形外科,,,9" xlink:title="和田外科医院" transform="ref(svg,13416.5622,-3502.6502)" x="0" y="0"/>
<use xlink:href="#p0" content="2,（公財）岡山県健康づくり財団北部診療所,岡山県美作市入田２９１-２,内科,,,9" xlink:title="（公財）岡山県健康づくり財団北部診療所" transform="ref(svg,13414.2029,-3500.3986)" x="0" y="0"/>
<use xlink:href="#p0" content="2,（医）清風会梶並診療所,岡山県美作市梶並５０１-１,内科　小児科,,,9" xlink:title="（医）清風会梶並診療所" transform="ref(svg,13424.5958,-3511.886)" x="0" y="0"/>
<use xlink:href="#p0" content="2,（医）清風会上山診療所,岡山県美作市上山１８１４,内科　小児科,,,9" xlink:title="（医）清風会上山診療所" transform="ref(svg,13413.0772,-3489.1623)" x="0" y="0"/>
</g>
</svg>
