<?xml version="1.0" encoding="UTF-8"?>
<svg  xmlns="http://www.w3.org/2000/svg" xmlns:xlink="http://www.w3.org/1999/xlink" xmlns:go="http://purl.org/svgmap/profile" property="医療機関分類,施設名称,所在地,診療科目１,診療科目２,診療科目３,開設者分類" viewBox="13570.3125 -3480.46875 17.578125 17.578125" go:dataArea="13570.3125 -3480.46875 17.578125 17.578125" >
<metadata>
 <rdf:RDF xmlns:rdf="http://www.w3.org/1999/02/22-rdf-syntax-ns#" xmlns:crs="http://opengis.org/xmldtds/transformations.dtd" xmlns:svg="http://www.w3.org/svg" >
  <rdf:Description>
   <crs:CoordinateReferenceSystem rdf:resource="http://purl.org/crs/84" svg:transform="matrix(100.0,0.0,0.0,-100.0,0.0,0.0)" />
  </rdf:Description>
 </rdf:RDF>
</metadata>
<globalCoordinateSystem srsName="http://purl.org/crs/84" transform="matrix(100.0,0.0,0.0,-100.0,0.0,0.0)" />
<defs>
 <g id="p0" >
  <image xlink:href="mappin.png" preserveAspectRatio="none" x="-8" y="-25" width="19" height="27"/>
 </g>
 <g id="p1" >
  <image xlink:href="mappin1.png" preserveAspectRatio="none" x="-8" y="-25" width="19" height="27"/>
 </g>
 <g id="p2" >
  <image xlink:href="mappin2.png" preserveAspectRatio="none" x="-8" y="-25" width="19" height="27"/>
 </g>
 <g id="p3" >
  <image xlink:href="mappin3.png" preserveAspectRatio="none" x="-8" y="-25" width="19" height="27"/>
 </g>
 <g id="p4" >
  <image xlink:href="mappin4.png" preserveAspectRatio="none" x="-8" y="-25" width="19" height="27"/>
 </g>
 <g id="p5" >
  <image xlink:href="mappin5.png" preserveAspectRatio="none" x="-8" y="-25" width="19" height="27"/>
 </g>
 <g id="p6" >
  <image xlink:href="mappin6.png" preserveAspectRatio="none" x="-8" y="-25" width="19" height="27"/>
 </g>
 <g id="p7" >
  <image xlink:href="mappin7.png" preserveAspectRatio="none" x="-8" y="-25" width="19" height="27"/>
 </g>
 <g id="p8" >
  <image xlink:href="mappin8.png" preserveAspectRatio="none" x="-8" y="-25" width="19" height="27"/>
 </g>
 <g id="p9" >
  <image xlink:href="mappin9.png" preserveAspectRatio="none" x="-8" y="-25" width="19" height="27"/>
 </g>
</defs>
<g fill="green" fill-rule="evenodd" >
<use xlink:href="#p0" content="2,（医）岡田医院,京都府木津川市山城町綺田神ノ木８６,内科　消化器内科　放射線科,,,9" xlink:title="（医）岡田医院" transform="ref(svg,13581.1447,-3478.9026)" x="0" y="0"/>
<use xlink:href="#p0" content="2,（特養）山城ぬくもりの里医務室,京都府木津川市山城町上狛天竺堂１-１,内科　精神科　外科,,,9" xlink:title="（特養）山城ぬくもりの里医務室" transform="ref(svg,13582.3533,-3475.4424)" x="0" y="0"/>
<use xlink:href="#p0" content="2,（医）柳沢診療所,京都府木津川市山城町上狛東作道５-１,内科,,,9" xlink:title="（医）柳沢診療所" transform="ref(svg,13581.8217,-3474.7419)" x="0" y="0"/>
<use xlink:href="#p0" content="2,（医）平岡医院,京都府木津川市山城町上狛北的場４-１,内科　皮膚科　小児科　放射線科,,,9" xlink:title="（医）平岡医院" transform="ref(svg,13581.7219,-3475.0063)" x="0" y="0"/>
<use xlink:href="#p0" content="2,（医）若菜医院,京都府木津川市山城町椿井舟戸２７-１,内科　小児科,,,9" xlink:title="（医）若菜医院" transform="ref(svg,13581.6396,-3475.8786)" x="0" y="0"/>
<use xlink:href="#p0" content="2,小沢医院,京都府木津川市山城町平尾南払戸１１２,内科　眼科　呼吸器科,,,9" xlink:title="小沢医院" transform="ref(svg,13581.4874,-3477.4556)" x="0" y="0"/>
<use xlink:href="#p0" content="2,（医）周寿会はただ診療所,京都府木津川市市坂六本木７６,内科　精神科　神経科,,,9" xlink:title="（医）周寿会はただ診療所" transform="ref(svg,13580.7267,-3471.8233)" x="0" y="0"/>
<use xlink:href="#p0" content="2,（特養）木津芳梅園診療所,京都府木津川市鹿背山東大池４-１,内科　外科　リハビリテーション科,,,9" xlink:title="（特養）木津芳梅園診療所" transform="ref(svg,13584.2079,-3472.8908)" x="0" y="0"/>
<use xlink:href="#p0" content="2,つなもと医院,京都府木津川市兜台３-３-１,内科　小児科,,,9" xlink:title="つなもと医院" transform="ref(svg,13578.2572,-3472.5346)" x="0" y="0"/>
<use xlink:href="#p0" content="2,華クリニック,京都府木津川市兜台４-３-９,産婦人科,,,9" xlink:title="華クリニック" transform="ref(svg,13578.4117,-3472.7954)" x="0" y="0"/>
<use xlink:href="#p0" content="2,（医）小出医院,京都府木津川市兜台７-５-９,内科,,,9" xlink:title="（医）小出医院" transform="ref(svg,13578.615,-3472.6314)" x="0" y="0"/>
<use xlink:href="#p0" content="2,やました小児科医院,京都府木津川市兜台７-１０-７,アレルギー科　小児科,,,9" xlink:title="やました小児科医院" transform="ref(svg,13578.7217,-3472.7308)" x="0" y="0"/>
<use xlink:href="#p0" content="2,（医）飯田医院,京都府木津川市木津町瓦谷５６,内科　小児科　放射線科,,,9" xlink:title="（医）飯田医院" transform="ref(svg,13581.8072,-3473.427)" x="0" y="0"/>
<use xlink:href="#p0" content="2,ささき整形外科,京都府木津川市木津町西垣外３７,リウマチ科　外科　整形外科　リハビリテーション科　麻酔科,,,9" xlink:title="ささき整形外科" transform="ref(svg,13581.7541,-3473.6515)" x="0" y="0"/>
<use xlink:href="#p0" content="2,小石眼科医院,京都府木津川市木津町内垣外７４,眼科,,,9" xlink:title="小石眼科医院" transform="ref(svg,13581.6594,-3473.5857)" x="0" y="0"/>
<use xlink:href="#p0" content="2,吉川医院,京都府木津川市木津雲村１５１,内科　放射線科,,,9" xlink:title="吉川医院" transform="ref(svg,13582.4029,-3474.0427)" x="0" y="0"/>
<use xlink:href="#p0" content="2,林こころのクリニック,京都府木津川市木津駅前１-２３フロント２０００１,精神科　心療内科,,,9" xlink:title="林こころのクリニック" transform="ref(svg,13582.3784,-3473.6283)" x="0" y="0"/>
<use xlink:href="#p0" content="2,（医）豊田耳鼻咽喉科医院,京都府木津川市木津駅前１-２３,耳鼻いんこう科,,,9" xlink:title="（医）豊田耳鼻咽喉科医院" transform="ref(svg,13582.3844,-3473.6262)" x="0" y="0"/>
<use xlink:href="#p0" content="2,よしかわ眼科医院,京都府木津川市木津駅前１-５,眼科,,,9" xlink:title="よしかわ眼科医院" transform="ref(svg,13582.3358,-3473.6696)" x="0" y="0"/>
<use xlink:href="#p0" content="2,相楽郡広域事務組合相楽休日応急診療所,京都府木津川市木津上戸１５,内科　小児科,,,9" xlink:title="相楽郡広域事務組合相楽休日応急診療所" transform="ref(svg,13582.7058,-3473.8037)" x="0" y="0"/>
<use xlink:href="#p0" content="2,京都府山城南保健所,京都府木津川市木津上戸１８,内科　小児科　放射線科,,,9" xlink:title="京都府山城南保健所" transform="ref(svg,13582.6247,-3473.7862)" x="0" y="0"/>
<use xlink:href="#p0" content="2,橋本医院,京都府木津川市木津清水８９,内科　皮膚科　泌尿器科　リハビリテーション科　性病科,,,9" xlink:title="橋本医院" transform="ref(svg,13582.0794,-3473.5203)" x="0" y="0"/>
<use xlink:href="#p0" content="2,（医）いさじ医院,京都府木津川市木津西小林１０-１,内科　外科　整形外科,,,9" xlink:title="（医）いさじ医院" transform="ref(svg,13581.3009,-3472.9405)" x="0" y="0"/>
<use xlink:href="#p0" content="2,（医）松森内科医院,京都府木津川市木津川原田２７-３,内科　放射線科,,,9" xlink:title="（医）松森内科医院" transform="ref(svg,13582.1216,-3473.4602)" x="0" y="0"/>
<use xlink:href="#p0" content="2,（医）晃和会いとうクリニック,京都府木津川市木津池田３４-６,泌尿器科,,,9" xlink:title="（医）晃和会いとうクリニック" transform="ref(svg,13582.2261,-3473.5426)" x="0" y="0"/>
<use xlink:href="#p0" content="2,（医）長井小児科医院,京都府木津川市木津殿城６６-６,小児科,,,9" xlink:title="（医）長井小児科医院" transform="ref(svg,13581.8684,-3473.9462)" x="0" y="0"/>
<use xlink:href="#p0" content="2,（特養）ゆりのき医務室,京都府木津川市木津川台１-１９-１,内科,,,9" xlink:title="（特養）ゆりのき医務室" transform="ref(svg,13579.2627,-3474.698)" x="0" y="0"/>
<use xlink:href="#p0" content="2,あさの内科クリニック,京都府木津川市木津川台７-１-３,内科　消化器科　循環器科,,,9" xlink:title="あさの内科クリニック" transform="ref(svg,13578.3404,-3474.1485)" x="0" y="0"/>
<use xlink:href="#p0" content="2,オムロン（株）京阪奈診療所,京都府木津川市木津川台９-１,内科,,,9" xlink:title="オムロン（株）京阪奈診療所" transform="ref(svg,13577.7087,-3473.9983)" x="0" y="0"/>
<use xlink:href="#p0" content="2,（医）広和会山下医院,京都府木津川市相楽高下４６,内科　皮膚科　リウマチ科　外科　整形外科　リハビリテーション科,,,9" xlink:title="（医）広和会山下医院" transform="ref(svg,13580.4229,-3473.7095)" x="0" y="0"/>
<use xlink:href="#p0" content="2,藤川医院,京都府木津川市相楽川の尻８１-１,内科　放射線科　胃腸科,,,9" xlink:title="藤川医院" transform="ref(svg,13580.2264,-3473.7139)" x="0" y="0"/>
<use xlink:href="#p0" content="2,とうじ診療所,京都府木津川市相楽大徳５５-４,内科　外科　整形外科　リハビリテーション科　胃腸科,,,9" xlink:title="とうじ診療所" transform="ref(svg,13579.6194,-3474.0078)" x="0" y="0"/>
<use xlink:href="#p0" content="2,安田眼科,京都府木津川市相楽台１-１-１イオンモール高の原３Ｆ,眼科,,,9" xlink:title="安田眼科" transform="ref(svg,13579.0882,-3472.4116)" x="0" y="0"/>
<use xlink:href="#p0" content="2,いわたレディースクリニック,京都府木津川市相楽台１-１-１イオン高の原ショッピングセンター内,産婦人科,,,9" xlink:title="いわたレディースクリニック" transform="ref(svg,13579.0892,-3472.5688)" x="0" y="0"/>
<use xlink:href="#p0" content="2,河村医院,京都府木津川市相楽台２-２-１５,内科　皮膚科　外科　放射線科　胃腸科　肛門科,,,9" xlink:title="河村医院" transform="ref(svg,13579.0646,-3472.8166)" x="0" y="0"/>
<use xlink:href="#p0" content="2,西城医院,京都府木津川市相楽台２-９-５,内科,,,9" xlink:title="西城医院" transform="ref(svg,13578.9332,-3472.8798)" x="0" y="0"/>
<use xlink:href="#p0" content="2,門林神経科診療所,京都府木津川市相楽台５-２-３,精神科　神経科,,,9" xlink:title="門林神経科診療所" transform="ref(svg,13579.3097,-3472.8396)" x="0" y="0"/>
<use xlink:href="#p0" content="2,（医）錦見医院,京都府木津川市相楽台９-３-７,内科　小児科　放射線科,,,9" xlink:title="（医）錦見医院" transform="ref(svg,13579.4287,-3472.4883)" x="0" y="0"/>
<use xlink:href="#p0" content="2,（医）ふるかわ医院,京都府木津川市吐師宮ノ前１５-１８,内科　アレルギー科　小児科,,,9" xlink:title="（医）ふるかわ医院" transform="ref(svg,13579.4377,-3474.5041)" x="0" y="0"/>
<use xlink:href="#p0" content="2,ごとう耳鼻咽喉科,京都府木津川市吐師山下１吐師医療ビル２Ｆ,アレルギー科　耳鼻いんこう科,,,9" xlink:title="ごとう耳鼻咽喉科" transform="ref(svg,13579.3837,-3474.503)" x="0" y="0"/>
<use xlink:href="#p0" content="2,（医）きさらぎ会松吉皮膚科,京都府木津川市吐師山下１吐師医療ビル１階,皮膚科,,,9" xlink:title="（医）きさらぎ会松吉皮膚科" transform="ref(svg,13579.3837,-3474.5015)" x="0" y="0"/>
<use xlink:href="#p0" content="2,中島整形外科,京都府木津川市吐師南ノ中条５-１,整形外科　リハビリテーション科,,,9" xlink:title="中島整形外科" transform="ref(svg,13579.4505,-3474.8149)" x="0" y="0"/>
<use xlink:href="#p0" content="2,（医）小堤医院,京都府木津川市州見台３-８-５,内科　アレルギー科　小児科,,,9" xlink:title="（医）小堤医院" transform="ref(svg,13582.7842,-3471.8105)" x="0" y="0"/>
<use xlink:href="#p0" content="2,梅村内科医院,京都府木津川市州見台５-１-１８,内科　胃腸科　循環器科,,,9" xlink:title="梅村内科医院" transform="ref(svg,13583.1459,-3471.6052)" x="0" y="0"/>
<use xlink:href="#p0" content="2,松尾クリニック,京都府木津川市州見台５-２１-４,内科　放射線科　消化器科,,,9" xlink:title="松尾クリニック" transform="ref(svg,13583.2679,-3471.5658)" x="0" y="0"/>
<use xlink:href="#p0" content="2,（医）メディカルウエルフェアーきゅうまウイメンズクリニック,京都府木津川市州見台７-１-２８,内科　産婦人科,,,9" xlink:title="（医）メディカルウエルフェアーきゅうまウイメンズクリニック" transform="ref(svg,13582.0918,-3471.5603)" x="0" y="0"/>
<use xlink:href="#p0" content="2,つじのうえクリニック,京都府木津川市州見台７-１-１４,内科　小児科,,,9" xlink:title="つじのうえクリニック" transform="ref(svg,13582.0463,-3471.5825)" x="0" y="0"/>
<use xlink:href="#p0" content="2,いしわりこどもクリニック,京都府木津川市州見台８-４-１０,アレルギー科　小児科,,,9" xlink:title="いしわりこどもクリニック" transform="ref(svg,13581.7391,-3471.7392)" x="0" y="0"/>
<use xlink:href="#p0" content="2,（医）逸歩会こいし整形外科,京都府木津川市州見台８-４-８,整形外科　リハビリテーション科,,,9" xlink:title="（医）逸歩会こいし整形外科" transform="ref(svg,13581.774,-3471.7167)" x="0" y="0"/>
<use xlink:href="#p0" content="2,（医）白鷺会松井整形外科医院,京都府木津川市加茂町大野ウヅ７３,リウマチ科　整形外科　リハビリテーション科,,,9" xlink:title="（医）白鷺会松井整形外科医院" transform="ref(svg,13586.4385,-3475.255)" x="0" y="0"/>
<use xlink:href="#p0" content="2,山口医院,京都府木津川市加茂町北船屋２４,内科　消化器科,,,9" xlink:title="山口医院" transform="ref(svg,13587.1946,-3475.8359)" x="0" y="0"/>
<use xlink:href="#p0" content="2,池田医院,京都府木津川市加茂町里新戸７１,内科,,,9" xlink:title="池田医院" transform="ref(svg,13586.725,-3475.4635)" x="0" y="0"/>
<use xlink:href="#p0" content="2,兎本眼科,京都府木津川市加茂町里西鳥口１０-２,眼科,,,9" xlink:title="兎本眼科" transform="ref(svg,13586.7324,-3475.2911)" x="0" y="0"/>
<use xlink:href="#p0" content="2,（医）一瀬医院,京都府木津川市南加茂台５-１０-１０,内科　小児科　循環器科,,,9" xlink:title="（医）一瀬医院" transform="ref(svg,13586.9991,-3473.8894)" x="0" y="0"/>
<use xlink:href="#p0" content="2,小川医院,京都府木津川市南加茂台９-１７-２,内科　小児科　リハビリテーション科,,,9" xlink:title="小川医院" transform="ref(svg,13586.5961,-3473.7217)" x="0" y="0"/>
<use xlink:href="#p0" content="2,岡村耳鼻咽喉科医院,京都府木津川市南加茂台９-１９-２,耳鼻いんこう科,,,9" xlink:title="岡村耳鼻咽喉科医院" transform="ref(svg,13586.5954,-3473.7041)" x="0" y="0"/>
<use xlink:href="#p0" content="2,山本医院,京都府木津川市南加茂台９-１９-７,内科　外科　整形外科　リハビリテーション科　放射線科　胃腸科,,,9" xlink:title="山本医院" transform="ref(svg,13586.6276,-3473.6294)" x="0" y="0"/>
<use xlink:href="#p0" content="2,（特養）加茂の里医務室,京都府木津川市加茂町駅東４-１-３,内科　精神科,,,9" xlink:title="（特養）加茂の里医務室" transform="ref(svg,13587.1787,-3475.4397)" x="0" y="0"/>
<use xlink:href="#p0" content="2,（医）吉村医院,京都府木津川市加茂町駅東２-６-１２,内科　小児科,,,9" xlink:title="（医）吉村医院" transform="ref(svg,13587.0956,-3475.1719)" x="0" y="0"/>
<use xlink:href="#p0" content="2,おく内科医院,京都府相楽郡精華町桜が丘３-２-１エスペローマ高の原ウエスト一番館,リウマチ科　消化器科,,,9" xlink:title="おく内科医院" transform="ref(svg,13577.7692,-3472.9354)" x="0" y="0"/>
<use xlink:href="#p0" content="2,芳川医院,京都府相楽郡精華町桜が丘３-２４-７,内科　小児科,,,9" xlink:title="芳川医院" transform="ref(svg,13577.626,-3472.4746)" x="0" y="0"/>
<use xlink:href="#p0" content="2,（医）松桜会松川耳鼻咽喉科医院,京都府相楽郡精華町桜が丘４-２４-１７,アレルギー科　耳鼻いんこう科,,,9" xlink:title="（医）松桜会松川耳鼻咽喉科医院" transform="ref(svg,13577.4618,-3472.5615)" x="0" y="0"/>
<use xlink:href="#p0" content="2,島谷クリニック,京都府相楽郡精華町桜が丘４-２５-４,消化器内科　消化器外科,,,9" xlink:title="島谷クリニック" transform="ref(svg,13577.4791,-3472.5476)" x="0" y="0"/>
<use xlink:href="#p0" content="2,天野医院,京都府相楽郡精華町下狛河原田４５-３,内科　リハビリテーション科　循環器科,,,9" xlink:title="天野医院" transform="ref(svg,13579.2806,-3477.8615)" x="0" y="0"/>
<use xlink:href="#p0" content="2,パナソニック（株）Ｒ＆Ｄ本部京阪奈地区健康管理室,京都府相楽郡精華町光台３-４,内科,,,9" xlink:title="パナソニック（株）Ｒ＆Ｄ本部京阪奈地区健康管理室" transform="ref(svg,13576.2022,-3474.6044)" x="0" y="0"/>
<use xlink:href="#p0" content="2,山本耳鼻咽喉科形成外科,京都府相楽郡精華町光台４-２９-２,形成外科　耳鼻いんこう科,,,9" xlink:title="山本耳鼻咽喉科形成外科" transform="ref(svg,13576.055,-3474.4477)" x="0" y="0"/>
<use xlink:href="#p0" content="2,（医）平田内科医院,京都府相楽郡精華町光台７-１４-３,内科　小児科　消化器科　循環器科,,,9" xlink:title="（医）平田内科医院" transform="ref(svg,13575.813,-3474.1233)" x="0" y="0"/>
<use xlink:href="#p0" content="2,松浦麻酔科クリニック,京都府相楽郡精華町光台７-１５-１,麻酔科,,,9" xlink:title="松浦麻酔科クリニック" transform="ref(svg,13575.8042,-3474.0872)" x="0" y="0"/>
<use xlink:href="#p0" content="2,コマダ診療所,京都府相楽郡精華町菱田宮川原１０,内科　小児科　外科　整形外科,,,9" xlink:title="コマダ診療所" transform="ref(svg,13579.4629,-3478.1164)" x="0" y="0"/>
<use xlink:href="#p0" content="2,（医）健聰会藤村医院,京都府相楽郡精華町祝園砂子田２-１,内科　アレルギー科　リハビリテーション科,,,9" xlink:title="（医）健聰会藤村医院" transform="ref(svg,13579.2632,-3475.8931)" x="0" y="0"/>
<use xlink:href="#p0" content="2,古田診療所,京都府相楽郡精華町祝園門田８,内科　外科　整形外科　リハビリテーション科　放射線科,,,9" xlink:title="古田診療所" transform="ref(svg,13579.6637,-3476.2512)" x="0" y="0"/>
<use xlink:href="#p0" content="2,（医）桜井眼科,京都府相楽郡精華町祝園西１-２４祝園駅西ビル２Ｆ,眼科,,,9" xlink:title="（医）桜井眼科" transform="ref(svg,13579.1244,-3476.1038)" x="0" y="0"/>
<use xlink:href="#p0" content="2,みやもとクリニック,京都府相楽郡精華町祝園西１-２-４グリーンヒル１０１,精神科　心療内科,,,9" xlink:title="みやもとクリニック" transform="ref(svg,13578.7298,-3476.1486)" x="0" y="0"/>
<use xlink:href="#p0" content="2,藤木医院,京都府相楽郡精華町祝園西１-２４-１５,内科,,,9" xlink:title="藤木医院" transform="ref(svg,13579.1262,-3476.0895)" x="0" y="0"/>
<use xlink:href="#p0" content="2,（医）鈴木耳鼻咽喉科医院,京都府相楽郡精華町祝園西１-２４祝園駅西医療ビル２Ｆ２０３,耳鼻いんこう科,,,9" xlink:title="（医）鈴木耳鼻咽喉科医院" transform="ref(svg,13579.1244,-3476.1038)" x="0" y="0"/>
<use xlink:href="#p0" content="2,堀井こどもクリニック,京都府相楽郡精華町祝園西１-６-５,小児科,,,9" xlink:title="堀井こどもクリニック" transform="ref(svg,13578.8201,-3476.1213)" x="0" y="0"/>
<use xlink:href="#p0" content="2,（医）勇貴会ともスキンケアクリニック,京都府相楽郡精華町祝園西１-９-４６,皮膚科　美容皮膚科,,,9" xlink:title="（医）勇貴会ともスキンケアクリニック" transform="ref(svg,13579.0769,-3476.0264)" x="0" y="0"/>
<use xlink:href="#p0" content="2,山本整形外科,京都府相楽郡精華町祝園西１-２４祝園駅西ビル１Ｆ１０１,リウマチ科　整形外科　リハビリテーション科,,,9" xlink:title="山本整形外科" transform="ref(svg,13579.1235,-3476.1054)" x="0" y="0"/>
<use xlink:href="#p0" content="2,（特養）神の園医務室,京都府相楽郡精華町南稲八妻笛竹４１,内科　外科,,,9" xlink:title="（特養）神の園医務室" transform="ref(svg,13578.3189,-3476.2536)" x="0" y="0"/>
<use xlink:href="#p0" content="2,下里医院,京都府相楽郡精華町山田下川原２２-２,内科　婦人科　麻酔科,,,9" xlink:title="下里医院" transform="ref(svg,13579.23,-3473.6936)" x="0" y="0"/>
<use xlink:href="#p0" content="2,山田内科クリニック,京都府相楽郡精華町精華台２-１０-９４,内科　神経内科　リハビリテーション科,,,9" xlink:title="山田内科クリニック" transform="ref(svg,13578.2962,-3474.9557)" x="0" y="0"/>
<use xlink:href="#p0" content="2,岸田内科医院,京都府相楽郡精華町精華台２-１７-１０,内科　消化器内科,,,9" xlink:title="岸田内科医院" transform="ref(svg,13578.1689,-3475.1329)" x="0" y="0"/>
<use xlink:href="#p0" content="2,くわはらこどもクリニック,京都府相楽郡精華町精華台４-２１-１４,小児科,,,9" xlink:title="くわはらこどもクリニック" transform="ref(svg,13577.5287,-3475.2187)" x="0" y="0"/>
<use xlink:href="#p0" content="2,国立国会図書館関西館健康管理室,京都府相楽郡精華町精華台８-１-３,内科,,,9" xlink:title="国立国会図書館関西館健康管理室" transform="ref(svg,13577.2004,-3474.3233)" x="0" y="0"/>
<use xlink:href="#p0" content="2,（医）杉光会杉本整形外科医院,京都府相楽郡精華町精華台９-２-４アピタタウンけいはんな南館２階,リウマチ科　整形外科　リハビリテーション科,,,9" xlink:title="（医）杉光会杉本整形外科医院" transform="ref(svg,13577.0389,-3474.544)" x="0" y="0"/>
<use xlink:href="#p0" content="2,（医）創愛会えくにレディスクリニック,京都府相楽郡精華町精華台３-１２-２,産婦人科,,,9" xlink:title="（医）創愛会えくにレディスクリニック" transform="ref(svg,13578.1795,-3474.8352)" x="0" y="0"/>
<use xlink:href="#p0" content="2,（特養）セピアの園医務室,京都府京田辺市飯岡南原４１,内科,,,9" xlink:title="（特養）セピアの園医務室" transform="ref(svg,13579.4051,-3480.3643)" x="0" y="0"/>
<use xlink:href="#p0" content="2,同志社大学京田辺校地保健センター,京都府京田辺市興戸川原谷６１,内科,,,9" xlink:title="同志社大学京田辺校地保健センター" transform="ref(svg,13577.1167,-3480.299)" x="0" y="0"/>
<use xlink:href="#p0" content="2,（株）椿本チエイン京田辺工場健康相談室,京都府京田辺市田辺甘南備台１-１-３,内科,,,9" xlink:title="（株）椿本チエイン京田辺工場健康相談室" transform="ref(svg,13574.8804,-3480.2344)" x="0" y="0"/>
<use xlink:href="#p0" content="2,（特養）つつきの郷医務室,京都府京田辺市三山木西ノ河原４３-２,内科　皮膚科　外科　胃腸科,,,9" xlink:title="（特養）つつきの郷医務室" transform="ref(svg,13577.7844,-3480.0749)" x="0" y="0"/>
<use xlink:href="#p0" content="2,谷村医院,京都府京田辺市三山木田中３４,内科　耳鼻いんこう科,,,9" xlink:title="谷村医院" transform="ref(svg,13578.7119,-3479.8685)" x="0" y="0"/>
<use xlink:href="#p0" content="2,（医）芳松会三山木診療所,京都府京田辺市三山木田中６-２,内科　精神科,,,9" xlink:title="（医）芳松会三山木診療所" transform="ref(svg,13578.5538,-3479.7014)" x="0" y="0"/>
<use xlink:href="#p0" content="2,高橋医院,京都府京田辺市三山木東角田５-１,内科　外科　整形外科　皮膚泌尿器科　肛門科,,,9" xlink:title="高橋医院" transform="ref(svg,13578.2548,-3480.032)" x="0" y="0"/>
<use xlink:href="#p0" content="2,（医）石鎚会三山木中央クリニック,京都府京田辺市三山木柳ヶ町１４-１,小児科　整形外科,,,9" xlink:title="（医）石鎚会三山木中央クリニック" transform="ref(svg,13578.6177,-3479.6251)" x="0" y="0"/>
<use xlink:href="#p0" content="2,（医）昭理会池内皮膚科医院,京都府綴喜郡井手町井手橋ノ本１０,皮膚科　アレルギー科,,,9" xlink:title="（医）昭理会池内皮膚科医院" transform="ref(svg,13580.327,-3479.7528)" x="0" y="0"/>
<use xlink:href="#p0" content="2,（福）弥勒会いでの里医務室,京都府綴喜郡井手町井手弥勒１-１,内科,,,9" xlink:title="（福）弥勒会いでの里医務室" transform="ref(svg,13581.7804,-3479.8614)" x="0" y="0"/>
<use xlink:href="#p0" content="2,（医）岡林医院,京都府綴喜郡井手町井手里２-１,内科　小児科,,,9" xlink:title="（医）岡林医院" transform="ref(svg,13580.8455,-3479.9089)" x="0" y="0"/>
<use xlink:href="#p0" content="2,（医）讃高会穂谷クリニック,大阪府枚方市尊延寺６-２６-８,内科　整形外科,,,9" xlink:title="（医）讃高会穂谷クリニック" transform="ref(svg,13573.2024,-3480.1395)" x="0" y="0"/>
<use xlink:href="#p0" content="2,あだち耳鼻咽喉科,奈良県生駒郡平群町大字三里３８４-５,アレルギー科　耳鼻いんこう科,,,9" xlink:title="あだち耳鼻咽喉科" transform="ref(svg,13570.6466,-3462.9627)" x="0" y="0"/>
<use xlink:href="#p0" content="2,アベクリニック,奈良県生駒市さつき台２-４５１-３３,漢方内科　呼吸器内科　腎臓内科　人工透析内科　外科,,,9" xlink:title="アベクリニック" transform="ref(svg,13571.8512,-3467.331)" x="0" y="0"/>
<use xlink:href="#p0" content="2,石井クリニック,奈良県生駒市壱分町８３-４８,内科　消化器科,,,9" xlink:title="石井クリニック" transform="ref(svg,13571.6197,-3466.9194)" x="0" y="0"/>
<use xlink:href="#p0" content="2,石川眼科,奈良県生駒市辻町３９７-８東生駒８番館１Ｆ,眼科,,,9" xlink:title="石川眼科" transform="ref(svg,13570.9198,-3469.4002)" x="0" y="0"/>
<use xlink:href="#p0" content="2,稲倉クリニック,奈良県生駒市小明町５５１-１,眼科,,,9" xlink:title="稲倉クリニック" transform="ref(svg,13570.6239,-3470.587)" x="0" y="0"/>
<use xlink:href="#p0" content="2,（医）藤井整形外科,奈良県大和郡山市柳町１２８-９カイチビル２階,外科　整形外科　リハビリテーション科,,,9" xlink:title="（医）藤井整形外科" transform="ref(svg,13578.5742,-3464.5309)" x="0" y="0"/>
<use xlink:href="#p0" content="2,（医）石誠会いしむら整形外科,奈良県生駒郡平群町三里３８５-２,整形外科　リハビリテーション科,,,9" xlink:title="（医）石誠会いしむら整形外科" transform="ref(svg,13570.6531,-3462.9466)" x="0" y="0"/>
<use xlink:href="#p0" content="2,（医）植田医院,奈良県生駒市小瀬町５９-１,内科　消化器科　循環器科　小児科　眼科,,,9" xlink:title="（医）植田医院" transform="ref(svg,13570.9464,-3466.3743)" x="0" y="0"/>
<use xlink:href="#p0" content="2,（医）大塚医院,奈良県生駒市あすか野北１-２-１２,内科　小児科,,,9" xlink:title="（医）大塚医院" transform="ref(svg,13572.105,-3471.3287)" x="0" y="0"/>
<use xlink:href="#p0" content="2,（医）岡谷会片桐民主診療所,奈良県大和郡山市新町３０５-９２,内科　整形外科　泌尿器科　放射線科,,,9" xlink:title="（医）岡谷会片桐民主診療所" transform="ref(svg,13575.6653,-3464.0444)" x="0" y="0"/>
<use xlink:href="#p0" content="2,（医）おざきクリニック,奈良県大和郡山市九条町１３１１-１,内科　胃腸科　小児科　外科　リハビリテーション科,,,9" xlink:title="（医）おざきクリニック" transform="ref(svg,13578.3422,-3465.8367)" x="0" y="0"/>
<use xlink:href="#p0" content="2,（医）角谷整形外科医院,奈良県大和郡山市南郡山町５２０-１８大和郡山マインド２１４階４Ａ及び４Ｂ,リウマチ科　整形外科　リハビリテーション科,,,9" xlink:title="（医）角谷整形外科医院" transform="ref(svg,13578.1325,-3464.7159)" x="0" y="0"/>
<use xlink:href="#p0" content="2,（医）北浦医院東生駒診療所,奈良県生駒市東生駒１-７７-２,内科　循環器科　小児科,,,9" xlink:title="（医）北浦医院東生駒診療所" transform="ref(svg,13571.1041,-3469.046)" x="0" y="0"/>
<use xlink:href="#p0" content="2,（医）近藤整形外科,奈良県生駒市辻町３９９-５０トキワビル１階,外科　整形外科　リハビリテーション科,,,9" xlink:title="（医）近藤整形外科" transform="ref(svg,13570.9786,-3469.3749)" x="0" y="0"/>
<use xlink:href="#p0" content="2,（医）有山会有山診療所,奈良県生駒市高山町４２６１-１,内科,,,9" xlink:title="（医）有山会有山診療所" transform="ref(svg,13572.137,-3475.3278)" x="0" y="0"/>
<use xlink:href="#p0" content="2,（医）有山会鹿ノ台クリニック,奈良県生駒市鹿ノ台西１-１-８,内科,,,9" xlink:title="（医）有山会鹿ノ台クリニック" transform="ref(svg,13574.9437,-3473.5273)" x="0" y="0"/>
<use xlink:href="#p0" content="2,（医）宏義会宇山内科クリニック,奈良県生駒市東生駒２-２０７-１２０,内科　消化器内科,,,9" xlink:title="（医）宏義会宇山内科クリニック" transform="ref(svg,13571.4253,-3468.5741)" x="0" y="0"/>
<use xlink:href="#p0" content="2,（医）壽康会美並医院,奈良県大和郡山市下三橋町４３５-３,内科　精神科　神経内科　小児科,,,9" xlink:title="（医）壽康会美並医院" transform="ref(svg,13579.6058,-3464.6188)" x="0" y="0"/>
<use xlink:href="#p0" content="2,（医）しんたく小児クリニック,奈良県大和郡山市天井町２２３-１,アレルギー科　小児科,,,9" xlink:title="（医）しんたく小児クリニック" transform="ref(svg,13578.6265,-3463.8203)" x="0" y="0"/>
<use xlink:href="#p0" content="2,（医）杉本医院,奈良県生駒市真弓２-４-１１,内科　放射線科,,,9" xlink:title="（医）杉本医院" transform="ref(svg,13572.8157,-3472.2337)" x="0" y="0"/>
<use xlink:href="#p0" content="2,（医）砂川医院,奈良県大和郡山市堺町７２,内科　呼吸器科　胃腸科　循環器科　眼科　放射線科,,,9" xlink:title="（医）砂川医院" transform="ref(svg,13578.3578,-3465.1095)" x="0" y="0"/>
<use xlink:href="#p0" content="2,（医）田原クリニック,奈良県生駒市南田原３７７,内科　小児科,,,9" xlink:title="（医）田原クリニック" transform="ref(svg,13570.4169,-3472.2601)" x="0" y="0"/>
<use xlink:href="#p0" content="2,（医）坪井医院,奈良県大和郡山市泉原町１-１１８,内科　外科　リハビリテーション科,,,9" xlink:title="（医）坪井医院" transform="ref(svg,13574.7455,-3463.3775)" x="0" y="0"/>
<use xlink:href="#p0" content="2,（医）内藤眼科,奈良県生駒市東生駒１-５２１,眼科,,,9" xlink:title="（医）内藤眼科" transform="ref(svg,13571.597,-3468.6283)" x="0" y="0"/>
<use xlink:href="#p0" content="2,（医）白鳳会林産婦人科登美ヶ丘,奈良県生駒市鹿畑町５５-１,産婦人科,,,9" xlink:title="（医）白鳳会林産婦人科登美ヶ丘" transform="ref(svg,13575.4892,-3473.0754)" x="0" y="0"/>
<use xlink:href="#p0" content="2,（医）林整形外科医院,奈良県大和郡山市南郡山町２３６-３,リウマチ科　整形外科　リハビリテーション科,,,9" xlink:title="（医）林整形外科医院" transform="ref(svg,13578.1442,-3464.6194)" x="0" y="0"/>
<use xlink:href="#p0" content="2,（医）原整形外科,奈良県大和郡山市矢田山町５９-８,整形外科　リウマチ科　リハビリテーション科　外科,,,9" xlink:title="（医）原整形外科" transform="ref(svg,13574.6239,-3464.1682)" x="0" y="0"/>
<use xlink:href="#p0" content="2,（医）三橋医院,奈良県大和郡山市茶町２４-１,内科　小児科　放射線科,,,9" xlink:title="（医）三橋医院" transform="ref(svg,13578.752,-3464.9715)" x="0" y="0"/>
<use xlink:href="#p0" content="2,（医）やしき皮フ科,奈良県生駒市小平尾町４-１-２,皮膚科,,,9" xlink:title="（医）やしき皮フ科" transform="ref(svg,13570.7889,-3466.3162)" x="0" y="0"/>
<use xlink:href="#p0" content="2,（医）友隣会友隣クリニック,奈良県生駒市高山町１３６-８１,内科　外科　整形外科,,,9" xlink:title="（医）友隣会友隣クリニック" transform="ref(svg,13571.2054,-3476.7761)" x="0" y="0"/>
<use xlink:href="#p0" content="2,上田医院北和診療所,奈良県大和郡山市九条町３６２-２,内科　循環器科　小児科　リハビリテーション科　放射線科,,,9" xlink:title="上田医院北和診療所" transform="ref(svg,13578.2593,-3466.0198)" x="0" y="0"/>
<use xlink:href="#p0" content="2,梅川医院,奈良県生駒市中菜畑１-４９-１和州ビル２Ｆ,内科　消化器科,,,9" xlink:title="梅川医院" transform="ref(svg,13570.752,-3468.5107)" x="0" y="0"/>
<use xlink:href="#p0" content="2,占部医院,奈良県生駒市東菜畑１-３１０-７,内科　消化器科　婦人科,,,9" xlink:title="占部医院" transform="ref(svg,13571.536,-3468.6875)" x="0" y="0"/>
<use xlink:href="#p0" content="2,エイコクリニック,奈良県生駒市中菜畑２-１１０９-１,内科　リハビリテーション科,,,9" xlink:title="エイコクリニック" transform="ref(svg,13570.5667,-3468.0579)" x="0" y="0"/>
<use xlink:href="#p0" content="2,衞藤耳鼻咽喉科,奈良県生駒市真弓４-４-５　２階,アレルギー科　耳鼻いんこう科,,,9" xlink:title="衞藤耳鼻咽喉科" transform="ref(svg,13573.3311,-3471.7641)" x="0" y="0"/>
<use xlink:href="#p0" content="2,延寿医務室,奈良県生駒市小瀬町１１００,内科,,,9" xlink:title="延寿医務室" transform="ref(svg,13572.3171,-3466.4676)" x="0" y="0"/>
<use xlink:href="#p0" content="2,大沢眼科,奈良県大和郡山市柳町７０-１,眼科,,,9" xlink:title="大沢眼科" transform="ref(svg,13578.6177,-3464.366)" x="0" y="0"/>
<use xlink:href="#p0" content="2,おおすみ整形外科,奈良県生駒市小平尾町４-１-３,整形外科　リハビリテーション科,,,9" xlink:title="おおすみ整形外科" transform="ref(svg,13570.7776,-3466.3228)" x="0" y="0"/>
<use xlink:href="#p0" content="2,おおはぎ眼科,奈良県大和郡山市高田町９２-１４ハーベス大和郡山店２階,眼科,,,9" xlink:title="おおはぎ眼科" transform="ref(svg,13579.1155,-3464.7641)" x="0" y="0"/>
<use xlink:href="#p0" content="2,おかむら整形外科,奈良県大和郡山市九条町１８８-２,整形外科　リウマチ科　リハビリテーション科,,,9" xlink:title="おかむら整形外科" transform="ref(svg,13578.8169,-3465.8112)" x="0" y="0"/>
<use xlink:href="#p0" content="2,小川診療所,奈良県大和郡山市朝日町１-１８,内科　小児科　眼科,,,9" xlink:title="小川診療所" transform="ref(svg,13577.9973,-3464.677)" x="0" y="0"/>
<use xlink:href="#p0" content="2,奥村医院,奈良県大和郡山市美濃庄町北森下２９７-４４,内科　小児科　皮膚科,,,9" xlink:title="奥村医院" transform="ref(svg,13580.0973,-3464.0239)" x="0" y="0"/>
<use xlink:href="#p0" content="2,かきざきクリニック,奈良県大和郡山市本庄町２９７-１,内科　脳神経外科,,,9" xlink:title="かきざきクリニック" transform="ref(svg,13578.5348,-3463.5825)" x="0" y="0"/>
<use xlink:href="#p0" content="2,片山クリニック,奈良県大和郡山市九条町２９７-１ＫＹビル３階,心療内科　精神科,,,9" xlink:title="片山クリニック" transform="ref(svg,13578.3244,-3465.9328)" x="0" y="0"/>
<use xlink:href="#p0" content="2,勝間内科医院,奈良県生駒市さつき台２-４５１-２７,内科　消化器科,,,9" xlink:title="勝間内科医院" transform="ref(svg,13571.8639,-3467.4187)" x="0" y="0"/>
<use xlink:href="#p0" content="2,かなもと医院,奈良県生駒市真弓１-８-３,内科　消化器科　循環器科　小児科,,,9" xlink:title="かなもと医院" transform="ref(svg,13572.7047,-3472.1912)" x="0" y="0"/>
<use xlink:href="#p0" content="2,川本耳鼻咽喉科,奈良県大和郡山市高田町６-１,耳鼻いんこう科,,,9" xlink:title="川本耳鼻咽喉科" transform="ref(svg,13578.9406,-3464.8043)" x="0" y="0"/>
<use xlink:href="#p0" content="2,岸田小児科,奈良県大和郡山市南郡山町５２０-１マインド２１ビル５階,小児科,,,9" xlink:title="岸田小児科" transform="ref(svg,13578.1317,-3464.7186)" x="0" y="0"/>
<use xlink:href="#p0" content="2,木下クリニック,奈良県生駒市小平尾町４-１-１,内科　循環器科,,,9" xlink:title="木下クリニック" transform="ref(svg,13570.7798,-3466.3418)" x="0" y="0"/>
<use xlink:href="#p0" content="2,木村泌尿器科クリニック,奈良県生駒市北大和１-３-３,泌尿器科,,,9" xlink:title="木村泌尿器科クリニック" transform="ref(svg,13572.492,-3472.3876)" x="0" y="0"/>
<use xlink:href="#p0" content="2,久保診療所,奈良県生駒市萩の台１-２-２,内科　放射線科,,,9" xlink:title="久保診療所" transform="ref(svg,13570.9094,-3465.5962)" x="0" y="0"/>
<use xlink:href="#p0" content="2,くま内科,奈良県大和郡山市朝日町１-１３-２階,内科,,,9" xlink:title="くま内科" transform="ref(svg,13578.0479,-3464.6867)" x="0" y="0"/>
<use xlink:href="#p0" content="2,黒田小児科,奈良県大和郡山市野垣内町２-２,小児科,,,9" xlink:title="黒田小児科" transform="ref(svg,13579.0221,-3465.0588)" x="0" y="0"/>
<use xlink:href="#p0" content="2,郡山いむらクリニック,奈良県大和郡山市田中町７６３,内科　外科　皮膚科　消化器内科　神経内科　緩和ケア内科,,,9" xlink:title="郡山いむらクリニック" transform="ref(svg,13576.7948,-3464.4556)" x="0" y="0"/>
<use xlink:href="#p0" content="2,（医）米田医院,奈良県生駒市鹿ノ台東２-４-８,内科　胃腸科　小児科,,,9" xlink:title="（医）米田医院" transform="ref(svg,13575.1385,-3473.5963)" x="0" y="0"/>
<use xlink:href="#p0" content="2,阪倉クリニック,奈良県生駒市白庭台３-１５-５,内科　外科　リハビリテーション科,,,9" xlink:title="阪倉クリニック" transform="ref(svg,13571.5755,-3472.3598)" x="0" y="0"/>
<use xlink:href="#p0" content="2,さくらい眼科,奈良県生駒市真弓南２-６-５,眼科,,,9" xlink:title="さくらい眼科" transform="ref(svg,13573.3447,-3471.7188)" x="0" y="0"/>
<use xlink:href="#p0" content="2,佐野耳鼻科,奈良県大和郡山市高田町９２-１４,耳鼻いんこう科,,,9" xlink:title="佐野耳鼻科" transform="ref(svg,13579.1195,-3464.7606)" x="0" y="0"/>
<use xlink:href="#p0" content="2,沢井小児科医院,奈良県生駒市萩の台３-１０-２９,内科　小児科,,,9" xlink:title="沢井小児科医院" transform="ref(svg,13571.1543,-3465.5356)" x="0" y="0"/>
<use xlink:href="#p0" content="2,柴田医院,奈良県大和高田市春日町１-８-３６,内科　外科　整形外科　皮膚科　リハビリテーション科　放射線科,,,9" xlink:title="柴田医院" transform="ref(svg,13578.9406,-3464.8043)" x="0" y="0"/>
<use xlink:href="#p0" content="2,シャープ（健保）奈良健康管理室,奈良県大和郡山市美濃庄町４９２,内科,,,9" xlink:title="シャープ（健保）奈良健康管理室" transform="ref(svg,13581.1933,-3464.252)" x="0" y="0"/>
<use xlink:href="#p0" content="2,晋栄福祉会診療所,奈良県生駒市高山町８０３０,内科　精神科　整形外科,,,9" xlink:title="晋栄福祉会診療所" transform="ref(svg,13572.6384,-3472.8065)" x="0" y="0"/>
<use xlink:href="#p0" content="2,杉森内科胃腸科,奈良県生駒市東生駒４-３９８-１６６,内科　消化器科,,,9" xlink:title="杉森内科胃腸科" transform="ref(svg,13571.8031,-3468.0144)" x="0" y="0"/>
<use xlink:href="#p0" content="2,杉山医院,奈良県大和郡山市大字本５２,内科　小児科　外科　皮膚泌尿器科　性病科　放射線科,,,9" xlink:title="杉山医院" transform="ref(svg,13578.5161,-3465.1277)" x="0" y="0"/>
<use xlink:href="#p0" content="2,杉山小児科,奈良県大和郡山市本町５２,内科　小児科　外科　放射線科,,,9" xlink:title="杉山小児科" transform="ref(svg,13578.5175,-3465.1151)" x="0" y="0"/>
<use xlink:href="#p0" content="2,関谷医院,奈良県大和郡山市南郡山町５３９-９,内科　外科,,,9" xlink:title="関谷医院" transform="ref(svg,13578.231,-3464.6943)" x="0" y="0"/>
<use xlink:href="#p0" content="2,大和郷附属ヤマザキ診療所,奈良県生駒郡平群町上庄２-１-１９,内科　リハビリテーション科,,,9" xlink:title="大和郷附属ヤマザキ診療所" transform="ref(svg,13570.3448,-3463.962)" x="0" y="0"/>
<use xlink:href="#p0" content="2,高樹医院,奈良県大和郡山市南郡山町２２６-２,内科　消化器科,,,9" xlink:title="高樹医院" transform="ref(svg,13578.1292,-3464.5612)" x="0" y="0"/>
<use xlink:href="#p0" content="2,たかだこどもクリニック,奈良県生駒市山崎町２１-２８,小児科,,,9" xlink:title="たかだこどもクリニック" transform="ref(svg,13570.8169,-3468.8591)" x="0" y="0"/>
<use xlink:href="#p0" content="2,高原皮膚科医院,奈良県大和郡山市朝日町１-１６フラワービル２階,皮膚科,,,9" xlink:title="高原皮膚科医院" transform="ref(svg,13578.026,-3464.6835)" x="0" y="0"/>
<use xlink:href="#p0" content="2,高山ちどり医務室,奈良県生駒市高山町８０３０,内科　精神科　整形外科,,,9" xlink:title="高山ちどり医務室" transform="ref(svg,13572.6384,-3472.8065)" x="0" y="0"/>
<use xlink:href="#p0" content="2,田北医院,奈良県大和郡山市柳３-３５,内科　呼吸器科,,,9" xlink:title="田北医院" transform="ref(svg,13578.2968,-3464.6703)" x="0" y="0"/>
<use xlink:href="#p0" content="2,田口クリニック,奈良県生駒市有里町３１,内科　消化器科　小児科　外科　整形外科　リハビリテーション科,,,9" xlink:title="田口クリニック" transform="ref(svg,13570.7319,-3467.0068)" x="0" y="0"/>
<use xlink:href="#p0" content="2,竹内小児科,奈良県生駒市東生駒１-７７-５,小児科,,,9" xlink:title="竹内小児科" transform="ref(svg,13571.1631,-3469.034)" x="0" y="0"/>
<use xlink:href="#p0" content="2,たつみ整形外科形成外科医院,奈良県生駒市あすか野南２-１-１２あすか野グリーンビル１Ｆ,整形外科　形成外科,,,9" xlink:title="たつみ整形外科形成外科医院" transform="ref(svg,13571.8516,-3471.18)" x="0" y="0"/>
<use xlink:href="#p0" content="2,田中内科クリニック,奈良県生駒市東菜畑１-３１０-７,内科　循環器科　リハビリテーション科,,,9" xlink:title="田中内科クリニック" transform="ref(svg,13571.536,-3468.6875)" x="0" y="0"/>
<use xlink:href="#p0" content="2,長命荘診療所,奈良県生駒市北田原町２４２９-４,内科,,,9" xlink:title="長命荘診療所" transform="ref(svg,13571.0749,-3473.2436)" x="0" y="0"/>
<use xlink:href="#p0" content="2,辻産婦人科,奈良県生駒市壱分町８３-５５,産婦人科,,,9" xlink:title="辻産婦人科" transform="ref(svg,13571.548,-3466.9415)" x="0" y="0"/>
<use xlink:href="#p0" content="2,辻村医院,奈良県大和郡山市柳町１９８-２,内科　産婦人科　放射線科,,,9" xlink:title="辻村医院" transform="ref(svg,13578.4011,-3464.3719)" x="0" y="0"/>
<use xlink:href="#p0" content="2,つばきもと医院,奈良県生駒市小瀬町３０８-１,内科　外科　こう門科,,,9" xlink:title="つばきもと医院" transform="ref(svg,13571.801,-3466.2732)" x="0" y="0"/>
<use xlink:href="#p0" content="2,どいクリニック,奈良県生駒市南田原町１０３８,小児科,,,9" xlink:title="どいクリニック" transform="ref(svg,13570.49,-3471.3866)" x="0" y="0"/>
<use xlink:href="#p0" content="2,（特養）清寿苑医務室,奈良県天理市中之庄町５３２-１,内科,,,9" xlink:title="（特養）清寿苑医務室" transform="ref(svg,13584.2686,-3463.6568)" x="0" y="0"/>
<use xlink:href="#p0" content="2,（特養）フォレストホーム,奈良県生駒市北田原町２４２９-４,内科,,,9" xlink:title="（特養）フォレストホーム" transform="ref(svg,13571.0749,-3473.2436)" x="0" y="0"/>
<use xlink:href="#p0" content="2,（特養）大和園平和医務室,奈良県大和郡山市美濃庄町２３６-１,内科,,,9" xlink:title="（特養）大和園平和医務室" transform="ref(svg,13580.6342,-3463.9325)" x="0" y="0"/>
<use xlink:href="#p0" content="2,（特養）瑞祥苑診療所,奈良県大和郡山市矢田町端田４７３９-４,内科　整形外科,,,9" xlink:title="（特養）瑞祥苑診療所" transform="ref(svg,13575.0036,-3464.9088)" x="0" y="0"/>
<use xlink:href="#p0" content="2,（医）友岡診療所,奈良県生駒市辻町３９７-８東生駒番館２階,内科　循環器科　リハビリテーション科,,,9" xlink:title="（医）友岡診療所" transform="ref(svg,13570.9287,-3469.3852)" x="0" y="0"/>
<use xlink:href="#p0" content="2,豊原クリニック,奈良県大和郡山市九条町１８８-２,内科　消化器内科　胃腸内科,,,9" xlink:title="豊原クリニック" transform="ref(svg,13578.8169,-3465.8112)" x="0" y="0"/>
<use xlink:href="#p0" content="2,中島医院,奈良県大和郡山市柳５-１６,内科　脳神経外科　リハビリテーション科,,,9" xlink:title="中島医院" transform="ref(svg,13578.3205,-3464.2936)" x="0" y="0"/>
<use xlink:href="#p0" content="2,なか小児科,奈良県大和郡山市外川町７５,小児科,,,9" xlink:title="なか小児科" transform="ref(svg,13576.7792,-3464.4855)" x="0" y="0"/>
<use xlink:href="#p0" content="2,中村メンタルクリニック,奈良県大和郡山市朝日町１-２２フクオカビル本館１階,心療内科　精神科　神経科,,,9" xlink:title="中村メンタルクリニック" transform="ref(svg,13577.9723,-3464.6734)" x="0" y="0"/>
<use xlink:href="#p0" content="2,奈良県郡山保健所診療所,奈良県大和郡山市満願寺町６０-１,内科　小児科,,,9" xlink:title="奈良県郡山保健所診療所" transform="ref(svg,13576.5079,-3463.5166)" x="0" y="0"/>
<use xlink:href="#p0" content="2,奈良先端科学技術大学院大学保健管理センター,奈良県生駒市高山町８９１６-５,内科　精神科,,,9" xlink:title="奈良先端科学技術大学院大学保健管理センター" transform="ref(svg,13573.4691,-3473.2126)" x="0" y="0"/>
<use xlink:href="#p0" content="2,西村歯科クリニック,奈良県生駒市さつき台２-４５１-３１,歯科,,,9" xlink:title="西村歯科クリニック" transform="ref(svg,13571.8723,-3467.4979)" x="0" y="0"/>
<use xlink:href="#p0" content="2,寧楽の郷医務室,奈良県大和郡山市新町９９１,内科　循環器科　外科　整形外科　皮膚科　放射線科,,,9" xlink:title="寧楽の郷医務室" transform="ref(svg,13573.8631,-3463.5015)" x="0" y="0"/>
<use xlink:href="#p0" content="2,萩の台住宅地診療所,奈良県生駒市萩の台３-１-８,内科　外科,,,9" xlink:title="萩の台住宅地診療所" transform="ref(svg,13571.0101,-3465.3897)" x="0" y="0"/>
<use xlink:href="#p0" content="2,はぎはらクリニック,奈良県生駒市真弓４-４-７,内科　外科,,,9" xlink:title="はぎはらクリニック" transform="ref(svg,13573.3527,-3471.754)" x="0" y="0"/>
<use xlink:href="#p0" content="2,はしもとクリニック,奈良県生駒郡平群町三里３８４-１,内科　消化器科,,,9" xlink:title="はしもとクリニック" transform="ref(svg,13570.6404,-3462.9901)" x="0" y="0"/>
<use xlink:href="#p0" content="2,はちすか内科,奈良県大和郡山市柳町１２８-９カイチビル５Ｆ,内科　呼吸器科　循環器科,,,9" xlink:title="はちすか内科" transform="ref(svg,13578.553,-3464.5341)" x="0" y="0"/>
<use xlink:href="#p0" content="2,はばた整形外科,奈良県大和郡山市田中町７６６-１,整形外科　リハビリテーション科,,,9" xlink:title="はばた整形外科" transform="ref(svg,13576.7945,-3464.4248)" x="0" y="0"/>
<use xlink:href="#p0" content="2,林医院,奈良県大和郡山市柳１-１８-１,内科　皮膚科　泌尿器科　婦人科,,,9" xlink:title="林医院" transform="ref(svg,13578.3079,-3464.821)" x="0" y="0"/>
<use xlink:href="#p0" content="2,平岡クリニック,奈良県生駒市高山町７７４７-１,産科　婦人科,,,9" xlink:title="平岡クリニック" transform="ref(svg,13572.0068,-3472.7973)" x="0" y="0"/>
<use xlink:href="#p0" content="2,ひらた泌尿器科クリニック,奈良県大和郡山市柳町１２８-９カイチビル４Ｆ,泌尿器科,,,9" xlink:title="ひらた泌尿器科クリニック" transform="ref(svg,13578.5742,-3464.5309)" x="0" y="0"/>
<use xlink:href="#p0" content="2,福田医院,奈良県生駒市東生駒１-７７-１０,アレルギー科　耳鼻いんこう科,,,9" xlink:title="福田医院" transform="ref(svg,13571.0895,-3469.0503)" x="0" y="0"/>
<use xlink:href="#p0" content="2,ふじわら整形外科,奈良県大和郡山市矢田町６５５４-１ヨークビル１階,リウマチ科　外科　整形外科　リハビリテーション科,,,9" xlink:title="ふじわら整形外科" transform="ref(svg,13574.7599,-3463.2183)" x="0" y="0"/>
<use xlink:href="#p0" content="2,松井内科,奈良県生駒郡平群町菊美台１-７-５宝栄辰巳ビル２Ｆ-１,内科,,,9" xlink:title="松井内科" transform="ref(svg,13570.8668,-3464.8149)" x="0" y="0"/>
<use xlink:href="#p0" content="2,松岡内科医院,奈良県大和郡山市泉原町１-１３４,内科　胃腸科　循環器科　放射線科,,,9" xlink:title="松岡内科医院" transform="ref(svg,13574.5868,-3463.5197)" x="0" y="0"/>
<use xlink:href="#p0" content="2,マツオメディカルクリニック,奈良県生駒市ひかりが丘１-１-１,内科　消化器科,,,9" xlink:title="マツオメディカルクリニック" transform="ref(svg,13571.3266,-3473.9298)" x="0" y="0"/>
<use xlink:href="#p0" content="2,松田医院,奈良県大和郡山市永慶寺３-２２,内科　産婦人科,,,9" xlink:title="松田医院" transform="ref(svg,13577.5556,-3464.7704)" x="0" y="0"/>
<use xlink:href="#p0" content="2,まつたハートクリニック,奈良県大和郡山市本庄町２４７-１,内科　循環器科　外科　心臓血管外科　リハビリテーション科,,,9" xlink:title="まつたハートクリニック" transform="ref(svg,13578.2765,-3463.3237)" x="0" y="0"/>
<use xlink:href="#p0" content="2,松本内科クリニック,奈良県大和郡山市高田町９２-１４ハーベス２Ｆ,内科,,,9" xlink:title="松本内科クリニック" transform="ref(svg,13579.1155,-3464.7641)" x="0" y="0"/>
<use xlink:href="#p0" content="2,まつやま整形外科クリニック,奈良県生駒市東菜畑１-３１０-６サニーハイツ１階,整形外科　リハビリテーション科,,,9" xlink:title="まつやま整形外科クリニック" transform="ref(svg,13571.5371,-3468.6965)" x="0" y="0"/>
<use xlink:href="#p0" content="2,三橋仁美レディースクリニック,奈良県大和郡山市矢田町通１９,内科　婦人科,,,9" xlink:title="三橋仁美レディースクリニック" transform="ref(svg,13578.5269,-3464.7017)" x="0" y="0"/>
<use xlink:href="#p0" content="2,森外科整形外科医院,奈良県大和郡山市高田町９-１８,外科　整形外科　皮膚科　リハビリテーション科,,,9" xlink:title="森外科整形外科医院" transform="ref(svg,13578.9653,-3464.8607)" x="0" y="0"/>
<use xlink:href="#p0" content="2,森下眼科クリニック,奈良県大和郡山市田中町７６６-１,眼科,,,9" xlink:title="森下眼科クリニック" transform="ref(svg,13576.7938,-3464.4412)" x="0" y="0"/>
<use xlink:href="#p0" content="2,守屋医院,奈良県大和郡山市千日町６-１,内科　消化器科　小児科　放射線科,,,9" xlink:title="守屋医院" transform="ref(svg,13575.9214,-3464.5664)" x="0" y="0"/>
<use xlink:href="#p0" content="2,守屋内科医院,奈良県生駒市あすか野南２-１-１２,内科　小児科　放射線科,,,9" xlink:title="守屋内科医院" transform="ref(svg,13571.8382,-3471.1759)" x="0" y="0"/>
<use xlink:href="#p0" content="2,矢田の郷診療所,奈良県大和郡山市新町９９１,内科　呼吸器科　消化器科　循環器科　外科　整形外科　歯科,,,9" xlink:title="矢田の郷診療所" transform="ref(svg,13573.8631,-3463.5015)" x="0" y="0"/>
<use xlink:href="#p0" content="2,矢田山診療所,奈良県大和郡山市矢田山町５８,内科　循環器内科　消化器内科,,,9" xlink:title="矢田山診療所" transform="ref(svg,13574.6694,-3464.1632)" x="0" y="0"/>
<use xlink:href="#p0" content="2,山上内科医院,奈良県生駒市小明町５５４-１西口ビル１Ｆ,消化器科　循環器科,,,9" xlink:title="山上内科医院" transform="ref(svg,13570.5815,-3470.6266)" x="0" y="0"/>
<use xlink:href="#p0" content="2,やました医院,奈良県生駒市南田原町１０３９,脳神経外科　リハビリテーション科,,,9" xlink:title="やました医院" transform="ref(svg,13570.4547,-3471.3903)" x="0" y="0"/>
<use xlink:href="#p0" content="2,山科皮膚科医院,奈良県大和郡山市高田町９２-１４,皮膚科,,,9" xlink:title="山科皮膚科医院" transform="ref(svg,13579.12,-3464.7607)" x="0" y="0"/>
<use xlink:href="#p0" content="2,大和郡山市立休日応急診療所,奈良県大和郡山市本庄町３１７-２,内科　小児科,,,9" xlink:title="大和郡山市立休日応急診療所" transform="ref(svg,13578.7563,-3463.7731)" x="0" y="0"/>
<use xlink:href="#p0" content="2,山中医院,奈良県大和郡山市柳３-１４,内科　外科　皮膚科　泌尿器科　こう門科　放射線科,,,9" xlink:title="山中医院" transform="ref(svg,13578.3512,-3464.595)" x="0" y="0"/>
<use xlink:href="#p0" content="2,山本耳鼻咽喉科医院,奈良県大和郡山市南郡山町５２０-１近鉄郡山駅前ビルマインド２１　７階,耳鼻いんこう科　気管食道科,,,9" xlink:title="山本耳鼻咽喉科医院" transform="ref(svg,13578.137,-3464.7113)" x="0" y="0"/>
<use xlink:href="#p0" content="2,山本スキンクリニック,奈良県生駒市山崎町４-５ＮＤＡビル２Ｆ,形成外科　美容外科　皮膚科,,,9" xlink:title="山本スキンクリニック" transform="ref(svg,13570.8657,-3469.1571)" x="0" y="0"/>
<use xlink:href="#p0" content="2,養護老人ホームかんざん園医務室,奈良県大和郡山市南大工町１-１３,内科,,,9" xlink:title="養護老人ホームかんざん園医務室" transform="ref(svg,13578.3828,-3464.4452)" x="0" y="0"/>
<use xlink:href="#p0" content="2,吉永医院,奈良県生駒市東生駒１-７７-８,皮膚科,,,9" xlink:title="吉永医院" transform="ref(svg,13571.2191,-3469.0198)" x="0" y="0"/>
<use xlink:href="#p0" content="2,米田眼科,奈良県大和郡山市朝日町５２０-５８,眼科,,,9" xlink:title="米田眼科" transform="ref(svg,13578.0529,-3464.6873)" x="0" y="0"/>
<use xlink:href="#p0" content="2,わかくさ眼科,奈良県大和郡山市下三橋町７４１-１６５イオンモール大和郡山１Ｆ,眼科,,,9" xlink:title="わかくさ眼科" transform="ref(svg,13580.2174,-3465.1129)" x="0" y="0"/>
<use xlink:href="#p0" content="2,渡邉内科外科クリニック,奈良県生駒市北大和１-３-１,内科　胃腸科　外科　こう門科,,,9" xlink:title="渡邉内科外科クリニック" transform="ref(svg,13572.494,-3472.3878)" x="0" y="0"/>
<use xlink:href="#p0" content="2,タケモトクリニック,奈良県大和郡山市上三橋２３１-１,漢方内科,,,9" xlink:title="タケモトクリニック" transform="ref(svg,13580.9058,-3464.6141)" x="0" y="0"/>
</g>
</svg>
