<?xml version="1.0" encoding="UTF-8"?>
<svg  xmlns="http://www.w3.org/2000/svg" xmlns:xlink="http://www.w3.org/1999/xlink" xmlns:go="http://purl.org/svgmap/profile" property="医療機関分類,施設名称,所在地,診療科目１,診療科目２,診療科目３,開設者分類" viewBox="13851.5625 -3761.71875 35.15625 35.15625" go:dataArea="13851.5625 -3761.71875 35.15625 35.15625" >
<metadata>
 <rdf:RDF xmlns:rdf="http://www.w3.org/1999/02/22-rdf-syntax-ns#" xmlns:crs="http://opengis.org/xmldtds/transformations.dtd" xmlns:svg="http://www.w3.org/svg" >
  <rdf:Description>
   <crs:CoordinateReferenceSystem rdf:resource="http://purl.org/crs/84" svg:transform="matrix(100.0,0.0,0.0,-100.0,0.0,0.0)" />
  </rdf:Description>
 </rdf:RDF>
</metadata>
<globalCoordinateSystem srsName="http://purl.org/crs/84" transform="matrix(100.0,0.0,0.0,-100.0,0.0,0.0)" />
<defs>
 <g id="p0" >
  <image xlink:href="mappin.png" preserveAspectRatio="none" x="-8" y="-25" width="19" height="27"/>
 </g>
 <g id="p1" >
  <image xlink:href="mappin1.png" preserveAspectRatio="none" x="-8" y="-25" width="19" height="27"/>
 </g>
 <g id="p2" >
  <image xlink:href="mappin2.png" preserveAspectRatio="none" x="-8" y="-25" width="19" height="27"/>
 </g>
 <g id="p3" >
  <image xlink:href="mappin3.png" preserveAspectRatio="none" x="-8" y="-25" width="19" height="27"/>
 </g>
 <g id="p4" >
  <image xlink:href="mappin4.png" preserveAspectRatio="none" x="-8" y="-25" width="19" height="27"/>
 </g>
 <g id="p5" >
  <image xlink:href="mappin5.png" preserveAspectRatio="none" x="-8" y="-25" width="19" height="27"/>
 </g>
 <g id="p6" >
  <image xlink:href="mappin6.png" preserveAspectRatio="none" x="-8" y="-25" width="19" height="27"/>
 </g>
 <g id="p7" >
  <image xlink:href="mappin7.png" preserveAspectRatio="none" x="-8" y="-25" width="19" height="27"/>
 </g>
 <g id="p8" >
  <image xlink:href="mappin8.png" preserveAspectRatio="none" x="-8" y="-25" width="19" height="27"/>
 </g>
 <g id="p9" >
  <image xlink:href="mappin9.png" preserveAspectRatio="none" x="-8" y="-25" width="19" height="27"/>
 </g>
</defs>
<g fill="green" fill-rule="evenodd" >
<use xlink:href="#p0" content="2,パナソニック（株）エコソリューションズ社新潟工場健康管理室,新潟県燕市大川津字島畑１１１５,内科,,,9" xlink:title="パナソニック（株）エコソリューションズ社新潟工場健康管理室" transform="ref(svg,13884.7192,-3761.5032)" x="0" y="0"/>
<use xlink:href="#p0" content="2,アイ内科クリニック,新潟県長岡市城内町１-６１１-１ＣＯＣＯＬＯ長岡２階,内科,,,9" xlink:title="アイ内科クリニック" transform="ref(svg,13885.405,-3744.8306)" x="0" y="0"/>
<use xlink:href="#p0" content="2,青柳医院,新潟県長岡市四郎丸２-４-１２,内科　神経内科,,,9" xlink:title="青柳医院" transform="ref(svg,13885.5833,-3744.0728)" x="0" y="0"/>
<use xlink:href="#p0" content="2,明石医院,新潟県長岡市摂田屋町字下カンノコ７６３-１,産科　婦人科,,,9" xlink:title="明石医院" transform="ref(svg,13884.7158,-3741.2656)" x="0" y="0"/>
<use xlink:href="#p0" content="2,味方医院,新潟県長岡市中島４-１３-２８,内科　消化器内科,,,9" xlink:title="味方医院" transform="ref(svg,13884.7657,-3745.3066)" x="0" y="0"/>
<use xlink:href="#p0" content="2,阿部アイクリニック,新潟県長岡市新保１-２１-１,眼科,,,9" xlink:title="阿部アイクリニック" transform="ref(svg,13886.6591,-3746.3097)" x="0" y="0"/>
<use xlink:href="#p0" content="2,あべ内科クリニック,新潟県長岡市鉄工町１-１-４０,内科　呼吸器内科　アレルギー科,,,9" xlink:title="あべ内科クリニック" transform="ref(svg,13883.0023,-3747.0082)" x="0" y="0"/>
<use xlink:href="#p0" content="2,石川内科クリニック,新潟県長岡市西宮内２-９２-２,内科　消化器内科　小児科　放射線科,,,9" xlink:title="石川内科クリニック" transform="ref(svg,13883.7616,-3742.8849)" x="0" y="0"/>
<use xlink:href="#p0" content="2,市川医院,新潟県長岡市山田２-４-１３,内科,,,9" xlink:title="市川医院" transform="ref(svg,13883.9046,-3744.6031)" x="0" y="0"/>
<use xlink:href="#p0" content="2,伊藤皮膚科クリニック,新潟県長岡市四郎丸４-６-１８,皮膚科,,,9" xlink:title="伊藤皮膚科クリニック" transform="ref(svg,13885.5973,-3744.3906)" x="0" y="0"/>
<use xlink:href="#p0" content="2,茨木医院,新潟県長岡市殿町２-３-１０,眼科,,,9" xlink:title="茨木医院" transform="ref(svg,13884.9412,-3744.5128)" x="0" y="0"/>
<use xlink:href="#p0" content="2,今井整形外科クリニック,新潟県長岡市左近３-６２-１,リウマチ科　整形外科　リハビリテーション科,,,9" xlink:title="今井整形外科クリニック" transform="ref(svg,13883.7739,-3743.1902)" x="0" y="0"/>
<use xlink:href="#p0" content="2,いまい皮膚科医院,新潟県長岡市関原町２-１３６,皮膚科,,,9" xlink:title="いまい皮膚科医院" transform="ref(svg,13877.4295,-3745.3646)" x="0" y="0"/>
<use xlink:href="#p0" content="2,井村整形外科医院,新潟県長岡市大島本町５-１１５-１０,リウマチ科　整形外科　リハビリテーション科,,,9" xlink:title="井村整形外科医院" transform="ref(svg,13881.8283,-3744.5291)" x="0" y="0"/>
<use xlink:href="#p0" content="2,内山耳鼻咽喉科医院,新潟県長岡市豊田町７-１,耳鼻咽喉科,,,9" xlink:title="内山耳鼻咽喉科医院" transform="ref(svg,13885.5526,-3742.9195)" x="0" y="0"/>
<use xlink:href="#p0" content="2,江部医院,新潟県長岡市千手３-１０-１２,内科　呼吸器内科,,,9" xlink:title="江部医院" transform="ref(svg,13884.2486,-3744.5658)" x="0" y="0"/>
<use xlink:href="#p0" content="2,王見台診療所,新潟県長岡市王番田町２９００,内科　整形外科,,,9" xlink:title="王見台診療所" transform="ref(svg,13885.1277,-3744.6265)" x="0" y="0"/>
<use xlink:href="#p0" content="2,おおじま心療クリニック,新潟県長岡市緑町１-甲１１７７-６９,精神科　心療内科,,,9" xlink:title="おおじま心療クリニック" transform="ref(svg,13882.2125,-3744.7598)" x="0" y="0"/>
<use xlink:href="#p0" content="2,大関医院,新潟県長岡市新町２-４-１５,内科　消化器内科　小児科,,,9" xlink:title="大関医院" transform="ref(svg,13885.7513,-3746.3627)" x="0" y="0"/>
<use xlink:href="#p0" content="2,大関眼科医院,新潟県長岡市新町２-４-１５,眼科,,,9" xlink:title="大関眼科医院" transform="ref(svg,13885.7509,-3746.3614)" x="0" y="0"/>
<use xlink:href="#p0" content="2,太田こどもクリニック,新潟県長岡市新町１-２-２９,アレルギー科　小児科,,,9" xlink:title="太田こどもクリニック" transform="ref(svg,13885.52,-3745.9941)" x="0" y="0"/>
<use xlink:href="#p0" content="2,大塚こども医院,新潟県長岡市台町１-８-２,アレルギー科　小児科,,,9" xlink:title="大塚こども医院" transform="ref(svg,13885.4023,-3744.4597)" x="0" y="0"/>
<use xlink:href="#p0" content="2,大手大橋眼科クリニック,新潟県長岡市緑町１-２１６-１,眼科,,,9" xlink:title="大手大橋眼科クリニック" transform="ref(svg,13882.228,-3745.2583)" x="0" y="0"/>
<use xlink:href="#p0" content="2,大貫内科医院,新潟県長岡市大島新町４-１２１-１４,内科　消化器内科　放射線科,,,9" xlink:title="大貫内科医院" transform="ref(svg,13881.9046,-3744.6224)" x="0" y="0"/>
<use xlink:href="#p0" content="2,おくがわ小児クリニック,新潟県長岡市古正寺１-２８３８,アレルギー科　小児科,,,9" xlink:title="おくがわ小児クリニック" transform="ref(svg,13882.1451,-3745.5222)" x="0" y="0"/>
<use xlink:href="#p0" content="2,片桐医院,新潟県長岡市上除町西２-５４,内科　小児科　放射線科,,,9" xlink:title="片桐医院" transform="ref(svg,13877.841,-3745.2413)" x="0" y="0"/>
<use xlink:href="#p0" content="2,金沢医院,新潟県長岡市曲新町５９３,内科　外科,,,9" xlink:title="金沢医院" transform="ref(svg,13884.6147,-3741.9766)" x="0" y="0"/>
<use xlink:href="#p0" content="2,加納耳鼻咽喉科医院,新潟県長岡市大山２-８-４,アレルギー科　耳鼻咽喉科,,,9" xlink:title="加納耳鼻咽喉科医院" transform="ref(svg,13881.7057,-3744.1862)" x="0" y="0"/>
<use xlink:href="#p0" content="2,神谷医院,新潟県長岡市柏町２-６-３０,内科　消化器内科　皮膚科　外科　肛門外科,,,9" xlink:title="神谷医院" transform="ref(svg,13884.5897,-3744.4829)" x="0" y="0"/>
<use xlink:href="#p0" content="2,かわじ整形外科,新潟県長岡市美沢２-５５-１,リウマチ科　整形外科　リハビリテーション科,,,9" xlink:title="かわじ整形外科" transform="ref(svg,13886.4936,-3744.0618)" x="0" y="0"/>
<use xlink:href="#p0" content="2,生協かんだ診療所,新潟県長岡市西新町２-３-２２,内科　呼吸器内科　循環器内科　消化器内科　リハビリテーション科,,,9" xlink:title="生協かんだ診療所" transform="ref(svg,13885.4996,-3746.557)" x="0" y="0"/>
<use xlink:href="#p0" content="2,木口内科クリニック,新潟県長岡市美沢２-５７-８,内科　呼吸器内科　アレルギー科,,,9" xlink:title="木口内科クリニック" transform="ref(svg,13886.4978,-3744.102)" x="0" y="0"/>
<use xlink:href="#p0" content="2,喜多町診療所,新潟県長岡市喜多町１０９０-１,内科,,,9" xlink:title="喜多町診療所" transform="ref(svg,13880.8338,-3744.9211)" x="0" y="0"/>
<use xlink:href="#p0" content="2,草間医院,新潟県長岡市表町４-１-３,内科　消化器内科　外科　肛門外科,,,9" xlink:title="草間医院" transform="ref(svg,13884.8424,-3745.1169)" x="0" y="0"/>
<use xlink:href="#p0" content="2,窪田医院,新潟県長岡市三和１-３-２７,内科,,,9" xlink:title="窪田医院" transform="ref(svg,13884.3412,-3743.2743)" x="0" y="0"/>
<use xlink:href="#p0" content="2,黒条内科診療所,新潟県長岡市下々条町２８３６-１,内科,,,9" xlink:title="黒条内科診療所" transform="ref(svg,13886.1974,-3749.3774)" x="0" y="0"/>
<use xlink:href="#p0" content="2,コープクリニック,新潟県長岡市台町２-８-３５コープビル２階,内科　精神科,,,9" xlink:title="コープクリニック" transform="ref(svg,13885.5549,-3744.6515)" x="0" y="0"/>
<use xlink:href="#p0" content="2,（特養）岡南の郷医務室,新潟県長岡市渡沢町字早田５３,内科　呼吸器内科　外科,,,9" xlink:title="（特養）岡南の郷医務室" transform="ref(svg,13884.5778,-3737.8279)" x="0" y="0"/>
<use xlink:href="#p0" content="2,江陽医院,新潟県長岡市江陽１-３-２５,内科　消化器内科　外科,,,9" xlink:title="江陽医院" transform="ref(svg,13883.9222,-3747.6187)" x="0" y="0"/>
<use xlink:href="#p0" content="2,小林真紀子レディース・クリニック,新潟県長岡市堤町５-４５,内科　産婦人科,,,9" xlink:title="小林真紀子レディース・クリニック" transform="ref(svg,13883.9486,-3747.873)" x="0" y="0"/>
<use xlink:href="#p0" content="2,こばやし眼科医院,新潟県長岡市曲新町６８７-１,眼科,,,9" xlink:title="こばやし眼科医院" transform="ref(svg,13884.6527,-3741.6468)" x="0" y="0"/>
<use xlink:href="#p0" content="2,（特養）こぶし園診療所,新潟県長岡市喜多町鐙潟５０１-１,内科,,,9" xlink:title="（特養）こぶし園診療所" transform="ref(svg,13881.535,-3744.9304)" x="0" y="0"/>
<use xlink:href="#p0" content="2,さいとう医院,新潟県長岡市緑町１-３８-５６,内科　消化器内科,,,9" xlink:title="さいとう医院" transform="ref(svg,13882.3696,-3744.745)" x="0" y="0"/>
<use xlink:href="#p0" content="2,耳鼻咽喉科斎藤医院,新潟県長岡市坂之上町２-５-５,耳鼻咽喉科,,,9" xlink:title="耳鼻咽喉科斎藤医院" transform="ref(svg,13884.9183,-3744.9745)" x="0" y="0"/>
<use xlink:href="#p0" content="2,斉藤外科内科医院,新潟県長岡市千歳３-２-２９,内科　外科　整形外科,,,9" xlink:title="斉藤外科内科医院" transform="ref(svg,13884.8544,-3743.9258)" x="0" y="0"/>
<use xlink:href="#p0" content="2,斎藤皮膚泌尿器科医院,新潟県長岡市緑町１-３８-３７,皮膚科　泌尿器科,,,9" xlink:title="斎藤皮膚泌尿器科医院" transform="ref(svg,13882.395,-3744.6906)" x="0" y="0"/>
<use xlink:href="#p0" content="2,幸町耳鼻咽喉科,新潟県長岡市幸町１-４-３,アレルギー科　耳鼻咽喉科,,,9" xlink:title="幸町耳鼻咽喉科" transform="ref(svg,13884.1685,-3743.6751)" x="0" y="0"/>
<use xlink:href="#p0" content="2,長岡皮フ科・形成外科医院,新潟県長岡市学校町１-９-２０,皮膚科　形成外科　美容外科,,,9" xlink:title="長岡皮フ科・形成外科医院" transform="ref(svg,13885.8876,-3744.0599)" x="0" y="0"/>
<use xlink:href="#p0" content="2,笹川眼科,新潟県長岡市大島本町５-１１３,眼科,,,9" xlink:title="笹川眼科" transform="ref(svg,13881.9413,-3744.5222)" x="0" y="0"/>
<use xlink:href="#p0" content="2,自明堂眼科,新潟県長岡市殿町３-２-８,眼科,,,9" xlink:title="自明堂眼科" transform="ref(svg,13884.8701,-3744.6113)" x="0" y="0"/>
<use xlink:href="#p0" content="2,（一財）健康医学予防協会長岡健康管理センター,新潟県長岡市千秋２-２２９-１,内科,,,9" xlink:title="（一財）健康医学予防協会長岡健康管理センター" transform="ref(svg,13882.6854,-3745.5836)" x="0" y="0"/>
<use xlink:href="#p0" content="2,しなのハートクリニック,新潟県長岡市信濃２-６-１８,内科　循環器内科　心療内科　歯科,,,9" xlink:title="しなのハートクリニック" transform="ref(svg,13883.7838,-3745.0664)" x="0" y="0"/>
<use xlink:href="#p0" content="2,じゅん脳外科内科,新潟県長岡市泉２-４-１,内科　脳神経外科　リハビリテーション科,,,9" xlink:title="じゅん脳外科内科" transform="ref(svg,13885.2418,-3746.4541)" x="0" y="0"/>
<use xlink:href="#p0" content="2,（特養）縄文の杜関原医務室,新潟県長岡市関原町１字上ノ沢１０７２-１,内科,,,9" xlink:title="（特養）縄文の杜関原医務室" transform="ref(svg,13877.4332,-3745.1707)" x="0" y="0"/>
<use xlink:href="#p0" content="2,新産内科クリニック,新潟県長岡市南七日町３０-７,内科　消化器内科　小児科,,,9" xlink:title="新産内科クリニック" transform="ref(svg,13880.0165,-3744.4286)" x="0" y="0"/>
<use xlink:href="#p0" content="2,新保内科医院,新潟県長岡市古正寺３-１２,内科　呼吸器内科　アレルギー科　小児科,,,9" xlink:title="新保内科医院" transform="ref(svg,13882.4436,-3745.8337)" x="0" y="0"/>
<use xlink:href="#p0" content="2,（医）杉本医院,新潟県長岡市千手３-１-９,内科　消化器内科　小児科,,,9" xlink:title="（医）杉本医院" transform="ref(svg,13884.4706,-3744.3402)" x="0" y="0"/>
<use xlink:href="#p0" content="2,鈴木内科医院,新潟県長岡市千手１-８-６,内科,,,9" xlink:title="鈴木内科医院" transform="ref(svg,13884.358,-3744.0085)" x="0" y="0"/>
<use xlink:href="#p0" content="2,関根整形外科医院,新潟県長岡市本町２-１-１２,リウマチ科　整形外科,,,9" xlink:title="関根整形外科医院" transform="ref(svg,13884.6631,-3745.0113)" x="0" y="0"/>
<use xlink:href="#p0" content="2,セントポーリアウイメンズクリニック,新潟県長岡市南七日町２-８,産科　婦人科,,,9" xlink:title="セントポーリアウイメンズクリニック" transform="ref(svg,13880.0654,-3744.207)" x="0" y="0"/>
<use xlink:href="#p0" content="2,（特養）千秋診療所,新潟県長岡市千秋２-２２１-１４,内科,,,9" xlink:title="（特養）千秋診療所" transform="ref(svg,13882.7127,-3745.6288)" x="0" y="0"/>
<use xlink:href="#p0" content="2,高木内科クリニック,新潟県長岡市緑町１-３７-２,内科　小児科,,,9" xlink:title="高木内科クリニック" transform="ref(svg,13882.2072,-3744.9818)" x="0" y="0"/>
<use xlink:href="#p0" content="2,高須メンタルクリニック,新潟県長岡市大手通１-４-３ドルミー駅前ビル７Ｆ,内科　精神科　心療内科,,,9" xlink:title="高須メンタルクリニック" transform="ref(svg,13885.1894,-3744.6943)" x="0" y="0"/>
<use xlink:href="#p0" content="2,高野医院,新潟県長岡市台町１-９-６,内科　外科,,,9" xlink:title="高野医院" transform="ref(svg,13885.4492,-3744.452)" x="0" y="0"/>
<use xlink:href="#p0" content="2,高橋医院,新潟県長岡市大島新町２-１-１８,内科　小児科,,,9" xlink:title="高橋医院" transform="ref(svg,13882.4625,-3744.3831)" x="0" y="0"/>
<use xlink:href="#p0" content="2,高橋内科医院,新潟県長岡市豊田町７-１０,内科　消化器内科,,,9" xlink:title="高橋内科医院" transform="ref(svg,13885.5189,-3742.9522)" x="0" y="0"/>
<use xlink:href="#p0" content="2,たけだ眼科医院,新潟県長岡市荻野１-７-１３,眼科,,,9" xlink:title="たけだ眼科医院" transform="ref(svg,13883.5512,-3747.2503)" x="0" y="0"/>
<use xlink:href="#p0" content="2,竹山整形外科,新潟県長岡市東宮内町３４０７-６,整形外科　リハビリテーション科,,,9" xlink:title="竹山整形外科" transform="ref(svg,13884.6061,-3742.4311)" x="0" y="0"/>
<use xlink:href="#p0" content="2,田中医院,新潟県長岡市中島７-１-３１,内科　外科,,,9" xlink:title="田中医院" transform="ref(svg,13885.0699,-3745.9329)" x="0" y="0"/>
<use xlink:href="#p0" content="2,田辺医院,新潟県長岡市稽古町甲１６６３甲,内科　循環器内科　小児科　放射線科,,,9" xlink:title="田辺医院" transform="ref(svg,13885.5234,-3745.4481)" x="0" y="0"/>
<use xlink:href="#p0" content="2,玉木整形外科クリニック,新潟県長岡市緑町１-１３２-２,リウマチ科　整形外科　リハビリテーション科,,,9" xlink:title="玉木整形外科クリニック" transform="ref(svg,13882.2286,-3744.9938)" x="0" y="0"/>
<use xlink:href="#p0" content="2,田宮神経科内科診療所,新潟県長岡市城内町３-２-１,内科　精神科,,,9" xlink:title="田宮神経科内科診療所" transform="ref(svg,13885.3368,-3744.9395)" x="0" y="0"/>
<use xlink:href="#p0" content="2,田村クリニック,新潟県長岡市新保１-２１-２,内科　皮膚科　泌尿器科,,,9" xlink:title="田村クリニック" transform="ref(svg,13886.631,-3746.3003)" x="0" y="0"/>
<use xlink:href="#p0" content="2,中越診療所,新潟県長岡市長町２-２-１６,内科　放射線科,,,9" xlink:title="中越診療所" transform="ref(svg,13885.5716,-3745.7596)" x="0" y="0"/>
<use xlink:href="#p0" content="2,土田内科循環器科クリニック,新潟県長岡市今朝白３-１２-２９,内科　呼吸器内科　循環器内科　消化器内科,,,9" xlink:title="土田内科循環器科クリニック" transform="ref(svg,13885.9885,-3745.0844)" x="0" y="0"/>
<use xlink:href="#p0" content="2,桐樹園診療所,新潟県長岡市西津町字原４６６８,内科　精神科,,,9" xlink:title="桐樹園診療所" transform="ref(svg,13877.2633,-3742.7)" x="0" y="0"/>
<use xlink:href="#p0" content="2,栂野医院,新潟県長岡市関東町２-６,眼科,,,9" xlink:title="栂野医院" transform="ref(svg,13885.2458,-3745.1517)" x="0" y="0"/>
<use xlink:href="#p0" content="2,長尾医院,新潟県長岡市福住３-６-２１,内科　小児科,,,9" xlink:title="長尾医院" transform="ref(svg,13885.8413,-3745.398)" x="0" y="0"/>
<use xlink:href="#p0" content="2,長岡駅前眼科医院,新潟県長岡市大手通１-４-１ＶＯＩＲビル３階-１,眼科,,,9" xlink:title="長岡駅前眼科医院" transform="ref(svg,13885.2123,-3744.6714)" x="0" y="0"/>
<use xlink:href="#p0" content="2,長岡眼科医院,新潟県長岡市今朝白１-７-１２,眼科,,,9" xlink:title="長岡眼科医院" transform="ref(svg,13885.8258,-3744.6064)" x="0" y="0"/>
<use xlink:href="#p0" content="2,長岡技術科学大学体育保健センター,新潟県長岡市上富岡町１６０３-１,内科　外科,,,9" xlink:title="長岡技術科学大学体育保健センター" transform="ref(svg,13877.9353,-3742.6536)" x="0" y="0"/>
<use xlink:href="#p0" content="2,長岡休日・夜間急患診療所,新潟県長岡市西千手２-５-１,内科　小児科　外科,,,9" xlink:title="長岡休日・夜間急患診療所" transform="ref(svg,13884.2003,-3744.2402)" x="0" y="0"/>
<use xlink:href="#p0" content="2,長岡市中越こども急患センター,新潟県長岡市西千手２-５-１,小児科,,,9" xlink:title="長岡市中越こども急患センター" transform="ref(svg,13884.2003,-3744.2402)" x="0" y="0"/>
<use xlink:href="#p0" content="2,長岡市役所医務室,新潟県長岡市大手通１-４-１０アオーレ長岡１階,内科,,,9" xlink:title="長岡市役所医務室" transform="ref(svg,13885.1276,-3744.6269)" x="0" y="0"/>
<use xlink:href="#p0" content="2,ながおか生協診療所,新潟県長岡市前田１-６-７,内科　消化器内科　小児科　リハビリテーション科,,,9" xlink:title="ながおか生協診療所" transform="ref(svg,13886.0651,-3743.7172)" x="0" y="0"/>
<use xlink:href="#p0" content="2,長岡レディースクリニック,新潟県長岡市新保２-５-４３,産婦人科,,,9" xlink:title="長岡レディースクリニック" transform="ref(svg,13886.5813,-3746.3768)" x="0" y="0"/>
<use xlink:href="#p0" content="2,中村整形外科医院,新潟県長岡市川崎町７７９-１,リウマチ科　整形外科　リハビリテーション科,,,9" xlink:title="中村整形外科医院" transform="ref(svg,13886.6176,-3746.2037)" x="0" y="0"/>
<use xlink:href="#p0" content="2,新潟県赤十字血液センター長岡出張所,新潟県長岡市千秋２-１０８７-１,内科,,,9" xlink:title="新潟県赤十字血液センター長岡出張所" transform="ref(svg,13882.6024,-3745.8916)" x="0" y="0"/>
<use xlink:href="#p0" content="2,（社）新潟県労働衛生医学協会付属アクアーレ長岡健康増進センター,新潟県長岡市新陽２-５-１アクアーレ長岡２階,内科,,,9" xlink:title="（社）新潟県労働衛生医学協会付属アクアーレ長岡健康増進センター" transform="ref(svg,13875.335,-3742.9109)" x="0" y="0"/>
<use xlink:href="#p0" content="2,西脇耳鼻咽喉科医院,新潟県長岡市蓮潟４-２-２２,アレルギー科　耳鼻咽喉科,,,9" xlink:title="西脇耳鼻咽喉科医院" transform="ref(svg,13882.7829,-3746.7303)" x="0" y="0"/>
<use xlink:href="#p0" content="2,野々村医院,新潟県長岡市石内１-１-１,アレルギー科　耳鼻咽喉科,,,9" xlink:title="野々村医院" transform="ref(svg,13885.3854,-3746.0683)" x="0" y="0"/>
<use xlink:href="#p0" content="2,野村クリニック,新潟県長岡市三和３-８-１４,内科　アレルギー科　小児科,,,9" xlink:title="野村クリニック" transform="ref(svg,13883.743,-3743.3652)" x="0" y="0"/>
<use xlink:href="#p0" content="2,野村内科医院,新潟県長岡市長町１-３-９,内科,,,9" xlink:title="野村内科医院" transform="ref(svg,13885.4249,-3745.4413)" x="0" y="0"/>
<use xlink:href="#p0" content="2,樋口皮膚科医院,新潟県長岡市城内町２-６-２０,皮膚科,,,9" xlink:title="樋口皮膚科医院" transform="ref(svg,13885.2594,-3744.856)" x="0" y="0"/>
<use xlink:href="#p0" content="2,福居皮フ科医院,新潟県長岡市殿町２-５-１ロイヤル長岡３０１,皮膚科,,,9" xlink:title="福居皮フ科医院" transform="ref(svg,13884.9535,-3744.5893)" x="0" y="0"/>
<use xlink:href="#p0" content="2,（特養）福住医務・静養室,新潟県長岡市福住２-１-１５,内科,,,9" xlink:title="（特養）福住医務・静養室" transform="ref(svg,13885.7829,-3745.147)" x="0" y="0"/>
<use xlink:href="#p0" content="2,藤田皮膚科クリニック,新潟県長岡市幸町１-８-２５,皮膚科,,,9" xlink:title="藤田皮膚科クリニック" transform="ref(svg,13884.1537,-3743.8745)" x="0" y="0"/>
<use xlink:href="#p0" content="2,ほんだファミリークリニック,新潟県長岡市青葉台３-１６-６,内科,,,9" xlink:title="ほんだファミリークリニック" transform="ref(svg,13875.4659,-3744.1985)" x="0" y="0"/>
<use xlink:href="#p0" content="2,槇山けやき苑医務室,新潟県長岡市槇山町１５９３-１,内科　精神科,,,9" xlink:title="槇山けやき苑医務室" transform="ref(svg,13883.7449,-3748.1055)" x="0" y="0"/>
<use xlink:href="#p0" content="2,まちだ園医務室,新潟県長岡市町田町字湯沢５４０,内科,,,9" xlink:title="まちだ園医務室" transform="ref(svg,13886.0956,-3741.8488)" x="0" y="0"/>
<use xlink:href="#p0" content="2,丸岡医院,新潟県長岡市宮内５-９-３,内科　外科　婦人科,,,9" xlink:title="丸岡医院" transform="ref(svg,13884.2826,-3742.7374)" x="0" y="0"/>
<use xlink:href="#p0" content="2,三上医院,新潟県長岡市宮原３-１２-３０,内科,,,9" xlink:title="三上医院" transform="ref(svg,13884.5206,-3743.7868)" x="0" y="0"/>
<use xlink:href="#p0" content="2,みぞはた眼科,新潟県長岡市千秋２-２７８リバーサイド千秋２Ｆ,眼科,,,9" xlink:title="みぞはた眼科" transform="ref(svg,13882.697,-3746.1013)" x="0" y="0"/>
<use xlink:href="#p0" content="2,三間内科医院,新潟県長岡市中島５-７-５４,内科　小児科,,,9" xlink:title="三間内科医院" transform="ref(svg,13884.8848,-3745.332)" x="0" y="0"/>
<use xlink:href="#p0" content="2,ミミール耳鼻咽喉科クリニック,新潟県長岡市古正寺２-２６,耳鼻咽喉科,,,9" xlink:title="ミミール耳鼻咽喉科クリニック" transform="ref(svg,13882.2894,-3745.6479)" x="0" y="0"/>
<use xlink:href="#p0" content="2,宮内クリニック,新潟県長岡市宮内１-３-２,内科　神経内科　小児科　外科　整形外科　放射線科,,,9" xlink:title="宮内クリニック" transform="ref(svg,13884.0213,-3741.767)" x="0" y="0"/>
<use xlink:href="#p0" content="2,森下皮膚科医院,新潟県長岡市荻野１-７-１１,皮膚科,,,9" xlink:title="森下皮膚科医院" transform="ref(svg,13883.5386,-3747.2413)" x="0" y="0"/>
<use xlink:href="#p0" content="2,眼科八百枝医院,新潟県長岡市長町２-２-１２,眼科,,,9" xlink:title="眼科八百枝医院" transform="ref(svg,13885.5104,-3745.661)" x="0" y="0"/>
<use xlink:href="#p0" content="2,山井医院,新潟県長岡市今朝白２-８-８,内科　消化器内科　外科　肛門外科　リハビリテーション科,,,9" xlink:title="山井医院" transform="ref(svg,13885.8611,-3744.8939)" x="0" y="0"/>
<use xlink:href="#p0" content="2,やまかわ整形外科,新潟県長岡市山田３-２-５,リウマチ科　整形外科　リハビリテーション科,,,9" xlink:title="やまかわ整形外科" transform="ref(svg,13884.0252,-3744.6355)" x="0" y="0"/>
<use xlink:href="#p0" content="2,横山皮膚科,新潟県長岡市今朝白１-１３-７,皮膚科,,,9" xlink:title="横山皮膚科" transform="ref(svg,13885.8241,-3744.6871)" x="0" y="0"/>
<use xlink:href="#p0" content="2,吉田医院,新潟県長岡市摂田屋１-４-４２,内科　消化器内科　外科　肛門外科,,,9" xlink:title="吉田医院" transform="ref(svg,13884.5989,-3741.1173)" x="0" y="0"/>
<use xlink:href="#p0" content="2,わきや医院,新潟県長岡市関原南２-４１２２-１,内科　循環器内科,,,9" xlink:title="わきや医院" transform="ref(svg,13877.463,-3744.7494)" x="0" y="0"/>
<use xlink:href="#p0" content="2,渡辺医院,新潟県長岡市柏町１-４-２９,内科　外科　脳神経外科,,,9" xlink:title="渡辺医院" transform="ref(svg,13884.6915,-3744.3133)" x="0" y="0"/>
<use xlink:href="#p0" content="2,渡辺皮フ科医院,新潟県長岡市長町２-１-２,皮膚科　形成外科,,,9" xlink:title="渡辺皮フ科医院" transform="ref(svg,13885.4613,-3745.5625)" x="0" y="0"/>
<use xlink:href="#p0" content="2,上原医院,新潟県長岡市下沼新田甲９７,内科　消化器内科　アレルギー科,,,9" xlink:title="上原医院" transform="ref(svg,13885.79,-3760.149)" x="0" y="0"/>
<use xlink:href="#p0" content="2,中之島クリニック,新潟県長岡市中之島中条字三之江２１８,内科　呼吸器内科　循環器内科　消化器内科　皮膚科,,,9" xlink:title="中之島クリニック" transform="ref(svg,13883.8015,-3756.9839)" x="0" y="0"/>
<use xlink:href="#p0" content="2,救援施設おぐに荘診療所,新潟県長岡市小国町新町８５２-４,内科　精神科,,,9" xlink:title="救援施設おぐに荘診療所" transform="ref(svg,13871.4411,-3729.1246)" x="0" y="0"/>
<use xlink:href="#p0" content="2,横田内科消化器科クリニック,新潟県長岡市小国町法坂９１０,内科　消化器内科　眼科,,,9" xlink:title="横田内科消化器科クリニック" transform="ref(svg,13871.1433,-3730.7507)" x="0" y="0"/>
<use xlink:href="#p0" content="2,長岡市小国診療所,新潟県長岡市小国町楢沢８８,内科　外科　整形外科　歯科,,,9" xlink:title="長岡市小国診療所" transform="ref(svg,13870.6552,-3728.7463)" x="0" y="0"/>
<use xlink:href="#p0" content="2,おごしの里診療所,新潟県長岡市小国町楢沢９０,内科,,,9" xlink:title="おごしの里診療所" transform="ref(svg,13870.7043,-3728.788)" x="0" y="0"/>
<use xlink:href="#p0" content="2,岩塚診療所,新潟県長岡市飯塚２８００-１,内科　皮膚科　小児科,,,9" xlink:title="岩塚診療所" transform="ref(svg,13874.9162,-3738.4835)" x="0" y="0"/>
<use xlink:href="#p0" content="2,こしじ医院,新潟県長岡市浦６４１-１,内科　外科　整形外科　リハビリテーション科,,,9" xlink:title="こしじ医院" transform="ref(svg,13878.8773,-3739.4943)" x="0" y="0"/>
<use xlink:href="#p0" content="2,こしじの里診療所,新潟県長岡市不動沢２２１９-５,内科,,,9" xlink:title="こしじの里診療所" transform="ref(svg,13874.6066,-3737.1003)" x="0" y="0"/>
<use xlink:href="#p0" content="2,白山診療所,新潟県長岡市来迎寺２４２６,内科　小児科,,,9" xlink:title="白山診療所" transform="ref(svg,13879.1977,-3739.935)" x="0" y="0"/>
<use xlink:href="#p0" content="2,みのわの里更生園診療所,新潟県長岡市不動沢１２６-３,内科,,,9" xlink:title="みのわの里更生園診療所" transform="ref(svg,13873.9389,-3736.1976)" x="0" y="0"/>
<use xlink:href="#p0" content="2,みのわの里療護園診療所,新潟県長岡市不動沢１２６-３,内科,,,9" xlink:title="みのわの里療護園診療所" transform="ref(svg,13873.9389,-3736.1976)" x="0" y="0"/>
<use xlink:href="#p0" content="2,わらび園診療所,新潟県長岡市浦３０６０,内科,,,9" xlink:title="わらび園診療所" transform="ref(svg,13880.4132,-3738.8635)" x="0" y="0"/>
<use xlink:href="#p0" content="2,横田内科・消化器科医院,新潟県長岡市浦９９１３-１,内科　消化器内科　小児科　肛門外科,,,9" xlink:title="横田内科・消化器科医院" transform="ref(svg,13880.2504,-3739.3411)" x="0" y="0"/>
<use xlink:href="#p0" content="2,堀医院,新潟県長岡市七日市１６６４,内科,,,9" xlink:title="堀医院" transform="ref(svg,13877.538,-3748.2744)" x="0" y="0"/>
<use xlink:href="#p0" content="2,ほり内科医院,新潟県長岡市上岩井６８１３,内科　消化器内科　アレルギー科,,,9" xlink:title="ほり内科医院" transform="ref(svg,13878.2393,-3749.2001)" x="0" y="0"/>
<use xlink:href="#p0" content="2,（特養）みしま園,新潟県長岡市宮沢５８０-３,内科　精神科,,,9" xlink:title="（特養）みしま園" transform="ref(svg,13878.2624,-3751.1469)" x="0" y="0"/>
<use xlink:href="#p0" content="2,風間医院,新潟県長岡市与板町江西３-１-２０,内科　小児科,,,9" xlink:title="風間医院" transform="ref(svg,13881.6526,-3753.5067)" x="0" y="0"/>
<use xlink:href="#p0" content="2,小林医院,新潟県長岡市与板町与板４４１,内科　整形外科　リハビリテーション科,,,9" xlink:title="小林医院" transform="ref(svg,13881.1579,-3754.0296)" x="0" y="0"/>
<use xlink:href="#p0" content="2,小黒医院,新潟県長岡市小島谷３０００,内科　小児科,,,9" xlink:title="小黒医院" transform="ref(svg,13877.2163,-3757.2138)" x="0" y="0"/>
<use xlink:href="#p0" content="2,木村医院,新潟県長岡市小島谷３３４３,小児科　外科　産婦人科,,,9" xlink:title="木村医院" transform="ref(svg,13877.2528,-3757.7202)" x="0" y="0"/>
<use xlink:href="#p0" content="2,（特養）桐原の郷医務室,新潟県長岡市寺泊下桐３７００-１,内科,,,9" xlink:title="（特養）桐原の郷医務室" transform="ref(svg,13880.7337,-3761.2222)" x="0" y="0"/>
<use xlink:href="#p0" content="2,長岡市国民健康保険寺泊診療所,新潟県長岡市寺泊敦ヶ曽根６０５-１,内科,,,9" xlink:title="長岡市国民健康保険寺泊診療所" transform="ref(svg,13882.1701,-3761.4997)" x="0" y="0"/>
<use xlink:href="#p0" content="2,庄司内科医院,新潟県長岡市東川口１９７９-２４,内科,,,9" xlink:title="庄司内科医院" transform="ref(svg,13885.94,-3727.0805)" x="0" y="0"/>
<use xlink:href="#p0" content="2,磯部医院,新潟県三島郡出雲崎町大字住吉町１８,内科　呼吸器内科　小児科　放射線科,,,9" xlink:title="磯部医院" transform="ref(svg,13868.6402,-3754.251)" x="0" y="0"/>
<use xlink:href="#p0" content="2,佐藤医院,新潟県三島郡出雲崎町大字川西２８-８,内科　循環器内科　小児科,,,9" xlink:title="佐藤医院" transform="ref(svg,13871.5585,-3753.1148)" x="0" y="0"/>
<use xlink:href="#p0" content="2,（特養）やすらぎの里,新潟県三島郡出雲崎町大字川西６６０-１,内科　皮膚科,,,9" xlink:title="（特養）やすらぎの里" transform="ref(svg,13870.7417,-3752.278)" x="0" y="0"/>
<use xlink:href="#p0" content="2,なかの眼科クリニック,新潟県長岡市浦６５１-４,眼科,,,9" xlink:title="なかの眼科クリニック" transform="ref(svg,13879.108,-3739.4753)" x="0" y="0"/>
<use xlink:href="#p0" content="2,メンタルクリニック長岡,新潟県長岡市学校町３-１１-４６,内科　精神科　心療内科,,,9" xlink:title="メンタルクリニック長岡" transform="ref(svg,13885.8357,-3744.4513)" x="0" y="0"/>
<use xlink:href="#p0" content="2,（医）太陽会長岡ナーシングホームクリニック,新潟県長岡市川崎２-２４７６-１,内科,,,9" xlink:title="（医）太陽会長岡ナーシングホームクリニック" transform="ref(svg,13886.6461,-3745.0516)" x="0" y="0"/>
<use xlink:href="#p0" content="2,木村医院,新潟県長岡市関原町２-２４４,内科,,,9" xlink:title="木村医院" transform="ref(svg,13877.3941,-3745.3397)" x="0" y="0"/>
<use xlink:href="#p0" content="2,辻本皮ふ科,新潟県長岡市千歳１-３-４１,皮膚科,,,9" xlink:title="辻本皮ふ科" transform="ref(svg,13884.6978,-3743.5836)" x="0" y="0"/>
<use xlink:href="#p0" content="2,（特養）小国あいあい医務室,新潟県長岡市小国町太郎丸１５２０-１,内科,,,9" xlink:title="（特養）小国あいあい医務室" transform="ref(svg,13871.0012,-3727.8367)" x="0" y="0"/>
<use xlink:href="#p0" content="2,生協こどもクリニック,新潟県長岡市沢田１-１-２０,小児科,,,9" xlink:title="生協こどもクリニック" transform="ref(svg,13884.5579,-3742.4965)" x="0" y="0"/>
<use xlink:href="#p0" content="2,（医）坦誠会根元整形外科医院,新潟県小千谷市城内２-１-５,整形外科,,,9" xlink:title="（医）坦誠会根元整形外科医院" transform="ref(svg,13879.9156,-3731.2891)" x="0" y="0"/>
<use xlink:href="#p0" content="2,東京電力（株）信濃川電力所診療所,新潟県小千谷市千谷川１-５-１０,内科,,,9" xlink:title="東京電力（株）信濃川電力所診療所" transform="ref(svg,13880.2362,-3731.3887)" x="0" y="0"/>
<use xlink:href="#p0" content="2,小千谷市養護老人ホーム診療所,新潟県小千谷市小粟田２７３２-６,内科,,,9" xlink:title="小千谷市養護老人ホーム診療所" transform="ref(svg,13879.6173,-3734.108)" x="0" y="0"/>
<use xlink:href="#p0" content="2,魚沼地域胃集団検診協議会診療所,新潟県小千谷市城内２-６-５,内科,,,9" xlink:title="魚沼地域胃集団検診協議会診療所" transform="ref(svg,13879.6258,-3731.4298)" x="0" y="0"/>
<use xlink:href="#p0" content="2,小千谷市健康センター,新潟県小千谷市城内２-６-５,内科,,,9" xlink:title="小千谷市健康センター" transform="ref(svg,13879.6258,-3731.4298)" x="0" y="0"/>
<use xlink:href="#p0" content="2,結城医院,新潟県小千谷市旭町１-２２,内科　眼科,,,9" xlink:title="結城医院" transform="ref(svg,13881.2018,-3730.8247)" x="0" y="0"/>
<use xlink:href="#p0" content="2,（特養）小粟田の里診療所,新潟県小千谷市小粟田２７３２-７,内科,,,9" xlink:title="（特養）小粟田の里診療所" transform="ref(svg,13879.5704,-3734.0391)" x="0" y="0"/>
<use xlink:href="#p0" content="2,池田内科医院,新潟県小千谷市城内２-６-５,内科　小児科,,,9" xlink:title="池田内科医院" transform="ref(svg,13879.6258,-3731.4298)" x="0" y="0"/>
<use xlink:href="#p0" content="2,森平レディスクリニック,新潟県小千谷市若葉３-７５,内科　産科　婦人科,,,9" xlink:title="森平レディスクリニック" transform="ref(svg,13878.0337,-3730.45)" x="0" y="0"/>
<use xlink:href="#p0" content="2,谷口医院,新潟県小千谷市ヒ生乙９３３-７,内科　消化器内科　外科　肛門外科,,,9" xlink:title="谷口医院" transform="ref(svg,13880.7735,-3730.7894)" x="0" y="0"/>
<use xlink:href="#p0" content="2,中村内科消化器科医院,新潟県小千谷市本町２-２-２３,内科　消化器内科,,,9" xlink:title="中村内科消化器科医院" transform="ref(svg,13879.7107,-3730.9234)" x="0" y="0"/>
<use xlink:href="#p0" content="2,（医）慶友会キタムラ北村医院,新潟県小千谷市城内１-８-２３,内科　循環器内科　小児科,,,9" xlink:title="（医）慶友会キタムラ北村医院" transform="ref(svg,13879.6399,-3731.1259)" x="0" y="0"/>
<use xlink:href="#p0" content="2,小林整形外科医院,新潟県小千谷市若葉３-９７-１,内科　皮膚科　整形外科　リハビリテーション科,,,9" xlink:title="小林整形外科医院" transform="ref(svg,13878.0769,-3730.3758)" x="0" y="0"/>
<use xlink:href="#p0" content="2,片貝医院,新潟県小千谷市片貝町５０３５-１５,内科　皮膚科　小児科,,,9" xlink:title="片貝医院" transform="ref(svg,13877.6511,-3736.6873)" x="0" y="0"/>
<use xlink:href="#p0" content="2,さわなか医院,新潟県小千谷市城内３-３-１３,内科　消化器内科,,,9" xlink:title="さわなか医院" transform="ref(svg,13878.9369,-3731.3839)" x="0" y="0"/>
<use xlink:href="#p0" content="2,にたはらこどもクリニック,新潟県小千谷市桜町４９６２-１,皮膚科　小児科,,,9" xlink:title="にたはらこどもクリニック" transform="ref(svg,13878.4968,-3731.2589)" x="0" y="0"/>
<use xlink:href="#p0" content="2,安藤眼科,新潟県小千谷市本町１-４-１７,眼科,,,9" xlink:title="安藤眼科" transform="ref(svg,13880.0678,-3731.0359)" x="0" y="0"/>
<use xlink:href="#p0" content="2,山下メンタルクリニック,新潟県小千谷市平沢１-５-２６,精神科　心療内科,,,9" xlink:title="山下メンタルクリニック" transform="ref(svg,13879.4011,-3731.7479)" x="0" y="0"/>
<use xlink:href="#p0" content="2,（特養）おぢやさくら診療所,新潟県小千谷市小粟田２７３２-１４,内科　精神科,,,9" xlink:title="（特養）おぢやさくら診療所" transform="ref(svg,13879.6317,-3734.3829)" x="0" y="0"/>
<use xlink:href="#p0" content="2,ときみずの家診療所,新潟県小千谷市時水１８２-１,内科,,,9" xlink:title="ときみずの家診療所" transform="ref(svg,13877.1264,-3729.8935)" x="0" y="0"/>
<use xlink:href="#p0" content="2,山本医院,新潟県小千谷市桜町５１４７-９,内科　神経内科　脳神経外科　リハビリテーション科,,,9" xlink:title="山本医院" transform="ref(svg,13878.0575,-3731.3589)" x="0" y="0"/>
<use xlink:href="#p0" content="2,（特養）片貝さくら診療所,新潟県小千谷市片貝町４７０８-１,内科,,,9" xlink:title="（特養）片貝さくら診療所" transform="ref(svg,13877.8888,-3737.0584)" x="0" y="0"/>
<use xlink:href="#p0" content="2,（公財）新潟県保健衛生センター中越支所診療所,新潟県小千谷市城内２-６-５,内科,,,9" xlink:title="（公財）新潟県保健衛生センター中越支所診療所" transform="ref(svg,13879.6258,-3731.4298)" x="0" y="0"/>
<use xlink:href="#p0" content="2,千谷島の家診療所,新潟県小千谷市大字千谷川３０２,内科,,,9" xlink:title="千谷島の家診療所" transform="ref(svg,13880.1991,-3732.0661)" x="0" y="0"/>
<use xlink:href="#p0" content="2,つつじガーデン小千谷医務室,新潟県小千谷市四ツ子５０９-１,内科　外科,,,9" xlink:title="つつじガーデン小千谷医務室" transform="ref(svg,13878.572,-3728.3101)" x="0" y="0"/>
<use xlink:href="#p0" content="2,戸内整形外科クリニック,新潟県長岡市荻野１-７-３８,リウマチ科　整形外科　リハビリテーション科,,,9" xlink:title="戸内整形外科クリニック" transform="ref(svg,13883.5523,-3747.2233)" x="0" y="0"/>
<use xlink:href="#p0" content="2,佐藤医院,新潟県柏崎市土合６６３-１,内科　消化器内科　放射線科,,,9" xlink:title="佐藤医院" transform="ref(svg,13859.9597,-3739.3121)" x="0" y="0"/>
<use xlink:href="#p0" content="2,宮尾医院,新潟県柏崎市東本町１-４-２９,内科　産婦人科,,,9" xlink:title="宮尾医院" transform="ref(svg,13855.4204,-3737.0554)" x="0" y="0"/>
<use xlink:href="#p0" content="2,産科婦人科山田医院,新潟県柏崎市駅前２-１-２７,産婦人科,,,9" xlink:title="産科婦人科山田医院" transform="ref(svg,13855.3022,-3736.6371)" x="0" y="0"/>
<use xlink:href="#p0" content="2,会田内科医院,新潟県柏崎市東本町２-２-３１,内科　神経内科,,,9" xlink:title="会田内科医院" transform="ref(svg,13855.9114,-3736.8632)" x="0" y="0"/>
<use xlink:href="#p0" content="2,高木医院,新潟県柏崎市西本町２-８-１７,内科　精神科　心療内科,,,9" xlink:title="高木医院" transform="ref(svg,13854.7867,-3736.673)" x="0" y="0"/>
<use xlink:href="#p0" content="2,（株）リケン柏崎事業所診療所,新潟県柏崎市北斗町１-３７,内科　皮膚科　外科　眼科,,,9" xlink:title="（株）リケン柏崎事業所診療所" transform="ref(svg,13856.9863,-3737.6541)" x="0" y="0"/>
<use xlink:href="#p0" content="2,柏崎市国民健康保険北条診療所,新潟県柏崎市大広田９３,内科,,,9" xlink:title="柏崎市国民健康保険北条診療所" transform="ref(svg,13866.3357,-3735.6529)" x="0" y="0"/>
<use xlink:href="#p0" content="2,佐藤医院吉井出張所,新潟県柏崎市吉井２０３０,内科,,,9" xlink:title="佐藤医院吉井出張所" transform="ref(svg,13863.5744,-3739.1315)" x="0" y="0"/>
<use xlink:href="#p0" content="2,御山荘診療所,新潟県柏崎市大字上田尻３９６０-１,内科,,,9" xlink:title="御山荘診療所" transform="ref(svg,13859.908,-3734.879)" x="0" y="0"/>
<use xlink:href="#p0" content="2,五十川医院,新潟県柏崎市関町１２-５,内科　消化器内科,,,9" xlink:title="五十川医院" transform="ref(svg,13855.514,-3736.0096)" x="0" y="0"/>
<use xlink:href="#p0" content="2,金子医院,新潟県柏崎市四谷３-２-４６,内科　小児科,,,9" xlink:title="金子医院" transform="ref(svg,13857.2863,-3737.1356)" x="0" y="0"/>
<use xlink:href="#p0" content="2,田村医院,新潟県柏崎市西本町２-３-４,内科　脳神経外科,,,9" xlink:title="田村医院" transform="ref(svg,13854.9614,-3736.8715)" x="0" y="0"/>
<use xlink:href="#p0" content="2,東京電力（株）柏崎刈羽原子力発電所診療所,新潟県柏崎市青山町１６-４６,内科　精神科　整形外科,,,9" xlink:title="東京電力（株）柏崎刈羽原子力発電所診療所" transform="ref(svg,13859.5562,-3742.1529)" x="0" y="0"/>
<use xlink:href="#p0" content="2,刈羽柏崎福祉事業協会かしわ荘診療所,新潟県柏崎市畔屋１９４-１,内科　精神科,,,9" xlink:title="刈羽柏崎福祉事業協会かしわ荘診療所" transform="ref(svg,13861.5986,-3736.8354)" x="0" y="0"/>
<use xlink:href="#p0" content="2,柏崎市刈羽郡医師会柏崎メジカルセンター,新潟県柏崎市栄町１８-７,内科　婦人科,,,9" xlink:title="柏崎市刈羽郡医師会柏崎メジカルセンター" transform="ref(svg,13855.4706,-3737.5219)" x="0" y="0"/>
<use xlink:href="#p0" content="2,犬井内科医院,新潟県柏崎市茨目３-３-３５,内科　循環器内科　小児科,,,9" xlink:title="犬井内科医院" transform="ref(svg,13858.519,-3736.2675)" x="0" y="0"/>
<use xlink:href="#p0" content="2,川田胃腸クリニック,新潟県柏崎市東本町１-１２-８,内科　消化器内科　外科　肛門外科,,,9" xlink:title="川田胃腸クリニック" transform="ref(svg,13855.5708,-3737.0654)" x="0" y="0"/>
<use xlink:href="#p0" content="2,外川医院,新潟県柏崎市西本町１-１１-２２,内科　皮膚科　泌尿器科,,,9" xlink:title="外川医院" transform="ref(svg,13855.0932,-3736.8605)" x="0" y="0"/>
<use xlink:href="#p0" content="2,内山整形外科医院,新潟県柏崎市駅前１-４-３３,整形外科,,,9" xlink:title="内山整形外科医院" transform="ref(svg,13855.48,-3736.5078)" x="0" y="0"/>
<use xlink:href="#p0" content="2,平野内科医院,新潟県柏崎市幸町３-１１,内科　呼吸器内科　消化器内科,,,9" xlink:title="平野内科医院" transform="ref(svg,13855.876,-3736.1627)" x="0" y="0"/>
<use xlink:href="#p0" content="2,（特養）むつみ荘内診療所,新潟県柏崎市畔屋３９２-１,内科　精神科,,,9" xlink:title="（特養）むつみ荘内診療所" transform="ref(svg,13861.9941,-3736.8726)" x="0" y="0"/>
<use xlink:href="#p0" content="2,本間内科医院,新潟県柏崎市北半田１-１-４８,内科　消化器内科,,,9" xlink:title="本間内科医院" transform="ref(svg,13857.1967,-3736.4106)" x="0" y="0"/>
<use xlink:href="#p0" content="2,おぎた小児科医院,新潟県柏崎市西本町１-４-３４,小児科,,,9" xlink:title="おぎた小児科医院" transform="ref(svg,13855.2996,-3737.0077)" x="0" y="0"/>
<use xlink:href="#p0" content="2,村井こどもクリニック,新潟県柏崎市北半田２-１４-８,小児科,,,9" xlink:title="村井こどもクリニック" transform="ref(svg,13857.7191,-3736.385)" x="0" y="0"/>
<use xlink:href="#p0" content="2,本田医院,新潟県柏崎市比角１-２-３,内科,,,9" xlink:title="本田医院" transform="ref(svg,13856.5729,-3737.2608)" x="0" y="0"/>
<use xlink:href="#p0" content="2,うえはら眼科医院,新潟県柏崎市駅前１-２-２２-１０１,眼科,,,9" xlink:title="うえはら眼科医院" transform="ref(svg,13855.5961,-3736.4273)" x="0" y="0"/>
<use xlink:href="#p0" content="2,むなかた眼科医院,新潟県柏崎市東本町１-８-３６,眼科,,,9" xlink:title="むなかた眼科医院" transform="ref(svg,13855.6381,-3736.8382)" x="0" y="0"/>
<use xlink:href="#p0" content="2,かさき眼科,新潟県柏崎市中央町３-３２,眼科,,,9" xlink:title="かさき眼科" transform="ref(svg,13855.944,-3737.0661)" x="0" y="0"/>
<use xlink:href="#p0" content="2,（特養）にしかりの里診療所,新潟県柏崎市西山町大字長嶺１７２６-１,内科,,,9" xlink:title="（特養）にしかりの里診療所" transform="ref(svg,13864.1459,-3745.0908)" x="0" y="0"/>
<use xlink:href="#p0" content="2,（特養）いこいの里診療所,新潟県柏崎市大字佐水３１４０,内科　精神科,,,9" xlink:title="（特養）いこいの里診療所" transform="ref(svg,13857.2169,-3728.7552)" x="0" y="0"/>
<use xlink:href="#p0" content="2,柏崎市国民健康保険野田診療所,新潟県柏崎市野田９２２-６,内科,,,9" xlink:title="柏崎市国民健康保険野田診療所" transform="ref(svg,13856.4045,-3727.7128)" x="0" y="0"/>
<use xlink:href="#p0" content="2,たむら脳外科クリニック,新潟県柏崎市柳田町７-３１,内科　外科　脳神経外科　リハビリテーション科,,,9" xlink:title="たむら脳外科クリニック" transform="ref(svg,13857.9227,-3738.2123)" x="0" y="0"/>
<use xlink:href="#p0" content="2,北村医院,新潟県柏崎市中央町４-１７,アレルギー科　耳鼻咽喉科,,,9" xlink:title="北村医院" transform="ref(svg,13855.9374,-3737.1419)" x="0" y="0"/>
<use xlink:href="#p0" content="2,松風の里診療所,新潟県柏崎市松波４-８-８,内科,,,9" xlink:title="松風の里診療所" transform="ref(svg,13858.0878,-3739.5253)" x="0" y="0"/>
<use xlink:href="#p0" content="2,扇町皮膚科医院,新潟県柏崎市扇町３-８４,皮膚科,,,9" xlink:title="扇町皮膚科医院" transform="ref(svg,13857.1302,-3736.7296)" x="0" y="0"/>
<use xlink:href="#p0" content="2,厚生労働省第二（共済）新潟病院所属所,新潟県柏崎市赤坂町３-５２,内科　呼吸器内科　皮膚科　小児科　外科　泌尿器科　整形外科　眼科　耳鼻咽喉科　リハビリテーション科,,,9" xlink:title="厚生労働省第二（共済）新潟病院所属所" transform="ref(svg,13853.7358,-3735.8681)" x="0" y="0"/>
<use xlink:href="#p0" content="2,柏崎市健康管理センター,新潟県柏崎市栄町１８-３,内科,,,9" xlink:title="柏崎市健康管理センター" transform="ref(svg,13855.4976,-3737.5108)" x="0" y="0"/>
<use xlink:href="#p0" content="2,のざわ内科医院,新潟県柏崎市中央町１１-３３,内科　消化器内科,,,9" xlink:title="のざわ内科医院" transform="ref(svg,13856.0025,-3737.4228)" x="0" y="0"/>
<use xlink:href="#p0" content="2,（特養）しおかぜ荘診療所,新潟県柏崎市北園町２１-１９,内科　精神科,,,9" xlink:title="（特養）しおかぜ荘診療所" transform="ref(svg,13856.1513,-3738.1324)" x="0" y="0"/>
<use xlink:href="#p0" content="2,横田整形外科医院,新潟県柏崎市穂波町２-８,皮膚科　リウマチ科　整形外科　リハビリテーション科,,,9" xlink:title="横田整形外科医院" transform="ref(svg,13855.7189,-3735.9828)" x="0" y="0"/>
<use xlink:href="#p0" content="2,柏崎保健所,新潟県柏崎市鏡町１１-９,内科,,,9" xlink:title="柏崎保健所" transform="ref(svg,13855.9045,-3736.8086)" x="0" y="0"/>
<use xlink:href="#p0" content="2,こんどう医院,新潟県柏崎市長浜町３-１５,アレルギー科　耳鼻咽喉科,,,9" xlink:title="こんどう医院" transform="ref(svg,13857.7623,-3736.8606)" x="0" y="0"/>
<use xlink:href="#p0" content="2,杉本医院,新潟県柏崎市田中２４-１１,内科　消化器内科　乳腺外科　肛門外科　リハビリテーション科,,,9" xlink:title="杉本医院" transform="ref(svg,13856.7488,-3735.8138)" x="0" y="0"/>
<use xlink:href="#p0" content="2,石井整形外科,新潟県柏崎市東長浜町３-１３,リウマチ科　整形外科　リハビリテーション科,,,9" xlink:title="石井整形外科" transform="ref(svg,13857.77,-3736.8807)" x="0" y="0"/>
<use xlink:href="#p0" content="2,中沢消化器科内科医院,新潟県柏崎市北半田２-７-１８,内科　消化器内科,,,9" xlink:title="中沢消化器科内科医院" transform="ref(svg,13857.5485,-3736.2521)" x="0" y="0"/>
<use xlink:href="#p0" content="2,駅前クリニック前畑医院,新潟県柏崎市駅前２-２-３,内科　アレルギー科　精神科　心療内科　リハビリテーション科,,,9" xlink:title="駅前クリニック前畑医院" transform="ref(svg,13855.479,-3736.6365)" x="0" y="0"/>
<use xlink:href="#p0" content="2,さとう内科クリニック,新潟県柏崎市三和町３-４３,内科　呼吸器内科　アレルギー科,,,9" xlink:title="さとう内科クリニック" transform="ref(svg,13857.721,-3736.5988)" x="0" y="0"/>
<use xlink:href="#p0" content="2,（特養）なごみ荘診療所,新潟県柏崎市原町４-２３,内科　精神科,,,9" xlink:title="（特養）なごみ荘診療所" transform="ref(svg,13858.686,-3738.917)" x="0" y="0"/>
<use xlink:href="#p0" content="2,恩田クリニック,新潟県柏崎市東本町１-８-５４,内科　精神科　心療内科,,,9" xlink:title="恩田クリニック" transform="ref(svg,13855.4336,-3736.8002)" x="0" y="0"/>
<use xlink:href="#p0" content="2,はらクリニック,新潟県柏崎市茨目２-１５-２２,内科　脳神経外科　リハビリテーション科,,,9" xlink:title="はらクリニック" transform="ref(svg,13858.5382,-3736.1222)" x="0" y="0"/>
<use xlink:href="#p0" content="2,高橋医院,新潟県柏崎市春日１-６-２３-５,リウマチ科　整形外科　リハビリテーション科,,,9" xlink:title="高橋医院" transform="ref(svg,13856.8425,-3737.9923)" x="0" y="0"/>
<use xlink:href="#p0" content="2,医療（社）木村内科循環器科医院,新潟県柏崎市松美１-１-３５,内科　循環器内科,,,9" xlink:title="医療（社）木村内科循環器科医院" transform="ref(svg,13857.4372,-3737.3421)" x="0" y="0"/>
<use xlink:href="#p0" content="2,稲田医院,新潟県柏崎市春日１-６-２３-１０,内科　消化器内科　アレルギー科,,,9" xlink:title="稲田医院" transform="ref(svg,13856.9122,-3737.9695)" x="0" y="0"/>
<use xlink:href="#p0" content="2,（特養）くじらなみ診療所,新潟県柏崎市鯨波２-４-３,内科　精神科,,,9" xlink:title="（特養）くじらなみ診療所" transform="ref(svg,13851.7277,-3735.5217)" x="0" y="0"/>
<use xlink:href="#p0" content="2,西山ふれあいクリニック,新潟県柏崎市西山町礼拝４３０-２,内科　アレルギー科　心療内科,,,9" xlink:title="西山ふれあいクリニック" transform="ref(svg,13866.5579,-3745.731)" x="0" y="0"/>
<use xlink:href="#p0" content="2,（特養）はやまの里診療所,新潟県柏崎市西山町大崎１５９３-１,内科,,,9" xlink:title="（特養）はやまの里診療所" transform="ref(svg,13864.3094,-3750.1193)" x="0" y="0"/>
</g>
</svg>
