<?xml version="1.0" encoding="UTF-8"?>
<svg  xmlns="http://www.w3.org/2000/svg" xmlns:xlink="http://www.w3.org/1999/xlink" xmlns:go="http://purl.org/svgmap/profile" property="医療機関分類,施設名称,所在地,診療科目１,診療科目２,診療科目３,開設者分類" viewBox="13570.3125 -3489.2578125 8.7890625 8.7890625" go:dataArea="13570.3125 -3489.2578125 8.7890625 8.7890625" >
<metadata>
 <rdf:RDF xmlns:rdf="http://www.w3.org/1999/02/22-rdf-syntax-ns#" xmlns:crs="http://opengis.org/xmldtds/transformations.dtd" xmlns:svg="http://www.w3.org/svg" >
  <rdf:Description>
   <crs:CoordinateReferenceSystem rdf:resource="http://purl.org/crs/84" svg:transform="matrix(100.0,0.0,0.0,-100.0,0.0,0.0)" />
  </rdf:Description>
 </rdf:RDF>
</metadata>
<globalCoordinateSystem srsName="http://purl.org/crs/84" transform="matrix(100.0,0.0,0.0,-100.0,0.0,0.0)" />
<defs>
 <g id="p0" >
  <image xlink:href="mappin.png" preserveAspectRatio="none" x="-8" y="-25" width="19" height="27"/>
 </g>
 <g id="p1" >
  <image xlink:href="mappin1.png" preserveAspectRatio="none" x="-8" y="-25" width="19" height="27"/>
 </g>
 <g id="p2" >
  <image xlink:href="mappin2.png" preserveAspectRatio="none" x="-8" y="-25" width="19" height="27"/>
 </g>
 <g id="p3" >
  <image xlink:href="mappin3.png" preserveAspectRatio="none" x="-8" y="-25" width="19" height="27"/>
 </g>
 <g id="p4" >
  <image xlink:href="mappin4.png" preserveAspectRatio="none" x="-8" y="-25" width="19" height="27"/>
 </g>
 <g id="p5" >
  <image xlink:href="mappin5.png" preserveAspectRatio="none" x="-8" y="-25" width="19" height="27"/>
 </g>
 <g id="p6" >
  <image xlink:href="mappin6.png" preserveAspectRatio="none" x="-8" y="-25" width="19" height="27"/>
 </g>
 <g id="p7" >
  <image xlink:href="mappin7.png" preserveAspectRatio="none" x="-8" y="-25" width="19" height="27"/>
 </g>
 <g id="p8" >
  <image xlink:href="mappin8.png" preserveAspectRatio="none" x="-8" y="-25" width="19" height="27"/>
 </g>
 <g id="p9" >
  <image xlink:href="mappin9.png" preserveAspectRatio="none" x="-8" y="-25" width="19" height="27"/>
 </g>
</defs>
<g fill="green" fill-rule="evenodd" >
<use xlink:href="#p0" content="2,金本伊勢田診療所,京都府宇治市伊勢田町砂田１４４,内科　皮膚科　外科　整形外科　リハビリテーション科　胃腸科,,,9" xlink:title="金本伊勢田診療所" transform="ref(svg,13576.573,-3488.8032)" x="0" y="0"/>
<use xlink:href="#p0" content="2,斎藤小児科医院,京都府宇治市伊勢田町砂田６-２６２,小児科　放射線科,,,9" xlink:title="斎藤小児科医院" transform="ref(svg,13577.0986,-3488.9597)" x="0" y="0"/>
<use xlink:href="#p0" content="2,（福）宇治明星園伊勢田明星園小規模（特養）診療所,京都府宇治市伊勢田町若林４１、４２,内科　外科,,,9" xlink:title="（福）宇治明星園伊勢田明星園小規模（特養）診療所" transform="ref(svg,13577.6908,-3488.5098)" x="0" y="0"/>
<use xlink:href="#p0" content="2,（医）曽我産婦人科,京都府宇治市伊勢田町大谷６１-２２,産婦人科,,,9" xlink:title="（医）曽我産婦人科" transform="ref(svg,13578.1262,-3488.6959)" x="0" y="0"/>
<use xlink:href="#p0" content="2,広田医院,京都府宇治市伊勢田町中山６０-１,外科　リハビリテーション科　循環器科,,,9" xlink:title="広田医院" transform="ref(svg,13577.9616,-3488.2609)" x="0" y="0"/>
<use xlink:href="#p0" content="2,（医）岡本病院（財団）あすなろ岡本診療所,京都府宇治市伊勢田町南山４７-１,内科,,,9" xlink:title="（医）岡本病院（財団）あすなろ岡本診療所" transform="ref(svg,13577.8693,-3488.053)" x="0" y="0"/>
<use xlink:href="#p0" content="2,（医）千照会千原眼科医院,京都府宇治市伊勢田町南山５０-１,眼科,,,9" xlink:title="（医）千照会千原眼科医院" transform="ref(svg,13577.9073,-3488.1283)" x="0" y="0"/>
<use xlink:href="#p0" content="2,おやいづ医院,京都府宇治市伊勢田町南山５２-６,内科　小児科　呼吸器科,,,9" xlink:title="おやいづ医院" transform="ref(svg,13577.8321,-3488.122)" x="0" y="0"/>
<use xlink:href="#p0" content="2,えんや医院,京都府宇治市伊勢田町遊田４１-１１,内科　外科　整形外科,,,9" xlink:title="えんや医院" transform="ref(svg,13577.396,-3489.0203)" x="0" y="0"/>
<use xlink:href="#p0" content="2,稲垣産婦人科医院,京都府宇治市伊勢田町名木１-１-２０６,産婦人科,,,9" xlink:title="稲垣産婦人科医院" transform="ref(svg,13576.7858,-3488.1905)" x="0" y="0"/>
<use xlink:href="#p0" content="2,（医）--藤医院,京都府宇治市伊勢田町名木２-１-１８８,内科　放射線科　胃腸科,,,9" xlink:title="（医）--藤医院" transform="ref(svg,13576.8715,-3488.3619)" x="0" y="0"/>
<use xlink:href="#p0" content="2,（医）浅妻医院,京都府宇治市伊勢田町名木３-１-３０,アレルギー科　小児科　外科　呼吸器科,,,9" xlink:title="（医）浅妻医院" transform="ref(svg,13576.9271,-3488.6173)" x="0" y="0"/>
<use xlink:href="#p0" content="2,（医）松井整形外科医院,京都府宇治市宇治半白１９-１０,リウマチ科　整形外科　リハビリテーション科,,,9" xlink:title="（医）松井整形外科医院" transform="ref(svg,13578.9233,-3489.2408)" x="0" y="0"/>
<use xlink:href="#p0" content="2,やましろ健康医療（協組）あさくら診療所,京都府宇治市大久保町山ノ内１９-１,内科　神経内科　リハビリテーション科　放射線科　歯科　矯正歯科　小児歯科,,,9" xlink:title="やましろ健康医療（協組）あさくら診療所" transform="ref(svg,13577.3679,-3487.0947)" x="0" y="0"/>
<use xlink:href="#p0" content="2,上ノ山吉岡医院,京都府宇治市大久保町上ノ山２１-１,内科　消化器科,,,9" xlink:title="上ノ山吉岡医院" transform="ref(svg,13577.7428,-3487.0406)" x="0" y="0"/>
<use xlink:href="#p0" content="2,（医）矢田会皮膚泌尿器科医院,京都府宇治市大久保町上ノ山４０-１,内科　外科　皮膚泌尿器科　性病科,,,9" xlink:title="（医）矢田会皮膚泌尿器科医院" transform="ref(svg,13577.793,-3487.1526)" x="0" y="0"/>
<use xlink:href="#p0" content="2,（医）芝野耳鼻咽喉科,京都府宇治市大久保町上ノ山５１-５５,耳鼻いんこう科,,,9" xlink:title="（医）芝野耳鼻咽喉科" transform="ref(svg,13577.6803,-3487.0654)" x="0" y="0"/>
<use xlink:href="#p0" content="2,石田皮ふ科,京都府宇治市大久保町上ノ山５１-６３,皮膚科,,,9" xlink:title="石田皮ふ科" transform="ref(svg,13577.6317,-3487.0718)" x="0" y="0"/>
<use xlink:href="#p0" content="2,ただ皮フ科クリニック,京都府宇治市大久保町大竹２６-７,皮膚科　精神科　心療内科,,,9" xlink:title="ただ皮フ科クリニック" transform="ref(svg,13577.6571,-3486.9019)" x="0" y="0"/>
<use xlink:href="#p0" content="2,多田クリニック,京都府宇治市大久保町大竹２６-７,精神科　心療内科,,,9" xlink:title="多田クリニック" transform="ref(svg,13577.6571,-3486.9019)" x="0" y="0"/>
<use xlink:href="#p0" content="2,松田医院,京都府宇治市大久保町旦椋１１,内科　放射線科　胃腸科,,,9" xlink:title="松田医院" transform="ref(svg,13576.9418,-3487.2354)" x="0" y="0"/>
<use xlink:href="#p0" content="2,橋本医院,京都府宇治市大久保町旦椋４５-４,内科　外科　整形外科　放射線科　胃腸科,,,9" xlink:title="橋本医院" transform="ref(svg,13576.5473,-3487.0676)" x="0" y="0"/>
<use xlink:href="#p0" content="2,（医）小山内科医院,京都府宇治市大久保町北ノ山２４-１ホクユービル４Ｆ,内科　小児科　放射線科　消化器科,,,9" xlink:title="（医）小山内科医院" transform="ref(svg,13577.3237,-3487.3657)" x="0" y="0"/>
<use xlink:href="#p0" content="2,川北整形外科医院,京都府宇治市大久保町北ノ山２４-１ホクユービル２Ｆ,リウマチ科　整形外科　リハビリテーション科,,,9" xlink:title="川北整形外科医院" transform="ref(svg,13577.3237,-3487.3657)" x="0" y="0"/>
<use xlink:href="#p0" content="2,（医）鉢嶺医院,京都府宇治市小倉町山際１-３,外科　整形外科　泌尿器科　リハビリテーション科　呼吸器科　消化器科,,,9" xlink:title="（医）鉢嶺医院" transform="ref(svg,13578.1028,-3489.1487)" x="0" y="0"/>
<use xlink:href="#p0" content="2,（医）松田整形外科医院,京都府宇治市小倉町神楽田３８-１３,内科　外科　整形外科　リハビリテーション科　放射線科,,,9" xlink:title="（医）松田整形外科医院" transform="ref(svg,13578.1643,-3489.1587)" x="0" y="0"/>
<use xlink:href="#p0" content="2,西尾医院,京都府宇治市小倉町西畑２８-１３,内科　外科　整形外科　泌尿器科　胃腸科　循環器科　肛門科,,,9" xlink:title="西尾医院" transform="ref(svg,13578.1523,-3488.5727)" x="0" y="0"/>
<use xlink:href="#p0" content="2,（医）浩正會宮本医院,京都府宇治市小倉町西畑４０-４,内科　皮膚科　小児科　外科　整形外科　胃腸科　肛門科,,,9" xlink:title="（医）浩正會宮本医院" transform="ref(svg,13578.2861,-3488.8907)" x="0" y="0"/>
<use xlink:href="#p0" content="2,（医）完岡医院,京都府宇治市小倉町西畑４１-２１,内科　消化器内科　胃腸内科　小児科　外科　乳腺外科　肛門外科　麻酔科,,,9" xlink:title="（医）完岡医院" transform="ref(svg,13578.3096,-3488.908)" x="0" y="0"/>
<use xlink:href="#p0" content="2,山村内科,京都府宇治市小倉町南浦２８-３,内科,,,9" xlink:title="山村内科" transform="ref(svg,13577.945,-3489.1038)" x="0" y="0"/>
<use xlink:href="#p0" content="2,石川医院,京都府宇治市小倉町南堀池４９-１８,内科　小児科　放射線科,,,9" xlink:title="石川医院" transform="ref(svg,13577.613,-3489.2555)" x="0" y="0"/>
<use xlink:href="#p0" content="2,二宮内科医院,京都府宇治市小倉町南堀池８-５,内科,,,9" xlink:title="二宮内科医院" transform="ref(svg,13577.4408,-3489.1051)" x="0" y="0"/>
<use xlink:href="#p0" content="2,とだ循環器内科クリニック,京都府宇治市神明宮北３２,内科　循環器内科,,,9" xlink:title="とだ循環器内科クリニック" transform="ref(svg,13578.7816,-3487.8548)" x="0" y="0"/>
<use xlink:href="#p0" content="2,（福）長安会桃花苑診療所,京都府宇治市神明石塚３９-６２,内科　外科　脳神経外科　整形外科,,,9" xlink:title="（福）長安会桃花苑診療所" transform="ref(svg,13578.8011,-3488.3827)" x="0" y="0"/>
<use xlink:href="#p0" content="2,（医）岡本病院（財団）おかもと総合クリニック,京都府宇治市神明石塚５４-１８,内科　神経内科　皮膚科　小児科　外科　心臓外科　脳神経外科　整形外科　泌尿器科　眼科　耳鼻いんこう科　放射線科,,,9" xlink:title="（医）岡本病院（財団）おかもと総合クリニック" transform="ref(svg,13578.365,-3488.4841)" x="0" y="0"/>
<use xlink:href="#p0" content="2,南陵藤井内科,京都府宇治市南陵町２-１-２７８,内科,,,9" xlink:title="南陵藤井内科" transform="ref(svg,13578.5001,-3488.5159)" x="0" y="0"/>
<use xlink:href="#p0" content="2,中村医院,京都府宇治市羽拍子町５６-２２,内科　外科　整形外科　リハビリテーション科　胃腸科,,,9" xlink:title="中村医院" transform="ref(svg,13578.4449,-3488.2131)" x="0" y="0"/>
<use xlink:href="#p0" content="2,（医）こいずみ医院,京都府宇治市羽拍子町８２-１,皮膚科　泌尿器科,,,9" xlink:title="（医）こいずみ医院" transform="ref(svg,13578.016,-3488.2741)" x="0" y="0"/>
<use xlink:href="#p0" content="2,田林耳鼻咽喉科,京都府宇治市羽拍子町８４-１ボーン宇治１号館,耳鼻いんこう科,,,9" xlink:title="田林耳鼻咽喉科" transform="ref(svg,13577.976,-3488.2054)" x="0" y="0"/>
<use xlink:href="#p0" content="2,（医）千照会第２千原眼科医院,京都府宇治市開町１-６,眼科,,,9" xlink:title="（医）千照会第２千原眼科医院" transform="ref(svg,13577.9407,-3488.1439)" x="0" y="0"/>
<use xlink:href="#p0" content="2,かわもと整形外科クリニック,京都府宇治市開町１北尾ビル１階,リウマチ科　整形外科　リハビリテーション科,,,9" xlink:title="かわもと整形外科クリニック" transform="ref(svg,13577.9552,-3488.1224)" x="0" y="0"/>
<use xlink:href="#p0" content="2,（医）高橋内科医院,京都府宇治市広野町一里山３４-２,内科,,,9" xlink:title="（医）高橋内科医院" transform="ref(svg,13578.3569,-3487.5692)" x="0" y="0"/>
<use xlink:href="#p0" content="2,（医）徳岡医院,京都府宇治市広野町寺山１７-２０,内科　消化器内科　小児科　循環器科,,,9" xlink:title="（医）徳岡医院" transform="ref(svg,13578.2256,-3487.3034)" x="0" y="0"/>
<use xlink:href="#p0" content="2,（医）才田小児科医院,京都府宇治市広野町寺山台１-９-２,小児科,,,9" xlink:title="（医）才田小児科医院" transform="ref(svg,13578.8393,-3486.9647)" x="0" y="0"/>
<use xlink:href="#p0" content="2,（一財）京都工場保健会診療所宇治支所,京都府宇治市広野町成田１-７,内科,,,9" xlink:title="（一財）京都工場保健会診療所宇治支所" transform="ref(svg,13577.0949,-3487.8672)" x="0" y="0"/>
<use xlink:href="#p0" content="2,竹中内科医院,京都府宇治市広野町西裏９９,内科　放射線科,,,9" xlink:title="竹中内科医院" transform="ref(svg,13577.7425,-3487.3586)" x="0" y="0"/>
<use xlink:href="#p0" content="2,（医）今村医院,京都府宇治市広野町茶屋裏３-３,耳鼻いんこう科,,,9" xlink:title="（医）今村医院" transform="ref(svg,13577.7733,-3487.3267)" x="0" y="0"/>
<use xlink:href="#p0" content="2,野田整形外科医院,京都府宇治市広野町茶屋裏３５-７,整形外科　リハビリテーション科,,,9" xlink:title="野田整形外科医院" transform="ref(svg,13577.8692,-3487.1949)" x="0" y="0"/>
<use xlink:href="#p0" content="2,あづま眼科クリニック,京都府宇治市広野町東裏１０８-２,眼科,,,9" xlink:title="あづま眼科クリニック" transform="ref(svg,13578.1371,-3487.5248)" x="0" y="0"/>
<use xlink:href="#p0" content="2,あづま整形外科クリニック,京都府宇治市広野町東裏１０８-３,リウマチ科　整形外科　形成外科　リハビリテーション科,,,9" xlink:title="あづま整形外科クリニック" transform="ref(svg,13578.1619,-3487.5166)" x="0" y="0"/>
<use xlink:href="#p0" content="2,陸上自衛隊大久保駐屯地医務室,京都府宇治市広野町風呂垣外１-１,内科　外科　整形外科　歯科,,,9" xlink:title="陸上自衛隊大久保駐屯地医務室" transform="ref(svg,13577.6088,-3487.4962)" x="0" y="0"/>
<use xlink:href="#p0" content="2,（医）コクラ医院,京都府城陽市久世下大谷１８-１１１,内科　呼吸器内科　消化器内科　皮膚科　小児科　整形外科　リハビリテーション科　放射線科　麻酔科,,,9" xlink:title="（医）コクラ医院" transform="ref(svg,13578.184,-3486.9381)" x="0" y="0"/>
<use xlink:href="#p0" content="2,（医）大槻内科医院,京都府城陽市久世上大谷１０２-８,内科,,,9" xlink:title="（医）大槻内科医院" transform="ref(svg,13578.5662,-3486.4798)" x="0" y="0"/>
<use xlink:href="#p0" content="2,福山診療所,京都府城陽市久世南垣内４８-１,皮膚科　外科　整形外科　泌尿器科　リハビリテーション科　放射線科　消化器科　肛門科,,,9" xlink:title="福山診療所" transform="ref(svg,13577.5773,-3485.7757)" x="0" y="0"/>
<use xlink:href="#p0" content="2,（福）城陽福祉会（特養）ひだまり久世医務室,京都府城陽市久世里の西８２-１,内科,,,9" xlink:title="（福）城陽福祉会（特養）ひだまり久世医務室" transform="ref(svg,13576.6658,-3485.9288)" x="0" y="0"/>
<use xlink:href="#p0" content="2,ハヤシクリニック,京都府城陽市寺田高田４０-７,内科　アレルギー科　麻酔科,,,9" xlink:title="ハヤシクリニック" transform="ref(svg,13578.0094,-3485.4198)" x="0" y="0"/>
<use xlink:href="#p0" content="2,（医）和会うめかわ内科クリニック,京都府城陽市寺田高田５５-２,内科,,,9" xlink:title="（医）和会うめかわ内科クリニック" transform="ref(svg,13577.8344,-3485.4644)" x="0" y="0"/>
<use xlink:href="#p0" content="2,岡田医院,京都府城陽市寺田今橋１３,内科　小児科,,,9" xlink:title="岡田医院" transform="ref(svg,13576.5157,-3485.2507)" x="0" y="0"/>
<use xlink:href="#p0" content="2,（医）岡田診療所,京都府城陽市寺田今橋１３,内科　皮膚科　小児科　外科　整形外科　胃腸科,,,9" xlink:title="（医）岡田診療所" transform="ref(svg,13576.5157,-3485.2507)" x="0" y="0"/>
<use xlink:href="#p0" content="2,大原診療所,京都府城陽市寺田今堀１５２-１外,内科　皮膚科　外科　胃腸科,,,9" xlink:title="大原診療所" transform="ref(svg,13576.6861,-3484.9069)" x="0" y="0"/>
<use xlink:href="#p0" content="2,伊勢村医院,京都府城陽市寺田尺後５１-１４,内科,,,9" xlink:title="伊勢村医院" transform="ref(svg,13577.2359,-3485.5585)" x="0" y="0"/>
<use xlink:href="#p0" content="2,杉山医院,京都府城陽市寺田新池１３５,内科　呼吸器科　循環器科,,,9" xlink:title="杉山医院" transform="ref(svg,13578.3052,-3484.9667)" x="0" y="0"/>
<use xlink:href="#p0" content="2,（医）栗山小児科医院,京都府城陽市寺田深谷６４-１２,小児科,,,9" xlink:title="（医）栗山小児科医院" transform="ref(svg,13579.0479,-3486.0063)" x="0" y="0"/>
<use xlink:href="#p0" content="2,佐々木レディスクリニック,京都府城陽市寺田水度坂１５-１４,産婦人科　麻酔科,,,9" xlink:title="佐々木レディスクリニック" transform="ref(svg,13578.4239,-3485.4885)" x="0" y="0"/>
<use xlink:href="#p0" content="2,（医）浅野耳鼻咽喉科医院,京都府城陽市寺田水度坂１５-３３６,アレルギー科　耳鼻いんこう科,,,9" xlink:title="（医）浅野耳鼻咽喉科医院" transform="ref(svg,13578.4249,-3485.4102)" x="0" y="0"/>
<use xlink:href="#p0" content="2,（医）福生会小玉眼科医院,京都府城陽市寺田水度坂１５-４５９,眼科,,,9" xlink:title="（医）福生会小玉眼科医院" transform="ref(svg,13578.4655,-3485.4535)" x="0" y="0"/>
<use xlink:href="#p0" content="2,いしだクリニック,京都府城陽市寺田水度坂８８-２５,皮膚科　整形外科　形成外科,,,9" xlink:title="いしだクリニック" transform="ref(svg,13578.3906,-3485.3672)" x="0" y="0"/>
<use xlink:href="#p0" content="2,森澤医院,京都府城陽市寺田西ノ口１８,内科　小児科　胃腸科,,,9" xlink:title="森澤医院" transform="ref(svg,13577.1636,-3485.4408)" x="0" y="0"/>
<use xlink:href="#p0" content="2,藤原クリニック,京都府城陽市寺田西ノ口７-４西邦ビル３Ｆ,麻酔科,,,9" xlink:title="藤原クリニック" transform="ref(svg,13577.2606,-3485.4502)" x="0" y="0"/>
<use xlink:href="#p0" content="2,真鍋整形外科診療所,京都府城陽市寺田袋尻１-６,整形外科　リハビリテーション科,,,9" xlink:title="真鍋整形外科診療所" transform="ref(svg,13578.0542,-3485.2688)" x="0" y="0"/>
<use xlink:href="#p0" content="2,中島内科,京都府城陽市寺田丁子口５９-５,内科,,,9" xlink:title="中島内科" transform="ref(svg,13578.634,-3485.0217)" x="0" y="0"/>
<use xlink:href="#p0" content="2,（医）究元会山野医院,京都府城陽市寺田東ノ口４７,内科　放射線科　胃腸科,,,9" xlink:title="（医）究元会山野医院" transform="ref(svg,13577.8859,-3485.2492)" x="0" y="0"/>
<use xlink:href="#p0" content="2,中川内科医院,京都府城陽市寺田尼塚６８-３４８,内科　小児科,,,9" xlink:title="中川内科医院" transform="ref(svg,13578.757,-3485.8557)" x="0" y="0"/>
<use xlink:href="#p0" content="2,佐々木整形外科,京都府城陽市寺田樋尻１２-６７,リウマチ科　外科　整形外科　リハビリテーション科,,,9" xlink:title="佐々木整形外科" transform="ref(svg,13577.1556,-3485.2634)" x="0" y="0"/>
<use xlink:href="#p0" content="2,金森産婦人科医院,京都府城陽市寺田樋尻１２-６９,内科　皮膚科　小児科　外科　産婦人科　麻酔科,,,9" xlink:title="金森産婦人科医院" transform="ref(svg,13577.0829,-3485.2066)" x="0" y="0"/>
<use xlink:href="#p0" content="2,（医）白枝眼科,京都府城陽市寺田樋尻４４-６寺田駅前ビル２Ｆ,眼科,,,9" xlink:title="（医）白枝眼科" transform="ref(svg,13577.2297,-3485.2788)" x="0" y="0"/>
<use xlink:href="#p0" content="2,水田乳腺クリニック,京都府城陽市寺田樋尻４８-１６,乳腺外科,,,9" xlink:title="水田乳腺クリニック" transform="ref(svg,13577.1177,-3485.3633)" x="0" y="0"/>
<use xlink:href="#p0" content="2,おくむら眼科クリニック,京都府城陽市寺田北東西６５,眼科,,,9" xlink:title="おくむら眼科クリニック" transform="ref(svg,13577.6574,-3485.4836)" x="0" y="0"/>
<use xlink:href="#p0" content="2,福山医院,京都府城陽市寺田林ノ口１１-２８,皮膚科　外科　整形外科　泌尿器科　胃腸科,,,9" xlink:title="福山医院" transform="ref(svg,13578.641,-3485.7062)" x="0" y="0"/>
<use xlink:href="#p0" content="2,山口整形外科医院,京都府城陽市寺田林ノ口２３-３,リウマチ科　整形外科　リハビリテーション科,,,9" xlink:title="山口整形外科医院" transform="ref(svg,13578.1482,-3485.5716)" x="0" y="0"/>
<use xlink:href="#p0" content="2,堀士内科医院,京都府城陽市富野乾垣内８０,内科　消化器科,,,9" xlink:title="堀士内科医院" transform="ref(svg,13577.8243,-3483.926)" x="0" y="0"/>
<use xlink:href="#p0" content="2,城陽市休日急病診療所,京都府城陽市富野久保田１-１,内科　小児科,,,9" xlink:title="城陽市休日急病診療所" transform="ref(svg,13577.9875,-3484.6163)" x="0" y="0"/>
<use xlink:href="#p0" content="2,大西眼科クリニック,京都府城陽市富野西垣内１-３ザ・メドゥズ１Ｆ,眼科,,,9" xlink:title="大西眼科クリニック" transform="ref(svg,13577.4588,-3483.939)" x="0" y="0"/>
<use xlink:href="#p0" content="2,（医）鹿野医院,京都府城陽市富野西垣内２１,内科　小児科　外科　肛門科,,,9" xlink:title="（医）鹿野医院" transform="ref(svg,13577.5073,-3483.8817)" x="0" y="0"/>
<use xlink:href="#p0" content="2,鈴木診療所,京都府城陽市富野西田部１-７,内科　神経内科,,,9" xlink:title="鈴木診療所" transform="ref(svg,13578.0003,-3484.1285)" x="0" y="0"/>
<use xlink:href="#p0" content="2,三好耳鼻咽喉科医院,京都府城陽市平川横道７-１久津川ビル２Ｆ,耳鼻いんこう科,,,9" xlink:title="三好耳鼻咽喉科医院" transform="ref(svg,13577.6767,-3486.5371)" x="0" y="0"/>
<use xlink:href="#p0" content="2,杉本クリニック,京都府城陽市平川横道７-４,内科　皮膚科,,,9" xlink:title="杉本クリニック" transform="ref(svg,13577.6397,-3486.5626)" x="0" y="0"/>
<use xlink:href="#p0" content="2,武智診療所,京都府城陽市平川山道２８-５,循環器内科,,,9" xlink:title="武智診療所" transform="ref(svg,13578.1504,-3486.371)" x="0" y="0"/>
<use xlink:href="#p0" content="2,鎌田クリニック,京都府城陽市平川指月５８-２,整形外科　リハビリテーション科,,,9" xlink:title="鎌田クリニック" transform="ref(svg,13577.2924,-3486.4339)" x="0" y="0"/>
<use xlink:href="#p0" content="2,沼眼科,京都府城陽市平川指月６２-２,眼科,,,9" xlink:title="沼眼科" transform="ref(svg,13577.2133,-3486.4519)" x="0" y="0"/>
<use xlink:href="#p0" content="2,腎・泌尿器科おおねクリニック,京都府城陽市平川指月７７-４,皮膚科　腎臓内科　泌尿器科,,,9" xlink:title="腎・泌尿器科おおねクリニック" transform="ref(svg,13577.3858,-3486.4607)" x="0" y="0"/>
<use xlink:href="#p0" content="2,（医）狩野内科,京都府城陽市平川室木１２-３綿利ビル１Ｆ,内科　リハビリテーション科　胃腸科,,,9" xlink:title="（医）狩野内科" transform="ref(svg,13577.4815,-3486.5833)" x="0" y="0"/>
<use xlink:href="#p0" content="2,（医）高田内科,京都府城陽市平川車塚１６-４,内科　胃腸内科　リハビリテーション科,,,9" xlink:title="（医）高田内科" transform="ref(svg,13577.8895,-3486.4065)" x="0" y="0"/>
<use xlink:href="#p0" content="2,（医）啓信会きづ川クリニック,京都府城陽市平川西六反４４,内科　循環器内科　消化器内科　神経内科　皮膚科　小児科　整形外科　耳鼻いんこう科　リハビリテーション科,,,9" xlink:title="（医）啓信会きづ川クリニック" transform="ref(svg,13576.1309,-3486.6372)" x="0" y="0"/>
<use xlink:href="#p0" content="2,北医院,京都府城陽市平川大将軍７６-２３,小児科,,,9" xlink:title="北医院" transform="ref(svg,13576.9307,-3486.5421)" x="0" y="0"/>
<use xlink:href="#p0" content="2,（医）宏智会田中医院,京都府城陽市平川東垣外７２,整形外科,,,9" xlink:title="（医）宏智会田中医院" transform="ref(svg,13577.4311,-3486.3471)" x="0" y="0"/>
<use xlink:href="#p0" content="2,（福）城陽福祉会（特養）ひだまり平川医務室,京都府城陽市平川浜道裏２０-１,内科,,,9" xlink:title="（福）城陽福祉会（特養）ひだまり平川医務室" transform="ref(svg,13576.5275,-3486.7601)" x="0" y="0"/>
<use xlink:href="#p0" content="2,（医）清福会安見内科医院,京都府城陽市枇杷庄鹿背田３７-９,内科　リハビリテーション科　放射線科,,,9" xlink:title="（医）清福会安見内科医院" transform="ref(svg,13577.3401,-3483.9103)" x="0" y="0"/>
<use xlink:href="#p0" content="2,吉田クリニック,京都府城陽市枇杷庄鹿背田６２,内科　循環器科,,,9" xlink:title="吉田クリニック" transform="ref(svg,13577.3321,-3483.9488)" x="0" y="0"/>
<use xlink:href="#p0" content="2,いけや整形外科医院,京都府城陽市枇杷庄鹿背田７２トライアングルプラザ１Ｆ,整形外科　リハビリテーション科　放射線科,,,9" xlink:title="いけや整形外科医院" transform="ref(svg,13577.3797,-3484.0132)" x="0" y="0"/>
<use xlink:href="#p0" content="2,中西耳鼻咽喉科医院,京都府城陽市枇杷庄鹿背田８０-２井上ビル３Ｆ,耳鼻いんこう科,,,9" xlink:title="中西耳鼻咽喉科医院" transform="ref(svg,13577.4222,-3483.9126)" x="0" y="0"/>
<use xlink:href="#p0" content="2,亀岡医院,京都府城陽市枇杷庄鹿背田８７,内科　小児科　胃腸科,,,9" xlink:title="亀岡医院" transform="ref(svg,13577.3373,-3484.029)" x="0" y="0"/>
<use xlink:href="#p0" content="2,長村内科医院,京都府八幡市内里内５４,内科　小児科　放射線科,,,9" xlink:title="長村内科医院" transform="ref(svg,13572.9024,-3486.2335)" x="0" y="0"/>
<use xlink:href="#p0" content="2,（福）秀孝会（特養）有智の郷医務室,京都府八幡市内里北ノ口５-１,内科　リウマチ科　整形外科　リハビリテーション科,,,9" xlink:title="（福）秀孝会（特養）有智の郷医務室" transform="ref(svg,13572.8222,-3486.3793)" x="0" y="0"/>
<use xlink:href="#p0" content="2,藤永クリニック,京都府八幡市上奈良日ノ尾７-１,内科　麻酔科,,,9" xlink:title="藤永クリニック" transform="ref(svg,13573.6916,-3486.6704)" x="0" y="0"/>
<use xlink:href="#p0" content="2,（医）創健会コストコ京都八幡倉庫店クリニック,京都府八幡市欽明台北５,内科　循環器内科　消化器内科,,,9" xlink:title="（医）創健会コストコ京都八幡倉庫店クリニック" transform="ref(svg,13571.5535,-3484.1089)" x="0" y="0"/>
<use xlink:href="#p0" content="2,（医）清祥会川上内科,京都府八幡市欽明台中央１-１ジーニアススクエアビル２Ｆ,内科　リウマチ科　腎臓内科（人工透析）,,,9" xlink:title="（医）清祥会川上内科" transform="ref(svg,13571.7084,-3483.9482)" x="0" y="0"/>
<use xlink:href="#p0" content="2,たまがきあやこキッズクリニック,京都府八幡市欽明台中央１-５,小児科,,,9" xlink:title="たまがきあやこキッズクリニック" transform="ref(svg,13571.7418,-3483.9629)" x="0" y="0"/>
<use xlink:href="#p0" content="2,（医）やすだこどもクリニック,京都府八幡市欽明台西１５-６,小児科,,,9" xlink:title="（医）やすだこどもクリニック" transform="ref(svg,13571.8702,-3483.4168)" x="0" y="0"/>
<use xlink:href="#p0" content="2,すがぬま医院,京都府八幡市八幡五反田３７-９,精神科　心療内科,,,9" xlink:title="すがぬま医院" transform="ref(svg,13570.6221,-3487.1144)" x="0" y="0"/>
<use xlink:href="#p0" content="2,いばら木整形外科医院,京都府八幡市八幡三本橋１-１０,リウマチ科　整形外科　リハビリテーション科,,,9" xlink:title="いばら木整形外科医院" transform="ref(svg,13570.6004,-3487.8844)" x="0" y="0"/>
<use xlink:href="#p0" content="2,にのゆ耳鼻咽喉科医院,京都府八幡市八幡三本橋１８-１８１,耳鼻いんこう科,,,9" xlink:title="にのゆ耳鼻咽喉科医院" transform="ref(svg,13570.6399,-3487.6938)" x="0" y="0"/>
<use xlink:href="#p0" content="2,八幡市立内科、小児科休日応急診療所,京都府八幡市八幡園内７３-３,内科　小児科,,,9" xlink:title="八幡市立内科、小児科休日応急診療所" transform="ref(svg,13570.7065,-3487.5974)" x="0" y="0"/>
<use xlink:href="#p0" content="2,下野眼科医院,京都府八幡市八幡旦所８-１,眼科,,,9" xlink:title="下野眼科医院" transform="ref(svg,13570.644,-3488.0995)" x="0" y="0"/>
<use xlink:href="#p0" content="2,大久保医院,京都府八幡市八幡土井３９-２,内科　小児科　胃腸科,,,9" xlink:title="大久保医院" transform="ref(svg,13570.3326,-3488.4034)" x="0" y="0"/>
<use xlink:href="#p0" content="2,（医）慶春会あおいクリニック,京都府八幡市八幡樋ノ口１５-３８,内科　皮膚科　精神科　歯科,,,9" xlink:title="（医）慶春会あおいクリニック" transform="ref(svg,13572.0883,-3488.8399)" x="0" y="0"/>
<use xlink:href="#p0" content="2,となみクリニック,京都府八幡市八幡樋ノ口３-５,内科　泌尿器科,,,9" xlink:title="となみクリニック" transform="ref(svg,13571.9708,-3488.8049)" x="0" y="0"/>
<use xlink:href="#p0" content="2,下野医院,京都府八幡市八幡平谷２７,内科　小児科　胃腸科,,,9" xlink:title="下野医院" transform="ref(svg,13570.3558,-3488.0364)" x="0" y="0"/>
<use xlink:href="#p0" content="2,中村診療所,京都府八幡市八幡山柴１７,内科　外科　整形外科,,,9" xlink:title="中村診療所" transform="ref(svg,13570.4089,-3488.1561)" x="0" y="0"/>
<use xlink:href="#p0" content="2,芳野医院,京都府京田辺市大住関屋７-６,内科,,,9" xlink:title="芳野医院" transform="ref(svg,13575.5583,-3483.0272)" x="0" y="0"/>
<use xlink:href="#p0" content="2,（医）おかもと医院,京都府京田辺市大住大欠７-１,内科,,,9" xlink:title="（医）おかもと医院" transform="ref(svg,13574.7334,-3482.9304)" x="0" y="0"/>
<use xlink:href="#p0" content="2,（福）幸生会（特養）九十九園診療所,京都府京田辺市大住池平９９-１,内科,,,9" xlink:title="（福）幸生会（特養）九十九園診療所" transform="ref(svg,13574.0963,-3483.9054)" x="0" y="0"/>
<use xlink:href="#p0" content="2,京都府立洛南寮医務室,京都府京田辺市大住仲ノ谷１４-１,内科,,,9" xlink:title="京都府立洛南寮医務室" transform="ref(svg,13574.631,-3482.7222)" x="0" y="0"/>
<use xlink:href="#p0" content="2,パナソニックデバイス日東（株）健康管理室,京都府京田辺市大住浜５５-１２,内科　外科,,,9" xlink:title="パナソニックデバイス日東（株）健康管理室" transform="ref(svg,13575.0163,-3484.3245)" x="0" y="0"/>
<use xlink:href="#p0" content="2,西村外科医院,京都府京田辺市大住ヶ丘１-１６-３,外科,,,9" xlink:title="西村外科医院" transform="ref(svg,13574.3867,-3483.0029)" x="0" y="0"/>
<use xlink:href="#p0" content="2,（医）八木医院,京都府京田辺市大住ヶ丘３-１７-３,小児科,,,9" xlink:title="（医）八木医院" transform="ref(svg,13574.1315,-3482.9359)" x="0" y="0"/>
<use xlink:href="#p0" content="2,（医）村上クリニック,京都府京田辺市大住ヶ丘４-６-６,耳鼻いんこう科　疼,,,9" xlink:title="（医）村上クリニック" transform="ref(svg,13574.3953,-3482.9487)" x="0" y="0"/>
<use xlink:href="#p0" content="2,近藤整形外科クリニック,京都府京田辺市花住坂１-１２-４,整形外科,,,9" xlink:title="近藤整形外科クリニック" transform="ref(svg,13573.6982,-3482.9554)" x="0" y="0"/>
<use xlink:href="#p0" content="2,（医）沢井内科医院,京都府京田辺市花住坂３-２-４,内科　胃腸科,,,9" xlink:title="（医）沢井内科医院" transform="ref(svg,13573.7364,-3483.1588)" x="0" y="0"/>
<use xlink:href="#p0" content="2,しおたに眼科,京都府京田辺市河原御影３０-５２,眼科,,,9" xlink:title="しおたに眼科" transform="ref(svg,13577.4838,-3482.1028)" x="0" y="0"/>
<use xlink:href="#p0" content="2,松下皮膚科医院,京都府京田辺市河原御影３０-８,皮膚科,,,9" xlink:title="松下皮膚科医院" transform="ref(svg,13577.3968,-3482.0655)" x="0" y="0"/>
<use xlink:href="#p0" content="2,（医）翔隆会寺島クリニック,京都府京田辺市河原御影３０-４０,消化器内科　肛門外科　リハビリテーション科,,,9" xlink:title="（医）翔隆会寺島クリニック" transform="ref(svg,13577.463,-3482.1278)" x="0" y="0"/>
<use xlink:href="#p0" content="2,栄仁会新田辺診療所,京都府京田辺市河原受田４６-１,精神科　心療内科,,,9" xlink:title="栄仁会新田辺診療所" transform="ref(svg,13577.353,-3481.9467)" x="0" y="0"/>
<use xlink:href="#p0" content="2,三村小児科医院,京都府京田辺市河原食田１０-５,小児科,,,9" xlink:title="三村小児科医院" transform="ref(svg,13577.3497,-3482.112)" x="0" y="0"/>
<use xlink:href="#p0" content="2,（医）池崎内科医院,京都府京田辺市河原神谷１０-７,内科　小児科　放射線科　胃腸科,,,9" xlink:title="（医）池崎内科医院" transform="ref(svg,13577.8183,-3481.9596)" x="0" y="0"/>
<use xlink:href="#p0" content="2,山田医院,京都府京田辺市河原神谷１１-８,整形外科,,,9" xlink:title="山田医院" transform="ref(svg,13577.8342,-3481.9581)" x="0" y="0"/>
<use xlink:href="#p0" content="2,（医）健心会五十嵐こころのクリニック,京都府京田辺市河原神谷７-１,精神科　心療内科,,,9" xlink:title="（医）健心会五十嵐こころのクリニック" transform="ref(svg,13577.7338,-3481.9675)" x="0" y="0"/>
<use xlink:href="#p0" content="2,（医）翔裕会あめの医院,京都府京田辺市河原神谷８-１２,外科　胃腸科,,,9" xlink:title="（医）翔裕会あめの医院" transform="ref(svg,13577.7613,-3481.9615)" x="0" y="0"/>
<use xlink:href="#p0" content="2,（医）ふるき産婦人科,京都府京田辺市河原北口４２-３,産婦人科,,,9" xlink:title="（医）ふるき産婦人科" transform="ref(svg,13577.5267,-3482.3358)" x="0" y="0"/>
<use xlink:href="#p0" content="2,岡本医院,京都府京田辺市草内穴口７,内科　アレルギー科,,,9" xlink:title="岡本医院" transform="ref(svg,13578.4386,-3481.519)" x="0" y="0"/>
<use xlink:href="#p0" content="2,うえむら内科医院,京都府京田辺市興戸東垣内８５-５,内科,,,9" xlink:title="うえむら内科医院" transform="ref(svg,13577.513,-3480.8666)" x="0" y="0"/>
<use xlink:href="#p0" content="2,（医）石鎚会石丸医院,京都府京田辺市興戸南落延２３,内科　小児科　放射線科　胃腸科,,,9" xlink:title="（医）石鎚会石丸医院" transform="ref(svg,13578.0775,-3480.7691)" x="0" y="0"/>
<use xlink:href="#p0" content="2,田畑医院,京都府京田辺市薪小欠２１,内科　小児科　呼吸器科　循環器科,,,9" xlink:title="田畑医院" transform="ref(svg,13575.9516,-3481.752)" x="0" y="0"/>
<use xlink:href="#p0" content="2,河村内科医院,京都府京田辺市薪石ノ前２５,内科　神経内科,,,9" xlink:title="河村内科医院" transform="ref(svg,13575.8984,-3482.1409)" x="0" y="0"/>
<use xlink:href="#p0" content="2,川東整形外科,京都府京田辺市薪茶屋前３１,整形外科　リハビリテーション科,,,9" xlink:title="川東整形外科" transform="ref(svg,13575.7727,-3482.832)" x="0" y="0"/>
<use xlink:href="#p0" content="2,京田辺市休日応急診療所,京都府京田辺市田辺７８,内科　小児科,,,9" xlink:title="京田辺市休日応急診療所" transform="ref(svg,13576.852,-3481.4534)" x="0" y="0"/>
<use xlink:href="#p0" content="2,和田医院,京都府京田辺市田辺針ヶ池８-１,内科　小児科　胃腸科,,,9" xlink:title="和田医院" transform="ref(svg,13576.8528,-3481.9499)" x="0" y="0"/>
<use xlink:href="#p0" content="2,浜耳鼻咽喉科医院,京都府京田辺市田辺中央６-３-１近鉄新田辺西ビル３階,アレルギー科　耳鼻いんこう科,,,9" xlink:title="浜耳鼻咽喉科医院" transform="ref(svg,13577.2266,-3482.1551)" x="0" y="0"/>
<use xlink:href="#p0" content="2,安渕眼科医院,京都府京田辺市田辺中央６近鉄新田辺西ビル３Ｆ,眼科,,,9" xlink:title="安渕眼科医院" transform="ref(svg,13577.2287,-3482.1548)" x="0" y="0"/>
<use xlink:href="#p0" content="2,太田眼科,京都府京田辺市田辺北里２２,眼科,,,9" xlink:title="太田眼科" transform="ref(svg,13576.6391,-3481.8731)" x="0" y="0"/>
<use xlink:href="#p0" content="2,京都府山城北保健所綴喜分室,京都府京田辺市田辺明田１,内科　小児科　放射線科,,,9" xlink:title="京都府山城北保健所綴喜分室" transform="ref(svg,13576.94,-3482.3072)" x="0" y="0"/>
<use xlink:href="#p0" content="2,京都府立こども発達支援センター診療所,京都府京田辺市田辺茂ヶ谷１８６-１,小児科　精神科　整形外科,,,9" xlink:title="京都府立こども発達支援センター診療所" transform="ref(svg,13575.7223,-3481.3173)" x="0" y="0"/>
<use xlink:href="#p0" content="2,（医）井出産婦人科,京都府京田辺市東西神屋４３,産婦人科,,,9" xlink:title="（医）井出産婦人科" transform="ref(svg,13577.8962,-3482.0281)" x="0" y="0"/>
<use xlink:href="#p0" content="2,（医）浜口キッズクリニック,京都府京田辺市松井ヶ丘３-１-９,小児科,,,9" xlink:title="（医）浜口キッズクリニック" transform="ref(svg,13572.9581,-3483.177)" x="0" y="0"/>
<use xlink:href="#p0" content="2,（医）新生会伊原内科医院,京都府京田辺市松井ヶ丘４-３-１６,内科　循環器内科　消化器内科　漢方内科,,,9" xlink:title="（医）新生会伊原内科医院" transform="ref(svg,13573.0055,-3483.1174)" x="0" y="0"/>
<use xlink:href="#p0" content="2,伊藤皮フ科,京都府京田辺市山手東１-２-３若村ビル１階,皮膚科,,,9" xlink:title="伊藤皮フ科" transform="ref(svg,13572.8448,-3483.3449)" x="0" y="0"/>
<use xlink:href="#p0" content="2,（医）新田クリニック,京都府京田辺市山手東１-２-７東ローズメディカルビル１Ｆ,内科　胃腸内科,,,9" xlink:title="（医）新田クリニック" transform="ref(svg,13572.8184,-3483.3943)" x="0" y="0"/>
<use xlink:href="#p0" content="2,（医）こじまレディースクリニック,京都府京田辺市山手東１-２-６,産婦人科,,,9" xlink:title="（医）こじまレディースクリニック" transform="ref(svg,13572.8315,-3483.3899)" x="0" y="0"/>
<use xlink:href="#p0" content="2,（医）石鎚会松井山手クリニック,京都府京田辺市山手東２-３Ｄ-１０１,内科　皮膚科　小児科,,,9" xlink:title="（医）石鎚会松井山手クリニック" transform="ref(svg,13572.562,-3483.569)" x="0" y="0"/>
<use xlink:href="#p0" content="2,なお眼科クリニック,京都府京田辺市山手西２-２-３日東西ビル１階,眼科,,,9" xlink:title="なお眼科クリニック" transform="ref(svg,13572.5966,-3483.2215)" x="0" y="0"/>
<use xlink:href="#p0" content="2,（医）顕夢会ひろしば耳鼻咽喉科,京都府京田辺市山手西２-２-３日東西ビル２Ｆ・３Ｆ,耳鼻いんこう科,,,9" xlink:title="（医）顕夢会ひろしば耳鼻咽喉科" transform="ref(svg,13572.5966,-3483.2215)" x="0" y="0"/>
<use xlink:href="#p0" content="2,私立山手中央診療所,京都府京田辺市山手南１-３-１,内科　外科,,,9" xlink:title="私立山手中央診療所" transform="ref(svg,13572.5646,-3483.2277)" x="0" y="0"/>
<use xlink:href="#p0" content="2,くわはら内科,京都府久世郡久御山町北川顔村西６-２,内科　アレルギー科　小児科,,,9" xlink:title="くわはら内科" transform="ref(svg,13572.0213,-3489.2429)" x="0" y="0"/>
<use xlink:href="#p0" content="2,辻医院,京都府久世郡久御山町栄４-１-１５,内科　小児科　外科,,,9" xlink:title="辻医院" transform="ref(svg,13576.1285,-3487.9986)" x="0" y="0"/>
<use xlink:href="#p0" content="2,（医）おおむら医院,京都府久世郡久御山町佐古内屋敷６１-１,内科　消化器内科　皮膚科　小児科　整形外科,,,9" xlink:title="（医）おおむら医院" transform="ref(svg,13575.1687,-3487.8628)" x="0" y="0"/>
<use xlink:href="#p0" content="2,田村医院,京都府久世郡久御山町佐山双置８７,内科　皮膚科　小児科　眼科　循環器科,,,9" xlink:title="田村医院" transform="ref(svg,13575.3143,-3487.4935)" x="0" y="0"/>
<use xlink:href="#p0" content="2,勘田内科医院,京都府久世郡久御山町林宮の後３６-８,内科　小児科　放射線科　胃腸科,,,9" xlink:title="勘田内科医院" transform="ref(svg,13575.7983,-3487.8071)" x="0" y="0"/>
<use xlink:href="#p0" content="2,（福）八康会（特養）楽生苑診療所,京都府久世郡久御山町坊之池坊村中６６,内科　外科　整形外科,,,9" xlink:title="（福）八康会（特養）楽生苑診療所" transform="ref(svg,13573.2396,-3489.1543)" x="0" y="0"/>
<use xlink:href="#p0" content="2,寺嶋クリニック,大阪府枚方市藤阪元町３-２０-１,内科　リハビリテーション科　胃腸内科　循環器内科,,,9" xlink:title="寺嶋クリニック" transform="ref(svg,13570.3422,-3482.0911)" x="0" y="0"/>
<use xlink:href="#p0" content="2,（医）奥田内科医院,大阪府枚方市長尾元町２-１６-２,内科　胃腸科,,,9" xlink:title="（医）奥田内科医院" transform="ref(svg,13570.7777,-3482.5447)" x="0" y="0"/>
<use xlink:href="#p0" content="2,（医）長尾台診療所,大阪府枚方市長尾台２-１-２６,内科　小児科　リハビリテーション科　放射線科　消化器科,,,9" xlink:title="（医）長尾台診療所" transform="ref(svg,13571.5392,-3481.9756)" x="0" y="0"/>
<use xlink:href="#p0" content="2,（医）岡崎耳鼻咽喉科医院,大阪府枚方市長尾元町６-１-５駅前ビルチャオ,耳鼻咽喉科,,,9" xlink:title="（医）岡崎耳鼻咽喉科医院" transform="ref(svg,13571.3144,-3482.6599)" x="0" y="0"/>
<use xlink:href="#p0" content="2,（福）光生会大阪ピープルハウス枚方診療所,大阪府枚方市尊延寺１-４-１,内科　外科,,,9" xlink:title="（福）光生会大阪ピープルハウス枚方診療所" transform="ref(svg,13572.5409,-3480.5868)" x="0" y="0"/>
<use xlink:href="#p0" content="2,藤井医院,大阪府枚方市藤阪北町２８-３,内科　小児科　皮膚科,,,9" xlink:title="藤井医院" transform="ref(svg,13570.4182,-3482.2439)" x="0" y="0"/>
<use xlink:href="#p0" content="2,荻野整形外科,大阪府枚方市長尾宮前１-１-５-１０３シャルム宮前１Ｆ,リハビリテーション科　整形外科,,,9" xlink:title="荻野整形外科" transform="ref(svg,13571.168,-3482.432)" x="0" y="0"/>
<use xlink:href="#p0" content="2,（医）川本クリニック,大阪府枚方市藤坂中町１１-７,内科　胃腸科,,,9" xlink:title="（医）川本クリニック" transform="ref(svg,13570.7825,-3482.2338)" x="0" y="0"/>
<use xlink:href="#p0" content="2,（福）わらしべ会第二わらしべ園医務室,大阪府枚方市長尾荒坂２-３５４５,内科　外科,,,9" xlink:title="（福）わらしべ会第二わらしべ園医務室" transform="ref(svg,13571.2766,-3483.4632)" x="0" y="0"/>
<use xlink:href="#p0" content="2,（医）ハヤマクリニック,大阪府枚方市長尾元町５-２４-５,内科　外科　リハビリテーション科,,,9" xlink:title="（医）ハヤマクリニック" transform="ref(svg,13571.1684,-3482.5907)" x="0" y="0"/>
<use xlink:href="#p0" content="2,（医）うめもとクリニック,大阪府枚方市杉３-１５-１,内科　呼吸器科　循環器科,,,9" xlink:title="（医）うめもとクリニック" transform="ref(svg,13571.8842,-3481.4365)" x="0" y="0"/>
<use xlink:href="#p0" content="2,（医）松徳会くにみが丘クリニック,大阪府枚方市津田山手１-１９-１,内科　消化器科,,,9" xlink:title="（医）松徳会くにみが丘クリニック" transform="ref(svg,13570.8482,-3480.7278)" x="0" y="0"/>
<use xlink:href="#p0" content="2,（医）誠幸会わだ整形外科クリニック,大阪府枚方市長尾元町２-１-２１,外科　リハビリテーション科　整形外科,,,9" xlink:title="（医）誠幸会わだ整形外科クリニック" transform="ref(svg,13570.3176,-3482.6411)" x="0" y="0"/>
<use xlink:href="#p0" content="2,（医）正一会浦医院,大阪府枚方市津田北町２-２６-１,内科　循環器科,,,9" xlink:title="（医）正一会浦医院" transform="ref(svg,13570.4197,-3481.0051)" x="0" y="0"/>
<use xlink:href="#p0" content="2,（医）昭征会さかの北山クリニック,大阪府枚方市長尾家具町３-３-３０,内科　外科,,,9" xlink:title="（医）昭征会さかの北山クリニック" transform="ref(svg,13570.7291,-3483.9981)" x="0" y="0"/>
<use xlink:href="#p0" content="2,（医）みどり会中村記念クリニック,大阪府枚方市藤阪中町３-２０,内科　リハビリテーション科,,,9" xlink:title="（医）みどり会中村記念クリニック" transform="ref(svg,13570.6908,-3482.1211)" x="0" y="0"/>
<use xlink:href="#p0" content="2,（医）保光会きたの眼科,大阪府枚方市長尾元町２-１-１０,眼科,,,9" xlink:title="（医）保光会きたの眼科" transform="ref(svg,13570.3728,-3482.6403)" x="0" y="0"/>
</g>
</svg>
