<?xml version="1.0" encoding="UTF-8"?>
<svg  xmlns="http://www.w3.org/2000/svg" xmlns:xlink="http://www.w3.org/1999/xlink" xmlns:go="http://purl.org/svgmap/profile" property="医療機関分類,施設名称,所在地,診療科目１,診療科目２,診療科目３,開設者分類" viewBox="13464.84375 -3480.46875 17.578125 17.578125" go:dataArea="13464.84375 -3480.46875 17.578125 17.578125" >
<metadata>
 <rdf:RDF xmlns:rdf="http://www.w3.org/1999/02/22-rdf-syntax-ns#" xmlns:crs="http://opengis.org/xmldtds/transformations.dtd" xmlns:svg="http://www.w3.org/svg" >
  <rdf:Description>
   <crs:CoordinateReferenceSystem rdf:resource="http://purl.org/crs/84" svg:transform="matrix(100.0,0.0,0.0,-100.0,0.0,0.0)" />
  </rdf:Description>
 </rdf:RDF>
</metadata>
<globalCoordinateSystem srsName="http://purl.org/crs/84" transform="matrix(100.0,0.0,0.0,-100.0,0.0,0.0)" />
<defs>
 <g id="p0" >
  <image xlink:href="mappin.png" preserveAspectRatio="none" x="-8" y="-25" width="19" height="27"/>
 </g>
 <g id="p1" >
  <image xlink:href="mappin1.png" preserveAspectRatio="none" x="-8" y="-25" width="19" height="27"/>
 </g>
 <g id="p2" >
  <image xlink:href="mappin2.png" preserveAspectRatio="none" x="-8" y="-25" width="19" height="27"/>
 </g>
 <g id="p3" >
  <image xlink:href="mappin3.png" preserveAspectRatio="none" x="-8" y="-25" width="19" height="27"/>
 </g>
 <g id="p4" >
  <image xlink:href="mappin4.png" preserveAspectRatio="none" x="-8" y="-25" width="19" height="27"/>
 </g>
 <g id="p5" >
  <image xlink:href="mappin5.png" preserveAspectRatio="none" x="-8" y="-25" width="19" height="27"/>
 </g>
 <g id="p6" >
  <image xlink:href="mappin6.png" preserveAspectRatio="none" x="-8" y="-25" width="19" height="27"/>
 </g>
 <g id="p7" >
  <image xlink:href="mappin7.png" preserveAspectRatio="none" x="-8" y="-25" width="19" height="27"/>
 </g>
 <g id="p8" >
  <image xlink:href="mappin8.png" preserveAspectRatio="none" x="-8" y="-25" width="19" height="27"/>
 </g>
 <g id="p9" >
  <image xlink:href="mappin9.png" preserveAspectRatio="none" x="-8" y="-25" width="19" height="27"/>
 </g>
</defs>
<g fill="green" fill-rule="evenodd" >
<use xlink:href="#p0" content="2,岡本愛育医院,兵庫県姫路市飾磨区栄町５８-１,産婦人科,,,9" xlink:title="岡本愛育医院" transform="ref(svg,13467.363,-3479.8933)" x="0" y="0"/>
<use xlink:href="#p0" content="2,山陽特殊製鋼（株）診療所,兵庫県姫路市飾磨区中島３００７,内科　外科,,,9" xlink:title="山陽特殊製鋼（株）診療所" transform="ref(svg,13467.2153,-3479.1505)" x="0" y="0"/>
<use xlink:href="#p0" content="2,小嶋診療所,兵庫県姫路市的形町的形１２５０,内科　胃腸科,,,9" xlink:title="小嶋診療所" transform="ref(svg,13473.8245,-3478.1272)" x="0" y="0"/>
<use xlink:href="#p0" content="2,深津内科診療所,兵庫県姫路市飾磨区中島７,内科　小児科,,,9" xlink:title="深津内科診療所" transform="ref(svg,13468.4542,-3479.9148)" x="0" y="0"/>
<use xlink:href="#p0" content="2,吉野医院,兵庫県姫路市飾磨区恵美酒１１７,内科　胃腸科　循環器科,,,9" xlink:title="吉野医院" transform="ref(svg,13467.3764,-3480.1009)" x="0" y="0"/>
<use xlink:href="#p0" content="2,山崎医院,兵庫県姫路市八家１２２７,婦人科　内科,,,9" xlink:title="山崎医院" transform="ref(svg,13472.5792,-3478.0998)" x="0" y="0"/>
<use xlink:href="#p0" content="2,泉内科医院,兵庫県姫路市飾磨区妻鹿９２０,内科,,,9" xlink:title="泉内科医院" transform="ref(svg,13469.18,-3479.0464)" x="0" y="0"/>
<use xlink:href="#p0" content="2,後藤耳鼻咽喉科医院,兵庫県姫路市飾磨区清水１８８,耳鼻いんこう科,,,9" xlink:title="後藤耳鼻咽喉科医院" transform="ref(svg,13467.5987,-3480.1098)" x="0" y="0"/>
<use xlink:href="#p0" content="2,古林眼科医院,兵庫県姫路市飾磨区栄町６,眼科,,,9" xlink:title="古林眼科医院" transform="ref(svg,13467.3932,-3479.8926)" x="0" y="0"/>
<use xlink:href="#p0" content="2,塩住医院,兵庫県姫路市白浜町丙５６４-１３,内科　循環器科,,,9" xlink:title="塩住医院" transform="ref(svg,13470.9094,-3478.3509)" x="0" y="0"/>
<use xlink:href="#p0" content="2,寺西医院,兵庫県姫路市飾磨区清水１０８,内科　糖尿病内科　消化器内科,,,9" xlink:title="寺西医院" transform="ref(svg,13467.5986,-3480.0731)" x="0" y="0"/>
<use xlink:href="#p0" content="2,石田内科クリニック,兵庫県姫路市白浜町宇佐崎中２-５２２-２,内科　呼吸器科　消化器科　循環器科　人工透析内科,,,9" xlink:title="石田内科クリニック" transform="ref(svg,13471.3556,-3478.2262)" x="0" y="0"/>
<use xlink:href="#p0" content="2,土井医院,兵庫県姫路市的形町的形１７６１-２０,内科　小児科,,,9" xlink:title="土井医院" transform="ref(svg,13474.279,-3477.9262)" x="0" y="0"/>
<use xlink:href="#p0" content="2,三谷内科医院,兵庫県姫路市飾磨区今在家３-２６８,内科　心臓内科　リハビリテーション科　放射線科,,,9" xlink:title="三谷内科医院" transform="ref(svg,13465.5378,-3480.3537)" x="0" y="0"/>
<use xlink:href="#p0" content="2,みやけ内科循環器科,兵庫県姫路市大塩町宮前１,内科　循環器科　小児科,,,9" xlink:title="みやけ内科循環器科" transform="ref(svg,13475.9159,-3477.6619)" x="0" y="0"/>
<use xlink:href="#p0" content="2,（特養）あさなぎ医務室,兵庫県姫路市白浜町乙８３６,内科,,,9" xlink:title="（特養）あさなぎ医務室" transform="ref(svg,13471.0428,-3478.7611)" x="0" y="0"/>
<use xlink:href="#p0" content="2,平野整形外科,兵庫県姫路市飾磨区今在家１３７０,整形外科　リハビリテーション科　リウマチ科,,,9" xlink:title="平野整形外科" transform="ref(svg,13465.6795,-3479.9481)" x="0" y="0"/>
<use xlink:href="#p0" content="2,まさき眼科,兵庫県姫路市白浜町甲８４０-１８,眼科,,,9" xlink:title="まさき眼科" transform="ref(svg,13470.5117,-3478.3124)" x="0" y="0"/>
<use xlink:href="#p0" content="2,和田林皮膚科,兵庫県姫路市飾磨区清水５１-１ベルトピア飾磨３０２,皮膚科　形成外科　アレルギー科,,,9" xlink:title="和田林皮膚科" transform="ref(svg,13467.427,-3479.9592)" x="0" y="0"/>
<use xlink:href="#p0" content="2,藤戸内科,兵庫県姫路市飾磨区恵美酒２１３-７,内科,,,9" xlink:title="藤戸内科" transform="ref(svg,13467.1796,-3480.3164)" x="0" y="0"/>
<use xlink:href="#p0" content="2,おがさ内科,兵庫県姫路市飾磨区加茂南８２４-１４,内科　胃腸科　循環器科　リハビリテーション科,,,9" xlink:title="おがさ内科" transform="ref(svg,13466.1476,-3479.8725)" x="0" y="0"/>
<use xlink:href="#p0" content="2,近藤内科医院,兵庫県姫路市東山２５１,内科,,,9" xlink:title="近藤内科医院" transform="ref(svg,13471.8924,-3479.1009)" x="0" y="0"/>
<use xlink:href="#p0" content="2,水田クリニック,兵庫県姫路市飾磨区細江６５０-１,内科　消化器科　リハビリテーション科,,,9" xlink:title="水田クリニック" transform="ref(svg,13466.7206,-3479.6122)" x="0" y="0"/>
<use xlink:href="#p0" content="2,アミタ整形外科・皮フ科・内科クリニック,兵庫県姫路市白浜町神田２-１０９,整形外科　皮膚科　内科　リハビリテーション科,,,9" xlink:title="アミタ整形外科・皮フ科・内科クリニック" transform="ref(svg,13470.7265,-3479.5694)" x="0" y="0"/>
<use xlink:href="#p0" content="2,清水医院,兵庫県姫路市飾磨区天神９,内科　リハビリテーション科,,,9" xlink:title="清水医院" transform="ref(svg,13466.6246,-3479.5326)" x="0" y="0"/>
<use xlink:href="#p0" content="2,（特養）しかまの里医務室,兵庫県姫路市飾磨区阿成植木９６０,内科,,,9" xlink:title="（特養）しかまの里医務室" transform="ref(svg,13469.0371,-3480.2133)" x="0" y="0"/>
<use xlink:href="#p0" content="2,中野診療所,兵庫県姫路市白浜町甲２１３８,内科　循環器内科　皮膚科,,,9" xlink:title="中野診療所" transform="ref(svg,13470.5318,-3478.8039)" x="0" y="0"/>
<use xlink:href="#p0" content="2,いそかわキッズクリニック,兵庫県姫路市木場前七反町６１,小児科,,,9" xlink:title="いそかわキッズクリニック" transform="ref(svg,13471.8998,-3478.0939)" x="0" y="0"/>
<use xlink:href="#p0" content="2,貴志内科クリニック,兵庫県姫路市白浜町寺家１-１７７-２,内科　消化器内科（内視鏡）　老年内科,,,9" xlink:title="貴志内科クリニック" transform="ref(svg,13471.2259,-3479.0835)" x="0" y="0"/>
<use xlink:href="#p0" content="2,石塚硝子（株）姫路工場医局,兵庫県姫路市飾磨区今在家１３５１-１,内科　消化器科,,,9" xlink:title="石塚硝子（株）姫路工場医局" transform="ref(svg,13465.0418,-3478.8819)" x="0" y="0"/>
<use xlink:href="#p0" content="2,岡こどもクリニック,兵庫県姫路市飾磨区阿成植木８２５,小児科　アレルギー科　婦人科,,,9" xlink:title="岡こどもクリニック" transform="ref(svg,13468.9501,-3480.0511)" x="0" y="0"/>
<use xlink:href="#p0" content="2,中村純クリニック,兵庫県姫路市飾磨区清水３-８１,胃腸科　外科　リハビリテーション科,,,9" xlink:title="中村純クリニック" transform="ref(svg,13467.9819,-3480.3738)" x="0" y="0"/>
<use xlink:href="#p0" content="2,大村内科循環器科クリニック,兵庫県姫路市白浜町丙４９２-１１,内科　循環器科,,,9" xlink:title="大村内科循環器科クリニック" transform="ref(svg,13471.9337,-3478.4568)" x="0" y="0"/>
<use xlink:href="#p0" content="2,ひまわり整形外科,兵庫県姫路市飾磨区今在家４-２５-１,整形外科　リウマチ科　リハビリテーション科,,,9" xlink:title="ひまわり整形外科" transform="ref(svg,13465.1559,-3480.4391)" x="0" y="0"/>
<use xlink:href="#p0" content="2,栗原整形外科,兵庫県姫路市別所町別所１６８４-５,整形外科　リウマチ科　リハビリテーション科,,,9" xlink:title="栗原整形外科" transform="ref(svg,13475.6773,-3480.4035)" x="0" y="0"/>
<use xlink:href="#p0" content="2,はちわかこどもクリニック,兵庫県姫路市白浜町神田２-９５-２,小児科,,,9" xlink:title="はちわかこどもクリニック" transform="ref(svg,13470.8822,-3479.4676)" x="0" y="0"/>
<use xlink:href="#p0" content="2,（特養）星陽医務室,兵庫県姫路市別所町別所１１３１,内科　外科　消化器科,,,9" xlink:title="（特養）星陽医務室" transform="ref(svg,13474.9179,-3479.9361)" x="0" y="0"/>
<use xlink:href="#p0" content="2,西川耳鼻咽喉科,兵庫県姫路市白浜町宇佐崎北３-２２２-２,耳鼻咽喉科,,,9" xlink:title="西川耳鼻咽喉科" transform="ref(svg,13471.4034,-3478.9628)" x="0" y="0"/>
<use xlink:href="#p0" content="2,山陽内科クリニック,兵庫県姫路市飾磨区清水２-３１,内科　呼吸器内科　消化器内科,,,9" xlink:title="山陽内科クリニック" transform="ref(svg,13467.7375,-3480.2147)" x="0" y="0"/>
<use xlink:href="#p0" content="2,柴田整形外科クリニック,兵庫県姫路市飾磨区今在家１０４６-３０,整形外科　リハビリテーション科,,,9" xlink:title="柴田整形外科クリニック" transform="ref(svg,13465.1834,-3479.9567)" x="0" y="0"/>
<use xlink:href="#p0" content="2,和田整形外科クリニック,兵庫県姫路市白浜町寺家１-１８６-１,整形外科　リウマチ科　リハビリテーション科,,,9" xlink:title="和田整形外科クリニック" transform="ref(svg,13471.1994,-3479.1041)" x="0" y="0"/>
<use xlink:href="#p0" content="2,パナソニック液晶ディスプレイ（株）健康管理室,兵庫県姫路市飾磨区妻鹿日田町１-６,内科,,,9" xlink:title="パナソニック液晶ディスプレイ（株）健康管理室" transform="ref(svg,13468.1282,-3477.6745)" x="0" y="0"/>
<use xlink:href="#p0" content="2,三木眼科,兵庫県姫路市飾磨区清水７２,眼科,,,9" xlink:title="三木眼科" transform="ref(svg,13467.4294,-3480.0482)" x="0" y="0"/>
<use xlink:href="#p0" content="2,姫路市南保健センター,兵庫県姫路市飾磨区細江２６５５,内科　小児科,,,9" xlink:title="姫路市南保健センター" transform="ref(svg,13466.5807,-3480.0115)" x="0" y="0"/>
<use xlink:href="#p0" content="2,（福）播陽灘（特養）いやさか苑医務室,兵庫県姫路市白浜町宇佐崎北１-２９,内科,,,9" xlink:title="（福）播陽灘（特養）いやさか苑医務室" transform="ref(svg,13472.0416,-3478.5287)" x="0" y="0"/>
<use xlink:href="#p0" content="2,赤木皮膚科クリニック,兵庫県姫路市姫路市白浜町寺家１-１８３,皮膚科,,,9" xlink:title="赤木皮膚科クリニック" transform="ref(svg,13471.1772,-3479.1118)" x="0" y="0"/>
<use xlink:href="#p0" content="2,せおクリニック内科眼科,兵庫県姫路市北原２６６-１,内科　消化器内科　肝臓内科　眼科,,,9" xlink:title="せおクリニック内科眼科" transform="ref(svg,13470.6118,-3479.9004)" x="0" y="0"/>
<use xlink:href="#p0" content="2,すがの内科クリニック,兵庫県姫路市別所町北宿１０４８-３,内科　消化器内科,,,9" xlink:title="すがの内科クリニック" transform="ref(svg,13475.9591,-3480.4641)" x="0" y="0"/>
<use xlink:href="#p0" content="2,清水小児科,兵庫県姫路市飾磨区加茂２４６-７,小児科,,,9" xlink:title="清水小児科" transform="ref(svg,13465.8939,-3480.0906)" x="0" y="0"/>
<use xlink:href="#p0" content="2,（特養）うさぎ医務室,兵庫県姫路市姫路市東山５７７,内科,,,9" xlink:title="（特養）うさぎ医務室" transform="ref(svg,13472.5352,-3478.5987)" x="0" y="0"/>
<use xlink:href="#p0" content="2,原田心療クリニック,兵庫県姫路市飾磨区玉地１-３４信光第２ビル１Ｆ,精神科　心臓内科,,,9" xlink:title="原田心療クリニック" transform="ref(svg,13467.6415,-3480.017)" x="0" y="0"/>
<use xlink:href="#p0" content="2,佐古泌尿器科,兵庫県姫路市飾磨区下野田１-１７７,泌尿器科,,,9" xlink:title="佐古泌尿器科" transform="ref(svg,13468.0495,-3480.3556)" x="0" y="0"/>
<use xlink:href="#p0" content="2,（医）回起会奥産婦人科,兵庫県加古川市加古川町木村７００-１,産婦人科,,,9" xlink:title="（医）回起会奥産婦人科" transform="ref(svg,13482.1403,-3476.6901)" x="0" y="0"/>
<use xlink:href="#p0" content="2,矢野産婦人科医院,兵庫県加古川市西神吉町岸１５２-２,産婦人科,,,9" xlink:title="矢野産婦人科医院" transform="ref(svg,13481.3893,-3478.7388)" x="0" y="0"/>
<use xlink:href="#p0" content="2,中村整形外科,兵庫県高砂市北浜町西浜１２０８-７５,整形外科,,,9" xlink:title="中村整形外科" transform="ref(svg,13475.1136,-3478.1031)" x="0" y="0"/>
<use xlink:href="#p0" content="2,横山外科胃腸科医院,兵庫県高砂市高砂町朝日町２-８-２８,内科　胃腸科　外科　整形外科　リハビリテーション科　放射線科,,,9" xlink:title="横山外科胃腸科医院" transform="ref(svg,13480.1793,-3475.4124)" x="0" y="0"/>
<use xlink:href="#p0" content="2,大森産婦人科医院,兵庫県高砂市伊保港町２-５-１７,産婦人科　麻酔科,,,9" xlink:title="大森産婦人科医院" transform="ref(svg,13478.6608,-3476.6646)" x="0" y="0"/>
<use xlink:href="#p0" content="2,大森整形外科医院,兵庫県高砂市曽根町４４７-１,リウマチ科　整形外科　リハビリテーション科　麻酔科,,,9" xlink:title="大森整形外科医院" transform="ref(svg,13477.3746,-3477.8904)" x="0" y="0"/>
<use xlink:href="#p0" content="2,東高砂胃腸外科,兵庫県高砂市米田町古新字西新田３０５-１,胃腸内科　外科　肛門外科　整形外科　泌尿器科　リハビリテーション科,,,9" xlink:title="東高砂胃腸外科" transform="ref(svg,13480.8917,-3477.1849)" x="0" y="0"/>
<use xlink:href="#p0" content="2,かたしま・きたうら産婦人科医院,兵庫県高砂市米田町米田１３９-２,産婦人科,,,9" xlink:title="かたしま・きたうら産婦人科医院" transform="ref(svg,13480.9793,-3478.3365)" x="0" y="0"/>
<use xlink:href="#p0" content="2,（医）仙齢会はりまクリニック,兵庫県加古川市尾上町池田字出林６２１-１,内科　精神科　胃腸科,,,9" xlink:title="（医）仙齢会はりまクリニック" transform="ref(svg,13482.2249,-3474.0463)" x="0" y="0"/>
<use xlink:href="#p0" content="2,やました整形外科,兵庫県加古川市尾上町長田４１１-１,整形外科　リハビリテーション科　リウマチ科,,,9" xlink:title="やました整形外科" transform="ref(svg,13482.3384,-3474.3655)" x="0" y="0"/>
<use xlink:href="#p0" content="2,大西医院,兵庫県加古川市尾上町旭３-５８,内科　精神科　神経科　小児科,,,9" xlink:title="大西医院" transform="ref(svg,13481.7638,-3475.0879)" x="0" y="0"/>
<use xlink:href="#p0" content="2,前田眼科,兵庫県加古川市尾上町旭２-２７-１,眼科,,,9" xlink:title="前田眼科" transform="ref(svg,13482.0864,-3474.9614)" x="0" y="0"/>
<use xlink:href="#p0" content="2,こだま医院,兵庫県加古川市尾上町今福４６７-２,内科　小児科　放射線科,,,9" xlink:title="こだま医院" transform="ref(svg,13482.3672,-3475.4804)" x="0" y="0"/>
<use xlink:href="#p0" content="2,いのまた循環器科内科,兵庫県加古川市加古川町友沢４５８-３,内科　循環器科,,,9" xlink:title="いのまた循環器科内科" transform="ref(svg,13481.4338,-3476.3232)" x="0" y="0"/>
<use xlink:href="#p0" content="2,ほうらい外科胃腸科医院,兵庫県加古川市加古川町木村７０８,外科　胃腸科　肛門科　リハビリテーション科,,,9" xlink:title="ほうらい外科胃腸科医院" transform="ref(svg,13482.0916,-3476.5545)" x="0" y="0"/>
<use xlink:href="#p0" content="2,藤岡内科医院,兵庫県加古川市西神吉町大国６７０-７,内科　消化器科,,,9" xlink:title="藤岡内科医院" transform="ref(svg,13481.402,-3479.7017)" x="0" y="0"/>
<use xlink:href="#p0" content="2,かみおかこどもクリニック,兵庫県加古川市西神吉町大国７３-１,小児科,,,9" xlink:title="かみおかこどもクリニック" transform="ref(svg,13481.7682,-3479.1689)" x="0" y="0"/>
<use xlink:href="#p0" content="2,森田医院,兵庫県加古川市西神吉町岸１５２-９,内科　循環器科　放射線科,,,9" xlink:title="森田医院" transform="ref(svg,13481.3777,-3478.7482)" x="0" y="0"/>
<use xlink:href="#p0" content="2,井上医院,兵庫県加古川市西神吉町岸２８８-２,内科　消化器科　リハビリテーション科,,,9" xlink:title="井上医院" transform="ref(svg,13481.1815,-3479.1776)" x="0" y="0"/>
<use xlink:href="#p0" content="2,荒木皮フ科クリニック,兵庫県加古川市西神吉町岸字溝尻１００-１１,皮膚科,,,9" xlink:title="荒木皮フ科クリニック" transform="ref(svg,13481.1919,-3479.0509)" x="0" y="0"/>
<use xlink:href="#p0" content="2,よこやま眼科クリニック,兵庫県加古川市西神吉町岸字溝尻１００-１１,眼科,,,9" xlink:title="よこやま眼科クリニック" transform="ref(svg,13481.1919,-3479.0509)" x="0" y="0"/>
<use xlink:href="#p0" content="2,ふじもと耳鼻咽喉科,兵庫県加古川市西神吉町岸１００-９,耳鼻いんこう科,,,9" xlink:title="ふじもと耳鼻咽喉科" transform="ref(svg,13481.2051,-3479.1136)" x="0" y="0"/>
<use xlink:href="#p0" content="2,さつき診療所,兵庫県加古川市西神吉町岸２４６-４,内科　消化器科　循環器科　外科　整形外科,,,9" xlink:title="さつき診療所" transform="ref(svg,13480.7139,-3478.9034)" x="0" y="0"/>
<use xlink:href="#p0" content="2,はせがわ内科クリニック,兵庫県加古川市西神吉町岸溝尻１００-１１,内科　消化器科,,,9" xlink:title="はせがわ内科クリニック" transform="ref(svg,13481.2468,-3479.029)" x="0" y="0"/>
<use xlink:href="#p0" content="2,長谷川医院,兵庫県加古川市西神吉町鼎５９-１,内科　放射線科　消化器科　リハビリテーション科,,,9" xlink:title="長谷川医院" transform="ref(svg,13481.7021,-3480.3186)" x="0" y="0"/>
<use xlink:href="#p0" content="2,伴小児科,兵庫県加古川市米田町平津４４６-１０,小児科,,,9" xlink:title="伴小児科" transform="ref(svg,13481.3122,-3478.2996)" x="0" y="0"/>
<use xlink:href="#p0" content="2,渡辺眼科医院,兵庫県加古川市米田町平津４６２-１１,眼科,,,9" xlink:title="渡辺眼科医院" transform="ref(svg,13481.1091,-3478.4556)" x="0" y="0"/>
<use xlink:href="#p0" content="2,（医）はなぶさ小児科,兵庫県加古川市米田町平津４０３-３,小児科　循環器科,,,9" xlink:title="（医）はなぶさ小児科" transform="ref(svg,13481.4536,-3478.6455)" x="0" y="0"/>
<use xlink:href="#p0" content="2,矢田クリニック,兵庫県加古川市米田町平津４１３-１,呼吸器科　消化器科　外科　肛門科,,,9" xlink:title="矢田クリニック" transform="ref(svg,13481.5485,-3478.5586)" x="0" y="0"/>
<use xlink:href="#p0" content="2,前田内科医院,兵庫県加古川市東神吉町神吉７５５-１,内科　消化器科,,,9" xlink:title="前田内科医院" transform="ref(svg,13482.1463,-3479.0502)" x="0" y="0"/>
<use xlink:href="#p0" content="2,（株）神戸製鋼所加古川製鉄所診療所,兵庫県加古川市金沢町１,内科,,,9" xlink:title="（株）神戸製鋼所加古川製鉄所診療所" transform="ref(svg,13481.8669,-3472.6263)" x="0" y="0"/>
<use xlink:href="#p0" content="2,（福）常寿会常寿園医務室,兵庫県高砂市北浜町牛谷７２１-１,内科　外科,,,9" xlink:title="（福）常寿会常寿園医務室" transform="ref(svg,13476.0668,-3479.3478)" x="0" y="0"/>
<use xlink:href="#p0" content="2,養護老人ホーム高砂荘,兵庫県高砂市北浜町北脇５４４-１,内科　心臓内科,,,9" xlink:title="養護老人ホーム高砂荘" transform="ref(svg,13474.8217,-3479.3993)" x="0" y="0"/>
<use xlink:href="#p0" content="2,障害者支援施設あかりの家,兵庫県高砂市北浜町北脇字池ノ内５０４-１,精神科　内科,,,9" xlink:title="障害者支援施設あかりの家" transform="ref(svg,13475.0451,-3479.3625)" x="0" y="0"/>
<use xlink:href="#p0" content="2,自立支援センターむさしの里医務室,兵庫県高砂市北浜町西浜７５１-１,内科,,,9" xlink:title="自立支援センターむさしの里医務室" transform="ref(svg,13474.7297,-3478.5939)" x="0" y="0"/>
<use xlink:href="#p0" content="2,（特養）のじぎくの里医務室,兵庫県高砂市北浜町西浜７７３-３,内科,,,9" xlink:title="（特養）のじぎくの里医務室" transform="ref(svg,13474.8485,-3478.539)" x="0" y="0"/>
<use xlink:href="#p0" content="2,みやけ小児科,兵庫県高砂市中島２-７-５１,小児科　アレルギー科,,,9" xlink:title="みやけ小児科" transform="ref(svg,13479.5702,-3477.1458)" x="0" y="0"/>
<use xlink:href="#p0" content="2,秋山内科医院,兵庫県高砂市末広町５-８,内科　消化器科,,,9" xlink:title="秋山内科医院" transform="ref(svg,13479.8697,-3476.6656)" x="0" y="0"/>
<use xlink:href="#p0" content="2,つくだ整形外科,兵庫県高砂市今市２-３０１-１,整形外科　外科　リハビリテーション科　リウマチ科,,,9" xlink:title="つくだ整形外科" transform="ref(svg,13479.7372,-3476.7044)" x="0" y="0"/>
<use xlink:href="#p0" content="2,山名眼科医院,兵庫県高砂市荒井町千鳥３-７-６,眼科,,,9" xlink:title="山名眼科医院" transform="ref(svg,13479.1982,-3476.608)" x="0" y="0"/>
<use xlink:href="#p0" content="2,（株）神戸製鋼所高砂製作所診療所,兵庫県高砂市荒井町新浜２-３-１,整形外科,,,9" xlink:title="（株）神戸製鋼所高砂製作所診療所" transform="ref(svg,13478.06,-3475.7788)" x="0" y="0"/>
<use xlink:href="#p0" content="2,三菱日立パワーシステムズ高砂健康管理センター,兵庫県高砂市荒井町新浜２-１-１,内科　外科　精神科　歯科,,,9" xlink:title="三菱日立パワーシステムズ高砂健康管理センター" transform="ref(svg,13478.9166,-3475.3751)" x="0" y="0"/>
<use xlink:href="#p0" content="2,斎藤整形外科,兵庫県高砂市荒井町中新町１-５,リウマチ科　整形外科　リハビリテーション科,,,9" xlink:title="斎藤整形外科" transform="ref(svg,13480.2154,-3475.8673)" x="0" y="0"/>
<use xlink:href="#p0" content="2,三木内科クリニック,兵庫県高砂市荒井町中新町５-３,内科　消化器内科　糖尿病内科　腎臓内科（人工透析）,,,9" xlink:title="三木内科クリニック" transform="ref(svg,13480.0696,-3476.0575)" x="0" y="0"/>
<use xlink:href="#p0" content="2,荒川クリニック,兵庫県高砂市荒井町日之出町１０-１１,内科,,,9" xlink:title="荒川クリニック" transform="ref(svg,13479.5906,-3475.6314)" x="0" y="0"/>
<use xlink:href="#p0" content="2,よしだ耳鼻咽喉科クリニック,兵庫県高砂市荒井町扇町１４-１３,耳鼻いんこう科,,,9" xlink:title="よしだ耳鼻咽喉科クリニック" transform="ref(svg,13479.4527,-3475.7988)" x="0" y="0"/>
<use xlink:href="#p0" content="2,織田医院,兵庫県高砂市荒井町東本町２０-２,内科,,,9" xlink:title="織田医院" transform="ref(svg,13479.6629,-3475.981)" x="0" y="0"/>
<use xlink:href="#p0" content="2,ふせ耳鼻咽喉科,兵庫県高砂市荒井町東本町１-２７,耳鼻いんこう科　アレルギー科,,,9" xlink:title="ふせ耳鼻咽喉科" transform="ref(svg,13479.9209,-3476.2126)" x="0" y="0"/>
<use xlink:href="#p0" content="2,眼科多木医院,兵庫県高砂市高砂町浜田町２-７-４１,眼科,,,9" xlink:title="眼科多木医院" transform="ref(svg,13480.0493,-3475.2093)" x="0" y="0"/>
<use xlink:href="#p0" content="2,（特養）サンリットひまわり園医務室,兵庫県高砂市高砂町松波町４４０-５,内科,,,9" xlink:title="（特養）サンリットひまわり園医務室" transform="ref(svg,13479.7521,-3475.2629)" x="0" y="0"/>
<use xlink:href="#p0" content="2,（株）カネカ高砂工業所健康管理センター,兵庫県高砂市高砂町宮前町１-８,内科　外科　歯科,,,9" xlink:title="（株）カネカ高砂工業所健康管理センター" transform="ref(svg,13480.0588,-3474.1492)" x="0" y="0"/>
<use xlink:href="#p0" content="2,河野クリニック,兵庫県高砂市高砂町栄町３７３-１,外科　胃腸科　循環器科,,,9" xlink:title="河野クリニック" transform="ref(svg,13480.3639,-3475.057)" x="0" y="0"/>
<use xlink:href="#p0" content="2,加古皮フ科,兵庫県高砂市高砂町栄町３７３,皮膚科　アレルギー科　形成外科,,,9" xlink:title="加古皮フ科" transform="ref(svg,13480.255,-3475.0227)" x="0" y="0"/>
<use xlink:href="#p0" content="2,ぱく腎・泌尿器科クリニック,兵庫県高砂市高砂町栄町３７３-１,泌尿器科　腎臓内科,,,9" xlink:title="ぱく腎・泌尿器科クリニック" transform="ref(svg,13480.3134,-3474.9977)" x="0" y="0"/>
<use xlink:href="#p0" content="2,川上神経内科,兵庫県高砂市高砂町栄町３７３-１,精神科　神経内科,,,9" xlink:title="川上神経内科" transform="ref(svg,13480.2536,-3475.0248)" x="0" y="0"/>
<use xlink:href="#p0" content="2,なかすじ眼科,兵庫県高砂市高砂町栄町３７３-１,眼科,,,9" xlink:title="なかすじ眼科" transform="ref(svg,13480.3134,-3474.9977)" x="0" y="0"/>
<use xlink:href="#p0" content="2,まき小児科,兵庫県高砂市高砂町栄町３７３-１,小児科,,,9" xlink:title="まき小児科" transform="ref(svg,13480.3134,-3474.9977)" x="0" y="0"/>
<use xlink:href="#p0" content="2,三木医院,兵庫県高砂市高砂町北本町１１３３-２,内科　小児科　放射線科,,,9" xlink:title="三木医院" transform="ref(svg,13480.323,-3474.8576)" x="0" y="0"/>
<use xlink:href="#p0" content="2,友田神経内科,兵庫県高砂市伊保港町２-７-１４,精神科　神経科　内科,,,9" xlink:title="友田神経内科" transform="ref(svg,13478.5674,-3476.6392)" x="0" y="0"/>
<use xlink:href="#p0" content="2,旭硝子（株）関西工場高砂事業所健康管理センター,兵庫県高砂市梅井５-６-１,外科　内科,,,9" xlink:title="旭硝子（株）関西工場高砂事業所健康管理センター" transform="ref(svg,13476.9972,-3476.3805)" x="0" y="0"/>
<use xlink:href="#p0" content="2,山名小児科医院,兵庫県高砂市伊保崎南９-８,小児科,,,9" xlink:title="山名小児科医院" transform="ref(svg,13478.5638,-3476.759)" x="0" y="0"/>
<use xlink:href="#p0" content="2,植杉医院,兵庫県高砂市松陽１-６-１８,内科　小児科,,,9" xlink:title="植杉医院" transform="ref(svg,13478.105,-3477.7639)" x="0" y="0"/>
<use xlink:href="#p0" content="2,松本医院,兵庫県高砂市伊保３-１５-１８,内科　胃腸科,,,9" xlink:title="松本医院" transform="ref(svg,13478.9893,-3477.1042)" x="0" y="0"/>
<use xlink:href="#p0" content="2,ササモト医院,兵庫県高砂市伊保２-２-１６,整形外科　皮膚科,,,9" xlink:title="ササモト医院" transform="ref(svg,13478.7803,-3477.1104)" x="0" y="0"/>
<use xlink:href="#p0" content="2,鹿岳胃腸科・内科,兵庫県高砂市伊保１-４-２７,内科　胃腸科,,,9" xlink:title="鹿岳胃腸科・内科" transform="ref(svg,13478.716,-3476.9863)" x="0" y="0"/>
<use xlink:href="#p0" content="2,さわたり循環器科・内科,兵庫県高砂市伊保４-５６７-１,循環器科　内科　リハビリテーション科,,,9" xlink:title="さわたり循環器科・内科" transform="ref(svg,13479.0638,-3477.6022)" x="0" y="0"/>
<use xlink:href="#p0" content="2,さかい眼科,兵庫県高砂市伊保４-５５９,眼科,,,9" xlink:title="さかい眼科" transform="ref(svg,13479.0731,-3477.6926)" x="0" y="0"/>
<use xlink:href="#p0" content="2,泉外科医院,兵庫県高砂市伊保１-８-４１,呼吸器科　胃腸科　外科　泌尿器科,,,9" xlink:title="泉外科医院" transform="ref(svg,13478.5391,-3477.0878)" x="0" y="0"/>
<use xlink:href="#p0" content="2,是枝医院,兵庫県高砂市曽根町４５５-１,内科,,,9" xlink:title="是枝医院" transform="ref(svg,13477.3446,-3477.9768)" x="0" y="0"/>
<use xlink:href="#p0" content="2,（一社）日本健康倶楽部兵庫支部診療所,兵庫県高砂市美保里２５-３２,内科　放射線科,,,9" xlink:title="（一社）日本健康倶楽部兵庫支部診療所" transform="ref(svg,13480.3569,-3477.4007)" x="0" y="0"/>
<use xlink:href="#p0" content="2,小野耳鼻咽喉科,兵庫県高砂市米田町米田３１３-５,耳鼻いんこう科,,,9" xlink:title="小野耳鼻咽喉科" transform="ref(svg,13480.6543,-3477.8801)" x="0" y="0"/>
<use xlink:href="#p0" content="2,寺西内科,兵庫県高砂市米田町米田１１３-２,内科,,,9" xlink:title="寺西内科" transform="ref(svg,13480.8872,-3478.2767)" x="0" y="0"/>
<use xlink:href="#p0" content="2,金村医院,兵庫県高砂市米田町米田１０３-１,胃腸科　外科　整形外科　泌尿器科,,,9" xlink:title="金村医院" transform="ref(svg,13480.9473,-3478.1153)" x="0" y="0"/>
<use xlink:href="#p0" content="2,魚川医院,兵庫県高砂市米田町米田８７３-２,内科　整形外科,,,9" xlink:title="魚川医院" transform="ref(svg,13480.8003,-3477.4716)" x="0" y="0"/>
<use xlink:href="#p0" content="2,矢野内科医院,兵庫県高砂市米田町米田７２２-５,内科　呼吸器科　循環器科,,,9" xlink:title="矢野内科医院" transform="ref(svg,13481.4688,-3478.0035)" x="0" y="0"/>
<use xlink:href="#p0" content="2,きたざわ整形外科,兵庫県高砂市米田町米田１０１９-５,整形外科　リウマチ科　リハビリテーション科,,,9" xlink:title="きたざわ整形外科" transform="ref(svg,13481.9494,-3477.9782)" x="0" y="0"/>
<use xlink:href="#p0" content="2,ふじわら医院,兵庫県高砂市米田町塩市字明田１-１,脳神経外科　神経内科　リハビリテーション科,,,9" xlink:title="ふじわら医院" transform="ref(svg,13480.5051,-3478.1311)" x="0" y="0"/>
<use xlink:href="#p0" content="2,こばやし小児科,兵庫県高砂市米田町塩市８２-６,小児科,,,9" xlink:title="こばやし小児科" transform="ref(svg,13480.2631,-3477.9804)" x="0" y="0"/>
<use xlink:href="#p0" content="2,飯尾医院,兵庫県高砂市米田町島４-８,内科　消化器科,,,9" xlink:title="飯尾医院" transform="ref(svg,13480.9056,-3478.4403)" x="0" y="0"/>
<use xlink:href="#p0" content="2,かとうクリニック,兵庫県高砂市米田町島才田３８イオン・アイモール高砂,整形外科　リハビリテーション科　麻酔科,,,9" xlink:title="かとうクリニック" transform="ref(svg,13480.6881,-3478.6399)" x="0" y="0"/>
<use xlink:href="#p0" content="2,モリ皮フ科医院,兵庫県高砂市神瓜１-４-１１ＦＫビル２Ｆ,皮膚科,,,9" xlink:title="モリ皮フ科医院" transform="ref(svg,13481.28,-3478.4958)" x="0" y="0"/>
<use xlink:href="#p0" content="2,増田内科医院,兵庫県高砂市神瓜５-８-６,内科　消化器科　呼吸器科,,,9" xlink:title="増田内科医院" transform="ref(svg,13480.4172,-3478.8963)" x="0" y="0"/>
<use xlink:href="#p0" content="2,川井整形外科,兵庫県高砂市神瓜２-２-７,整形外科　リウマチ科　リハビリテーション科,,,9" xlink:title="川井整形外科" transform="ref(svg,13481.0462,-3478.7801)" x="0" y="0"/>
<use xlink:href="#p0" content="2,永田泌尿器科医院,兵庫県高砂市神爪１-３-１０ザ・サンライズ宝殿２０２,泌尿器科,,,9" xlink:title="永田泌尿器科医院" transform="ref(svg,13481.3146,-3478.5122)" x="0" y="0"/>
<use xlink:href="#p0" content="2,岡部医院,兵庫県高砂市神爪１-３-１０ザ・サンライズ宝殿２０１,婦人科　心臓内科　神経科,,,9" xlink:title="岡部医院" transform="ref(svg,13481.3142,-3478.51)" x="0" y="0"/>
<use xlink:href="#p0" content="2,阪本医院,兵庫県高砂市神瓜１-１１-１５,内科　呼吸器科　消化器科　循環器科　リハビリテーション科,,,9" xlink:title="阪本医院" transform="ref(svg,13481.1821,-3478.6305)" x="0" y="0"/>
<use xlink:href="#p0" content="2,平本医院,兵庫県高砂市神爪１-１-２０-２０１,神経科　心臓内科　精神科,,,9" xlink:title="平本医院" transform="ref(svg,13481.3619,-3478.6538)" x="0" y="0"/>
<use xlink:href="#p0" content="2,野村医院,兵庫県高砂市中筋２-９-３８,内科　消化器科　放射線科,,,9" xlink:title="野村医院" transform="ref(svg,13477.6197,-3478.8469)" x="0" y="0"/>
<use xlink:href="#p0" content="2,大北・牛尾クリニック,兵庫県高砂市中筋１-１０-４８,内科,,,9" xlink:title="大北・牛尾クリニック" transform="ref(svg,13477.1959,-3479.0106)" x="0" y="0"/>
<use xlink:href="#p0" content="2,はぎはら内科医院,兵庫県高砂市阿弥陀１-５-２８,内科　小児科　リハビリテーション科　糖尿病内科　消化器内科　呼吸器内科,,,9" xlink:title="はぎはら内科医院" transform="ref(svg,13477.0375,-3479.3698)" x="0" y="0"/>
<use xlink:href="#p0" content="2,森脇神経内科,兵庫県高砂市阿弥陀町魚橋字池崎９５８-１,精神科　神経内科　リハビリテーション科,,,9" xlink:title="森脇神経内科" transform="ref(svg,13479.0882,-3479.0262)" x="0" y="0"/>
<use xlink:href="#p0" content="2,（医）西垣医院,兵庫県高砂市阿弥陀町阿弥陀１１７３,内科　胃腸科　外科　肛門科　放射線科,,,9" xlink:title="（医）西垣医院" transform="ref(svg,13478.1558,-3479.6012)" x="0" y="0"/>
<use xlink:href="#p0" content="2,（特養）めぐみ苑医務室,兵庫県高砂市阿弥陀町阿弥陀字中道４３,内科　外科,,,9" xlink:title="（特養）めぐみ苑医務室" transform="ref(svg,13478.6507,-3479.7742)" x="0" y="0"/>
</g>
</svg>
