<?xml version="1.0" encoding="UTF-8"?>
<svg  xmlns="http://www.w3.org/2000/svg" xmlns:xlink="http://www.w3.org/1999/xlink" xmlns:go="http://purl.org/svgmap/profile" property="医療機関分類,施設名称,所在地,診療科目１,診療科目２,診療科目３,開設者分類" viewBox="13781.25 -3937.5 140.625 140.625" go:dataArea="13781.25 -3937.5 140.625 140.625" >
<metadata>
 <rdf:RDF xmlns:rdf="http://www.w3.org/1999/02/22-rdf-syntax-ns#" xmlns:crs="http://opengis.org/xmldtds/transformations.dtd" xmlns:svg="http://www.w3.org/svg" >
  <rdf:Description>
   <crs:CoordinateReferenceSystem rdf:resource="http://purl.org/crs/84" svg:transform="matrix(100.0,0.0,0.0,-100.0,0.0,0.0)" />
  </rdf:Description>
 </rdf:RDF>
</metadata>
<globalCoordinateSystem srsName="http://purl.org/crs/84" transform="matrix(100.0,0.0,0.0,-100.0,0.0,0.0)" />
<defs>
 <g id="p0" >
  <image xlink:href="mappin.png" preserveAspectRatio="none" x="-8" y="-25" width="19" height="27"/>
 </g>
 <g id="p1" >
  <image xlink:href="mappin1.png" preserveAspectRatio="none" x="-8" y="-25" width="19" height="27"/>
 </g>
 <g id="p2" >
  <image xlink:href="mappin2.png" preserveAspectRatio="none" x="-8" y="-25" width="19" height="27"/>
 </g>
 <g id="p3" >
  <image xlink:href="mappin3.png" preserveAspectRatio="none" x="-8" y="-25" width="19" height="27"/>
 </g>
 <g id="p4" >
  <image xlink:href="mappin4.png" preserveAspectRatio="none" x="-8" y="-25" width="19" height="27"/>
 </g>
 <g id="p5" >
  <image xlink:href="mappin5.png" preserveAspectRatio="none" x="-8" y="-25" width="19" height="27"/>
 </g>
 <g id="p6" >
  <image xlink:href="mappin6.png" preserveAspectRatio="none" x="-8" y="-25" width="19" height="27"/>
 </g>
 <g id="p7" >
  <image xlink:href="mappin7.png" preserveAspectRatio="none" x="-8" y="-25" width="19" height="27"/>
 </g>
 <g id="p8" >
  <image xlink:href="mappin8.png" preserveAspectRatio="none" x="-8" y="-25" width="19" height="27"/>
 </g>
 <g id="p9" >
  <image xlink:href="mappin9.png" preserveAspectRatio="none" x="-8" y="-25" width="19" height="27"/>
 </g>
</defs>
<g fill="green" fill-rule="evenodd" >
<use xlink:href="#p0" content="2,水津診療所,新潟県佐渡市片野尾字南９４,内科,,,9" xlink:title="水津診療所" transform="ref(svg,13856.3659,-3804.9419)" x="0" y="0"/>
<use xlink:href="#p0" content="2,岩首診療所,新潟県佐渡市豊岡５５０,内科,,,9" xlink:title="岩首診療所" transform="ref(svg,13852.0625,-3797.7857)" x="0" y="0"/>
<use xlink:href="#p0" content="2,りょうつ眼科医院,新潟県佐渡市両津夷３-１夷本町ハギタビル１Ｆ,眼科,,,9" xlink:title="りょうつ眼科医院" transform="ref(svg,13843.4442,-3808.3433)" x="0" y="0"/>
<use xlink:href="#p0" content="2,三國医院,新潟県佐渡市両津湊３４３-４,内科　消化器内科,,,9" xlink:title="三國医院" transform="ref(svg,13844.2798,-3807.4784)" x="0" y="0"/>
<use xlink:href="#p0" content="2,新潟県佐渡保健所,新潟県佐渡市相川二町目浜町２０-１,内科,,,9" xlink:title="新潟県佐渡保健所" transform="ref(svg,13824.0516,-3803.0821)" x="0" y="0"/>
<use xlink:href="#p0" content="2,高千診療所,新潟県佐渡市北川内１０５１,内科　小児科,,,9" xlink:title="高千診療所" transform="ref(svg,13831.5151,-3817.4134)" x="0" y="0"/>
<use xlink:href="#p0" content="2,大浦の里診療所,新潟県佐渡市相川大浦５３３-２,内科,,,9" xlink:title="大浦の里診療所" transform="ref(svg,13822.6938,-3801.5512)" x="0" y="0"/>
<use xlink:href="#p0" content="2,至誠堂耳鼻咽喉科医院,新潟県佐渡市窪田９３３-１,耳鼻咽喉科,,,9" xlink:title="至誠堂耳鼻咽喉科医院" transform="ref(svg,13831.0351,-3800.4621)" x="0" y="0"/>
<use xlink:href="#p0" content="2,近藤内科胃腸科,新潟県佐渡市東大通８７６,内科　消化器内科　小児科,,,9" xlink:title="近藤内科胃腸科" transform="ref(svg,13833.1667,-3800.5678)" x="0" y="0"/>
<use xlink:href="#p0" content="2,中山内科クリニック,新潟県佐渡市河原田本町１９,内科,,,9" xlink:title="中山内科クリニック" transform="ref(svg,13832.0711,-3800.1634)" x="0" y="0"/>
<use xlink:href="#p0" content="2,やはたの里はまなすの家診療所,新潟県佐渡市八幡３４０,内科,,,9" xlink:title="やはたの里はまなすの家診療所" transform="ref(svg,13832.5626,-3799.588)" x="0" y="0"/>
<use xlink:href="#p0" content="2,浅島医院,新潟県佐渡市千種丙２１８-７,皮膚科,,,9" xlink:title="浅島医院" transform="ref(svg,13836.4693,-3802.2312)" x="0" y="0"/>
<use xlink:href="#p0" content="2,田尻内科医院,新潟県佐渡市中興１１１５-１,内科,,,9" xlink:title="田尻内科医院" transform="ref(svg,13835.6933,-3801.4011)" x="0" y="0"/>
<use xlink:href="#p0" content="2,障害者支援施設岩の平園診療所,新潟県佐渡市上新穂１２５６,内科,,,9" xlink:title="障害者支援施設岩の平園診療所" transform="ref(svg,13844.4982,-3800.3991)" x="0" y="0"/>
<use xlink:href="#p0" content="2,障害者支援施設第二岩の平園診療所,新潟県佐渡市上新穂１２５６,内科,,,9" xlink:title="障害者支援施設第二岩の平園診療所" transform="ref(svg,13844.4982,-3800.3991)" x="0" y="0"/>
<use xlink:href="#p0" content="2,大崎医院,新潟県佐渡市畑野７５４,内科　呼吸器内科　消化器内科,,,9" xlink:title="大崎医院" transform="ref(svg,13839.7334,-3798.8997)" x="0" y="0"/>
<use xlink:href="#p0" content="2,佐渡市新穂田野沢診療所,新潟県佐渡市新穂田野沢２３１-３,内科,,,9" xlink:title="佐渡市新穂田野沢診療所" transform="ref(svg,13845.5869,-3803.3939)" x="0" y="0"/>
<use xlink:href="#p0" content="2,佐渡市（特養）歌代の里医務室,新潟県佐渡市加茂歌代１４０-１,内科,,,9" xlink:title="佐渡市（特養）歌代の里医務室" transform="ref(svg,13843.0976,-3808.8959)" x="0" y="0"/>
<use xlink:href="#p0" content="2,佐渡市養護老人ホーム待鶴荘医務室,新潟県佐渡市栗野江１８２６,内科,,,9" xlink:title="佐渡市養護老人ホーム待鶴荘医務室" transform="ref(svg,13840.3038,-3799.7223)" x="0" y="0"/>
<use xlink:href="#p0" content="2,佐渡市軽費老人ホームときわ荘医務室,新潟県佐渡市栗野江１８２２,内科,,,9" xlink:title="佐渡市軽費老人ホームときわ荘医務室" transform="ref(svg,13840.2951,-3799.7624)" x="0" y="0"/>
<use xlink:href="#p0" content="2,さかた整形外科医院,新潟県佐渡市泉１３５０,整形外科　リハビリテーション科,,,9" xlink:title="さかた整形外科医院" transform="ref(svg,13834.1772,-3800.9437)" x="0" y="0"/>
<use xlink:href="#p0" content="2,本田クリニック,新潟県佐渡市東大通１２３２-１,内科　循環器内科,,,9" xlink:title="本田クリニック" transform="ref(svg,13832.9963,-3800.3217)" x="0" y="0"/>
<use xlink:href="#p0" content="2,汐彩クリニック,新潟県佐渡市窪田２０-１,精神科　心療内科　神経科,,,9" xlink:title="汐彩クリニック" transform="ref(svg,13831.1595,-3800.5995)" x="0" y="0"/>
<use xlink:href="#p0" content="2,たなか内科医院,新潟県佐渡市下新穂８３-２,内科　消化器内科,,,9" xlink:title="たなか内科医院" transform="ref(svg,13841.5025,-3801.5155)" x="0" y="0"/>
<use xlink:href="#p0" content="2,（特養）新穂愛宕の里医務室,新潟県佐渡市瓜生屋３３９-２,内科,,,9" xlink:title="（特養）新穂愛宕の里医務室" transform="ref(svg,13842.3896,-3801.6243)" x="0" y="0"/>
<use xlink:href="#p0" content="2,山井眼科クリニック,新潟県佐渡市石田９５-１,眼科,,,9" xlink:title="山井眼科クリニック" transform="ref(svg,13832.8255,-3800.6553)" x="0" y="0"/>
<use xlink:href="#p0" content="2,佐渡市休日急患センター,新潟県佐渡市千種１６１佐渡総合病院内,内科　神経内科,,,9" xlink:title="佐渡市休日急患センター" transform="ref(svg,13836.6558,-3801.9466)" x="0" y="0"/>
<use xlink:href="#p0" content="2,コ-プケミカル（株）新潟工場診療所,新潟県新潟市北区太郎代１４４８-３,内科,,,9" xlink:title="コ-プケミカル（株）新潟工場診療所" transform="ref(svg,13921.8732,-3797.7403)" x="0" y="0"/>
</g>
</svg>
