<?xml version="1.0" encoding="UTF-8"?>
<svg  xmlns="http://www.w3.org/2000/svg" xmlns:xlink="http://www.w3.org/1999/xlink" xmlns:go="http://purl.org/svgmap/profile" property="医療機関分類,施設名称,所在地,診療科目１,診療科目２,診療科目３,開設者分類" viewBox="13359.375 -3375.0 140.625 140.625" go:dataArea="13359.375 -3375.0 140.625 140.625" >
<metadata>
 <rdf:RDF xmlns:rdf="http://www.w3.org/1999/02/22-rdf-syntax-ns#" xmlns:crs="http://opengis.org/xmldtds/transformations.dtd" xmlns:svg="http://www.w3.org/svg" >
  <rdf:Description>
   <crs:CoordinateReferenceSystem rdf:resource="http://purl.org/crs/84" svg:transform="matrix(100.0,0.0,0.0,-100.0,0.0,0.0)" />
  </rdf:Description>
 </rdf:RDF>
</metadata>
<globalCoordinateSystem srsName="http://purl.org/crs/84" transform="matrix(100.0,0.0,0.0,-100.0,0.0,0.0)" />
<defs>
 <g id="p0" >
  <image xlink:href="mappin.png" preserveAspectRatio="none" x="-8" y="-25" width="19" height="27"/>
 </g>
 <g id="p1" >
  <image xlink:href="mappin1.png" preserveAspectRatio="none" x="-8" y="-25" width="19" height="27"/>
 </g>
 <g id="p2" >
  <image xlink:href="mappin2.png" preserveAspectRatio="none" x="-8" y="-25" width="19" height="27"/>
 </g>
 <g id="p3" >
  <image xlink:href="mappin3.png" preserveAspectRatio="none" x="-8" y="-25" width="19" height="27"/>
 </g>
 <g id="p4" >
  <image xlink:href="mappin4.png" preserveAspectRatio="none" x="-8" y="-25" width="19" height="27"/>
 </g>
 <g id="p5" >
  <image xlink:href="mappin5.png" preserveAspectRatio="none" x="-8" y="-25" width="19" height="27"/>
 </g>
 <g id="p6" >
  <image xlink:href="mappin6.png" preserveAspectRatio="none" x="-8" y="-25" width="19" height="27"/>
 </g>
 <g id="p7" >
  <image xlink:href="mappin7.png" preserveAspectRatio="none" x="-8" y="-25" width="19" height="27"/>
 </g>
 <g id="p8" >
  <image xlink:href="mappin8.png" preserveAspectRatio="none" x="-8" y="-25" width="19" height="27"/>
 </g>
 <g id="p9" >
  <image xlink:href="mappin9.png" preserveAspectRatio="none" x="-8" y="-25" width="19" height="27"/>
 </g>
</defs>
<g fill="green" fill-rule="evenodd" >
<use xlink:href="#p0" content="2,野田医院,徳島県海部郡海陽町奥浦字西分３５-１,内科　循環器内科,,,9" xlink:title="野田医院" transform="ref(svg,13435.4662,-3359.3207)" x="0" y="0"/>
<use xlink:href="#p0" content="2,寿満内科クリニック,徳島県海部郡海陽町四方原字町西１６-１,内科　循環器科,,,9" xlink:title="寿満内科クリニック" transform="ref(svg,13435.1708,-3360.4795)" x="0" y="0"/>
<use xlink:href="#p0" content="2,海陽町宍喰診療所,徳島県海部郡海陽町宍喰浦字松原１４２-１,内科　外科,,,9" xlink:title="海陽町宍喰診療所" transform="ref(svg,13430.7044,-3356.6541)" x="0" y="0"/>
<use xlink:href="#p0" content="2,折野胃腸科内科,徳島県海部郡海陽町宍喰浦字松原５８-５,内科　胃腸科　リハビリテーション科,,,9" xlink:title="折野胃腸科内科" transform="ref(svg,13430.5496,-3356.7779)" x="0" y="0"/>
<use xlink:href="#p0" content="2,大里医院,徳島県海部郡海陽町大里字松原３４-４７,内科　小児科　耳鼻咽喉科　放射線科,,,9" xlink:title="大里医院" transform="ref(svg,13436.3146,-3360.6846)" x="0" y="0"/>
<use xlink:href="#p0" content="2,いしもとファミリークリニック,徳島県海部郡海陽町大里字白水９１-１７,内科　小児科,,,9" xlink:title="いしもとファミリークリニック" transform="ref(svg,13436.3938,-3361.2325)" x="0" y="0"/>
<use xlink:href="#p0" content="2,ヒワサクリニック,徳島県海部郡美波町西河内字丹前１０２-２,内科　神経内科　精神科　リハビリテーション科,,,9" xlink:title="ヒワサクリニック" transform="ref(svg,13451.8006,-3373.3084)" x="0" y="0"/>
<use xlink:href="#p0" content="2,イワキ医院,徳島県海部郡美波町日和佐浦６４-２,内科　小児科,,,9" xlink:title="イワキ医院" transform="ref(svg,13453.5942,-3373.2043)" x="0" y="0"/>
<use xlink:href="#p0" content="2,美海クリニック,徳島県海部郡牟岐町大字川長字山戸４８-３,内科　消化器科　循環器科　皮膚科　リハビリテーション科,,,9" xlink:title="美海クリニック" transform="ref(svg,13442.3292,-3367.5843)" x="0" y="0"/>
<use xlink:href="#p0" content="2,牟岐診療所,徳島県海部郡牟岐町大字中村字山田２５-１,内科　胃腸科　外科　整形外科　泌尿器科　麻酔科,,,9" xlink:title="牟岐診療所" transform="ref(svg,13441.3838,-3366.8435)" x="0" y="0"/>
<use xlink:href="#p0" content="2,竹林眼科,徳島県海部郡牟岐町大字中村字本村１４９-９,眼科,,,9" xlink:title="竹林眼科" transform="ref(svg,13441.8257,-3367.13)" x="0" y="0"/>
<use xlink:href="#p0" content="2,小柴外科胃腸科医院,徳島県海部郡牟岐町大字中村字本村９５-１,内科　胃腸科　外科　リハビリテーション科　循環器科,,,9" xlink:title="小柴外科胃腸科医院" transform="ref(svg,13441.9728,-3367.1166)" x="0" y="0"/>
<use xlink:href="#p0" content="2,徳島県出羽島診療所,徳島県海部郡牟岐町大字牟岐浦字出羽島４９-１８,内科,,,9" xlink:title="徳島県出羽島診療所" transform="ref(svg,13442.5119,-3363.7439)" x="0" y="0"/>
<use xlink:href="#p0" content="2,北川医院,徳島県海部郡牟岐町大字牟岐浦字浜崎１２-１,内科　小児科　放射線科,,,9" xlink:title="北川医院" transform="ref(svg,13441.8952,-3366.7701)" x="0" y="0"/>
<use xlink:href="#p0" content="2,青山整形外科,高知県高知市大津乙１８７７-４,リウマチ科　整形外科　リハビリテーション科,,,9" xlink:title="青山整形外科" transform="ref(svg,13359.473,-3357.2362)" x="0" y="0"/>
<use xlink:href="#p0" content="2,伊藤整形外科,高知県高知市介良乙１０４９,整形外科　リハビリテーション科,,,9" xlink:title="伊藤整形外科" transform="ref(svg,13359.6275,-3356.1699)" x="0" y="0"/>
<use xlink:href="#p0" content="2,おの肛門科胃腸科外科,高知県高知市大津甲５６０-２,胃腸内科　外科　大腸・肛門外科　麻酔科,,,9" xlink:title="おの肛門科胃腸科外科" transform="ref(svg,13361.0928,-3357.6756)" x="0" y="0"/>
<use xlink:href="#p0" content="2,介護老人福祉施設グランボヌール,高知県高知市布師田字宮ノ辺１３６２,内科,,,9" xlink:title="介護老人福祉施設グランボヌール" transform="ref(svg,13360.1424,-3358.715)" x="0" y="0"/>
<use xlink:href="#p0" content="2,けら小児科アレルギー科,高知県高知市介良３５２-１,内科　小児科　アレルギー科,,,9" xlink:title="けら小児科アレルギー科" transform="ref(svg,13361.4009,-3356.5096)" x="0" y="0"/>
<use xlink:href="#p0" content="2,こうちクリニック胃腸科・内科,高知県高知市大津甲５５３-２,内科　胃腸・大腸内視鏡内科　肛門外科,,,9" xlink:title="こうちクリニック胃腸科・内科" transform="ref(svg,13361.183,-3357.8365)" x="0" y="0"/>
<use xlink:href="#p0" content="2,高知刑務所医務課診療所,高知県高知市布師田３６０４-１,内科　歯科,,,9" xlink:title="高知刑務所医務課診療所" transform="ref(svg,13359.8588,-3358.9626)" x="0" y="0"/>
<use xlink:href="#p0" content="2,こまつ眼科,高知県高知市大津乙１０１８-１,眼科,,,9" xlink:title="こまつ眼科" transform="ref(svg,13359.6554,-3357.3089)" x="0" y="0"/>
<use xlink:href="#p0" content="2,潮見台診療所,高知県高知市潮見台３-１３１,内科　小腸内科　小児科,,,9" xlink:title="潮見台診療所" transform="ref(svg,13362.0162,-3355.7533)" x="0" y="0"/>
<use xlink:href="#p0" content="2,つねまつ内科,高知県高知市大津乙１０４１-４,内科　呼吸器科　胃腸科　循環器科　アレルギー科,,,9" xlink:title="つねまつ内科" transform="ref(svg,13359.9593,-3357.3629)" x="0" y="0"/>
<use xlink:href="#p0" content="2,なかやまクリニック内科・循環器科,高知県高知市介良乙１０４９高知東メディカルスクエア３Ｆ,内科　循環器科,,,9" xlink:title="なかやまクリニック内科・循環器科" transform="ref(svg,13359.6277,-3356.1701)" x="0" y="0"/>
<use xlink:href="#p0" content="2,福留内科,高知県高知市介良乙３２３６-２,内科　呼吸器科　小腸内科　循環器科,,,9" xlink:title="福留内科" transform="ref(svg,13359.7206,-3355.882)" x="0" y="0"/>
<use xlink:href="#p0" content="2,ほそぎ東部クリニック,高知県高知市介良乙３０３４-１,内科,,,9" xlink:title="ほそぎ東部クリニック" transform="ref(svg,13360.158,-3355.885)" x="0" y="0"/>
<use xlink:href="#p0" content="2,むくした耳鼻咽喉科,高知県高知市介良乙１０４９高知東メディカルスクエア３Ｆ,耳鼻いんこう科,,,9" xlink:title="むくした耳鼻咽喉科" transform="ref(svg,13359.6275,-3356.1701)" x="0" y="0"/>
<use xlink:href="#p0" content="2,横川ひふ科クリニック,高知県高知市介良乙１０４９高知東メディカルスクエア４Ｆ,皮膚科,,,9" xlink:title="横川ひふ科クリニック" transform="ref(svg,13359.6333,-3356.1821)" x="0" y="0"/>
<use xlink:href="#p0" content="2,宇賀クリニック,高知県室戸市室戸岬町５３６８,内科　小児科　外科　放射線科,,,9" xlink:title="宇賀クリニック" transform="ref(svg,13416.3983,-3326.9096)" x="0" y="0"/>
<use xlink:href="#p0" content="2,楠瀬診療所,高知県室戸市佐喜浜町１６２９-２,内科　小児科,,,9" xlink:title="楠瀬診療所" transform="ref(svg,13420.6637,-3339.5299)" x="0" y="0"/>
<use xlink:href="#p0" content="2,高知高須病院室戸クリニック,高知県室戸市室津１,人工透析内科,,,9" xlink:title="高知高須病院室戸クリニック" transform="ref(svg,13416.6185,-3329.4637)" x="0" y="0"/>
<use xlink:href="#p0" content="2,佐喜浜診療所,高知県室戸市佐喜浜町１６４１-１,内科,,,9" xlink:title="佐喜浜診療所" transform="ref(svg,13420.639,-3339.4306)" x="0" y="0"/>
<use xlink:href="#p0" content="2,松本医院,高知県室戸市吉良川町甲２２６３,内科　外科,,,9" xlink:title="松本医院" transform="ref(svg,13409.8647,-3333.1074)" x="0" y="0"/>
<use xlink:href="#p0" content="2,丸山長寿園診療所,高知県室戸市室戸岬町１６７５,内科,,,9" xlink:title="丸山長寿園診療所" transform="ref(svg,13418.7184,-3330.1442)" x="0" y="0"/>
<use xlink:href="#p0" content="2,三宅医院,高知県室戸市吉良川町甲２３００,内科　胃腸科　放射線科,,,9" xlink:title="三宅医院" transform="ref(svg,13409.9,-3333.1736)" x="0" y="0"/>
<use xlink:href="#p0" content="2,むろと・はまゆう園医務室,高知県室戸市室津９２８-１,内科,,,9" xlink:title="むろと・はまゆう園医務室" transform="ref(svg,13416.5563,-3333.7077)" x="0" y="0"/>
<use xlink:href="#p0" content="2,むろとぴあ医院,高知県室戸市浮津６０-１,内科　外科　小児科　整形外科　リハビリテーション科　小腸内科,,,9" xlink:title="むろとぴあ医院" transform="ref(svg,13415.3187,-3329.1759)" x="0" y="0"/>
<use xlink:href="#p0" content="2,ＥＡＳＴマリンクリニック,高知県安芸市矢の丸３-１-２５,内科　リウマチ科　整形外科　リハビリテーション科,,,9" xlink:title="ＥＡＳＴマリンクリニック" transform="ref(svg,13390.7808,-3350.3283)" x="0" y="0"/>
<use xlink:href="#p0" content="2,安芸えきまえ耳鼻科,高知県安芸市矢ノ丸４-２-１２,耳鼻いんこう科,,,9" xlink:title="安芸えきまえ耳鼻科" transform="ref(svg,13390.6425,-3350.4157)" x="0" y="0"/>
<use xlink:href="#p0" content="2,安芸クリニック,高知県安芸市土居１９７６-４,内科　泌尿器科,,,9" xlink:title="安芸クリニック" transform="ref(svg,13391.1426,-3350.7115)" x="0" y="0"/>
<use xlink:href="#p0" content="2,安芸療護園診療室,高知県安芸市赤野甲５６４,内科　精神科　神経科,,,9" xlink:title="安芸療護園診療室" transform="ref(svg,13383.709,-3351.3586)" x="0" y="0"/>
<use xlink:href="#p0" content="2,宇都宮内科,高知県安芸市染井町１-３８,内科　呼吸器科　小腸内科　小児科　リハビリテーション科　放射線科,,,9" xlink:title="宇都宮内科" transform="ref(svg,13389.7638,-3350.3102)" x="0" y="0"/>
<use xlink:href="#p0" content="2,尾木医院,高知県安芸市本町３-１０-３０,内科　小児科　リハビリテーション科,,,9" xlink:title="尾木医院" transform="ref(svg,13390.2105,-3349.9889)" x="0" y="0"/>
<use xlink:href="#p0" content="2,高知県安芸保健所,高知県安芸市矢ノ丸１-４-３６,内科,,,9" xlink:title="高知県安芸保健所" transform="ref(svg,13390.7497,-3350.2361)" x="0" y="0"/>
<use xlink:href="#p0" content="2,高知高須病院附属安芸診療所,高知県安芸市港町２-６３５,内科　泌尿器科　人工透析内科,,,9" xlink:title="高知高須病院附属安芸診療所" transform="ref(svg,13391.3373,-3350.0833)" x="0" y="0"/>
<use xlink:href="#p0" content="2,（福）内原野会（特養）つつじの丘医務室,高知県安芸市川北乙１７３５,内科,,,9" xlink:title="（福）内原野会（特養）つつじの丘医務室" transform="ref(svg,13391.3627,-3352.7376)" x="0" y="0"/>
<use xlink:href="#p0" content="2,（福）土佐厚生会（特養）八流荘,高知県安芸市赤野甲５６１-２,呼吸器科　胃腸科　外科　皮膚科,,,9" xlink:title="（福）土佐厚生会（特養）八流荘" transform="ref(svg,13383.7473,-3351.3169)" x="0" y="0"/>
<use xlink:href="#p0" content="2,すぎもと眼科,高知県安芸市本町２-４-３,眼科,,,9" xlink:title="すぎもと眼科" transform="ref(svg,13390.6591,-3349.9483)" x="0" y="0"/>
<use xlink:href="#p0" content="2,津田クリニック,高知県安芸市庄之芝町９-３４,内科　小腸内科　小児科　放射線科,,,9" xlink:title="津田クリニック" transform="ref(svg,13389.868,-3350.3239)" x="0" y="0"/>
<use xlink:href="#p0" content="2,つつい脳神経外科,高知県安芸市本町２-２-１,脳神経外科　内科　リハビリテーション科　整形外科　神経科,,,9" xlink:title="つつい脳神経外科" transform="ref(svg,13390.5944,-3349.9633)" x="0" y="0"/>
<use xlink:href="#p0" content="2,まつうら内科消化器科,高知県安芸市土居１９４９-１,内科　小腸内科,,,9" xlink:title="まつうら内科消化器科" transform="ref(svg,13391.2212,-3350.7529)" x="0" y="0"/>
<use xlink:href="#p0" content="2,港町診療所,高知県安芸市港町１-１-１０,内科,,,9" xlink:title="港町診療所" transform="ref(svg,13391.1295,-3350.1111)" x="0" y="0"/>
<use xlink:href="#p0" content="2,矢の丸眼科,高知県安芸市矢ノ丸３-２-１７,眼科,,,9" xlink:title="矢の丸眼科" transform="ref(svg,13390.7405,-3350.3615)" x="0" y="0"/>
<use xlink:href="#p0" content="2,養護老人ホーム清香園医務室,高知県安芸市川北甲３７３１,内科　整形外科,,,9" xlink:title="養護老人ホーム清香園医務室" transform="ref(svg,13393.3532,-3350.9949)" x="0" y="0"/>
<use xlink:href="#p0" content="2,あけぼの小児クリニック,高知県南国市田村乙１９９２-１,内科　小児科,,,9" xlink:title="あけぼの小児クリニック" transform="ref(svg,13366.5436,-3355.8648)" x="0" y="0"/>
<use xlink:href="#p0" content="2,ありさわ耳鼻咽喉科,高知県南国市篠原１１１-１,耳鼻いんこう科,,,9" xlink:title="ありさわ耳鼻咽喉科" transform="ref(svg,13363.5548,-3356.8494)" x="0" y="0"/>
<use xlink:href="#p0" content="2,井坂皮フ科,高知県南国市大-嚶b１５６５,小児科　皮膚科,,,9" xlink:title="井坂皮フ科" transform="ref(svg,13364.7331,-3357.1043)" x="0" y="0"/>
<use xlink:href="#p0" content="2,いちはら内科小児科,高知県南国市大-嚶b７７６-１,内科　小児科,,,9" xlink:title="いちはら内科小児科" transform="ref(svg,13364.6827,-3357.17)" x="0" y="0"/>
<use xlink:href="#p0" content="2,小栗医院,高知県南国市十市２７０２-４,内科,,,9" xlink:title="小栗医院" transform="ref(svg,13362.0304,-3352.6872)" x="0" y="0"/>
<use xlink:href="#p0" content="2,オルタステクノロジー高知診療所,高知県南国市久礼田２４２０,内科,,,9" xlink:title="オルタステクノロジー高知診療所" transform="ref(svg,13364.7576,-3360.841)" x="0" y="0"/>
<use xlink:href="#p0" content="2,川田内科,高知県南国市後免町４-２-７,内科,,,9" xlink:title="川田内科" transform="ref(svg,13364.489,-3357.5404)" x="0" y="0"/>
<use xlink:href="#p0" content="2,川本内科クリニック,高知県南国市駅前町３-２-２４,内科　消化器内科　循環器内科　小児科,,,9" xlink:title="川本内科クリニック" transform="ref(svg,13364.7817,-3357.7741)" x="0" y="0"/>
<use xlink:href="#p0" content="2,きび診療所,高知県南国市明見字五台山分８００,内科　消化器内科　呼吸器内科　アレルギー科　循環器内科　臨床検査科　糖尿病内科　腎臓内科,,,9" xlink:title="きび診療所" transform="ref(svg,13362.9616,-3356.7463)" x="0" y="0"/>
<use xlink:href="#p0" content="2,高知大学保健管理センター医学部分室,高知県南国市岡豊町小蓮１８５-１,内科　神経科　整形外科　皮膚科　眼科　耳鼻いんこう科,,,9" xlink:title="高知大学保健管理センター医学部分室" transform="ref(svg,13361.4536,-3359.4914)" x="0" y="0"/>
<use xlink:href="#p0" content="2,ごめん林眼科,高知県南国市下野田６０-１,眼科,,,9" xlink:title="ごめん林眼科" transform="ref(svg,13365.1275,-3357.5113)" x="0" y="0"/>
<use xlink:href="#p0" content="2,信貴耳鼻咽喉科,高知県南国市大-嚶b１７７０-６,耳鼻いんこう科,,,9" xlink:title="信貴耳鼻咽喉科" transform="ref(svg,13364.6795,-3357.2601)" x="0" y="0"/>
<use xlink:href="#p0" content="2,しばた整形外科,高知県南国市大-嚶b２２５７-４,整形外科　リハビリテーション科,,,9" xlink:title="しばた整形外科" transform="ref(svg,13364.5228,-3357.5406)" x="0" y="0"/>
<use xlink:href="#p0" content="2,身体障害者療護施設国府寮診療所,高知県南国市左右山２９０-２,内科　リハビリテーション科　放射線科,,,9" xlink:title="身体障害者療護施設国府寮診療所" transform="ref(svg,13363.7658,-3360.4137)" x="0" y="0"/>
<use xlink:href="#p0" content="2,高田内科,高知県南国市大-嚔ｳ１２５３-８,内科　消化器内科　循環器内科　呼吸器内科　糖尿病内科　腎臓内科　内視鏡内科,,,9" xlink:title="高田内科" transform="ref(svg,13364.6445,-3356.6166)" x="0" y="0"/>
<use xlink:href="#p0" content="2,たかはし内科小児科,高知県南国市緑ヶ丘２-１７１５,内科　小児科,,,9" xlink:title="たかはし内科小児科" transform="ref(svg,13360.9949,-3353.3538)" x="0" y="0"/>
<use xlink:href="#p0" content="2,谷医院,高知県南国市片山１２４４,内科　小児科,,,9" xlink:title="谷医院" transform="ref(svg,13364.4707,-3355.3928)" x="0" y="0"/>
<use xlink:href="#p0" content="2,田村こどもクリニック,高知県南国市篠原１４５９-１,小児科,,,9" xlink:title="田村こどもクリニック" transform="ref(svg,13363.5818,-3357.2204)" x="0" y="0"/>
<use xlink:href="#p0" content="2,とくはし耳鼻咽喉科,高知県南国市久礼田１２１-１,耳鼻いんこう科,,,9" xlink:title="とくはし耳鼻咽喉科" transform="ref(svg,13364.954,-3360.8174)" x="0" y="0"/>
<use xlink:href="#p0" content="2,（特養）白銀荘診療所,高知県南国市大-嚔ｳ１０７２-１,内科,,,9" xlink:title="（特養）白銀荘診療所" transform="ref(svg,13365.0048,-3356.5907)" x="0" y="0"/>
<use xlink:href="#p0" content="2,（特養）土佐清風園診療室,高知県南国市岡豊町小篭３５９-１,内科,,,9" xlink:title="（特養）土佐清風園診療室" transform="ref(svg,13362.5859,-3357.8226)" x="0" y="0"/>
<use xlink:href="#p0" content="2,（特養）陽だまりの里医務室,高知県南国市岡豊町中島１５３５,内科,,,9" xlink:title="（特養）陽だまりの里医務室" transform="ref(svg,13361.5646,-3359.0413)" x="0" y="0"/>
<use xlink:href="#p0" content="2,鍋島医院,高知県南国市国分１００９,内科　外科,,,9" xlink:title="鍋島医院" transform="ref(svg,13364.0904,-3360.228)" x="0" y="0"/>
<use xlink:href="#p0" content="2,南国いのうえクリニック,高知県南国市篠原１８８７-２,内科　糖尿病内科　腎臓内科　内分泌・代謝内科,,,9" xlink:title="南国いのうえクリニック" transform="ref(svg,13363.7557,-3357.6943)" x="0" y="0"/>
<use xlink:href="#p0" content="2,なんごく産婦人科,高知県南国市大-嚶b１６４８,産婦人科　婦人科,,,9" xlink:title="なんごく産婦人科" transform="ref(svg,13364.8771,-3357.4756)" x="0" y="0"/>
<use xlink:href="#p0" content="2,西田順天堂内科,高知県南国市大-嚶b７５７-３,内科　循環器科　リハビリテーション科,,,9" xlink:title="西田順天堂内科" transform="ref(svg,13365.3761,-3357.3471)" x="0" y="0"/>
<use xlink:href="#p0" content="2,にしかわクリニック,高知県南国市後免町１-８-１,泌尿器科　皮膚科　腎臓内科　内科,,,9" xlink:title="にしかわクリニック" transform="ref(svg,13364.4726,-3357.579)" x="0" y="0"/>
<use xlink:href="#p0" content="2,まほろば眼科,高知県南国市篠原１５３-１,眼科,,,9" xlink:title="まほろば眼科" transform="ref(svg,13363.4943,-3357.1206)" x="0" y="0"/>
<use xlink:href="#p0" content="2,宮田整形外科,高知県南国市篠原４９-１,整形外科　リハビリテーション科　麻酔科,,,9" xlink:title="宮田整形外科" transform="ref(svg,13363.5115,-3356.6757)" x="0" y="0"/>
<use xlink:href="#p0" content="2,山本循環器内科・眼科,高知県南国市駅前町３-１-４１,内科　循環器科　放射線科　眼科,,,9" xlink:title="山本循環器内科・眼科" transform="ref(svg,13364.6842,-3357.6704)" x="0" y="0"/>
<use xlink:href="#p0" content="2,吉川診療所,高知県南国市植野１７２-４,内科　循環器科　小腸内科,,,9" xlink:title="吉川診療所" transform="ref(svg,13364.405,-3361.8917)" x="0" y="0"/>
<use xlink:href="#p0" content="2,吉本皮膚科,高知県南国市大-嚶b１６９８-１,皮膚科,,,9" xlink:title="吉本皮膚科" transform="ref(svg,13364.6945,-3357.4482)" x="0" y="0"/>
<use xlink:href="#p0" content="2,赤岡医院,高知県香南市赤岡町５６９,内科　神経内科　小児科　リハビリテーション科,,,9" xlink:title="赤岡医院" transform="ref(svg,13372.3211,-3354.1705)" x="0" y="0"/>
<use xlink:href="#p0" content="2,安宅診療所,高知県香南市赤岡町５５７,内科　外科　皮膚科,,,9" xlink:title="安宅診療所" transform="ref(svg,13372.3745,-3354.2036)" x="0" y="0"/>
<use xlink:href="#p0" content="2,おひさまこどもクリニック,高知県香南市野市町西野６５１-１,小児科,,,9" xlink:title="おひさまこどもクリニック" transform="ref(svg,13369.6726,-3356.6162)" x="0" y="0"/>
<use xlink:href="#p0" content="2,かがみ診療所,高知県香南市香我美町岸本３２８-１７４,内科　呼吸器科　小腸内科　胃腸科　循環器科,,,9" xlink:title="かがみ診療所" transform="ref(svg,13373.2736,-3353.9107)" x="0" y="0"/>
<use xlink:href="#p0" content="2,北村産婦人科,高知県香南市野市町西野５５１-３,内科　小児科　産科　婦人科　心臓内科,,,9" xlink:title="北村産婦人科" transform="ref(svg,13370.0274,-3356.3779)" x="0" y="0"/>
<use xlink:href="#p0" content="2,香南香美老人ホーム組合立（特養）三宝荘医務室,高知県香南市野市町母代寺１８８,内科,,,9" xlink:title="香南香美老人ホーム組合立（特養）三宝荘医務室" transform="ref(svg,13370.2988,-3358.1498)" x="0" y="0"/>
<use xlink:href="#p0" content="2,香南市赤岡保健センター臨時開設診療所,高知県香南市赤岡町１３２７香南市赤岡保健センター,内科　小児科　泌尿器科,,,9" xlink:title="香南市赤岡保健センター臨時開設診療所" transform="ref(svg,13372.2023,-3354.3747)" x="0" y="0"/>
<use xlink:href="#p0" content="2,さとう循環器消化器科,高知県香南市野市町西野５８７-１５,循環器科　小腸内科　呼吸器科　外科,,,9" xlink:title="さとう循環器消化器科" transform="ref(svg,13369.8027,-3356.354)" x="0" y="0"/>
<use xlink:href="#p0" content="2,身体障害者支援施設のぞみの家医務室,高知県香南市吉川町古川９９０-５０,神経内科,,,9" xlink:title="身体障害者支援施設のぞみの家医務室" transform="ref(svg,13371.1024,-3353.8468)" x="0" y="0"/>
<use xlink:href="#p0" content="2,鈴木内科,高知県香南市野市町みどり野１-６４,内科　呼吸器内科　消化器内科　循環器内科　代謝内科　内分泌内科,,,9" xlink:title="鈴木内科" transform="ref(svg,13371.4065,-3356.3712)" x="0" y="0"/>
<use xlink:href="#p0" content="2,近森医院,高知県香南市野市町東野字レの丸４４７-２,内科　消化器内科　小児科　皮膚科　循環器内科　胃腸内科,,,9" xlink:title="近森医院" transform="ref(svg,13371.9545,-3356.2943)" x="0" y="0"/>
<use xlink:href="#p0" content="2,寺田内科,高知県香南市夜須町坪井２３-１,内科　呼吸器科　小腸内科　循環器科　小児科　放射線科,,,9" xlink:title="寺田内科" transform="ref(svg,13375.6489,-3353.728)" x="0" y="0"/>
<use xlink:href="#p0" content="2,（特養）オーベルジュ医務室,高知県香南市野市町東野３５４-１８,内科,,,9" xlink:title="（特養）オーベルジュ医務室" transform="ref(svg,13371.7655,-3356.1425)" x="0" y="0"/>
<use xlink:href="#p0" content="2,（特養）香南赤岡苑,高知県香南市赤岡町１１６０-１,内科,,,9" xlink:title="（特養）香南赤岡苑" transform="ref(svg,13373.015,-3354.6437)" x="0" y="0"/>
<use xlink:href="#p0" content="2,西山内科,高知県香南市野市町西野５１-１,内科　小児科,,,9" xlink:title="西山内科" transform="ref(svg,13369.743,-3358.1604)" x="0" y="0"/>
<use xlink:href="#p0" content="2,のいち眼科,高知県香南市野市町西野１９４５,眼科,,,9" xlink:title="のいち眼科" transform="ref(svg,13369.468,-3356.0978)" x="0" y="0"/>
<use xlink:href="#p0" content="2,のいち耳鼻咽喉科医院,高知県香南市野市町西野２３４３,耳鼻いんこう科,,,9" xlink:title="のいち耳鼻咽喉科医院" transform="ref(svg,13369.9532,-3355.6983)" x="0" y="0"/>
<use xlink:href="#p0" content="2,野市整形外科医院,高知県香南市野市町西野２２３５,内科　整形外科　リハビリテーション科,,,9" xlink:title="野市整形外科医院" transform="ref(svg,13369.5711,-3356.7028)" x="0" y="0"/>
<use xlink:href="#p0" content="2,疋田内科,高知県香南市野市町西野２６３６-６,内科　呼吸器内科　胃腸内科　循環器内科　小児科　リハビリテーション科,,,9" xlink:title="疋田内科" transform="ref(svg,13370.1323,-3356.0372)" x="0" y="0"/>
<use xlink:href="#p0" content="2,藤川クリニック,高知県香南市野市町西野２１９２-２,内科　胃腸科　外科　皮膚科　こう門科　リハビリテーション科,,,9" xlink:title="藤川クリニック" transform="ref(svg,13369.5328,-3355.8577)" x="0" y="0"/>
<use xlink:href="#p0" content="2,藤田整形外科,高知県香南市野市町東野１６９-１,内科　神経科　外科　整形外科　皮膚科　リハビリテーション科　リウマチ科,,,9" xlink:title="藤田整形外科" transform="ref(svg,13370.3489,-3356.198)" x="0" y="0"/>
<use xlink:href="#p0" content="2,もえぎクリニック,高知県香南市赤岡町２０６６-３,内科　消化器内科　循環器内科　糖尿病内科　内分泌内科　人工透析内科,,,9" xlink:title="もえぎクリニック" transform="ref(svg,13372.047,-3354.9634)" x="0" y="0"/>
<use xlink:href="#p0" content="2,夜須診療所,高知県香南市夜須町手結２９８-３０,内科　小腸内科　循環器科　小児科,,,9" xlink:title="夜須診療所" transform="ref(svg,13375.6818,-3352.9762)" x="0" y="0"/>
<use xlink:href="#p0" content="2,山北診療所,高知県香南市香我美町山北１３０４-１,内科　リハビリテーション科,,,9" xlink:title="山北診療所" transform="ref(svg,13374.3167,-3358.0141)" x="0" y="0"/>
<use xlink:href="#p0" content="2,陸上自衛隊高知駐屯地医務室,高知県香南市香我美町上分字坂川３３９０,内科　外科　歯科,,,9" xlink:title="陸上自衛隊高知駐屯地医務室" transform="ref(svg,13373.6489,-3354.208)" x="0" y="0"/>
<use xlink:href="#p0" content="2,岩河整形外科,高知県香美市土佐山田町百石町２-４-２０,整形外科　リハビリテーション科　麻酔科,,,9" xlink:title="岩河整形外科" transform="ref(svg,13369.7376,-3360.8928)" x="0" y="0"/>
<use xlink:href="#p0" content="2,宇賀外科循環器科,高知県香美市土佐山田町西本町２-３-１,循環器内科　外科　皮膚科,,,9" xlink:title="宇賀外科循環器科" transform="ref(svg,13368.3562,-3360.4599)" x="0" y="0"/>
<use xlink:href="#p0" content="2,香美市立大栃診療所,高知県香美市物部町大栃８９８-１,内科　外科　整形外科　眼科,,,9" xlink:title="香美市立大栃診療所" transform="ref(svg,13387.4174,-3369.6879)" x="0" y="0"/>
<use xlink:href="#p0" content="2,楠瀬医院,高知県香美市土佐山田町楠目１００,内科　外科　整形外科　リハビリテーション科　放射線科　麻酔科　アレルギー科,,,9" xlink:title="楠瀬医院" transform="ref(svg,13371.3158,-3361.3889)" x="0" y="0"/>
<use xlink:href="#p0" content="2,楠目循環器科内科・眼科,高知県香美市土佐山田町百石町１-１１-２１,内科　小腸内科　循環器科　眼科,,,9" xlink:title="楠目循環器科内科・眼科" transform="ref(svg,13369.3874,-3360.7178)" x="0" y="0"/>
<use xlink:href="#p0" content="2,高知県中央東保健所,高知県香美市土佐山田町山田１１２８-１,内科,,,9" xlink:title="高知県中央東保健所" transform="ref(svg,13369.0025,-3359.6582)" x="0" y="0"/>
<use xlink:href="#p0" content="2,香南香美老人ホーム組合立（特養）白寿荘医務室,高知県香美市香北町永野２１５２,内科　胃腸科,,,9" xlink:title="香南香美老人ホーム組合立（特養）白寿荘医務室" transform="ref(svg,13381.7216,-3366.5679)" x="0" y="0"/>
<use xlink:href="#p0" content="2,小松内科,高知県香美市土佐山田町百石町１-７-８,内科,,,9" xlink:title="小松内科" transform="ref(svg,13369.4319,-3360.8181)" x="0" y="0"/>
<use xlink:href="#p0" content="2,坂本内科,高知県香美市土佐山田町東本町４-１-３８,内科　消化器内科　循環器内科　皮膚科　放射線科,,,9" xlink:title="坂本内科" transform="ref(svg,13369.0886,-3360.6876)" x="0" y="0"/>
<use xlink:href="#p0" content="2,佐野内科リハビリテーションクリニック,高知県香美市土佐山田町東本町３-２-４１,内科　心療内科　リハビリテーション科,,,9" xlink:title="佐野内科リハビリテーションクリニック" transform="ref(svg,13368.8633,-3360.6954)" x="0" y="0"/>
<use xlink:href="#p0" content="2,田所胃腸科内科,高知県香美市土佐山田町東本町２-２-４３,内科　小腸内科,,,9" xlink:title="田所胃腸科内科" transform="ref(svg,13368.738,-3360.6696)" x="0" y="0"/>
<use xlink:href="#p0" content="2,たにむら産婦人科,高知県香美市土佐山田町宝町１-３１-１,内科　産科　婦人科　小児科,,,9" xlink:title="たにむら産婦人科" transform="ref(svg,13368.5712,-3360.3642)" x="0" y="0"/>
<use xlink:href="#p0" content="2,（特養）ウエルプラザやまだ荘医務室,高知県香美市土佐山田町５５０-２,内科　呼吸器科　循環器科　リハビリテーション科,,,9" xlink:title="（特養）ウエルプラザやまだ荘医務室" transform="ref(svg,13367.545,-3360.9152)" x="0" y="0"/>
<use xlink:href="#p0" content="2,とさやまだクリニック,高知県香美市土佐山田町５４８,内科　リハビリテーション科　麻酔科,,,9" xlink:title="とさやまだクリニック" transform="ref(svg,13367.5607,-3360.8549)" x="0" y="0"/>
<use xlink:href="#p0" content="2,韮生郷医務室,高知県香美市物部町大栃字宮ノナロ８９-１,内科,,,9" xlink:title="韮生郷医務室" transform="ref(svg,13386.8505,-3368.9571)" x="0" y="0"/>
<use xlink:href="#p0" content="2,びらふ診療所,高知県香美市香北町美良布１３１７,内科　リウマチ科　外科　整形外科　リハビリテーション科　麻酔科　精神科,,,9" xlink:title="びらふ診療所" transform="ref(svg,13377.9517,-3364.8292)" x="0" y="0"/>
<use xlink:href="#p0" content="2,前田メディカルクリニック,高知県香美市香北町美良布１５１６-３,内科　小児科　外科　整形外科　形成外科　リハビリテーション科,,,9" xlink:title="前田メディカルクリニック" transform="ref(svg,13377.6612,-3364.7011)" x="0" y="0"/>
<use xlink:href="#p0" content="2,村上内科循環器科,高知県香美市土佐山田町２２８９-６,内科　循環器科　呼吸器科　小腸内科,,,9" xlink:title="村上内科循環器科" transform="ref(svg,13367.1825,-3359.9475)" x="0" y="0"/>
<use xlink:href="#p0" content="2,物部診療所,高知県香美市物部町五王堂９４３-７,内科　整形外科,,,9" xlink:title="物部診療所" transform="ref(svg,13390.4844,-3374.1235)" x="0" y="0"/>
<use xlink:href="#p0" content="2,八井田医院,高知県香美市土佐山田町西本町５-３-２１,耳鼻いんこう科,,,9" xlink:title="八井田医院" transform="ref(svg,13367.9707,-3360.4452)" x="0" y="0"/>
<use xlink:href="#p0" content="2,安岡クリニック,高知県香美市土佐山田町楠目字郷本１６３,内科　小腸内科,,,9" xlink:title="安岡クリニック" transform="ref(svg,13370.8211,-3361.0862)" x="0" y="0"/>
<use xlink:href="#p0" content="2,寿美医院,高知県安芸郡東洋町甲浦５４２,内科　胃腸科,,,9" xlink:title="寿美医院" transform="ref(svg,13429.7111,-3354.8066)" x="0" y="0"/>
<use xlink:href="#p0" content="2,野根診療所,高知県安芸郡東洋町野根丙１４１１-１,内科,,,9" xlink:title="野根診療所" transform="ref(svg,13426.578,-3350.5567)" x="0" y="0"/>
<use xlink:href="#p0" content="2,いちごクリニック,高知県安芸郡奈半利町乙１６２８,整形外科　内科　外科　リハビリテーション科,,,9" xlink:title="いちごクリニック" transform="ref(svg,13401.9325,-3342.4981)" x="0" y="0"/>
<use xlink:href="#p0" content="2,（特養）組合立愛光園医務室,高知県安芸郡奈半利町乙４４０-１,内科,,,9" xlink:title="（特養）組合立愛光園医務室" transform="ref(svg,13402.8656,-3342.0987)" x="0" y="0"/>
<use xlink:href="#p0" content="2,はまうづ医院,高知県安芸郡奈半利町乙３７４２-１,内科　胃腸科　小児科　皮膚科　婦人科　リハビリテーション科,,,9" xlink:title="はまうづ医院" transform="ref(svg,13402.7624,-3343.6724)" x="0" y="0"/>
<use xlink:href="#p0" content="2,南内科循環器科,高知県安芸郡奈半利町乙１８３１,内科　呼吸器科　胃腸科　循環器科,,,9" xlink:title="南内科循環器科" transform="ref(svg,13402.3971,-3342.3812)" x="0" y="0"/>
<use xlink:href="#p0" content="2,宮田内科,高知県安芸郡奈半利町乙２６５８-１,内科,,,9" xlink:title="宮田内科" transform="ref(svg,13402.3177,-3342.7836)" x="0" y="0"/>
<use xlink:href="#p0" content="2,小林クリニック,高知県安芸郡田野町２１３５-１,内科,,,9" xlink:title="小林クリニック" transform="ref(svg,13400.9476,-3342.6459)" x="0" y="0"/>
<use xlink:href="#p0" content="2,中芸クリニック,高知県安芸郡田野町２１４５-１,内科　小児科　リハビリテーション科　放射線科,,,9" xlink:title="中芸クリニック" transform="ref(svg,13400.9569,-3342.6726)" x="0" y="0"/>
<use xlink:href="#p0" content="2,なかとう医院,高知県安芸郡安田町安田１７１８-１,内科　循環器科　リハビリテーション科,,,9" xlink:title="なかとう医院" transform="ref(svg,13398.0407,-3343.6448)" x="0" y="0"/>
<use xlink:href="#p0" content="2,和田医院,高知県安芸郡安田町安田１７５０,内科　消化器内科　放射線科,,,9" xlink:title="和田医院" transform="ref(svg,13398.1516,-3343.6724)" x="0" y="0"/>
<use xlink:href="#p0" content="2,馬路診療所,高知県安芸郡馬路村馬路４０５-１,内科　歯科,,,9" xlink:title="馬路診療所" transform="ref(svg,13404.8671,-3355.2456)" x="0" y="0"/>
<use xlink:href="#p0" content="2,魚梁瀬診療所,高知県安芸郡馬路村魚梁瀬１０-１１,内科,,,9" xlink:title="魚梁瀬診療所" transform="ref(svg,13410.9516,-3361.5281)" x="0" y="0"/>
<use xlink:href="#p0" content="2,芸西オルソクリニック,高知県安芸郡芸西村和食１４９５-１,内科　外科　整形外科　リハビリテーション科,,,9" xlink:title="芸西オルソクリニック" transform="ref(svg,13381.6227,-3352.3185)" x="0" y="0"/>
<use xlink:href="#p0" content="2,（特養）ウエルプラザ洋寿荘医務室,高知県安芸郡芸西村西分乙２９７,内科,,,9" xlink:title="（特養）ウエルプラザ洋寿荘医務室" transform="ref(svg,13377.1762,-3351.5639)" x="0" y="0"/>
<use xlink:href="#p0" content="2,深谷内科,高知県安芸郡芸西村和食甲１６０４,内科,,,9" xlink:title="深谷内科" transform="ref(svg,13381.1256,-3351.9764)" x="0" y="0"/>
</g>
</svg>
