<?xml version="1.0" encoding="UTF-8"?>
<svg  xmlns="http://www.w3.org/2000/svg" xmlns:xlink="http://www.w3.org/1999/xlink" xmlns:go="http://purl.org/svgmap/profile" property="医療機関分類,施設名称,所在地,診療科目１,診療科目２,診療科目３,開設者分類" viewBox="13851.5625 -3550.78125 35.15625 35.15625" go:dataArea="13851.5625 -3550.78125 35.15625 35.15625" >
<metadata>
 <rdf:RDF xmlns:rdf="http://www.w3.org/1999/02/22-rdf-syntax-ns#" xmlns:crs="http://opengis.org/xmldtds/transformations.dtd" xmlns:svg="http://www.w3.org/svg" >
  <rdf:Description>
   <crs:CoordinateReferenceSystem rdf:resource="http://purl.org/crs/84" svg:transform="matrix(100.0,0.0,0.0,-100.0,0.0,0.0)" />
  </rdf:Description>
 </rdf:RDF>
</metadata>
<globalCoordinateSystem srsName="http://purl.org/crs/84" transform="matrix(100.0,0.0,0.0,-100.0,0.0,0.0)" />
<defs>
 <g id="p0" >
  <image xlink:href="mappin.png" preserveAspectRatio="none" x="-8" y="-25" width="19" height="27"/>
 </g>
 <g id="p1" >
  <image xlink:href="mappin1.png" preserveAspectRatio="none" x="-8" y="-25" width="19" height="27"/>
 </g>
 <g id="p2" >
  <image xlink:href="mappin2.png" preserveAspectRatio="none" x="-8" y="-25" width="19" height="27"/>
 </g>
 <g id="p3" >
  <image xlink:href="mappin3.png" preserveAspectRatio="none" x="-8" y="-25" width="19" height="27"/>
 </g>
 <g id="p4" >
  <image xlink:href="mappin4.png" preserveAspectRatio="none" x="-8" y="-25" width="19" height="27"/>
 </g>
 <g id="p5" >
  <image xlink:href="mappin5.png" preserveAspectRatio="none" x="-8" y="-25" width="19" height="27"/>
 </g>
 <g id="p6" >
  <image xlink:href="mappin6.png" preserveAspectRatio="none" x="-8" y="-25" width="19" height="27"/>
 </g>
 <g id="p7" >
  <image xlink:href="mappin7.png" preserveAspectRatio="none" x="-8" y="-25" width="19" height="27"/>
 </g>
 <g id="p8" >
  <image xlink:href="mappin8.png" preserveAspectRatio="none" x="-8" y="-25" width="19" height="27"/>
 </g>
 <g id="p9" >
  <image xlink:href="mappin9.png" preserveAspectRatio="none" x="-8" y="-25" width="19" height="27"/>
 </g>
</defs>
<g fill="green" fill-rule="evenodd" >
<use xlink:href="#p0" content="2,身延町営古関診療所,山梨県南巨摩郡身延町古関２４３７,外科,,,9" xlink:title="身延町営古関診療所" transform="ref(svg,13852.4433,-3547.5845)" x="0" y="0"/>
<use xlink:href="#p0" content="2,鈴木内科クリニック,山梨県富士吉田市旭５-１-３８,内科　循環器科,,,9" xlink:title="鈴木内科クリニック" transform="ref(svg,13878.7125,-3549.3955)" x="0" y="0"/>
<use xlink:href="#p0" content="2,蓬莱整形外科,山梨県富士吉田市下吉田１-３-２１,整形外科　リハビリテーション科　内科　泌尿器科　婦人科　美容外科,,,9" xlink:title="蓬莱整形外科" transform="ref(svg,13880.4818,-3549.404)" x="0" y="0"/>
<use xlink:href="#p0" content="2,堀内産婦人科医院,山梨県富士吉田市下吉田７-３-１４,産婦人科　内科　小児科,,,9" xlink:title="堀内産婦人科医院" transform="ref(svg,13880.9807,-3549.0674)" x="0" y="0"/>
<use xlink:href="#p0" content="2,中央医院,山梨県富士吉田市下吉田２-１９-６,内科　循環器科,,,9" xlink:title="中央医院" transform="ref(svg,13880.4843,-3548.9544)" x="0" y="0"/>
<use xlink:href="#p0" content="2,保坂内科クリニック,山梨県富士吉田市下吉田５-２５-２０,内科,,,9" xlink:title="保坂内科クリニック" transform="ref(svg,13880.521,-3548.7991)" x="0" y="0"/>
<use xlink:href="#p0" content="2,よねやまクリニック,山梨県富士吉田市下吉田５-２２-５１,消化器科　内科　外科　肛門科　放射線科,,,9" xlink:title="よねやまクリニック" transform="ref(svg,13880.4271,-3548.7674)" x="0" y="0"/>
<use xlink:href="#p0" content="2,羽田医院,山梨県富士吉田市下吉田２-２-１８,内科　小児科,,,9" xlink:title="羽田医院" transform="ref(svg,13880.3849,-3549.1705)" x="0" y="0"/>
<use xlink:href="#p0" content="2,天野医院,山梨県富士吉田市下吉田１-７-１９,内科　外科　消化器科　循環器科　呼吸器科　整形外科,,,9" xlink:title="天野医院" transform="ref(svg,13880.5529,-3549.3277)" x="0" y="0"/>
<use xlink:href="#p0" content="2,皆春堂田辺医院,山梨県富士吉田市下吉田２-１４-２８,内科　消化器科,,,9" xlink:title="皆春堂田辺医院" transform="ref(svg,13880.4915,-3549.2421)" x="0" y="0"/>
<use xlink:href="#p0" content="2,大戸耳鼻咽喉科医院,山梨県富士吉田市下吉田５-１１-７,耳鼻いんこう科,,,9" xlink:title="大戸耳鼻咽喉科医院" transform="ref(svg,13880.2021,-3548.7294)" x="0" y="0"/>
<use xlink:href="#p0" content="2,佐藤医院,山梨県富士吉田市下吉田４-１３-１７,内科　小児科,,,9" xlink:title="佐藤医院" transform="ref(svg,13880.0511,-3549.0087)" x="0" y="0"/>
<use xlink:href="#p0" content="2,角田医院,山梨県富士吉田市下吉田４-１７-３,内科　小児科,,,9" xlink:title="角田医院" transform="ref(svg,13880.0015,-3549.1428)" x="0" y="0"/>
<use xlink:href="#p0" content="2,内藤医院,山梨県富士吉田市下吉田３-９-１３,内科　小児科　循環器科,,,9" xlink:title="内藤医院" transform="ref(svg,13880.2319,-3549.2829)" x="0" y="0"/>
<use xlink:href="#p0" content="2,奥脇医院,山梨県富士吉田市下吉田８５９,胃腸科　外科　皮膚科　泌尿器科　肛門科　整形外科　内科,,,9" xlink:title="奥脇医院" transform="ref(svg,13880.1129,-3549.286)" x="0" y="0"/>
<use xlink:href="#p0" content="2,深澤医院,山梨県富士吉田市下吉田８７９,内科　小児科　婦人科　皮膚科　リハビリテーション科,,,9" xlink:title="深澤医院" transform="ref(svg,13879.6817,-3549.4743)" x="0" y="0"/>
<use xlink:href="#p0" content="2,さいとう眼科クリニック,山梨県富士吉田市下吉田８-１８-２６,眼科,,,9" xlink:title="さいとう眼科クリニック" transform="ref(svg,13880.9559,-3549.358)" x="0" y="0"/>
<use xlink:href="#p0" content="2,つゆきこどもクリニック,山梨県富士吉田市下吉田８-１８-２９,小児科,,,9" xlink:title="つゆきこどもクリニック" transform="ref(svg,13880.9432,-3549.386)" x="0" y="0"/>
<use xlink:href="#p0" content="2,クリニック小林,山梨県富士吉田市松山５-１１-６,内科　消化器科,,,9" xlink:title="クリニック小林" transform="ref(svg,13878.8753,-3548.6448)" x="0" y="0"/>
<use xlink:href="#p0" content="2,樂々堂整形外科,山梨県富士吉田市上吉田１１６６-５,整形外科　リハビリテーション科　リウマチ科,,,9" xlink:title="樂々堂整形外科" transform="ref(svg,13879.9711,-3547.35)" x="0" y="0"/>
<use xlink:href="#p0" content="2,トモエ医院,山梨県富士吉田市上吉田２-１０-２２,消化器内科　循環器内科,,,9" xlink:title="トモエ医院" transform="ref(svg,13879.6116,-3548.1706)" x="0" y="0"/>
<use xlink:href="#p0" content="2,（医）和顔会くわざわクリニック,山梨県富士吉田市上吉田２-１３-２,耳鼻いんこう科　脳神経外科　神経内科　内科　心療内科　放射線科,,,9" xlink:title="（医）和顔会くわざわクリニック" transform="ref(svg,13879.4876,-3548.2206)" x="0" y="0"/>
<use xlink:href="#p0" content="2,加賀谷医院,山梨県富士吉田市上吉田３０３２-１,産婦人科　内科　小児科,,,9" xlink:title="加賀谷医院" transform="ref(svg,13880.6341,-3547.1996)" x="0" y="0"/>
<use xlink:href="#p0" content="2,高橋外科医院,山梨県富士吉田市上吉田３６２６-８,外科　内科　消化器科,,,9" xlink:title="高橋外科医院" transform="ref(svg,13880.3562,-3547.8651)" x="0" y="0"/>
<use xlink:href="#p0" content="2,吉田医院,山梨県富士吉田市中曽根１-５-１０,小児科　内科,,,9" xlink:title="吉田医院" transform="ref(svg,13880.0402,-3548.5802)" x="0" y="0"/>
<use xlink:href="#p0" content="2,新西原クリニック,山梨県富士吉田市上吉田４２５９-２,胃腸科　外科　内科　肛門科,,,9" xlink:title="新西原クリニック" transform="ref(svg,13878.5306,-3547.9109)" x="0" y="0"/>
<use xlink:href="#p0" content="2,大田屋外科医院,山梨県富士吉田市上吉田５-８-３,外科　整形外科　内科　肛門科　胃腸科　皮膚科　泌尿器科,,,9" xlink:title="大田屋外科医院" transform="ref(svg,13879.5485,-3547.793)" x="0" y="0"/>
<use xlink:href="#p0" content="2,（医）信恵会羽田レディースクリニック,山梨県富士吉田市上吉田６-１０-１４,産科　婦人科　内科　小児科,,,9" xlink:title="（医）信恵会羽田レディースクリニック" transform="ref(svg,13879.1452,-3547.5753)" x="0" y="0"/>
<use xlink:href="#p0" content="2,富士の森クリニック,山梨県富士吉田市上吉田７-１２-１４,内科　消化器科　リハビリテーション科　小児科,,,9" xlink:title="富士の森クリニック" transform="ref(svg,13879.2939,-3547.6211)" x="0" y="0"/>
<use xlink:href="#p0" content="2,（医）弘仁勝和会ふじよしだ勝和クリニック,山梨県富士吉田市上吉田９９７-１,人工透析内科　腎臓内科　内科　循環器内科　外科　整形外科,,,9" xlink:title="（医）弘仁勝和会ふじよしだ勝和クリニック" transform="ref(svg,13879.8846,-3547.6909)" x="0" y="0"/>
<use xlink:href="#p0" content="2,かわむらクリニック,山梨県富士吉田市上吉田８４４-７,内科　循環器科,,,9" xlink:title="かわむらクリニック" transform="ref(svg,13879.9465,-3547.7788)" x="0" y="0"/>
<use xlink:href="#p0" content="2,富士吉田アイクリニック,山梨県富士吉田市上吉田３１７３-１,眼科,,,9" xlink:title="富士吉田アイクリニック" transform="ref(svg,13880.8096,-3547.4443)" x="0" y="0"/>
<use xlink:href="#p0" content="2,高橋皮膚科医院,山梨県富士吉田市新西原１-２７-１,皮膚科,,,9" xlink:title="高橋皮膚科医院" transform="ref(svg,13878.8595,-3548.1638)" x="0" y="0"/>
<use xlink:href="#p0" content="2,小林眼科医院,山梨県富士吉田市新西原１-３-１８,眼科,,,9" xlink:title="小林眼科医院" transform="ref(svg,13879.2705,-3548.2624)" x="0" y="0"/>
<use xlink:href="#p0" content="2,鈴木医院,山梨県富士吉田市新西原３-９-８,婦人科　小児科,,,9" xlink:title="鈴木医院" transform="ref(svg,13878.5685,-3548.4334)" x="0" y="0"/>
<use xlink:href="#p0" content="2,渡辺整形外科,山梨県富士吉田市新倉２６７１-３,整形外科　リハビリテーション科　リウマチ科,,,9" xlink:title="渡辺整形外科" transform="ref(svg,13877.9004,-3549.2768)" x="0" y="0"/>
<use xlink:href="#p0" content="2,宮下医院,山梨県富士吉田市大明見２９５,内科　外科　消化器科　呼吸器科　肛門科,,,9" xlink:title="宮下医院" transform="ref(svg,13881.997,-3548.8515)" x="0" y="0"/>
<use xlink:href="#p0" content="2,竜ヶ丘医院,山梨県富士吉田市竜ヶ丘１-３-２３,小児科,,,9" xlink:title="竜ヶ丘医院" transform="ref(svg,13879.4344,-3549.0546)" x="0" y="0"/>
<use xlink:href="#p0" content="2,樂天堂整形外科,山梨県富士吉田市上吉田２-５-１富士急ターミナルビル５Ｆ,内科　整形外科　リハビリテーション科　リウマチ科,,,9" xlink:title="樂天堂整形外科" transform="ref(svg,13879.5844,-3548.3545)" x="0" y="0"/>
<use xlink:href="#p0" content="2,--田内科クリニック,山梨県富士吉田市上吉田４２０３-２,内科　消化器内科　腎臓内科　循環器内科　アレルギー科,,,9" xlink:title="--田内科クリニック" transform="ref(svg,13878.3735,-3548.0201)" x="0" y="0"/>
<use xlink:href="#p0" content="2,いしだ女性クリニック,山梨県富士吉田市上吉田２-５-１富士急ターミナルビル５Ｆ,婦人科　産科　女性泌尿器科,,,9" xlink:title="いしだ女性クリニック" transform="ref(svg,13879.5753,-3548.3519)" x="0" y="0"/>
<use xlink:href="#p0" content="2,富士彩クリニック,山梨県富士吉田市中曽根３-２-４３,形成外科　美容外科　皮膚科,,,9" xlink:title="富士彩クリニック" transform="ref(svg,13880.4557,-3548.266)" x="0" y="0"/>
<use xlink:href="#p0" content="2,ささき頭痛・脳神経クリニック,山梨県富士吉田市ときわ台１-１-２３,脳神経外科　リハビリテーション科,,,9" xlink:title="ささき頭痛・脳神経クリニック" transform="ref(svg,13879.2186,-3548.9244)" x="0" y="0"/>
<use xlink:href="#p0" content="2,富士・東部小児初期救急医療センター,山梨県富士吉田市緑ヶ丘２-７-２１,小児科,,,9" xlink:title="富士・東部小児初期救急医療センター" transform="ref(svg,13879.4175,-3549.2779)" x="0" y="0"/>
<use xlink:href="#p0" content="2,三浦医院,山梨県南都留郡忍野村内野４８０２,内科　小児科,,,9" xlink:title="三浦医院" transform="ref(svg,13885.9589,-3545.4501)" x="0" y="0"/>
<use xlink:href="#p0" content="2,あまの診療所,山梨県南都留郡忍野村忍草１４００-３５,内科　小児科　心療内科　精神科,,,9" xlink:title="あまの診療所" transform="ref(svg,13884.3311,-3545.9566)" x="0" y="0"/>
<use xlink:href="#p0" content="2,山中湖村診療所,山梨県南都留郡山中湖村山中１２,内科　外科　小児科,,,9" xlink:title="山中湖村診療所" transform="ref(svg,13884.6029,-3542.7909)" x="0" y="0"/>
<use xlink:href="#p0" content="2,宝司医院,山梨県南都留郡富士河口湖町小立１８３８,内科　小児科,,,9" xlink:title="宝司医院" transform="ref(svg,13875.0944,-3550.6924)" x="0" y="0"/>
<use xlink:href="#p0" content="2,青木医院,山梨県南都留郡富士河口湖町小立７２０５,内科　小児科,,,9" xlink:title="青木医院" transform="ref(svg,13875.8279,-3550.4965)" x="0" y="0"/>
<use xlink:href="#p0" content="2,（医）福笑会富士ニコニコクリニック,山梨県南都留郡富士河口湖町船津１２８７,内科　小児科　皮膚科,,,9" xlink:title="（医）福笑会富士ニコニコクリニック" transform="ref(svg,13875.2638,-3549.9758)" x="0" y="0"/>
<use xlink:href="#p0" content="2,小佐野医院,山梨県南都留郡富士河口湖町船津１４４４-３,内科　小児科　婦人科,,,9" xlink:title="小佐野医院" transform="ref(svg,13875.9996,-3549.7887)" x="0" y="0"/>
<use xlink:href="#p0" content="2,渡辺医院,山梨県南都留郡富士河口湖町船津１４９６,産婦人科　小児科　内科,,,9" xlink:title="渡辺医院" transform="ref(svg,13876.2176,-3549.9517)" x="0" y="0"/>
<use xlink:href="#p0" content="2,宮下医院,山梨県南都留郡富士河口湖町船津１５００,内科　小児科　循環器科　消化器科　放射線科,,,9" xlink:title="宮下医院" transform="ref(svg,13876.3706,-3549.8894)" x="0" y="0"/>
<use xlink:href="#p0" content="2,渡辺クリニック,山梨県南都留郡富士河口湖町船津１５０１-３,内科　小児科　消化器科　循環器科,,,9" xlink:title="渡辺クリニック" transform="ref(svg,13876.3355,-3549.9238)" x="0" y="0"/>
<use xlink:href="#p0" content="2,渡辺眼科,山梨県南都留郡富士河口湖町船津２０８８-３,眼科,,,9" xlink:title="渡辺眼科" transform="ref(svg,13876.3741,-3549.5007)" x="0" y="0"/>
<use xlink:href="#p0" content="2,外川医院,山梨県南都留郡富士河口湖町船津３４２５,内科　小児科　アレルギー科　放射線科,,,9" xlink:title="外川医院" transform="ref(svg,13876.5079,-3549.716)" x="0" y="0"/>
<use xlink:href="#p0" content="2,山岸クリニック,山梨県南都留郡富士河口湖町船津１１９７-１,内科　外科　消化器内科　肛門外科,,,9" xlink:title="山岸クリニック" transform="ref(svg,13875.687,-3550.0908)" x="0" y="0"/>
<use xlink:href="#p0" content="2,（医）青虎会フジ河口湖クリニック,山梨県南都留郡富士河口湖町船津６８８７,整形外科　リウマチ科　胃腸内科　リハビリテーション科,,,9" xlink:title="（医）青虎会フジ河口湖クリニック" transform="ref(svg,13876.069,-3549.1231)" x="0" y="0"/>
<use xlink:href="#p0" content="2,いしはらクリニック,山梨県南都留郡富士河口湖町船津５８４-１,小児科　アレルギー科,,,9" xlink:title="いしはらクリニック" transform="ref(svg,13875.8923,-3550.1788)" x="0" y="0"/>
<use xlink:href="#p0" content="2,勝山診療所,山梨県南都留郡富士河口湖町勝山４５７５-１０,内科　心療内科,,,9" xlink:title="勝山診療所" transform="ref(svg,13873.9858,-3549.7265)" x="0" y="0"/>
<use xlink:href="#p0" content="2,健康科学大学リハビリテーションクリニック,山梨県南都留郡富士河口湖町小立２４８７,リハビリテーション科　整形外科　内科　小児科,,,9" xlink:title="健康科学大学リハビリテーションクリニック" transform="ref(svg,13875.3471,-3550.4143)" x="0" y="0"/>
<use xlink:href="#p0" content="2,小舘クリニック,山梨県南都留郡富士河口湖町船津字水ノ元７４４５-２,内科,,,9" xlink:title="小舘クリニック" transform="ref(svg,13876.3247,-3548.653)" x="0" y="0"/>
<use xlink:href="#p0" content="2,河口湖透析クリニック,山梨県南都留郡富士河口湖町船津５１１９-２,内科,,,9" xlink:title="河口湖透析クリニック" transform="ref(svg,13877.9812,-3549.3546)" x="0" y="0"/>
<use xlink:href="#p0" content="2,富士河口湖町立富士高原診療所,山梨県南都留郡富士河口湖町富士ヶ嶺１２１９-１,内科　小児科,,,9" xlink:title="富士河口湖町立富士高原診療所" transform="ref(svg,13861.865,-3541.5777)" x="0" y="0"/>
<use xlink:href="#p0" content="2,富士吉田市特別養護老人ホ-ム寿荘医務室,山梨県富士吉田市下吉田９-９-１０,内科,,,9" xlink:title="富士吉田市特別養護老人ホ-ム寿荘医務室" transform="ref(svg,13881.1216,-3549.7203)" x="0" y="0"/>
<use xlink:href="#p0" content="2,（特養）芙蓉荘診療所,山梨県富士吉田市松山１６１３,内科,,,9" xlink:title="（特養）芙蓉荘診療所" transform="ref(svg,13877.7938,-3548.1044)" x="0" y="0"/>
<use xlink:href="#p0" content="2,富士山八合目富士吉田救護所,山梨県富士吉田市上吉田北向５６１８,内科　外科,,,9" xlink:title="富士山八合目富士吉田救護所" transform="ref(svg,13873.8914,-3536.9222)" x="0" y="0"/>
<use xlink:href="#p0" content="2,県営富士山七合目救護所,山梨県富士吉田市上吉田北向５６１８富士山七合目,内科　外科,,,9" xlink:title="県営富士山七合目救護所" transform="ref(svg,13874.4003,-3537.8352)" x="0" y="0"/>
<use xlink:href="#p0" content="2,特別養護老人ホ-ム慶和荘医務室,山梨県富士吉田市上吉田４５８４,内科,,,9" xlink:title="特別養護老人ホ-ム慶和荘医務室" transform="ref(svg,13877.6033,-3547.1823)" x="0" y="0"/>
<use xlink:href="#p0" content="2,富士吉田医師会臨床検査センター,山梨県富士吉田市緑ヶ丘２-７-２１,小児科　内科　産婦人科,,,9" xlink:title="富士吉田医師会臨床検査センター" transform="ref(svg,13879.4175,-3549.2779)" x="0" y="0"/>
<use xlink:href="#p0" content="2,ファナック診療所,山梨県南都留郡忍野村忍草３５８０,内科　婦人科,,,9" xlink:title="ファナック診療所" transform="ref(svg,13883.7862,-3544.6861)" x="0" y="0"/>
<use xlink:href="#p0" content="2,陸上自衛隊北富士駐屯地医務室,山梨県南都留郡忍野村忍草３０９３,内科　外科　歯科,,,9" xlink:title="陸上自衛隊北富士駐屯地医務室" transform="ref(svg,13882.6272,-3545.2757)" x="0" y="0"/>
<use xlink:href="#p0" content="2,富士聖ヨハネ学園診療所,山梨県南都留郡忍野村忍草２７４８,内科　精神科　神経科　小児科,,,9" xlink:title="富士聖ヨハネ学園診療所" transform="ref(svg,13880.9018,-3545.9328)" x="0" y="0"/>
<use xlink:href="#p0" content="2,山中湖村夏季救護所,山梨県南都留郡山中湖村山中２３５-１,内科　外科,,,9" xlink:title="山中湖村夏季救護所" transform="ref(svg,13886.0522,-3541.1853)" x="0" y="0"/>
<use xlink:href="#p0" content="2,（特養）富士山荘診療所,山梨県南都留郡鳴沢村５０６１,内科,,,9" xlink:title="（特養）富士山荘診療所" transform="ref(svg,13872.4309,-3547.5428)" x="0" y="0"/>
<use xlink:href="#p0" content="2,シチズンセイミツ（株）診療所,山梨県南都留郡富士河口湖町船津６６６３-２,内科,,,9" xlink:title="シチズンセイミツ（株）診療所" transform="ref(svg,13877.7408,-3548.8276)" x="0" y="0"/>
<use xlink:href="#p0" content="2,はまなし寮医務室,山梨県南都留郡富士河口湖町船津６６６３-１,内科,,,9" xlink:title="はまなし寮医務室" transform="ref(svg,13875.8964,-3545.6919)" x="0" y="0"/>
<use xlink:href="#p0" content="2,地域密着型（特養）なでしこ医務室,山梨県南都留郡富士河口湖町船津２２００,内科,,,9" xlink:title="地域密着型（特養）なでしこ医務室" transform="ref(svg,13875.8964,-3545.6919)" x="0" y="0"/>
<use xlink:href="#p0" content="2,山梨県富士・東部保健所,山梨県富士吉田市上吉田１-２-５,内科,,,9" xlink:title="山梨県富士・東部保健所" transform="ref(svg,13880.0969,-3548.0556)" x="0" y="0"/>
<use xlink:href="#p0" content="2,イヤモンドライフすその診療,静岡県裾野市須山字大野２９４９,内科,,,9" xlink:title="イヤモンドライフすその診療" transform="ref(svg,13886.0894,-3525.7908)" x="0" y="0"/>
<use xlink:href="#p0" content="2,須山診療所,静岡県裾野市須山５７０-１,内科　循環器科　小児科　麻酔科,,,9" xlink:title="須山診療所" transform="ref(svg,13884.6235,-3525.31)" x="0" y="0"/>
<use xlink:href="#p0" content="2,（特養）ながいずみホーム診療室,静岡県駿東郡長泉町元長窪東細尾８８８-６９,内科,,,9" xlink:title="（特養）ながいずみホーム診療室" transform="ref(svg,13886.5685,-3516.8549)" x="0" y="0"/>
<use xlink:href="#p0" content="2,静岡県富士保健所富士宮分庁舎,静岡県富士宮市豊町１８-５,内科　精神科,,,9" xlink:title="静岡県富士保健所富士宮分庁舎" transform="ref(svg,13861.391,-3523.1972)" x="0" y="0"/>
<use xlink:href="#p0" content="2,富士山衛生センター,静岡県富士宮市富士山八合目,内科　外科,,,9" xlink:title="富士山衛生センター" transform="ref(svg,13873.831,-3536.5588)" x="0" y="0"/>
<use xlink:href="#p0" content="2,富士宮市救急医療センター,静岡県富士宮市宮原１２-１,内科　小児科　外科　歯科,,,9" xlink:title="富士宮市救急医療センター" transform="ref(svg,13860.7972,-3524.5104)" x="0" y="0"/>
<use xlink:href="#p0" content="2,富士宮市保健センター,静岡県富士宮市宮原１２-１,内科　小児科　婦人科　歯科,,,9" xlink:title="富士宮市保健センター" transform="ref(svg,13860.7972,-3524.5104)" x="0" y="0"/>
<use xlink:href="#p0" content="2,養護老人ホーム富士宮市立長生園診療室,静岡県富士宮市精進川３８３,内科,,,9" xlink:title="養護老人ホーム富士宮市立長生園診療室" transform="ref(svg,13857.3502,-3528.0115)" x="0" y="0"/>
<use xlink:href="#p0" content="2,池田医院,静岡県富士宮市淀師１４５５,アレルギー科　耳鼻いんこう科,,,9" xlink:title="池田医院" transform="ref(svg,13860.4248,-3524.4778)" x="0" y="0"/>
<use xlink:href="#p0" content="2,池田クリニック,静岡県富士宮市下条１４８-１,内科　胃腸科,,,9" xlink:title="池田クリニック" transform="ref(svg,13857.5497,-3527.7752)" x="0" y="0"/>
<use xlink:href="#p0" content="2,池谷皮膚科医院,静岡県富士宮市中央町３-１４,皮膚科,,,9" xlink:title="池谷皮膚科医院" transform="ref(svg,13861.3969,-3522.3468)" x="0" y="0"/>
<use xlink:href="#p0" content="2,大宮望月クリニック,静岡県富士宮市大宮町１８-２２,内科　消化器内科,,,9" xlink:title="大宮望月クリニック" transform="ref(svg,13861.0727,-3522.4065)" x="0" y="0"/>
<use xlink:href="#p0" content="2,小田部産婦人科医院,静岡県富士宮市ひばりが丘１６６,産婦人科,,,9" xlink:title="小田部産婦人科医院" transform="ref(svg,13861.7323,-3523.57)" x="0" y="0"/>
<use xlink:href="#p0" content="2,加藤脳神経外科,静岡県富士宮市三園平６６８-２,内科　外科　脳神経外科,,,9" xlink:title="加藤脳神経外科" transform="ref(svg,13861.1143,-3524.4717)" x="0" y="0"/>
<use xlink:href="#p0" content="2,協愛医院,静岡県富士宮市宮町８-７,耳鼻いんこう科　気管食道科,,,9" xlink:title="協愛医院" transform="ref(svg,13860.8688,-3522.4782)" x="0" y="0"/>
<use xlink:href="#p0" content="2,後藤外科医院,静岡県富士宮市東町９-１,胃腸科　外科　整形外科　皮膚科　こう門科　リハビリテーション科　放射線科,,,9" xlink:title="後藤外科医院" transform="ref(svg,13862.0553,-3522.3431)" x="0" y="0"/>
<use xlink:href="#p0" content="2,指出泌尿器科,静岡県富士宮市朝日町９-５,泌尿器科　性病科,,,9" xlink:title="指出泌尿器科" transform="ref(svg,13860.6614,-3523.3161)" x="0" y="0"/>
<use xlink:href="#p0" content="2,佐野医院,静岡県富士宮市小泉２１８６-５,内科　小児科　放射線科　胃腸内科,,,9" xlink:title="佐野医院" transform="ref(svg,13863.882,-3521.617)" x="0" y="0"/>
<use xlink:href="#p0" content="2,佐野記念クリニック,静岡県富士宮市宮町１３-３０,内科　神経科　消化器科　小児科　外科　整形外科　リハビリテーション科　放射線科,,,9" xlink:title="佐野記念クリニック" transform="ref(svg,13860.8802,-3522.7805)" x="0" y="0"/>
<use xlink:href="#p0" content="2,田中医院,静岡県富士宮市舞々木町７１１-２,内科　胃腸科　外科　こう門科,,,9" xlink:title="田中医院" transform="ref(svg,13862.4875,-3524.3494)" x="0" y="0"/>
<use xlink:href="#p0" content="2,谷口小児科医院,静岡県富士宮市小泉１１１５-５,内科　小児科,,,9" xlink:title="谷口小児科医院" transform="ref(svg,13862.6543,-3522.3213)" x="0" y="0"/>
<use xlink:href="#p0" content="2,谷口内科クリニック,静岡県富士宮市矢立町９１０-４,内科　糖尿病内科,,,9" xlink:title="谷口内科クリニック" transform="ref(svg,13862.5237,-3522.4662)" x="0" y="0"/>
<use xlink:href="#p0" content="2,土谷医院,静岡県富士宮市小泉４５４-１,内科　消化器科　循環器科　小児科　放射線科,,,9" xlink:title="土谷医院" transform="ref(svg,13863.2224,-3521.1495)" x="0" y="0"/>
<use xlink:href="#p0" content="2,天神産婦人科医院,静岡県富士宮市若の宮町３９８,産婦人科,,,9" xlink:title="天神産婦人科医院" transform="ref(svg,13861.9285,-3523.0689)" x="0" y="0"/>
<use xlink:href="#p0" content="2,東静脳神経センター,静岡県富士宮市西小泉町１４-９,内科　リハビリテーション科　放射線科　脳神経外科　神経内科,,,9" xlink:title="東静脳神経センター" transform="ref(svg,13862.8162,-3521.7656)" x="0" y="0"/>
<use xlink:href="#p0" content="2,時田げんきクリニック,静岡県富士宮市貴船町６-１８,内科　小児科,,,9" xlink:title="時田げんきクリニック" transform="ref(svg,13860.1805,-3522.9512)" x="0" y="0"/>
<use xlink:href="#p0" content="2,ないとう整形外科クリニック,静岡県富士宮市西小泉町３１-６,リウマチ科　整形外科　リハビリテーション科,,,9" xlink:title="ないとう整形外科クリニック" transform="ref(svg,13862.9922,-3521.9438)" x="0" y="0"/>
<use xlink:href="#p0" content="2,永松医院,静岡県富士宮市東町２６-８,内科　心療内科　精神科　小児科,,,9" xlink:title="永松医院" transform="ref(svg,13861.853,-3522.1746)" x="0" y="0"/>
<use xlink:href="#p0" content="2,西原内科循環器科医院,静岡県富士宮市東町１０-４,内科　循環器科,,,9" xlink:title="西原内科循環器科医院" transform="ref(svg,13861.9568,-3522.3639)" x="0" y="0"/>
<use xlink:href="#p0" content="2,原医院,静岡県富士宮市山宮９５９-５,内科　胃腸科　外科　こう門科,,,9" xlink:title="原医院" transform="ref(svg,13863.1119,-3526.0168)" x="0" y="0"/>
<use xlink:href="#p0" content="2,板東レディースクリニック,静岡県富士宮市杉田１０１６-７,産婦人科,,,9" xlink:title="板東レディースクリニック" transform="ref(svg,13865.0732,-3521.8021)" x="0" y="0"/>
<use xlink:href="#p0" content="2,富士宮中央クリニック,静岡県富士宮市宮原８８-６,内科　外科　リハビリテーション科　循環器内科　消化器内科　消化器外科　循環器外科,,,9" xlink:title="富士宮中央クリニック" transform="ref(svg,13860.7199,-3524.8788)" x="0" y="0"/>
<use xlink:href="#p0" content="2,（医）東邦会牧野医院,静岡県富士宮市西小泉町５０-１１,耳鼻いんこう科　気管食道科　麻酔科,,,9" xlink:title="（医）東邦会牧野医院" transform="ref(svg,13863.0566,-3521.9475)" x="0" y="0"/>
<use xlink:href="#p0" content="2,松本整形外科医院,静岡県富士宮市西町８-８,リウマチ科　整形外科　リハビリテーション科,,,9" xlink:title="松本整形外科医院" transform="ref(svg,13860.557,-3522.7307)" x="0" y="0"/>
<use xlink:href="#p0" content="2,三浦医院,静岡県富士宮市淀川町２９-１１,内科　胃腸科　小児科　外科,,,9" xlink:title="三浦医院" transform="ref(svg,13860.0067,-3523.0664)" x="0" y="0"/>
<use xlink:href="#p0" content="2,みみ・はな・のど神田川クリニック,静岡県富士宮市神田川町１２-６,耳鼻いんこう科,,,9" xlink:title="みみ・はな・のど神田川クリニック" transform="ref(svg,13860.781,-3521.9697)" x="0" y="0"/>
<use xlink:href="#p0" content="2,宮本胃腸科・外科クリニック,静岡県富士宮市東阿幸地３３１-１,外科　皮膚科　放射線科　肛門外科　胃腸外科,,,9" xlink:title="宮本胃腸科・外科クリニック" transform="ref(svg,13862.5939,-3523.0452)" x="0" y="0"/>
<use xlink:href="#p0" content="2,望月医院,静岡県富士宮市元城町２０-１,内科　小児科,,,9" xlink:title="望月医院" transform="ref(svg,13861.1689,-3522.6357)" x="0" y="0"/>
<use xlink:href="#p0" content="2,安田医院,静岡県富士宮市小泉４２３-３,内科　小児科　放射線科,,,9" xlink:title="安田医院" transform="ref(svg,13863.0605,-3521.0526)" x="0" y="0"/>
<use xlink:href="#p0" content="2,山口医院,静岡県富士宮市黒田２１５-９,内科　皮膚科　泌尿器科　性感染症内科　泌尿器科（不妊治療）　泌尿器科（人工透析）,,,9" xlink:title="山口医院" transform="ref(svg,13862.0825,-3520.7349)" x="0" y="0"/>
<use xlink:href="#p0" content="2,吉見内科クリニック,静岡県富士宮市万野原新田３１１７-１,内科　循環器内科　糖尿病内科　内分泌内科　脂質代謝内科　腎臓内科　人工透析内科,,,9" xlink:title="吉見内科クリニック" transform="ref(svg,13862.6481,-3524.5137)" x="0" y="0"/>
<use xlink:href="#p0" content="2,米永医院,静岡県富士宮市北町７-５,内科　心療内科　精神科　神経内科　アレルギー科　リウマチ科　皮膚科,,,9" xlink:title="米永医院" transform="ref(svg,13861.3467,-3523.6889)" x="0" y="0"/>
<use xlink:href="#p0" content="2,米山クリニック,静岡県富士宮市中原町１４５,内科　心療内科　精神科　神経内科　耳鼻いんこう科,,,9" xlink:title="米山クリニック" transform="ref(svg,13862.0645,-3524.3789)" x="0" y="0"/>
<use xlink:href="#p0" content="2,ジヤトコ（株）富士宮地区診療所,静岡県富士宮市山宮棚坂３５０７-１６,内科,,,9" xlink:title="ジヤトコ（株）富士宮地区診療所" transform="ref(svg,13864.7778,-3526.881)" x="0" y="0"/>
<use xlink:href="#p0" content="2,テルモ（株）愛鷹工場診療所,静岡県富士宮市舞々木町１５０,内科,,,9" xlink:title="テルモ（株）愛鷹工場診療所" transform="ref(svg,13862.1281,-3524.0096)" x="0" y="0"/>
<use xlink:href="#p0" content="2,テルモ（株）富士宮工場診療所,静岡県富士宮市三園平８１８,内科,,,9" xlink:title="テルモ（株）富士宮工場診療所" transform="ref(svg,13861.3263,-3524.3845)" x="0" y="0"/>
<use xlink:href="#p0" content="2,富士フイルム（株）富士宮工場健康管理室,静岡県富士宮市大中里２００,内科,,,9" xlink:title="富士フイルム（株）富士宮工場健康管理室" transform="ref(svg,13859.1238,-3523.336)" x="0" y="0"/>
<use xlink:href="#p0" content="2,かりんの家医務室,静岡県富士宮市大岩４９３-１,内科,,,9" xlink:title="かりんの家医務室" transform="ref(svg,13863.0664,-3524.7956)" x="0" y="0"/>
<use xlink:href="#p0" content="2,厚生労働省第二（共済）静岡富士病院診療部,静岡県富士宮市上井出８１４,内科　神経内科　呼吸器科　外科　呼吸器外科,,,9" xlink:title="厚生労働省第二（共済）静岡富士病院診療部" transform="ref(svg,13859.55,-3531.2539)" x="0" y="0"/>
<use xlink:href="#p0" content="2,三和荘医務室,静岡県富士宮市北山７４１８-１０,内科,,,9" xlink:title="三和荘医務室" transform="ref(svg,13860.8276,-3530.919)" x="0" y="0"/>
<use xlink:href="#p0" content="2,しらいと診療所,静岡県富士宮市上井出１２８５-１,内科,,,9" xlink:title="しらいと診療所" transform="ref(svg,13859.628,-3531.0226)" x="0" y="0"/>
<use xlink:href="#p0" content="2,（特養）楓の丘施設内診療所,静岡県富士宮市羽鮒２５０５-１,内科,,,9" xlink:title="（特養）楓の丘施設内診療所" transform="ref(svg,13858.2469,-3521.4251)" x="0" y="0"/>
<use xlink:href="#p0" content="2,（特養）高原荘診療所,静岡県富士宮市貫戸１０３-２,内科,,,9" xlink:title="（特養）高原荘診療所" transform="ref(svg,13862.3249,-3520.3673)" x="0" y="0"/>
<use xlink:href="#p0" content="2,（特養）外神陽光園医務室,静岡県富士宮市外神１６３８-１,内科,,,9" xlink:title="（特養）外神陽光園医務室" transform="ref(svg,13859.4609,-3525.7685)" x="0" y="0"/>
<use xlink:href="#p0" content="2,（特養）にしき診療所,静岡県富士宮市錦町１-１０,内科　歯科,,,9" xlink:title="（特養）にしき診療所" transform="ref(svg,13861.3994,-3522.0904)" x="0" y="0"/>
<use xlink:href="#p0" content="2,（特養）富士宮荘診療所,静岡県富士宮市上井出小二田子２０２９-１,内科,,,9" xlink:title="（特養）富士宮荘診療所" transform="ref(svg,13860.7146,-3530.9315)" x="0" y="0"/>
<use xlink:href="#p0" content="2,（特養）星の郷医務室,静岡県富士宮市星山字向原１０５８,内科,,,9" xlink:title="（特養）星の郷医務室" transform="ref(svg,13861.8088,-3520.4333)" x="0" y="0"/>
<use xlink:href="#p0" content="2,（特養）百恵の郷施設内診療所,静岡県富士宮市大鹿窪１４３-１,内科,,,9" xlink:title="（特養）百恵の郷施設内診療所" transform="ref(svg,13855.6695,-3525.3379)" x="0" y="0"/>
<use xlink:href="#p0" content="2,青木クリニック,静岡県富士宮市内房３２１５-５,内科　呼吸器科,,,9" xlink:title="青木クリニック" transform="ref(svg,13855.1288,-3519.8593)" x="0" y="0"/>
<use xlink:href="#p0" content="2,朝霧高原診療所,静岡県富士宮市猪之頭１７７２-２,内科　小児科　皮膚科　漢方内科,,,9" xlink:title="朝霧高原診療所" transform="ref(svg,13857.2839,-3535.8184)" x="0" y="0"/>
<use xlink:href="#p0" content="2,あしざわ医院,静岡県富士宮市弓沢町１３３,内科　循環器科,,,9" xlink:title="あしざわ医院" transform="ref(svg,13862.2454,-3522.1234)" x="0" y="0"/>
<use xlink:href="#p0" content="2,阿南胃腸科外科,静岡県富士宮市小泉２１４５-７,胃腸科　外科　整形外科　皮膚科　肛門科　放射線科,,,9" xlink:title="阿南胃腸科外科" transform="ref(svg,13864.0526,-3521.9452)" x="0" y="0"/>
<use xlink:href="#p0" content="2,安藤眼科医院,静岡県富士宮市神田川町５-１１,眼科,,,9" xlink:title="安藤眼科医院" transform="ref(svg,13860.8796,-3522.1611)" x="0" y="0"/>
<use xlink:href="#p0" content="2,いしかわ皮膚科,静岡県富士宮市北町６-２１,アレルギー科　皮膚科,,,9" xlink:title="いしかわ皮膚科" transform="ref(svg,13861.4851,-3523.6542)" x="0" y="0"/>
<use xlink:href="#p0" content="2,市川胃腸科皮膚科医院,静岡県富士宮市光町１３-１２,胃腸科　外科　皮膚科,,,9" xlink:title="市川胃腸科皮膚科医院" transform="ref(svg,13861.1614,-3523.3456)" x="0" y="0"/>
<use xlink:href="#p0" content="2,いのうえ整形外科クリニック,静岡県富士宮市大岩２７７-７,整形外科　リハビリテーション科　リウマチ科,,,9" xlink:title="いのうえ整形外科クリニック" transform="ref(svg,13863.1731,-3524.8984)" x="0" y="0"/>
<use xlink:href="#p0" content="2,浦野内科クリニック,静岡県富士宮市中原町２１８,内科　消化器科,,,9" xlink:title="浦野内科クリニック" transform="ref(svg,13862.0831,-3524.2414)" x="0" y="0"/>
<use xlink:href="#p0" content="2,おいかわクリニック,静岡県富士宮市小泉１９７５-１９,外科　消化器内科　内視鏡内科　肛門外科,,,9" xlink:title="おいかわクリニック" transform="ref(svg,13863.7986,-3522.5071)" x="0" y="0"/>
<use xlink:href="#p0" content="2,岡村医院,静岡県富士宮市淀平町３６９-１,内科　消化器内科,,,9" xlink:title="岡村医院" transform="ref(svg,13860.7547,-3523.5061)" x="0" y="0"/>
<use xlink:href="#p0" content="2,片桐整形外科,静岡県富士宮市西町２６-９,整形外科　リハビリテーション科,,,9" xlink:title="片桐整形外科" transform="ref(svg,13860.3629,-3522.5192)" x="0" y="0"/>
<use xlink:href="#p0" content="2,北川内科医院,静岡県富士宮市光町１０-１５,内科　小児科,,,9" xlink:title="北川内科医院" transform="ref(svg,13860.9484,-3523.2209)" x="0" y="0"/>
<use xlink:href="#p0" content="2,北山医院,静岡県富士宮市北山２６９５-２,胃腸科　外科,,,9" xlink:title="北山医院" transform="ref(svg,13859.5645,-3529.6628)" x="0" y="0"/>
<use xlink:href="#p0" content="2,きのうち整形外科クリニック,静岡県富士宮市浅間町３-１５,整形外科　リハビリテーション科　麻酔科　ペインクリニック内科,,,9" xlink:title="きのうち整形外科クリニック" transform="ref(svg,13860.9314,-3522.1912)" x="0" y="0"/>
<use xlink:href="#p0" content="2,小久保皮膚科泌尿器科医院,静岡県富士宮市貴船町８-２２,皮膚科　泌尿器科,,,9" xlink:title="小久保皮膚科泌尿器科医院" transform="ref(svg,13860.181,-3522.8547)" x="0" y="0"/>
<use xlink:href="#p0" content="2,さいとう眼科医院,静岡県富士宮市西小泉町３０-３,眼科,,,9" xlink:title="さいとう眼科医院" transform="ref(svg,13862.9434,-3521.9188)" x="0" y="0"/>
<use xlink:href="#p0" content="2,桜田医院,静岡県富士宮市大久保１４-１,内科　小児科　麻酔科,,,9" xlink:title="桜田医院" transform="ref(svg,13856.512,-3520.8121)" x="0" y="0"/>
<use xlink:href="#p0" content="2,さちスキンクリニック,静岡県富士宮市西町２３-２,形成外科　美容外科　皮膚科,,,9" xlink:title="さちスキンクリニック" transform="ref(svg,13860.4628,-3522.6242)" x="0" y="0"/>
<use xlink:href="#p0" content="2,さとうクリニック,静岡県富士宮市中央町１２-３,内科　外科　リハビリテーション科　脳神経外科　脳神経外科,,,9" xlink:title="さとうクリニック" transform="ref(svg,13861.6182,-3522.4026)" x="0" y="0"/>
<use xlink:href="#p0" content="2,佐藤内科医院,静岡県富士宮市羽鮒５８３,内科　小児科　放射線科,,,9" xlink:title="佐藤内科医院" transform="ref(svg,13857.0527,-3520.5804)" x="0" y="0"/>
<use xlink:href="#p0" content="2,佐野内科クリニック,静岡県富士宮市田中町１８５-６,内科　呼吸器科　消化器科　リウマチ科　小児科,,,9" xlink:title="佐野内科クリニック" transform="ref(svg,13861.5892,-3521.5869)" x="0" y="0"/>
<use xlink:href="#p0" content="2,シモタクリニック,静岡県富士宮市前田町１３７-５,内科　外科　呼吸器外科　乳腺外科,,,9" xlink:title="シモタクリニック" transform="ref(svg,13863.0593,-3521.3472)" x="0" y="0"/>
<use xlink:href="#p0" content="2,関医院,静岡県富士宮市万野原新田３１０７-１,内科　消化器科　外科,,,9" xlink:title="関医院" transform="ref(svg,13862.8235,-3524.8694)" x="0" y="0"/>
<use xlink:href="#p0" content="2,竹川医院,静岡県富士宮市上井出１０６,内科　小児科,,,9" xlink:title="竹川医院" transform="ref(svg,13859.4447,-3530.4416)" x="0" y="0"/>
<use xlink:href="#p0" content="2,天神眼科医院,静岡県富士宮市若の宮町３３５,眼科,,,9" xlink:title="天神眼科医院" transform="ref(svg,13861.8303,-3523.1131)" x="0" y="0"/>
<use xlink:href="#p0" content="2,天神整形外科医院,静岡県富士宮市若の宮町３９８,整形外科,,,9" xlink:title="天神整形外科医院" transform="ref(svg,13861.9285,-3523.0689)" x="0" y="0"/>
<use xlink:href="#p0" content="2,戸田眼科医院,静岡県富士宮市宮原１２８-１,眼科,,,9" xlink:title="戸田眼科医院" transform="ref(svg,13861.0266,-3524.8428)" x="0" y="0"/>
<use xlink:href="#p0" content="2,戸塚内科クリニック,静岡県富士宮市中央町１１-１１,内科　消化器科,,,9" xlink:title="戸塚内科クリニック" transform="ref(svg,13861.668,-3522.482)" x="0" y="0"/>
<use xlink:href="#p0" content="2,なかがわ眼科,静岡県富士宮市大岩２７５-１,眼科,,,9" xlink:title="なかがわ眼科" transform="ref(svg,13862.8686,-3524.1424)" x="0" y="0"/>
<use xlink:href="#p0" content="2,南陽堂内科循環器科クリニック,静岡県富士宮市穂波１２-８,内科　循環器科,,,9" xlink:title="南陽堂内科循環器科クリニック" transform="ref(svg,13859.7346,-3523.4137)" x="0" y="0"/>
<use xlink:href="#p0" content="2,野尻こども・ファミリークリニック,静岡県富士宮市宮町５-３０,内科　小児科,,,9" xlink:title="野尻こども・ファミリークリニック" transform="ref(svg,13860.8441,-3522.4265)" x="0" y="0"/>
<use xlink:href="#p0" content="2,平野整形外科,静岡県富士宮市ひばりが丘６５０,整形外科,,,9" xlink:title="平野整形外科" transform="ref(svg,13862.0218,-3523.4519)" x="0" y="0"/>
<use xlink:href="#p0" content="2,ヒロ・クリニック,静岡県富士宮市万野原新田３９２３-２,内科　精神科　神経科,,,9" xlink:title="ヒロ・クリニック" transform="ref(svg,13861.8596,-3524.8655)" x="0" y="0"/>
<use xlink:href="#p0" content="2,富士宮医院,静岡県富士宮市若の宮町３５４,内科　精神科　神経科　循環器科,,,9" xlink:title="富士宮医院" transform="ref(svg,13861.8207,-3523.097)" x="0" y="0"/>
<use xlink:href="#p0" content="2,富士宮ペインクリニック,静岡県富士宮市小泉１５３８-２３,内科　ペインクリニック内科　麻酔科,,,9" xlink:title="富士宮ペインクリニック" transform="ref(svg,13863.7528,-3523.3242)" x="0" y="0"/>
<use xlink:href="#p0" content="2,町田皮膚科クリニック,静岡県富士宮市小泉１９７５-２４,皮膚科,,,9" xlink:title="町田皮膚科クリニック" transform="ref(svg,13863.7583,-3522.4771)" x="0" y="0"/>
<use xlink:href="#p0" content="2,森岡内科医院,静岡県富士宮市野中東町２４６,内科　消化器内科　放射線科　肝臓内科,,,9" xlink:title="森岡内科医院" transform="ref(svg,13860.8852,-3521.4984)" x="0" y="0"/>
<use xlink:href="#p0" content="2,渡辺クリニック,静岡県富士宮市三園平４８８-２,内科　泌尿器科,,,9" xlink:title="渡辺クリニック" transform="ref(svg,13861.1077,-3524.1247)" x="0" y="0"/>
<use xlink:href="#p0" content="2,静岡県富士保健所,静岡県富士市本市場４４１-１,内科　精神科,,,9" xlink:title="静岡県富士保健所" transform="ref(svg,13866.1835,-3515.6593)" x="0" y="0"/>
<use xlink:href="#p0" content="2,富士市保健センター,静岡県富士市本市場４３２-１,内科　小児科　外科　整形外科　産婦人科　歯科,,,9" xlink:title="富士市保健センター" transform="ref(svg,13866.0316,-3515.6674)" x="0" y="0"/>
<use xlink:href="#p0" content="2,富士市立老人ホーム駿河荘診療所,静岡県富士市富士見台５-２-１,内科,,,9" xlink:title="富士市立老人ホーム駿河荘診療所" transform="ref(svg,13871.6365,-3518.0403)" x="0" y="0"/>
<use xlink:href="#p0" content="2,富士市医師会医療センター,静岡県富士市伝法２８５０-３,内科　小児科,,,9" xlink:title="富士市医師会医療センター" transform="ref(svg,13867.4731,-3517.0486)" x="0" y="0"/>
<use xlink:href="#p0" content="2,秋山医院,静岡県富士市富士岡１４５５,内科　外科　皮膚科　消化器内科,,,9" xlink:title="秋山医院" transform="ref(svg,13872.7848,-3516.5362)" x="0" y="0"/>
<use xlink:href="#p0" content="2,秋山小児科医院,静岡県富士市青島町２５４,アレルギー科　小児科　放射線科,,,9" xlink:title="秋山小児科医院" transform="ref(svg,13867.5521,-3515.7725)" x="0" y="0"/>
<use xlink:href="#p0" content="2,阿部眼科医院,静岡県富士市柚木３１４,眼科,,,9" xlink:title="阿部眼科医院" transform="ref(svg,13864.1695,-3515.7449)" x="0" y="0"/>
<use xlink:href="#p0" content="2,飯泉ファミリークリニック,静岡県富士市今泉１-１３-２９,内科　アレルギー科　小児科,,,9" xlink:title="飯泉ファミリークリニック" transform="ref(svg,13869.1843,-3516.3628)" x="0" y="0"/>
<use xlink:href="#p0" content="2,石原クリニック,静岡県富士市今泉２０２２-１２,内科　消化器科　外科,,,9" xlink:title="石原クリニック" transform="ref(svg,13869.012,-3517.1854)" x="0" y="0"/>
<use xlink:href="#p0" content="2,海野眼科医院,静岡県富士市松岡４０２-１６,眼科,,,9" xlink:title="海野眼科医院" transform="ref(svg,13864.0979,-3516.6653)" x="0" y="0"/>
<use xlink:href="#p0" content="2,海野皮フ科医院,静岡県富士市松岡６９５-１,皮膚科,,,9" xlink:title="海野皮フ科医院" transform="ref(svg,13863.8305,-3516.4819)" x="0" y="0"/>
<use xlink:href="#p0" content="2,遠藤クリニック,静岡県富士市神谷５２７-１,内科　小児科　消化器内科　胃腸内科,,,9" xlink:title="遠藤クリニック" transform="ref(svg,13874.2655,-3516.285)" x="0" y="0"/>
<use xlink:href="#p0" content="2,大塚クリニック,静岡県富士市瓜島町８５,眼科　老年内科,,,9" xlink:title="大塚クリニック" transform="ref(svg,13867.1612,-3516.4613)" x="0" y="0"/>
<use xlink:href="#p0" content="2,（医）富岳会小川小児科内科医院,静岡県富士市中野５６８-４,内科　アレルギー科　小児科,,,9" xlink:title="（医）富岳会小川小児科内科医院" transform="ref(svg,13867.8317,-3519.1801)" x="0" y="0"/>
<use xlink:href="#p0" content="2,おぎの整形外科,静岡県富士市厚原１３０６-９,整形外科　リハビリテーション科,,,9" xlink:title="おぎの整形外科" transform="ref(svg,13865.8924,-3519.112)" x="0" y="0"/>
<use xlink:href="#p0" content="2,樫村胃腸科外科,静岡県富士市柚木１６７-３,内科　外科　消化器内科　胃腸内科,,,9" xlink:title="樫村胃腸科外科" transform="ref(svg,13863.7517,-3515.909)" x="0" y="0"/>
<use xlink:href="#p0" content="2,加藤医院,静岡県富士市比奈１６１３,内科　外科　眼科　内分泌内科,,,9" xlink:title="加藤医院" transform="ref(svg,13872.5571,-3516.5085)" x="0" y="0"/>
<use xlink:href="#p0" content="2,加藤医院吉原分院,静岡県富士市中央町１-９-１３,眼科,,,9" xlink:title="加藤医院吉原分院" transform="ref(svg,13868.4656,-3516.0456)" x="0" y="0"/>
<use xlink:href="#p0" content="2,加藤クリニック,静岡県富士市吉原４-１０-１６,内科　眼科,,,9" xlink:title="加藤クリニック" transform="ref(svg,13868.25,-3516.5494)" x="0" y="0"/>
<use xlink:href="#p0" content="2,かわむらこどもクリニック,静岡県富士市米之宮町２１１,内科　アレルギー科　小児科　皮膚科,,,9" xlink:title="かわむらこどもクリニック" transform="ref(svg,13865.6021,-3516.4919)" x="0" y="0"/>
<use xlink:href="#p0" content="2,源太坂クリニック,静岡県富士市今泉９-７-８,内科　呼吸器科　循環器科　小児科　放射線科,,,9" xlink:title="源太坂クリニック" transform="ref(svg,13868.4935,-3517.0758)" x="0" y="0"/>
<use xlink:href="#p0" content="2,小松クリニック,静岡県富士市伝法１９８９-６６,糖尿病内科　内分泌内科　脂質代謝内科,,,9" xlink:title="小松クリニック" transform="ref(svg,13868.0576,-3517.3716)" x="0" y="0"/>
<use xlink:href="#p0" content="2,小森眼科クリニック,静岡県富士市伝法５６４-４,眼科,,,9" xlink:title="小森眼科クリニック" transform="ref(svg,13867.4339,-3518.5354)" x="0" y="0"/>
<use xlink:href="#p0" content="2,柵山産婦人科医院,静岡県富士市厚原１３８７-２,産婦人科,,,9" xlink:title="柵山産婦人科医院" transform="ref(svg,13865.502,-3519.2845)" x="0" y="0"/>
<use xlink:href="#p0" content="2,さくらが丘クリニック,静岡県富士市中野５２７-２７,内科　小児科　呼吸器内科　循環器内科　消化器内科,,,9" xlink:title="さくらが丘クリニック" transform="ref(svg,13868.2874,-3519.0747)" x="0" y="0"/>
<use xlink:href="#p0" content="2,清水内科医院,静岡県富士市比奈１２９６-１１,内科　アレルギー科,,,9" xlink:title="清水内科医院" transform="ref(svg,13872.095,-3516.5961)" x="0" y="0"/>
<use xlink:href="#p0" content="2,鈴木医院,静岡県富士市松本３１３-２５,内科　胃腸科　外科　こう門科　リハビリテーション科,,,9" xlink:title="鈴木医院" transform="ref(svg,13864.4921,-3517.5364)" x="0" y="0"/>
<use xlink:href="#p0" content="2,鈴木整形外科医院,静岡県富士市宇東川東町２-５,外科　整形外科　皮膚科　リハビリテーション科,,,9" xlink:title="鈴木整形外科医院" transform="ref(svg,13870.3631,-3516.6757)" x="0" y="0"/>
<use xlink:href="#p0" content="2,鈴木内科医院,静岡県富士市伝法３０７５-１,内科　呼吸器科　循環器科,,,9" xlink:title="鈴木内科医院" transform="ref(svg,13867.3123,-3516.7038)" x="0" y="0"/>
<use xlink:href="#p0" content="2,瀬尾小児科内科医院,静岡県富士市八幡町４-３３,内科　アレルギー　小児科,,,9" xlink:title="瀬尾小児科内科医院" transform="ref(svg,13865.1136,-3516.0254)" x="0" y="0"/>
<use xlink:href="#p0" content="2,たかいクリニック,静岡県富士市高嶺町４-１０,内科　外科　皮膚科　泌尿器科　リハビリテーション科,,,9" xlink:title="たかいクリニック" transform="ref(svg,13868.1639,-3515.6489)" x="0" y="0"/>
<use xlink:href="#p0" content="2,田辺整形外科医院,静岡県富士市本市場町１００２,整形外科　形成外科　リハビリテーション科,,,9" xlink:title="田辺整形外科医院" transform="ref(svg,13865.7519,-3515.925)" x="0" y="0"/>
<use xlink:href="#p0" content="2,たむらレディースクリニック,静岡県富士市米之宮町２５０,産科　婦人科,,,9" xlink:title="たむらレディースクリニック" transform="ref(svg,13865.704,-3516.599)" x="0" y="0"/>
<use xlink:href="#p0" content="2,月岡医院,静岡県富士市国久保２-７-７,内科　小児科　皮膚科　消化器内科　胃腸内科　内視鏡内科,,,9" xlink:title="月岡医院" transform="ref(svg,13868.1325,-3517.0516)" x="0" y="0"/>
<use xlink:href="#p0" content="2,天間クリニック,静岡県富士市天間６９-１,内科　呼吸器科　消化器科　循環器科　アレルギー科　小児科,,,9" xlink:title="天間クリニック" transform="ref(svg,13863.5216,-3519.9443)" x="0" y="0"/>
<use xlink:href="#p0" content="2,東名富士クリニック,静岡県富士市伝法１７７-１,内科　心療内科　精神科　循環器内科　腎臓内科（人工透析）,,,9" xlink:title="東名富士クリニック" transform="ref(svg,13867.8915,-3518.0968)" x="0" y="0"/>
<use xlink:href="#p0" content="2,なかじま眼科,静岡県富士市入山瀬９５５-５,眼科・麻酔科,,,9" xlink:title="なかじま眼科" transform="ref(svg,13864.931,-3520.4768)" x="0" y="0"/>
<use xlink:href="#p0" content="2,中島産婦人科医院,静岡県富士市青島町１６０,産婦人科,,,9" xlink:title="中島産婦人科医院" transform="ref(svg,13867.6239,-3515.906)" x="0" y="0"/>
<use xlink:href="#p0" content="2,中西眼科クリニック,静岡県富士市中野４２９-８,眼科,,,9" xlink:title="中西眼科クリニック" transform="ref(svg,13868.0752,-3519.7064)" x="0" y="0"/>
<use xlink:href="#p0" content="2,（医）弘仁会中根クリニック,静岡県富士市一色４９５-１,内科　胃腸科　外科　皮膚科　こう門科,,,9" xlink:title="（医）弘仁会中根クリニック" transform="ref(svg,13870.5144,-3518.7382)" x="0" y="0"/>
<use xlink:href="#p0" content="2,長野医院,静岡県富士市柚木２４２-１,眼科,,,9" xlink:title="長野医院" transform="ref(svg,13863.7674,-3515.6972)" x="0" y="0"/>
<use xlink:href="#p0" content="2,中山医院,静岡県富士市浅間本町１-４３,内科　小児科,,,9" xlink:title="中山医院" transform="ref(svg,13867.9638,-3516.6085)" x="0" y="0"/>
<use xlink:href="#p0" content="2,花崎眼科医院,静岡県富士市青葉町３８,眼科,,,9" xlink:title="花崎眼科医院" transform="ref(svg,13866.3784,-3515.9527)" x="0" y="0"/>
<use xlink:href="#p0" content="2,広見医院,静岡県富士市大渕３９-１,内科　精神科　小児科　リハビリテーション科,,,9" xlink:title="広見医院" transform="ref(svg,13868.9281,-3518.7033)" x="0" y="0"/>
<use xlink:href="#p0" content="2,藤井整形外科医院,静岡県富士市松岡１１２９,外科　整形外科　リハビリテーション科,,,9" xlink:title="藤井整形外科医院" transform="ref(svg,13864.0802,-3515.6494)" x="0" y="0"/>
<use xlink:href="#p0" content="2,富士健診センター,静岡県富士市柚木３９２-５,内科　胃腸科　循環器科　外科　婦人科　放射線科,,,9" xlink:title="富士健診センター" transform="ref(svg,13864.5804,-3515.7356)" x="0" y="0"/>
<use xlink:href="#p0" content="2,富士第一クリニック,静岡県富士市日乃出町４７,内科,,,9" xlink:title="富士第一クリニック" transform="ref(svg,13866.7986,-3516.397)" x="0" y="0"/>
<use xlink:href="#p0" content="2,三日市整形外科,静岡県富士市浅間本町３-２２,整形外科　リハビリテーション科,,,9" xlink:title="三日市整形外科" transform="ref(svg,13867.5933,-3516.6427)" x="0" y="0"/>
<use xlink:href="#p0" content="2,（医）正秀会三村クリニック,静岡県富士市永田町２-６０,内科　消化器科　胃腸科　外科　肛門科　放射線科,,,9" xlink:title="（医）正秀会三村クリニック" transform="ref(svg,13867.0854,-3516.3966)" x="0" y="0"/>
<use xlink:href="#p0" content="2,宮-ｱクリニック,静岡県富士市松岡３００-１５,内科　消化器内科　小児科　産婦人科,,,9" xlink:title="宮-ｱクリニック" transform="ref(svg,13864.4214,-3517.0136)" x="0" y="0"/>
<use xlink:href="#p0" content="2,山田医院,静岡県富士市中央町１-２-６,内科,,,9" xlink:title="山田医院" transform="ref(svg,13868.4921,-3516.223)" x="0" y="0"/>
<use xlink:href="#p0" content="2,（医）雄大会よねやま耳鼻科医院,静岡県富士市永田町１-１３２-１,耳鼻いんこう科,,,9" xlink:title="（医）雄大会よねやま耳鼻科医院" transform="ref(svg,13867.4395,-3516.1771)" x="0" y="0"/>
<use xlink:href="#p0" content="2,ロゼにじいろクリニック,静岡県富士市蓼原町１６０５,心療内科　精神科,,,9" xlink:title="ロゼにじいろクリニック" transform="ref(svg,13866.7332,-3515.7516)" x="0" y="0"/>
<use xlink:href="#p0" content="2,ジヤトコ（株）富士第１地区診療所,静岡県富士市吉原宝町１-１,内科,,,9" xlink:title="ジヤトコ（株）富士第１地区診療所" transform="ref(svg,13869.349,-3515.7368)" x="0" y="0"/>
<use xlink:href="#p0" content="2,日本製紙（株）板紙事業本部吉永工場診療所,静岡県富士市比奈７９８,内科,,,9" xlink:title="日本製紙（株）板紙事業本部吉永工場診療所" transform="ref(svg,13871.0241,-3516.2057)" x="0" y="0"/>
<use xlink:href="#p0" content="2,トッパングループ（健保）富士診療所,静岡県富士市天間４００Ｄ地区管理棟,内科,,,9" xlink:title="トッパングループ（健保）富士診療所" transform="ref(svg,13864.0415,-3520.1108)" x="0" y="0"/>
<use xlink:href="#p0" content="2,（特養）岩本園診療所,静岡県富士市岩本１１８４-１,内科　外科,,,9" xlink:title="（特養）岩本園診療所" transform="ref(svg,13863.2826,-3518.0054)" x="0" y="0"/>
<use xlink:href="#p0" content="2,ヴィラージュ富士診療所,静岡県富士市厚原３５９-８,内科,,,9" xlink:title="ヴィラージュ富士診療所" transform="ref(svg,13865.7069,-3518.0227)" x="0" y="0"/>
<use xlink:href="#p0" content="2,（特養）鑑石園施設内診療所,静岡県富士市原田１３５０-１６,内科,,,9" xlink:title="（特養）鑑石園施設内診療所" transform="ref(svg,13871.3585,-3517.1787)" x="0" y="0"/>
<use xlink:href="#p0" content="2,きぼうの里医務室,静岡県富士市大渕１４２８３-１,内科,,,9" xlink:title="きぼうの里医務室" transform="ref(svg,13868.5251,-3523.0158)" x="0" y="0"/>
<use xlink:href="#p0" content="2,くぬぎの里医務室,静岡県富士市大渕１４２８２-１,内科,,,9" xlink:title="くぬぎの里医務室" transform="ref(svg,13868.4445,-3522.966)" x="0" y="0"/>
<use xlink:href="#p0" content="2,（特養）シャローム富士川診療所,静岡県富士市北松野１０７１,内科,,,9" xlink:title="（特養）シャローム富士川診療所" transform="ref(svg,13858.7758,-3518.9204)" x="0" y="0"/>
<use xlink:href="#p0" content="2,（特養）すどの杜診療所,静岡県富士市増川５１０-１,内科,,,9" xlink:title="（特養）すどの杜診療所" transform="ref(svg,13874.6932,-3515.8444)" x="0" y="0"/>
<use xlink:href="#p0" content="2,（特養）天間荘施設内診療所,静岡県富士市天間１６０２,内科　精神科　神経科,,,9" xlink:title="（特養）天間荘施設内診療所" transform="ref(svg,13864.8092,-3520.6621)" x="0" y="0"/>
<use xlink:href="#p0" content="2,（福）誠信会富士本診療所,静岡県富士市大渕４６３２-１,内科,,,9" xlink:title="（福）誠信会富士本診療所" transform="ref(svg,13871.8925,-3525.3871)" x="0" y="0"/>
<use xlink:href="#p0" content="2,（特養）富士まかど診療所,静岡県富士市間門２２６-１,内科　外科,,,9" xlink:title="（特養）富士まかど診療所" transform="ref(svg,13872.4286,-3518.7224)" x="0" y="0"/>
<use xlink:href="#p0" content="2,（特養）松野の里診療所,静岡県富士市南松野２６０４-１,内科,,,9" xlink:title="（特養）松野の里診療所" transform="ref(svg,13860.1081,-3518.1905)" x="0" y="0"/>
<use xlink:href="#p0" content="2,（特養）みぎわ園施設内診療所,静岡県富士市今泉２２１０,内科　精神科,,,9" xlink:title="（特養）みぎわ園施設内診療所" transform="ref(svg,13868.6175,-3517.2372)" x="0" y="0"/>
<use xlink:href="#p0" content="2,青葉クリニック,静岡県富士市一色１２８-１,内科　小児科　リハビリテーション科,,,9" xlink:title="青葉クリニック" transform="ref(svg,13869.6264,-3518.5378)" x="0" y="0"/>
<use xlink:href="#p0" content="2,朝岡眼科医院,静岡県富士市今泉３-１０-５,眼科,,,9" xlink:title="朝岡眼科医院" transform="ref(svg,13869.6804,-3516.7303)" x="0" y="0"/>
<use xlink:href="#p0" content="2,荒井整形外科医院,静岡県富士市本市場新田６１-９,リウマチ科　整形外科　リハビリテーション科　麻酔科,,,9" xlink:title="荒井整形外科医院" transform="ref(svg,13865.3947,-3516.8685)" x="0" y="0"/>
<use xlink:href="#p0" content="2,安藤内科外科医院,静岡県富士市久沢８３４,内科　消化器科　小児科　外科　肛門科　放射線科,,,9" xlink:title="安藤内科外科医院" transform="ref(svg,13865.0032,-3519.6027)" x="0" y="0"/>
<use xlink:href="#p0" content="2,池田産婦人科医院,静岡県富士市石坂４１５-１５,産婦人科,,,9" xlink:title="池田産婦人科医院" transform="ref(svg,13868.2367,-3518.2475)" x="0" y="0"/>
<use xlink:href="#p0" content="2,犬塚内科医院,静岡県富士市富士見台６-３-３,内科　小児科　放射線科,,,9" xlink:title="犬塚内科医院" transform="ref(svg,13871.3991,-3518.2434)" x="0" y="0"/>
<use xlink:href="#p0" content="2,岩科内科医院,静岡県富士市本市場町１０６０,内科　小児科,,,9" xlink:title="岩科内科医院" transform="ref(svg,13865.7512,-3515.7165)" x="0" y="0"/>
<use xlink:href="#p0" content="2,上田クリニック,静岡県富士市荒田島９-２４,外科　泌尿器科,,,9" xlink:title="上田クリニック" transform="ref(svg,13868.7969,-3515.8102)" x="0" y="0"/>
<use xlink:href="#p0" content="2,遠藤内科医院,静岡県富士市緑町２-１２,内科　呼吸器科　循環器科　アレルギー科,,,9" xlink:title="遠藤内科医院" transform="ref(svg,13868.3496,-3515.8787)" x="0" y="0"/>
<use xlink:href="#p0" content="2,勝又医院,静岡県富士市荒田島町６-１,内科　循環器科　小児科,,,9" xlink:title="勝又医院" transform="ref(svg,13868.4634,-3515.6997)" x="0" y="0"/>
<use xlink:href="#p0" content="2,かみで耳鼻咽喉科クリニック,静岡県富士市伝法２４３３-４,耳鼻いんこう科　気管食道科,,,9" xlink:title="かみで耳鼻咽喉科クリニック" transform="ref(svg,13867.5274,-3517.3379)" x="0" y="0"/>
<use xlink:href="#p0" content="2,川上内科医院,静岡県富士市今泉３-１０-５,内科　リハビリテーション科,,,9" xlink:title="川上内科医院" transform="ref(svg,13869.6804,-3516.7303)" x="0" y="0"/>
<use xlink:href="#p0" content="2,キタザトクリニック,静岡県富士市厚原１９４１-３,内科　消化器科　外科　こう門科,,,9" xlink:title="キタザトクリニック" transform="ref(svg,13866.3106,-3519.0244)" x="0" y="0"/>
<use xlink:href="#p0" content="2,久保田内科クリニック,静岡県富士市五味島２７６-２,内科　小児科　胃腸内科,,,9" xlink:title="久保田内科クリニック" transform="ref(svg,13865.5531,-3516.6119)" x="0" y="0"/>
<use xlink:href="#p0" content="2,窪田レディースクリニック,静岡県富士市平垣１００-６,内科　産婦人科,,,9" xlink:title="窪田レディースクリニック" transform="ref(svg,13865.1691,-3516.0754)" x="0" y="0"/>
<use xlink:href="#p0" content="2,幸治小児科医院,静岡県富士市鷹岡本町４-３０,小児科,,,9" xlink:title="幸治小児科医院" transform="ref(svg,13864.7009,-3518.5019)" x="0" y="0"/>
<use xlink:href="#p0" content="2,里和耳鼻咽喉科医院,静岡県富士市伝法１４６,耳鼻いんこう科,,,9" xlink:title="里和耳鼻咽喉科医院" transform="ref(svg,13867.9598,-3518.1527)" x="0" y="0"/>
<use xlink:href="#p0" content="2,佐野胃腸科外科医院,静岡県富士市中野２５８-４,内科　消化器科　胃腸科　外科　整形外科　こう門科　放射線科,,,9" xlink:title="佐野胃腸科外科医院" transform="ref(svg,13868.1959,-3520.3151)" x="0" y="0"/>
<use xlink:href="#p0" content="2,佐野整形外科医院,静岡県富士市天間１３４９-６,整形外科　リハビリテーション科,,,9" xlink:title="佐野整形外科医院" transform="ref(svg,13864.351,-3520.2847)" x="0" y="0"/>
<use xlink:href="#p0" content="2,せきクリニック,静岡県富士市伝法６５６-１,内科　胃腸科　外科　こう門科,,,9" xlink:title="せきクリニック" transform="ref(svg,13867.0342,-3518.6081)" x="0" y="0"/>
<use xlink:href="#p0" content="2,善得クリニック,静岡県富士市今泉５-１３-１１,耳鼻いんこう科,,,9" xlink:title="善得クリニック" transform="ref(svg,13869.6097,-3516.98)" x="0" y="0"/>
<use xlink:href="#p0" content="2,高木内科循環器科医院,静岡県富士市中里９３４-４０,内科　循環器科,,,9" xlink:title="高木内科循環器科医院" transform="ref(svg,13873.8625,-3515.9419)" x="0" y="0"/>
<use xlink:href="#p0" content="2,中央公園クリニック,静岡県富士市平垣本町１３-１５,心療内科　精神科,,,9" xlink:title="中央公園クリニック" transform="ref(svg,13865.0661,-3515.6743)" x="0" y="0"/>
<use xlink:href="#p0" content="2,土屋医院,静岡県富士市吉原３-１０-１０,内科　小児科,,,9" xlink:title="土屋医院" transform="ref(svg,13868.5893,-3516.4883)" x="0" y="0"/>
<use xlink:href="#p0" content="2,つちや耳鼻咽喉科医院,静岡県富士市厚原５８９-３,アレルギー科　耳鼻いんこう科,,,9" xlink:title="つちや耳鼻咽喉科医院" transform="ref(svg,13866.0941,-3518.6409)" x="0" y="0"/>
<use xlink:href="#p0" content="2,寺元医院,静岡県富士市浅間本町１１-１,内科　外科　皮膚科　泌尿器科,,,9" xlink:title="寺元医院" transform="ref(svg,13867.8484,-3516.6849)" x="0" y="0"/>
<use xlink:href="#p0" content="2,トータルファミリーケア北西医院,静岡県富士市本市場１４８-１,内科　心療内科　小児科　整形外科　皮膚科　婦人科,,,9" xlink:title="トータルファミリーケア北西医院" transform="ref(svg,13865.378,-3515.7432)" x="0" y="0"/>
<use xlink:href="#p0" content="2,富子医院,静岡県富士市原田１２７２-１４,小児科,,,9" xlink:title="富子医院" transform="ref(svg,13871.2931,-3516.7279)" x="0" y="0"/>
<use xlink:href="#p0" content="2,中西小児科クリニック,静岡県富士市中野４２９-８,小児科,,,9" xlink:title="中西小児科クリニック" transform="ref(svg,13868.0752,-3519.7064)" x="0" y="0"/>
<use xlink:href="#p0" content="2,長谷川産婦人科医院,静岡県富士市吉原５-３-１８,産婦人科,,,9" xlink:title="長谷川産婦人科医院" transform="ref(svg,13868.0014,-3516.5807)" x="0" y="0"/>
<use xlink:href="#p0" content="2,長谷川耳鼻咽喉科医院,静岡県富士市浅間本町１-４９,耳鼻いんこう科,,,9" xlink:title="長谷川耳鼻咽喉科医院" transform="ref(svg,13867.937,-3516.5897)" x="0" y="0"/>
<use xlink:href="#p0" content="2,原内科クリニック,静岡県富士市松岡６７６-１,内科,,,9" xlink:title="原内科クリニック" transform="ref(svg,13863.7088,-3516.3868)" x="0" y="0"/>
<use xlink:href="#p0" content="2,秀村外科内科医院,静岡県富士市北松野１３２８-６,内科　外科,,,9" xlink:title="秀村外科内科医院" transform="ref(svg,13858.9544,-3518.6721)" x="0" y="0"/>
<use xlink:href="#p0" content="2,日乃出ごとう内科クリニック,静岡県富士市日乃出町１８０,内科　腎臓内科,,,9" xlink:title="日乃出ごとう内科クリニック" transform="ref(svg,13866.7776,-3516.2564)" x="0" y="0"/>
<use xlink:href="#p0" content="2,平野医院,静岡県富士市厚原６４,内科　外科　内科（循環器）　消化器外科　外科（内視鏡）,,,9" xlink:title="平野医院" transform="ref(svg,13865.4011,-3518.774)" x="0" y="0"/>
<use xlink:href="#p0" content="2,広川内科クリニック,静岡県富士市今泉３１２０-３,内科　消化器内科,,,9" xlink:title="広川内科クリニック" transform="ref(svg,13869.6633,-3517.9758)" x="0" y="0"/>
<use xlink:href="#p0" content="2,富士クリニック,静岡県富士市本市場４８８,眼科,,,9" xlink:title="富士クリニック" transform="ref(svg,13865.6524,-3516.0102)" x="0" y="0"/>
<use xlink:href="#p0" content="2,富士レディースクリニック,静岡県富士市原田２２５４-１,産科　婦人科,,,9" xlink:title="富士レディースクリニック" transform="ref(svg,13871.9326,-3518.6785)" x="0" y="0"/>
<use xlink:href="#p0" content="2,北條整形外科医院,静岡県富士市依田原町８-１,内科　整形外科,,,9" xlink:title="北條整形外科医院" transform="ref(svg,13868.9373,-3515.9958)" x="0" y="0"/>
<use xlink:href="#p0" content="2,前田整形外科医院,静岡県富士市一色２１８-４,整形外科　リハビリテーション科　放射線科,,,9" xlink:title="前田整形外科医院" transform="ref(svg,13869.1226,-3518.635)" x="0" y="0"/>
<use xlink:href="#p0" content="2,松野こどもクリニック,静岡県富士市南松野２６８４-６,小児科,,,9" xlink:title="松野こどもクリニック" transform="ref(svg,13860.0164,-3518.5029)" x="0" y="0"/>
<use xlink:href="#p0" content="2,みやかわ内科・外科クリニック,静岡県富士市広見本町２-４０,内科　リハビリテーション科　消化器外科,,,9" xlink:title="みやかわ内科・外科クリニック" transform="ref(svg,13868.6485,-3518.5934)" x="0" y="0"/>
<use xlink:href="#p0" content="2,望月医院,静岡県富士市厚原７５５-４,内科　循環器科　小児科,,,9" xlink:title="望月医院" transform="ref(svg,13865.755,-3518.8979)" x="0" y="0"/>
<use xlink:href="#p0" content="2,望月産婦人科医院,静岡県富士市比奈１-８５６,内科　産婦人科　産婦人科（生殖医療）,,,9" xlink:title="望月産婦人科医院" transform="ref(svg,13871.2428,-3516.5879)" x="0" y="0"/>
<use xlink:href="#p0" content="2,柳沢クリニック,静岡県富士市伝法５７４-７,内科　外科　泌尿器科　放射線科,,,9" xlink:title="柳沢クリニック" transform="ref(svg,13867.478,-3518.6419)" x="0" y="0"/>
<use xlink:href="#p0" content="2,山崎医院,静岡県富士市厚原溝上６７５-３,内科　胃腸科　外科,,,9" xlink:title="山崎医院" transform="ref(svg,13865.9799,-3518.6192)" x="0" y="0"/>
<use xlink:href="#p0" content="2,山城メディカルクリニック,静岡県富士市松本字砂田５１-１３,内科　外科　胃腸内科　大腸・肛門外科,,,9" xlink:title="山城メディカルクリニック" transform="ref(svg,13864.9444,-3516.8217)" x="0" y="0"/>
<use xlink:href="#p0" content="2,山本康孝循環器内科・内科クリニック,静岡県富士市今泉５-１２-１５,内科　循環器内科,,,9" xlink:title="山本康孝循環器内科・内科クリニック" transform="ref(svg,13869.4624,-3516.9359)" x="0" y="0"/>
<use xlink:href="#p0" content="2,吉見整形外科,静岡県富士市増川４４４-１２,整形外科　リハビリテーション科,,,9" xlink:title="吉見整形外科" transform="ref(svg,13874.81,-3515.6379)" x="0" y="0"/>
<use xlink:href="#p0" content="2,よねのみやクリニック,静岡県富士市米之宮町１３８,心療内科　精神科,,,9" xlink:title="よねのみやクリニック" transform="ref(svg,13865.6927,-3516.3182)" x="0" y="0"/>
<use xlink:href="#p0" content="2,米本皮フ科医院,静岡県富士市瓜島町３２,皮膚科,,,9" xlink:title="米本皮フ科医院" transform="ref(svg,13867.2831,-3516.6061)" x="0" y="0"/>
<use xlink:href="#p0" content="2,ロゼレディースクリニック,静岡県富士市蓼原町１６３０,内科　婦人科,,,9" xlink:title="ロゼレディースクリニック" transform="ref(svg,13866.6841,-3515.8223)" x="0" y="0"/>
<use xlink:href="#p0" content="2,渡辺医院,静岡県富士市吉原５-１-１５,内科　胃腸科　小児科　外科,,,9" xlink:title="渡辺医院" transform="ref(svg,13868.1913,-3516.4834)" x="0" y="0"/>
<use xlink:href="#p0" content="2,渡辺クリニック,静岡県富士市原田２２４８,内科　小児科　眼科,,,9" xlink:title="渡辺クリニック" transform="ref(svg,13871.8359,-3518.6674)" x="0" y="0"/>
<use xlink:href="#p0" content="2,わたなべ耳鼻咽喉科医院,静岡県富士市松岡４０８-５,耳鼻いんこう科,,,9" xlink:title="わたなべ耳鼻咽喉科医院" transform="ref(svg,13863.9292,-3516.6023)" x="0" y="0"/>
</g>
</svg>
