<?xml version="1.0" encoding="UTF-8"?>
<svg  xmlns="http://www.w3.org/2000/svg" xmlns:xlink="http://www.w3.org/1999/xlink" xmlns:go="http://purl.org/svgmap/profile" property="医療機関分類,施設名称,所在地,診療科目１,診療科目２,診療科目３,開設者分類" viewBox="13539.55078125 -3480.46875 4.39453125 4.39453125" go:dataArea="13539.55078125 -3480.46875 4.39453125 4.39453125" >
<metadata>
 <rdf:RDF xmlns:rdf="http://www.w3.org/1999/02/22-rdf-syntax-ns#" xmlns:crs="http://opengis.org/xmldtds/transformations.dtd" xmlns:svg="http://www.w3.org/svg" >
  <rdf:Description>
   <crs:CoordinateReferenceSystem rdf:resource="http://purl.org/crs/84" svg:transform="matrix(100.0,0.0,0.0,-100.0,0.0,0.0)" />
  </rdf:Description>
 </rdf:RDF>
</metadata>
<globalCoordinateSystem srsName="http://purl.org/crs/84" transform="matrix(100.0,0.0,0.0,-100.0,0.0,0.0)" />
<defs>
 <g id="p0" >
  <image xlink:href="mappin.png" preserveAspectRatio="none" x="-8" y="-25" width="19" height="27"/>
 </g>
 <g id="p1" >
  <image xlink:href="mappin1.png" preserveAspectRatio="none" x="-8" y="-25" width="19" height="27"/>
 </g>
 <g id="p2" >
  <image xlink:href="mappin2.png" preserveAspectRatio="none" x="-8" y="-25" width="19" height="27"/>
 </g>
 <g id="p3" >
  <image xlink:href="mappin3.png" preserveAspectRatio="none" x="-8" y="-25" width="19" height="27"/>
 </g>
 <g id="p4" >
  <image xlink:href="mappin4.png" preserveAspectRatio="none" x="-8" y="-25" width="19" height="27"/>
 </g>
 <g id="p5" >
  <image xlink:href="mappin5.png" preserveAspectRatio="none" x="-8" y="-25" width="19" height="27"/>
 </g>
 <g id="p6" >
  <image xlink:href="mappin6.png" preserveAspectRatio="none" x="-8" y="-25" width="19" height="27"/>
 </g>
 <g id="p7" >
  <image xlink:href="mappin7.png" preserveAspectRatio="none" x="-8" y="-25" width="19" height="27"/>
 </g>
 <g id="p8" >
  <image xlink:href="mappin8.png" preserveAspectRatio="none" x="-8" y="-25" width="19" height="27"/>
 </g>
 <g id="p9" >
  <image xlink:href="mappin9.png" preserveAspectRatio="none" x="-8" y="-25" width="19" height="27"/>
 </g>
</defs>
<g fill="green" fill-rule="evenodd" >
<use xlink:href="#p0" content="2,（医）幸雅会中西クリニック,大阪府池田市住吉１-４-１,内科　循環器科,,,9" xlink:title="（医）幸雅会中西クリニック" transform="ref(svg,13543.9152,-3480.3955)" x="0" y="0"/>
<use xlink:href="#p0" content="2,朝比奈外科,兵庫県伊丹市稲野町３-１３,外科　胃腸科　放射線科,,,9" xlink:title="朝比奈外科" transform="ref(svg,13541.4835,-3476.4161)" x="0" y="0"/>
<use xlink:href="#p0" content="2,いけざわレディースクリニック,兵庫県伊丹市西台１-２-１１Ｃ-３ビル１Ｆ,産婦人科　内科　理学診療科,,,9" xlink:title="いけざわレディースクリニック" transform="ref(svg,13541.2002,-3478.1154)" x="0" y="0"/>
<use xlink:href="#p0" content="2,池田クリニック,兵庫県伊丹市車塚１-３２-７,内科,,,9" xlink:title="池田クリニック" transform="ref(svg,13540.1111,-3476.4641)" x="0" y="0"/>
<use xlink:href="#p0" content="2,いちやま整形外科,兵庫県伊丹市梅ノ木２-３-３０,整形外科　リウマチ科　リハビリテーション科,,,9" xlink:title="いちやま整形外科" transform="ref(svg,13541.4775,-3477.237)" x="0" y="0"/>
<use xlink:href="#p0" content="2,伊丹市休日応急診療所,兵庫県伊丹市千僧１-１伊丹市役所内,内科　小児科,,,9" xlink:title="伊丹市休日応急診療所" transform="ref(svg,13540.166,-3478.4165)" x="0" y="0"/>
<use xlink:href="#p0" content="2,伊丹市立きぼう園診療所,兵庫県伊丹市昆陽池１-４５,小児科　小児科　整形外科,,,9" xlink:title="伊丹市立きぼう園診療所" transform="ref(svg,13539.6867,-3478.4806)" x="0" y="0"/>
<use xlink:href="#p0" content="2,伊丹大野診療所,兵庫県伊丹市大野１-３-２,内科　リハビリテーション科,,,9" xlink:title="伊丹大野診療所" transform="ref(svg,13540.1216,-3480.4573)" x="0" y="0"/>
<use xlink:href="#p0" content="2,伊丹中央眼科,兵庫県伊丹市中央１-５-１,眼科,,,9" xlink:title="伊丹中央眼科" transform="ref(svg,13541.4168,-3478.0295)" x="0" y="0"/>
<use xlink:href="#p0" content="2,伊丹中央町クリニック,兵庫県伊丹市中央３-２-６,内科,,,9" xlink:title="伊丹中央町クリニック" transform="ref(svg,13541.6505,-3478.1294)" x="0" y="0"/>
<use xlink:href="#p0" content="2,稲垣クリニック,兵庫県伊丹市瑞穂町６-４４イーストバリィ１Ｆ,内科　循環器内科　漢方内科,,,9" xlink:title="稲垣クリニック" transform="ref(svg,13540.1953,-3479.1802)" x="0" y="0"/>
<use xlink:href="#p0" content="2,（医）あいぜん会あいぜん伊丹クリニック,兵庫県伊丹市堀池３-９-２５廣野ビル１Ｆ,内科,,,9" xlink:title="（医）あいぜん会あいぜん伊丹クリニック" transform="ref(svg,13539.6733,-3477.17)" x="0" y="0"/>
<use xlink:href="#p0" content="2,上田皮膚科,兵庫県伊丹市緑ケ丘６-２３-２,皮膚科,,,9" xlink:title="上田皮膚科" transform="ref(svg,13540.4214,-3480.0155)" x="0" y="0"/>
<use xlink:href="#p0" content="2,梅谷内科クリニック,兵庫県伊丹市森本２-２６４-１４,内科　胃腸科　放射線科　精神科　小児科,,,9" xlink:title="梅谷内科クリニック" transform="ref(svg,13543.0901,-3477.9871)" x="0" y="0"/>
<use xlink:href="#p0" content="2,梅田皮膚科クリニック,兵庫県伊丹市船原２-２-３,皮膚科　美容外科　形成外科,,,9" xlink:title="梅田皮膚科クリニック" transform="ref(svg,13541.1089,-3478.1519)" x="0" y="0"/>
<use xlink:href="#p0" content="2,オアシス千歳診療所,兵庫県伊丹市中央４-５-６,内科,,,9" xlink:title="オアシス千歳診療所" transform="ref(svg,13541.5795,-3477.8276)" x="0" y="0"/>
<use xlink:href="#p0" content="2,小山医院,兵庫県伊丹市桜ケ丘７-１-７,内科　小児科,,,9" xlink:title="小山医院" transform="ref(svg,13540.8009,-3478.6157)" x="0" y="0"/>
<use xlink:href="#p0" content="2,小川医院,兵庫県伊丹市春日丘４-５３,内科　胃腸科　小児科　放射線科,,,9" xlink:title="小川医院" transform="ref(svg,13541.5176,-3478.8475)" x="0" y="0"/>
<use xlink:href="#p0" content="2,小沢眼科,兵庫県伊丹市稲野町３-３,眼科,,,9" xlink:title="小沢眼科" transform="ref(svg,13541.5335,-3476.4411)" x="0" y="0"/>
<use xlink:href="#p0" content="2,太田ひふ科クリニック,兵庫県伊丹市中央１-４-４塩井ビル１Ｆ,皮膚科　アレルギー科　形成外科,,,9" xlink:title="太田ひふ科クリニック" transform="ref(svg,13541.3928,-3478.0592)" x="0" y="0"/>
<use xlink:href="#p0" content="2,太田外科診療所,兵庫県伊丹市南本町４-２-１０,外科　整形外科　胃腸科　脳神経外科　皮膚科　肛門科　物理療法　性病科,,,9" xlink:title="太田外科診療所" transform="ref(svg,13541.8645,-3477.2877)" x="0" y="0"/>
<use xlink:href="#p0" content="2,大前医院,兵庫県伊丹市高台１-１５７-７,内科　小児科　消化器科　放射線科,,,9" xlink:title="大前医院" transform="ref(svg,13541.2574,-3479.1163)" x="0" y="0"/>
<use xlink:href="#p0" content="2,おじまクリニック,兵庫県伊丹市宮ノ前１-４-６　３号館１Ｆ,整形外科　リウマチ科　リハビリテーション科　麻酔科,,,9" xlink:title="おじまクリニック" transform="ref(svg,13541.5624,-3478.198)" x="0" y="0"/>
<use xlink:href="#p0" content="2,おおで眼科クリニック,兵庫県伊丹市南野２-９-１１神港ビル１階,眼科,,,9" xlink:title="おおで眼科クリニック" transform="ref(svg,13540.4672,-3476.6073)" x="0" y="0"/>
<use xlink:href="#p0" content="2,金島医院,兵庫県伊丹市昆陽南３-５-１０,内科　胃腸科　整形外科,,,9" xlink:title="金島医院" transform="ref(svg,13539.9809,-3477.3638)" x="0" y="0"/>
<use xlink:href="#p0" content="2,賀来医院,兵庫県伊丹市中央１-４-１３,内科　小児科　放射線科,,,9" xlink:title="賀来医院" transform="ref(svg,13541.394,-3478.0962)" x="0" y="0"/>
<use xlink:href="#p0" content="2,笠井外科内科,兵庫県伊丹市瑞穂町３-６１,外科　胃腸科　理学診療科,,,9" xlink:title="笠井外科内科" transform="ref(svg,13540.5947,-3479.3241)" x="0" y="0"/>
<use xlink:href="#p0" content="2,桂外科,兵庫県伊丹市御願塚７-５-７,外科　皮膚科　神経内科　内科　リハビリテーション科,,,9" xlink:title="桂外科" transform="ref(svg,13541.0936,-3476.8743)" x="0" y="0"/>
<use xlink:href="#p0" content="2,鹿島産婦人科,兵庫県伊丹市瑞穂町３-１２-２,産科　婦人科,,,9" xlink:title="鹿島産婦人科" transform="ref(svg,13540.3918,-3479.1143)" x="0" y="0"/>
<use xlink:href="#p0" content="2,片岡医院,兵庫県伊丹市中央１-４-８宇杉ビル４階,心臓内科　精神科,,,9" xlink:title="片岡医院" transform="ref(svg,13541.3808,-3478.0962)" x="0" y="0"/>
<use xlink:href="#p0" content="2,片山内科クリニック,兵庫県伊丹市野間１-８-１２,内科　循環器内科　糖尿病内科,,,9" xlink:title="片山内科クリニック" transform="ref(svg,13539.7837,-3476.5775)" x="0" y="0"/>
<use xlink:href="#p0" content="2,キューピー（株）伊丹工場診療所,兵庫県伊丹市南町４-７-１,内科　外科,,,9" xlink:title="キューピー（株）伊丹工場診療所" transform="ref(svg,13541.9153,-3476.5244)" x="0" y="0"/>
<use xlink:href="#p0" content="2,北岡内科,兵庫県伊丹市南本町１-２-１７,内科,,,9" xlink:title="北岡内科" transform="ref(svg,13541.83,-3477.5871)" x="0" y="0"/>
<use xlink:href="#p0" content="2,Ｋ-ｍａｉｓｏｎときめき診療所,兵庫県伊丹市森本１-８-１９,内科,,,9" xlink:title="Ｋ-ｍａｉｓｏｎときめき診療所" transform="ref(svg,13542.9256,-3477.8939)" x="0" y="0"/>
<use xlink:href="#p0" content="2,小泉医院,兵庫県伊丹市安堂寺町１-３２,内科　小児科,,,9" xlink:title="小泉医院" transform="ref(svg,13541.0336,-3476.4078)" x="0" y="0"/>
<use xlink:href="#p0" content="2,幸彩クリニック,兵庫県伊丹市千僧３-１４３エイダイビル３０１,内科,,,9" xlink:title="幸彩クリニック" transform="ref(svg,13540.747,-3478.6279)" x="0" y="0"/>
<use xlink:href="#p0" content="2,サカタインクス（株）健康管理室,兵庫県伊丹市北河原４-１-１２,内科,,,9" xlink:title="サカタインクス（株）健康管理室" transform="ref(svg,13542.2909,-3478.7647)" x="0" y="0"/>
<use xlink:href="#p0" content="2,さかもと小児科アレルギー科,兵庫県伊丹市伊丹１-６-２丹兵ビル１０３,小児科　アレルギー科,,,9" xlink:title="さかもと小児科アレルギー科" transform="ref(svg,13541.9572,-3478.1701)" x="0" y="0"/>
<use xlink:href="#p0" content="2,佐々木内科,兵庫県伊丹市稲野町３-２３,内科,,,9" xlink:title="佐々木内科" transform="ref(svg,13541.5362,-3476.3883)" x="0" y="0"/>
<use xlink:href="#p0" content="2,柴本内科循環器科,兵庫県伊丹市西台３-１-４,内科　循環器科,,,9" xlink:title="柴本内科循環器科" transform="ref(svg,13541.4228,-3477.9212)" x="0" y="0"/>
<use xlink:href="#p0" content="2,荘司外科,兵庫県伊丹市中央１-２-１６,外科　消化器科　整形外科　肛門科,,,9" xlink:title="荘司外科" transform="ref(svg,13541.3084,-3478.1332)" x="0" y="0"/>
<use xlink:href="#p0" content="2,繁治医院,兵庫県伊丹市南野北３-１-３２,内科,,,9" xlink:title="繁治医院" transform="ref(svg,13540.1736,-3477.1091)" x="0" y="0"/>
<use xlink:href="#p0" content="2,城田医院,兵庫県伊丹市中央５-１-１５,心臓内科　精神科,,,9" xlink:title="城田医院" transform="ref(svg,13541.6096,-3477.9261)" x="0" y="0"/>
<use xlink:href="#p0" content="2,住友電気工業（株）伊丹製作所健康管理センター,兵庫県伊丹市昆陽北１-１-１,内科　外科,,,9" xlink:title="住友電気工業（株）伊丹製作所健康管理センター" transform="ref(svg,13539.602,-3478.2379)" x="0" y="0"/>
<use xlink:href="#p0" content="2,（医）星晶会星優クリニック,兵庫県伊丹市桜ケ丘１-３-２３,内科　泌尿器科　放射線科　リハビリテーション科　神経内科,,,9" xlink:title="（医）星晶会星優クリニック" transform="ref(svg,13541.0355,-3478.3677)" x="0" y="0"/>
<use xlink:href="#p0" content="2,外村医院（とのむら）,兵庫県伊丹市野間北２-１-７,内科　呼吸器科　消化器科,,,9" xlink:title="外村医院（とのむら）" transform="ref(svg,13539.6438,-3477.0722)" x="0" y="0"/>
<use xlink:href="#p0" content="2,高田医院,兵庫県伊丹市森本２-１９０,内科　小児科　放射線科,,,9" xlink:title="高田医院" transform="ref(svg,13543.261,-3478.071)" x="0" y="0"/>
<use xlink:href="#p0" content="2,たつみ整形外科形成外科クリニック,兵庫県伊丹市緑ケ丘１-２５７-１,整形外科　形成外科　美容外科　リハビリテーション科,,,9" xlink:title="たつみ整形外科形成外科クリニック" transform="ref(svg,13540.6928,-3479.3008)" x="0" y="0"/>
<use xlink:href="#p0" content="2,立山内科医院,兵庫県伊丹市鈴原町８-６７,内科　小児科,,,9" xlink:title="立山内科医院" transform="ref(svg,13540.2864,-3477.3854)" x="0" y="0"/>
<use xlink:href="#p0" content="2,高村整形外科,兵庫県伊丹市車塚１-３０,整形外科　リハビリテーション科,,,9" xlink:title="高村整形外科" transform="ref(svg,13539.8933,-3476.54)" x="0" y="0"/>
<use xlink:href="#p0" content="2,第２西原クリニック,兵庫県伊丹市野間８-５-１０,外科　内科　整形外科　リハビリテーション科　胃腸科　肛門科,,,9" xlink:title="第２西原クリニック" transform="ref(svg,13539.5786,-3476.5082)" x="0" y="0"/>
<use xlink:href="#p0" content="2,巽医院,兵庫県伊丹市昆陽６-６,内科　小児科　消化器科,,,9" xlink:title="巽医院" transform="ref(svg,13539.7904,-3478.0021)" x="0" y="0"/>
<use xlink:href="#p0" content="2,田中あかちゃんこどもクリニック,兵庫県伊丹市行基町１-１０７伊丹行基町医療モール２Ｆ,小児科,,,9" xlink:title="田中あかちゃんこどもクリニック" transform="ref(svg,13540.6882,-3478.0494)" x="0" y="0"/>
<use xlink:href="#p0" content="2,谷口耳鼻咽喉科医院,兵庫県伊丹市鈴原町９-３８８,耳鼻いんこう科,,,9" xlink:title="谷口耳鼻咽喉科医院" transform="ref(svg,13540.3859,-3477.2603)" x="0" y="0"/>
<use xlink:href="#p0" content="2,竹中内科,兵庫県伊丹市西台２-３-１２,内科　胃腸科　放射線科,,,9" xlink:title="竹中内科" transform="ref(svg,13541.0927,-3478.0456)" x="0" y="0"/>
<use xlink:href="#p0" content="2,トッパングループ（健保）伊丹診療所,兵庫県伊丹市北河原１-２-１,内科　歯科,,,9" xlink:title="トッパングループ（健保）伊丹診療所" transform="ref(svg,13542.0608,-3478.539)" x="0" y="0"/>
<use xlink:href="#p0" content="2,東洋ゴム工業（株）タイヤ技術センター健康管理室,兵庫県伊丹市藤ノ木２-２-１３,内科,,,9" xlink:title="東洋ゴム工業（株）タイヤ技術センター健康管理室" transform="ref(svg,13542.2573,-3478.3895)" x="0" y="0"/>
<use xlink:href="#p0" content="2,桃寿園診療所,兵庫県伊丹市昆陽池１-１０５,内科　皮膚科,,,9" xlink:title="桃寿園診療所" transform="ref(svg,13539.6936,-3478.4757)" x="0" y="0"/>
<use xlink:href="#p0" content="2,富永医院,兵庫県伊丹市車塚２-８４-２,内科　小児科　外科　胃腸科　放射線科,,,9" xlink:title="富永医院" transform="ref(svg,13539.8906,-3476.2489)" x="0" y="0"/>
<use xlink:href="#p0" content="2,なかむらこどもクリニック,兵庫県伊丹市昆陽南１-１０-１,小児科,,,9" xlink:title="なかむらこどもクリニック" transform="ref(svg,13539.5981,-3477.7779)" x="0" y="0"/>
<use xlink:href="#p0" content="2,成山・池内クリニック,兵庫県伊丹市西台１-１-１伊丹阪急駅ビル５Ｆ,泌尿器科,,,9" xlink:title="成山・池内クリニック" transform="ref(svg,13541.363,-3477.9914)" x="0" y="0"/>
<use xlink:href="#p0" content="2,中山クリニック,兵庫県伊丹市北伊丹８-２５１-１,内科　外科　胃腸科　肛門科　リハビリテーション科　整形外科,,,9" xlink:title="中山クリニック" transform="ref(svg,13541.4308,-3479.8772)" x="0" y="0"/>
<use xlink:href="#p0" content="2,中村クリニック,兵庫県伊丹市中央３-１-２５,整形外科　リハビリテーション科　内科　胃腸科　肛門科,,,9" xlink:title="中村クリニック" transform="ref(svg,13541.667,-3478.0254)" x="0" y="0"/>
<use xlink:href="#p0" content="2,中島内科,兵庫県伊丹市瑞穂町５-６,内科　循環器科　呼吸器科　消化器科,,,9" xlink:title="中島内科" transform="ref(svg,13540.1141,-3479.2269)" x="0" y="0"/>
<use xlink:href="#p0" content="2,楠部産婦人科麻酔科医院,兵庫県伊丹市南野北４-１-２１,産婦人科　麻酔科　内科　小児科,,,9" xlink:title="楠部産婦人科麻酔科医院" transform="ref(svg,13539.8773,-3476.9297)" x="0" y="0"/>
<use xlink:href="#p0" content="2,にしだい診療所,兵庫県伊丹市西台１-２-３山本不動産ビル３Ｆ,精神科　心臓内科　神経科　神経内科,,,9" xlink:title="にしだい診療所" transform="ref(svg,13541.2425,-3478.0933)" x="0" y="0"/>
<use xlink:href="#p0" content="2,二宮眼科,兵庫県伊丹市西台３-９-２５,眼科,,,9" xlink:title="二宮眼科" transform="ref(svg,13541.3905,-3477.9277)" x="0" y="0"/>
<use xlink:href="#p0" content="2,（医）二宮内科クリニック,兵庫県伊丹市梅ノ木４-６-２２,内科,,,9" xlink:title="（医）二宮内科クリニック" transform="ref(svg,13541.4541,-3477.233)" x="0" y="0"/>
<use xlink:href="#p0" content="2,則武皮膚科,兵庫県伊丹市梅ノ木２-１-１８,皮膚科,,,9" xlink:title="則武皮膚科" transform="ref(svg,13541.52,-3477.3051)" x="0" y="0"/>
<use xlink:href="#p0" content="2,野村耳鼻咽喉科,兵庫県伊丹市中央４-１-５,耳鼻いんこう科,,,9" xlink:title="野村耳鼻咽喉科" transform="ref(svg,13541.509,-3477.9241)" x="0" y="0"/>
<use xlink:href="#p0" content="2,はなだ脳神経外科クリニック,兵庫県伊丹市行基町２-９７-１,脳神経外科　神経内科,,,9" xlink:title="はなだ脳神経外科クリニック" transform="ref(svg,13540.6611,-3477.8351)" x="0" y="0"/>
<use xlink:href="#p0" content="2,原内科医院,兵庫県伊丹市昆陽東４-１-２２,呼吸器科　内科　循環器科,,,9" xlink:title="原内科医院" transform="ref(svg,13540.155,-3477.9287)" x="0" y="0"/>
<use xlink:href="#p0" content="2,阪神北広域こども急病センター,兵庫県伊丹市昆陽池２-１０,小児科,,,9" xlink:title="阪神北広域こども急病センター" transform="ref(svg,13539.6174,-3478.5152)" x="0" y="0"/>
<use xlink:href="#p0" content="2,ひうらクリニック,兵庫県伊丹市行基町１-１０７伊丹行基町医療モール３Ｆ,内科　胃腸内科　肛門外科　外科　皮膚科　アレルギー科,,,9" xlink:title="ひうらクリニック" transform="ref(svg,13540.6882,-3478.0494)" x="0" y="0"/>
<use xlink:href="#p0" content="2,廣瀬医院,兵庫県伊丹市御願塚２-４-３１,内科　小児科　婦人科,,,9" xlink:title="廣瀬医院" transform="ref(svg,13541.3329,-3476.9888)" x="0" y="0"/>
<use xlink:href="#p0" content="2,兵庫県阪神北県民局伊丹健康福祉事務所（兵庫県伊丹保健所）,兵庫県伊丹市千僧１-５１,内科,,,9" xlink:title="兵庫県阪神北県民局伊丹健康福祉事務所（兵庫県伊丹保健所）" transform="ref(svg,13540.2156,-3478.33)" x="0" y="0"/>
<use xlink:href="#p0" content="2,ふじお皮フ科,兵庫県伊丹市西台３-２-１８,皮膚科　形成外科,,,9" xlink:title="ふじお皮フ科" transform="ref(svg,13541.4509,-3477.7498)" x="0" y="0"/>
<use xlink:href="#p0" content="2,古川医院,兵庫県伊丹市緑ケ丘６-２８,内科　消化器科　小児科,,,9" xlink:title="古川医院" transform="ref(svg,13540.4219,-3480.0184)" x="0" y="0"/>
<use xlink:href="#p0" content="2,船井泌尿器科医院,兵庫県伊丹市中央１-５-１８伊丹中央プラザビル５Ｆ,泌尿器科,,,9" xlink:title="船井泌尿器科医院" transform="ref(svg,13541.4791,-3477.9814)" x="0" y="0"/>
<use xlink:href="#p0" content="2,平生診療所,兵庫県伊丹市梅ノ木６-３-８,内科　循環器科,,,9" xlink:title="平生診療所" transform="ref(svg,13541.0966,-3477.4316)" x="0" y="0"/>
<use xlink:href="#p0" content="2,本田医院,兵庫県伊丹市御願塚１-５-２０,内科　小児科　放射線科,,,9" xlink:title="本田医院" transform="ref(svg,13541.1414,-3477.1832)" x="0" y="0"/>
<use xlink:href="#p0" content="2,（医）まえだペインクリニック,兵庫県伊丹市伊丹１-１０-１４アリオ１-２０１-３,麻酔科　リハビリテーション科,,,9" xlink:title="（医）まえだペインクリニック" transform="ref(svg,13542.0035,-3478.1155)" x="0" y="0"/>
<use xlink:href="#p0" content="2,マシモ皮膚科,兵庫県伊丹市御願塚６-７-５,皮膚科,,,9" xlink:title="マシモ皮膚科" transform="ref(svg,13541.0877,-3477.2442)" x="0" y="0"/>
<use xlink:href="#p0" content="2,松田眼科クリニック,兵庫県伊丹市藤ノ木１-１-１-３２３,眼科,,,9" xlink:title="松田眼科クリニック" transform="ref(svg,13542.3573,-3478.1853)" x="0" y="0"/>
<use xlink:href="#p0" content="2,松本循環器科,兵庫県伊丹市安堂寺町２-１２,循環器科　内科　外科,,,9" xlink:title="松本循環器科" transform="ref(svg,13541.1418,-3476.2161)" x="0" y="0"/>
<use xlink:href="#p0" content="2,前田泌尿器科,兵庫県伊丹市伊丹１-１０-１４アリオ１　２Ｆ,泌尿器科,,,9" xlink:title="前田泌尿器科" transform="ref(svg,13541.9762,-3478.131)" x="0" y="0"/>
<use xlink:href="#p0" content="2,増永眼科医院,兵庫県伊丹市平松１-３-２９,眼科,,,9" xlink:title="増永眼科医院" transform="ref(svg,13541.6529,-3477.639)" x="0" y="0"/>
<use xlink:href="#p0" content="2,牧野整形外科医院,兵庫県伊丹市西台３-６-７,整形外科　理学診療科,,,9" xlink:title="牧野整形外科医院" transform="ref(svg,13541.4253,-3477.6837)" x="0" y="0"/>
<use xlink:href="#p0" content="2,みずほレディースクリニック,兵庫県伊丹市瑞穂町５-７２,産科　婦人科,,,9" xlink:title="みずほレディースクリニック" transform="ref(svg,13540.2347,-3479.3704)" x="0" y="0"/>
<use xlink:href="#p0" content="2,みやいクリニック,兵庫県伊丹市伊丹１-１０-１４アリオＩ２０１-７,心臓内科　精神科,,,9" xlink:title="みやいクリニック" transform="ref(svg,13542.0035,-3478.1155)" x="0" y="0"/>
<use xlink:href="#p0" content="2,（医）南谷継風会南谷クリニック伊丹,兵庫県伊丹市南本町７-１-１５,内科　小児科　整形外科　リハビリテーション科,,,9" xlink:title="（医）南谷継風会南谷クリニック伊丹" transform="ref(svg,13541.9143,-3477.0099)" x="0" y="0"/>
<use xlink:href="#p0" content="2,宮崎クリニック,兵庫県伊丹市鈴原町４-４-１,小児科　内科　皮膚科,,,9" xlink:title="宮崎クリニック" transform="ref(svg,13540.7012,-3477.5293)" x="0" y="0"/>
<use xlink:href="#p0" content="2,三上眼科,兵庫県伊丹市鈴原町５-３３-１,眼科,,,9" xlink:title="三上眼科" transform="ref(svg,13540.5743,-3477.5663)" x="0" y="0"/>
<use xlink:href="#p0" content="2,三谷眼科,兵庫県伊丹市中央３-２-２９,眼科,,,9" xlink:title="三谷眼科" transform="ref(svg,13541.6771,-3478.1084)" x="0" y="0"/>
<use xlink:href="#p0" content="2,三菱電機（株）高周波デバイス製作所健康増進センター,兵庫県伊丹市瑞原４-１,内科,,,9" xlink:title="三菱電機（株）高周波デバイス製作所健康増進センター" transform="ref(svg,13539.9283,-3479.7606)" x="0" y="0"/>
<use xlink:href="#p0" content="2,村上皮膚科,兵庫県伊丹市平松６-１-１８,皮膚科,,,9" xlink:title="村上皮膚科" transform="ref(svg,13541.597,-3477.0545)" x="0" y="0"/>
<use xlink:href="#p0" content="2,むろさきクリニック,兵庫県伊丹市野間１-８-１２,泌尿器科,,,9" xlink:title="むろさきクリニック" transform="ref(svg,13539.7634,-3476.5797)" x="0" y="0"/>
<use xlink:href="#p0" content="2,森口整形外科,兵庫県伊丹市鈴原町１-１-８,整形外科　外科　理学診療科,,,9" xlink:title="森口整形外科" transform="ref(svg,13541.0365,-3477.6074)" x="0" y="0"/>
<use xlink:href="#p0" content="2,森内科医院,兵庫県伊丹市南野６-７-１３,内科　消化器内科　放射線科,,,9" xlink:title="森内科医院" transform="ref(svg,13540.0282,-3476.6067)" x="0" y="0"/>
<use xlink:href="#p0" content="2,やまだクリニック,兵庫県伊丹市西台１-５-７,外科　胃腸科　肛門科　内科　リハビリテーション科,,,9" xlink:title="やまだクリニック" transform="ref(svg,13541.2857,-3477.9454)" x="0" y="0"/>
<use xlink:href="#p0" content="2,安井外科,兵庫県伊丹市伊丹１-１３-５４,外科　胃腸科　整形外科　リハビリテーション科　皮膚科　形成外科,,,9" xlink:title="安井外科" transform="ref(svg,13542.0657,-3478.2354)" x="0" y="0"/>
<use xlink:href="#p0" content="2,安井内科クリニック,兵庫県伊丹市北本町１-１５４,内科　循環器科　リハビリテーション科　神経内科,,,9" xlink:title="安井内科クリニック" transform="ref(svg,13541.75,-3478.472)" x="0" y="0"/>
<use xlink:href="#p0" content="2,山崎こどもクリニック,兵庫県伊丹市千僧６-１０３-７,小児科,,,9" xlink:title="山崎こどもクリニック" transform="ref(svg,13540.3648,-3478.2765)" x="0" y="0"/>
<use xlink:href="#p0" content="2,山中耳鼻咽喉科医院,兵庫県伊丹市野間１-７-１０,耳鼻いんこう科,,,9" xlink:title="山中耳鼻咽喉科医院" transform="ref(svg,13539.8395,-3476.5811)" x="0" y="0"/>
<use xlink:href="#p0" content="2,弓場医院,兵庫県伊丹市伊丹２-１-１５,内科　小児科　循環器科,,,9" xlink:title="弓場医院" transform="ref(svg,13541.8399,-3478.0825)" x="0" y="0"/>
<use xlink:href="#p0" content="2,横石クリニック,兵庫県伊丹市中央２-５-２２,内科　消化器科　循環器科　リハビリテーション科,,,9" xlink:title="横石クリニック" transform="ref(svg,13541.5619,-3478.0448)" x="0" y="0"/>
<use xlink:href="#p0" content="2,吉江胃腸科外科,兵庫県伊丹市稲野町１-１１１,胃腸科　外科　内科　放射線科　理学診療科　肛門科,,,9" xlink:title="吉江胃腸科外科" transform="ref(svg,13541.5085,-3476.4939)" x="0" y="0"/>
<use xlink:href="#p0" content="2,吉村耳鼻咽喉科,兵庫県伊丹市伊丹１-１０-１４-２０１,耳鼻いんこう科　アレルギー科,,,9" xlink:title="吉村耳鼻咽喉科" transform="ref(svg,13541.9737,-3478.14)" x="0" y="0"/>
<use xlink:href="#p0" content="2,吉田医院,兵庫県伊丹市瑞穂町２-５７,内科　胃腸科　放射線科　小児科,,,9" xlink:title="吉田医院" transform="ref(svg,13540.5253,-3479.1297)" x="0" y="0"/>
<use xlink:href="#p0" content="2,陸上自衛隊伊丹駐とん地医務室,兵庫県伊丹市緑ケ丘７-１-１,内科　歯科,,,9" xlink:title="陸上自衛隊伊丹駐とん地医務室" transform="ref(svg,13540.5608,-3479.8453)" x="0" y="0"/>
<use xlink:href="#p0" content="2,陸上自衛隊千僧駐とん地医務室,兵庫県伊丹市広畑１-１,内科　歯科,,,9" xlink:title="陸上自衛隊千僧駐とん地医務室" transform="ref(svg,13540.4038,-3478.894)" x="0" y="0"/>
<use xlink:href="#p0" content="2,ルネサスエレクトロニクス（株）北伊丹事業所健康推進室,兵庫県伊丹市瑞原４-１,内科,,,9" xlink:title="ルネサスエレクトロニクス（株）北伊丹事業所健康推進室" transform="ref(svg,13539.927,-3479.807)" x="0" y="0"/>
<use xlink:href="#p0" content="2,レディースクリニックＴａｙａ,兵庫県伊丹市伊丹１-１０-１４-２０１-５,婦人科　産科,,,9" xlink:title="レディースクリニックＴａｙａ" transform="ref(svg,13541.9737,-3478.1401)" x="0" y="0"/>
<use xlink:href="#p0" content="2,わたらい医院,兵庫県伊丹市平松４-１-２４,内科　糖尿病内科　小児科,,,9" xlink:title="わたらい医院" transform="ref(svg,13541.5741,-3477.3341)" x="0" y="0"/>
<use xlink:href="#p0" content="2,渡辺クリニック,兵庫県伊丹市西台４-２-５,産婦人科,,,9" xlink:title="渡辺クリニック" transform="ref(svg,13541.3157,-3477.7926)" x="0" y="0"/>
<use xlink:href="#p0" content="2,和田クリニック,兵庫県伊丹市伊丹１-１０-１４,内科　小児科,,,9" xlink:title="和田クリニック" transform="ref(svg,13541.9737,-3478.14)" x="0" y="0"/>
<use xlink:href="#p0" content="2,あいな診療所,兵庫県川西市久代６-１-９８,内科　外科　整形外科　リハビリテーション科,,,9" xlink:title="あいな診療所" transform="ref(svg,13541.8326,-3480.2898)" x="0" y="0"/>
<use xlink:href="#p0" content="2,（特養）あいな清和苑あいなホーム医務室,兵庫県川西市久代６-１-９１,内科　循環器内科,,,9" xlink:title="（特養）あいな清和苑あいなホーム医務室" transform="ref(svg,13541.8253,-3480.2898)" x="0" y="0"/>
<use xlink:href="#p0" content="2,おだがき循環器内科クリニック,兵庫県川西市久代６-２-４-１２３,循環器内科　内科,,,9" xlink:title="おだがき循環器内科クリニック" transform="ref(svg,13541.3196,-3480.2523)" x="0" y="0"/>
<use xlink:href="#p0" content="2,宮の前眼科,兵庫県伊丹市宮ノ前１-４-８みやのまち３号館１Ｆ,眼科,,,9" xlink:title="宮の前眼科" transform="ref(svg,13541.5608,-3478.1984)" x="0" y="0"/>
<use xlink:href="#p0" content="2,石橋眼科医院,兵庫県伊丹市鈴原町８-４８-５,眼科,,,9" xlink:title="石橋眼科医院" transform="ref(svg,13540.3889,-3477.2725)" x="0" y="0"/>
<use xlink:href="#p0" content="2,木下内科診療所,兵庫県伊丹市昆陽東４-１３-４,内科　胃腸科　小児科　リハビリテーション科,,,9" xlink:title="木下内科診療所" transform="ref(svg,13539.9892,-3477.8637)" x="0" y="0"/>
<use xlink:href="#p0" content="2,整形なかむら医院,兵庫県伊丹市昆陽東４-６-５,整形外科　リウマチ科　リハビリテーション科,,,9" xlink:title="整形なかむら医院" transform="ref(svg,13540.2244,-3477.6889)" x="0" y="0"/>
<use xlink:href="#p0" content="2,ラヴィータホームクリニック,兵庫県伊丹市昆陽東１-７-２３,内科,,,9" xlink:title="ラヴィータホームクリニック" transform="ref(svg,13540.3928,-3477.9765)" x="0" y="0"/>
<use xlink:href="#p0" content="2,東有岡クリニック,兵庫県伊丹市東有岡１-１８-１３,内科　消化器内科　リハビリテーション科,,,9" xlink:title="東有岡クリニック" transform="ref(svg,13542.2267,-3477.9732)" x="0" y="0"/>
<use xlink:href="#p0" content="2,いなでら透析クリニック,兵庫県尼崎市猪名寺２-１４-１４,ひ尿器科,,,9" xlink:title="いなでら透析クリニック" transform="ref(svg,13542.5961,-3476.4576)" x="0" y="0"/>
<use xlink:href="#p0" content="2,ヤンマー（株）マリン事業部内診療所,兵庫県尼崎市塚口本町５-３-１,内科,,,9" xlink:title="ヤンマー（株）マリン事業部内診療所" transform="ref(svg,13542.1256,-3476.1087)" x="0" y="0"/>
<use xlink:href="#p0" content="2,きたまちクリニック,兵庫県尼崎市富松町４-８-２８,内科　アレルギー科　小児科,,,9" xlink:title="きたまちクリニック" transform="ref(svg,13540.3275,-3476.1034)" x="0" y="0"/>
<use xlink:href="#p0" content="2,北之荘らくらく苑医務室,兵庫県尼崎市田能３-５-２８,内科,,,9" xlink:title="北之荘らくらく苑医務室" transform="ref(svg,13543.8411,-3476.6106)" x="0" y="0"/>
<use xlink:href="#p0" content="2,みもと内科クリニック,兵庫県尼崎市塚口本町４-８-１つかしん内モール西Ｍ-１８１,内科　循環器内科,,,9" xlink:title="みもと内科クリニック" transform="ref(svg,13541.7189,-3476.1687)" x="0" y="0"/>
<use xlink:href="#p0" content="2,（特養）けま喜楽苑医務室,兵庫県尼崎市食満２-２２-１,内科,,,9" xlink:title="（特養）けま喜楽苑医務室" transform="ref(svg,13543.1075,-3476.2767)" x="0" y="0"/>
<use xlink:href="#p0" content="2,らくらく苑,兵庫県尼崎市田能４-２-５０,内科,,,9" xlink:title="らくらく苑" transform="ref(svg,13543.8669,-3476.4403)" x="0" y="0"/>
<use xlink:href="#p0" content="2,曽根医院,兵庫県尼崎市猪名寺１-２０-２７,内科　小児科　リハビリテーション科,,,9" xlink:title="曽根医院" transform="ref(svg,13542.3317,-3476.6724)" x="0" y="0"/>
<use xlink:href="#p0" content="2,中家クリニック,兵庫県尼崎市猪名寺２-２-１０,外科　脳神経外科,,,9" xlink:title="中家クリニック" transform="ref(svg,13542.3197,-3476.353)" x="0" y="0"/>
<use xlink:href="#p0" content="2,（福）田能老人福祉会（特養）春日苑診療所,兵庫県尼崎市田能５-１０-２５,内科　神経内科　精神科　リハビリテーション科,,,9" xlink:title="（福）田能老人福祉会（特養）春日苑診療所" transform="ref(svg,13542.9875,-3476.8367)" x="0" y="0"/>
<use xlink:href="#p0" content="2,眼科クリニック田岡,兵庫県尼崎市塚口本町４-８-１Ｍ-１３２-１,眼科,,,9" xlink:title="眼科クリニック田岡" transform="ref(svg,13541.9549,-3476.1077)" x="0" y="0"/>
<use xlink:href="#p0" content="2,こくらクリニック,兵庫県尼崎市猪名寺２-６-２５,内科　神経内科　精神科　心療内科　リハビリテーション科,,,9" xlink:title="こくらクリニック" transform="ref(svg,13542.3361,-3476.4951)" x="0" y="0"/>
<use xlink:href="#p0" content="2,まごのクリニック,兵庫県尼崎市猪名寺２-１５-３０,内科　呼吸器内科　アレルギー科　リハビリテーション科,,,9" xlink:title="まごのクリニック" transform="ref(svg,13542.5968,-3476.5545)" x="0" y="0"/>
<use xlink:href="#p0" content="2,（株）神崎高級工機製作所伊丹工場医務室,兵庫県尼崎市猪名寺２-１８-１,内科,,,9" xlink:title="（株）神崎高級工機製作所伊丹工場医務室" transform="ref(svg,13542.6942,-3476.5331)" x="0" y="0"/>
</g>
</svg>
