<?xml version="1.0" encoding="UTF-8"?>
<svg  xmlns="http://www.w3.org/2000/svg" xmlns:xlink="http://www.w3.org/1999/xlink" xmlns:go="http://purl.org/svgmap/profile" property="医療機関分類,施設名称,所在地,診療科目１,診療科目２,診療科目３,開設者分類" viewBox="13060.546875 -3375.0 17.578125 17.578125" go:dataArea="13060.546875 -3375.0 17.578125 17.578125" >
<metadata>
 <rdf:RDF xmlns:rdf="http://www.w3.org/1999/02/22-rdf-syntax-ns#" xmlns:crs="http://opengis.org/xmldtds/transformations.dtd" xmlns:svg="http://www.w3.org/svg" >
  <rdf:Description>
   <crs:CoordinateReferenceSystem rdf:resource="http://purl.org/crs/84" svg:transform="matrix(100.0,0.0,0.0,-100.0,0.0,0.0)" />
  </rdf:Description>
 </rdf:RDF>
</metadata>
<globalCoordinateSystem srsName="http://purl.org/crs/84" transform="matrix(100.0,0.0,0.0,-100.0,0.0,0.0)" />
<defs>
 <g id="p0" >
  <image xlink:href="mappin.png" preserveAspectRatio="none" x="-8" y="-25" width="19" height="27"/>
 </g>
 <g id="p1" >
  <image xlink:href="mappin1.png" preserveAspectRatio="none" x="-8" y="-25" width="19" height="27"/>
 </g>
 <g id="p2" >
  <image xlink:href="mappin2.png" preserveAspectRatio="none" x="-8" y="-25" width="19" height="27"/>
 </g>
 <g id="p3" >
  <image xlink:href="mappin3.png" preserveAspectRatio="none" x="-8" y="-25" width="19" height="27"/>
 </g>
 <g id="p4" >
  <image xlink:href="mappin4.png" preserveAspectRatio="none" x="-8" y="-25" width="19" height="27"/>
 </g>
 <g id="p5" >
  <image xlink:href="mappin5.png" preserveAspectRatio="none" x="-8" y="-25" width="19" height="27"/>
 </g>
 <g id="p6" >
  <image xlink:href="mappin6.png" preserveAspectRatio="none" x="-8" y="-25" width="19" height="27"/>
 </g>
 <g id="p7" >
  <image xlink:href="mappin7.png" preserveAspectRatio="none" x="-8" y="-25" width="19" height="27"/>
 </g>
 <g id="p8" >
  <image xlink:href="mappin8.png" preserveAspectRatio="none" x="-8" y="-25" width="19" height="27"/>
 </g>
 <g id="p9" >
  <image xlink:href="mappin9.png" preserveAspectRatio="none" x="-8" y="-25" width="19" height="27"/>
 </g>
</defs>
<g fill="green" fill-rule="evenodd" >
<use xlink:href="#p0" content="2,あい内科・消化器科クリニック,福岡県飯塚市菰田西１-６-２４,内科（肝臓・胃腸・消化器・呼吸器）　リハビリテーション科　小児科　アレルギー科,,,9" xlink:title="あい内科・消化器科クリニック" transform="ref(svg,13068.7836,-3362.7609)" x="0" y="0"/>
<use xlink:href="#p0" content="2,あおぞら整形外科医院,福岡県飯塚市上三緒４４５-２,内科　整形外科　リハビリテーション科　リウマチ科,,,9" xlink:title="あおぞら整形外科医院" transform="ref(svg,13071.5498,-3362.5868)" x="0" y="0"/>
<use xlink:href="#p0" content="2,（医）秀和会あおやぎ内科クリニック,福岡県飯塚市大分１３２４-４,内科　胃腸科　小児科　リハビリテーション科,,,9" xlink:title="（医）秀和会あおやぎ内科クリニック" transform="ref(svg,13062.9574,-3358.7688)" x="0" y="0"/>
<use xlink:href="#p0" content="2,青山医院,福岡県飯塚市高田９６４,内科　外科　小児科,,,9" xlink:title="青山医院" transform="ref(svg,13063.6808,-3360.2363)" x="0" y="0"/>
<use xlink:href="#p0" content="2,青山外科医院,福岡県飯塚市吉原町１０-６,外科　整形外科,,,9" xlink:title="青山外科医院" transform="ref(svg,13068.6769,-3363.995)" x="0" y="0"/>
<use xlink:href="#p0" content="2,青山診療所,福岡県飯塚市大分１４４８-１４,内科　小児科,,,9" xlink:title="青山診療所" transform="ref(svg,13063.2543,-3358.8262)" x="0" y="0"/>
<use xlink:href="#p0" content="2,鰺坂医院,福岡県飯塚市菰田西２-７-３３,内科　肛門科,,,9" xlink:title="鰺坂医院" transform="ref(svg,13068.8692,-3363.0954)" x="0" y="0"/>
<use xlink:href="#p0" content="2,（医）麻生耳鼻咽喉科医院,福岡県飯塚市堀池２５４-２,耳鼻咽喉科　気管食道科,,,9" xlink:title="（医）麻生耳鼻咽喉科医院" transform="ref(svg,13068.2023,-3362.4051)" x="0" y="0"/>
<use xlink:href="#p0" content="2,あそう内科クリニック,福岡県飯塚市楽市３０９-８,内科　消化器科,,,9" xlink:title="あそう内科クリニック" transform="ref(svg,13067.8593,-3361.1587)" x="0" y="0"/>
<use xlink:href="#p0" content="2,養護老人ホーム愛生苑,福岡県飯塚市口原１０５０-１,内科,,,9" xlink:title="養護老人ホーム愛生苑" transform="ref(svg,13072.0621,-3368.5848)" x="0" y="0"/>
<use xlink:href="#p0" content="2,飯塚医師会診療所,福岡県飯塚市西町７-８,内科　外科　放射科,,,9" xlink:title="飯塚医師会診療所" transform="ref(svg,13067.9529,-3364.0972)" x="0" y="0"/>
<use xlink:href="#p0" content="2,飯塚休日夜間急患センター,福岡県飯塚市西町７-８,内科　小児科,,,9" xlink:title="飯塚休日夜間急患センター" transform="ref(svg,13067.9529,-3364.0972)" x="0" y="0"/>
<use xlink:href="#p0" content="2,飯塚腎クリニック,福岡県飯塚市片島２-１９７-１,内科,,,9" xlink:title="飯塚腎クリニック" transform="ref(svg,13068.333,-3364.8899)" x="0" y="0"/>
<use xlink:href="#p0" content="2,（医）さんご会飯塚宮嶋医院,福岡県飯塚市菰田西２-３-５２,小児科　内科,,,9" xlink:title="（医）さんご会飯塚宮嶋医院" transform="ref(svg,13068.7268,-3362.8202)" x="0" y="0"/>
<use xlink:href="#p0" content="2,石川クリニック,福岡県飯塚市柏の森９２-１０３,脳神経外科　整形外科　麻酔科　ペインクリニック外科　リハビリテーション科,,,9" xlink:title="石川クリニック" transform="ref(svg,13071.1308,-3364.0564)" x="0" y="0"/>
<use xlink:href="#p0" content="2,石橋外科胃腸科医院,福岡県飯塚市伊岐須８４７-５,外科　整形外科　胃腸科,,,9" xlink:title="石橋外科胃腸科医院" transform="ref(svg,13066.1119,-3365.3844)" x="0" y="0"/>
<use xlink:href="#p0" content="2,いくたクリニック,福岡県飯塚市楽市６５９-３,心療内科　精神科　内科,,,9" xlink:title="いくたクリニック" transform="ref(svg,13067.4097,-3361.4085)" x="0" y="0"/>
<use xlink:href="#p0" content="2,軽費老人ホームいずみ苑医務室,福岡県飯塚市庄司２００３-１,内科,,,9" xlink:title="軽費老人ホームいずみ苑医務室" transform="ref(svg,13066.0899,-3367.2806)" x="0" y="0"/>
<use xlink:href="#p0" content="2,（特養）いいづか医務室,福岡県飯塚市花瀬１５７-１,内科,,,9" xlink:title="（特養）いいづか医務室" transform="ref(svg,13065.925,-3364.2215)" x="0" y="0"/>
<use xlink:href="#p0" content="2,（医）上村クリニック上村皮ふ科・形成外科クリニック,福岡県飯塚市忠隈３５５-２,皮膚科　形成外科,,,9" xlink:title="（医）上村クリニック上村皮ふ科・形成外科クリニック" transform="ref(svg,13068.5529,-3362.3821)" x="0" y="0"/>
<use xlink:href="#p0" content="2,（医）牛島診療所,福岡県飯塚市小正４６３-６,内科　外科　脳神経外科　整形外科　胃腸科　肛門科,,,9" xlink:title="（医）牛島診療所" transform="ref(svg,13066.137,-3362.9045)" x="0" y="0"/>
<use xlink:href="#p0" content="2,（医）恵愛会江藤外科胃腸科,福岡県飯塚市有井３５５-８３,外科　胃腸科,,,9" xlink:title="（医）恵愛会江藤外科胃腸科" transform="ref(svg,13071.7916,-3364.6252)" x="0" y="0"/>
<use xlink:href="#p0" content="2,（医）おおたき医院,福岡県飯塚市伊川５４８-１,内科　小児科　呼吸器科,,,9" xlink:title="（医）おおたき医院" transform="ref(svg,13065.2855,-3365.1398)" x="0" y="0"/>
<use xlink:href="#p0" content="2,おおつか眼科内科医院,福岡県飯塚市長尾４０５-１,内科　眼科　小児科,,,9" xlink:title="おおつか眼科内科医院" transform="ref(svg,13065.3383,-3357.599)" x="0" y="0"/>
<use xlink:href="#p0" content="2,（医）大庭医院,福岡県飯塚市飯塚１８-２７,内科　小児科　循環器科,,,9" xlink:title="（医）大庭医院" transform="ref(svg,13068.4097,-3363.6994)" x="0" y="0"/>
<use xlink:href="#p0" content="2,（医）大庭クリニック,福岡県飯塚市伊岐須２９８-１０,内科　耳鼻咽喉科,,,9" xlink:title="（医）大庭クリニック" transform="ref(svg,13066.5272,-3365.2289)" x="0" y="0"/>
<use xlink:href="#p0" content="2,（医）裕和会おおやぶクリニック,福岡県飯塚市川津２０８-２,泌尿器科　内科　性感染症内科,,,9" xlink:title="（医）裕和会おおやぶクリニック" transform="ref(svg,13067.9858,-3365.1934)" x="0" y="0"/>
<use xlink:href="#p0" content="2,（医）岡眼科クリニック,福岡県飯塚市川津３６４-２,眼科,,,9" xlink:title="（医）岡眼科クリニック" transform="ref(svg,13067.6272,-3364.753)" x="0" y="0"/>
<use xlink:href="#p0" content="2,（医）越智外科胃腸科医院,福岡県飯塚市柏の森６１８,内科　外科　胃腸科　整形外科　放射線科　こう門科　麻酔科,,,9" xlink:title="（医）越智外科胃腸科医院" transform="ref(svg,13069.7977,-3363.9709)" x="0" y="0"/>
<use xlink:href="#p0" content="2,小川内科・循環器内科,福岡県飯塚市吉原町６-１あいタウン３階,内科　循環器内科,,,9" xlink:title="小川内科・循環器内科" transform="ref(svg,13068.645,-3364.1588)" x="0" y="0"/>
<use xlink:href="#p0" content="2,梶原クリニック,福岡県飯塚市宮町１-８,内科　脳神経外科,,,9" xlink:title="梶原クリニック" transform="ref(svg,13068.4641,-3364.0972)" x="0" y="0"/>
<use xlink:href="#p0" content="2,（医）梶原内科医院,福岡県飯塚市下三緒３５-６６４,内科　消化器内科　糖尿病内科　放射線科　小児科　リハビリテーション科,,,9" xlink:title="（医）梶原内科医院" transform="ref(svg,13071.0735,-3363.6592)" x="0" y="0"/>
<use xlink:href="#p0" content="2,（医）金澤整形外科クリニック,福岡県飯塚市幸袋４９８-１,整形外科　リハビリテーション科,,,9" xlink:title="（医）金澤整形外科クリニック" transform="ref(svg,13068.3839,-3365.8523)" x="0" y="0"/>
<use xlink:href="#p0" content="2,（医）兼田循環器内科医院,福岡県飯塚市有井３５５-１２,内科　循環器科,,,9" xlink:title="（医）兼田循環器内科医院" transform="ref(svg,13071.8366,-3364.6756)" x="0" y="0"/>
<use xlink:href="#p0" content="2,福岡県嘉穂・鞍手保健所本庁舎,福岡県飯塚市新立岩８-１,内科,,,9" xlink:title="福岡県嘉穂・鞍手保健所本庁舎" transform="ref(svg,13068.9817,-3364.8274)" x="0" y="0"/>
<use xlink:href="#p0" content="2,（医）かやの森皮膚クリニック,福岡県飯塚市柏の森４３２-５,皮膚科,,,9" xlink:title="（医）かやの森皮膚クリニック" transform="ref(svg,13070.1718,-3363.7167)" x="0" y="0"/>
<use xlink:href="#p0" content="2,知的障害者更生施設桂木とくのみ園医務室,福岡県飯塚市健花寺９７５-１,内科,,,9" xlink:title="知的障害者更生施設桂木とくのみ園医務室" transform="ref(svg,13064.1596,-3366.3101)" x="0" y="0"/>
<use xlink:href="#p0" content="2,（特養）かいた苑医務室,福岡県飯塚市勢田２５９３-６５,内科,,,9" xlink:title="（特養）かいた苑医務室" transform="ref(svg,13072.7076,-3370.3757)" x="0" y="0"/>
<use xlink:href="#p0" content="2,木原眼科医院,福岡県飯塚市伊岐須２９８-６,眼科,,,9" xlink:title="木原眼科医院" transform="ref(svg,13066.5148,-3365.2416)" x="0" y="0"/>
<use xlink:href="#p0" content="2,木原外科医院,福岡県飯塚市忠隈５３８-３,外科,,,9" xlink:title="木原外科医院" transform="ref(svg,13068.1118,-3361.8853)" x="0" y="0"/>
<use xlink:href="#p0" content="2,清永整形外科医院,福岡県飯塚市堀池１９,整形外科,,,9" xlink:title="清永整形外科医院" transform="ref(svg,13068.6635,-3362.8977)" x="0" y="0"/>
<use xlink:href="#p0" content="2,（国）九州工業大学保健センター情報工学部分室,福岡県飯塚市川津６８０-４,内科,,,9" xlink:title="（国）九州工業大学保健センター情報工学部分室" transform="ref(svg,13067.2688,-3365.3484)" x="0" y="0"/>
<use xlink:href="#p0" content="2,桑原脳神経外科医院,福岡県飯塚市伊岐須１３１,神経内科　脳神経外科　リハビリテーション科,,,9" xlink:title="桑原脳神経外科医院" transform="ref(svg,13066.6436,-3365.2984)" x="0" y="0"/>
<use xlink:href="#p0" content="2,（特養）くぬぎ苑医務室,福岡県飯塚市相田１１４-１,内科,,,9" xlink:title="（特養）くぬぎ苑医務室" transform="ref(svg,13066.1722,-3365.703)" x="0" y="0"/>
<use xlink:href="#p0" content="2,（医）アガペこどもクリニックもりた,福岡県飯塚市横田６４９-１０,内科　小児科,,,9" xlink:title="（医）アガペこどもクリニックもりた" transform="ref(svg,13066.7231,-3364.5278)" x="0" y="0"/>
<use xlink:href="#p0" content="2,心のクリニック・飯塚,福岡県飯塚市菰田西２-５-３４,精神科　神経科　心療内科,,,9" xlink:title="心のクリニック・飯塚" transform="ref(svg,13068.888,-3362.9492)" x="0" y="0"/>
<use xlink:href="#p0" content="2,近藤医院,福岡県飯塚市菰田西１-４-３,内科　消化器科　小児科,,,9" xlink:title="近藤医院" transform="ref(svg,13068.8341,-3362.6899)" x="0" y="0"/>
<use xlink:href="#p0" content="2,地域密着型介護老人福祉施設ことぶきの森医務室,福岡県飯塚市鯰田字水ヶ坂６９６-２１,内科,,,9" xlink:title="地域密着型介護老人福祉施設ことぶきの森医務室" transform="ref(svg,13071.5663,-3367.3989)" x="0" y="0"/>
<use xlink:href="#p0" content="2,さい医院,福岡県飯塚市菰田西２-１-２１,外科,,,9" xlink:title="さい医院" transform="ref(svg,13068.8942,-3362.9257)" x="0" y="0"/>
<use xlink:href="#p0" content="2,坂本医院,福岡県飯塚市目尾１２５６-１４,内科　皮膚科,,,9" xlink:title="坂本医院" transform="ref(svg,13071.0118,-3368.4229)" x="0" y="0"/>
<use xlink:href="#p0" content="2,坂元クリニック,福岡県飯塚市目尾７２０-３,内科　外科,,,9" xlink:title="坂元クリニック" transform="ref(svg,13070.2474,-3367.4374)" x="0" y="0"/>
<use xlink:href="#p0" content="2,佐藤医院,福岡県飯塚市勢田１２８６-４,内科　眼科　リハビリテーション科,,,9" xlink:title="佐藤医院" transform="ref(svg,13072.3971,-3368.7145)" x="0" y="0"/>
<use xlink:href="#p0" content="2,（医）佐藤眼科医院,福岡県飯塚市新飯塚６-２１,眼科,,,9" xlink:title="（医）佐藤眼科医院" transform="ref(svg,13069.2973,-3364.3881)" x="0" y="0"/>
<use xlink:href="#p0" content="2,（医）佐野医院,福岡県飯塚市綱分８４５-１,内科　消化器内科　小児科,,,9" xlink:title="（医）佐野医院" transform="ref(svg,13073.1341,-3363.4565)" x="0" y="0"/>
<use xlink:href="#p0" content="2,サン・ふれあい菰田診察室,福岡県飯塚市菰田１１５-２,内科,,,9" xlink:title="サン・ふれあい菰田診察室" transform="ref(svg,13069.0899,-3362.6156)" x="0" y="0"/>
<use xlink:href="#p0" content="2,（医）下津眼科医院,福岡県飯塚市菰田東２-３-３０,眼科,,,9" xlink:title="（医）下津眼科医院" transform="ref(svg,13069.0084,-3363.1552)" x="0" y="0"/>
<use xlink:href="#p0" content="2,（医）白水医院,福岡県飯塚市鯰田２３６０,内科　小児科,,,9" xlink:title="（医）白水医院" transform="ref(svg,13069.82,-3365.829)" x="0" y="0"/>
<use xlink:href="#p0" content="2,新飯塚診療所,福岡県飯塚市柏の森９４６-６,内科　小児科　皮膚科,,,9" xlink:title="新飯塚診療所" transform="ref(svg,13069.5005,-3364.1625)" x="0" y="0"/>
<use xlink:href="#p0" content="2,（医）康和会柴田みえこ内科・神経内科クリニック,福岡県飯塚市鶴三緒１５４７-１０,神経内科　内科　リハビリテーション科,,,9" xlink:title="（医）康和会柴田みえこ内科・神経内科クリニック" transform="ref(svg,13070.1289,-3362.3968)" x="0" y="0"/>
<use xlink:href="#p0" content="2,（医）産婦人科・麻酔科すどうクリニック,福岡県飯塚市菰田西１-４-２２,産婦人科　麻酔科,,,9" xlink:title="（医）産婦人科・麻酔科すどうクリニック" transform="ref(svg,13068.7587,-3362.636)" x="0" y="0"/>
<use xlink:href="#p0" content="2,角田整形外科医院,福岡県飯塚市吉原町１-８,整形外科　理学療法科,,,9" xlink:title="角田整形外科医院" transform="ref(svg,13068.5597,-3364.1569)" x="0" y="0"/>
<use xlink:href="#p0" content="2,セナクリニック,福岡県飯塚市秋松５５９-５,内科　皮膚科　美容外科,,,9" xlink:title="セナクリニック" transform="ref(svg,13067.7502,-3362.6151)" x="0" y="0"/>
<use xlink:href="#p0" content="2,（医）千手医院,福岡県飯塚市西町４-４８,内科　呼吸器科　小児科,,,9" xlink:title="（医）千手医院" transform="ref(svg,13068.041,-3364.0684)" x="0" y="0"/>
<use xlink:href="#p0" content="2,そうだレディースクリニック,福岡県飯塚市新飯塚４-５,産婦人科,,,9" xlink:title="そうだレディースクリニック" transform="ref(svg,13069.2708,-3364.4851)" x="0" y="0"/>
<use xlink:href="#p0" content="2,そばしま内科循環器科,福岡県飯塚市新飯塚２１-２１,内科　循環器内科,,,9" xlink:title="そばしま内科循環器科" transform="ref(svg,13068.9117,-3364.4718)" x="0" y="0"/>
<use xlink:href="#p0" content="2,（医）たかた皮ふ科医院,福岡県飯塚市菰田西１-５-４,皮膚科,,,9" xlink:title="（医）たかた皮ふ科医院" transform="ref(svg,13068.7251,-3362.7801)" x="0" y="0"/>
<use xlink:href="#p0" content="2,武冨内科医院,福岡県飯塚市飯塚１０-２２,内科　胃腸科　小児科,,,9" xlink:title="武冨内科医院" transform="ref(svg,13068.5814,-3363.6232)" x="0" y="0"/>
<use xlink:href="#p0" content="2,（医）田代医院,福岡県飯塚市吉原町２-１８,皮膚科,,,9" xlink:title="（医）田代医院" transform="ref(svg,13068.5422,-3364.1069)" x="0" y="0"/>
<use xlink:href="#p0" content="2,立神医院,福岡県飯塚市菰田東１-１０-６,内科　循環器科　呼吸器科　小児科　外科,,,9" xlink:title="立神医院" transform="ref(svg,13069.4495,-3362.9265)" x="0" y="0"/>
<use xlink:href="#p0" content="2,（医）田中医院,福岡県飯塚市天道４１５-１,小児科　内科,,,9" xlink:title="（医）田中医院" transform="ref(svg,13067.5851,-3360.3439)" x="0" y="0"/>
<use xlink:href="#p0" content="2,（医）田中クリニック,福岡県飯塚市本町１７-１２,産科　婦人科,,,9" xlink:title="（医）田中クリニック" transform="ref(svg,13068.2622,-3363.9712)" x="0" y="0"/>
<use xlink:href="#p0" content="2,（医）田中耳鼻咽喉科医院,福岡県飯塚市飯塚６-１,耳鼻咽喉科,,,9" xlink:title="（医）田中耳鼻咽喉科医院" transform="ref(svg,13068.6731,-3363.5839)" x="0" y="0"/>
<use xlink:href="#p0" content="2,谷口胃腸科内科医院,福岡県飯塚市本町１７-１２,内科　胃腸科　消化器科　小児科,,,9" xlink:title="谷口胃腸科内科医院" transform="ref(svg,13068.3086,-3363.9549)" x="0" y="0"/>
<use xlink:href="#p0" content="2,多田泌尿器科クリニック,福岡県飯塚市吉原町５３７,泌尿器科　皮膚科,,,9" xlink:title="多田泌尿器科クリニック" transform="ref(svg,13068.5369,-3364.2831)" x="0" y="0"/>
<use xlink:href="#p0" content="2,（特養）太陽の郷医務室,福岡県飯塚市下三緒６９０,内科,,,9" xlink:title="（特養）太陽の郷医務室" transform="ref(svg,13070.1261,-3363.2881)" x="0" y="0"/>
<use xlink:href="#p0" content="2,（特養）多田の里医務室,福岡県飯塚市多田３０９-１１,内科,,,9" xlink:title="（特養）多田の里医務室" transform="ref(svg,13074.2067,-3364.3975)" x="0" y="0"/>
<use xlink:href="#p0" content="2,（身体障害者療護施設）大地の森医務室,福岡県飯塚市佐与１４９７-２,内科,,,9" xlink:title="（身体障害者療護施設）大地の森医務室" transform="ref(svg,13071.6214,-3367.3787)" x="0" y="0"/>
<use xlink:href="#p0" content="2,（特養）第二いずみ苑医務室,福岡県飯塚市庄司字鴨居２００３-４,内科,,,9" xlink:title="（特養）第二いずみ苑医務室" transform="ref(svg,13066.2114,-3367.3244)" x="0" y="0"/>
<use xlink:href="#p0" content="2,（医）塚本クリニック,福岡県飯塚市平塚８８-２,内科　消化器科　外科,,,9" xlink:title="（医）塚本クリニック" transform="ref(svg,13066.4989,-3358.0645)" x="0" y="0"/>
<use xlink:href="#p0" content="2,津川診療所,福岡県飯塚市新飯塚１８-１２,内科　小児科,,,9" xlink:title="津川診療所" transform="ref(svg,13069.0383,-3364.3185)" x="0" y="0"/>
<use xlink:href="#p0" content="2,（特養）つばき苑医務室,福岡県飯塚市椿６２３-８,内科,,,9" xlink:title="（特養）つばき苑医務室" transform="ref(svg,13065.2127,-3361.9034)" x="0" y="0"/>
<use xlink:href="#p0" content="2,（特養）天寿園医務室,福岡県飯塚市高田１６７,内科,,,9" xlink:title="（特養）天寿園医務室" transform="ref(svg,13063.8981,-3359.555)" x="0" y="0"/>
<use xlink:href="#p0" content="2,（特養）天空の杜,福岡県飯塚市平恒１８１-１,内科,,,9" xlink:title="（特養）天空の杜" transform="ref(svg,13068.6683,-3361.1422)" x="0" y="0"/>
<use xlink:href="#p0" content="2,徳永眼科医院,福岡県飯塚市楽市１４１-２,眼科,,,9" xlink:title="徳永眼科医院" transform="ref(svg,13068.0649,-3361.6544)" x="0" y="0"/>
<use xlink:href="#p0" content="2,豊永医院,福岡県飯塚市吉原町１-９,胃腸内科　肛門外科,,,9" xlink:title="豊永医院" transform="ref(svg,13068.56,-3364.1706)" x="0" y="0"/>
<use xlink:href="#p0" content="2,永山小児科医院,福岡県飯塚市西徳前９-２４,小児科,,,9" xlink:title="永山小児科医院" transform="ref(svg,13067.9381,-3363.634)" x="0" y="0"/>
<use xlink:href="#p0" content="2,（医）中武眼科クリニック,福岡県飯塚市西町２-１１,眼科,,,9" xlink:title="（医）中武眼科クリニック" transform="ref(svg,13068.1967,-3363.908)" x="0" y="0"/>
<use xlink:href="#p0" content="2,（医）中武内科クリニック,福岡県飯塚市吉原町１-２０,内科　消化器科　循環器科　リハビリテーション科,,,9" xlink:title="（医）中武内科クリニック" transform="ref(svg,13068.5706,-3364.1891)" x="0" y="0"/>
<use xlink:href="#p0" content="2,（医）中野医院,福岡県飯塚市新飯塚５-７,内科　消化器科,,,9" xlink:title="（医）中野医院" transform="ref(svg,13069.2787,-3364.4136)" x="0" y="0"/>
<use xlink:href="#p0" content="2,奈田クリニック,福岡県飯塚市横田３２５-１,内科　小児科　胃腸内科　外科,,,9" xlink:title="奈田クリニック" transform="ref(svg,13067.2052,-3364.325)" x="0" y="0"/>
<use xlink:href="#p0" content="2,（医）鯰田診療所,福岡県飯塚市鯰田５９３,内科　循環器科,,,9" xlink:title="（医）鯰田診療所" transform="ref(svg,13071.183,-3367.1045)" x="0" y="0"/>
<use xlink:href="#p0" content="2,ナワタ消化器外科医院,福岡県飯塚市横田３３４,内科　胃腸科　外科　麻酔科,,,9" xlink:title="ナワタ消化器外科医院" transform="ref(svg,13067.3479,-3364.1618)" x="0" y="0"/>
<use xlink:href="#p0" content="2,なかおクリニック,福岡県飯塚市堀池２５４-１,外科　胃腸内科　消化器内科　肛門外科　リハビリテーション科,,,9" xlink:title="なかおクリニック" transform="ref(svg,13068.2054,-3362.4601)" x="0" y="0"/>
<use xlink:href="#p0" content="2,（医）向陽会西田内科クリニック,福岡県飯塚市上三緒８８９-１,内科　循環器科,,,9" xlink:title="（医）向陽会西田内科クリニック" transform="ref(svg,13070.8327,-3362.8651)" x="0" y="0"/>
<use xlink:href="#p0" content="2,（医）西園内科クリニック,福岡県飯塚市小正４０-１,内科　消化器科　リハビリテーション科,,,9" xlink:title="（医）西園内科クリニック" transform="ref(svg,13066.3309,-3362.5048)" x="0" y="0"/>
<use xlink:href="#p0" content="2,（医）西原内科消化器科クリニック,福岡県飯塚市新立岩４-１０,内科　胃腸科　消化器科　循環器科,,,9" xlink:title="（医）西原内科消化器科クリニック" transform="ref(svg,13069.1866,-3364.5792)" x="0" y="0"/>
<use xlink:href="#p0" content="2,二宮医院,福岡県飯塚市潤野８５５,内科　小児科　胃腸科　循環器科,,,9" xlink:title="二宮医院" transform="ref(svg,13066.1675,-3363.1959)" x="0" y="0"/>
<use xlink:href="#p0" content="2,野見山内科消化器科小児科医院,福岡県飯塚市伊川４０６-１,内科　消化器科　小児科,,,9" xlink:title="野見山内科消化器科小児科医院" transform="ref(svg,13064.8867,-3365.0506)" x="0" y="0"/>
<use xlink:href="#p0" content="2,橋川整形外科医院,福岡県飯塚市枝国２６９-６,整形外科,,,9" xlink:title="橋川整形外科医院" transform="ref(svg,13067.6477,-3363.462)" x="0" y="0"/>
<use xlink:href="#p0" content="2,長谷川整形外科医院,福岡県飯塚市本町１１６２-８,整形外科　リハビリテーション科,,,9" xlink:title="長谷川整形外科医院" transform="ref(svg,13068.5753,-3364.0307)" x="0" y="0"/>
<use xlink:href="#p0" content="2,（医）林医院,福岡県飯塚市相田２６２-３,内科　小児科　呼吸器科　胃腸科,,,9" xlink:title="（医）林医院" transform="ref(svg,13066.0139,-3365.6578)" x="0" y="0"/>
<use xlink:href="#p0" content="2,（医）林田胃腸科医院,福岡県飯塚市片島２-５-４,内科　胃腸科　放射線科,,,9" xlink:title="（医）林田胃腸科医院" transform="ref(svg,13068.4213,-3364.6662)" x="0" y="0"/>
<use xlink:href="#p0" content="2,はやかわ漢方クリニック,福岡県飯塚市大日寺１２６-１,漢方内科　皮膚科,,,9" xlink:title="はやかわ漢方クリニック" transform="ref(svg,13064.7963,-3363.9854)" x="0" y="0"/>
<use xlink:href="#p0" content="2,（特養）白龍園医務室,福岡県飯塚市綱分９６６-２,内科,,,9" xlink:title="（特養）白龍園医務室" transform="ref(svg,13073.2612,-3363.2301)" x="0" y="0"/>
<use xlink:href="#p0" content="2,（身体障害者療護施設）梅香苑の医務室,福岡県飯塚市大日寺１２１３-１,内科,,,9" xlink:title="（身体障害者療護施設）梅香苑の医務室" transform="ref(svg,13063.3667,-3363.5221)" x="0" y="0"/>
<use xlink:href="#p0" content="2,（医）恵藹パークシティクリニック,福岡県飯塚市枝国４９５-１５,眼科,,,9" xlink:title="（医）恵藹パークシティクリニック" transform="ref(svg,13067.4296,-3363.5095)" x="0" y="0"/>
<use xlink:href="#p0" content="2,泌尿器科Ｃ．Ｕ．クリニック,福岡県飯塚市川津４０５-１,内科　泌尿器科,,,9" xlink:title="泌尿器科Ｃ．Ｕ．クリニック" transform="ref(svg,13067.5718,-3364.7793)" x="0" y="0"/>
<use xlink:href="#p0" content="2,（医）ひじい小児科クリニック,福岡県飯塚市川津８４-１,小児科　アレルギー科,,,9" xlink:title="（医）ひじい小児科クリニック" transform="ref(svg,13068.1045,-3365.6114)" x="0" y="0"/>
<use xlink:href="#p0" content="2,（医）広瀬医院,福岡県飯塚市綱分７５６,内科　小児科　リハビリテーション科　麻酔科,,,9" xlink:title="（医）広瀬医院" transform="ref(svg,13072.9056,-3363.9108)" x="0" y="0"/>
<use xlink:href="#p0" content="2,廣畑クリニック,福岡県飯塚市西町２-８７,内科　精神科　神経科　神経内科,,,9" xlink:title="廣畑クリニック" transform="ref(svg,13068.1603,-3363.9668)" x="0" y="0"/>
<use xlink:href="#p0" content="2,（社福）新光会光ヶ丘学園医務室,福岡県飯塚市勢田１１９-１４,精神科,,,9" xlink:title="（社福）新光会光ヶ丘学園医務室" transform="ref(svg,13073.9881,-3368.6687)" x="0" y="0"/>
<use xlink:href="#p0" content="2,（医）樋口医院,福岡県飯塚市横田８３８,内科　循環器科　小児科,,,9" xlink:title="（医）樋口医院" transform="ref(svg,13066.8589,-3365.0651)" x="0" y="0"/>
<use xlink:href="#p0" content="2,ふくはだ皮ふ科医院,福岡県飯塚市相田２５９-１００,皮膚科,,,9" xlink:title="ふくはだ皮ふ科医院" transform="ref(svg,13066.0715,-3365.6641)" x="0" y="0"/>
<use xlink:href="#p0" content="2,藤井泌尿器科医院,福岡県飯塚市飯塚８-２０,泌尿器科,,,9" xlink:title="藤井泌尿器科医院" transform="ref(svg,13068.611,-3363.5105)" x="0" y="0"/>
<use xlink:href="#p0" content="2,細川小児科内科医院,福岡県飯塚市鯰田１７７２,小児科　内科,,,9" xlink:title="細川小児科内科医院" transform="ref(svg,13070.1839,-3366.7733)" x="0" y="0"/>
<use xlink:href="#p0" content="2,（医）穂波整形外科医院,福岡県飯塚市太郎丸７４２,整形外科,,,9" xlink:title="（医）穂波整形外科医院" transform="ref(svg,13067.1483,-3360.5933)" x="0" y="0"/>
<use xlink:href="#p0" content="2,松浦医院,福岡県飯塚市飯塚１９-２０,内科　小児科　放射科,,,9" xlink:title="松浦医院" transform="ref(svg,13068.3404,-3363.7045)" x="0" y="0"/>
<use xlink:href="#p0" content="2,（医）松岡産婦人科医院,福岡県飯塚市飯塚１０-１０,産婦人科　女性内科　漢方内科,,,9" xlink:title="（医）松岡産婦人科医院" transform="ref(svg,13068.5984,-3363.6102)" x="0" y="0"/>
<use xlink:href="#p0" content="2,松口循環器科・内科医院,福岡県飯塚市楽市１３１-１,内科　循環器科,,,9" xlink:title="松口循環器科・内科医院" transform="ref(svg,13068.0705,-3361.525)" x="0" y="0"/>
<use xlink:href="#p0" content="2,松隈眼科医院,福岡県飯塚市吉原町２-２,眼科,,,9" xlink:title="松隈眼科医院" transform="ref(svg,13068.5384,-3364.0966)" x="0" y="0"/>
<use xlink:href="#p0" content="2,まつなり医院,福岡県飯塚市庄司３６-５,内科　小児科　呼吸器科　リハビリテーション科,,,9" xlink:title="まつなり医院" transform="ref(svg,13067.4423,-3367.3703)" x="0" y="0"/>
<use xlink:href="#p0" content="2,丸野クリニック,福岡県飯塚市立岩１３０８-１２,精神科　心療内科,,,9" xlink:title="丸野クリニック" transform="ref(svg,13069.5686,-3364.9393)" x="0" y="0"/>
<use xlink:href="#p0" content="2,三笠外科医院,福岡県飯塚市中４９７,外科　整形外科　胃腸科,,,9" xlink:title="三笠外科医院" transform="ref(svg,13068.403,-3366.4493)" x="0" y="0"/>
<use xlink:href="#p0" content="2,光井医院,福岡県飯塚市伊岐須２９５,小児科　内科　外科,,,9" xlink:title="光井医院" transform="ref(svg,13067.06,-3365.7955)" x="0" y="0"/>
<use xlink:href="#p0" content="2,（医）三井皮膚科クリニック,福岡県飯塚市吉原町７-１５,皮膚科,,,9" xlink:title="（医）三井皮膚科クリニック" transform="ref(svg,13068.7148,-3364.062)" x="0" y="0"/>
<use xlink:href="#p0" content="2,（医）宮嶋外科内科医院,福岡県飯塚市忠隈３８０,内科　外科　胃腸科　小児科,,,9" xlink:title="（医）宮嶋外科内科医院" transform="ref(svg,13068.4348,-3362.3139)" x="0" y="0"/>
<use xlink:href="#p0" content="2,宮嶋耳鼻咽喉科,福岡県飯塚市南尾４００-１,耳鼻咽喉科　気管食道外科　アレルギー科,,,9" xlink:title="宮嶋耳鼻咽喉科" transform="ref(svg,13068.1419,-3361.7104)" x="0" y="0"/>
<use xlink:href="#p0" content="2,元山医院,福岡県飯塚市川津２０６-１,内科　皮膚科　婦人科　アレルギー科,,,9" xlink:title="元山医院" transform="ref(svg,13068.0242,-3365.1364)" x="0" y="0"/>
<use xlink:href="#p0" content="2,（医）弥永内科小児科医院,福岡県飯塚市鯰田２５１７-２０１,内科　小児科　胃腸科,,,9" xlink:title="（医）弥永内科小児科医院" transform="ref(svg,13070.3229,-3365.274)" x="0" y="0"/>
<use xlink:href="#p0" content="2,矢山医院,福岡県飯塚市西町１８２７-４１,耳鼻咽喉科,,,9" xlink:title="矢山医院" transform="ref(svg,13067.6282,-3364.1019)" x="0" y="0"/>
<use xlink:href="#p0" content="2,横山内科小児科医院,福岡県飯塚市中３２８,内科　小児科,,,9" xlink:title="横山内科小児科医院" transform="ref(svg,13068.27,-3366.7038)" x="0" y="0"/>
<use xlink:href="#p0" content="2,陸上自衛隊飯塚駐屯地医務室,福岡県飯塚市津島２８２,内科　外科　歯科,,,9" xlink:title="陸上自衛隊飯塚駐屯地医務室" transform="ref(svg,13067.8131,-3367.8431)" x="0" y="0"/>
<use xlink:href="#p0" content="2,いわみハートクリニック,福岡県嘉麻市鴨生２１６-２０,内科　心臓血管内科　皮膚科　眼科,,,9" xlink:title="いわみハートクリニック" transform="ref(svg,13073.1744,-3360.8557)" x="0" y="0"/>
<use xlink:href="#p0" content="2,稲築愛恵医院,福岡県嘉麻市鴨生２２２,内科　外科　整形外科　リハビリテーション科　循環器内科,,,9" xlink:title="稲築愛恵医院" transform="ref(svg,13072.9322,-3360.6314)" x="0" y="0"/>
<use xlink:href="#p0" content="2,軽費老人ホーム稲穂園医務室,福岡県嘉麻市山野２３７３-１１６,内科　外科,,,9" xlink:title="軽費老人ホーム稲穂園医務室" transform="ref(svg,13070.6462,-3360.0623)" x="0" y="0"/>
<use xlink:href="#p0" content="2,大塚内科クリニック,福岡県嘉麻市下臼井１０８２-１１５,内科　消化器科　循環器科　小児科　リハビリテーション科,,,9" xlink:title="大塚内科クリニック" transform="ref(svg,13070.017,-3357.4966)" x="0" y="0"/>
<use xlink:href="#p0" content="2,大森外科医院,福岡県嘉麻市漆生１５７９-１,外科　整形外科　こう門外科　リハビリテーション科,,,9" xlink:title="大森外科医院" transform="ref(svg,13071.9765,-3358.9999)" x="0" y="0"/>
<use xlink:href="#p0" content="2,（医）金丸医院,福岡県嘉麻市漆生１６０３,内科,,,9" xlink:title="（医）金丸医院" transform="ref(svg,13071.931,-3358.7794)" x="0" y="0"/>
<use xlink:href="#p0" content="2,菊原内科クリニック,福岡県嘉麻市鴨生９４-２９,内科　胃腸科　外科　整形外科,,,9" xlink:title="菊原内科クリニック" transform="ref(svg,13073.3631,-3360.644)" x="0" y="0"/>
<use xlink:href="#p0" content="2,軽費老人ホーム三光園医務室,福岡県嘉麻市下山田１０３８-３,内科,,,9" xlink:title="軽費老人ホーム三光園医務室" transform="ref(svg,13075.7172,-3358.0031)" x="0" y="0"/>
<use xlink:href="#p0" content="2,三愛園医務室,福岡県嘉麻市岩崎１３７３-２,内科,,,9" xlink:title="三愛園医務室" transform="ref(svg,13071.0711,-3359.3513)" x="0" y="0"/>
<use xlink:href="#p0" content="2,（知的障害者更生施設）清浄学園医務室,福岡県嘉麻市漆生１０６２-７,精神科,,,9" xlink:title="（知的障害者更生施設）清浄学園医務室" transform="ref(svg,13072.8446,-3358.0748)" x="0" y="0"/>
<use xlink:href="#p0" content="2,（特養）第二稲穂園医務室,福岡県嘉麻市山野２３７３-１４５,内科,,,9" xlink:title="（特養）第二稲穂園医務室" transform="ref(svg,13070.682,-3360.1115)" x="0" y="0"/>
<use xlink:href="#p0" content="2,（医）平野医院,福岡県嘉麻市鴨生６５１-４,内科　小児科　アレルギー科,,,9" xlink:title="（医）平野医院" transform="ref(svg,13072.5186,-3360.7531)" x="0" y="0"/>
<use xlink:href="#p0" content="2,（医）杏友会馬郡医院,福岡県嘉麻市鴨生１９２,内科　小児科　消化器科　リハビリテーション科,,,9" xlink:title="（医）杏友会馬郡医院" transform="ref(svg,13073.2742,-3361.0852)" x="0" y="0"/>
<use xlink:href="#p0" content="2,（特養）松寿園医務室,福岡県嘉麻市漆生２３３８-１,内科,,,9" xlink:title="（特養）松寿園医務室" transform="ref(svg,13070.8839,-3358.8522)" x="0" y="0"/>
<use xlink:href="#p0" content="2,（医）医聖会諫山医院,福岡県嘉穂郡桂川町豆田４０４,内科　整形外科　リハビリテーション科,,,9" xlink:title="（医）医聖会諫山医院" transform="ref(svg,13066.7028,-3358.2721)" x="0" y="0"/>
<use xlink:href="#p0" content="2,内田外科内科医院,福岡県嘉穂郡桂川町土居１２７０-１０,内科　外科　小児科　胃腸科　整形外科　放射科　リハビリテーション科,,,9" xlink:title="内田外科内科医院" transform="ref(svg,13067.0484,-3358.5301)" x="0" y="0"/>
<use xlink:href="#p0" content="2,（医）きはら内科消化器科医院,福岡県嘉穂郡桂川町土師２１９９-１１,内科　消化器科　小児科　リハビリテーション科,,,9" xlink:title="（医）きはら内科消化器科医院" transform="ref(svg,13067.9844,-3357.8552)" x="0" y="0"/>
<use xlink:href="#p0" content="2,養護老人ホーム白藤の苑医務室,福岡県嘉穂郡桂川町吉隈１３-９６,内科,,,9" xlink:title="養護老人ホーム白藤の苑医務室" transform="ref(svg,13069.7213,-3358.5258)" x="0" y="0"/>
<use xlink:href="#p0" content="2,（特養）第二白藤の苑医務室,福岡県嘉穂郡桂川町吉隈１３-９６,内科,,,9" xlink:title="（特養）第二白藤の苑医務室" transform="ref(svg,13069.7213,-3358.5258)" x="0" y="0"/>
<use xlink:href="#p0" content="2,青見内科医院,福岡県直方市大字上新入２４９０-７,内科　呼吸器科　消化器科　循環器科,,,9" xlink:title="青見内科医院" transform="ref(svg,13071.3892,-3374.167)" x="0" y="0"/>
<use xlink:href="#p0" content="2,阿部眼科医院,福岡県直方市溝堀２-３-１３,眼科,,,9" xlink:title="阿部眼科医院" transform="ref(svg,13073.0799,-3373.2686)" x="0" y="0"/>
<use xlink:href="#p0" content="2,（特養）愛和園医務室,福岡県直方市中泉１１８２-２５,内科,,,9" xlink:title="（特養）愛和園医務室" transform="ref(svg,13073.7177,-3371.5548)" x="0" y="0"/>
<use xlink:href="#p0" content="2,（医）江浦医院,福岡県直方市殿町１０-３８,耳鼻咽喉科,,,9" xlink:title="（医）江浦医院" transform="ref(svg,13072.8428,-3374.3592)" x="0" y="0"/>
<use xlink:href="#p0" content="2,駅前通り眼科,福岡県直方市大字山部字上原田２４４-１５,眼科　小児眼科,,,9" xlink:title="駅前通り眼科" transform="ref(svg,13072.5261,-3374.7239)" x="0" y="0"/>
<use xlink:href="#p0" content="2,（医）香月内科医院,福岡県直方市大字下境１１４７-２,内科　小児科　リハビリテーション科　循環器内科　呼吸器内科　消化器内科,,,9" xlink:title="（医）香月内科医院" transform="ref(svg,13074.8584,-3372.9145)" x="0" y="0"/>
<use xlink:href="#p0" content="2,（医）ことぶき会川波医院,福岡県直方市津田町１１-３２,内科　呼吸器科　胃腸科　放射線科,,,9" xlink:title="（医）ことぶき会川波医院" transform="ref(svg,13072.8947,-3374.8385)" x="0" y="0"/>
<use xlink:href="#p0" content="2,（医）白石内科医院,福岡県直方市殿町１１-１８,内科　神経内科　リハビリテーション科,,,9" xlink:title="（医）白石内科医院" transform="ref(svg,13072.7947,-3374.3041)" x="0" y="0"/>
<use xlink:href="#p0" content="2,（医）薫風会菅原内科呼吸器科医院,福岡県直方市大字頓野２１０４-３１,内科　呼吸器科,,,9" xlink:title="（医）薫風会菅原内科呼吸器科医院" transform="ref(svg,13074.7825,-3374.8033)" x="0" y="0"/>
<use xlink:href="#p0" content="2,（医）関屋内科クリニック,福岡県直方市殿町９-３,内科,,,9" xlink:title="（医）関屋内科クリニック" transform="ref(svg,13072.9123,-3374.3938)" x="0" y="0"/>
<use xlink:href="#p0" content="2,（医）高橋内科クリニック,福岡県直方市大字頓野３８０３-１,内科　循環器科,,,9" xlink:title="（医）高橋内科クリニック" transform="ref(svg,13073.631,-3374.9089)" x="0" y="0"/>
<use xlink:href="#p0" content="2,（医）武田医院,福岡県直方市古町１６-３,内科　胃腸内科　肛門内科,,,9" xlink:title="（医）武田医院" transform="ref(svg,13072.6782,-3374.8385)" x="0" y="0"/>
<use xlink:href="#p0" content="2,（医）田代医院,福岡県直方市溝堀３-５-４１,内科　小児科　脳神経外科　外科,,,9" xlink:title="（医）田代医院" transform="ref(svg,13073.115,-3373.3197)" x="0" y="0"/>
<use xlink:href="#p0" content="2,指定障害者支援施設鷹取学園医務室,福岡県直方市大字下境字鬼ケ坂３３６-１１,内科　精神科　歯科,,,9" xlink:title="指定障害者支援施設鷹取学園医務室" transform="ref(svg,13075.4022,-3373.3039)" x="0" y="0"/>
<use xlink:href="#p0" content="2,戸田医院,福岡県直方市中泉４０１,内科　小児科　放射線科,,,9" xlink:title="戸田医院" transform="ref(svg,13074.3346,-3372.1256)" x="0" y="0"/>
<use xlink:href="#p0" content="2,殿町医院,福岡県直方市殿町１３-１０,内科　胃腸科　外科,,,9" xlink:title="殿町医院" transform="ref(svg,13072.8115,-3374.4467)" x="0" y="0"/>
<use xlink:href="#p0" content="2,（医）中村医院,福岡県直方市古町３-７,内科,,,9" xlink:title="（医）中村医院" transform="ref(svg,13072.7352,-3374.8885)" x="0" y="0"/>
<use xlink:href="#p0" content="2,西尾外科医院,福岡県直方市大字中泉２７６-１,胃腸科　外科　整形外科,,,9" xlink:title="西尾外科医院" transform="ref(svg,13074.207,-3372.2094)" x="0" y="0"/>
<use xlink:href="#p0" content="2,西田外科医院,福岡県直方市頓野２１０４-１９,胃腸科　外科　肛門科,,,9" xlink:title="西田外科医院" transform="ref(svg,13074.9306,-3374.778)" x="0" y="0"/>
<use xlink:href="#p0" content="2,西村眼科クリニック,福岡県直方市津田町１-２８,眼科,,,9" xlink:title="西村眼科クリニック" transform="ref(svg,13072.8837,-3374.8939)" x="0" y="0"/>
<use xlink:href="#p0" content="2,直方・鞍手広域市町村圏事務組合休日等急患センター,福岡県直方市山部８０８-１４,内科　小児科,,,9" xlink:title="直方・鞍手広域市町村圏事務組合休日等急患センター" transform="ref(svg,13071.762,-3374.3573)" x="0" y="0"/>
<use xlink:href="#p0" content="2,直方診療所,福岡県直方市大字山部字喜籐太５０４,内科,,,9" xlink:title="直方診療所" transform="ref(svg,13072.2696,-3374.8308)" x="0" y="0"/>
<use xlink:href="#p0" content="2,養護老人ホーム芳壽園医務室,福岡県直方市下境１７９４,内科,,,9" xlink:title="養護老人ホーム芳壽園医務室" transform="ref(svg,13073.8019,-3372.8994)" x="0" y="0"/>
<use xlink:href="#p0" content="2,みずほ内科・歯科クリニック,福岡県直方市上境２９１-１,内科　老年内科　循環器内科　心療内科　呼吸器内科　神経内科　歯科　小児歯科,,,9" xlink:title="みずほ内科・歯科クリニック" transform="ref(svg,13075.9751,-3372.5688)" x="0" y="0"/>
<use xlink:href="#p0" content="2,山名眼科診療所,福岡県直方市津田町１１-２７,眼科,,,9" xlink:title="山名眼科診療所" transform="ref(svg,13072.8905,-3374.8161)" x="0" y="0"/>
<use xlink:href="#p0" content="2,（医）安倍眼科医院,福岡県宮若市長井鶴２３８-１,内科　眼科　リハビリテーション科,,,9" xlink:title="（医）安倍眼科医院" transform="ref(svg,13065.4454,-3372.9883)" x="0" y="0"/>
<use xlink:href="#p0" content="2,あらまき内科クリニック,福岡県宮若市本城字坂井６７８-４,内科　糖尿病内科　代謝内科　内分泌内科,,,9" xlink:title="あらまき内科クリニック" transform="ref(svg,13067.5669,-3373.1552)" x="0" y="0"/>
<use xlink:href="#p0" content="2,（医）志成会祷若宮医院,福岡県宮若市沼口９６７-１,内科　胃腸科　循環器科　リハビリテーション科,,,9" xlink:title="（医）志成会祷若宮医院" transform="ref(svg,13061.1385,-3373.6762)" x="0" y="0"/>
<use xlink:href="#p0" content="2,尾上小児科医院,福岡県宮若市宮田７６-５,小児科,,,9" xlink:title="尾上小児科医院" transform="ref(svg,13066.7831,-3372.2371)" x="0" y="0"/>
<use xlink:href="#p0" content="2,ごとう医院,福岡県宮若市磯光１３７９-９,内科,,,9" xlink:title="ごとう医院" transform="ref(svg,13068.4766,-3371.1123)" x="0" y="0"/>
<use xlink:href="#p0" content="2,（医）下川医院,福岡県宮若市鶴田１７９４-２１２,内科　呼吸器内科　循環器内科　消化器内科　外科　整形外科　皮膚科,,,9" xlink:title="（医）下川医院" transform="ref(svg,13069.0842,-3371.7847)" x="0" y="0"/>
<use xlink:href="#p0" content="2,（特養）照陽園医務室,福岡県宮若市磯光２１５９-１,内科,,,9" xlink:title="（特養）照陽園医務室" transform="ref(svg,13067.0383,-3370.082)" x="0" y="0"/>
<use xlink:href="#p0" content="2,（医）菅井眼科麻酔科医院,福岡県宮若市宮田４８３９-２,眼科　麻酔科,,,9" xlink:title="（医）菅井眼科麻酔科医院" transform="ref(svg,13066.5973,-3372.5959)" x="0" y="0"/>
<use xlink:href="#p0" content="2,（医）菅井整形外科医院,福岡県宮若市龍徳１１０６-１７,整形外科　リハビリテーション科　麻酔科　内科,,,9" xlink:title="（医）菅井整形外科医院" transform="ref(svg,13068.6216,-3373.1687)" x="0" y="0"/>
<use xlink:href="#p0" content="2,杉坂クリニック,福岡県宮若市大字宮田２４１-１３６,内科　呼吸器科　胃腸科　外科　肛門科　リハビリテーション科,,,9" xlink:title="杉坂クリニック" transform="ref(svg,13066.8273,-3371.7916)" x="0" y="0"/>
<use xlink:href="#p0" content="2,（医）杉山内科医院,福岡県宮若市福丸２０４-６,内科　胃腸科,,,9" xlink:title="（医）杉山内科医院" transform="ref(svg,13062.5082,-3372.878)" x="0" y="0"/>
<use xlink:href="#p0" content="2,千々和耳鼻科医院,福岡県宮若市本城７２９-３,耳鼻咽喉科　気管食道科,,,9" xlink:title="千々和耳鼻科医院" transform="ref(svg,13067.0438,-3372.8567)" x="0" y="0"/>
<use xlink:href="#p0" content="2,中野医院,福岡県宮若市宮田４７９５,内科　リハビリテーション科,,,9" xlink:title="中野医院" transform="ref(svg,13066.263,-3372.5484)" x="0" y="0"/>
<use xlink:href="#p0" content="2,（特養）和（のどか）医務室,福岡県宮若市磯光１２９４-１,内科,,,9" xlink:title="（特養）和（のどか）医務室" transform="ref(svg,13068.3112,-3370.5092)" x="0" y="0"/>
<use xlink:href="#p0" content="2,養護老人ホーム白寿園医務室,福岡県宮若市鶴田１８８１-７,内科,,,9" xlink:title="養護老人ホーム白寿園医務室" transform="ref(svg,13068.9181,-3373.4931)" x="0" y="0"/>
<use xlink:href="#p0" content="2,（医）藤井医院,福岡県宮若市本城４３６,内科　循環器科,,,9" xlink:title="（医）藤井医院" transform="ref(svg,13067.0513,-3372.6368)" x="0" y="0"/>
<use xlink:href="#p0" content="2,（医）緑光会本城医院,福岡県宮若市本城２２７８,皮膚科　リハビリテーション科,,,9" xlink:title="（医）緑光会本城医院" transform="ref(svg,13067.9262,-3373.3926)" x="0" y="0"/>
<use xlink:href="#p0" content="2,身体障害者療護施設みやた苑医務室,福岡県宮若市長井鶴８８５-１,内科,,,9" xlink:title="身体障害者療護施設みやた苑医務室" transform="ref(svg,13064.5939,-3373.4847)" x="0" y="0"/>
<use xlink:href="#p0" content="2,（医）山近内科医院,福岡県宮若市本城５６９-１,内科　消化器科,,,9" xlink:title="（医）山近内科医院" transform="ref(svg,13066.8049,-3372.7075)" x="0" y="0"/>
<use xlink:href="#p0" content="2,（医）相生会宮田病院附属山桜クリニック,福岡県宮若市本城７２３,内科　消化器内科　循環器内科　リハビリテーション科,,,9" xlink:title="（医）相生会宮田病院附属山桜クリニック" transform="ref(svg,13067.0293,-3372.9009)" x="0" y="0"/>
<use xlink:href="#p0" content="2,吉原循環器科内科,福岡県宮若市竹原２９９-１,内科　循環器科,,,9" xlink:title="吉原循環器科内科" transform="ref(svg,13062.0091,-3372.8525)" x="0" y="0"/>
<use xlink:href="#p0" content="2,（特養）やすらぎ園医務室,福岡県鞍手郡鞍手町木月１８２６-１,内科,,,9" xlink:title="（特養）やすらぎ園医務室" transform="ref(svg,13069.9698,-3370.1076)" x="0" y="0"/>
<use xlink:href="#p0" content="2,加来医院,福岡県鞍手郡小竹町勝野３５４７-２,内科　胃腸科　小児科　放射線科,,,9" xlink:title="加来医院" transform="ref(svg,13071.1064,-3369.1534)" x="0" y="0"/>
<use xlink:href="#p0" content="2,加藤整形外科クリニック,福岡県鞍手郡小竹町勝野３４７４-１,整形外科　リウマチ科　リハビリテーション科,,,9" xlink:title="加藤整形外科クリニック" transform="ref(svg,13071.3114,-3369.0409)" x="0" y="0"/>
<use xlink:href="#p0" content="2,（医）菊地医院,福岡県鞍手郡小竹町御徳１９７２-２,内科　整形外科　リハビリテーション科,,,9" xlink:title="（医）菊地医院" transform="ref(svg,13071.3426,-3371.8409)" x="0" y="0"/>
<use xlink:href="#p0" content="2,（特養）新多園医務室,福岡県鞍手郡小竹町大字新多１７７-８,内科,,,9" xlink:title="（特養）新多園医務室" transform="ref(svg,13069.0078,-3369.6046)" x="0" y="0"/>
<use xlink:href="#p0" content="2,林医院,福岡県鞍手郡小竹町新山崎１０３９-１,内科　消化器科　外科　リハビリテーション科,,,9" xlink:title="林医院" transform="ref(svg,13070.2848,-3370.8006)" x="0" y="0"/>
<use xlink:href="#p0" content="2,軽費老人ホーム福寿園医務室,福岡県鞍手郡小竹町勝野１７５１,内科,,,9" xlink:title="軽費老人ホーム福寿園医務室" transform="ref(svg,13069.9702,-3370.1071)" x="0" y="0"/>
<use xlink:href="#p0" content="2,（医）田中医院,福岡県田川市大字弓削田３１４１-１,内科　小児科,,,9" xlink:title="（医）田中医院" transform="ref(svg,13077.3335,-3363.5353)" x="0" y="0"/>
<use xlink:href="#p0" content="2,あおぞら診療所,福岡県田川郡糸田町１６９８-１,内科,,,9" xlink:title="あおぞら診療所" transform="ref(svg,13077.3993,-3365.5224)" x="0" y="0"/>
<use xlink:href="#p0" content="2,（医）諫山医院,福岡県田川郡糸田町４０９８-１,内科　小児科　皮膚科,,,9" xlink:title="（医）諫山医院" transform="ref(svg,13078.0764,-3367.2304)" x="0" y="0"/>
<use xlink:href="#p0" content="2,（特養）長寿園医務室,福岡県田川郡糸田町大熊４１５４-２,内科,,,9" xlink:title="（特養）長寿園医務室" transform="ref(svg,13078.1221,-3366.8991)" x="0" y="0"/>
<use xlink:href="#p0" content="2,（特養）豊寿園医務室,福岡県田川郡糸田町１７０４,内科,,,9" xlink:title="（特養）豊寿園医務室" transform="ref(svg,13077.512,-3365.4932)" x="0" y="0"/>
<use xlink:href="#p0" content="2,吉田医院,福岡県田川郡糸田町大熊４１４５-２,内科　循環器科,,,9" xlink:title="吉田医院" transform="ref(svg,13077.9024,-3367.2406)" x="0" y="0"/>
<use xlink:href="#p0" content="2,（医）赤池協同医院,福岡県田川郡福智町赤池５２１,内科　小児科　胃腸科　リハビリテーション科　整形外科,,,9" xlink:title="（医）赤池協同医院" transform="ref(svg,13076.3898,-3369.5051)" x="0" y="0"/>
<use xlink:href="#p0" content="2,宇都宮医院,福岡県田川郡福智町金田９２４-４,内科　小児科,,,9" xlink:title="宇都宮医院" transform="ref(svg,13078.0437,-3368.1482)" x="0" y="0"/>
<use xlink:href="#p0" content="2,（特養）慶寿園医務室,福岡県田川郡福智町上野３１７５-３,内科,,,9" xlink:title="（特養）慶寿園医務室" transform="ref(svg,13077.8282,-3372.0232)" x="0" y="0"/>
<use xlink:href="#p0" content="2,国民健康保険福智町立コスモス診療所,福岡県田川郡福智町赤池９７０-１,内科　外科　整形外科　小児科　麻酔科　眼科　リハビリテーション科,,,9" xlink:title="国民健康保険福智町立コスモス診療所" transform="ref(svg,13076.3709,-3369.7703)" x="0" y="0"/>
<use xlink:href="#p0" content="2,身体障害者療護施設西友苑医務室,福岡県田川郡福智町神崎１５３３-１５１,内科,,,9" xlink:title="身体障害者療護施設西友苑医務室" transform="ref(svg,13076.1979,-3368.1724)" x="0" y="0"/>
<use xlink:href="#p0" content="2,（特養）第２長寿園医務室,福岡県田川郡福智町金田１２５７-２-１,内科,,,9" xlink:title="（特養）第２長寿園医務室" transform="ref(svg,13077.1352,-3368.2264)" x="0" y="0"/>
<use xlink:href="#p0" content="2,たくまクリニック,福岡県田川郡福智町金田１８５８-１０,内科　消内科　外科　ペインクリニック外科　リハビリテーション科,,,9" xlink:title="たくまクリニック" transform="ref(svg,13077.2133,-3368.8605)" x="0" y="0"/>
<use xlink:href="#p0" content="2,原田眼科,福岡県田川郡福智町赤池２４０-１,眼科,,,9" xlink:title="原田眼科" transform="ref(svg,13076.8052,-3369.2154)" x="0" y="0"/>
<use xlink:href="#p0" content="2,（特養）福智園医務室,福岡県田川郡福智町弁城４１９３-２８,内科　精神科　外科,,,9" xlink:title="（特養）福智園医務室" transform="ref(svg,13078.0154,-3369.6993)" x="0" y="0"/>
</g>
</svg>
