<?xml version="1.0" encoding="UTF-8"?>
<svg  xmlns="http://www.w3.org/2000/svg" xmlns:xlink="http://www.w3.org/1999/xlink" xmlns:go="http://purl.org/svgmap/profile" viewBox="12374.693694 -4552.224923 2206.5089170000006 2126.3241730000004" go:dataArea="12374.693694 -4552.224923 2206.5089170000006 2126.3241730000004" >
<metadata>
 <rdf:RDF xmlns:rdf="http://www.w3.org/1999/02/22-rdf-syntax-ns#" xmlns:crs="http://opengis.org/xmldtds/transformations.dtd" xmlns:svg="http://www.w3.org/svg" >
  <rdf:Description>
   <crs:CoordinateReferenceSystem rdf:resource="http://purl.org/crs/84" svg:transform="matrix(100.0,0.0,0.0,-100.0,0.0,0.0)" />
  </rdf:Description>
 </rdf:RDF>
</metadata>
<globalCoordinateSystem srsName="http://purl.org/crs/84" transform="matrix(100.0,0.0,0.0,-100.0,0.0,0.0)" />
<g >
<image xlink:href="tile1040_1487.png" preserveAspectRatio="none" x="13535.15625" y="-3482.666016" width="2.197266" height="2.197266"/>
<image xlink:href="tile1040_1486.png" preserveAspectRatio="none" x="13535.15625" y="-3484.863281" width="2.197266" height="2.197266"/>
<image xlink:href="tile1041_1487.png" preserveAspectRatio="none" x="13537.353516" y="-3482.666016" width="2.197266" height="2.197266"/>
<image xlink:href="tile1041_1486.png" preserveAspectRatio="none" x="13537.353516" y="-3484.863281" width="2.197266" height="2.197266"/>
<image xlink:href="tile1042_1487.png" preserveAspectRatio="none" x="13539.550781" y="-3482.666016" width="2.197266" height="2.197266"/>
<image xlink:href="tile1042_1486.png" preserveAspectRatio="none" x="13539.550781" y="-3484.863281" width="2.197266" height="2.197266"/>
<image xlink:href="tile1043_1487.png" preserveAspectRatio="none" x="13541.748047" y="-3482.666016" width="2.197266" height="2.197266"/>
<image xlink:href="tile1043_1486.png" preserveAspectRatio="none" x="13541.748047" y="-3484.863281" width="2.197266" height="2.197266"/>
<image xlink:href="tile1046_1487.png" preserveAspectRatio="none" x="13548.339844" y="-3482.666016" width="2.197266" height="2.197266"/>
<image xlink:href="tile1046_1486.png" preserveAspectRatio="none" x="13548.339844" y="-3484.863281" width="2.197266" height="2.197266"/>
<image xlink:href="tile1047_1487.png" preserveAspectRatio="none" x="13550.537109" y="-3482.666016" width="2.197266" height="2.197266"/>
<image xlink:href="tile1047_1486.png" preserveAspectRatio="none" x="13550.537109" y="-3484.863281" width="2.197266" height="2.197266"/>
<image xlink:href="tile1048_1487.png" preserveAspectRatio="none" x="13552.734375" y="-3482.666016" width="2.197266" height="2.197266"/>
<image xlink:href="tile1048_1486.png" preserveAspectRatio="none" x="13552.734375" y="-3484.863281" width="2.197266" height="2.197266"/>
<image xlink:href="tile1049_1487.png" preserveAspectRatio="none" x="13554.931641" y="-3482.666016" width="2.197266" height="2.197266"/>
<image xlink:href="tile1049_1486.png" preserveAspectRatio="none" x="13554.931641" y="-3484.863281" width="2.197266" height="2.197266"/>
<image xlink:href="tile1050_1487.png" preserveAspectRatio="none" x="13557.128906" y="-3482.666016" width="2.197266" height="2.197266"/>
<image xlink:href="tile1050_1486.png" preserveAspectRatio="none" x="13557.128906" y="-3484.863281" width="2.197266" height="2.197266"/>
<image xlink:href="tile1050_1485.png" preserveAspectRatio="none" x="13557.128906" y="-3487.060547" width="2.197266" height="2.197266"/>
<image xlink:href="tile1050_1484.png" preserveAspectRatio="none" x="13557.128906" y="-3489.257812" width="2.197266" height="2.197266"/>
<image xlink:href="tile1051_1487.png" preserveAspectRatio="none" x="13559.326172" y="-3482.666016" width="2.197266" height="2.197266"/>
<image xlink:href="tile1051_1486.png" preserveAspectRatio="none" x="13559.326172" y="-3484.863281" width="2.197266" height="2.197266"/>
<image xlink:href="tile1051_1485.png" preserveAspectRatio="none" x="13559.326172" y="-3487.060547" width="2.197266" height="2.197266"/>
<image xlink:href="tile1051_1484.png" preserveAspectRatio="none" x="13559.326172" y="-3489.257812" width="2.197266" height="2.197266"/>
<image xlink:href="tile1052_1485.png" preserveAspectRatio="none" x="13561.523438" y="-3487.060547" width="2.197266" height="2.197266"/>
<image xlink:href="tile1052_1484.png" preserveAspectRatio="none" x="13561.523438" y="-3489.257812" width="2.197266" height="2.197266"/>
<image xlink:href="tile1053_1485.png" preserveAspectRatio="none" x="13563.720703" y="-3487.060547" width="2.197266" height="2.197266"/>
<image xlink:href="tile1053_1484.png" preserveAspectRatio="none" x="13563.720703" y="-3489.257812" width="2.197266" height="2.197266"/>
<image xlink:href="tile1054_1485.png" preserveAspectRatio="none" x="13565.917969" y="-3487.060547" width="2.197266" height="2.197266"/>
<image xlink:href="tile1054_1484.png" preserveAspectRatio="none" x="13565.917969" y="-3489.257812" width="2.197266" height="2.197266"/>
<image xlink:href="tile1054_1483.png" preserveAspectRatio="none" x="13565.917969" y="-3491.455078" width="2.197266" height="2.197266"/>
<image xlink:href="tile1054_1482.png" preserveAspectRatio="none" x="13565.917969" y="-3493.652344" width="2.197266" height="2.197266"/>
<image xlink:href="tile1054_1481.png" preserveAspectRatio="none" x="13565.917969" y="-3495.849609" width="2.197266" height="2.197266"/>
<image xlink:href="tile1054_1480.png" preserveAspectRatio="none" x="13565.917969" y="-3498.046875" width="2.197266" height="2.197266"/>
<image xlink:href="tile1055_1485.png" preserveAspectRatio="none" x="13568.115234" y="-3487.060547" width="2.197266" height="2.197266"/>
<image xlink:href="tile1055_1484.png" preserveAspectRatio="none" x="13568.115234" y="-3489.257812" width="2.197266" height="2.197266"/>
<image xlink:href="tile1055_1483.png" preserveAspectRatio="none" x="13568.115234" y="-3491.455078" width="2.197266" height="2.197266"/>
<image xlink:href="tile1055_1482.png" preserveAspectRatio="none" x="13568.115234" y="-3493.652344" width="2.197266" height="2.197266"/>
<image xlink:href="tile1055_1481.png" preserveAspectRatio="none" x="13568.115234" y="-3495.849609" width="2.197266" height="2.197266"/>
<image xlink:href="tile1055_1480.png" preserveAspectRatio="none" x="13568.115234" y="-3498.046875" width="2.197266" height="2.197266"/>
</g>
</svg>
