<?xml version="1.0" encoding="UTF-8"?>
<svg  xmlns="http://www.w3.org/2000/svg" xmlns:xlink="http://www.w3.org/1999/xlink" xmlns:go="http://purl.org/svgmap/profile" viewBox="12374.693694 -4552.224923 2206.5089170000006 2126.3241730000004" go:dataArea="12374.693694 -4552.224923 2206.5089170000006 2126.3241730000004" >
<metadata>
 <rdf:RDF xmlns:rdf="http://www.w3.org/1999/02/22-rdf-syntax-ns#" xmlns:crs="http://opengis.org/xmldtds/transformations.dtd" xmlns:svg="http://www.w3.org/svg" >
  <rdf:Description>
   <crs:CoordinateReferenceSystem rdf:resource="http://purl.org/crs/84" svg:transform="matrix(100.0,0.0,0.0,-100.0,0.0,0.0)" />
  </rdf:Description>
 </rdf:RDF>
</metadata>
<globalCoordinateSystem srsName="http://purl.org/crs/84" transform="matrix(100.0,0.0,0.0,-100.0,0.0,0.0)" />
<g >
<image xlink:href="tile1200_1471.png" preserveAspectRatio="none" x="13886.71875" y="-3517.822266" width="2.197266" height="2.197266"/>
<image xlink:href="tile1200_1470.png" preserveAspectRatio="none" x="13886.71875" y="-3520.019531" width="2.197266" height="2.197266"/>
<image xlink:href="tile1200_1469.png" preserveAspectRatio="none" x="13886.71875" y="-3522.216797" width="2.197266" height="2.197266"/>
<image xlink:href="tile1200_1468.png" preserveAspectRatio="none" x="13886.71875" y="-3524.414062" width="2.197266" height="2.197266"/>
<image xlink:href="tile1200_1467.png" preserveAspectRatio="none" x="13886.71875" y="-3526.611328" width="2.197266" height="2.197266"/>
<image xlink:href="tile1200_1466.png" preserveAspectRatio="none" x="13886.71875" y="-3528.808594" width="2.197266" height="2.197266"/>
<image xlink:href="tile1201_1471.png" preserveAspectRatio="none" x="13888.916016" y="-3517.822266" width="2.197266" height="2.197266"/>
<image xlink:href="tile1201_1470.png" preserveAspectRatio="none" x="13888.916016" y="-3520.019531" width="2.197266" height="2.197266"/>
<image xlink:href="tile1201_1469.png" preserveAspectRatio="none" x="13888.916016" y="-3522.216797" width="2.197266" height="2.197266"/>
<image xlink:href="tile1201_1468.png" preserveAspectRatio="none" x="13888.916016" y="-3524.414062" width="2.197266" height="2.197266"/>
<image xlink:href="tile1201_1467.png" preserveAspectRatio="none" x="13888.916016" y="-3526.611328" width="2.197266" height="2.197266"/>
<image xlink:href="tile1201_1466.png" preserveAspectRatio="none" x="13888.916016" y="-3528.808594" width="2.197266" height="2.197266"/>
<image xlink:href="tile1202_1467.png" preserveAspectRatio="none" x="13891.113281" y="-3526.611328" width="2.197266" height="2.197266"/>
<image xlink:href="tile1202_1466.png" preserveAspectRatio="none" x="13891.113281" y="-3528.808594" width="2.197266" height="2.197266"/>
<image xlink:href="tile1202_1465.png" preserveAspectRatio="none" x="13891.113281" y="-3531.005859" width="2.197266" height="2.197266"/>
<image xlink:href="tile1202_1464.png" preserveAspectRatio="none" x="13891.113281" y="-3533.203125" width="2.197266" height="2.197266"/>
<image xlink:href="tile1203_1466.png" preserveAspectRatio="none" x="13893.310547" y="-3528.808594" width="2.197266" height="2.197266"/>
<image xlink:href="tile1203_1465.png" preserveAspectRatio="none" x="13893.310547" y="-3531.005859" width="2.197266" height="2.197266"/>
<image xlink:href="tile1203_1464.png" preserveAspectRatio="none" x="13893.310547" y="-3533.203125" width="2.197266" height="2.197266"/>
<image xlink:href="tile1204_1465.png" preserveAspectRatio="none" x="13895.507812" y="-3531.005859" width="2.197266" height="2.197266"/>
<image xlink:href="tile1204_1464.png" preserveAspectRatio="none" x="13895.507812" y="-3533.203125" width="2.197266" height="2.197266"/>
<image xlink:href="tile1205_1465.png" preserveAspectRatio="none" x="13897.705078" y="-3531.005859" width="2.197266" height="2.197266"/>
<image xlink:href="tile1205_1464.png" preserveAspectRatio="none" x="13897.705078" y="-3533.203125" width="2.197266" height="2.197266"/>
<image xlink:href="tile1204_1463.png" preserveAspectRatio="none" x="13895.507812" y="-3535.400391" width="2.197266" height="2.197266"/>
<image xlink:href="tile1204_1462.png" preserveAspectRatio="none" x="13895.507812" y="-3537.597656" width="2.197266" height="2.197266"/>
<image xlink:href="tile1205_1463.png" preserveAspectRatio="none" x="13897.705078" y="-3535.400391" width="2.197266" height="2.197266"/>
<image xlink:href="tile1205_1462.png" preserveAspectRatio="none" x="13897.705078" y="-3537.597656" width="2.197266" height="2.197266"/>
<image xlink:href="tile1206_1463.png" preserveAspectRatio="none" x="13899.902344" y="-3535.400391" width="2.197266" height="2.197266"/>
<image xlink:href="tile1206_1462.png" preserveAspectRatio="none" x="13899.902344" y="-3537.597656" width="2.197266" height="2.197266"/>
<image xlink:href="tile1207_1462.png" preserveAspectRatio="none" x="13902.099609" y="-3537.597656" width="2.197266" height="2.197266"/>
<image xlink:href="tile1208_1469.png" preserveAspectRatio="none" x="13904.296875" y="-3522.216797" width="2.197266" height="2.197266"/>
<image xlink:href="tile1208_1468.png" preserveAspectRatio="none" x="13904.296875" y="-3524.414062" width="2.197266" height="2.197266"/>
<image xlink:href="tile1209_1469.png" preserveAspectRatio="none" x="13906.494141" y="-3522.216797" width="2.197266" height="2.197266"/>
<image xlink:href="tile1209_1468.png" preserveAspectRatio="none" x="13906.494141" y="-3524.414062" width="2.197266" height="2.197266"/>
<image xlink:href="tile1212_1467.png" preserveAspectRatio="none" x="13913.085938" y="-3526.611328" width="2.197266" height="2.197266"/>
<image xlink:href="tile1212_1466.png" preserveAspectRatio="none" x="13913.085938" y="-3528.808594" width="2.197266" height="2.197266"/>
<image xlink:href="tile1213_1467.png" preserveAspectRatio="none" x="13915.283203" y="-3526.611328" width="2.197266" height="2.197266"/>
<image xlink:href="tile1213_1466.png" preserveAspectRatio="none" x="13915.283203" y="-3528.808594" width="2.197266" height="2.197266"/>
<image xlink:href="tile1208_1463.png" preserveAspectRatio="none" x="13904.296875" y="-3535.400391" width="2.197266" height="2.197266"/>
<image xlink:href="tile1208_1462.png" preserveAspectRatio="none" x="13904.296875" y="-3537.597656" width="2.197266" height="2.197266"/>
<image xlink:href="tile1209_1463.png" preserveAspectRatio="none" x="13906.494141" y="-3535.400391" width="2.197266" height="2.197266"/>
<image xlink:href="tile1209_1462.png" preserveAspectRatio="none" x="13906.494141" y="-3537.597656" width="2.197266" height="2.197266"/>
<image xlink:href="tile1210_1463.png" preserveAspectRatio="none" x="13908.691406" y="-3535.400391" width="2.197266" height="2.197266"/>
<image xlink:href="tile1210_1462.png" preserveAspectRatio="none" x="13908.691406" y="-3537.597656" width="2.197266" height="2.197266"/>
<image xlink:href="tile1211_1463.png" preserveAspectRatio="none" x="13910.888672" y="-3535.400391" width="2.197266" height="2.197266"/>
<image xlink:href="tile1211_1462.png" preserveAspectRatio="none" x="13910.888672" y="-3537.597656" width="2.197266" height="2.197266"/>
<image xlink:href="tile1212_1463.png" preserveAspectRatio="none" x="13913.085938" y="-3535.400391" width="2.197266" height="2.197266"/>
<image xlink:href="tile1212_1462.png" preserveAspectRatio="none" x="13913.085938" y="-3537.597656" width="2.197266" height="2.197266"/>
<image xlink:href="tile1213_1463.png" preserveAspectRatio="none" x="13915.283203" y="-3535.400391" width="2.197266" height="2.197266"/>
<image xlink:href="tile1213_1462.png" preserveAspectRatio="none" x="13915.283203" y="-3537.597656" width="2.197266" height="2.197266"/>
<image xlink:href="tile1214_1463.png" preserveAspectRatio="none" x="13917.480469" y="-3535.400391" width="2.197266" height="2.197266"/>
<image xlink:href="tile1214_1462.png" preserveAspectRatio="none" x="13917.480469" y="-3537.597656" width="2.197266" height="2.197266"/>
<image xlink:href="tile1215_1463.png" preserveAspectRatio="none" x="13919.677734" y="-3535.400391" width="2.197266" height="2.197266"/>
<image xlink:href="tile1215_1462.png" preserveAspectRatio="none" x="13919.677734" y="-3537.597656" width="2.197266" height="2.197266"/>
</g>
</svg>
