<?xml version="1.0" encoding="UTF-8"?>
<svg  xmlns="http://www.w3.org/2000/svg" xmlns:xlink="http://www.w3.org/1999/xlink" xmlns:go="http://purl.org/svgmap/profile" viewBox="12374.693694 -4552.224923 2206.5089170000006 2126.3241730000004" go:dataArea="12374.693694 -4552.224923 2206.5089170000006 2126.3241730000004" >
<metadata>
 <rdf:RDF xmlns:rdf="http://www.w3.org/1999/02/22-rdf-syntax-ns#" xmlns:crs="http://opengis.org/xmldtds/transformations.dtd" xmlns:svg="http://www.w3.org/svg" >
  <rdf:Description>
   <crs:CoordinateReferenceSystem rdf:resource="http://purl.org/crs/84" svg:transform="matrix(100.0,0.0,0.0,-100.0,0.0,0.0)" />
  </rdf:Description>
 </rdf:RDF>
</metadata>
<globalCoordinateSystem srsName="http://purl.org/crs/84" transform="matrix(100.0,0.0,0.0,-100.0,0.0,0.0)" />
<g >
<image xlink:href="tile1300_1287.png" preserveAspectRatio="none" x="14106.445312" y="-3922.119141" width="2.197266" height="2.197266"/>
<image xlink:href="tile1300_1286.png" preserveAspectRatio="none" x="14106.445312" y="-3924.316406" width="2.197266" height="2.197266"/>
<image xlink:href="tile1300_1285.png" preserveAspectRatio="none" x="14106.445312" y="-3926.513672" width="2.197266" height="2.197266"/>
<image xlink:href="tile1300_1284.png" preserveAspectRatio="none" x="14106.445312" y="-3928.710938" width="2.197266" height="2.197266"/>
<image xlink:href="tile1300_1283.png" preserveAspectRatio="none" x="14106.445312" y="-3930.908203" width="2.197266" height="2.197266"/>
<image xlink:href="tile1300_1282.png" preserveAspectRatio="none" x="14106.445312" y="-3933.105469" width="2.197266" height="2.197266"/>
<image xlink:href="tile1300_1281.png" preserveAspectRatio="none" x="14106.445312" y="-3935.302734" width="2.197266" height="2.197266"/>
<image xlink:href="tile1300_1280.png" preserveAspectRatio="none" x="14106.445312" y="-3937.5" width="2.197266" height="2.197266"/>
<image xlink:href="tile1301_1287.png" preserveAspectRatio="none" x="14108.642578" y="-3922.119141" width="2.197266" height="2.197266"/>
<image xlink:href="tile1301_1286.png" preserveAspectRatio="none" x="14108.642578" y="-3924.316406" width="2.197266" height="2.197266"/>
<image xlink:href="tile1301_1285.png" preserveAspectRatio="none" x="14108.642578" y="-3926.513672" width="2.197266" height="2.197266"/>
<image xlink:href="tile1301_1284.png" preserveAspectRatio="none" x="14108.642578" y="-3928.710938" width="2.197266" height="2.197266"/>
<image xlink:href="tile1301_1283.png" preserveAspectRatio="none" x="14108.642578" y="-3930.908203" width="2.197266" height="2.197266"/>
<image xlink:href="tile1301_1282.png" preserveAspectRatio="none" x="14108.642578" y="-3933.105469" width="2.197266" height="2.197266"/>
<image xlink:href="tile1301_1281.png" preserveAspectRatio="none" x="14108.642578" y="-3935.302734" width="2.197266" height="2.197266"/>
<image xlink:href="tile1301_1280.png" preserveAspectRatio="none" x="14108.642578" y="-3937.5" width="2.197266" height="2.197266"/>
<image xlink:href="tile1300_1293.png" preserveAspectRatio="none" x="14106.445312" y="-3908.935547" width="2.197266" height="2.197266"/>
<image xlink:href="tile1300_1292.png" preserveAspectRatio="none" x="14106.445312" y="-3911.132812" width="2.197266" height="2.197266"/>
<image xlink:href="tile1301_1294.png" preserveAspectRatio="none" x="14108.642578" y="-3906.738281" width="2.197266" height="2.197266"/>
<image xlink:href="tile1301_1293.png" preserveAspectRatio="none" x="14108.642578" y="-3908.935547" width="2.197266" height="2.197266"/>
<image xlink:href="tile1301_1292.png" preserveAspectRatio="none" x="14108.642578" y="-3911.132812" width="2.197266" height="2.197266"/>
<image xlink:href="tile1302_1295.png" preserveAspectRatio="none" x="14110.839844" y="-3904.541016" width="2.197266" height="2.197266"/>
<image xlink:href="tile1302_1294.png" preserveAspectRatio="none" x="14110.839844" y="-3906.738281" width="2.197266" height="2.197266"/>
<image xlink:href="tile1302_1293.png" preserveAspectRatio="none" x="14110.839844" y="-3908.935547" width="2.197266" height="2.197266"/>
<image xlink:href="tile1302_1292.png" preserveAspectRatio="none" x="14110.839844" y="-3911.132812" width="2.197266" height="2.197266"/>
<image xlink:href="tile1302_1291.png" preserveAspectRatio="none" x="14110.839844" y="-3913.330078" width="2.197266" height="2.197266"/>
<image xlink:href="tile1302_1290.png" preserveAspectRatio="none" x="14110.839844" y="-3915.527344" width="2.197266" height="2.197266"/>
<image xlink:href="tile1302_1289.png" preserveAspectRatio="none" x="14110.839844" y="-3917.724609" width="2.197266" height="2.197266"/>
<image xlink:href="tile1302_1288.png" preserveAspectRatio="none" x="14110.839844" y="-3919.921875" width="2.197266" height="2.197266"/>
<image xlink:href="tile1303_1295.png" preserveAspectRatio="none" x="14113.037109" y="-3904.541016" width="2.197266" height="2.197266"/>
<image xlink:href="tile1303_1294.png" preserveAspectRatio="none" x="14113.037109" y="-3906.738281" width="2.197266" height="2.197266"/>
<image xlink:href="tile1303_1293.png" preserveAspectRatio="none" x="14113.037109" y="-3908.935547" width="2.197266" height="2.197266"/>
<image xlink:href="tile1303_1292.png" preserveAspectRatio="none" x="14113.037109" y="-3911.132812" width="2.197266" height="2.197266"/>
<image xlink:href="tile1303_1291.png" preserveAspectRatio="none" x="14113.037109" y="-3913.330078" width="2.197266" height="2.197266"/>
<image xlink:href="tile1303_1290.png" preserveAspectRatio="none" x="14113.037109" y="-3915.527344" width="2.197266" height="2.197266"/>
<image xlink:href="tile1303_1289.png" preserveAspectRatio="none" x="14113.037109" y="-3917.724609" width="2.197266" height="2.197266"/>
<image xlink:href="tile1303_1288.png" preserveAspectRatio="none" x="14113.037109" y="-3919.921875" width="2.197266" height="2.197266"/>
</g>
</svg>
