<?xml version="1.0" encoding="UTF-8"?>
<svg  xmlns="http://www.w3.org/2000/svg" xmlns:xlink="http://www.w3.org/1999/xlink" xmlns:go="http://purl.org/svgmap/profile" viewBox="12294.3395628 -4552.25938934 2286.925250200001 2145.97908934" go:dataArea="12294.3395628 -4552.25938934 2286.925250200001 2145.97908934" >
<metadata>
 <rdf:RDF xmlns:rdf="http://www.w3.org/1999/02/22-rdf-syntax-ns#" xmlns:crs="http://opengis.org/xmldtds/transformations.dtd" xmlns:svg="http://www.w3.org/svg" >
  <rdf:Description>
   <crs:CoordinateReferenceSystem rdf:resource="http://purl.org/crs/84" svg:transform="matrix(100.0,0.0,0.0,-100.0,0.0,0.0)" />
  </rdf:Description>
 </rdf:RDF>
</metadata>
<globalCoordinateSystem srsName="http://purl.org/crs/84" transform="matrix(100.0,0.0,0.0,-100.0,0.0,0.0)" />
<g >
<image xlink:href="tile258_315.png" preserveAspectRatio="none" x="13535.15625" y="-3462.890625" width="17.578125" height="17.578125"/>
<image xlink:href="tile258_314.png" preserveAspectRatio="none" x="13535.15625" y="-3480.46875" width="17.578125" height="17.578125"/>
<image xlink:href="tile258_313.png" preserveAspectRatio="none" x="13535.15625" y="-3498.046875" width="17.578125" height="17.578125"/>
<image xlink:href="tile258_312.png" preserveAspectRatio="none" x="13535.15625" y="-3515.625" width="17.578125" height="17.578125"/>
<image xlink:href="tile259_315.png" preserveAspectRatio="none" x="13552.734375" y="-3462.890625" width="17.578125" height="17.578125"/>
<image xlink:href="tile259_314.png" preserveAspectRatio="none" x="13552.734375" y="-3480.46875" width="17.578125" height="17.578125"/>
<image xlink:href="tile259_313.png" preserveAspectRatio="none" x="13552.734375" y="-3498.046875" width="17.578125" height="17.578125"/>
<image xlink:href="tile259_312.png" preserveAspectRatio="none" x="13552.734375" y="-3515.625" width="17.578125" height="17.578125"/>
<image xlink:href="tile260_315.png" preserveAspectRatio="none" x="13570.3125" y="-3462.890625" width="17.578125" height="17.578125"/>
<image xlink:href="tile260_314.png" preserveAspectRatio="none" x="13570.3125" y="-3480.46875" width="17.578125" height="17.578125"/>
<image xlink:href="tile260_313.png" preserveAspectRatio="none" x="13570.3125" y="-3498.046875" width="17.578125" height="17.578125"/>
<image xlink:href="tile260_312.png" preserveAspectRatio="none" x="13570.3125" y="-3515.625" width="17.578125" height="17.578125"/>
<image xlink:href="tile261_315.png" preserveAspectRatio="none" x="13587.890625" y="-3462.890625" width="17.578125" height="17.578125"/>
<image xlink:href="tile261_314.png" preserveAspectRatio="none" x="13587.890625" y="-3480.46875" width="17.578125" height="17.578125"/>
<image xlink:href="tile261_313.png" preserveAspectRatio="none" x="13587.890625" y="-3498.046875" width="17.578125" height="17.578125"/>
<image xlink:href="tile261_312.png" preserveAspectRatio="none" x="13587.890625" y="-3515.625" width="17.578125" height="17.578125"/>
<image xlink:href="tile262_307.png" preserveAspectRatio="none" x="13605.46875" y="-3603.515625" width="17.578125" height="17.578125"/>
<image xlink:href="tile262_306.png" preserveAspectRatio="none" x="13605.46875" y="-3621.09375" width="17.578125" height="17.578125"/>
<image xlink:href="tile263_307.png" preserveAspectRatio="none" x="13623.046875" y="-3603.515625" width="17.578125" height="17.578125"/>
<image xlink:href="tile263_306.png" preserveAspectRatio="none" x="13623.046875" y="-3621.09375" width="17.578125" height="17.578125"/>
<image xlink:href="tile264_313.png" preserveAspectRatio="none" x="13640.625" y="-3498.046875" width="17.578125" height="17.578125"/>
<image xlink:href="tile264_312.png" preserveAspectRatio="none" x="13640.625" y="-3515.625" width="17.578125" height="17.578125"/>
<image xlink:href="tile264_311.png" preserveAspectRatio="none" x="13640.625" y="-3533.203125" width="17.578125" height="17.578125"/>
<image xlink:href="tile264_310.png" preserveAspectRatio="none" x="13640.625" y="-3550.78125" width="17.578125" height="17.578125"/>
<image xlink:href="tile265_313.png" preserveAspectRatio="none" x="13658.203125" y="-3498.046875" width="17.578125" height="17.578125"/>
<image xlink:href="tile265_312.png" preserveAspectRatio="none" x="13658.203125" y="-3515.625" width="17.578125" height="17.578125"/>
<image xlink:href="tile265_311.png" preserveAspectRatio="none" x="13658.203125" y="-3533.203125" width="17.578125" height="17.578125"/>
<image xlink:href="tile265_310.png" preserveAspectRatio="none" x="13658.203125" y="-3550.78125" width="17.578125" height="17.578125"/>
<image xlink:href="tile266_313.png" preserveAspectRatio="none" x="13675.78125" y="-3498.046875" width="17.578125" height="17.578125"/>
<image xlink:href="tile266_312.png" preserveAspectRatio="none" x="13675.78125" y="-3515.625" width="17.578125" height="17.578125"/>
<image xlink:href="tile266_311.png" preserveAspectRatio="none" x="13675.78125" y="-3533.203125" width="17.578125" height="17.578125"/>
<image xlink:href="tile266_310.png" preserveAspectRatio="none" x="13675.78125" y="-3550.78125" width="17.578125" height="17.578125"/>
<image xlink:href="tile267_313.png" preserveAspectRatio="none" x="13693.359375" y="-3498.046875" width="17.578125" height="17.578125"/>
<image xlink:href="tile267_312.png" preserveAspectRatio="none" x="13693.359375" y="-3515.625" width="17.578125" height="17.578125"/>
<image xlink:href="tile267_311.png" preserveAspectRatio="none" x="13693.359375" y="-3533.203125" width="17.578125" height="17.578125"/>
<image xlink:href="tile267_310.png" preserveAspectRatio="none" x="13693.359375" y="-3550.78125" width="17.578125" height="17.578125"/>
</g>
</svg>
