<?xml version="1.0" encoding="UTF-8"?>
<svg  xmlns="http://www.w3.org/2000/svg" xmlns:xlink="http://www.w3.org/1999/xlink" xmlns:go="http://purl.org/svgmap/profile" viewBox="12374.693694 -4552.224923 2206.5089170000006 2126.3241730000004" go:dataArea="12374.693694 -4552.224923 2206.5089170000006 2126.3241730000004" >
<metadata>
 <rdf:RDF xmlns:rdf="http://www.w3.org/1999/02/22-rdf-syntax-ns#" xmlns:crs="http://opengis.org/xmldtds/transformations.dtd" xmlns:svg="http://www.w3.org/svg" >
  <rdf:Description>
   <crs:CoordinateReferenceSystem rdf:resource="http://purl.org/crs/84" svg:transform="matrix(100.0,0.0,0.0,-100.0,0.0,0.0)" />
  </rdf:Description>
 </rdf:RDF>
</metadata>
<globalCoordinateSystem srsName="http://purl.org/crs/84" transform="matrix(100.0,0.0,0.0,-100.0,0.0,0.0)" />
<g >
<image xlink:href="tile200_410.png" preserveAspectRatio="none" x="13007.8125" y="-3146.484375" width="8.789062" height="8.789062"/>
<image xlink:href="tile201_411.png" preserveAspectRatio="none" x="13016.601562" y="-3137.695312" width="8.789062" height="8.789062"/>
<image xlink:href="tile201_410.png" preserveAspectRatio="none" x="13016.601562" y="-3146.484375" width="8.789062" height="8.789062"/>
<image xlink:href="tile202_411.png" preserveAspectRatio="none" x="13025.390625" y="-3137.695312" width="8.789062" height="8.789062"/>
<image xlink:href="tile202_410.png" preserveAspectRatio="none" x="13025.390625" y="-3146.484375" width="8.789062" height="8.789062"/>
<image xlink:href="tile202_409.png" preserveAspectRatio="none" x="13025.390625" y="-3155.273438" width="8.789062" height="8.789062"/>
<image xlink:href="tile202_408.png" preserveAspectRatio="none" x="13025.390625" y="-3164.0625" width="8.789062" height="8.789062"/>
<image xlink:href="tile203_411.png" preserveAspectRatio="none" x="13034.179688" y="-3137.695312" width="8.789062" height="8.789062"/>
<image xlink:href="tile203_410.png" preserveAspectRatio="none" x="13034.179688" y="-3146.484375" width="8.789062" height="8.789062"/>
<image xlink:href="tile203_409.png" preserveAspectRatio="none" x="13034.179688" y="-3155.273438" width="8.789062" height="8.789062"/>
<image xlink:href="tile203_408.png" preserveAspectRatio="none" x="13034.179688" y="-3164.0625" width="8.789062" height="8.789062"/>
<image xlink:href="tile204_413.png" preserveAspectRatio="none" x="13042.96875" y="-3120.117188" width="8.789062" height="8.789062"/>
<image xlink:href="tile204_412.png" preserveAspectRatio="none" x="13042.96875" y="-3128.90625" width="8.789062" height="8.789062"/>
<image xlink:href="tile204_411.png" preserveAspectRatio="none" x="13042.96875" y="-3137.695312" width="8.789062" height="8.789062"/>
<image xlink:href="tile204_410.png" preserveAspectRatio="none" x="13042.96875" y="-3146.484375" width="8.789062" height="8.789062"/>
<image xlink:href="tile204_409.png" preserveAspectRatio="none" x="13042.96875" y="-3155.273438" width="8.789062" height="8.789062"/>
<image xlink:href="tile204_408.png" preserveAspectRatio="none" x="13042.96875" y="-3164.0625" width="8.789062" height="8.789062"/>
<image xlink:href="tile205_413.png" preserveAspectRatio="none" x="13051.757812" y="-3120.117188" width="8.789062" height="8.789062"/>
<image xlink:href="tile205_412.png" preserveAspectRatio="none" x="13051.757812" y="-3128.90625" width="8.789062" height="8.789062"/>
<image xlink:href="tile205_411.png" preserveAspectRatio="none" x="13051.757812" y="-3137.695312" width="8.789062" height="8.789062"/>
<image xlink:href="tile205_410.png" preserveAspectRatio="none" x="13051.757812" y="-3146.484375" width="8.789062" height="8.789062"/>
<image xlink:href="tile205_409.png" preserveAspectRatio="none" x="13051.757812" y="-3155.273438" width="8.789062" height="8.789062"/>
<image xlink:href="tile205_408.png" preserveAspectRatio="none" x="13051.757812" y="-3164.0625" width="8.789062" height="8.789062"/>
<image xlink:href="tile206_415.png" preserveAspectRatio="none" x="13060.546875" y="-3102.539062" width="8.789062" height="8.789062"/>
<image xlink:href="tile206_414.png" preserveAspectRatio="none" x="13060.546875" y="-3111.328125" width="8.789062" height="8.789062"/>
<image xlink:href="tile206_413.png" preserveAspectRatio="none" x="13060.546875" y="-3120.117188" width="8.789062" height="8.789062"/>
<image xlink:href="tile206_412.png" preserveAspectRatio="none" x="13060.546875" y="-3128.90625" width="8.789062" height="8.789062"/>
<image xlink:href="tile206_411.png" preserveAspectRatio="none" x="13060.546875" y="-3137.695312" width="8.789062" height="8.789062"/>
<image xlink:href="tile206_409.png" preserveAspectRatio="none" x="13060.546875" y="-3155.273438" width="8.789062" height="8.789062"/>
<image xlink:href="tile206_408.png" preserveAspectRatio="none" x="13060.546875" y="-3164.0625" width="8.789062" height="8.789062"/>
<image xlink:href="tile207_414.png" preserveAspectRatio="none" x="13069.335938" y="-3111.328125" width="8.789062" height="8.789062"/>
<image xlink:href="tile207_413.png" preserveAspectRatio="none" x="13069.335938" y="-3120.117188" width="8.789062" height="8.789062"/>
<image xlink:href="tile207_412.png" preserveAspectRatio="none" x="13069.335938" y="-3128.90625" width="8.789062" height="8.789062"/>
<image xlink:href="tile207_411.png" preserveAspectRatio="none" x="13069.335938" y="-3137.695312" width="8.789062" height="8.789062"/>
<image xlink:href="tile207_410.png" preserveAspectRatio="none" x="13069.335938" y="-3146.484375" width="8.789062" height="8.789062"/>
<image xlink:href="tile207_409.png" preserveAspectRatio="none" x="13069.335938" y="-3155.273438" width="8.789062" height="8.789062"/>
<image xlink:href="tile207_408.png" preserveAspectRatio="none" x="13069.335938" y="-3164.0625" width="8.789062" height="8.789062"/>
<image xlink:href="tile200_402.png" preserveAspectRatio="none" x="13007.8125" y="-3216.796875" width="8.789062" height="8.789062"/>
<image xlink:href="tile200_401.png" preserveAspectRatio="none" x="13007.8125" y="-3225.585938" width="8.789062" height="8.789062"/>
<image xlink:href="tile200_400.png" preserveAspectRatio="none" x="13007.8125" y="-3234.375" width="8.789062" height="8.789062"/>
<image xlink:href="tile201_403.png" preserveAspectRatio="none" x="13016.601562" y="-3208.007812" width="8.789062" height="8.789062"/>
<image xlink:href="tile201_402.png" preserveAspectRatio="none" x="13016.601562" y="-3216.796875" width="8.789062" height="8.789062"/>
<image xlink:href="tile201_401.png" preserveAspectRatio="none" x="13016.601562" y="-3225.585938" width="8.789062" height="8.789062"/>
<image xlink:href="tile201_400.png" preserveAspectRatio="none" x="13016.601562" y="-3234.375" width="8.789062" height="8.789062"/>
<image xlink:href="tile202_407.png" preserveAspectRatio="none" x="13025.390625" y="-3172.851562" width="8.789062" height="8.789062"/>
<image xlink:href="tile202_406.png" preserveAspectRatio="none" x="13025.390625" y="-3181.640625" width="8.789062" height="8.789062"/>
<image xlink:href="tile202_405.png" preserveAspectRatio="none" x="13025.390625" y="-3190.429688" width="8.789062" height="8.789062"/>
<image xlink:href="tile202_404.png" preserveAspectRatio="none" x="13025.390625" y="-3199.21875" width="8.789062" height="8.789062"/>
<image xlink:href="tile202_403.png" preserveAspectRatio="none" x="13025.390625" y="-3208.007812" width="8.789062" height="8.789062"/>
<image xlink:href="tile202_402.png" preserveAspectRatio="none" x="13025.390625" y="-3216.796875" width="8.789062" height="8.789062"/>
<image xlink:href="tile203_407.png" preserveAspectRatio="none" x="13034.179688" y="-3172.851562" width="8.789062" height="8.789062"/>
<image xlink:href="tile203_406.png" preserveAspectRatio="none" x="13034.179688" y="-3181.640625" width="8.789062" height="8.789062"/>
<image xlink:href="tile203_405.png" preserveAspectRatio="none" x="13034.179688" y="-3190.429688" width="8.789062" height="8.789062"/>
<image xlink:href="tile203_404.png" preserveAspectRatio="none" x="13034.179688" y="-3199.21875" width="8.789062" height="8.789062"/>
<image xlink:href="tile203_403.png" preserveAspectRatio="none" x="13034.179688" y="-3208.007812" width="8.789062" height="8.789062"/>
<image xlink:href="tile203_402.png" preserveAspectRatio="none" x="13034.179688" y="-3216.796875" width="8.789062" height="8.789062"/>
<image xlink:href="tile204_407.png" preserveAspectRatio="none" x="13042.96875" y="-3172.851562" width="8.789062" height="8.789062"/>
<image xlink:href="tile204_406.png" preserveAspectRatio="none" x="13042.96875" y="-3181.640625" width="8.789062" height="8.789062"/>
<image xlink:href="tile204_405.png" preserveAspectRatio="none" x="13042.96875" y="-3190.429688" width="8.789062" height="8.789062"/>
<image xlink:href="tile204_404.png" preserveAspectRatio="none" x="13042.96875" y="-3199.21875" width="8.789062" height="8.789062"/>
<image xlink:href="tile204_403.png" preserveAspectRatio="none" x="13042.96875" y="-3208.007812" width="8.789062" height="8.789062"/>
<image xlink:href="tile204_402.png" preserveAspectRatio="none" x="13042.96875" y="-3216.796875" width="8.789062" height="8.789062"/>
<image xlink:href="tile204_401.png" preserveAspectRatio="none" x="13042.96875" y="-3225.585938" width="8.789062" height="8.789062"/>
<image xlink:href="tile204_400.png" preserveAspectRatio="none" x="13042.96875" y="-3234.375" width="8.789062" height="8.789062"/>
<image xlink:href="tile205_407.png" preserveAspectRatio="none" x="13051.757812" y="-3172.851562" width="8.789062" height="8.789062"/>
<image xlink:href="tile205_406.png" preserveAspectRatio="none" x="13051.757812" y="-3181.640625" width="8.789062" height="8.789062"/>
<image xlink:href="tile205_405.png" preserveAspectRatio="none" x="13051.757812" y="-3190.429688" width="8.789062" height="8.789062"/>
<image xlink:href="tile205_404.png" preserveAspectRatio="none" x="13051.757812" y="-3199.21875" width="8.789062" height="8.789062"/>
<image xlink:href="tile205_403.png" preserveAspectRatio="none" x="13051.757812" y="-3208.007812" width="8.789062" height="8.789062"/>
<image xlink:href="tile205_402.png" preserveAspectRatio="none" x="13051.757812" y="-3216.796875" width="8.789062" height="8.789062"/>
<image xlink:href="tile205_401.png" preserveAspectRatio="none" x="13051.757812" y="-3225.585938" width="8.789062" height="8.789062"/>
<image xlink:href="tile205_400.png" preserveAspectRatio="none" x="13051.757812" y="-3234.375" width="8.789062" height="8.789062"/>
<image xlink:href="tile206_407.png" preserveAspectRatio="none" x="13060.546875" y="-3172.851562" width="8.789062" height="8.789062"/>
<image xlink:href="tile206_406.png" preserveAspectRatio="none" x="13060.546875" y="-3181.640625" width="8.789062" height="8.789062"/>
<image xlink:href="tile206_405.png" preserveAspectRatio="none" x="13060.546875" y="-3190.429688" width="8.789062" height="8.789062"/>
<image xlink:href="tile206_404.png" preserveAspectRatio="none" x="13060.546875" y="-3199.21875" width="8.789062" height="8.789062"/>
<image xlink:href="tile206_403.png" preserveAspectRatio="none" x="13060.546875" y="-3208.007812" width="8.789062" height="8.789062"/>
<image xlink:href="tile206_402.png" preserveAspectRatio="none" x="13060.546875" y="-3216.796875" width="8.789062" height="8.789062"/>
<image xlink:href="tile206_401.png" preserveAspectRatio="none" x="13060.546875" y="-3225.585938" width="8.789062" height="8.789062"/>
<image xlink:href="tile206_400.png" preserveAspectRatio="none" x="13060.546875" y="-3234.375" width="8.789062" height="8.789062"/>
<image xlink:href="tile207_407.png" preserveAspectRatio="none" x="13069.335938" y="-3172.851562" width="8.789062" height="8.789062"/>
<image xlink:href="tile207_406.png" preserveAspectRatio="none" x="13069.335938" y="-3181.640625" width="8.789062" height="8.789062"/>
<image xlink:href="tile207_405.png" preserveAspectRatio="none" x="13069.335938" y="-3190.429688" width="8.789062" height="8.789062"/>
<image xlink:href="tile207_404.png" preserveAspectRatio="none" x="13069.335938" y="-3199.21875" width="8.789062" height="8.789062"/>
<image xlink:href="tile207_403.png" preserveAspectRatio="none" x="13069.335938" y="-3208.007812" width="8.789062" height="8.789062"/>
<image xlink:href="tile207_402.png" preserveAspectRatio="none" x="13069.335938" y="-3216.796875" width="8.789062" height="8.789062"/>
<image xlink:href="tile207_401.png" preserveAspectRatio="none" x="13069.335938" y="-3225.585938" width="8.789062" height="8.789062"/>
<image xlink:href="tile207_400.png" preserveAspectRatio="none" x="13069.335938" y="-3234.375" width="8.789062" height="8.789062"/>
</g>
</svg>
