<?xml version="1.0" encoding="UTF-8"?>
<svg  xmlns="http://www.w3.org/2000/svg" xmlns:xlink="http://www.w3.org/1999/xlink" xmlns:go="http://purl.org/svgmap/profile" viewBox="12374.693694 -4552.224923 2206.5089170000006 2126.3241730000004" go:dataArea="12374.693694 -4552.224923 2206.5089170000006 2126.3241730000004" >
<metadata>
 <rdf:RDF xmlns:rdf="http://www.w3.org/1999/02/22-rdf-syntax-ns#" xmlns:crs="http://opengis.org/xmldtds/transformations.dtd" xmlns:svg="http://www.w3.org/svg" >
  <rdf:Description>
   <crs:CoordinateReferenceSystem rdf:resource="http://purl.org/crs/84" svg:transform="matrix(100.0,0.0,0.0,-100.0,0.0,0.0)" />
  </rdf:Description>
 </rdf:RDF>
</metadata>
<globalCoordinateSystem srsName="http://purl.org/crs/84" transform="matrix(100.0,0.0,0.0,-100.0,0.0,0.0)" />
<g >
<image xlink:href="tile294_343.png" preserveAspectRatio="none" x="13833.984375" y="-3735.351562" width="8.789062" height="8.789062"/>
<image xlink:href="tile295_343.png" preserveAspectRatio="none" x="13842.773438" y="-3735.351562" width="8.789062" height="8.789062"/>
<image xlink:href="tile295_342.png" preserveAspectRatio="none" x="13842.773438" y="-3744.140625" width="8.789062" height="8.789062"/>
<image xlink:href="tile288_351.png" preserveAspectRatio="none" x="13781.25" y="-3665.039062" width="8.789062" height="8.789062"/>
<image xlink:href="tile288_350.png" preserveAspectRatio="none" x="13781.25" y="-3673.828125" width="8.789062" height="8.789062"/>
<image xlink:href="tile288_347.png" preserveAspectRatio="none" x="13781.25" y="-3700.195312" width="8.789062" height="8.789062"/>
<image xlink:href="tile288_346.png" preserveAspectRatio="none" x="13781.25" y="-3708.984375" width="8.789062" height="8.789062"/>
<image xlink:href="tile289_351.png" preserveAspectRatio="none" x="13790.039062" y="-3665.039062" width="8.789062" height="8.789062"/>
<image xlink:href="tile289_350.png" preserveAspectRatio="none" x="13790.039062" y="-3673.828125" width="8.789062" height="8.789062"/>
<image xlink:href="tile289_347.png" preserveAspectRatio="none" x="13790.039062" y="-3700.195312" width="8.789062" height="8.789062"/>
<image xlink:href="tile289_346.png" preserveAspectRatio="none" x="13790.039062" y="-3708.984375" width="8.789062" height="8.789062"/>
<image xlink:href="tile290_351.png" preserveAspectRatio="none" x="13798.828125" y="-3665.039062" width="8.789062" height="8.789062"/>
<image xlink:href="tile290_350.png" preserveAspectRatio="none" x="13798.828125" y="-3673.828125" width="8.789062" height="8.789062"/>
<image xlink:href="tile290_345.png" preserveAspectRatio="none" x="13798.828125" y="-3717.773438" width="8.789062" height="8.789062"/>
<image xlink:href="tile291_351.png" preserveAspectRatio="none" x="13807.617188" y="-3665.039062" width="8.789062" height="8.789062"/>
<image xlink:href="tile291_350.png" preserveAspectRatio="none" x="13807.617188" y="-3673.828125" width="8.789062" height="8.789062"/>
<image xlink:href="tile291_345.png" preserveAspectRatio="none" x="13807.617188" y="-3717.773438" width="8.789062" height="8.789062"/>
<image xlink:href="tile292_351.png" preserveAspectRatio="none" x="13816.40625" y="-3665.039062" width="8.789062" height="8.789062"/>
<image xlink:href="tile292_350.png" preserveAspectRatio="none" x="13816.40625" y="-3673.828125" width="8.789062" height="8.789062"/>
<image xlink:href="tile292_349.png" preserveAspectRatio="none" x="13816.40625" y="-3682.617188" width="8.789062" height="8.789062"/>
<image xlink:href="tile292_348.png" preserveAspectRatio="none" x="13816.40625" y="-3691.40625" width="8.789062" height="8.789062"/>
<image xlink:href="tile292_347.png" preserveAspectRatio="none" x="13816.40625" y="-3700.195312" width="8.789062" height="8.789062"/>
<image xlink:href="tile292_346.png" preserveAspectRatio="none" x="13816.40625" y="-3708.984375" width="8.789062" height="8.789062"/>
<image xlink:href="tile292_345.png" preserveAspectRatio="none" x="13816.40625" y="-3717.773438" width="8.789062" height="8.789062"/>
<image xlink:href="tile292_344.png" preserveAspectRatio="none" x="13816.40625" y="-3726.5625" width="8.789062" height="8.789062"/>
<image xlink:href="tile293_351.png" preserveAspectRatio="none" x="13825.195312" y="-3665.039062" width="8.789062" height="8.789062"/>
<image xlink:href="tile293_350.png" preserveAspectRatio="none" x="13825.195312" y="-3673.828125" width="8.789062" height="8.789062"/>
<image xlink:href="tile293_349.png" preserveAspectRatio="none" x="13825.195312" y="-3682.617188" width="8.789062" height="8.789062"/>
<image xlink:href="tile293_348.png" preserveAspectRatio="none" x="13825.195312" y="-3691.40625" width="8.789062" height="8.789062"/>
<image xlink:href="tile293_347.png" preserveAspectRatio="none" x="13825.195312" y="-3700.195312" width="8.789062" height="8.789062"/>
<image xlink:href="tile293_346.png" preserveAspectRatio="none" x="13825.195312" y="-3708.984375" width="8.789062" height="8.789062"/>
<image xlink:href="tile293_345.png" preserveAspectRatio="none" x="13825.195312" y="-3717.773438" width="8.789062" height="8.789062"/>
<image xlink:href="tile293_344.png" preserveAspectRatio="none" x="13825.195312" y="-3726.5625" width="8.789062" height="8.789062"/>
<image xlink:href="tile294_351.png" preserveAspectRatio="none" x="13833.984375" y="-3665.039062" width="8.789062" height="8.789062"/>
<image xlink:href="tile294_350.png" preserveAspectRatio="none" x="13833.984375" y="-3673.828125" width="8.789062" height="8.789062"/>
<image xlink:href="tile294_349.png" preserveAspectRatio="none" x="13833.984375" y="-3682.617188" width="8.789062" height="8.789062"/>
<image xlink:href="tile294_348.png" preserveAspectRatio="none" x="13833.984375" y="-3691.40625" width="8.789062" height="8.789062"/>
<image xlink:href="tile294_347.png" preserveAspectRatio="none" x="13833.984375" y="-3700.195312" width="8.789062" height="8.789062"/>
<image xlink:href="tile294_346.png" preserveAspectRatio="none" x="13833.984375" y="-3708.984375" width="8.789062" height="8.789062"/>
<image xlink:href="tile294_345.png" preserveAspectRatio="none" x="13833.984375" y="-3717.773438" width="8.789062" height="8.789062"/>
<image xlink:href="tile294_344.png" preserveAspectRatio="none" x="13833.984375" y="-3726.5625" width="8.789062" height="8.789062"/>
<image xlink:href="tile295_351.png" preserveAspectRatio="none" x="13842.773438" y="-3665.039062" width="8.789062" height="8.789062"/>
<image xlink:href="tile295_350.png" preserveAspectRatio="none" x="13842.773438" y="-3673.828125" width="8.789062" height="8.789062"/>
<image xlink:href="tile295_349.png" preserveAspectRatio="none" x="13842.773438" y="-3682.617188" width="8.789062" height="8.789062"/>
<image xlink:href="tile295_348.png" preserveAspectRatio="none" x="13842.773438" y="-3691.40625" width="8.789062" height="8.789062"/>
<image xlink:href="tile295_347.png" preserveAspectRatio="none" x="13842.773438" y="-3700.195312" width="8.789062" height="8.789062"/>
<image xlink:href="tile295_346.png" preserveAspectRatio="none" x="13842.773438" y="-3708.984375" width="8.789062" height="8.789062"/>
<image xlink:href="tile295_345.png" preserveAspectRatio="none" x="13842.773438" y="-3717.773438" width="8.789062" height="8.789062"/>
<image xlink:href="tile295_344.png" preserveAspectRatio="none" x="13842.773438" y="-3726.5625" width="8.789062" height="8.789062"/>
<image xlink:href="tile296_343.png" preserveAspectRatio="none" x="13851.5625" y="-3735.351562" width="8.789062" height="8.789062"/>
<image xlink:href="tile296_342.png" preserveAspectRatio="none" x="13851.5625" y="-3744.140625" width="8.789062" height="8.789062"/>
<image xlink:href="tile297_343.png" preserveAspectRatio="none" x="13860.351562" y="-3735.351562" width="8.789062" height="8.789062"/>
<image xlink:href="tile297_342.png" preserveAspectRatio="none" x="13860.351562" y="-3744.140625" width="8.789062" height="8.789062"/>
<image xlink:href="tile298_343.png" preserveAspectRatio="none" x="13869.140625" y="-3735.351562" width="8.789062" height="8.789062"/>
<image xlink:href="tile298_342.png" preserveAspectRatio="none" x="13869.140625" y="-3744.140625" width="8.789062" height="8.789062"/>
<image xlink:href="tile298_341.png" preserveAspectRatio="none" x="13869.140625" y="-3752.929688" width="8.789062" height="8.789062"/>
<image xlink:href="tile298_340.png" preserveAspectRatio="none" x="13869.140625" y="-3761.71875" width="8.789062" height="8.789062"/>
<image xlink:href="tile299_343.png" preserveAspectRatio="none" x="13877.929688" y="-3735.351562" width="8.789062" height="8.789062"/>
<image xlink:href="tile299_342.png" preserveAspectRatio="none" x="13877.929688" y="-3744.140625" width="8.789062" height="8.789062"/>
<image xlink:href="tile299_341.png" preserveAspectRatio="none" x="13877.929688" y="-3752.929688" width="8.789062" height="8.789062"/>
<image xlink:href="tile299_340.png" preserveAspectRatio="none" x="13877.929688" y="-3761.71875" width="8.789062" height="8.789062"/>
<image xlink:href="tile300_341.png" preserveAspectRatio="none" x="13886.71875" y="-3752.929688" width="8.789062" height="8.789062"/>
<image xlink:href="tile300_340.png" preserveAspectRatio="none" x="13886.71875" y="-3761.71875" width="8.789062" height="8.789062"/>
<image xlink:href="tile300_339.png" preserveAspectRatio="none" x="13886.71875" y="-3770.507812" width="8.789062" height="8.789062"/>
<image xlink:href="tile300_338.png" preserveAspectRatio="none" x="13886.71875" y="-3779.296875" width="8.789062" height="8.789062"/>
<image xlink:href="tile300_337.png" preserveAspectRatio="none" x="13886.71875" y="-3788.085938" width="8.789062" height="8.789062"/>
<image xlink:href="tile301_341.png" preserveAspectRatio="none" x="13895.507812" y="-3752.929688" width="8.789062" height="8.789062"/>
<image xlink:href="tile301_340.png" preserveAspectRatio="none" x="13895.507812" y="-3761.71875" width="8.789062" height="8.789062"/>
<image xlink:href="tile301_339.png" preserveAspectRatio="none" x="13895.507812" y="-3770.507812" width="8.789062" height="8.789062"/>
<image xlink:href="tile301_338.png" preserveAspectRatio="none" x="13895.507812" y="-3779.296875" width="8.789062" height="8.789062"/>
<image xlink:href="tile301_337.png" preserveAspectRatio="none" x="13895.507812" y="-3788.085938" width="8.789062" height="8.789062"/>
<image xlink:href="tile301_336.png" preserveAspectRatio="none" x="13895.507812" y="-3796.875" width="8.789062" height="8.789062"/>
<image xlink:href="tile302_339.png" preserveAspectRatio="none" x="13904.296875" y="-3770.507812" width="8.789062" height="8.789062"/>
<image xlink:href="tile302_338.png" preserveAspectRatio="none" x="13904.296875" y="-3779.296875" width="8.789062" height="8.789062"/>
<image xlink:href="tile302_337.png" preserveAspectRatio="none" x="13904.296875" y="-3788.085938" width="8.789062" height="8.789062"/>
<image xlink:href="tile302_336.png" preserveAspectRatio="none" x="13904.296875" y="-3796.875" width="8.789062" height="8.789062"/>
<image xlink:href="tile303_339.png" preserveAspectRatio="none" x="13913.085938" y="-3770.507812" width="8.789062" height="8.789062"/>
<image xlink:href="tile303_338.png" preserveAspectRatio="none" x="13913.085938" y="-3779.296875" width="8.789062" height="8.789062"/>
<image xlink:href="tile303_337.png" preserveAspectRatio="none" x="13913.085938" y="-3788.085938" width="8.789062" height="8.789062"/>
<image xlink:href="tile303_336.png" preserveAspectRatio="none" x="13913.085938" y="-3796.875" width="8.789062" height="8.789062"/>
<image xlink:href="tile296_351.png" preserveAspectRatio="none" x="13851.5625" y="-3665.039062" width="8.789062" height="8.789062"/>
<image xlink:href="tile296_350.png" preserveAspectRatio="none" x="13851.5625" y="-3673.828125" width="8.789062" height="8.789062"/>
<image xlink:href="tile297_351.png" preserveAspectRatio="none" x="13860.351562" y="-3665.039062" width="8.789062" height="8.789062"/>
<image xlink:href="tile298_347.png" preserveAspectRatio="none" x="13869.140625" y="-3700.195312" width="8.789062" height="8.789062"/>
<image xlink:href="tile298_346.png" preserveAspectRatio="none" x="13869.140625" y="-3708.984375" width="8.789062" height="8.789062"/>
<image xlink:href="tile298_345.png" preserveAspectRatio="none" x="13869.140625" y="-3717.773438" width="8.789062" height="8.789062"/>
<image xlink:href="tile298_344.png" preserveAspectRatio="none" x="13869.140625" y="-3726.5625" width="8.789062" height="8.789062"/>
<image xlink:href="tile299_347.png" preserveAspectRatio="none" x="13877.929688" y="-3700.195312" width="8.789062" height="8.789062"/>
<image xlink:href="tile299_346.png" preserveAspectRatio="none" x="13877.929688" y="-3708.984375" width="8.789062" height="8.789062"/>
<image xlink:href="tile299_345.png" preserveAspectRatio="none" x="13877.929688" y="-3717.773438" width="8.789062" height="8.789062"/>
<image xlink:href="tile299_344.png" preserveAspectRatio="none" x="13877.929688" y="-3726.5625" width="8.789062" height="8.789062"/>
<image xlink:href="tile300_351.png" preserveAspectRatio="none" x="13886.71875" y="-3665.039062" width="8.789062" height="8.789062"/>
<image xlink:href="tile300_350.png" preserveAspectRatio="none" x="13886.71875" y="-3673.828125" width="8.789062" height="8.789062"/>
<image xlink:href="tile300_345.png" preserveAspectRatio="none" x="13886.71875" y="-3717.773438" width="8.789062" height="8.789062"/>
<image xlink:href="tile300_344.png" preserveAspectRatio="none" x="13886.71875" y="-3726.5625" width="8.789062" height="8.789062"/>
<image xlink:href="tile301_351.png" preserveAspectRatio="none" x="13895.507812" y="-3665.039062" width="8.789062" height="8.789062"/>
<image xlink:href="tile301_350.png" preserveAspectRatio="none" x="13895.507812" y="-3673.828125" width="8.789062" height="8.789062"/>
<image xlink:href="tile301_345.png" preserveAspectRatio="none" x="13895.507812" y="-3717.773438" width="8.789062" height="8.789062"/>
<image xlink:href="tile301_344.png" preserveAspectRatio="none" x="13895.507812" y="-3726.5625" width="8.789062" height="8.789062"/>
<image xlink:href="tile302_351.png" preserveAspectRatio="none" x="13904.296875" y="-3665.039062" width="8.789062" height="8.789062"/>
<image xlink:href="tile302_350.png" preserveAspectRatio="none" x="13904.296875" y="-3673.828125" width="8.789062" height="8.789062"/>
<image xlink:href="tile303_351.png" preserveAspectRatio="none" x="13913.085938" y="-3665.039062" width="8.789062" height="8.789062"/>
<image xlink:href="tile303_350.png" preserveAspectRatio="none" x="13913.085938" y="-3673.828125" width="8.789062" height="8.789062"/>
</g>
</svg>
