<?xml version="1.0" encoding="UTF-8"?>
<svg  xmlns="http://www.w3.org/2000/svg" xmlns:xlink="http://www.w3.org/1999/xlink" xmlns:go="http://purl.org/svgmap/profile" viewBox="12374.693694 -4552.224923 2206.5089170000006 2126.3241730000004" go:dataArea="12374.693694 -4552.224923 2206.5089170000006 2126.3241730000004" >
<metadata>
 <rdf:RDF xmlns:rdf="http://www.w3.org/1999/02/22-rdf-syntax-ns#" xmlns:crs="http://opengis.org/xmldtds/transformations.dtd" xmlns:svg="http://www.w3.org/svg" >
  <rdf:Description>
   <crs:CoordinateReferenceSystem rdf:resource="http://purl.org/crs/84" svg:transform="matrix(100.0,0.0,0.0,-100.0,0.0,0.0)" />
  </rdf:Description>
 </rdf:RDF>
</metadata>
<globalCoordinateSystem srsName="http://purl.org/crs/84" transform="matrix(100.0,0.0,0.0,-100.0,0.0,0.0)" />
<g >
<image xlink:href="tile264_383.png" preserveAspectRatio="none" x="13570.3125" y="-3383.789062" width="8.789062" height="8.789062"/>
<image xlink:href="tile264_382.png" preserveAspectRatio="none" x="13570.3125" y="-3392.578125" width="8.789062" height="8.789062"/>
<image xlink:href="tile264_381.png" preserveAspectRatio="none" x="13570.3125" y="-3401.367188" width="8.789062" height="8.789062"/>
<image xlink:href="tile264_380.png" preserveAspectRatio="none" x="13570.3125" y="-3410.15625" width="8.789062" height="8.789062"/>
<image xlink:href="tile264_377.png" preserveAspectRatio="none" x="13570.3125" y="-3436.523438" width="8.789062" height="8.789062"/>
<image xlink:href="tile264_376.png" preserveAspectRatio="none" x="13570.3125" y="-3445.3125" width="8.789062" height="8.789062"/>
<image xlink:href="tile265_383.png" preserveAspectRatio="none" x="13579.101562" y="-3383.789062" width="8.789062" height="8.789062"/>
<image xlink:href="tile265_382.png" preserveAspectRatio="none" x="13579.101562" y="-3392.578125" width="8.789062" height="8.789062"/>
<image xlink:href="tile265_381.png" preserveAspectRatio="none" x="13579.101562" y="-3401.367188" width="8.789062" height="8.789062"/>
<image xlink:href="tile265_380.png" preserveAspectRatio="none" x="13579.101562" y="-3410.15625" width="8.789062" height="8.789062"/>
<image xlink:href="tile265_377.png" preserveAspectRatio="none" x="13579.101562" y="-3436.523438" width="8.789062" height="8.789062"/>
<image xlink:href="tile265_376.png" preserveAspectRatio="none" x="13579.101562" y="-3445.3125" width="8.789062" height="8.789062"/>
<image xlink:href="tile266_383.png" preserveAspectRatio="none" x="13587.890625" y="-3383.789062" width="8.789062" height="8.789062"/>
<image xlink:href="tile266_382.png" preserveAspectRatio="none" x="13587.890625" y="-3392.578125" width="8.789062" height="8.789062"/>
<image xlink:href="tile266_377.png" preserveAspectRatio="none" x="13587.890625" y="-3436.523438" width="8.789062" height="8.789062"/>
<image xlink:href="tile266_376.png" preserveAspectRatio="none" x="13587.890625" y="-3445.3125" width="8.789062" height="8.789062"/>
<image xlink:href="tile267_383.png" preserveAspectRatio="none" x="13596.679688" y="-3383.789062" width="8.789062" height="8.789062"/>
<image xlink:href="tile267_382.png" preserveAspectRatio="none" x="13596.679688" y="-3392.578125" width="8.789062" height="8.789062"/>
<image xlink:href="tile267_377.png" preserveAspectRatio="none" x="13596.679688" y="-3436.523438" width="8.789062" height="8.789062"/>
<image xlink:href="tile267_376.png" preserveAspectRatio="none" x="13596.679688" y="-3445.3125" width="8.789062" height="8.789062"/>
<image xlink:href="tile268_381.png" preserveAspectRatio="none" x="13605.46875" y="-3401.367188" width="8.789062" height="8.789062"/>
<image xlink:href="tile269_381.png" preserveAspectRatio="none" x="13614.257812" y="-3401.367188" width="8.789062" height="8.789062"/>
<image xlink:href="tile269_380.png" preserveAspectRatio="none" x="13614.257812" y="-3410.15625" width="8.789062" height="8.789062"/>
<image xlink:href="tile270_377.png" preserveAspectRatio="none" x="13623.046875" y="-3436.523438" width="8.789062" height="8.789062"/>
<image xlink:href="tile270_376.png" preserveAspectRatio="none" x="13623.046875" y="-3445.3125" width="8.789062" height="8.789062"/>
<image xlink:href="tile271_377.png" preserveAspectRatio="none" x="13631.835938" y="-3436.523438" width="8.789062" height="8.789062"/>
<image xlink:href="tile271_376.png" preserveAspectRatio="none" x="13631.835938" y="-3445.3125" width="8.789062" height="8.789062"/>
<image xlink:href="tile264_375.png" preserveAspectRatio="none" x="13570.3125" y="-3454.101562" width="8.789062" height="8.789062"/>
<image xlink:href="tile264_374.png" preserveAspectRatio="none" x="13570.3125" y="-3462.890625" width="8.789062" height="8.789062"/>
<image xlink:href="tile264_373.png" preserveAspectRatio="none" x="13570.3125" y="-3471.679688" width="8.789062" height="8.789062"/>
<image xlink:href="tile264_372.png" preserveAspectRatio="none" x="13570.3125" y="-3480.46875" width="8.789062" height="8.789062"/>
<image xlink:href="tile264_371.png" preserveAspectRatio="none" x="13570.3125" y="-3489.257812" width="8.789062" height="8.789062"/>
<image xlink:href="tile264_370.png" preserveAspectRatio="none" x="13570.3125" y="-3498.046875" width="8.789062" height="8.789062"/>
<image xlink:href="tile264_369.png" preserveAspectRatio="none" x="13570.3125" y="-3506.835938" width="8.789062" height="8.789062"/>
<image xlink:href="tile264_368.png" preserveAspectRatio="none" x="13570.3125" y="-3515.625" width="8.789062" height="8.789062"/>
<image xlink:href="tile265_375.png" preserveAspectRatio="none" x="13579.101562" y="-3454.101562" width="8.789062" height="8.789062"/>
<image xlink:href="tile265_374.png" preserveAspectRatio="none" x="13579.101562" y="-3462.890625" width="8.789062" height="8.789062"/>
<image xlink:href="tile265_373.png" preserveAspectRatio="none" x="13579.101562" y="-3471.679688" width="8.789062" height="8.789062"/>
<image xlink:href="tile265_372.png" preserveAspectRatio="none" x="13579.101562" y="-3480.46875" width="8.789062" height="8.789062"/>
<image xlink:href="tile265_371.png" preserveAspectRatio="none" x="13579.101562" y="-3489.257812" width="8.789062" height="8.789062"/>
<image xlink:href="tile265_370.png" preserveAspectRatio="none" x="13579.101562" y="-3498.046875" width="8.789062" height="8.789062"/>
<image xlink:href="tile265_369.png" preserveAspectRatio="none" x="13579.101562" y="-3506.835938" width="8.789062" height="8.789062"/>
<image xlink:href="tile265_368.png" preserveAspectRatio="none" x="13579.101562" y="-3515.625" width="8.789062" height="8.789062"/>
<image xlink:href="tile266_375.png" preserveAspectRatio="none" x="13587.890625" y="-3454.101562" width="8.789062" height="8.789062"/>
<image xlink:href="tile266_374.png" preserveAspectRatio="none" x="13587.890625" y="-3462.890625" width="8.789062" height="8.789062"/>
<image xlink:href="tile266_373.png" preserveAspectRatio="none" x="13587.890625" y="-3471.679688" width="8.789062" height="8.789062"/>
<image xlink:href="tile266_372.png" preserveAspectRatio="none" x="13587.890625" y="-3480.46875" width="8.789062" height="8.789062"/>
<image xlink:href="tile266_371.png" preserveAspectRatio="none" x="13587.890625" y="-3489.257812" width="8.789062" height="8.789062"/>
<image xlink:href="tile266_370.png" preserveAspectRatio="none" x="13587.890625" y="-3498.046875" width="8.789062" height="8.789062"/>
<image xlink:href="tile266_369.png" preserveAspectRatio="none" x="13587.890625" y="-3506.835938" width="8.789062" height="8.789062"/>
<image xlink:href="tile266_368.png" preserveAspectRatio="none" x="13587.890625" y="-3515.625" width="8.789062" height="8.789062"/>
<image xlink:href="tile267_375.png" preserveAspectRatio="none" x="13596.679688" y="-3454.101562" width="8.789062" height="8.789062"/>
<image xlink:href="tile267_374.png" preserveAspectRatio="none" x="13596.679688" y="-3462.890625" width="8.789062" height="8.789062"/>
<image xlink:href="tile267_373.png" preserveAspectRatio="none" x="13596.679688" y="-3471.679688" width="8.789062" height="8.789062"/>
<image xlink:href="tile267_372.png" preserveAspectRatio="none" x="13596.679688" y="-3480.46875" width="8.789062" height="8.789062"/>
<image xlink:href="tile267_371.png" preserveAspectRatio="none" x="13596.679688" y="-3489.257812" width="8.789062" height="8.789062"/>
<image xlink:href="tile267_370.png" preserveAspectRatio="none" x="13596.679688" y="-3498.046875" width="8.789062" height="8.789062"/>
<image xlink:href="tile267_369.png" preserveAspectRatio="none" x="13596.679688" y="-3506.835938" width="8.789062" height="8.789062"/>
<image xlink:href="tile267_368.png" preserveAspectRatio="none" x="13596.679688" y="-3515.625" width="8.789062" height="8.789062"/>
<image xlink:href="tile268_375.png" preserveAspectRatio="none" x="13605.46875" y="-3454.101562" width="8.789062" height="8.789062"/>
<image xlink:href="tile268_374.png" preserveAspectRatio="none" x="13605.46875" y="-3462.890625" width="8.789062" height="8.789062"/>
<image xlink:href="tile268_373.png" preserveAspectRatio="none" x="13605.46875" y="-3471.679688" width="8.789062" height="8.789062"/>
<image xlink:href="tile268_372.png" preserveAspectRatio="none" x="13605.46875" y="-3480.46875" width="8.789062" height="8.789062"/>
<image xlink:href="tile268_371.png" preserveAspectRatio="none" x="13605.46875" y="-3489.257812" width="8.789062" height="8.789062"/>
<image xlink:href="tile268_370.png" preserveAspectRatio="none" x="13605.46875" y="-3498.046875" width="8.789062" height="8.789062"/>
<image xlink:href="tile268_369.png" preserveAspectRatio="none" x="13605.46875" y="-3506.835938" width="8.789062" height="8.789062"/>
<image xlink:href="tile268_368.png" preserveAspectRatio="none" x="13605.46875" y="-3515.625" width="8.789062" height="8.789062"/>
<image xlink:href="tile269_375.png" preserveAspectRatio="none" x="13614.257812" y="-3454.101562" width="8.789062" height="8.789062"/>
<image xlink:href="tile269_374.png" preserveAspectRatio="none" x="13614.257812" y="-3462.890625" width="8.789062" height="8.789062"/>
<image xlink:href="tile269_373.png" preserveAspectRatio="none" x="13614.257812" y="-3471.679688" width="8.789062" height="8.789062"/>
<image xlink:href="tile269_372.png" preserveAspectRatio="none" x="13614.257812" y="-3480.46875" width="8.789062" height="8.789062"/>
<image xlink:href="tile269_371.png" preserveAspectRatio="none" x="13614.257812" y="-3489.257812" width="8.789062" height="8.789062"/>
<image xlink:href="tile269_370.png" preserveAspectRatio="none" x="13614.257812" y="-3498.046875" width="8.789062" height="8.789062"/>
<image xlink:href="tile269_369.png" preserveAspectRatio="none" x="13614.257812" y="-3506.835938" width="8.789062" height="8.789062"/>
<image xlink:href="tile269_368.png" preserveAspectRatio="none" x="13614.257812" y="-3515.625" width="8.789062" height="8.789062"/>
<image xlink:href="tile270_375.png" preserveAspectRatio="none" x="13623.046875" y="-3454.101562" width="8.789062" height="8.789062"/>
<image xlink:href="tile270_374.png" preserveAspectRatio="none" x="13623.046875" y="-3462.890625" width="8.789062" height="8.789062"/>
<image xlink:href="tile270_371.png" preserveAspectRatio="none" x="13623.046875" y="-3489.257812" width="8.789062" height="8.789062"/>
<image xlink:href="tile270_370.png" preserveAspectRatio="none" x="13623.046875" y="-3498.046875" width="8.789062" height="8.789062"/>
<image xlink:href="tile270_369.png" preserveAspectRatio="none" x="13623.046875" y="-3506.835938" width="8.789062" height="8.789062"/>
<image xlink:href="tile270_368.png" preserveAspectRatio="none" x="13623.046875" y="-3515.625" width="8.789062" height="8.789062"/>
<image xlink:href="tile271_375.png" preserveAspectRatio="none" x="13631.835938" y="-3454.101562" width="8.789062" height="8.789062"/>
<image xlink:href="tile271_374.png" preserveAspectRatio="none" x="13631.835938" y="-3462.890625" width="8.789062" height="8.789062"/>
<image xlink:href="tile271_371.png" preserveAspectRatio="none" x="13631.835938" y="-3489.257812" width="8.789062" height="8.789062"/>
<image xlink:href="tile271_370.png" preserveAspectRatio="none" x="13631.835938" y="-3498.046875" width="8.789062" height="8.789062"/>
<image xlink:href="tile271_369.png" preserveAspectRatio="none" x="13631.835938" y="-3506.835938" width="8.789062" height="8.789062"/>
<image xlink:href="tile271_368.png" preserveAspectRatio="none" x="13631.835938" y="-3515.625" width="8.789062" height="8.789062"/>
<image xlink:href="tile256_378.png" preserveAspectRatio="none" x="13500" y="-3427.734375" width="8.789062" height="8.789062"/>
<image xlink:href="tile257_379.png" preserveAspectRatio="none" x="13508.789062" y="-3418.945312" width="8.789062" height="8.789062"/>
<image xlink:href="tile257_378.png" preserveAspectRatio="none" x="13508.789062" y="-3427.734375" width="8.789062" height="8.789062"/>
<image xlink:href="tile258_379.png" preserveAspectRatio="none" x="13517.578125" y="-3418.945312" width="8.789062" height="8.789062"/>
<image xlink:href="tile258_378.png" preserveAspectRatio="none" x="13517.578125" y="-3427.734375" width="8.789062" height="8.789062"/>
<image xlink:href="tile258_377.png" preserveAspectRatio="none" x="13517.578125" y="-3436.523438" width="8.789062" height="8.789062"/>
<image xlink:href="tile258_376.png" preserveAspectRatio="none" x="13517.578125" y="-3445.3125" width="8.789062" height="8.789062"/>
<image xlink:href="tile259_379.png" preserveAspectRatio="none" x="13526.367188" y="-3418.945312" width="8.789062" height="8.789062"/>
<image xlink:href="tile259_378.png" preserveAspectRatio="none" x="13526.367188" y="-3427.734375" width="8.789062" height="8.789062"/>
<image xlink:href="tile259_377.png" preserveAspectRatio="none" x="13526.367188" y="-3436.523438" width="8.789062" height="8.789062"/>
<image xlink:href="tile259_376.png" preserveAspectRatio="none" x="13526.367188" y="-3445.3125" width="8.789062" height="8.789062"/>
<image xlink:href="tile260_379.png" preserveAspectRatio="none" x="13535.15625" y="-3418.945312" width="8.789062" height="8.789062"/>
<image xlink:href="tile260_378.png" preserveAspectRatio="none" x="13535.15625" y="-3427.734375" width="8.789062" height="8.789062"/>
<image xlink:href="tile260_377.png" preserveAspectRatio="none" x="13535.15625" y="-3436.523438" width="8.789062" height="8.789062"/>
<image xlink:href="tile260_376.png" preserveAspectRatio="none" x="13535.15625" y="-3445.3125" width="8.789062" height="8.789062"/>
<image xlink:href="tile261_379.png" preserveAspectRatio="none" x="13543.945312" y="-3418.945312" width="8.789062" height="8.789062"/>
<image xlink:href="tile261_378.png" preserveAspectRatio="none" x="13543.945312" y="-3427.734375" width="8.789062" height="8.789062"/>
<image xlink:href="tile261_377.png" preserveAspectRatio="none" x="13543.945312" y="-3436.523438" width="8.789062" height="8.789062"/>
<image xlink:href="tile261_376.png" preserveAspectRatio="none" x="13543.945312" y="-3445.3125" width="8.789062" height="8.789062"/>
<image xlink:href="tile262_377.png" preserveAspectRatio="none" x="13552.734375" y="-3436.523438" width="8.789062" height="8.789062"/>
<image xlink:href="tile262_376.png" preserveAspectRatio="none" x="13552.734375" y="-3445.3125" width="8.789062" height="8.789062"/>
<image xlink:href="tile263_377.png" preserveAspectRatio="none" x="13561.523438" y="-3436.523438" width="8.789062" height="8.789062"/>
<image xlink:href="tile263_376.png" preserveAspectRatio="none" x="13561.523438" y="-3445.3125" width="8.789062" height="8.789062"/>
<image xlink:href="tile256_374.png" preserveAspectRatio="none" x="13500" y="-3462.890625" width="8.789062" height="8.789062"/>
<image xlink:href="tile256_373.png" preserveAspectRatio="none" x="13500" y="-3471.679688" width="8.789062" height="8.789062"/>
<image xlink:href="tile256_372.png" preserveAspectRatio="none" x="13500" y="-3480.46875" width="8.789062" height="8.789062"/>
<image xlink:href="tile256_371.png" preserveAspectRatio="none" x="13500" y="-3489.257812" width="8.789062" height="8.789062"/>
<image xlink:href="tile256_370.png" preserveAspectRatio="none" x="13500" y="-3498.046875" width="8.789062" height="8.789062"/>
<image xlink:href="tile256_369.png" preserveAspectRatio="none" x="13500" y="-3506.835938" width="8.789062" height="8.789062"/>
<image xlink:href="tile256_368.png" preserveAspectRatio="none" x="13500" y="-3515.625" width="8.789062" height="8.789062"/>
<image xlink:href="tile257_373.png" preserveAspectRatio="none" x="13508.789062" y="-3471.679688" width="8.789062" height="8.789062"/>
<image xlink:href="tile257_372.png" preserveAspectRatio="none" x="13508.789062" y="-3480.46875" width="8.789062" height="8.789062"/>
<image xlink:href="tile257_371.png" preserveAspectRatio="none" x="13508.789062" y="-3489.257812" width="8.789062" height="8.789062"/>
<image xlink:href="tile257_370.png" preserveAspectRatio="none" x="13508.789062" y="-3498.046875" width="8.789062" height="8.789062"/>
<image xlink:href="tile257_369.png" preserveAspectRatio="none" x="13508.789062" y="-3506.835938" width="8.789062" height="8.789062"/>
<image xlink:href="tile257_368.png" preserveAspectRatio="none" x="13508.789062" y="-3515.625" width="8.789062" height="8.789062"/>
<image xlink:href="tile258_373.png" preserveAspectRatio="none" x="13517.578125" y="-3471.679688" width="8.789062" height="8.789062"/>
<image xlink:href="tile258_372.png" preserveAspectRatio="none" x="13517.578125" y="-3480.46875" width="8.789062" height="8.789062"/>
<image xlink:href="tile258_371.png" preserveAspectRatio="none" x="13517.578125" y="-3489.257812" width="8.789062" height="8.789062"/>
<image xlink:href="tile258_370.png" preserveAspectRatio="none" x="13517.578125" y="-3498.046875" width="8.789062" height="8.789062"/>
<image xlink:href="tile258_369.png" preserveAspectRatio="none" x="13517.578125" y="-3506.835938" width="8.789062" height="8.789062"/>
<image xlink:href="tile258_368.png" preserveAspectRatio="none" x="13517.578125" y="-3515.625" width="8.789062" height="8.789062"/>
<image xlink:href="tile259_373.png" preserveAspectRatio="none" x="13526.367188" y="-3471.679688" width="8.789062" height="8.789062"/>
<image xlink:href="tile259_372.png" preserveAspectRatio="none" x="13526.367188" y="-3480.46875" width="8.789062" height="8.789062"/>
<image xlink:href="tile259_371.png" preserveAspectRatio="none" x="13526.367188" y="-3489.257812" width="8.789062" height="8.789062"/>
<image xlink:href="tile259_370.png" preserveAspectRatio="none" x="13526.367188" y="-3498.046875" width="8.789062" height="8.789062"/>
<image xlink:href="tile259_369.png" preserveAspectRatio="none" x="13526.367188" y="-3506.835938" width="8.789062" height="8.789062"/>
<image xlink:href="tile259_368.png" preserveAspectRatio="none" x="13526.367188" y="-3515.625" width="8.789062" height="8.789062"/>
<image xlink:href="tile260_375.png" preserveAspectRatio="none" x="13535.15625" y="-3454.101562" width="8.789062" height="8.789062"/>
<image xlink:href="tile260_374.png" preserveAspectRatio="none" x="13535.15625" y="-3462.890625" width="8.789062" height="8.789062"/>
<image xlink:href="tile260_373.png" preserveAspectRatio="none" x="13535.15625" y="-3471.679688" width="8.789062" height="8.789062"/>
<image xlink:href="tile260_372.png" preserveAspectRatio="none" x="13535.15625" y="-3480.46875" width="8.789062" height="8.789062"/>
<image xlink:href="tile260_371.png" preserveAspectRatio="none" x="13535.15625" y="-3489.257812" width="8.789062" height="8.789062"/>
<image xlink:href="tile260_370.png" preserveAspectRatio="none" x="13535.15625" y="-3498.046875" width="8.789062" height="8.789062"/>
<image xlink:href="tile260_369.png" preserveAspectRatio="none" x="13535.15625" y="-3506.835938" width="8.789062" height="8.789062"/>
<image xlink:href="tile260_368.png" preserveAspectRatio="none" x="13535.15625" y="-3515.625" width="8.789062" height="8.789062"/>
<image xlink:href="tile261_375.png" preserveAspectRatio="none" x="13543.945312" y="-3454.101562" width="8.789062" height="8.789062"/>
<image xlink:href="tile261_374.png" preserveAspectRatio="none" x="13543.945312" y="-3462.890625" width="8.789062" height="8.789062"/>
<image xlink:href="tile261_373.png" preserveAspectRatio="none" x="13543.945312" y="-3471.679688" width="8.789062" height="8.789062"/>
<image xlink:href="tile261_372.png" preserveAspectRatio="none" x="13543.945312" y="-3480.46875" width="8.789062" height="8.789062"/>
<image xlink:href="tile261_371.png" preserveAspectRatio="none" x="13543.945312" y="-3489.257812" width="8.789062" height="8.789062"/>
<image xlink:href="tile261_370.png" preserveAspectRatio="none" x="13543.945312" y="-3498.046875" width="8.789062" height="8.789062"/>
<image xlink:href="tile261_369.png" preserveAspectRatio="none" x="13543.945312" y="-3506.835938" width="8.789062" height="8.789062"/>
<image xlink:href="tile261_368.png" preserveAspectRatio="none" x="13543.945312" y="-3515.625" width="8.789062" height="8.789062"/>
<image xlink:href="tile262_375.png" preserveAspectRatio="none" x="13552.734375" y="-3454.101562" width="8.789062" height="8.789062"/>
<image xlink:href="tile262_374.png" preserveAspectRatio="none" x="13552.734375" y="-3462.890625" width="8.789062" height="8.789062"/>
<image xlink:href="tile262_373.png" preserveAspectRatio="none" x="13552.734375" y="-3471.679688" width="8.789062" height="8.789062"/>
<image xlink:href="tile262_372.png" preserveAspectRatio="none" x="13552.734375" y="-3480.46875" width="8.789062" height="8.789062"/>
<image xlink:href="tile262_371.png" preserveAspectRatio="none" x="13552.734375" y="-3489.257812" width="8.789062" height="8.789062"/>
<image xlink:href="tile262_370.png" preserveAspectRatio="none" x="13552.734375" y="-3498.046875" width="8.789062" height="8.789062"/>
<image xlink:href="tile262_369.png" preserveAspectRatio="none" x="13552.734375" y="-3506.835938" width="8.789062" height="8.789062"/>
<image xlink:href="tile262_368.png" preserveAspectRatio="none" x="13552.734375" y="-3515.625" width="8.789062" height="8.789062"/>
<image xlink:href="tile263_375.png" preserveAspectRatio="none" x="13561.523438" y="-3454.101562" width="8.789062" height="8.789062"/>
<image xlink:href="tile263_374.png" preserveAspectRatio="none" x="13561.523438" y="-3462.890625" width="8.789062" height="8.789062"/>
<image xlink:href="tile263_373.png" preserveAspectRatio="none" x="13561.523438" y="-3471.679688" width="8.789062" height="8.789062"/>
<image xlink:href="tile263_372.png" preserveAspectRatio="none" x="13561.523438" y="-3480.46875" width="8.789062" height="8.789062"/>
<image xlink:href="tile263_371.png" preserveAspectRatio="none" x="13561.523438" y="-3489.257812" width="8.789062" height="8.789062"/>
<image xlink:href="tile263_370.png" preserveAspectRatio="none" x="13561.523438" y="-3498.046875" width="8.789062" height="8.789062"/>
<image xlink:href="tile263_369.png" preserveAspectRatio="none" x="13561.523438" y="-3506.835938" width="8.789062" height="8.789062"/>
<image xlink:href="tile263_368.png" preserveAspectRatio="none" x="13561.523438" y="-3515.625" width="8.789062" height="8.789062"/>
</g>
</svg>
