<?xml version="1.0" encoding="UTF-8"?>
<svg  xmlns="http://www.w3.org/2000/svg" xmlns:xlink="http://www.w3.org/1999/xlink" xmlns:go="http://purl.org/svgmap/profile" viewBox="12374.693694 -4552.224923 2206.5089170000006 2126.3241730000004" go:dataArea="12374.693694 -4552.224923 2206.5089170000006 2126.3241730000004" >
<metadata>
 <rdf:RDF xmlns:rdf="http://www.w3.org/1999/02/22-rdf-syntax-ns#" xmlns:crs="http://opengis.org/xmldtds/transformations.dtd" xmlns:svg="http://www.w3.org/svg" >
  <rdf:Description>
   <crs:CoordinateReferenceSystem rdf:resource="http://purl.org/crs/84" svg:transform="matrix(100.0,0.0,0.0,-100.0,0.0,0.0)" />
  </rdf:Description>
 </rdf:RDF>
</metadata>
<globalCoordinateSystem srsName="http://purl.org/crs/84" transform="matrix(100.0,0.0,0.0,-100.0,0.0,0.0)" />
<g >
<image xlink:href="tile216_401.png" preserveAspectRatio="none" x="13148.4375" y="-3225.585938" width="8.789062" height="8.789062"/>
<image xlink:href="tile216_400.png" preserveAspectRatio="none" x="13148.4375" y="-3234.375" width="8.789062" height="8.789062"/>
<image xlink:href="tile217_401.png" preserveAspectRatio="none" x="13157.226562" y="-3225.585938" width="8.789062" height="8.789062"/>
<image xlink:href="tile217_400.png" preserveAspectRatio="none" x="13157.226562" y="-3234.375" width="8.789062" height="8.789062"/>
<image xlink:href="tile208_411.png" preserveAspectRatio="none" x="13078.125" y="-3137.695312" width="8.789062" height="8.789062"/>
<image xlink:href="tile208_410.png" preserveAspectRatio="none" x="13078.125" y="-3146.484375" width="8.789062" height="8.789062"/>
<image xlink:href="tile208_409.png" preserveAspectRatio="none" x="13078.125" y="-3155.273438" width="8.789062" height="8.789062"/>
<image xlink:href="tile208_408.png" preserveAspectRatio="none" x="13078.125" y="-3164.0625" width="8.789062" height="8.789062"/>
<image xlink:href="tile209_411.png" preserveAspectRatio="none" x="13086.914062" y="-3137.695312" width="8.789062" height="8.789062"/>
<image xlink:href="tile209_410.png" preserveAspectRatio="none" x="13086.914062" y="-3146.484375" width="8.789062" height="8.789062"/>
<image xlink:href="tile209_409.png" preserveAspectRatio="none" x="13086.914062" y="-3155.273438" width="8.789062" height="8.789062"/>
<image xlink:href="tile209_408.png" preserveAspectRatio="none" x="13086.914062" y="-3164.0625" width="8.789062" height="8.789062"/>
<image xlink:href="tile210_411.png" preserveAspectRatio="none" x="13095.703125" y="-3137.695312" width="8.789062" height="8.789062"/>
<image xlink:href="tile210_410.png" preserveAspectRatio="none" x="13095.703125" y="-3146.484375" width="8.789062" height="8.789062"/>
<image xlink:href="tile210_409.png" preserveAspectRatio="none" x="13095.703125" y="-3155.273438" width="8.789062" height="8.789062"/>
<image xlink:href="tile210_408.png" preserveAspectRatio="none" x="13095.703125" y="-3164.0625" width="8.789062" height="8.789062"/>
<image xlink:href="tile211_411.png" preserveAspectRatio="none" x="13104.492188" y="-3137.695312" width="8.789062" height="8.789062"/>
<image xlink:href="tile211_410.png" preserveAspectRatio="none" x="13104.492188" y="-3146.484375" width="8.789062" height="8.789062"/>
<image xlink:href="tile211_409.png" preserveAspectRatio="none" x="13104.492188" y="-3155.273438" width="8.789062" height="8.789062"/>
<image xlink:href="tile211_408.png" preserveAspectRatio="none" x="13104.492188" y="-3164.0625" width="8.789062" height="8.789062"/>
<image xlink:href="tile212_409.png" preserveAspectRatio="none" x="13113.28125" y="-3155.273438" width="8.789062" height="8.789062"/>
<image xlink:href="tile212_408.png" preserveAspectRatio="none" x="13113.28125" y="-3164.0625" width="8.789062" height="8.789062"/>
<image xlink:href="tile213_409.png" preserveAspectRatio="none" x="13122.070312" y="-3155.273438" width="8.789062" height="8.789062"/>
<image xlink:href="tile213_408.png" preserveAspectRatio="none" x="13122.070312" y="-3164.0625" width="8.789062" height="8.789062"/>
<image xlink:href="tile214_409.png" preserveAspectRatio="none" x="13130.859375" y="-3155.273438" width="8.789062" height="8.789062"/>
<image xlink:href="tile214_408.png" preserveAspectRatio="none" x="13130.859375" y="-3164.0625" width="8.789062" height="8.789062"/>
<image xlink:href="tile215_408.png" preserveAspectRatio="none" x="13139.648438" y="-3164.0625" width="8.789062" height="8.789062"/>
<image xlink:href="tile208_407.png" preserveAspectRatio="none" x="13078.125" y="-3172.851562" width="8.789062" height="8.789062"/>
<image xlink:href="tile208_406.png" preserveAspectRatio="none" x="13078.125" y="-3181.640625" width="8.789062" height="8.789062"/>
<image xlink:href="tile208_405.png" preserveAspectRatio="none" x="13078.125" y="-3190.429688" width="8.789062" height="8.789062"/>
<image xlink:href="tile208_404.png" preserveAspectRatio="none" x="13078.125" y="-3199.21875" width="8.789062" height="8.789062"/>
<image xlink:href="tile208_403.png" preserveAspectRatio="none" x="13078.125" y="-3208.007812" width="8.789062" height="8.789062"/>
<image xlink:href="tile208_402.png" preserveAspectRatio="none" x="13078.125" y="-3216.796875" width="8.789062" height="8.789062"/>
<image xlink:href="tile208_401.png" preserveAspectRatio="none" x="13078.125" y="-3225.585938" width="8.789062" height="8.789062"/>
<image xlink:href="tile208_400.png" preserveAspectRatio="none" x="13078.125" y="-3234.375" width="8.789062" height="8.789062"/>
<image xlink:href="tile209_407.png" preserveAspectRatio="none" x="13086.914062" y="-3172.851562" width="8.789062" height="8.789062"/>
<image xlink:href="tile209_406.png" preserveAspectRatio="none" x="13086.914062" y="-3181.640625" width="8.789062" height="8.789062"/>
<image xlink:href="tile209_405.png" preserveAspectRatio="none" x="13086.914062" y="-3190.429688" width="8.789062" height="8.789062"/>
<image xlink:href="tile209_404.png" preserveAspectRatio="none" x="13086.914062" y="-3199.21875" width="8.789062" height="8.789062"/>
<image xlink:href="tile209_403.png" preserveAspectRatio="none" x="13086.914062" y="-3208.007812" width="8.789062" height="8.789062"/>
<image xlink:href="tile209_401.png" preserveAspectRatio="none" x="13086.914062" y="-3225.585938" width="8.789062" height="8.789062"/>
<image xlink:href="tile209_400.png" preserveAspectRatio="none" x="13086.914062" y="-3234.375" width="8.789062" height="8.789062"/>
<image xlink:href="tile210_407.png" preserveAspectRatio="none" x="13095.703125" y="-3172.851562" width="8.789062" height="8.789062"/>
<image xlink:href="tile210_406.png" preserveAspectRatio="none" x="13095.703125" y="-3181.640625" width="8.789062" height="8.789062"/>
<image xlink:href="tile210_405.png" preserveAspectRatio="none" x="13095.703125" y="-3190.429688" width="8.789062" height="8.789062"/>
<image xlink:href="tile210_404.png" preserveAspectRatio="none" x="13095.703125" y="-3199.21875" width="8.789062" height="8.789062"/>
<image xlink:href="tile211_407.png" preserveAspectRatio="none" x="13104.492188" y="-3172.851562" width="8.789062" height="8.789062"/>
<image xlink:href="tile211_406.png" preserveAspectRatio="none" x="13104.492188" y="-3181.640625" width="8.789062" height="8.789062"/>
<image xlink:href="tile211_405.png" preserveAspectRatio="none" x="13104.492188" y="-3190.429688" width="8.789062" height="8.789062"/>
<image xlink:href="tile211_404.png" preserveAspectRatio="none" x="13104.492188" y="-3199.21875" width="8.789062" height="8.789062"/>
<image xlink:href="tile212_405.png" preserveAspectRatio="none" x="13113.28125" y="-3190.429688" width="8.789062" height="8.789062"/>
<image xlink:href="tile212_404.png" preserveAspectRatio="none" x="13113.28125" y="-3199.21875" width="8.789062" height="8.789062"/>
<image xlink:href="tile213_405.png" preserveAspectRatio="none" x="13122.070312" y="-3190.429688" width="8.789062" height="8.789062"/>
<image xlink:href="tile213_404.png" preserveAspectRatio="none" x="13122.070312" y="-3199.21875" width="8.789062" height="8.789062"/>
<image xlink:href="tile214_405.png" preserveAspectRatio="none" x="13130.859375" y="-3190.429688" width="8.789062" height="8.789062"/>
<image xlink:href="tile214_404.png" preserveAspectRatio="none" x="13130.859375" y="-3199.21875" width="8.789062" height="8.789062"/>
<image xlink:href="tile214_403.png" preserveAspectRatio="none" x="13130.859375" y="-3208.007812" width="8.789062" height="8.789062"/>
<image xlink:href="tile214_402.png" preserveAspectRatio="none" x="13130.859375" y="-3216.796875" width="8.789062" height="8.789062"/>
<image xlink:href="tile215_405.png" preserveAspectRatio="none" x="13139.648438" y="-3190.429688" width="8.789062" height="8.789062"/>
<image xlink:href="tile215_404.png" preserveAspectRatio="none" x="13139.648438" y="-3199.21875" width="8.789062" height="8.789062"/>
<image xlink:href="tile215_403.png" preserveAspectRatio="none" x="13139.648438" y="-3208.007812" width="8.789062" height="8.789062"/>
<image xlink:href="tile215_402.png" preserveAspectRatio="none" x="13139.648438" y="-3216.796875" width="8.789062" height="8.789062"/>
</g>
</svg>
