<?xml version="1.0" encoding="UTF-8"?>
<svg  xmlns="http://www.w3.org/2000/svg" xmlns:xlink="http://www.w3.org/1999/xlink" xmlns:go="http://purl.org/svgmap/profile" viewBox="12414.9335 -4542.191889 2145.1253899999997 2108.480445" go:dataArea="12414.9335 -4542.191889 2145.1253899999997 2108.480445" >
<metadata>
 <rdf:RDF xmlns:rdf="http://www.w3.org/1999/02/22-rdf-syntax-ns#" xmlns:crs="http://opengis.org/xmldtds/transformations.dtd" xmlns:svg="http://www.w3.org/svg" >
  <rdf:Description>
   <crs:CoordinateReferenceSystem rdf:resource="http://purl.org/crs/84" svg:transform="matrix(100.0,0.0,0.0,-100.0,0.0,0.0)" />
  </rdf:Description>
 </rdf:RDF>
</metadata>
<globalCoordinateSystem srsName="http://purl.org/crs/84" transform="matrix(100.0,0.0,0.0,-100.0,0.0,0.0)" />
<g >
<image xlink:href="tile16_31.png" preserveAspectRatio="none" x="13500" y="-3445.3125" width="70.3125" height="70.3125"/>
<image xlink:href="tile16_30.png" preserveAspectRatio="none" x="13500" y="-3515.625" width="70.3125" height="70.3125"/>
<image xlink:href="tile17_31.png" preserveAspectRatio="none" x="13570.3125" y="-3445.3125" width="70.3125" height="70.3125"/>
<image xlink:href="tile17_30.png" preserveAspectRatio="none" x="13570.3125" y="-3515.625" width="70.3125" height="70.3125"/>
<image xlink:href="tile18_31.png" preserveAspectRatio="none" x="13640.625" y="-3445.3125" width="70.3125" height="70.3125"/>
<image xlink:href="tile18_30.png" preserveAspectRatio="none" x="13640.625" y="-3515.625" width="70.3125" height="70.3125"/>
<image xlink:href="tile18_29.png" preserveAspectRatio="none" x="13640.625" y="-3585.9375" width="70.3125" height="70.3125"/>
<image xlink:href="tile18_28.png" preserveAspectRatio="none" x="13640.625" y="-3656.25" width="70.3125" height="70.3125"/>
<image xlink:href="tile19_30.png" preserveAspectRatio="none" x="13710.9375" y="-3515.625" width="70.3125" height="70.3125"/>
<image xlink:href="tile19_29.png" preserveAspectRatio="none" x="13710.9375" y="-3585.9375" width="70.3125" height="70.3125"/>
<image xlink:href="tile19_28.png" preserveAspectRatio="none" x="13710.9375" y="-3656.25" width="70.3125" height="70.3125"/>
<image xlink:href="tile20_29.png" preserveAspectRatio="none" x="13781.25" y="-3585.9375" width="70.3125" height="70.3125"/>
<image xlink:href="tile20_28.png" preserveAspectRatio="none" x="13781.25" y="-3656.25" width="70.3125" height="70.3125"/>
<image xlink:href="tile20_27.png" preserveAspectRatio="none" x="13781.25" y="-3726.5625" width="70.3125" height="70.3125"/>
<image xlink:href="tile20_26.png" preserveAspectRatio="none" x="13781.25" y="-3796.875" width="70.3125" height="70.3125"/>
<image xlink:href="tile21_29.png" preserveAspectRatio="none" x="13851.5625" y="-3585.9375" width="70.3125" height="70.3125"/>
<image xlink:href="tile21_28.png" preserveAspectRatio="none" x="13851.5625" y="-3656.25" width="70.3125" height="70.3125"/>
<image xlink:href="tile21_27.png" preserveAspectRatio="none" x="13851.5625" y="-3726.5625" width="70.3125" height="70.3125"/>
<image xlink:href="tile21_26.png" preserveAspectRatio="none" x="13851.5625" y="-3796.875" width="70.3125" height="70.3125"/>
<image xlink:href="tile22_29.png" preserveAspectRatio="none" x="13921.875" y="-3585.9375" width="70.3125" height="70.3125"/>
<image xlink:href="tile22_28.png" preserveAspectRatio="none" x="13921.875" y="-3656.25" width="70.3125" height="70.3125"/>
<image xlink:href="tile22_27.png" preserveAspectRatio="none" x="13921.875" y="-3726.5625" width="70.3125" height="70.3125"/>
<image xlink:href="tile22_26.png" preserveAspectRatio="none" x="13921.875" y="-3796.875" width="70.3125" height="70.3125"/>
<image xlink:href="tile23_29.png" preserveAspectRatio="none" x="13992.1875" y="-3585.9375" width="70.3125" height="70.3125"/>
<image xlink:href="tile23_28.png" preserveAspectRatio="none" x="13992.1875" y="-3656.25" width="70.3125" height="70.3125"/>
<image xlink:href="tile23_27.png" preserveAspectRatio="none" x="13992.1875" y="-3726.5625" width="70.3125" height="70.3125"/>
<image xlink:href="tile23_26.png" preserveAspectRatio="none" x="13992.1875" y="-3796.875" width="70.3125" height="70.3125"/>
<image xlink:href="tile24_25.png" preserveAspectRatio="none" x="14062.5" y="-3867.1875" width="70.3125" height="70.3125"/>
<image xlink:href="tile24_24.png" preserveAspectRatio="none" x="14062.5" y="-3937.5" width="70.3125" height="70.3125"/>
<image xlink:href="tile24_19.png" preserveAspectRatio="none" x="14062.5" y="-4289.0625" width="70.3125" height="70.3125"/>
<image xlink:href="tile24_18.png" preserveAspectRatio="none" x="14062.5" y="-4359.375" width="70.3125" height="70.3125"/>
<image xlink:href="tile25_25.png" preserveAspectRatio="none" x="14132.8125" y="-3867.1875" width="70.3125" height="70.3125"/>
<image xlink:href="tile25_24.png" preserveAspectRatio="none" x="14132.8125" y="-3937.5" width="70.3125" height="70.3125"/>
<image xlink:href="tile25_19.png" preserveAspectRatio="none" x="14132.8125" y="-4289.0625" width="70.3125" height="70.3125"/>
<image xlink:href="tile25_18.png" preserveAspectRatio="none" x="14132.8125" y="-4359.375" width="70.3125" height="70.3125"/>
</g>
</svg>
