<?xml version="1.0" encoding="UTF-8"?>
<svg  xmlns="http://www.w3.org/2000/svg" xmlns:xlink="http://www.w3.org/1999/xlink" xmlns:go="http://purl.org/svgmap/profile" viewBox="12374.693694 -4552.224923 2206.5089170000006 2126.3241730000004" go:dataArea="12374.693694 -4552.224923 2206.5089170000006 2126.3241730000004" >
<metadata>
 <rdf:RDF xmlns:rdf="http://www.w3.org/1999/02/22-rdf-syntax-ns#" xmlns:crs="http://opengis.org/xmldtds/transformations.dtd" xmlns:svg="http://www.w3.org/svg" >
  <rdf:Description>
   <crs:CoordinateReferenceSystem rdf:resource="http://purl.org/crs/84" svg:transform="matrix(100.0,0.0,0.0,-100.0,0.0,0.0)" />
  </rdf:Description>
 </rdf:RDF>
</metadata>
<globalCoordinateSystem srsName="http://purl.org/crs/84" transform="matrix(100.0,0.0,0.0,-100.0,0.0,0.0)" />
<g >
<image xlink:href="tile600_739.png" preserveAspectRatio="none" x="13886.71875" y="-3502.441406" width="4.394531" height="4.394531"/>
<image xlink:href="tile600_738.png" preserveAspectRatio="none" x="13886.71875" y="-3506.835938" width="4.394531" height="4.394531"/>
<image xlink:href="tile600_737.png" preserveAspectRatio="none" x="13886.71875" y="-3511.230469" width="4.394531" height="4.394531"/>
<image xlink:href="tile600_736.png" preserveAspectRatio="none" x="13886.71875" y="-3515.625" width="4.394531" height="4.394531"/>
<image xlink:href="tile601_739.png" preserveAspectRatio="none" x="13891.113281" y="-3502.441406" width="4.394531" height="4.394531"/>
<image xlink:href="tile601_738.png" preserveAspectRatio="none" x="13891.113281" y="-3506.835938" width="4.394531" height="4.394531"/>
<image xlink:href="tile601_737.png" preserveAspectRatio="none" x="13891.113281" y="-3511.230469" width="4.394531" height="4.394531"/>
<image xlink:href="tile601_736.png" preserveAspectRatio="none" x="13891.113281" y="-3515.625" width="4.394531" height="4.394531"/>
<image xlink:href="tile604_741.png" preserveAspectRatio="none" x="13904.296875" y="-3493.652344" width="4.394531" height="4.394531"/>
<image xlink:href="tile604_740.png" preserveAspectRatio="none" x="13904.296875" y="-3498.046875" width="4.394531" height="4.394531"/>
<image xlink:href="tile604_737.png" preserveAspectRatio="none" x="13904.296875" y="-3511.230469" width="4.394531" height="4.394531"/>
<image xlink:href="tile604_736.png" preserveAspectRatio="none" x="13904.296875" y="-3515.625" width="4.394531" height="4.394531"/>
<image xlink:href="tile605_741.png" preserveAspectRatio="none" x="13908.691406" y="-3493.652344" width="4.394531" height="4.394531"/>
<image xlink:href="tile605_740.png" preserveAspectRatio="none" x="13908.691406" y="-3498.046875" width="4.394531" height="4.394531"/>
<image xlink:href="tile605_737.png" preserveAspectRatio="none" x="13908.691406" y="-3511.230469" width="4.394531" height="4.394531"/>
<image xlink:href="tile605_736.png" preserveAspectRatio="none" x="13908.691406" y="-3515.625" width="4.394531" height="4.394531"/>
<image xlink:href="tile592_737.png" preserveAspectRatio="none" x="13851.5625" y="-3511.230469" width="4.394531" height="4.394531"/>
<image xlink:href="tile592_736.png" preserveAspectRatio="none" x="13851.5625" y="-3515.625" width="4.394531" height="4.394531"/>
<image xlink:href="tile593_737.png" preserveAspectRatio="none" x="13855.957031" y="-3511.230469" width="4.394531" height="4.394531"/>
<image xlink:href="tile593_736.png" preserveAspectRatio="none" x="13855.957031" y="-3515.625" width="4.394531" height="4.394531"/>
<image xlink:href="tile594_736.png" preserveAspectRatio="none" x="13860.351562" y="-3515.625" width="4.394531" height="4.394531"/>
<image xlink:href="tile595_736.png" preserveAspectRatio="none" x="13864.746094" y="-3515.625" width="4.394531" height="4.394531"/>
<image xlink:href="tile598_736.png" preserveAspectRatio="none" x="13877.929688" y="-3515.625" width="4.394531" height="4.394531"/>
<image xlink:href="tile599_737.png" preserveAspectRatio="none" x="13882.324219" y="-3511.230469" width="4.394531" height="4.394531"/>
<image xlink:href="tile599_736.png" preserveAspectRatio="none" x="13882.324219" y="-3515.625" width="4.394531" height="4.394531"/>
</g>
</svg>
