<?xml version="1.0" encoding="UTF-8"?>
<svg  xmlns="http://www.w3.org/2000/svg" xmlns:xlink="http://www.w3.org/1999/xlink" xmlns:go="http://purl.org/svgmap/profile" viewBox="12374.693694 -4552.224923 2206.5089170000006 2126.3241730000004" go:dataArea="12374.693694 -4552.224923 2206.5089170000006 2126.3241730000004" >
<metadata>
 <rdf:RDF xmlns:rdf="http://www.w3.org/1999/02/22-rdf-syntax-ns#" xmlns:crs="http://opengis.org/xmldtds/transformations.dtd" xmlns:svg="http://www.w3.org/svg" >
  <rdf:Description>
   <crs:CoordinateReferenceSystem rdf:resource="http://purl.org/crs/84" svg:transform="matrix(100.0,0.0,0.0,-100.0,0.0,0.0)" />
  </rdf:Description>
 </rdf:RDF>
</metadata>
<globalCoordinateSystem srsName="http://purl.org/crs/84" transform="matrix(100.0,0.0,0.0,-100.0,0.0,0.0)" />
<g >
<image xlink:href="tile624_725.png" preserveAspectRatio="none" x="13992.1875" y="-3563.964844" width="4.394531" height="4.394531"/>
<image xlink:href="tile624_724.png" preserveAspectRatio="none" x="13992.1875" y="-3568.359375" width="4.394531" height="4.394531"/>
<image xlink:href="tile624_723.png" preserveAspectRatio="none" x="13992.1875" y="-3572.753906" width="4.394531" height="4.394531"/>
<image xlink:href="tile624_722.png" preserveAspectRatio="none" x="13992.1875" y="-3577.148438" width="4.394531" height="4.394531"/>
<image xlink:href="tile624_721.png" preserveAspectRatio="none" x="13992.1875" y="-3581.542969" width="4.394531" height="4.394531"/>
<image xlink:href="tile624_720.png" preserveAspectRatio="none" x="13992.1875" y="-3585.9375" width="4.394531" height="4.394531"/>
<image xlink:href="tile625_724.png" preserveAspectRatio="none" x="13996.582031" y="-3568.359375" width="4.394531" height="4.394531"/>
<image xlink:href="tile625_723.png" preserveAspectRatio="none" x="13996.582031" y="-3572.753906" width="4.394531" height="4.394531"/>
<image xlink:href="tile625_722.png" preserveAspectRatio="none" x="13996.582031" y="-3577.148438" width="4.394531" height="4.394531"/>
<image xlink:href="tile625_721.png" preserveAspectRatio="none" x="13996.582031" y="-3581.542969" width="4.394531" height="4.394531"/>
<image xlink:href="tile625_720.png" preserveAspectRatio="none" x="13996.582031" y="-3585.9375" width="4.394531" height="4.394531"/>
<image xlink:href="tile626_725.png" preserveAspectRatio="none" x="14000.976562" y="-3563.964844" width="4.394531" height="4.394531"/>
<image xlink:href="tile626_724.png" preserveAspectRatio="none" x="14000.976562" y="-3568.359375" width="4.394531" height="4.394531"/>
<image xlink:href="tile626_723.png" preserveAspectRatio="none" x="14000.976562" y="-3572.753906" width="4.394531" height="4.394531"/>
<image xlink:href="tile626_722.png" preserveAspectRatio="none" x="14000.976562" y="-3577.148438" width="4.394531" height="4.394531"/>
<image xlink:href="tile627_725.png" preserveAspectRatio="none" x="14005.371094" y="-3563.964844" width="4.394531" height="4.394531"/>
<image xlink:href="tile627_724.png" preserveAspectRatio="none" x="14005.371094" y="-3568.359375" width="4.394531" height="4.394531"/>
<image xlink:href="tile627_723.png" preserveAspectRatio="none" x="14005.371094" y="-3572.753906" width="4.394531" height="4.394531"/>
<image xlink:href="tile627_722.png" preserveAspectRatio="none" x="14005.371094" y="-3577.148438" width="4.394531" height="4.394531"/>
<image xlink:href="tile628_727.png" preserveAspectRatio="none" x="14009.765625" y="-3555.175781" width="4.394531" height="4.394531"/>
<image xlink:href="tile628_726.png" preserveAspectRatio="none" x="14009.765625" y="-3559.570312" width="4.394531" height="4.394531"/>
<image xlink:href="tile628_725.png" preserveAspectRatio="none" x="14009.765625" y="-3563.964844" width="4.394531" height="4.394531"/>
<image xlink:href="tile628_724.png" preserveAspectRatio="none" x="14009.765625" y="-3568.359375" width="4.394531" height="4.394531"/>
<image xlink:href="tile628_723.png" preserveAspectRatio="none" x="14009.765625" y="-3572.753906" width="4.394531" height="4.394531"/>
<image xlink:href="tile628_722.png" preserveAspectRatio="none" x="14009.765625" y="-3577.148438" width="4.394531" height="4.394531"/>
<image xlink:href="tile629_727.png" preserveAspectRatio="none" x="14014.160156" y="-3555.175781" width="4.394531" height="4.394531"/>
<image xlink:href="tile629_726.png" preserveAspectRatio="none" x="14014.160156" y="-3559.570312" width="4.394531" height="4.394531"/>
<image xlink:href="tile629_725.png" preserveAspectRatio="none" x="14014.160156" y="-3563.964844" width="4.394531" height="4.394531"/>
<image xlink:href="tile629_724.png" preserveAspectRatio="none" x="14014.160156" y="-3568.359375" width="4.394531" height="4.394531"/>
<image xlink:href="tile629_723.png" preserveAspectRatio="none" x="14014.160156" y="-3572.753906" width="4.394531" height="4.394531"/>
<image xlink:href="tile629_722.png" preserveAspectRatio="none" x="14014.160156" y="-3577.148438" width="4.394531" height="4.394531"/>
<image xlink:href="tile630_725.png" preserveAspectRatio="none" x="14018.554688" y="-3563.964844" width="4.394531" height="4.394531"/>
<image xlink:href="tile630_724.png" preserveAspectRatio="none" x="14018.554688" y="-3568.359375" width="4.394531" height="4.394531"/>
<image xlink:href="tile630_723.png" preserveAspectRatio="none" x="14018.554688" y="-3572.753906" width="4.394531" height="4.394531"/>
<image xlink:href="tile630_722.png" preserveAspectRatio="none" x="14018.554688" y="-3577.148438" width="4.394531" height="4.394531"/>
<image xlink:href="tile631_725.png" preserveAspectRatio="none" x="14022.949219" y="-3563.964844" width="4.394531" height="4.394531"/>
<image xlink:href="tile631_724.png" preserveAspectRatio="none" x="14022.949219" y="-3568.359375" width="4.394531" height="4.394531"/>
<image xlink:href="tile631_723.png" preserveAspectRatio="none" x="14022.949219" y="-3572.753906" width="4.394531" height="4.394531"/>
<image xlink:href="tile631_722.png" preserveAspectRatio="none" x="14022.949219" y="-3577.148438" width="4.394531" height="4.394531"/>
<image xlink:href="tile624_731.png" preserveAspectRatio="none" x="13992.1875" y="-3537.597656" width="4.394531" height="4.394531"/>
<image xlink:href="tile624_730.png" preserveAspectRatio="none" x="13992.1875" y="-3541.992188" width="4.394531" height="4.394531"/>
<image xlink:href="tile624_729.png" preserveAspectRatio="none" x="13992.1875" y="-3546.386719" width="4.394531" height="4.394531"/>
<image xlink:href="tile625_731.png" preserveAspectRatio="none" x="13996.582031" y="-3537.597656" width="4.394531" height="4.394531"/>
<image xlink:href="tile625_730.png" preserveAspectRatio="none" x="13996.582031" y="-3541.992188" width="4.394531" height="4.394531"/>
<image xlink:href="tile625_729.png" preserveAspectRatio="none" x="13996.582031" y="-3546.386719" width="4.394531" height="4.394531"/>
<image xlink:href="tile625_728.png" preserveAspectRatio="none" x="13996.582031" y="-3550.78125" width="4.394531" height="4.394531"/>
<image xlink:href="tile626_729.png" preserveAspectRatio="none" x="14000.976562" y="-3546.386719" width="4.394531" height="4.394531"/>
<image xlink:href="tile626_728.png" preserveAspectRatio="none" x="14000.976562" y="-3550.78125" width="4.394531" height="4.394531"/>
<image xlink:href="tile627_729.png" preserveAspectRatio="none" x="14005.371094" y="-3546.386719" width="4.394531" height="4.394531"/>
<image xlink:href="tile627_728.png" preserveAspectRatio="none" x="14005.371094" y="-3550.78125" width="4.394531" height="4.394531"/>
<image xlink:href="tile630_729.png" preserveAspectRatio="none" x="14018.554688" y="-3546.386719" width="4.394531" height="4.394531"/>
<image xlink:href="tile630_728.png" preserveAspectRatio="none" x="14018.554688" y="-3550.78125" width="4.394531" height="4.394531"/>
<image xlink:href="tile631_729.png" preserveAspectRatio="none" x="14022.949219" y="-3546.386719" width="4.394531" height="4.394531"/>
<image xlink:href="tile631_728.png" preserveAspectRatio="none" x="14022.949219" y="-3550.78125" width="4.394531" height="4.394531"/>
<image xlink:href="tile632_727.png" preserveAspectRatio="none" x="14027.34375" y="-3555.175781" width="4.394531" height="4.394531"/>
<image xlink:href="tile632_726.png" preserveAspectRatio="none" x="14027.34375" y="-3559.570312" width="4.394531" height="4.394531"/>
<image xlink:href="tile632_723.png" preserveAspectRatio="none" x="14027.34375" y="-3572.753906" width="4.394531" height="4.394531"/>
<image xlink:href="tile632_722.png" preserveAspectRatio="none" x="14027.34375" y="-3577.148438" width="4.394531" height="4.394531"/>
<image xlink:href="tile632_721.png" preserveAspectRatio="none" x="14027.34375" y="-3581.542969" width="4.394531" height="4.394531"/>
<image xlink:href="tile632_720.png" preserveAspectRatio="none" x="14027.34375" y="-3585.9375" width="4.394531" height="4.394531"/>
<image xlink:href="tile633_727.png" preserveAspectRatio="none" x="14031.738281" y="-3555.175781" width="4.394531" height="4.394531"/>
<image xlink:href="tile633_726.png" preserveAspectRatio="none" x="14031.738281" y="-3559.570312" width="4.394531" height="4.394531"/>
<image xlink:href="tile633_723.png" preserveAspectRatio="none" x="14031.738281" y="-3572.753906" width="4.394531" height="4.394531"/>
<image xlink:href="tile633_722.png" preserveAspectRatio="none" x="14031.738281" y="-3577.148438" width="4.394531" height="4.394531"/>
<image xlink:href="tile633_721.png" preserveAspectRatio="none" x="14031.738281" y="-3581.542969" width="4.394531" height="4.394531"/>
<image xlink:href="tile633_720.png" preserveAspectRatio="none" x="14031.738281" y="-3585.9375" width="4.394531" height="4.394531"/>
<image xlink:href="tile634_723.png" preserveAspectRatio="none" x="14036.132812" y="-3572.753906" width="4.394531" height="4.394531"/>
<image xlink:href="tile634_722.png" preserveAspectRatio="none" x="14036.132812" y="-3577.148438" width="4.394531" height="4.394531"/>
<image xlink:href="tile634_721.png" preserveAspectRatio="none" x="14036.132812" y="-3581.542969" width="4.394531" height="4.394531"/>
<image xlink:href="tile634_720.png" preserveAspectRatio="none" x="14036.132812" y="-3585.9375" width="4.394531" height="4.394531"/>
<image xlink:href="tile635_723.png" preserveAspectRatio="none" x="14040.527344" y="-3572.753906" width="4.394531" height="4.394531"/>
<image xlink:href="tile635_722.png" preserveAspectRatio="none" x="14040.527344" y="-3577.148438" width="4.394531" height="4.394531"/>
<image xlink:href="tile635_721.png" preserveAspectRatio="none" x="14040.527344" y="-3581.542969" width="4.394531" height="4.394531"/>
<image xlink:href="tile635_720.png" preserveAspectRatio="none" x="14040.527344" y="-3585.9375" width="4.394531" height="4.394531"/>
<image xlink:href="tile632_729.png" preserveAspectRatio="none" x="14027.34375" y="-3546.386719" width="4.394531" height="4.394531"/>
<image xlink:href="tile632_728.png" preserveAspectRatio="none" x="14027.34375" y="-3550.78125" width="4.394531" height="4.394531"/>
<image xlink:href="tile633_729.png" preserveAspectRatio="none" x="14031.738281" y="-3546.386719" width="4.394531" height="4.394531"/>
<image xlink:href="tile633_728.png" preserveAspectRatio="none" x="14031.738281" y="-3550.78125" width="4.394531" height="4.394531"/>
</g>
</svg>
