<?xml version="1.0" encoding="UTF-8"?>
<svg  xmlns="http://www.w3.org/2000/svg" xmlns:xlink="http://www.w3.org/1999/xlink" xmlns:go="http://purl.org/svgmap/profile" viewBox="12374.693694 -4552.224923 2206.5089170000006 2126.3241730000004" go:dataArea="12374.693694 -4552.224923 2206.5089170000006 2126.3241730000004" >
<metadata>
 <rdf:RDF xmlns:rdf="http://www.w3.org/1999/02/22-rdf-syntax-ns#" xmlns:crs="http://opengis.org/xmldtds/transformations.dtd" xmlns:svg="http://www.w3.org/svg" >
  <rdf:Description>
   <crs:CoordinateReferenceSystem rdf:resource="http://purl.org/crs/84" svg:transform="matrix(100.0,0.0,0.0,-100.0,0.0,0.0)" />
  </rdf:Description>
 </rdf:RDF>
</metadata>
<globalCoordinateSystem srsName="http://purl.org/crs/84" transform="matrix(100.0,0.0,0.0,-100.0,0.0,0.0)" />
<g >
<image xlink:href="tile460_767.png" preserveAspectRatio="none" x="13271.484375" y="-3379.394531" width="4.394531" height="4.394531"/>
<image xlink:href="tile460_766.png" preserveAspectRatio="none" x="13271.484375" y="-3383.789062" width="4.394531" height="4.394531"/>
<image xlink:href="tile461_767.png" preserveAspectRatio="none" x="13275.878906" y="-3379.394531" width="4.394531" height="4.394531"/>
<image xlink:href="tile461_766.png" preserveAspectRatio="none" x="13275.878906" y="-3383.789062" width="4.394531" height="4.394531"/>
<image xlink:href="tile456_757.png" preserveAspectRatio="none" x="13253.90625" y="-3423.339844" width="4.394531" height="4.394531"/>
<image xlink:href="tile456_756.png" preserveAspectRatio="none" x="13253.90625" y="-3427.734375" width="4.394531" height="4.394531"/>
<image xlink:href="tile456_755.png" preserveAspectRatio="none" x="13253.90625" y="-3432.128906" width="4.394531" height="4.394531"/>
<image xlink:href="tile456_754.png" preserveAspectRatio="none" x="13253.90625" y="-3436.523438" width="4.394531" height="4.394531"/>
<image xlink:href="tile456_753.png" preserveAspectRatio="none" x="13253.90625" y="-3440.917969" width="4.394531" height="4.394531"/>
<image xlink:href="tile456_752.png" preserveAspectRatio="none" x="13253.90625" y="-3445.3125" width="4.394531" height="4.394531"/>
<image xlink:href="tile457_757.png" preserveAspectRatio="none" x="13258.300781" y="-3423.339844" width="4.394531" height="4.394531"/>
<image xlink:href="tile457_756.png" preserveAspectRatio="none" x="13258.300781" y="-3427.734375" width="4.394531" height="4.394531"/>
<image xlink:href="tile457_755.png" preserveAspectRatio="none" x="13258.300781" y="-3432.128906" width="4.394531" height="4.394531"/>
<image xlink:href="tile457_754.png" preserveAspectRatio="none" x="13258.300781" y="-3436.523438" width="4.394531" height="4.394531"/>
<image xlink:href="tile457_753.png" preserveAspectRatio="none" x="13258.300781" y="-3440.917969" width="4.394531" height="4.394531"/>
<image xlink:href="tile457_752.png" preserveAspectRatio="none" x="13258.300781" y="-3445.3125" width="4.394531" height="4.394531"/>
<image xlink:href="tile460_753.png" preserveAspectRatio="none" x="13271.484375" y="-3440.917969" width="4.394531" height="4.394531"/>
<image xlink:href="tile460_752.png" preserveAspectRatio="none" x="13271.484375" y="-3445.3125" width="4.394531" height="4.394531"/>
<image xlink:href="tile461_753.png" preserveAspectRatio="none" x="13275.878906" y="-3440.917969" width="4.394531" height="4.394531"/>
<image xlink:href="tile461_752.png" preserveAspectRatio="none" x="13275.878906" y="-3445.3125" width="4.394531" height="4.394531"/>
<image xlink:href="tile462_753.png" preserveAspectRatio="none" x="13280.273438" y="-3440.917969" width="4.394531" height="4.394531"/>
<image xlink:href="tile462_752.png" preserveAspectRatio="none" x="13280.273438" y="-3445.3125" width="4.394531" height="4.394531"/>
<image xlink:href="tile463_753.png" preserveAspectRatio="none" x="13284.667969" y="-3440.917969" width="4.394531" height="4.394531"/>
<image xlink:href="tile463_752.png" preserveAspectRatio="none" x="13284.667969" y="-3445.3125" width="4.394531" height="4.394531"/>
<image xlink:href="tile448_759.png" preserveAspectRatio="none" x="13218.75" y="-3414.550781" width="4.394531" height="4.394531"/>
<image xlink:href="tile448_758.png" preserveAspectRatio="none" x="13218.75" y="-3418.945312" width="4.394531" height="4.394531"/>
<image xlink:href="tile448_757.png" preserveAspectRatio="none" x="13218.75" y="-3423.339844" width="4.394531" height="4.394531"/>
<image xlink:href="tile448_756.png" preserveAspectRatio="none" x="13218.75" y="-3427.734375" width="4.394531" height="4.394531"/>
<image xlink:href="tile449_758.png" preserveAspectRatio="none" x="13223.144531" y="-3418.945312" width="4.394531" height="4.394531"/>
<image xlink:href="tile449_757.png" preserveAspectRatio="none" x="13223.144531" y="-3423.339844" width="4.394531" height="4.394531"/>
<image xlink:href="tile449_756.png" preserveAspectRatio="none" x="13223.144531" y="-3427.734375" width="4.394531" height="4.394531"/>
<image xlink:href="tile450_755.png" preserveAspectRatio="none" x="13227.539062" y="-3432.128906" width="4.394531" height="4.394531"/>
<image xlink:href="tile450_754.png" preserveAspectRatio="none" x="13227.539062" y="-3436.523438" width="4.394531" height="4.394531"/>
<image xlink:href="tile450_753.png" preserveAspectRatio="none" x="13227.539062" y="-3440.917969" width="4.394531" height="4.394531"/>
<image xlink:href="tile450_752.png" preserveAspectRatio="none" x="13227.539062" y="-3445.3125" width="4.394531" height="4.394531"/>
<image xlink:href="tile451_754.png" preserveAspectRatio="none" x="13231.933594" y="-3436.523438" width="4.394531" height="4.394531"/>
<image xlink:href="tile451_753.png" preserveAspectRatio="none" x="13231.933594" y="-3440.917969" width="4.394531" height="4.394531"/>
<image xlink:href="tile451_752.png" preserveAspectRatio="none" x="13231.933594" y="-3445.3125" width="4.394531" height="4.394531"/>
<image xlink:href="tile452_753.png" preserveAspectRatio="none" x="13236.328125" y="-3440.917969" width="4.394531" height="4.394531"/>
<image xlink:href="tile452_752.png" preserveAspectRatio="none" x="13236.328125" y="-3445.3125" width="4.394531" height="4.394531"/>
<image xlink:href="tile453_753.png" preserveAspectRatio="none" x="13240.722656" y="-3440.917969" width="4.394531" height="4.394531"/>
<image xlink:href="tile453_752.png" preserveAspectRatio="none" x="13240.722656" y="-3445.3125" width="4.394531" height="4.394531"/>
<image xlink:href="tile454_757.png" preserveAspectRatio="none" x="13245.117188" y="-3423.339844" width="4.394531" height="4.394531"/>
<image xlink:href="tile454_756.png" preserveAspectRatio="none" x="13245.117188" y="-3427.734375" width="4.394531" height="4.394531"/>
<image xlink:href="tile454_753.png" preserveAspectRatio="none" x="13245.117188" y="-3440.917969" width="4.394531" height="4.394531"/>
<image xlink:href="tile454_752.png" preserveAspectRatio="none" x="13245.117188" y="-3445.3125" width="4.394531" height="4.394531"/>
<image xlink:href="tile455_757.png" preserveAspectRatio="none" x="13249.511719" y="-3423.339844" width="4.394531" height="4.394531"/>
<image xlink:href="tile455_756.png" preserveAspectRatio="none" x="13249.511719" y="-3427.734375" width="4.394531" height="4.394531"/>
<image xlink:href="tile455_753.png" preserveAspectRatio="none" x="13249.511719" y="-3440.917969" width="4.394531" height="4.394531"/>
<image xlink:href="tile455_752.png" preserveAspectRatio="none" x="13249.511719" y="-3445.3125" width="4.394531" height="4.394531"/>
</g>
</svg>
