<?xml version="1.0" encoding="UTF-8"?>
<svg  xmlns="http://www.w3.org/2000/svg" xmlns:xlink="http://www.w3.org/1999/xlink" xmlns:go="http://purl.org/svgmap/profile" viewBox="12374.693694 -4552.224923 2206.5089170000006 2126.3241730000004" go:dataArea="12374.693694 -4552.224923 2206.5089170000006 2126.3241730000004" >
<metadata>
 <rdf:RDF xmlns:rdf="http://www.w3.org/1999/02/22-rdf-syntax-ns#" xmlns:crs="http://opengis.org/xmldtds/transformations.dtd" xmlns:svg="http://www.w3.org/svg" >
  <rdf:Description>
   <crs:CoordinateReferenceSystem rdf:resource="http://purl.org/crs/84" svg:transform="matrix(100.0,0.0,0.0,-100.0,0.0,0.0)" />
  </rdf:Description>
 </rdf:RDF>
</metadata>
<globalCoordinateSystem srsName="http://purl.org/crs/84" transform="matrix(100.0,0.0,0.0,-100.0,0.0,0.0)" />
<g >
<image xlink:href="tile424_779.png" preserveAspectRatio="none" x="13113.28125" y="-3326.660156" width="4.394531" height="4.394531"/>
<image xlink:href="tile424_778.png" preserveAspectRatio="none" x="13113.28125" y="-3331.054688" width="4.394531" height="4.394531"/>
<image xlink:href="tile425_779.png" preserveAspectRatio="none" x="13117.675781" y="-3326.660156" width="4.394531" height="4.394531"/>
<image xlink:href="tile425_778.png" preserveAspectRatio="none" x="13117.675781" y="-3331.054688" width="4.394531" height="4.394531"/>
<image xlink:href="tile428_779.png" preserveAspectRatio="none" x="13130.859375" y="-3326.660156" width="4.394531" height="4.394531"/>
<image xlink:href="tile428_778.png" preserveAspectRatio="none" x="13130.859375" y="-3331.054688" width="4.394531" height="4.394531"/>
<image xlink:href="tile429_779.png" preserveAspectRatio="none" x="13135.253906" y="-3326.660156" width="4.394531" height="4.394531"/>
<image xlink:href="tile429_778.png" preserveAspectRatio="none" x="13135.253906" y="-3331.054688" width="4.394531" height="4.394531"/>
<image xlink:href="tile430_781.png" preserveAspectRatio="none" x="13139.648438" y="-3317.871094" width="4.394531" height="4.394531"/>
<image xlink:href="tile430_780.png" preserveAspectRatio="none" x="13139.648438" y="-3322.265625" width="4.394531" height="4.394531"/>
<image xlink:href="tile430_779.png" preserveAspectRatio="none" x="13139.648438" y="-3326.660156" width="4.394531" height="4.394531"/>
<image xlink:href="tile430_778.png" preserveAspectRatio="none" x="13139.648438" y="-3331.054688" width="4.394531" height="4.394531"/>
<image xlink:href="tile430_777.png" preserveAspectRatio="none" x="13139.648438" y="-3335.449219" width="4.394531" height="4.394531"/>
<image xlink:href="tile430_776.png" preserveAspectRatio="none" x="13139.648438" y="-3339.84375" width="4.394531" height="4.394531"/>
<image xlink:href="tile431_781.png" preserveAspectRatio="none" x="13144.042969" y="-3317.871094" width="4.394531" height="4.394531"/>
<image xlink:href="tile431_780.png" preserveAspectRatio="none" x="13144.042969" y="-3322.265625" width="4.394531" height="4.394531"/>
<image xlink:href="tile431_779.png" preserveAspectRatio="none" x="13144.042969" y="-3326.660156" width="4.394531" height="4.394531"/>
<image xlink:href="tile431_778.png" preserveAspectRatio="none" x="13144.042969" y="-3331.054688" width="4.394531" height="4.394531"/>
<image xlink:href="tile431_777.png" preserveAspectRatio="none" x="13144.042969" y="-3335.449219" width="4.394531" height="4.394531"/>
<image xlink:href="tile431_776.png" preserveAspectRatio="none" x="13144.042969" y="-3339.84375" width="4.394531" height="4.394531"/>
<image xlink:href="tile416_777.png" preserveAspectRatio="none" x="13078.125" y="-3335.449219" width="4.394531" height="4.394531"/>
<image xlink:href="tile416_776.png" preserveAspectRatio="none" x="13078.125" y="-3339.84375" width="4.394531" height="4.394531"/>
<image xlink:href="tile417_777.png" preserveAspectRatio="none" x="13082.519531" y="-3335.449219" width="4.394531" height="4.394531"/>
<image xlink:href="tile417_776.png" preserveAspectRatio="none" x="13082.519531" y="-3339.84375" width="4.394531" height="4.394531"/>
<image xlink:href="tile418_777.png" preserveAspectRatio="none" x="13086.914062" y="-3335.449219" width="4.394531" height="4.394531"/>
<image xlink:href="tile418_776.png" preserveAspectRatio="none" x="13086.914062" y="-3339.84375" width="4.394531" height="4.394531"/>
<image xlink:href="tile419_777.png" preserveAspectRatio="none" x="13091.308594" y="-3335.449219" width="4.394531" height="4.394531"/>
<image xlink:href="tile419_776.png" preserveAspectRatio="none" x="13091.308594" y="-3339.84375" width="4.394531" height="4.394531"/>
<image xlink:href="tile422_783.png" preserveAspectRatio="none" x="13104.492188" y="-3309.082031" width="4.394531" height="4.394531"/>
<image xlink:href="tile422_782.png" preserveAspectRatio="none" x="13104.492188" y="-3313.476562" width="4.394531" height="4.394531"/>
<image xlink:href="tile423_783.png" preserveAspectRatio="none" x="13108.886719" y="-3309.082031" width="4.394531" height="4.394531"/>
<image xlink:href="tile423_782.png" preserveAspectRatio="none" x="13108.886719" y="-3313.476562" width="4.394531" height="4.394531"/>
</g>
</svg>
