<?xml version="1.0" encoding="UTF-8"?>
<svg  xmlns="http://www.w3.org/2000/svg" xmlns:xlink="http://www.w3.org/1999/xlink" xmlns:go="http://purl.org/svgmap/profile" viewBox="12374.693694 -4552.224923 2206.5089170000006 2126.3241730000004" go:dataArea="12374.693694 -4552.224923 2206.5089170000006 2126.3241730000004" >
<metadata>
 <rdf:RDF xmlns:rdf="http://www.w3.org/1999/02/22-rdf-syntax-ns#" xmlns:crs="http://opengis.org/xmldtds/transformations.dtd" xmlns:svg="http://www.w3.org/svg" >
  <rdf:Description>
   <crs:CoordinateReferenceSystem rdf:resource="http://purl.org/crs/84" svg:transform="matrix(100.0,0.0,0.0,-100.0,0.0,0.0)" />
  </rdf:Description>
 </rdf:RDF>
</metadata>
<globalCoordinateSystem srsName="http://purl.org/crs/84" transform="matrix(100.0,0.0,0.0,-100.0,0.0,0.0)" />
<g >
<image xlink:href="tile536_739.png" preserveAspectRatio="none" x="13605.46875" y="-3502.441406" width="4.394531" height="4.394531"/>
<image xlink:href="tile536_738.png" preserveAspectRatio="none" x="13605.46875" y="-3506.835938" width="4.394531" height="4.394531"/>
<image xlink:href="tile537_739.png" preserveAspectRatio="none" x="13609.863281" y="-3502.441406" width="4.394531" height="4.394531"/>
<image xlink:href="tile537_738.png" preserveAspectRatio="none" x="13609.863281" y="-3506.835938" width="4.394531" height="4.394531"/>
<image xlink:href="tile538_741.png" preserveAspectRatio="none" x="13614.257812" y="-3493.652344" width="4.394531" height="4.394531"/>
<image xlink:href="tile538_740.png" preserveAspectRatio="none" x="13614.257812" y="-3498.046875" width="4.394531" height="4.394531"/>
<image xlink:href="tile538_737.png" preserveAspectRatio="none" x="13614.257812" y="-3511.230469" width="4.394531" height="4.394531"/>
<image xlink:href="tile538_736.png" preserveAspectRatio="none" x="13614.257812" y="-3515.625" width="4.394531" height="4.394531"/>
<image xlink:href="tile539_741.png" preserveAspectRatio="none" x="13618.652344" y="-3493.652344" width="4.394531" height="4.394531"/>
<image xlink:href="tile539_740.png" preserveAspectRatio="none" x="13618.652344" y="-3498.046875" width="4.394531" height="4.394531"/>
<image xlink:href="tile539_737.png" preserveAspectRatio="none" x="13618.652344" y="-3511.230469" width="4.394531" height="4.394531"/>
<image xlink:href="tile539_736.png" preserveAspectRatio="none" x="13618.652344" y="-3515.625" width="4.394531" height="4.394531"/>
<image xlink:href="tile540_741.png" preserveAspectRatio="none" x="13623.046875" y="-3493.652344" width="4.394531" height="4.394531"/>
<image xlink:href="tile540_740.png" preserveAspectRatio="none" x="13623.046875" y="-3498.046875" width="4.394531" height="4.394531"/>
<image xlink:href="tile540_737.png" preserveAspectRatio="none" x="13623.046875" y="-3511.230469" width="4.394531" height="4.394531"/>
<image xlink:href="tile540_736.png" preserveAspectRatio="none" x="13623.046875" y="-3515.625" width="4.394531" height="4.394531"/>
<image xlink:href="tile541_741.png" preserveAspectRatio="none" x="13627.441406" y="-3493.652344" width="4.394531" height="4.394531"/>
<image xlink:href="tile541_740.png" preserveAspectRatio="none" x="13627.441406" y="-3498.046875" width="4.394531" height="4.394531"/>
<image xlink:href="tile541_737.png" preserveAspectRatio="none" x="13627.441406" y="-3511.230469" width="4.394531" height="4.394531"/>
<image xlink:href="tile541_736.png" preserveAspectRatio="none" x="13627.441406" y="-3515.625" width="4.394531" height="4.394531"/>
<image xlink:href="tile528_743.png" preserveAspectRatio="none" x="13570.3125" y="-3484.863281" width="4.394531" height="4.394531"/>
<image xlink:href="tile528_742.png" preserveAspectRatio="none" x="13570.3125" y="-3489.257812" width="4.394531" height="4.394531"/>
<image xlink:href="tile528_741.png" preserveAspectRatio="none" x="13570.3125" y="-3493.652344" width="4.394531" height="4.394531"/>
<image xlink:href="tile528_740.png" preserveAspectRatio="none" x="13570.3125" y="-3498.046875" width="4.394531" height="4.394531"/>
<image xlink:href="tile528_739.png" preserveAspectRatio="none" x="13570.3125" y="-3502.441406" width="4.394531" height="4.394531"/>
<image xlink:href="tile528_738.png" preserveAspectRatio="none" x="13570.3125" y="-3506.835938" width="4.394531" height="4.394531"/>
<image xlink:href="tile529_743.png" preserveAspectRatio="none" x="13574.707031" y="-3484.863281" width="4.394531" height="4.394531"/>
<image xlink:href="tile529_742.png" preserveAspectRatio="none" x="13574.707031" y="-3489.257812" width="4.394531" height="4.394531"/>
<image xlink:href="tile529_741.png" preserveAspectRatio="none" x="13574.707031" y="-3493.652344" width="4.394531" height="4.394531"/>
<image xlink:href="tile529_740.png" preserveAspectRatio="none" x="13574.707031" y="-3498.046875" width="4.394531" height="4.394531"/>
<image xlink:href="tile529_739.png" preserveAspectRatio="none" x="13574.707031" y="-3502.441406" width="4.394531" height="4.394531"/>
<image xlink:href="tile529_738.png" preserveAspectRatio="none" x="13574.707031" y="-3506.835938" width="4.394531" height="4.394531"/>
<image xlink:href="tile530_741.png" preserveAspectRatio="none" x="13579.101562" y="-3493.652344" width="4.394531" height="4.394531"/>
<image xlink:href="tile530_740.png" preserveAspectRatio="none" x="13579.101562" y="-3498.046875" width="4.394531" height="4.394531"/>
<image xlink:href="tile530_739.png" preserveAspectRatio="none" x="13579.101562" y="-3502.441406" width="4.394531" height="4.394531"/>
<image xlink:href="tile530_738.png" preserveAspectRatio="none" x="13579.101562" y="-3506.835938" width="4.394531" height="4.394531"/>
<image xlink:href="tile531_741.png" preserveAspectRatio="none" x="13583.496094" y="-3493.652344" width="4.394531" height="4.394531"/>
<image xlink:href="tile531_740.png" preserveAspectRatio="none" x="13583.496094" y="-3498.046875" width="4.394531" height="4.394531"/>
<image xlink:href="tile531_739.png" preserveAspectRatio="none" x="13583.496094" y="-3502.441406" width="4.394531" height="4.394531"/>
<image xlink:href="tile531_738.png" preserveAspectRatio="none" x="13583.496094" y="-3506.835938" width="4.394531" height="4.394531"/>
<image xlink:href="tile532_741.png" preserveAspectRatio="none" x="13587.890625" y="-3493.652344" width="4.394531" height="4.394531"/>
<image xlink:href="tile532_740.png" preserveAspectRatio="none" x="13587.890625" y="-3498.046875" width="4.394531" height="4.394531"/>
<image xlink:href="tile532_739.png" preserveAspectRatio="none" x="13587.890625" y="-3502.441406" width="4.394531" height="4.394531"/>
<image xlink:href="tile532_738.png" preserveAspectRatio="none" x="13587.890625" y="-3506.835938" width="4.394531" height="4.394531"/>
<image xlink:href="tile533_741.png" preserveAspectRatio="none" x="13592.285156" y="-3493.652344" width="4.394531" height="4.394531"/>
<image xlink:href="tile533_740.png" preserveAspectRatio="none" x="13592.285156" y="-3498.046875" width="4.394531" height="4.394531"/>
<image xlink:href="tile533_739.png" preserveAspectRatio="none" x="13592.285156" y="-3502.441406" width="4.394531" height="4.394531"/>
<image xlink:href="tile533_738.png" preserveAspectRatio="none" x="13592.285156" y="-3506.835938" width="4.394531" height="4.394531"/>
<image xlink:href="tile534_739.png" preserveAspectRatio="none" x="13596.679688" y="-3502.441406" width="4.394531" height="4.394531"/>
<image xlink:href="tile534_738.png" preserveAspectRatio="none" x="13596.679688" y="-3506.835938" width="4.394531" height="4.394531"/>
<image xlink:href="tile535_739.png" preserveAspectRatio="none" x="13601.074219" y="-3502.441406" width="4.394531" height="4.394531"/>
<image xlink:href="tile535_738.png" preserveAspectRatio="none" x="13601.074219" y="-3506.835938" width="4.394531" height="4.394531"/>
<image xlink:href="tile528_751.png" preserveAspectRatio="none" x="13570.3125" y="-3449.707031" width="4.394531" height="4.394531"/>
<image xlink:href="tile528_750.png" preserveAspectRatio="none" x="13570.3125" y="-3454.101562" width="4.394531" height="4.394531"/>
<image xlink:href="tile528_747.png" preserveAspectRatio="none" x="13570.3125" y="-3467.285156" width="4.394531" height="4.394531"/>
<image xlink:href="tile528_746.png" preserveAspectRatio="none" x="13570.3125" y="-3471.679688" width="4.394531" height="4.394531"/>
<image xlink:href="tile528_745.png" preserveAspectRatio="none" x="13570.3125" y="-3476.074219" width="4.394531" height="4.394531"/>
<image xlink:href="tile528_744.png" preserveAspectRatio="none" x="13570.3125" y="-3480.46875" width="4.394531" height="4.394531"/>
<image xlink:href="tile529_751.png" preserveAspectRatio="none" x="13574.707031" y="-3449.707031" width="4.394531" height="4.394531"/>
<image xlink:href="tile529_750.png" preserveAspectRatio="none" x="13574.707031" y="-3454.101562" width="4.394531" height="4.394531"/>
<image xlink:href="tile529_747.png" preserveAspectRatio="none" x="13574.707031" y="-3467.285156" width="4.394531" height="4.394531"/>
<image xlink:href="tile529_746.png" preserveAspectRatio="none" x="13574.707031" y="-3471.679688" width="4.394531" height="4.394531"/>
<image xlink:href="tile529_745.png" preserveAspectRatio="none" x="13574.707031" y="-3476.074219" width="4.394531" height="4.394531"/>
<image xlink:href="tile529_744.png" preserveAspectRatio="none" x="13574.707031" y="-3480.46875" width="4.394531" height="4.394531"/>
<image xlink:href="tile530_751.png" preserveAspectRatio="none" x="13579.101562" y="-3449.707031" width="4.394531" height="4.394531"/>
<image xlink:href="tile530_750.png" preserveAspectRatio="none" x="13579.101562" y="-3454.101562" width="4.394531" height="4.394531"/>
<image xlink:href="tile530_749.png" preserveAspectRatio="none" x="13579.101562" y="-3458.496094" width="4.394531" height="4.394531"/>
<image xlink:href="tile530_748.png" preserveAspectRatio="none" x="13579.101562" y="-3462.890625" width="4.394531" height="4.394531"/>
<image xlink:href="tile530_747.png" preserveAspectRatio="none" x="13579.101562" y="-3467.285156" width="4.394531" height="4.394531"/>
<image xlink:href="tile530_746.png" preserveAspectRatio="none" x="13579.101562" y="-3471.679688" width="4.394531" height="4.394531"/>
<image xlink:href="tile531_751.png" preserveAspectRatio="none" x="13583.496094" y="-3449.707031" width="4.394531" height="4.394531"/>
<image xlink:href="tile531_750.png" preserveAspectRatio="none" x="13583.496094" y="-3454.101562" width="4.394531" height="4.394531"/>
<image xlink:href="tile531_749.png" preserveAspectRatio="none" x="13583.496094" y="-3458.496094" width="4.394531" height="4.394531"/>
<image xlink:href="tile531_748.png" preserveAspectRatio="none" x="13583.496094" y="-3462.890625" width="4.394531" height="4.394531"/>
<image xlink:href="tile531_747.png" preserveAspectRatio="none" x="13583.496094" y="-3467.285156" width="4.394531" height="4.394531"/>
<image xlink:href="tile531_746.png" preserveAspectRatio="none" x="13583.496094" y="-3471.679688" width="4.394531" height="4.394531"/>
</g>
</svg>
