<?xml version="1.0" encoding="UTF-8"?>
<svg  xmlns="http://www.w3.org/2000/svg" xmlns:xlink="http://www.w3.org/1999/xlink" xmlns:go="http://purl.org/svgmap/profile" viewBox="12374.693694 -4552.224923 2206.5089170000006 2126.3241730000004" go:dataArea="12374.693694 -4552.224923 2206.5089170000006 2126.3241730000004" >
<metadata>
 <rdf:RDF xmlns:rdf="http://www.w3.org/1999/02/22-rdf-syntax-ns#" xmlns:crs="http://opengis.org/xmldtds/transformations.dtd" xmlns:svg="http://www.w3.org/svg" >
  <rdf:Description>
   <crs:CoordinateReferenceSystem rdf:resource="http://purl.org/crs/84" svg:transform="matrix(100.0,0.0,0.0,-100.0,0.0,0.0)" />
  </rdf:Description>
 </rdf:RDF>
</metadata>
<globalCoordinateSystem srsName="http://purl.org/crs/84" transform="matrix(100.0,0.0,0.0,-100.0,0.0,0.0)" />
<g >
<image xlink:href="tile456_751.png" preserveAspectRatio="none" x="13253.90625" y="-3449.707031" width="4.394531" height="4.394531"/>
<image xlink:href="tile456_750.png" preserveAspectRatio="none" x="13253.90625" y="-3454.101562" width="4.394531" height="4.394531"/>
<image xlink:href="tile456_747.png" preserveAspectRatio="none" x="13253.90625" y="-3467.285156" width="4.394531" height="4.394531"/>
<image xlink:href="tile456_746.png" preserveAspectRatio="none" x="13253.90625" y="-3471.679688" width="4.394531" height="4.394531"/>
<image xlink:href="tile457_751.png" preserveAspectRatio="none" x="13258.300781" y="-3449.707031" width="4.394531" height="4.394531"/>
<image xlink:href="tile457_750.png" preserveAspectRatio="none" x="13258.300781" y="-3454.101562" width="4.394531" height="4.394531"/>
<image xlink:href="tile457_747.png" preserveAspectRatio="none" x="13258.300781" y="-3467.285156" width="4.394531" height="4.394531"/>
<image xlink:href="tile457_746.png" preserveAspectRatio="none" x="13258.300781" y="-3471.679688" width="4.394531" height="4.394531"/>
<image xlink:href="tile458_751.png" preserveAspectRatio="none" x="13262.695312" y="-3449.707031" width="4.394531" height="4.394531"/>
<image xlink:href="tile458_750.png" preserveAspectRatio="none" x="13262.695312" y="-3454.101562" width="4.394531" height="4.394531"/>
<image xlink:href="tile459_751.png" preserveAspectRatio="none" x="13267.089844" y="-3449.707031" width="4.394531" height="4.394531"/>
<image xlink:href="tile459_750.png" preserveAspectRatio="none" x="13267.089844" y="-3454.101562" width="4.394531" height="4.394531"/>
<image xlink:href="tile460_745.png" preserveAspectRatio="none" x="13271.484375" y="-3476.074219" width="4.394531" height="4.394531"/>
<image xlink:href="tile460_744.png" preserveAspectRatio="none" x="13271.484375" y="-3480.46875" width="4.394531" height="4.394531"/>
<image xlink:href="tile461_745.png" preserveAspectRatio="none" x="13275.878906" y="-3476.074219" width="4.394531" height="4.394531"/>
<image xlink:href="tile461_744.png" preserveAspectRatio="none" x="13275.878906" y="-3480.46875" width="4.394531" height="4.394531"/>
<image xlink:href="tile462_745.png" preserveAspectRatio="none" x="13280.273438" y="-3476.074219" width="4.394531" height="4.394531"/>
<image xlink:href="tile462_744.png" preserveAspectRatio="none" x="13280.273438" y="-3480.46875" width="4.394531" height="4.394531"/>
<image xlink:href="tile463_744.png" preserveAspectRatio="none" x="13284.667969" y="-3480.46875" width="4.394531" height="4.394531"/>
<image xlink:href="tile462_743.png" preserveAspectRatio="none" x="13280.273438" y="-3484.863281" width="4.394531" height="4.394531"/>
<image xlink:href="tile462_742.png" preserveAspectRatio="none" x="13280.273438" y="-3489.257812" width="4.394531" height="4.394531"/>
<image xlink:href="tile463_743.png" preserveAspectRatio="none" x="13284.667969" y="-3484.863281" width="4.394531" height="4.394531"/>
<image xlink:href="tile463_742.png" preserveAspectRatio="none" x="13284.667969" y="-3489.257812" width="4.394531" height="4.394531"/>
<image xlink:href="tile450_749.png" preserveAspectRatio="none" x="13227.539062" y="-3458.496094" width="4.394531" height="4.394531"/>
<image xlink:href="tile450_748.png" preserveAspectRatio="none" x="13227.539062" y="-3462.890625" width="4.394531" height="4.394531"/>
<image xlink:href="tile451_749.png" preserveAspectRatio="none" x="13231.933594" y="-3458.496094" width="4.394531" height="4.394531"/>
<image xlink:href="tile451_748.png" preserveAspectRatio="none" x="13231.933594" y="-3462.890625" width="4.394531" height="4.394531"/>
<image xlink:href="tile452_751.png" preserveAspectRatio="none" x="13236.328125" y="-3449.707031" width="4.394531" height="4.394531"/>
<image xlink:href="tile452_750.png" preserveAspectRatio="none" x="13236.328125" y="-3454.101562" width="4.394531" height="4.394531"/>
<image xlink:href="tile452_749.png" preserveAspectRatio="none" x="13236.328125" y="-3458.496094" width="4.394531" height="4.394531"/>
<image xlink:href="tile452_748.png" preserveAspectRatio="none" x="13236.328125" y="-3462.890625" width="4.394531" height="4.394531"/>
<image xlink:href="tile453_751.png" preserveAspectRatio="none" x="13240.722656" y="-3449.707031" width="4.394531" height="4.394531"/>
<image xlink:href="tile453_750.png" preserveAspectRatio="none" x="13240.722656" y="-3454.101562" width="4.394531" height="4.394531"/>
<image xlink:href="tile453_749.png" preserveAspectRatio="none" x="13240.722656" y="-3458.496094" width="4.394531" height="4.394531"/>
<image xlink:href="tile453_748.png" preserveAspectRatio="none" x="13240.722656" y="-3462.890625" width="4.394531" height="4.394531"/>
<image xlink:href="tile454_751.png" preserveAspectRatio="none" x="13245.117188" y="-3449.707031" width="4.394531" height="4.394531"/>
<image xlink:href="tile454_750.png" preserveAspectRatio="none" x="13245.117188" y="-3454.101562" width="4.394531" height="4.394531"/>
<image xlink:href="tile454_749.png" preserveAspectRatio="none" x="13245.117188" y="-3458.496094" width="4.394531" height="4.394531"/>
<image xlink:href="tile454_748.png" preserveAspectRatio="none" x="13245.117188" y="-3462.890625" width="4.394531" height="4.394531"/>
<image xlink:href="tile454_747.png" preserveAspectRatio="none" x="13245.117188" y="-3467.285156" width="4.394531" height="4.394531"/>
<image xlink:href="tile454_746.png" preserveAspectRatio="none" x="13245.117188" y="-3471.679688" width="4.394531" height="4.394531"/>
<image xlink:href="tile455_751.png" preserveAspectRatio="none" x="13249.511719" y="-3449.707031" width="4.394531" height="4.394531"/>
<image xlink:href="tile455_750.png" preserveAspectRatio="none" x="13249.511719" y="-3454.101562" width="4.394531" height="4.394531"/>
<image xlink:href="tile455_749.png" preserveAspectRatio="none" x="13249.511719" y="-3458.496094" width="4.394531" height="4.394531"/>
<image xlink:href="tile455_748.png" preserveAspectRatio="none" x="13249.511719" y="-3462.890625" width="4.394531" height="4.394531"/>
<image xlink:href="tile455_747.png" preserveAspectRatio="none" x="13249.511719" y="-3467.285156" width="4.394531" height="4.394531"/>
<image xlink:href="tile455_746.png" preserveAspectRatio="none" x="13249.511719" y="-3471.679688" width="4.394531" height="4.394531"/>
</g>
</svg>
