<?xml version="1.0" encoding="UTF-8"?>
<svg  xmlns="http://www.w3.org/2000/svg" xmlns:xlink="http://www.w3.org/1999/xlink" xmlns:go="http://purl.org/svgmap/profile" viewBox="12374.693694 -4552.224923 2206.5089170000006 2126.3241730000004" go:dataArea="12374.693694 -4552.224923 2206.5089170000006 2126.3241730000004" >
<metadata>
 <rdf:RDF xmlns:rdf="http://www.w3.org/1999/02/22-rdf-syntax-ns#" xmlns:crs="http://opengis.org/xmldtds/transformations.dtd" xmlns:svg="http://www.w3.org/svg" >
  <rdf:Description>
   <crs:CoordinateReferenceSystem rdf:resource="http://purl.org/crs/84" svg:transform="matrix(100.0,0.0,0.0,-100.0,0.0,0.0)" />
  </rdf:Description>
 </rdf:RDF>
</metadata>
<globalCoordinateSystem srsName="http://purl.org/crs/84" transform="matrix(100.0,0.0,0.0,-100.0,0.0,0.0)" />
<g >
<image xlink:href="tile612_711.png" preserveAspectRatio="none" x="13939.453125" y="-3625.488281" width="4.394531" height="4.394531"/>
<image xlink:href="tile612_710.png" preserveAspectRatio="none" x="13939.453125" y="-3629.882812" width="4.394531" height="4.394531"/>
<image xlink:href="tile613_711.png" preserveAspectRatio="none" x="13943.847656" y="-3625.488281" width="4.394531" height="4.394531"/>
<image xlink:href="tile613_710.png" preserveAspectRatio="none" x="13943.847656" y="-3629.882812" width="4.394531" height="4.394531"/>
<image xlink:href="tile614_711.png" preserveAspectRatio="none" x="13948.242188" y="-3625.488281" width="4.394531" height="4.394531"/>
<image xlink:href="tile614_710.png" preserveAspectRatio="none" x="13948.242188" y="-3629.882812" width="4.394531" height="4.394531"/>
<image xlink:href="tile615_711.png" preserveAspectRatio="none" x="13952.636719" y="-3625.488281" width="4.394531" height="4.394531"/>
<image xlink:href="tile615_710.png" preserveAspectRatio="none" x="13952.636719" y="-3629.882812" width="4.394531" height="4.394531"/>
<image xlink:href="tile608_715.png" preserveAspectRatio="none" x="13921.875" y="-3607.910156" width="4.394531" height="4.394531"/>
<image xlink:href="tile608_714.png" preserveAspectRatio="none" x="13921.875" y="-3612.304688" width="4.394531" height="4.394531"/>
<image xlink:href="tile608_713.png" preserveAspectRatio="none" x="13921.875" y="-3616.699219" width="4.394531" height="4.394531"/>
<image xlink:href="tile608_712.png" preserveAspectRatio="none" x="13921.875" y="-3621.09375" width="4.394531" height="4.394531"/>
<image xlink:href="tile609_715.png" preserveAspectRatio="none" x="13926.269531" y="-3607.910156" width="4.394531" height="4.394531"/>
<image xlink:href="tile609_714.png" preserveAspectRatio="none" x="13926.269531" y="-3612.304688" width="4.394531" height="4.394531"/>
<image xlink:href="tile609_713.png" preserveAspectRatio="none" x="13926.269531" y="-3616.699219" width="4.394531" height="4.394531"/>
<image xlink:href="tile609_712.png" preserveAspectRatio="none" x="13926.269531" y="-3621.09375" width="4.394531" height="4.394531"/>
<image xlink:href="tile610_719.png" preserveAspectRatio="none" x="13930.664062" y="-3590.332031" width="4.394531" height="4.394531"/>
<image xlink:href="tile610_718.png" preserveAspectRatio="none" x="13930.664062" y="-3594.726562" width="4.394531" height="4.394531"/>
<image xlink:href="tile610_717.png" preserveAspectRatio="none" x="13930.664062" y="-3599.121094" width="4.394531" height="4.394531"/>
<image xlink:href="tile610_716.png" preserveAspectRatio="none" x="13930.664062" y="-3603.515625" width="4.394531" height="4.394531"/>
<image xlink:href="tile610_715.png" preserveAspectRatio="none" x="13930.664062" y="-3607.910156" width="4.394531" height="4.394531"/>
<image xlink:href="tile610_714.png" preserveAspectRatio="none" x="13930.664062" y="-3612.304688" width="4.394531" height="4.394531"/>
<image xlink:href="tile610_713.png" preserveAspectRatio="none" x="13930.664062" y="-3616.699219" width="4.394531" height="4.394531"/>
<image xlink:href="tile610_712.png" preserveAspectRatio="none" x="13930.664062" y="-3621.09375" width="4.394531" height="4.394531"/>
<image xlink:href="tile611_719.png" preserveAspectRatio="none" x="13935.058594" y="-3590.332031" width="4.394531" height="4.394531"/>
<image xlink:href="tile611_718.png" preserveAspectRatio="none" x="13935.058594" y="-3594.726562" width="4.394531" height="4.394531"/>
<image xlink:href="tile611_717.png" preserveAspectRatio="none" x="13935.058594" y="-3599.121094" width="4.394531" height="4.394531"/>
<image xlink:href="tile611_716.png" preserveAspectRatio="none" x="13935.058594" y="-3603.515625" width="4.394531" height="4.394531"/>
<image xlink:href="tile611_715.png" preserveAspectRatio="none" x="13935.058594" y="-3607.910156" width="4.394531" height="4.394531"/>
<image xlink:href="tile611_714.png" preserveAspectRatio="none" x="13935.058594" y="-3612.304688" width="4.394531" height="4.394531"/>
<image xlink:href="tile611_713.png" preserveAspectRatio="none" x="13935.058594" y="-3616.699219" width="4.394531" height="4.394531"/>
<image xlink:href="tile611_712.png" preserveAspectRatio="none" x="13935.058594" y="-3621.09375" width="4.394531" height="4.394531"/>
<image xlink:href="tile612_719.png" preserveAspectRatio="none" x="13939.453125" y="-3590.332031" width="4.394531" height="4.394531"/>
<image xlink:href="tile612_718.png" preserveAspectRatio="none" x="13939.453125" y="-3594.726562" width="4.394531" height="4.394531"/>
<image xlink:href="tile612_717.png" preserveAspectRatio="none" x="13939.453125" y="-3599.121094" width="4.394531" height="4.394531"/>
<image xlink:href="tile612_716.png" preserveAspectRatio="none" x="13939.453125" y="-3603.515625" width="4.394531" height="4.394531"/>
<image xlink:href="tile613_719.png" preserveAspectRatio="none" x="13943.847656" y="-3590.332031" width="4.394531" height="4.394531"/>
<image xlink:href="tile613_718.png" preserveAspectRatio="none" x="13943.847656" y="-3594.726562" width="4.394531" height="4.394531"/>
<image xlink:href="tile613_717.png" preserveAspectRatio="none" x="13943.847656" y="-3599.121094" width="4.394531" height="4.394531"/>
<image xlink:href="tile613_716.png" preserveAspectRatio="none" x="13943.847656" y="-3603.515625" width="4.394531" height="4.394531"/>
<image xlink:href="tile614_719.png" preserveAspectRatio="none" x="13948.242188" y="-3590.332031" width="4.394531" height="4.394531"/>
<image xlink:href="tile614_718.png" preserveAspectRatio="none" x="13948.242188" y="-3594.726562" width="4.394531" height="4.394531"/>
<image xlink:href="tile614_717.png" preserveAspectRatio="none" x="13948.242188" y="-3599.121094" width="4.394531" height="4.394531"/>
<image xlink:href="tile614_716.png" preserveAspectRatio="none" x="13948.242188" y="-3603.515625" width="4.394531" height="4.394531"/>
<image xlink:href="tile615_719.png" preserveAspectRatio="none" x="13952.636719" y="-3590.332031" width="4.394531" height="4.394531"/>
<image xlink:href="tile615_718.png" preserveAspectRatio="none" x="13952.636719" y="-3594.726562" width="4.394531" height="4.394531"/>
<image xlink:href="tile615_717.png" preserveAspectRatio="none" x="13952.636719" y="-3599.121094" width="4.394531" height="4.394531"/>
<image xlink:href="tile615_716.png" preserveAspectRatio="none" x="13952.636719" y="-3603.515625" width="4.394531" height="4.394531"/>
<image xlink:href="tile616_711.png" preserveAspectRatio="none" x="13957.03125" y="-3625.488281" width="4.394531" height="4.394531"/>
<image xlink:href="tile616_710.png" preserveAspectRatio="none" x="13957.03125" y="-3629.882812" width="4.394531" height="4.394531"/>
<image xlink:href="tile616_709.png" preserveAspectRatio="none" x="13957.03125" y="-3634.277344" width="4.394531" height="4.394531"/>
<image xlink:href="tile616_708.png" preserveAspectRatio="none" x="13957.03125" y="-3638.671875" width="4.394531" height="4.394531"/>
<image xlink:href="tile617_711.png" preserveAspectRatio="none" x="13961.425781" y="-3625.488281" width="4.394531" height="4.394531"/>
<image xlink:href="tile617_710.png" preserveAspectRatio="none" x="13961.425781" y="-3629.882812" width="4.394531" height="4.394531"/>
<image xlink:href="tile617_709.png" preserveAspectRatio="none" x="13961.425781" y="-3634.277344" width="4.394531" height="4.394531"/>
<image xlink:href="tile617_708.png" preserveAspectRatio="none" x="13961.425781" y="-3638.671875" width="4.394531" height="4.394531"/>
<image xlink:href="tile618_708.png" preserveAspectRatio="none" x="13965.820312" y="-3638.671875" width="4.394531" height="4.394531"/>
<image xlink:href="tile618_707.png" preserveAspectRatio="none" x="13965.820312" y="-3643.066406" width="4.394531" height="4.394531"/>
<image xlink:href="tile618_706.png" preserveAspectRatio="none" x="13965.820312" y="-3647.460938" width="4.394531" height="4.394531"/>
<image xlink:href="tile618_705.png" preserveAspectRatio="none" x="13965.820312" y="-3651.855469" width="4.394531" height="4.394531"/>
<image xlink:href="tile618_704.png" preserveAspectRatio="none" x="13965.820312" y="-3656.25" width="4.394531" height="4.394531"/>
<image xlink:href="tile619_709.png" preserveAspectRatio="none" x="13970.214844" y="-3634.277344" width="4.394531" height="4.394531"/>
<image xlink:href="tile619_708.png" preserveAspectRatio="none" x="13970.214844" y="-3638.671875" width="4.394531" height="4.394531"/>
<image xlink:href="tile619_707.png" preserveAspectRatio="none" x="13970.214844" y="-3643.066406" width="4.394531" height="4.394531"/>
<image xlink:href="tile619_706.png" preserveAspectRatio="none" x="13970.214844" y="-3647.460938" width="4.394531" height="4.394531"/>
<image xlink:href="tile619_705.png" preserveAspectRatio="none" x="13970.214844" y="-3651.855469" width="4.394531" height="4.394531"/>
<image xlink:href="tile619_704.png" preserveAspectRatio="none" x="13970.214844" y="-3656.25" width="4.394531" height="4.394531"/>
<image xlink:href="tile620_705.png" preserveAspectRatio="none" x="13974.609375" y="-3651.855469" width="4.394531" height="4.394531"/>
<image xlink:href="tile620_704.png" preserveAspectRatio="none" x="13974.609375" y="-3656.25" width="4.394531" height="4.394531"/>
<image xlink:href="tile621_705.png" preserveAspectRatio="none" x="13979.003906" y="-3651.855469" width="4.394531" height="4.394531"/>
<image xlink:href="tile621_704.png" preserveAspectRatio="none" x="13979.003906" y="-3656.25" width="4.394531" height="4.394531"/>
<image xlink:href="tile622_705.png" preserveAspectRatio="none" x="13983.398438" y="-3651.855469" width="4.394531" height="4.394531"/>
<image xlink:href="tile622_704.png" preserveAspectRatio="none" x="13983.398438" y="-3656.25" width="4.394531" height="4.394531"/>
<image xlink:href="tile623_705.png" preserveAspectRatio="none" x="13987.792969" y="-3651.855469" width="4.394531" height="4.394531"/>
<image xlink:href="tile623_704.png" preserveAspectRatio="none" x="13987.792969" y="-3656.25" width="4.394531" height="4.394531"/>
<image xlink:href="tile616_719.png" preserveAspectRatio="none" x="13957.03125" y="-3590.332031" width="4.394531" height="4.394531"/>
<image xlink:href="tile616_718.png" preserveAspectRatio="none" x="13957.03125" y="-3594.726562" width="4.394531" height="4.394531"/>
<image xlink:href="tile616_717.png" preserveAspectRatio="none" x="13957.03125" y="-3599.121094" width="4.394531" height="4.394531"/>
<image xlink:href="tile616_716.png" preserveAspectRatio="none" x="13957.03125" y="-3603.515625" width="4.394531" height="4.394531"/>
<image xlink:href="tile616_715.png" preserveAspectRatio="none" x="13957.03125" y="-3607.910156" width="4.394531" height="4.394531"/>
<image xlink:href="tile616_714.png" preserveAspectRatio="none" x="13957.03125" y="-3612.304688" width="4.394531" height="4.394531"/>
<image xlink:href="tile616_713.png" preserveAspectRatio="none" x="13957.03125" y="-3616.699219" width="4.394531" height="4.394531"/>
<image xlink:href="tile616_712.png" preserveAspectRatio="none" x="13957.03125" y="-3621.09375" width="4.394531" height="4.394531"/>
<image xlink:href="tile617_719.png" preserveAspectRatio="none" x="13961.425781" y="-3590.332031" width="4.394531" height="4.394531"/>
<image xlink:href="tile617_718.png" preserveAspectRatio="none" x="13961.425781" y="-3594.726562" width="4.394531" height="4.394531"/>
<image xlink:href="tile617_717.png" preserveAspectRatio="none" x="13961.425781" y="-3599.121094" width="4.394531" height="4.394531"/>
<image xlink:href="tile617_716.png" preserveAspectRatio="none" x="13961.425781" y="-3603.515625" width="4.394531" height="4.394531"/>
<image xlink:href="tile617_715.png" preserveAspectRatio="none" x="13961.425781" y="-3607.910156" width="4.394531" height="4.394531"/>
<image xlink:href="tile617_714.png" preserveAspectRatio="none" x="13961.425781" y="-3612.304688" width="4.394531" height="4.394531"/>
<image xlink:href="tile617_713.png" preserveAspectRatio="none" x="13961.425781" y="-3616.699219" width="4.394531" height="4.394531"/>
<image xlink:href="tile617_712.png" preserveAspectRatio="none" x="13961.425781" y="-3621.09375" width="4.394531" height="4.394531"/>
<image xlink:href="tile618_719.png" preserveAspectRatio="none" x="13965.820312" y="-3590.332031" width="4.394531" height="4.394531"/>
<image xlink:href="tile618_718.png" preserveAspectRatio="none" x="13965.820312" y="-3594.726562" width="4.394531" height="4.394531"/>
<image xlink:href="tile618_717.png" preserveAspectRatio="none" x="13965.820312" y="-3599.121094" width="4.394531" height="4.394531"/>
<image xlink:href="tile618_716.png" preserveAspectRatio="none" x="13965.820312" y="-3603.515625" width="4.394531" height="4.394531"/>
<image xlink:href="tile618_715.png" preserveAspectRatio="none" x="13965.820312" y="-3607.910156" width="4.394531" height="4.394531"/>
<image xlink:href="tile618_714.png" preserveAspectRatio="none" x="13965.820312" y="-3612.304688" width="4.394531" height="4.394531"/>
<image xlink:href="tile619_719.png" preserveAspectRatio="none" x="13970.214844" y="-3590.332031" width="4.394531" height="4.394531"/>
<image xlink:href="tile619_718.png" preserveAspectRatio="none" x="13970.214844" y="-3594.726562" width="4.394531" height="4.394531"/>
<image xlink:href="tile619_717.png" preserveAspectRatio="none" x="13970.214844" y="-3599.121094" width="4.394531" height="4.394531"/>
<image xlink:href="tile619_716.png" preserveAspectRatio="none" x="13970.214844" y="-3603.515625" width="4.394531" height="4.394531"/>
<image xlink:href="tile619_715.png" preserveAspectRatio="none" x="13970.214844" y="-3607.910156" width="4.394531" height="4.394531"/>
<image xlink:href="tile619_714.png" preserveAspectRatio="none" x="13970.214844" y="-3612.304688" width="4.394531" height="4.394531"/>
<image xlink:href="tile620_719.png" preserveAspectRatio="none" x="13974.609375" y="-3590.332031" width="4.394531" height="4.394531"/>
<image xlink:href="tile620_718.png" preserveAspectRatio="none" x="13974.609375" y="-3594.726562" width="4.394531" height="4.394531"/>
<image xlink:href="tile621_719.png" preserveAspectRatio="none" x="13979.003906" y="-3590.332031" width="4.394531" height="4.394531"/>
<image xlink:href="tile621_718.png" preserveAspectRatio="none" x="13979.003906" y="-3594.726562" width="4.394531" height="4.394531"/>
<image xlink:href="tile622_719.png" preserveAspectRatio="none" x="13983.398438" y="-3590.332031" width="4.394531" height="4.394531"/>
<image xlink:href="tile622_718.png" preserveAspectRatio="none" x="13983.398438" y="-3594.726562" width="4.394531" height="4.394531"/>
<image xlink:href="tile622_715.png" preserveAspectRatio="none" x="13983.398438" y="-3607.910156" width="4.394531" height="4.394531"/>
<image xlink:href="tile622_714.png" preserveAspectRatio="none" x="13983.398438" y="-3612.304688" width="4.394531" height="4.394531"/>
<image xlink:href="tile623_719.png" preserveAspectRatio="none" x="13987.792969" y="-3590.332031" width="4.394531" height="4.394531"/>
<image xlink:href="tile623_718.png" preserveAspectRatio="none" x="13987.792969" y="-3594.726562" width="4.394531" height="4.394531"/>
<image xlink:href="tile623_715.png" preserveAspectRatio="none" x="13987.792969" y="-3607.910156" width="4.394531" height="4.394531"/>
<image xlink:href="tile623_714.png" preserveAspectRatio="none" x="13987.792969" y="-3612.304688" width="4.394531" height="4.394531"/>
</g>
</svg>
