<?xml version="1.0" encoding="UTF-8"?>
<svg  xmlns="http://www.w3.org/2000/svg" xmlns:xlink="http://www.w3.org/1999/xlink" xmlns:go="http://purl.org/svgmap/profile" viewBox="12374.693694 -4552.224923 2206.5089170000006 2126.3241730000004" go:dataArea="12374.693694 -4552.224923 2206.5089170000006 2126.3241730000004" >
<metadata>
 <rdf:RDF xmlns:rdf="http://www.w3.org/1999/02/22-rdf-syntax-ns#" xmlns:crs="http://opengis.org/xmldtds/transformations.dtd" xmlns:svg="http://www.w3.org/svg" >
  <rdf:Description>
   <crs:CoordinateReferenceSystem rdf:resource="http://purl.org/crs/84" svg:transform="matrix(100.0,0.0,0.0,-100.0,0.0,0.0)" />
  </rdf:Description>
 </rdf:RDF>
</metadata>
<globalCoordinateSystem srsName="http://purl.org/crs/84" transform="matrix(100.0,0.0,0.0,-100.0,0.0,0.0)" />
<g >
<animation xlink:href="sub_648_367_container.svg" x="14097.65625" y="-3867.1875" width="4.394531" height="4.394531"/>
<animation xlink:href="sub_647_366_container.svg" x="14093.261719" y="-3862.792969" width="4.394531" height="4.394531"/>
<animation xlink:href="sub_615_299_container.svg" x="13952.636719" y="-3568.359375" width="4.394531" height="4.394531"/>
<animation xlink:href="sub_647_367_container.svg" x="14093.261719" y="-3867.1875" width="4.394531" height="4.394531"/>
<animation xlink:href="sub_651_391_container.svg" x="14110.839844" y="-3972.65625" width="4.394531" height="4.394531"/>
<animation xlink:href="sub_622_299_container.svg" x="13983.398438" y="-3568.359375" width="4.394531" height="4.394531"/>
<animation xlink:href="sub_646_362_container.svg" x="14088.867188" y="-3845.214844" width="4.394531" height="4.394531"/>
<animation xlink:href="sub_646_363_container.svg" x="14088.867188" y="-3849.609375" width="4.394531" height="4.394531"/>
<animation xlink:href="sub_646_361_container.svg" x="14088.867188" y="-3840.820312" width="4.394531" height="4.394531"/>
<animation xlink:href="sub_646_366_container.svg" x="14088.867188" y="-3862.792969" width="4.394531" height="4.394531"/>
<animation xlink:href="sub_645_358_container.svg" x="14084.472656" y="-3827.636719" width="4.394531" height="4.394531"/>
<animation xlink:href="sub_646_364_container.svg" x="14088.867188" y="-3854.003906" width="4.394531" height="4.394531"/>
<animation xlink:href="sub_646_365_container.svg" x="14088.867188" y="-3858.398438" width="4.394531" height="4.394531"/>
<animation xlink:href="sub_621_299_container.svg" x="13979.003906" y="-3568.359375" width="4.394531" height="4.394531"/>
<animation xlink:href="sub_645_360_container.svg" x="14084.472656" y="-3836.425781" width="4.394531" height="4.394531"/>
<animation xlink:href="sub_620_298_container.svg" x="13974.609375" y="-3563.964844" width="4.394531" height="4.394531"/>
<animation xlink:href="sub_645_361_container.svg" x="14084.472656" y="-3840.820312" width="4.394531" height="4.394531"/>
<animation xlink:href="sub_620_299_container.svg" x="13974.609375" y="-3568.359375" width="4.394531" height="4.394531"/>
<animation xlink:href="sub_620_296_container.svg" x="13974.609375" y="-3555.175781" width="4.394531" height="4.394531"/>
<animation xlink:href="sub_620_297_container.svg" x="13974.609375" y="-3559.570312" width="4.394531" height="4.394531"/>
<animation xlink:href="sub_648_368_container.svg" x="14097.65625" y="-3871.582031" width="4.394531" height="4.394531"/>
<animation xlink:href="sub_620_300_container.svg" x="13974.609375" y="-3572.753906" width="4.394531" height="4.394531"/>
<animation xlink:href="sub_619_299_container.svg" x="13970.214844" y="-3568.359375" width="4.394531" height="4.394531"/>
<animation xlink:href="sub_644_358_container.svg" x="14080.078125" y="-3827.636719" width="4.394531" height="4.394531"/>
<animation xlink:href="sub_644_359_container.svg" x="14080.078125" y="-3832.03125" width="4.394531" height="4.394531"/>
<animation xlink:href="sub_619_301_container.svg" x="13970.214844" y="-3577.148438" width="4.394531" height="4.394531"/>
<animation xlink:href="sub_619_302_container.svg" x="13970.214844" y="-3581.542969" width="4.394531" height="4.394531"/>
<animation xlink:href="sub_649_369_container.svg" x="14102.050781" y="-3875.976562" width="4.394531" height="4.394531"/>
<animation xlink:href="sub_649_370_container.svg" x="14102.050781" y="-3880.371094" width="4.394531" height="4.394531"/>
<animation xlink:href="sub_650_370_container.svg" x="14106.445312" y="-3880.371094" width="4.394531" height="4.394531"/>
<animation xlink:href="sub_391_243_container.svg" x="12968.261719" y="-3322.265625" width="4.394531" height="4.394531"/>
<animation xlink:href="sub_618_302_container.svg" x="13965.820312" y="-3581.542969" width="4.394531" height="4.394531"/>
<animation xlink:href="sub_652_391_container.svg" x="14115.234375" y="-3972.65625" width="4.394531" height="4.394531"/>
<animation xlink:href="sub_650_371_container.svg" x="14106.445312" y="-3884.765625" width="4.394531" height="4.394531"/>
<animation xlink:href="sub_391_242_container.svg" x="12968.261719" y="-3317.871094" width="4.394531" height="4.394531"/>
<animation xlink:href="sub_618_301_container.svg" x="13965.820312" y="-3577.148438" width="4.394531" height="4.394531"/>
<animation xlink:href="sub_618_300_container.svg" x="13965.820312" y="-3572.753906" width="4.394531" height="4.394531"/>
<animation xlink:href="sub_618_299_container.svg" x="13965.820312" y="-3568.359375" width="4.394531" height="4.394531"/>
<animation xlink:href="sub_650_374_container.svg" x="14106.445312" y="-3897.949219" width="4.394531" height="4.394531"/>
<animation xlink:href="sub_650_375_container.svg" x="14106.445312" y="-3902.34375" width="4.394531" height="4.394531"/>
<animation xlink:href="sub_618_298_container.svg" x="13965.820312" y="-3563.964844" width="4.394531" height="4.394531"/>
<animation xlink:href="sub_650_373_container.svg" x="14106.445312" y="-3893.554688" width="4.394531" height="4.394531"/>
<animation xlink:href="sub_392_242_container.svg" x="12972.65625" y="-3317.871094" width="4.394531" height="4.394531"/>
<animation xlink:href="sub_617_302_container.svg" x="13961.425781" y="-3581.542969" width="4.394531" height="4.394531"/>
<animation xlink:href="sub_651_375_container.svg" x="14110.839844" y="-3902.34375" width="4.394531" height="4.394531"/>
<animation xlink:href="sub_617_299_container.svg" x="13961.425781" y="-3568.359375" width="4.394531" height="4.394531"/>
<animation xlink:href="sub_617_298_container.svg" x="13961.425781" y="-3563.964844" width="4.394531" height="4.394531"/>
</g>
</svg>
