<?xml version="1.0" encoding="UTF-8"?>
<svg  xmlns="http://www.w3.org/2000/svg" xmlns:xlink="http://www.w3.org/1999/xlink" xmlns:go="http://purl.org/svgmap/profile" viewBox="12374.693694 -4552.224923 2206.5089170000006 2126.3241730000004" go:dataArea="12374.693694 -4552.224923 2206.5089170000006 2126.3241730000004" >
<metadata>
 <rdf:RDF xmlns:rdf="http://www.w3.org/1999/02/22-rdf-syntax-ns#" xmlns:crs="http://opengis.org/xmldtds/transformations.dtd" xmlns:svg="http://www.w3.org/svg" >
  <rdf:Description>
   <crs:CoordinateReferenceSystem rdf:resource="http://purl.org/crs/84" svg:transform="matrix(100.0,0.0,0.0,-100.0,0.0,0.0)" />
  </rdf:Description>
 </rdf:RDF>
</metadata>
<globalCoordinateSystem srsName="http://purl.org/crs/84" transform="matrix(100.0,0.0,0.0,-100.0,0.0,0.0)" />
<g >
<image xlink:href="tile10306_10631.png" preserveAspectRatio="none" x="14080.627441" y="-3830.108643" width="0.274658" height="0.274658"/>
<image xlink:href="tile10306_10629.png" preserveAspectRatio="none" x="14080.627441" y="-3830.657959" width="0.274658" height="0.274658"/>
<image xlink:href="tile10306_10628.png" preserveAspectRatio="none" x="14080.627441" y="-3830.932617" width="0.274658" height="0.274658"/>
<image xlink:href="tile10307_10631.png" preserveAspectRatio="none" x="14080.9021" y="-3830.108643" width="0.274658" height="0.274658"/>
<image xlink:href="tile10307_10630.png" preserveAspectRatio="none" x="14080.9021" y="-3830.383301" width="0.274658" height="0.274658"/>
<image xlink:href="tile10307_10629.png" preserveAspectRatio="none" x="14080.9021" y="-3830.657959" width="0.274658" height="0.274658"/>
<image xlink:href="tile10307_10628.png" preserveAspectRatio="none" x="14080.9021" y="-3830.932617" width="0.274658" height="0.274658"/>
<image xlink:href="tile10308_10627.png" preserveAspectRatio="none" x="14081.176758" y="-3831.207275" width="0.274658" height="0.274658"/>
<image xlink:href="tile10308_10626.png" preserveAspectRatio="none" x="14081.176758" y="-3831.481934" width="0.274658" height="0.274658"/>
<image xlink:href="tile10309_10627.png" preserveAspectRatio="none" x="14081.451416" y="-3831.207275" width="0.274658" height="0.274658"/>
<image xlink:href="tile10309_10626.png" preserveAspectRatio="none" x="14081.451416" y="-3831.481934" width="0.274658" height="0.274658"/>
<image xlink:href="tile10310_10625.png" preserveAspectRatio="none" x="14081.726074" y="-3831.756592" width="0.274658" height="0.274658"/>
<image xlink:href="tile10311_10625.png" preserveAspectRatio="none" x="14082.000732" y="-3831.756592" width="0.274658" height="0.274658"/>
<image xlink:href="tile10306_10637.png" preserveAspectRatio="none" x="14080.627441" y="-3828.460693" width="0.274658" height="0.274658"/>
<image xlink:href="tile10306_10636.png" preserveAspectRatio="none" x="14080.627441" y="-3828.735352" width="0.274658" height="0.274658"/>
<image xlink:href="tile10306_10635.png" preserveAspectRatio="none" x="14080.627441" y="-3829.01001" width="0.274658" height="0.274658"/>
<image xlink:href="tile10306_10634.png" preserveAspectRatio="none" x="14080.627441" y="-3829.284668" width="0.274658" height="0.274658"/>
<image xlink:href="tile10306_10633.png" preserveAspectRatio="none" x="14080.627441" y="-3829.559326" width="0.274658" height="0.274658"/>
<image xlink:href="tile10306_10632.png" preserveAspectRatio="none" x="14080.627441" y="-3829.833984" width="0.274658" height="0.274658"/>
<image xlink:href="tile10307_10639.png" preserveAspectRatio="none" x="14080.9021" y="-3827.911377" width="0.274658" height="0.274658"/>
<image xlink:href="tile10307_10638.png" preserveAspectRatio="none" x="14080.9021" y="-3828.186035" width="0.274658" height="0.274658"/>
<image xlink:href="tile10307_10637.png" preserveAspectRatio="none" x="14080.9021" y="-3828.460693" width="0.274658" height="0.274658"/>
<image xlink:href="tile10312_10625.png" preserveAspectRatio="none" x="14082.275391" y="-3831.756592" width="0.274658" height="0.274658"/>
<image xlink:href="tile10312_10624.png" preserveAspectRatio="none" x="14082.275391" y="-3832.03125" width="0.274658" height="0.274658"/>
<image xlink:href="tile10313_10625.png" preserveAspectRatio="none" x="14082.550049" y="-3831.756592" width="0.274658" height="0.274658"/>
<image xlink:href="tile10313_10624.png" preserveAspectRatio="none" x="14082.550049" y="-3832.03125" width="0.274658" height="0.274658"/>
<image xlink:href="tile10314_10624.png" preserveAspectRatio="none" x="14082.824707" y="-3832.03125" width="0.274658" height="0.274658"/>
<image xlink:href="tile10315_10625.png" preserveAspectRatio="none" x="14083.099365" y="-3831.756592" width="0.274658" height="0.274658"/>
<image xlink:href="tile10315_10624.png" preserveAspectRatio="none" x="14083.099365" y="-3832.03125" width="0.274658" height="0.274658"/>
</g>
</svg>
