<?xml version="1.0" encoding="UTF-8"?>
<svg  xmlns="http://www.w3.org/2000/svg" xmlns:xlink="http://www.w3.org/1999/xlink" xmlns:go="http://purl.org/svgmap/profile" viewBox="12374.693694 -4552.224923 2206.5089170000006 2126.3241730000004" go:dataArea="12374.693694 -4552.224923 2206.5089170000006 2126.3241730000004" >
<metadata>
 <rdf:RDF xmlns:rdf="http://www.w3.org/1999/02/22-rdf-syntax-ns#" xmlns:crs="http://opengis.org/xmldtds/transformations.dtd" xmlns:svg="http://www.w3.org/svg" >
  <rdf:Description>
   <crs:CoordinateReferenceSystem rdf:resource="http://purl.org/crs/84" svg:transform="matrix(100.0,0.0,0.0,-100.0,0.0,0.0)" />
  </rdf:Description>
 </rdf:RDF>
</metadata>
<globalCoordinateSystem srsName="http://purl.org/crs/84" transform="matrix(100.0,0.0,0.0,-100.0,0.0,0.0)" />
<g >
<image xlink:href="tile5204_5215.png" preserveAspectRatio="none" x="14108.642578" y="-3885.314941" width="0.549316" height="0.549316"/>
<image xlink:href="tile5204_5214.png" preserveAspectRatio="none" x="14108.642578" y="-3885.864258" width="0.549316" height="0.549316"/>
<image xlink:href="tile5204_5211.png" preserveAspectRatio="none" x="14108.642578" y="-3887.512207" width="0.549316" height="0.549316"/>
<image xlink:href="tile5204_5210.png" preserveAspectRatio="none" x="14108.642578" y="-3888.061523" width="0.549316" height="0.549316"/>
<image xlink:href="tile5204_5209.png" preserveAspectRatio="none" x="14108.642578" y="-3888.61084" width="0.549316" height="0.549316"/>
<image xlink:href="tile5205_5215.png" preserveAspectRatio="none" x="14109.191895" y="-3885.314941" width="0.549316" height="0.549316"/>
<image xlink:href="tile5205_5211.png" preserveAspectRatio="none" x="14109.191895" y="-3887.512207" width="0.549316" height="0.549316"/>
<image xlink:href="tile5205_5210.png" preserveAspectRatio="none" x="14109.191895" y="-3888.061523" width="0.549316" height="0.549316"/>
<image xlink:href="tile5205_5209.png" preserveAspectRatio="none" x="14109.191895" y="-3888.61084" width="0.549316" height="0.549316"/>
<image xlink:href="tile5205_5208.png" preserveAspectRatio="none" x="14109.191895" y="-3889.160156" width="0.549316" height="0.549316"/>
<image xlink:href="tile5204_5207.png" preserveAspectRatio="none" x="14108.642578" y="-3889.709473" width="0.549316" height="0.549316"/>
<image xlink:href="tile5204_5206.png" preserveAspectRatio="none" x="14108.642578" y="-3890.258789" width="0.549316" height="0.549316"/>
<image xlink:href="tile5204_5205.png" preserveAspectRatio="none" x="14108.642578" y="-3890.808105" width="0.549316" height="0.549316"/>
<image xlink:href="tile5204_5204.png" preserveAspectRatio="none" x="14108.642578" y="-3891.357422" width="0.549316" height="0.549316"/>
<image xlink:href="tile5205_5207.png" preserveAspectRatio="none" x="14109.191895" y="-3889.709473" width="0.549316" height="0.549316"/>
<image xlink:href="tile5205_5206.png" preserveAspectRatio="none" x="14109.191895" y="-3890.258789" width="0.549316" height="0.549316"/>
<image xlink:href="tile5205_5204.png" preserveAspectRatio="none" x="14109.191895" y="-3891.357422" width="0.549316" height="0.549316"/>
<image xlink:href="tile5206_5203.png" preserveAspectRatio="none" x="14109.741211" y="-3891.906738" width="0.549316" height="0.549316"/>
<image xlink:href="tile5206_5202.png" preserveAspectRatio="none" x="14109.741211" y="-3892.456055" width="0.549316" height="0.549316"/>
<image xlink:href="tile5206_5201.png" preserveAspectRatio="none" x="14109.741211" y="-3893.005371" width="0.549316" height="0.549316"/>
<image xlink:href="tile5206_5200.png" preserveAspectRatio="none" x="14109.741211" y="-3893.554688" width="0.549316" height="0.549316"/>
<image xlink:href="tile5207_5203.png" preserveAspectRatio="none" x="14110.290527" y="-3891.906738" width="0.549316" height="0.549316"/>
<image xlink:href="tile5207_5202.png" preserveAspectRatio="none" x="14110.290527" y="-3892.456055" width="0.549316" height="0.549316"/>
<image xlink:href="tile5207_5201.png" preserveAspectRatio="none" x="14110.290527" y="-3893.005371" width="0.549316" height="0.549316"/>
<image xlink:href="tile5207_5200.png" preserveAspectRatio="none" x="14110.290527" y="-3893.554688" width="0.549316" height="0.549316"/>
</g>
</svg>
