<?xml version="1.0" encoding="UTF-8"?>
<svg  xmlns="http://www.w3.org/2000/svg" xmlns:xlink="http://www.w3.org/1999/xlink" xmlns:go="http://purl.org/svgmap/profile" property="医療機関分類,施設名称,所在地,診療科目１,診療科目２,診療科目３,開設者分類" viewBox="14097.65625 -3832.03125 35.15625 35.15625" go:dataArea="14097.65625 -3832.03125 35.15625 35.15625" >
<metadata>
 <rdf:RDF xmlns:rdf="http://www.w3.org/1999/02/22-rdf-syntax-ns#" xmlns:crs="http://opengis.org/xmldtds/transformations.dtd" xmlns:svg="http://www.w3.org/svg" >
  <rdf:Description>
   <crs:CoordinateReferenceSystem rdf:resource="http://purl.org/crs/84" svg:transform="matrix(100.0,0.0,0.0,-100.0,0.0,0.0)" />
  </rdf:Description>
 </rdf:RDF>
</metadata>
<globalCoordinateSystem srsName="http://purl.org/crs/84" transform="matrix(100.0,0.0,0.0,-100.0,0.0,0.0)" />
<defs>
 <g id="p0" >
  <image xlink:href="mappin.png" preserveAspectRatio="none" x="-8" y="-25" width="19" height="27"/>
 </g>
 <g id="p1" >
  <image xlink:href="mappin1.png" preserveAspectRatio="none" x="-8" y="-25" width="19" height="27"/>
 </g>
 <g id="p2" >
  <image xlink:href="mappin2.png" preserveAspectRatio="none" x="-8" y="-25" width="19" height="27"/>
 </g>
 <g id="p3" >
  <image xlink:href="mappin3.png" preserveAspectRatio="none" x="-8" y="-25" width="19" height="27"/>
 </g>
 <g id="p4" >
  <image xlink:href="mappin4.png" preserveAspectRatio="none" x="-8" y="-25" width="19" height="27"/>
 </g>
 <g id="p5" >
  <image xlink:href="mappin5.png" preserveAspectRatio="none" x="-8" y="-25" width="19" height="27"/>
 </g>
 <g id="p6" >
  <image xlink:href="mappin6.png" preserveAspectRatio="none" x="-8" y="-25" width="19" height="27"/>
 </g>
 <g id="p7" >
  <image xlink:href="mappin7.png" preserveAspectRatio="none" x="-8" y="-25" width="19" height="27"/>
 </g>
 <g id="p8" >
  <image xlink:href="mappin8.png" preserveAspectRatio="none" x="-8" y="-25" width="19" height="27"/>
 </g>
 <g id="p9" >
  <image xlink:href="mappin9.png" preserveAspectRatio="none" x="-8" y="-25" width="19" height="27"/>
 </g>
</defs>
<g fill="green" fill-rule="evenodd" >
<use xlink:href="#p0" content="3,郷家歯科医院,宮城県塩竈市本町１０-３,歯科,,,9" xlink:title="郷家歯科医院" transform="ref(svg,14101.7462,-3831.6807)" x="0" y="0"/>
<use xlink:href="#p0" content="3,平塚歯科医院,宮城県塩竈市海岸通１０-１７,歯科　小児歯科,,,9" xlink:title="平塚歯科医院" transform="ref(svg,14102.2558,-3831.8617)" x="0" y="0"/>
<use xlink:href="#p0" content="3,目黒歯科医院,宮城県塩竈市宮町１-９,歯科　矯正歯科　小児歯科,,,9" xlink:title="目黒歯科医院" transform="ref(svg,14102.001,-3831.8673)" x="0" y="0"/>
<use xlink:href="#p0" content="3,千葉歯科医院,宮城県塩竈市東玉川町２-３１,歯科　矯正歯科　小児歯科　歯科口腔外科,,,9" xlink:title="千葉歯科医院" transform="ref(svg,14101.0932,-3830.8808)" x="0" y="0"/>
<use xlink:href="#p0" content="3,はるみ歯科,宮城県塩竈市花立町１３-１２,歯科,,,9" xlink:title="はるみ歯科" transform="ref(svg,14102.0881,-3831.0574)" x="0" y="0"/>
<use xlink:href="#p0" content="3,郷家第三歯科医院,宮城県塩竈市南町５-１０,歯科,,,9" xlink:title="郷家第三歯科医院" transform="ref(svg,14101.7785,-3831.2947)" x="0" y="0"/>
<use xlink:href="#p0" content="3,大平デンタルクリニック,宮城県塩竈市宮町３-１９,歯科　矯正歯科　小児歯科,,,9" xlink:title="大平デンタルクリニック" transform="ref(svg,14101.8579,-3831.777)" x="0" y="0"/>
<use xlink:href="#p0" content="3,桑折歯科医院,宮城県塩竈市旭町３-１３,歯科,,,9" xlink:title="桑折歯科医院" transform="ref(svg,14102.0509,-3831.5248)" x="0" y="0"/>
<use xlink:href="#p0" content="3,皆川歯科医院,宮城県塩竈市本町８-２,歯科,,,9" xlink:title="皆川歯科医院" transform="ref(svg,14101.7502,-3831.5812)" x="0" y="0"/>
<use xlink:href="#p0" content="3,玉川歯科医院,宮城県塩竈市玉川２-６-９,歯科,,,9" xlink:title="玉川歯科医院" transform="ref(svg,14100.5958,-3830.9199)" x="0" y="0"/>
<use xlink:href="#p0" content="3,かぜの会あべ歯科医院,宮城県塩竈市東玉川町８-８,歯科,,,9" xlink:title="かぜの会あべ歯科医院" transform="ref(svg,14101.0757,-3830.9759)" x="0" y="0"/>
<use xlink:href="#p0" content="3,渋井歯科医院,宮城県塩竈市宮町４-９,歯科,,,9" xlink:title="渋井歯科医院" transform="ref(svg,14101.765,-3831.723)" x="0" y="0"/>
<use xlink:href="#p0" content="3,ササキ歯科クリニック,宮城県塩竈市錦町７-６,歯科,,,9" xlink:title="ササキ歯科クリニック" transform="ref(svg,14101.9056,-3830.9239)" x="0" y="0"/>
<use xlink:href="#p0" content="3,あおうだ矯正歯科クリニック,宮城県塩竈市本町２-９,矯正歯科,,,9" xlink:title="あおうだ矯正歯科クリニック" transform="ref(svg,14101.972,-3831.6731)" x="0" y="0"/>
<use xlink:href="#p0" content="3,川村歯科医院,宮城県塩竈市港町２-５-１２,歯科　小児歯科,,,9" xlink:title="川村歯科医院" transform="ref(svg,14102.7753,-3831.8011)" x="0" y="0"/>
<use xlink:href="#p0" content="3,みや歯科クリニック,宮城県塩竈市海岸通１０-１,歯科,,,9" xlink:title="みや歯科クリニック" transform="ref(svg,14102.2133,-3831.853)" x="0" y="0"/>
<use xlink:href="#p0" content="3,熊谷歯科口腔外科クリニック,宮城県塩竈市佐浦町１３-２２,歯科　歯科口腔外科,,,9" xlink:title="熊谷歯科口腔外科クリニック" transform="ref(svg,14101.5902,-3831.1351)" x="0" y="0"/>
<use xlink:href="#p0" content="3,こぐえ歯科クリニック,宮城県塩竈市旭町１８-１１,歯科　小児歯科　歯科口腔外科,,,9" xlink:title="こぐえ歯科クリニック" transform="ref(svg,14102.3534,-3831.3406)" x="0" y="0"/>
<use xlink:href="#p0" content="3,大宮歯科クリニック,宮城県塩竈市尾島町６-８,歯科　小児歯科　歯科口腔外科,,,9" xlink:title="大宮歯科クリニック" transform="ref(svg,14102.3433,-3831.4515)" x="0" y="0"/>
<use xlink:href="#p0" content="3,鈴木忠明歯科医院,宮城県多賀城市中央２-１３-１１,歯科,,,9" xlink:title="鈴木忠明歯科医院" transform="ref(svg,14100.6569,-3829.3829)" x="0" y="0"/>
<use xlink:href="#p0" content="3,鈴木歯科クリニック,宮城県多賀城市下馬１-５-２０,歯科　矯正歯科,,,9" xlink:title="鈴木歯科クリニック" transform="ref(svg,14101.4265,-3830.4619)" x="0" y="0"/>
<use xlink:href="#p0" content="3,岩井歯科医院,宮城県多賀城市東田中２-３０-１,歯科　矯正歯科　小児歯科,,,9" xlink:title="岩井歯科医院" transform="ref(svg,14099.6927,-3829.1463)" x="0" y="0"/>
<use xlink:href="#p0" content="3,ホワイト歯科クリニック,宮城県多賀城市伝上山４-８-２０,歯科　矯正歯科　小児歯科,,,9" xlink:title="ホワイト歯科クリニック" transform="ref(svg,14101.2349,-3830.4257)" x="0" y="0"/>
<use xlink:href="#p0" content="3,誠寿歯科医院,宮城県多賀城市高橋２-１９-２０,歯科　矯正歯科　小児歯科,,,9" xlink:title="誠寿歯科医院" transform="ref(svg,14097.7484,-3828.4454)" x="0" y="0"/>
<use xlink:href="#p0" content="3,藤原歯科,宮城県多賀城市伝上山２-３１-４５,歯科　矯正歯科　小児歯科,,,9" xlink:title="藤原歯科" transform="ref(svg,14101.15,-3830.1268)" x="0" y="0"/>
<use xlink:href="#p0" content="3,大澤歯科医院,宮城県多賀城市笠神４-３-４５,歯科,,,9" xlink:title="大澤歯科医院" transform="ref(svg,14102.9936,-3830.2076)" x="0" y="0"/>
<use xlink:href="#p0" content="3,倉谷歯科医院,宮城県多賀城市桜木３-７-４２,歯科,,,9" xlink:title="倉谷歯科医院" transform="ref(svg,14101.9735,-3828.7757)" x="0" y="0"/>
<use xlink:href="#p0" content="3,梅津歯科クリニック,宮城県多賀城市鶴ヶ谷２-２９-１７,歯科　小児歯科,,,9" xlink:title="梅津歯科クリニック" transform="ref(svg,14101.8275,-3829.8024)" x="0" y="0"/>
<use xlink:href="#p0" content="3,浮島歯科クリニック,宮城県多賀城市浮島１-１２-１０,歯科　矯正歯科　小児歯科,,,9" xlink:title="浮島歯科クリニック" transform="ref(svg,14099.6725,-3830.285)" x="0" y="0"/>
<use xlink:href="#p0" content="3,多賀城中央歯科医院,宮城県多賀城市八幡３-６-１２都ビル２Ｆ,歯科　小児歯科,,,9" xlink:title="多賀城中央歯科医院" transform="ref(svg,14100.8439,-3829.0402)" x="0" y="0"/>
<use xlink:href="#p0" content="3,せいの歯科医院,宮城県多賀城市東田中２-４０-３２-１０２,歯科　小児歯科,,,9" xlink:title="せいの歯科医院" transform="ref(svg,14100.1839,-3829.0762)" x="0" y="0"/>
<use xlink:href="#p0" content="3,おおしろ歯科クリニック,宮城県多賀城市大代１-１-３８,歯科　小児歯科,,,9" xlink:title="おおしろ歯科クリニック" transform="ref(svg,14103.0107,-3829.1721)" x="0" y="0"/>
<use xlink:href="#p0" content="3,サンフィッシュ・ミウラ歯科,宮城県多賀城市下馬３-２１-１８,歯科　小児歯科,,,9" xlink:title="サンフィッシュ・ミウラ歯科" transform="ref(svg,14102.0202,-3830.6368)" x="0" y="0"/>
<use xlink:href="#p0" content="3,杉山歯科医院,宮城県多賀城市大代５-２-１,歯科　矯正歯科　小児歯科,,,9" xlink:title="杉山歯科医院" transform="ref(svg,14103.8015,-3829.2744)" x="0" y="0"/>
<use xlink:href="#p0" content="3,こう歯科クリニック,宮城県多賀城市下馬２-８-５,歯科　矯正歯科　小児歯科,,,9" xlink:title="こう歯科クリニック" transform="ref(svg,14101.5967,-3830.5699)" x="0" y="0"/>
<use xlink:href="#p0" content="3,じん歯科医院,宮城県多賀城市明月１-４-１２,歯科,,,9" xlink:title="じん歯科医院" transform="ref(svg,14101.2481,-3828.5812)" x="0" y="0"/>
<use xlink:href="#p0" content="3,萩原歯科医院,宮城県多賀城市町前３-１-１７,歯科　矯正歯科　小児歯科　歯科口腔外科,,,9" xlink:title="萩原歯科医院" transform="ref(svg,14100.7959,-3828.7611)" x="0" y="0"/>
<use xlink:href="#p0" content="3,ありま歯科医院,宮城県多賀城市高橋４-２-１,歯科　矯正歯科　小児歯科,,,9" xlink:title="ありま歯科医院" transform="ref(svg,14097.8946,-3829.0276)" x="0" y="0"/>
<use xlink:href="#p0" content="3,歯科・アイザワデンタル,宮城県多賀城市下馬５-５-３０,歯科　小児歯科,,,9" xlink:title="歯科・アイザワデンタル" transform="ref(svg,14101.7081,-3830.1032)" x="0" y="0"/>
<use xlink:href="#p0" content="3,城南歯科クリニック,宮城県多賀城市城南１-１９-２２,歯科　矯正歯科　小児歯科　歯科口腔外科,,,9" xlink:title="城南歯科クリニック" transform="ref(svg,14099.2463,-3829.8608)" x="0" y="0"/>
<use xlink:href="#p0" content="3,森の風歯科クリニック,宮城県多賀城市高崎３-１１-２２,歯科　小児歯科,,,9" xlink:title="森の風歯科クリニック" transform="ref(svg,14100.0153,-3829.9158)" x="0" y="0"/>
<use xlink:href="#p0" content="3,ささき歯科クリニック,宮城県多賀城市中央１-１６-１７,歯科,,,9" xlink:title="ささき歯科クリニック" transform="ref(svg,14100.4677,-3829.8275)" x="0" y="0"/>
<use xlink:href="#p0" content="3,なかよしデンタルクリニック,宮城県多賀城市八幡１-２-１８,歯科　小児歯科,,,9" xlink:title="なかよしデンタルクリニック" transform="ref(svg,14099.3424,-3828.4668)" x="0" y="0"/>
<use xlink:href="#p0" content="3,汐見台歯科医院,宮城県宮城郡七ヶ浜町菖蒲田浜字林合５５-１,歯科　矯正歯科　小児歯科,,,9" xlink:title="汐見台歯科医院" transform="ref(svg,14105.7617,-3828.5406)" x="0" y="0"/>
<use xlink:href="#p0" content="3,かわぐち歯科医院,宮城県宮城郡七ヶ浜町汐見台６-２-１１,歯科　矯正歯科　小児歯科,,,9" xlink:title="かわぐち歯科医院" transform="ref(svg,14105.645,-3829.7484)" x="0" y="0"/>
<use xlink:href="#p0" content="3,うじいえ歯科医院,宮城県宮城郡七ヶ浜町湊浜字入生田９０-４,歯科　矯正歯科　小児歯科　歯科口腔外科,,,9" xlink:title="うじいえ歯科医院" transform="ref(svg,14104.4544,-3829.0359)" x="0" y="0"/>
<use xlink:href="#p0" content="3,山本歯科医院,宮城県宮城郡七ヶ浜町境山２-１３-３,歯科,,,9" xlink:title="山本歯科医院" transform="ref(svg,14104.068,-3830.0605)" x="0" y="0"/>
<use xlink:href="#p0" content="3,わかば歯科クリニック,宮城県宮城郡利府町加瀬字石切場１-１,歯科　矯正歯科　小児歯科,,,9" xlink:title="わかば歯科クリニック" transform="ref(svg,14099.813,-3831.7765)" x="0" y="0"/>
<use xlink:href="#p0" content="3,岡田歯科医院,宮城県仙台市宮城野区岡田字南在家９１-３,歯科　矯正歯科,,,9" xlink:title="岡田歯科医院" transform="ref(svg,14097.6933,-3825.612)" x="0" y="0"/>
<use xlink:href="#p0" content="3,しらとり歯科医院,宮城県仙台市宮城野区白鳥１-２-２５,歯科　矯正歯科　小児歯科,,,9" xlink:title="しらとり歯科医院" transform="ref(svg,14098.0868,-3826.3089)" x="0" y="0"/>
<use xlink:href="#p0" content="3,藤田歯科医院,宮城県仙台市宮城野区出花２-３-３,歯科,,,9" xlink:title="藤田歯科医院" transform="ref(svg,14098.5918,-3827.9616)" x="0" y="0"/>
<use xlink:href="#p0" content="3,村上歯科医院,宮城県仙台市宮城野区栄２-２３-８,歯科,,,9" xlink:title="村上歯科医院" transform="ref(svg,14098.0663,-3828.1914)" x="0" y="0"/>
<use xlink:href="#p0" content="3,ツルタ歯科クリニック,宮城県仙台市宮城野区栄４-９-１１,歯科,,,9" xlink:title="ツルタ歯科クリニック" transform="ref(svg,14098.3725,-3828.0979)" x="0" y="0"/>
</g>
</svg>
