<?xml version="1.0" encoding="UTF-8"?>
<svg  xmlns="http://www.w3.org/2000/svg" xmlns:xlink="http://www.w3.org/1999/xlink" xmlns:go="http://purl.org/svgmap/profile" property="医療機関分類,施設名称,所在地,診療科目１,診療科目２,診療科目３,開設者分類" viewBox="13992.1875 -3656.25 35.15625 35.15625" go:dataArea="13992.1875 -3656.25 35.15625 35.15625" >
<metadata>
 <rdf:RDF xmlns:rdf="http://www.w3.org/1999/02/22-rdf-syntax-ns#" xmlns:crs="http://opengis.org/xmldtds/transformations.dtd" xmlns:svg="http://www.w3.org/svg" >
  <rdf:Description>
   <crs:CoordinateReferenceSystem rdf:resource="http://purl.org/crs/84" svg:transform="matrix(100.0,0.0,0.0,-100.0,0.0,0.0)" />
  </rdf:Description>
 </rdf:RDF>
</metadata>
<globalCoordinateSystem srsName="http://purl.org/crs/84" transform="matrix(100.0,0.0,0.0,-100.0,0.0,0.0)" />
<defs>
 <g id="p0" >
  <image xlink:href="mappin.png" preserveAspectRatio="none" x="-8" y="-25" width="19" height="27"/>
 </g>
 <g id="p1" >
  <image xlink:href="mappin1.png" preserveAspectRatio="none" x="-8" y="-25" width="19" height="27"/>
 </g>
 <g id="p2" >
  <image xlink:href="mappin2.png" preserveAspectRatio="none" x="-8" y="-25" width="19" height="27"/>
 </g>
 <g id="p3" >
  <image xlink:href="mappin3.png" preserveAspectRatio="none" x="-8" y="-25" width="19" height="27"/>
 </g>
 <g id="p4" >
  <image xlink:href="mappin4.png" preserveAspectRatio="none" x="-8" y="-25" width="19" height="27"/>
 </g>
 <g id="p5" >
  <image xlink:href="mappin5.png" preserveAspectRatio="none" x="-8" y="-25" width="19" height="27"/>
 </g>
 <g id="p6" >
  <image xlink:href="mappin6.png" preserveAspectRatio="none" x="-8" y="-25" width="19" height="27"/>
 </g>
 <g id="p7" >
  <image xlink:href="mappin7.png" preserveAspectRatio="none" x="-8" y="-25" width="19" height="27"/>
 </g>
 <g id="p8" >
  <image xlink:href="mappin8.png" preserveAspectRatio="none" x="-8" y="-25" width="19" height="27"/>
 </g>
 <g id="p9" >
  <image xlink:href="mappin9.png" preserveAspectRatio="none" x="-8" y="-25" width="19" height="27"/>
 </g>
</defs>
<g fill="green" fill-rule="evenodd" >
<use xlink:href="#p0" content="3,渡邉歯科医院,茨城県筑西市榎生１-８-４,歯科,,,9" xlink:title="渡邉歯科医院" transform="ref(svg,13998.2927,-3629.6614)" x="0" y="0"/>
<use xlink:href="#p0" content="3,安藤歯科医院,茨城県笠間市笠間１３９８,歯科　矯正歯科　小児歯科　歯科口腔外科,,,9" xlink:title="安藤歯科医院" transform="ref(svg,14025.2994,-3638.4397)" x="0" y="0"/>
<use xlink:href="#p0" content="3,太田歯科医院,茨城県笠間市笠間字程島１７０９-１,歯科　小児歯科,,,9" xlink:title="太田歯科医院" transform="ref(svg,14024.7018,-3637.8787)" x="0" y="0"/>
<use xlink:href="#p0" content="3,かさま歯科,茨城県笠間市笠間１５４２-５,歯科　矯正歯科　小児歯科,,,9" xlink:title="かさま歯科" transform="ref(svg,14025.1933,-3638.3403)" x="0" y="0"/>
<use xlink:href="#p0" content="3,神里歯科医院,茨城県笠間市笠間１２５６,歯科　小児歯科,,,9" xlink:title="神里歯科医院" transform="ref(svg,14025.4587,-3638.5747)" x="0" y="0"/>
<use xlink:href="#p0" content="3,河村歯科医院,茨城県笠間市笠間２２８-２,歯科　小児歯科,,,9" xlink:title="河村歯科医院" transform="ref(svg,14025.6341,-3639.0295)" x="0" y="0"/>
<use xlink:href="#p0" content="3,田崎歯科医院,茨城県笠間市笠間３４,歯科,,,9" xlink:title="田崎歯科医院" transform="ref(svg,14025.3364,-3638.619)" x="0" y="0"/>
<use xlink:href="#p0" content="3,つなかわ歯科医院,茨城県笠間市笠間１９５８,歯科,,,9" xlink:title="つなかわ歯科医院" transform="ref(svg,14025.3027,-3637.607)" x="0" y="0"/>
<use xlink:href="#p0" content="3,出久根歯科医院,茨城県笠間市下郷４０７４-１,歯科,,,9" xlink:title="出久根歯科医院" transform="ref(svg,14027.0152,-3629.3835)" x="0" y="0"/>
<use xlink:href="#p0" content="3,中村歯科医院,茨城県笠間市笠間１７１７-２,歯科,,,9" xlink:title="中村歯科医院" transform="ref(svg,14024.8726,-3637.8151)" x="0" y="0"/>
<use xlink:href="#p0" content="3,中山歯科医院,茨城県笠間市大字下郷４０８７-１,歯科　矯正歯科　小児歯科　歯科口腔外科,,,9" xlink:title="中山歯科医院" transform="ref(svg,14027.2033,-3629.5222)" x="0" y="0"/>
<use xlink:href="#p0" content="3,塙歯科医院,茨城県笠間市笠間１９４９-２,歯科,,,9" xlink:title="塙歯科医院" transform="ref(svg,14025.0852,-3637.67)" x="0" y="0"/>
<use xlink:href="#p0" content="3,松井歯科医院,茨城県笠間市笠間１４５８-２,歯科　矯正歯科　小児歯科,,,9" xlink:title="松井歯科医院" transform="ref(svg,14025.2152,-3637.9744)" x="0" y="0"/>
<use xlink:href="#p0" content="3,湊歯科医院,茨城県笠間市石井１０２５-１,歯科,,,9" xlink:title="湊歯科医院" transform="ref(svg,14024.4551,-3638.7086)" x="0" y="0"/>
<use xlink:href="#p0" content="3,あだち歯科医院,茨城県石岡市芦穂中部小屋６６-１,歯科　小児歯科,,,9" xlink:title="あだち歯科医院" transform="ref(svg,14017.0998,-3625.7177)" x="0" y="0"/>
<use xlink:href="#p0" content="3,石田歯科医院,茨城県石岡市柿岡３４３１,歯科　小児歯科,,,9" xlink:title="石田歯科医院" transform="ref(svg,14018.2102,-3624.8116)" x="0" y="0"/>
<use xlink:href="#p0" content="3,枝歯科医院,茨城県石岡市柿岡１８６０-４,歯科,,,9" xlink:title="枝歯科医院" transform="ref(svg,14018.9393,-3624.0169)" x="0" y="0"/>
<use xlink:href="#p0" content="3,坂井歯科医院,茨城県石岡市柿岡３２５３-１,歯科　小児歯科　歯科口腔外科,,,9" xlink:title="坂井歯科医院" transform="ref(svg,14019.023,-3624.474)" x="0" y="0"/>
<use xlink:href="#p0" content="3,田中歯科医院,茨城県石岡市小屋２１３４-６０,歯科,,,9" xlink:title="田中歯科医院" transform="ref(svg,14017.565,-3624.8748)" x="0" y="0"/>
<use xlink:href="#p0" content="3,つくば歯科医院,茨城県石岡市村上１０３-１,歯科,,,9" xlink:title="つくば歯科医院" transform="ref(svg,14024.2236,-3621.9905)" x="0" y="0"/>
<use xlink:href="#p0" content="3,友部歯科医院,茨城県石岡市大塚９０９,歯科,,,9" xlink:title="友部歯科医院" transform="ref(svg,14017.7784,-3629.0062)" x="0" y="0"/>
<use xlink:href="#p0" content="3,青山歯科医院３０８６２０８８３,茨城県筑西市丙１２７,歯科　矯正歯科　小児歯科,,,9" xlink:title="青山歯科医院３０８６２０８８３" transform="ref(svg,13998.011,-3630.7509)" x="0" y="0"/>
<use xlink:href="#p0" content="3,浅香歯科医院３０８６２１０１１,茨城県筑西市甲８２８-１,歯科　矯正歯科　小児歯科,,,9" xlink:title="浅香歯科医院３０８６２１０１１" transform="ref(svg,13998.0312,-3631.1718)" x="0" y="0"/>
<use xlink:href="#p0" content="3,阿部歯科医院３０８６２１２２６,茨城県筑西市下岡崎３-４-１３,歯科　矯正歯科　小児歯科,,,9" xlink:title="阿部歯科医院３０８６２１２２６" transform="ref(svg,13998.3084,-3629.9226)" x="0" y="0"/>
<use xlink:href="#p0" content="3,いけうちデンタルクリニック,茨城県筑西市直井１０３９-１,歯科　矯正歯科　小児歯科,,,9" xlink:title="いけうちデンタルクリニック" transform="ref(svg,13999.4669,-3631.2285)" x="0" y="0"/>
<use xlink:href="#p0" content="3,石塚歯科医院,茨城県筑西市伊讃美７８０-２,歯科　小児歯科,,,9" xlink:title="石塚歯科医院" transform="ref(svg,13993.8288,-3630.2445)" x="0" y="0"/>
<use xlink:href="#p0" content="3,一木歯科医院,茨城県筑西市甲１２,歯科,,,9" xlink:title="一木歯科医院" transform="ref(svg,13997.8064,-3631.0756)" x="0" y="0"/>
<use xlink:href="#p0" content="3,いまい歯科,茨城県筑西市丙２０５-２レジデンスミマス２Ｂ,歯科　小児歯科,,,9" xlink:title="いまい歯科" transform="ref(svg,13997.9514,-3630.6544)" x="0" y="0"/>
<use xlink:href="#p0" content="3,上村歯科医院,茨城県筑西市幸町２-３１-１８,歯科　小児歯科,,,9" xlink:title="上村歯科医院" transform="ref(svg,13994.4803,-3628.3977)" x="0" y="0"/>
<use xlink:href="#p0" content="3,海老沢歯科医院,茨城県筑西市西方１７７５-９,歯科　小児歯科,,,9" xlink:title="海老沢歯科医院" transform="ref(svg,13995.852,-3628.0552)" x="0" y="0"/>
<use xlink:href="#p0" content="3,おにざわ歯科医院,茨城県筑西市玉戸１５２７-１４,歯科　小児歯科,,,9" xlink:title="おにざわ歯科医院" transform="ref(svg,13996.0093,-3627.7024)" x="0" y="0"/>
<use xlink:href="#p0" content="3,小野歯科医院,茨城県筑西市岡芹２１５９-３,歯科,,,9" xlink:title="小野歯科医院" transform="ref(svg,13997.0872,-3631.5972)" x="0" y="0"/>
<use xlink:href="#p0" content="3,加藤歯科医院,茨城県筑西市西山田２５５-１,歯科　矯正歯科　小児歯科　歯科口腔外科,,,9" xlink:title="加藤歯科医院" transform="ref(svg,13993.3559,-3633.7047)" x="0" y="0"/>
<use xlink:href="#p0" content="3,菊池歯科医院,茨城県筑西市布川３０８,歯科,,,9" xlink:title="菊池歯科医院" transform="ref(svg,13993.4039,-3627.7277)" x="0" y="0"/>
<use xlink:href="#p0" content="3,きらら歯科医院,茨城県筑西市玉戸１０６５-１,歯科　矯正歯科　小児歯科　歯科口腔外科,,,9" xlink:title="きらら歯科医院" transform="ref(svg,13994.2825,-3628.9928)" x="0" y="0"/>
<use xlink:href="#p0" content="3,黒川歯科医院,茨城県筑西市下中山７３３-１,歯科,,,9" xlink:title="黒川歯科医院" transform="ref(svg,13998.2846,-3630.7791)" x="0" y="0"/>
<use xlink:href="#p0" content="3,ことう歯科クリニック,茨城県筑西市下川島　８２６-３７,歯科　矯正歯科　小児歯科,,,9" xlink:title="ことう歯科クリニック" transform="ref(svg,13992.875,-3629.6901)" x="0" y="0"/>
<use xlink:href="#p0" content="3,さいとう歯科医院,茨城県筑西市甲２８１-４,歯科　矯正歯科　小児歯科　歯科口腔外科,,,9" xlink:title="さいとう歯科医院" transform="ref(svg,13997.6772,-3631.2081)" x="0" y="0"/>
<use xlink:href="#p0" content="3,酒井歯科医院,茨城県筑西市伊讃美７７５-３,歯科,,,9" xlink:title="酒井歯科医院" transform="ref(svg,13993.7489,-3630.2451)" x="0" y="0"/>
<use xlink:href="#p0" content="3,下館歯科医院,茨城県筑西市二木成１３５８みすじビル１階,歯科　矯正歯科　小児歯科　歯科口腔外科,,,9" xlink:title="下館歯科医院" transform="ref(svg,13997.8008,-3630.0219)" x="0" y="0"/>
<use xlink:href="#p0" content="3,神明歯科医院,茨城県筑西市菅谷１５８１,歯科,,,9" xlink:title="神明歯科医院" transform="ref(svg,13996.9165,-3630.7928)" x="0" y="0"/>
<use xlink:href="#p0" content="3,関口歯科医院,茨城県筑西市岡芹１０７６-２１,歯科,,,9" xlink:title="関口歯科医院" transform="ref(svg,13997.6477,-3632.0961)" x="0" y="0"/>
<use xlink:href="#p0" content="3,--野歯科医院,茨城県筑西市丙１５６-６,歯科,,,9" xlink:title="--野歯科医院" transform="ref(svg,13998.0312,-3630.5833)" x="0" y="0"/>
<use xlink:href="#p0" content="3,（医）康新会武内歯科,茨城県筑西市下岡崎２-７-１,歯科　矯正歯科　小児歯科,,,9" xlink:title="（医）康新会武内歯科" transform="ref(svg,13998.1421,-3630.3963)" x="0" y="0"/>
<use xlink:href="#p0" content="3,津田歯科医院,茨城県筑西市乙５３０-２,歯科　矯正歯科　小児歯科,,,9" xlink:title="津田歯科医院" transform="ref(svg,13997.4528,-3631.2103)" x="0" y="0"/>
<use xlink:href="#p0" content="3,堤歯科医院,茨城県筑西市甲１３-９,歯科,,,9" xlink:title="堤歯科医院" transform="ref(svg,13997.851,-3631.0318)" x="0" y="0"/>
<use xlink:href="#p0" content="3,永盛歯科医院,茨城県筑西市中舘１６,歯科　小児歯科,,,9" xlink:title="永盛歯科医院" transform="ref(svg,13997.5169,-3632.8695)" x="0" y="0"/>
<use xlink:href="#p0" content="3,中山歯科診療所,茨城県筑西市下中山４０７-６,歯科　矯正歯科　小児歯科,,,9" xlink:title="中山歯科診療所" transform="ref(svg,13998.7643,-3630.4768)" x="0" y="0"/>
<use xlink:href="#p0" content="3,にいや歯科医院,茨城県筑西市榎生１-１０-３,歯科　小児歯科,,,9" xlink:title="にいや歯科医院" transform="ref(svg,13998.4443,-3629.759)" x="0" y="0"/>
<use xlink:href="#p0" content="3,野口歯科医院,茨城県筑西市市野辺　２６６-３,歯科　矯正歯科　小児歯科,,,9" xlink:title="野口歯科医院" transform="ref(svg,13998.5678,-3631.6537)" x="0" y="0"/>
<use xlink:href="#p0" content="3,福田歯科医院,茨城県筑西市甲９３-２,歯科,,,9" xlink:title="福田歯科医院" transform="ref(svg,13997.6985,-3630.8223)" x="0" y="0"/>
<use xlink:href="#p0" content="3,堀江歯科医院,茨城県筑西市玉戸９８７-１４,歯科,,,9" xlink:title="堀江歯科医院" transform="ref(svg,13995.1117,-3629.7288)" x="0" y="0"/>
<use xlink:href="#p0" content="3,村井歯科,茨城県筑西市二木成９８１,歯科,,,9" xlink:title="村井歯科" transform="ref(svg,13997.747,-3629.6481)" x="0" y="0"/>
<use xlink:href="#p0" content="3,山口歯科クリニック,茨城県筑西市嘉家佐和字宮西１９２４-１,歯科　矯正歯科　小児歯科　歯科口腔外科,,,9" xlink:title="山口歯科クリニック" transform="ref(svg,13997.2892,-3626.5336)" x="0" y="0"/>
<use xlink:href="#p0" content="3,山田歯科医院,茨城県筑西市玉戸１３３９-１,歯科　小児歯科,,,9" xlink:title="山田歯科医院" transform="ref(svg,13995.2908,-3628.3931)" x="0" y="0"/>
<use xlink:href="#p0" content="3,吉川歯科医院,茨城県筑西市中舘８８-１,歯科,,,9" xlink:title="吉川歯科医院" transform="ref(svg,13997.5043,-3632.6308)" x="0" y="0"/>
<use xlink:href="#p0" content="3,渡辺歯科医院,茨城県筑西市外塚８２１,歯科,,,9" xlink:title="渡辺歯科医院" transform="ref(svg,13996.408,-3630.5795)" x="0" y="0"/>
<use xlink:href="#p0" content="3,いいだ歯科医院,茨城県筑西市藤ケ谷１６５８-２３,歯科　小児歯科　歯科口腔外科,,,9" xlink:title="いいだ歯科医院" transform="ref(svg,13995.591,-3624.7677)" x="0" y="0"/>
<use xlink:href="#p0" content="3,荻野歯科医院,茨城県筑西市関本下２０８１,歯科　小児歯科,,,9" xlink:title="荻野歯科医院" transform="ref(svg,13992.634,-3624.7308)" x="0" y="0"/>
<use xlink:href="#p0" content="3,小林歯科医院,茨城県筑西市木戸２４１,歯科,,,9" xlink:title="小林歯科医院" transform="ref(svg,13997.7029,-3624.2629)" x="0" y="0"/>
<use xlink:href="#p0" content="3,（医）梨栄会梨の木デンタルクリニック,茨城県筑西市関本下１９４３-１,歯科　矯正歯科　小児歯科　歯科口腔外科,,,9" xlink:title="（医）梨栄会梨の木デンタルクリニック" transform="ref(svg,13992.6686,-3625.1797)" x="0" y="0"/>
<use xlink:href="#p0" content="3,ひぐり歯科クリニック,茨城県筑西市板橋５２０-６７,歯科　小児歯科,,,9" xlink:title="ひぐり歯科クリニック" transform="ref(svg,13993.5167,-3624.9686)" x="0" y="0"/>
<use xlink:href="#p0" content="3,明野歯科診療所,茨城県筑西市松原３４４９-１,歯科,,,9" xlink:title="明野歯科診療所" transform="ref(svg,14001.4585,-3627.3335)" x="0" y="0"/>
<use xlink:href="#p0" content="3,飯島歯科医院,茨城県筑西市倉持１１１３-３,歯科,,,9" xlink:title="飯島歯科医院" transform="ref(svg,14003.0737,-3624.2661)" x="0" y="0"/>
<use xlink:href="#p0" content="3,酒寄歯科医院,茨城県筑西市中根５１９,歯科　矯正歯科　小児歯科　歯科口腔外科,,,9" xlink:title="酒寄歯科医院" transform="ref(svg,14004.7511,-3624.0566)" x="0" y="0"/>
<use xlink:href="#p0" content="3,清水歯科医院,茨城県筑西市海老ヶ島９５１,歯科,,,9" xlink:title="清水歯科医院" transform="ref(svg,14003.9681,-3624.9139)" x="0" y="0"/>
<use xlink:href="#p0" content="3,（医）恵潤会つるみ歯科医院,茨城県筑西市海老ヶ島７２６-３,歯科　矯正歯科　小児歯科　歯科口腔外科,,,9" xlink:title="（医）恵潤会つるみ歯科医院" transform="ref(svg,14004.1864,-3625.1381)" x="0" y="0"/>
<use xlink:href="#p0" content="3,ひろせ歯科医院,茨城県筑西市海老ヶ島１７２５-５,歯科　矯正歯科　小児歯科,,,9" xlink:title="ひろせ歯科医院" transform="ref(svg,14003.494,-3625.1929)" x="0" y="0"/>
<use xlink:href="#p0" content="3,（医）青峰会わかば歯科,茨城県筑西市海老ヶ島７５４-４,歯科　歯科口腔外科,,,9" xlink:title="（医）青峰会わかば歯科" transform="ref(svg,14004.156,-3624.8947)" x="0" y="0"/>
<use xlink:href="#p0" content="3,協和歯科医院,茨城県筑西市蓮沼１６６-８,歯科,,,9" xlink:title="協和歯科医院" transform="ref(svg,14002.8207,-3632.6534)" x="0" y="0"/>
<use xlink:href="#p0" content="3,柴崎歯科医院,茨城県筑西市新治１９９６-２２,歯科　小児歯科,,,9" xlink:title="柴崎歯科医院" transform="ref(svg,14004.1143,-3633.0563)" x="0" y="0"/>
<use xlink:href="#p0" content="3,田中歯科医院,茨城県筑西市柳３３４-７９,歯科,,,9" xlink:title="田中歯科医院" transform="ref(svg,14003.8957,-3632.5296)" x="0" y="0"/>
<use xlink:href="#p0" content="3,新治歯科医院,茨城県筑西市門井１９７６-１９,歯科,,,9" xlink:title="新治歯科医院" transform="ref(svg,14003.4108,-3633.4653)" x="0" y="0"/>
<use xlink:href="#p0" content="3,橋本歯科クリニック,茨城県筑西市横塚堂東８７-３,歯科　小児歯科　歯科口腔外科,,,9" xlink:title="橋本歯科クリニック" transform="ref(svg,14000.6326,-3632.0063)" x="0" y="0"/>
<use xlink:href="#p0" content="3,青木歯科診療所,茨城県桜川市真壁町古城７４-３,歯科,,,9" xlink:title="青木歯科診療所" transform="ref(svg,14010.3364,-3627.5783)" x="0" y="0"/>
<use xlink:href="#p0" content="3,吾妻歯科医院,茨城県桜川市真壁町飯塚９０９-２,歯科,,,9" xlink:title="吾妻歯科医院" transform="ref(svg,14009.2805,-3627.8757)" x="0" y="0"/>
<use xlink:href="#p0" content="3,枝歯科医院,茨城県桜川市真壁町田３０６-４,歯科,,,9" xlink:title="枝歯科医院" transform="ref(svg,14009.466,-3627.0391)" x="0" y="0"/>
<use xlink:href="#p0" content="3,えのきど歯科,茨城県桜川市真壁町飯塚５２４-６,歯科,,,9" xlink:title="えのきど歯科" transform="ref(svg,14009.3624,-3627.5246)" x="0" y="0"/>
<use xlink:href="#p0" content="3,鬼沢歯科医院,茨城県桜川市真壁町真壁３４８,歯科,,,9" xlink:title="鬼沢歯科医院" transform="ref(svg,14010.1255,-3627.7839)" x="0" y="0"/>
<use xlink:href="#p0" content="3,きなみ歯科医院,茨城県桜川市真壁町椎尾１６１９,歯科,,,9" xlink:title="きなみ歯科医院" transform="ref(svg,14007.2222,-3625.0089)" x="0" y="0"/>
<use xlink:href="#p0" content="3,桜井歯科医院,茨城県桜川市真壁町真壁３８１-１,歯科　小児歯科,,,9" xlink:title="桜井歯科医院" transform="ref(svg,14010.053,-3627.8745)" x="0" y="0"/>
<use xlink:href="#p0" content="3,土井歯科クリニック,茨城県桜川市真壁町亀熊１８９７-１,歯科　小児歯科　歯科口腔外科,,,9" xlink:title="土井歯科クリニック" transform="ref(svg,14008.7102,-3628.149)" x="0" y="0"/>
<use xlink:href="#p0" content="3,中川歯科医院,茨城県桜川市真壁町真壁１７９,歯科,,,9" xlink:title="中川歯科医院" transform="ref(svg,14009.7999,-3627.7411)" x="0" y="0"/>
<use xlink:href="#p0" content="3,ふるはし歯科医院,茨城県桜川市真壁町上小幡１９-１,歯科,,,9" xlink:title="ふるはし歯科医院" transform="ref(svg,14011.1766,-3630.7413)" x="0" y="0"/>
<use xlink:href="#p0" content="3,白土歯科,茨城県桜川市青木１４３３-１,歯科　矯正歯科　小児歯科　歯科口腔外科,,,9" xlink:title="白土歯科" transform="ref(svg,14008.6722,-3634.8134)" x="0" y="0"/>
<use xlink:href="#p0" content="3,ナカタ歯科医院,茨城県桜川市本木１９６９-１,歯科　小児歯科,,,9" xlink:title="ナカタ歯科医院" transform="ref(svg,14009.8543,-3632.2741)" x="0" y="0"/>
<use xlink:href="#p0" content="3,わたなべ歯科医院,茨城県桜川市大国玉畑ヶ中５２１-１,歯科　矯正歯科　小児歯科,,,9" xlink:title="わたなべ歯科医院" transform="ref(svg,14007.4671,-3633.1843)" x="0" y="0"/>
<use xlink:href="#p0" content="3,とびた歯科クリニック,茨城県桜川市富士見台２-１０８,歯科　矯正歯科　小児歯科　歯科口腔外科,,,9" xlink:title="とびた歯科クリニック" transform="ref(svg,14011.5033,-3636.3118)" x="0" y="0"/>
<use xlink:href="#p0" content="3,やなぎだ歯科医院,茨城県桜川市西飯岡５３９-４,歯科　小児歯科,,,9" xlink:title="やなぎだ歯科医院" transform="ref(svg,14007.7738,-3636.6104)" x="0" y="0"/>
<use xlink:href="#p0" content="3,ひびの歯科,茨城県桜川市南飯田９２９-３,歯科　矯正歯科　小児歯科,,,9" xlink:title="ひびの歯科" transform="ref(svg,14013.2396,-3638.4476)" x="0" y="0"/>
<use xlink:href="#p0" content="3,太田歯科医院,茨城県桜川市岩瀬２１-２,歯科,,,9" xlink:title="太田歯科医院" transform="ref(svg,14011.1369,-3636.0059)" x="0" y="0"/>
<use xlink:href="#p0" content="3,小森歯科医院,茨城県桜川市岩瀬２４０,歯科,,,9" xlink:title="小森歯科医院" transform="ref(svg,14010.5643,-3636.1122)" x="0" y="0"/>
<use xlink:href="#p0" content="3,五月女歯科医院,茨城県桜川市岩瀬２４５,歯科　小児歯科,,,9" xlink:title="五月女歯科医院" transform="ref(svg,14010.6418,-3636.1197)" x="0" y="0"/>
<use xlink:href="#p0" content="3,目黒歯科医院,茨城県桜川市岩瀬１４３,歯科,,,9" xlink:title="目黒歯科医院" transform="ref(svg,14010.7737,-3636.1008)" x="0" y="0"/>
<use xlink:href="#p0" content="3,仁平歯科医院,茨城県桜川市岩瀬１１９-４,歯科,,,9" xlink:title="仁平歯科医院" transform="ref(svg,14010.9399,-3636.1956)" x="0" y="0"/>
<use xlink:href="#p0" content="3,磯部歯科医院,茨城県桜川市友部８１６-３３,歯科,,,9" xlink:title="磯部歯科医院" transform="ref(svg,14013.7513,-3635.8831)" x="0" y="0"/>
<use xlink:href="#p0" content="3,堀歯科クリニック,茨城県桜川市明日香１-５０タカダコーポ,歯科　矯正歯科　小児歯科,,,9" xlink:title="堀歯科クリニック" transform="ref(svg,14010.8716,-3636.5074)" x="0" y="0"/>
<use xlink:href="#p0" content="3,富士見台歯科,茨城県桜川市富士見台２-７２-１,歯科,,,9" xlink:title="富士見台歯科" transform="ref(svg,14011.6169,-3636.3477)" x="0" y="0"/>
<use xlink:href="#p0" content="3,（医）芳樹会え歯科医院,茨城県下妻市江１５７２-１,矯正歯科　小児歯科　歯科口腔外科,,,9" xlink:title="（医）芳樹会え歯科医院" transform="ref(svg,13993.2925,-3623.4772)" x="0" y="0"/>
<use xlink:href="#p0" content="3,なかやま歯科,茨城県下妻市数須８３９,矯正歯科　小児歯科　歯科口腔外科,,,9" xlink:title="なかやま歯科" transform="ref(svg,13999.0794,-3621.643)" x="0" y="0"/>
<use xlink:href="#p0" content="3,あんどう歯科クリニック,栃木県宇都宮市中久保２-１２-２１,歯科,,,9" xlink:title="あんどう歯科クリニック" transform="ref(svg,13992.33,-3655.921)" x="0" y="0"/>
<use xlink:href="#p0" content="3,井出歯科医院,栃木県宇都宮市西刑部町１２００-３,歯科　小児歯科,,,9" xlink:title="井出歯科医院" transform="ref(svg,13992.87,-3650.131)" x="0" y="0"/>
<use xlink:href="#p0" content="3,おいかわ歯科医院,栃木県宇都宮市清原台３-６-２４,歯科　矯正歯科　小児歯科,,,9" xlink:title="おいかわ歯科医院" transform="ref(svg,13999.15,-3656.046)" x="0" y="0"/>
<use xlink:href="#p0" content="3,おおねだ歯科医院,栃木県宇都宮市陽東６-１３-１,歯科　矯正歯科　小児歯科　歯科口腔外科,,,9" xlink:title="おおねだ歯科医院" transform="ref(svg,13992.96,-3655.422)" x="0" y="0"/>
<use xlink:href="#p0" content="3,小宅歯科医院,栃木県宇都宮市氷室町２８１５,歯科　小児歯科,,,9" xlink:title="小宅歯科医院" transform="ref(svg,13998.77,-3653.567)" x="0" y="0"/>
<use xlink:href="#p0" content="3,菊池歯科医院,栃木県宇都宮市石井町２４９０-４,矯正歯科,,,9" xlink:title="菊池歯科医院" transform="ref(svg,13994.41,-3654.335)" x="0" y="0"/>
<use xlink:href="#p0" content="3,きくち歯科医院,栃木県宇都宮市氷室町１６３４-１３,歯科　矯正歯科　小児歯科　歯科口腔外科,,,9" xlink:title="きくち歯科医院" transform="ref(svg,13998.9,-3653.197)" x="0" y="0"/>
<use xlink:href="#p0" content="3,熊倉歯科医院,栃木県宇都宮市陽東２-１６-１８,歯科　小児歯科　歯科口腔外科　矯正歯科,,,9" xlink:title="熊倉歯科医院" transform="ref(svg,13992.8,-3655.21)" x="0" y="0"/>
<use xlink:href="#p0" content="3,桜ケ丘デンタルクリニック,栃木県宇都宮市陽東６-２-１,歯科　矯正歯科　小児歯科　歯科口腔外科,,,9" xlink:title="桜ケ丘デンタルクリニック" transform="ref(svg,13992.83,-3655.521)" x="0" y="0"/>
<use xlink:href="#p0" content="3,高橋歯科医院,栃木県宇都宮市陽東６-１-１０,歯科　小児歯科　歯科口腔外科,,,9" xlink:title="高橋歯科医院" transform="ref(svg,13992.7,-3655.358)" x="0" y="0"/>
<use xlink:href="#p0" content="3,田沼歯科医院,栃木県宇都宮市清原台５-３６-２２,歯科　小児歯科　歯科口腔外科,,,9" xlink:title="田沼歯科医院" transform="ref(svg,13999.99,-3654.612)" x="0" y="0"/>
<use xlink:href="#p0" content="3,たんぽぽ歯科,栃木県宇都宮市陽東７-２-８,歯科　矯正歯科　小児歯科　歯科口腔外科,,,9" xlink:title="たんぽぽ歯科" transform="ref(svg,13992.83,-3654.899)" x="0" y="0"/>
<use xlink:href="#p0" content="3,徳永歯科医院,栃木県宇都宮市清原台４-４-７,歯科　小児歯科,,,9" xlink:title="徳永歯科医院" transform="ref(svg,13999.22,-3655.729)" x="0" y="0"/>
<use xlink:href="#p0" content="3,西垣歯科医院,栃木県宇都宮市鐺山町３４８,歯科　小児歯科,,,9" xlink:title="西垣歯科医院" transform="ref(svg,13996.67,-3654.172)" x="0" y="0"/>
<use xlink:href="#p0" content="3,野沢歯科医院,栃木県宇都宮市鐺山町４２６-５,歯科,,,9" xlink:title="野沢歯科医院" transform="ref(svg,13996.59,-3653.733)" x="0" y="0"/>
<use xlink:href="#p0" content="3,長谷川歯科医院,栃木県宇都宮市下平出町８９９-１０,歯科,,,9" xlink:title="長谷川歯科医院" transform="ref(svg,13993.58,-3655.714)" x="0" y="0"/>
<use xlink:href="#p0" content="3,林デンタルオフィス,栃木県宇都宮市陽東３-２６-７,歯科　矯正歯科　小児歯科　歯科口腔外科,,,9" xlink:title="林デンタルオフィス" transform="ref(svg,13992.46,-3655.455)" x="0" y="0"/>
<use xlink:href="#p0" content="3,平野歯科医院,栃木県宇都宮市石井町２９７３-３５,歯科　小児歯科　歯科口腔外科,,,9" xlink:title="平野歯科医院" transform="ref(svg,13992.52,-3654.066)" x="0" y="0"/>
<use xlink:href="#p0" content="3,山口歯科クリニック,栃木県宇都宮市上桑島町１２８８-６,歯科　小児歯科,,,9" xlink:title="山口歯科クリニック" transform="ref(svg,13992.79,-3651.676)" x="0" y="0"/>
<use xlink:href="#p0" content="3,六川歯科クリニック,栃木県宇都宮市上桑島町８１-１,歯科　矯正歯科,,,9" xlink:title="六川歯科クリニック" transform="ref(svg,13994.38,-3650.965)" x="0" y="0"/>
<use xlink:href="#p0" content="3,あおやぎオーラルクリニック,栃木県真岡市島２４５-１,歯科　矯正歯科　小児歯科　歯科口腔外科,,,9" xlink:title="あおやぎオーラルクリニック" transform="ref(svg,14002.04,-3643.557)" x="0" y="0"/>
<use xlink:href="#p0" content="3,石川歯科医院,栃木県真岡市高勢町３-１３２,歯科,,,9" xlink:title="石川歯科医院" transform="ref(svg,13998.06,-3642.792)" x="0" y="0"/>
<use xlink:href="#p0" content="3,いしざきデンタルクリニック,栃木県真岡市東大島５９０-９,歯科　小児歯科,,,9" xlink:title="いしざきデンタルクリニック" transform="ref(svg,14003.3,-3641.645)" x="0" y="0"/>
<use xlink:href="#p0" content="3,いなみ矯正歯科医院,栃木県真岡市荒町２０９４-１３,矯正歯科,,,9" xlink:title="いなみ矯正歯科医院" transform="ref(svg,14001.2,-3644.151)" x="0" y="0"/>
<use xlink:href="#p0" content="3,うすい歯科医院,栃木県真岡市台町２３４７,歯科,,,9" xlink:title="うすい歯科医院" transform="ref(svg,14000.36,-3644.219)" x="0" y="0"/>
<use xlink:href="#p0" content="3,大関歯科医院,栃木県真岡市並木町１-１２-２１,歯科,,,9" xlink:title="大関歯科医院" transform="ref(svg,14000.11,-3644.093)" x="0" y="0"/>
<use xlink:href="#p0" content="3,大貫歯科医院,栃木県真岡市荒町５１６８,歯科,,,9" xlink:title="大貫歯科医院" transform="ref(svg,14001.28,-3644.247)" x="0" y="0"/>
<use xlink:href="#p0" content="3,岡島歯科医院,栃木県真岡市田島３１０-２,歯科　小児歯科,,,9" xlink:title="岡島歯科医院" transform="ref(svg,14002.43,-3646.272)" x="0" y="0"/>
<use xlink:href="#p0" content="3,小川歯科医院,栃木県真岡市高田１００５-４,歯科,,,9" xlink:title="小川歯科医院" transform="ref(svg,14002.35,-3639.083)" x="0" y="0"/>
<use xlink:href="#p0" content="3,勝田歯科医院,栃木県真岡市田町２０４６,歯科,,,9" xlink:title="勝田歯科医院" transform="ref(svg,14000.97,-3643.983)" x="0" y="0"/>
<use xlink:href="#p0" content="3,菊地歯科医院,栃木県真岡市荒町１０４０,歯科,,,9" xlink:title="菊地歯科医院" transform="ref(svg,14001.02,-3644.226)" x="0" y="0"/>
<use xlink:href="#p0" content="3,木代歯科医院,栃木県真岡市久下田７６７,歯科,,,9" xlink:title="木代歯科医院" transform="ref(svg,13996.88,-3637.258)" x="0" y="0"/>
<use xlink:href="#p0" content="3,木村歯科クリニック,栃木県真岡市並木町４-７-９,歯科,,,9" xlink:title="木村歯科クリニック" transform="ref(svg,14000.07,-3644.525)" x="0" y="0"/>
<use xlink:href="#p0" content="3,小林歯科医院,栃木県真岡市熊倉町３-１０-５,歯科,,,9" xlink:title="小林歯科医院" transform="ref(svg,13999.3,-3644)" x="0" y="0"/>
<use xlink:href="#p0" content="3,しぶや歯科クリニック,栃木県真岡市荒町１１８０-３,歯科　小児歯科,,,9" xlink:title="しぶや歯科クリニック" transform="ref(svg,14002.04,-3643.938)" x="0" y="0"/>
<use xlink:href="#p0" content="3,進藤歯科医院,栃木県真岡市上大沼中道２０２,歯科,,,9" xlink:title="進藤歯科医院" transform="ref(svg,13995.62,-3643.736)" x="0" y="0"/>
<use xlink:href="#p0" content="3,鈴木歯科医院,栃木県真岡市亀山４６４-１,歯科　矯正歯科　小児歯科,,,9" xlink:title="鈴木歯科医院" transform="ref(svg,13998.43,-3645.432)" x="0" y="0"/>
<use xlink:href="#p0" content="3,関歯科医院,栃木県真岡市久下田９２０,歯科,,,9" xlink:title="関歯科医院" transform="ref(svg,13996.92,-3637.742)" x="0" y="0"/>
<use xlink:href="#p0" content="3,袖山デンタルクリニック,栃木県真岡市長田１６２７-１０,歯科　小児歯科,,,9" xlink:title="袖山デンタルクリニック" transform="ref(svg,13996.21,-3644.887)" x="0" y="0"/>
<use xlink:href="#p0" content="3,たかはし歯科医院,栃木県真岡市八木岡４８１-１６,歯科　小児歯科,,,9" xlink:title="たかはし歯科医院" transform="ref(svg,13999.29,-3642.827)" x="0" y="0"/>
<use xlink:href="#p0" content="3,塚原歯科医院,栃木県真岡市長沼１７６８,歯科,,,9" xlink:title="塚原歯科医院" transform="ref(svg,13993.08,-3635.948)" x="0" y="0"/>
<use xlink:href="#p0" content="3,統生会おぬき歯科医院,栃木県真岡市久下田７７７-１,歯科　矯正歯科,,,9" xlink:title="統生会おぬき歯科医院" transform="ref(svg,13996.88,-3637.34)" x="0" y="0"/>
<use xlink:href="#p0" content="3,栃木歯科診療所,栃木県真岡市荒町２１９７,歯科　矯正歯科　小児歯科　歯科口腔外科,,,9" xlink:title="栃木歯科診療所" transform="ref(svg,14000.95,-3644.129)" x="0" y="0"/>
<use xlink:href="#p0" content="3,芳賀歯科医院,栃木県真岡市久下田１５２１-５,歯科　小児歯科,,,9" xlink:title="芳賀歯科医院" transform="ref(svg,13997.06,-3638.303)" x="0" y="0"/>
<use xlink:href="#p0" content="3,橋本歯科医院,栃木県真岡市堀内５７７-１,歯科　小児歯科　矯正歯科,,,9" xlink:title="橋本歯科医院" transform="ref(svg,14001.21,-3647.108)" x="0" y="0"/>
<use xlink:href="#p0" content="3,はやし歯科医院,栃木県真岡市並木町４-１０-３,歯科　小児歯科,,,9" xlink:title="はやし歯科医院" transform="ref(svg,13999.98,-3644.682)" x="0" y="0"/>
<use xlink:href="#p0" content="3,報徳歯科診療所,栃木県真岡市下高間木１-１１-１１,歯科　矯正歯科　小児歯科　歯科口腔外科,,,9" xlink:title="報徳歯科診療所" transform="ref(svg,13998.69,-3643.525)" x="0" y="0"/>
<use xlink:href="#p0" content="3,前田歯科,栃木県真岡市亀山１-２０-５,歯科　小児歯科　歯科口腔外科,,,9" xlink:title="前田歯科" transform="ref(svg,13998.72,-3644.957)" x="0" y="0"/>
<use xlink:href="#p0" content="3,松谷歯科,栃木県真岡市上高間木１-２４-１,歯科,,,9" xlink:title="松谷歯科" transform="ref(svg,13998.74,-3644.495)" x="0" y="0"/>
<use xlink:href="#p0" content="3,みやもと歯科医院,栃木県真岡市東光寺３-１４-３,歯科　小児歯科　歯科口腔外科,,,9" xlink:title="みやもと歯科医院" transform="ref(svg,14002.35,-3644.183)" x="0" y="0"/>
<use xlink:href="#p0" content="3,真岡歯科医院,栃木県真岡市台町４２６９-４,歯科,,,9" xlink:title="真岡歯科医院" transform="ref(svg,14000.48,-3644.305)" x="0" y="0"/>
<use xlink:href="#p0" content="3,本山歯科医院,栃木県真岡市大谷台町２４,歯科　矯正歯科　小児歯科　歯科口腔外科,,,9" xlink:title="本山歯科医院" transform="ref(svg,13999.18,-3643.566)" x="0" y="0"/>
<use xlink:href="#p0" content="3,柳田歯科医院,栃木県真岡市高勢町１-７５,歯科　小児歯科　歯科口腔外科,,,9" xlink:title="柳田歯科医院" transform="ref(svg,13997.57,-3643.775)" x="0" y="0"/>
<use xlink:href="#p0" content="3,よしデンタルクリニック,栃木県真岡市熊倉町４８４２-１,歯科　小児歯科　歯科口腔外科,,,9" xlink:title="よしデンタルクリニック" transform="ref(svg,13999.63,-3645.138)" x="0" y="0"/>
<use xlink:href="#p0" content="3,ウエスト歯科クリニック,栃木県芳賀郡益子町塙１１６３,歯科,,,9" xlink:title="ウエスト歯科クリニック" transform="ref(svg,14008.05,-3647.82)" x="0" y="0"/>
<use xlink:href="#p0" content="3,及川歯科医院,栃木県芳賀郡益子町益子９４４-１５,歯科　矯正歯科　小児歯科　歯科口腔外科,,,9" xlink:title="及川歯科医院" transform="ref(svg,14009.51,-3646.284)" x="0" y="0"/>
<use xlink:href="#p0" content="3,大塚歯科医院,栃木県芳賀郡益子町益子３６３８,歯科　矯正歯科　小児歯科,,,9" xlink:title="大塚歯科医院" transform="ref(svg,14009.79,-3646.748)" x="0" y="0"/>
<use xlink:href="#p0" content="3,きくしま歯科医院,栃木県芳賀郡益子町長堤１１２３,歯科　小児歯科　矯正歯科　歯科口腔外科,,,9" xlink:title="きくしま歯科医院" transform="ref(svg,14007.74,-3642.936)" x="0" y="0"/>
<use xlink:href="#p0" content="3,菊池歯科診療所,栃木県芳賀郡益子町益子９８４-３,歯科　小児歯科,,,9" xlink:title="菊池歯科診療所" transform="ref(svg,14009.32,-3646.229)" x="0" y="0"/>
<use xlink:href="#p0" content="3,小谷歯科医院,栃木県芳賀郡益子町益子１４１６,歯科　矯正歯科　小児歯科,,,9" xlink:title="小谷歯科医院" transform="ref(svg,14008.5,-3646.258)" x="0" y="0"/>
<use xlink:href="#p0" content="3,高田歯科医院,栃木県芳賀郡益子町七井５２３-４,歯科,,,9" xlink:title="高田歯科医院" transform="ref(svg,14009.54,-3649.482)" x="0" y="0"/>
<use xlink:href="#p0" content="3,田代歯科医院,栃木県芳賀郡益子町塙８２８-１１４,歯科,,,9" xlink:title="田代歯科医院" transform="ref(svg,14007.58,-3647.058)" x="0" y="0"/>
<use xlink:href="#p0" content="3,平野歯科,栃木県芳賀郡益子町益子９１０,歯科,,,9" xlink:title="平野歯科" transform="ref(svg,14009.68,-3646.138)" x="0" y="0"/>
<use xlink:href="#p0" content="3,牟田歯科医院,栃木県芳賀郡益子町益子２２８９,歯科,,,9" xlink:title="牟田歯科医院" transform="ref(svg,14009.1,-3646.357)" x="0" y="0"/>
<use xlink:href="#p0" content="3,森下歯科医院,栃木県芳賀郡益子町益子１６６６,歯科,,,9" xlink:title="森下歯科医院" transform="ref(svg,14009.29,-3646.338)" x="0" y="0"/>
<use xlink:href="#p0" content="3,宮下歯科医院,栃木県芳賀郡益子町大沢２２４-３,歯科　矯正歯科　小児歯科,,,9" xlink:title="宮下歯科医院" transform="ref(svg,14010.48,-3649.458)" x="0" y="0"/>
<use xlink:href="#p0" content="3,石井歯科医院,栃木県芳賀郡茂木町増井１９７-３,歯科,,,9" xlink:title="石井歯科医院" transform="ref(svg,14020.27,-3653.148)" x="0" y="0"/>
<use xlink:href="#p0" content="3,大森歯科医院,栃木県芳賀郡茂木町増井９３-６,歯科　小児歯科　歯科口腔外科,,,9" xlink:title="大森歯科医院" transform="ref(svg,14019.5,-3653.429)" x="0" y="0"/>
<use xlink:href="#p0" content="3,鈴木歯科医院,栃木県芳賀郡茂木町茂木１７９４-１,歯科　矯正歯科　小児歯科,,,9" xlink:title="鈴木歯科医院" transform="ref(svg,14018.43,-3653.407)" x="0" y="0"/>
<use xlink:href="#p0" content="3,ささもと歯科,栃木県芳賀郡茂木町茂木７１-８,歯科　矯正歯科　小児歯科　歯科口腔外科,,,9" xlink:title="ささもと歯科" transform="ref(svg,14019.19,-3653.353)" x="0" y="0"/>
<use xlink:href="#p0" content="3,水沼歯科医院,栃木県芳賀郡茂木町茂木１４９０-２,歯科　矯正歯科　小児歯科,,,9" xlink:title="水沼歯科医院" transform="ref(svg,14018.16,-3652.979)" x="0" y="0"/>
<use xlink:href="#p0" content="3,水野歯科医院,栃木県芳賀郡茂木町小井戸２７,歯科,,,9" xlink:title="水野歯科医院" transform="ref(svg,14018.71,-3653.499)" x="0" y="0"/>
<use xlink:href="#p0" content="3,市貝歯科医院,栃木県芳賀郡市貝町市塙１６４１,歯科,,,9" xlink:title="市貝歯科医院" transform="ref(svg,14010.61,-3653.769)" x="0" y="0"/>
<use xlink:href="#p0" content="3,おぐら歯科クリニック,栃木県芳賀郡市貝町市塙１６０８-６,歯科,,,9" xlink:title="おぐら歯科クリニック" transform="ref(svg,14010.32,-3653.735)" x="0" y="0"/>
<use xlink:href="#p0" content="3,よりちか歯科医院,栃木県芳賀郡市貝町赤羽２６３３-５,歯科,,,9" xlink:title="よりちか歯科医院" transform="ref(svg,14006.75,-3651.827)" x="0" y="0"/>
<use xlink:href="#p0" content="3,今井歯科医院,栃木県芳賀郡芳賀町祖母井５０９-４,歯科　小児歯科,,,9" xlink:title="今井歯科医院" transform="ref(svg,14006.31,-3654.846)" x="0" y="0"/>
<use xlink:href="#p0" content="3,祖母井デンタルクリニック,栃木県芳賀郡芳賀町祖母井１０４８-６,歯科,,,9" xlink:title="祖母井デンタルクリニック" transform="ref(svg,14005.82,-3655.362)" x="0" y="0"/>
<use xlink:href="#p0" content="3,小林歯科クリニック,栃木県芳賀郡芳賀町祖母井１０９４,歯科　矯正歯科　小児歯科,,,9" xlink:title="小林歯科クリニック" transform="ref(svg,14006.05,-3654.725)" x="0" y="0"/>
<use xlink:href="#p0" content="3,塩田歯科医院,栃木県芳賀郡芳賀町西水沼４３３,歯科,,,9" xlink:title="塩田歯科医院" transform="ref(svg,14002.4,-3652.452)" x="0" y="0"/>
<use xlink:href="#p0" content="3,たけざわ歯科医院,栃木県芳賀郡芳賀町下--根沢３９１９-４０７,歯科　小児歯科,,,9" xlink:title="たけざわ歯科医院" transform="ref(svg,14002.39,-3652.213)" x="0" y="0"/>
<use xlink:href="#p0" content="3,なかの歯科・矯正歯科クリニックなかのキッズデンタル,栃木県芳賀郡芳賀町上延生５３３-１,歯科　矯正歯科　小児歯科,,,9" xlink:title="なかの歯科・矯正歯科クリニックなかのキッズデンタル" transform="ref(svg,14005.52,-3655.359)" x="0" y="0"/>
<use xlink:href="#p0" content="3,やなぎだ歯科クリニック,栃木県芳賀郡芳賀町下高根沢３８５９-２,歯科,,,9" xlink:title="やなぎだ歯科クリニック" transform="ref(svg,14001.61,-3655.875)" x="0" y="0"/>
</g>
</svg>
