<?xml version="1.0" encoding="UTF-8"?>
<svg  xmlns="http://www.w3.org/2000/svg" xmlns:xlink="http://www.w3.org/1999/xlink" xmlns:go="http://purl.org/svgmap/profile" property="医療機関分類,施設名称,所在地,診療科目１,診療科目２,診療科目３,開設者分類" viewBox="14167.96875 -4324.21875 35.15625 35.15625" go:dataArea="14167.96875 -4324.21875 35.15625 35.15625" >
<metadata>
 <rdf:RDF xmlns:rdf="http://www.w3.org/1999/02/22-rdf-syntax-ns#" xmlns:crs="http://opengis.org/xmldtds/transformations.dtd" xmlns:svg="http://www.w3.org/svg" >
  <rdf:Description>
   <crs:CoordinateReferenceSystem rdf:resource="http://purl.org/crs/84" svg:transform="matrix(100.0,0.0,0.0,-100.0,0.0,0.0)" />
  </rdf:Description>
 </rdf:RDF>
</metadata>
<globalCoordinateSystem srsName="http://purl.org/crs/84" transform="matrix(100.0,0.0,0.0,-100.0,0.0,0.0)" />
<defs>
 <g id="p0" >
  <image xlink:href="mappin.png" preserveAspectRatio="none" x="-8" y="-25" width="19" height="27"/>
 </g>
 <g id="p1" >
  <image xlink:href="mappin1.png" preserveAspectRatio="none" x="-8" y="-25" width="19" height="27"/>
 </g>
 <g id="p2" >
  <image xlink:href="mappin2.png" preserveAspectRatio="none" x="-8" y="-25" width="19" height="27"/>
 </g>
 <g id="p3" >
  <image xlink:href="mappin3.png" preserveAspectRatio="none" x="-8" y="-25" width="19" height="27"/>
 </g>
 <g id="p4" >
  <image xlink:href="mappin4.png" preserveAspectRatio="none" x="-8" y="-25" width="19" height="27"/>
 </g>
 <g id="p5" >
  <image xlink:href="mappin5.png" preserveAspectRatio="none" x="-8" y="-25" width="19" height="27"/>
 </g>
 <g id="p6" >
  <image xlink:href="mappin6.png" preserveAspectRatio="none" x="-8" y="-25" width="19" height="27"/>
 </g>
 <g id="p7" >
  <image xlink:href="mappin7.png" preserveAspectRatio="none" x="-8" y="-25" width="19" height="27"/>
 </g>
 <g id="p8" >
  <image xlink:href="mappin8.png" preserveAspectRatio="none" x="-8" y="-25" width="19" height="27"/>
 </g>
 <g id="p9" >
  <image xlink:href="mappin9.png" preserveAspectRatio="none" x="-8" y="-25" width="19" height="27"/>
 </g>
</defs>
<g fill="green" fill-rule="evenodd" >
<use xlink:href="#p0" content="3,（医）柏葉会三嶋歯科医院岩見沢７条医院,北海道岩見沢市７条西５-２０-１,歯科　小児歯科　矯正歯科　歯科口腔外科,,,9" xlink:title="（医）柏葉会三嶋歯科医院岩見沢７条医院" transform="ref(svg,14176.551,-4319.7841)" x="0" y="0"/>
<use xlink:href="#p0" content="3,（医）学歯会九津見歯科医院,北海道岩見沢市４条西６-２-１-２,歯科　小児歯科　歯科口腔外科,,,9" xlink:title="（医）学歯会九津見歯科医院" transform="ref(svg,14176.1511,-4320.1371)" x="0" y="0"/>
<use xlink:href="#p0" content="3,（医）鍵谷歯科医院,北海道岩見沢市５条西３-２-７,歯科　矯正歯科,,,9" xlink:title="（医）鍵谷歯科医院" transform="ref(svg,14176.5567,-4320.1525)" x="0" y="0"/>
<use xlink:href="#p0" content="3,（医）福島歯科医院,北海道岩見沢市４条西５-５-１,歯科,,,9" xlink:title="（医）福島歯科医院" transform="ref(svg,14176.2283,-4320.121)" x="0" y="0"/>
<use xlink:href="#p0" content="3,千徳歯科医院,北海道岩見沢市北２条西８-２-７,歯科,,,9" xlink:title="千徳歯科医院" transform="ref(svg,14175.4602,-4320.6056)" x="0" y="0"/>
<use xlink:href="#p0" content="3,（医）西本歯科医院,北海道岩見沢市４条西８-８,歯科　小児歯科　矯正歯科　歯科口腔外科,,,9" xlink:title="（医）西本歯科医院" transform="ref(svg,14175.9556,-4319.9792)" x="0" y="0"/>
<use xlink:href="#p0" content="3,（医）元一会館山歯科医院,北海道岩見沢市志文町３５２-１,歯科,,,9" xlink:title="（医）元一会館山歯科医院" transform="ref(svg,14176.0052,-4316.7951)" x="0" y="0"/>
<use xlink:href="#p0" content="3,（医）竹内歯科クリニック,北海道岩見沢市美園５条３-２-５,歯科　小児歯科　矯正歯科,,,9" xlink:title="（医）竹内歯科クリニック" transform="ref(svg,14176.5088,-4318.7321)" x="0" y="0"/>
<use xlink:href="#p0" content="3,（医）本間歯科医院,北海道岩見沢市５条西５-２-１１,歯科　小児歯科　歯科口腔外科,,,9" xlink:title="（医）本間歯科医院" transform="ref(svg,14176.3671,-4320.0698)" x="0" y="0"/>
<use xlink:href="#p0" content="3,（医）ちとせ会館山歯科東町医院,北海道岩見沢市４条東１８-２８,歯科　小児歯科　矯正歯科　歯科口腔外科,,,9" xlink:title="（医）ちとせ会館山歯科東町医院" transform="ref(svg,14179.3657,-4321.6679)" x="0" y="0"/>
<use xlink:href="#p0" content="3,（医）仲屋歯科医院,北海道岩見沢市５条東１１-４５-３,歯科　歯科口腔外科,,,9" xlink:title="（医）仲屋歯科医院" transform="ref(svg,14177.9242,-4320.7945)" x="0" y="0"/>
<use xlink:href="#p0" content="3,（医）柏葉会三嶋歯科医院４条院,北海道岩見沢市４条西４-１-１,歯科　小児歯科　矯正歯科　歯科口腔外科,,,9" xlink:title="（医）柏葉会三嶋歯科医院４条院" transform="ref(svg,14176.3523,-4320.2343)" x="0" y="0"/>
<use xlink:href="#p0" content="3,山田歯科医院,北海道岩見沢市２条西６-４-２,歯科,,,9" xlink:title="山田歯科医院" transform="ref(svg,14176.0032,-4320.2185)" x="0" y="0"/>
<use xlink:href="#p0" content="3,牛丸歯科医院,北海道岩見沢市６条西５,歯科,,,9" xlink:title="牛丸歯科医院" transform="ref(svg,14176.408,-4319.9382)" x="0" y="0"/>
<use xlink:href="#p0" content="3,吉田歯科医院,北海道岩見沢市５条西１１-２-１４,歯科　小児歯科　歯科口腔外科,,,9" xlink:title="吉田歯科医院" transform="ref(svg,14175.7946,-4319.7804)" x="0" y="0"/>
<use xlink:href="#p0" content="3,平瀬歯科医院,北海道岩見沢市日の出北４-１-１８,歯科,,,9" xlink:title="平瀬歯科医院" transform="ref(svg,14178.9522,-4321.1845)" x="0" y="0"/>
<use xlink:href="#p0" content="3,美園歯科医院,北海道岩見沢市美園４条３-１-１１,歯科,,,9" xlink:title="美園歯科医院" transform="ref(svg,14176.4246,-4318.8281)" x="0" y="0"/>
<use xlink:href="#p0" content="3,青野歯科医院,北海道岩見沢市２条西４-５,歯科,,,9" xlink:title="青野歯科医院" transform="ref(svg,14176.1999,-4320.2956)" x="0" y="0"/>
<use xlink:href="#p0" content="3,山本歯科医院,北海道岩見沢市３条西３-２-９,歯科,,,9" xlink:title="山本歯科医院" transform="ref(svg,14176.4188,-4320.3035)" x="0" y="0"/>
<use xlink:href="#p0" content="3,佐々木歯科医院,北海道岩見沢市１条西５-４-２ライズビル５Ｆ,歯科　小児歯科　歯科口腔外科,,,9" xlink:title="佐々木歯科医院" transform="ref(svg,14176.2196,-4320.3564)" x="0" y="0"/>
<use xlink:href="#p0" content="3,ハタテ歯科医院,北海道岩見沢市美園１条３-２-１４,歯科　小児歯科,,,9" xlink:title="ハタテ歯科医院" transform="ref(svg,14176.1368,-4319.0449)" x="0" y="0"/>
<use xlink:href="#p0" content="3,谷本歯科医院,北海道岩見沢市３条東２-６,歯科　小児歯科　歯科口腔外科,,,9" xlink:title="谷本歯科医院" transform="ref(svg,14176.8001,-4320.4852)" x="0" y="0"/>
<use xlink:href="#p0" content="3,川野歯科医院,北海道岩見沢市８条西１９-３-２,歯科　小児歯科　矯正歯科　歯科口腔外科,,,9" xlink:title="川野歯科医院" transform="ref(svg,14175.2877,-4319.1678)" x="0" y="0"/>
<use xlink:href="#p0" content="3,日の出町西村歯科医院,北海道岩見沢市日の出町３０-１４,歯科　小児歯科　矯正歯科,,,9" xlink:title="日の出町西村歯科医院" transform="ref(svg,14178.7336,-4320.5157)" x="0" y="0"/>
<use xlink:href="#p0" content="3,倉増歯科医院,北海道岩見沢市春日町１-７-１,歯科　小児歯科,,,9" xlink:title="倉増歯科医院" transform="ref(svg,14177.1231,-4319.0172)" x="0" y="0"/>
<use xlink:href="#p0" content="3,勝木歯科,北海道岩見沢市北３条西１１-１-３５,歯科　小児歯科　矯正歯科　歯科口腔外科,,,9" xlink:title="勝木歯科" transform="ref(svg,14175.0845,-4320.5322)" x="0" y="0"/>
<use xlink:href="#p0" content="3,東町歯科クリニック,北海道岩見沢市東町１条６,歯科　小児歯科,,,9" xlink:title="東町歯科クリニック" transform="ref(svg,14179.3604,-4322.2428)" x="0" y="0"/>
<use xlink:href="#p0" content="3,山口歯科医院,北海道岩見沢市５条西５-１-２６,歯科,,,9" xlink:title="山口歯科医院" transform="ref(svg,14176.2874,-4320.0586)" x="0" y="0"/>
<use xlink:href="#p0" content="3,中川歯科クリニック,北海道岩見沢市５条西１-８,歯科　小児歯科,,,9" xlink:title="中川歯科クリニック" transform="ref(svg,14176.7472,-4320.2505)" x="0" y="0"/>
<use xlink:href="#p0" content="3,藤倉歯科医院,北海道岩見沢市１条西５,歯科,,,9" xlink:title="藤倉歯科医院" transform="ref(svg,14176.0696,-4320.3035)" x="0" y="0"/>
<use xlink:href="#p0" content="3,日之出歯科医院,北海道岩見沢市１条西６にれビル２Ｆ,歯科,,,9" xlink:title="日之出歯科医院" transform="ref(svg,14175.9721,-4320.2803)" x="0" y="0"/>
<use xlink:href="#p0" content="3,ノザキデンタルオフィス,北海道岩見沢市日の出北１-１-１０,歯科　小児歯科,,,9" xlink:title="ノザキデンタルオフィス" transform="ref(svg,14178.6082,-4321.0803)" x="0" y="0"/>
<use xlink:href="#p0" content="3,鳩が丘歯科クリニック,北海道岩見沢市鳩が丘３-１-７,歯科　小児歯科　矯正歯科,,,9" xlink:title="鳩が丘歯科クリニック" transform="ref(svg,14177.6815,-4319.5639)" x="0" y="0"/>
<use xlink:href="#p0" content="3,たかはし歯科医院,北海道岩見沢市日の出南４-１-７,歯科　小児歯科　矯正歯科,,,9" xlink:title="たかはし歯科医院" transform="ref(svg,14178.9501,-4320.5107)" x="0" y="0"/>
<use xlink:href="#p0" content="3,富樫歯科クリニック,北海道岩見沢市３条東７-２-２,歯科　小児歯科,,,9" xlink:title="富樫歯科クリニック" transform="ref(svg,14177.1422,-4320.7792)" x="0" y="0"/>
<use xlink:href="#p0" content="3,スマイル歯科クリニック,北海道岩見沢市北本町西１-３-１９,歯科　小児歯科,,,9" xlink:title="スマイル歯科クリニック" transform="ref(svg,14176.0214,-4321.0123)" x="0" y="0"/>
<use xlink:href="#p0" content="3,品川歯科クリニック,北海道岩見沢市南町７条１-２-１３,歯科　小児歯科,,,9" xlink:title="品川歯科クリニック" transform="ref(svg,14176.0687,-4317.9863)" x="0" y="0"/>
<use xlink:href="#p0" content="3,ひさつね歯科,北海道岩見沢市７条東６-１１-１５,歯科　小児歯科　矯正歯科,,,9" xlink:title="ひさつね歯科" transform="ref(svg,14177.513,-4320.3063)" x="0" y="0"/>
<use xlink:href="#p0" content="3,デンタルオフィスイオン岩見沢,北海道岩見沢市大和４条８,歯科　小児歯科,,,9" xlink:title="デンタルオフィスイオン岩見沢" transform="ref(svg,14174.113,-4318.451)" x="0" y="0"/>
<use xlink:href="#p0" content="3,一条通り歯科医院,北海道岩見沢市１条西４-５-３,歯科　小児歯科,,,9" xlink:title="一条通り歯科医院" transform="ref(svg,14176.1162,-4320.389)" x="0" y="0"/>
<use xlink:href="#p0" content="3,さいとう歯科クリニック,北海道岩見沢市東町１条８-９３２-７３,歯科　小児歯科　矯正歯科　歯科口腔外科,,,9" xlink:title="さいとう歯科クリニック" transform="ref(svg,14179.7914,-4322.3291)" x="0" y="0"/>
<use xlink:href="#p0" content="3,岩見沢市美流渡歯科診療所,北海道岩見沢市栗沢町美流渡栄町９３-２,歯科,,,9" xlink:title="岩見沢市美流渡歯科診療所" transform="ref(svg,14191.5768,-4316.2793)" x="0" y="0"/>
<use xlink:href="#p0" content="3,（医）柏葉会三嶋歯科医院栗沢院,北海道岩見沢市栗沢町本町１０９,歯科　小児歯科　矯正歯科　歯科口腔外科,,,9" xlink:title="（医）柏葉会三嶋歯科医院栗沢院" transform="ref(svg,14174.1585,-4312.0404)" x="0" y="0"/>
<use xlink:href="#p0" content="3,くりさわパーク歯科クリニック,北海道岩見沢市栗沢町北本町２１１-１３,歯科　小児歯科,,,9" xlink:title="くりさわパーク歯科クリニック" transform="ref(svg,14174.4486,-4312.1998)" x="0" y="0"/>
<use xlink:href="#p0" content="3,（医）サン歯科クリニック,北海道岩見沢市大和１条９-１-１ビッグハウス２階,歯科　小児歯科　矯正歯科,,,9" xlink:title="（医）サン歯科クリニック" transform="ref(svg,14173.4922,-4318.9175)" x="0" y="0"/>
<use xlink:href="#p0" content="3,沼の沢歯科診療所,北海道夕張市沼の沢４７,歯科　小児歯科,,,9" xlink:title="沼の沢歯科診療所" transform="ref(svg,14203.0858,-4295.6822)" x="0" y="0"/>
<use xlink:href="#p0" content="3,（医）白水会みのわ歯科医院,北海道夕張市末広１-１０４-５,歯科　小児歯科　歯科口腔外科,,,9" xlink:title="（医）白水会みのわ歯科医院" transform="ref(svg,14196.3457,-4304.6826)" x="0" y="0"/>
<use xlink:href="#p0" content="3,木村歯科診療所,北海道夕張市本町３-６３,歯科　小児歯科　歯科口腔外科,,,9" xlink:title="木村歯科診療所" transform="ref(svg,14197.7181,-4305.7232)" x="0" y="0"/>
<use xlink:href="#p0" content="3,清水沢歯科医院,北海道夕張市清水沢３-３,歯科,,,9" xlink:title="清水沢歯科医院" transform="ref(svg,14200.7427,-4299.9232)" x="0" y="0"/>
<use xlink:href="#p0" content="3,ひうら歯科クリニック,北海道夕張市若菜１１-２９,歯科　小児歯科　歯科口腔外科,,,9" xlink:title="ひうら歯科クリニック" transform="ref(svg,14197.334,-4302.3932)" x="0" y="0"/>
<use xlink:href="#p0" content="3,やなづめファミリー歯科,北海道夕張市清水沢４-６０-１２ツルヤ夕張店２階,歯科　小児歯科,,,9" xlink:title="やなづめファミリー歯科" transform="ref(svg,14200.7409,-4298.1076)" x="0" y="0"/>
<use xlink:href="#p0" content="3,（医）鳥山歯科医院,北海道夕張郡由仁町本町２０１,歯科　小児歯科,,,9" xlink:title="（医）鳥山歯科医院" transform="ref(svg,14178.4082,-4301.4445)" x="0" y="0"/>
<use xlink:href="#p0" content="3,畑歯科医院,北海道夕張郡由仁町中央３３３,歯科,,,9" xlink:title="畑歯科医院" transform="ref(svg,14178.2285,-4300.8301)" x="0" y="0"/>
<use xlink:href="#p0" content="3,しみず歯科医院,北海道夕張郡由仁町三川緑町１３５,歯科　小児歯科,,,9" xlink:title="しみず歯科医院" transform="ref(svg,14180.3867,-4294.5509)" x="0" y="0"/>
<use xlink:href="#p0" content="3,あすなろ歯科,北海道夕張郡由仁町東栄２３７-１,歯科　小児歯科,,,9" xlink:title="あすなろ歯科" transform="ref(svg,14178.9926,-4300.8624)" x="0" y="0"/>
<use xlink:href="#p0" content="3,豊田歯科医院,北海道夕張郡長沼町銀座南１-７-１２,歯科,,,9" xlink:title="豊田歯科医院" transform="ref(svg,14169.8299,-4300.7734)" x="0" y="0"/>
<use xlink:href="#p0" content="3,土岐歯科医院,北海道夕張郡長沼町中央南１-７-３１,歯科　小児歯科　歯科口腔外科,,,9" xlink:title="土岐歯科医院" transform="ref(svg,14169.4043,-4300.9348)" x="0" y="0"/>
<use xlink:href="#p0" content="3,稗田歯科医院,北海道夕張郡長沼町中央北１-２-１,歯科,,,9" xlink:title="稗田歯科医院" transform="ref(svg,14169.3427,-4301.0126)" x="0" y="0"/>
<use xlink:href="#p0" content="3,（医）おかもと歯科医院,北海道夕張郡長沼町あかね１-１-１８,歯科　小児歯科　矯正歯科　歯科口腔外科,,,9" xlink:title="（医）おかもと歯科医院" transform="ref(svg,14168.4975,-4301.2808)" x="0" y="0"/>
<use xlink:href="#p0" content="3,てらさわ歯科,北海道夕張郡長沼町東町北１-２-６,歯科　小児歯科,,,9" xlink:title="てらさわ歯科" transform="ref(svg,14170.0026,-4300.9207)" x="0" y="0"/>
<use xlink:href="#p0" content="3,こなみ歯科クリニック,北海道夕張郡長沼町本町北１-１-２９,歯科　小児歯科,,,9" xlink:title="こなみ歯科クリニック" transform="ref(svg,14169.2782,-4301.0834)" x="0" y="0"/>
<use xlink:href="#p0" content="3,三上歯科医院,北海道夕張郡栗山町松風４-６-３,歯科,,,9" xlink:title="三上歯科医院" transform="ref(svg,14178.4133,-4305.4448)" x="0" y="0"/>
<use xlink:href="#p0" content="3,（医）南川歯科医院,北海道夕張郡栗山町朝日３-６-９,歯科　小児歯科　矯正歯科　歯科口腔外科,,,9" xlink:title="（医）南川歯科医院" transform="ref(svg,14178.9216,-4305.8362)" x="0" y="0"/>
<use xlink:href="#p0" content="3,高橋歯科医院,北海道夕張郡栗山町中央２-１７４,歯科　小児歯科　矯正歯科　歯科口腔外科,,,9" xlink:title="高橋歯科医院" transform="ref(svg,14177.7272,-4305.906)" x="0" y="0"/>
<use xlink:href="#p0" content="3,西村歯科医院,北海道夕張郡栗山町中央３-２６６,歯科　小児歯科　矯正歯科,,,9" xlink:title="西村歯科医院" transform="ref(svg,14178.228,-4305.7759)" x="0" y="0"/>
<use xlink:href="#p0" content="3,（医）永山歯科医院,北海道夕張郡栗山町松風４-２３,歯科　矯正歯科,,,9" xlink:title="（医）永山歯科医院" transform="ref(svg,14178.8283,-4305.5471)" x="0" y="0"/>
<use xlink:href="#p0" content="3,つぎたて歯科,北海道夕張郡栗山町字継立３６３-３７,歯科　小児歯科　歯科口腔外科,,,9" xlink:title="つぎたて歯科" transform="ref(svg,14185.8738,-4302.0637)" x="0" y="0"/>
<use xlink:href="#p0" content="3,あらい歯科,北海道夕張郡栗山町中央３-２３３,歯科　小児歯科　矯正歯科,,,9" xlink:title="あらい歯科" transform="ref(svg,14177.9667,-4305.6022)" x="0" y="0"/>
<use xlink:href="#p0" content="3,（医）アウル会くりやまフレンド歯科,北海道夕張郡栗山町朝日４-３１-１,歯科　小児歯科　歯科口腔外科,,,9" xlink:title="（医）アウル会くりやまフレンド歯科" transform="ref(svg,14179.6479,-4305.4899)" x="0" y="0"/>
</g>
</svg>
