<?xml version="1.0" encoding="UTF-8"?>
<svg  xmlns="http://www.w3.org/2000/svg" xmlns:xlink="http://www.w3.org/1999/xlink" xmlns:go="http://purl.org/svgmap/profile" property="医療機関分類,施設名称,所在地,診療科目１,診療科目２,診療科目３,開設者分類" viewBox="13218.75 -3445.3125 17.578125 17.578125" go:dataArea="13218.75 -3445.3125 17.578125 17.578125" >
<metadata>
 <rdf:RDF xmlns:rdf="http://www.w3.org/1999/02/22-rdf-syntax-ns#" xmlns:crs="http://opengis.org/xmldtds/transformations.dtd" xmlns:svg="http://www.w3.org/svg" >
  <rdf:Description>
   <crs:CoordinateReferenceSystem rdf:resource="http://purl.org/crs/84" svg:transform="matrix(100.0,0.0,0.0,-100.0,0.0,0.0)" />
  </rdf:Description>
 </rdf:RDF>
</metadata>
<globalCoordinateSystem srsName="http://purl.org/crs/84" transform="matrix(100.0,0.0,0.0,-100.0,0.0,0.0)" />
<defs>
 <g id="p0" >
  <image xlink:href="mappin.png" preserveAspectRatio="none" x="-8" y="-25" width="19" height="27"/>
 </g>
 <g id="p1" >
  <image xlink:href="mappin1.png" preserveAspectRatio="none" x="-8" y="-25" width="19" height="27"/>
 </g>
 <g id="p2" >
  <image xlink:href="mappin2.png" preserveAspectRatio="none" x="-8" y="-25" width="19" height="27"/>
 </g>
 <g id="p3" >
  <image xlink:href="mappin3.png" preserveAspectRatio="none" x="-8" y="-25" width="19" height="27"/>
 </g>
 <g id="p4" >
  <image xlink:href="mappin4.png" preserveAspectRatio="none" x="-8" y="-25" width="19" height="27"/>
 </g>
 <g id="p5" >
  <image xlink:href="mappin5.png" preserveAspectRatio="none" x="-8" y="-25" width="19" height="27"/>
 </g>
 <g id="p6" >
  <image xlink:href="mappin6.png" preserveAspectRatio="none" x="-8" y="-25" width="19" height="27"/>
 </g>
 <g id="p7" >
  <image xlink:href="mappin7.png" preserveAspectRatio="none" x="-8" y="-25" width="19" height="27"/>
 </g>
 <g id="p8" >
  <image xlink:href="mappin8.png" preserveAspectRatio="none" x="-8" y="-25" width="19" height="27"/>
 </g>
 <g id="p9" >
  <image xlink:href="mappin9.png" preserveAspectRatio="none" x="-8" y="-25" width="19" height="27"/>
 </g>
</defs>
<g fill="green" fill-rule="evenodd" >
<use xlink:href="#p0" content="3,對木歯科医院,広島県広島市佐伯区五日市４-２-３６,歯科　矯正歯科　小児歯科,,,9" xlink:title="對木歯科医院" transform="ref(svg,13235.8515,-3436.9873)" x="0" y="0"/>
<use xlink:href="#p0" content="3,たなべ歯科医院,広島県広島市佐伯区新宮苑１１-１６,歯科,,,9" xlink:title="たなべ歯科医院" transform="ref(svg,13236.1533,-3437.0789)" x="0" y="0"/>
<use xlink:href="#p0" content="3,慈晃歯科医院,広島県広島市佐伯区五日市５-１１-２１-２０２,歯科　矯正歯科　小児歯科,,,9" xlink:title="慈晃歯科医院" transform="ref(svg,13235.7407,-3437.1572)" x="0" y="0"/>
<use xlink:href="#p0" content="3,松田歯科医院,広島県広島市佐伯区八幡２-７-５,歯科　小児歯科,,,9" xlink:title="松田歯科医院" transform="ref(svg,13235.6041,-3439.1205)" x="0" y="0"/>
<use xlink:href="#p0" content="3,安達歯科医院,広島県広島市佐伯区楽々園３-２-１６,歯科,,,9" xlink:title="安達歯科医院" transform="ref(svg,13235.6035,-3436.4242)" x="0" y="0"/>
<use xlink:href="#p0" content="3,山科歯科医院,広島県広島市佐伯区八幡２-２６-２７,歯科,,,9" xlink:title="山科歯科医院" transform="ref(svg,13235.5693,-3438.7949)" x="0" y="0"/>
<use xlink:href="#p0" content="3,甲野歯科医院,広島県広島市佐伯区城山１-１５-８,歯科,,,9" xlink:title="甲野歯科医院" transform="ref(svg,13235.5477,-3438.4125)" x="0" y="0"/>
<use xlink:href="#p0" content="3,福原歯科医院,広島県広島市佐伯区五日市中央２-８-４３,歯科,,,9" xlink:title="福原歯科医院" transform="ref(svg,13235.4628,-3436.8155)" x="0" y="0"/>
<use xlink:href="#p0" content="3,坂井矯正歯科小児歯科,広島県広島市佐伯区五日市５-１０-２４,歯科　矯正歯科　小児歯科　歯科口腔外科,,,9" xlink:title="坂井矯正歯科小児歯科" transform="ref(svg,13235.77,-3437.2217)" x="0" y="0"/>
<use xlink:href="#p0" content="3,桂歯科医院,広島県広島市佐伯区隅ノ浜３-９-１,歯科,,,9" xlink:title="桂歯科医院" transform="ref(svg,13234.7651,-3436.0832)" x="0" y="0"/>
<use xlink:href="#p0" content="3,川端歯科医院,広島県広島市佐伯区湯来町白砂３５２６-１,歯科,,,9" xlink:title="川端歯科医院" transform="ref(svg,13229.0759,-3443.2692)" x="0" y="0"/>
<use xlink:href="#p0" content="3,平野歯科医院,広島県広島市佐伯区五日市７-４-３１,歯科　小児歯科,,,9" xlink:title="平野歯科医院" transform="ref(svg,13236.0209,-3437.874)" x="0" y="0"/>
<use xlink:href="#p0" content="3,楳林歯科医院,広島県広島市佐伯区海老園１-５-５１,歯科　矯正歯科　小児歯科,,,9" xlink:title="楳林歯科医院" transform="ref(svg,13236.019,-3436.4051)" x="0" y="0"/>
<use xlink:href="#p0" content="3,三浦歯科医院,広島県広島市佐伯区海老園２-１０-２１,歯科,,,9" xlink:title="三浦歯科医院" transform="ref(svg,13236.204,-3436.4274)" x="0" y="0"/>
<use xlink:href="#p0" content="3,川本歯科医院,広島県広島市佐伯区利松１-８-５１,歯科,,,9" xlink:title="川本歯科医院" transform="ref(svg,13236.1659,-3439.5847)" x="0" y="0"/>
<use xlink:href="#p0" content="3,新田歯科医院,広島県広島市佐伯区楽々園４-１３-１４,歯科　小児歯科,,,9" xlink:title="新田歯科医院" transform="ref(svg,13235.0437,-3436.1434)" x="0" y="0"/>
<use xlink:href="#p0" content="3,勝島歯科医院,広島県広島市佐伯区千同２-１４-３２,歯科　小児歯科,,,9" xlink:title="勝島歯科医院" transform="ref(svg,13235.3796,-3437.9033)" x="0" y="0"/>
<use xlink:href="#p0" content="3,くわばら歯科医院,広島県広島市佐伯区八幡４-７-２５第２石見ビル２Ｆ,歯科,,,9" xlink:title="くわばら歯科医院" transform="ref(svg,13235.8548,-3439.4867)" x="0" y="0"/>
<use xlink:href="#p0" content="3,さぬき歯科医院,広島県広島市佐伯区楽々園４-２-１７,歯科,,,9" xlink:title="さぬき歯科医院" transform="ref(svg,13235.1291,-3436.3671)" x="0" y="0"/>
<use xlink:href="#p0" content="3,門脇歯科医院,広島県広島市佐伯区楽々園５-２-１,歯科,,,9" xlink:title="門脇歯科医院" transform="ref(svg,13235.5292,-3436.152)" x="0" y="0"/>
<use xlink:href="#p0" content="3,片岡歯科医院,広島県広島市佐伯区五日市町下河内６０-１,歯科　小児歯科,,,9" xlink:title="片岡歯科医院" transform="ref(svg,13235.3425,-3440.4895)" x="0" y="0"/>
<use xlink:href="#p0" content="3,かねこ歯科医院,広島県広島市佐伯区八幡３-２３-２５,歯科,,,9" xlink:title="かねこ歯科医院" transform="ref(svg,13235.8811,-3439.1782)" x="0" y="0"/>
<use xlink:href="#p0" content="3,にしえ歯科医院,広島県広島市佐伯区観音台４-３２-２０,歯科　小児歯科,,,9" xlink:title="にしえ歯科医院" transform="ref(svg,13234.2726,-3438.5776)" x="0" y="0"/>
<use xlink:href="#p0" content="3,いわもと歯科,広島県広島市佐伯区湯来町伏谷１１５-１,歯科,,,9" xlink:title="いわもと歯科" transform="ref(svg,13229.617,-3443.6971)" x="0" y="0"/>
<use xlink:href="#p0" content="3,さがら歯科,広島県広島市佐伯区楽々園４-７-１,歯科　矯正歯科　小児歯科　歯科口腔外科,,,9" xlink:title="さがら歯科" transform="ref(svg,13235.2317,-3436.2971)" x="0" y="0"/>
<use xlink:href="#p0" content="3,（医）いちこ歯科医院,広島県広島市佐伯区五日市中央５-１０-１７,歯科　小児歯科,,,9" xlink:title="（医）いちこ歯科医院" transform="ref(svg,13235.2888,-3437.5019)" x="0" y="0"/>
<use xlink:href="#p0" content="3,上本歯科医院,広島県広島市佐伯区五日市中央１-３-２６,歯科,,,9" xlink:title="上本歯科医院" transform="ref(svg,13235.1574,-3436.7619)" x="0" y="0"/>
<use xlink:href="#p0" content="3,中林歯科クリニック,広島県広島市佐伯区海老園２-６-２２,歯科,,,9" xlink:title="中林歯科クリニック" transform="ref(svg,13236.161,-3436.494)" x="0" y="0"/>
<use xlink:href="#p0" content="3,あい歯科クリニック,広島県広島市佐伯区五日市５-６-２６,歯科,,,9" xlink:title="あい歯科クリニック" transform="ref(svg,13235.8685,-3437.3184)" x="0" y="0"/>
<use xlink:href="#p0" content="3,さいとう歯科,広島県広島市佐伯区三筋２-７-２,歯科　矯正歯科　小児歯科　歯科口腔外科,,,9" xlink:title="さいとう歯科" transform="ref(svg,13234.8939,-3436.7167)" x="0" y="0"/>
<use xlink:href="#p0" content="3,谷口歯科クリニック,広島県広島市佐伯区坪井１-３３-９,歯科,,,9" xlink:title="谷口歯科クリニック" transform="ref(svg,13235.1521,-3437.336)" x="0" y="0"/>
<use xlink:href="#p0" content="3,土井矯正歯科・小児科医院,広島県広島市佐伯区五日市中央５-２１-７,歯科　矯正歯科　小児歯科,,,9" xlink:title="土井矯正歯科・小児科医院" transform="ref(svg,13235.7411,-3437.2925)" x="0" y="0"/>
<use xlink:href="#p0" content="3,伊丹歯科クリニック,広島県広島市佐伯区八幡東２-２８-５４,歯科　矯正歯科　小児歯科　歯科口腔外科,,,9" xlink:title="伊丹歯科クリニック" transform="ref(svg,13235.9428,-3438.4654)" x="0" y="0"/>
<use xlink:href="#p0" content="3,おおはら歯科クリニック,広島県広島市佐伯区楽々園４-１-３０,歯科　矯正歯科　小児歯科　歯科口腔外科,,,9" xlink:title="おおはら歯科クリニック" transform="ref(svg,13235.2963,-3436.3867)" x="0" y="0"/>
<use xlink:href="#p0" content="3,はなみずき歯科医院,広島県広島市佐伯区千同１-１９-２６,歯科　矯正歯科　小児歯科　歯科口腔外科,,,9" xlink:title="はなみずき歯科医院" transform="ref(svg,13235.1777,-3437.8413)" x="0" y="0"/>
<use xlink:href="#p0" content="3,ハートフル歯科,広島県広島市佐伯区五日市５-１５-３,歯科　矯正歯科　小児歯科　歯科口腔外科,,,9" xlink:title="ハートフル歯科" transform="ref(svg,13235.8342,-3437.034)" x="0" y="0"/>
<use xlink:href="#p0" content="3,いたくら歯科医院,広島県広島市佐伯区三宅１-３-３０,歯科　小児歯科,,,9" xlink:title="いたくら歯科医院" transform="ref(svg,13235.0191,-3436.97)" x="0" y="0"/>
<use xlink:href="#p0" content="3,田部歯科医院,広島県廿日市市駅前８-２３,歯科,,,9" xlink:title="田部歯科医院" transform="ref(svg,13233.5111,-3435.6562)" x="0" y="0"/>
<use xlink:href="#p0" content="3,谷口歯科医院,広島県廿日市市廿日市２-５-５,歯科,,,9" xlink:title="谷口歯科医院" transform="ref(svg,13233.73,-3435.5378)" x="0" y="0"/>
<use xlink:href="#p0" content="3,栗栖歯科医院,広島県廿日市市大野１-３-１９,歯科　矯正歯科　小児歯科,,,9" xlink:title="栗栖歯科医院" transform="ref(svg,13227.5195,-3428.6849)" x="0" y="0"/>
<use xlink:href="#p0" content="3,真鍋歯科医院,広島県廿日市市城内１-１-３９,歯科,,,9" xlink:title="真鍋歯科医院" transform="ref(svg,13233.9906,-3436.1886)" x="0" y="0"/>
<use xlink:href="#p0" content="3,高野歯科医院,広島県廿日市市永原１２５４-１,歯科,,,9" xlink:title="高野歯科医院" transform="ref(svg,13223.0672,-3435.9529)" x="0" y="0"/>
<use xlink:href="#p0" content="3,江島歯科医院,広島県廿日市市友田６６０-１,歯科,,,9" xlink:title="江島歯科医院" transform="ref(svg,13221.7344,-3435.8094)" x="0" y="0"/>
<use xlink:href="#p0" content="3,藤本歯科医院,広島県廿日市市佐方４-７-１８,歯科,,,9" xlink:title="藤本歯科医院" transform="ref(svg,13234.2838,-3436.5375)" x="0" y="0"/>
<use xlink:href="#p0" content="3,阿品台歯科医院,広島県廿日市市阿品台４-１-１７,歯科　矯正歯科　小児歯科　歯科口腔外科,,,9" xlink:title="阿品台歯科医院" transform="ref(svg,13230.903,-3432.9224)" x="0" y="0"/>
<use xlink:href="#p0" content="3,安田歯科医院,広島県廿日市市阿品台３-１１-１７,歯科　矯正歯科　小児歯科,,,9" xlink:title="安田歯科医院" transform="ref(svg,13230.7045,-3432.5689)" x="0" y="0"/>
<use xlink:href="#p0" content="3,松原歯科医院,広島県廿日市市大野原２-４-２８,歯科,,,9" xlink:title="松原歯科医院" transform="ref(svg,13227.0859,-3428.997)" x="0" y="0"/>
<use xlink:href="#p0" content="3,三島歯科医院,広島県廿日市市廿日市２-２-１４,歯科,,,9" xlink:title="三島歯科医院" transform="ref(svg,13233.6794,-3435.6674)" x="0" y="0"/>
<use xlink:href="#p0" content="3,（医）つくも会藤岡歯科医院,広島県廿日市市地御前１-９-３０,歯科　矯正歯科　小児歯科,,,9" xlink:title="（医）つくも会藤岡歯科医院" transform="ref(svg,13232.2009,-3434.2015)" x="0" y="0"/>
<use xlink:href="#p0" content="3,あかぎ歯科医院,広島県廿日市市阿品台１-１２-３６,歯科　矯正歯科　小児歯科,,,9" xlink:title="あかぎ歯科医院" transform="ref(svg,13231.5744,-3433.1548)" x="0" y="0"/>
<use xlink:href="#p0" content="3,かいで歯科医院,広島県廿日市市桜尾本町７-５,歯科,,,9" xlink:title="かいで歯科医院" transform="ref(svg,13234.1761,-3435.6624)" x="0" y="0"/>
<use xlink:href="#p0" content="3,細川歯科医院,広島県廿日市市宮園２-２-２,歯科,,,9" xlink:title="細川歯科医院" transform="ref(svg,13230.6272,-3435.3148)" x="0" y="0"/>
<use xlink:href="#p0" content="3,宮島町歯科診療所,広島県廿日市市宮島町５７１,歯科,,,9" xlink:title="宮島町歯科診療所" transform="ref(svg,13232.2693,-3429.9833)" x="0" y="0"/>
<use xlink:href="#p0" content="3,ヒラノ歯科医院,広島県廿日市市串戸４-４-３,歯科,,,9" xlink:title="ヒラノ歯科医院" transform="ref(svg,13232.3427,-3435.0295)" x="0" y="0"/>
<use xlink:href="#p0" content="3,オレンジ歯科クリニック,広島県廿日市市大野原２-１０-１８,歯科　小児歯科　歯科口腔外科,,,9" xlink:title="オレンジ歯科クリニック" transform="ref(svg,13226.9379,-3428.9383)" x="0" y="0"/>
<use xlink:href="#p0" content="3,宮崎歯科,広島県廿日市市宮内４４４０-１,歯科,,,9" xlink:title="宮崎歯科" transform="ref(svg,13230.5306,-3434.4376)" x="0" y="0"/>
<use xlink:href="#p0" content="3,串戸歯科クリニック,広島県廿日市市串戸４-１３-１エコービル２Ｆ,歯科　矯正歯科　小児歯科　歯科口腔外科,,,9" xlink:title="串戸歯科クリニック" transform="ref(svg,13232.3023,-3434.7799)" x="0" y="0"/>
<use xlink:href="#p0" content="3,みずほ歯科クリニック,広島県廿日市市福面２-７-２３,歯科　矯正歯科,,,9" xlink:title="みずほ歯科クリニック" transform="ref(svg,13230.0709,-3432.0161)" x="0" y="0"/>
<use xlink:href="#p0" content="3,グリーン歯科,広島県廿日市市四季が丘６-１５,歯科　矯正歯科　小児歯科,,,9" xlink:title="グリーン歯科" transform="ref(svg,13229.4203,-3434.7202)" x="0" y="0"/>
<use xlink:href="#p0" content="3,渡辺歯科,広島県廿日市市宮内７８２-２,歯科,,,9" xlink:title="渡辺歯科" transform="ref(svg,13231.6681,-3434.9198)" x="0" y="0"/>
<use xlink:href="#p0" content="3,安藤歯科医院,広島県廿日市市対厳山２-１４-１２,歯科　矯正歯科　小児歯科,,,9" xlink:title="安藤歯科医院" transform="ref(svg,13229.5522,-3431.4132)" x="0" y="0"/>
<use xlink:href="#p0" content="3,シミズ歯科・矯正歯科医院,広島県廿日市市串戸３-２１-２,歯科　矯正歯科　小児歯科　歯科口腔外科,,,9" xlink:title="シミズ歯科・矯正歯科医院" transform="ref(svg,13232.4527,-3434.7258)" x="0" y="0"/>
<use xlink:href="#p0" content="3,西野歯科医院,広島県廿日市市廿日市１-８-１８,歯科　歯科口腔外科,,,9" xlink:title="西野歯科医院" transform="ref(svg,13233.5719,-3435.3696)" x="0" y="0"/>
<use xlink:href="#p0" content="3,とだ歯科医院,広島県廿日市市大野高畑１２３５-９,歯科　矯正歯科　小児歯科,,,9" xlink:title="とだ歯科医院" transform="ref(svg,13227.8521,-3429.9935)" x="0" y="0"/>
<use xlink:href="#p0" content="3,広沢歯科医院,広島県廿日市市佐方４-３-３０,歯科　小児歯科,,,9" xlink:title="広沢歯科医院" transform="ref(svg,13234.4381,-3436.6232)" x="0" y="0"/>
<use xlink:href="#p0" content="3,みやうち歯科医院,広島県廿日市市宮内１０５７-１,歯科　矯正歯科　小児歯科　歯科口腔外科,,,9" xlink:title="みやうち歯科医院" transform="ref(svg,13230.9838,-3434.8054)" x="0" y="0"/>
<use xlink:href="#p0" content="3,（医）安芸歯科クリニック,広島県廿日市市大野３３００-１６,歯科,,,9" xlink:title="（医）安芸歯科クリニック" transform="ref(svg,13228.9863,-3430.5442)" x="0" y="0"/>
<use xlink:href="#p0" content="3,中川歯科医院,広島県廿日市市塩屋２-４-５,歯科,,,9" xlink:title="中川歯科医院" transform="ref(svg,13226.371,-3428.3473)" x="0" y="0"/>
<use xlink:href="#p0" content="3,かやだ歯科医院,広島県廿日市市上平良１２２-１,歯科　矯正歯科　小児歯科　歯科口腔外科,,,9" xlink:title="かやだ歯科医院" transform="ref(svg,13232.0435,-3435.5365)" x="0" y="0"/>
<use xlink:href="#p0" content="3,ナタリーデンタルクリニック,広島県廿日市市阿品３-１-１,歯科　矯正歯科　小児歯科　歯科口腔外科,,,9" xlink:title="ナタリーデンタルクリニック" transform="ref(svg,13231.6265,-3432.1911)" x="0" y="0"/>
<use xlink:href="#p0" content="3,栗栖歯科クリニック,広島県廿日市市宮内北山１０９７-２,歯科　矯正歯科　小児歯科,,,9" xlink:title="栗栖歯科クリニック" transform="ref(svg,13231.3449,-3434.8604)" x="0" y="0"/>
<use xlink:href="#p0" content="3,村上歯科医院,広島県廿日市市前空５-２-５,歯科　矯正歯科　小児歯科　歯科口腔外科,,,9" xlink:title="村上歯科医院" transform="ref(svg,13228.8678,-3430.1082)" x="0" y="0"/>
<use xlink:href="#p0" content="3,（医）奥井歯科医院,広島県廿日市市串戸２-１６-２,歯科　矯正歯科　小児歯科　歯科口腔外科,,,9" xlink:title="（医）奥井歯科医院" transform="ref(svg,13232.7051,-3434.6874)" x="0" y="0"/>
<use xlink:href="#p0" content="3,やまだ歯科,広島県廿日市市梅原２-１-２３プラティーク川島１階,歯科　小児歯科,,,9" xlink:title="やまだ歯科" transform="ref(svg,13227.0296,-3428.5911)" x="0" y="0"/>
<use xlink:href="#p0" content="3,そだ歯科,広島県廿日市市下平良１-３-１,歯科　小児歯科　歯科口腔外科,,,9" xlink:title="そだ歯科" transform="ref(svg,13233.2363,-3435.0303)" x="0" y="0"/>
<use xlink:href="#p0" content="3,まさき歯科クリニック,広島県廿日市市宮内４-１０-１０　１階,歯科　矯正歯科　小児歯科　歯科口腔外科,,,9" xlink:title="まさき歯科クリニック" transform="ref(svg,13231.2326,-3434.88)" x="0" y="0"/>
<use xlink:href="#p0" content="3,地御前歯科クリニック,広島県廿日市市地御前１-４-２１,歯科　矯正歯科　小児歯科　歯科口腔外科,,,9" xlink:title="地御前歯科クリニック" transform="ref(svg,13232.072,-3434.1393)" x="0" y="0"/>
<use xlink:href="#p0" content="3,ナタリー歯科スマイル,広島県廿日市市阿品３-１-１,歯科　矯正歯科　小児歯科　歯科口腔外科,,,9" xlink:title="ナタリー歯科スマイル" transform="ref(svg,13231.6265,-3432.1911)" x="0" y="0"/>
<use xlink:href="#p0" content="3,ふじた歯科,広島県廿日市市宮内４４８１-２ソレーユ宮内１階,歯科　矯正歯科　小児歯科　歯科口腔外科,,,9" xlink:title="ふじた歯科" transform="ref(svg,13230.6073,-3434.5424)" x="0" y="0"/>
<use xlink:href="#p0" content="3,オリーブデンタルクリニック,広島県廿日市市沖塩屋４-４-５１,歯科　小児歯科,,,9" xlink:title="オリーブデンタルクリニック" transform="ref(svg,13226.9587,-3428.1115)" x="0" y="0"/>
<use xlink:href="#p0" content="3,ヴィラ歯科,広島県廿日市市阿品４-５１-２６,歯科　歯科口腔外科,,,9" xlink:title="ヴィラ歯科" transform="ref(svg,13231.0363,-3431.9347)" x="0" y="0"/>
<use xlink:href="#p0" content="3,いわい歯科クリニック,広島県廿日市市上平良１３０７-２,歯科　矯正歯科　小児歯科　歯科口腔外科,,,9" xlink:title="いわい歯科クリニック" transform="ref(svg,13231.7193,-3435.6464)" x="0" y="0"/>
<use xlink:href="#p0" content="3,橋田歯科医院,広島県廿日市市新宮１-２-２６,歯科　矯正歯科　小児歯科　歯科口腔外科,,,9" xlink:title="橋田歯科医院" transform="ref(svg,13233.0079,-3435.1982)" x="0" y="0"/>
<use xlink:href="#p0" content="3,桜尾歯科医院,広島県廿日市市桜尾３-１-１５,歯科　小児歯科,,,9" xlink:title="桜尾歯科医院" transform="ref(svg,13234.4321,-3435.8136)" x="0" y="0"/>
<use xlink:href="#p0" content="3,阿品ファミリー歯科,広島県廿日市市阿品４-４８-１７,歯科　矯正歯科　小児歯科,,,9" xlink:title="阿品ファミリー歯科" transform="ref(svg,13231.271,-3432.1705)" x="0" y="0"/>
<use xlink:href="#p0" content="3,チャイルド歯科おとな・こども,広島県廿日市市新宮１-１０-４３,歯科　小児歯科,,,9" xlink:title="チャイルド歯科おとな・こども" transform="ref(svg,13232.9833,-3435.1175)" x="0" y="0"/>
<use xlink:href="#p0" content="3,山中歯科クリニック,広島県廿日市市須賀３-３１,歯科,,,9" xlink:title="山中歯科クリニック" transform="ref(svg,13233.3516,-3435.4238)" x="0" y="0"/>
<use xlink:href="#p0" content="3,二神歯科医院,広島県廿日市市対厳山１-８-３４,歯科,,,9" xlink:title="二神歯科医院" transform="ref(svg,13229.457,-3431.2647)" x="0" y="0"/>
<use xlink:href="#p0" content="3,スマイル・デンタル・クリニック,広島県廿日市市宮島口西２-７-１６,歯科　小児歯科　歯科口腔外科,,,9" xlink:title="スマイル・デンタル・クリニック" transform="ref(svg,13230.0273,-3430.9928)" x="0" y="0"/>
</g>
</svg>
