<?xml version="1.0" encoding="UTF-8"?>
<svg  xmlns="http://www.w3.org/2000/svg" xmlns:xlink="http://www.w3.org/1999/xlink" xmlns:go="http://purl.org/svgmap/profile" property="医療機関分類,施設名称,所在地,診療科目１,診療科目２,診療科目３,開設者分類" viewBox="13218.75 -3427.734375 17.578125 17.578125" go:dataArea="13218.75 -3427.734375 17.578125 17.578125" >
<metadata>
 <rdf:RDF xmlns:rdf="http://www.w3.org/1999/02/22-rdf-syntax-ns#" xmlns:crs="http://opengis.org/xmldtds/transformations.dtd" xmlns:svg="http://www.w3.org/svg" >
  <rdf:Description>
   <crs:CoordinateReferenceSystem rdf:resource="http://purl.org/crs/84" svg:transform="matrix(100.0,0.0,0.0,-100.0,0.0,0.0)" />
  </rdf:Description>
 </rdf:RDF>
</metadata>
<globalCoordinateSystem srsName="http://purl.org/crs/84" transform="matrix(100.0,0.0,0.0,-100.0,0.0,0.0)" />
<defs>
 <g id="p0" >
  <image xlink:href="mappin.png" preserveAspectRatio="none" x="-8" y="-25" width="19" height="27"/>
 </g>
 <g id="p1" >
  <image xlink:href="mappin1.png" preserveAspectRatio="none" x="-8" y="-25" width="19" height="27"/>
 </g>
 <g id="p2" >
  <image xlink:href="mappin2.png" preserveAspectRatio="none" x="-8" y="-25" width="19" height="27"/>
 </g>
 <g id="p3" >
  <image xlink:href="mappin3.png" preserveAspectRatio="none" x="-8" y="-25" width="19" height="27"/>
 </g>
 <g id="p4" >
  <image xlink:href="mappin4.png" preserveAspectRatio="none" x="-8" y="-25" width="19" height="27"/>
 </g>
 <g id="p5" >
  <image xlink:href="mappin5.png" preserveAspectRatio="none" x="-8" y="-25" width="19" height="27"/>
 </g>
 <g id="p6" >
  <image xlink:href="mappin6.png" preserveAspectRatio="none" x="-8" y="-25" width="19" height="27"/>
 </g>
 <g id="p7" >
  <image xlink:href="mappin7.png" preserveAspectRatio="none" x="-8" y="-25" width="19" height="27"/>
 </g>
 <g id="p8" >
  <image xlink:href="mappin8.png" preserveAspectRatio="none" x="-8" y="-25" width="19" height="27"/>
 </g>
 <g id="p9" >
  <image xlink:href="mappin9.png" preserveAspectRatio="none" x="-8" y="-25" width="19" height="27"/>
 </g>
</defs>
<g fill="green" fill-rule="evenodd" >
<use xlink:href="#p0" content="3,伊東歯科医院,広島県大竹市新町１-１２-１３,歯科,,,9" xlink:title="伊東歯科医院" transform="ref(svg,13222.2783,-3421.5046)" x="0" y="0"/>
<use xlink:href="#p0" content="3,神波歯科医院,広島県大竹市新町１-１１-１７,歯科　矯正歯科　小児歯科,,,9" xlink:title="神波歯科医院" transform="ref(svg,13222.0904,-3421.422)" x="0" y="0"/>
<use xlink:href="#p0" content="3,藤井歯科医院,広島県大竹市油見３-４-３,歯科,,,9" xlink:title="藤井歯科医院" transform="ref(svg,13222.0766,-3421.7415)" x="0" y="0"/>
<use xlink:href="#p0" content="3,沖本歯科医院,広島県大竹市本町２-１０-１０,歯科,,,9" xlink:title="沖本歯科医院" transform="ref(svg,13221.6325,-3420.8185)" x="0" y="0"/>
<use xlink:href="#p0" content="3,荒田歯科クリニック,広島県大竹市西栄１-８-１９,歯科,,,9" xlink:title="荒田歯科クリニック" transform="ref(svg,13222.4926,-3421.7287)" x="0" y="0"/>
<use xlink:href="#p0" content="3,谷口歯科クリニック,広島県大竹市小方町１-１３-３２,歯科,,,9" xlink:title="谷口歯科クリニック" transform="ref(svg,13222.2675,-3423.8502)" x="0" y="0"/>
<use xlink:href="#p0" content="3,（医）角田歯科医院,広島県大竹市本町２-９-９,歯科　矯正歯科　小児歯科,,,9" xlink:title="（医）角田歯科医院" transform="ref(svg,13221.6336,-3420.7654)" x="0" y="0"/>
<use xlink:href="#p0" content="3,長岡歯科医院,広島県大竹市黒川１-８-２７,歯科,,,9" xlink:title="長岡歯科医院" transform="ref(svg,13222.3518,-3424.7)" x="0" y="0"/>
<use xlink:href="#p0" content="3,みどり橋歯科医院,広島県大竹市立戸１-３-１０,歯科,,,9" xlink:title="みどり橋歯科医院" transform="ref(svg,13222.0668,-3422.3548)" x="0" y="0"/>
<use xlink:href="#p0" content="3,広中歯科医院,広島県大竹市新町１-２-１１,歯科　矯正歯科　小児歯科　歯科口腔外科,,,9" xlink:title="広中歯科医院" transform="ref(svg,13222.234,-3421.8159)" x="0" y="0"/>
<use xlink:href="#p0" content="3,きらら歯科医院,広島県大竹市西栄３-１７-７,歯科,,,9" xlink:title="きらら歯科医院" transform="ref(svg,13222.6539,-3421.4414)" x="0" y="0"/>
<use xlink:href="#p0" content="3,川口歯科医院,広島県大竹市玖波１-５-２,歯科　矯正歯科　小児歯科,,,9" xlink:title="川口歯科医院" transform="ref(svg,13222.8014,-3425.3943)" x="0" y="0"/>
<use xlink:href="#p0" content="3,これなが歯科医院,広島県大竹市晴海１-６-１０晴海プラザ２Ｆ,歯科,,,9" xlink:title="これなが歯科医院" transform="ref(svg,13222.3312,-3424.1956)" x="0" y="0"/>
<use xlink:href="#p0" content="3,安東歯科医院,山口県岩国市麻里布町６-４-９,歯科,,,9" xlink:title="安東歯科医院" transform="ref(svg,13222.0519,-3416.9465)" x="0" y="0"/>
<use xlink:href="#p0" content="3,安東第二歯科医院,山口県岩国市麻里布町７-２-３,歯科,,,9" xlink:title="安東第二歯科医院" transform="ref(svg,13221.8788,-3417.1924)" x="0" y="0"/>
<use xlink:href="#p0" content="3,相川歯科診療所,山口県岩国市平田６-２４-１２,歯科　小児歯科,,,9" xlink:title="相川歯科診療所" transform="ref(svg,13218.9792,-3413.9592)" x="0" y="0"/>
<use xlink:href="#p0" content="3,あかざき歯科医院,山口県岩国市藤生町１-２７-２０,歯科　小児歯科,,,9" xlink:title="あかざき歯科医院" transform="ref(svg,13219.9865,-3411.3428)" x="0" y="0"/>
<use xlink:href="#p0" content="3,岩崎歯科医院,山口県岩国市麻里布町１-５-２８,歯科,,,9" xlink:title="岩崎歯科医院" transform="ref(svg,13222.4704,-3417.3839)" x="0" y="0"/>
<use xlink:href="#p0" content="3,岩国矯正歯科クリニック,山口県岩国市麻里布町２-２-１８ベルデビル４Ｆ,矯正歯科,,,9" xlink:title="岩国矯正歯科クリニック" transform="ref(svg,13222.3825,-3417.1917)" x="0" y="0"/>
<use xlink:href="#p0" content="3,今津歯科,山口県岩国市今津町３-１２-１０,歯科,,,9" xlink:title="今津歯科" transform="ref(svg,13221.7344,-3416.3505)" x="0" y="0"/>
<use xlink:href="#p0" content="3,いずみ歯科医院,山口県岩国市車町１-９-３９,歯科,,,9" xlink:title="いずみ歯科医院" transform="ref(svg,13221.6977,-3415.7811)" x="0" y="0"/>
<use xlink:href="#p0" content="3,恩田歯科診療所,山口県岩国市麻里布町１-４-４,歯科,,,9" xlink:title="恩田歯科診療所" transform="ref(svg,13222.4348,-3417.2794)" x="0" y="0"/>
<use xlink:href="#p0" content="3,岡崎歯科医院,山口県岩国市今津町１-１６-３,歯科　矯正歯科　小児歯科,,,9" xlink:title="岡崎歯科医院" transform="ref(svg,13221.9359,-3416.5981)" x="0" y="0"/>
<use xlink:href="#p0" content="3,かぎとみ歯科,山口県岩国市三笠町１-３-１３,歯科　小児歯科,,,9" xlink:title="かぎとみ歯科" transform="ref(svg,13222.5949,-3416.6592)" x="0" y="0"/>
<use xlink:href="#p0" content="3,久代歯科医院,山口県岩国市今津町２-１３-１,歯科,,,9" xlink:title="久代歯科医院" transform="ref(svg,13222.0926,-3416.5262)" x="0" y="0"/>
<use xlink:href="#p0" content="3,香坂歯科医院,山口県岩国市南岩国町３-２４-１９,歯科　矯正歯科　小児歯科,,,9" xlink:title="香坂歯科医院" transform="ref(svg,13219.8283,-3413.0602)" x="0" y="0"/>
<use xlink:href="#p0" content="3,こまい歯科,山口県岩国市麻里布町３-５-１８,歯科　矯正歯科　小児歯科　歯科口腔外科,,,9" xlink:title="こまい歯科" transform="ref(svg,13222.1956,-3416.98)" x="0" y="0"/>
<use xlink:href="#p0" content="3,さきもと歯科クリニック,山口県岩国市山手町１-２-１６,歯科　歯科口腔外科　小児歯科,,,9" xlink:title="さきもと歯科クリニック" transform="ref(svg,13221.5373,-3417.0953)" x="0" y="0"/>
<use xlink:href="#p0" content="3,ささお歯科クリニック,山口県岩国市中津町１-２３-１８,小児歯科　歯科　歯科口腔外科,,,9" xlink:title="ささお歯科クリニック" transform="ref(svg,13221.5684,-3415.4949)" x="0" y="0"/>
<use xlink:href="#p0" content="3,小児歯科愛宕,山口県岩国市門前町３-１２-３５モンゼン９３　２階,小児歯科　歯科,,,9" xlink:title="小児歯科愛宕" transform="ref(svg,13221.559,-3414.7832)" x="0" y="0"/>
<use xlink:href="#p0" content="3,玉田歯科医院,山口県岩国市南岩国町１-２２-２８,歯科,,,9" xlink:title="玉田歯科医院" transform="ref(svg,13220.3251,-3413.2604)" x="0" y="0"/>
<use xlink:href="#p0" content="3,長谷歯科医院,山口県岩国市元町２-９-１１,歯科,,,9" xlink:title="長谷歯科医院" transform="ref(svg,13222.8744,-3416.9376)" x="0" y="0"/>
<use xlink:href="#p0" content="3,ながはま歯科クリニック,山口県岩国市尾津町２-１８-３,歯科　矯正歯科　小児歯科　歯科口腔外科,,,9" xlink:title="ながはま歯科クリニック" transform="ref(svg,13220.7588,-3413.8834)" x="0" y="0"/>
<use xlink:href="#p0" content="3,ノリスエ歯科医院,山口県岩国市今津町３-１-３５,歯科　小児歯科　矯正歯科,,,9" xlink:title="ノリスエ歯科医院" transform="ref(svg,13221.7532,-3416.5004)" x="0" y="0"/>
<use xlink:href="#p0" content="3,早野歯科医院,山口県岩国市麻里布町３-４-１０,歯科　歯科口腔外科　小児歯科,,,9" xlink:title="早野歯科医院" transform="ref(svg,13222.2504,-3417.0589)" x="0" y="0"/>
<use xlink:href="#p0" content="3,広上歯科医院,山口県岩国市今津町３-１７-４,歯科,,,9" xlink:title="広上歯科医院" transform="ref(svg,13221.6022,-3416.2735)" x="0" y="0"/>
<use xlink:href="#p0" content="3,ひろかね歯科医院,山口県岩国市元町３-１０-１６,歯科　小児歯科　歯科口腔外科,,,9" xlink:title="ひろかね歯科医院" transform="ref(svg,13223.0518,-3416.9604)" x="0" y="0"/>
<use xlink:href="#p0" content="3,ひろち歯科クリニック,山口県岩国市車町２-１６-４８,歯科,,,9" xlink:title="ひろち歯科クリニック" transform="ref(svg,13222.1399,-3415.7675)" x="0" y="0"/>
<use xlink:href="#p0" content="3,ひろなか歯科医院,山口県岩国市南岩国町３-３１-２５,歯科,,,9" xlink:title="ひろなか歯科医院" transform="ref(svg,13219.7055,-3413.3947)" x="0" y="0"/>
<use xlink:href="#p0" content="3,藤生歯科センター,山口県岩国市黒磯町１-１-２２,歯科,,,9" xlink:title="藤生歯科センター" transform="ref(svg,13219.9874,-3410.8245)" x="0" y="0"/>
<use xlink:href="#p0" content="3,ふじおか歯科,山口県岩国市山手町１-２４-１２,歯科　小児歯科　矯正歯科　歯科口腔外科,,,9" xlink:title="ふじおか歯科" transform="ref(svg,13221.3687,-3416.8621)" x="0" y="0"/>
<use xlink:href="#p0" content="3,ホワイト歯科クリニック,山口県岩国市今津町４-１２-１９,歯科　歯科口腔外科　小児歯科,,,9" xlink:title="ホワイト歯科クリニック" transform="ref(svg,13221.3883,-3416.5018)" x="0" y="0"/>
<use xlink:href="#p0" content="3,松井歯科医院,山口県岩国市麻里布町３-２０-１,歯科,,,9" xlink:title="松井歯科医院" transform="ref(svg,13222.0273,-3417.194)" x="0" y="0"/>
<use xlink:href="#p0" content="3,松浦歯科,山口県岩国市昭和町２-５-１４,歯科　矯正歯科　小児歯科,,,9" xlink:title="松浦歯科" transform="ref(svg,13222.8941,-3417.3596)" x="0" y="0"/>
<use xlink:href="#p0" content="3,（医）松原クリニック歯科,山口県岩国市平田５-４２-１７,歯科　小児歯科,,,9" xlink:title="（医）松原クリニック歯科" transform="ref(svg,13219.1516,-3413.9346)" x="0" y="0"/>
<use xlink:href="#p0" content="3,三吉歯科,山口県岩国市今津町１-６-１７,歯科　小児歯科,,,9" xlink:title="三吉歯科" transform="ref(svg,13222.153,-3416.7166)" x="0" y="0"/>
<use xlink:href="#p0" content="3,みちよ歯科医院,山口県岩国市立石町２-２-３６ＢＳビル１Ｆ,小児歯科　歯科　歯科口腔外科,,,9" xlink:title="みちよ歯科医院" transform="ref(svg,13222.6463,-3417.6668)" x="0" y="0"/>
<use xlink:href="#p0" content="3,むねまさ歯科クリニック,山口県岩国市錦見４-１７-２,歯科　小児歯科　歯科口腔外科,,,9" xlink:title="むねまさ歯科クリニック" transform="ref(svg,13218.8574,-3416.5513)" x="0" y="0"/>
<use xlink:href="#p0" content="3,もうこ歯科医院,山口県岩国市中津町２-１３-８,歯科　小児歯科,,,9" xlink:title="もうこ歯科医院" transform="ref(svg,13221.7648,-3415.5219)" x="0" y="0"/>
<use xlink:href="#p0" content="3,もりわき歯科クリニック,山口県岩国市山手町１-１６-１１,歯科　小児歯科　歯科口腔外科,,,9" xlink:title="もりわき歯科クリニック" transform="ref(svg,13221.7515,-3416.6814)" x="0" y="0"/>
<use xlink:href="#p0" content="3,門前町デンタルクリニック,山口県岩国市門前町３-２２-１６,歯科,,,9" xlink:title="門前町デンタルクリニック" transform="ref(svg,13221.2676,-3414.4927)" x="0" y="0"/>
<use xlink:href="#p0" content="3,安田歯科,山口県岩国市車町２-７-２６,歯科　小児歯科,,,9" xlink:title="安田歯科" transform="ref(svg,13221.8662,-3415.5435)" x="0" y="0"/>
<use xlink:href="#p0" content="3,安田歯科医院,山口県岩国市錦見６-１３-１１,歯科,,,9" xlink:title="安田歯科医院" transform="ref(svg,13219.4048,-3416.4779)" x="0" y="0"/>
<use xlink:href="#p0" content="3,山元歯科医院,山口県岩国市山手町１-９-１８スオミハイツ１Ｆ,歯科　小児歯科,,,9" xlink:title="山元歯科医院" transform="ref(svg,13221.7526,-3416.9243)" x="0" y="0"/>
<use xlink:href="#p0" content="3,吉村歯科医院,山口県岩国市今津町１-１０-２２,歯科,,,9" xlink:title="吉村歯科医院" transform="ref(svg,13222.0662,-3416.7321)" x="0" y="0"/>
<use xlink:href="#p0" content="3,吉田歯科医院錦見,山口県岩国市錦見８-１４-２６,歯科,,,9" xlink:title="吉田歯科医院錦見" transform="ref(svg,13220.0479,-3416.2727)" x="0" y="0"/>
<use xlink:href="#p0" content="3,ヨネダ歯科クリニック,山口県岩国市三笠町２-１-２１,歯科,,,9" xlink:title="ヨネダ歯科クリニック" transform="ref(svg,13222.7986,-3416.885)" x="0" y="0"/>
<use xlink:href="#p0" content="3,杜本歯科医院,山口県玖珂郡和木町和木４-１４-９,歯科,,,9" xlink:title="杜本歯科医院" transform="ref(svg,13222.9755,-3420.4109)" x="0" y="0"/>
<use xlink:href="#p0" content="3,大和橋歯科,山口県玖珂郡和木町和木１-１４-１０,歯科　矯正歯科　小児歯科　歯科口腔外科,,,9" xlink:title="大和橋歯科" transform="ref(svg,13221.8698,-3420.6399)" x="0" y="0"/>
<use xlink:href="#p0" content="3,悠デンタルクリニック,山口県玖珂郡和木町和木２-３-１９,歯科,,,9" xlink:title="悠デンタルクリニック" transform="ref(svg,13222.303,-3420.3239)" x="0" y="0"/>
</g>
</svg>
