<?xml version="1.0" encoding="UTF-8"?>
<svg  xmlns="http://www.w3.org/2000/svg" xmlns:xlink="http://www.w3.org/1999/xlink" xmlns:go="http://purl.org/svgmap/profile" property="医療機関分類,施設名称,所在地,診療科目１,診療科目２,診療科目３,開設者分類" viewBox="14203.125 -4359.375 140.625 140.625" go:dataArea="14203.125 -4359.375 140.625 140.625" >
<metadata>
 <rdf:RDF xmlns:rdf="http://www.w3.org/1999/02/22-rdf-syntax-ns#" xmlns:crs="http://opengis.org/xmldtds/transformations.dtd" xmlns:svg="http://www.w3.org/svg" >
  <rdf:Description>
   <crs:CoordinateReferenceSystem rdf:resource="http://purl.org/crs/84" svg:transform="matrix(100.0,0.0,0.0,-100.0,0.0,0.0)" />
  </rdf:Description>
 </rdf:RDF>
</metadata>
<globalCoordinateSystem srsName="http://purl.org/crs/84" transform="matrix(100.0,0.0,0.0,-100.0,0.0,0.0)" />
<defs>
 <g id="p0" >
  <image xlink:href="mappin.png" preserveAspectRatio="none" x="-8" y="-25" width="19" height="27"/>
 </g>
 <g id="p1" >
  <image xlink:href="mappin1.png" preserveAspectRatio="none" x="-8" y="-25" width="19" height="27"/>
 </g>
 <g id="p2" >
  <image xlink:href="mappin2.png" preserveAspectRatio="none" x="-8" y="-25" width="19" height="27"/>
 </g>
 <g id="p3" >
  <image xlink:href="mappin3.png" preserveAspectRatio="none" x="-8" y="-25" width="19" height="27"/>
 </g>
 <g id="p4" >
  <image xlink:href="mappin4.png" preserveAspectRatio="none" x="-8" y="-25" width="19" height="27"/>
 </g>
 <g id="p5" >
  <image xlink:href="mappin5.png" preserveAspectRatio="none" x="-8" y="-25" width="19" height="27"/>
 </g>
 <g id="p6" >
  <image xlink:href="mappin6.png" preserveAspectRatio="none" x="-8" y="-25" width="19" height="27"/>
 </g>
 <g id="p7" >
  <image xlink:href="mappin7.png" preserveAspectRatio="none" x="-8" y="-25" width="19" height="27"/>
 </g>
 <g id="p8" >
  <image xlink:href="mappin8.png" preserveAspectRatio="none" x="-8" y="-25" width="19" height="27"/>
 </g>
 <g id="p9" >
  <image xlink:href="mappin9.png" preserveAspectRatio="none" x="-8" y="-25" width="19" height="27"/>
 </g>
</defs>
<g fill="green" fill-rule="evenodd" >
<use xlink:href="#p0" content="3,（医）おおさき歯科,北海道芦別市北１条東１-７-１７,歯科,,,9" xlink:title="（医）おおさき歯科" transform="ref(svg,14218.7203,-4351.8057)" x="0" y="0"/>
<use xlink:href="#p0" content="3,（医）田中歯科医院,北海道芦別市北４条西１-１-１６,歯科,,,9" xlink:title="（医）田中歯科医院" transform="ref(svg,14218.5248,-4352.4813)" x="0" y="0"/>
<use xlink:href="#p0" content="3,（医）土山歯科医院,北海道芦別市北１条東１-２-３,歯科,,,9" xlink:title="（医）土山歯科医院" transform="ref(svg,14218.8539,-4351.6964)" x="0" y="0"/>
<use xlink:href="#p0" content="3,（医）はぎわら歯科クリニック,北海道芦別市北７条西２-８,歯科　小児歯科　矯正歯科,,,9" xlink:title="（医）はぎわら歯科クリニック" transform="ref(svg,14217.7809,-4353.1441)" x="0" y="0"/>
<use xlink:href="#p0" content="3,（医）啓佑会いち花歯科クリニック,北海道芦別市本町２８-１８,歯科　小児歯科　歯科口腔外科,,,9" xlink:title="（医）啓佑会いち花歯科クリニック" transform="ref(svg,14219.608,-4351.6872)" x="0" y="0"/>
<use xlink:href="#p0" content="3,（医）宏友会たまの歯科医院,北海道芦別市上芦別町５０-６１,歯科　小児歯科,,,9" xlink:title="（医）宏友会たまの歯科医院" transform="ref(svg,14220.3949,-4349.8434)" x="0" y="0"/>
<use xlink:href="#p0" content="3,小西歯科医院,北海道芦別市北２条西１-６-５,歯科,,,9" xlink:title="小西歯科医院" transform="ref(svg,14218.5755,-4352.122)" x="0" y="0"/>
<use xlink:href="#p0" content="3,よりもと歯科医院,北海道芦別市北４条西３-７-８,歯科,,,9" xlink:title="よりもと歯科医院" transform="ref(svg,14217.8223,-4352.5971)" x="0" y="0"/>
<use xlink:href="#p0" content="3,あむデンタルクリニック歯科口腔外科,北海道芦別市北４条東１-９-５,歯科　小児歯科　矯正歯科　歯科口腔外科,,,9" xlink:title="あむデンタルクリニック歯科口腔外科" transform="ref(svg,14218.564,-4352.6599)" x="0" y="0"/>
<use xlink:href="#p0" content="3,（医）長谷川第一歯科,北海道赤平市東大町２-２-３,歯科,,,9" xlink:title="（医）長谷川第一歯科" transform="ref(svg,14205.8431,-4355.0045)" x="0" y="0"/>
<use xlink:href="#p0" content="3,赤平ファミリー歯科クリニック,北海道赤平市東文京町３-１-２,歯科　小児歯科　矯正歯科,,,9" xlink:title="赤平ファミリー歯科クリニック" transform="ref(svg,14204.282,-4356.3765)" x="0" y="0"/>
<use xlink:href="#p0" content="3,（医）昭和会こうやま歯科,北海道赤平市錦町１-３,歯科　小児歯科,,,9" xlink:title="（医）昭和会こうやま歯科" transform="ref(svg,14204.9372,-4355.6442)" x="0" y="0"/>
<use xlink:href="#p0" content="3,長谷川歯科医院,北海道赤平市大町１-３,歯科　矯正歯科,,,9" xlink:title="長谷川歯科医院" transform="ref(svg,14205.4294,-4355.246)" x="0" y="0"/>
<use xlink:href="#p0" content="3,（医）三春会もじり歯科クリニック,北海道赤平市茂尻本町３-２,歯科,,,9" xlink:title="（医）三春会もじり歯科クリニック" transform="ref(svg,14209.0735,-4353.8421)" x="0" y="0"/>
<use xlink:href="#p0" content="3,歌志内ホワイト歯科クリニック,北海道歌志内市本町１１１-１,歯科　小児歯科,,,9" xlink:title="歌志内ホワイト歯科クリニック" transform="ref(svg,14203.9344,-4352.2383)" x="0" y="0"/>
<use xlink:href="#p0" content="3,穂別歯科診療所,北海道勇払郡むかわ町穂別８１,歯科,,,9" xlink:title="穂別歯科診療所" transform="ref(svg,14213.8453,-4276.6984)" x="0" y="0"/>
<use xlink:href="#p0" content="3,（医）宇毛悟歯科医院,北海道浦河郡浦河町荻伏６９０-２,歯科　矯正歯科,,,9" xlink:title="（医）宇毛悟歯科医院" transform="ref(svg,14268.1638,-4219.7829)" x="0" y="0"/>
<use xlink:href="#p0" content="3,日高町立日高歯科診療所,北海道沙流郡日高町栄町東１-３０３-１５,歯科,,,9" xlink:title="日高町立日高歯科診療所" transform="ref(svg,14244.0452,-4287.8659)" x="0" y="0"/>
<use xlink:href="#p0" content="3,（医）ぬまた歯科,北海道沙流郡日高町富川北２-６-４,歯科,,,9" xlink:title="（医）ぬまた歯科" transform="ref(svg,14203.3809,-4252.0538)" x="0" y="0"/>
<use xlink:href="#p0" content="3,土井歯科医院,北海道沙流郡日高町富川北６-２-４２,歯科,,,9" xlink:title="土井歯科医院" transform="ref(svg,14203.7656,-4252.3107)" x="0" y="0"/>
<use xlink:href="#p0" content="3,門別歯科診療所,北海道沙流郡日高町門別本町２１０-２８,歯科　小児歯科　矯正歯科,,,9" xlink:title="門別歯科診療所" transform="ref(svg,14207.4886,-4247.9512)" x="0" y="0"/>
<use xlink:href="#p0" content="3,森歯科クリニック,北海道沙流郡日高町厚賀９９,歯科　小児歯科,,,9" xlink:title="森歯科クリニック" transform="ref(svg,14222.1616,-4242.6574)" x="0" y="0"/>
<use xlink:href="#p0" content="3,平取歯科診療所,北海道沙流郡平取町本町６７-１,歯科,,,9" xlink:title="平取歯科診療所" transform="ref(svg,14213.6277,-4258.8111)" x="0" y="0"/>
<use xlink:href="#p0" content="3,平取町振内歯科診療所,北海道沙流郡平取町振内２８-７,歯科　小児歯科　矯正歯科,,,9" xlink:title="平取町振内歯科診療所" transform="ref(svg,14230.1068,-4272.5438)" x="0" y="0"/>
<use xlink:href="#p0" content="3,平取町貫気別歯科診療所,北海道沙流郡平取町貫気別１２９-５,歯科　小児歯科　矯正歯科,,,9" xlink:title="平取町貫気別歯科診療所" transform="ref(svg,14226.1941,-4267.086)" x="0" y="0"/>
<use xlink:href="#p0" content="3,（医）桜和会みんなの歯科クリニック,北海道沙流郡平取町本町１８-３,歯科　小児歯科　矯正歯科　歯科口腔外科,,,9" xlink:title="（医）桜和会みんなの歯科クリニック" transform="ref(svg,14212.7001,-4258.4014)" x="0" y="0"/>
<use xlink:href="#p0" content="3,井上歯科医院,北海道新冠郡新冠町字中央町８-３,歯科　矯正歯科,,,9" xlink:title="井上歯科医院" transform="ref(svg,14231.0985,-4236.1638)" x="0" y="0"/>
<use xlink:href="#p0" content="3,新冠ファミリー歯科医院,北海道新冠郡新冠町字北星町５-８３,歯科　小児歯科,,,9" xlink:title="新冠ファミリー歯科医院" transform="ref(svg,14231.6218,-4236.2939)" x="0" y="0"/>
<use xlink:href="#p0" content="3,（医）敬仁会平野歯科医院,北海道日高郡新ひだか町静内ときわ町２-２-１６,歯科　小児歯科　矯正歯科,,,9" xlink:title="（医）敬仁会平野歯科医院" transform="ref(svg,14236.9924,-4234.4886)" x="0" y="0"/>
<use xlink:href="#p0" content="3,（医）山口歯科医院,北海道日高郡新ひだか町静内御幸町３-１-７２,歯科　小児歯科　矯正歯科　歯科口腔外科,,,9" xlink:title="（医）山口歯科医院" transform="ref(svg,14236.8607,-4233.9915)" x="0" y="0"/>
<use xlink:href="#p0" content="3,（医）純生会静内ファミリー歯科,北海道日高郡新ひだか町静内木場町１-１-６９,歯科　小児歯科　矯正歯科　歯科口腔外科,,,9" xlink:title="（医）純生会静内ファミリー歯科" transform="ref(svg,14235.7386,-4234.0361)" x="0" y="0"/>
<use xlink:href="#p0" content="3,谷本歯科医院,北海道日高郡新ひだか町静内吉野町１-２-６,歯科　矯正歯科,,,9" xlink:title="谷本歯科医院" transform="ref(svg,14236.6897,-4233.7179)" x="0" y="0"/>
<use xlink:href="#p0" content="3,鮫島歯科医院,北海道日高郡新ひだか町静内こうせい町１-９-１８,歯科,,,9" xlink:title="鮫島歯科医院" transform="ref(svg,14237.2904,-4234.5961)" x="0" y="0"/>
<use xlink:href="#p0" content="3,東静内歯科診療所,北海道日高郡新ひだか町東静内１０６,歯科,,,9" xlink:title="東静内歯科診療所" transform="ref(svg,14245.4424,-4229.7361)" x="0" y="0"/>
<use xlink:href="#p0" content="3,田中歯科医院,北海道日高郡新ひだか町静内緑町１-２-１３,歯科,,,9" xlink:title="田中歯科医院" transform="ref(svg,14237.2468,-4234.2841)" x="0" y="0"/>
<use xlink:href="#p0" content="3,中村歯科クリニック,北海道日高郡新ひだか町静内御幸町１-３-２,歯科,,,9" xlink:title="中村歯科クリニック" transform="ref(svg,14236.3533,-4233.954)" x="0" y="0"/>
<use xlink:href="#p0" content="3,波川歯科,北海道日高郡新ひだか町三石旭町２７５,歯科,,,9" xlink:title="波川歯科" transform="ref(svg,14256.6473,-4224.6558)" x="0" y="0"/>
<use xlink:href="#p0" content="3,ふなき歯科,北海道日高郡新ひだか町三石本町１０７-７,歯科　歯科口腔外科,,,9" xlink:title="ふなき歯科" transform="ref(svg,14255.9553,-4224.7637)" x="0" y="0"/>
<use xlink:href="#p0" content="3,アムール歯科医院,北海道日高郡新ひだか町静内山手町４-２-２,歯科,,,9" xlink:title="アムール歯科医院" transform="ref(svg,14235.7572,-4234.5639)" x="0" y="0"/>
<use xlink:href="#p0" content="3,笹嶋歯科医院,北海道日高郡新ひだか町静内吉野町２-３-２６,歯科,,,9" xlink:title="笹嶋歯科医院" transform="ref(svg,14236.7902,-4233.7526)" x="0" y="0"/>
<use xlink:href="#p0" content="3,小林歯科医院,北海道上川郡美瑛町本町４-４-５,歯科,,,9" xlink:title="小林歯科医院" transform="ref(svg,14246.7704,-4358.951)" x="0" y="0"/>
<use xlink:href="#p0" content="3,山崎歯科クリニック,北海道上川郡美瑛町中町１-４-１,歯科　小児歯科　歯科口腔外科,,,9" xlink:title="山崎歯科クリニック" transform="ref(svg,14246.4979,-4359.2163)" x="0" y="0"/>
<use xlink:href="#p0" content="3,丘のまち歯科クリニック,北海道上川郡美瑛町丸山１-２-２,歯科　小児歯科,,,9" xlink:title="丘のまち歯科クリニック" transform="ref(svg,14247.4008,-4358.5326)" x="0" y="0"/>
<use xlink:href="#p0" content="3,高畑歯科医院,北海道富良野市栄町１０-１０,歯科,,,9" xlink:title="高畑歯科医院" transform="ref(svg,14239.2967,-4334.181)" x="0" y="0"/>
<use xlink:href="#p0" content="3,（医）高橋歯科医院,北海道富良野市日の出町３-２,歯科,,,9" xlink:title="（医）高橋歯科医院" transform="ref(svg,14239.1522,-4334.5139)" x="0" y="0"/>
<use xlink:href="#p0" content="3,藤堂デンタルオフィス,北海道富良野市朝日町１-１１,歯科　小児歯科　歯科口腔外科　矯正歯科,,,9" xlink:title="藤堂デンタルオフィス" transform="ref(svg,14238.9824,-4334.6783)" x="0" y="0"/>
<use xlink:href="#p0" content="3,ふらの駅前歯科クリニック,北海道富良野市日の出町４-２３,歯科,,,9" xlink:title="ふらの駅前歯科クリニック" transform="ref(svg,14239.0819,-4334.5676)" x="0" y="0"/>
<use xlink:href="#p0" content="3,水口歯科医院,北海道富良野市日の出町９-３,歯科,,,9" xlink:title="水口歯科医院" transform="ref(svg,14239.0154,-4334.3869)" x="0" y="0"/>
<use xlink:href="#p0" content="3,宮田歯科医院,北海道富良野市本町６-２５,歯科,,,9" xlink:title="宮田歯科医院" transform="ref(svg,14238.4933,-4334.825)" x="0" y="0"/>
<use xlink:href="#p0" content="3,ごうだ歯科医院,北海道富良野市若葉町７-１,歯科,,,9" xlink:title="ごうだ歯科医院" transform="ref(svg,14239.2153,-4334.0365)" x="0" y="0"/>
<use xlink:href="#p0" content="3,（医）道修会森歯科診療所,北海道富良野市若葉町１３-１生活協同組合コープさっぽろ富良野店２Ｆ,歯科　小児歯科　矯正歯科,,,9" xlink:title="（医）道修会森歯科診療所" transform="ref(svg,14239.2804,-4333.8279)" x="0" y="0"/>
<use xlink:href="#p0" content="3,くりの歯科クリニック,北海道富良野市瑞穂町３-３７,歯科　小児歯科,,,9" xlink:title="くりの歯科クリニック" transform="ref(svg,14239.808,-4334.5377)" x="0" y="0"/>
<use xlink:href="#p0" content="3,ふらの小児歯科矯正歯科,北海道富良野市日の出町８-１０,歯科　小児歯科　矯正歯科,,,9" xlink:title="ふらの小児歯科矯正歯科" transform="ref(svg,14239.0963,-4334.4334)" x="0" y="0"/>
<use xlink:href="#p0" content="3,山部歯科クリニック,北海道富良野市字山部東２０線１３,歯科,,,9" xlink:title="山部歯科クリニック" transform="ref(svg,14238.2678,-4324.0801)" x="0" y="0"/>
<use xlink:href="#p0" content="3,とがし歯科医院,北海道富良野市錦町６-１８,歯科　小児歯科　歯科口腔外科,,,9" xlink:title="とがし歯科医院" transform="ref(svg,14239.2249,-4335.0192)" x="0" y="0"/>
<use xlink:href="#p0" content="3,本通り歯科医院,北海道富良野市本町８-２８,歯科,,,9" xlink:title="本通り歯科医院" transform="ref(svg,14238.7045,-4334.6018)" x="0" y="0"/>
<use xlink:href="#p0" content="3,（医）山崎歯科山崎歯科医院,北海道空知郡上富良野町錦町３-４-２０,歯科,,,9" xlink:title="（医）山崎歯科山崎歯科医院" transform="ref(svg,14246.5825,-4346.1303)" x="0" y="0"/>
<use xlink:href="#p0" content="3,大町歯科クリニック,北海道空知郡上富良野町大町４-９６６-４３,歯科,,,9" xlink:title="大町歯科クリニック" transform="ref(svg,14246.6904,-4345.2569)" x="0" y="0"/>
<use xlink:href="#p0" content="3,園田歯科医院,北海道空知郡上富良野町富町１-１-５６,歯科　小児歯科,,,9" xlink:title="園田歯科医院" transform="ref(svg,14246.6929,-4345.8493)" x="0" y="0"/>
<use xlink:href="#p0" content="3,大倉歯科,北海道空知郡上富良野町栄町１-２-６,歯科,,,9" xlink:title="大倉歯科" transform="ref(svg,14246.7581,-4346.4427)" x="0" y="0"/>
<use xlink:href="#p0" content="3,（医）紫岳会こだま歯科医院,北海道空知郡上富良野町宮町４-１-２４,歯科　小児歯科,,,9" xlink:title="（医）紫岳会こだま歯科医院" transform="ref(svg,14247.4306,-4346.1762)" x="0" y="0"/>
<use xlink:href="#p0" content="3,矢花歯科クリニック,北海道空知郡上富良野町大町２-２-１０,歯科　小児歯科　歯科口腔外科,,,9" xlink:title="矢花歯科クリニック" transform="ref(svg,14246.7586,-4345.6139)" x="0" y="0"/>
<use xlink:href="#p0" content="3,中富良野歯科診療所,北海道空知郡中富良野町新町５-４,歯科,,,9" xlink:title="中富良野歯科診療所" transform="ref(svg,14242.1755,-4340.2421)" x="0" y="0"/>
<use xlink:href="#p0" content="3,（医）紫岳会なかふこだま歯科クリニック,北海道空知郡中富良野町北町５-６,歯科　小児歯科,,,9" xlink:title="（医）紫岳会なかふこだま歯科クリニック" transform="ref(svg,14242.6418,-4340.9469)" x="0" y="0"/>
<use xlink:href="#p0" content="3,南富良野町立歯科診療所,北海道空知郡南富良野町字幾寅９１４,歯科,,,9" xlink:title="南富良野町立歯科診療所" transform="ref(svg,14256.8699,-4316.4141)" x="0" y="0"/>
<use xlink:href="#p0" content="3,占冠村歯科診療所,北海道勇払郡占冠村字シムカプ原野５７-５,歯科　小児歯科,,,9" xlink:title="占冠村歯科診療所" transform="ref(svg,14240.2926,-4297.8879)" x="0" y="0"/>
<use xlink:href="#p0" content="3,占冠村トマム歯科診療所,北海道勇払郡占冠村字トマム８２９-２１,歯科　小児歯科,,,9" xlink:title="占冠村トマム歯科診療所" transform="ref(svg,14265.6289,-4304.1858)" x="0" y="0"/>
<use xlink:href="#p0" content="3,占冠きむら歯科,北海道勇払郡占冠村字中央,歯科,,,9" xlink:title="占冠きむら歯科" transform="ref(svg,14239.161,-4295.9073)" x="0" y="0"/>
<use xlink:href="#p0" content="3,酒井歯科医院,北海道帯広市大通南１０-１９,歯科　矯正歯科　小児歯科,,,9" xlink:title="酒井歯科医院" transform="ref(svg,14320.5031,-4292.0556)" x="0" y="0"/>
<use xlink:href="#p0" content="3,（医）和光会高田歯科医院,北海道帯広市大通南２２-１５,歯科,,,9" xlink:title="（医）和光会高田歯科医院" transform="ref(svg,14320.6923,-4290.6768)" x="0" y="0"/>
<use xlink:href="#p0" content="3,（医）大通り歯科クリニック,北海道帯広市大通南１６-１９-１帯広１６丁目ビル１Ｆ,歯科　小児歯科　矯正歯科,,,9" xlink:title="（医）大通り歯科クリニック" transform="ref(svg,14320.6169,-4291.367)" x="0" y="0"/>
<use xlink:href="#p0" content="3,関歯科医院,北海道帯広市西１条南５-１９,歯科,,,9" xlink:title="関歯科医院" transform="ref(svg,14320.2637,-4292.6279)" x="0" y="0"/>
<use xlink:href="#p0" content="3,小林歯科医院,北海道帯広市西１条南１０-１９,歯科,,,9" xlink:title="小林歯科医院" transform="ref(svg,14320.348,-4292.0458)" x="0" y="0"/>
<use xlink:href="#p0" content="3,林歯科医院,北海道帯広市西１条南８-１-３,歯科　小児歯科　歯科口腔外科,,,9" xlink:title="林歯科医院" transform="ref(svg,14320.3323,-4292.3604)" x="0" y="0"/>
<use xlink:href="#p0" content="3,わたなべビル歯科医院,北海道帯広市西２条南８-４渡辺ビル２階,歯科　小児歯科,,,9" xlink:title="わたなべビル歯科医院" transform="ref(svg,14320.2162,-4292.3434)" x="0" y="0"/>
<use xlink:href="#p0" content="3,（医）コスモ歯科高田医院,北海道帯広市西２条南２１-２-２,歯科　矯正歯科　小児歯科　歯科口腔外科,,,9" xlink:title="（医）コスモ歯科高田医院" transform="ref(svg,14320.4517,-4290.8378)" x="0" y="0"/>
<use xlink:href="#p0" content="3,（医）藤田歯科医院,北海道帯広市西２条南１９-１４-１,歯科　矯正歯科　小児歯科,,,9" xlink:title="（医）藤田歯科医院" transform="ref(svg,14320.3957,-4291.024)" x="0" y="0"/>
<use xlink:href="#p0" content="3,きたの歯科・矯正歯科クリニック,北海道帯広市西２条南１０-１１-３,歯科　矯正歯科　小児歯科　歯科口腔外科,,,9" xlink:title="きたの歯科・矯正歯科クリニック" transform="ref(svg,14320.2045,-4292.0778)" x="0" y="0"/>
<use xlink:href="#p0" content="3,（医）おびひろアート矯正歯科,北海道帯広市西２条南１１-１２天光堂ビル４階,矯正歯科,,,9" xlink:title="（医）おびひろアート矯正歯科" transform="ref(svg,14320.2234,-4291.9672)" x="0" y="0"/>
<use xlink:href="#p0" content="3,森の泉歯科医院,北海道帯広市西３条南４-１４三条メディカルセンター４階,歯科　矯正歯科　小児歯科,,,9" xlink:title="森の泉歯科医院" transform="ref(svg,14320.0394,-4292.7515)" x="0" y="0"/>
<use xlink:href="#p0" content="3,市之川歯科矯正クリニック,北海道帯広市西３条南１０-３６,矯正歯科　歯科　小児歯科,,,9" xlink:title="市之川歯科矯正クリニック" transform="ref(svg,14320.0917,-4292.0342)" x="0" y="0"/>
<use xlink:href="#p0" content="3,河俣歯科医院,北海道帯広市西４条南１０-４２,歯科,,,9" xlink:title="河俣歯科医院" transform="ref(svg,14319.9539,-4292.0577)" x="0" y="0"/>
<use xlink:href="#p0" content="3,ささはら歯科医院,北海道帯広市西４条南１４-１-１,歯科　小児歯科　歯科口腔外科,,,9" xlink:title="ささはら歯科医院" transform="ref(svg,14319.9303,-4291.6477)" x="0" y="0"/>
<use xlink:href="#p0" content="3,（医）宝来中央歯科タウン歯科,北海道帯広市西４条南１９-１-１,歯科　小児歯科　矯正歯科,,,9" xlink:title="（医）宝来中央歯科タウン歯科" transform="ref(svg,14320.0239,-4291.0553)" x="0" y="0"/>
<use xlink:href="#p0" content="3,イオン歯科クリニック,北海道帯広市西４条南２０-１イオン３Ｆ,歯科　小児歯科,,,9" xlink:title="イオン歯科クリニック" transform="ref(svg,14320.0317,-4290.8698)" x="0" y="0"/>
<use xlink:href="#p0" content="3,（医）道修会長崎屋歯科,北海道帯広市西４条南１２-３,歯科　矯正歯科　小児歯科　歯科口腔外科,,,9" xlink:title="（医）道修会長崎屋歯科" transform="ref(svg,14319.9297,-4291.7936)" x="0" y="0"/>
<use xlink:href="#p0" content="3,高橋弘忠歯科診療室,北海道帯広市西５条南１９-２０,歯科　矯正歯科　小児歯科,,,9" xlink:title="高橋弘忠歯科診療室" transform="ref(svg,14319.9223,-4290.9695)" x="0" y="0"/>
<use xlink:href="#p0" content="3,武田歯科クリニック,北海道帯広市西５条南３９-４-２,歯科　小児歯科,,,9" xlink:title="武田歯科クリニック" transform="ref(svg,14320.1816,-4288.5562)" x="0" y="0"/>
<use xlink:href="#p0" content="3,のえこども歯科,北海道帯広市西５条南２２-１-４　ＡＳＡＨＩビル２階,歯科　矯正歯科　小児歯科,,,9" xlink:title="のえこども歯科" transform="ref(svg,14319.9048,-4290.6767)" x="0" y="0"/>
<use xlink:href="#p0" content="3,柴田歯科医院,北海道帯広市西５条南１３-２０,歯科,,,9" xlink:title="柴田歯科医院" transform="ref(svg,14319.8372,-4291.656)" x="0" y="0"/>
<use xlink:href="#p0" content="3,（医）慎成会森歯科医院,北海道帯広市西５条南４-１２,歯科　小児歯科,,,9" xlink:title="（医）慎成会森歯科医院" transform="ref(svg,14319.6978,-4292.7068)" x="0" y="0"/>
<use xlink:href="#p0" content="3,（医）仁愛会グリーン歯科,北海道帯広市西５条南２８,歯科　小児歯科,,,9" xlink:title="（医）仁愛会グリーン歯科" transform="ref(svg,14320.064,-4289.9328)" x="0" y="0"/>
<use xlink:href="#p0" content="3,有田歯科,北海道帯広市西６条南４-１４,歯科,,,9" xlink:title="有田歯科" transform="ref(svg,14319.5444,-4292.6921)" x="0" y="0"/>
<use xlink:href="#p0" content="3,（医）佐々木歯科医院,北海道帯広市西６条南９-１,歯科　矯正歯科　小児歯科,,,9" xlink:title="（医）佐々木歯科医院" transform="ref(svg,14319.6419,-4292.1815)" x="0" y="0"/>
<use xlink:href="#p0" content="3,よしだ歯科医院,北海道帯広市西６条南３４-８２,歯科　小児歯科,,,9" xlink:title="よしだ歯科医院" transform="ref(svg,14319.9016,-4289.1721)" x="0" y="0"/>
<use xlink:href="#p0" content="3,森末歯科クリニック,北海道帯広市西６条南５-３-７,歯科　小児歯科　歯科口腔外科,,,9" xlink:title="森末歯科クリニック" transform="ref(svg,14319.5586,-4292.5913)" x="0" y="0"/>
<use xlink:href="#p0" content="3,徳永歯科診療所,北海道帯広市西７条南１５-１２,歯科,,,9" xlink:title="徳永歯科診療所" transform="ref(svg,14319.5776,-4291.4083)" x="0" y="0"/>
<use xlink:href="#p0" content="3,菅野歯科医院,北海道帯広市西８条南９-１２,歯科,,,9" xlink:title="菅野歯科医院" transform="ref(svg,14319.319,-4292.0897)" x="0" y="0"/>
<use xlink:href="#p0" content="3,よねざわ歯科,北海道帯広市西８条南２７-１-１,歯科　小児歯科,,,9" xlink:title="よねざわ歯科" transform="ref(svg,14319.5514,-4290.0668)" x="0" y="0"/>
<use xlink:href="#p0" content="3,くにやす歯科クリニック,北海道帯広市西８条南２９-２４-３,歯科　小児歯科,,,9" xlink:title="くにやす歯科クリニック" transform="ref(svg,14319.5474,-4289.785)" x="0" y="0"/>
<use xlink:href="#p0" content="3,（医）斉藤歯科医院,北海道帯広市西９条南１３-４-４,歯科　小児歯科　歯科口腔外科,,,9" xlink:title="（医）斉藤歯科医院" transform="ref(svg,14319.0861,-4291.6092)" x="0" y="0"/>
<use xlink:href="#p0" content="3,（医）恵会山崎歯科医院,北海道帯広市西９条南３４-１５,歯科　小児歯科,,,9" xlink:title="（医）恵会山崎歯科医院" transform="ref(svg,14319.4964,-4289.145)" x="0" y="0"/>
<use xlink:href="#p0" content="3,（医）いのうえ歯科医院,北海道帯広市西９条南２-１２-２,歯科　小児歯科,,,9" xlink:title="（医）いのうえ歯科医院" transform="ref(svg,14319.051,-4292.9187)" x="0" y="0"/>
<use xlink:href="#p0" content="3,大和歯科医院,北海道帯広市西１０条南１８-２-７,歯科　矯正歯科　小児歯科,,,9" xlink:title="大和歯科医院" transform="ref(svg,14319.1161,-4291.105)" x="0" y="0"/>
<use xlink:href="#p0" content="3,つがやす歯科医院,北海道帯広市西１０条南９-５-５,歯科　矯正歯科　小児歯科　歯科口腔外科,,,9" xlink:title="つがやす歯科医院" transform="ref(svg,14318.9459,-4292.1078)" x="0" y="0"/>
<use xlink:href="#p0" content="3,おびひろ清流歯科クリニック,北海道帯広市西１０条南４１-３-８,歯科　小児歯科　矯正歯科,,,9" xlink:title="おびひろ清流歯科クリニック" transform="ref(svg,14319.4005,-4288.1448)" x="0" y="0"/>
<use xlink:href="#p0" content="3,吉川歯科医院,北海道帯広市西１１条南４-５-１,歯科,,,9" xlink:title="吉川歯科医院" transform="ref(svg,14318.7442,-4292.7114)" x="0" y="0"/>
<use xlink:href="#p0" content="3,緑ヶ丘歯科医院,北海道帯広市西１２条南１８-１９-２,歯科,,,9" xlink:title="緑ヶ丘歯科医院" transform="ref(svg,14318.7936,-4291.0514)" x="0" y="0"/>
<use xlink:href="#p0" content="3,おおみ歯科医院,北海道帯広市西１２条南３２-５７,歯科　小児歯科　歯科口腔外科,,,9" xlink:title="おおみ歯科医院" transform="ref(svg,14318.8884,-4289.3515)" x="0" y="0"/>
<use xlink:href="#p0" content="3,クオーレ歯科クリニック,北海道帯広市西１２条南３-２-１福原西１２条店,歯科　小児歯科,,,9" xlink:title="クオーレ歯科クリニック" transform="ref(svg,14318.6235,-4292.7938)" x="0" y="0"/>
<use xlink:href="#p0" content="3,牧野歯科医院,北海道帯広市西１３条南１７,歯科　矯正歯科,,,9" xlink:title="牧野歯科医院" transform="ref(svg,14318.5394,-4291.1076)" x="0" y="0"/>
<use xlink:href="#p0" content="3,武田重喜歯科医院,北海道帯広市西１６条南４-４４-１８,歯科,,,9" xlink:title="武田重喜歯科医院" transform="ref(svg,14317.4211,-4291.4583)" x="0" y="0"/>
<use xlink:href="#p0" content="3,水藤デンタルオフィス,北海道帯広市西１６条南３５-３-１,歯科,,,9" xlink:title="水藤デンタルオフィス" transform="ref(svg,14318.1156,-4288.8705)" x="0" y="0"/>
<use xlink:href="#p0" content="3,つるしま歯科医院,北海道帯広市西１６条南４-３５-１３,歯科,,,9" xlink:title="つるしま歯科医院" transform="ref(svg,14317.2854,-4291.1303)" x="0" y="0"/>
<use xlink:href="#p0" content="3,ウエストデンタルクリニック,北海道帯広市西１７条南３-２４-２８,歯科　矯正歯科　小児歯科,,,9" xlink:title="ウエストデンタルクリニック" transform="ref(svg,14316.8585,-4291.8389)" x="0" y="0"/>
<use xlink:href="#p0" content="3,新緑通り歯科クリニック,北海道帯広市西１７条南４-２５-１５,歯科　矯正歯科　小児歯科　歯科口腔外科,,,9" xlink:title="新緑通り歯科クリニック" transform="ref(svg,14316.883,-4291.4084)" x="0" y="0"/>
<use xlink:href="#p0" content="3,プラス歯科クリニック,北海道帯広市西１８条南２-５-４,歯科　小児歯科,,,9" xlink:title="プラス歯科クリニック" transform="ref(svg,14316.3737,-4292.3664)" x="0" y="0"/>
<use xlink:href="#p0" content="3,ブラン歯科医院帯広,北海道帯広市西１８条南３６-２-１１,歯科　歯科口腔外科　矯正歯科,,,9" xlink:title="ブラン歯科医院帯広" transform="ref(svg,14317.6044,-4288.8557)" x="0" y="0"/>
<use xlink:href="#p0" content="3,（医）川上歯科医院,北海道帯広市西１８条南２-９,歯科　小児歯科　矯正歯科,,,9" xlink:title="（医）川上歯科医院" transform="ref(svg,14316.1654,-4291.9238)" x="0" y="0"/>
<use xlink:href="#p0" content="3,西本歯科医院,北海道帯広市西１２条北６-３,歯科　矯正歯科　小児歯科,,,9" xlink:title="西本歯科医院" transform="ref(svg,14318.3741,-4293.7773)" x="0" y="0"/>
<use xlink:href="#p0" content="3,はたやま歯科医院,北海道帯広市西１５条北５-２-６,歯科　小児歯科,,,9" xlink:title="はたやま歯科医院" transform="ref(svg,14317.7245,-4293.5382)" x="0" y="0"/>
<use xlink:href="#p0" content="3,（医）アイ小林歯科医院,北海道帯広市西１６条北１-１２-６７,歯科　歯科口腔外科　小児歯科,,,9" xlink:title="（医）アイ小林歯科医院" transform="ref(svg,14317.303,-4293.4675)" x="0" y="0"/>
<use xlink:href="#p0" content="3,さいとう正彦歯科,北海道帯広市西１７条北２-１６-３０,歯科,,,9" xlink:title="さいとう正彦歯科" transform="ref(svg,14316.7376,-4293.4703)" x="0" y="0"/>
<use xlink:href="#p0" content="3,たけしげ歯科医院,北海道帯広市西１７条北１-２３-７,歯科　小児歯科　歯科口腔外科　矯正歯科,,,9" xlink:title="たけしげ歯科医院" transform="ref(svg,14316.677,-4293.086)" x="0" y="0"/>
<use xlink:href="#p0" content="3,（医）恵仁会あおば歯科クリニック,北海道帯広市西１８条北１-３０ぴあざフクハラ西１８条店内,歯科,,,9" xlink:title="（医）恵仁会あおば歯科クリニック" transform="ref(svg,14316.1705,-4292.9754)" x="0" y="0"/>
<use xlink:href="#p0" content="3,白樺こまどり公園松橋歯科クリニック,北海道帯広市白樺１６条東９-１５,歯科　矯正歯科,,,9" xlink:title="白樺こまどり公園松橋歯科クリニック" transform="ref(svg,14317.59,-4291.8082)" x="0" y="0"/>
<use xlink:href="#p0" content="3,遠藤歯科医院,北海道帯広市新町東１０-７,歯科,,,9" xlink:title="遠藤歯科医院" transform="ref(svg,14318.6556,-4292.0955)" x="0" y="0"/>
<use xlink:href="#p0" content="3,柏林台竹下歯科医院,北海道帯広市柏林台東町２-２-２,歯科　小児歯科,,,9" xlink:title="柏林台竹下歯科医院" transform="ref(svg,14317.123,-4292.462)" x="0" y="0"/>
<use xlink:href="#p0" content="3,たりさわ歯科クリニック,北海道帯広市柏林台南町１-２,歯科　小児歯科,,,9" xlink:title="たりさわ歯科クリニック" transform="ref(svg,14316.9464,-4292.0496)" x="0" y="0"/>
<use xlink:href="#p0" content="3,（医）慶友会慶友会歯科クリニック,北海道帯広市柏林台南町３-１,歯科　矯正歯科　小児歯科,,,9" xlink:title="（医）慶友会慶友会歯科クリニック" transform="ref(svg,14316.5065,-4292.0204)" x="0" y="0"/>
<use xlink:href="#p0" content="3,大滝歯科医院,北海道帯広市東１条南１８-１７,歯科,,,9" xlink:title="大滝歯科医院" transform="ref(svg,14320.8122,-4291.149)" x="0" y="0"/>
<use xlink:href="#p0" content="3,（医）愛正会高橋歯科医院,北海道帯広市東１条南１２-３,歯科　小児歯科,,,9" xlink:title="（医）愛正会高橋歯科医院" transform="ref(svg,14320.6788,-4291.9147)" x="0" y="0"/>
<use xlink:href="#p0" content="3,杉田歯科医院,北海道帯広市東１条南１０-１,歯科　小児歯科,,,9" xlink:title="杉田歯科医院" transform="ref(svg,14320.6475,-4292.1506)" x="0" y="0"/>
<use xlink:href="#p0" content="3,川村歯科クリニック,北海道帯広市東１条南６-２-４,歯科　小児歯科　歯科口腔外科,,,9" xlink:title="川村歯科クリニック" transform="ref(svg,14320.6746,-4292.6203)" x="0" y="0"/>
<use xlink:href="#p0" content="3,野本歯科医院,北海道帯広市東２条南５-１９-２,歯科,,,9" xlink:title="野本歯科医院" transform="ref(svg,14320.7604,-4292.6627)" x="0" y="0"/>
<use xlink:href="#p0" content="3,恵愛歯科クリニック,北海道帯広市東３条南１１-１０-１,歯科　矯正歯科　小児歯科,,,9" xlink:title="恵愛歯科クリニック" transform="ref(svg,14321.0671,-4292.0264)" x="0" y="0"/>
<use xlink:href="#p0" content="3,津川歯科医院,北海道帯広市東３条南９-２０,歯科　矯正歯科　小児歯科,,,9" xlink:title="津川歯科医院" transform="ref(svg,14321.0735,-4292.2126)" x="0" y="0"/>
<use xlink:href="#p0" content="3,たちばな歯科医院,北海道帯広市東３条南６-２-１,歯科　小児歯科　矯正歯科　歯科口腔外科,,,9" xlink:title="たちばな歯科医院" transform="ref(svg,14320.9782,-4292.6452)" x="0" y="0"/>
<use xlink:href="#p0" content="3,正木歯科医院,北海道帯広市東４条南２０-６-１０,歯科　矯正歯科　小児歯科,,,9" xlink:title="正木歯科医院" transform="ref(svg,14321.3978,-4290.957)" x="0" y="0"/>
<use xlink:href="#p0" content="3,（医）仁愛会朴澤歯科,北海道帯広市東４条南８,歯科　小児歯科　歯科口腔外科,,,9" xlink:title="（医）仁愛会朴澤歯科" transform="ref(svg,14321.1197,-4292.4159)" x="0" y="0"/>
<use xlink:href="#p0" content="3,（医）サン歯科クリニック,北海道帯広市東４条南３-７-１７,歯科　小児歯科,,,9" xlink:title="（医）サン歯科クリニック" transform="ref(svg,14321.129,-4292.9704)" x="0" y="0"/>
<use xlink:href="#p0" content="3,かわはら歯科,北海道帯広市東４条南１１-１,歯科,,,9" xlink:title="かわはら歯科" transform="ref(svg,14321.1314,-4292.0703)" x="0" y="0"/>
<use xlink:href="#p0" content="3,ヒロハヤシ歯科,北海道帯広市東４条南１２-２-２，４,歯科　小児歯科,,,9" xlink:title="ヒロハヤシ歯科" transform="ref(svg,14321.2668,-4291.962)" x="0" y="0"/>
<use xlink:href="#p0" content="3,ウィング歯科クリニック,北海道帯広市東６条南１０-１,歯科　小児歯科　矯正歯科,,,9" xlink:title="ウィング歯科クリニック" transform="ref(svg,14321.4724,-4292.2123)" x="0" y="0"/>
<use xlink:href="#p0" content="3,十勝歯科保健センター,北海道帯広市東７条南９-１５-３,歯科,,,9" xlink:title="十勝歯科保健センター" transform="ref(svg,14321.5798,-4292.2642)" x="0" y="0"/>
<use xlink:href="#p0" content="3,ただき歯科クリニック,北海道帯広市東１０条南７-１-１１,歯科　小児歯科,,,9" xlink:title="ただき歯科クリニック" transform="ref(svg,14322.1071,-4292.5289)" x="0" y="0"/>
<use xlink:href="#p0" content="3,なりた歯科医院,北海道帯広市稲田町南８線西１６-４２,歯科　小児歯科,,,9" xlink:title="なりた歯科医院" transform="ref(svg,14319.012,-4289.0668)" x="0" y="0"/>
<use xlink:href="#p0" content="3,（医）やまぐち矯正歯科,北海道帯広市南の森東４-１-６,矯正歯科,,,9" xlink:title="（医）やまぐち矯正歯科" transform="ref(svg,14316.9416,-4288.0752)" x="0" y="0"/>
<use xlink:href="#p0" content="3,兼松歯科医院,北海道帯広市大空町３-１４-８,歯科,,,9" xlink:title="兼松歯科医院" transform="ref(svg,14315.1863,-4287.6012)" x="0" y="0"/>
<use xlink:href="#p0" content="3,伏見歯科診療室,北海道帯広市緑ヶ丘１条通５-４,歯科,,,9" xlink:title="伏見歯科診療室" transform="ref(svg,14318.5003,-4290.7492)" x="0" y="0"/>
<use xlink:href="#p0" content="3,武田歯科医院,北海道帯広市緑ヶ丘２条通３-４,歯科　矯正歯科　小児歯科　歯科口腔外科,,,9" xlink:title="武田歯科医院" transform="ref(svg,14318.2754,-4290.8941)" x="0" y="0"/>
<use xlink:href="#p0" content="3,（医）船津歯科矯正歯科クリニック,北海道帯広市公園東町３-１１-４,歯科　矯正歯科　小児歯科,,,9" xlink:title="（医）船津歯科矯正歯科クリニック" transform="ref(svg,14319.2961,-4290.8369)" x="0" y="0"/>
<use xlink:href="#p0" content="3,ファミリーデンタルクリニック,北海道帯広市公園東町３-３-２,歯科　小児歯科,,,9" xlink:title="ファミリーデンタルクリニック" transform="ref(svg,14319.4592,-4290.8663)" x="0" y="0"/>
<use xlink:href="#p0" content="3,自由ヶ丘歯科クリニック,北海道帯広市自由が丘２-１-５,歯科　小児歯科,,,9" xlink:title="自由ヶ丘歯科クリニック" transform="ref(svg,14316.2035,-4290.3659)" x="0" y="0"/>
<use xlink:href="#p0" content="3,（医）しばの歯科医院,北海道帯広市南町東１条６-１-１,歯科　小児歯科,,,9" xlink:title="（医）しばの歯科医院" transform="ref(svg,14318.2083,-4289.3919)" x="0" y="0"/>
<use xlink:href="#p0" content="3,さかの歯科クリニック,北海道帯広市南町南７線３０-３６,歯科　矯正歯科　小児歯科　歯科口腔外科,,,9" xlink:title="さかの歯科クリニック" transform="ref(svg,14317.5887,-4289.4093)" x="0" y="0"/>
<use xlink:href="#p0" content="3,柴多歯科医院,北海道帯広市西１９条南５-１２-９,歯科,,,9" xlink:title="柴多歯科医院" transform="ref(svg,14315.8835,-4290.3942)" x="0" y="0"/>
<use xlink:href="#p0" content="3,フジ歯科医院,北海道帯広市西１９条南５-１-２,歯科　小児歯科,,,9" xlink:title="フジ歯科医院" transform="ref(svg,14315.906,-4290.8166)" x="0" y="0"/>
<use xlink:href="#p0" content="3,三浦歯科医院,北海道帯広市西１９条南３-１７-１０,歯科　小児歯科,,,9" xlink:title="三浦歯科医院" transform="ref(svg,14315.5532,-4291.3695)" x="0" y="0"/>
<use xlink:href="#p0" content="3,（医）小口歯科医院,北海道帯広市西１９条南２-２８-１９,歯科　小児歯科,,,9" xlink:title="（医）小口歯科医院" transform="ref(svg,14315.4604,-4291.9059)" x="0" y="0"/>
<use xlink:href="#p0" content="3,なつぼりデンタルクリニック,北海道帯広市西１９条南３８-４-１４,歯科　小児歯科,,,9" xlink:title="なつぼりデンタルクリニック" transform="ref(svg,14317.4707,-4288.518)" x="0" y="0"/>
<use xlink:href="#p0" content="3,わだ歯科クリニック,北海道帯広市西２０条南３-１１-６,歯科,,,9" xlink:title="わだ歯科クリニック" transform="ref(svg,14315.106,-4291.7362)" x="0" y="0"/>
<use xlink:href="#p0" content="3,（医）アルファ歯科矯正歯科医院,北海道帯広市西２０条南３-３９-４,歯科　矯正歯科　小児歯科,,,9" xlink:title="（医）アルファ歯科矯正歯科医院" transform="ref(svg,14314.534,-4291.339)" x="0" y="0"/>
<use xlink:href="#p0" content="3,鈴木愼一歯科医院,北海道帯広市西２１条南２-４５-２,歯科　小児歯科　歯科口腔外科,,,9" xlink:title="鈴木愼一歯科医院" transform="ref(svg,14314.0009,-4291.962)" x="0" y="0"/>
<use xlink:href="#p0" content="3,おおたき歯科,北海道帯広市西２１条南３-２-５,歯科　矯正歯科　小児歯科　歯科口腔外科,,,9" xlink:title="おおたき歯科" transform="ref(svg,14314.4148,-4291.6021)" x="0" y="0"/>
<use xlink:href="#p0" content="3,（医）聖美会三浦としなが歯科クリニック,北海道帯広市西２１条南３-２５-５,歯科　小児歯科　矯正歯科,,,9" xlink:title="（医）聖美会三浦としなが歯科クリニック" transform="ref(svg,14314.1514,-4291.2706)" x="0" y="0"/>
<use xlink:href="#p0" content="3,いしかわ歯科,北海道帯広市西２１条南２-２６-３,歯科　小児歯科,,,9" xlink:title="いしかわ歯科" transform="ref(svg,14314.4057,-4291.7923)" x="0" y="0"/>
<use xlink:href="#p0" content="3,新緑ナオ歯科クリニック,北海道帯広市西２２条南３-５-８アビタ新緑１階,歯科　矯正歯科　小児歯科　歯科口腔外科,,,9" xlink:title="新緑ナオ歯科クリニック" transform="ref(svg,14313.6067,-4291.2317)" x="0" y="0"/>
<use xlink:href="#p0" content="3,ますち歯科診療室,北海道帯広市西２３条南３-２８,歯科　小児歯科,,,9" xlink:title="ますち歯科診療室" transform="ref(svg,14313.113,-4291.2303)" x="0" y="0"/>
<use xlink:href="#p0" content="3,松-ｱ歯科医院,北海道帯広市西７条南１０-２２,歯科　小児歯科　歯科口腔外科,,,9" xlink:title="松-ｱ歯科医院" transform="ref(svg,14319.3973,-4292.0418)" x="0" y="0"/>
<use xlink:href="#p0" content="3,山口貴史歯科クリニック,北海道帯広市西２３条南３-６２ぴあざフクハラ西帯広店２Ｆ,歯科,,,9" xlink:title="山口貴史歯科クリニック" transform="ref(svg,14312.4949,-4291.5385)" x="0" y="0"/>
<use xlink:href="#p0" content="3,安岡歯科クリニック,北海道帯広市西２３条南２-１６-３５,歯科　小児歯科,,,9" xlink:title="安岡歯科クリニック" transform="ref(svg,14313.0395,-4291.8362)" x="0" y="0"/>
<use xlink:href="#p0" content="3,鎌田歯科医院,北海道帯広市西２４条南３-１５,歯科　小児歯科,,,9" xlink:title="鎌田歯科医院" transform="ref(svg,14312.0595,-4291.5692)" x="0" y="0"/>
<use xlink:href="#p0" content="3,デンタルクリニックすぎむら,北海道帯広市西２５条南１-１４-１２,歯科　小児歯科,,,9" xlink:title="デンタルクリニックすぎむら" transform="ref(svg,14311.64,-4292.1768)" x="0" y="0"/>
<use xlink:href="#p0" content="3,長瀬歯科クリニック,北海道帯広市大正町４４２-１,歯科,,,9" xlink:title="長瀬歯科クリニック" transform="ref(svg,14316.175,-4279.0985)" x="0" y="0"/>
<use xlink:href="#p0" content="3,小口歯科医院,北海道河東郡音更町大通１０-７-１６,歯科,,,9" xlink:title="小口歯科医院" transform="ref(svg,14320.0161,-4299.3255)" x="0" y="0"/>
<use xlink:href="#p0" content="3,木野歯科医院,北海道河東郡音更町木野大通東４-２,歯科,,,9" xlink:title="木野歯科医院" transform="ref(svg,14320.5257,-4294.376)" x="0" y="0"/>
<use xlink:href="#p0" content="3,（医）岸上歯科医院,北海道河東郡音更町木野大通東８-４,歯科,,,9" xlink:title="（医）岸上歯科医院" transform="ref(svg,14320.6632,-4295.2145)" x="0" y="0"/>
<use xlink:href="#p0" content="3,たにぐち歯科こども歯科,北海道河東郡音更町木野大通り東１６,歯科　矯正歯科　小児歯科,,,9" xlink:title="たにぐち歯科こども歯科" transform="ref(svg,14320.7697,-4296.8731)" x="0" y="0"/>
<use xlink:href="#p0" content="3,竹田歯科クリニック,北海道河東郡音更町木野東通３-２-３,歯科　小児歯科　歯科口腔外科　矯正歯科,,,9" xlink:title="竹田歯科クリニック" transform="ref(svg,14320.6493,-4294.2622)" x="0" y="0"/>
<use xlink:href="#p0" content="3,矢野歯科医院,北海道河東郡音更町柳町南区１-２３,歯科,,,9" xlink:title="矢野歯科医院" transform="ref(svg,14321.0973,-4296.7558)" x="0" y="0"/>
<use xlink:href="#p0" content="3,（医）宝来中央歯科,北海道河東郡音更町宝来東町南１-１-１,歯科　小児歯科　矯正歯科,,,9" xlink:title="（医）宝来中央歯科" transform="ref(svg,14321.9297,-4294.7983)" x="0" y="0"/>
<use xlink:href="#p0" content="3,（医）北楡会ひびき野歯科クリニック,北海道河東郡音更町ひびき野西町１-１-２０,歯科　小児歯科　歯科口腔外科,,,9" xlink:title="（医）北楡会ひびき野歯科クリニック" transform="ref(svg,14321.4886,-4294.2673)" x="0" y="0"/>
<use xlink:href="#p0" content="3,フォレスト矯正歯科クリニック,北海道河東郡音更町木野大通西９-１-１７いえす-V１Ｆ,矯正歯科,,,9" xlink:title="フォレスト矯正歯科クリニック" transform="ref(svg,14320.5298,-4295.3133)" x="0" y="0"/>
<use xlink:href="#p0" content="3,さくら歯科矯正歯科医院,北海道河東郡音更町木野西通１２-１-１３,歯科　小児歯科　矯正歯科,,,9" xlink:title="さくら歯科矯正歯科医院" transform="ref(svg,14320.344,-4295.7258)" x="0" y="0"/>
<use xlink:href="#p0" content="3,なめき歯科医院,北海道河東郡音更町中鈴蘭南６-１-１４,歯科　小児歯科　歯科口腔外科　矯正歯科,,,9" xlink:title="なめき歯科医院" transform="ref(svg,14318.8251,-4295.1495)" x="0" y="0"/>
<use xlink:href="#p0" content="3,高橋歯科メモリアル,北海道河東郡音更町南鈴蘭北３-５-１,歯科,,,9" xlink:title="高橋歯科メモリアル" transform="ref(svg,14320.4862,-4294.6894)" x="0" y="0"/>
<use xlink:href="#p0" content="3,すずらん歯科医院,北海道河東郡音更町共栄台東１０-１-１７,歯科　小児歯科,,,9" xlink:title="すずらん歯科医院" transform="ref(svg,14320.0565,-4295.214)" x="0" y="0"/>
<use xlink:href="#p0" content="3,歯科クリニック共栄台,北海道河東郡音更町共栄台東１３-３,歯科　小児歯科,,,9" xlink:title="歯科クリニック共栄台" transform="ref(svg,14319.9844,-4296.1568)" x="0" y="0"/>
<use xlink:href="#p0" content="3,（医）音更歯科医院,北海道河東郡音更町雄飛が丘仲区１-２３２,歯科　矯正歯科　小児歯科,,,9" xlink:title="（医）音更歯科医院" transform="ref(svg,14319.1496,-4299.7124)" x="0" y="0"/>
<use xlink:href="#p0" content="3,（医）緑陽台歯科診療所,北海道河東郡音更町緑陽台仲区１１-２,歯科,,,9" xlink:title="（医）緑陽台歯科診療所" transform="ref(svg,14319.6354,-4296.6883)" x="0" y="0"/>
<use xlink:href="#p0" content="3,こまば歯科,北海道河東郡音更町駒場南２条通７-９,歯科　小児歯科　歯科口腔外科,,,9" xlink:title="こまば歯科" transform="ref(svg,14317.9504,-4304.6398)" x="0" y="0"/>
<use xlink:href="#p0" content="3,むらはし歯科医院,北海道河東郡士幌町字士幌西２線１６７-９,歯科　小児歯科,,,9" xlink:title="むらはし歯科医院" transform="ref(svg,14324.706,-4316.974)" x="0" y="0"/>
<use xlink:href="#p0" content="3,（医）神山歯科医院,北海道河東郡士幌町字士幌西２線１６２,歯科,,,9" xlink:title="（医）神山歯科医院" transform="ref(svg,14324.5034,-4316.6518)" x="0" y="0"/>
<use xlink:href="#p0" content="3,しほろ歯科クリニック,北海道河東郡士幌町字士幌東１条２-１１-１,歯科　小児歯科　矯正歯科,,,9" xlink:title="しほろ歯科クリニック" transform="ref(svg,14324.7165,-4316.8139)" x="0" y="0"/>
<use xlink:href="#p0" content="3,上士幌歯科クリニック,北海道河東郡上士幌町字上士幌東４線２４１,歯科　矯正歯科　小児歯科,,,9" xlink:title="上士幌歯科クリニック" transform="ref(svg,14330.0891,-4323.5267)" x="0" y="0"/>
<use xlink:href="#p0" content="3,塚本歯科医院,北海道河東郡上士幌町字上士幌東３線２３７,歯科,,,9" xlink:title="塚本歯科医院" transform="ref(svg,14329.2007,-4323.3206)" x="0" y="0"/>
<use xlink:href="#p0" content="3,鹿追歯科医院,北海道河東郡鹿追町東町１-９,歯科,,,9" xlink:title="鹿追歯科医院" transform="ref(svg,14298.7941,-4309.878)" x="0" y="0"/>
<use xlink:href="#p0" content="3,中島歯科医院,北海道河東郡鹿追町東町１-３０,歯科,,,9" xlink:title="中島歯科医院" transform="ref(svg,14299.0057,-4310.0368)" x="0" y="0"/>
<use xlink:href="#p0" content="3,（医）靖心院新得歯科診療所,北海道上川郡新得町西２条南３-２,歯科　小児歯科,,,9" xlink:title="（医）靖心院新得歯科診療所" transform="ref(svg,14282.7571,-4307.8767)" x="0" y="0"/>
<use xlink:href="#p0" content="3,よしむら歯科医院,北海道上川郡新得町本通南１-３,歯科　小児歯科,,,9" xlink:title="よしむら歯科医院" transform="ref(svg,14283.3972,-4308.2614)" x="0" y="0"/>
<use xlink:href="#p0" content="3,（医）東秀会わたなべ歯科,北海道上川郡新得町４条南２-１,歯科　小児歯科　矯正歯科,,,9" xlink:title="（医）東秀会わたなべ歯科" transform="ref(svg,14283.8112,-4308.2293)" x="0" y="0"/>
<use xlink:href="#p0" content="3,屈足松-ｱ歯科医院,北海道上川郡新得町屈足幸町１-４,歯科　小児歯科　歯科口腔外科,,,9" xlink:title="屈足松-ｱ歯科医院" transform="ref(svg,14290.3589,-4310.0124)" x="0" y="0"/>
<use xlink:href="#p0" content="3,いたばしデンタルクリニック,北海道上川郡清水町本通５-２,歯科　小児歯科　矯正歯科　歯科口腔外科,,,9" xlink:title="いたばしデンタルクリニック" transform="ref(svg,14288.3542,-4301.641)" x="0" y="0"/>
<use xlink:href="#p0" content="3,後藤歯科医院,北海道上川郡清水町御影西１条４-７-２,歯科,,,9" xlink:title="後藤歯科医院" transform="ref(svg,14293.8514,-4294.6157)" x="0" y="0"/>
<use xlink:href="#p0" content="3,南歯科医院,北海道上川郡清水町南４条４-２-１,歯科,,,9" xlink:title="南歯科医院" transform="ref(svg,14288.634,-4301.2458)" x="0" y="0"/>
<use xlink:href="#p0" content="3,（医）木村歯科医院,北海道上川郡清水町南１条３-１２,歯科　小児歯科　矯正歯科,,,9" xlink:title="（医）木村歯科医院" transform="ref(svg,14288.2718,-4301.4411)" x="0" y="0"/>
<use xlink:href="#p0" content="3,藤村歯科・矯正歯科医院,北海道河西郡芽室町東１条４-２１,歯科　小児歯科　矯正歯科,,,9" xlink:title="藤村歯科・矯正歯科医院" transform="ref(svg,14304.9734,-4291.4018)" x="0" y="0"/>
<use xlink:href="#p0" content="3,家内歯科医院,北海道河西郡芽室町西２条２-１５,歯科,,,9" xlink:title="家内歯科医院" transform="ref(svg,14304.5346,-4291.1373)" x="0" y="0"/>
<use xlink:href="#p0" content="3,正木歯科診療室,北海道河西郡芽室町本通５-１１-１,歯科　矯正歯科　小児歯科,,,9" xlink:title="正木歯科診療室" transform="ref(svg,14304.8051,-4291.4949)" x="0" y="0"/>
<use xlink:href="#p0" content="3,（医）しのはら歯科医院,北海道河西郡芽室町東２条５-２２-１,歯科　小児歯科,,,9" xlink:title="（医）しのはら歯科医院" transform="ref(svg,14305.0399,-4291.5782)" x="0" y="0"/>
<use xlink:href="#p0" content="3,松井歯科医院,北海道河西郡芽室町東２条１-１２,歯科　小児歯科,,,9" xlink:title="松井歯科医院" transform="ref(svg,14305.105,-4291.0784)" x="0" y="0"/>
<use xlink:href="#p0" content="3,南館歯科医院,北海道河西郡芽室町本通３-１４,歯科　小児歯科,,,9" xlink:title="南館歯科医院" transform="ref(svg,14304.783,-4291.2569)" x="0" y="0"/>
<use xlink:href="#p0" content="3,おみ歯科クリニック,北海道河西郡芽室町西１条南６-１-３,歯科　小児歯科　矯正歯科,,,9" xlink:title="おみ歯科クリニック" transform="ref(svg,14304.9062,-4290.2852)" x="0" y="0"/>
<use xlink:href="#p0" content="3,いしがき歯科クリニック,北海道河西郡芽室町東めむろ３条北１-１-８,歯科,,,9" xlink:title="いしがき歯科クリニック" transform="ref(svg,14307.5552,-4291.3582)" x="0" y="0"/>
<use xlink:href="#p0" content="3,めむろだいいち歯科クリニック,北海道河西郡芽室町東６条９-１,歯科　小児歯科　歯科口腔外科,,,9" xlink:title="めむろだいいち歯科クリニック" transform="ref(svg,14305.6749,-4292.0532)" x="0" y="0"/>
<use xlink:href="#p0" content="3,（医）慶友会中札内歯科医院,北海道河西郡中札内村大通北３-５,歯科　矯正歯科　小児歯科,,,9" xlink:title="（医）慶友会中札内歯科医院" transform="ref(svg,14313.6328,-4270.312)" x="0" y="0"/>
<use xlink:href="#p0" content="3,（医）やました歯科医院,北海道河西郡中札内村東１条南３-３０,歯科　小児歯科,,,9" xlink:title="（医）やました歯科医院" transform="ref(svg,14313.2461,-4269.5977)" x="0" y="0"/>
<use xlink:href="#p0" content="3,更別村歯科診療所,北海道河西郡更別村字更別南１線９３-１０,歯科,,,9" xlink:title="更別村歯科診療所" transform="ref(svg,14318.7641,-4265.0788)" x="0" y="0"/>
<use xlink:href="#p0" content="3,大樹町歯科診療所,北海道広尾郡大樹町３条通１８-９,歯科,,,9" xlink:title="大樹町歯科診療所" transform="ref(svg,14327.6261,-4249.2209)" x="0" y="0"/>
<use xlink:href="#p0" content="3,上岡歯科,北海道広尾郡大樹町西本通７４-１７,歯科　小児歯科,,,9" xlink:title="上岡歯科" transform="ref(svg,14327.2321,-4248.5884)" x="0" y="0"/>
<use xlink:href="#p0" content="3,（医）仁愛会歯科,北海道広尾郡広尾町西２条８-１,歯科　小児歯科　歯科口腔外科,,,9" xlink:title="（医）仁愛会歯科" transform="ref(svg,14331.3211,-4228.7585)" x="0" y="0"/>
<use xlink:href="#p0" content="3,なかの歯科医院,北海道広尾郡広尾町本通１１-１０,歯科,,,9" xlink:title="なかの歯科医院" transform="ref(svg,14331.3411,-4229.0746)" x="0" y="0"/>
<use xlink:href="#p0" content="3,広尾中央歯科クリニック,北海道広尾郡広尾町並木通西１条１-８,歯科,,,9" xlink:title="広尾中央歯科クリニック" transform="ref(svg,14331.2316,-4229.6102)" x="0" y="0"/>
<use xlink:href="#p0" content="3,忠類歯科診療所,北海道中川郡幕別町忠類錦町４３９-１,歯科,,,9" xlink:title="忠類歯科診療所" transform="ref(svg,14331.1191,-4256.7389)" x="0" y="0"/>
<use xlink:href="#p0" content="3,（医）一宮歯科医院,北海道中川郡幕別町本町７９-１,歯科　矯正歯科　小児歯科,,,9" xlink:title="（医）一宮歯科医院" transform="ref(svg,14335.821,-4290.8583)" x="0" y="0"/>
<use xlink:href="#p0" content="3,（医）大内歯科医院,北海道中川郡幕別町札内豊町２５-１０,歯科　矯正歯科　小児歯科,,,9" xlink:title="（医）大内歯科医院" transform="ref(svg,14325.5804,-4291.603)" x="0" y="0"/>
<use xlink:href="#p0" content="3,（医）村松歯科医院,北海道中川郡幕別町札内泉町７６-１,歯科　小児歯科,,,9" xlink:title="（医）村松歯科医院" transform="ref(svg,14325.5604,-4291.0403)" x="0" y="0"/>
<use xlink:href="#p0" content="3,（医）木下歯科医院,北海道中川郡幕別町本町６１-１,歯科,,,9" xlink:title="（医）木下歯科医院" transform="ref(svg,14335.8849,-4291.0164)" x="0" y="0"/>
<use xlink:href="#p0" content="3,國安歯科医院,北海道中川郡幕別町札内青葉町１６-１０,歯科　小児歯科,,,9" xlink:title="國安歯科医院" transform="ref(svg,14326.5854,-4291.3755)" x="0" y="0"/>
<use xlink:href="#p0" content="3,杉村歯科医院,北海道中川郡幕別町札内みずほ町１４３-６６,歯科　小児歯科,,,9" xlink:title="杉村歯科医院" transform="ref(svg,14324.8813,-4290.4883)" x="0" y="0"/>
<use xlink:href="#p0" content="3,みずほ通り歯科クリニック,北海道中川郡幕別町札内共栄町１６-３,歯科,,,9" xlink:title="みずほ通り歯科クリニック" transform="ref(svg,14324.5239,-4291.8083)" x="0" y="0"/>
<use xlink:href="#p0" content="3,（医）高橋歯科小児歯科クリニック,北海道中川郡幕別町札内北町２１-１８,歯科　小児歯科,,,9" xlink:title="（医）高橋歯科小児歯科クリニック" transform="ref(svg,14324.9197,-4292.0407)" x="0" y="0"/>
<use xlink:href="#p0" content="3,河原歯科クリニック,北海道中川郡幕別町札内西町４９５-１３,歯科　小児歯科,,,9" xlink:title="河原歯科クリニック" transform="ref(svg,14323.9555,-4291.9718)" x="0" y="0"/>
<use xlink:href="#p0" content="3,ふみの木歯科クリニック,北海道中川郡札内青葉町３０８-２３ぴあざフクハラ札内店内,歯科　小児歯科,,,9" xlink:title="ふみの木歯科クリニック" transform="ref(svg,14326.4453,-4291.3122)" x="0" y="0"/>
<use xlink:href="#p0" content="3,ユタカ歯科,北海道中川郡池田町字利別西町１-５,歯科　小児歯科,,,9" xlink:title="ユタカ歯科" transform="ref(svg,14342.9265,-4292.8832)" x="0" y="0"/>
</g>
</svg>
