<?xml version="1.0" encoding="UTF-8"?>
<svg  xmlns="http://www.w3.org/2000/svg" xmlns:xlink="http://www.w3.org/1999/xlink" xmlns:go="http://purl.org/svgmap/profile" property="医療機関分類,施設名称,所在地,診療科目１,診療科目２,診療科目３,開設者分類" viewBox="13640.625 -3445.3125 70.3125 70.3125" go:dataArea="13640.625 -3445.3125 70.3125 70.3125" >
<metadata>
 <rdf:RDF xmlns:rdf="http://www.w3.org/1999/02/22-rdf-syntax-ns#" xmlns:crs="http://opengis.org/xmldtds/transformations.dtd" xmlns:svg="http://www.w3.org/svg" >
  <rdf:Description>
   <crs:CoordinateReferenceSystem rdf:resource="http://purl.org/crs/84" svg:transform="matrix(100.0,0.0,0.0,-100.0,0.0,0.0)" />
  </rdf:Description>
 </rdf:RDF>
</metadata>
<globalCoordinateSystem srsName="http://purl.org/crs/84" transform="matrix(100.0,0.0,0.0,-100.0,0.0,0.0)" />
<defs>
 <g id="p0" >
  <image xlink:href="mappin.png" preserveAspectRatio="none" x="-8" y="-25" width="19" height="27"/>
 </g>
 <g id="p1" >
  <image xlink:href="mappin1.png" preserveAspectRatio="none" x="-8" y="-25" width="19" height="27"/>
 </g>
 <g id="p2" >
  <image xlink:href="mappin2.png" preserveAspectRatio="none" x="-8" y="-25" width="19" height="27"/>
 </g>
 <g id="p3" >
  <image xlink:href="mappin3.png" preserveAspectRatio="none" x="-8" y="-25" width="19" height="27"/>
 </g>
 <g id="p4" >
  <image xlink:href="mappin4.png" preserveAspectRatio="none" x="-8" y="-25" width="19" height="27"/>
 </g>
 <g id="p5" >
  <image xlink:href="mappin5.png" preserveAspectRatio="none" x="-8" y="-25" width="19" height="27"/>
 </g>
 <g id="p6" >
  <image xlink:href="mappin6.png" preserveAspectRatio="none" x="-8" y="-25" width="19" height="27"/>
 </g>
 <g id="p7" >
  <image xlink:href="mappin7.png" preserveAspectRatio="none" x="-8" y="-25" width="19" height="27"/>
 </g>
 <g id="p8" >
  <image xlink:href="mappin8.png" preserveAspectRatio="none" x="-8" y="-25" width="19" height="27"/>
 </g>
 <g id="p9" >
  <image xlink:href="mappin9.png" preserveAspectRatio="none" x="-8" y="-25" width="19" height="27"/>
 </g>
</defs>
<g fill="green" fill-rule="evenodd" >
<use xlink:href="#p0" content="3,やまぐちデンタルクリニック,三重県志摩市阿児町国府２８５３-２,歯科　小児歯科,,,9" xlink:title="やまぐちデンタルクリニック" transform="ref(svg,13687.4259,-3433.7278)" x="0" y="0"/>
<use xlink:href="#p0" content="3,なべしま歯科,三重県志摩市浜島町浜島８５８,歯科,,,9" xlink:title="なべしま歯科" transform="ref(svg,13675.5448,-3429.605)" x="0" y="0"/>
<use xlink:href="#p0" content="3,りっぷ歯科クリニック,三重県度会郡度会町大野木３５７２-３２,歯科　小児歯科　矯正歯科　歯科口腔外科,,,9" xlink:title="りっぷ歯科クリニック" transform="ref(svg,13663.7431,-3444.7926)" x="0" y="0"/>
<use xlink:href="#p0" content="3,大石歯科医院,三重県度会郡南伊勢町村山１１１８,歯科,,,9" xlink:title="大石歯科医院" transform="ref(svg,13649.7883,-3428.0537)" x="0" y="0"/>
<use xlink:href="#p0" content="3,森歯科医院,三重県度会郡南伊勢町五ケ所浦３９９７-２,歯科　小児歯科,,,9" xlink:title="森歯科医院" transform="ref(svg,13670.45,-3435.0546)" x="0" y="0"/>
<use xlink:href="#p0" content="3,楠崎歯科医院,三重県度会郡南伊勢町五ケ所９８８-２５,歯科　小児歯科,,,9" xlink:title="楠崎歯科医院" transform="ref(svg,13669.9676,-3434.701)" x="0" y="0"/>
<use xlink:href="#p0" content="3,大西歯科医院,三重県度会郡度会町田口１２４７-４,歯科,,,9" xlink:title="大西歯科医院" transform="ref(svg,13654.7582,-3443.6324)" x="0" y="0"/>
<use xlink:href="#p0" content="3,福井歯科医院,三重県度会郡度会町棚橋７８１,歯科　矯正歯科,,,9" xlink:title="福井歯科医院" transform="ref(svg,13662.7534,-3443.7206)" x="0" y="0"/>
<use xlink:href="#p0" content="3,ひまわり歯科クリニック,三重県度会郡大紀町滝原１４３,歯科　小児歯科,,,9" xlink:title="ひまわり歯科クリニック" transform="ref(svg,13641.9515,-3438.1589)" x="0" y="0"/>
<use xlink:href="#p0" content="3,谷崎歯科医院,三重県志摩市磯部町恵利原１５３２-２,歯科　小児歯科,,,9" xlink:title="谷崎歯科医院" transform="ref(svg,13680.33,-3438.2083)" x="0" y="0"/>
<use xlink:href="#p0" content="3,和穂歯科医院,三重県志摩市阿児町神明１１０７-１３２,歯科,,,9" xlink:title="和穂歯科医院" transform="ref(svg,13683.6939,-3432.2108)" x="0" y="0"/>
<use xlink:href="#p0" content="3,鍋島デンタルオフィス,三重県志摩市阿児町鵜方金谷３００８-８,歯科,,,9" xlink:title="鍋島デンタルオフィス" transform="ref(svg,13683.6441,-3432.9317)" x="0" y="0"/>
<use xlink:href="#p0" content="3,大山歯科クリニック,三重県志摩市志摩町和具１２１１,歯科　小児歯科　矯正歯科,,,9" xlink:title="大山歯科クリニック" transform="ref(svg,13681.4984,-3425.6542)" x="0" y="0"/>
<use xlink:href="#p0" content="3,タニグチ歯科医院,三重県志摩市阿児町神明２１３０-１,歯科,,,9" xlink:title="タニグチ歯科医院" transform="ref(svg,13684.7048,-3431.4579)" x="0" y="0"/>
<use xlink:href="#p0" content="3,刑部歯科医院,三重県志摩市阿児町鵜方小向井４９４７,歯科,,,9" xlink:title="刑部歯科医院" transform="ref(svg,13681.4935,-3432.6751)" x="0" y="0"/>
<use xlink:href="#p0" content="3,今永歯科診療所,三重県志摩市阿児町鵜方３３０８-５,歯科　歯科口腔外科,,,9" xlink:title="今永歯科診療所" transform="ref(svg,13682.4519,-3432.7096)" x="0" y="0"/>
<use xlink:href="#p0" content="3,なんとう歯科クリニック,三重県度会郡南伊勢町東宮３２９０,歯科　小児歯科　矯正歯科　口腔外科,,,9" xlink:title="なんとう歯科クリニック" transform="ref(svg,13654.1598,-3428.5722)" x="0" y="0"/>
<use xlink:href="#p0" content="3,歯科鵜倉診療所,三重県度会郡南伊勢町東宮７２５,歯科,,,9" xlink:title="歯科鵜倉診療所" transform="ref(svg,13653.9845,-3428.4078)" x="0" y="0"/>
<use xlink:href="#p0" content="3,南勢歯科医院,三重県度会郡南伊勢町田曽浦４３８５-１,歯科　小児歯科,,,9" xlink:title="南勢歯科医院" transform="ref(svg,13670.0879,-3429.3781)" x="0" y="0"/>
<use xlink:href="#p0" content="3,ひかり歯科医院,三重県多気郡大台町上楠３５８-１,歯科,,,9" xlink:title="ひかり歯科医院" transform="ref(svg,13647.5326,-3442.1289)" x="0" y="0"/>
<use xlink:href="#p0" content="3,大瀬歯科医院,三重県多気郡大台町上三瀬７１４-２,歯科　小児歯科　歯科口腔外科,,,9" xlink:title="大瀬歯科医院" transform="ref(svg,13641.827,-3440.0024)" x="0" y="0"/>
<use xlink:href="#p0" content="3,大石歯科医院,三重県多気郡大台町佐原７６２-１,歯科　小児歯科,,,9" xlink:title="大石歯科医院" transform="ref(svg,13640.6717,-3439.334)" x="0" y="0"/>
<use xlink:href="#p0" content="3,山本歯科医院,三重県志摩市浜島町浜島３２７１-２,歯科,,,9" xlink:title="山本歯科医院" transform="ref(svg,13675.664,-3430.5703)" x="0" y="0"/>
<use xlink:href="#p0" content="3,中西歯科医院,三重県志摩市浜島町浜島３０９６,歯科　小児歯科,,,9" xlink:title="中西歯科医院" transform="ref(svg,13674.6912,-3429.7468)" x="0" y="0"/>
<use xlink:href="#p0" content="3,高橋歯科医院,三重県志摩市大王町波切３３０４,歯科,,,9" xlink:title="高橋歯科医院" transform="ref(svg,13688.6656,-3428.1917)" x="0" y="0"/>
<use xlink:href="#p0" content="3,かわつら歯科医院,三重県志摩市大王町波切３０７８-５,歯科,,,9" xlink:title="かわつら歯科医院" transform="ref(svg,13688.1985,-3428.4332)" x="0" y="0"/>
<use xlink:href="#p0" content="3,中井歯科医院,三重県志摩市大王町波切１７３８-２,歯科　小児歯科　矯正歯科,,,9" xlink:title="中井歯科医院" transform="ref(svg,13687.8433,-3427.7769)" x="0" y="0"/>
<use xlink:href="#p0" content="3,谷口歯科医院,三重県志摩市志摩町布施田１６８９-１,歯科,,,9" xlink:title="谷口歯科医院" transform="ref(svg,13682.2116,-3425.6288)" x="0" y="0"/>
<use xlink:href="#p0" content="3,竹内歯科医院,三重県志摩市志摩町片田２４６１-４,歯科,,,9" xlink:title="竹内歯科医院" transform="ref(svg,13684.6531,-3425.526)" x="0" y="0"/>
<use xlink:href="#p0" content="3,鍋島歯科医院,三重県志摩市志摩町和具１９６５-２,歯科,,,9" xlink:title="鍋島歯科医院" transform="ref(svg,13680.8584,-3425.8261)" x="0" y="0"/>
<use xlink:href="#p0" content="3,西岡歯科医院,三重県志摩市志摩町越賀６５３,歯科,,,9" xlink:title="西岡歯科医院" transform="ref(svg,13679.3708,-3425.8071)" x="0" y="0"/>
<use xlink:href="#p0" content="3,ひろの歯科,三重県志摩市磯部町迫間１８０１,歯科,,,9" xlink:title="ひろの歯科" transform="ref(svg,13680.3244,-3437.1213)" x="0" y="0"/>
<use xlink:href="#p0" content="3,デンタルクリニックたかはし,三重県志摩市阿児町甲賀３１７３-９,歯科　小児歯科　矯正歯科,,,9" xlink:title="デンタルクリニックたかはし" transform="ref(svg,13687.2836,-3430.7881)" x="0" y="0"/>
<use xlink:href="#p0" content="3,さか歯科,三重県志摩市阿児町鵜方３０１６-４０,歯科,,,9" xlink:title="さか歯科" transform="ref(svg,13683.5995,-3432.734)" x="0" y="0"/>
<use xlink:href="#p0" content="3,大岩矯正歯科,三重県志摩市阿児町鵜方金谷３００９-４４,矯正歯科,,,9" xlink:title="大岩矯正歯科" transform="ref(svg,13683.7264,-3432.8658)" x="0" y="0"/>
<use xlink:href="#p0" content="3,マエダ歯科,三重県志摩市阿児町鵜方１６７７-１,歯科,,,9" xlink:title="マエダ歯科" transform="ref(svg,13682.4752,-3432.972)" x="0" y="0"/>
<use xlink:href="#p0" content="3,はね歯科医院,三重県志摩市阿児町鵜方３１１２-１,歯科,,,9" xlink:title="はね歯科医院" transform="ref(svg,13682.9675,-3432.8676)" x="0" y="0"/>
<use xlink:href="#p0" content="3,ニシオ歯科,三重県志摩市阿児町鵜方１４４２,歯科,,,9" xlink:title="ニシオ歯科" transform="ref(svg,13682.1862,-3433.1428)" x="0" y="0"/>
<use xlink:href="#p0" content="3,西田歯科クリニック,三重県志摩市阿児町鵜方屋敷垣内４０５７-１,歯科,,,9" xlink:title="西田歯科クリニック" transform="ref(svg,13682.547,-3432.9051)" x="0" y="0"/>
<use xlink:href="#p0" content="3,鍋島歯科,三重県志摩市阿児町鵜方１２６６-１,歯科,,,9" xlink:title="鍋島歯科" transform="ref(svg,13681.9719,-3433.3365)" x="0" y="0"/>
<use xlink:href="#p0" content="3,福田歯科医院,三重県志摩市阿児町鵜方２４５３-３,歯科,,,9" xlink:title="福田歯科医院" transform="ref(svg,13683.2486,-3433.111)" x="0" y="0"/>
<use xlink:href="#p0" content="3,山口歯科医院,三重県志摩市阿児町鵜方１４５６,歯科,,,9" xlink:title="山口歯科医院" transform="ref(svg,13682.2418,-3433.2042)" x="0" y="0"/>
<use xlink:href="#p0" content="3,むらばやし歯科医院,三重県多気郡大台町栃原１６８３-５,歯科,,,9" xlink:title="むらばやし歯科医院" transform="ref(svg,13651.1775,-3443.7811)" x="0" y="0"/>
<use xlink:href="#p0" content="3,奥村歯科,三重県伊勢市円座町１１６１,歯科　小児歯科　矯正歯科,,,9" xlink:title="奥村歯科" transform="ref(svg,13665.2213,-3444.5913)" x="0" y="0"/>
</g>
</svg>
