<?xml version="1.0" encoding="UTF-8"?>
<svg  xmlns="http://www.w3.org/2000/svg" xmlns:xlink="http://www.w3.org/1999/xlink" xmlns:go="http://purl.org/svgmap/profile" property="医療機関分類,施設名称,所在地,診療科目１,診療科目２,診療科目３,開設者分類" viewBox="13886.71875 -3550.78125 35.15625 35.15625" go:dataArea="13886.71875 -3550.78125 35.15625 35.15625" >
<metadata>
 <rdf:RDF xmlns:rdf="http://www.w3.org/1999/02/22-rdf-syntax-ns#" xmlns:crs="http://opengis.org/xmldtds/transformations.dtd" xmlns:svg="http://www.w3.org/svg" >
  <rdf:Description>
   <crs:CoordinateReferenceSystem rdf:resource="http://purl.org/crs/84" svg:transform="matrix(100.0,0.0,0.0,-100.0,0.0,0.0)" />
  </rdf:Description>
 </rdf:RDF>
</metadata>
<globalCoordinateSystem srsName="http://purl.org/crs/84" transform="matrix(100.0,0.0,0.0,-100.0,0.0,0.0)" />
<defs>
 <g id="p0" >
  <image xlink:href="mappin.png" preserveAspectRatio="none" x="-8" y="-25" width="19" height="27"/>
 </g>
 <g id="p1" >
  <image xlink:href="mappin1.png" preserveAspectRatio="none" x="-8" y="-25" width="19" height="27"/>
 </g>
 <g id="p2" >
  <image xlink:href="mappin2.png" preserveAspectRatio="none" x="-8" y="-25" width="19" height="27"/>
 </g>
 <g id="p3" >
  <image xlink:href="mappin3.png" preserveAspectRatio="none" x="-8" y="-25" width="19" height="27"/>
 </g>
 <g id="p4" >
  <image xlink:href="mappin4.png" preserveAspectRatio="none" x="-8" y="-25" width="19" height="27"/>
 </g>
 <g id="p5" >
  <image xlink:href="mappin5.png" preserveAspectRatio="none" x="-8" y="-25" width="19" height="27"/>
 </g>
 <g id="p6" >
  <image xlink:href="mappin6.png" preserveAspectRatio="none" x="-8" y="-25" width="19" height="27"/>
 </g>
 <g id="p7" >
  <image xlink:href="mappin7.png" preserveAspectRatio="none" x="-8" y="-25" width="19" height="27"/>
 </g>
 <g id="p8" >
  <image xlink:href="mappin8.png" preserveAspectRatio="none" x="-8" y="-25" width="19" height="27"/>
 </g>
 <g id="p9" >
  <image xlink:href="mappin9.png" preserveAspectRatio="none" x="-8" y="-25" width="19" height="27"/>
 </g>
</defs>
<g fill="green" fill-rule="evenodd" >
<use xlink:href="#p0" content="3,久崎歯科医院,神奈川県小田原市城山１-６-３７,歯科,,,9" xlink:title="久崎歯科医院" transform="ref(svg,13915.2807,-3525.7083)" x="0" y="0"/>
<use xlink:href="#p0" content="3,桑原歯科医院,神奈川県小田原市浜町１-１-２９,歯科,,,9" xlink:title="桑原歯科医院" transform="ref(svg,13916.2028,-3525.2536)" x="0" y="0"/>
<use xlink:href="#p0" content="3,曽根歯科医院,神奈川県小田原市本町２-１３-２８,歯科　小児歯科,,,9" xlink:title="曽根歯科医院" transform="ref(svg,13916.0716,-3524.8859)" x="0" y="0"/>
<use xlink:href="#p0" content="3,（医）成美会高橋歯科医院,神奈川県小田原市栄町２-１-１３,歯科,,,9" xlink:title="（医）成美会高橋歯科医院" transform="ref(svg,13915.7396,-3525.6165)" x="0" y="0"/>
<use xlink:href="#p0" content="3,普川歯科医院,神奈川県小田原市本町２-６-５,歯科,,,9" xlink:title="普川歯科医院" transform="ref(svg,13916.1113,-3525.04)" x="0" y="0"/>
<use xlink:href="#p0" content="3,松尾歯科医院,神奈川県小田原市酒匂２-１５-１２,歯科,,,9" xlink:title="松尾歯科医院" transform="ref(svg,13918.9244,-3526.9007)" x="0" y="0"/>
<use xlink:href="#p0" content="3,渡辺歯科医院,神奈川県小田原市堀之内若宮２００-１３,歯科,,,9" xlink:title="渡辺歯科医院" transform="ref(svg,13914.6616,-3529.5296)" x="0" y="0"/>
<use xlink:href="#p0" content="3,渋谷歯科医院,神奈川県小田原市本町１-１-８,歯科,,,9" xlink:title="渋谷歯科医院" transform="ref(svg,13915.8546,-3525.1959)" x="0" y="0"/>
<use xlink:href="#p0" content="3,（医）安西歯科医院,神奈川県小田原市寿町３-１０-１８,歯科　矯正歯科　小児歯科,,,9" xlink:title="（医）安西歯科医院" transform="ref(svg,13916.8694,-3526.0896)" x="0" y="0"/>
<use xlink:href="#p0" content="3,（医）勝正会柏木歯科医院,神奈川県小田原市本町１-１-１２,歯科　矯正歯科　小児歯科,,,9" xlink:title="（医）勝正会柏木歯科医院" transform="ref(svg,13915.8865,-3525.1968)" x="0" y="0"/>
<use xlink:href="#p0" content="3,津川歯科医院,神奈川県小田原市扇町３-１３-１０,歯科,,,9" xlink:title="津川歯科医院" transform="ref(svg,13915.8521,-3527.0405)" x="0" y="0"/>
<use xlink:href="#p0" content="3,（医）西山歯科医院,神奈川県小田原市栄町１-２-２５,歯科　小児歯科,,,9" xlink:title="（医）西山歯科医院" transform="ref(svg,13915.7051,-3525.4635)" x="0" y="0"/>
<use xlink:href="#p0" content="3,杉崎歯科医院,神奈川県小田原市栄町１-１４-５４込山ビル４Ｆ,歯科,,,9" xlink:title="杉崎歯科医院" transform="ref(svg,13915.7869,-3525.4325)" x="0" y="0"/>
<use xlink:href="#p0" content="3,鵜塚歯科医院,神奈川県小田原市中町１-４-２６,歯科,,,9" xlink:title="鵜塚歯科医院" transform="ref(svg,13916.1466,-3525.872)" x="0" y="0"/>
<use xlink:href="#p0" content="3,鈴木歯科医院,神奈川県小田原市国府津２-３-２１,歯科,,,9" xlink:title="鈴木歯科医院" transform="ref(svg,13920.8604,-3527.9749)" x="0" y="0"/>
<use xlink:href="#p0" content="3,伊東歯科医院,神奈川県小田原市国府津１-６-１４,歯科,,,9" xlink:title="伊東歯科医院" transform="ref(svg,13920.474,-3527.8076)" x="0" y="0"/>
<use xlink:href="#p0" content="3,（医）椎野歯科医院,神奈川県小田原市成田２８８,歯科,,,9" xlink:title="（医）椎野歯科医院" transform="ref(svg,13917.0246,-3529.2027)" x="0" y="0"/>
<use xlink:href="#p0" content="3,池田歯科医院,神奈川県小田原市南鴨宮２-４０-１４-１０６,歯科,,,9" xlink:title="池田歯科医院" transform="ref(svg,13918.075,-3527.0193)" x="0" y="0"/>
<use xlink:href="#p0" content="3,高橋歯科医院,神奈川県小田原市栄町１-１５-５,歯科,,,9" xlink:title="高橋歯科医院" transform="ref(svg,13915.8946,-3525.3365)" x="0" y="0"/>
<use xlink:href="#p0" content="3,吉田歯科医院,神奈川県小田原市蓮正寺３７０-１７,歯科,,,9" xlink:title="吉田歯科医院" transform="ref(svg,13915.3329,-3528.4543)" x="0" y="0"/>
<use xlink:href="#p0" content="3,村上矯正歯科クリニック,神奈川県小田原市栄町２-１５-２１,矯正歯科,,,9" xlink:title="村上矯正歯科クリニック" transform="ref(svg,13916.1211,-3525.596)" x="0" y="0"/>
<use xlink:href="#p0" content="3,箱根宮城野歯科診療所,神奈川県足柄下郡箱根町宮城野６２２-４,歯科,,,9" xlink:title="箱根宮城野歯科診療所" transform="ref(svg,13905.0157,-3525.4477)" x="0" y="0"/>
<use xlink:href="#p0" content="3,ユー歯科箱根診療所,神奈川県足柄下郡箱根町宮ノ下３９７,歯科,,,9" xlink:title="ユー歯科箱根診療所" transform="ref(svg,13906.1174,-3524.3478)" x="0" y="0"/>
<use xlink:href="#p0" content="3,（医）河正会こうの歯科診療所,神奈川県小田原市鴨宮６０１-５,歯科　矯正歯科　小児歯科,,,9" xlink:title="（医）河正会こうの歯科診療所" transform="ref(svg,13917.7067,-3528.1168)" x="0" y="0"/>
<use xlink:href="#p0" content="3,和田歯科医院,神奈川県小田原市荻窪字宮窪５８８-７,歯科,,,9" xlink:title="和田歯科医院" transform="ref(svg,13915.0474,-3526.5078)" x="0" y="0"/>
<use xlink:href="#p0" content="3,堀内歯科医院,神奈川県小田原市栄町２-８-４３中川ビル２Ｆ,歯科,,,9" xlink:title="堀内歯科医院" transform="ref(svg,13915.7767,-3525.5178)" x="0" y="0"/>
<use xlink:href="#p0" content="3,箱根歯科医院,神奈川県足柄下郡箱根町湯本７０６-１６,歯科,,,9" xlink:title="箱根歯科医院" transform="ref(svg,13910.3775,-3523.2809)" x="0" y="0"/>
<use xlink:href="#p0" content="3,片山歯科医院,神奈川県小田原市曽比１７４８,歯科,,,9" xlink:title="片山歯科医院" transform="ref(svg,13914.1782,-3531.0471)" x="0" y="0"/>
<use xlink:href="#p0" content="3,加藤歯科医院,神奈川県小田原市南町３-１-４２,歯科,,,9" xlink:title="加藤歯科医院" transform="ref(svg,13915.187,-3524.6243)" x="0" y="0"/>
<use xlink:href="#p0" content="3,ア歯科亀井診療所,神奈川県小田原市荻窪２６２-５,歯科　矯正歯科　小児歯科　歯科口腔外科,,,9" xlink:title="ア歯科亀井診療所" transform="ref(svg,13915.5205,-3526.3379)" x="0" y="0"/>
<use xlink:href="#p0" content="3,平間歯科真鶴医院,神奈川県足柄下郡真鶴町真鶴２００-１,歯科,,,9" xlink:title="平間歯科真鶴医院" transform="ref(svg,13914.1583,-3515.7897)" x="0" y="0"/>
<use xlink:href="#p0" content="3,鴨宮歯科医院,神奈川県小田原市鴨宮１６２-１湘南大竹ビル,歯科,,,9" xlink:title="鴨宮歯科医院" transform="ref(svg,13917.835,-3527.7063)" x="0" y="0"/>
<use xlink:href="#p0" content="3,ほたるだ歯科医院,神奈川県小田原市蓮正寺４７０-１０９,歯科　矯正歯科　小児歯科　歯科口腔外科,,,9" xlink:title="ほたるだ歯科医院" transform="ref(svg,13915.5964,-3528.4181)" x="0" y="0"/>
<use xlink:href="#p0" content="3,たかはし歯科医院,神奈川県小田原市堀之内２４４,歯科　小児歯科,,,9" xlink:title="たかはし歯科医院" transform="ref(svg,13914.6191,-3529.6269)" x="0" y="0"/>
<use xlink:href="#p0" content="3,銀座通り歯科,神奈川県小田原市本町２-２-１６-２０１,歯科,,,9" xlink:title="銀座通り歯科" transform="ref(svg,13916.0023,-3525.1936)" x="0" y="0"/>
<use xlink:href="#p0" content="3,国原歯科医院,神奈川県小田原市飯田岡１３７,歯科,,,9" xlink:title="国原歯科医院" transform="ref(svg,13914.5405,-3529.4708)" x="0" y="0"/>
<use xlink:href="#p0" content="3,村山歯科医院,神奈川県小田原市栄町４-１１-６,歯科,,,9" xlink:title="村山歯科医院" transform="ref(svg,13916.1364,-3525.7914)" x="0" y="0"/>
<use xlink:href="#p0" content="3,石井歯科クリニック,神奈川県小田原市田島１１６２-１０,歯科,,,9" xlink:title="石井歯科クリニック" transform="ref(svg,13920.0924,-3529.3325)" x="0" y="0"/>
<use xlink:href="#p0" content="3,ふるい歯科医院,神奈川県小田原市矢作１４５-１,歯科,,,9" xlink:title="ふるい歯科医院" transform="ref(svg,13918.0351,-3528.6072)" x="0" y="0"/>
<use xlink:href="#p0" content="3,サイトウ歯科医院,神奈川県小田原市栄町４-２-３０,歯科,,,9" xlink:title="サイトウ歯科医院" transform="ref(svg,13916.2105,-3525.4233)" x="0" y="0"/>
<use xlink:href="#p0" content="3,中川矯正歯科,神奈川県小田原市千代６５４-１,歯科　矯正歯科,,,9" xlink:title="中川矯正歯科" transform="ref(svg,13918.0024,-3529.5292)" x="0" y="0"/>
<use xlink:href="#p0" content="3,難波歯科医院,神奈川県小田原市本町１-１-３　１階,歯科,,,9" xlink:title="難波歯科医院" transform="ref(svg,13915.7884,-3525.1952)" x="0" y="0"/>
<use xlink:href="#p0" content="3,大田尾歯科医院,神奈川県小田原市栄町２-１２-３,歯科,,,9" xlink:title="大田尾歯科医院" transform="ref(svg,13916.0027,-3525.6443)" x="0" y="0"/>
<use xlink:href="#p0" content="3,小田原市休日急患歯科診療所,神奈川県小田原市酒匂２-３２-１６,歯科,,,9" xlink:title="小田原市休日急患歯科診療所" transform="ref(svg,13918.4948,-3526.8433)" x="0" y="0"/>
<use xlink:href="#p0" content="3,新村歯科分院,神奈川県小田原市国府津４-２-１,歯科,,,9" xlink:title="新村歯科分院" transform="ref(svg,13921.2778,-3528.0456)" x="0" y="0"/>
<use xlink:href="#p0" content="3,新井歯科医院,神奈川県小田原市南鴨宮３-４０-３２,歯科,,,9" xlink:title="新井歯科医院" transform="ref(svg,13918.2679,-3527.3799)" x="0" y="0"/>
<use xlink:href="#p0" content="3,（医）健孝仁会ドリーム歯科西山,神奈川県小田原市荻窪３０７飯塚ビル３Ｆ,歯科　矯正歯科　小児歯科　歯科口腔外科,,,9" xlink:title="（医）健孝仁会ドリーム歯科西山" transform="ref(svg,13915.076,-3526.4225)" x="0" y="0"/>
<use xlink:href="#p0" content="3,ワタナベ歯科医院,神奈川県小田原市国府津字三ツ寄２７８０-１,歯科　小児歯科,,,9" xlink:title="ワタナベ歯科医院" transform="ref(svg,13919.7821,-3528.3033)" x="0" y="0"/>
<use xlink:href="#p0" content="3,さくら歯科医院,神奈川県小田原市曽比２１５９-１,歯科　矯正歯科　小児歯科,,,9" xlink:title="さくら歯科医院" transform="ref(svg,13913.8527,-3530.965)" x="0" y="0"/>
<use xlink:href="#p0" content="3,愛歯科クリニック,神奈川県小田原市飯田岡５５０-１,歯科　小児歯科,,,9" xlink:title="愛歯科クリニック" transform="ref(svg,13913.8592,-3528.7686)" x="0" y="0"/>
<use xlink:href="#p0" content="3,瀧本歯科医院,神奈川県小田原市南鴨宮３-４４-４０,歯科　矯正歯科　小児歯科,,,9" xlink:title="瀧本歯科医院" transform="ref(svg,13918.0748,-3527.4725)" x="0" y="0"/>
<use xlink:href="#p0" content="3,堀歯科医院,神奈川県小田原市栄町２-１５-１０,歯科,,,9" xlink:title="堀歯科医院" transform="ref(svg,13916.078,-3525.5968)" x="0" y="0"/>
<use xlink:href="#p0" content="3,川瀬歯科医院,神奈川県小田原市酒匂３-１２-１７シャンロックマンション１Ｆ,歯科,,,9" xlink:title="川瀬歯科医院" transform="ref(svg,13918.9911,-3526.6613)" x="0" y="0"/>
<use xlink:href="#p0" content="3,杉山歯科医院,神奈川県小田原市荻窪４３３,歯科　小児歯科　歯科口腔外科,,,9" xlink:title="杉山歯科医院" transform="ref(svg,13915.2426,-3526.2325)" x="0" y="0"/>
<use xlink:href="#p0" content="3,白山歯科クリニック,神奈川県小田原市扇町３-２７-２０,歯科　矯正歯科　小児歯科　歯科口腔外科,,,9" xlink:title="白山歯科クリニック" transform="ref(svg,13915.6488,-3527.2243)" x="0" y="0"/>
<use xlink:href="#p0" content="3,おおき歯科医院,神奈川県小田原市栢山２６３６-１城北ビル２Ｆ,歯科　小児歯科,,,9" xlink:title="おおき歯科医院" transform="ref(svg,13914.3181,-3531.0292)" x="0" y="0"/>
<use xlink:href="#p0" content="3,（医）高木歯科,神奈川県小田原市栄町２-８-３７長谷川建材ビル４Ｆ,歯科,,,9" xlink:title="（医）高木歯科" transform="ref(svg,13915.8211,-3525.4796)" x="0" y="0"/>
<use xlink:href="#p0" content="3,なつめ歯科医院,神奈川県小田原市栄町２-１０-１,歯科,,,9" xlink:title="なつめ歯科医院" transform="ref(svg,13915.9076,-3525.5951)" x="0" y="0"/>
<use xlink:href="#p0" content="3,あさだ歯科医院,神奈川県小田原市成田４７６-１,歯科,,,9" xlink:title="あさだ歯科医院" transform="ref(svg,13916.669,-3529.029)" x="0" y="0"/>
<use xlink:href="#p0" content="3,新村歯科医院,神奈川県小田原市飯田岡７６-１２,歯科,,,9" xlink:title="新村歯科医院" transform="ref(svg,13914.8873,-3529.0274)" x="0" y="0"/>
<use xlink:href="#p0" content="3,中山歯科医院,神奈川県小田原市千代２０８-１２,歯科　小児歯科,,,9" xlink:title="中山歯科医院" transform="ref(svg,13918.5006,-3529.9051)" x="0" y="0"/>
<use xlink:href="#p0" content="3,古藤歯科医院,神奈川県小田原市小八幡７６８-４,歯科　歯科口腔外科,,,9" xlink:title="古藤歯科医院" transform="ref(svg,13919.9018,-3527.9479)" x="0" y="0"/>
<use xlink:href="#p0" content="3,武田歯科医院,神奈川県小田原市久野１０８０-６,歯科,,,9" xlink:title="武田歯科医院" transform="ref(svg,13914.087,-3526.9226)" x="0" y="0"/>
<use xlink:href="#p0" content="3,日比野歯科医院,神奈川県小田原市栄町２-１３-１１西部ビル３Ｆ,歯科,,,9" xlink:title="日比野歯科医院" transform="ref(svg,13916.0011,-3525.5047)" x="0" y="0"/>
<use xlink:href="#p0" content="3,北ノ窪歯科医院,神奈川県小田原市北ノ窪３９５,歯科　矯正歯科　小児歯科　歯科口腔外科,,,9" xlink:title="北ノ窪歯科医院" transform="ref(svg,13913.4196,-3529.0563)" x="0" y="0"/>
<use xlink:href="#p0" content="3,慶歯科医院,神奈川県小田原市飯泉９６３-３,歯科,,,9" xlink:title="慶歯科医院" transform="ref(svg,13916.7523,-3527.7893)" x="0" y="0"/>
<use xlink:href="#p0" content="3,小田原市歯科二次診療所,神奈川県小田原市南鴨宮２-２７-１９,歯科,,,9" xlink:title="小田原市歯科二次診療所" transform="ref(svg,13917.762,-3527.1445)" x="0" y="0"/>
<use xlink:href="#p0" content="3,山田歯科,神奈川県小田原市城内１-３６-１,歯科　矯正歯科,,,9" xlink:title="山田歯科" transform="ref(svg,13915.5782,-3525.2259)" x="0" y="0"/>
<use xlink:href="#p0" content="3,安藤歯科医院,神奈川県小田原市西大友１３０,歯科　小児歯科,,,9" xlink:title="安藤歯科医院" transform="ref(svg,13916.6852,-3530.4289)" x="0" y="0"/>
<use xlink:href="#p0" content="3,板橋歯科医院,神奈川県小田原市板橋１５８-１０,歯科,,,9" xlink:title="板橋歯科医院" transform="ref(svg,13914.401,-3524.5982)" x="0" y="0"/>
<use xlink:href="#p0" content="3,（医）難波歯科,神奈川県小田原市栢山２３４０,歯科　矯正歯科　小児歯科　歯科口腔外科,,,9" xlink:title="（医）難波歯科" transform="ref(svg,13914.3444,-3530.7124)" x="0" y="0"/>
<use xlink:href="#p0" content="3,（医）中野歯科医院,神奈川県小田原市栄町２-７-３９重の井ビル３Ｆ,歯科,,,9" xlink:title="（医）中野歯科医院" transform="ref(svg,13915.7752,-3525.5482)" x="0" y="0"/>
<use xlink:href="#p0" content="3,湯本歯科診療所,神奈川県足柄下郡箱根町湯本６９１-１０浅野ビル２０１,歯科,,,9" xlink:title="湯本歯科診療所" transform="ref(svg,13910.1651,-3523.1893)" x="0" y="0"/>
<use xlink:href="#p0" content="3,そらまめ歯科医院,神奈川県小田原市扇町５-１４-２,歯科,,,9" xlink:title="そらまめ歯科医院" transform="ref(svg,13915.9108,-3527.2861)" x="0" y="0"/>
<use xlink:href="#p0" content="3,まつした歯科医院,神奈川県小田原市成田１６８,歯科　小児歯科,,,9" xlink:title="まつした歯科医院" transform="ref(svg,13916.8314,-3528.7928)" x="0" y="0"/>
<use xlink:href="#p0" content="3,（医）角理会小田原アルカディア歯科,神奈川県小田原市中里２０８ダイナシティウエスト４Ｆ,歯科　矯正歯科　小児歯科　歯科口腔外科,,,9" xlink:title="（医）角理会小田原アルカディア歯科" transform="ref(svg,13918.5852,-3528.377)" x="0" y="0"/>
<use xlink:href="#p0" content="3,川野歯科,神奈川県小田原市城山１-６-２７,歯科,,,9" xlink:title="川野歯科" transform="ref(svg,13915.2939,-3525.612)" x="0" y="0"/>
<use xlink:href="#p0" content="3,（医）聖広会福井歯科クリニック,神奈川県小田原市中里１９０-３,歯科　小児歯科,,,9" xlink:title="（医）聖広会福井歯科クリニック" transform="ref(svg,13918.466,-3528.0029)" x="0" y="0"/>
<use xlink:href="#p0" content="3,西湘歯科医院,神奈川県小田原市中里４０４-３,歯科　歯科口腔外科,,,9" xlink:title="西湘歯科医院" transform="ref(svg,13918.5439,-3528.5974)" x="0" y="0"/>
<use xlink:href="#p0" content="3,杉崎歯科クリニック,神奈川県小田原市久野４５１,歯科,,,9" xlink:title="杉崎歯科クリニック" transform="ref(svg,13915.0154,-3526.8613)" x="0" y="0"/>
<use xlink:href="#p0" content="3,洲脇歯科医院,神奈川県小田原市扇町２-２３-１,歯科　矯正歯科　小児歯科,,,9" xlink:title="洲脇歯科医院" transform="ref(svg,13915.9237,-3526.9292)" x="0" y="0"/>
<use xlink:href="#p0" content="3,ひまわり歯科医院,神奈川県小田原市堀ノ内１９３-５,歯科　矯正歯科　小児歯科,,,9" xlink:title="ひまわり歯科医院" transform="ref(svg,13914.7468,-3529.6378)" x="0" y="0"/>
<use xlink:href="#p0" content="3,ゆたか歯科医院,神奈川県小田原市鴨宮１４-７早野店舗１Ｆ,歯科　小児歯科,,,9" xlink:title="ゆたか歯科医院" transform="ref(svg,13917.9021,-3527.6865)" x="0" y="0"/>
<use xlink:href="#p0" content="3,西本歯科医院,神奈川県小田原市中里２８５-１０,歯科　小児歯科　歯科口腔外科,,,9" xlink:title="西本歯科医院" transform="ref(svg,13918.7672,-3528.0079)" x="0" y="0"/>
<use xlink:href="#p0" content="3,中村歯科医院,神奈川県小田原市曽我原１２７,歯科,,,9" xlink:title="中村歯科医院" transform="ref(svg,13918.8561,-3530.2305)" x="0" y="0"/>
<use xlink:href="#p0" content="3,ショウジ歯科クリニック,神奈川県小田原市栄町２-８-１５長崎屋小田原店４階,歯科　矯正歯科　小児歯科　歯科口腔外科,,,9" xlink:title="ショウジ歯科クリニック" transform="ref(svg,13915.8428,-3525.5078)" x="0" y="0"/>
<use xlink:href="#p0" content="3,つちや歯科医院,神奈川県足柄下郡箱根町宮城野１０７,歯科　矯正歯科,,,9" xlink:title="つちや歯科医院" transform="ref(svg,13905.139,-3525.2923)" x="0" y="0"/>
<use xlink:href="#p0" content="3,中西歯科,神奈川県小田原市田島１４-１,歯科　矯正歯科　小児歯科　歯科口腔外科,,,9" xlink:title="中西歯科" transform="ref(svg,13919.0707,-3528.4984)" x="0" y="0"/>
<use xlink:href="#p0" content="3,辻内歯科医院,神奈川県足柄下郡箱根町仙石原１７-１,歯科,,,9" xlink:title="辻内歯科医院" transform="ref(svg,13901.223,-3527.133)" x="0" y="0"/>
<use xlink:href="#p0" content="3,橋本歯科医院,神奈川県小田原市栄町２-５-２２,歯科,,,9" xlink:title="橋本歯科医院" transform="ref(svg,13915.8797,-3525.7133)" x="0" y="0"/>
<use xlink:href="#p0" content="3,椿矯正歯科クリニック,神奈川県小田原市南鴨宮３-２７-７,歯科　矯正歯科,,,9" xlink:title="椿矯正歯科クリニック" transform="ref(svg,13918.3324,-3527.1953)" x="0" y="0"/>
<use xlink:href="#p0" content="3,廣井歯科医院,神奈川県小田原市蓮正寺４８-２９,歯科　小児歯科　歯科口腔外科,,,9" xlink:title="廣井歯科医院" transform="ref(svg,13915.1847,-3529.0005)" x="0" y="0"/>
<use xlink:href="#p0" content="3,あいび歯科・矯正歯科,神奈川県小田原市飯田岡３８２-６,歯科　矯正歯科　小児歯科,,,9" xlink:title="あいび歯科・矯正歯科" transform="ref(svg,13914.4336,-3528.9578)" x="0" y="0"/>
<use xlink:href="#p0" content="3,青山デンタルクリニック,神奈川県小田原市南鴨宮２-３３-３,歯科　小児歯科　歯科口腔外科,,,9" xlink:title="青山デンタルクリニック" transform="ref(svg,13917.7801,-3527.1067)" x="0" y="0"/>
<use xlink:href="#p0" content="3,松本歯科小田原医院,神奈川県小田原市扇町３-２８-６足柄ハイツ１Ｆ,歯科　小児歯科　歯科口腔外科,,,9" xlink:title="松本歯科小田原医院" transform="ref(svg,13915.5187,-3527.1667)" x="0" y="0"/>
<use xlink:href="#p0" content="3,さかわ歯科クリニック,神奈川県小田原市酒匂５-５-１７安池ビル１階,歯科　矯正歯科　小児歯科,,,9" xlink:title="さかわ歯科クリニック" transform="ref(svg,13919.2712,-3526.8293)" x="0" y="0"/>
<use xlink:href="#p0" content="3,デンタルクリニック箱根板橋,神奈川県小田原市板橋７６３-３０,歯科　矯正歯科　小児歯科,,,9" xlink:title="デンタルクリニック箱根板橋" transform="ref(svg,13914.5635,-3524.9189)" x="0" y="0"/>
<use xlink:href="#p0" content="3,オリーブ歯科,神奈川県小田原市扇町３-２２-１,歯科　矯正歯科　小児歯科,,,9" xlink:title="オリーブ歯科" transform="ref(svg,13915.7292,-3526.828)" x="0" y="0"/>
<use xlink:href="#p0" content="3,吉井歯科医院,神奈川県小田原市栄町２-１５-１６,歯科　矯正歯科　小児歯科　歯科口腔外科,,,9" xlink:title="吉井歯科医院" transform="ref(svg,13916.1073,-3525.6064)" x="0" y="0"/>
<use xlink:href="#p0" content="3,青柳歯科医院,神奈川県小田原市栄町２-８-２０,歯科　小児歯科　歯科口腔外科,,,9" xlink:title="青柳歯科医院" transform="ref(svg,13916.0775,-3525.4183)" x="0" y="0"/>
<use xlink:href="#p0" content="3,すだ歯科クリニック,神奈川県小田原市寿町５-１２-２９,歯科　矯正歯科　小児歯科　歯科口腔外科,,,9" xlink:title="すだ歯科クリニック" transform="ref(svg,13917.291,-3526.3437)" x="0" y="0"/>
<use xlink:href="#p0" content="3,石井歯科医院,神奈川県小田原市栄町１-５-１サーパスシティ小田原１０２,歯科　小児歯科　歯科口腔外科,,,9" xlink:title="石井歯科医院" transform="ref(svg,13915.6506,-3525.4305)" x="0" y="0"/>
<use xlink:href="#p0" content="3,アクアデンタルクリニック,神奈川県小田原市中里４８-２ルーデンス１Ｆ,歯科　矯正歯科　小児歯科　歯科口腔外科,,,9" xlink:title="アクアデンタルクリニック" transform="ref(svg,13918.4137,-3528.6004)" x="0" y="0"/>
<use xlink:href="#p0" content="3,和穂歯科医院,神奈川県小田原市本町２-９-６　２Ｆ,歯科,,,9" xlink:title="和穂歯科医院" transform="ref(svg,13916.0059,-3525.0471)" x="0" y="0"/>
<use xlink:href="#p0" content="3,いけだ歯科,神奈川県小田原市栄町１-１４-１実正堂ビル２階,歯科　矯正歯科　小児歯科　歯科口腔外科,,,9" xlink:title="いけだ歯科" transform="ref(svg,13915.7744,-3525.4767)" x="0" y="0"/>
<use xlink:href="#p0" content="3,早野歯科医院,神奈川県小田原市南町４-１-１,歯科　小児歯科　歯科口腔外科,,,9" xlink:title="早野歯科医院" transform="ref(svg,13915.0377,-3524.6493)" x="0" y="0"/>
<use xlink:href="#p0" content="3,さとう歯科医院,神奈川県小田原市鴨宮６４３鴨宮グランドコート１Ｆ,歯科,,,9" xlink:title="さとう歯科医院" transform="ref(svg,13917.7422,-3527.9284)" x="0" y="0"/>
<use xlink:href="#p0" content="3,ノアデンタルクリニック,神奈川県小田原市小八幡７６６-１,歯科　矯正歯科　小児歯科,,,9" xlink:title="ノアデンタルクリニック" transform="ref(svg,13919.9533,-3527.9535)" x="0" y="0"/>
<use xlink:href="#p0" content="3,フレスポ・オレンジ歯科,神奈川県小田原市前川１２０フレスポ小田原シティーモール２階,歯科　矯正歯科　小児歯科,,,9" xlink:title="フレスポ・オレンジ歯科" transform="ref(svg,13919.3929,-3528.215)" x="0" y="0"/>
<use xlink:href="#p0" content="3,かつまた歯科クリニック,神奈川県小田原市浜町１-３-２２,歯科　矯正歯科　小児歯科　歯科口腔外科,,,9" xlink:title="かつまた歯科クリニック" transform="ref(svg,13916.19,-3525.0917)" x="0" y="0"/>
<use xlink:href="#p0" content="3,タキ歯科クリニック,神奈川県小田原市中町３-１１-２６,歯科　矯正歯科　小児歯科　歯科口腔外科,,,9" xlink:title="タキ歯科クリニック" transform="ref(svg,13916.7594,-3525.6762)" x="0" y="0"/>
<use xlink:href="#p0" content="3,伊藤デンタルクリニック,神奈川県小田原市栄町１-８-１Ｙ＆Ｙビル５階,歯科　矯正歯科　小児歯科　歯科口腔外科,,,9" xlink:title="伊藤デンタルクリニック" transform="ref(svg,13915.6256,-3525.4015)" x="0" y="0"/>
<use xlink:href="#p0" content="3,（医）泰晴会らいおん歯科クリニック箱根湯本,神奈川県足柄下郡箱根町湯本字後山２２６-１,歯科　矯正歯科　小児歯科　歯科口腔外科,,,9" xlink:title="（医）泰晴会らいおん歯科クリニック箱根湯本" transform="ref(svg,13910.8034,-3523.3241)" x="0" y="0"/>
<use xlink:href="#p0" content="3,サンフラワー小田原歯科,神奈川県小田原市寿町５-１２-２０,歯科,,,9" xlink:title="サンフラワー小田原歯科" transform="ref(svg,13917.3121,-3526.357)" x="0" y="0"/>
<use xlink:href="#p0" content="3,ナオキ歯科,神奈川県小田原市堀之内２０１-４,歯科　小児歯科,,,9" xlink:title="ナオキ歯科" transform="ref(svg,13914.6662,-3529.5347)" x="0" y="0"/>
<use xlink:href="#p0" content="3,森井歯科医院,神奈川県小田原市中町１-７-１０,歯科　小児歯科　歯科口腔外科,,,9" xlink:title="森井歯科医院" transform="ref(svg,13916.2503,-3526.0185)" x="0" y="0"/>
<use xlink:href="#p0" content="3,あしがら西湘歯科診療所,神奈川県足柄下郡湯河原町鍛冶屋３９３,歯科　小児歯科　歯科口腔外科,,,9" xlink:title="あしがら西湘歯科診療所" transform="ref(svg,13911.0119,-3515.6594)" x="0" y="0"/>
<use xlink:href="#p0" content="3,（医）藤栄会小田原歯科診療所,神奈川県小田原市浜町１-１-４９後藤ビル１階,歯科　小児歯科　歯科口腔外科,,,9" xlink:title="（医）藤栄会小田原歯科診療所" transform="ref(svg,13916.16,-3525.373)" x="0" y="0"/>
<use xlink:href="#p0" content="3,山王歯科医院,神奈川県小田原市東町３-１１-１１,歯科　矯正歯科　小児歯科,,,9" xlink:title="山王歯科医院" transform="ref(svg,13917.5117,-3525.8167)" x="0" y="0"/>
<use xlink:href="#p0" content="3,いちかわ歯科医院,神奈川県小田原市南鴨宮２-２７-１１,歯科　矯正歯科　小児歯科　歯科口腔外科,,,9" xlink:title="いちかわ歯科医院" transform="ref(svg,13917.7459,-3527.1823)" x="0" y="0"/>
<use xlink:href="#p0" content="3,あおばデンタルクリニック,神奈川県小田原市下新田２２１-６　３階,歯科　矯正歯科　小児歯科　歯科口腔外科,,,9" xlink:title="あおばデンタルクリニック" transform="ref(svg,13917.6339,-3527.5526)" x="0" y="0"/>
<use xlink:href="#p0" content="3,（医）恵聖会天野歯科医院,神奈川県小田原市栄町１-３-１０,歯科　矯正歯科,,,9" xlink:title="（医）恵聖会天野歯科医院" transform="ref(svg,13915.6149,-3525.4773)" x="0" y="0"/>
<use xlink:href="#p0" content="3,小田原きづな歯科クリニック,神奈川県小田原市飯泉５４４-８,歯科　矯正歯科　小児歯科　歯科口腔外科,,,9" xlink:title="小田原きづな歯科クリニック" transform="ref(svg,13916.9465,-3528.2573)" x="0" y="0"/>
<use xlink:href="#p0" content="3,アイ歯科丹沢診療所,神奈川県秦野市横野９０,小児歯科　矯正歯科　歯科,,,9" xlink:title="アイ歯科丹沢診療所" transform="ref(svg,13919.2299,-3539.7335)" x="0" y="0"/>
<use xlink:href="#p0" content="3,あおぞら歯科,神奈川県秦野市堀川８１１-４,歯科　矯正歯科　小児歯科,,,9" xlink:title="あおぞら歯科" transform="ref(svg,13918.5945,-3537.8355)" x="0" y="0"/>
<use xlink:href="#p0" content="3,あお葉歯科,神奈川県秦野市西田原１２３８-２,歯科,,,9" xlink:title="あお葉歯科" transform="ref(svg,13921.6488,-3538.721)" x="0" y="0"/>
<use xlink:href="#p0" content="3,あかつき矯正歯科クリニック,神奈川県秦野市緑町１７-４０,歯科　矯正歯科,,,9" xlink:title="あかつき矯正歯科クリニック" transform="ref(svg,13920.878,-3537.2786)" x="0" y="0"/>
<use xlink:href="#p0" content="3,あすなろ歯科,神奈川県秦野市平沢３６７-１,歯科　小児歯科　矯正歯科　歯科口腔外科,,,9" xlink:title="あすなろ歯科" transform="ref(svg,13919.5073,-3537.1344)" x="0" y="0"/>
<use xlink:href="#p0" content="3,池田歯科医院,神奈川県秦野市平沢１０５５,歯科,,,9" xlink:title="池田歯科医院" transform="ref(svg,13921.2675,-3537.0017)" x="0" y="0"/>
<use xlink:href="#p0" content="3,石尾歯科医院,神奈川県秦野市堀西６８-１,歯科,,,9" xlink:title="石尾歯科医院" transform="ref(svg,13918.9612,-3537.7465)" x="0" y="0"/>
<use xlink:href="#p0" content="3,いちご歯科,神奈川県秦野市曽屋１１９６-５,歯科,,,9" xlink:title="いちご歯科" transform="ref(svg,13921.5913,-3538.1702)" x="0" y="0"/>
<use xlink:href="#p0" content="3,井上歯科医院,神奈川県秦野市曲松２-５-８あずまビル１Ｆ,歯科　小児歯科　矯正歯科,,,9" xlink:title="井上歯科医院" transform="ref(svg,13918.8186,-3537.18)" x="0" y="0"/>
<use xlink:href="#p0" content="3,岩田歯科医院,神奈川県秦野市柳町１-８-５,歯科,,,9" xlink:title="岩田歯科医院" transform="ref(svg,13918.2088,-3537.636)" x="0" y="0"/>
<use xlink:href="#p0" content="3,大平歯科医院,神奈川県秦野市春日町４-２２,歯科,,,9" xlink:title="大平歯科医院" transform="ref(svg,13918.2959,-3537.7876)" x="0" y="0"/>
<use xlink:href="#p0" content="3,かわな歯科矯正クリニック,神奈川県秦野市柳町１-２２-５栗原一夫ビル２Ｆ,歯科　矯正歯科,,,9" xlink:title="かわな歯科矯正クリニック" transform="ref(svg,13918.5396,-3537.4378)" x="0" y="0"/>
<use xlink:href="#p0" content="3,くさやま矯正歯科＆小児歯科,神奈川県秦野市平沢１４５５,矯正歯科　小児科,,,9" xlink:title="くさやま矯正歯科＆小児歯科" transform="ref(svg,13920.66,-3536.8481)" x="0" y="0"/>
<use xlink:href="#p0" content="3,グリーン歯科,神奈川県秦野市戸川４６６-３,歯科,,,9" xlink:title="グリーン歯科" transform="ref(svg,13919.0332,-3539.0341)" x="0" y="0"/>
<use xlink:href="#p0" content="3,郷土（ごうど）歯科医院,神奈川県秦野市沼代新町９-２５,歯科,,,9" xlink:title="郷土（ごうど）歯科医院" transform="ref(svg,13917.5678,-3537.4945)" x="0" y="0"/>
<use xlink:href="#p0" content="3,こまき歯科医院,神奈川県秦野市柳町２-７-２５須藤ビル２Ｆ,歯科,,,9" xlink:title="こまき歯科医院" transform="ref(svg,13918.068,-3537.495)" x="0" y="0"/>
<use xlink:href="#p0" content="3,澤田歯科医院,神奈川県秦野市萩が丘２-５,歯科　矯正歯科,,,9" xlink:title="澤田歯科医院" transform="ref(svg,13918.2017,-3537.2933)" x="0" y="0"/>
<use xlink:href="#p0" content="3,渋沢歯科医院,神奈川県秦野市柳町１-１６-１Ｔビル１Ｆ,歯科　歯科口腔外科　小児歯科,,,9" xlink:title="渋沢歯科医院" transform="ref(svg,13918.5456,-3537.5301)" x="0" y="0"/>
<use xlink:href="#p0" content="3,関根歯科医院渋沢,神奈川県秦野市曲松１-１-３Ｙスクエア２Ｆ,歯科　小児科　矯正歯科　歯科口腔外科,,,9" xlink:title="関根歯科医院渋沢" transform="ref(svg,13918.4046,-3537.3812)" x="0" y="0"/>
<use xlink:href="#p0" content="3,高橋デンタルクリニック,神奈川県秦野市曲松１-３-１９,小児歯科　歯科,,,9" xlink:title="高橋デンタルクリニック" transform="ref(svg,13918.4429,-3537.3208)" x="0" y="0"/>
<use xlink:href="#p0" content="3,田代歯科医院,神奈川県秦野市平沢５５１-５,歯科,,,9" xlink:title="田代歯科医院" transform="ref(svg,13920.5656,-3537.334)" x="0" y="0"/>
<use xlink:href="#p0" content="3,たに歯科医院,神奈川県秦野市菩提１７１-８,小児歯科　矯正歯科　歯科,,,9" xlink:title="たに歯科医院" transform="ref(svg,13919.8411,-3539.3413)" x="0" y="0"/>
<use xlink:href="#p0" content="3,たむら歯科医院,神奈川県秦野市千村２-６-６,歯科　小児歯科,,,9" xlink:title="たむら歯科医院" transform="ref(svg,13917.6815,-3537.1586)" x="0" y="0"/>
<use xlink:href="#p0" content="3,つゆき歯科クリニック,神奈川県秦野市曲松２-２-１２諸星ビル２Ｆ,歯科,,,9" xlink:title="つゆき歯科クリニック" transform="ref(svg,13918.5624,-3537.268)" x="0" y="0"/>
<use xlink:href="#p0" content="3,並木町歯科診療所,神奈川県秦野市並木町２-１,歯科,,,9" xlink:title="並木町歯科診療所" transform="ref(svg,13917.9233,-3537.7755)" x="0" y="0"/>
<use xlink:href="#p0" content="3,ねぎし歯科医院,神奈川県秦野市西田原２１１-１,歯科　小児歯科　矯正歯科　口腔外科,,,9" xlink:title="ねぎし歯科医院" transform="ref(svg,13921.4476,-3538.5998)" x="0" y="0"/>
<use xlink:href="#p0" content="3,原歯科医院,神奈川県秦野市渋沢１-１３-３１,歯科,,,9" xlink:title="原歯科医院" transform="ref(svg,13918.285,-3536.8818)" x="0" y="0"/>
<use xlink:href="#p0" content="3,平沢歯科,神奈川県秦野市平沢同明１１５２-１,歯科,,,9" xlink:title="平沢歯科" transform="ref(svg,13921.1454,-3536.8266)" x="0" y="0"/>
<use xlink:href="#p0" content="3,みのしま歯科医院,神奈川県秦野市柳町１-１７-１,歯科　小児歯科,,,9" xlink:title="みのしま歯科医院" transform="ref(svg,13918.5104,-3537.4791)" x="0" y="0"/>
<use xlink:href="#p0" content="3,三宅歯科医院,神奈川県秦野市弥生町５-７,歯科,,,9" xlink:title="三宅歯科医院" transform="ref(svg,13917.93,-3538.1938)" x="0" y="0"/>
<use xlink:href="#p0" content="3,山田歯科医院,神奈川県秦野市柳町１-７-１１,歯科,,,9" xlink:title="山田歯科医院" transform="ref(svg,13918.2565,-3537.6029)" x="0" y="0"/>
<use xlink:href="#p0" content="3,ゆあさ歯科医院,神奈川県秦野市堀川６６７,歯科　小児歯科,,,9" xlink:title="ゆあさ歯科医院" transform="ref(svg,13917.7949,-3538.7744)" x="0" y="0"/>
<use xlink:href="#p0" content="3,ゆう歯科医院,神奈川県秦野市堀川１２８みのりビル２Ｆ,歯科　小児歯科,,,9" xlink:title="ゆう歯科医院" transform="ref(svg,13918.763,-3538.112)" x="0" y="0"/>
<use xlink:href="#p0" content="3,らいおん歯科クリニック秦野,神奈川県秦野市水神町１０-２６,歯科　小児科　矯正歯科　歯科口腔外科,,,9" xlink:title="らいおん歯科クリニック秦野" transform="ref(svg,13921.7191,-3537.926)" x="0" y="0"/>
<use xlink:href="#p0" content="3,加藤歯科医院,神奈川県南足柄市壗下３８７,歯科,,,9" xlink:title="加藤歯科医院" transform="ref(svg,13911.3969,-3533.1312)" x="0" y="0"/>
<use xlink:href="#p0" content="3,渋谷歯科医院,神奈川県南足柄市和田河原９５５-１,歯科　歯科口腔外科,,,9" xlink:title="渋谷歯科医院" transform="ref(svg,13912.245,-3531.7588)" x="0" y="0"/>
<use xlink:href="#p0" content="3,瀬戸歯科医院,神奈川県南足柄市竹松１７４４,歯科　歯科口腔外科,,,9" xlink:title="瀬戸歯科医院" transform="ref(svg,13912.61,-3531.7555)" x="0" y="0"/>
<use xlink:href="#p0" content="3,園田歯科医院,神奈川県南足柄市千津島１２３３-１,歯科,,,9" xlink:title="園田歯科医院" transform="ref(svg,13910.8955,-3533.8087)" x="0" y="0"/>
<use xlink:href="#p0" content="3,（医）武尾歯科,神奈川県南足柄市塚原２６４２-４,歯科　矯正歯科　小児歯科　歯科口腔外科,,,9" xlink:title="（医）武尾歯科" transform="ref(svg,13912.6866,-3530.2004)" x="0" y="0"/>
<use xlink:href="#p0" content="3,武尾歯科クリニック,神奈川県南足柄市怒田７６８-１,歯科　矯正歯科,,,9" xlink:title="武尾歯科クリニック" transform="ref(svg,13910.6742,-3533.1398)" x="0" y="0"/>
<use xlink:href="#p0" content="3,たんぽぽ歯科医院,神奈川県南足柄市塚原１５３３,歯科　矯正歯科　小児歯科　歯科口腔外科,,,9" xlink:title="たんぽぽ歯科医院" transform="ref(svg,13912.5422,-3530.7086)" x="0" y="0"/>
<use xlink:href="#p0" content="3,辻浜歯科医院,神奈川県南足柄市中沼５８５,歯科　矯正歯科　小児歯科　歯科口腔外科,,,9" xlink:title="辻浜歯科医院" transform="ref(svg,13911.642,-3531.4141)" x="0" y="0"/>
<use xlink:href="#p0" content="3,土岐歯科医院,神奈川県南足柄市関本５６１-１,歯科　小児歯科　歯科口腔外科,,,9" xlink:title="土岐歯科医院" transform="ref(svg,13910.2679,-3531.9989)" x="0" y="0"/>
<use xlink:href="#p0" content="3,新村歯科医院,神奈川県南足柄市岩原１３６-２,歯科　矯正歯科　小児歯科　歯科口腔外科,,,9" xlink:title="新村歯科医院" transform="ref(svg,13913.0645,-3529.6282)" x="0" y="0"/>
<use xlink:href="#p0" content="3,萩原歯科医院,神奈川県南足柄市飯沢１１-４,歯科,,,9" xlink:title="萩原歯科医院" transform="ref(svg,13910.2356,-3531.8215)" x="0" y="0"/>
<use xlink:href="#p0" content="3,みつはし歯科医院,神奈川県南足柄市壗下１２２-１,歯科　矯正歯科　小児歯科,,,9" xlink:title="みつはし歯科医院" transform="ref(svg,13911.2039,-3533.0286)" x="0" y="0"/>
<use xlink:href="#p0" content="3,マキノ歯科医院,神奈川県南足柄市沼田１４-７,歯科　矯正歯科,,,9" xlink:title="マキノ歯科医院" transform="ref(svg,13913.6752,-3528.9537)" x="0" y="0"/>
<use xlink:href="#p0" content="3,松本歯科,神奈川県南足柄市和田河原５７９-１,歯科　小児歯科　歯科口腔外科,,,9" xlink:title="松本歯科" transform="ref(svg,13911.8672,-3531.577)" x="0" y="0"/>
<use xlink:href="#p0" content="3,北林歯科,神奈川県南足柄市中沼５３８-１１,歯科　小児歯科　歯科口腔外科,,,9" xlink:title="北林歯科" transform="ref(svg,13911.4565,-3531.5998)" x="0" y="0"/>
<use xlink:href="#p0" content="3,ささき歯科,神奈川県南足柄市中沼５７７-１,歯科　小児歯科　歯科口腔外科,,,9" xlink:title="ささき歯科" transform="ref(svg,13911.5504,-3531.4523)" x="0" y="0"/>
<use xlink:href="#p0" content="3,ウエストパーク・デンタル・クリニック,神奈川県南足柄市怒田７５５-１,歯科,,,9" xlink:title="ウエストパーク・デンタル・クリニック" transform="ref(svg,13910.6384,-3533.0477)" x="0" y="0"/>
<use xlink:href="#p0" content="3,杉山歯科医院,神奈川県南足柄市岩原２４０-１-１０２,歯科,,,9" xlink:title="杉山歯科医院" transform="ref(svg,13912.8389,-3529.8896)" x="0" y="0"/>
<use xlink:href="#p0" content="3,足柄歯科医師会歯科保健センター歯科診療所,神奈川県南足柄市班目１５４７,歯科　小児歯科,,,9" xlink:title="足柄歯科医師会歯科保健センター歯科診療所" transform="ref(svg,13910.5815,-3535.0414)" x="0" y="0"/>
<use xlink:href="#p0" content="3,小山歯科医院,神奈川県足柄上郡中井町松本１２-２,歯科　小児歯科,,,9" xlink:title="小山歯科医院" transform="ref(svg,13921.5432,-3533.2411)" x="0" y="0"/>
<use xlink:href="#p0" content="3,大井町歯科医院,神奈川県足柄上郡大井町金子３１２,歯科　小児歯科,,,9" xlink:title="大井町歯科医院" transform="ref(svg,13915.1698,-3533.6985)" x="0" y="0"/>
<use xlink:href="#p0" content="3,小宮歯科医院,神奈川県足柄上郡大井町西大井２６,歯科　小児歯科　歯科口腔外科,,,9" xlink:title="小宮歯科医院" transform="ref(svg,13915.2012,-3532.3925)" x="0" y="0"/>
<use xlink:href="#p0" content="3,鈴木歯科医院,神奈川県足柄上郡大井町金子２５９３-１,歯科,,,9" xlink:title="鈴木歯科医院" transform="ref(svg,13916.0713,-3532.4258)" x="0" y="0"/>
<use xlink:href="#p0" content="3,楢山歯科医院,神奈川県足柄上郡大井町金手９５５-３,歯科　小児歯科,,,9" xlink:title="楢山歯科医院" transform="ref(svg,13914.3907,-3533.292)" x="0" y="0"/>
<use xlink:href="#p0" content="3,間宮歯科医院,神奈川県足柄上郡大井町金子２１６,歯科,,,9" xlink:title="間宮歯科医院" transform="ref(svg,13915.0519,-3533.426)" x="0" y="0"/>
<use xlink:href="#p0" content="3,岡部歯科医院,神奈川県足柄上郡大井町金手１０８１-９,歯科　小児歯科,,,9" xlink:title="岡部歯科医院" transform="ref(svg,13914.4641,-3533.7704)" x="0" y="0"/>
<use xlink:href="#p0" content="3,めぐみ歯科医院,神奈川県足柄上郡大井町上大井１０４-１,歯科　小児歯科　矯正歯科,,,9" xlink:title="めぐみ歯科医院" transform="ref(svg,13915.8651,-3532.1317)" x="0" y="0"/>
<use xlink:href="#p0" content="3,大井松田ファミリー歯科,神奈川県足柄上郡大井町金子３４３ミマスモール２Ｆ２-０５,歯科　小児歯科　歯科口腔外科　矯正歯科,,,9" xlink:title="大井松田ファミリー歯科" transform="ref(svg,13915.0549,-3533.9506)" x="0" y="0"/>
<use xlink:href="#p0" content="3,鍵和田歯科医院,神奈川県足柄上郡松田町松田惣領１２１２-１,歯科　小児歯科　歯科口腔外科,,,9" xlink:title="鍵和田歯科医院" transform="ref(svg,13914.034,-3534.5818)" x="0" y="0"/>
<use xlink:href="#p0" content="3,渋谷歯科医院,神奈川県足柄上郡松田町松田惣領２０４９,歯科,,,9" xlink:title="渋谷歯科医院" transform="ref(svg,13913.8431,-3534.7731)" x="0" y="0"/>
<use xlink:href="#p0" content="3,田村歯科医院,神奈川県足柄上郡松田町松田惣領１２１７-１,歯科　矯正歯科　小児歯科,,,9" xlink:title="田村歯科医院" transform="ref(svg,13913.9519,-3534.5337)" x="0" y="0"/>
<use xlink:href="#p0" content="3,西村歯科医院,神奈川県足柄上郡松田町松田惣領１３７５-１　２階,歯科　小児歯科,,,9" xlink:title="西村歯科医院" transform="ref(svg,13914.0501,-3534.4661)" x="0" y="0"/>
<use xlink:href="#p0" content="3,小林歯科医院,神奈川県足柄上郡松田町寄２９-１３１６-３,歯科,,,9" xlink:title="小林歯科医院" transform="ref(svg,13913.532,-3538.883)" x="0" y="0"/>
<use xlink:href="#p0" content="3,村山歯科医院,神奈川県足柄上郡松田町松田惣領１０１７-５,歯科　小児歯科,,,9" xlink:title="村山歯科医院" transform="ref(svg,13914.2964,-3534.4961)" x="0" y="0"/>
<use xlink:href="#p0" content="3,ホワイト歯科医院,神奈川県足柄上郡松田町松田惣領１２１７　３階,歯科,,,9" xlink:title="ホワイト歯科医院" transform="ref(svg,13913.9411,-3534.5452)" x="0" y="0"/>
<use xlink:href="#p0" content="3,山北いちじま歯科医院,神奈川県足柄上郡山北町山北７１１-３１,歯科　矯正歯科,,,9" xlink:title="山北いちじま歯科医院" transform="ref(svg,13908.4705,-3536.055)" x="0" y="0"/>
<use xlink:href="#p0" content="3,小原歯科医院,神奈川県足柄上郡山北町山北１７６１,歯科,,,9" xlink:title="小原歯科医院" transform="ref(svg,13908.0544,-3536.2551)" x="0" y="0"/>
<use xlink:href="#p0" content="3,重田歯科医院,神奈川県足柄上郡山北町川西６８９,歯科（小児診療はしない）,,,9" xlink:title="重田歯科医院" transform="ref(svg,13903.1032,-3537.4145)" x="0" y="0"/>
<use xlink:href="#p0" content="3,藤井歯科医院,神奈川県足柄上郡山北町向原２０３８,歯科　歯科口腔外科,,,9" xlink:title="藤井歯科医院" transform="ref(svg,13910.932,-3535.7079)" x="0" y="0"/>
<use xlink:href="#p0" content="3,金子歯科医院,神奈川県足柄上郡開成町延沢８５４プラザ開成２０４,歯科,,,9" xlink:title="金子歯科医院" transform="ref(svg,13912.3653,-3533.6555)" x="0" y="0"/>
<use xlink:href="#p0" content="3,たまき歯科医院,神奈川県足柄上郡開成町吉田島４３５５-３,歯科　矯正歯科,,,9" xlink:title="たまき歯科医院" transform="ref(svg,13913.4552,-3532.7622)" x="0" y="0"/>
<use xlink:href="#p0" content="3,辻村歯科医院,神奈川県足柄上郡開成町吉田島９５１,歯科,,,9" xlink:title="辻村歯科医院" transform="ref(svg,13913.0962,-3532.8583)" x="0" y="0"/>
<use xlink:href="#p0" content="3,坪井歯科医院,神奈川県足柄上郡開成町円通寺７-１,歯科,,,9" xlink:title="坪井歯科医院" transform="ref(svg,13912.0054,-3533.306)" x="0" y="0"/>
<use xlink:href="#p0" content="3,中村歯科医院,神奈川県足柄上郡開成町牛島５０-４ＴＹＳ５０４-１０２,歯科,,,9" xlink:title="中村歯科医院" transform="ref(svg,13912.6659,-3533.0063)" x="0" y="0"/>
<use xlink:href="#p0" content="3,なかむらデンタルオフィス,神奈川県足柄上郡開成町延沢８３６-２,歯科　矯正歯科　小児歯科　歯科口腔外科,,,9" xlink:title="なかむらデンタルオフィス" transform="ref(svg,13912.3863,-3533.5751)" x="0" y="0"/>
<use xlink:href="#p0" content="3,わかば歯科医院,神奈川県足柄上郡開成町吉田島１４０３,歯科　小児歯科,,,9" xlink:title="わかば歯科医院" transform="ref(svg,13913.2669,-3532.4862)" x="0" y="0"/>
<use xlink:href="#p0" content="3,あじさい歯科クリニック,神奈川県足柄上郡開成町延沢６９５-１,歯科,,,9" xlink:title="あじさい歯科クリニック" transform="ref(svg,13912.1197,-3533.6888)" x="0" y="0"/>
<use xlink:href="#p0" content="3,ダイ・デンタルクリニック,神奈川県足柄上郡開成町延沢８７５,歯科　矯正歯科　小児歯科　歯科口腔外科,,,9" xlink:title="ダイ・デンタルクリニック" transform="ref(svg,13912.3133,-3533.7885)" x="0" y="0"/>
<use xlink:href="#p0" content="3,きばやし歯科クリニック,神奈川県足柄上郡開成町吉田島４３５１-９　２階,歯科　小児歯科,,,9" xlink:title="きばやし歯科クリニック" transform="ref(svg,13913.4484,-3532.6261)" x="0" y="0"/>
<use xlink:href="#p0" content="3,遠藤歯科医院,静岡県三島市佐野１９１-１,歯科,,,9" xlink:title="遠藤歯科医院" transform="ref(svg,13892.2539,-3516.8611)" x="0" y="0"/>
<use xlink:href="#p0" content="3,さなだ歯科医院,静岡県裾野市御宿字坂口１２９１-１,歯科　矯正歯科,,,9" xlink:title="さなだ歯科医院" transform="ref(svg,13890.812,-3521.1433)" x="0" y="0"/>
<use xlink:href="#p0" content="3,ハミング歯科,静岡県裾野市茶畑２８-１,歯科　矯正歯科,,,9" xlink:title="ハミング歯科" transform="ref(svg,13891.3826,-3516.6124)" x="0" y="0"/>
<use xlink:href="#p0" content="3,飯塚歯科医院,静岡県裾野市茶畑字境川９５２-６,歯科,,,9" xlink:title="飯塚歯科医院" transform="ref(svg,13891.7057,-3516.6664)" x="0" y="0"/>
<use xlink:href="#p0" content="3,うさぎ歯科医院,静岡県裾野市葛山７６７-２,歯科,,,9" xlink:title="うさぎ歯科医院" transform="ref(svg,13890.1844,-3520.4923)" x="0" y="0"/>
<use xlink:href="#p0" content="3,小川歯科医院,静岡県裾野市佐野８２４-３,歯科,,,9" xlink:title="小川歯科医院" transform="ref(svg,13890.9319,-3517.6928)" x="0" y="0"/>
<use xlink:href="#p0" content="3,梶歯科医院,静岡県裾野市石脇１１１-９,歯科　矯正歯科　小児歯科,,,9" xlink:title="梶歯科医院" transform="ref(svg,13890.6924,-3518.5921)" x="0" y="0"/>
<use xlink:href="#p0" content="3,カシワ木歯科医院,静岡県裾野市茶畑２５６-４,歯科,,,9" xlink:title="カシワ木歯科医院" transform="ref(svg,13891.1208,-3517.11)" x="0" y="0"/>
<use xlink:href="#p0" content="3,しおみ歯科医院,静岡県裾野市平松５２１-２,歯科　小児歯科　矯正歯科,,,9" xlink:title="しおみ歯科医院" transform="ref(svg,13890.7693,-3517.2081)" x="0" y="0"/>
<use xlink:href="#p0" content="3,歯科クリニックみよし,静岡県裾野市佐野１０８９,歯科,,,9" xlink:title="歯科クリニックみよし" transform="ref(svg,13890.5788,-3517.447)" x="0" y="0"/>
<use xlink:href="#p0" content="3,鈴木歯科医院,静岡県裾野市平松６２４-１,歯科　矯正歯科　小児歯科,,,9" xlink:title="鈴木歯科医院" transform="ref(svg,13890.6677,-3516.5278)" x="0" y="0"/>
<use xlink:href="#p0" content="3,スマイル歯科医院,静岡県裾野市深良３０６６-５,歯科　小児歯科,,,9" xlink:title="スマイル歯科医院" transform="ref(svg,13892.4185,-3521.2242)" x="0" y="0"/>
<use xlink:href="#p0" content="3,中原歯科医院,静岡県裾野市佐野８５０,歯科,,,9" xlink:title="中原歯科医院" transform="ref(svg,13891.0479,-3517.9742)" x="0" y="0"/>
<use xlink:href="#p0" content="3,服部歯科医院,静岡県裾野市佐野１０６９-２,歯科,,,9" xlink:title="服部歯科医院" transform="ref(svg,13890.6213,-3517.3222)" x="0" y="0"/>
<use xlink:href="#p0" content="3,ベルの木歯科,静岡県裾野市深良７７７-７,歯科　矯正歯科　小児歯科,,,9" xlink:title="ベルの木歯科" transform="ref(svg,13891.474,-3520.02)" x="0" y="0"/>
<use xlink:href="#p0" content="3,ホワイト歯科医院,静岡県裾野市御宿字榎田３６-１,歯科,,,9" xlink:title="ホワイト歯科医院" transform="ref(svg,13891.1634,-3520.0563)" x="0" y="0"/>
<use xlink:href="#p0" content="3,松本歯科医院,静岡県裾野市千福が丘１-１０-３５,歯科　矯正歯科　小児歯科,,,9" xlink:title="松本歯科医院" transform="ref(svg,13888.2789,-3519.7247)" x="0" y="0"/>
<use xlink:href="#p0" content="3,室伏歯科医院,静岡県裾野市公文名２２０-３,歯科,,,9" xlink:title="室伏歯科医院" transform="ref(svg,13892.0086,-3518.2287)" x="0" y="0"/>
<use xlink:href="#p0" content="3,矢部歯科医院長泉診療所,静岡県駿東郡長泉町南一色３２７-１関道ビル２Ｆ,歯科　矯正歯科　小児歯科,,,9" xlink:title="矢部歯科医院長泉診療所" transform="ref(svg,13889.8337,-3515.8573)" x="0" y="0"/>
<use xlink:href="#p0" content="3,米山歯科医院,静岡県駿東郡長泉町南一色３１１-１,歯科　矯正歯科,,,9" xlink:title="米山歯科医院" transform="ref(svg,13889.7924,-3515.8341)" x="0" y="0"/>
<use xlink:href="#p0" content="3,あざみはら歯科医院,静岡県御殿場市川島田９４４-１,歯科,,,9" xlink:title="あざみはら歯科医院" transform="ref(svg,13892.0532,-3529.9431)" x="0" y="0"/>
<use xlink:href="#p0" content="3,岩瀬歯科医院,静岡県御殿場市川島田４２６-１,歯科,,,9" xlink:title="岩瀬歯科医院" transform="ref(svg,13892.5866,-3529.7874)" x="0" y="0"/>
<use xlink:href="#p0" content="3,梶本弘歯科医院,静岡県御殿場市新橋１９３６-５,歯科,,,9" xlink:title="梶本弘歯科医院" transform="ref(svg,13893.5903,-3530.0144)" x="0" y="0"/>
<use xlink:href="#p0" content="3,ひまわり歯科クリニック,静岡県御殿場市保土沢４５４-１,歯科　小児歯科　歯科口腔外科,,,9" xlink:title="ひまわり歯科クリニック" transform="ref(svg,13890.2634,-3529.6118)" x="0" y="0"/>
<use xlink:href="#p0" content="3,ファミリー歯科医院,静岡県御殿場市新橋１９３８-１０,歯科,,,9" xlink:title="ファミリー歯科医院" transform="ref(svg,13893.4143,-3530.1021)" x="0" y="0"/>
<use xlink:href="#p0" content="3,マリーン歯科,静岡県御殿場市茱萸沢１２２６-４,歯科　矯正歯科,,,9" xlink:title="マリーン歯科" transform="ref(svg,13892.3203,-3530.4528)" x="0" y="0"/>
<use xlink:href="#p0" content="3,ビタミンＦ歯科,静岡県御殿場市東田中１０１５-１,歯科　矯正歯科,,,9" xlink:title="ビタミンＦ歯科" transform="ref(svg,13894.3512,-3529.809)" x="0" y="0"/>
<use xlink:href="#p0" content="3,あおぞら歯科,静岡県御殿場市北久原５９３-２,歯科　小児歯科,,,9" xlink:title="あおぞら歯科" transform="ref(svg,13893.8012,-3531.4623)" x="0" y="0"/>
<use xlink:href="#p0" content="3,アレフ歯科クリニック,静岡県御殿場市新橋６７３-１,歯科,,,9" xlink:title="アレフ歯科クリニック" transform="ref(svg,13894.3685,-3530.0256)" x="0" y="0"/>
<use xlink:href="#p0" content="3,いしだ歯科,静岡県御殿場市茱萸沢１１４３-４,歯科,,,9" xlink:title="いしだ歯科" transform="ref(svg,13892.0222,-3530.5954)" x="0" y="0"/>
<use xlink:href="#p0" content="3,いなば歯科クリニック,静岡県御殿場市新橋１５８４-３,歯科　小児歯科,,,9" xlink:title="いなば歯科クリニック" transform="ref(svg,13893.8896,-3529.6542)" x="0" y="0"/>
<use xlink:href="#p0" content="3,エコーデンタルクリニック,静岡県御殿場市大坂４８２,歯科,,,9" xlink:title="エコーデンタルクリニック" transform="ref(svg,13892.1696,-3525.0286)" x="0" y="0"/>
<use xlink:href="#p0" content="3,江塚歯科医院,静岡県御殿場市中清水２３４-１,歯科,,,9" xlink:title="江塚歯科医院" transform="ref(svg,13891.5128,-3525.9108)" x="0" y="0"/>
<use xlink:href="#p0" content="3,江本歯科医院,静岡県御殿場市御殿場５４２-１,歯科,,,9" xlink:title="江本歯科医院" transform="ref(svg,13894.3613,-3531.4862)" x="0" y="0"/>
<use xlink:href="#p0" content="3,梶本歯科医院,静岡県御殿場市新橋１８７９-１,歯科,,,9" xlink:title="梶本歯科医院" transform="ref(svg,13893.4322,-3529.8617)" x="0" y="0"/>
<use xlink:href="#p0" content="3,勝又歯科医院,静岡県御殿場市二枚橋６４-２,歯科　矯正歯科　小児歯科,,,9" xlink:title="勝又歯科医院" transform="ref(svg,13893.6205,-3530.3645)" x="0" y="0"/>
<use xlink:href="#p0" content="3,小宮山歯科医院,静岡県御殿場市新橋１７９６-３,歯科,,,9" xlink:title="小宮山歯科医院" transform="ref(svg,13893.6105,-3529.8877)" x="0" y="0"/>
<use xlink:href="#p0" content="3,斉藤歯科医院,静岡県御殿場市萩原７２０,歯科,,,9" xlink:title="斉藤歯科医院" transform="ref(svg,13893.3527,-3530.3873)" x="0" y="0"/>
<use xlink:href="#p0" content="3,さとう歯科医院,静岡県御殿場市新橋２０７７-４,歯科,,,9" xlink:title="さとう歯科医院" transform="ref(svg,13893.0447,-3530.1388)" x="0" y="0"/>
<use xlink:href="#p0" content="3,杉山歯科医院,静岡県御殿場市萩原５０４-２６,歯科,,,9" xlink:title="杉山歯科医院" transform="ref(svg,13893.2834,-3530.9036)" x="0" y="0"/>
<use xlink:href="#p0" content="3,そのだ歯科,静岡県御殿場市東田中字宮ヶ崎１９０９-６,歯科,,,9" xlink:title="そのだ歯科" transform="ref(svg,13895.0173,-3528.7323)" x="0" y="0"/>
<use xlink:href="#p0" content="3,第一歯科医院,静岡県御殿場市茱萸沢６８-１,歯科,,,9" xlink:title="第一歯科医院" transform="ref(svg,13892.4693,-3530.9823)" x="0" y="0"/>
<use xlink:href="#p0" content="3,高根デンタルクリニック,静岡県御殿場市山之尻３２７-１,歯科　矯正歯科　小児歯科　歯科口腔外科,,,9" xlink:title="高根デンタルクリニック" transform="ref(svg,13893.6286,-3532.3631)" x="0" y="0"/>
<use xlink:href="#p0" content="3,たきがわ矯正歯科,静岡県御殿場市東田中１-１８-１０,矯正歯科,,,9" xlink:title="たきがわ矯正歯科" transform="ref(svg,13894.089,-3530.3073)" x="0" y="0"/>
<use xlink:href="#p0" content="3,玉穂歯科診療所,静岡県御殿場市茱萸沢７１９-１,歯科　小児歯科,,,9" xlink:title="玉穂歯科診療所" transform="ref(svg,13890.693,-3531.4956)" x="0" y="0"/>
<use xlink:href="#p0" content="3,てしま歯科医院,静岡県御殿場市保土沢１１５７-７５８,歯科,,,9" xlink:title="てしま歯科医院" transform="ref(svg,13889.9059,-3529.3541)" x="0" y="0"/>
<use xlink:href="#p0" content="3,トーメイ歯科医院,静岡県御殿場市東田中１０６２-２,歯科,,,9" xlink:title="トーメイ歯科医院" transform="ref(svg,13894.3081,-3529.5761)" x="0" y="0"/>
<use xlink:href="#p0" content="3,ともり歯科医院,静岡県御殿場市新橋１６２８-２,歯科　小児歯科　矯正歯科,,,9" xlink:title="ともり歯科医院" transform="ref(svg,13893.579,-3529.6918)" x="0" y="0"/>
<use xlink:href="#p0" content="3,豊山歯科医院,静岡県御殿場市萩原７４０,歯科　矯正歯科,,,9" xlink:title="豊山歯科医院" transform="ref(svg,13893.2012,-3530.3481)" x="0" y="0"/>
<use xlink:href="#p0" content="3,長島歯科医院,静岡県御殿場市新橋１９９０-２,歯科,,,9" xlink:title="長島歯科医院" transform="ref(svg,13893.3504,-3530.0532)" x="0" y="0"/>
<use xlink:href="#p0" content="3,二枚橋歯科医院,静岡県御殿場市二枚橋２３０,歯科　小児歯科,,,9" xlink:title="二枚橋歯科医院" transform="ref(svg,13893.6746,-3530.8814)" x="0" y="0"/>
<use xlink:href="#p0" content="3,子上歯科医院,静岡県御殿場市新橋２０５５,歯科,,,9" xlink:title="子上歯科医院" transform="ref(svg,13893.2624,-3530.2734)" x="0" y="0"/>
<use xlink:href="#p0" content="3,八幡通り歯科医院,静岡県御殿場市北久原６１３-１１,歯科　矯正歯科,,,9" xlink:title="八幡通り歯科医院" transform="ref(svg,13893.7185,-3531.3275)" x="0" y="0"/>
<use xlink:href="#p0" content="3,ふじおか歯科医院,静岡県御殿場市中山４６６-１,歯科,,,9" xlink:title="ふじおか歯科医院" transform="ref(svg,13892.2092,-3525.4083)" x="0" y="0"/>
<use xlink:href="#p0" content="3,三浦歯科医院,静岡県御殿場市神山８３３-１,歯科　矯正歯科　小児歯科,,,9" xlink:title="三浦歯科医院" transform="ref(svg,13892.048,-3522.9794)" x="0" y="0"/>
<use xlink:href="#p0" content="3,矢後歯科医院,静岡県御殿場市萩原７３-１,歯科　矯正歯科　小児歯科　歯科口腔外科,,,9" xlink:title="矢後歯科医院" transform="ref(svg,13892.7637,-3531.1833)" x="0" y="0"/>
<use xlink:href="#p0" content="3,ヤナカ歯科医院,静岡県御殿場市神山１１１０-１６,歯科　小児歯科　歯科口腔外科,,,9" xlink:title="ヤナカ歯科医院" transform="ref(svg,13891.8146,-3522.5411)" x="0" y="0"/>
<use xlink:href="#p0" content="3,渡邉歯科医院,静岡県御殿場市二枚橋２９７-１,歯科,,,9" xlink:title="渡邉歯科医院" transform="ref(svg,13893.9381,-3531.1456)" x="0" y="0"/>
<use xlink:href="#p0" content="3,大木歯科医院,静岡県駿東郡小山町藤曲５８４-１２,歯科,,,9" xlink:title="大木歯科医院" transform="ref(svg,13898.5739,-3536.1534)" x="0" y="0"/>
<use xlink:href="#p0" content="3,小野歯科医院,静岡県駿東郡小山町生土６-１,歯科,,,9" xlink:title="小野歯科医院" transform="ref(svg,13898.9538,-3536.1957)" x="0" y="0"/>
<use xlink:href="#p0" content="3,すずき歯科医院,静岡県駿東郡小山町用沢３１７-９,歯科,,,9" xlink:title="すずき歯科医院" transform="ref(svg,13894.4158,-3534.5872)" x="0" y="0"/>
<use xlink:href="#p0" content="3,須走歯科医院,静岡県駿東郡小山町須走２７８-４,歯科,,,9" xlink:title="須走歯科医院" transform="ref(svg,13886.856,-3536.0562)" x="0" y="0"/>
<use xlink:href="#p0" content="3,村井歯科医院,静岡県駿東郡小山町吉久保４４７-３,歯科,,,9" xlink:title="村井歯科医院" transform="ref(svg,13896.0332,-3534.1872)" x="0" y="0"/>
<use xlink:href="#p0" content="3,わかば歯科医院,静岡県駿東郡小山町一色３３１-１,歯科　矯正歯科　小児歯科,,,9" xlink:title="わかば歯科医院" transform="ref(svg,13894.4976,-3534.159)" x="0" y="0"/>
</g>
</svg>
