<?xml version="1.0" encoding="UTF-8"?>
<svg  xmlns="http://www.w3.org/2000/svg" xmlns:xlink="http://www.w3.org/1999/xlink" xmlns:go="http://purl.org/svgmap/profile" property="医療機関分類,施設名称,所在地,診療科目１,診療科目２,診療科目３,開設者分類" viewBox="13543.9453125 -3467.28515625 4.39453125 4.39453125" go:dataArea="13543.9453125 -3467.28515625 4.39453125 4.39453125" >
<metadata>
 <rdf:RDF xmlns:rdf="http://www.w3.org/1999/02/22-rdf-syntax-ns#" xmlns:crs="http://opengis.org/xmldtds/transformations.dtd" xmlns:svg="http://www.w3.org/svg" >
  <rdf:Description>
   <crs:CoordinateReferenceSystem rdf:resource="http://purl.org/crs/84" svg:transform="matrix(100.0,0.0,0.0,-100.0,0.0,0.0)" />
  </rdf:Description>
 </rdf:RDF>
</metadata>
<globalCoordinateSystem srsName="http://purl.org/crs/84" transform="matrix(100.0,0.0,0.0,-100.0,0.0,0.0)" />
<defs>
 <g id="p0" >
  <image xlink:href="mappin.png" preserveAspectRatio="none" x="-8" y="-25" width="19" height="27"/>
 </g>
 <g id="p1" >
  <image xlink:href="mappin1.png" preserveAspectRatio="none" x="-8" y="-25" width="19" height="27"/>
 </g>
 <g id="p2" >
  <image xlink:href="mappin2.png" preserveAspectRatio="none" x="-8" y="-25" width="19" height="27"/>
 </g>
 <g id="p3" >
  <image xlink:href="mappin3.png" preserveAspectRatio="none" x="-8" y="-25" width="19" height="27"/>
 </g>
 <g id="p4" >
  <image xlink:href="mappin4.png" preserveAspectRatio="none" x="-8" y="-25" width="19" height="27"/>
 </g>
 <g id="p5" >
  <image xlink:href="mappin5.png" preserveAspectRatio="none" x="-8" y="-25" width="19" height="27"/>
 </g>
 <g id="p6" >
  <image xlink:href="mappin6.png" preserveAspectRatio="none" x="-8" y="-25" width="19" height="27"/>
 </g>
 <g id="p7" >
  <image xlink:href="mappin7.png" preserveAspectRatio="none" x="-8" y="-25" width="19" height="27"/>
 </g>
 <g id="p8" >
  <image xlink:href="mappin8.png" preserveAspectRatio="none" x="-8" y="-25" width="19" height="27"/>
 </g>
 <g id="p9" >
  <image xlink:href="mappin9.png" preserveAspectRatio="none" x="-8" y="-25" width="19" height="27"/>
 </g>
</defs>
<g fill="green" fill-rule="evenodd" >
<use xlink:href="#p0" content="3,西岡歯科医院,大阪府大阪市西区九条南２-３３-１３,歯科,,,9" xlink:title="西岡歯科医院" transform="ref(svg,13547.2144,-3467.0334)" x="0" y="0"/>
<use xlink:href="#p0" content="3,たむら歯科医院,大阪府大阪市西区境川１-４-２,歯科,,,9" xlink:title="たむら歯科医院" transform="ref(svg,13547.2175,-3466.9618)" x="0" y="0"/>
<use xlink:href="#p0" content="3,ゆうき歯科,大阪府大阪市西区九条南１-３-１４ＮＥＷＷＥＳＴ１Ｆ,歯科　歯科口腔外科,,,9" xlink:title="ゆうき歯科" transform="ref(svg,13547.569,-3467.2111)" x="0" y="0"/>
<use xlink:href="#p0" content="3,（医）福原歯科,大阪府大阪市西区九条南２-３４-８,歯科　小児歯科,,,9" xlink:title="（医）福原歯科" transform="ref(svg,13547.2746,-3467.0168)" x="0" y="0"/>
<use xlink:href="#p0" content="3,（医）柏康会大阪ドームシティＴ．Ｔ．Ｃ．歯科医院,大阪府大阪市西区千代崎３-１３-１,歯科　矯正歯科　小児歯科　歯科口腔外科,,,9" xlink:title="（医）柏康会大阪ドームシティＴ．Ｔ．Ｃ．歯科医院" transform="ref(svg,13547.7913,-3467.0269)" x="0" y="0"/>
<use xlink:href="#p0" content="3,足立歯科医院,大阪府大阪市港区夕凪１-１５-３０,歯科,,,9" xlink:title="足立歯科医院" transform="ref(svg,13545.4153,-3466.2633)" x="0" y="0"/>
<use xlink:href="#p0" content="3,安藤歯科医院,大阪府大阪市港区磯路３-２０-８,歯科,,,9" xlink:title="安藤歯科医院" transform="ref(svg,13545.5174,-3466.3903)" x="0" y="0"/>
<use xlink:href="#p0" content="3,小田歯科医院,大阪府大阪市港区港晴３-１-８,歯科　矯正歯科,,,9" xlink:title="小田歯科医院" transform="ref(svg,13544.495,-3465.8456)" x="0" y="0"/>
<use xlink:href="#p0" content="3,金山歯科医院,大阪府大阪市港区三先２-１３-２７,歯科,,,9" xlink:title="金山歯科医院" transform="ref(svg,13544.9778,-3465.9661)" x="0" y="0"/>
<use xlink:href="#p0" content="3,田中歯科医院,大阪府大阪市港区弁天１-６-３７,歯科,,,9" xlink:title="田中歯科医院" transform="ref(svg,13545.8804,-3467.0168)" x="0" y="0"/>
<use xlink:href="#p0" content="3,橋本歯科クリニック,大阪府大阪市港区八幡屋３-１-２０,歯科　小児歯科,,,9" xlink:title="橋本歯科クリニック" transform="ref(svg,13544.4656,-3465.4975)" x="0" y="0"/>
<use xlink:href="#p0" content="3,溝口歯科医院,大阪府大阪市港区弁天４-６-６,歯科,,,9" xlink:title="溝口歯科医院" transform="ref(svg,13545.9002,-3467.1258)" x="0" y="0"/>
<use xlink:href="#p0" content="3,吉田歯科医院,大阪府大阪市港区三先１-１０-２２,歯科,,,9" xlink:title="吉田歯科医院" transform="ref(svg,13545.3919,-3466.1283)" x="0" y="0"/>
<use xlink:href="#p0" content="3,藤岡歯科医院,大阪府大阪市港区市岡１-１１-２,歯科,,,9" xlink:title="藤岡歯科医院" transform="ref(svg,13546.1899,-3466.3471)" x="0" y="0"/>
<use xlink:href="#p0" content="3,岡正歯科,大阪府大阪市港区弁天３-４-３,歯科　矯正歯科　小児歯科,,,9" xlink:title="岡正歯科" transform="ref(svg,13545.4459,-3466.6809)" x="0" y="0"/>
<use xlink:href="#p0" content="3,田崎歯科医院,大阪府大阪市港区磯路２-１-２０ミナトＳ・Ｋビル,歯科,,,9" xlink:title="田崎歯科医院" transform="ref(svg,13546.2139,-3466.5346)" x="0" y="0"/>
<use xlink:href="#p0" content="3,丹田歯科医院,大阪府大阪市港区夕凪１-１７-９,歯科,,,9" xlink:title="丹田歯科医院" transform="ref(svg,13545.3857,-3466.1838)" x="0" y="0"/>
<use xlink:href="#p0" content="3,（医）至誠会村井歯科医院,大阪府大阪市港区弁天２-６-２６,歯科,,,9" xlink:title="（医）至誠会村井歯科医院" transform="ref(svg,13545.699,-3466.9291)" x="0" y="0"/>
<use xlink:href="#p0" content="3,橋本歯科医院,大阪府大阪市港区磯路２-２２-２０ドムール北市岡１１３,歯科,,,9" xlink:title="橋本歯科医院" transform="ref(svg,13545.7265,-3466.5703)" x="0" y="0"/>
<use xlink:href="#p0" content="3,吉川歯科医院,大阪府大阪市港区八幡屋２-４-４,歯科,,,9" xlink:title="吉川歯科医院" transform="ref(svg,13544.7059,-3465.6658)" x="0" y="0"/>
<use xlink:href="#p0" content="3,田川歯科医院,大阪府大阪市港区市岡元町２-１-７,歯科,,,9" xlink:title="田川歯科医院" transform="ref(svg,13546.8715,-3466.7594)" x="0" y="0"/>
<use xlink:href="#p0" content="3,三好歯科医院,大阪府大阪市港区三先１-４-５,歯科　小児歯科,,,9" xlink:title="三好歯科医院" transform="ref(svg,13545.703,-3466.1354)" x="0" y="0"/>
<use xlink:href="#p0" content="3,（医）上崎歯科医院,大阪府大阪市港区波除３-５-１５ハイツプリンス１Ｆ,歯科,,,9" xlink:title="（医）上崎歯科医院" transform="ref(svg,13546.2738,-3467.1116)" x="0" y="0"/>
<use xlink:href="#p0" content="3,エナミ歯科医院,大阪府大阪市港区港晴２-３-４,歯科,,,9" xlink:title="エナミ歯科医院" transform="ref(svg,13544.2274,-3465.5905)" x="0" y="0"/>
<use xlink:href="#p0" content="3,おざさ歯科,大阪府大阪市港区池島１-３-５３田中ハイツ１Ｆ,歯科　小児歯科,,,9" xlink:title="おざさ歯科" transform="ref(svg,13544.9146,-3465.8652)" x="0" y="0"/>
<use xlink:href="#p0" content="3,服部歯科医院,大阪府大阪市港区磯路３-６-１１,歯科,,,9" xlink:title="服部歯科医院" transform="ref(svg,13545.6951,-3466.4619)" x="0" y="0"/>
<use xlink:href="#p0" content="3,平松歯科医院,大阪府大阪市港区池島２-３-１９,歯科,,,9" xlink:title="平松歯科医院" transform="ref(svg,13545.0792,-3465.6766)" x="0" y="0"/>
<use xlink:href="#p0" content="3,越智歯科医院,大阪府大阪市港区池島１-３-１,歯科　矯正歯科,,,9" xlink:title="越智歯科医院" transform="ref(svg,13544.9341,-3465.8664)" x="0" y="0"/>
<use xlink:href="#p0" content="3,こんだ歯科医院,大阪府大阪市港区市岡１-４-２６ユニハイム市岡２館１０１,歯科,,,9" xlink:title="こんだ歯科医院" transform="ref(svg,13546.3013,-3466.4626)" x="0" y="0"/>
<use xlink:href="#p0" content="3,井上歯科,大阪府大阪市港区八幡屋１-１-１７デイズハイツ朝潮橋２　１階,歯科　矯正歯科　小児歯科,,,9" xlink:title="井上歯科" transform="ref(svg,13544.7508,-3465.8616)" x="0" y="0"/>
<use xlink:href="#p0" content="3,牛田歯科医院,大阪府大阪市港区磯路３-２６-６三徳船舶ビル１Ｆ,歯科　矯正歯科　小児歯科,,,9" xlink:title="牛田歯科医院" transform="ref(svg,13545.5408,-3466.3085)" x="0" y="0"/>
<use xlink:href="#p0" content="3,井上歯科医院,大阪府大阪市港区磯路３-２５-１３第二柴田ビル１階,歯科　小児歯科　歯科口腔外科,,,9" xlink:title="井上歯科医院" transform="ref(svg,13545.4514,-3466.3881)" x="0" y="0"/>
<use xlink:href="#p0" content="3,丹田歯科医院,大阪府大阪市港区波除３-１-７,歯科,,,9" xlink:title="丹田歯科医院" transform="ref(svg,13546.3766,-3466.9531)" x="0" y="0"/>
<use xlink:href="#p0" content="3,さぬい歯科,大阪府大阪市港区弁天２-１-８弁天コーポ１０３,歯科,,,9" xlink:title="さぬい歯科" transform="ref(svg,13545.7951,-3466.7431)" x="0" y="0"/>
<use xlink:href="#p0" content="3,まつもと歯科医院,大阪府大阪市港区市岡２-１０-２０,歯科　小児歯科,,,9" xlink:title="まつもと歯科医院" transform="ref(svg,13545.6726,-3466.2387)" x="0" y="0"/>
<use xlink:href="#p0" content="3,西崎歯科医院,大阪府大阪市港区田中１-１３-１８,歯科,,,9" xlink:title="西崎歯科医院" transform="ref(svg,13544.9906,-3466.4873)" x="0" y="0"/>
<use xlink:href="#p0" content="3,平尾歯科医院,大阪府大阪市港区夕凪２-１０-２４,歯科,,,9" xlink:title="平尾歯科医院" transform="ref(svg,13545.0255,-3466.2399)" x="0" y="0"/>
<use xlink:href="#p0" content="3,中阪歯科医院,大阪府大阪市港区港晴３-１-１２パークシテイ朝潮橋１階,歯科　小児歯科,,,9" xlink:title="中阪歯科医院" transform="ref(svg,13544.4522,-3465.829)" x="0" y="0"/>
<use xlink:href="#p0" content="3,（医）侑恵会まつむら歯科,大阪府大阪市港区夕凪２-１６-９ポートビル２階,歯科,,,9" xlink:title="（医）侑恵会まつむら歯科" transform="ref(svg,13545.1167,-3466.1048)" x="0" y="0"/>
<use xlink:href="#p0" content="3,いのうち歯科医院,大阪府大阪市港区弁天５-８-７アビタシオン弁天町１Ｆ,歯科,,,9" xlink:title="いのうち歯科医院" transform="ref(svg,13545.8265,-3467.2384)" x="0" y="0"/>
<use xlink:href="#p0" content="3,むらかみ歯科クリニック,大阪府大阪市港区弁天４-６-１４,歯科　小児歯科　歯科口腔外科,,,9" xlink:title="むらかみ歯科クリニック" transform="ref(svg,13545.8519,-3467.1263)" x="0" y="0"/>
<use xlink:href="#p0" content="3,（医）中山歯科医院,大阪府大阪市港区波除２-５-１９第二ひかりハイツ１階,歯科　矯正歯科　小児歯科　歯科口腔外科,,,9" xlink:title="（医）中山歯科医院" transform="ref(svg,13546.4982,-3467.0204)" x="0" y="0"/>
<use xlink:href="#p0" content="3,（医）英誠会弁天町歯科,大阪府大阪市港区弁天１-３-３クロスシティ弁天町２階,歯科　小児歯科　歯科口腔外科,,,9" xlink:title="（医）英誠会弁天町歯科" transform="ref(svg,13546.0916,-3466.8628)" x="0" y="0"/>
<use xlink:href="#p0" content="3,（医）香心会さくら歯科,大阪府大阪市港区弁天３-１３-１ＭＥＧＡドン・キホーテ弁天町店２階,歯科　小児歯科,,,9" xlink:title="（医）香心会さくら歯科" transform="ref(svg,13545.4073,-3466.6241)" x="0" y="0"/>
<use xlink:href="#p0" content="3,広垣歯科医院,大阪府大阪市港区八幡屋２-６-１　１０９,歯科　矯正歯科　小児歯科,,,9" xlink:title="広垣歯科医院" transform="ref(svg,13544.809,-3465.6357)" x="0" y="0"/>
<use xlink:href="#p0" content="3,森島歯科,大阪府大阪市港区磯路２-１２-１　１１９,歯科　矯正歯科,,,9" xlink:title="森島歯科" transform="ref(svg,13545.9861,-3466.5248)" x="0" y="0"/>
<use xlink:href="#p0" content="3,岡本歯科クリニック,大阪府大阪市港区南市岡３-５-３２,歯科　小児歯科,,,9" xlink:title="岡本歯科クリニック" transform="ref(svg,13546.6233,-3466.4932)" x="0" y="0"/>
<use xlink:href="#p0" content="3,（医）恒生堂とみもと歯科医院,大阪府大阪市港区港晴４-１-１０辻産業第６ビル１階,歯科　矯正歯科　小児歯科　歯科口腔外科,,,9" xlink:title="（医）恒生堂とみもと歯科医院" transform="ref(svg,13544.1439,-3465.6967)" x="0" y="0"/>
<use xlink:href="#p0" content="3,わきさか歯科・矯正歯科,大阪府大阪市港区磯路３-１-２いそじＭＫビル１階,歯科　矯正歯科　小児歯科　歯科口腔外科,,,9" xlink:title="わきさか歯科・矯正歯科" transform="ref(svg,13545.9169,-3466.3881)" x="0" y="0"/>
<use xlink:href="#p0" content="3,みなと通り歯科クリニック,大阪府大阪市港区磯路１-１-１エトワール市岡１階,歯科　矯正歯科　小児歯科　歯科口腔外科,,,9" xlink:title="みなと通り歯科クリニック" transform="ref(svg,13546.3676,-3466.5626)" x="0" y="0"/>
<use xlink:href="#p0" content="3,おがわ歯科,大阪府大阪市港区市岡元町２-６-２４ルミエール市岡１０１号室,歯科,,,9" xlink:title="おがわ歯科" transform="ref(svg,13546.6914,-3466.9756)" x="0" y="0"/>
<use xlink:href="#p0" content="3,土橋歯科医院,大阪府大阪市港区市岡元町２-３-７,歯科　矯正歯科　小児歯科　歯科口腔外科,,,9" xlink:title="土橋歯科医院" transform="ref(svg,13546.7863,-3466.8977)" x="0" y="0"/>
<use xlink:href="#p0" content="3,（医）博誠会あおぞら歯科クリニック,大阪府大阪市港区弁天３-１３-１ＭＥＧＡドン・キホーテ２階,歯科　矯正歯科　小児歯科　歯科口腔外科,,,9" xlink:title="（医）博誠会あおぞら歯科クリニック" transform="ref(svg,13545.4073,-3466.6241)" x="0" y="0"/>
<use xlink:href="#p0" content="3,みなと大人こども歯科クリニック,大阪府大阪市港区夕凪２-１-１サンファミリー夕凪東館１階,歯科　矯正歯科　小児歯科　歯科口腔外科,,,9" xlink:title="みなと大人こども歯科クリニック" transform="ref(svg,13545.3148,-3466.1574)" x="0" y="0"/>
<use xlink:href="#p0" content="3,鳥羽歯科,大阪府大阪市大正区三軒家西１-２-７荒井ビル２Ｆ,歯科,,,9" xlink:title="鳥羽歯科" transform="ref(svg,13547.8782,-3466.6246)" x="0" y="0"/>
<use xlink:href="#p0" content="3,児玉歯科医院,大阪府大阪市大正区泉尾３-１１-７,歯科,,,9" xlink:title="児玉歯科医院" transform="ref(svg,13547.2449,-3465.7766)" x="0" y="0"/>
<use xlink:href="#p0" content="3,家入歯科診療所,大阪府大阪市大正区三軒家西２-９-４,歯科,,,9" xlink:title="家入歯科診療所" transform="ref(svg,13547.5293,-3466.4854)" x="0" y="0"/>
<use xlink:href="#p0" content="3,（医）鳥羽歯科医院,大阪府大阪市大正区平尾５-１８-１３,歯科,,,9" xlink:title="（医）鳥羽歯科医院" transform="ref(svg,13547.0058,-3464.0495)" x="0" y="0"/>
<use xlink:href="#p0" content="3,和泉歯科医院,大阪府大阪市大正区泉尾３-１３-１５,歯科,,,9" xlink:title="和泉歯科医院" transform="ref(svg,13547.1994,-3465.8991)" x="0" y="0"/>
<use xlink:href="#p0" content="3,杉本歯科医院,大阪府大阪市大正区泉尾２-１-５,歯科,,,9" xlink:title="杉本歯科医院" transform="ref(svg,13547.4676,-3465.9638)" x="0" y="0"/>
<use xlink:href="#p0" content="3,河野歯科,大阪府大阪市大正区小林西２-２-８,歯科,,,9" xlink:title="河野歯科" transform="ref(svg,13546.9999,-3464.389)" x="0" y="0"/>
<use xlink:href="#p0" content="3,西平歯科医院,大阪府大阪市大正区三軒家西１-２５-５,歯科,,,9" xlink:title="西平歯科医院" transform="ref(svg,13547.7557,-3466.4416)" x="0" y="0"/>
<use xlink:href="#p0" content="3,坂本厚歯科クリニック,大阪府大阪市大正区泉尾４-３-６,歯科,,,9" xlink:title="坂本厚歯科クリニック" transform="ref(svg,13547.2733,-3465.4972)" x="0" y="0"/>
<use xlink:href="#p0" content="3,（医）中山歯科,大阪府大阪市大正区千島２-４千島公団２-１２１,歯科,,,9" xlink:title="（医）中山歯科" transform="ref(svg,13547.4461,-3465.112)" x="0" y="0"/>
<use xlink:href="#p0" content="3,鳥羽歯科医院,大阪府大阪市大正区泉尾４-２-１０河音ビル１Ｆ,歯科,,,9" xlink:title="鳥羽歯科医院" transform="ref(svg,13547.3042,-3465.5744)" x="0" y="0"/>
<use xlink:href="#p0" content="3,甲田歯科医院,大阪府大阪市大正区千島３-４-７和光ビル２Ｆ,歯科,,,9" xlink:title="甲田歯科医院" transform="ref(svg,13547.1846,-3465.2125)" x="0" y="0"/>
<use xlink:href="#p0" content="3,平田歯科医院,大阪府大阪市大正区北村２-８-２,歯科,,,9" xlink:title="平田歯科医院" transform="ref(svg,13546.8045,-3465.229)" x="0" y="0"/>
<use xlink:href="#p0" content="3,京極歯科,大阪府大阪市大正区鶴町３-１３-１０,歯科,,,9" xlink:title="京極歯科" transform="ref(svg,13545.5019,-3464.1208)" x="0" y="0"/>
<use xlink:href="#p0" content="3,西村歯科医院,大阪府大阪市大正区鶴町４-９-８サンシャインビル２０２,歯科,,,9" xlink:title="西村歯科医院" transform="ref(svg,13545.4607,-3464.3415)" x="0" y="0"/>
<use xlink:href="#p0" content="3,西崎歯科医院,大阪府大阪市大正区鶴町２-２-６,歯科,,,9" xlink:title="西崎歯科医院" transform="ref(svg,13545.6532,-3463.6972)" x="0" y="0"/>
<use xlink:href="#p0" content="3,（医）相馬会吉田歯科診療所,大阪府大阪市大正区泉尾１-５-１７,歯科,,,9" xlink:title="（医）相馬会吉田歯科診療所" transform="ref(svg,13547.5674,-3466.2483)" x="0" y="0"/>
<use xlink:href="#p0" content="3,大家歯科医院,大阪府大阪市大正区平尾２-２３-１７平尾コーポ１Ｆ,歯科,,,9" xlink:title="大家歯科医院" transform="ref(svg,13547.3355,-3464.1712)" x="0" y="0"/>
<use xlink:href="#p0" content="3,マキシ歯科医院,大阪府大阪市大正区平尾５-１４-１７,歯科,,,9" xlink:title="マキシ歯科医院" transform="ref(svg,13547.0457,-3463.9898)" x="0" y="0"/>
<use xlink:href="#p0" content="3,弘田歯科医院,大阪府大阪市大正区鶴町３-９-５,歯科　小児歯科,,,9" xlink:title="弘田歯科医院" transform="ref(svg,13545.4864,-3464.2389)" x="0" y="0"/>
<use xlink:href="#p0" content="3,右色歯科医院,大阪府大阪市大正区泉尾３-１-３永楽ビル１Ｆ,歯科　小児歯科,,,9" xlink:title="右色歯科医院" transform="ref(svg,13547.4031,-3465.8225)" x="0" y="0"/>
<use xlink:href="#p0" content="3,岩本歯科医院,大阪府大阪市大正区千島３-１１-１３グリタビル３階,歯科,,,9" xlink:title="岩本歯科医院" transform="ref(svg,13547.1322,-3465.0394)" x="0" y="0"/>
<use xlink:href="#p0" content="3,おおまえ歯科医院,大阪府大阪市大正区泉尾４-１７-１２東洋プラザ泉尾１０１,歯科　小児歯科,,,9" xlink:title="おおまえ歯科医院" transform="ref(svg,13547.1165,-3465.6779)" x="0" y="0"/>
<use xlink:href="#p0" content="3,わじま歯科,大阪府大阪市大正区三軒家東１-２０-１５,歯科,,,9" xlink:title="わじま歯科" transform="ref(svg,13547.7899,-3466.395)" x="0" y="0"/>
<use xlink:href="#p0" content="3,渡邉歯科診療所,大阪府大阪市大正区平尾４-８-１１,歯科,,,9" xlink:title="渡邉歯科診療所" transform="ref(svg,13547.0961,-3464.0775)" x="0" y="0"/>
<use xlink:href="#p0" content="3,永田矯正歯科,大阪府大阪市大正区三軒家西１-９-３４,歯科　矯正歯科,,,9" xlink:title="永田矯正歯科" transform="ref(svg,13547.7266,-3466.6177)" x="0" y="0"/>
<use xlink:href="#p0" content="3,中村歯科医院,大阪府大阪市大正区泉尾３-３-２５,歯科,,,9" xlink:title="中村歯科医院" transform="ref(svg,13547.3529,-3465.7176)" x="0" y="0"/>
<use xlink:href="#p0" content="3,ほしの歯科,大阪府大阪市大正区千島１-１３-２１,歯科　小児歯科　歯科口腔外科,,,9" xlink:title="ほしの歯科" transform="ref(svg,13547.3368,-3465.4949)" x="0" y="0"/>
<use xlink:href="#p0" content="3,今井歯科医院,大阪府大阪市大正区泉尾１-６-１８,歯科　歯科口腔外科,,,9" xlink:title="今井歯科医院" transform="ref(svg,13547.5941,-3466.3113)" x="0" y="0"/>
<use xlink:href="#p0" content="3,谷田歯科医院,大阪府大阪市大正区泉尾１-８-１,歯科,,,9" xlink:title="谷田歯科医院" transform="ref(svg,13547.5248,-3466.3078)" x="0" y="0"/>
<use xlink:href="#p0" content="3,（医）香心会ワタルデンタルクリニック,大阪府大阪市大正区平尾４-２３-１１平和マンション１０１,歯科　小児歯科,,,9" xlink:title="（医）香心会ワタルデンタルクリニック" transform="ref(svg,13547.0496,-3464.2938)" x="0" y="0"/>
<use xlink:href="#p0" content="3,おかざわ歯科クリニック,大阪府大阪市大正区千島２-３-１２,歯科　小児歯科,,,9" xlink:title="おかざわ歯科クリニック" transform="ref(svg,13547.2849,-3465.227)" x="0" y="0"/>
<use xlink:href="#p0" content="3,いなだ歯科クリニック,大阪府大阪市大正区三軒家東４-５-１２Ｒ＆Ｋビル２階,歯科　矯正歯科　小児歯科　歯科口腔外科,,,9" xlink:title="いなだ歯科クリニック" transform="ref(svg,13547.6776,-3466.2136)" x="0" y="0"/>
<use xlink:href="#p0" content="3,（医）研成会杉井歯科,大阪府大阪市大正区千島１-１８-１１,歯科　矯正歯科　小児歯科　歯科口腔外科,,,9" xlink:title="（医）研成会杉井歯科" transform="ref(svg,13547.2962,-3465.4081)" x="0" y="0"/>
<use xlink:href="#p0" content="3,奥間歯科医院,大阪府大阪市大正区平尾５-５-２２,歯科　小児歯科,,,9" xlink:title="奥間歯科医院" transform="ref(svg,13547.2332,-3463.9085)" x="0" y="0"/>
<use xlink:href="#p0" content="3,（医）光有会まつもり歯科クリニック,大阪府大阪市大正区千島３-１４-１９野田ビル１階,歯科　矯正歯科　小児歯科　歯科口腔外科,,,9" xlink:title="（医）光有会まつもり歯科クリニック" transform="ref(svg,13546.9678,-3465)" x="0" y="0"/>
<use xlink:href="#p0" content="3,あさの歯科医院,大阪府大阪市大正区三軒家東２-３-２４,歯科　小児歯科,,,9" xlink:title="あさの歯科医院" transform="ref(svg,13547.9887,-3466.3169)" x="0" y="0"/>
<use xlink:href="#p0" content="3,わかば歯科,大阪府大阪市大正区千島１-２０-１２,歯科　矯正歯科　小児歯科　歯科口腔外科,,,9" xlink:title="わかば歯科" transform="ref(svg,13547.3319,-3465.3567)" x="0" y="0"/>
<use xlink:href="#p0" content="3,しまはら歯科クリニック,大阪府大阪市大正区三軒家東６-８-１７サンロワール永楽１Ｆ,歯科　矯正歯科　小児歯科　歯科口腔外科,,,9" xlink:title="しまはら歯科クリニック" transform="ref(svg,13547.4439,-3465.7534)" x="0" y="0"/>
<use xlink:href="#p0" content="3,やまぐち歯科クリニック,大阪府大阪市大正区南恩加島２-７-２４タウンコートオカジマ１階,歯科　矯正歯科　小児歯科　歯科口腔外科,,,9" xlink:title="やまぐち歯科クリニック" transform="ref(svg,13546.9581,-3463.808)" x="0" y="0"/>
<use xlink:href="#p0" content="3,中山歯科医院,大阪府大阪市大正区泉尾３-１３-５　２Ｆ,歯科,,,9" xlink:title="中山歯科医院" transform="ref(svg,13547.4001,-3466.1593)" x="0" y="0"/>
<use xlink:href="#p0" content="3,とみや歯科診療所,大阪府大阪市大正区三軒家西２-１８-５邦明会ビル３階,歯科　小児歯科　歯科口腔外科,,,9" xlink:title="とみや歯科診療所" transform="ref(svg,13547.5428,-3466.3432)" x="0" y="0"/>
<use xlink:href="#p0" content="3,（医）栄知会小野歯科医院,大阪府大阪市大正区泉尾１-５-８,歯科　矯正歯科　小児歯科　歯科口腔外科,,,9" xlink:title="（医）栄知会小野歯科医院" transform="ref(svg,13547.5868,-3466.216)" x="0" y="0"/>
<use xlink:href="#p0" content="3,（医）太陽会清水歯科,大阪府大阪市西成区南津守４-２-１５　２階,歯科　矯正歯科　小児歯科,,,9" xlink:title="（医）太陽会清水歯科" transform="ref(svg,13548.2044,-3462.95)" x="0" y="0"/>
</g>
</svg>
