<?xml version="1.0" encoding="UTF-8"?>
<svg  xmlns="http://www.w3.org/2000/svg" xmlns:xlink="http://www.w3.org/1999/xlink" xmlns:go="http://purl.org/svgmap/profile" property="医療機関分類,施設名称,所在地,診療科目１,診療科目２,診療科目３,開設者分類" viewBox="13675.78125 -3533.203125 8.7890625 8.7890625" go:dataArea="13675.78125 -3533.203125 8.7890625 8.7890625" >
<metadata>
 <rdf:RDF xmlns:rdf="http://www.w3.org/1999/02/22-rdf-syntax-ns#" xmlns:crs="http://opengis.org/xmldtds/transformations.dtd" xmlns:svg="http://www.w3.org/svg" >
  <rdf:Description>
   <crs:CoordinateReferenceSystem rdf:resource="http://purl.org/crs/84" svg:transform="matrix(100.0,0.0,0.0,-100.0,0.0,0.0)" />
  </rdf:Description>
 </rdf:RDF>
</metadata>
<globalCoordinateSystem srsName="http://purl.org/crs/84" transform="matrix(100.0,0.0,0.0,-100.0,0.0,0.0)" />
<defs>
 <g id="p0" >
  <image xlink:href="mappin.png" preserveAspectRatio="none" x="-8" y="-25" width="19" height="27"/>
 </g>
 <g id="p1" >
  <image xlink:href="mappin1.png" preserveAspectRatio="none" x="-8" y="-25" width="19" height="27"/>
 </g>
 <g id="p2" >
  <image xlink:href="mappin2.png" preserveAspectRatio="none" x="-8" y="-25" width="19" height="27"/>
 </g>
 <g id="p3" >
  <image xlink:href="mappin3.png" preserveAspectRatio="none" x="-8" y="-25" width="19" height="27"/>
 </g>
 <g id="p4" >
  <image xlink:href="mappin4.png" preserveAspectRatio="none" x="-8" y="-25" width="19" height="27"/>
 </g>
 <g id="p5" >
  <image xlink:href="mappin5.png" preserveAspectRatio="none" x="-8" y="-25" width="19" height="27"/>
 </g>
 <g id="p6" >
  <image xlink:href="mappin6.png" preserveAspectRatio="none" x="-8" y="-25" width="19" height="27"/>
 </g>
 <g id="p7" >
  <image xlink:href="mappin7.png" preserveAspectRatio="none" x="-8" y="-25" width="19" height="27"/>
 </g>
 <g id="p8" >
  <image xlink:href="mappin8.png" preserveAspectRatio="none" x="-8" y="-25" width="19" height="27"/>
 </g>
 <g id="p9" >
  <image xlink:href="mappin9.png" preserveAspectRatio="none" x="-8" y="-25" width="19" height="27"/>
 </g>
</defs>
<g fill="green" fill-rule="evenodd" >
<use xlink:href="#p0" content="3,ア歯科診療所,愛知県一宮市富士４-３-９,歯科　矯正歯科　小児歯科,,,9" xlink:title="ア歯科診療所" transform="ref(svg,13682.0408,-3530.4833)" x="0" y="0"/>
<use xlink:href="#p0" content="3,あい歯科医院,愛知県一宮市花池４-１０-５,歯科　小児歯科,,,9" xlink:title="あい歯科医院" transform="ref(svg,13680.1098,-3528.8081)" x="0" y="0"/>
<use xlink:href="#p0" content="3,あいグローデンタルクリニック,愛知県一宮市大浜２-５-３,歯科　矯正歯科　小児歯科　歯科口腔外科,,,9" xlink:title="あいグローデンタルクリニック" transform="ref(svg,13680.9571,-3530.9834)" x="0" y="0"/>
<use xlink:href="#p0" content="3,安輝歯科医院,愛知県一宮市今伊勢町馬寄字上町屋３２-２,歯科,,,9" xlink:title="安輝歯科医院" transform="ref(svg,13679.0379,-3532.6561)" x="0" y="0"/>
<use xlink:href="#p0" content="3,あきお歯科,愛知県一宮市三条字郷東藤６-１,歯科　矯正歯科　小児歯科　歯科口腔外科,,,9" xlink:title="あきお歯科" transform="ref(svg,13676.4373,-3531.0225)" x="0" y="0"/>
<use xlink:href="#p0" content="3,足立歯科クリニック,愛知県一宮市若竹４-１-２,歯科,,,9" xlink:title="足立歯科クリニック" transform="ref(svg,13682.7584,-3528.6922)" x="0" y="0"/>
<use xlink:href="#p0" content="3,足立歯科医院,愛知県一宮市真清田１-４-２４,歯科,,,9" xlink:title="足立歯科医院" transform="ref(svg,13680.2219,-3530.6471)" x="0" y="0"/>
<use xlink:href="#p0" content="3,アン歯科,愛知県一宮市下川田１-４,歯科　矯正歯科　小児歯科,,,9" xlink:title="アン歯科" transform="ref(svg,13680.6427,-3529.1823)" x="0" y="0"/>
<use xlink:href="#p0" content="3,安藤歯科医院,愛知県一宮市大赤見字若年西６７６-１,歯科　矯正歯科　小児歯科,,,9" xlink:title="安藤歯科医院" transform="ref(svg,13682.3311,-3531.635)" x="0" y="0"/>
<use xlink:href="#p0" content="3,石黒歯科,愛知県一宮市大江１-１-１,歯科　小児歯科,,,9" xlink:title="石黒歯科" transform="ref(svg,13680.4444,-3530.53)" x="0" y="0"/>
<use xlink:href="#p0" content="3,石浩歯科,愛知県一宮市丹陽町九日市場字中田１９８-２,歯科　小児歯科,,,9" xlink:title="石浩歯科" transform="ref(svg,13683.6228,-3526.663)" x="0" y="0"/>
<use xlink:href="#p0" content="3,イソベ歯科医院,愛知県一宮市北小渕字勝幡１５０,歯科　矯正歯科　小児歯科,,,9" xlink:title="イソベ歯科医院" transform="ref(svg,13683.3871,-3530.1858)" x="0" y="0"/>
<use xlink:href="#p0" content="3,磯村歯科クリニック,愛知県一宮市大宮１-３-１６,歯科　矯正歯科　小児歯科,,,9" xlink:title="磯村歯科クリニック" transform="ref(svg,13680.0168,-3530.7354)" x="0" y="0"/>
<use xlink:href="#p0" content="3,一宮市口腔衛生センター,愛知県一宮市音羽１-５-１７,歯科,,,9" xlink:title="一宮市口腔衛生センター" transform="ref(svg,13679.7883,-3530.7343)" x="0" y="0"/>
<use xlink:href="#p0" content="3,いとう歯科医院,愛知県一宮市本町３-４-１４,歯科　小児歯科,,,9" xlink:title="いとう歯科医院" transform="ref(svg,13680.1841,-3530.2819)" x="0" y="0"/>
<use xlink:href="#p0" content="3,今伊勢歯科医院,愛知県一宮市今伊勢町本神戸字上町６,歯科,,,9" xlink:title="今伊勢歯科医院" transform="ref(svg,13679.6125,-3531.6799)" x="0" y="0"/>
<use xlink:href="#p0" content="3,いまえだ歯科,愛知県一宮市今伊勢町新神戸字乾２４,歯科　矯正歯科　小児歯科,,,9" xlink:title="いまえだ歯科" transform="ref(svg,13679.232,-3532.1741)" x="0" y="0"/>
<use xlink:href="#p0" content="3,岩田歯科医院,愛知県一宮市奥町甚四前３１,歯科　小児歯科,,,9" xlink:title="岩田歯科医院" transform="ref(svg,13676.0762,-3532.624)" x="0" y="0"/>
<use xlink:href="#p0" content="3,鵜飼歯科医院,愛知県一宮市萩原町朝宮字長池２,歯科　矯正歯科　小児歯科,,,9" xlink:title="鵜飼歯科医院" transform="ref(svg,13676.3014,-3528.8532)" x="0" y="0"/>
<use xlink:href="#p0" content="3,オーキッド歯科,愛知県一宮市小赤見字秋吉４,歯科　矯正歯科　小児歯科　歯科口腔外科,,,9" xlink:title="オーキッド歯科" transform="ref(svg,13683.4149,-3530.9524)" x="0" y="0"/>
<use xlink:href="#p0" content="3,大島歯科クリニック,愛知県一宮市公園通５-２６,歯科　小児歯科,,,9" xlink:title="大島歯科クリニック" transform="ref(svg,13680.3467,-3529.4292)" x="0" y="0"/>
<use xlink:href="#p0" content="3,大滝歯科医院,愛知県一宮市富士２-１４-８,歯科　小児歯科,,,9" xlink:title="大滝歯科医院" transform="ref(svg,13681.717,-3530.6054)" x="0" y="0"/>
<use xlink:href="#p0" content="3,大橋歯科医院,愛知県一宮市今伊勢町馬寄字観音堂４５-１,歯科　矯正歯科　小児歯科,,,9" xlink:title="大橋歯科医院" transform="ref(svg,13678.6663,-3532.85)" x="0" y="0"/>
<use xlink:href="#p0" content="3,おろし歯科医院,愛知県一宮市柚木颪４９０,歯科　小児歯科,,,9" xlink:title="おろし歯科医院" transform="ref(svg,13682.9062,-3531.3643)" x="0" y="0"/>
<use xlink:href="#p0" content="3,鹿島歯科クリニック,愛知県一宮市宮地１-１４-５,歯科　小児歯科,,,9" xlink:title="鹿島歯科クリニック" transform="ref(svg,13679.2494,-3528.9818)" x="0" y="0"/>
<use xlink:href="#p0" content="3,加藤歯科,愛知県一宮市萩原町朝宮７１０,歯科　矯正歯科　小児歯科　歯科口腔外科,,,9" xlink:title="加藤歯科" transform="ref(svg,13675.9209,-3528.8488)" x="0" y="0"/>
<use xlink:href="#p0" content="3,加藤歯科医院,愛知県一宮市本町３-２-２２,歯科,,,9" xlink:title="加藤歯科医院" transform="ref(svg,13680.0103,-3530.3084)" x="0" y="0"/>
<use xlink:href="#p0" content="3,苅安賀歯科クリニック,愛知県一宮市苅安賀１-１８-１１,歯科,,,9" xlink:title="苅安賀歯科クリニック" transform="ref(svg,13678.3732,-3529.2013)" x="0" y="0"/>
<use xlink:href="#p0" content="3,河村歯科医院,愛知県一宮市緑３-１-７,歯科,,,9" xlink:title="河村歯科医院" transform="ref(svg,13681.8657,-3530.1855)" x="0" y="0"/>
<use xlink:href="#p0" content="3,木曽原歯科医院,愛知県一宮市開明字郷東３８-１,歯科　小児歯科,,,9" xlink:title="木曽原歯科医院" transform="ref(svg,13677.1994,-3531.4862)" x="0" y="0"/>
<use xlink:href="#p0" content="3,きたいま歯科,愛知県一宮市北今字再鳥３-１１,歯科　小児歯科,,,9" xlink:title="きたいま歯科" transform="ref(svg,13675.9067,-3529.7129)" x="0" y="0"/>
<use xlink:href="#p0" content="3,キフネ歯科,愛知県一宮市奥町字貴船東５-１,歯科　小児歯科,,,9" xlink:title="キフネ歯科" transform="ref(svg,13676.054,-3532.8484)" x="0" y="0"/>
<use xlink:href="#p0" content="3,葛谷ファミリー歯科,愛知県一宮市篭屋１-１２-２４,歯科　小児歯科,,,9" xlink:title="葛谷ファミリー歯科" transform="ref(svg,13676.6923,-3530.7374)" x="0" y="0"/>
<use xlink:href="#p0" content="3,（医）グリーンフォレストグリーン矯正歯科一宮,愛知県一宮市栄１-１１-１６マースビル３階,歯科　矯正歯科　小児歯科,,,9" xlink:title="（医）グリーンフォレストグリーン矯正歯科一宮" transform="ref(svg,13679.9473,-3530.3796)" x="0" y="0"/>
<use xlink:href="#p0" content="3,こじ矯正・こども歯科クリニック,愛知県一宮市栄３-２-１１丸金ビル１Ｆ,矯正歯科　小児歯科,,,9" xlink:title="こじ矯正・こども歯科クリニック" transform="ref(svg,13679.8567,-3530.341)" x="0" y="0"/>
<use xlink:href="#p0" content="3,こじま歯科,愛知県一宮市浅井町東浅井字新開前４７,歯科　矯正歯科　小児歯科,,,9" xlink:title="こじま歯科" transform="ref(svg,13682.9868,-3533.0611)" x="0" y="0"/>
<use xlink:href="#p0" content="3,コスモ歯科,愛知県一宮市多加木４-２-５,歯科　矯正歯科　小児歯科　歯科口腔外科,,,9" xlink:title="コスモ歯科" transform="ref(svg,13681.5481,-3528.2491)" x="0" y="0"/>
<use xlink:href="#p0" content="3,小林歯科,愛知県一宮市今伊勢町宮後郷東２２-１,歯科　矯正歯科　小児歯科,,,9" xlink:title="小林歯科" transform="ref(svg,13678.7073,-3531.7287)" x="0" y="0"/>
<use xlink:href="#p0" content="3,斉藤歯科医院,愛知県一宮市大浜２-２-１９,歯科,,,9" xlink:title="斉藤歯科医院" transform="ref(svg,13681.148,-3530.9111)" x="0" y="0"/>
<use xlink:href="#p0" content="3,坂井田歯科医院,愛知県一宮市松降１-１０-１３,歯科　小児歯科,,,9" xlink:title="坂井田歯科医院" transform="ref(svg,13680.5066,-3530.8072)" x="0" y="0"/>
<use xlink:href="#p0" content="3,さくら歯科医院,愛知県一宮市花池１-４-３０,歯科,,,9" xlink:title="さくら歯科医院" transform="ref(svg,13679.5047,-3529.3851)" x="0" y="0"/>
<use xlink:href="#p0" content="3,桜井歯科,愛知県一宮市緑３-１１-１６,歯科　矯正歯科　小児歯科,,,9" xlink:title="桜井歯科" transform="ref(svg,13681.8953,-3529.8719)" x="0" y="0"/>
<use xlink:href="#p0" content="3,桜木歯科医院,愛知県一宮市大和町氏永字河北１０-２,歯科　矯正歯科　小児歯科,,,9" xlink:title="桜木歯科医院" transform="ref(svg,13679.8528,-3527.1426)" x="0" y="0"/>
<use xlink:href="#p0" content="3,佐々歯科医院,愛知県一宮市森本３-１７-２８,歯科,,,9" xlink:title="佐々歯科医院" transform="ref(svg,13681.3555,-3528.7546)" x="0" y="0"/>
<use xlink:href="#p0" content="3,さとう歯科,愛知県一宮市千秋町浅野羽根字六反畑１４-１,歯科　矯正歯科　小児歯科,,,9" xlink:title="さとう歯科" transform="ref(svg,13684.1486,-3529.1847)" x="0" y="0"/>
<use xlink:href="#p0" content="3,柴田小児歯科,愛知県一宮市公園通３-９,歯科　矯正歯科　小児歯科,,,9" xlink:title="柴田小児歯科" transform="ref(svg,13680.3502,-3529.8235)" x="0" y="0"/>
<use xlink:href="#p0" content="3,柴山歯科医院,愛知県一宮市篭屋２-６-４７,歯科,,,9" xlink:title="柴山歯科医院" transform="ref(svg,13677.0246,-3530.8757)" x="0" y="0"/>
<use xlink:href="#p0" content="3,清水歯科,愛知県一宮市三条字酉新田６３,歯科　小児歯科,,,9" xlink:title="清水歯科" transform="ref(svg,13675.8208,-3530.0554)" x="0" y="0"/>
<use xlink:href="#p0" content="3,鈴木歯科,愛知県一宮市八幡２-１-８,歯科　小児歯科,,,9" xlink:title="鈴木歯科" transform="ref(svg,13679.3576,-3530.4048)" x="0" y="0"/>
<use xlink:href="#p0" content="3,すみ歯科,愛知県一宮市下沼町４-３-１,歯科,,,9" xlink:title="すみ歯科" transform="ref(svg,13681.6464,-3531.3242)" x="0" y="0"/>
<use xlink:href="#p0" content="3,墨歯科医院,愛知県一宮市新生３-４-１９,歯科,,,9" xlink:title="墨歯科医院" transform="ref(svg,13679.6094,-3529.8605)" x="0" y="0"/>
<use xlink:href="#p0" content="3,ソブエ歯科,愛知県一宮市野口１-１１-５,歯科　小児歯科,,,9" xlink:title="ソブエ歯科" transform="ref(svg,13679.3788,-3529.9625)" x="0" y="0"/>
<use xlink:href="#p0" content="3,泰（タイ）歯科,愛知県一宮市丹陽町五日市場字屋敷１７４,歯科,,,9" xlink:title="泰（タイ）歯科" transform="ref(svg,13683.621,-3525.5285)" x="0" y="0"/>
<use xlink:href="#p0" content="3,高橋歯科医院,愛知県一宮市末広２-２-２,歯科,,,9" xlink:title="高橋歯科医院" transform="ref(svg,13678.9135,-3529.718)" x="0" y="0"/>
<use xlink:href="#p0" content="3,滝歯科医院,愛知県一宮市本町１-４-１９,歯科　矯正歯科　小児歯科　歯科口腔外科,,,9" xlink:title="滝歯科医院" transform="ref(svg,13680.2224,-3530.5017)" x="0" y="0"/>
<use xlink:href="#p0" content="3,竹中歯科医院,愛知県一宮市文京１-４-３０,歯科　小児歯科,,,9" xlink:title="竹中歯科医院" transform="ref(svg,13680.5482,-3531.0962)" x="0" y="0"/>
<use xlink:href="#p0" content="3,田島歯科医院,愛知県一宮市北園通６-５-１,歯科　矯正歯科　小児歯科　歯科口腔外科,,,9" xlink:title="田島歯科医院" transform="ref(svg,13681.0211,-3529.709)" x="0" y="0"/>
<use xlink:href="#p0" content="3,（医）明典会タナカ歯科,愛知県一宮市丹羽字虚空蔵７８８-１,歯科　矯正歯科　小児歯科,,,9" xlink:title="（医）明典会タナカ歯科" transform="ref(svg,13682.2003,-3531.8828)" x="0" y="0"/>
<use xlink:href="#p0" content="3,つぎはし歯科,愛知県一宮市開明字前脇３-３,歯科,,,9" xlink:title="つぎはし歯科" transform="ref(svg,13676.0507,-3531.9151)" x="0" y="0"/>
<use xlink:href="#p0" content="3,津田歯科クリニック,愛知県一宮市大赤見字西川垂２３,歯科,,,9" xlink:title="津田歯科クリニック" transform="ref(svg,13682.6765,-3532.0477)" x="0" y="0"/>
<use xlink:href="#p0" content="3,テンサン歯科医院,愛知県一宮市新生１-４-１,歯科　矯正歯科　小児歯科,,,9" xlink:title="テンサン歯科医院" transform="ref(svg,13679.5278,-3530.2913)" x="0" y="0"/>
<use xlink:href="#p0" content="3,徳田歯科医院,愛知県一宮市大和町苅安賀山王１１-２,歯科　小児歯科,,,9" xlink:title="徳田歯科医院" transform="ref(svg,13678.715,-3528.7225)" x="0" y="0"/>
<use xlink:href="#p0" content="3,とまつ歯科医院,愛知県一宮市神山２-１３-１８,歯科　小児歯科,,,9" xlink:title="とまつ歯科医院" transform="ref(svg,13678.7773,-3530.4618)" x="0" y="0"/>
<use xlink:href="#p0" content="3,とむ歯科クリニック,愛知県一宮市今伊勢町馬寄字西切戸１２-１,歯科　矯正歯科　小児歯科,,,9" xlink:title="とむ歯科クリニック" transform="ref(svg,13678.2672,-3532.5504)" x="0" y="0"/>
<use xlink:href="#p0" content="3,とみたデンタルクリニック,愛知県一宮市緑５-２-３４,歯科　矯正歯科　小児歯科　歯科口腔外科,,,9" xlink:title="とみたデンタルクリニック" transform="ref(svg,13682.0835,-3529.8005)" x="0" y="0"/>
<use xlink:href="#p0" content="3,なかお歯科,愛知県一宮市浅野字大茶木２８,歯科　小児歯科,,,9" xlink:title="なかお歯科" transform="ref(svg,13683.3031,-3529.3288)" x="0" y="0"/>
<use xlink:href="#p0" content="3,中山歯科医院,愛知県一宮市別明町３-２,歯科　小児歯科,,,9" xlink:title="中山歯科医院" transform="ref(svg,13681.3841,-3531.1585)" x="0" y="0"/>
<use xlink:href="#p0" content="3,西成歯科医院,愛知県一宮市春明字西出３１-１,歯科　小児歯科,,,9" xlink:title="西成歯科医院" transform="ref(svg,13684.3562,-3532.0224)" x="0" y="0"/>
<use xlink:href="#p0" content="3,（医）丹羽歯科,愛知県一宮市大和町馬引８５９-３,歯科　矯正歯科　小児歯科,,,9" xlink:title="（医）丹羽歯科" transform="ref(svg,13677.6005,-3530.623)" x="0" y="0"/>
<use xlink:href="#p0" content="3,のぞみ歯科,愛知県一宮市大和町苅安賀字中西之杁７,歯科,,,9" xlink:title="のぞみ歯科" transform="ref(svg,13677.4522,-3528.8984)" x="0" y="0"/>
<use xlink:href="#p0" content="3,野口歯科医院,愛知県一宮市平島１-７-２５,歯科　矯正歯科　小児歯科,,,9" xlink:title="野口歯科医院" transform="ref(svg,13683.5046,-3528.6495)" x="0" y="0"/>
<use xlink:href="#p0" content="3,（医）ノダ歯科クリニック,愛知県一宮市今伊勢町本神戸字北無量寺１０,歯科　矯正歯科　小児歯科,,,9" xlink:title="（医）ノダ歯科クリニック" transform="ref(svg,13679.0775,-3531.7669)" x="0" y="0"/>
<use xlink:href="#p0" content="3,ののがき歯科医院,愛知県一宮市佐千原字新田２,歯科　矯正歯科　小児歯科,,,9" xlink:title="ののがき歯科医院" transform="ref(svg,13681.3864,-3532.5605)" x="0" y="0"/>
<use xlink:href="#p0" content="3,長谷川歯科,愛知県一宮市栄１-１１-２０,歯科　矯正歯科　小児歯科,,,9" xlink:title="長谷川歯科" transform="ref(svg,13679.9493,-3530.4001)" x="0" y="0"/>
<use xlink:href="#p0" content="3,はないけ歯科,愛知県一宮市花池４-５-１１,歯科　矯正歯科　小児歯科,,,9" xlink:title="はないけ歯科" transform="ref(svg,13679.9019,-3528.8955)" x="0" y="0"/>
<use xlink:href="#p0" content="3,ハヤシ歯科クリニック,愛知県一宮市今伊勢町新神戸郷前２９-２,歯科　小児歯科,,,9" xlink:title="ハヤシ歯科クリニック" transform="ref(svg,13678.8404,-3531.3583)" x="0" y="0"/>
<use xlink:href="#p0" content="3,はやせ歯科口腔外科,愛知県一宮市萩原町滝字北裡４,歯科　矯正歯科　小児歯科　歯科口腔外科,,,9" xlink:title="はやせ歯科口腔外科" transform="ref(svg,13676.1615,-3527.4248)" x="0" y="0"/>
<use xlink:href="#p0" content="3,はら歯科クリニックＳＥＢＥ,愛知県一宮市大字瀬部字小山１４-１,歯科　小児歯科,,,9" xlink:title="はら歯科クリニックＳＥＢＥ" transform="ref(svg,13684.5269,-3533.078)" x="0" y="0"/>
<use xlink:href="#p0" content="3,伴歯科医院,愛知県一宮市西島町３-５２,歯科　小児歯科,,,9" xlink:title="伴歯科医院" transform="ref(svg,13680.6356,-3532.2638)" x="0" y="0"/>
<use xlink:href="#p0" content="3,陽だまり歯科,愛知県一宮市丹陽町伝法寺字北海道１６９２-１,歯科　小児歯科,,,9" xlink:title="陽だまり歯科" transform="ref(svg,13684.1965,-3526.4409)" x="0" y="0"/>
<use xlink:href="#p0" content="3,日野歯科医院,愛知県一宮市白旗通１-２,歯科　小児歯科,,,9" xlink:title="日野歯科医院" transform="ref(svg,13681.3747,-3529.9871)" x="0" y="0"/>
<use xlink:href="#p0" content="3,ひらみつ歯科,愛知県一宮市大和町毛受字浜田２０,歯科　小児歯科,,,9" xlink:title="ひらみつ歯科" transform="ref(svg,13677.9748,-3529.73)" x="0" y="0"/>
<use xlink:href="#p0" content="3,平山歯科医院,愛知県一宮市北園通１-２２,歯科　小児歯科,,,9" xlink:title="平山歯科医院" transform="ref(svg,13680.1123,-3529.6416)" x="0" y="0"/>
<use xlink:href="#p0" content="3,ヒロ歯科室,愛知県一宮市本町４-１５-２１サンパーク本町１０３,歯科,,,9" xlink:title="ヒロ歯科室" transform="ref(svg,13680.164,-3529.9986)" x="0" y="0"/>
<use xlink:href="#p0" content="3,ファミリー歯科クリニック,愛知県一宮市萩原町萩原字東大畔３５,歯科　矯正歯科　小児歯科,,,9" xlink:title="ファミリー歯科クリニック" transform="ref(svg,13676.1278,-3527.9042)" x="0" y="0"/>
<use xlink:href="#p0" content="3,藤橋歯科医院,愛知県一宮市大志１-８-１４,歯科　小児歯科,,,9" xlink:title="藤橋歯科医院" transform="ref(svg,13680.3592,-3529.9493)" x="0" y="0"/>
<use xlink:href="#p0" content="3,古澤歯科,愛知県一宮市奥町字貴船東１０４-５,歯科　矯正歯科　小児歯科,,,9" xlink:title="古澤歯科" transform="ref(svg,13676.104,-3532.7615)" x="0" y="0"/>
<use xlink:href="#p0" content="3,文京歯科医院,愛知県一宮市文京２-８-８,歯科　矯正歯科　小児歯科,,,9" xlink:title="文京歯科医院" transform="ref(svg,13680.5018,-3531.4579)" x="0" y="0"/>
<use xlink:href="#p0" content="3,堀田歯科,愛知県一宮市萩原町西御堂字鍋野１５,歯科,,,9" xlink:title="堀田歯科" transform="ref(svg,13677.8171,-3526.3179)" x="0" y="0"/>
<use xlink:href="#p0" content="3,本町歯科,愛知県一宮市本町２-４-２６,歯科,,,9" xlink:title="本町歯科" transform="ref(svg,13680.1313,-3530.3874)" x="0" y="0"/>
<use xlink:href="#p0" content="3,前岡歯科医院,愛知県一宮市向山南１-６-１,歯科　小児歯科　歯科口腔外科,,,9" xlink:title="前岡歯科医院" transform="ref(svg,13680.7894,-3529.4663)" x="0" y="0"/>
<use xlink:href="#p0" content="3,まえだデンタルクリニック,愛知県一宮市大和町馬引字郷東３３-１,歯科　矯正歯科　小児歯科,,,9" xlink:title="まえだデンタルクリニック" transform="ref(svg,13678.1242,-3530.357)" x="0" y="0"/>
<use xlink:href="#p0" content="3,牧歯科,愛知県一宮市大江３-１２-２２一観ビル３階,歯科　矯正歯科,,,9" xlink:title="牧歯科" transform="ref(svg,13680.2769,-3530.1648)" x="0" y="0"/>
<use xlink:href="#p0" content="3,まごころ歯科,愛知県一宮市本町３-６-９安藤ビル２Ｆ,歯科　小児歯科,,,9" xlink:title="まごころ歯科" transform="ref(svg,13680.2482,-3530.2207)" x="0" y="0"/>
<use xlink:href="#p0" content="3,松浦歯科医院,愛知県一宮市時之島字宮付９３-１,歯科　矯正歯科　小児歯科,,,9" xlink:title="松浦歯科医院" transform="ref(svg,13683.5315,-3532.66)" x="0" y="0"/>
<use xlink:href="#p0" content="3,ミキ歯科クリニック,愛知県一宮市八幡２-１３-３１パークテラス１Ｆ,歯科　小児歯科　歯科口腔外科,,,9" xlink:title="ミキ歯科クリニック" transform="ref(svg,13679.3431,-3530.5698)" x="0" y="0"/>
<use xlink:href="#p0" content="3,みずの歯科,愛知県一宮市相生１-８-１３,歯科　矯正歯科　小児歯科,,,9" xlink:title="みずの歯科" transform="ref(svg,13681.6858,-3529.4195)" x="0" y="0"/>
<use xlink:href="#p0" content="3,みずほ矯正歯科医院,愛知県一宮市大江２-１-１８ワキタビル１Ｆ,矯正歯科,,,9" xlink:title="みずほ矯正歯科医院" transform="ref(svg,13680.3569,-3530.3764)" x="0" y="0"/>
<use xlink:href="#p0" content="3,みどり歯科,愛知県一宮市緑１-１-１８,歯科　小児歯科,,,9" xlink:title="みどり歯科" transform="ref(svg,13681.3987,-3530.2437)" x="0" y="0"/>
<use xlink:href="#p0" content="3,箕田歯科医院,愛知県一宮市大宮３-１-１８,歯科　小児歯科,,,9" xlink:title="箕田歯科医院" transform="ref(svg,13679.8784,-3531.0222)" x="0" y="0"/>
<use xlink:href="#p0" content="3,ミルキーウェイデンタルクリニック,愛知県一宮市栄３-７-１８ミルキーウェイビル６Ｆ,歯科　矯正歯科　小児歯科,,,9" xlink:title="ミルキーウェイデンタルクリニック" transform="ref(svg,13679.8914,-3530.2269)" x="0" y="0"/>
<use xlink:href="#p0" content="3,三輪デンタルクリニック,愛知県一宮市音羽１-５-１４,歯科　小児歯科,,,9" xlink:title="三輪デンタルクリニック" transform="ref(svg,13679.7917,-3530.7659)" x="0" y="0"/>
<use xlink:href="#p0" content="3,むらかみ歯科,愛知県一宮市大和町妙興寺字地蔵恵６８-１,歯科　矯正歯科　小児歯科　歯科口腔外科,,,9" xlink:title="むらかみ歯科" transform="ref(svg,13680.6427,-3528.233)" x="0" y="0"/>
<use xlink:href="#p0" content="3,ムラタ歯科,愛知県一宮市今伊勢町馬寄字若宮５６-１,歯科,,,9" xlink:title="ムラタ歯科" transform="ref(svg,13679.2751,-3532.9548)" x="0" y="0"/>
<use xlink:href="#p0" content="3,モリ歯科,愛知県一宮市開明字杁西郭７０-１,歯科　矯正歯科　小児歯科,,,9" xlink:title="モリ歯科" transform="ref(svg,13677.1615,-3532.2211)" x="0" y="0"/>
<use xlink:href="#p0" content="3,モリシン歯科,愛知県一宮市西大海道字郷前４３,歯科　矯正歯科　小児歯科,,,9" xlink:title="モリシン歯科" transform="ref(svg,13683.2896,-3531.4704)" x="0" y="0"/>
<use xlink:href="#p0" content="3,森本歯科医院,愛知県一宮市森本５-１６-１２,歯科　小児歯科,,,9" xlink:title="森本歯科医院" transform="ref(svg,13681.2536,-3528.5503)" x="0" y="0"/>
<use xlink:href="#p0" content="3,山口歯科医院,愛知県一宮市城崎通５-２７,歯科,,,9" xlink:title="山口歯科医院" transform="ref(svg,13680.9555,-3530.089)" x="0" y="0"/>
<use xlink:href="#p0" content="3,やまと歯科医院,愛知県一宮市大和町南高井字蓮原１-１,歯科　矯正歯科　小児歯科,,,9" xlink:title="やまと歯科医院" transform="ref(svg,13678.273,-3527.3484)" x="0" y="0"/>
<use xlink:href="#p0" content="3,吉本歯科,愛知県一宮市昭和２-２-３０,歯科　小児歯科,,,9" xlink:title="吉本歯科" transform="ref(svg,13678.9331,-3529.3647)" x="0" y="0"/>
<use xlink:href="#p0" content="3,脇田歯科,愛知県一宮市栄１-８-１一宮栄ビル５階,歯科　矯正歯科　小児歯科　歯科口腔外科,,,9" xlink:title="脇田歯科" transform="ref(svg,13679.8168,-3530.4818)" x="0" y="0"/>
<use xlink:href="#p0" content="3,渡辺歯科医院,愛知県一宮市新生１-７-４,歯科　矯正歯科　小児歯科,,,9" xlink:title="渡辺歯科医院" transform="ref(svg,13679.5828,-3530.1539)" x="0" y="0"/>
<use xlink:href="#p0" content="3,ｉ　ＤＥＮＴＡＬ　ＣＬＩＮＩＣ,愛知県稲沢市下津北山１-７-３,歯科　小児歯科,,,9" xlink:title="ｉ　ＤＥＮＴＡＬ　ＣＬＩＮＩＣ" transform="ref(svg,13682.2056,-3525.7399)" x="0" y="0"/>
<use xlink:href="#p0" content="3,浅野歯科医院,愛知県稲沢市稲葉２-６-３０,歯科,,,9" xlink:title="浅野歯科医院" transform="ref(svg,13678.8973,-3525.3769)" x="0" y="0"/>
<use xlink:href="#p0" content="3,石黒歯科医院,愛知県稲沢市下屋町３-１３４,歯科　矯正歯科　小児歯科,,,9" xlink:title="石黒歯科医院" transform="ref(svg,13676.2435,-3525.0363)" x="0" y="0"/>
<use xlink:href="#p0" content="3,矯正歯科いとう,愛知県稲沢市松下１-７-２４たかビル３Ｆ,歯科　矯正歯科　小児歯科,,,9" xlink:title="矯正歯科いとう" transform="ref(svg,13680.2137,-3525.3759)" x="0" y="0"/>
<use xlink:href="#p0" content="3,小川歯科クリニック,愛知県稲沢市陸田宮前１-１４-１１,歯科　矯正歯科　小児歯科,,,9" xlink:title="小川歯科クリニック" transform="ref(svg,13681.9375,-3526.289)" x="0" y="0"/>
<use xlink:href="#p0" content="3,小澤歯科医院,愛知県稲沢市小沢４-１４-１１,歯科　小児歯科,,,9" xlink:title="小澤歯科医院" transform="ref(svg,13679.6976,-3524.9993)" x="0" y="0"/>
<use xlink:href="#p0" content="3,おりづ歯科,愛知県稲沢市下津大門町４４-１,歯科　小児歯科,,,9" xlink:title="おりづ歯科" transform="ref(svg,13682.7904,-3525.7083)" x="0" y="0"/>
<use xlink:href="#p0" content="3,加藤歯科医院,愛知県稲沢市稲沢町前田５-９３,歯科,,,9" xlink:title="加藤歯科医院" transform="ref(svg,13679.5985,-3524.9546)" x="0" y="0"/>
<use xlink:href="#p0" content="3,木村歯科,愛知県稲沢市松下１-１９-１,歯科,,,9" xlink:title="木村歯科" transform="ref(svg,13680.2231,-3525.584)" x="0" y="0"/>
<use xlink:href="#p0" content="3,グリーン歯科クリニック,愛知県稲沢市稲島１０-７１-１,歯科　小児歯科,,,9" xlink:title="グリーン歯科クリニック" transform="ref(svg,13679.4482,-3526.0043)" x="0" y="0"/>
<use xlink:href="#p0" content="3,グレースデンタルクリニック,愛知県稲沢市天池光田町９５,歯科　矯正歯科　小児歯科,,,9" xlink:title="グレースデンタルクリニック" transform="ref(svg,13677.3884,-3525.2957)" x="0" y="0"/>
<use xlink:href="#p0" content="3,けやき通り歯科クリニック,愛知県稲沢市国府宮町手枕１００-１１７,歯科　小児歯科,,,9" xlink:title="けやき通り歯科クリニック" transform="ref(svg,13680.5871,-3525.8767)" x="0" y="0"/>
<use xlink:href="#p0" content="3,さかい歯科,愛知県稲沢市治郎丸椿町５９,歯科,,,9" xlink:title="さかい歯科" transform="ref(svg,13680.9898,-3526.3351)" x="0" y="0"/>
<use xlink:href="#p0" content="3,さくらぎ歯科,愛知県稲沢市桜木宮前町７２-１,歯科　矯正歯科,,,9" xlink:title="さくらぎ歯科" transform="ref(svg,13677.798,-3525.3632)" x="0" y="0"/>
<use xlink:href="#p0" content="3,すぎむら歯科,愛知県稲沢市桜木宮前町４９-１,歯科,,,9" xlink:title="すぎむら歯科" transform="ref(svg,13677.899,-3525.3929)" x="0" y="0"/>
<use xlink:href="#p0" content="3,スマイルデンタルクリニック,愛知県稲沢市陸田本町１５９,歯科　矯正歯科　小児歯科,,,9" xlink:title="スマイルデンタルクリニック" transform="ref(svg,13681.755,-3526.6453)" x="0" y="0"/>
<use xlink:href="#p0" content="3,竹市歯科,愛知県稲沢市赤池南町６３,歯科　小児歯科,,,9" xlink:title="竹市歯科" transform="ref(svg,13682.5263,-3526.8727)" x="0" y="0"/>
<use xlink:href="#p0" content="3,（医）谷口歯科,愛知県稲沢市小池２-２１-７,歯科　小児歯科,,,9" xlink:title="（医）谷口歯科" transform="ref(svg,13681.2736,-3524.9415)" x="0" y="0"/>
<use xlink:href="#p0" content="3,谷小児歯科,愛知県稲沢市駅前２-２７-１,小児歯科,,,9" xlink:title="谷小児歯科" transform="ref(svg,13682.0604,-3524.981)" x="0" y="0"/>
<use xlink:href="#p0" content="3,たんぽぽ歯科クリニック,愛知県稲沢市大塚北６-９９-１,歯科　矯正歯科　小児歯科,,,9" xlink:title="たんぽぽ歯科クリニック" transform="ref(svg,13679.6937,-3524.4547)" x="0" y="0"/>
<use xlink:href="#p0" content="3,坪井歯科医院,愛知県稲沢市駅前１-１１-７,歯科,,,9" xlink:title="坪井歯科医院" transform="ref(svg,13681.9972,-3525.3009)" x="0" y="0"/>
<use xlink:href="#p0" content="3,遠山歯科医院,愛知県稲沢市松下１-１-１,歯科　矯正歯科　小児歯科,,,9" xlink:title="遠山歯科医院" transform="ref(svg,13680.2773,-3525.3779)" x="0" y="0"/>
<use xlink:href="#p0" content="3,野村歯科医院,愛知県稲沢市駅前２-４１-２１-１０１,歯科　小児歯科,,,9" xlink:title="野村歯科医院" transform="ref(svg,13681.8504,-3524.9693)" x="0" y="0"/>
<use xlink:href="#p0" content="3,橋本歯科医院,愛知県稲沢市石橋４-７４,歯科　小児歯科,,,9" xlink:title="橋本歯科医院" transform="ref(svg,13678.03,-3525.5633)" x="0" y="0"/>
<use xlink:href="#p0" content="3,服部歯科医院,愛知県稲沢市小沢２-４-２５-１０１,歯科　小児歯科,,,9" xlink:title="服部歯科医院" transform="ref(svg,13679.7409,-3525.4762)" x="0" y="0"/>
<use xlink:href="#p0" content="3,林ファミリー歯科,愛知県稲沢市国府宮４-３-９,歯科　矯正歯科　小児歯科,,,9" xlink:title="林ファミリー歯科" transform="ref(svg,13680.9097,-3525.5463)" x="0" y="0"/>
<use xlink:href="#p0" content="3,古森歯科,愛知県稲沢市稲沢町下田１７-１,歯科,,,9" xlink:title="古森歯科" transform="ref(svg,13678.7858,-3524.953)" x="0" y="0"/>
<use xlink:href="#p0" content="3,まいデンタルクリニック,愛知県稲沢市石橋２-２６４,歯科　矯正歯科　小児歯科,,,9" xlink:title="まいデンタルクリニック" transform="ref(svg,13678.0222,-3525.9808)" x="0" y="0"/>
<use xlink:href="#p0" content="3,ますだ歯科,愛知県稲沢市長野７-１-２リーフウォーク稲沢１１９区画,歯科　矯正歯科　小児歯科,,,9" xlink:title="ますだ歯科" transform="ref(svg,13681.9134,-3526.0947)" x="0" y="0"/>
<use xlink:href="#p0" content="3,水谷歯科,愛知県稲沢市井之口北畑町２４４,歯科　小児歯科,,,9" xlink:title="水谷歯科" transform="ref(svg,13682.2429,-3524.4261)" x="0" y="0"/>
<use xlink:href="#p0" content="3,むつが歯科,愛知県稲沢市正明寺２-１８-２３,歯科　小児歯科,,,9" xlink:title="むつが歯科" transform="ref(svg,13680.8554,-3524.8889)" x="0" y="0"/>
<use xlink:href="#p0" content="3,（医）愛聖会山田歯科,愛知県稲沢市下津下町東４-２,歯科,,,9" xlink:title="（医）愛聖会山田歯科" transform="ref(svg,13683.0542,-3524.8253)" x="0" y="0"/>
<use xlink:href="#p0" content="3,山本歯科医院,愛知県稲沢市駅前３-６-２６,歯科　小児歯科,,,9" xlink:title="山本歯科医院" transform="ref(svg,13681.8282,-3524.8612)" x="0" y="0"/>
<use xlink:href="#p0" content="3,ライフ歯科クリニック,愛知県稲沢市長野１-９-１５,歯科,,,9" xlink:title="ライフ歯科クリニック" transform="ref(svg,13681.5537,-3525.5717)" x="0" y="0"/>
<use xlink:href="#p0" content="3,後藤歯科,愛知県北名古屋市中之郷北１６,歯科　小児歯科　矯正歯科,,,9" xlink:title="後藤歯科" transform="ref(svg,13684.427,-3524.6864)" x="0" y="0"/>
</g>
</svg>
