<?xml version="1.0" encoding="UTF-8"?>
<svg  xmlns="http://www.w3.org/2000/svg" xmlns:xlink="http://www.w3.org/1999/xlink" xmlns:go="http://purl.org/svgmap/profile" property="医療機関分類,施設名称,所在地,診療科目１,診療科目２,診療科目３,開設者分類" viewBox="13675.78125 -3498.046875 17.578125 17.578125" go:dataArea="13675.78125 -3498.046875 17.578125 17.578125" >
<metadata>
 <rdf:RDF xmlns:rdf="http://www.w3.org/1999/02/22-rdf-syntax-ns#" xmlns:crs="http://opengis.org/xmldtds/transformations.dtd" xmlns:svg="http://www.w3.org/svg" >
  <rdf:Description>
   <crs:CoordinateReferenceSystem rdf:resource="http://purl.org/crs/84" svg:transform="matrix(100.0,0.0,0.0,-100.0,0.0,0.0)" />
  </rdf:Description>
 </rdf:RDF>
</metadata>
<globalCoordinateSystem srsName="http://purl.org/crs/84" transform="matrix(100.0,0.0,0.0,-100.0,0.0,0.0)" />
<defs>
 <g id="p0" >
  <image xlink:href="mappin.png" preserveAspectRatio="none" x="-8" y="-25" width="19" height="27"/>
 </g>
 <g id="p1" >
  <image xlink:href="mappin1.png" preserveAspectRatio="none" x="-8" y="-25" width="19" height="27"/>
 </g>
 <g id="p2" >
  <image xlink:href="mappin2.png" preserveAspectRatio="none" x="-8" y="-25" width="19" height="27"/>
 </g>
 <g id="p3" >
  <image xlink:href="mappin3.png" preserveAspectRatio="none" x="-8" y="-25" width="19" height="27"/>
 </g>
 <g id="p4" >
  <image xlink:href="mappin4.png" preserveAspectRatio="none" x="-8" y="-25" width="19" height="27"/>
 </g>
 <g id="p5" >
  <image xlink:href="mappin5.png" preserveAspectRatio="none" x="-8" y="-25" width="19" height="27"/>
 </g>
 <g id="p6" >
  <image xlink:href="mappin6.png" preserveAspectRatio="none" x="-8" y="-25" width="19" height="27"/>
 </g>
 <g id="p7" >
  <image xlink:href="mappin7.png" preserveAspectRatio="none" x="-8" y="-25" width="19" height="27"/>
 </g>
 <g id="p8" >
  <image xlink:href="mappin8.png" preserveAspectRatio="none" x="-8" y="-25" width="19" height="27"/>
 </g>
 <g id="p9" >
  <image xlink:href="mappin9.png" preserveAspectRatio="none" x="-8" y="-25" width="19" height="27"/>
 </g>
</defs>
<g fill="green" fill-rule="evenodd" >
<use xlink:href="#p0" content="3,村井歯科,愛知県半田市岩滑中町１-８０-４,歯科　小児歯科　矯正歯科,,,9" xlink:title="村井歯科" transform="ref(svg,13692.4022,-3491.0041)" x="0" y="0"/>
<use xlink:href="#p0" content="3,タナカ歯科,愛知県半田市天王町１-１５,歯科,,,9" xlink:title="タナカ歯科" transform="ref(svg,13692.7087,-3489.6862)" x="0" y="0"/>
<use xlink:href="#p0" content="3,坂野歯科医院,愛知県半田市天神町５０-５,歯科　小児歯科　矯正歯科,,,9" xlink:title="坂野歯科医院" transform="ref(svg,13692.0513,-3488.9969)" x="0" y="0"/>
<use xlink:href="#p0" content="3,かわい歯科医院,愛知県半田市中町２-７協和ビル２階,歯科,,,9" xlink:title="かわい歯科医院" transform="ref(svg,13692.7335,-3489.0342)" x="0" y="0"/>
<use xlink:href="#p0" content="3,天野歯科医院,愛知県半田市仲田町１-４８-１,歯科　小児歯科　矯正歯科,,,9" xlink:title="天野歯科医院" transform="ref(svg,13691.8407,-3488.7559)" x="0" y="0"/>
<use xlink:href="#p0" content="3,杉浦歯科医院,愛知県半田市白山町１-１１４-１,歯科　小児歯科　矯正歯科,,,9" xlink:title="杉浦歯科医院" transform="ref(svg,13692.3007,-3489.303)" x="0" y="0"/>
<use xlink:href="#p0" content="3,ふじえだ歯科,愛知県半田市柊町３-４-８,歯科　小児歯科　矯正歯科,,,9" xlink:title="ふじえだ歯科" transform="ref(svg,13691.7009,-3490.0275)" x="0" y="0"/>
<use xlink:href="#p0" content="3,石川歯科医院,愛知県半田市板山町１-１１０-３,歯科　小児歯科　矯正歯科,,,9" xlink:title="石川歯科医院" transform="ref(svg,13689.348,-3488.8934)" x="0" y="0"/>
<use xlink:href="#p0" content="3,（医）慈修会池田歯科,愛知県半田市青山３-９-８,歯科　小児歯科　矯正歯科　歯科口腔外科,,,9" xlink:title="（医）慈修会池田歯科" transform="ref(svg,13691.0262,-3487.5684)" x="0" y="0"/>
<use xlink:href="#p0" content="3,日新デンタルクリニック,愛知県半田市青山２-２５-６,歯科　小児歯科　矯正歯科,,,9" xlink:title="日新デンタルクリニック" transform="ref(svg,13691.5368,-3487.8434)" x="0" y="0"/>
<use xlink:href="#p0" content="3,あい歯科医院,愛知県半田市宮本町６-２０６-１９,歯科,,,9" xlink:title="あい歯科医院" transform="ref(svg,13690.9381,-3488.3664)" x="0" y="0"/>
<use xlink:href="#p0" content="3,（医）くきた矯正歯科,愛知県半田市天王町１-３０トーカヒルズ２Ｆ,矯正歯科,,,9" xlink:title="（医）くきた矯正歯科" transform="ref(svg,13692.7216,-3489.6394)" x="0" y="0"/>
<use xlink:href="#p0" content="3,アップル歯科クリニック,愛知県半田市岩滑中町３-１０３-４,歯科　小児歯科　矯正歯科,,,9" xlink:title="アップル歯科クリニック" transform="ref(svg,13692.4783,-3490.7538)" x="0" y="0"/>
<use xlink:href="#p0" content="3,久野歯科医院,愛知県半田市花園町５-１０-２４,歯科,,,9" xlink:title="久野歯科医院" transform="ref(svg,13690.7361,-3487.2023)" x="0" y="0"/>
<use xlink:href="#p0" content="3,（医）政明会鈴木歯科医院,愛知県半田市北二ッ坂町１-２-１０,歯科　小児歯科　矯正歯科,,,9" xlink:title="（医）政明会鈴木歯科医院" transform="ref(svg,13691.3077,-3489.5259)" x="0" y="0"/>
<use xlink:href="#p0" content="3,やなべ歯科医院,愛知県半田市岩滑中町２-８１,歯科　小児歯科　矯正歯科,,,9" xlink:title="やなべ歯科医院" transform="ref(svg,13692.5221,-3490.9541)" x="0" y="0"/>
<use xlink:href="#p0" content="3,大沢歯科,愛知県半田市御幸町８８-１,歯科　小児歯科,,,9" xlink:title="大沢歯科" transform="ref(svg,13693.221,-3489.3299)" x="0" y="0"/>
<use xlink:href="#p0" content="3,高川歯科医院,愛知県半田市更生町１-９-１,歯科　小児歯科　矯正歯科,,,9" xlink:title="高川歯科医院" transform="ref(svg,13692.5721,-3489.1663)" x="0" y="0"/>
<use xlink:href="#p0" content="3,歯科ハミール,愛知県半田市宮路町１-１１８シャトー宮路１Ｆ,歯科　小児歯科　矯正歯科　歯科口腔外科,,,9" xlink:title="歯科ハミール" transform="ref(svg,13692.7217,-3490.1261)" x="0" y="0"/>
<use xlink:href="#p0" content="3,すずらん歯科,愛知県半田市北二ツ坂町２-１４-１０,歯科　小児歯科,,,9" xlink:title="すずらん歯科" transform="ref(svg,13690.8834,-3489.3307)" x="0" y="0"/>
<use xlink:href="#p0" content="3,竹内歯科医院,愛知県半田市桐ヶ丘１-５３-２,歯科　小児歯科,,,9" xlink:title="竹内歯科医院" transform="ref(svg,13691.6391,-3488.7619)" x="0" y="0"/>
<use xlink:href="#p0" content="3,山口歯科医院,愛知県半田市青山５-１-１２,歯科　小児歯科　矯正歯科,,,9" xlink:title="山口歯科医院" transform="ref(svg,13690.5889,-3487.9266)" x="0" y="0"/>
<use xlink:href="#p0" content="3,パールブライト歯科・矯正歯科,愛知県半田市青山町１-８-７サワータウン３ＲＤ１Ｆ,歯科　小児歯科　矯正歯科　歯科口腔外科,,,9" xlink:title="パールブライト歯科・矯正歯科" transform="ref(svg,13691.5929,-3487.6583)" x="0" y="0"/>
<use xlink:href="#p0" content="3,半田駅前歯科,愛知県半田市更生町１-１５-１,歯科　小児歯科　矯正歯科　歯科口腔外科,,,9" xlink:title="半田駅前歯科" transform="ref(svg,13692.619,-3489.2661)" x="0" y="0"/>
<use xlink:href="#p0" content="3,ジンデ歯科口腔外科,愛知県半田市有楽町５-２１４-３,歯科　歯科口腔外科,,,9" xlink:title="ジンデ歯科口腔外科" transform="ref(svg,13691.7189,-3487.7107)" x="0" y="0"/>
<use xlink:href="#p0" content="3,石田歯科医院,愛知県半田市南末広町２１,歯科　小児歯科,,,9" xlink:title="石田歯科医院" transform="ref(svg,13692.9384,-3489.3307)" x="0" y="0"/>
<use xlink:href="#p0" content="3,杉山歯科医院,愛知県半田市南本町１-４７,歯科　小児歯科　矯正歯科　歯科口腔外科,,,9" xlink:title="杉山歯科医院" transform="ref(svg,13693.3212,-3489.1826)" x="0" y="0"/>
<use xlink:href="#p0" content="3,ひだか矯正歯科クリニック,愛知県半田市広小路町６２ＴＲＥＳ知多半田１Ｆ-Ｂ,矯正歯科　小児矯正歯科,,,9" xlink:title="ひだか矯正歯科クリニック" transform="ref(svg,13692.7762,-3489.3775)" x="0" y="0"/>
<use xlink:href="#p0" content="3,歯科ドクターＨａ,愛知県半田市出口町１-４５-１３加藤ビル２階,歯科　小児歯科　矯正歯科　歯科口腔外科,,,9" xlink:title="歯科ドクターＨａ" transform="ref(svg,13692.4503,-3490.2013)" x="0" y="0"/>
<use xlink:href="#p0" content="3,三和歯科,愛知県半田市清城町２-１３-２４,歯科　小児歯科,,,9" xlink:title="三和歯科" transform="ref(svg,13690.9368,-3489.8064)" x="0" y="0"/>
<use xlink:href="#p0" content="3,金澤歯科医院,愛知県半田市栄町４-１０７,歯科,,,9" xlink:title="金澤歯科医院" transform="ref(svg,13692.1577,-3488.3026)" x="0" y="0"/>
<use xlink:href="#p0" content="3,おかいデンタルクリニック,愛知県半田市中町３-１６-１,歯科,,,9" xlink:title="おかいデンタルクリニック" transform="ref(svg,13692.6518,-3488.9542)" x="0" y="0"/>
<use xlink:href="#p0" content="3,静間歯科医院,愛知県半田市天神町５１-１０,歯科　小児歯科　矯正歯科,,,9" xlink:title="静間歯科医院" transform="ref(svg,13692.0029,-3489.0035)" x="0" y="0"/>
<use xlink:href="#p0" content="3,稲葉歯科医院,愛知県知多郡阿久比町福住字平野２１-１,歯科,,,9" xlink:title="稲葉歯科医院" transform="ref(svg,13691.8986,-3494.4308)" x="0" y="0"/>
<use xlink:href="#p0" content="3,関歯科医院,愛知県知多郡阿久比町卯坂字小谷１０３,歯科　小児歯科　矯正歯科,,,9" xlink:title="関歯科医院" transform="ref(svg,13692.2139,-3493.5865)" x="0" y="0"/>
<use xlink:href="#p0" content="3,若子歯科,愛知県知多郡阿久比町卯坂字古見堂６６-１,歯科　小児歯科　矯正歯科,,,9" xlink:title="若子歯科" transform="ref(svg,13691.5307,-3493.4528)" x="0" y="0"/>
<use xlink:href="#p0" content="3,中村歯科医院,愛知県知多郡阿久比町福住字高根台１１-７,歯科　小児歯科　矯正歯科　歯科口腔外科,,,9" xlink:title="中村歯科医院" transform="ref(svg,13692.4499,-3495.7992)" x="0" y="0"/>
<use xlink:href="#p0" content="3,やなぎその歯科,愛知県知多郡阿久比町阿久比字宮後３２,歯科,,,9" xlink:title="やなぎその歯科" transform="ref(svg,13691.6001,-3493.1247)" x="0" y="0"/>
<use xlink:href="#p0" content="3,竹内歯科医院,愛知県知多郡阿久比町草木字花吹２１,歯科　小児歯科　矯正歯科,,,9" xlink:title="竹内歯科医院" transform="ref(svg,13690.2442,-3494.7456)" x="0" y="0"/>
<use xlink:href="#p0" content="3,石橋歯科医院,愛知県知多郡阿久比町宮津３-７５,歯科,,,9" xlink:title="石橋歯科医院" transform="ref(svg,13692.4798,-3493.1644)" x="0" y="0"/>
<use xlink:href="#p0" content="3,クローバーこども歯科,愛知県知多郡阿久比町椋岡字唐松３-３,小児歯科　矯正歯科,,,9" xlink:title="クローバーこども歯科" transform="ref(svg,13691.9588,-3492.455)" x="0" y="0"/>
<use xlink:href="#p0" content="3,おおぐち歯科,愛知県知多郡阿久比町大字椋岡字角前田５３-１,歯科　小児歯科　歯科口腔外科　矯正歯科,,,9" xlink:title="おおぐち歯科" transform="ref(svg,13691.9546,-3492.202)" x="0" y="0"/>
<use xlink:href="#p0" content="3,ホワイト歯科クリニック,愛知県知多郡東浦町緒川字寿久茂８８,歯科　小児歯科　矯正歯科　歯科口腔外科,,,9" xlink:title="ホワイト歯科クリニック" transform="ref(svg,13691.5767,-3496.8556)" x="0" y="0"/>
<use xlink:href="#p0" content="3,かわむら歯科,愛知県知多郡美浜町上野間字的場１６-１,歯科,,,9" xlink:title="かわむら歯科" transform="ref(svg,13686.5254,-3481.1181)" x="0" y="0"/>
<use xlink:href="#p0" content="3,かんだ歯科,愛知県知多郡美浜町上野間字鴻田７４-１１,歯科　小児歯科,,,9" xlink:title="かんだ歯科" transform="ref(svg,13686.5849,-3480.7709)" x="0" y="0"/>
<use xlink:href="#p0" content="3,森歯科医院,愛知県知多郡武豊町西門１-１４,歯科,,,9" xlink:title="森歯科医院" transform="ref(svg,13691.8414,-3485.2437)" x="0" y="0"/>
<use xlink:href="#p0" content="3,歯科松本デンタルアート,愛知県知多郡武豊町南中根１６-１,歯科,,,9" xlink:title="歯科松本デンタルアート" transform="ref(svg,13691.1679,-3485.2198)" x="0" y="0"/>
<use xlink:href="#p0" content="3,中川歯科,愛知県知多郡武豊町小迎７６-３,歯科　小児歯科,,,9" xlink:title="中川歯科" transform="ref(svg,13692.2323,-3485.5019)" x="0" y="0"/>
<use xlink:href="#p0" content="3,（医）梅原歯科,愛知県知多郡武豊町北中根４-２４,歯科,,,9" xlink:title="（医）梅原歯科" transform="ref(svg,13690.323,-3485.5594)" x="0" y="0"/>
<use xlink:href="#p0" content="3,筒井歯科医院,愛知県知多郡武豊町大字東大高字浦之島３４-１,歯科　矯正歯科　歯科口腔外科,,,9" xlink:title="筒井歯科医院" transform="ref(svg,13692.045,-3483.4154)" x="0" y="0"/>
<use xlink:href="#p0" content="3,（医）岩川歯科医院,愛知県知多郡武豊町大字富貴字外面５０-４,歯科　小児歯科　矯正歯科,,,9" xlink:title="（医）岩川歯科医院" transform="ref(svg,13691.49,-3482.9118)" x="0" y="0"/>
<use xlink:href="#p0" content="3,テシマ歯科医院,愛知県知多郡武豊町中根４-７８-１,歯科　小児歯科　矯正歯科,,,9" xlink:title="テシマ歯科医院" transform="ref(svg,13691.5356,-3485.4902)" x="0" y="0"/>
<use xlink:href="#p0" content="3,あさの歯科,愛知県知多郡武豊町祠峰１-７８-１,歯科　小児歯科　矯正歯科,,,9" xlink:title="あさの歯科" transform="ref(svg,13691.0817,-3486.7575)" x="0" y="0"/>
<use xlink:href="#p0" content="3,すずのき歯科医院,愛知県知多郡武豊町字口田３７-１,歯科　小児歯科　矯正歯科,,,9" xlink:title="すずのき歯科医院" transform="ref(svg,13692.039,-3486.2175)" x="0" y="0"/>
<use xlink:href="#p0" content="3,武豊歯科医院,愛知県知多郡武豊町天神前２-１２６,歯科　小児歯科　矯正歯科,,,9" xlink:title="武豊歯科医院" transform="ref(svg,13691.3041,-3485.9963)" x="0" y="0"/>
<use xlink:href="#p0" content="3,（医）スマイルスマイルファミリー歯科,愛知県知多郡武豊町天神前２-１７１,歯科　小児歯科　矯正歯科　歯科口腔外科,,,9" xlink:title="（医）スマイルスマイルファミリー歯科" transform="ref(svg,13691.4762,-3485.9461)" x="0" y="0"/>
<use xlink:href="#p0" content="3,とだ歯科医院,愛知県知多郡武豊町長宗２-７５,歯科　小児歯科　矯正歯科　歯科口腔外科,,,9" xlink:title="とだ歯科医院" transform="ref(svg,13690.6988,-3485.9586)" x="0" y="0"/>
<use xlink:href="#p0" content="3,ながしま歯科・矯正歯科,愛知県知多郡武豊町豊成３-１,歯科　小児歯科　矯正歯科,,,9" xlink:title="ながしま歯科・矯正歯科" transform="ref(svg,13690.4978,-3487.0344)" x="0" y="0"/>
<use xlink:href="#p0" content="3,いとう歯科医院,愛知県知多郡武豊町川尻９４-１,歯科　小児歯科　矯正歯科,,,9" xlink:title="いとう歯科医院" transform="ref(svg,13691.3703,-3484.536)" x="0" y="0"/>
<use xlink:href="#p0" content="3,あだち歯科医院,愛知県知多郡武豊町道崎４１-１第１福屋ビル２階,歯科　小児歯科　小児歯科　矯正歯科,,,9" xlink:title="あだち歯科医院" transform="ref(svg,13691.6236,-3485.1166)" x="0" y="0"/>
<use xlink:href="#p0" content="3,かずデンタルクリニック,愛知県知多郡武豊町字祠峰２-１３３,歯科　小児歯科　歯科口腔外科　矯正歯科,,,9" xlink:title="かずデンタルクリニック" transform="ref(svg,13691.0498,-3486.5737)" x="0" y="0"/>
<use xlink:href="#p0" content="3,とみ歯科クリニック,愛知県知多郡武豊町道仙田９-３２,歯科　小児歯科　歯科口腔外科　矯正歯科,,,9" xlink:title="とみ歯科クリニック" transform="ref(svg,13692.4511,-3484.603)" x="0" y="0"/>
<use xlink:href="#p0" content="3,林歯科医院,愛知県常滑市大野町９-８６,歯科,,,9" xlink:title="林歯科医院" transform="ref(svg,13682.6247,-3493.2791)" x="0" y="0"/>
<use xlink:href="#p0" content="3,相武歯科医院,愛知県常滑市多屋町５-１５,歯科,,,9" xlink:title="相武歯科医院" transform="ref(svg,13683.2617,-3489.6716)" x="0" y="0"/>
<use xlink:href="#p0" content="3,飯嶋歯科医院,愛知県常滑市蒲池町６-１１６,歯科,,,9" xlink:title="飯嶋歯科医院" transform="ref(svg,13682.9514,-3491.6234)" x="0" y="0"/>
<use xlink:href="#p0" content="3,河永歯科医院,愛知県常滑市奥条町３-７７,歯科,,,9" xlink:title="河永歯科医院" transform="ref(svg,13684.5738,-3488.1987)" x="0" y="0"/>
<use xlink:href="#p0" content="3,森下歯科医院,愛知県常滑市樽水町３-３００,歯科　小児歯科,,,9" xlink:title="森下歯科医院" transform="ref(svg,13684.7133,-3487.3463)" x="0" y="0"/>
<use xlink:href="#p0" content="3,（医）山川歯科,愛知県常滑市鯉江本町５-８８,歯科　小児歯科　矯正歯科,,,9" xlink:title="（医）山川歯科" transform="ref(svg,13683.4128,-3488.9789)" x="0" y="0"/>
<use xlink:href="#p0" content="3,セギ歯科医院,愛知県常滑市古社３２-３,歯科　小児歯科,,,9" xlink:title="セギ歯科医院" transform="ref(svg,13685.1547,-3489.1157)" x="0" y="0"/>
<use xlink:href="#p0" content="3,榊原歯科医院,愛知県常滑市社辺町５２-１,歯科　小児歯科,,,9" xlink:title="榊原歯科医院" transform="ref(svg,13685.6973,-3488.7996)" x="0" y="0"/>
<use xlink:href="#p0" content="3,中村歯科医院,愛知県常滑市本郷町３-２７３,歯科　小児歯科　矯正歯科,,,9" xlink:title="中村歯科医院" transform="ref(svg,13683.4545,-3490.8403)" x="0" y="0"/>
<use xlink:href="#p0" content="3,久野歯科医院,愛知県常滑市西之口１-７４,歯科　矯正歯科,,,9" xlink:title="久野歯科医院" transform="ref(svg,13682.5183,-3493.1503)" x="0" y="0"/>
<use xlink:href="#p0" content="3,ニシキ歯科,愛知県常滑市錦町３-４７関豊ビル２Ｆ,歯科　小児歯科,,,9" xlink:title="ニシキ歯科" transform="ref(svg,13683.5666,-3489.5511)" x="0" y="0"/>
<use xlink:href="#p0" content="3,こすがや歯科,愛知県常滑市大谷字道向１１４-４,歯科　小児歯科,,,9" xlink:title="こすがや歯科" transform="ref(svg,13686.8342,-3483.8149)" x="0" y="0"/>
<use xlink:href="#p0" content="3,とこなめ歯科,愛知県常滑市新開町３-１３７ヤマキビル２Ｆ,歯科　小児歯科　歯科口腔外科,,,9" xlink:title="とこなめ歯科" transform="ref(svg,13683.5373,-3488.8005)" x="0" y="0"/>
<use xlink:href="#p0" content="3,金山歯科医院,愛知県常滑市西之口４-７６-１,歯科　小児歯科,,,9" xlink:title="金山歯科医院" transform="ref(svg,13683.0451,-3493.0909)" x="0" y="0"/>
<use xlink:href="#p0" content="3,村川歯科医院,愛知県常滑市榎戸町２-５８,歯科,,,9" xlink:title="村川歯科医院" transform="ref(svg,13682.8849,-3490.8416)" x="0" y="0"/>
<use xlink:href="#p0" content="3,みんなの歯医者さん,愛知県常滑市大鳥町４-４１,歯科　小児歯科　歯科口腔外科　矯正歯科,,,9" xlink:title="みんなの歯医者さん" transform="ref(svg,13683.7581,-3490.2147)" x="0" y="0"/>
<use xlink:href="#p0" content="3,かじま歯科医院,愛知県常滑市かじま台１-２２８-２,歯科　小児歯科,,,9" xlink:title="かじま歯科医院" transform="ref(svg,13685.5718,-3488.0354)" x="0" y="0"/>
<use xlink:href="#p0" content="3,（医）真稜会　Ｉ　Ｄｅｎｔａｌ　Ｃｌｉｎｉｃ,愛知県常滑市錦町１-２２-２,歯科　小児歯科　歯科口腔外科,,,9" xlink:title="（医）真稜会　Ｉ　Ｄｅｎｔａｌ　Ｃｌｉｎｉｃ" transform="ref(svg,13683.9097,-3489.9847)" x="0" y="0"/>
<use xlink:href="#p0" content="3,加藤歯科医院,愛知県常滑市大和町６-９０,歯科　小児歯科,,,9" xlink:title="加藤歯科医院" transform="ref(svg,13683.5108,-3489.9299)" x="0" y="0"/>
<use xlink:href="#p0" content="3,あまかす歯科,愛知県常滑市長間２-１,歯科　小児歯科　歯科口腔外科　矯正歯科,,,9" xlink:title="あまかす歯科" transform="ref(svg,13684.2944,-3489.3991)" x="0" y="0"/>
<use xlink:href="#p0" content="3,あすか台歯科クリニック,愛知県常滑市飛香台７-３-４,歯科　小児歯科　歯科口腔外科,,,9" xlink:title="あすか台歯科クリニック" transform="ref(svg,13685.4977,-3489.4877)" x="0" y="0"/>
<use xlink:href="#p0" content="3,はたなか歯科・口腔外科,愛知県常滑市奥栄町１-７-３,歯科　小児歯科　歯科口腔外科　矯正歯科,,,9" xlink:title="はたなか歯科・口腔外科" transform="ref(svg,13685.07,-3488.1333)" x="0" y="0"/>
<use xlink:href="#p0" content="3,南イダ歯科,愛知県東海市加木屋町丸根１９-３２,歯科　小児歯科,,,9" xlink:title="南イダ歯科" transform="ref(svg,13691.3019,-3497.2939)" x="0" y="0"/>
<use xlink:href="#p0" content="3,河村歯科医院,愛知県知多市巽が丘２-２７１,歯科　小児歯科　歯科口腔外科,,,9" xlink:title="河村歯科医院" transform="ref(svg,13691.3534,-3496.3734)" x="0" y="0"/>
<use xlink:href="#p0" content="3,服部歯科医院,愛知県知多市巽が丘２-１６６,歯科　小児歯科,,,9" xlink:title="服部歯科医院" transform="ref(svg,13691.4383,-3496.2996)" x="0" y="0"/>
<use xlink:href="#p0" content="3,村上歯科医院,愛知県知多市大草字大瀬９-６,歯科,,,9" xlink:title="村上歯科医院" transform="ref(svg,13682.8101,-3494.7747)" x="0" y="0"/>
<use xlink:href="#p0" content="3,松田歯科医院,愛知県知多市岡田字開戸１０,歯科　小児歯科,,,9" xlink:title="松田歯科医院" transform="ref(svg,13686.3215,-3496.7906)" x="0" y="0"/>
<use xlink:href="#p0" content="3,亀井歯科医院,愛知県知多市にしの台４-２１-１,歯科　小児歯科,,,9" xlink:title="亀井歯科医院" transform="ref(svg,13687.2643,-3497.8704)" x="0" y="0"/>
<use xlink:href="#p0" content="3,シンデン歯科,愛知県知多市原１-９-１,歯科　小児歯科,,,9" xlink:title="シンデン歯科" transform="ref(svg,13690.7949,-3497.6172)" x="0" y="0"/>
<use xlink:href="#p0" content="3,竹内歯科医院,愛知県知多市岡田字野崎３３,歯科　小児歯科　矯正歯科,,,9" xlink:title="竹内歯科医院" transform="ref(svg,13685.6693,-3496.8488)" x="0" y="0"/>
<use xlink:href="#p0" content="3,日長台歯科医院,愛知県知多市日長字高峰脇１-１０５,歯科　小児歯科,,,9" xlink:title="日長台歯科医院" transform="ref(svg,13685.1244,-3495.7123)" x="0" y="0"/>
<use xlink:href="#p0" content="3,清則歯科,愛知県知多市日長字赤坂８６-６,歯科　小児歯科,,,9" xlink:title="清則歯科" transform="ref(svg,13685.2624,-3497.5206)" x="0" y="0"/>
<use xlink:href="#p0" content="3,中村歯科医院,愛知県知多市南粕谷３-９-２,歯科,,,9" xlink:title="中村歯科医院" transform="ref(svg,13685.1566,-3493.7544)" x="0" y="0"/>
<use xlink:href="#p0" content="3,尾之内歯科医院,愛知県知多市新舞子字南西田２５-１,歯科　小児歯科　矯正歯科　歯科口腔外科,,,9" xlink:title="尾之内歯科医院" transform="ref(svg,13683.0921,-3495.3411)" x="0" y="0"/>
<use xlink:href="#p0" content="3,鈴木歯科クリニック,愛知県知多市にしの台１-２９０２-７,歯科　小児歯科,,,9" xlink:title="鈴木歯科クリニック" transform="ref(svg,13687.4284,-3497.9684)" x="0" y="0"/>
<use xlink:href="#p0" content="3,八幡歯科医院,愛知県知多市巽が丘４-８９,歯科　小児歯科　矯正歯科,,,9" xlink:title="八幡歯科医院" transform="ref(svg,13691.4386,-3496.1718)" x="0" y="0"/>
<use xlink:href="#p0" content="3,ナガイセントラル歯科,愛知県知多市新知字永井８３-２,歯科　小児歯科　矯正歯科　歯科口腔外科,,,9" xlink:title="ナガイセントラル歯科" transform="ref(svg,13686.0974,-3497.8724)" x="0" y="0"/>
<use xlink:href="#p0" content="3,皆川歯科医院,愛知県知多市南粕谷東坂１-２２７,歯科　小児歯科　矯正歯科,,,9" xlink:title="皆川歯科医院" transform="ref(svg,13685.5385,-3493.3828)" x="0" y="0"/>
<use xlink:href="#p0" content="3,たつみがおか歯科,愛知県知多市巽が丘４-１３２,歯科　小児歯科　矯正歯科　歯科口腔外科,,,9" xlink:title="たつみがおか歯科" transform="ref(svg,13691.4788,-3496.2303)" x="0" y="0"/>
<use xlink:href="#p0" content="3,永田歯科クリニック,愛知県知多市新舞子字明知山１０２-５,歯科　小児歯科　矯正歯科,,,9" xlink:title="永田歯科クリニック" transform="ref(svg,13683.093,-3495.0346)" x="0" y="0"/>
<use xlink:href="#p0" content="3,生協ひまわり歯科,愛知県知多市新知東町２-１７-１０,歯科　小児歯科　矯正歯科,,,9" xlink:title="生協ひまわり歯科" transform="ref(svg,13686.6268,-3497.7279)" x="0" y="0"/>
<use xlink:href="#p0" content="3,新舞子歯科,愛知県知多市大草字大瀬８-１３３,歯科　小児歯科　矯正歯科,,,9" xlink:title="新舞子歯科" transform="ref(svg,13682.8649,-3494.7062)" x="0" y="0"/>
<use xlink:href="#p0" content="3,小西歯科医院,愛知県知多市にしの台４-１３-１０,歯科　小児歯科　矯正歯科,,,9" xlink:title="小西歯科医院" transform="ref(svg,13687.0855,-3498.0425)" x="0" y="0"/>
<use xlink:href="#p0" content="3,ごんだ歯科医院,愛知県知多市巽が丘２-４３,歯科　小児歯科,,,9" xlink:title="ごんだ歯科医院" transform="ref(svg,13691.5431,-3496.5206)" x="0" y="0"/>
<use xlink:href="#p0" content="3,わにべデンタルクリニック,愛知県知多市新知東町３-４１-３,歯科　小児歯科,,,9" xlink:title="わにべデンタルクリニック" transform="ref(svg,13686.8262,-3497.4933)" x="0" y="0"/>
</g>
</svg>
