<?xml version="1.0" encoding="UTF-8"?>
<svg  xmlns="http://www.w3.org/2000/svg" xmlns:xlink="http://www.w3.org/1999/xlink" xmlns:go="http://purl.org/svgmap/profile" property="医療機関分類,施設名称,所在地,診療科目１,診療科目２,診療科目３,開設者分類" viewBox="13992.1875 -3726.5625 70.3125 70.3125" go:dataArea="13992.1875 -3726.5625 70.3125 70.3125" >
<metadata>
 <rdf:RDF xmlns:rdf="http://www.w3.org/1999/02/22-rdf-syntax-ns#" xmlns:crs="http://opengis.org/xmldtds/transformations.dtd" xmlns:svg="http://www.w3.org/svg" >
  <rdf:Description>
   <crs:CoordinateReferenceSystem rdf:resource="http://purl.org/crs/84" svg:transform="matrix(100.0,0.0,0.0,-100.0,0.0,0.0)" />
  </rdf:Description>
 </rdf:RDF>
</metadata>
<globalCoordinateSystem srsName="http://purl.org/crs/84" transform="matrix(100.0,0.0,0.0,-100.0,0.0,0.0)" />
<defs>
 <g id="p0" >
  <image xlink:href="mappin.png" preserveAspectRatio="none" x="-8" y="-25" width="19" height="27"/>
 </g>
 <g id="p1" >
  <image xlink:href="mappin1.png" preserveAspectRatio="none" x="-8" y="-25" width="19" height="27"/>
 </g>
 <g id="p2" >
  <image xlink:href="mappin2.png" preserveAspectRatio="none" x="-8" y="-25" width="19" height="27"/>
 </g>
 <g id="p3" >
  <image xlink:href="mappin3.png" preserveAspectRatio="none" x="-8" y="-25" width="19" height="27"/>
 </g>
 <g id="p4" >
  <image xlink:href="mappin4.png" preserveAspectRatio="none" x="-8" y="-25" width="19" height="27"/>
 </g>
 <g id="p5" >
  <image xlink:href="mappin5.png" preserveAspectRatio="none" x="-8" y="-25" width="19" height="27"/>
 </g>
 <g id="p6" >
  <image xlink:href="mappin6.png" preserveAspectRatio="none" x="-8" y="-25" width="19" height="27"/>
 </g>
 <g id="p7" >
  <image xlink:href="mappin7.png" preserveAspectRatio="none" x="-8" y="-25" width="19" height="27"/>
 </g>
 <g id="p8" >
  <image xlink:href="mappin8.png" preserveAspectRatio="none" x="-8" y="-25" width="19" height="27"/>
 </g>
 <g id="p9" >
  <image xlink:href="mappin9.png" preserveAspectRatio="none" x="-8" y="-25" width="19" height="27"/>
 </g>
</defs>
<g fill="green" fill-rule="evenodd" >
<use xlink:href="#p0" content="3,関根歯科医院,福島県岩瀬郡鏡石町本町２４１-３,歯科,,,9" xlink:title="関根歯科医院" transform="ref(svg,14034.745,-3725.3599)" x="0" y="0"/>
<use xlink:href="#p0" content="3,松本歯科医院,福島県岩瀬郡鏡石町大字笠石字中央１７５-２,歯科,,,9" xlink:title="松本歯科医院" transform="ref(svg,14034.3929,-3724.9889)" x="0" y="0"/>
<use xlink:href="#p0" content="3,曽根歯科医院,福島県岩瀬郡鏡石町岡ノ内１９８-２,歯科,,,9" xlink:title="曽根歯科医院" transform="ref(svg,14034.0032,-3725.5054)" x="0" y="0"/>
<use xlink:href="#p0" content="3,天栄歯科医院,福島県岩瀬郡天栄村大字白子字家内神１４-３,歯科,,,9" xlink:title="天栄歯科医院" transform="ref(svg,14024.9782,-3725.5263)" x="0" y="0"/>
<use xlink:href="#p0" content="3,（医）佐藤歯科医院,福島県岩瀬郡天栄村大字飯豊字上原２３,歯科,,,9" xlink:title="（医）佐藤歯科医院" transform="ref(svg,14029.4657,-3724.4211)" x="0" y="0"/>
<use xlink:href="#p0" content="3,我妻歯科医院,福島県石川郡石川町大字双里字本宮９７,歯科,,,9" xlink:title="我妻歯科医院" transform="ref(svg,14045.984,-3714.8067)" x="0" y="0"/>
<use xlink:href="#p0" content="3,（医）青柳歯科医院,福島県石川郡石川町字下泉１６９,歯科,,,9" xlink:title="（医）青柳歯科医院" transform="ref(svg,14045.3755,-3714.3852)" x="0" y="0"/>
<use xlink:href="#p0" content="3,三瓶歯科医院,福島県石川郡石川町字屋敷ノ入６５-１,歯科　矯正歯科　小児歯科,,,9" xlink:title="三瓶歯科医院" transform="ref(svg,14045.8303,-3715.378)" x="0" y="0"/>
<use xlink:href="#p0" content="3,（医）鈴木歯科医院,福島県石川郡石川町字南町９１,歯科,,,9" xlink:title="（医）鈴木歯科医院" transform="ref(svg,14045.4945,-3714.7222)" x="0" y="0"/>
<use xlink:href="#p0" content="3,福田歯科医院,福島県石川郡石川町大字湯郷渡字米子平１９５-１,歯科,,,9" xlink:title="福田歯科医院" transform="ref(svg,14046.9078,-3717.3307)" x="0" y="0"/>
<use xlink:href="#p0" content="3,石川ファミリー歯科クリニック,福島県石川郡石川町大字双里字谷津前２４-２,歯科,,,9" xlink:title="石川ファミリー歯科クリニック" transform="ref(svg,14046.8432,-3714.9508)" x="0" y="0"/>
<use xlink:href="#p0" content="3,中島歯科医院,福島県石川郡石川町鹿ノ坂２５,歯科　小児歯科　矯正歯科,,,9" xlink:title="中島歯科医院" transform="ref(svg,14045.1381,-3714.7317)" x="0" y="0"/>
<use xlink:href="#p0" content="3,近内歯科医院,福島県石川郡石川町字南町５９-２,歯科　小児歯科　歯科口腔外科,,,9" xlink:title="近内歯科医院" transform="ref(svg,14045.3664,-3714.6623)" x="0" y="0"/>
<use xlink:href="#p0" content="3,福田歯科クリニック,福島県石川郡玉川村大字小高字南畷１２-４,歯科,,,9" xlink:title="福田歯科クリニック" transform="ref(svg,14040.7719,-3720.9489)" x="0" y="0"/>
<use xlink:href="#p0" content="3,月田歯科医院,福島県石川郡玉川村大字中字道上６-２,歯科　矯正歯科　小児歯科,,,9" xlink:title="月田歯科医院" transform="ref(svg,14040.3638,-3722.3104)" x="0" y="0"/>
<use xlink:href="#p0" content="3,東北平田歯科医院,福島県石川郡平田村大字上蓬田字新屋敷３３,歯科　小児歯科　矯正歯科,,,9" xlink:title="東北平田歯科医院" transform="ref(svg,14056.9346,-3723.9048)" x="0" y="0"/>
<use xlink:href="#p0" content="3,中井歯科医院,福島県石川郡平田村大字東山字宮ノ田和５２,歯科　矯正歯科,,,9" xlink:title="中井歯科医院" transform="ref(svg,14058.4044,-3719.4864)" x="0" y="0"/>
<use xlink:href="#p0" content="3,中井歯科蓬田分院,福島県石川郡平田村大字上蓬田字大石１５,歯科　矯正歯科,,,9" xlink:title="中井歯科蓬田分院" transform="ref(svg,14057.0071,-3724.1507)" x="0" y="0"/>
<use xlink:href="#p0" content="3,藤田歯科医院,福島県石川郡浅川町大字東大畑字大名大塚３５,歯科,,,9" xlink:title="藤田歯科医院" transform="ref(svg,14041.5646,-3707.6331)" x="0" y="0"/>
<use xlink:href="#p0" content="3,富永歯科医院,福島県石川郡浅川町大字浅川字大明塚１４-２,歯科,,,9" xlink:title="富永歯科医院" transform="ref(svg,14041.3909,-3707.5566)" x="0" y="0"/>
<use xlink:href="#p0" content="3,野木歯科医院,福島県石川郡古殿町大字竹貫字竹貫３２,歯科　矯正歯科,,,9" xlink:title="野木歯科医院" transform="ref(svg,14055.0291,-3709.2828)" x="0" y="0"/>
<use xlink:href="#p0" content="3,永沼歯科医院役場前,福島県石川郡古殿町大字松川字新桑原４２-１,歯科,,,9" xlink:title="永沼歯科医院役場前" transform="ref(svg,14055.5166,-3708.9334)" x="0" y="0"/>
<use xlink:href="#p0" content="3,三森歯科医院,福島県白河市愛宕町５１,歯科　小児歯科　矯正歯科　歯科口腔外科,,,9" xlink:title="三森歯科医院" transform="ref(svg,14021.1347,-3712.7292)" x="0" y="0"/>
<use xlink:href="#p0" content="3,青村歯科医院,福島県白河市本町６３,歯科,,,9" xlink:title="青村歯科医院" transform="ref(svg,14021.5959,-3712.6875)" x="0" y="0"/>
<use xlink:href="#p0" content="3,五十嵐歯科医院,福島県白河市本町３４,歯科,,,9" xlink:title="五十嵐歯科医院" transform="ref(svg,14021.8019,-3712.5756)" x="0" y="0"/>
<use xlink:href="#p0" content="3,大栄歯科クリニック,福島県白河市中町４２,歯科　小児歯科,,,9" xlink:title="大栄歯科クリニック" transform="ref(svg,14021.5517,-3712.7693)" x="0" y="0"/>
<use xlink:href="#p0" content="3,鈴木歯科医院,福島県白河市立石１２７-１菅原ビル１階,歯科,,,9" xlink:title="鈴木歯科医院" transform="ref(svg,14019.8789,-3712.8073)" x="0" y="0"/>
<use xlink:href="#p0" content="3,河島歯科医院,福島県白河市天神町５３,歯科　小児歯科　矯正歯科,,,9" xlink:title="河島歯科医院" transform="ref(svg,14020.974,-3712.7882)" x="0" y="0"/>
<use xlink:href="#p0" content="3,円谷歯科医院,福島県白河市北中川原１５８,歯科　小児歯科,,,9" xlink:title="円谷歯科医院" transform="ref(svg,14022.5145,-3712.3559)" x="0" y="0"/>
<use xlink:href="#p0" content="3,かたの歯科医院,福島県白河市結城７２,歯科　小児歯科　矯正歯科　歯科口腔外科,,,9" xlink:title="かたの歯科医院" transform="ref(svg,14023.0386,-3711.9314)" x="0" y="0"/>
<use xlink:href="#p0" content="3,永山歯科医院,福島県白河市馬町下１１-６,歯科　小児歯科,,,9" xlink:title="永山歯科医院" transform="ref(svg,14021.8525,-3712.3379)" x="0" y="0"/>
<use xlink:href="#p0" content="3,はやし歯科医院,福島県白河市道場町１５,歯科,,,9" xlink:title="はやし歯科医院" transform="ref(svg,14020.5113,-3712.9157)" x="0" y="0"/>
<use xlink:href="#p0" content="3,安部歯科医院,福島県白河市新蔵町９,歯科,,,9" xlink:title="安部歯科医院" transform="ref(svg,14021.4703,-3712.6083)" x="0" y="0"/>
<use xlink:href="#p0" content="3,山本歯科医院,福島県白河市昭和町１４８-５,歯科,,,9" xlink:title="山本歯科医院" transform="ref(svg,14020.3405,-3712.9513)" x="0" y="0"/>
<use xlink:href="#p0" content="3,よしなり歯科医院,福島県白河市天神町２５,歯科,,,9" xlink:title="よしなり歯科医院" transform="ref(svg,14020.6671,-3712.8173)" x="0" y="0"/>
<use xlink:href="#p0" content="3,ほずみ歯科医院,福島県白河市三番町８アネックス三番館,歯科　小児歯科　矯正歯科　歯科口腔外科,,,9" xlink:title="ほずみ歯科医院" transform="ref(svg,14020.4252,-3712.3252)" x="0" y="0"/>
<use xlink:href="#p0" content="3,早坂歯科医院,福島県白河市合戦坂１６,歯科　小児歯科　矯正歯科,,,9" xlink:title="早坂歯科医院" transform="ref(svg,14023.0831,-3710.4385)" x="0" y="0"/>
<use xlink:href="#p0" content="3,ひまわり歯科医院,福島県白河市関辺引目橋２９-１０,歯科,,,9" xlink:title="ひまわり歯科医院" transform="ref(svg,14023.5409,-3710.062)" x="0" y="0"/>
<use xlink:href="#p0" content="3,まるやま歯科医院,福島県白河市関辺川前２０-５,歯科,,,9" xlink:title="まるやま歯科医院" transform="ref(svg,14024.9227,-3709.4895)" x="0" y="0"/>
<use xlink:href="#p0" content="3,小林歯科医院,福島県白河市みさか２-２１-１,歯科　小児歯科,,,9" xlink:title="小林歯科医院" transform="ref(svg,14019.1377,-3710.5779)" x="0" y="0"/>
<use xlink:href="#p0" content="3,佐藤歯科医院,福島県白河市中山南３-１２,歯科,,,9" xlink:title="佐藤歯科医院" transform="ref(svg,14018.3125,-3712.9644)" x="0" y="0"/>
<use xlink:href="#p0" content="3,白河歯科クリニック,福島県白河市会津町３４-６０,歯科,,,9" xlink:title="白河歯科クリニック" transform="ref(svg,14020.8186,-3713.1903)" x="0" y="0"/>
<use xlink:href="#p0" content="3,内藤歯科クリニック,福島県白河市久田野前田５５-１,歯科　小児歯科　矯正歯科　歯科口腔外科,,,9" xlink:title="内藤歯科クリニック" transform="ref(svg,14026.5678,-3713.1285)" x="0" y="0"/>
<use xlink:href="#p0" content="3,白河みなみ歯科クリニック,福島県白河市薄葉４-１３１,歯科　小児歯科　矯正歯科　歯科口腔外科,,,9" xlink:title="白河みなみ歯科クリニック" transform="ref(svg,14022.0994,-3714.1701)" x="0" y="0"/>
<use xlink:href="#p0" content="3,高山歯科医院,福島県白河市新白河３-１０２,歯科,,,9" xlink:title="高山歯科医院" transform="ref(svg,14019.0174,-3711.9582)" x="0" y="0"/>
<use xlink:href="#p0" content="3,だいらく歯科クリニック,福島県白河市新白河１-２３０,歯科　小児歯科　矯正歯科　歯科口腔外科,,,9" xlink:title="だいらく歯科クリニック" transform="ref(svg,14019.672,-3712.3119)" x="0" y="0"/>
<use xlink:href="#p0" content="3,新白河歯科口腔外科医療クリニック,福島県白河市新白河４-５８-１ウィステリアｋ２　１階、２階（１０２　２０２）,歯科　小児歯科　歯科口腔外科,,,9" xlink:title="新白河歯科口腔外科医療クリニック" transform="ref(svg,14018.8339,-3711.8163)" x="0" y="0"/>
<use xlink:href="#p0" content="3,須藤歯科医院,福島県白河市本町１４,歯科,,,9" xlink:title="須藤歯科医院" transform="ref(svg,14021.6282,-3712.6412)" x="0" y="0"/>
<use xlink:href="#p0" content="3,九番町歯科クリニック,福島県白河市九番町２６,歯科　小児歯科,,,9" xlink:title="九番町歯科クリニック" transform="ref(svg,14020.5939,-3711.8729)" x="0" y="0"/>
<use xlink:href="#p0" content="3,（医）健育会サンデンタルクリニック,福島県白河市新白河１-１２０,歯科　小児歯科　矯正歯科,,,9" xlink:title="（医）健育会サンデンタルクリニック" transform="ref(svg,14019.3987,-3712.4074)" x="0" y="0"/>
<use xlink:href="#p0" content="3,Ｂｅｌｌｅデンタルクリニック（ベル歯科）,福島県白河市老久保１５-１,歯科　小児歯科　矯正歯科　歯科口腔外科,,,9" xlink:title="Ｂｅｌｌｅデンタルクリニック（ベル歯科）" transform="ref(svg,14020.1894,-3711.7054)" x="0" y="0"/>
<use xlink:href="#p0" content="3,斎須歯科医院,福島県白河市表郷金山字井戸尻１００-２,歯科　小児歯科　矯正歯科　歯科口腔外科,,,9" xlink:title="斎須歯科医院" transform="ref(svg,14029.721,-3705.8393)" x="0" y="0"/>
<use xlink:href="#p0" content="3,鈴木歯科医院,福島県白河市表郷金山字竹ノ内１６,歯科,,,9" xlink:title="鈴木歯科医院" transform="ref(svg,14029.5422,-3705.8197)" x="0" y="0"/>
<use xlink:href="#p0" content="3,秋山歯科医院,福島県白河市東深仁井田字刈敷坂８６,歯科,,,9" xlink:title="秋山歯科医院" transform="ref(svg,14035.1375,-3711.56)" x="0" y="0"/>
<use xlink:href="#p0" content="3,国井歯科医院,福島県白河市大信増見字増見３０６-１,歯科　小児歯科　歯科口腔外科,,,9" xlink:title="国井歯科医院" transform="ref(svg,14024.5584,-3720.0328)" x="0" y="0"/>
<use xlink:href="#p0" content="3,たいしん歯科診療所,福島県白河市大信町屋字沢田１２,歯科　小児歯科　矯正歯科　歯科口腔外科,,,9" xlink:title="たいしん歯科診療所" transform="ref(svg,14024.6819,-3720.3865)" x="0" y="0"/>
<use xlink:href="#p0" content="3,クリニックおおまち歯科,福島県白河市登リ町２２,歯科　矯正歯科　歯科口腔外科,,,9" xlink:title="クリニックおおまち歯科" transform="ref(svg,14020.3632,-3712.5656)" x="0" y="0"/>
<use xlink:href="#p0" content="3,（医）内藤歯科医院,福島県西白河郡西郷村大字熊倉字折口原１５３-５,歯科,,,9" xlink:title="（医）内藤歯科医院" transform="ref(svg,14015.6179,-3713.9027)" x="0" y="0"/>
<use xlink:href="#p0" content="3,海野歯科医院,福島県西白河郡西郷村大字米字西原２６,歯科　小児歯科　矯正歯科　歯科口腔外科,,,9" xlink:title="海野歯科医院" transform="ref(svg,14016.9581,-3713.3035)" x="0" y="0"/>
<use xlink:href="#p0" content="3,あっぷる歯科,福島県西白河郡西郷村大字小田倉字岩下１１-１１イオン白河西郷店内,歯科　小児歯科,,,9" xlink:title="あっぷる歯科" transform="ref(svg,14017.7602,-3712.1322)" x="0" y="0"/>
<use xlink:href="#p0" content="3,ゆりのき歯科クリニック,福島県西白河郡西郷村大字下前田東５-１大松ビル３階,歯科　小児歯科　歯科口腔外科,,,9" xlink:title="ゆりのき歯科クリニック" transform="ref(svg,14019.0372,-3712.2878)" x="0" y="0"/>
<use xlink:href="#p0" content="3,芳賀医院歯科室,福島県西白河郡西郷村大字小田倉字上野原４５１,歯科　小児歯科　歯科口腔外科,,,9" xlink:title="芳賀医院歯科室" transform="ref(svg,14015.0296,-3711.7628)" x="0" y="0"/>
<use xlink:href="#p0" content="3,いがらし歯科クリニック,福島県西白河郡西郷村字道南西９７,歯科　小児歯科,,,9" xlink:title="いがらし歯科クリニック" transform="ref(svg,14018.7351,-3712.3587)" x="0" y="0"/>
<use xlink:href="#p0" content="3,赤沼歯科医院,福島県西白河郡泉崎村大字泉崎字下宿５３,歯科　小児歯科,,,9" xlink:title="赤沼歯科医院" transform="ref(svg,14029.522,-3715.8771)" x="0" y="0"/>
<use xlink:href="#p0" content="3,本柳歯科医院,福島県西白河郡泉崎村大字泉崎字八丸７５-５,歯科,,,9" xlink:title="本柳歯科医院" transform="ref(svg,14030.0805,-3715.4333)" x="0" y="0"/>
<use xlink:href="#p0" content="3,なみ歯科クリニック,福島県西白河郡泉崎村大字関和久字上野舘２１０-３,歯科　小児歯科　矯正歯科,,,9" xlink:title="なみ歯科クリニック" transform="ref(svg,14031.1631,-3713.3559)" x="0" y="0"/>
<use xlink:href="#p0" content="3,古市歯科クリニック,福島県西白河郡中島村大字滑津字二ッ山２７-３,歯科,,,9" xlink:title="古市歯科クリニック" transform="ref(svg,14034.9141,-3714.7792)" x="0" y="0"/>
<use xlink:href="#p0" content="3,水野谷歯科医院,福島県西白河郡中島村大字滑津字元村７８,歯科,,,9" xlink:title="水野谷歯科医院" transform="ref(svg,14036.5177,-3715.3826)" x="0" y="0"/>
<use xlink:href="#p0" content="3,吉田歯科クリニック,福島県西白河郡中島村大字二子塚字前田１７-１０,歯科,,,9" xlink:title="吉田歯科クリニック" transform="ref(svg,14034.7848,-3714.379)" x="0" y="0"/>
<use xlink:href="#p0" content="3,酒井歯科医院,福島県西白河郡矢吹町中町３２５,歯科,,,9" xlink:title="酒井歯科医院" transform="ref(svg,14032.6601,-3720.2834)" x="0" y="0"/>
<use xlink:href="#p0" content="3,岩谷歯科医院,福島県西白河郡矢吹町中町２３０,歯科,,,9" xlink:title="岩谷歯科医院" transform="ref(svg,14032.6335,-3720.526)" x="0" y="0"/>
<use xlink:href="#p0" content="3,高久歯科医院,福島県西白河郡矢吹町中町４２５,歯科,,,9" xlink:title="高久歯科医院" transform="ref(svg,14032.5697,-3720.0156)" x="0" y="0"/>
<use xlink:href="#p0" content="3,和田歯科医院,福島県西白河郡矢吹町曙町１９５,歯科,,,9" xlink:title="和田歯科医院" transform="ref(svg,14032.7577,-3720.1468)" x="0" y="0"/>
<use xlink:href="#p0" content="3,たまち歯科医院,福島県西白河郡矢吹町田町１９１-４,歯科,,,9" xlink:title="たまち歯科医院" transform="ref(svg,14032.0007,-3719.2042)" x="0" y="0"/>
<use xlink:href="#p0" content="3,すずき歯科,福島県西白河郡矢吹町八幡町２６８-８,歯科　小児歯科,,,9" xlink:title="すずき歯科" transform="ref(svg,14033.0944,-3719.7195)" x="0" y="0"/>
<use xlink:href="#p0" content="3,国馬歯科医院,福島県西白河郡矢吹町奉行塚１０５,歯科,,,9" xlink:title="国馬歯科医院" transform="ref(svg,14038.6093,-3720.4591)" x="0" y="0"/>
<use xlink:href="#p0" content="3,佐久間歯科医院,福島県西白河郡矢吹町本町４０-３,歯科,,,9" xlink:title="佐久間歯科医院" transform="ref(svg,14032.7067,-3720.8107)" x="0" y="0"/>
<use xlink:href="#p0" content="3,むつみ歯科医院,福島県西白河郡矢吹町八幡町６０１-３,歯科　歯科口腔外科,,,9" xlink:title="むつみ歯科医院" transform="ref(svg,14033.4193,-3719.4082)" x="0" y="0"/>
<use xlink:href="#p0" content="3,あゆり歯科クリニック,福島県西白河郡矢吹町一本木４６３-２１,歯科　小児歯科　矯正歯科　歯科口腔外科,,,9" xlink:title="あゆり歯科クリニック" transform="ref(svg,14033.4859,-3719.9594)" x="0" y="0"/>
<use xlink:href="#p0" content="3,塩田博文歯科,福島県東白川郡棚倉町大字棚倉字新町５２-１,歯科　小児歯科　矯正歯科,,,9" xlink:title="塩田博文歯科" transform="ref(svg,14038.5348,-3703.291)" x="0" y="0"/>
<use xlink:href="#p0" content="3,トリヰ歯科医院,福島県東白川郡棚倉町大字棚倉字町裏４５,歯科,,,9" xlink:title="トリヰ歯科医院" transform="ref(svg,14038.1635,-3703.4353)" x="0" y="0"/>
<use xlink:href="#p0" content="3,（医）慈水会藤田歯科医院,福島県東白川郡棚倉町大字棚倉字北町甲９５-５,歯科,,,9" xlink:title="（医）慈水会藤田歯科医院" transform="ref(svg,14038.6766,-3703.2453)" x="0" y="0"/>
<use xlink:href="#p0" content="3,中島歯科クリニック,福島県東白川郡棚倉町大字逆川字前山１１-５,歯科,,,9" xlink:title="中島歯科クリニック" transform="ref(svg,14037.0979,-3705.5815)" x="0" y="0"/>
<use xlink:href="#p0" content="3,あきやま歯科医院,福島県東白川郡棚倉町大字棚倉字観音向１,歯科　小児歯科　歯科口腔外科,,,9" xlink:title="あきやま歯科医院" transform="ref(svg,14037.9893,-3703.6757)" x="0" y="0"/>
<use xlink:href="#p0" content="3,棚倉中央歯科医院,福島県東白川郡棚倉町大字棚倉字宮下１９９-３,歯科　小児歯科　矯正歯科　歯科口腔外科,,,9" xlink:title="棚倉中央歯科医院" transform="ref(svg,14038.5022,-3702.5908)" x="0" y="0"/>
<use xlink:href="#p0" content="3,はら歯科クリニック,福島県東白川郡棚倉町大字棚倉字水白田４４-４,歯科　小児歯科　矯正歯科,,,9" xlink:title="はら歯科クリニック" transform="ref(svg,14037.8779,-3703.3327)" x="0" y="0"/>
<use xlink:href="#p0" content="3,古張歯科医院,福島県東白川郡矢祭町大字東舘字粧神場１,歯科,,,9" xlink:title="古張歯科医院" transform="ref(svg,14042.0827,-3687.2132)" x="0" y="0"/>
<use xlink:href="#p0" content="3,佐藤歯科医院,福島県東白川郡矢祭町大字東舘字石田２４-１,歯科　小児歯科　矯正歯科,,,9" xlink:title="佐藤歯科医院" transform="ref(svg,14042.3747,-3687.0119)" x="0" y="0"/>
<use xlink:href="#p0" content="3,やえしま歯科医院,福島県東白川郡塙町大字塙字代官町５８-４,歯科,,,9" xlink:title="やえしま歯科医院" transform="ref(svg,14041.337,-3695.2982)" x="0" y="0"/>
<use xlink:href="#p0" content="3,かなざわ歯科医院,福島県東白川郡塙町大字塙字大町２-１４,歯科,,,9" xlink:title="かなざわ歯科医院" transform="ref(svg,14040.9223,-3695.8668)" x="0" y="0"/>
<use xlink:href="#p0" content="3,穂積歯科医院,福島県東白川郡塙町大字塙字大町１-２７,歯科,,,9" xlink:title="穂積歯科医院" transform="ref(svg,14041.1665,-3695.728)" x="0" y="0"/>
<use xlink:href="#p0" content="3,緑川歯科医院,福島県東白川郡塙町大字塙字大町３-２７-１,歯科　小児歯科,,,9" xlink:title="緑川歯科医院" transform="ref(svg,14041.0427,-3695.6573)" x="0" y="0"/>
<use xlink:href="#p0" content="3,さめがわ歯科医院,福島県東白川郡鮫川村大字赤坂中野字新宿１８９-１,歯科　小児歯科,,,9" xlink:title="さめがわ歯科医院" transform="ref(svg,14050.9067,-3704.0007)" x="0" y="0"/>
<use xlink:href="#p0" content="3,富永歯科医院,茨城県常陸太田市国安町１６２０ー１,歯科　小児歯科,,,9" xlink:title="富永歯科医院" transform="ref(svg,14048.738,-3659.5313)" x="0" y="0"/>
<use xlink:href="#p0" content="3,小林医院歯科,茨城県常陸太田市町田町２０９５,歯科　小児歯科,,,9" xlink:title="小林医院歯科" transform="ref(svg,14048.6054,-3661.2533)" x="0" y="0"/>
<use xlink:href="#p0" content="3,常陸太田市里美歯科診療所,茨城県常陸太田市大中町１９２６-５,歯科,,,9" xlink:title="常陸太田市里美歯科診療所" transform="ref(svg,14049.4444,-3672.2929)" x="0" y="0"/>
<use xlink:href="#p0" content="3,かわい歯科クリニック,茨城県常陸大宮市鷹巣１５６３-１,歯科　小児歯科,,,9" xlink:title="かわい歯科クリニック" transform="ref(svg,14040.524,-3657.052)" x="0" y="0"/>
<use xlink:href="#p0" content="3,根本歯科医院,茨城県常陸大宮市山方６１２-１,歯科,,,9" xlink:title="根本歯科医院" transform="ref(svg,14039.8449,-3663.0392)" x="0" y="0"/>
<use xlink:href="#p0" content="3,ノグチ歯科,茨城県常陸大宮市山方５５９-１,歯科　矯正歯科　小児歯科,,,9" xlink:title="ノグチ歯科" transform="ref(svg,14040.2376,-3662.7023)" x="0" y="0"/>
<use xlink:href="#p0" content="3,常陸大宮市国民健康保険緒川歯科診療所,茨城県常陸大宮市上小瀬１２５９,歯科　矯正歯科　小児歯科　歯科口腔外科,,,9" xlink:title="常陸大宮市国民健康保険緒川歯科診療所" transform="ref(svg,14031.9716,-3660.5396)" x="0" y="0"/>
<use xlink:href="#p0" content="3,神賀歯科医院,茨城県久慈郡大子町頃藤５１１５,歯科　矯正歯科　小児歯科,,,9" xlink:title="神賀歯科医院" transform="ref(svg,14037.6132,-3672.0443)" x="0" y="0"/>
<use xlink:href="#p0" content="3,武田歯科医院,茨城県久慈郡大子町大子７０８,歯科,,,9" xlink:title="武田歯科医院" transform="ref(svg,14035.3112,-3677.1046)" x="0" y="0"/>
<use xlink:href="#p0" content="3,中井歯科医院,茨城県久慈郡大子町大子７５５,歯科,,,9" xlink:title="中井歯科医院" transform="ref(svg,14035.6478,-3677.0273)" x="0" y="0"/>
<use xlink:href="#p0" content="3,中井歯科クリニック,茨城県久慈郡大子町池田１５５４-３,歯科,,,9" xlink:title="中井歯科クリニック" transform="ref(svg,14035.8346,-3678.2507)" x="0" y="0"/>
<use xlink:href="#p0" content="3,すずき歯科医院,茨城県久慈郡大子町池田１２２９-４,歯科,,,9" xlink:title="すずき歯科医院" transform="ref(svg,14036.0797,-3678.6769)" x="0" y="0"/>
<use xlink:href="#p0" content="3,斉藤歯科医院,茨城県久慈郡大子町大子７１５,歯科,,,9" xlink:title="斉藤歯科医院" transform="ref(svg,14035.1642,-3677.1317)" x="0" y="0"/>
<use xlink:href="#p0" content="3,わかまつ歯科医院,茨城県久慈郡大子町大子６１９,歯科　小児歯科,,,9" xlink:title="わかまつ歯科医院" transform="ref(svg,14035.5639,-3677.1974)" x="0" y="0"/>
<use xlink:href="#p0" content="3,堀江歯科医院,茨城県久慈郡大子町大子６５０,歯科　矯正歯科　小児歯科,,,9" xlink:title="堀江歯科医院" transform="ref(svg,14035.4395,-3677.1509)" x="0" y="0"/>
<use xlink:href="#p0" content="3,阿久津歯科医院,栃木県宇都宮市中岡本町４０９４,歯科,,,9" xlink:title="阿久津歯科医院" transform="ref(svg,13995.13,-3660.039)" x="0" y="0"/>
<use xlink:href="#p0" content="3,芦澤歯科医院,栃木県宇都宮市越戸１-３-３８,歯科　小児歯科　歯科口腔外科,,,9" xlink:title="芦澤歯科医院" transform="ref(svg,13992.23,-3656.363)" x="0" y="0"/>
<use xlink:href="#p0" content="3,いがらし歯科医院,栃木県宇都宮市下岡本町４５５２-１４,歯科　矯正歯科　小児歯科　歯科口腔外科,,,9" xlink:title="いがらし歯科医院" transform="ref(svg,13993.16,-3659.897)" x="0" y="0"/>
<use xlink:href="#p0" content="3,おおつか歯科クリニック,栃木県宇都宮市御幸ケ原町７７-１８,歯科　矯正歯科　小児歯科　歯科口腔外科,,,9" xlink:title="おおつか歯科クリニック" transform="ref(svg,13992.38,-3659.057)" x="0" y="0"/>
<use xlink:href="#p0" content="3,大野歯科医院,栃木県宇都宮市御幸本町４６５０-６,歯科　矯正歯科　小児歯科,,,9" xlink:title="大野歯科医院" transform="ref(svg,13992.7,-3657.664)" x="0" y="0"/>
<use xlink:href="#p0" content="3,おかだ歯科医院,栃木県宇都宮市御幸ヶ原町２２４-４,歯科　矯正歯科　小児歯科,,,9" xlink:title="おかだ歯科医院" transform="ref(svg,13992.41,-3659.367)" x="0" y="0"/>
<use xlink:href="#p0" content="3,おのざき歯科医院,栃木県宇都宮市ゆいの杜４-７-１,歯科　矯正歯科　小児歯科　歯科口腔外科,,,9" xlink:title="おのざき歯科医院" transform="ref(svg,13998.92,-3656.996)" x="0" y="0"/>
<use xlink:href="#p0" content="3,金子歯科クリニック,栃木県宇都宮市清原台１-２-１１,歯科　矯正歯科　小児歯科　歯科口腔外科,,,9" xlink:title="金子歯科クリニック" transform="ref(svg,13998.43,-3656.648)" x="0" y="0"/>
<use xlink:href="#p0" content="3,菊池歯科医院,栃木県宇都宮市御幸ケ原町１３７-３４,歯科　矯正歯科,,,9" xlink:title="菊池歯科医院" transform="ref(svg,13992.29,-3659.118)" x="0" y="0"/>
<use xlink:href="#p0" content="3,きくち歯科医院,栃木県宇都宮市下岡本町２０８２-６１,歯科　小児歯科,,,9" xlink:title="きくち歯科医院" transform="ref(svg,13994.66,-3660.649)" x="0" y="0"/>
<use xlink:href="#p0" content="3,第二--原歯科医院,栃木県宇都宮市平出工業団地３８-１１,歯科,,,9" xlink:title="第二--原歯科医院" transform="ref(svg,13993.25,-3657.006)" x="0" y="0"/>
<use xlink:href="#p0" content="3,武田歯科医院,栃木県宇都宮市白沢町２０２１-７７,歯科　矯正歯科　小児歯科　歯科口腔外科,,,9" xlink:title="武田歯科医院" transform="ref(svg,13993.1,-3661.865)" x="0" y="0"/>
<use xlink:href="#p0" content="3,たつみ歯科クリニック,栃木県宇都宮市ゆいの杜５-１８-１,歯科　矯正歯科　小児歯科　歯科口腔外科,,,9" xlink:title="たつみ歯科クリニック" transform="ref(svg,13999.79,-3656.739)" x="0" y="0"/>
<use xlink:href="#p0" content="3,角田歯科医院,栃木県宇都宮市御幸本町４７３３-１３,歯科,,,9" xlink:title="角田歯科医院" transform="ref(svg,13992.7,-3658.245)" x="0" y="0"/>
<use xlink:href="#p0" content="3,手塚歯科医院,栃木県宇都宮市中岡本町４０６１-２,歯科,,,9" xlink:title="手塚歯科医院" transform="ref(svg,13995,-3660.097)" x="0" y="0"/>
<use xlink:href="#p0" content="3,ときわ歯科クリニック,栃木県宇都宮市ゆいの杜２-１-４,歯科　小児歯科　矯正歯科　歯科口腔外科,,,9" xlink:title="ときわ歯科クリニック" transform="ref(svg,13998.95,-3657.425)" x="0" y="0"/>
<use xlink:href="#p0" content="3,永井デンタルクリニック,栃木県宇都宮市中岡本町字金井久保３７１０-６２,歯科,,,9" xlink:title="永井デンタルクリニック" transform="ref(svg,13993.56,-3660.733)" x="0" y="0"/>
<use xlink:href="#p0" content="3,中島歯科医院,栃木県宇都宮市中岡本町３６６９-２６,歯科　小児歯科,,,9" xlink:title="中島歯科医院" transform="ref(svg,13992.93,-3660.467)" x="0" y="0"/>
<use xlink:href="#p0" content="3,西川歯科クリニック,栃木県宇都宮市下岡本町１９９７-１,歯科　小児歯科,,,9" xlink:title="西川歯科クリニック" transform="ref(svg,13994.24,-3660.218)" x="0" y="0"/>
<use xlink:href="#p0" content="3,にしだ歯科クリニック,栃木県宇都宮市白沢町１８０５-１８,歯科　小児歯科,,,9" xlink:title="にしだ歯科クリニック" transform="ref(svg,13993.66,-3663.059)" x="0" y="0"/>
<use xlink:href="#p0" content="3,のざわ歯科クリニック,栃木県宇都宮市海道町７１-２,歯科　矯正歯科　小児歯科　歯科口腔外科,,,9" xlink:title="のざわ歯科クリニック" transform="ref(svg,13992.27,-3660.214)" x="0" y="0"/>
<use xlink:href="#p0" content="3,ひまわりこども歯科,栃木県宇都宮市中岡本町２９７７-１,歯科　矯正歯科　小児歯科,,,9" xlink:title="ひまわりこども歯科" transform="ref(svg,13994.31,-3661.305)" x="0" y="0"/>
<use xlink:href="#p0" content="3,ひまわり歯科医院,栃木県宇都宮市中岡本町３７１０-９４,歯科　小児歯科　歯科口腔外科　矯正歯科,,,9" xlink:title="ひまわり歯科医院" transform="ref(svg,13993.62,-3660.894)" x="0" y="0"/>
<use xlink:href="#p0" content="3,屋代歯科医院,栃木県宇都宮市平出町３４７-１,歯科,,,9" xlink:title="屋代歯科医院" transform="ref(svg,13994.84,-3657.18)" x="0" y="0"/>
<use xlink:href="#p0" content="3,ゆふ歯科,栃木県宇都宮市御幸ヶ原町５５-１１,歯科　矯正歯科　小児歯科　歯科口腔外科,,,9" xlink:title="ゆふ歯科" transform="ref(svg,13992.97,-3659.498)" x="0" y="0"/>
<use xlink:href="#p0" content="3,横塚歯科医院,栃木県宇都宮市中岡本町３７７２-７,歯科,,,9" xlink:title="横塚歯科医院" transform="ref(svg,13993.03,-3661.479)" x="0" y="0"/>
<use xlink:href="#p0" content="3,わかい歯科医院,栃木県宇都宮市白沢町４０１-３,歯科,,,9" xlink:title="わかい歯科医院" transform="ref(svg,13994.06,-3662.598)" x="0" y="0"/>
<use xlink:href="#p0" content="3,倉持歯科医院,栃木県芳賀郡市貝町続谷７２８,歯科,,,9" xlink:title="倉持歯科医院" transform="ref(svg,14012.56,-3659.485)" x="0" y="0"/>
<use xlink:href="#p0" content="3,小峰歯科医院,栃木県芳賀郡市貝町文谷３７０,歯科　矯正歯科　小児歯科,,,9" xlink:title="小峰歯科医院" transform="ref(svg,14010.24,-3656.336)" x="0" y="0"/>
<use xlink:href="#p0" content="3,阿見歯科医院,栃木県大田原市中央１-６-２１,歯科,,,9" xlink:title="阿見歯科医院" transform="ref(svg,14002.4732,-3686.8354)" x="0" y="0"/>
<use xlink:href="#p0" content="3,鮎瀬歯科医院,栃木県大田原市黒羽田町５５１,歯科,,,9" xlink:title="鮎瀬歯科医院" transform="ref(svg,14012.42,-3686.18)" x="0" y="0"/>
<use xlink:href="#p0" content="3,伊東歯科医院,栃木県大田原市末広３-２８３１-１０８,歯科　小児歯科,,,9" xlink:title="伊東歯科医院" transform="ref(svg,14001.26,-3686.556)" x="0" y="0"/>
<use xlink:href="#p0" content="3,稲村歯科医院,栃木県大田原市中央２-４-１０,歯科,,,9" xlink:title="稲村歯科医院" transform="ref(svg,14002.23,-3686.611)" x="0" y="0"/>
<use xlink:href="#p0" content="3,（医）桜岡歯科医院,栃木県大田原市元町１-７-２５,歯科　矯正歯科　小児歯科　歯科口腔外科,,,9" xlink:title="（医）桜岡歯科医院" transform="ref(svg,14003.2,-3685.957)" x="0" y="0"/>
<use xlink:href="#p0" content="3,江部歯科医院,栃木県大田原市黒羽向町２４９,歯科,,,9" xlink:title="江部歯科医院" transform="ref(svg,14011.64,-3686.596)" x="0" y="0"/>
<use xlink:href="#p0" content="3,小倉歯科医院,栃木県大田原市新富町２-３-３６,歯科,,,9" xlink:title="小倉歯科医院" transform="ref(svg,14002.5,-3686.563)" x="0" y="0"/>
<use xlink:href="#p0" content="3,おひさま歯科安川クリニック,栃木県大田原市浅香３-３６０６-３１,歯科　小児歯科,,,9" xlink:title="おひさま歯科安川クリニック" transform="ref(svg,14002.13,-3685.789)" x="0" y="0"/>
<use xlink:href="#p0" content="3,きくち歯科医院,栃木県大田原市紫塚２-２６０９-９５,歯科,,,9" xlink:title="きくち歯科医院" transform="ref(svg,14002.16,-3687.66)" x="0" y="0"/>
<use xlink:href="#p0" content="3,小松歯科医院,栃木県大田原市薄葉２１５５-２３,歯科　矯正歯科　小児歯科,,,9" xlink:title="小松歯科医院" transform="ref(svg,13996.36,-3684.073)" x="0" y="0"/>
<use xlink:href="#p0" content="3,五味渕歯科医院,栃木県大田原市住吉町２-１-３,歯科　小児歯科,,,9" xlink:title="五味渕歯科医院" transform="ref(svg,14002.46,-3687.119)" x="0" y="0"/>
<use xlink:href="#p0" content="3,酒井歯科医院,栃木県大田原市浅香２-３５７４-２４５,歯科　小児歯科,,,9" xlink:title="酒井歯科医院" transform="ref(svg,14000.56,-3685.306)" x="0" y="0"/>
<use xlink:href="#p0" content="3,佐川歯科クリニック,栃木県大田原市黒羽向町５００-１,歯科,,,9" xlink:title="佐川歯科クリニック" transform="ref(svg,14011.07,-3686.41)" x="0" y="0"/>
<use xlink:href="#p0" content="3,鈴木歯科医院,栃木県大田原市黒羽向町７４,歯科,,,9" xlink:title="鈴木歯科医院" transform="ref(svg,14011.76,-3686.234)" x="0" y="0"/>
<use xlink:href="#p0" content="3,鈴木歯科クリニック,栃木県大田原市南金丸１５１５,歯科,,,9" xlink:title="鈴木歯科クリニック" transform="ref(svg,14008.99,-3686.029)" x="0" y="0"/>
<use xlink:href="#p0" content="3,武田歯科医院,栃木県大田原市浅香２-３-２,歯科,,,9" xlink:title="武田歯科医院" transform="ref(svg,14001.05,-3685.767)" x="0" y="0"/>
<use xlink:href="#p0" content="3,辻歯科医院,栃木県大田原市中央１-５-１４ズイコーハイツ,歯科,,,9" xlink:title="辻歯科医院" transform="ref(svg,14002.45,-3686.936)" x="0" y="0"/>
<use xlink:href="#p0" content="3,長嶋歯科医院,栃木県大田原市野崎１-７-６,歯科　矯正歯科　小児歯科　歯科口腔外科,,,9" xlink:title="長嶋歯科医院" transform="ref(svg,13995.68,-3684.387)" x="0" y="0"/>
<use xlink:href="#p0" content="3,原歯科医院,栃木県大田原市新富町１-３-２３,歯科,,,9" xlink:title="原歯科医院" transform="ref(svg,14002.69,-3686.6)" x="0" y="0"/>
<use xlink:href="#p0" content="3,広瀬歯科医院,栃木県大田原市前田１０３３-４,歯科　矯正歯科　小児歯科,,,9" xlink:title="広瀬歯科医院" transform="ref(svg,14012.36,-3687.058)" x="0" y="0"/>
<use xlink:href="#p0" content="3,前田歯科医院,栃木県大田原市佐久山２２３５,歯科,,,9" xlink:title="前田歯科医院" transform="ref(svg,14000.66,-3680.941)" x="0" y="0"/>
<use xlink:href="#p0" content="3,増山歯科医院,栃木県大田原市蛭田１９７５-８３,歯科,,,9" xlink:title="増山歯科医院" transform="ref(svg,14008.56,-3681.655)" x="0" y="0"/>
<use xlink:href="#p0" content="3,みはら歯科医院,栃木県大田原市美原１-１４-１８,歯科,,,9" xlink:title="みはら歯科医院" transform="ref(svg,14000.55,-3685.787)" x="0" y="0"/>
<use xlink:href="#p0" content="3,山の手歯科医院,栃木県大田原市山の手１-８-１８,歯科　矯正歯科　小児歯科,,,9" xlink:title="山の手歯科医院" transform="ref(svg,14002.72,-3686.972)" x="0" y="0"/>
<use xlink:href="#p0" content="3,吉成歯科医院,栃木県大田原市前田１４５,歯科,,,9" xlink:title="吉成歯科医院" transform="ref(svg,14012.54,-3686.757)" x="0" y="0"/>
<use xlink:href="#p0" content="3,渡辺歯科クリニック,栃木県大田原市新富町１-６-３,歯科　矯正歯科　小児歯科　歯科口腔外科,,,9" xlink:title="渡辺歯科クリニック" transform="ref(svg,14002.9,-3686.491)" x="0" y="0"/>
<use xlink:href="#p0" content="3,阿久津歯科医院,栃木県矢板市末広町１３-１１,歯科　矯正歯科　小児歯科　歯科口腔外科,,,9" xlink:title="阿久津歯科医院" transform="ref(svg,13993.42,-3680.769)" x="0" y="0"/>
<use xlink:href="#p0" content="3,荒井歯科医院,栃木県矢板市鹿島町２-３０,歯科　矯正歯科　小児歯科　歯科口腔外科,,,9" xlink:title="荒井歯科医院" transform="ref(svg,13992.83,-3680.662)" x="0" y="0"/>
<use xlink:href="#p0" content="3,印南歯科医院,栃木県矢板市富田５５６-５,歯科　矯正歯科　小児歯科,,,9" xlink:title="印南歯科医院" transform="ref(svg,13993.35,-3679.982)" x="0" y="0"/>
<use xlink:href="#p0" content="3,大島歯科医院,栃木県矢板市扇町２-１０-４,歯科　矯正歯科　小児歯科,,,9" xlink:title="大島歯科医院" transform="ref(svg,13993.07,-3681.312)" x="0" y="0"/>
<use xlink:href="#p0" content="3,かねこ歯科医院,栃木県矢板市針生４１-７,歯科　小児歯科　歯科口腔外科,,,9" xlink:title="かねこ歯科医院" transform="ref(svg,13993.37,-3681.459)" x="0" y="0"/>
<use xlink:href="#p0" content="3,すずき歯科,栃木県矢板市片岡２０８８-１１,歯科　矯正歯科　小児歯科　歯科口腔外科,,,9" xlink:title="すずき歯科" transform="ref(svg,13993.97,-3676.032)" x="0" y="0"/>
<use xlink:href="#p0" content="3,高塩歯科医院,栃木県矢板市扇町２-１-１４,歯科　矯正歯科　小児歯科　歯科口腔外科,,,9" xlink:title="高塩歯科医院" transform="ref(svg,13993.01,-3681.102)" x="0" y="0"/>
<use xlink:href="#p0" content="3,高瀬歯科医院,栃木県矢板市木幡１３６２-５,歯科　矯正歯科　小児歯科,,,9" xlink:title="高瀬歯科医院" transform="ref(svg,13993.68,-3679.75)" x="0" y="0"/>
<use xlink:href="#p0" content="3,田中歯科医院,栃木県矢板市乙畑１６３１-１,歯科,,,9" xlink:title="田中歯科医院" transform="ref(svg,13994.79,-3675.216)" x="0" y="0"/>
<use xlink:href="#p0" content="3,村井歯科医院,栃木県矢板市本町８-３２,歯科,,,9" xlink:title="村井歯科医院" transform="ref(svg,13992.73,-3680.891)" x="0" y="0"/>
<use xlink:href="#p0" content="3,八板歯科医院,栃木県矢板市扇町１-６-１２,歯科　小児歯科　歯科口腔外科,,,9" xlink:title="八板歯科医院" transform="ref(svg,13993.27,-3681.075)" x="0" y="0"/>
<use xlink:href="#p0" content="3,渡辺歯科医院,栃木県矢板市本町６-３４,歯科　矯正歯科　小児歯科,,,9" xlink:title="渡辺歯科医院" transform="ref(svg,13992.39,-3680.816)" x="0" y="0"/>
<use xlink:href="#p0" content="3,渡辺セントラル歯科,栃木県矢板市末広町４２-９,歯科,,,9" xlink:title="渡辺セントラル歯科" transform="ref(svg,13993.57,-3680.664)" x="0" y="0"/>
<use xlink:href="#p0" content="3,秋田歯科医院,栃木県那須塩原市本町８-２５,歯科,,,9" xlink:title="秋田歯科医院" transform="ref(svg,14005.75,-3697.197)" x="0" y="0"/>
<use xlink:href="#p0" content="3,荒井歯科医院,栃木県那須塩原市大原間３７８-６,歯科,,,9" xlink:title="荒井歯科医院" transform="ref(svg,14002.07,-3692.885)" x="0" y="0"/>
<use xlink:href="#p0" content="3,生駒デンタルクリニック,栃木県那須塩原市太夫塚１-１９５-２１,歯科　小児歯科,,,9" xlink:title="生駒デンタルクリニック" transform="ref(svg,13997.93,-3688.64)" x="0" y="0"/>
<use xlink:href="#p0" content="3,いずみ歯科医院,栃木県那須塩原市豊浦中町１００-１０３,歯科　矯正歯科,,,9" xlink:title="いずみ歯科医院" transform="ref(svg,14004.39,-3696.738)" x="0" y="0"/>
<use xlink:href="#p0" content="3,礒歯科医院,栃木県那須塩原市高砂町４-６,歯科,,,9" xlink:title="礒歯科医院" transform="ref(svg,14005.2,-3697.479)" x="0" y="0"/>
<use xlink:href="#p0" content="3,（医）賢優会伊藤歯科医院,栃木県那須塩原市扇町６-１６,歯科　矯正歯科　小児歯科,,,9" xlink:title="（医）賢優会伊藤歯科医院" transform="ref(svg,13998.42,-3688.541)" x="0" y="0"/>
<use xlink:href="#p0" content="3,（医）皓那会大野歯科クリニック,栃木県那須塩原市東原３-１４９３,歯科　矯正歯科　小児歯科　歯科口腔外科,,,9" xlink:title="（医）皓那会大野歯科クリニック" transform="ref(svg,14003.09,-3698.343)" x="0" y="0"/>
<use xlink:href="#p0" content="3,江口歯科医院,栃木県那須塩原市大原間西１-８-２,歯科,,,9" xlink:title="江口歯科医院" transform="ref(svg,14001.92,-3693.127)" x="0" y="0"/>
<use xlink:href="#p0" content="3,大田原歯科医院,栃木県那須塩原市住吉町３-３４,歯科,,,9" xlink:title="大田原歯科医院" transform="ref(svg,14004.96,-3696.736)" x="0" y="0"/>
<use xlink:href="#p0" content="3,おがわ歯科医院,栃木県那須塩原市下永田３-１１７３-２,歯科　矯正歯科　小児歯科　歯科口腔外科,,,9" xlink:title="おがわ歯科医院" transform="ref(svg,13999.36,-3688.106)" x="0" y="0"/>
<use xlink:href="#p0" content="3,グリーン歯科本田クリニック,栃木県那須塩原市材木町６-３２,歯科　矯正歯科　小児歯科　歯科口腔外科,,,9" xlink:title="グリーン歯科本田クリニック" transform="ref(svg,14004.77,-3697.566)" x="0" y="0"/>
<use xlink:href="#p0" content="3,小滝歯科医院,栃木県那須塩原市永田町７-１８,歯科,,,9" xlink:title="小滝歯科医院" transform="ref(svg,13998.45,-3688.622)" x="0" y="0"/>
<use xlink:href="#p0" content="3,五味渕歯科医院,栃木県那須塩原市永田町７-１０,歯科,,,9" xlink:title="五味渕歯科医院" transform="ref(svg,13998.38,-3688.57)" x="0" y="0"/>
<use xlink:href="#p0" content="3,坂元クリニック,栃木県那須塩原市中央町４-２１,歯科　歯科口腔外科,,,9" xlink:title="坂元クリニック" transform="ref(svg,14005.48,-3697.21)" x="0" y="0"/>
<use xlink:href="#p0" content="3,渋井歯科医院,栃木県那須塩原市西幸町７-１０,歯科,,,9" xlink:title="渋井歯科医院" transform="ref(svg,13998.36,-3687.607)" x="0" y="0"/>
<use xlink:href="#p0" content="3,清水歯科医院,栃木県那須塩原市豊浦１１-１８４,歯科,,,9" xlink:title="清水歯科医院" transform="ref(svg,14006.2,-3695.955)" x="0" y="0"/>
<use xlink:href="#p0" content="3,新藤歯科医院,栃木県那須塩原市上厚崎７２１-１,歯科　矯正歯科　小児歯科　歯科口腔外科,,,9" xlink:title="新藤歯科医院" transform="ref(svg,14003.02,-3695)" x="0" y="0"/>
<use xlink:href="#p0" content="3,せきぐち歯科医院,栃木県那須塩原市末広町７７-３,歯科　矯正歯科　小児歯科　歯科口腔外科,,,9" xlink:title="せきぐち歯科医院" transform="ref(svg,14004.26,-3697.134)" x="0" y="0"/>
<use xlink:href="#p0" content="3,たかさき歯科医院,栃木県那須塩原市南郷屋４-３１-１５８,歯科　小児歯科,,,9" xlink:title="たかさき歯科医院" transform="ref(svg,13998.94,-3689.237)" x="0" y="0"/>
<use xlink:href="#p0" content="3,高野歯科医院,栃木県那須塩原市東三島２-７９-２,歯科　矯正歯科　小児歯科　歯科口腔外科,,,9" xlink:title="高野歯科医院" transform="ref(svg,13998.02,-3689.77)" x="0" y="0"/>
<use xlink:href="#p0" content="3,武田歯科医院,栃木県那須塩原市西栄町４-４,歯科,,,9" xlink:title="武田歯科医院" transform="ref(svg,13998.44,-3688.825)" x="0" y="0"/>
<use xlink:href="#p0" content="3,ＤＥＮＴＡＬＣＬＩＮＩＣＭ-VＳ,栃木県那須塩原市方京１-６-２,歯科　矯正歯科　小児歯科　歯科口腔外科,,,9" xlink:title="ＤＥＮＴＡＬＣＬＩＮＩＣＭ-VＳ" transform="ref(svg,14001.66,-3693.348)" x="0" y="0"/>
<use xlink:href="#p0" content="3,中江歯科医院,栃木県那須塩原市永田町２-４,歯科,,,9" xlink:title="中江歯科医院" transform="ref(svg,13998.57,-3688.501)" x="0" y="0"/>
<use xlink:href="#p0" content="3,なべかけ歯科,栃木県那須塩原市鍋掛１４７５-６４２,歯科　矯正歯科,,,9" xlink:title="なべかけ歯科" transform="ref(svg,14008.38,-3694.943)" x="0" y="0"/>
<use xlink:href="#p0" content="3,西田歯科医院,栃木県那須塩原市下永田７-１０９８-３,歯科　小児歯科,,,9" xlink:title="西田歯科医院" transform="ref(svg,14000.49,-3687.796)" x="0" y="0"/>
<use xlink:href="#p0" content="3,虹の街歯科医院,栃木県那須塩原市西大和１-８,歯科,,,9" xlink:title="虹の街歯科医院" transform="ref(svg,13998.22,-3688.671)" x="0" y="0"/>
<use xlink:href="#p0" content="3,林歯科医院,栃木県那須塩原市井口７１２-５,歯科,,,9" xlink:title="林歯科医院" transform="ref(svg,13998.7,-3691.643)" x="0" y="0"/>
<use xlink:href="#p0" content="3,桧山歯科クリニック,栃木県那須塩原市弥生町２-２８,歯科　矯正歯科　小児歯科　歯科口腔外科,,,9" xlink:title="桧山歯科クリニック" transform="ref(svg,14005.83,-3697.467)" x="0" y="0"/>
<use xlink:href="#p0" content="3,ヒライデ歯科医院,栃木県那須塩原市五軒町２-２５,歯科　小児歯科,,,9" xlink:title="ヒライデ歯科医院" transform="ref(svg,13998.06,-3689.004)" x="0" y="0"/>
<use xlink:href="#p0" content="3,平野歯科医院,栃木県那須塩原市三島１-１５-５,歯科,,,9" xlink:title="平野歯科医院" transform="ref(svg,13997.83,-3689.289)" x="0" y="0"/>
<use xlink:href="#p0" content="3,ピレネー歯科,栃木県那須塩原市青木字大輪地原２７-２３９２,歯科　矯正歯科　小児歯科　歯科口腔外科　他,,,9" xlink:title="ピレネー歯科" transform="ref(svg,13998.37,-3700.051)" x="0" y="0"/>
<use xlink:href="#p0" content="3,ペンギン歯科,栃木県那須塩原市弥生町１-２３,歯科　小児歯科,,,9" xlink:title="ペンギン歯科" transform="ref(svg,14005.7,-3697.498)" x="0" y="0"/>
<use xlink:href="#p0" content="3,ましこ歯科医院,栃木県那須塩原市錦町３-２６,歯科,,,9" xlink:title="ましこ歯科医院" transform="ref(svg,14005.51,-3696.7)" x="0" y="0"/>
<use xlink:href="#p0" content="3,マジマ歯科医院,栃木県那須塩原市若葉町７-６,歯科,,,9" xlink:title="マジマ歯科医院" transform="ref(svg,14004.62,-3697.128)" x="0" y="0"/>
<use xlink:href="#p0" content="3,増渕歯科医院,栃木県那須塩原市西三島１-１５５-３,歯科,,,9" xlink:title="増渕歯科医院" transform="ref(svg,13997.41,-3688.968)" x="0" y="0"/>
<use xlink:href="#p0" content="3,松井歯科診療室,栃木県那須塩原市東小屋１９３-２,歯科　矯正歯科　小児歯科　歯科口腔外科,,,9" xlink:title="松井歯科診療室" transform="ref(svg,14002.52,-3692.831)" x="0" y="0"/>
<use xlink:href="#p0" content="3,松本歯科,栃木県那須塩原市鍋掛１０８７-３９８,歯科,,,9" xlink:title="松本歯科" transform="ref(svg,14006.82,-3696.005)" x="0" y="0"/>
<use xlink:href="#p0" content="3,馬渡歯科医院,栃木県那須塩原市高林１２０１-２３,歯科　矯正歯科　小児歯科　歯科口腔外科,,,9" xlink:title="馬渡歯科医院" transform="ref(svg,13995.6,-3698.78)" x="0" y="0"/>
<use xlink:href="#p0" content="3,三島歯科クリニック,栃木県那須塩原市三島２-１２１-１０,歯科,,,9" xlink:title="三島歯科クリニック" transform="ref(svg,13997.42,-3689.334)" x="0" y="0"/>
<use xlink:href="#p0" content="3,水谷歯科医院,栃木県那須塩原市共墾社１-８２-５,歯科,,,9" xlink:title="水谷歯科医院" transform="ref(svg,14005.07,-3696.308)" x="0" y="0"/>
<use xlink:href="#p0" content="3,みゆき歯科,栃木県那須塩原市高柳６１-１８,歯科　小児歯科　歯科口腔外科,,,9" xlink:title="みゆき歯科" transform="ref(svg,13998.82,-3690.072)" x="0" y="0"/>
<use xlink:href="#p0" content="3,室賀歯科医院,栃木県那須塩原市豊浦９３,歯科,,,9" xlink:title="室賀歯科医院" transform="ref(svg,14003.4,-3697.981)" x="0" y="0"/>
<use xlink:href="#p0" content="3,矢島歯科医院,栃木県那須塩原市大原間北後４０３-６,歯科,,,9" xlink:title="矢島歯科医院" transform="ref(svg,14002.27,-3692.998)" x="0" y="0"/>
<use xlink:href="#p0" content="3,雄歯科,栃木県那須塩原市島方５３８-１４,歯科　歯科口腔外科,,,9" xlink:title="雄歯科" transform="ref(svg,14000.93,-3693.237)" x="0" y="0"/>
<use xlink:href="#p0" content="3,渡邉歯科医院,栃木県那須塩原市埼玉７８-８６,歯科　小児歯科,,,9" xlink:title="渡邉歯科医院" transform="ref(svg,14002.4,-3696.534)" x="0" y="0"/>
<use xlink:href="#p0" content="3,渡辺歯科クリニック,栃木県那須塩原市西三島２-１７８-１８,歯科　小児歯科　矯正歯科　歯科口腔外科,,,9" xlink:title="渡辺歯科クリニック" transform="ref(svg,13996.8,-3689.059)" x="0" y="0"/>
<use xlink:href="#p0" content="3,河上歯科,栃木県さくら市北草川１-１-５,歯科　矯正歯科　小児歯科　歯科口腔外科,,,9" xlink:title="河上歯科" transform="ref(svg,13995.09,-3668.942)" x="0" y="0"/>
<use xlink:href="#p0" content="3,川俣歯科医院,栃木県さくら市市草川３５-５,歯科　小児歯科,,,9" xlink:title="川俣歯科医院" transform="ref(svg,13995.54,-3668.334)" x="0" y="0"/>
<use xlink:href="#p0" content="3,まちだ歯科クリニック,栃木県さくら市喜連川字薬師下５１１-１,歯科　歯科口腔外科　小児歯科,,,9" xlink:title="まちだ歯科クリニック" transform="ref(svg,14002.58,-3671.841)" x="0" y="0"/>
<use xlink:href="#p0" content="3,矯正齋藤歯科医院,栃木県さくら市卯の里３-３１-１,矯正歯科,,,9" xlink:title="矯正齋藤歯科医院" transform="ref(svg,13996.1,-3668.067)" x="0" y="0"/>
<use xlink:href="#p0" content="3,齋藤歯科医院,栃木県さくら市氏家２６７９,歯科,,,9" xlink:title="齋藤歯科医院" transform="ref(svg,13996.67,-3668.243)" x="0" y="0"/>
<use xlink:href="#p0" content="3,塩野歯科医院,栃木県さくら市櫻野４１５-１,歯科　小児歯科,,,9" xlink:title="塩野歯科医院" transform="ref(svg,13997.09,-3668.033)" x="0" y="0"/>
<use xlink:href="#p0" content="3,すぎうら歯科医院,栃木県さくら市氏家下野３２１１-２７,歯科　矯正歯科　小児歯科　歯科口腔外科,,,9" xlink:title="すぎうら歯科医院" transform="ref(svg,13996.94,-3669.418)" x="0" y="0"/>
<use xlink:href="#p0" content="3,高柳歯科医院,栃木県さくら市喜連川４０５４,歯科,,,9" xlink:title="高柳歯科医院" transform="ref(svg,14002.76,-3671.941)" x="0" y="0"/>
<use xlink:href="#p0" content="3,にから歯科医院,栃木県さくら市喜連川８７-３,歯科　小児歯科　歯科口腔外科,,,9" xlink:title="にから歯科医院" transform="ref(svg,14003.95,-3671.772)" x="0" y="0"/>
<use xlink:href="#p0" content="3,西海歯科医院,栃木県さくら市氏家３４８５-１３,歯科　歯科口腔外科,,,9" xlink:title="西海歯科医院" transform="ref(svg,13996.8,-3670.812)" x="0" y="0"/>
<use xlink:href="#p0" content="3,野沢歯科医院,栃木県さくら市喜連川９８０-１,歯科　矯正歯科　小児歯科　歯科口腔外科,,,9" xlink:title="野沢歯科医院" transform="ref(svg,14002.86,-3672.788)" x="0" y="0"/>
<use xlink:href="#p0" content="3,平石歯科医院,栃木県さくら市氏家２５７８-４,歯科,,,9" xlink:title="平石歯科医院" transform="ref(svg,13996.75,-3667.973)" x="0" y="0"/>
<use xlink:href="#p0" content="3,福澤歯科クリニック,栃木県さくら市氏家１２０６-１３,歯科　矯正歯科　小児歯科　歯科口腔外科,,,9" xlink:title="福澤歯科クリニック" transform="ref(svg,13995.69,-3666.065)" x="0" y="0"/>
<use xlink:href="#p0" content="3,マリン歯科クリニック,栃木県さくら市櫻野１５５１,歯科　小児歯科　歯科口腔外科,,,9" xlink:title="マリン歯科クリニック" transform="ref(svg,13997.92,-3668.99)" x="0" y="0"/>
<use xlink:href="#p0" content="3,森島歯科医院,栃木県さくら市櫻野１３０８,歯科　矯正歯科　小児歯科　歯科口腔外科,,,9" xlink:title="森島歯科医院" transform="ref(svg,13996.81,-3668.275)" x="0" y="0"/>
<use xlink:href="#p0" content="3,渡辺歯科医院,栃木県さくら市氏家２７６５-５,歯科,,,9" xlink:title="渡辺歯科医院" transform="ref(svg,13996.6,-3668.621)" x="0" y="0"/>
<use xlink:href="#p0" content="3,渡辺よしお歯科医院,栃木県さくら市富野岡３-５,歯科,,,9" xlink:title="渡辺よしお歯科医院" transform="ref(svg,13994.8,-3669.058)" x="0" y="0"/>
<use xlink:href="#p0" content="3,浅倉歯科医院,栃木県那須烏山市谷浅見９８６-１,歯科,,,9" xlink:title="浅倉歯科医院" transform="ref(svg,14015.37,-3669.558)" x="0" y="0"/>
<use xlink:href="#p0" content="3,新井歯科クリニック,栃木県那須烏山市中央２-８-２５,歯科　矯正歯科　小児歯科　歯科口腔外科,,,9" xlink:title="新井歯科クリニック" transform="ref(svg,14015.89,-3665.433)" x="0" y="0"/>
<use xlink:href="#p0" content="3,石川歯科医院,栃木県那須烏山市金井１-８-４,歯科　矯正歯科　小児歯科　歯科口腔外科,,,9" xlink:title="石川歯科医院" transform="ref(svg,14015.22,-3665.392)" x="0" y="0"/>
<use xlink:href="#p0" content="3,石川歯科医院,栃木県那須烏山市金井２-９-６,歯科　小児歯科,,,9" xlink:title="石川歯科医院" transform="ref(svg,14015.49,-3665.318)" x="0" y="0"/>
<use xlink:href="#p0" content="3,石倉歯科医院,栃木県那須烏山市鴻野山２０９-７,歯科　矯正歯科　小児歯科　歯科口腔外科,,,9" xlink:title="石倉歯科医院" transform="ref(svg,14005.71,-3666.572)" x="0" y="0"/>
<use xlink:href="#p0" content="3,岡林歯科医院,栃木県那須烏山市初音６-６,歯科,,,9" xlink:title="岡林歯科医院" transform="ref(svg,14015.82,-3665.197)" x="0" y="0"/>
<use xlink:href="#p0" content="3,川俣歯科医院,栃木県那須烏山市旭１-２０-５,歯科　小児歯科,,,9" xlink:title="川俣歯科医院" transform="ref(svg,14016.5,-3665.402)" x="0" y="0"/>
<use xlink:href="#p0" content="3,神門歯科医院,栃木県那須烏山市中央１-９-８,歯科,,,9" xlink:title="神門歯科医院" transform="ref(svg,14014.88,-3665.639)" x="0" y="0"/>
<use xlink:href="#p0" content="3,スマイル歯科,栃木県那須烏山市藤田１４７７,歯科　矯正歯科　小児歯科　歯科口腔外科,,,9" xlink:title="スマイル歯科" transform="ref(svg,14008.55,-3668.614)" x="0" y="0"/>
<use xlink:href="#p0" content="3,福沢歯科医院,栃木県那須烏山市大金１８１,歯科,,,9" xlink:title="福沢歯科医院" transform="ref(svg,14009.77,-3665.653)" x="0" y="0"/>
<use xlink:href="#p0" content="3,藤井歯科医院,栃木県那須烏山市中央３-３-５,歯科　矯正歯科　小児歯科,,,9" xlink:title="藤井歯科医院" transform="ref(svg,14015.5,-3666.036)" x="0" y="0"/>
<use xlink:href="#p0" content="3,みどり歯科,栃木県那須烏山市南大和久４５１-２,歯科　小児歯科　歯科口腔外科,,,9" xlink:title="みどり歯科" transform="ref(svg,14010.09,-3666.692)" x="0" y="0"/>
<use xlink:href="#p0" content="3,若林歯科医院,栃木県那須烏山市中央１-１８-３２,歯科　小児歯科　歯科口腔外科,,,9" xlink:title="若林歯科医院" transform="ref(svg,14015.2,-3665.997)" x="0" y="0"/>
<use xlink:href="#p0" content="3,加藤かつま歯科クリニック,栃木県塩谷郡高根沢町太田１１２９-２,歯科　矯正歯科　小児歯科　歯科口腔外科,,,9" xlink:title="加藤かつま歯科クリニック" transform="ref(svg,14003.17,-3662.62)" x="0" y="0"/>
<use xlink:href="#p0" content="3,加藤歯科医院,栃木県塩谷郡高根沢町宝積寺２３５２-２９,歯科　矯正歯科　小児歯科,,,9" xlink:title="加藤歯科医院" transform="ref(svg,13998.33,-3662.921)" x="0" y="0"/>
<use xlink:href="#p0" content="3,さいとう歯科医院,栃木県塩谷郡高根沢町西高谷１６８,歯科　小児歯科,,,9" xlink:title="さいとう歯科医院" transform="ref(svg,14002.15,-3663.059)" x="0" y="0"/>
<use xlink:href="#p0" content="3,佐藤歯科医院,栃木県塩谷郡高根沢町宝石台５-１３-１,歯科　小児歯科,,,9" xlink:title="佐藤歯科医院" transform="ref(svg,13998.83,-3661.579)" x="0" y="0"/>
<use xlink:href="#p0" content="3,高津戸歯科医院,栃木県塩谷郡高根沢町光陽台３-６-６,歯科　小児歯科　歯科口腔外科,,,9" xlink:title="高津戸歯科医院" transform="ref(svg,13998.96,-3661.98)" x="0" y="0"/>
<use xlink:href="#p0" content="3,長嶋歯科医院,栃木県塩谷郡高根沢町宝石台１-８-１７,歯科　小児歯科,,,9" xlink:title="長嶋歯科医院" transform="ref(svg,13999.33,-3662.077)" x="0" y="0"/>
<use xlink:href="#p0" content="3,奈良歯科医院,栃木県塩谷郡高根沢町伏久１１８,歯科,,,9" xlink:title="奈良歯科医院" transform="ref(svg,14002.71,-3665.673)" x="0" y="0"/>
<use xlink:href="#p0" content="3,野中歯科医院,栃木県塩谷郡高根沢町宝積寺２４５８,歯科,,,9" xlink:title="野中歯科医院" transform="ref(svg,13997.76,-3663.411)" x="0" y="0"/>
<use xlink:href="#p0" content="3,横塚歯科クリニック,栃木県塩谷郡高根沢町宝積寺１１５９-５,歯科　小児歯科　歯科口腔外科,,,9" xlink:title="横塚歯科クリニック" transform="ref(svg,13997.66,-3662.827)" x="0" y="0"/>
<use xlink:href="#p0" content="3,渡辺歯科宝積寺診療所,栃木県塩谷郡高根沢町宝積寺２３２０-３５,歯科　矯正歯科　小児歯科　歯科口腔外科,,,9" xlink:title="渡辺歯科宝積寺診療所" transform="ref(svg,13998.66,-3662.838)" x="0" y="0"/>
<use xlink:href="#p0" content="3,アイビーデンタルクリニック,栃木県那須郡那須町高久丙１１６２-１２,歯科　小児歯科,,,9" xlink:title="アイビーデンタルクリニック" transform="ref(svg,14004.49,-3705.412)" x="0" y="0"/>
<use xlink:href="#p0" content="3,大関歯科医院,栃木県那須郡那須町高久甲４５８３-２,歯科,,,9" xlink:title="大関歯科医院" transform="ref(svg,14003.08,-3701.307)" x="0" y="0"/>
<use xlink:href="#p0" content="3,小山田歯科医院,栃木県那須郡那須町伊王野１７７０,歯科　小児歯科　歯科口腔外科,,,9" xlink:title="小山田歯科医院" transform="ref(svg,14015.5,-3695.759)" x="0" y="0"/>
<use xlink:href="#p0" content="3,粂歯科医院,栃木県那須郡那須町寺子丙４-１１３,歯科,,,9" xlink:title="粂歯科医院" transform="ref(svg,14011.86,-3702.509)" x="0" y="0"/>
<use xlink:href="#p0" content="3,小島歯科診療所,栃木県那須郡那須町寺子丙１４７７-４,歯科,,,9" xlink:title="小島歯科診療所" transform="ref(svg,14009.99,-3704.004)" x="0" y="0"/>
<use xlink:href="#p0" content="3,塚原歯科医院,栃木県那須郡那須町寺子丙１-３８６,歯科　矯正歯科　小児歯科　歯科口腔外科,,,9" xlink:title="塚原歯科医院" transform="ref(svg,14011.73,-3702.03)" x="0" y="0"/>
<use xlink:href="#p0" content="3,-鋳-田歯科医院,栃木県那須郡那須町高久甲４６７イオンタウン那須ＳＣ,歯科　小児歯科,,,9" xlink:title="-鋳-田歯科医院" transform="ref(svg,14006.22,-3698.543)" x="0" y="0"/>
<use xlink:href="#p0" content="3,三田歯科医院,栃木県那須郡那須町寺子丙１-１１６,歯科,,,9" xlink:title="三田歯科医院" transform="ref(svg,14011.91,-3701.875)" x="0" y="0"/>
<use xlink:href="#p0" content="3,飯塚歯科医院,栃木県那須郡那珂川町馬頭３６８,歯科,,,9" xlink:title="飯塚歯科医院" transform="ref(svg,14016.99,-3673.775)" x="0" y="0"/>
<use xlink:href="#p0" content="3,遅沢歯科医院,栃木県那須郡那珂川町小川２５６５-５,歯科,,,9" xlink:title="遅沢歯科医院" transform="ref(svg,14012.79,-3676.278)" x="0" y="0"/>
<use xlink:href="#p0" content="3,佐藤歯科医院,栃木県那須郡那珂川町小川２５８４,歯科,,,9" xlink:title="佐藤歯科医院" transform="ref(svg,14012.93,-3676.239)" x="0" y="0"/>
<use xlink:href="#p0" content="3,高野歯科医院,栃木県那須郡那珂川町久那瀬７３１,歯科,,,9" xlink:title="高野歯科医院" transform="ref(svg,14015.6,-3672.873)" x="0" y="0"/>
<use xlink:href="#p0" content="3,長谷川歯科クリニック,栃木県那須郡那珂川町薬利１０７１,歯科,,,9" xlink:title="長谷川歯科クリニック" transform="ref(svg,14009.93,-3677.71)" x="0" y="0"/>
<use xlink:href="#p0" content="3,三木歯科医院,栃木県那須郡那珂川町馬頭６１２-１７,歯科,,,9" xlink:title="三木歯科医院" transform="ref(svg,14017.29,-3673.496)" x="0" y="0"/>
<use xlink:href="#p0" content="3,三木歯科医院,栃木県那須郡那珂川町大山田上郷９６２,歯科,,,9" xlink:title="三木歯科医院" transform="ref(svg,14021.47,-3681.312)" x="0" y="0"/>
</g>
</svg>
