<?xml version="1.0" encoding="UTF-8"?>
<svg  xmlns="http://www.w3.org/2000/svg" xmlns:xlink="http://www.w3.org/1999/xlink" xmlns:go="http://purl.org/svgmap/profile" property="医療機関分類,施設名称,所在地,診療科目１,診療科目２,診療科目３,開設者分類" viewBox="13060.546875 -3375.0 17.578125 17.578125" go:dataArea="13060.546875 -3375.0 17.578125 17.578125" >
<metadata>
 <rdf:RDF xmlns:rdf="http://www.w3.org/1999/02/22-rdf-syntax-ns#" xmlns:crs="http://opengis.org/xmldtds/transformations.dtd" xmlns:svg="http://www.w3.org/svg" >
  <rdf:Description>
   <crs:CoordinateReferenceSystem rdf:resource="http://purl.org/crs/84" svg:transform="matrix(100.0,0.0,0.0,-100.0,0.0,0.0)" />
  </rdf:Description>
 </rdf:RDF>
</metadata>
<globalCoordinateSystem srsName="http://purl.org/crs/84" transform="matrix(100.0,0.0,0.0,-100.0,0.0,0.0)" />
<defs>
 <g id="p0" >
  <image xlink:href="mappin.png" preserveAspectRatio="none" x="-8" y="-25" width="19" height="27"/>
 </g>
 <g id="p1" >
  <image xlink:href="mappin1.png" preserveAspectRatio="none" x="-8" y="-25" width="19" height="27"/>
 </g>
 <g id="p2" >
  <image xlink:href="mappin2.png" preserveAspectRatio="none" x="-8" y="-25" width="19" height="27"/>
 </g>
 <g id="p3" >
  <image xlink:href="mappin3.png" preserveAspectRatio="none" x="-8" y="-25" width="19" height="27"/>
 </g>
 <g id="p4" >
  <image xlink:href="mappin4.png" preserveAspectRatio="none" x="-8" y="-25" width="19" height="27"/>
 </g>
 <g id="p5" >
  <image xlink:href="mappin5.png" preserveAspectRatio="none" x="-8" y="-25" width="19" height="27"/>
 </g>
 <g id="p6" >
  <image xlink:href="mappin6.png" preserveAspectRatio="none" x="-8" y="-25" width="19" height="27"/>
 </g>
 <g id="p7" >
  <image xlink:href="mappin7.png" preserveAspectRatio="none" x="-8" y="-25" width="19" height="27"/>
 </g>
 <g id="p8" >
  <image xlink:href="mappin8.png" preserveAspectRatio="none" x="-8" y="-25" width="19" height="27"/>
 </g>
 <g id="p9" >
  <image xlink:href="mappin9.png" preserveAspectRatio="none" x="-8" y="-25" width="19" height="27"/>
 </g>
</defs>
<g fill="green" fill-rule="evenodd" >
<use xlink:href="#p0" content="3,（医）康和会アイ歯科医院,福岡県飯塚市枝国４９５-１５,歯科　矯正歯科　小児歯科　歯科口腔外科,,,9" xlink:title="（医）康和会アイ歯科医院" transform="ref(svg,13067.4296,-3363.5095)" x="0" y="0"/>
<use xlink:href="#p0" content="3,（医）康和会アイ歯科柏の森,福岡県飯塚市柏の森１-１,歯科　矯正歯科　小児歯科　歯科口腔外科,,,9" xlink:title="（医）康和会アイ歯科柏の森" transform="ref(svg,13070.921,-3364.5371)" x="0" y="0"/>
<use xlink:href="#p0" content="3,青山歯科医院,福岡県飯塚市柏の森９２-９９,歯科　矯正歯科　小児歯科,,,9" xlink:title="青山歯科医院" transform="ref(svg,13071.1601,-3364.0217)" x="0" y="0"/>
<use xlink:href="#p0" content="3,秋元歯科医院,福岡県飯塚市川津７０７-１,歯科　矯正歯科　小児歯科,,,9" xlink:title="秋元歯科医院" transform="ref(svg,13068.2516,-3365.3786)" x="0" y="0"/>
<use xlink:href="#p0" content="3,浅田歯科医院,福岡県飯塚市南尾６０３-５,歯科,,,9" xlink:title="浅田歯科医院" transform="ref(svg,13068.4221,-3361.7139)" x="0" y="0"/>
<use xlink:href="#p0" content="3,浅原歯科,福岡県飯塚市楽市４８８-５,歯科　小児歯科,,,9" xlink:title="浅原歯科" transform="ref(svg,13067.8763,-3360.979)" x="0" y="0"/>
<use xlink:href="#p0" content="3,（医）阿部歯科医院,福岡県飯塚市天道１０１,歯科,,,9" xlink:title="（医）阿部歯科医院" transform="ref(svg,13067.651,-3360.4653)" x="0" y="0"/>
<use xlink:href="#p0" content="3,安藤歯科医院,福岡県飯塚市柏の森４７３-９,歯科,,,9" xlink:title="安藤歯科医院" transform="ref(svg,13070.0464,-3363.7897)" x="0" y="0"/>
<use xlink:href="#p0" content="3,伊藤歯科医院,福岡県飯塚市相田１２９-２,歯科,,,9" xlink:title="伊藤歯科医院" transform="ref(svg,13066.2855,-3365.7173)" x="0" y="0"/>
<use xlink:href="#p0" content="3,おおた歯科・小児歯科,福岡県飯塚市楽市６２０-５,歯科　小児歯科,,,9" xlink:title="おおた歯科・小児歯科" transform="ref(svg,13067.2441,-3361.1349)" x="0" y="0"/>
<use xlink:href="#p0" content="3,おおつか歯科医院,福岡県飯塚市長尾４０５-１,歯科　小児歯科,,,9" xlink:title="おおつか歯科医院" transform="ref(svg,13065.3383,-3357.599)" x="0" y="0"/>
<use xlink:href="#p0" content="3,奥野歯科医院,福岡県飯塚市上三緒３４６-２８,歯科,,,9" xlink:title="奥野歯科医院" transform="ref(svg,13071.6498,-3362.6395)" x="0" y="0"/>
<use xlink:href="#p0" content="3,吉川歯科医院,福岡県飯塚市柏の森１４６-８,歯科,,,9" xlink:title="吉川歯科医院" transform="ref(svg,13070.3093,-3364.2464)" x="0" y="0"/>
<use xlink:href="#p0" content="3,岸田歯科医院,福岡県飯塚市西町２-１８,歯科,,,9" xlink:title="岸田歯科医院" transform="ref(svg,13068.1431,-3363.8901)" x="0" y="0"/>
<use xlink:href="#p0" content="3,城戸歯科医院,福岡県飯塚市南尾４０３-１,歯科,,,9" xlink:title="城戸歯科医院" transform="ref(svg,13068.1513,-3361.7748)" x="0" y="0"/>
<use xlink:href="#p0" content="3,倉員歯科医院,福岡県飯塚市新飯塚８-１２,歯科,,,9" xlink:title="倉員歯科医院" transform="ref(svg,13069.3035,-3364.2819)" x="0" y="0"/>
<use xlink:href="#p0" content="3,くわはら歯科医院,福岡県飯塚市目尾３７７,歯科,,,9" xlink:title="くわはら歯科医院" transform="ref(svg,13069.858,-3367.1143)" x="0" y="0"/>
<use xlink:href="#p0" content="3,こもだ歯科医院,福岡県飯塚市菰田西３-３-９,歯科　小児歯科,,,9" xlink:title="こもだ歯科医院" transform="ref(svg,13068.7276,-3363.1445)" x="0" y="0"/>
<use xlink:href="#p0" content="3,合屋歯科医院,福岡県飯塚市片島２-２-１７,歯科　小児歯科　歯科口腔外科,,,9" xlink:title="合屋歯科医院" transform="ref(svg,13068.4921,-3364.5041)" x="0" y="0"/>
<use xlink:href="#p0" content="3,さくら歯科,福岡県飯塚市横田３３-３,歯科　小児歯科,,,9" xlink:title="さくら歯科" transform="ref(svg,13067.3675,-3364.4483)" x="0" y="0"/>
<use xlink:href="#p0" content="3,迫田歯科医院,福岡県飯塚市潤野５７-７,歯科　矯正歯科　小児歯科,,,9" xlink:title="迫田歯科医院" transform="ref(svg,13066.0529,-3363.089)" x="0" y="0"/>
<use xlink:href="#p0" content="3,佐野歯科クリニック,福岡県飯塚市中３２１-１,歯科,,,9" xlink:title="佐野歯科クリニック" transform="ref(svg,13068.2498,-3366.8403)" x="0" y="0"/>
<use xlink:href="#p0" content="3,佐藤歯科医院,福岡県飯塚市潤野８-１８,歯科　小児歯科,,,9" xlink:title="佐藤歯科医院" transform="ref(svg,13066.7174,-3363.457)" x="0" y="0"/>
<use xlink:href="#p0" content="3,シバタ歯科クリニック,福岡県飯塚市本町５-１３,歯科　小児歯科,,,9" xlink:title="シバタ歯科クリニック" transform="ref(svg,13068.6577,-3363.884)" x="0" y="0"/>
<use xlink:href="#p0" content="3,柴田純歯科診療所,福岡県飯塚市宮町１-４朝倉ビル,歯科,,,9" xlink:title="柴田純歯科診療所" transform="ref(svg,13068.4623,-3364.0687)" x="0" y="0"/>
<use xlink:href="#p0" content="3,柴田ゆうじ歯科医院,福岡県飯塚市横田３３４-４,歯科　矯正歯科　小児歯科,,,9" xlink:title="柴田ゆうじ歯科医院" transform="ref(svg,13067.3663,-3364.1502)" x="0" y="0"/>
<use xlink:href="#p0" content="3,しもみお歯科医院,福岡県飯塚市下三緒１０-１０,歯科　小児歯科,,,9" xlink:title="しもみお歯科医院" transform="ref(svg,13070.8759,-3362.9808)" x="0" y="0"/>
<use xlink:href="#p0" content="3,白水歯科医院,福岡県飯塚市小正１２４-６,歯科　小児歯科,,,9" xlink:title="白水歯科医院" transform="ref(svg,13066.3362,-3362.696)" x="0" y="0"/>
<use xlink:href="#p0" content="3,新飯塚いとう歯科クリニック,福岡県飯塚市立岩９３１-１,歯科　小児歯科　矯正歯科　歯科口腔外科,,,9" xlink:title="新飯塚いとう歯科クリニック" transform="ref(svg,13069.3953,-3364.3857)" x="0" y="0"/>
<use xlink:href="#p0" content="3,首藤歯科医院,福岡県飯塚市幸袋２１８-９,歯科　矯正歯科　小児歯科,,,9" xlink:title="首藤歯科医院" transform="ref(svg,13068.3864,-3366.0167)" x="0" y="0"/>
<use xlink:href="#p0" content="3,ＪＩＮ　ＤＥＮＴＡＬ　ＣＬＩＮＩＣ,福岡県飯塚市弁分１６２-１,歯科　小児歯科,,,9" xlink:title="ＪＩＮ　ＤＥＮＴＡＬ　ＣＬＩＮＩＣ" transform="ref(svg,13066.7142,-3362.3573)" x="0" y="0"/>
<use xlink:href="#p0" content="3,（医）済盟会新飯塚歯科医院,福岡県飯塚市新飯塚１３-２７,歯科,,,9" xlink:title="（医）済盟会新飯塚歯科医院" transform="ref(svg,13069.1809,-3364.4886)" x="0" y="0"/>
<use xlink:href="#p0" content="3,スマイル歯科医院,福岡県飯塚市堀池４４７-１,歯科　矯正歯科　小児歯科,,,9" xlink:title="スマイル歯科医院" transform="ref(svg,13068.0857,-3362.3932)" x="0" y="0"/>
<use xlink:href="#p0" content="3,タカノ歯科医院,福岡県飯塚市枝国４６４-２７,歯科　小児歯科,,,9" xlink:title="タカノ歯科医院" transform="ref(svg,13067.2483,-3363.5637)" x="0" y="0"/>
<use xlink:href="#p0" content="3,たけだ歯科,福岡県飯塚市赤坂４８８-１,歯科,,,9" xlink:title="たけだ歯科" transform="ref(svg,13073.5516,-3362.1474)" x="0" y="0"/>
<use xlink:href="#p0" content="3,田中歯科医院,福岡県飯塚市鯰田５６７-１,歯科,,,9" xlink:title="田中歯科医院" transform="ref(svg,13070.6426,-3366.8022)" x="0" y="0"/>
<use xlink:href="#p0" content="3,たなか歯科医院,福岡県飯塚市西町１-７,歯科,,,9" xlink:title="たなか歯科医院" transform="ref(svg,13068.2241,-3364.0223)" x="0" y="0"/>
<use xlink:href="#p0" content="3,田中陽一歯科医院,福岡県飯塚市弁分１３７-８,歯科,,,9" xlink:title="田中陽一歯科医院" transform="ref(svg,13066.5342,-3362.1137)" x="0" y="0"/>
<use xlink:href="#p0" content="3,津川歯科医院,福岡県飯塚市相田９１-１,歯科,,,9" xlink:title="津川歯科医院" transform="ref(svg,13066.144,-3365.5422)" x="0" y="0"/>
<use xlink:href="#p0" content="3,時枝歯科医院,福岡県飯塚市立岩１３４０-２,歯科　小児歯科,,,9" xlink:title="時枝歯科医院" transform="ref(svg,13069.4605,-3364.7349)" x="0" y="0"/>
<use xlink:href="#p0" content="3,なかはら歯科医院,福岡県飯塚市口原３３４-７,歯科,,,9" xlink:title="なかはら歯科医院" transform="ref(svg,13072.1032,-3368.4912)" x="0" y="0"/>
<use xlink:href="#p0" content="3,中村歯科医院,福岡県飯塚市立岩９１８-１,歯科,,,9" xlink:title="中村歯科医院" transform="ref(svg,13069.3187,-3364.6004)" x="0" y="0"/>
<use xlink:href="#p0" content="3,中村しげお歯科医院,福岡県飯塚市弁分６１１-５０,歯科　小児歯科,,,9" xlink:title="中村しげお歯科医院" transform="ref(svg,13065.1634,-3362.0485)" x="0" y="0"/>
<use xlink:href="#p0" content="3,奈田歯科医院,福岡県飯塚市柏の森５２０-２,歯科　矯正歯科　小児歯科,,,9" xlink:title="奈田歯科医院" transform="ref(svg,13069.7973,-3364.0283)" x="0" y="0"/>
<use xlink:href="#p0" content="3,（医）西歯科クリニック,福岡県飯塚市秋松９２２-１,歯科　小児歯科,,,9" xlink:title="（医）西歯科クリニック" transform="ref(svg,13067.1681,-3362.0174)" x="0" y="0"/>
<use xlink:href="#p0" content="3,にしもと歯科医院,福岡県飯塚市伊岐須６３６-５,歯科　小児歯科,,,9" xlink:title="にしもと歯科医院" transform="ref(svg,13065.6629,-3365.157)" x="0" y="0"/>
<use xlink:href="#p0" content="3,野見山歯科医院,福岡県飯塚市吉原町１１-３,歯科,,,9" xlink:title="野見山歯科医院" transform="ref(svg,13068.6184,-3364.0791)" x="0" y="0"/>
<use xlink:href="#p0" content="3,ハート歯科クリニックいまい,福岡県飯塚市鯰田２５１７-１０１,歯科　矯正歯科　小児歯科　歯科口腔外科,,,9" xlink:title="ハート歯科クリニックいまい" transform="ref(svg,13070.3144,-3365.2975)" x="0" y="0"/>
<use xlink:href="#p0" content="3,（医）正純会花野歯科医院,福岡県飯塚市伊岐須３０３-１,歯科　矯正歯科　小児歯科,,,9" xlink:title="（医）正純会花野歯科医院" transform="ref(svg,13066.4516,-3365.2592)" x="0" y="0"/>
<use xlink:href="#p0" content="3,はなむら歯科医院,福岡県飯塚市吉原町７-２２セイユウビル１Ｆ,歯科　矯正歯科　小児歯科,,,9" xlink:title="はなむら歯科医院" transform="ref(svg,13068.6917,-3364.0488)" x="0" y="0"/>
<use xlink:href="#p0" content="3,はまさき矯正歯科医院,福岡県飯塚市吉原町６-１アイタウン４Ｆ,歯科　矯正歯科　小児歯科　歯科口腔外科,,,9" xlink:title="はまさき矯正歯科医院" transform="ref(svg,13068.645,-3364.1588)" x="0" y="0"/>
<use xlink:href="#p0" content="3,はやしだ歯科医院,福岡県飯塚市堀池１５３-２三好ビル１０１,歯科,,,9" xlink:title="はやしだ歯科医院" transform="ref(svg,13068.2796,-3362.8656)" x="0" y="0"/>
<use xlink:href="#p0" content="3,はら歯科医院,福岡県飯塚市伊岐須２９６,歯科,,,9" xlink:title="はら歯科医院" transform="ref(svg,13066.5579,-3365.2304)" x="0" y="0"/>
<use xlink:href="#p0" content="3,はやま歯科医院,福岡県飯塚市川津３７０-４,歯科,,,9" xlink:title="はやま歯科医院" transform="ref(svg,13067.7356,-3364.7879)" x="0" y="0"/>
<use xlink:href="#p0" content="3,ひぐちファミリー歯科,福岡県飯塚市幸袋１４０-１,歯科　矯正歯科　小児歯科　歯科口腔外科,,,9" xlink:title="ひぐちファミリー歯科" transform="ref(svg,13068.4345,-3366.2836)" x="0" y="0"/>
<use xlink:href="#p0" content="3,ヒロ歯科クリニック,福岡県飯塚市柏の森６３４-３１,歯科,,,9" xlink:title="ヒロ歯科クリニック" transform="ref(svg,13069.5845,-3364.047)" x="0" y="0"/>
<use xlink:href="#p0" content="3,ひだまりの歯科クリニック,福岡県飯塚市新飯塚４-２５,歯科　矯正歯科　小児歯科　歯科口腔外科,,,9" xlink:title="ひだまりの歯科クリニック" transform="ref(svg,13069.2992,-3364.5188)" x="0" y="0"/>
<use xlink:href="#p0" content="3,藤田歯科医院,福岡県飯塚市綱分７４０-７,歯科,,,9" xlink:title="藤田歯科医院" transform="ref(svg,13072.9718,-3364.0391)" x="0" y="0"/>
<use xlink:href="#p0" content="3,渕上歯科医院,福岡県飯塚市片島１-２-１９,歯科,,,9" xlink:title="渕上歯科医院" transform="ref(svg,13068.3697,-3364.4269)" x="0" y="0"/>
<use xlink:href="#p0" content="3,ぶん歯科クリニック,福岡県飯塚市徳前１８-４,歯科　小児歯科,,,9" xlink:title="ぶん歯科クリニック" transform="ref(svg,13068.244,-3363.0981)" x="0" y="0"/>
<use xlink:href="#p0" content="3,ぶんの歯科医院,福岡県飯塚市平塚８７-１,歯科,,,9" xlink:title="ぶんの歯科医院" transform="ref(svg,13066.519,-3358.0588)" x="0" y="0"/>
<use xlink:href="#p0" content="3,（医）宝歯会穂波ひまわり歯科医院,福岡県飯塚市枝国６６６-４,歯科　矯正歯科　小児歯科　歯科口腔外科,,,9" xlink:title="（医）宝歯会穂波ひまわり歯科医院" transform="ref(svg,13067.4205,-3363.6392)" x="0" y="0"/>
<use xlink:href="#p0" content="3,ほわいと歯科,福岡県飯塚市口原３４９-１１,歯科　矯正歯科　小児歯科　歯科口腔外科,,,9" xlink:title="ほわいと歯科" transform="ref(svg,13071.8317,-3368.4059)" x="0" y="0"/>
<use xlink:href="#p0" content="3,松本歯科医院,福岡県飯塚市菰田西２-７-２８,歯科　小児歯科,,,9" xlink:title="松本歯科医院" transform="ref(svg,13068.8916,-3363.0509)" x="0" y="0"/>
<use xlink:href="#p0" content="3,丸林歯科医院,福岡県飯塚市花瀬１７２-８,歯科,,,9" xlink:title="丸林歯科医院" transform="ref(svg,13065.7917,-3364.271)" x="0" y="0"/>
<use xlink:href="#p0" content="3,みかも歯科医院,福岡県飯塚市有井３３４-１２,歯科　矯正歯科　小児歯科,,,9" xlink:title="みかも歯科医院" transform="ref(svg,13072.0852,-3364.6528)" x="0" y="0"/>
<use xlink:href="#p0" content="3,嶺歯科診療所,福岡県飯塚市吉原町１１-１２,歯科　矯正歯科　小児歯科,,,9" xlink:title="嶺歯科診療所" transform="ref(svg,13068.6474,-3364.0434)" x="0" y="0"/>
<use xlink:href="#p0" content="3,宮-ｱ歯科医院,福岡県飯塚市横田８４４-４,歯科,,,9" xlink:title="宮-ｱ歯科医院" transform="ref(svg,13066.7779,-3365.1234)" x="0" y="0"/>
<use xlink:href="#p0" content="3,三原歯科医院,福岡県飯塚市大分１４９３-１２０,歯科,,,9" xlink:title="三原歯科医院" transform="ref(svg,13062.9246,-3358.75)" x="0" y="0"/>
<use xlink:href="#p0" content="3,村山歯科医院,福岡県飯塚市赤坂４９８-１,歯科　小児歯科,,,9" xlink:title="村山歯科医院" transform="ref(svg,13073.6705,-3362.1099)" x="0" y="0"/>
<use xlink:href="#p0" content="3,山口歯科医院,福岡県飯塚市本町１３-８飯塚ショッピング信販ビル２Ｆ,歯科　矯正歯科,,,9" xlink:title="山口歯科医院" transform="ref(svg,13068.4523,-3363.7459)" x="0" y="0"/>
<use xlink:href="#p0" content="3,やまちか歯科医院,福岡県飯塚市相田２５９-１３７,歯科　歯科口腔外科,,,9" xlink:title="やまちか歯科医院" transform="ref(svg,13066.0894,-3365.6587)" x="0" y="0"/>
<use xlink:href="#p0" content="3,山本歯科医院,福岡県飯塚市鯰田１３８１-１,歯科　小児歯科,,,9" xlink:title="山本歯科医院" transform="ref(svg,13070.5289,-3366.733)" x="0" y="0"/>
<use xlink:href="#p0" content="3,山本歯科医院,福岡県飯塚市菰田西２-９-２２,歯科　小児歯科,,,9" xlink:title="山本歯科医院" transform="ref(svg,13068.6979,-3363.0936)" x="0" y="0"/>
<use xlink:href="#p0" content="3,山本歯科医院,福岡県飯塚市大分１１５２-１,歯科　矯正歯科　小児歯科,,,9" xlink:title="山本歯科医院" transform="ref(svg,13063.1896,-3358.2581)" x="0" y="0"/>
<use xlink:href="#p0" content="3,（医）横手歯科診療所,福岡県飯塚市鯰田２３９６-１,歯科　小児歯科,,,9" xlink:title="（医）横手歯科診療所" transform="ref(svg,13069.8808,-3365.7006)" x="0" y="0"/>
<use xlink:href="#p0" content="3,吉原歯科医院,福岡県飯塚市飯塚４-１７,歯科,,,9" xlink:title="吉原歯科医院" transform="ref(svg,13068.654,-3363.7222)" x="0" y="0"/>
<use xlink:href="#p0" content="3,吉原町歯科,福岡県飯塚市吉原町１１-１４,歯科,,,9" xlink:title="吉原町歯科" transform="ref(svg,13068.6506,-3364.0361)" x="0" y="0"/>
<use xlink:href="#p0" content="3,渡辺歯科医院,福岡県飯塚市平恒１８６-１,歯科,,,9" xlink:title="渡辺歯科医院" transform="ref(svg,13068.6479,-3361.0615)" x="0" y="0"/>
<use xlink:href="#p0" content="3,有吉歯科医院,福岡県嘉麻市鴨生１７,歯科　小児歯科,,,9" xlink:title="有吉歯科医院" transform="ref(svg,13073.3822,-3360.3406)" x="0" y="0"/>
<use xlink:href="#p0" content="3,いしざき歯科医院,福岡県嘉麻市岩崎１４８６-２,歯科　矯正歯科　小児歯科　歯科口腔外科,,,9" xlink:title="いしざき歯科医院" transform="ref(svg,13071.8506,-3359.5382)" x="0" y="0"/>
<use xlink:href="#p0" content="3,大塚歯科医院,福岡県嘉麻市口春２４３-１９,歯科,,,9" xlink:title="大塚歯科医院" transform="ref(svg,13071.369,-3361.0914)" x="0" y="0"/>
<use xlink:href="#p0" content="3,ごとう歯科医院,福岡県嘉麻市下臼井１０７１-９,歯科　矯正歯科　小児歯科,,,9" xlink:title="ごとう歯科医院" transform="ref(svg,13070.0204,-3357.4623)" x="0" y="0"/>
<use xlink:href="#p0" content="3,佐々木歯科医院,福岡県嘉麻市岩崎１０９７,歯科　小児歯科　矯正歯科,,,9" xlink:title="佐々木歯科医院" transform="ref(svg,13071.7973,-3359.9714)" x="0" y="0"/>
<use xlink:href="#p0" content="3,てしま歯科クリニック,福岡県嘉麻市平１４３３-１,歯科　矯正歯科　小児歯科　歯科口腔外科,,,9" xlink:title="てしま歯科クリニック" transform="ref(svg,13073.5904,-3360.1591)" x="0" y="0"/>
<use xlink:href="#p0" content="3,（医）良淳会西川歯科医院,福岡県嘉麻市鴨生４８５-８,歯科,,,9" xlink:title="（医）良淳会西川歯科医院" transform="ref(svg,13072.369,-3360.6988)" x="0" y="0"/>
<use xlink:href="#p0" content="3,ひらデンタルクリニック,福岡県嘉麻市平８４５,歯科　小児歯科,,,9" xlink:title="ひらデンタルクリニック" transform="ref(svg,13073.4114,-3359.2102)" x="0" y="0"/>
<use xlink:href="#p0" content="3,（医）博文会ひらの歯科医院,福岡県嘉麻市鴨生５９４,歯科　矯正歯科　小児歯科　歯科口腔外科,,,9" xlink:title="（医）博文会ひらの歯科医院" transform="ref(svg,13072.7196,-3360.7438)" x="0" y="0"/>
<use xlink:href="#p0" content="3,福丸歯科クリニック,福岡県嘉麻市山野３２５-１,歯科　小児歯科,,,9" xlink:title="福丸歯科クリニック" transform="ref(svg,13071.3112,-3361.2999)" x="0" y="0"/>
<use xlink:href="#p0" content="3,（医）さんご会ふじい歯科医院,福岡県嘉麻市岩崎８８５-１,歯科　小児歯科,,,9" xlink:title="（医）さんご会ふじい歯科医院" transform="ref(svg,13072.209,-3360.3667)" x="0" y="0"/>
<use xlink:href="#p0" content="3,松原歯科医院,福岡県嘉麻市漆生１５７６,歯科　小児歯科,,,9" xlink:title="松原歯科医院" transform="ref(svg,13071.9233,-3358.9989)" x="0" y="0"/>
<use xlink:href="#p0" content="3,猪俣歯科医院,福岡県嘉穂郡桂川町大字土師字西桂原３４９８-３,歯科　矯正歯科　小児歯科　歯科口腔外科,,,9" xlink:title="猪俣歯科医院" transform="ref(svg,13067.9011,-3357.6082)" x="0" y="0"/>
<use xlink:href="#p0" content="3,大塚歯科医院,福岡県嘉穂郡桂川町豆田１２６-２,歯科,,,9" xlink:title="大塚歯科医院" transform="ref(svg,13066.2831,-3358.5902)" x="0" y="0"/>
<use xlink:href="#p0" content="3,川波歯科医院,福岡県嘉穂郡桂川町土居３９０-２,歯科,,,9" xlink:title="川波歯科医院" transform="ref(svg,13067.8578,-3358.2261)" x="0" y="0"/>
<use xlink:href="#p0" content="3,桂川歯科医院,福岡県嘉穂郡桂川町土居８７７,歯科　小児歯科,,,9" xlink:title="桂川歯科医院" transform="ref(svg,13067.3441,-3358.9307)" x="0" y="0"/>
<use xlink:href="#p0" content="3,あらまき歯科医院,福岡県直方市古町６-１６,歯科　小児歯科,,,9" xlink:title="あらまき歯科医院" transform="ref(svg,13072.7657,-3374.7547)" x="0" y="0"/>
<use xlink:href="#p0" content="3,宇野歯科医院,福岡県直方市下境４４４,歯科,,,9" xlink:title="宇野歯科医院" transform="ref(svg,13075.0931,-3372.8925)" x="0" y="0"/>
<use xlink:href="#p0" content="3,河野歯科医院,福岡県直方市津田町２-１９,歯科　小児歯科　矯正歯科　歯科口腔外科,,,9" xlink:title="河野歯科医院" transform="ref(svg,13072.9585,-3374.9131)" x="0" y="0"/>
<use xlink:href="#p0" content="3,川-ｱ歯科口腔医院,福岡県直方市頓野３８０２-１,歯科　小児歯科　矯正歯科　歯科口腔外科,,,9" xlink:title="川-ｱ歯科口腔医院" transform="ref(svg,13073.6643,-3374.8844)" x="0" y="0"/>
<use xlink:href="#p0" content="3,行實歯科医院,福岡県直方市下境４１２３-７,歯科,,,9" xlink:title="行實歯科医院" transform="ref(svg,13073.3531,-3372.8737)" x="0" y="0"/>
<use xlink:href="#p0" content="3,くりはら歯科クリニック,福岡県直方市古町１７-２９,歯科　小児歯科　歯科口腔外科,,,9" xlink:title="くりはら歯科クリニック" transform="ref(svg,13072.5991,-3374.7393)" x="0" y="0"/>
<use xlink:href="#p0" content="3,白土歯科医院,福岡県直方市古町７-３０,歯科　矯正歯科　小児歯科　歯科口腔外科,,,9" xlink:title="白土歯科医院" transform="ref(svg,13072.7024,-3374.8202)" x="0" y="0"/>
<use xlink:href="#p0" content="3,千手歯科医院,福岡県直方市古町１１-９,歯科　小児歯科　歯科口腔外科,,,9" xlink:title="千手歯科医院" transform="ref(svg,13072.7264,-3374.6446)" x="0" y="0"/>
<use xlink:href="#p0" content="3,武田きょうすけ歯科医院,福岡県直方市古町８-１０,歯科　小児歯科,,,9" xlink:title="武田きょうすけ歯科医院" transform="ref(svg,13072.8638,-3374.6964)" x="0" y="0"/>
<use xlink:href="#p0" content="3,筑豊口腔保健センター歯科診療所,福岡県直方市山部７５９-１,歯科　小児歯科,,,9" xlink:title="筑豊口腔保健センター歯科診療所" transform="ref(svg,13071.8575,-3374.427)" x="0" y="0"/>
<use xlink:href="#p0" content="3,頓野フレンド歯科,福岡県直方市頓野３２２５-６,歯科　小児歯科　矯正歯科,,,9" xlink:title="頓野フレンド歯科" transform="ref(svg,13074.0373,-3373.9501)" x="0" y="0"/>
<use xlink:href="#p0" content="3,（医）ナカゾノ歯科医院,福岡県直方市大字頓野２１０４-２４,歯科　小児歯科,,,9" xlink:title="（医）ナカゾノ歯科医院" transform="ref(svg,13074.8964,-3374.7739)" x="0" y="0"/>
<use xlink:href="#p0" content="3,西岡歯科医院,福岡県直方市殿町１６-４８,歯科　小児歯科,,,9" xlink:title="西岡歯科医院" transform="ref(svg,13072.6426,-3374.4697)" x="0" y="0"/>
<use xlink:href="#p0" content="3,藤田歯科医院,福岡県直方市新町２-６-３６,歯科　小児歯科　矯正歯科　歯科口腔外科,,,9" xlink:title="藤田歯科医院" transform="ref(svg,13072.6346,-3373.8495)" x="0" y="0"/>
<use xlink:href="#p0" content="3,まつき歯科医院,福岡県直方市津田町８-２４,歯科　歯科口腔外科　矯正歯科　小児歯科,,,9" xlink:title="まつき歯科医院" transform="ref(svg,13072.9181,-3374.6405)" x="0" y="0"/>
<use xlink:href="#p0" content="3,みずま歯科医院,福岡県直方市溝堀３-６-２９,歯科　小児歯科,,,9" xlink:title="みずま歯科医院" transform="ref(svg,13073.0731,-3373.3777)" x="0" y="0"/>
<use xlink:href="#p0" content="3,ライフデンタルクリニック,福岡県直方市大字下境２５８６-１,歯科　小児歯科,,,9" xlink:title="ライフデンタルクリニック" transform="ref(svg,13073.9221,-3373.9871)" x="0" y="0"/>
<use xlink:href="#p0" content="3,青木歯科医院,福岡県宮若市宮田４８１１,歯科,,,9" xlink:title="青木歯科医院" transform="ref(svg,13066.4988,-3372.5622)" x="0" y="0"/>
<use xlink:href="#p0" content="3,えとう歯科クリニック,福岡県宮若市本城１１３２-１,歯科　矯正歯科　小児歯科　歯科口腔外科,,,9" xlink:title="えとう歯科クリニック" transform="ref(svg,13067.8367,-3373.1639)" x="0" y="0"/>
<use xlink:href="#p0" content="3,大曲歯科医院,福岡県宮若市竹原３３９-１,歯科　小児歯科　矯正歯科　歯科口腔外科　小児矯正歯科,,,9" xlink:title="大曲歯科医院" transform="ref(svg,13061.9824,-3372.8411)" x="0" y="0"/>
<use xlink:href="#p0" content="3,鴨川歯科医院,福岡県宮若市磯光１３７８,歯科,,,9" xlink:title="鴨川歯科医院" transform="ref(svg,13068.4697,-3371.0738)" x="0" y="0"/>
<use xlink:href="#p0" content="3,上鶴歯科医院,福岡県宮若市福丸２５０,歯科　小児歯科　矯正歯科,,,9" xlink:title="上鶴歯科医院" transform="ref(svg,13062.7374,-3373.0905)" x="0" y="0"/>
<use xlink:href="#p0" content="3,（医）久信会佐野歯科医院,福岡県宮若市磯光６７３,歯科　小児歯科　歯科口腔外科,,,9" xlink:title="（医）久信会佐野歯科医院" transform="ref(svg,13068.6114,-3371.8284)" x="0" y="0"/>
<use xlink:href="#p0" content="3,きむら歯科医院,福岡県宮若市大字本城４３６,歯科,,,9" xlink:title="きむら歯科医院" transform="ref(svg,13067.0513,-3372.6368)" x="0" y="0"/>
<use xlink:href="#p0" content="3,佐々木歯科医院,福岡県宮若市宮田６４-９,歯科　小児歯科　矯正歯科　歯科口腔外科,,,9" xlink:title="佐々木歯科医院" transform="ref(svg,13066.6173,-3372.2618)" x="0" y="0"/>
<use xlink:href="#p0" content="3,塩川歯科医院,福岡県宮若市長井鶴２３５,歯科,,,9" xlink:title="塩川歯科医院" transform="ref(svg,13065.4786,-3372.9563)" x="0" y="0"/>
<use xlink:href="#p0" content="3,武田歯科医院,福岡県宮若市宮田２２５-２,歯科,,,9" xlink:title="武田歯科医院" transform="ref(svg,13066.5943,-3372.0233)" x="0" y="0"/>
<use xlink:href="#p0" content="3,ともなが歯科,福岡県宮若市龍徳１１２４-４,歯科　小児歯科　歯科口腔外科,,,9" xlink:title="ともなが歯科" transform="ref(svg,13068.5128,-3373.2231)" x="0" y="0"/>
<use xlink:href="#p0" content="3,橋本歯科医院,福岡県宮若市大字本城５４１-１,歯科　小児歯科　矯正歯科　歯科口腔外科,,,9" xlink:title="橋本歯科医院" transform="ref(svg,13067.001,-3372.7434)" x="0" y="0"/>
<use xlink:href="#p0" content="3,長谷川淳歯科医院,福岡県宮若市宮田５３-７,歯科　小児歯科　矯正歯科,,,9" xlink:title="長谷川淳歯科医院" transform="ref(svg,13066.5372,-3372.4231)" x="0" y="0"/>
<use xlink:href="#p0" content="3,峯歯科医院,福岡県宮若市福丸１７５-７,歯科,,,9" xlink:title="峯歯科医院" transform="ref(svg,13062.6699,-3372.8286)" x="0" y="0"/>
<use xlink:href="#p0" content="3,やまもと歯科クリニック,福岡県宮若市本城６７８-４,歯科　小児歯科　矯正歯科　歯科口腔外科,,,9" xlink:title="やまもと歯科クリニック" transform="ref(svg,13067.571,-3373.155)" x="0" y="0"/>
<use xlink:href="#p0" content="3,吉成歯科医院,福岡県宮若市福丸３８６-１,歯科　小児歯科　矯正歯科　歯科口腔外科,,,9" xlink:title="吉成歯科医院" transform="ref(svg,13062.3259,-3372.8677)" x="0" y="0"/>
<use xlink:href="#p0" content="3,古賀歯科医院,福岡県鞍手郡小竹町新多２１-１４,歯科　小児歯科　矯正歯科,,,9" xlink:title="古賀歯科医院" transform="ref(svg,13069.7115,-3369.5005)" x="0" y="0"/>
<use xlink:href="#p0" content="3,野田歯科医院,福岡県鞍手郡小竹町大字勝野４０６１-１,歯科　小児歯科　矯正歯科,,,9" xlink:title="野田歯科医院" transform="ref(svg,13070.76,-3368.5042)" x="0" y="0"/>
<use xlink:href="#p0" content="3,原田歯科医院,福岡県鞍手郡小竹町大字勝野３７６５-５,歯科　矯正歯科,,,9" xlink:title="原田歯科医院" transform="ref(svg,13071.2902,-3368.9346)" x="0" y="0"/>
<use xlink:href="#p0" content="3,福田歯科医院,福岡県鞍手郡小竹町御徳字鴻ノ巣１９７２,歯科　小児歯科,,,9" xlink:title="福田歯科医院" transform="ref(svg,13071.3102,-3371.8873)" x="0" y="0"/>
<use xlink:href="#p0" content="3,やはら歯科医院,福岡県鞍手郡小竹町勝野３３１８,歯科　小児歯科,,,9" xlink:title="やはら歯科医院" transform="ref(svg,13071.0642,-3369.1628)" x="0" y="0"/>
<use xlink:href="#p0" content="3,みずき歯科医院,福岡県田川市弓削田１１３９,歯科,,,9" xlink:title="みずき歯科医院" transform="ref(svg,13077.7139,-3363.4021)" x="0" y="0"/>
<use xlink:href="#p0" content="3,諫山歯科医院,福岡県田川郡糸田町４０９８-１,歯科,,,9" xlink:title="諫山歯科医院" transform="ref(svg,13078.079,-3367.2311)" x="0" y="0"/>
<use xlink:href="#p0" content="3,むらしろ歯科医院,福岡県田川郡糸田町中糸田３１２２-２,歯科　小児歯科　歯科口腔外科,,,9" xlink:title="むらしろ歯科医院" transform="ref(svg,13077.9747,-3365.854)" x="0" y="0"/>
<use xlink:href="#p0" content="3,さくら歯科,福岡県田川郡福智町金田９３４-８,歯科　小児歯科　矯正歯科　歯科口腔外科,,,9" xlink:title="さくら歯科" transform="ref(svg,13077.9619,-3368.2598)" x="0" y="0"/>
<use xlink:href="#p0" content="3,田中歯科医院,福岡県田川郡福智町赤池９３１-４,歯科　小児歯科　矯正歯科　歯科口腔外科,,,9" xlink:title="田中歯科医院" transform="ref(svg,13076.6493,-3369.5494)" x="0" y="0"/>
<use xlink:href="#p0" content="3,永末歯科医院,福岡県田川郡福智町金田８４１-１１,歯科,,,9" xlink:title="永末歯科医院" transform="ref(svg,13077.7398,-3367.8622)" x="0" y="0"/>
<use xlink:href="#p0" content="3,（医）正和会ひまわり歯科,福岡県田川郡福智町赤池９２７-６,歯科　小児歯科　矯正歯科　歯科口腔外科,,,9" xlink:title="（医）正和会ひまわり歯科" transform="ref(svg,13076.7236,-3369.6305)" x="0" y="0"/>
<use xlink:href="#p0" content="3,（医）ひいらぎ会福智歯科医院,福岡県田川郡福智町金田９２１-１６,歯科　小児歯科　矯正歯科　歯科口腔外科,,,9" xlink:title="（医）ひいらぎ会福智歯科医院" transform="ref(svg,13077.9338,-3368.2063)" x="0" y="0"/>
</g>
</svg>
