<?xml version="1.0" encoding="UTF-8"?>
<svg  xmlns="http://www.w3.org/2000/svg" xmlns:xlink="http://www.w3.org/1999/xlink" xmlns:go="http://purl.org/svgmap/profile" viewBox="12374.693694 -4552.224923 2206.5089170000006 2126.3241730000004" go:dataArea="12374.693694 -4552.224923 2206.5089170000006 2126.3241730000004" >
<metadata>
 <rdf:RDF xmlns:rdf="http://www.w3.org/1999/02/22-rdf-syntax-ns#" xmlns:crs="http://opengis.org/xmldtds/transformations.dtd" xmlns:svg="http://www.w3.org/svg" >
  <rdf:Description>
   <crs:CoordinateReferenceSystem rdf:resource="http://purl.org/crs/84" svg:transform="matrix(100.0,0.0,0.0,-100.0,0.0,0.0)" />
  </rdf:Description>
 </rdf:RDF>
</metadata>
<globalCoordinateSystem srsName="http://purl.org/crs/84" transform="matrix(100.0,0.0,0.0,-100.0,0.0,0.0)" />
<g >
<image xlink:href="tile160_151.png" preserveAspectRatio="none" x="14062.5" y="-4095.703125" width="17.578125" height="17.578125"/>
<image xlink:href="tile160_150.png" preserveAspectRatio="none" x="14062.5" y="-4113.28125" width="17.578125" height="17.578125"/>
<image xlink:href="tile160_146.png" preserveAspectRatio="none" x="14062.5" y="-4183.59375" width="17.578125" height="17.578125"/>
<image xlink:href="tile160_145.png" preserveAspectRatio="none" x="14062.5" y="-4201.171875" width="17.578125" height="17.578125"/>
<image xlink:href="tile160_144.png" preserveAspectRatio="none" x="14062.5" y="-4218.75" width="17.578125" height="17.578125"/>
<image xlink:href="tile161_151.png" preserveAspectRatio="none" x="14080.078125" y="-4095.703125" width="17.578125" height="17.578125"/>
<image xlink:href="tile161_150.png" preserveAspectRatio="none" x="14080.078125" y="-4113.28125" width="17.578125" height="17.578125"/>
<image xlink:href="tile161_147.png" preserveAspectRatio="none" x="14080.078125" y="-4166.015625" width="17.578125" height="17.578125"/>
<image xlink:href="tile161_146.png" preserveAspectRatio="none" x="14080.078125" y="-4183.59375" width="17.578125" height="17.578125"/>
<image xlink:href="tile161_145.png" preserveAspectRatio="none" x="14080.078125" y="-4201.171875" width="17.578125" height="17.578125"/>
<image xlink:href="tile161_144.png" preserveAspectRatio="none" x="14080.078125" y="-4218.75" width="17.578125" height="17.578125"/>
<image xlink:href="tile162_151.png" preserveAspectRatio="none" x="14097.65625" y="-4095.703125" width="17.578125" height="17.578125"/>
<image xlink:href="tile162_150.png" preserveAspectRatio="none" x="14097.65625" y="-4113.28125" width="17.578125" height="17.578125"/>
<image xlink:href="tile162_149.png" preserveAspectRatio="none" x="14097.65625" y="-4130.859375" width="17.578125" height="17.578125"/>
<image xlink:href="tile162_148.png" preserveAspectRatio="none" x="14097.65625" y="-4148.4375" width="17.578125" height="17.578125"/>
<image xlink:href="tile163_151.png" preserveAspectRatio="none" x="14115.234375" y="-4095.703125" width="17.578125" height="17.578125"/>
<image xlink:href="tile163_150.png" preserveAspectRatio="none" x="14115.234375" y="-4113.28125" width="17.578125" height="17.578125"/>
<image xlink:href="tile163_149.png" preserveAspectRatio="none" x="14115.234375" y="-4130.859375" width="17.578125" height="17.578125"/>
<image xlink:href="tile163_148.png" preserveAspectRatio="none" x="14115.234375" y="-4148.4375" width="17.578125" height="17.578125"/>
<image xlink:href="tile160_159.png" preserveAspectRatio="none" x="14062.5" y="-3955.078125" width="17.578125" height="17.578125"/>
<image xlink:href="tile160_158.png" preserveAspectRatio="none" x="14062.5" y="-3972.65625" width="17.578125" height="17.578125"/>
<image xlink:href="tile160_157.png" preserveAspectRatio="none" x="14062.5" y="-3990.234375" width="17.578125" height="17.578125"/>
<image xlink:href="tile160_156.png" preserveAspectRatio="none" x="14062.5" y="-4007.8125" width="17.578125" height="17.578125"/>
<image xlink:href="tile160_155.png" preserveAspectRatio="none" x="14062.5" y="-4025.390625" width="17.578125" height="17.578125"/>
<image xlink:href="tile160_154.png" preserveAspectRatio="none" x="14062.5" y="-4042.96875" width="17.578125" height="17.578125"/>
<image xlink:href="tile160_153.png" preserveAspectRatio="none" x="14062.5" y="-4060.546875" width="17.578125" height="17.578125"/>
<image xlink:href="tile160_152.png" preserveAspectRatio="none" x="14062.5" y="-4078.125" width="17.578125" height="17.578125"/>
<image xlink:href="tile161_159.png" preserveAspectRatio="none" x="14080.078125" y="-3955.078125" width="17.578125" height="17.578125"/>
<image xlink:href="tile161_158.png" preserveAspectRatio="none" x="14080.078125" y="-3972.65625" width="17.578125" height="17.578125"/>
<image xlink:href="tile161_157.png" preserveAspectRatio="none" x="14080.078125" y="-3990.234375" width="17.578125" height="17.578125"/>
<image xlink:href="tile161_156.png" preserveAspectRatio="none" x="14080.078125" y="-4007.8125" width="17.578125" height="17.578125"/>
<image xlink:href="tile161_155.png" preserveAspectRatio="none" x="14080.078125" y="-4025.390625" width="17.578125" height="17.578125"/>
<image xlink:href="tile161_154.png" preserveAspectRatio="none" x="14080.078125" y="-4042.96875" width="17.578125" height="17.578125"/>
<image xlink:href="tile161_153.png" preserveAspectRatio="none" x="14080.078125" y="-4060.546875" width="17.578125" height="17.578125"/>
<image xlink:href="tile161_152.png" preserveAspectRatio="none" x="14080.078125" y="-4078.125" width="17.578125" height="17.578125"/>
<image xlink:href="tile162_159.png" preserveAspectRatio="none" x="14097.65625" y="-3955.078125" width="17.578125" height="17.578125"/>
<image xlink:href="tile162_158.png" preserveAspectRatio="none" x="14097.65625" y="-3972.65625" width="17.578125" height="17.578125"/>
<image xlink:href="tile162_157.png" preserveAspectRatio="none" x="14097.65625" y="-3990.234375" width="17.578125" height="17.578125"/>
<image xlink:href="tile162_156.png" preserveAspectRatio="none" x="14097.65625" y="-4007.8125" width="17.578125" height="17.578125"/>
<image xlink:href="tile162_155.png" preserveAspectRatio="none" x="14097.65625" y="-4025.390625" width="17.578125" height="17.578125"/>
<image xlink:href="tile162_154.png" preserveAspectRatio="none" x="14097.65625" y="-4042.96875" width="17.578125" height="17.578125"/>
<image xlink:href="tile162_153.png" preserveAspectRatio="none" x="14097.65625" y="-4060.546875" width="17.578125" height="17.578125"/>
<image xlink:href="tile162_152.png" preserveAspectRatio="none" x="14097.65625" y="-4078.125" width="17.578125" height="17.578125"/>
<image xlink:href="tile163_159.png" preserveAspectRatio="none" x="14115.234375" y="-3955.078125" width="17.578125" height="17.578125"/>
<image xlink:href="tile163_158.png" preserveAspectRatio="none" x="14115.234375" y="-3972.65625" width="17.578125" height="17.578125"/>
<image xlink:href="tile163_157.png" preserveAspectRatio="none" x="14115.234375" y="-3990.234375" width="17.578125" height="17.578125"/>
<image xlink:href="tile163_156.png" preserveAspectRatio="none" x="14115.234375" y="-4007.8125" width="17.578125" height="17.578125"/>
<image xlink:href="tile163_155.png" preserveAspectRatio="none" x="14115.234375" y="-4025.390625" width="17.578125" height="17.578125"/>
<image xlink:href="tile163_154.png" preserveAspectRatio="none" x="14115.234375" y="-4042.96875" width="17.578125" height="17.578125"/>
<image xlink:href="tile163_153.png" preserveAspectRatio="none" x="14115.234375" y="-4060.546875" width="17.578125" height="17.578125"/>
<image xlink:href="tile163_152.png" preserveAspectRatio="none" x="14115.234375" y="-4078.125" width="17.578125" height="17.578125"/>
<image xlink:href="tile164_159.png" preserveAspectRatio="none" x="14132.8125" y="-3955.078125" width="17.578125" height="17.578125"/>
<image xlink:href="tile164_158.png" preserveAspectRatio="none" x="14132.8125" y="-3972.65625" width="17.578125" height="17.578125"/>
<image xlink:href="tile164_155.png" preserveAspectRatio="none" x="14132.8125" y="-4025.390625" width="17.578125" height="17.578125"/>
<image xlink:href="tile164_154.png" preserveAspectRatio="none" x="14132.8125" y="-4042.96875" width="17.578125" height="17.578125"/>
<image xlink:href="tile164_153.png" preserveAspectRatio="none" x="14132.8125" y="-4060.546875" width="17.578125" height="17.578125"/>
<image xlink:href="tile164_152.png" preserveAspectRatio="none" x="14132.8125" y="-4078.125" width="17.578125" height="17.578125"/>
<image xlink:href="tile165_159.png" preserveAspectRatio="none" x="14150.390625" y="-3955.078125" width="17.578125" height="17.578125"/>
<image xlink:href="tile165_158.png" preserveAspectRatio="none" x="14150.390625" y="-3972.65625" width="17.578125" height="17.578125"/>
<image xlink:href="tile165_155.png" preserveAspectRatio="none" x="14150.390625" y="-4025.390625" width="17.578125" height="17.578125"/>
<image xlink:href="tile165_154.png" preserveAspectRatio="none" x="14150.390625" y="-4042.96875" width="17.578125" height="17.578125"/>
<image xlink:href="tile165_153.png" preserveAspectRatio="none" x="14150.390625" y="-4060.546875" width="17.578125" height="17.578125"/>
<image xlink:href="tile166_159.png" preserveAspectRatio="none" x="14167.96875" y="-3955.078125" width="17.578125" height="17.578125"/>
<image xlink:href="tile166_158.png" preserveAspectRatio="none" x="14167.96875" y="-3972.65625" width="17.578125" height="17.578125"/>
<image xlink:href="tile166_157.png" preserveAspectRatio="none" x="14167.96875" y="-3990.234375" width="17.578125" height="17.578125"/>
<image xlink:href="tile166_156.png" preserveAspectRatio="none" x="14167.96875" y="-4007.8125" width="17.578125" height="17.578125"/>
<image xlink:href="tile166_155.png" preserveAspectRatio="none" x="14167.96875" y="-4025.390625" width="17.578125" height="17.578125"/>
<image xlink:href="tile166_154.png" preserveAspectRatio="none" x="14167.96875" y="-4042.96875" width="17.578125" height="17.578125"/>
<image xlink:href="tile167_159.png" preserveAspectRatio="none" x="14185.546875" y="-3955.078125" width="17.578125" height="17.578125"/>
<image xlink:href="tile167_158.png" preserveAspectRatio="none" x="14185.546875" y="-3972.65625" width="17.578125" height="17.578125"/>
<image xlink:href="tile167_157.png" preserveAspectRatio="none" x="14185.546875" y="-3990.234375" width="17.578125" height="17.578125"/>
<image xlink:href="tile167_156.png" preserveAspectRatio="none" x="14185.546875" y="-4007.8125" width="17.578125" height="17.578125"/>
</g>
</svg>
