<?xml version="1.0" encoding="UTF-8"?>
<svg  xmlns="http://www.w3.org/2000/svg" xmlns:xlink="http://www.w3.org/1999/xlink" xmlns:go="http://purl.org/svgmap/profile" viewBox="12300.572479999999 -4544.0101859999995 2274.759370000001 2117.0065019999997" go:dataArea="12300.572479999999 -4544.0101859999995 2274.759370000001 2117.0065019999997" >
<metadata>
 <rdf:RDF xmlns:rdf="http://www.w3.org/1999/02/22-rdf-syntax-ns#" xmlns:crs="http://opengis.org/xmldtds/transformations.dtd" xmlns:svg="http://www.w3.org/svg" >
  <rdf:Description>
   <crs:CoordinateReferenceSystem rdf:resource="http://purl.org/crs/84" svg:transform="matrix(100.0,0.0,0.0,-100.0,0.0,0.0)" />
  </rdf:Description>
 </rdf:RDF>
</metadata>
<globalCoordinateSystem srsName="http://purl.org/crs/84" transform="matrix(100.0,0.0,0.0,-100.0,0.0,0.0)" />
<g >
<image xlink:href="tile280_311.png" preserveAspectRatio="none" x="13921.875" y="-3533.203125" width="17.578125" height="17.578125"/>
<image xlink:href="tile280_310.png" preserveAspectRatio="none" x="13921.875" y="-3550.78125" width="17.578125" height="17.578125"/>
<image xlink:href="tile280_309.png" preserveAspectRatio="none" x="13921.875" y="-3568.359375" width="17.578125" height="17.578125"/>
<image xlink:href="tile280_308.png" preserveAspectRatio="none" x="13921.875" y="-3585.9375" width="17.578125" height="17.578125"/>
<image xlink:href="tile280_307.png" preserveAspectRatio="none" x="13921.875" y="-3603.515625" width="17.578125" height="17.578125"/>
<image xlink:href="tile280_306.png" preserveAspectRatio="none" x="13921.875" y="-3621.09375" width="17.578125" height="17.578125"/>
<image xlink:href="tile281_311.png" preserveAspectRatio="none" x="13939.453125" y="-3533.203125" width="17.578125" height="17.578125"/>
<image xlink:href="tile281_310.png" preserveAspectRatio="none" x="13939.453125" y="-3550.78125" width="17.578125" height="17.578125"/>
<image xlink:href="tile281_309.png" preserveAspectRatio="none" x="13939.453125" y="-3568.359375" width="17.578125" height="17.578125"/>
<image xlink:href="tile281_308.png" preserveAspectRatio="none" x="13939.453125" y="-3585.9375" width="17.578125" height="17.578125"/>
<image xlink:href="tile281_307.png" preserveAspectRatio="none" x="13939.453125" y="-3603.515625" width="17.578125" height="17.578125"/>
<image xlink:href="tile281_306.png" preserveAspectRatio="none" x="13939.453125" y="-3621.09375" width="17.578125" height="17.578125"/>
<image xlink:href="tile282_311.png" preserveAspectRatio="none" x="13957.03125" y="-3533.203125" width="17.578125" height="17.578125"/>
<image xlink:href="tile282_310.png" preserveAspectRatio="none" x="13957.03125" y="-3550.78125" width="17.578125" height="17.578125"/>
<image xlink:href="tile282_309.png" preserveAspectRatio="none" x="13957.03125" y="-3568.359375" width="17.578125" height="17.578125"/>
<image xlink:href="tile282_308.png" preserveAspectRatio="none" x="13957.03125" y="-3585.9375" width="17.578125" height="17.578125"/>
<image xlink:href="tile282_307.png" preserveAspectRatio="none" x="13957.03125" y="-3603.515625" width="17.578125" height="17.578125"/>
<image xlink:href="tile282_306.png" preserveAspectRatio="none" x="13957.03125" y="-3621.09375" width="17.578125" height="17.578125"/>
<image xlink:href="tile283_311.png" preserveAspectRatio="none" x="13974.609375" y="-3533.203125" width="17.578125" height="17.578125"/>
<image xlink:href="tile283_310.png" preserveAspectRatio="none" x="13974.609375" y="-3550.78125" width="17.578125" height="17.578125"/>
<image xlink:href="tile283_309.png" preserveAspectRatio="none" x="13974.609375" y="-3568.359375" width="17.578125" height="17.578125"/>
<image xlink:href="tile283_308.png" preserveAspectRatio="none" x="13974.609375" y="-3585.9375" width="17.578125" height="17.578125"/>
<image xlink:href="tile283_307.png" preserveAspectRatio="none" x="13974.609375" y="-3603.515625" width="17.578125" height="17.578125"/>
<image xlink:href="tile283_306.png" preserveAspectRatio="none" x="13974.609375" y="-3621.09375" width="17.578125" height="17.578125"/>
<image xlink:href="tile284_309.png" preserveAspectRatio="none" x="13992.1875" y="-3568.359375" width="17.578125" height="17.578125"/>
<image xlink:href="tile284_308.png" preserveAspectRatio="none" x="13992.1875" y="-3585.9375" width="17.578125" height="17.578125"/>
<image xlink:href="tile284_307.png" preserveAspectRatio="none" x="13992.1875" y="-3603.515625" width="17.578125" height="17.578125"/>
<image xlink:href="tile284_306.png" preserveAspectRatio="none" x="13992.1875" y="-3621.09375" width="17.578125" height="17.578125"/>
<image xlink:href="tile285_309.png" preserveAspectRatio="none" x="14009.765625" y="-3568.359375" width="17.578125" height="17.578125"/>
<image xlink:href="tile285_308.png" preserveAspectRatio="none" x="14009.765625" y="-3585.9375" width="17.578125" height="17.578125"/>
<image xlink:href="tile285_307.png" preserveAspectRatio="none" x="14009.765625" y="-3603.515625" width="17.578125" height="17.578125"/>
<image xlink:href="tile285_306.png" preserveAspectRatio="none" x="14009.765625" y="-3621.09375" width="17.578125" height="17.578125"/>
</g>
</svg>
