<?xml version="1.0" encoding="UTF-8"?>
<svg  xmlns="http://www.w3.org/2000/svg" xmlns:xlink="http://www.w3.org/1999/xlink" xmlns:go="http://purl.org/svgmap/profile" property="N07_001,N07_002,N07_003,N07_004,N07_005,N07_006,N07_007" viewBox="14042.724609375 -3761.71875 2.197265625 2.197265625" go:dataArea="14042.724609375 -3761.71875 2.197265625 2.197265625" >
<metadata>
 <rdf:RDF xmlns:rdf="http://www.w3.org/1999/02/22-rdf-syntax-ns#" xmlns:crs="http://opengis.org/xmldtds/transformations.dtd" xmlns:svg="http://www.w3.org/svg" >
  <rdf:Description>
   <crs:CoordinateReferenceSystem rdf:resource="http://purl.org/crs/84" svg:transform="matrix(100.0,0.0,0.0,-100.0,0.0,0.0)" />
  </rdf:Description>
 </rdf:RDF>
</metadata>
<globalCoordinateSystem srsName="http://purl.org/crs/84" transform="matrix(100.0,0.0,0.0,-100.0,0.0,0.0)" />
<defs>
 <g id="p0" >
  <circle cx="0.0" cy="0.0" r="3" stroke="green" stroke-width="0.75" vector-effect="non-scaling-stroke" />
 </g>
</defs>
<g fill="none" fill-rule="evenodd" stroke="#FF00FF" stroke-width="0.75" opacity="0.5" vector-effect="non-scaling-stroke" stroke-linejoin="bevel" >
<path content="1,福島交通（株）,149,4.0,4.0,4.0," xlink:title="1" d="M14042.7246,-3761.3723L14042.7433,-3761.3706L14042.7645,-3761.3677L14042.819,-3761.3627L14042.8842,-3761.3565L14042.9169,-3761.3561L14042.9443,-3761.3675L14042.9556,-3761.3723L14042.967,-3761.3796L14042.9769,-3761.388L14042.9977,-3761.4146L14043.0088,-3761.4347L14043.0264,-3761.4652L14043.0356,-3761.477L14043.0675,-3761.5249L14043.1092,-3761.5807L14043.1177,-3761.5886L14043.134,-3761.5964L14043.1588,-3761.6037L14043.2197,-3761.6173L14043.2635,-3761.6257L14043.2841,-3761.6296L14043.3082,-3761.6364L14043.3251,-3761.6438L14043.4179,-3761.6837L14043.4667,-3761.7006L14043.512,-3761.7108L14043.5375,-3761.7127L14043.5488,-3761.7164L14043.5754,-3761.7018L14043.6791,-3761.6398L14043.7088,-3761.6218L14043.8263,-3761.5491L14043.8343,-3761.5442L14043.8466,-3761.5366L14043.8546,-3761.5316L14043.8723,-3761.5238L14043.8872,-3761.5215L14043.9629,-3761.5193L14043.9729,-3761.5181L14043.9743,-3761.5114L14043.9829,-3761.4991L14043.9842,-3761.4877L14044.0054,-3761.4387L14044.0139,-3761.4222L14044.0373,-3761.4027L14044.0557,-3761.3931L14044.072,-3761.3858L14044.079,-3761.3824L14044.1102,-3761.3627L14044.1293,-3761.3508L14044.1399,-3761.3419L14044.1654,-3761.3114L14044.2015,-3761.2748L14044.2142,-3761.2619L14044.2153,-3761.2546L14044.2142,-3761.2354L14044.2121,-3761.2162L14044.2135,-3761.2073L14044.215,-3761.2044L14044.2192,-3761.1993L14044.2291,-3761.1982L14044.2654,-3761.1903L14044.2994,-3761.1828L14044.3467,-3761.1725L14044.3611,-3761.1649L14044.3634,-3761.1615L14044.3653,-3761.1587L14044.3699,-3761.1215L14044.3664,-3761.1132L14044.3664,-3761.0953L14044.3664,-3761.0647L14044.3671,-3761.0567L14044.37,-3761.0247L14044.3728,-3761.0095L14044.3884,-3760.9718L14044.3962,-3760.9583L14044.4174,-3760.9194L14044.4245,-3760.9008L14044.4276,-3760.8699L14044.4266,-3760.8552L14044.428,-3760.7341L14044.433,-3760.7205L14044.4365,-3760.7166L14044.4502,-3760.7058L14044.4662,-3760.6929L14044.479,-3760.6766L14044.4818,-3760.6715L14044.4875,-3760.6253L14044.4875,-3760.618L14044.4911,-3760.5944L14044.4958,-3760.5894L14044.5144,-3760.4935L14044.5173,-3760.471L14044.5152,-3760.4513L14044.5116,-3760.4389L14044.4957,-3760.4048L14044.489,-3760.3904L14044.4465,-3760.2986L14044.4408,-3760.2874L14044.4394,-3760.2818L14044.4337,-3760.2699L14044.4247,-3760.2531L14044.4224,-3760.2468L14044.4167,-3760.2338L14044.3906,-3760.1798L14044.3842,-3760.1646L14044.3771,-3760.1505L14044.3594,-3760.1116L14044.3508,-3760.0915L14044.3446,-3760.0773L14044.3446,-3760.0496L14044.3467,-3760.0412L14044.3539,-3760.0229L14044.3679,-3760.004L14044.3792,-3759.9922L14044.3779,-3759.9518L14044.3755,-3759.9432L14044.2497,-3759.9505L14044.2433,-3759.9499L14044.2264,-3759.946L14044.2158,-3759.9409L14044.1952,-3759.9268L14044.1754,-3759.9082L14044.1626,-3759.8919L14044.1604,-3759.889L14044.1262,-3759.845L14044.1025,-3759.8136L14044.081,-3759.7871L14044.0728,-3759.777L14044.0423,-3759.7393L14044.005,-3759.688L14043.9857,-3759.6683L14043.9885,-3759.6649L14044.0463,-3759.5399L14044.0497,-3759.5215"/>
<path content="1,福島交通（株）,150,2.5,4.0,4.0," xlink:title="1" d="M14044.0497,-3759.5215L14044.0463,-3759.5399L14043.9885,-3759.6649L14043.9857,-3759.6683L14044.005,-3759.688L14044.0423,-3759.7393L14044.0728,-3759.777L14044.081,-3759.7871L14044.1025,-3759.8136L14044.1262,-3759.845L14044.1604,-3759.889L14044.1626,-3759.8919L14044.1754,-3759.9082L14044.1952,-3759.9268L14044.2158,-3759.9409L14044.2264,-3759.946L14044.2433,-3759.9499L14044.2497,-3759.9505L14044.3755,-3759.9432L14044.3779,-3759.9518L14044.3792,-3759.9922L14044.3679,-3760.004L14044.3539,-3760.0229L14044.3467,-3760.0412L14044.3446,-3760.0496L14044.3446,-3760.0773L14044.3508,-3760.0915L14044.3594,-3760.1116L14044.3771,-3760.1505L14044.3842,-3760.1646L14044.3906,-3760.1798L14044.4167,-3760.2338L14044.4224,-3760.2468L14044.4247,-3760.2531L14044.4337,-3760.2699L14044.4394,-3760.2818L14044.4408,-3760.2874L14044.4465,-3760.2986L14044.489,-3760.3904L14044.4957,-3760.4048L14044.5116,-3760.4389L14044.5152,-3760.4513L14044.5173,-3760.471L14044.5144,-3760.4935L14044.4958,-3760.5894L14044.4911,-3760.5944L14044.4875,-3760.618L14044.4875,-3760.6253L14044.4818,-3760.6715L14044.479,-3760.6766L14044.4662,-3760.6929L14044.4502,-3760.7058L14044.4365,-3760.7166L14044.433,-3760.7205L14044.428,-3760.7341L14044.4266,-3760.8552L14044.4276,-3760.8699L14044.4245,-3760.9008L14044.4174,-3760.9194L14044.3962,-3760.9583L14044.3884,-3760.9718L14044.3728,-3761.0095L14044.37,-3761.0247L14044.3671,-3761.0567L14044.3664,-3761.0647L14044.3664,-3761.0953L14044.3664,-3761.1132L14044.3699,-3761.1215L14044.3653,-3761.1587L14044.3634,-3761.1615L14044.3611,-3761.1649L14044.3467,-3761.1725L14044.2994,-3761.1828L14044.2654,-3761.1903L14044.2291,-3761.1982L14044.2192,-3761.1993L14044.215,-3761.2044L14044.2135,-3761.2073L14044.2121,-3761.2162L14044.2142,-3761.2354L14044.2153,-3761.2546L14044.2142,-3761.2619L14044.2015,-3761.2748L14044.1654,-3761.3114L14044.1399,-3761.3419L14044.1293,-3761.3508L14044.1102,-3761.3627L14044.079,-3761.3824L14044.072,-3761.3858L14044.0557,-3761.3931L14044.0373,-3761.4027L14044.0139,-3761.4222L14044.0054,-3761.4387L14043.9842,-3761.4877L14043.9829,-3761.4991L14043.9743,-3761.5114L14043.9729,-3761.5181L14043.9629,-3761.5193L14043.8872,-3761.5215L14043.8723,-3761.5238L14043.8546,-3761.5316L14043.8466,-3761.5366L14043.8343,-3761.5442L14043.8263,-3761.5491L14043.7088,-3761.6218L14043.6791,-3761.6398L14043.5754,-3761.7018L14043.5488,-3761.7164"/>
<path content="1,福島交通（株）,150,2.5,4.0,4.0," xlink:title="1" d="M14043.5488,-3761.7164L14043.5447,-3761.7188"/>
<path content="1,福島交通（株）,150,2.5,4.0,4.0," xlink:title="1" d="M14042.7246,-3761.3723L14042.7433,-3761.3706L14042.7645,-3761.3677L14042.819,-3761.3627L14042.8842,-3761.3565L14042.9169,-3761.3561L14042.9443,-3761.3675L14042.9556,-3761.3723L14042.967,-3761.3796L14042.9769,-3761.388L14042.9977,-3761.4146L14043.0088,-3761.4347L14043.0264,-3761.4652L14043.0356,-3761.477L14043.0675,-3761.5249L14043.1092,-3761.5807L14043.1177,-3761.5886L14043.134,-3761.5964L14043.1588,-3761.6037L14043.2197,-3761.6173L14043.2635,-3761.6257L14043.2841,-3761.6296L14043.3082,-3761.6364L14043.3251,-3761.6438L14043.4179,-3761.6837L14043.4667,-3761.7006L14043.512,-3761.7108L14043.5375,-3761.7127L14043.5488,-3761.7164"/>
<path content="1,福島交通（株）,155,11.5,6.0,6.0," xlink:title="1" d="M14044.9219,-3759.862L14044.8949,-3759.9145L14044.8896,-3759.9152L14044.8804,-3759.9156L14044.8549,-3759.9167L14044.8388,-3759.916L14044.7487,-3759.9235L14044.6936,-3759.928L14044.5895,-3759.9359L14044.5583,-3759.9387L14044.5471,-3759.939L14044.5222,-3759.9415L14044.4224,-3759.9494L14044.3779,-3759.9518L14044.3755,-3759.9432L14044.2497,-3759.9505L14044.2433,-3759.9499L14044.2264,-3759.946L14044.2158,-3759.9409L14044.1952,-3759.9268L14044.1754,-3759.9082L14044.1626,-3759.8919L14044.1604,-3759.889L14044.1262,-3759.845L14044.1025,-3759.8136L14044.081,-3759.7871L14044.0728,-3759.777L14044.0423,-3759.7393L14044.005,-3759.688L14043.9857,-3759.6683L14043.9885,-3759.6649L14044.0463,-3759.5399L14044.0497,-3759.5215"/>
<path content="1,福島交通（株）,187,9.5,9.5,9.5," xlink:title="1" d="M14044.0497,-3759.5215L14044.0463,-3759.5399L14043.9885,-3759.6649L14043.9857,-3759.6683L14044.005,-3759.688L14044.0423,-3759.7393L14044.0728,-3759.777L14044.081,-3759.7871L14044.1025,-3759.8136L14044.1262,-3759.845L14044.1604,-3759.889L14044.1626,-3759.8919L14044.1754,-3759.9082L14044.1952,-3759.9268L14044.2158,-3759.9409L14044.2264,-3759.946L14044.2433,-3759.9499L14044.2497,-3759.9505L14044.3755,-3759.9432L14044.3779,-3759.9518L14044.4224,-3759.9494L14044.5222,-3759.9415L14044.5471,-3759.939L14044.5583,-3759.9387L14044.5895,-3759.9359L14044.6936,-3759.928L14044.7487,-3759.9235L14044.8388,-3759.916L14044.8549,-3759.9167L14044.8804,-3759.9156L14044.8896,-3759.9152L14044.8949,-3759.9145L14044.8967,-3759.9691L14044.8967,-3759.9945L14044.8988,-3760.0057L14044.9116,-3760.0063L14044.9219,-3760.0061"/>
</g>
</svg>
