<?xml version="1.0" encoding="UTF-8"?>
<svg  xmlns="http://www.w3.org/2000/svg" xmlns:xlink="http://www.w3.org/1999/xlink" xmlns:go="http://purl.org/svgmap/profile" property="N07_001,N07_002,N07_003,N07_004,N07_005,N07_006,N07_007" viewBox="14080.62744140625 -3830.9326171875 0.274658203125 0.274658203125" go:dataArea="14080.62744140625 -3830.9326171875 0.274658203125 0.274658203125" >
<metadata>
 <rdf:RDF xmlns:rdf="http://www.w3.org/1999/02/22-rdf-syntax-ns#" xmlns:crs="http://opengis.org/xmldtds/transformations.dtd" xmlns:svg="http://www.w3.org/svg" >
  <rdf:Description>
   <crs:CoordinateReferenceSystem rdf:resource="http://purl.org/crs/84" svg:transform="matrix(100.0,0.0,0.0,-100.0,0.0,0.0)" />
  </rdf:Description>
 </rdf:RDF>
</metadata>
<globalCoordinateSystem srsName="http://purl.org/crs/84" transform="matrix(100.0,0.0,0.0,-100.0,0.0,0.0)" />
<defs>
 <g id="p0" >
  <circle cx="0.0" cy="0.0" r="3" stroke="green" stroke-width="0.75" vector-effect="non-scaling-stroke" />
 </g>
</defs>
<g fill="none" fill-rule="evenodd" stroke="#FF00FF" stroke-width="0.75" opacity="0.5" vector-effect="non-scaling-stroke" stroke-linejoin="bevel" >
<path content="2,仙台市,22,1.5,0.0,0.0," xlink:title="2" d="M14080.8111,-3830.9326L14080.804,-3830.9112L14080.7816,-3830.8485L14080.7531,-3830.7673L14080.7166,-3830.658M14080.6855,-3830.658L14080.6678,-3830.6623L14080.6504,-3830.6666L14080.6362,-3830.6709L14080.6274,-3830.6746"/>
<path content="2,仙台市,28,3.5,0.0,0.0," xlink:title="2" d="M14080.7166,-3830.658L14080.7531,-3830.7673L14080.7816,-3830.8485L14080.804,-3830.9112L14080.8111,-3830.9326"/>
<path content="2,仙台市,780,2.0,0.0,0.0," xlink:title="2" d="M14080.6274,-3830.6746L14080.6362,-3830.6709L14080.6504,-3830.6666L14080.6678,-3830.6623L14080.6855,-3830.658"/>
<path content="2,仙台市,810,1.0,1.0,0.0," xlink:title="2" d="M14080.6855,-3830.658L14080.6678,-3830.6623L14080.6504,-3830.6666L14080.6362,-3830.6709L14080.6274,-3830.6746"/>
<path content="2,仙台市,811,2.0,1.5,0.0," xlink:title="2" d="M14080.6855,-3830.658L14080.6678,-3830.6623L14080.6504,-3830.6666L14080.6362,-3830.6709L14080.6274,-3830.6746"/>
<path content="2,仙台市,815,37.5,28.5,28.0," xlink:title="2" d="M14080.8111,-3830.9326L14080.804,-3830.9112L14080.7816,-3830.8485L14080.7531,-3830.7673L14080.7166,-3830.658"/>
<path content="2,仙台市,876,1.5,0.0,0.0," xlink:title="2" d="M14080.6855,-3830.658L14080.6678,-3830.6623L14080.6504,-3830.6666L14080.6362,-3830.6709L14080.6274,-3830.6746"/>
<path content="2,仙台市,905,35.0,17.0,16.0," xlink:title="2" d="M14080.8111,-3830.9326L14080.804,-3830.9112L14080.7816,-3830.8485L14080.7531,-3830.7673L14080.7166,-3830.658"/>
<path content="2,仙台市,910,47.0,32.0,29.5," xlink:title="2" d="M14080.6274,-3830.6746L14080.6362,-3830.6709L14080.6504,-3830.6666L14080.6678,-3830.6623L14080.6855,-3830.658"/>
</g>
</svg>
