<?xml version="1.0" encoding="UTF-8"?>
<svg  xmlns="http://www.w3.org/2000/svg" xmlns:xlink="http://www.w3.org/1999/xlink" xmlns:go="http://purl.org/svgmap/profile" property="N07_001,N07_002,N07_003,N07_004,N07_005,N07_006,N07_007" viewBox="14000.9765625 -3858.3984375 8.7890625 8.7890625" go:dataArea="14000.9765625 -3858.3984375 8.7890625 8.7890625" >
<metadata>
 <rdf:RDF xmlns:rdf="http://www.w3.org/1999/02/22-rdf-syntax-ns#" xmlns:crs="http://opengis.org/xmldtds/transformations.dtd" xmlns:svg="http://www.w3.org/svg" >
  <rdf:Description>
   <crs:CoordinateReferenceSystem rdf:resource="http://purl.org/crs/84" svg:transform="matrix(100.0,0.0,0.0,-100.0,0.0,0.0)" />
  </rdf:Description>
 </rdf:RDF>
</metadata>
<globalCoordinateSystem srsName="http://purl.org/crs/84" transform="matrix(100.0,0.0,0.0,-100.0,0.0,0.0)" />
<defs>
 <g id="p0" >
  <circle cx="0.0" cy="0.0" r="3" stroke="green" stroke-width="0.75" vector-effect="non-scaling-stroke" />
 </g>
</defs>
<g fill="none" fill-rule="evenodd" stroke="#FF00FF" stroke-width="0.75" opacity="0.5" vector-effect="non-scaling-stroke" stroke-linejoin="bevel" >
<path content="1,山交バス（株）,山形-酒田,5.5,5.5,5.5," xlink:title="1" d="M14000.9766,-3850.7506L14000.9795,-3850.749L14000.9825,-3850.7483L14000.9861,-3850.7479L14000.9894,-3850.7477L14000.9919,-3850.748L14000.9939,-3850.7491L14000.9962,-3850.7513L14000.9986,-3850.7539L14001.0005,-3850.7574L14001.0014,-3850.7615L14001.0014,-3850.7652L14001.0007,-3850.7684L14000.9987,-3850.7722L14000.9962,-3850.7768L14000.9922,-3850.782L14000.9837,-3850.7905L14000.9766,-3850.7961M14000.9766,-3852.1198L14000.9922,-3852.1124L14001.0021,-3852.1057L14001.0097,-3852.1085L14001.0227,-3852.1324L14001.0361,-3852.1592L14001.0467,-3852.1868L14001.0597,-3852.2424L14001.0641,-3852.2607L14001.0677,-3852.2696L14001.074,-3852.2752L14001.0984,-3852.2916L14001.1083,-3852.3028L14001.1119,-3852.3187L14001.111,-3852.331L14001.1067,-3852.3505L14001.1027,-3852.3643L14001.0987,-3852.3776L14001.0991,-3852.3864L14001.1045,-3852.3988L14001.1206,-3852.4213L14001.1431,-3852.4403L14001.1464,-3852.4563L14001.1446,-3852.4721L14001.1321,-3852.502L14001.1247,-3852.5283L14001.1224,-3852.549L14001.1242,-3852.5649L14001.1388,-3852.6189L14001.1614,-3852.6983L14001.1643,-3852.7157L14001.1656,-3852.7271L14001.167,-3852.74L14001.1751,-3852.7633L14001.1809,-3852.7731L14001.1934,-3852.784L14001.2058,-3852.7933L14001.2237,-3852.8194L14001.2367,-3852.8359L14001.2479,-3852.8595L14001.2515,-3852.8736L14001.252,-3852.8838L14001.2479,-3852.8908L14001.2363,-3852.8993L14001.2325,-3852.9061L14001.2235,-3852.9329L14001.2177,-3852.9413L14001.2154,-3852.9491L14001.2168,-3852.9561L14001.2235,-3852.9684L14001.2421,-3852.9964L14001.2578,-3853.0292L14001.2728,-3853.0677L14001.2836,-3853.1033L14001.3022,-3853.1847L14001.3033,-3853.2089L14001.3015,-3853.2223L14001.2961,-3853.2409L14001.2966,-3853.249L14001.3017,-3853.2685L14001.3035,-3853.2847L14001.3008,-3853.3002L14001.2901,-3853.328L14001.2872,-3853.3398L14001.2872,-3853.3631L14001.2818,-3853.3842L14001.2724,-3853.406L14001.2721,-3853.4241L14001.2686,-3853.4431L14001.2663,-3853.4558L14001.2681,-3853.4667L14001.2726,-3853.4769L14001.282,-3853.4896L14001.3073,-3853.519L14001.3397,-3853.5686L14001.3432,-3853.5739L14001.3605,-3853.6079L14001.3663,-3853.6272L14001.3753,-3853.6716L14001.3768,-3853.6866L14001.3764,-3853.7049L14001.3723,-3853.7211L14001.3618,-3853.7515L14001.3591,-3853.7824L14001.3609,-3853.7877L14001.3683,-3853.802L14001.3768,-3853.8213L14001.3813,-3853.8446L14001.384,-3853.8576L14001.4051,-3853.8833L14001.4187,-3853.895L14001.4492,-3853.9253L14001.4622,-3853.9443L14001.4835,-3853.9836L14001.4934,-3854.0103L14001.5097,-3854.0474L14001.5129,-3854.0759L14001.5178,-3854.0883L14001.5272,-3854.0995L14001.553,-3854.1258L14001.5602,-3854.1384L14001.5638,-3854.1514L14001.5674,-3854.1652L14001.575,-3854.1764L14001.5945,-3854.1974L14001.5972,-3854.2069L14001.5981,-3854.2199L14001.5963,-3854.2358L14001.5909,-3854.2565L14001.5898,-3854.2715L14001.5925,-3854.2831L14001.6023,-3854.3025L14001.6158,-3854.3363L14001.6218,-3854.3604L14001.6281,-3854.3695L14001.6393,-3854.3769L14001.6599,-3854.3857L14001.6653,-3854.3917L14001.67,-3854.401L14001.6046,-3854.3955L14001.5637,-3854.3839L14001.5104,-3854.3726L14001.4564,-3854.3516L14001.4295,-3854.3393L14001.4084,-3854.3256L14001.3887,-3854.3161L14001.3194,-3854.2909L14001.3006,-3854.2804L14001.2674,-3854.2526L14001.2358,-3854.2158L14001.2071,-3854.1911L14001.1789,-3854.1658L14001.1708,-3854.1584L14001.1433,-3854.1487L14001.1056,-3854.1361L14001.0877,-3854.1255L14001.0594,-3854.0984L14001.0076,-3854.0556L14000.9766,-3854.034"/>
<path content="1,庄内交通（株）,高速バス　酒田山形線,9.8,9.8,9.8," xlink:title="1" d="M14000.9766,-3854.034L14001.0076,-3854.0556L14001.0594,-3854.0984L14001.0877,-3854.1255L14001.1056,-3854.1361L14001.1433,-3854.1487L14001.1708,-3854.1584L14001.1789,-3854.1658L14001.2071,-3854.1911L14001.2358,-3854.2158L14001.2674,-3854.2526L14001.3006,-3854.2804L14001.3194,-3854.2909L14001.3887,-3854.3161L14001.4084,-3854.3256L14001.4295,-3854.3393L14001.4564,-3854.3516L14001.5104,-3854.3726L14001.5637,-3854.3839L14001.6046,-3854.3955L14001.67,-3854.401L14001.6653,-3854.3917L14001.6599,-3854.3857L14001.6393,-3854.3769L14001.6281,-3854.3695L14001.6218,-3854.3604L14001.6158,-3854.3363L14001.6023,-3854.3025L14001.5925,-3854.2831L14001.5898,-3854.2715L14001.5909,-3854.2565L14001.5963,-3854.2358L14001.5981,-3854.2199L14001.5972,-3854.2069L14001.5945,-3854.1974L14001.575,-3854.1764L14001.5674,-3854.1652L14001.5638,-3854.1514L14001.5602,-3854.1384L14001.553,-3854.1258L14001.5272,-3854.0995L14001.5178,-3854.0883L14001.5129,-3854.0759L14001.5097,-3854.0474L14001.4934,-3854.0103L14001.4835,-3853.9836L14001.4622,-3853.9443L14001.4492,-3853.9253L14001.4187,-3853.895L14001.4051,-3853.8833L14001.384,-3853.8576L14001.3813,-3853.8446L14001.3768,-3853.8213L14001.3683,-3853.802L14001.3609,-3853.7877L14001.3591,-3853.7824L14001.3618,-3853.7515L14001.3723,-3853.7211L14001.3764,-3853.7049L14001.3768,-3853.6866L14001.3753,-3853.6716L14001.3663,-3853.6272L14001.3605,-3853.6079L14001.3432,-3853.5739L14001.3397,-3853.5686L14001.3073,-3853.519L14001.282,-3853.4896L14001.2726,-3853.4769L14001.2681,-3853.4667L14001.2663,-3853.4558L14001.2686,-3853.4431L14001.2721,-3853.4241L14001.2724,-3853.406L14001.2818,-3853.3842L14001.2872,-3853.3631L14001.2872,-3853.3398L14001.2901,-3853.328L14001.3008,-3853.3002L14001.3035,-3853.2847L14001.3017,-3853.2685L14001.2966,-3853.249L14001.2961,-3853.2409L14001.3015,-3853.2223L14001.3033,-3853.2089L14001.3022,-3853.1847L14001.2836,-3853.1033L14001.2728,-3853.0677L14001.2578,-3853.0292L14001.2421,-3852.9964L14001.2235,-3852.9684L14001.2168,-3852.9561L14001.2154,-3852.9491L14001.2177,-3852.9413L14001.2235,-3852.9329L14001.2325,-3852.9061L14001.2363,-3852.8993L14001.2479,-3852.8908L14001.252,-3852.8838L14001.2515,-3852.8736L14001.2479,-3852.8595L14001.2367,-3852.8359L14001.2237,-3852.8194L14001.2058,-3852.7933L14001.1934,-3852.784L14001.1809,-3852.7731L14001.1751,-3852.7633L14001.167,-3852.74L14001.1656,-3852.7271L14001.1643,-3852.7157L14001.1614,-3852.6983L14001.1388,-3852.6189L14001.1242,-3852.5649L14001.1224,-3852.549L14001.1247,-3852.5283L14001.1321,-3852.502L14001.1446,-3852.4721L14001.1464,-3852.4563L14001.1431,-3852.4403L14001.1206,-3852.4213L14001.1045,-3852.3988L14001.0991,-3852.3864L14001.0987,-3852.3776L14001.1027,-3852.3643L14001.1067,-3852.3505L14001.111,-3852.331L14001.1119,-3852.3187L14001.1083,-3852.3028L14001.0984,-3852.2916L14001.074,-3852.2752L14001.0677,-3852.2696L14001.0641,-3852.2607L14001.0597,-3852.2424L14001.0467,-3852.1868L14001.0361,-3852.1592L14001.0227,-3852.1324L14001.0097,-3852.1085L14001.0021,-3852.1057L14000.9922,-3852.1124L14000.9766,-3852.1198M14000.9766,-3850.7961L14000.9837,-3850.7905L14000.9922,-3850.782L14000.9962,-3850.7768L14000.9987,-3850.7722L14001.0007,-3850.7684L14001.0014,-3850.7652L14001.0014,-3850.7615L14001.0005,-3850.7574L14000.9986,-3850.7539L14000.9962,-3850.7513L14000.9939,-3850.7491L14000.9919,-3850.748L14000.9894,-3850.7477L14000.9861,-3850.7479L14000.9825,-3850.7483L14000.9795,-3850.749L14000.9766,-3850.7506"/>
</g>
</svg>
