<?xml version="1.0" encoding="UTF-8"?>
<svg  xmlns="http://www.w3.org/2000/svg" xmlns:xlink="http://www.w3.org/1999/xlink" xmlns:go="http://purl.org/svgmap/profile" property="N07_001,N07_002,N07_003,N07_004,N07_005,N07_006,N07_007" viewBox="13306.640625 -3339.84375 8.7890625 8.7890625" go:dataArea="13306.640625 -3339.84375 8.7890625 8.7890625" >
<metadata>
 <rdf:RDF xmlns:rdf="http://www.w3.org/1999/02/22-rdf-syntax-ns#" xmlns:crs="http://opengis.org/xmldtds/transformations.dtd" xmlns:svg="http://www.w3.org/svg" >
  <rdf:Description>
   <crs:CoordinateReferenceSystem rdf:resource="http://purl.org/crs/84" svg:transform="matrix(100.0,0.0,0.0,-100.0,0.0,0.0)" />
  </rdf:Description>
 </rdf:RDF>
</metadata>
<globalCoordinateSystem srsName="http://purl.org/crs/84" transform="matrix(100.0,0.0,0.0,-100.0,0.0,0.0)" />
<defs>
 <g id="p0" >
  <circle cx="0.0" cy="0.0" r="3" stroke="green" stroke-width="0.75" vector-effect="non-scaling-stroke" />
 </g>
</defs>
<g fill="none" fill-rule="evenodd" stroke="#FF00FF" stroke-width="0.75" opacity="0.5" vector-effect="non-scaling-stroke" stroke-linejoin="bevel" >
<path content="1,（有）高南観光自動車,久礼駅前～大野見役場前線,1.0,1.0,1.0," xlink:title="1" d="M13313.9866,-3333.8021L13313.9857,-3333.8003L13313.9849,-3333.7894L13313.9817,-3333.7483L13313.9797,-3333.7272L13313.9781,-3333.7122L13313.9776,-3333.7076L13313.9756,-3333.6895L13313.9749,-3333.6867L13313.9646,-3333.6715L13313.9598,-3333.6664L13313.9001,-3333.6067L13313.8814,-3333.5785L13313.878,-3333.5661L13313.8726,-3333.5509L13313.8706,-3333.5368L13313.8678,-3333.4981L13313.8666,-3333.4912L13313.8646,-3333.4799L13313.8592,-3333.4354L13313.8592,-3333.4213L13313.8633,-3333.4123L13313.8699,-3333.4055L13313.8995,-3333.3796L13313.9122,-3333.3711L13313.933,-3333.3548L13313.9416,-3333.3491L13313.9474,-3333.3452L13313.9595,-3333.34L13313.9931,-3333.3217L13314.0147,-3333.3118L13314.024,-3333.3081L13314.0296,-3333.308L13314.0423,-3333.3137L13314.0705,-3333.3283L13314.0806,-3333.3317L13314.1463,-3333.3447L13314.1758,-3333.3526L13314.2234,-3333.3683L13314.2603,-3333.3785L13314.3203,-3333.3967L13314.3448,-3333.4055L13314.3602,-3333.4112L13314.3804,-3333.4174L13314.4138,-3333.4256L13314.4159,-3333.4236L13314.4327,-3333.4236L13314.4414,-3333.4224L13314.4682,-3333.41L13314.4897,-3333.3971L13314.54,-3333.3678L13314.5554,-3333.3576L13314.6037,-3333.3289L13314.6379,-3333.3103L13314.658,-3333.2996L13314.6674,-3333.2928L13314.6967,-3333.2771L13314.7278,-3333.2601L13314.762,-3333.2416L13314.7929,-3333.2263L13314.8056,-3333.2235L13314.8264,-3333.2224L13314.8532,-3333.2235L13314.8626,-3333.2252L13314.8901,-3333.2258L13314.9225,-3333.2322L13314.9646,-3333.2494L13315.0162,-3333.2669L13315.033,-3333.2726L13315.0879,-3333.2889L13315.1825,-3333.312L13315.2,-3333.3159L13315.2271,-3333.3234L13315.2449,-3333.3312L13315.2522,-3333.3366L13315.257,-3333.3402L13315.2778,-3333.3593L13315.316,-3333.4016L13315.3341,-3333.4275L13315.3509,-3333.4467L13315.3911,-3333.4771L13315.4253,-3333.5002L13315.4297,-3333.5035"/>
<path content="1,（有）高南観光自動車,久礼駅前～新改線,2.0,2.0,2.0," xlink:title="1" d="M13311.9808,-3339.6849L13311.9816,-3339.6819L13311.9797,-3339.6766L13311.9783,-3339.6608L13311.9797,-3339.6557L13311.9877,-3339.6451L13312.0133,-3339.6231L13312.024,-3339.618L13312.0434,-3339.6124L13312.0589,-3339.6096L13312.1059,-3339.6056L13312.1811,-3339.6005L13312.2019,-3339.5966L13312.2133,-3339.5915L13312.22,-3339.5876L13312.2435,-3339.5681L13312.2482,-3339.5594L13312.2623,-3339.5329L13312.2643,-3339.5222L13312.263,-3339.5146L13312.2556,-3339.4991L13312.2435,-3339.4697L13312.2354,-3339.4501L13312.2319,-3339.4405L13312.2319,-3339.432L13312.2336,-3339.422L13312.2384,-3339.4142L13312.2435,-3339.4036L13312.267,-3339.3678L13312.2741,-3339.3582L13312.2844,-3339.3484L13312.2945,-3339.343L13312.308,-3339.3385L13312.3314,-3339.334L13312.3563,-3339.3278L13312.3885,-3339.3183L13312.4154,-3339.3081L13312.4234,-3339.3042L13312.435,-3339.2943L13312.4436,-3339.2856L13312.4584,-3339.2664L13312.4798,-3339.2281L13312.4825,-3339.2241L13312.4986,-3339.1971L13312.506,-3339.1864L13312.5364,-3339.1608L13312.5574,-3339.1503L13312.5584,-3339.1498L13312.5645,-3339.1469L13312.5936,-3339.1301L13312.6,-3339.1238L13312.6047,-3339.1176L13312.6081,-3339.108L13312.6101,-3339.0889L13312.6101,-3339.0466L13312.6081,-3339.0122L13312.6068,-3338.9925L13312.6041,-3338.9813L13312.6041,-3338.9813L13312.6034,-3338.9644L13312.6054,-3338.9559L13312.6088,-3338.9491L13312.6235,-3338.9356L13312.6504,-3338.9227L13312.6591,-3338.9193L13312.688,-3338.9125L13312.7276,-3338.9046L13312.7766,-3338.8967L13312.8142,-3338.89L13312.829,-3338.886L13312.8397,-3338.8809L13312.8538,-3338.8708L13312.8572,-3338.8607L13312.8572,-3338.8257L13312.8511,-3338.7858L13312.8458,-3338.7564L13312.8369,-3338.7283L13312.8323,-3338.7068L13312.827,-3338.6725L13312.8229,-3338.6358L13312.8229,-3338.6088L13312.8297,-3338.5586L13312.8384,-3338.5198L13312.8458,-3338.5062L13312.8579,-3338.4933L13312.876,-3338.4814L13312.8908,-3338.4747L13312.9055,-3338.4691L13312.9492,-3338.4555L13312.9599,-3338.4533L13312.9787,-3338.4476L13313.0123,-3338.4392L13313.0385,-3338.4319L13313.0633,-3338.4223L13313.1278,-3338.3911L13313.1499,-3338.3817L13313.1654,-3338.3738L13313.1667,-3338.3704L13313.1714,-3338.3564L13313.1714,-3338.3237L13313.1674,-3338.3L13313.157,-3338.2667L13313.156,-3338.2634L13313.1378,-3338.2155L13313.1365,-3338.2064L13313.1311,-3338.1929L13313.1197,-3338.1856L13313.1088,-3338.1817L13313.1036,-3338.1834L13313.0956,-3338.1884L13313.0855,-3338.1957L13313.0741,-3338.2025L13313.0552,-3338.2104L13313.0256,-3338.2138L13313.0029,-3338.2177L13312.8981,-3338.2194L13312.8867,-3338.2172L13312.8746,-3338.2127L13312.8538,-3338.2025L13312.8129,-3338.1709L13312.8045,-3338.164L13312.8046,-3338.1631L13312.8111,-3338.1594L13312.8449,-3338.1402L13312.8505,-3338.1343L13312.8572,-3338.127L13312.8633,-3338.114L13312.8659,-3338.0988L13312.8753,-3338.0386L13312.876,-3338.0256L13312.8754,-3338.0181L13312.8747,-3338.0025L13312.8679,-3337.9704L13312.8505,-3337.9241L13312.8553,-3337.8998L13312.8583,-3337.8879L13312.87,-3337.8419L13312.8767,-3337.8261L13312.8901,-3337.8019L13312.9002,-3337.7788L13312.9284,-3337.6847L13312.9324,-3337.6723L13312.9384,-3337.6616L13312.9465,-3337.6492L13312.9599,-3337.6339L13312.9828,-3337.6142L13313.0064,-3337.5961L13313.0628,-3337.5572L13313.0808,-3337.5421L13313.1056,-3337.5139L13313.1157,-3337.4857L13313.1264,-3337.4469L13313.1292,-3337.434L13313.1319,-3337.4204L13313.1331,-3337.4013L13313.1353,-3337.3819L13313.1353,-3337.3667L13313.1347,-3337.3619L13313.1345,-3337.3601L13313.1304,-3337.3488L13313.1181,-3337.3366L13313.1123,-3337.3308L13313.0834,-3337.3122L13313.072,-3337.3054L13313.0647,-3337.302L13313.0467,-3337.2917L13313.0069,-3337.2688L13312.9968,-3337.2614L13312.9925,-3337.2584L13312.9807,-3337.2457L13312.9599,-3337.2136L13312.9492,-3337.1916L13312.9418,-3337.1662L13312.9418,-3337.1313L13312.9426,-3337.1279L13312.9438,-3337.1228L13312.9492,-3337.1133L13312.9572,-3337.1054L13312.9874,-3337.0834L13313.0008,-3337.0699L13313.0116,-3337.0563L13313.025,-3337.0333L13313.0445,-3336.9887L13313.0693,-3336.938L13313.0928,-3336.8941L13313.1183,-3336.8513L13313.1291,-3336.8355L13313.1358,-3336.8281L13313.1667,-3336.7943L13313.1808,-3336.7819L13313.2274,-3336.7479L13313.258,-3336.7312L13313.305,-3336.7076L13313.3251,-3336.698L13313.3721,-3336.676L13313.3822,-3336.6692L13313.3916,-3336.6585L13313.4352,-3336.5864L13313.4485,-3336.5644L13313.4826,-3336.5093L13313.5111,-3336.4607L13313.5184,-3336.445L13313.5305,-3336.4196L13313.5406,-3336.3909L13313.5406,-3336.3644L13313.5346,-3336.3182L13313.5346,-3336.2528L13313.5359,-3336.2348L13313.5392,-3336.2229L13313.5446,-3336.21L13313.556,-3336.1993L13313.5681,-3336.1903L13313.5856,-3336.1818L13313.6023,-3336.1762L13313.6272,-3336.1717L13313.652,-3336.1711L13313.6688,-3336.1734L13313.6997,-3336.1813L13313.7084,-3336.1824L13313.7359,-3336.1852L13313.7628,-3336.188L13313.7849,-3336.192L13313.8279,-3336.2032L13313.84,-3336.2055L13313.8628,-3336.2061L13313.8789,-3336.2032L13313.8916,-3336.1992L13313.9097,-3336.1914L13313.9279,-3336.1807L13313.9407,-3336.1706L13313.9494,-3336.1604L13313.962,-3336.1359L13313.9736,-3336.1103L13313.9816,-3336.0844L13313.9843,-3336.0646L13313.9843,-3336.0229L13313.9763,-3335.9829L13313.9682,-3335.9542L13313.9561,-3335.93L13313.9427,-3335.9102L13313.9306,-3335.8978L13313.9125,-3335.8843L13313.8883,-3335.8685L13313.846,-3335.8454L13313.8017,-3335.8218L13313.7708,-3335.8043L13313.7292,-3335.7795L13313.7037,-3335.7631L13313.6769,-3335.7384L13313.6554,-3335.7108L13313.6487,-3335.6978L13313.6372,-3335.6736L13313.6292,-3335.6488L13313.6258,-3335.6401L13313.6238,-3335.6251L13313.6238,-3335.6054L13313.6305,-3335.5885L13313.6406,-3335.5749L13313.654,-3335.562L13313.6728,-3335.549L13313.7044,-3335.5344L13313.7164,-3335.5276L13313.75,-3335.4978L13313.7688,-3335.4837L13313.7847,-3335.4774L13313.7943,-3335.4735L13313.8151,-3335.4673L13313.838,-3335.4589L13313.8447,-3335.4572L13313.866,-3335.4471L13313.8749,-3335.4425L13313.8917,-3335.4301L13313.8977,-3335.4239L13313.9118,-3335.4042L13313.9252,-3335.3868L13313.9346,-3335.3715L13313.9387,-3335.3603L13313.9487,-3335.3225L13313.9505,-3335.3122L13313.9521,-3335.3028L13313.9554,-3335.2555L13313.9575,-3335.216L13313.9575,-3335.2109L13313.9554,-3335.1687L13313.9501,-3335.1078L13313.9429,-3335.0627L13313.942,-3335.0504L13313.9379,-3335.0312L13313.9353,-3335.0188L13313.9299,-3335.0024L13313.9064,-3334.9709L13313.8527,-3334.9117L13313.8386,-3334.8903L13313.8357,-3334.8843L13313.8267,-3334.8688L13313.8239,-3334.8599L13313.8178,-3334.8391L13313.8138,-3334.8159L13313.8124,-3334.8024L13313.8097,-3334.79L13313.8044,-3334.7365L13313.8044,-3334.6987L13313.8064,-3334.6909L13313.8084,-3334.6852L13313.8144,-3334.6728L13313.8286,-3334.6542L13313.8406,-3334.6418L13313.8497,-3334.6333L13313.8608,-3334.625L13313.897,-3334.5934L13313.9219,-3334.5697L13313.9259,-3334.5641L13313.9642,-3334.519L13313.9924,-3334.4818L13313.9991,-3334.4689L13314.0017,-3334.4221L13314.0105,-3334.3837L13314.0145,-3334.3699L13314.0172,-3334.3618L13314.0179,-3334.355L13314.0253,-3334.3218L13314.04,-3334.2096L13314.0414,-3334.1792L13314.0422,-3334.1298L13314.0427,-3334.0958L13314.0441,-3334.0624L13314.0444,-3334.0383L13314.0446,-3334.0261L13314.0381,-3333.9629L13314.0373,-3333.9589L13314.0316,-3333.941L13314.0273,-3333.9273L13314.0078,-3333.8896L13314.0018,-3333.8733L13313.9897,-3333.822L13313.9866,-3333.8021L13313.9857,-3333.8003L13313.9849,-3333.7894L13313.9817,-3333.7483L13313.9797,-3333.7272L13313.9781,-3333.7122L13313.9776,-3333.7076L13313.9756,-3333.6895L13313.9749,-3333.6867L13313.9646,-3333.6715L13313.9598,-3333.6664L13313.9001,-3333.6067L13313.8814,-3333.5785L13313.878,-3333.5661L13313.8726,-3333.5509L13313.8706,-3333.5368L13313.8678,-3333.4981L13313.8666,-3333.4912L13313.8646,-3333.4799L13313.8592,-3333.4354L13313.8592,-3333.4213L13313.8633,-3333.4123L13313.8699,-3333.4055L13313.8995,-3333.3796L13313.9122,-3333.3711L13313.933,-3333.3548L13313.9416,-3333.3491L13313.9474,-3333.3452L13313.9595,-3333.34L13313.9931,-3333.3217L13314.0147,-3333.3118L13314.024,-3333.3081L13314.0296,-3333.308L13314.0423,-3333.3137L13314.0705,-3333.3283L13314.0806,-3333.3317L13314.1463,-3333.3447L13314.1758,-3333.3526L13314.2234,-3333.3683L13314.2603,-3333.3785L13314.3203,-3333.3967L13314.3804,-3333.4174L13314.4138,-3333.4256L13314.4159,-3333.4236L13314.4327,-3333.4236L13314.4414,-3333.4224L13314.4682,-3333.41L13314.4897,-3333.3971L13314.54,-3333.3678L13314.5554,-3333.3576L13314.6037,-3333.3289L13314.6379,-3333.3103L13314.658,-3333.2996L13314.6674,-3333.2928L13314.6967,-3333.2771L13314.7278,-3333.2601L13314.762,-3333.2416L13314.7929,-3333.2263L13314.8056,-3333.2235L13314.8264,-3333.2224L13314.8532,-3333.2235L13314.8626,-3333.2252L13314.8901,-3333.2258L13314.9225,-3333.2322L13314.9646,-3333.2494L13315.0162,-3333.2669L13315.033,-3333.2726L13315.0879,-3333.2889L13315.1825,-3333.312L13315.2,-3333.3159L13315.2271,-3333.3234L13315.2449,-3333.3312L13315.2522,-3333.3366L13315.257,-3333.3402L13315.2778,-3333.3593L13315.316,-3333.4016L13315.3341,-3333.4275L13315.3509,-3333.4467L13315.3911,-3333.4771L13315.4253,-3333.5002L13315.4297,-3333.5035"/>
<path content="1,（有）高南観光自動車,久礼駅前～船戸線,2.0,2.0,2.0," xlink:title="1" d="M13309.5232,-3339.8438L13309.5092,-3339.8388L13309.4857,-3339.8315L13309.4682,-3339.8309L13309.4474,-3339.8371L13309.4298,-3339.8438M13309.2935,-3339.8438L13309.2621,-3339.836L13309.2486,-3339.8317L13309.2405,-3339.8277L13309.2296,-3339.8211L13309.2124,-3339.8112L13309.2057,-3339.8067L13309.1903,-3339.7988L13309.1801,-3339.7967L13309.1352,-3339.796L13309.0822,-3339.7876L13309.0587,-3339.787L13309.0346,-3339.7853L13309.0164,-3339.7825L13309.0075,-3339.7797L13309.0036,-3339.7775L13308.997,-3339.7688L13308.995,-3339.7404L13308.9968,-3339.7301L13309.0042,-3339.7217L13309.0171,-3339.7165L13309.0204,-3339.7149L13309.0346,-3339.712L13309.0507,-3339.7109L13309.0607,-3339.7123L13309.0674,-3339.7132L13309.1426,-3339.7182L13309.1836,-3339.7182L13309.2051,-3339.7132L13309.2286,-3339.703L13309.2863,-3339.6737L13309.3118,-3339.6608L13309.3689,-3339.6371L13309.3937,-3339.6253L13309.4185,-3339.6089L13309.4258,-3339.5995L13309.4261,-3339.5954L13309.4266,-3339.5886L13309.4239,-3339.5819L13309.4172,-3339.5768L13309.4118,-3339.5751L13309.3863,-3339.5588L13309.3568,-3339.5351L13309.3306,-3339.5193L13309.3232,-3339.5137L13309.3198,-3339.5112L13309.3192,-3339.5056L13309.3327,-3339.4869L13309.3326,-3339.4759L13309.3239,-3339.4624L13309.3226,-3339.4562L13309.3313,-3339.4444L13309.34,-3339.4151L13309.3461,-3339.4072L13309.3514,-3339.4032L13309.3666,-3339.3946L13309.3803,-3339.3869L13309.3877,-3339.3813L13309.3994,-3339.3684L13309.4032,-3339.3628L13309.4012,-3339.3538L13309.3937,-3339.348L13309.389,-3339.3463L13309.3689,-3339.3463L13309.3232,-3339.3525L13309.3011,-3339.3531L13309.289,-3339.3463L13309.2802,-3339.339L13309.2661,-3339.3243L13309.2198,-3339.2606L13309.2203,-3339.2505L13309.2272,-3339.2438L13309.2447,-3339.2308L13309.2494,-3339.2241L13309.2547,-3339.2128L13309.2661,-3339.2004L13309.2843,-3339.1863L13309.2888,-3339.1833L13309.2927,-3339.1809L13309.3171,-3339.1647L13309.3505,-3339.1402L13309.3581,-3339.135L13309.3783,-3339.1158L13309.3877,-3339.1017L13309.3978,-3339.0758L13309.4038,-3339.064L13309.4149,-3339.0563L13309.4186,-3339.0561L13309.4327,-3339.0561L13309.4488,-3339.0702L13309.4649,-3339.0894L13309.4716,-3339.0989L13309.4803,-3339.1079L13309.4931,-3339.1164L13309.5065,-3339.1226L13309.5259,-3339.1283L13309.538,-3339.1305L13309.5595,-3339.1305L13309.5756,-3339.1243L13309.5884,-3339.1153L13309.6011,-3339.097L13309.6166,-3339.0691L13309.6341,-3339.033L13309.6495,-3339.0028L13309.6696,-3338.9603L13309.6828,-3338.9341L13309.6878,-3338.9243L13309.7066,-3338.8859L13309.7164,-3338.8637L13309.72,-3338.8465L13309.7207,-3338.8341L13309.7205,-3338.8316L13309.7159,-3338.8251L13309.6861,-3338.7937L13309.6834,-3338.7869L13309.6844,-3338.7798L13309.6921,-3338.7759L13309.7092,-3338.7783L13309.7207,-3338.7811L13309.7563,-3338.7885L13309.7918,-3338.7941L13309.8247,-3338.7969L13309.8332,-3338.7967L13309.8392,-3338.7918L13309.8455,-3338.7772L13309.8582,-3338.7671L13309.8603,-3338.7626L13309.8616,-3338.7445L13309.8656,-3338.7361L13309.8824,-3338.7146L13309.8844,-3338.709L13309.8878,-3338.6814L13309.8885,-3338.6104L13309.8851,-3338.5963L13309.8845,-3338.5922L13309.8815,-3338.5844L13309.8764,-3338.5754L13309.8616,-3338.5586L13309.8341,-3338.5349L13309.8227,-3338.5231L13309.8153,-3338.5067L13309.8153,-3338.4896L13309.8247,-3338.475L13309.8235,-3338.4718L13309.8267,-3338.4656L13309.8334,-3338.4594L13309.8589,-3338.4267L13309.8717,-3338.4075L13309.8844,-3338.3794L13309.8904,-3338.3586L13309.8915,-3338.3505L13309.895,-3338.3456L13309.8963,-3338.3437L13309.9029,-3338.3404L13309.9126,-3338.3399L13309.9664,-3338.3613L13309.9829,-3338.3658L13309.9999,-3338.3692L13310.0248,-3338.3698L13310.0523,-3338.3664L13310.0926,-3338.363L13310.1442,-3338.363L13310.1617,-3338.3602L13310.1906,-3338.3366L13310.249,-3338.2813L13310.2658,-3338.2593L13310.2872,-3338.2278L13310.341,-3338.1709L13310.3638,-3338.1489L13310.3698,-3338.1449L13310.3895,-3338.1269L13310.392,-3338.1247L13310.4189,-3338.1033L13310.435,-3338.0942L13310.4572,-3338.0871L13310.4699,-3338.0813L13310.4793,-3338.0796L13310.5014,-3338.0762L13310.5934,-3338.0723L13310.6034,-3338.074L13310.6551,-3338.1027L13310.6995,-3338.1286L13310.7431,-3338.1534L13310.7691,-3338.1614L13310.7867,-3338.1658L13310.8122,-3338.1715L13310.8377,-3338.1748L13310.8653,-3338.1754L13310.8814,-3338.1737L13310.8908,-3338.1709L13310.9123,-3338.1613L13310.9331,-3338.1444L13310.9418,-3338.1354L13310.9613,-3338.1168L13310.9687,-3338.1117L13310.9989,-3338.0943L13311.0303,-3338.0784L13311.0378,-3338.0785L13311.0441,-3338.0782L13311.0548,-3338.0822L13311.0553,-3338.0824L13311.0741,-3338.0993L13311.0774,-3338.1044L13311.0902,-3338.1208L13311.1144,-3338.1546L13311.1405,-3338.1884L13311.164,-3338.2098L13311.1741,-3338.216L13311.209,-3338.2261L13311.2278,-3338.2301L13311.2473,-3338.2306L13311.2614,-3338.2295L13311.2795,-3338.225L13311.2963,-3338.2137L13311.3278,-3338.1895L13311.3298,-3338.1872L13311.3768,-3338.145L13311.4098,-3338.1196L13311.4514,-3338.0943L13311.4896,-3338.0774L13311.5104,-3338.0712L13311.5212,-3338.0701L13311.5401,-3338.0698L13311.5466,-3338.0723L13311.5608,-3338.0734L13311.6152,-3338.0915L13311.638,-3338.0954L13311.6937,-3338.0988L13311.7615,-3338.1011L13311.8061,-3338.1063L13311.8096,-3338.102L13311.8186,-3338.1022L13311.8495,-3338.0988L13311.8656,-3338.0937L13311.875,-3338.0881L13311.8817,-3338.0802L13311.9012,-3338.0622L13311.9139,-3338.0548L13311.9253,-3338.0503L13311.9414,-3338.0492L13311.9589,-3338.0582L13311.9663,-3338.0639L13311.975,-3338.0729L13311.9804,-3338.083L13311.9898,-3338.1044L13311.9958,-3338.1287L13311.9978,-3338.1416L13311.9998,-3338.1529L13312.0025,-3338.1749L13312.0079,-3338.2019L13312.0112,-3338.2115L13312.028,-3338.2464L13312.0368,-3338.2611L13312.0437,-3338.2706L13312.0455,-3338.2729L13312.0569,-3338.2825L13312.0838,-3338.2926L13312.0945,-3338.2943L13312.1254,-3338.2932L13312.1422,-3338.2898L13312.1529,-3338.2853L13312.1771,-3338.2633L13312.1878,-3338.2453L13312.21,-3338.1873L13312.228,-3338.157L13312.2436,-3338.1342L13312.2603,-3338.1078L13312.3188,-3338.016L13312.3456,-3337.9697L13312.3597,-3337.9512L13312.3625,-3337.9467L13312.3678,-3337.9424L13312.3792,-3337.9365L13312.3872,-3337.9326L13312.4221,-3337.9202L13312.4443,-3337.9151L13312.4631,-3337.9129L13312.4698,-3337.9129L13312.4732,-3337.9117L13312.5154,-3337.9112L13312.5276,-3337.914L13312.5437,-3337.9275L13312.5739,-3337.9658L13312.5886,-3337.9839L13312.6041,-3338.0075L13312.6072,-3338.0164L13312.613,-3338.0234L13312.6195,-3338.0396L13312.6289,-3338.0583L13312.6377,-3338.0712L13312.6464,-3338.0791L13312.6612,-3338.0892L13312.6659,-3338.0921L13312.6773,-3338.0977L13312.6968,-3338.105L13312.7014,-3338.105L13312.7317,-3338.1106L13312.7431,-3338.1135L13312.7666,-3338.1253L13312.776,-3338.1326L13312.7909,-3338.1482L13312.7954,-3338.1546L13312.8046,-3338.1631L13312.8045,-3338.164L13312.8111,-3338.1594L13312.8449,-3338.1402L13312.8505,-3338.1343L13312.8572,-3338.127L13312.8633,-3338.114L13312.8659,-3338.0988L13312.8753,-3338.0386L13312.876,-3338.0256L13312.8754,-3338.0181L13312.8747,-3338.0025L13312.8679,-3337.9704L13312.8505,-3337.9241L13312.8553,-3337.8998L13312.8583,-3337.8879L13312.87,-3337.8419L13312.8767,-3337.8261L13312.8901,-3337.8019L13312.9002,-3337.7788L13312.9284,-3337.6847L13312.9324,-3337.6723L13312.9384,-3337.6616L13312.9465,-3337.6492L13312.9599,-3337.6339L13312.9828,-3337.6142L13313.0064,-3337.5961L13313.062,-3337.5579L13313.0808,-3337.5421L13313.1056,-3337.5139L13313.1157,-3337.4857L13313.1264,-3337.4469L13313.1292,-3337.434L13313.1319,-3337.4204L13313.1331,-3337.4013L13313.1353,-3337.3819L13313.1353,-3337.3667L13313.1347,-3337.3619L13313.1345,-3337.3601L13313.1304,-3337.3488L13313.1181,-3337.3366L13313.1123,-3337.3308L13313.0834,-3337.3122L13313.072,-3337.3054L13313.0647,-3337.302L13313.0467,-3337.2917L13313.0069,-3337.2688L13312.9968,-3337.2614L13312.9925,-3337.2584L13312.9807,-3337.2457L13312.9599,-3337.2136L13312.9492,-3337.1916L13312.9418,-3337.1662L13312.9418,-3337.1313L13312.9426,-3337.1279L13312.9438,-3337.1228L13312.9492,-3337.1133L13312.9572,-3337.1054L13312.9874,-3337.0834L13313.0008,-3337.0699L13313.0116,-3337.0563L13313.025,-3337.0333L13313.0445,-3336.9887L13313.0693,-3336.938L13313.0928,-3336.8941L13313.1183,-3336.8513L13313.1291,-3336.8355L13313.1358,-3336.8281L13313.1667,-3336.7943L13313.1808,-3336.7819L13313.2274,-3336.7479L13313.258,-3336.7312L13313.305,-3336.7076L13313.3251,-3336.698L13313.3721,-3336.676L13313.3822,-3336.6692L13313.3916,-3336.6585L13313.4352,-3336.5864L13313.4485,-3336.5644L13313.4826,-3336.5093L13313.5111,-3336.4607L13313.5184,-3336.445L13313.5305,-3336.4196L13313.5406,-3336.3909L13313.5406,-3336.3644L13313.5346,-3336.3182L13313.5346,-3336.2528L13313.5359,-3336.2348L13313.5392,-3336.2229L13313.5446,-3336.21L13313.556,-3336.1993L13313.5681,-3336.1903L13313.5856,-3336.1818L13313.6023,-3336.1762L13313.6272,-3336.1717L13313.652,-3336.1711L13313.6688,-3336.1734L13313.6997,-3336.1813L13313.7084,-3336.1824L13313.7359,-3336.1852L13313.7628,-3336.188L13313.7849,-3336.192L13313.8279,-3336.2032L13313.84,-3336.2055L13313.8628,-3336.2061L13313.8789,-3336.2032L13313.8916,-3336.1992L13313.9004,-3336.1953L13313.9097,-3336.1914L13313.9279,-3336.1807L13313.9407,-3336.1706L13313.9494,-3336.1604L13313.962,-3336.1359L13313.9736,-3336.1103L13313.9816,-3336.0844L13313.9843,-3336.0646L13313.9843,-3336.0229L13313.9763,-3335.9829L13313.9682,-3335.9542L13313.9561,-3335.93L13313.9427,-3335.9102L13313.9306,-3335.8978L13313.9125,-3335.8843L13313.8883,-3335.8685L13313.846,-3335.8454L13313.8017,-3335.8218L13313.7708,-3335.8043L13313.7292,-3335.7795L13313.7037,-3335.7631L13313.6769,-3335.7384L13313.6554,-3335.7108L13313.6487,-3335.6978L13313.6372,-3335.6736L13313.6292,-3335.6488L13313.6258,-3335.6401L13313.6238,-3335.6251L13313.6238,-3335.6054L13313.6305,-3335.5885L13313.6406,-3335.5749L13313.654,-3335.562L13313.6728,-3335.549L13313.7044,-3335.5344L13313.7164,-3335.5276L13313.75,-3335.4978L13313.7688,-3335.4837L13313.7847,-3335.4774L13313.7943,-3335.4735L13313.8151,-3335.4673L13313.838,-3335.4589L13313.8439,-3335.4574L13313.8447,-3335.4572L13313.866,-3335.4471L13313.8749,-3335.4425L13313.8917,-3335.4301L13313.8977,-3335.4239L13313.9118,-3335.4042L13313.9252,-3335.3868L13313.9346,-3335.3715L13313.9387,-3335.3603L13313.9487,-3335.3225L13313.9505,-3335.3122L13313.9521,-3335.3028L13313.9554,-3335.2555L13313.9575,-3335.216L13313.9575,-3335.2109L13313.9554,-3335.1687L13313.9501,-3335.1078L13313.9429,-3335.0627L13313.942,-3335.0504L13313.9379,-3335.0312L13313.9353,-3335.0188L13313.9299,-3335.0024L13313.9064,-3334.9709L13313.8527,-3334.9117L13313.8386,-3334.8903L13313.8357,-3334.8843L13313.8267,-3334.8688L13313.8239,-3334.8599L13313.8178,-3334.8391L13313.8138,-3334.8159L13313.8124,-3334.8024L13313.8097,-3334.79L13313.8044,-3334.7365L13313.8044,-3334.6987L13313.8064,-3334.6909L13313.8084,-3334.6852L13313.8144,-3334.6728L13313.8286,-3334.6542L13313.8406,-3334.6418L13313.8497,-3334.6333L13313.8608,-3334.625L13313.897,-3334.5934L13313.9219,-3334.5697L13313.9259,-3334.5641L13313.9642,-3334.519L13313.9924,-3334.4818L13313.9991,-3334.4689L13314.0017,-3334.4221L13314.0105,-3334.3837L13314.0145,-3334.3699L13314.0172,-3334.3618L13314.0179,-3334.355L13314.0253,-3334.3218L13314.04,-3334.2096L13314.0414,-3334.1792L13314.0422,-3334.1298L13314.0427,-3334.0958L13314.0441,-3334.0624L13314.0444,-3334.0383L13314.0446,-3334.0261L13314.0381,-3333.9629L13314.0373,-3333.9589L13314.0316,-3333.941L13314.0273,-3333.9273L13314.0078,-3333.8896L13314.0018,-3333.8733L13313.9897,-3333.822L13313.9866,-3333.8021L13313.9857,-3333.8003L13313.9849,-3333.7894L13313.9817,-3333.7483L13313.9797,-3333.7272L13313.9781,-3333.7122L13313.9776,-3333.7076L13313.9756,-3333.6895L13313.9749,-3333.6867L13313.9646,-3333.6715L13313.9598,-3333.6664L13313.9001,-3333.6067L13313.8814,-3333.5785L13313.878,-3333.5661L13313.8726,-3333.5509L13313.8706,-3333.5368L13313.8678,-3333.4981L13313.8666,-3333.4912L13313.8646,-3333.4799L13313.8592,-3333.4354L13313.8592,-3333.4213L13313.8633,-3333.4123L13313.8699,-3333.4055L13313.8995,-3333.3796L13313.9122,-3333.3711L13313.933,-3333.3548L13313.9416,-3333.3491L13313.9471,-3333.3454L13313.9595,-3333.34L13313.9931,-3333.3217L13314.0147,-3333.3118L13314.024,-3333.3081L13314.0296,-3333.308L13314.0423,-3333.3137L13314.0705,-3333.3283L13314.0806,-3333.3317L13314.1463,-3333.3447L13314.1758,-3333.3526L13314.2234,-3333.3683L13314.2603,-3333.3785L13314.3203,-3333.3967L13314.3448,-3333.4055L13314.3602,-3333.4112L13314.3804,-3333.4174L13314.4072,-3333.423L13314.4138,-3333.4256L13314.4159,-3333.4236L13314.4327,-3333.4236L13314.4414,-3333.4224L13314.4682,-3333.41L13314.4897,-3333.3971L13314.54,-3333.3678L13314.5554,-3333.3576L13314.6037,-3333.3289L13314.6379,-3333.3103L13314.658,-3333.2996L13314.6674,-3333.2928L13314.6967,-3333.2771L13314.7278,-3333.2601L13314.762,-3333.2416L13314.7929,-3333.2263L13314.8056,-3333.2235L13314.8264,-3333.2224L13314.8532,-3333.2235L13314.8626,-3333.2252L13314.8901,-3333.2258L13314.9225,-3333.2322L13314.9646,-3333.2494L13315.0162,-3333.2669L13315.033,-3333.2726L13315.0879,-3333.2889L13315.1825,-3333.312L13315.2,-3333.3159L13315.2271,-3333.3234L13315.2449,-3333.3312L13315.2522,-3333.3366L13315.257,-3333.3402L13315.2778,-3333.3593L13315.316,-3333.4016L13315.3341,-3333.4275L13315.3509,-3333.4467L13315.3911,-3333.4771L13315.4253,-3333.5002L13315.4297,-3333.5035"/>
<path content="1,（有）高南観光自動車,久礼駅前～萩中線,1.5,1.5,1.5," xlink:title="1" d="M13312.8046,-3338.1631L13312.8449,-3338.1402L13312.8505,-3338.1343L13312.8572,-3338.127L13312.8633,-3338.114L13312.8659,-3338.0988L13312.8753,-3338.0386L13312.876,-3338.0256L13312.8754,-3338.0181L13312.8747,-3338.0025L13312.8679,-3337.9704L13312.8505,-3337.9241L13312.8553,-3337.8998L13312.8583,-3337.8879L13312.87,-3337.8419L13312.8767,-3337.8261L13312.8901,-3337.8019L13312.9002,-3337.7788L13312.9284,-3337.6847L13312.9324,-3337.6723L13312.9384,-3337.6616L13312.9465,-3337.6492L13312.9599,-3337.6339L13312.9828,-3337.6142L13313.0064,-3337.5961L13313.062,-3337.5579L13313.0808,-3337.5421L13313.1056,-3337.5139L13313.1157,-3337.4857L13313.1264,-3337.4469L13313.1292,-3337.434L13313.1331,-3337.4013L13313.1347,-3337.3619L13313.1345,-3337.3601L13313.1304,-3337.3488L13313.1181,-3337.3366L13313.1123,-3337.3308L13313.0834,-3337.3122L13313.072,-3337.3054L13313.0647,-3337.302L13313.0467,-3337.2917L13313.0069,-3337.2688L13312.9968,-3337.2614L13312.9925,-3337.2584L13312.9807,-3337.2457L13312.9599,-3337.2136L13312.9492,-3337.1916L13312.9418,-3337.1662L13312.9418,-3337.1313L13312.9426,-3337.1279L13312.9438,-3337.1228L13312.9492,-3337.1133L13312.9572,-3337.1054L13312.9874,-3337.0834L13313.0008,-3337.0699L13313.0116,-3337.0563L13313.025,-3337.0333L13313.0445,-3336.9887L13313.0693,-3336.938L13313.0928,-3336.8941L13313.1183,-3336.8513L13313.1291,-3336.8355L13313.1358,-3336.8281L13313.1667,-3336.7943L13313.1808,-3336.7819L13313.2274,-3336.7479L13313.258,-3336.7312L13313.305,-3336.7076L13313.3251,-3336.698L13313.3721,-3336.676L13313.3822,-3336.6692L13313.3916,-3336.6585L13313.4352,-3336.5864L13313.4485,-3336.5644L13313.4826,-3336.5093L13313.5111,-3336.4607L13313.5184,-3336.445L13313.5305,-3336.4196L13313.5406,-3336.3909L13313.5406,-3336.3644L13313.5346,-3336.3182L13313.5346,-3336.2528L13313.5359,-3336.2348L13313.5392,-3336.2229L13313.5446,-3336.21L13313.556,-3336.1993L13313.5681,-3336.1903L13313.5856,-3336.1818L13313.6023,-3336.1762L13313.6272,-3336.1717L13313.652,-3336.1711L13313.6688,-3336.1734L13313.6997,-3336.1813L13313.7084,-3336.1824L13313.7359,-3336.1852L13313.7628,-3336.188L13313.7849,-3336.192L13313.8279,-3336.2032L13313.84,-3336.2055L13313.8628,-3336.2061L13313.8789,-3336.2032L13313.8916,-3336.1992L13313.9004,-3336.1953L13313.9097,-3336.1914L13313.9279,-3336.1807L13313.9407,-3336.1706L13313.9494,-3336.1604L13313.962,-3336.1359L13313.9736,-3336.1103L13313.9816,-3336.0844L13313.9843,-3336.0646L13313.9843,-3336.0229L13313.9763,-3335.9829L13313.9682,-3335.9542L13313.9561,-3335.93L13313.9427,-3335.9102L13313.9306,-3335.8978L13313.9125,-3335.8843L13313.8883,-3335.8685L13313.846,-3335.8454L13313.8017,-3335.8218L13313.7708,-3335.8043L13313.7292,-3335.7795L13313.7037,-3335.7631L13313.6769,-3335.7384L13313.6554,-3335.7108L13313.6487,-3335.6978L13313.6372,-3335.6736L13313.6292,-3335.6488L13313.6258,-3335.6401L13313.6238,-3335.6251L13313.6238,-3335.6054L13313.6305,-3335.5885L13313.6406,-3335.5749L13313.654,-3335.562L13313.6728,-3335.549L13313.7044,-3335.5344L13313.7164,-3335.5276L13313.75,-3335.4978L13313.7688,-3335.4837L13313.7847,-3335.4774L13313.7943,-3335.4735L13313.8151,-3335.4673L13313.838,-3335.4589L13313.8447,-3335.4572L13313.866,-3335.4471L13313.8749,-3335.4425L13313.8917,-3335.4301L13313.8977,-3335.4239L13313.9118,-3335.4042L13313.9252,-3335.3868L13313.9346,-3335.3715L13313.9387,-3335.3603L13313.9487,-3335.3225L13313.9505,-3335.3122L13313.9521,-3335.3028L13313.9554,-3335.2555L13313.9575,-3335.216L13313.9575,-3335.2109L13313.9554,-3335.1687L13313.9501,-3335.1078L13313.9429,-3335.0627L13313.942,-3335.0504L13313.9379,-3335.0312L13313.9353,-3335.0188L13313.9299,-3335.0024L13313.9064,-3334.9709L13313.8527,-3334.9117L13313.8386,-3334.8903L13313.8357,-3334.8843L13313.8267,-3334.8688L13313.8239,-3334.8599L13313.8178,-3334.8391L13313.8138,-3334.8159L13313.8124,-3334.8024L13313.8097,-3334.79L13313.8044,-3334.7365L13313.8044,-3334.6987L13313.8064,-3334.6909L13313.8084,-3334.6852L13313.8144,-3334.6728L13313.8286,-3334.6542L13313.8406,-3334.6418L13313.8497,-3334.6333L13313.8527,-3334.6306L13313.8608,-3334.625L13313.897,-3334.5934L13313.9219,-3334.5697L13313.9259,-3334.5641L13313.9642,-3334.519L13313.9924,-3334.4818L13313.9991,-3334.4689L13314.0017,-3334.4221L13314.0105,-3334.3837L13314.0145,-3334.3699L13314.0172,-3334.3618L13314.0179,-3334.355L13314.0253,-3334.3218L13314.04,-3334.2096L13314.0414,-3334.1792L13314.0422,-3334.1298L13314.0427,-3334.0958L13314.0441,-3334.0624L13314.0444,-3334.0383L13314.0446,-3334.0261L13314.0381,-3333.9629L13314.0373,-3333.9589L13314.0316,-3333.941L13314.0273,-3333.9273L13314.0078,-3333.8896L13314.0018,-3333.8733L13313.9897,-3333.822L13313.9866,-3333.8021L13313.9857,-3333.8003L13313.9849,-3333.7894L13313.9817,-3333.7483L13313.9797,-3333.7272L13313.9781,-3333.7122L13313.9776,-3333.7076L13313.9756,-3333.6895L13313.9749,-3333.6867L13313.9646,-3333.6715L13313.9598,-3333.6664L13313.9001,-3333.6067L13313.8814,-3333.5785L13313.878,-3333.5661L13313.8726,-3333.5509L13313.8706,-3333.5368L13313.8678,-3333.4981L13313.8666,-3333.4912L13313.8646,-3333.4799L13313.8592,-3333.4354L13313.8592,-3333.4213L13313.8633,-3333.4123L13313.8699,-3333.4055L13313.8995,-3333.3796L13313.9122,-3333.3711L13313.933,-3333.3548L13313.9416,-3333.3491L13313.9595,-3333.34L13313.9931,-3333.3217L13314.0147,-3333.3118L13314.024,-3333.3081L13314.0296,-3333.308L13314.0423,-3333.3137L13314.0705,-3333.3283L13314.0806,-3333.3317L13314.1463,-3333.3447L13314.1758,-3333.3526L13314.2234,-3333.3683L13314.2603,-3333.3785L13314.3203,-3333.3967L13314.3458,-3333.4059L13314.3602,-3333.4112L13314.3804,-3333.4174L13314.4072,-3333.423L13314.4138,-3333.4256L13314.4159,-3333.4236L13314.4327,-3333.4236L13314.4414,-3333.4224L13314.4682,-3333.41L13314.4897,-3333.3971L13314.54,-3333.3678L13314.5554,-3333.3576L13314.6037,-3333.3289L13314.6379,-3333.3103L13314.658,-3333.2996L13314.6674,-3333.2928L13314.6967,-3333.2771L13314.7278,-3333.2601L13314.762,-3333.2416L13314.7929,-3333.2263L13314.8056,-3333.2235L13314.8264,-3333.2224L13314.8532,-3333.2235L13314.8626,-3333.2252L13314.8901,-3333.2258L13314.9225,-3333.2322L13314.9646,-3333.2494L13315.0162,-3333.2669L13315.033,-3333.2726L13315.0879,-3333.2889L13315.1825,-3333.312L13315.2,-3333.3159L13315.2271,-3333.3234L13315.2449,-3333.3312L13315.2522,-3333.3366L13315.257,-3333.3402L13315.2778,-3333.3593L13315.316,-3333.4016L13315.3341,-3333.4275L13315.3509,-3333.4467L13315.3911,-3333.4771L13315.4253,-3333.5002L13315.4297,-3333.5035"/>
<path content="1,（有）高南観光自動車,大野見役場前～新改線,1.0,1.0,1.0," xlink:title="1" d="M13311.9808,-3339.6849L13311.9816,-3339.6819L13311.9797,-3339.6766L13311.9783,-3339.6608L13311.9797,-3339.6557L13311.9877,-3339.6451L13312.0133,-3339.6231L13312.024,-3339.618L13312.0434,-3339.6124L13312.0589,-3339.6096L13312.1059,-3339.6056L13312.1811,-3339.6005L13312.2019,-3339.5966L13312.2133,-3339.5915L13312.22,-3339.5876L13312.2435,-3339.5681L13312.2482,-3339.5594L13312.2623,-3339.5329L13312.2643,-3339.5222L13312.263,-3339.5146L13312.2556,-3339.4991L13312.2435,-3339.4697L13312.2354,-3339.4501L13312.2319,-3339.4405L13312.2319,-3339.432L13312.2336,-3339.422L13312.2384,-3339.4142L13312.2435,-3339.4036L13312.267,-3339.3678L13312.2741,-3339.3582L13312.2844,-3339.3484L13312.2945,-3339.343L13312.308,-3339.3385L13312.3314,-3339.334L13312.3563,-3339.3278L13312.3885,-3339.3183L13312.4154,-3339.3081L13312.4234,-3339.3042L13312.435,-3339.2943L13312.4436,-3339.2856L13312.4584,-3339.2664L13312.4798,-3339.2281L13312.4825,-3339.2241L13312.4986,-3339.1971L13312.506,-3339.1864L13312.5153,-3339.1775L13312.5161,-3339.1768L13312.5364,-3339.1608L13312.5584,-3339.1498L13312.5645,-3339.1469L13312.5936,-3339.1301L13312.6,-3339.1238L13312.6047,-3339.1176L13312.6081,-3339.108L13312.6101,-3339.0889L13312.6101,-3339.0466L13312.6081,-3339.0122L13312.6068,-3338.9925L13312.6041,-3338.9813L13312.6041,-3338.9813L13312.6034,-3338.9644L13312.6054,-3338.9559L13312.6088,-3338.9491L13312.6235,-3338.9356L13312.6504,-3338.9227L13312.6591,-3338.9193L13312.688,-3338.9125L13312.7276,-3338.9046L13312.7766,-3338.8967L13312.8142,-3338.89L13312.829,-3338.886L13312.8397,-3338.8809L13312.8538,-3338.8708L13312.8572,-3338.8607L13312.8572,-3338.8257L13312.8511,-3338.7858L13312.8458,-3338.7564L13312.8369,-3338.7283L13312.8323,-3338.7068L13312.827,-3338.6725L13312.8229,-3338.6358L13312.8229,-3338.6088L13312.8297,-3338.5586L13312.8384,-3338.5198L13312.8458,-3338.5062L13312.8579,-3338.4933L13312.876,-3338.4814L13312.8908,-3338.4747L13312.9055,-3338.4691L13312.9492,-3338.4555L13312.9599,-3338.4533L13312.9787,-3338.4476L13313.0123,-3338.4392L13313.0385,-3338.4319L13313.0633,-3338.4223L13313.1278,-3338.3911L13313.1499,-3338.3817L13313.1654,-3338.3738L13313.1667,-3338.3704L13313.1714,-3338.3564L13313.1714,-3338.3237L13313.1674,-3338.3L13313.157,-3338.2667L13313.156,-3338.2634L13313.1378,-3338.2155L13313.1365,-3338.2064L13313.1311,-3338.1929L13313.1197,-3338.1856L13313.1088,-3338.1817L13313.1036,-3338.1834L13313.0956,-3338.1884L13313.0855,-3338.1957L13313.0741,-3338.2025L13313.0552,-3338.2104L13313.0256,-3338.2138L13313.0029,-3338.2177L13312.8981,-3338.2194L13312.8867,-3338.2172L13312.8746,-3338.2127L13312.8538,-3338.2025L13312.8129,-3338.1709L13312.8045,-3338.164L13312.8046,-3338.1631L13312.8111,-3338.1594L13312.8449,-3338.1402L13312.8505,-3338.1343L13312.8572,-3338.127L13312.8633,-3338.114L13312.8659,-3338.0988L13312.8753,-3338.0386L13312.876,-3338.0256L13312.8754,-3338.0181L13312.8747,-3338.0025L13312.8679,-3337.9704L13312.8505,-3337.9241L13312.8553,-3337.8998L13312.8583,-3337.8879L13312.87,-3337.8419L13312.8767,-3337.8261L13312.8901,-3337.8019L13312.9002,-3337.7788L13312.9284,-3337.6847L13312.9324,-3337.6723L13312.9384,-3337.6616L13312.9465,-3337.6492L13312.9599,-3337.6339L13312.9828,-3337.6142L13313.0064,-3337.5961L13313.062,-3337.5579L13313.0808,-3337.5421L13313.1056,-3337.5139L13313.1157,-3337.4857L13313.1264,-3337.4469L13313.1292,-3337.434L13313.1319,-3337.4204L13313.1331,-3337.4013L13313.1353,-3337.3819L13313.1353,-3337.3667L13313.1347,-3337.3619L13313.1345,-3337.3601L13313.1304,-3337.3488L13313.1181,-3337.3366L13313.1123,-3337.3308L13313.0834,-3337.3122L13313.072,-3337.3054L13313.0647,-3337.302L13313.0467,-3337.2917L13313.0069,-3337.2688L13312.9968,-3337.2614L13312.9925,-3337.2584L13312.9807,-3337.2457L13312.9599,-3337.2136L13312.9492,-3337.1916L13312.9418,-3337.1662L13312.9418,-3337.1313L13312.9426,-3337.1279L13312.9438,-3337.1228L13312.9492,-3337.1133L13312.9572,-3337.1054L13312.9874,-3337.0834L13313.0008,-3337.0699L13313.0116,-3337.0563L13313.025,-3337.0333L13313.0445,-3336.9887L13313.0693,-3336.938L13313.0928,-3336.8941L13313.1183,-3336.8513L13313.1291,-3336.8355L13313.1358,-3336.8281L13313.1667,-3336.7943L13313.1808,-3336.7819L13313.2274,-3336.7479L13313.258,-3336.7312L13313.305,-3336.7076L13313.3251,-3336.698L13313.3721,-3336.676L13313.3822,-3336.6692L13313.3916,-3336.6585L13313.4352,-3336.5864L13313.4485,-3336.5644L13313.4826,-3336.5093L13313.5111,-3336.4607L13313.5184,-3336.445L13313.5305,-3336.4196L13313.5406,-3336.3909L13313.5406,-3336.3644L13313.5346,-3336.3182L13313.5346,-3336.2528L13313.5359,-3336.2348L13313.5392,-3336.2229L13313.5446,-3336.21L13313.556,-3336.1993L13313.5681,-3336.1903L13313.5856,-3336.1818L13313.6023,-3336.1762L13313.6272,-3336.1717L13313.652,-3336.1711L13313.6688,-3336.1734L13313.6997,-3336.1813L13313.7084,-3336.1824L13313.7359,-3336.1852L13313.7628,-3336.188L13313.7849,-3336.192L13313.8279,-3336.2032L13313.84,-3336.2055L13313.8628,-3336.2061L13313.8789,-3336.2032L13313.8916,-3336.1992L13313.9097,-3336.1914L13313.9279,-3336.1807L13313.9407,-3336.1706L13313.9494,-3336.1604L13313.962,-3336.1359L13313.9736,-3336.1103L13313.9816,-3336.0844L13313.9843,-3336.0646L13313.9843,-3336.0229L13313.9763,-3335.9829L13313.9682,-3335.9542L13313.9561,-3335.93L13313.9427,-3335.9102L13313.9306,-3335.8978L13313.9125,-3335.8843L13313.8883,-3335.8685L13313.846,-3335.8454L13313.8017,-3335.8218L13313.7708,-3335.8043L13313.7292,-3335.7795L13313.7037,-3335.7631L13313.6769,-3335.7384L13313.6554,-3335.7108L13313.6487,-3335.6978L13313.6372,-3335.6736L13313.6292,-3335.6488L13313.6288,-3335.647L13313.6258,-3335.6401L13313.624,-3335.6257L13313.6238,-3335.6251L13313.6238,-3335.6054L13313.6305,-3335.5885L13313.6406,-3335.5749L13313.654,-3335.562L13313.6728,-3335.549L13313.7044,-3335.5344L13313.7164,-3335.5276L13313.75,-3335.4978L13313.7688,-3335.4837L13313.7847,-3335.4774L13313.7943,-3335.4735L13313.8151,-3335.4673L13313.838,-3335.4589L13313.8447,-3335.4572L13313.866,-3335.4471L13313.8749,-3335.4425L13313.8917,-3335.4301L13313.8977,-3335.4239L13313.9118,-3335.4042L13313.9252,-3335.3868L13313.9346,-3335.3715L13313.9387,-3335.3603L13313.9487,-3335.3225L13313.9505,-3335.3122L13313.9521,-3335.3028L13313.9554,-3335.2555L13313.9575,-3335.216L13313.9575,-3335.2109L13313.9554,-3335.1687L13313.9501,-3335.1078L13313.9429,-3335.0627L13313.942,-3335.0504L13313.9379,-3335.0312L13313.9353,-3335.0188L13313.9299,-3335.0024L13313.9064,-3334.9709L13313.8527,-3334.9117L13313.8386,-3334.8903L13313.8357,-3334.8843L13313.8267,-3334.8688L13313.8239,-3334.8599L13313.8178,-3334.8391L13313.8138,-3334.8159L13313.8124,-3334.8024L13313.8097,-3334.79L13313.8044,-3334.7365L13313.8044,-3334.6987L13313.8064,-3334.6909L13313.8084,-3334.6852L13313.8144,-3334.6728L13313.8286,-3334.6542L13313.8406,-3334.6418L13313.8497,-3334.6333L13313.8608,-3334.625L13313.897,-3334.5934L13313.9219,-3334.5697L13313.9259,-3334.5641L13313.9642,-3334.519L13313.9924,-3334.4818L13313.9991,-3334.4689L13314.0017,-3334.4221L13314.0105,-3334.3837L13314.0145,-3334.3699L13314.0172,-3334.3618L13314.0179,-3334.355L13314.0253,-3334.3218L13314.04,-3334.2096L13314.0414,-3334.1792L13314.0422,-3334.1298L13314.0427,-3334.0958L13314.0441,-3334.0624L13314.0444,-3334.0383L13314.0446,-3334.0261L13314.0381,-3333.9629L13314.0373,-3333.9589L13314.0316,-3333.941L13314.0273,-3333.9273L13314.0078,-3333.8896L13314.0018,-3333.8733L13313.9897,-3333.822L13313.9866,-3333.8021"/>
<path content="1,（有）高南観光自動車,窪川～北芹田～大野見役場前線,1.0,1.0,1.0," xlink:title="1" d="M13310.6747,-3333.2986L13310.6829,-3333.2843L13310.707,-3333.242L13310.7291,-3333.2003L13310.7369,-3333.176L13310.7426,-3333.1592L13310.7426,-3333.131L13310.7406,-3333.1214L13310.7285,-3333.0871L13310.7211,-3333.0684L13310.7131,-3333.0566L13310.7014,-3333.0477L13310.6891,-3333.0415L13310.6768,-3333.0391L13310.6614,-3333.0369L13310.644,-3333.0347L13310.6138,-3333.0363L13310.5916,-3333.0391L13310.5848,-3333.0413L13310.5782,-3333.0437L13310.5709,-3333.0491L13310.5511,-3333.0708L13310.5441,-3333.0775L13310.5105,-3333.109L13310.4978,-3333.1282L13310.4736,-3333.1766L13310.4689,-3333.1902L13310.4622,-3333.202L13310.4475,-3333.2172L13310.4387,-3333.2245L13310.4273,-3333.2291L13310.4139,-3333.2324L13310.3898,-3333.2358L13310.3603,-3333.2358L13310.3485,-3333.2344L13310.335,-3333.2318L13310.3335,-3333.2253L13310.3323,-3333.2222L13310.3317,-3333.2125L13310.3323,-3333.2009L13310.3347,-3333.1918L13310.3415,-3333.1845L13310.365,-3333.1654L13310.3744,-3333.1547L13310.3801,-3333.1444L13310.3837,-3333.1394L13310.3918,-3333.1191L13310.3938,-3333.1084L13310.3925,-3333.0898L13310.3898,-3333.078L13310.3891,-3333.0645L13310.3911,-3333.0526L13310.3958,-3333.0358L13310.3978,-3333.0222L13310.3978,-3333.0031L13310.3904,-3332.9851L13310.3797,-3332.9676L13310.3717,-3332.9558L13310.3495,-3332.9141L13310.3469,-3332.9039L13310.3422,-3332.8515L13310.3401,-3332.7822L13310.3382,-3332.7568L13310.3408,-3332.7377L13310.3462,-3332.7219L13310.3563,-3332.705L13310.3656,-3332.692L13310.375,-3332.6762L13310.3904,-3332.6363L13310.3938,-3332.6261L13310.3939,-3332.6235L13310.3938,-3332.6227L13310.3933,-3332.6163L13310.3901,-3332.6133L13310.3817,-3332.6114L13310.3777,-3332.6126L13310.3769,-3332.6129L13310.3589,-3332.6204L13310.3234,-3332.6458L13310.3033,-3332.6588L13310.2912,-3332.6633L13310.2677,-3332.6655L13310.2604,-3332.6684L13310.2074,-3332.6858L13310.1624,-3332.696L13310.1483,-3332.6971L13310.1269,-3332.6965L13310.1047,-3332.692L13310.0826,-3332.6858L13310.0779,-3332.6852L13310.037,-3332.6751L13310.0169,-3332.6711L13309.9936,-3332.662L13309.982,-3332.6554L13309.9746,-3332.6475L13309.9633,-3332.6306L13309.9485,-3332.6154L13309.9163,-3332.5883L13309.8948,-3332.5731L13309.8881,-3332.5647L13309.87,-3332.5421L13309.8533,-3332.5258L13309.8472,-3332.5156L13309.8412,-3332.4982L13309.8399,-3332.4796L13309.8358,-3332.4548L13309.8298,-3332.3798L13309.8271,-3332.3657L13309.8264,-3332.3472L13309.8352,-3332.2863L13309.8405,-3332.2423L13309.8452,-3332.2215L13309.8546,-3332.1634L13309.8559,-3332.1533L13309.8575,-3332.1479L13309.8586,-3332.1437L13309.8667,-3332.1054L13309.8908,-3332.0017L13309.8969,-3331.9623L13309.8962,-3331.9369L13309.8908,-3331.9183L13309.8779,-3331.8944L13309.871,-3331.883L13309.8439,-3331.84L13309.8318,-3331.8175L13309.8244,-3331.7989L13309.8244,-3331.778L13309.8291,-3331.7589L13309.8392,-3331.7352L13309.8479,-3331.7205L13309.861,-3331.7052L13309.8601,-3331.7036L13309.8667,-3331.6986L13309.876,-3331.6911L13309.9305,-3331.6405L13309.9358,-3331.6372L13309.9398,-3331.6343L13309.9445,-3331.631L13309.9552,-3331.6281L13309.9713,-3331.6276L13310.0243,-3331.636L13310.1175,-3331.6349L13310.1191,-3331.6334L13310.1209,-3331.6338L13310.1356,-3331.6321L13310.2342,-3331.6141L13310.2617,-3331.6096L13310.3576,-3331.5988L13310.3891,-3331.5966L13310.3958,-3331.5957L13310.4493,-3331.588L13310.4607,-3331.5872L13310.4823,-3331.5853L13310.5057,-3331.5833L13310.5085,-3331.5831L13310.5441,-3331.5786L13310.5877,-3331.5673L13310.6051,-3331.5611L13310.6138,-3331.5555L13310.6406,-3331.5414L13310.6681,-3331.5222L13310.6815,-3331.5098L13310.705,-3331.4856L13310.7111,-3331.4754L13310.7332,-3331.4405L13310.7493,-3331.4084L13310.7721,-3331.3661L13310.7895,-3331.3419L13310.7969,-3331.3295L13310.8056,-3331.3115L13310.8144,-3331.2959L13310.8251,-3331.2771L13310.8251,-3331.2732L13310.8264,-3331.2686L13310.8271,-3331.2619L13310.8365,-3331.2168L13310.8425,-3331.1712L13310.8465,-3331.1289L13310.8477,-3331.1071L13310.8486,-3331.1002L13310.8512,-3331.0765L13310.8539,-3331.0652L13310.8556,-3331.0547"/>
<path content="1,（有）高南観光自動車,窪川～北芹田～大野見役場前線,1.0,1.0,1.0," xlink:title="1" d="M13310.6747,-3333.2986L13310.6694,-3333.3085L13310.6111,-3333.4099L13310.6044,-3333.424L13310.5937,-3333.4505L13310.5682,-3333.499L13310.5481,-3333.5502L13310.5319,-3333.6038L13310.5219,-3333.6303L13310.5105,-3333.6539L13310.5105,-3333.6697L13310.5127,-3333.6714L13310.5263,-3333.6996L13310.5524,-3333.7509L13310.5639,-3333.7666L13310.586,-3333.7892L13310.6035,-3333.8027L13310.6229,-3333.8145L13310.6371,-3333.8202L13310.6491,-3333.8224L13310.6787,-3333.8236L13310.6988,-3333.8213L13310.7377,-3333.8134L13310.7403,-3333.8108"/>
<path content="1,（有）高南観光自動車,窪川～北芹田～大野見役場前線,1.0,1.0,1.0," xlink:title="1" d="M13313.9866,-3333.8021L13313.9857,-3333.8003L13313.9779,-3333.8016L13313.9064,-3333.7752L13313.8699,-3333.7452L13313.863,-3333.741L13313.848,-3333.7318L13313.8359,-3333.7256L13313.8051,-3333.7126L13313.7324,-3333.6859L13313.6864,-3333.6658L13313.6775,-3333.6619L13313.5561,-3333.6157L13313.5491,-3333.6139L13313.5427,-3333.6123L13313.5339,-3333.6084L13313.487,-3333.5819L13313.4749,-3333.574L13313.4434,-3333.5492L13313.4407,-3333.5481L13313.4089,-3333.5241L13313.4004,-3333.5177L13313.3978,-3333.5165L13313.375,-3333.4979L13313.334,-3333.4658L13313.3041,-3333.4454L13313.2549,-3333.4089L13313.2341,-3333.3954L13313.2066,-3333.383L13313.1831,-3333.3767L13313.1395,-3333.3688L13313.1069,-3333.3618L13313.1029,-3333.3593L13313.0463,-3333.3452L13313.0081,-3333.3412L13312.9833,-3333.3418L13312.9672,-3333.3441L13312.9551,-3333.3486L13312.941,-3333.3593L13312.9296,-3333.3695L13312.8861,-3333.441L13312.8767,-3333.459L13312.8596,-3333.5042L13312.8559,-3333.5114L13312.8532,-3333.521L13312.8505,-3333.5391L13312.8512,-3333.5734L13312.8552,-3333.5965L13312.8639,-3333.6264L13312.8826,-3333.6715L13312.9404,-3333.8022L13312.9451,-3333.809L13312.9652,-3333.8451L13312.9967,-3333.8918L13313.0263,-3333.9324L13313.0384,-3333.9504L13313.0444,-3333.9628L13313.0491,-3333.9707L13313.0518,-3333.9932L13313.051,-3334.0056L13313.0505,-3334.0152L13313.0431,-3334.0338L13313.0344,-3334.0496L13313.0297,-3334.0558L13313.0136,-3334.0699L13312.9981,-3334.0783L13312.9907,-3334.0811L13312.9813,-3334.0851L13312.9672,-3334.0902L13312.9256,-3334.0952L13312.8967,-3334.1003L13312.8041,-3334.1133L13312.7517,-3334.1212L13312.7289,-3334.1212L13312.6933,-3334.1161L13312.6624,-3334.1071L13312.6396,-3334.0992L13312.608,-3334.0851L13312.5463,-3334.0502L13312.5185,-3334.034L13312.4979,-3334.0237L13312.4886,-3334.0186L13312.4644,-3334.0045L13312.4442,-3333.9932L13312.4261,-3333.9837L13312.369,-3333.9504L13312.3207,-3333.9239L13312.3073,-3333.9205L13312.2962,-3333.92L13312.2818,-3333.9205L13312.2562,-3333.9228L13312.2435,-3333.925L13312.1878,-3333.9517L13312.1683,-3333.9638L13312.1588,-3333.9719L13312.1538,-3333.9801L13312.1513,-3333.9894L13312.1538,-3333.9987L13312.1589,-3334.0101L13312.1723,-3334.0248L13312.1797,-3334.0378L13312.1831,-3334.0411L13312.1905,-3334.0541L13312.2046,-3334.0868L13312.2059,-3334.089L13312.2088,-3334.0974L13312.2149,-3334.1193L13312.2153,-3334.1206L13312.2207,-3334.1442L13312.222,-3334.1623L13312.22,-3334.2164L13312.218,-3334.231L13312.2175,-3334.2319L13312.1401,-3334.2305L13312.0761,-3334.2336L13311.9997,-3334.2501L13311.9792,-3334.2554L13311.9742,-3334.2566L13311.9663,-3334.2575L13311.9286,-3334.2637L13311.9004,-3334.2648L13311.8884,-3334.2614L13311.8642,-3334.2502L13311.8253,-3334.2293L13311.787,-3334.2107L13311.7716,-3334.2L13311.7561,-3334.1848L13311.7306,-3334.1453L13311.7172,-3334.1245L13311.7145,-3334.1177L13311.697,-3334.0721L13311.6809,-3334.0439L13311.6876,-3334.0219L13311.7044,-3333.9887L13311.7078,-3333.9566L13311.7111,-3333.9459L13311.7205,-3333.9278L13311.7569,-3333.8829L13311.7628,-3333.8735L13311.7991,-3333.8174L13311.8253,-3333.7717L13311.8313,-3333.7588L13311.8609,-3333.7109L13311.882,-3333.6913L13311.9049,-3333.6715L13311.9086,-3333.6643L13311.9249,-3333.6495L13311.9464,-3333.6157L13311.9497,-3333.6055L13311.9544,-3333.5943L13311.9578,-3333.5711L13311.9578,-3333.5464L13311.9538,-3333.5317L13311.9531,-3333.5244L13311.9451,-3333.4951L13311.939,-3333.4861L13311.9384,-3333.4821L13311.9276,-3333.4624L13311.9229,-3333.4556L13311.9028,-3333.4353L13311.8961,-3333.4269L13311.8827,-3333.4173L13311.8679,-3333.4077L13311.8525,-3333.3998L13311.8364,-3333.3959L13311.8257,-3333.3953L13311.8163,-3333.3964L13311.8096,-3333.3953L13311.7781,-3333.3947L13311.7324,-3333.4004L13311.7097,-3333.4049L13311.6963,-3333.4139L13311.6701,-3333.4218L13311.6439,-3333.4319L13311.5909,-3333.4556L13311.5614,-3333.4663L13311.5084,-3333.4816L13311.4897,-3333.4849L13311.4722,-3333.4872L13311.424,-3333.4871L13311.4059,-3333.4826L13311.3998,-3333.4804L13311.381,-3333.4674L13311.3576,-3333.4483L13311.3515,-3333.4438L13311.3415,-3333.437L13311.326,-3333.4308L13311.3173,-3333.4269L13311.2854,-3333.4133L13311.2757,-3333.4083L13311.269,-3333.4015L13311.2677,-3333.3993L13311.2569,-3333.3807L13311.2342,-3333.3423L13311.2261,-3333.3316L13311.2194,-3333.3249L13311.2053,-3333.3153L13311.1859,-3333.3063L13311.1577,-3333.2989L13311.1309,-3333.2933L13311.0732,-3333.2866L13311.037,-3333.2871L13311.0035,-3333.2927L13310.9746,-3333.3006L13310.9411,-3333.3169L13310.9243,-3333.3265L13310.9096,-3333.3378L13310.8888,-3333.3575L13310.8586,-3333.3897L13310.8445,-3333.4004L13310.8304,-3333.4082L13310.8237,-3333.4105L13310.817,-3333.4105L13310.8089,-3333.4071L13310.8016,-3333.397L13310.8016,-3333.3959L13310.8022,-3333.3857L13310.8056,-3333.3756L13310.8056,-3333.3739L13310.8056,-3333.3626L13310.8016,-3333.3536L13310.7982,-3333.3496L13310.7911,-3333.3438L13310.7674,-3333.3333L13310.6833,-3333.3026L13310.6749,-3333.2987L13310.6747,-3333.2986"/>
<path content="1,（有）高南観光自動車,窪川～大野見役場前線,3.0,3.0,3.0," xlink:title="1" d="M13313.9866,-3333.8021L13313.9857,-3333.8003L13313.9779,-3333.8016L13313.9064,-3333.7752L13313.8699,-3333.7452L13313.863,-3333.741L13313.848,-3333.7318L13313.8359,-3333.7256L13313.8051,-3333.7126L13313.7324,-3333.6859L13313.6864,-3333.6658L13313.6775,-3333.6619L13313.5561,-3333.6157L13313.5491,-3333.6139L13313.5427,-3333.6123L13313.5339,-3333.6084L13313.487,-3333.5819L13313.4749,-3333.574L13313.4434,-3333.5492L13313.4407,-3333.5481L13313.4089,-3333.5241L13313.334,-3333.4658L13313.3041,-3333.4454L13313.2549,-3333.4089L13313.2341,-3333.3954L13313.2066,-3333.383L13313.1831,-3333.3767L13313.1395,-3333.3688L13313.1069,-3333.3618L13313.1029,-3333.3593L13313.0463,-3333.3452L13313.0081,-3333.3412L13312.9833,-3333.3418L13312.9672,-3333.3441L13312.9551,-3333.3486L13312.941,-3333.3593L13312.9296,-3333.3695L13312.8861,-3333.441L13312.8767,-3333.459L13312.8596,-3333.5042L13312.8559,-3333.5114L13312.8532,-3333.521L13312.8505,-3333.5391L13312.8512,-3333.5734L13312.8552,-3333.5965L13312.8639,-3333.6264L13312.8826,-3333.6715L13312.9404,-3333.8022L13312.9451,-3333.809L13312.9652,-3333.8451L13312.9967,-3333.8918L13313.0263,-3333.9324L13313.0384,-3333.9504L13313.0444,-3333.9628L13313.0491,-3333.9707L13313.0518,-3333.9932L13313.051,-3334.0056L13313.0505,-3334.0152L13313.0431,-3334.0338L13313.0344,-3334.0496L13313.0297,-3334.0558L13313.0136,-3334.0699L13312.9981,-3334.0783L13312.9907,-3334.0811L13312.9813,-3334.0851L13312.9672,-3334.0902L13312.9256,-3334.0952L13312.8967,-3334.1003L13312.8041,-3334.1133L13312.7517,-3334.1212L13312.7289,-3334.1212L13312.6933,-3334.1161L13312.6624,-3334.1071L13312.6396,-3334.0992L13312.608,-3334.0851L13312.5463,-3334.0502L13312.5185,-3334.034L13312.4979,-3334.0237L13312.4886,-3334.0186L13312.4644,-3334.0045L13312.4442,-3333.9932L13312.4261,-3333.9837L13312.369,-3333.9504L13312.3207,-3333.9239L13312.3073,-3333.9205L13312.2962,-3333.92L13312.2818,-3333.9205L13312.2562,-3333.9228L13312.2435,-3333.925L13312.1878,-3333.9517L13312.1683,-3333.9638L13312.1588,-3333.9719L13312.1538,-3333.9801L13312.1513,-3333.9894L13312.1538,-3333.9987L13312.1589,-3334.0101L13312.1723,-3334.0248L13312.1797,-3334.0378L13312.1831,-3334.0411L13312.1905,-3334.0541L13312.2046,-3334.0868L13312.2088,-3334.0974L13312.2153,-3334.1206L13312.2207,-3334.1442L13312.222,-3334.1623L13312.22,-3334.2164L13312.218,-3334.231L13312.218,-3334.2311L13312.2175,-3334.2319L13312.1401,-3334.2305L13312.0761,-3334.2336L13311.9997,-3334.2501L13311.9792,-3334.2554L13311.9742,-3334.2566L13311.9663,-3334.2575L13311.9286,-3334.2637L13311.9004,-3334.2648L13311.8884,-3334.2614L13311.8642,-3334.2502L13311.8253,-3334.2293L13311.787,-3334.2107L13311.7716,-3334.2L13311.7561,-3334.1848L13311.7306,-3334.1453L13311.7172,-3334.1245L13311.7145,-3334.1177L13311.697,-3334.0721L13311.6809,-3334.0439L13311.6876,-3334.0219L13311.7044,-3333.9887L13311.7078,-3333.9566L13311.7111,-3333.9459L13311.7205,-3333.9278L13311.7575,-3333.8822L13311.7628,-3333.8735L13311.7991,-3333.8174L13311.8253,-3333.7717L13311.8313,-3333.7588L13311.8609,-3333.7109L13311.882,-3333.6913L13311.9049,-3333.6715L13311.9086,-3333.6643L13311.9249,-3333.6495L13311.9464,-3333.6157L13311.9497,-3333.6055L13311.9544,-3333.5943L13311.9578,-3333.5711L13311.9578,-3333.5464L13311.9538,-3333.5317L13311.9531,-3333.5244L13311.9451,-3333.4951L13311.939,-3333.4861L13311.9384,-3333.4821L13311.9276,-3333.4624L13311.9229,-3333.4556L13311.9028,-3333.4353L13311.8961,-3333.4269L13311.8827,-3333.4173L13311.8679,-3333.4077L13311.8525,-3333.3998L13311.8364,-3333.3959L13311.8257,-3333.3953L13311.8163,-3333.3964L13311.8096,-3333.3953L13311.7781,-3333.3947L13311.7324,-3333.4004L13311.7097,-3333.4049L13311.6963,-3333.4139L13311.6701,-3333.4218L13311.6439,-3333.4319L13311.5909,-3333.4556L13311.5614,-3333.4663L13311.5084,-3333.4816L13311.4897,-3333.4849L13311.4722,-3333.4872L13311.424,-3333.4871L13311.4059,-3333.4826L13311.3998,-3333.4804L13311.381,-3333.4674L13311.3576,-3333.4483L13311.3515,-3333.4438L13311.3415,-3333.437L13311.326,-3333.4308L13311.3173,-3333.4269L13311.2854,-3333.4133L13311.2757,-3333.4083L13311.269,-3333.4015L13311.2677,-3333.3993L13311.2569,-3333.3807L13311.2342,-3333.3423L13311.2261,-3333.3316L13311.2194,-3333.3249L13311.2053,-3333.3153L13311.1859,-3333.3063L13311.1577,-3333.2989L13311.1309,-3333.2933L13311.0732,-3333.2866L13311.037,-3333.2871L13311.0035,-3333.2927L13310.9746,-3333.3006L13310.9411,-3333.3169L13310.9243,-3333.3265L13310.9096,-3333.3378L13310.8888,-3333.3575L13310.8586,-3333.3897L13310.8445,-3333.4004L13310.8304,-3333.4082L13310.8237,-3333.4105L13310.817,-3333.4105L13310.8089,-3333.4071L13310.8016,-3333.397L13310.8016,-3333.3959L13310.8022,-3333.3857L13310.8056,-3333.3756L13310.8056,-3333.3739L13310.8056,-3333.3626L13310.8016,-3333.3536L13310.7982,-3333.3496L13310.7911,-3333.3438L13310.7674,-3333.3333L13310.6833,-3333.3026L13310.6749,-3333.2987L13310.6747,-3333.2986L13310.6829,-3333.2843L13310.707,-3333.242L13310.7291,-3333.2003L13310.7369,-3333.176L13310.7426,-3333.1592L13310.7426,-3333.131L13310.7406,-3333.1214L13310.7285,-3333.0871L13310.7211,-3333.0684L13310.7131,-3333.0566L13310.7014,-3333.0477L13310.6891,-3333.0415L13310.6768,-3333.0391L13310.6614,-3333.0369L13310.644,-3333.0347L13310.6138,-3333.0363L13310.5916,-3333.0391L13310.5848,-3333.0413L13310.5782,-3333.0437L13310.5709,-3333.0491L13310.5511,-3333.0708L13310.5441,-3333.0775L13310.5105,-3333.109L13310.4978,-3333.1282L13310.4736,-3333.1766L13310.4689,-3333.1902L13310.4622,-3333.202L13310.4475,-3333.2172L13310.4387,-3333.2245L13310.4273,-3333.2291L13310.4139,-3333.2324L13310.3898,-3333.2358L13310.3603,-3333.2358L13310.3485,-3333.2344L13310.335,-3333.2318L13310.3335,-3333.2253L13310.3323,-3333.2222L13310.3317,-3333.2125L13310.3323,-3333.2009L13310.3347,-3333.1918L13310.3415,-3333.1845L13310.365,-3333.1654L13310.3744,-3333.1547L13310.3801,-3333.1444L13310.3918,-3333.1191L13310.3938,-3333.1084L13310.3925,-3333.0898L13310.3898,-3333.078L13310.3891,-3333.0645L13310.3911,-3333.0526L13310.3958,-3333.0358L13310.3978,-3333.0222L13310.3978,-3333.0031L13310.3904,-3332.9851L13310.3797,-3332.9676L13310.3717,-3332.9558L13310.3495,-3332.9141L13310.3469,-3332.9039L13310.3422,-3332.8515L13310.3401,-3332.7822L13310.3382,-3332.7568L13310.3408,-3332.7377L13310.3462,-3332.7219L13310.3563,-3332.705L13310.3656,-3332.692L13310.375,-3332.6762L13310.3904,-3332.6363L13310.3938,-3332.6261L13310.3939,-3332.6235L13310.3933,-3332.6163L13310.3901,-3332.6133L13310.3817,-3332.6114L13310.3777,-3332.6126L13310.3769,-3332.6129L13310.3589,-3332.6204L13310.3234,-3332.6458L13310.3033,-3332.6588L13310.2912,-3332.6633L13310.2677,-3332.6655L13310.2604,-3332.6684L13310.2074,-3332.6858L13310.1624,-3332.696L13310.1483,-3332.6971L13310.1269,-3332.6965L13310.1047,-3332.692L13310.0826,-3332.6858L13310.0779,-3332.6852L13310.037,-3332.6751L13310.0169,-3332.6711L13309.9954,-3332.6649L13309.9936,-3332.662L13309.982,-3332.6554L13309.9746,-3332.6475L13309.9633,-3332.6306L13309.9485,-3332.6154L13309.9163,-3332.5883L13309.8948,-3332.5731L13309.8881,-3332.5647L13309.87,-3332.5421L13309.8533,-3332.5258L13309.8472,-3332.5156L13309.8412,-3332.4982L13309.8399,-3332.4796L13309.8358,-3332.4548L13309.8298,-3332.3798L13309.8271,-3332.3657L13309.8264,-3332.3472L13309.8352,-3332.2863L13309.8405,-3332.2423L13309.8452,-3332.2215L13309.8546,-3332.1634L13309.8559,-3332.1533L13309.8575,-3332.1479L13309.8586,-3332.1437L13309.8667,-3332.1054L13309.8908,-3332.0017L13309.8969,-3331.9623L13309.8962,-3331.9369L13309.8908,-3331.9183L13309.8779,-3331.8944L13309.871,-3331.883L13309.8439,-3331.84L13309.8318,-3331.8175L13309.8244,-3331.7989L13309.8244,-3331.778L13309.8291,-3331.7589L13309.8392,-3331.7352L13309.8479,-3331.7205L13309.8601,-3331.7036L13309.8667,-3331.6986L13309.876,-3331.6911L13309.9305,-3331.6405L13309.9358,-3331.6372L13309.9398,-3331.6343L13309.9445,-3331.631L13309.9552,-3331.6281L13309.9713,-3331.6276L13310.0243,-3331.636L13310.1191,-3331.6334L13310.1356,-3331.6321L13310.2342,-3331.6141L13310.2617,-3331.6096L13310.3576,-3331.5988L13310.3891,-3331.5966L13310.4493,-3331.588L13310.4607,-3331.5872L13310.4823,-3331.5853L13310.5057,-3331.5833L13310.5085,-3331.5831L13310.5441,-3331.5786L13310.5877,-3331.5673L13310.6051,-3331.5611L13310.6138,-3331.5555L13310.6406,-3331.5414L13310.6681,-3331.5222L13310.6815,-3331.5098L13310.705,-3331.4856L13310.7111,-3331.4754L13310.7332,-3331.4405L13310.7493,-3331.4084L13310.7721,-3331.3661L13310.7895,-3331.3419L13310.7969,-3331.3295L13310.8056,-3331.3115L13310.8144,-3331.2959L13310.8251,-3331.2771L13310.8251,-3331.2732L13310.8264,-3331.2686L13310.8271,-3331.2619L13310.8365,-3331.2168L13310.8425,-3331.1712L13310.8465,-3331.1289L13310.8477,-3331.1071L13310.8512,-3331.0765L13310.8539,-3331.0652L13310.8556,-3331.0547"/>
<path content="1,（有）高南観光自動車,窪川～滝本～松葉川温泉,1.0,1.0,1.0," xlink:title="1" d="M13307.1377,-3331.3156L13307.1203,-3331.3232L13307.1082,-3331.3345L13307.1035,-3331.339L13307.1004,-3331.3418L13307.0845,-3331.3507L13307.0683,-3331.3558L13307.0519,-3331.3474L13307.0277,-3331.335L13307.0022,-3331.3164L13306.9794,-3331.3035L13306.9339,-3331.2809L13306.9245,-3331.2714L13306.9151,-3331.2573L13306.9124,-3331.2438L13306.9144,-3331.2353L13306.9191,-3331.2251L13306.9392,-3331.2054L13306.9533,-3331.1941L13306.9667,-3331.1862L13306.9922,-3331.1739L13307.009,-3331.1683L13307.0445,-3331.1632L13307.0532,-3331.1598L13307.0606,-3331.153L13307.0633,-3331.1485L13307.0673,-3331.1361L13307.066,-3331.1232L13307.0589,-3331.1068L13307.0519,-3331.0877L13307.0398,-3331.0601L13307.0366,-3331.0547M13307.1761,-3331.0547L13307.1786,-3331.1057L13307.1766,-3331.1666L13307.1773,-3331.1716L13307.1813,-3331.179L13307.188,-3331.184L13307.1961,-3331.1869L13307.2082,-3331.1863L13307.2182,-3331.1829L13307.2276,-3331.1829L13307.241,-3331.1874L13307.2504,-3331.1931L13307.2591,-3331.1931L13307.2645,-3331.1914L13307.2786,-3331.1857L13307.3564,-3331.1299L13307.3691,-3331.1215L13307.4134,-3331.0978L13307.4342,-3331.0894L13307.4501,-3331.0848L13307.457,-3331.0837L13307.4791,-3331.082L13307.5267,-3331.0832L13307.5469,-3331.0854L13307.5985,-3331.0848L13307.6213,-3331.0815L13307.6293,-3331.0786L13307.6394,-3331.0708L13307.6394,-3331.0547"/>
<path content="1,（有）高南観光自動車,窪川～米奥～松葉川温泉,6.0,6.0,6.0," xlink:title="1" d="M13307.1377,-3331.3156L13307.1203,-3331.3232L13307.1082,-3331.3345L13307.1035,-3331.339L13307.1004,-3331.3418L13307.0845,-3331.3507L13307.0683,-3331.3558L13307.0519,-3331.3474L13307.0277,-3331.335L13307.0022,-3331.3164L13306.9794,-3331.3035L13306.9339,-3331.2809L13306.9245,-3331.2714L13306.9151,-3331.2573L13306.9124,-3331.2438L13306.9144,-3331.2353L13306.9191,-3331.2251L13306.9392,-3331.2054L13306.9533,-3331.1941L13306.9667,-3331.1862L13306.9922,-3331.1739L13307.009,-3331.1683L13307.0445,-3331.1632L13307.0532,-3331.1598L13307.0606,-3331.153L13307.0633,-3331.1485L13307.0673,-3331.1361L13307.066,-3331.1232L13307.0589,-3331.1068L13307.0519,-3331.0877L13307.0398,-3331.0601L13307.0366,-3331.0547M13307.1761,-3331.0547L13307.1786,-3331.1057L13307.1766,-3331.1666L13307.1773,-3331.1716L13307.1813,-3331.179L13307.188,-3331.184L13307.1961,-3331.1869L13307.2082,-3331.1863L13307.2182,-3331.1829L13307.2276,-3331.1829L13307.241,-3331.1874L13307.2504,-3331.1931L13307.2591,-3331.1931L13307.2645,-3331.1914L13307.2786,-3331.1857L13307.3564,-3331.1299L13307.3691,-3331.1215L13307.4134,-3331.0978L13307.4342,-3331.0894L13307.4501,-3331.0848L13307.4791,-3331.082L13307.5267,-3331.0832L13307.5469,-3331.0854L13307.5985,-3331.0848L13307.6213,-3331.0815L13307.6293,-3331.0786L13307.6394,-3331.0708L13307.6394,-3331.0547"/>
</g>
</svg>
