<?xml version="1.0" encoding="UTF-8"?>
<svg  xmlns="http://www.w3.org/2000/svg" xmlns:xlink="http://www.w3.org/1999/xlink" xmlns:go="http://purl.org/svgmap/profile" property="N07_001,N07_002,N07_003,N07_004,N07_005,N07_006,N07_007" viewBox="13548.33984375 -3477.1728515625 1.0986328125 1.0986328125" go:dataArea="13548.33984375 -3477.1728515625 1.0986328125 1.0986328125" >
<metadata>
 <rdf:RDF xmlns:rdf="http://www.w3.org/1999/02/22-rdf-syntax-ns#" xmlns:crs="http://opengis.org/xmldtds/transformations.dtd" xmlns:svg="http://www.w3.org/svg" >
  <rdf:Description>
   <crs:CoordinateReferenceSystem rdf:resource="http://purl.org/crs/84" svg:transform="matrix(100.0,0.0,0.0,-100.0,0.0,0.0)" />
  </rdf:Description>
 </rdf:RDF>
</metadata>
<globalCoordinateSystem srsName="http://purl.org/crs/84" transform="matrix(100.0,0.0,0.0,-100.0,0.0,0.0)" />
<defs>
 <g id="p0" >
  <circle cx="0.0" cy="0.0" r="3" stroke="green" stroke-width="0.75" vector-effect="non-scaling-stroke" />
 </g>
</defs>
<g fill="none" fill-rule="evenodd" stroke="#FF00FF" stroke-width="0.75" opacity="0.5" vector-effect="non-scaling-stroke" stroke-linejoin="bevel" >
<path content="1,JRバス関東（株）,ドリーム和歌山号,1.0,1.0,1.0," xlink:title="1" d="M13549.4385,-3476.3557L13549.3644,-3476.2988L13549.31,-3476.2618L13549.2638,-3476.2304L13549.2234,-3476.2048L13549.136,-3476.1554L13549.0269,-3476.0992L13549.0136,-3476.0932L13548.9734,-3476.0753L13548.9709,-3476.0742"/>
<path content="1,JR四国バス（株）,オリーブ松山号　松山⇔名古屋,1.0,1.0,1.0," xlink:title="1" d="M13548.9709,-3476.0742L13548.9734,-3476.0753L13549.0269,-3476.0992L13549.136,-3476.1554L13549.2234,-3476.2048L13549.2638,-3476.2304L13549.3644,-3476.2988L13549.4385,-3476.3557"/>
<path content="1,JR四国バス（株）,ドリーム徳島号　阿南・徳島⇔新宿・東京・新木場,1.0,1.0,1.0," xlink:title="1" d="M13548.9709,-3476.0742L13548.9734,-3476.0753L13549.0269,-3476.0992L13549.136,-3476.1554L13549.2234,-3476.2048L13549.2638,-3476.2304L13549.3644,-3476.2988L13549.4385,-3476.3557"/>
<path content="1,JR四国バス（株）,ドリーム高松・松山号　松山・高松⇔東京・東京ディズニーランド,1.0,1.0,1.0," xlink:title="1" d="M13548.9709,-3476.0742L13548.9734,-3476.0753L13549.0269,-3476.0992L13549.136,-3476.1554L13549.2234,-3476.2048L13549.2638,-3476.2304L13549.3644,-3476.2988L13549.4385,-3476.3557"/>
<path content="1,JR四国バス（株）,ドリーム高松号　観音寺・高松⇔新宿・東京・新木場,1.0,1.0,1.0," xlink:title="1" d="M13548.9709,-3476.0742L13548.9734,-3476.0753L13549.0269,-3476.0992L13549.136,-3476.1554L13549.2234,-3476.2048L13549.2638,-3476.2304L13549.3644,-3476.2988L13549.4385,-3476.3557"/>
<path content="1,JR四国バス（株）,ドリーム高知号　高知・徳島⇔東京・新木場,1.0,1.0,1.0," xlink:title="1" d="M13549.4385,-3476.3557L13549.3644,-3476.2988L13549.2638,-3476.2304L13549.2234,-3476.2048L13549.136,-3476.1554L13549.0269,-3476.0992L13548.9734,-3476.0753L13548.9709,-3476.0742"/>
<path content="1,JR四国バス（株）,松山エクスプレス大阪号　松山⇔京都,5.0,5.0,5.0," xlink:title="1" d="M13549.4385,-3476.3557L13549.3644,-3476.2988L13549.2638,-3476.2304L13549.2234,-3476.2048L13549.136,-3476.1554L13549.0269,-3476.0992L13548.9734,-3476.0753L13548.9709,-3476.0742"/>
<path content="1,JR四国バス（株）,阿波エクスプレス京都号　徳島⇔京都,3.0,3.0,3.0," xlink:title="1" d="M13548.9709,-3476.0742L13548.9734,-3476.0753L13549.0269,-3476.0992L13549.136,-3476.1554L13549.2234,-3476.2048L13549.2638,-3476.2304L13549.3644,-3476.2988L13549.4385,-3476.3557"/>
<path content="1,JR四国バス（株）,高松エクスプレス京都号　高松⇔京都,2.0,2.0,2.0," xlink:title="1" d="M13548.9709,-3476.0742L13548.9734,-3476.0753L13549.0269,-3476.0992L13549.136,-3476.1554L13549.2234,-3476.2048L13549.2638,-3476.2304L13549.3644,-3476.2988L13549.4385,-3476.3557"/>
<path content="1,JR四国バス（株）,高知エクスプレス号　高知⇔神戸・大阪・京都,7.0,7.0,7.0," xlink:title="1" d="M13548.9709,-3476.0742L13548.9734,-3476.0753L13549.0269,-3476.0992L13549.136,-3476.1554L13549.2234,-3476.2048L13549.2638,-3476.2304L13549.3644,-3476.2988L13549.4385,-3476.3557"/>
<path content="1,JR東海バス（株）,オリーブ松山号,1.0,1.0,1.0," xlink:title="1" d="M13548.9709,-3476.0742L13548.9734,-3476.0753L13549.0269,-3476.0992L13549.136,-3476.1554L13549.2234,-3476.2048L13549.2638,-3476.2304L13549.3644,-3476.2988L13549.4385,-3476.3557"/>
<path content="1,JR東海バス（株）,京阪神ドリーム静岡号,1.0,1.0,1.0," xlink:title="1" d="M13548.9709,-3476.0742L13548.9734,-3476.0753L13549.0269,-3476.0992L13549.136,-3476.1554L13549.2234,-3476.2048L13549.2638,-3476.2304L13549.3644,-3476.2988L13549.4385,-3476.3557"/>
<path content="1,JR東海バス（株）,名神ハイウェイバス_05_on,29.0,29.0,29.0," xlink:title="1" d="M13548.9709,-3476.0742L13548.9734,-3476.0753L13549.0269,-3476.0992L13549.136,-3476.1554L13549.2234,-3476.2048L13549.2638,-3476.2304L13549.3644,-3476.2988L13549.4385,-3476.3557"/>
<path content="1,エムケイ（株）,MKナイトシャトル　京都・大阪⇔東京便,1.0,1.0,1.0," xlink:title="1" d="M13548.9709,-3476.0742L13548.9734,-3476.0753L13549.0269,-3476.0992L13549.136,-3476.1554L13549.2234,-3476.2048L13549.2638,-3476.2304L13549.3644,-3476.2988L13549.4385,-3476.3557"/>
<path content="1,ロウズ観光（株）,岡山・倉敷～東京,1.0,1.0,1.0," xlink:title="1" d="M13548.9709,-3476.0742L13548.9734,-3476.0753L13549.0269,-3476.0992L13549.136,-3476.1554L13549.2234,-3476.2048L13549.2638,-3476.2304L13549.3644,-3476.2988L13549.4385,-3476.3557"/>
<path content="1,三重交通（株）,四日市～大阪,3.0,3.0,3.0," xlink:title="1" d="M13548.9709,-3476.0742L13548.9734,-3476.0753L13549.0269,-3476.0992L13549.136,-3476.1554L13549.2234,-3476.2048L13549.2638,-3476.2304L13549.3644,-3476.2988L13549.4385,-3476.3557"/>
<path content="1,京王バス南（株）,新宿・渋谷～神戸姫路線,1.0,1.0,1.0," xlink:title="1" d="M13548.9709,-3476.0742L13548.9734,-3476.0753L13549.0136,-3476.0932L13549.0269,-3476.0992L13549.136,-3476.1554L13549.2234,-3476.2048L13549.2638,-3476.2304L13549.31,-3476.2618L13549.3644,-3476.2988L13549.4385,-3476.3557"/>
<path content="1,京阪バス（株）,京都⇔徳島,1.0,1.0,1.0," xlink:title="1" d="M13548.9709,-3476.0742L13548.9734,-3476.0753L13549.0269,-3476.0992L13549.136,-3476.1554L13549.2234,-3476.2048L13549.2638,-3476.2304L13549.3644,-3476.2988L13549.4385,-3476.3557"/>
<path content="1,京阪バス（株）,京都⇔高松,1.0,1.0,1.0," xlink:title="1" d="M13548.9709,-3476.0742L13548.9734,-3476.0753L13549.0269,-3476.0992L13549.136,-3476.1554L13549.2234,-3476.2048L13549.2638,-3476.2304L13549.3644,-3476.2988L13549.4385,-3476.3557"/>
<path content="1,京阪バス（株）,京都・大阪⇔小倉・福岡,1.0,1.0,1.0," xlink:title="1" d="M13548.9709,-3476.0742L13548.9734,-3476.0753L13549.0269,-3476.0992L13549.136,-3476.1554L13549.2234,-3476.2048L13549.2638,-3476.2304L13549.3644,-3476.2988L13549.4385,-3476.3557"/>
<path content="1,京阪バス（株）,枚方・寝屋川⇔淡路・徳島,1.0,1.0,1.0," xlink:title="1" d="M13548.9709,-3476.0742L13548.9734,-3476.0753L13549.0269,-3476.0992L13549.136,-3476.1554L13549.2234,-3476.2048L13549.2638,-3476.2304L13549.3644,-3476.2988L13549.4385,-3476.3557"/>
<path content="1,千葉交通,大阪なんば・京都駅～成田・銚子線,1.0,1.0,1.0," xlink:title="1" d="M13548.9709,-3476.0742L13548.9734,-3476.0753L13549.0136,-3476.0932L13549.0269,-3476.0992L13549.136,-3476.1554L13549.2234,-3476.2048L13549.2638,-3476.2304L13549.31,-3476.2618L13549.3644,-3476.2988L13549.4385,-3476.3557"/>
<path content="1,南海バス（株）,和歌山・和泉中央・堺東⇔新宿・東京,1.0,1.0,1.0," xlink:title="1" d="M13548.9709,-3476.0742L13548.9734,-3476.0753L13549.0269,-3476.0992L13549.136,-3476.1554L13549.2234,-3476.2048L13549.2638,-3476.2304L13549.3644,-3476.2988L13549.4385,-3476.3557"/>
<path content="1,南海バス（株）,堺・大阪（なんば）・京都⇔小田原・藤沢・鎌倉,1.0,1.0,1.0," xlink:title="1" d="M13548.9709,-3476.0742L13548.9734,-3476.0753L13549.0269,-3476.0992L13549.136,-3476.1554L13549.2234,-3476.2048L13549.2638,-3476.2304L13549.3644,-3476.2988L13549.4385,-3476.3557"/>
<path content="1,南海バス（株）,堺・大阪（なんば）・京都⇔柏崎・長岡・三条（新潟）,1.0,1.0,1.0," xlink:title="1" d="M13548.9709,-3476.0742L13548.9734,-3476.0753L13549.0269,-3476.0992L13549.136,-3476.1554L13549.2234,-3476.2048L13549.2638,-3476.2304L13549.3644,-3476.2988L13549.4385,-3476.3557"/>
<path content="1,南海バス（株）,神戸・大阪（なんば）・京都⇔立川・昭島・玉川上水（東京）,1.0,1.0,1.0," xlink:title="1" d="M13548.9709,-3476.0742L13548.9734,-3476.0753L13549.0269,-3476.0992L13549.136,-3476.1554L13549.2234,-3476.2048L13549.2638,-3476.2304L13549.3644,-3476.2988L13549.4385,-3476.3557"/>
<path content="1,名鉄バス（株）,名古屋～徳島,0.5,2.0,2.0," xlink:title="1" d="M13549.4385,-3476.3557L13549.3644,-3476.2988L13549.2638,-3476.2304L13549.2234,-3476.2048L13549.136,-3476.1554L13549.0269,-3476.0992L13548.9734,-3476.0753L13548.9709,-3476.0742"/>
<path content="1,名鉄バス（株）,名古屋～松山,1.0,1.0,1.0," xlink:title="1" d="M13548.9709,-3476.0742L13548.9734,-3476.0753L13549.0269,-3476.0992L13549.136,-3476.1554L13549.2234,-3476.2048L13549.2638,-3476.2304L13549.3644,-3476.2988L13549.4385,-3476.3557"/>
<path content="1,名鉄バス（株）,名古屋～高松,2.0,2.0,2.0," xlink:title="1" d="M13548.9709,-3476.0742L13548.9734,-3476.0753L13549.0269,-3476.0992L13549.136,-3476.1554L13549.2234,-3476.2048L13549.2638,-3476.2304L13549.3644,-3476.2988L13549.4385,-3476.3557"/>
<path content="1,和歌山バス（株）,サウスウエーブ号和歌山・堺⇔横浜・上野・東京ディズニーリゾート・海浜幕張,1.0,1.0,1.0," xlink:title="1" d="M13548.9709,-3476.0742L13548.9734,-3476.0753L13549.0269,-3476.0992L13549.136,-3476.1554L13549.2234,-3476.2048L13549.2638,-3476.2304L13549.3644,-3476.2988L13549.4385,-3476.3557"/>
<path content="1,四国高速バス（株）,さぬきエクスプレス名古屋　善通寺・坂出⇔名古屋,1.0,1.0,1.0," xlink:title="1" d="M13548.9709,-3476.0742L13548.9734,-3476.0753L13549.0269,-3476.0992L13549.136,-3476.1554L13549.2234,-3476.2048L13549.2638,-3476.2304L13549.3644,-3476.2988L13549.4385,-3476.3557"/>
<path content="1,四国高速バス（株）,ハローブリッジ号　善通寺・坂出⇔横浜・新宿・八王子,1.0,1.0,1.0," xlink:title="1" d="M13549.4385,-3476.3557L13549.3644,-3476.2988L13549.2638,-3476.2304L13549.2234,-3476.2048L13549.136,-3476.1554L13549.0269,-3476.0992L13548.9734,-3476.0753L13548.9709,-3476.0742"/>
<path content="1,四国高速バス（株）,高松エクスプレス京都　高松⇔京都,1.0,2.0,2.0," xlink:title="1" d="M13548.9709,-3476.0742L13548.9734,-3476.0753L13549.0269,-3476.0992L13549.136,-3476.1554L13549.2234,-3476.2048L13549.2638,-3476.2304L13549.3644,-3476.2988L13549.4385,-3476.3557"/>
<path content="1,国際十王交通（株）,京都・大阪線,1.0,1.0,1.0," xlink:title="1" d="M13549.4385,-3476.3557L13549.3644,-3476.2988L13549.31,-3476.2618L13549.2638,-3476.2304L13549.2234,-3476.2048L13549.136,-3476.1554L13549.0269,-3476.0992L13549.0136,-3476.0932L13548.9734,-3476.0753L13548.9709,-3476.0742"/>
<path content="1,土佐電気鉄道（株）,ドラゴンライナー　高知⇔名古屋線,1.0,1.0,1.0," xlink:title="1" d="M13548.9709,-3476.0742L13548.9734,-3476.0753L13549.0269,-3476.0992L13549.136,-3476.1554L13549.2234,-3476.2048L13549.2638,-3476.2304L13549.3644,-3476.2988L13549.4385,-3476.3557"/>
<path content="1,大阪空港交通（株）,関西空港リムジンバス　京都&gt;&gt;&gt;大阪（伊丹）空港,40.0,40.0,40.0," xlink:title="1" d="M13548.9709,-3476.0742L13548.9734,-3476.0753L13549.0269,-3476.0992L13549.136,-3476.1554L13549.2234,-3476.2048L13549.2638,-3476.2304L13549.3644,-3476.2988L13549.4385,-3476.3557"/>
<path content="1,宇和島自動車（株）,宇和島・松山⇔横浜・池袋・大宮,1.0,1.0,1.0," xlink:title="1" d="M13548.9709,-3476.0742L13548.9734,-3476.0753L13549.0269,-3476.0992L13549.136,-3476.1554L13549.2234,-3476.2048L13549.2638,-3476.2304L13549.3644,-3476.2988L13549.4385,-3476.3557"/>
<path content="1,宮城交通（株）,仙台～大阪線,1.0,1.0,1.0," xlink:title="1" d="M13549.4385,-3476.3557L13549.3644,-3476.2988L13549.31,-3476.2618L13549.2638,-3476.2304L13549.2234,-3476.2048L13549.136,-3476.1554L13549.0269,-3476.0992L13549.0136,-3476.0932L13548.9734,-3476.0753L13548.9709,-3476.0742"/>
<path content="1,富士急山梨バス（株）,FUJIYAMAライナー,1.0,1.0,1.0," xlink:title="1" d="M13548.9709,-3476.0742L13548.9734,-3476.0753L13549.0136,-3476.0932L13549.0269,-3476.0992L13549.136,-3476.1554L13549.2234,-3476.2048L13549.2638,-3476.2304L13549.31,-3476.2618L13549.3644,-3476.2988L13549.4385,-3476.3557"/>
<path content="1,富士急湘南バス（株）,小田原・新松田・沼津～大坂・京都線,1.0,1.0,1.0," xlink:title="1" d="M13549.4385,-3476.3557L13549.3644,-3476.2988L13549.31,-3476.2618L13549.2638,-3476.2304L13549.2234,-3476.2048L13549.136,-3476.1554L13549.0269,-3476.0992L13549.0136,-3476.0932L13548.9734,-3476.0753L13548.9709,-3476.0742"/>
<path content="1,富士急行（株）,FUJIYAMAライナー,1.0,1.0,1.0," xlink:title="1" d="M13548.9709,-3476.0742L13548.9734,-3476.0753L13549.0136,-3476.0932L13549.0269,-3476.0992L13549.136,-3476.1554L13549.2234,-3476.2048L13549.2638,-3476.2304L13549.31,-3476.2618L13549.3644,-3476.2988L13549.4385,-3476.3557"/>
<path content="1,富士急行（株）,小田原・新松田・沼津～大阪・京都線,1.0,1.0,1.0," xlink:title="1" d="M13549.4385,-3476.3557L13549.3644,-3476.2988L13549.31,-3476.2618L13549.2638,-3476.2304L13549.2234,-3476.2048L13549.136,-3476.1554L13549.0269,-3476.0992L13549.0136,-3476.0932L13548.9734,-3476.0753L13548.9709,-3476.0742"/>
<path content="1,山交バス（株）,アルカディア号,1.0,1.0,1.0," xlink:title="1" d="M13548.9709,-3476.0742L13548.9734,-3476.0753L13549.0136,-3476.0932L13549.0269,-3476.0992L13549.136,-3476.1554L13549.2234,-3476.2048L13549.2638,-3476.2304L13549.31,-3476.2618L13549.3644,-3476.2988L13549.4385,-3476.3557"/>
<path content="1,山梨交通（株）,甲府～京都・大阪線,2.0,2.0,2.0," xlink:title="1" d="M13548.9709,-3476.0742L13548.9734,-3476.0753L13549.0136,-3476.0932L13549.0269,-3476.0992L13549.136,-3476.1554L13549.2234,-3476.2048L13549.2638,-3476.2304L13549.31,-3476.2618L13549.3644,-3476.2988L13549.4385,-3476.3557"/>
<path content="1,山陽電気鉄道（株）,レッツ号　神戸・大阪・京都～東京（立川）線,1.0,1.0,1.0," xlink:title="1" d="M13548.9709,-3476.0742L13548.9734,-3476.0753L13549.0269,-3476.0992L13549.136,-3476.1554L13549.2234,-3476.2048L13549.2638,-3476.2304L13549.3644,-3476.2988L13549.4385,-3476.3557"/>
<path content="1,徳島バス（株）,徳島⇔京都,7.0,7.0,7.0," xlink:title="1" d="M13548.9709,-3476.0742L13548.9734,-3476.0753L13549.0269,-3476.0992L13549.136,-3476.1554L13549.2234,-3476.2048L13549.2638,-3476.2304L13549.3644,-3476.2988L13549.4385,-3476.3557"/>
<path content="1,徳島バス（株）,徳島⇔名古屋,2.0,2.0,2.0," xlink:title="1" d="M13549.4385,-3476.3557L13549.3644,-3476.2988L13549.2638,-3476.2304L13549.2234,-3476.2048L13549.136,-3476.1554L13549.0269,-3476.0992L13548.9734,-3476.0753L13548.9709,-3476.0742"/>
<path content="1,徳島バス（株）,徳島⇔寝屋川・枚方,2.0,2.0,2.0," xlink:title="1" d="M13548.9709,-3476.0742L13548.9734,-3476.0753L13549.0269,-3476.0992L13549.136,-3476.1554L13549.2234,-3476.2048L13549.2638,-3476.2304L13549.3644,-3476.2988L13549.4385,-3476.3557"/>
<path content="1,徳島バス（株）,徳島⇔東京,2.0,2.0,2.0," xlink:title="1" d="M13548.9709,-3476.0742L13548.9734,-3476.0753L13549.0269,-3476.0992L13549.136,-3476.1554L13549.2234,-3476.2048L13549.2638,-3476.2304L13549.3644,-3476.2988L13549.4385,-3476.3557"/>
<path content="1,成田空港交通,和歌山線,1.0,1.0,1.0," xlink:title="1" d="M13549.4385,-3476.3557L13549.3644,-3476.2988L13549.31,-3476.2618L13549.2638,-3476.2304L13549.2234,-3476.2048L13549.136,-3476.1554L13549.0269,-3476.0992L13549.0136,-3476.0932L13548.9734,-3476.0753L13548.9709,-3476.0742"/>
<path content="1,新常磐交通（株）,シーガル号,1.0,1.0,1.0," xlink:title="1" d="M13548.9706,-3476.0742L13548.9737,-3476.0756L13549.0136,-3476.0932L13549.0271,-3476.0992L13549.1362,-3476.1553L13549.2235,-3476.2049L13549.264,-3476.2304L13549.31,-3476.2618L13549.3647,-3476.2991L13549.4385,-3476.3557"/>
<path content="1,日本中央バス（株）,シルクライナー,5.0,5.0,5.0," xlink:title="1" d="M13548.9709,-3476.0742L13548.9734,-3476.0753L13549.0136,-3476.0932L13549.0269,-3476.0992L13549.136,-3476.1554L13549.2234,-3476.2048L13549.2638,-3476.2304L13549.31,-3476.2618L13549.3644,-3476.2988L13549.4385,-3476.3557"/>
<path content="1,本四海峡バス（株）,阿波エクスプレス号（京都）　徳島駅-京都駅,1.0,1.0,1.0," xlink:title="1" d="M13549.4385,-3476.3557L13549.3644,-3476.2988L13549.2638,-3476.2304L13549.2234,-3476.2048L13549.136,-3476.1554L13549.0269,-3476.0992L13548.9734,-3476.0753L13548.9709,-3476.0742"/>
<path content="1,東北急行バス（株）,フライングスニーカー大坂号,1.0,1.0,1.0," xlink:title="1" d="M13549.4385,-3476.3557L13549.3644,-3476.2988L13549.31,-3476.2618L13549.2638,-3476.2304L13549.2234,-3476.2048L13549.136,-3476.1554L13549.0269,-3476.0992L13549.0136,-3476.0932L13548.9734,-3476.0753L13548.9709,-3476.0742"/>
<path content="1,東北急行バス（株）,フライングライナー号,1.0,1.0,1.0," xlink:title="1" d="M13548.9709,-3476.0742L13548.9734,-3476.0753L13549.0136,-3476.0932L13549.0269,-3476.0992L13549.136,-3476.1554L13549.2234,-3476.2048L13549.2638,-3476.2304L13549.31,-3476.2618L13549.3644,-3476.2988L13549.4385,-3476.3557"/>
<path content="1,江ノ電バス藤沢,サザンクロス,1.0,1.0,1.0," xlink:title="1" d="M13549.4385,-3476.3557L13549.3644,-3476.2988L13549.31,-3476.2618L13549.2638,-3476.2304L13549.2234,-3476.2048L13549.136,-3476.1554L13549.0269,-3476.0992L13549.0136,-3476.0932L13548.9734,-3476.0753L13548.9709,-3476.0742"/>
<path content="1,琴平バス（株）,愛媛・高知シャトル,2.0,2.0,2.0," xlink:title="1" d="M13548.9709,-3476.0742L13548.9734,-3476.0753L13549.0269,-3476.0992L13549.136,-3476.1554L13549.2234,-3476.2048L13549.2638,-3476.2304L13549.3644,-3476.2988L13549.4385,-3476.3557"/>
<path content="1,神姫バス（株）,姫路・神戸（三ノ宮）-東京（渋谷・新宿）,1.0,1.0,1.0," xlink:title="1" d="M13549.4385,-3476.3557L13549.3644,-3476.2988L13549.2638,-3476.2304L13549.2234,-3476.2048L13549.136,-3476.1554L13549.0269,-3476.0992L13548.9734,-3476.0753L13548.9709,-3476.0742"/>
<path content="1,福島交通（株）,福島高速バスターミナル～大阪あべの橋,1.0,1.0,1.0," xlink:title="1" d="M13548.9706,-3476.0742L13548.9737,-3476.0756L13549.0136,-3476.0932L13549.0271,-3476.0992L13549.1362,-3476.1553L13549.2235,-3476.2049L13549.264,-3476.2304L13549.31,-3476.2618L13549.3647,-3476.2991L13549.4385,-3476.3557"/>
<path content="1,立川バス（株）,立川駅～京都・大阪～神戸三宮線,1.0,1.0,1.0," xlink:title="1" d="M13548.9709,-3476.0742L13548.9734,-3476.0753L13549.0136,-3476.0932L13549.0269,-3476.0992L13549.136,-3476.1554L13549.2234,-3476.2048L13549.2638,-3476.2304L13549.31,-3476.2618L13549.3644,-3476.2988L13549.4385,-3476.3557"/>
<path content="1,西東京バス（株）,ツインクル号,1.0,1.0,1.0," xlink:title="1" d="M13549.4385,-3476.3557L13549.3644,-3476.2988L13549.31,-3476.2618L13549.2638,-3476.2304L13549.2234,-3476.2048L13549.136,-3476.1554L13549.0269,-3476.0992L13549.0136,-3476.0932L13548.9734,-3476.0753L13548.9709,-3476.0742"/>
<path content="1,西武バス（株）,三都線,1.0,1.0,1.0," xlink:title="1" d="M13549.4385,-3476.3557L13549.3644,-3476.2988L13549.31,-3476.2618L13549.2638,-3476.2304L13549.2234,-3476.2048L13549.136,-3476.1554L13549.0269,-3476.0992L13549.0136,-3476.0932L13548.9734,-3476.0753L13548.9709,-3476.0742"/>
<path content="1,越後交通（株）,高速バス越後（三条・長岡・柏崎～京都・大阪線）,1.0,1.0,1.0," xlink:title="1" d="M13549.4385,-3476.3557L13549.3644,-3476.2988L13549.2638,-3476.2304L13549.2234,-3476.2048L13549.136,-3476.1554L13549.0269,-3476.0992L13548.9734,-3476.0753L13548.9709,-3476.0742"/>
<path content="1,近鉄バス（株）,京都⇔四日市,12.0,12.0,12.0," xlink:title="1" d="M13548.9709,-3476.0742L13548.9734,-3476.0753L13549.0269,-3476.0992L13549.136,-3476.1554L13549.2234,-3476.2048L13549.2638,-3476.2304L13549.3644,-3476.2988L13549.4385,-3476.3557"/>
<path content="1,近鉄バス（株）,京都・大阪⇔熊本,1.0,1.0,1.0," xlink:title="1" d="M13549.4385,-3476.3557L13549.3644,-3476.2988L13549.2638,-3476.2304L13549.2234,-3476.2048L13549.136,-3476.1554L13549.0269,-3476.0992L13548.9734,-3476.0753L13548.9709,-3476.0742"/>
<path content="1,近鉄バス（株）,京都・大阪⇔長崎,1.0,1.0,1.0," xlink:title="1" d="M13549.4385,-3476.3557L13549.3644,-3476.2988L13549.2638,-3476.2304L13549.2234,-3476.2048L13549.136,-3476.1554L13549.0269,-3476.0992L13548.9734,-3476.0753L13548.9709,-3476.0742"/>
<path content="1,近鉄バス（株）,京都・大阪・神戸⇔中村・宿毛,2.0,2.0,2.0," xlink:title="1" d="M13549.4385,-3476.3557L13549.3644,-3476.2988L13549.2638,-3476.2304L13549.2234,-3476.2048L13549.136,-3476.1554L13549.0269,-3476.0992L13548.9734,-3476.0753L13548.9709,-3476.0742"/>
<path content="1,近鉄バス（株）,京都・大阪・神戸⇔宮崎,1.0,1.0,1.0," xlink:title="1" d="M13548.9709,-3476.0742L13548.9734,-3476.0753L13549.0269,-3476.0992L13549.136,-3476.1554L13549.2234,-3476.2048L13549.2638,-3476.2304L13549.3644,-3476.2988L13549.4385,-3476.3557"/>
<path content="1,近鉄バス（株）,大阪⇔東京駅,1.0,1.0,1.0," xlink:title="1" d="M13549.4385,-3476.3557L13549.3644,-3476.2988L13549.2638,-3476.2304L13549.2234,-3476.2048L13549.136,-3476.1554L13549.0269,-3476.0992L13548.9734,-3476.0753L13548.9709,-3476.0742"/>
<path content="1,近鉄バス（株）,大阪・京都⇔つくば・水戸,1.0,1.0,1.0," xlink:title="1" d="M13548.9709,-3476.0742L13548.9734,-3476.0753L13549.0269,-3476.0992L13549.136,-3476.1554L13549.2234,-3476.2048L13549.2638,-3476.2304L13549.3644,-3476.2988L13549.4385,-3476.3557"/>
<path content="1,近鉄バス（株）,大阪・京都⇔上田・小諸・軽井沢,1.0,1.0,1.0," xlink:title="1" d="M13548.9709,-3476.0742L13548.9734,-3476.0753L13549.0269,-3476.0992L13549.136,-3476.1554L13549.2234,-3476.2048L13549.2638,-3476.2304L13549.3644,-3476.2988L13549.4385,-3476.3557"/>
<path content="1,近鉄バス（株）,大阪・京都⇔久喜・栃木・宇都宮,1.0,1.0,1.0," xlink:title="1" d="M13548.9709,-3476.0742L13548.9734,-3476.0753L13549.0269,-3476.0992L13549.136,-3476.1554L13549.2234,-3476.2048L13549.2638,-3476.2304L13549.3644,-3476.2988L13549.4385,-3476.3557"/>
<path content="1,近鉄バス（株）,大阪・京都⇔仙台,1.0,1.0,1.0," xlink:title="1" d="M13548.9709,-3476.0742L13548.9734,-3476.0753L13549.0269,-3476.0992L13549.136,-3476.1554L13549.2234,-3476.2048L13549.2638,-3476.2304L13549.3644,-3476.2988L13549.4385,-3476.3557"/>
<path content="1,近鉄バス（株）,大阪・京都⇔山形,1.0,1.0,1.0," xlink:title="1" d="M13548.9709,-3476.0742L13548.9734,-3476.0753L13549.0269,-3476.0992L13549.136,-3476.1554L13549.2234,-3476.2048L13549.2638,-3476.2304L13549.3644,-3476.2988L13549.4385,-3476.3557"/>
<path content="1,近鉄バス（株）,大阪・京都⇔川越・坂戸・熊谷,1.0,1.0,1.0," xlink:title="1" d="M13548.9709,-3476.0742L13548.9734,-3476.0753L13549.0269,-3476.0992L13549.136,-3476.1554L13549.2234,-3476.2048L13549.2638,-3476.2304L13549.3644,-3476.2988L13549.4385,-3476.3557"/>
<path content="1,近鉄バス（株）,大阪・京都⇔日立・いわき,1.0,1.0,1.0," xlink:title="1" d="M13548.9709,-3476.0742L13548.9734,-3476.0753L13549.0269,-3476.0992L13549.136,-3476.1554L13549.2234,-3476.2048L13549.2638,-3476.2304L13549.3644,-3476.2988L13549.4385,-3476.3557"/>
<path content="1,近鉄バス（株）,大阪・京都⇔東静岡・富士宮・富士吉田駅,1.0,1.0,1.0," xlink:title="1" d="M13548.9709,-3476.0742L13548.9734,-3476.0753L13549.0269,-3476.0992L13549.136,-3476.1554L13549.2234,-3476.2048L13549.2638,-3476.2304L13549.3644,-3476.2988L13549.4385,-3476.3557"/>
<path content="1,近鉄バス（株）,大阪・京都⇔沼津・御殿場・新松田・小田原,1.0,1.0,1.0," xlink:title="1" d="M13548.9709,-3476.0742L13548.9734,-3476.0753L13549.0269,-3476.0992L13549.136,-3476.1554L13549.2234,-3476.2048L13549.2638,-3476.2304L13549.3644,-3476.2988L13549.4385,-3476.3557"/>
<path content="1,近鉄バス（株）,大阪・京都⇔甲府,2.0,2.0,2.0," xlink:title="1" d="M13548.9709,-3476.0742L13548.9734,-3476.0753L13549.0269,-3476.0992L13549.136,-3476.1554L13549.2234,-3476.2048L13549.2638,-3476.2304L13549.3644,-3476.2988L13549.4385,-3476.3557"/>
<path content="1,近鉄バス（株）,大阪・京都⇔郡上八幡・飛騨高山,2.0,2.0,2.0," xlink:title="1" d="M13548.9709,-3476.0742L13548.9734,-3476.0753L13549.0269,-3476.0992L13549.136,-3476.1554L13549.2234,-3476.2048L13549.2638,-3476.2304L13549.3644,-3476.2988L13549.4385,-3476.3557"/>
<path content="1,近鉄バス（株）,大阪・京都⇔郡山・福島,1.0,1.0,1.0," xlink:title="1" d="M13548.9709,-3476.0742L13548.9734,-3476.0753L13549.0269,-3476.0992L13549.136,-3476.1554L13549.2234,-3476.2048L13549.2638,-3476.2304L13549.3644,-3476.2988L13549.4385,-3476.3557"/>
<path content="1,近鉄バス（株）,藤井寺・大阪・京都⇔東京駅・横浜,1.0,1.0,1.0," xlink:title="1" d="M13549.4385,-3476.3557L13549.3644,-3476.2988L13549.2638,-3476.2304L13549.2234,-3476.2048L13549.136,-3476.1554L13549.0269,-3476.0992L13548.9734,-3476.0753L13548.9709,-3476.0742"/>
<path content="1,関東自動車（株）,とちの木号,1.0,1.0,1.0," xlink:title="1" d="M13549.4385,-3476.3557L13549.3644,-3476.2988L13549.31,-3476.2618L13549.2638,-3476.2304L13549.2234,-3476.2048L13549.136,-3476.1554L13549.0269,-3476.0992L13549.0136,-3476.0932L13548.9734,-3476.0753L13548.9709,-3476.0742"/>
<path content="1,関東鉄道（株）,水戸駅南口～あべの橋駅（JR天王寺駅）,1.0,1.0,1.0," xlink:title="1" d="M13549.4385,-3476.3557L13549.3644,-3476.2988L13549.31,-3476.2618L13549.2638,-3476.2304L13549.2234,-3476.2048L13549.136,-3476.1554L13549.0269,-3476.0992L13549.0136,-3476.0932L13548.9734,-3476.0753L13548.9709,-3476.0742"/>
<path content="1,阪急バス（株）,吹田線85,4.0,5.6,4.6," xlink:title="1" d="M13548.3398,-3476.4199L13548.3493,-3476.4206L13548.3745,-3476.4224L13548.4072,-3476.4247L13548.4618,-3476.4264L13548.5116,-3476.4275L13548.5355,-3476.427L13548.5506,-3476.4281L13548.5827,-3476.4287L13548.6389,-3476.4284L13548.6595,-3476.4303L13548.7103,-3476.4309L13548.8042,-3476.4347L13548.8092,-3476.4371L13548.8444,-3476.4378L13548.8485,-3476.4378L13548.8744,-3476.4377L13548.8899,-3476.4377L13548.9439,-3476.4388L13548.9922,-3476.4392L13549.0245,-3476.4394L13549.0736,-3476.4394L13549.0791,-3476.4405L13549.0894,-3476.4417L13549.1677,-3476.4427L13549.2163,-3476.4434L13549.3155,-3476.4451L13549.3484,-3476.4454L13549.3592,-3476.4425L13549.4385,-3476.439"/>
<path content="1,阪急バス（株）,吹田線86,4.7,7.7,7.3," xlink:title="1" d="M13548.3398,-3476.4199L13548.3493,-3476.4206L13548.3745,-3476.4224L13548.4072,-3476.4247L13548.4618,-3476.4264L13548.5116,-3476.4275L13548.5355,-3476.427L13548.5506,-3476.4281L13548.5827,-3476.4287L13548.6389,-3476.4284L13548.6595,-3476.4303L13548.7103,-3476.4309L13548.8042,-3476.4347L13548.8092,-3476.4371L13548.8444,-3476.4378L13548.8485,-3476.4378L13548.8744,-3476.4377L13548.8899,-3476.4377L13548.9439,-3476.4388L13548.9922,-3476.4392L13549.0245,-3476.4394L13549.0736,-3476.4394L13549.0791,-3476.4405L13549.0894,-3476.4417L13549.1677,-3476.4427L13549.2163,-3476.4434L13549.3155,-3476.4451L13549.3484,-3476.4454L13549.3592,-3476.4425L13549.4385,-3476.439"/>
<path content="1,阪急バス（株）,吹田線87,1.0,1.0,1.0," xlink:title="1" d="M13548.3398,-3476.4199L13548.3493,-3476.4206L13548.3745,-3476.4224L13548.4072,-3476.4247L13548.4618,-3476.4264L13548.5116,-3476.4275L13548.5355,-3476.427L13548.5506,-3476.4281L13548.5827,-3476.4287L13548.6389,-3476.4284L13548.6595,-3476.4303L13548.7103,-3476.4309L13548.8042,-3476.4347L13548.8092,-3476.4371L13548.8444,-3476.4378L13548.8485,-3476.4378L13548.8744,-3476.4377L13548.8899,-3476.4377L13548.9439,-3476.4388L13548.9922,-3476.4392L13549.0245,-3476.4394L13549.0736,-3476.4394L13549.0791,-3476.4405L13549.0894,-3476.4417L13549.1677,-3476.4427L13549.2163,-3476.4434L13549.3155,-3476.4451L13549.3484,-3476.4454L13549.3592,-3476.4425L13549.4385,-3476.439"/>
<path content="1,阪急バス（株）,吹田線95,4.3,4.3,3.8," xlink:title="1" d="M13548.3398,-3476.4199L13548.3493,-3476.4206L13548.3745,-3476.4224L13548.4072,-3476.4247L13548.4618,-3476.4264L13548.5116,-3476.4275L13548.5355,-3476.427L13548.5506,-3476.4281L13548.5827,-3476.4287L13548.6389,-3476.4284L13548.6595,-3476.4303L13548.7103,-3476.4309L13548.8042,-3476.4347L13548.8092,-3476.4371L13548.8444,-3476.4378L13548.8485,-3476.4378L13548.8744,-3476.4377L13548.8899,-3476.4377L13548.9439,-3476.4388L13548.9922,-3476.4392L13549.0245,-3476.4394L13549.0736,-3476.4394L13549.0791,-3476.4405L13549.0894,-3476.4417L13549.1677,-3476.4427L13549.2163,-3476.4434L13549.3155,-3476.4451L13549.3484,-3476.4454L13549.3592,-3476.4425L13549.4385,-3476.439"/>
<path content="1,阪急バス（株）,吹田線96,4.0,4.0,5.0," xlink:title="1" d="M13548.3398,-3476.4199L13548.3493,-3476.4206L13548.3745,-3476.4224L13548.4072,-3476.4247L13548.4618,-3476.4264L13548.5116,-3476.4275L13548.5355,-3476.427L13548.5506,-3476.4281L13548.5827,-3476.4287L13548.6389,-3476.4284L13548.6595,-3476.4303L13548.7103,-3476.4309L13548.8042,-3476.4347L13548.8092,-3476.4371L13548.8444,-3476.4378L13548.8485,-3476.4378L13548.8744,-3476.4377L13548.8899,-3476.4377L13548.9439,-3476.4388L13548.9922,-3476.4392L13549.0245,-3476.4394L13549.0736,-3476.4394L13549.0791,-3476.4405L13549.0894,-3476.4417L13549.1677,-3476.4427L13549.2163,-3476.4434L13549.3155,-3476.4451L13549.3484,-3476.4454L13549.3592,-3476.4425L13549.4385,-3476.439"/>
<path content="1,阪急バス（株）,豊中病院線64,7.0,0.0,0.0," xlink:title="1" d="M13548.3398,-3476.4776L13548.3493,-3476.4206L13548.3554,-3476.3813L13548.358,-3476.365L13548.3607,-3476.3458L13548.3642,-3476.3267L13548.3655,-3476.3098L13548.371,-3476.2782L13548.3833,-3476.1965L13548.3853,-3476.1925L13548.386,-3476.1852L13548.3888,-3476.0815L13548.3883,-3476.0742"/>
<path content="1,阪急バス（株）,豊中病院線64,7.0,0.0,0.0," xlink:title="1" d="M13548.3398,-3476.9228L13548.3498,-3476.9218L13548.358,-3476.9218L13548.3803,-3476.9196L13548.3989,-3476.9178L13548.4167,-3476.9173L13548.4584,-3476.9139L13548.4611,-3476.9128L13548.4714,-3476.9116L13548.4959,-3476.9105L13548.5116,-3476.9088L13548.5669,-3476.9071L13548.6298,-3476.9072L13548.6612,-3476.9072L13548.6762,-3476.9055L13548.789,-3476.9067L13548.8136,-3476.9061L13548.8345,-3476.9056L13548.8694,-3476.9083L13548.9125,-3476.9151L13548.9207,-3476.9165L13548.9337,-3476.9187L13548.9376,-3476.9198L13548.9546,-3476.9246L13548.9821,-3476.9324L13548.9861,-3476.935L13548.9992,-3476.9438L13549.0087,-3476.9556L13549.0252,-3476.9787L13549.0408,-3477.0041L13549.0511,-3477.0238L13549.0729,-3477.0768L13549.0795,-3477.0987L13549.0852,-3477.1174L13549.0886,-3477.1405L13549.089,-3477.1729"/>
<path content="1,阪急バス（株）,阪北線91,0.0,4.0,4.0," xlink:title="1" d="M13549.089,-3477.1729L13549.0886,-3477.1405L13549.0852,-3477.1174L13549.0795,-3477.0987L13549.0729,-3477.0768L13549.0511,-3477.0238L13549.0408,-3477.0041L13549.0252,-3476.9787L13549.0087,-3476.9556L13548.9992,-3476.9438L13548.9861,-3476.935L13548.9821,-3476.9324L13548.9546,-3476.9246L13548.9376,-3476.9198L13548.9337,-3476.9187L13548.9207,-3476.9165L13548.9125,-3476.9151L13548.8694,-3476.9083L13548.8345,-3476.9056L13548.8136,-3476.9061L13548.789,-3476.9067L13548.6762,-3476.9055L13548.6612,-3476.9072L13548.6298,-3476.9072L13548.6229,-3476.9071L13548.5669,-3476.9071L13548.5116,-3476.9088L13548.4959,-3476.9105L13548.4714,-3476.9116L13548.4611,-3476.9128L13548.4584,-3476.9139L13548.4167,-3476.9173L13548.3989,-3476.9178L13548.3803,-3476.9196L13548.358,-3476.9218L13548.3498,-3476.9218L13548.3398,-3476.9228"/>
<path content="1,高知県交通（株）,ドラゴンライナー　高知⇔名古屋線,1.0,1.0,1.0," xlink:title="1" d="M13548.9709,-3476.0742L13548.9734,-3476.0753L13549.0269,-3476.0992L13549.136,-3476.1554L13549.2234,-3476.2048L13549.2638,-3476.2304L13549.3644,-3476.2988L13549.4385,-3476.3557"/>
<path content="1,高知西南交通（株）,しまんとブルーライナー　京都線,1.0,1.0,1.0," xlink:title="1" d="M13548.9709,-3476.0742L13548.9734,-3476.0753L13549.0269,-3476.0992L13549.136,-3476.1554L13549.2234,-3476.2048L13549.2638,-3476.2304L13549.3644,-3476.2988L13549.4385,-3476.3557"/>
</g>
</svg>
