<?xml version="1.0" encoding="UTF-8"?>
<svg  xmlns="http://www.w3.org/2000/svg" xmlns:xlink="http://www.w3.org/1999/xlink" xmlns:go="http://purl.org/svgmap/profile" property="N07_001,N07_002,N07_003,N07_004,N07_005,N07_006,N07_007" viewBox="13007.8125 -3058.59375 35.15625 35.15625" go:dataArea="13007.8125 -3058.59375 35.15625 35.15625" >
<metadata>
 <rdf:RDF xmlns:rdf="http://www.w3.org/1999/02/22-rdf-syntax-ns#" xmlns:crs="http://opengis.org/xmldtds/transformations.dtd" xmlns:svg="http://www.w3.org/svg" >
  <rdf:Description>
   <crs:CoordinateReferenceSystem rdf:resource="http://purl.org/crs/84" svg:transform="matrix(100.0,0.0,0.0,-100.0,0.0,0.0)" />
  </rdf:Description>
 </rdf:RDF>
</metadata>
<globalCoordinateSystem srsName="http://purl.org/crs/84" transform="matrix(100.0,0.0,0.0,-100.0,0.0,0.0)" />
<defs>
 <g id="p0" >
  <circle cx="0.0" cy="0.0" r="3" stroke="green" stroke-width="0.75" vector-effect="non-scaling-stroke" />
 </g>
</defs>
<g fill="none" fill-rule="evenodd" stroke="#FF00FF" stroke-width="0.75" opacity="0.5" vector-effect="non-scaling-stroke" stroke-linejoin="bevel" >
<path content="1,種子島・屋久島交通（株）,永田～大川の滝,14.5,13.5,13.5," xlink:title="1" d="M13042.9688,-3025.5836L13042.964,-3025.5865L13042.9564,-3025.5912L13042.9355,-3025.6095L13042.912,-3025.6323L13042.8962,-3025.6411L13042.8682,-3025.6502L13042.8428,-3025.6594L13042.8332,-3025.6678L13042.8233,-3025.6786L13042.8012,-3025.7074L13042.7461,-3025.7807L13042.7162,-3025.8179L13042.6772,-3025.8579L13042.6382,-3025.8974L13042.598,-3025.9448L13042.5746,-3025.978L13042.5577,-3026.0062L13042.5376,-3026.0496L13042.5226,-3026.0879L13042.4987,-3026.1585L13042.4844,-3026.1743L13042.4598,-3026.196L13042.448,-3026.2075L13042.4233,-3026.2357L13042.3986,-3026.2695L13042.3927,-3026.2813L13042.3843,-3026.3044L13042.3817,-3026.3169L13042.3819,-3026.3246L13042.3824,-3026.3417L13042.3843,-3026.3625L13042.3876,-3026.3856L13042.3863,-3026.4105L13042.3837,-3026.4201L13042.3772,-3026.433L13042.3681,-3026.446L13042.3557,-3026.4584L13042.3272,-3026.4826L13042.3142,-3026.5001L13042.3064,-3026.5142L13042.2979,-3026.5356L13042.2934,-3026.5548L13042.2843,-3026.6275L13042.2804,-3026.6473L13042.2681,-3026.6794L13042.2603,-3026.6986L13042.2544,-3026.7144L13042.2479,-3026.7386L13042.2441,-3026.76L13042.2441,-3026.7606L13042.2414,-3026.7831L13042.2414,-3026.8249L13042.246,-3026.8632L13042.2512,-3026.8835L13042.2577,-3026.8971L13042.2609,-3026.9016L13042.2752,-3026.9162L13042.2856,-3026.9236L13042.3197,-3026.9379L13042.3359,-3026.9473L13042.3648,-3026.9725L13042.3885,-3027.0018L13042.4136,-3027.05L13042.4493,-3027.127L13042.4564,-3027.1395L13042.4707,-3027.1649L13042.4817,-3027.1936L13042.4882,-3027.219L13042.4882,-3027.2523L13042.4849,-3027.2737L13042.4778,-3027.3036L13042.4661,-3027.3453L13042.4577,-3027.3639L13042.4453,-3027.3831L13042.4187,-3027.4039L13042.3127,-3027.4797L13042.2864,-3027.5017L13042.2674,-3027.5099L13042.2434,-3027.5206L13042.2383,-3027.5216L13042.2292,-3027.5241L13042.2051,-3027.5273L13042.1744,-3027.5281L13042.1558,-3027.5264L13042.1258,-3027.5197L13042.1066,-3027.513L13042.0922,-3027.504L13042.0648,-3027.4801L13042.0323,-3027.449L13041.9667,-3027.3881L13041.9505,-3027.3667L13041.9304,-3027.3318L13041.9076,-3027.2929L13041.8934,-3027.2742L13041.8784,-3027.263L13041.8583,-3027.2528L13041.8421,-3027.2483L13041.826,-3027.2454L13041.8151,-3027.2442L13041.803,-3027.2434L13041.7914,-3027.2439L13041.7794,-3027.2475L13041.7723,-3027.2521L13041.7666,-3027.2561L13041.7616,-3027.2596L13041.7092,-3027.3191L13041.6982,-3027.345L13041.6933,-3027.3691L13041.6934,-3027.409L13041.7044,-3027.5449L13041.7031,-3027.5624L13041.6992,-3027.5759L13041.681,-3027.6148L13041.67,-3027.6357L13041.6447,-3027.6779L13041.6265,-3027.7033L13041.5778,-3027.78L13041.57,-3027.8003L13041.5661,-3027.82L13041.5654,-3027.8448L13041.5674,-3027.8516L13041.5752,-3027.8685L13041.5914,-3027.8888L13041.607,-3027.9086L13041.6122,-3027.917L13041.6174,-3027.9311L13041.6187,-3027.9384L13041.6187,-3027.9537L13041.6147,-3027.9717L13041.5849,-3028.0873L13041.5828,-3028.0978L13041.5751,-3028.1363L13041.5706,-3028.1696L13041.5699,-3028.2023L13041.5751,-3028.2254L13041.5836,-3028.2463L13041.6109,-3028.3032L13041.6154,-3028.3128L13041.6336,-3028.3466L13041.6654,-3028.4121L13041.6737,-3028.4317L13041.6776,-3028.4413L13041.6816,-3028.4544L13041.6823,-3028.4888L13041.6706,-3028.5328L13041.6563,-3028.5688L13041.6277,-3028.628L13041.6004,-3028.6889L13041.5881,-3028.7233L13041.579,-3028.7566L13041.5719,-3028.7774L13041.555,-3028.8129L13041.5342,-3028.8411L13041.4842,-3028.8964L13041.4446,-3028.936L13041.4145,-3028.9633L13041.3943,-3028.9814L13041.363,-3029.0074L13041.3472,-3029.0222L13041.3264,-3029.0446L13041.3003,-3029.0776L13041.2808,-3029.1004L13041.2678,-3029.1193L13041.2547,-3029.1404L13041.2498,-3029.1528L13041.2426,-3029.1731L13041.2318,-3029.2037L13041.2243,-3029.2304L13041.2184,-3029.2617L13041.2169,-3029.2731L13041.2132,-3029.2992L13041.2054,-3029.3458L13041.1964,-3029.3876L13041.2016,-3029.4241L13041.2187,-3029.4567L13041.2324,-3029.4832L13041.2417,-3029.495L13041.2609,-3029.5164L13041.2786,-3029.5321L13041.3043,-3029.5489L13041.3224,-3029.5579L13041.3497,-3029.5676L13041.3813,-3029.5762L13041.4241,-3029.5855L13041.4446,-3029.5879L13041.4752,-3029.5988"/>
<path content="1,種子島・屋久島交通（株）,永田～大川の滝,14.5,13.5,13.5," xlink:title="1" d="M13042.6368,-3039.6796L13042.6581,-3039.7202L13042.6634,-3039.731L13042.6684,-3039.7415L13042.6742,-3039.7573L13042.6736,-3039.7708L13042.6722,-3039.7761L13042.6703,-3039.7838L13042.6631,-3039.8024L13042.6462,-3039.8345L13042.6235,-3039.8875L13042.6212,-3039.8998L13042.6204,-3039.9044L13042.6202,-3039.9207L13042.6221,-3039.9405L13042.628,-3039.9664L13042.6358,-3039.9856L13042.6492,-3040.0078L13042.6617,-3040.0277L13042.6819,-3040.0634L13042.6867,-3040.0721L13042.6911,-3040.0822L13042.6947,-3040.0888L13042.6987,-3040.0976L13042.7015,-3040.1119L13042.7041,-3040.1277L13042.7045,-3040.1557L13042.7047,-3040.1694L13042.7034,-3040.188L13042.702,-3040.1963L13042.7009,-3040.2078L13042.7019,-3040.217L13042.7047,-3040.2267L13042.7067,-3040.2326L13042.709,-3040.238L13042.7425,-3040.2957L13042.801,-3040.3831L13042.8108,-3040.3903L13042.8218,-3040.3966L13042.8569,-3040.4102L13042.8706,-3040.4198L13042.8804,-3040.4311L13042.894,-3040.4626L13042.8992,-3040.4705L13042.9096,-3040.479L13042.9188,-3040.4841L13042.9396,-3040.4908L13042.9688,-3040.4949"/>
</g>
</svg>
