<?xml version="1.0" encoding="UTF-8"?>
<svg  xmlns="http://www.w3.org/2000/svg" xmlns:xlink="http://www.w3.org/1999/xlink" xmlns:go="http://purl.org/svgmap/profile" property="N07_001,N07_002,N07_003,N07_004,N07_005,N07_006,N07_007" viewBox="13904.296875 -3770.5078125 8.7890625 8.7890625" go:dataArea="13904.296875 -3770.5078125 8.7890625 8.7890625" >
<metadata>
 <rdf:RDF xmlns:rdf="http://www.w3.org/1999/02/22-rdf-syntax-ns#" xmlns:crs="http://opengis.org/xmldtds/transformations.dtd" xmlns:svg="http://www.w3.org/svg" >
  <rdf:Description>
   <crs:CoordinateReferenceSystem rdf:resource="http://purl.org/crs/84" svg:transform="matrix(100.0,0.0,0.0,-100.0,0.0,0.0)" />
  </rdf:Description>
 </rdf:RDF>
</metadata>
<globalCoordinateSystem srsName="http://purl.org/crs/84" transform="matrix(100.0,0.0,0.0,-100.0,0.0,0.0)" />
<defs>
 <g id="p0" >
  <circle cx="0.0" cy="0.0" r="3" stroke="green" stroke-width="0.75" vector-effect="non-scaling-stroke" />
 </g>
</defs>
<g fill="none" fill-rule="evenodd" stroke="#FF00FF" stroke-width="0.75" opacity="0.5" vector-effect="non-scaling-stroke" stroke-linejoin="bevel" >
<path content="1,越後交通（株）,地場産センター前～東三条～宮の浦～加茂駅前線,8.0,4.0,4.0," xlink:title="1" d="M13904.2969,-3765.8233L13904.3062,-3765.8336L13904.4076,-3765.9359L13904.4138,-3765.9417L13904.4314,-3765.9586L13904.5178,-3766.0459L13904.6317,-3766.1596"/>
<path content="1,越後交通（株）,地場産センター前～東三条～宮の浦～加茂駅前線,8.0,4.0,4.0," xlink:title="1" d="M13904.6317,-3766.1596L13904.6826,-3766.212L13904.7336,-3766.2621L13904.7449,-3766.27L13904.7541,-3766.2796L13904.7711,-3766.292L13904.8044,-3766.3139L13904.8327,-3766.3291L13904.856,-3766.3402L13904.8643,-3766.3449L13904.9711,-3766.3879L13904.979,-3766.3917L13905.1019,-3766.4412L13905.1228,-3766.4502L13905.1447,-3766.4615L13905.1645,-3766.4756L13905.1936,-3766.5043L13905.224,-3766.5549L13905.2431,-3766.5848L13905.265,-3766.6208L13905.2974,-3766.6743L13905.3082,-3766.6922L13905.3259,-3766.7214L13905.3333,-3766.7336L13905.3419,-3766.7479L13905.3492,-3766.7599L13905.3669,-3766.7836L13905.3789,-3766.7971L13905.3981,-3766.8123L13905.4256,-3766.8252L13905.4624,-3766.8449L13905.5077,-3766.8686L13905.5325,-3766.8838L13905.5413,-3766.8907L13905.5611,-3766.9024L13905.5757,-3766.9111L13905.5984,-3766.9255L13905.6039,-3766.9159L13905.6059,-3766.9126L13905.616,-3766.8894L13905.6238,-3766.863L13905.6283,-3766.8212L13905.6287,-3766.8168L13905.6281,-3766.7813L13905.6259,-3766.7391L13905.6238,-3766.7273L13905.621,-3766.694L13905.6174,-3766.6862L13905.6125,-3766.6749L13905.6096,-3766.6698L13905.604,-3766.6614L13905.5948,-3766.6501L13905.5714,-3766.6208L13905.5467,-3766.5826L13905.5304,-3766.5578L13905.5176,-3766.5375L13905.5141,-3766.5184L13905.513,-3766.4946L13905.5099,-3766.4767L13905.5101,-3766.4656L13905.5007,-3766.4333L13905.4894,-3766.3736L13905.4879,-3766.3635L13905.4816,-3766.3308L13905.478,-3766.3077L13905.4752,-3766.3021L13905.4702,-3766.2903L13905.4677,-3766.2835L13905.4618,-3766.2662L13905.454,-3766.2464L13905.4453,-3766.2222L13905.4299,-3766.1861L13905.4264,-3766.1732L13905.4037,-3766.1196L13905.3858,-3766.0638L13905.3853,-3766.0587L13905.3781,-3766.0265L13905.3703,-3765.9915L13905.3687,-3765.9865L13905.2537,-3766.0172L13905.2286,-3766.0232L13905.2176,-3766.0256L13905.1824,-3766.028L13905.1824,-3766.0218L13905.1822,-3766.0158L13905.1823,-3766.0037L13905.1822,-3765.9794L13905.183,-3765.9553L13905.2007,-3765.913L13905.2091,-3765.8978L13905.1872,-3765.8955L13905.1151,-3765.8901L13905.0662,-3765.8871L13904.9933,-3765.882L13904.9862,-3765.8815L13904.9514,-3765.8901"/>
<path content="1,越後交通（株）,地場産センター前～東三条～宮の浦～加茂駅前線,8.0,4.0,4.0," xlink:title="1" d="M13904.373,-3766.3185L13904.4074,-3766.2993L13904.453,-3766.2704L13904.4555,-3766.2689L13904.58,-3766.1923L13904.5898,-3766.184L13904.6317,-3766.1596"/>
<path content="1,越後交通（株）,燕～燕三条～東三条～加茂線,8.0,4.0,4.0," xlink:title="1" d="M13904.9514,-3765.8901L13904.9862,-3765.8815L13904.9933,-3765.882L13905.0662,-3765.8871L13905.1151,-3765.8901L13905.1872,-3765.8955L13905.2091,-3765.8978L13905.2007,-3765.913L13905.183,-3765.9553L13905.1822,-3765.9794L13905.1823,-3766.0037L13905.1822,-3766.0158L13905.1824,-3766.0218L13905.1824,-3766.028L13905.2176,-3766.0256L13905.2286,-3766.0232L13905.2537,-3766.0172L13905.3687,-3765.9865L13905.3703,-3765.9915L13905.3781,-3766.0265L13905.3853,-3766.0587L13905.3858,-3766.0638L13905.4037,-3766.1196L13905.4264,-3766.1732L13905.4299,-3766.1861L13905.4453,-3766.2222L13905.454,-3766.2464L13905.4618,-3766.2662L13905.4677,-3766.2835L13905.4702,-3766.2903L13905.4752,-3766.3021L13905.478,-3766.3077L13905.4816,-3766.3308L13905.4879,-3766.3635L13905.4894,-3766.3736L13905.5007,-3766.4333L13905.5101,-3766.4656L13905.5099,-3766.4767L13905.513,-3766.4946L13905.5141,-3766.5184L13905.5176,-3766.5375L13905.5304,-3766.5578L13905.5467,-3766.5826L13905.5714,-3766.6208L13905.5948,-3766.6501L13905.604,-3766.6614L13905.6096,-3766.6698L13905.6125,-3766.6749L13905.6174,-3766.6862L13905.621,-3766.694L13905.6238,-3766.7273L13905.6259,-3766.7391L13905.6281,-3766.7813L13905.6287,-3766.8168L13905.6283,-3766.8212L13905.6238,-3766.863L13905.616,-3766.8894L13905.6059,-3766.9126L13905.6039,-3766.9159L13905.5984,-3766.9255L13905.5757,-3766.9111L13905.5611,-3766.9024L13905.5413,-3766.8907L13905.5325,-3766.8838L13905.5077,-3766.8686L13905.4624,-3766.8449L13905.4256,-3766.8252L13905.3981,-3766.8123L13905.3789,-3766.7971L13905.3669,-3766.7836L13905.3492,-3766.7599L13905.3419,-3766.7479L13905.3333,-3766.7336L13905.3259,-3766.7214L13905.3082,-3766.6922L13905.2974,-3766.6743L13905.265,-3766.6208L13905.2431,-3766.5848L13905.224,-3766.5549L13905.1936,-3766.5043L13905.1645,-3766.4756L13905.1447,-3766.4615L13905.1228,-3766.4502L13905.1019,-3766.4412L13904.979,-3766.3917L13904.9711,-3766.3879L13904.8643,-3766.3449L13904.856,-3766.3402L13904.8327,-3766.3291L13904.8044,-3766.3139L13904.7711,-3766.292L13904.7541,-3766.2796L13904.7449,-3766.27L13904.7336,-3766.2621L13904.6826,-3766.212L13904.6317,-3766.1596"/>
<path content="1,越後交通（株）,燕～燕三条～東三条～加茂線,8.0,4.0,4.0," xlink:title="1" d="M13904.6317,-3766.1596L13904.5178,-3766.0459L13904.4314,-3765.9586L13904.4138,-3765.9417L13904.4076,-3765.9359L13904.3062,-3765.8336L13904.2969,-3765.8233"/>
<path content="1,越後交通（株）,燕～燕三条～東三条～加茂線,8.0,4.0,4.0," xlink:title="1" d="M13904.373,-3766.3185L13904.4074,-3766.2993L13904.453,-3766.2704L13904.4555,-3766.2689L13904.58,-3766.1923L13904.5898,-3766.184L13904.6317,-3766.1596"/>
<path content="2,加茂市,坂田～新飯田（須田）方面,7.0,5.0,5.0," xlink:title="2" d="M13904.9862,-3765.8815L13904.9514,-3765.8901"/>
<path content="2,加茂市,坂田～新飯田（須田）方面,7.0,5.0,5.0," xlink:title="2" d="M13904.9862,-3765.8815L13904.9933,-3765.882L13905.0662,-3765.8871L13905.1151,-3765.8901L13905.2091,-3765.8978L13905.2268,-3765.9001L13905.2636,-3765.9068L13905.3415,-3765.9209L13905.3599,-3765.9237L13905.3669,-3765.9713L13905.3687,-3765.9865L13905.3703,-3765.9915L13905.3781,-3766.0265L13905.3853,-3766.0587L13905.3858,-3766.0638L13905.4037,-3766.1196L13905.4066,-3766.1236L13905.4264,-3766.1732L13905.4299,-3766.1861L13905.4453,-3766.2222L13905.454,-3766.2464L13905.4618,-3766.2662L13905.4677,-3766.2835L13905.4702,-3766.2903L13905.4752,-3766.3021L13905.478,-3766.3077L13905.4816,-3766.3308L13905.4879,-3766.3635L13905.4894,-3766.3736L13905.5007,-3766.4333L13905.5101,-3766.4656L13905.513,-3766.4946L13905.5176,-3766.5375L13905.5304,-3766.5578L13905.5467,-3766.5826L13905.5714,-3766.6208L13905.5948,-3766.6501L13905.604,-3766.6614L13905.6096,-3766.6698L13905.6125,-3766.6749L13905.6174,-3766.6862L13905.621,-3766.694L13905.6238,-3766.7273L13905.6259,-3766.7391L13905.6281,-3766.7813L13905.6287,-3766.8168L13905.6283,-3766.8212L13905.6238,-3766.863L13905.616,-3766.8894L13905.6059,-3766.9126L13905.6039,-3766.9159L13905.5984,-3766.9255L13905.5761,-3766.9655L13905.5726,-3766.9718L13905.5425,-3767.0289L13905.5278,-3767.0651L13905.5193,-3767.0978L13905.513,-3767.1331L13905.5129,-3767.1468L13905.5115,-3767.1592L13905.5115,-3767.1755L13905.5193,-3767.1969L13905.5313,-3767.227L13905.5349,-3767.2358L13905.5625,-3767.2932L13905.5653,-3767.2988L13905.5446,-3767.303"/>
<path content="2,加茂市,坂田～新飯田（須田）方面,7.0,5.0,5.0," xlink:title="2" d="M13905.0205,-3765.9975L13905.0046,-3765.9845L13904.999,-3765.9806L13904.9954,-3765.9721L13904.9905,-3765.9581L13904.9891,-3765.9474L13904.9877,-3765.9327L13904.9891,-3765.8893L13904.9862,-3765.8815"/>
<path content="2,加茂市,坂田～新飯田（須田）方面,7.0,5.0,5.0," xlink:title="2" d="M13905.0205,-3765.9975L13905.0471,-3765.998L13905.0714,-3766.002L13905.1079,-3766.0116L13905.1824,-3766.028"/>
<path content="2,加茂市,坂田～新飯田（須田）方面,7.0,5.0,5.0," xlink:title="2" d="M13905.1824,-3766.028L13905.2176,-3766.0256L13905.2286,-3766.0232"/>
<path content="2,加茂市,坂田～新飯田（須田）方面,7.0,5.0,5.0," xlink:title="2" d="M13905.1824,-3766.028L13905.1957,-3766.0409L13905.1856,-3766.0439L13905.1806,-3766.0446L13905.1755,-3766.0468L13905.1453,-3766.0637L13905.1151,-3766.0806L13905.102,-3766.0877L13905.0973,-3766.0893L13905.0943,-3766.0886L13905.0871,-3766.0824L13905.0667,-3766.058L13905.0463,-3766.0335L13905.0261,-3766.0121L13905.0205,-3765.9975"/>
<path content="2,加茂市,坂田～新飯田（須田）方面,7.0,5.0,5.0," xlink:title="2" d="M13904.2969,-3767.4134L13904.3251,-3767.3752L13904.3354,-3767.3784L13904.3794,-3767.2886L13904.3952,-3767.2643L13904.4035,-3767.2515L13904.4382,-3767.2104L13904.4644,-3767.1834L13904.5069,-3767.1479L13904.5253,-3767.1293L13904.5346,-3767.1164L13904.5431,-3767.1034L13904.5579,-3767.073L13904.5635,-3767.055L13904.5698,-3767.0432L13904.5778,-3767.0099L13904.5893,-3766.9654L13904.6019,-3766.9322L13904.6076,-3766.9159L13904.6133,-3766.9052L13904.6168,-3766.8984L13904.6692,-3766.8331L13904.6621,-3766.8289L13904.6479,-3766.8241L13904.6352,-3766.8174L13904.6168,-3766.8021L13904.5737,-3766.7595L13904.5536,-3766.7388L13904.4979,-3766.6856L13904.4484,-3766.6377L13904.4406,-3766.6309L13904.396,-3766.5851L13904.3783,-3766.5707L13904.3316,-3766.524L13904.2969,-3766.4905M13904.2969,-3766.3675L13904.373,-3766.3185L13904.4074,-3766.2993L13904.453,-3766.2704L13904.4555,-3766.2689L13904.58,-3766.1923L13904.5898,-3766.184L13904.6317,-3766.1596L13904.6975,-3766.1185L13904.7015,-3766.1145L13904.7211,-3766.1057L13904.815,-3766.0453L13904.8281,-3766.0372L13904.8602,-3766.0172L13904.885,-3766.0037L13904.8999,-3765.9975L13904.9077,-3765.9952L13904.9299,-3765.9957L13905.0147,-3765.9974L13905.0205,-3765.9975"/>
<path content="2,加茂市,駅前～七谷方面（上高柳）,5.0,5.0,5.0," xlink:title="2" d="M13906.5707,-3765.5763L13906.6046,-3765.5746L13906.669,-3765.5741L13906.6761,-3765.5684L13906.6952,-3765.5605L13906.7186,-3765.5543L13906.7398,-3765.5504L13906.7631,-3765.5459L13906.7872,-3765.5442L13906.8082,-3765.5409L13906.8113,-3765.5414L13906.8659,-3765.5362L13906.916,-3765.5296L13906.9726,-3765.5206L13907.0512,-3765.5026L13907.1092,-3765.4862L13907.1269,-3765.4795L13907.1613,-3765.4645L13907.2691,-3765.4186L13907.3201,-3765.3973L13907.3543,-3765.3824L13907.4261,-3765.3555L13907.4481,-3765.3449L13907.4856,-3765.3286L13907.514,-3765.3129L13907.5359,-3765.2964L13907.5486,-3765.2835L13907.5777,-3765.2379L13907.589,-3765.2216L13907.601,-3765.2075L13907.6116,-3765.1974L13907.6374,-3765.1741L13907.6497,-3765.1684L13907.681,-3765.1562L13907.7156,-3765.1467L13907.7609,-3765.1377L13907.8543,-3765.1184L13907.9103,-3765.1056L13907.9286,-3765.1016L13908.0015,-3765.0836L13908.0525,-3765.0693L13908.0949,-3765.0566L13908.1919,-3765.0279L13908.2457,-3765.011L13908.3127,-3764.987L13908.3483,-3764.9724L13908.4219,-3764.9417L13908.4467,-3764.9305L13908.4785,-3764.9136L13908.4905,-3764.9057L13908.5038,-3764.8933L13908.5068,-3764.8905L13908.5231,-3764.8719L13908.5946,-3764.7801L13908.6271,-3764.7345L13908.6384,-3764.7182L13908.6705,-3764.6601L13908.6851,-3764.6275L13908.6915,-3764.6027L13908.6925,-3764.5883L13908.6995,-3764.5461L13908.7042,-3764.5036L13908.7092,-3764.4749L13908.7219,-3764.4203L13908.7375,-3764.3674L13908.7467,-3764.3347L13908.763,-3764.2936L13908.7786,-3764.2688L13908.8069,-3764.2328L13908.8491,-3764.1874L13908.8571,-3764.1796L13908.8982,-3764.1489L13908.9293,-3764.1286L13908.9555,-3764.1151L13908.981,-3764.1019L13908.9982,-3764.093L13909.0051,-3764.0898L13909.0475,-3764.0673L13909.0808,-3764.0453L13909.1097,-3764.0222L13909.1727,-3763.9743L13909.2294,-3763.9203L13909.2384,-3763.9088L13909.269,-3763.8727L13909.2803,-3763.8589L13909.2994,-3763.8263L13909.3284,-3763.7711L13909.3426,-3763.7452L13909.3674,-3763.6905L13909.3909,-3763.625L13909.4021,-3763.5926L13909.412,-3763.5481L13909.4162,-3763.5058L13909.4141,-3763.4726L13909.4091,-3763.4411L13909.4014,-3763.4197L13909.378,-3763.3825L13909.361,-3763.3555L13909.3575,-3763.3448L13909.3561,-3763.3206L13909.3575,-3763.3071L13909.3639,-3763.2817L13909.3886,-3763.195L13909.4164,-3763.1371L13909.4191,-3763.1331L13909.4325,-3763.1173L13909.4446,-3763.1021L13909.4573,-3763.0903L13909.4955,-3763.0571L13909.5026,-3763.05L13909.5245,-3763.0283L13909.5549,-3763.0013L13909.5839,-3762.9765L13909.5974,-3762.963L13909.6561,-3762.9134L13909.6574,-3762.9111L13909.7559,-3762.8374L13909.7849,-3762.8183L13909.8635,-3762.7682L13909.8995,-3762.7453L13909.9496,-3762.7135L13909.9788,-3762.6973L13910.0425,-3762.673L13910.0871,-3762.6612L13910.1317,-3762.6544L13910.1601,-3762.6512L13910.1664,-3762.6505L13910.2067,-3762.6432L13910.24,-3762.6353L13910.2669,-3762.6246L13910.2959,-3762.61L13910.3235,-3762.5936L13910.3302,-3762.5883L13910.3402,-3762.5774L13910.3634,-3762.5397L13910.3682,-3762.5266L13910.3737,-3762.5114L13910.3808,-3762.4788L13910.4116,-3762.2952L13910.4161,-3762.264L13910.4212,-3762.2332L13910.4247,-3762.213L13910.4339,-3762.1544L13910.4374,-3762.1257L13910.436,-3762.0812L13910.4325,-3762.0486L13910.4197,-3761.9776L13910.4113,-3761.9444L13910.4084,-3761.9094L13910.4113,-3761.8599L13910.4127,-3761.8475L13910.4127,-3761.8261L13910.4019,-3761.7823L13910.3865,-3761.7383L13910.3785,-3761.7188"/>
<path content="2,加茂市,駅前～七谷方面（上高柳）,5.0,5.0,5.0," xlink:title="2" d="M13904.9862,-3765.8815L13904.9514,-3765.8901"/>
<path content="2,加茂市,駅前～七谷方面（上高柳）,5.0,5.0,5.0," xlink:title="2" d="M13904.9862,-3765.8815L13904.9891,-3765.8893L13904.9877,-3765.9327L13904.9891,-3765.9474L13904.9905,-3765.9581L13904.9954,-3765.9721L13904.999,-3765.9806L13905.0046,-3765.9845L13905.0205,-3765.9975"/>
<path content="2,加茂市,駅前～七谷方面（上高柳）,5.0,5.0,5.0," xlink:title="2" d="M13905.3599,-3765.9237L13905.3415,-3765.9209L13905.2636,-3765.9068L13905.2268,-3765.9001L13905.2091,-3765.8978L13905.1151,-3765.8901L13905.0662,-3765.8871L13904.9862,-3765.8815"/>
<path content="2,加茂市,駅前～七谷方面（上高柳）,5.0,5.0,5.0," xlink:title="2" d="M13905.3599,-3765.9237L13905.3988,-3765.9164L13905.4692,-3765.8942L13905.5233,-3765.8753L13905.5686,-3765.8601L13905.5948,-3765.8516L13905.6359,-3765.8387L13905.6677,-3765.8286L13905.7151,-3765.8131L13905.7746,-3765.7931L13905.9005,-3765.752L13906.013,-3765.7148L13906.0435,-3765.7041L13906.0848,-3765.6911L13906.1027,-3765.6846L13906.1439,-3765.6714L13906.1701,-3765.663L13906.3501,-3765.6149L13906.3682,-3765.6098L13906.4091,-3765.5974L13906.4688,-3765.5831L13906.4772,-3765.5808L13906.4907,-3765.5791L13906.5204,-3765.5774L13906.5707,-3765.5763"/>
<path content="2,加茂市,駅前～七谷方面（上高柳）,5.0,5.0,5.0," xlink:title="2" d="M13905.3687,-3765.9865L13905.3669,-3765.9713L13905.3599,-3765.9237"/>
<path content="2,加茂市,駅前～七谷方面（上高柳）,5.0,5.0,5.0," xlink:title="2" d="M13905.3687,-3765.9865L13905.3703,-3765.9915L13905.3781,-3766.0265L13905.3853,-3766.0587L13905.3858,-3766.0638"/>
<path content="2,加茂市,駅前～七谷方面（上高柳）,5.0,5.0,5.0," xlink:title="2" d="M13905.0205,-3765.9975L13905.0471,-3765.998L13905.0714,-3766.002L13905.1079,-3766.0116L13905.1824,-3766.028L13905.2176,-3766.0256L13905.2286,-3766.0232L13905.3687,-3765.9865"/>
<path content="2,加茂市,駅前～七谷方面（上高柳）,5.0,5.0,5.0," xlink:title="2" d="M13905.3858,-3766.0638L13905.4361,-3766.0505L13905.5924,-3766.0177L13905.7167,-3765.9919L13905.7318,-3765.9885L13905.8496,-3765.9524L13905.9734,-3765.9154L13905.9918,-3765.9084L13906.0143,-3765.9008L13906.1484,-3765.8543L13906.1681,-3765.8469L13906.3149,-3765.7911L13906.3817,-3765.7649L13906.3987,-3765.7582L13906.4134,-3765.7501L13906.4433,-3765.7407L13906.5254,-3765.7069L13906.6144,-3765.6706L13906.5864,-3765.6135L13906.587,-3765.6119L13906.5792,-3765.5949L13906.5707,-3765.5763"/>
<path content="2,加茂市,駅前～七谷方面（上高柳）,5.0,5.0,5.0," xlink:title="2" d="M13905.3858,-3766.0638L13905.4037,-3766.1196L13905.4066,-3766.1236L13905.4264,-3766.1732L13905.4299,-3766.1861L13905.4453,-3766.2222L13905.454,-3766.2464L13905.4618,-3766.2662L13905.4677,-3766.2835L13905.4702,-3766.2903L13905.4752,-3766.3021L13905.478,-3766.3077L13905.4816,-3766.3308L13905.4879,-3766.3635L13905.4894,-3766.3736L13905.5007,-3766.4333L13905.5101,-3766.4656"/>
<path content="2,加茂市,駅前～七谷方面（上高柳）,5.0,5.0,5.0," xlink:title="2" d="M13904.2969,-3766.3675L13904.373,-3766.3185L13904.4074,-3766.2993L13904.453,-3766.2704L13904.4555,-3766.2689L13904.58,-3766.1923L13904.5898,-3766.184L13904.6317,-3766.1596L13904.6975,-3766.1185L13904.7015,-3766.1145L13904.7211,-3766.1057L13904.815,-3766.0453L13904.8281,-3766.0372L13904.8602,-3766.0172L13904.885,-3766.0037L13904.8999,-3765.9975L13904.9077,-3765.9952L13904.9299,-3765.9957L13905.0205,-3765.9975"/>
<path content="2,加茂市,駅前～七谷方面（土倉）,5.0,5.0,5.0," xlink:title="2" d="M13912.3176,-3764.3093L13912.3219,-3764.2901L13912.3353,-3764.267L13912.3438,-3764.2569L13912.3473,-3764.2546L13912.3594,-3764.2496L13912.3658,-3764.2434L13912.3742,-3764.2321L13912.3891,-3764.2158L13912.4118,-3764.1854L13912.4153,-3764.1798L13912.4195,-3764.1679L13912.4195,-3764.155L13912.3933,-3764.0913L13912.3686,-3764.0305L13912.3615,-3764.0057L13912.3608,-3763.9832L13912.3622,-3763.9629L13912.3665,-3763.9455L13912.3665,-3763.9123L13912.3608,-3763.8728L13912.3516,-3763.8424L13912.3481,-3763.8272L13912.3481,-3763.794L13912.3748,-3763.6652L13912.3757,-3763.6476L13912.3707,-3763.6369L13912.3233,-3763.5648L13912.3127,-3763.5468L13912.3028,-3763.5181L13912.2986,-3763.4933L13912.2936,-3763.4747L13912.2879,-3763.4595L13912.2766,-3763.4369L13912.2681,-3763.4257L13912.2483,-3763.4043L13912.2328,-3763.3914L13912.2044,-3763.3728L13912.1754,-3763.3558L13912.1669,-3763.3516L13912.1139,-3763.3268L13912.0941,-3763.3139L13912.065,-3763.2902L13912.0566,-3763.2818L13912.0459,-3763.2666L13912.0389,-3763.2486L13912.0311,-3763.2136L13912.0233,-3763.186L13912.0204,-3763.181L13912.0134,-3763.1708L13911.9964,-3763.1568L13911.9362,-3763.1157L13911.8867,-3763.0808L13911.8747,-3763.0706L13911.8641,-3763.0593L13911.8414,-3763.0261L13911.8152,-3762.9902"/>
<path content="2,加茂市,駅前～七谷方面（土倉）,5.0,5.0,5.0," xlink:title="2" d="M13912.3176,-3764.3093L13912.3551,-3764.3234L13912.4096,-3764.3487L13912.45,-3764.3712L13912.4599,-3764.3774L13912.484,-3764.3951L13912.4927,-3764.4014L13912.5122,-3764.4157L13912.5245,-3764.4266L13912.5844,-3764.4799L13912.6311,-3764.5261L13912.6835,-3764.5779L13912.7365,-3764.6297L13912.8229,-3764.7063L13912.8441,-3764.7221L13912.871,-3764.7396L13912.9679,-3764.8049L13913.0125,-3764.8369L13913.0319,-3764.8511L13913.0585,-3764.8719L13913.0859,-3764.8956"/>
<path content="2,加茂市,駅前～七谷方面（土倉）,5.0,5.0,5.0," xlink:title="2" d="M13908.6995,-3764.5461L13908.7042,-3764.5036L13908.7092,-3764.4749L13908.7219,-3764.4203L13908.7375,-3764.3674L13908.7467,-3764.3347L13908.763,-3764.2936L13908.7786,-3764.2688L13908.8069,-3764.2328L13908.8491,-3764.1874L13908.8571,-3764.1796L13908.8982,-3764.1489L13908.9293,-3764.1286L13908.9555,-3764.1151L13908.981,-3764.1019L13908.9982,-3764.093L13909.0051,-3764.0898L13909.0475,-3764.0673L13909.0808,-3764.0453L13909.1097,-3764.0222L13909.1727,-3763.9743L13909.2294,-3763.9203L13909.2384,-3763.9088L13909.269,-3763.8727L13909.2803,-3763.8589L13909.2994,-3763.8263L13909.3284,-3763.7711L13909.3426,-3763.7452L13909.3674,-3763.6905L13909.3909,-3763.625L13909.4021,-3763.5926L13909.412,-3763.5481L13909.4162,-3763.5058L13909.4141,-3763.4726L13909.4091,-3763.4411L13909.4014,-3763.4197L13909.378,-3763.3825L13909.361,-3763.3555L13909.3575,-3763.3448L13909.3561,-3763.3206L13909.3575,-3763.3071L13909.3639,-3763.2817L13909.3709,-3763.2536L13909.3724,-3763.2446L13909.3886,-3763.195L13909.4164,-3763.1371L13909.4191,-3763.1331L13909.4325,-3763.1173L13909.4732,-3763.1496L13909.4753,-3763.1511L13909.5146,-3763.1849L13909.5181,-3763.1888L13909.654,-3763.3026L13909.6844,-3763.3256L13909.7036,-3763.3366L13909.7177,-3763.3437L13909.7339,-3763.351L13909.7538,-3763.3589L13909.7792,-3763.3656L13909.8061,-3763.3701L13909.8387,-3763.3729L13909.8578,-3763.3746L13909.8812,-3763.3746L13909.9144,-3763.3713L13910.0942,-3763.3392L13910.1274,-3763.3324L13910.1756,-3763.3302L13910.2159,-3763.3313L13910.2669,-3763.3375L13910.3185,-3763.3465L13910.3404,-3763.3516L13910.356,-3763.3578L13910.3921,-3763.3764L13910.4062,-3763.3854L13910.4197,-3763.3927L13910.4204,-3763.3933L13910.4643,-3763.4169L13910.5117,-3763.4378L13910.5527,-3763.4529L13910.5874,-3763.4653L13910.6313,-3763.4794L13910.6879,-3763.4963L13910.7198,-3763.5064L13910.7785,-3763.5239L13910.8046,-3763.5323L13910.8329,-3763.5402L13910.8485,-3763.5504L13910.8599,-3763.5605L13910.8686,-3763.572L13910.9589,-3763.7019L13910.9788,-3763.7227L13911.0346,-3763.7683L13911.0997,-3763.8229L13911.1125,-3763.8364L13911.1287,-3763.8589L13911.1436,-3763.8939L13911.1528,-3763.9231L13911.1592,-3763.9507L13911.1677,-3764.0048L13911.1719,-3764.0228L13911.1776,-3764.0369L13911.1896,-3764.0594L13911.2009,-3764.0735L13911.2229,-3764.0932L13911.2646,-3764.1202L13911.2906,-3764.1304L13911.3722,-3764.1788L13911.525,-3764.2519L13911.5463,-3764.2616L13911.5809,-3764.2773L13911.6071,-3764.288L13911.6291,-3764.2942L13911.6574,-3764.2993L13911.6807,-3764.3021L13911.6934,-3764.3033L13911.7225,-3764.3033L13911.7792,-3764.2925L13911.8421,-3764.283L13911.8704,-3764.2808L13911.9263,-3764.2791L13911.985,-3764.2791L13912.0246,-3764.2813L13912.0586,-3764.2836L13912.0891,-3764.2864L13912.1251,-3764.2881L13912.2228,-3764.2935L13912.2702,-3764.298L13912.2929,-3764.3009L13912.3176,-3764.3093"/>
<path content="2,加茂市,駅前～七谷方面（土倉）,5.0,5.0,5.0," xlink:title="2" d="M13908.6995,-3764.5461L13908.7038,-3764.547L13908.7892,-3764.5539L13908.8154,-3764.5493L13908.9052,-3764.5374L13908.9371,-3764.5352L13908.9618,-3764.5301L13908.9739,-3764.5245L13909.0142,-3764.4974L13909.0524,-3764.4676L13909.0716,-3764.462L13909.0779,-3764.4519L13909.0878,-3764.4344L13909.1062,-3764.4074L13909.1303,-3764.3792L13909.1416,-3764.3736L13909.1494,-3764.3736L13909.2131,-3764.3848L13909.2258,-3764.3848L13909.239,-3764.3834"/>
<path content="2,加茂市,駅前～七谷方面（土倉）,5.0,5.0,5.0," xlink:title="2" d="M13906.5707,-3765.5763L13906.6046,-3765.5746L13906.669,-3765.5741L13906.6761,-3765.5684L13906.6952,-3765.5605L13906.7186,-3765.5543L13906.7398,-3765.5504L13906.7631,-3765.5459L13906.7872,-3765.5442L13906.8082,-3765.5409L13906.8113,-3765.5414L13906.8659,-3765.5362L13906.916,-3765.5296L13906.9726,-3765.5206L13907.0512,-3765.5026L13907.1092,-3765.4862L13907.1269,-3765.4795L13907.1613,-3765.4645L13907.2691,-3765.4186L13907.3201,-3765.3973L13907.3543,-3765.3824L13907.4261,-3765.3555L13907.4481,-3765.3449L13907.4856,-3765.3286L13907.514,-3765.3129L13907.5359,-3765.2964L13907.5486,-3765.2835L13907.5777,-3765.2379L13907.589,-3765.2216L13907.601,-3765.2075L13907.6116,-3765.1974L13907.6374,-3765.1741L13907.6497,-3765.1684L13907.6633,-3765.1624L13907.681,-3765.1562L13907.7156,-3765.1467L13907.7609,-3765.1377L13907.8543,-3765.1184L13907.9103,-3765.1056L13907.9286,-3765.1016L13908.0015,-3765.0836L13908.0525,-3765.0693L13908.0949,-3765.0566L13908.1919,-3765.0279L13908.2457,-3765.011L13908.3127,-3764.987L13908.3483,-3764.9724L13908.4219,-3764.9417L13908.4467,-3764.9305L13908.4785,-3764.9136L13908.4905,-3764.9057L13908.5038,-3764.8933L13908.5068,-3764.8905L13908.5231,-3764.8719L13908.5946,-3764.7801L13908.6271,-3764.7345L13908.6384,-3764.7182L13908.6705,-3764.6601L13908.6851,-3764.6275L13908.6897,-3764.6098L13908.6915,-3764.6027L13908.6925,-3764.5883L13908.6995,-3764.5461"/>
<path content="2,加茂市,駅前～七谷方面（土倉）,5.0,5.0,5.0," xlink:title="2" d="M13904.9862,-3765.8815L13904.9514,-3765.8901"/>
<path content="2,加茂市,駅前～七谷方面（土倉）,5.0,5.0,5.0," xlink:title="2" d="M13904.9862,-3765.8815L13904.9891,-3765.8893L13904.9877,-3765.9327L13904.9891,-3765.9474L13904.9905,-3765.9581L13904.9954,-3765.9721L13904.999,-3765.9806L13905.0046,-3765.9845L13905.0193,-3765.9975"/>
<path content="2,加茂市,駅前～七谷方面（土倉）,5.0,5.0,5.0," xlink:title="2" d="M13905.3599,-3765.9237L13905.3415,-3765.9209L13905.2636,-3765.9068L13905.2268,-3765.9001L13905.2091,-3765.8978L13905.1151,-3765.8901L13905.0662,-3765.8871L13904.9862,-3765.8815"/>
<path content="2,加茂市,駅前～七谷方面（土倉）,5.0,5.0,5.0," xlink:title="2" d="M13905.3599,-3765.9237L13905.3988,-3765.9164L13905.4692,-3765.8942L13905.5233,-3765.8753L13905.5686,-3765.8601L13905.5948,-3765.8516L13905.6359,-3765.8387L13905.6677,-3765.8286L13905.7151,-3765.8131L13905.7746,-3765.7931L13905.9005,-3765.752L13906.013,-3765.7148L13906.0435,-3765.7041L13906.0848,-3765.6911L13906.1027,-3765.6846L13906.1439,-3765.6714L13906.1701,-3765.663L13906.3501,-3765.6149L13906.3682,-3765.6098L13906.4091,-3765.5974L13906.4688,-3765.5831L13906.4772,-3765.5808L13906.4907,-3765.5791L13906.5204,-3765.5774L13906.5707,-3765.5763"/>
<path content="2,加茂市,駅前～七谷方面（土倉）,5.0,5.0,5.0," xlink:title="2" d="M13905.3687,-3765.9865L13905.3669,-3765.9713L13905.3599,-3765.9237"/>
<path content="2,加茂市,駅前～七谷方面（土倉）,5.0,5.0,5.0," xlink:title="2" d="M13905.3687,-3765.9865L13905.3703,-3765.9915L13905.3781,-3766.0265L13905.3853,-3766.0587L13905.3858,-3766.0638"/>
<path content="2,加茂市,駅前～七谷方面（土倉）,5.0,5.0,5.0," xlink:title="2" d="M13905.0193,-3765.9975L13905.0471,-3765.998L13905.0714,-3766.002L13905.1079,-3766.0116L13905.1824,-3766.028L13905.2176,-3766.0256L13905.2286,-3766.0232L13905.3687,-3765.9865"/>
<path content="2,加茂市,駅前～七谷方面（土倉）,5.0,5.0,5.0," xlink:title="2" d="M13905.3858,-3766.0638L13905.4361,-3766.0505L13905.5924,-3766.0177L13905.7167,-3765.9919L13905.7318,-3765.9885L13905.8236,-3765.9603L13905.8496,-3765.9524L13905.9734,-3765.9154L13905.9918,-3765.9084L13906.0143,-3765.9008L13906.1484,-3765.8543L13906.1681,-3765.8469L13906.3149,-3765.7911L13906.3817,-3765.7649L13906.3987,-3765.7582L13906.4134,-3765.7501L13906.4433,-3765.7407L13906.5254,-3765.7069L13906.6144,-3765.6706L13906.5864,-3765.6135L13906.5792,-3765.5949L13906.5707,-3765.5763"/>
<path content="2,加茂市,駅前～七谷方面（土倉）,5.0,5.0,5.0," xlink:title="2" d="M13905.3858,-3766.0638L13905.4037,-3766.1196L13905.4066,-3766.1236L13905.4264,-3766.1732L13905.4299,-3766.1861L13905.4453,-3766.2222L13905.454,-3766.2464L13905.4618,-3766.2662L13905.4677,-3766.2835L13905.4702,-3766.2903L13905.4752,-3766.3021L13905.478,-3766.3077L13905.4816,-3766.3308L13905.4879,-3766.3635L13905.4894,-3766.3736L13905.5007,-3766.4333L13905.5101,-3766.4656"/>
<path content="2,加茂市,駅前～七谷方面（土倉）,5.0,5.0,5.0," xlink:title="2" d="M13904.2969,-3766.3675L13904.373,-3766.3185L13904.4074,-3766.2993L13904.453,-3766.2704L13904.4555,-3766.2689L13904.58,-3766.1923L13904.5898,-3766.184L13904.6317,-3766.1596L13904.6975,-3766.1185L13904.7015,-3766.1145L13904.7211,-3766.1057L13904.815,-3766.0453L13904.8281,-3766.0372L13904.8602,-3766.0172L13904.885,-3766.0037L13904.8999,-3765.9975L13904.9077,-3765.9952L13904.9299,-3765.9957L13905.0193,-3765.9975"/>
<path content="2,加茂市,駅前～七谷方面（戸倉）,7.0,7.0,7.0," xlink:title="2" d="M13913.0859,-3761.7515L13913.0013,-3761.7661L13912.9808,-3761.77L13912.8811,-3761.7881L13912.806,-3761.7999L13912.7614,-3761.7999L13912.7367,-3761.7942L13912.6935,-3761.7762L13912.5895,-3761.7233L13912.5804,-3761.7188M13910.4201,-3761.7188L13910.4106,-3761.7242L13910.3865,-3761.7383L13910.4019,-3761.7823L13910.4127,-3761.8261L13910.4127,-3761.8475L13910.4113,-3761.8599L13910.4084,-3761.9094L13910.4113,-3761.9444L13910.4197,-3761.9776L13910.4325,-3762.0486L13910.436,-3762.0812L13910.4374,-3762.1257L13910.4339,-3762.1544L13910.4247,-3762.213L13910.4212,-3762.2332L13910.4161,-3762.264L13910.4116,-3762.2952L13910.3737,-3762.5114L13910.3682,-3762.5266L13910.3634,-3762.5397L13910.3402,-3762.5774L13910.3302,-3762.5883L13910.3235,-3762.5936L13910.2959,-3762.61L13910.2669,-3762.6246L13910.24,-3762.6353L13910.2067,-3762.6432L13910.1664,-3762.6505L13910.1601,-3762.6512L13910.1317,-3762.6544L13910.0871,-3762.6612L13910.0425,-3762.673L13909.9788,-3762.6973L13909.9618,-3762.7057L13909.9496,-3762.7135L13909.8995,-3762.7453L13909.8635,-3762.7682L13909.7849,-3762.8183L13909.7559,-3762.8374L13909.6574,-3762.9111L13909.6561,-3762.9134L13909.5974,-3762.963L13909.5839,-3762.9765L13909.5549,-3763.0013L13909.5245,-3763.0283L13909.5026,-3763.05L13909.4955,-3763.0571L13909.4573,-3763.0903L13909.4446,-3763.1021L13909.4325,-3763.1173L13909.4191,-3763.1331L13909.4164,-3763.1371L13909.3886,-3763.195L13909.3724,-3763.2446L13909.3709,-3763.2536L13909.3639,-3763.2817L13909.3575,-3763.3071L13909.3561,-3763.3206L13909.3575,-3763.3448L13909.361,-3763.3555L13909.378,-3763.3825L13909.4014,-3763.4197L13909.4091,-3763.4411L13909.4141,-3763.4726L13909.4162,-3763.5058L13909.412,-3763.5481L13909.4021,-3763.5926L13909.3909,-3763.625L13909.3674,-3763.6905L13909.3426,-3763.7452L13909.3284,-3763.7711L13909.2994,-3763.8263L13909.2803,-3763.8589L13909.269,-3763.8727L13909.2384,-3763.9088L13909.2294,-3763.9203L13909.1727,-3763.9743L13909.1097,-3764.0222L13909.0808,-3764.0453L13909.0475,-3764.0673L13909.0051,-3764.0898L13908.9982,-3764.093L13908.981,-3764.1019L13908.9555,-3764.1151L13908.9293,-3764.1286L13908.8982,-3764.1489L13908.8571,-3764.1796L13908.8491,-3764.1874L13908.8069,-3764.2328L13908.7786,-3764.2688L13908.763,-3764.2936L13908.7467,-3764.3347L13908.7375,-3764.3674L13908.7219,-3764.4203L13908.7092,-3764.4749L13908.7042,-3764.5036L13908.6995,-3764.5461L13908.6925,-3764.5883L13908.6915,-3764.6027L13908.6897,-3764.6098L13908.6851,-3764.6275L13908.6705,-3764.6601L13908.6384,-3764.7182L13908.6271,-3764.7345L13908.5946,-3764.7801L13908.5231,-3764.8719L13908.5068,-3764.8905L13908.5038,-3764.8933L13908.4905,-3764.9057L13908.4785,-3764.9136L13908.4467,-3764.9305L13908.4219,-3764.9417L13908.3483,-3764.9724L13908.3127,-3764.987L13908.2457,-3765.011L13908.1919,-3765.0279L13908.0949,-3765.0566L13908.0525,-3765.0693L13908.0015,-3765.0836L13907.9286,-3765.1016L13907.9103,-3765.1056L13907.8543,-3765.1184L13907.7609,-3765.1377L13907.7156,-3765.1467L13907.681,-3765.1562L13907.6633,-3765.1624L13907.6497,-3765.1684L13907.6374,-3765.1741L13907.6116,-3765.1974L13907.601,-3765.2075L13907.589,-3765.2216L13907.5777,-3765.2379L13907.5486,-3765.2835L13907.5359,-3765.2964L13907.514,-3765.3129L13907.4856,-3765.3286L13907.4481,-3765.3449L13907.4261,-3765.3555L13907.3543,-3765.3824L13907.3201,-3765.3973L13907.2691,-3765.4186L13907.1613,-3765.4645L13907.1269,-3765.4795L13907.1092,-3765.4862L13907.0512,-3765.5026L13906.9726,-3765.5206L13906.916,-3765.5296L13906.8659,-3765.5362L13906.8113,-3765.5414L13906.8082,-3765.5409L13906.7872,-3765.5442L13906.7631,-3765.5459L13906.7398,-3765.5504L13906.7186,-3765.5543L13906.6952,-3765.5605L13906.6761,-3765.5684L13906.669,-3765.5741L13906.6046,-3765.5746L13906.5707,-3765.5763L13906.5792,-3765.5949L13906.5864,-3765.6135L13906.6144,-3765.6706L13906.5254,-3765.7069L13906.4433,-3765.7407L13906.4134,-3765.7501L13906.3987,-3765.7582L13906.3817,-3765.7649L13906.3149,-3765.7911L13906.1681,-3765.8469L13906.1484,-3765.8543L13906.0143,-3765.9008L13905.9918,-3765.9084L13905.9734,-3765.9154L13905.8496,-3765.9524L13905.8236,-3765.9603L13905.7318,-3765.9885L13905.7167,-3765.9919L13905.5924,-3766.0177L13905.4361,-3766.0505L13905.3858,-3766.0638L13905.3853,-3766.0587L13905.3781,-3766.0265L13905.3703,-3765.9915L13905.3687,-3765.9865"/>
<path content="2,加茂市,駅前～七谷方面（戸倉）,7.0,7.0,7.0," xlink:title="2" d="M13904.9862,-3765.8815L13904.9514,-3765.8901"/>
<path content="2,加茂市,駅前～七谷方面（戸倉）,7.0,7.0,7.0," xlink:title="2" d="M13904.9862,-3765.8815L13904.9891,-3765.8893L13904.9877,-3765.9327L13904.9891,-3765.9474L13904.9905,-3765.9581L13904.9954,-3765.9721L13904.999,-3765.9806L13905.0046,-3765.9845L13905.0197,-3765.9969"/>
<path content="2,加茂市,駅前～七谷方面（戸倉）,7.0,7.0,7.0," xlink:title="2" d="M13905.3687,-3765.9865L13905.3669,-3765.9713L13905.3599,-3765.9237L13905.3415,-3765.9209L13905.2636,-3765.9068L13905.2268,-3765.9001L13905.2091,-3765.8978L13905.1151,-3765.8901L13905.0662,-3765.8871L13904.9933,-3765.882L13904.9862,-3765.8815"/>
<path content="2,加茂市,駅前～七谷方面（戸倉）,7.0,7.0,7.0," xlink:title="2" d="M13905.3687,-3765.9865L13905.2537,-3766.0172L13905.2286,-3766.0232L13905.2176,-3766.0256L13905.1824,-3766.028"/>
<path content="2,加茂市,駅前～七谷方面（戸倉）,7.0,7.0,7.0," xlink:title="2" d="M13905.0197,-3765.9969L13905.0261,-3766.0121L13905.0463,-3766.0335L13905.0667,-3766.058L13905.0871,-3766.0824L13905.0943,-3766.0886L13905.0973,-3766.0893L13905.102,-3766.0877L13905.1151,-3766.0806L13905.1453,-3766.0637L13905.1755,-3766.0468L13905.1806,-3766.0446L13905.1856,-3766.0439L13905.1957,-3766.0409L13905.1824,-3766.028"/>
<path content="2,加茂市,駅前～七谷方面（戸倉）,7.0,7.0,7.0," xlink:title="2" d="M13905.0197,-3765.9969L13904.9299,-3765.9957L13904.9077,-3765.9952L13904.8999,-3765.9975L13904.885,-3766.0037L13904.8602,-3766.0172L13904.8281,-3766.0372L13904.815,-3766.0453L13904.7211,-3766.1057L13904.7015,-3766.1145L13904.6975,-3766.1185L13904.6317,-3766.1596L13904.5898,-3766.184L13904.58,-3766.1923L13904.4555,-3766.2689L13904.453,-3766.2704L13904.4074,-3766.2993L13904.373,-3766.3185L13904.2969,-3766.3675"/>
<path content="2,加茂市,駅前～七谷方面（戸倉）,7.0,7.0,7.0," xlink:title="2" d="M13905.1824,-3766.028L13905.1079,-3766.0116L13905.0714,-3766.002L13905.0471,-3765.998L13905.0197,-3765.9969"/>
<path content="2,加茂市,駅前～七谷方面（村松）,3.0,3.0,3.0," xlink:title="2" d="M13904.9862,-3765.8815L13904.9514,-3765.8901"/>
<path content="2,加茂市,駅前～七谷方面（村松）,3.0,3.0,3.0," xlink:title="2" d="M13904.9862,-3765.8815L13904.9891,-3765.8893L13904.9877,-3765.9327L13904.9891,-3765.9474L13904.9905,-3765.9581L13904.9954,-3765.9721L13904.999,-3765.9806L13905.0046,-3765.9845L13905.0197,-3765.9969"/>
<path content="2,加茂市,駅前～七谷方面（村松）,3.0,3.0,3.0," xlink:title="2" d="M13905.3687,-3765.9865L13905.3669,-3765.9713L13905.3599,-3765.9237L13905.3415,-3765.9209L13905.2636,-3765.9068L13905.2268,-3765.9001L13905.2091,-3765.8978L13905.1151,-3765.8901L13905.0662,-3765.8871L13904.9933,-3765.882L13904.9862,-3765.8815"/>
<path content="2,加茂市,駅前～七谷方面（村松）,3.0,3.0,3.0," xlink:title="2" d="M13905.3687,-3765.9865L13905.3703,-3765.9915L13905.3781,-3766.0265L13905.3853,-3766.0587L13905.3858,-3766.0638"/>
<path content="2,加茂市,駅前～七谷方面（村松）,3.0,3.0,3.0," xlink:title="2" d="M13905.0197,-3765.9969L13905.0471,-3765.998L13905.0714,-3766.002L13905.1079,-3766.0116L13905.1824,-3766.028"/>
<path content="2,加茂市,駅前～七谷方面（村松）,3.0,3.0,3.0," xlink:title="2" d="M13905.0197,-3765.9969L13905.0261,-3766.0121L13905.0463,-3766.0335L13905.0667,-3766.058L13905.0871,-3766.0824L13905.0943,-3766.0886L13905.0973,-3766.0893L13905.102,-3766.0877L13905.1151,-3766.0806L13905.1453,-3766.0637L13905.1755,-3766.0468L13905.1806,-3766.0446L13905.1856,-3766.0439L13905.1957,-3766.0409L13905.1824,-3766.028"/>
<path content="2,加茂市,駅前～七谷方面（村松）,3.0,3.0,3.0," xlink:title="2" d="M13905.1824,-3766.028L13905.2176,-3766.0256L13905.2286,-3766.0232L13905.2537,-3766.0172L13905.3687,-3765.9865"/>
<path content="2,加茂市,駅前～七谷方面（村松）,3.0,3.0,3.0," xlink:title="2" d="M13905.3858,-3766.0638L13905.4361,-3766.0505L13905.5924,-3766.0177L13905.7167,-3765.9919L13905.7318,-3765.9885L13905.8236,-3765.9603L13905.8496,-3765.9524L13905.9734,-3765.9154L13905.9918,-3765.9084L13906.0143,-3765.9008L13906.1484,-3765.8543L13906.1681,-3765.8469L13906.3149,-3765.7911L13906.3817,-3765.7649L13906.3987,-3765.7582L13906.4134,-3765.7501L13906.4433,-3765.7407L13906.5254,-3765.7069L13906.6144,-3765.6706L13906.5864,-3765.6135L13906.5792,-3765.5949L13906.5707,-3765.5763L13906.6046,-3765.5746L13906.669,-3765.5741L13906.6761,-3765.5684L13906.6952,-3765.5605L13906.7186,-3765.5543L13906.7398,-3765.5504L13906.7631,-3765.5459L13906.7872,-3765.5442L13906.8082,-3765.5409L13906.8113,-3765.5414L13906.8659,-3765.5362L13906.916,-3765.5296L13906.9726,-3765.5206L13907.0512,-3765.5026L13907.1092,-3765.4862L13907.1269,-3765.4795L13907.1613,-3765.4645L13907.2691,-3765.4186L13907.3201,-3765.3973L13907.3543,-3765.3824L13907.4261,-3765.3555L13907.4481,-3765.3449L13907.4856,-3765.3286L13907.514,-3765.3129L13907.5359,-3765.2964L13907.5486,-3765.2835L13907.5777,-3765.2379L13907.589,-3765.2216L13907.601,-3765.2075L13907.6116,-3765.1974L13907.6374,-3765.1741L13907.6497,-3765.1684L13907.6633,-3765.1624L13907.681,-3765.1562L13907.7156,-3765.1467L13907.7609,-3765.1377L13907.8543,-3765.1184L13907.9103,-3765.1056L13907.9286,-3765.1016L13908.0015,-3765.0836L13908.0525,-3765.0693L13908.0949,-3765.0566L13908.1919,-3765.0279L13908.2457,-3765.011L13908.3127,-3764.987L13908.3483,-3764.9724L13908.4219,-3764.9417L13908.4467,-3764.9305L13908.4785,-3764.9136L13908.4905,-3764.9057L13908.5038,-3764.8933L13908.5068,-3764.8905L13908.5231,-3764.8719L13908.5946,-3764.7801L13908.6271,-3764.7345L13908.6384,-3764.7182L13908.6705,-3764.6601L13908.6851,-3764.6275L13908.6897,-3764.6098L13908.6915,-3764.6027L13908.6925,-3764.5883L13908.6995,-3764.5461L13908.7042,-3764.5036L13908.7092,-3764.4749L13908.7219,-3764.4203L13908.7375,-3764.3674L13908.7467,-3764.3347L13908.763,-3764.2936L13908.7786,-3764.2688L13908.8069,-3764.2328L13908.8491,-3764.1874L13908.8571,-3764.1796L13908.8982,-3764.1489L13908.9293,-3764.1286L13908.9555,-3764.1151L13908.981,-3764.1019L13908.9982,-3764.093L13909.0051,-3764.0898L13909.0475,-3764.0673L13909.0808,-3764.0453L13909.1097,-3764.0222L13909.1727,-3763.9743L13909.2294,-3763.9203L13909.2384,-3763.9088L13909.269,-3763.8727L13909.2803,-3763.8589L13909.2994,-3763.8263L13909.3284,-3763.7711L13909.3426,-3763.7452L13909.3674,-3763.6905L13909.3909,-3763.625L13909.4021,-3763.5926L13909.412,-3763.5481L13909.4162,-3763.5058L13909.4141,-3763.4726L13909.4091,-3763.4411L13909.4014,-3763.4197L13909.378,-3763.3825L13909.361,-3763.3555L13909.3575,-3763.3448L13909.3561,-3763.3206L13909.3575,-3763.3071L13909.3639,-3763.2817L13909.3709,-3763.2536L13909.3724,-3763.2446L13909.3886,-3763.195L13909.412,-3763.146L13909.4164,-3763.1371L13909.4191,-3763.1331L13909.4325,-3763.1173L13909.4732,-3763.1496L13909.4753,-3763.1511L13909.5146,-3763.1849L13909.5181,-3763.1888L13909.654,-3763.3026L13909.6844,-3763.3256L13909.7036,-3763.3366L13909.7339,-3763.351L13909.7538,-3763.3589L13909.7792,-3763.3656L13909.8061,-3763.3701L13909.8387,-3763.3729L13909.8578,-3763.3746L13909.8812,-3763.3746L13909.9144,-3763.3713L13910.0942,-3763.3392L13910.1274,-3763.3324L13910.1756,-3763.3302L13910.2159,-3763.3313L13910.2669,-3763.3375L13910.3185,-3763.3465L13910.3404,-3763.3516L13910.356,-3763.3578L13910.3921,-3763.3764L13910.4062,-3763.3854L13910.4197,-3763.3927L13910.4204,-3763.3933L13910.4643,-3763.4169L13910.5117,-3763.4378L13910.5527,-3763.4529L13910.5874,-3763.4653L13910.6313,-3763.4794L13910.6879,-3763.4963L13910.7198,-3763.5064L13910.7785,-3763.5239L13910.8046,-3763.5323L13910.8329,-3763.5402L13910.8485,-3763.5504L13910.8599,-3763.5605L13910.8686,-3763.572L13910.8776,-3763.5824L13910.9059,-3763.623L13910.9278,-3763.6562L13910.9589,-3763.7019L13910.9788,-3763.7227L13911.0346,-3763.7683L13911.0997,-3763.8229L13911.1125,-3763.8364L13911.1287,-3763.8589L13911.1436,-3763.8939L13911.1528,-3763.9231L13911.1592,-3763.9507L13911.1677,-3764.0048L13911.1719,-3764.0228L13911.1776,-3764.0369L13911.1896,-3764.0594L13911.2009,-3764.0735L13911.2229,-3764.0932L13911.2906,-3764.1304L13911.3722,-3764.1788L13911.4578,-3764.221L13911.525,-3764.2519L13911.5463,-3764.2616L13911.5809,-3764.2773L13911.6071,-3764.288L13911.6291,-3764.2942L13911.6574,-3764.2993L13911.6807,-3764.3021L13911.6934,-3764.3033L13911.7225,-3764.3033L13911.7792,-3764.2925L13911.8421,-3764.283L13911.8704,-3764.2808L13911.9263,-3764.2791L13911.985,-3764.2791L13912.0246,-3764.2813L13912.0586,-3764.2836L13912.0891,-3764.2864L13912.1251,-3764.2881L13912.2228,-3764.2935L13912.2702,-3764.298L13912.2929,-3764.3009L13912.2985,-3764.3031L13912.3176,-3764.3093L13912.3551,-3764.3234L13912.4096,-3764.3487L13912.45,-3764.3712L13912.4599,-3764.3774L13912.484,-3764.3951L13912.4927,-3764.4014L13912.5122,-3764.4157L13912.5245,-3764.4266L13912.5844,-3764.4799L13912.6311,-3764.5261L13912.6835,-3764.5779L13912.7365,-3764.6297L13912.8229,-3764.7063L13912.8441,-3764.7221L13912.871,-3764.7396L13912.9679,-3764.8049L13913.0125,-3764.8369L13913.0319,-3764.8511L13913.0585,-3764.8719L13913.0859,-3764.8956"/>
<path content="2,加茂市,駅前～七谷方面（村松）,3.0,3.0,3.0," xlink:title="2" d="M13905.3858,-3766.0638L13905.4037,-3766.1196L13905.4066,-3766.1236L13905.4264,-3766.1732L13905.4299,-3766.1861L13905.4453,-3766.2222L13905.454,-3766.2464L13905.4618,-3766.2662L13905.4677,-3766.2835L13905.4702,-3766.2903L13905.4752,-3766.3021L13905.478,-3766.3077L13905.4816,-3766.3308L13905.4879,-3766.3635L13905.4894,-3766.3736L13905.5007,-3766.4333L13905.5101,-3766.4656"/>
<path content="2,加茂市,駅前～七谷方面（村松）,3.0,3.0,3.0," xlink:title="2" d="M13904.2969,-3766.3675L13904.373,-3766.3185L13904.4074,-3766.2993L13904.453,-3766.2704L13904.4555,-3766.2689L13904.58,-3766.1923L13904.5898,-3766.184L13904.6317,-3766.1596L13904.6975,-3766.1185L13904.7015,-3766.1145L13904.7211,-3766.1057L13904.815,-3766.0453L13904.8281,-3766.0372L13904.8602,-3766.0172L13904.885,-3766.0037L13904.8999,-3765.9975L13904.9077,-3765.9952L13904.9299,-3765.9957L13905.0197,-3765.9969"/>
<path content="2,加茂市,駅前～七谷方面（牧）,1.0,1.0,1.0," xlink:title="2" d="M13904.9862,-3765.8815L13904.9933,-3765.882L13905.0662,-3765.8871L13905.1151,-3765.8901"/>
<path content="2,加茂市,駅前～七谷方面（牧）,1.0,1.0,1.0," xlink:title="2" d="M13904.9862,-3765.8815L13904.9514,-3765.8901"/>
<path content="2,加茂市,駅前～七谷方面（牧）,1.0,1.0,1.0," xlink:title="2" d="M13905.0205,-3765.9975L13905.0046,-3765.9845L13904.999,-3765.9806L13904.9954,-3765.9721L13904.9905,-3765.9581L13904.9891,-3765.9474L13904.9877,-3765.9327L13904.9891,-3765.8893L13904.9862,-3765.8815"/>
<path content="2,加茂市,駅前～七谷方面（牧）,1.0,1.0,1.0," xlink:title="2" d="M13905.0205,-3765.9975L13905.0471,-3765.998L13905.0714,-3766.002L13905.1079,-3766.0116L13905.1824,-3766.028"/>
<path content="2,加茂市,駅前～七谷方面（牧）,1.0,1.0,1.0," xlink:title="2" d="M13905.1824,-3766.028L13905.2176,-3766.0256L13905.2286,-3766.0232L13905.2537,-3766.0172L13905.3687,-3765.9865L13905.3703,-3765.9915L13905.3781,-3766.0265L13905.3853,-3766.0587L13905.3858,-3766.0638"/>
<path content="2,加茂市,駅前～七谷方面（牧）,1.0,1.0,1.0," xlink:title="2" d="M13905.1824,-3766.028L13905.1957,-3766.0409L13905.1856,-3766.0439L13905.1806,-3766.0446L13905.1755,-3766.0468L13905.1453,-3766.0637L13905.1151,-3766.0806L13905.102,-3766.0877L13905.0973,-3766.0893L13905.0943,-3766.0886L13905.0871,-3766.0824L13905.0667,-3766.058L13905.0463,-3766.0335L13905.0261,-3766.0121L13905.0205,-3765.9975"/>
<path content="2,加茂市,駅前～七谷方面（牧）,1.0,1.0,1.0," xlink:title="2" d="M13905.3858,-3766.0638L13905.4037,-3766.1196L13905.4066,-3766.1236L13905.4264,-3766.1732L13905.4299,-3766.1861L13905.4453,-3766.2222L13905.454,-3766.2464L13905.4618,-3766.2662L13905.4677,-3766.2835L13905.4702,-3766.2903L13905.4752,-3766.3021L13905.478,-3766.3077L13905.4816,-3766.3308L13905.4879,-3766.3635L13905.4894,-3766.3736L13905.5007,-3766.4333L13905.5101,-3766.4656"/>
<path content="2,加茂市,駅前～七谷方面（牧）,1.0,1.0,1.0," xlink:title="2" d="M13905.3858,-3766.0638L13905.4361,-3766.0505L13905.5924,-3766.0177L13905.7167,-3765.9919L13905.7318,-3765.9885L13905.8236,-3765.9603L13905.8496,-3765.9524L13905.9734,-3765.9154L13905.9918,-3765.9084L13906.0143,-3765.9008L13906.1484,-3765.8543L13906.1681,-3765.8469L13906.3149,-3765.7911L13906.3817,-3765.7649L13906.3987,-3765.7582L13906.4134,-3765.7501L13906.4433,-3765.7407L13906.5254,-3765.7069L13906.6144,-3765.6706L13906.5864,-3765.6135L13906.5792,-3765.5949L13906.5707,-3765.5763L13906.6046,-3765.5746L13906.669,-3765.5741L13906.6761,-3765.5684L13906.6952,-3765.5605L13906.7186,-3765.5543L13906.7398,-3765.5504L13906.7631,-3765.5459L13906.7872,-3765.5442L13906.8082,-3765.5409L13906.8113,-3765.5414L13906.8659,-3765.5362L13906.916,-3765.5296L13906.9726,-3765.5206L13907.0512,-3765.5026L13907.1092,-3765.4862L13907.1269,-3765.4795L13907.1613,-3765.4645L13907.2691,-3765.4186L13907.3201,-3765.3973L13907.3543,-3765.3824L13907.4261,-3765.3555L13907.4481,-3765.3449L13907.4856,-3765.3286L13907.514,-3765.3129L13907.5359,-3765.2964L13907.5486,-3765.2835L13907.5777,-3765.2379L13907.589,-3765.2216L13907.601,-3765.2075L13907.6116,-3765.1974L13907.6374,-3765.1741L13907.6497,-3765.1684L13907.6633,-3765.1624L13907.681,-3765.1562L13907.7156,-3765.1467L13907.7609,-3765.1377L13907.8543,-3765.1184L13907.9103,-3765.1056L13907.9286,-3765.1016L13908.0015,-3765.0836L13908.0525,-3765.0693L13908.0949,-3765.0566L13908.1919,-3765.0279L13908.2457,-3765.011L13908.3127,-3764.987L13908.3483,-3764.9724L13908.4219,-3764.9417L13908.4467,-3764.9305L13908.4785,-3764.9136L13908.4905,-3764.9057L13908.5038,-3764.8933L13908.5068,-3764.8905L13908.5231,-3764.8719L13908.5946,-3764.7801L13908.6271,-3764.7345L13908.6384,-3764.7182L13908.6705,-3764.6601L13908.6851,-3764.6275L13908.6897,-3764.6098L13908.6915,-3764.6027L13908.6925,-3764.5883L13908.6995,-3764.5461L13908.7042,-3764.5036L13908.7092,-3764.4749L13908.7219,-3764.4203L13908.7375,-3764.3674L13908.7467,-3764.3347L13908.763,-3764.2936L13908.7786,-3764.2688L13908.8069,-3764.2328L13908.8491,-3764.1874L13908.8571,-3764.1796L13908.8982,-3764.1489L13908.9293,-3764.1286L13908.9555,-3764.1151L13908.981,-3764.1019L13908.9982,-3764.093L13909.0051,-3764.0898L13909.0475,-3764.0673L13909.0808,-3764.0453L13909.1097,-3764.0222L13909.1727,-3763.9743L13909.2294,-3763.9203L13909.2384,-3763.9088L13909.269,-3763.8727L13909.2994,-3763.8263L13909.3284,-3763.7711L13909.3426,-3763.7452L13909.3674,-3763.6905L13909.3909,-3763.625L13909.4021,-3763.5926L13909.412,-3763.5481L13909.4162,-3763.5058L13909.4141,-3763.4726L13909.4091,-3763.4411L13909.4014,-3763.4197L13909.378,-3763.3825L13909.361,-3763.3555L13909.3575,-3763.3448L13909.3561,-3763.3206L13909.3575,-3763.3071L13909.3639,-3763.2817L13909.3709,-3763.2536L13909.3724,-3763.2446L13909.3886,-3763.195L13909.4164,-3763.1371L13909.4191,-3763.1331L13909.4325,-3763.1173L13909.4732,-3763.1496L13909.4753,-3763.1511L13909.5146,-3763.1849L13909.5181,-3763.1888L13909.654,-3763.3026L13909.6844,-3763.3256L13909.7036,-3763.3366L13909.7339,-3763.351L13909.7538,-3763.3589L13909.7792,-3763.3656L13909.8061,-3763.3701L13909.8387,-3763.3729L13909.8578,-3763.3746L13909.8812,-3763.3746L13909.9144,-3763.3713L13910.0942,-3763.3392L13910.1274,-3763.3324L13910.1756,-3763.3302L13910.2159,-3763.3313L13910.2669,-3763.3375L13910.3185,-3763.3465L13910.3404,-3763.3516L13910.356,-3763.3578L13910.3921,-3763.3764L13910.4062,-3763.3854L13910.4197,-3763.3927L13910.4204,-3763.3933L13910.4643,-3763.4169L13910.5117,-3763.4378L13910.5527,-3763.4529L13910.5874,-3763.4653L13910.6313,-3763.4794L13910.6879,-3763.4963L13910.7198,-3763.5064L13910.7785,-3763.5239L13910.8046,-3763.5323L13910.8329,-3763.5402L13910.8485,-3763.5504L13910.8599,-3763.5605L13910.8686,-3763.572L13910.9278,-3763.6562L13910.9589,-3763.7019L13910.9788,-3763.7227L13911.0346,-3763.7683L13911.0997,-3763.8229L13911.1125,-3763.8364L13911.1287,-3763.8589L13911.1436,-3763.8939L13911.1528,-3763.9231L13911.1592,-3763.9507L13911.1677,-3764.0048L13911.1719,-3764.0228L13911.1776,-3764.0369L13911.1896,-3764.0594L13911.2009,-3764.0735L13911.2229,-3764.0932L13911.2646,-3764.1202L13911.2906,-3764.1304L13911.3722,-3764.1788L13911.4578,-3764.221L13911.525,-3764.2519L13911.5463,-3764.2616L13911.5809,-3764.2773L13911.6071,-3764.288L13911.6291,-3764.2942L13911.6574,-3764.2993L13911.6807,-3764.3021L13911.6934,-3764.3033L13911.7225,-3764.3033L13911.7792,-3764.2925L13911.8173,-3764.2864L13911.8421,-3764.283L13911.8704,-3764.2808L13911.9263,-3764.2791L13911.985,-3764.2791L13912.0246,-3764.2813L13912.0586,-3764.2836L13912.0891,-3764.2864L13912.1251,-3764.2881L13912.2228,-3764.2935L13912.2702,-3764.298L13912.2929,-3764.3009L13912.2985,-3764.3031L13912.3176,-3764.3093L13912.3551,-3764.3234L13912.4096,-3764.3487L13912.45,-3764.3712L13912.4599,-3764.3774L13912.484,-3764.3951L13912.4927,-3764.4014L13912.5122,-3764.4157L13912.5245,-3764.4266L13912.5844,-3764.4799L13912.6311,-3764.5261L13912.6835,-3764.5779L13912.7365,-3764.6297L13912.8229,-3764.7063L13912.8441,-3764.7221L13912.871,-3764.7396L13912.9679,-3764.8049L13913.0125,-3764.8369L13913.0319,-3764.8511L13913.0585,-3764.8719L13913.0859,-3764.8956"/>
<path content="2,加茂市,駅前～七谷方面（牧）,1.0,1.0,1.0," xlink:title="2" d="M13904.2969,-3766.3675L13904.373,-3766.3185L13904.4074,-3766.2993L13904.453,-3766.2704L13904.4555,-3766.2689L13904.58,-3766.1923L13904.5898,-3766.184L13904.6317,-3766.1596L13904.6975,-3766.1185L13904.7015,-3766.1145L13904.7211,-3766.1057L13904.815,-3766.0453L13904.8281,-3766.0372L13904.8602,-3766.0172L13904.885,-3766.0037L13904.8999,-3765.9975L13904.9077,-3765.9952L13904.9299,-3765.9957L13905.0205,-3765.9975"/>
<path content="2,加茂市,駅前～下条方面,9.0,0.0,0.0," xlink:title="2" d="M13904.2969,-3765.3503L13904.301,-3765.3472L13904.2969,-3765.3455"/>
<path content="2,加茂市,駅前～下条方面,9.0,0.0,0.0," xlink:title="2" d="M13904.9862,-3765.8815L13904.9855,-3765.8786L13904.9806,-3765.8719L13904.9629,-3765.8477L13904.9413,-3765.8296L13904.9302,-3765.8183L13904.8532,-3765.7683L13904.8379,-3765.7604L13904.8334,-3765.746L13904.8317,-3765.7405L13904.7924,-3765.712L13904.7796,-3765.7001L13904.7429,-3765.6613L13904.7343,-3765.6534L13904.7074,-3765.6286L13904.6409,-3765.5757L13904.6232,-3765.5627L13904.6069,-3765.5498L13904.5511,-3765.5064L13904.5461,-3765.5036L13904.5185,-3765.485L13904.4845,-3765.4997L13904.4725,-3765.5014L13904.365,-3765.5019L13904.3551,-3765.5025L13904.3366,-3765.5036L13904.3298,-3765.5052L13904.3097,-3765.5234L13904.2969,-3765.5303"/>
<path content="2,加茂市,駅前～下条方面,9.0,0.0,0.0," xlink:title="2" d="M13904.9862,-3765.8815L13904.9514,-3765.8901"/>
<path content="2,加茂市,駅前～下条方面,9.0,0.0,0.0," xlink:title="2" d="M13904.8281,-3766.0372L13904.7377,-3765.9447"/>
<path content="2,加茂市,駅前～下条方面,9.0,0.0,0.0," xlink:title="2" d="M13904.8281,-3766.0372L13904.8602,-3766.0172L13904.885,-3766.0037L13904.8999,-3765.9975L13904.9077,-3765.9952L13904.9299,-3765.9957L13905.0471,-3765.998L13905.0714,-3766.002L13905.1079,-3766.0116L13905.1824,-3766.028L13905.1824,-3766.0218L13905.1822,-3766.0158L13905.1823,-3766.0037L13905.1822,-3765.9794L13905.1154,-3765.9824L13905.0888,-3765.9835L13905.0641,-3765.9845L13905.0046,-3765.9845L13904.999,-3765.9806L13904.9954,-3765.9721L13904.9905,-3765.9581L13904.9891,-3765.9474L13904.9877,-3765.9327L13904.9891,-3765.8893L13904.9862,-3765.8815"/>
<path content="2,加茂市,駅前～下条方面,9.0,0.0,0.0," xlink:title="2" d="M13904.2969,-3766.3675L13904.373,-3766.3185L13904.4074,-3766.2993L13904.453,-3766.2704L13904.4555,-3766.2689L13904.58,-3766.1923L13904.5898,-3766.184L13904.6317,-3766.1596L13904.6975,-3766.1185L13904.7015,-3766.1145L13904.7211,-3766.1057L13904.815,-3766.0453L13904.8281,-3766.0372"/>
<path content="2,加茂市,駅前～下条方面,9.0,0.0,0.0," xlink:title="2" d="M13904.2969,-3767.4134L13904.3251,-3767.3752L13904.3354,-3767.3784L13904.3794,-3767.2886L13904.3952,-3767.2643L13904.4035,-3767.2515L13904.4382,-3767.2104L13904.4644,-3767.1834L13904.5069,-3767.1479L13904.5253,-3767.1293L13904.5346,-3767.1164L13904.5431,-3767.1034L13904.5579,-3767.073L13904.5635,-3767.055L13904.5698,-3767.0432L13904.5778,-3767.0099L13904.5893,-3766.9654L13904.6019,-3766.9322L13904.6076,-3766.9159L13904.6133,-3766.9052L13904.6168,-3766.8984L13904.6692,-3766.8331L13904.6621,-3766.8289L13904.6479,-3766.8241L13904.6352,-3766.8174L13904.6168,-3766.8021L13904.5737,-3766.7595L13904.5536,-3766.7388L13904.4979,-3766.6856L13904.4484,-3766.6377L13904.4406,-3766.6309L13904.396,-3766.5851L13904.3783,-3766.5707L13904.3316,-3766.524L13904.2969,-3766.4905"/>
<path content="3,加茂市,加茂駅～暁星高校～新潟経営大学線,3.0,2.0,0.0," xlink:title="3" d="M13904.9514,-3765.8901L13904.9862,-3765.8815L13904.9933,-3765.882L13905.0662,-3765.8871L13905.1151,-3765.8901L13905.2091,-3765.8978L13905.2268,-3765.9001L13905.2636,-3765.9068L13905.3415,-3765.9209L13905.3599,-3765.9237L13905.3669,-3765.9713L13905.3687,-3765.9865L13905.3703,-3765.9915L13905.3781,-3766.0265L13905.3853,-3766.0587L13905.3858,-3766.0638L13905.4037,-3766.1196L13905.4066,-3766.1236L13905.4264,-3766.1732L13905.4299,-3766.1861L13905.4453,-3766.2222L13905.454,-3766.2464L13905.4618,-3766.2662L13905.4677,-3766.2835L13905.4702,-3766.2903L13905.4752,-3766.3021L13905.478,-3766.3077L13905.4816,-3766.3308L13905.4879,-3766.3635L13905.4894,-3766.3736L13905.5007,-3766.4333L13905.5101,-3766.4656L13905.513,-3766.4946L13905.5176,-3766.5375L13905.5304,-3766.5578L13905.5467,-3766.5826L13905.5714,-3766.6208L13905.5948,-3766.6501L13905.604,-3766.6614L13905.6096,-3766.6698L13905.6125,-3766.6749L13905.6174,-3766.6862L13905.621,-3766.694L13905.6238,-3766.7273L13905.6259,-3766.7391L13905.6281,-3766.7813L13905.6287,-3766.8168L13905.6283,-3766.8212L13905.6238,-3766.863L13905.616,-3766.8894L13905.6059,-3766.9126L13905.6039,-3766.9159L13905.5984,-3766.9255L13905.5761,-3766.9655L13905.5726,-3766.9718L13905.5498,-3767.0139L13905.5425,-3767.0289L13905.5278,-3767.0651L13905.5193,-3767.0978L13905.513,-3767.1331L13905.5129,-3767.1468L13905.5115,-3767.1592L13905.5115,-3767.1755L13905.5193,-3767.1969L13905.5313,-3767.227L13905.5349,-3767.2358L13905.5625,-3767.2932L13905.5653,-3767.2988"/>
<path content="3,加茂市,加茂駅～暁星高校～新潟経営大学線,3.0,2.0,0.0," xlink:title="3" d="M13905.5653,-3767.2988L13905.5802,-3767.3202L13905.5923,-3767.3422L13905.5979,-3767.3506L13905.6838,-3767.4886L13905.7472,-3767.5915L13905.7743,-3767.6367L13905.814,-3767.608L13905.865,-3767.5686L13905.9054,-3767.532L13905.9323,-3767.5106L13906.0528,-3767.4041L13906.0889,-3767.3732L13906.0924,-3767.3686L13906.181,-3767.2814L13906.1874,-3767.2853L13906.2221,-3767.3093L13906.2238,-3767.3114"/>
<path content="3,加茂市,加茂駅～暁星高校～新潟経営大学線,3.0,2.0,0.0," xlink:title="3" d="M13905.5446,-3767.303L13905.5504,-3767.3016L13905.5653,-3767.2988"/>
<path content="3,加茂市,加茂（幸町）～穀町～加茂病院～坂田（暁星高校）～羽生田～田上～湯田上～ごまどう湯っ多里館線,10.0,7.0,7.0," xlink:title="3" d="M13905.5653,-3767.2988L13905.5625,-3767.2932L13905.5349,-3767.2358L13905.5313,-3767.227L13905.5193,-3767.1969L13905.5115,-3767.1755L13905.5115,-3767.1592L13905.5129,-3767.1468L13905.513,-3767.1331L13905.5193,-3767.0978L13905.5278,-3767.0651L13905.5425,-3767.0289L13905.5726,-3766.9718L13905.5761,-3766.9655L13905.5984,-3766.9255L13905.6039,-3766.9159L13905.6059,-3766.9126L13905.616,-3766.8894L13905.6238,-3766.863L13905.6283,-3766.8212L13905.6287,-3766.8168L13905.6281,-3766.7813L13905.6259,-3766.7391L13905.6238,-3766.7273L13905.621,-3766.694L13905.6174,-3766.6862L13905.6125,-3766.6749L13905.6096,-3766.6698L13905.604,-3766.6614L13905.5948,-3766.6501L13905.5714,-3766.6208L13905.5467,-3766.5826L13905.5304,-3766.5578L13905.5176,-3766.5375L13905.513,-3766.4946L13905.5101,-3766.4656L13905.5007,-3766.4333L13905.4894,-3766.3736L13905.4879,-3766.3635L13905.4816,-3766.3308L13905.478,-3766.3077L13905.4752,-3766.3021L13905.4702,-3766.2903L13905.4677,-3766.2835L13905.4618,-3766.2662L13905.454,-3766.2464L13905.4453,-3766.2222L13905.4299,-3766.1861L13905.4264,-3766.1732L13905.4066,-3766.1236L13905.4037,-3766.1196L13905.3858,-3766.0638L13905.3853,-3766.0587L13905.3781,-3766.0265L13905.3703,-3765.9915L13905.3687,-3765.9865L13905.2537,-3766.0172L13905.2286,-3766.0232L13905.2176,-3766.0256L13905.1824,-3766.028L13905.1079,-3766.0116L13905.0714,-3766.002L13905.0471,-3765.998L13904.9299,-3765.9957L13904.9077,-3765.9952L13904.8999,-3765.9975L13904.885,-3766.0037L13904.8602,-3766.0172L13904.8281,-3766.0372L13904.815,-3766.0453L13904.7211,-3766.1057L13904.7015,-3766.1145L13904.6975,-3766.1185L13904.6317,-3766.1596L13904.5898,-3766.184L13904.58,-3766.1923L13904.4555,-3766.2689L13904.453,-3766.2704L13904.4074,-3766.2993L13904.373,-3766.3185"/>
<path content="3,加茂市,加茂（幸町）～穀町～加茂病院～坂田（暁星高校）～羽生田～田上～湯田上～ごまどう湯っ多里館線,10.0,7.0,7.0," xlink:title="3" d="M13905.5653,-3767.2988L13905.5446,-3767.303"/>
<path content="3,加茂市,加茂（幸町）～穀町～加茂病院～坂田（暁星高校）～羽生田～田上～湯田上～ごまどう湯っ多里館線,10.0,7.0,7.0," xlink:title="3" d="M13906.9037,-3770.5078L13906.8817,-3770.4613L13906.8753,-3770.4494L13906.8666,-3770.4311L13906.8405,-3770.378L13906.8377,-3770.374L13906.8073,-3770.3312L13906.7974,-3770.3143L13906.7917,-3770.3036L13906.7889,-3770.298L13906.7846,-3770.2906L13906.7485,-3770.2112L13906.7301,-3770.1662L13906.7152,-3770.1144L13906.7109,-3770.0981L13906.7058,-3770.0787L13906.6946,-3770.0502L13906.6705,-3770.0153L13906.645,-3769.9854L13906.6316,-3769.9714L13906.6004,-3769.9393L13906.5876,-3769.928L13906.5416,-3769.8829L13906.5341,-3769.8757L13906.5012,-3769.8435L13906.4452,-3769.7889L13906.4049,-3769.7495L13906.3666,-3769.7095L13906.3616,-3769.7035L13906.339,-3769.6763L13906.3128,-3769.6149L13906.3085,-3769.6036L13906.3035,-3769.5929L13906.2872,-3769.5575L13906.2738,-3769.5231L13906.2249,-3769.4144L13906.2142,-3769.3914L13906.2022,-3769.3621L13906.2008,-3769.3609L13906.1873,-3769.3277L13906.1788,-3769.3097L13906.1703,-3769.29L13906.1604,-3769.268L13906.1254,-3769.1869L13906.1208,-3769.1762L13906.1122,-3769.1504L13906.0952,-3769.089L13906.0903,-3769.0619L13906.0818,-3769.0264L13906.0782,-3769.0079L13906.0719,-3768.9797L13906.0449,-3768.8451L13906.0401,-3768.8268L13906.0253,-3768.7467L13906.0223,-3768.7303L13906.0201,-3768.7212L13906.0166,-3768.6936L13906.0138,-3768.6801L13906.0039,-3768.652L13905.9812,-3768.5991L13905.952,-3768.5414L13905.9415,-3768.5264L13905.9181,-3768.4644L13905.9132,-3768.4509L13905.9089,-3768.4296L13905.9075,-3768.4178L13905.9082,-3768.3766L13905.9096,-3768.3169L13905.9097,-3768.3155L13905.9118,-3768.2848L13905.9121,-3768.2673L13905.9139,-3768.2167L13905.9202,-3768.0517L13905.9211,-3768.0482L13905.9245,-3767.9779L13905.9224,-3767.9453L13905.916,-3767.9025L13905.9032,-3767.8586L13905.8933,-3767.8349L13905.863,-3767.7803L13905.8565,-3767.7684L13905.8019,-3767.6812L13905.7934,-3767.6671L13905.7743,-3767.6367L13905.7472,-3767.5915L13905.6838,-3767.4886L13905.5979,-3767.3506L13905.5923,-3767.3422L13905.5802,-3767.3202L13905.5653,-3767.2988"/>
<path content="3,加茂市,新潟経営大学～加茂病院～穀町～加茂高校～五反田～庄瀬～白根～潟東営業所線,7.0,5.0,5.0," xlink:title="3" d="M13904.2969,-3767.4134L13904.3251,-3767.3752L13904.3354,-3767.3784L13904.3794,-3767.2886L13904.3952,-3767.2643L13904.4035,-3767.2515L13904.4382,-3767.2104L13904.4644,-3767.1834L13904.5069,-3767.1479L13904.5253,-3767.1293L13904.5346,-3767.1164L13904.5431,-3767.1034L13904.5579,-3767.073L13904.5635,-3767.055L13904.5698,-3767.0432L13904.5778,-3767.0099L13904.5893,-3766.9654L13904.6019,-3766.9322L13904.6076,-3766.9159L13904.6133,-3766.9052L13904.6168,-3766.8984L13904.6692,-3766.8331L13904.6621,-3766.8289L13904.6479,-3766.8241L13904.6352,-3766.8174L13904.6168,-3766.8021L13904.5737,-3766.7595L13904.5536,-3766.7388L13904.4979,-3766.6856L13904.4484,-3766.6377L13904.4406,-3766.6309L13904.396,-3766.5851L13904.3783,-3766.5707L13904.3316,-3766.524L13904.2969,-3766.4905M13904.2969,-3766.3675L13904.373,-3766.3185L13904.4074,-3766.2993L13904.453,-3766.2704L13904.4555,-3766.2689L13904.58,-3766.1923L13904.5898,-3766.184L13904.6317,-3766.1596L13904.6975,-3766.1185L13904.7015,-3766.1145L13904.7211,-3766.1057L13904.815,-3766.0453L13904.8281,-3766.0372L13904.8602,-3766.0172L13904.885,-3766.0037L13904.8999,-3765.9975L13904.9077,-3765.9952L13904.9299,-3765.9957L13905.0471,-3765.998L13905.0714,-3766.002L13905.1079,-3766.0116L13905.1824,-3766.028L13905.2176,-3766.0256L13905.2286,-3766.0232L13905.2537,-3766.0172L13905.3687,-3765.9865L13905.3703,-3765.9915L13905.3781,-3766.0265L13905.3853,-3766.0587L13905.3858,-3766.0638L13905.4037,-3766.1196L13905.4066,-3766.1236L13905.4264,-3766.1732L13905.4299,-3766.1861L13905.4453,-3766.2222L13905.454,-3766.2464L13905.4618,-3766.2662L13905.4677,-3766.2835L13905.4702,-3766.2903L13905.4752,-3766.3021L13905.478,-3766.3077L13905.4816,-3766.3308L13905.4879,-3766.3635L13905.4894,-3766.3736L13905.5007,-3766.4333L13905.5101,-3766.4656L13905.513,-3766.4946L13905.5176,-3766.5375L13905.5304,-3766.5578L13905.5467,-3766.5826L13905.5714,-3766.6208L13905.5948,-3766.6501L13905.604,-3766.6614L13905.6096,-3766.6698L13905.6125,-3766.6749L13905.6174,-3766.6862L13905.621,-3766.694L13905.6238,-3766.7273L13905.6259,-3766.7391L13905.6281,-3766.7813L13905.6287,-3766.8168L13905.6283,-3766.8212L13905.6238,-3766.863L13905.616,-3766.8894L13905.6059,-3766.9126L13905.6039,-3766.9159L13905.5984,-3766.9255L13905.5761,-3766.9655L13905.5726,-3766.9718L13905.622,-3766.9824L13905.6525,-3766.9818L13905.6993,-3766.9773L13905.7411,-3766.9773L13905.78,-3766.9807L13905.8019,-3766.9858L13905.8076,-3766.9874L13905.8168,-3766.9902L13905.8657,-3767.0083L13905.9174,-3767.0252L13905.9614,-3767.0443L13906.0039,-3767.0646L13906.0265,-3767.0787L13906.0556,-3767.1063L13906.0698,-3767.1164L13906.0986,-3767.1361L13906.1002,-3767.1372L13906.1101,-3767.1468L13906.1186,-3767.1603L13906.1222,-3767.1721L13906.1236,-3767.1828L13906.127,-3767.1995L13906.1321,-3767.2172L13906.1385,-3767.2307L13906.1505,-3767.2504L13906.1604,-3767.2628L13906.181,-3767.2814L13906.1874,-3767.2853L13906.2221,-3767.3093L13906.2238,-3767.3114"/>
<path content="3,加茂市,新潟経営大学～加茂病院～穀町～加茂高校～五反田～後須田～六分～巻線,7.0,5.0,5.0," xlink:title="3" d="M13904.2969,-3767.4134L13904.3251,-3767.3752L13904.3354,-3767.3784L13904.3794,-3767.2886L13904.3952,-3767.2643L13904.4035,-3767.2515L13904.4382,-3767.2104L13904.4644,-3767.1834L13904.5069,-3767.1479L13904.5253,-3767.1293L13904.5346,-3767.1164L13904.5431,-3767.1034L13904.5579,-3767.073L13904.5635,-3767.055L13904.5698,-3767.0432L13904.5778,-3767.0099L13904.5893,-3766.9654L13904.6019,-3766.9322L13904.6076,-3766.9159L13904.6133,-3766.9052L13904.6168,-3766.8984L13904.6692,-3766.8331L13904.6621,-3766.8289L13904.6479,-3766.8241L13904.6352,-3766.8174L13904.6168,-3766.8021L13904.5737,-3766.7595L13904.5536,-3766.7388L13904.4979,-3766.6856L13904.4484,-3766.6377L13904.4406,-3766.6309L13904.396,-3766.5851L13904.3783,-3766.5707L13904.3316,-3766.524L13904.2969,-3766.4905M13904.2969,-3766.3675L13904.373,-3766.3185L13904.4074,-3766.2993L13904.453,-3766.2704L13904.4555,-3766.2689L13904.58,-3766.1923L13904.5898,-3766.184L13904.6317,-3766.1596L13904.6975,-3766.1185L13904.7015,-3766.1145L13904.7211,-3766.1057L13904.815,-3766.0453L13904.8281,-3766.0372L13904.8602,-3766.0172L13904.885,-3766.0037L13904.8999,-3765.9975L13904.9077,-3765.9952L13904.9299,-3765.9957L13905.0471,-3765.998L13905.0714,-3766.002L13905.1079,-3766.0116L13905.1824,-3766.028L13905.2176,-3766.0256L13905.2286,-3766.0232L13905.3687,-3765.9865L13905.3703,-3765.9915L13905.3781,-3766.0265L13905.3853,-3766.0587L13905.3858,-3766.0638L13905.4037,-3766.1196L13905.4066,-3766.1236L13905.4264,-3766.1732L13905.4299,-3766.1861L13905.4453,-3766.2222L13905.454,-3766.2464L13905.4618,-3766.2662L13905.4677,-3766.2835L13905.4702,-3766.2903L13905.4752,-3766.3021L13905.478,-3766.3077L13905.4816,-3766.3308L13905.4879,-3766.3635L13905.4894,-3766.3736L13905.5007,-3766.4333L13905.5101,-3766.4656L13905.5099,-3766.4767L13905.5141,-3766.5184L13905.5176,-3766.5375L13905.5304,-3766.5578L13905.5467,-3766.5826L13905.5714,-3766.6208L13905.5948,-3766.6501L13905.604,-3766.6614L13905.6096,-3766.6698L13905.6125,-3766.6749L13905.6174,-3766.6862L13905.621,-3766.694L13905.6238,-3766.7273L13905.6259,-3766.7391L13905.6281,-3766.7813L13905.6287,-3766.8168L13905.6283,-3766.8212L13905.6238,-3766.863L13905.616,-3766.8894L13905.6059,-3766.9126L13905.6039,-3766.9159L13905.5984,-3766.9255L13905.5761,-3766.9655L13905.5726,-3766.9718L13905.622,-3766.9824L13905.6525,-3766.9818L13905.6993,-3766.9773L13905.7411,-3766.9773L13905.78,-3766.9807L13905.8019,-3766.9858L13905.8076,-3766.9874L13905.8168,-3766.9902L13905.8657,-3767.0083L13905.9174,-3767.0252L13905.9614,-3767.0443L13906.0039,-3767.0646L13906.0265,-3767.0787L13906.0556,-3767.1063L13906.0698,-3767.1164L13906.0986,-3767.1361L13906.1002,-3767.1372L13906.1101,-3767.1468L13906.1186,-3767.1603L13906.1222,-3767.1721L13906.1236,-3767.1828L13906.127,-3767.1995L13906.1321,-3767.2172L13906.1385,-3767.2307L13906.1505,-3767.2504L13906.1604,-3767.2628L13906.181,-3767.2814L13906.1874,-3767.2853L13906.2221,-3767.3093L13906.2238,-3767.3114"/>
<path content="3,加茂市,東三条駅前-加茂駅前線,9.0,5.0,5.0," xlink:title="3" d="M13904.9514,-3765.8901L13904.9862,-3765.8815L13904.9855,-3765.8786L13904.9806,-3765.8719L13904.9629,-3765.8477L13904.9413,-3765.8296L13904.9302,-3765.8183L13904.8532,-3765.7683L13904.8379,-3765.7604L13904.8334,-3765.746L13904.8317,-3765.7405L13904.7924,-3765.712L13904.7796,-3765.7001L13904.7429,-3765.6613L13904.7343,-3765.6534L13904.7074,-3765.6286L13904.6409,-3765.5757L13904.6232,-3765.5627L13904.6069,-3765.5498L13904.5511,-3765.5064L13904.5461,-3765.5036L13904.5185,-3765.485L13904.4845,-3765.4997L13904.4725,-3765.5014L13904.365,-3765.5019L13904.3551,-3765.5025L13904.3366,-3765.5036L13904.3298,-3765.5052L13904.3069,-3765.5216L13904.2969,-3765.5275"/>
</g>
</svg>
