<?xml version="1.0" encoding="UTF-8"?>
<svg  xmlns="http://www.w3.org/2000/svg" xmlns:xlink="http://www.w3.org/1999/xlink" xmlns:go="http://purl.org/svgmap/profile" property="N07_001,N07_002,N07_003,N07_004,N07_005,N07_006,N07_007" viewBox="13969.1162109375 -3578.2470703125 1.0986328125 1.0986328125" go:dataArea="13969.1162109375 -3578.2470703125 1.0986328125 1.0986328125" >
<metadata>
 <rdf:RDF xmlns:rdf="http://www.w3.org/1999/02/22-rdf-syntax-ns#" xmlns:crs="http://opengis.org/xmldtds/transformations.dtd" xmlns:svg="http://www.w3.org/svg" >
  <rdf:Description>
   <crs:CoordinateReferenceSystem rdf:resource="http://purl.org/crs/84" svg:transform="matrix(100.0,0.0,0.0,-100.0,0.0,0.0)" />
  </rdf:Description>
 </rdf:RDF>
</metadata>
<globalCoordinateSystem srsName="http://purl.org/crs/84" transform="matrix(100.0,0.0,0.0,-100.0,0.0,0.0)" />
<defs>
 <g id="p0" >
  <circle cx="0.0" cy="0.0" r="3" stroke="green" stroke-width="0.75" vector-effect="non-scaling-stroke" />
 </g>
</defs>
<g fill="none" fill-rule="evenodd" stroke="#FF00FF" stroke-width="0.75" opacity="0.5" vector-effect="non-scaling-stroke" stroke-linejoin="bevel" >
<path content="1,イーグルバス（株）,川越～羽田空港高速直結バス,2.5,2.5,2.5," xlink:title="1" d="M13969.4296,-3577.1484L13969.425,-3577.155L13969.4226,-3577.1573L13969.422,-3577.1579L13969.4177,-3577.1622L13969.397,-3577.1823L13969.3841,-3577.1903L13969.379,-3577.1935L13969.3775,-3577.1945L13969.3744,-3577.1963L13969.3739,-3577.1967L13969.3733,-3577.197L13969.366,-3577.2009L13969.3653,-3577.2013L13969.3643,-3577.2019L13969.3633,-3577.2024L13969.3627,-3577.2027L13969.3623,-3577.203L13969.3614,-3577.2034L13969.343,-3577.2133L13969.3391,-3577.2147L13969.3278,-3577.2189L13969.3222,-3577.221L13969.3182,-3577.2224L13969.3124,-3577.2245L13969.3092,-3577.2257L13969.3073,-3577.2264L13969.3031,-3577.228L13969.3027,-3577.2281L13969.3018,-3577.2285L13969.2949,-3577.231L13969.2942,-3577.2312L13969.2929,-3577.2316L13969.2842,-3577.234L13969.2839,-3577.2341L13969.2766,-3577.2361L13969.2739,-3577.2368L13969.2735,-3577.2369L13969.2732,-3577.237L13969.2638,-3577.2395L13969.263,-3577.2397L13969.2626,-3577.2398L13969.2434,-3577.2437L13969.2391,-3577.2445L13969.2135,-3577.2497L13969.1916,-3577.2552L13969.1774,-3577.2588L13969.1533,-3577.2648L13969.1396,-3577.2682L13969.1162,-3577.2737"/>
<path content="1,三交伊勢志摩交通（株）,鳥羽・伊勢～東京・大宮,2.0,2.0,2.0," xlink:title="1" d="M13969.1162,-3577.2736L13969.1396,-3577.2682L13969.2134,-3577.2497L13969.2626,-3577.2398L13969.2929,-3577.2317L13969.3431,-3577.2133L13969.3733,-3577.197L13969.3969,-3577.1823L13969.425,-3577.155L13969.4296,-3577.1484"/>
<path content="1,三重交通（株）,勝浦・南紀～横浜・東京・大宮,1.0,1.0,1.0," xlink:title="1" d="M13969.1162,-3577.2736L13969.1396,-3577.2682L13969.2134,-3577.2497L13969.2626,-3577.2398L13969.2929,-3577.2317L13969.3431,-3577.2133L13969.3733,-3577.197L13969.3969,-3577.1823L13969.425,-3577.155L13969.4296,-3577.1484"/>
<path content="1,三重交通（株）,鳥羽・伊勢～東京・大宮,2.0,2.0,2.0," xlink:title="1" d="M13969.1162,-3577.2736L13969.1396,-3577.2682L13969.2134,-3577.2497L13969.2626,-3577.2398L13969.2929,-3577.2317L13969.3431,-3577.2133L13969.3733,-3577.197L13969.3969,-3577.1823L13969.425,-3577.155L13969.4296,-3577.1484"/>
<path content="1,京成バス（株）,成田空港～さいたま新都心・大宮駅,3.5,3.5,3.5," xlink:title="1" d="M13969.4296,-3577.1484L13969.425,-3577.155L13969.4226,-3577.1573L13969.422,-3577.1579L13969.4177,-3577.1622L13969.397,-3577.1823L13969.3841,-3577.1903L13969.379,-3577.1935L13969.3775,-3577.1945L13969.3744,-3577.1963L13969.3739,-3577.1967L13969.3733,-3577.197L13969.366,-3577.2009L13969.3653,-3577.2013L13969.3643,-3577.2019L13969.3633,-3577.2024L13969.3627,-3577.2027L13969.3623,-3577.203L13969.3614,-3577.2034L13969.3614,-3577.2034L13969.343,-3577.2133L13969.3391,-3577.2147L13969.3278,-3577.2189L13969.3222,-3577.221L13969.3182,-3577.2224L13969.3124,-3577.2245L13969.3092,-3577.2257L13969.3073,-3577.2264L13969.3031,-3577.228L13969.3027,-3577.2281L13969.3018,-3577.2285L13969.2949,-3577.231L13969.2942,-3577.2312L13969.2929,-3577.2316L13969.2842,-3577.234L13969.2839,-3577.2341L13969.2766,-3577.2361L13969.2739,-3577.2368L13969.2735,-3577.2369L13969.2732,-3577.237L13969.2638,-3577.2395L13969.263,-3577.2397L13969.2626,-3577.2398L13969.2434,-3577.2437L13969.2391,-3577.2445L13969.2135,-3577.2497L13969.1916,-3577.2552L13969.1774,-3577.2588L13969.1533,-3577.2648L13969.1396,-3577.2682L13969.1162,-3577.2737"/>
<path content="1,京成バス（株）,成田空港～和光市駅・大泉学園駅,2.5,2.5,2.5," xlink:title="1" d="M13969.1162,-3577.2737L13969.1396,-3577.2682L13969.1533,-3577.2648L13969.1774,-3577.2588L13969.1916,-3577.2552L13969.2135,-3577.2497L13969.2391,-3577.2445L13969.2434,-3577.2437L13969.2626,-3577.2398L13969.263,-3577.2397L13969.2638,-3577.2395L13969.2732,-3577.237L13969.2735,-3577.2369L13969.2739,-3577.2368L13969.2766,-3577.2361L13969.2839,-3577.2341L13969.2842,-3577.234L13969.2929,-3577.2316L13969.2942,-3577.2312L13969.2949,-3577.231L13969.3018,-3577.2285L13969.3027,-3577.2281L13969.3031,-3577.228L13969.3073,-3577.2264L13969.3092,-3577.2257L13969.3124,-3577.2245L13969.3182,-3577.2224L13969.3222,-3577.221L13969.3278,-3577.2189L13969.3391,-3577.2147L13969.343,-3577.2133L13969.3614,-3577.2034L13969.3614,-3577.2034L13969.3623,-3577.203L13969.3627,-3577.2027L13969.3633,-3577.2024L13969.3643,-3577.2019L13969.3653,-3577.2013L13969.366,-3577.2009L13969.3733,-3577.197L13969.3739,-3577.1967L13969.3744,-3577.1963L13969.3775,-3577.1945L13969.379,-3577.1935L13969.3841,-3577.1903L13969.397,-3577.1823L13969.4177,-3577.1622L13969.422,-3577.1579L13969.4226,-3577.1573L13969.425,-3577.155L13969.4296,-3577.1484"/>
<path content="1,京成バス（株）,成田空港～東所沢駅・所沢駅,4.0,4.0,4.0," xlink:title="1" d="M13969.4296,-3577.1484L13969.425,-3577.155L13969.4226,-3577.1573L13969.422,-3577.1579L13969.4177,-3577.1622L13969.397,-3577.1823L13969.3841,-3577.1903L13969.379,-3577.1935L13969.3775,-3577.1945L13969.3744,-3577.1963L13969.3739,-3577.1967L13969.3733,-3577.197L13969.366,-3577.2009L13969.3653,-3577.2013L13969.3643,-3577.2019L13969.3633,-3577.2024L13969.3627,-3577.2027L13969.3623,-3577.203L13969.3614,-3577.2034L13969.3614,-3577.2034L13969.343,-3577.2133L13969.3391,-3577.2147L13969.3278,-3577.2189L13969.3222,-3577.221L13969.3182,-3577.2224L13969.3124,-3577.2245L13969.3092,-3577.2257L13969.3073,-3577.2264L13969.3031,-3577.228L13969.3027,-3577.2281L13969.3018,-3577.2285L13969.2949,-3577.231L13969.2942,-3577.2312L13969.2929,-3577.2316L13969.2842,-3577.234L13969.2839,-3577.2341L13969.2766,-3577.2361L13969.2739,-3577.2368L13969.2735,-3577.2369L13969.2732,-3577.237L13969.2638,-3577.2395L13969.263,-3577.2397L13969.2626,-3577.2398L13969.2434,-3577.2437L13969.2391,-3577.2445L13969.2135,-3577.2497L13969.1916,-3577.2552L13969.1774,-3577.2588L13969.1533,-3577.2648L13969.1396,-3577.2682L13969.1162,-3577.2737"/>
<path content="1,京浜急行バス（株）,さいたま新都心駅・大宮～羽田空港線,5.0,5.0,5.0," xlink:title="1" d="M13969.4296,-3577.1484L13969.425,-3577.155L13969.4226,-3577.1573L13969.422,-3577.1579L13969.4177,-3577.1622L13969.397,-3577.1823L13969.3841,-3577.1903L13969.379,-3577.1935L13969.3775,-3577.1945L13969.3744,-3577.1963L13969.3739,-3577.1967L13969.3733,-3577.197L13969.366,-3577.2009L13969.3653,-3577.2013L13969.3643,-3577.2019L13969.3633,-3577.2024L13969.3627,-3577.2027L13969.3623,-3577.203L13969.3614,-3577.2034L13969.3614,-3577.2034L13969.343,-3577.2133L13969.3391,-3577.2147L13969.3278,-3577.2189L13969.3222,-3577.221L13969.3182,-3577.2224L13969.3124,-3577.2245L13969.3092,-3577.2257L13969.3073,-3577.2264L13969.3031,-3577.228L13969.3027,-3577.2281L13969.3018,-3577.2285L13969.2949,-3577.231L13969.2942,-3577.2312L13969.2929,-3577.2316L13969.2842,-3577.234L13969.2839,-3577.2341L13969.2766,-3577.2361L13969.2739,-3577.2368L13969.2735,-3577.2369L13969.2732,-3577.237L13969.2638,-3577.2395L13969.263,-3577.2397L13969.2626,-3577.2398L13969.2434,-3577.2437L13969.2391,-3577.2445L13969.2135,-3577.2497L13969.1916,-3577.2552L13969.1774,-3577.2588L13969.1533,-3577.2648L13969.1396,-3577.2682L13969.1162,-3577.2737"/>
<path content="1,京浜急行バス（株）,ノクターン号,3.4,4.0,4.0," xlink:title="1" d="M13969.4296,-3577.1484L13969.425,-3577.155L13969.4226,-3577.1573L13969.422,-3577.1579L13969.4177,-3577.1622L13969.397,-3577.1823L13969.3841,-3577.1903L13969.379,-3577.1935L13969.3775,-3577.1945L13969.3744,-3577.1963L13969.3739,-3577.1967L13969.3733,-3577.197L13969.366,-3577.2009L13969.3653,-3577.2013L13969.3643,-3577.2019L13969.3633,-3577.2024L13969.3627,-3577.2027L13969.3623,-3577.203L13969.3614,-3577.2034L13969.3614,-3577.2034L13969.343,-3577.2133L13969.3391,-3577.2147L13969.3278,-3577.2189L13969.3222,-3577.221L13969.3182,-3577.2224L13969.3124,-3577.2245L13969.3092,-3577.2257L13969.3073,-3577.2264L13969.3031,-3577.228L13969.3027,-3577.2281L13969.3018,-3577.2285L13969.2949,-3577.231L13969.2942,-3577.2312L13969.2929,-3577.2316L13969.2842,-3577.234L13969.2839,-3577.2341L13969.2766,-3577.2361L13969.2739,-3577.2368L13969.2735,-3577.2369L13969.2732,-3577.237L13969.2638,-3577.2395L13969.263,-3577.2397L13969.2626,-3577.2398L13969.2434,-3577.2437L13969.2391,-3577.2445L13969.2135,-3577.2497L13969.1916,-3577.2552L13969.1774,-3577.2588L13969.1533,-3577.2648L13969.1396,-3577.2682L13969.1162,-3577.2737"/>
<path content="1,京浜急行バス（株）,ビーム号,1.0,1.0,1.0," xlink:title="1" d="M13969.1162,-3577.2737L13969.1396,-3577.2682L13969.1533,-3577.2648L13969.1774,-3577.2588L13969.1916,-3577.2552L13969.2135,-3577.2497L13969.2391,-3577.2445L13969.2434,-3577.2437L13969.2626,-3577.2398L13969.263,-3577.2397L13969.2638,-3577.2395L13969.2732,-3577.237L13969.2735,-3577.2369L13969.2739,-3577.2368L13969.2766,-3577.2361L13969.2839,-3577.2341L13969.2842,-3577.234L13969.2929,-3577.2316L13969.2942,-3577.2312L13969.2949,-3577.231L13969.3018,-3577.2285L13969.3027,-3577.2281L13969.3031,-3577.228L13969.3073,-3577.2264L13969.3092,-3577.2257L13969.3124,-3577.2245L13969.3182,-3577.2224L13969.3222,-3577.221L13969.3278,-3577.2189L13969.3391,-3577.2147L13969.343,-3577.2133L13969.3614,-3577.2034L13969.3614,-3577.2034L13969.3623,-3577.203L13969.3627,-3577.2027L13969.3633,-3577.2024L13969.3643,-3577.2019L13969.3653,-3577.2013L13969.366,-3577.2009L13969.3733,-3577.197L13969.3739,-3577.1967L13969.3744,-3577.1963L13969.3775,-3577.1945L13969.379,-3577.1935L13969.3841,-3577.1903L13969.397,-3577.1823L13969.4177,-3577.1622L13969.422,-3577.1579L13969.4226,-3577.1573L13969.425,-3577.155L13969.4296,-3577.1484"/>
<path content="1,京王バス南（株）,新宿～長野線,7.0,7.0,7.0," xlink:title="1" d="M13969.4296,-3577.1484L13969.425,-3577.155L13969.4226,-3577.1573L13969.422,-3577.1579L13969.4177,-3577.1622L13969.397,-3577.1823L13969.3841,-3577.1903L13969.379,-3577.1935L13969.3775,-3577.1945L13969.3744,-3577.1963L13969.3739,-3577.1967L13969.3733,-3577.197L13969.366,-3577.2009L13969.3653,-3577.2013L13969.3643,-3577.2019L13969.3633,-3577.2024L13969.3627,-3577.2027L13969.3623,-3577.203L13969.3614,-3577.2034L13969.343,-3577.2133L13969.3391,-3577.2147L13969.3278,-3577.2189L13969.3222,-3577.221L13969.3182,-3577.2224L13969.3124,-3577.2245L13969.3092,-3577.2257L13969.3073,-3577.2264L13969.3031,-3577.228L13969.3027,-3577.2281L13969.3018,-3577.2285L13969.2949,-3577.231L13969.2942,-3577.2312L13969.2929,-3577.2316L13969.2842,-3577.234L13969.2839,-3577.2341L13969.2766,-3577.2361L13969.2739,-3577.2368L13969.2735,-3577.2369L13969.2732,-3577.237L13969.2638,-3577.2395L13969.263,-3577.2397L13969.2626,-3577.2398L13969.2434,-3577.2437L13969.2391,-3577.2445L13969.2135,-3577.2497L13969.1916,-3577.2552L13969.1774,-3577.2588L13969.1533,-3577.2648L13969.1396,-3577.2682L13969.1162,-3577.2737"/>
<path content="1,千葉交通,ONライナー,4.0,4.0,4.0," xlink:title="1" d="M13969.1162,-3577.2737L13969.1396,-3577.2682L13969.1533,-3577.2648L13969.1774,-3577.2588L13969.1916,-3577.2552L13969.2135,-3577.2497L13969.2391,-3577.2445L13969.2434,-3577.2437L13969.2626,-3577.2398L13969.263,-3577.2397L13969.2638,-3577.2395L13969.2732,-3577.237L13969.2735,-3577.2369L13969.2739,-3577.2368L13969.2766,-3577.2361L13969.2839,-3577.2341L13969.2842,-3577.234L13969.2929,-3577.2316L13969.2942,-3577.2312L13969.2949,-3577.231L13969.3018,-3577.2285L13969.3027,-3577.2281L13969.3031,-3577.228L13969.3073,-3577.2264L13969.3092,-3577.2257L13969.3124,-3577.2245L13969.3182,-3577.2224L13969.3222,-3577.221L13969.3278,-3577.2189L13969.3391,-3577.2147L13969.343,-3577.2133L13969.3614,-3577.2034L13969.3623,-3577.203L13969.3627,-3577.2027L13969.3633,-3577.2024L13969.3643,-3577.2019L13969.3653,-3577.2013L13969.366,-3577.2009L13969.3733,-3577.197L13969.3739,-3577.1967L13969.3744,-3577.1963L13969.3775,-3577.1945L13969.379,-3577.1935L13969.3841,-3577.1903L13969.397,-3577.1823L13969.4177,-3577.1622L13969.422,-3577.1579L13969.4226,-3577.1573L13969.425,-3577.155L13969.4296,-3577.1484"/>
<path content="1,千葉交通,アザレア号,7.0,7.0,7.0," xlink:title="1" d="M13969.1162,-3577.2737L13969.1396,-3577.2682L13969.1533,-3577.2648L13969.1774,-3577.2588L13969.1916,-3577.2552L13969.2135,-3577.2497L13969.2391,-3577.2445L13969.2434,-3577.2437L13969.2626,-3577.2398L13969.263,-3577.2397L13969.2638,-3577.2395L13969.2732,-3577.237L13969.2735,-3577.2369L13969.2739,-3577.2368L13969.2766,-3577.2361L13969.2839,-3577.2341L13969.2842,-3577.234L13969.2929,-3577.2316L13969.2942,-3577.2312L13969.2949,-3577.231L13969.3018,-3577.2285L13969.3027,-3577.2281L13969.3031,-3577.228L13969.3073,-3577.2264L13969.3092,-3577.2257L13969.3124,-3577.2245L13969.3182,-3577.2224L13969.3222,-3577.221L13969.3278,-3577.2189L13969.3391,-3577.2147L13969.343,-3577.2133L13969.3614,-3577.2034L13969.3623,-3577.203L13969.3627,-3577.2027L13969.3633,-3577.2024L13969.3643,-3577.2019L13969.3653,-3577.2013L13969.366,-3577.2009L13969.3733,-3577.197L13969.3739,-3577.1967L13969.3744,-3577.1963L13969.3775,-3577.1945L13969.379,-3577.1935L13969.3841,-3577.1903L13969.397,-3577.1823L13969.4177,-3577.1622L13969.422,-3577.1579L13969.4226,-3577.1573L13969.425,-3577.155L13969.4296,-3577.1484"/>
<path content="1,国際十王交通（株）,成田空港線,2.0,2.0,2.0," xlink:title="1" d="M13969.4296,-3577.1484L13969.425,-3577.155L13969.4226,-3577.1573L13969.422,-3577.1579L13969.4177,-3577.1622L13969.397,-3577.1823L13969.3841,-3577.1903L13969.379,-3577.1935L13969.3775,-3577.1945L13969.3744,-3577.1963L13969.3739,-3577.1967L13969.3733,-3577.197L13969.366,-3577.2009L13969.3653,-3577.2013L13969.3643,-3577.2019L13969.3633,-3577.2024L13969.3627,-3577.2027L13969.3623,-3577.203L13969.3614,-3577.2034L13969.343,-3577.2133L13969.3391,-3577.2147L13969.3278,-3577.2189L13969.3222,-3577.221L13969.3182,-3577.2224L13969.3124,-3577.2245L13969.3092,-3577.2257L13969.3073,-3577.2264L13969.3031,-3577.228L13969.3027,-3577.2281L13969.3018,-3577.2285L13969.2949,-3577.231L13969.2942,-3577.2312L13969.2929,-3577.2316L13969.2842,-3577.234L13969.2839,-3577.2341L13969.2766,-3577.2361L13969.2739,-3577.2368L13969.2735,-3577.2369L13969.2732,-3577.237L13969.2638,-3577.2395L13969.263,-3577.2397L13969.2626,-3577.2398L13969.2434,-3577.2437L13969.2391,-3577.2445L13969.2135,-3577.2497L13969.1916,-3577.2552L13969.1774,-3577.2588L13969.1533,-3577.2648L13969.1396,-3577.2682L13969.1162,-3577.2737"/>
<path content="1,国際十王交通（株）,羽田空港線,3.0,3.0,3.0," xlink:title="1" d="M13969.4296,-3577.1484L13969.425,-3577.155L13969.4226,-3577.1573L13969.422,-3577.1579L13969.4177,-3577.1622L13969.397,-3577.1823L13969.3841,-3577.1903L13969.379,-3577.1935L13969.3775,-3577.1945L13969.3744,-3577.1963L13969.3739,-3577.1967L13969.3733,-3577.197L13969.366,-3577.2009L13969.3653,-3577.2013L13969.3643,-3577.2019L13969.3633,-3577.2024L13969.3627,-3577.2027L13969.3623,-3577.203L13969.3614,-3577.2034L13969.343,-3577.2133L13969.3391,-3577.2147L13969.3278,-3577.2189L13969.3222,-3577.221L13969.3182,-3577.2224L13969.3124,-3577.2245L13969.3092,-3577.2257L13969.3073,-3577.2264L13969.3031,-3577.228L13969.3027,-3577.2281L13969.3018,-3577.2285L13969.2949,-3577.231L13969.2942,-3577.2312L13969.2929,-3577.2316L13969.2842,-3577.234L13969.2839,-3577.2341L13969.2766,-3577.2361L13969.2739,-3577.2368L13969.2735,-3577.2369L13969.2732,-3577.237L13969.2638,-3577.2395L13969.263,-3577.2397L13969.2626,-3577.2398L13969.2434,-3577.2437L13969.2391,-3577.2445L13969.2135,-3577.2497L13969.1916,-3577.2552L13969.1774,-3577.2588L13969.1533,-3577.2648L13969.1396,-3577.2682L13969.1162,-3577.2737"/>
<path content="1,国際興業（株）,ジュピター号,1.0,1.0,1.0," xlink:title="1" d="M13969.4296,-3577.1484L13969.425,-3577.155L13969.4226,-3577.1573L13969.422,-3577.1579L13969.4177,-3577.1622L13969.397,-3577.1823L13969.3841,-3577.1903L13969.379,-3577.1935L13969.3775,-3577.1945L13969.3744,-3577.1963L13969.3739,-3577.1967L13969.3733,-3577.197L13969.366,-3577.2009L13969.3653,-3577.2013L13969.3643,-3577.2019L13969.3633,-3577.2024L13969.3627,-3577.2027L13969.3623,-3577.203L13969.3614,-3577.2034L13969.3614,-3577.2034L13969.343,-3577.2133L13969.3391,-3577.2147L13969.3278,-3577.2189L13969.3222,-3577.221L13969.3182,-3577.2224L13969.3124,-3577.2245L13969.3092,-3577.2257L13969.3073,-3577.2264L13969.3031,-3577.228L13969.3027,-3577.2281L13969.3018,-3577.2285L13969.2949,-3577.231L13969.2942,-3577.2312L13969.2929,-3577.2316L13969.2842,-3577.234L13969.2839,-3577.2341L13969.2766,-3577.2361L13969.2739,-3577.2368L13969.2735,-3577.2369L13969.2732,-3577.237L13969.2638,-3577.2395L13969.263,-3577.2397L13969.2626,-3577.2398L13969.2434,-3577.2437L13969.2391,-3577.2445L13969.2135,-3577.2497L13969.1916,-3577.2552L13969.1774,-3577.2588L13969.1533,-3577.2648L13969.1396,-3577.2682L13969.1162,-3577.2737"/>
<path content="1,国際興業（株）,ミッドナイトアロー浦和・大宮,1.0,0.0,0.0," xlink:title="1" d="M13970.0019,-3577.1484L13969.9922,-3577.1588L13969.917,-3577.2375L13969.8707,-3577.2843L13969.843,-3577.3124L13969.7539,-3577.3998L13969.7354,-3577.4104L13969.7269,-3577.424L13969.6516,-3577.4871L13969.6232,-3577.5057L13969.5907,-3577.5288L13969.5575,-3577.5525L13969.4724,-3577.6333L13969.4473,-3577.6578L13969.397,-3577.7077L13969.3676,-3577.7375L13969.3549,-3577.75L13969.3128,-3577.7914L13969.2354,-3577.8708L13969.1539,-3577.9529L13969.1162,-3577.9903"/>
<path content="1,国際興業（株）,ミッドナイトアロー高島平・中浦和,1.0,0.0,0.0," xlink:title="1" d="M13969.1162,-3577.6211L13969.1863,-3577.6234L13969.2782,-3577.6246L13969.2803,-3577.6246L13969.2879,-3577.6251L13969.3425,-3577.6269L13969.3578,-3577.6269L13969.4602,-3577.6297L13969.4724,-3577.6333L13969.5575,-3577.5525L13969.5907,-3577.5288L13969.6232,-3577.5057L13969.6516,-3577.4871L13969.7269,-3577.424L13969.7354,-3577.4104L13969.7539,-3577.3998L13969.843,-3577.3124L13969.8707,-3577.2843L13969.917,-3577.2375L13969.9922,-3577.1588L13970.0019,-3577.1484"/>
<path content="1,国際興業（株）,夕陽号,2.0,2.0,2.0," xlink:title="1" d="M13969.4296,-3577.1484L13969.425,-3577.155L13969.4226,-3577.1573L13969.422,-3577.1579L13969.4177,-3577.1622L13969.397,-3577.1823L13969.3841,-3577.1903L13969.379,-3577.1935L13969.3775,-3577.1945L13969.3744,-3577.1963L13969.3739,-3577.1967L13969.3733,-3577.197L13969.366,-3577.2009L13969.3653,-3577.2013L13969.3643,-3577.2019L13969.3633,-3577.2024L13969.3627,-3577.2027L13969.3623,-3577.203L13969.3614,-3577.2034L13969.3614,-3577.2034L13969.343,-3577.2133L13969.3391,-3577.2147L13969.3278,-3577.2189L13969.3222,-3577.221L13969.3182,-3577.2224L13969.3124,-3577.2245L13969.3092,-3577.2257L13969.3073,-3577.2264L13969.3031,-3577.228L13969.3027,-3577.2281L13969.3018,-3577.2285L13969.2949,-3577.231L13969.2942,-3577.2312L13969.2929,-3577.2316L13969.2842,-3577.234L13969.2839,-3577.2341L13969.2766,-3577.2361L13969.2739,-3577.2368L13969.2735,-3577.2369L13969.2732,-3577.237L13969.2638,-3577.2395L13969.263,-3577.2397L13969.2626,-3577.2398L13969.2434,-3577.2437L13969.2391,-3577.2445L13969.2135,-3577.2497L13969.1916,-3577.2552L13969.1774,-3577.2588L13969.1533,-3577.2648L13969.1396,-3577.2682L13969.1162,-3577.2737"/>
<path content="1,国際興業（株）,大宮羽田線,4.0,4.0,4.0," xlink:title="1" d="M13969.4296,-3577.1484L13969.425,-3577.155L13969.4226,-3577.1573L13969.422,-3577.1579L13969.4177,-3577.1622L13969.397,-3577.1823L13969.3841,-3577.1903L13969.379,-3577.1935L13969.3775,-3577.1945L13969.3744,-3577.1963L13969.3739,-3577.1967L13969.3733,-3577.197L13969.366,-3577.2009L13969.3653,-3577.2013L13969.3643,-3577.2019L13969.3633,-3577.2024L13969.3627,-3577.2027L13969.3623,-3577.203L13969.3614,-3577.2034L13969.3614,-3577.2034L13969.343,-3577.2133L13969.3391,-3577.2147L13969.3278,-3577.2189L13969.3222,-3577.221L13969.3182,-3577.2224L13969.3124,-3577.2245L13969.3092,-3577.2257L13969.3073,-3577.2264L13969.3031,-3577.228L13969.3027,-3577.2281L13969.3018,-3577.2285L13969.2949,-3577.231L13969.2942,-3577.2312L13969.2929,-3577.2316L13969.2842,-3577.234L13969.2839,-3577.2341L13969.2766,-3577.2361L13969.2739,-3577.2368L13969.2735,-3577.2369L13969.2732,-3577.237L13969.2638,-3577.2395L13969.263,-3577.2397L13969.2626,-3577.2398L13969.2434,-3577.2437L13969.2391,-3577.2445L13969.2135,-3577.2497L13969.1916,-3577.2552L13969.1774,-3577.2588L13969.1533,-3577.2648L13969.1396,-3577.2682L13969.1162,-3577.2737"/>
<path content="1,国際興業（株）,池20,47.0,52.0,50.0," xlink:title="1" d="M13969.1162,-3577.6211L13969.1863,-3577.6234L13969.2782,-3577.6246L13969.2803,-3577.6246L13969.2879,-3577.6251L13969.3425,-3577.6269L13969.3578,-3577.6269L13969.4602,-3577.6297L13969.4724,-3577.6333L13969.5575,-3577.5525L13969.5907,-3577.5288L13969.6232,-3577.5057L13969.6516,-3577.4871L13969.7269,-3577.424L13969.7354,-3577.4104L13969.7539,-3577.3998L13969.843,-3577.3124L13969.8707,-3577.2843L13969.917,-3577.2375L13969.9922,-3577.1588L13970.0019,-3577.1484"/>
<path content="1,国際興業（株）,池21,56.0,53.0,50.0," xlink:title="1" d="M13970.0019,-3577.1484L13969.9922,-3577.1588L13969.917,-3577.2375L13969.8707,-3577.2843L13969.843,-3577.3124L13969.7539,-3577.3998L13969.7354,-3577.4104L13969.7269,-3577.424L13969.6516,-3577.4871L13969.6232,-3577.5057L13969.5907,-3577.5288L13969.5575,-3577.5525L13969.4724,-3577.6333L13969.4473,-3577.6578L13969.397,-3577.7077L13969.3676,-3577.7375L13969.3549,-3577.75L13969.3128,-3577.7914L13969.2354,-3577.8708L13969.1539,-3577.9529L13969.1162,-3577.9903"/>
<path content="1,国際興業（株）,赤01,32.0,29.0,29.0," xlink:title="1" d="M13969.1162,-3578.0199L13969.1176,-3578.0201L13969.2056,-3578.032L13969.2188,-3578.0331L13969.2879,-3578.0444L13969.3488,-3578.0523L13969.4421,-3578.0658L13969.4483,-3578.0675L13969.4524,-3578.0675L13969.4697,-3578.0692L13969.4718,-3578.0703L13969.4828,-3578.0709L13969.5347,-3578.0788L13969.5984,-3578.0906L13969.6135,-3578.0901L13969.6427,-3578.0931L13969.7164,-3578.1053L13969.7594,-3578.1126L13969.8195,-3578.1211L13969.8285,-3578.1233L13969.8402,-3578.1244L13969.8485,-3578.1273L13969.859,-3578.1311L13969.8707,-3578.134L13969.8949,-3578.1425L13970.0338,-3578.1977L13970.087,-3578.2179L13970.1105,-3578.2275L13970.1195,-3578.2304L13970.1457,-3578.2413L13970.1548,-3578.2471"/>
<path content="1,国際興業（株）,赤02,105.0,82.0,75.0," xlink:title="1" d="M13970.1548,-3578.2471L13970.1457,-3578.2413L13970.1195,-3578.2304L13970.1105,-3578.2275L13970.087,-3578.2179L13970.0338,-3578.1977L13969.8949,-3578.1425L13969.8707,-3578.134L13969.859,-3578.1311L13969.8485,-3578.1273L13969.8402,-3578.1244L13969.8285,-3578.1233L13969.8195,-3578.1211L13969.7594,-3578.1126L13969.7164,-3578.1053L13969.6427,-3578.0931L13969.6135,-3578.0901L13969.5984,-3578.0906L13969.5347,-3578.0788L13969.4828,-3578.0709L13969.4718,-3578.0703L13969.4697,-3578.0692L13969.4524,-3578.0675L13969.4483,-3578.0675L13969.4421,-3578.0658L13969.3488,-3578.0523L13969.2879,-3578.0444L13969.2188,-3578.0331L13969.2056,-3578.032L13969.1176,-3578.0201L13969.1162,-3578.0199"/>
<path content="1,国際興業（株）,赤52,8.0,0.0,0.0," xlink:title="1" d="M13970.0019,-3577.1484L13969.9922,-3577.1588L13969.917,-3577.2375L13969.8707,-3577.2843L13969.843,-3577.3124L13969.8562,-3577.3186L13969.8658,-3577.322L13969.8734,-3577.3284L13969.8817,-3577.3293L13969.9011,-3577.3372L13969.9889,-3577.3784L13970.0635,-3577.415L13970.123,-3577.4426L13970.14,-3577.4547L13970.1845,-3577.4632L13970.2148,-3577.4678"/>
<path content="1,国際興業（株）,赤53,155.0,128.0,113.0," xlink:title="1" d="M13970.2148,-3577.4678L13970.1845,-3577.4632L13970.14,-3577.4547L13970.123,-3577.4426L13970.0635,-3577.415L13969.9889,-3577.3784L13969.9011,-3577.3372L13969.8817,-3577.3293L13969.8734,-3577.3284L13969.8658,-3577.322L13969.8562,-3577.3186L13969.843,-3577.3124L13969.8202,-3577.3011L13969.7656,-3577.2769L13969.7159,-3577.2544L13969.6619,-3577.2296L13969.6571,-3577.2274L13969.6502,-3577.2257L13969.5914,-3577.1986L13969.5873,-3577.1941L13969.5582,-3577.193L13969.5292,-3577.2009L13969.4995,-3577.2087L13969.4849,-3577.2121L13969.4691,-3577.2172L13969.4621,-3577.2189L13969.4241,-3577.229L13969.4072,-3577.2296L13969.3898,-3577.2225L13969.3745,-3577.2133L13969.3614,-3577.2034L13969.3614,-3577.2034L13969.3613,-3577.2033L13969.3416,-3577.1924L13969.324,-3577.1799L13969.2849,-3577.1484"/>
<path content="1,国際興業（株）,赤54,40.0,39.0,38.0," xlink:title="1" d="M13970.2148,-3577.9247L13970.19,-3577.9159L13970.1638,-3577.9075L13970.1676,-3577.8894L13970.1707,-3577.8833L13970.1824,-3577.8438L13970.1866,-3577.8337L13970.1914,-3577.8145L13970.2004,-3577.7818L13970.2032,-3577.7717L13970.2073,-3577.7576L13970.2109,-3577.7422L13970.2148,-3577.7293"/>
<path content="1,国際興業（株）,赤54-1,19.0,14.0,13.0," xlink:title="1" d="M13970.2148,-3577.9247L13970.19,-3577.9159L13970.1638,-3577.9075L13970.1676,-3577.8894L13970.1707,-3577.8833L13970.1824,-3577.8438L13970.1866,-3577.8337L13970.1914,-3577.8145L13970.2004,-3577.7818L13970.2032,-3577.7717L13970.2073,-3577.7576L13970.2109,-3577.7422L13970.2148,-3577.7293"/>
<path content="1,国際興業（株）,赤56,96.0,85.0,82.0," xlink:title="1" d="M13970.2148,-3577.7293L13970.2109,-3577.7422L13970.2073,-3577.7576L13970.2032,-3577.7717L13970.2004,-3577.7818L13970.1914,-3577.8145L13970.1866,-3577.8337L13970.1824,-3577.8438L13970.1707,-3577.8833L13970.1676,-3577.8894L13970.1638,-3577.9075L13970.1251,-3577.8934L13970.0843,-3577.8793L13970.0338,-3577.8624L13970.0151,-3577.8556L13969.9875,-3577.8455L13969.9785,-3577.8433L13969.928,-3577.8252L13969.8983,-3577.8151L13969.8866,-3577.8117L13969.8244,-3577.7903L13969.8133,-3577.7869L13969.731,-3577.7491L13969.7248,-3577.7463L13969.6584,-3577.7153L13969.6039,-3577.6913L13969.5566,-3577.6694L13969.546,-3577.6641L13969.4724,-3577.6333L13969.4602,-3577.6297L13969.3578,-3577.6269L13969.3425,-3577.6269L13969.2879,-3577.6251L13969.2803,-3577.6246L13969.2782,-3577.6246L13969.1863,-3577.6234L13969.1162,-3577.6211"/>
<path content="1,国際興業（株）,赤56-2,1.0,0.0,0.0," xlink:title="1" d="M13970.2148,-3577.7293L13970.2109,-3577.7422L13970.2073,-3577.7576L13970.2032,-3577.7717L13970.2004,-3577.7818L13970.1914,-3577.8145L13970.1866,-3577.8337L13970.1824,-3577.8438L13970.1707,-3577.8833L13970.1676,-3577.8894L13970.1638,-3577.9075L13970.1251,-3577.8934L13970.0843,-3577.8793L13970.0338,-3577.8624L13970.0151,-3577.8556L13969.9875,-3577.8455L13969.9785,-3577.8433L13969.928,-3577.8252L13969.8983,-3577.8151L13969.8866,-3577.8117L13969.8244,-3577.7903L13969.8133,-3577.7869L13969.731,-3577.7491L13969.7248,-3577.7463L13969.6584,-3577.7153L13969.6039,-3577.6913L13969.5566,-3577.6694L13969.546,-3577.6641L13969.4724,-3577.6333L13969.4602,-3577.6297L13969.3578,-3577.6269L13969.3425,-3577.6269L13969.2879,-3577.6251L13969.2803,-3577.6246L13969.2782,-3577.6246L13969.1863,-3577.6234L13969.1162,-3577.6211"/>
<path content="1,国際興業（株）,赤56-3,17.0,9.0,8.0," xlink:title="1" d="M13969.1162,-3577.6211L13969.1863,-3577.6234L13969.2782,-3577.6246L13969.2803,-3577.6246L13969.2879,-3577.6251L13969.3425,-3577.6269L13969.3578,-3577.6269L13969.4602,-3577.6297L13969.4724,-3577.6333L13969.546,-3577.6641L13969.5566,-3577.6694L13969.6039,-3577.6913L13969.6584,-3577.7153L13969.7248,-3577.7463L13969.731,-3577.7491L13969.8133,-3577.7869L13969.8244,-3577.7903L13969.8866,-3577.8117L13969.8983,-3577.8151L13969.928,-3577.8252L13969.9785,-3577.8433L13969.9875,-3577.8455L13970.0151,-3577.8556L13970.0338,-3577.8624L13970.0843,-3577.8793L13970.1251,-3577.8934L13970.1638,-3577.9075L13970.1676,-3577.8894L13970.1707,-3577.8833L13970.1824,-3577.8438L13970.1866,-3577.8337L13970.1914,-3577.8145L13970.2004,-3577.7818L13970.2032,-3577.7717L13970.2073,-3577.7576L13970.2109,-3577.7422L13970.2148,-3577.7293"/>
<path content="1,国際興業（株）,赤73,1.0,0.0,0.0," xlink:title="1" d="M13970.2148,-3577.7293L13970.2109,-3577.7422L13970.2073,-3577.7576L13970.2032,-3577.7717L13970.2004,-3577.7818L13970.1914,-3577.8145L13970.1866,-3577.8337L13970.1824,-3577.8438L13970.1707,-3577.8833L13970.1676,-3577.8894L13970.1638,-3577.9075L13970.1251,-3577.8934L13970.0843,-3577.8793L13970.0338,-3577.8624L13970.0151,-3577.8556L13969.9875,-3577.8455L13969.9785,-3577.8433L13969.928,-3577.8252L13969.8983,-3577.8151L13969.8866,-3577.8117L13969.8244,-3577.7903L13969.8133,-3577.7869L13969.731,-3577.7491L13969.7248,-3577.7463L13969.6584,-3577.7153L13969.6039,-3577.6913L13969.5566,-3577.6694L13969.546,-3577.6641L13969.4724,-3577.6333L13969.4602,-3577.6297L13969.3578,-3577.6269L13969.3425,-3577.6269L13969.2879,-3577.6251L13969.2803,-3577.6246L13969.2782,-3577.6246L13969.1863,-3577.6234L13969.1162,-3577.6211"/>
<path content="1,国際興業（株）,赤83,3.0,2.0,2.0," xlink:title="1" d="M13969.1162,-3578.0199L13969.1176,-3578.0201L13969.2056,-3578.032L13969.2188,-3578.0331L13969.2879,-3578.0444L13969.3488,-3578.0523L13969.4421,-3578.0658L13969.4483,-3578.0675L13969.4524,-3578.0675L13969.4697,-3578.0692L13969.4718,-3578.0703L13969.4828,-3578.0709L13969.5347,-3578.0788L13969.5984,-3578.0906L13969.6135,-3578.0901L13969.6427,-3578.0931L13969.7164,-3578.1053L13969.7594,-3578.1126L13969.8195,-3578.1211L13969.8285,-3578.1233L13969.8402,-3578.1244L13969.8485,-3578.1273L13969.859,-3578.1311L13969.8707,-3578.134L13969.8949,-3578.1425L13970.0338,-3578.1977L13970.087,-3578.2179L13970.1105,-3578.2275L13970.1195,-3578.2304L13970.1457,-3578.2413L13970.1548,-3578.2471"/>
<path content="1,国際興業（株）,赤85,5.0,2.0,2.0," xlink:title="1" d="M13969.1162,-3578.0199L13969.1176,-3578.0201L13969.2056,-3578.032L13969.2188,-3578.0331L13969.2879,-3578.0444L13969.3488,-3578.0523L13969.4421,-3578.0658L13969.4483,-3578.0675L13969.4524,-3578.0675L13969.4697,-3578.0692L13969.4718,-3578.0703L13969.4828,-3578.0709L13969.5347,-3578.0788L13969.5984,-3578.0906L13969.6135,-3578.0901L13969.6427,-3578.0931L13969.7164,-3578.1053L13969.7594,-3578.1126L13969.8195,-3578.1211L13969.8285,-3578.1233L13969.8402,-3578.1244L13969.8485,-3578.1273L13969.859,-3578.1311L13969.8707,-3578.134L13969.8949,-3578.1425L13970.0338,-3578.1977L13970.087,-3578.2179L13970.1105,-3578.2275L13970.1195,-3578.2304L13970.1457,-3578.2413L13970.1548,-3578.2471"/>
<path content="1,国際興業（株）,赤93,3.0,2.0,2.0," xlink:title="1" d="M13970.2148,-3577.4678L13970.1845,-3577.4632L13970.14,-3577.4547L13970.123,-3577.4426L13970.0635,-3577.415L13969.9889,-3577.3784L13969.9011,-3577.3372L13969.8817,-3577.3293L13969.8734,-3577.3284L13969.8658,-3577.322L13969.8562,-3577.3186L13969.843,-3577.3124L13969.8202,-3577.3011L13969.7656,-3577.2769L13969.7159,-3577.2544L13969.6619,-3577.2296L13969.6571,-3577.2274L13969.6502,-3577.2257L13969.5914,-3577.1986L13969.5873,-3577.1941L13969.5582,-3577.193L13969.5292,-3577.2009L13969.4995,-3577.2087L13969.4849,-3577.2121L13969.4691,-3577.2172L13969.4621,-3577.2189L13969.4241,-3577.229L13969.4072,-3577.2296L13969.3898,-3577.2225L13969.3745,-3577.2133L13969.3614,-3577.2034L13969.3614,-3577.2034L13969.3613,-3577.2033L13969.3416,-3577.1924L13969.324,-3577.1799L13969.2849,-3577.1484"/>
<path content="1,国際興業（株）,赤96,7.0,8.0,8.0," xlink:title="1" d="M13970.2148,-3577.9247L13970.19,-3577.9159L13970.1638,-3577.9075L13970.1676,-3577.8894L13970.1707,-3577.8833L13970.1824,-3577.8438L13970.1866,-3577.8337L13970.1914,-3577.8145L13970.2004,-3577.7818L13970.2032,-3577.7717L13970.2073,-3577.7576L13970.2109,-3577.7422L13970.2148,-3577.7293"/>
<path content="1,宇和島自動車（株）,宇和島・松山⇔横浜・池袋・大宮,1.0,1.0,1.0," xlink:title="1" d="M13969.1162,-3577.2736L13969.1396,-3577.2682L13969.2134,-3577.2497L13969.2626,-3577.2398L13969.2929,-3577.2317L13969.3431,-3577.2133L13969.3733,-3577.197L13969.3969,-3577.1823L13969.425,-3577.155L13969.4296,-3577.1484"/>
<path content="1,富士急山梨バス（株）,河口湖～大宮・川越・所沢線,0.7,0.7,0.7," xlink:title="1" d="M13969.4296,-3577.1484L13969.425,-3577.155L13969.4226,-3577.1573L13969.422,-3577.1579L13969.4177,-3577.1622L13969.397,-3577.1823L13969.3841,-3577.1903L13969.379,-3577.1935L13969.3775,-3577.1945L13969.3744,-3577.1963L13969.3739,-3577.1967L13969.3733,-3577.197L13969.366,-3577.2009L13969.3653,-3577.2013L13969.3643,-3577.2019L13969.3633,-3577.2024L13969.3627,-3577.2027L13969.3623,-3577.203L13969.3614,-3577.2034L13969.343,-3577.2133L13969.3391,-3577.2147L13969.3278,-3577.2189L13969.3222,-3577.221L13969.3182,-3577.2224L13969.3124,-3577.2245L13969.3092,-3577.2257L13969.3073,-3577.2264L13969.3031,-3577.228L13969.3027,-3577.2281L13969.3018,-3577.2285L13969.2949,-3577.231L13969.2942,-3577.2312L13969.2929,-3577.2316L13969.2842,-3577.234L13969.2839,-3577.2341L13969.2766,-3577.2361L13969.2739,-3577.2368L13969.2735,-3577.2369L13969.2732,-3577.237L13969.2638,-3577.2395L13969.263,-3577.2397L13969.2626,-3577.2398L13969.2434,-3577.2437L13969.2391,-3577.2445L13969.2135,-3577.2497L13969.1916,-3577.2552L13969.1774,-3577.2588L13969.1533,-3577.2648L13969.1396,-3577.2682L13969.1162,-3577.2737"/>
<path content="1,富士急行（株）,河口湖～大宮・川越・所沢線,0.7,0.7,0.7," xlink:title="1" d="M13969.4296,-3577.1484L13969.425,-3577.155L13969.4226,-3577.1573L13969.422,-3577.1579L13969.4177,-3577.1622L13969.397,-3577.1823L13969.3841,-3577.1903L13969.379,-3577.1935L13969.3775,-3577.1945L13969.3744,-3577.1963L13969.3739,-3577.1967L13969.3733,-3577.197L13969.366,-3577.2009L13969.3653,-3577.2013L13969.3643,-3577.2019L13969.3633,-3577.2024L13969.3627,-3577.2027L13969.3623,-3577.203L13969.3614,-3577.2034L13969.343,-3577.2133L13969.3391,-3577.2147L13969.3278,-3577.2189L13969.3222,-3577.221L13969.3182,-3577.2224L13969.3124,-3577.2245L13969.3092,-3577.2257L13969.3073,-3577.2264L13969.3031,-3577.228L13969.3027,-3577.2281L13969.3018,-3577.2285L13969.2949,-3577.231L13969.2942,-3577.2312L13969.2929,-3577.2316L13969.2842,-3577.234L13969.2839,-3577.2341L13969.2766,-3577.2361L13969.2739,-3577.2368L13969.2735,-3577.2369L13969.2732,-3577.237L13969.2638,-3577.2395L13969.263,-3577.2397L13969.2626,-3577.2398L13969.2434,-3577.2437L13969.2391,-3577.2445L13969.2135,-3577.2497L13969.1916,-3577.2552L13969.1774,-3577.2588L13969.1533,-3577.2648L13969.1396,-3577.2682L13969.1162,-3577.2737"/>
<path content="1,富士急行（株）,河口湖～渋川・前橋・高崎線,0.3,0.3,0.3," xlink:title="1" d="M13969.4296,-3577.1484L13969.425,-3577.155L13969.4226,-3577.1573L13969.422,-3577.1579L13969.4177,-3577.1622L13969.397,-3577.1823L13969.3841,-3577.1903L13969.379,-3577.1935L13969.3775,-3577.1945L13969.3744,-3577.1963L13969.3739,-3577.1967L13969.3733,-3577.197L13969.366,-3577.2009L13969.3653,-3577.2013L13969.3643,-3577.2019L13969.3633,-3577.2024L13969.3627,-3577.2027L13969.3623,-3577.203L13969.3614,-3577.2034L13969.343,-3577.2133L13969.3391,-3577.2147L13969.3278,-3577.2189L13969.3222,-3577.221L13969.3182,-3577.2224L13969.3124,-3577.2245L13969.3092,-3577.2257L13969.3073,-3577.2264L13969.3031,-3577.228L13969.3027,-3577.2281L13969.3018,-3577.2285L13969.2949,-3577.231L13969.2942,-3577.2312L13969.2929,-3577.2316L13969.2842,-3577.234L13969.2839,-3577.2341L13969.2766,-3577.2361L13969.2739,-3577.2368L13969.2735,-3577.2369L13969.2732,-3577.237L13969.2638,-3577.2395L13969.263,-3577.2397L13969.2626,-3577.2398L13969.2434,-3577.2437L13969.2391,-3577.2445L13969.2135,-3577.2497L13969.1916,-3577.2552L13969.1774,-3577.2588L13969.1533,-3577.2648L13969.1396,-3577.2682L13969.1162,-3577.2737"/>
<path content="1,岩手県交通（株）,盛岡・横浜線,1.0,1.0,1.0," xlink:title="1" d="M13969.4296,-3577.1484L13969.425,-3577.155L13969.4226,-3577.1573L13969.422,-3577.1579L13969.4177,-3577.1622L13969.397,-3577.1823L13969.3841,-3577.1903L13969.379,-3577.1935L13969.3775,-3577.1945L13969.3744,-3577.1963L13969.3739,-3577.1967L13969.3733,-3577.197L13969.366,-3577.2009L13969.3653,-3577.2013L13969.3643,-3577.2019L13969.3633,-3577.2024L13969.3627,-3577.2027L13969.3623,-3577.203L13969.3614,-3577.2034L13969.343,-3577.2133L13969.3391,-3577.2147L13969.3278,-3577.2189L13969.3222,-3577.221L13969.3182,-3577.2224L13969.3124,-3577.2245L13969.3092,-3577.2257L13969.3073,-3577.2264L13969.3031,-3577.228L13969.3027,-3577.2281L13969.3018,-3577.2285L13969.2949,-3577.231L13969.2942,-3577.2312L13969.2929,-3577.2316L13969.2842,-3577.234L13969.2839,-3577.2341L13969.2766,-3577.2361L13969.2739,-3577.2368L13969.2735,-3577.2369L13969.2732,-3577.237L13969.2638,-3577.2395L13969.263,-3577.2397L13969.2626,-3577.2398L13969.2434,-3577.2437L13969.2391,-3577.2445L13969.2135,-3577.2497L13969.1916,-3577.2552L13969.1774,-3577.2588L13969.1533,-3577.2648L13969.1396,-3577.2682L13969.1162,-3577.2737"/>
<path content="1,岩手県北自動車（株）,BEAM-1　宮古・盛岡南⇔浜松町・品川,1.0,1.0,1.0," xlink:title="1" d="M13969.4296,-3577.1484L13969.425,-3577.155L13969.4226,-3577.1573L13969.422,-3577.1579L13969.4177,-3577.1622L13969.397,-3577.1823L13969.3841,-3577.1903L13969.379,-3577.1935L13969.3775,-3577.1945L13969.3744,-3577.1963L13969.3739,-3577.1967L13969.3733,-3577.197L13969.366,-3577.2009L13969.3653,-3577.2013L13969.3643,-3577.2019L13969.3633,-3577.2024L13969.3627,-3577.2027L13969.3623,-3577.203L13969.3614,-3577.2034L13969.343,-3577.2133L13969.3391,-3577.2147L13969.3278,-3577.2189L13969.3222,-3577.221L13969.3182,-3577.2224L13969.3124,-3577.2245L13969.3092,-3577.2257L13969.3073,-3577.2264L13969.3031,-3577.228L13969.3027,-3577.2281L13969.3018,-3577.2285L13969.2949,-3577.231L13969.2942,-3577.2312L13969.2929,-3577.2316L13969.2842,-3577.234L13969.2839,-3577.2341L13969.2766,-3577.2361L13969.2739,-3577.2368L13969.2735,-3577.2369L13969.2732,-3577.237L13969.2638,-3577.2395L13969.263,-3577.2397L13969.2626,-3577.2398L13969.2434,-3577.2437L13969.2391,-3577.2445L13969.2135,-3577.2497L13969.1916,-3577.2552L13969.1774,-3577.2588L13969.1533,-3577.2648L13969.1396,-3577.2682L13969.1162,-3577.2737"/>
<path content="1,川越観光自動車,高速バス成田線,4.0,4.0,4.0," xlink:title="1" d="M13969.4296,-3577.1484L13969.425,-3577.155L13969.4226,-3577.1573L13969.422,-3577.1579L13969.4177,-3577.1622L13969.397,-3577.1823L13969.3841,-3577.1903L13969.379,-3577.1935L13969.3775,-3577.1945L13969.3744,-3577.1963L13969.3739,-3577.1967L13969.3733,-3577.197L13969.366,-3577.2009L13969.3653,-3577.2013L13969.3643,-3577.2019L13969.3633,-3577.2024L13969.3627,-3577.2027L13969.3623,-3577.203L13969.3614,-3577.2034L13969.343,-3577.2133L13969.3391,-3577.2147L13969.3278,-3577.2189L13969.3222,-3577.221L13969.3182,-3577.2224L13969.3124,-3577.2245L13969.3092,-3577.2257L13969.3073,-3577.2264L13969.3031,-3577.228L13969.3027,-3577.2281L13969.3018,-3577.2285L13969.2949,-3577.231L13969.2942,-3577.2312L13969.2929,-3577.2316L13969.2842,-3577.234L13969.2839,-3577.2341L13969.2766,-3577.2361L13969.2739,-3577.2368L13969.2735,-3577.2369L13969.2732,-3577.237L13969.2638,-3577.2395L13969.263,-3577.2397L13969.2626,-3577.2398L13969.2434,-3577.2437L13969.2391,-3577.2445L13969.2135,-3577.2497L13969.1916,-3577.2552L13969.1774,-3577.2588L13969.1533,-3577.2648L13969.1396,-3577.2682L13969.1162,-3577.2737"/>
<path content="1,庄内交通（株）,高速バス　酒田・鶴岡⇔大宮・池袋・渋谷,1.0,1.0,1.0," xlink:title="1" d="M13969.4296,-3577.1484L13969.425,-3577.155L13969.4226,-3577.1573L13969.422,-3577.1579L13969.4177,-3577.1622L13969.397,-3577.1823L13969.3841,-3577.1903L13969.379,-3577.1935L13969.3775,-3577.1945L13969.3744,-3577.1963L13969.3739,-3577.1967L13969.3733,-3577.197L13969.366,-3577.2009L13969.3653,-3577.2013L13969.3643,-3577.2019L13969.3633,-3577.2024L13969.3627,-3577.2027L13969.3623,-3577.203L13969.3614,-3577.2034L13969.343,-3577.2133L13969.3391,-3577.2147L13969.3278,-3577.2189L13969.3222,-3577.221L13969.3182,-3577.2224L13969.3124,-3577.2245L13969.3092,-3577.2257L13969.3073,-3577.2264L13969.3031,-3577.228L13969.3027,-3577.2281L13969.3018,-3577.2285L13969.2949,-3577.231L13969.2942,-3577.2312L13969.2929,-3577.2316L13969.2842,-3577.234L13969.2839,-3577.2341L13969.2766,-3577.2361L13969.2739,-3577.2368L13969.2735,-3577.2369L13969.2732,-3577.237L13969.2638,-3577.2395L13969.263,-3577.2397L13969.2626,-3577.2398L13969.2434,-3577.2437L13969.2391,-3577.2445L13969.2135,-3577.2497L13969.1916,-3577.2552L13969.1774,-3577.2588L13969.1533,-3577.2648L13969.1396,-3577.2682L13969.1162,-3577.2737"/>
<path content="1,日本中央バス（株）,シルクライナー,5.0,5.0,5.0," xlink:title="1" d="M13969.4296,-3577.1484L13969.425,-3577.155L13969.4226,-3577.1573L13969.422,-3577.1579L13969.4177,-3577.1622L13969.397,-3577.1823L13969.3841,-3577.1903L13969.379,-3577.1935L13969.3775,-3577.1945L13969.3744,-3577.1963L13969.3739,-3577.1967L13969.3733,-3577.197L13969.366,-3577.2009L13969.3653,-3577.2013L13969.3643,-3577.2019L13969.3633,-3577.2024L13969.3627,-3577.2027L13969.3623,-3577.203L13969.3614,-3577.2034L13969.343,-3577.2133L13969.3391,-3577.2147L13969.3278,-3577.2189L13969.3222,-3577.221L13969.3182,-3577.2224L13969.3124,-3577.2245L13969.3092,-3577.2257L13969.3073,-3577.2264L13969.3031,-3577.228L13969.3027,-3577.2281L13969.3018,-3577.2285L13969.2949,-3577.231L13969.2942,-3577.2312L13969.2929,-3577.2316L13969.2842,-3577.234L13969.2839,-3577.2341L13969.2766,-3577.2361L13969.2739,-3577.2368L13969.2735,-3577.2369L13969.2732,-3577.237L13969.2638,-3577.2395L13969.263,-3577.2397L13969.2626,-3577.2398L13969.2434,-3577.2437L13969.2391,-3577.2445L13969.2135,-3577.2497L13969.1916,-3577.2552L13969.1774,-3577.2588L13969.1533,-3577.2648L13969.1396,-3577.2682L13969.1162,-3577.2737"/>
<path content="1,日本中央バス（株）,東京・さいたま～富山・金沢線,1.0,1.0,1.0," xlink:title="1" d="M13969.4296,-3577.1484L13969.425,-3577.155L13969.4226,-3577.1573L13969.422,-3577.1579L13969.4177,-3577.1622L13969.397,-3577.1823L13969.3841,-3577.1903L13969.379,-3577.1935L13969.3775,-3577.1945L13969.3744,-3577.1963L13969.3739,-3577.1967L13969.3733,-3577.197L13969.366,-3577.2009L13969.3653,-3577.2013L13969.3643,-3577.2019L13969.3633,-3577.2024L13969.3627,-3577.2027L13969.3623,-3577.203L13969.3614,-3577.2034L13969.343,-3577.2133L13969.3391,-3577.2147L13969.3278,-3577.2189L13969.3222,-3577.221L13969.3182,-3577.2224L13969.3124,-3577.2245L13969.3092,-3577.2257L13969.3073,-3577.2264L13969.3031,-3577.228L13969.3027,-3577.2281L13969.3018,-3577.2285L13969.2949,-3577.231L13969.2942,-3577.2312L13969.2929,-3577.2316L13969.2842,-3577.234L13969.2839,-3577.2341L13969.2766,-3577.2361L13969.2739,-3577.2368L13969.2735,-3577.2369L13969.2732,-3577.237L13969.2638,-3577.2395L13969.263,-3577.2397L13969.2626,-3577.2398L13969.2434,-3577.2437L13969.2391,-3577.2445L13969.2135,-3577.2497L13969.1916,-3577.2552L13969.1774,-3577.2588L13969.1533,-3577.2648L13969.1396,-3577.2682L13969.1162,-3577.2737"/>
<path content="1,日本中央バス（株）,東海ライナー,2.0,2.0,2.0," xlink:title="1" d="M13969.4296,-3577.1484L13969.425,-3577.155L13969.4226,-3577.1573L13969.422,-3577.1579L13969.4177,-3577.1622L13969.397,-3577.1823L13969.3841,-3577.1903L13969.379,-3577.1935L13969.3775,-3577.1945L13969.3744,-3577.1963L13969.3739,-3577.1967L13969.3733,-3577.197L13969.366,-3577.2009L13969.3653,-3577.2013L13969.3643,-3577.2019L13969.3633,-3577.2024L13969.3627,-3577.2027L13969.3623,-3577.203L13969.3614,-3577.2034L13969.343,-3577.2133L13969.3391,-3577.2147L13969.3278,-3577.2189L13969.3222,-3577.221L13969.3182,-3577.2224L13969.3124,-3577.2245L13969.3092,-3577.2257L13969.3073,-3577.2264L13969.3031,-3577.228L13969.3027,-3577.2281L13969.3018,-3577.2285L13969.2949,-3577.231L13969.2942,-3577.2312L13969.2929,-3577.2316L13969.2842,-3577.234L13969.2839,-3577.2341L13969.2766,-3577.2361L13969.2739,-3577.2368L13969.2735,-3577.2369L13969.2732,-3577.237L13969.2638,-3577.2395L13969.263,-3577.2397L13969.2626,-3577.2398L13969.2434,-3577.2437L13969.2391,-3577.2445L13969.2135,-3577.2497L13969.1916,-3577.2552L13969.1774,-3577.2588L13969.1533,-3577.2648L13969.1396,-3577.2682L13969.1162,-3577.2737"/>
<path content="1,日本中央バス（株）,渋川・前橋～羽田空港線,8.0,8.0,8.0," xlink:title="1" d="M13969.4296,-3577.1484L13969.425,-3577.155L13969.4226,-3577.1573L13969.422,-3577.1579L13969.4177,-3577.1622L13969.397,-3577.1823L13969.3841,-3577.1903L13969.379,-3577.1935L13969.3775,-3577.1945L13969.3744,-3577.1963L13969.3739,-3577.1967L13969.3733,-3577.197L13969.366,-3577.2009L13969.3653,-3577.2013L13969.3643,-3577.2019L13969.3633,-3577.2024L13969.3627,-3577.2027L13969.3623,-3577.203L13969.3614,-3577.2034L13969.343,-3577.2133L13969.3391,-3577.2147L13969.3278,-3577.2189L13969.3222,-3577.221L13969.3182,-3577.2224L13969.3124,-3577.2245L13969.3092,-3577.2257L13969.3073,-3577.2264L13969.3031,-3577.228L13969.3027,-3577.2281L13969.3018,-3577.2285L13969.2949,-3577.231L13969.2942,-3577.2312L13969.2929,-3577.2316L13969.2842,-3577.234L13969.2839,-3577.2341L13969.2766,-3577.2361L13969.2739,-3577.2368L13969.2735,-3577.2369L13969.2732,-3577.237L13969.2638,-3577.2395L13969.263,-3577.2397L13969.2626,-3577.2398L13969.2434,-3577.2437L13969.2391,-3577.2445L13969.2135,-3577.2497L13969.1916,-3577.2552L13969.1774,-3577.2588L13969.1533,-3577.2648L13969.1396,-3577.2682L13969.1162,-3577.2737"/>
<path content="1,東京ベイシティ交通,小江戸川越・大宮駅～東京ディズニーリゾート・新浦安線,2.0,2.0,2.0," xlink:title="1" d="M13969.4296,-3577.1484L13969.425,-3577.155L13969.4226,-3577.1573L13969.422,-3577.1579L13969.4177,-3577.1622L13969.397,-3577.1823L13969.3841,-3577.1903L13969.379,-3577.1935L13969.3775,-3577.1945L13969.3744,-3577.1963L13969.3739,-3577.1967L13969.3733,-3577.197L13969.366,-3577.2009L13969.3653,-3577.2013L13969.3643,-3577.2019L13969.3633,-3577.2024L13969.3627,-3577.2027L13969.3623,-3577.203L13969.3614,-3577.2034L13969.343,-3577.2133L13969.3391,-3577.2147L13969.3278,-3577.2189L13969.3222,-3577.221L13969.3182,-3577.2224L13969.3124,-3577.2245L13969.3092,-3577.2257L13969.3073,-3577.2264L13969.3031,-3577.228L13969.3027,-3577.2281L13969.3018,-3577.2285L13969.2949,-3577.231L13969.2942,-3577.2312L13969.2929,-3577.2316L13969.2842,-3577.234L13969.2839,-3577.2341L13969.2766,-3577.2361L13969.2739,-3577.2368L13969.2735,-3577.2369L13969.2732,-3577.237L13969.2638,-3577.2395L13969.263,-3577.2397L13969.2626,-3577.2398L13969.2434,-3577.2437L13969.2391,-3577.2445L13969.2135,-3577.2497L13969.1916,-3577.2552L13969.1774,-3577.2588L13969.1533,-3577.2648L13969.1396,-3577.2682L13969.1162,-3577.2737"/>
<path content="1,東京空港交通（株）,ふじみ野・新座・志木・朝霞台エリア～成田空港線,3.0,3.0,3.0," xlink:title="1" d="M13969.4296,-3577.1484L13969.425,-3577.155L13969.4226,-3577.1573L13969.422,-3577.1579L13969.4177,-3577.1622L13969.397,-3577.1823L13969.3841,-3577.1903L13969.379,-3577.1935L13969.3775,-3577.1945L13969.3744,-3577.1963L13969.3739,-3577.1967L13969.3733,-3577.197L13969.366,-3577.2009L13969.3653,-3577.2013L13969.3643,-3577.2019L13969.3633,-3577.2024L13969.3627,-3577.2027L13969.3623,-3577.203L13969.3614,-3577.2034L13969.3614,-3577.2034L13969.343,-3577.2133L13969.3391,-3577.2147L13969.3278,-3577.2189L13969.3222,-3577.221L13969.3182,-3577.2224L13969.3124,-3577.2245L13969.3092,-3577.2257L13969.3073,-3577.2264L13969.3031,-3577.228L13969.3027,-3577.2281L13969.3018,-3577.2285L13969.2949,-3577.231L13969.2942,-3577.2312L13969.2929,-3577.2316L13969.2842,-3577.234L13969.2839,-3577.2341L13969.2766,-3577.2361L13969.2739,-3577.2368L13969.2735,-3577.2369L13969.2732,-3577.237L13969.2638,-3577.2395L13969.263,-3577.2397L13969.2626,-3577.2398L13969.2434,-3577.2437L13969.2391,-3577.2445L13969.2135,-3577.2497L13969.1916,-3577.2552L13969.1774,-3577.2588L13969.1533,-3577.2648L13969.1396,-3577.2682L13969.1162,-3577.2737"/>
<path content="1,東京空港交通（株）,前橋・伊勢崎・高崎エリア～羽田空港線,4.0,4.0,4.0," xlink:title="1" d="M13969.4296,-3577.1484L13969.425,-3577.155L13969.4226,-3577.1573L13969.422,-3577.1579L13969.4177,-3577.1622L13969.397,-3577.1823L13969.3841,-3577.1903L13969.379,-3577.1935L13969.3775,-3577.1945L13969.3744,-3577.1963L13969.3739,-3577.1967L13969.3733,-3577.197L13969.366,-3577.2009L13969.3653,-3577.2013L13969.3643,-3577.2019L13969.3633,-3577.2024L13969.3627,-3577.2027L13969.3623,-3577.203L13969.3614,-3577.2034L13969.3614,-3577.2034L13969.343,-3577.2133L13969.3391,-3577.2147L13969.3278,-3577.2189L13969.3222,-3577.221L13969.3182,-3577.2224L13969.3124,-3577.2245L13969.3092,-3577.2257L13969.3073,-3577.2264L13969.3031,-3577.228L13969.3027,-3577.2281L13969.3018,-3577.2285L13969.2949,-3577.231L13969.2942,-3577.2312L13969.2929,-3577.2316L13969.2842,-3577.234L13969.2839,-3577.2341L13969.2766,-3577.2361L13969.2739,-3577.2368L13969.2735,-3577.2369L13969.2732,-3577.237L13969.2638,-3577.2395L13969.263,-3577.2397L13969.2626,-3577.2398L13969.2434,-3577.2437L13969.2391,-3577.2445L13969.2135,-3577.2497L13969.1916,-3577.2552L13969.1774,-3577.2588L13969.1533,-3577.2648L13969.1396,-3577.2682L13969.1162,-3577.2737"/>
<path content="1,東京空港交通（株）,大宮エリア～羽田空港線,5.0,5.0,5.0," xlink:title="1" d="M13969.4296,-3577.1484L13969.425,-3577.155L13969.4226,-3577.1573L13969.422,-3577.1579L13969.4177,-3577.1622L13969.397,-3577.1823L13969.3841,-3577.1903L13969.379,-3577.1935L13969.3775,-3577.1945L13969.3744,-3577.1963L13969.3739,-3577.1967L13969.3733,-3577.197L13969.366,-3577.2009L13969.3653,-3577.2013L13969.3643,-3577.2019L13969.3633,-3577.2024L13969.3627,-3577.2027L13969.3623,-3577.203L13969.3614,-3577.2034L13969.3614,-3577.2034L13969.343,-3577.2133L13969.3391,-3577.2147L13969.3278,-3577.2189L13969.3222,-3577.221L13969.3182,-3577.2224L13969.3124,-3577.2245L13969.3092,-3577.2257L13969.3073,-3577.2264L13969.3031,-3577.228L13969.3027,-3577.2281L13969.3018,-3577.2285L13969.2949,-3577.231L13969.2942,-3577.2312L13969.2929,-3577.2316L13969.2842,-3577.234L13969.2839,-3577.2341L13969.2766,-3577.2361L13969.2739,-3577.2368L13969.2735,-3577.2369L13969.2732,-3577.237L13969.2638,-3577.2395L13969.263,-3577.2397L13969.2626,-3577.2398L13969.2434,-3577.2437L13969.2391,-3577.2445L13969.2135,-3577.2497L13969.1916,-3577.2552L13969.1774,-3577.2588L13969.1533,-3577.2648L13969.1396,-3577.2682L13969.1162,-3577.2737"/>
<path content="1,東京空港交通（株）,大泉学園・和光市エリア～羽田空港線,5.0,5.0,5.0," xlink:title="1" d="M13969.4296,-3577.1484L13969.425,-3577.155L13969.4226,-3577.1573L13969.422,-3577.1579L13969.4177,-3577.1622L13969.397,-3577.1823L13969.3841,-3577.1903L13969.379,-3577.1935L13969.3775,-3577.1945L13969.3744,-3577.1963L13969.3739,-3577.1967L13969.3733,-3577.197L13969.366,-3577.2009L13969.3653,-3577.2013L13969.3643,-3577.2019L13969.3633,-3577.2024L13969.3627,-3577.2027L13969.3623,-3577.203L13969.3614,-3577.2034L13969.3614,-3577.2034L13969.343,-3577.2133L13969.3391,-3577.2147L13969.3278,-3577.2189L13969.3222,-3577.221L13969.3182,-3577.2224L13969.3124,-3577.2245L13969.3092,-3577.2257L13969.3073,-3577.2264L13969.3031,-3577.228L13969.3027,-3577.2281L13969.3018,-3577.2285L13969.2949,-3577.231L13969.2942,-3577.2312L13969.2929,-3577.2316L13969.2842,-3577.234L13969.2839,-3577.2341L13969.2766,-3577.2361L13969.2739,-3577.2368L13969.2735,-3577.2369L13969.2732,-3577.237L13969.2638,-3577.2395L13969.263,-3577.2397L13969.2626,-3577.2398L13969.2434,-3577.2437L13969.2391,-3577.2445L13969.2135,-3577.2497L13969.1916,-3577.2552L13969.1774,-3577.2588L13969.1533,-3577.2648L13969.1396,-3577.2682L13969.1162,-3577.2737"/>
<path content="1,東京空港交通（株）,所沢駅・東所沢駅～羽田空港線,9.5,9.5,9.5," xlink:title="1" d="M13969.4296,-3577.1484L13969.425,-3577.155L13969.4226,-3577.1573L13969.422,-3577.1579L13969.4177,-3577.1622L13969.397,-3577.1823L13969.3841,-3577.1903L13969.379,-3577.1935L13969.3775,-3577.1945L13969.3744,-3577.1963L13969.3739,-3577.1967L13969.3733,-3577.197L13969.366,-3577.2009L13969.3653,-3577.2013L13969.3643,-3577.2019L13969.3633,-3577.2024L13969.3627,-3577.2027L13969.3623,-3577.203L13969.3614,-3577.2034L13969.3614,-3577.2034L13969.343,-3577.2133L13969.3391,-3577.2147L13969.3278,-3577.2189L13969.3222,-3577.221L13969.3182,-3577.2224L13969.3124,-3577.2245L13969.3092,-3577.2257L13969.3073,-3577.2264L13969.3031,-3577.228L13969.3027,-3577.2281L13969.3018,-3577.2285L13969.2949,-3577.231L13969.2942,-3577.2312L13969.2929,-3577.2316L13969.2842,-3577.234L13969.2839,-3577.2341L13969.2766,-3577.2361L13969.2739,-3577.2368L13969.2735,-3577.2369L13969.2732,-3577.237L13969.2638,-3577.2395L13969.263,-3577.2397L13969.2626,-3577.2398L13969.2434,-3577.2437L13969.2391,-3577.2445L13969.2135,-3577.2497L13969.1916,-3577.2552L13969.1774,-3577.2588L13969.1533,-3577.2648L13969.1396,-3577.2682L13969.1162,-3577.2737"/>
<path content="1,東京空港交通（株）,本川越駅・川越駅～羽田空港線,2.5,2.5,2.5," xlink:title="1" d="M13969.4296,-3577.1484L13969.425,-3577.155L13969.4226,-3577.1573L13969.422,-3577.1579L13969.4177,-3577.1622L13969.397,-3577.1823L13969.3841,-3577.1903L13969.379,-3577.1935L13969.3775,-3577.1945L13969.3744,-3577.1963L13969.3739,-3577.1967L13969.3733,-3577.197L13969.366,-3577.2009L13969.3653,-3577.2013L13969.3643,-3577.2019L13969.3633,-3577.2024L13969.3627,-3577.2027L13969.3623,-3577.203L13969.3614,-3577.2034L13969.3614,-3577.2034L13969.343,-3577.2133L13969.3391,-3577.2147L13969.3278,-3577.2189L13969.3222,-3577.221L13969.3182,-3577.2224L13969.3124,-3577.2245L13969.3092,-3577.2257L13969.3073,-3577.2264L13969.3031,-3577.228L13969.3027,-3577.2281L13969.3018,-3577.2285L13969.2949,-3577.231L13969.2942,-3577.2312L13969.2929,-3577.2316L13969.2842,-3577.234L13969.2839,-3577.2341L13969.2766,-3577.2361L13969.2739,-3577.2368L13969.2735,-3577.2369L13969.2732,-3577.237L13969.2638,-3577.2395L13969.263,-3577.2397L13969.2626,-3577.2398L13969.2434,-3577.2437L13969.2391,-3577.2445L13969.2135,-3577.2497L13969.1916,-3577.2552L13969.1774,-3577.2588L13969.1533,-3577.2648L13969.1396,-3577.2682L13969.1162,-3577.2737"/>
<path content="1,東京空港交通（株）,本籠原駅・熊谷・森林公園駅・坂戸駅～羽田空港線,3.0,3.0,3.0," xlink:title="1" d="M13969.4296,-3577.1484L13969.425,-3577.155L13969.4226,-3577.1573L13969.422,-3577.1579L13969.4177,-3577.1622L13969.397,-3577.1823L13969.3841,-3577.1903L13969.379,-3577.1935L13969.3775,-3577.1945L13969.3744,-3577.1963L13969.3739,-3577.1967L13969.3733,-3577.197L13969.366,-3577.2009L13969.3653,-3577.2013L13969.3643,-3577.2019L13969.3633,-3577.2024L13969.3627,-3577.2027L13969.3623,-3577.203L13969.3614,-3577.2034L13969.3614,-3577.2034L13969.343,-3577.2133L13969.3391,-3577.2147L13969.3278,-3577.2189L13969.3222,-3577.221L13969.3182,-3577.2224L13969.3124,-3577.2245L13969.3092,-3577.2257L13969.3073,-3577.2264L13969.3031,-3577.228L13969.3027,-3577.2281L13969.3018,-3577.2285L13969.2949,-3577.231L13969.2942,-3577.2312L13969.2929,-3577.2316L13969.2842,-3577.234L13969.2839,-3577.2341L13969.2766,-3577.2361L13969.2739,-3577.2368L13969.2735,-3577.2369L13969.2732,-3577.237L13969.2638,-3577.2395L13969.263,-3577.2397L13969.2626,-3577.2398L13969.2434,-3577.2437L13969.2391,-3577.2445L13969.2135,-3577.2497L13969.1916,-3577.2552L13969.1774,-3577.2588L13969.1533,-3577.2648L13969.1396,-3577.2682L13969.1162,-3577.2737"/>
<path content="1,東京空港交通（株）,深谷駅・籠原駅・熊谷駅・森林公園駅～成田空港線,1.0,1.0,1.0," xlink:title="1" d="M13969.4296,-3577.1484L13969.425,-3577.155L13969.4226,-3577.1573L13969.422,-3577.1579L13969.4177,-3577.1622L13969.397,-3577.1823L13969.3841,-3577.1903L13969.379,-3577.1935L13969.3775,-3577.1945L13969.3744,-3577.1963L13969.3739,-3577.1967L13969.3733,-3577.197L13969.366,-3577.2009L13969.3653,-3577.2013L13969.3643,-3577.2019L13969.3633,-3577.2024L13969.3627,-3577.2027L13969.3623,-3577.203L13969.3614,-3577.2034L13969.3614,-3577.2034L13969.343,-3577.2133L13969.3391,-3577.2147L13969.3278,-3577.2189L13969.3222,-3577.221L13969.3182,-3577.2224L13969.3124,-3577.2245L13969.3092,-3577.2257L13969.3073,-3577.2264L13969.3031,-3577.228L13969.3027,-3577.2281L13969.3018,-3577.2285L13969.2949,-3577.231L13969.2942,-3577.2312L13969.2929,-3577.2316L13969.2842,-3577.234L13969.2839,-3577.2341L13969.2766,-3577.2361L13969.2739,-3577.2368L13969.2735,-3577.2369L13969.2732,-3577.237L13969.2638,-3577.2395L13969.263,-3577.2397L13969.2626,-3577.2398L13969.2434,-3577.2437L13969.2391,-3577.2445L13969.2135,-3577.2497L13969.1916,-3577.2552L13969.1774,-3577.2588L13969.1533,-3577.2648L13969.1396,-3577.2682L13969.1162,-3577.2737"/>
<path content="1,東武バスウエスト,ONライナー,4.0,4.0,4.0," xlink:title="1" d="M13969.4296,-3577.1484L13969.425,-3577.155L13969.4226,-3577.1573L13969.422,-3577.1579L13969.4177,-3577.1622L13969.397,-3577.1823L13969.3841,-3577.1903L13969.379,-3577.1935L13969.3775,-3577.1945L13969.3744,-3577.1963L13969.3739,-3577.1967L13969.3733,-3577.197L13969.366,-3577.2009L13969.3653,-3577.2013L13969.3643,-3577.2019L13969.3633,-3577.2024L13969.3627,-3577.2027L13969.3623,-3577.203L13969.3614,-3577.2034L13969.343,-3577.2133L13969.3391,-3577.2147L13969.3278,-3577.2189L13969.3222,-3577.221L13969.3182,-3577.2224L13969.3124,-3577.2245L13969.3092,-3577.2257L13969.3073,-3577.2264L13969.3031,-3577.228L13969.3027,-3577.2281L13969.3018,-3577.2285L13969.2949,-3577.231L13969.2942,-3577.2312L13969.2929,-3577.2316L13969.2842,-3577.234L13969.2839,-3577.2341L13969.2766,-3577.2361L13969.2739,-3577.2368L13969.2735,-3577.2369L13969.2732,-3577.237L13969.2638,-3577.2395L13969.263,-3577.2397L13969.2626,-3577.2398L13969.2434,-3577.2437L13969.2391,-3577.2445L13969.2135,-3577.2497L13969.1916,-3577.2552L13969.1774,-3577.2588L13969.1533,-3577.2648L13969.1396,-3577.2682L13969.1162,-3577.2737"/>
<path content="1,東武バスウエスト,ふじみ野駅・ふじみ野駅・新座車庫・志木駅・朝霞台駅～成田空港,3.0,3.0,3.0," xlink:title="1" d="M13969.4296,-3577.1484L13969.425,-3577.155L13969.4226,-3577.1573L13969.422,-3577.1579L13969.4177,-3577.1622L13969.397,-3577.1823L13969.3841,-3577.1903L13969.379,-3577.1935L13969.3775,-3577.1945L13969.3744,-3577.1963L13969.3739,-3577.1967L13969.3733,-3577.197L13969.366,-3577.2009L13969.3653,-3577.2013L13969.3643,-3577.2019L13969.3633,-3577.2024L13969.3627,-3577.2027L13969.3623,-3577.203L13969.3614,-3577.2034L13969.343,-3577.2133L13969.3391,-3577.2147L13969.3278,-3577.2189L13969.3222,-3577.221L13969.3182,-3577.2224L13969.3124,-3577.2245L13969.3092,-3577.2257L13969.3073,-3577.2264L13969.3031,-3577.228L13969.3027,-3577.2281L13969.3018,-3577.2285L13969.2949,-3577.231L13969.2942,-3577.2312L13969.2929,-3577.2316L13969.2842,-3577.234L13969.2839,-3577.2341L13969.2766,-3577.2361L13969.2739,-3577.2368L13969.2735,-3577.2369L13969.2732,-3577.237L13969.2638,-3577.2395L13969.263,-3577.2397L13969.2626,-3577.2398L13969.2434,-3577.2437L13969.2391,-3577.2445L13969.2135,-3577.2497L13969.1916,-3577.2552L13969.1774,-3577.2588L13969.1533,-3577.2648L13969.1396,-3577.2682L13969.1162,-3577.2737"/>
<path content="1,東武バスウエスト,ふじみ野駅・志木駅・朝霞台駅～羽田空港,8.5,8.5,8.5," xlink:title="1" d="M13969.4296,-3577.1484L13969.425,-3577.155L13969.4226,-3577.1573L13969.422,-3577.1579L13969.4177,-3577.1622L13969.397,-3577.1823L13969.3841,-3577.1903L13969.379,-3577.1935L13969.3775,-3577.1945L13969.3744,-3577.1963L13969.3739,-3577.1967L13969.3733,-3577.197L13969.366,-3577.2009L13969.3653,-3577.2013L13969.3643,-3577.2019L13969.3633,-3577.2024L13969.3627,-3577.2027L13969.3623,-3577.203L13969.3614,-3577.2034L13969.343,-3577.2133L13969.3391,-3577.2147L13969.3278,-3577.2189L13969.3222,-3577.221L13969.3182,-3577.2224L13969.3124,-3577.2245L13969.3092,-3577.2257L13969.3073,-3577.2264L13969.3031,-3577.228L13969.3027,-3577.2281L13969.3018,-3577.2285L13969.2949,-3577.231L13969.2942,-3577.2312L13969.2929,-3577.2316L13969.2842,-3577.234L13969.2839,-3577.2341L13969.2766,-3577.2361L13969.2739,-3577.2368L13969.2735,-3577.2369L13969.2732,-3577.237L13969.2638,-3577.2395L13969.263,-3577.2397L13969.2626,-3577.2398L13969.2434,-3577.2437L13969.2391,-3577.2445L13969.2135,-3577.2497L13969.1916,-3577.2552L13969.1774,-3577.2588L13969.1533,-3577.2648L13969.1396,-3577.2682L13969.1162,-3577.2737"/>
<path content="1,東武バスウエスト,坂戸駅南口・川越駅西口～成田空港,2.0,2.0,2.0," xlink:title="1" d="M13969.4296,-3577.1484L13969.425,-3577.155L13969.4226,-3577.1573L13969.422,-3577.1579L13969.4177,-3577.1622L13969.397,-3577.1823L13969.3841,-3577.1903L13969.379,-3577.1935L13969.3775,-3577.1945L13969.3744,-3577.1963L13969.3739,-3577.1967L13969.3733,-3577.197L13969.366,-3577.2009L13969.3653,-3577.2013L13969.3643,-3577.2019L13969.3633,-3577.2024L13969.3627,-3577.2027L13969.3623,-3577.203L13969.3614,-3577.2034L13969.343,-3577.2133L13969.3391,-3577.2147L13969.3278,-3577.2189L13969.3222,-3577.221L13969.3182,-3577.2224L13969.3124,-3577.2245L13969.3092,-3577.2257L13969.3073,-3577.2264L13969.3031,-3577.228L13969.3027,-3577.2281L13969.3018,-3577.2285L13969.2949,-3577.231L13969.2942,-3577.2312L13969.2929,-3577.2316L13969.2842,-3577.234L13969.2839,-3577.2341L13969.2766,-3577.2361L13969.2739,-3577.2368L13969.2735,-3577.2369L13969.2732,-3577.237L13969.2638,-3577.2395L13969.263,-3577.2397L13969.2626,-3577.2398L13969.2434,-3577.2437L13969.2391,-3577.2445L13969.2135,-3577.2497L13969.1916,-3577.2552L13969.1774,-3577.2588L13969.1533,-3577.2648L13969.1396,-3577.2682L13969.1162,-3577.2737"/>
<path content="1,東武バスウエスト,東京ディズニーリゾート（東京ディズニーランド・東京ディズニーシー）・新浦安～小江戸　川越,2.0,2.0,2.0," xlink:title="1" d="M13969.4296,-3577.1484L13969.425,-3577.155L13969.4226,-3577.1573L13969.422,-3577.1579L13969.4177,-3577.1622L13969.397,-3577.1823L13969.3841,-3577.1903L13969.379,-3577.1935L13969.3775,-3577.1945L13969.3744,-3577.1963L13969.3739,-3577.1967L13969.3733,-3577.197L13969.366,-3577.2009L13969.3653,-3577.2013L13969.3643,-3577.2019L13969.3633,-3577.2024L13969.3627,-3577.2027L13969.3623,-3577.203L13969.3614,-3577.2034L13969.343,-3577.2133L13969.3391,-3577.2147L13969.3278,-3577.2189L13969.3222,-3577.221L13969.3182,-3577.2224L13969.3124,-3577.2245L13969.3092,-3577.2257L13969.3073,-3577.2264L13969.3031,-3577.228L13969.3027,-3577.2281L13969.3018,-3577.2285L13969.2949,-3577.231L13969.2942,-3577.2312L13969.2929,-3577.2316L13969.2842,-3577.234L13969.2839,-3577.2341L13969.2766,-3577.2361L13969.2739,-3577.2368L13969.2735,-3577.2369L13969.2732,-3577.237L13969.2638,-3577.2395L13969.263,-3577.2397L13969.2626,-3577.2398L13969.2434,-3577.2437L13969.2391,-3577.2445L13969.2135,-3577.2497L13969.1916,-3577.2552L13969.1774,-3577.2588L13969.1533,-3577.2648L13969.1396,-3577.2682L13969.1162,-3577.2737"/>
<path content="1,西武バス（株）,伊勢・鳥羽線,2.0,2.0,2.0," xlink:title="1" d="M13969.1162,-3577.2737L13969.1396,-3577.2682L13969.1533,-3577.2648L13969.1774,-3577.2588L13969.1916,-3577.2552L13969.2135,-3577.2497L13969.2391,-3577.2445L13969.2434,-3577.2437L13969.2626,-3577.2398L13969.263,-3577.2397L13969.2638,-3577.2395L13969.2732,-3577.237L13969.2735,-3577.2369L13969.2739,-3577.2368L13969.2766,-3577.2361L13969.2839,-3577.2341L13969.2842,-3577.234L13969.2929,-3577.2316L13969.2942,-3577.2312L13969.2949,-3577.231L13969.3018,-3577.2285L13969.3027,-3577.2281L13969.3031,-3577.228L13969.3073,-3577.2264L13969.3092,-3577.2257L13969.3124,-3577.2245L13969.3182,-3577.2224L13969.3222,-3577.221L13969.3278,-3577.2189L13969.3391,-3577.2147L13969.343,-3577.2133L13969.3614,-3577.2034L13969.3623,-3577.203L13969.3627,-3577.2027L13969.3633,-3577.2024L13969.3643,-3577.2019L13969.3653,-3577.2013L13969.366,-3577.2009L13969.3733,-3577.197L13969.3739,-3577.1967L13969.3744,-3577.1963L13969.3775,-3577.1945L13969.379,-3577.1935L13969.3841,-3577.1903L13969.397,-3577.1823L13969.4177,-3577.1622L13969.422,-3577.1579L13969.4226,-3577.1573L13969.425,-3577.155L13969.4296,-3577.1484"/>
<path content="1,西武バス（株）,大宮成田線,2.0,2.0,2.0," xlink:title="1" d="M13969.4296,-3577.1484L13969.425,-3577.155L13969.4226,-3577.1573L13969.422,-3577.1579L13969.4177,-3577.1622L13969.397,-3577.1823L13969.3841,-3577.1903L13969.379,-3577.1935L13969.3775,-3577.1945L13969.3744,-3577.1963L13969.3739,-3577.1967L13969.3733,-3577.197L13969.366,-3577.2009L13969.3653,-3577.2013L13969.3643,-3577.2019L13969.3633,-3577.2024L13969.3627,-3577.2027L13969.3623,-3577.203L13969.3614,-3577.2034L13969.343,-3577.2133L13969.3391,-3577.2147L13969.3278,-3577.2189L13969.3222,-3577.221L13969.3182,-3577.2224L13969.3124,-3577.2245L13969.3092,-3577.2257L13969.3073,-3577.2264L13969.3031,-3577.228L13969.3027,-3577.2281L13969.3018,-3577.2285L13969.2949,-3577.231L13969.2942,-3577.2312L13969.2929,-3577.2316L13969.2842,-3577.234L13969.2839,-3577.2341L13969.2766,-3577.2361L13969.2739,-3577.2368L13969.2735,-3577.2369L13969.2732,-3577.237L13969.2638,-3577.2395L13969.263,-3577.2397L13969.2626,-3577.2398L13969.2434,-3577.2437L13969.2391,-3577.2445L13969.2135,-3577.2497L13969.1916,-3577.2552L13969.1774,-3577.2588L13969.1533,-3577.2648L13969.1396,-3577.2682L13969.1162,-3577.2737"/>
<path content="1,西武バス（株）,大宮羽田線,5.0,5.0,5.0," xlink:title="1" d="M13969.4296,-3577.1484L13969.425,-3577.155L13969.4226,-3577.1573L13969.422,-3577.1579L13969.4177,-3577.1622L13969.397,-3577.1823L13969.3841,-3577.1903L13969.379,-3577.1935L13969.3775,-3577.1945L13969.3744,-3577.1963L13969.3739,-3577.1967L13969.3733,-3577.197L13969.366,-3577.2009L13969.3653,-3577.2013L13969.3643,-3577.2019L13969.3633,-3577.2024L13969.3627,-3577.2027L13969.3623,-3577.203L13969.3614,-3577.2034L13969.343,-3577.2133L13969.3391,-3577.2147L13969.3278,-3577.2189L13969.3222,-3577.221L13969.3182,-3577.2224L13969.3124,-3577.2245L13969.3092,-3577.2257L13969.3073,-3577.2264L13969.3031,-3577.228L13969.3027,-3577.2281L13969.3018,-3577.2285L13969.2949,-3577.231L13969.2942,-3577.2312L13969.2929,-3577.2316L13969.2842,-3577.234L13969.2839,-3577.2341L13969.2766,-3577.2361L13969.2739,-3577.2368L13969.2735,-3577.2369L13969.2732,-3577.237L13969.2638,-3577.2395L13969.263,-3577.2397L13969.2626,-3577.2398L13969.2434,-3577.2437L13969.2391,-3577.2445L13969.2135,-3577.2497L13969.1916,-3577.2552L13969.1774,-3577.2588L13969.1533,-3577.2648L13969.1396,-3577.2682L13969.1162,-3577.2737"/>
<path content="1,西武バス（株）,大泉学園成田線,3.0,3.0,3.0," xlink:title="1" d="M13969.1162,-3577.2737L13969.1396,-3577.2682L13969.1533,-3577.2648L13969.1774,-3577.2588L13969.1916,-3577.2552L13969.2135,-3577.2497L13969.2391,-3577.2445L13969.2434,-3577.2437L13969.2626,-3577.2398L13969.263,-3577.2397L13969.2638,-3577.2395L13969.2732,-3577.237L13969.2735,-3577.2369L13969.2739,-3577.2368L13969.2766,-3577.2361L13969.2839,-3577.2341L13969.2842,-3577.234L13969.2929,-3577.2316L13969.2942,-3577.2312L13969.2949,-3577.231L13969.3018,-3577.2285L13969.3027,-3577.2281L13969.3031,-3577.228L13969.3073,-3577.2264L13969.3092,-3577.2257L13969.3124,-3577.2245L13969.3182,-3577.2224L13969.3222,-3577.221L13969.3278,-3577.2189L13969.3391,-3577.2147L13969.343,-3577.2133L13969.3614,-3577.2034L13969.3623,-3577.203L13969.3627,-3577.2027L13969.3633,-3577.2024L13969.3643,-3577.2019L13969.3653,-3577.2013L13969.366,-3577.2009L13969.3733,-3577.197L13969.3739,-3577.1967L13969.3744,-3577.1963L13969.3775,-3577.1945L13969.379,-3577.1935L13969.3841,-3577.1903L13969.397,-3577.1823L13969.4177,-3577.1622L13969.422,-3577.1579L13969.4226,-3577.1573L13969.425,-3577.155L13969.4296,-3577.1484"/>
<path content="1,西武バス（株）,大泉学園羽田線,5.5,5.5,5.5," xlink:title="1" d="M13969.4296,-3577.1484L13969.425,-3577.155L13969.4226,-3577.1573L13969.422,-3577.1579L13969.4177,-3577.1622L13969.397,-3577.1823L13969.3841,-3577.1903L13969.379,-3577.1935L13969.3775,-3577.1945L13969.3744,-3577.1963L13969.3739,-3577.1967L13969.3733,-3577.197L13969.366,-3577.2009L13969.3653,-3577.2013L13969.3643,-3577.2019L13969.3633,-3577.2024L13969.3627,-3577.2027L13969.3623,-3577.203L13969.3614,-3577.2034L13969.343,-3577.2133L13969.3391,-3577.2147L13969.3278,-3577.2189L13969.3222,-3577.221L13969.3182,-3577.2224L13969.3124,-3577.2245L13969.3092,-3577.2257L13969.3073,-3577.2264L13969.3031,-3577.228L13969.3027,-3577.2281L13969.3018,-3577.2285L13969.2949,-3577.231L13969.2942,-3577.2312L13969.2929,-3577.2316L13969.2842,-3577.234L13969.2839,-3577.2341L13969.2766,-3577.2361L13969.2739,-3577.2368L13969.2735,-3577.2369L13969.2732,-3577.237L13969.2638,-3577.2395L13969.263,-3577.2397L13969.2626,-3577.2398L13969.2434,-3577.2437L13969.2391,-3577.2445L13969.2135,-3577.2497L13969.1916,-3577.2552L13969.1774,-3577.2588L13969.1533,-3577.2648L13969.1396,-3577.2682L13969.1162,-3577.2737"/>
<path content="1,西武観光バス,びわこドリーム号,1.0,1.0,1.0," xlink:title="1" d="M13969.4296,-3577.1484L13969.425,-3577.155L13969.4226,-3577.1573L13969.422,-3577.1579L13969.4177,-3577.1622L13969.397,-3577.1823L13969.3841,-3577.1903L13969.379,-3577.1935L13969.3775,-3577.1945L13969.3744,-3577.1963L13969.3739,-3577.1967L13969.3733,-3577.197L13969.366,-3577.2009L13969.3653,-3577.2013L13969.3643,-3577.2019L13969.3633,-3577.2024L13969.3627,-3577.2027L13969.3623,-3577.203L13969.3614,-3577.2034L13969.343,-3577.2133L13969.3391,-3577.2147L13969.3278,-3577.2189L13969.3222,-3577.221L13969.3182,-3577.2224L13969.3124,-3577.2245L13969.3092,-3577.2257L13969.3073,-3577.2264L13969.3031,-3577.228L13969.3027,-3577.2281L13969.3018,-3577.2285L13969.2949,-3577.231L13969.2942,-3577.2312L13969.2929,-3577.2316L13969.2842,-3577.234L13969.2839,-3577.2341L13969.2766,-3577.2361L13969.2739,-3577.2368L13969.2735,-3577.2369L13969.2732,-3577.237L13969.2638,-3577.2395L13969.263,-3577.2397L13969.2626,-3577.2398L13969.2434,-3577.2437L13969.2391,-3577.2445L13969.2135,-3577.2497L13969.1916,-3577.2552L13969.1774,-3577.2588L13969.1533,-3577.2648L13969.1396,-3577.2682L13969.1162,-3577.2737"/>
<path content="1,西武観光バス,大宮・池袋・横浜～南紀勝浦線,1.0,1.0,1.0," xlink:title="1" d="M13969.4296,-3577.1484L13969.425,-3577.155L13969.4226,-3577.1573L13969.422,-3577.1579L13969.4177,-3577.1622L13969.397,-3577.1823L13969.3841,-3577.1903L13969.379,-3577.1935L13969.3775,-3577.1945L13969.3744,-3577.1963L13969.3739,-3577.1967L13969.3733,-3577.197L13969.366,-3577.2009L13969.3653,-3577.2013L13969.3643,-3577.2019L13969.3633,-3577.2024L13969.3627,-3577.2027L13969.3623,-3577.203L13969.3614,-3577.2034L13969.343,-3577.2133L13969.3391,-3577.2147L13969.3278,-3577.2189L13969.3222,-3577.221L13969.3182,-3577.2224L13969.3124,-3577.2245L13969.3092,-3577.2257L13969.3073,-3577.2264L13969.3031,-3577.228L13969.3027,-3577.2281L13969.3018,-3577.2285L13969.2949,-3577.231L13969.2942,-3577.2312L13969.2929,-3577.2316L13969.2842,-3577.234L13969.2839,-3577.2341L13969.2766,-3577.2361L13969.2739,-3577.2368L13969.2735,-3577.2369L13969.2732,-3577.237L13969.2638,-3577.2395L13969.263,-3577.2397L13969.2626,-3577.2398L13969.2434,-3577.2437L13969.2391,-3577.2445L13969.2135,-3577.2497L13969.1916,-3577.2552L13969.1774,-3577.2588L13969.1533,-3577.2648L13969.1396,-3577.2682L13969.1162,-3577.2737"/>
<path content="1,西武観光バス,宇和島線,1.0,1.0,1.0," xlink:title="1" d="M13969.4296,-3577.1484L13969.425,-3577.155L13969.4226,-3577.1573L13969.422,-3577.1579L13969.4177,-3577.1622L13969.397,-3577.1823L13969.3841,-3577.1903L13969.379,-3577.1935L13969.3775,-3577.1945L13969.3744,-3577.1963L13969.3739,-3577.1967L13969.3733,-3577.197L13969.366,-3577.2009L13969.3653,-3577.2013L13969.3643,-3577.2019L13969.3633,-3577.2024L13969.3627,-3577.2027L13969.3623,-3577.203L13969.3614,-3577.2034L13969.343,-3577.2133L13969.3391,-3577.2147L13969.3278,-3577.2189L13969.3222,-3577.221L13969.3182,-3577.2224L13969.3124,-3577.2245L13969.3092,-3577.2257L13969.3073,-3577.2264L13969.3031,-3577.228L13969.3027,-3577.2281L13969.3018,-3577.2285L13969.2949,-3577.231L13969.2942,-3577.2312L13969.2929,-3577.2316L13969.2842,-3577.234L13969.2839,-3577.2341L13969.2766,-3577.2361L13969.2739,-3577.2368L13969.2735,-3577.2369L13969.2732,-3577.237L13969.2638,-3577.2395L13969.263,-3577.2397L13969.2626,-3577.2398L13969.2434,-3577.2437L13969.2391,-3577.2445L13969.2135,-3577.2497L13969.1916,-3577.2552L13969.1774,-3577.2588L13969.1533,-3577.2648L13969.1396,-3577.2682L13969.1162,-3577.2737"/>
<path content="1,関越交通（株）,アザレア号,14.0,14.0,14.0," xlink:title="1" d="M13969.4296,-3577.1484L13969.425,-3577.155L13969.4226,-3577.1573L13969.422,-3577.1579L13969.4177,-3577.1622L13969.397,-3577.1823L13969.3841,-3577.1903L13969.379,-3577.1935L13969.3775,-3577.1945L13969.3744,-3577.1963L13969.3739,-3577.1967L13969.3733,-3577.197L13969.366,-3577.2009L13969.3653,-3577.2013L13969.3643,-3577.2019L13969.3633,-3577.2024L13969.3627,-3577.2027L13969.3623,-3577.203L13969.3614,-3577.2034L13969.343,-3577.2133L13969.3391,-3577.2147L13969.3278,-3577.2189L13969.3222,-3577.221L13969.3182,-3577.2224L13969.3124,-3577.2245L13969.3092,-3577.2257L13969.3073,-3577.2264L13969.3031,-3577.228L13969.3027,-3577.2281L13969.3018,-3577.2285L13969.2949,-3577.231L13969.2942,-3577.2312L13969.2929,-3577.2316L13969.2842,-3577.234L13969.2839,-3577.2341L13969.2766,-3577.2361L13969.2739,-3577.2368L13969.2735,-3577.2369L13969.2732,-3577.237L13969.2638,-3577.2395L13969.263,-3577.2397L13969.2626,-3577.2398L13969.2434,-3577.2437L13969.2391,-3577.2445L13969.2135,-3577.2497L13969.1916,-3577.2552L13969.1774,-3577.2588L13969.1533,-3577.2648L13969.1396,-3577.2682L13969.1162,-3577.2737"/>
<path content="1,関越交通（株）,四万温泉号,1.4,1.4,1.4," xlink:title="1" d="M13969.4296,-3577.1484L13969.425,-3577.155L13969.4226,-3577.1573L13969.422,-3577.1579L13969.4177,-3577.1622L13969.397,-3577.1823L13969.3841,-3577.1903L13969.379,-3577.1935L13969.3775,-3577.1945L13969.3744,-3577.1963L13969.3739,-3577.1967L13969.3733,-3577.197L13969.366,-3577.2009L13969.3653,-3577.2013L13969.3643,-3577.2019L13969.3633,-3577.2024L13969.3627,-3577.2027L13969.3623,-3577.203L13969.3614,-3577.2034L13969.343,-3577.2133L13969.3391,-3577.2147L13969.3278,-3577.2189L13969.3222,-3577.221L13969.3182,-3577.2224L13969.3124,-3577.2245L13969.3092,-3577.2257L13969.3073,-3577.2264L13969.3031,-3577.228L13969.3027,-3577.2281L13969.3018,-3577.2285L13969.2949,-3577.231L13969.2942,-3577.2312L13969.2929,-3577.2316L13969.2842,-3577.234L13969.2839,-3577.2341L13969.2766,-3577.2361L13969.2739,-3577.2368L13969.2735,-3577.2369L13969.2732,-3577.237L13969.2638,-3577.2395L13969.263,-3577.2397L13969.2626,-3577.2398L13969.2434,-3577.2437L13969.2391,-3577.2445L13969.2135,-3577.2497L13969.1916,-3577.2552L13969.1774,-3577.2588L13969.1533,-3577.2648L13969.1396,-3577.2682L13969.1162,-3577.2737"/>
<path content="1,関越交通（株）,富士急ハイランド線,999.9,999.9,999.9," xlink:title="1" d="M13969.4296,-3577.1484L13969.425,-3577.155L13969.4226,-3577.1573L13969.422,-3577.1579L13969.4177,-3577.1622L13969.397,-3577.1823L13969.3841,-3577.1903L13969.379,-3577.1935L13969.3775,-3577.1945L13969.3744,-3577.1963L13969.3739,-3577.1967L13969.3733,-3577.197L13969.366,-3577.2009L13969.3653,-3577.2013L13969.3643,-3577.2019L13969.3633,-3577.2024L13969.3627,-3577.2027L13969.3623,-3577.203L13969.3614,-3577.2034L13969.343,-3577.2133L13969.3391,-3577.2147L13969.3278,-3577.2189L13969.3222,-3577.221L13969.3182,-3577.2224L13969.3124,-3577.2245L13969.3092,-3577.2257L13969.3073,-3577.2264L13969.3031,-3577.228L13969.3027,-3577.2281L13969.3018,-3577.2285L13969.2949,-3577.231L13969.2942,-3577.2312L13969.2929,-3577.2316L13969.2842,-3577.234L13969.2839,-3577.2341L13969.2766,-3577.2361L13969.2739,-3577.2368L13969.2735,-3577.2369L13969.2732,-3577.237L13969.2638,-3577.2395L13969.263,-3577.2397L13969.2626,-3577.2398L13969.2434,-3577.2437L13969.2391,-3577.2445L13969.2135,-3577.2497L13969.1916,-3577.2552L13969.1774,-3577.2588L13969.1533,-3577.2648L13969.1396,-3577.2682L13969.1162,-3577.2737"/>
<path content="1,関越交通（株）,尾瀬号,1.3,1.3,1.3," xlink:title="1" d="M13969.4296,-3577.1484L13969.425,-3577.155L13969.4226,-3577.1573L13969.422,-3577.1579L13969.4177,-3577.1622L13969.397,-3577.1823L13969.3841,-3577.1903L13969.379,-3577.1935L13969.3775,-3577.1945L13969.3744,-3577.1963L13969.3739,-3577.1967L13969.3733,-3577.197L13969.366,-3577.2009L13969.3653,-3577.2013L13969.3643,-3577.2019L13969.3633,-3577.2024L13969.3627,-3577.2027L13969.3623,-3577.203L13969.3614,-3577.2034L13969.343,-3577.2133L13969.3391,-3577.2147L13969.3278,-3577.2189L13969.3222,-3577.221L13969.3182,-3577.2224L13969.3124,-3577.2245L13969.3092,-3577.2257L13969.3073,-3577.2264L13969.3031,-3577.228L13969.3027,-3577.2281L13969.3018,-3577.2285L13969.2949,-3577.231L13969.2942,-3577.2312L13969.2929,-3577.2316L13969.2842,-3577.234L13969.2839,-3577.2341L13969.2766,-3577.2361L13969.2739,-3577.2368L13969.2735,-3577.2369L13969.2732,-3577.237L13969.2638,-3577.2395L13969.263,-3577.2397L13969.2626,-3577.2398L13969.2434,-3577.2437L13969.2391,-3577.2445L13969.2135,-3577.2497L13969.1916,-3577.2552L13969.1774,-3577.2588L13969.1533,-3577.2648L13969.1396,-3577.2682L13969.1162,-3577.2737"/>
</g>
</svg>
