<?xml version="1.0" encoding="UTF-8"?>
<svg  xmlns="http://www.w3.org/2000/svg" xmlns:xlink="http://www.w3.org/1999/xlink" xmlns:go="http://purl.org/svgmap/profile" property="N07_001,N07_002,N07_003,N07_004,N07_005,N07_006,N07_007" viewBox="13117.67578125 -3278.3203125 4.39453125 4.39453125" go:dataArea="13117.67578125 -3278.3203125 4.39453125 4.39453125" >
<metadata>
 <rdf:RDF xmlns:rdf="http://www.w3.org/1999/02/22-rdf-syntax-ns#" xmlns:crs="http://opengis.org/xmldtds/transformations.dtd" xmlns:svg="http://www.w3.org/svg" >
  <rdf:Description>
   <crs:CoordinateReferenceSystem rdf:resource="http://purl.org/crs/84" svg:transform="matrix(100.0,0.0,0.0,-100.0,0.0,0.0)" />
  </rdf:Description>
 </rdf:RDF>
</metadata>
<globalCoordinateSystem srsName="http://purl.org/crs/84" transform="matrix(100.0,0.0,0.0,-100.0,0.0,0.0)" />
<defs>
 <g id="p0" >
  <circle cx="0.0" cy="0.0" r="3" stroke="green" stroke-width="0.75" vector-effect="non-scaling-stroke" />
 </g>
</defs>
<g fill="none" fill-rule="evenodd" stroke="#FF00FF" stroke-width="0.75" opacity="0.5" vector-effect="non-scaling-stroke" stroke-linejoin="bevel" >
<path content="1,九州産交バス（株）,熊本⇔延岡,2.0,2.0,2.0," xlink:title="1" d="M13117.6758,-3274.2779L13117.8656,-3274.7094L13117.8715,-3274.7227L13117.8869,-3274.7531L13117.8964,-3274.7762L13117.9063,-3274.797L13117.9133,-3274.8142L13117.9152,-3274.8266L13117.9136,-3274.8381L13117.9066,-3274.8534L13117.8893,-3274.8843L13117.869,-3274.9153L13117.8496,-3274.9452L13117.8345,-3274.9688L13117.8198,-3274.9977L13117.8053,-3275.026L13117.7967,-3275.0439L13117.7878,-3275.0653L13117.7779,-3275.0879L13117.7696,-3275.1092L13117.7616,-3275.1318L13117.7524,-3275.1557L13117.745,-3275.1773L13117.7336,-3275.2108L13117.725,-3275.2417L13117.7191,-3275.2618L13117.7114,-3275.2844L13117.7019,-3275.3197L13117.6973,-3275.3384L13117.692,-3275.3631L13117.6905,-3275.3941L13117.6877,-3275.4286L13117.6825,-3275.4492L13117.6758,-3275.4699"/>
<path content="1,宮崎交通（株）,延岡-熊本,1.0,1.0,1.0," xlink:title="1" d="M13117.6758,-3274.2779L13117.8656,-3274.7094L13117.8715,-3274.7227L13117.8869,-3274.7531L13117.8964,-3274.7762L13117.9063,-3274.797L13117.9133,-3274.8142L13117.9152,-3274.8266L13117.9136,-3274.8381L13117.9066,-3274.8534L13117.8893,-3274.8843L13117.869,-3274.9153L13117.8496,-3274.9452L13117.8345,-3274.9688L13117.8198,-3274.9977L13117.8053,-3275.026L13117.7967,-3275.0439L13117.7878,-3275.0653L13117.7779,-3275.0879L13117.7696,-3275.1092L13117.7616,-3275.1318L13117.7524,-3275.1557L13117.745,-3275.1773L13117.7336,-3275.2108L13117.725,-3275.2417L13117.7191,-3275.2618L13117.7114,-3275.2844L13117.7019,-3275.3197L13117.6973,-3275.3384L13117.692,-3275.3631L13117.6905,-3275.3941L13117.6877,-3275.4286L13117.6825,-3275.4492L13117.6758,-3275.4703"/>
<path content="3,山都町,上差尾線,1.0,0.0,0.0," xlink:title="3" d="M13117.8933,-3274.2163L13117.9072,-3274.2122L13117.9201,-3274.2072L13117.9346,-3274.2031L13117.9457,-3274.2L13117.9558,-3274.1984L13117.9669,-3274.1974L13117.9807,-3274.1968L13117.9946,-3274.1976L13117.9889,-3274.2066"/>
<path content="3,山都町,上差尾線,1.0,0.0,0.0," xlink:title="3" d="M13117.8933,-3274.2163L13117.8973,-3274.2267L13117.9004,-3274.2364L13117.9004,-3274.2536L13117.8985,-3274.2636L13117.8979,-3274.271L13117.8979,-3274.2789L13117.8992,-3274.2844L13117.9023,-3274.2889L13117.8983,-3274.2971"/>
<path content="3,山都町,上差尾線,1.0,0.0,0.0," xlink:title="3" d="M13117.6758,-3274.2335L13117.6908,-3274.2296L13117.7028,-3274.2291L13117.7194,-3274.2319L13117.7496,-3274.2397L13117.7711,-3274.2454L13117.7872,-3274.2493L13117.8016,-3274.2517L13117.8108,-3274.2512L13117.8241,-3274.2475L13117.8558,-3274.2343L13117.8933,-3274.2163"/>
<path content="3,山都町,下山線,1.4,1.0,0.0," xlink:title="3" d="M13117.6758,-3274.2335L13117.6908,-3274.2296L13117.7028,-3274.2291L13117.7194,-3274.2319L13117.7496,-3274.2397L13117.7711,-3274.2454L13117.7872,-3274.2493L13117.8016,-3274.2517L13117.8108,-3274.2512L13117.8241,-3274.2475L13117.8558,-3274.2343L13117.8933,-3274.2163L13117.9072,-3274.2122L13117.9201,-3274.2072L13117.9346,-3274.2031L13117.9457,-3274.2L13117.9558,-3274.1984L13117.9669,-3274.1974L13117.9807,-3274.1968L13117.9946,-3274.1976"/>
<path content="3,山都町,下山線,1.4,1.0,0.0," xlink:title="3" d="M13117.9946,-3274.1976L13117.9889,-3274.2066"/>
<path content="3,山都町,下山線,1.4,1.0,0.0," xlink:title="3" d="M13117.9946,-3274.1976L13118.0075,-3274.2L13118.0232,-3274.2031L13118.0386,-3274.2062L13118.0549,-3274.2106L13118.0749,-3274.2161L13118.0903,-3274.2197L13118.1045,-3274.2226L13118.1174,-3274.2254L13118.134,-3274.233L13118.1479,-3274.2402L13118.1583,-3274.2473L13118.1706,-3274.2556L13118.1829,-3274.2629L13118.1928,-3274.2683L13118.202,-3274.272L13118.2156,-3274.2743L13118.2537,-3274.2753L13118.2956,-3274.2774L13118.3501,-3274.2779"/>
<path content="3,山都町,下山線,1.4,1.0,0.0," xlink:title="3" d="M13118.3501,-3274.2779L13118.3504,-3274.3013L13118.351,-3274.3193L13118.3531,-3274.3394"/>
<path content="3,山都町,下山線,1.4,1.0,0.0," xlink:title="3" d="M13118.3501,-3274.2779L13118.3672,-3274.2791L13118.3953,-3274.2799L13118.4334,-3274.2813L13118.4802,-3274.2817L13118.5056,-3274.2824L13118.5139,-3274.2824L13118.5219,-3274.2834L13118.5261,-3274.2871L13118.5396,-3274.2937L13118.5524,-3274.2998L13118.5669,-3274.3076L13118.5721,-3274.3131L13118.5743,-3274.3231L13118.5704,-3274.3438L13118.5686,-3274.3605L13118.5647,-3274.3801L13118.5603,-3274.4056L13118.559,-3274.4196L13118.5612,-3274.4333L13118.566,-3274.444L13118.5743,-3274.4525L13118.5875,-3274.4603L13118.6045,-3274.4681L13118.6251,-3274.4758L13118.6426,-3274.4825L13118.6558,-3274.4858L13118.6658,-3274.4862L13118.6746,-3274.4825L13118.6816,-3274.4781L13118.6877,-3274.4688L13118.7013,-3274.4414L13118.7162,-3274.4104L13118.7293,-3274.3852L13118.7372,-3274.3712L13118.7438,-3274.3631L13118.756,-3274.3568L13118.777,-3274.3505L13118.8134,-3274.3412L13118.8602,-3274.3261L13118.8734,-3274.3227L13118.8839,-3274.3224L13118.8953,-3274.3235L13118.9031,-3274.3257L13118.908,-3274.3324L13118.9088,-3274.3453L13118.9088,-3274.3605L13118.9106,-3274.3675L13118.9163,-3274.373L13118.9277,-3274.3808L13118.9443,-3274.39L13118.9574,-3274.3937L13118.9684,-3274.3937L13118.9828,-3274.3915L13118.9955,-3274.3875L13119.013,-3274.3764L13119.0279,-3274.3664L13119.0397,-3274.3608L13119.0643,-3274.3586L13119.079,-3274.3571L13119.0937,-3274.3534L13119.1084,-3274.3479L13119.1222,-3274.3431L13119.132,-3274.3383L13119.1399,-3274.3338L13119.1478,-3274.3272L13119.1572,-3274.3179L13119.1648,-3274.3091L13119.1714,-3274.3035L13119.1797,-3274.3006L13119.1889,-3274.3002L13119.1968,-3274.3004L13119.2042,-3274.3009L13119.2145,-3274.3043L13119.2285,-3274.3115L13119.2419,-3274.3187L13119.2568,-3274.3264L13119.2704,-3274.3353L13119.28,-3274.3403L13119.289,-3274.3447L13119.2986,-3274.3472L13119.3069,-3274.3466L13119.3122,-3274.3444L13119.3172,-3274.3388L13119.3203,-3274.3311L13119.321,-3274.322L13119.3188,-3274.3113L13119.3132,-3274.3009L13119.3083,-3274.2902L13119.3097,-3274.2821L13119.3167,-3274.275L13119.3403,-3274.2562L13119.3543,-3274.2503L13119.3596,-3274.2503L13119.3679,-3274.2529L13119.3828,-3274.264L13119.3928,-3274.2736L13119.4099,-3274.2832L13119.4209,-3274.2891L13119.4252,-3274.2958L13119.4305,-3274.3117L13119.4349,-3274.3253L13119.4375,-3274.3342L13119.4427,-3274.3416L13119.4511,-3274.3497L13119.4681,-3274.3508L13119.4922,-3274.3497L13119.5049,-3274.3497L13119.5163,-3274.3501L13119.5308,-3274.3571L13119.5491,-3274.3682L13119.5706,-3274.3778L13119.5942,-3274.3849L13119.6078,-3274.39L13119.6258,-3274.3986L13119.6476,-3274.4115L13119.67,-3274.4244L13119.6805,-3274.4285L13119.6914,-3274.4322L13119.7006,-3274.434L13119.7116,-3274.4337L13119.7243,-3274.4307L13119.7435,-3274.4244L13119.7532,-3274.423L13119.7632,-3274.4244L13119.7689,-3274.4259L13119.7742,-3274.4307L13119.7702,-3274.4548L13119.7685,-3274.4707L13119.7698,-3274.4814L13119.7733,-3274.4888L13119.7803,-3274.4954L13119.7913,-3274.4988L13119.8083,-3274.501L13119.8265,-3274.503L13119.8374,-3274.506L13119.8475,-3274.5097L13119.8571,-3274.5167L13119.8641,-3274.5248L13119.8716,-3274.5363L13119.8782,-3274.5485L13119.8847,-3274.5563L13119.8922,-3274.5614L13119.9018,-3274.564L13119.9119,-3274.5633L13119.9215,-3274.5588L13119.9368,-3274.5474L13119.95,-3274.5356L13119.9609,-3274.5274L13119.9683,-3274.523L13119.9784,-3274.5185L13119.9959,-3274.5182L13120.0069,-3274.5193L13120.0213,-3274.523L13120.0353,-3274.5263L13120.0463,-3274.527L13120.0559,-3274.5252L13120.0743,-3274.5182L13120.0949,-3274.5093L13120.1098,-3274.5034L13120.1216,-3274.5004L13120.1356,-3274.4986L13120.1544,-3274.4967L13120.1627,-3274.4952L13120.1785,-3274.4897L13120.1938,-3274.4823L13120.2091,-3274.4745L13120.2188,-3274.4708L13120.2275,-3274.469L13120.2367,-3274.4686L13120.2459,-3274.4712L13120.2612,-3274.4808L13120.2798,-3274.4982L13120.2938,-3274.5147L13120.3072,-3274.5267L13120.3177,-3274.5357L13120.3273,-3274.5433"/>
<path content="3,山都町,下山線,1.4,1.0,0.0," xlink:title="3" d="M13118.3531,-3274.3394L13118.342,-3274.341"/>
<path content="3,山都町,下山線,1.4,1.0,0.0," xlink:title="3" d="M13118.3531,-3274.3394L13118.3555,-3274.3503L13118.3568,-3274.3551L13118.3605,-3274.3674L13118.3645,-3274.377L13118.3692,-3274.3871L13118.3735,-3274.398L13118.3793,-3274.4108L13118.3842,-3274.4217L13118.3882,-3274.4303L13118.3929,-3274.4412L13118.3965,-3274.4472L13118.4036,-3274.4562L13118.4079,-3274.4635L13118.4098,-3274.4687L13118.4092,-3274.4744L13118.4055,-3274.4817L13118.3959,-3274.4932L13118.3827,-3274.5088L13118.3744,-3274.5173L13118.3673,-3274.5264L13118.3618,-3274.5316L13118.3547,-3274.5347L13118.3461,-3274.5368L13118.3335,-3274.5379L13118.3242,-3274.5394L13118.315,-3274.5425L13118.3045,-3274.5467L13118.297,-3274.5514L13118.2841,-3274.5597L13118.2736,-3274.5685L13118.2631,-3274.5789L13118.252,-3274.5893L13118.2428,-3274.6015L13118.2347,-3274.6099L13118.225,-3274.6203L13118.2157,-3274.6268L13118.2022,-3274.6351L13118.188,-3274.6418L13118.1726,-3274.6486L13118.1574,-3274.6559L13118.1476,-3274.6587L13118.1399,-3274.6587L13118.122,-3274.6561L13118.1051,-3274.6533L13118.0893,-3274.652L13118.0792,-3274.6494L13118.0669,-3274.6494L13118.058,-3274.6499L13118.0497,-3274.6525L13118.0398,-3274.6572L13118.026,-3274.665L13118.0081,-3274.6764L13117.9977,-3274.6821L13117.986,-3274.6884L13117.9746,-3274.6936L13117.9647,-3274.6975L13117.953,-3274.7006L13117.9337,-3274.7027L13117.8656,-3274.7094L13117.8715,-3274.7227L13117.8869,-3274.7531L13117.8964,-3274.7762L13117.9063,-3274.797L13117.9133,-3274.8142L13117.9152,-3274.8266L13117.9136,-3274.8381L13117.9066,-3274.8534L13117.8893,-3274.8843L13117.869,-3274.9153L13117.8496,-3274.9452L13117.8345,-3274.9688L13117.8198,-3274.9977L13117.8053,-3275.026L13117.7967,-3275.0439L13117.7878,-3275.0653L13117.7779,-3275.0879L13117.7696,-3275.1092L13117.7616,-3275.1318L13117.7524,-3275.1557L13117.745,-3275.1773L13117.7336,-3275.2108L13117.725,-3275.2417L13117.7191,-3275.2618L13117.7114,-3275.2844L13117.7019,-3275.3197L13117.6973,-3275.3384L13117.692,-3275.3631L13117.6905,-3275.3941L13117.6877,-3275.4286L13117.6825,-3275.4492L13117.6758,-3275.4699M13117.6758,-3276.9763L13117.6776,-3276.9774L13117.6971,-3276.9905L13117.7249,-3277.0059L13117.7538,-3277.0221L13117.7662,-3277.0292L13117.7756,-3277.0343L13117.7835,-3277.0384L13117.7868,-3277.0419L13117.7879,-3277.0578L13117.7862,-3277.0872L13117.7833,-3277.1136L13117.7824,-3277.131L13117.7831,-3277.1358L13117.7851,-3277.1406L13117.7907,-3277.1484L13117.8008,-3277.1521L13117.8078,-3277.1527L13117.8153,-3277.1523L13117.8218,-3277.1508L13117.8264,-3277.1475L13117.8302,-3277.1418L13117.8341,-3277.1268L13117.8376,-3277.1092L13117.84,-3277.1005L13117.8435,-3277.0944L13117.8468,-3277.0905L13117.852,-3277.0896L13117.8634,-3277.0929L13117.8753,-3277.0979L13117.8952,-3277.1103L13117.9201,-3277.124L13117.9403,-3277.1345L13117.9519,-3277.141L13117.9613,-3277.1482L13117.9696,-3277.1541L13117.9757,-3277.1595L13117.9797,-3277.165L13117.9797,-3277.1846L13117.9792,-3277.2061L13117.9795,-3277.2209L13117.9816,-3277.2261L13117.9869,-3277.2314L13117.9904,-3277.2327L13117.9961,-3277.232L13118.002,-3277.2288L13118.0088,-3277.2231L13118.014,-3277.2146L13118.0175,-3277.2083L13118.0206,-3277.2042L13118.0241,-3277.2031L13118.0294,-3277.2044L13118.0344,-3277.2087L13118.0403,-3277.2209L13118.0445,-3277.2335L13118.0478,-3277.2381L13118.0545,-3277.2397L13118.0802,-3277.2377L13118.09,-3277.2386L13118.095,-3277.2401L13118.0968,-3277.2433L13118.0946,-3277.258L13118.0856,-3277.2793L13118.0797,-3277.2921L13118.0771,-3277.3041L13118.0731,-3277.3137L13118.0694,-3277.3196L13118.0622,-3277.3281L13118.0493,-3277.3422L13118.0423,-3277.3498L13118.0383,-3277.3555L13118.0335,-3277.3666L13118.0289,-3277.3825L13118.0252,-3277.3912L13118.0215,-3277.398L13118.0197,-3277.4056L13118.0204,-3277.4113L13118.0239,-3277.4152L13118.0296,-3277.4161L13118.0353,-3277.4145L13118.0493,-3277.4056L13118.064,-3277.3952L13118.0729,-3277.3899L13118.083,-3277.3803L13118.1029,-3277.3575L13118.1196,-3277.3394L13118.1379,-3277.3211L13118.1441,-3277.3152L13118.1495,-3277.3139L13118.1576,-3277.3126L13118.1649,-3277.3126L13118.1732,-3277.3143L13118.1863,-3277.3167L13118.1997,-3277.3181L13118.2165,-3277.3181L13118.2336,-3277.3165L13118.2527,-3277.3154L13118.278,-3277.3161L13118.2925,-3277.3168L13118.2982,-3277.3178L13118.3026,-3277.3204L13118.3045,-3277.3265L13118.3065,-3277.3435L13118.3104,-3277.3547L13118.3164,-3277.3594L13118.3264,-3277.3631L13118.3389,-3277.3657L13118.3531,-3277.3675L13118.3619,-3277.371L13118.3619,-3277.3771L13118.3567,-3277.385L13118.3338,-3277.4023L13118.3057,-3277.4134L13118.2834,-3277.4211L13118.2698,-3277.4281L13118.2571,-3277.4363L13118.2466,-3277.4507L13118.2335,-3277.4936L13118.2204,-3277.535L13118.216,-3277.5557L13118.2134,-3277.5676L13118.2134,-3277.5831L13118.2186,-3277.5957L13118.2278,-3277.6056L13118.244,-3277.6193L13118.2685,-3277.636L13118.2939,-3277.653L13118.3022,-3277.6604L13118.3071,-3277.6696L13118.3057,-3277.6859L13118.2987,-3277.7103L13118.287,-3277.7417L13118.2733,-3277.7872"/>
<path content="3,山都町,下山線,1.4,1.0,0.0," xlink:title="3" d="M13120.3273,-3274.5433L13120.3228,-3274.5489"/>
<path content="3,山都町,下山線,1.4,1.0,0.0," xlink:title="3" d="M13120.3273,-3274.5433L13120.3387,-3274.5511"/>
<path content="3,山都町,下山線,1.4,1.0,0.0," xlink:title="3" d="M13120.3387,-3274.5511L13120.3466,-3274.5699L13120.3501,-3274.5777L13120.3528,-3274.5873L13120.3549,-3274.5966L13120.3545,-3274.6091"/>
<path content="3,山都町,下山線,1.4,1.0,0.0," xlink:title="3" d="M13120.3387,-3274.5511L13120.3492,-3274.554L13120.3852,-3274.5548L13120.4451,-3274.5563L13120.4749,-3274.557L13120.4955,-3274.5577L13120.5077,-3274.5559L13120.5209,-3274.5537L13120.541,-3274.5466L13120.5594,-3274.5352L13120.5738,-3274.5248L13120.5809,-3274.5174L13120.587,-3274.5111L13120.5949,-3274.5034L13120.6019,-3274.4975L13120.6207,-3274.4882L13120.6351,-3274.4827L13120.6509,-3274.4738L13120.6636,-3274.4664L13120.6719,-3274.4612L13120.6872,-3274.4594L13120.6991,-3274.4579L13120.7096,-3274.4546L13120.7201,-3274.4516L13120.7328,-3274.4472L13120.7407,-3274.4442L13120.7512,-3274.4438L13120.7696,-3274.4435L13120.7971,-3274.4464L13120.8387,-3274.4501L13120.872,-3274.4549L13120.8865,-3274.4594L13120.9075,-3274.4657L13120.9193,-3274.4701L13120.9329,-3274.4731L13120.9512,-3274.4734L13120.9828,-3274.4738L13120.995,-3274.4764L13121.0073,-3274.4816L13121.0195,-3274.4949L13121.0296,-3274.5093L13121.0493,-3274.5474L13121.0633,-3274.5821L13121.073,-3274.5995L13121.0791,-3274.6073L13121.0909,-3274.6128L13121.1032,-3274.6165L13121.129,-3274.6188L13121.1877,-3274.6191L13121.2126,-3274.6195L13121.2249,-3274.621L13121.2363,-3274.6247L13121.245,-3274.6295L13121.2525,-3274.635L13121.2612,-3274.6465L13121.2717,-3274.6602L13121.2818,-3274.6742L13121.2884,-3274.6816L13121.2993,-3274.6886L13121.3116,-3274.6935L13121.3256,-3274.6986L13121.3444,-3274.7031L13121.3571,-3274.7068L13121.3702,-3274.7119L13121.3816,-3274.7171L13121.3948,-3274.7264L13121.4031,-3274.7352L13121.4145,-3274.7452L13121.421,-3274.7508L13121.4293,-3274.7571L13121.4377,-3274.7596L13121.4504,-3274.7626L13121.4644,-3274.763L13121.4793,-3274.7615L13121.4898,-3274.7622L13121.4976,-3274.7641L13121.5095,-3274.773L13121.5233,-3274.7846L13121.5362,-3274.7974L13121.5497,-3274.8099L13121.5594,-3274.8184L13121.5708,-3274.8288L13121.5808,-3274.8362L13121.5931,-3274.8428L13121.6023,-3274.8484L13121.6145,-3274.8569L13121.6334,-3274.8743L13121.6504,-3274.8931"/>
<path content="3,山都町,下山線,1.4,1.0,0.0," xlink:title="3" d="M13120.3545,-3274.6091L13120.3611,-3274.6121L13120.3738,-3274.6158L13120.3843,-3274.6162L13120.3974,-3274.6162L13120.3983,-3274.6302L13120.4035,-3274.6417L13120.4119,-3274.658L13120.4189,-3274.6657L13120.4254,-3274.672L13120.446,-3274.6824L13120.467,-3274.692L13120.4797,-3274.6982"/>
<path content="3,山都町,下山線,1.4,1.0,0.0," xlink:title="3" d="M13120.3545,-3274.6091L13120.3506,-3274.6284L13120.3488,-3274.6398L13120.3479,-3274.6506L13120.3484,-3274.6757L13120.3492,-3274.6931L13120.3492,-3274.7049L13120.3466,-3274.7171L13120.3414,-3274.7286L13120.3309,-3274.7386L13120.319,-3274.7508L13120.312,-3274.7619L13120.3098,-3274.773L13120.309,-3274.7926L13120.3116,-3274.8062L13120.3112,-3274.8214L13120.3077,-3274.8303L13120.3002,-3274.8406L13120.288,-3274.8539L13120.2831,-3274.8613L13120.2818,-3274.8669L13120.2862,-3274.8739L13120.2928,-3274.878L13120.3046,-3274.8806L13120.3173,-3274.8839L13120.3243,-3274.8872L13120.3282,-3274.8935L13120.3269,-3274.9087L13120.3239,-3274.9179L13120.3155,-3274.9297L13120.3011,-3274.946L13120.2897,-3274.9608L13120.2849,-3274.9785L13120.2757,-3275.0104L13120.2704,-3275.0299L13120.2612,-3275.0525L13120.2547,-3275.0717L13120.2503,-3275.0887L13120.2481,-3275.0995L13120.2499,-3275.1128L13120.2525,-3275.1231L13120.2551,-3275.135L13120.2617,-3275.1472L13120.2674,-3275.1575L13120.2735,-3275.1642L13120.2823,-3275.1719L13120.2923,-3275.179L13120.3059,-3275.186L13120.3125,-3275.1923L13120.3221,-3275.2026L13120.3287,-3275.2145L13120.3339,-3275.2237L13120.3357,-3275.2293L13120.3361,-3275.24L13120.3366,-3275.2581L13120.3409,-3275.2696L13120.3449,-3275.2784L13120.3536,-3275.2877L13120.365,-3275.2969L13120.3764,-3275.3047L13120.3961,-3275.3128L13120.4097,-3275.3173L13120.4224,-3275.3199L13120.4364,-3275.3213L13120.4591,-3275.3206L13120.4775,-3275.3199L13120.4964,-3275.3158L13120.5196,-3275.308L13120.5388,-3275.304L13120.5572,-3275.3021L13120.5865,-3275.3025L13120.5984,-3275.3043L13120.6185,-3275.3091L13120.6369,-3275.315L13120.6605,-3275.3243L13120.6745,-3275.3354L13120.689,-3275.3465L13120.6956,-3275.3591L13120.6978,-3275.369L13120.6973,-3275.3849L13120.6982,-3275.3945L13120.7026,-3275.4023L13120.7126,-3275.4164L13120.7231,-3275.4312L13120.7231,-3275.4404L13120.7166,-3275.4578L13120.6995,-3275.4888L13120.6929,-3275.4977L13120.6942,-3275.5051L13120.6995,-3275.5099L13120.7069,-3275.5177L13120.7056,-3275.5218L13120.7034,-3275.5229L13120.6986,-3275.5225L13120.6912,-3275.5232L13120.689,-3275.5247L13120.6903,-3275.5295L13120.6947,-3275.5325L13120.6995,-3275.5365L13120.6995,-3275.5391L13120.6969,-3275.541L13120.6855,-3275.5417L13120.6728,-3275.5406L13120.6675,-3275.5402L13120.6605,-3275.5454L13120.6562,-3275.555L13120.6592,-3275.5643L13120.6632,-3275.5669L13120.6724,-3275.5683L13120.6851,-3275.5728L13120.6864,-3275.5776L13120.6829,-3275.5887L13120.6667,-3275.6312L13120.6592,-3275.6515L13120.6579,-3275.6575L13120.6605,-3275.6626L13120.6689,-3275.6686L13120.696,-3275.6867L13120.7166,-3275.7015L13120.7328,-3275.7163L13120.7402,-3275.7255L13120.7463,-3275.7399L13120.7507,-3275.7573L13120.7512,-3275.778L13120.7494,-3275.7991L13120.7468,-3275.8191L13120.7428,-3275.8316L13120.7358,-3275.8412"/>
<path content="3,山都町,下山線,1.4,1.0,0.0," xlink:title="3" d="M13121.6504,-3274.8931L13121.6539,-3274.8828L13121.6539,-3274.8702L13121.6557,-3274.8613L13121.6574,-3274.8525L13121.6649,-3274.8469L13121.6828,-3274.834L13121.696,-3274.8255L13121.7047,-3274.8192L13121.7091,-3274.8121L13121.7126,-3274.8029L13121.7152,-3274.7848L13121.7157,-3274.753L13121.7131,-3274.7489L13121.7047,-3274.7471L13121.6903,-3274.7445L13121.6714,-3274.7385"/>
<path content="3,山都町,下山線,1.4,1.0,0.0," xlink:title="3" d="M13121.6504,-3274.8931L13121.6653,-3274.9027L13121.6828,-3274.9142L13121.6969,-3274.9216L13121.7074,-3274.9257L13121.7161,-3274.9312L13121.7231,-3274.9412L13121.7306,-3274.9512L13121.7393,-3274.9571L13121.7529,-3274.9645L13121.763,-3274.9686L13121.773,-3274.9708L13121.794,-3274.9715L13121.8146,-3274.9708L13121.8269,-3274.9741L13121.8352,-3274.9797L13121.854,-3274.9989L13121.8698,-3275.0166L13121.8842,-3275.0299L13121.8965,-3275.0388L13121.9083,-3275.0444L13121.9223,-3275.0447L13121.9328,-3275.0425L13121.9451,-3275.0388L13121.9595,-3275.0348L13121.9692,-3275.0314L13121.9819,-3275.0314L13121.9933,-3275.034L13122.0059,-3275.0407L13122.0151,-3275.0447L13122.0317,-3275.0445L13122.0502,-3275.0455L13122.0677,-3275.0433L13122.0703,-3275.0433"/>
<path content="3,山都町,下山線,1.4,1.0,0.0," xlink:title="3" d="M13120.7358,-3275.8412L13120.7463,-3275.8605L13120.7573,-3275.8778L13120.7634,-3275.8878L13120.777,-3275.9082L13120.7893,-3275.9289L13120.7958,-3275.9392L13120.7662,-3275.945"/>
<path content="3,山都町,下山線,1.4,1.0,0.0," xlink:title="3" d="M13120.7358,-3275.8412L13120.731,-3275.8453L13120.7196,-3275.8564L13120.7131,-3275.8619L13120.7017,-3275.8719L13120.6964,-3275.8812L13120.6916,-3275.8875L13120.6833,-3275.8923L13120.6763,-3275.8982L13120.6724,-3275.9082L13120.6724,-3275.9163L13120.6702,-3275.9241L13120.6627,-3275.9333L13120.654,-3275.9396L13120.6474,-3275.9422L13120.6413,-3275.9415L13120.6369,-3275.9378L13120.6321,-3275.9307L13120.6264,-3275.9259L13120.6207,-3275.923L13120.6098,-3275.9211L13120.6049,-3275.9185L13120.5984,-3275.913L13120.5896,-3275.9048L13120.5822,-3275.9019L13120.5682,-3275.9011L13120.5563,-3275.9L13120.5498,-3275.8971L13120.5419,-3275.8901L13120.5353,-3275.8834L13120.5213,-3275.8786L13120.5038,-3275.8771L13120.4915,-3275.8749L13120.4823,-3275.8705L13120.4679,-3275.8619L13120.4578,-3275.8571L13120.4491,-3275.8497L13120.4425,-3275.8464L13120.4355,-3275.846L13120.4228,-3275.8483L13120.4154,-3275.8512L13120.4136,-3275.856L13120.414,-3275.8649L13120.418,-3275.8738L13120.4241,-3275.8819L13120.4294,-3275.8908L13120.432,-3275.8974L13120.4377,-3275.9037L13120.4469,-3275.9093L13120.4521,-3275.9148L13120.4521,-3275.9215L13120.4478,-3275.9256L13120.4403,-3275.9259L13120.4281,-3275.9244L13120.4202,-3275.9211L13120.4136,-3275.9189L13120.4005,-3275.9189L13120.3887,-3275.9185L13120.3838,-3275.9163L13120.3768,-3275.9122L13120.3698,-3275.9071L13120.3589,-3275.8938L13120.3528,-3275.8889L13120.3457,-3275.8852L13120.3379,-3275.8819L13120.3186,-3275.8815L13120.3094,-3275.8812L13120.3059,-3275.8764L13120.2971,-3275.8686L13120.2897,-3275.8634L13120.2823,-3275.8708L13120.27,-3275.8804L13120.2573,-3275.8893L13120.2394,-3275.8986L13120.2126,-3275.9071L13120.1881,-3275.9126L13120.1671,-3275.9185L13120.1505,-3275.9226L13120.1408,-3275.9226L13120.129,-3275.9185L13120.1155,-3275.9137L13120.1001,-3275.9122L13120.0861,-3275.913L13120.0651,-3275.9182L13120.0432,-3275.9259L13120.0117,-3275.9392L13119.9959,-3275.9451L13119.9815,-3275.95L13119.9683,-3275.9522L13119.9521,-3275.9514L13119.9434,-3275.9492L13119.9338,-3275.9455L13119.9154,-3275.9355L13119.9044,-3275.9274L13119.8926,-3275.9222L13119.8834,-3275.9185L13119.8712,-3275.9159L13119.8611,-3275.9178L13119.8501,-3275.9259L13119.8436,-3275.9355L13119.8383,-3275.95L13119.8348,-3275.9633L13119.8304,-3275.9714L13119.8186,-3275.9799L13119.8029,-3275.9869L13119.7862,-3275.9921L13119.7713,-3275.9947L13119.7595,-3275.9947L13119.7486,-3275.9914L13119.7332,-3275.9821L13119.721,-3275.9714L13119.7017,-3275.9533L13119.6868,-3275.9378L13119.6741,-3275.923L13119.6663,-3275.9174L13119.6579,-3275.9145L13119.6481,-3275.9174"/>
<path content="3,山都町,下山線,1.4,1.0,0.0," xlink:title="3" d="M13118.2733,-3277.7872L13118.3154,-3277.7994L13118.3443,-3277.8068L13118.3609,-3277.812L13118.4038,-3277.8205L13118.431,-3277.8268L13118.4577,-3277.829L13118.4782,-3277.8286L13118.4852,-3277.8279L13118.4887,-3277.8238L13118.4962,-3277.809L13118.4974,-3277.8044L13118.4991,-3277.8025L13118.5024,-3277.8033L13118.5051,-3277.807L13118.5059,-3277.814L13118.5075,-3277.8192L13118.5107,-3277.822L13118.5169,-3277.822L13118.5278,-3277.8196L13118.5473,-3277.8129L13118.5528,-3277.8122L13118.5591,-3277.8123L13118.5642,-3277.8164L13118.5729,-3277.8229L13118.5812,-3277.8273L13118.597,-3277.8327L13118.6079,-3277.8369L13118.6165,-3277.843L13118.6248,-3277.851L13118.6329,-3277.8602L13118.643,-3277.8673L13118.655,-3277.8722L13118.6635,-3277.8748L13118.673,-3277.8754L13118.6808,-3277.8752L13118.687,-3277.8728L13118.6927,-3277.8661L13118.6955,-3277.8575L13118.6979,-3277.8462L13118.7008,-3277.8414L13118.7069,-3277.8399L13118.7191,-3277.8423L13118.7292,-3277.8441L13118.7345,-3277.8447L13118.7395,-3277.8436L13118.7483,-3277.8399L13118.7559,-3277.8388L13118.7642,-3277.8388L13118.7693,-3277.8395L13118.7785,-3277.8441L13118.7859,-3277.8508L13118.7912,-3277.8538L13118.7971,-3277.8558L13118.8131,-3277.8556L13118.8262,-3277.8545L13118.8309,-3277.8495"/>
<path content="3,山都町,下山線,1.4,1.0,0.0," xlink:title="3" d="M13118.2733,-3277.7872L13118.2687,-3277.8138L13118.2622,-3277.8441L13118.2574,-3277.8608L13118.2486,-3277.8748L13118.2346,-3277.8959L13118.2293,-3277.9118L13118.2293,-3277.9281L13118.2359,-3277.9458L13118.2416,-3277.9647L13118.2525,-3277.9858L13118.2661,-3278.0124L13118.2736,-3278.0342L13118.2775,-3278.0501L13118.2797,-3278.0738L13118.2814,-3278.1174L13118.2828,-3278.1585L13118.2863,-3278.1843L13118.2867,-3278.2099L13118.2924,-3278.2442L13118.3016,-3278.2657L13118.3099,-3278.2849L13118.3178,-3278.3019L13118.3296,-3278.3178L13118.3317,-3278.3203"/>
<path content="3,山都町,下山線,1.4,1.0,0.0," xlink:title="3" d="M13118.8309,-3277.8495L13118.834,-3277.8421L13118.837,-3277.8358L13118.8375,-3277.8314L13118.8375,-3277.8247L13118.8344,-3277.8166L13118.8296,-3277.8077L13118.8243,-3277.7996L13118.823,-3277.7918L13118.8239,-3277.7833L13118.8265,-3277.7752L13118.8462,-3277.7456L13118.8629,-3277.7156L13118.8839,-3277.6861L13118.9009,-3277.6613L13118.9119,-3277.6491L13118.9189,-3277.6398L13118.922,-3277.6321L13118.9233,-3277.6177L13118.9215,-3277.6047L13118.9228,-3277.5927"/>
<path content="3,山都町,下山線,1.4,1.0,0.0," xlink:title="3" d="M13118.8309,-3277.8495L13118.8376,-3277.8578L13118.8492,-3277.8621L13118.8584,-3277.8663L13118.8671,-3277.8702L13118.877,-3277.8734L13118.8875,-3277.8772L13118.8982,-3277.8811L13118.9098,-3277.8848L13118.9186,-3277.8876L13118.9256,-3277.8898L13118.9291,-3277.8917L13118.9302,-3277.8946L13118.9265,-3277.9007L13118.9011,-3277.9353L13118.8932,-3277.9466L13118.8903,-3277.953L13118.8897,-3277.9603L13118.8906,-3277.9667L13118.8932,-3277.976L13118.8993,-3277.9904L13118.9052,-3278.0002L13118.9116,-3278.0096L13118.921,-3278.0179L13118.9249,-3278.0229L13118.9256,-3278.0277L13118.9238,-3278.0338L13118.9181,-3278.0398L13118.907,-3278.052L13118.9008,-3278.0636L13118.8966,-3278.073L13118.8939,-3278.0827L13118.8957,-3278.0949L13118.8979,-3278.1004L13118.9045,-3278.1048L13118.9115,-3278.1071L13118.9215,-3278.1063L13118.9285,-3278.103L13118.9404,-3278.0952L13118.9491,-3278.0864L13118.9557,-3278.0771L13118.9609,-3278.0682L13118.9675,-3278.066L13118.9732,-3278.0656L13118.9802,-3278.0679L13118.9854,-3278.0723L13118.9894,-3278.0775L13118.9898,-3278.0919L13118.9872,-3278.1048L13118.9868,-3278.1145L13118.9868,-3278.1233L13118.9885,-3278.1281L13118.9938,-3278.1318L13119.0021,-3278.1329L13119.0117,-3278.1296L13119.0231,-3278.1196L13119.0354,-3278.1111L13119.0454,-3278.0997L13119.0568,-3278.0838L13119.0612,-3278.079L13119.0656,-3278.0775L13119.0704,-3278.0778L13119.0805,-3278.0827L13119.1045,-3278.0974L13119.1295,-3278.1167L13119.1448,-3278.1304L13119.1531,-3278.1418L13119.1593,-3278.1507L13119.1628,-3278.1599L13119.1654,-3278.1655L13119.1768,-3278.1736L13119.1873,-3278.1814L13119.1934,-3278.1866L13119.2039,-3278.1928L13119.2201,-3278.2021L13119.2306,-3278.2099L13119.2411,-3278.2161L13119.2525,-3278.2235L13119.2652,-3278.2309L13119.2884,-3278.2439L13119.3331,-3278.2731L13119.3423,-3278.2831L13119.3484,-3278.2979L13119.357,-3278.3203"/>
<path content="3,山都町,大見口線,1.4,1.0,0.0," xlink:title="3" d="M13117.6758,-3275.8669L13117.6806,-3275.8658L13117.709,-3275.861L13117.7375,-3275.8592L13117.7693,-3275.8568L13117.8062,-3275.8523L13117.8315,-3275.8502L13117.8446,-3275.8473L13117.8568,-3275.8423L13117.8743,-3275.8331L13117.8906,-3275.8225L13117.904,-3275.8162L13117.9115,-3275.8138L13117.919,-3275.8072L13117.9274,-3275.8017L13117.9352,-3275.8001L13117.9487,-3275.8006L13117.958,-3275.804L13117.9752,-3275.8114L13117.9943,-3275.8185L13118.0021,-3275.8212L13118.0087,-3275.8207L13118.0155,-3275.8164L13118.0246,-3275.8104L13118.0358,-3275.8072L13118.0429,-3275.8059L13118.0484,-3275.8063L13118.0518,-3275.8073L13118.0556,-3275.81L13118.0581,-3275.816L13118.0576,-3275.8257L13118.0547,-3275.8306L13118.0495,-3275.8369L13118.047,-3275.8428L13118.0472,-3275.848L13118.0497,-3275.8515L13118.0565,-3275.854L13118.08,-3275.8538L13118.0959,-3275.8534L13118.1185,-3275.8554L13118.1317,-3275.8576L13118.1421,-3275.8581L13118.1524,-3275.8577L13118.1623,-3275.8559L13118.1707,-3275.8514L13118.1793,-3275.8434L13118.1867,-3275.8328L13118.1887,-3275.8269L13118.1885,-3275.8179L13118.1857,-3275.8076L13118.1856,-3275.7962L13118.1879,-3275.7892L13118.1907,-3275.7821L13118.1952,-3275.7753L13118.2029,-3275.7696L13118.2134,-3275.7654L13118.2217,-3275.7621L13118.2296,-3275.7538L13118.2404,-3275.7427L13118.2504,-3275.7329L13118.2577,-3275.7268L13118.2652,-3275.7212L13118.272,-3275.7136L13118.2726,-3275.7086L13118.2709,-3275.6977L13118.268,-3275.6858L13118.2677,-3275.675L13118.2685,-3275.6686L13118.2712,-3275.6649L13118.276,-3275.663L13118.283,-3275.6599"/>
<path content="3,山都町,柳線,0.4,0.0,0.0," xlink:title="3" d="M13117.6758,-3274.2335L13117.6908,-3274.2296L13117.7028,-3274.2291L13117.7194,-3274.2319L13117.7496,-3274.2397L13117.7711,-3274.2454L13117.7872,-3274.2493L13117.8016,-3274.2517L13117.8108,-3274.2512L13117.8241,-3274.2475L13117.8558,-3274.2343L13117.8933,-3274.2163L13117.9072,-3274.2122L13117.9201,-3274.2072L13117.9346,-3274.2031L13117.9457,-3274.2L13117.9558,-3274.1984L13117.9669,-3274.1974L13117.9807,-3274.1968L13117.9946,-3274.1976"/>
<path content="3,山都町,柳線,0.4,0.0,0.0," xlink:title="3" d="M13117.9946,-3274.1976L13117.9889,-3274.2066"/>
<path content="3,山都町,柳線,0.4,0.0,0.0," xlink:title="3" d="M13117.9946,-3274.1976L13118.0075,-3274.2L13118.0232,-3274.2031L13118.0386,-3274.2062L13118.0549,-3274.2106L13118.0749,-3274.2161L13118.0903,-3274.2197L13118.1045,-3274.2226L13118.1174,-3274.2254L13118.134,-3274.233L13118.1479,-3274.2402L13118.1583,-3274.2473L13118.1706,-3274.2556L13118.1829,-3274.2629L13118.1928,-3274.2683L13118.202,-3274.272L13118.2156,-3274.2743L13118.2537,-3274.2753L13118.2956,-3274.2774L13118.3501,-3274.2779L13118.3504,-3274.3013L13118.351,-3274.3193L13118.3531,-3274.3394"/>
<path content="3,山都町,柳線,0.4,0.0,0.0," xlink:title="3" d="M13118.3531,-3274.3394L13118.342,-3274.341"/>
<path content="3,山都町,柳線,0.4,0.0,0.0," xlink:title="3" d="M13118.3531,-3274.3394L13118.3555,-3274.3503L13118.3568,-3274.3551L13118.3605,-3274.3674L13118.3645,-3274.377L13118.3692,-3274.3871L13118.3735,-3274.398L13118.3793,-3274.4108L13118.3842,-3274.4217L13118.3882,-3274.4303L13118.3929,-3274.4412L13118.3965,-3274.4472L13118.4036,-3274.4562L13118.4079,-3274.4635L13118.4098,-3274.4687L13118.4092,-3274.4744L13118.4055,-3274.4817L13118.3959,-3274.4932L13118.3827,-3274.5088L13118.3744,-3274.5173L13118.3673,-3274.5264L13118.3618,-3274.5316L13118.3547,-3274.5347L13118.3461,-3274.5368L13118.3335,-3274.5379L13118.3242,-3274.5394L13118.315,-3274.5425L13118.3045,-3274.5467L13118.297,-3274.5514L13118.2841,-3274.5597L13118.2736,-3274.5685L13118.2631,-3274.5789L13118.252,-3274.5893L13118.2428,-3274.6015L13118.2347,-3274.6099L13118.225,-3274.6203L13118.2157,-3274.6268L13118.2022,-3274.6351L13118.188,-3274.6418L13118.1726,-3274.6486L13118.1574,-3274.6559L13118.1476,-3274.6587L13118.1399,-3274.6587L13118.122,-3274.6561L13118.1051,-3274.6533L13118.0893,-3274.652L13118.0792,-3274.6494L13118.0669,-3274.6494L13118.058,-3274.6499L13118.0497,-3274.6525L13118.0398,-3274.6572L13118.026,-3274.665L13118.0081,-3274.6764L13117.9977,-3274.6821L13117.986,-3274.6884L13117.9746,-3274.6936L13117.9647,-3274.6975L13117.953,-3274.7006L13117.9337,-3274.7027L13117.8656,-3274.7094L13117.8715,-3274.7227L13117.8869,-3274.7531L13117.8964,-3274.7762L13117.9063,-3274.797L13117.9133,-3274.8142L13117.9152,-3274.8266L13117.9136,-3274.8381L13117.9066,-3274.8534L13117.8893,-3274.8843L13117.869,-3274.9153L13117.8496,-3274.9452L13117.8345,-3274.9688L13117.8198,-3274.9977L13117.8053,-3275.026L13117.7967,-3275.0439L13117.7878,-3275.0653L13117.7779,-3275.0879L13117.7696,-3275.1092L13117.7616,-3275.1318L13117.7524,-3275.1557L13117.745,-3275.1773L13117.7336,-3275.2108L13117.725,-3275.2417L13117.7191,-3275.2618L13117.7114,-3275.2844L13117.7019,-3275.3197L13117.6973,-3275.3384L13117.692,-3275.3631L13117.6905,-3275.3941L13117.6877,-3275.4286L13117.6825,-3275.4492L13117.6758,-3275.4699"/>
<path content="3,山都町,花上線,1.4,1.0,0.0," xlink:title="3" d="M13117.6758,-3274.2335L13117.6908,-3274.2296L13117.7028,-3274.2291L13117.7194,-3274.2319L13117.7496,-3274.2397L13117.7711,-3274.2454L13117.7872,-3274.2493L13117.8016,-3274.2517L13117.8108,-3274.2512L13117.8241,-3274.2475L13117.8558,-3274.2343L13117.8933,-3274.2163"/>
<path content="3,山都町,花上線,1.4,1.0,0.0," xlink:title="3" d="M13118.3594,-3274.0638L13118.3601,-3274.0461L13118.3591,-3274.0271L13118.3573,-3274.0139L13118.3576,-3274.0031L13118.3594,-3273.9949L13118.3638,-3273.9867L13118.371,-3273.9807L13118.3791,-3273.9765L13118.3888,-3273.9736L13118.4054,-3273.9712L13118.4222,-3273.9693L13118.4313,-3273.9683L13118.4385,-3273.9651L13118.4466,-3273.9601L13118.4504,-3273.9548L13118.4532,-3273.9445L13118.456,-3273.9303L13118.4568,-3273.9258M13121.8019,-3273.9258L13121.8039,-3273.93L13121.8083,-3273.9361L13121.813,-3273.9414L13121.8216,-3273.943"/>
<path content="3,山都町,花上線,1.4,1.0,0.0," xlink:title="3" d="M13118.3594,-3274.0638L13118.3646,-3274.0641"/>
<path content="3,山都町,花上線,1.4,1.0,0.0," xlink:title="3" d="M13117.9946,-3274.1976L13117.9889,-3274.2066"/>
<path content="3,山都町,花上線,1.4,1.0,0.0," xlink:title="3" d="M13117.9946,-3274.1976L13118.0075,-3274.2L13118.0232,-3274.2031L13118.0386,-3274.2062L13118.0549,-3274.2106L13118.0749,-3274.2161L13118.0903,-3274.2197L13118.1045,-3274.2226L13118.1174,-3274.2254L13118.134,-3274.233L13118.1479,-3274.2402L13118.1583,-3274.2473L13118.1706,-3274.2556L13118.1829,-3274.2629L13118.1928,-3274.2683L13118.202,-3274.272L13118.2156,-3274.2743L13118.2537,-3274.2753L13118.2956,-3274.2774L13118.3501,-3274.2779L13118.3672,-3274.2791L13118.3953,-3274.2799L13118.3951,-3274.2575L13118.3954,-3274.2427L13118.3963,-3274.2296L13118.3982,-3274.2179L13118.3979,-3274.2042L13118.3966,-3274.1902L13118.3947,-3274.1818L13118.3919,-3274.1754L13118.3869,-3274.1715L13118.3801,-3274.1649L13118.3676,-3274.1546L13118.3623,-3274.1491L13118.3573,-3274.1419L13118.3548,-3274.1311L13118.3532,-3274.1208L13118.3529,-3274.106L13118.3541,-3274.0907L13118.357,-3274.076L13118.3594,-3274.0638"/>
<path content="3,山都町,花上線,1.4,1.0,0.0," xlink:title="3" d="M13117.8933,-3274.2163L13117.9072,-3274.2122L13117.9201,-3274.2072L13117.9346,-3274.2031L13117.9457,-3274.2L13117.9558,-3274.1984L13117.9669,-3274.1974L13117.9807,-3274.1968L13117.9946,-3274.1976"/>
<path content="3,山都町,花上線,1.4,1.0,0.0," xlink:title="3" d="M13117.8933,-3274.2163L13117.8973,-3274.2267L13117.9004,-3274.2364L13117.9004,-3274.2536L13117.8985,-3274.2636L13117.8979,-3274.271L13117.8979,-3274.2789L13117.8992,-3274.2844L13117.9023,-3274.2889L13117.8983,-3274.2971"/>
<path content="3,高森町,草部南部線,1.2,0.0,0.0," xlink:title="3" d="M13121.1616,-3276.887L13121.1609,-3276.9015L13121.1536,-3276.9307L13121.1454,-3276.9635L13121.1391,-3276.9732L13121.1238,-3276.995L13121.1202,-3277.0027L13121.1192,-3277.012L13121.1192,-3277.0254L13121.1172,-3277.0346L13121.1118,-3277.0452L13121.0977,-3277.0717L13121.0936,-3277.0811L13121.0924,-3277.09L13121.0916,-3277.0962L13121.0872,-3277.1044L13121.0783,-3277.1198L13121.0777,-3277.1249L13121.0794,-3277.1294L13121.0834,-3277.1304L13121.0898,-3277.1291L13121.1005,-3277.1249L13121.1097,-3277.1187L13121.1367,-3277.0992L13121.1645,-3277.0791L13121.1725,-3277.0777L13121.1804,-3277.0792L13121.1937,-3277.0875L13121.2086,-3277.0965L13121.2168,-3277.0997L13121.2257,-3277.1064L13121.2395,-3277.1224L13121.2538,-3277.1398L13121.2635,-3277.1492L13121.2742,-3277.1566L13121.2862,-3277.1636L13121.3033,-3277.172L13121.3303,-3277.1838L13121.3464,-3277.1913L13121.3547,-3277.1989L13121.3621,-3277.2095L13121.3714,-3277.2182L13121.3826,-3277.2257L13121.3911,-3277.2321L13121.3963,-3277.2381L13121.4021,-3277.249L13121.4054,-3277.2573L13121.4064,-3277.2662L13121.4058,-3277.274L13121.4022,-3277.2806L13121.3951,-3277.2886L13121.382,-3277.3021L13121.3663,-3277.317L13121.3577,-3277.3232L13121.346,-3277.3306L13121.3402,-3277.3371L13121.3378,-3277.3433L13121.3394,-3277.3502L13121.3438,-3277.3551L13121.3504,-3277.3574L13121.3575,-3277.3566L13121.3591,-3277.3501"/>
<path content="3,高森町,草部南部線,1.2,0.0,0.0," xlink:title="3" d="M13121.1616,-3276.887L13121.1464,-3276.8968L13121.124,-3276.9115L13121.0977,-3276.9303L13121.0729,-3276.9471L13121.0602,-3276.9567L13121.0492,-3276.9666L13121.0375,-3276.9768L13121.0307,-3276.9852L13121.023,-3276.9954L13121.0166,-3277.0055L13121.0101,-3277.0193L13121.0017,-3277.0364L13120.9912,-3277.06L13120.9821,-3277.0834L13120.9741,-3277.1107L13120.9679,-3277.1265L13120.9616,-3277.1365L13120.9532,-3277.1448L13120.9282,-3277.1649L13120.9151,-3277.1743L13120.9077,-3277.1824L13120.9045,-3277.1911L13120.9021,-3277.2027L13120.899,-3277.2367L13120.8944,-3277.281L13120.8908,-3277.302L13120.8856,-3277.3112L13120.8761,-3277.3154L13120.86,-3277.3181L13120.8191,-3277.3238L13120.7775,-3277.3307L13120.7628,-3277.3329L13120.7545,-3277.3366L13120.7443,-3277.3449L13120.7145,-3277.3664L13120.698,-3277.3746L13120.6877,-3277.3785L13120.6797,-3277.3866L13120.6734,-3277.3968L13120.6608,-3277.4218L13120.6571,-3277.4298L13120.6585,-3277.4532L13120.664,-3277.4644L13120.6736,-3277.4812L13120.6771,-3277.4916L13120.6801,-3277.505L13120.6845,-3277.5401L13120.6901,-3277.553L13120.6986,-3277.5653L13120.7078,-3277.5735L13120.7187,-3277.577L13120.7366,-3277.5799L13120.7453,-3277.5835L13120.7519,-3277.5908L13120.7791,-3277.6215L13120.8137,-3277.6659L13120.825,-3277.6827L13120.8312,-3277.6935L13120.8371,-3277.7044L13120.8433,-3277.7183L13120.8455,-3277.7297L13120.8463,-3277.7424L13120.8447,-3277.7857L13120.8421,-3277.7985L13120.8379,-3277.8097L13120.8314,-3277.8195L13120.8254,-3277.8263L13120.8242,-3277.8317L13120.8264,-3277.8389L13120.8338,-3277.8527L13120.8475,-3277.8727L13120.8584,-3277.8926L13120.8626,-3277.9005L13120.8697,-3277.9082L13120.8763,-3277.9134L13120.8934,-3277.9225L13120.9262,-3277.9423L13120.9365,-3277.9473L13120.9447,-3277.9542L13120.9532,-3277.9653L13120.9842,-3278.0032L13121.0051,-3278.0299L13121.0248,-3278.0589L13121.0341,-3278.073L13121.0445,-3278.0858L13121.0538,-3278.0955L13121.0759,-3278.1223L13121.0991,-3278.1498L13121.121,-3278.1705L13121.1291,-3278.1774L13121.1385,-3278.1824L13121.15,-3278.1874L13121.182,-3278.2019L13121.2482,-3278.2277L13121.2715,-3278.2356L13121.2848,-3278.2393L13121.2899,-3278.2411L13121.2929,-3278.2455L13121.2925,-3278.2532L13121.2935,-3278.2809L13121.2955,-3278.2851L13121.3033,-3278.2878L13121.31,-3278.2884L13121.3983,-3278.2884L13121.4128,-3278.2889L13121.436,-3278.2879L13121.4533,-3278.2861L13121.4655,-3278.2826L13121.4744,-3278.2757L13121.4808,-3278.268L13121.4923,-3278.2492L13121.5,-3278.2401L13121.508,-3278.2359L13121.5179,-3278.2342L13121.5726,-3278.2337L13121.5873,-3278.2322L13121.6038,-3278.2274L13121.6497,-3278.2098L13121.6664,-3278.2022L13121.6813,-3278.193L13121.7064,-3278.1794L13121.7272,-3278.1651L13121.7459,-3278.1537L13121.766,-3278.1446L13121.782,-3278.141L13121.7902,-3278.1428"/>
<path content="3,高森町,草部南部線,1.2,0.0,0.0," xlink:title="3" d="M13122.0703,-3277.3327L13122.0462,-3277.3416L13121.9955,-3277.3622L13121.9502,-3277.3835L13121.9289,-3277.3943L13121.9025,-3277.4057L13121.8923,-3277.4105L13121.8879,-3277.4137L13121.8852,-3277.4181L13121.8838,-3277.4246L13121.8794,-3277.4505L13121.8772,-3277.4641L13121.8734,-3277.474L13121.8683,-3277.4834L13121.8627,-3277.4911L13121.8557,-3277.4998L13121.8484,-3277.5085L13121.8406,-3277.5166L13121.8323,-3277.5247L13121.8231,-3277.533L13121.813,-3277.5409L13121.7949,-3277.5522L13121.7899,-3277.557L13121.7868,-3277.5622L13121.7834,-3277.5691L13121.7808,-3277.5783L13121.7804,-3277.5881L13121.777,-3277.5998L13121.7709,-3277.6107L13121.7635,-3277.6283L13121.7609,-3277.6387L13121.7595,-3277.6542L13121.7615,-3277.6715L13121.7657,-3277.6837L13121.7754,-3277.7069L13121.7822,-3277.7262L13121.7866,-3277.7429L13121.7878,-3277.7671L13121.7868,-3277.7936L13121.7836,-3277.8106L13121.7784,-3277.8349L13121.7683,-3277.8849L13121.7589,-3277.9341L13121.7536,-3277.9565L13121.7524,-3277.9676L13121.7524,-3277.9816L13121.7564,-3277.9909L13121.7635,-3278.0003L13121.7735,-3278.0074L13121.7862,-3278.0161L13121.7925,-3278.0222L13121.7985,-3278.0305L13121.813,-3278.0519L13121.8204,-3278.0653L13121.8225,-3278.0748L13121.8229,-3278.0854L13121.8206,-3278.0943L13121.8156,-3278.1042L13121.8047,-3278.1203L13121.7902,-3278.1428"/>
<path content="3,高森町,草部南部線,1.2,0.0,0.0," xlink:title="3" d="M13121.7902,-3278.1428L13121.7799,-3278.1582L13121.768,-3278.1712L13121.7531,-3278.193L13121.7419,-3278.2155L13121.7264,-3278.2309L13121.7191,-3278.2431L13121.7143,-3278.2561L13121.7109,-3278.2737L13121.7058,-3278.3192L13121.7054,-3278.3203"/>
<path content="3,高森町,草部南部線,1.2,0.0,0.0," xlink:title="3" d="M13122.0703,-3276.28L13122.0664,-3276.2833L13122.061,-3276.2847L13122.0427,-3276.286L13122.0387,-3276.2877L13122.0357,-3276.2915L13122.028,-3276.3054L13122.0246,-3276.3154L13122.0241,-3276.322L13122.0244,-3276.3319L13122.0274,-3276.3914L13122.0251,-3276.4005L13122.02,-3276.4088L13122.0108,-3276.4145L13122.0039,-3276.4161L13121.9861,-3276.4161L13121.9797,-3276.4129L13121.9755,-3276.4094L13121.9712,-3276.4042L13121.9673,-3276.3993L13121.9628,-3276.392L13121.9521,-3276.3726L13121.948,-3276.3678L13121.9432,-3276.3656L13121.9374,-3276.3652L13121.9326,-3276.3667L13121.9299,-3276.3705L13121.9272,-3276.3771L13121.9212,-3276.3873L13121.9176,-3276.3902L13121.9099,-3276.3912L13121.8956,-3276.3915L13121.8902,-3276.3942L13121.8829,-3276.3995L13121.8766,-3276.4043L13121.871,-3276.4056L13121.8667,-3276.4056L13121.8616,-3276.4034L13121.8586,-3276.3995L13121.8555,-3276.3948L13121.8532,-3276.3898L13121.8526,-3276.3839L13121.8532,-3276.3763L13121.8549,-3276.3688L13121.8577,-3276.3541L13121.8577,-3276.3497L13121.856,-3276.3467L13121.8518,-3276.345L13121.8404,-3276.3446L13121.8334,-3276.3424L13121.8302,-3276.3388L13121.821,-3276.3262L13121.8159,-3276.3217L13121.8097,-3276.3192L13121.799,-3276.3177L13121.7896,-3276.3154L13121.7843,-3276.3137L13121.778,-3276.3111L13121.7733,-3276.306L13121.7702,-3276.2999L13121.7675,-3276.2924L13121.7647,-3276.2837L13121.7557,-3276.2855L13121.7463,-3276.2879L13121.7303,-3276.2926L13121.7206,-3276.2973L13121.7131,-3276.303L13121.7068,-3276.3103L13121.7012,-3276.3183L13121.6894,-3276.3335L13121.6805,-3276.3396L13121.6729,-3276.3418L13121.6575,-3276.3399L13121.6524,-3276.3362L13121.6486,-3276.3311L13121.641,-3276.3165L13121.6368,-3276.3123L13121.632,-3276.3096L13121.6224,-3276.3109L13121.6164,-3276.314L13121.614,-3276.3194L13121.6151,-3276.326L13121.6195,-3276.3333L13121.6318,-3276.3439L13121.6475,-3276.3553L13121.6569,-3276.3601L13121.6692,-3276.3647L13121.6913,-3276.3712L13121.6989,-3276.3754L13121.7043,-3276.3803L13121.7076,-3276.3878L13121.7093,-3276.3966L13121.7094,-3276.4119L13121.7049,-3276.4199L13121.6984,-3276.4268L13121.688,-3276.4346L13121.6783,-3276.441L13121.6641,-3276.4472L13121.6458,-3276.4532L13121.621,-3276.4604L13121.5911,-3276.466L13121.5774,-3276.4707L13121.5606,-3276.4771L13121.5489,-3276.4797L13121.5137,-3276.4802L13121.5026,-3276.4781L13121.4945,-3276.4744L13121.482,-3276.4673L13121.4713,-3276.4646L13121.4558,-3276.4656L13121.4498,-3276.4683L13121.4462,-3276.4725L13121.4467,-3276.4835L13121.4495,-3276.4881L13121.4583,-3276.4934L13121.4678,-3276.4961L13121.4925,-3276.4985L13121.5007,-3276.5002L13121.5097,-3276.5042L13121.5178,-3276.5106L13121.5295,-3276.5223L13121.5379,-3276.5258L13121.5453,-3276.5265L13121.552,-3276.5253L13121.5583,-3276.5213L13121.5684,-3276.5133L13121.5829,-3276.4949L13121.5883,-3276.4899L13121.5967,-3276.4882L13121.6041,-3276.4879L13121.6091,-3276.4904L13121.6111,-3276.4944L13121.6106,-3276.4994L13121.6079,-3276.5039L13121.5854,-3276.5239L13121.5512,-3276.5475L13121.5438,-3276.5509L13121.5352,-3276.553L13121.5278,-3276.5522L13121.5204,-3276.55L13121.5105,-3276.5445L13121.4995,-3276.5422L13121.485,-3276.5432L13121.4736,-3276.5484L13121.4639,-3276.555L13121.4565,-3276.5632L13121.4503,-3276.5763L13121.4443,-3276.5885L13121.4399,-3276.5976L13121.4332,-3276.605L13121.4188,-3276.6158L13121.3962,-3276.6347L13121.3908,-3276.6407L13121.3871,-3276.6479L13121.3825,-3276.6598L13121.3776,-3276.6697L13121.3708,-3276.6782L13121.3619,-3276.6871L13121.3516,-3276.6948L13121.3329,-3276.7088L13121.3213,-3276.7183L13121.3153,-3276.7284L13121.3077,-3276.7495L13121.2941,-3276.7765L13121.282,-3276.7942L13121.2725,-3276.8055L13121.2573,-3276.8179L13121.2408,-3276.8276L13121.2275,-3276.8347L13121.2172,-3276.8384L13121.2033,-3276.8441L13121.1941,-3276.8498L13121.185,-3276.858L13121.1759,-3276.8684L13121.1691,-3276.8791L13121.1616,-3276.887"/>
</g>
</svg>
