<?xml version="1.0" encoding="UTF-8"?>
<svg  xmlns="http://www.w3.org/2000/svg" xmlns:xlink="http://www.w3.org/1999/xlink" xmlns:go="http://purl.org/svgmap/profile" property="N07_001,N07_002,N07_003,N07_004,N07_005,N07_006,N07_007" viewBox="13665.8935546875 -3658.447265625 1.0986328125 1.0986328125" go:dataArea="13665.8935546875 -3658.447265625 1.0986328125 1.0986328125" >
<metadata>
 <rdf:RDF xmlns:rdf="http://www.w3.org/1999/02/22-rdf-syntax-ns#" xmlns:crs="http://opengis.org/xmldtds/transformations.dtd" xmlns:svg="http://www.w3.org/svg" >
  <rdf:Description>
   <crs:CoordinateReferenceSystem rdf:resource="http://purl.org/crs/84" svg:transform="matrix(100.0,0.0,0.0,-100.0,0.0,0.0)" />
  </rdf:Description>
 </rdf:RDF>
</metadata>
<globalCoordinateSystem srsName="http://purl.org/crs/84" transform="matrix(100.0,0.0,0.0,-100.0,0.0,0.0)" />
<defs>
 <g id="p0" >
  <circle cx="0.0" cy="0.0" r="3" stroke="green" stroke-width="0.75" vector-effect="non-scaling-stroke" />
 </g>
</defs>
<g fill="none" fill-rule="evenodd" stroke="#FF00FF" stroke-width="0.75" opacity="0.5" vector-effect="non-scaling-stroke" stroke-linejoin="bevel" >
<path content="1,加越能鉄道（株）,戸出・砺波・庄川・城端方面,35.5,30.5,24.5," xlink:title="1" d="M13666.9922,-3658.3918L13666.9711,-3658.3873L13666.8958,-3658.3721L13666.8384,-3658.3601L13666.8309,-3658.3586L13666.7953,-3658.3513L13666.7402,-3658.3394L13666.7137,-3658.3349L13666.6683,-3658.3254L13666.6432,-3658.3203L13666.5413,-3658.2989L13666.5218,-3658.295L13666.4137,-3658.273L13666.3676,-3658.2634L13666.3389,-3658.257L13666.2727,-3658.2398L13666.2511,-3658.233L13666.2475,-3658.232L13666.1478,-3658.2037L13666.129,-3658.1986L13666.1227,-3658.1969L13666.0927,-3658.1885L13666.046,-3658.175L13666.0188,-3658.1665L13666.0069,-3658.1637L13665.9794,-3658.1587L13665.8936,-3658.1319"/>
<path content="1,加越能鉄道（株）,金沢駅線,2.0,2.0,2.0," xlink:title="1" d="M13666.9922,-3657.8589L13666.9607,-3657.8252L13666.9272,-3657.7925L13666.8867,-3657.7582L13666.8735,-3657.743L13666.8632,-3657.7276L13666.8491,-3657.7126L13666.8218,-3657.6803L13666.8143,-3657.6716L13666.7898,-3657.641L13666.7437,-3657.5836L13666.7137,-3657.5481L13666.6928,-3657.5233L13666.6748,-3657.4997L13666.6369,-3657.4546L13666.6283,-3657.4446L13666.6244,-3657.4394L13666.563,-3657.3628L13666.5512,-3657.3486"/>
<path content="1,加越能鉄道（株）,金沢（高速バス）,6.0,6.0,6.0," xlink:title="1" d="M13666.9922,-3657.8589L13666.9607,-3657.8252L13666.9272,-3657.7925L13666.8867,-3657.7582L13666.8735,-3657.743L13666.8632,-3657.7276L13666.8491,-3657.7126L13666.8218,-3657.6803L13666.8143,-3657.6716L13666.7898,-3657.641L13666.7437,-3657.5836L13666.7137,-3657.5481L13666.6928,-3657.5233L13666.6748,-3657.4997L13666.6283,-3657.4446L13666.6244,-3657.4394L13666.563,-3657.3628L13666.5512,-3657.3486"/>
<path content="1,北陸鉄道（株）,上荒屋線50,47.5,39.0,37.5," xlink:title="1" d="M13665.8936,-3657.5107L13665.9064,-3657.5216L13665.9888,-3657.6022L13665.9971,-3657.6112L13666.038,-3657.6506L13666.0474,-3657.6613L13666.0599,-3657.6726L13666.0721,-3657.6812L13666.0813,-3657.6877L13666.0988,-3657.6983L13666.131,-3657.7098L13666.1338,-3657.7108L13666.1506,-3657.7171L13666.1771,-3657.7268L13666.1974,-3657.7334L13666.2204,-3657.7424L13666.226,-3657.7447L13666.2351,-3657.748L13666.2658,-3657.7587L13666.2953,-3657.7676L13666.3651,-3657.7946L13666.3969,-3657.8055L13666.4074,-3657.8106L13666.4402,-3657.8229L13666.5051,-3657.8461L13666.5358,-3657.8573L13666.556,-3657.8658L13666.5793,-3657.8753L13666.6251,-3657.8984L13666.6439,-3657.9069L13666.6509,-3657.9103L13666.6767,-3657.9204L13666.6963,-3657.9272L13666.7527,-3657.9384L13666.7716,-3657.9413L13666.8435,-3657.9548L13666.9258,-3657.9694L13666.9426,-3657.9717L13666.9922,-3657.9808"/>
<path content="1,北陸鉄道（株）,上荒屋線_02_on,47.5,39.0,37.5," xlink:title="1" d="M13665.8936,-3657.5107L13665.9064,-3657.5216L13665.9888,-3657.6022L13665.9971,-3657.6112L13666.038,-3657.6506L13666.0474,-3657.6613L13666.0599,-3657.6726L13666.0721,-3657.6812L13666.0813,-3657.6877L13666.0988,-3657.6983L13666.131,-3657.7098L13666.1338,-3657.7108L13666.1506,-3657.7171L13666.1771,-3657.7268L13666.1974,-3657.7334L13666.2204,-3657.7424L13666.226,-3657.7447L13666.2351,-3657.748L13666.2658,-3657.7587L13666.2953,-3657.7676L13666.3651,-3657.7946L13666.3969,-3657.8055L13666.4074,-3657.8106L13666.4402,-3657.8229L13666.5051,-3657.8461L13666.5358,-3657.8573L13666.556,-3657.8658L13666.5793,-3657.8753L13666.6251,-3657.8984L13666.6439,-3657.9069L13666.6509,-3657.9103L13666.6767,-3657.9204L13666.6963,-3657.9272L13666.7527,-3657.9384L13666.7716,-3657.9413L13666.8435,-3657.9548L13666.9258,-3657.9694L13666.9426,-3657.9717L13666.9922,-3657.9808"/>
<path content="1,北陸鉄道（株）,元町有松線33,5.0,5.0,5.0," xlink:title="1" d="M13666.8478,-3658.4473L13666.8469,-3658.438L13666.8441,-3658.4178L13666.8399,-3658.3783L13666.8384,-3658.3601L13666.8309,-3658.3586L13666.8225,-3658.34L13666.8044,-3658.3057L13666.8016,-3658.3006L13666.7793,-3658.2589L13666.7401,-3658.1869L13666.7318,-3658.1739L13666.7297,-3658.1705L13666.7046,-3658.1238L13666.6809,-3658.0815L13666.6439,-3658.0145L13666.6397,-3658.0054L13666.6334,-3657.9981L13666.6334,-3657.9936L13666.6418,-3657.9519L13666.6453,-3657.9328L13666.6509,-3657.9103L13666.6439,-3657.9069L13666.6251,-3657.8984L13666.5793,-3657.8753L13666.556,-3657.8658L13666.5358,-3657.8573L13666.5051,-3657.8461L13666.4402,-3657.8229L13666.4074,-3657.8106L13666.3969,-3657.8055L13666.3651,-3657.7946L13666.2953,-3657.7676L13666.2658,-3657.7587L13666.2351,-3657.748L13666.226,-3657.7447L13666.2204,-3657.7424L13666.1974,-3657.7334L13666.1771,-3657.7268L13666.1506,-3657.7171L13666.1338,-3657.7108L13666.131,-3657.7098L13666.0988,-3657.6983L13666.0813,-3657.6877L13666.0721,-3657.6812L13666.0599,-3657.6726L13666.0474,-3657.6613L13666.038,-3657.6506L13665.9971,-3657.6112L13665.9888,-3657.6022L13665.9064,-3657.5216L13665.8936,-3657.5107"/>
<path content="1,北陸鉄道（株）,元町有松線89,5.0,5.0,5.0," xlink:title="1" d="M13666.8478,-3658.4473L13666.8469,-3658.438L13666.8441,-3658.4178L13666.8399,-3658.3783L13666.8384,-3658.3601L13666.8309,-3658.3586L13666.8225,-3658.34L13666.8044,-3658.3057L13666.8016,-3658.3006L13666.7793,-3658.2589L13666.7401,-3658.1869L13666.7318,-3658.1739L13666.7297,-3658.1705L13666.7046,-3658.1238L13666.6809,-3658.0815L13666.6439,-3658.0145L13666.6397,-3658.0054L13666.6334,-3657.9981L13666.6334,-3657.9936L13666.6418,-3657.9519L13666.6453,-3657.9328L13666.6509,-3657.9103L13666.6439,-3657.9069L13666.6251,-3657.8984L13666.5793,-3657.8753L13666.556,-3657.8658L13666.5358,-3657.8573L13666.5051,-3657.8461L13666.4402,-3657.8229L13666.4074,-3657.8106L13666.3969,-3657.8055L13666.3651,-3657.7946L13666.2953,-3657.7676L13666.2658,-3657.7587L13666.2351,-3657.748L13666.226,-3657.7447L13666.2204,-3657.7424L13666.1974,-3657.7334L13666.1771,-3657.7268L13666.1506,-3657.7171L13666.1338,-3657.7108L13666.131,-3657.7098L13666.0988,-3657.6983L13666.0813,-3657.6877L13666.0721,-3657.6812L13666.0599,-3657.6726L13666.0474,-3657.6613L13666.038,-3657.6506L13665.9971,-3657.6112L13665.9888,-3657.6022L13665.9064,-3657.5216L13665.8936,-3657.5107"/>
<path content="1,北陸鉄道（株）,千代野線_02_on,32.5,33.5,33.0," xlink:title="1" d="M13665.8936,-3657.5107L13665.9064,-3657.5216L13665.9888,-3657.6022L13665.9971,-3657.6112L13666.038,-3657.6506L13666.0474,-3657.6613L13666.0599,-3657.6726L13666.0721,-3657.6812L13666.0813,-3657.6877L13666.0988,-3657.6983L13666.131,-3657.7098L13666.1338,-3657.7108L13666.1506,-3657.7171L13666.1771,-3657.7268L13666.1974,-3657.7334L13666.2204,-3657.7424L13666.226,-3657.7447L13666.2351,-3657.748L13666.2658,-3657.7587L13666.2953,-3657.7676L13666.3651,-3657.7946L13666.3969,-3657.8055L13666.4074,-3657.8106L13666.4402,-3657.8229L13666.5051,-3657.8461L13666.5358,-3657.8573L13666.556,-3657.8658L13666.5793,-3657.8753L13666.6251,-3657.8984L13666.6439,-3657.9069L13666.6509,-3657.9103L13666.6767,-3657.9204L13666.6963,-3657.9272L13666.7527,-3657.9384L13666.7716,-3657.9413L13666.8435,-3657.9548L13666.9258,-3657.9694L13666.9426,-3657.9717L13666.9922,-3657.9808"/>
<path content="1,北陸鉄道（株）,四十万金石線,51.0,26.5,26.0," xlink:title="1" d="M13665.8936,-3657.5107L13665.9064,-3657.5216L13665.9888,-3657.6022L13665.9971,-3657.6112L13666.038,-3657.6506L13666.0474,-3657.6613L13666.0599,-3657.6726L13666.0721,-3657.6812L13666.0813,-3657.6877L13666.0988,-3657.6983L13666.131,-3657.7098L13666.1338,-3657.7108L13666.1506,-3657.7171L13666.1771,-3657.7268L13666.1974,-3657.7334L13666.2204,-3657.7424L13666.226,-3657.7447L13666.2351,-3657.748L13666.2658,-3657.7587L13666.2953,-3657.7676L13666.3651,-3657.7946L13666.3969,-3657.8055L13666.4074,-3657.8106L13666.4402,-3657.8229L13666.5051,-3657.8461L13666.5358,-3657.8573L13666.556,-3657.8658L13666.5793,-3657.8753L13666.6251,-3657.8984L13666.6439,-3657.9069L13666.6509,-3657.9103L13666.6767,-3657.9204L13666.6963,-3657.9272L13666.7527,-3657.9384L13666.7716,-3657.9413L13666.8435,-3657.9548L13666.9258,-3657.9694L13666.9426,-3657.9717L13666.9922,-3657.9808"/>
<path content="1,北陸鉄道（株）,城下まち金沢周遊バス,44.0,44.0,44.0," xlink:title="1" d="M13666.5512,-3657.3486L13666.563,-3657.3628L13666.6244,-3657.4394L13666.6283,-3657.4446L13666.6084,-3657.4569L13666.6007,-3657.467L13666.5972,-3657.4721L13666.5818,-3657.507L13666.5693,-3657.5335L13666.5495,-3657.579L13666.5365,-3657.6044L13666.5337,-3657.6118L13666.5058,-3657.6748L13666.4897,-3657.7114L13666.4793,-3657.7339L13666.4527,-3657.7278L13666.4492,-3657.7261L13666.4451,-3657.7255L13666.4249,-3657.7177L13666.3927,-3657.7086L13666.3858,-3657.7069L13666.3732,-3657.703L13666.3516,-3657.6968L13666.3453,-3657.6957L13666.3237,-3657.6878L13666.2721,-3657.6726L13666.2616,-3657.6686L13666.2546,-3657.6647L13666.2484,-3657.6608L13666.2141,-3657.6348L13666.1841,-3657.6129L13666.178,-3657.6073L13666.1712,-3657.6046L13666.1293,-3657.6005L13666.1246,-3657.6001L13666.1054,-3657.5991L13666.0948,-3657.5977L13666.0104,-3657.5988L13666.0034,-3657.5993L13665.9888,-3657.6022L13665.9637,-3657.605L13665.9246,-3657.6055L13665.9022,-3657.6067L13665.8936,-3657.6068"/>
<path content="1,北陸鉄道（株）,安原線_05_on,54.5,35.0,31.5," xlink:title="1" d="M13666.9922,-3657.9808L13666.9426,-3657.9717L13666.9258,-3657.9694L13666.8435,-3657.9548L13666.7716,-3657.9413L13666.7527,-3657.9384L13666.6963,-3657.9272L13666.6767,-3657.9204L13666.6509,-3657.9103L13666.6439,-3657.9069L13666.6251,-3657.8984L13666.5793,-3657.8753L13666.556,-3657.8658L13666.5358,-3657.8573L13666.5051,-3657.8461L13666.4402,-3657.8229L13666.4074,-3657.8106L13666.3969,-3657.8055L13666.3651,-3657.7946L13666.2953,-3657.7676L13666.2658,-3657.7587L13666.2351,-3657.748L13666.226,-3657.7447L13666.2204,-3657.7424L13666.1974,-3657.7334L13666.1771,-3657.7268L13666.1506,-3657.7171L13666.1338,-3657.7108L13666.131,-3657.7098L13666.0988,-3657.6983L13666.0813,-3657.6877L13666.0721,-3657.6812L13666.0599,-3657.6726L13666.0474,-3657.6613L13666.038,-3657.6506L13665.9971,-3657.6112L13665.9888,-3657.6022L13665.9064,-3657.5216L13665.8936,-3657.5107"/>
<path content="1,北陸鉄道（株）,東金沢金大線88,5.5,0.0,0.0," xlink:title="1" d="M13666.5512,-3657.3486L13666.563,-3657.3628L13666.6244,-3657.4394L13666.6283,-3657.4446L13666.6369,-3657.4546L13666.6748,-3657.4997L13666.6928,-3657.5233L13666.7137,-3657.5481L13666.7437,-3657.5836L13666.7898,-3657.641L13666.8143,-3657.6716L13666.8218,-3657.6803L13666.8491,-3657.7126L13666.8632,-3657.7276L13666.8735,-3657.743L13666.8867,-3657.7582L13666.9272,-3657.7925L13666.9607,-3657.8252L13666.9922,-3657.8589"/>
<path content="1,北陸鉄道（株）,東金沢金大線99,5.5,0.0,0.0," xlink:title="1" d="M13666.5512,-3657.3486L13666.563,-3657.3628L13666.6244,-3657.4394L13666.6283,-3657.4446L13666.6369,-3657.4546L13666.6748,-3657.4997L13666.6928,-3657.5233L13666.7137,-3657.5481L13666.7437,-3657.5836L13666.7898,-3657.641L13666.8143,-3657.6716L13666.8218,-3657.6803L13666.8491,-3657.7126L13666.8632,-3657.7276L13666.8735,-3657.743L13666.8867,-3657.7582L13666.9272,-3657.7925L13666.9607,-3657.8252L13666.9922,-3657.8589"/>
<path content="1,北陸鉄道（株）,柳橋・円光寺線80,28.0,31.5,31.5," xlink:title="1" d="M13666.9922,-3657.8589L13666.9607,-3657.8252L13666.9272,-3657.7925L13666.8867,-3657.7582L13666.8735,-3657.743L13666.8632,-3657.7276L13666.8491,-3657.7126L13666.8218,-3657.6803L13666.8143,-3657.6716L13666.7898,-3657.641L13666.7437,-3657.5836L13666.7137,-3657.5481L13666.6928,-3657.5233L13666.6748,-3657.4997L13666.6369,-3657.4546L13666.6283,-3657.4446L13666.6244,-3657.4394L13666.563,-3657.3628L13666.5512,-3657.3486"/>
<path content="1,北陸鉄道（株）,柳橋・円光寺線84,28.0,31.5,31.5," xlink:title="1" d="M13666.9922,-3657.8589L13666.9607,-3657.8252L13666.9272,-3657.7925L13666.8867,-3657.7582L13666.8735,-3657.743L13666.8632,-3657.7276L13666.8491,-3657.7126L13666.8218,-3657.6803L13666.8143,-3657.6716L13666.7898,-3657.641L13666.7437,-3657.5836L13666.7137,-3657.5481L13666.6928,-3657.5233L13666.6748,-3657.4997L13666.6369,-3657.4546L13666.6283,-3657.4446L13666.6244,-3657.4394L13666.563,-3657.3628L13666.5512,-3657.3486"/>
<path content="1,北陸鉄道（株）,柳橋・円光寺線85,28.0,31.5,31.5," xlink:title="1" d="M13666.9922,-3657.8589L13666.9607,-3657.8252L13666.9272,-3657.7925L13666.8867,-3657.7582L13666.8735,-3657.743L13666.8632,-3657.7276L13666.8491,-3657.7126L13666.8218,-3657.6803L13666.8143,-3657.6716L13666.7898,-3657.641L13666.7437,-3657.5836L13666.7137,-3657.5481L13666.6928,-3657.5233L13666.6748,-3657.4997L13666.6369,-3657.4546L13666.6283,-3657.4446L13666.6244,-3657.4394L13666.563,-3657.3628L13666.5512,-3657.3486"/>
<path content="1,北陸鉄道（株）,柳橋・寺町線81,23.0,17.0,17.0," xlink:title="1" d="M13666.9922,-3657.8589L13666.9607,-3657.8252L13666.9272,-3657.7925L13666.8867,-3657.7582L13666.8735,-3657.743L13666.8632,-3657.7276L13666.8491,-3657.7126L13666.8218,-3657.6803L13666.8143,-3657.6716L13666.7898,-3657.641L13666.7437,-3657.5836L13666.7137,-3657.5481L13666.6928,-3657.5233L13666.6748,-3657.4997L13666.6369,-3657.4546L13666.6283,-3657.4446L13666.6244,-3657.4394L13666.563,-3657.3628L13666.5512,-3657.3486"/>
<path content="1,北陸鉄道（株）,柳橋円・光寺線32,28.0,31.5,31.5," xlink:title="1" d="M13666.9922,-3657.8589L13666.9607,-3657.8252L13666.9272,-3657.7925L13666.8867,-3657.7582L13666.8735,-3657.743L13666.8632,-3657.7276L13666.8491,-3657.7126L13666.8218,-3657.6803L13666.8143,-3657.6716L13666.7898,-3657.641L13666.7437,-3657.5836L13666.7137,-3657.5481L13666.6928,-3657.5233L13666.6748,-3657.4997L13666.6369,-3657.4546L13666.6283,-3657.4446L13666.6244,-3657.4394L13666.563,-3657.3628L13666.5512,-3657.3486"/>
<path content="1,北陸鉄道（株）,津幡線,15.5,14.0,14.0," xlink:title="1" d="M13666.9922,-3657.8589L13666.9607,-3657.8252L13666.9272,-3657.7925L13666.8867,-3657.7582L13666.8735,-3657.743L13666.8632,-3657.7276L13666.8491,-3657.7126L13666.8218,-3657.6803L13666.8143,-3657.6716L13666.7898,-3657.641L13666.7437,-3657.5836L13666.7137,-3657.5481L13666.6928,-3657.5233L13666.6748,-3657.4997L13666.6369,-3657.4546L13666.6283,-3657.4446L13666.6244,-3657.4394L13666.563,-3657.3628L13666.5512,-3657.3486"/>
<path content="1,北陸鉄道（株）,津幡線87,15.5,14.0,14.0," xlink:title="1" d="M13666.9922,-3657.9808L13666.9426,-3657.9717L13666.9258,-3657.9694L13666.8435,-3657.9548L13666.7716,-3657.9413L13666.7527,-3657.9384L13666.6963,-3657.9272L13666.6767,-3657.9204L13666.6509,-3657.9103L13666.6439,-3657.9069L13666.6251,-3657.8984L13666.5793,-3657.8753L13666.556,-3657.8658L13666.5358,-3657.8573L13666.5051,-3657.8461L13666.4402,-3657.8229L13666.4074,-3657.8106L13666.3969,-3657.8055L13666.3651,-3657.7946L13666.2953,-3657.7676L13666.2658,-3657.7587L13666.2351,-3657.748L13666.226,-3657.7447L13666.2204,-3657.7424L13666.1974,-3657.7334L13666.1771,-3657.7268L13666.1506,-3657.7171L13666.1338,-3657.7108L13666.131,-3657.7098L13666.0988,-3657.6983L13666.0813,-3657.6877L13666.0721,-3657.6812L13666.0599,-3657.6726L13666.0474,-3657.6613L13666.038,-3657.6506L13665.9971,-3657.6112L13665.9888,-3657.6022L13665.9064,-3657.5216L13665.8936,-3657.5107"/>
<path content="1,北陸鉄道（株）,田中医大病院線86_01_on,7.5,3.0,3.0," xlink:title="1" d="M13666.3213,-3658.4473L13666.3237,-3658.4138L13666.3306,-3658.3192L13666.3327,-3658.3085L13666.3389,-3658.257L13666.3418,-3658.2352L13666.3446,-3658.2212L13666.3505,-3658.1982L13666.3523,-3658.1913L13666.377,-3658.0856L13666.3837,-3658.0573L13666.3948,-3658.0077L13666.4049,-3657.9731L13666.4102,-3657.9407L13666.4144,-3657.9266L13666.436,-3657.837L13666.4402,-3657.8229L13666.4074,-3657.8106L13666.3969,-3657.8055L13666.3651,-3657.7946L13666.2953,-3657.7676L13666.2658,-3657.7587L13666.2351,-3657.748L13666.226,-3657.7447L13666.2204,-3657.7424L13666.1974,-3657.7334L13666.1771,-3657.7268L13666.1506,-3657.7171L13666.1338,-3657.7108L13666.131,-3657.7098L13666.0988,-3657.6983L13666.0813,-3657.6877L13666.0721,-3657.6812L13666.0599,-3657.6726L13666.0474,-3657.6613L13666.038,-3657.6506L13665.9971,-3657.6112L13665.9888,-3657.6022L13665.9064,-3657.5216L13665.8936,-3657.5107"/>
<path content="1,北陸鉄道（株）,田中医大病院線86_02_on,7.5,3.0,3.0," xlink:title="1" d="M13666.3213,-3658.4473L13666.3237,-3658.4138L13666.3306,-3658.3192L13666.3327,-3658.3085L13666.3389,-3658.257L13666.3418,-3658.2352L13666.3446,-3658.2212L13666.3505,-3658.1982L13666.3523,-3658.1913L13666.377,-3658.0856L13666.3837,-3658.0573L13666.3948,-3658.0077L13666.4049,-3657.9731L13666.4102,-3657.9407L13666.4144,-3657.9266L13666.436,-3657.837L13666.4402,-3657.8229L13666.4074,-3657.8106L13666.3969,-3657.8055L13666.3651,-3657.7946L13666.2953,-3657.7676L13666.2658,-3657.7587L13666.2351,-3657.748L13666.226,-3657.7447L13666.2204,-3657.7424L13666.1974,-3657.7334L13666.1771,-3657.7268L13666.1506,-3657.7171L13666.1338,-3657.7108L13666.131,-3657.7098L13666.0988,-3657.6983L13666.0813,-3657.6877L13666.0721,-3657.6812L13666.0599,-3657.6726L13666.0474,-3657.6613L13666.038,-3657.6506L13665.9971,-3657.6112L13665.9888,-3657.6022L13665.9064,-3657.5216L13665.8936,-3657.5107"/>
<path content="1,北陸鉄道（株）,畝田住宅線_03_on,15.5,9.0,9.0," xlink:title="1" d="M13665.8936,-3657.5107L13665.9064,-3657.5216L13665.9888,-3657.6022L13665.9971,-3657.6112L13666.038,-3657.6506L13666.0474,-3657.6613L13666.0599,-3657.6726L13666.0721,-3657.6812L13666.0813,-3657.6877L13666.0988,-3657.6983L13666.131,-3657.7098L13666.1338,-3657.7108L13666.1506,-3657.7171L13666.1771,-3657.7268L13666.1974,-3657.7334L13666.2204,-3657.7424L13666.226,-3657.7447L13666.2351,-3657.748L13666.2658,-3657.7587L13666.2953,-3657.7676L13666.3651,-3657.7946L13666.3969,-3657.8055L13666.4074,-3657.8106L13666.4402,-3657.8229L13666.5051,-3657.8461L13666.5358,-3657.8573L13666.556,-3657.8658L13666.5793,-3657.8753L13666.6251,-3657.8984L13666.6439,-3657.9069L13666.6509,-3657.9103L13666.6767,-3657.9204L13666.6963,-3657.9272L13666.7527,-3657.9384L13666.7716,-3657.9413L13666.8435,-3657.9548L13666.9258,-3657.9694L13666.9426,-3657.9717L13666.9922,-3657.9808"/>
<path content="1,北陸鉄道（株）,石引線,24.0,14.0,12.0," xlink:title="1" d="M13666.9922,-3657.8589L13666.9607,-3657.8252L13666.9272,-3657.7925L13666.8867,-3657.7582L13666.8735,-3657.743L13666.8632,-3657.7276L13666.8491,-3657.7126L13666.8218,-3657.6803L13666.8143,-3657.6716L13666.7898,-3657.641L13666.7437,-3657.5836L13666.7137,-3657.5481L13666.6928,-3657.5233L13666.6748,-3657.4997L13666.6369,-3657.4546L13666.6283,-3657.4446L13666.6244,-3657.4394L13666.563,-3657.3628L13666.5512,-3657.3486"/>
<path content="1,北陸鉄道（株）,石引線83,24.0,14.0,12.0," xlink:title="1" d="M13666.9922,-3657.8589L13666.9607,-3657.8252L13666.9272,-3657.7925L13666.8867,-3657.7582L13666.8735,-3657.743L13666.8632,-3657.7276L13666.8491,-3657.7126L13666.8218,-3657.6803L13666.8143,-3657.6716L13666.7898,-3657.641L13666.7437,-3657.5836L13666.7137,-3657.5481L13666.6928,-3657.5233L13666.6748,-3657.4997L13666.6369,-3657.4546L13666.6283,-3657.4446L13666.6244,-3657.4394L13666.563,-3657.3628L13666.5512,-3657.3486"/>
<path content="1,北陸鉄道（株）,錦町粟崎線_01_on,37.0,28.5,27.0," xlink:title="1" d="M13665.8936,-3657.5107L13665.9064,-3657.5216L13665.9888,-3657.6022L13665.9971,-3657.6112L13666.038,-3657.6506L13666.0474,-3657.6613L13666.0599,-3657.6726L13666.0721,-3657.6812L13666.0813,-3657.6877L13666.0988,-3657.6983L13666.131,-3657.7098L13666.1338,-3657.7108L13666.1506,-3657.7171L13666.1771,-3657.7268L13666.1974,-3657.7334L13666.2204,-3657.7424L13666.226,-3657.7447L13666.2351,-3657.748L13666.2658,-3657.7587L13666.2953,-3657.7676L13666.3651,-3657.7946L13666.3969,-3657.8055L13666.4074,-3657.8106L13666.4402,-3657.8229L13666.5051,-3657.8461L13666.5358,-3657.8573L13666.556,-3657.8658L13666.5793,-3657.8753L13666.6251,-3657.8984L13666.6439,-3657.9069L13666.6509,-3657.9103L13666.6767,-3657.9204L13666.6963,-3657.9272L13666.7527,-3657.9384L13666.7716,-3657.9413L13666.8435,-3657.9548L13666.9258,-3657.9694L13666.9426,-3657.9717L13666.9922,-3657.9808"/>
<path content="1,北陸鉄道（株）,高速バス　金沢⇔仙台,1.0,1.0,1.0," xlink:title="1" d="M13666.9922,-3658.3918L13666.9711,-3658.3873L13666.8958,-3658.3721L13666.8399,-3658.3603L13666.8384,-3658.3601L13666.8309,-3658.3586L13666.7953,-3658.3513L13666.7402,-3658.3394L13666.7137,-3658.3349L13666.6683,-3658.3254L13666.6432,-3658.3203L13666.5413,-3658.2989L13666.5218,-3658.295L13666.4137,-3658.273L13666.3676,-3658.2634L13666.3389,-3658.257L13666.2727,-3658.2398L13666.2511,-3658.233L13666.2475,-3658.232L13666.1478,-3658.2037L13666.129,-3658.1986L13666.1227,-3658.1969L13666.0927,-3658.1885L13666.046,-3658.175L13666.0188,-3658.1665L13666.0069,-3658.1637L13665.9794,-3658.1587L13665.8936,-3658.1319"/>
<path content="1,北陸鉄道（株）,高速バス　金沢⇔富山,16.0,4.0,4.0," xlink:title="1" d="M13666.3213,-3658.4473L13666.3237,-3658.4138L13666.3306,-3658.3192L13666.3327,-3658.3085L13666.3389,-3658.257L13666.2727,-3658.2398L13666.2511,-3658.233L13666.2475,-3658.232L13666.1478,-3658.2037L13666.129,-3658.1986L13666.1227,-3658.1969L13666.0927,-3658.1885L13666.046,-3658.175L13666.0188,-3658.1665L13666.0069,-3658.1637L13665.9794,-3658.1587L13665.8936,-3658.1319"/>
<path content="1,北陸鉄道（株）,高速バス　金沢⇔高岡,6.0,6.0,6.0," xlink:title="1" d="M13666.9922,-3657.8589L13666.9607,-3657.8252L13666.9272,-3657.7925L13666.8867,-3657.7582L13666.8735,-3657.743L13666.8632,-3657.7276L13666.8491,-3657.7126L13666.8218,-3657.6803L13666.8143,-3657.6716L13666.7898,-3657.641L13666.7437,-3657.5836L13666.7137,-3657.5481L13666.6928,-3657.5233L13666.6748,-3657.4997L13666.6283,-3657.4446L13666.6244,-3657.4394L13666.563,-3657.3628L13666.5512,-3657.3486"/>
<path content="1,北陸鉄道（株）,鳴和増泉線82,30.5,18.0,17.0," xlink:title="1" d="M13666.9922,-3658.3918L13666.9711,-3658.3873L13666.8958,-3658.3721L13666.8399,-3658.3603L13666.8384,-3658.3601L13666.8309,-3658.3586L13666.7953,-3658.3513L13666.7402,-3658.3394L13666.7137,-3658.3349L13666.6683,-3658.3254L13666.6432,-3658.3203L13666.5413,-3658.2989L13666.5218,-3658.295L13666.4137,-3658.273L13666.3676,-3658.2634L13666.3389,-3658.257L13666.2727,-3658.2398L13666.2511,-3658.233L13666.2475,-3658.232L13666.1478,-3658.2037L13666.129,-3658.1986L13666.1227,-3658.1969L13666.0927,-3658.1885L13666.046,-3658.175L13666.0188,-3658.1665L13666.0069,-3658.1637L13665.9794,-3658.1587L13665.8936,-3658.1319"/>
<path content="1,北陸鉄道（株）,鳴和増泉線82_01_on,30.5,18.0,17.0," xlink:title="1" d="M13666.9922,-3658.3918L13666.9711,-3658.3873L13666.8958,-3658.3721L13666.8399,-3658.3603L13666.8384,-3658.3601L13666.8309,-3658.3586L13666.7953,-3658.3513L13666.7402,-3658.3394L13666.7137,-3658.3349L13666.6683,-3658.3254L13666.6432,-3658.3203L13666.5413,-3658.2989L13666.5218,-3658.295L13666.4137,-3658.273L13666.3676,-3658.2634L13666.3389,-3658.257L13666.2727,-3658.2398L13666.2511,-3658.233L13666.2475,-3658.232L13666.1478,-3658.2037L13666.129,-3658.1986L13666.1227,-3658.1969L13666.0927,-3658.1885L13666.046,-3658.175L13666.0188,-3658.1665L13666.0069,-3658.1637L13665.9794,-3658.1587L13665.8936,-3658.1319"/>
<path content="1,北陸鉄道（株）,鳴和増泉線82_02_on,30.5,18.0,17.0," xlink:title="1" d="M13666.9922,-3658.3918L13666.9711,-3658.3873L13666.8958,-3658.3721L13666.8399,-3658.3603L13666.8384,-3658.3601L13666.8309,-3658.3586L13666.7953,-3658.3513L13666.7402,-3658.3394L13666.7137,-3658.3349L13666.6683,-3658.3254L13666.6432,-3658.3203L13666.5413,-3658.2989L13666.5218,-3658.295L13666.4137,-3658.273L13666.3676,-3658.2634L13666.3389,-3658.257L13666.2727,-3658.2398L13666.2511,-3658.233L13666.2475,-3658.232L13666.1478,-3658.2037L13666.129,-3658.1986L13666.1227,-3658.1969L13666.0927,-3658.1885L13666.046,-3658.175L13666.0188,-3658.1665L13666.0069,-3658.1637L13665.9794,-3658.1587L13665.8936,-3658.1319"/>
<path content="1,宮城交通（株）,エトアール,1.0,1.0,1.0," xlink:title="1" d="M13665.8936,-3658.1319L13665.9794,-3658.1587L13666.0069,-3658.1637L13666.0188,-3658.1665L13666.046,-3658.175L13666.0927,-3658.1885L13666.1227,-3658.1969L13666.129,-3658.1986L13666.1478,-3658.2037L13666.2475,-3658.232L13666.2511,-3658.233L13666.2727,-3658.2398L13666.3389,-3658.257L13666.3327,-3658.3085L13666.3306,-3658.3192L13666.3237,-3658.4138L13666.3213,-3658.4473"/>
<path content="1,富山地方鉄道（株）,金沢（高速バス）,16.0,20.0,20.0," xlink:title="1" d="M13666.3213,-3658.4473L13666.3237,-3658.4138L13666.3306,-3658.3192L13666.3327,-3658.3085L13666.3389,-3658.257L13666.2727,-3658.2398L13666.2511,-3658.233L13666.2475,-3658.232L13666.1478,-3658.2037L13666.129,-3658.1986L13666.1227,-3658.1969L13666.0927,-3658.1885L13666.046,-3658.175L13666.0188,-3658.1665L13666.0069,-3658.1637L13665.9794,-3658.1587L13665.8936,-3658.1319"/>
<path content="1,日本中央バス（株）,シルクライナー,5.0,5.0,5.0," xlink:title="1" d="M13666.3213,-3658.4473L13666.3237,-3658.4138L13666.3306,-3658.3192L13666.3327,-3658.3085L13666.3389,-3658.257L13666.2727,-3658.2398L13666.2511,-3658.233L13666.2475,-3658.232L13666.1478,-3658.2037L13666.129,-3658.1986L13666.1227,-3658.1969L13666.0927,-3658.1885L13666.046,-3658.175L13666.0188,-3658.1665L13666.0069,-3658.1637L13665.9794,-3658.1587L13665.8936,-3658.1319"/>
<path content="1,日本中央バス（株）,東京・さいたま～富山・金沢線,1.0,1.0,1.0," xlink:title="1" d="M13666.3213,-3658.4473L13666.3237,-3658.4138L13666.3306,-3658.3192L13666.3327,-3658.3085L13666.3389,-3658.257L13666.2727,-3658.2398L13666.2511,-3658.233L13666.2475,-3658.232L13666.1478,-3658.2037L13666.129,-3658.1986L13666.1227,-3658.1969L13666.0927,-3658.1885L13666.046,-3658.175L13666.0188,-3658.1665L13666.0069,-3658.1637L13665.9794,-3658.1587L13665.8936,-3658.1319"/>
<path content="1,濃飛乗合自動車（株）,白川郷・金沢線_01_on,2.1,3.0,3.0," xlink:title="1" d="M13666.9922,-3658.3918L13666.9711,-3658.3873L13666.8958,-3658.3721L13666.8399,-3658.3603L13666.8384,-3658.3601L13666.8309,-3658.3586L13666.7953,-3658.3513L13666.7402,-3658.3394L13666.7137,-3658.3349L13666.6683,-3658.3254L13666.6432,-3658.3203L13666.5413,-3658.2989L13666.5218,-3658.295L13666.4137,-3658.273L13666.3676,-3658.2634L13666.3389,-3658.257L13666.3376,-3658.2578L13666.2727,-3658.2398L13666.2511,-3658.233L13666.2475,-3658.232L13666.1478,-3658.2037L13666.129,-3658.1986L13666.1227,-3658.1969L13666.0927,-3658.1885L13666.046,-3658.175L13666.0188,-3658.1665L13666.0069,-3658.1637L13665.9794,-3658.1587L13665.8936,-3658.1319"/>
<path content="1,西日本JRバス（株）,名金線,4.0,4.0,4.0," xlink:title="1" d="M13666.5512,-3657.3486L13666.563,-3657.3628L13666.6244,-3657.4394L13666.6283,-3657.4446L13666.6748,-3657.4997L13666.6928,-3657.5233L13666.7137,-3657.5481L13666.7437,-3657.5836L13666.7898,-3657.641L13666.8143,-3657.6716L13666.8218,-3657.6803L13666.8491,-3657.7126L13666.8632,-3657.7276L13666.8735,-3657.743L13666.8867,-3657.7582L13666.9272,-3657.7925L13666.9607,-3657.8252L13666.9922,-3657.8589"/>
<path content="1,西東京バス（株）,001,2.0,2.0,2.0," xlink:title="1" d="M13665.8936,-3658.1319L13665.9794,-3658.1587L13666.0069,-3658.1637L13666.0188,-3658.1665L13666.046,-3658.175L13666.0927,-3658.1885L13666.1227,-3658.1969L13666.129,-3658.1986L13666.1478,-3658.2037L13666.2475,-3658.232L13666.2511,-3658.233L13666.2727,-3658.2398L13666.3389,-3658.257L13666.3676,-3658.2634L13666.4137,-3658.273L13666.5218,-3658.295L13666.5413,-3658.2989L13666.6432,-3658.3203L13666.6683,-3658.3254L13666.7137,-3658.3349L13666.7402,-3658.3394L13666.7953,-3658.3513L13666.8309,-3658.3586L13666.8384,-3658.3601L13666.8958,-3658.3721L13666.9711,-3658.3873L13666.9922,-3658.3918"/>
<path content="1,西武バス（株）,金沢線,2.0,2.0,2.0," xlink:title="1" d="M13666.3213,-3658.4473L13666.3237,-3658.4138L13666.3306,-3658.3192L13666.3327,-3658.3085L13666.3389,-3658.257L13666.2727,-3658.2398L13666.2511,-3658.233L13666.2475,-3658.232L13666.1478,-3658.2037L13666.129,-3658.1986L13666.1227,-3658.1969L13666.0927,-3658.1885L13666.046,-3658.175L13666.0188,-3658.1665L13666.0069,-3658.1637L13665.9794,-3658.1587L13665.8936,-3658.1319"/>
<path content="3,金沢市,此花ルート,2.0,2.0,2.0," xlink:title="3" d="M13665.8936,-3658.1131L13665.9001,-3658.1046L13665.9134,-3658.0877L13665.9335,-3658.0614L13665.9643,-3658.0201L13665.9678,-3658.0161L13665.9657,-3658.0043L13665.9643,-3657.9998L13666.0132,-3657.9919L13666.0369,-3657.9886L13666.0494,-3657.9874L13666.0829,-3657.9818L13666.0899,-3657.9807L13666.0976,-3657.9784L13666.1185,-3657.9745L13666.1625,-3657.9654L13666.195,-3657.9607L13666.2197,-3657.9535L13666.2295,-3657.9504L13666.2404,-3657.9434L13666.2581,-3657.93L13666.2672,-3657.9221L13666.3146,-3657.8866L13666.3753,-3657.8252L13666.3969,-3657.8055L13666.4074,-3657.8106L13666.4402,-3657.8229L13666.4492,-3657.8033L13666.4534,-3657.792L13666.4695,-3657.7582L13666.4702,-3657.7542L13666.4793,-3657.7339L13666.4527,-3657.7278L13666.4492,-3657.7261L13666.4451,-3657.7255L13666.4249,-3657.7177L13666.3927,-3657.7086L13666.3858,-3657.7069L13666.3732,-3657.703L13666.3516,-3657.6968L13666.3453,-3657.6957L13666.3237,-3657.6878L13666.2721,-3657.6726L13666.2616,-3657.6686L13666.2546,-3657.6647L13666.2484,-3657.6608L13666.2448,-3657.6585L13666.2141,-3657.6348L13666.1841,-3657.6129L13666.178,-3657.6073L13666.1712,-3657.6046L13666.1293,-3657.6005L13666.1246,-3657.6001L13666.1054,-3657.5991L13666.1018,-3657.5768L13666.0886,-3657.5306L13666.0879,-3657.5251L13666.0882,-3657.3997L13666.0885,-3657.3486"/>
</g>
</svg>
