<?xml version="1.0" encoding="UTF-8"?>
<svg  xmlns="http://www.w3.org/2000/svg" xmlns:xlink="http://www.w3.org/1999/xlink" xmlns:go="http://purl.org/svgmap/profile" property="N07_001,N07_002,N07_003,N07_004,N07_005,N07_006,N07_007" viewBox="13688.96484375 -3516.7236328125 1.0986328125 1.0986328125" go:dataArea="13688.96484375 -3516.7236328125 1.0986328125 1.0986328125" >
<metadata>
 <rdf:RDF xmlns:rdf="http://www.w3.org/1999/02/22-rdf-syntax-ns#" xmlns:crs="http://opengis.org/xmldtds/transformations.dtd" xmlns:svg="http://www.w3.org/svg" >
  <rdf:Description>
   <crs:CoordinateReferenceSystem rdf:resource="http://purl.org/crs/84" svg:transform="matrix(100.0,0.0,0.0,-100.0,0.0,0.0)" />
  </rdf:Description>
 </rdf:RDF>
</metadata>
<globalCoordinateSystem srsName="http://purl.org/crs/84" transform="matrix(100.0,0.0,0.0,-100.0,0.0,0.0)" />
<defs>
 <g id="p0" >
  <circle cx="0.0" cy="0.0" r="3" stroke="green" stroke-width="0.75" vector-effect="non-scaling-stroke" />
 </g>
</defs>
<g fill="none" fill-rule="evenodd" stroke="#FF00FF" stroke-width="0.75" opacity="0.5" vector-effect="non-scaling-stroke" stroke-linejoin="bevel" >
<path content="1,JRバス関東（株）,新宿ドリーム三河・なごや号,1.0,1.0,1.0," xlink:title="1" d="M13689.2114,-3515.625L13689.2105,-3515.6583L13689.2026,-3515.6839L13689.1987,-3515.7064L13689.1967,-3515.7185L13689.178,-3515.8014L13689.1732,-3515.8226L13689.1499,-3515.9262L13689.1438,-3515.9624L13689.12,-3516.0573L13689.1047,-3516.1241L13689.0914,-3516.1821L13689.091,-3516.1837L13689.085,-3516.2143L13689.0791,-3516.2447L13689.0716,-3516.2827L13689.0649,-3516.3172L13689.0614,-3516.3349L13689.055,-3516.3747L13689.0395,-3516.446L13689.0377,-3516.4542L13689.0356,-3516.4646L13689.0219,-3516.5343L13689.0132,-3516.5817L13688.9958,-3516.6611L13688.9904,-3516.6858L13688.9896,-3516.6908L13688.9885,-3516.6959L13688.9857,-3516.7081L13688.9829,-3516.7236"/>
<path content="1,JRバス関東（株）,新宿ライナー三河・なごや号,1.0,1.0,1.0," xlink:title="1" d="M13689.2114,-3515.625L13689.2105,-3515.6583L13689.2026,-3515.6839L13689.1987,-3515.7064L13689.1967,-3515.7185L13689.178,-3515.8014L13689.1732,-3515.8226L13689.1499,-3515.9262L13689.1438,-3515.9624L13689.12,-3516.0573L13689.1047,-3516.1241L13689.0914,-3516.1821L13689.091,-3516.1837L13689.085,-3516.2143L13689.0791,-3516.2447L13689.0716,-3516.2827L13689.0649,-3516.3172L13689.0614,-3516.3349L13689.055,-3516.3747L13689.0395,-3516.446L13689.0377,-3516.4542L13689.0356,-3516.4646L13689.0219,-3516.5343L13689.0132,-3516.5817L13688.9958,-3516.6611L13688.9904,-3516.6858L13688.9896,-3516.6908L13688.9885,-3516.6959L13688.9857,-3516.7081L13688.9829,-3516.7236"/>
<path content="1,JR東海バス（株）,オリーブ松山号,1.0,1.0,1.0," xlink:title="1" d="M13688.9648,-3516.1859L13688.9933,-3516.1936L13689.0414,-3516.2058L13689.085,-3516.2143L13689.0791,-3516.2447L13689.0716,-3516.2827L13689.0649,-3516.3172L13689.0614,-3516.3349L13689.055,-3516.3747L13689.0379,-3516.4541L13689.017,-3516.556L13689.0078,-3516.6015L13689.0002,-3516.6391L13688.9924,-3516.6779L13688.9858,-3516.7081L13688.9829,-3516.7236"/>
<path content="1,JR東海バス（株）,セレナーデ号,1.0,1.0,1.0," xlink:title="1" d="M13688.9648,-3516.1859L13688.9933,-3516.1936L13689.0414,-3516.2058L13689.085,-3516.2143L13689.0791,-3516.2447L13689.0716,-3516.2827L13689.0649,-3516.3172L13689.0614,-3516.3349L13689.055,-3516.3747L13689.0379,-3516.4541L13689.017,-3516.556L13689.0078,-3516.6015L13689.0002,-3516.6391L13688.9924,-3516.6779L13688.9858,-3516.7081L13688.9829,-3516.7236"/>
<path content="1,JR東海バス（株）,ドリームなごや号_02_on,3.0,3.0,3.0," xlink:title="1" d="M13688.9648,-3516.2496L13688.9763,-3516.2421L13689.0012,-3516.2286L13689.0083,-3516.2274L13689.0352,-3516.2269L13689.0668,-3516.2284L13689.0824,-3516.2282L13689.101,-3516.2287L13689.1318,-3516.2288L13689.1621,-3516.2292L13689.1886,-3516.2274L13689.2184,-3516.2246L13689.2253,-3516.2216L13689.242,-3516.2222L13689.2636,-3516.2231L13689.2748,-3516.2234L13689.287,-3516.2233L13689.2952,-3516.2228L13689.3636,-3516.2244L13689.4714,-3516.2262L13689.5728,-3516.2284L13689.5914,-3516.2285L13689.6727,-3516.229L13689.7874,-3516.2299L13689.927,-3516.2324L13690.0635,-3516.2345"/>
<path content="1,JR東海バス（株）,名神ハイウェイバス_01_on,29.0,29.0,29.0," xlink:title="1" d="M13688.9648,-3516.1859L13688.9933,-3516.1936L13689.0414,-3516.2058L13689.085,-3516.2143L13689.0791,-3516.2447L13689.0716,-3516.2827L13689.0649,-3516.3172L13689.0614,-3516.3349L13689.055,-3516.3747L13689.0379,-3516.4541L13689.017,-3516.556L13689.0078,-3516.6015L13689.0002,-3516.6391L13688.9924,-3516.6779L13688.9858,-3516.7081L13688.9829,-3516.7236"/>
<path content="1,JR東海バス（株）,名神ハイウェイバス_03_on,29.0,29.0,29.0," xlink:title="1" d="M13688.9648,-3516.1859L13688.9933,-3516.1936L13689.0414,-3516.2058L13689.085,-3516.2143L13689.0791,-3516.2447L13689.0716,-3516.2827L13689.0649,-3516.3172L13689.0614,-3516.3349L13689.055,-3516.3747L13689.0379,-3516.4541L13689.017,-3516.556L13689.0078,-3516.6015L13689.0002,-3516.6391L13688.9924,-3516.6779L13688.9858,-3516.7081L13688.9829,-3516.7236"/>
<path content="1,JR東海バス（株）,名神ハイウェイバス_05_on,29.0,29.0,29.0," xlink:title="1" d="M13688.9829,-3516.7236L13688.9858,-3516.7081L13688.9924,-3516.6779L13689.0002,-3516.6391L13689.0078,-3516.6015L13689.017,-3516.556L13689.0379,-3516.4541L13689.055,-3516.3747L13689.0614,-3516.3349L13689.0649,-3516.3172L13689.0716,-3516.2827L13689.0791,-3516.2447L13689.085,-3516.2143L13689.0414,-3516.2058L13688.9933,-3516.1936L13688.9648,-3516.1859"/>
<path content="1,JR東海バス（株）,新宿ドリーム三河・なごや号,1.0,1.0,1.0," xlink:title="1" d="M13688.9648,-3516.2496L13688.9763,-3516.2421L13689.0012,-3516.2286L13689.0083,-3516.2274L13689.0352,-3516.2269L13689.0668,-3516.2284L13689.0824,-3516.2282L13689.101,-3516.2287L13689.1318,-3516.2288L13689.1621,-3516.2292L13689.1886,-3516.2274L13689.2184,-3516.2246L13689.2253,-3516.2216L13689.242,-3516.2222L13689.2636,-3516.2231L13689.2748,-3516.2234L13689.287,-3516.2233L13689.2952,-3516.2228L13689.3636,-3516.2244L13689.4714,-3516.2262L13689.5728,-3516.2284L13689.5914,-3516.2285L13689.6727,-3516.229L13689.7874,-3516.2299L13689.927,-3516.2324L13690.0635,-3516.2345"/>
<path content="1,JR東海バス（株）,新宿ライナー三河・なごや号,1.0,1.0,1.0," xlink:title="1" d="M13690.0635,-3516.2345L13689.927,-3516.2324L13689.7874,-3516.2299L13689.6727,-3516.229L13689.5914,-3516.2285L13689.5728,-3516.2284L13689.4714,-3516.2262L13689.3636,-3516.2244L13689.2952,-3516.2228L13689.287,-3516.2233L13689.2748,-3516.2234L13689.2636,-3516.2231L13689.242,-3516.2222L13689.2253,-3516.2216L13689.2184,-3516.2246L13689.1886,-3516.2274L13689.1621,-3516.2292L13689.1318,-3516.2288L13689.101,-3516.2287L13689.0824,-3516.2282L13689.0668,-3516.2284L13689.0352,-3516.2269L13689.0083,-3516.2274L13689.0012,-3516.2286L13688.9763,-3516.2421L13688.9648,-3516.2496"/>
<path content="1,三交南紀交通（株）,名古屋南紀高速バス,5.0,5.0,5.0," xlink:title="1" d="M13688.9648,-3516.1859L13688.9933,-3516.1936L13689.0414,-3516.2058L13689.085,-3516.2143L13689.0791,-3516.2447L13689.0716,-3516.2827L13689.0649,-3516.3172L13689.0614,-3516.3349L13689.0531,-3516.3766L13689.0379,-3516.4541L13689.0231,-3516.5229L13689.017,-3516.556L13689.0078,-3516.6015L13689.0002,-3516.6391L13688.9924,-3516.6779L13688.9858,-3516.7081L13688.9829,-3516.7236"/>
<path content="1,三重交通（株）,上野～名古屋,9.0,10.0,10.0," xlink:title="1" d="M13688.9648,-3516.1859L13688.9933,-3516.1936L13689.0414,-3516.2058L13689.085,-3516.2143L13689.0791,-3516.2447L13689.0716,-3516.2827L13689.0649,-3516.3172L13689.0614,-3516.3349L13689.0531,-3516.3766L13689.0379,-3516.4541L13689.0231,-3516.5229L13689.017,-3516.556L13689.0078,-3516.6015L13689.0002,-3516.6391L13688.9924,-3516.6779L13688.9858,-3516.7081L13688.9829,-3516.7236"/>
<path content="1,三重交通（株）,名古屋桑名線_01_on,27.0,27.5,27.5," xlink:title="1" d="M13688.9835,-3516.7236L13688.9888,-3516.6959L13688.9904,-3516.6857L13689.0132,-3516.5817L13689.0219,-3516.5343L13689.0377,-3516.4542L13689.0467,-3516.4133L13689.055,-3516.3747L13689.0611,-3516.3367L13689.0697,-3516.2949L13689.0736,-3516.2739L13689.0824,-3516.2282L13689.0982,-3516.1474L13689.0998,-3516.1391L13689.1137,-3516.077L13689.1438,-3515.9624L13689.1744,-3515.8087L13689.2022,-3515.7008L13689.2105,-3515.6583L13689.2139,-3515.625"/>
<path content="1,三重交通（株）,名古屋桑名線_02_on,1.0,0.0,0.0," xlink:title="1" d="M13689.2139,-3515.625L13689.2105,-3515.6583L13689.2022,-3515.7008L13689.1744,-3515.8087L13689.1438,-3515.9624L13689.1137,-3516.077L13689.0998,-3516.1391L13689.0982,-3516.1474L13689.0824,-3516.2282L13689.0736,-3516.2739L13689.0697,-3516.2949L13689.0611,-3516.3367L13689.055,-3516.3747L13689.0467,-3516.4133L13689.0377,-3516.4542L13689.0219,-3516.5343L13689.0132,-3516.5817L13688.9904,-3516.6857L13688.9888,-3516.6959L13688.9835,-3516.7236"/>
<path content="1,三重交通（株）,名古屋～長島温泉,24.5,28.0,28.0," xlink:title="1" d="M13688.9648,-3516.1859L13688.9933,-3516.1936L13689.0414,-3516.2058L13689.085,-3516.2143L13689.0791,-3516.2447L13689.0716,-3516.2827L13689.0649,-3516.3172L13689.0614,-3516.3349L13689.0531,-3516.3766L13689.0379,-3516.4541L13689.0231,-3516.5229L13689.017,-3516.556L13689.0078,-3516.6015L13689.0002,-3516.6391L13688.9924,-3516.6779L13688.9858,-3516.7081L13688.9829,-3516.7236"/>
<path content="1,三重交通（株）,名四線_01_on,29.5,30.0,30.0," xlink:title="1" d="M13688.9835,-3516.7236L13688.9888,-3516.6959L13688.9904,-3516.6857L13689.0132,-3516.5817L13689.0219,-3516.5343L13689.0377,-3516.4542L13689.0467,-3516.4133L13689.055,-3516.3747L13689.0611,-3516.3367L13689.0697,-3516.2949L13689.0736,-3516.2739L13689.0824,-3516.2282L13689.0982,-3516.1474L13689.0998,-3516.1391L13689.1137,-3516.077L13689.1438,-3515.9624L13689.1744,-3515.8087L13689.2022,-3515.7008L13689.2105,-3515.6583L13689.2139,-3515.625"/>
<path content="1,三重交通（株）,名四線_02_on,1.0,0.0,0.0," xlink:title="1" d="M13689.2139,-3515.625L13689.2105,-3515.6583L13689.2022,-3515.7008L13689.1744,-3515.8087L13689.1438,-3515.9624L13689.1137,-3516.077L13689.0998,-3516.1391L13689.0982,-3516.1474L13689.0824,-3516.2282L13689.0736,-3516.2739L13689.0697,-3516.2949L13689.0611,-3516.3367L13689.055,-3516.3747L13689.0467,-3516.4133L13689.0377,-3516.4542L13689.0219,-3516.5343L13689.0132,-3516.5817L13688.9904,-3516.6857L13688.9888,-3516.6959L13688.9835,-3516.7236"/>
<path content="1,三重交通（株）,栄～長島温泉,6.0,6.0,6.0," xlink:title="1" d="M13688.9648,-3516.1859L13688.9933,-3516.1936L13689.0414,-3516.2058L13689.085,-3516.2143L13689.0791,-3516.2447L13689.0716,-3516.2827L13689.0649,-3516.3172L13689.0614,-3516.3349L13689.0531,-3516.3766L13689.0379,-3516.4541L13689.0231,-3516.5229L13689.017,-3516.556L13689.0078,-3516.6015L13689.0002,-3516.6391L13688.9924,-3516.6779L13688.9858,-3516.7081L13688.9829,-3516.7236"/>
<path content="1,三重交通（株）,湯の山線,16.0,28.0,28.0," xlink:title="1" d="M13688.9648,-3516.1859L13688.9933,-3516.1936L13689.0414,-3516.2058L13689.085,-3516.2143L13689.0791,-3516.2447L13689.0716,-3516.2827L13689.0649,-3516.3172L13689.0614,-3516.3349L13689.0531,-3516.3766L13689.0379,-3516.4541L13689.0231,-3516.5229L13689.017,-3516.556L13689.0078,-3516.6015L13689.0002,-3516.6391L13688.9924,-3516.6779L13688.9858,-3516.7081L13688.9829,-3516.7236"/>
<path content="1,三重交通（株）,湯の山～名古屋,4.0,4.0,4.0," xlink:title="1" d="M13688.9648,-3516.1859L13688.9933,-3516.1936L13689.0414,-3516.2058L13689.085,-3516.2143L13689.0791,-3516.2447L13689.0716,-3516.2827L13689.0649,-3516.3172L13689.0614,-3516.3349L13689.0531,-3516.3766L13689.0379,-3516.4541L13689.0231,-3516.5229L13689.017,-3516.556L13689.0078,-3516.6015L13689.0002,-3516.6391L13688.9924,-3516.6779L13688.9858,-3516.7081L13688.9829,-3516.7236"/>
<path content="1,両備ホールディングス（株）,リョービ・エクスプレス　倉敷・岡山～名古屋線,1.0,1.0,1.0," xlink:title="1" d="M13688.9648,-3516.186L13688.9933,-3516.1936L13689.0414,-3516.2058L13689.085,-3516.2143L13689.0791,-3516.2447L13689.0716,-3516.2827L13689.0649,-3516.3172L13689.0614,-3516.3349L13689.0531,-3516.3766L13689.0379,-3516.4541L13689.017,-3516.556L13689.0078,-3516.6015L13689.0002,-3516.6391L13688.9924,-3516.6779L13688.9857,-3516.7081L13688.9829,-3516.7236"/>
<path content="1,中国JRバス（株）,広島・三次～名古屋　セレナーデ号,1.0,1.0,1.0," xlink:title="1" d="M13688.9648,-3516.186L13688.9933,-3516.1936L13689.0414,-3516.2058L13689.085,-3516.2143L13689.0791,-3516.2447L13689.0716,-3516.2827L13689.0649,-3516.3172L13689.0614,-3516.3349L13689.0531,-3516.3766L13689.0379,-3516.4541L13689.017,-3516.556L13689.0078,-3516.6015L13689.0002,-3516.6391L13688.9924,-3516.6779L13688.9857,-3516.7081L13688.9829,-3516.7236"/>
<path content="1,京王バス南（株）,新宿～名古屋線,2.0,2.0,2.0," xlink:title="1" d="M13688.9648,-3516.2501L13688.9678,-3516.2482L13688.9763,-3516.2421L13688.9818,-3516.2387L13688.9905,-3516.2331L13688.9954,-3516.2308L13689.0012,-3516.2286L13689.0083,-3516.2274L13689.035,-3516.2269L13689.0352,-3516.2269L13689.0668,-3516.2284L13689.0823,-3516.2283L13689.0824,-3516.2283L13689.101,-3516.2287L13689.1318,-3516.2288L13689.1621,-3516.2292L13689.1886,-3516.2274L13689.2184,-3516.2246L13689.2253,-3516.2216L13689.242,-3516.2222L13689.2636,-3516.2231L13689.2748,-3516.2234L13689.287,-3516.2233L13689.3307,-3516.2481L13689.3359,-3516.2509L13689.3401,-3516.2531L13689.3763,-3516.2608L13689.4107,-3516.2611L13689.5494,-3516.2639L13689.6753,-3516.2641L13689.6927,-3516.2644L13689.7671,-3516.2658L13689.8103,-3516.2665L13689.8066,-3516.3059L13689.8023,-3516.3489L13689.8007,-3516.3649L13689.7932,-3516.436L13689.7871,-3516.4952L13689.7852,-3516.5139L13689.7844,-3516.539L13689.7751,-3516.6026L13689.7737,-3516.6141L13689.7723,-3516.6352L13689.772,-3516.6418L13689.7678,-3516.6807L13689.7653,-3516.7078L13689.7637,-3516.7236"/>
<path content="1,名鉄バス（株）,名古屋～京都_01_on,16.0,16.0,16.0," xlink:title="1" d="M13688.9829,-3516.7236L13688.9858,-3516.7081L13688.9924,-3516.6779L13689.0002,-3516.6391L13689.0078,-3516.6015L13689.017,-3516.556L13689.0379,-3516.4541L13689.055,-3516.3747L13689.0614,-3516.3349L13689.0649,-3516.3172L13689.0716,-3516.2827L13689.0791,-3516.2447L13689.085,-3516.2143L13689.0414,-3516.2058L13688.9933,-3516.1936L13688.9648,-3516.1859"/>
<path content="1,名鉄バス（株）,名古屋～熊本,1.0,1.0,1.0," xlink:title="1" d="M13688.9648,-3516.1859L13688.9933,-3516.1936L13689.0414,-3516.2058L13689.085,-3516.2143L13689.0791,-3516.2447L13689.0716,-3516.2827L13689.0649,-3516.3172L13689.0614,-3516.3349L13689.055,-3516.3747L13689.0379,-3516.4541L13689.017,-3516.556L13689.0078,-3516.6015L13689.0002,-3516.6391L13688.9924,-3516.6779L13688.9858,-3516.7081L13688.9829,-3516.7236"/>
<path content="1,名鉄バス（株）,名古屋～福岡,1.0,1.0,1.0," xlink:title="1" d="M13688.9648,-3516.1859L13688.9933,-3516.1936L13689.0414,-3516.2058L13689.085,-3516.2143L13689.0957,-3516.2163L13689.1216,-3516.2188L13689.1607,-3516.2209L13689.2253,-3516.2216L13689.242,-3516.2222L13689.2636,-3516.2231L13689.2748,-3516.2234L13689.287,-3516.2233L13689.2952,-3516.2228L13689.3636,-3516.2244L13689.4714,-3516.2262L13689.5728,-3516.2284L13689.5914,-3516.2285L13689.6727,-3516.229L13689.7874,-3516.2299L13689.927,-3516.2324L13690.0635,-3516.2345"/>
<path content="1,名鉄バス（株）,名古屋～長崎,1.0,1.0,1.0," xlink:title="1" d="M13688.9648,-3516.1859L13688.9933,-3516.1936L13689.0414,-3516.2058L13689.085,-3516.2143L13689.0791,-3516.2447L13689.0716,-3516.2827L13689.0649,-3516.3172L13689.0614,-3516.3349L13689.055,-3516.3747L13689.0379,-3516.4541L13689.017,-3516.556L13689.0078,-3516.6015L13689.0002,-3516.6391L13688.9924,-3516.6779L13688.9858,-3516.7081L13688.9829,-3516.7236"/>
<path content="1,名鉄バス（株）,基幹バス本地ヶ原線_01_on,36.5,33.0,33.0," xlink:title="1" d="M13688.9648,-3516.2496L13688.9763,-3516.2421L13689.0012,-3516.2286L13689.0083,-3516.2274L13689.0352,-3516.2269L13689.0668,-3516.2284L13689.0824,-3516.2282L13689.101,-3516.2287L13689.1318,-3516.2288L13689.1621,-3516.2292L13689.1886,-3516.2274L13689.2184,-3516.2246L13689.2253,-3516.2216L13689.242,-3516.2222L13689.2636,-3516.2231L13689.2748,-3516.2234L13689.287,-3516.2233L13689.3307,-3516.2481L13689.3359,-3516.2509L13689.3401,-3516.2531L13689.3763,-3516.2608L13689.4107,-3516.2611L13689.5494,-3516.2639L13689.6388,-3516.2578L13689.7671,-3516.2657L13689.8103,-3516.2665L13689.8451,-3516.2682L13689.8984,-3516.2654L13690.0635,-3516.2674"/>
<path content="1,名鉄バス（株）,基幹バス本地ヶ原線_02_on,36.5,33.0,33.0," xlink:title="1" d="M13688.9648,-3516.2496L13688.9763,-3516.2421L13689.0012,-3516.2286L13689.0083,-3516.2274L13689.0352,-3516.2269L13689.0668,-3516.2284L13689.0824,-3516.2282L13689.101,-3516.2287L13689.1318,-3516.2288L13689.1621,-3516.2292L13689.1886,-3516.2274L13689.2184,-3516.2246L13689.2253,-3516.2216L13689.242,-3516.2222L13689.2636,-3516.2231L13689.2748,-3516.2234L13689.287,-3516.2233L13689.3307,-3516.2481L13689.3359,-3516.2509L13689.3401,-3516.2531L13689.3763,-3516.2608L13689.4107,-3516.2611L13689.5494,-3516.2639L13689.6388,-3516.2578L13689.7671,-3516.2657L13689.8103,-3516.2665L13689.8451,-3516.2682L13689.8984,-3516.2654L13690.0635,-3516.2674"/>
<path content="1,名鉄バス（株）,基幹バス本地ヶ原線_03_on,36.5,33.0,33.0," xlink:title="1" d="M13688.9648,-3516.2496L13688.9763,-3516.2421L13689.0012,-3516.2286L13689.0083,-3516.2274L13689.0352,-3516.2269L13689.0668,-3516.2284L13689.0824,-3516.2282L13689.101,-3516.2287L13689.1318,-3516.2288L13689.1621,-3516.2292L13689.1886,-3516.2274L13689.2184,-3516.2246L13689.2253,-3516.2216L13689.242,-3516.2222L13689.2636,-3516.2231L13689.2748,-3516.2234L13689.287,-3516.2233L13689.3307,-3516.2481L13689.3359,-3516.2509L13689.3401,-3516.2531L13689.3763,-3516.2608L13689.4107,-3516.2611L13689.5494,-3516.2639L13689.6388,-3516.2578L13689.7671,-3516.2657L13689.8103,-3516.2665L13689.8451,-3516.2682L13689.8984,-3516.2654L13690.0635,-3516.2674"/>
<path content="1,名鉄バス（株）,基幹バス本地ヶ原線_04_on,36.5,33.0,33.0," xlink:title="1" d="M13688.9648,-3516.2496L13688.9763,-3516.2421L13689.0012,-3516.2286L13689.0083,-3516.2274L13689.0352,-3516.2269L13689.0668,-3516.2284L13689.0824,-3516.2282L13689.101,-3516.2287L13689.1318,-3516.2288L13689.1621,-3516.2292L13689.1886,-3516.2274L13689.2184,-3516.2246L13689.2253,-3516.2216L13689.242,-3516.2222L13689.2636,-3516.2231L13689.2748,-3516.2234L13689.287,-3516.2233L13689.3307,-3516.2481L13689.3359,-3516.2509L13689.3401,-3516.2531L13689.3763,-3516.2608L13689.4107,-3516.2611L13689.5494,-3516.2639L13689.6388,-3516.2578L13689.7671,-3516.2657L13689.8103,-3516.2665L13689.8451,-3516.2682L13689.8984,-3516.2654L13690.0635,-3516.2674"/>
<path content="1,名鉄バス（株）,基幹バス本地ヶ原線_05_on,36.5,33.0,33.0," xlink:title="1" d="M13688.9648,-3516.2496L13688.9763,-3516.2421L13689.0012,-3516.2286L13689.0083,-3516.2274L13689.0352,-3516.2269L13689.0668,-3516.2284L13689.0824,-3516.2282L13689.101,-3516.2287L13689.1318,-3516.2288L13689.1621,-3516.2292L13689.1886,-3516.2274L13689.2184,-3516.2246L13689.2253,-3516.2216L13689.242,-3516.2222L13689.2636,-3516.2231L13689.2748,-3516.2234L13689.287,-3516.2233L13689.3307,-3516.2481L13689.3359,-3516.2509L13689.3401,-3516.2531L13689.3763,-3516.2608L13689.4107,-3516.2611L13689.5494,-3516.2639L13689.6388,-3516.2578L13689.7671,-3516.2657L13689.8103,-3516.2665L13689.8451,-3516.2682L13689.8984,-3516.2654L13690.0635,-3516.2674"/>
<path content="1,名鉄バス（株）,基幹バス本地ヶ原線_06_on,36.5,33.0,33.0," xlink:title="1" d="M13688.9648,-3516.2496L13688.9763,-3516.2421L13689.0012,-3516.2286L13689.0083,-3516.2274L13689.0352,-3516.2269L13689.0668,-3516.2284L13689.0824,-3516.2282L13689.101,-3516.2287L13689.1318,-3516.2288L13689.1621,-3516.2292L13689.1886,-3516.2274L13689.2184,-3516.2246L13689.2253,-3516.2216L13689.242,-3516.2222L13689.2636,-3516.2231L13689.2748,-3516.2234L13689.287,-3516.2233L13689.3307,-3516.2481L13689.3359,-3516.2509L13689.3401,-3516.2531L13689.3763,-3516.2608L13689.4107,-3516.2611L13689.5494,-3516.2639L13689.6388,-3516.2578L13689.7671,-3516.2657L13689.8103,-3516.2665L13689.8451,-3516.2682L13689.8984,-3516.2654L13690.0635,-3516.2674"/>
<path content="1,名鉄バス（株）,基幹バス本地ヶ原線_07_on,36.5,33.0,33.0," xlink:title="1" d="M13688.9648,-3516.2496L13688.9763,-3516.2421L13689.0012,-3516.2286L13689.0083,-3516.2274L13689.0352,-3516.2269L13689.0668,-3516.2284L13689.0824,-3516.2282L13689.101,-3516.2287L13689.1318,-3516.2288L13689.1621,-3516.2292L13689.1886,-3516.2274L13689.2184,-3516.2246L13689.2253,-3516.2216L13689.242,-3516.2222L13689.2636,-3516.2231L13689.2748,-3516.2234L13689.287,-3516.2233L13689.3307,-3516.2481L13689.3359,-3516.2509L13689.3401,-3516.2531L13689.3763,-3516.2608L13689.4107,-3516.2611L13689.5494,-3516.2639L13689.6388,-3516.2578L13689.7671,-3516.2657L13689.8103,-3516.2665L13689.8451,-3516.2682L13689.8984,-3516.2654L13690.0635,-3516.2674"/>
<path content="1,名鉄バス（株）,都市間高速バス可児市役所線,17.0,17.0,17.0," xlink:title="1" d="M13689.7637,-3516.7236L13689.7653,-3516.7078L13689.7678,-3516.6807L13689.772,-3516.6418L13689.7737,-3516.6141L13689.8916,-3516.6227L13689.8991,-3516.6238L13689.9574,-3516.6278L13690.0047,-3516.63L13689.9978,-3516.7111L13689.9965,-3516.7236"/>
<path content="1,名鉄バス（株）,都市間高速バス多治見線,11.5,11.5,11.5," xlink:title="1" d="M13689.7637,-3516.7236L13689.7653,-3516.7078L13689.7678,-3516.6807L13689.772,-3516.6418L13689.7737,-3516.6141L13689.8916,-3516.6227L13689.8991,-3516.6238L13689.9574,-3516.6278L13690.0047,-3516.63L13689.9978,-3516.7111L13689.9965,-3516.7236"/>
<path content="1,名鉄バス（株）,都市間高速バス桃花台線_01_on,21.0,21.0,21.0," xlink:title="1" d="M13689.7637,-3516.7236L13689.7653,-3516.7078L13689.7678,-3516.6807L13689.772,-3516.6418L13689.7737,-3516.6141L13689.8916,-3516.6227L13689.8991,-3516.6238L13689.9574,-3516.6278L13690.0047,-3516.63L13689.9978,-3516.7111L13689.9965,-3516.7236"/>
<path content="1,名鉄バス（株）,都市間高速バス桃花台線_02_on,21.0,21.0,21.0," xlink:title="1" d="M13689.7637,-3516.7236L13689.7653,-3516.7078L13689.7678,-3516.6807L13689.772,-3516.6418L13689.7737,-3516.6141L13689.8916,-3516.6227L13689.8991,-3516.6238L13689.9574,-3516.6278L13690.0047,-3516.63L13689.9978,-3516.7111L13689.9965,-3516.7236"/>
<path content="1,名鉄バス（株）,都市間高速バス関・美濃線_01_on,11.0,11.0,11.0," xlink:title="1" d="M13689.7637,-3516.7236L13689.7653,-3516.7078L13689.7678,-3516.6807L13689.772,-3516.6418L13689.7737,-3516.6141L13689.8916,-3516.6227L13689.8991,-3516.6238L13689.9574,-3516.6278L13690.0047,-3516.63L13689.9978,-3516.7111L13689.9965,-3516.7236"/>
<path content="1,名鉄バス（株）,都市間高速バス関・美濃線_02_on,11.0,11.0,11.0," xlink:title="1" d="M13689.7637,-3516.7236L13689.7653,-3516.7078L13689.7678,-3516.6807L13689.772,-3516.6418L13689.7737,-3516.6141L13689.8916,-3516.6227L13689.8991,-3516.6238L13689.9574,-3516.6278L13690.0047,-3516.63L13689.9978,-3516.7111L13689.9965,-3516.7236"/>
<path content="1,名阪近鉄バス（株）,名古屋～京都_01_on,29.0,29.0,29.0," xlink:title="1" d="M13688.9648,-3516.1859L13688.9933,-3516.1936L13689.0414,-3516.2058L13689.085,-3516.2143L13689.0791,-3516.2447L13689.0716,-3516.2827L13689.0649,-3516.3172L13689.0614,-3516.3349L13689.055,-3516.3747L13689.0379,-3516.4541L13689.017,-3516.556L13689.0078,-3516.6015L13689.0002,-3516.6391L13688.9924,-3516.6779L13688.9858,-3516.7081L13688.9829,-3516.7236"/>
<path content="1,岐阜乗合自動車（株）,高速名古屋線,11.0,11.0,11.0," xlink:title="1" d="M13689.7637,-3516.7236L13689.7653,-3516.7078L13689.7678,-3516.6807L13689.772,-3516.6418L13689.7737,-3516.6141L13689.8916,-3516.6227L13689.8991,-3516.6238L13689.9574,-3516.6278L13690.0047,-3516.63L13689.9978,-3516.7111L13689.9965,-3516.7236"/>
<path content="1,徳島バス（株）,徳島⇔名古屋,2.0,2.0,2.0," xlink:title="1" d="M13688.9648,-3516.1859L13688.9933,-3516.1936L13689.0414,-3516.2058L13689.085,-3516.2143L13689.0791,-3516.2447L13689.0716,-3516.2827L13689.0649,-3516.3172L13689.0614,-3516.3349L13689.0531,-3516.3766L13689.0379,-3516.4541L13689.0231,-3516.5229L13689.017,-3516.556L13689.0078,-3516.6015L13689.0002,-3516.6391L13688.9924,-3516.6779L13688.9858,-3516.7081L13688.9829,-3516.7236"/>
<path content="1,日本中央バス（株）,シルクライナー,5.0,5.0,5.0," xlink:title="1" d="M13689.8554,-3515.625L13689.8542,-3515.6422L13689.8533,-3515.652L13689.8489,-3515.7429L13689.8472,-3515.7657L13689.8461,-3515.7787L13689.8436,-3515.8006L13689.8431,-3515.811L13689.8407,-3515.855L13689.8399,-3515.8646L13689.8368,-3515.9042L13689.8353,-3515.9297L13689.8342,-3515.9495L13689.8324,-3515.9574L13689.8325,-3515.9816L13689.8299,-3516.023L13689.8288,-3516.0345L13689.8261,-3516.08L13689.8259,-3516.086L13689.822,-3516.1404L13689.8196,-3516.1698L13689.8164,-3516.2032L13689.8138,-3516.2304L13689.7874,-3516.2299L13689.6961,-3516.2292L13689.6727,-3516.229L13689.5914,-3516.2285L13689.5728,-3516.2284L13689.5522,-3516.2279L13689.4714,-3516.2262L13689.4141,-3516.2252L13689.3636,-3516.2244L13689.2952,-3516.2228L13689.287,-3516.2233L13689.2748,-3516.2234L13689.2636,-3516.2231L13689.242,-3516.2222L13689.2253,-3516.2216L13689.2184,-3516.2246L13689.1886,-3516.2274L13689.1621,-3516.2292L13689.1318,-3516.2288L13689.101,-3516.2287L13689.0824,-3516.2283L13689.0823,-3516.2283L13689.0668,-3516.2284L13689.0352,-3516.2269L13689.035,-3516.2269L13689.0083,-3516.2274L13689.0012,-3516.2286L13688.9954,-3516.2308L13688.9905,-3516.2331L13688.9818,-3516.2387L13688.9763,-3516.2421L13688.9678,-3516.2482L13688.9648,-3516.2501"/>
<path content="1,日本中央バス（株）,東海ライナー,2.0,2.0,2.0," xlink:title="1" d="M13688.9648,-3516.2502L13688.9681,-3516.2481L13688.9763,-3516.2421L13688.9818,-3516.2386L13688.9906,-3516.2333L13688.9956,-3516.231L13689.0013,-3516.2287L13689.0085,-3516.2275L13689.0352,-3516.2272L13689.0669,-3516.2283L13689.0825,-3516.2283L13689.1012,-3516.2287L13689.1321,-3516.2291L13689.1623,-3516.2294L13689.1886,-3516.2275L13689.2187,-3516.2245L13689.2252,-3516.2218L13689.242,-3516.2222L13689.2637,-3516.2233L13689.2748,-3516.2233L13689.287,-3516.2233L13689.2954,-3516.223L13689.3637,-3516.2245L13689.414,-3516.2252L13689.4716,-3516.2264L13689.5525,-3516.2279L13689.5731,-3516.2283L13689.5914,-3516.2287L13689.6727,-3516.2291L13689.6963,-3516.2294L13689.7875,-3516.2302L13689.8138,-3516.2306L13689.8165,-3516.2031L13689.8195,-3516.1699L13689.8222,-3516.1406L13689.826,-3516.086L13689.8264,-3516.0803L13689.8291,-3516.0345L13689.8298,-3516.0231L13689.8325,-3515.9815L13689.8324,-3515.9574L13689.8344,-3515.9494L13689.8355,-3515.9296L13689.8371,-3515.9044L13689.8401,-3515.8648L13689.8409,-3515.8552L13689.8432,-3515.811L13689.8436,-3515.8007L13689.8462,-3515.7789L13689.8474,-3515.7656L13689.8489,-3515.7431L13689.8535,-3515.6523L13689.8542,-3515.6424L13689.8554,-3515.625"/>
<path content="1,東濃鉄道（株）,可児市役所前～名古屋線,17.0,17.0,17.0," xlink:title="1" d="M13689.7637,-3516.7236L13689.7653,-3516.7078L13689.7678,-3516.6807L13689.772,-3516.6418L13689.7737,-3516.6141L13689.8916,-3516.6227L13689.8991,-3516.6238L13689.9574,-3516.6278L13690.0047,-3516.63L13689.9978,-3516.7111L13689.9965,-3516.7236"/>
<path content="1,東濃鉄道（株）,名古屋・西可児線,9.5,9.5,9.5," xlink:title="1" d="M13689.7637,-3516.7236L13689.7653,-3516.7078L13689.7678,-3516.6807L13689.772,-3516.6418L13689.7737,-3516.6141L13689.8916,-3516.6227L13689.8991,-3516.6238L13689.9574,-3516.6278L13690.0047,-3516.63L13689.9978,-3516.7111L13689.9965,-3516.7236"/>
<path content="1,東濃鉄道（株）,桜ヶ丘ハイツ～名古屋線,23.0,14.5,14.5," xlink:title="1" d="M13689.7637,-3516.7236L13689.7653,-3516.7078L13689.7678,-3516.6807L13689.772,-3516.6418L13689.7737,-3516.6141L13689.8916,-3516.6227L13689.8991,-3516.6238L13689.9574,-3516.6278L13690.0047,-3516.63L13689.9978,-3516.7111L13689.9965,-3516.7236"/>
<path content="3,名古屋市,中巡回,8.0,8.0,8.0," xlink:title="3" d="M13690.0635,-3516.2674L13689.8984,-3516.2654L13689.8731,-3516.2688L13689.8451,-3516.2682L13689.8103,-3516.2665L13689.8066,-3516.3059L13689.8023,-3516.3489L13689.8007,-3516.3649L13689.7933,-3516.436L13689.7871,-3516.4952L13689.7852,-3516.5139L13689.7844,-3516.539L13689.7751,-3516.6026L13689.7737,-3516.6141L13689.7209,-3516.612L13689.6558,-3516.6103L13689.5619,-3516.6058L13689.5138,-3516.6041L13689.4269,-3516.6012L13689.3734,-3516.5984L13689.3604,-3516.5984L13689.327,-3516.599L13689.3063,-3516.5956L13689.2427,-3516.5931L13689.248,-3516.5229L13689.2521,-3516.4677L13689.2569,-3516.3973L13689.2626,-3516.3462L13689.2659,-3516.3225L13689.2711,-3516.2939L13689.2772,-3516.2656L13689.2824,-3516.2433L13689.287,-3516.2233L13689.3122,-3516.2219L13689.3229,-3516.2182L13689.3799,-3516.2052L13689.4168,-3516.1969L13689.5545,-3516.1993L13689.5597,-3516.1993L13689.6931,-3516.2007L13689.6988,-3516.2008L13689.7683,-3516.2027L13689.8164,-3516.2032L13689.8196,-3516.1698L13689.822,-3516.1404L13689.8259,-3516.086L13689.8261,-3516.08L13689.8288,-3516.0345L13689.8299,-3516.023L13689.8325,-3515.9816L13689.8324,-3515.9574L13689.8342,-3515.9495L13689.8353,-3515.9297L13689.8368,-3515.9042L13689.8399,-3515.8646L13689.8407,-3515.855L13689.8431,-3515.811L13689.8603,-3515.8081L13689.9008,-3515.7985L13689.9243,-3515.7951L13689.9513,-3515.7907L13689.9859,-3515.7856L13690.0249,-3515.7814L13690.0455,-3515.7792L13690.0635,-3515.7779"/>
<path content="3,名古屋市,名駅17号,26.0,21.0,21.0," xlink:title="3" d="M13690.0635,-3516.2022L13689.9972,-3516.2013L13689.9183,-3516.2007L13689.8609,-3516.2024L13689.8164,-3516.2032L13689.7683,-3516.2027L13689.6988,-3516.2008L13689.6931,-3516.2007L13689.5597,-3516.1993L13689.5545,-3516.1993L13689.4168,-3516.1969L13689.3799,-3516.2052L13689.3229,-3516.2182L13689.3122,-3516.2219L13689.287,-3516.2233"/>
<path content="3,名古屋市,名駅17号,26.0,21.0,21.0," xlink:title="3" d="M13689.287,-3516.2233L13689.3307,-3516.2481L13689.3359,-3516.2509L13689.3401,-3516.2531L13689.3763,-3516.2608L13689.4107,-3516.2611L13689.5494,-3516.2639L13689.6388,-3516.2578L13689.7671,-3516.2657L13689.8103,-3516.2665L13689.8451,-3516.2682L13689.8731,-3516.2688L13689.8984,-3516.2654L13690.0635,-3516.2674"/>
<path content="3,名古屋市,名駅17号,26.0,21.0,21.0," xlink:title="3" d="M13688.9648,-3516.2501L13688.9678,-3516.2482L13688.9763,-3516.2421L13688.9818,-3516.2387L13688.9905,-3516.2331L13688.9954,-3516.2308L13689.0012,-3516.2286L13689.0352,-3516.2269L13689.0668,-3516.2284L13689.0824,-3516.2282L13689.101,-3516.2287L13689.1318,-3516.2288L13689.1621,-3516.2292L13689.1886,-3516.2274L13689.2184,-3516.2246L13689.2253,-3516.2216L13689.242,-3516.2222L13689.2636,-3516.2231L13689.2748,-3516.2234L13689.287,-3516.2233"/>
<path content="3,名古屋市,名駅18号,21.0,20.0,20.0," xlink:title="3" d="M13690.0635,-3515.7779L13690.0455,-3515.7792L13690.0249,-3515.7814L13689.9859,-3515.7856L13689.9513,-3515.7907L13689.9243,-3515.7951L13689.9008,-3515.7985L13689.8603,-3515.8081L13689.8431,-3515.811L13689.7883,-3515.8221L13689.7743,-3515.8239L13689.7364,-3515.8308L13689.733,-3515.8312L13689.6747,-3515.8444L13689.6643,-3515.8445L13689.6245,-3515.8519L13689.617,-3515.8541L13689.6022,-3515.8583L13689.5901,-3515.8609L13689.5549,-3515.8681L13689.4941,-3515.8818L13689.4916,-3515.8828L13689.4792,-3515.8859L13689.4398,-3515.895L13689.4195,-3515.8995L13689.3704,-3515.9125L13689.3531,-3515.9141L13689.3415,-3515.9173L13689.3274,-3515.9219L13689.3099,-3515.9264L13689.3017,-3515.928L13689.2875,-3515.9311L13689.2707,-3515.9347L13689.197,-3515.952L13689.1804,-3515.9551L13689.1662,-3515.9582L13689.1438,-3515.9624L13689.1289,-3515.9626L13689.1123,-3515.9638L13689.0928,-3515.9625L13689.0786,-3515.9607L13689.0723,-3515.9599L13689.0546,-3515.9574L13689.0435,-3515.9553L13689.0261,-3515.9531L13688.9968,-3515.9486L13688.9648,-3515.9443"/>
<path content="3,名古屋市,名駅19号,16.0,15.0,15.0," xlink:title="3" d="M13688.9833,-3516.7236L13688.9888,-3516.6959L13688.9904,-3516.6857L13689.0219,-3516.5343L13689.0377,-3516.4542L13689.0467,-3516.4133L13689.055,-3516.3747L13689.0611,-3516.3367L13689.0697,-3516.2949L13689.0736,-3516.2739L13689.0824,-3516.2282L13689.0982,-3516.1474L13689.0998,-3516.1391L13689.1137,-3516.077L13689.1438,-3515.9624L13689.1744,-3515.8087L13689.2022,-3515.7008L13689.2105,-3515.6583L13689.2139,-3515.625"/>
<path content="3,名古屋市,栄22号,27.0,24.0,24.0," xlink:title="3" d="M13688.9833,-3516.7236L13688.9888,-3516.6959L13688.9904,-3516.6857L13689.0219,-3516.5343L13689.0377,-3516.4542L13689.0467,-3516.4133L13689.055,-3516.3747L13689.0611,-3516.3367L13689.0697,-3516.2949L13689.0736,-3516.2739L13689.0824,-3516.2282L13689.0982,-3516.1474L13689.0998,-3516.1391L13689.1137,-3516.077L13689.1438,-3515.9624L13689.1744,-3515.8087L13689.2022,-3515.7008L13689.2105,-3515.6583L13689.2139,-3515.625"/>
<path content="3,名古屋市,栄23号,33.0,29.0,28.5," xlink:title="3" d="M13690.0635,-3515.7779L13690.0455,-3515.7792L13690.0249,-3515.7814L13689.9859,-3515.7856L13689.9513,-3515.7907L13689.9243,-3515.7951L13689.9008,-3515.7985L13689.8603,-3515.8081L13689.8431,-3515.811L13689.7883,-3515.8221L13689.7743,-3515.8239L13689.7364,-3515.8308L13689.733,-3515.8312L13689.6747,-3515.8444L13689.6643,-3515.8445L13689.6245,-3515.8519L13689.617,-3515.8541L13689.6022,-3515.8583L13689.5901,-3515.8609L13689.5549,-3515.8681L13689.4941,-3515.8818L13689.4916,-3515.8828L13689.4792,-3515.8859L13689.4398,-3515.895L13689.4195,-3515.8995L13689.3704,-3515.9125L13689.3531,-3515.9141L13689.3415,-3515.9173L13689.3274,-3515.9219L13689.3099,-3515.9264L13689.3017,-3515.928L13689.2875,-3515.9311L13689.2707,-3515.9347L13689.197,-3515.952L13689.1804,-3515.9551L13689.1662,-3515.9582L13689.1438,-3515.9624L13689.1289,-3515.9626L13689.1123,-3515.9638L13689.0928,-3515.9625L13689.0786,-3515.9607L13689.0723,-3515.9599L13689.0546,-3515.9574L13689.0435,-3515.9553L13689.0261,-3515.9531L13688.9968,-3515.9486L13688.9648,-3515.9443"/>
</g>
</svg>
