<?xml version="1.0" encoding="UTF-8"?>
<svg  xmlns="http://www.w3.org/2000/svg" xmlns:xlink="http://www.w3.org/1999/xlink" xmlns:go="http://purl.org/svgmap/profile" property="N07_001,N07_002,N07_003,N07_004,N07_005,N07_006,N07_007" viewBox="14082.275390625 -3821.044921875 2.197265625 2.197265625" go:dataArea="14082.275390625 -3821.044921875 2.197265625 2.197265625" >
<metadata>
 <rdf:RDF xmlns:rdf="http://www.w3.org/1999/02/22-rdf-syntax-ns#" xmlns:crs="http://opengis.org/xmldtds/transformations.dtd" xmlns:svg="http://www.w3.org/svg" >
  <rdf:Description>
   <crs:CoordinateReferenceSystem rdf:resource="http://purl.org/crs/84" svg:transform="matrix(100.0,0.0,0.0,-100.0,0.0,0.0)" />
  </rdf:Description>
 </rdf:RDF>
</metadata>
<globalCoordinateSystem srsName="http://purl.org/crs/84" transform="matrix(100.0,0.0,0.0,-100.0,0.0,0.0)" />
<defs>
 <g id="p0" >
  <circle cx="0.0" cy="0.0" r="3" stroke="green" stroke-width="0.75" vector-effect="non-scaling-stroke" />
 </g>
</defs>
<g fill="none" fill-rule="evenodd" stroke="#FF00FF" stroke-width="0.75" opacity="0.5" vector-effect="non-scaling-stroke" stroke-linejoin="bevel" >
<path content="1,宮城交通（株）,S28,4.0,2.5,2.0," xlink:title="1" d="M14083.5235,-3821.0449L14083.5805,-3821.0142L14083.6173,-3820.9904L14083.6325,-3820.9797L14083.7057,-3820.929L14083.7343,-3820.9098L14083.7493,-3820.9019L14083.7714,-3820.8896L14083.8085,-3820.8698L14083.8584,-3820.8428L14083.9019,-3820.8157L14083.9276,-3820.7989L14083.9542,-3820.7801L14083.9723,-3820.7661L14083.9961,-3820.7459L14084.023,-3820.7186L14084.0325,-3820.7076L14084.0395,-3820.7025"/>
<path content="1,宮城交通（株）,S29,35.0,16.5,12.5," xlink:title="1" d="M14082.7022,-3819.7752L14082.759,-3819.7726L14082.8292,-3819.7749L14082.846,-3819.7765L14082.8567,-3819.7793L14082.8703,-3819.7838L14082.8824,-3819.79L14082.8981,-3819.8013L14082.9052,-3819.8086L14082.9125,-3819.8178L14082.9188,-3819.8306L14082.9224,-3819.8419L14082.9259,-3819.8751L14082.9273,-3819.9342L14082.9294,-3819.972L14082.9288,-3820.003"/>
<path content="1,宮城交通（株）,S29,35.0,16.5,12.5," xlink:title="1" d="M14082.7022,-3819.7752L14082.7019,-3819.8582L14082.704,-3819.8988L14082.7069,-3819.9156L14082.7354,-3819.9945L14082.7389,-3820.0067L14082.7406,-3820.0214L14082.7393,-3820.0694L14082.7368,-3820.1866L14082.7353,-3820.2036L14082.7325,-3820.2164L14082.7303,-3820.2218L14082.7247,-3820.2322L14082.7168,-3820.2434L14082.7083,-3820.2519L14082.6933,-3820.2609L14082.6794,-3820.2649L14082.6702,-3820.2676L14082.6512,-3820.2688L14082.5969,-3820.2693L14082.547,-3820.2688L14082.518,-3820.2717L14082.4928,-3820.257L14082.4671,-3820.2468L14082.4348,-3820.2316L14082.4108,-3820.2142L14082.3972,-3820.204L14082.3866,-3820.1914L14082.3744,-3820.1747L14082.3715,-3820.1696L14082.3644,-3820.1567L14082.3444,-3820.1077L14082.3273,-3820.0615L14082.313,-3820.0226L14082.3047,-3819.9892L14082.3024,-3819.969L14082.3037,-3819.956L14082.3066,-3819.9472L14082.3201,-3819.9246L14082.3836,-3819.8571L14082.3915,-3819.8503L14082.4193,-3819.8204L14082.439,-3819.8009L14082.4579,-3819.7854L14082.4725,-3819.7753L14082.4926,-3819.7674L14082.5161,-3819.764L14082.5412,-3819.7629L14082.5592,-3819.7636L14082.6812,-3819.7686L14082.7022,-3819.7752"/>
<path content="1,宮城交通（株）,S29,35.0,16.5,12.5," xlink:title="1" d="M14082.9288,-3820.003L14082.9288,-3820.003L14082.9923,-3820.003L14083.132,-3820.0007L14083.2241,-3819.9973L14083.2655,-3819.9951L14083.2791,-3819.9934L14083.3026,-3819.99L14083.3205,-3819.9849L14083.3362,-3819.9771L14083.3476,-3819.9675L14083.3583,-3819.9556L14083.3661,-3819.9437L14083.3733,-3819.9309L14083.3794,-3819.9161L14083.3854,-3819.9016L14083.3922,-3819.875L14083.3954,-3819.8657L14083.3997,-3819.8458L14083.4113,-3819.7939L14083.4218,-3819.7399L14083.4254,-3819.7236L14083.4359,-3819.6855L14083.4425,-3819.6588L14083.4486,-3819.6396L14083.4568,-3819.6177L14083.4653,-3819.6025L14083.4782,-3819.5873L14083.5144,-3819.5555L14083.5203,-3819.5473L14083.526,-3819.5428L14083.5845,-3819.4876L14083.6024,-3819.5005L14083.6437,-3819.5287L14083.6666,-3819.5428L14083.755,-3819.6025L14083.7753,-3819.6156L14083.8385,-3819.6577L14083.9149,-3819.7078L14083.9256,-3819.7151L14083.9459,-3819.6956L14083.9579,-3819.6844L14083.9884,-3819.6549L14084.0083,-3819.6374L14084.0847,-3819.5659L14084.1251,-3819.5327L14084.1389,-3819.5146L14084.1611,-3819.4949L14084.2003,-3819.4583L14084.2838,-3819.3817L14084.3173,-3819.3501L14084.3511,-3819.3299L14084.3642,-3819.3352L14084.3719,-3819.3438L14084.3758,-3819.3507L14084.3792,-3819.3578L14084.3808,-3819.3665L14084.3827,-3819.3785L14084.3815,-3819.3918L14084.3772,-3819.4037L14084.3728,-3819.4104L14084.3651,-3819.4211L14084.2909,-3819.5016L14084.2329,-3819.5639L14084.1881,-3819.6149L14084.1624,-3819.6459L14084.1474,-3819.6639L14084.1418,-3819.674L14084.1391,-3819.6825L14084.1375,-3819.6915L14084.1369,-3819.7071L14084.1403,-3819.7236L14084.1453,-3819.7388L14084.1516,-3819.7499L14084.1614,-3819.7639L14084.1691,-3819.7719L14084.1847,-3819.7882L14084.2143,-3819.812L14084.2524,-3819.8481L14084.2928,-3819.8818L14084.3087,-3819.8939L14084.3216,-3819.9027L14084.3368,-3819.9114L14084.3511,-3819.9174L14084.4034,-3819.9399L14084.4235,-3819.9508L14084.4445,-3819.9638L14084.4572,-3819.9726L14084.4727,-3819.9844M14084.4727,-3820.2494L14084.4671,-3820.2525L14084.4535,-3820.2581L14084.4391,-3820.2619L14084.4286,-3820.2638L14084.4114,-3820.266L14084.3788,-3820.268L14084.3549,-3820.2718L14084.3371,-3820.2766L14084.3265,-3820.2817L14084.3229,-3820.2852L14084.3172,-3820.2908L14084.3122,-3820.2976L14084.3087,-3820.306L14084.3074,-3820.3161L14084.309,-3820.3247L14084.3131,-3820.3319"/>
<path content="1,宮城交通（株）,S29,35.0,16.5,12.5," xlink:title="1" d="M14083.3621,-3821.0449L14083.3655,-3821.0412L14083.3698,-3821.035L14083.3767,-3821.0243L14083.3829,-3821.0147L14083.3932,-3820.9981L14083.3979,-3820.9882L14083.4034,-3820.9765L14083.4119,-3820.9567L14083.4161,-3820.9448L14083.4257,-3820.9163L14083.4311,-3820.8935L14083.4386,-3820.8643L14083.4464,-3820.8237L14083.4537,-3820.7915L14083.4596,-3820.7634L14083.4625,-3820.752L14083.441,-3820.7442L14083.4225,-3820.7397L14083.3996,-3820.7363L14083.381,-3820.7354L14083.364,-3820.7375L14083.3497,-3820.742L14083.3389,-3820.7501L14083.3318,-3820.7594L14083.3254,-3820.7701L14083.3182,-3820.7871L14083.3119,-3820.8067L14083.3019,-3820.8406L14083.2962,-3820.8545L14083.293,-3820.8612L14083.2862,-3820.8727L14083.2776,-3820.8834L14083.2612,-3820.8952L14083.2534,-3820.8997L14083.2355,-3820.9064L14083.2113,-3820.9121L14083.1906,-3820.9143L14083.151,-3820.9143L14083.1164,-3820.9149L14083.1007,-3820.9132L14083.0878,-3820.9104L14083.0714,-3820.9042L14083.0558,-3820.8969L14083.0429,-3820.889L14083.025,-3820.876L14083.0001,-3820.8512L14082.9916,-3820.8425L14082.9844,-3820.8351L14082.963,-3820.8096L14082.952,-3820.7944L14082.9423,-3820.7786L14082.9344,-3820.76L14082.9301,-3820.7414L14082.9292,-3820.7183L14082.9309,-3820.6986L14082.9344,-3820.6823L14082.9418,-3820.6383L14082.9566,-3820.5538L14082.9871,-3820.3811L14082.9908,-3820.3585L14082.9938,-3820.3484L14082.993,-3820.3336L14082.9927,-3820.3167L14082.9916,-3820.3094L14082.9898,-3820.2979L14082.9794,-3820.2654L14082.9494,-3820.177L14082.9416,-3820.1545L14082.9387,-3820.1398L14082.9349,-3820.1116L14082.933,-3820.0804L14082.9312,-3820.0571L14082.9302,-3820.039L14082.9288,-3820.003"/>
<path content="1,宮城交通（株）,S30,22.5,12.5,11.5," xlink:title="1" d="M14082.7022,-3819.7752L14082.7019,-3819.8582L14082.704,-3819.8988L14082.7069,-3819.9156L14082.7354,-3819.9945L14082.7389,-3820.0067L14082.7406,-3820.0214L14082.7393,-3820.0694L14082.7368,-3820.1866L14082.7353,-3820.2036L14082.7325,-3820.2164L14082.7303,-3820.2218L14082.7247,-3820.2322L14082.7168,-3820.2434L14082.7083,-3820.2519L14082.6933,-3820.2609L14082.6794,-3820.2649L14082.6702,-3820.2676L14082.6512,-3820.2688L14082.5969,-3820.2693L14082.547,-3820.2688L14082.518,-3820.2717L14082.4928,-3820.257L14082.4671,-3820.2468L14082.4348,-3820.2316L14082.4108,-3820.2142L14082.3972,-3820.204L14082.3866,-3820.1914L14082.3744,-3820.1747L14082.3715,-3820.1696L14082.3644,-3820.1567L14082.3444,-3820.1077L14082.3273,-3820.0615L14082.313,-3820.0226L14082.3047,-3819.9892L14082.3024,-3819.969L14082.3037,-3819.956L14082.3066,-3819.9472L14082.3201,-3819.9246L14082.3836,-3819.8571L14082.3915,-3819.8503L14082.4193,-3819.8204L14082.439,-3819.8009L14082.4579,-3819.7854L14082.4725,-3819.7753L14082.4926,-3819.7674L14082.5161,-3819.764L14082.5412,-3819.7629L14082.5592,-3819.7636L14082.6812,-3819.7686L14082.7022,-3819.7752"/>
<path content="1,宮城交通（株）,S30,22.5,12.5,11.5," xlink:title="1" d="M14082.7022,-3819.7752L14082.759,-3819.7726L14082.8292,-3819.7749L14082.846,-3819.7765L14082.8567,-3819.7793L14082.8703,-3819.7838L14082.8824,-3819.79L14082.8981,-3819.8013L14082.9052,-3819.8086L14082.9125,-3819.8178L14082.9188,-3819.8306L14082.9224,-3819.8419L14082.9259,-3819.8751L14082.9273,-3819.9342L14082.9294,-3819.972L14082.9288,-3820.003L14082.9302,-3820.039L14082.9312,-3820.0571L14082.933,-3820.0804L14082.9349,-3820.1116L14082.9387,-3820.1398L14082.9416,-3820.1545L14082.9494,-3820.177L14082.9794,-3820.2654L14082.9898,-3820.2979L14082.9916,-3820.3094L14082.9927,-3820.3167L14082.993,-3820.3336L14082.9938,-3820.3484L14082.9908,-3820.3585L14082.9871,-3820.3811L14082.9566,-3820.5538L14082.9418,-3820.6383L14082.9344,-3820.6823L14082.9309,-3820.6986L14082.9292,-3820.7183L14082.9301,-3820.7414L14082.9344,-3820.76L14082.9423,-3820.7786L14082.952,-3820.7944L14082.963,-3820.8096L14082.9844,-3820.8351L14082.9916,-3820.8425L14083.0001,-3820.8512L14083.025,-3820.876L14083.0429,-3820.889L14083.0558,-3820.8969L14083.0714,-3820.9042L14083.0878,-3820.9104L14083.1007,-3820.9132L14083.1164,-3820.9149L14083.151,-3820.9143L14083.1906,-3820.9143L14083.2113,-3820.9121L14083.2355,-3820.9064L14083.2534,-3820.8997L14083.2612,-3820.8952L14083.2776,-3820.8834L14083.2862,-3820.8727L14083.293,-3820.8612L14083.2962,-3820.8545L14083.3019,-3820.8406L14083.3119,-3820.8067L14083.3182,-3820.7871L14083.3254,-3820.7701L14083.3318,-3820.7594L14083.3389,-3820.7501L14083.3497,-3820.742L14083.364,-3820.7375L14083.381,-3820.7354L14083.3996,-3820.7363L14083.4225,-3820.7397L14083.441,-3820.7442L14083.4625,-3820.752L14083.4596,-3820.7634L14083.4537,-3820.7915L14083.4464,-3820.8237L14083.4386,-3820.8643L14083.4311,-3820.8935L14083.4257,-3820.9163L14083.4161,-3820.9448L14083.4119,-3820.9567L14083.4034,-3820.9765L14083.3979,-3820.9882L14083.3932,-3820.9981L14083.3829,-3821.0147L14083.3767,-3821.0243L14083.3698,-3821.035L14083.3655,-3821.0412L14083.3621,-3821.0449"/>
<path content="1,宮城交通（株）,S31,33.5,17.5,15.0," xlink:title="1" d="M14084.4727,-3820.3044L14084.3986,-3820.3447L14084.3758,-3820.3578L14084.3748,-3820.3583L14084.3426,-3820.3755L14084.3332,-3820.3643L14084.3224,-3820.3512L14084.3151,-3820.3393L14084.3131,-3820.3319L14084.309,-3820.3247L14084.3074,-3820.3161L14084.3087,-3820.306L14084.3122,-3820.2976L14084.3172,-3820.2908L14084.3229,-3820.2852L14084.3265,-3820.2817L14084.3371,-3820.2766L14084.3549,-3820.2718L14084.3788,-3820.268L14084.4114,-3820.266L14084.4286,-3820.2638L14084.4391,-3820.2619L14084.4535,-3820.2581L14084.4671,-3820.2525L14084.4727,-3820.2494M14084.4727,-3819.9844L14084.4572,-3819.9726L14084.4445,-3819.9638L14084.4235,-3819.9508L14084.4034,-3819.9399L14084.3511,-3819.9174L14084.3368,-3819.9114L14084.3216,-3819.9027L14084.3087,-3819.8939L14084.2928,-3819.8818L14084.2524,-3819.8481L14084.2143,-3819.812L14084.1847,-3819.7882L14084.1691,-3819.7719L14084.1614,-3819.7639L14084.1516,-3819.7499L14084.1453,-3819.7388L14084.1403,-3819.7236L14084.1369,-3819.7071L14084.1375,-3819.6915L14084.1391,-3819.6825L14084.1418,-3819.674L14084.1474,-3819.6639L14084.1624,-3819.6459L14084.1881,-3819.6149L14084.2329,-3819.5639L14084.2909,-3819.5016L14084.3651,-3819.4211L14084.3728,-3819.4104L14084.3772,-3819.4037L14084.3815,-3819.3918L14084.3827,-3819.3785L14084.3808,-3819.3665L14084.3792,-3819.3578L14084.3758,-3819.3507L14084.3719,-3819.3438L14084.3642,-3819.3352L14084.3511,-3819.3299L14084.3416,-3819.3152L14084.3316,-3819.3076L14084.313,-3819.2959L14084.2824,-3819.2718L14084.2624,-3819.2589L14084.2031,-3819.2178L14084.1432,-3819.1772L14084.1247,-3819.1654L14084.0984,-3819.1483L14084.0869,-3819.1416L14084.0751,-3819.1372L14084.0591,-3819.1343L14084.0219,-3819.1299L14084.0041,-3819.1276L14083.9884,-3819.1274L14083.9788,-3819.1287L14083.9698,-3819.1333L14083.9555,-3819.144L14083.9391,-3819.1581L14083.9171,-3819.1857L14083.8585,-3819.2347L14083.7979,-3819.2904L14083.7636,-3819.322L14083.7336,-3819.349L14083.7034,-3819.3806L14083.6466,-3819.4296L14083.6202,-3819.4549L14083.5845,-3819.4876L14083.526,-3819.5428L14083.5203,-3819.5473L14083.5144,-3819.5555L14083.4782,-3819.5873L14083.4653,-3819.6025L14083.4568,-3819.6177L14083.4486,-3819.6396L14083.4425,-3819.6588L14083.4359,-3819.6855L14083.4254,-3819.7236L14083.4218,-3819.7399L14083.4113,-3819.7939L14083.3997,-3819.8458L14083.3954,-3819.8657L14083.3922,-3819.875L14083.3854,-3819.9016L14083.3794,-3819.9161L14083.3733,-3819.9309L14083.3661,-3819.9437L14083.3583,-3819.9556L14083.3476,-3819.9675L14083.3362,-3819.9771L14083.3205,-3819.9849L14083.3026,-3819.99L14083.2791,-3819.9934L14083.2655,-3819.9951L14083.2241,-3819.9973L14083.132,-3820.0007L14082.9923,-3820.003L14082.9288,-3820.003L14082.9288,-3820.003"/>
<path content="1,宮城交通（株）,S31,33.5,17.5,15.0," xlink:title="1" d="M14082.7022,-3819.7752L14082.6812,-3819.7686L14082.5592,-3819.7636L14082.5412,-3819.7629L14082.5161,-3819.764L14082.4926,-3819.7674L14082.4725,-3819.7753L14082.4579,-3819.7854L14082.439,-3819.8009L14082.4193,-3819.8204L14082.3915,-3819.8503L14082.3836,-3819.8571L14082.3201,-3819.9246L14082.3066,-3819.9472L14082.3037,-3819.956L14082.3024,-3819.969L14082.3047,-3819.9892L14082.313,-3820.0226L14082.3273,-3820.0615L14082.3444,-3820.1077L14082.3644,-3820.1567L14082.3715,-3820.1696L14082.3744,-3820.1747L14082.3866,-3820.1914L14082.3972,-3820.204L14082.4108,-3820.2142L14082.4348,-3820.2316L14082.4671,-3820.2468L14082.4928,-3820.257L14082.518,-3820.2717L14082.547,-3820.2688L14082.5969,-3820.2693L14082.6512,-3820.2688L14082.6702,-3820.2676L14082.6794,-3820.2649L14082.6933,-3820.2609L14082.7083,-3820.2519L14082.7168,-3820.2434L14082.7247,-3820.2322L14082.7303,-3820.2218L14082.7325,-3820.2164L14082.7353,-3820.2036L14082.7368,-3820.1866L14082.7393,-3820.0694L14082.7406,-3820.0214L14082.7389,-3820.0067L14082.7354,-3819.9945L14082.7069,-3819.9156L14082.704,-3819.8988L14082.7019,-3819.8582L14082.7022,-3819.7752"/>
<path content="1,宮城交通（株）,S31,33.5,17.5,15.0," xlink:title="1" d="M14082.9288,-3820.003L14082.9294,-3819.972L14082.9273,-3819.9342L14082.9259,-3819.8751L14082.9224,-3819.8419L14082.9188,-3819.8306L14082.9125,-3819.8178L14082.9052,-3819.8086L14082.8981,-3819.8013L14082.8824,-3819.79L14082.8703,-3819.7838L14082.8567,-3819.7793L14082.846,-3819.7765L14082.8292,-3819.7749L14082.759,-3819.7726L14082.7022,-3819.7752"/>
<path content="1,宮城交通（株）,S31,33.5,17.5,15.0," xlink:title="1" d="M14082.9288,-3820.003L14082.9302,-3820.039L14082.9312,-3820.0571L14082.933,-3820.0804L14082.9349,-3820.1116L14082.9387,-3820.1398L14082.9416,-3820.1545L14082.9494,-3820.177L14082.9794,-3820.2654L14082.9898,-3820.2979L14082.9916,-3820.3094L14082.9927,-3820.3167L14082.993,-3820.3336L14082.9938,-3820.3484L14082.9908,-3820.3585L14082.9871,-3820.3811L14082.9566,-3820.5538L14082.9418,-3820.6383L14082.9344,-3820.6823L14082.9309,-3820.6986L14082.9292,-3820.7183L14082.9301,-3820.7414L14082.9344,-3820.76L14082.9423,-3820.7786L14082.952,-3820.7944L14082.963,-3820.8096L14082.9844,-3820.8351L14082.9916,-3820.8425L14083.0001,-3820.8512L14083.025,-3820.876L14083.0429,-3820.889L14083.0558,-3820.8969L14083.0714,-3820.9042L14083.0878,-3820.9104L14083.1007,-3820.9132L14083.1164,-3820.9149L14083.151,-3820.9143"/>
<path content="3,名取市,相互台線,3.5,2.0,2.0," xlink:title="3" d="M14084.4727,-3820.3044L14084.3986,-3820.3447L14084.3758,-3820.3578L14084.3748,-3820.3583L14084.3426,-3820.3755L14084.3332,-3820.3643L14084.3224,-3820.3512L14084.3151,-3820.3393L14084.3131,-3820.3319L14084.309,-3820.3247L14084.3074,-3820.3161L14084.3087,-3820.306L14084.3122,-3820.2976L14084.3172,-3820.2908L14084.3229,-3820.2852L14084.3265,-3820.2817L14084.3371,-3820.2766L14084.3549,-3820.2718L14084.3788,-3820.268L14084.4114,-3820.266L14084.4286,-3820.2638L14084.4391,-3820.2619L14084.4535,-3820.2581L14084.4671,-3820.2525L14084.4727,-3820.2494M14084.4727,-3819.9844L14084.4572,-3819.9726L14084.4445,-3819.9638L14084.4235,-3819.9508L14084.4034,-3819.9399L14084.3511,-3819.9174L14084.3368,-3819.9114L14084.3216,-3819.9027L14084.3087,-3819.8939L14084.2928,-3819.8818L14084.2524,-3819.8481L14084.2143,-3819.812L14084.1847,-3819.7882L14084.1691,-3819.7719L14084.1614,-3819.7639L14084.1516,-3819.7499L14084.1453,-3819.7388L14084.1403,-3819.7236L14084.1369,-3819.7071L14084.1375,-3819.6915L14084.1391,-3819.6825L14084.1418,-3819.674L14084.1474,-3819.6639L14084.1624,-3819.6459L14084.1881,-3819.6149L14084.2329,-3819.5639L14084.2909,-3819.5016L14084.3651,-3819.4211L14084.3728,-3819.4104L14084.3772,-3819.4037L14084.3815,-3819.3918L14084.3827,-3819.3785L14084.3808,-3819.3665L14084.3792,-3819.3578L14084.3758,-3819.3507L14084.3719,-3819.3438L14084.3642,-3819.3352L14084.3511,-3819.3299L14084.3173,-3819.3501L14084.2838,-3819.3817L14084.2003,-3819.4583L14084.1611,-3819.4949L14084.1389,-3819.5146L14084.1251,-3819.5327L14084.0847,-3819.5659L14084.0083,-3819.6374L14083.9884,-3819.6549L14083.9579,-3819.6844L14083.9459,-3819.6956L14083.9256,-3819.7151L14083.9149,-3819.7078L14083.8385,-3819.6577L14083.7753,-3819.6156L14083.755,-3819.6025L14083.6666,-3819.5428L14083.6437,-3819.5287L14083.6024,-3819.5005L14083.5845,-3819.4876L14083.526,-3819.5428L14083.5203,-3819.5473L14083.5144,-3819.5555L14083.4782,-3819.5873L14083.4653,-3819.6025L14083.4568,-3819.6177L14083.4486,-3819.6396L14083.4425,-3819.6588L14083.4359,-3819.6855L14083.4254,-3819.7236L14083.4218,-3819.7399L14083.4113,-3819.7939L14083.3997,-3819.8458L14083.3954,-3819.8657L14083.3922,-3819.875L14083.3854,-3819.9016L14083.3794,-3819.9161L14083.3733,-3819.9309L14083.3661,-3819.9437L14083.3583,-3819.9556L14083.3476,-3819.9675L14083.3362,-3819.9771L14083.3205,-3819.9849L14083.3026,-3819.99L14083.2791,-3819.9934L14083.2655,-3819.9951L14083.2241,-3819.9973L14083.132,-3820.0007L14082.9923,-3820.003L14082.9288,-3820.003L14082.9288,-3820.003L14082.9302,-3820.039L14082.9312,-3820.0571L14082.933,-3820.0804L14082.9349,-3820.1116L14082.9387,-3820.1398L14082.9416,-3820.1545L14082.9494,-3820.177L14082.9794,-3820.2654L14082.9898,-3820.2979L14082.9916,-3820.3094L14082.9927,-3820.3167L14082.993,-3820.3336L14082.9938,-3820.3484L14082.9908,-3820.3585L14082.9871,-3820.3811L14082.9566,-3820.5538L14082.9418,-3820.6383L14082.9344,-3820.6823L14082.9309,-3820.6986L14082.9292,-3820.7183L14082.9301,-3820.7414L14082.9344,-3820.76L14082.9423,-3820.7786L14082.952,-3820.7944L14082.963,-3820.8096L14082.9844,-3820.8351L14082.9916,-3820.8425L14083.0001,-3820.8512L14083.025,-3820.876L14083.0429,-3820.889L14083.0558,-3820.8969L14083.0714,-3820.9042L14083.0878,-3820.9104L14083.1007,-3820.9132L14083.1164,-3820.9149L14083.151,-3820.9143L14083.1906,-3820.9143L14083.2113,-3820.9121L14083.2355,-3820.9064L14083.2534,-3820.8997L14083.2612,-3820.8952L14083.2776,-3820.8834L14083.2862,-3820.8727L14083.293,-3820.8612L14083.2962,-3820.8545L14083.3019,-3820.8406L14083.3119,-3820.8067L14083.3182,-3820.7871L14083.3254,-3820.7701L14083.3318,-3820.7594L14083.3389,-3820.7501L14083.3497,-3820.742L14083.364,-3820.7375L14083.381,-3820.7354L14083.3996,-3820.7363L14083.4225,-3820.7397L14083.441,-3820.7442L14083.4625,-3820.752L14083.4596,-3820.7634L14083.4537,-3820.7915L14083.4464,-3820.8237L14083.4386,-3820.8643L14083.4311,-3820.8935L14083.4257,-3820.9163L14083.4161,-3820.9448L14083.4119,-3820.9567L14083.4034,-3820.9765L14083.3979,-3820.9882L14083.3932,-3820.9981L14083.3829,-3821.0147L14083.3767,-3821.0243L14083.3698,-3821.035L14083.3655,-3821.0412L14083.3621,-3821.0449"/>
</g>
</svg>
