<?xml version="1.0" encoding="UTF-8"?>
<svg  xmlns="http://www.w3.org/2000/svg" xmlns:xlink="http://www.w3.org/1999/xlink" xmlns:go="http://purl.org/svgmap/profile" property="N07_001,N07_002,N07_003,N07_004,N07_005,N07_006,N07_007" viewBox="13974.06005859375 -3567.81005859375 0.54931640625 0.54931640625" go:dataArea="13974.06005859375 -3567.81005859375 0.54931640625 0.54931640625" >
<metadata>
 <rdf:RDF xmlns:rdf="http://www.w3.org/1999/02/22-rdf-syntax-ns#" xmlns:crs="http://opengis.org/xmldtds/transformations.dtd" xmlns:svg="http://www.w3.org/svg" >
  <rdf:Description>
   <crs:CoordinateReferenceSystem rdf:resource="http://purl.org/crs/84" svg:transform="matrix(100.0,0.0,0.0,-100.0,0.0,0.0)" />
  </rdf:Description>
 </rdf:RDF>
</metadata>
<globalCoordinateSystem srsName="http://purl.org/crs/84" transform="matrix(100.0,0.0,0.0,-100.0,0.0,0.0)" />
<defs>
 <g id="p0" >
  <circle cx="0.0" cy="0.0" r="3" stroke="green" stroke-width="0.75" vector-effect="non-scaling-stroke" />
 </g>
</defs>
<g fill="none" fill-rule="evenodd" stroke="#FF00FF" stroke-width="0.75" opacity="0.5" vector-effect="non-scaling-stroke" stroke-linejoin="bevel" >
<path content="1,東京空港交通（株）,赤坂エリア～成田空港線,26.0,26.0,26.0," xlink:title="1" d="M13974.0601,-3567.7627L13974.0651,-3567.7629L13974.1009,-3567.688L13974.1058,-3567.6829L13974.1238,-3567.6711L13974.1465,-3567.6531L13974.1541,-3567.6051L13974.1562,-3567.595L13974.1562,-3567.5888L13974.1597,-3567.5708L13974.1603,-3567.5691L13974.179,-3567.5601L13974.1817,-3567.5443L13974.1866,-3567.5021L13974.1541,-3567.5004L13974.1521,-3567.435L13974.1509,-3567.4179L13974.15,-3567.3618L13974.1597,-3567.364L13974.2425,-3567.3753L13974.3316,-3567.3809L13974.3992,-3567.3837L13974.4249,-3567.385L13974.4236,-3567.3923L13974.4599,-3567.398L13974.5059,-3567.4053L13974.5429,-3567.4111L13974.6094,-3567.4216"/>
<path content="1,東京空港交通（株）,赤坂エリア～羽田空港線,7.0,7.0,7.0," xlink:title="1" d="M13974.1509,-3567.4179L13974.15,-3567.3618L13974.1477,-3567.2607"/>
<path content="2,都営バス,橋63,40.0,27.0,25.0," xlink:title="2" d="M13974.6094,-3567.8018L13974.5842,-3567.7969L13974.5579,-3567.7952L13974.5491,-3567.7899L13974.537,-3567.7874L13974.5184,-3567.7835L13974.4569,-3567.7704L13974.4266,-3567.7639L13974.4127,-3567.7614L13974.3657,-3567.7576L13974.3259,-3567.7545L13974.3143,-3567.7552L13974.3077,-3567.7555L13974.2974,-3567.7561L13974.2932,-3567.7563L13974.2661,-3567.7577L13974.2316,-3567.7618L13974.2278,-3567.7627L13974.2164,-3567.7651L13974.2046,-3567.7691L13974.1878,-3567.776L13974.1762,-3567.7813L13974.1561,-3567.792L13974.1486,-3567.7957L13974.1394,-3567.8019L13974.126,-3567.8101"/>
</g>
</svg>
