<?xml version="1.0" encoding="UTF-8"?>
<svg  xmlns="http://www.w3.org/2000/svg" xmlns:xlink="http://www.w3.org/1999/xlink" xmlns:go="http://purl.org/svgmap/profile" property="N07_001,N07_002,N07_003,N07_004,N07_005,N07_006,N07_007" viewBox="14080.078125 -4007.8125 17.578125 17.578125" go:dataArea="14080.078125 -4007.8125 17.578125 17.578125" >
<metadata>
 <rdf:RDF xmlns:rdf="http://www.w3.org/1999/02/22-rdf-syntax-ns#" xmlns:crs="http://opengis.org/xmldtds/transformations.dtd" xmlns:svg="http://www.w3.org/svg" >
  <rdf:Description>
   <crs:CoordinateReferenceSystem rdf:resource="http://purl.org/crs/84" svg:transform="matrix(100.0,0.0,0.0,-100.0,0.0,0.0)" />
  </rdf:Description>
 </rdf:RDF>
</metadata>
<globalCoordinateSystem srsName="http://purl.org/crs/84" transform="matrix(100.0,0.0,0.0,-100.0,0.0,0.0)" />
<defs>
 <g id="p0" >
  <circle cx="0.0" cy="0.0" r="3" stroke="green" stroke-width="0.75" vector-effect="non-scaling-stroke" />
 </g>
</defs>
<g fill="none" fill-rule="evenodd" stroke="#FF00FF" stroke-width="0.75" opacity="0.5" vector-effect="non-scaling-stroke" stroke-linejoin="bevel" >
<path content="1,丸宮タクシー（有）,玉川温泉号,2.0,2.0,2.0," xlink:title="1" d="M14080.0781,-3996.9416L14080.0864,-3996.9493L14080.0879,-3996.9541L14080.0922,-3996.968L14080.0937,-3997.0113L14080.0922,-3997.0225L14080.0781,-3997.0461M14080.0781,-3998.1553L14080.0922,-3998.1797L14080.1076,-3998.2011L14080.1137,-3998.2073L14080.1422,-3998.2439L14080.1656,-3998.2715L14080.1782,-3998.2849L14080.1861,-3998.2901L14080.191,-3998.2972L14080.2161,-3998.3132L14080.2402,-3998.3301L14080.2497,-3998.3397L14080.2534,-3998.3532L14080.2402,-3998.4191L14080.2409,-3998.4377L14080.2438,-3998.4467L14080.2614,-3998.4777L14080.2699,-3998.4945L14080.2728,-3998.5041L14080.2721,-3998.5271L14080.2611,-3998.5514L14080.2311,-3998.6201L14080.2253,-3998.6443L14080.2223,-3998.6702L14080.2201,-3998.7862L14080.2136,-3998.8132L14080.1953,-3998.8554L14080.1821,-3998.8757L14080.1704,-3998.8904L14080.109,-3998.9653L14080.0885,-3998.9934L14080.0783,-3999.012L14080.0781,-3999.0142M14080.0781,-3999.0262L14080.0841,-3999.0385L14080.0907,-3999.0458L14080.1002,-3999.0497L14080.1404,-3999.061L14080.1653,-3999.0711L14080.1755,-3999.0779L14080.2011,-3999.1077L14080.215,-3999.1252L14080.3246,-3999.2566L14080.3254,-3999.2575L14080.3701,-3999.3211L14080.4015,-3999.3707L14080.4213,-3999.3932L14080.4381,-3999.4084L14080.5024,-3999.4597L14080.5368,-3999.4941L14080.5521,-3999.5104L14080.5938,-3999.5734L14080.6319,-3999.6352L14080.724,-3999.7767L14080.7401,-3999.797L14080.7606,-3999.8162L14080.7701,-3999.8229L14080.7854,-3999.828L14080.8388,-3999.828L14080.8651,-3999.8274L14080.871,-3999.8286L14080.89,-3999.8387L14080.9134,-3999.8471L14080.9419,-3999.855L14080.977,-3999.8584L14081.0033,-3999.8651L14081.0187,-3999.8713L14081.0231,-3999.877L14081.0282,-3999.8888L14081.0238,-3999.9057L14081.0202,-3999.9102L14081.0121,-3999.9164L14080.9997,-3999.9203L14080.9821,-3999.9203L14080.9763,-3999.9187L14080.9609,-3999.9119L14080.9185,-3999.8916L14080.9046,-3999.8866L14080.89,-3999.8816L14080.8735,-3999.8829L14080.8604,-3999.8888L14080.8542,-3999.8995L14080.852,-3999.9158L14080.8586,-3999.9243L14080.8644,-3999.9288L14080.8739,-3999.9356L14080.8863,-3999.9412L14080.9061,-3999.9457L14080.9331,-3999.9519L14081.0969,-3999.9851L14081.1116,-3999.9879L14081.1408,-3999.9952L14081.1593,-4000.0013L14081.1638,-4000.0074L14081.1646,-4000.0141L14081.1643,-4000.0299L14081.1529,-4000.0884L14081.1456,-4000.1142L14081.1378,-4000.1386L14081.1286,-4000.1654L14081.1145,-4000.2011L14081.095,-4000.2411L14081.0712,-4000.2768L14081.047,-4000.3133L14081.008,-4000.3713L14081.0049,-4000.3769L14081.0045,-4000.3821L14081.008,-4000.3892L14081.0507,-4000.4407L14081.0543,-4000.4525L14081.0543,-4000.4677L14081.047,-4000.4795L14081.0302,-4000.4981L14081.0221,-4000.506L14081.0075,-4000.5167L14080.9833,-4000.5313L14080.9526,-4000.5465L14080.935,-4000.5459L14080.9159,-4000.5426L14080.883,-4000.5319L14080.8471,-4000.5184L14080.8193,-4000.5105L14080.8083,-4000.5093L14080.7966,-4000.511L14080.7336,-4000.5504L14080.7204,-4000.5572L14080.7036,-4000.5578L14080.6787,-4000.5482L14080.6362,-4000.5246L14080.6263,-4000.52L14080.6183,-4000.5197L14080.6011,-4000.5221L14080.5931,-4000.5258L14080.5894,-4000.5336L14080.5806,-4000.5578L14080.5762,-4000.5797L14080.5725,-4000.6124L14080.5681,-4000.6366L14080.5623,-4000.6569L14080.5498,-4000.6811L14080.5308,-4000.7109L14080.5154,-4000.7261L14080.5022,-4000.7374L14080.4854,-4000.7487L14080.4612,-4000.7582L14080.4144,-4000.7701L14080.3968,-4000.7763L14080.3829,-4000.783L14080.3719,-4000.7932L14080.3689,-4000.8005L14080.3704,-4000.8191L14080.3755,-4000.8309L14080.3887,-4000.8421L14080.4012,-4000.85L14080.4092,-4000.854L14080.4308,-4000.8607L14080.4369,-4000.8626L14080.4466,-4000.8669L14080.4539,-4000.8726L14080.4546,-4000.8731L14080.4627,-4000.8906L14080.4608,-4000.896L14080.4591,-4000.9007L14080.4451,-4000.9187L14080.4319,-4000.9294L14080.3939,-4000.9519L14080.3726,-4000.961L14080.3484,-4000.961L14080.2793,-4000.9549L14080.2676,-4000.9576L14080.2597,-4000.9651L14080.2494,-4000.9834L14080.2489,-4000.9884L14080.252,-4000.9948L14080.2628,-4001.0032L14080.2921,-4001.0178L14080.3236,-4001.0359L14080.3301,-4001.0438L14080.3353,-4001.0601L14080.3316,-4001.0702L14080.325,-4001.0758L14080.3118,-4001.0837L14080.2964,-4001.0837L14080.2869,-4001.0815L14080.2679,-4001.073L14080.2393,-4001.055L14080.2159,-4001.0432L14080.2086,-4001.0409L14080.1983,-4001.0387L14080.1742,-4001.0387L14080.1624,-4001.0415L14080.1346,-4001.0511L14080.12,-4001.055L14080.0987,-4001.0556L14080.0841,-4001.0522L14080.0781,-4001.0496M14080.0781,-4001.1907L14080.0812,-4001.1924L14080.0885,-4001.198L14080.1171,-4001.2341L14080.15,-4001.2679L14080.169,-4001.2819L14080.2247,-4001.3146L14080.2362,-4001.3209L14080.251,-4001.3263L14080.2657,-4001.3287L14080.2745,-4001.3294L14080.2818,-4001.3292L14080.2932,-4001.3249L14080.3037,-4001.3242L14080.3184,-4001.3191L14080.3446,-4001.311L14080.364,-4001.3092L14080.3847,-4001.3126L14080.4061,-4001.3206L14080.4528,-4001.3389L14080.5831,-4001.3933L14080.5921,-4001.3946L14080.5979,-4001.3943L14080.665,-4001.3767L14080.7563,-4001.3563L14080.7885,-4001.3495L14080.8039,-4001.3473L14080.8207,-4001.3467L14080.8295,-4001.3484L14080.8302,-4001.3478L14080.8537,-4001.3597L14080.8639,-4001.3721L14080.8698,-4001.3811L14080.8713,-4001.3878L14080.8734,-4001.4301L14080.8756,-4001.4458L14080.8881,-4001.4746L14080.8924,-4001.4796L14080.902,-4001.4897L14080.9349,-4001.5145L14080.9825,-4001.5388L14081.0089,-4001.5568L14081.0199,-4001.5816L14081.0521,-4001.6379L14081.1099,-4001.742L14081.1231,-4001.7629L14081.1304,-4001.7769L14081.137,-4001.7899L14081.1597,-4001.831L14081.1663,-4001.8395L14081.189,-4001.8631L14081.3032,-4001.9504L14081.3076,-4001.9532L14081.3186,-4001.9634L14081.3244,-4001.9741L14081.3288,-4001.9853L14081.3347,-4001.9943L14081.3413,-4002.0107L14081.3671,-4002.0648L14081.3808,-4002.0934L14081.4035,-4002.1407L14081.4108,-4002.1582L14081.4153,-4002.1661L14081.4277,-4002.1835L14081.4474,-4002.2027L14081.4731,-4002.2218L14081.4892,-4002.232L14081.5097,-4002.241L14081.5272,-4002.2469L14081.5485,-4002.2506L14081.58,-4002.259L14081.6364,-4002.281L14081.6415,-4002.2821L14081.7638,-4002.3277L14081.8165,-4002.3474L14081.8465,-4002.3643L14081.8663,-4002.3784L14081.9519,-4002.4482L14082.0684,-4002.5423L14082.0889,-4002.5676L14082.1431,-4002.6557L14082.1595,-4002.6823L14082.2121,-4002.7697L14082.2263,-4002.7933L14082.2495,-4002.8317L14082.2708,-4002.8671L14082.2832,-4002.8891L14082.2946,-4002.9037L14082.3056,-4002.9166L14082.3161,-4002.9254L14082.3261,-4002.9309L14082.34,-4002.9353L14082.3534,-4002.9357L14082.3616,-4002.9351L14082.3702,-4002.9333L14082.3793,-4002.9298L14082.387,-4002.925L14082.3934,-4002.9179L14082.4015,-4002.9061L14082.4872,-4002.7957L14082.5033,-4002.7782L14082.5216,-4002.7647L14082.5301,-4002.7615L14082.5443,-4002.7608L14082.5615,-4002.7687L14082.5693,-4002.7744L14082.5707,-4002.7765L14082.5747,-4002.7833L14082.5765,-4002.7923L14082.5736,-4002.8058L14082.5106,-4002.9229L14082.4952,-4002.9607L14082.493,-4002.9714L14082.4813,-4002.995L14082.4564,-4003.0356L14082.4447,-4003.0496L14082.4367,-4003.0592L14082.4066,-4003.0907L14082.3993,-4003.1014L14082.3971,-4003.1071L14082.3869,-4003.1499L14082.37,-4003.2167L14082.362,-4003.2501L14082.3517,-4003.2906L14082.3429,-4003.3278L14082.3437,-4003.3504L14082.3459,-4003.3588L14082.3692,-4003.4106L14082.3751,-4003.4292L14082.3751,-4003.4478L14082.3729,-4003.4579L14082.3641,-4003.4759L14082.3444,-4003.5091L14082.3404,-4003.5138L14082.3319,-4003.5435L14082.3328,-4003.5515L14082.3341,-4003.615L14082.3407,-4003.6516L14082.3442,-4003.6782L14082.3451,-4003.6848L14082.3436,-4003.7001L14082.3385,-4003.7192L14082.3268,-4003.7428L14082.3129,-4003.762L14082.3087,-4003.7696L14082.307,-4003.7727L14082.2987,-4003.7919L14082.2974,-4003.8066L14082.2977,-4003.8252L14082.3015,-4003.8474L14082.3022,-4003.8547L14082.3022,-4003.8601L14082.3002,-4003.8664L14082.2902,-4003.8848L14082.288,-4003.8988L14082.2877,-4003.9094L14082.2887,-4003.958L14082.2967,-4003.9929L14082.3151,-4004.0548L14082.3174,-4004.0649L14082.318,-4004.0756L14082.318,-4004.0784L14082.3136,-4004.0976L14082.3084,-4004.1072L14082.2843,-4004.1472L14082.274,-4004.1714L14082.2667,-4004.1916L14082.2579,-4004.2328L14082.2565,-4004.2468L14082.2565,-4004.2485L14082.2521,-4004.2744L14082.2462,-4004.293L14082.2337,-4004.3172L14082.2059,-4004.3549L14082.1598,-4004.4067L14082.1334,-4004.44L14082.1233,-4004.455L14082.1115,-4004.4726L14082.0932,-4004.5053L14082.0814,-4004.525L14082.0785,-4004.5284L14082.0778,-4004.5312L14082.0728,-4004.5411L14082.0668,-4004.5475L14082.0483,-4004.5813L14082.0361,-4004.6038L14082.0225,-4004.6276L14081.995,-4004.6759L14081.9789,-4004.7013L14081.9672,-4004.7148L14081.9533,-4004.7243L14081.9189,-4004.7407L14081.8786,-4004.7593L14081.8662,-4004.7683L14081.853,-4004.7823L14081.7966,-4004.8663L14081.7819,-4004.8877L14081.7732,-4004.9034L14081.7483,-4004.9389L14081.7182,-4004.9839L14081.7153,-4004.9867L14081.6941,-4005.0211L14081.6864,-4005.0364L14081.6648,-4005.0763L14081.6348,-4005.1501L14081.5989,-4005.2311L14081.5376,-4005.3531L14081.4758,-4005.4614L14081.4729,-4005.4648L14081.4378,-4005.5313L14081.4202,-4005.5594L14081.4101,-4005.5664L14081.4048,-4005.5701L14081.2913,-4005.6389L14081.2686,-4005.6524L14081.2393,-4005.6726L14081.2247,-4005.6856L14081.2166,-4005.7002L14081.2077,-4005.7211L14081.2005,-4005.7379L14081.1837,-4005.7729L14081.1353,-4005.8365L14081.1046,-4005.881L14081.0577,-4005.9564L14081.0343,-4005.9953L14080.9845,-4006.0691L14080.9681,-4006.0944L14080.9632,-4006.1033L14080.9034,-4006.214L14080.8929,-4006.2391L14080.8893,-4006.2505L14080.8882,-4006.2609L14080.8885,-4006.3095L14080.8841,-4006.3191L14080.8717,-4006.3264L14080.8475,-4006.3315L14080.827,-4006.3371L14080.8228,-4006.3389L14080.816,-4006.3416L14080.7846,-4006.3591L14080.7392,-4006.3878L14080.7348,-4006.3916L14080.7216,-4006.403L14080.7157,-4006.4159L14080.6967,-4006.4841L14080.6909,-4006.5066L14080.6879,-4006.5173L14080.6828,-4006.5336L14080.6718,-4006.5657L14080.6663,-4006.5792L14080.6651,-4006.5823L14080.6567,-4006.5945L14080.616,-4006.633L14080.5788,-4006.657L14080.5708,-4006.6665L14080.5517,-4006.6964L14080.5363,-4006.715L14080.5166,-4006.7324L14080.4997,-4006.7426L14080.4485,-4006.7673L14080.4162,-4006.7836L14080.3855,-4006.8017L14080.3657,-4006.8141L14080.3459,-4006.831L14080.3423,-4006.8394L14080.3386,-4006.8501L14080.3364,-4006.8676L14080.3276,-4006.9098L14080.3218,-4006.925L14080.3013,-4006.9532L14080.2888,-4006.9644L14080.25,-4006.9937L14080.1311,-4007.0691L14080.1256,-4007.0733L14080.1128,-4007.0912L14080.0781,-4007.1687"/>
<path content="1,岩手県北自動車（株）,盛岡⇔八幡平（季節運行）,2.8,2.8,2.8," xlink:title="1" d="M14097.6562,-3992.1103L14097.6363,-3992.1068L14097.5924,-3992.1011"/>
<path content="1,岩手県北自動車（株）,盛岡⇔八幡平（季節運行）,2.8,2.8,2.8," xlink:title="1" d="M14096.7024,-3990.2344L14096.7067,-3990.2726L14096.7118,-3990.2852L14096.7118,-3990.3019L14096.7213,-3990.334L14096.7235,-3990.3424L14096.7265,-3990.3678L14096.7272,-3990.3926L14096.7281,-3990.4276L14096.7286,-3990.4477L14096.733,-3990.4641L14096.7403,-3990.4799L14096.7491,-3990.4911L14096.763,-3990.5058L14096.7747,-3990.5159L14096.7958,-3990.539L14096.8258,-3990.5677L14096.8367,-3990.5778L14096.8492,-3990.5857L14096.9397,-3990.6291L14096.9675,-3990.6415L14097.0434,-3990.6764L14097.1113,-3990.7096L14097.1332,-3990.722L14097.1522,-3990.7378L14097.1603,-3990.7479L14097.1756,-3990.7738L14097.1851,-3990.7924L14097.1931,-3990.7997L14097.2172,-3990.8144L14097.2231,-3990.8166L14097.2501,-3990.8324L14097.302,-3990.8611L14097.3757,-3990.8977L14097.3882,-3990.9028L14097.4276,-3990.9112L14097.5203,-3990.9326L14097.5401,-3990.9371L14097.5576,-3990.9411L14097.5926,-3990.9495L14097.6182,-3990.9546L14097.6321,-3990.9546L14097.6518,-3990.9512L14097.6563,-3990.9502M14097.6562,-3991.9518L14097.6517,-3991.9637L14097.6444,-3991.9733L14097.629,-3991.9879L14097.6239,-3991.9947L14097.6085,-3992.0212L14097.6034,-3992.0403L14097.5971,-3992.0644L14097.5924,-3992.1011"/>
<path content="1,岩手県北自動車（株）,盛岡⇔八幡平（季節運行）,2.8,2.8,2.8," xlink:title="1" d="M14097.5924,-3992.1011L14097.5902,-3992.1226L14097.5844,-3992.1682L14097.5778,-3992.2216L14097.5815,-3992.234L14097.5888,-3992.2521L14097.5946,-3992.2599L14097.6085,-3992.2695L14097.6312,-3992.2779L14097.6466,-3992.2853L14097.6562,-3992.2923M14097.6562,-3992.349L14097.6517,-3992.3591L14097.6502,-3992.3739L14097.6517,-3992.3878L14097.6562,-3992.397M14097.6562,-3992.5848L14097.6546,-3992.5854L14097.6451,-3992.5882L14097.6201,-3992.5935L14097.5339,-3992.604L14097.4864,-3992.6085L14097.4633,-3992.6107L14097.4476,-3992.6113L14097.4343,-3992.6101L14097.4228,-3992.6051L14097.4126,-3992.5978L14097.3928,-3992.5764L14097.3826,-3992.5668L14097.3679,-3992.5584L14097.336,-3992.5484L14097.3289,-3992.5438L14097.3226,-3992.5375L14097.297,-3992.5167L14097.2853,-3992.5082L14097.2378,-3992.4756L14097.161,-3992.426L14097.1303,-3992.4086L14097.1135,-3992.4012L14097.094,-3992.3936L14097.0791,-3992.3894L14097.0506,-3992.3815L14097.0316,-3992.3781L14097.016,-3992.3766L14096.9789,-3992.3731L14096.9263,-3992.3725L14096.9014,-3992.3742L14096.8562,-3992.3796L14096.8546,-3992.3798L14096.8064,-3992.3877L14096.7734,-3992.3967L14096.7551,-3992.404L14096.742,-3992.4119L14096.7346,-3992.4192L14096.7286,-3992.4281L14096.7275,-3992.4355L14096.7282,-3992.4407L14096.7319,-3992.445L14096.7412,-3992.4496L14096.7566,-3992.4547L14096.7815,-3992.4609L14096.805,-3992.4684L14096.8203,-3992.4741L14096.8329,-3992.4798L14096.8437,-3992.4861L14096.8504,-3992.4936L14096.8515,-3992.5025L14096.8488,-3992.5092L14096.8377,-3992.5178L14096.8251,-3992.5222L14096.8106,-3992.5234L14096.7968,-3992.522L14096.7711,-3992.5157L14096.712,-3992.4992L14096.6827,-3992.4913L14096.6455,-3992.4846L14096.6148,-3992.4812L14096.5969,-3992.4803L14096.5819,-3992.4817L14096.5343,-3992.4902L14096.5231,-3992.4923L14096.5127,-3992.4921L14096.5029,-3992.4885L14096.4758,-3992.4761L14096.4572,-3992.4697L14096.4469,-3992.4669L14096.4368,-3992.4657L14096.4217,-3992.4659L14096.4049,-3992.4699L14096.3902,-3992.4755L14096.3778,-3992.4817L14096.2623,-3992.5363L14096.2546,-3992.5399L14096.2491,-3992.5442L14096.2412,-3992.5534L14096.2367,-3992.5602L14096.2289,-3992.5731L14096.1905,-3992.6458L14096.1736,-3992.6771L14096.1605,-3992.6887L14096.1458,-3992.6968L14096.0884,-3992.724L14096.0159,-3992.7557L14095.9151,-3992.7998L14095.8883,-3992.8162L14095.8372,-3992.849L14095.8204,-3992.8642L14095.8168,-3992.8703L14095.8158,-3992.8758L14095.815,-3992.887L14095.8346,-3992.964L14095.8407,-3992.9875L14095.8422,-3992.996L14095.8418,-3993.0014L14095.8375,-3993.006L14095.8217,-3993.0077L14095.7993,-3993.0039L14095.7696,-3992.9944L14095.7443,-3992.983L14095.716,-3992.966L14095.6893,-3992.9421L14095.6573,-3992.9037L14095.6459,-3992.89L14095.6361,-3992.8839L14095.6228,-3992.8824L14095.5956,-3992.8904L14095.5283,-3992.9166L14095.5149,-3992.9244L14095.5073,-3992.9307L14095.5022,-3992.9452L14095.5001,-3992.9619L14095.4981,-3992.9774L14095.5004,-3993.0306L14095.5054,-3993.0464L14095.5142,-3993.0538L14095.5229,-3993.0588L14095.588,-3993.0932L14095.5983,-3993.0999L14095.6151,-3993.114L14095.6261,-3993.1275L14095.6371,-3993.1444L14095.667,-3993.2092L14095.6846,-3993.2435L14095.697,-3993.2722L14095.7343,-3993.3708L14095.7438,-3993.4029L14095.7431,-3993.4102L14095.7387,-3993.4198L14095.7309,-3993.4262L14095.7197,-3993.4288L14095.7108,-3993.4267L14095.7033,-3993.4196L14095.6882,-3993.3905L14095.667,-3993.346L14095.648,-3993.3105L14095.6429,-3993.3054L14095.6348,-3993.3021L14095.6218,-3993.3005L14095.6093,-3993.3032L14095.6008,-3993.3066L14095.5961,-3993.3105L14095.591,-3993.3195L14095.5894,-3993.3292L14095.5903,-3993.3387L14095.5961,-3993.3646L14095.6071,-3993.3969L14095.6486,-3993.5124L14095.6787,-3993.5831L14095.6839,-3993.6L14095.6839,-3993.609L14095.6791,-3993.6165L14095.6714,-3993.6202L14095.6572,-3993.62L14095.6449,-3993.6148L14095.6359,-3993.6071L14095.6268,-3993.5971L14095.5456,-3993.471L14095.5386,-3993.4621L14095.527,-3993.45L14095.5164,-3993.4468L14095.5061,-3993.4469L14095.4956,-3993.4531L14095.4926,-3993.4597L14095.4937,-3993.468L14095.4974,-3993.4792L14095.6118,-3993.7247L14095.6209,-3993.7385L14095.6268,-3993.743L14095.6502,-3993.752L14095.6743,-3993.7571L14095.6861,-3993.7582L14095.7146,-3993.7633L14095.7292,-3993.7683L14095.7452,-3993.779L14095.7614,-3993.7954L14095.7723,-3993.8173L14095.7789,-3993.8365L14095.7826,-3993.8556L14095.7818,-3993.8731L14095.7767,-3993.8849L14095.765,-3993.8995L14095.7533,-3993.9091L14095.7292,-3993.9232L14095.6597,-3993.9519L14095.6458,-3993.9581L14095.6202,-3993.971L14095.58,-3993.9964L14095.5486,-3994.0178L14095.4915,-3994.0606L14095.3899,-3994.1394L14095.3569,-3994.1687L14095.3453,-3994.1822L14095.2941,-3994.2526L14095.2816,-3994.2661L14095.2692,-3994.2767L14095.2531,-3994.2858L14095.2381,-3994.2874L14095.2246,-3994.2835L14095.2151,-3994.2762L14095.2106,-3994.2647L14095.2114,-3994.2492L14095.2131,-3994.2441L14095.2151,-3994.2379L14095.2355,-3994.2053L14095.2597,-3994.1743L14095.2821,-3994.1417L14095.284,-3994.132L14095.2821,-3994.1245L14095.2767,-3994.1197L14095.2678,-3994.118L14095.2597,-3994.1197L14095.2429,-3994.1281L14095.1902,-3994.1664L14095.177,-3994.1749L14095.1639,-3994.1816L14095.1471,-3994.1889L14095.1178,-3994.1985L14095.0542,-3994.2171L14095.0374,-3994.2221L14095.0015,-3994.2328L14094.9664,-3994.2452L14094.913,-3994.2649L14094.826,-3994.2993L14094.7434,-3994.3353L14094.6975,-3994.3651L14094.6531,-3994.3977L14094.6232,-3994.4219L14094.5895,-3994.4518L14094.5459,-3994.4918L14094.533,-3994.5037L14094.5083,-3994.5277L14094.4959,-3994.5376L14094.4858,-3994.5442L14094.474,-3994.5498L14094.4588,-3994.5611L14094.4431,-3994.574L14094.4265,-3994.5878L14094.4063,-3994.6017L14094.386,-3994.6118L14094.3611,-3994.6219L14094.3307,-3994.6339L14094.2993,-3994.6413L14094.2735,-3994.6496L14094.2523,-3994.6523L14094.2192,-3994.6459L14094.1897,-3994.6358L14094.1454,-3994.6238L14094.1058,-3994.6081L14094.0966,-3994.5832L14094.0865,-3994.5556L14094.0772,-3994.5307L14094.0689,-3994.5178L14094.0505,-3994.5132L14094.0101,-3994.5159L14093.9212,-3994.5447L14093.7427,-3994.6036L14093.6632,-3994.6276L14093.5306,-3994.6711L14093.5079,-3994.6788L14093.4863,-3994.6859L14093.4566,-3994.6931L14093.4259,-3994.6983L14093.4007,-3994.702L14093.3444,-3994.7102L14093.3383,-3994.712L14093.2281,-3994.7334L14093.1586,-3994.7503L14093.1045,-3994.7645L14093.0964,-3994.7666L14093.0665,-3994.7733L14093.0241,-3994.7795L14093.0087,-3994.7807L14092.9773,-3994.7801L14092.8998,-3994.7767L14092.869,-3994.7744L14092.8566,-3994.7722L14092.6891,-3994.7305L14092.6241,-3994.7136L14092.6174,-3994.7119L14092.5904,-3994.7029L14092.5813,-3994.6993L14092.5721,-3994.6939L14092.5597,-3994.6804L14092.5348,-3994.6449L14092.5297,-3994.6388L14092.4663,-3994.5488L14092.4576,-3994.5364L14092.4484,-3994.5217L14092.4156,-3994.4732L14092.401,-3994.4534L14092.352,-3994.3814L14092.3432,-3994.3622L14092.3411,-3994.3476L14092.3411,-3994.3251L14092.3476,-3994.28L14092.3476,-3994.2597L14092.3454,-3994.2541L14092.3411,-3994.2474L14092.3337,-3994.2389L14092.3264,-3994.2355L14092.3133,-3994.2316L14092.2877,-3994.2305L14092.2767,-3994.2316L14092.186,-3994.2496L14092.1341,-3994.2626L14092.1214,-3994.2684L14092.1134,-3994.2733L14092.1078,-3994.2806L14092.1048,-3994.289L14092.088,-3994.3352L14092.0683,-3994.3797L14092.0522,-3994.405L14092.0427,-3994.4129L14092.0244,-3994.4123L14092.0083,-3994.4095L14091.9951,-3994.405L14091.9951,-3994.4039L14091.9878,-3994.3977L14091.9849,-3994.3893L14091.9834,-3994.3577L14091.9732,-3994.2305L14091.9689,-3994.1993L14091.962,-3994.1934L14091.9498,-3994.1899L14091.9403,-3994.1899L14091.9323,-3994.1911L14091.9198,-3994.1972L14091.9118,-3994.2068L14091.9074,-3994.2147L14091.9074,-3994.3712L14091.9008,-3994.3954L14091.8935,-3994.409L14091.8869,-3994.4163L14091.8745,-3994.4214L14091.8518,-3994.4214L14091.8379,-3994.4185L14091.8262,-3994.414L14091.8101,-3994.4044L14091.7772,-3994.3791L14091.7004,-3994.3155L14091.6865,-3994.3014L14091.6587,-3994.2687L14091.6485,-3994.253L14091.6376,-3994.2327L14091.6302,-3994.2152L14091.6229,-3994.1854L14091.6207,-3994.1713L14091.6207,-3994.1257L14091.6281,-3994.0891L14091.6347,-3994.0683L14091.642,-3994.054L14091.6513,-3994.0488L14091.6641,-3994.0468L14091.6816,-3994.0463L14091.715,-3994.0511L14091.7378,-3994.0551L14091.7556,-3994.0554L14091.7794,-3994.0538L14091.8028,-3994.05L14091.8204,-3994.0463L14091.8643,-3994.0367L14091.9037,-3994.0266L14091.9111,-3994.0255L14091.9271,-3994.0204L14091.9542,-3994.0097L14091.9659,-3994.003L14091.9717,-3993.9962L14091.9761,-3993.9878L14091.9773,-3993.9789L14091.9754,-3993.9709L14091.9703,-3993.9636L14091.9647,-3993.9572L14091.9579,-3993.9533L14091.9484,-3993.9506L14091.9367,-3993.9489L14091.846,-3993.9483L14091.8204,-3993.9455L14091.7955,-3993.9388L14091.7758,-3993.9303L14091.7612,-3993.9202L14091.7494,-3993.9078L14091.7421,-3993.8948L14091.7398,-3993.8877L14091.7399,-3993.8768L14091.7421,-3993.8673L14091.7458,-3993.8605L14091.7648,-3993.8289L14091.7736,-3993.8183L14091.786,-3993.7991L14091.7904,-3993.7901L14091.7917,-3993.7819L14091.7911,-3993.7754L14091.7867,-3993.7687L14091.7773,-3993.7591L14091.7619,-3993.7484L14091.718,-3993.7231L14091.6887,-3993.6994L14091.6744,-3993.6861L14091.6595,-3993.6679L14091.6464,-3993.6437L14091.631,-3993.5902L14091.6251,-3993.5761L14091.6091,-3993.5479L14091.5915,-3993.5221L14091.5666,-3993.4911L14091.5491,-3993.4714L14091.5184,-3993.4421L14091.4898,-3993.4212L14091.3637,-3993.3473L14091.3238,-3993.3238L14091.3092,-3993.3154L14091.2785,-3993.2991L14091.2595,-3993.2884L14091.2478,-3993.2827L14091.2222,-3993.2714L14091.1988,-3993.2653L14091.1915,-3993.2641L14091.1779,-3993.2655L14091.1681,-3993.2682L14091.1588,-3993.2735L14091.1542,-3993.2805L14091.1483,-3993.2946L14091.1454,-3993.3176L14091.1425,-3993.3841L14091.1396,-3993.3964L14091.1206,-3993.4584L14091.1096,-3993.5051L14091.0935,-3993.5851L14091.0796,-3993.6932L14091.0759,-3993.7405L14091.0781,-3993.8194L14091.0832,-3993.8678L14091.0832,-3993.9021L14091.0796,-3993.9201L14091.073,-3993.9354L14091.0576,-3993.9517L14091.0418,-3993.9647L14091.0035,-3993.9962L14090.8675,-3994.1088L14090.847,-3994.129L14090.8375,-3994.1414L14090.8134,-3994.1809L14090.7768,-3994.2496L14090.7592,-3994.2845L14090.7549,-3994.2963L14090.7534,-3994.3115L14090.7592,-3994.3475L14090.7592,-3994.3689L14090.7527,-3994.3982L14090.7439,-3994.4095L14090.7336,-3994.4162L14090.7028,-3994.4262L14090.5991,-3994.4461L14090.553,-3994.4602L14090.526,-3994.4692L14090.5011,-3994.481L14090.4865,-3994.4915L14090.4735,-3994.5066L14090.4434,-3994.5437L14090.4269,-3994.5608L14090.4143,-3994.5726L14090.3877,-3994.5925L14090.3461,-3994.6209L14090.2985,-3994.6465L14090.263,-3994.6662L14090.2506,-3994.6706L14090.2298,-3994.6781L14090.1744,-3994.6964L14090.1286,-3994.7096L14090.0969,-3994.7234L14090.0601,-3994.7372L14089.9941,-3994.7554L14089.9578,-3994.7663L14089.9262,-3994.7783L14089.8536,-3994.804L14089.8377,-3994.8118L14089.8214,-3994.8211L14089.8078,-3994.8318L14089.7945,-3994.8436L14089.7866,-3994.8532L14089.7544,-3994.8949L14089.7274,-3994.9236L14089.663,-3994.9895L14089.6264,-3995.0233L14089.5974,-3995.0458L14089.5877,-3995.0514L14089.5745,-3995.0553L14089.565,-3995.0576L14089.5399,-3995.0624L14089.4824,-3995.075L14089.4261,-3995.0931L14089.3917,-3995.1071L14089.3829,-3995.1122L14089.3727,-3995.1178L14089.3507,-3995.1302L14089.3266,-3995.1392L14089.3129,-3995.1427L14089.2946,-3995.1437L14089.2804,-3995.1418L14089.2683,-3995.1393L14089.2015,-3995.1218L14089.1825,-3995.1173L14089.1503,-3995.1082L14089.1131,-3995.1019L14089.1006,-3995.0998L14089.0816,-3995.0998L14089.0676,-3995.1016L14089.0553,-3995.1049L14089.037,-3995.1122L14088.8849,-3995.2186L14088.8044,-3995.2761L14088.6046,-3995.4167L14088.5755,-3995.4371L14088.5241,-3995.4724L14088.5175,-3995.4736L14088.5105,-3995.474L14088.5036,-3995.4713L14088.4737,-3995.4624L14088.4677,-3995.4589L14088.4627,-3995.4538L14088.4592,-3995.4405L14088.46,-3995.4208L14088.4856,-3995.3448L14088.4899,-3995.3279L14088.4929,-3995.3025L14088.4929,-3995.262L14088.4892,-3995.2349L14088.4812,-3995.2085L14088.4724,-3995.1871L14088.4534,-3995.1561L14088.4366,-3995.1347L14088.4285,-3995.1269L14088.4179,-3995.1213L14088.4038,-3995.1187L14088.3876,-3995.1201L14088.3766,-3995.1229L14088.3547,-3995.1325L14088.3261,-3995.151L14088.283,-3995.1854L14088.264,-3995.2017L14088.2549,-3995.2088L14088.2471,-3995.2113L14088.2387,-3995.2123L14088.2303,-3995.2124L14088.2135,-3995.2107L14088.1314,-3995.1949L14087.9927,-3995.1679L14087.9144,-3995.1499L14087.8401,-3995.1306L14087.8155,-3995.1236L14087.8117,-3995.1225L14087.7871,-3995.1139L14087.7579,-3995.1021L14087.7148,-3995.0812L14087.6833,-3995.0632L14087.6519,-3995.0452L14087.6292,-3995.0339L14087.6029,-3995.0232L14087.5839,-3995.0165L14087.5641,-3995.0125L14087.5473,-3995.0108L14087.5226,-3995.0108L14087.4932,-3995.0159L14087.4624,-3995.0266L14087.4427,-3995.0351L14087.3952,-3995.066L14087.3681,-3995.0818L14087.3447,-3995.0891L14087.3257,-3995.0925L14087.3052,-3995.0936L14087.2489,-3995.0925L14087.2226,-3995.0925L14087.1999,-3995.0959L14087.1809,-3995.1009L14087.1502,-3995.1172L14087.1348,-3995.1321L14087.1034,-3995.1696L14087.088,-3995.1826L14087.0704,-3995.1888L14087.0624,-3995.1916L14087.0024,-3995.2113L14086.9586,-3995.2242L14086.9513,-3995.2254L14086.9235,-3995.2254L14086.8949,-3995.2226L14086.8006,-3995.2079L14086.7808,-3995.2028L14086.7509,-3995.1927L14086.6544,-3995.151L14086.6295,-3995.1398L14086.6149,-3995.1355L14086.5987,-3995.133L14086.579,-3995.133L14086.5578,-3995.1375L14086.5183,-3995.1471L14086.4583,-3995.1651L14086.4306,-3995.1724L14086.4203,-3995.1741L14086.4159,-3995.1752L14086.3911,-3995.1752L14086.3735,-3995.1702L14086.3618,-3995.1657L14086.3457,-3995.1533L14086.3282,-3995.1319L14086.3055,-3995.1032L14086.2967,-3995.0942L14086.2857,-3995.0857L14086.2792,-3995.0846L14086.2558,-3995.0846L14086.1754,-3995.0971L14086.1476,-3995.1015L14086.1241,-3995.1015L14086.1139,-3995.0998L14086.0986,-3995.0947L14086.0649,-3995.0767L14086.0196,-3995.0469L14086.0082,-3995.0436L14085.9978,-3995.0421L14085.9866,-3995.0423L14085.9625,-3995.0508L14085.9354,-3995.0637L14085.8682,-3995.1088L14085.8601,-3995.1133L14085.8523,-3995.1151L14085.8401,-3995.1144L14085.8207,-3995.1077L14085.7446,-3995.075L14085.7131,-3995.0615L14085.7,-3995.0536L14085.6839,-3995.0322L14085.6715,-3995.0125L14085.6634,-3995.0024L14085.6554,-3994.995L14085.6437,-3994.9933L14085.6433,-3994.9933L14085.6299,-3994.9903L14085.6312,-3994.9793L14085.629,-3994.9624L14085.6283,-3994.9572L14085.6162,-3994.9302L14085.6139,-3994.9209L14085.6064,-3994.9004L14085.5991,-3994.8847L14085.5888,-3994.8666L14085.5333,-3994.7968L14085.531,-3994.7928L14085.4936,-3994.7456L14085.488,-3994.7364L14085.4868,-3994.7272L14085.4868,-3994.7146L14085.4884,-3994.7036L14085.4904,-3994.6944L14085.4952,-3994.6833L14085.5,-3994.6754L14085.5111,-3994.6637L14085.5203,-3994.6561L14085.5596,-3994.6296L14085.5706,-3994.6206L14085.5764,-3994.6132L14085.5947,-3994.5687L14085.613,-3994.54L14085.651,-3994.4961L14085.6539,-3994.4893L14085.6532,-3994.4741L14085.6517,-3994.4662L14085.6232,-3994.4156L14085.5954,-3994.3829L14085.5746,-3994.3595L14085.5581,-3994.3378L14085.5442,-3994.3159L14085.5243,-3994.2837L14085.5146,-3994.2693L14085.5123,-3994.2605L14085.5121,-3994.2568L14085.5118,-3994.253L14085.5169,-3994.248L14085.5325,-3994.2443L14085.602,-3994.2438L14085.7176,-3994.2466L14085.749,-3994.2511L14085.8002,-3994.2579L14085.8119,-3994.2601L14085.8341,-3994.2626L14085.8494,-3994.2608L14085.8616,-3994.2517L14085.8706,-3994.2436L14085.8717,-3994.2331L14085.8694,-3994.2257L14085.8636,-3994.2212L14085.8534,-3994.2144L14085.8415,-3994.2106L14085.8255,-3994.2069L14085.7764,-3994.1976L14085.7402,-3994.1914L14085.7241,-3994.1869L14085.7155,-3994.1797L14085.7128,-3994.1695L14085.7183,-3994.1576L14085.7219,-3994.1543L14085.73,-3994.1492L14085.7512,-3994.1497L14085.8097,-3994.1554L14085.836,-3994.1582L14085.8404,-3994.1593L14085.9282,-3994.1611L14085.9391,-3994.1628L14085.9508,-3994.1695L14085.9728,-3994.2219L14085.9801,-3994.2427L14085.9881,-3994.2596L14085.9984,-3994.2737L14086.005,-3994.2793L14086.0159,-3994.2844L14086.0276,-3994.2855L14086.0387,-3994.2854L14086.0503,-3994.2832L14086.0551,-3994.2791L14086.0591,-3994.2725L14086.0686,-3994.2455L14086.0759,-3994.2309L14086.0912,-3994.2106L14086.1073,-3994.2089L14086.1183,-3994.2101L14086.1571,-3994.2253L14086.217,-3994.2466L14086.2397,-3994.2534L14086.2631,-3994.2574L14086.2873,-3994.2574L14086.3107,-3994.254L14086.3238,-3994.2484L14086.3333,-3994.2421L14086.3414,-3994.2348L14086.356,-3994.2106L14086.3655,-3994.187L14086.3684,-3994.1667L14086.3692,-3994.1611L14086.3676,-3994.1518"/>
<path content="1,岩手県北自動車（株）,盛岡⇔安比高原,999.9,999.9,999.9," xlink:title="1" d="M14097.6562,-3999.6844L14097.6172,-3999.7255L14097.588,-3999.7508L14097.5726,-3999.7598L14097.5609,-3999.7643L14097.5383,-3999.7683L14097.4834,-3999.775L14097.4468,-3999.7807L14097.4191,-3999.7874L14097.3949,-3999.7959L14097.3895,-3999.7997L14097.3825,-3999.8032L14097.3635,-3999.8184L14097.3364,-3999.8449L14097.2969,-3999.8871L14097.2801,-3999.9085L14097.2669,-3999.9355L14097.2633,-3999.9485L14097.2633,-3999.9699L14097.2691,-3999.9873L14097.2764,-3999.9986L14097.2896,-4000.0161L14097.2954,-4000.0223L14097.3839,-4000.1146"/>
<path content="1,岩手県北自動車（株）,盛岡⇔安比高原,999.9,999.9,999.9," xlink:title="1" d="M14097.3839,-4000.1146L14097.5249,-4000.2608L14097.5419,-4000.2773L14097.5635,-4000.2976L14097.5708,-4000.3066L14097.5759,-4000.3275L14097.5759,-4000.3438L14097.5679,-4000.3922L14097.5605,-4000.4395L14097.5561,-4000.4587L14097.5496,-4000.4744L14097.5349,-4000.5009L14097.5173,-4000.5223L14097.5042,-4000.5347L14097.4382,-4000.5865L14097.4346,-4000.5893L14097.3482,-4000.6563L14097.4163,-4000.7087L14097.4628,-4000.7427L14097.499,-4000.7712L14097.5774,-4000.8297L14097.6272,-4000.8669L14097.6562,-4000.8893"/>
<path content="1,岩手県北自動車（株）,盛岡⇔安比高原,999.9,999.9,999.9," xlink:title="1" d="M14097.1862,-4000.204L14097.1916,-4000.2007L14097.2135,-4000.194L14097.2464,-4000.1844L14097.2647,-4000.176L14097.3306,-4000.1377L14097.3839,-4000.1146"/>
<path content="1,秋北バス（株）,田沢湖駅前-八幡平頂上,4.0,4.0,4.0," xlink:title="1" d="M14085.6162,-3994.9302L14085.6283,-3994.9572L14085.629,-3994.9624L14085.6312,-3994.9793L14085.6299,-3994.9903L14085.6151,-3994.9996L14085.4126,-3995.1048L14085.3526,-3995.1381L14085.2663,-3995.1899L14085.2224,-3995.2174L14085.1391,-3995.2698L14085.1069,-3995.2884L14085.0791,-3995.298L14084.9643,-3995.3227L14084.9379,-3995.3279L14084.9211,-3995.3329L14084.9138,-3995.3357L14084.9021,-3995.3424L14084.8034,-3995.414L14084.7544,-3995.4528L14084.7456,-3995.4613L14084.7332,-3995.4804L14084.72,-3995.508L14084.712,-3995.5339L14084.6959,-3995.5711L14084.682,-3995.5913L14084.6703,-3995.602L14084.6337,-3995.6274L14084.5737,-3995.6679L14084.5518,-3995.682L14084.5423,-3995.6865L14084.5335,-3995.6887L14084.5167,-3995.6882L14084.4801,-3995.6797L14084.388,-3995.6561L14084.3639,-3995.6516L14084.3309,-3995.6488L14084.3214,-3995.6499L14084.1701,-3995.6819L14084.1591,-3995.6836L14084.0699,-3995.718L14084.0662,-3995.7191L14084.0296,-3995.7298L14084.0026,-3995.7337L14083.9551,-3995.7377L14083.8907,-3995.7428L14083.8081,-3995.7489L14083.7422,-3995.7546L14083.7306,-3995.7568L14083.7203,-3995.7613L14083.7137,-3995.7658L14083.7091,-3995.7716L14083.7079,-3995.7771L14083.7108,-3995.7973L14083.7225,-3995.8497L14083.7313,-3995.8925L14083.7393,-3995.9269L14083.7547,-3996.0035L14083.7796,-3996.12L14083.7824,-3996.1358L14083.7941,-3996.1915L14083.8007,-3996.2214L14083.8117,-3996.2383L14083.8256,-3996.2535L14083.8644,-3996.2845L14083.8673,-3996.2873L14083.8775,-3996.2991L14083.8804,-3996.3081L14083.8804,-3996.3156L14083.879,-3996.3239L14083.8731,-3996.3351L14083.8671,-3996.3403L14083.8665,-3996.3404L14083.857,-3996.3436L14083.8411,-3996.3461L14083.8399,-3996.3461L14083.8161,-3996.3458L14083.781,-3996.3413L14083.7554,-3996.3374L14083.7378,-3996.3334L14083.7218,-3996.3306L14083.6889,-3996.3222L14083.6749,-3996.3158L14083.6603,-3996.3058L14083.5799,-3996.2439L14083.574,-3996.2388L14083.5323,-3996.2061L14083.5009,-3996.1842L14083.4936,-3996.1825L14083.4673,-3996.1825L14083.4577,-3996.1848L14083.4431,-3996.1921L14083.4351,-3996.2033L14083.4241,-3996.2236L14083.3707,-3996.3266L14083.359,-3996.3475L14083.3583,-3996.3498L14083.3356,-3996.3942L14083.2998,-3996.464L14083.2859,-3996.4911L14083.2742,-3996.5034L14083.2493,-3996.5215L14083.2062,-3996.5468L14083.1945,-3996.5513L14083.1798,-3996.5534L14083.1696,-3996.5528L14083.159,-3996.549L14083.1477,-3996.5418L14083.1366,-3996.5284L14083.1359,-3996.5221L14083.1286,-3996.5068L14083.1228,-3996.4903L14083.1221,-3996.4883L14083.1191,-3996.4747L14083.1169,-3996.4438L14083.1126,-3996.4229L14083.1067,-3996.41L14083.0906,-3996.4021L14083.0687,-3996.3998L14083.0555,-3996.4007L14083.0486,-3996.4047L14083.0431,-3996.4105L14082.997,-3996.4849L14082.9729,-3996.5226L14082.9495,-3996.5626L14082.9334,-3996.5969L14082.8954,-3996.7287L14082.8866,-3996.7405L14082.8741,-3996.7484L14082.8537,-3996.7484L14082.8464,-3996.7467L14082.8244,-3996.7371L14082.7988,-3996.723L14082.7798,-3996.7112L14082.7652,-3996.6999L14082.744,-3996.6724L14082.7345,-3996.6571L14082.7279,-3996.6487L14082.7184,-3996.6391L14082.6965,-3996.6335L14082.6782,-3996.6352L14082.6658,-3996.6414L14082.6599,-3996.6476L14082.6562,-3996.6521L14082.6548,-3996.6605L14082.6548,-3996.7112L14082.657,-3996.7394L14082.6672,-3996.8075L14082.6679,-3996.8093L14082.6899,-3996.8672L14082.6986,-3996.8925L14082.6994,-3996.9106L14082.6957,-3996.9173L14082.6921,-3996.9218L14082.6804,-3996.9291L14082.6701,-3996.9319L14082.6548,-3996.9314L14082.6423,-3996.928L14082.6219,-3996.9184L14082.6094,-3996.9077L14082.5926,-3996.8903L14082.5641,-3996.8469L14082.5465,-3996.8187L14082.5326,-3996.8092L14082.5217,-3996.8052L14082.5056,-3996.8047L14082.4983,-3996.8069L14082.4895,-3996.812L14082.4836,-3996.8165L14082.4792,-3996.8221L14082.4763,-3996.834L14082.4751,-3996.8412L14082.4763,-3996.8492L14082.5048,-3996.8807L14082.5048,-3996.8965L14082.5034,-3996.9015L14082.499,-3996.9083L14082.4895,-3996.9179L14082.4771,-3996.9224L14082.4639,-3996.9224L14082.4522,-3996.9156L14082.4178,-3996.8914L14082.3732,-3996.8565L14082.3623,-3996.8464L14082.3542,-3996.8323L14082.3469,-3996.8154L14082.3352,-3996.7709L14082.3308,-3996.7579L14082.3227,-3996.7444L14082.3096,-3996.7382L14082.2964,-3996.7343L14082.2857,-3996.7331L14082.2737,-3996.7348L14082.2664,-3996.7416L14082.2621,-3996.7546L14082.2635,-3996.7844L14082.2737,-3996.8362L14082.2789,-3996.8672L14082.2813,-3996.8763L14082.2818,-3996.8779L14082.3111,-3996.9646L14082.3103,-3996.9849L14082.3023,-3996.9933L14082.2862,-3997.0012L14082.2818,-3997.0023L14082.267,-3997.0028L14082.2578,-3997.0019L14082.2503,-3996.9967L14082.243,-3996.9894L14082.216,-3996.9319L14082.1991,-3996.9083L14082.137,-3996.8474L14082.0763,-3996.7895L14082.0002,-3996.736L14081.9907,-3996.7281L14081.9651,-3996.6964L14081.9569,-3996.6859L14081.9529,-3996.679L14081.9411,-3996.6737L14081.9301,-3996.6713L14081.9154,-3996.6712L14081.9059,-3996.6729L14081.8964,-3996.6779L14081.8913,-3996.683L14081.8861,-3996.6875L14081.8839,-3996.6937L14081.8847,-3996.7146L14081.892,-3996.7382L14081.9118,-3996.7776L14081.9527,-3996.8362L14081.9556,-3996.8457L14081.9695,-3996.9083L14081.9739,-3996.9426L14081.971,-3996.9544L14081.9366,-3996.9873L14081.9052,-3997.0188L14081.9026,-3997.033L14081.9066,-3997.0513L14081.9095,-3997.0588L14081.9193,-3997.0792L14081.9381,-3997.1099L14081.9407,-3997.1201L14081.941,-3997.1296L14081.9398,-3997.1363L14081.9353,-3997.1514L14081.9205,-3997.1876L14081.9118,-3997.2138L14081.8927,-3997.276L14081.8715,-3997.3047L14081.8349,-3997.3475L14081.8108,-3997.3689L14081.7983,-3997.3821L14081.7858,-3997.3869L14081.7736,-3997.3869L14081.7604,-3997.3852L14081.7384,-3997.383L14081.7282,-3997.3807L14081.7084,-3997.3728L14081.639,-3997.3475L14081.6082,-3997.3289L14081.5922,-3997.3182L14081.5724,-3997.3062L14081.5483,-3997.2901L14081.5329,-3997.276L14081.5161,-3997.2557L14081.4832,-3997.2067L14081.4459,-3997.1465L14081.4356,-3997.1346L14081.4239,-3997.1251L14081.4035,-3997.1155L14081.3859,-3997.1104L14081.3698,-3997.1082L14081.3494,-3997.1065L14081.3311,-3997.1104L14081.3113,-3997.1183L14081.2821,-3997.138L14081.1987,-3997.1994L14081.119,-3997.2551L14081.0495,-3997.3019L14081.0437,-3997.3064L14081.0188,-3997.3221L14081.0042,-3997.3289L14080.9888,-3997.3311L14080.9776,-3997.3311L14080.9675,-3997.3291L14080.9201,-3997.2962L14080.9084,-3997.29L14080.893,-3997.2861L14080.8696,-3997.2844L14080.8668,-3997.2844L14080.8411,-3997.2849L14080.8045,-3997.2889L14080.7628,-3997.3018L14080.7372,-3997.3109L14080.7204,-3997.3199L14080.6963,-3997.3283L14080.6692,-3997.3366L14080.6461,-3997.3331L14080.6384,-3997.3278L14080.6334,-3997.3216L14080.6275,-3997.3092L14080.6316,-3997.2975L14080.6414,-3997.2883L14080.6575,-3997.2793L14080.6692,-3997.2748L14080.6919,-3997.2692L14080.7136,-3997.2651L14080.746,-3997.2579L14080.7606,-3997.254L14080.7713,-3997.2484L14080.7789,-3997.2411L14080.7823,-3997.2304L14080.776,-3997.214L14080.7716,-3997.2084L14080.7628,-3997.2016L14080.7511,-3997.1966L14080.7398,-3997.1953L14080.7263,-3997.1966L14080.6985,-3997.2044L14080.561,-3997.2421L14080.5471,-3997.245L14080.5288,-3997.2461L14080.5098,-3997.2455L14080.4988,-3997.2433L14080.4871,-3997.2393L14080.4681,-3997.2298L14080.4528,-3997.2208L14080.4301,-3997.201L14080.4111,-3997.1869L14080.3979,-3997.1791L14080.3847,-3997.1723L14080.3759,-3997.1689L14080.3511,-3997.1695L14080.3086,-3997.1751L14080.308,-3997.1751L14080.2326,-3997.1943L14080.2189,-3997.1988L14080.2115,-3997.2032L14080.2055,-3997.2092L14080.1986,-3997.2167L14080.1887,-3997.2348L14080.1734,-3997.2625L14080.1558,-3997.2919L14080.1424,-3997.317L14080.1317,-3997.3354L14080.1273,-3997.3463L14080.112,-3997.3745L14080.085,-3997.4255L14080.085,-3997.4607L14080.0947,-3997.4906L14080.1229,-3997.5609L14080.1237,-3997.5744L14080.1208,-3997.5839L14080.1127,-3997.5946L14080.1064,-3997.599L14080.0981,-3997.602L14080.0849,-3997.6036L14080.0781,-3997.6022M14080.0781,-3998.1553L14080.0922,-3998.1797L14080.1076,-3998.2011L14080.1137,-3998.2073L14080.1422,-3998.2439L14080.1656,-3998.2715L14080.1782,-3998.2849L14080.1861,-3998.2901L14080.191,-3998.2972L14080.2161,-3998.3132L14080.2402,-3998.3301L14080.2497,-3998.3397L14080.2534,-3998.3532L14080.2402,-3998.4191L14080.2409,-3998.4377L14080.2438,-3998.4467L14080.2614,-3998.4777L14080.2699,-3998.4945L14080.2728,-3998.5041L14080.2721,-3998.5271L14080.2611,-3998.5514L14080.2311,-3998.6201L14080.2253,-3998.6443L14080.2223,-3998.6702L14080.2201,-3998.7862L14080.2136,-3998.8132L14080.1953,-3998.8554L14080.1821,-3998.8757L14080.1704,-3998.8904L14080.109,-3998.9653L14080.0885,-3998.9934L14080.0783,-3999.012L14080.0781,-3999.0142M14080.0781,-3999.0262L14080.0841,-3999.0385L14080.0907,-3999.0458L14080.1002,-3999.0497L14080.1404,-3999.061L14080.1653,-3999.0711L14080.1755,-3999.0779L14080.2011,-3999.1077L14080.215,-3999.1252L14080.3246,-3999.2566L14080.3254,-3999.2575L14080.3701,-3999.3211L14080.4015,-3999.3707L14080.4213,-3999.3932L14080.4381,-3999.4084L14080.5024,-3999.4597L14080.5368,-3999.4941L14080.5521,-3999.5104L14080.5938,-3999.5734L14080.6319,-3999.6352L14080.724,-3999.7767L14080.7401,-3999.797L14080.7606,-3999.8162L14080.7701,-3999.8229L14080.7854,-3999.828L14080.8388,-3999.828L14080.8651,-3999.8274L14080.871,-3999.8286L14080.89,-3999.8387L14080.9134,-3999.8471L14080.9419,-3999.855L14080.977,-3999.8584L14081.0033,-3999.8651L14081.0187,-3999.8713L14081.0231,-3999.877L14081.0282,-3999.8888L14081.0238,-3999.9057L14081.0202,-3999.9102L14081.0121,-3999.9164L14080.9997,-3999.9203L14080.9821,-3999.9203L14080.9763,-3999.9187L14080.9609,-3999.9119L14080.9185,-3999.8916L14080.9046,-3999.8866L14080.89,-3999.8816L14080.8735,-3999.8829L14080.8604,-3999.8888L14080.8542,-3999.8995L14080.852,-3999.9158L14080.8586,-3999.9243L14080.8644,-3999.9288L14080.8739,-3999.9356L14080.8863,-3999.9412L14080.9061,-3999.9457L14080.9331,-3999.9519L14081.0969,-3999.9851L14081.1116,-3999.9879L14081.1408,-3999.9952L14081.1593,-4000.0013L14081.1638,-4000.0074L14081.1646,-4000.0141L14081.1643,-4000.0299L14081.1529,-4000.0884L14081.1456,-4000.1142L14081.1378,-4000.1386L14081.1286,-4000.1654L14081.1145,-4000.2011L14081.095,-4000.2411L14081.0712,-4000.2768L14081.047,-4000.3133L14081.008,-4000.3713L14081.0049,-4000.3769L14081.0045,-4000.3821L14081.008,-4000.3892L14081.0507,-4000.4407L14081.0543,-4000.4525L14081.0543,-4000.4677L14081.047,-4000.4795L14081.0302,-4000.4981L14081.0221,-4000.506L14081.0075,-4000.5167L14080.9833,-4000.5313L14080.9526,-4000.5465L14080.935,-4000.5459L14080.9159,-4000.5426L14080.883,-4000.5319L14080.8471,-4000.5184L14080.8193,-4000.5105L14080.8083,-4000.5093L14080.7966,-4000.511L14080.7336,-4000.5504L14080.7204,-4000.5572L14080.7036,-4000.5578L14080.6787,-4000.5482L14080.6362,-4000.5246L14080.6263,-4000.52L14080.6183,-4000.5197L14080.6011,-4000.5221L14080.5931,-4000.5258L14080.5894,-4000.5336L14080.5806,-4000.5578L14080.5762,-4000.5797L14080.5725,-4000.6124L14080.5681,-4000.6366L14080.5623,-4000.6569L14080.5498,-4000.6811L14080.5308,-4000.7109L14080.5154,-4000.7261L14080.5022,-4000.7374L14080.4854,-4000.7487L14080.4612,-4000.7582L14080.4144,-4000.7701L14080.3968,-4000.7763L14080.3829,-4000.783L14080.3719,-4000.7932L14080.3689,-4000.8005L14080.3704,-4000.8191L14080.3755,-4000.8309L14080.3887,-4000.8421L14080.4012,-4000.85L14080.4092,-4000.854L14080.4308,-4000.8607L14080.4369,-4000.8626L14080.4466,-4000.8669L14080.4539,-4000.8726L14080.4546,-4000.8731L14080.4627,-4000.8906L14080.4608,-4000.896L14080.4591,-4000.9007L14080.4451,-4000.9187L14080.4319,-4000.9294L14080.3939,-4000.9519L14080.3726,-4000.961L14080.3484,-4000.961L14080.2793,-4000.9549L14080.2676,-4000.9576L14080.2597,-4000.9651L14080.2494,-4000.9834L14080.2489,-4000.9884L14080.252,-4000.9948L14080.2628,-4001.0032L14080.2921,-4001.0178L14080.3236,-4001.0359L14080.3301,-4001.0438L14080.3353,-4001.0601L14080.3316,-4001.0702L14080.325,-4001.0758L14080.3118,-4001.0837L14080.2964,-4001.0837L14080.2869,-4001.0815L14080.2679,-4001.073L14080.2393,-4001.055L14080.2159,-4001.0432L14080.2086,-4001.0409L14080.1983,-4001.0387L14080.1742,-4001.0387L14080.1624,-4001.0415L14080.1346,-4001.0511L14080.12,-4001.055L14080.0987,-4001.0556L14080.0841,-4001.0522L14080.0781,-4001.0496"/>
<path content="1,秋北バス（株）,花輪営業所-新玉川温泉,8.2,5.9,5.9," xlink:title="1" d="M14080.0781,-4001.1907L14080.0812,-4001.1924L14080.0885,-4001.198L14080.1171,-4001.2341L14080.15,-4001.2679L14080.169,-4001.2819L14080.2247,-4001.3146L14080.2362,-4001.3209L14080.251,-4001.3263L14080.2657,-4001.3287L14080.2745,-4001.3294L14080.2818,-4001.3292L14080.2932,-4001.3249L14080.3037,-4001.3242L14080.3184,-4001.3191L14080.3446,-4001.311L14080.364,-4001.3092L14080.3847,-4001.3126L14080.4061,-4001.3206L14080.4528,-4001.3389L14080.5831,-4001.3933L14080.5921,-4001.3946L14080.5979,-4001.3943L14080.665,-4001.3767L14080.7563,-4001.3563L14080.7885,-4001.3495L14080.8039,-4001.3473L14080.8207,-4001.3467L14080.8295,-4001.3484L14080.8302,-4001.3478L14080.8537,-4001.3597L14080.8639,-4001.3721L14080.8698,-4001.3811L14080.8713,-4001.3878L14080.8734,-4001.4301L14080.8756,-4001.4458L14080.8881,-4001.4746L14080.8924,-4001.4796L14080.902,-4001.4897L14080.9349,-4001.5145L14080.9825,-4001.5388L14081.0089,-4001.5568L14081.0199,-4001.5816L14081.0521,-4001.6379L14081.1099,-4001.742L14081.1231,-4001.7629L14081.1304,-4001.7769L14081.137,-4001.7899L14081.1597,-4001.831L14081.1663,-4001.8395L14081.189,-4001.8631L14081.3032,-4001.9504L14081.3076,-4001.9532L14081.3186,-4001.9634L14081.3244,-4001.9741L14081.3288,-4001.9853L14081.3347,-4001.9943L14081.3413,-4002.0107L14081.3671,-4002.0648L14081.3808,-4002.0934L14081.4035,-4002.1407L14081.4108,-4002.1582L14081.4153,-4002.1661L14081.4277,-4002.1835L14081.4474,-4002.2027L14081.4731,-4002.2218L14081.4892,-4002.232L14081.5097,-4002.241L14081.5272,-4002.2469L14081.5485,-4002.2506L14081.58,-4002.259L14081.6364,-4002.281L14081.6415,-4002.2821L14081.7638,-4002.3277L14081.8165,-4002.3474L14081.8465,-4002.3643L14081.8663,-4002.3784L14081.9519,-4002.4482L14082.0684,-4002.5423L14082.0889,-4002.5676L14082.1431,-4002.6557L14082.1595,-4002.6823L14082.2121,-4002.7697L14082.2263,-4002.7933L14082.2495,-4002.8317L14082.2708,-4002.8671L14082.2832,-4002.8891L14082.2946,-4002.9037L14082.3056,-4002.9166L14082.3161,-4002.9254L14082.3261,-4002.9309L14082.34,-4002.9353L14082.3534,-4002.9357L14082.3616,-4002.9351L14082.3702,-4002.9333L14082.3793,-4002.9298L14082.387,-4002.925L14082.3934,-4002.9179L14082.4015,-4002.9061L14082.4872,-4002.7957L14082.5033,-4002.7782L14082.5216,-4002.7647L14082.5301,-4002.7615L14082.5443,-4002.7608L14082.5615,-4002.7687L14082.5693,-4002.7744L14082.5707,-4002.7765L14082.5747,-4002.7833L14082.5765,-4002.7923L14082.5736,-4002.8058L14082.5106,-4002.9229L14082.4952,-4002.9607L14082.493,-4002.9714L14082.4813,-4002.995L14082.4564,-4003.0356L14082.4447,-4003.0496L14082.4367,-4003.0592L14082.4066,-4003.0907L14082.3993,-4003.1014L14082.3971,-4003.1071L14082.3869,-4003.1499L14082.37,-4003.2167L14082.362,-4003.2501L14082.3517,-4003.2906L14082.3429,-4003.3278L14082.3437,-4003.3504L14082.3459,-4003.3588L14082.3692,-4003.4106L14082.3751,-4003.4292L14082.3751,-4003.4478L14082.3729,-4003.4579L14082.3641,-4003.4759L14082.3444,-4003.5091L14082.3404,-4003.5138L14082.3319,-4003.5435L14082.3328,-4003.5515L14082.3341,-4003.615L14082.3407,-4003.6516L14082.3442,-4003.6782L14082.3451,-4003.6848L14082.3436,-4003.7001L14082.3385,-4003.7192L14082.3268,-4003.7428L14082.3129,-4003.762L14082.3087,-4003.7696L14082.307,-4003.7727L14082.2987,-4003.7919L14082.2974,-4003.8066L14082.2977,-4003.8252L14082.3015,-4003.8474L14082.3022,-4003.8547L14082.3022,-4003.8601L14082.3002,-4003.8664L14082.2902,-4003.8848L14082.288,-4003.8988L14082.2877,-4003.9094L14082.2887,-4003.958L14082.2967,-4003.9929L14082.3151,-4004.0548L14082.3174,-4004.0649L14082.318,-4004.0756L14082.318,-4004.0784L14082.3136,-4004.0976L14082.3084,-4004.1072L14082.2843,-4004.1472L14082.274,-4004.1714L14082.2667,-4004.1916L14082.2579,-4004.2328L14082.2565,-4004.2468L14082.2565,-4004.2485L14082.2521,-4004.2744L14082.2462,-4004.293L14082.2337,-4004.3172L14082.2059,-4004.3549L14082.1598,-4004.4067L14082.1334,-4004.44L14082.1233,-4004.455L14082.1115,-4004.4726L14082.0932,-4004.5053L14082.0814,-4004.525L14082.0785,-4004.5284L14082.0778,-4004.5312L14082.0728,-4004.5411L14082.0668,-4004.5475L14082.0483,-4004.5813L14082.0361,-4004.6038L14082.0225,-4004.6276L14081.995,-4004.6759L14081.9789,-4004.7013L14081.9672,-4004.7148L14081.9533,-4004.7243L14081.9189,-4004.7407L14081.8786,-4004.7593L14081.8662,-4004.7683L14081.853,-4004.7823L14081.7966,-4004.8663L14081.7819,-4004.8877L14081.7732,-4004.9034L14081.7483,-4004.9389L14081.7182,-4004.9839L14081.7153,-4004.9867L14081.6941,-4005.0211L14081.6864,-4005.0364L14081.6648,-4005.0763L14081.6348,-4005.1501L14081.5989,-4005.2311L14081.5376,-4005.3531L14081.4758,-4005.4614L14081.4729,-4005.4648L14081.4378,-4005.5313L14081.4202,-4005.5594L14081.4101,-4005.5664L14081.4048,-4005.5701L14081.2913,-4005.6389L14081.2686,-4005.6524L14081.2393,-4005.6726L14081.2247,-4005.6856L14081.2166,-4005.7002L14081.2077,-4005.7211L14081.2005,-4005.7379L14081.1837,-4005.7729L14081.1353,-4005.8365L14081.1046,-4005.881L14081.0577,-4005.9564L14081.0343,-4005.9953L14080.9845,-4006.0691L14080.9681,-4006.0944L14080.9632,-4006.1033L14080.9034,-4006.214L14080.8929,-4006.2391L14080.8893,-4006.2505L14080.8882,-4006.2609L14080.8885,-4006.3095L14080.8841,-4006.3191L14080.8717,-4006.3264L14080.8475,-4006.3315L14080.827,-4006.3371L14080.8228,-4006.3389L14080.816,-4006.3416L14080.7846,-4006.3591L14080.7392,-4006.3878L14080.7348,-4006.3916L14080.7216,-4006.403L14080.7157,-4006.4159L14080.6967,-4006.4841L14080.6909,-4006.5066L14080.6879,-4006.5173L14080.6828,-4006.5336L14080.6718,-4006.5657L14080.6663,-4006.5792L14080.6651,-4006.5823L14080.6567,-4006.5945L14080.616,-4006.633L14080.5788,-4006.657L14080.5708,-4006.6665L14080.5517,-4006.6964L14080.5363,-4006.715L14080.5166,-4006.7324L14080.4997,-4006.7426L14080.4485,-4006.7673L14080.4162,-4006.7836L14080.3855,-4006.8017L14080.3657,-4006.8141L14080.3459,-4006.831L14080.3423,-4006.8394L14080.3386,-4006.8501L14080.3364,-4006.8676L14080.3276,-4006.9098L14080.3218,-4006.925L14080.3013,-4006.9532L14080.2888,-4006.9644L14080.25,-4006.9937L14080.1311,-4007.0691L14080.1256,-4007.0733L14080.1128,-4007.0912L14080.0781,-4007.1687"/>
<path content="1,秋北バス（株）,鹿角花輪駅前-八幡平頂上,1.0,1.0,1.0," xlink:title="1" d="M14080.0781,-4007.1687L14080.1128,-4007.0912L14080.1256,-4007.0733L14080.1311,-4007.0691L14080.25,-4006.9937L14080.2888,-4006.9644L14080.3013,-4006.9532L14080.3218,-4006.925L14080.3276,-4006.9098L14080.3364,-4006.8676L14080.3386,-4006.8501L14080.3423,-4006.8394L14080.3459,-4006.831L14080.3657,-4006.8141L14080.3855,-4006.8017L14080.4162,-4006.7836L14080.4485,-4006.7673L14080.4997,-4006.7426L14080.5166,-4006.7324L14080.5363,-4006.715L14080.5517,-4006.6964L14080.5708,-4006.6665L14080.5788,-4006.657L14080.616,-4006.633L14080.6567,-4006.5945L14080.6651,-4006.5823L14080.6663,-4006.5792L14080.6718,-4006.5657L14080.6828,-4006.5336L14080.6879,-4006.5173L14080.6909,-4006.5066L14080.6967,-4006.4841L14080.7157,-4006.4159L14080.7216,-4006.403L14080.7348,-4006.3916L14080.7392,-4006.3878L14080.7846,-4006.3591L14080.816,-4006.3416L14080.8228,-4006.3389L14080.827,-4006.3371L14080.8475,-4006.3315L14080.8717,-4006.3264L14080.8841,-4006.3191L14080.8885,-4006.3095L14080.8882,-4006.2609L14080.8893,-4006.2505L14080.8929,-4006.2391L14080.9034,-4006.214L14080.9632,-4006.1033L14080.9681,-4006.0944L14080.9845,-4006.0691L14081.0343,-4005.9953L14081.0577,-4005.9564L14081.1046,-4005.881L14081.1353,-4005.8365L14081.1837,-4005.7729L14081.2005,-4005.7379L14081.2077,-4005.7211L14081.2166,-4005.7002L14081.2247,-4005.6856L14081.2393,-4005.6726L14081.2686,-4005.6524L14081.2913,-4005.6389L14081.4048,-4005.5701L14081.4101,-4005.5664L14081.4202,-4005.5594L14081.4378,-4005.5313L14081.4729,-4005.4648L14081.4758,-4005.4614L14081.5376,-4005.3531L14081.5989,-4005.2311L14081.6348,-4005.1501L14081.6648,-4005.0763L14081.6864,-4005.0364L14081.6941,-4005.0211L14081.7153,-4004.9867L14081.7182,-4004.9839L14081.7483,-4004.9389L14081.7732,-4004.9034L14081.7819,-4004.8877L14081.7966,-4004.8663L14081.853,-4004.7823L14081.8662,-4004.7683L14081.8786,-4004.7593L14081.9189,-4004.7407L14081.9533,-4004.7243L14081.9672,-4004.7148L14081.9789,-4004.7013L14081.995,-4004.6759L14082.0225,-4004.6276L14082.0361,-4004.6038L14082.0483,-4004.5813L14082.0668,-4004.5475L14082.0728,-4004.5411L14082.0778,-4004.5312L14082.0785,-4004.5284L14082.0814,-4004.525L14082.0932,-4004.5053L14082.1115,-4004.4726L14082.1233,-4004.455L14082.1334,-4004.44L14082.1598,-4004.4067L14082.2059,-4004.3549L14082.2337,-4004.3172L14082.2462,-4004.293L14082.2521,-4004.2744L14082.2565,-4004.2485L14082.2565,-4004.2468L14082.2579,-4004.2328L14082.2667,-4004.1916L14082.274,-4004.1714L14082.2843,-4004.1472L14082.3084,-4004.1072L14082.3136,-4004.0976L14082.318,-4004.0784L14082.318,-4004.0756L14082.3174,-4004.0649L14082.3151,-4004.0548L14082.2967,-4003.9929L14082.2887,-4003.958L14082.2877,-4003.9094L14082.288,-4003.8988L14082.2902,-4003.8848L14082.3002,-4003.8664L14082.3022,-4003.8601L14082.3022,-4003.8547L14082.3015,-4003.8474L14082.2977,-4003.8252L14082.2974,-4003.8066L14082.2987,-4003.7919L14082.307,-4003.7727L14082.3087,-4003.7696L14082.3129,-4003.762L14082.3268,-4003.7428L14082.3385,-4003.7192L14082.3436,-4003.7001L14082.3451,-4003.6848L14082.3442,-4003.6782L14082.3407,-4003.6516L14082.3341,-4003.615L14082.3328,-4003.5515L14082.3319,-4003.5435L14082.3404,-4003.5138L14082.3444,-4003.5091L14082.3641,-4003.4759L14082.3729,-4003.4579L14082.3751,-4003.4478L14082.3751,-4003.4292L14082.3692,-4003.4106L14082.3459,-4003.3588L14082.3437,-4003.3504L14082.3429,-4003.3278L14082.3517,-4003.2906L14082.362,-4003.2501L14082.37,-4003.2167L14082.3869,-4003.1499L14082.3971,-4003.1071L14082.3993,-4003.1014L14082.4066,-4003.0907L14082.4367,-4003.0592L14082.4447,-4003.0496L14082.4564,-4003.0356L14082.4813,-4002.995L14082.493,-4002.9714L14082.4952,-4002.9607L14082.5106,-4002.9229L14082.5736,-4002.8058L14082.5765,-4002.7923L14082.5747,-4002.7833L14082.5707,-4002.7765L14082.5693,-4002.7744L14082.5615,-4002.7687L14082.5443,-4002.7608L14082.5301,-4002.7615L14082.5216,-4002.7647L14082.5033,-4002.7782L14082.4872,-4002.7957L14082.4015,-4002.9061L14082.3934,-4002.9179L14082.387,-4002.925L14082.3793,-4002.9298L14082.3702,-4002.9333L14082.3616,-4002.9351L14082.3534,-4002.9357L14082.34,-4002.9353L14082.3261,-4002.9309L14082.3161,-4002.9254L14082.3056,-4002.9166L14082.2946,-4002.9037L14082.2832,-4002.8891L14082.2708,-4002.8671L14082.2495,-4002.8317L14082.2263,-4002.7933L14082.2121,-4002.7697L14082.1595,-4002.6823L14082.1431,-4002.6557L14082.0889,-4002.5676L14082.0684,-4002.5423L14081.9519,-4002.4482L14081.8663,-4002.3784L14081.8465,-4002.3643L14081.8165,-4002.3474L14081.7638,-4002.3277L14081.6415,-4002.2821L14081.6364,-4002.281L14081.58,-4002.259L14081.5485,-4002.2506L14081.5272,-4002.2469L14081.5097,-4002.241L14081.4892,-4002.232L14081.4731,-4002.2218L14081.4474,-4002.2027L14081.4277,-4002.1835L14081.4153,-4002.1661L14081.4108,-4002.1582L14081.4035,-4002.1407L14081.3808,-4002.0934L14081.3671,-4002.0648L14081.3413,-4002.0107L14081.3347,-4001.9943L14081.3288,-4001.9853L14081.3244,-4001.9741L14081.3186,-4001.9634L14081.3076,-4001.9532L14081.3032,-4001.9504L14081.189,-4001.8631L14081.1663,-4001.8395L14081.1597,-4001.831L14081.137,-4001.7899L14081.1304,-4001.7769L14081.1231,-4001.7629L14081.1099,-4001.742L14081.0521,-4001.6379L14081.0199,-4001.5816L14081.0089,-4001.5568L14080.9825,-4001.5388L14080.9349,-4001.5145L14080.902,-4001.4897L14080.8924,-4001.4796L14080.8881,-4001.4746L14080.8756,-4001.4458L14080.8734,-4001.4301L14080.8713,-4001.3878L14080.8698,-4001.3811L14080.8639,-4001.3721L14080.8537,-4001.3597L14080.8302,-4001.3478L14080.8295,-4001.3484L14080.8207,-4001.3467L14080.8039,-4001.3473L14080.7885,-4001.3495L14080.7563,-4001.3563L14080.665,-4001.3767L14080.5979,-4001.3943L14080.5921,-4001.3946L14080.5831,-4001.3933L14080.4528,-4001.3389L14080.4061,-4001.3206L14080.3847,-4001.3126L14080.364,-4001.3092L14080.3446,-4001.311L14080.3184,-4001.3191L14080.3037,-4001.3242L14080.2932,-4001.3249L14080.2818,-4001.3292L14080.2745,-4001.3294L14080.2657,-4001.3287L14080.251,-4001.3263L14080.2362,-4001.3209L14080.2247,-4001.3146L14080.169,-4001.2819L14080.15,-4001.2679L14080.1171,-4001.2341L14080.0885,-4001.198L14080.0812,-4001.1924L14080.0781,-4001.1907M14080.0781,-4001.0496L14080.0841,-4001.0522L14080.0987,-4001.0556L14080.12,-4001.055L14080.1346,-4001.0511L14080.1624,-4001.0415L14080.1742,-4001.0387L14080.1983,-4001.0387L14080.2086,-4001.0409L14080.2159,-4001.0432L14080.2393,-4001.055L14080.2679,-4001.073L14080.2869,-4001.0815L14080.2964,-4001.0837L14080.3118,-4001.0837L14080.325,-4001.0758L14080.3316,-4001.0702L14080.3353,-4001.0601L14080.3301,-4001.0438L14080.3236,-4001.0359L14080.2921,-4001.0178L14080.2628,-4001.0032L14080.252,-4000.9948L14080.2489,-4000.9884L14080.2494,-4000.9834L14080.2597,-4000.9651L14080.2676,-4000.9576L14080.2793,-4000.9549L14080.3484,-4000.961L14080.3726,-4000.961L14080.3939,-4000.9519L14080.4319,-4000.9294L14080.4451,-4000.9187L14080.4591,-4000.9007L14080.4608,-4000.896L14080.4627,-4000.8906L14080.4546,-4000.8731L14080.4539,-4000.8726L14080.4466,-4000.8669L14080.4369,-4000.8626L14080.4308,-4000.8607L14080.4092,-4000.854L14080.4012,-4000.85L14080.3887,-4000.8421L14080.3755,-4000.8309L14080.3704,-4000.8191L14080.3689,-4000.8005L14080.3719,-4000.7932L14080.3829,-4000.783L14080.3968,-4000.7763L14080.4144,-4000.7701L14080.4612,-4000.7582L14080.4854,-4000.7487L14080.5022,-4000.7374L14080.5154,-4000.7261L14080.5308,-4000.7109L14080.5498,-4000.6811L14080.5623,-4000.6569L14080.5681,-4000.6366L14080.5725,-4000.6124L14080.5762,-4000.5797L14080.5806,-4000.5578L14080.5894,-4000.5336L14080.5931,-4000.5258L14080.6011,-4000.5221L14080.6183,-4000.5197L14080.6263,-4000.52L14080.6362,-4000.5246L14080.6787,-4000.5482L14080.7036,-4000.5578L14080.7204,-4000.5572L14080.7336,-4000.5504L14080.7966,-4000.511L14080.8083,-4000.5093L14080.8193,-4000.5105L14080.8471,-4000.5184L14080.883,-4000.5319L14080.9159,-4000.5426L14080.935,-4000.5459L14080.9526,-4000.5465L14080.9833,-4000.5313L14081.0075,-4000.5167L14081.0221,-4000.506L14081.0302,-4000.4981L14081.047,-4000.4795L14081.0543,-4000.4677L14081.0543,-4000.4525L14081.0507,-4000.4407L14081.008,-4000.3892L14081.0045,-4000.3821L14081.0049,-4000.3769L14081.008,-4000.3713L14081.047,-4000.3133L14081.0712,-4000.2768L14081.095,-4000.2411L14081.1145,-4000.2011L14081.1286,-4000.1654L14081.1378,-4000.1386L14081.1456,-4000.1142L14081.1529,-4000.0884L14081.1643,-4000.0299L14081.1646,-4000.0141L14081.1638,-4000.0074L14081.1593,-4000.0013L14081.1408,-3999.9952L14081.1116,-3999.9879L14081.0969,-3999.9851L14080.9331,-3999.9519L14080.9061,-3999.9457L14080.8863,-3999.9412L14080.8739,-3999.9356L14080.8644,-3999.9288L14080.8586,-3999.9243L14080.852,-3999.9158L14080.8542,-3999.8995L14080.8604,-3999.8888L14080.8735,-3999.8829L14080.89,-3999.8816L14080.9046,-3999.8866L14080.9185,-3999.8916L14080.9609,-3999.9119L14080.9763,-3999.9187L14080.9821,-3999.9203L14080.9997,-3999.9203L14081.0121,-3999.9164L14081.0202,-3999.9102L14081.0238,-3999.9057L14081.0282,-3999.8888L14081.0231,-3999.877L14081.0187,-3999.8713L14081.0033,-3999.8651L14080.977,-3999.8584L14080.9419,-3999.855L14080.9134,-3999.8471L14080.89,-3999.8387L14080.871,-3999.8286L14080.8651,-3999.8274L14080.8388,-3999.828L14080.7854,-3999.828L14080.7701,-3999.8229L14080.7606,-3999.8162L14080.7401,-3999.797L14080.724,-3999.7767L14080.6319,-3999.6352L14080.5938,-3999.5734L14080.5521,-3999.5104L14080.5368,-3999.4941L14080.5024,-3999.4597L14080.4381,-3999.4084L14080.4213,-3999.3932L14080.4015,-3999.3707L14080.3701,-3999.3211L14080.3254,-3999.2575L14080.3246,-3999.2566L14080.215,-3999.1252L14080.2011,-3999.1077L14080.1755,-3999.0779L14080.1653,-3999.0711L14080.1404,-3999.061L14080.1002,-3999.0497L14080.0907,-3999.0458L14080.0841,-3999.0385L14080.0781,-3999.0262M14080.0781,-3999.0142L14080.0783,-3999.012L14080.0885,-3998.9934L14080.109,-3998.9653L14080.1704,-3998.8904L14080.1821,-3998.8757L14080.1953,-3998.8554L14080.2136,-3998.8132L14080.2201,-3998.7862L14080.2223,-3998.6702L14080.2253,-3998.6443L14080.2311,-3998.6201L14080.2611,-3998.5514L14080.2721,-3998.5271L14080.2728,-3998.5041L14080.2699,-3998.4945L14080.2614,-3998.4777L14080.2438,-3998.4467L14080.2409,-3998.4377L14080.2402,-3998.4191L14080.2534,-3998.3532L14080.2497,-3998.3397L14080.2402,-3998.3301L14080.2161,-3998.3132L14080.191,-3998.2972L14080.1861,-3998.2901L14080.1782,-3998.2849L14080.1656,-3998.2715L14080.1422,-3998.2439L14080.1137,-3998.2073L14080.1076,-3998.2011L14080.0922,-3998.1797L14080.0781,-3998.1553M14080.0781,-3997.6022L14080.0849,-3997.6036L14080.0981,-3997.602L14080.1064,-3997.599L14080.1127,-3997.5946L14080.1208,-3997.5839L14080.1237,-3997.5744L14080.1229,-3997.5609L14080.0947,-3997.4906L14080.085,-3997.4607L14080.085,-3997.4255L14080.112,-3997.3745L14080.1273,-3997.3463L14080.1317,-3997.3354L14080.1424,-3997.317L14080.1558,-3997.2919L14080.1734,-3997.2625L14080.1887,-3997.2348L14080.1986,-3997.2167L14080.2055,-3997.2092L14080.2115,-3997.2032L14080.2189,-3997.1988L14080.2326,-3997.1943L14080.308,-3997.1751L14080.3086,-3997.1751L14080.3511,-3997.1695L14080.3759,-3997.1689L14080.3847,-3997.1723L14080.3979,-3997.1791L14080.4111,-3997.1869L14080.4301,-3997.201L14080.4528,-3997.2208L14080.4681,-3997.2298L14080.4871,-3997.2393L14080.4988,-3997.2433L14080.5098,-3997.2455L14080.5288,-3997.2461L14080.5471,-3997.245L14080.561,-3997.2421L14080.6985,-3997.2044L14080.7263,-3997.1966L14080.7398,-3997.1953L14080.7511,-3997.1966L14080.7628,-3997.2016L14080.7716,-3997.2084L14080.776,-3997.214L14080.7823,-3997.2304L14080.7789,-3997.2411L14080.7713,-3997.2484L14080.7606,-3997.254L14080.746,-3997.2579L14080.7136,-3997.2651L14080.6919,-3997.2692L14080.6692,-3997.2748L14080.6575,-3997.2793L14080.6414,-3997.2883L14080.6316,-3997.2975L14080.6275,-3997.3092L14080.6334,-3997.3216L14080.6384,-3997.3278L14080.6461,-3997.3331L14080.6692,-3997.3366L14080.6963,-3997.3283L14080.7204,-3997.3199L14080.7372,-3997.3109L14080.7628,-3997.3018L14080.8045,-3997.2889L14080.8411,-3997.2849L14080.8668,-3997.2844L14080.8696,-3997.2844L14080.893,-3997.2861L14080.9084,-3997.29L14080.9201,-3997.2962L14080.9675,-3997.3291L14080.9776,-3997.3311L14080.9888,-3997.3311L14081.0042,-3997.3289L14081.0188,-3997.3221L14081.0437,-3997.3064L14081.0495,-3997.3019L14081.119,-3997.2551L14081.1987,-3997.1994L14081.2821,-3997.138L14081.3113,-3997.1183L14081.3311,-3997.1104L14081.3494,-3997.1065L14081.3698,-3997.1082L14081.3859,-3997.1104L14081.4035,-3997.1155L14081.4239,-3997.1251L14081.4356,-3997.1346L14081.4459,-3997.1465L14081.4832,-3997.2067L14081.5161,-3997.2557L14081.5329,-3997.276L14081.5483,-3997.2901L14081.5724,-3997.3062L14081.5922,-3997.3182L14081.6082,-3997.3289L14081.639,-3997.3475L14081.7084,-3997.3728L14081.7282,-3997.3807L14081.7384,-3997.383L14081.7604,-3997.3852L14081.7736,-3997.3869L14081.7858,-3997.3869L14081.7983,-3997.3821L14081.8108,-3997.3689L14081.8349,-3997.3475L14081.8715,-3997.3047L14081.8927,-3997.276L14081.9118,-3997.2138L14081.9205,-3997.1876L14081.9353,-3997.1514L14081.9398,-3997.1363L14081.941,-3997.1296L14081.9407,-3997.1201L14081.9381,-3997.1099L14081.9193,-3997.0792L14081.9095,-3997.0588L14081.9066,-3997.0513L14081.9026,-3997.033L14081.9052,-3997.0188L14081.9366,-3996.9873L14081.971,-3996.9544L14081.9739,-3996.9426L14081.9695,-3996.9083L14081.9556,-3996.8457L14081.9527,-3996.8362L14081.9118,-3996.7776L14081.892,-3996.7382L14081.8847,-3996.7146L14081.8839,-3996.6937L14081.8861,-3996.6875L14081.8913,-3996.683L14081.8964,-3996.6779L14081.9059,-3996.6729L14081.9154,-3996.6712L14081.9301,-3996.6713L14081.9411,-3996.6737L14081.9529,-3996.679L14081.9569,-3996.6859L14081.9651,-3996.6964L14081.9907,-3996.7281L14082.0002,-3996.736L14082.0763,-3996.7895L14082.137,-3996.8474L14082.1991,-3996.9083L14082.216,-3996.9319L14082.243,-3996.9894L14082.2503,-3996.9967L14082.2578,-3997.0019L14082.267,-3997.0028L14082.2818,-3997.0023L14082.2862,-3997.0012L14082.3023,-3996.9933L14082.3103,-3996.9849L14082.3111,-3996.9646L14082.2818,-3996.8779L14082.2813,-3996.8763L14082.2789,-3996.8672L14082.2737,-3996.8362L14082.2635,-3996.7844L14082.2621,-3996.7546L14082.2664,-3996.7416L14082.2737,-3996.7348L14082.2857,-3996.7331L14082.2964,-3996.7343L14082.3096,-3996.7382L14082.3227,-3996.7444L14082.3308,-3996.7579L14082.3352,-3996.7709L14082.3469,-3996.8154L14082.3542,-3996.8323L14082.3623,-3996.8464L14082.3732,-3996.8565L14082.4178,-3996.8914L14082.4522,-3996.9156L14082.4639,-3996.9224L14082.4771,-3996.9224L14082.4895,-3996.9179L14082.499,-3996.9083L14082.5034,-3996.9015L14082.5048,-3996.8965L14082.5048,-3996.8807L14082.4763,-3996.8492L14082.4751,-3996.8412L14082.4763,-3996.834L14082.4792,-3996.8221L14082.4836,-3996.8165L14082.4895,-3996.812L14082.4983,-3996.8069L14082.5056,-3996.8047L14082.5217,-3996.8052L14082.5326,-3996.8092L14082.5465,-3996.8187L14082.5641,-3996.8469L14082.5926,-3996.8903L14082.6094,-3996.9077L14082.6219,-3996.9184L14082.6423,-3996.928L14082.6548,-3996.9314L14082.6701,-3996.9319L14082.6804,-3996.9291L14082.6921,-3996.9218L14082.6957,-3996.9173L14082.6994,-3996.9106L14082.6986,-3996.8925L14082.6899,-3996.8672L14082.6679,-3996.8093L14082.6672,-3996.8075L14082.657,-3996.7394L14082.6548,-3996.7112L14082.6548,-3996.6605L14082.6562,-3996.6521L14082.6599,-3996.6476L14082.6658,-3996.6414L14082.6782,-3996.6352L14082.6965,-3996.6335L14082.7184,-3996.6391L14082.7279,-3996.6487L14082.7345,-3996.6571L14082.744,-3996.6724L14082.7652,-3996.6999L14082.7798,-3996.7112L14082.7988,-3996.723L14082.8244,-3996.7371L14082.8464,-3996.7467L14082.8537,-3996.7484L14082.8741,-3996.7484L14082.8866,-3996.7405L14082.8954,-3996.7287L14082.9334,-3996.5969L14082.9495,-3996.5626L14082.9729,-3996.5226L14082.997,-3996.4849L14083.0431,-3996.4105L14083.0486,-3996.4047L14083.0555,-3996.4007L14083.0687,-3996.3998L14083.0906,-3996.4021L14083.1067,-3996.41L14083.1126,-3996.4229L14083.1169,-3996.4438L14083.1191,-3996.4747L14083.1221,-3996.4883L14083.1228,-3996.4903L14083.1286,-3996.5068L14083.1359,-3996.5221L14083.1366,-3996.5284L14083.1477,-3996.5418L14083.159,-3996.549L14083.1696,-3996.5528L14083.1798,-3996.5534L14083.1945,-3996.5513L14083.2062,-3996.5468L14083.2493,-3996.5215L14083.2742,-3996.5034L14083.2859,-3996.4911L14083.2998,-3996.464L14083.3356,-3996.3942L14083.3583,-3996.3498L14083.359,-3996.3475L14083.3707,-3996.3266L14083.4241,-3996.2236L14083.4351,-3996.2033L14083.4431,-3996.1921L14083.4577,-3996.1848L14083.4673,-3996.1825L14083.4936,-3996.1825L14083.5009,-3996.1842L14083.5323,-3996.2061L14083.574,-3996.2388L14083.5799,-3996.2439L14083.6603,-3996.3058L14083.6749,-3996.3158L14083.6889,-3996.3222L14083.7218,-3996.3306L14083.7378,-3996.3334L14083.7554,-3996.3374L14083.781,-3996.3413L14083.8161,-3996.3458L14083.8399,-3996.3461L14083.8411,-3996.3461L14083.857,-3996.3436L14083.8665,-3996.3404L14083.8671,-3996.3403L14083.8731,-3996.3351L14083.879,-3996.3239L14083.8804,-3996.3156L14083.8804,-3996.3081L14083.8775,-3996.2991L14083.8673,-3996.2873L14083.8644,-3996.2845L14083.8256,-3996.2535L14083.8117,-3996.2383L14083.8007,-3996.2214L14083.7941,-3996.1915L14083.7824,-3996.1358L14083.7796,-3996.12L14083.7547,-3996.0035L14083.7393,-3995.9269L14083.7313,-3995.8925L14083.7225,-3995.8497L14083.7108,-3995.7973L14083.7079,-3995.7771L14083.7091,-3995.7716L14083.7137,-3995.7658L14083.7203,-3995.7613L14083.7306,-3995.7568L14083.7422,-3995.7546L14083.8081,-3995.7489L14083.8907,-3995.7428L14083.9551,-3995.7377L14084.0026,-3995.7337L14084.0296,-3995.7298L14084.0662,-3995.7191L14084.0699,-3995.718L14084.1591,-3995.6836L14084.1701,-3995.6819L14084.3214,-3995.6499L14084.3309,-3995.6488L14084.3639,-3995.6516L14084.388,-3995.6561L14084.4801,-3995.6797L14084.5167,-3995.6882L14084.5335,-3995.6887L14084.5423,-3995.6865L14084.5518,-3995.682L14084.5737,-3995.6679L14084.6337,-3995.6274L14084.6703,-3995.602L14084.682,-3995.5913L14084.6959,-3995.5711L14084.712,-3995.5339L14084.72,-3995.508L14084.7332,-3995.4804L14084.7456,-3995.4613L14084.7544,-3995.4528L14084.8034,-3995.414L14084.9021,-3995.3424L14084.9138,-3995.3357L14084.9211,-3995.3329L14084.9379,-3995.3279L14084.9643,-3995.3227L14085.0791,-3995.298L14085.1069,-3995.2884L14085.1391,-3995.2698L14085.2224,-3995.2174L14085.2663,-3995.1899L14085.3526,-3995.1381L14085.4126,-3995.1048L14085.6151,-3994.9996L14085.6299,-3994.9903L14085.6312,-3994.9793L14085.629,-3994.9624L14085.6283,-3994.9572L14085.6162,-3994.9302"/>
<path content="1,羽後交通（株）,（急行）田沢湖駅前-八幡平頂上,2.8,2.8,2.8," xlink:title="1" d="M14080.0781,-3998.1553L14080.0922,-3998.1797L14080.1076,-3998.2011L14080.1137,-3998.2073L14080.1422,-3998.2439L14080.1656,-3998.2715L14080.1782,-3998.2849L14080.1861,-3998.2901L14080.191,-3998.2972L14080.2161,-3998.3132L14080.2402,-3998.3301L14080.2497,-3998.3397L14080.2534,-3998.3532L14080.2402,-3998.4191L14080.2409,-3998.4377L14080.2438,-3998.4467L14080.2614,-3998.4777L14080.2794,-3998.472L14080.3532,-3998.4528L14080.3811,-3998.4421L14080.3979,-3998.432L14080.4264,-3998.4061L14080.4403,-3998.4033L14080.4588,-3998.4028L14080.4658,-3998.3981L14080.5069,-3998.3914L14080.5405,-3998.3836L14080.5939,-3998.3661L14080.6122,-3998.3627L14080.6268,-3998.3633L14080.6392,-3998.3667L14080.648,-3998.3717L14080.6502,-3998.374L14080.6736,-3998.3926L14080.7036,-3998.3926L14080.7255,-3998.396L14080.7657,-3998.4055L14080.8067,-3998.4123L14080.8286,-3998.4123L14080.8323,-3998.4089L14080.8476,-3998.3938L14080.8586,-3998.3836L14080.8703,-3998.3751L14080.8798,-3998.3712L14080.9076,-3998.3706L14080.9186,-3998.3689L14080.9237,-3998.3661L14080.931,-3998.3571L14080.9369,-3998.3509L14080.9471,-3998.3476L14080.9581,-3998.3453L14080.9837,-3998.3459L14080.9902,-3998.3476L14081.0049,-3998.3537L14081.0136,-3998.3616L14081.0305,-3998.3859L14081.0407,-3998.3949L14081.0473,-3998.3977L14081.059,-3998.3988L14081.0831,-3998.4073L14081.1007,-3998.4179L14081.1138,-3998.4219L14081.1233,-3998.4236L14081.1343,-3998.422L14081.1419,-3998.4149L14081.1541,-3998.414L14081.1614,-3998.4123L14081.1731,-3998.4067L14081.1841,-3998.3988L14081.1906,-3998.3875L14081.1936,-3998.3751L14081.1943,-3998.3357L14081.1958,-3998.3222L14081.2,-3998.3149L14081.2023,-3998.3109L14081.214,-3998.3115L14081.2382,-3998.3199L14081.255,-3998.3284L14081.2579,-3998.3301L14081.266,-3998.3295L14081.2791,-3998.3183L14081.2879,-3998.3081L14081.29,-3998.3006L14081.2842,-3998.2912L14081.2886,-3998.2867L14081.3216,-3998.2991L14081.3406,-3998.3008L14081.3669,-3998.2997L14081.3851,-3998.2969L14081.3888,-3998.2829L14081.3939,-3998.2763L14081.4033,-3998.2753L14081.4317,-3998.2842L14081.4371,-3998.2727L14081.4451,-3998.2592L14081.4641,-3998.2428L14081.4824,-3998.2338L14081.4898,-3998.2282L14081.4971,-3998.2175L14081.5029,-3998.2006L14081.4985,-3998.1882L14081.4963,-3998.1837L14081.4963,-3998.1736L14081.5007,-3998.1679L14081.5197,-3998.1578L14081.5373,-3998.1533L14081.5629,-3998.151L14081.5782,-3998.1522L14081.5972,-3998.1522L14081.6141,-3998.1533L14081.6579,-3998.1606L14081.6865,-3998.1679L14081.7018,-3998.1696L14081.7289,-3998.1696L14081.7567,-3998.1736L14081.7698,-3998.1792L14081.7779,-3998.1831L14081.8225,-3998.1882L14081.8554,-3998.1797L14081.8839,-3998.1691L14081.9073,-3998.1544L14081.9271,-3998.1364L14081.93,-3998.1353L14081.9695,-3998.1043L14081.9878,-3998.0925L14082.0492,-3998.0525L14082.0594,-3998.0471L14082.0784,-3998.0162L14082.0809,-3997.9977L14082.0784,-3997.9885L14082.0507,-3997.9692L14082.0478,-3997.9635L14082.0478,-3997.9551L14082.0653,-3997.9208L14082.0646,-3997.9084L14082.058,-3997.8931L14082.0426,-3997.8723L14082.0258,-3997.8594L14081.9805,-3997.8267L14081.9307,-3997.7884L14081.9205,-3997.7732L14081.9183,-3997.7681L14081.9176,-3997.7524L14081.919,-3997.74L14081.938,-3997.6871L14081.938,-3997.6735L14081.9359,-3997.6606L14081.9315,-3997.6516L14081.9249,-3997.6442L14081.9154,-3997.6397L14081.9132,-3997.6397L14081.9117,-3997.6386L14081.8986,-3997.6364L14081.8876,-3997.6358L14081.8839,-3997.6386L14081.8642,-3997.6589L14081.8525,-3997.6741L14081.8459,-3997.6809L14081.8306,-3997.6904L14081.8203,-3997.6977L14081.8145,-3997.6983L14081.8035,-3997.6955L14081.7889,-3997.6955L14081.7764,-3997.7028L14081.7669,-3997.7135L14081.7537,-3997.7366L14081.7523,-3997.7417L14081.7479,-3997.7619L14081.7472,-3997.7845L14081.7508,-3997.798L14081.7521,-3997.8148L14081.7409,-3997.8208L14081.734,-3997.8211L14081.7172,-3997.8211L14081.6762,-3997.8149L14081.6521,-3997.8149L14081.6221,-3997.8228L14081.5753,-3997.838L14081.5584,-3997.8422L14081.5549,-3997.8412L14081.547,-3997.8361L14081.5448,-3997.8317L14081.548,-3997.8256L14081.5738,-3997.8025L14081.6124,-3997.7743L14081.6199,-3997.7625L14081.6212,-3997.7563L14081.6192,-3997.7456L14081.6016,-3997.7124L14081.5994,-3997.6848L14081.6024,-3997.6763L14081.6089,-3997.6684L14081.6889,-3997.5969L14081.7209,-3997.5665L14081.726,-3997.5586L14081.7267,-3997.5401L14081.7223,-3997.5288L14081.7106,-3997.5035L14081.7051,-3997.4906L14081.6938,-3997.4646L14081.6945,-3997.4488L14081.7113,-3997.4354L14081.7566,-3997.4059L14081.7858,-3997.3869L14081.7983,-3997.3821L14081.8108,-3997.3689L14081.8349,-3997.3475L14081.8715,-3997.3047L14081.8927,-3997.276L14081.9118,-3997.2138L14081.9205,-3997.1876L14081.9353,-3997.1514L14081.9398,-3997.1363L14081.941,-3997.1296L14081.9407,-3997.1201L14081.9381,-3997.1099L14081.9193,-3997.0792L14081.9095,-3997.0588L14081.9066,-3997.0513L14081.9026,-3997.033L14081.9052,-3997.0188L14081.9366,-3996.9873L14081.971,-3996.9544L14081.9739,-3996.9426L14081.9695,-3996.9083L14081.9556,-3996.8457L14081.9527,-3996.8362L14081.9118,-3996.7776L14081.892,-3996.7382L14081.8847,-3996.7146L14081.8839,-3996.6937L14081.8861,-3996.6875L14081.8913,-3996.683L14081.8964,-3996.6779L14081.9059,-3996.6729L14081.9154,-3996.6712L14081.9301,-3996.6713L14081.9411,-3996.6737L14081.9529,-3996.679L14081.9569,-3996.6859L14081.9651,-3996.6964L14081.9907,-3996.7281L14082.0002,-3996.736L14082.0763,-3996.7895L14082.137,-3996.8474L14082.1991,-3996.9083L14082.216,-3996.9319L14082.243,-3996.9894L14082.2503,-3996.9967L14082.2578,-3997.0019L14082.267,-3997.0028L14082.2818,-3997.0023L14082.2862,-3997.0012L14082.3023,-3996.9933L14082.3103,-3996.9849L14082.3111,-3996.9646L14082.2818,-3996.8779L14082.2813,-3996.8763L14082.2789,-3996.8672L14082.2737,-3996.8362L14082.2635,-3996.7844L14082.2621,-3996.7546L14082.2664,-3996.7416L14082.2737,-3996.7348L14082.2857,-3996.7331L14082.2964,-3996.7343L14082.3096,-3996.7382L14082.3227,-3996.7444L14082.3308,-3996.7579L14082.3352,-3996.7709L14082.3469,-3996.8154L14082.3542,-3996.8323L14082.3623,-3996.8464L14082.3732,-3996.8565L14082.4178,-3996.8914L14082.4522,-3996.9156L14082.4639,-3996.9224L14082.4771,-3996.9224L14082.4895,-3996.9179L14082.499,-3996.9083L14082.5034,-3996.9015L14082.5048,-3996.8965L14082.5048,-3996.8807L14082.4763,-3996.8492L14082.4751,-3996.8412L14082.4763,-3996.834L14082.4792,-3996.8221L14082.4836,-3996.8165L14082.4895,-3996.812L14082.4983,-3996.8069L14082.5056,-3996.8047L14082.5217,-3996.8052L14082.5326,-3996.8092L14082.5465,-3996.8187L14082.5641,-3996.8469L14082.5926,-3996.8903L14082.6094,-3996.9077L14082.6219,-3996.9184L14082.6423,-3996.928L14082.6548,-3996.9314L14082.6701,-3996.9319L14082.6804,-3996.9291L14082.6921,-3996.9218L14082.6957,-3996.9173L14082.6994,-3996.9106L14082.6986,-3996.8925L14082.6899,-3996.8672L14082.6679,-3996.8093L14082.6672,-3996.8075L14082.657,-3996.7394L14082.6548,-3996.7112L14082.6548,-3996.6605L14082.6562,-3996.6521L14082.6599,-3996.6476L14082.6658,-3996.6414L14082.6782,-3996.6352L14082.6965,-3996.6335L14082.7184,-3996.6391L14082.7279,-3996.6487L14082.7345,-3996.6571L14082.744,-3996.6724L14082.7652,-3996.6999L14082.7798,-3996.7112L14082.7988,-3996.723L14082.8244,-3996.7371L14082.8464,-3996.7467L14082.8537,-3996.7484L14082.8741,-3996.7484L14082.8866,-3996.7405L14082.8954,-3996.7287L14082.9334,-3996.5969L14082.9495,-3996.5626L14082.9729,-3996.5226L14082.997,-3996.4849L14083.0431,-3996.4105L14083.0486,-3996.4047L14083.0555,-3996.4007L14083.0687,-3996.3998L14083.0906,-3996.4021L14083.1067,-3996.41L14083.1126,-3996.4229L14083.1169,-3996.4438L14083.1191,-3996.4747L14083.1221,-3996.4883L14083.1228,-3996.4903L14083.1286,-3996.5068L14083.1359,-3996.5221L14083.1366,-3996.5284L14083.1477,-3996.5418L14083.159,-3996.549L14083.1696,-3996.5528L14083.1798,-3996.5534L14083.1945,-3996.5513L14083.2062,-3996.5468L14083.2493,-3996.5215L14083.2742,-3996.5034L14083.2859,-3996.4911L14083.2998,-3996.464L14083.3356,-3996.3942L14083.3583,-3996.3498L14083.359,-3996.3475L14083.3707,-3996.3266L14083.4241,-3996.2236L14083.4351,-3996.2033L14083.4431,-3996.1921L14083.4577,-3996.1848L14083.4673,-3996.1825L14083.4936,-3996.1825L14083.5009,-3996.1842L14083.5323,-3996.2061L14083.574,-3996.2388L14083.5799,-3996.2439L14083.6603,-3996.3058L14083.6749,-3996.3158L14083.6889,-3996.3222L14083.7218,-3996.3306L14083.7378,-3996.3334L14083.7554,-3996.3374L14083.781,-3996.3413L14083.8161,-3996.3458L14083.8399,-3996.3461L14083.8411,-3996.3461L14083.857,-3996.3436L14083.8665,-3996.3404L14083.8671,-3996.3403L14083.8731,-3996.3351L14083.879,-3996.3239L14083.8804,-3996.3156L14083.8804,-3996.3081L14083.8775,-3996.2991L14083.8673,-3996.2873L14083.8644,-3996.2845L14083.8256,-3996.2535L14083.8117,-3996.2383L14083.8007,-3996.2214L14083.7941,-3996.1915L14083.7824,-3996.1358L14083.7796,-3996.12L14083.7547,-3996.0035L14083.7393,-3995.9269L14083.7313,-3995.8925L14083.7225,-3995.8497L14083.7108,-3995.7973L14083.7079,-3995.7771L14083.7091,-3995.7716L14083.7137,-3995.7658L14083.7203,-3995.7613L14083.7306,-3995.7568L14083.7422,-3995.7546L14083.8081,-3995.7489L14083.8907,-3995.7428L14083.9551,-3995.7377L14084.0026,-3995.7337L14084.0296,-3995.7298L14084.0662,-3995.7191L14084.0699,-3995.718L14084.1591,-3995.6836L14084.1701,-3995.6819L14084.3214,-3995.6499L14084.3309,-3995.6488L14084.3639,-3995.6516L14084.388,-3995.6561L14084.4801,-3995.6797L14084.5167,-3995.6882L14084.5335,-3995.6887L14084.5423,-3995.6865L14084.5518,-3995.682L14084.5737,-3995.6679L14084.6337,-3995.6274L14084.6703,-3995.602L14084.682,-3995.5913L14084.6959,-3995.5711L14084.712,-3995.5339L14084.72,-3995.508L14084.7332,-3995.4804L14084.7456,-3995.4613L14084.7544,-3995.4528L14084.8034,-3995.414L14084.9021,-3995.3424L14084.9138,-3995.3357L14084.9211,-3995.3329L14084.9379,-3995.3279L14084.9643,-3995.3227L14085.0791,-3995.298L14085.1069,-3995.2884L14085.1391,-3995.2698L14085.2224,-3995.2174L14085.2663,-3995.1899L14085.3526,-3995.1381L14085.4126,-3995.1048L14085.6151,-3994.9996L14085.6299,-3994.9903L14085.6312,-3994.9793L14085.629,-3994.9624L14085.6283,-3994.9572L14085.6162,-3994.9302"/>
<path content="3,八幡平市,細野・赤坂田線,2.0,2.0,2.0," xlink:title="3" d="M14097.6069,-4003.1394L14097.6403,-4003.1262L14097.6563,-4003.12"/>
</g>
</svg>
