<?xml version="1.0" encoding="UTF-8"?>
<svg  xmlns="http://www.w3.org/2000/svg" xmlns:xlink="http://www.w3.org/1999/xlink" xmlns:go="http://purl.org/svgmap/profile" property="N07_001,N07_002,N07_003,N07_004,N07_005,N07_006,N07_007" viewBox="13975.7080078125 -3650.7568359375 0.54931640625 0.54931640625" go:dataArea="13975.7080078125 -3650.7568359375 0.54931640625 0.54931640625" >
<metadata>
 <rdf:RDF xmlns:rdf="http://www.w3.org/1999/02/22-rdf-syntax-ns#" xmlns:crs="http://opengis.org/xmldtds/transformations.dtd" xmlns:svg="http://www.w3.org/svg" >
  <rdf:Description>
   <crs:CoordinateReferenceSystem rdf:resource="http://purl.org/crs/84" svg:transform="matrix(100.0,0.0,0.0,-100.0,0.0,0.0)" />
  </rdf:Description>
 </rdf:RDF>
</metadata>
<globalCoordinateSystem srsName="http://purl.org/crs/84" transform="matrix(100.0,0.0,0.0,-100.0,0.0,0.0)" />
<defs>
 <g id="p0" >
  <circle cx="0.0" cy="0.0" r="3" stroke="green" stroke-width="0.75" vector-effect="non-scaling-stroke" />
 </g>
</defs>
<g fill="none" fill-rule="evenodd" stroke="#FF00FF" stroke-width="0.75" opacity="0.5" vector-effect="non-scaling-stroke" stroke-linejoin="bevel" >
<path content="1,関東自動車（株）,宇都宮駅・楡木車庫前,4.0,3.5,2.5," xlink:title="1" d="M13975.708,-3650.5903L13975.7999,-3650.5722L13975.8117,-3650.5698L13975.8224,-3650.5672L13975.9143,-3650.5506L13975.929,-3650.5458L13975.9792,-3650.5331L13976.0239,-3650.521L13976.0552,-3650.5131L13976.1271,-3650.4929L13976.2213,-3650.4675L13976.2401,-3650.4634L13976.2573,-3650.4637"/>
<path content="1,関東自動車（株）,宇都宮駅・運転免許センター・楡木車庫前,5.5,5.5,5.5," xlink:title="1" d="M13975.708,-3650.5903L13975.7999,-3650.5722L13975.8117,-3650.5698L13975.8224,-3650.5672L13975.9143,-3650.5506L13975.929,-3650.5458L13975.9792,-3650.5331L13976.0239,-3650.521L13976.0552,-3650.5131L13976.1271,-3650.4929L13976.2213,-3650.4675L13976.2401,-3650.4634L13976.2573,-3650.4637"/>
</g>
</svg>
