<?xml version="1.0" encoding="UTF-8"?>
<svg  xmlns="http://www.w3.org/2000/svg" xmlns:xlink="http://www.w3.org/1999/xlink" xmlns:go="http://purl.org/svgmap/profile" property="N07_001,N07_002,N07_003,N07_004,N07_005,N07_006,N07_007" viewBox="14100.9521484375 -3871.307373046875 0.274658203125 0.274658203125" go:dataArea="14100.9521484375 -3871.307373046875 0.274658203125 0.274658203125" >
<metadata>
 <rdf:RDF xmlns:rdf="http://www.w3.org/1999/02/22-rdf-syntax-ns#" xmlns:crs="http://opengis.org/xmldtds/transformations.dtd" xmlns:svg="http://www.w3.org/svg" >
  <rdf:Description>
   <crs:CoordinateReferenceSystem rdf:resource="http://purl.org/crs/84" svg:transform="matrix(100.0,0.0,0.0,-100.0,0.0,0.0)" />
  </rdf:Description>
 </rdf:RDF>
</metadata>
<globalCoordinateSystem srsName="http://purl.org/crs/84" transform="matrix(100.0,0.0,0.0,-100.0,0.0,0.0)" />
<defs>
 <g id="p0" >
  <circle cx="0.0" cy="0.0" r="3" stroke="green" stroke-width="0.75" vector-effect="non-scaling-stroke" />
 </g>
</defs>
<g fill="none" fill-rule="evenodd" stroke="#FF00FF" stroke-width="0.75" opacity="0.5" vector-effect="non-scaling-stroke" stroke-linejoin="bevel" >
<path content="1,JRバス東北（株）,うみねこ号,1.0,1.0,1.0," xlink:title="1" d="M14100.9521,-3871.0386L14100.9586,-3871.0393L14100.9626,-3871.0397L14100.9661,-3871.0401L14100.9661,-3871.0401L14100.9929,-3871.0429L14101.0438,-3871.05L14101.0439,-3871.05L14101.0439,-3871.05L14101.0439,-3871.05L14101.0439,-3871.05L14101.0444,-3871.0501L14101.0445,-3871.0501L14101.0446,-3871.0501L14101.0446,-3871.0501L14101.0446,-3871.0501L14101.0447,-3871.0501L14101.0449,-3871.0501L14101.0745,-3871.0542L14101.0745,-3871.0543L14101.0745,-3871.0543L14101.0989,-3871.0581L14101.0989,-3871.0582L14101.0991,-3871.0582L14101.0992,-3871.0582L14101.0992,-3871.0582L14101.0993,-3871.0582L14101.0993,-3871.0582L14101.0993,-3871.0582L14101.0993,-3871.0582L14101.0996,-3871.0583L14101.0996,-3871.0583L14101.0996,-3871.0583L14101.1274,-3871.0627L14101.1285,-3871.0629L14101.1285,-3871.0629L14101.1285,-3871.0629L14101.1285,-3871.0629L14101.1286,-3871.0629L14101.1304,-3871.0633L14101.1311,-3871.0634L14101.1311,-3871.0634L14101.1542,-3871.0678L14101.1816,-3871.074L14101.2052,-3871.0794L14101.2238,-3871.0834L14101.2268,-3871.0842"/>
<path content="1,JRバス東北（株）,けんじライナー号,1.0,1.0,1.0," xlink:title="1" d="M14100.9521,-3871.0386L14100.9586,-3871.0393L14100.9626,-3871.0397L14100.9661,-3871.0401L14100.9661,-3871.0401L14100.9929,-3871.0429L14101.0438,-3871.05L14101.0439,-3871.05L14101.0439,-3871.05L14101.0439,-3871.05L14101.0439,-3871.05L14101.0444,-3871.0501L14101.0445,-3871.0501L14101.0446,-3871.0501L14101.0446,-3871.0501L14101.0446,-3871.0501L14101.0447,-3871.0501L14101.0449,-3871.0501L14101.0745,-3871.0542L14101.0745,-3871.0543L14101.0745,-3871.0543L14101.0989,-3871.0581L14101.0989,-3871.0582L14101.0991,-3871.0582L14101.0992,-3871.0582L14101.0992,-3871.0582L14101.0993,-3871.0582L14101.0993,-3871.0582L14101.0993,-3871.0582L14101.0993,-3871.0582L14101.0996,-3871.0583L14101.0996,-3871.0583L14101.0996,-3871.0583L14101.1274,-3871.0627L14101.1285,-3871.0629L14101.1285,-3871.0629L14101.1285,-3871.0629L14101.1285,-3871.0629L14101.1286,-3871.0629L14101.1304,-3871.0633L14101.1311,-3871.0634L14101.1311,-3871.0634L14101.1542,-3871.0678L14101.1816,-3871.074L14101.2052,-3871.0794L14101.2238,-3871.0834L14101.2268,-3871.0842"/>
<path content="1,JRバス東北（株）,アーバン号,3.2,4.0,4.0," xlink:title="1" d="M14100.9521,-3871.0386L14100.9586,-3871.0393L14100.9626,-3871.0397L14100.9661,-3871.0401L14100.9661,-3871.0401L14100.9929,-3871.0429L14101.0438,-3871.05L14101.0439,-3871.05L14101.0439,-3871.05L14101.0439,-3871.05L14101.0439,-3871.05L14101.0444,-3871.0501L14101.0445,-3871.0501L14101.0446,-3871.0501L14101.0446,-3871.0501L14101.0446,-3871.0501L14101.0447,-3871.0501L14101.0449,-3871.0501L14101.0745,-3871.0542L14101.0745,-3871.0543L14101.0745,-3871.0543L14101.0989,-3871.0581L14101.0989,-3871.0582L14101.0991,-3871.0582L14101.0992,-3871.0582L14101.0992,-3871.0582L14101.0993,-3871.0582L14101.0993,-3871.0582L14101.0993,-3871.0582L14101.0993,-3871.0582L14101.0996,-3871.0583L14101.0996,-3871.0583L14101.0996,-3871.0583L14101.1274,-3871.0627L14101.1285,-3871.0629L14101.1285,-3871.0629L14101.1285,-3871.0629L14101.1285,-3871.0629L14101.1286,-3871.0629L14101.1304,-3871.0633L14101.1311,-3871.0634L14101.1311,-3871.0634L14101.1542,-3871.0678L14101.1816,-3871.074L14101.2052,-3871.0794L14101.2238,-3871.0834L14101.2268,-3871.0842"/>
<path content="1,JRバス東北（株）,キャッスル号,3.0,3.0,3.0," xlink:title="1" d="M14100.9521,-3871.0386L14100.9586,-3871.0393L14100.9626,-3871.0397L14100.9661,-3871.0401L14100.9661,-3871.0401L14100.9929,-3871.0429L14101.0438,-3871.05L14101.0439,-3871.05L14101.0439,-3871.05L14101.0439,-3871.05L14101.0439,-3871.05L14101.0444,-3871.0501L14101.0445,-3871.0501L14101.0446,-3871.0501L14101.0446,-3871.0501L14101.0446,-3871.0501L14101.0447,-3871.0501L14101.0449,-3871.0501L14101.0745,-3871.0542L14101.0745,-3871.0543L14101.0745,-3871.0543L14101.0989,-3871.0581L14101.0989,-3871.0582L14101.0991,-3871.0582L14101.0992,-3871.0582L14101.0992,-3871.0582L14101.0993,-3871.0582L14101.0993,-3871.0582L14101.0993,-3871.0582L14101.0993,-3871.0582L14101.0996,-3871.0583L14101.0996,-3871.0583L14101.0996,-3871.0583L14101.1274,-3871.0627L14101.1285,-3871.0629L14101.1285,-3871.0629L14101.1285,-3871.0629L14101.1285,-3871.0629L14101.1286,-3871.0629L14101.1304,-3871.0633L14101.1311,-3871.0634L14101.1311,-3871.0634L14101.1542,-3871.0678L14101.1816,-3871.074L14101.2052,-3871.0794L14101.2238,-3871.0834L14101.2268,-3871.0842"/>
<path content="1,JRバス東北（株）,グリーンライナー号,2.0,2.0,2.0," xlink:title="1" d="M14100.9521,-3871.0386L14100.9586,-3871.0393L14100.9626,-3871.0397L14100.9661,-3871.0401L14100.9661,-3871.0401L14100.9929,-3871.0429L14101.0438,-3871.05L14101.0439,-3871.05L14101.0439,-3871.05L14101.0439,-3871.05L14101.0439,-3871.05L14101.0444,-3871.0501L14101.0445,-3871.0501L14101.0446,-3871.0501L14101.0446,-3871.0501L14101.0446,-3871.0501L14101.0447,-3871.0501L14101.0449,-3871.0501L14101.0745,-3871.0542L14101.0745,-3871.0543L14101.0745,-3871.0543L14101.0989,-3871.0581L14101.0989,-3871.0582L14101.0991,-3871.0582L14101.0992,-3871.0582L14101.0992,-3871.0582L14101.0993,-3871.0582L14101.0993,-3871.0582L14101.0993,-3871.0582L14101.0993,-3871.0582L14101.0996,-3871.0583L14101.0996,-3871.0583L14101.0996,-3871.0583L14101.1274,-3871.0627L14101.1285,-3871.0629L14101.1285,-3871.0629L14101.1285,-3871.0629L14101.1285,-3871.0629L14101.1286,-3871.0629L14101.1304,-3871.0633L14101.1311,-3871.0634L14101.1311,-3871.0634L14101.1542,-3871.0678L14101.1816,-3871.074L14101.2052,-3871.0794L14101.2238,-3871.0834L14101.2268,-3871.0842"/>
<path content="1,JRバス東北（株）,ドリーム盛岡・らくちん号,2.2,3.0,3.0," xlink:title="1" d="M14100.9521,-3871.0386L14100.9626,-3871.0397L14100.9627,-3871.0397L14100.9928,-3871.0428L14101.0438,-3871.05L14101.0439,-3871.05L14101.0439,-3871.05L14101.0439,-3871.05L14101.0439,-3871.05L14101.0444,-3871.0501L14101.0445,-3871.0501L14101.0446,-3871.0501L14101.0446,-3871.0501L14101.0446,-3871.0501L14101.0447,-3871.0501L14101.0449,-3871.0501L14101.0744,-3871.0543L14101.0989,-3871.0581L14101.0989,-3871.0582L14101.0991,-3871.0582L14101.0992,-3871.0582L14101.0992,-3871.0582L14101.0993,-3871.0582L14101.0993,-3871.0582L14101.0993,-3871.0582L14101.0993,-3871.0582L14101.0996,-3871.0583L14101.0996,-3871.0583L14101.0996,-3871.0583L14101.1274,-3871.0627L14101.1304,-3871.0633L14101.1311,-3871.0634L14101.1311,-3871.0634L14101.1311,-3871.0634L14101.1313,-3871.0634L14101.1315,-3871.0635L14101.1316,-3871.0635L14101.1316,-3871.0635L14101.1316,-3871.0635L14101.1319,-3871.0635L14101.1322,-3871.0636L14101.1328,-3871.0637L14101.133,-3871.0638L14101.1332,-3871.0638L14101.1343,-3871.064L14101.1541,-3871.068L14101.1816,-3871.0741L14101.2053,-3871.0794L14101.2239,-3871.0836L14101.2268,-3871.0844"/>
<path content="1,JRバス東北（株）,ドリーム秋田・横浜号,1.0,1.0,1.0," xlink:title="1" d="M14101.2268,-3871.0842L14101.2238,-3871.0834L14101.2052,-3871.0794L14101.1816,-3871.074L14101.1542,-3871.0678L14101.1311,-3871.0634L14101.1311,-3871.0634L14101.1304,-3871.0633L14101.1286,-3871.0629L14101.1285,-3871.0629L14101.1285,-3871.0629L14101.1285,-3871.0629L14101.1285,-3871.0629L14101.1274,-3871.0627L14101.0996,-3871.0583L14101.0996,-3871.0583L14101.0996,-3871.0583L14101.0993,-3871.0582L14101.0993,-3871.0582L14101.0993,-3871.0582L14101.0993,-3871.0582L14101.0992,-3871.0582L14101.0992,-3871.0582L14101.0991,-3871.0582L14101.0989,-3871.0582L14101.0989,-3871.0581L14101.0745,-3871.0543L14101.0745,-3871.0543L14101.0745,-3871.0542L14101.0449,-3871.0501L14101.0447,-3871.0501L14101.0446,-3871.0501L14101.0446,-3871.0501L14101.0446,-3871.0501L14101.0445,-3871.0501L14101.0444,-3871.0501L14101.0439,-3871.05L14101.0439,-3871.05L14101.0439,-3871.05L14101.0439,-3871.05L14101.0438,-3871.05L14100.9929,-3871.0429L14100.9661,-3871.0401L14100.9661,-3871.0401L14100.9626,-3871.0397L14100.9586,-3871.0393L14100.9521,-3871.0386"/>
<path content="1,JRバス東北（株）,ブルーシティ号,1.5,1.5,1.5," xlink:title="1" d="M14100.9521,-3871.0386L14100.9586,-3871.0393L14100.9626,-3871.0397L14100.9661,-3871.0401L14100.9661,-3871.0401L14100.9929,-3871.0429L14101.0438,-3871.05L14101.0439,-3871.05L14101.0439,-3871.05L14101.0439,-3871.05L14101.0439,-3871.05L14101.0444,-3871.0501L14101.0445,-3871.0501L14101.0446,-3871.0501L14101.0446,-3871.0501L14101.0446,-3871.0501L14101.0447,-3871.0501L14101.0449,-3871.0501L14101.0745,-3871.0542L14101.0745,-3871.0543L14101.0745,-3871.0543L14101.0989,-3871.0581L14101.0989,-3871.0582L14101.0991,-3871.0582L14101.0992,-3871.0582L14101.0992,-3871.0582L14101.0993,-3871.0582L14101.0993,-3871.0582L14101.0993,-3871.0582L14101.0993,-3871.0582L14101.0996,-3871.0583L14101.0996,-3871.0583L14101.0996,-3871.0583L14101.1274,-3871.0627L14101.1285,-3871.0629L14101.1285,-3871.0629L14101.1285,-3871.0629L14101.1285,-3871.0629L14101.1286,-3871.0629L14101.1304,-3871.0633L14101.1311,-3871.0634L14101.1311,-3871.0634L14101.1542,-3871.0678L14101.1816,-3871.074L14101.2052,-3871.0794L14101.2238,-3871.0834L14101.2268,-3871.0842"/>
<path content="1,JRバス東北（株）,ラ・フォーレ号,1.0,1.0,1.0," xlink:title="1" d="M14100.9521,-3871.0386L14100.9626,-3871.0397L14100.9627,-3871.0397L14100.9928,-3871.0428L14101.0438,-3871.05L14101.0439,-3871.05L14101.0439,-3871.05L14101.0439,-3871.05L14101.0439,-3871.05L14101.0444,-3871.0501L14101.0445,-3871.0501L14101.0446,-3871.0501L14101.0446,-3871.0501L14101.0446,-3871.0501L14101.0447,-3871.0501L14101.0449,-3871.0501L14101.0744,-3871.0543L14101.0989,-3871.0581L14101.0989,-3871.0582L14101.0991,-3871.0582L14101.0992,-3871.0582L14101.0992,-3871.0582L14101.0993,-3871.0582L14101.0993,-3871.0582L14101.0993,-3871.0582L14101.0993,-3871.0582L14101.0996,-3871.0583L14101.0996,-3871.0583L14101.0996,-3871.0583L14101.1274,-3871.0627L14101.1304,-3871.0633L14101.1311,-3871.0634L14101.1311,-3871.0634L14101.1311,-3871.0634L14101.1313,-3871.0634L14101.1315,-3871.0635L14101.1316,-3871.0635L14101.1316,-3871.0635L14101.1316,-3871.0635L14101.1319,-3871.0635L14101.1322,-3871.0636L14101.1328,-3871.0637L14101.133,-3871.0638L14101.1332,-3871.0638L14101.1343,-3871.064L14101.1541,-3871.068L14101.1816,-3871.0741L14101.2053,-3871.0794L14101.2239,-3871.0836L14101.2268,-3871.0844"/>
<path content="1,JRバス東北（株）,仙台～大館線,1.0,1.0,1.0," xlink:title="1" d="M14100.9521,-3871.0386L14100.9546,-3871.0389L14100.9626,-3871.0397L14100.9626,-3871.0397L14100.9626,-3871.0397L14100.9692,-3871.0404L14100.9796,-3871.0415L14100.9797,-3871.0415L14100.9797,-3871.0415L14100.9797,-3871.0415L14100.9899,-3871.0426L14100.9928,-3871.0429L14101.0438,-3871.05L14101.0439,-3871.05L14101.0439,-3871.05L14101.0439,-3871.05L14101.0439,-3871.05L14101.0444,-3871.0501L14101.0445,-3871.0501L14101.0446,-3871.0501L14101.0446,-3871.0501L14101.0446,-3871.0501L14101.0447,-3871.0501L14101.0449,-3871.0501L14101.0745,-3871.0542L14101.0745,-3871.0543L14101.0745,-3871.0543L14101.0989,-3871.0581L14101.0989,-3871.0582L14101.0991,-3871.0582L14101.0992,-3871.0582L14101.0992,-3871.0582L14101.0993,-3871.0582L14101.0993,-3871.0582L14101.0993,-3871.0582L14101.0993,-3871.0582L14101.0996,-3871.0583L14101.0996,-3871.0583L14101.0996,-3871.0583L14101.1274,-3871.0627L14101.1285,-3871.0629L14101.1285,-3871.0629L14101.1285,-3871.0629L14101.1285,-3871.0629L14101.1286,-3871.0629L14101.1311,-3871.0634L14101.1311,-3871.0634L14101.1311,-3871.0634L14101.1313,-3871.0634L14101.1315,-3871.0635L14101.1316,-3871.0635L14101.1316,-3871.0635L14101.1316,-3871.0635L14101.1319,-3871.0635L14101.1322,-3871.0636L14101.1328,-3871.0637L14101.133,-3871.0638L14101.1332,-3871.0638L14101.1343,-3871.064L14101.1542,-3871.0679L14101.1709,-3871.0716L14101.1709,-3871.0716L14101.171,-3871.0716L14101.1759,-3871.0728L14101.1782,-3871.0733L14101.1816,-3871.074L14101.2052,-3871.0794L14101.2072,-3871.0798L14101.208,-3871.08L14101.2107,-3871.0806L14101.2239,-3871.0835L14101.2268,-3871.0843"/>
<path content="1,JRバス東北（株）,仙台～江刺・水沢線,2.0,2.0,2.0," xlink:title="1" d="M14100.9521,-3871.0386L14100.9586,-3871.0393L14100.9626,-3871.0397L14100.9661,-3871.0401L14100.9661,-3871.0401L14100.9929,-3871.0429L14101.0438,-3871.05L14101.0439,-3871.05L14101.0439,-3871.05L14101.0439,-3871.05L14101.0439,-3871.05L14101.0444,-3871.0501L14101.0445,-3871.0501L14101.0446,-3871.0501L14101.0446,-3871.0501L14101.0446,-3871.0501L14101.0447,-3871.0501L14101.0449,-3871.0501L14101.0745,-3871.0542L14101.0745,-3871.0543L14101.0745,-3871.0543L14101.0989,-3871.0581L14101.0989,-3871.0582L14101.0991,-3871.0582L14101.0992,-3871.0582L14101.0992,-3871.0582L14101.0993,-3871.0582L14101.0993,-3871.0582L14101.0993,-3871.0582L14101.0993,-3871.0582L14101.0996,-3871.0583L14101.0996,-3871.0583L14101.0996,-3871.0583L14101.1274,-3871.0627L14101.1285,-3871.0629L14101.1285,-3871.0629L14101.1285,-3871.0629L14101.1285,-3871.0629L14101.1286,-3871.0629L14101.1304,-3871.0633L14101.1311,-3871.0634L14101.1311,-3871.0634L14101.1542,-3871.0678L14101.1816,-3871.074L14101.2052,-3871.0794L14101.2238,-3871.0834L14101.2268,-3871.0842"/>
<path content="1,JRバス東北（株）,仙秋号,2.0,2.0,2.0," xlink:title="1" d="M14100.9521,-3871.0386L14100.9586,-3871.0393L14100.9626,-3871.0397L14100.9661,-3871.0401L14100.9661,-3871.0401L14100.9929,-3871.0429L14101.0438,-3871.05L14101.0439,-3871.05L14101.0439,-3871.05L14101.0439,-3871.05L14101.0439,-3871.05L14101.0444,-3871.0501L14101.0445,-3871.0501L14101.0446,-3871.0501L14101.0446,-3871.0501L14101.0446,-3871.0501L14101.0447,-3871.0501L14101.0449,-3871.0501L14101.0745,-3871.0542L14101.0745,-3871.0543L14101.0745,-3871.0543L14101.0989,-3871.0581L14101.0989,-3871.0582L14101.0991,-3871.0582L14101.0992,-3871.0582L14101.0992,-3871.0582L14101.0993,-3871.0582L14101.0993,-3871.0582L14101.0993,-3871.0582L14101.0993,-3871.0582L14101.0996,-3871.0583L14101.0996,-3871.0583L14101.0996,-3871.0583L14101.1274,-3871.0627L14101.1285,-3871.0629L14101.1285,-3871.0629L14101.1285,-3871.0629L14101.1285,-3871.0629L14101.1286,-3871.0629L14101.1304,-3871.0633L14101.1311,-3871.0634L14101.1311,-3871.0634L14101.1542,-3871.0678L14101.1816,-3871.074L14101.2052,-3871.0794L14101.2238,-3871.0834L14101.2268,-3871.0842"/>
<path content="1,JRバス関東（株）,ドリーム盛岡号,2.2,3.0,3.0," xlink:title="1" d="M14100.9521,-3871.0386L14100.9586,-3871.0393L14100.9626,-3871.0397L14100.9661,-3871.0401L14100.9661,-3871.0401L14100.9929,-3871.0429L14101.0438,-3871.05L14101.0439,-3871.05L14101.0439,-3871.05L14101.0439,-3871.05L14101.0439,-3871.05L14101.0444,-3871.0501L14101.0445,-3871.0501L14101.0446,-3871.0501L14101.0446,-3871.0501L14101.0446,-3871.0501L14101.0447,-3871.0501L14101.0449,-3871.0501L14101.0745,-3871.0542L14101.0745,-3871.0543L14101.0745,-3871.0543L14101.0989,-3871.0581L14101.0989,-3871.0582L14101.0991,-3871.0582L14101.0992,-3871.0582L14101.0992,-3871.0582L14101.0993,-3871.0582L14101.0993,-3871.0582L14101.0993,-3871.0582L14101.0993,-3871.0582L14101.0996,-3871.0583L14101.0996,-3871.0583L14101.0996,-3871.0583L14101.1274,-3871.0627L14101.1285,-3871.0629L14101.1285,-3871.0629L14101.1285,-3871.0629L14101.1285,-3871.0629L14101.1286,-3871.0629L14101.1304,-3871.0633L14101.1311,-3871.0634L14101.1311,-3871.0634L14101.1542,-3871.0678L14101.1816,-3871.074L14101.2052,-3871.0794L14101.2238,-3871.0834L14101.2268,-3871.0842"/>
<path content="1,京浜急行バス（株）,ノクターン号,3.4,4.0,4.0," xlink:title="1" d="M14100.9521,-3871.0386L14100.9586,-3871.0393L14100.9626,-3871.0397L14100.9661,-3871.0401L14100.9661,-3871.0401L14100.9929,-3871.0429L14101.0438,-3871.05L14101.0439,-3871.05L14101.0439,-3871.05L14101.0439,-3871.05L14101.0439,-3871.05L14101.0444,-3871.0501L14101.0445,-3871.0501L14101.0446,-3871.0501L14101.0446,-3871.0501L14101.0446,-3871.0501L14101.0447,-3871.0501L14101.0449,-3871.0501L14101.0745,-3871.0542L14101.0745,-3871.0543L14101.0745,-3871.0543L14101.0989,-3871.0581L14101.0989,-3871.0582L14101.0991,-3871.0582L14101.0992,-3871.0582L14101.0992,-3871.0582L14101.0993,-3871.0582L14101.0993,-3871.0582L14101.0993,-3871.0582L14101.0993,-3871.0582L14101.0996,-3871.0583L14101.0996,-3871.0583L14101.0996,-3871.0583L14101.1274,-3871.0627L14101.1285,-3871.0629L14101.1285,-3871.0629L14101.1285,-3871.0629L14101.1285,-3871.0629L14101.1286,-3871.0629L14101.1304,-3871.0633L14101.1311,-3871.0634L14101.1311,-3871.0634L14101.1542,-3871.0678L14101.1816,-3871.074L14101.2052,-3871.0794L14101.2238,-3871.0834L14101.2268,-3871.0842"/>
<path content="1,京浜急行バス（株）,ビーム号,1.0,1.0,1.0," xlink:title="1" d="M14101.2268,-3871.0842L14101.2238,-3871.0834L14101.2052,-3871.0794L14101.1816,-3871.074L14101.1542,-3871.0678L14101.1311,-3871.0634L14101.1311,-3871.0634L14101.1304,-3871.0633L14101.1286,-3871.0629L14101.1285,-3871.0629L14101.1285,-3871.0629L14101.1285,-3871.0629L14101.1285,-3871.0629L14101.1274,-3871.0627L14101.0996,-3871.0583L14101.0996,-3871.0583L14101.0996,-3871.0583L14101.0993,-3871.0582L14101.0993,-3871.0582L14101.0993,-3871.0582L14101.0993,-3871.0582L14101.0992,-3871.0582L14101.0992,-3871.0582L14101.0991,-3871.0582L14101.0989,-3871.0582L14101.0989,-3871.0581L14101.0745,-3871.0543L14101.0745,-3871.0543L14101.0745,-3871.0542L14101.0449,-3871.0501L14101.0447,-3871.0501L14101.0446,-3871.0501L14101.0446,-3871.0501L14101.0446,-3871.0501L14101.0445,-3871.0501L14101.0444,-3871.0501L14101.0439,-3871.05L14101.0439,-3871.05L14101.0439,-3871.05L14101.0439,-3871.05L14101.0438,-3871.05L14100.9929,-3871.0429L14100.9661,-3871.0401L14100.9661,-3871.0401L14100.9626,-3871.0397L14100.9586,-3871.0393L14100.9521,-3871.0386"/>
<path content="1,十和田観光電鉄（株）,うみねこ号,4.0,4.0,4.0," xlink:title="1" d="M14101.2268,-3871.0843L14101.2239,-3871.0834L14101.2107,-3871.0806L14101.208,-3871.08L14101.2072,-3871.0798L14101.2052,-3871.0794L14101.1816,-3871.074L14101.1782,-3871.0733L14101.1759,-3871.0728L14101.171,-3871.0716L14101.1709,-3871.0716L14101.1709,-3871.0716L14101.1542,-3871.0678L14101.1343,-3871.064L14101.1332,-3871.0638L14101.133,-3871.0638L14101.1328,-3871.0637L14101.1322,-3871.0636L14101.1319,-3871.0635L14101.1316,-3871.0635L14101.1316,-3871.0635L14101.1316,-3871.0635L14101.1315,-3871.0635L14101.1313,-3871.0634L14101.1311,-3871.0634L14101.1311,-3871.0634L14101.1311,-3871.0634L14101.1286,-3871.0629L14101.1285,-3871.0629L14101.1285,-3871.0629L14101.1285,-3871.0629L14101.1285,-3871.0629L14101.1274,-3871.0627L14101.0996,-3871.0583L14101.0996,-3871.0583L14101.0996,-3871.0583L14101.0993,-3871.0582L14101.0993,-3871.0582L14101.0993,-3871.0582L14101.0993,-3871.0582L14101.0992,-3871.0582L14101.0992,-3871.0582L14101.0991,-3871.0582L14101.0989,-3871.0582L14101.0989,-3871.0581L14101.0745,-3871.0543L14101.0745,-3871.0543L14101.0745,-3871.0542L14101.0449,-3871.0501L14101.0447,-3871.0501L14101.0446,-3871.0501L14101.0446,-3871.0501L14101.0446,-3871.0501L14101.0445,-3871.0501L14101.0444,-3871.0501L14101.0439,-3871.05L14101.0439,-3871.05L14101.0439,-3871.05L14101.0439,-3871.05L14101.0438,-3871.05L14100.9928,-3871.0429L14100.9899,-3871.0426L14100.9797,-3871.0415L14100.9797,-3871.0415L14100.9797,-3871.0415L14100.9796,-3871.0415L14100.9692,-3871.0404L14100.9626,-3871.0397L14100.9626,-3871.0397L14100.9626,-3871.0397L14100.9546,-3871.0389L14100.9521,-3871.0386"/>
<path content="1,十和田観光電鉄（株）,シリウス号,1.0,1.0,1.0," xlink:title="1" d="M14101.2268,-3871.0842L14101.2238,-3871.0834L14101.208,-3871.08L14101.2072,-3871.0798L14101.2052,-3871.0794L14101.1816,-3871.074L14101.1542,-3871.0678L14101.1343,-3871.064L14101.1332,-3871.0638L14101.133,-3871.0638L14101.1328,-3871.0637L14101.1322,-3871.0636L14101.1319,-3871.0635L14101.1316,-3871.0635L14101.1316,-3871.0635L14101.1316,-3871.0635L14101.1315,-3871.0635L14101.1313,-3871.0634L14101.1311,-3871.0634L14101.1311,-3871.0634L14101.1311,-3871.0634L14101.1286,-3871.0629L14101.1285,-3871.0629L14101.1285,-3871.0629L14101.1285,-3871.0629L14101.1285,-3871.0629L14101.1274,-3871.0627L14101.0996,-3871.0583L14101.0996,-3871.0583L14101.0996,-3871.0583L14101.0993,-3871.0582L14101.0993,-3871.0582L14101.0993,-3871.0582L14101.0993,-3871.0582L14101.0992,-3871.0582L14101.0992,-3871.0582L14101.0991,-3871.0582L14101.0989,-3871.0582L14101.0989,-3871.0581L14101.0745,-3871.0543L14101.0745,-3871.0543L14101.0745,-3871.0542L14101.0449,-3871.0501L14101.0447,-3871.0501L14101.0446,-3871.0501L14101.0446,-3871.0501L14101.0446,-3871.0501L14101.0445,-3871.0501L14101.0444,-3871.0501L14101.0439,-3871.05L14101.0439,-3871.05L14101.0439,-3871.05L14101.0439,-3871.05L14101.0438,-3871.05L14100.9928,-3871.0429L14100.9899,-3871.0426L14100.9797,-3871.0415L14100.9797,-3871.0415L14100.9797,-3871.0415L14100.9796,-3871.0415L14100.9692,-3871.0404L14100.9661,-3871.0401L14100.9661,-3871.0401L14100.9626,-3871.0397L14100.9586,-3871.0393L14100.9546,-3871.0389L14100.9521,-3871.0386"/>
<path content="1,十和田観光電鉄（株）,ブルーシティー号,6.0,6.0,6.0," xlink:title="1" d="M14101.2268,-3871.0843L14101.2239,-3871.0834L14101.2107,-3871.0806L14101.208,-3871.08L14101.2072,-3871.0798L14101.2052,-3871.0794L14101.1816,-3871.074L14101.1782,-3871.0733L14101.1759,-3871.0728L14101.171,-3871.0716L14101.1709,-3871.0716L14101.1709,-3871.0716L14101.1542,-3871.0678L14101.1343,-3871.064L14101.1332,-3871.0638L14101.133,-3871.0638L14101.1328,-3871.0637L14101.1322,-3871.0636L14101.1319,-3871.0635L14101.1316,-3871.0635L14101.1316,-3871.0635L14101.1316,-3871.0635L14101.1315,-3871.0635L14101.1313,-3871.0634L14101.1311,-3871.0634L14101.1311,-3871.0634L14101.1311,-3871.0634L14101.1286,-3871.0629L14101.1285,-3871.0629L14101.1285,-3871.0629L14101.1285,-3871.0629L14101.1285,-3871.0629L14101.1274,-3871.0627L14101.0996,-3871.0583L14101.0996,-3871.0583L14101.0996,-3871.0583L14101.0993,-3871.0582L14101.0993,-3871.0582L14101.0993,-3871.0582L14101.0993,-3871.0582L14101.0992,-3871.0582L14101.0992,-3871.0582L14101.0991,-3871.0582L14101.0989,-3871.0582L14101.0989,-3871.0581L14101.0745,-3871.0543L14101.0745,-3871.0543L14101.0745,-3871.0542L14101.0449,-3871.0501L14101.0447,-3871.0501L14101.0446,-3871.0501L14101.0446,-3871.0501L14101.0446,-3871.0501L14101.0445,-3871.0501L14101.0444,-3871.0501L14101.0439,-3871.05L14101.0439,-3871.05L14101.0439,-3871.05L14101.0439,-3871.05L14101.0438,-3871.05L14100.9928,-3871.0429L14100.9899,-3871.0426L14100.9797,-3871.0415L14100.9797,-3871.0415L14100.9797,-3871.0415L14100.9796,-3871.0415L14100.9692,-3871.0404L14100.9626,-3871.0397L14100.9626,-3871.0397L14100.9626,-3871.0397L14100.9546,-3871.0389L14100.9521,-3871.0386"/>
<path content="1,南部バス（株）,うみねこ号　仙台→八戸,4.0,4.0,4.0," xlink:title="1" d="M14100.9521,-3871.0386L14100.9546,-3871.0389L14100.9626,-3871.0397L14100.9626,-3871.0397L14100.9626,-3871.0397L14100.9692,-3871.0404L14100.9796,-3871.0415L14100.9797,-3871.0415L14100.9797,-3871.0415L14100.9797,-3871.0415L14100.9899,-3871.0426L14100.9928,-3871.0429L14101.0438,-3871.05L14101.0439,-3871.05L14101.0439,-3871.05L14101.0439,-3871.05L14101.0439,-3871.05L14101.0444,-3871.0501L14101.0445,-3871.0501L14101.0446,-3871.0501L14101.0446,-3871.0501L14101.0446,-3871.0501L14101.0447,-3871.0501L14101.0449,-3871.0501L14101.0745,-3871.0542L14101.0745,-3871.0543L14101.0745,-3871.0543L14101.0989,-3871.0581L14101.0989,-3871.0582L14101.0991,-3871.0582L14101.0992,-3871.0582L14101.0992,-3871.0582L14101.0993,-3871.0582L14101.0993,-3871.0582L14101.0993,-3871.0582L14101.0993,-3871.0582L14101.0996,-3871.0583L14101.0996,-3871.0583L14101.0996,-3871.0583L14101.1274,-3871.0627L14101.1285,-3871.0629L14101.1285,-3871.0629L14101.1285,-3871.0629L14101.1285,-3871.0629L14101.1286,-3871.0629L14101.1311,-3871.0634L14101.1311,-3871.0634L14101.1311,-3871.0634L14101.1313,-3871.0634L14101.1315,-3871.0635L14101.1316,-3871.0635L14101.1316,-3871.0635L14101.1316,-3871.0635L14101.1319,-3871.0635L14101.1322,-3871.0636L14101.1328,-3871.0637L14101.133,-3871.0638L14101.1332,-3871.0638L14101.1343,-3871.064L14101.1542,-3871.0678L14101.1709,-3871.0716L14101.1709,-3871.0716L14101.171,-3871.0716L14101.1759,-3871.0728L14101.1782,-3871.0733L14101.1816,-3871.074L14101.2052,-3871.0794L14101.2072,-3871.0798L14101.208,-3871.08L14101.2107,-3871.0806L14101.2239,-3871.0834L14101.2268,-3871.0843"/>
<path content="1,南部バス（株）,うみねこ号　八戸→仙台,4.0,4.0,4.0," xlink:title="1" d="M14101.2268,-3871.0842L14101.2238,-3871.0834L14101.208,-3871.08L14101.2072,-3871.0798L14101.2052,-3871.0794L14101.1816,-3871.074L14101.1542,-3871.0678L14101.1343,-3871.064L14101.1332,-3871.0638L14101.133,-3871.0638L14101.1328,-3871.0637L14101.1322,-3871.0636L14101.1319,-3871.0635L14101.1316,-3871.0635L14101.1316,-3871.0635L14101.1316,-3871.0635L14101.1315,-3871.0635L14101.1313,-3871.0634L14101.1311,-3871.0634L14101.1311,-3871.0634L14101.1311,-3871.0634L14101.1286,-3871.0629L14101.1285,-3871.0629L14101.1285,-3871.0629L14101.1285,-3871.0629L14101.1285,-3871.0629L14101.1274,-3871.0627L14101.0996,-3871.0583L14101.0996,-3871.0583L14101.0996,-3871.0583L14101.0993,-3871.0582L14101.0993,-3871.0582L14101.0993,-3871.0582L14101.0993,-3871.0582L14101.0992,-3871.0582L14101.0992,-3871.0582L14101.0991,-3871.0582L14101.0989,-3871.0582L14101.0989,-3871.0581L14101.0745,-3871.0543L14101.0745,-3871.0543L14101.0745,-3871.0542L14101.0449,-3871.0501L14101.0447,-3871.0501L14101.0446,-3871.0501L14101.0446,-3871.0501L14101.0446,-3871.0501L14101.0445,-3871.0501L14101.0444,-3871.0501L14101.0439,-3871.05L14101.0439,-3871.05L14101.0439,-3871.05L14101.0439,-3871.05L14101.0438,-3871.05L14100.9928,-3871.0429L14100.9899,-3871.0426L14100.9797,-3871.0415L14100.9797,-3871.0415L14100.9797,-3871.0415L14100.9796,-3871.0415L14100.9692,-3871.0404L14100.9661,-3871.0401L14100.9661,-3871.0401L14100.9626,-3871.0397L14100.9586,-3871.0393L14100.9546,-3871.0389L14100.9521,-3871.0386"/>
<path content="1,国際興業（株）,けせんライナー,1.0,1.0,1.0," xlink:title="1" d="M14100.9521,-3871.0386L14100.9586,-3871.0393L14100.9626,-3871.0397L14100.9661,-3871.0401L14100.9661,-3871.0401L14100.9929,-3871.0429L14101.0438,-3871.05L14101.0439,-3871.05L14101.0439,-3871.05L14101.0439,-3871.05L14101.0439,-3871.05L14101.0444,-3871.0501L14101.0445,-3871.0501L14101.0446,-3871.0501L14101.0446,-3871.0501L14101.0446,-3871.0501L14101.0447,-3871.0501L14101.0449,-3871.0501L14101.0745,-3871.0542L14101.0745,-3871.0543L14101.0745,-3871.0543L14101.0989,-3871.0581L14101.0989,-3871.0582L14101.0991,-3871.0582L14101.0992,-3871.0582L14101.0992,-3871.0582L14101.0993,-3871.0582L14101.0993,-3871.0582L14101.0993,-3871.0582L14101.0993,-3871.0582L14101.0996,-3871.0583L14101.0996,-3871.0583L14101.0996,-3871.0583L14101.1274,-3871.0627L14101.1285,-3871.0629L14101.1285,-3871.0629L14101.1285,-3871.0629L14101.1285,-3871.0629L14101.1286,-3871.0629L14101.1304,-3871.0633L14101.1311,-3871.0634L14101.1311,-3871.0634L14101.1542,-3871.0678L14101.1816,-3871.074L14101.2052,-3871.0794L14101.2238,-3871.0834L14101.2268,-3871.0842"/>
<path content="1,国際興業（株）,イーハトープ号,1.0,1.0,1.0," xlink:title="1" d="M14100.9521,-3871.0386L14100.9586,-3871.0393L14100.9626,-3871.0397L14100.9661,-3871.0401L14100.9661,-3871.0401L14100.9929,-3871.0429L14101.0438,-3871.05L14101.0439,-3871.05L14101.0439,-3871.05L14101.0439,-3871.05L14101.0439,-3871.05L14101.0444,-3871.0501L14101.0445,-3871.0501L14101.0446,-3871.0501L14101.0446,-3871.0501L14101.0446,-3871.0501L14101.0447,-3871.0501L14101.0449,-3871.0501L14101.0745,-3871.0542L14101.0745,-3871.0543L14101.0745,-3871.0543L14101.0989,-3871.0581L14101.0989,-3871.0582L14101.0991,-3871.0582L14101.0992,-3871.0582L14101.0992,-3871.0582L14101.0993,-3871.0582L14101.0993,-3871.0582L14101.0993,-3871.0582L14101.0993,-3871.0582L14101.0996,-3871.0583L14101.0996,-3871.0583L14101.0996,-3871.0583L14101.1274,-3871.0627L14101.1285,-3871.0629L14101.1285,-3871.0629L14101.1285,-3871.0629L14101.1285,-3871.0629L14101.1286,-3871.0629L14101.1304,-3871.0633L14101.1311,-3871.0634L14101.1311,-3871.0634L14101.1542,-3871.0678L14101.1816,-3871.074L14101.2052,-3871.0794L14101.2238,-3871.0834L14101.2268,-3871.0842"/>
<path content="1,国際興業（株）,シリウス号,1.0,1.0,1.0," xlink:title="1" d="M14100.9521,-3871.0386L14100.9586,-3871.0393L14100.9626,-3871.0397L14100.9661,-3871.0401L14100.9661,-3871.0401L14100.9929,-3871.0429L14101.0438,-3871.05L14101.0439,-3871.05L14101.0439,-3871.05L14101.0439,-3871.05L14101.0439,-3871.05L14101.0444,-3871.0501L14101.0445,-3871.0501L14101.0446,-3871.0501L14101.0446,-3871.0501L14101.0446,-3871.0501L14101.0447,-3871.0501L14101.0449,-3871.0501L14101.0745,-3871.0542L14101.0745,-3871.0543L14101.0745,-3871.0543L14101.0989,-3871.0581L14101.0989,-3871.0582L14101.0991,-3871.0582L14101.0992,-3871.0582L14101.0992,-3871.0582L14101.0993,-3871.0582L14101.0993,-3871.0582L14101.0993,-3871.0582L14101.0993,-3871.0582L14101.0996,-3871.0583L14101.0996,-3871.0583L14101.0996,-3871.0583L14101.1274,-3871.0627L14101.1285,-3871.0629L14101.1285,-3871.0629L14101.1285,-3871.0629L14101.1285,-3871.0629L14101.1286,-3871.0629L14101.1304,-3871.0633L14101.1311,-3871.0634L14101.1311,-3871.0634L14101.1542,-3871.0678L14101.1816,-3871.074L14101.2052,-3871.0794L14101.2238,-3871.0834L14101.2268,-3871.0842"/>
<path content="1,国際興業（株）,ジュピター号,1.0,1.0,1.0," xlink:title="1" d="M14100.9521,-3871.0386L14100.9586,-3871.0393L14100.9626,-3871.0397L14100.9661,-3871.0401L14100.9661,-3871.0401L14100.9929,-3871.0429L14101.0438,-3871.05L14101.0439,-3871.05L14101.0439,-3871.05L14101.0439,-3871.05L14101.0439,-3871.05L14101.0444,-3871.0501L14101.0445,-3871.0501L14101.0446,-3871.0501L14101.0446,-3871.0501L14101.0446,-3871.0501L14101.0447,-3871.0501L14101.0449,-3871.0501L14101.0745,-3871.0542L14101.0745,-3871.0543L14101.0745,-3871.0543L14101.0989,-3871.0581L14101.0989,-3871.0582L14101.0991,-3871.0582L14101.0992,-3871.0582L14101.0992,-3871.0582L14101.0993,-3871.0582L14101.0993,-3871.0582L14101.0993,-3871.0582L14101.0993,-3871.0582L14101.0996,-3871.0583L14101.0996,-3871.0583L14101.0996,-3871.0583L14101.1274,-3871.0627L14101.1285,-3871.0629L14101.1285,-3871.0629L14101.1285,-3871.0629L14101.1285,-3871.0629L14101.1286,-3871.0629L14101.1304,-3871.0633L14101.1311,-3871.0634L14101.1311,-3871.0634L14101.1542,-3871.0678L14101.1816,-3871.074L14101.2052,-3871.0794L14101.2238,-3871.0834L14101.2268,-3871.0842"/>
<path content="1,国際興業（株）,ドリーム盛岡（らくちん）号,2.2,3.0,3.0," xlink:title="1" d="M14100.9521,-3871.0386L14100.9586,-3871.0393L14100.9626,-3871.0397L14100.9661,-3871.0401L14100.9661,-3871.0401L14100.9929,-3871.0429L14101.0438,-3871.05L14101.0439,-3871.05L14101.0439,-3871.05L14101.0439,-3871.05L14101.0439,-3871.05L14101.0444,-3871.0501L14101.0445,-3871.0501L14101.0446,-3871.0501L14101.0446,-3871.0501L14101.0446,-3871.0501L14101.0447,-3871.0501L14101.0449,-3871.0501L14101.0745,-3871.0542L14101.0745,-3871.0543L14101.0745,-3871.0543L14101.0989,-3871.0581L14101.0989,-3871.0582L14101.0991,-3871.0582L14101.0992,-3871.0582L14101.0992,-3871.0582L14101.0993,-3871.0582L14101.0993,-3871.0582L14101.0993,-3871.0582L14101.0993,-3871.0582L14101.0996,-3871.0583L14101.0996,-3871.0583L14101.0996,-3871.0583L14101.1274,-3871.0627L14101.1285,-3871.0629L14101.1285,-3871.0629L14101.1285,-3871.0629L14101.1285,-3871.0629L14101.1286,-3871.0629L14101.1304,-3871.0633L14101.1311,-3871.0634L14101.1311,-3871.0634L14101.1542,-3871.0678L14101.1816,-3871.074L14101.2052,-3871.0794L14101.2238,-3871.0834L14101.2268,-3871.0842"/>
<path content="1,国際興業（株）,遠野・釜石号,1.0,1.0,1.0," xlink:title="1" d="M14100.9521,-3871.0386L14100.9586,-3871.0393L14100.9626,-3871.0397L14100.9661,-3871.0401L14100.9661,-3871.0401L14100.9929,-3871.0429L14101.0438,-3871.05L14101.0439,-3871.05L14101.0439,-3871.05L14101.0439,-3871.05L14101.0439,-3871.05L14101.0444,-3871.0501L14101.0445,-3871.0501L14101.0446,-3871.0501L14101.0446,-3871.0501L14101.0446,-3871.0501L14101.0447,-3871.0501L14101.0449,-3871.0501L14101.0745,-3871.0542L14101.0745,-3871.0543L14101.0745,-3871.0543L14101.0989,-3871.0581L14101.0989,-3871.0582L14101.0991,-3871.0582L14101.0992,-3871.0582L14101.0992,-3871.0582L14101.0993,-3871.0582L14101.0993,-3871.0582L14101.0993,-3871.0582L14101.0993,-3871.0582L14101.0996,-3871.0583L14101.0996,-3871.0583L14101.0996,-3871.0583L14101.1274,-3871.0627L14101.1285,-3871.0629L14101.1285,-3871.0629L14101.1285,-3871.0629L14101.1285,-3871.0629L14101.1286,-3871.0629L14101.1304,-3871.0633L14101.1311,-3871.0634L14101.1311,-3871.0634L14101.1542,-3871.0678L14101.1816,-3871.074L14101.2052,-3871.0794L14101.2238,-3871.0834L14101.2268,-3871.0842"/>
<path content="1,宮城交通（株）,うみねこ,1.0,1.0,1.0," xlink:title="1" d="M14100.9521,-3871.0386L14100.9546,-3871.0389L14100.9586,-3871.0393L14100.9626,-3871.0397L14100.9661,-3871.0401L14100.9661,-3871.0401L14100.9692,-3871.0404L14100.9796,-3871.0415L14100.9797,-3871.0415L14100.9797,-3871.0415L14100.9797,-3871.0415L14100.9899,-3871.0426L14100.9928,-3871.0429L14101.0438,-3871.05L14101.0439,-3871.05L14101.0439,-3871.05L14101.0439,-3871.05L14101.0439,-3871.05L14101.0444,-3871.0501L14101.0445,-3871.0501L14101.0446,-3871.0501L14101.0446,-3871.0501L14101.0446,-3871.0501L14101.0447,-3871.0501L14101.0449,-3871.0501L14101.0745,-3871.0542L14101.0745,-3871.0543L14101.0745,-3871.0543L14101.0989,-3871.0581L14101.0989,-3871.0582L14101.0991,-3871.0582L14101.0992,-3871.0582L14101.0992,-3871.0582L14101.0993,-3871.0582L14101.0993,-3871.0582L14101.0993,-3871.0582L14101.0993,-3871.0582L14101.0996,-3871.0583L14101.0996,-3871.0583L14101.0996,-3871.0583L14101.1274,-3871.0627L14101.1285,-3871.0629L14101.1285,-3871.0629L14101.1285,-3871.0629L14101.1285,-3871.0629L14101.1286,-3871.0629L14101.1311,-3871.0634L14101.1311,-3871.0634L14101.1311,-3871.0634L14101.1313,-3871.0634L14101.1315,-3871.0635L14101.1316,-3871.0635L14101.1316,-3871.0635L14101.1316,-3871.0635L14101.1319,-3871.0635L14101.1322,-3871.0636L14101.1328,-3871.0637L14101.133,-3871.0638L14101.1332,-3871.0638L14101.1343,-3871.064L14101.1542,-3871.0678L14101.1816,-3871.074L14101.2052,-3871.0794L14101.2072,-3871.0798L14101.208,-3871.08L14101.2238,-3871.0834L14101.2268,-3871.0842"/>
<path content="1,宮城交通（株）,アーバン,3.2,4.0,4.0," xlink:title="1" d="M14100.9521,-3871.0386L14100.9546,-3871.0389L14100.9586,-3871.0393L14100.9626,-3871.0397L14100.9661,-3871.0401L14100.9661,-3871.0401L14100.9692,-3871.0404L14100.9796,-3871.0415L14100.9797,-3871.0415L14100.9797,-3871.0415L14100.9797,-3871.0415L14100.9899,-3871.0426L14100.9928,-3871.0429L14101.0438,-3871.05L14101.0439,-3871.05L14101.0439,-3871.05L14101.0439,-3871.05L14101.0439,-3871.05L14101.0444,-3871.0501L14101.0445,-3871.0501L14101.0446,-3871.0501L14101.0446,-3871.0501L14101.0446,-3871.0501L14101.0447,-3871.0501L14101.0449,-3871.0501L14101.0745,-3871.0542L14101.0745,-3871.0543L14101.0745,-3871.0543L14101.0989,-3871.0581L14101.0989,-3871.0582L14101.0991,-3871.0582L14101.0992,-3871.0582L14101.0992,-3871.0582L14101.0993,-3871.0582L14101.0993,-3871.0582L14101.0993,-3871.0582L14101.0993,-3871.0582L14101.0996,-3871.0583L14101.0996,-3871.0583L14101.0996,-3871.0583L14101.1274,-3871.0627L14101.1285,-3871.0629L14101.1285,-3871.0629L14101.1285,-3871.0629L14101.1285,-3871.0629L14101.1286,-3871.0629L14101.1311,-3871.0634L14101.1311,-3871.0634L14101.1311,-3871.0634L14101.1313,-3871.0634L14101.1315,-3871.0635L14101.1316,-3871.0635L14101.1316,-3871.0635L14101.1316,-3871.0635L14101.1319,-3871.0635L14101.1322,-3871.0636L14101.1328,-3871.0637L14101.133,-3871.0638L14101.1332,-3871.0638L14101.1343,-3871.064L14101.1542,-3871.0678L14101.1816,-3871.074L14101.2052,-3871.0794L14101.2072,-3871.0798L14101.208,-3871.08L14101.2238,-3871.0834L14101.2268,-3871.0842"/>
<path content="1,宮城交通（株）,キャッスル,3.0,3.0,3.0," xlink:title="1" d="M14100.9521,-3871.0386L14100.9546,-3871.0389L14100.9586,-3871.0393L14100.9626,-3871.0397L14100.9661,-3871.0401L14100.9661,-3871.0401L14100.9692,-3871.0404L14100.9796,-3871.0415L14100.9797,-3871.0415L14100.9797,-3871.0415L14100.9797,-3871.0415L14100.9899,-3871.0426L14100.9928,-3871.0429L14101.0438,-3871.05L14101.0439,-3871.05L14101.0439,-3871.05L14101.0439,-3871.05L14101.0439,-3871.05L14101.0444,-3871.0501L14101.0445,-3871.0501L14101.0446,-3871.0501L14101.0446,-3871.0501L14101.0446,-3871.0501L14101.0447,-3871.0501L14101.0449,-3871.0501L14101.0745,-3871.0542L14101.0745,-3871.0543L14101.0745,-3871.0543L14101.0989,-3871.0581L14101.0989,-3871.0582L14101.0991,-3871.0582L14101.0992,-3871.0582L14101.0992,-3871.0582L14101.0993,-3871.0582L14101.0993,-3871.0582L14101.0993,-3871.0582L14101.0993,-3871.0582L14101.0996,-3871.0583L14101.0996,-3871.0583L14101.0996,-3871.0583L14101.1274,-3871.0627L14101.1285,-3871.0629L14101.1285,-3871.0629L14101.1285,-3871.0629L14101.1285,-3871.0629L14101.1286,-3871.0629L14101.1311,-3871.0634L14101.1311,-3871.0634L14101.1311,-3871.0634L14101.1313,-3871.0634L14101.1315,-3871.0635L14101.1316,-3871.0635L14101.1316,-3871.0635L14101.1316,-3871.0635L14101.1319,-3871.0635L14101.1322,-3871.0636L14101.1328,-3871.0637L14101.133,-3871.0638L14101.1332,-3871.0638L14101.1343,-3871.064L14101.1542,-3871.0678L14101.1816,-3871.074L14101.2052,-3871.0794L14101.2072,-3871.0798L14101.208,-3871.08L14101.2238,-3871.0834L14101.2268,-3871.0842"/>
<path content="1,宮城交通（株）,ブルーシティ,1.5,1.5,1.5," xlink:title="1" d="M14100.9521,-3871.0386L14100.9546,-3871.0389L14100.9586,-3871.0393L14100.9626,-3871.0397L14100.9661,-3871.0401L14100.9661,-3871.0401L14100.9692,-3871.0404L14100.9796,-3871.0415L14100.9797,-3871.0415L14100.9797,-3871.0415L14100.9797,-3871.0415L14100.9899,-3871.0426L14100.9928,-3871.0429L14101.0438,-3871.05L14101.0439,-3871.05L14101.0439,-3871.05L14101.0439,-3871.05L14101.0439,-3871.05L14101.0444,-3871.0501L14101.0445,-3871.0501L14101.0446,-3871.0501L14101.0446,-3871.0501L14101.0446,-3871.0501L14101.0447,-3871.0501L14101.0449,-3871.0501L14101.0745,-3871.0542L14101.0745,-3871.0543L14101.0745,-3871.0543L14101.0989,-3871.0581L14101.0989,-3871.0582L14101.0991,-3871.0582L14101.0992,-3871.0582L14101.0992,-3871.0582L14101.0993,-3871.0582L14101.0993,-3871.0582L14101.0993,-3871.0582L14101.0993,-3871.0582L14101.0996,-3871.0583L14101.0996,-3871.0583L14101.0996,-3871.0583L14101.1274,-3871.0627L14101.1285,-3871.0629L14101.1285,-3871.0629L14101.1285,-3871.0629L14101.1285,-3871.0629L14101.1286,-3871.0629L14101.1311,-3871.0634L14101.1311,-3871.0634L14101.1311,-3871.0634L14101.1313,-3871.0634L14101.1315,-3871.0635L14101.1316,-3871.0635L14101.1316,-3871.0635L14101.1316,-3871.0635L14101.1319,-3871.0635L14101.1322,-3871.0636L14101.1328,-3871.0637L14101.133,-3871.0638L14101.1332,-3871.0638L14101.1343,-3871.064L14101.1542,-3871.0678L14101.1816,-3871.074L14101.2052,-3871.0794L14101.2072,-3871.0798L14101.208,-3871.08L14101.2238,-3871.0834L14101.2268,-3871.0842"/>
<path content="1,宮城交通（株）,仙台～佐沼線,8.0,8.0,8.0," xlink:title="1" d="M14100.9521,-3871.0386L14100.9546,-3871.0389L14100.9626,-3871.0397L14100.9626,-3871.0397L14100.9626,-3871.0397L14100.9692,-3871.0404L14100.9796,-3871.0415L14100.9797,-3871.0415L14100.9797,-3871.0415L14100.9797,-3871.0415L14100.9899,-3871.0426L14100.9928,-3871.0429L14101.0438,-3871.05L14101.0439,-3871.05L14101.0439,-3871.05L14101.0439,-3871.05L14101.0439,-3871.05L14101.0444,-3871.0501L14101.0445,-3871.0501L14101.0446,-3871.0501L14101.0446,-3871.0501L14101.0446,-3871.0501L14101.0447,-3871.0501L14101.0449,-3871.0501L14101.0745,-3871.0542L14101.0745,-3871.0543L14101.0745,-3871.0543L14101.0989,-3871.0581L14101.0989,-3871.0582L14101.0991,-3871.0582L14101.0992,-3871.0582L14101.0992,-3871.0582L14101.0993,-3871.0582L14101.0993,-3871.0582L14101.0993,-3871.0582L14101.0993,-3871.0582L14101.0996,-3871.0583L14101.0996,-3871.0583L14101.0996,-3871.0583L14101.1274,-3871.0627L14101.1285,-3871.0629L14101.1285,-3871.0629L14101.1285,-3871.0629L14101.1285,-3871.0629L14101.1286,-3871.0629L14101.1311,-3871.0634L14101.1311,-3871.0634L14101.1311,-3871.0634L14101.1313,-3871.0634L14101.1315,-3871.0635L14101.1316,-3871.0635L14101.1316,-3871.0635L14101.1316,-3871.0635L14101.1319,-3871.0635L14101.1322,-3871.0636L14101.133,-3871.0638L14101.1343,-3871.064L14101.1542,-3871.0679L14101.1709,-3871.0716L14101.1709,-3871.0716L14101.171,-3871.0716L14101.1759,-3871.0728L14101.1782,-3871.0733L14101.1816,-3871.074L14101.2052,-3871.0794L14101.2072,-3871.0798L14101.208,-3871.08L14101.2107,-3871.0806L14101.2239,-3871.0835L14101.2268,-3871.0843"/>
<path content="1,宮城交通（株）,仙台～大船渡線,2.0,2.0,2.0," xlink:title="1" d="M14100.9521,-3871.0386L14100.9586,-3871.0393L14100.9626,-3871.0397L14100.9661,-3871.0401L14100.9661,-3871.0401L14100.9929,-3871.0429L14101.0438,-3871.05L14101.0439,-3871.05L14101.0439,-3871.05L14101.0439,-3871.05L14101.0439,-3871.05L14101.0444,-3871.0501L14101.0445,-3871.0501L14101.0446,-3871.0501L14101.0446,-3871.0501L14101.0446,-3871.0501L14101.0447,-3871.0501L14101.0449,-3871.0501L14101.0745,-3871.0542L14101.0745,-3871.0543L14101.0745,-3871.0543L14101.0989,-3871.0581L14101.0989,-3871.0582L14101.0991,-3871.0582L14101.0992,-3871.0582L14101.0992,-3871.0582L14101.0993,-3871.0582L14101.0993,-3871.0582L14101.0993,-3871.0582L14101.0993,-3871.0582L14101.0996,-3871.0583L14101.0996,-3871.0583L14101.0996,-3871.0583L14101.1274,-3871.0627L14101.1285,-3871.0629L14101.1285,-3871.0629L14101.1285,-3871.0629L14101.1285,-3871.0629L14101.1286,-3871.0629L14101.1304,-3871.0633L14101.1311,-3871.0634L14101.1311,-3871.0634L14101.1542,-3871.0678L14101.1816,-3871.074L14101.2052,-3871.0794L14101.2238,-3871.0834L14101.2268,-3871.0842"/>
<path content="1,宮城交通（株）,仙台～栗駒線,2.0,2.0,2.0," xlink:title="1" d="M14100.9521,-3871.0386L14100.9546,-3871.0389L14100.9626,-3871.0397L14100.9692,-3871.0404L14100.9796,-3871.0415L14100.9797,-3871.0415L14100.9797,-3871.0415L14100.9797,-3871.0415L14100.9899,-3871.0426L14100.9928,-3871.0429L14101.0438,-3871.05L14101.0439,-3871.05L14101.0439,-3871.05L14101.0439,-3871.05L14101.0439,-3871.05L14101.0444,-3871.0501L14101.0445,-3871.0501L14101.0446,-3871.0501L14101.0446,-3871.0501L14101.0446,-3871.0501L14101.0447,-3871.0501L14101.0449,-3871.0501L14101.0745,-3871.0542L14101.0745,-3871.0543L14101.0745,-3871.0543L14101.0989,-3871.0581L14101.0989,-3871.0582L14101.0991,-3871.0582L14101.0992,-3871.0582L14101.0992,-3871.0582L14101.0993,-3871.0582L14101.0993,-3871.0582L14101.0993,-3871.0582L14101.0993,-3871.0582L14101.0996,-3871.0583L14101.0996,-3871.0583L14101.0996,-3871.0583L14101.1274,-3871.0627L14101.1285,-3871.0629L14101.1285,-3871.0629L14101.1285,-3871.0629L14101.1285,-3871.0629L14101.1286,-3871.0629L14101.1311,-3871.0634L14101.1311,-3871.0634L14101.1311,-3871.0634L14101.1313,-3871.0634L14101.1315,-3871.0635L14101.1316,-3871.0635L14101.1316,-3871.0635L14101.1316,-3871.0635L14101.1319,-3871.0635L14101.1322,-3871.0636L14101.133,-3871.0638L14101.1343,-3871.064L14101.1542,-3871.0679L14101.1709,-3871.0716L14101.1709,-3871.0716L14101.171,-3871.0716L14101.1759,-3871.0728L14101.1782,-3871.0733L14101.1816,-3871.074L14101.2052,-3871.0794L14101.2072,-3871.0798L14101.208,-3871.08L14101.2107,-3871.0806L14101.2239,-3871.0835L14101.2268,-3871.0843"/>
<path content="1,宮城交通（株）,仙台～気仙沼線,3.0,3.0,3.0," xlink:title="1" d="M14100.9521,-3871.0386L14100.9546,-3871.0389L14100.9626,-3871.0397L14100.9626,-3871.0397L14100.9626,-3871.0397L14100.9692,-3871.0404L14100.9796,-3871.0415L14100.9797,-3871.0415L14100.9797,-3871.0415L14100.9797,-3871.0415L14100.9899,-3871.0426L14100.9928,-3871.0429L14101.0438,-3871.05L14101.0439,-3871.05L14101.0439,-3871.05L14101.0439,-3871.05L14101.0439,-3871.05L14101.0444,-3871.0501L14101.0445,-3871.0501L14101.0446,-3871.0501L14101.0446,-3871.0501L14101.0446,-3871.0501L14101.0447,-3871.0501L14101.0449,-3871.0501L14101.0745,-3871.0542L14101.0745,-3871.0543L14101.0745,-3871.0543L14101.0989,-3871.0581L14101.0989,-3871.0582L14101.0991,-3871.0582L14101.0992,-3871.0582L14101.0992,-3871.0582L14101.0993,-3871.0582L14101.0993,-3871.0582L14101.0993,-3871.0582L14101.0993,-3871.0582L14101.0996,-3871.0583L14101.0996,-3871.0583L14101.0996,-3871.0583L14101.1274,-3871.0627L14101.1285,-3871.0629L14101.1285,-3871.0629L14101.1285,-3871.0629L14101.1285,-3871.0629L14101.1286,-3871.0629L14101.1311,-3871.0634L14101.1311,-3871.0634L14101.1311,-3871.0634L14101.1313,-3871.0634L14101.1315,-3871.0635L14101.1316,-3871.0635L14101.1316,-3871.0635L14101.1316,-3871.0635L14101.1319,-3871.0635L14101.1322,-3871.0636L14101.1328,-3871.0637L14101.133,-3871.0638L14101.1332,-3871.0638L14101.1343,-3871.064L14101.1542,-3871.0679L14101.1709,-3871.0716L14101.1709,-3871.0716L14101.171,-3871.0716L14101.1759,-3871.0728L14101.1782,-3871.0733L14101.1816,-3871.074L14101.2052,-3871.0794L14101.2072,-3871.0798L14101.208,-3871.08L14101.2107,-3871.0806L14101.2239,-3871.0835L14101.2268,-3871.0843"/>
<path content="1,宮城交通（株）,仙台～釜石線,1.0,1.0,1.0," xlink:title="1" d="M14100.9521,-3871.0386L14100.9546,-3871.0389L14100.9586,-3871.0393L14100.9626,-3871.0397L14100.9661,-3871.0401L14100.9661,-3871.0401L14100.9692,-3871.0404L14100.9796,-3871.0415L14100.9797,-3871.0415L14100.9797,-3871.0415L14100.9797,-3871.0415L14100.9899,-3871.0426L14100.9928,-3871.0429L14101.0438,-3871.05L14101.0439,-3871.05L14101.0439,-3871.05L14101.0439,-3871.05L14101.0439,-3871.05L14101.0444,-3871.0501L14101.0445,-3871.0501L14101.0446,-3871.0501L14101.0446,-3871.0501L14101.0446,-3871.0501L14101.0447,-3871.0501L14101.0449,-3871.0501L14101.0745,-3871.0542L14101.0745,-3871.0543L14101.0745,-3871.0543L14101.0989,-3871.0581L14101.0989,-3871.0582L14101.0991,-3871.0582L14101.0992,-3871.0582L14101.0992,-3871.0582L14101.0993,-3871.0582L14101.0993,-3871.0582L14101.0993,-3871.0582L14101.0993,-3871.0582L14101.0996,-3871.0583L14101.0996,-3871.0583L14101.0996,-3871.0583L14101.1274,-3871.0627L14101.1285,-3871.0629L14101.1285,-3871.0629L14101.1285,-3871.0629L14101.1285,-3871.0629L14101.1286,-3871.0629L14101.1311,-3871.0634L14101.1311,-3871.0634L14101.1311,-3871.0634L14101.1313,-3871.0634L14101.1315,-3871.0635L14101.1316,-3871.0635L14101.1316,-3871.0635L14101.1316,-3871.0635L14101.1319,-3871.0635L14101.1322,-3871.0636L14101.1328,-3871.0637L14101.133,-3871.0638L14101.1332,-3871.0638L14101.1343,-3871.064L14101.1542,-3871.0678L14101.1816,-3871.074L14101.2052,-3871.0794L14101.2072,-3871.0798L14101.208,-3871.08L14101.2238,-3871.0834L14101.2268,-3871.0842"/>
<path content="1,宮城交通（株）,仙秋,4.0,4.0,4.0," xlink:title="1" d="M14100.9521,-3871.0386L14100.9546,-3871.0389L14100.9586,-3871.0393L14100.9626,-3871.0397L14100.9661,-3871.0401L14100.9661,-3871.0401L14100.9692,-3871.0404L14100.9796,-3871.0415L14100.9797,-3871.0415L14100.9797,-3871.0415L14100.9797,-3871.0415L14100.9899,-3871.0426L14100.9928,-3871.0429L14101.0438,-3871.05L14101.0439,-3871.05L14101.0439,-3871.05L14101.0439,-3871.05L14101.0439,-3871.05L14101.0444,-3871.0501L14101.0445,-3871.0501L14101.0446,-3871.0501L14101.0446,-3871.0501L14101.0446,-3871.0501L14101.0447,-3871.0501L14101.0449,-3871.0501L14101.0745,-3871.0542L14101.0745,-3871.0543L14101.0745,-3871.0543L14101.0989,-3871.0581L14101.0989,-3871.0582L14101.0991,-3871.0582L14101.0992,-3871.0582L14101.0992,-3871.0582L14101.0993,-3871.0582L14101.0993,-3871.0582L14101.0993,-3871.0582L14101.0993,-3871.0582L14101.0996,-3871.0583L14101.0996,-3871.0583L14101.0996,-3871.0583L14101.1274,-3871.0627L14101.1285,-3871.0629L14101.1285,-3871.0629L14101.1285,-3871.0629L14101.1285,-3871.0629L14101.1286,-3871.0629L14101.1311,-3871.0634L14101.1311,-3871.0634L14101.1311,-3871.0634L14101.1313,-3871.0634L14101.1315,-3871.0635L14101.1316,-3871.0635L14101.1316,-3871.0635L14101.1316,-3871.0635L14101.1319,-3871.0635L14101.1322,-3871.0636L14101.1328,-3871.0637L14101.133,-3871.0638L14101.1332,-3871.0638L14101.1343,-3871.064L14101.1542,-3871.0678L14101.1816,-3871.074L14101.2052,-3871.0794L14101.2072,-3871.0798L14101.208,-3871.08L14101.2238,-3871.0834L14101.2268,-3871.0842"/>
<path content="1,宮城交通（株）,南三陸～仙台線,3.0,3.0,3.0," xlink:title="1" d="M14100.9521,-3871.0386L14100.9546,-3871.0389L14100.9626,-3871.0397L14100.9626,-3871.0397L14100.9626,-3871.0397L14100.9692,-3871.0404L14100.9796,-3871.0415L14100.9797,-3871.0415L14100.9797,-3871.0415L14100.9797,-3871.0415L14100.9899,-3871.0426L14100.9928,-3871.0429L14101.0438,-3871.05L14101.0439,-3871.05L14101.0439,-3871.05L14101.0439,-3871.05L14101.0439,-3871.05L14101.0444,-3871.0501L14101.0445,-3871.0501L14101.0446,-3871.0501L14101.0446,-3871.0501L14101.0446,-3871.0501L14101.0447,-3871.0501L14101.0449,-3871.0501L14101.0745,-3871.0542L14101.0745,-3871.0543L14101.0745,-3871.0543L14101.0989,-3871.0581L14101.0989,-3871.0582L14101.0991,-3871.0582L14101.0992,-3871.0582L14101.0992,-3871.0582L14101.0993,-3871.0582L14101.0993,-3871.0582L14101.0993,-3871.0582L14101.0993,-3871.0582L14101.0996,-3871.0583L14101.0996,-3871.0583L14101.0996,-3871.0583L14101.1274,-3871.0627L14101.1285,-3871.0629L14101.1285,-3871.0629L14101.1285,-3871.0629L14101.1285,-3871.0629L14101.1286,-3871.0629L14101.1311,-3871.0634L14101.1311,-3871.0634L14101.1311,-3871.0634L14101.1313,-3871.0634L14101.1315,-3871.0635L14101.1316,-3871.0635L14101.1316,-3871.0635L14101.1316,-3871.0635L14101.1319,-3871.0635L14101.1322,-3871.0636L14101.133,-3871.0638L14101.1343,-3871.064L14101.1542,-3871.0679L14101.1709,-3871.0716L14101.1709,-3871.0716L14101.171,-3871.0716L14101.1759,-3871.0728L14101.1782,-3871.0733L14101.1816,-3871.074L14101.2052,-3871.0794L14101.2072,-3871.0798L14101.208,-3871.08L14101.2107,-3871.0806L14101.2239,-3871.0835L14101.2268,-3871.0843"/>
<path content="1,小田急シティバス（株）,フローラ号,1.0,1.0,1.0," xlink:title="1" d="M14100.9521,-3871.0386L14100.9586,-3871.0393L14100.9626,-3871.0397L14100.9661,-3871.0401L14100.9661,-3871.0401L14100.9929,-3871.0429L14101.0438,-3871.05L14101.0439,-3871.05L14101.0439,-3871.05L14101.0439,-3871.05L14101.0439,-3871.05L14101.0444,-3871.0501L14101.0445,-3871.0501L14101.0446,-3871.0501L14101.0446,-3871.0501L14101.0446,-3871.0501L14101.0447,-3871.0501L14101.0449,-3871.0501L14101.0745,-3871.0542L14101.0745,-3871.0543L14101.0745,-3871.0543L14101.0989,-3871.0581L14101.0989,-3871.0582L14101.0991,-3871.0582L14101.0992,-3871.0582L14101.0992,-3871.0582L14101.0993,-3871.0582L14101.0993,-3871.0582L14101.0993,-3871.0582L14101.0993,-3871.0582L14101.0996,-3871.0583L14101.0996,-3871.0583L14101.0996,-3871.0583L14101.1274,-3871.0627L14101.1285,-3871.0629L14101.1285,-3871.0629L14101.1285,-3871.0629L14101.1285,-3871.0629L14101.1286,-3871.0629L14101.1304,-3871.0633L14101.1311,-3871.0634L14101.1311,-3871.0634L14101.1542,-3871.0678L14101.1816,-3871.074L14101.2052,-3871.0794L14101.2238,-3871.0834L14101.2268,-3871.0842"/>
<path content="1,小田急バス（株）,フローラ号,1.0,1.0,1.0," xlink:title="1" d="M14100.9521,-3871.0386L14100.9586,-3871.0393L14100.9626,-3871.0397L14100.9661,-3871.0401L14100.9661,-3871.0401L14100.9929,-3871.0429L14101.0438,-3871.05L14101.0439,-3871.05L14101.0439,-3871.05L14101.0439,-3871.05L14101.0439,-3871.05L14101.0444,-3871.0501L14101.0445,-3871.0501L14101.0446,-3871.0501L14101.0446,-3871.0501L14101.0446,-3871.0501L14101.0447,-3871.0501L14101.0449,-3871.0501L14101.0745,-3871.0542L14101.0745,-3871.0543L14101.0745,-3871.0543L14101.0989,-3871.0581L14101.0989,-3871.0582L14101.0991,-3871.0582L14101.0992,-3871.0582L14101.0992,-3871.0582L14101.0993,-3871.0582L14101.0993,-3871.0582L14101.0993,-3871.0582L14101.0993,-3871.0582L14101.0996,-3871.0583L14101.0996,-3871.0583L14101.0996,-3871.0583L14101.1274,-3871.0627L14101.1285,-3871.0629L14101.1285,-3871.0629L14101.1285,-3871.0629L14101.1285,-3871.0629L14101.1286,-3871.0629L14101.1304,-3871.0633L14101.1311,-3871.0634L14101.1311,-3871.0634L14101.1542,-3871.0678L14101.1816,-3871.074L14101.2052,-3871.0794L14101.2238,-3871.0834L14101.2268,-3871.0842"/>
<path content="1,岩手急行バス（株）,一ノ関仙台線,19.0,19.0,19.0," xlink:title="1" d="M14100.9521,-3871.0386L14100.9546,-3871.0389L14100.9626,-3871.0397L14100.9626,-3871.0397L14100.9626,-3871.0397L14100.9692,-3871.0404L14100.9796,-3871.0415L14100.9797,-3871.0415L14100.9797,-3871.0415L14100.9797,-3871.0415L14100.9899,-3871.0426L14100.9928,-3871.0429L14101.0438,-3871.05L14101.0439,-3871.05L14101.0439,-3871.05L14101.0439,-3871.05L14101.0439,-3871.05L14101.0444,-3871.0501L14101.0445,-3871.0501L14101.0446,-3871.0501L14101.0446,-3871.0501L14101.0446,-3871.0501L14101.0447,-3871.0501L14101.0449,-3871.0501L14101.0745,-3871.0542L14101.0745,-3871.0543L14101.0745,-3871.0543L14101.0989,-3871.0581L14101.0989,-3871.0582L14101.0991,-3871.0582L14101.0992,-3871.0582L14101.0992,-3871.0582L14101.0993,-3871.0582L14101.0993,-3871.0582L14101.0993,-3871.0582L14101.0993,-3871.0582L14101.0996,-3871.0583L14101.0996,-3871.0583L14101.0996,-3871.0583L14101.1274,-3871.0627L14101.1285,-3871.0629L14101.1285,-3871.0629L14101.1285,-3871.0629L14101.1285,-3871.0629L14101.1286,-3871.0629L14101.1311,-3871.0634L14101.1311,-3871.0634L14101.1311,-3871.0634L14101.1313,-3871.0634L14101.1315,-3871.0635L14101.1316,-3871.0635L14101.1316,-3871.0635L14101.1316,-3871.0635L14101.1319,-3871.0635L14101.1322,-3871.0636L14101.1328,-3871.0637L14101.133,-3871.0638L14101.1332,-3871.0638L14101.1343,-3871.064L14101.1542,-3871.0679L14101.1709,-3871.0716L14101.1709,-3871.0716L14101.171,-3871.0716L14101.1759,-3871.0728L14101.1782,-3871.0733L14101.1816,-3871.074L14101.2052,-3871.0794L14101.2072,-3871.0798L14101.208,-3871.08L14101.2107,-3871.0806L14101.2239,-3871.0835L14101.2268,-3871.0843"/>
<path content="1,岩手県交通（株）,けせんライナー,1.0,1.0,1.0," xlink:title="1" d="M14100.9521,-3871.0386L14100.9586,-3871.0393L14100.9626,-3871.0397L14100.9661,-3871.0401L14100.9661,-3871.0401L14100.9929,-3871.0429L14101.0438,-3871.05L14101.0439,-3871.05L14101.0439,-3871.05L14101.0439,-3871.05L14101.0439,-3871.05L14101.0444,-3871.0501L14101.0445,-3871.0501L14101.0446,-3871.0501L14101.0446,-3871.0501L14101.0446,-3871.0501L14101.0447,-3871.0501L14101.0449,-3871.0501L14101.0745,-3871.0542L14101.0745,-3871.0543L14101.0745,-3871.0543L14101.0989,-3871.0581L14101.0989,-3871.0582L14101.0991,-3871.0582L14101.0992,-3871.0582L14101.0992,-3871.0582L14101.0993,-3871.0582L14101.0993,-3871.0582L14101.0993,-3871.0582L14101.0993,-3871.0582L14101.0996,-3871.0583L14101.0996,-3871.0583L14101.0996,-3871.0583L14101.1274,-3871.0627L14101.1285,-3871.0629L14101.1285,-3871.0629L14101.1285,-3871.0629L14101.1285,-3871.0629L14101.1286,-3871.0629L14101.1304,-3871.0633L14101.1311,-3871.0634L14101.1311,-3871.0634L14101.1542,-3871.0678L14101.1816,-3871.074L14101.2052,-3871.0794L14101.2238,-3871.0834L14101.2268,-3871.0842"/>
<path content="1,岩手県交通（株）,けんじライナー,2.0,2.0,2.0," xlink:title="1" d="M14100.9521,-3871.0386L14100.9546,-3871.0389L14100.9626,-3871.0397L14100.9626,-3871.0397L14100.9626,-3871.0397L14100.9692,-3871.0404L14100.9796,-3871.0415L14100.9797,-3871.0415L14100.9797,-3871.0415L14100.9797,-3871.0415L14100.9899,-3871.0426L14100.9928,-3871.0429L14101.0438,-3871.05L14101.0439,-3871.05L14101.0439,-3871.05L14101.0439,-3871.05L14101.0439,-3871.05L14101.0444,-3871.0501L14101.0445,-3871.0501L14101.0446,-3871.0501L14101.0446,-3871.0501L14101.0446,-3871.0501L14101.0447,-3871.0501L14101.0449,-3871.0501L14101.0745,-3871.0542L14101.0745,-3871.0543L14101.0745,-3871.0543L14101.0989,-3871.0581L14101.0989,-3871.0582L14101.0991,-3871.0582L14101.0992,-3871.0582L14101.0992,-3871.0582L14101.0993,-3871.0582L14101.0993,-3871.0582L14101.0993,-3871.0582L14101.0993,-3871.0582L14101.0996,-3871.0583L14101.0996,-3871.0583L14101.0996,-3871.0583L14101.1274,-3871.0627L14101.1285,-3871.0629L14101.1285,-3871.0629L14101.1285,-3871.0629L14101.1285,-3871.0629L14101.1286,-3871.0629L14101.1311,-3871.0634L14101.1311,-3871.0634L14101.1311,-3871.0634L14101.1313,-3871.0634L14101.1315,-3871.0635L14101.1316,-3871.0635L14101.1316,-3871.0635L14101.1316,-3871.0635L14101.1319,-3871.0635L14101.1322,-3871.0636L14101.1328,-3871.0637L14101.133,-3871.0638L14101.1332,-3871.0638L14101.1343,-3871.064L14101.1542,-3871.0679L14101.1709,-3871.0716L14101.1709,-3871.0716L14101.171,-3871.0716L14101.1759,-3871.0728L14101.1782,-3871.0733L14101.1816,-3871.074L14101.2052,-3871.0794L14101.2072,-3871.0798L14101.208,-3871.08L14101.2107,-3871.0806L14101.2239,-3871.0835L14101.2268,-3871.0843"/>
<path content="1,岩手県交通（株）,アーバン号,3.2,4.0,4.0," xlink:title="1" d="M14100.9521,-3871.0386L14100.9546,-3871.0389L14100.9626,-3871.0397L14100.9626,-3871.0397L14100.9626,-3871.0397L14100.9692,-3871.0404L14100.9796,-3871.0415L14100.9797,-3871.0415L14100.9797,-3871.0415L14100.9797,-3871.0415L14100.9899,-3871.0426L14100.9928,-3871.0429L14101.0438,-3871.05L14101.0439,-3871.05L14101.0439,-3871.05L14101.0439,-3871.05L14101.0439,-3871.05L14101.0444,-3871.0501L14101.0445,-3871.0501L14101.0446,-3871.0501L14101.0446,-3871.0501L14101.0446,-3871.0501L14101.0447,-3871.0501L14101.0449,-3871.0501L14101.0745,-3871.0542L14101.0745,-3871.0543L14101.0745,-3871.0543L14101.0989,-3871.0581L14101.0989,-3871.0582L14101.0991,-3871.0582L14101.0992,-3871.0582L14101.0992,-3871.0582L14101.0993,-3871.0582L14101.0993,-3871.0582L14101.0993,-3871.0582L14101.0993,-3871.0582L14101.0996,-3871.0583L14101.0996,-3871.0583L14101.0996,-3871.0583L14101.1274,-3871.0627L14101.1285,-3871.0629L14101.1285,-3871.0629L14101.1285,-3871.0629L14101.1285,-3871.0629L14101.1286,-3871.0629L14101.1311,-3871.0634L14101.1311,-3871.0634L14101.1311,-3871.0634L14101.1313,-3871.0634L14101.1315,-3871.0635L14101.1316,-3871.0635L14101.1316,-3871.0635L14101.1316,-3871.0635L14101.1319,-3871.0635L14101.1322,-3871.0636L14101.1328,-3871.0637L14101.133,-3871.0638L14101.1332,-3871.0638L14101.1343,-3871.064L14101.1542,-3871.0679L14101.1709,-3871.0716L14101.1709,-3871.0716L14101.171,-3871.0716L14101.1759,-3871.0728L14101.1782,-3871.0733L14101.1816,-3871.074L14101.2052,-3871.0794L14101.2072,-3871.0798L14101.208,-3871.08L14101.2107,-3871.0806L14101.2239,-3871.0835L14101.2268,-3871.0843"/>
<path content="1,岩手県交通（株）,イーハトーブ号,1.0,1.0,1.0," xlink:title="1" d="M14100.9521,-3871.0386L14100.9586,-3871.0393L14100.9626,-3871.0397L14100.9661,-3871.0401L14100.9661,-3871.0401L14100.9929,-3871.0429L14101.0438,-3871.05L14101.0439,-3871.05L14101.0439,-3871.05L14101.0439,-3871.05L14101.0439,-3871.05L14101.0444,-3871.0501L14101.0445,-3871.0501L14101.0446,-3871.0501L14101.0446,-3871.0501L14101.0446,-3871.0501L14101.0447,-3871.0501L14101.0449,-3871.0501L14101.0745,-3871.0542L14101.0745,-3871.0543L14101.0745,-3871.0543L14101.0989,-3871.0581L14101.0989,-3871.0582L14101.0991,-3871.0582L14101.0992,-3871.0582L14101.0992,-3871.0582L14101.0993,-3871.0582L14101.0993,-3871.0582L14101.0993,-3871.0582L14101.0993,-3871.0582L14101.0996,-3871.0583L14101.0996,-3871.0583L14101.0996,-3871.0583L14101.1274,-3871.0627L14101.1285,-3871.0629L14101.1285,-3871.0629L14101.1285,-3871.0629L14101.1285,-3871.0629L14101.1286,-3871.0629L14101.1304,-3871.0633L14101.1311,-3871.0634L14101.1311,-3871.0634L14101.1542,-3871.0678L14101.1816,-3871.074L14101.2052,-3871.0794L14101.2238,-3871.0834L14101.2268,-3871.0842"/>
<path content="1,岩手県交通（株）,ドリーム盛岡（らくちん）号,2.3,3.0,3.0," xlink:title="1" d="M14100.9521,-3871.0386L14100.9586,-3871.0393L14100.9626,-3871.0397L14100.9661,-3871.0401L14100.9661,-3871.0401L14100.9929,-3871.0429L14101.0438,-3871.05L14101.0439,-3871.05L14101.0439,-3871.05L14101.0439,-3871.05L14101.0439,-3871.05L14101.0444,-3871.0501L14101.0445,-3871.0501L14101.0446,-3871.0501L14101.0446,-3871.0501L14101.0446,-3871.0501L14101.0447,-3871.0501L14101.0449,-3871.0501L14101.0745,-3871.0542L14101.0745,-3871.0543L14101.0745,-3871.0543L14101.0989,-3871.0581L14101.0989,-3871.0582L14101.0991,-3871.0582L14101.0992,-3871.0582L14101.0992,-3871.0582L14101.0993,-3871.0582L14101.0993,-3871.0582L14101.0993,-3871.0582L14101.0993,-3871.0582L14101.0996,-3871.0583L14101.0996,-3871.0583L14101.0996,-3871.0583L14101.1274,-3871.0627L14101.1285,-3871.0629L14101.1285,-3871.0629L14101.1285,-3871.0629L14101.1285,-3871.0629L14101.1286,-3871.0629L14101.1304,-3871.0633L14101.1311,-3871.0634L14101.1311,-3871.0634L14101.1542,-3871.0678L14101.1816,-3871.074L14101.2052,-3871.0794L14101.2238,-3871.0834L14101.2268,-3871.0842"/>
<path content="1,岩手県交通（株）,一関・仙台線,0.5,0.5,0.5," xlink:title="1" d="M14101.2268,-3871.0843L14101.2239,-3871.0835L14101.2107,-3871.0806L14101.208,-3871.08L14101.2072,-3871.0798L14101.2052,-3871.0794L14101.1816,-3871.074L14101.1782,-3871.0733L14101.1759,-3871.0728L14101.171,-3871.0716L14101.1709,-3871.0716L14101.1709,-3871.0716L14101.1542,-3871.0679L14101.1343,-3871.064L14101.1332,-3871.0638L14101.133,-3871.0638L14101.1328,-3871.0637L14101.1322,-3871.0636L14101.1319,-3871.0635L14101.1316,-3871.0635L14101.1316,-3871.0635L14101.1316,-3871.0635L14101.1315,-3871.0635L14101.1313,-3871.0634L14101.1311,-3871.0634L14101.1311,-3871.0634L14101.1311,-3871.0634L14101.1286,-3871.0629L14101.1285,-3871.0629L14101.1285,-3871.0629L14101.1285,-3871.0629L14101.1285,-3871.0629L14101.1274,-3871.0627L14101.0996,-3871.0583L14101.0996,-3871.0583L14101.0996,-3871.0583L14101.0993,-3871.0582L14101.0993,-3871.0582L14101.0993,-3871.0582L14101.0993,-3871.0582L14101.0992,-3871.0582L14101.0992,-3871.0582L14101.0991,-3871.0582L14101.0989,-3871.0582L14101.0989,-3871.0581L14101.0745,-3871.0543L14101.0745,-3871.0543L14101.0745,-3871.0542L14101.0449,-3871.0501L14101.0447,-3871.0501L14101.0446,-3871.0501L14101.0446,-3871.0501L14101.0446,-3871.0501L14101.0445,-3871.0501L14101.0444,-3871.0501L14101.0439,-3871.05L14101.0439,-3871.05L14101.0439,-3871.05L14101.0439,-3871.05L14101.0438,-3871.05L14100.9928,-3871.0429L14100.9899,-3871.0426L14100.9797,-3871.0415L14100.9797,-3871.0415L14100.9797,-3871.0415L14100.9796,-3871.0415L14100.9692,-3871.0404L14100.9626,-3871.0397L14100.9626,-3871.0397L14100.9626,-3871.0397L14100.9546,-3871.0389L14100.9521,-3871.0386"/>
<path content="1,岩手県交通（株）,大船渡・仙台線,2.0,2.0,2.0," xlink:title="1" d="M14101.2268,-3871.0843L14101.2239,-3871.0835L14101.2107,-3871.0806L14101.208,-3871.08L14101.2072,-3871.0798L14101.2052,-3871.0794L14101.1816,-3871.074L14101.1782,-3871.0733L14101.1759,-3871.0728L14101.171,-3871.0716L14101.1709,-3871.0716L14101.1709,-3871.0716L14101.1542,-3871.0679L14101.1343,-3871.064L14101.1332,-3871.0638L14101.133,-3871.0638L14101.1328,-3871.0637L14101.1322,-3871.0636L14101.1319,-3871.0635L14101.1316,-3871.0635L14101.1316,-3871.0635L14101.1316,-3871.0635L14101.1315,-3871.0635L14101.1313,-3871.0634L14101.1311,-3871.0634L14101.1311,-3871.0634L14101.1311,-3871.0634L14101.1286,-3871.0629L14101.1285,-3871.0629L14101.1285,-3871.0629L14101.1285,-3871.0629L14101.1285,-3871.0629L14101.1274,-3871.0627L14101.0996,-3871.0583L14101.0996,-3871.0583L14101.0996,-3871.0583L14101.0993,-3871.0582L14101.0993,-3871.0582L14101.0993,-3871.0582L14101.0993,-3871.0582L14101.0992,-3871.0582L14101.0992,-3871.0582L14101.0991,-3871.0582L14101.0989,-3871.0582L14101.0989,-3871.0581L14101.0745,-3871.0543L14101.0745,-3871.0543L14101.0745,-3871.0542L14101.0449,-3871.0501L14101.0447,-3871.0501L14101.0446,-3871.0501L14101.0446,-3871.0501L14101.0446,-3871.0501L14101.0445,-3871.0501L14101.0444,-3871.0501L14101.0439,-3871.05L14101.0439,-3871.05L14101.0439,-3871.05L14101.0439,-3871.05L14101.0438,-3871.05L14100.9928,-3871.0429L14100.9899,-3871.0426L14100.9797,-3871.0415L14100.9797,-3871.0415L14100.9797,-3871.0415L14100.9796,-3871.0415L14100.9692,-3871.0404L14100.9626,-3871.0397L14100.9626,-3871.0397L14100.9626,-3871.0397L14100.9546,-3871.0389L14100.9521,-3871.0386"/>
<path content="1,岩手県交通（株）,平泉中尊寺号,0.5,0.5,0.5," xlink:title="1" d="M14100.9521,-3871.0386L14100.9546,-3871.0389L14100.9626,-3871.0397L14100.9626,-3871.0397L14100.9626,-3871.0397L14100.9692,-3871.0404L14100.9796,-3871.0415L14100.9797,-3871.0415L14100.9797,-3871.0415L14100.9797,-3871.0415L14100.9899,-3871.0426L14100.9928,-3871.0429L14101.0438,-3871.05L14101.0439,-3871.05L14101.0439,-3871.05L14101.0439,-3871.05L14101.0439,-3871.05L14101.0444,-3871.0501L14101.0445,-3871.0501L14101.0446,-3871.0501L14101.0446,-3871.0501L14101.0446,-3871.0501L14101.0447,-3871.0501L14101.0449,-3871.0501L14101.0745,-3871.0542L14101.0745,-3871.0543L14101.0745,-3871.0543L14101.0989,-3871.0581L14101.0989,-3871.0582L14101.0991,-3871.0582L14101.0992,-3871.0582L14101.0992,-3871.0582L14101.0993,-3871.0582L14101.0993,-3871.0582L14101.0993,-3871.0582L14101.0993,-3871.0582L14101.0996,-3871.0583L14101.0996,-3871.0583L14101.0996,-3871.0583L14101.1274,-3871.0627L14101.1285,-3871.0629L14101.1285,-3871.0629L14101.1285,-3871.0629L14101.1285,-3871.0629L14101.1286,-3871.0629L14101.1311,-3871.0634L14101.1311,-3871.0634L14101.1311,-3871.0634L14101.1313,-3871.0634L14101.1315,-3871.0635L14101.1316,-3871.0635L14101.1316,-3871.0635L14101.1316,-3871.0635L14101.1319,-3871.0635L14101.1322,-3871.0636L14101.1328,-3871.0637L14101.133,-3871.0638L14101.1332,-3871.0638L14101.1343,-3871.064L14101.1542,-3871.0679L14101.1709,-3871.0716L14101.1709,-3871.0716L14101.171,-3871.0716L14101.1759,-3871.0728L14101.1782,-3871.0733L14101.1816,-3871.074L14101.2052,-3871.0794L14101.2072,-3871.0798L14101.208,-3871.08L14101.2107,-3871.0806L14101.2239,-3871.0835L14101.2268,-3871.0843"/>
<path content="1,岩手県交通（株）,江刺・仙台線,2.0,2.0,2.0," xlink:title="1" d="M14100.9521,-3871.0386L14100.9546,-3871.0389L14100.9626,-3871.0397L14100.9626,-3871.0397L14100.9626,-3871.0397L14100.9692,-3871.0404L14100.9796,-3871.0415L14100.9797,-3871.0415L14100.9797,-3871.0415L14100.9797,-3871.0415L14100.9899,-3871.0426L14100.9928,-3871.0429L14101.0438,-3871.05L14101.0439,-3871.05L14101.0439,-3871.05L14101.0439,-3871.05L14101.0439,-3871.05L14101.0444,-3871.0501L14101.0445,-3871.0501L14101.0446,-3871.0501L14101.0446,-3871.0501L14101.0446,-3871.0501L14101.0447,-3871.0501L14101.0449,-3871.0501L14101.0745,-3871.0542L14101.0745,-3871.0543L14101.0745,-3871.0543L14101.0989,-3871.0581L14101.0989,-3871.0582L14101.0991,-3871.0582L14101.0992,-3871.0582L14101.0992,-3871.0582L14101.0993,-3871.0582L14101.0993,-3871.0582L14101.0993,-3871.0582L14101.0993,-3871.0582L14101.0996,-3871.0583L14101.0996,-3871.0583L14101.0996,-3871.0583L14101.1274,-3871.0627L14101.1285,-3871.0629L14101.1285,-3871.0629L14101.1285,-3871.0629L14101.1285,-3871.0629L14101.1286,-3871.0629L14101.1311,-3871.0634L14101.1311,-3871.0634L14101.1311,-3871.0634L14101.1313,-3871.0634L14101.1315,-3871.0635L14101.1316,-3871.0635L14101.1316,-3871.0635L14101.1316,-3871.0635L14101.1319,-3871.0635L14101.1322,-3871.0636L14101.1328,-3871.0637L14101.133,-3871.0638L14101.1332,-3871.0638L14101.1343,-3871.064L14101.1542,-3871.0679L14101.1709,-3871.0716L14101.1709,-3871.0716L14101.171,-3871.0716L14101.1759,-3871.0728L14101.1782,-3871.0733L14101.1816,-3871.074L14101.2052,-3871.0794L14101.2072,-3871.0798L14101.208,-3871.08L14101.2107,-3871.0806L14101.2239,-3871.0835L14101.2268,-3871.0843"/>
<path content="1,岩手県交通（株）,盛岡・横浜線,1.0,1.0,1.0," xlink:title="1" d="M14100.9521,-3871.0386L14100.9586,-3871.0393L14100.9626,-3871.0397L14100.9661,-3871.0401L14100.9661,-3871.0401L14100.9929,-3871.0429L14101.0438,-3871.05L14101.0439,-3871.05L14101.0439,-3871.05L14101.0439,-3871.05L14101.0439,-3871.05L14101.0444,-3871.0501L14101.0445,-3871.0501L14101.0446,-3871.0501L14101.0446,-3871.0501L14101.0446,-3871.0501L14101.0447,-3871.0501L14101.0449,-3871.0501L14101.0745,-3871.0542L14101.0745,-3871.0543L14101.0745,-3871.0543L14101.0989,-3871.0581L14101.0989,-3871.0582L14101.0991,-3871.0582L14101.0992,-3871.0582L14101.0992,-3871.0582L14101.0993,-3871.0582L14101.0993,-3871.0582L14101.0993,-3871.0582L14101.0993,-3871.0582L14101.0996,-3871.0583L14101.0996,-3871.0583L14101.0996,-3871.0583L14101.1274,-3871.0627L14101.1285,-3871.0629L14101.1285,-3871.0629L14101.1285,-3871.0629L14101.1285,-3871.0629L14101.1286,-3871.0629L14101.1304,-3871.0633L14101.1311,-3871.0634L14101.1311,-3871.0634L14101.1542,-3871.0678L14101.1816,-3871.074L14101.2052,-3871.0794L14101.2238,-3871.0834L14101.2268,-3871.0842"/>
<path content="1,岩手県交通（株）,遠野・釜石号,1.0,1.0,1.0," xlink:title="1" d="M14100.9521,-3871.0386L14100.9586,-3871.0393L14100.9626,-3871.0397L14100.9661,-3871.0401L14100.9661,-3871.0401L14100.9929,-3871.0429L14101.0438,-3871.05L14101.0439,-3871.05L14101.0439,-3871.05L14101.0439,-3871.05L14101.0439,-3871.05L14101.0444,-3871.0501L14101.0445,-3871.0501L14101.0446,-3871.0501L14101.0446,-3871.0501L14101.0446,-3871.0501L14101.0447,-3871.0501L14101.0449,-3871.0501L14101.0745,-3871.0542L14101.0745,-3871.0543L14101.0745,-3871.0543L14101.0989,-3871.0581L14101.0989,-3871.0582L14101.0991,-3871.0582L14101.0992,-3871.0582L14101.0992,-3871.0582L14101.0993,-3871.0582L14101.0993,-3871.0582L14101.0993,-3871.0582L14101.0993,-3871.0582L14101.0996,-3871.0583L14101.0996,-3871.0583L14101.0996,-3871.0583L14101.1274,-3871.0627L14101.1285,-3871.0629L14101.1285,-3871.0629L14101.1285,-3871.0629L14101.1285,-3871.0629L14101.1286,-3871.0629L14101.1304,-3871.0633L14101.1311,-3871.0634L14101.1311,-3871.0634L14101.1542,-3871.0678L14101.1816,-3871.074L14101.2052,-3871.0794L14101.2238,-3871.0834L14101.2268,-3871.0842"/>
<path content="1,岩手県交通（株）,釜石・仙台線,1.0,1.0,1.0," xlink:title="1" d="M14101.2268,-3871.0843L14101.2239,-3871.0835L14101.2107,-3871.0806L14101.208,-3871.08L14101.2072,-3871.0798L14101.2052,-3871.0794L14101.1816,-3871.074L14101.1782,-3871.0733L14101.1759,-3871.0728L14101.171,-3871.0716L14101.1709,-3871.0716L14101.1709,-3871.0716L14101.1542,-3871.0679L14101.1343,-3871.064L14101.1332,-3871.0638L14101.133,-3871.0638L14101.1328,-3871.0637L14101.1322,-3871.0636L14101.1319,-3871.0635L14101.1316,-3871.0635L14101.1316,-3871.0635L14101.1316,-3871.0635L14101.1315,-3871.0635L14101.1313,-3871.0634L14101.1311,-3871.0634L14101.1311,-3871.0634L14101.1311,-3871.0634L14101.1286,-3871.0629L14101.1285,-3871.0629L14101.1285,-3871.0629L14101.1285,-3871.0629L14101.1285,-3871.0629L14101.1274,-3871.0627L14101.0996,-3871.0583L14101.0996,-3871.0583L14101.0996,-3871.0583L14101.0993,-3871.0582L14101.0993,-3871.0582L14101.0993,-3871.0582L14101.0993,-3871.0582L14101.0992,-3871.0582L14101.0992,-3871.0582L14101.0991,-3871.0582L14101.0989,-3871.0582L14101.0989,-3871.0581L14101.0745,-3871.0543L14101.0745,-3871.0543L14101.0745,-3871.0542L14101.0449,-3871.0501L14101.0447,-3871.0501L14101.0446,-3871.0501L14101.0446,-3871.0501L14101.0446,-3871.0501L14101.0445,-3871.0501L14101.0444,-3871.0501L14101.0439,-3871.05L14101.0439,-3871.05L14101.0439,-3871.05L14101.0439,-3871.05L14101.0438,-3871.05L14100.9928,-3871.0429L14100.9899,-3871.0426L14100.9797,-3871.0415L14100.9797,-3871.0415L14100.9797,-3871.0415L14100.9796,-3871.0415L14100.9692,-3871.0404L14100.9626,-3871.0397L14100.9626,-3871.0397L14100.9626,-3871.0397L14100.9546,-3871.0389L14100.9521,-3871.0386"/>
<path content="1,岩手県北自動車（株）,BEAM-1　宮古・盛岡南⇔浜松町・品川,1.0,1.0,1.0," xlink:title="1" d="M14100.9521,-3871.0386L14100.9586,-3871.0393L14100.9626,-3871.0397L14100.9661,-3871.0401L14100.9661,-3871.0401L14100.9929,-3871.0429L14101.0438,-3871.05L14101.0439,-3871.05L14101.0439,-3871.05L14101.0439,-3871.05L14101.0439,-3871.05L14101.0444,-3871.0501L14101.0445,-3871.0501L14101.0446,-3871.0501L14101.0446,-3871.0501L14101.0446,-3871.0501L14101.0447,-3871.0501L14101.0449,-3871.0501L14101.0745,-3871.0542L14101.0745,-3871.0543L14101.0745,-3871.0543L14101.0989,-3871.0581L14101.0989,-3871.0582L14101.0991,-3871.0582L14101.0992,-3871.0582L14101.0992,-3871.0582L14101.0993,-3871.0582L14101.0993,-3871.0582L14101.0993,-3871.0582L14101.0993,-3871.0582L14101.0996,-3871.0583L14101.0996,-3871.0583L14101.0996,-3871.0583L14101.1274,-3871.0627L14101.1285,-3871.0629L14101.1285,-3871.0629L14101.1285,-3871.0629L14101.1285,-3871.0629L14101.1286,-3871.0629L14101.1304,-3871.0633L14101.1311,-3871.0634L14101.1311,-3871.0634L14101.1542,-3871.0678L14101.1816,-3871.074L14101.2052,-3871.0794L14101.2238,-3871.0834L14101.2268,-3871.0842"/>
<path content="1,岩手県北自動車（株）,アーバン号　盛岡⇔仙台,3.2,4.0,4.0," xlink:title="1" d="M14100.9521,-3871.0386L14100.9546,-3871.0389L14100.9626,-3871.0397L14100.9626,-3871.0397L14100.9626,-3871.0397L14100.9692,-3871.0404L14100.9796,-3871.0415L14100.9797,-3871.0415L14100.9797,-3871.0415L14100.9797,-3871.0415L14100.9899,-3871.0426L14100.9928,-3871.0429L14101.0438,-3871.05L14101.0439,-3871.05L14101.0439,-3871.05L14101.0439,-3871.05L14101.0439,-3871.05L14101.0444,-3871.0501L14101.0445,-3871.0501L14101.0446,-3871.0501L14101.0446,-3871.0501L14101.0446,-3871.0501L14101.0447,-3871.0501L14101.0449,-3871.0501L14101.0745,-3871.0542L14101.0745,-3871.0543L14101.0745,-3871.0543L14101.0989,-3871.0581L14101.0989,-3871.0582L14101.0991,-3871.0582L14101.0992,-3871.0582L14101.0992,-3871.0582L14101.0993,-3871.0582L14101.0993,-3871.0582L14101.0993,-3871.0582L14101.0993,-3871.0582L14101.0996,-3871.0583L14101.0996,-3871.0583L14101.0996,-3871.0583L14101.1274,-3871.0627L14101.1285,-3871.0629L14101.1285,-3871.0629L14101.1285,-3871.0629L14101.1285,-3871.0629L14101.1286,-3871.0629L14101.1311,-3871.0634L14101.1311,-3871.0634L14101.1311,-3871.0634L14101.1313,-3871.0634L14101.1315,-3871.0635L14101.1316,-3871.0635L14101.1316,-3871.0635L14101.1316,-3871.0635L14101.1319,-3871.0635L14101.1322,-3871.0636L14101.1328,-3871.0637L14101.133,-3871.0638L14101.1332,-3871.0638L14101.1343,-3871.064L14101.1542,-3871.0679L14101.1709,-3871.0716L14101.1709,-3871.0716L14101.171,-3871.0716L14101.1759,-3871.0728L14101.1782,-3871.0733L14101.1816,-3871.074L14101.2052,-3871.0794L14101.2072,-3871.0798L14101.208,-3871.08L14101.2107,-3871.0806L14101.2239,-3871.0835L14101.2268,-3871.0843"/>
<path content="1,弘南バス（株）,アップル号,1.0,1.0,1.0," xlink:title="1" d="M14101.2268,-3871.0842L14101.2238,-3871.0834L14101.2052,-3871.0794L14101.1816,-3871.074L14101.1542,-3871.0678L14101.1311,-3871.0634L14101.1311,-3871.0634L14101.1304,-3871.0633L14101.1286,-3871.0629L14101.1285,-3871.0629L14101.1285,-3871.0629L14101.1285,-3871.0629L14101.1285,-3871.0629L14101.1274,-3871.0627L14101.0996,-3871.0583L14101.0996,-3871.0583L14101.0996,-3871.0583L14101.0993,-3871.0582L14101.0993,-3871.0582L14101.0993,-3871.0582L14101.0993,-3871.0582L14101.0992,-3871.0582L14101.0992,-3871.0582L14101.0991,-3871.0582L14101.0989,-3871.0582L14101.0989,-3871.0581L14101.0745,-3871.0543L14101.0745,-3871.0543L14101.0745,-3871.0542L14101.0449,-3871.0501L14101.0447,-3871.0501L14101.0446,-3871.0501L14101.0446,-3871.0501L14101.0446,-3871.0501L14101.0445,-3871.0501L14101.0444,-3871.0501L14101.0439,-3871.05L14101.0439,-3871.05L14101.0439,-3871.05L14101.0439,-3871.05L14101.0438,-3871.05L14100.9929,-3871.0429L14100.9661,-3871.0401L14100.9661,-3871.0401L14100.9626,-3871.0397L14100.9586,-3871.0393L14100.9521,-3871.0386"/>
<path content="1,弘南バス（株）,キャッスル号,6.0,6.0,6.0," xlink:title="1" d="M14101.2268,-3871.0842L14101.2238,-3871.0834L14101.208,-3871.08L14101.2072,-3871.0798L14101.2052,-3871.0794L14101.1816,-3871.074L14101.1542,-3871.0678L14101.1343,-3871.064L14101.133,-3871.0638L14101.1322,-3871.0636L14101.1319,-3871.0635L14101.1316,-3871.0635L14101.1316,-3871.0635L14101.1316,-3871.0635L14101.1315,-3871.0635L14101.1313,-3871.0634L14101.1311,-3871.0634L14101.1311,-3871.0634L14101.1311,-3871.0634L14101.1286,-3871.0629L14101.1285,-3871.0629L14101.1285,-3871.0629L14101.1285,-3871.0629L14101.1285,-3871.0629L14101.1274,-3871.0627L14101.0996,-3871.0583L14101.0996,-3871.0583L14101.0996,-3871.0583L14101.0993,-3871.0582L14101.0993,-3871.0582L14101.0993,-3871.0582L14101.0993,-3871.0582L14101.0992,-3871.0582L14101.0992,-3871.0582L14101.0991,-3871.0582L14101.0989,-3871.0582L14101.0989,-3871.0581L14101.0745,-3871.0543L14101.0745,-3871.0543L14101.0745,-3871.0542L14101.0449,-3871.0501L14101.0447,-3871.0501L14101.0446,-3871.0501L14101.0446,-3871.0501L14101.0446,-3871.0501L14101.0445,-3871.0501L14101.0444,-3871.0501L14101.0439,-3871.05L14101.0439,-3871.05L14101.0439,-3871.05L14101.0439,-3871.05L14101.0438,-3871.05L14100.9928,-3871.0429L14100.9899,-3871.0426L14100.9797,-3871.0415L14100.9797,-3871.0415L14100.9797,-3871.0415L14100.9796,-3871.0415L14100.9692,-3871.0404L14100.9661,-3871.0401L14100.9661,-3871.0401L14100.9626,-3871.0397L14100.9586,-3871.0393L14100.9546,-3871.0389L14100.9521,-3871.0386"/>
<path content="1,弘南バス（株）,スカイ号,1.0,1.0,1.0," xlink:title="1" d="M14101.2268,-3871.0842L14101.2238,-3871.0834L14101.2052,-3871.0794L14101.1816,-3871.074L14101.1542,-3871.0678L14101.1311,-3871.0634L14101.1311,-3871.0634L14101.1304,-3871.0633L14101.1286,-3871.0629L14101.1285,-3871.0629L14101.1285,-3871.0629L14101.1285,-3871.0629L14101.1285,-3871.0629L14101.1274,-3871.0627L14101.0996,-3871.0583L14101.0996,-3871.0583L14101.0996,-3871.0583L14101.0993,-3871.0582L14101.0993,-3871.0582L14101.0993,-3871.0582L14101.0993,-3871.0582L14101.0992,-3871.0582L14101.0992,-3871.0582L14101.0991,-3871.0582L14101.0989,-3871.0582L14101.0989,-3871.0581L14101.0745,-3871.0543L14101.0745,-3871.0543L14101.0745,-3871.0542L14101.0449,-3871.0501L14101.0447,-3871.0501L14101.0446,-3871.0501L14101.0446,-3871.0501L14101.0446,-3871.0501L14101.0445,-3871.0501L14101.0444,-3871.0501L14101.0439,-3871.05L14101.0439,-3871.05L14101.0439,-3871.05L14101.0439,-3871.05L14101.0438,-3871.05L14100.9929,-3871.0429L14100.9661,-3871.0401L14100.9661,-3871.0401L14100.9626,-3871.0397L14100.9586,-3871.0393L14100.9521,-3871.0386"/>
<path content="1,弘南バス（株）,ノクターン号,1.0,1.0,1.0," xlink:title="1" d="M14101.2268,-3871.0842L14101.2238,-3871.0834L14101.2052,-3871.0794L14101.1816,-3871.074L14101.1542,-3871.0678L14101.1311,-3871.0634L14101.1311,-3871.0634L14101.1304,-3871.0633L14101.1286,-3871.0629L14101.1285,-3871.0629L14101.1285,-3871.0629L14101.1285,-3871.0629L14101.1285,-3871.0629L14101.1274,-3871.0627L14101.0996,-3871.0583L14101.0996,-3871.0583L14101.0996,-3871.0583L14101.0993,-3871.0582L14101.0993,-3871.0582L14101.0993,-3871.0582L14101.0993,-3871.0582L14101.0992,-3871.0582L14101.0992,-3871.0582L14101.0991,-3871.0582L14101.0989,-3871.0582L14101.0989,-3871.0581L14101.0745,-3871.0543L14101.0745,-3871.0543L14101.0745,-3871.0542L14101.0449,-3871.0501L14101.0447,-3871.0501L14101.0446,-3871.0501L14101.0446,-3871.0501L14101.0446,-3871.0501L14101.0445,-3871.0501L14101.0444,-3871.0501L14101.0439,-3871.05L14101.0439,-3871.05L14101.0439,-3871.05L14101.0439,-3871.05L14101.0438,-3871.05L14100.9929,-3871.0429L14100.9661,-3871.0401L14100.9661,-3871.0401L14100.9626,-3871.0397L14100.9586,-3871.0393L14100.9521,-3871.0386"/>
<path content="1,弘南バス（株）,パンダ号,3.0,3.0,3.0," xlink:title="1" d="M14101.2268,-3871.0842L14101.2238,-3871.0834L14101.2052,-3871.0794L14101.1816,-3871.074L14101.1542,-3871.0678L14101.1311,-3871.0634L14101.1311,-3871.0634L14101.1304,-3871.0633L14101.1286,-3871.0629L14101.1285,-3871.0629L14101.1285,-3871.0629L14101.1285,-3871.0629L14101.1285,-3871.0629L14101.1274,-3871.0627L14101.0996,-3871.0583L14101.0996,-3871.0583L14101.0996,-3871.0583L14101.0993,-3871.0582L14101.0993,-3871.0582L14101.0993,-3871.0582L14101.0993,-3871.0582L14101.0992,-3871.0582L14101.0992,-3871.0582L14101.0991,-3871.0582L14101.0989,-3871.0582L14101.0989,-3871.0581L14101.0745,-3871.0543L14101.0745,-3871.0543L14101.0745,-3871.0542L14101.0449,-3871.0501L14101.0447,-3871.0501L14101.0446,-3871.0501L14101.0446,-3871.0501L14101.0446,-3871.0501L14101.0445,-3871.0501L14101.0444,-3871.0501L14101.0439,-3871.05L14101.0439,-3871.05L14101.0439,-3871.05L14101.0439,-3871.05L14101.0438,-3871.05L14100.9929,-3871.0429L14100.9661,-3871.0401L14100.9661,-3871.0401L14100.9626,-3871.0397L14100.9586,-3871.0393L14100.9521,-3871.0386"/>
<path content="1,弘南バス（株）,ブルーシティー号,4.0,4.0,4.0," xlink:title="1" d="M14101.2268,-3871.0842L14101.2238,-3871.0834L14101.208,-3871.08L14101.2072,-3871.0798L14101.2052,-3871.0794L14101.1816,-3871.074L14101.1542,-3871.0678L14101.1343,-3871.064L14101.1332,-3871.0638L14101.133,-3871.0638L14101.1328,-3871.0637L14101.1322,-3871.0636L14101.1319,-3871.0635L14101.1316,-3871.0635L14101.1316,-3871.0635L14101.1316,-3871.0635L14101.1315,-3871.0635L14101.1313,-3871.0634L14101.1311,-3871.0634L14101.1311,-3871.0634L14101.1311,-3871.0634L14101.1286,-3871.0629L14101.1285,-3871.0629L14101.1285,-3871.0629L14101.1285,-3871.0629L14101.1285,-3871.0629L14101.1274,-3871.0627L14101.0996,-3871.0583L14101.0996,-3871.0583L14101.0996,-3871.0583L14101.0993,-3871.0582L14101.0993,-3871.0582L14101.0993,-3871.0582L14101.0993,-3871.0582L14101.0992,-3871.0582L14101.0992,-3871.0582L14101.0991,-3871.0582L14101.0989,-3871.0582L14101.0989,-3871.0581L14101.0745,-3871.0543L14101.0745,-3871.0543L14101.0745,-3871.0542L14101.0449,-3871.0501L14101.0447,-3871.0501L14101.0446,-3871.0501L14101.0446,-3871.0501L14101.0446,-3871.0501L14101.0445,-3871.0501L14101.0444,-3871.0501L14101.0439,-3871.05L14101.0439,-3871.05L14101.0439,-3871.05L14101.0439,-3871.05L14101.0438,-3871.05L14100.9928,-3871.0429L14100.9899,-3871.0426L14100.9797,-3871.0415L14100.9797,-3871.0415L14100.9797,-3871.0415L14100.9796,-3871.0415L14100.9692,-3871.0404L14100.9661,-3871.0401L14100.9661,-3871.0401L14100.9626,-3871.0397L14100.9586,-3871.0393L14100.9546,-3871.0389L14100.9521,-3871.0386"/>
<path content="1,弘南バス（株）,津軽号,1.0,1.0,1.0," xlink:title="1" d="M14100.9521,-3871.0386L14100.9586,-3871.0393L14100.9626,-3871.0397L14100.9661,-3871.0401L14100.9661,-3871.0401L14100.9929,-3871.0429L14101.0438,-3871.05L14101.0439,-3871.05L14101.0439,-3871.05L14101.0439,-3871.05L14101.0439,-3871.05L14101.0444,-3871.0501L14101.0445,-3871.0501L14101.0446,-3871.0501L14101.0446,-3871.0501L14101.0446,-3871.0501L14101.0447,-3871.0501L14101.0449,-3871.0501L14101.0745,-3871.0542L14101.0745,-3871.0543L14101.0745,-3871.0543L14101.0989,-3871.0581L14101.0989,-3871.0582L14101.0991,-3871.0582L14101.0992,-3871.0582L14101.0992,-3871.0582L14101.0993,-3871.0582L14101.0993,-3871.0582L14101.0993,-3871.0582L14101.0993,-3871.0582L14101.0996,-3871.0583L14101.0996,-3871.0583L14101.0996,-3871.0583L14101.1274,-3871.0627L14101.1285,-3871.0629L14101.1285,-3871.0629L14101.1285,-3871.0629L14101.1285,-3871.0629L14101.1286,-3871.0629L14101.1304,-3871.0633L14101.1311,-3871.0634L14101.1311,-3871.0634L14101.1542,-3871.0678L14101.1816,-3871.074L14101.2052,-3871.0794L14101.2238,-3871.0834L14101.2268,-3871.0842"/>
<path content="1,東日本急行（株）,一ノ関～仙台線,19.0,19.0,19.0," xlink:title="1" d="M14100.9521,-3871.0386L14100.9586,-3871.0393L14100.9626,-3871.0397L14100.9661,-3871.0401L14100.9661,-3871.0401L14100.9929,-3871.0429L14101.0438,-3871.05L14101.0439,-3871.05L14101.0439,-3871.05L14101.0439,-3871.05L14101.0439,-3871.05L14101.0444,-3871.0501L14101.0445,-3871.0501L14101.0446,-3871.0501L14101.0446,-3871.0501L14101.0446,-3871.0501L14101.0447,-3871.0501L14101.0449,-3871.0501L14101.0745,-3871.0542L14101.0745,-3871.0543L14101.0745,-3871.0543L14101.0989,-3871.0581L14101.0989,-3871.0582L14101.0991,-3871.0582L14101.0992,-3871.0582L14101.0992,-3871.0582L14101.0993,-3871.0582L14101.0993,-3871.0582L14101.0993,-3871.0582L14101.0993,-3871.0582L14101.0996,-3871.0583L14101.0996,-3871.0583L14101.0996,-3871.0583L14101.1274,-3871.0627L14101.1285,-3871.0629L14101.1285,-3871.0629L14101.1285,-3871.0629L14101.1285,-3871.0629L14101.1286,-3871.0629L14101.1304,-3871.0633L14101.1311,-3871.0634L14101.1311,-3871.0634L14101.1542,-3871.0678L14101.1816,-3871.074L14101.2052,-3871.0794L14101.2238,-3871.0834L14101.2268,-3871.0842"/>
<path content="1,東日本急行（株）,仙台～盛岡線,16.0,20.0,20.0," xlink:title="1" d="M14101.2268,-3871.0842L14101.2238,-3871.0834L14101.2052,-3871.0794L14101.1816,-3871.074L14101.1542,-3871.0678L14101.1311,-3871.0634L14101.1311,-3871.0634L14101.1304,-3871.0633L14101.1286,-3871.0629L14101.1285,-3871.0629L14101.1285,-3871.0629L14101.1285,-3871.0629L14101.1285,-3871.0629L14101.1274,-3871.0627L14101.0996,-3871.0583L14101.0996,-3871.0583L14101.0996,-3871.0583L14101.0993,-3871.0582L14101.0993,-3871.0582L14101.0993,-3871.0582L14101.0993,-3871.0582L14101.0992,-3871.0582L14101.0992,-3871.0582L14101.0991,-3871.0582L14101.0989,-3871.0582L14101.0989,-3871.0581L14101.0745,-3871.0543L14101.0745,-3871.0543L14101.0745,-3871.0542L14101.0449,-3871.0501L14101.0447,-3871.0501L14101.0446,-3871.0501L14101.0446,-3871.0501L14101.0446,-3871.0501L14101.0445,-3871.0501L14101.0444,-3871.0501L14101.0439,-3871.05L14101.0439,-3871.05L14101.0439,-3871.05L14101.0439,-3871.05L14101.0438,-3871.05L14100.9929,-3871.0429L14100.9661,-3871.0401L14100.9661,-3871.0401L14100.9626,-3871.0397L14100.9586,-3871.0393L14100.9521,-3871.0386"/>
<path content="1,東日本急行（株）,佐野・平泉駅前・中尊寺～仙台線,1.1,1.1,1.1," xlink:title="1" d="M14100.9521,-3871.0386L14100.9586,-3871.0393L14100.9626,-3871.0397L14100.9661,-3871.0401L14100.9661,-3871.0401L14100.9929,-3871.0429L14101.0438,-3871.05L14101.0439,-3871.05L14101.0439,-3871.05L14101.0439,-3871.05L14101.0439,-3871.05L14101.0444,-3871.0501L14101.0445,-3871.0501L14101.0446,-3871.0501L14101.0446,-3871.0501L14101.0446,-3871.0501L14101.0447,-3871.0501L14101.0449,-3871.0501L14101.0745,-3871.0542L14101.0745,-3871.0543L14101.0745,-3871.0543L14101.0989,-3871.0581L14101.0989,-3871.0582L14101.0991,-3871.0582L14101.0992,-3871.0582L14101.0992,-3871.0582L14101.0993,-3871.0582L14101.0993,-3871.0582L14101.0993,-3871.0582L14101.0993,-3871.0582L14101.0996,-3871.0583L14101.0996,-3871.0583L14101.0996,-3871.0583L14101.1274,-3871.0627L14101.1285,-3871.0629L14101.1285,-3871.0629L14101.1285,-3871.0629L14101.1285,-3871.0629L14101.1286,-3871.0629L14101.1304,-3871.0633L14101.1311,-3871.0634L14101.1311,-3871.0634L14101.1542,-3871.0678L14101.1816,-3871.074L14101.2052,-3871.0794L14101.2238,-3871.0834L14101.2268,-3871.0842"/>
<path content="1,東日本急行（株）,登米（迫）～若柳～仙台線,8.0,8.0,8.0," xlink:title="1" d="M14100.9521,-3871.0386L14100.9546,-3871.0389L14100.9626,-3871.0397L14100.9626,-3871.0397L14100.9626,-3871.0397L14100.9692,-3871.0404L14100.9796,-3871.0415L14100.9797,-3871.0415L14100.9797,-3871.0415L14100.9797,-3871.0415L14100.9899,-3871.0426L14100.9928,-3871.0429L14101.0438,-3871.05L14101.0439,-3871.05L14101.0439,-3871.05L14101.0439,-3871.05L14101.0439,-3871.05L14101.0444,-3871.0501L14101.0445,-3871.0501L14101.0446,-3871.0501L14101.0446,-3871.0501L14101.0446,-3871.0501L14101.0447,-3871.0501L14101.0449,-3871.0501L14101.0745,-3871.0542L14101.0745,-3871.0543L14101.0745,-3871.0543L14101.0989,-3871.0581L14101.0989,-3871.0582L14101.0991,-3871.0582L14101.0992,-3871.0582L14101.0992,-3871.0582L14101.0993,-3871.0582L14101.0993,-3871.0582L14101.0993,-3871.0582L14101.0993,-3871.0582L14101.0996,-3871.0583L14101.0996,-3871.0583L14101.0996,-3871.0583L14101.1274,-3871.0627L14101.1285,-3871.0629L14101.1285,-3871.0629L14101.1285,-3871.0629L14101.1285,-3871.0629L14101.1286,-3871.0629L14101.1311,-3871.0634L14101.1311,-3871.0634L14101.1311,-3871.0634L14101.1313,-3871.0634L14101.1315,-3871.0635L14101.1316,-3871.0635L14101.1316,-3871.0635L14101.1316,-3871.0635L14101.1319,-3871.0635L14101.1322,-3871.0636L14101.1328,-3871.0637L14101.133,-3871.0638L14101.1332,-3871.0638L14101.1343,-3871.064L14101.1542,-3871.0679L14101.1709,-3871.0716L14101.1709,-3871.0716L14101.171,-3871.0716L14101.1759,-3871.0728L14101.1782,-3871.0733L14101.1816,-3871.074L14101.2052,-3871.0794L14101.2072,-3871.0798L14101.208,-3871.08L14101.2107,-3871.0806L14101.2239,-3871.0835L14101.2268,-3871.0843"/>
<path content="1,東日本急行（株）,金成庁舎前・くりこま高原駅前・一迫総合支所前～築館～仙台線,15.0,15.0,15.0," xlink:title="1" d="M14100.9699,-3871.0327L14100.9626,-3871.0397L14100.9626,-3871.0397L14100.9546,-3871.0389L14100.9521,-3871.0386"/>
<path content="1,江ノ電バス藤沢,レイク＆ポート号,1.0,1.0,1.0," xlink:title="1" d="M14100.9521,-3871.0386L14100.9586,-3871.0393L14100.9626,-3871.0397L14100.9661,-3871.0401L14100.9661,-3871.0401L14100.9929,-3871.0429L14101.0438,-3871.05L14101.0439,-3871.05L14101.0439,-3871.05L14101.0439,-3871.05L14101.0439,-3871.05L14101.0444,-3871.0501L14101.0445,-3871.0501L14101.0446,-3871.0501L14101.0446,-3871.0501L14101.0446,-3871.0501L14101.0447,-3871.0501L14101.0449,-3871.0501L14101.0745,-3871.0542L14101.0745,-3871.0543L14101.0745,-3871.0543L14101.0989,-3871.0581L14101.0989,-3871.0582L14101.0991,-3871.0582L14101.0992,-3871.0582L14101.0992,-3871.0582L14101.0993,-3871.0582L14101.0993,-3871.0582L14101.0993,-3871.0582L14101.0993,-3871.0582L14101.0996,-3871.0583L14101.0996,-3871.0583L14101.0996,-3871.0583L14101.1274,-3871.0627L14101.1285,-3871.0629L14101.1285,-3871.0629L14101.1285,-3871.0629L14101.1285,-3871.0629L14101.1286,-3871.0629L14101.1304,-3871.0633L14101.1311,-3871.0634L14101.1311,-3871.0634L14101.1542,-3871.0678L14101.1816,-3871.074L14101.2052,-3871.0794L14101.2238,-3871.0834L14101.2268,-3871.0842"/>
<path content="1,秋北バス（株）,ジュピター号,1.0,1.0,1.0," xlink:title="1" d="M14100.9521,-3871.0386L14100.9586,-3871.0393L14100.9626,-3871.0397L14100.9661,-3871.0401L14100.9661,-3871.0401L14100.9929,-3871.0429L14101.0438,-3871.05L14101.0439,-3871.05L14101.0439,-3871.05L14101.0439,-3871.05L14101.0439,-3871.05L14101.0444,-3871.0501L14101.0445,-3871.0501L14101.0446,-3871.0501L14101.0446,-3871.0501L14101.0446,-3871.0501L14101.0447,-3871.0501L14101.0449,-3871.0501L14101.0745,-3871.0542L14101.0745,-3871.0543L14101.0745,-3871.0543L14101.0989,-3871.0581L14101.0989,-3871.0582L14101.0991,-3871.0582L14101.0992,-3871.0582L14101.0992,-3871.0582L14101.0993,-3871.0582L14101.0993,-3871.0582L14101.0993,-3871.0582L14101.0993,-3871.0582L14101.0996,-3871.0583L14101.0996,-3871.0583L14101.0996,-3871.0583L14101.1274,-3871.0627L14101.1285,-3871.0629L14101.1285,-3871.0629L14101.1285,-3871.0629L14101.1285,-3871.0629L14101.1286,-3871.0629L14101.1304,-3871.0633L14101.1311,-3871.0634L14101.1311,-3871.0634L14101.1542,-3871.0678L14101.1816,-3871.074L14101.2052,-3871.0794L14101.2238,-3871.0834L14101.2268,-3871.0842"/>
<path content="1,秋北バス（株）,二ツ井・能代～仙台線,1.0,1.0,1.0," xlink:title="1" d="M14100.9521,-3871.0386L14100.9586,-3871.0393L14100.9626,-3871.0397L14100.9661,-3871.0401L14100.9661,-3871.0401L14100.9929,-3871.0429L14101.0438,-3871.05L14101.0439,-3871.05L14101.0439,-3871.05L14101.0439,-3871.05L14101.0439,-3871.05L14101.0444,-3871.0501L14101.0445,-3871.0501L14101.0446,-3871.0501L14101.0446,-3871.0501L14101.0446,-3871.0501L14101.0447,-3871.0501L14101.0449,-3871.0501L14101.0745,-3871.0542L14101.0745,-3871.0543L14101.0745,-3871.0543L14101.0989,-3871.0581L14101.0989,-3871.0582L14101.0991,-3871.0582L14101.0992,-3871.0582L14101.0992,-3871.0582L14101.0993,-3871.0582L14101.0993,-3871.0582L14101.0993,-3871.0582L14101.0993,-3871.0582L14101.0996,-3871.0583L14101.0996,-3871.0583L14101.0996,-3871.0583L14101.1274,-3871.0627L14101.1285,-3871.0629L14101.1285,-3871.0629L14101.1285,-3871.0629L14101.1285,-3871.0629L14101.1286,-3871.0629L14101.1304,-3871.0633L14101.1311,-3871.0634L14101.1311,-3871.0634L14101.1542,-3871.0678L14101.1816,-3871.074L14101.2052,-3871.0794L14101.2238,-3871.0834L14101.2268,-3871.0842"/>
<path content="1,秋北バス（株）,大館・鹿角～仙台線,3.0,3.0,3.0," xlink:title="1" d="M14100.9521,-3871.0386L14100.9586,-3871.0393L14100.9626,-3871.0397L14100.9661,-3871.0401L14100.9661,-3871.0401L14100.9929,-3871.0429L14101.0438,-3871.05L14101.0439,-3871.05L14101.0439,-3871.05L14101.0439,-3871.05L14101.0439,-3871.05L14101.0444,-3871.0501L14101.0445,-3871.0501L14101.0446,-3871.0501L14101.0446,-3871.0501L14101.0446,-3871.0501L14101.0447,-3871.0501L14101.0449,-3871.0501L14101.0745,-3871.0542L14101.0745,-3871.0543L14101.0745,-3871.0543L14101.0989,-3871.0581L14101.0989,-3871.0582L14101.0991,-3871.0582L14101.0992,-3871.0582L14101.0992,-3871.0582L14101.0993,-3871.0582L14101.0993,-3871.0582L14101.0993,-3871.0582L14101.0993,-3871.0582L14101.0996,-3871.0583L14101.0996,-3871.0583L14101.0996,-3871.0583L14101.1274,-3871.0627L14101.1285,-3871.0629L14101.1285,-3871.0629L14101.1285,-3871.0629L14101.1285,-3871.0629L14101.1286,-3871.0629L14101.1304,-3871.0633L14101.1311,-3871.0634L14101.1311,-3871.0634L14101.1542,-3871.0678L14101.1816,-3871.074L14101.2052,-3871.0794L14101.2238,-3871.0834L14101.2268,-3871.0842"/>
<path content="1,秋田中央交通（株）,フローラ号,1.0,1.0,1.0," xlink:title="1" d="M14101.2268,-3871.0842L14101.2238,-3871.0834L14101.2052,-3871.0794L14101.1816,-3871.074L14101.1542,-3871.0678L14101.1311,-3871.0634L14101.1311,-3871.0634L14101.1304,-3871.0633L14101.1286,-3871.0629L14101.1285,-3871.0629L14101.1285,-3871.0629L14101.1285,-3871.0629L14101.1285,-3871.0629L14101.1274,-3871.0627L14101.0996,-3871.0583L14101.0996,-3871.0583L14101.0996,-3871.0583L14101.0993,-3871.0582L14101.0993,-3871.0582L14101.0993,-3871.0582L14101.0993,-3871.0582L14101.0992,-3871.0582L14101.0992,-3871.0582L14101.0991,-3871.0582L14101.0989,-3871.0582L14101.0989,-3871.0581L14101.0745,-3871.0543L14101.0745,-3871.0543L14101.0745,-3871.0542L14101.0449,-3871.0501L14101.0447,-3871.0501L14101.0446,-3871.0501L14101.0446,-3871.0501L14101.0446,-3871.0501L14101.0445,-3871.0501L14101.0444,-3871.0501L14101.0439,-3871.05L14101.0439,-3871.05L14101.0439,-3871.05L14101.0439,-3871.05L14101.0438,-3871.05L14100.9929,-3871.0429L14100.9661,-3871.0401L14100.9661,-3871.0401L14100.9626,-3871.0397L14100.9586,-3871.0393L14100.9521,-3871.0386"/>
<path content="1,秋田中央交通（株）,仙秋号,4.0,4.0,4.0," xlink:title="1" d="M14101.2268,-3871.0842L14101.2238,-3871.0834L14101.2052,-3871.0794L14101.1816,-3871.074L14101.1542,-3871.0678L14101.1311,-3871.0634L14101.1311,-3871.0634L14101.1304,-3871.0633L14101.1286,-3871.0629L14101.1285,-3871.0629L14101.1285,-3871.0629L14101.1285,-3871.0629L14101.1285,-3871.0629L14101.1274,-3871.0627L14101.0996,-3871.0583L14101.0996,-3871.0583L14101.0996,-3871.0583L14101.0993,-3871.0582L14101.0993,-3871.0582L14101.0993,-3871.0582L14101.0993,-3871.0582L14101.0992,-3871.0582L14101.0992,-3871.0582L14101.0991,-3871.0582L14101.0989,-3871.0582L14101.0989,-3871.0581L14101.0745,-3871.0543L14101.0745,-3871.0543L14101.0745,-3871.0542L14101.0449,-3871.0501L14101.0447,-3871.0501L14101.0446,-3871.0501L14101.0446,-3871.0501L14101.0446,-3871.0501L14101.0445,-3871.0501L14101.0444,-3871.0501L14101.0439,-3871.05L14101.0439,-3871.05L14101.0439,-3871.05L14101.0439,-3871.05L14101.0438,-3871.05L14100.9929,-3871.0429L14100.9661,-3871.0401L14100.9661,-3871.0401L14100.9626,-3871.0397L14100.9586,-3871.0393L14100.9521,-3871.0386"/>
<path content="1,羽後交通（株）,グリーンライナー号,4.0,4.0,4.0," xlink:title="1" d="M14100.9521,-3871.0386L14100.9586,-3871.0393L14100.9626,-3871.0397L14100.9661,-3871.0401L14100.9661,-3871.0401L14100.9929,-3871.0429L14101.0438,-3871.05L14101.0439,-3871.05L14101.0439,-3871.05L14101.0439,-3871.05L14101.0439,-3871.05L14101.0444,-3871.0501L14101.0445,-3871.0501L14101.0446,-3871.0501L14101.0446,-3871.0501L14101.0446,-3871.0501L14101.0447,-3871.0501L14101.0449,-3871.0501L14101.0745,-3871.0542L14101.0745,-3871.0543L14101.0745,-3871.0543L14101.0989,-3871.0581L14101.0989,-3871.0582L14101.0991,-3871.0582L14101.0992,-3871.0582L14101.0992,-3871.0582L14101.0993,-3871.0582L14101.0993,-3871.0582L14101.0993,-3871.0582L14101.0993,-3871.0582L14101.0996,-3871.0583L14101.0996,-3871.0583L14101.0996,-3871.0583L14101.1274,-3871.0627L14101.1285,-3871.0629L14101.1285,-3871.0629L14101.1285,-3871.0629L14101.1285,-3871.0629L14101.1286,-3871.0629L14101.1304,-3871.0633L14101.1311,-3871.0634L14101.1311,-3871.0634L14101.1542,-3871.0678L14101.1816,-3871.074L14101.2052,-3871.0794L14101.2238,-3871.0834L14101.2268,-3871.0842"/>
<path content="1,羽後交通（株）,レーク＆ポート号,1.0,1.0,1.0," xlink:title="1" d="M14101.2268,-3871.0842L14101.2238,-3871.0834L14101.2052,-3871.0794L14101.1816,-3871.074L14101.1542,-3871.0678L14101.1311,-3871.0634L14101.1311,-3871.0634L14101.1304,-3871.0633L14101.1286,-3871.0629L14101.1285,-3871.0629L14101.1285,-3871.0629L14101.1285,-3871.0629L14101.1285,-3871.0629L14101.1274,-3871.0627L14101.0996,-3871.0583L14101.0996,-3871.0583L14101.0996,-3871.0583L14101.0993,-3871.0582L14101.0993,-3871.0582L14101.0993,-3871.0582L14101.0993,-3871.0582L14101.0992,-3871.0582L14101.0992,-3871.0582L14101.0991,-3871.0582L14101.0989,-3871.0582L14101.0989,-3871.0581L14101.0745,-3871.0543L14101.0745,-3871.0543L14101.0745,-3871.0542L14101.0449,-3871.0501L14101.0447,-3871.0501L14101.0446,-3871.0501L14101.0446,-3871.0501L14101.0446,-3871.0501L14101.0445,-3871.0501L14101.0444,-3871.0501L14101.0439,-3871.05L14101.0439,-3871.05L14101.0439,-3871.05L14101.0439,-3871.05L14101.0438,-3871.05L14100.9929,-3871.0429L14100.9661,-3871.0401L14100.9661,-3871.0401L14100.9626,-3871.0397L14100.9586,-3871.0393L14100.9521,-3871.0386"/>
</g>
</svg>
