<?xml version="1.0" encoding="UTF-8"?>
<svg  xmlns="http://www.w3.org/2000/svg" xmlns:xlink="http://www.w3.org/1999/xlink" xmlns:go="http://purl.org/svgmap/profile" property="N07_001,N07_002,N07_003,N07_004,N07_005,N07_006,N07_007" viewBox="13992.1875 -3796.875 17.578125 17.578125" go:dataArea="13992.1875 -3796.875 17.578125 17.578125" >
<metadata>
 <rdf:RDF xmlns:rdf="http://www.w3.org/1999/02/22-rdf-syntax-ns#" xmlns:crs="http://opengis.org/xmldtds/transformations.dtd" xmlns:svg="http://www.w3.org/svg" >
  <rdf:Description>
   <crs:CoordinateReferenceSystem rdf:resource="http://purl.org/crs/84" svg:transform="matrix(100.0,0.0,0.0,-100.0,0.0,0.0)" />
  </rdf:Description>
 </rdf:RDF>
</metadata>
<globalCoordinateSystem srsName="http://purl.org/crs/84" transform="matrix(100.0,0.0,0.0,-100.0,0.0,0.0)" />
<defs>
 <g id="p0" >
  <circle cx="0.0" cy="0.0" r="3" stroke="green" stroke-width="0.75" vector-effect="non-scaling-stroke" />
 </g>
</defs>
<g fill="none" fill-rule="evenodd" stroke="#FF00FF" stroke-width="0.75" opacity="0.5" vector-effect="non-scaling-stroke" stroke-linejoin="bevel" >
<path content="1,山交バス（株）,043,7.0,6.0,6.0," xlink:title="1" d="M14009.7656,-3791.1677L14009.7264,-3791.1696L14009.6108,-3791.1751L14009.4945,-3791.1808L14009.459,-3791.1826L14009.4093,-3791.1864L14009.3664,-3791.1872L14009.2868,-3791.1914L14009.2392,-3791.1939L14009.0927,-3791.2016L14008.9721,-3791.2067L14008.897,-3791.2134L14008.865,-3791.2109L14008.8179,-3791.2134L14008.7955,-3791.2146L14008.7681,-3791.216L14008.5678,-3791.2276L14008.537,-3791.228L14008.4405,-3791.2372L14008.3088,-3791.2377L14008.1548,-3791.2446L14008.0605,-3791.2488L14007.9293,-3791.2526L14007.8854,-3791.2566L14007.8429,-3791.2563L14007.7846,-3791.2564L14007.5789,-3791.2559L14007.539,-3791.2575L14007.5207,-3791.2589L14007.4762,-3791.1304L14007.378,-3791.1482L14007.1554,-3791.1886L14007.091,-3791.1989L14006.9592,-3791.2241L14006.902,-3791.1592L14006.8816,-3791.136L14006.8618,-3791.1134L14006.7869,-3791.0446L14006.77,-3791.0273L14006.6328,-3790.8968L14006.6264,-3790.8898L14006.6194,-3790.8822L14006.6117,-3790.8691L14006.5863,-3790.809L14006.5711,-3790.7787L14006.5629,-3790.7668L14006.4809,-3790.6888L14006.4566,-3790.6683L14006.4321,-3790.6408L14006.403,-3790.6165L14006.3213,-3790.5588L14006.2519,-3790.5097L14006.2241,-3790.4869L14006.2175,-3790.4803L14006.2122,-3790.4751L14006.1698,-3790.3963L14006.1192,-3790.3053L14006.1094,-3790.2877L14006.0886,-3790.2528L14006.0722,-3790.23L14006.062,-3790.2211L14006.0557,-3790.2104L14005.9964,-3790.1476L14005.9901,-3790.1409L14005.9231,-3790.0699L14005.8755,-3790.0147L14005.8586,-3789.9919L14005.8431,-3789.9588L14005.8343,-3789.9267L14005.8341,-3789.9187L14005.8388,-3789.8727L14005.8228,-3789.8674L14005.7814,-3789.8513L14005.7603,-3789.8407L14005.7413,-3789.8276L14005.7244,-3789.8117L14005.7141,-3789.7951L14005.7034,-3789.7694L14005.6886,-3789.7337L14005.6788,-3789.7174L14005.6664,-3789.7033L14005.6488,-3789.6887L14005.5918,-3789.6461L14005.5303,-3789.6001L14005.517,-3789.591L14005.4933,-3789.5724L14005.4401,-3789.5179L14005.3694,-3789.4444L14005.3583,-3789.4286L14005.3565,-3789.4253L14005.3483,-3789.4033L14005.3346,-3789.3594L14005.3296,-3789.3432L14005.3008,-3789.2454L14005.2704,-3789.1423L14005.2617,-3789.1211L14005.2493,-3789.1028L14005.2336,-3789.0854L14005.0758,-3788.9565L14005.0187,-3788.9066L14004.858,-3788.7697L14004.7024,-3788.6415L14004.7693,-3788.5853L14004.8589,-3788.5114L14004.8813,-3788.4935L14004.8893,-3788.4871L14004.9078,-3788.4723L14004.9311,-3788.4492L14004.9754,-3788.3984L14004.978,-3788.3954L14004.9975,-3788.3735L14005.0184,-3788.3598L14005.0269,-3788.3582L14005.0333,-3788.353L14005.0532,-3788.3457L14005.1251,-3788.331L14005.1613,-3788.3212L14005.1778,-3788.3154L14005.1874,-3788.3096L14005.1962,-3788.2988L14005.2018,-3788.2828L14005.2172,-3788.251L14005.2242,-3788.242L14005.2344,-3788.2316L14005.2695,-3788.2098L14005.279,-3788.2038L14005.3317,-3788.1719L14005.3439,-3788.166L14005.3797,-3788.1487L14005.4378,-3788.1344L14005.4379,-3788.0915L14005.438,-3788.0892L14005.4417,-3788.0704L14005.4481,-3788.049L14005.4542,-3788.0366L14005.4594,-3788.0304L14005.4717,-3788.0194L14005.479,-3788.0092L14005.481,-3788.0026L14005.4754,-3787.9928L14005.4681,-3787.9849L14005.4707,-3787.9748L14005.4733,-3787.8493L14005.4886,-3787.8451L14005.5086,-3787.8372L14005.5379,-3787.8227L14005.5524,-3787.8139L14005.5897,-3787.7817L14005.5899,-3787.7819"/>
<path content="1,山交バス（株）,044,8.0,7.0,7.0," xlink:title="1" d="M14009.7656,-3785.7202L14009.7558,-3785.7038L14009.7241,-3785.6507L14009.711,-3785.6294L14009.6968,-3785.6124L14009.6404,-3785.5553L14009.585,-3785.4992L14009.5735,-3785.4865L14009.5666,-3785.4672L14009.5586,-3785.426L14009.559,-3785.4253L14009.5687,-3785.339L14009.5851,-3785.1933L14009.5873,-3785.1898L14009.597,-3785.07L14009.5982,-3785.0534L14009.6002,-3785.044L14009.6051,-3785.0289L14009.6165,-3785.0066L14009.6349,-3784.9874L14009.6548,-3784.9695L14009.6763,-3784.9579L14009.7058,-3784.9446L14009.7399,-3784.935L14009.7656,-3784.9311M14009.7656,-3784.7227L14009.7627,-3784.7226L14009.6764,-3784.7178L14009.626,-3784.712L14009.5845,-3784.7053L14009.4787,-3784.6814L14009.4503,-3784.6748L14009.4351,-3784.6735L14009.4021,-3784.6739L14009.3251,-3784.6799L14009.2686,-3784.6862L14009.2149,-3784.6957L14009.1923,-3784.6982L14009.1684,-3784.6972L14009.1442,-3784.6922L14009.1248,-3784.6843L14009.0854,-3784.6639L14009.0545,-3784.6436L14009.0461,-3784.6381L14009.0059,-3784.6113L14008.976,-3784.5913L14008.9345,-3784.5558L14008.953,-3784.5414L14008.9664,-3784.528L14008.9782,-3784.5112L14009.007,-3784.4448L14009.021,-3784.408L14009.0558,-3784.3289L14009.0655,-3784.3059L14009.0785,-3784.2791L14009.1096,-3784.2305L14009.139,-3784.1902L14009.1401,-3784.19L14009.1494,-3784.1719L14009.1707,-3784.1233L14009.2138,-3784.0154L14009.2218,-3784.0024L14009.2431,-3783.9744L14009.3652,-3783.8308L14009.4249,-3783.7629L14009.4433,-3783.7391L14009.5354,-3783.6326L14009.5735,-3783.5889L14009.5798,-3783.5801L14009.5904,-3783.5547L14009.5936,-3783.5394L14009.5948,-3783.5288L14009.5948,-3783.5153L14009.5932,-3783.5031L14009.5904,-3783.4934L14009.5853,-3783.4853L14009.5376,-3783.4258L14009.5277,-3783.4139L14009.5202,-3783.4024L14009.5131,-3783.3873L14009.51,-3783.3733L14009.5092,-3783.3576L14009.5096,-3783.341L14009.5143,-3783.3264L14009.5226,-3783.3132L14009.5361,-3783.2958L14009.5837,-3783.2444L14009.5882,-3783.2377L14009.7656,-3783.0478"/>
<path content="1,山交バス（株）,047,3.0,0.0,0.0," xlink:title="1" d="M14009.7656,-3794.3684L14009.7611,-3794.3707L14009.7381,-3794.3836L14009.5901,-3794.4609L14009.5766,-3794.4657L14009.5502,-3794.4789L14009.541,-3794.4845L14009.539,-3794.4838L14009.5331,-3794.4873L14009.5004,-3794.5048L14009.494,-3794.5082L14009.4876,-3794.5132L14009.4798,-3794.5194L14009.4734,-3794.5262L14009.4649,-3794.5397L14009.4599,-3794.5521L14009.4549,-3794.5741L14009.4521,-3794.5887L14009.4514,-3794.6079L14009.4539,-3794.65L14009.4585,-3794.7115L14009.4585,-3794.7217L14009.467,-3794.8506L14009.4713,-3794.867L14009.4684,-3794.8889L14009.4677,-3794.9109L14009.4638,-3794.9544L14009.4612,-3794.9726L14009.457,-3794.9936L14009.4442,-3795.0452L14009.4364,-3795.0759L14009.4307,-3795.1018L14009.4264,-3795.1126L14009.4236,-3795.1278L14009.4201,-3795.1413L14009.4186,-3795.143L14009.4137,-3795.1644L14009.4122,-3795.1666L14009.4051,-3795.201L14009.4009,-3795.223L14009.3888,-3795.268L14009.3795,-3795.3131L14009.3703,-3795.3486L14009.3632,-3795.3874L14009.3518,-3795.428L14009.3497,-3795.4421L14009.3185,-3795.5676L14009.3183,-3795.5716L14009.3148,-3795.584L14009.2991,-3795.6477L14009.2899,-3795.6916L14009.2878,-3795.7012L14009.2743,-3795.7524L14009.2629,-3795.8031L14009.2586,-3795.8285L14009.2543,-3795.8645L14009.2529,-3795.869L14009.2387,-3795.9383L14009.2216,-3796.0093L14009.211,-3796.0448L14009.2074,-3796.0594L14009.1889,-3796.127L14009.1849,-3796.1543L14009.1729,-3796.2611L14009.174,-3796.2625L14009.1519,-3796.3782L14009.1384,-3796.4633L14009.1277,-3796.5236L14009.1149,-3796.5928L14009.1071,-3796.648L14009.1029,-3796.6818L14009.095,-3796.7393L14009.0901,-3796.7599L14009.0872,-3796.768L14009.0716,-3796.8063L14009.0573,-3796.8322L14009.0353,-3796.8711L14009.033,-3796.875"/>
<path content="1,（資）広田タクシー,マスコットくん　1号系統,0.5,0.7,0.7," xlink:title="1" d="M13994.7255,-3779.2969L13994.7618,-3779.3123L13994.9591,-3779.3963L13995.1164,-3779.4633L13995.6265,-3779.6782L13995.9423,-3779.8124L13995.9953,-3779.8349L13996.1536,-3779.9019L13996.3854,-3780L13996.9701,-3780.2494L13997.1358,-3780.3196L13997.7333,-3780.5726L13998.0539,-3780.7079L13998.1192,-3780.7354L13998.2017,-3780.7699L13998.2209,-3780.7779L13998.2336,-3780.7832L13998.3003,-3780.8097L13998.3307,-3780.8198L13998.3924,-3780.8339L13998.403,-3780.8357L13998.4059,-3780.8362L13998.4357,-3780.8412L13998.4769,-3780.8458L13998.5801,-3780.8494L13998.6245,-3780.8537L13998.6656,-3780.8626L13998.7528,-3780.8891L13998.794,-3780.8998L13998.8301,-3780.9071L13998.8876,-3780.9162L13998.9238,-3780.9235L13998.9656,-3780.9348L13999.0033,-3780.9466L13999.0323,-3780.9595L13999.0529,-3780.9702L13999.1089,-3781.0063L13999.1778,-3781.0547L13999.2026,-3781.0694L13999.2352,-3781.0863L13999.26,-3781.0964L13999.2919,-3781.1077L13999.3167,-3781.1139L13999.3842,-3781.1251L13999.4062,-3781.128L13999.4388,-3781.1364L13999.4608,-3781.1449L13999.5083,-3781.1657L13999.548,-3781.1882L13999.5707,-3781.2046L13999.6012,-3781.2316L13999.6098,-3781.2405L13999.6246,-3781.2592L13999.6271,-3781.2636L13999.6346,-3781.2767L13999.659,-3781.3382L13999.6665,-3781.3414L13999.6797,-3781.3479L13999.6845,-3781.3512L13999.6897,-3781.356L13999.6974,-3781.3667L13999.704,-3781.3791L13999.7046,-3781.3882L13999.7028,-3781.3958L13999.692,-3781.4083L13999.7019,-3781.4268L13999.7224,-3781.4612L13999.7465,-3781.494L13999.7679,-3781.5165L13999.777,-3781.5255L13999.8119,-3781.5532L13999.836,-3781.569L13999.891,-3781.6007L13999.9958,-3781.6587L14000.046,-3781.6884L14000.0874,-3781.7148L14000.1144,-3781.7355L14000.1404,-3781.7587L14000.1599,-3781.78L14000.1802,-3781.8058L14000.2038,-3781.8432L14000.2249,-3781.8806L14000.2371,-3781.9064L14000.2794,-3782.0379L14000.2858,-3782.0575L14000.3773,-3782.3396L14000.4042,-3782.4269L14000.4126,-3782.451L14000.4177,-3782.4719L14000.4241,-3782.4989L14000.4312,-3782.5474L14000.4319,-3782.5817L14000.4298,-3782.6088L14000.422,-3782.6499L14000.4099,-3782.6899L14000.3979,-3782.7135L14000.2891,-3782.9229L14000.2509,-3782.9957L14000.2261,-3783.0436L14000.2177,-3783.0599L14000.2127,-3783.0763L14000.2091,-3783.1L14000.2091,-3783.1343L14000.2134,-3783.1693L14000.2212,-3783.2076L14000.229,-3783.2436L14000.2318,-3783.2639L14000.2325,-3783.3067L14000.2254,-3783.3365L14000.2141,-3783.372L14000.1743,-3783.4976L14000.1587,-3783.5478L14000.1552,-3783.5686L14000.1552,-3783.6035L14000.1588,-3783.6323L14000.1605,-3783.6681L14000.1597,-3783.6841L14000.1554,-3783.6969L14000.1468,-3783.7135L14000.1108,-3783.7649L14000.0412,-3783.8526L14000.0326,-3783.8657L14000.027,-3783.8808L14000.027,-3783.8981L14000.0299,-3783.9187L14000.0488,-3783.9914L14000.0509,-3784.0081L14000.048,-3784.0253L14000.0422,-3784.0446L14000.0157,-3784.1113L13999.9953,-3784.1568L13999.9854,-3784.1731L13999.9706,-3784.1875L13999.9371,-3784.2117L13999.8803,-3784.2496L13999.8517,-3784.2716L13999.8405,-3784.2833L13999.8344,-3784.2925L13999.8239,-3784.3174L13999.7868,-3784.4016L13999.7763,-3784.4177L13999.7663,-3784.4302L13999.7549,-3784.4445L13999.7337,-3784.4616L13999.7177,-3784.4766L13999.6963,-3784.505L13999.6663,-3784.5508L13999.6471,-3784.5876L13999.6109,-3784.6788L13999.591,-3784.7256L13999.5747,-3784.7571L13999.5569,-3784.7876L13999.5473,-3784.7997L13999.52,-3784.8247L13999.4689,-3784.8709L13999.4592,-3784.8808L13999.4518,-3784.8889L13999.4362,-3784.9121L13999.4298,-3784.9239L13999.4261,-3784.9348L13999.4232,-3784.9432L13999.4071,-3784.9931L13999.3786,-3785.0917L13999.3644,-3785.1188L13999.3616,-3785.1266L13999.3353,-3785.1689L13999.3147,-3785.1948L13999.3012,-3785.21L13999.2828,-3785.2247L13999.2693,-3785.232L13999.2487,-3785.2416L13999.1229,-3785.2906L13999.091,-3785.3013L13999.0725,-3785.3097L13999.042,-3785.3311L13999.0349,-3785.339L13999.0268,-3785.3502L13999.02,-3785.3615L13999.0114,-3785.3818L13998.9987,-3785.4652L13998.9946,-3785.4874L13998.9825,-3785.4854L13998.9701,-3785.4854L13998.9612,-3785.4882L13998.955,-3785.4935L13998.9492,-3785.5005L13998.9479,-3785.5068L13998.9483,-3785.5139L13998.9541,-3785.5216L13998.9643,-3785.5268L13998.9794,-3785.5304L13998.9859,-3785.5311L13998.9803,-3785.5732L13998.9778,-3785.5873L13998.9705,-3785.6315L13998.9574,-3785.6815L13998.9489,-3785.7187L13998.9369,-3785.7609L13998.9248,-3785.802L13998.9084,-3785.8426L13998.8871,-3785.8871L13998.8687,-3785.9181L13998.8566,-3785.9361L13998.8275,-3785.9727L13998.8126,-3785.9902L13998.8039,-3785.9968L13998.7927,-3786.0054L13998.7859,-3786.0105L13998.7699,-3786.02L13998.6994,-3786.052L13998.6795,-3786.0605L13998.6502,-3786.0755L13998.6188,-3786.0972L13998.5934,-3786.12L13998.5779,-3786.1387L13998.5652,-3786.1588L13998.549,-3786.1927L13998.5403,-3786.2109L13998.4858,-3786.336L13998.456,-3786.4059L13998.4496,-3786.4188L13998.4361,-3786.4605L13998.4319,-3786.4842L13998.429,-3786.5146L13998.4304,-3786.5444L13998.434,-3786.563L13998.4411,-3786.5979L13998.4411,-3786.625L13998.439,-3786.6351L13998.4354,-3786.643L13998.4311,-3786.6588L13998.4233,-3786.6886L13998.4113,-3786.7269L13998.3644,-3786.8672L13998.3616,-3786.8788L13998.3616,-3786.8909L13998.3692,-3786.9212L13998.3914,-3786.9945L13998.3992,-3787.0221L13998.3988,-3787.0306L13998.3984,-3787.0396L13998.3899,-3787.0655L13998.3828,-3787.0829L13998.3807,-3787.0869L13998.3636,-3787.1128L13998.326,-3787.155L13998.3019,-3787.1759L13998.2834,-3787.1905L13998.2513,-3787.2144L13998.2124,-3787.2401L13998.1989,-3787.251L13998.1795,-3787.2659L13998.1696,-3787.2771L13998.1586,-3787.2908L13998.1544,-3787.2974L13998.1502,-3787.3045L13998.1465,-3787.3211L13998.1439,-3787.3398L13998.1421,-3787.3573L13998.1421,-3787.3668L13998.1427,-3787.3747L13998.1463,-3787.3923L13998.1534,-3787.413L13998.1577,-3787.4209L13998.1641,-3787.4361L13998.1733,-3787.4507L13998.1889,-3787.4744L13998.1974,-3787.4845L13998.2017,-3787.4913L13998.2038,-3787.493L13998.2145,-3787.5071L13998.2436,-3787.5499L13998.2777,-3787.6039L13998.2818,-3787.6114L13998.3104,-3787.6625L13998.3516,-3787.7431L13998.3707,-3787.7921L13998.3825,-3787.8463L13998.3962,-3787.8963L13998.3985,-3787.9177L13998.4037,-3787.9685L13998.404,-3787.9934L13998.4065,-3788.0145L13998.4069,-3788.0178L13998.4112,-3788.0347L13998.4128,-3788.0396L13998.4141,-3788.0432L13998.42,-3788.0523L13998.4304,-3788.0658L13998.436,-3788.072L13998.4531,-3788.0861L13998.4609,-3788.0923L13998.4758,-3788.103L13998.5021,-3788.1177L13998.5141,-3788.1255L13998.5473,-3788.1439L13998.5589,-3788.1503L13998.588,-3788.1684L13998.5942,-3788.1722"/>
<path content="1,（資）広田タクシー,マスコットくん　1号系統,0.5,0.7,0.7," xlink:title="1" d="M14005.4378,-3788.1344L14005.438,-3788.0892"/>
<path content="1,（資）広田タクシー,マスコットくん　1号系統,0.5,0.7,0.7," xlink:title="1" d="M14005.4378,-3788.1344L14005.3797,-3788.1487L14005.3439,-3788.166L14005.3317,-3788.1719L14005.279,-3788.2038L14005.2695,-3788.2098L14005.2344,-3788.2316L14005.2242,-3788.242L14005.2172,-3788.251L14005.2018,-3788.2828L14005.1962,-3788.2988L14005.1874,-3788.3096L14005.1778,-3788.3154L14005.1613,-3788.3212L14005.1251,-3788.331L14005.0532,-3788.3457L14005.0333,-3788.353L14005.0269,-3788.3582L14005.0184,-3788.3598L14004.9975,-3788.3735L14004.978,-3788.3954L14004.9754,-3788.3984L14004.9311,-3788.4492L14004.9078,-3788.4723L14004.8893,-3788.4871L14004.8813,-3788.4935L14004.8589,-3788.5114L14004.7693,-3788.5853L14004.7024,-3788.6415L14004.6057,-3788.7103L14004.5603,-3788.7428L14004.5426,-3788.7512L14004.5194,-3788.7617L14004.4549,-3788.7854L14004.3812,-3788.815L14004.3705,-3788.8209L14004.3606,-3788.829L14004.311,-3788.8852L14004.3094,-3788.8873L14004.2867,-3788.9173L14004.2646,-3788.9552L14004.2083,-3789.0578L14004.2036,-3789.0686L14004.1999,-3789.0878L14004.1967,-3789.1684L14004.2014,-3789.2058L14004.2094,-3789.2245L14004.2231,-3789.2388L14004.2403,-3789.2501L14004.2865,-3789.2716L14004.3288,-3789.2896L14004.3409,-3789.2987L14004.3483,-3789.308L14004.3538,-3789.3249L14004.3554,-3789.3353L14004.371,-3789.4228L14004.3811,-3789.4876L14004.38,-3789.5011L14004.3751,-3789.5123L14004.3666,-3789.5233L14004.3541,-3789.5333L14004.3365,-3789.5437L14004.2723,-3789.5765L14004.2579,-3789.5867L14004.2495,-3789.5958L14004.2432,-3789.6063L14004.2419,-3789.6201L14004.2469,-3789.719L14004.2451,-3789.7316L14004.2361,-3789.7504L14004.1456,-3789.8981L14004.0873,-3789.981L14004.0355,-3790.0524L14004.02,-3790.0647L14004.0053,-3790.0743L14003.9891,-3790.081L14003.97,-3790.0851L14003.9428,-3790.0868L14003.9402,-3790.0867L14003.9106,-3790.0858L14003.8797,-3790.0826L14003.8599,-3790.0802L14003.8452,-3790.0799L14003.5959,-3790.1047L14003.5756,-3790.1081L14003.5502,-3790.115L14003.4146,-3790.1613L14003.3779,-3790.1733L14003.3445,-3790.1824L14003.3125,-3790.1882L14003.1998,-3790.2126L14003.1258,-3790.2349L14003.1104,-3790.2398L14003.0784,-3790.25L14003.0559,-3790.257L14003.0417,-3790.2643L14003.0259,-3790.2793L14003.0241,-3790.281L14002.9921,-3790.3582L14002.9562,-3790.4553L14002.9488,-3790.4661L14002.8958,-3790.5383L14002.8791,-3790.5608L14002.834,-3790.6211"/>
<path content="1,（資）広田タクシー,マスコットくん　1号系統,0.5,0.7,0.7," xlink:title="1" d="M13998.5942,-3788.1722L13998.6094,-3788.1818L13998.6242,-3788.192L13998.6782,-3788.232L13998.7163,-3788.2655"/>
<path content="1,（資）広田タクシー,マスコットくん　1号系統,0.5,0.7,0.7," xlink:title="1" d="M13998.5942,-3788.1722L13998.6114,-3788.2005L13998.6413,-3788.2342L13998.6619,-3788.2557L13998.6871,-3788.2851"/>
<path content="1,（資）広田タクシー,マスコットくん　1号系統,0.5,0.7,0.7," xlink:title="1" d="M13998.7163,-3788.2655L13998.6871,-3788.2851"/>
<path content="1,（資）広田タクシー,マスコットくん　1号系統,0.5,0.7,0.7," xlink:title="1" d="M13998.6871,-3788.2851L13998.7059,-3788.3069L13998.7329,-3788.3464L13998.7378,-3788.3604L13998.7492,-3788.3852L13998.7663,-3788.4139L13998.7819,-3788.4365L13998.7968,-3788.4551L13998.8081,-3788.4669L13998.8429,-3788.4968L13998.8635,-3788.5091L13998.8834,-3788.5176L13998.8941,-3788.521L13998.9218,-3788.526"/>
<path content="1,（資）広田タクシー,マスコットくん　1号系統,0.5,0.7,0.7," xlink:title="1" d="M13998.9218,-3788.526L13998.9074,-3788.511L13998.9019,-3788.4979L13998.784,-3788.3407L13998.7535,-3788.3041L13998.7413,-3788.2957L13998.7258,-3788.2748L13998.7163,-3788.2655"/>
<path content="1,（資）広田タクシー,マスコットくん　1号系統,0.5,0.7,0.7," xlink:title="1" d="M13998.9218,-3788.526L13998.953,-3788.5638L13998.9764,-3788.588L13998.9929,-3788.6024L13999.0119,-3788.6167L13999.0327,-3788.6291L13999.0522,-3788.6389L13999.0887,-3788.6539L13999.1171,-3788.6629L13999.181,-3788.6787L13999.2548,-3788.69L13999.3038,-3788.7024L13999.3543,-3788.7221L13999.3905,-3788.7412L13999.4126,-3788.7585L13999.4217,-3788.7615L13999.4266,-3788.7645L13999.4324,-3788.7694L13999.5219,-3788.8466L13999.586,-3788.9027L13999.5982,-3788.9138L13999.644,-3788.9554L13999.6531,-3788.9636L13999.666,-3788.9751L13999.6862,-3788.9948L13999.7123,-3789.0173L13999.7605,-3789.0514L13999.7904,-3789.0665L13999.8154,-3789.0762L13999.8498,-3789.0861L13999.8784,-3789.0914L13999.9022,-3789.0946L13999.934,-3789.0937L13999.9639,-3789.0973L13999.9779,-3789.0966L14000.0154,-3789.0943L14000.052,-3789.0903L14000.0921,-3789.0834L14000.2777,-3789.0525L14000.3457,-3789.0409L14000.3811,-3789.0332L14000.4208,-3789.0302L14000.47,-3789.0303L14000.4996,-3789.0326L14000.5421,-3789.0408L14000.5588,-3789.047L14000.6038,-3789.0674L14000.6318,-3789.0821L14000.7134,-3789.1213L14000.8251,-3789.1761L14000.9777,-3789.2526L14001.1675,-3789.3517L14001.2513,-3789.3908L14001.4001,-3789.4604L14001.434,-3789.4783L14001.5443,-3789.5372L14001.6734,-3789.6084L14001.7068,-3789.6269L14001.7536,-3789.6585L14001.8684,-3789.7381L14001.8821,-3789.7477L14001.9792,-3789.8182L14002.0524,-3789.8712L14002.0765,-3789.8873L14002.1415,-3789.9357L14002.2621,-3790.0322L14002.3478,-3790.1025L14002.431,-3790.1724L14002.523,-3790.2475L14002.5353,-3790.2628L14002.5389,-3790.2723L14002.5581,-3790.2952L14002.6018,-3790.3725L14002.6503,-3790.4463L14002.7195,-3790.555L14002.7386,-3790.5744L14002.7538,-3790.5846L14002.7955,-3790.6048L14002.834,-3790.6211"/>
<path content="1,（資）広田タクシー,マスコットくん　1号系統,0.5,0.7,0.7," xlink:title="1" d="M14002.834,-3790.6211L14002.9179,-3790.6582L14002.9606,-3790.676L14003.1976,-3790.7822L14003.3429,-3790.8176L14003.3495,-3790.8172L14003.5566,-3790.8633L14003.5631,-3790.8647L14003.6601,-3790.8874L14003.6899,-3790.8955L14003.7119,-3790.9056L14003.7408,-3790.9211L14003.8121,-3790.9637L14003.8739,-3790.9983L14003.9106,-3791.0197L14004.0135,-3791.0799L14004.0438,-3791.0958L14004.0711,-3791.1051L14004.0931,-3791.1105L14004.1181,-3791.114L14004.1518,-3791.1159L14004.2952,-3791.1196L14004.3737,-3791.1233L14004.4147,-3791.1272L14004.4465,-3791.131L14004.4822,-3791.1388L14004.5365,-3791.1561L14004.5782,-3791.1703L14004.6196,-3791.1877L14004.629,-3791.1916L14004.6593,-3791.2064L14004.6842,-3791.223L14004.7007,-3791.2376L14004.7153,-3791.2465L14004.811,-3791.3317L14004.8421,-3791.3532L14004.8636,-3791.3636L14004.8919,-3791.3718L14005.0754,-3791.4165L14005.2717,-3791.4558L14005.3007,-3791.4648L14005.5104,-3791.5075L14005.561,-3791.5186L14005.582,-3791.5217L14005.6138,-3791.5236L14005.7149,-3791.5186L14005.7899,-3791.5126L14005.8859,-3791.5066L14005.9172,-3791.5054L14005.9519,-3791.5062L14006.0497,-3791.5144L14006.1081,-3791.5184L14006.1325,-3791.5188L14006.1569,-3791.5165L14006.1941,-3791.5107L14006.2422,-3791.5004L14006.2759,-3791.4907L14006.3378,-3791.4603L14006.3808,-3791.4383L14006.4213,-3791.4196L14006.4629,-3791.4049L14006.4873,-3791.3999L14006.5225,-3791.3941L14006.5416,-3791.3928L14006.575,-3791.3947L14006.5995,-3791.3981L14006.6415,-3791.4071L14006.6801,-3791.4202L14006.7375,-3791.4367L14006.7619,-3791.4413L14006.783,-3791.4433L14006.8069,-3791.4441L14006.827,-3791.4425L14006.8582,-3791.439L14006.8778,-3791.4347L14006.9012,-3791.4278L14006.9156,-3791.4226L14006.976,-3791.3983L14007.0583,-3791.3611"/>
<path content="1,（資）広田タクシー,マスコットくん　1号系統,0.5,0.7,0.7," xlink:title="1" d="M14009.7656,-3791.1677L14009.7264,-3791.1696L14009.6108,-3791.1751L14009.4945,-3791.1808L14009.459,-3791.1826L14009.4093,-3791.1864L14009.3664,-3791.1872L14009.2868,-3791.1914L14009.2392,-3791.1939L14009.0927,-3791.2016L14008.9721,-3791.2067L14008.897,-3791.2134L14008.865,-3791.2109L14008.8179,-3791.2134L14008.7955,-3791.2146L14008.7681,-3791.216L14008.5678,-3791.2276L14008.537,-3791.228L14008.4405,-3791.2372L14008.3088,-3791.2377L14008.1548,-3791.2446L14008.0605,-3791.2488L14007.9293,-3791.2526L14007.8854,-3791.2566L14007.8429,-3791.2563L14007.7846,-3791.2564L14007.5789,-3791.2559L14007.539,-3791.2575L14007.5207,-3791.2589L14007.4889,-3791.2664L14007.4248,-3791.2831L14007.4086,-3791.2919L14007.3437,-3791.3049L14007.2515,-3791.3231L14007.2111,-3791.3311L14007.0922,-3791.3559L14007.0583,-3791.3611"/>
<path content="1,（資）広田タクシー,マスコットくん　1号系統,0.5,0.7,0.7," xlink:title="1" d="M14007.0583,-3791.3611L14007.0178,-3791.3019L14006.9592,-3791.2241L14006.902,-3791.1592L14006.8816,-3791.136L14006.8618,-3791.1134L14006.7869,-3791.0446L14006.77,-3791.0273L14006.6328,-3790.8968L14006.6264,-3790.8898L14006.6194,-3790.8822L14006.6117,-3790.8691L14006.5863,-3790.809L14006.5711,-3790.7787L14006.5629,-3790.7668L14006.4809,-3790.6888L14006.4566,-3790.6683L14006.4321,-3790.6408L14006.403,-3790.6165L14006.3213,-3790.5588L14006.2519,-3790.5097L14006.2241,-3790.4869L14006.2175,-3790.4803L14006.2122,-3790.4751L14006.1698,-3790.3963L14006.1192,-3790.3053L14006.1094,-3790.2877L14006.0886,-3790.2528L14006.0722,-3790.23L14006.062,-3790.2211L14006.0557,-3790.2104L14005.9964,-3790.1476L14005.9901,-3790.1409L14005.9231,-3790.0699L14005.8755,-3790.0147L14005.8586,-3789.9919L14005.8431,-3789.9588L14005.8343,-3789.9267L14005.8341,-3789.9187L14005.8388,-3789.8727L14005.8445,-3789.8434L14005.846,-3789.8241L14005.8444,-3789.809L14005.8407,-3789.7944L14005.8334,-3789.7793L14005.8261,-3789.7667L14005.8133,-3789.7527L14005.7588,-3789.703L14005.6674,-3789.6226L14005.5864,-3789.5508L14005.5746,-3789.5387L14005.568,-3789.5263L14005.5605,-3789.5079L14005.5518,-3789.4741L14005.5362,-3789.3987L14005.5283,-3789.3479L14005.524,-3789.3048L14005.5231,-3789.238L14005.5254,-3789.2029L14005.5423,-3789.1005L14005.5596,-3788.9952L14005.5621,-3788.9644L14005.561,-3788.9388L14005.5588,-3788.9203L14005.541,-3788.8013L14005.5258,-3788.6919L14005.5242,-3788.6519L14005.5261,-3788.6363L14005.5307,-3788.6218L14005.564,-3788.5479L14005.5681,-3788.536L14005.5681,-3788.5253L14005.5664,-3788.5112L14005.5619,-3788.4922L14005.5531,-3788.4682L14005.5296,-3788.4187L14005.524,-3788.4069L14005.4786,-3788.3233L14005.4574,-3788.2844L14005.4534,-3788.2732L14005.4512,-3788.2619L14005.4407,-3788.1618L14005.4378,-3788.1344"/>
<path content="1,（資）広田タクシー,マスコットくん　1号系統,0.5,0.7,0.7," xlink:title="1" d="M14007.0583,-3791.3611L14007.1338,-3791.4614L14007.1574,-3791.4919L14007.18,-3791.5123L14007.1996,-3791.529L14007.2096,-3791.5347L14007.2217,-3791.5416L14007.2505,-3791.5579L14007.2853,-3791.5734L14007.3595,-3791.6064L14007.4449,-3791.6426L14007.5204,-3791.6745L14007.7767,-3791.7835L14007.8834,-3791.8247L14007.9353,-3791.8448L14008.0719,-3791.8948L14008.1016,-3791.9053L14008.2191,-3791.9482L14008.2654,-3791.965L14008.2705,-3791.9673L14008.2748,-3791.9692L14008.3144,-3791.9856L14008.3409,-3791.9966L14008.6707,-3792.1246L14008.6964,-3792.1346L14008.9399,-3792.2249L14008.9854,-3792.2424L14009.0293,-3792.2584L14009.0911,-3792.2782L14009.1372,-3792.2895L14009.2034,-3792.3041L14009.2332,-3792.3097L14009.2553,-3792.3137L14009.3449,-3792.3261L14009.3854,-3792.3306L14009.4487,-3792.3346L14009.5482,-3792.3379L14009.7656,-3792.3351"/>
<path content="1,（資）広田タクシー,マスコットくん　2号系統,0.5,0.7,0.7," xlink:title="1" d="M13994.7255,-3779.2969L13994.7618,-3779.3123L13994.9591,-3779.3963L13995.1164,-3779.4633L13995.6265,-3779.6782L13995.9423,-3779.8124L13995.9953,-3779.8349L13996.1536,-3779.9019L13996.3854,-3780L13996.9701,-3780.2494L13997.1358,-3780.3196L13997.7333,-3780.5726L13998.0539,-3780.7079L13998.1192,-3780.7354L13998.2017,-3780.7699L13998.2209,-3780.7779L13998.2336,-3780.7832L13998.3003,-3780.8097L13998.3307,-3780.8198L13998.3924,-3780.8339L13998.403,-3780.8357L13998.4059,-3780.8362L13998.4357,-3780.8412L13998.4769,-3780.8458L13998.5801,-3780.8494L13998.6245,-3780.8537L13998.6656,-3780.8626L13998.7528,-3780.8891L13998.794,-3780.8998L13998.8301,-3780.9071L13998.8876,-3780.9162L13998.9238,-3780.9235L13998.9656,-3780.9348L13999.0033,-3780.9466L13999.0323,-3780.9595L13999.0529,-3780.9702L13999.1089,-3781.0063L13999.1778,-3781.0547L13999.2026,-3781.0694L13999.2352,-3781.0863L13999.26,-3781.0964L13999.2919,-3781.1077L13999.3167,-3781.1139L13999.3842,-3781.1251L13999.4062,-3781.128L13999.4388,-3781.1364L13999.4608,-3781.1449L13999.5083,-3781.1657L13999.548,-3781.1882L13999.5707,-3781.2046L13999.6012,-3781.2316L13999.6098,-3781.2405L13999.6246,-3781.2592L13999.6271,-3781.2636L13999.6346,-3781.2767L13999.659,-3781.3382L13999.6665,-3781.3414L13999.6797,-3781.3479L13999.6845,-3781.3512L13999.6897,-3781.356L13999.6974,-3781.3667L13999.704,-3781.3791L13999.7046,-3781.3882L13999.7028,-3781.3958L13999.692,-3781.4083L13999.7019,-3781.4268L13999.7224,-3781.4612L13999.7465,-3781.494L13999.7679,-3781.5165L13999.777,-3781.5255L13999.8119,-3781.5532L13999.836,-3781.569L13999.891,-3781.6007L13999.9958,-3781.6587L14000.046,-3781.6884L14000.0874,-3781.7148L14000.1144,-3781.7355L14000.1404,-3781.7587L14000.1599,-3781.78L14000.1802,-3781.8058L14000.2038,-3781.8432L14000.2249,-3781.8806L14000.2371,-3781.9064L14000.2794,-3782.0379L14000.2858,-3782.0575L14000.3773,-3782.3396L14000.4042,-3782.4269L14000.4126,-3782.451L14000.4177,-3782.4719L14000.4241,-3782.4989L14000.4312,-3782.5474L14000.4319,-3782.5817L14000.4298,-3782.6088L14000.422,-3782.6499L14000.4099,-3782.6899L14000.3979,-3782.7135L14000.2891,-3782.9229L14000.2509,-3782.9957L14000.2261,-3783.0436L14000.2177,-3783.0599L14000.2127,-3783.0763L14000.2091,-3783.1L14000.2091,-3783.1343L14000.2134,-3783.1693L14000.2212,-3783.2076L14000.229,-3783.2436L14000.2318,-3783.2639L14000.2325,-3783.3067L14000.2254,-3783.3365L14000.2141,-3783.372L14000.1743,-3783.4976L14000.1587,-3783.5478L14000.1552,-3783.5686L14000.1552,-3783.6035L14000.1588,-3783.6323L14000.1605,-3783.6681L14000.1597,-3783.6841L14000.1554,-3783.6969L14000.1468,-3783.7135L14000.1108,-3783.7649L14000.0412,-3783.8526L14000.0326,-3783.8657L14000.027,-3783.8808L14000.027,-3783.8981L14000.0299,-3783.9187L14000.0488,-3783.9914L14000.0509,-3784.0081L14000.048,-3784.0253L14000.0422,-3784.0446L14000.0157,-3784.1113L13999.9953,-3784.1568L13999.9854,-3784.1731L13999.9706,-3784.1875L13999.9371,-3784.2117L13999.8803,-3784.2496L13999.8517,-3784.2716L13999.8405,-3784.2833L13999.8344,-3784.2925L13999.8239,-3784.3174L13999.7868,-3784.4016L13999.7763,-3784.4177L13999.7663,-3784.4302L13999.7549,-3784.4445L13999.7337,-3784.4616L13999.7177,-3784.4766L13999.6963,-3784.505L13999.6663,-3784.5508L13999.6471,-3784.5876L13999.6109,-3784.6788L13999.591,-3784.7256L13999.5747,-3784.7571L13999.5569,-3784.7876L13999.5473,-3784.7997L13999.52,-3784.8247L13999.4689,-3784.8709L13999.4592,-3784.8808L13999.4518,-3784.8889L13999.4362,-3784.9121L13999.4298,-3784.9239L13999.4261,-3784.9348L13999.4232,-3784.9432L13999.4071,-3784.9931L13999.3786,-3785.0917L13999.3644,-3785.1188L13999.3616,-3785.1266L13999.3353,-3785.1689L13999.3147,-3785.1948L13999.3012,-3785.21L13999.2828,-3785.2247L13999.2693,-3785.232L13999.2487,-3785.2416L13999.1229,-3785.2906L13999.091,-3785.3013L13999.0725,-3785.3097L13999.042,-3785.3311L13999.0349,-3785.339L13999.0268,-3785.3502L13999.02,-3785.3615L13999.0114,-3785.3818L13998.9987,-3785.4652L13998.9946,-3785.4874L13998.9825,-3785.4854L13998.9701,-3785.4854L13998.9612,-3785.4882L13998.955,-3785.4935L13998.9492,-3785.5005L13998.9479,-3785.5068L13998.9483,-3785.5139L13998.9541,-3785.5216L13998.9643,-3785.5268L13998.9794,-3785.5304L13998.9859,-3785.5311L13998.9803,-3785.5732L13998.9778,-3785.5873L13998.9705,-3785.6315L13998.9574,-3785.6815L13998.9489,-3785.7187L13998.9369,-3785.7609L13998.9248,-3785.802L13998.9084,-3785.8426L13998.8871,-3785.8871L13998.8687,-3785.9181L13998.8566,-3785.9361L13998.8275,-3785.9727L13998.8126,-3785.9902L13998.8039,-3785.9968L13998.7927,-3786.0054L13998.7859,-3786.0105L13998.7699,-3786.02L13998.6994,-3786.052L13998.6795,-3786.0605L13998.6502,-3786.0755L13998.6188,-3786.0972L13998.5934,-3786.12L13998.5779,-3786.1387L13998.5652,-3786.1588L13998.549,-3786.1927L13998.5403,-3786.2109L13998.4858,-3786.336L13998.456,-3786.4059L13998.4496,-3786.4188L13998.4361,-3786.4605L13998.4319,-3786.4842L13998.429,-3786.5146L13998.4304,-3786.5444L13998.434,-3786.563L13998.4411,-3786.5979L13998.4411,-3786.625L13998.439,-3786.6351L13998.4354,-3786.643L13998.4311,-3786.6588L13998.4233,-3786.6886L13998.4113,-3786.7269L13998.3644,-3786.8672L13998.3616,-3786.8788L13998.3616,-3786.8909L13998.3692,-3786.9212L13998.3914,-3786.9945L13998.3992,-3787.0221L13998.3988,-3787.0306L13998.3984,-3787.0396L13998.3899,-3787.0655L13998.3828,-3787.0829L13998.3807,-3787.0869L13998.3636,-3787.1128L13998.326,-3787.155L13998.3019,-3787.1759L13998.2834,-3787.1905L13998.2513,-3787.2144L13998.2124,-3787.2401L13998.1989,-3787.251L13998.1795,-3787.2659L13998.1696,-3787.2771L13998.1586,-3787.2908L13998.1544,-3787.2974L13998.1502,-3787.3045L13998.1465,-3787.3211L13998.1439,-3787.3398L13998.1421,-3787.3573L13998.1421,-3787.3668L13998.1427,-3787.3747L13998.1463,-3787.3923L13998.1534,-3787.413L13998.1577,-3787.4209L13998.1641,-3787.4361L13998.1733,-3787.4507L13998.1889,-3787.4744L13998.1974,-3787.4845L13998.2017,-3787.4913L13998.2038,-3787.493L13998.2145,-3787.5071L13998.2436,-3787.5499L13998.2777,-3787.6039L13998.2818,-3787.6114L13998.3104,-3787.6625L13998.3516,-3787.7431L13998.3707,-3787.7921L13998.3825,-3787.8463L13998.3962,-3787.8963L13998.3985,-3787.9177L13998.4037,-3787.9685L13998.404,-3787.9934L13998.4065,-3788.0145L13998.4069,-3788.0178L13998.4112,-3788.0347L13998.4128,-3788.0396L13998.4141,-3788.0432L13998.42,-3788.0523L13998.4304,-3788.0658L13998.436,-3788.072L13998.4531,-3788.0861L13998.4609,-3788.0923L13998.4758,-3788.103L13998.5021,-3788.1177L13998.5141,-3788.1255L13998.5473,-3788.1439L13998.5589,-3788.1503L13998.588,-3788.1684L13998.5942,-3788.1722"/>
<path content="1,（資）広田タクシー,マスコットくん　2号系統,0.5,0.7,0.7," xlink:title="1" d="M14005.4378,-3788.1344L14005.438,-3788.0892"/>
<path content="1,（資）広田タクシー,マスコットくん　2号系統,0.5,0.7,0.7," xlink:title="1" d="M14005.4378,-3788.1344L14005.3797,-3788.1487L14005.3439,-3788.166L14005.3317,-3788.1719L14005.279,-3788.2038L14005.2695,-3788.2098L14005.2344,-3788.2316L14005.2242,-3788.242L14005.2172,-3788.251L14005.2018,-3788.2828L14005.1962,-3788.2988L14005.1874,-3788.3096L14005.1778,-3788.3154L14005.1613,-3788.3212L14005.1251,-3788.331L14005.0532,-3788.3457L14005.0333,-3788.353L14005.0269,-3788.3582L14005.0184,-3788.3598L14004.9975,-3788.3735L14004.978,-3788.3954L14004.9754,-3788.3984L14004.9311,-3788.4492L14004.9078,-3788.4723L14004.8893,-3788.4871L14004.8813,-3788.4935L14004.8589,-3788.5114L14004.7693,-3788.5853L14004.7024,-3788.6415L14004.6057,-3788.7103L14004.5603,-3788.7428L14004.5426,-3788.7512L14004.5194,-3788.7617L14004.4549,-3788.7854L14004.3812,-3788.815L14004.3705,-3788.8209L14004.3606,-3788.829L14004.311,-3788.8852L14004.3094,-3788.8873L14004.2867,-3788.9173L14004.2646,-3788.9552L14004.2083,-3789.0578L14004.2036,-3789.0686L14004.1999,-3789.0878L14004.1967,-3789.1684L14004.2014,-3789.2058L14004.2094,-3789.2245L14004.2231,-3789.2388L14004.2403,-3789.2501L14004.2865,-3789.2716L14004.3288,-3789.2896L14004.3409,-3789.2987L14004.3483,-3789.308L14004.3538,-3789.3249L14004.3554,-3789.3353L14004.371,-3789.4228L14004.3811,-3789.4876L14004.38,-3789.5011L14004.3751,-3789.5123L14004.3666,-3789.5233L14004.3541,-3789.5333L14004.3365,-3789.5437L14004.2723,-3789.5765L14004.2579,-3789.5867L14004.2495,-3789.5958L14004.2432,-3789.6063L14004.2419,-3789.6201L14004.2469,-3789.719L14004.2451,-3789.7316L14004.2361,-3789.7504L14004.1456,-3789.8981L14004.0873,-3789.981L14004.0355,-3790.0524L14004.02,-3790.0647L14004.0053,-3790.0743L14003.9891,-3790.081L14003.97,-3790.0851L14003.9428,-3790.0868L14003.9402,-3790.0867L14003.9106,-3790.0858L14003.8797,-3790.0826L14003.8599,-3790.0802L14003.8452,-3790.0799L14003.5959,-3790.1047L14003.5756,-3790.1081L14003.5502,-3790.115L14003.4146,-3790.1613L14003.3779,-3790.1733L14003.3445,-3790.1824L14003.3125,-3790.1882L14003.1998,-3790.2126L14003.1258,-3790.2349L14003.1104,-3790.2398L14003.0784,-3790.25L14003.0559,-3790.257L14003.0417,-3790.2643L14003.0259,-3790.2793L14003.0241,-3790.281L14002.9921,-3790.3582L14002.9562,-3790.4553L14002.9488,-3790.4661L14002.8958,-3790.5383L14002.8791,-3790.5608L14002.834,-3790.6211"/>
<path content="1,（資）広田タクシー,マスコットくん　2号系統,0.5,0.7,0.7," xlink:title="1" d="M13998.5942,-3788.1722L13998.6094,-3788.1818L13998.6242,-3788.192L13998.6782,-3788.232L13998.7163,-3788.2655"/>
<path content="1,（資）広田タクシー,マスコットくん　2号系統,0.5,0.7,0.7," xlink:title="1" d="M13998.5942,-3788.1722L13998.6114,-3788.2005L13998.6413,-3788.2342L13998.6619,-3788.2557L13998.6871,-3788.2851"/>
<path content="1,（資）広田タクシー,マスコットくん　2号系統,0.5,0.7,0.7," xlink:title="1" d="M13998.7163,-3788.2655L13998.6871,-3788.2851"/>
<path content="1,（資）広田タクシー,マスコットくん　2号系統,0.5,0.7,0.7," xlink:title="1" d="M13998.6871,-3788.2851L13998.7059,-3788.3069L13998.7329,-3788.3464L13998.7378,-3788.3604L13998.7492,-3788.3852L13998.7663,-3788.4139L13998.7819,-3788.4365L13998.7968,-3788.4551L13998.8081,-3788.4669L13998.8429,-3788.4968L13998.8635,-3788.5091L13998.8834,-3788.5176L13998.8941,-3788.521L13998.9218,-3788.526"/>
<path content="1,（資）広田タクシー,マスコットくん　2号系統,0.5,0.7,0.7," xlink:title="1" d="M13998.9218,-3788.526L13998.9074,-3788.511L13998.9019,-3788.4979L13998.784,-3788.3407L13998.7535,-3788.3041L13998.7413,-3788.2957L13998.7258,-3788.2748L13998.7163,-3788.2655"/>
<path content="1,（資）広田タクシー,マスコットくん　2号系統,0.5,0.7,0.7," xlink:title="1" d="M13998.9218,-3788.526L13998.953,-3788.5638L13998.9764,-3788.588L13998.9929,-3788.6024L13999.0119,-3788.6167L13999.0327,-3788.6291L13999.0522,-3788.6389L13999.0887,-3788.6539L13999.1171,-3788.6629L13999.181,-3788.6787L13999.2548,-3788.69L13999.3038,-3788.7024L13999.3543,-3788.7221L13999.3905,-3788.7412L13999.4126,-3788.7585L13999.4217,-3788.7615L13999.4266,-3788.7645L13999.4324,-3788.7694L13999.5219,-3788.8466L13999.586,-3788.9027L13999.5982,-3788.9138L13999.644,-3788.9554L13999.6531,-3788.9636L13999.666,-3788.9751L13999.6862,-3788.9948L13999.7123,-3789.0173L13999.7605,-3789.0514L13999.7904,-3789.0665L13999.8154,-3789.0762L13999.8498,-3789.0861L13999.8784,-3789.0914L13999.9022,-3789.0946L13999.934,-3789.0937L13999.9639,-3789.0973L13999.9779,-3789.0966L14000.0154,-3789.0943L14000.052,-3789.0903L14000.0921,-3789.0834L14000.2777,-3789.0525L14000.3457,-3789.0409L14000.3811,-3789.0332L14000.4208,-3789.0302L14000.47,-3789.0303L14000.4996,-3789.0326L14000.5421,-3789.0408L14000.5588,-3789.047L14000.6038,-3789.0674L14000.6318,-3789.0821L14000.7134,-3789.1213L14000.8251,-3789.1761L14000.9777,-3789.2526L14001.1675,-3789.3517L14001.2513,-3789.3908L14001.4001,-3789.4604L14001.434,-3789.4783L14001.5443,-3789.5372L14001.6734,-3789.6084L14001.7068,-3789.6269L14001.7536,-3789.6585L14001.8684,-3789.7381L14001.8821,-3789.7477L14001.9792,-3789.8182L14002.0524,-3789.8712L14002.0765,-3789.8873L14002.1415,-3789.9357L14002.2621,-3790.0322L14002.3478,-3790.1025L14002.431,-3790.1724L14002.523,-3790.2475L14002.5353,-3790.2628L14002.5389,-3790.2723L14002.5581,-3790.2952L14002.6018,-3790.3725L14002.6503,-3790.4463L14002.7195,-3790.555L14002.7386,-3790.5744L14002.7538,-3790.5846L14002.7955,-3790.6048L14002.834,-3790.6211"/>
<path content="1,（資）広田タクシー,マスコットくん　2号系統,0.5,0.7,0.7," xlink:title="1" d="M14002.834,-3790.6211L14002.9179,-3790.6582L14002.9606,-3790.676L14003.1976,-3790.7822L14003.3429,-3790.8176L14003.3495,-3790.8172L14003.5566,-3790.8633L14003.5631,-3790.8647L14003.6601,-3790.8874L14003.6899,-3790.8955L14003.7119,-3790.9056L14003.7408,-3790.9211L14003.8121,-3790.9637L14003.8739,-3790.9983L14003.9106,-3791.0197L14004.0135,-3791.0799L14004.0438,-3791.0958L14004.0711,-3791.1051L14004.0931,-3791.1105L14004.1181,-3791.114L14004.1518,-3791.1159L14004.2952,-3791.1196L14004.3737,-3791.1233L14004.4147,-3791.1272L14004.4465,-3791.131L14004.4822,-3791.1388L14004.5365,-3791.1561L14004.5782,-3791.1703L14004.6196,-3791.1877L14004.629,-3791.1916L14004.6593,-3791.2064L14004.6842,-3791.223L14004.7007,-3791.2376L14004.7153,-3791.2465L14004.811,-3791.3317L14004.8421,-3791.3532L14004.8636,-3791.3636L14004.8919,-3791.3718L14005.0754,-3791.4165L14005.2717,-3791.4558L14005.3007,-3791.4648L14005.5104,-3791.5075L14005.561,-3791.5186L14005.582,-3791.5217L14005.6138,-3791.5236L14005.7149,-3791.5186L14005.7899,-3791.5126L14005.8859,-3791.5066L14005.9172,-3791.5054L14005.9519,-3791.5062L14006.0497,-3791.5144L14006.1081,-3791.5184L14006.1325,-3791.5188L14006.1569,-3791.5165L14006.1941,-3791.5107L14006.2422,-3791.5004L14006.2759,-3791.4907L14006.3378,-3791.4603L14006.3808,-3791.4383L14006.4213,-3791.4196L14006.4629,-3791.4049L14006.4873,-3791.3999L14006.5225,-3791.3941L14006.5416,-3791.3928L14006.575,-3791.3947L14006.5995,-3791.3981L14006.6415,-3791.4071L14006.6801,-3791.4202L14006.7375,-3791.4367L14006.7619,-3791.4413L14006.783,-3791.4433L14006.8069,-3791.4441L14006.827,-3791.4425L14006.8582,-3791.439L14006.8778,-3791.4347L14006.9012,-3791.4278L14006.9156,-3791.4226L14006.976,-3791.3983L14007.0583,-3791.3611"/>
<path content="1,（資）広田タクシー,マスコットくん　2号系統,0.5,0.7,0.7," xlink:title="1" d="M14009.7656,-3791.1677L14009.7264,-3791.1696L14009.6108,-3791.1751L14009.4945,-3791.1808L14009.459,-3791.1826L14009.4093,-3791.1864L14009.3664,-3791.1872L14009.2868,-3791.1914L14009.2392,-3791.1939L14009.0927,-3791.2016L14008.9721,-3791.2067L14008.897,-3791.2134L14008.865,-3791.2109L14008.8179,-3791.2134L14008.7955,-3791.2146L14008.7681,-3791.216L14008.5678,-3791.2276L14008.537,-3791.228L14008.4405,-3791.2372L14008.3088,-3791.2377L14008.1548,-3791.2446L14008.0605,-3791.2488L14007.9293,-3791.2526L14007.8854,-3791.2566L14007.8429,-3791.2563L14007.7846,-3791.2564L14007.5789,-3791.2559L14007.539,-3791.2575L14007.5207,-3791.2589L14007.4889,-3791.2664L14007.4248,-3791.2831L14007.4086,-3791.2919L14007.3437,-3791.3049L14007.2515,-3791.3231L14007.2111,-3791.3311L14007.0922,-3791.3559L14007.0583,-3791.3611"/>
<path content="1,（資）広田タクシー,マスコットくん　2号系統,0.5,0.7,0.7," xlink:title="1" d="M14007.0583,-3791.3611L14007.0178,-3791.3019L14006.9592,-3791.2241L14006.902,-3791.1592L14006.8816,-3791.136L14006.8618,-3791.1134L14006.7869,-3791.0446L14006.77,-3791.0273L14006.6328,-3790.8968L14006.6264,-3790.8898L14006.6194,-3790.8822L14006.6117,-3790.8691L14006.5863,-3790.809L14006.5711,-3790.7787L14006.5629,-3790.7668L14006.4809,-3790.6888L14006.4566,-3790.6683L14006.4321,-3790.6408L14006.403,-3790.6165L14006.3213,-3790.5588L14006.2519,-3790.5097L14006.2241,-3790.4869L14006.2175,-3790.4803L14006.2122,-3790.4751L14006.1698,-3790.3963L14006.1192,-3790.3053L14006.1094,-3790.2877L14006.0886,-3790.2528L14006.0722,-3790.23L14006.062,-3790.2211L14006.0557,-3790.2104L14005.9964,-3790.1476L14005.9901,-3790.1409L14005.9231,-3790.0699L14005.8755,-3790.0147L14005.8586,-3789.9919L14005.8431,-3789.9588L14005.8343,-3789.9267L14005.8341,-3789.9187L14005.8388,-3789.8727L14005.8445,-3789.8434L14005.846,-3789.8241L14005.8444,-3789.809L14005.8407,-3789.7944L14005.8334,-3789.7793L14005.8261,-3789.7667L14005.8133,-3789.7527L14005.7588,-3789.703L14005.6674,-3789.6226L14005.5864,-3789.5508L14005.5746,-3789.5387L14005.568,-3789.5263L14005.5605,-3789.5079L14005.5518,-3789.4741L14005.5362,-3789.3987L14005.5283,-3789.3479L14005.524,-3789.3048L14005.5231,-3789.238L14005.5254,-3789.2029L14005.5423,-3789.1005L14005.5596,-3788.9952L14005.5621,-3788.9644L14005.561,-3788.9388L14005.5588,-3788.9203L14005.541,-3788.8013L14005.5258,-3788.6919L14005.5242,-3788.6519L14005.5261,-3788.6363L14005.5307,-3788.6218L14005.564,-3788.5479L14005.5681,-3788.536L14005.5681,-3788.5253L14005.5664,-3788.5112L14005.5619,-3788.4922L14005.5531,-3788.4682L14005.5296,-3788.4187L14005.524,-3788.4069L14005.4786,-3788.3233L14005.4574,-3788.2844L14005.4534,-3788.2732L14005.4512,-3788.2619L14005.4407,-3788.1618L14005.4378,-3788.1344"/>
<path content="1,（資）広田タクシー,マスコットくん　2号系統,0.5,0.7,0.7," xlink:title="1" d="M14007.0583,-3791.3611L14007.1338,-3791.4614L14007.1574,-3791.4919L14007.18,-3791.5123L14007.1996,-3791.529L14007.2096,-3791.5347L14007.2217,-3791.5416L14007.2505,-3791.5579L14007.2853,-3791.5734L14007.3595,-3791.6064L14007.4449,-3791.6426L14007.5204,-3791.6745L14007.7767,-3791.7835L14007.8834,-3791.8247L14007.9353,-3791.8448L14008.0719,-3791.8948L14008.1016,-3791.9053L14008.2191,-3791.9482L14008.2654,-3791.965L14008.2705,-3791.9673L14008.2748,-3791.9692L14008.3144,-3791.9856L14008.3409,-3791.9966L14008.6707,-3792.1246L14008.6964,-3792.1346L14008.9399,-3792.2249L14008.9854,-3792.2424L14009.0293,-3792.2584L14009.0911,-3792.2782L14009.1372,-3792.2895L14009.2034,-3792.3041L14009.2332,-3792.3097L14009.2553,-3792.3137L14009.3449,-3792.3261L14009.3854,-3792.3306L14009.4487,-3792.3346L14009.5482,-3792.3379L14009.7656,-3792.3351"/>
<path content="3,米沢市,米沢・田沢線,4.0,4.0,0.0," xlink:title="3" d="M13999.4592,-3784.8808L13999.4518,-3784.8889L13999.4362,-3784.9121L13999.4298,-3784.9239L13999.4261,-3784.9348L13999.4232,-3784.9432L13999.4071,-3784.9931L13999.3786,-3785.0917L13999.3644,-3785.1188L13999.3616,-3785.1266L13999.3353,-3785.1689L13999.3147,-3785.1948L13999.3012,-3785.21L13999.2828,-3785.2247L13999.2693,-3785.232L13999.2487,-3785.2416L13999.1229,-3785.2906L13999.091,-3785.3013L13999.0725,-3785.3097L13999.042,-3785.3311L13999.0349,-3785.339L13999.0268,-3785.3502L13999.02,-3785.3615L13999.0114,-3785.3818L13998.9987,-3785.4652L13998.9946,-3785.4874L13998.9916,-3785.4998L13998.9881,-3785.5141L13998.9859,-3785.5311L13998.9803,-3785.5732L13998.9778,-3785.5873L13998.9705,-3785.6315L13998.9574,-3785.6815L13998.9489,-3785.7187L13998.9369,-3785.7609L13998.9248,-3785.802L13998.9084,-3785.8426L13998.8871,-3785.8871L13998.8687,-3785.9181L13998.8566,-3785.9361L13998.8275,-3785.9727L13998.8126,-3785.9902L13998.8039,-3785.9968L13998.7927,-3786.0054L13998.7859,-3786.0105L13998.7699,-3786.02L13998.6994,-3786.052L13998.6795,-3786.0605L13998.6502,-3786.0755L13998.6188,-3786.0972L13998.5934,-3786.12L13998.5779,-3786.1387L13998.5652,-3786.1588L13998.549,-3786.1927L13998.5403,-3786.2109L13998.4858,-3786.336L13998.456,-3786.4059L13998.4496,-3786.4188L13998.4361,-3786.4605L13998.4319,-3786.4842L13998.429,-3786.5146L13998.4304,-3786.5444L13998.434,-3786.563L13998.4411,-3786.5979L13998.4411,-3786.625L13998.439,-3786.6351L13998.4354,-3786.643L13998.4311,-3786.6588L13998.4233,-3786.6886L13998.4113,-3786.7269L13998.3644,-3786.8672L13998.3616,-3786.8788L13998.3616,-3786.8909L13998.3692,-3786.9212L13998.3914,-3786.9945L13998.3992,-3787.0221L13998.3988,-3787.0306L13998.3984,-3787.0396L13998.3899,-3787.0655L13998.3828,-3787.0829L13998.3807,-3787.0869L13998.3636,-3787.1128L13998.326,-3787.155L13998.3019,-3787.1759L13998.2834,-3787.1905L13998.2514,-3787.2136L13998.2513,-3787.2144L13998.2124,-3787.2401L13998.1989,-3787.251L13998.1795,-3787.2659L13998.1696,-3787.2771L13998.1586,-3787.2908L13998.1544,-3787.2974L13998.1502,-3787.3045L13998.1465,-3787.3211L13998.1439,-3787.3398L13998.1421,-3787.3573L13998.1421,-3787.3668L13998.1427,-3787.3747L13998.1463,-3787.3923L13998.1534,-3787.413L13998.1577,-3787.4209L13998.1641,-3787.4361L13998.1733,-3787.4507L13998.1889,-3787.4744L13998.1974,-3787.4845L13998.2017,-3787.4913L13998.2038,-3787.493L13998.2145,-3787.5071L13998.2436,-3787.5499L13998.2777,-3787.6039L13998.2818,-3787.6114L13998.3104,-3787.6625L13998.3516,-3787.7431L13998.3707,-3787.7921L13998.3825,-3787.8463L13998.3962,-3787.8963L13998.3985,-3787.9177L13998.4037,-3787.9685L13998.404,-3787.9934L13998.4065,-3788.0145L13998.4069,-3788.0178L13998.4112,-3788.0347L13998.4128,-3788.0396L13998.4141,-3788.0432L13998.42,-3788.0523L13998.4304,-3788.0658L13998.436,-3788.072L13998.4531,-3788.0861L13998.4609,-3788.0923L13998.4758,-3788.103L13998.5021,-3788.1177L13998.5141,-3788.1255L13998.5473,-3788.1439L13998.5589,-3788.1503L13998.588,-3788.1684L13998.5942,-3788.1722L13998.6094,-3788.1818L13998.6242,-3788.192L13998.6782,-3788.232L13998.7163,-3788.2655L13998.7258,-3788.2748L13998.7413,-3788.2957L13998.7535,-3788.3041L13998.784,-3788.3407L13998.9019,-3788.4979L13998.9074,-3788.511L13998.9218,-3788.526L13998.953,-3788.5638L13998.9764,-3788.588L13998.9929,-3788.6024L13999.0119,-3788.6167L13999.0327,-3788.6291L13999.0522,-3788.6389L13999.0887,-3788.6539L13999.1171,-3788.6629L13999.181,-3788.6787L13999.2548,-3788.69L13999.3038,-3788.7024L13999.3543,-3788.7221L13999.3905,-3788.7412L13999.4126,-3788.7585L13999.4217,-3788.7615L13999.4266,-3788.7645L13999.4324,-3788.7694L13999.5219,-3788.8466L13999.586,-3788.9027L13999.5982,-3788.9138L13999.644,-3788.9554L13999.6531,-3788.9636L13999.666,-3788.9751L13999.6862,-3788.9948L13999.7123,-3789.0173L13999.7605,-3789.0514L13999.7904,-3789.0665L13999.8154,-3789.0762L13999.8498,-3789.0861L13999.8784,-3789.0914L13999.9022,-3789.0946L13999.934,-3789.0937L13999.9639,-3789.0973L13999.9779,-3789.0966L14000.0154,-3789.0943L14000.052,-3789.0903L14000.0921,-3789.0834L14000.2777,-3789.0525L14000.3457,-3789.0409L14000.3811,-3789.0332L14000.4208,-3789.0302L14000.47,-3789.0303L14000.4996,-3789.0326L14000.5421,-3789.0408L14000.5588,-3789.047L14000.6038,-3789.0674L14000.6318,-3789.0821L14000.7134,-3789.1213L14000.8251,-3789.1761L14000.9777,-3789.2526L14001.1675,-3789.3517L14001.2513,-3789.3908L14001.4001,-3789.4604L14001.434,-3789.4783L14001.5443,-3789.5372L14001.6734,-3789.6084L14001.7068,-3789.6269L14001.7536,-3789.6585L14001.8684,-3789.7381L14001.8821,-3789.7477L14001.9792,-3789.8182L14002.0524,-3789.8712L14002.0765,-3789.8873L14002.1415,-3789.9357L14002.2621,-3790.0322L14002.3478,-3790.1025L14002.431,-3790.1724L14002.523,-3790.2475L14002.5353,-3790.2628L14002.5389,-3790.2723L14002.5581,-3790.2952L14002.6018,-3790.3725L14002.6503,-3790.4463L14002.7195,-3790.555L14002.7386,-3790.5744L14002.7538,-3790.5846L14002.7955,-3790.6048L14002.834,-3790.6211L14002.9179,-3790.6582L14002.9606,-3790.676L14003.1976,-3790.7822L14003.3429,-3790.8176L14003.3495,-3790.8172L14003.5566,-3790.8633L14003.5631,-3790.8647L14003.6601,-3790.8874L14003.6899,-3790.8955L14003.7119,-3790.9056L14003.7408,-3790.9211L14003.8121,-3790.9637L14003.8739,-3790.9983L14003.9106,-3791.0197L14004.0135,-3791.0799L14004.0438,-3791.0958L14004.0711,-3791.1051L14004.0931,-3791.1105L14004.1181,-3791.114L14004.1518,-3791.1159L14004.2952,-3791.1196L14004.3737,-3791.1233L14004.4147,-3791.1272L14004.4465,-3791.131L14004.4822,-3791.1388L14004.5365,-3791.1561L14004.5782,-3791.1703L14004.6196,-3791.1877L14004.629,-3791.1916L14004.6593,-3791.2064L14004.6842,-3791.223L14004.7007,-3791.2376L14004.7153,-3791.2465L14004.811,-3791.3317L14004.8421,-3791.3532L14004.8636,-3791.3636L14004.8919,-3791.3718L14005.0754,-3791.4165L14005.2717,-3791.4558L14005.3007,-3791.4648L14005.5104,-3791.5075L14005.561,-3791.5186L14005.582,-3791.5217L14005.6138,-3791.5236L14005.7149,-3791.5186L14005.7899,-3791.5126L14005.8859,-3791.5066L14005.9172,-3791.5054L14005.9519,-3791.5062L14006.0497,-3791.5144L14006.1081,-3791.5184L14006.1325,-3791.5188L14006.1569,-3791.5165L14006.1941,-3791.5107L14006.2422,-3791.5004L14006.2759,-3791.4907L14006.3378,-3791.4603L14006.3808,-3791.4383L14006.4213,-3791.4196L14006.4629,-3791.4049L14006.4873,-3791.3999L14006.5225,-3791.3941L14006.5416,-3791.3928L14006.575,-3791.3947L14006.5995,-3791.3981L14006.6415,-3791.4071L14006.6801,-3791.4202L14006.7375,-3791.4367L14006.7619,-3791.4413L14006.783,-3791.4433L14006.8069,-3791.4441L14006.827,-3791.4425L14006.8582,-3791.439L14006.8778,-3791.4347L14006.9012,-3791.4278L14006.9156,-3791.4226L14006.976,-3791.3983L14007.0583,-3791.3611L14007.0922,-3791.3559L14007.2111,-3791.3311L14007.2515,-3791.3231L14007.3437,-3791.3049L14007.4086,-3791.2919L14007.4248,-3791.2831L14007.4889,-3791.2664L14007.5207,-3791.2589L14007.539,-3791.2575L14007.5789,-3791.2559L14007.7846,-3791.2564L14007.8429,-3791.2563L14007.8854,-3791.2566L14007.9293,-3791.2526L14008.0605,-3791.2488L14008.1548,-3791.2446L14008.3088,-3791.2377L14008.4405,-3791.2372L14008.537,-3791.228L14008.5678,-3791.2276L14008.7681,-3791.216L14008.7955,-3791.2146L14008.8179,-3791.2134L14008.865,-3791.2109L14008.897,-3791.2134L14008.9721,-3791.2067L14009.0927,-3791.2016L14009.2392,-3791.1939L14009.2868,-3791.1914L14009.3664,-3791.1872L14009.4093,-3791.1864L14009.459,-3791.1826L14009.4945,-3791.1808L14009.6108,-3791.1751L14009.7264,-3791.1696L14009.7656,-3791.1677"/>
<path content="3,米沢市,米沢市市街地循環路線,22.0,22.0,22.0," xlink:title="3" d="M14009.7656,-3791.597L14009.7414,-3791.5983L14009.6535,-3791.6028L14009.543,-3791.6118L14009.4987,-3791.6067L14009.4349,-3791.6133L14009.4291,-3791.6139L14009.2249,-3791.656L14009.2149,-3791.6581L14009.0418,-3791.6747L14009.0342,-3791.6754L14009.0345,-3791.6738L14009.0352,-3791.6696L14009.0312,-3791.6401L14009.0145,-3791.5497L14009.0104,-3791.4896L14009.0025,-3791.4322L14008.9999,-3791.4036L14008.9999,-3791.3818L14009.0045,-3791.361L14009.0085,-3791.345L14009.0271,-3791.3072L14009.042,-3791.2941L14009.0398,-3791.2867L14009.0927,-3791.2016L14009.1322,-3791.14L14009.2322,-3790.9837L14009.2419,-3790.9685L14009.2472,-3790.9603L14009.261,-3790.9388L14009.2899,-3790.8936L14009.3008,-3790.8808L14009.3801,-3790.7526L14009.4838,-3790.5868L14009.5049,-3790.553L14009.5464,-3790.4866L14009.5646,-3790.4614L14009.6117,-3790.3821L14009.6283,-3790.3637L14009.6499,-3790.345L14009.6716,-3790.3279L14009.7017,-3790.3123L14009.7368,-3790.2964L14009.7591,-3790.2902L14009.7656,-3790.2889"/>
</g>
</svg>
