<?xml version="1.0" encoding="UTF-8"?>
<svg  xmlns="http://www.w3.org/2000/svg" xmlns:xlink="http://www.w3.org/1999/xlink" xmlns:go="http://purl.org/svgmap/profile" property="N07_001,N07_002,N07_003,N07_004,N07_005,N07_006,N07_007" viewBox="13992.1875 -3506.8359375 8.7890625 8.7890625" go:dataArea="13992.1875 -3506.8359375 8.7890625 8.7890625" >
<metadata>
 <rdf:RDF xmlns:rdf="http://www.w3.org/1999/02/22-rdf-syntax-ns#" xmlns:crs="http://opengis.org/xmldtds/transformations.dtd" xmlns:svg="http://www.w3.org/svg" >
  <rdf:Description>
   <crs:CoordinateReferenceSystem rdf:resource="http://purl.org/crs/84" svg:transform="matrix(100.0,0.0,0.0,-100.0,0.0,0.0)" />
  </rdf:Description>
 </rdf:RDF>
</metadata>
<globalCoordinateSystem srsName="http://purl.org/crs/84" transform="matrix(100.0,0.0,0.0,-100.0,0.0,0.0)" />
<defs>
 <g id="p0" >
  <circle cx="0.0" cy="0.0" r="3" stroke="green" stroke-width="0.75" vector-effect="non-scaling-stroke" />
 </g>
</defs>
<g fill="none" fill-rule="evenodd" stroke="#FF00FF" stroke-width="0.75" opacity="0.5" vector-effect="non-scaling-stroke" stroke-linejoin="bevel" >
<path content="1,JRバス関東（株）,房総なのはな号,23.2,25.0,25.0," xlink:title="1" d="M13992.1875,-3499.2019L13992.1943,-3499.1973L13992.2031,-3499.192L13992.2146,-3499.1863L13992.2446,-3499.1731L13992.2933,-3499.1531L13992.3101,-3499.1455L13992.3894,-3499.1109L13992.4454,-3499.0839L13992.5206,-3499.051L13992.5351,-3499.0458L13992.5912,-3499.0319L13992.6171,-3499.0255L13992.6302,-3499.0215L13992.6417,-3499.018L13992.6499,-3499.014L13992.6822,-3499.0013L13992.7185,-3498.9849L13992.7411,-3498.9719L13992.7746,-3498.9489L13992.7866,-3498.941L13992.7992,-3498.9338L13992.8445,-3498.9149L13992.8828,-3498.8985L13992.8984,-3498.8915L13992.9205,-3498.8815L13992.9558,-3498.8642L13992.9856,-3498.8498L13993.0335,-3498.8272L13993.0874,-3498.8017L13993.1184,-3498.7886L13993.1573,-3498.7741L13993.2142,-3498.7533L13993.2921,-3498.7344L13993.3218,-3498.7265L13993.3534,-3498.7172L13993.3734,-3498.7148L13993.4159,-3498.7057L13993.4627,-3498.6988L13993.4947,-3498.6938L13993.5457,-3498.6887L13993.6331,-3498.6875L13993.7079,-3498.6953L13993.7397,-3498.698L13993.8087,-3498.6986L13993.8748,-3498.6943L13993.8895,-3498.6919L13993.8987,-3498.6892L13993.9178,-3498.682L13993.9204,-3498.681L13993.9231,-3498.6801L13993.9439,-3498.6744L13993.9693,-3498.6699L13994.0323,-3498.6609L13994.0555,-3498.6586L13994.0808,-3498.6558L13994.1428,-3498.648L13994.1516,-3498.646L13994.1677,-3498.6406L13994.1769,-3498.6343L13994.1841,-3498.6328L13994.1965,-3498.6241L13994.2077,-3498.6112L13994.217,-3498.5972L13994.2403,-3498.5628L13994.2734,-3498.5107L13994.2796,-3498.5031L13994.2859,-3498.4971L13994.2907,-3498.4928L13994.297,-3498.4886L13994.3031,-3498.4851L13994.3108,-3498.4818L13994.3343,-3498.4711L13994.3694,-3498.4505L13994.4286,-3498.4118L13994.4603,-3498.3871L13994.4906,-3498.3596L13994.5078,-3498.3425L13994.5223,-3498.3269L13994.5351,-3498.3116L13994.5365,-3498.3098L13994.5379,-3498.3081L13994.5544,-3498.2839L13994.5708,-3498.2643L13994.5872,-3498.2517L13994.6016,-3498.2421L13994.6276,-3498.2264L13994.6414,-3498.2182L13994.6546,-3498.2121L13994.6678,-3498.2063L13994.6846,-3498.1993L13994.6957,-3498.1956L13994.7174,-3498.1886L13994.7386,-3498.1824L13994.7563,-3498.1783L13994.7764,-3498.1737L13994.7911,-3498.1706L13994.7994,-3498.1664L13994.8086,-3498.164L13994.8172,-3498.1594L13994.826,-3498.1538L13994.8732,-3498.108L13994.9009,-3498.0742L13994.9089,-3498.0672L13994.9222,-3498.0592L13994.9465,-3498.0469"/>
<path content="1,京成バス（株）,千葉みなと駅・千葉中央駅・千葉駅～館山駅・白浜・野島崎,10.0,10.0,10.0," xlink:title="1" d="M13994.9465,-3498.0469L13994.9222,-3498.0592L13994.9089,-3498.0672L13994.9009,-3498.0742L13994.8732,-3498.108L13994.826,-3498.1538L13994.8172,-3498.1594L13994.8086,-3498.164L13994.7994,-3498.1664L13994.7911,-3498.1706L13994.7764,-3498.1737L13994.7563,-3498.1783L13994.7386,-3498.1824L13994.7174,-3498.1886L13994.6957,-3498.1956L13994.6846,-3498.1993L13994.6678,-3498.2063L13994.6546,-3498.2121L13994.6414,-3498.2182L13994.6276,-3498.2264L13994.6016,-3498.2421L13994.5872,-3498.2517L13994.5708,-3498.2643L13994.5544,-3498.2839L13994.5379,-3498.3081L13994.5365,-3498.3098L13994.5351,-3498.3116L13994.5223,-3498.3269L13994.5078,-3498.3425L13994.4906,-3498.3596L13994.4603,-3498.3871L13994.4286,-3498.4118L13994.3694,-3498.4505L13994.3343,-3498.4711L13994.3108,-3498.4818L13994.3031,-3498.4851L13994.297,-3498.4886L13994.2907,-3498.4928L13994.2859,-3498.4971L13994.2796,-3498.5031L13994.2734,-3498.5107L13994.2403,-3498.5628L13994.217,-3498.5972L13994.2077,-3498.6112L13994.1965,-3498.6241L13994.1841,-3498.6328L13994.1769,-3498.6343L13994.1677,-3498.6406L13994.1516,-3498.646L13994.1428,-3498.648L13994.0808,-3498.6558L13994.0555,-3498.6586L13994.0323,-3498.6609L13993.9693,-3498.6699L13993.9439,-3498.6744L13993.9231,-3498.6801L13993.9204,-3498.681L13993.9178,-3498.682L13993.8987,-3498.6892L13993.8895,-3498.6919L13993.8748,-3498.6943L13993.8087,-3498.6986L13993.7397,-3498.698L13993.7079,-3498.6953L13993.6331,-3498.6875L13993.5457,-3498.6887L13993.4947,-3498.6938L13993.4627,-3498.6988L13993.4159,-3498.7057L13993.3734,-3498.7148L13993.3534,-3498.7172L13993.3218,-3498.7265L13993.2921,-3498.7344L13993.2142,-3498.7533L13993.1573,-3498.7741L13993.1184,-3498.7886L13993.0874,-3498.8017L13993.0335,-3498.8272L13992.9856,-3498.8498L13992.9558,-3498.8642L13992.9205,-3498.8815L13992.8984,-3498.8915L13992.8828,-3498.8985L13992.8445,-3498.9149L13992.7992,-3498.9338L13992.7866,-3498.941L13992.7746,-3498.9489L13992.7411,-3498.9719L13992.7185,-3498.9849L13992.6822,-3499.0013L13992.6499,-3499.014L13992.6417,-3499.018L13992.6302,-3499.0215L13992.6171,-3499.0255L13992.5912,-3499.0319L13992.5351,-3499.0458L13992.5206,-3499.051L13992.4454,-3499.0839L13992.3894,-3499.1109L13992.3101,-3499.1455L13992.2933,-3499.1531L13992.2446,-3499.1731L13992.2146,-3499.1863L13992.2031,-3499.192L13992.1943,-3499.1973L13992.1875,-3499.2019"/>
<path content="1,日東交通,南総里見号,6.0,6.0,6.0," xlink:title="1" d="M13992.1875,-3499.2019L13992.1943,-3499.1973L13992.2031,-3499.192L13992.2146,-3499.1863L13992.2446,-3499.1731L13992.2933,-3499.1531L13992.3101,-3499.1455L13992.3894,-3499.1109L13992.4454,-3499.0839L13992.5206,-3499.051L13992.5351,-3499.0458L13992.5912,-3499.0319L13992.6171,-3499.0255L13992.6302,-3499.0215L13992.6417,-3499.018L13992.6499,-3499.014L13992.6822,-3499.0013L13992.7185,-3498.9849L13992.7411,-3498.9719L13992.7746,-3498.9489L13992.7866,-3498.941L13992.7992,-3498.9338L13992.8445,-3498.9149L13992.8828,-3498.8985L13992.8984,-3498.8915L13992.9205,-3498.8815L13992.9558,-3498.8642L13992.9856,-3498.8498L13993.0335,-3498.8272L13993.0874,-3498.8017L13993.1184,-3498.7886L13993.1573,-3498.7741L13993.2142,-3498.7533L13993.2921,-3498.7344L13993.3218,-3498.7265L13993.3534,-3498.7172L13993.3734,-3498.7148L13993.4159,-3498.7057L13993.4627,-3498.6988L13993.4947,-3498.6938L13993.5457,-3498.6887L13993.6331,-3498.6875L13993.7079,-3498.6953L13993.7397,-3498.698L13993.8087,-3498.6986L13993.8748,-3498.6943L13993.8895,-3498.6919L13993.8987,-3498.6892L13993.9178,-3498.682L13993.9204,-3498.681L13993.9231,-3498.6801L13993.9439,-3498.6744L13993.9693,-3498.6699L13994.0323,-3498.6609L13994.0555,-3498.6586L13994.0808,-3498.6558L13994.1428,-3498.648L13994.1516,-3498.646L13994.1677,-3498.6406L13994.1769,-3498.6343L13994.1841,-3498.6328L13994.1965,-3498.6241L13994.2077,-3498.6112L13994.217,-3498.5972L13994.2403,-3498.5628L13994.2734,-3498.5107L13994.2796,-3498.5031L13994.2859,-3498.4971L13994.2907,-3498.4928L13994.297,-3498.4886L13994.3031,-3498.4851L13994.3108,-3498.4818L13994.3343,-3498.4711L13994.3694,-3498.4505L13994.4286,-3498.4118L13994.4603,-3498.3871L13994.4906,-3498.3596L13994.5078,-3498.3425L13994.5223,-3498.3269L13994.5351,-3498.3116L13994.5365,-3498.3098L13994.5379,-3498.3081L13994.5544,-3498.2839L13994.5708,-3498.2643L13994.5872,-3498.2517L13994.6016,-3498.2421L13994.6276,-3498.2264L13994.6414,-3498.2182L13994.6546,-3498.2121L13994.6678,-3498.2063L13994.6846,-3498.1993L13994.6957,-3498.1956L13994.7174,-3498.1886L13994.7386,-3498.1824L13994.7563,-3498.1783L13994.7764,-3498.1737L13994.7911,-3498.1706L13994.7994,-3498.1664L13994.8086,-3498.164L13994.8172,-3498.1594L13994.826,-3498.1538L13994.8732,-3498.108L13994.9009,-3498.0742L13994.9089,-3498.0672L13994.9222,-3498.0592L13994.9465,-3498.0469"/>
<path content="1,日東交通,房総なのはな号,7.0,7.0,7.0," xlink:title="1" d="M13994.9465,-3498.0469L13994.9222,-3498.0592L13994.9089,-3498.0672L13994.9009,-3498.0742L13994.8732,-3498.108L13994.826,-3498.1538L13994.8172,-3498.1594L13994.8086,-3498.164L13994.7994,-3498.1664L13994.7911,-3498.1706L13994.7764,-3498.1737L13994.7563,-3498.1783L13994.7386,-3498.1824L13994.7174,-3498.1886L13994.6957,-3498.1956L13994.6846,-3498.1993L13994.6678,-3498.2063L13994.6546,-3498.2121L13994.6414,-3498.2182L13994.6276,-3498.2264L13994.6016,-3498.2421L13994.5872,-3498.2517L13994.5708,-3498.2643L13994.5544,-3498.2839L13994.5379,-3498.3081L13994.5365,-3498.3098L13994.5351,-3498.3116L13994.5223,-3498.3269L13994.5078,-3498.3425L13994.4906,-3498.3596L13994.4603,-3498.3871L13994.4286,-3498.4118L13994.3694,-3498.4505L13994.3343,-3498.4711L13994.3108,-3498.4818L13994.3031,-3498.4851L13994.297,-3498.4886L13994.2907,-3498.4928L13994.2859,-3498.4971L13994.2796,-3498.5031L13994.2734,-3498.5107L13994.2403,-3498.5628L13994.217,-3498.5972L13994.2077,-3498.6112L13994.1965,-3498.6241L13994.1841,-3498.6328L13994.1769,-3498.6343L13994.1677,-3498.6406L13994.1516,-3498.646L13994.1428,-3498.648L13994.0808,-3498.6558L13994.0555,-3498.6586L13994.0323,-3498.6609L13993.9693,-3498.6699L13993.9439,-3498.6744L13993.9231,-3498.6801L13993.9204,-3498.681L13993.9178,-3498.682L13993.8987,-3498.6892L13993.8895,-3498.6919L13993.8748,-3498.6943L13993.8087,-3498.6986L13993.7397,-3498.698L13993.7079,-3498.6953L13993.6331,-3498.6875L13993.5457,-3498.6887L13993.4947,-3498.6938L13993.4627,-3498.6988L13993.4159,-3498.7057L13993.3734,-3498.7148L13993.3534,-3498.7172L13993.3218,-3498.7265L13993.2921,-3498.7344L13993.2142,-3498.7533L13993.1573,-3498.7741L13993.1184,-3498.7886L13993.0874,-3498.8017L13993.0335,-3498.8272L13992.9856,-3498.8498L13992.9558,-3498.8642L13992.9205,-3498.8815L13992.8984,-3498.8915L13992.8828,-3498.8985L13992.8445,-3498.9149L13992.7992,-3498.9338L13992.7866,-3498.941L13992.7746,-3498.9489L13992.7411,-3498.9719L13992.7185,-3498.9849L13992.6822,-3499.0013L13992.6499,-3499.014L13992.6417,-3499.018L13992.6302,-3499.0215L13992.6171,-3499.0255L13992.5912,-3499.0319L13992.5351,-3499.0458L13992.5206,-3499.051L13992.4454,-3499.0839L13992.3894,-3499.1109L13992.3101,-3499.1455L13992.2933,-3499.1531L13992.2446,-3499.1731L13992.2146,-3499.1863L13992.2031,-3499.192L13992.1943,-3499.1973L13992.1875,-3499.2019"/>
<path content="1,館山日東バス,丸線,6.0,4.0,4.0," xlink:title="1" d="M13992.1875,-3502.7686L13992.2244,-3502.7674L13992.2666,-3502.7618L13992.3087,-3502.7603"/>
<path content="1,館山日東バス,丸線,6.0,4.0,4.0," xlink:title="1" d="M13992.3087,-3502.7603L13992.3088,-3502.8701L13992.3117,-3502.898L13992.3186,-3502.9096L13992.3295,-3502.9205L13992.3433,-3502.9294L13992.3678,-3502.9384L13992.3977,-3502.9461L13992.4182,-3502.9546L13992.4309,-3502.9612L13992.4374,-3502.968L13992.4399,-3502.976L13992.4399,-3502.9835L13992.4388,-3502.9918L13992.4251,-3503.0284L13992.4043,-3503.0835L13992.3853,-3503.1402L13992.3867,-3503.1603L13992.3894,-3503.1862L13992.3922,-3503.2133L13992.3935,-3503.2351L13992.3912,-3503.2686L13992.3875,-3503.3086L13992.3886,-3503.3225L13992.3965,-3503.3649L13992.4006,-3503.3714L13992.4021,-3503.3922L13992.4077,-3503.4083L13992.4162,-3503.4223L13992.4388,-3503.4562L13992.4768,-3503.5063L13992.4838,-3503.5235L13992.483,-3503.5553L13992.4815,-3503.5676L13992.4815,-3503.5926L13992.4901,-3503.6145L13992.4956,-3503.6382L13992.5014,-3503.6755L13992.5045,-3503.7143L13992.504,-3503.7423L13992.5044,-3503.7682"/>
<path content="1,館山日東バス,丸線,6.0,4.0,4.0," xlink:title="1" d="M13992.3087,-3502.7603L13992.368,-3502.7566L13992.4292,-3502.7568L13992.4552,-3502.7601L13992.4847,-3502.7646L13992.5517,-3502.7761L13992.6036,-3502.7844L13992.6123,-3502.7854L13992.6614,-3502.7928L13992.6881,-3502.7962L13992.7189,-3502.8013L13992.7607,-3502.8075L13992.8197,-3502.8159L13992.8874,-3502.8249L13992.9046,-3502.8266L13992.926,-3502.8284L13992.9676,-3502.8356L13992.9943,-3502.8413L13993.0211,-3502.852L13993.0519,-3502.8678L13993.0694,-3502.8752L13993.0816,-3502.8776L13993.0951,-3502.8769L13993.1978,-3502.8736L13993.2669,-3502.8713L13993.3355,-3502.8717L13993.369,-3502.8768L13993.3862,-3502.8796L13993.4252,-3502.8886L13993.4677,-3502.9021L13993.4937,-3502.9134L13993.5334,-3502.9394L13993.5627,-3502.9553L13993.6277,-3502.9703L13993.6567,-3502.9794L13993.7458,-3502.9974L13993.7988,-3503.0089L13993.8129,-3503.0126L13993.8602,-3503.0279L13993.8903,-3503.0419L13993.9157,-3503.0583L13993.9467,-3503.0772L13993.977,-3503.0887L13994.0212,-3503.1005L13994.0336,-3503.1038L13994.0501,-3503.1067L13994.1396,-3503.1291L13994.162,-3503.1326L13994.1923,-3503.1321L13994.2531,-3503.1196L13994.3205,-3503.1128L13994.3848,-3503.1098L13994.4364,-3503.1083L13994.4518,-3503.1099L13994.4786,-3503.1189L13994.513,-3503.1361L13994.5575,-3503.1648L13994.5856,-3503.1806L13994.6068,-3503.1913L13994.6383,-3503.2043L13994.6835,-3503.2167L13994.7192,-3503.2234L13994.7486,-3503.2263L13994.7785,-3503.2289L13994.7982,-3503.2286L13994.8158,-3503.2319L13994.837,-3503.2336L13994.874,-3503.2369L13994.9725,-3503.2425L13995.0171,-3503.252L13995.0507,-3503.2584L13995.0747,-3503.2584L13995.0816,-3503.2564L13995.111,-3503.246L13995.1355,-3503.2346L13995.1418,-3503.2325L13995.1624,-3503.2251L13995.1795,-3503.2218L13995.2281,-3503.2221L13995.2726,-3503.2263L13995.2918,-3503.2302L13995.3371,-3503.2387L13995.3644,-3503.2421L13995.3994,-3503.2409L13995.4346,-3503.2342L13995.4672,-3503.2279L13995.5025,-3503.2188L13995.5351,-3503.2158L13995.5261,-3503.2263L13995.472,-3503.2804L13995.4583,-3503.2984L13995.4497,-3503.3112L13995.4464,-3503.3218L13995.4393,-3503.3447L13995.4329,-3503.3643L13995.4229,-3503.3958L13995.4112,-3503.4291L13995.4107,-3503.4539L13995.4151,-3503.4836L13995.4135,-3503.5074L13995.4067,-3503.525L13995.3937,-3503.5508L13995.3647,-3503.5955L13995.3568,-3503.6127L13995.35,-3503.6369L13995.35,-3503.6643L13995.3551,-3503.6765L13995.3619,-3503.6889L13995.3788,-3503.7072L13995.3853,-3503.7083L13995.3939,-3503.7183L13995.4131,-3503.7312L13995.4665,-3503.7606L13995.4898,-3503.7746L13995.512,-3503.7945L13995.5411,-3503.8266L13995.5626,-3503.8637L13995.5693,-3503.8756L13995.5775,-3503.8947L13995.5897,-3503.934L13995.6069,-3503.9894L13995.6145,-3504.0308L13995.6268,-3504.1282L13995.6308,-3504.1599L13995.6379,-3504.2142L13995.6467,-3504.2826L13995.652,-3504.3205L13995.6559,-3504.3391L13995.6611,-3504.3822L13995.6653,-3504.4262L13995.6721,-3504.4855L13995.6789,-3504.5376L13995.6876,-3504.6114L13995.6917,-3504.6296L13995.6938,-3504.6641L13995.7071,-3504.7715L13995.7118,-3504.7993L13995.7162,-3504.8379L13995.7186,-3504.8641L13995.7142,-3504.8791L13995.7094,-3504.8875L13995.6876,-3504.9136L13995.6693,-3504.9369L13995.6613,-3504.9492L13995.6562,-3504.9607L13995.6581,-3504.9736L13995.6653,-3505.0043L13995.6832,-3505.0498L13995.7126,-3505.1116L13995.7186,-3505.1326L13995.72,-3505.1583L13995.7126,-3505.1791L13995.7034,-3505.1946L13995.701,-3505.2057L13995.688,-3505.2372L13995.6896,-3505.2782L13995.6955,-3505.32L13995.7007,-3505.3403L13995.7161,-3505.3953L13995.7169,-3505.4155L13995.7106,-3505.4364L13995.7058,-3505.4781L13995.705,-3505.5042L13995.709,-3505.5309L13995.7066,-3505.5661L13995.6883,-3505.5801L13995.6518,-3505.6051L13995.6366,-3505.6177L13995.6256,-3505.6284L13995.6217,-3505.6354L13995.6229,-3505.643L13995.6537,-3505.7133L13995.6623,-3505.7258L13995.6882,-3505.7733L13995.7243,-3505.8256L13995.7629,-3505.8906L13995.7786,-3505.9282L13995.7913,-3505.9686L13995.8066,-3506.0295L13995.8192,-3506.1206L13995.8216,-3506.1386L13995.8253,-3506.1597L13995.8348,-3506.1802L13995.8467,-3506.2009L13995.8641,-3506.2165L13995.9008,-3506.2455L13995.9357,-3506.2714L13995.957,-3506.29L13995.9869,-3506.3122L13996.0002,-3506.3359L13996.0076,-3506.3791L13996.02,-3506.4268L13996.0856,-3506.5089L13996.1552,-3506.6255L13996.1677,-3506.6581L13996.1693,-3506.6898L13996.1607,-3506.7096L13996.1478,-3506.7249L13996.1122,-3506.7541L13996.0554,-3506.798L13996.0262,-3506.8221L13996.0073,-3506.8359"/>
<path content="1,館山日東バス,千倉線,6.0,6.0,6.0," xlink:title="1" d="M13992.1875,-3499.2019L13992.1943,-3499.1973L13992.2031,-3499.192L13992.2146,-3499.1863L13992.2446,-3499.1731L13992.2933,-3499.1531L13992.3101,-3499.1455L13992.3894,-3499.1109L13992.4454,-3499.0839L13992.5206,-3499.051L13992.5351,-3499.0458L13992.5912,-3499.0319L13992.6171,-3499.0255L13992.6302,-3499.0215L13992.6417,-3499.018L13992.6499,-3499.014L13992.6822,-3499.0013L13992.7185,-3498.9849L13992.7411,-3498.9719L13992.7746,-3498.9489L13992.7866,-3498.941L13992.7992,-3498.9338L13992.8445,-3498.9149L13992.8828,-3498.8985L13992.8984,-3498.8915L13992.9205,-3498.8815L13992.9558,-3498.8642L13992.9856,-3498.8498L13993.0335,-3498.8272L13993.0874,-3498.8017L13993.1184,-3498.7886L13993.1573,-3498.7741L13993.2142,-3498.7533L13993.2921,-3498.7344L13993.3218,-3498.7265L13993.3534,-3498.7172L13993.3734,-3498.7148L13993.4159,-3498.7057L13993.4627,-3498.6988L13993.4947,-3498.6938L13993.5457,-3498.6887L13993.6331,-3498.6875L13993.7079,-3498.6953L13993.7397,-3498.698L13993.8087,-3498.6986L13993.8748,-3498.6943L13993.8895,-3498.6919L13993.8987,-3498.6892L13993.9178,-3498.682L13993.9204,-3498.681L13993.9231,-3498.6801L13993.9439,-3498.6744L13993.9693,-3498.6699L13994.0323,-3498.6609L13994.0555,-3498.6586L13994.0808,-3498.6558L13994.1428,-3498.648L13994.1516,-3498.646L13994.1677,-3498.6406L13994.1769,-3498.6343L13994.1841,-3498.6328L13994.1965,-3498.6241L13994.2077,-3498.6112L13994.217,-3498.5972L13994.2403,-3498.5628L13994.2734,-3498.5107L13994.2796,-3498.5031L13994.2859,-3498.4971L13994.2907,-3498.4928L13994.297,-3498.4886L13994.3031,-3498.4851L13994.3108,-3498.4818L13994.3343,-3498.4711L13994.3694,-3498.4505L13994.4286,-3498.4118L13994.4603,-3498.3871L13994.4906,-3498.3596L13994.5078,-3498.3425L13994.5223,-3498.3269L13994.5351,-3498.3116L13994.5365,-3498.3098L13994.5379,-3498.3081L13994.5544,-3498.2839L13994.5708,-3498.2643L13994.5872,-3498.2517L13994.6016,-3498.2421L13994.6276,-3498.2264L13994.6414,-3498.2182L13994.6546,-3498.2121L13994.6678,-3498.2063L13994.6846,-3498.1993L13994.6957,-3498.1956L13994.7174,-3498.1886L13994.7386,-3498.1824L13994.7563,-3498.1783L13994.7764,-3498.1737L13994.7911,-3498.1706L13994.7994,-3498.1664L13994.8086,-3498.164L13994.8172,-3498.1594L13994.826,-3498.1538L13994.8732,-3498.108L13994.9009,-3498.0742L13994.9089,-3498.0672L13994.9222,-3498.0592L13994.9465,-3498.0469"/>
<path content="1,館山日東バス,南総里見号,4.0,4.0,4.0," xlink:title="1" d="M13992.1875,-3499.2019L13992.1943,-3499.1973L13992.2031,-3499.192L13992.2146,-3499.1863L13992.2446,-3499.1731L13992.2933,-3499.1531L13992.3101,-3499.1455L13992.3894,-3499.1109L13992.4454,-3499.0839L13992.5206,-3499.051L13992.5351,-3499.0458L13992.5912,-3499.0319L13992.6171,-3499.0255L13992.6302,-3499.0215L13992.6417,-3499.018L13992.6499,-3499.014L13992.6822,-3499.0013L13992.7185,-3498.9849L13992.7411,-3498.9719L13992.7746,-3498.9489L13992.7866,-3498.941L13992.7992,-3498.9338L13992.8445,-3498.9149L13992.8828,-3498.8985L13992.8984,-3498.8915L13992.9205,-3498.8815L13992.9558,-3498.8642L13992.9856,-3498.8498L13993.0335,-3498.8272L13993.0874,-3498.8017L13993.1184,-3498.7886L13993.1573,-3498.7741L13993.2142,-3498.7533L13993.2921,-3498.7344L13993.3218,-3498.7265L13993.3534,-3498.7172L13993.3734,-3498.7148L13993.4159,-3498.7057L13993.4627,-3498.6988L13993.4947,-3498.6938L13993.5457,-3498.6887L13993.6331,-3498.6875L13993.7079,-3498.6953L13993.7397,-3498.698L13993.8087,-3498.6986L13993.8748,-3498.6943L13993.8895,-3498.6919L13993.8987,-3498.6892L13993.9178,-3498.682L13993.9204,-3498.681L13993.9231,-3498.6801L13993.9439,-3498.6744L13993.9693,-3498.6699L13994.0323,-3498.6609L13994.0555,-3498.6586L13994.0808,-3498.6558L13994.1428,-3498.648L13994.1516,-3498.646L13994.1677,-3498.6406L13994.1769,-3498.6343L13994.1841,-3498.6328L13994.1965,-3498.6241L13994.2077,-3498.6112L13994.217,-3498.5972L13994.2403,-3498.5628L13994.2734,-3498.5107L13994.2796,-3498.5031L13994.2859,-3498.4971L13994.2907,-3498.4928L13994.297,-3498.4886L13994.3031,-3498.4851L13994.3108,-3498.4818L13994.3343,-3498.4711L13994.3694,-3498.4505L13994.4286,-3498.4118L13994.4603,-3498.3871L13994.4906,-3498.3596L13994.5078,-3498.3425L13994.5223,-3498.3269L13994.5351,-3498.3116L13994.5365,-3498.3098L13994.5379,-3498.3081L13994.5544,-3498.2839L13994.5708,-3498.2643L13994.5872,-3498.2517L13994.6016,-3498.2421L13994.6276,-3498.2264L13994.6414,-3498.2182L13994.6546,-3498.2121L13994.6678,-3498.2063L13994.6846,-3498.1993L13994.6957,-3498.1956L13994.7174,-3498.1886L13994.7386,-3498.1824L13994.7563,-3498.1783L13994.7764,-3498.1737L13994.7911,-3498.1706L13994.7994,-3498.1664L13994.8086,-3498.164L13994.8172,-3498.1594L13994.826,-3498.1538L13994.8732,-3498.108L13994.9009,-3498.0742L13994.9089,-3498.0672L13994.9222,-3498.0592L13994.9465,-3498.0469"/>
<path content="1,館山日東バス,外房急行,2.0,2.0,0.0," xlink:title="1" d="M14000.9766,-3503.5771L14000.959,-3503.5609L14000.9493,-3503.5468L14000.9323,-3503.5321L14000.905,-3503.5168L14000.8864,-3503.5062L14000.8501,-3503.4803L14000.819,-3503.4558L14000.7816,-3503.4284L14000.7762,-3503.4242L14000.6696,-3503.3382L14000.6357,-3503.3146L14000.6076,-3503.2943L14000.5789,-3503.2734L14000.5467,-3503.2537L14000.5151,-3503.2379L14000.4713,-3503.2188L14000.4521,-3503.2097L14000.4275,-3503.1979L14000.3206,-3503.146L14000.2261,-3503.0998L14000.1822,-3503.0772L14000.1727,-3503.0739L14000.0884,-3503.0322L14000.0692,-3503.022L14000.0261,-3503.0017L14000.011,-3502.9933L14000.0027,-3502.9899L13999.9603,-3502.9673L13999.9411,-3502.96L13999.9274,-3502.9561L13999.8658,-3502.9465L13999.8511,-3502.9469L13999.8247,-3502.9476L13999.813,-3502.9471L13999.7696,-3502.9394L13999.7577,-3502.9375L13999.7409,-3502.9337L13999.7347,-3502.9315L13999.7271,-3502.9265L13999.6939,-3502.8904L13999.6821,-3502.8715L13999.6287,-3502.8261L13999.4341,-3502.6656L13999.3764,-3502.6159L13999.3419,-3502.5826L13999.3205,-3502.5659L13999.2919,-3502.5524L13999.2445,-3502.5414L13999.2419,-3502.5409L13999.2097,-3502.5377L13999.1787,-3502.5349L13999.1636,-3502.5303L13999.1335,-3502.518L13999.0545,-3502.4765L13998.993,-3502.4435L13998.9492,-3502.4193L13998.9211,-3502.4052L13998.8445,-3502.3727L13998.7974,-3502.3557L13998.6828,-3502.3091L13998.5354,-3502.2536L13998.5072,-3502.2406L13998.4971,-3502.2378L13998.4727,-3502.2265L13998.4094,-3502.2046L13998.3595,-3502.1866L13998.2938,-3502.1638L13998.2235,-3502.1399L13998.2002,-3502.1325L13998.1306,-3502.1093L13998.0895,-3502.0952L13998.0436,-3502.0772L13998.021,-3502.0642L13998.0001,-3502.0494L13997.9844,-3502.0409L13997.9511,-3502.0191L13997.9257,-3502.0022L13997.8929,-3501.9847L13997.8373,-3501.9631L13997.7894,-3501.9492L13997.76,-3501.9407L13997.6785,-3501.9267L13997.6499,-3501.9192L13997.6209,-3501.9085L13997.6078,-3501.9063L13997.5796,-3501.8875L13997.5506,-3501.8692L13997.5284,-3501.8539L13997.5011,-3501.8359L13997.4887,-3501.8291L13997.4579,-3501.8145L13997.4233,-3501.8022L13997.3582,-3501.788L13997.288,-3501.77L13997.2695,-3501.7654L13997.2198,-3501.7545L13997.1571,-3501.739L13997.0709,-3501.7192L13997.0078,-3501.7057L13996.9468,-3501.6887L13996.9065,-3501.6741L13996.84,-3501.6426L13996.7989,-3501.6246L13996.795,-3501.6227L13996.7941,-3501.6223L13996.7673,-3501.6116L13996.7278,-3501.594L13996.7232,-3501.592L13996.6824,-3501.5748L13996.6688,-3501.5691L13996.5742,-3501.5293L13996.5223,-3501.5057L13996.4838,-3501.4927L13996.4406,-3501.4769L13996.3831,-3501.4622L13996.342,-3501.4532L13996.2923,-3501.4427L13996.3221,-3501.4312L13996.3728,-3501.4109L13996.4016,-3501.3991L13996.4417,-3501.3721L13996.4859,-3501.3506L13996.5176,-3501.3342L13996.5577,-3501.3106L13996.5847,-3501.2903L13996.5956,-3501.2794L13996.6024,-3501.2649L13996.6072,-3501.2541L13996.6141,-3501.233L13996.6359,-3501.1607L13996.6584,-3501.0831L13996.6653,-3501.0592L13996.6726,-3501.0376L13996.6907,-3500.9769L13996.69,-3500.9483L13996.6882,-3500.9316L13996.6897,-3500.8958L13996.6933,-3500.8753L13996.7031,-3500.8456L13996.7115,-3500.8313L13996.7321,-3500.765L13996.7445,-3500.7326L13996.7516,-3500.7256L13996.7616,-3500.7177L13996.8204,-3500.6942L13996.8476,-3500.6804L13996.8667,-3500.6755L13996.8829,-3500.6709L13996.8989,-3500.6682L13996.9134,-3500.6651L13996.9298,-3500.6608L13996.9362,-3500.6581L13996.9442,-3500.6519L13996.9529,-3500.6436L13996.9569,-3500.6356L13996.9591,-3500.6218L13996.9573,-3500.6015L13996.9512,-3500.5713L13996.9491,-3500.5639L13996.9403,-3500.5338L13996.9311,-3500.5L13996.9263,-3500.4741L13996.9247,-3500.466L13996.9128,-3500.397L13996.9071,-3500.3731L13996.8989,-3500.3494L13996.8939,-3500.3333L13996.889,-3500.3212L13996.8528,-3500.2104L13996.8527,-3500.2068L13996.8531,-3500.2038L13996.8546,-3500.1996L13996.8559,-3500.1971L13996.8585,-3500.1939L13996.8634,-3500.1881L13996.8671,-3500.1847L13996.8709,-3500.1816L13996.8768,-3500.1777L13996.8879,-3500.1724L13996.9131,-3500.1627L13996.9427,-3500.1504L13996.9849,-3500.1343L13997.0068,-3500.1241L13997.0159,-3500.1182L13997.0218,-3500.1142L13997.0261,-3500.1101L13997.0295,-3500.1057L13997.0317,-3500.0995L13997.0324,-3500.0929L13997.0317,-3500.0854L13997.0286,-3500.077L13997.0084,-3500.0281L13997.0064,-3500.0224L13997.0056,-3500.0156L13997.0057,-3500.0096L13997.0067,-3500.0035L13997.0093,-3499.9946L13997.0131,-3499.9827L13997.0192,-3499.9668L13997.0279,-3499.9461L13997.0326,-3499.9334L13997.0348,-3499.9249L13997.0353,-3499.9181L13997.0347,-3499.9109L13997.0329,-3499.9044L13997.0251,-3499.8889L13997.0138,-3499.8701L13996.9872,-3499.8339L13996.9757,-3499.8169L13996.9643,-3499.7976L13996.9485,-3499.7711L13996.9438,-3499.7604L13996.9376,-3499.7441L13996.8936,-3499.6422L13996.8865,-3499.6256L13996.8649,-3499.5584L13996.8525,-3499.5118L13996.8496,-3499.4911L13996.8403,-3499.4471L13996.8338,-3499.4265L13996.8159,-3499.3848L13996.8028,-3499.3554L13996.7955,-3499.3388L13996.7923,-3499.3316L13996.7801,-3499.3065L13996.771,-3499.2904L13996.7617,-3499.2728L13996.7419,-3499.229L13996.736,-3499.2154L13996.7329,-3499.2061L13996.7293,-3499.191L13996.726,-3499.1743L13996.7263,-3499.167L13996.7206,-3499.1416L13996.7186,-3499.1301L13996.7143,-3499.1124L13996.7095,-3499.0958L13996.7009,-3499.0651L13996.6972,-3499.0494L13996.6943,-3499.0319L13996.6871,-3499.0061L13996.6838,-3498.9889L13996.6802,-3498.9696L13996.6788,-3498.9549L13996.6776,-3498.9108L13996.679,-3498.8914L13996.6807,-3498.8741L13996.6831,-3498.861L13996.6923,-3498.822L13996.6982,-3498.7889L13996.7002,-3498.7759L13996.7014,-3498.7627L13996.7019,-3498.6857L13996.7016,-3498.6784L13996.7002,-3498.6457L13996.6995,-3498.6305L13996.6968,-3498.591L13996.6954,-3498.5707L13996.692,-3498.5454L13996.6913,-3498.538L13996.6872,-3498.5155L13996.6838,-3498.489L13996.6838,-3498.4727L13996.6886,-3498.4439L13996.6927,-3498.4304L13996.7029,-3498.3938L13996.7125,-3498.3661L13996.7173,-3498.356L13996.7235,-3498.3419L13996.7283,-3498.3256L13996.7279,-3498.3161L13996.7276,-3498.3058L13996.7278,-3498.2967L13996.7262,-3498.2825L13996.7251,-3498.2759L13996.7214,-3498.262L13996.7131,-3498.2326L13996.7071,-3498.2185L13996.6639,-3498.1807L13996.6364,-3498.1527L13996.5859,-3498.1075L13996.545,-3498.0705L13996.5325,-3498.061L13996.5197,-3498.0535L13996.507,-3498.0469"/>
<path content="1,館山日東バス,館山鴨川線,7.0,7.0,7.0," xlink:title="1" d="M14000.9766,-3503.5771L14000.959,-3503.5609L14000.9493,-3503.5468L14000.9323,-3503.5321L14000.905,-3503.5168L14000.8864,-3503.5062L14000.8501,-3503.4803L14000.819,-3503.4558L14000.7816,-3503.4284L14000.7762,-3503.4242L14000.6696,-3503.3382L14000.6357,-3503.3146L14000.6076,-3503.2943L14000.5789,-3503.2734L14000.5467,-3503.2537L14000.5151,-3503.2379L14000.4713,-3503.2188L14000.4521,-3503.2097L14000.4275,-3503.1979L14000.3206,-3503.146L14000.2261,-3503.0998L14000.1822,-3503.0772L14000.1727,-3503.0739L14000.0884,-3503.0322L14000.0692,-3503.022L14000.0261,-3503.0017L14000.011,-3502.9933L14000.0027,-3502.9899L13999.9603,-3502.9673L13999.9411,-3502.96L13999.9274,-3502.9561L13999.8658,-3502.9465L13999.8511,-3502.9469L13999.8247,-3502.9476L13999.813,-3502.9471L13999.7696,-3502.9394L13999.7577,-3502.9375L13999.7409,-3502.9337L13999.7347,-3502.9315L13999.7271,-3502.9265L13999.6939,-3502.8904L13999.6821,-3502.8715L13999.6287,-3502.8261L13999.4341,-3502.6656L13999.3764,-3502.6159L13999.3419,-3502.5826L13999.3205,-3502.5659L13999.2919,-3502.5524L13999.2445,-3502.5414L13999.2419,-3502.5409L13999.2097,-3502.5377L13999.1787,-3502.5349L13999.1636,-3502.5303L13999.1335,-3502.518L13999.0545,-3502.4765L13998.993,-3502.4435L13998.9492,-3502.4193L13998.9211,-3502.4052L13998.8445,-3502.3727L13998.7974,-3502.3557L13998.6828,-3502.3091L13998.5354,-3502.2536L13998.5072,-3502.2406L13998.4971,-3502.2378L13998.4727,-3502.2265L13998.4094,-3502.2046L13998.3595,-3502.1866L13998.2938,-3502.1638L13998.2235,-3502.1399L13998.2002,-3502.1325L13998.1306,-3502.1093L13998.0895,-3502.0952L13998.0436,-3502.0772L13998.021,-3502.0642L13998.0001,-3502.0494L13997.9844,-3502.0409L13997.9511,-3502.0191L13997.9257,-3502.0022L13997.8929,-3501.9847L13997.8373,-3501.9631L13997.7894,-3501.9492L13997.76,-3501.9407L13997.6785,-3501.9267L13997.6499,-3501.9192L13997.6209,-3501.9085L13997.6078,-3501.9063L13997.5796,-3501.8875L13997.5506,-3501.8692L13997.5284,-3501.8539L13997.5011,-3501.8359L13997.4887,-3501.8291L13997.4579,-3501.8145L13997.4233,-3501.8022L13997.3582,-3501.788L13997.288,-3501.77L13997.2695,-3501.7654L13997.2198,-3501.7545L13997.1801,-3501.7668L13997.1217,-3501.7827L13997.098,-3501.7845L13997.0578,-3501.7818L13996.9275,-3501.7794L13996.9092,-3501.7795L13996.9023,-3501.7801L13996.8927,-3501.7801L13996.8877,-3501.7802L13996.8104,-3501.7814L13996.7766,-3501.7806L13996.7181,-3501.7722L13996.5944,-3501.7458L13996.5409,-3501.7235L13996.4959,-3501.6968L13996.479,-3501.6978L13996.4112,-3501.6989L13996.4109,-3501.6892L13996.4099,-3501.6474L13996.4093,-3501.6379L13996.4073,-3501.6295L13996.4009,-3501.6165L13996.3924,-3501.6058L13996.3824,-3501.5944L13996.3632,-3501.5681L13996.3578,-3501.5629L13996.3301,-3501.5248L13996.2989,-3501.4846L13996.2838,-3501.46L13996.2707,-3501.4403L13996.1933,-3501.4233L13996.1622,-3501.4174L13996.0584,-3501.3946L13996.0238,-3501.3868L13995.9804,-3501.3796L13995.9458,-3501.3725L13995.8823,-3501.3585L13995.796,-3501.3393L13995.6933,-3501.3191L13995.6714,-3501.3144L13995.6282,-3501.3044L13995.5789,-3501.2948L13995.5405,-3501.2869L13995.5152,-3501.2835L13995.4919,-3501.2813L13995.4631,-3501.2807L13995.4323,-3501.283L13995.3419,-3501.2937L13995.2843,-3501.3033L13995.2566,-3501.3044L13995.223,-3501.294L13995.1653,-3501.2718L13995.1413,-3501.263L13995.1076,-3501.252L13995.0597,-3501.2489L13994.9891,-3501.2474L13994.9164,-3501.2436L13994.8942,-3501.2421L13994.7596,-3501.2311L13994.691,-3501.2267L13994.6682,-3501.2241L13994.6418,-3501.2215L13994.611,-3501.2164L13994.5606,-3501.2058L13994.5206,-3501.1979L13994.4774,-3501.1917L13994.4041,-3501.1753L13994.3699,-3501.1691L13994.3288,-3501.1618L13994.3055,-3501.1561L13994.2886,-3501.1477L13994.2286,-3501.1045L13994.1877,-3501.0688L13994.1685,-3501.0547L13994.1328,-3501.0344L13994.1068,-3501.0243L13994.0904,-3501.0198L13994.0205,-3501.0108L13993.965,-3501.0051L13993.9231,-3501.002L13993.8945,-3500.9966L13993.8131,-3500.9789L13993.7739,-3500.9696L13993.7561,-3500.9658L13993.7254,-3500.9592L13993.7061,-3500.9549L13993.6653,-3500.9461L13993.6348,-3500.9353L13993.6126,-3500.9247L13993.5869,-3500.9092L13993.5699,-3500.8932L13993.5458,-3500.8631L13993.53,-3500.8438L13993.5182,-3500.829L13993.5039,-3500.8097L13993.4752,-3500.7663L13993.4552,-3500.7393L13993.4376,-3500.7191L13993.4047,-3500.6891L13993.3798,-3500.6699L13993.3664,-3500.6596L13993.356,-3500.6513L13993.3504,-3500.6488L13993.3184,-3500.6275L13993.3102,-3500.6224L13993.291,-3500.6106L13993.1958,-3500.5496L13993.1527,-3500.5231L13993.1013,-3500.4953L13993.0544,-3500.4698L13993.0486,-3500.4668L13993.0222,-3500.4517L13992.9944,-3500.4359L13992.9622,-3500.4235L13992.9223,-3500.4136L13992.87,-3500.4099L13992.8348,-3500.4088L13992.7929,-3500.4085L13992.68,-3500.406L13992.6032,-3500.4002L13992.5649,-3500.3998L13992.5389,-3500.4026L13992.4375,-3500.4195L13992.3902,-3500.4223L13992.3416,-3500.4202L13992.3231,-3500.4139L13992.3074,-3500.4055L13992.2894,-3500.3951L13992.2626,-3500.3803L13992.2388,-3500.3665L13992.1875,-3500.3352"/>
<path content="1,鴨川日東バス,1-8鴨川・館山線,8.0,8.0,8.0," xlink:title="1" d="M14000.9766,-3503.5771L14000.959,-3503.5609L14000.9493,-3503.5468L14000.9323,-3503.5321L14000.905,-3503.5168L14000.8864,-3503.5062L14000.8501,-3503.4803L14000.819,-3503.4558L14000.7816,-3503.4284L14000.7762,-3503.4242L14000.6696,-3503.3382L14000.6357,-3503.3146L14000.6076,-3503.2943L14000.5789,-3503.2734L14000.5467,-3503.2537L14000.5151,-3503.2379L14000.4713,-3503.2188L14000.4521,-3503.2097L14000.4275,-3503.1979L14000.3206,-3503.146L14000.2261,-3503.0998L14000.1822,-3503.0772L14000.1727,-3503.0739L14000.0884,-3503.0322L14000.0692,-3503.022L14000.0261,-3503.0017L14000.011,-3502.9933L14000.0027,-3502.9899L13999.9603,-3502.9673L13999.9411,-3502.96L13999.9274,-3502.9561L13999.8658,-3502.9465L13999.8511,-3502.9469L13999.8247,-3502.9476L13999.813,-3502.9471L13999.7696,-3502.9394L13999.7577,-3502.9375L13999.7409,-3502.9337L13999.7347,-3502.9315L13999.7271,-3502.9265L13999.6939,-3502.8904L13999.6821,-3502.8715L13999.6287,-3502.8261L13999.4341,-3502.6656L13999.3764,-3502.6159L13999.3419,-3502.5826L13999.3205,-3502.5659L13999.2919,-3502.5524L13999.2445,-3502.5414L13999.2419,-3502.5409L13999.2097,-3502.5377L13999.1787,-3502.5349L13999.1636,-3502.5303L13999.1335,-3502.518L13999.0545,-3502.4765L13998.993,-3502.4435L13998.9492,-3502.4193L13998.9211,-3502.4052L13998.8445,-3502.3727L13998.7974,-3502.3557L13998.6828,-3502.3091L13998.5354,-3502.2536L13998.5072,-3502.2406L13998.4971,-3502.2378L13998.4727,-3502.2265L13998.4094,-3502.2046L13998.3595,-3502.1866L13998.2938,-3502.1638L13998.2235,-3502.1399L13998.2002,-3502.1325L13998.1306,-3502.1093L13998.0895,-3502.0952L13998.0436,-3502.0772L13998.021,-3502.0642L13998.0001,-3502.0494L13997.9844,-3502.0409L13997.9511,-3502.0191L13997.9257,-3502.0022L13997.8929,-3501.9847L13997.8373,-3501.9631L13997.7894,-3501.9492L13997.76,-3501.9407L13997.6785,-3501.9267L13997.6499,-3501.9192L13997.6209,-3501.9085L13997.6078,-3501.9063L13997.5796,-3501.8875L13997.5506,-3501.8692L13997.5284,-3501.8539L13997.5011,-3501.8359L13997.4887,-3501.8291L13997.4579,-3501.8145L13997.4233,-3501.8022L13997.3582,-3501.788L13997.288,-3501.77L13997.2695,-3501.7654L13997.2198,-3501.7545L13997.1801,-3501.7668L13997.1217,-3501.7827L13997.098,-3501.7845L13997.0578,-3501.7818L13996.9275,-3501.7794L13996.9092,-3501.7795L13996.9023,-3501.7801L13996.8927,-3501.7801L13996.8877,-3501.7802L13996.8104,-3501.7814L13996.7766,-3501.7806L13996.7181,-3501.7722L13996.5944,-3501.7458L13996.5409,-3501.7235L13996.4959,-3501.6968L13996.479,-3501.6978L13996.4112,-3501.6989L13996.4109,-3501.6892L13996.4099,-3501.6474L13996.4093,-3501.6379L13996.4073,-3501.6295L13996.4009,-3501.6165L13996.3924,-3501.6058L13996.3824,-3501.5944L13996.3632,-3501.5681L13996.3578,-3501.5629L13996.3301,-3501.5248L13996.2989,-3501.4846L13996.2838,-3501.46L13996.2707,-3501.4403L13996.1933,-3501.4233L13996.1622,-3501.4174L13996.0584,-3501.3946L13996.0238,-3501.3868L13995.9804,-3501.3796L13995.9458,-3501.3725L13995.8823,-3501.3585L13995.796,-3501.3393L13995.6933,-3501.3191L13995.6714,-3501.3144L13995.6282,-3501.3044L13995.5789,-3501.2948L13995.5405,-3501.2869L13995.5152,-3501.2835L13995.4919,-3501.2813L13995.4631,-3501.2807L13995.4323,-3501.283L13995.3419,-3501.2937L13995.2843,-3501.3033L13995.2566,-3501.3044L13995.223,-3501.294L13995.1653,-3501.2718L13995.1413,-3501.263L13995.1076,-3501.252L13995.0597,-3501.2489L13994.9891,-3501.2474L13994.9164,-3501.2436L13994.8942,-3501.2421L13994.7596,-3501.2311L13994.691,-3501.2267L13994.6682,-3501.2241L13994.6418,-3501.2215L13994.611,-3501.2164L13994.5606,-3501.2058L13994.5206,-3501.1979L13994.4774,-3501.1917L13994.4041,-3501.1753L13994.3699,-3501.1691L13994.3288,-3501.1618L13994.3055,-3501.1561L13994.2886,-3501.1477L13994.2286,-3501.1045L13994.1877,-3501.0688L13994.1685,-3501.0547L13994.1328,-3501.0344L13994.1068,-3501.0243L13994.0904,-3501.0198L13994.0205,-3501.0108L13993.965,-3501.0051L13993.9231,-3501.002L13993.8945,-3500.9966L13993.8131,-3500.9789L13993.7739,-3500.9696L13993.7561,-3500.9658L13993.7254,-3500.9592L13993.7061,-3500.9549L13993.6653,-3500.9461L13993.6348,-3500.9353L13993.6126,-3500.9247L13993.5869,-3500.9092L13993.5699,-3500.8932L13993.5458,-3500.8631L13993.53,-3500.8438L13993.5182,-3500.829L13993.5039,-3500.8097L13993.4752,-3500.7663L13993.4552,-3500.7393L13993.4376,-3500.7191L13993.4047,-3500.6891L13993.3798,-3500.6699L13993.3664,-3500.6596L13993.356,-3500.6513L13993.3504,-3500.6488L13993.3184,-3500.6275L13993.3102,-3500.6224L13993.291,-3500.6106L13993.1958,-3500.5496L13993.1527,-3500.5231L13993.1013,-3500.4953L13993.0544,-3500.4698L13993.0486,-3500.4668L13993.0222,-3500.4517L13992.9944,-3500.4359L13992.9622,-3500.4235L13992.9223,-3500.4136L13992.87,-3500.4099L13992.8348,-3500.4088L13992.7929,-3500.4085L13992.68,-3500.406L13992.6032,-3500.4002L13992.5649,-3500.3998L13992.5389,-3500.4026L13992.4375,-3500.4195L13992.3902,-3500.4223L13992.3416,-3500.4202L13992.3231,-3500.4139L13992.3074,-3500.4055L13992.2894,-3500.3951L13992.2626,-3500.3803L13992.2388,-3500.3665L13992.1875,-3500.3352"/>
<path content="1,鴨川日東バス,1-9鴨川・館山線,8.0,8.0,8.0," xlink:title="1" d="M13992.1875,-3500.3352L13992.2388,-3500.3665L13992.2626,-3500.3803L13992.2894,-3500.3951L13992.3074,-3500.4055L13992.3231,-3500.4139L13992.3416,-3500.4202L13992.3902,-3500.4223L13992.4375,-3500.4195L13992.5389,-3500.4026L13992.5649,-3500.3998L13992.6032,-3500.4002L13992.68,-3500.406L13992.7929,-3500.4085L13992.8348,-3500.4088L13992.87,-3500.4099L13992.9223,-3500.4136L13992.9622,-3500.4235L13992.9944,-3500.4359L13993.0222,-3500.4517L13993.0486,-3500.4668L13993.0544,-3500.4698L13993.1013,-3500.4953L13993.1527,-3500.5231L13993.1958,-3500.5496L13993.291,-3500.6106L13993.3102,-3500.6224L13993.3184,-3500.6275L13993.3504,-3500.6488L13993.356,-3500.6513L13993.3664,-3500.6596L13993.3798,-3500.6699L13993.4047,-3500.6891L13993.4376,-3500.7191L13993.4552,-3500.7393L13993.4752,-3500.7663L13993.5039,-3500.8097L13993.5182,-3500.829L13993.53,-3500.8438L13993.5458,-3500.8631L13993.5699,-3500.8932L13993.5869,-3500.9092L13993.6126,-3500.9247L13993.6348,-3500.9353L13993.6653,-3500.9461L13993.7061,-3500.9549L13993.7254,-3500.9592L13993.7561,-3500.9658L13993.7739,-3500.9696L13993.8131,-3500.9789L13993.8945,-3500.9966L13993.9231,-3501.002L13993.965,-3501.0051L13994.0205,-3501.0108L13994.0904,-3501.0198L13994.1068,-3501.0243L13994.1328,-3501.0344L13994.1685,-3501.0547L13994.1877,-3501.0688L13994.2286,-3501.1045L13994.2886,-3501.1477L13994.3055,-3501.1561L13994.3288,-3501.1618L13994.3699,-3501.1691L13994.4041,-3501.1753L13994.4774,-3501.1917L13994.5206,-3501.1979L13994.5606,-3501.2058L13994.611,-3501.2164L13994.6418,-3501.2215L13994.6682,-3501.2241L13994.691,-3501.2267L13994.7596,-3501.2311L13994.8942,-3501.2421L13994.9164,-3501.2436L13994.9891,-3501.2474L13995.0597,-3501.2489L13995.1076,-3501.252L13995.1413,-3501.263L13995.1653,-3501.2718L13995.223,-3501.294L13995.2566,-3501.3044L13995.2843,-3501.3033L13995.3419,-3501.2937L13995.4323,-3501.283L13995.4631,-3501.2807L13995.4919,-3501.2813L13995.5152,-3501.2835L13995.5405,-3501.2869L13995.5789,-3501.2948L13995.6282,-3501.3044L13995.6714,-3501.3144L13995.6933,-3501.3191L13995.796,-3501.3393L13995.8823,-3501.3585L13995.9458,-3501.3725L13995.9804,-3501.3796L13996.0238,-3501.3868L13996.0584,-3501.3946L13996.1622,-3501.4174L13996.1933,-3501.4233L13996.2707,-3501.4403L13996.2838,-3501.46L13996.2989,-3501.4846L13996.3301,-3501.5248L13996.3578,-3501.5629L13996.3632,-3501.5681L13996.3824,-3501.5944L13996.3924,-3501.6058L13996.4009,-3501.6165L13996.4073,-3501.6295L13996.4093,-3501.6379L13996.4099,-3501.6474L13996.4109,-3501.6892L13996.4112,-3501.6989L13996.479,-3501.6978L13996.4959,-3501.6968L13996.5409,-3501.7235L13996.5944,-3501.7458L13996.7181,-3501.7722L13996.7766,-3501.7806L13996.8104,-3501.7814L13996.8877,-3501.7802L13996.8927,-3501.7801L13996.9023,-3501.7801L13996.9092,-3501.7795L13996.9275,-3501.7794L13997.0578,-3501.7818L13997.098,-3501.7845L13997.1217,-3501.7827L13997.1801,-3501.7668L13997.2198,-3501.7545L13997.2695,-3501.7654L13997.288,-3501.77L13997.3582,-3501.788L13997.4233,-3501.8022L13997.4579,-3501.8145L13997.4887,-3501.8291L13997.5011,-3501.8359L13997.5284,-3501.8539L13997.5506,-3501.8692L13997.5796,-3501.8875L13997.6078,-3501.9063L13997.6209,-3501.9085L13997.6499,-3501.9192L13997.6785,-3501.9267L13997.76,-3501.9407L13997.7894,-3501.9492L13997.8373,-3501.9631L13997.8929,-3501.9847L13997.9257,-3502.0022L13997.9511,-3502.0191L13997.9844,-3502.0409L13998.0001,-3502.0494L13998.021,-3502.0642L13998.0436,-3502.0772L13998.0895,-3502.0952L13998.1306,-3502.1093L13998.2002,-3502.1325L13998.2235,-3502.1399L13998.2938,-3502.1638L13998.3595,-3502.1866L13998.4094,-3502.2046L13998.4727,-3502.2265L13998.4971,-3502.2378L13998.5072,-3502.2406L13998.5354,-3502.2536L13998.6828,-3502.3091L13998.7974,-3502.3557L13998.8445,-3502.3727L13998.9211,-3502.4052L13998.9492,-3502.4193L13998.993,-3502.4435L13999.0545,-3502.4765L13999.1335,-3502.518L13999.1636,-3502.5303L13999.1787,-3502.5349L13999.2097,-3502.5377L13999.2419,-3502.5409L13999.2445,-3502.5414L13999.2919,-3502.5524L13999.3205,-3502.5659L13999.3419,-3502.5826L13999.3764,-3502.6159L13999.4341,-3502.6656L13999.6287,-3502.8261L13999.6821,-3502.8715L13999.6939,-3502.8904L13999.7271,-3502.9265L13999.7347,-3502.9315L13999.7409,-3502.9337L13999.7577,-3502.9375L13999.7696,-3502.9394L13999.813,-3502.9471L13999.8247,-3502.9476L13999.8511,-3502.9469L13999.8658,-3502.9465L13999.9274,-3502.9561L13999.9411,-3502.96L13999.9603,-3502.9673L14000.0027,-3502.9899L14000.011,-3502.9933L14000.0261,-3503.0017L14000.0692,-3503.022L14000.0884,-3503.0322L14000.1727,-3503.0739L14000.1822,-3503.0772L14000.2261,-3503.0998L14000.3206,-3503.146L14000.4275,-3503.1979L14000.4521,-3503.2097L14000.4713,-3503.2188L14000.5151,-3503.2379L14000.5467,-3503.2537L14000.5789,-3503.2734L14000.6076,-3503.2943L14000.6357,-3503.3146L14000.6696,-3503.3382L14000.7762,-3503.4242L14000.7816,-3503.4284L14000.819,-3503.4558L14000.8501,-3503.4803L14000.8864,-3503.5062L14000.905,-3503.5168L14000.9323,-3503.5321L14000.9493,-3503.5468L14000.959,-3503.5609L14000.9766,-3503.5771"/>
<path content="3,南房総市,丸線,6.0,4.0,4.0," xlink:title="3" d="M13992.1875,-3502.7686L13992.2244,-3502.7674L13992.2666,-3502.7618L13992.3087,-3502.7603"/>
<path content="3,南房総市,丸線,6.0,4.0,4.0," xlink:title="3" d="M13992.3087,-3502.7603L13992.368,-3502.7566L13992.4292,-3502.7568L13992.4552,-3502.7601L13992.4847,-3502.7646L13992.5517,-3502.7761L13992.6036,-3502.7844L13992.6123,-3502.7854L13992.6614,-3502.7928L13992.6881,-3502.7962L13992.7189,-3502.8013L13992.7607,-3502.8075L13992.8197,-3502.8159L13992.8874,-3502.8249L13992.9046,-3502.8266L13992.926,-3502.8284L13992.9676,-3502.8356L13992.9943,-3502.8413L13993.0211,-3502.852L13993.0519,-3502.8678L13993.0694,-3502.8752L13993.0816,-3502.8776L13993.0951,-3502.8769L13993.1978,-3502.8736L13993.2669,-3502.8713L13993.3355,-3502.8717L13993.369,-3502.8768L13993.3862,-3502.8796L13993.4252,-3502.8886L13993.4677,-3502.9021L13993.4937,-3502.9134L13993.5334,-3502.9394L13993.5627,-3502.9553L13993.6277,-3502.9703L13993.6567,-3502.9794L13993.7458,-3502.9974L13993.7988,-3503.0089L13993.8129,-3503.0126L13993.8602,-3503.0279L13993.8903,-3503.0419L13993.9157,-3503.0583L13993.9467,-3503.0772L13993.977,-3503.0887L13994.0212,-3503.1005L13994.0336,-3503.1038L13994.0501,-3503.1067L13994.1396,-3503.1291L13994.162,-3503.1326L13994.1923,-3503.1321L13994.2531,-3503.1196L13994.3205,-3503.1128L13994.3848,-3503.1098L13994.4364,-3503.1083L13994.4518,-3503.1099L13994.4786,-3503.1189L13994.513,-3503.1361L13994.5575,-3503.1648L13994.5856,-3503.1806L13994.6068,-3503.1913L13994.6383,-3503.2043L13994.6835,-3503.2167L13994.7192,-3503.2234L13994.7486,-3503.2263L13994.7785,-3503.2289L13994.7982,-3503.2286L13994.8158,-3503.2319L13994.837,-3503.2336L13994.874,-3503.2369L13994.9725,-3503.2425L13995.0171,-3503.252L13995.0507,-3503.2584L13995.0747,-3503.2584L13995.0816,-3503.2564L13995.111,-3503.246L13995.1355,-3503.2346L13995.1418,-3503.2325L13995.1624,-3503.2251L13995.1795,-3503.2218L13995.2281,-3503.2221L13995.2726,-3503.2263L13995.2918,-3503.2302L13995.3371,-3503.2387L13995.3644,-3503.2421L13995.3994,-3503.2409L13995.4346,-3503.2342L13995.4672,-3503.2279L13995.5025,-3503.2188L13995.5351,-3503.2158L13995.5261,-3503.2263L13995.472,-3503.2804L13995.4583,-3503.2984L13995.4497,-3503.3112L13995.4464,-3503.3218L13995.4393,-3503.3447L13995.4329,-3503.3643L13995.4229,-3503.3958L13995.4112,-3503.4291L13995.4107,-3503.4539L13995.4151,-3503.4836L13995.4135,-3503.5074L13995.4067,-3503.525L13995.3937,-3503.5508L13995.3647,-3503.5955L13995.3568,-3503.6127L13995.35,-3503.6369L13995.35,-3503.6643L13995.3551,-3503.6765L13995.3619,-3503.6889L13995.3788,-3503.7072L13995.3853,-3503.7083L13995.3939,-3503.7183L13995.4131,-3503.7312L13995.4665,-3503.7606L13995.4898,-3503.7746L13995.512,-3503.7945L13995.5411,-3503.8266L13995.5626,-3503.8637L13995.5693,-3503.8756L13995.5775,-3503.8947L13995.5897,-3503.934L13995.6069,-3503.9894L13995.6145,-3504.0308L13995.6268,-3504.1282L13995.6308,-3504.1599L13995.6379,-3504.2142L13995.6467,-3504.2826L13995.652,-3504.3205L13995.6559,-3504.3391L13995.6611,-3504.3822L13995.6653,-3504.4262L13995.6721,-3504.4855L13995.6789,-3504.5376L13995.6876,-3504.6114L13995.6917,-3504.6296L13995.6938,-3504.6641L13995.7071,-3504.7715L13995.7118,-3504.7993L13995.7162,-3504.8379L13995.7186,-3504.8641L13995.7142,-3504.8791L13995.7094,-3504.8875L13995.6876,-3504.9136L13995.6693,-3504.9369L13995.6613,-3504.9492L13995.6562,-3504.9607L13995.6581,-3504.9736L13995.6653,-3505.0043L13995.6832,-3505.0498L13995.7126,-3505.1116L13995.7186,-3505.1326L13995.72,-3505.1583L13995.7126,-3505.1791L13995.7034,-3505.1946L13995.701,-3505.2057L13995.688,-3505.2372L13995.6896,-3505.2782L13995.6955,-3505.32L13995.7007,-3505.3403L13995.7161,-3505.3953L13995.7169,-3505.4155L13995.7106,-3505.4364L13995.7058,-3505.4781L13995.705,-3505.5042L13995.709,-3505.5309L13995.7066,-3505.5661L13995.6883,-3505.5801L13995.6518,-3505.6051L13995.6366,-3505.6177L13995.6256,-3505.6284L13995.6217,-3505.6354L13995.6229,-3505.643L13995.6537,-3505.7133L13995.6623,-3505.7258L13995.6882,-3505.7733L13995.7243,-3505.8256L13995.7629,-3505.8906L13995.7786,-3505.9282L13995.7913,-3505.9686L13995.8066,-3506.0295L13995.8192,-3506.1206L13995.8216,-3506.1386L13995.8253,-3506.1597L13995.8348,-3506.1802L13995.8467,-3506.2009L13995.8641,-3506.2165L13995.9008,-3506.2455L13995.9357,-3506.2714L13995.957,-3506.29L13995.9869,-3506.3122L13996.0002,-3506.3359L13996.0076,-3506.3791L13996.02,-3506.4268L13996.0856,-3506.5089L13996.1552,-3506.6255L13996.1677,-3506.6581L13996.1693,-3506.6898L13996.1607,-3506.7096L13996.1478,-3506.7249L13996.1122,-3506.7541L13996.0554,-3506.798L13996.0262,-3506.8221L13996.0073,-3506.8359"/>
<path content="3,南房総市,丸線,6.0,4.0,4.0," xlink:title="3" d="M13992.5044,-3503.7682L13992.504,-3503.7423L13992.5045,-3503.7143L13992.5014,-3503.6755L13992.4956,-3503.6382L13992.4901,-3503.6145L13992.4815,-3503.5926L13992.4815,-3503.5676L13992.483,-3503.5553L13992.4838,-3503.5235L13992.4768,-3503.5063L13992.4388,-3503.4562L13992.4162,-3503.4223L13992.4077,-3503.4083L13992.4021,-3503.3922L13992.4006,-3503.3714L13992.3965,-3503.3649L13992.3886,-3503.3225L13992.3875,-3503.3086L13992.3912,-3503.2686L13992.3935,-3503.2351L13992.3922,-3503.2133L13992.3894,-3503.1862L13992.3867,-3503.1603L13992.3853,-3503.1402L13992.4043,-3503.0835L13992.4251,-3503.0284L13992.4388,-3502.9918L13992.4399,-3502.9835L13992.4399,-3502.976L13992.4374,-3502.968L13992.4309,-3502.9612L13992.4182,-3502.9546L13992.3977,-3502.9461L13992.3678,-3502.9384L13992.3433,-3502.9294L13992.3295,-3502.9205L13992.3186,-3502.9096L13992.3117,-3502.898L13992.3088,-3502.8701L13992.3087,-3502.7603"/>
</g>
</svg>
