<?xml version="1.0" encoding="UTF-8"?>
<svg  xmlns="http://www.w3.org/2000/svg" xmlns:xlink="http://www.w3.org/1999/xlink" xmlns:go="http://purl.org/svgmap/profile" property="N07_001,N07_002,N07_003,N07_004,N07_005,N07_006,N07_007" viewBox="13963.623046875 -3579.345703125 0.54931640625 0.54931640625" go:dataArea="13963.623046875 -3579.345703125 0.54931640625 0.54931640625" >
<metadata>
 <rdf:RDF xmlns:rdf="http://www.w3.org/1999/02/22-rdf-syntax-ns#" xmlns:crs="http://opengis.org/xmldtds/transformations.dtd" xmlns:svg="http://www.w3.org/svg" >
  <rdf:Description>
   <crs:CoordinateReferenceSystem rdf:resource="http://purl.org/crs/84" svg:transform="matrix(100.0,0.0,0.0,-100.0,0.0,0.0)" />
  </rdf:Description>
 </rdf:RDF>
</metadata>
<globalCoordinateSystem srsName="http://purl.org/crs/84" transform="matrix(100.0,0.0,0.0,-100.0,0.0,0.0)" />
<defs>
 <g id="p0" >
  <circle cx="0.0" cy="0.0" r="3" stroke="green" stroke-width="0.75" vector-effect="non-scaling-stroke" />
 </g>
</defs>
<g fill="none" fill-rule="evenodd" stroke="#FF00FF" stroke-width="0.75" opacity="0.5" vector-effect="non-scaling-stroke" stroke-linejoin="bevel" >
<path content="1,国際興業（株）,増14,24.0,21.0,19.0," xlink:title="1" d="M13963.7769,-3578.7964L13963.7771,-3578.8117L13963.7764,-3578.8236L13963.7708,-3578.8416L13963.7626,-3578.8585L13963.7591,-3578.863L13963.719,-3578.9041L13963.7135,-3578.9092L13963.6701,-3578.9522L13963.623,-3579.0026M13963.623,-3579.2912L13963.6489,-3579.2891L13963.6631,-3579.2881L13963.6754,-3579.2873L13963.6996,-3579.2856L13963.7482,-3579.2798L13963.7623,-3579.2796L13963.8109,-3579.2754L13963.8787,-3579.2687L13963.9029,-3579.2664L13963.9151,-3579.2655L13963.9266,-3579.2646L13963.9633,-3579.2603L13964.0425,-3579.2523L13964.0523,-3579.2528L13964.0798,-3579.2584L13964.1579,-3579.2856L13964.1724,-3579.2906"/>
<path content="1,国際興業（株）,増17,36.0,34.0,30.0," xlink:title="1" d="M13963.7769,-3578.7964L13963.7771,-3578.8117L13963.822,-3578.8202L13963.8461,-3578.8152L13963.8621,-3578.8174L13963.8718,-3578.814L13963.9001,-3578.8016L13963.91,-3578.7964M13963.9358,-3578.7964L13963.952,-3578.8081L13963.9596,-3578.8055L13963.9796,-3578.8134L13963.9927,-3578.8202L13964.0183,-3578.8326L13964.0557,-3578.8495L13964.0764,-3578.8591L13964.1075,-3578.8743L13964.1144,-3578.8765L13964.1246,-3578.8726L13964.1545,-3578.8698L13964.1724,-3578.8681"/>
<path content="1,国際興業（株）,増19,3.0,0.0,1.0," xlink:title="1" d="M13963.7769,-3578.7964L13963.7771,-3578.8117L13963.7764,-3578.8236L13963.7708,-3578.8416L13963.7626,-3578.8585L13963.7591,-3578.863L13963.719,-3578.9041L13963.7135,-3578.9092L13963.6701,-3578.9522L13963.623,-3579.0026M13963.623,-3579.2912L13963.6489,-3579.2891L13963.6631,-3579.2881L13963.6754,-3579.2873L13963.6996,-3579.2856L13963.7482,-3579.2798"/>
<path content="1,国際興業（株）,高01,55.5,52.0,48.5," xlink:title="1" d="M13964.1724,-3579.2342L13964.1663,-3579.2349L13964.1118,-3579.2426L13964.0523,-3579.2528L13964.0425,-3579.2523L13963.9633,-3579.2603L13963.9266,-3579.2646L13963.9151,-3579.2655L13963.9029,-3579.2664L13963.8787,-3579.2687L13963.8109,-3579.2754L13963.7623,-3579.2796L13963.7482,-3579.2798L13963.6996,-3579.2856L13963.6754,-3579.2873L13963.6631,-3579.2881L13963.6489,-3579.2891L13963.623,-3579.2912M13963.623,-3579.0026L13963.6701,-3578.9522L13963.7135,-3578.9092L13963.719,-3578.9041L13963.7591,-3578.863L13963.7626,-3578.8585L13963.7708,-3578.8416L13963.7764,-3578.8236L13963.7771,-3578.8117L13963.7769,-3578.7964"/>
<path content="1,国際興業（株）,高01-2,1.0,1.0,0.0," xlink:title="1" d="M13964.1724,-3579.2342L13964.1663,-3579.2349L13964.1118,-3579.2426L13964.0523,-3579.2528L13964.0425,-3579.2523L13963.9633,-3579.2603L13963.9266,-3579.2646L13963.9151,-3579.2655L13963.9029,-3579.2664L13963.8787,-3579.2687L13963.8109,-3579.2754L13963.7623,-3579.2796L13963.7482,-3579.2798L13963.6996,-3579.2856L13963.6754,-3579.2873L13963.6631,-3579.2881L13963.6489,-3579.2891L13963.623,-3579.2912M13963.623,-3579.0026L13963.6701,-3578.9522L13963.7135,-3578.9092L13963.719,-3578.9041L13963.7591,-3578.863L13963.7626,-3578.8585L13963.7708,-3578.8416L13963.7764,-3578.8236L13963.7771,-3578.8117L13963.7769,-3578.7964"/>
<path content="1,東武バス,増09,5.0,6.5,6.5," xlink:title="1" d="M13963.623,-3579.1419L13963.6317,-3579.1439L13963.6471,-3579.1486L13963.6513,-3579.1503L13963.6665,-3579.1565L13963.6996,-3579.1712L13963.7425,-3579.1932L13963.7611,-3579.2089L13963.7881,-3579.2405L13963.804,-3579.2647L13963.8109,-3579.2754L13963.7623,-3579.2796L13963.7482,-3579.2798L13963.6996,-3579.2856L13963.6754,-3579.2873L13963.6631,-3579.2881L13963.6489,-3579.2891L13963.623,-3579.2912"/>
<path content="1,東武バス,増10,1.0,0.0,0.0," xlink:title="1" d="M13963.623,-3579.1419L13963.6317,-3579.1439L13963.6471,-3579.1486L13963.6513,-3579.1503L13963.6665,-3579.1565L13963.6996,-3579.1712L13963.7425,-3579.1932L13963.7611,-3579.2089L13963.7881,-3579.2405L13963.804,-3579.2647L13963.8109,-3579.2754L13963.7623,-3579.2796L13963.7482,-3579.2798L13963.6996,-3579.2856L13963.6754,-3579.2873L13963.6631,-3579.2881L13963.6489,-3579.2891L13963.623,-3579.2912"/>
<path content="1,東武バスウエスト,増07,52.0,43.0,43.0," xlink:title="1" d="M13963.623,-3579.2912L13963.6489,-3579.2891L13963.6631,-3579.2881L13963.6754,-3579.2873L13963.6996,-3579.2856L13963.7482,-3579.2798L13963.7623,-3579.2796L13963.8109,-3579.2754L13963.804,-3579.2647L13963.7881,-3579.2405L13963.7611,-3579.2089L13963.7425,-3579.1932L13963.6996,-3579.1712L13963.6665,-3579.1565L13963.6513,-3579.1503L13963.6471,-3579.1486L13963.6317,-3579.1439L13963.623,-3579.1419"/>
<path content="1,東武バスウエスト,増09,6.0,6.5,6.5," xlink:title="1" d="M13963.623,-3579.1419L13963.6317,-3579.1439L13963.6471,-3579.1486L13963.6513,-3579.1503L13963.6665,-3579.1565L13963.6996,-3579.1712L13963.7425,-3579.1932L13963.7611,-3579.2089L13963.7881,-3579.2405L13963.804,-3579.2647L13963.8109,-3579.2754L13963.7623,-3579.2796L13963.7482,-3579.2798L13963.6996,-3579.2856L13963.6754,-3579.2873L13963.6631,-3579.2881L13963.6489,-3579.2891L13963.623,-3579.2912"/>
<path content="1,東武バスウエスト,増10,2.5,2.0,2.0," xlink:title="1" d="M13963.623,-3579.1419L13963.6317,-3579.1439L13963.6471,-3579.1486L13963.6513,-3579.1503L13963.6665,-3579.1565L13963.6996,-3579.1712L13963.7425,-3579.1932L13963.7611,-3579.2089L13963.7881,-3579.2405L13963.804,-3579.2647L13963.8109,-3579.2754L13963.7623,-3579.2796L13963.7482,-3579.2798L13963.6996,-3579.2856L13963.6754,-3579.2873L13963.6631,-3579.2881L13963.6489,-3579.2891L13963.623,-3579.2912"/>
<path content="3,和光市,北コース,10.0,10.0,10.0," xlink:title="3" d="M13963.8476,-3579.3457L13963.8164,-3579.2861L13963.8109,-3579.2754L13963.804,-3579.2647L13963.7881,-3579.2405L13963.7611,-3579.2089L13963.7425,-3579.1932L13963.6996,-3579.1712L13963.6665,-3579.1565L13963.6513,-3579.1503L13963.6471,-3579.1486L13963.6317,-3579.1439L13963.623,-3579.1419"/>
</g>
</svg>
