<?xml version="1.0" encoding="UTF-8"?>
<svg  xmlns="http://www.w3.org/2000/svg" xmlns:xlink="http://www.w3.org/1999/xlink" xmlns:go="http://purl.org/svgmap/profile" property="N07_001,N07_002,N07_003,N07_004,N07_005,N07_006,N07_007" viewBox="13640.625 -3673.828125 17.578125 17.578125" go:dataArea="13640.625 -3673.828125 17.578125 17.578125" >
<metadata>
 <rdf:RDF xmlns:rdf="http://www.w3.org/1999/02/22-rdf-syntax-ns#" xmlns:crs="http://opengis.org/xmldtds/transformations.dtd" xmlns:svg="http://www.w3.org/svg" >
  <rdf:Description>
   <crs:CoordinateReferenceSystem rdf:resource="http://purl.org/crs/84" svg:transform="matrix(100.0,0.0,0.0,-100.0,0.0,0.0)" />
  </rdf:Description>
 </rdf:RDF>
</metadata>
<globalCoordinateSystem srsName="http://purl.org/crs/84" transform="matrix(100.0,0.0,0.0,-100.0,0.0,0.0)" />
<defs>
 <g id="p0" >
  <circle cx="0.0" cy="0.0" r="3" stroke="green" stroke-width="0.75" vector-effect="non-scaling-stroke" />
 </g>
</defs>
<g fill="none" fill-rule="evenodd" stroke="#FF00FF" stroke-width="0.75" opacity="0.5" vector-effect="non-scaling-stroke" stroke-linejoin="bevel" >
<path content="1,北陸鉄道（株）,安原B線51,54.5,35.0,31.5," xlink:title="1" d="M13656.7627,-3656.7576L13656.7465,-3656.7329L13656.7284,-3656.7069L13656.7172,-3656.6923L13656.7165,-3656.6912L13656.7012,-3656.6703L13656.6656,-3656.6208L13656.6454,-3656.5926L13656.6077,-3656.5419L13656.6026,-3656.5284L13656.602,-3656.5198L13656.6007,-3656.4856L13656.6007,-3656.4546L13656.6028,-3656.4214L13656.6754,-3656.4203L13656.7151,-3656.4186L13656.7898,-3656.418L13656.9401,-3656.4158L13656.9447,-3656.4158L13657.0263,-3656.4152L13657.2029,-3656.4124L13657.2817,-3656.4113L13657.4671,-3656.4089L13657.4668,-3656.3989L13657.5364,-3656.3964L13657.5566,-3656.3989L13657.5594,-3656.5408L13657.5593,-3656.5461L13657.5594,-3656.5802L13657.5385,-3656.7121L13657.5326,-3656.752L13657.528,-3656.7966L13657.5573,-3656.7988L13657.5985,-3656.8033L13657.6313,-3656.8056L13657.6348,-3656.8067L13657.6899,-3656.8078L13657.7227,-3656.8084L13657.7655,-3656.812L13657.7918,-3656.8117L13657.8692,-3656.8162L13657.9132,-3656.8185L13657.9027,-3656.8827L13657.8978,-3656.9154L13657.8916,-3656.9509L13657.9404,-3656.9509L13658.0144,-3656.9497L13658.0472,-3656.9481L13658.1134,-3656.9436L13658.1417,-3656.9426L13658.1895,-3656.9407L13658.2031,-3656.9401"/>
<path content="1,北陸鉄道（株）,示野線52,11.0,7.0,7.0," xlink:title="1" d="M13657.8225,-3657.6583L13657.812,-3657.6499L13657.7875,-3657.6341L13657.7533,-3657.6071L13657.7338,-3657.593L13657.6885,-3657.5586L13657.6843,-3657.5541L13657.6368,-3657.5158L13657.6026,-3657.4848L13657.6522,-3657.4437L13657.6689,-3657.4323L13657.6871,-3657.4246L13657.7115,-3657.4161L13657.7122,-3657.415L13657.7611,-3657.3992L13657.7666,-3657.3981L13657.796,-3657.3894L13657.8008,-3657.3879L13657.812,-3657.3851L13657.8183,-3657.3829L13657.8448,-3657.375L13657.8476,-3657.3733L13657.9292,-3657.3496L13657.9599,-3657.3401L13658.0115,-3657.3249L13658.0171,-3657.3238L13658.0506,-3657.3164L13658.0709,-3657.3159L13658.0995,-3657.3176L13658.1155,-3657.3209L13658.1627,-3657.3344L13658.1838,-3657.3405L13658.2031,-3657.3355"/>
</g>
</svg>
