<?xml version="1.0" encoding="UTF-8"?>
<svg  xmlns="http://www.w3.org/2000/svg" xmlns:xlink="http://www.w3.org/1999/xlink" xmlns:go="http://purl.org/svgmap/profile" property="N07_001,N07_002,N07_003,N07_004,N07_005,N07_006,N07_007" viewBox="13346.19140625 -3528.80859375 4.39453125 4.39453125" go:dataArea="13346.19140625 -3528.80859375 4.39453125 4.39453125" >
<metadata>
 <rdf:RDF xmlns:rdf="http://www.w3.org/1999/02/22-rdf-syntax-ns#" xmlns:crs="http://opengis.org/xmldtds/transformations.dtd" xmlns:svg="http://www.w3.org/svg" >
  <rdf:Description>
   <crs:CoordinateReferenceSystem rdf:resource="http://purl.org/crs/84" svg:transform="matrix(100.0,0.0,0.0,-100.0,0.0,0.0)" />
  </rdf:Description>
 </rdf:RDF>
</metadata>
<globalCoordinateSystem srsName="http://purl.org/crs/84" transform="matrix(100.0,0.0,0.0,-100.0,0.0,0.0)" />
<defs>
 <g id="p0" >
  <circle cx="0.0" cy="0.0" r="3" stroke="green" stroke-width="0.75" vector-effect="non-scaling-stroke" />
 </g>
</defs>
<g fill="none" fill-rule="evenodd" stroke="#FF00FF" stroke-width="0.75" opacity="0.5" vector-effect="non-scaling-stroke" stroke-linejoin="bevel" >
<path content="1,一畑バス（株）,京都～松江・出雲線,4.0,4.0,4.0," xlink:title="1" d="M13349.4643,-3528.8086L13349.4841,-3528.7985L13349.6014,-3528.7386L13349.6704,-3528.7039L13349.7358,-3528.6725L13349.7543,-3528.6637L13349.8004,-3528.6395L13349.847,-3528.6192L13349.8753,-3528.6085L13349.8793,-3528.6079L13349.9192,-3528.5933L13349.9337,-3528.5894L13349.9343,-3528.5882L13350.0023,-3528.5702L13350.0105,-3528.5696L13350.0594,-3528.5589L13350.1328,-3528.5465L13350.1726,-3528.5426L13350.2036,-3528.5415L13350.2492,-3528.541L13350.2951,-3528.5438L13350.3321,-3528.5464L13350.3647,-3528.5507L13350.4136,-3528.5598L13350.4694,-3528.5739L13350.5212,-3528.5921L13350.5824,-3528.6185L13350.5859,-3528.6202"/>
<path content="1,一畑バス（株）,大阪～松江・出雲線,8.0,8.0,8.0," xlink:title="1" d="M13349.4643,-3528.8086L13349.4841,-3528.7985L13349.6014,-3528.7386L13349.6704,-3528.7039L13349.7358,-3528.6725L13349.7543,-3528.6637L13349.8004,-3528.6395L13349.847,-3528.6192L13349.8753,-3528.6085L13349.8793,-3528.6079L13349.9192,-3528.5933L13349.9337,-3528.5894L13349.9343,-3528.5882L13350.0023,-3528.5702L13350.0105,-3528.5696L13350.0594,-3528.5589L13350.1328,-3528.5465L13350.1726,-3528.5426L13350.2036,-3528.5415L13350.2492,-3528.541L13350.2951,-3528.5438L13350.3321,-3528.5464L13350.3647,-3528.5507L13350.4136,-3528.5598L13350.4694,-3528.5739L13350.5212,-3528.5921L13350.5824,-3528.6185L13350.5859,-3528.6202"/>
<path content="1,一畑バス（株）,岡山～米子・松江・出雲線,7.0,7.0,7.0," xlink:title="1" d="M13350.5859,-3528.6202L13350.5824,-3528.6185L13350.5212,-3528.5921L13350.4694,-3528.5739L13350.4136,-3528.5598L13350.3647,-3528.5507L13350.3321,-3528.5464L13350.2951,-3528.5438L13350.2492,-3528.541L13350.2036,-3528.5415L13350.1726,-3528.5426L13350.1328,-3528.5465L13350.0594,-3528.5589L13350.0105,-3528.5696L13350.0023,-3528.5702L13349.9343,-3528.5882L13349.9337,-3528.5894L13349.9192,-3528.5933L13349.8793,-3528.6079L13349.8753,-3528.6085L13349.847,-3528.6192L13349.8004,-3528.6395L13349.7543,-3528.6637L13349.7358,-3528.6725L13349.6704,-3528.7039L13349.6014,-3528.7386L13349.4841,-3528.7985L13349.4643,-3528.8086"/>
<path content="1,一畑バス（株）,東京～松江・出雲線,1.0,1.0,1.0," xlink:title="1" d="M13349.4643,-3528.8086L13349.4841,-3528.7985L13349.6014,-3528.7386L13349.6704,-3528.7039L13349.7358,-3528.6725L13349.7543,-3528.6637L13349.8004,-3528.6395L13349.847,-3528.6192L13349.8753,-3528.6085L13349.8793,-3528.6079L13349.9192,-3528.5933L13349.9337,-3528.5894L13349.9343,-3528.5882L13350.0023,-3528.5702L13350.0105,-3528.5696L13350.0594,-3528.5589L13350.1328,-3528.5465L13350.1726,-3528.5426L13350.2036,-3528.5415L13350.2492,-3528.541L13350.2951,-3528.5438L13350.3321,-3528.5464L13350.3647,-3528.5507L13350.4136,-3528.5598L13350.4694,-3528.5739L13350.5212,-3528.5921L13350.5824,-3528.6185L13350.5859,-3528.6202"/>
<path content="1,両備ホールディングス（株）,ももたろうエクスプレス　岡山～出雲・松江・米子線,7.0,7.0,7.0," xlink:title="1" d="M13350.5859,-3528.6202L13350.5824,-3528.6185L13350.5212,-3528.5921L13350.4694,-3528.5739L13350.4136,-3528.5598L13350.3647,-3528.5507L13350.3321,-3528.5464L13350.2951,-3528.5438L13350.2492,-3528.541L13350.2036,-3528.5415L13350.1726,-3528.5426L13350.1328,-3528.5465L13350.0594,-3528.5589L13350.0105,-3528.5696L13350.0023,-3528.5702L13349.9343,-3528.5882L13349.9337,-3528.5894L13349.9192,-3528.5933L13349.8793,-3528.6079L13349.8753,-3528.6085L13349.847,-3528.6192L13349.8004,-3528.6395L13349.7543,-3528.6637L13349.7358,-3528.6725L13349.6704,-3528.7039L13349.6014,-3528.7386L13349.4841,-3528.7985L13349.4643,-3528.8086"/>
<path content="1,中鉄バス（株）,出雲線　ももたろうエクスプレス,7.0,7.0,7.0," xlink:title="1" d="M13350.5859,-3528.6202L13350.5824,-3528.6185L13350.5212,-3528.5921L13350.4694,-3528.5739L13350.4136,-3528.5598L13350.3647,-3528.5507L13350.3321,-3528.5464L13350.2951,-3528.5438L13350.2492,-3528.541L13350.2036,-3528.5415L13350.1726,-3528.5426L13350.1328,-3528.5465L13350.0594,-3528.5589L13350.0105,-3528.5696L13350.0023,-3528.5702L13349.9343,-3528.5882L13349.9337,-3528.5894L13349.9192,-3528.5933L13349.8793,-3528.6079L13349.8753,-3528.6085L13349.847,-3528.6192L13349.8004,-3528.6395L13349.7543,-3528.6637L13349.7358,-3528.6725L13349.6704,-3528.7039L13349.6014,-3528.7386L13349.4841,-3528.7985L13349.4643,-3528.8086"/>
<path content="1,京浜急行バス（株）,キャメル号,1.0,1.0,1.0," xlink:title="1" d="M13350.5859,-3528.6202L13350.5824,-3528.6185L13350.5212,-3528.5921L13350.4694,-3528.5739L13350.4136,-3528.5598L13350.3647,-3528.5507L13350.3321,-3528.5464L13350.2951,-3528.5438L13350.2492,-3528.541L13350.2036,-3528.5415L13350.1726,-3528.5426L13350.1328,-3528.5465L13350.0594,-3528.5589L13350.0105,-3528.5696L13350.0023,-3528.5702L13349.9343,-3528.5882L13349.9337,-3528.5894L13349.9192,-3528.5933L13349.8793,-3528.6079L13349.8753,-3528.6085L13349.847,-3528.6192L13349.8004,-3528.6395L13349.7543,-3528.6637L13349.7358,-3528.6725L13349.6704,-3528.7039L13349.6014,-3528.7386L13349.4841,-3528.7985L13349.4643,-3528.8086"/>
<path content="1,京阪バス（株）,京都⇔松江・出雲,1.0,1.0,1.0," xlink:title="1" d="M13350.5859,-3528.6202L13350.5824,-3528.6185L13350.5212,-3528.5921L13350.4694,-3528.5739L13350.4136,-3528.5598L13350.3647,-3528.5507L13350.3321,-3528.5464L13350.2951,-3528.5438L13350.2492,-3528.541L13350.2036,-3528.5415L13350.1726,-3528.5426L13350.1328,-3528.5465L13350.0594,-3528.5589L13350.0105,-3528.5696L13350.0023,-3528.5702L13349.9343,-3528.5882L13349.9337,-3528.5894L13349.9192,-3528.5933L13349.8793,-3528.6079L13349.8753,-3528.6085L13349.847,-3528.6192L13349.8004,-3528.6395L13349.7543,-3528.6637L13349.7358,-3528.6725L13349.6704,-3528.7039L13349.6014,-3528.7386L13349.4841,-3528.7985L13349.4643,-3528.8086"/>
<path content="1,京阪バス（株）,京都⇔米子,1.0,1.0,1.0," xlink:title="1" d="M13349.4643,-3528.8086L13349.4841,-3528.7985L13349.6014,-3528.7386L13349.6704,-3528.7039L13349.7358,-3528.6725L13349.7543,-3528.6637L13349.8004,-3528.6395L13349.847,-3528.6192L13349.8753,-3528.6085L13349.8793,-3528.6079L13349.9192,-3528.5933L13349.9337,-3528.5894L13349.9343,-3528.5882L13350.0023,-3528.5702L13350.0105,-3528.5696L13350.0594,-3528.5589L13350.1328,-3528.5465L13350.1726,-3528.5426L13350.2036,-3528.5415L13350.2492,-3528.541L13350.2951,-3528.5438L13350.3321,-3528.5464L13350.3647,-3528.5507L13350.4136,-3528.5598L13350.4694,-3528.5739L13350.5212,-3528.5921L13350.5824,-3528.6185L13350.5859,-3528.6202"/>
<path content="1,広島電鉄（株）,広島～米子線（溝口経由）,1.0,1.0,1.0," xlink:title="1" d="M13346.1914,-3525.7723L13346.2129,-3525.7872L13346.226,-3525.7965L13346.3468,-3525.897L13346.3921,-3525.9395L13346.4069,-3525.95L13346.4317,-3525.9747L13346.4423,-3525.9892L13346.4702,-3526.0229L13346.4866,-3526.0496L13346.4978,-3526.0651L13346.5162,-3526.0875L13346.5388,-3526.1049L13346.5642,-3526.1222L13346.5933,-3526.138L13346.6247,-3526.1509L13346.6553,-3526.1612L13346.6908,-3526.1705L13346.8138,-3526.1926L13346.9182,-3526.2089L13346.9342,-3526.21L13346.9514,-3526.2108L13347.0173,-3526.2157L13347.1605,-3526.2243L13347.3191,-3526.23L13347.3348,-3526.2309L13347.4368,-3526.2374L13347.4592,-3526.2407L13347.5013,-3526.2469L13347.5481,-3526.2587L13347.5859,-3526.2752L13347.6111,-3526.29L13347.6409,-3526.3109L13347.6612,-3526.3324L13347.6958,-3526.3628L13347.7139,-3526.3863L13347.7266,-3526.4054L13347.7336,-3526.4145L13347.7363,-3526.4288L13347.7445,-3526.4521L13347.7487,-3526.4696L13347.7491,-3526.4962L13347.7519,-3526.5262L13347.7519,-3526.5433L13347.7501,-3526.5644L13347.7466,-3526.5827L13347.7419,-3526.5993L13347.7364,-3526.6143L13347.7227,-3526.6389L13347.7142,-3526.6517L13347.7035,-3526.6667L13347.6808,-3526.7001L13347.6689,-3526.714L13347.6624,-3526.726L13347.638,-3526.7585L13347.61,-3526.7901L13347.6015,-3526.8026L13347.5941,-3526.8157L13347.5683,-3526.8548L13347.5597,-3526.8745L13347.5543,-3526.8895L13347.5492,-3526.9079L13347.5471,-3526.927L13347.5475,-3526.9387L13347.5484,-3526.9488L13347.5553,-3526.9734L13347.5637,-3526.9883L13347.5743,-3527.0023L13347.5867,-3527.0156L13347.5989,-3527.0252L13347.6198,-3527.0409L13347.6609,-3527.067L13347.7095,-3527.0992L13347.7163,-3527.1023L13347.7452,-3527.1183L13347.7805,-3527.1351L13347.8302,-3527.1574L13347.8468,-3527.1653L13347.8776,-3527.1819L13347.8898,-3527.1894L13347.9101,-3527.2026L13347.924,-3527.2126L13347.9398,-3527.2232L13347.9612,-3527.2416L13347.9877,-3527.2678L13347.9982,-3527.2804L13348.0066,-3527.2907L13348.0106,-3527.297L13348.0134,-3527.3023L13348.015,-3527.3174L13348.0152,-3527.3324L13348.0142,-3527.3403L13348.0129,-3527.3484L13348.0099,-3527.3546L13348.0005,-3527.3713L13347.9845,-3527.3922L13347.9751,-3527.4058L13347.9623,-3527.4227L13347.9487,-3527.444L13347.9368,-3527.462L13347.9309,-3527.4766L13347.9303,-3527.4856L13347.933,-3527.4969L13347.9364,-3527.5092L13347.9438,-3527.5266L13347.9509,-3527.5421L13347.9587,-3527.5543L13347.9656,-3527.5592L13347.9706,-3527.5691L13347.9733,-3527.572L13347.9862,-3527.584L13348.0068,-3527.5959L13348.0168,-3527.6011L13348.0266,-3527.6039L13348.0446,-3527.6107L13348.0733,-3527.6162L13348.1264,-3527.6299L13348.17,-3527.6402L13348.2015,-3527.6477L13348.2204,-3527.6548L13348.2272,-3527.6602L13348.2343,-3527.6682L13348.2384,-3527.6746L13348.2397,-3527.6777L13348.244,-3527.6895L13348.243,-3527.7049L13348.2407,-3527.7265L13348.2377,-3527.733L13348.2364,-3527.7413L13348.2341,-3527.7585L13348.2385,-3527.7771L13348.2429,-3527.7854L13348.2503,-3527.8002L13348.2606,-3527.8143L13348.3314,-3527.9136L13348.3573,-3527.9566L13348.3746,-3527.978L13348.3907,-3528.0111L13348.4026,-3528.0586L13348.4102,-3528.0815L13348.4147,-3528.1001L13348.4333,-3528.1697L13348.4804,-3528.3927L13348.4835,-3528.4082L13348.5018,-3528.506L13348.5041,-3528.5444L13348.5104,-3528.5635L13348.5111,-3528.6117L13348.5082,-3528.6469L13348.4999,-3528.6926L13348.4933,-3528.7125L13348.4874,-3528.7396L13348.475,-3528.7655L13348.4698,-3528.7737L13348.4481,-3528.8056L13348.4462,-3528.8086"/>
<path content="1,日ノ丸自動車（株）,広島‐米子線,5.0,5.0,5.0," xlink:title="1" d="M13346.1914,-3525.7723L13346.2129,-3525.7872L13346.226,-3525.7965L13346.3468,-3525.897L13346.3921,-3525.9395L13346.4069,-3525.95L13346.4317,-3525.9747L13346.4423,-3525.9892L13346.4702,-3526.0229L13346.4866,-3526.0496L13346.4978,-3526.0651L13346.5162,-3526.0875L13346.5388,-3526.1049L13346.5642,-3526.1222L13346.5933,-3526.138L13346.6247,-3526.1509L13346.6553,-3526.1612L13346.6908,-3526.1705L13346.8138,-3526.1926L13346.9182,-3526.2089L13346.9342,-3526.21L13346.9514,-3526.2108L13347.0173,-3526.2157L13347.1605,-3526.2243L13347.3191,-3526.23L13347.3348,-3526.2309L13347.4368,-3526.2374L13347.4592,-3526.2407L13347.5013,-3526.2469L13347.5481,-3526.2587L13347.5859,-3526.2752L13347.6111,-3526.29L13347.6409,-3526.3109L13347.6612,-3526.3324L13347.6958,-3526.3628L13347.7139,-3526.3863L13347.7266,-3526.4054L13347.7336,-3526.4145L13347.7363,-3526.4288L13347.7445,-3526.4521L13347.7487,-3526.4696L13347.7491,-3526.4962L13347.7519,-3526.5262L13347.7519,-3526.5433L13347.7501,-3526.5644L13347.7466,-3526.5827L13347.7419,-3526.5993L13347.7364,-3526.6143L13347.7227,-3526.6389L13347.7142,-3526.6517L13347.7035,-3526.6667L13347.6808,-3526.7001L13347.6689,-3526.714L13347.6624,-3526.726L13347.638,-3526.7585L13347.61,-3526.7901L13347.6015,-3526.8026L13347.5941,-3526.8157L13347.5763,-3526.8424L13347.5683,-3526.8548L13347.5597,-3526.8745L13347.5543,-3526.8895L13347.5492,-3526.9079L13347.5471,-3526.927L13347.5475,-3526.9387L13347.5484,-3526.9488L13347.5553,-3526.9734L13347.5637,-3526.9883L13347.5743,-3527.0023L13347.5867,-3527.0156L13347.5989,-3527.0252L13347.6198,-3527.0409L13347.6609,-3527.067L13347.7095,-3527.0992L13347.7163,-3527.1023L13347.7452,-3527.1183L13347.7805,-3527.1351L13347.8302,-3527.1574L13347.8468,-3527.1653L13347.8776,-3527.1819L13347.8898,-3527.1894L13347.9101,-3527.2026L13347.924,-3527.2126L13347.9398,-3527.2232L13347.9612,-3527.2416L13347.9877,-3527.2678L13347.9982,-3527.2804L13348.0066,-3527.2907L13348.0106,-3527.297L13348.0134,-3527.3023L13348.015,-3527.3174L13348.0152,-3527.3324L13348.0142,-3527.3403L13348.0129,-3527.3484L13348.0099,-3527.3546L13348.0005,-3527.3713L13347.9845,-3527.3922L13347.9751,-3527.4058L13347.9623,-3527.4227L13347.9487,-3527.444L13347.9368,-3527.462L13347.9309,-3527.4766L13347.9303,-3527.4856L13347.933,-3527.4969L13347.9364,-3527.5092L13347.9438,-3527.5266L13347.9509,-3527.5421L13347.9587,-3527.5543L13347.9656,-3527.5592L13347.9706,-3527.5691L13347.9733,-3527.572L13347.9862,-3527.584L13348.0068,-3527.5959L13348.0168,-3527.6011L13348.0266,-3527.6039L13348.0446,-3527.6107L13348.0733,-3527.6162L13348.1264,-3527.6299L13348.17,-3527.6402L13348.2015,-3527.6477L13348.2204,-3527.6548L13348.2272,-3527.6602L13348.2343,-3527.6682L13348.2384,-3527.6746L13348.2397,-3527.6777L13348.244,-3527.6895L13348.243,-3527.7049L13348.2407,-3527.7265L13348.2377,-3527.733L13348.2364,-3527.7413L13348.2341,-3527.7585L13348.2385,-3527.7771L13348.2429,-3527.7854L13348.2503,-3527.8002L13348.2606,-3527.8143L13348.3314,-3527.9136L13348.3573,-3527.9566L13348.3746,-3527.978L13348.3907,-3528.0111L13348.4026,-3528.0586L13348.4102,-3528.0815L13348.4147,-3528.1001L13348.4333,-3528.1697L13348.4804,-3528.3927L13348.4835,-3528.4082L13348.5018,-3528.506L13348.5041,-3528.5444L13348.5104,-3528.5635L13348.5111,-3528.6117L13348.5082,-3528.6469L13348.4999,-3528.6926L13348.4933,-3528.7125L13348.4874,-3528.7396L13348.475,-3528.7655L13348.4698,-3528.7737L13348.4481,-3528.8056L13348.4462,-3528.8086"/>
<path content="1,日ノ丸自動車（株）,日野本線,7.0,3.0,3.0," xlink:title="1" d="M13346.1914,-3525.7723L13346.2129,-3525.7872L13346.226,-3525.7965L13346.3468,-3525.897L13346.3921,-3525.9395L13346.4069,-3525.95L13346.4317,-3525.9747L13346.4423,-3525.9892L13346.4702,-3526.0229L13346.4866,-3526.0496L13346.4978,-3526.0651L13346.5162,-3526.0875L13346.5388,-3526.1049L13346.5642,-3526.1222L13346.5933,-3526.138L13346.6247,-3526.1509L13346.6553,-3526.1612L13346.6908,-3526.1705L13346.8138,-3526.1926L13346.9182,-3526.2089L13346.9342,-3526.21L13346.9514,-3526.2108L13347.0173,-3526.2157L13347.1605,-3526.2243L13347.3191,-3526.23L13347.3348,-3526.2309L13347.4368,-3526.2374L13347.4592,-3526.2407L13347.5013,-3526.2469L13347.5481,-3526.2587L13347.5859,-3526.2752L13347.6111,-3526.29L13347.6409,-3526.3109L13347.6612,-3526.3324L13347.6958,-3526.3628L13347.7139,-3526.3863L13347.7266,-3526.4054L13347.7336,-3526.4145L13347.7363,-3526.4288L13347.7445,-3526.4521L13347.7487,-3526.4696L13347.7491,-3526.4962L13347.7519,-3526.5262L13347.7519,-3526.5433L13347.7501,-3526.5644L13347.7466,-3526.5827L13347.7419,-3526.5993L13347.7364,-3526.6143L13347.7227,-3526.6389L13347.7142,-3526.6517L13347.7035,-3526.6667L13347.6808,-3526.7001L13347.6689,-3526.714L13347.6624,-3526.726L13347.638,-3526.7585L13347.61,-3526.7901L13347.6015,-3526.8026L13347.5941,-3526.8157L13347.5683,-3526.8548L13347.5597,-3526.8745L13347.5543,-3526.8895L13347.5492,-3526.9079L13347.5471,-3526.927L13347.5475,-3526.9387L13347.5484,-3526.9488L13347.5553,-3526.9734L13347.5637,-3526.9883L13347.5743,-3527.0023L13347.5867,-3527.0156L13347.5989,-3527.0252L13347.6198,-3527.0409L13347.6609,-3527.067L13347.7095,-3527.0992L13347.7163,-3527.1023L13347.7452,-3527.1183L13347.7805,-3527.1351L13347.8302,-3527.1574L13347.8468,-3527.1653L13347.8776,-3527.1819L13347.8898,-3527.1894L13347.9101,-3527.2026L13347.924,-3527.2126L13347.9398,-3527.2232L13347.9612,-3527.2416L13347.9877,-3527.2678L13347.9982,-3527.2804L13348.0066,-3527.2907L13348.0106,-3527.297L13348.0134,-3527.3023L13348.015,-3527.3174L13348.0152,-3527.3324L13348.0142,-3527.3403L13348.0129,-3527.3484L13348.0099,-3527.3546L13348.0005,-3527.3713L13347.9845,-3527.3922L13347.9751,-3527.4058L13347.9623,-3527.4227L13347.9487,-3527.444L13347.9368,-3527.462L13347.9309,-3527.4766L13347.9303,-3527.4856L13347.933,-3527.4969L13347.9364,-3527.5092L13347.9438,-3527.5266L13347.9509,-3527.5421L13347.9587,-3527.5543L13347.9656,-3527.5592L13347.9706,-3527.5691L13347.9733,-3527.572L13347.9862,-3527.584L13348.0068,-3527.5959L13348.0168,-3527.6011L13348.0266,-3527.6039L13348.0446,-3527.6107L13348.0733,-3527.6162L13348.1264,-3527.6299L13348.17,-3527.6402L13348.2015,-3527.6477L13348.2204,-3527.6548L13348.2272,-3527.6602L13348.2343,-3527.6682L13348.2384,-3527.6746L13348.2397,-3527.6777L13348.244,-3527.6895L13348.243,-3527.7049L13348.2407,-3527.7265L13348.2377,-3527.733L13348.2364,-3527.7413L13348.2341,-3527.7585L13348.2385,-3527.7771L13348.2429,-3527.7854L13348.2503,-3527.8002L13348.2606,-3527.8143L13348.3314,-3527.9136L13348.3573,-3527.9566L13348.3746,-3527.978"/>
<path content="1,日ノ丸自動車（株）,日野本線,7.0,3.0,3.0," xlink:title="1" d="M13348.3746,-3527.978L13348.3907,-3528.0111L13348.4026,-3528.0586L13348.4102,-3528.0815L13348.4147,-3528.1001L13348.4333,-3528.1697L13348.4804,-3528.3927L13348.4835,-3528.4082L13348.5018,-3528.506L13348.5041,-3528.5444L13348.5104,-3528.5635L13348.5111,-3528.6117L13348.5082,-3528.6469"/>
<path content="1,日ノ丸自動車（株）,日野本線,7.0,3.0,3.0," xlink:title="1" d="M13348.3746,-3527.978L13348.4039,-3528.0012L13348.4203,-3528.0238L13348.4312,-3528.0346L13348.4593,-3528.0704L13348.5046,-3528.1315L13348.5295,-3528.1642L13348.5337,-3528.1745L13348.5347,-3528.1875L13348.543,-3528.2263L13348.5484,-3528.2686L13348.5551,-3528.297L13348.562,-3528.3237L13348.5671,-3528.3638L13348.5825,-3528.4415L13348.5878,-3528.4769L13348.589,-3528.4966L13348.5883,-3528.5059L13348.5852,-3528.5229L13348.5856,-3528.5407L13348.5778,-3528.5484L13348.5708,-3528.561L13348.5601,-3528.6051L13348.5556,-3528.6135L13348.5519,-3528.6214L13348.5363,-3528.6303L13348.5268,-3528.6346L13348.5082,-3528.6469"/>
<path content="1,日ノ丸自動車（株）,日野本線,7.0,3.0,3.0," xlink:title="1" d="M13348.5082,-3528.6469L13348.4999,-3528.6926L13348.4933,-3528.7125L13348.4874,-3528.7396L13348.475,-3528.7655L13348.4698,-3528.7737L13348.4481,-3528.8056L13348.4462,-3528.8086"/>
<path content="1,日ノ丸自動車（株）,東京‐米子線,1.0,1.0,1.0," xlink:title="1" d="M13349.4643,-3528.8086L13349.4841,-3528.7985L13349.6014,-3528.7386L13349.6704,-3528.7039L13349.7358,-3528.6725L13349.7543,-3528.6637L13349.8004,-3528.6395L13349.847,-3528.6192L13349.8753,-3528.6085L13349.8793,-3528.6079L13349.9192,-3528.5933L13349.9337,-3528.5894L13349.9343,-3528.5882L13350.0023,-3528.5702L13350.0105,-3528.5696L13350.0594,-3528.5589L13350.1328,-3528.5465L13350.1726,-3528.5426L13350.2036,-3528.5415L13350.2492,-3528.541L13350.2951,-3528.5438L13350.3321,-3528.5464L13350.3647,-3528.5507L13350.4136,-3528.5598L13350.4694,-3528.5739L13350.5212,-3528.5921L13350.5824,-3528.6185L13350.5859,-3528.6202"/>
<path content="1,日ノ丸自動車（株）,福岡‐米子・倉吉・鳥取線,1.0,1.0,1.0," xlink:title="1" d="M13349.4643,-3528.8086L13349.4841,-3528.7985L13349.6014,-3528.7386L13349.6704,-3528.7039L13349.7358,-3528.6725L13349.7543,-3528.6637L13349.8004,-3528.6395L13349.847,-3528.6192L13349.8753,-3528.6085L13349.8793,-3528.6079L13349.9192,-3528.5933L13349.9337,-3528.5894L13349.9343,-3528.5882L13350.0023,-3528.5702L13350.0105,-3528.5696L13350.0594,-3528.5589L13350.1328,-3528.5465L13350.1726,-3528.5426L13350.2036,-3528.5415L13350.2492,-3528.541L13350.2951,-3528.5438L13350.3321,-3528.5464L13350.3647,-3528.5507L13350.4136,-3528.5598L13350.4694,-3528.5739L13350.5212,-3528.5921L13350.5824,-3528.6185L13350.5859,-3528.6202"/>
<path content="1,日本交通（株）,米子～京都線,3.0,3.0,3.0," xlink:title="1" d="M13349.4643,-3528.8086L13349.4841,-3528.7985L13349.6014,-3528.7386L13349.6704,-3528.7039L13349.7358,-3528.6725L13349.7543,-3528.6637L13349.8004,-3528.6395L13349.847,-3528.6192L13349.8753,-3528.6085L13349.8793,-3528.6079L13349.9192,-3528.5933L13349.9337,-3528.5894L13349.9343,-3528.5882L13350.0023,-3528.5702L13350.0105,-3528.5696L13350.0594,-3528.5589L13350.1328,-3528.5465L13350.1726,-3528.5426L13350.2036,-3528.5415L13350.2492,-3528.541L13350.2951,-3528.5438L13350.3321,-3528.5464L13350.3647,-3528.5507L13350.4136,-3528.5598L13350.4694,-3528.5739L13350.5212,-3528.5921L13350.5824,-3528.6185L13350.5859,-3528.6202"/>
<path content="1,日本交通（株）,米子～広島線　通常便,3.0,3.0,3.0," xlink:title="1" d="M13346.1914,-3525.7723L13346.2129,-3525.7872L13346.226,-3525.7965L13346.3468,-3525.897L13346.3921,-3525.9395L13346.4069,-3525.95L13346.4317,-3525.9747L13346.4423,-3525.9892L13346.4702,-3526.0229L13346.4866,-3526.0496L13346.4978,-3526.0651L13346.5162,-3526.0875L13346.5388,-3526.1049L13346.5642,-3526.1222L13346.5933,-3526.138L13346.6247,-3526.1509L13346.6553,-3526.1612L13346.6908,-3526.1705L13346.8138,-3526.1926L13346.9182,-3526.2089L13346.9342,-3526.21L13346.9514,-3526.2108L13347.0173,-3526.2157L13347.1605,-3526.2243L13347.3191,-3526.23L13347.3348,-3526.2309L13347.4368,-3526.2374L13347.4592,-3526.2407L13347.5013,-3526.2469L13347.5481,-3526.2587L13347.5859,-3526.2752L13347.6111,-3526.29L13347.6409,-3526.3109L13347.6612,-3526.3324L13347.6958,-3526.3628L13347.7139,-3526.3863L13347.7266,-3526.4054L13347.7336,-3526.4145L13347.7363,-3526.4288L13347.7445,-3526.4521L13347.7487,-3526.4696L13347.7491,-3526.4962L13347.7519,-3526.5262L13347.7519,-3526.5433L13347.7501,-3526.5644L13347.7466,-3526.5827L13347.7419,-3526.5993L13347.7364,-3526.6143L13347.7227,-3526.6389L13347.7142,-3526.6517L13347.7035,-3526.6667L13347.6808,-3526.7001L13347.6689,-3526.714L13347.6624,-3526.726L13347.638,-3526.7585L13347.61,-3526.7901L13347.6015,-3526.8026L13347.5941,-3526.8157L13347.5763,-3526.8424L13347.5683,-3526.8548L13347.5597,-3526.8745L13347.5543,-3526.8895L13347.5492,-3526.9079L13347.5471,-3526.927L13347.5475,-3526.9387L13347.5484,-3526.9488L13347.5553,-3526.9734L13347.5637,-3526.9883L13347.5743,-3527.0023L13347.5867,-3527.0156L13347.5989,-3527.0252L13347.6198,-3527.0409L13347.6609,-3527.067L13347.7095,-3527.0992L13347.7163,-3527.1023L13347.7452,-3527.1183L13347.7805,-3527.1351L13347.8302,-3527.1574L13347.8468,-3527.1653L13347.8776,-3527.1819L13347.8898,-3527.1894L13347.9101,-3527.2026L13347.924,-3527.2126L13347.9398,-3527.2232L13347.9612,-3527.2416L13347.9877,-3527.2678L13347.9982,-3527.2804L13348.0066,-3527.2907L13348.0106,-3527.297L13348.0134,-3527.3023L13348.015,-3527.3174L13348.0152,-3527.3324L13348.0142,-3527.3403L13348.0129,-3527.3484L13348.0099,-3527.3546L13348.0005,-3527.3713L13347.9845,-3527.3922L13347.9751,-3527.4058L13347.9623,-3527.4227L13347.9487,-3527.444L13347.9368,-3527.462L13347.9309,-3527.4766L13347.9303,-3527.4856L13347.933,-3527.4969L13347.9364,-3527.5092L13347.9438,-3527.5266L13347.9509,-3527.5421L13347.9587,-3527.5543L13347.9656,-3527.5592L13347.9706,-3527.5691L13347.9733,-3527.572L13347.9862,-3527.584L13348.0068,-3527.5959L13348.0168,-3527.6011L13348.0266,-3527.6039L13348.0446,-3527.6107L13348.0733,-3527.6162L13348.1264,-3527.6299L13348.17,-3527.6402L13348.2015,-3527.6477L13348.2204,-3527.6548L13348.2272,-3527.6602L13348.2343,-3527.6682L13348.2384,-3527.6746L13348.2397,-3527.6777L13348.244,-3527.6895L13348.243,-3527.7049L13348.2407,-3527.7265L13348.2377,-3527.733L13348.2364,-3527.7413L13348.2341,-3527.7585L13348.2385,-3527.7771L13348.2429,-3527.7854L13348.2503,-3527.8002L13348.2606,-3527.8143L13348.3314,-3527.9136L13348.3573,-3527.9566L13348.3746,-3527.978L13348.3907,-3528.0111L13348.4026,-3528.0586L13348.4102,-3528.0815L13348.4147,-3528.1001L13348.4333,-3528.1697L13348.4804,-3528.3927L13348.4835,-3528.4082L13348.5018,-3528.506L13348.5041,-3528.5444L13348.5104,-3528.5635L13348.5111,-3528.6117L13348.5082,-3528.6469L13348.4999,-3528.6926L13348.4933,-3528.7125L13348.4874,-3528.7396L13348.475,-3528.7655L13348.4698,-3528.7737L13348.4481,-3528.8056L13348.4462,-3528.8086"/>
<path content="1,日本交通（株）,米子～東京線,1.0,1.0,1.0," xlink:title="1" d="M13349.4643,-3528.8086L13349.4841,-3528.7985L13349.6014,-3528.7386L13349.6704,-3528.7039L13349.7358,-3528.6725L13349.7543,-3528.6637L13349.8004,-3528.6395L13349.847,-3528.6192L13349.8753,-3528.6085L13349.8793,-3528.6079L13349.9192,-3528.5933L13349.9337,-3528.5894L13349.9343,-3528.5882L13350.0023,-3528.5702L13350.0105,-3528.5696L13350.0594,-3528.5589L13350.1328,-3528.5465L13350.1726,-3528.5426L13350.2036,-3528.5415L13350.2492,-3528.541L13350.2951,-3528.5438L13350.3321,-3528.5464L13350.3647,-3528.5507L13350.4136,-3528.5598L13350.4694,-3528.5739L13350.5212,-3528.5921L13350.5824,-3528.6185L13350.5859,-3528.6202"/>
<path content="1,日本交通（株）,米子～神戸・大阪線　なんば便,12.0,12.0,12.0," xlink:title="1" d="M13349.4643,-3528.8086L13349.4841,-3528.7985L13349.6014,-3528.7386L13349.6704,-3528.7039L13349.7358,-3528.6725L13349.7543,-3528.6637L13349.8004,-3528.6395L13349.847,-3528.6192L13349.8753,-3528.6085L13349.8793,-3528.6079L13349.9192,-3528.5933L13349.9337,-3528.5894L13349.9343,-3528.5882L13350.0023,-3528.5702L13350.0105,-3528.5696L13350.0594,-3528.5589L13350.1328,-3528.5465L13350.1726,-3528.5426L13350.2036,-3528.5415L13350.2492,-3528.541L13350.2951,-3528.5438L13350.3321,-3528.5464L13350.3647,-3528.5507L13350.4136,-3528.5598L13350.4694,-3528.5739L13350.5212,-3528.5921L13350.5824,-3528.6185L13350.5859,-3528.6202"/>
<path content="1,日本交通（株）,米子～神戸・大阪線　夜行便,1.0,1.0,1.0," xlink:title="1" d="M13349.4643,-3528.8086L13349.4841,-3528.7985L13349.6014,-3528.7386L13349.6704,-3528.7039L13349.7358,-3528.6725L13349.7543,-3528.6637L13349.8004,-3528.6395L13349.847,-3528.6192L13349.8753,-3528.6085L13349.8793,-3528.6079L13349.9192,-3528.5933L13349.9337,-3528.5894L13349.9343,-3528.5882L13350.0023,-3528.5702L13350.0105,-3528.5696L13350.0594,-3528.5589L13350.1328,-3528.5465L13350.1726,-3528.5426L13350.2036,-3528.5415L13350.2492,-3528.541L13350.2951,-3528.5438L13350.3321,-3528.5464L13350.3647,-3528.5507L13350.4136,-3528.5598L13350.4694,-3528.5739L13350.5212,-3528.5921L13350.5824,-3528.6185L13350.5859,-3528.6202"/>
<path content="1,日本交通（株）,米子～神戸・大阪線　梅田便,5.0,5.0,5.0," xlink:title="1" d="M13349.4643,-3528.8086L13349.4841,-3528.7985L13349.6014,-3528.7386L13349.6704,-3528.7039L13349.7358,-3528.6725L13349.7543,-3528.6637L13349.8004,-3528.6395L13349.847,-3528.6192L13349.8753,-3528.6085L13349.8793,-3528.6079L13349.9192,-3528.5933L13349.9337,-3528.5894L13349.9343,-3528.5882L13350.0023,-3528.5702L13350.0105,-3528.5696L13350.0594,-3528.5589L13350.1328,-3528.5465L13350.1726,-3528.5426L13350.2036,-3528.5415L13350.2492,-3528.541L13350.2951,-3528.5438L13350.3321,-3528.5464L13350.3647,-3528.5507L13350.4136,-3528.5598L13350.4694,-3528.5739L13350.5212,-3528.5921L13350.5824,-3528.6185L13350.5859,-3528.6202"/>
<path content="1,日本交通（株）,米子～神戸・大阪線　神戸便,5.0,5.0,5.0," xlink:title="1" d="M13349.4643,-3528.8086L13349.4841,-3528.7985L13349.6014,-3528.7386L13349.6704,-3528.7039L13349.7358,-3528.6725L13349.7543,-3528.6637L13349.8004,-3528.6395L13349.847,-3528.6192L13349.8753,-3528.6085L13349.8793,-3528.6079L13349.9192,-3528.5933L13349.9337,-3528.5894L13349.9343,-3528.5882L13350.0023,-3528.5702L13350.0105,-3528.5696L13350.0594,-3528.5589L13350.1328,-3528.5465L13350.1726,-3528.5426L13350.2036,-3528.5415L13350.2492,-3528.541L13350.2951,-3528.5438L13350.3321,-3528.5464L13350.3647,-3528.5507L13350.4136,-3528.5598L13350.4694,-3528.5739L13350.5212,-3528.5921L13350.5824,-3528.6185L13350.5859,-3528.6202"/>
<path content="1,日本交通（株）,鳥取・倉吉・米子～福岡線,1.0,1.0,1.0," xlink:title="1" d="M13349.4643,-3528.8086L13349.4841,-3528.7985L13349.6014,-3528.7386L13349.6704,-3528.7039L13349.7358,-3528.6725L13349.7543,-3528.6637L13349.8004,-3528.6395L13349.847,-3528.6192L13349.8753,-3528.6085L13349.8793,-3528.6079L13349.9192,-3528.5933L13349.9337,-3528.5894L13349.9343,-3528.5882L13350.0023,-3528.5702L13350.0105,-3528.5696L13350.0594,-3528.5589L13350.1328,-3528.5465L13350.1726,-3528.5426L13350.2036,-3528.5415L13350.2492,-3528.541L13350.2951,-3528.5438L13350.3321,-3528.5464L13350.3647,-3528.5507L13350.4136,-3528.5598L13350.4694,-3528.5739L13350.5212,-3528.5921L13350.5824,-3528.6185L13350.5859,-3528.6202"/>
<path content="1,日本交通（株）（大阪）,米子～京都線,3.0,3.0,3.0," xlink:title="1" d="M13349.4643,-3528.8086L13349.4841,-3528.7985L13349.6014,-3528.7386L13349.6704,-3528.7039L13349.7358,-3528.6725L13349.7543,-3528.6637L13349.8004,-3528.6395L13349.847,-3528.6192L13349.8753,-3528.6085L13349.8793,-3528.6079L13349.9192,-3528.5933L13349.9337,-3528.5894L13349.9343,-3528.5882L13350.0023,-3528.5702L13350.0105,-3528.5696L13350.0594,-3528.5589L13350.1328,-3528.5465L13350.1726,-3528.5426L13350.2036,-3528.5415L13350.2492,-3528.541L13350.2951,-3528.5438L13350.3321,-3528.5464L13350.3647,-3528.5507L13350.4136,-3528.5598L13350.4694,-3528.5739L13350.5212,-3528.5921L13350.5824,-3528.6185L13350.5859,-3528.6202"/>
<path content="1,日本交通（株）（大阪）,米子～神戸・大阪線,23.0,23.0,23.0," xlink:title="1" d="M13350.5859,-3528.6202L13350.5824,-3528.6185L13350.5212,-3528.5921L13350.4694,-3528.5739L13350.4136,-3528.5598L13350.3647,-3528.5507L13350.3321,-3528.5464L13350.2951,-3528.5438L13350.2492,-3528.541L13350.2036,-3528.5415L13350.1726,-3528.5426L13350.1328,-3528.5465L13350.0594,-3528.5589L13350.0105,-3528.5696L13350.0023,-3528.5702L13349.9343,-3528.5882L13349.9337,-3528.5894L13349.9192,-3528.5933L13349.8793,-3528.6079L13349.8753,-3528.6085L13349.847,-3528.6192L13349.8004,-3528.6395L13349.7543,-3528.6637L13349.7358,-3528.6725L13349.6704,-3528.7039L13349.6014,-3528.7386L13349.4841,-3528.7985L13349.4643,-3528.8086"/>
<path content="1,阪急バス（株）,松江・出雲行（くにびき号）,8.0,8.0,8.0," xlink:title="1" d="M13350.5859,-3528.6202L13350.5824,-3528.6185L13350.5212,-3528.5921L13350.4694,-3528.5739L13350.4136,-3528.5598L13350.3647,-3528.5507L13350.3321,-3528.5464L13350.2951,-3528.5438L13350.2492,-3528.541L13350.2036,-3528.5415L13350.1726,-3528.5426L13350.1328,-3528.5465L13350.0594,-3528.5589L13350.0105,-3528.5696L13350.0023,-3528.5702L13349.9343,-3528.5882L13349.9337,-3528.5894L13349.9192,-3528.5933L13349.8793,-3528.6079L13349.8753,-3528.6085L13349.847,-3528.6192L13349.8004,-3528.6395L13349.7543,-3528.6637L13349.7358,-3528.6725L13349.6704,-3528.7039L13349.6014,-3528.7386L13349.4841,-3528.7985L13349.4643,-3528.8086"/>
<path content="1,（株）中国バス,山陰・四国　松江線,1.0,1.0,1.0," xlink:title="1" d="M13350.5859,-3528.6202L13350.5824,-3528.6185L13350.5212,-3528.5921L13350.4694,-3528.5739L13350.4136,-3528.5598L13350.3647,-3528.5507L13350.3321,-3528.5464L13350.2951,-3528.5438L13350.2492,-3528.541L13350.2036,-3528.5415L13350.1726,-3528.5426L13350.1328,-3528.5465L13350.0594,-3528.5589L13350.0105,-3528.5696L13350.0023,-3528.5702L13349.9343,-3528.5882L13349.9337,-3528.5894L13349.9192,-3528.5933L13349.8793,-3528.6079L13349.8753,-3528.6085L13349.847,-3528.6192L13349.8004,-3528.6395L13349.7543,-3528.6637L13349.7358,-3528.6725L13349.6704,-3528.7039L13349.6014,-3528.7386L13349.4841,-3528.7985L13349.4643,-3528.8086"/>
<path content="3,江府町,下安井線,1.5,1.5,1.5," xlink:title="3" d="M13346.2129,-3525.7872L13346.226,-3525.7965L13346.3468,-3525.897L13346.3921,-3525.9395L13346.4069,-3525.95L13346.4317,-3525.9747L13346.4423,-3525.9892L13346.4702,-3526.0229L13346.4866,-3526.0496L13346.4978,-3526.0651L13346.5162,-3526.0875L13346.5388,-3526.1049L13346.5642,-3526.1222L13346.5933,-3526.138L13346.6247,-3526.1509L13346.6553,-3526.1612L13346.6908,-3526.1705L13346.8138,-3526.1926L13346.9182,-3526.2089L13346.9342,-3526.21L13346.9514,-3526.2108L13347.0173,-3526.2157L13347.1605,-3526.2243L13347.3191,-3526.23L13347.3348,-3526.2309L13347.4368,-3526.2374L13347.4592,-3526.2407L13347.5013,-3526.2469L13347.5481,-3526.2587L13347.5859,-3526.2752L13347.6111,-3526.29L13347.6409,-3526.3109L13347.6612,-3526.3324L13347.6958,-3526.3628L13347.7139,-3526.3863L13347.7266,-3526.4054L13347.7336,-3526.4145L13347.7363,-3526.4288L13347.7445,-3526.4521L13347.7487,-3526.4696L13347.7491,-3526.4962L13347.7519,-3526.5262L13347.7519,-3526.5433L13347.7501,-3526.5644L13347.7466,-3526.5827L13347.7419,-3526.5993L13347.7364,-3526.6143L13347.7227,-3526.6389L13347.7142,-3526.6517L13347.7035,-3526.6667L13347.6808,-3526.7001L13347.6689,-3526.714L13347.6624,-3526.726L13347.638,-3526.7585L13347.61,-3526.7901L13347.6015,-3526.8026L13347.5941,-3526.8157L13347.5683,-3526.8548L13347.5597,-3526.8745L13347.5543,-3526.8895L13347.5492,-3526.9079L13347.5471,-3526.927L13347.5475,-3526.9387L13347.5484,-3526.9488L13347.5553,-3526.9734L13347.5637,-3526.9883L13347.5743,-3527.0023L13347.5867,-3527.0156L13347.5989,-3527.0252L13347.6198,-3527.0409L13347.6609,-3527.067L13347.7095,-3527.0992L13347.7163,-3527.1023L13347.7452,-3527.1183L13347.7805,-3527.1351L13347.8302,-3527.1574L13347.8468,-3527.1653L13347.8776,-3527.1819L13347.8898,-3527.1894L13347.9101,-3527.2026L13347.924,-3527.2126L13347.9398,-3527.2232L13347.9612,-3527.2416L13347.9877,-3527.2678L13347.9982,-3527.2804L13348.0066,-3527.2907L13348.0106,-3527.297L13348.0134,-3527.3023L13348.015,-3527.3174L13348.0152,-3527.3324L13348.0142,-3527.3403L13348.0129,-3527.3484L13348.0099,-3527.3546L13348.0005,-3527.3713L13347.9845,-3527.3922L13347.9751,-3527.4058L13347.9623,-3527.4227L13347.9487,-3527.444L13347.9368,-3527.462L13347.9309,-3527.4766L13347.9303,-3527.4856L13347.933,-3527.4969L13347.9364,-3527.5092L13347.9438,-3527.5266L13347.9509,-3527.5421L13347.9587,-3527.5543L13347.9656,-3527.5592L13347.9706,-3527.5691L13347.9733,-3527.572L13347.9862,-3527.584L13348.0068,-3527.5959L13348.0168,-3527.6011L13348.0266,-3527.6039L13348.0446,-3527.6107L13348.0733,-3527.6162L13348.1264,-3527.6299L13348.17,-3527.6402L13348.2015,-3527.6477L13348.2204,-3527.6548L13348.2272,-3527.6602L13348.2343,-3527.6682L13348.2384,-3527.6746L13348.2397,-3527.6777L13348.244,-3527.6895L13348.243,-3527.7049L13348.2407,-3527.7265L13348.2377,-3527.733L13348.2364,-3527.7413L13348.2341,-3527.7585L13348.2385,-3527.7771L13348.2429,-3527.7854L13348.2503,-3527.8002L13348.2606,-3527.8143L13348.3314,-3527.9136L13348.3573,-3527.9566L13348.3746,-3527.978L13348.4039,-3528.0012L13348.4203,-3528.0238L13348.4312,-3528.0346L13348.4593,-3528.0704L13348.5046,-3528.1315L13348.5295,-3528.1642L13348.5337,-3528.1745L13348.5347,-3528.1875L13348.543,-3528.2263L13348.5484,-3528.2686L13348.5551,-3528.297L13348.562,-3528.3237L13348.5671,-3528.3638L13348.5825,-3528.4415L13348.5878,-3528.4769L13348.589,-3528.4966L13348.5883,-3528.5059L13348.5852,-3528.5229L13348.5856,-3528.5407L13348.6273,-3528.5256L13348.9334,-3528.4114"/>
<path content="3,江府町,下蚊屋線,6.0,6.0,6.0," xlink:title="3" d="M13348.2335,-3527.8073L13348.2503,-3527.8002L13348.2606,-3527.8143L13348.3314,-3527.9136L13348.3573,-3527.9566L13348.3746,-3527.978L13348.4039,-3528.0012L13348.4203,-3528.0238L13348.4312,-3528.0346L13348.4593,-3528.0704L13348.5046,-3528.1315L13348.5295,-3528.1642L13348.5337,-3528.1745L13348.5347,-3528.1875L13348.543,-3528.2263L13348.5484,-3528.2686L13348.5551,-3528.297L13348.562,-3528.3237L13348.5671,-3528.3638L13348.5825,-3528.4415L13348.5878,-3528.4769L13348.589,-3528.4966L13348.5883,-3528.5059L13348.5852,-3528.5229L13348.5856,-3528.5407L13348.6273,-3528.5256L13348.9334,-3528.4114L13348.9993,-3528.4094L13349.0191,-3528.4058L13349.0262,-3528.3989L13349.0262,-3528.3897L13349.0179,-3528.3821L13348.9841,-3528.3617L13348.8831,-3528.3083L13348.8743,-3528.2999L13348.8737,-3528.2946L13348.8747,-3528.2893L13348.8785,-3528.284L13348.884,-3528.28L13348.8943,-3528.28L13348.9126,-3528.2865L13349.0199,-3528.3217L13349.1147,-3528.3716L13349.1208,-3528.3773L13349.1207,-3528.3878L13349.1122,-3528.4177L13349.1109,-3528.428L13349.1134,-3528.4393L13349.1455,-3528.4803L13349.1546,-3528.4918L13349.1608,-3528.4959L13349.1693,-3528.4966L13349.1777,-3528.4959L13349.1841,-3528.4933L13349.1883,-3528.4885L13349.1883,-3528.4827L13349.1876,-3528.4759L13349.181,-3528.4672L13349.1632,-3528.449L13349.1521,-3528.4334L13349.1496,-3528.4255L13349.1507,-3528.4164L13349.1551,-3528.4108L13349.1636,-3528.4051L13349.1786,-3528.3978L13349.1914,-3528.3951L13349.2015,-3528.3952L13349.2209,-3528.3979L13349.4146,-3528.4765L13349.4808,-3528.504L13349.6305,-3528.5684L13349.7315,-3528.6105L13349.8708,-3528.6712L13350.0396,-3528.7434L13350.179,-3528.8086"/>
<path content="3,江府町,俣野線,6.0,6.0,6.0," xlink:title="3" d="M13350.5859,-3526.5837L13350.5754,-3526.5805L13350.5589,-3526.5729L13350.5303,-3526.5623L13350.5062,-3526.5552L13350.4794,-3526.547L13350.4599,-3526.539L13350.4426,-3526.5304L13350.4113,-3526.5127L13350.3812,-3526.4954L13350.328,-3526.4705L13350.3066,-3526.4586L13350.2806,-3526.4437L13350.2512,-3526.4311L13350.2343,-3526.426L13350.2082,-3526.4209L13350.1653,-3526.4141L13350.1346,-3526.4094L13350.1122,-3526.4065L13350.0846,-3526.4038L13350.0703,-3526.4029L13350.0476,-3526.3991L13350.0313,-3526.3936L13350.0197,-3526.389L13350.0102,-3526.3841L13350.0037,-3526.3774L13349.9978,-3526.3681L13349.9889,-3526.3544L13349.9751,-3526.2957L13349.9572,-3526.2376L13349.9502,-3526.2192L13349.9448,-3526.2097L13349.9328,-3526.1995L13349.9218,-3526.1933L13349.9026,-3526.1835L13349.872,-3526.1718L13349.8453,-3526.1629L13349.8104,-3526.1518L13349.7763,-3526.1409L13349.7538,-3526.1341L13349.7352,-3526.1316L13349.7238,-3526.1311L13349.7122,-3526.1321L13349.6995,-3526.1363L13349.6754,-3526.146L13349.6527,-3526.1604L13349.6366,-3526.1739L13349.6246,-3526.1853L13349.6084,-3526.1979L13349.5943,-3526.207L13349.5792,-3526.2108L13349.5591,-3526.2152L13349.5481,-3526.2181L13349.5345,-3526.2254L13349.5161,-3526.2385L13349.4938,-3526.2607L13349.481,-3526.2755L13349.4564,-3526.3147L13349.4415,-3526.3486L13349.4269,-3526.3753L13349.4153,-3526.3939L13349.4001,-3526.4114L13349.3853,-3526.4245L13349.3669,-3526.4333L13349.3532,-3526.4393L13349.3363,-3526.4415L13349.326,-3526.4413L13349.3123,-3526.4391L13349.3022,-3526.4364L13349.2752,-3526.4262L13349.2481,-3526.4127L13349.0847,-3526.3019L13349.0614,-3526.2926L13349.0409,-3526.284L13349.0206,-3526.2787L13349.0046,-3526.2779L13348.9835,-3526.2779L13348.9473,-3526.2819L13348.8824,-3526.2974L13348.8489,-3526.3041L13348.8227,-3526.3062L13348.7931,-3526.3041L13348.7634,-3526.2995L13348.7407,-3526.2966L13348.7163,-3526.2957L13348.6808,-3526.2982L13348.6448,-3526.3032L13348.6199,-3526.3098L13348.6004,-3526.3156L13348.5837,-3526.3239L13348.5644,-3526.3328L13348.5477,-3526.3433L13348.5073,-3526.3725L13348.4774,-3526.3996L13348.4523,-3526.4242L13348.4104,-3526.4739L13348.388,-3526.5005L13348.3564,-3526.5379L13348.313,-3526.5947L13348.2884,-3526.6292L13348.2654,-3526.6574L13348.2511,-3526.6761L13348.2359,-3526.6913L13348.2188,-3526.7004L13348.2013,-3526.7073L13348.1874,-3526.7127L13348.1724,-3526.7169L13348.16,-3526.7191L13348.1459,-3526.7199L13348.1303,-3526.7201L13348.1118,-3526.7188L13348.0764,-3526.7152L13348.0407,-3526.709L13348.0039,-3526.6995L13347.9884,-3526.6941L13347.9654,-3526.6834L13347.9319,-3526.6685L13347.8971,-3526.6553L13347.86,-3526.6441L13347.8323,-3526.6479L13347.7593,-3526.6699L13347.749,-3526.6722L13347.7367,-3526.674L13347.7035,-3526.6667L13347.6808,-3526.7001L13347.6689,-3526.714L13347.6624,-3526.726L13347.638,-3526.7585L13347.61,-3526.7901L13347.6015,-3526.8026L13347.5941,-3526.8157L13347.5683,-3526.8548L13347.5597,-3526.8745L13347.5543,-3526.8895L13347.5492,-3526.9079L13347.5471,-3526.927L13347.5475,-3526.9387L13347.5484,-3526.9488L13347.5553,-3526.9734L13347.5637,-3526.9883L13347.5743,-3527.0023L13347.5867,-3527.0156L13347.5989,-3527.0252L13347.6198,-3527.0409L13347.6609,-3527.067L13347.7095,-3527.0992L13347.7163,-3527.1023L13347.7452,-3527.1183L13347.7805,-3527.1351L13347.8302,-3527.1574L13347.8468,-3527.1653L13347.8776,-3527.1819L13347.8898,-3527.1894L13347.9101,-3527.2026L13347.924,-3527.2126L13347.9398,-3527.2232L13347.9612,-3527.2416L13347.9877,-3527.2678L13347.9982,-3527.2804L13348.0066,-3527.2907L13348.0106,-3527.297L13348.0134,-3527.3023L13348.015,-3527.3174L13348.0152,-3527.3324L13348.0142,-3527.3403L13348.0129,-3527.3484L13348.0099,-3527.3546L13348.0005,-3527.3713L13347.9845,-3527.3922L13347.9751,-3527.4058L13347.9623,-3527.4227L13347.9487,-3527.444L13347.9368,-3527.462L13347.9309,-3527.4766L13347.9303,-3527.4856L13347.933,-3527.4969L13347.9364,-3527.5092L13347.9438,-3527.5266L13347.9509,-3527.5421L13347.9587,-3527.5543L13347.9656,-3527.5592L13347.9706,-3527.5691L13347.9733,-3527.572L13347.9862,-3527.584L13348.0068,-3527.5959L13348.0168,-3527.6011L13348.0266,-3527.6039L13348.0446,-3527.6107L13348.0733,-3527.6162L13348.1264,-3527.6299L13348.17,-3527.6402L13348.2015,-3527.6477L13348.2204,-3527.6548L13348.2272,-3527.6602L13348.2343,-3527.6682L13348.2384,-3527.6746L13348.2397,-3527.6777L13348.244,-3527.6895L13348.243,-3527.7049L13348.2407,-3527.7265L13348.2377,-3527.733L13348.2364,-3527.7413L13348.2341,-3527.7585L13348.2385,-3527.7771L13348.2429,-3527.7854L13348.2503,-3527.8002"/>
<path content="3,江府町,俣野線,6.0,6.0,6.0," xlink:title="3" d="M13348.2503,-3527.8002L13348.2335,-3527.8073"/>
<path content="3,江府町,俣野線,6.0,6.0,6.0," xlink:title="3" d="M13348.2503,-3527.8002L13348.2606,-3527.8143L13348.3314,-3527.9136L13348.3573,-3527.9566L13348.3746,-3527.978"/>
<path content="3,江府町,俣野線,6.0,6.0,6.0," xlink:title="3" d="M13348.3746,-3527.978L13348.3907,-3528.0111L13348.4026,-3528.0586L13348.4102,-3528.0815L13348.4147,-3528.1001L13348.4333,-3528.1697L13348.4804,-3528.3927L13348.4835,-3528.4082L13348.5018,-3528.506L13348.5041,-3528.5444L13348.5104,-3528.5635L13348.5111,-3528.6117L13348.5082,-3528.6469L13348.5268,-3528.6346L13348.5363,-3528.6303L13348.5519,-3528.6214L13348.5556,-3528.6135L13348.5601,-3528.6051L13348.5708,-3528.561L13348.5778,-3528.5484L13348.5856,-3528.5407"/>
<path content="3,江府町,俣野線,6.0,6.0,6.0," xlink:title="3" d="M13348.5856,-3528.5407L13348.5852,-3528.5229L13348.5883,-3528.5059L13348.589,-3528.4966L13348.5878,-3528.4769L13348.5825,-3528.4415L13348.5671,-3528.3638L13348.562,-3528.3237L13348.5551,-3528.297L13348.5484,-3528.2686L13348.543,-3528.2263L13348.5347,-3528.1875L13348.5337,-3528.1745L13348.5295,-3528.1642L13348.5046,-3528.1315L13348.4593,-3528.0704L13348.4312,-3528.0346L13348.4203,-3528.0238L13348.4039,-3528.0012L13348.3746,-3527.978"/>
<path content="3,江府町,俣野線,6.0,6.0,6.0," xlink:title="3" d="M13348.5856,-3528.5407L13348.6273,-3528.5256L13348.9334,-3528.4114"/>
<path content="3,江府町,大河原線,6.0,6.0,6.0," xlink:title="3" d="M13347.7491,-3526.4962L13347.7519,-3526.5262L13347.7519,-3526.5433L13347.7501,-3526.5644L13347.7466,-3526.5827L13347.7419,-3526.5993L13347.7364,-3526.6143L13347.7227,-3526.6389L13347.7142,-3526.6517L13347.7035,-3526.6667L13347.6808,-3526.7001L13347.6689,-3526.714L13347.6624,-3526.726L13347.638,-3526.7585L13347.61,-3526.7901L13347.6015,-3526.8026L13347.5941,-3526.8157L13347.5683,-3526.8548L13347.5597,-3526.8745L13347.5543,-3526.8895L13347.5492,-3526.9079L13347.5471,-3526.927L13347.5475,-3526.9387L13347.5484,-3526.9488L13347.5553,-3526.9734L13347.5637,-3526.9883L13347.5743,-3527.0023L13347.5867,-3527.0156L13347.5989,-3527.0252L13347.6198,-3527.0409L13347.6609,-3527.067L13347.7095,-3527.0992L13347.7163,-3527.1023L13347.7452,-3527.1183L13347.7805,-3527.1351L13347.8302,-3527.1574L13347.8468,-3527.1653L13347.8776,-3527.1819L13347.8898,-3527.1894L13347.9101,-3527.2026L13347.924,-3527.2126L13347.9398,-3527.2232L13347.9612,-3527.2416L13347.9877,-3527.2678L13347.9982,-3527.2804L13348.0066,-3527.2907L13348.0106,-3527.297L13348.0134,-3527.3023L13348.015,-3527.3174L13348.0152,-3527.3324L13348.0142,-3527.3403L13348.0129,-3527.3484L13348.0099,-3527.3546L13348.0005,-3527.3713L13347.9845,-3527.3922L13347.9751,-3527.4058L13347.9623,-3527.4227L13347.9487,-3527.444L13347.9368,-3527.462L13347.9309,-3527.4766L13347.9303,-3527.4856L13347.933,-3527.4969L13347.9364,-3527.5092L13347.9438,-3527.5266L13347.9509,-3527.5421L13347.9587,-3527.5543L13347.9656,-3527.5592L13347.9706,-3527.5691L13347.9733,-3527.572L13347.9862,-3527.584L13348.0068,-3527.5959L13348.0168,-3527.6011L13348.0266,-3527.6039L13348.0446,-3527.6107L13348.0733,-3527.6162L13348.1264,-3527.6299L13348.17,-3527.6402L13348.2015,-3527.6477L13348.2204,-3527.6548L13348.2272,-3527.6602L13348.2343,-3527.6682L13348.2384,-3527.6746L13348.2397,-3527.6777L13348.244,-3527.6895L13348.243,-3527.7049L13348.2407,-3527.7265L13348.2377,-3527.733L13348.2364,-3527.7413L13348.2341,-3527.7585L13348.2385,-3527.7771L13348.2429,-3527.7854L13348.2503,-3527.8002"/>
<path content="3,江府町,大河原線,6.0,6.0,6.0," xlink:title="3" d="M13348.2503,-3527.8002L13348.2335,-3527.8073"/>
<path content="3,江府町,大河原線,6.0,6.0,6.0," xlink:title="3" d="M13348.3746,-3527.978L13348.3573,-3527.9566L13348.3314,-3527.9136L13348.2606,-3527.8143L13348.2503,-3527.8002"/>
<path content="3,江府町,大河原線,6.0,6.0,6.0," xlink:title="3" d="M13348.3746,-3527.978L13348.4039,-3528.0012L13348.4203,-3528.0238L13348.4312,-3528.0346L13348.4593,-3528.0704L13348.5046,-3528.1315L13348.5295,-3528.1642L13348.5337,-3528.1745L13348.5347,-3528.1875L13348.543,-3528.2263L13348.5484,-3528.2686L13348.5551,-3528.297L13348.562,-3528.3237L13348.5671,-3528.3638L13348.5825,-3528.4415L13348.5878,-3528.4769L13348.589,-3528.4966L13348.5883,-3528.5059L13348.5852,-3528.5229L13348.5856,-3528.5407L13348.6273,-3528.5256L13348.9334,-3528.4114"/>
<path content="3,江府町,大河原線,6.0,6.0,6.0," xlink:title="3" d="M13348.3746,-3527.978L13348.3907,-3528.0111L13348.4026,-3528.0586L13348.4102,-3528.0815L13348.4147,-3528.1001L13348.4333,-3528.1697L13348.4804,-3528.3927L13348.4835,-3528.4082L13348.5018,-3528.506L13348.5041,-3528.5444L13348.5104,-3528.5635L13348.5111,-3528.6117L13348.5082,-3528.6469L13348.4999,-3528.6926L13348.555,-3528.7004L13348.6719,-3528.716L13348.6973,-3528.7205L13348.7193,-3528.7296L13348.7405,-3528.7409L13348.7559,-3528.7515L13348.784,-3528.7762L13348.8017,-3528.7941L13348.8113,-3528.8086"/>
<path content="3,江府町,御机線,6.0,6.0,6.0," xlink:title="3" d="M13350.179,-3528.8086L13350.0396,-3528.7434L13349.8708,-3528.6712L13349.7315,-3528.6105L13349.6305,-3528.5684L13349.4808,-3528.504L13349.4146,-3528.4765L13349.2209,-3528.3979L13349.2015,-3528.3952L13349.1914,-3528.3951L13349.1786,-3528.3978L13349.1636,-3528.4051L13349.1551,-3528.4108L13349.1507,-3528.4164L13349.1496,-3528.4255L13349.1521,-3528.4334L13349.1632,-3528.449L13349.181,-3528.4672L13349.1876,-3528.4759L13349.1883,-3528.4827L13349.1883,-3528.4885L13349.1841,-3528.4933L13349.1777,-3528.4959L13349.1693,-3528.4966L13349.1608,-3528.4959L13349.1546,-3528.4918L13349.1455,-3528.4803L13349.1134,-3528.4393L13349.1109,-3528.428L13349.1122,-3528.4177L13349.1207,-3528.3878L13349.1208,-3528.3773L13349.1147,-3528.3716L13349.0199,-3528.3217L13348.9126,-3528.2865L13348.8943,-3528.28L13348.884,-3528.28L13348.8785,-3528.284L13348.8747,-3528.2893L13348.8737,-3528.2946L13348.8743,-3528.2999L13348.8831,-3528.3083L13348.9841,-3528.3617L13349.0179,-3528.3821L13349.0262,-3528.3897L13349.0262,-3528.3989L13349.0191,-3528.4058L13348.9993,-3528.4094L13348.9334,-3528.4114L13348.6273,-3528.5256L13348.5856,-3528.5407L13348.5852,-3528.5229L13348.5883,-3528.5059L13348.589,-3528.4966L13348.5878,-3528.4769L13348.5825,-3528.4415L13348.5671,-3528.3638L13348.562,-3528.3237L13348.5551,-3528.297L13348.5484,-3528.2686L13348.543,-3528.2263L13348.5347,-3528.1875L13348.5337,-3528.1745L13348.5295,-3528.1642L13348.5046,-3528.1315L13348.4593,-3528.0704L13348.4312,-3528.0346L13348.4203,-3528.0238L13348.4039,-3528.0012L13348.3746,-3527.978L13348.3573,-3527.9566L13348.3314,-3527.9136L13348.2606,-3527.8143L13348.2503,-3527.8002L13348.2335,-3527.8073"/>
<path content="3,江府町,柿原線,4.0,4.0,4.0," xlink:title="3" d="M13348.3746,-3527.978L13348.3573,-3527.9566L13348.3314,-3527.9136L13348.2606,-3527.8143L13348.2503,-3527.8002L13348.2335,-3527.8073"/>
<path content="3,江府町,柿原線,4.0,4.0,4.0," xlink:title="3" d="M13348.3746,-3527.978L13348.4039,-3528.0012L13348.4203,-3528.0238L13348.4312,-3528.0346L13348.4593,-3528.0704L13348.5046,-3528.1315L13348.5295,-3528.1642L13348.5337,-3528.1745L13348.5347,-3528.1875L13348.543,-3528.2263L13348.5484,-3528.2686L13348.5551,-3528.297L13348.562,-3528.3237L13348.5671,-3528.3638L13348.5825,-3528.4415L13348.5878,-3528.4769L13348.589,-3528.4966L13348.5883,-3528.5059L13348.5852,-3528.5229L13348.5856,-3528.5407"/>
<path content="3,江府町,柿原線,4.0,4.0,4.0," xlink:title="3" d="M13348.3746,-3527.978L13348.3907,-3528.0111L13348.4026,-3528.0586L13348.4102,-3528.0815L13348.4147,-3528.1001L13348.4333,-3528.1697L13348.4804,-3528.3927L13348.4835,-3528.4082L13348.5018,-3528.506L13348.5041,-3528.5444L13348.5104,-3528.5635L13348.5111,-3528.6117L13348.5082,-3528.6469"/>
<path content="3,江府町,柿原線,4.0,4.0,4.0," xlink:title="3" d="M13348.5856,-3528.5407L13348.6273,-3528.5256L13348.9334,-3528.4114"/>
<path content="3,江府町,柿原線,4.0,4.0,4.0," xlink:title="3" d="M13348.5082,-3528.6469L13348.5268,-3528.6346L13348.5363,-3528.6303L13348.5519,-3528.6214L13348.5556,-3528.6135L13348.5601,-3528.6051L13348.5708,-3528.561L13348.5778,-3528.5484L13348.5856,-3528.5407"/>
<path content="3,江府町,柿原線,4.0,4.0,4.0," xlink:title="3" d="M13348.5082,-3528.6469L13348.4999,-3528.6926L13348.4933,-3528.7125L13348.4874,-3528.7396L13348.475,-3528.7655L13348.4698,-3528.7737L13348.4481,-3528.8056L13348.4462,-3528.8086"/>
<path content="3,江府町,貝田線,1.0,1.0,1.0," xlink:title="3" d="M13348.2503,-3527.8002L13348.2429,-3527.7854L13348.2385,-3527.7771L13348.2341,-3527.7585L13348.2364,-3527.7413L13348.2377,-3527.733L13348.2407,-3527.7265L13348.243,-3527.7049L13348.244,-3527.6895L13348.2397,-3527.6777L13348.2384,-3527.6746L13348.2343,-3527.6682L13348.2272,-3527.6602L13348.2204,-3527.6548L13348.2015,-3527.6477L13348.17,-3527.6402L13348.1264,-3527.6299L13348.0733,-3527.6162L13348.0446,-3527.6107L13348.0266,-3527.6039L13348.0168,-3527.6011L13348.0068,-3527.5959L13347.9862,-3527.584L13347.9733,-3527.572L13347.9706,-3527.5691L13347.9656,-3527.5592L13347.9587,-3527.5543L13347.9509,-3527.5421L13347.9438,-3527.5266L13347.9364,-3527.5092L13347.933,-3527.4969L13347.9303,-3527.4856L13347.9309,-3527.4766L13347.9368,-3527.462L13347.9487,-3527.444L13347.9623,-3527.4227L13347.9751,-3527.4058L13347.9845,-3527.3922L13348.0005,-3527.3713L13348.0099,-3527.3546L13348.0129,-3527.3484L13348.0142,-3527.3403L13348.0152,-3527.3324L13348.015,-3527.3174L13348.0134,-3527.3023L13348.0106,-3527.297L13348.0066,-3527.2907L13347.9982,-3527.2804L13347.9877,-3527.2678L13347.9612,-3527.2416L13347.9398,-3527.2232L13347.924,-3527.2126L13347.9101,-3527.2026L13347.8898,-3527.1894L13347.8776,-3527.1819L13347.8468,-3527.1653L13347.8302,-3527.1574L13347.7805,-3527.1351L13347.7452,-3527.1183L13347.7163,-3527.1023L13347.7095,-3527.0992L13347.6609,-3527.067L13347.6198,-3527.0409L13347.5989,-3527.0252L13347.5867,-3527.0156L13347.5743,-3527.0023L13347.5637,-3526.9883L13347.5553,-3526.9734L13347.5484,-3526.9488L13347.5475,-3526.9387L13347.5471,-3526.927L13347.5492,-3526.9079L13347.5543,-3526.8895L13347.5597,-3526.8745L13347.5683,-3526.8548L13347.5941,-3526.8157L13347.6015,-3526.8026L13347.61,-3526.7901L13347.638,-3526.7585L13347.6624,-3526.726L13347.6689,-3526.714L13347.6808,-3526.7001L13347.7035,-3526.6667L13347.7142,-3526.6517L13347.7227,-3526.6389L13347.7364,-3526.6143L13347.7419,-3526.5993L13347.7466,-3526.5827L13347.7501,-3526.5644L13347.7519,-3526.5433L13347.7519,-3526.5262L13347.7491,-3526.4962"/>
<path content="3,江府町,貝田線,1.0,1.0,1.0," xlink:title="3" d="M13348.2503,-3527.8002L13348.2335,-3527.8073"/>
<path content="3,江府町,貝田線,1.0,1.0,1.0," xlink:title="3" d="M13348.3746,-3527.978L13348.3573,-3527.9566L13348.3314,-3527.9136L13348.2606,-3527.8143L13348.2503,-3527.8002"/>
<path content="3,江府町,貝田線,1.0,1.0,1.0," xlink:title="3" d="M13348.5082,-3528.6469L13348.5111,-3528.6117L13348.5104,-3528.5635L13348.5041,-3528.5444L13348.5018,-3528.506L13348.4835,-3528.4082L13348.4804,-3528.3927L13348.4333,-3528.1697L13348.4147,-3528.1001L13348.4102,-3528.0815L13348.4026,-3528.0586L13348.3907,-3528.0111L13348.3746,-3527.978"/>
<path content="3,江府町,貝田線,1.0,1.0,1.0," xlink:title="3" d="M13348.5082,-3528.6469L13348.5268,-3528.6346L13348.5363,-3528.6303L13348.5519,-3528.6214L13348.5556,-3528.6135L13348.5601,-3528.6051L13348.5708,-3528.561L13348.5778,-3528.5484L13348.5856,-3528.5407L13348.5852,-3528.5229L13348.5883,-3528.5059L13348.589,-3528.4966L13348.5878,-3528.4769L13348.5825,-3528.4415L13348.5671,-3528.3638L13348.562,-3528.3237L13348.5551,-3528.297L13348.5484,-3528.2686L13348.543,-3528.2263L13348.5347,-3528.1875L13348.5337,-3528.1745L13348.5295,-3528.1642L13348.5046,-3528.1315L13348.4593,-3528.0704L13348.4312,-3528.0346L13348.4203,-3528.0238L13348.4039,-3528.0012L13348.3746,-3527.978"/>
<path content="3,江府町,貝田線,1.0,1.0,1.0," xlink:title="3" d="M13348.8113,-3528.8086L13348.8017,-3528.7941L13348.784,-3528.7762L13348.7559,-3528.7515L13348.7405,-3528.7409L13348.7193,-3528.7296L13348.6973,-3528.7205L13348.6719,-3528.716L13348.555,-3528.7004L13348.4999,-3528.6926L13348.5082,-3528.6469"/>
</g>
</svg>
