<?xml version="1.0" encoding="UTF-8"?>
<svg  xmlns="http://www.w3.org/2000/svg" xmlns:xlink="http://www.w3.org/1999/xlink" xmlns:go="http://purl.org/svgmap/profile" property="N07_001,N07_002,N07_003,N07_004,N07_005,N07_006,N07_007" viewBox="13645.01953125 -3647.4609375 4.39453125 4.39453125" go:dataArea="13645.01953125 -3647.4609375 4.39453125 4.39453125" >
<metadata>
 <rdf:RDF xmlns:rdf="http://www.w3.org/1999/02/22-rdf-syntax-ns#" xmlns:crs="http://opengis.org/xmldtds/transformations.dtd" xmlns:svg="http://www.w3.org/svg" >
  <rdf:Description>
   <crs:CoordinateReferenceSystem rdf:resource="http://purl.org/crs/84" svg:transform="matrix(100.0,0.0,0.0,-100.0,0.0,0.0)" />
  </rdf:Description>
 </rdf:RDF>
</metadata>
<globalCoordinateSystem srsName="http://purl.org/crs/84" transform="matrix(100.0,0.0,0.0,-100.0,0.0,0.0)" />
<defs>
 <g id="p0" >
  <circle cx="0.0" cy="0.0" r="3" stroke="green" stroke-width="0.75" vector-effect="non-scaling-stroke" />
 </g>
</defs>
<g fill="none" fill-rule="evenodd" stroke="#FF00FF" stroke-width="0.75" opacity="0.5" vector-effect="non-scaling-stroke" stroke-linejoin="bevel" >
<path content="1,JR東海バス（株）,北陸ドリーム名古屋号,1.5,1.5,1.5," xlink:title="1" d="M13645.0195,-3645.3307L13645.0291,-3645.3424L13645.1195,-3645.4496L13645.1949,-3645.5309L13645.2518,-3645.5889L13645.2803,-3645.6183L13645.3527,-3645.6926L13645.4258,-3645.7686L13645.4509,-3645.7944L13645.4766,-3645.8196L13645.539,-3645.8834L13645.631,-3645.9783L13645.7119,-3646.0592L13645.7862,-3646.1352L13645.8723,-3646.2184L13645.9539,-3646.3003L13646.0124,-3646.3604L13646.082,-3646.4421L13646.1478,-3646.5227L13646.1553,-3646.5317L13646.2037,-3646.5894L13646.2617,-3646.6595L13646.3372,-3646.7489L13646.4032,-3646.8266L13646.4723,-3646.9079L13646.5568,-3647.0066L13646.6409,-3647.1042L13646.6532,-3647.1186L13646.7393,-3647.2194L13646.8098,-3647.3049L13646.8711,-3647.3776L13646.9425,-3647.4609"/>
<path content="1,JR東海バス（株）,北陸道特急バス金沢線,10.0,10.0,10.0," xlink:title="1" d="M13646.9425,-3647.4609L13646.8711,-3647.3776L13646.8098,-3647.3049L13646.7393,-3647.2194L13646.6532,-3647.1186L13646.6409,-3647.1042L13646.5568,-3647.0066L13646.4723,-3646.9079L13646.4032,-3646.8266L13646.3372,-3646.7489L13646.2617,-3646.6595L13646.2037,-3646.5894L13646.1553,-3646.5317L13646.1478,-3646.5227L13646.082,-3646.4421L13646.0124,-3646.3604L13645.9539,-3646.3003L13645.8723,-3646.2184L13645.7862,-3646.1352L13645.7119,-3646.0592L13645.631,-3645.9783L13645.539,-3645.8834L13645.4766,-3645.8196L13645.4509,-3645.7944L13645.4258,-3645.7686L13645.3527,-3645.6926L13645.2803,-3645.6183L13645.2518,-3645.5889L13645.1949,-3645.5309L13645.1195,-3645.4496L13645.0291,-3645.3424L13645.0195,-3645.3307"/>
<path content="1,京阪バス（株）,京都⇔金沢,1.0,1.0,1.0," xlink:title="1" d="M13645.0195,-3645.3307L13645.0291,-3645.3424L13645.1195,-3645.4496L13645.1949,-3645.5309L13645.2518,-3645.5889L13645.2803,-3645.6183L13645.3527,-3645.6926L13645.4258,-3645.7686L13645.4509,-3645.7944L13645.4766,-3645.8196L13645.539,-3645.8834L13645.631,-3645.9783L13645.7119,-3646.0592L13645.7862,-3646.1352L13645.8723,-3646.2184L13645.9539,-3646.3003L13646.0124,-3646.3604L13646.082,-3646.4421L13646.1478,-3646.5227L13646.1553,-3646.5317L13646.2037,-3646.5894L13646.2617,-3646.6595L13646.3372,-3646.7489L13646.4032,-3646.8266L13646.4723,-3646.9079L13646.5568,-3647.0066L13646.6409,-3647.1042L13646.6532,-3647.1186L13646.7393,-3647.2194L13646.8098,-3647.3049L13646.8711,-3647.3776L13646.9425,-3647.4609"/>
<path content="1,北陸鉄道（株）,金沢⇔小松空港,30.0,30.0,30.0," xlink:title="1" d="M13647.6441,-3647.4609L13647.6369,-3647.4326L13647.6209,-3647.3729L13647.6032,-3647.3024L13647.5901,-3647.2501L13647.5878,-3647.2411L13647.5855,-3647.232L13647.5785,-3647.2058L13647.5714,-3647.1795L13647.5645,-3647.1617L13647.5533,-3647.1239L13647.5394,-3647.0433L13647.532,-3646.9945L13647.5317,-3646.9927L13647.5282,-3646.9758L13647.5199,-3646.9172L13647.5066,-3646.8411L13647.4934,-3646.8051L13647.4662,-3646.7499L13647.4537,-3646.7251L13647.4334,-3646.6823L13647.4188,-3646.6575L13647.4051,-3646.636L13647.3805,-3646.5972L13647.3338,-3646.5251L13647.3282,-3646.5166L13647.2898,-3646.4558L13647.2459,-3646.3887L13647.2431,-3646.3841L13647.2341,-3646.3707L13647.2299,-3646.3645L13647.1749,-3646.2924L13647.1714,-3646.289L13647.1637,-3646.2806L13647.1261,-3646.2394L13647.1191,-3646.2333L13647.0431,-3646.151L13647.0326,-3646.1409L13646.9755,-3646.0975L13646.9548,-3646.0822L13646.9302,-3646.062L13646.9267,-3646.058L13646.8932,-3646.0203L13646.8904,-3646.0158L13646.8563,-3645.9752L13646.7413,-3645.8406L13646.7127,-3645.8073L13646.6918,-3645.7859L13646.6569,-3645.7521L13646.651,-3645.7466L13646.6272,-3645.7243L13646.6019,-3645.7008L13646.5872,-3645.6834L13646.5656,-3645.6496L13646.5468,-3645.6079L13646.5419,-3645.5966L13646.5371,-3645.5859L13646.5301,-3645.5713L13646.5057,-3645.5189L13646.505,-3645.5166L13646.4952,-3645.4969L13646.4797,-3645.463L13646.4694,-3645.4428L13646.4464,-3645.3944L13646.4374,-3645.3837L13646.4206,-3645.3668L13646.4004,-3645.3482L13646.3921,-3645.3431L13646.3542,-3645.3143L13646.3391,-3645.3048L13646.3077,-3645.2778L13646.2952,-3645.2648L13646.2269,-3645.2L13646.1725,-3645.1481L13646.137,-3645.116L13646.1361,-3645.1151L13646.1258,-3645.1036L13646.1063,-3645.0754L13646.0916,-3645.0377L13646.0868,-3645.0174L13646.0822,-3644.9955L13646.0763,-3644.956L13646.0749,-3644.9459L13646.0708,-3644.9296L13646.0624,-3644.911L13646.0568,-3644.9014L13646.0456,-3644.8879L13646.0338,-3644.8721L13646.0192,-3644.8552L13645.9996,-3644.8304L13645.9674,-3644.7944L13645.9646,-3644.7913L13645.9592,-3644.7831L13645.955,-3644.7774L13645.9355,-3644.7476L13645.9073,-3644.7079L13645.7752,-3644.547L13645.7428,-3644.4965L13645.6678,-3644.3919L13645.5624,-3644.2891L13645.4573,-3644.1541L13645.4161,-3644.09L13645.315,-3643.9894L13645.2756,-3643.9251L13645.2659,-3643.8859L13645.2663,-3643.8712L13645.2664,-3643.8488L13645.2664,-3643.8473L13645.2643,-3643.7747L13645.2643,-3643.6682L13645.3194,-3643.6575L13645.3842,-3643.6462L13645.3479,-3643.524L13645.3429,-3643.5068L13645.3047,-3643.3775L13645.3034,-3643.3764L13645.3009,-3643.3679L13645.2643,-3643.2412L13645.2476,-3643.1804L13645.2253,-3643.1049L13645.2141,-3643.0664"/>
<path content="1,北陸鉄道（株）,高速バス　金沢⇔名古屋,10.0,10.0,10.0," xlink:title="1" d="M13646.9425,-3647.4609L13646.8711,-3647.3776L13646.8098,-3647.3049L13646.7393,-3647.2194L13646.6532,-3647.1186L13646.6409,-3647.1042L13646.5568,-3647.0066L13646.4723,-3646.9079L13646.4032,-3646.8266L13646.3372,-3646.7489L13646.2617,-3646.6595L13646.2037,-3646.5894L13646.1553,-3646.5317L13646.1478,-3646.5227L13646.082,-3646.4421L13646.0124,-3646.3604L13645.9539,-3646.3003L13645.8723,-3646.2184L13645.7862,-3646.1352L13645.7119,-3646.0592L13645.631,-3645.9783L13645.539,-3645.8834L13645.4766,-3645.8196L13645.4509,-3645.7944L13645.4258,-3645.7686L13645.3527,-3645.6926L13645.2803,-3645.6183L13645.2518,-3645.5889L13645.1949,-3645.5309L13645.1195,-3645.4496L13645.0291,-3645.3424L13645.0195,-3645.3307"/>
<path content="1,北陸鉄道（株）,高速バス　金沢⇔大阪,2.0,2.0,2.0," xlink:title="1" d="M13646.9425,-3647.4609L13646.8711,-3647.3776L13646.8098,-3647.3049L13646.7393,-3647.2194L13646.6532,-3647.1186L13646.6409,-3647.1042L13646.5568,-3647.0066L13646.4723,-3646.9079L13646.4032,-3646.8266L13646.3372,-3646.7489L13646.2617,-3646.6595L13646.2037,-3646.5894L13646.1553,-3646.5317L13646.1478,-3646.5227L13646.082,-3646.4421L13646.0124,-3646.3604L13645.9539,-3646.3003L13645.8723,-3646.2184L13645.7862,-3646.1352L13645.7119,-3646.0592L13645.631,-3645.9783L13645.539,-3645.8834L13645.4766,-3645.8196L13645.4509,-3645.7944L13645.4258,-3645.7686L13645.3527,-3645.6926L13645.2803,-3645.6183L13645.2518,-3645.5889L13645.1949,-3645.5309L13645.1195,-3645.4496L13645.0291,-3645.3424L13645.0195,-3645.3307"/>
<path content="1,北陸鉄道（株）,高速バス　金沢⇔横浜,1.0,1.0,1.0," xlink:title="1" d="M13646.9425,-3647.4609L13646.8711,-3647.3776L13646.8098,-3647.3049L13646.7393,-3647.2194L13646.6532,-3647.1186L13646.6409,-3647.1042L13646.5568,-3647.0066L13646.4723,-3646.9079L13646.4032,-3646.8266L13646.3372,-3646.7489L13646.2617,-3646.6595L13646.2037,-3646.5894L13646.1553,-3646.5317L13646.1478,-3646.5227L13646.082,-3646.4421L13646.0124,-3646.3604L13645.9539,-3646.3003L13645.8723,-3646.2184L13645.7862,-3646.1352L13645.7119,-3646.0592L13645.631,-3645.9783L13645.539,-3645.8834L13645.4766,-3645.8196L13645.4509,-3645.7944L13645.4258,-3645.7686L13645.3527,-3645.6926L13645.2803,-3645.6183L13645.2518,-3645.5889L13645.1949,-3645.5309L13645.1195,-3645.4496L13645.0291,-3645.3424L13645.0195,-3645.3307"/>
<path content="1,北陸鉄道（株）,高速バス　金沢⇔渋谷八王子,2.0,2.0,2.0," xlink:title="1" d="M13645.0195,-3645.3307L13645.0291,-3645.3424L13645.1195,-3645.4496L13645.1949,-3645.5309L13645.2518,-3645.5889L13645.2803,-3645.6183L13645.3527,-3645.6926L13645.4258,-3645.7686L13645.4509,-3645.7944L13645.4766,-3645.8196L13645.539,-3645.8834L13645.631,-3645.9783L13645.7119,-3646.0592L13645.7862,-3646.1352L13645.8723,-3646.2184L13645.9539,-3646.3003L13646.0124,-3646.3604L13646.082,-3646.4421L13646.1478,-3646.5227L13646.1553,-3646.5317L13646.2037,-3646.5894L13646.2617,-3646.6595L13646.3372,-3646.7489L13646.4032,-3646.8266L13646.4723,-3646.9079L13646.5568,-3647.0066L13646.6409,-3647.1042L13646.6532,-3647.1186L13646.7393,-3647.2194L13646.8098,-3647.3049L13646.8711,-3647.3776L13646.9425,-3647.4609"/>
<path content="1,南海バス（株）,堺・大阪（なんば）・京都⇔柏崎・長岡・三条（新潟）,1.0,1.0,1.0," xlink:title="1" d="M13645.0195,-3645.3307L13645.0291,-3645.3424L13645.1195,-3645.4496L13645.1949,-3645.5309L13645.2518,-3645.5889L13645.2803,-3645.6183L13645.3527,-3645.6926L13645.4258,-3645.7686L13645.4509,-3645.7944L13645.4766,-3645.8196L13645.539,-3645.8834L13645.631,-3645.9783L13645.7119,-3646.0592L13645.7862,-3646.1352L13645.8723,-3646.2184L13645.9539,-3646.3003L13646.0124,-3646.3604L13646.082,-3646.4421L13646.1478,-3646.5227L13646.1553,-3646.5317L13646.2037,-3646.5894L13646.2617,-3646.6595L13646.3372,-3646.7489L13646.4032,-3646.8266L13646.4723,-3646.9079L13646.5568,-3647.0066L13646.6409,-3647.1042L13646.6532,-3647.1186L13646.7393,-3647.2194L13646.8098,-3647.3049L13646.8711,-3647.3776L13646.9425,-3647.4609"/>
<path content="1,名鉄バス（株）,名古屋～金沢,10.0,10.0,10.0," xlink:title="1" d="M13645.0195,-3645.3307L13645.0291,-3645.3424L13645.1195,-3645.4496L13645.1949,-3645.5309L13645.2518,-3645.5889L13645.2803,-3645.6183L13645.3527,-3645.6926L13645.4258,-3645.7686L13645.4509,-3645.7944L13645.4766,-3645.8196L13645.539,-3645.8834L13645.631,-3645.9783L13645.7119,-3646.0592L13645.7862,-3646.1352L13645.8723,-3646.2184L13645.9539,-3646.3003L13646.0124,-3646.3604L13646.082,-3646.4421L13646.1478,-3646.5227L13646.1553,-3646.5317L13646.2037,-3646.5894L13646.2617,-3646.6595L13646.3372,-3646.7489L13646.4032,-3646.8266L13646.4723,-3646.9079L13646.5568,-3647.0066L13646.6409,-3647.1042L13646.6532,-3647.1186L13646.7393,-3647.2194L13646.8098,-3647.3049L13646.8711,-3647.3776L13646.9425,-3647.4609"/>
<path content="1,富山地方鉄道（株）,京都・大阪（高速バス）,4.0,4.0,4.0," xlink:title="1" d="M13645.0195,-3645.3307L13645.0291,-3645.3424L13645.1195,-3645.4496L13645.1949,-3645.5309L13645.2518,-3645.5889L13645.2803,-3645.6183L13645.3527,-3645.6926L13645.4258,-3645.7686L13645.4509,-3645.7944L13645.4766,-3645.8196L13645.539,-3645.8834L13645.631,-3645.9783L13645.7119,-3646.0592L13645.7862,-3646.1352L13645.8723,-3646.2184L13645.9539,-3646.3003L13646.0124,-3646.3604L13646.082,-3646.4421L13646.1478,-3646.5227L13646.1553,-3646.5317L13646.2037,-3646.5894L13646.2617,-3646.6595L13646.3372,-3646.7489L13646.4032,-3646.8266L13646.4723,-3646.9079L13646.5568,-3647.0066L13646.6409,-3647.1042L13646.6532,-3647.1186L13646.7393,-3647.2194L13646.8098,-3647.3049L13646.8711,-3647.3776L13646.9425,-3647.4609"/>
<path content="1,小松バス（株）,寺井線,7.0,7.0,7.0," xlink:title="1" d="M13649.4141,-3644.3512L13649.4124,-3644.3486L13649.4061,-3644.3294L13649.4026,-3644.3052L13649.4012,-3644.3012L13649.3998,-3644.2951L13649.3936,-3644.2816L13649.392,-3644.2779L13649.3684,-3644.2449L13649.3622,-3644.2323L13649.3573,-3644.2224L13649.3482,-3644.1959L13649.3441,-3644.1807L13649.342,-3644.1672L13649.3399,-3644.1587L13649.3392,-3644.1486L13649.3392,-3644.13L13649.3378,-3644.1227L13649.3378,-3644.1137L13649.335,-3644.0838L13649.3335,-3644.0606L13649.3315,-3644.0472L13649.3281,-3644.0038L13649.3238,-3643.9528L13649.3183,-3643.8979L13649.3036,-3643.8968L13649.1991,-3643.8883L13649.155,-3643.8836L13649.1106,-3643.8816L13649.0853,-3643.88L13648.9457,-3643.8804L13648.9398,-3643.8804L13648.8673,-3643.8793L13648.8513,-3643.8765L13648.8269,-3643.8719L13648.8172,-3643.8695L13648.8115,-3643.868L13648.7906,-3643.8601L13648.7746,-3643.8528L13648.7665,-3643.8474L13648.7597,-3643.843L13648.7397,-3643.8258L13648.7,-3643.7841L13648.6931,-3643.777L13648.6317,-3643.7148L13648.6268,-3643.7131L13648.6146,-3643.7127L13648.5564,-3643.7108L13648.5388,-3643.71L13648.5303,-3643.7096L13648.5169,-3643.709L13648.502,-3643.7083L13648.491,-3643.7077L13648.4838,-3643.7073L13648.4784,-3643.7072L13648.44,-3643.7057L13648.394,-3643.704L13648.3794,-3643.7029L13648.3501,-3643.7001L13648.2678,-3643.6933L13648.2623,-3643.6922L13648.2581,-3643.6916L13648.115,-3643.6785L13648.0483,-3643.6702L13648.0399,-3643.6691L13647.9869,-3643.6668L13647.9791,-3643.666L13647.9469,-3643.6651L13647.9356,-3643.6562L13647.927,-3643.6482L13647.8994,-3643.6264L13647.8531,-3643.5896L13647.7778,-3643.5293L13647.7234,-3643.4877L13647.7196,-3643.4836L13647.6949,-3643.4674L13647.6803,-3643.4606L13647.6538,-3643.4516L13647.6454,-3643.4499L13647.6343,-3643.4472L13647.6175,-3643.4431L13647.575,-3643.4319L13647.476,-3643.4059L13647.4445,-3643.398L13647.4244,-3643.393L13647.4077,-3643.3851L13647.3972,-3643.3789L13647.3777,-3643.3631L13647.338,-3643.3135L13647.3254,-3643.2972L13647.3032,-3643.2707L13647.2941,-3643.2623L13647.2805,-3643.2454L13647.2544,-3643.2178L13647.2435,-3643.2073L13647.2209,-3643.1856L13647.207,-3643.1755L13647.1819,-3643.1586L13647.1568,-3643.1451L13647.1505,-3643.1428L13647.1317,-3643.1321L13647.0529,-3643.091L13647.0386,-3643.0834L13647.0063,-3643.0664"/>
<path content="1,小松バス（株）,小杉・寺井線,3.0,3.0,3.0," xlink:title="1" d="M13649.4141,-3643.5531L13649.3643,-3643.5216L13649.3217,-3643.496L13649.2537,-3643.4551L13649.2469,-3643.4509L13649.1709,-3643.4043L13649.1535,-3643.3948L13649.1416,-3643.3869L13649.1402,-3643.3684L13649.1399,-3643.3633L13649.1392,-3643.3492L13649.1378,-3643.3081L13649.1385,-3643.2863L13649.1385,-3643.2811L13649.1559,-3643.2349L13649.1599,-3643.1986L13649.1594,-3643.1933L13649.1514,-3643.178L13649.1431,-3643.1516L13649.1282,-3643.1086L13649.114,-3643.0664"/>
<path content="1,小松バス（株）,新道寺井線,3.0,3.0,3.0," xlink:title="1" d="M13649.4141,-3643.5531L13649.3643,-3643.5216L13649.3217,-3643.496L13649.2537,-3643.4551L13649.2469,-3643.4509L13649.1709,-3643.4043L13649.1535,-3643.3948L13649.1416,-3643.3869L13649.1193,-3643.3721L13649.1004,-3643.3608L13649.0088,-3643.3058L13648.9926,-3643.2959L13648.968,-3643.2804L13648.8617,-3643.2151L13648.8554,-3643.2118L13648.8311,-3643.1966L13648.7941,-3643.174L13648.6973,-3643.1143L13648.6465,-3643.0835L13648.6197,-3643.0664"/>
<path content="1,小松バス（株）・加賀白山バス（株）,佐野線,1.0,1.0,1.0," xlink:title="1" d="M13648.6197,-3643.0664L13648.6465,-3643.0835L13648.6973,-3643.1143L13648.7941,-3643.174L13648.8311,-3643.1966L13648.8554,-3643.2118L13648.8617,-3643.2151L13648.8784,-3643.2253L13648.9238,-3643.254L13648.968,-3643.2804L13648.9926,-3643.2959L13649.0088,-3643.3058L13649.1004,-3643.3608L13649.1193,-3643.3721L13649.1416,-3643.3869L13649.1535,-3643.3948L13649.1709,-3643.4043L13649.2469,-3643.4509L13649.2537,-3643.4551L13649.3217,-3643.496L13649.3643,-3643.5216L13649.4141,-3643.5531"/>
<path content="1,山交バス（株）,アルカディア号,1.0,1.0,1.0," xlink:title="1" d="M13645.0195,-3645.3307L13645.0291,-3645.3424L13645.1195,-3645.4496L13645.1949,-3645.5309L13645.2518,-3645.5889L13645.2803,-3645.6183L13645.3527,-3645.6926L13645.4258,-3645.7686L13645.4509,-3645.7944L13645.4766,-3645.8196L13645.539,-3645.8834L13645.631,-3645.9783L13645.7119,-3646.0592L13645.7862,-3646.1352L13645.8723,-3646.2184L13645.9539,-3646.3003L13646.0124,-3646.3604L13646.082,-3646.4421L13646.1478,-3646.5227L13646.1553,-3646.5317L13646.2037,-3646.5894L13646.2617,-3646.6595L13646.3372,-3646.7489L13646.4032,-3646.8266L13646.4723,-3646.9079L13646.5568,-3647.0066L13646.6409,-3647.1042L13646.6532,-3647.1186L13646.7393,-3647.2194L13646.8098,-3647.3049L13646.8711,-3647.3776L13646.9425,-3647.4609"/>
<path content="1,新潟交通（株）・阪急バス（株）,京都・大阪高速バス,1.0,1.0,1.0," xlink:title="1" d="M13645.0195,-3645.3307L13645.0291,-3645.3424L13645.1195,-3645.4496L13645.1949,-3645.5309L13645.2518,-3645.5889L13645.2803,-3645.6183L13645.3527,-3645.6926L13645.4258,-3645.7686L13645.4509,-3645.7944L13645.4766,-3645.8196L13645.539,-3645.8834L13645.631,-3645.9783L13645.7119,-3646.0592L13645.7862,-3646.1352L13645.8723,-3646.2184L13645.9539,-3646.3003L13646.0124,-3646.3604L13646.082,-3646.4421L13646.1478,-3646.5227L13646.1553,-3646.5317L13646.2037,-3646.5894L13646.2617,-3646.6595L13646.3372,-3646.7489L13646.4032,-3646.8266L13646.4723,-3646.9079L13646.5568,-3647.0066L13646.6409,-3647.1042L13646.6532,-3647.1186L13646.7393,-3647.2194L13646.8098,-3647.3049L13646.8711,-3647.3776L13646.9425,-3647.4609"/>
<path content="1,日本中央バス（株）,シルクライナー,5.0,5.0,5.0," xlink:title="1" d="M13646.9425,-3647.4609L13646.8711,-3647.3776L13646.8098,-3647.3049L13646.7393,-3647.2194L13646.6532,-3647.1186L13646.6409,-3647.1042L13646.5568,-3647.0066L13646.4723,-3646.9079L13646.4032,-3646.8266L13646.3372,-3646.7489L13646.2617,-3646.6595L13646.2037,-3646.5894L13646.1553,-3646.5317L13646.1478,-3646.5227L13646.082,-3646.4421L13646.0124,-3646.3604L13645.9539,-3646.3003L13645.8723,-3646.2184L13645.7862,-3646.1352L13645.7119,-3646.0592L13645.631,-3645.9783L13645.539,-3645.8834L13645.4766,-3645.8196L13645.4509,-3645.7944L13645.4258,-3645.7686L13645.3527,-3645.6926L13645.2803,-3645.6183L13645.2518,-3645.5889L13645.1949,-3645.5309L13645.1195,-3645.4496L13645.0291,-3645.3424L13645.0195,-3645.3307"/>
<path content="1,江ノ電バス藤沢,横浜・鎌倉・藤沢～金沢線,1.0,1.0,1.0," xlink:title="1" d="M13645.0195,-3645.3307L13645.0291,-3645.3424L13645.1195,-3645.4496L13645.1949,-3645.5309L13645.2518,-3645.5889L13645.2803,-3645.6183L13645.3527,-3645.6926L13645.4258,-3645.7686L13645.4509,-3645.7944L13645.4766,-3645.8196L13645.539,-3645.8834L13645.631,-3645.9783L13645.7119,-3646.0592L13645.7862,-3646.1352L13645.8723,-3646.2184L13645.9539,-3646.3003L13646.0124,-3646.3604L13646.082,-3646.4421L13646.1478,-3646.5227L13646.1553,-3646.5317L13646.2037,-3646.5894L13646.2617,-3646.6595L13646.3372,-3646.7489L13646.4032,-3646.8266L13646.4723,-3646.9079L13646.5568,-3647.0066L13646.6409,-3647.1042L13646.6532,-3647.1186L13646.7393,-3647.2194L13646.8098,-3647.3049L13646.8711,-3647.3776L13646.9425,-3647.4609"/>
<path content="1,西東京バス（株）,001,2.0,2.0,2.0," xlink:title="1" d="M13646.9425,-3647.4609L13646.8711,-3647.3776L13646.8098,-3647.3049L13646.7393,-3647.2194L13646.6532,-3647.1186L13646.6409,-3647.1042L13646.5568,-3647.0066L13646.4723,-3646.9079L13646.4032,-3646.8266L13646.3372,-3646.7489L13646.2617,-3646.6595L13646.2037,-3646.5894L13646.1553,-3646.5317L13646.1478,-3646.5227L13646.082,-3646.4421L13646.0124,-3646.3604L13645.9539,-3646.3003L13645.8723,-3646.2184L13645.7862,-3646.1352L13645.7119,-3646.0592L13645.631,-3645.9783L13645.539,-3645.8834L13645.4766,-3645.8196L13645.4509,-3645.7944L13645.4258,-3645.7686L13645.3527,-3645.6926L13645.2803,-3645.6183L13645.2518,-3645.5889L13645.1949,-3645.5309L13645.1195,-3645.4496L13645.0291,-3645.3424L13645.0195,-3645.3307"/>
<path content="1,越後交通（株）,高速バス越後（三条・長岡・柏崎～京都・大阪線）,1.0,1.0,1.0," xlink:title="1" d="M13646.9425,-3647.4609L13646.8711,-3647.3776L13646.8098,-3647.3049L13646.7393,-3647.2194L13646.6532,-3647.1186L13646.6409,-3647.1042L13646.5568,-3647.0066L13646.4723,-3646.9079L13646.4032,-3646.8266L13646.3372,-3646.7489L13646.2617,-3646.6595L13646.2037,-3646.5894L13646.1553,-3646.5317L13646.1478,-3646.5227L13646.082,-3646.4421L13646.0124,-3646.3604L13645.9539,-3646.3003L13645.8723,-3646.2184L13645.7862,-3646.1352L13645.7119,-3646.0592L13645.631,-3645.9783L13645.539,-3645.8834L13645.4766,-3645.8196L13645.4509,-3645.7944L13645.4258,-3645.7686L13645.3527,-3645.6926L13645.2803,-3645.6183L13645.2518,-3645.5889L13645.1949,-3645.5309L13645.1195,-3645.4496L13645.0291,-3645.3424L13645.0195,-3645.3307"/>
<path content="1,近鉄バス（株）,大阪・京都⇔山形,1.0,1.0,1.0," xlink:title="1" d="M13645.0195,-3645.3307L13645.0291,-3645.3424L13645.1195,-3645.4496L13645.1949,-3645.5309L13645.2518,-3645.5889L13645.2803,-3645.6183L13645.3527,-3645.6926L13645.4258,-3645.7686L13645.4509,-3645.7944L13645.4766,-3645.8196L13645.539,-3645.8834L13645.631,-3645.9783L13645.7119,-3646.0592L13645.7862,-3646.1352L13645.8723,-3646.2184L13645.9539,-3646.3003L13646.0124,-3646.3604L13646.082,-3646.4421L13646.1478,-3646.5227L13646.1553,-3646.5317L13646.2037,-3646.5894L13646.2617,-3646.6595L13646.3372,-3646.7489L13646.4032,-3646.8266L13646.4723,-3646.9079L13646.5568,-3647.0066L13646.6409,-3647.1042L13646.6532,-3647.1186L13646.7393,-3647.2194L13646.8098,-3647.3049L13646.8711,-3647.3776L13646.9425,-3647.4609"/>
<path content="1,阪急バス（株）,富山行,4.0,4.0,4.0," xlink:title="1" d="M13646.9425,-3647.4609L13646.8711,-3647.3776L13646.8098,-3647.3049L13646.7393,-3647.2194L13646.6532,-3647.1186L13646.6409,-3647.1042L13646.5568,-3647.0066L13646.4723,-3646.9079L13646.4032,-3646.8266L13646.3372,-3646.7489L13646.2617,-3646.6595L13646.2037,-3646.5894L13646.1553,-3646.5317L13646.1478,-3646.5227L13646.082,-3646.4421L13646.0124,-3646.3604L13645.9539,-3646.3003L13645.8723,-3646.2184L13645.7862,-3646.1352L13645.7119,-3646.0592L13645.631,-3645.9783L13645.539,-3645.8834L13645.4766,-3645.8196L13645.4509,-3645.7944L13645.4258,-3645.7686L13645.3527,-3645.6926L13645.2803,-3645.6183L13645.2518,-3645.5889L13645.1949,-3645.5309L13645.1195,-3645.4496L13645.0291,-3645.3424L13645.0195,-3645.3307"/>
<path content="1,阪急バス（株）,新潟行（おけさ号）,1.0,1.0,1.0," xlink:title="1" d="M13645.0195,-3645.3307L13645.0291,-3645.3424L13645.1195,-3645.4496L13645.1949,-3645.5309L13645.2518,-3645.5889L13645.2803,-3645.6183L13645.3527,-3645.6926L13645.4258,-3645.7686L13645.4509,-3645.7944L13645.4766,-3645.8196L13645.539,-3645.8834L13645.631,-3645.9783L13645.7119,-3646.0592L13645.7862,-3646.1352L13645.8723,-3646.2184L13645.9539,-3646.3003L13646.0124,-3646.3604L13646.082,-3646.4421L13646.1478,-3646.5227L13646.1553,-3646.5317L13646.2037,-3646.5894L13646.2617,-3646.6595L13646.3372,-3646.7489L13646.4032,-3646.8266L13646.4723,-3646.9079L13646.5568,-3647.0066L13646.6409,-3647.1042L13646.6532,-3647.1186L13646.7393,-3647.2194L13646.8098,-3647.3049L13646.8711,-3647.3776L13646.9425,-3647.4609"/>
<path content="1,阪急バス（株）,金沢行,2.0,2.0,2.0," xlink:title="1" d="M13645.0195,-3645.3307L13645.0291,-3645.3424L13645.1195,-3645.4496L13645.1949,-3645.5309L13645.2518,-3645.5889L13645.2803,-3645.6183L13645.3527,-3645.6926L13645.4258,-3645.7686L13645.4509,-3645.7944L13645.4766,-3645.8196L13645.539,-3645.8834L13645.631,-3645.9783L13645.7119,-3646.0592L13645.7862,-3646.1352L13645.8723,-3646.2184L13645.9539,-3646.3003L13646.0124,-3646.3604L13646.082,-3646.4421L13646.1478,-3646.5227L13646.1553,-3646.5317L13646.2037,-3646.5894L13646.2617,-3646.6595L13646.3372,-3646.7489L13646.4032,-3646.8266L13646.4723,-3646.9079L13646.5568,-3647.0066L13646.6409,-3647.1042L13646.6532,-3647.1186L13646.7393,-3647.2194L13646.8098,-3647.3049L13646.8711,-3647.3776L13646.9425,-3647.4609"/>
<path content="3,能美市,寺井地区循環バス　粟生方面,4.0,4.0,4.0," xlink:title="3" d="M13649.4141,-3643.7254L13649.3692,-3643.7289L13649.305,-3643.7317L13649.2499,-3643.7364L13649.1956,-3643.7419L13649.1764,-3643.7436L13649.1175,-3643.7544L13649.1141,-3643.7672L13649.1126,-3643.7987L13649.1133,-3643.8145L13649.1113,-3643.8337L13649.1106,-3643.8816L13649.1175,-3643.8827L13649.155,-3643.8836L13649.1991,-3643.8883L13649.3036,-3643.8968L13649.3183,-3643.8979L13649.3238,-3643.9528L13649.3281,-3644.0038L13649.3315,-3644.0472L13649.3335,-3644.0606L13649.335,-3644.0838L13649.3378,-3644.1137L13649.3378,-3644.1227L13649.3392,-3644.13L13649.3392,-3644.1486L13649.3399,-3644.1587L13649.342,-3644.1672L13649.3441,-3644.1807L13649.3482,-3644.1959L13649.3573,-3644.2224L13649.3622,-3644.2323L13649.3684,-3644.2449L13649.392,-3644.2779L13649.3998,-3644.2951L13649.4012,-3644.3012L13649.4026,-3644.3052L13649.4061,-3644.3294L13649.4124,-3644.3486L13649.4141,-3644.3512"/>
<path content="3,能美市,寺井地区循環バス　粟生方面,4.0,4.0,4.0," xlink:title="3" d="M13649.4141,-3644.5239L13649.411,-3644.5598L13649.4141,-3644.56"/>
<path content="3,能美市,寺井地区循環バス　長野方面,3.0,3.0,3.0," xlink:title="3" d="M13649.1138,-3643.0664L13649.1189,-3643.0828L13649.1224,-3643.0912L13649.1282,-3643.1086L13649.1371,-3643.1346L13649.1431,-3643.1516L13649.1499,-3643.1725L13649.1514,-3643.178L13649.1573,-3643.1881L13649.1594,-3643.1933L13649.1599,-3643.1986L13649.1559,-3643.2349L13649.1385,-3643.2863L13649.1378,-3643.3081L13649.1392,-3643.3492L13649.1399,-3643.3633L13649.1402,-3643.3684L13649.1416,-3643.3869L13649.1406,-3643.4039L13649.1377,-3643.4517L13649.1336,-3643.5007L13649.128,-3643.5836L13649.1273,-3643.5976L13649.1252,-3643.6281L13649.1231,-3643.6641L13649.1217,-3643.6748L13649.1182,-3643.7312L13649.1181,-3643.7371L13649.1175,-3643.7544L13649.1764,-3643.7436L13649.1956,-3643.7419L13649.2499,-3643.7364L13649.2594,-3643.7345L13649.305,-3643.7317L13649.3692,-3643.7289L13649.4141,-3643.7254"/>
<path content="3,能美市,根上地区循環バス　中ノ江方面,3.0,3.0,3.0," xlink:title="3" d="M13646.4945,-3644.9229L13646.5161,-3644.9163"/>
<path content="3,能美市,根上地区循環バス　中ノ江方面,3.0,3.0,3.0," xlink:title="3" d="M13646.4945,-3644.9229L13646.4722,-3644.8519L13646.4492,-3644.782L13646.4374,-3644.7471L13646.4178,-3644.6864L13646.4004,-3644.6327L13646.4,-3644.6172L13646.3998,-3644.6068L13646.406,-3644.5465L13646.4074,-3644.5268L13646.4158,-3644.4885L13646.4193,-3644.4789L13646.436,-3644.4547L13646.4876,-3644.4001L13646.4883,-3644.3995L13646.5552,-3644.3302L13646.5594,-3644.3257L13646.6159,-3644.2666L13646.6264,-3644.2555L13646.6709,-3644.2086L13646.7762,-3644.0987L13646.8208,-3644.0531L13646.8359,-3644.0386L13646.8641,-3644.0101L13646.8875,-3643.9861L13646.9214,-3643.9513L13646.9198,-3643.9269L13646.9161,-3643.8709L13646.9153,-3643.8614L13646.91,-3643.7811L13646.917,-3643.7174L13646.916,-3643.7076L13646.917,-3643.6999L13646.9132,-3643.6809L13646.9117,-3643.6779L13646.9002,-3643.6779L13646.7636,-3643.6785L13646.6828,-3643.6785L13646.443,-3643.6796L13646.4381,-3643.6801L13646.4285,-3643.6884L13646.4221,-3643.6936L13646.4144,-3643.6999L13646.3999,-3643.7149L13646.366,-3643.7485L13646.3112,-3643.8035L13646.178,-3643.9386L13646.1746,-3643.9421L13646.1628,-3643.9516L13646.1416,-3643.9541L13646.0941,-3643.961L13646.0931,-3643.9673L13645.9327,-3644.0688L13645.87,-3644.1071L13645.8463,-3644.1228L13645.7494,-3644.1837L13645.6735,-3644.1064L13645.6003,-3644.0319L13645.5661,-3643.9972L13645.5494,-3643.9792L13645.5307,-3643.9593L13645.5187,-3643.9465L13645.4978,-3643.9194L13645.4825,-3643.8969L13645.4693,-3643.8733L13645.5438,-3643.8243L13645.7426,-3643.6925L13645.7474,-3643.6891L13645.7048,-3643.6457L13645.6916,-3643.6311L13645.679,-3643.6187L13645.6602,-3643.5973L13645.6317,-3643.5668L13645.6038,-3643.5364L13645.5445,-3643.5747L13645.5292,-3643.582L13645.4667,-3643.5437L13645.3479,-3643.524L13645.3842,-3643.6462L13645.3194,-3643.6575L13645.2643,-3643.6682L13645.2643,-3643.7747L13645.2664,-3643.8473L13645.2664,-3643.8488L13645.2663,-3643.8712L13645.2659,-3643.8859L13645.2756,-3643.9251L13645.315,-3643.9894L13645.4161,-3644.09L13645.4573,-3644.1541L13645.5624,-3644.2891L13645.6678,-3644.3919L13645.7428,-3644.4965L13645.7752,-3644.547L13645.9073,-3644.7079L13645.9355,-3644.7476L13645.955,-3644.7774L13645.9592,-3644.7831L13645.9646,-3644.7913L13645.9674,-3644.7944L13645.9996,-3644.8304L13646.0192,-3644.8552L13646.0338,-3644.8721L13646.0456,-3644.8879L13646.0568,-3644.9014L13646.0624,-3644.911L13646.0708,-3644.9296L13646.0749,-3644.9459L13646.0763,-3644.956L13646.0822,-3644.9955L13646.0868,-3645.0174L13646.0916,-3645.0377L13646.1063,-3645.0754L13646.1258,-3645.1036L13646.1361,-3645.1151"/>
<path content="3,能美市,根上地区循環バス　中ノ江方面,3.0,3.0,3.0," xlink:title="3" d="M13646.1361,-3645.1151L13646.1425,-3645.1115L13646.1911,-3645.0796L13646.2457,-3645.0428L13646.2527,-3645.036L13646.3091,-3644.9893L13646.3433,-3644.9628L13646.3712,-3644.9543L13646.3752,-3644.953L13646.3865,-3644.9499L13646.4945,-3644.9229"/>
<path content="3,能美市,根上地区循環バス　中ノ江方面,3.0,3.0,3.0," xlink:title="3" d="M13645.9963,-3645.4461L13646.0233,-3645.4309L13646.0512,-3645.4157L13646.0798,-3645.4016L13646.0896,-3645.3954L13646.1161,-3645.3814L13646.1244,-3645.3763L13646.1509,-3645.3622L13646.0921,-3645.3123L13645.9975,-3645.2039L13646.0003,-3645.1897L13646.0246,-3645.1768L13646.061,-3645.1566L13646.0851,-3645.1445L13646.1046,-3645.1356L13646.1196,-3645.1274L13646.1301,-3645.1204L13646.1361,-3645.1151"/>
<path content="3,能美市,根上地区循環バス　吉原釜屋方面,3.0,3.0,3.0," xlink:title="3" d="M13646.4945,-3644.9229L13646.4722,-3644.8519L13646.4492,-3644.782L13646.4374,-3644.7471L13646.4178,-3644.6864"/>
<path content="3,能美市,根上地区循環バス　吉原釜屋方面,3.0,3.0,3.0," xlink:title="3" d="M13646.4945,-3644.9229L13646.3865,-3644.9499L13646.3752,-3644.953L13646.3712,-3644.9543L13646.3433,-3644.9628L13646.3091,-3644.9893L13646.2527,-3645.036L13646.2457,-3645.0428L13646.1911,-3645.0796L13646.1425,-3645.1115L13646.1361,-3645.1151L13646.1301,-3645.1204L13646.1196,-3645.1274L13646.1046,-3645.1356L13646.0851,-3645.1445L13646.061,-3645.1566L13646.0246,-3645.1768L13646.0003,-3645.1897L13645.9975,-3645.2039L13646.0921,-3645.3123L13646.1509,-3645.3622L13646.1244,-3645.3763L13646.1161,-3645.3814L13646.0896,-3645.3954L13646.0798,-3645.4016L13646.0512,-3645.4157L13646.0233,-3645.4309L13645.9963,-3645.4461L13645.9662,-3645.4625L13645.9425,-3645.4749L13645.8463,-3645.3267L13645.8296,-3645.3019L13645.8059,-3645.2664L13645.7034,-3645.3301L13645.6644,-3645.3542L13645.6582,-3645.3581L13645.5626,-3645.4174L13645.5178,-3645.442L13645.4671,-3645.4771L13645.5412,-3645.5503L13645.6386,-3645.6467L13645.656,-3645.6636L13645.6807,-3645.6887L13645.7179,-3645.7275L13645.6492,-3645.7716L13645.6219,-3645.7892L13645.5905,-3645.8094L13645.649,-3645.8669L13645.6567,-3645.8737"/>
<path content="3,能美市,根上地区循環バス　吉原釜屋方面,3.0,3.0,3.0," xlink:title="3" d="M13645.6567,-3645.8737L13645.6748,-3645.894L13645.6769,-3645.8951L13645.6909,-3645.9097L13645.7334,-3645.9503L13645.7424,-3645.9486L13645.7515,-3645.9452L13645.8101,-3645.9266L13645.8191,-3645.9227L13645.8798,-3645.9013L13645.8923,-3645.9143L13645.9306,-3645.9594L13645.9683,-3646.0016L13645.9785,-3646.014L13645.9961,-3646.0354L13646.0449,-3646.0912L13646.0477,-3646.0957L13646.0526,-3646.1007L13646.0686,-3646.1182L13646.0725,-3646.1243L13646.1634,-3646.2281L13646.1816,-3646.2489L13646.3579,-3646.454L13646.3872,-3646.4872L13646.3952,-3646.4692L13646.4151,-3646.423L13646.4618,-3646.3115L13646.4688,-3646.2996L13646.4813,-3646.2963L13646.5601,-3646.2563L13646.6054,-3646.2343L13646.6284,-3646.2225L13646.65,-3646.2107L13646.6647,-3646.2021L13646.7051,-3646.174L13646.735,-3646.1543L13646.7949,-3646.12L13646.8512,-3646.0897L13646.8539,-3646.0941L13646.8751,-3646.1324L13646.8863,-3646.1442L13646.9253,-3646.1802L13646.9427,-3646.1977L13647.0215,-3646.2901L13647.0319,-3646.3036L13647.0549,-3646.3301L13647.0633,-3646.3397"/>
<path content="3,能美市,根上地区循環バス　吉原釜屋方面,3.0,3.0,3.0," xlink:title="3" d="M13645.6413,-3645.8843L13645.6567,-3645.8737"/>
<path content="3,能美市,根上地区循環バス　吉原釜屋方面,3.0,3.0,3.0," xlink:title="3" d="M13647.0633,-3646.3397L13647.0905,-3646.3234L13647.1393,-3646.2941L13647.1637,-3646.2806L13647.2537,-3646.2283L13647.3101,-3646.1994L13647.3233,-3646.1921L13647.3798,-3646.1612L13647.365,-3646.073L13647.2348,-3646.0843L13647.1504,-3646.0955L13647.1073,-3646.0377L13647.0846,-3646.0189L13646.9697,-3645.8904L13646.8659,-3645.7687L13646.8456,-3645.7529L13646.6078,-3645.4859L13646.6144,-3645.4828L13646.6353,-3645.4721L13646.6576,-3645.4625L13646.5809,-3645.3832L13646.5691,-3645.3707L13646.512,-3645.3121L13646.4464,-3645.2451L13646.4109,-3645.209L13646.4067,-3645.2017L13646.452,-3645.1758L13646.4569,-3645.173L13646.4986,-3645.15L13646.505,-3645.1465L13646.5148,-3645.1414L13646.5217,-3645.1369L13646.5824,-3645.1037L13646.5843,-3645.1023L13646.6256,-3645.08L13646.6669,-3645.0577L13646.6848,-3645.0479L13646.7085,-3645.0271L13646.735,-3644.9983L13646.7636,-3644.9612L13646.7657,-3644.9595L13646.7539,-3644.9308L13646.7371,-3644.8964L13646.726,-3644.8727L13646.6723,-3644.8823L13646.6138,-3644.8957L13646.6005,-3644.8986L13646.5636,-3644.9071L13646.5161,-3644.9163L13646.4945,-3644.9229"/>
<path content="3,能美市,根上地区循環バス　吉原釜屋方面,3.0,3.0,3.0," xlink:title="3" d="M13647.5379,-3647.4609L13647.5338,-3647.4529L13647.5164,-3647.4123L13647.5108,-3647.4028L13647.4494,-3647.2794L13647.4028,-3647.2952L13647.3965,-3647.2856L13647.3916,-3647.276L13647.3881,-3647.2715L13647.3721,-3647.2433L13647.3602,-3647.2242L13647.3352,-3647.1797L13647.331,-3647.1746L13647.294,-3647.116L13647.2334,-3647.0169L13647.3462,-3646.968L13647.3236,-3646.8959L13646.9866,-3646.3853L13647.0633,-3646.3397"/>
<path content="3,能美市,根上地区循環バス　山口方面,4.0,4.0,4.0," xlink:title="3" d="M13646.4945,-3644.9229L13646.4722,-3644.8519L13646.4492,-3644.782L13646.4374,-3644.7471L13646.4178,-3644.6864"/>
<path content="3,能美市,根上地区循環バス　山口方面,4.0,4.0,4.0," xlink:title="3" d="M13646.4945,-3644.9229L13646.5161,-3644.9163"/>
<path content="3,能美市,根上地区循環バス　山口方面,4.0,4.0,4.0," xlink:title="3" d="M13646.1361,-3645.1151L13646.1258,-3645.1036L13646.1063,-3645.0754L13646.0916,-3645.0377L13646.0868,-3645.0174L13646.0822,-3644.9955L13646.0763,-3644.956L13646.0749,-3644.9459L13646.0708,-3644.9296L13646.0624,-3644.911L13646.0568,-3644.9014L13646.0456,-3644.8879L13646.0338,-3644.8721L13646.0192,-3644.8552L13645.9996,-3644.8304L13645.9674,-3644.7944L13645.9646,-3644.7913L13645.8986,-3644.8264L13645.8798,-3644.8366L13645.7934,-3644.8851L13645.7382,-3644.9171L13645.7153,-3644.9312L13645.6651,-3644.9594L13645.6546,-3644.9656L13645.6037,-3644.9949L13645.594,-3645.0016L13645.58,-3645.0095L13645.5338,-3644.9721L13645.4771,-3644.9955L13645.4698,-3644.9986L13645.4525,-3645.005L13645.4316,-3645.014L13645.3967,-3645.0275L13645.3639,-3645.0416L13645.3549,-3645.027L13645.3326,-3644.9802L13645.321,-3644.9496L13645.288,-3644.8636L13645.2775,-3644.8444L13645.2558,-3644.8132L13645.2726,-3644.8016L13645.2901,-3644.7898L13645.3479,-3644.7464L13645.3591,-3644.7391L13645.387,-3644.7177L13645.449,-3644.6721L13645.456,-3644.6659L13645.4413,-3644.6563L13645.4037,-3644.6332L13645.3699,-3644.6143L13645.3347,-3644.5994L13645.3096,-3644.5909L13645.2392,-3644.5639L13645.2308,-3644.5611L13645.226,-3644.5577L13645.2211,-3644.5543L13645.0817,-3644.4737L13645.0642,-3644.4636L13645.0321,-3644.4457L13645.021,-3644.4388L13645.0195,-3644.4379"/>
<path content="3,能美市,根上地区循環バス　山口方面,4.0,4.0,4.0," xlink:title="3" d="M13646.1361,-3645.1151L13646.1425,-3645.1115L13646.1911,-3645.0796L13646.2457,-3645.0428L13646.2527,-3645.036L13646.3091,-3644.9893L13646.3433,-3644.9628L13646.3712,-3644.9543L13646.3752,-3644.953L13646.3865,-3644.9499L13646.4945,-3644.9229"/>
<path content="3,能美市,根上地区循環バス　山口方面,4.0,4.0,4.0," xlink:title="3" d="M13645.9963,-3645.4461L13646.0233,-3645.4309L13646.0512,-3645.4157L13646.0798,-3645.4016L13646.0896,-3645.3954L13646.1161,-3645.3814L13646.1244,-3645.3763L13646.1509,-3645.3622L13646.0921,-3645.3123L13645.9975,-3645.2039L13646.0003,-3645.1897L13646.0246,-3645.1768L13646.061,-3645.1566L13646.0851,-3645.1445L13646.1046,-3645.1356L13646.1196,-3645.1274L13646.1301,-3645.1204L13646.1361,-3645.1151"/>
<path content="3,能美市,根上地区循環バス　赤井方面,4.0,4.0,4.0," xlink:title="3" d="M13646.4492,-3644.782L13646.4374,-3644.7471L13646.4178,-3644.6864"/>
<path content="3,能美市,根上地区循環バス　赤井方面,4.0,4.0,4.0," xlink:title="3" d="M13646.4492,-3644.782L13646.4722,-3644.8519L13646.4945,-3644.9229L13646.5161,-3644.9163L13646.5636,-3644.9071L13646.6005,-3644.8986L13646.6138,-3644.8957L13646.6723,-3644.8823L13646.726,-3644.8727L13646.7451,-3644.8657L13646.7992,-3644.857L13646.8375,-3644.8474L13646.8424,-3644.8474L13646.8424,-3644.7804L13646.8424,-3644.7674L13646.8417,-3644.7139L13646.8424,-3644.697L13646.8424,-3644.6356L13646.8403,-3644.6356L13646.8403,-3644.6311L13646.8396,-3644.5945L13646.842,-3644.5646L13646.8885,-3644.5601L13646.9009,-3644.5601L13646.8954,-3644.5167L13646.894,-3644.4998L13646.9086,-3644.4992L13646.9776,-3644.4925L13646.9713,-3644.4396L13646.9699,-3644.4345L13646.9664,-3644.3967L13646.9644,-3644.3764L13647.0048,-3644.372L13647.0452,-3644.3686L13647.0661,-3644.3675L13647.0682,-3644.4018L13647.0684,-3644.4124L13647.0766,-3644.4846L13647.0827,-3644.5501L13647.0829,-3644.5517L13647.0878,-3644.5939L13647.0905,-3644.6153L13647.0933,-3644.6368L13647.1135,-3644.6384L13647.1532,-3644.6435L13647.1958,-3644.6486L13647.2174,-3644.6537L13647.2271,-3644.6497L13647.2805,-3644.6265L13647.3575,-3644.5917L13647.37,-3644.5849L13647.3728,-3644.5844L13647.4774,-3644.5348L13647.5394,-3644.5067L13647.5527,-3644.5005L13647.6503,-3644.4566L13647.7137,-3644.4323L13647.7736,-3644.4121L13647.7743,-3644.4233L13647.7715,-3644.4351L13647.7721,-3644.446L13647.7722,-3644.4481L13647.7729,-3644.4509L13647.7966,-3644.4909L13647.8059,-3644.5077L13647.8273,-3644.545L13647.8329,-3644.5568L13647.8803,-3644.5416L13647.9109,-3644.5326L13647.927,-3644.5287L13647.9709,-3644.5152L13647.9834,-3644.5118L13648.0483,-3644.4921L13648.0727,-3644.4859L13648.2448,-3644.4352L13648.3633,-3644.4003L13648.3982,-3644.3901L13648.4058,-3644.3884L13648.4072,-3644.3873L13648.4756,-3644.3671L13648.5181,-3644.3553L13648.5332,-3644.3509L13648.5487,-3644.3462L13648.5648,-3644.3408L13648.5835,-3644.3348L13648.5885,-3644.3491L13648.608,-3644.4392L13648.608,-3644.4606L13648.6052,-3644.4758L13648.6078,-3644.4935L13648.6108,-3644.5023L13648.6143,-3644.5141L13648.615,-3644.5231L13648.6172,-3644.5311L13648.6268,-3644.5659L13648.6399,-3644.6119L13648.6436,-3644.6245L13648.6575,-3644.6758L13648.6631,-3644.6959L13648.6686,-3644.7158L13648.6735,-3644.7338L13648.6777,-3644.749L13648.6986,-3644.8251L13648.7007,-3644.8352L13648.7042,-3644.8431L13648.7069,-3644.8482L13648.7125,-3644.8724L13648.7146,-3644.8825L13648.7139,-3644.9034L13648.7139,-3644.9039L13648.709,-3644.9422L13648.7063,-3644.9614L13648.7049,-3644.9693L13648.7032,-3644.9745L13648.7014,-3644.9924L13648.7007,-3644.9991L13648.6986,-3645.0189L13648.6986,-3645.0555L13648.7,-3645.0673L13648.7012,-3645.0774L13648.7039,-3645.1206L13648.7069,-3645.1709L13648.7083,-3645.1794L13648.7111,-3645.2137L13648.7111,-3645.2138L13648.7174,-3645.3039L13648.7167,-3645.3101L13648.7097,-3645.3219L13648.6907,-3645.3453L13648.6616,-3645.3811L13648.6596,-3645.3833L13648.6094,-3645.4014L13648.6003,-3645.4025L13648.5125,-3645.4205L13648.4846,-3645.4734L13648.4717,-3645.4964L13648.4693,-3645.4999L13648.4602,-3645.5168L13648.4553,-3645.5258L13648.4497,-3645.5365L13648.3898,-3645.6452L13648.3849,-3645.6554L13648.3814,-3645.6667L13648.3779,-3645.6858L13648.3779,-3645.7275L13648.3793,-3645.7421L13648.3744,-3645.7748L13648.3709,-3645.834L13648.3689,-3645.8531L13648.3612,-3645.879L13648.3494,-3645.9044L13648.3368,-3645.9258L13648.3159,-3645.95L13648.2678,-3646.0007L13648.2427,-3646.0255L13648.2009,-3646.0672L13648.1832,-3646.0825L13648.1723,-3646.0919L13648.1653,-3646.0959L13648.0531,-3646.1511L13647.9472,-3646.2029L13647.9066,-3646.2231L13647.894,-3646.2291L13647.8482,-3646.2508L13647.7471,-3646.3009L13647.6892,-3646.3285L13647.6034,-3646.3703L13647.5666,-3646.3882L13647.5471,-3646.3972L13647.4927,-3646.4237L13647.4801,-3646.431L13647.4627,-3646.4389L13647.4322,-3646.4533L13647.4251,-3646.4575L13647.439,-3646.4783L13647.3728,-3646.5082L13647.3665,-3646.5099L13647.3338,-3646.5251L13647.3282,-3646.5166L13647.2898,-3646.4558L13647.2459,-3646.3887L13647.2431,-3646.3841L13647.2341,-3646.3707L13647.2299,-3646.3645L13647.1749,-3646.2924L13647.1714,-3646.289L13647.1637,-3646.2806L13647.1261,-3646.2394L13647.1191,-3646.2333L13647.0431,-3646.151L13647.0326,-3646.1409L13646.9755,-3646.0975L13646.9548,-3646.0822L13646.9302,-3646.062L13646.9267,-3646.058L13646.8932,-3646.0203L13646.8904,-3646.0158L13646.8563,-3645.9752L13646.7413,-3645.8406L13646.7127,-3645.8073L13646.6918,-3645.7859L13646.6569,-3645.7521L13646.651,-3645.7466L13646.6272,-3645.7243L13646.6019,-3645.7008L13646.5872,-3645.6834L13646.5656,-3645.6496L13646.5468,-3645.6079L13646.5419,-3645.5966L13646.5371,-3645.5859L13646.5301,-3645.5713L13646.5057,-3645.5189L13646.505,-3645.5166L13646.4952,-3645.4969L13646.4797,-3645.463L13646.4694,-3645.4428L13646.4464,-3645.3944L13646.4374,-3645.3837L13646.4206,-3645.3668L13646.4004,-3645.3482L13646.3921,-3645.3431L13646.3542,-3645.3143L13646.3391,-3645.3048L13646.3077,-3645.2778L13646.2952,-3645.2648L13646.2882,-3645.2709L13646.261,-3645.2907L13646.238,-3645.3087L13646.2248,-3645.3171L13646.1976,-3645.3358L13646.1864,-3645.3431L13646.1718,-3645.3504L13646.1509,-3645.3622"/>
<path content="3,能美市,根上地区循環バス　赤井方面,4.0,4.0,4.0," xlink:title="3" d="M13646.1509,-3645.3622L13646.0921,-3645.3123L13645.9975,-3645.2039L13646.0003,-3645.1897L13646.0246,-3645.1768L13646.061,-3645.1566L13646.0851,-3645.1445L13646.1046,-3645.1356L13646.1196,-3645.1274L13646.1301,-3645.1204L13646.1361,-3645.1151L13646.1425,-3645.1115L13646.1911,-3645.0796L13646.2457,-3645.0428L13646.2527,-3645.036L13646.3091,-3644.9893L13646.3433,-3644.9628L13646.3712,-3644.9543L13646.3752,-3644.953L13646.3712,-3644.9437L13646.3579,-3644.9144L13646.3412,-3644.8794L13646.3098,-3644.813L13646.3571,-3644.8017L13646.4165,-3644.7899L13646.4332,-3644.7859L13646.4492,-3644.782"/>
<path content="3,能美市,根上地区循環バス　赤井方面,4.0,4.0,4.0," xlink:title="3" d="M13646.1509,-3645.3622L13646.1244,-3645.3763L13646.1161,-3645.3814L13646.0896,-3645.3954L13646.0798,-3645.4016L13646.0512,-3645.4157L13646.0233,-3645.4309L13645.9963,-3645.4461"/>
<path content="3,能美市,連携バス,11.5,11.5,11.5," xlink:title="3" d="M13649.4141,-3643.7254L13649.3692,-3643.7289L13649.305,-3643.7317"/>
<path content="3,能美市,連携バス,11.5,11.5,11.5," xlink:title="3" d="M13649.305,-3643.7317L13649.2499,-3643.7364L13649.1956,-3643.7419L13649.1764,-3643.7436L13649.1175,-3643.7544L13649.1141,-3643.7672L13649.1126,-3643.7987L13649.1133,-3643.8145L13649.1113,-3643.8337L13649.1106,-3643.8816L13649.1175,-3643.8827L13649.155,-3643.8836L13649.1991,-3643.8883L13649.3036,-3643.8968L13649.3183,-3643.8979"/>
<path content="3,能美市,連携バス,11.5,11.5,11.5," xlink:title="3" d="M13649.3183,-3643.8979L13649.3113,-3643.8162L13649.3113,-3643.81L13649.305,-3643.7317"/>
<path content="3,能美市,連携バス,11.5,11.5,11.5," xlink:title="3" d="M13649.3183,-3643.8979L13649.3238,-3643.9528L13649.3281,-3644.0038L13649.3315,-3644.0472L13649.3335,-3644.0606L13649.335,-3644.0838L13649.3378,-3644.1137L13649.3378,-3644.1227L13649.3392,-3644.13L13649.3392,-3644.1486L13649.3399,-3644.1587L13649.342,-3644.1672L13649.3441,-3644.1807L13649.3482,-3644.1959L13649.3573,-3644.2224L13649.3622,-3644.2323L13649.3684,-3644.2449L13649.392,-3644.2779L13649.3998,-3644.2951L13649.4012,-3644.3012L13649.4026,-3644.3052L13649.4061,-3644.3294L13649.4124,-3644.3486L13649.4141,-3644.3512"/>
<path content="3,能美市,連携バス,11.5,11.5,11.5," xlink:title="3" d="M13649.4141,-3644.3897L13649.3207,-3644.3844L13649.2952,-3644.3818L13649.1872,-3644.375L13649.1126,-3644.3705L13649.1099,-3644.3705L13649.0241,-3644.3649L13649.0199,-3644.3643L13649.0124,-3644.363L13648.8406,-3644.3529L13648.8255,-3644.3519L13648.7263,-3644.3436L13648.7213,-3644.3432L13648.6906,-3644.3411L13648.6666,-3644.3395L13648.6491,-3644.3378L13648.5927,-3644.3327L13648.5899,-3644.3327L13648.5835,-3644.3348L13648.5648,-3644.3408L13648.5487,-3644.3462L13648.5332,-3644.3509L13648.5181,-3644.3553L13648.4756,-3644.3671L13648.4072,-3644.3873L13648.4058,-3644.3884L13648.3982,-3644.3901L13648.3633,-3644.4003L13648.2448,-3644.4352L13648.0727,-3644.4859L13648.0483,-3644.4921L13647.9834,-3644.5118L13647.9709,-3644.5152L13647.927,-3644.5287L13647.9109,-3644.5326L13647.8803,-3644.5416L13647.8329,-3644.5568L13647.7945,-3644.5771L13647.7902,-3644.5801L13647.7736,-3644.5865L13647.7625,-3644.5961L13647.7213,-3644.6182L13647.7004,-3644.6306L13647.6844,-3644.6391L13647.6391,-3644.6639L13647.6272,-3644.6701L13647.5833,-3644.6926L13647.5722,-3644.6982L13647.5067,-3644.7314L13647.4966,-3644.7367L13647.4146,-3644.7799L13647.4014,-3644.7855L13647.3338,-3644.8007L13647.3072,-3644.8054L13647.2843,-3644.8137L13647.2662,-3644.8198L13647.2494,-3644.8272L13647.2048,-3644.8458L13647.1895,-3644.848L13647.1504,-3644.848L13647.1358,-3644.8469L13646.9434,-3644.8468L13646.9379,-3644.8463L13646.8424,-3644.8474L13646.8375,-3644.8474L13646.7992,-3644.857L13646.7451,-3644.8657L13646.726,-3644.8727L13646.6723,-3644.8823L13646.6138,-3644.8957L13646.6005,-3644.8986L13646.5636,-3644.9071L13646.5161,-3644.9163L13646.4945,-3644.9229"/>
<path content="3,能美市,連携バス,11.5,11.5,11.5," xlink:title="3" d="M13646.4945,-3644.9229L13646.4722,-3644.8519L13646.4492,-3644.782L13646.4332,-3644.7859L13646.4165,-3644.7899L13646.3571,-3644.8017L13646.3098,-3644.813L13646.3412,-3644.8794L13646.2576,-3644.8997L13646.1976,-3644.916L13646.146,-3644.9318L13646.0763,-3644.956"/>
<path content="3,能美市,連携バス,11.5,11.5,11.5," xlink:title="3" d="M13646.4945,-3644.9229L13646.3865,-3644.9499L13646.3752,-3644.953L13646.3712,-3644.9543L13646.3433,-3644.9628L13646.3091,-3644.9893L13646.2527,-3645.036L13646.2457,-3645.0428L13646.1911,-3645.0796L13646.1425,-3645.1115L13646.1361,-3645.1151"/>
<path content="3,能美市,連携バス,11.5,11.5,11.5," xlink:title="3" d="M13646.0763,-3644.956L13646.0822,-3644.9955L13646.0868,-3645.0174L13646.0916,-3645.0377L13646.1063,-3645.0754L13646.1258,-3645.1036L13646.1361,-3645.1151"/>
<path content="3,能美市,連携バス,11.5,11.5,11.5," xlink:title="3" d="M13646.1361,-3645.1151L13646.1301,-3645.1204L13646.1196,-3645.1274L13646.1046,-3645.1356L13646.0851,-3645.1445L13646.061,-3645.1566L13646.0246,-3645.1768L13646.0003,-3645.1897L13645.9975,-3645.2039L13646.0921,-3645.3123L13646.1509,-3645.3622L13646.1244,-3645.3763L13646.1161,-3645.3814L13646.0896,-3645.3954L13646.0798,-3645.4016L13646.0512,-3645.4157L13646.0233,-3645.4309L13645.9963,-3645.4461L13645.9662,-3645.4625L13645.9425,-3645.4749"/>
<path content="3,能美市,連携バス,11.5,11.5,11.5," xlink:title="3" d="M13645.9425,-3645.4749L13645.8463,-3645.3267L13645.8296,-3645.3019L13645.8059,-3645.2664L13645.9292,-3645.1881L13645.9253,-3645.1824L13645.8867,-3645.1447L13645.8798,-3645.1425L13645.7829,-3645.1042L13645.7473,-3645.0906L13645.6679,-3645.0625L13645.64,-3645.0518L13645.6274,-3645.0456L13645.58,-3645.0095L13645.594,-3645.0016L13645.6037,-3644.9949L13645.6546,-3644.9656L13645.6651,-3644.9594L13645.7153,-3644.9312L13645.7382,-3644.9171L13645.7934,-3644.8851L13645.8798,-3644.8366L13645.8986,-3644.8264L13645.9646,-3644.7913L13645.9674,-3644.7944L13645.9996,-3644.8304L13646.0192,-3644.8552L13646.0338,-3644.8721L13646.0456,-3644.8879L13646.0568,-3644.9014L13646.0624,-3644.911L13646.0708,-3644.9296L13646.0749,-3644.9459L13646.0763,-3644.956"/>
<path content="3,能美市,連携バス,11.5,11.5,11.5," xlink:title="3" d="M13645.9425,-3645.4749L13645.9711,-3645.5188L13645.997,-3645.5554"/>
</g>
</svg>
