<?xml version="1.0" encoding="UTF-8"?>
<svg  xmlns="http://www.w3.org/2000/svg" xmlns:xlink="http://www.w3.org/1999/xlink" xmlns:go="http://purl.org/svgmap/profile" property="N07_001,N07_002,N07_003,N07_004,N07_005,N07_006,N07_007" viewBox="13844.970703125 -3503.5400390625 1.0986328125 1.0986328125" go:dataArea="13844.970703125 -3503.5400390625 1.0986328125 1.0986328125" >
<metadata>
 <rdf:RDF xmlns:rdf="http://www.w3.org/1999/02/22-rdf-syntax-ns#" xmlns:crs="http://opengis.org/xmldtds/transformations.dtd" xmlns:svg="http://www.w3.org/svg" >
  <rdf:Description>
   <crs:CoordinateReferenceSystem rdf:resource="http://purl.org/crs/84" svg:transform="matrix(100.0,0.0,0.0,-100.0,0.0,0.0)" />
  </rdf:Description>
 </rdf:RDF>
</metadata>
<globalCoordinateSystem srsName="http://purl.org/crs/84" transform="matrix(100.0,0.0,0.0,-100.0,0.0,0.0)" />
<defs>
 <g id="p0" >
  <circle cx="0.0" cy="0.0" r="3" stroke="green" stroke-width="0.75" vector-effect="non-scaling-stroke" />
 </g>
</defs>
<g fill="none" fill-rule="evenodd" stroke="#FF00FF" stroke-width="0.75" opacity="0.5" vector-effect="non-scaling-stroke" stroke-linejoin="bevel" >
<path content="1,JRバステック（株）,名古屋系統（特急）,1.0,1.0,1.0," xlink:title="1" d="M13845.9172,-3503.54L13845.8169,-3503.4642L13845.802,-3503.4518L13845.7631,-3503.4194L13845.7285,-3503.3881L13845.7255,-3503.3854L13845.6709,-3503.3293L13845.6328,-3503.2836L13845.5923,-3503.2351L13845.4674,-3503.0824L13845.4149,-3503.0169L13845.3571,-3502.9448L13845.3288,-3502.908L13845.3268,-3502.9054L13845.3215,-3502.9L13845.3215,-3502.9L13845.2636,-3502.8402L13845.1872,-3502.7639L13845.1862,-3502.763L13845.0928,-3502.6756L13845.082,-3502.6667L13845.0783,-3502.6636L13845.0783,-3502.6636L13845.0679,-3502.6551L13845.0312,-3502.6245L13845.0312,-3502.6245L13845.0231,-3502.6178L13844.9895,-3502.5928L13844.9707,-3502.5789"/>
<path content="1,JRバステック（株）,名古屋系統（超特急）,3.0,3.0,3.0," xlink:title="1" d="M13845.9172,-3503.54L13845.8169,-3503.4642L13845.802,-3503.4518L13845.7631,-3503.4194L13845.7285,-3503.3881L13845.7255,-3503.3854L13845.6709,-3503.3293L13845.6328,-3503.2836L13845.5923,-3503.2351L13845.4674,-3503.0824L13845.4149,-3503.0169L13845.3571,-3502.9448L13845.3288,-3502.908L13845.3268,-3502.9054L13845.3215,-3502.9L13845.3215,-3502.9L13845.2636,-3502.8402L13845.1872,-3502.7639L13845.1862,-3502.763L13845.0928,-3502.6756L13845.082,-3502.6667L13845.0783,-3502.6636L13845.0783,-3502.6636L13845.0679,-3502.6551L13845.0312,-3502.6245L13845.0312,-3502.6245L13845.0231,-3502.6178L13844.9895,-3502.5928L13844.9707,-3502.5789"/>
<path content="1,JRバス関東（株）,ドリーム和歌山号,1.0,1.0,1.0," xlink:title="1" d="M13845.9172,-3503.54L13845.8169,-3503.4642L13845.802,-3503.4518L13845.7631,-3503.4194L13845.7285,-3503.3881L13845.7255,-3503.3854L13845.6709,-3503.3293L13845.6328,-3503.2836L13845.5923,-3503.2351L13845.4674,-3503.0824L13845.4149,-3503.0169L13845.3571,-3502.9448L13845.3288,-3502.908L13845.3268,-3502.9054L13845.3215,-3502.9L13845.3215,-3502.9L13845.2636,-3502.8402L13845.1872,-3502.7639L13845.1862,-3502.763L13845.0928,-3502.6756L13845.082,-3502.6667L13845.0783,-3502.6636L13845.0783,-3502.6636L13845.0679,-3502.6551L13845.0312,-3502.6245L13845.0312,-3502.6245L13845.0231,-3502.6178L13844.9895,-3502.5928L13844.9707,-3502.5789"/>
<path content="1,JRバス関東（株）,ドリーム福井号,2.0,2.0,2.0," xlink:title="1" d="M13845.9172,-3503.54L13845.8169,-3503.4642L13845.802,-3503.4518L13845.7631,-3503.4194L13845.7285,-3503.3881L13845.7255,-3503.3854L13845.6709,-3503.3293L13845.6328,-3503.2836L13845.5923,-3503.2351L13845.4674,-3503.0824L13845.4149,-3503.0169L13845.3571,-3502.9448L13845.3288,-3502.908L13845.3268,-3502.9054L13845.3215,-3502.9L13845.3215,-3502.9L13845.2636,-3502.8402L13845.1872,-3502.7639L13845.1862,-3502.763L13845.0928,-3502.6756L13845.082,-3502.6667L13845.0783,-3502.6636L13845.0783,-3502.6636L13845.0679,-3502.6551L13845.0312,-3502.6245L13845.0312,-3502.6245L13845.0231,-3502.6178L13844.9895,-3502.5928L13844.9707,-3502.5789"/>
<path content="1,JRバス関東（株）,ドリーム静岡・浜松号,2.0,2.0,2.0," xlink:title="1" d="M13845.9172,-3503.54L13845.8169,-3503.4642L13845.802,-3503.4518L13845.7631,-3503.4194L13845.7285,-3503.3881L13845.7255,-3503.3854L13845.6709,-3503.3293L13845.6328,-3503.2836L13845.5923,-3503.2351L13845.4674,-3503.0824L13845.4149,-3503.0169L13845.3571,-3502.9448L13845.3288,-3502.908L13845.3268,-3502.9054L13845.3215,-3502.9L13845.3215,-3502.9L13845.2636,-3502.8402L13845.1872,-3502.7639L13845.1862,-3502.763L13845.0928,-3502.6756L13845.082,-3502.6667L13845.0783,-3502.6636L13845.0783,-3502.6636L13845.0679,-3502.6551L13845.0312,-3502.6245L13845.0312,-3502.6245L13845.0231,-3502.6178L13844.9895,-3502.5928L13844.9707,-3502.5789"/>
<path content="1,JRバス関東（株）,ドリーム高松号/松山号/徳島号/高知号,4.0,4.0,4.0," xlink:title="1" d="M13845.9172,-3503.54L13845.8169,-3503.4642L13845.802,-3503.4518L13845.7631,-3503.4194L13845.7285,-3503.3881L13845.7255,-3503.3854L13845.6709,-3503.3293L13845.6328,-3503.2836L13845.5923,-3503.2351L13845.4674,-3503.0824L13845.4149,-3503.0169L13845.3571,-3502.9448L13845.3288,-3502.908L13845.3268,-3502.9054L13845.3215,-3502.9L13845.3215,-3502.9L13845.2636,-3502.8402L13845.1872,-3502.7639L13845.1862,-3502.763L13845.0928,-3502.6756L13845.082,-3502.6667L13845.0783,-3502.6636L13845.0783,-3502.6636L13845.0679,-3502.6551L13845.0312,-3502.6245L13845.0312,-3502.6245L13845.0231,-3502.6178L13844.9895,-3502.5928L13844.9707,-3502.5789"/>
<path content="1,JRバス関東（株）,プレミアム中央ドリーム号/中央ドリーム号/プレミアムドリーム号/ドリーム号/レディースドリーム号/プレミアムレディース,9.4,12.0,12.0," xlink:title="1" d="M13845.9172,-3503.54L13845.8169,-3503.4642L13845.802,-3503.4518L13845.7631,-3503.4194L13845.7285,-3503.3881L13845.7255,-3503.3854L13845.6709,-3503.3293L13845.6328,-3503.2836L13845.5923,-3503.2351L13845.4674,-3503.0824L13845.4149,-3503.0169L13845.3571,-3502.9448L13845.3288,-3502.908L13845.3268,-3502.9054L13845.3215,-3502.9L13845.3215,-3502.9L13845.2636,-3502.8402L13845.1872,-3502.7639L13845.1862,-3502.763L13845.0928,-3502.6756L13845.082,-3502.6667L13845.0783,-3502.6636L13845.0783,-3502.6636L13845.0679,-3502.6551L13845.0312,-3502.6245L13845.0312,-3502.6245L13845.0231,-3502.6178L13844.9895,-3502.5928L13844.9707,-3502.5789"/>
<path content="1,JRバス関東（株）,新宿ドリーム三河・なごや号,1.0,1.0,1.0," xlink:title="1" d="M13845.9172,-3503.54L13845.8169,-3503.4642L13845.802,-3503.4518L13845.7631,-3503.4194L13845.7285,-3503.3881L13845.7255,-3503.3854L13845.6709,-3503.3293L13845.6328,-3503.2836L13845.5923,-3503.2351L13845.4674,-3503.0824L13845.4149,-3503.0169L13845.3571,-3502.9448L13845.3288,-3502.908L13845.3268,-3502.9054L13845.3215,-3502.9L13845.3215,-3502.9L13845.2636,-3502.8402L13845.1872,-3502.7639L13845.1862,-3502.763L13845.0928,-3502.6756L13845.082,-3502.6667L13845.0783,-3502.6636L13845.0783,-3502.6636L13845.0679,-3502.6551L13845.0312,-3502.6245L13845.0312,-3502.6245L13845.0231,-3502.6178L13844.9895,-3502.5928L13844.9707,-3502.5789"/>
<path content="1,JRバス関東（株）,新宿ライナー三河・なごや号,1.0,1.0,1.0," xlink:title="1" d="M13845.9172,-3503.54L13845.8169,-3503.4642L13845.802,-3503.4518L13845.7631,-3503.4194L13845.7285,-3503.3881L13845.7255,-3503.3854L13845.6709,-3503.3293L13845.6328,-3503.2836L13845.5923,-3503.2351L13845.4674,-3503.0824L13845.4149,-3503.0169L13845.3571,-3502.9448L13845.3288,-3502.908L13845.3268,-3502.9054L13845.3215,-3502.9L13845.3215,-3502.9L13845.2636,-3502.8402L13845.1872,-3502.7639L13845.1862,-3502.763L13845.0928,-3502.6756L13845.082,-3502.6667L13845.0783,-3502.6636L13845.0783,-3502.6636L13845.0679,-3502.6551L13845.0312,-3502.6245L13845.0312,-3502.6245L13845.0231,-3502.6178L13844.9895,-3502.5928L13844.9707,-3502.5789"/>
<path content="1,JRバス関東（株）,東名ハイウェイバス,8.0,8.0,8.0," xlink:title="1" d="M13845.9172,-3503.54L13845.8169,-3503.4642L13845.802,-3503.4518L13845.7631,-3503.4194L13845.7285,-3503.3881L13845.7255,-3503.3854L13845.6709,-3503.3293L13845.6328,-3503.2836L13845.5923,-3503.2351L13845.4674,-3503.0824L13845.4149,-3503.0169L13845.3571,-3502.9448L13845.3288,-3502.908L13845.3268,-3502.9054L13845.3215,-3502.9L13845.3215,-3502.9L13845.2636,-3502.8402L13845.1872,-3502.7639L13845.1862,-3502.763L13845.0928,-3502.6756L13845.082,-3502.6667L13845.0783,-3502.6636L13845.0783,-3502.6636L13845.0679,-3502.6551L13845.0312,-3502.6245L13845.0312,-3502.6245L13845.0231,-3502.6178L13844.9895,-3502.5928L13844.9707,-3502.5789"/>
<path content="1,JRバス関東（株）,東海道昼特急号/中央道昼特急号/青春昼特急号/プレミアム昼特急号,7.2,9.0,9.0," xlink:title="1" d="M13845.9172,-3503.54L13845.8169,-3503.4642L13845.802,-3503.4518L13845.7631,-3503.4194L13845.7285,-3503.3881L13845.7255,-3503.3854L13845.6709,-3503.3293L13845.6328,-3503.2836L13845.5923,-3503.2351L13845.4674,-3503.0824L13845.4149,-3503.0169L13845.3571,-3502.9448L13845.3288,-3502.908L13845.3268,-3502.9054L13845.3215,-3502.9L13845.3215,-3502.9L13845.2636,-3502.8402L13845.1872,-3502.7639L13845.1862,-3502.763L13845.0928,-3502.6756L13845.082,-3502.6667L13845.0783,-3502.6636L13845.0783,-3502.6636L13845.0679,-3502.6551L13845.0312,-3502.6245L13845.0312,-3502.6245L13845.0231,-3502.6178L13844.9895,-3502.5928L13844.9707,-3502.5789"/>
<path content="1,JRバス関東（株）,知多シーガール号,2.0,2.0,2.0," xlink:title="1" d="M13845.9172,-3503.54L13845.8169,-3503.4642L13845.802,-3503.4518L13845.7631,-3503.4194L13845.7285,-3503.3881L13845.7255,-3503.3854L13845.6709,-3503.3293L13845.6328,-3503.2836L13845.5923,-3503.2351L13845.4674,-3503.0824L13845.4149,-3503.0169L13845.3571,-3502.9448L13845.3288,-3502.908L13845.3268,-3502.9054L13845.3215,-3502.9L13845.3215,-3502.9L13845.2636,-3502.8402L13845.1872,-3502.7639L13845.1862,-3502.763L13845.0928,-3502.6756L13845.082,-3502.6667L13845.0783,-3502.6636L13845.0783,-3502.6636L13845.0679,-3502.6551L13845.0312,-3502.6245L13845.0312,-3502.6245L13845.0231,-3502.6178L13844.9895,-3502.5928L13844.9707,-3502.5789"/>
<path content="1,JRバス関東（株）,青春中央ドリーム号/青春中央エコドリーム号/青春ドリーム号/青春レディースドリーム号/青春エコドリーム号/超得割青春号,10.0,14.0,14.0," xlink:title="1" d="M13845.9172,-3503.54L13845.8169,-3503.4642L13845.802,-3503.4518L13845.7631,-3503.4194L13845.7285,-3503.3881L13845.7255,-3503.3854L13845.6709,-3503.3293L13845.6328,-3503.2836L13845.5923,-3503.2351L13845.4674,-3503.0824L13845.4149,-3503.0169L13845.3571,-3502.9448L13845.3288,-3502.908L13845.3268,-3502.9054L13845.3215,-3502.9L13845.3215,-3502.9L13845.2636,-3502.8402L13845.1872,-3502.7639L13845.1862,-3502.763L13845.0928,-3502.6756L13845.082,-3502.6667L13845.0783,-3502.6636L13845.0783,-3502.6636L13845.0679,-3502.6551L13845.0312,-3502.6245L13845.0312,-3502.6245L13845.0231,-3502.6178L13844.9895,-3502.5928L13844.9707,-3502.5789"/>
<path content="1,JRバス関東（株）,駿府ライナー,6.0,6.0,6.0," xlink:title="1" d="M13846.0693,-3502.8555L13846.0146,-3502.8586L13845.9119,-3502.8615L13845.8914,-3502.8626L13845.7757,-3502.862L13845.7381,-3502.8581L13845.7141,-3502.853L13845.708,-3502.8488L13845.6833,-3502.844L13845.5868,-3502.8136L13845.5471,-3502.8012L13845.48,-3502.7804L13845.4299,-3502.7646L13845.337,-3502.7285L13845.3048,-3502.7167L13845.2719,-3502.7044L13845.2341,-3502.6885L13845.1686,-3502.6632L13845.1282,-3502.6503L13845.1091,-3502.6469L13845.0839,-3502.6653L13845.082,-3502.6667L13845.082,-3502.6667L13845.0635,-3502.6802L13845.0146,-3502.6615L13844.9934,-3502.648L13844.9707,-3502.6302"/>
<path content="1,JR四国バス（株）,ドリーム徳島号　阿南・徳島⇔新宿・東京・新木場,1.0,1.0,1.0," xlink:title="1" d="M13845.9172,-3503.54L13845.8169,-3503.4642L13845.7631,-3503.4194L13845.7255,-3503.3854L13845.6709,-3503.3293L13845.5923,-3503.2351L13845.4674,-3503.0824L13845.4149,-3503.0169L13845.3571,-3502.9448L13845.3268,-3502.9054L13845.2636,-3502.8402L13845.1862,-3502.763L13845.0928,-3502.6756L13845.0679,-3502.6551L13845.0231,-3502.6178L13844.9707,-3502.5789"/>
<path content="1,JR四国バス（株）,ドリーム高松・松山号　松山・高松⇔東京・東京ディズニーランド,1.0,1.0,1.0," xlink:title="1" d="M13845.9172,-3503.54L13845.8169,-3503.4642L13845.7631,-3503.4194L13845.7255,-3503.3854L13845.6709,-3503.3293L13845.5923,-3503.2351L13845.4674,-3503.0824L13845.4149,-3503.0169L13845.3571,-3502.9448L13845.3268,-3502.9054L13845.2636,-3502.8402L13845.1862,-3502.763L13845.0928,-3502.6756L13845.0679,-3502.6551L13845.0231,-3502.6178L13844.9707,-3502.5789"/>
<path content="1,JR四国バス（株）,ドリーム高松号　観音寺・高松⇔新宿・東京・新木場,1.0,1.0,1.0," xlink:title="1" d="M13845.9172,-3503.54L13845.8169,-3503.4642L13845.7631,-3503.4194L13845.7255,-3503.3854L13845.6709,-3503.3293L13845.5923,-3503.2351L13845.4674,-3503.0824L13845.4149,-3503.0169L13845.3571,-3502.9448L13845.3268,-3502.9054L13845.2636,-3502.8402L13845.1862,-3502.763L13845.0928,-3502.6756L13845.0679,-3502.6551L13845.0231,-3502.6178L13844.9707,-3502.5789"/>
<path content="1,JR四国バス（株）,ドリーム高知号　高知・徳島⇔東京・新木場,1.0,1.0,1.0," xlink:title="1" d="M13845.9172,-3503.54L13845.8169,-3503.4642L13845.7631,-3503.4194L13845.7255,-3503.3854L13845.6709,-3503.3293L13845.5923,-3503.2351L13845.4674,-3503.0824L13845.4149,-3503.0169L13845.3571,-3502.9448L13845.3268,-3502.9054L13845.2636,-3502.8402L13845.1862,-3502.763L13845.0928,-3502.6756L13845.0679,-3502.6551L13845.0231,-3502.6178L13844.9707,-3502.5789"/>
<path content="1,JR東海バス（株）,ドリームとよた号,1.0,1.0,1.0," xlink:title="1" d="M13844.9707,-3502.579L13845.0231,-3502.6178L13845.0679,-3502.6551L13845.0928,-3502.6756L13845.1862,-3502.763L13845.2636,-3502.8402L13845.3268,-3502.9054L13845.3571,-3502.9448L13845.4149,-3503.0169L13845.4674,-3503.0824L13845.5923,-3503.2351L13845.6709,-3503.3293L13845.7255,-3503.3854L13845.7631,-3503.4194L13845.8169,-3503.4642L13845.9172,-3503.54"/>
<path content="1,JR東海バス（株）,ドリームなごや号_01_on,3.0,3.0,3.0," xlink:title="1" d="M13844.9707,-3502.579L13845.0231,-3502.6178L13845.0679,-3502.6551L13845.0928,-3502.6756L13845.1862,-3502.763L13845.2636,-3502.8402L13845.3268,-3502.9054L13845.3571,-3502.9448L13845.4149,-3503.0169L13845.4674,-3503.0824L13845.5923,-3503.2351L13845.6709,-3503.3293L13845.7255,-3503.3854L13845.7631,-3503.4194L13845.8169,-3503.4642L13845.9172,-3503.54"/>
<path content="1,JR東海バス（株）,ドリームなごや号_02_on,3.0,3.0,3.0," xlink:title="1" d="M13844.9707,-3502.5789L13845.0231,-3502.6178L13845.0679,-3502.6551L13845.0928,-3502.6756L13845.1862,-3502.763L13845.2636,-3502.8402L13845.3268,-3502.9054L13845.3571,-3502.9448L13845.4149,-3503.0169L13845.4674,-3503.0824L13845.5923,-3503.2351L13845.6709,-3503.3293L13845.7255,-3503.3854L13845.7631,-3503.4194L13845.8169,-3503.4642L13845.9172,-3503.54"/>
<path content="1,JR東海バス（株）,ドリーム静岡・浜松号_01_on,2.0,2.0,2.0," xlink:title="1" d="M13845.9172,-3503.54L13845.8169,-3503.4642L13845.7631,-3503.4194L13845.7255,-3503.3854L13845.6709,-3503.3293L13845.5923,-3503.2351L13845.4674,-3503.0824L13845.4149,-3503.0169L13845.3571,-3502.9448L13845.3268,-3502.9054L13845.2636,-3502.8402L13845.1862,-3502.763L13845.0928,-3502.6756L13845.0679,-3502.6551L13845.0231,-3502.6178L13844.9707,-3502.5789"/>
<path content="1,JR東海バス（株）,ドリーム静岡・浜松号_02_on,2.0,2.0,2.0," xlink:title="1" d="M13844.9707,-3502.5789L13845.0231,-3502.6178L13845.0679,-3502.6551L13845.0928,-3502.6756L13845.1862,-3502.763L13845.2636,-3502.8402L13845.3268,-3502.9054L13845.3571,-3502.9448L13845.4149,-3503.0169L13845.4674,-3503.0824L13845.5923,-3503.2351L13845.6709,-3503.3293L13845.7255,-3503.3854L13845.7631,-3503.4194L13845.8169,-3503.4642L13845.9172,-3503.54"/>
<path content="1,JR東海バス（株）,ファンタジア号,1.0,1.0,1.0," xlink:title="1" d="M13844.9707,-3502.579L13845.0231,-3502.6178L13845.0679,-3502.6551L13845.0928,-3502.6756L13845.1862,-3502.763L13845.2636,-3502.8402L13845.3268,-3502.9054L13845.3571,-3502.9448L13845.4149,-3503.0169L13845.4674,-3503.0824L13845.5923,-3503.2351L13845.6709,-3503.3293L13845.7255,-3503.3854L13845.7631,-3503.4194L13845.8169,-3503.4642L13845.9172,-3503.54"/>
<path content="1,JR東海バス（株）,レディースドリームなごや号,1.0,1.0,1.0," xlink:title="1" d="M13844.9707,-3502.579L13845.0231,-3502.6178L13845.0679,-3502.6551L13845.0928,-3502.6756L13845.1862,-3502.763L13845.2636,-3502.8402L13845.3268,-3502.9054L13845.3571,-3502.9448L13845.4149,-3503.0169L13845.4674,-3503.0824L13845.5923,-3503.2351L13845.6709,-3503.3293L13845.7255,-3503.3854L13845.7631,-3503.4194L13845.8169,-3503.4642L13845.9172,-3503.54"/>
<path content="1,JR東海バス（株）,新宿ドリーム三河・なごや号,1.0,1.0,1.0," xlink:title="1" d="M13844.9707,-3502.579L13845.0231,-3502.6178L13845.0679,-3502.6551L13845.0928,-3502.6756L13845.1862,-3502.763L13845.2636,-3502.8402L13845.3268,-3502.9054L13845.3571,-3502.9448L13845.4149,-3503.0169L13845.4674,-3503.0824L13845.5923,-3503.2351L13845.6709,-3503.3293L13845.7255,-3503.3854L13845.7631,-3503.4194L13845.8169,-3503.4642L13845.9172,-3503.54"/>
<path content="1,JR東海バス（株）,新宿ライナー三河・なごや号,1.0,1.0,1.0," xlink:title="1" d="M13844.9707,-3502.579L13845.0231,-3502.6178L13845.0679,-3502.6551L13845.0928,-3502.6756L13845.1862,-3502.763L13845.2636,-3502.8402L13845.3268,-3502.9054L13845.3571,-3502.9448L13845.4149,-3503.0169L13845.4674,-3503.0824L13845.5923,-3503.2351L13845.6709,-3503.3293L13845.7255,-3503.3854L13845.7631,-3503.4194L13845.8169,-3503.4642L13845.9172,-3503.54"/>
<path content="1,JR東海バス（株）,東名ハイウェイバス_01_on,37.0,37.0,37.0," xlink:title="1" d="M13844.9707,-3502.579L13845.0231,-3502.6178L13845.0679,-3502.6551L13845.0928,-3502.6756L13845.1862,-3502.763L13845.2636,-3502.8402L13845.3268,-3502.9054L13845.3571,-3502.9448L13845.4149,-3503.0169L13845.4674,-3503.0824L13845.5923,-3503.2351L13845.6709,-3503.3293L13845.7255,-3503.3854L13845.7631,-3503.4194L13845.8169,-3503.4642L13845.9172,-3503.54"/>
<path content="1,JR東海バス（株）,東名ハイウェイバス_03_on,37.0,37.0,37.0," xlink:title="1" d="M13844.9707,-3502.579L13845.0231,-3502.6178L13845.0679,-3502.6551L13845.0928,-3502.6756L13845.1862,-3502.763L13845.2636,-3502.8402L13845.3268,-3502.9054L13845.3571,-3502.9448L13845.4149,-3503.0169L13845.4674,-3503.0824L13845.5923,-3503.2351L13845.6709,-3503.3293L13845.7255,-3503.3854L13845.7631,-3503.4194L13845.8169,-3503.4642L13845.9172,-3503.54"/>
<path content="1,JR東海バス（株）,渋谷・新宿ライナー浜松号,4.0,4.0,4.0," xlink:title="1" d="M13845.9172,-3503.54L13845.8169,-3503.4642L13845.7631,-3503.4194L13845.7255,-3503.3854L13845.6709,-3503.3293L13845.5923,-3503.2351L13845.4674,-3503.0824L13845.4149,-3503.0169L13845.3571,-3502.9448L13845.3268,-3502.9054L13845.2636,-3502.8402L13845.1862,-3502.763L13845.0928,-3502.6756L13845.0679,-3502.6551L13845.0231,-3502.6178L13844.9707,-3502.5789"/>
<path content="1,JR東海バス（株）,渋谷・新宿ライナー静岡号,8.0,8.0,8.0," xlink:title="1" d="M13844.9707,-3502.579L13845.0231,-3502.6178L13845.0679,-3502.6551L13845.0928,-3502.6756L13845.1862,-3502.763L13845.2636,-3502.8402L13845.3268,-3502.9054L13845.3571,-3502.9448L13845.4149,-3503.0169L13845.4674,-3503.0824L13845.5923,-3503.2351L13845.6709,-3503.3293L13845.7255,-3503.3854L13845.7631,-3503.4194L13845.8169,-3503.4642L13845.9172,-3503.54"/>
<path content="1,JR東海バス（株）,青春ドリームなごや号,1.0,1.0,1.0," xlink:title="1" d="M13844.9707,-3502.579L13845.0231,-3502.6178L13845.0679,-3502.6551L13845.0928,-3502.6756L13845.1862,-3502.763L13845.2636,-3502.8402L13845.3268,-3502.9054L13845.3571,-3502.9448L13845.4149,-3503.0169L13845.4674,-3503.0824L13845.5923,-3503.2351L13845.6709,-3503.3293L13845.7255,-3503.3854L13845.7631,-3503.4194L13845.8169,-3503.4642L13845.9172,-3503.54"/>
<path content="1,しずてつジャストライン（株）,北街道線_216,26.5,25.0,25.0," xlink:title="1" d="M13846.0693,-3502.8542L13845.9119,-3502.8615L13845.8914,-3502.8626L13845.7757,-3502.862L13845.708,-3502.8488L13845.6833,-3502.844L13845.5868,-3502.8136L13845.5471,-3502.8012L13845.48,-3502.7804L13845.4299,-3502.7646L13845.337,-3502.7285L13845.3048,-3502.7167L13845.2719,-3502.7044L13845.1902,-3502.6825L13845.1282,-3502.6503L13845.1091,-3502.6469L13845.0635,-3502.6802L13845.0146,-3502.6615L13844.9934,-3502.648L13844.9707,-3502.6302"/>
<path content="1,しずてつジャストライン（株）,新静岡新宿線,15.0,15.0,15.0," xlink:title="1" d="M13846.0693,-3502.8542L13845.9119,-3502.8615L13845.8914,-3502.8626L13845.7757,-3502.862L13845.708,-3502.8488L13845.6833,-3502.844L13845.5868,-3502.8136L13845.5471,-3502.8012L13845.48,-3502.7804L13845.4299,-3502.7646L13845.337,-3502.7285L13845.3048,-3502.7167L13845.2719,-3502.7044L13845.1902,-3502.6825L13845.1282,-3502.6503L13845.1091,-3502.6469L13845.0635,-3502.6802L13845.0146,-3502.6615L13844.9934,-3502.648L13844.9707,-3502.6302"/>
<path content="1,しずてつジャストライン（株）,梅ヶ谷市立病院線_213_01_on,22.0,19.0,19.0," xlink:title="1" d="M13845.0121,-3503.54L13845.0125,-3503.539L13845.0324,-3503.4934L13845.0454,-3503.4615L13845.0522,-3503.4466L13845.0679,-3503.4077L13845.0782,-3503.3767L13845.0885,-3503.3385L13845.0926,-3503.3013L13845.0933,-3503.2901L13845.0954,-3503.2794L13845.1022,-3503.2467L13845.1124,-3503.2236L13845.1272,-3503.2082L13845.1734,-3503.1582L13845.188,-3503.1446L13845.2247,-3503.1042L13845.2699,-3503.0496L13845.2877,-3503.0316L13845.3096,-3503.0135L13845.3145,-3503.0088L13845.3597,-3502.9831L13845.3951,-3502.9577L13845.4342,-3502.9319L13845.4588,-3502.9155L13845.4689,-3502.9063L13845.5026,-3502.8626L13845.5471,-3502.8012L13845.5868,-3502.8136L13845.6833,-3502.844L13845.708,-3502.8488L13845.7757,-3502.862L13845.8914,-3502.8626L13845.9119,-3502.8615L13846.0693,-3502.8542"/>
<path content="1,しずてつジャストライン（株）,梅ヶ谷市立病院線_213_02_on,6.0,4.0,4.0," xlink:title="1" d="M13845.0121,-3503.54L13845.0125,-3503.539L13845.0324,-3503.4934L13845.0454,-3503.4615L13845.0522,-3503.4466L13845.0679,-3503.4077L13845.0782,-3503.3767L13845.0885,-3503.3385L13845.0926,-3503.3013L13845.0933,-3503.2901L13845.0954,-3503.2794L13845.1022,-3503.2467L13845.1124,-3503.2236L13845.1272,-3503.2082L13845.1734,-3503.1582L13845.188,-3503.1446L13845.2247,-3503.1042L13845.2699,-3503.0496L13845.2877,-3503.0316L13845.3096,-3503.0135L13845.3145,-3503.0088L13845.3597,-3502.9831L13845.3951,-3502.9577L13845.4342,-3502.9319L13845.4588,-3502.9155L13845.4689,-3502.9063L13845.5026,-3502.8626L13845.5471,-3502.8012L13845.5868,-3502.8136L13845.6833,-3502.844L13845.708,-3502.8488L13845.7757,-3502.862L13845.8914,-3502.8626L13845.9119,-3502.8615L13846.0693,-3502.8542"/>
<path content="1,しずてつジャストライン（株）,蜂ヶ谷市立病院線_214,21.0,15.0,15.0," xlink:title="1" d="M13845.704,-3503.54L13845.7202,-3503.5215L13845.7631,-3503.4709L13845.7729,-3503.4621L13845.8063,-3503.418L13845.8079,-3503.4158L13845.8099,-3503.4132L13845.8154,-3503.4057L13845.8616,-3503.3427L13845.9728,-3503.2135L13846.0693,-3503.0883"/>
<path content="1,しずてつジャストライン（株）,静岡成田空港線,1.0,1.0,1.0," xlink:title="1" d="M13846.0693,-3502.8542L13845.9119,-3502.8615L13845.8914,-3502.8626L13845.7757,-3502.862L13845.708,-3502.8488L13845.6833,-3502.844L13845.5868,-3502.8136L13845.5471,-3502.8012L13845.5663,-3502.7747L13845.6008,-3502.7252L13845.6463,-3502.6615L13845.6573,-3502.6475L13845.6806,-3502.6148L13845.6915,-3502.6041L13845.7175,-3502.5855L13845.7418,-3502.5609L13845.753,-3502.5408L13845.7045,-3502.514L13845.6258,-3502.4713L13845.5706,-3502.4414"/>
<path content="1,しずてつジャストライン（株）,静岡横浜線,3.0,3.0,3.0," xlink:title="1" d="M13846.0693,-3502.8542L13845.9119,-3502.8615L13845.8914,-3502.8626L13845.7757,-3502.862L13845.708,-3502.8488L13845.6833,-3502.844L13845.5868,-3502.8136L13845.5471,-3502.8012L13845.48,-3502.7804L13845.4299,-3502.7646L13845.337,-3502.7285L13845.3048,-3502.7167L13845.2719,-3502.7044L13845.1902,-3502.6825L13845.1282,-3502.6503L13845.1091,-3502.6469L13845.0635,-3502.6802L13845.0146,-3502.6615L13844.9934,-3502.648L13844.9707,-3502.6302"/>
<path content="1,エムケイ（株）,MKナイトシャトル　京都・大阪⇔東京便,1.0,1.0,1.0," xlink:title="1" d="M13845.9172,-3503.54L13845.8169,-3503.4642L13845.7631,-3503.4194L13845.7255,-3503.3854L13845.6709,-3503.3293L13845.5923,-3503.2351L13845.4674,-3503.0824L13845.4149,-3503.0169L13845.3571,-3502.9448L13845.3268,-3502.9054L13845.2636,-3502.8402L13845.1862,-3502.763L13845.0928,-3502.6756L13845.0679,-3502.6551L13845.0231,-3502.6178L13844.9707,-3502.5789"/>
<path content="1,エムケイ（株）,MKナイトシャトル　名古屋・豊田⇔東京便,1.0,1.0,1.0," xlink:title="1" d="M13845.9172,-3503.54L13845.8169,-3503.4642L13845.7631,-3503.4194L13845.7255,-3503.3854L13845.6709,-3503.3293L13845.5923,-3503.2351L13845.4674,-3503.0824L13845.4149,-3503.0169L13845.3571,-3502.9448L13845.3268,-3502.9054L13845.2636,-3502.8402L13845.1862,-3502.763L13845.0928,-3502.6756L13845.0679,-3502.6551L13845.0231,-3502.6178L13844.9707,-3502.5789"/>
<path content="1,一畑バス（株）,東京～松江・出雲線,1.0,1.0,1.0," xlink:title="1" d="M13844.9707,-3502.5789L13845.0231,-3502.6178L13845.0679,-3502.6551L13845.0928,-3502.6756L13845.1862,-3502.763L13845.2636,-3502.8402L13845.3268,-3502.9054L13845.3571,-3502.9448L13845.4149,-3503.0169L13845.4674,-3503.0824L13845.5923,-3503.2351L13845.6709,-3503.3293L13845.7255,-3503.3854L13845.7631,-3503.4194L13845.8169,-3503.4642L13845.9172,-3503.54"/>
<path content="1,三重交通（株）,伊賀・四日市～横浜・品川,1.0,1.0,1.0," xlink:title="1" d="M13845.9172,-3503.54L13845.8169,-3503.4642L13845.7631,-3503.4194L13845.7255,-3503.3854L13845.6709,-3503.3293L13845.5923,-3503.2351L13845.4674,-3503.0824L13845.4149,-3503.0169L13845.3571,-3502.9448L13845.3268,-3502.9054L13845.2636,-3502.8402L13845.1862,-3502.763L13845.0928,-3502.6756L13845.0679,-3502.6551L13845.0231,-3502.6178L13844.9707,-3502.5789"/>
<path content="1,三重交通（株）,勝浦・南紀～横浜・東京・大宮,1.0,1.0,1.0," xlink:title="1" d="M13845.9172,-3503.54L13845.8169,-3503.4642L13845.7631,-3503.4194L13845.7255,-3503.3854L13845.6709,-3503.3293L13845.5923,-3503.2351L13845.4674,-3503.0824L13845.4149,-3503.0169L13845.3571,-3502.9448L13845.3268,-3502.9054L13845.2636,-3502.8402L13845.1862,-3502.763L13845.0928,-3502.6756L13845.0679,-3502.6551L13845.0231,-3502.6178L13844.9707,-3502.5789"/>
<path content="1,両備ホールディングス（株）,ままかりライナー　倉敷・岡山～東京駅八重洲通り線,1.0,1.0,1.0," xlink:title="1" d="M13844.9707,-3502.5789L13845.0231,-3502.6178L13845.0679,-3502.6551L13845.0928,-3502.6756L13845.1862,-3502.763L13845.2636,-3502.8402L13845.3268,-3502.9054L13845.3571,-3502.9448L13845.4149,-3503.0169L13845.4674,-3503.0824L13845.5923,-3503.2351L13845.6709,-3503.3293L13845.7255,-3503.3854L13845.7631,-3503.4194L13845.8169,-3503.4642L13845.9172,-3503.54"/>
<path content="1,両備ホールディングス（株）,ルブラン　倉敷・岡山・津山～東京線,1.0,1.0,1.0," xlink:title="1" d="M13844.9707,-3502.5789L13845.0231,-3502.6178L13845.0679,-3502.6551L13845.0928,-3502.6756L13845.1862,-3502.763L13845.2636,-3502.8402L13845.3268,-3502.9054L13845.3571,-3502.9448L13845.4149,-3503.0169L13845.4674,-3503.0824L13845.5923,-3503.2351L13845.6709,-3503.3293L13845.7255,-3503.3854L13845.7631,-3503.4194L13845.8169,-3503.4642L13845.9172,-3503.54"/>
<path content="1,中国JRバス（株）,広島～東京　ニューブリーズ号,2.0,2.0,2.0," xlink:title="1" d="M13844.9707,-3502.5789L13845.0231,-3502.6178L13845.0679,-3502.6551L13845.0928,-3502.6756L13845.1862,-3502.763L13845.2636,-3502.8402L13845.3268,-3502.9054L13845.3571,-3502.9448L13845.4149,-3503.0169L13845.4674,-3503.0824L13845.5923,-3503.2351L13845.6709,-3503.3293L13845.7255,-3503.3854L13845.7631,-3503.4194L13845.8169,-3503.4642L13845.9172,-3503.54"/>
<path content="1,京成バス（株）,ファンタジアなごや号,0.5,0.5,0.5," xlink:title="1" d="M13844.9707,-3502.5789L13844.9895,-3502.5928L13845.0231,-3502.6178L13845.0312,-3502.6245L13845.0312,-3502.6245L13845.0679,-3502.6551L13845.0783,-3502.6636L13845.0783,-3502.6636L13845.082,-3502.6667L13845.0928,-3502.6756L13845.1862,-3502.763L13845.1872,-3502.7639L13845.2636,-3502.8402L13845.3215,-3502.9L13845.3215,-3502.9L13845.3268,-3502.9054L13845.3288,-3502.908L13845.3571,-3502.9448L13845.4149,-3503.0169L13845.4674,-3503.0824L13845.5923,-3503.2351L13845.6328,-3503.2836L13845.6709,-3503.3293L13845.7255,-3503.3854L13845.7285,-3503.3881L13845.7631,-3503.4194L13845.802,-3503.4518L13845.8169,-3503.4642L13845.9172,-3503.54"/>
<path content="1,京成バス（株）,奈良～上野・東京ディズニーリゾート,0.5,0.5,0.5," xlink:title="1" d="M13844.9707,-3502.5789L13844.9895,-3502.5928L13845.0231,-3502.6178L13845.0312,-3502.6245L13845.0312,-3502.6245L13845.0679,-3502.6551L13845.0783,-3502.6636L13845.0783,-3502.6636L13845.082,-3502.6667L13845.0928,-3502.6756L13845.1862,-3502.763L13845.1872,-3502.7639L13845.2636,-3502.8402L13845.3215,-3502.9L13845.3215,-3502.9L13845.3268,-3502.9054L13845.3288,-3502.908L13845.3571,-3502.9448L13845.4149,-3503.0169L13845.4674,-3503.0824L13845.5923,-3503.2351L13845.6328,-3503.2836L13845.6709,-3503.3293L13845.7255,-3503.3854L13845.7285,-3503.3881L13845.7631,-3503.4194L13845.802,-3503.4518L13845.8169,-3503.4642L13845.9172,-3503.54"/>
<path content="1,京成バス（株）,神戸・大阪～東京ディズニーリゾート・海浜幕張・千葉中央駅,0.5,0.5,0.5," xlink:title="1" d="M13844.9707,-3502.5789L13844.9895,-3502.5928L13845.0231,-3502.6178L13845.0312,-3502.6245L13845.0312,-3502.6245L13845.0679,-3502.6551L13845.0783,-3502.6636L13845.0783,-3502.6636L13845.082,-3502.6667L13845.0928,-3502.6756L13845.1862,-3502.763L13845.1872,-3502.7639L13845.2636,-3502.8402L13845.3215,-3502.9L13845.3215,-3502.9L13845.3268,-3502.9054L13845.3288,-3502.908L13845.3571,-3502.9448L13845.4149,-3503.0169L13845.4674,-3503.0824L13845.5923,-3503.2351L13845.6328,-3503.2836L13845.6709,-3503.3293L13845.7255,-3503.3854L13845.7285,-3503.3881L13845.7631,-3503.4194L13845.802,-3503.4518L13845.8169,-3503.4642L13845.9172,-3503.54"/>
<path content="1,京浜急行バス（株）,エディ号,2.0,2.0,2.0," xlink:title="1" d="M13845.9172,-3503.54L13845.8169,-3503.4642L13845.802,-3503.4518L13845.7631,-3503.4194L13845.7285,-3503.3881L13845.7255,-3503.3854L13845.6709,-3503.3293L13845.6328,-3503.2836L13845.5923,-3503.2351L13845.4674,-3503.0824L13845.4149,-3503.0169L13845.3571,-3502.9448L13845.3288,-3502.908L13845.3268,-3502.9054L13845.3215,-3502.9L13845.3215,-3502.9L13845.2636,-3502.8402L13845.1872,-3502.7639L13845.1862,-3502.763L13845.0928,-3502.6756L13845.082,-3502.6667L13845.0783,-3502.6636L13845.0783,-3502.6636L13845.0679,-3502.6551L13845.0312,-3502.6245L13845.0312,-3502.6245L13845.0231,-3502.6178L13844.9895,-3502.5928L13844.9707,-3502.5789"/>
<path content="1,京浜急行バス（株）,キャメル号,1.0,1.0,1.0," xlink:title="1" d="M13845.9172,-3503.54L13845.8169,-3503.4642L13845.802,-3503.4518L13845.7631,-3503.4194L13845.7285,-3503.3881L13845.7255,-3503.3854L13845.6709,-3503.3293L13845.6328,-3503.2836L13845.5923,-3503.2351L13845.4674,-3503.0824L13845.4149,-3503.0169L13845.3571,-3502.9448L13845.3288,-3502.908L13845.3268,-3502.9054L13845.3215,-3502.9L13845.3215,-3502.9L13845.2636,-3502.8402L13845.1872,-3502.7639L13845.1862,-3502.763L13845.0928,-3502.6756L13845.082,-3502.6667L13845.0783,-3502.6636L13845.0783,-3502.6636L13845.0679,-3502.6551L13845.0312,-3502.6245L13845.0312,-3502.6245L13845.0231,-3502.6178L13844.9895,-3502.5928L13844.9707,-3502.5789"/>
<path content="1,京浜急行バス（株）,シルフィード号,1.0,1.0,1.0," xlink:title="1" d="M13845.9172,-3503.54L13845.8169,-3503.4642L13845.802,-3503.4518L13845.7631,-3503.4194L13845.7285,-3503.3881L13845.7255,-3503.3854L13845.6709,-3503.3293L13845.6328,-3503.2836L13845.5923,-3503.2351L13845.4674,-3503.0824L13845.4149,-3503.0169L13845.3571,-3502.9448L13845.3288,-3502.908L13845.3268,-3502.9054L13845.3215,-3502.9L13845.3215,-3502.9L13845.2636,-3502.8402L13845.1872,-3502.7639L13845.1862,-3502.763L13845.0928,-3502.6756L13845.082,-3502.6667L13845.0783,-3502.6636L13845.0783,-3502.6636L13845.0679,-3502.6551L13845.0312,-3502.6245L13845.0312,-3502.6245L13845.0231,-3502.6178L13844.9895,-3502.5928L13844.9707,-3502.5789"/>
<path content="1,京浜急行バス（株）,パイレーツ号,1.0,1.0,1.0," xlink:title="1" d="M13844.9707,-3502.5789L13844.9895,-3502.5928L13845.0231,-3502.6178L13845.0312,-3502.6245L13845.0312,-3502.6245L13845.0679,-3502.6551L13845.0783,-3502.6636L13845.0783,-3502.6636L13845.082,-3502.6667L13845.0928,-3502.6756L13845.1862,-3502.763L13845.1872,-3502.7639L13845.2636,-3502.8402L13845.3215,-3502.9L13845.3215,-3502.9L13845.3268,-3502.9054L13845.3288,-3502.908L13845.3571,-3502.9448L13845.4149,-3503.0169L13845.4674,-3503.0824L13845.5923,-3503.2351L13845.6328,-3503.2836L13845.6709,-3503.3293L13845.7255,-3503.3854L13845.7285,-3503.3881L13845.7631,-3503.4194L13845.802,-3503.4518L13845.8169,-3503.4642L13845.9172,-3503.54"/>
<path content="1,京浜急行バス（株）,ルプラン号,1.0,1.0,1.0," xlink:title="1" d="M13844.9707,-3502.5789L13844.9895,-3502.5928L13845.0231,-3502.6178L13845.0312,-3502.6245L13845.0312,-3502.6245L13845.0679,-3502.6551L13845.0783,-3502.6636L13845.0783,-3502.6636L13845.082,-3502.6667L13845.0928,-3502.6756L13845.1862,-3502.763L13845.1872,-3502.7639L13845.2636,-3502.8402L13845.3215,-3502.9L13845.3215,-3502.9L13845.3268,-3502.9054L13845.3288,-3502.908L13845.3571,-3502.9448L13845.4149,-3503.0169L13845.4674,-3503.0824L13845.5923,-3503.2351L13845.6328,-3503.2836L13845.6709,-3503.3293L13845.7255,-3503.3854L13845.7285,-3503.3881L13845.7631,-3503.4194L13845.802,-3503.4518L13845.8169,-3503.4642L13845.9172,-3503.54"/>
<path content="1,京王バス南（株）,新宿・渋谷～浜松線,1.0,1.0,1.0," xlink:title="1" d="M13844.9707,-3502.5789L13844.9895,-3502.5928L13845.0231,-3502.6178L13845.0312,-3502.6245L13845.0312,-3502.6245L13845.0679,-3502.6551L13845.0783,-3502.6636L13845.0783,-3502.6636L13845.082,-3502.6667L13845.0928,-3502.6756L13845.1862,-3502.763L13845.1872,-3502.7639L13845.2636,-3502.8402L13845.3215,-3502.9L13845.3215,-3502.9L13845.3268,-3502.9054L13845.3288,-3502.908L13845.3571,-3502.9448L13845.4149,-3503.0169L13845.4674,-3503.0824L13845.5923,-3503.2351L13845.6328,-3503.2836L13845.6709,-3503.3293L13845.7255,-3503.3854L13845.7285,-3503.3881L13845.7631,-3503.4194L13845.802,-3503.4518L13845.8169,-3503.4642L13845.9172,-3503.54"/>
<path content="1,京王バス南（株）,新宿・渋谷～神戸姫路線,1.0,1.0,1.0," xlink:title="1" d="M13844.9707,-3502.5789L13844.9895,-3502.5928L13845.0231,-3502.6178L13845.0312,-3502.6245L13845.0312,-3502.6245L13845.0679,-3502.6551L13845.0783,-3502.6636L13845.0783,-3502.6636L13845.082,-3502.6667L13845.0928,-3502.6756L13845.1862,-3502.763L13845.1872,-3502.7639L13845.2636,-3502.8402L13845.3215,-3502.9L13845.3215,-3502.9L13845.3268,-3502.9054L13845.3288,-3502.908L13845.3571,-3502.9448L13845.4149,-3503.0169L13845.4674,-3503.0824L13845.5923,-3503.2351L13845.6328,-3503.2836L13845.6709,-3503.3293L13845.7255,-3503.3854L13845.7285,-3503.3881L13845.7631,-3503.4194L13845.802,-3503.4518L13845.8169,-3503.4642L13845.9172,-3503.54"/>
<path content="1,京王バス南（株）,新宿・渋谷～静岡線,3.0,3.0,3.0," xlink:title="1" d="M13844.9707,-3502.5789L13844.9895,-3502.5928L13845.0231,-3502.6178L13845.0312,-3502.6245L13845.0312,-3502.6245L13845.0679,-3502.6551L13845.0783,-3502.6636L13845.0783,-3502.6636L13845.082,-3502.6667L13845.0928,-3502.6756L13845.1862,-3502.763L13845.1872,-3502.7639L13845.2636,-3502.8402L13845.3215,-3502.9L13845.3215,-3502.9L13845.3268,-3502.9054L13845.3288,-3502.908L13845.3571,-3502.9448L13845.4149,-3503.0169L13845.4674,-3503.0824L13845.5923,-3503.2351L13845.6328,-3503.2836L13845.6709,-3503.3293L13845.7255,-3503.3854L13845.7285,-3503.3881L13845.7631,-3503.4194L13845.802,-3503.4518L13845.8169,-3503.4642L13845.9172,-3503.54"/>
<path content="1,京福バス（株）,東京線,3.0,3.0,3.0," xlink:title="1" d="M13844.9707,-3502.5789L13845.0231,-3502.6178L13845.0679,-3502.6551L13845.0928,-3502.6756L13845.1862,-3502.763L13845.2636,-3502.8402L13845.3268,-3502.9054L13845.3571,-3502.9448L13845.4149,-3503.0169L13845.4674,-3503.0824L13845.5923,-3503.2351L13845.6709,-3503.3293L13845.7255,-3503.3854L13845.7631,-3503.4194L13845.8169,-3503.4642L13845.9172,-3503.54"/>
<path content="1,京都交通（株）,舞鶴・綾部・福知山～東京,1.0,1.0,1.0," xlink:title="1" d="M13844.9707,-3502.5789L13845.0231,-3502.6178L13845.0679,-3502.6551L13845.0928,-3502.6756L13845.1862,-3502.763L13845.2636,-3502.8402L13845.3268,-3502.9054L13845.3571,-3502.9448L13845.4149,-3503.0169L13845.4674,-3503.0824L13845.5923,-3503.2351L13845.6709,-3503.3293L13845.7255,-3503.3854L13845.7631,-3503.4194L13845.8169,-3503.4642L13845.9172,-3503.54"/>
<path content="1,京阪バス（株）,京都・大津⇔上野・TDR・千葉,1.0,1.0,1.0," xlink:title="1" d="M13845.9172,-3503.54L13845.8169,-3503.4642L13845.7631,-3503.4194L13845.7255,-3503.3854L13845.6709,-3503.3293L13845.5923,-3503.2351L13845.4674,-3503.0824L13845.4149,-3503.0169L13845.3571,-3502.9448L13845.3268,-3502.9054L13845.2636,-3502.8402L13845.1862,-3502.763L13845.0928,-3502.6756L13845.0679,-3502.6551L13845.0231,-3502.6178L13844.9707,-3502.5789"/>
<path content="1,京阪バス（株）,枚方・京都⇔渋谷・新宿,1.0,1.0,1.0," xlink:title="1" d="M13845.9172,-3503.54L13845.8169,-3503.4642L13845.7631,-3503.4194L13845.7255,-3503.3854L13845.6709,-3503.3293L13845.5923,-3503.2351L13845.4674,-3503.0824L13845.4149,-3503.0169L13845.3571,-3502.9448L13845.3268,-3502.9054L13845.2636,-3502.8402L13845.1862,-3502.763L13845.0928,-3502.6756L13845.0679,-3502.6551L13845.0231,-3502.6178L13844.9707,-3502.5789"/>
<path content="1,北陸鉄道（株）,高速バス　金沢⇔横浜,1.0,1.0,1.0," xlink:title="1" d="M13844.9707,-3502.5789L13845.0231,-3502.6178L13845.0679,-3502.6551L13845.0928,-3502.6756L13845.1862,-3502.763L13845.2636,-3502.8402L13845.3268,-3502.9054L13845.3571,-3502.9448L13845.4149,-3503.0169L13845.4674,-3503.0824L13845.5923,-3503.2351L13845.6709,-3503.3293L13845.7255,-3503.3854L13845.7631,-3503.4194L13845.8169,-3503.4642L13845.9172,-3503.54"/>
<path content="1,千葉中央バス,京都～上野・東京ディズニーリゾート,1.0,1.0,1.0," xlink:title="1" d="M13844.9707,-3502.5789L13844.9895,-3502.5928L13845.0231,-3502.6178L13845.0312,-3502.6245L13845.0312,-3502.6245L13845.0679,-3502.6551L13845.0783,-3502.6636L13845.0783,-3502.6636L13845.082,-3502.6667L13845.0928,-3502.6756L13845.1862,-3502.763L13845.1872,-3502.7639L13845.2636,-3502.8402L13845.3215,-3502.9L13845.3215,-3502.9L13845.3268,-3502.9054L13845.3288,-3502.908L13845.3571,-3502.9448L13845.4149,-3503.0169L13845.4674,-3503.0824L13845.5923,-3503.2351L13845.6328,-3503.2836L13845.6709,-3503.3293L13845.7255,-3503.3854L13845.7285,-3503.3881L13845.7631,-3503.4194L13845.802,-3503.4518L13845.8169,-3503.4642L13845.9172,-3503.54"/>
<path content="1,千葉交通,大阪なんば・京都駅～成田・銚子線,1.0,1.0,1.0," xlink:title="1" d="M13844.9707,-3502.5789L13844.9895,-3502.5928L13845.0231,-3502.6178L13845.0312,-3502.6245L13845.0312,-3502.6245L13845.0679,-3502.6551L13845.0783,-3502.6636L13845.0783,-3502.6636L13845.082,-3502.6667L13845.0928,-3502.6756L13845.1862,-3502.763L13845.1872,-3502.7639L13845.2636,-3502.8402L13845.3215,-3502.9L13845.3215,-3502.9L13845.3268,-3502.9054L13845.3288,-3502.908L13845.3571,-3502.9448L13845.4149,-3503.0169L13845.4674,-3503.0824L13845.5923,-3503.2351L13845.6328,-3503.2836L13845.6709,-3503.3293L13845.7255,-3503.3854L13845.7285,-3503.3881L13845.7631,-3503.4194L13845.802,-3503.4518L13845.8169,-3503.4642L13845.9172,-3503.54"/>
<path content="1,南海バス（株）,和歌山・和泉中央・堺東⇔新宿・東京,1.0,1.0,1.0," xlink:title="1" d="M13845.9172,-3503.54L13845.8169,-3503.4642L13845.7631,-3503.4194L13845.7255,-3503.3854L13845.6709,-3503.3293L13845.5923,-3503.2351L13845.4674,-3503.0824L13845.4149,-3503.0169L13845.3571,-3502.9448L13845.3268,-3502.9054L13845.2636,-3502.8402L13845.1862,-3502.763L13845.0928,-3502.6756L13845.0679,-3502.6551L13845.0231,-3502.6178L13844.9707,-3502.5789"/>
<path content="1,南海バス（株）,堺・大阪（なんば）⇔新宿・東京,1.0,1.0,1.0," xlink:title="1" d="M13845.9172,-3503.54L13845.8169,-3503.4642L13845.7631,-3503.4194L13845.7255,-3503.3854L13845.6709,-3503.3293L13845.5923,-3503.2351L13845.4674,-3503.0824L13845.4149,-3503.0169L13845.3571,-3502.9448L13845.3268,-3502.9054L13845.2636,-3502.8402L13845.1862,-3502.763L13845.0928,-3502.6756L13845.0679,-3502.6551L13845.0231,-3502.6178L13844.9707,-3502.5789"/>
<path content="1,南海バス（株）,堺・大阪（なんば）・京都⇔小田原・藤沢・鎌倉,1.0,1.0,1.0," xlink:title="1" d="M13844.9707,-3502.579L13845.0231,-3502.6178L13845.0679,-3502.6551L13845.0928,-3502.6756L13845.1862,-3502.763L13845.2636,-3502.8402L13845.3268,-3502.9054L13845.3571,-3502.9448L13845.4149,-3503.0169L13845.4674,-3503.0824L13845.5923,-3503.2351L13845.6709,-3503.3293L13845.7255,-3503.3854L13845.7631,-3503.4194L13845.8169,-3503.4642L13845.9172,-3503.54"/>
<path content="1,南海バス（株）,大阪（なんば）・京都⇔秋葉原・成田空港・銚子,1.0,1.0,1.0," xlink:title="1" d="M13845.9172,-3503.54L13845.8169,-3503.4642L13845.7631,-3503.4194L13845.7255,-3503.3854L13845.6709,-3503.3293L13845.5923,-3503.2351L13845.4674,-3503.0824L13845.4149,-3503.0169L13845.3571,-3502.9448L13845.3268,-3502.9054L13845.2636,-3502.8402L13845.1862,-3502.763L13845.0928,-3502.6756L13845.0679,-3502.6551L13845.0231,-3502.6178L13844.9707,-3502.5789"/>
<path content="1,南海バス（株）,神戸・大阪（なんば）・京都⇔立川・昭島・玉川上水（東京）,1.0,1.0,1.0," xlink:title="1" d="M13845.9172,-3503.54L13845.8169,-3503.4642L13845.7631,-3503.4194L13845.7255,-3503.3854L13845.6709,-3503.3293L13845.5923,-3503.2351L13845.4674,-3503.0824L13845.4149,-3503.0169L13845.3571,-3502.9448L13845.3268,-3502.9054L13845.2636,-3502.8402L13845.1862,-3502.763L13845.0928,-3502.6756L13845.0679,-3502.6551L13845.0231,-3502.6178L13844.9707,-3502.5789"/>
<path content="1,名鉄バス（株）,名古屋～仙台,1.0,1.0,1.0," xlink:title="1" d="M13844.9707,-3502.579L13845.0231,-3502.6178L13845.0679,-3502.6551L13845.0928,-3502.6756L13845.1862,-3502.763L13845.2636,-3502.8402L13845.3268,-3502.9054L13845.3571,-3502.9448L13845.4149,-3503.0169L13845.4674,-3503.0824L13845.5923,-3503.2351L13845.6709,-3503.3293L13845.7255,-3503.3854L13845.7631,-3503.4194L13845.8169,-3503.4642L13845.9172,-3503.54"/>
<path content="1,名鉄バス（株）,名古屋～富士五湖,0.7,0.7,0.7," xlink:title="1" d="M13844.9707,-3502.579L13845.0231,-3502.6178L13845.0679,-3502.6551L13845.0928,-3502.6756L13845.1862,-3502.763L13845.2636,-3502.8402L13845.3268,-3502.9054L13845.3571,-3502.9448L13845.4149,-3503.0169L13845.4674,-3503.0824L13845.5923,-3503.2351L13845.6709,-3503.3293L13845.7255,-3503.3854L13845.7631,-3503.4194L13845.8169,-3503.4642L13845.9172,-3503.54"/>
<path content="1,和歌山バス（株）,サウスウエーブ号和歌山・堺⇔横浜・上野・東京ディズニーリゾート・海浜幕張,1.0,1.0,1.0," xlink:title="1" d="M13845.9172,-3503.54L13845.8169,-3503.4642L13845.7631,-3503.4194L13845.7255,-3503.3854L13845.6709,-3503.3293L13845.5923,-3503.2351L13845.4674,-3503.0824L13845.4149,-3503.0169L13845.3571,-3502.9448L13845.3268,-3502.9054L13845.2636,-3502.8402L13845.1862,-3502.763L13845.0928,-3502.6756L13845.0679,-3502.6551L13845.0231,-3502.6178L13844.9707,-3502.5789"/>
<path content="1,四国高速バス（株）,ハローブリッジ号　善通寺・坂出⇔横浜・新宿・八王子,1.0,1.0,1.0," xlink:title="1" d="M13845.9172,-3503.54L13845.8169,-3503.4642L13845.7631,-3503.4194L13845.7255,-3503.3854L13845.6709,-3503.3293L13845.5923,-3503.2351L13845.4674,-3503.0824L13845.4149,-3503.0169L13845.3571,-3502.9448L13845.3268,-3502.9054L13845.2636,-3502.8402L13845.1862,-3502.763L13845.0928,-3502.6756L13845.0679,-3502.6551L13845.0231,-3502.6178L13844.9707,-3502.5789"/>
<path content="1,土佐電気鉄道（株）,ブルーメッツ号　高知⇔東京線,1.0,1.0,1.0," xlink:title="1" d="M13845.9172,-3503.54L13845.8169,-3503.4642L13845.7631,-3503.4194L13845.7255,-3503.3854L13845.6709,-3503.3293L13845.5923,-3503.2351L13845.4674,-3503.0824L13845.4149,-3503.0169L13845.3571,-3502.9448L13845.3268,-3502.9054L13845.2636,-3502.8402L13845.1862,-3502.763L13845.0928,-3502.6756L13845.0679,-3502.6551L13845.0231,-3502.6178L13844.9707,-3502.5789"/>
<path content="1,奈良交通（株）,やまと号　五條-新宿線,1.0,1.0,1.0," xlink:title="1" d="M13844.9707,-3502.5789L13845.0231,-3502.6178L13845.0679,-3502.6551L13845.0928,-3502.6756L13845.1862,-3502.763L13845.2636,-3502.8402L13845.3268,-3502.9054L13845.3571,-3502.9448L13845.4149,-3503.0169L13845.4674,-3503.0824L13845.5923,-3503.2351L13845.6709,-3503.3293L13845.7255,-3503.3854L13845.7631,-3503.4194L13845.8169,-3503.4642L13845.9172,-3503.54"/>
<path content="1,奈良交通（株）,やまと号　奈良-新宿線,1.0,1.0,1.0," xlink:title="1" d="M13844.9707,-3502.5789L13845.0231,-3502.6178L13845.0679,-3502.6551L13845.0928,-3502.6756L13845.1862,-3502.763L13845.2636,-3502.8402L13845.3268,-3502.9054L13845.3571,-3502.9448L13845.4149,-3503.0169L13845.4674,-3503.0824L13845.5923,-3503.2351L13845.6709,-3503.3293L13845.7255,-3503.3854L13845.7631,-3503.4194L13845.8169,-3503.4642L13845.9172,-3503.54"/>
<path content="1,奈良交通（株）,やまと号　奈良-東京ディズニーリゾート・横浜線,1.0,1.0,1.0," xlink:title="1" d="M13844.9707,-3502.5789L13845.0231,-3502.6178L13845.0679,-3502.6551L13845.0928,-3502.6756L13845.1862,-3502.763L13845.2636,-3502.8402L13845.3268,-3502.9054L13845.3571,-3502.9448L13845.4149,-3503.0169L13845.4674,-3503.0824L13845.5923,-3503.2351L13845.6709,-3503.3293L13845.7255,-3503.3854L13845.7631,-3503.4194L13845.8169,-3503.4642L13845.9172,-3503.54"/>
<path content="1,宇和島自動車（株）,宇和島・松山⇔横浜・池袋・大宮,1.0,1.0,1.0," xlink:title="1" d="M13845.9172,-3503.54L13845.8169,-3503.4642L13845.7631,-3503.4194L13845.7255,-3503.3854L13845.6709,-3503.3293L13845.5923,-3503.2351L13845.4674,-3503.0824L13845.4149,-3503.0169L13845.3571,-3502.9448L13845.3268,-3502.9054L13845.2636,-3502.8402L13845.1862,-3502.763L13845.0928,-3502.6756L13845.0679,-3502.6551L13845.0231,-3502.6178L13844.9707,-3502.5789"/>
<path content="1,宮城交通（株）,仙台～名古屋線,1.0,1.0,1.0," xlink:title="1" d="M13844.9707,-3502.5789L13844.9895,-3502.5928L13845.0231,-3502.6178L13845.0312,-3502.6245L13845.0312,-3502.6245L13845.0679,-3502.6551L13845.0783,-3502.6636L13845.0783,-3502.6636L13845.082,-3502.6667L13845.0928,-3502.6756L13845.1862,-3502.763L13845.1872,-3502.7639L13845.2636,-3502.8402L13845.3215,-3502.9L13845.3215,-3502.9L13845.3268,-3502.9054L13845.3288,-3502.908L13845.3571,-3502.9448L13845.4149,-3503.0169L13845.4674,-3503.0824L13845.5923,-3503.2351L13845.6328,-3503.2836L13845.6709,-3503.3293L13845.7255,-3503.3854L13845.7285,-3503.3881L13845.7631,-3503.4194L13845.802,-3503.4518L13845.8169,-3503.4642L13845.9172,-3503.54"/>
<path content="1,宮城交通（株）,仙台～大阪線,1.0,1.0,1.0," xlink:title="1" d="M13845.9172,-3503.54L13845.8169,-3503.4642L13845.802,-3503.4518L13845.7631,-3503.4194L13845.7285,-3503.3881L13845.7255,-3503.3854L13845.6709,-3503.3293L13845.6328,-3503.2836L13845.5923,-3503.2351L13845.4674,-3503.0824L13845.4149,-3503.0169L13845.3571,-3502.9448L13845.3288,-3502.908L13845.3268,-3502.9054L13845.3215,-3502.9L13845.3215,-3502.9L13845.2636,-3502.8402L13845.1872,-3502.7639L13845.1862,-3502.763L13845.0928,-3502.6756L13845.082,-3502.6667L13845.0783,-3502.6636L13845.0783,-3502.6636L13845.0679,-3502.6551L13845.0312,-3502.6245L13845.0312,-3502.6245L13845.0231,-3502.6178L13844.9895,-3502.5928L13844.9707,-3502.5789"/>
<path content="1,富士急山梨バス（株）,FUJIYAMAライナー,1.0,1.0,1.0," xlink:title="1" d="M13844.9707,-3502.5789L13844.9895,-3502.5928L13845.0231,-3502.6178L13845.0312,-3502.6245L13845.0312,-3502.6245L13845.0679,-3502.6551L13845.0783,-3502.6636L13845.0783,-3502.6636L13845.082,-3502.6667L13845.0928,-3502.6756L13845.1862,-3502.763L13845.1872,-3502.7639L13845.2636,-3502.8402L13845.3215,-3502.9L13845.3215,-3502.9L13845.3268,-3502.9054L13845.3288,-3502.908L13845.3571,-3502.9448L13845.4149,-3503.0169L13845.4674,-3503.0824L13845.5923,-3503.2351L13845.6328,-3503.2836L13845.6709,-3503.3293L13845.7255,-3503.3854L13845.7285,-3503.3881L13845.7631,-3503.4194L13845.802,-3503.4518L13845.8169,-3503.4642L13845.9172,-3503.54"/>
<path content="1,富士急山梨バス（株）,河口湖～静岡線,0.2,0.4,0.3," xlink:title="1" d="M13844.9707,-3502.5789L13844.9895,-3502.5928L13845.0231,-3502.6178L13845.0312,-3502.6245L13845.0312,-3502.6245L13845.0679,-3502.6551L13845.0783,-3502.6636L13845.0783,-3502.6636L13845.082,-3502.6667L13845.0928,-3502.6756L13845.1862,-3502.763L13845.1872,-3502.7639L13845.2636,-3502.8402L13845.3215,-3502.9L13845.3215,-3502.9L13845.3268,-3502.9054L13845.3288,-3502.908L13845.3571,-3502.9448L13845.4149,-3503.0169L13845.4674,-3503.0824L13845.5923,-3503.2351L13845.6328,-3503.2836L13845.6709,-3503.3293L13845.7255,-3503.3854L13845.7285,-3503.3881L13845.7631,-3503.4194L13845.802,-3503.4518L13845.8169,-3503.4642L13845.9172,-3503.54"/>
<path content="1,富士急湘南バス（株）,小田原・新松田・沼津～大坂・京都線,1.0,1.0,1.0," xlink:title="1" d="M13845.9172,-3503.54L13845.8169,-3503.4642L13845.802,-3503.4518L13845.7631,-3503.4194L13845.7285,-3503.3881L13845.7255,-3503.3854L13845.6709,-3503.3293L13845.6328,-3503.2836L13845.5923,-3503.2351L13845.4674,-3503.0824L13845.4149,-3503.0169L13845.3571,-3502.9448L13845.3288,-3502.908L13845.3268,-3502.9054L13845.3215,-3502.9L13845.3215,-3502.9L13845.2636,-3502.8402L13845.1872,-3502.7639L13845.1862,-3502.763L13845.0928,-3502.6756L13845.082,-3502.6667L13845.0783,-3502.6636L13845.0783,-3502.6636L13845.0679,-3502.6551L13845.0312,-3502.6245L13845.0312,-3502.6245L13845.0231,-3502.6178L13844.9895,-3502.5928L13844.9707,-3502.5789"/>
<path content="1,富士急行（株）,FUJIYAMAライナー,1.0,1.0,1.0," xlink:title="1" d="M13844.9707,-3502.5789L13844.9895,-3502.5928L13845.0231,-3502.6178L13845.0312,-3502.6245L13845.0312,-3502.6245L13845.0679,-3502.6551L13845.0783,-3502.6636L13845.0783,-3502.6636L13845.082,-3502.6667L13845.0928,-3502.6756L13845.1862,-3502.763L13845.1872,-3502.7639L13845.2636,-3502.8402L13845.3215,-3502.9L13845.3215,-3502.9L13845.3268,-3502.9054L13845.3288,-3502.908L13845.3571,-3502.9448L13845.4149,-3503.0169L13845.4674,-3503.0824L13845.5923,-3503.2351L13845.6328,-3503.2836L13845.6709,-3503.3293L13845.7255,-3503.3854L13845.7285,-3503.3881L13845.7631,-3503.4194L13845.802,-3503.4518L13845.8169,-3503.4642L13845.9172,-3503.54"/>
<path content="1,富士急行（株）,小田原・新松田・沼津～大阪・京都線,1.0,1.0,1.0," xlink:title="1" d="M13845.9172,-3503.54L13845.8169,-3503.4642L13845.802,-3503.4518L13845.7631,-3503.4194L13845.7285,-3503.3881L13845.7255,-3503.3854L13845.6709,-3503.3293L13845.6328,-3503.2836L13845.5923,-3503.2351L13845.4674,-3503.0824L13845.4149,-3503.0169L13845.3571,-3502.9448L13845.3288,-3502.908L13845.3268,-3502.9054L13845.3215,-3502.9L13845.3215,-3502.9L13845.2636,-3502.8402L13845.1872,-3502.7639L13845.1862,-3502.763L13845.0928,-3502.6756L13845.082,-3502.6667L13845.0783,-3502.6636L13845.0783,-3502.6636L13845.0679,-3502.6551L13845.0312,-3502.6245L13845.0312,-3502.6245L13845.0231,-3502.6178L13844.9895,-3502.5928L13844.9707,-3502.5789"/>
<path content="1,富士急行（株）,河口湖～静岡線,0.2,0.4,0.3," xlink:title="1" d="M13844.9707,-3502.5789L13844.9895,-3502.5928L13845.0231,-3502.6178L13845.0312,-3502.6245L13845.0312,-3502.6245L13845.0679,-3502.6551L13845.0783,-3502.6636L13845.0783,-3502.6636L13845.082,-3502.6667L13845.0928,-3502.6756L13845.1862,-3502.763L13845.1872,-3502.7639L13845.2636,-3502.8402L13845.3215,-3502.9L13845.3215,-3502.9L13845.3268,-3502.9054L13845.3288,-3502.908L13845.3571,-3502.9448L13845.4149,-3503.0169L13845.4674,-3503.0824L13845.5923,-3503.2351L13845.6328,-3503.2836L13845.6709,-3503.3293L13845.7255,-3503.3854L13845.7285,-3503.3881L13845.7631,-3503.4194L13845.802,-3503.4518L13845.8169,-3503.4642L13845.9172,-3503.54"/>
<path content="1,富士急行（株）,河口湖～静岡線,0.2,0.4,0.3," xlink:title="1" d="M13844.9707,-3502.5762L13845.0268,-3502.6178L13845.0718,-3502.6552L13845.0839,-3502.6653L13845.0966,-3502.6758L13845.1901,-3502.7632L13845.2675,-3502.8402L13845.3304,-3502.9055L13845.361,-3502.9448L13845.4186,-3503.0169L13845.4712,-3503.0825L13845.596,-3503.2351L13845.6745,-3503.3293L13845.7291,-3503.3854L13845.7668,-3503.4193L13845.8206,-3503.4643L13845.9208,-3503.54"/>
<path content="1,富士急行（株）,静岡駅～富士宮口　富士山新五合目線,0.2,0.2,0.2," xlink:title="1" d="M13844.9707,-3502.5789L13844.9895,-3502.5928L13845.0231,-3502.6178L13845.0312,-3502.6245L13845.0312,-3502.6245L13845.0679,-3502.6551L13845.0783,-3502.6636L13845.0783,-3502.6636L13845.082,-3502.6667L13845.0928,-3502.6756L13845.1862,-3502.763L13845.1872,-3502.7639L13845.2636,-3502.8402L13845.3215,-3502.9L13845.3215,-3502.9L13845.3268,-3502.9054L13845.3288,-3502.908L13845.3571,-3502.9448L13845.4149,-3503.0169L13845.4674,-3503.0824L13845.5923,-3503.2351L13845.6328,-3503.2836L13845.6709,-3503.3293L13845.7255,-3503.3854L13845.7285,-3503.3881L13845.7631,-3503.4194L13845.802,-3503.4518L13845.8169,-3503.4642L13845.9172,-3503.54"/>
<path content="1,小田急シティバス（株）,しまんとエクスプレス号,0.1,0.1,0.1," xlink:title="1" d="M13844.9707,-3502.5789L13844.9895,-3502.5928L13845.0231,-3502.6178L13845.0312,-3502.6245L13845.0312,-3502.6245L13845.0679,-3502.6551L13845.0783,-3502.6636L13845.0783,-3502.6636L13845.082,-3502.6667L13845.0928,-3502.6756L13845.1862,-3502.763L13845.1872,-3502.7639L13845.2636,-3502.8402L13845.3215,-3502.9L13845.3215,-3502.9L13845.3268,-3502.9054L13845.3288,-3502.908L13845.3571,-3502.9448L13845.4149,-3503.0169L13845.4674,-3503.0824L13845.5923,-3503.2351L13845.6328,-3503.2836L13845.6709,-3503.3293L13845.7255,-3503.3854L13845.7285,-3503.3881L13845.7631,-3503.4194L13845.802,-3503.4518L13845.8169,-3503.4642L13845.9172,-3503.54"/>
<path content="1,小田急シティバス（株）,エトワールセト号,1.0,1.0,1.0," xlink:title="1" d="M13844.9707,-3502.5789L13844.9895,-3502.5928L13845.0231,-3502.6178L13845.0312,-3502.6245L13845.0312,-3502.6245L13845.0679,-3502.6551L13845.0783,-3502.6636L13845.0783,-3502.6636L13845.082,-3502.6667L13845.0928,-3502.6756L13845.1862,-3502.763L13845.1872,-3502.7639L13845.2636,-3502.8402L13845.3215,-3502.9L13845.3215,-3502.9L13845.3268,-3502.9054L13845.3288,-3502.908L13845.3571,-3502.9448L13845.4149,-3503.0169L13845.4674,-3503.0824L13845.5923,-3503.2351L13845.6328,-3503.2836L13845.6709,-3503.3293L13845.7255,-3503.3854L13845.7285,-3503.3881L13845.7631,-3503.4194L13845.802,-3503.4518L13845.8169,-3503.4642L13845.9172,-3503.54"/>
<path content="1,小田急シティバス（株）,ニューブリーズ号,2.0,2.0,2.0," xlink:title="1" d="M13844.9707,-3502.5789L13844.9895,-3502.5928L13845.0231,-3502.6178L13845.0312,-3502.6245L13845.0312,-3502.6245L13845.0679,-3502.6551L13845.0783,-3502.6636L13845.0783,-3502.6636L13845.082,-3502.6667L13845.0928,-3502.6756L13845.1862,-3502.763L13845.1872,-3502.7639L13845.2636,-3502.8402L13845.3215,-3502.9L13845.3215,-3502.9L13845.3268,-3502.9054L13845.3288,-3502.908L13845.3571,-3502.9448L13845.4149,-3503.0169L13845.4674,-3503.0824L13845.5923,-3503.2351L13845.6328,-3503.2836L13845.6709,-3503.3293L13845.7255,-3503.3854L13845.7285,-3503.3881L13845.7631,-3503.4194L13845.802,-3503.4518L13845.8169,-3503.4642L13845.9172,-3503.54"/>
<path content="1,小田急シティバス（株）,パピヨン号,1.0,1.0,1.0," xlink:title="1" d="M13844.9707,-3502.5789L13844.9895,-3502.5928L13845.0231,-3502.6178L13845.0312,-3502.6245L13845.0312,-3502.6245L13845.0679,-3502.6551L13845.0783,-3502.6636L13845.0783,-3502.6636L13845.082,-3502.6667L13845.0928,-3502.6756L13845.1862,-3502.763L13845.1872,-3502.7639L13845.2636,-3502.8402L13845.3215,-3502.9L13845.3215,-3502.9L13845.3268,-3502.9054L13845.3288,-3502.908L13845.3571,-3502.9448L13845.4149,-3503.0169L13845.4674,-3503.0824L13845.5923,-3503.2351L13845.6328,-3503.2836L13845.6709,-3503.3293L13845.7255,-3503.3854L13845.7285,-3503.3881L13845.7631,-3503.4194L13845.802,-3503.4518L13845.8169,-3503.4642L13845.9172,-3503.54"/>
<path content="1,小田急シティバス（株）,ブルーメッツ号,1.0,1.0,1.0," xlink:title="1" d="M13844.9707,-3502.5789L13844.9895,-3502.5928L13845.0231,-3502.6178L13845.0312,-3502.6245L13845.0312,-3502.6245L13845.0679,-3502.6551L13845.0783,-3502.6636L13845.0783,-3502.6636L13845.082,-3502.6667L13845.0928,-3502.6756L13845.1862,-3502.763L13845.1872,-3502.7639L13845.2636,-3502.8402L13845.3215,-3502.9L13845.3215,-3502.9L13845.3268,-3502.9054L13845.3288,-3502.908L13845.3571,-3502.9448L13845.4149,-3503.0169L13845.4674,-3503.0824L13845.5923,-3503.2351L13845.6328,-3503.2836L13845.6709,-3503.3293L13845.7255,-3503.3854L13845.7285,-3503.3881L13845.7631,-3503.4194L13845.802,-3503.4518L13845.8169,-3503.4642L13845.9172,-3503.54"/>
<path content="1,小田急シティバス（株）,ルミナス号,1.0,1.0,1.0," xlink:title="1" d="M13845.9172,-3503.54L13845.8169,-3503.4642L13845.802,-3503.4518L13845.7631,-3503.4194L13845.7285,-3503.3881L13845.7255,-3503.3854L13845.6709,-3503.3293L13845.6328,-3503.2836L13845.5923,-3503.2351L13845.4674,-3503.0824L13845.4149,-3503.0169L13845.3571,-3502.9448L13845.3288,-3502.908L13845.3268,-3502.9054L13845.3215,-3502.9L13845.3215,-3502.9L13845.2636,-3502.8402L13845.1872,-3502.7639L13845.1862,-3502.763L13845.0928,-3502.6756L13845.082,-3502.6667L13845.0783,-3502.6636L13845.0783,-3502.6636L13845.0679,-3502.6551L13845.0312,-3502.6245L13845.0312,-3502.6245L13845.0231,-3502.6178L13844.9895,-3502.5928L13844.9707,-3502.5789"/>
<path content="1,小田急バス（株）,しまんとエクスプレス号,1.0,1.0,1.0," xlink:title="1" d="M13844.9707,-3502.5789L13844.9895,-3502.5928L13845.0231,-3502.6178L13845.0312,-3502.6245L13845.0312,-3502.6245L13845.0679,-3502.6551L13845.0783,-3502.6636L13845.0783,-3502.6636L13845.082,-3502.6667L13845.0928,-3502.6756L13845.1862,-3502.763L13845.1872,-3502.7639L13845.2636,-3502.8402L13845.3215,-3502.9L13845.3215,-3502.9L13845.3268,-3502.9054L13845.3288,-3502.908L13845.3571,-3502.9448L13845.4149,-3503.0169L13845.4674,-3503.0824L13845.5923,-3503.2351L13845.6328,-3503.2836L13845.6709,-3503.3293L13845.7255,-3503.3854L13845.7285,-3503.3881L13845.7631,-3503.4194L13845.802,-3503.4518L13845.8169,-3503.4642L13845.9172,-3503.54"/>
<path content="1,小田急バス（株）,エトワールセト号,1.0,1.0,1.0," xlink:title="1" d="M13844.9707,-3502.5789L13844.9895,-3502.5928L13845.0231,-3502.6178L13845.0312,-3502.6245L13845.0312,-3502.6245L13845.0679,-3502.6551L13845.0783,-3502.6636L13845.0783,-3502.6636L13845.082,-3502.6667L13845.0928,-3502.6756L13845.1862,-3502.763L13845.1872,-3502.7639L13845.2636,-3502.8402L13845.3215,-3502.9L13845.3215,-3502.9L13845.3268,-3502.9054L13845.3288,-3502.908L13845.3571,-3502.9448L13845.4149,-3503.0169L13845.4674,-3503.0824L13845.5923,-3503.2351L13845.6328,-3503.2836L13845.6709,-3503.3293L13845.7255,-3503.3854L13845.7285,-3503.3881L13845.7631,-3503.4194L13845.802,-3503.4518L13845.8169,-3503.4642L13845.9172,-3503.54"/>
<path content="1,小田急バス（株）,ニューブリーズ号,2.0,2.0,2.0," xlink:title="1" d="M13844.9707,-3502.5789L13844.9895,-3502.5928L13845.0231,-3502.6178L13845.0312,-3502.6245L13845.0312,-3502.6245L13845.0679,-3502.6551L13845.0783,-3502.6636L13845.0783,-3502.6636L13845.082,-3502.6667L13845.0928,-3502.6756L13845.1862,-3502.763L13845.1872,-3502.7639L13845.2636,-3502.8402L13845.3215,-3502.9L13845.3215,-3502.9L13845.3268,-3502.9054L13845.3288,-3502.908L13845.3571,-3502.9448L13845.4149,-3503.0169L13845.4674,-3503.0824L13845.5923,-3503.2351L13845.6328,-3503.2836L13845.6709,-3503.3293L13845.7255,-3503.3854L13845.7285,-3503.3881L13845.7631,-3503.4194L13845.802,-3503.4518L13845.8169,-3503.4642L13845.9172,-3503.54"/>
<path content="1,小田急バス（株）,パピヨン号,1.0,1.0,1.0," xlink:title="1" d="M13844.9707,-3502.5789L13844.9895,-3502.5928L13845.0231,-3502.6178L13845.0312,-3502.6245L13845.0312,-3502.6245L13845.0679,-3502.6551L13845.0783,-3502.6636L13845.0783,-3502.6636L13845.082,-3502.6667L13845.0928,-3502.6756L13845.1862,-3502.763L13845.1872,-3502.7639L13845.2636,-3502.8402L13845.3215,-3502.9L13845.3215,-3502.9L13845.3268,-3502.9054L13845.3288,-3502.908L13845.3571,-3502.9448L13845.4149,-3503.0169L13845.4674,-3503.0824L13845.5923,-3503.2351L13845.6328,-3503.2836L13845.6709,-3503.3293L13845.7255,-3503.3854L13845.7285,-3503.3881L13845.7631,-3503.4194L13845.802,-3503.4518L13845.8169,-3503.4642L13845.9172,-3503.54"/>
<path content="1,小田急バス（株）,ブルーメッツ号,1.0,1.0,1.0," xlink:title="1" d="M13844.9707,-3502.5789L13844.9895,-3502.5928L13845.0231,-3502.6178L13845.0312,-3502.6245L13845.0312,-3502.6245L13845.0679,-3502.6551L13845.0783,-3502.6636L13845.0783,-3502.6636L13845.082,-3502.6667L13845.0928,-3502.6756L13845.1862,-3502.763L13845.1872,-3502.7639L13845.2636,-3502.8402L13845.3215,-3502.9L13845.3215,-3502.9L13845.3268,-3502.9054L13845.3288,-3502.908L13845.3571,-3502.9448L13845.4149,-3503.0169L13845.4674,-3503.0824L13845.5923,-3503.2351L13845.6328,-3503.2836L13845.6709,-3503.3293L13845.7255,-3503.3854L13845.7285,-3503.3881L13845.7631,-3503.4194L13845.802,-3503.4518L13845.8169,-3503.4642L13845.9172,-3503.54"/>
<path content="1,小田急バス（株）,ルミナス号,1.0,1.0,1.0," xlink:title="1" d="M13845.9172,-3503.54L13845.8169,-3503.4642L13845.802,-3503.4518L13845.7631,-3503.4194L13845.7285,-3503.3881L13845.7255,-3503.3854L13845.6709,-3503.3293L13845.6328,-3503.2836L13845.5923,-3503.2351L13845.4674,-3503.0824L13845.4149,-3503.0169L13845.3571,-3502.9448L13845.3288,-3502.908L13845.3268,-3502.9054L13845.3215,-3502.9L13845.3215,-3502.9L13845.2636,-3502.8402L13845.1872,-3502.7639L13845.1862,-3502.763L13845.0928,-3502.6756L13845.082,-3502.6667L13845.0783,-3502.6636L13845.0783,-3502.6636L13845.0679,-3502.6551L13845.0312,-3502.6245L13845.0312,-3502.6245L13845.0231,-3502.6178L13844.9895,-3502.5928L13844.9707,-3502.5789"/>
<path content="1,徳島バス（株）,徳島⇔東京,2.0,2.0,2.0," xlink:title="1" d="M13845.9172,-3503.54L13845.8169,-3503.4642L13845.7631,-3503.4194L13845.7255,-3503.3854L13845.6709,-3503.3293L13845.5923,-3503.2351L13845.4674,-3503.0824L13845.4149,-3503.0169L13845.3571,-3502.9448L13845.3268,-3502.9054L13845.2636,-3502.8402L13845.1862,-3502.763L13845.0928,-3502.6756L13845.0679,-3502.6551L13845.0231,-3502.6178L13844.9707,-3502.5789"/>
<path content="1,成田空港交通,和歌山線,1.0,1.0,1.0," xlink:title="1" d="M13844.9707,-3502.5789L13844.9895,-3502.5928L13845.0231,-3502.6178L13845.0312,-3502.6245L13845.0312,-3502.6245L13845.0679,-3502.6551L13845.0783,-3502.6636L13845.0783,-3502.6636L13845.082,-3502.6667L13845.0928,-3502.6756L13845.1862,-3502.763L13845.1872,-3502.7639L13845.2636,-3502.8402L13845.3215,-3502.9L13845.3215,-3502.9L13845.3268,-3502.9054L13845.3288,-3502.908L13845.3571,-3502.9448L13845.4149,-3503.0169L13845.4674,-3503.0824L13845.5923,-3503.2351L13845.6328,-3503.2836L13845.6709,-3503.3293L13845.7255,-3503.3854L13845.7285,-3503.3881L13845.7631,-3503.4194L13845.802,-3503.4518L13845.8169,-3503.4642L13845.9172,-3503.54"/>
<path content="1,新常磐交通（株）,シーガル号,1.0,1.0,1.0," xlink:title="1" d="M13844.9707,-3502.5789L13844.9895,-3502.5928L13845.0232,-3502.6178L13845.0312,-3502.6245L13845.0312,-3502.6245L13845.0682,-3502.6552L13845.0783,-3502.6636L13845.0783,-3502.6636L13845.082,-3502.6667L13845.093,-3502.6758L13845.1864,-3502.7632L13845.1872,-3502.7639L13845.2639,-3502.8402L13845.3215,-3502.9L13845.3215,-3502.9L13845.3268,-3502.9055L13845.3288,-3502.908L13845.3573,-3502.9448L13845.4149,-3503.0169L13845.4676,-3503.0825L13845.5923,-3503.2351L13845.6328,-3503.2836L13845.6709,-3503.3293L13845.7254,-3503.3854L13845.7285,-3503.3881L13845.7632,-3503.4193L13845.802,-3503.4518L13845.817,-3503.4643L13845.9171,-3503.54"/>
<path content="1,日ノ丸自動車（株）,東京‐米子線,1.0,1.0,1.0," xlink:title="1" d="M13844.9707,-3502.5789L13845.0231,-3502.6178L13845.0679,-3502.6551L13845.0928,-3502.6756L13845.1862,-3502.763L13845.2636,-3502.8402L13845.3268,-3502.9054L13845.3571,-3502.9448L13845.4149,-3503.0169L13845.4674,-3503.0824L13845.5923,-3503.2351L13845.6709,-3503.3293L13845.7255,-3503.3854L13845.7631,-3503.4194L13845.8169,-3503.4642L13845.9172,-3503.54"/>
<path content="1,日ノ丸自動車（株）,東京‐鳥取・倉吉線,1.0,1.0,1.0," xlink:title="1" d="M13844.9707,-3502.5789L13845.0231,-3502.6178L13845.0679,-3502.6551L13845.0928,-3502.6756L13845.1862,-3502.763L13845.2636,-3502.8402L13845.3268,-3502.9054L13845.3571,-3502.9448L13845.4149,-3503.0169L13845.4674,-3503.0824L13845.5923,-3503.2351L13845.6709,-3503.3293L13845.7255,-3503.3854L13845.7631,-3503.4194L13845.8169,-3503.4642L13845.9172,-3503.54"/>
<path content="1,日本中央バス（株）,シルクライナー,5.0,5.0,5.0," xlink:title="1" d="M13844.9707,-3502.5789L13844.9895,-3502.5928L13845.0231,-3502.6178L13845.0312,-3502.6245L13845.0312,-3502.6245L13845.0679,-3502.6551L13845.0783,-3502.6636L13845.0783,-3502.6636L13845.082,-3502.6667L13845.0928,-3502.6756L13845.1862,-3502.763L13845.1872,-3502.7639L13845.2636,-3502.8402L13845.3215,-3502.9L13845.3215,-3502.9L13845.3268,-3502.9054L13845.3288,-3502.908L13845.3571,-3502.9448L13845.4149,-3503.0169L13845.4674,-3503.0824L13845.5923,-3503.2351L13845.6328,-3503.2836L13845.6709,-3503.3293L13845.7255,-3503.3854L13845.7285,-3503.3881L13845.7631,-3503.4194L13845.802,-3503.4518L13845.8169,-3503.4642L13845.9172,-3503.54"/>
<path content="1,日本中央バス（株）,東海ライナー,2.0,2.0,2.0," xlink:title="1" d="M13844.9707,-3502.5789L13844.9895,-3502.5928L13845.0232,-3502.6178L13845.0312,-3502.6245L13845.0312,-3502.6245L13845.0682,-3502.6552L13845.0783,-3502.6636L13845.0783,-3502.6636L13845.082,-3502.6667L13845.093,-3502.6758L13845.1864,-3502.7632L13845.1872,-3502.7639L13845.2639,-3502.8402L13845.3215,-3502.9L13845.3215,-3502.9L13845.3268,-3502.9055L13845.3288,-3502.908L13845.3573,-3502.9448L13845.4149,-3503.0169L13845.4676,-3503.0825L13845.5923,-3503.2351L13845.6328,-3503.2836L13845.6709,-3503.3293L13845.7254,-3503.3854L13845.7285,-3503.3881L13845.7632,-3503.4193L13845.802,-3503.4518L13845.817,-3503.4643L13845.9171,-3503.54"/>
<path content="1,日本交通（株）,米子～東京線,1.0,1.0,1.0," xlink:title="1" d="M13844.9707,-3502.5789L13845.0231,-3502.6178L13845.0679,-3502.6551L13845.0928,-3502.6756L13845.1862,-3502.763L13845.2636,-3502.8402L13845.3268,-3502.9054L13845.3571,-3502.9448L13845.4149,-3503.0169L13845.4674,-3503.0824L13845.5923,-3503.2351L13845.6709,-3503.3293L13845.7255,-3503.3854L13845.7631,-3503.4194L13845.8169,-3503.4642L13845.9172,-3503.54"/>
<path content="1,日本交通（株）,鳥取・倉吉～東京線,1.0,1.0,1.0," xlink:title="1" d="M13844.9707,-3502.5789L13845.0231,-3502.6178L13845.0679,-3502.6551L13845.0928,-3502.6756L13845.1862,-3502.763L13845.2636,-3502.8402L13845.3268,-3502.9054L13845.3571,-3502.9448L13845.4149,-3503.0169L13845.4674,-3503.0824L13845.5923,-3503.2351L13845.6709,-3503.3293L13845.7255,-3503.3854L13845.7631,-3503.4194L13845.8169,-3503.4642L13845.9172,-3503.54"/>
<path content="1,東北急行バス（株）,ままかりライナー,1.0,1.0,1.0," xlink:title="1" d="M13844.9707,-3502.5789L13844.9895,-3502.5928L13845.0231,-3502.6178L13845.0312,-3502.6245L13845.0312,-3502.6245L13845.0679,-3502.6551L13845.0783,-3502.6636L13845.0783,-3502.6636L13845.082,-3502.6667L13845.0928,-3502.6756L13845.1862,-3502.763L13845.1872,-3502.7639L13845.2636,-3502.8402L13845.3215,-3502.9L13845.3215,-3502.9L13845.3268,-3502.9054L13845.3288,-3502.908L13845.3571,-3502.9448L13845.4149,-3503.0169L13845.4674,-3503.0824L13845.5923,-3503.2351L13845.6328,-3503.2836L13845.6709,-3503.3293L13845.7255,-3503.3854L13845.7285,-3503.3881L13845.7631,-3503.4194L13845.802,-3503.4518L13845.8169,-3503.4642L13845.9172,-3503.54"/>
<path content="1,東北急行バス（株）,フライングスニーカー京都・茨木号,1.0,1.0,1.0," xlink:title="1" d="M13845.9172,-3503.54L13845.8169,-3503.4642L13845.802,-3503.4518L13845.7631,-3503.4194L13845.7285,-3503.3881L13845.7255,-3503.3854L13845.6709,-3503.3293L13845.6328,-3503.2836L13845.5923,-3503.2351L13845.4674,-3503.0824L13845.4149,-3503.0169L13845.3571,-3502.9448L13845.3288,-3502.908L13845.3268,-3502.9054L13845.3215,-3502.9L13845.3215,-3502.9L13845.2636,-3502.8402L13845.1872,-3502.7639L13845.1862,-3502.763L13845.0928,-3502.6756L13845.082,-3502.6667L13845.0783,-3502.6636L13845.0783,-3502.6636L13845.0679,-3502.6551L13845.0312,-3502.6245L13845.0312,-3502.6245L13845.0231,-3502.6178L13844.9895,-3502.5928L13844.9707,-3502.5789"/>
<path content="1,東北急行バス（株）,フライングスニーカー大坂号,1.0,1.0,1.0," xlink:title="1" d="M13845.9172,-3503.54L13845.8169,-3503.4642L13845.802,-3503.4518L13845.7631,-3503.4194L13845.7285,-3503.3881L13845.7255,-3503.3854L13845.6709,-3503.3293L13845.6328,-3503.2836L13845.5923,-3503.2351L13845.4674,-3503.0824L13845.4149,-3503.0169L13845.3571,-3502.9448L13845.3288,-3502.908L13845.3268,-3502.9054L13845.3215,-3502.9L13845.3215,-3502.9L13845.2636,-3502.8402L13845.1872,-3502.7639L13845.1862,-3502.763L13845.0928,-3502.6756L13845.082,-3502.6667L13845.0783,-3502.6636L13845.0783,-3502.6636L13845.0679,-3502.6551L13845.0312,-3502.6245L13845.0312,-3502.6245L13845.0231,-3502.6178L13844.9895,-3502.5928L13844.9707,-3502.5789"/>
<path content="1,東北急行バス（株）,フライングライナー号,1.0,1.0,1.0," xlink:title="1" d="M13845.9172,-3503.54L13845.8169,-3503.4642L13845.802,-3503.4518L13845.7631,-3503.4194L13845.7285,-3503.3881L13845.7255,-3503.3854L13845.6709,-3503.3293L13845.6328,-3503.2836L13845.5923,-3503.2351L13845.4674,-3503.0824L13845.4149,-3503.0169L13845.3571,-3502.9448L13845.3288,-3502.908L13845.3268,-3502.9054L13845.3215,-3502.9L13845.3215,-3502.9L13845.2636,-3502.8402L13845.1872,-3502.7639L13845.1862,-3502.763L13845.0928,-3502.6756L13845.082,-3502.6667L13845.0783,-3502.6636L13845.0783,-3502.6636L13845.0679,-3502.6551L13845.0312,-3502.6245L13845.0312,-3502.6245L13845.0231,-3502.6178L13844.9895,-3502.5928L13844.9707,-3502.5789"/>
<path content="1,江ノ電バス藤沢,サザンクロス,1.0,1.0,1.0," xlink:title="1" d="M13845.9172,-3503.54L13845.8169,-3503.4642L13845.802,-3503.4518L13845.7631,-3503.4194L13845.7285,-3503.3881L13845.7255,-3503.3854L13845.6709,-3503.3293L13845.6328,-3503.2836L13845.5923,-3503.2351L13845.4674,-3503.0824L13845.4149,-3503.0169L13845.3571,-3502.9448L13845.3288,-3502.908L13845.3268,-3502.9054L13845.3215,-3502.9L13845.3215,-3502.9L13845.2636,-3502.8402L13845.1872,-3502.7639L13845.1862,-3502.763L13845.0928,-3502.6756L13845.082,-3502.6667L13845.0783,-3502.6636L13845.0783,-3502.6636L13845.0679,-3502.6551L13845.0312,-3502.6245L13845.0312,-3502.6245L13845.0231,-3502.6178L13844.9895,-3502.5928L13844.9707,-3502.5789"/>
<path content="1,江ノ電バス藤沢,横浜・鎌倉・藤沢～金沢線,1.0,1.0,1.0," xlink:title="1" d="M13845.9172,-3503.54L13845.8169,-3503.4642L13845.802,-3503.4518L13845.7631,-3503.4194L13845.7285,-3503.3881L13845.7255,-3503.3854L13845.6709,-3503.3293L13845.6328,-3503.2836L13845.5923,-3503.2351L13845.4674,-3503.0824L13845.4149,-3503.0169L13845.3571,-3502.9448L13845.3288,-3502.908L13845.3268,-3502.9054L13845.3215,-3502.9L13845.3215,-3502.9L13845.2636,-3502.8402L13845.1872,-3502.7639L13845.1862,-3502.763L13845.0928,-3502.6756L13845.082,-3502.6667L13845.0783,-3502.6636L13845.0783,-3502.6636L13845.0679,-3502.6551L13845.0312,-3502.6245L13845.0312,-3502.6245L13845.0231,-3502.6178L13844.9895,-3502.5928L13844.9707,-3502.5789"/>
<path content="1,瀬戸内運輸（株）,パイレーツ　今治⇔東京,1.0,1.0,1.0," xlink:title="1" d="M13845.9172,-3503.54L13845.8169,-3503.4642L13845.7631,-3503.4194L13845.7255,-3503.3854L13845.6709,-3503.3293L13845.5923,-3503.2351L13845.4674,-3503.0824L13845.4149,-3503.0169L13845.3571,-3502.9448L13845.3268,-3502.9054L13845.2636,-3502.8402L13845.1862,-3502.763L13845.0928,-3502.6756L13845.0679,-3502.6551L13845.0231,-3502.6178L13844.9707,-3502.5789"/>
<path content="1,琴平バス（株）,愛媛・高知シャトル,2.0,2.0,2.0," xlink:title="1" d="M13845.9172,-3503.54L13845.8169,-3503.4642L13845.7631,-3503.4194L13845.7255,-3503.3854L13845.6709,-3503.3293L13845.5923,-3503.2351L13845.4674,-3503.0824L13845.4149,-3503.0169L13845.3571,-3502.9448L13845.3268,-3502.9054L13845.2636,-3502.8402L13845.1862,-3502.763L13845.0928,-3502.6756L13845.0679,-3502.6551L13845.0231,-3502.6178L13844.9707,-3502.5789"/>
<path content="1,神姫バス（株）,姫路・神戸（三ノ宮）-東京（渋谷・新宿）,1.0,1.0,1.0," xlink:title="1" d="M13845.9172,-3503.54L13845.8169,-3503.4642L13845.7631,-3503.4194L13845.7255,-3503.3854L13845.6709,-3503.3293L13845.5923,-3503.2351L13845.4674,-3503.0824L13845.4149,-3503.0169L13845.3571,-3502.9448L13845.3268,-3502.9054L13845.2636,-3502.8402L13845.1862,-3502.763L13845.0928,-3502.6756L13845.0679,-3502.6551L13845.0231,-3502.6178L13844.9707,-3502.5789"/>
<path content="1,福井鉄道（株）,福井⇔東京,3.0,3.0,3.0," xlink:title="1" d="M13844.9707,-3502.5789L13845.0231,-3502.6178L13845.0679,-3502.6551L13845.0928,-3502.6756L13845.1862,-3502.763L13845.2636,-3502.8402L13845.3268,-3502.9054L13845.3571,-3502.9448L13845.4149,-3503.0169L13845.4674,-3503.0824L13845.5923,-3503.2351L13845.6709,-3503.3293L13845.7255,-3503.3854L13845.7631,-3503.4194L13845.8169,-3503.4642L13845.9172,-3503.54"/>
<path content="1,福島交通（株）,福島高速バスターミナル～大阪あべの橋,1.0,1.0,1.0," xlink:title="1" d="M13844.9707,-3502.5789L13844.9895,-3502.5928L13845.0232,-3502.6178L13845.0312,-3502.6245L13845.0312,-3502.6245L13845.0682,-3502.6552L13845.0783,-3502.6636L13845.0783,-3502.6636L13845.082,-3502.6667L13845.093,-3502.6758L13845.1864,-3502.7632L13845.1872,-3502.7639L13845.2639,-3502.8402L13845.3215,-3502.9L13845.3215,-3502.9L13845.3268,-3502.9055L13845.3288,-3502.908L13845.3573,-3502.9448L13845.4149,-3503.0169L13845.4676,-3503.0825L13845.5923,-3503.2351L13845.6328,-3503.2836L13845.6709,-3503.3293L13845.7254,-3503.3854L13845.7285,-3503.3881L13845.7632,-3503.4193L13845.802,-3503.4518L13845.817,-3503.4643L13845.9171,-3503.54"/>
<path content="1,西日本鉄道（株）,福岡　～　東京　（はかた号））,1.0,1.0,1.0," xlink:title="1" d="M13844.9707,-3502.5789L13845.0231,-3502.6178L13845.0679,-3502.6551L13845.0928,-3502.6756L13845.1862,-3502.763L13845.2636,-3502.8402L13845.3268,-3502.9054L13845.3571,-3502.9448L13845.4149,-3503.0169L13845.4674,-3503.0824L13845.5923,-3503.2351L13845.6709,-3503.3293L13845.7255,-3503.3854L13845.7631,-3503.4194L13845.8169,-3503.4642L13845.9172,-3503.54"/>
<path content="1,西東京バス（株）,ツインクル号,1.0,1.0,1.0," xlink:title="1" d="M13845.9172,-3503.54L13845.8169,-3503.4642L13845.802,-3503.4518L13845.7631,-3503.4194L13845.7285,-3503.3881L13845.7255,-3503.3854L13845.6709,-3503.3293L13845.6328,-3503.2836L13845.5923,-3503.2351L13845.4674,-3503.0824L13845.4149,-3503.0169L13845.3571,-3502.9448L13845.3288,-3502.908L13845.3268,-3502.9054L13845.3215,-3502.9L13845.3215,-3502.9L13845.2636,-3502.8402L13845.1872,-3502.7639L13845.1862,-3502.763L13845.0928,-3502.6756L13845.082,-3502.6667L13845.0783,-3502.6636L13845.0783,-3502.6636L13845.0679,-3502.6551L13845.0312,-3502.6245L13845.0312,-3502.6245L13845.0231,-3502.6178L13844.9895,-3502.5928L13844.9707,-3502.5789"/>
<path content="1,西東京バス（株）,ハローブリッジ号,1.0,1.0,1.0," xlink:title="1" d="M13844.9707,-3502.5789L13844.9895,-3502.5928L13845.0231,-3502.6178L13845.0312,-3502.6245L13845.0312,-3502.6245L13845.0679,-3502.6551L13845.0783,-3502.6636L13845.0783,-3502.6636L13845.082,-3502.6667L13845.0928,-3502.6756L13845.1862,-3502.763L13845.1872,-3502.7639L13845.2636,-3502.8402L13845.3215,-3502.9L13845.3215,-3502.9L13845.3268,-3502.9054L13845.3288,-3502.908L13845.3571,-3502.9448L13845.4149,-3503.0169L13845.4674,-3503.0824L13845.5923,-3503.2351L13845.6328,-3503.2836L13845.6709,-3503.3293L13845.7255,-3503.3854L13845.7285,-3503.3881L13845.7631,-3503.4194L13845.802,-3503.4518L13845.8169,-3503.4642L13845.9172,-3503.54"/>
<path content="1,西武観光バス,びわこドリーム号,1.0,1.0,1.0," xlink:title="1" d="M13845.9172,-3503.54L13845.8169,-3503.4642L13845.802,-3503.4518L13845.7631,-3503.4194L13845.7285,-3503.3881L13845.7255,-3503.3854L13845.6709,-3503.3293L13845.6328,-3503.2836L13845.5923,-3503.2351L13845.4674,-3503.0824L13845.4149,-3503.0169L13845.3571,-3502.9448L13845.3288,-3502.908L13845.3268,-3502.9054L13845.3215,-3502.9L13845.3215,-3502.9L13845.2636,-3502.8402L13845.1872,-3502.7639L13845.1862,-3502.763L13845.0928,-3502.6756L13845.082,-3502.6667L13845.0783,-3502.6636L13845.0783,-3502.6636L13845.0679,-3502.6551L13845.0312,-3502.6245L13845.0312,-3502.6245L13845.0231,-3502.6178L13844.9895,-3502.5928L13844.9707,-3502.5789"/>
<path content="1,西武観光バス,大宮・池袋・横浜～南紀勝浦線,1.0,1.0,1.0," xlink:title="1" d="M13845.9172,-3503.54L13845.8169,-3503.4642L13845.802,-3503.4518L13845.7631,-3503.4194L13845.7285,-3503.3881L13845.7255,-3503.3854L13845.6709,-3503.3293L13845.6328,-3503.2836L13845.5923,-3503.2351L13845.4674,-3503.0824L13845.4149,-3503.0169L13845.3571,-3502.9448L13845.3288,-3502.908L13845.3268,-3502.9054L13845.3215,-3502.9L13845.3215,-3502.9L13845.2636,-3502.8402L13845.1872,-3502.7639L13845.1862,-3502.763L13845.0928,-3502.6756L13845.082,-3502.6667L13845.0783,-3502.6636L13845.0783,-3502.6636L13845.0679,-3502.6551L13845.0312,-3502.6245L13845.0312,-3502.6245L13845.0231,-3502.6178L13844.9895,-3502.5928L13844.9707,-3502.5789"/>
<path content="1,西武観光バス,宇和島線,1.0,1.0,1.0," xlink:title="1" d="M13845.9172,-3503.54L13845.8169,-3503.4642L13845.802,-3503.4518L13845.7631,-3503.4194L13845.7285,-3503.3881L13845.7255,-3503.3854L13845.6709,-3503.3293L13845.6328,-3503.2836L13845.5923,-3503.2351L13845.4674,-3503.0824L13845.4149,-3503.0169L13845.3571,-3502.9448L13845.3288,-3502.908L13845.3268,-3502.9054L13845.3215,-3502.9L13845.3215,-3502.9L13845.2636,-3502.8402L13845.1872,-3502.7639L13845.1862,-3502.763L13845.0928,-3502.6756L13845.082,-3502.6667L13845.0783,-3502.6636L13845.0783,-3502.6636L13845.0679,-3502.6551L13845.0312,-3502.6245L13845.0312,-3502.6245L13845.0231,-3502.6178L13844.9895,-3502.5928L13844.9707,-3502.5789"/>
<path content="1,豊鉄バス（株）,田原～練馬,1.0,1.0,1.0," xlink:title="1" d="M13844.9707,-3502.579L13845.0231,-3502.6178L13845.0679,-3502.6551L13845.0928,-3502.6756L13845.1862,-3502.763L13845.2636,-3502.8402L13845.3268,-3502.9054L13845.3571,-3502.9448L13845.4149,-3503.0169L13845.4674,-3503.0824L13845.5923,-3503.2351L13845.6709,-3503.3293L13845.7255,-3503.3854L13845.7631,-3503.4194L13845.8169,-3503.4642L13845.9172,-3503.54"/>
<path content="1,近鉄バス（株）,大日・茨木・京都⇔東京駅,1.0,1.0,1.0," xlink:title="1" d="M13845.9172,-3503.54L13845.8169,-3503.4642L13845.7631,-3503.4194L13845.7255,-3503.3854L13845.6709,-3503.3293L13845.5923,-3503.2351L13845.4674,-3503.0824L13845.4149,-3503.0169L13845.3571,-3502.9448L13845.3268,-3502.9054L13845.2636,-3502.8402L13845.1862,-3502.763L13845.0928,-3502.6756L13845.0679,-3502.6551L13845.0231,-3502.6178L13844.9707,-3502.5789"/>
<path content="1,近鉄バス（株）,大阪⇔東京駅,1.0,1.0,1.0," xlink:title="1" d="M13845.9172,-3503.54L13845.8169,-3503.4642L13845.7631,-3503.4194L13845.7255,-3503.3854L13845.6709,-3503.3293L13845.5923,-3503.2351L13845.4674,-3503.0824L13845.4149,-3503.0169L13845.3571,-3502.9448L13845.3268,-3502.9054L13845.2636,-3502.8402L13845.1862,-3502.763L13845.0928,-3502.6756L13845.0679,-3502.6551L13845.0231,-3502.6178L13844.9707,-3502.5789"/>
<path content="1,近鉄バス（株）,大阪・京都⇔つくば・水戸,1.0,1.0,1.0," xlink:title="1" d="M13845.9172,-3503.54L13845.8169,-3503.4642L13845.7631,-3503.4194L13845.7255,-3503.3854L13845.6709,-3503.3293L13845.5923,-3503.2351L13845.4674,-3503.0824L13845.4149,-3503.0169L13845.3571,-3502.9448L13845.3268,-3502.9054L13845.2636,-3502.8402L13845.1862,-3502.763L13845.0928,-3502.6756L13845.0679,-3502.6551L13845.0231,-3502.6178L13844.9707,-3502.5789"/>
<path content="1,近鉄バス（株）,大阪・京都⇔久喜・栃木・宇都宮,1.0,1.0,1.0," xlink:title="1" d="M13845.9172,-3503.54L13845.8169,-3503.4642L13845.7631,-3503.4194L13845.7255,-3503.3854L13845.6709,-3503.3293L13845.5923,-3503.2351L13845.4674,-3503.0824L13845.4149,-3503.0169L13845.3571,-3502.9448L13845.3268,-3502.9054L13845.2636,-3502.8402L13845.1862,-3502.763L13845.0928,-3502.6756L13845.0679,-3502.6551L13845.0231,-3502.6178L13844.9707,-3502.5789"/>
<path content="1,近鉄バス（株）,大阪・京都⇔仙台,1.0,1.0,1.0," xlink:title="1" d="M13845.9172,-3503.54L13845.8169,-3503.4642L13845.7631,-3503.4194L13845.7255,-3503.3854L13845.6709,-3503.3293L13845.5923,-3503.2351L13845.4674,-3503.0824L13845.4149,-3503.0169L13845.3571,-3502.9448L13845.3268,-3502.9054L13845.2636,-3502.8402L13845.1862,-3502.763L13845.0928,-3502.6756L13845.0679,-3502.6551L13845.0231,-3502.6178L13844.9707,-3502.5789"/>
<path content="1,近鉄バス（株）,大阪・京都⇔川越・坂戸・熊谷,1.0,1.0,1.0," xlink:title="1" d="M13845.9172,-3503.54L13845.8169,-3503.4642L13845.7631,-3503.4194L13845.7255,-3503.3854L13845.6709,-3503.3293L13845.5923,-3503.2351L13845.4674,-3503.0824L13845.4149,-3503.0169L13845.3571,-3502.9448L13845.3268,-3502.9054L13845.2636,-3502.8402L13845.1862,-3502.763L13845.0928,-3502.6756L13845.0679,-3502.6551L13845.0231,-3502.6178L13844.9707,-3502.5789"/>
<path content="1,近鉄バス（株）,大阪・京都⇔日立・いわき,1.0,1.0,1.0," xlink:title="1" d="M13845.9172,-3503.54L13845.8169,-3503.4642L13845.7631,-3503.4194L13845.7255,-3503.3854L13845.6709,-3503.3293L13845.5923,-3503.2351L13845.4674,-3503.0824L13845.4149,-3503.0169L13845.3571,-3502.9448L13845.3268,-3502.9054L13845.2636,-3502.8402L13845.1862,-3502.763L13845.0928,-3502.6756L13845.0679,-3502.6551L13845.0231,-3502.6178L13844.9707,-3502.5789"/>
<path content="1,近鉄バス（株）,大阪・京都⇔東静岡・富士宮・富士吉田駅,1.0,1.0,1.0," xlink:title="1" d="M13846.0693,-3502.7143L13845.9379,-3502.6429L13845.7551,-3502.5419L13845.753,-3502.5408L13845.7045,-3502.514L13845.6258,-3502.4713L13845.5706,-3502.4414"/>
<path content="1,近鉄バス（株）,大阪・京都⇔沼津・御殿場・新松田・小田原,1.0,1.0,1.0," xlink:title="1" d="M13844.9707,-3502.5789L13845.0231,-3502.6178L13845.0679,-3502.6551L13845.0928,-3502.6756L13845.1862,-3502.763L13845.2636,-3502.8402L13845.3268,-3502.9054L13845.3571,-3502.9448L13845.4149,-3503.0169L13845.4674,-3503.0824L13845.5923,-3503.2351L13845.6709,-3503.3293L13845.7255,-3503.3854L13845.7631,-3503.4194L13845.8169,-3503.4642L13845.9172,-3503.54"/>
<path content="1,近鉄バス（株）,大阪・京都⇔郡山・福島,1.0,1.0,1.0," xlink:title="1" d="M13845.9172,-3503.54L13845.8169,-3503.4642L13845.7631,-3503.4194L13845.7255,-3503.3854L13845.6709,-3503.3293L13845.5923,-3503.2351L13845.4674,-3503.0824L13845.4149,-3503.0169L13845.3571,-3502.9448L13845.3268,-3502.9054L13845.2636,-3502.8402L13845.1862,-3502.763L13845.0928,-3502.6756L13845.0679,-3502.6551L13845.0231,-3502.6178L13844.9707,-3502.5789"/>
<path content="1,近鉄バス（株）,大阪・茨木⇔新宿,1.0,1.0,1.0," xlink:title="1" d="M13845.9172,-3503.54L13845.8169,-3503.4642L13845.7631,-3503.4194L13845.7255,-3503.3854L13845.6709,-3503.3293L13845.5923,-3503.2351L13845.4674,-3503.0824L13845.4149,-3503.0169L13845.3571,-3502.9448L13845.3268,-3502.9054L13845.2636,-3502.8402L13845.1862,-3502.763L13845.0928,-3502.6756L13845.0679,-3502.6551L13845.0231,-3502.6178L13844.9707,-3502.5789"/>
<path content="1,近鉄バス（株）,藤井寺・大阪・京都⇔東京駅・横浜,1.0,1.0,1.0," xlink:title="1" d="M13845.9172,-3503.54L13845.8169,-3503.4642L13845.7631,-3503.4194L13845.7255,-3503.3854L13845.6709,-3503.3293L13845.5923,-3503.2351L13845.4674,-3503.0824L13845.4149,-3503.0169L13845.3571,-3502.9448L13845.3268,-3502.9054L13845.2636,-3502.8402L13845.1862,-3502.763L13845.0928,-3502.6756L13845.0679,-3502.6551L13845.0231,-3502.6178L13844.9707,-3502.5789"/>
<path content="1,遠州鉄道（株）,イーライナー,2.0,2.0,2.0," xlink:title="1" d="M13845.9172,-3503.54L13845.8169,-3503.4642L13845.7631,-3503.4194L13845.7255,-3503.3854L13845.6709,-3503.3293L13845.5923,-3503.2351L13845.4674,-3503.0824L13845.4149,-3503.0169L13845.3571,-3502.9448L13845.3268,-3502.9054L13845.2636,-3502.8402L13845.1862,-3502.763L13845.0928,-3502.6756L13845.0679,-3502.6551L13845.0231,-3502.6178L13844.9707,-3502.5789"/>
<path content="1,関東バス（株）,ほの国号,1.0,1.0,1.0," xlink:title="1" d="M13844.9707,-3502.5789L13844.9895,-3502.5928L13845.0231,-3502.6178L13845.0312,-3502.6245L13845.0312,-3502.6245L13845.0679,-3502.6551L13845.0783,-3502.6636L13845.0783,-3502.6636L13845.082,-3502.6667L13845.0928,-3502.6756L13845.1862,-3502.763L13845.1872,-3502.7639L13845.2636,-3502.8402L13845.3215,-3502.9L13845.3215,-3502.9L13845.3268,-3502.9054L13845.3288,-3502.908L13845.3571,-3502.9448L13845.4149,-3503.0169L13845.4674,-3503.0824L13845.5923,-3503.2351L13845.6328,-3503.2836L13845.6709,-3503.3293L13845.7255,-3503.3854L13845.7285,-3503.3881L13845.7631,-3503.4194L13845.802,-3503.4518L13845.8169,-3503.4642L13845.9172,-3503.54"/>
<path content="1,関東バス（株）,やまと号,2.0,2.0,2.0," xlink:title="1" d="M13845.9172,-3503.54L13845.8169,-3503.4642L13845.802,-3503.4518L13845.7631,-3503.4194L13845.7285,-3503.3881L13845.7255,-3503.3854L13845.6709,-3503.3293L13845.6328,-3503.2836L13845.5923,-3503.2351L13845.4674,-3503.0824L13845.4149,-3503.0169L13845.3571,-3502.9448L13845.3288,-3502.908L13845.3268,-3502.9054L13845.3215,-3502.9L13845.3215,-3502.9L13845.2636,-3502.8402L13845.1872,-3502.7639L13845.1862,-3502.763L13845.0928,-3502.6756L13845.082,-3502.6667L13845.0783,-3502.6636L13845.0783,-3502.6636L13845.0679,-3502.6551L13845.0312,-3502.6245L13845.0312,-3502.6245L13845.0231,-3502.6178L13844.9895,-3502.5928L13844.9707,-3502.5789"/>
<path content="1,関東バス（株）,マスカット号,1.0,1.0,1.0," xlink:title="1" d="M13844.9707,-3502.5789L13844.9895,-3502.5928L13845.0231,-3502.6178L13845.0312,-3502.6245L13845.0312,-3502.6245L13845.0679,-3502.6551L13845.0783,-3502.6636L13845.0783,-3502.6636L13845.082,-3502.6667L13845.0928,-3502.6756L13845.1862,-3502.763L13845.1872,-3502.7639L13845.2636,-3502.8402L13845.3215,-3502.9L13845.3215,-3502.9L13845.3268,-3502.9054L13845.3288,-3502.908L13845.3571,-3502.9448L13845.4149,-3503.0169L13845.4674,-3503.0824L13845.5923,-3503.2351L13845.6328,-3503.2836L13845.6709,-3503.3293L13845.7255,-3503.3854L13845.7285,-3503.3881L13845.7631,-3503.4194L13845.802,-3503.4518L13845.8169,-3503.4642L13845.9172,-3503.54"/>
<path content="1,関東バス（株）,東京ミッドナイトエクスプレス京都号,1.0,1.0,1.0," xlink:title="1" d="M13845.9172,-3503.54L13845.8169,-3503.4642L13845.802,-3503.4518L13845.7631,-3503.4194L13845.7285,-3503.3881L13845.7255,-3503.3854L13845.6709,-3503.3293L13845.6328,-3503.2836L13845.5923,-3503.2351L13845.4674,-3503.0824L13845.4149,-3503.0169L13845.3571,-3502.9448L13845.3288,-3502.908L13845.3268,-3502.9054L13845.3215,-3502.9L13845.3215,-3502.9L13845.2636,-3502.8402L13845.1872,-3502.7639L13845.1862,-3502.763L13845.0928,-3502.6756L13845.082,-3502.6667L13845.0783,-3502.6636L13845.0783,-3502.6636L13845.0679,-3502.6551L13845.0312,-3502.6245L13845.0312,-3502.6245L13845.0231,-3502.6178L13844.9895,-3502.5928L13844.9707,-3502.5789"/>
<path content="1,関東自動車（株）,とちの木号,1.0,1.0,1.0," xlink:title="1" d="M13845.9172,-3503.54L13845.8169,-3503.4642L13845.802,-3503.4518L13845.7631,-3503.4194L13845.7285,-3503.3881L13845.7255,-3503.3854L13845.6709,-3503.3293L13845.6328,-3503.2836L13845.5923,-3503.2351L13845.4674,-3503.0824L13845.4149,-3503.0169L13845.3571,-3502.9448L13845.3288,-3502.908L13845.3268,-3502.9054L13845.3215,-3502.9L13845.3215,-3502.9L13845.2636,-3502.8402L13845.1872,-3502.7639L13845.1862,-3502.763L13845.0928,-3502.6756L13845.082,-3502.6667L13845.0783,-3502.6636L13845.0783,-3502.6636L13845.0679,-3502.6551L13845.0312,-3502.6245L13845.0312,-3502.6245L13845.0231,-3502.6178L13844.9895,-3502.5928L13844.9707,-3502.5789"/>
<path content="1,関東鉄道（株）,水戸駅南口～あべの橋駅（JR天王寺駅）,1.0,1.0,1.0," xlink:title="1" d="M13845.9172,-3503.54L13845.8169,-3503.4642L13845.802,-3503.4518L13845.7631,-3503.4194L13845.7285,-3503.3881L13845.7255,-3503.3854L13845.6709,-3503.3293L13845.6328,-3503.2836L13845.5923,-3503.2351L13845.4674,-3503.0824L13845.4149,-3503.0169L13845.3571,-3502.9448L13845.3288,-3502.908L13845.3268,-3502.9054L13845.3215,-3502.9L13845.3215,-3502.9L13845.2636,-3502.8402L13845.1872,-3502.7639L13845.1862,-3502.763L13845.0928,-3502.6756L13845.082,-3502.6667L13845.0783,-3502.6636L13845.0783,-3502.6636L13845.0679,-3502.6551L13845.0312,-3502.6245L13845.0312,-3502.6245L13845.0231,-3502.6178L13844.9895,-3502.5928L13844.9707,-3502.5789"/>
<path content="1,阪急バス（株）,東京・東京ディズニーリゾート・千葉行,1.0,1.0,1.0," xlink:title="1" d="M13845.9172,-3503.54L13845.8169,-3503.4642L13845.7631,-3503.4194L13845.7255,-3503.3854L13845.6709,-3503.3293L13845.5923,-3503.2351L13845.4674,-3503.0824L13845.4149,-3503.0169L13845.3571,-3502.9448L13845.3268,-3502.9054L13845.2636,-3502.8402L13845.1862,-3502.763L13845.0928,-3502.6756L13845.0679,-3502.6551L13845.0231,-3502.6178L13844.9707,-3502.5789"/>
<path content="1,阪急バス（株）,横浜・品川・池袋行,1.0,1.0,1.0," xlink:title="1" d="M13845.9172,-3503.54L13845.8169,-3503.4642L13845.7631,-3503.4194L13845.7255,-3503.3854L13845.6709,-3503.3293L13845.5923,-3503.2351L13845.4674,-3503.0824L13845.4149,-3503.0169L13845.3571,-3502.9448L13845.3268,-3502.9054L13845.2636,-3502.8402L13845.1862,-3502.763L13845.0928,-3502.6756L13845.0679,-3502.6551L13845.0231,-3502.6178L13844.9707,-3502.5789"/>
<path content="1,阪神バス（株）,サラダエクスプレス　神戸・大阪⇔東京ディズニーリゾート,1.0,1.0,1.0," xlink:title="1" d="M13845.9172,-3503.54L13845.8169,-3503.4642L13845.7631,-3503.4194L13845.7255,-3503.3854L13845.6709,-3503.3293L13845.5923,-3503.2351L13845.4674,-3503.0824L13845.4149,-3503.0169L13845.3571,-3502.9448L13845.3268,-3502.9054L13845.2636,-3502.8402L13845.1862,-3502.763L13845.0928,-3502.6756L13845.0679,-3502.6551L13845.0231,-3502.6178L13844.9707,-3502.5789"/>
<path content="1,防長交通（株）,萩・山口・防府・徳山・岩国～東京,1.0,1.0,1.0," xlink:title="1" d="M13844.9707,-3502.5789L13845.0231,-3502.6178L13845.0679,-3502.6551L13845.0928,-3502.6756L13845.1862,-3502.763L13845.2636,-3502.8402L13845.3268,-3502.9054L13845.3571,-3502.9448L13845.4149,-3503.0169L13845.4674,-3503.0824L13845.5923,-3503.2351L13845.6709,-3503.3293L13845.7255,-3503.3854L13845.7631,-3503.4194L13845.8169,-3503.4642L13845.9172,-3503.54"/>
<path content="1,高知県交通（株）,ブルーメッツ号　高知⇔東京線,1.0,1.0,1.0," xlink:title="1" d="M13845.9172,-3503.54L13845.8169,-3503.4642L13845.7631,-3503.4194L13845.7255,-3503.3854L13845.6709,-3503.3293L13845.5923,-3503.2351L13845.4674,-3503.0824L13845.4149,-3503.0169L13845.3571,-3502.9448L13845.3268,-3502.9054L13845.2636,-3502.8402L13845.1862,-3502.763L13845.0928,-3502.6756L13845.0679,-3502.6551L13845.0231,-3502.6178L13844.9707,-3502.5789"/>
<path content="1,（株）中国バス,夜行便　東京線,1.0,1.0,1.0," xlink:title="1" d="M13845.9172,-3503.54L13845.8169,-3503.4642L13845.7631,-3503.4194L13845.7255,-3503.3854L13845.6709,-3503.3293L13845.5923,-3503.2351L13845.4674,-3503.0824L13845.4149,-3503.0169L13845.3571,-3502.9448L13845.3268,-3502.9054L13845.2636,-3502.8402L13845.1862,-3502.763L13845.0928,-3502.6756L13845.0679,-3502.6551L13845.0231,-3502.6178L13844.9707,-3502.5789"/>
<path content="1,（株）中国バス,夜行便　横浜線,1.0,1.0,1.0," xlink:title="1" d="M13845.9172,-3503.54L13845.8169,-3503.4642L13845.7631,-3503.4194L13845.7255,-3503.3854L13845.6709,-3503.3293L13845.5923,-3503.2351L13845.4674,-3503.0824L13845.4149,-3503.0169L13845.3571,-3502.9448L13845.3268,-3502.9054L13845.2636,-3502.8402L13845.1862,-3502.763L13845.0928,-3502.6756L13845.0679,-3502.6551L13845.0231,-3502.6178L13844.9707,-3502.5789"/>
</g>
</svg>
