<?xml version="1.0" encoding="UTF-8"?>
<svg  xmlns="http://www.w3.org/2000/svg" xmlns:xlink="http://www.w3.org/1999/xlink" xmlns:go="http://purl.org/svgmap/profile" property="N07_001,N07_002,N07_003,N07_004,N07_005,N07_006,N07_007" viewBox="12966.064453125 -3318.9697265625 1.0986328125 1.0986328125" go:dataArea="12966.064453125 -3318.9697265625 1.0986328125 1.0986328125" >
<metadata>
 <rdf:RDF xmlns:rdf="http://www.w3.org/1999/02/22-rdf-syntax-ns#" xmlns:crs="http://opengis.org/xmldtds/transformations.dtd" xmlns:svg="http://www.w3.org/svg" >
  <rdf:Description>
   <crs:CoordinateReferenceSystem rdf:resource="http://purl.org/crs/84" svg:transform="matrix(100.0,0.0,0.0,-100.0,0.0,0.0)" />
  </rdf:Description>
 </rdf:RDF>
</metadata>
<globalCoordinateSystem srsName="http://purl.org/crs/84" transform="matrix(100.0,0.0,0.0,-100.0,0.0,0.0)" />
<defs>
 <g id="p0" >
  <circle cx="0.0" cy="0.0" r="3" stroke="green" stroke-width="0.75" vector-effect="non-scaling-stroke" />
 </g>
</defs>
<g fill="none" fill-rule="evenodd" stroke="#FF00FF" stroke-width="0.75" opacity="0.5" vector-effect="non-scaling-stroke" stroke-linejoin="bevel" >
<path content="1,西肥自動車（株）,佐世保～（大野経由）～美崎ヶ丘団地～大崎町線,10.5,8.0,7.5," xlink:title="1" d="M12966.7532,-3318.9697L12966.7731,-3318.6215L12966.7792,-3318.5276L12966.3993,-3318.4831L12966.3915,-3318.4823L12966.3846,-3318.4814L12966.3074,-3318.4745L12966.2843,-3318.4733L12966.2623,-3318.4733L12966.2467,-3318.4745L12966.2161,-3318.4794L12966.2094,-3318.4817L12966.19,-3318.4884L12966.1704,-3318.4984L12966.1638,-3318.4913L12966.1531,-3318.4811L12966.1424,-3318.4738L12966.1169,-3318.4653L12966.0781,-3318.4586L12966.0727,-3318.4569L12966.0645,-3318.4555"/>
<path content="1,西肥自動車（株）,佐世保～（日野経由）～相浦ニュータウン～真申～小浦～佐々線,22.5,21.0,18.5," xlink:title="1" d="M12966.8183,-3317.8711L12966.8145,-3317.9367L12966.8104,-3318.0135L12966.8086,-3318.0343L12966.7911,-3318.3563L12966.7892,-3318.3756L12966.7878,-3318.3966L12966.7792,-3318.5276L12966.7731,-3318.6215L12966.7532,-3318.9697"/>
<path content="1,西肥自動車（株）,佐世保～（日野経由）～相浦線,88.5,82.5,73.5," xlink:title="1" d="M12966.8183,-3317.8711L12966.8145,-3317.9367L12966.8104,-3318.0135L12966.8086,-3318.0343L12966.7911,-3318.3563L12966.7892,-3318.3756L12966.7878,-3318.3966L12966.7792,-3318.5276L12966.7731,-3318.6215L12966.7532,-3318.9697"/>
<path content="1,西肥自動車（株）,佐世保～（日野経由）～美崎ヶ丘団地～大崎町線,14.5,13.5,12.5," xlink:title="1" d="M12966.8183,-3317.8711L12966.8145,-3317.9367L12966.8104,-3318.0135L12966.8086,-3318.0343L12966.7911,-3318.3563L12966.7892,-3318.3756L12966.7878,-3318.3966L12966.7792,-3318.5276L12966.3993,-3318.4831L12966.3915,-3318.4823L12966.3846,-3318.4814L12966.3074,-3318.4745L12966.2843,-3318.4733L12966.2623,-3318.4733L12966.2467,-3318.4745L12966.2161,-3318.4794L12966.2094,-3318.4817L12966.19,-3318.4884L12966.1704,-3318.4984L12966.1638,-3318.4913L12966.1531,-3318.4811L12966.1424,-3318.4738L12966.1169,-3318.4653L12966.0781,-3318.4586L12966.0727,-3318.4569L12966.0645,-3318.4555"/>
<path content="1,西肥自動車（株）,相浦循環線,2.5,2.0,1.0," xlink:title="1" d="M12966.8183,-3317.8711L12966.8145,-3317.9367L12966.8104,-3318.0135L12966.8086,-3318.0343L12966.7911,-3318.3563L12966.7892,-3318.3756L12966.7878,-3318.3966L12966.7792,-3318.5276L12966.7731,-3318.6215L12966.7532,-3318.9697"/>
<path content="1,西肥自動車（株）,重尾線,120.7,93.0,89.5," xlink:title="1" d="M12966.7532,-3318.9697L12966.7731,-3318.6215L12966.7792,-3318.5276L12966.7878,-3318.3966L12966.7892,-3318.3756L12966.7911,-3318.3563L12966.8086,-3318.0343L12966.8104,-3318.0135L12966.8145,-3317.9367L12966.8183,-3317.8711"/>
<path content="2,佐世保市,1932_東浜→天日→相浦桟橋,1.0,1.0,1.0," xlink:title="2" d="M12966.7513,-3318.9697L12966.753,-3318.9355L12966.7564,-3318.8977L12966.7564,-3318.8949L12966.7615,-3318.8186L12966.7678,-3318.7123L12966.7731,-3318.6215L12966.7759,-3318.5894L12966.7759,-3318.5781L12966.7792,-3318.5276L12966.7829,-3318.4859L12966.7833,-3318.4814L12966.7878,-3318.3966L12966.7892,-3318.3756L12966.7911,-3318.3563L12966.7946,-3318.308L12966.7951,-3318.2907L12966.7961,-3318.2717L12966.799,-3318.2141L12966.7992,-3318.2092L12966.7994,-3318.1951L12966.8007,-3318.1778L12966.8059,-3318.0678L12966.8069,-3318.0498L12966.8086,-3318.0343L12966.8104,-3318.0135L12966.8145,-3317.9367L12966.8151,-3317.9181L12966.8161,-3317.8886L12966.8174,-3317.8711"/>
<path content="2,佐世保市,1941_相桟→沖新→東浜町,1.0,1.0,1.0," xlink:title="2" d="M12966.7513,-3318.9697L12966.753,-3318.9355L12966.7564,-3318.8977L12966.7564,-3318.8949L12966.7615,-3318.8186L12966.7678,-3318.7123L12966.7731,-3318.6215L12966.7759,-3318.5894L12966.7759,-3318.5781L12966.7792,-3318.5276L12966.7829,-3318.4859L12966.7833,-3318.4814L12966.7878,-3318.3966L12966.7892,-3318.3756L12966.7911,-3318.3563L12966.7946,-3318.308L12966.7951,-3318.2907L12966.7961,-3318.2717L12966.799,-3318.2141L12966.7992,-3318.2092L12966.7994,-3318.1951L12966.8007,-3318.1778L12966.8059,-3318.0678L12966.8069,-3318.0498L12966.8086,-3318.0343L12966.8104,-3318.0135L12966.8145,-3317.9367L12966.8151,-3317.9181L12966.8161,-3317.8886L12966.8174,-3317.8711"/>
<path content="2,佐世保市,3201_矢峰→日・相・本→矢峰,4.0,4.0,4.0," xlink:title="2" d="M12966.7513,-3318.9697L12966.753,-3318.9355L12966.7564,-3318.8977L12966.7564,-3318.8949L12966.7615,-3318.8186L12966.7678,-3318.7123L12966.7731,-3318.6215L12966.7759,-3318.5894L12966.7759,-3318.5781L12966.7792,-3318.5276L12966.7829,-3318.4859L12966.7833,-3318.4814L12966.7878,-3318.3966L12966.7892,-3318.3756L12966.7911,-3318.3563L12966.7946,-3318.308L12966.7951,-3318.2907L12966.7961,-3318.2717L12966.799,-3318.2141L12966.7992,-3318.2092L12966.7994,-3318.1951L12966.8007,-3318.1778L12966.8059,-3318.0678L12966.8069,-3318.0498L12966.8086,-3318.0343L12966.8104,-3318.0135L12966.8145,-3317.9367L12966.8151,-3317.9181L12966.8161,-3317.8886L12966.8174,-3317.8711"/>
<path content="2,佐世保市,3202_矢峰→本相日→矢峰,4.0,4.0,4.0," xlink:title="2" d="M12966.7513,-3318.9697L12966.753,-3318.9355L12966.7564,-3318.8977L12966.7564,-3318.8949L12966.7615,-3318.8186L12966.7678,-3318.7123L12966.7731,-3318.6215L12966.7759,-3318.5894L12966.7759,-3318.5781L12966.7792,-3318.5276L12966.7829,-3318.4859L12966.7833,-3318.4814L12966.7878,-3318.3966L12966.7892,-3318.3756L12966.7911,-3318.3563L12966.7946,-3318.308L12966.7951,-3318.2907L12966.7961,-3318.2717L12966.799,-3318.2141L12966.7992,-3318.2092L12966.7994,-3318.1951L12966.8007,-3318.1778L12966.8059,-3318.0678L12966.8069,-3318.0498L12966.8086,-3318.0343L12966.8104,-3318.0135L12966.8145,-3317.9367L12966.8151,-3317.9181L12966.8161,-3317.8886L12966.8174,-3317.8711"/>
<path content="2,佐世保市,3211_矢峰→日相本→大野,5.0,5.0,5.0," xlink:title="2" d="M12966.7513,-3318.9697L12966.753,-3318.9355L12966.7564,-3318.8977L12966.7564,-3318.8949L12966.7615,-3318.8186L12966.7678,-3318.7123L12966.7731,-3318.6215L12966.7759,-3318.5894L12966.7759,-3318.5781L12966.7792,-3318.5276L12966.7829,-3318.4859L12966.7833,-3318.4814L12966.7878,-3318.3966L12966.7892,-3318.3756L12966.7911,-3318.3563L12966.7946,-3318.308L12966.7951,-3318.2907L12966.7961,-3318.2717L12966.799,-3318.2141L12966.7992,-3318.2092L12966.7994,-3318.1951L12966.8007,-3318.1778L12966.8059,-3318.0678L12966.8069,-3318.0498L12966.8086,-3318.0343L12966.8104,-3318.0135L12966.8145,-3317.9367L12966.8151,-3317.9181L12966.8161,-3317.8886L12966.8174,-3317.8711"/>
<path content="2,佐世保市,3221_大野→日相本→矢峰,5.0,5.0,5.0," xlink:title="2" d="M12966.7513,-3318.9697L12966.753,-3318.9355L12966.7564,-3318.8977L12966.7564,-3318.8949L12966.7615,-3318.8186L12966.7678,-3318.7123L12966.7731,-3318.6215L12966.7759,-3318.5894L12966.7759,-3318.5781L12966.7792,-3318.5276L12966.7829,-3318.4859L12966.7833,-3318.4814L12966.7878,-3318.3966L12966.7892,-3318.3756L12966.7911,-3318.3563L12966.7946,-3318.308L12966.7951,-3318.2907L12966.7961,-3318.2717L12966.799,-3318.2141L12966.7992,-3318.2092L12966.7994,-3318.1951L12966.8007,-3318.1778L12966.8059,-3318.0678L12966.8069,-3318.0498L12966.8086,-3318.0343L12966.8104,-3318.0135L12966.8145,-3317.9367L12966.8151,-3317.9181L12966.8161,-3317.8886L12966.8174,-3317.8711"/>
<path content="2,佐世保市,3222_矢峰→本相日→大野,5.0,5.0,5.0," xlink:title="2" d="M12966.7513,-3318.9697L12966.753,-3318.9355L12966.7564,-3318.8977L12966.7564,-3318.8949L12966.7615,-3318.8186L12966.7678,-3318.7123L12966.7731,-3318.6215L12966.7759,-3318.5894L12966.7759,-3318.5781L12966.7792,-3318.5276L12966.7829,-3318.4859L12966.7833,-3318.4814L12966.7878,-3318.3966L12966.7892,-3318.3756L12966.7911,-3318.3563L12966.7946,-3318.308L12966.7951,-3318.2907L12966.7961,-3318.2717L12966.799,-3318.2141L12966.7992,-3318.2092L12966.7994,-3318.1951L12966.8007,-3318.1778L12966.8059,-3318.0678L12966.8069,-3318.0498L12966.8086,-3318.0343L12966.8104,-3318.0135L12966.8145,-3317.9367L12966.8151,-3317.9181L12966.8161,-3317.8886L12966.8174,-3317.8711"/>
<path content="2,佐世保市,3231_矢峰→Ｓ・相・本→矢峰,6.0,6.0,6.0," xlink:title="2" d="M12966.7513,-3318.9697L12966.753,-3318.9355L12966.7564,-3318.8977L12966.7564,-3318.8949L12966.7615,-3318.8186L12966.7678,-3318.7123L12966.7731,-3318.6215L12966.7759,-3318.5894L12966.7759,-3318.5781L12966.7792,-3318.5276L12966.7829,-3318.4859L12966.7833,-3318.4814L12966.7878,-3318.3966L12966.7892,-3318.3756L12966.7911,-3318.3563L12966.7946,-3318.308L12966.7951,-3318.2907L12966.7961,-3318.2717L12966.799,-3318.2141L12966.7992,-3318.2092L12966.7994,-3318.1951L12966.8007,-3318.1778L12966.8059,-3318.0678L12966.8069,-3318.0498L12966.8086,-3318.0343L12966.8104,-3318.0135L12966.8145,-3317.9367L12966.8151,-3317.9181L12966.8161,-3317.8886L12966.8174,-3317.8711"/>
<path content="2,佐世保市,3232_矢峰→本相Ｓ→矢峰,6.0,6.0,6.0," xlink:title="2" d="M12966.7513,-3318.9697L12966.753,-3318.9355L12966.7564,-3318.8977L12966.7564,-3318.8949L12966.7615,-3318.8186L12966.7678,-3318.7123L12966.7731,-3318.6215L12966.7759,-3318.5894L12966.7759,-3318.5781L12966.7792,-3318.5276L12966.7829,-3318.4859L12966.7833,-3318.4814L12966.7878,-3318.3966L12966.7892,-3318.3756L12966.7911,-3318.3563L12966.7946,-3318.308L12966.7951,-3318.2907L12966.7961,-3318.2717L12966.799,-3318.2141L12966.7992,-3318.2092L12966.7994,-3318.1951L12966.8007,-3318.1778L12966.8059,-3318.0678L12966.8069,-3318.0498L12966.8086,-3318.0343L12966.8104,-3318.0135L12966.8145,-3317.9367L12966.8151,-3317.9181L12966.8161,-3317.8886L12966.8174,-3317.8711"/>
<path content="2,佐世保市,3241_大野→Ｓ相本→矢峰,6.0,5.0,5.0," xlink:title="2" d="M12966.7513,-3318.9697L12966.753,-3318.9355L12966.7564,-3318.8977L12966.7564,-3318.8949L12966.7615,-3318.8186L12966.7678,-3318.7123L12966.7731,-3318.6215L12966.7759,-3318.5894L12966.7759,-3318.5781L12966.7792,-3318.5276L12966.7829,-3318.4859L12966.7833,-3318.4814L12966.7878,-3318.3966L12966.7892,-3318.3756L12966.7911,-3318.3563L12966.7946,-3318.308L12966.7951,-3318.2907L12966.7961,-3318.2717L12966.799,-3318.2141L12966.7992,-3318.2092L12966.7994,-3318.1951L12966.8007,-3318.1778L12966.8059,-3318.0678L12966.8069,-3318.0498L12966.8086,-3318.0343L12966.8104,-3318.0135L12966.8145,-3317.9367L12966.8151,-3317.9181L12966.8161,-3317.8886L12966.8174,-3317.8711"/>
<path content="2,佐世保市,3242_矢峰→本相Ｓ→大野,6.0,5.0,5.0," xlink:title="2" d="M12966.7513,-3318.9697L12966.753,-3318.9355L12966.7564,-3318.8977L12966.7564,-3318.8949L12966.7615,-3318.8186L12966.7678,-3318.7123L12966.7731,-3318.6215L12966.7759,-3318.5894L12966.7759,-3318.5781L12966.7792,-3318.5276L12966.7829,-3318.4859L12966.7833,-3318.4814L12966.7878,-3318.3966L12966.7892,-3318.3756L12966.7911,-3318.3563L12966.7946,-3318.308L12966.7951,-3318.2907L12966.7961,-3318.2717L12966.799,-3318.2141L12966.7992,-3318.2092L12966.7994,-3318.1951L12966.8007,-3318.1778L12966.8059,-3318.0678L12966.8069,-3318.0498L12966.8086,-3318.0343L12966.8104,-3318.0135L12966.8145,-3317.9367L12966.8151,-3317.9181L12966.8161,-3317.8886L12966.8174,-3317.8711"/>
<path content="2,佐世保市,3251_大野→Ｓ相本→大野,5.0,5.0,5.0," xlink:title="2" d="M12966.7513,-3318.9697L12966.753,-3318.9355L12966.7564,-3318.8977L12966.7564,-3318.8949L12966.7615,-3318.8186L12966.7678,-3318.7123L12966.7731,-3318.6215L12966.7759,-3318.5894L12966.7759,-3318.5781L12966.7792,-3318.5276L12966.7829,-3318.4859L12966.7833,-3318.4814L12966.7878,-3318.3966L12966.7892,-3318.3756L12966.7911,-3318.3563L12966.7946,-3318.308L12966.7951,-3318.2907L12966.7961,-3318.2717L12966.799,-3318.2141L12966.7992,-3318.2092L12966.7994,-3318.1951L12966.8007,-3318.1778L12966.8059,-3318.0678L12966.8069,-3318.0498L12966.8086,-3318.0343L12966.8104,-3318.0135L12966.8145,-3317.9367L12966.8151,-3317.9181L12966.8161,-3317.8886L12966.8174,-3317.8711"/>
<path content="2,佐世保市,3271_矢峰→Ｓ・相・本→大野,5.0,5.0,5.0," xlink:title="2" d="M12966.7513,-3318.9697L12966.753,-3318.9355L12966.7564,-3318.8977L12966.7564,-3318.8949L12966.7615,-3318.8186L12966.7678,-3318.7123L12966.7731,-3318.6215L12966.7759,-3318.5894L12966.7759,-3318.5781L12966.7792,-3318.5276L12966.7829,-3318.4859L12966.7833,-3318.4814L12966.7878,-3318.3966L12966.7892,-3318.3756L12966.7911,-3318.3563L12966.7946,-3318.308L12966.7951,-3318.2907L12966.7961,-3318.2717L12966.799,-3318.2141L12966.7992,-3318.2092L12966.7994,-3318.1951L12966.8007,-3318.1778L12966.8059,-3318.0678L12966.8069,-3318.0498L12966.8086,-3318.0343L12966.8104,-3318.0135L12966.8145,-3317.9367L12966.8151,-3317.9181L12966.8161,-3317.8886L12966.8174,-3317.8711"/>
<path content="2,佐世保市,5561_佐駅→日野→真申,1.0,1.0,1.0," xlink:title="2" d="M12966.8174,-3317.8711L12966.8161,-3317.8886L12966.8151,-3317.9181L12966.8145,-3317.9367L12966.8104,-3318.0135L12966.8086,-3318.0343L12966.8069,-3318.0498L12966.8059,-3318.0678L12966.8007,-3318.1778L12966.7994,-3318.1951L12966.7992,-3318.2092L12966.799,-3318.2141L12966.7961,-3318.2717L12966.7951,-3318.2907L12966.7946,-3318.308L12966.7911,-3318.3563L12966.7892,-3318.3756L12966.7878,-3318.3966L12966.7833,-3318.4814L12966.7829,-3318.4859L12966.7792,-3318.5276L12966.7759,-3318.5781L12966.7759,-3318.5894L12966.7731,-3318.6215L12966.7678,-3318.7123L12966.7615,-3318.8186L12966.7564,-3318.8949L12966.7564,-3318.8977L12966.753,-3318.9355L12966.7513,-3318.9697"/>
<path content="2,佐世保市,5571_黒髪→日野→真申,3.0,3.0,3.0," xlink:title="2" d="M12966.8174,-3317.8711L12966.8161,-3317.8886L12966.8151,-3317.9181L12966.8145,-3317.9367L12966.8104,-3318.0135L12966.8086,-3318.0343L12966.8069,-3318.0498L12966.8059,-3318.0678L12966.8007,-3318.1778L12966.7994,-3318.1951L12966.7992,-3318.2092L12966.799,-3318.2141L12966.7961,-3318.2717L12966.7951,-3318.2907L12966.7946,-3318.308L12966.7911,-3318.3563L12966.7892,-3318.3756L12966.7878,-3318.3966L12966.7833,-3318.4814L12966.7829,-3318.4859L12966.7792,-3318.5276L12966.7759,-3318.5781L12966.7759,-3318.5894L12966.7731,-3318.6215L12966.7678,-3318.7123L12966.7615,-3318.8186L12966.7564,-3318.8949L12966.7564,-3318.8977L12966.753,-3318.9355L12966.7513,-3318.9697"/>
<path content="2,佐世保市,5581_佐駅→日ニュ→真申,4.0,4.0,4.0," xlink:title="2" d="M12966.8174,-3317.8711L12966.8161,-3317.8886L12966.8151,-3317.9181L12966.8145,-3317.9367L12966.8104,-3318.0135L12966.8086,-3318.0343L12966.8069,-3318.0498L12966.8059,-3318.0678L12966.8007,-3318.1778L12966.7994,-3318.1951L12966.7992,-3318.2092L12966.799,-3318.2141L12966.7961,-3318.2717L12966.7951,-3318.2907L12966.7946,-3318.308L12966.7911,-3318.3563L12966.7892,-3318.3756L12966.7878,-3318.3966L12966.7833,-3318.4814L12966.7829,-3318.4859L12966.7792,-3318.5276L12966.7759,-3318.5781L12966.7759,-3318.5894L12966.7731,-3318.6215L12966.7678,-3318.7123L12966.7615,-3318.8186L12966.7564,-3318.8949L12966.7564,-3318.8977L12966.753,-3318.9355L12966.7513,-3318.9697"/>
<path content="2,佐世保市,5582_真申→ニュ日→佐駅,5.0,5.0,5.0," xlink:title="2" d="M12966.8174,-3317.8711L12966.8161,-3317.8886L12966.8151,-3317.9181L12966.8145,-3317.9367L12966.8104,-3318.0135L12966.8086,-3318.0343L12966.8069,-3318.0498L12966.8059,-3318.0678L12966.8007,-3318.1778L12966.7994,-3318.1951L12966.7992,-3318.2092L12966.799,-3318.2141L12966.7961,-3318.2717L12966.7951,-3318.2907L12966.7946,-3318.308L12966.7911,-3318.3563L12966.7892,-3318.3756L12966.7878,-3318.3966L12966.7833,-3318.4814L12966.7829,-3318.4859L12966.7792,-3318.5276L12966.7759,-3318.5781L12966.7759,-3318.5894L12966.7731,-3318.6215L12966.7678,-3318.7123L12966.7615,-3318.8186L12966.7564,-3318.8949L12966.7564,-3318.8977L12966.753,-3318.9355L12966.7513,-3318.9697"/>
<path content="2,佐世保市,5591_黒髪→日ニュ→真申,2.0,2.0,2.0," xlink:title="2" d="M12966.8174,-3317.8711L12966.8161,-3317.8886L12966.8151,-3317.9181L12966.8145,-3317.9367L12966.8104,-3318.0135L12966.8086,-3318.0343L12966.8069,-3318.0498L12966.8059,-3318.0678L12966.8007,-3318.1778L12966.7994,-3318.1951L12966.7992,-3318.2092L12966.799,-3318.2141L12966.7961,-3318.2717L12966.7951,-3318.2907L12966.7946,-3318.308L12966.7911,-3318.3563L12966.7892,-3318.3756L12966.7878,-3318.3966L12966.7833,-3318.4814L12966.7829,-3318.4859L12966.7792,-3318.5276L12966.7759,-3318.5781L12966.7759,-3318.5894L12966.7731,-3318.6215L12966.7678,-3318.7123L12966.7615,-3318.8186L12966.7564,-3318.8949L12966.7564,-3318.8977L12966.753,-3318.9355L12966.7513,-3318.9697"/>
<path content="2,佐世保市,5592_真申→ニュ日→黒髪,2.0,2.0,2.0," xlink:title="2" d="M12966.8174,-3317.8711L12966.8161,-3317.8886L12966.8151,-3317.9181L12966.8145,-3317.9367L12966.8104,-3318.0135L12966.8086,-3318.0343L12966.8069,-3318.0498L12966.8059,-3318.0678L12966.8007,-3318.1778L12966.7994,-3318.1951L12966.7992,-3318.2092L12966.799,-3318.2141L12966.7961,-3318.2717L12966.7951,-3318.2907L12966.7946,-3318.308L12966.7911,-3318.3563L12966.7892,-3318.3756L12966.7878,-3318.3966L12966.7833,-3318.4814L12966.7829,-3318.4859L12966.7792,-3318.5276L12966.7759,-3318.5781L12966.7759,-3318.5894L12966.7731,-3318.6215L12966.7678,-3318.7123L12966.7615,-3318.8186L12966.7564,-3318.8949L12966.7564,-3318.8977L12966.753,-3318.9355L12966.7513,-3318.9697"/>
<path content="2,佐世保市,5601_場入→日ニュ→真申,5.0,5.0,5.0," xlink:title="2" d="M12966.8174,-3317.8711L12966.8161,-3317.8886L12966.8151,-3317.9181L12966.8145,-3317.9367L12966.8104,-3318.0135L12966.8086,-3318.0343L12966.8069,-3318.0498L12966.8059,-3318.0678L12966.8007,-3318.1778L12966.7994,-3318.1951L12966.7992,-3318.2092L12966.799,-3318.2141L12966.7961,-3318.2717L12966.7951,-3318.2907L12966.7946,-3318.308L12966.7911,-3318.3563L12966.7892,-3318.3756L12966.7878,-3318.3966L12966.7833,-3318.4814L12966.7829,-3318.4859L12966.7792,-3318.5276L12966.7759,-3318.5781L12966.7759,-3318.5894L12966.7731,-3318.6215L12966.7678,-3318.7123L12966.7615,-3318.8186L12966.7564,-3318.8949L12966.7564,-3318.8977L12966.753,-3318.9355L12966.7513,-3318.9697"/>
<path content="2,佐世保市,5611_場入→日→真申,5.0,5.0,5.0," xlink:title="2" d="M12966.8174,-3317.8711L12966.8161,-3317.8886L12966.8151,-3317.9181L12966.8145,-3317.9367L12966.8104,-3318.0135L12966.8086,-3318.0343L12966.8069,-3318.0498L12966.8059,-3318.0678L12966.8007,-3318.1778L12966.7994,-3318.1951L12966.7992,-3318.2092L12966.799,-3318.2141L12966.7961,-3318.2717L12966.7951,-3318.2907L12966.7946,-3318.308L12966.7911,-3318.3563L12966.7892,-3318.3756L12966.7878,-3318.3966L12966.7833,-3318.4814L12966.7829,-3318.4859L12966.7792,-3318.5276L12966.7759,-3318.5781L12966.7759,-3318.5894L12966.7731,-3318.6215L12966.7678,-3318.7123L12966.7615,-3318.8186L12966.7564,-3318.8949L12966.7564,-3318.8977L12966.753,-3318.9355L12966.7513,-3318.9697"/>
<path content="2,佐世保市,5671_佐駅→日野→相桟,12.0,12.0,12.0," xlink:title="2" d="M12966.7513,-3318.9697L12966.753,-3318.9355L12966.7564,-3318.8977L12966.7564,-3318.8949L12966.7615,-3318.8186L12966.7678,-3318.7123L12966.7731,-3318.6215L12966.7759,-3318.5894L12966.7759,-3318.5781L12966.7792,-3318.5276L12966.7829,-3318.4859L12966.7833,-3318.4814L12966.7878,-3318.3966L12966.7892,-3318.3756L12966.7911,-3318.3563L12966.7946,-3318.308L12966.7951,-3318.2907L12966.7961,-3318.2717L12966.799,-3318.2141L12966.7992,-3318.2092L12966.7994,-3318.1951L12966.8007,-3318.1778L12966.8059,-3318.0678L12966.8069,-3318.0498L12966.8086,-3318.0343L12966.8104,-3318.0135L12966.8145,-3317.9367L12966.8151,-3317.9181L12966.8161,-3317.8886L12966.8174,-3317.8711"/>
<path content="2,佐世保市,5672_相桟→日野→佐駅,5.0,5.0,5.0," xlink:title="2" d="M12966.7513,-3318.9697L12966.753,-3318.9355L12966.7564,-3318.8977L12966.7564,-3318.8949L12966.7615,-3318.8186L12966.7678,-3318.7123L12966.7731,-3318.6215L12966.7759,-3318.5894L12966.7759,-3318.5781L12966.7792,-3318.5276L12966.7829,-3318.4859L12966.7833,-3318.4814L12966.7878,-3318.3966L12966.7892,-3318.3756L12966.7911,-3318.3563L12966.7946,-3318.308L12966.7951,-3318.2907L12966.7961,-3318.2717L12966.799,-3318.2141L12966.7992,-3318.2092L12966.7994,-3318.1951L12966.8007,-3318.1778L12966.8059,-3318.0678L12966.8069,-3318.0498L12966.8086,-3318.0343L12966.8104,-3318.0135L12966.8145,-3317.9367L12966.8151,-3317.9181L12966.8161,-3317.8886L12966.8174,-3317.8711"/>
<path content="2,佐世保市,5681_黒髪→日野→相桟,9.0,9.0,9.0," xlink:title="2" d="M12966.7513,-3318.9697L12966.753,-3318.9355L12966.7564,-3318.8977L12966.7564,-3318.8949L12966.7615,-3318.8186L12966.7678,-3318.7123L12966.7731,-3318.6215L12966.7759,-3318.5894L12966.7759,-3318.5781L12966.7792,-3318.5276L12966.7829,-3318.4859L12966.7833,-3318.4814L12966.7878,-3318.3966L12966.7892,-3318.3756L12966.7911,-3318.3563L12966.7946,-3318.308L12966.7951,-3318.2907L12966.7961,-3318.2717L12966.799,-3318.2141L12966.7992,-3318.2092L12966.7994,-3318.1951L12966.8007,-3318.1778L12966.8059,-3318.0678L12966.8069,-3318.0498L12966.8086,-3318.0343L12966.8104,-3318.0135L12966.8145,-3317.9367L12966.8151,-3317.9181L12966.8161,-3317.8886L12966.8174,-3317.8711"/>
<path content="2,佐世保市,5682_相桟→日野→黒髪,5.0,5.0,5.0," xlink:title="2" d="M12966.7513,-3318.9697L12966.753,-3318.9355L12966.7564,-3318.8977L12966.7564,-3318.8949L12966.7615,-3318.8186L12966.7678,-3318.7123L12966.7731,-3318.6215L12966.7759,-3318.5894L12966.7759,-3318.5781L12966.7792,-3318.5276L12966.7829,-3318.4859L12966.7833,-3318.4814L12966.7878,-3318.3966L12966.7892,-3318.3756L12966.7911,-3318.3563L12966.7946,-3318.308L12966.7951,-3318.2907L12966.7961,-3318.2717L12966.799,-3318.2141L12966.7992,-3318.2092L12966.7994,-3318.1951L12966.8007,-3318.1778L12966.8059,-3318.0678L12966.8069,-3318.0498L12966.8086,-3318.0343L12966.8104,-3318.0135L12966.8145,-3317.9367L12966.8151,-3317.9181L12966.8161,-3317.8886L12966.8174,-3317.8711"/>
<path content="2,佐世保市,5691_場入→日野→相桟,5.0,5.0,5.0," xlink:title="2" d="M12966.7513,-3318.9697L12966.753,-3318.9355L12966.7564,-3318.8977L12966.7564,-3318.8949L12966.7615,-3318.8186L12966.7678,-3318.7123L12966.7731,-3318.6215L12966.7759,-3318.5894L12966.7759,-3318.5781L12966.7792,-3318.5276L12966.7829,-3318.4859L12966.7833,-3318.4814L12966.7878,-3318.3966L12966.7892,-3318.3756L12966.7911,-3318.3563L12966.7946,-3318.308L12966.7951,-3318.2907L12966.7961,-3318.2717L12966.799,-3318.2141L12966.7992,-3318.2092L12966.7994,-3318.1951L12966.8007,-3318.1778L12966.8059,-3318.0678L12966.8069,-3318.0498L12966.8086,-3318.0343L12966.8104,-3318.0135L12966.8145,-3317.9367L12966.8151,-3317.9181L12966.8161,-3317.8886L12966.8174,-3317.8711"/>
<path content="2,佐世保市,5692_相桟→日野→場入,5.0,5.0,5.0," xlink:title="2" d="M12966.7513,-3318.9697L12966.753,-3318.9355L12966.7564,-3318.8977L12966.7564,-3318.8949L12966.7615,-3318.8186L12966.7678,-3318.7123L12966.7731,-3318.6215L12966.7759,-3318.5894L12966.7759,-3318.5781L12966.7792,-3318.5276L12966.7829,-3318.4859L12966.7833,-3318.4814L12966.7878,-3318.3966L12966.7892,-3318.3756L12966.7911,-3318.3563L12966.7946,-3318.308L12966.7951,-3318.2907L12966.7961,-3318.2717L12966.799,-3318.2141L12966.7992,-3318.2092L12966.7994,-3318.1951L12966.8007,-3318.1778L12966.8059,-3318.0678L12966.8069,-3318.0498L12966.8086,-3318.0343L12966.8104,-3318.0135L12966.8145,-3317.9367L12966.8151,-3317.9181L12966.8161,-3317.8886L12966.8174,-3317.8711"/>
<path content="2,佐世保市,5701_食品団地会館→もみじ・日野峠→相浦桟橋,5.0,5.0,5.0," xlink:title="2" d="M12966.7513,-3318.9697L12966.753,-3318.9355L12966.7564,-3318.8977L12966.7564,-3318.8949L12966.7615,-3318.8186L12966.7678,-3318.7123L12966.7731,-3318.6215L12966.7759,-3318.5894L12966.7759,-3318.5781L12966.7792,-3318.5276L12966.7829,-3318.4859L12966.7833,-3318.4814L12966.7878,-3318.3966L12966.7892,-3318.3756L12966.7911,-3318.3563L12966.7946,-3318.308L12966.7951,-3318.2907L12966.7961,-3318.2717L12966.799,-3318.2141L12966.7992,-3318.2092L12966.7994,-3318.1951L12966.8007,-3318.1778L12966.8059,-3318.0678L12966.8069,-3318.0498L12966.8086,-3318.0343L12966.8104,-3318.0135L12966.8145,-3317.9367L12966.8151,-3317.9181L12966.8161,-3317.8886L12966.8174,-3317.8711"/>
<path content="2,佐世保市,5702_相桟→日野・もみじ→食品団地会館,5.0,5.0,5.0," xlink:title="2" d="M12966.7513,-3318.9697L12966.753,-3318.9355L12966.7564,-3318.8977L12966.7564,-3318.8949L12966.7615,-3318.8186L12966.7678,-3318.7123L12966.7731,-3318.6215L12966.7759,-3318.5894L12966.7759,-3318.5781L12966.7792,-3318.5276L12966.7829,-3318.4859L12966.7833,-3318.4814L12966.7878,-3318.3966L12966.7892,-3318.3756L12966.7911,-3318.3563L12966.7946,-3318.308L12966.7951,-3318.2907L12966.7961,-3318.2717L12966.799,-3318.2141L12966.7992,-3318.2092L12966.7994,-3318.1951L12966.8007,-3318.1778L12966.8059,-3318.0678L12966.8069,-3318.0498L12966.8086,-3318.0343L12966.8104,-3318.0135L12966.8145,-3317.9367L12966.8151,-3317.9181L12966.8161,-3317.8886L12966.8174,-3317.8711"/>
<path content="2,佐世保市,5712_相桟→日藤バ→卸団地,5.0,5.0,5.0," xlink:title="2" d="M12966.7513,-3318.9697L12966.753,-3318.9355L12966.7564,-3318.8977L12966.7564,-3318.8949L12966.7615,-3318.8186L12966.7678,-3318.7123L12966.7731,-3318.6215L12966.7759,-3318.5894L12966.7759,-3318.5781L12966.7792,-3318.5276L12966.7829,-3318.4859L12966.7833,-3318.4814L12966.7878,-3318.3966L12966.7892,-3318.3756L12966.7911,-3318.3563L12966.7946,-3318.308L12966.7951,-3318.2907L12966.7961,-3318.2717L12966.799,-3318.2141L12966.7992,-3318.2092L12966.7994,-3318.1951L12966.8007,-3318.1778L12966.8059,-3318.0678L12966.8069,-3318.0498L12966.8086,-3318.0343L12966.8104,-3318.0135L12966.8145,-3317.9367L12966.8151,-3317.9181L12966.8161,-3317.8886L12966.8174,-3317.8711"/>
<path content="2,佐世保市,5722_相桟→日野→沖新町,5.0,5.0,5.0," xlink:title="2" d="M12966.7513,-3318.9697L12966.753,-3318.9355L12966.7564,-3318.8977L12966.7564,-3318.8949L12966.7615,-3318.8186L12966.7678,-3318.7123L12966.7731,-3318.6215L12966.7759,-3318.5894L12966.7759,-3318.5781L12966.7792,-3318.5276L12966.7829,-3318.4859L12966.7833,-3318.4814L12966.7878,-3318.3966L12966.7892,-3318.3756L12966.7911,-3318.3563L12966.7946,-3318.308L12966.7951,-3318.2907L12966.7961,-3318.2717L12966.799,-3318.2141L12966.7992,-3318.2092L12966.7994,-3318.1951L12966.8007,-3318.1778L12966.8059,-3318.0678L12966.8069,-3318.0498L12966.8086,-3318.0343L12966.8104,-3318.0135L12966.8145,-3317.9367L12966.8151,-3317.9181L12966.8161,-3317.8886L12966.8174,-3317.8711"/>
<path content="2,佐世保市,5731_場入→Ｓ・潟→相桟,5.0,5.0,5.0," xlink:title="2" d="M12966.8174,-3317.8711L12966.8161,-3317.8886L12966.8151,-3317.9181L12966.8145,-3317.9367L12966.8104,-3318.0135L12966.8086,-3318.0343L12966.8069,-3318.0498L12966.8059,-3318.0678L12966.8007,-3318.1778L12966.7994,-3318.1951L12966.7992,-3318.2092L12966.799,-3318.2141L12966.7961,-3318.2717L12966.7951,-3318.2907L12966.7946,-3318.308L12966.7911,-3318.3563L12966.7892,-3318.3756L12966.7878,-3318.3966L12966.7833,-3318.4814L12966.7829,-3318.4859L12966.7792,-3318.5276L12966.6517,-3318.5122L12966.6329,-3318.51L12966.3993,-3318.4831L12966.3915,-3318.4823L12966.3846,-3318.4814L12966.3074,-3318.4745L12966.2843,-3318.4733L12966.2623,-3318.4733L12966.2467,-3318.4745L12966.2161,-3318.4794L12966.2094,-3318.4817L12966.19,-3318.4884L12966.1704,-3318.4984L12966.1564,-3318.5076L12966.1424,-3318.5223L12966.1216,-3318.5505L12966.0645,-3318.6455"/>
<path content="2,佐世保市,5741_十郎原→Ｓ→相桟,5.0,5.0,5.0," xlink:title="2" d="M12966.8174,-3317.8711L12966.8161,-3317.8886L12966.8151,-3317.9181L12966.8145,-3317.9367L12966.8104,-3318.0135L12966.8086,-3318.0343L12966.8069,-3318.0498L12966.8059,-3318.0678L12966.8007,-3318.1778L12966.7994,-3318.1951L12966.7992,-3318.2092L12966.799,-3318.2141L12966.7961,-3318.2717L12966.7951,-3318.2907L12966.7946,-3318.308L12966.7911,-3318.3563L12966.7892,-3318.3756L12966.7878,-3318.3966L12966.7833,-3318.4814L12966.7829,-3318.4859L12966.7792,-3318.5276L12966.7759,-3318.5781L12966.7759,-3318.5894L12966.7731,-3318.6215L12966.7678,-3318.7123L12966.7615,-3318.8186L12966.7564,-3318.8949L12966.7564,-3318.8977L12966.753,-3318.9355L12966.7513,-3318.9697"/>
<path content="2,佐世保市,5751_場入→日野→製氷,5.0,5.0,5.0," xlink:title="2" d="M12966.7513,-3318.9697L12966.753,-3318.9355L12966.7564,-3318.8977L12966.7564,-3318.8949L12966.7615,-3318.8186L12966.7678,-3318.7123L12966.7731,-3318.6215L12966.7759,-3318.5894L12966.7759,-3318.5781L12966.7792,-3318.5276L12966.7829,-3318.4859L12966.7833,-3318.4814L12966.7878,-3318.3966L12966.7892,-3318.3756L12966.7911,-3318.3563L12966.7946,-3318.308L12966.7951,-3318.2907L12966.7961,-3318.2717L12966.799,-3318.2141L12966.7992,-3318.2092L12966.7994,-3318.1951L12966.8007,-3318.1778L12966.8059,-3318.0678L12966.8069,-3318.0498L12966.8086,-3318.0343L12966.8104,-3318.0135L12966.8145,-3317.9367L12966.8151,-3317.9181L12966.8161,-3317.8886L12966.8174,-3317.8711"/>
<path content="2,佐世保市,5761_佐駅→日野→製氷,10.0,10.0,10.0," xlink:title="2" d="M12966.7513,-3318.9697L12966.753,-3318.9355L12966.7564,-3318.8977L12966.7564,-3318.8949L12966.7615,-3318.8186L12966.7678,-3318.7123L12966.7731,-3318.6215L12966.7759,-3318.5894L12966.7759,-3318.5781L12966.7792,-3318.5276L12966.7829,-3318.4859L12966.7833,-3318.4814L12966.7878,-3318.3966L12966.7892,-3318.3756L12966.7911,-3318.3563L12966.7946,-3318.308L12966.7951,-3318.2907L12966.7961,-3318.2717L12966.799,-3318.2141L12966.7992,-3318.2092L12966.7994,-3318.1951L12966.8007,-3318.1778L12966.8059,-3318.0678L12966.8069,-3318.0498L12966.8086,-3318.0343L12966.8104,-3318.0135L12966.8145,-3317.9367L12966.8151,-3317.9181L12966.8161,-3317.8886L12966.8174,-3317.8711"/>
<path content="2,佐世保市,5762_相氷→日野→佐駅,5.0,5.0,5.0," xlink:title="2" d="M12966.7513,-3318.9697L12966.753,-3318.9355L12966.7564,-3318.8977L12966.7564,-3318.8949L12966.7615,-3318.8186L12966.7678,-3318.7123L12966.7731,-3318.6215L12966.7759,-3318.5894L12966.7759,-3318.5781L12966.7792,-3318.5276L12966.7829,-3318.4859L12966.7833,-3318.4814L12966.7878,-3318.3966L12966.7892,-3318.3756L12966.7911,-3318.3563L12966.7946,-3318.308L12966.7951,-3318.2907L12966.7961,-3318.2717L12966.799,-3318.2141L12966.7992,-3318.2092L12966.7994,-3318.1951L12966.8007,-3318.1778L12966.8059,-3318.0678L12966.8069,-3318.0498L12966.8086,-3318.0343L12966.8104,-3318.0135L12966.8145,-3317.9367L12966.8151,-3317.9181L12966.8161,-3317.8886L12966.8174,-3317.8711"/>
<path content="2,佐世保市,5771_黒髪→日野→相氷,9.0,9.0,9.0," xlink:title="2" d="M12966.7513,-3318.9697L12966.753,-3318.9355L12966.7564,-3318.8977L12966.7564,-3318.8949L12966.7615,-3318.8186L12966.7678,-3318.7123L12966.7731,-3318.6215L12966.7759,-3318.5894L12966.7759,-3318.5781L12966.7792,-3318.5276L12966.7829,-3318.4859L12966.7833,-3318.4814L12966.7878,-3318.3966L12966.7892,-3318.3756L12966.7911,-3318.3563L12966.7946,-3318.308L12966.7951,-3318.2907L12966.7961,-3318.2717L12966.799,-3318.2141L12966.7992,-3318.2092L12966.7994,-3318.1951L12966.8007,-3318.1778L12966.8059,-3318.0678L12966.8069,-3318.0498L12966.8086,-3318.0343L12966.8104,-3318.0135L12966.8145,-3317.9367L12966.8151,-3317.9181L12966.8161,-3317.8886L12966.8174,-3317.8711"/>
<path content="2,佐世保市,5772_相氷→日野→黒髪,5.0,5.0,5.0," xlink:title="2" d="M12966.7513,-3318.9697L12966.753,-3318.9355L12966.7564,-3318.8977L12966.7564,-3318.8949L12966.7615,-3318.8186L12966.7678,-3318.7123L12966.7731,-3318.6215L12966.7759,-3318.5894L12966.7759,-3318.5781L12966.7792,-3318.5276L12966.7829,-3318.4859L12966.7833,-3318.4814L12966.7878,-3318.3966L12966.7892,-3318.3756L12966.7911,-3318.3563L12966.7946,-3318.308L12966.7951,-3318.2907L12966.7961,-3318.2717L12966.799,-3318.2141L12966.7992,-3318.2092L12966.7994,-3318.1951L12966.8007,-3318.1778L12966.8059,-3318.0678L12966.8069,-3318.0498L12966.8086,-3318.0343L12966.8104,-3318.0135L12966.8145,-3317.9367L12966.8151,-3317.9181L12966.8161,-3317.8886L12966.8174,-3317.8711"/>
<path content="2,佐世保市,5781_食品団地会館→日野→相浦製氷会社前,2.0,2.0,2.0," xlink:title="2" d="M12966.7513,-3318.9697L12966.753,-3318.9355L12966.7564,-3318.8977L12966.7564,-3318.8949L12966.7615,-3318.8186L12966.7678,-3318.7123L12966.7731,-3318.6215L12966.7759,-3318.5894L12966.7759,-3318.5781L12966.7792,-3318.5276L12966.7829,-3318.4859L12966.7833,-3318.4814L12966.7878,-3318.3966L12966.7892,-3318.3756L12966.7911,-3318.3563L12966.7946,-3318.308L12966.7951,-3318.2907L12966.7961,-3318.2717L12966.799,-3318.2141L12966.7992,-3318.2092L12966.7994,-3318.1951L12966.8007,-3318.1778L12966.8059,-3318.0678L12966.8069,-3318.0498L12966.8086,-3318.0343L12966.8104,-3318.0135L12966.8145,-3317.9367L12966.8151,-3317.9181L12966.8161,-3317.8886L12966.8174,-3317.8711"/>
<path content="2,佐世保市,5782_相氷→日野・もみじ→食品団地会館,5.0,5.0,5.0," xlink:title="2" d="M12966.7513,-3318.9697L12966.753,-3318.9355L12966.7564,-3318.8977L12966.7564,-3318.8949L12966.7615,-3318.8186L12966.7678,-3318.7123L12966.7731,-3318.6215L12966.7759,-3318.5894L12966.7759,-3318.5781L12966.7792,-3318.5276L12966.7829,-3318.4859L12966.7833,-3318.4814L12966.7878,-3318.3966L12966.7892,-3318.3756L12966.7911,-3318.3563L12966.7946,-3318.308L12966.7951,-3318.2907L12966.7961,-3318.2717L12966.799,-3318.2141L12966.7992,-3318.2092L12966.7994,-3318.1951L12966.8007,-3318.1778L12966.8059,-3318.0678L12966.8069,-3318.0498L12966.8086,-3318.0343L12966.8104,-3318.0135L12966.8145,-3317.9367L12966.8151,-3317.9181L12966.8161,-3317.8886L12966.8174,-3317.8711"/>
<path content="2,佐世保市,5791_黒髪→日・潟→相桟,9.0,9.0,9.0," xlink:title="2" d="M12966.8174,-3317.8711L12966.8161,-3317.8886L12966.8151,-3317.9181L12966.8145,-3317.9367L12966.8104,-3318.0135L12966.8086,-3318.0343L12966.8069,-3318.0498L12966.8059,-3318.0678L12966.8007,-3318.1778L12966.7994,-3318.1951L12966.7992,-3318.2092L12966.799,-3318.2141L12966.7961,-3318.2717L12966.7951,-3318.2907L12966.7946,-3318.308L12966.7911,-3318.3563L12966.7892,-3318.3756L12966.7878,-3318.3966L12966.7833,-3318.4814L12966.7829,-3318.4859L12966.7792,-3318.5276L12966.6517,-3318.5122L12966.6329,-3318.51L12966.3993,-3318.4831L12966.3915,-3318.4823L12966.3846,-3318.4814L12966.3074,-3318.4745L12966.2843,-3318.4733L12966.2623,-3318.4733L12966.2467,-3318.4745L12966.2161,-3318.4794L12966.2094,-3318.4817L12966.19,-3318.4884L12966.1704,-3318.4984L12966.1564,-3318.5076L12966.1424,-3318.5223L12966.1216,-3318.5505L12966.0645,-3318.6455"/>
<path content="2,佐世保市,5792_相桟→潟・日→黒髪,5.0,5.0,5.0," xlink:title="2" d="M12966.8174,-3317.8711L12966.8161,-3317.8886L12966.8151,-3317.9181L12966.8145,-3317.9367L12966.8104,-3318.0135L12966.8086,-3318.0343L12966.8069,-3318.0498L12966.8059,-3318.0678L12966.8007,-3318.1778L12966.7994,-3318.1951L12966.7992,-3318.2092L12966.799,-3318.2141L12966.7961,-3318.2717L12966.7951,-3318.2907L12966.7946,-3318.308L12966.7911,-3318.3563L12966.7892,-3318.3756L12966.7878,-3318.3966L12966.7833,-3318.4814L12966.7829,-3318.4859L12966.7792,-3318.5276L12966.6517,-3318.5122L12966.6329,-3318.51L12966.3993,-3318.4831L12966.3915,-3318.4823L12966.3846,-3318.4814L12966.3074,-3318.4745L12966.2843,-3318.4733L12966.2623,-3318.4733L12966.2467,-3318.4745L12966.2161,-3318.4794L12966.2094,-3318.4817L12966.19,-3318.4884L12966.1704,-3318.4984L12966.1564,-3318.5076L12966.1424,-3318.5223L12966.1216,-3318.5505L12966.0645,-3318.6455"/>
<path content="2,佐世保市,5801_佐駅→日・潟→相桟,10.0,10.0,10.0," xlink:title="2" d="M12966.8174,-3317.8711L12966.8161,-3317.8886L12966.8151,-3317.9181L12966.8145,-3317.9367L12966.8104,-3318.0135L12966.8086,-3318.0343L12966.8069,-3318.0498L12966.8059,-3318.0678L12966.8007,-3318.1778L12966.7994,-3318.1951L12966.7992,-3318.2092L12966.799,-3318.2141L12966.7961,-3318.2717L12966.7951,-3318.2907L12966.7946,-3318.308L12966.7911,-3318.3563L12966.7892,-3318.3756L12966.7878,-3318.3966L12966.7833,-3318.4814L12966.7829,-3318.4859L12966.7792,-3318.5276L12966.6517,-3318.5122L12966.6329,-3318.51L12966.3993,-3318.4831L12966.3915,-3318.4823L12966.3846,-3318.4814L12966.3074,-3318.4745L12966.2843,-3318.4733L12966.2623,-3318.4733L12966.2467,-3318.4745L12966.2161,-3318.4794L12966.2094,-3318.4817L12966.19,-3318.4884L12966.1704,-3318.4984L12966.1564,-3318.5076L12966.1424,-3318.5223L12966.1216,-3318.5505L12966.0645,-3318.6455"/>
<path content="2,佐世保市,5802_相桟→潟・日→佐駅,5.0,5.0,5.0," xlink:title="2" d="M12966.8174,-3317.8711L12966.8161,-3317.8886L12966.8151,-3317.9181L12966.8145,-3317.9367L12966.8104,-3318.0135L12966.8086,-3318.0343L12966.8069,-3318.0498L12966.8059,-3318.0678L12966.8007,-3318.1778L12966.7994,-3318.1951L12966.7992,-3318.2092L12966.799,-3318.2141L12966.7961,-3318.2717L12966.7951,-3318.2907L12966.7946,-3318.308L12966.7911,-3318.3563L12966.7892,-3318.3756L12966.7878,-3318.3966L12966.7833,-3318.4814L12966.7829,-3318.4859L12966.7792,-3318.5276L12966.6517,-3318.5122L12966.6329,-3318.51L12966.3993,-3318.4831L12966.3915,-3318.4823L12966.3846,-3318.4814L12966.3074,-3318.4745L12966.2843,-3318.4733L12966.2623,-3318.4733L12966.2467,-3318.4745L12966.2161,-3318.4794L12966.2094,-3318.4817L12966.19,-3318.4884L12966.1704,-3318.4984L12966.1564,-3318.5076L12966.1424,-3318.5223L12966.1216,-3318.5505L12966.0645,-3318.6455"/>
<path content="2,佐世保市,5811_場入→日・潟→相桟,5.0,5.0,5.0," xlink:title="2" d="M12966.8174,-3317.8711L12966.8161,-3317.8886L12966.8151,-3317.9181L12966.8145,-3317.9367L12966.8104,-3318.0135L12966.8086,-3318.0343L12966.8069,-3318.0498L12966.8059,-3318.0678L12966.8007,-3318.1778L12966.7994,-3318.1951L12966.7992,-3318.2092L12966.799,-3318.2141L12966.7961,-3318.2717L12966.7951,-3318.2907L12966.7946,-3318.308L12966.7911,-3318.3563L12966.7892,-3318.3756L12966.7878,-3318.3966L12966.7833,-3318.4814L12966.7829,-3318.4859L12966.7792,-3318.5276L12966.6517,-3318.5122L12966.6329,-3318.51L12966.3993,-3318.4831L12966.3915,-3318.4823L12966.3846,-3318.4814L12966.3074,-3318.4745L12966.2843,-3318.4733L12966.2623,-3318.4733L12966.2467,-3318.4745L12966.2161,-3318.4794L12966.2094,-3318.4817L12966.19,-3318.4884L12966.1704,-3318.4984L12966.1564,-3318.5076L12966.1424,-3318.5223L12966.1216,-3318.5505L12966.0645,-3318.6455"/>
<path content="2,佐世保市,5812_相桟→潟・日→場入,5.0,5.0,5.0," xlink:title="2" d="M12966.8174,-3317.8711L12966.8161,-3317.8886L12966.8151,-3317.9181L12966.8145,-3317.9367L12966.8104,-3318.0135L12966.8086,-3318.0343L12966.8069,-3318.0498L12966.8059,-3318.0678L12966.8007,-3318.1778L12966.7994,-3318.1951L12966.7992,-3318.2092L12966.799,-3318.2141L12966.7961,-3318.2717L12966.7951,-3318.2907L12966.7946,-3318.308L12966.7911,-3318.3563L12966.7892,-3318.3756L12966.7878,-3318.3966L12966.7833,-3318.4814L12966.7829,-3318.4859L12966.7792,-3318.5276L12966.6517,-3318.5122L12966.6329,-3318.51L12966.3993,-3318.4831L12966.3915,-3318.4823L12966.3846,-3318.4814L12966.3074,-3318.4745L12966.2843,-3318.4733L12966.2623,-3318.4733L12966.2467,-3318.4745L12966.2161,-3318.4794L12966.2094,-3318.4817L12966.19,-3318.4884L12966.1704,-3318.4984L12966.1564,-3318.5076L12966.1424,-3318.5223L12966.1216,-3318.5505L12966.0645,-3318.6455"/>
<path content="2,佐世保市,5821_食品団地会館→もみじ・日野・大潟→相浦桟橋,2.0,2.0,2.0," xlink:title="2" d="M12966.8174,-3317.8711L12966.8161,-3317.8886L12966.8151,-3317.9181L12966.8145,-3317.9367L12966.8104,-3318.0135L12966.8086,-3318.0343L12966.8069,-3318.0498L12966.8059,-3318.0678L12966.8007,-3318.1778L12966.7994,-3318.1951L12966.7992,-3318.2092L12966.799,-3318.2141L12966.7961,-3318.2717L12966.7951,-3318.2907L12966.7946,-3318.308L12966.7911,-3318.3563L12966.7892,-3318.3756L12966.7878,-3318.3966L12966.7833,-3318.4814L12966.7829,-3318.4859L12966.7792,-3318.5276L12966.6517,-3318.5122L12966.6329,-3318.51L12966.3993,-3318.4831L12966.3915,-3318.4823L12966.3846,-3318.4814L12966.3074,-3318.4745L12966.2843,-3318.4733L12966.2623,-3318.4733L12966.2467,-3318.4745L12966.2161,-3318.4794L12966.2094,-3318.4817L12966.19,-3318.4884L12966.1704,-3318.4984L12966.1564,-3318.5076L12966.1424,-3318.5223L12966.1216,-3318.5505L12966.0645,-3318.6455"/>
<path content="2,佐世保市,5822_相桟→潟・日・もみじ→食品団地,2.0,2.0,2.0," xlink:title="2" d="M12966.8174,-3317.8711L12966.8161,-3317.8886L12966.8151,-3317.9181L12966.8145,-3317.9367L12966.8104,-3318.0135L12966.8086,-3318.0343L12966.8069,-3318.0498L12966.8059,-3318.0678L12966.8007,-3318.1778L12966.7994,-3318.1951L12966.7992,-3318.2092L12966.799,-3318.2141L12966.7961,-3318.2717L12966.7951,-3318.2907L12966.7946,-3318.308L12966.7911,-3318.3563L12966.7892,-3318.3756L12966.7878,-3318.3966L12966.7833,-3318.4814L12966.7829,-3318.4859L12966.7792,-3318.5276L12966.6517,-3318.5122L12966.6329,-3318.51L12966.3993,-3318.4831L12966.3915,-3318.4823L12966.3846,-3318.4814L12966.3074,-3318.4745L12966.2843,-3318.4733L12966.2623,-3318.4733L12966.2467,-3318.4745L12966.2161,-3318.4794L12966.2094,-3318.4817L12966.19,-3318.4884L12966.1704,-3318.4984L12966.1564,-3318.5076L12966.1424,-3318.5223L12966.1216,-3318.5505L12966.0645,-3318.6455"/>
<path content="2,佐世保市,5831_佐駅→Ｓ・潟→相桟,10.0,10.0,10.0," xlink:title="2" d="M12966.8174,-3317.8711L12966.8161,-3317.8886L12966.8151,-3317.9181L12966.8145,-3317.9367L12966.8104,-3318.0135L12966.8086,-3318.0343L12966.8069,-3318.0498L12966.8059,-3318.0678L12966.8007,-3318.1778L12966.7994,-3318.1951L12966.7992,-3318.2092L12966.799,-3318.2141L12966.7961,-3318.2717L12966.7951,-3318.2907L12966.7946,-3318.308L12966.7911,-3318.3563L12966.7892,-3318.3756L12966.7878,-3318.3966L12966.7833,-3318.4814L12966.7829,-3318.4859L12966.7792,-3318.5276L12966.6517,-3318.5122L12966.6329,-3318.51L12966.3993,-3318.4831L12966.3915,-3318.4823L12966.3846,-3318.4814L12966.3074,-3318.4745L12966.2843,-3318.4733L12966.2623,-3318.4733L12966.2467,-3318.4745L12966.2161,-3318.4794L12966.2094,-3318.4817L12966.19,-3318.4884L12966.1704,-3318.4984L12966.1564,-3318.5076L12966.1424,-3318.5223L12966.1216,-3318.5505L12966.0645,-3318.6455"/>
<path content="2,佐世保市,5832_相桟→潟・Ｓ→佐駅,5.0,5.0,5.0," xlink:title="2" d="M12966.8174,-3317.8711L12966.8161,-3317.8886L12966.8151,-3317.9181L12966.8145,-3317.9367L12966.8104,-3318.0135L12966.8086,-3318.0343L12966.8069,-3318.0498L12966.8059,-3318.0678L12966.8007,-3318.1778L12966.7994,-3318.1951L12966.7992,-3318.2092L12966.799,-3318.2141L12966.7961,-3318.2717L12966.7951,-3318.2907L12966.7946,-3318.308L12966.7911,-3318.3563L12966.7892,-3318.3756L12966.7878,-3318.3966L12966.7833,-3318.4814L12966.7829,-3318.4859L12966.7792,-3318.5276L12966.6517,-3318.5122L12966.6329,-3318.51L12966.3993,-3318.4831L12966.3915,-3318.4823L12966.3846,-3318.4814L12966.3074,-3318.4745L12966.2843,-3318.4733L12966.2623,-3318.4733L12966.2467,-3318.4745L12966.2161,-3318.4794L12966.2094,-3318.4817L12966.19,-3318.4884L12966.1704,-3318.4984L12966.1564,-3318.5076L12966.1424,-3318.5223L12966.1216,-3318.5505L12966.0645,-3318.6455"/>
<path content="2,佐世保市,5842_相桟→潟・Ｓ→矢峰,5.0,5.0,5.0," xlink:title="2" d="M12966.0645,-3318.6455L12966.1216,-3318.5505L12966.1424,-3318.5223L12966.1564,-3318.5076L12966.1704,-3318.4984L12966.19,-3318.4884L12966.2094,-3318.4817L12966.2161,-3318.4794L12966.2467,-3318.4745L12966.2623,-3318.4733L12966.2843,-3318.4733L12966.3074,-3318.4745L12966.3846,-3318.4814L12966.3915,-3318.4823L12966.3993,-3318.4831L12966.6329,-3318.51L12966.6517,-3318.5122L12966.7792,-3318.5276L12966.7829,-3318.4859L12966.7833,-3318.4814L12966.7878,-3318.3966L12966.7892,-3318.3756L12966.7911,-3318.3563L12966.7946,-3318.308L12966.7951,-3318.2907L12966.7961,-3318.2717L12966.799,-3318.2141L12966.7992,-3318.2092L12966.7994,-3318.1951L12966.8007,-3318.1778L12966.8059,-3318.0678L12966.8069,-3318.0498L12966.8086,-3318.0343L12966.8104,-3318.0135L12966.8145,-3317.9367L12966.8151,-3317.9181L12966.8161,-3317.8886L12966.8174,-3317.8711"/>
<path content="2,佐世保市,5851_黒髪→Ｓ・潟→相桟,9.0,9.0,9.0," xlink:title="2" d="M12966.8174,-3317.8711L12966.8161,-3317.8886L12966.8151,-3317.9181L12966.8145,-3317.9367L12966.8104,-3318.0135L12966.8086,-3318.0343L12966.8069,-3318.0498L12966.8059,-3318.0678L12966.8007,-3318.1778L12966.7994,-3318.1951L12966.7992,-3318.2092L12966.799,-3318.2141L12966.7961,-3318.2717L12966.7951,-3318.2907L12966.7946,-3318.308L12966.7911,-3318.3563L12966.7892,-3318.3756L12966.7878,-3318.3966L12966.7833,-3318.4814L12966.7829,-3318.4859L12966.7792,-3318.5276L12966.6517,-3318.5122L12966.6329,-3318.51L12966.3993,-3318.4831L12966.3915,-3318.4823L12966.3846,-3318.4814L12966.3074,-3318.4745L12966.2843,-3318.4733L12966.2623,-3318.4733L12966.2467,-3318.4745L12966.2161,-3318.4794L12966.2094,-3318.4817L12966.19,-3318.4884L12966.1704,-3318.4984L12966.1564,-3318.5076L12966.1424,-3318.5223L12966.1216,-3318.5505L12966.0645,-3318.6455"/>
<path content="2,佐世保市,5852_相桟→潟・Ｓ→黒髪,5.0,5.0,5.0," xlink:title="2" d="M12966.8174,-3317.8711L12966.8161,-3317.8886L12966.8151,-3317.9181L12966.8145,-3317.9367L12966.8104,-3318.0135L12966.8086,-3318.0343L12966.8069,-3318.0498L12966.8059,-3318.0678L12966.8007,-3318.1778L12966.7994,-3318.1951L12966.7992,-3318.2092L12966.799,-3318.2141L12966.7961,-3318.2717L12966.7951,-3318.2907L12966.7946,-3318.308L12966.7911,-3318.3563L12966.7892,-3318.3756L12966.7878,-3318.3966L12966.7833,-3318.4814L12966.7829,-3318.4859L12966.7792,-3318.5276L12966.6517,-3318.5122L12966.6329,-3318.51L12966.3993,-3318.4831L12966.3915,-3318.4823L12966.3846,-3318.4814L12966.3074,-3318.4745L12966.2843,-3318.4733L12966.2623,-3318.4733L12966.2467,-3318.4745L12966.2161,-3318.4794L12966.2094,-3318.4817L12966.19,-3318.4884L12966.1704,-3318.4984L12966.1564,-3318.5076L12966.1424,-3318.5223L12966.1216,-3318.5505L12966.0645,-3318.6455"/>
<path content="2,佐世保市,5901_佐駅→日野→小野,7.0,7.0,7.0," xlink:title="2" d="M12966.8174,-3317.8711L12966.8161,-3317.8886L12966.8151,-3317.9181L12966.8145,-3317.9367L12966.8104,-3318.0135L12966.8086,-3318.0343L12966.8069,-3318.0498L12966.8059,-3318.0678L12966.8007,-3318.1778L12966.7994,-3318.1951L12966.7992,-3318.2092L12966.799,-3318.2141L12966.7961,-3318.2717L12966.7951,-3318.2907L12966.7946,-3318.308L12966.7911,-3318.3563L12966.7892,-3318.3756L12966.7878,-3318.3966L12966.7833,-3318.4814L12966.7829,-3318.4859L12966.7792,-3318.5276L12966.7759,-3318.5781L12966.7759,-3318.5894L12966.7731,-3318.6215L12966.7678,-3318.7123L12966.7615,-3318.8186L12966.7564,-3318.8949L12966.7564,-3318.8977L12966.753,-3318.9355L12966.7513,-3318.9697"/>
<path content="2,佐世保市,5902_小野→日野→佐駅,5.0,5.0,5.0," xlink:title="2" d="M12966.8174,-3317.8711L12966.8161,-3317.8886L12966.8151,-3317.9181L12966.8145,-3317.9367L12966.8104,-3318.0135L12966.8086,-3318.0343L12966.8069,-3318.0498L12966.8059,-3318.0678L12966.8007,-3318.1778L12966.7994,-3318.1951L12966.7992,-3318.2092L12966.799,-3318.2141L12966.7961,-3318.2717L12966.7951,-3318.2907L12966.7946,-3318.308L12966.7911,-3318.3563L12966.7892,-3318.3756L12966.7878,-3318.3966L12966.7833,-3318.4814L12966.7829,-3318.4859L12966.7792,-3318.5276L12966.7759,-3318.5781L12966.7759,-3318.5894L12966.7731,-3318.6215L12966.7678,-3318.7123L12966.7615,-3318.8186L12966.7564,-3318.8949L12966.7564,-3318.8977L12966.753,-3318.9355L12966.7513,-3318.9697"/>
<path content="2,佐世保市,5911_黒髪→日野→小野,4.0,4.0,4.0," xlink:title="2" d="M12966.8174,-3317.8711L12966.8161,-3317.8886L12966.8151,-3317.9181L12966.8145,-3317.9367L12966.8104,-3318.0135L12966.8086,-3318.0343L12966.8069,-3318.0498L12966.8059,-3318.0678L12966.8007,-3318.1778L12966.7994,-3318.1951L12966.7992,-3318.2092L12966.799,-3318.2141L12966.7961,-3318.2717L12966.7951,-3318.2907L12966.7946,-3318.308L12966.7911,-3318.3563L12966.7892,-3318.3756L12966.7878,-3318.3966L12966.7833,-3318.4814L12966.7829,-3318.4859L12966.7792,-3318.5276L12966.7759,-3318.5781L12966.7759,-3318.5894L12966.7731,-3318.6215L12966.7678,-3318.7123L12966.7615,-3318.8186L12966.7564,-3318.8949L12966.7564,-3318.8977L12966.753,-3318.9355L12966.7513,-3318.9697"/>
<path content="2,佐世保市,5912_小野住宅→日野→黒髪,4.0,4.0,4.0," xlink:title="2" d="M12966.8174,-3317.8711L12966.8161,-3317.8886L12966.8151,-3317.9181L12966.8145,-3317.9367L12966.8104,-3318.0135L12966.8086,-3318.0343L12966.8069,-3318.0498L12966.8059,-3318.0678L12966.8007,-3318.1778L12966.7994,-3318.1951L12966.7992,-3318.2092L12966.799,-3318.2141L12966.7961,-3318.2717L12966.7951,-3318.2907L12966.7946,-3318.308L12966.7911,-3318.3563L12966.7892,-3318.3756L12966.7878,-3318.3966L12966.7833,-3318.4814L12966.7829,-3318.4859L12966.7792,-3318.5276L12966.7759,-3318.5781L12966.7759,-3318.5894L12966.7731,-3318.6215L12966.7678,-3318.7123L12966.7615,-3318.8186L12966.7564,-3318.8949L12966.7564,-3318.8977L12966.753,-3318.9355L12966.7513,-3318.9697"/>
<path content="2,佐世保市,5921_場入→日野→小野,5.0,5.0,5.0," xlink:title="2" d="M12966.8174,-3317.8711L12966.8161,-3317.8886L12966.8151,-3317.9181L12966.8145,-3317.9367L12966.8104,-3318.0135L12966.8086,-3318.0343L12966.8069,-3318.0498L12966.8059,-3318.0678L12966.8007,-3318.1778L12966.7994,-3318.1951L12966.7992,-3318.2092L12966.799,-3318.2141L12966.7961,-3318.2717L12966.7951,-3318.2907L12966.7946,-3318.308L12966.7911,-3318.3563L12966.7892,-3318.3756L12966.7878,-3318.3966L12966.7833,-3318.4814L12966.7829,-3318.4859L12966.7792,-3318.5276L12966.7759,-3318.5781L12966.7759,-3318.5894L12966.7731,-3318.6215L12966.7678,-3318.7123L12966.7615,-3318.8186L12966.7564,-3318.8949L12966.7564,-3318.8977L12966.753,-3318.9355L12966.7513,-3318.9697"/>
<path content="2,佐世保市,5922_小野→日野→場入,5.0,5.0,5.0," xlink:title="2" d="M12966.8174,-3317.8711L12966.8161,-3317.8886L12966.8151,-3317.9181L12966.8145,-3317.9367L12966.8104,-3318.0135L12966.8086,-3318.0343L12966.8069,-3318.0498L12966.8059,-3318.0678L12966.8007,-3318.1778L12966.7994,-3318.1951L12966.7992,-3318.2092L12966.799,-3318.2141L12966.7961,-3318.2717L12966.7951,-3318.2907L12966.7946,-3318.308L12966.7911,-3318.3563L12966.7892,-3318.3756L12966.7878,-3318.3966L12966.7833,-3318.4814L12966.7829,-3318.4859L12966.7792,-3318.5276L12966.7759,-3318.5781L12966.7759,-3318.5894L12966.7731,-3318.6215L12966.7678,-3318.7123L12966.7615,-3318.8186L12966.7564,-3318.8949L12966.7564,-3318.8977L12966.753,-3318.9355L12966.7513,-3318.9697"/>
<path content="2,佐世保市,5931_食品団地会館→もみじ・日野→小野,5.0,5.0,5.0," xlink:title="2" d="M12966.8174,-3317.8711L12966.8161,-3317.8886L12966.8151,-3317.9181L12966.8145,-3317.9367L12966.8104,-3318.0135L12966.8086,-3318.0343L12966.8069,-3318.0498L12966.8059,-3318.0678L12966.8007,-3318.1778L12966.7994,-3318.1951L12966.7992,-3318.2092L12966.799,-3318.2141L12966.7961,-3318.2717L12966.7951,-3318.2907L12966.7946,-3318.308L12966.7911,-3318.3563L12966.7892,-3318.3756L12966.7878,-3318.3966L12966.7833,-3318.4814L12966.7829,-3318.4859L12966.7792,-3318.5276L12966.7759,-3318.5781L12966.7759,-3318.5894L12966.7731,-3318.6215L12966.7678,-3318.7123L12966.7615,-3318.8186L12966.7564,-3318.8949L12966.7564,-3318.8977L12966.753,-3318.9355L12966.7513,-3318.9697"/>
<path content="2,佐世保市,5932_小野→日野→食品団地会館,5.0,5.0,5.0," xlink:title="2" d="M12966.8174,-3317.8711L12966.8161,-3317.8886L12966.8151,-3317.9181L12966.8145,-3317.9367L12966.8104,-3318.0135L12966.8086,-3318.0343L12966.8069,-3318.0498L12966.8059,-3318.0678L12966.8007,-3318.1778L12966.7994,-3318.1951L12966.7992,-3318.2092L12966.799,-3318.2141L12966.7961,-3318.2717L12966.7951,-3318.2907L12966.7946,-3318.308L12966.7911,-3318.3563L12966.7892,-3318.3756L12966.7878,-3318.3966L12966.7833,-3318.4814L12966.7829,-3318.4859L12966.7792,-3318.5276L12966.7759,-3318.5781L12966.7759,-3318.5894L12966.7731,-3318.6215L12966.7678,-3318.7123L12966.7615,-3318.8186L12966.7564,-3318.8949L12966.7564,-3318.8977L12966.753,-3318.9355L12966.7513,-3318.9697"/>
<path content="2,佐世保市,5942_小野→日野→沖新町,5.0,5.0,5.0," xlink:title="2" d="M12966.8174,-3317.8711L12966.8161,-3317.8886L12966.8151,-3317.9181L12966.8145,-3317.9367L12966.8104,-3318.0135L12966.8086,-3318.0343L12966.8069,-3318.0498L12966.8059,-3318.0678L12966.8007,-3318.1778L12966.7994,-3318.1951L12966.7992,-3318.2092L12966.799,-3318.2141L12966.7961,-3318.2717L12966.7951,-3318.2907L12966.7946,-3318.308L12966.7911,-3318.3563L12966.7892,-3318.3756L12966.7878,-3318.3966L12966.7833,-3318.4814L12966.7829,-3318.4859L12966.7792,-3318.5276L12966.7759,-3318.5781L12966.7759,-3318.5894L12966.7731,-3318.6215L12966.7678,-3318.7123L12966.7615,-3318.8186L12966.7564,-3318.8949L12966.7564,-3318.8977L12966.753,-3318.9355L12966.7513,-3318.9697"/>
<path content="2,佐世保市,6642_商業→吉岡・Ｓ→佐世保駅前,5.0,5.0,5.0," xlink:title="2" d="M12966.8174,-3317.8711L12966.8161,-3317.8886L12966.8151,-3317.9181L12966.8145,-3317.9367L12966.8104,-3318.0135L12966.8086,-3318.0343L12966.8069,-3318.0498L12966.8059,-3318.0678L12966.8007,-3318.1778L12966.7994,-3318.1951L12966.7992,-3318.2092L12966.799,-3318.2141L12966.7961,-3318.2717L12966.7951,-3318.2907L12966.7946,-3318.308L12966.7911,-3318.3563L12966.7892,-3318.3756L12966.7878,-3318.3966L12966.7833,-3318.4814L12966.7829,-3318.4859L12966.7792,-3318.5276L12966.7759,-3318.5781L12966.7759,-3318.5894L12966.7731,-3318.6215L12966.7678,-3318.7123L12966.7615,-3318.8186L12966.7564,-3318.8949L12966.7564,-3318.8977L12966.753,-3318.9355L12966.7513,-3318.9697"/>
<path content="2,佐世保市,6791_鹿桟→吉岡→佐世保商業高校,5.0,5.0,5.0," xlink:title="2" d="M12966.7513,-3318.9697L12966.753,-3318.9355L12966.7564,-3318.8977L12966.7564,-3318.8949L12966.7615,-3318.8186L12966.7678,-3318.7123L12966.7731,-3318.6215L12966.7759,-3318.5894L12966.7759,-3318.5781L12966.7792,-3318.5276L12966.7829,-3318.4859L12966.7833,-3318.4814L12966.7878,-3318.3966L12966.7892,-3318.3756L12966.7911,-3318.3563L12966.7946,-3318.308L12966.7951,-3318.2907L12966.7961,-3318.2717L12966.799,-3318.2141L12966.7992,-3318.2092L12966.7994,-3318.1951L12966.8007,-3318.1778L12966.8059,-3318.0678L12966.8069,-3318.0498L12966.8086,-3318.0343L12966.8104,-3318.0135L12966.8145,-3317.9367L12966.8151,-3317.9181L12966.8161,-3317.8886L12966.8174,-3317.8711"/>
</g>
</svg>
