<?xml version="1.0" encoding="UTF-8"?>
<svg  xmlns="http://www.w3.org/2000/svg" xmlns:xlink="http://www.w3.org/1999/xlink" xmlns:go="http://purl.org/svgmap/profile" property="N07_001,N07_002,N07_003,N07_004,N07_005,N07_006,N07_007" viewBox="13946.044921875 -3555.17578125 2.197265625 2.197265625" go:dataArea="13946.044921875 -3555.17578125 2.197265625 2.197265625" >
<metadata>
 <rdf:RDF xmlns:rdf="http://www.w3.org/1999/02/22-rdf-syntax-ns#" xmlns:crs="http://opengis.org/xmldtds/transformations.dtd" xmlns:svg="http://www.w3.org/svg" >
  <rdf:Description>
   <crs:CoordinateReferenceSystem rdf:resource="http://purl.org/crs/84" svg:transform="matrix(100.0,0.0,0.0,-100.0,0.0,0.0)" />
  </rdf:Description>
 </rdf:RDF>
</metadata>
<globalCoordinateSystem srsName="http://purl.org/crs/84" transform="matrix(100.0,0.0,0.0,-100.0,0.0,0.0)" />
<defs>
 <g id="p0" >
  <circle cx="0.0" cy="0.0" r="3" stroke="green" stroke-width="0.75" vector-effect="non-scaling-stroke" />
 </g>
</defs>
<g fill="none" fill-rule="evenodd" stroke="#FF00FF" stroke-width="0.75" opacity="0.5" vector-effect="non-scaling-stroke" stroke-linejoin="bevel" >
<path content="1,京浜急行バス（株）,羽田空港～町田バスセンター・相模大野駅線,13.0,13.0,13.0," xlink:title="1" d="M13946.0449,-3553.3284L13946.0726,-3553.3043L13946.0919,-3553.2846L13946.1144,-3553.2554L13946.1174,-3553.2459L13946.1243,-3553.2249L13946.1319,-3553.2114L13946.1381,-3553.2029L13946.1539,-3553.1753L13946.1908,-3553.1089L13946.2118,-3553.0446L13946.2318,-3552.9905L13946.2365,-3552.9785"/>
<path content="1,小田急バス（株）,柿20,2.0,2.0,2.0," xlink:title="1" d="M13946.0449,-3554.2196L13946.0505,-3554.221L13946.0546,-3554.2227L13946.0857,-3554.2311L13946.0939,-3554.2328L13946.1263,-3554.2368L13946.1778,-3554.2454L13946.1888,-3554.2466L13946.2827,-3554.2582L13946.2924,-3554.2597L13946.3123,-3554.2627L13946.3206,-3554.2639L13946.3329,-3554.2621L13946.3542,-3554.267L13946.3946,-3554.2734L13946.3985,-3554.2741L13946.4639,-3554.2819L13946.4804,-3554.2847L13946.4935,-3554.2858L13946.5225,-3554.2898L13946.5397,-3554.2914L13946.5581,-3554.2932L13946.57,-3554.2949L13946.5879,-3554.2971L13946.5976,-3554.2988L13946.6148,-3554.3005L13946.6437,-3554.3044L13946.6603,-3554.3014L13946.6706,-3554.3073L13946.6851,-3554.309L13946.7037,-3554.3112L13946.7168,-3554.3135L13946.7622,-3554.3186L13946.7767,-3554.3191L13946.7905,-3554.3208L13946.8539,-3554.3242L13946.887,-3554.3242L13946.929,-3554.3225L13946.9552,-3554.3202L13947.0013,-3554.3163L13947.0454,-3554.3094L13947.0578,-3554.3113L13947.0902,-3554.309L13947.1031,-3554.3101L13947.1253,-3554.3117L13947.1825,-3554.3169L13947.1979,-3554.3144L13947.2108,-3554.3197L13947.2521,-3554.3248L13947.3045,-3554.3288L13947.3217,-3554.3299L13947.3746,-3554.332L13947.3982,-3554.3293L13947.4409,-3554.3265L13947.454,-3554.3248L13947.4788,-3554.3242L13947.4988,-3554.3214L13947.5271,-3554.3192L13947.5526,-3554.3124L13947.5794,-3554.3034L13947.5918,-3554.2978L13947.5946,-3554.2955L13947.6201,-3554.282L13947.6324,-3554.2736L13947.637,-3554.2703L13947.6483,-3554.26L13947.6786,-3554.2324L13947.7145,-3554.1964L13947.7179,-3554.1923L13947.7291,-3554.1791L13947.751,-3554.153L13947.7813,-3554.1158L13947.8123,-3554.0781L13947.8227,-3554.0663L13947.8826,-3553.9936L13947.9274,-3553.9395L13947.9935,-3553.8612L13948.0144,-3553.8412L13948.0369,-3553.8268L13948.0659,-3553.8122L13948.0783,-3553.8065L13948.0914,-3553.8015L13948.1451,-3553.7829L13948.1941,-3553.7694L13948.2237,-3553.7609L13948.2368,-3553.7581L13948.2422,-3553.7566"/>
<path content="1,小田急箱根高速バス,ふじやま号,0.2,1.1,1.0," xlink:title="1" d="M13946.2365,-3552.9785L13946.2318,-3552.9905L13946.2118,-3553.0446L13946.1908,-3553.1089L13946.1539,-3553.1753L13946.1381,-3553.2029L13946.1319,-3553.2114L13946.1243,-3553.2249L13946.1174,-3553.2459L13946.1144,-3553.2554L13946.0919,-3553.2846L13946.0726,-3553.3043L13946.0449,-3553.3284"/>
<path content="1,岩手県交通（株）,盛岡・横浜線,1.0,1.0,1.0," xlink:title="1" d="M13946.0449,-3553.3284L13946.0726,-3553.3043L13946.0919,-3553.2846L13946.1144,-3553.2554L13946.1174,-3553.2459L13946.1243,-3553.2249L13946.1319,-3553.2114L13946.1381,-3553.2029L13946.1539,-3553.1753L13946.1908,-3553.1089L13946.2118,-3553.0446L13946.2318,-3552.9905L13946.2365,-3552.9785"/>
<path content="1,神奈川中央交通・相模神奈交バス・津久井神奈交バス,つ01,28.0,24.0,21.5," xlink:title="1" d="M13947.0802,-3552.9785L13947.0992,-3552.9945L13947.1047,-3552.9979L13947.1247,-3553.0148L13947.1335,-3553.0289L13947.1395,-3553.0344L13947.1413,-3553.0419L13947.1467,-3553.0734L13947.1474,-3553.0926L13947.1474,-3553.1038L13947.1495,-3553.1337L13947.1523,-3553.1512L13947.1564,-3553.163L13947.1646,-3553.1805L13947.1715,-3553.1912L13947.1826,-3553.2024L13947.2115,-3553.2272L13947.207,-3553.2333L13947.2462,-3553.2565L13947.2542,-3553.2633L13947.2732,-3553.2788L13947.2783,-3553.283L13947.3149,-3553.3219L13947.3164,-3553.324L13947.3251,-3553.3363L13947.3266,-3553.3383L13947.3569,-3553.3816L13947.3692,-3553.4006L13947.374,-3553.4106L13947.3857,-3553.4409L13947.3849,-3553.4529L13947.3929,-3553.4621L13947.4065,-3553.4943L13947.4141,-3553.5073L13947.4313,-3553.5439"/>
<path content="1,神奈川中央交通・相模神奈交バス・津久井神奈交バス,つ01,28.0,24.0,21.5," xlink:title="1" d="M13947.4313,-3553.5439L13947.4403,-3553.5636L13947.4451,-3553.5788L13947.4458,-3553.5974L13947.443,-3553.6183L13947.4423,-3553.6267L13947.4244,-3553.709L13947.4113,-3553.7524L13947.3824,-3553.8448L13947.3727,-3553.8735L13947.3592,-3553.9069L13947.3665,-3553.9518L13947.3679,-3553.9586L13947.3693,-3553.9709L13947.3865,-3554.0616L13947.3882,-3554.0714L13947.3941,-3554.0853L13947.4027,-3554.111L13947.4037,-3554.1141L13947.4037,-3554.1383L13947.3991,-3554.1756L13947.3906,-3554.2386L13947.3899,-3554.247L13947.3886,-3554.251L13947.3803,-3554.3073L13947.3746,-3554.332L13947.3743,-3554.3419L13947.3734,-3554.3524L13947.3651,-3554.4088L13947.3632,-3554.4201L13947.3624,-3554.4251L13947.3594,-3554.4409L13947.3569,-3554.4578L13947.3536,-3554.4922L13947.3424,-3554.5242L13947.3369,-3554.5502L13947.3328,-3554.5648L13947.3169,-3554.6149L13947.3093,-3554.6347L13947.3045,-3554.6442L13947.2811,-3554.6949L13947.2466,-3554.7688L13947.228,-3554.8071L13947.2073,-3554.8527L13947.2053,-3554.8597L13947.1922,-3554.8871L13947.186,-3554.9028L13947.1839,-3554.9107L13947.1839,-3554.9175L13947.1853,-3554.9586L13947.2073,-3554.9569L13947.2542,-3554.9558L13947.3086,-3554.9536L13947.3231,-3554.9524L13947.3625,-3554.9483L13947.3789,-3554.9508L13947.3913,-3554.9496L13947.4257,-3554.9485L13947.4609,-3554.9474L13947.5388,-3554.944L13947.5456,-3554.9429L13947.6159,-3554.9406L13947.7418,-3554.9373L13947.7992,-3554.9339L13947.8743,-3554.9311L13947.9232,-3554.9289L13947.9356,-3554.9267L13947.9391,-3554.926L13947.9329,-3554.9784L13947.9267,-3555.0252L13947.9143,-3555.1097L13947.9081,-3555.1474L13947.9044,-3555.1758"/>
<path content="1,神奈川中央交通・相模神奈交バス・津久井神奈交バス,つ01,28.0,24.0,21.5," xlink:title="1" d="M13947.2774,-3553.6148L13947.3162,-3553.5961L13947.3982,-3553.558L13947.4175,-3553.549L13947.4313,-3553.5439"/>
<path content="1,神奈川中央交通・相模神奈交バス・津久井神奈交バス,つ03,10.0,11.0,8.5," xlink:title="1" d="M13947.0802,-3552.9785L13947.0992,-3552.9945L13947.1047,-3552.9979L13947.1247,-3553.0148L13947.1335,-3553.0289L13947.1395,-3553.0344L13947.1413,-3553.0419L13947.1467,-3553.0734L13947.1474,-3553.0926L13947.1474,-3553.1038L13947.1495,-3553.1337L13947.1523,-3553.1512L13947.1564,-3553.163L13947.1646,-3553.1805L13947.1715,-3553.1912L13947.1826,-3553.2024L13947.2115,-3553.2272L13947.207,-3553.2333L13947.2462,-3553.2565L13947.2542,-3553.2633L13947.2732,-3553.2788L13947.2783,-3553.283L13947.3149,-3553.3219L13947.3164,-3553.324L13947.3251,-3553.3363L13947.3266,-3553.3383L13947.3569,-3553.3816L13947.3692,-3553.4006L13947.374,-3553.4106L13947.3857,-3553.4409L13947.3849,-3553.4529L13947.3929,-3553.4621L13947.4065,-3553.4943L13947.4141,-3553.5073L13947.4313,-3553.5439"/>
<path content="1,神奈川中央交通・相模神奈交バス・津久井神奈交バス,つ03,10.0,11.0,8.5," xlink:title="1" d="M13947.4313,-3553.5439L13947.4175,-3553.549L13947.3982,-3553.558L13947.3162,-3553.5961L13947.2774,-3553.6148"/>
<path content="1,神奈川中央交通・相模神奈交バス・津久井神奈交バス,つ03,10.0,11.0,8.5," xlink:title="1" d="M13947.4313,-3553.5439L13947.4403,-3553.5636L13947.4451,-3553.5788L13947.4458,-3553.5974L13947.443,-3553.6183L13947.4423,-3553.6267L13947.4244,-3553.709L13947.4113,-3553.7524L13947.3824,-3553.8448L13947.3727,-3553.8735L13947.3592,-3553.9069L13947.3665,-3553.9518L13947.3679,-3553.9586L13947.3693,-3553.9709L13947.3865,-3554.0616L13947.3882,-3554.0714L13947.3941,-3554.0853L13947.4027,-3554.111L13947.4037,-3554.1141L13947.4037,-3554.1383L13947.3991,-3554.1756L13947.3906,-3554.2386L13947.3899,-3554.247L13947.3886,-3554.251L13947.3803,-3554.3073L13947.3746,-3554.332L13947.3743,-3554.3419L13947.3734,-3554.3524L13947.3651,-3554.4088L13947.3632,-3554.4201L13947.3624,-3554.4251L13947.3594,-3554.4409L13947.3569,-3554.4578L13947.3536,-3554.4922L13947.3424,-3554.5242L13947.3369,-3554.5502L13947.3328,-3554.5648L13947.3169,-3554.6149L13947.3093,-3554.6347L13947.3045,-3554.6442L13947.2811,-3554.6949L13947.2466,-3554.7688L13947.228,-3554.8071L13947.2073,-3554.8527L13947.2053,-3554.8597L13947.1922,-3554.8871L13947.186,-3554.9028L13947.1839,-3554.9107L13947.1839,-3554.9175L13947.1853,-3554.9586"/>
<path content="1,神奈川中央交通・相模神奈交バス・津久井神奈交バス,つ03,10.0,11.0,8.5," xlink:title="1" d="M13947.1853,-3554.9586L13947.1887,-3554.9823L13947.1901,-3554.9964L13947.1915,-3554.9986L13947.2018,-3555.0809L13947.2032,-3555.0848L13947.2142,-3555.1677L13947.2154,-3555.1758"/>
<path content="1,神奈川中央交通・相模神奈交バス・津久井神奈交バス,つ03,10.0,11.0,8.5," xlink:title="1" d="M13947.1853,-3554.9586L13947.2073,-3554.9569L13947.2542,-3554.9558L13947.3086,-3554.9536L13947.3231,-3554.9524L13947.3625,-3554.9483L13947.3789,-3554.9508L13947.3913,-3554.9496L13947.4257,-3554.9485L13947.4609,-3554.9474L13947.5388,-3554.944L13947.5456,-3554.9429L13947.6159,-3554.9406L13947.7418,-3554.9373L13947.7992,-3554.9339L13947.8743,-3554.9311L13947.9232,-3554.9289L13947.9356,-3554.9267L13947.9391,-3554.926L13947.9329,-3554.9784L13947.9267,-3555.0252L13947.9143,-3555.1097L13947.9081,-3555.1474L13947.9044,-3555.1758"/>
<path content="1,神奈川中央交通・相模神奈交バス・津久井神奈交バス,成01,20.0,19.0,4.0," xlink:title="1" d="M13947.2774,-3553.6148L13947.3162,-3553.5961L13947.3982,-3553.558L13947.4175,-3553.549L13947.4313,-3553.5439L13947.4403,-3553.5636L13947.4451,-3553.5788L13947.4458,-3553.5974L13947.443,-3553.6183L13947.4423,-3553.6267L13947.4244,-3553.709L13947.4113,-3553.7524L13947.3824,-3553.8448L13947.3727,-3553.8735L13947.3592,-3553.9069L13947.3665,-3553.9518L13947.3679,-3553.9586L13947.3693,-3553.9709L13947.3865,-3554.0616L13947.3882,-3554.0714L13947.3941,-3554.0853L13947.4027,-3554.111L13947.4037,-3554.1141L13947.4037,-3554.1383L13947.3991,-3554.1756L13947.3906,-3554.2386L13947.3899,-3554.247L13947.3886,-3554.251L13947.3803,-3554.3073L13947.3746,-3554.332L13947.3743,-3554.3419L13947.3734,-3554.3524L13947.3651,-3554.4088L13947.3632,-3554.4201L13947.3624,-3554.4251L13947.3594,-3554.4409L13947.3569,-3554.4578L13947.3536,-3554.4922L13947.3424,-3554.5242L13947.3369,-3554.5502L13947.3328,-3554.5648L13947.3169,-3554.6149L13947.3093,-3554.6347L13947.3045,-3554.6442L13947.2811,-3554.6949L13947.2466,-3554.7688L13947.228,-3554.8071L13947.2073,-3554.8527L13947.2053,-3554.8597L13947.1922,-3554.8871L13947.186,-3554.9028L13947.1839,-3554.9107L13947.1839,-3554.9175L13947.1853,-3554.9586L13947.2073,-3554.9569L13947.2542,-3554.9558L13947.3086,-3554.9536L13947.3231,-3554.9524L13947.3625,-3554.9483L13947.3789,-3554.9508L13947.3913,-3554.9496L13947.4257,-3554.9485L13947.4609,-3554.9474L13947.5388,-3554.944L13947.5456,-3554.9429L13947.6159,-3554.9406L13947.7418,-3554.9373L13947.7992,-3554.9339L13947.8743,-3554.9311L13947.9232,-3554.9289L13947.9356,-3554.9267L13947.9391,-3554.926L13947.9329,-3554.9784L13947.9267,-3555.0252L13947.9143,-3555.1097L13947.9081,-3555.1474L13947.9044,-3555.1758"/>
<path content="1,神奈川中央交通・相模神奈交バス・津久井神奈交バス,成02,11.0,6.0,0.0," xlink:title="1" d="M13947.2774,-3553.6148L13947.3162,-3553.5961L13947.3982,-3553.558L13947.4175,-3553.549L13947.4313,-3553.5439L13947.4403,-3553.5636L13947.4451,-3553.5788L13947.4458,-3553.5974L13947.443,-3553.6183L13947.4423,-3553.6267L13947.4244,-3553.709L13947.4113,-3553.7524L13947.3824,-3553.8448L13947.3727,-3553.8735L13947.3592,-3553.9069L13947.3665,-3553.9518L13947.3679,-3553.9586L13947.3693,-3553.9709L13947.3865,-3554.0616L13947.3882,-3554.0714L13947.3941,-3554.0853L13947.4027,-3554.111L13947.4037,-3554.1141L13947.4037,-3554.1383L13947.3991,-3554.1756L13947.3906,-3554.2386L13947.3899,-3554.247L13947.3886,-3554.251L13947.3803,-3554.3073L13947.3746,-3554.332L13947.3743,-3554.3419L13947.3734,-3554.3524L13947.3651,-3554.4088L13947.3632,-3554.4201L13947.3624,-3554.4251L13947.3594,-3554.4409L13947.3569,-3554.4578L13947.3536,-3554.4922L13947.3424,-3554.5242L13947.3369,-3554.5502L13947.3328,-3554.5648L13947.3169,-3554.6149L13947.3093,-3554.6347L13947.3045,-3554.6442L13947.2811,-3554.6949L13947.2466,-3554.7688L13947.228,-3554.8071L13947.2073,-3554.8527L13947.2053,-3554.8597L13947.1922,-3554.8871L13947.186,-3554.9028L13947.1839,-3554.9107L13947.1839,-3554.9175L13947.1853,-3554.9586L13947.1887,-3554.9823L13947.1901,-3554.9964L13947.1915,-3554.9986L13947.2018,-3555.0809L13947.2032,-3555.0848L13947.2142,-3555.1677L13947.2154,-3555.1758"/>
<path content="1,神奈川中央交通・相模神奈交バス・津久井神奈交バス,町74,5.0,5.5,7.0," xlink:title="1" d="M13946.0449,-3554.2196L13946.0505,-3554.221L13946.0546,-3554.2227L13946.0857,-3554.2311L13946.0939,-3554.2328L13946.1263,-3554.2368L13946.1778,-3554.2454L13946.1888,-3554.2466L13946.2827,-3554.2582L13946.2924,-3554.2597L13946.3123,-3554.2627L13946.3206,-3554.2639L13946.3329,-3554.2621L13946.3542,-3554.267L13946.3946,-3554.2734L13946.3985,-3554.2741L13946.4639,-3554.2819L13946.4804,-3554.2847L13946.4935,-3554.2858L13946.5225,-3554.2898L13946.5397,-3554.2914L13946.5581,-3554.2932L13946.57,-3554.2949L13946.5879,-3554.2971L13946.5976,-3554.2988L13946.6148,-3554.3005L13946.6437,-3554.3044L13946.6603,-3554.3014L13946.6706,-3554.3073L13946.6851,-3554.309L13946.7037,-3554.3112L13946.7168,-3554.3135L13946.7622,-3554.3186L13946.7767,-3554.3191L13946.7905,-3554.3208L13946.8539,-3554.3242L13946.887,-3554.3242L13946.929,-3554.3225L13946.9552,-3554.3202L13947.0013,-3554.3163L13947.0454,-3554.3094L13947.0578,-3554.3113L13947.0902,-3554.309L13947.1031,-3554.3101L13947.1253,-3554.3117L13947.1825,-3554.3169L13947.1979,-3554.3144L13947.2108,-3554.3197L13947.2521,-3554.3248L13947.3045,-3554.3288L13947.3217,-3554.3299L13947.3746,-3554.332L13947.3743,-3554.3419L13947.3734,-3554.3524L13947.3651,-3554.4088L13947.3632,-3554.4201L13947.3624,-3554.4251L13947.3594,-3554.4409L13947.3569,-3554.4578L13947.3536,-3554.4922L13947.3424,-3554.5242L13947.3369,-3554.5502L13947.3328,-3554.5648L13947.3169,-3554.6149L13947.3093,-3554.6347L13947.3045,-3554.6442L13947.2811,-3554.6949L13947.2466,-3554.7688L13947.228,-3554.8071L13947.2073,-3554.8527L13947.2053,-3554.8597L13947.1922,-3554.8871L13947.186,-3554.9028L13947.1839,-3554.9107L13947.1839,-3554.9175L13947.1853,-3554.9586L13947.2073,-3554.9569L13947.2542,-3554.9558L13947.3086,-3554.9536L13947.3231,-3554.9524L13947.3625,-3554.9483L13947.3789,-3554.9508L13947.3913,-3554.9496L13947.4257,-3554.9485L13947.4609,-3554.9474L13947.5388,-3554.944L13947.5456,-3554.9429L13947.6159,-3554.9406L13947.7418,-3554.9373L13947.7992,-3554.9339L13947.8743,-3554.9311L13947.9232,-3554.9289L13947.9356,-3554.9267L13947.9391,-3554.926L13947.9329,-3554.9784L13947.9267,-3555.0252L13947.9143,-3555.1097L13947.9081,-3555.1474L13947.9044,-3555.1758"/>
<path content="1,神奈川中央交通・相模神奈交バス・津久井神奈交バス,町75,26.5,20.5,15.0," xlink:title="1" d="M13946.0449,-3554.2196L13946.0505,-3554.221L13946.0546,-3554.2227L13946.0857,-3554.2311L13946.0939,-3554.2328L13946.1263,-3554.2368L13946.1778,-3554.2454L13946.1888,-3554.2466L13946.2827,-3554.2582L13946.2924,-3554.2597L13946.3123,-3554.2627L13946.3206,-3554.2639L13946.3329,-3554.2621L13946.3542,-3554.267L13946.3946,-3554.2734L13946.3985,-3554.2741L13946.4639,-3554.2819L13946.4804,-3554.2847L13946.4935,-3554.2858L13946.5225,-3554.2898L13946.5397,-3554.2914L13946.5581,-3554.2932L13946.57,-3554.2949L13946.5879,-3554.2971L13946.5976,-3554.2988L13946.6148,-3554.3005L13946.6437,-3554.3044L13946.6603,-3554.3014L13946.6706,-3554.3073L13946.6851,-3554.309L13946.7037,-3554.3112L13946.7168,-3554.3135L13946.7622,-3554.3186L13946.7767,-3554.3191L13946.7905,-3554.3208L13946.8539,-3554.3242L13946.887,-3554.3242L13946.929,-3554.3225L13946.9552,-3554.3202L13947.0013,-3554.3163L13947.0454,-3554.3094L13947.0578,-3554.3113L13947.0902,-3554.309L13947.1031,-3554.3101L13947.1253,-3554.3117L13947.1825,-3554.3169L13947.1979,-3554.3144L13947.2108,-3554.3197L13947.2521,-3554.3248L13947.3045,-3554.3288L13947.3217,-3554.3299L13947.3746,-3554.332L13947.3803,-3554.3073L13947.3886,-3554.251L13947.3899,-3554.247L13947.3906,-3554.2386L13947.3991,-3554.1756L13947.4037,-3554.1383L13947.4037,-3554.1141L13947.4027,-3554.111L13947.3941,-3554.0853L13947.3882,-3554.0714L13947.3865,-3554.0616L13947.3693,-3553.9709L13947.3679,-3553.9586L13947.3665,-3553.9518L13947.3592,-3553.9069L13947.3727,-3553.8735L13947.3824,-3553.8448L13947.4113,-3553.7524L13947.4244,-3553.709L13947.4423,-3553.6267L13947.443,-3553.6183L13947.4458,-3553.5974L13947.4451,-3553.5788L13947.4403,-3553.5636L13947.4313,-3553.5439L13947.4175,-3553.549L13947.3982,-3553.558L13947.3162,-3553.5961L13947.2774,-3553.6148"/>
<path content="1,神奈川中央交通・相模神奈交バス・津久井神奈交バス,町76,56.0,41.0,34.5," xlink:title="1" d="M13946.741,-3555.1758L13946.7429,-3555.1732L13946.776,-3555.1327L13946.796,-3555.1113L13946.8118,-3555.0972L13946.8731,-3555.0549L13946.9589,-3554.9956L13946.9662,-3554.9952L13946.9855,-3554.9851L13947.0048,-3554.9761L13947.0234,-3554.971L13947.064,-3554.9643L13947.1157,-3554.9603L13947.1853,-3554.9586L13947.2073,-3554.9569L13947.2542,-3554.9558L13947.3086,-3554.9536L13947.3231,-3554.9524L13947.3625,-3554.9483L13947.3789,-3554.9508L13947.3913,-3554.9496L13947.4257,-3554.9485L13947.4609,-3554.9474L13947.5388,-3554.944L13947.5456,-3554.9429L13947.6159,-3554.9406L13947.7418,-3554.9373L13947.7992,-3554.9339L13947.8743,-3554.9311L13947.9232,-3554.9289L13947.9356,-3554.9267L13947.9391,-3554.926L13947.9329,-3554.9784L13947.9267,-3555.0252L13947.9143,-3555.1097L13947.9081,-3555.1474L13947.9044,-3555.1758"/>
<path content="1,神奈川中央交通・相模神奈交バス・津久井神奈交バス,町83,45.5,33.0,30.5," xlink:title="1" d="M13946.2365,-3552.9785L13946.2318,-3552.9905L13946.2118,-3553.0446L13946.1908,-3553.1089L13946.1539,-3553.1753L13946.1381,-3553.2029L13946.1319,-3553.2114L13946.1243,-3553.2249L13946.1174,-3553.2459L13946.1144,-3553.2554L13946.0919,-3553.2846L13946.0726,-3553.3043L13946.0449,-3553.3284"/>
<path content="1,神奈川中央交通・相模神奈交バス・津久井神奈交バス,町84,12.0,10.5,10.5," xlink:title="1" d="M13947.2774,-3553.6148L13947.3162,-3553.5961L13947.3982,-3553.558L13947.4175,-3553.549L13947.4313,-3553.5439L13947.4141,-3553.5073L13947.4065,-3553.4943L13947.3929,-3553.4621L13947.3849,-3553.4529L13947.3857,-3553.4409L13947.374,-3553.4106L13947.3692,-3553.4006L13947.3569,-3553.3816L13947.3266,-3553.3383L13947.3251,-3553.3363L13947.3164,-3553.324L13947.3149,-3553.3219L13947.2783,-3553.283L13947.2732,-3553.2788L13947.2542,-3553.2633L13947.2462,-3553.2565L13947.207,-3553.2333L13947.2115,-3553.2272L13947.1826,-3553.2024L13947.1715,-3553.1912L13947.1646,-3553.1805L13947.1564,-3553.163L13947.1523,-3553.1512L13947.1495,-3553.1337L13947.1474,-3553.1038L13947.1474,-3553.0926L13947.1467,-3553.0734L13947.1413,-3553.0419L13947.1395,-3553.0344L13947.1335,-3553.0289L13947.1247,-3553.0148L13947.1047,-3552.9979L13947.0992,-3552.9945L13947.0802,-3552.9785M13946.2365,-3552.9785L13946.2318,-3552.9905L13946.2118,-3553.0446L13946.1908,-3553.1089L13946.1539,-3553.1753L13946.1381,-3553.2029L13946.1319,-3553.2114L13946.1243,-3553.2249L13946.1174,-3553.2459L13946.1144,-3553.2554L13946.0919,-3553.2846L13946.0726,-3553.3043L13946.0449,-3553.3284"/>
<path content="1,神奈川中央交通・相模神奈交バス・津久井神奈交バス,町85,29.5,24.5,20.0," xlink:title="1" d="M13946.2365,-3552.9785L13946.2318,-3552.9905L13946.2118,-3553.0446L13946.1908,-3553.1089L13946.1539,-3553.1753L13946.1381,-3553.2029L13946.1319,-3553.2114L13946.1243,-3553.2249L13946.1174,-3553.2459L13946.1144,-3553.2554L13946.0919,-3553.2846L13946.0726,-3553.3043L13946.0449,-3553.3284"/>
<path content="1,神奈川中央交通・相模神奈交バス・津久井神奈交バス,町92,48.0,38.0,35.5," xlink:title="1" d="M13946.0449,-3554.6511L13946.0505,-3554.6515L13946.0571,-3554.6538"/>
<path content="1,神奈川中央交通・相模神奈交バス・津久井神奈交バス,町93,3.0,2.0,1.0," xlink:title="1" d="M13946.0449,-3554.2196L13946.0505,-3554.221L13946.0546,-3554.2227L13946.0857,-3554.2311L13946.0939,-3554.2328L13946.1263,-3554.2368L13946.1778,-3554.2454L13946.1888,-3554.2466L13946.2827,-3554.2582L13946.2924,-3554.2597L13946.3123,-3554.2627L13946.3206,-3554.2639L13946.3329,-3554.2621L13946.3542,-3554.267L13946.3946,-3554.2734L13946.3985,-3554.2741L13946.4639,-3554.2819L13946.4804,-3554.2847L13946.4935,-3554.2858L13946.5225,-3554.2898L13946.5397,-3554.2914L13946.5581,-3554.2932L13946.57,-3554.2949L13946.5879,-3554.2971L13946.5976,-3554.2988L13946.6148,-3554.3005L13946.6437,-3554.3044L13946.6603,-3554.3014L13946.6706,-3554.3073L13946.6851,-3554.309L13946.7037,-3554.3112L13946.7168,-3554.3135L13946.7622,-3554.3186L13946.7767,-3554.3191L13946.7905,-3554.3208L13946.8539,-3554.3242L13946.887,-3554.3242L13946.929,-3554.3225L13946.9552,-3554.3202L13947.0013,-3554.3163L13947.0454,-3554.3094L13947.0578,-3554.3113L13947.0902,-3554.309L13947.1031,-3554.3101L13947.1253,-3554.3117L13947.1825,-3554.3169L13947.1979,-3554.3144L13947.2108,-3554.3197L13947.2521,-3554.3248L13947.3045,-3554.3288L13947.3217,-3554.3299L13947.3746,-3554.332L13947.3743,-3554.3419L13947.3734,-3554.3524L13947.3651,-3554.4088L13947.3632,-3554.4201L13947.3624,-3554.4251L13947.3594,-3554.4409L13947.3569,-3554.4578L13947.3536,-3554.4922L13947.3424,-3554.5242L13947.3369,-3554.5502L13947.3328,-3554.5648L13947.3169,-3554.6149L13947.3093,-3554.6347L13947.3045,-3554.6442L13947.2811,-3554.6949L13947.2466,-3554.7688L13947.228,-3554.8071L13947.2073,-3554.8527L13947.2053,-3554.8597L13947.1922,-3554.8871L13947.186,-3554.9028L13947.1839,-3554.9107L13947.1839,-3554.9175L13947.1853,-3554.9586L13947.1887,-3554.9823L13947.1901,-3554.9964L13947.1915,-3554.9986L13947.2018,-3555.0809L13947.2032,-3555.0848L13947.2142,-3555.1677L13947.2154,-3555.1758"/>
<path content="1,神奈川中央交通・相模神奈交バス・津久井神奈交バス,町94,9.5,8.5,5.0," xlink:title="1" d="M13946.0449,-3554.2196L13946.0505,-3554.221L13946.0546,-3554.2227L13946.0857,-3554.2311L13946.0939,-3554.2328L13946.1263,-3554.2368L13946.1778,-3554.2454L13946.1888,-3554.2466L13946.2827,-3554.2582L13946.2924,-3554.2597L13946.3123,-3554.2627L13946.3206,-3554.2639L13946.3329,-3554.2621L13946.3542,-3554.267L13946.3946,-3554.2734L13946.3985,-3554.2741L13946.4639,-3554.2819L13946.4804,-3554.2847L13946.4935,-3554.2858L13946.5225,-3554.2898L13946.5397,-3554.2914L13946.5581,-3554.2932L13946.57,-3554.2949L13946.5879,-3554.2971L13946.5976,-3554.2988L13946.6148,-3554.3005L13946.6437,-3554.3044L13946.6603,-3554.3014L13946.6706,-3554.3073L13946.6851,-3554.309L13946.7037,-3554.3112L13946.7168,-3554.3135L13946.7622,-3554.3186L13946.7767,-3554.3191L13946.7905,-3554.3208L13946.8539,-3554.3242L13946.887,-3554.3242L13946.929,-3554.3225L13946.9552,-3554.3202L13947.0013,-3554.3163L13947.0454,-3554.3094L13947.0578,-3554.3113L13947.0902,-3554.309L13947.1031,-3554.3101L13947.1253,-3554.3117L13947.1825,-3554.3169L13947.1979,-3554.3144L13947.2108,-3554.3197L13947.2521,-3554.3248L13947.3045,-3554.3288L13947.3217,-3554.3299L13947.3746,-3554.332L13947.3743,-3554.3419L13947.3734,-3554.3524L13947.3651,-3554.4088L13947.3632,-3554.4201L13947.3624,-3554.4251L13947.3594,-3554.4409L13947.3569,-3554.4578L13947.3536,-3554.4922L13947.3424,-3554.5242L13947.3369,-3554.5502L13947.3328,-3554.5648L13947.3169,-3554.6149L13947.3093,-3554.6347L13947.3045,-3554.6442L13947.2811,-3554.6949L13947.2466,-3554.7688L13947.228,-3554.8071L13947.2073,-3554.8527L13947.2053,-3554.8597L13947.1922,-3554.8871L13947.186,-3554.9028L13947.1839,-3554.9107L13947.1839,-3554.9175L13947.1853,-3554.9586"/>
<path content="1,神奈川中央交通・相模神奈交バス・津久井神奈交バス,町94,9.5,8.5,5.0," xlink:title="1" d="M13947.1853,-3554.9586L13947.1887,-3554.9823L13947.1901,-3554.9964L13947.1915,-3554.9986L13947.2018,-3555.0809L13947.2032,-3555.0848L13947.2142,-3555.1677L13947.2154,-3555.1758"/>
<path content="1,神奈川中央交通・相模神奈交バス・津久井神奈交バス,町94,9.5,8.5,5.0," xlink:title="1" d="M13947.1853,-3554.9586L13947.2073,-3554.9569L13947.2542,-3554.9558L13947.3086,-3554.9536L13947.3231,-3554.9524L13947.3625,-3554.9483L13947.3789,-3554.9508L13947.3913,-3554.9496L13947.4257,-3554.9485L13947.4609,-3554.9474L13947.5388,-3554.944L13947.5456,-3554.9429L13947.6159,-3554.9406L13947.7418,-3554.9373L13947.7992,-3554.9339L13947.8743,-3554.9311L13947.9232,-3554.9289L13947.9356,-3554.9267L13947.9391,-3554.926L13947.9329,-3554.9784L13947.9267,-3555.0252L13947.9143,-3555.1097L13947.9081,-3555.1474L13947.9044,-3555.1758"/>
<path content="1,神奈川中央交通（株）,成03,22.0,15.5,15.0," xlink:title="1" d="M13948.2422,-3554.9022L13948.1948,-3554.9054L13948.0866,-3554.9183L13948.0741,-3554.9159L13947.9556,-3554.9255L13947.9391,-3554.926L13947.9356,-3554.9267L13947.9232,-3554.9289L13947.8743,-3554.9311L13947.7992,-3554.9339L13947.7418,-3554.9373L13947.6159,-3554.9406L13947.5456,-3554.9429L13947.5388,-3554.944L13947.4609,-3554.9474L13947.4257,-3554.9485L13947.3913,-3554.9496L13947.3789,-3554.9508L13947.3625,-3554.9483L13947.3231,-3554.9524L13947.3086,-3554.9536L13947.2542,-3554.9558L13947.2073,-3554.9569L13947.1853,-3554.9586L13947.1839,-3554.9175L13947.1839,-3554.9107L13947.186,-3554.9028L13947.1922,-3554.8871L13947.2053,-3554.8597L13947.2073,-3554.8527L13947.228,-3554.8071L13947.2466,-3554.7688L13947.2811,-3554.6949L13947.3045,-3554.6442L13947.3093,-3554.6347L13947.3169,-3554.6149L13947.3328,-3554.5648L13947.3369,-3554.5502L13947.3424,-3554.5242L13947.3536,-3554.4922L13947.3569,-3554.4578L13947.3594,-3554.4409L13947.3624,-3554.4251L13947.3632,-3554.4201L13947.3651,-3554.4088L13947.3734,-3554.3524L13947.3743,-3554.3419L13947.3746,-3554.332L13947.3803,-3554.3073L13947.3886,-3554.251L13947.3899,-3554.247L13947.3906,-3554.2386L13947.3991,-3554.1756L13947.4037,-3554.1383L13947.4037,-3554.1141L13947.4027,-3554.111L13947.3941,-3554.0853L13947.3882,-3554.0714L13947.3865,-3554.0616L13947.3693,-3553.9709L13947.3679,-3553.9586L13947.3665,-3553.9518L13947.3592,-3553.9069L13947.3727,-3553.8735L13947.3824,-3553.8448L13947.4113,-3553.7524L13947.4244,-3553.709L13947.4423,-3553.6267L13947.443,-3553.6183L13947.4458,-3553.5974L13947.4451,-3553.5788L13947.4403,-3553.5636L13947.4313,-3553.5439L13947.4175,-3553.549L13947.3982,-3553.558L13947.3162,-3553.5961L13947.2774,-3553.6148"/>
<path content="1,神奈川中央交通（株）,成04,13.5,10.5,11.0," xlink:title="1" d="M13947.2774,-3553.6148L13947.3162,-3553.5961L13947.3982,-3553.558L13947.4175,-3553.549L13947.4313,-3553.5439L13947.4403,-3553.5636L13947.4451,-3553.5788L13947.4458,-3553.5974L13947.443,-3553.6183L13947.4423,-3553.6267L13947.4244,-3553.709L13947.4113,-3553.7524L13947.3824,-3553.8448L13947.3727,-3553.8735L13947.3592,-3553.9069L13947.3665,-3553.9518L13947.3679,-3553.9586L13947.3693,-3553.9709L13947.3865,-3554.0616L13947.3882,-3554.0714L13947.3941,-3554.0853L13947.4027,-3554.111L13947.4037,-3554.1141L13947.4037,-3554.1383L13947.3991,-3554.1756L13947.3906,-3554.2386L13947.3899,-3554.247L13947.3886,-3554.251L13947.3803,-3554.3073L13947.3746,-3554.332L13947.3743,-3554.3419L13947.3734,-3554.3524L13947.3651,-3554.4088L13947.3632,-3554.4201L13947.3624,-3554.4251L13947.3594,-3554.4409L13947.3569,-3554.4578L13947.3536,-3554.4922L13947.3424,-3554.5242L13947.3369,-3554.5502L13947.3328,-3554.5648L13947.3169,-3554.6149L13947.3093,-3554.6347L13947.3045,-3554.6442L13947.2811,-3554.6949L13947.2466,-3554.7688L13947.228,-3554.8071L13947.2073,-3554.8527L13947.2053,-3554.8597L13947.1922,-3554.8871L13947.186,-3554.9028L13947.1839,-3554.9107L13947.1839,-3554.9175L13947.1853,-3554.9586L13947.2073,-3554.9569L13947.2542,-3554.9558L13947.3086,-3554.9536L13947.3231,-3554.9524L13947.3625,-3554.9483L13947.3789,-3554.9508L13947.3913,-3554.9496L13947.4257,-3554.9485L13947.4609,-3554.9474L13947.5388,-3554.944L13947.5456,-3554.9429L13947.6159,-3554.9406L13947.7418,-3554.9373L13947.7992,-3554.9339L13947.8743,-3554.9311L13947.9232,-3554.9289L13947.9356,-3554.9267L13947.9391,-3554.926L13947.9329,-3554.9784L13947.9267,-3555.0252L13947.9143,-3555.1097L13947.9081,-3555.1474L13947.9044,-3555.1758"/>
<path content="1,神奈川中央交通（株）,新宿駅西口小田急ハルク前～本厚木駅,0.2,0.0,0.0," xlink:title="1" d="M13946.0449,-3553.3284L13946.0726,-3553.3043L13946.0919,-3553.2846L13946.1144,-3553.2554L13946.1174,-3553.2459L13946.1243,-3553.2249L13946.1319,-3553.2114L13946.1381,-3553.2029L13946.1539,-3553.1753L13946.1908,-3553.1089L13946.2118,-3553.0446L13946.2318,-3552.9905L13946.2365,-3552.9785"/>
<path content="1,神奈川中央交通（株）,橋本駅・相模大野・町田バスセンター～成田空港,9.0,9.0,9.0," xlink:title="1" d="M13946.0449,-3554.2196L13946.0505,-3554.221L13946.0546,-3554.2227L13946.0857,-3554.2311L13946.0939,-3554.2328L13946.1263,-3554.2368L13946.1778,-3554.2454L13946.1888,-3554.2466L13946.2827,-3554.2582L13946.2924,-3554.2597L13946.3123,-3554.2627L13946.3206,-3554.2639L13946.3329,-3554.2621L13946.3542,-3554.267L13946.3946,-3554.2734L13946.3985,-3554.2741L13946.4639,-3554.2819L13946.4804,-3554.2847L13946.4935,-3554.2858L13946.5225,-3554.2898L13946.5397,-3554.2914L13946.5581,-3554.2932L13946.57,-3554.2949L13946.5879,-3554.2971L13946.5976,-3554.2988L13946.6148,-3554.3005L13946.6437,-3554.3044L13946.6603,-3554.3014L13946.6706,-3554.3073L13946.6851,-3554.309L13946.7037,-3554.3112L13946.7168,-3554.3135L13946.7622,-3554.3186L13946.7767,-3554.3191L13946.7905,-3554.3208L13946.8539,-3554.3242L13946.887,-3554.3242L13946.929,-3554.3225L13946.9552,-3554.3202L13947.0013,-3554.3163L13947.0454,-3554.3094L13947.0578,-3554.3113L13947.0902,-3554.309L13947.1031,-3554.3101L13947.1253,-3554.3117L13947.1825,-3554.3169L13947.1979,-3554.3144L13947.2108,-3554.3197L13947.2521,-3554.3248L13947.3045,-3554.3288L13947.3217,-3554.3299L13947.3746,-3554.332L13947.3982,-3554.3293L13947.4409,-3554.3265L13947.454,-3554.3248L13947.4788,-3554.3242L13947.4988,-3554.3214L13947.5271,-3554.3192L13947.5526,-3554.3124L13947.5794,-3554.3034L13947.5918,-3554.2978L13947.5946,-3554.2955L13947.6201,-3554.282L13947.6324,-3554.2736L13947.637,-3554.2703L13947.6483,-3554.26L13947.6786,-3554.2324L13947.7145,-3554.1964L13947.7179,-3554.1923L13947.7291,-3554.1791L13947.751,-3554.153L13947.7813,-3554.1158L13947.8123,-3554.0781L13947.8227,-3554.0663L13947.8826,-3553.9936L13947.9274,-3553.9395L13947.9935,-3553.8612L13948.0144,-3553.8412L13948.0369,-3553.8268L13948.0659,-3553.8122L13948.0783,-3553.8065L13948.0914,-3553.8015L13948.1451,-3553.7829L13948.1941,-3553.7694L13948.2237,-3553.7609L13948.2368,-3553.7581L13948.2422,-3553.7566"/>
<path content="1,神奈川中央交通（株）,田村車庫・本厚木駅～成田空港,4.0,4.0,4.0," xlink:title="1" d="M13946.0449,-3553.3284L13946.0726,-3553.3043L13946.0919,-3553.2846L13946.1144,-3553.2554L13946.1174,-3553.2459L13946.1243,-3553.2249L13946.1319,-3553.2114L13946.1381,-3553.2029L13946.1539,-3553.1753L13946.1908,-3553.1089L13946.2118,-3553.0446L13946.2318,-3552.9905L13946.2365,-3552.9785"/>
<path content="1,神奈川中央交通（株）,田村車庫・本厚木駅～羽田空港,6.0,6.0,6.0," xlink:title="1" d="M13946.0449,-3553.3284L13946.0726,-3553.3043L13946.0919,-3553.2846L13946.1144,-3553.2554L13946.1174,-3553.2459L13946.1243,-3553.2249L13946.1319,-3553.2114L13946.1381,-3553.2029L13946.1539,-3553.1753L13946.1908,-3553.1089L13946.2118,-3553.0446L13946.2318,-3552.9905L13946.2365,-3552.9785"/>
<path content="1,神奈川中央交通（株）,町70,1.0,0.0,0.0," xlink:title="1" d="M13948.2422,-3553.7566L13948.2368,-3553.7581L13948.2237,-3553.7609L13948.1941,-3553.7694L13948.1451,-3553.7829L13948.0914,-3553.8015L13948.0783,-3553.8065L13948.0659,-3553.8122L13948.0369,-3553.8268L13948.0144,-3553.8412L13947.9935,-3553.8612L13947.9274,-3553.9395L13947.8826,-3553.9936L13947.8227,-3554.0663L13947.8123,-3554.0781L13947.7813,-3554.1158L13947.751,-3554.153L13947.7291,-3554.1791L13947.7179,-3554.1923L13947.7145,-3554.1964L13947.6786,-3554.2324L13947.6483,-3554.26L13947.637,-3554.2703L13947.6324,-3554.2736L13947.6201,-3554.282L13947.5946,-3554.2955L13947.5918,-3554.2978L13947.5794,-3554.3034L13947.5526,-3554.3124L13947.5271,-3554.3192L13947.4988,-3554.3214L13947.4788,-3554.3242L13947.454,-3554.3248L13947.4409,-3554.3265L13947.3982,-3554.3293L13947.3746,-3554.332L13947.3217,-3554.3299L13947.3045,-3554.3288L13947.2521,-3554.3248L13947.2108,-3554.3197L13947.1979,-3554.3144L13947.1825,-3554.3169L13947.1253,-3554.3117L13947.1031,-3554.3101L13947.0902,-3554.309L13947.0578,-3554.3113L13947.0454,-3554.3094L13947.0013,-3554.3163L13946.9552,-3554.3202L13946.929,-3554.3225L13946.887,-3554.3242L13946.8539,-3554.3242L13946.7905,-3554.3208L13946.7767,-3554.3191L13946.7622,-3554.3186L13946.7168,-3554.3135L13946.7037,-3554.3112L13946.6851,-3554.309L13946.6706,-3554.3073L13946.6603,-3554.3014L13946.6437,-3554.3044L13946.6148,-3554.3005L13946.5976,-3554.2988L13946.5879,-3554.2971L13946.57,-3554.2949L13946.5581,-3554.2932L13946.5397,-3554.2914L13946.5225,-3554.2898L13946.4935,-3554.2858L13946.4804,-3554.2847L13946.4639,-3554.2819L13946.3985,-3554.2741L13946.3946,-3554.2734L13946.3542,-3554.267L13946.3329,-3554.2621L13946.3206,-3554.2639L13946.3123,-3554.2627L13946.2924,-3554.2597L13946.2827,-3554.2582L13946.1888,-3554.2466L13946.1778,-3554.2454L13946.1263,-3554.2368L13946.0939,-3554.2328L13946.0857,-3554.2311L13946.0546,-3554.2227L13946.0505,-3554.221L13946.0449,-3554.2196"/>
<path content="1,神奈川中央交通（株）,町71,2.0,0.0,1.0," xlink:title="1" d="M13948.2422,-3553.7566L13948.2368,-3553.7581L13948.2237,-3553.7609L13948.1941,-3553.7694L13948.1451,-3553.7829L13948.0914,-3553.8015L13948.0783,-3553.8065L13948.0659,-3553.8122L13948.0369,-3553.8268L13948.0144,-3553.8412L13947.9935,-3553.8612L13947.9274,-3553.9395L13947.8826,-3553.9936L13947.8227,-3554.0663L13947.8123,-3554.0781L13947.7813,-3554.1158L13947.751,-3554.153L13947.7291,-3554.1791L13947.7179,-3554.1923L13947.7145,-3554.1964L13947.6786,-3554.2324L13947.6483,-3554.26L13947.637,-3554.2703L13947.6324,-3554.2736L13947.6201,-3554.282L13947.5946,-3554.2955L13947.5918,-3554.2978L13947.5794,-3554.3034L13947.5526,-3554.3124L13947.5271,-3554.3192L13947.4988,-3554.3214L13947.4788,-3554.3242L13947.454,-3554.3248L13947.4409,-3554.3265L13947.3982,-3554.3293L13947.3746,-3554.332L13947.3217,-3554.3299L13947.3045,-3554.3288L13947.2521,-3554.3248L13947.2108,-3554.3197L13947.1979,-3554.3144L13947.1825,-3554.3169L13947.1253,-3554.3117L13947.1031,-3554.3101L13947.0902,-3554.309L13947.0578,-3554.3113L13947.0454,-3554.3094L13947.0013,-3554.3163L13946.9552,-3554.3202L13946.929,-3554.3225L13946.887,-3554.3242L13946.8539,-3554.3242L13946.7905,-3554.3208L13946.7767,-3554.3191L13946.7622,-3554.3186L13946.7168,-3554.3135L13946.7037,-3554.3112L13946.6851,-3554.309L13946.6706,-3554.3073L13946.6603,-3554.3014L13946.6437,-3554.3044L13946.6148,-3554.3005L13946.5976,-3554.2988L13946.5879,-3554.2971L13946.57,-3554.2949L13946.5581,-3554.2932L13946.5397,-3554.2914L13946.5225,-3554.2898L13946.4935,-3554.2858L13946.4804,-3554.2847L13946.4639,-3554.2819L13946.3985,-3554.2741L13946.3946,-3554.2734L13946.3542,-3554.267L13946.3329,-3554.2621L13946.3206,-3554.2639L13946.3123,-3554.2627L13946.2924,-3554.2597L13946.2827,-3554.2582L13946.1888,-3554.2466L13946.1778,-3554.2454L13946.1263,-3554.2368L13946.0939,-3554.2328L13946.0857,-3554.2311L13946.0546,-3554.2227L13946.0505,-3554.221L13946.0449,-3554.2196"/>
<path content="1,神奈川中央交通（株）,町72,1.0,0.5,2.0," xlink:title="1" d="M13948.2422,-3553.7566L13948.2368,-3553.7581L13948.2237,-3553.7609L13948.1941,-3553.7694L13948.1451,-3553.7829L13948.0914,-3553.8015L13948.0783,-3553.8065L13948.0659,-3553.8122L13948.0369,-3553.8268L13948.0144,-3553.8412L13947.9935,-3553.8612L13947.9274,-3553.9395L13947.8826,-3553.9936L13947.8227,-3554.0663L13947.8123,-3554.0781L13947.7813,-3554.1158L13947.751,-3554.153L13947.7291,-3554.1791L13947.7179,-3554.1923L13947.7145,-3554.1964L13947.6786,-3554.2324L13947.6483,-3554.26L13947.637,-3554.2703L13947.6324,-3554.2736L13947.6201,-3554.282L13947.5946,-3554.2955L13947.5918,-3554.2978L13947.5794,-3554.3034L13947.5526,-3554.3124L13947.5271,-3554.3192L13947.4988,-3554.3214L13947.4788,-3554.3242L13947.454,-3554.3248L13947.4409,-3554.3265L13947.3982,-3554.3293L13947.3746,-3554.332L13947.3217,-3554.3299L13947.3045,-3554.3288L13947.2521,-3554.3248L13947.2108,-3554.3197L13947.1979,-3554.3144L13947.1825,-3554.3169L13947.1253,-3554.3117L13947.1031,-3554.3101L13947.0902,-3554.309L13947.0578,-3554.3113L13947.0454,-3554.3094L13947.0013,-3554.3163L13946.9552,-3554.3202L13946.929,-3554.3225L13946.887,-3554.3242L13946.8539,-3554.3242L13946.7905,-3554.3208L13946.7767,-3554.3191L13946.7622,-3554.3186L13946.7168,-3554.3135L13946.7037,-3554.3112L13946.6851,-3554.309L13946.6706,-3554.3073L13946.6603,-3554.3014L13946.6437,-3554.3044L13946.6148,-3554.3005L13946.5976,-3554.2988L13946.5879,-3554.2971L13946.57,-3554.2949L13946.5581,-3554.2932L13946.5397,-3554.2914L13946.5225,-3554.2898L13946.4935,-3554.2858L13946.4804,-3554.2847L13946.4639,-3554.2819L13946.3985,-3554.2741L13946.3946,-3554.2734L13946.3542,-3554.267L13946.3329,-3554.2621L13946.3206,-3554.2639L13946.3123,-3554.2627L13946.2924,-3554.2597L13946.2827,-3554.2582L13946.1888,-3554.2466L13946.1778,-3554.2454L13946.1263,-3554.2368L13946.0939,-3554.2328L13946.0857,-3554.2311L13946.0546,-3554.2227L13946.0505,-3554.221L13946.0449,-3554.2196"/>
<path content="1,神奈川中央交通（株）,町73,23.0,21.5,18.5," xlink:title="1" d="M13946.0449,-3554.2196L13946.0505,-3554.221L13946.0546,-3554.2227L13946.0857,-3554.2311L13946.0939,-3554.2328L13946.1263,-3554.2368L13946.1778,-3554.2454L13946.1888,-3554.2466L13946.2827,-3554.2582L13946.2924,-3554.2597L13946.3123,-3554.2627L13946.3206,-3554.2639L13946.3329,-3554.2621L13946.3542,-3554.267L13946.3946,-3554.2734L13946.3985,-3554.2741L13946.4639,-3554.2819L13946.4804,-3554.2847L13946.4935,-3554.2858L13946.5225,-3554.2898L13946.5397,-3554.2914L13946.5581,-3554.2932L13946.57,-3554.2949L13946.5879,-3554.2971L13946.5976,-3554.2988L13946.6148,-3554.3005L13946.6437,-3554.3044L13946.6603,-3554.3014L13946.6706,-3554.3073L13946.6851,-3554.309L13946.7037,-3554.3112L13946.7168,-3554.3135L13946.7622,-3554.3186L13946.7767,-3554.3191L13946.7905,-3554.3208L13946.8539,-3554.3242L13946.887,-3554.3242L13946.929,-3554.3225L13946.9552,-3554.3202L13947.0013,-3554.3163L13947.0454,-3554.3094L13947.0578,-3554.3113L13947.0902,-3554.309L13947.1031,-3554.3101L13947.1253,-3554.3117L13947.1825,-3554.3169L13947.1979,-3554.3144L13947.2108,-3554.3197L13947.2521,-3554.3248L13947.3045,-3554.3288L13947.3217,-3554.3299L13947.3746,-3554.332L13947.3982,-3554.3293L13947.4409,-3554.3265L13947.454,-3554.3248L13947.4788,-3554.3242L13947.4988,-3554.3214L13947.5271,-3554.3192L13947.5526,-3554.3124L13947.5794,-3554.3034L13947.5918,-3554.2978L13947.5946,-3554.2955L13947.6201,-3554.282L13947.6324,-3554.2736L13947.637,-3554.2703L13947.6483,-3554.26L13947.6786,-3554.2324L13947.7145,-3554.1964L13947.7179,-3554.1923L13947.7291,-3554.1791L13947.751,-3554.153L13947.7813,-3554.1158L13947.8123,-3554.0781L13947.8227,-3554.0663L13947.8826,-3553.9936L13947.9274,-3553.9395L13947.9935,-3553.8612L13948.0144,-3553.8412L13948.0369,-3553.8268L13948.0659,-3553.8122L13948.0783,-3553.8065L13948.0914,-3553.8015L13948.1451,-3553.7829L13948.1941,-3553.7694L13948.2237,-3553.7609L13948.2368,-3553.7581L13948.2422,-3553.7566"/>
<path content="1,神奈川中央交通（株）,町82,5.0,3.0,3.0," xlink:title="1" d="M13946.2365,-3552.9785L13946.2318,-3552.9905L13946.2118,-3553.0446L13946.1908,-3553.1089L13946.1539,-3553.1753L13946.1381,-3553.2029L13946.1319,-3553.2114L13946.1243,-3553.2249L13946.1174,-3553.2459L13946.1144,-3553.2554L13946.0919,-3553.2846L13946.0726,-3553.3043L13946.0449,-3553.3284"/>
<path content="1,神奈川中央交通（株）,町87,19.5,19.5,19.0," xlink:title="1" d="M13946.2365,-3552.9785L13946.2318,-3552.9905L13946.2118,-3553.0446L13946.1908,-3553.1089L13946.1539,-3553.1753L13946.1381,-3553.2029L13946.1319,-3553.2114L13946.1243,-3553.2249L13946.1174,-3553.2459L13946.1144,-3553.2554L13946.0919,-3553.2846L13946.0726,-3553.3043L13946.0449,-3553.3284"/>
<path content="1,神奈川中央交通（株）,町88,1.0,1.0,1.0," xlink:title="1" d="M13946.2365,-3552.9785L13946.2318,-3552.9905L13946.2118,-3553.0446L13946.1908,-3553.1089L13946.1539,-3553.1753L13946.1381,-3553.2029L13946.1319,-3553.2114L13946.1243,-3553.2249L13946.1174,-3553.2459L13946.1144,-3553.2554L13946.0919,-3553.2846L13946.0726,-3553.3043L13946.0449,-3553.3284"/>
<path content="1,神奈川中央交通（株）,相模大野・町田バスセンター～羽田空港,10.0,10.0,10.0," xlink:title="1" d="M13946.0449,-3554.2196L13946.0505,-3554.221L13946.0546,-3554.2227L13946.0857,-3554.2311L13946.0939,-3554.2328L13946.1263,-3554.2368L13946.1778,-3554.2454L13946.1888,-3554.2466L13946.2827,-3554.2582L13946.2924,-3554.2597L13946.3123,-3554.2627L13946.3206,-3554.2639L13946.3329,-3554.2621L13946.3542,-3554.267L13946.3946,-3554.2734L13946.3985,-3554.2741L13946.4639,-3554.2819L13946.4804,-3554.2847L13946.4935,-3554.2858L13946.5225,-3554.2898L13946.5397,-3554.2914L13946.5581,-3554.2932L13946.57,-3554.2949L13946.5879,-3554.2971L13946.5976,-3554.2988L13946.6148,-3554.3005L13946.6437,-3554.3044L13946.6603,-3554.3014L13946.6706,-3554.3073L13946.6851,-3554.309L13946.7037,-3554.3112L13946.7168,-3554.3135L13946.7622,-3554.3186L13946.7767,-3554.3191L13946.7905,-3554.3208L13946.8539,-3554.3242L13946.887,-3554.3242L13946.929,-3554.3225L13946.9552,-3554.3202L13947.0013,-3554.3163L13947.0454,-3554.3094L13947.0578,-3554.3113L13947.0902,-3554.309L13947.1031,-3554.3101L13947.1253,-3554.3117L13947.1825,-3554.3169L13947.1979,-3554.3144L13947.2108,-3554.3197L13947.2521,-3554.3248L13947.3045,-3554.3288L13947.3217,-3554.3299L13947.3746,-3554.332L13947.3982,-3554.3293L13947.4409,-3554.3265L13947.454,-3554.3248L13947.4788,-3554.3242L13947.4988,-3554.3214L13947.5271,-3554.3192L13947.5526,-3554.3124L13947.5794,-3554.3034L13947.5918,-3554.2978L13947.5946,-3554.2955L13947.6201,-3554.282L13947.6324,-3554.2736L13947.637,-3554.2703L13947.6483,-3554.26L13947.6786,-3554.2324L13947.7145,-3554.1964L13947.7179,-3554.1923L13947.7291,-3554.1791L13947.751,-3554.153L13947.7813,-3554.1158L13947.8123,-3554.0781L13947.8227,-3554.0663L13947.8826,-3553.9936L13947.9274,-3553.9395L13947.9935,-3553.8612L13948.0144,-3553.8412L13948.0369,-3553.8268L13948.0659,-3553.8122L13948.0783,-3553.8065L13948.0914,-3553.8015L13948.1451,-3553.7829L13948.1941,-3553.7694L13948.2237,-3553.7609L13948.2368,-3553.7581L13948.2422,-3553.7566"/>
<path content="3,町田市,001,36.0,36.0,36.0," xlink:title="3" d="M13946.9972,-3553.5523L13946.9814,-3553.5512L13946.954,-3553.548L13946.9318,-3553.545L13946.8952,-3553.5393L13946.8663,-3553.5371L13946.8195,-3553.5297L13946.8112,-3553.5292L13946.7934,-3553.529L13946.7554,-3553.5224L13946.7485,-3553.5207L13946.7451,-3553.5196L13946.7306,-3553.5191L13946.712,-3553.5162L13946.6879,-3553.5145L13946.6661,-3553.4516L13946.6596,-3553.4109L13946.6534,-3553.3906L13946.6403,-3553.3641L13946.6369,-3553.3601L13946.629,-3553.3618L13946.6211,-3553.3646L13946.6135,-3553.3675L13946.6011,-3553.3731L13946.588,-3553.3799L13946.5756,-3553.3957L13946.5335,-3553.4097L13946.5074,-3553.4227L13946.4881,-3553.4328L13946.4674,-3553.4429L13946.4233,-3553.4616L13946.3567,-3553.4992L13946.3337,-3553.5004L13946.3289,-3553.5038L13946.3254,-3553.5049L13946.3096,-3553.5117L13946.2696,-3553.5263L13946.2496,-3553.5308L13946.2476,-3553.5252L13946.2352,-3553.4937L13946.2128,-3553.4707L13946.1318,-3553.4379L13946.1256,-3553.4345L13946.1339,-3553.4244L13946.1256,-3553.4198L13946.0753,-3553.3922L13946.0676,-3553.391L13946.0533,-3553.3793L13946.0449,-3553.3751M13946.0449,-3553.3284L13946.0726,-3553.3043L13946.0919,-3553.2846L13946.1144,-3553.2554L13946.1174,-3553.2459L13946.1243,-3553.2249L13946.1319,-3553.2114L13946.1381,-3553.2029L13946.1539,-3553.1753L13946.1908,-3553.1089L13946.2118,-3553.0446L13946.2318,-3552.9905L13946.2365,-3552.9785M13946.5222,-3552.9785L13946.5225,-3552.9793L13946.5439,-3552.9911L13946.5501,-3552.9934L13946.5576,-3552.9973L13946.5763,-3553.0018L13946.5852,-3553.0075L13946.6286,-3553.0199L13946.6521,-3553.0266L13946.692,-3553.0311L13946.7489,-3553.0364L13946.7923,-3553.0378L13946.8181,-3553.0689L13946.8243,-3553.0751L13946.8261,-3553.0815L13946.8597,-3553.1104L13946.8621,-3553.1126L13946.8507,-3553.117L13946.8236,-3553.1359L13946.8146,-3553.1455L13946.8126,-3553.1534L13946.7671,-3553.2632L13946.7595,-3553.2671L13946.7519,-3553.301L13946.7499,-3553.3061L13946.794,-3553.3049L13946.8332,-3553.3083L13946.9042,-3553.3134L13946.9621,-3553.2993L13946.9704,-3553.2982L13946.9738,-3553.31L13946.977,-3553.3254L13946.9814,-3553.3326L13946.989,-3553.3562L13946.9993,-3553.3895L13947.0021,-3553.3974L13947.0096,-3553.4193L13947.0138,-3553.443L13947.0131,-3553.4695L13947.0124,-3553.4751L13947.0089,-3553.4943L13947.0089,-3553.4999L13947.0055,-3553.5134L13946.9972,-3553.5523"/>
<path content="3,町田市,001,36.0,36.0,36.0," xlink:title="3" d="M13946.9972,-3553.5523L13947.0448,-3553.5501L13947.0847,-3553.545L13947.093,-3553.5427L13947.1157,-3553.5365L13947.1288,-3553.5337L13947.1639,-3553.5236L13947.1757,-3553.5196L13947.1963,-3553.5089L13947.1991,-3553.5084L13947.2094,-3553.5022L13947.2218,-3553.4949L13947.2577,-3553.4746L13947.2749,-3553.5067L13947.2776,-3553.5129L13947.2735,-3553.5152L13947.2611,-3553.5214L13947.2359,-3553.5337L13947.2122,-3553.5489L13947.1901,-3553.5596L13947.1812,-3553.5625L13947.1068,-3553.5799L13947.0875,-3553.5833L13947.0444,-3553.5896L13947.0041,-3553.5895L13946.9903,-3553.5884L13946.9938,-3553.5759L13946.9972,-3553.5523"/>
</g>
</svg>
