<?xml version="1.0" encoding="UTF-8"?>
<svg  xmlns="http://www.w3.org/2000/svg" xmlns:xlink="http://www.w3.org/1999/xlink" xmlns:go="http://purl.org/svgmap/profile" property="N07_001,N07_002,N07_003,N07_004,N07_005,N07_006,N07_007" viewBox="13969.1162109375 -3573.8525390625 0.54931640625 0.54931640625" go:dataArea="13969.1162109375 -3573.8525390625 0.54931640625 0.54931640625" >
<metadata>
 <rdf:RDF xmlns:rdf="http://www.w3.org/1999/02/22-rdf-syntax-ns#" xmlns:crs="http://opengis.org/xmldtds/transformations.dtd" xmlns:svg="http://www.w3.org/svg" >
  <rdf:Description>
   <crs:CoordinateReferenceSystem rdf:resource="http://purl.org/crs/84" svg:transform="matrix(100.0,0.0,0.0,-100.0,0.0,0.0)" />
  </rdf:Description>
 </rdf:RDF>
</metadata>
<globalCoordinateSystem srsName="http://purl.org/crs/84" transform="matrix(100.0,0.0,0.0,-100.0,0.0,0.0)" />
<defs>
 <g id="p0" >
  <circle cx="0.0" cy="0.0" r="3" stroke="green" stroke-width="0.75" vector-effect="non-scaling-stroke" />
 </g>
</defs>
<g fill="none" fill-rule="evenodd" stroke="#FF00FF" stroke-width="0.75" opacity="0.5" vector-effect="non-scaling-stroke" stroke-linejoin="bevel" >
<path content="1,国際興業（株）,ミッドナイトアロー光が丘・和光市,1.0,0.0,0.0," xlink:title="1" d="M13969.6655,-3573.3549L13969.6618,-3573.3555L13969.6289,-3573.3641L13969.6253,-3573.3651L13969.5901,-3573.3762L13969.5453,-3573.3926L13969.5268,-3573.4011L13969.4952,-3573.4083L13969.4808,-3573.4218L13969.4635,-3573.4319L13969.458,-3573.4342L13969.4193,-3573.4578L13969.3986,-3573.4736L13969.3648,-3573.5018L13969.3561,-3573.5087L13969.3165,-3573.5401L13969.3133,-3573.5424L13969.3031,-3573.5439L13969.2963,-3573.555L13969.2539,-3573.5863L13969.2211,-3573.6099L13969.2143,-3573.6148L13969.1921,-3573.6297L13969.1372,-3573.6708L13969.128,-3573.6775L13969.1162,-3573.6861"/>
<path content="1,国際興業（株）,池02,58.0,48.0,45.0," xlink:title="1" d="M13969.6655,-3573.3549L13969.6618,-3573.3555L13969.6289,-3573.3641L13969.6253,-3573.3651L13969.5901,-3573.3762L13969.5453,-3573.3926L13969.5268,-3573.4011L13969.4952,-3573.4083L13969.4808,-3573.4218L13969.4635,-3573.4319L13969.458,-3573.4342L13969.4193,-3573.4578L13969.4179,-3573.4781L13969.4214,-3573.5164L13969.4259,-3573.5585L13969.4248,-3573.6534L13969.4221,-3573.6888L13969.4179,-3573.7249L13969.4173,-3573.7339L13969.4159,-3573.7373L13969.4145,-3573.7514L13969.409,-3573.7824L13969.3921,-3573.8456L13969.3917,-3573.8525"/>
<path content="1,国際興業（株）,池03,83.0,73.0,71.0," xlink:title="1" d="M13969.6655,-3573.3549L13969.6618,-3573.3555L13969.6289,-3573.3641L13969.6253,-3573.3651L13969.5901,-3573.3762L13969.5453,-3573.3926L13969.5268,-3573.4011L13969.4952,-3573.4083L13969.4808,-3573.4218L13969.4635,-3573.4319L13969.458,-3573.4342L13969.4193,-3573.4578L13969.4179,-3573.4781L13969.4214,-3573.5164L13969.4259,-3573.5585L13969.4248,-3573.6534L13969.4221,-3573.6888L13969.4179,-3573.7249L13969.4173,-3573.7339L13969.4159,-3573.7373L13969.4145,-3573.7514L13969.409,-3573.7824L13969.3921,-3573.8456L13969.3917,-3573.8525"/>
<path content="1,国際興業（株）,池04,11.0,12.0,12.0," xlink:title="1" d="M13969.6655,-3573.3549L13969.6618,-3573.3555L13969.6289,-3573.3641L13969.6253,-3573.3651L13969.5901,-3573.3762L13969.5453,-3573.3926L13969.5268,-3573.4011L13969.4952,-3573.4083L13969.4808,-3573.4218L13969.4635,-3573.4319L13969.458,-3573.4342L13969.4193,-3573.4578L13969.4179,-3573.4781L13969.4214,-3573.5164L13969.4259,-3573.5585L13969.4248,-3573.6534L13969.4221,-3573.6888L13969.4179,-3573.7249L13969.4173,-3573.7339L13969.4159,-3573.7373L13969.4145,-3573.7514L13969.409,-3573.7824L13969.3921,-3573.8456L13969.3917,-3573.8525"/>
<path content="1,国際興業（株）,池05,134.0,117.0,97.0," xlink:title="1" d="M13969.6655,-3573.3549L13969.6618,-3573.3555L13969.6289,-3573.3641L13969.6253,-3573.3651L13969.5901,-3573.3762L13969.5453,-3573.3926L13969.5268,-3573.4011L13969.4952,-3573.4083L13969.4808,-3573.4218L13969.4635,-3573.4319L13969.458,-3573.4342L13969.4193,-3573.4578L13969.3986,-3573.4736L13969.3648,-3573.5018L13969.3561,-3573.5087L13969.3165,-3573.5401L13969.3133,-3573.5424L13969.3031,-3573.5439L13969.2963,-3573.555L13969.2539,-3573.5863L13969.2211,-3573.6099L13969.2143,-3573.6148L13969.1921,-3573.6297L13969.1372,-3573.6708L13969.128,-3573.6775L13969.1162,-3573.6861"/>
<path content="1,国際興業（株）,池07,8.0,8.0,8.0," xlink:title="1" d="M13969.6655,-3573.3549L13969.6618,-3573.3555L13969.6289,-3573.3641L13969.6253,-3573.3651L13969.5901,-3573.3762L13969.5453,-3573.3926L13969.5268,-3573.4011L13969.4952,-3573.4083L13969.4808,-3573.4218L13969.4635,-3573.4319L13969.458,-3573.4342L13969.4193,-3573.4578L13969.3986,-3573.4736L13969.3648,-3573.5018L13969.3561,-3573.5087L13969.3165,-3573.5401L13969.3133,-3573.5424L13969.3031,-3573.5439L13969.2963,-3573.555L13969.2539,-3573.5863L13969.2211,-3573.6099L13969.2143,-3573.6148L13969.1921,-3573.6297L13969.1372,-3573.6708L13969.128,-3573.6775L13969.1162,-3573.6861"/>
<path content="1,日本中央バス（株）,前橋・高崎～池袋・新宿・秋葉原線,6.0,6.0,6.0," xlink:title="1" d="M13969.6655,-3573.3549L13969.6618,-3573.3555L13969.6289,-3573.3641L13969.6253,-3573.3651L13969.5901,-3573.3762L13969.5453,-3573.3926L13969.5268,-3573.4011L13969.4952,-3573.4083L13969.4808,-3573.4218L13969.4635,-3573.4319L13969.458,-3573.4342L13969.4193,-3573.4578L13969.3986,-3573.4736L13969.3648,-3573.5018L13969.3561,-3573.5087L13969.3165,-3573.5401L13969.3133,-3573.5424L13969.3031,-3573.5439L13969.2963,-3573.555L13969.2539,-3573.5863L13969.2211,-3573.6099L13969.2143,-3573.6148L13969.1921,-3573.6297L13969.1372,-3573.6708L13969.128,-3573.6775L13969.1162,-3573.6861"/>
</g>
</svg>
