<?xml version="1.0" encoding="UTF-8"?>
<svg  xmlns="http://www.w3.org/2000/svg" xmlns:xlink="http://www.w3.org/1999/xlink" xmlns:go="http://purl.org/svgmap/profile" property="N07_001,N07_002,N07_003,N07_004,N07_005,N07_006,N07_007" viewBox="13976.25732421875 -3568.90869140625 0.54931640625 0.54931640625" go:dataArea="13976.25732421875 -3568.90869140625 0.54931640625 0.54931640625" >
<metadata>
 <rdf:RDF xmlns:rdf="http://www.w3.org/1999/02/22-rdf-syntax-ns#" xmlns:crs="http://opengis.org/xmldtds/transformations.dtd" xmlns:svg="http://www.w3.org/svg" >
  <rdf:Description>
   <crs:CoordinateReferenceSystem rdf:resource="http://purl.org/crs/84" svg:transform="matrix(100.0,0.0,0.0,-100.0,0.0,0.0)" />
  </rdf:Description>
 </rdf:RDF>
</metadata>
<globalCoordinateSystem srsName="http://purl.org/crs/84" transform="matrix(100.0,0.0,0.0,-100.0,0.0,0.0)" />
<defs>
 <g id="p0" >
  <circle cx="0.0" cy="0.0" r="3" stroke="green" stroke-width="0.75" vector-effect="non-scaling-stroke" />
 </g>
</defs>
<g fill="none" fill-rule="evenodd" stroke="#FF00FF" stroke-width="0.75" opacity="0.5" vector-effect="non-scaling-stroke" stroke-linejoin="bevel" >
<path content="1,JRバステック（株）,名古屋系統（特急）,1.0,1.0,1.0," xlink:title="1" d="M13976.8066,-3568.4248L13976.7763,-3568.4311L13976.7625,-3568.4345L13976.7476,-3568.4378L13976.7304,-3568.4421L13976.7072,-3568.445L13976.5812,-3568.4745L13976.5658,-3568.4777L13976.5521,-3568.4808L13976.4734,-3568.4977L13976.4642,-3568.4996L13976.4533,-3568.502L13976.4429,-3568.5048L13976.336,-3568.5282L13976.3166,-3568.5321L13976.2764,-3568.4026L13976.2645,-3568.3644L13976.263,-3568.3594"/>
<path content="1,JRバステック（株）,名古屋系統（超特急）,3.0,3.0,3.0," xlink:title="1" d="M13976.263,-3568.3594L13976.2645,-3568.3644L13976.2764,-3568.4026L13976.3166,-3568.5321L13976.336,-3568.5282L13976.4429,-3568.5048L13976.4533,-3568.502L13976.4642,-3568.4996L13976.4734,-3568.4977L13976.5521,-3568.4808L13976.5658,-3568.4777L13976.5812,-3568.4745L13976.7072,-3568.445L13976.7304,-3568.4421L13976.7476,-3568.4378L13976.7625,-3568.4345L13976.7763,-3568.4311L13976.8066,-3568.4248"/>
<path content="1,JRバステック（株）,御殿場プレミアムアウトレット号東京号,0.7,0.0,0.0," xlink:title="1" d="M13976.263,-3568.3594L13976.2645,-3568.3644L13976.2764,-3568.4026L13976.3166,-3568.5321L13976.336,-3568.5282L13976.4429,-3568.5048L13976.4533,-3568.502L13976.4642,-3568.4996L13976.4734,-3568.4977L13976.5521,-3568.4808L13976.5658,-3568.4777L13976.5812,-3568.4745L13976.7072,-3568.445L13976.7304,-3568.4421L13976.7476,-3568.4378L13976.7625,-3568.4345L13976.7763,-3568.4311L13976.8066,-3568.4248"/>
<path content="1,JRバス東北（株）,ドリーム横浜・仙台号,1.0,1.0,1.0," xlink:title="1" d="M13976.543,-3568.9087L13976.5452,-3568.9082L13976.5523,-3568.9067L13976.5532,-3568.9065L13976.5542,-3568.9063L13976.555,-3568.9062L13976.5556,-3568.906L13976.669,-3568.8823L13976.6864,-3568.8787L13976.7175,-3568.8722L13976.7651,-3568.8603L13976.7995,-3568.8458L13976.8066,-3568.8428"/>
<path content="1,JRバス東北（株）,ドリーム盛岡・らくちん号,2.2,3.0,3.0," xlink:title="1" d="M13976.8066,-3568.8428L13976.7995,-3568.8458L13976.7651,-3568.8603L13976.7175,-3568.8722L13976.6864,-3568.8787L13976.669,-3568.8823L13976.5556,-3568.906L13976.555,-3568.9062L13976.5542,-3568.9063L13976.5532,-3568.9065L13976.5523,-3568.9067L13976.5452,-3568.9082L13976.543,-3568.9087"/>
<path content="1,JRバス東北（株）,ラ・フォーレ号,1.0,1.0,1.0," xlink:title="1" d="M13976.8066,-3568.8428L13976.7995,-3568.8458L13976.7651,-3568.8603L13976.7175,-3568.8722L13976.6864,-3568.8787L13976.669,-3568.8823L13976.5556,-3568.906L13976.555,-3568.9062L13976.5542,-3568.9063L13976.5532,-3568.9065L13976.5523,-3568.9067L13976.5452,-3568.9082L13976.543,-3568.9087"/>
<path content="1,JRバス関東（株）,かぐや姫EXPRESS・ヤキソバEXPRESS,3.0,3.0,3.0," xlink:title="1" d="M13976.263,-3568.3594L13976.2645,-3568.3644L13976.2764,-3568.4026L13976.3166,-3568.5321L13976.336,-3568.5282L13976.4429,-3568.5048L13976.4533,-3568.502L13976.4642,-3568.4996L13976.4734,-3568.4977L13976.5521,-3568.4808L13976.5658,-3568.4777L13976.5812,-3568.4745L13976.7072,-3568.445L13976.7304,-3568.4421L13976.7476,-3568.4378L13976.7625,-3568.4345L13976.7763,-3568.4311L13976.8066,-3568.4248"/>
<path content="1,JRバス関東（株）,しみずライナー,3.1,4.0,3.5," xlink:title="1" d="M13976.263,-3568.3594L13976.2645,-3568.3644L13976.2764,-3568.4026L13976.3166,-3568.5321L13976.336,-3568.5282L13976.4429,-3568.5048L13976.4533,-3568.502L13976.4642,-3568.4996L13976.4734,-3568.4977L13976.5521,-3568.4808L13976.5658,-3568.4777L13976.5812,-3568.4745L13976.7072,-3568.445L13976.7304,-3568.4421L13976.7476,-3568.4378L13976.7625,-3568.4345L13976.7763,-3568.4311L13976.8066,-3568.4248"/>
<path content="1,JRバス関東（株）,ドリーム和歌山号,1.0,1.0,1.0," xlink:title="1" d="M13976.8066,-3568.4248L13976.7763,-3568.4311L13976.7625,-3568.4345L13976.7476,-3568.4378L13976.7304,-3568.4421L13976.7072,-3568.445L13976.5812,-3568.4745L13976.5658,-3568.4777L13976.5521,-3568.4808L13976.4734,-3568.4977L13976.4642,-3568.4996L13976.4533,-3568.502L13976.4429,-3568.5048L13976.336,-3568.5282L13976.3166,-3568.5321L13976.2764,-3568.4026L13976.2645,-3568.3644L13976.263,-3568.3594"/>
<path content="1,JRバス関東（株）,ドリーム盛岡号,2.2,3.0,3.0," xlink:title="1" d="M13976.543,-3568.9087L13976.5452,-3568.9082L13976.5523,-3568.9067L13976.5532,-3568.9065L13976.5542,-3568.9063L13976.555,-3568.9062L13976.5556,-3568.906L13976.669,-3568.8823L13976.6864,-3568.8787L13976.7175,-3568.8722L13976.7651,-3568.8603L13976.7995,-3568.8458L13976.8066,-3568.8428"/>
<path content="1,JRバス関東（株）,ドリーム福井号,2.0,2.0,2.0," xlink:title="1" d="M13976.263,-3568.3594L13976.2645,-3568.3644L13976.2764,-3568.4026L13976.3166,-3568.5321L13976.336,-3568.5282L13976.4429,-3568.5048L13976.4533,-3568.502L13976.4642,-3568.4996L13976.4734,-3568.4977L13976.5521,-3568.4808L13976.5658,-3568.4777L13976.5812,-3568.4745L13976.7072,-3568.445L13976.7304,-3568.4421L13976.7476,-3568.4378L13976.7625,-3568.4345L13976.7763,-3568.4311L13976.8066,-3568.4248"/>
<path content="1,JRバス関東（株）,ドリーム静岡・浜松号,2.0,2.0,2.0," xlink:title="1" d="M13976.543,-3568.9087L13976.5452,-3568.9082L13976.5523,-3568.9067L13976.5532,-3568.9065L13976.5542,-3568.9063L13976.555,-3568.9062L13976.5556,-3568.906L13976.669,-3568.8823L13976.6864,-3568.8787L13976.7175,-3568.8722L13976.7651,-3568.8603L13976.7995,-3568.8458L13976.8066,-3568.8428"/>
<path content="1,JRバス関東（株）,ドリーム高松号/松山号/徳島号/高知号,4.0,4.0,4.0," xlink:title="1" d="M13976.8066,-3568.4248L13976.7763,-3568.4311L13976.7625,-3568.4345L13976.7476,-3568.4378L13976.7304,-3568.4421L13976.7072,-3568.445L13976.5812,-3568.4745L13976.5658,-3568.4777L13976.5521,-3568.4808L13976.4734,-3568.4977L13976.4642,-3568.4996L13976.4533,-3568.502L13976.4429,-3568.5048L13976.336,-3568.5282L13976.3166,-3568.5321L13976.2764,-3568.4026L13976.2645,-3568.3644L13976.263,-3568.3594"/>
<path content="1,JRバス関東（株）,プレミアム中央ドリーム号/中央ドリーム号/プレミアムドリーム号/ドリーム号/レディースドリーム号/プレミアムレディース,9.4,12.0,12.0," xlink:title="1" d="M13976.263,-3568.3594L13976.2645,-3568.3644L13976.2764,-3568.4026L13976.3166,-3568.5321L13976.336,-3568.5282L13976.4429,-3568.5048L13976.4533,-3568.502L13976.4642,-3568.4996L13976.4734,-3568.4977L13976.5521,-3568.4808L13976.5658,-3568.4777L13976.5812,-3568.4745L13976.7072,-3568.445L13976.7304,-3568.4421L13976.7476,-3568.4378L13976.7625,-3568.4345L13976.7763,-3568.4311L13976.8066,-3568.4248"/>
<path content="1,JRバス関東（株）,マロニエ新宿号・マロニエ東京号,34.0,37.0,37.0," xlink:title="1" d="M13976.8066,-3568.8428L13976.7995,-3568.8458L13976.7651,-3568.8603L13976.7175,-3568.8722L13976.6864,-3568.8787L13976.669,-3568.8823L13976.5556,-3568.906L13976.555,-3568.9062L13976.5542,-3568.9063L13976.5532,-3568.9065L13976.5523,-3568.9067L13976.5452,-3568.9082L13976.543,-3568.9087"/>
<path content="1,JRバス関東（株）,夢街道会津号,6.0,6.0,6.0," xlink:title="1" d="M13976.8066,-3568.8428L13976.7995,-3568.8458L13976.7651,-3568.8603L13976.7175,-3568.8722L13976.6864,-3568.8787L13976.669,-3568.8823L13976.5556,-3568.906L13976.555,-3568.9062L13976.5542,-3568.9063L13976.5532,-3568.9065L13976.5523,-3568.9067L13976.5452,-3568.9082L13976.543,-3568.9087"/>
<path content="1,JRバス関東（株）,御殿場プレミアム・アウトレット号,2.0,3.0,3.0," xlink:title="1" d="M13976.263,-3568.3594L13976.2645,-3568.3644L13976.2764,-3568.4026L13976.3166,-3568.5321L13976.336,-3568.5282L13976.4429,-3568.5048L13976.4533,-3568.502L13976.4642,-3568.4996L13976.4734,-3568.4977L13976.5521,-3568.4808L13976.5658,-3568.4777L13976.5812,-3568.4745L13976.7072,-3568.445L13976.7304,-3568.4421L13976.7476,-3568.4378L13976.7625,-3568.4345L13976.7763,-3568.4311L13976.8066,-3568.4248"/>
<path content="1,JRバス関東（株）,新宿・東京～常陸太田・大宮・大子,2.0,2.0,2.0," xlink:title="1" d="M13976.543,-3568.9087L13976.5452,-3568.9082L13976.5523,-3568.9067L13976.5532,-3568.9065L13976.5542,-3568.9063L13976.555,-3568.9062L13976.5556,-3568.906L13976.669,-3568.8823L13976.6864,-3568.8787L13976.7175,-3568.8722L13976.7651,-3568.8603L13976.7995,-3568.8458L13976.8066,-3568.8428"/>
<path content="1,JRバス関東（株）,東京～山中湖畔・河口湖,4.0,5.0,5.0," xlink:title="1" d="M13976.8066,-3568.4248L13976.7763,-3568.4311L13976.7625,-3568.4345L13976.7476,-3568.4378L13976.7304,-3568.4421L13976.7072,-3568.445L13976.5812,-3568.4745L13976.5658,-3568.4777L13976.5521,-3568.4808L13976.4734,-3568.4977L13976.4642,-3568.4996L13976.4533,-3568.502L13976.4429,-3568.5048L13976.336,-3568.5282L13976.3166,-3568.5321L13976.2764,-3568.4026L13976.2645,-3568.3644L13976.263,-3568.3594"/>
<path content="1,JRバス関東（株）,東名ハイウェイバス,8.0,8.0,8.0," xlink:title="1" d="M13976.8066,-3568.4248L13976.7763,-3568.4311L13976.7625,-3568.4345L13976.7476,-3568.4378L13976.7304,-3568.4421L13976.7072,-3568.445L13976.5812,-3568.4745L13976.5658,-3568.4777L13976.5521,-3568.4808L13976.4734,-3568.4977L13976.4642,-3568.4996L13976.4533,-3568.502L13976.4429,-3568.5048L13976.336,-3568.5282L13976.3166,-3568.5321L13976.2764,-3568.4026L13976.2645,-3568.3644L13976.263,-3568.3594"/>
<path content="1,JRバス関東（株）,東海道昼特急号/中央道昼特急号/青春昼特急号/プレミアム昼特急号,7.2,9.0,9.0," xlink:title="1" d="M13976.8066,-3568.4248L13976.7763,-3568.4311L13976.7625,-3568.4345L13976.7476,-3568.4378L13976.7304,-3568.4421L13976.7072,-3568.445L13976.5812,-3568.4745L13976.5658,-3568.4777L13976.5521,-3568.4808L13976.4734,-3568.4977L13976.4642,-3568.4996L13976.4533,-3568.502L13976.4429,-3568.5048L13976.336,-3568.5282L13976.3166,-3568.5321L13976.2764,-3568.4026L13976.2645,-3568.3644L13976.263,-3568.3594"/>
<path content="1,JRバス関東（株）,知多シーガール号,2.0,2.0,2.0," xlink:title="1" d="M13976.263,-3568.3594L13976.2645,-3568.3644L13976.2764,-3568.4026L13976.3166,-3568.5321L13976.336,-3568.5282L13976.4429,-3568.5048L13976.4533,-3568.502L13976.4642,-3568.4996L13976.4734,-3568.4977L13976.5521,-3568.4808L13976.5658,-3568.4777L13976.5812,-3568.4745L13976.7072,-3568.445L13976.7304,-3568.4421L13976.7476,-3568.4378L13976.7625,-3568.4345L13976.7763,-3568.4311L13976.8066,-3568.4248"/>
<path content="1,JRバス関東（株）,金沢エクスプレス/ドリーム金沢号/青春ドリーム金沢号,6.0,6.0,6.0," xlink:title="1" d="M13976.8066,-3568.8428L13976.7995,-3568.8458L13976.7651,-3568.8603L13976.7175,-3568.8722L13976.6864,-3568.8787L13976.669,-3568.8823L13976.5556,-3568.906L13976.555,-3568.9062L13976.5542,-3568.9063L13976.5532,-3568.9065L13976.5523,-3568.9067L13976.5452,-3568.9082L13976.543,-3568.9087"/>
<path content="1,JRバス関東（株）,青春中央ドリーム号/青春中央エコドリーム号/青春ドリーム号/青春レディースドリーム号/青春エコドリーム号/超得割青春号,10.0,14.0,14.0," xlink:title="1" d="M13976.8066,-3568.4248L13976.7763,-3568.4311L13976.7625,-3568.4345L13976.7476,-3568.4378L13976.7304,-3568.4421L13976.7072,-3568.445L13976.5812,-3568.4745L13976.5658,-3568.4777L13976.5521,-3568.4808L13976.4734,-3568.4977L13976.4642,-3568.4996L13976.4533,-3568.502L13976.4429,-3568.5048L13976.336,-3568.5282L13976.3166,-3568.5321L13976.2764,-3568.4026L13976.2645,-3568.3644L13976.263,-3568.3594"/>
<path content="1,JR四国バス（株）,ドリーム徳島号　阿南・徳島⇔新宿・東京・新木場,1.0,1.0,1.0," xlink:title="1" d="M13976.8066,-3568.4231L13976.7625,-3568.4345L13976.7476,-3568.4378L13976.7304,-3568.4421L13976.5812,-3568.4745L13976.5658,-3568.4777L13976.5521,-3568.4808L13976.4734,-3568.4977L13976.4642,-3568.4996L13976.4533,-3568.502L13976.4429,-3568.5048L13976.336,-3568.5282L13976.3166,-3568.5321L13976.2764,-3568.4026L13976.2645,-3568.3644L13976.263,-3568.3594"/>
<path content="1,JR四国バス（株）,ドリーム高松・松山号　松山・高松⇔東京・東京ディズニーランド,1.0,1.0,1.0," xlink:title="1" d="M13976.8066,-3568.4231L13976.7625,-3568.4345L13976.7476,-3568.4378L13976.7304,-3568.4421L13976.5812,-3568.4745L13976.5658,-3568.4777L13976.5521,-3568.4808L13976.4734,-3568.4977L13976.4642,-3568.4996L13976.4533,-3568.502L13976.4429,-3568.5048L13976.336,-3568.5282L13976.3166,-3568.5321L13976.2764,-3568.4026L13976.2645,-3568.3644L13976.263,-3568.3594"/>
<path content="1,JR四国バス（株）,ドリーム高松号　観音寺・高松⇔新宿・東京・新木場,1.0,1.0,1.0," xlink:title="1" d="M13976.8066,-3568.4231L13976.7625,-3568.4345L13976.7476,-3568.4378L13976.7304,-3568.4421L13976.5812,-3568.4745L13976.5658,-3568.4777L13976.5521,-3568.4808L13976.4734,-3568.4977L13976.4642,-3568.4996L13976.4533,-3568.502L13976.4429,-3568.5048L13976.336,-3568.5282L13976.3166,-3568.5321L13976.2764,-3568.4026L13976.2645,-3568.3644L13976.263,-3568.3594"/>
<path content="1,JR四国バス（株）,ドリーム高知号　高知・徳島⇔東京・新木場,1.0,1.0,1.0," xlink:title="1" d="M13976.8066,-3568.4231L13976.7625,-3568.4345L13976.7476,-3568.4378L13976.7304,-3568.4421L13976.5812,-3568.4745L13976.5658,-3568.4777L13976.5521,-3568.4808L13976.4734,-3568.4977L13976.4642,-3568.4996L13976.4533,-3568.502L13976.4429,-3568.5048L13976.336,-3568.5282L13976.3166,-3568.5321L13976.2764,-3568.4026L13976.2645,-3568.3644L13976.263,-3568.3594"/>
<path content="1,JR東海バス（株）,ドリームとよた号,1.0,1.0,1.0," xlink:title="1" d="M13976.263,-3568.3594L13976.2645,-3568.3644L13976.2764,-3568.4026L13976.3166,-3568.5321L13976.336,-3568.5282L13976.4429,-3568.5048L13976.4533,-3568.502L13976.4642,-3568.4996L13976.4734,-3568.4977L13976.5521,-3568.4808L13976.5658,-3568.4777L13976.5812,-3568.4745L13976.7304,-3568.4421L13976.7476,-3568.4378L13976.7625,-3568.4345L13976.8066,-3568.4231"/>
<path content="1,JR東海バス（株）,ドリームなごや号_01_on,3.0,3.0,3.0," xlink:title="1" d="M13976.263,-3568.3594L13976.2645,-3568.3644L13976.2764,-3568.4026L13976.3166,-3568.5321L13976.336,-3568.5282L13976.4429,-3568.5048L13976.4533,-3568.502L13976.4642,-3568.4996L13976.4734,-3568.4977L13976.5521,-3568.4808L13976.5658,-3568.4777L13976.5812,-3568.4745L13976.7304,-3568.4421L13976.7476,-3568.4378L13976.7625,-3568.4345L13976.8066,-3568.4231"/>
<path content="1,JR東海バス（株）,ドリームなごや号_02_on,3.0,3.0,3.0," xlink:title="1" d="M13976.263,-3568.3594L13976.2645,-3568.3644L13976.2764,-3568.4026L13976.3166,-3568.5321L13976.336,-3568.5282L13976.4429,-3568.5048L13976.4533,-3568.502L13976.4642,-3568.4996L13976.4734,-3568.4977L13976.5521,-3568.4808L13976.5658,-3568.4777L13976.5812,-3568.4745L13976.7304,-3568.4421L13976.7476,-3568.4378L13976.7625,-3568.4345L13976.8066,-3568.4231"/>
<path content="1,JR東海バス（株）,レディースドリームなごや号,1.0,1.0,1.0," xlink:title="1" d="M13976.263,-3568.3594L13976.2645,-3568.3644L13976.2764,-3568.4026L13976.3166,-3568.5321L13976.336,-3568.5282L13976.4429,-3568.5048L13976.4533,-3568.502L13976.4642,-3568.4996L13976.4734,-3568.4977L13976.5521,-3568.4808L13976.5658,-3568.4777L13976.5812,-3568.4745L13976.7304,-3568.4421L13976.7476,-3568.4378L13976.7625,-3568.4345L13976.8066,-3568.4231"/>
<path content="1,JR東海バス（株）,東名ハイウェイバス_01_on,37.0,37.0,37.0," xlink:title="1" d="M13976.263,-3568.3594L13976.2645,-3568.3644L13976.2764,-3568.4026L13976.3166,-3568.5321L13976.336,-3568.5282L13976.4429,-3568.5048L13976.4533,-3568.502L13976.4642,-3568.4996L13976.4734,-3568.4977L13976.5521,-3568.4808L13976.5658,-3568.4777L13976.5812,-3568.4745L13976.7304,-3568.4421L13976.7476,-3568.4378L13976.7625,-3568.4345L13976.8066,-3568.4231"/>
<path content="1,JR東海バス（株）,東名ハイウェイバス_03_on,37.0,37.0,37.0," xlink:title="1" d="M13976.263,-3568.3594L13976.2645,-3568.3644L13976.2764,-3568.4026L13976.3166,-3568.5321L13976.336,-3568.5282L13976.4429,-3568.5048L13976.4533,-3568.502L13976.4642,-3568.4996L13976.4734,-3568.4977L13976.5521,-3568.4808L13976.5658,-3568.4777L13976.5812,-3568.4745L13976.7304,-3568.4421L13976.7476,-3568.4378L13976.7625,-3568.4345L13976.8066,-3568.4231"/>
<path content="1,JR東海バス（株）,青春ドリームなごや号,1.0,1.0,1.0," xlink:title="1" d="M13976.263,-3568.3594L13976.2645,-3568.3644L13976.2764,-3568.4026L13976.3166,-3568.5321L13976.336,-3568.5282L13976.4429,-3568.5048L13976.4533,-3568.502L13976.4642,-3568.4996L13976.4734,-3568.4977L13976.5521,-3568.4808L13976.5658,-3568.4777L13976.5812,-3568.4745L13976.7304,-3568.4421L13976.7476,-3568.4378L13976.7625,-3568.4345L13976.8066,-3568.4231"/>
<path content="1,しずてつジャストライン（株）,東京清水線,5.0,5.0,5.0," xlink:title="1" d="M13976.263,-3568.3594L13976.2645,-3568.3644L13976.2764,-3568.4026L13976.3166,-3568.5321L13976.336,-3568.5282L13976.4429,-3568.5048L13976.4533,-3568.502L13976.4642,-3568.4996L13976.4734,-3568.4977L13976.5521,-3568.4808L13976.5658,-3568.4777L13976.5812,-3568.4745L13976.7304,-3568.4421L13976.7476,-3568.4378L13976.7625,-3568.4345L13976.8066,-3568.4231"/>
<path content="1,イーグルバス（株）,川越～羽田空港高速直結バス,2.5,2.5,2.5," xlink:title="1" d="M13976.8066,-3568.8428L13976.7995,-3568.8458L13976.7651,-3568.8603L13976.7175,-3568.8722L13976.6864,-3568.8787L13976.669,-3568.8823L13976.5556,-3568.906L13976.555,-3568.9062L13976.5542,-3568.9063L13976.5532,-3568.9065L13976.5523,-3568.9067L13976.5452,-3568.9082L13976.543,-3568.9087"/>
<path content="1,エムケイ（株）,MKナイトシャトル　京都・大阪⇔東京便,1.0,1.0,1.0," xlink:title="1" d="M13976.8066,-3568.4231L13976.7625,-3568.4345L13976.7476,-3568.4378L13976.7304,-3568.4421L13976.5812,-3568.4745L13976.5658,-3568.4777L13976.5521,-3568.4808L13976.4734,-3568.4977L13976.4642,-3568.4996L13976.4533,-3568.502L13976.4429,-3568.5048L13976.336,-3568.5282L13976.3166,-3568.5321L13976.2764,-3568.4026L13976.2645,-3568.3644L13976.263,-3568.3594"/>
<path content="1,エムケイ（株）,MKナイトシャトル　名古屋・豊田⇔東京便,1.0,1.0,1.0," xlink:title="1" d="M13976.8066,-3568.4231L13976.7625,-3568.4345L13976.7476,-3568.4378L13976.7304,-3568.4421L13976.5812,-3568.4745L13976.5658,-3568.4777L13976.5521,-3568.4808L13976.4734,-3568.4977L13976.4642,-3568.4996L13976.4533,-3568.502L13976.4429,-3568.5048L13976.336,-3568.5282L13976.3166,-3568.5321L13976.2764,-3568.4026L13976.2645,-3568.3644L13976.263,-3568.3594"/>
<path content="1,三重交通（株）,勝浦・南紀～横浜・東京・大宮,1.0,1.0,1.0," xlink:title="1" d="M13976.8066,-3568.8428L13976.7651,-3568.8603L13976.7175,-3568.8722L13976.5428,-3568.9087"/>
<path content="1,中国JRバス（株）,津和野・益田・浜田・三次～東京　いわみエクスプレス,1.0,1.0,1.0," xlink:title="1" d="M13976.8066,-3568.4248L13976.7763,-3568.4311L13976.7625,-3568.4345L13976.7476,-3568.4378"/>
<path content="1,中国JRバス（株）,津和野・益田・浜田・三次～東京　いわみエクスプレス,1.0,1.0,1.0," xlink:title="1" d="M13976.7203,-3568.3594L13976.7476,-3568.4378"/>
<path content="1,中国JRバス（株）,津和野・益田・浜田・三次～東京　いわみエクスプレス,1.0,1.0,1.0," xlink:title="1" d="M13976.7476,-3568.4378L13976.7304,-3568.4421L13976.5812,-3568.4745L13976.5658,-3568.4777L13976.5521,-3568.4808L13976.4734,-3568.4977L13976.4642,-3568.4996L13976.4533,-3568.502L13976.4429,-3568.5048L13976.336,-3568.5282L13976.3166,-3568.5321L13976.2764,-3568.4026L13976.2645,-3568.3644L13976.263,-3568.3594"/>
<path content="1,京成バス（株）,東京ディズニーリゾート～新宿駅新南口,3.0,3.0,3.0," xlink:title="1" d="M13976.8066,-3568.8428L13976.7995,-3568.8458L13976.7651,-3568.8603L13976.7175,-3568.8722L13976.6864,-3568.8787L13976.669,-3568.8823L13976.5556,-3568.906L13976.555,-3568.9062L13976.5542,-3568.9063L13976.5532,-3568.9065L13976.5523,-3568.9067L13976.5452,-3568.9082L13976.543,-3568.9087"/>
<path content="1,京成バス（株）,神戸・大阪～東京ディズニーリゾート・海浜幕張・千葉中央駅,0.5,0.5,0.5," xlink:title="1" d="M13976.8066,-3568.8428L13976.7995,-3568.8458L13976.7651,-3568.8603L13976.7175,-3568.8722L13976.6864,-3568.8787L13976.669,-3568.8823L13976.5556,-3568.906L13976.555,-3568.9062L13976.5542,-3568.9063L13976.5532,-3568.9065L13976.5523,-3568.9067L13976.5452,-3568.9082L13976.543,-3568.9087"/>
<path content="1,京浜急行バス（株）,ノクターン号,3.4,4.0,4.0," xlink:title="1" d="M13976.8066,-3568.8428L13976.7995,-3568.8458L13976.7651,-3568.8603L13976.7175,-3568.8722L13976.6864,-3568.8787L13976.669,-3568.8823L13976.5556,-3568.906L13976.555,-3568.9062L13976.5542,-3568.9063L13976.5532,-3568.9065L13976.5523,-3568.9067L13976.5452,-3568.9082L13976.543,-3568.9087"/>
<path content="1,京浜急行バス（株）,ビーム号,1.0,1.0,1.0," xlink:title="1" d="M13976.543,-3568.9087L13976.5452,-3568.9082L13976.5523,-3568.9067L13976.5532,-3568.9065L13976.5542,-3568.9063L13976.555,-3568.9062L13976.5556,-3568.906L13976.669,-3568.8823L13976.6864,-3568.8787L13976.7175,-3568.8722L13976.7651,-3568.8603L13976.7995,-3568.8458L13976.8066,-3568.8428"/>
<path content="1,京浜急行バス（株）,ルプラン号,1.0,1.0,1.0," xlink:title="1" d="M13976.543,-3568.9087L13976.5452,-3568.9082L13976.5523,-3568.9067L13976.5532,-3568.9065L13976.5542,-3568.9063L13976.555,-3568.9062L13976.5556,-3568.906L13976.669,-3568.8823L13976.6864,-3568.8787L13976.7175,-3568.8722L13976.7651,-3568.8603L13976.7995,-3568.8458L13976.8066,-3568.8428"/>
<path content="1,京浜急行バス（株）,新百合ヶ丘駅～羽田空港線,8.5,8.5,8.5," xlink:title="1" d="M13976.8066,-3568.8428L13976.7995,-3568.8458L13976.7651,-3568.8603L13976.7175,-3568.8722L13976.6864,-3568.8787L13976.669,-3568.8823L13976.5556,-3568.906L13976.555,-3568.9062L13976.5542,-3568.9063L13976.5532,-3568.9065L13976.5523,-3568.9067L13976.5452,-3568.9082L13976.543,-3568.9087"/>
<path content="1,京王バス南（株）,成田空港～南大沢線,4.0,4.0,4.0," xlink:title="1" d="M13976.543,-3568.9087L13976.5452,-3568.9082L13976.5523,-3568.9067L13976.5532,-3568.9065L13976.5542,-3568.9063L13976.555,-3568.9062L13976.5556,-3568.906L13976.669,-3568.8823L13976.6864,-3568.8787L13976.7175,-3568.8722L13976.7651,-3568.8603L13976.7995,-3568.8458L13976.8066,-3568.8428"/>
<path content="1,京王バス南（株）,成田空港～調布駅北口線,4.0,4.0,4.0," xlink:title="1" d="M13976.543,-3568.9087L13976.5452,-3568.9082L13976.5523,-3568.9067L13976.5532,-3568.9065L13976.5542,-3568.9063L13976.555,-3568.9062L13976.5556,-3568.906L13976.669,-3568.8823L13976.6864,-3568.8787L13976.7175,-3568.8722L13976.7651,-3568.8603L13976.7995,-3568.8458L13976.8066,-3568.8428"/>
<path content="1,京福バス（株）,東京線,3.0,3.0,3.0," xlink:title="1" d="M13976.8066,-3568.4231L13976.7625,-3568.4345L13976.7476,-3568.4378L13976.7304,-3568.4421L13976.5812,-3568.4745L13976.5658,-3568.4777L13976.5521,-3568.4808L13976.4734,-3568.4977L13976.4642,-3568.4996L13976.4533,-3568.502L13976.4429,-3568.5048L13976.336,-3568.5282L13976.3166,-3568.5321L13976.2764,-3568.4026L13976.2645,-3568.3644L13976.263,-3568.3594"/>
<path content="1,京阪バス（株）,京都・大津⇔上野・TDR・千葉,1.0,1.0,1.0," xlink:title="1" d="M13976.5428,-3568.9087L13976.7175,-3568.8722L13976.7651,-3568.8603L13976.8066,-3568.8428"/>
<path content="1,会津乗合自動車,夢街道会津号,5.0,5.0,5.0," xlink:title="1" d="M13976.8066,-3568.4248L13976.7763,-3568.4311L13976.7625,-3568.4345L13976.7476,-3568.4378L13976.7304,-3568.4421L13976.7072,-3568.445L13976.5812,-3568.4745L13976.5658,-3568.4777L13976.5521,-3568.4808L13976.4734,-3568.4977L13976.4642,-3568.4996L13976.4533,-3568.502L13976.4429,-3568.5048L13976.336,-3568.5282L13976.3166,-3568.5321L13976.2764,-3568.4026L13976.2645,-3568.3644L13976.263,-3568.3594"/>
<path content="1,十和田観光電鉄（株）,シリウス号,1.0,1.0,1.0," xlink:title="1" d="M13976.8066,-3568.8428L13976.7995,-3568.8458L13976.7651,-3568.8603L13976.7175,-3568.8722L13976.6864,-3568.8787L13976.669,-3568.8823L13976.5556,-3568.906L13976.555,-3568.9062L13976.5542,-3568.9063L13976.5532,-3568.9065L13976.5523,-3568.9067L13976.5452,-3568.9082L13976.543,-3568.9087"/>
<path content="1,千葉中央バス,京都～上野・東京ディズニーリゾート,1.0,1.0,1.0," xlink:title="1" d="M13976.8066,-3568.8428L13976.7995,-3568.8458L13976.7651,-3568.8603L13976.7175,-3568.8722L13976.6864,-3568.8787L13976.669,-3568.8823L13976.5556,-3568.906L13976.555,-3568.9062L13976.5542,-3568.9063L13976.5532,-3568.9065L13976.5523,-3568.9067L13976.5452,-3568.9082L13976.543,-3568.9087"/>
<path content="1,千葉交通,ONライナー,4.0,4.0,4.0," xlink:title="1" d="M13976.543,-3568.9087L13976.5452,-3568.9082L13976.5523,-3568.9067L13976.5532,-3568.9065L13976.5542,-3568.9063L13976.555,-3568.9062L13976.5556,-3568.906L13976.669,-3568.8823L13976.6864,-3568.8787L13976.7175,-3568.8722L13976.7651,-3568.8603L13976.7995,-3568.8458L13976.8066,-3568.8428"/>
<path content="1,千葉交通,アザレア号,7.0,7.0,7.0," xlink:title="1" d="M13976.543,-3568.9087L13976.5452,-3568.9082L13976.5523,-3568.9067L13976.5532,-3568.9065L13976.5542,-3568.9063L13976.555,-3568.9062L13976.5556,-3568.906L13976.669,-3568.8823L13976.6864,-3568.8787L13976.7175,-3568.8722L13976.7651,-3568.8603L13976.7995,-3568.8458L13976.8066,-3568.8428"/>
<path content="1,千葉交通,竜王・甲府・石和・一宮・勝沼～成田空港,3.0,3.0,3.0," xlink:title="1" d="M13976.543,-3568.9087L13976.5452,-3568.9082L13976.5523,-3568.9067L13976.5532,-3568.9065L13976.5542,-3568.9063L13976.555,-3568.9062L13976.5556,-3568.906L13976.669,-3568.8823L13976.6864,-3568.8787L13976.7175,-3568.8722L13976.7651,-3568.8603L13976.7995,-3568.8458L13976.8066,-3568.8428"/>
<path content="1,南海バス（株）,和歌山・和泉中央・堺東⇔新宿・東京,1.0,1.0,1.0," xlink:title="1" d="M13976.8066,-3568.4231L13976.7625,-3568.4345L13976.7476,-3568.4378L13976.7304,-3568.4421L13976.5812,-3568.4745L13976.5658,-3568.4777L13976.5521,-3568.4808L13976.4734,-3568.4977L13976.4642,-3568.4996L13976.4533,-3568.502L13976.4429,-3568.5048L13976.336,-3568.5282L13976.3166,-3568.5321L13976.2764,-3568.4026L13976.2645,-3568.3644L13976.263,-3568.3594"/>
<path content="1,南海バス（株）,堺・大阪（なんば）⇔新宿・東京,1.0,1.0,1.0," xlink:title="1" d="M13976.8066,-3568.4231L13976.7625,-3568.4345L13976.7476,-3568.4378L13976.7304,-3568.4421L13976.5812,-3568.4745L13976.5658,-3568.4777L13976.5521,-3568.4808L13976.4734,-3568.4977L13976.4642,-3568.4996L13976.4533,-3568.502L13976.4429,-3568.5048L13976.336,-3568.5282L13976.3166,-3568.5321L13976.2764,-3568.4026L13976.2645,-3568.3644L13976.263,-3568.3594"/>
<path content="1,南海バス（株）,大阪（なんば）・京都⇔秋葉原・成田空港・銚子,1.0,1.0,1.0," xlink:title="1" d="M13976.5428,-3568.9087L13976.7175,-3568.8722L13976.7651,-3568.8603L13976.8066,-3568.8428"/>
<path content="1,国際十王交通（株）,成田空港線,2.0,2.0,2.0," xlink:title="1" d="M13976.8066,-3568.8428L13976.7995,-3568.8458L13976.7651,-3568.8603L13976.7175,-3568.8722L13976.6864,-3568.8787L13976.669,-3568.8823L13976.5556,-3568.906L13976.555,-3568.9062L13976.5542,-3568.9063L13976.5532,-3568.9065L13976.5523,-3568.9067L13976.5452,-3568.9082L13976.543,-3568.9087"/>
<path content="1,国際十王交通（株）,羽田空港線,3.0,3.0,3.0," xlink:title="1" d="M13976.8066,-3568.8428L13976.7995,-3568.8458L13976.7651,-3568.8603L13976.7175,-3568.8722L13976.6864,-3568.8787L13976.669,-3568.8823L13976.5556,-3568.906L13976.555,-3568.9062L13976.5542,-3568.9063L13976.5532,-3568.9065L13976.5523,-3568.9067L13976.5452,-3568.9082L13976.543,-3568.9087"/>
<path content="1,国際興業（株）,シリウス号,1.0,1.0,1.0," xlink:title="1" d="M13976.8066,-3568.4248L13976.7763,-3568.4311L13976.7625,-3568.4345L13976.7476,-3568.4378L13976.7304,-3568.4421L13976.7072,-3568.445L13976.5812,-3568.4745L13976.5658,-3568.4777L13976.6081,-3568.6393L13976.6123,-3568.6557L13976.6325,-3568.7356L13976.6442,-3568.7816L13976.6667,-3568.8733L13976.669,-3568.8823L13976.6703,-3568.8879L13976.6728,-3568.8979L13976.6737,-3568.9016L13976.6755,-3568.9087"/>
<path content="1,国際興業（株）,ドリーム盛岡（らくちん）号,2.2,3.0,3.0," xlink:title="1" d="M13976.8066,-3568.4248L13976.7763,-3568.4311L13976.7625,-3568.4345L13976.7476,-3568.4378L13976.7304,-3568.4421L13976.7072,-3568.445L13976.5812,-3568.4745L13976.5658,-3568.4777L13976.6081,-3568.6393L13976.6123,-3568.6557L13976.6325,-3568.7356L13976.6442,-3568.7816L13976.6667,-3568.8733L13976.669,-3568.8823L13976.6703,-3568.8879L13976.6728,-3568.8979L13976.6737,-3568.9016L13976.6755,-3568.9087"/>
<path content="1,国際興業（株）,夕陽号,2.0,2.0,2.0," xlink:title="1" d="M13976.7166,-3568.3594L13976.7383,-3568.4144L13976.7412,-3568.4217L13976.7476,-3568.4378L13976.7625,-3568.4345L13976.7763,-3568.4311L13976.8066,-3568.4248"/>
<path content="1,国際興業（株）,大宮羽田線,4.0,4.0,4.0," xlink:title="1" d="M13976.8066,-3568.8428L13976.7995,-3568.8458L13976.7651,-3568.8603L13976.7175,-3568.8722L13976.6864,-3568.8787L13976.669,-3568.8823L13976.5556,-3568.906L13976.555,-3568.9062L13976.5542,-3568.9063L13976.5532,-3568.9065L13976.5523,-3568.9067L13976.5452,-3568.9082L13976.543,-3568.9087"/>
<path content="1,宇和島自動車（株）,宇和島・松山⇔横浜・池袋・大宮,1.0,1.0,1.0," xlink:title="1" d="M13976.8066,-3568.8428L13976.7651,-3568.8603L13976.7175,-3568.8722L13976.5428,-3568.9087"/>
<path content="1,富士急シティバス（株）,さんさんぬまづ・東京号,3.0,3.0,3.0," xlink:title="1" d="M13976.8066,-3568.4231L13976.7625,-3568.4345L13976.7476,-3568.4378L13976.7304,-3568.4421L13976.5812,-3568.4745L13976.5658,-3568.4777L13976.5521,-3568.4808L13976.4734,-3568.4977L13976.4642,-3568.4996L13976.4533,-3568.502L13976.4429,-3568.5048L13976.336,-3568.5282L13976.3166,-3568.5321L13976.2764,-3568.4026L13976.2645,-3568.3644L13976.263,-3568.3594"/>
<path content="1,富士急行（株）,ヤキソバEXPRESS,5.5,6.0,6.0," xlink:title="1" d="M13976.263,-3568.3594L13976.2645,-3568.3644L13976.2764,-3568.4026L13976.3166,-3568.5321L13976.336,-3568.5282L13976.4429,-3568.5048L13976.4533,-3568.502L13976.4642,-3568.4996L13976.4734,-3568.4977L13976.5521,-3568.4808L13976.5658,-3568.4777L13976.5812,-3568.4745L13976.7072,-3568.445L13976.7304,-3568.4421L13976.7476,-3568.4378L13976.7625,-3568.4345L13976.7763,-3568.4311L13976.8066,-3568.4248"/>
<path content="1,富士急行（株）,河口湖～津田沼・西船橋・新浦安線,0.3,0.3,0.3," xlink:title="1" d="M13976.543,-3568.9087L13976.5452,-3568.9082L13976.5523,-3568.9067L13976.5532,-3568.9065L13976.5542,-3568.9063L13976.555,-3568.9062L13976.5556,-3568.906L13976.669,-3568.8823L13976.6864,-3568.8787L13976.7175,-3568.8722L13976.7651,-3568.8603L13976.7995,-3568.8458L13976.8066,-3568.8428"/>
<path content="1,富士急静岡バス（株）,かぐや姫EXPRESS,2.5,1.0,1.0," xlink:title="1" d="M13976.8066,-3568.4231L13976.7625,-3568.4345L13976.7476,-3568.4378L13976.7304,-3568.4421L13976.5812,-3568.4745L13976.5658,-3568.4777L13976.5521,-3568.4808L13976.4734,-3568.4977L13976.4642,-3568.4996L13976.4533,-3568.502L13976.4429,-3568.5048L13976.336,-3568.5282L13976.3166,-3568.5321L13976.2764,-3568.4026L13976.2645,-3568.3644L13976.263,-3568.3594"/>
<path content="1,富士急静岡バス（株）,ヤキソバEXPRESS,5.5,3.0,3.0," xlink:title="1" d="M13976.8066,-3568.4231L13976.7625,-3568.4345L13976.7476,-3568.4378L13976.7304,-3568.4421L13976.5812,-3568.4745L13976.5658,-3568.4777L13976.5521,-3568.4808L13976.4734,-3568.4977L13976.4642,-3568.4996L13976.4533,-3568.502L13976.4429,-3568.5048L13976.336,-3568.5282L13976.3166,-3568.5321L13976.2764,-3568.4026L13976.2645,-3568.3644L13976.263,-3568.3594"/>
<path content="1,小湊鉄道,五井～新宿,7.0,7.0,7.0," xlink:title="1" d="M13976.8066,-3568.8428L13976.7995,-3568.8458L13976.7651,-3568.8603L13976.7175,-3568.8722L13976.6864,-3568.8787L13976.669,-3568.8823L13976.5556,-3568.906L13976.555,-3568.9062L13976.5542,-3568.9063L13976.5532,-3568.9065L13976.5523,-3568.9067L13976.5452,-3568.9082L13976.543,-3568.9087"/>
<path content="1,小湊鉄道,木更津駅西口～袖ヶ浦バスターミナル～新宿駅西口,19.5,19.5,19.5," xlink:title="1" d="M13976.543,-3568.9087L13976.5452,-3568.9082L13976.5523,-3568.9067L13976.5532,-3568.9065L13976.5542,-3568.9063L13976.555,-3568.9062L13976.5556,-3568.906L13976.669,-3568.8823L13976.6864,-3568.8787L13976.7175,-3568.8722L13976.7651,-3568.8603L13976.7995,-3568.8458L13976.8066,-3568.8428"/>
<path content="1,小田急バス（株）,吉祥寺駅～成田空港線,3.5,3.5,3.5," xlink:title="1" d="M13976.543,-3568.9087L13976.5452,-3568.9082L13976.5523,-3568.9067L13976.5532,-3568.9065L13976.5542,-3568.9063L13976.555,-3568.9062L13976.5556,-3568.906L13976.669,-3568.8823L13976.6864,-3568.8787L13976.7175,-3568.8722L13976.7651,-3568.8603L13976.7995,-3568.8458L13976.8066,-3568.8428"/>
<path content="1,小田急バス（株）,新宿～五井線,3.5,3.0,3.0," xlink:title="1" d="M13976.8066,-3568.8428L13976.7995,-3568.8458L13976.7651,-3568.8603L13976.7175,-3568.8722L13976.6864,-3568.8787L13976.669,-3568.8823L13976.5556,-3568.906L13976.555,-3568.9062L13976.5542,-3568.9063L13976.5532,-3568.9065L13976.5523,-3568.9067L13976.5452,-3568.9082L13976.543,-3568.9087"/>
<path content="1,山梨交通（株）,竜王・甲府～成田空港線,3.0,3.0,3.0," xlink:title="1" d="M13976.543,-3568.9087L13976.5452,-3568.9082L13976.5523,-3568.9067L13976.5532,-3568.9065L13976.5542,-3568.9063L13976.555,-3568.9062L13976.5556,-3568.906L13976.669,-3568.8823L13976.6864,-3568.8787L13976.7175,-3568.8722L13976.7651,-3568.8603L13976.7995,-3568.8458L13976.8066,-3568.8428"/>
<path content="1,岩手県交通（株）,ドリーム盛岡（らくちん）号,2.3,3.0,3.0," xlink:title="1" d="M13976.8066,-3568.8428L13976.7995,-3568.8458L13976.7651,-3568.8603L13976.7175,-3568.8722L13976.6864,-3568.8787L13976.669,-3568.8823L13976.5556,-3568.906L13976.555,-3568.9062L13976.5542,-3568.9063L13976.5532,-3568.9065L13976.5523,-3568.9067L13976.5452,-3568.9082L13976.543,-3568.9087"/>
<path content="1,岩手県交通（株）,盛岡・横浜線,1.0,1.0,1.0," xlink:title="1" d="M13976.8066,-3568.8428L13976.7995,-3568.8458L13976.7651,-3568.8603L13976.7175,-3568.8722L13976.6864,-3568.8787L13976.669,-3568.8823L13976.5556,-3568.906L13976.555,-3568.9062L13976.5542,-3568.9063L13976.5532,-3568.9065L13976.5523,-3568.9067L13976.5452,-3568.9082L13976.543,-3568.9087"/>
<path content="1,岩手県交通（株）,遠野・釜石号,1.0,1.0,1.0," xlink:title="1" d="M13976.8066,-3568.8428L13976.7995,-3568.8458L13976.7651,-3568.8603L13976.7175,-3568.8722L13976.6864,-3568.8787L13976.669,-3568.8823L13976.5556,-3568.906L13976.555,-3568.9062L13976.5542,-3568.9063L13976.5532,-3568.9065L13976.5523,-3568.9067L13976.5452,-3568.9082L13976.543,-3568.9087"/>
<path content="1,岩手県北自動車（株）,BEAM-1　宮古・盛岡南⇔浜松町・品川,1.0,1.0,1.0," xlink:title="1" d="M13976.8066,-3568.8428L13976.7995,-3568.8458L13976.7651,-3568.8603L13976.7175,-3568.8722L13976.6864,-3568.8787L13976.669,-3568.8823L13976.5556,-3568.906L13976.555,-3568.9062L13976.5542,-3568.9063L13976.5532,-3568.9065L13976.5523,-3568.9067L13976.5452,-3568.9082L13976.543,-3568.9087"/>
<path content="1,川越観光自動車,高速バス成田線,4.0,4.0,4.0," xlink:title="1" d="M13976.8066,-3568.8428L13976.7995,-3568.8458L13976.7651,-3568.8603L13976.7175,-3568.8722L13976.6864,-3568.8787L13976.669,-3568.8823L13976.5556,-3568.906L13976.555,-3568.9062L13976.5542,-3568.9063L13976.5532,-3568.9065L13976.5523,-3568.9067L13976.5452,-3568.9082L13976.543,-3568.9087"/>
<path content="1,庄内交通（株）,高速バス　上野・秋葉原・東京,1.0,1.0,1.0," xlink:title="1" d="M13976.7166,-3568.3594L13976.7383,-3568.4144L13976.7412,-3568.4217L13976.7476,-3568.4378L13976.7625,-3568.4345L13976.7763,-3568.4311L13976.8066,-3568.4248"/>
<path content="1,弘南バス（株）,アップル号,1.0,1.0,1.0," xlink:title="1" d="M13976.7166,-3568.3594L13976.7383,-3568.4144L13976.7412,-3568.4217L13976.7476,-3568.4378L13976.7625,-3568.4345L13976.7763,-3568.4311L13976.8066,-3568.4248"/>
<path content="1,弘南バス（株）,ノクターン号,1.0,1.0,1.0," xlink:title="1" d="M13976.543,-3568.9087L13976.5452,-3568.9082L13976.5523,-3568.9067L13976.5532,-3568.9065L13976.5542,-3568.9063L13976.555,-3568.9062L13976.5556,-3568.906L13976.669,-3568.8823L13976.6864,-3568.8787L13976.7175,-3568.8722L13976.7651,-3568.8603L13976.7995,-3568.8458L13976.8066,-3568.8428"/>
<path content="1,弘南バス（株）,津軽号,1.0,1.0,1.0," xlink:title="1" d="M13976.8066,-3568.4248L13976.7763,-3568.4311L13976.7625,-3568.4345L13976.7476,-3568.4378L13976.7412,-3568.4217L13976.7383,-3568.4144L13976.7166,-3568.3594"/>
<path content="1,新常磐交通（株）,シーガル号,1.0,1.0,1.0," xlink:title="1" d="M13976.543,-3568.9087L13976.5452,-3568.9082L13976.5523,-3568.9067L13976.5532,-3568.9065L13976.5542,-3568.9063L13976.555,-3568.9062L13976.5556,-3568.906L13976.669,-3568.8823L13976.6864,-3568.8787L13976.7175,-3568.8722L13976.7651,-3568.8603L13976.7995,-3568.8458L13976.8066,-3568.8428"/>
<path content="1,東京空港交通（株）,八王子エリア～成田空港線,3.5,3.5,3.5," xlink:title="1" d="M13976.543,-3568.9087L13976.5452,-3568.9082L13976.5523,-3568.9067L13976.5532,-3568.9065L13976.5542,-3568.9063L13976.555,-3568.9062L13976.5556,-3568.906L13976.669,-3568.8823L13976.6864,-3568.8787L13976.7175,-3568.8722L13976.7651,-3568.8603L13976.7995,-3568.8458L13976.8066,-3568.8428"/>
<path content="1,東京空港交通（株）,恵比寿・品川エリア～成田空港線,41.0,41.0,41.0," xlink:title="1" d="M13976.543,-3568.9087L13976.5452,-3568.9082L13976.5523,-3568.9067L13976.5532,-3568.9065L13976.5542,-3568.9063L13976.555,-3568.9062L13976.5556,-3568.906L13976.669,-3568.8823L13976.6864,-3568.8787L13976.7175,-3568.8722L13976.7651,-3568.8603L13976.7995,-3568.8458L13976.8066,-3568.8428"/>
<path content="1,東京空港交通（株）,東京駅・日本橋エリア～成田空港線,30.0,30.0,30.0," xlink:title="1" d="M13976.8066,-3568.4248L13976.7763,-3568.4311L13976.7625,-3568.4345L13976.7476,-3568.4378L13976.7304,-3568.4421L13976.7072,-3568.445L13976.5812,-3568.4745L13976.5658,-3568.4777L13976.5387,-3568.3938L13976.5276,-3568.3594"/>
<path content="1,東京空港交通（株）,池袋エリア～成田空港線,15.0,15.0,15.0," xlink:title="1" d="M13976.543,-3568.9087L13976.5452,-3568.9082L13976.5523,-3568.9067L13976.5532,-3568.9065L13976.5542,-3568.9063L13976.555,-3568.9062L13976.5556,-3568.906L13976.669,-3568.8823L13976.6864,-3568.8787L13976.7175,-3568.8722L13976.7651,-3568.8603L13976.7995,-3568.8458L13976.8066,-3568.8428"/>
<path content="1,東京空港交通（株）,池袋エリア～羽田空港線,18.0,18.0,18.0," xlink:title="1" d="M13976.8066,-3568.8428L13976.7995,-3568.8458L13976.7651,-3568.8603L13976.7175,-3568.8722L13976.6864,-3568.8787L13976.669,-3568.8823L13976.5556,-3568.906L13976.555,-3568.9062L13976.5542,-3568.9063L13976.5532,-3568.9065L13976.5523,-3568.9067L13976.5452,-3568.9082L13976.543,-3568.9087"/>
<path content="1,東京空港交通（株）,目白・九段・後楽園エリア～成田空港線,8.5,8.5,8.5," xlink:title="1" d="M13976.543,-3568.9087L13976.5452,-3568.9082L13976.5523,-3568.9067L13976.5532,-3568.9065L13976.5542,-3568.9063L13976.555,-3568.9062L13976.5556,-3568.906L13976.669,-3568.8823L13976.6864,-3568.8787L13976.7175,-3568.8722L13976.7651,-3568.8603L13976.7995,-3568.8458L13976.8066,-3568.8428"/>
<path content="1,東京空港交通（株）,立川エリア～成田空港線,3.0,3.0,3.0," xlink:title="1" d="M13976.543,-3568.9087L13976.5452,-3568.9082L13976.5523,-3568.9067L13976.5532,-3568.9065L13976.5542,-3568.9063L13976.555,-3568.9062L13976.5556,-3568.906L13976.669,-3568.8823L13976.6864,-3568.8787L13976.7175,-3568.8722L13976.7651,-3568.8603L13976.7995,-3568.8458L13976.8066,-3568.8428"/>
<path content="1,東北急行バス（株）,ままかりライナー,1.0,1.0,1.0," xlink:title="1" d="M13976.543,-3568.9087L13976.5452,-3568.9082L13976.5523,-3568.9067L13976.5532,-3568.9065L13976.5542,-3568.9063L13976.555,-3568.9062L13976.5556,-3568.906L13976.669,-3568.8823L13976.6864,-3568.8787L13976.7175,-3568.8722L13976.7651,-3568.8603L13976.7995,-3568.8458L13976.8066,-3568.8428"/>
<path content="1,東北急行バス（株）,フライングスニーカー京都・茨木号,1.0,1.0,1.0," xlink:title="1" d="M13976.543,-3568.9087L13976.5452,-3568.9082L13976.5523,-3568.9067L13976.5532,-3568.9065L13976.5542,-3568.9063L13976.555,-3568.9062L13976.5556,-3568.906L13976.669,-3568.8823L13976.6864,-3568.8787L13976.7175,-3568.8722L13976.7651,-3568.8603L13976.7995,-3568.8458L13976.8066,-3568.8428"/>
<path content="1,東北急行バス（株）,フライングスニーカー大坂号,1.0,1.0,1.0," xlink:title="1" d="M13976.8066,-3568.8428L13976.7995,-3568.8458L13976.7651,-3568.8603L13976.7175,-3568.8722L13976.6864,-3568.8787L13976.669,-3568.8823L13976.5556,-3568.906L13976.555,-3568.9062L13976.5542,-3568.9063L13976.5532,-3568.9065L13976.5523,-3568.9067L13976.5452,-3568.9082L13976.543,-3568.9087"/>
<path content="1,東武バスウエスト,ONライナー,4.0,4.0,4.0," xlink:title="1" d="M13976.8066,-3568.8428L13976.7995,-3568.8458L13976.7651,-3568.8603L13976.7175,-3568.8722L13976.6864,-3568.8787L13976.669,-3568.8823L13976.5556,-3568.906L13976.555,-3568.9062L13976.5542,-3568.9063L13976.5532,-3568.9065L13976.5523,-3568.9067L13976.5452,-3568.9082L13976.543,-3568.9087"/>
<path content="1,東武バスウエスト,ふじみ野駅・ふじみ野駅・新座車庫・志木駅・朝霞台駅～成田空港,3.0,3.0,3.0," xlink:title="1" d="M13976.8066,-3568.8428L13976.7995,-3568.8458L13976.7651,-3568.8603L13976.7175,-3568.8722L13976.6864,-3568.8787L13976.669,-3568.8823L13976.5556,-3568.906L13976.555,-3568.9062L13976.5542,-3568.9063L13976.5532,-3568.9065L13976.5523,-3568.9067L13976.5452,-3568.9082L13976.543,-3568.9087"/>
<path content="1,東武バスウエスト,ふじみ野駅・志木駅・朝霞台駅～羽田空港,8.5,8.5,8.5," xlink:title="1" d="M13976.8066,-3568.8428L13976.7995,-3568.8458L13976.7651,-3568.8603L13976.7175,-3568.8722L13976.6864,-3568.8787L13976.669,-3568.8823L13976.5556,-3568.906L13976.555,-3568.9062L13976.5542,-3568.9063L13976.5532,-3568.9065L13976.5523,-3568.9067L13976.5452,-3568.9082L13976.543,-3568.9087"/>
<path content="1,東武バスウエスト,坂戸駅南口・川越駅西口～成田空港,2.0,2.0,2.0," xlink:title="1" d="M13976.8066,-3568.8428L13976.7995,-3568.8458L13976.7651,-3568.8603L13976.7175,-3568.8722L13976.6864,-3568.8787L13976.669,-3568.8823L13976.5556,-3568.906L13976.555,-3568.9062L13976.5542,-3568.9063L13976.5532,-3568.9065L13976.5523,-3568.9067L13976.5452,-3568.9082L13976.543,-3568.9087"/>
<path content="1,東武バスウエスト,東京ディズニーリゾート（東京ディズニーランド・東京ディズニーシー）・新浦安～小江戸　川越,2.0,2.0,2.0," xlink:title="1" d="M13976.8066,-3568.8428L13976.7995,-3568.8458L13976.7651,-3568.8603L13976.7175,-3568.8722L13976.6864,-3568.8787L13976.669,-3568.8823L13976.5556,-3568.906L13976.555,-3568.9062L13976.5542,-3568.9063L13976.5532,-3568.9065L13976.5523,-3568.9067L13976.5452,-3568.9082L13976.543,-3568.9087"/>
<path content="1,江ノ電バス藤沢,レイク＆ポート号,1.0,1.0,1.0," xlink:title="1" d="M13976.263,-3568.3594L13976.2645,-3568.3644L13976.2764,-3568.4026L13976.3166,-3568.5321L13976.3271,-3568.565L13976.3645,-3568.6939L13976.3353,-3568.6983L13976.2573,-3568.7103"/>
<path content="1,琴平バス（株）,愛媛・高知シャトル,2.0,2.0,2.0," xlink:title="1" d="M13976.263,-3568.3594L13976.2645,-3568.3644L13976.2764,-3568.4026L13976.3166,-3568.5321L13976.336,-3568.5282L13976.4429,-3568.5048L13976.4533,-3568.502L13976.4642,-3568.4996L13976.4734,-3568.4977L13976.5521,-3568.4808L13976.5658,-3568.4777L13976.5812,-3568.4745L13976.7304,-3568.4421L13976.7476,-3568.4378L13976.7625,-3568.4345L13976.8066,-3568.4231"/>
<path content="1,石見交通（株）,いわみEX　東京線,1.0,1.0,1.0," xlink:title="1" d="M13976.8066,-3568.4248L13976.7763,-3568.4311L13976.7625,-3568.4345L13976.7476,-3568.4378L13976.7304,-3568.4421L13976.5812,-3568.4745L13976.5658,-3568.4777L13976.5521,-3568.4808L13976.4734,-3568.4977L13976.4642,-3568.4996L13976.4533,-3568.502L13976.4429,-3568.5048L13976.336,-3568.5282L13976.3166,-3568.5321L13976.2764,-3568.4026L13976.2645,-3568.3644L13976.263,-3568.3594"/>
<path content="1,福井鉄道（株）,福井⇔東京,3.0,3.0,3.0," xlink:title="1" d="M13976.8066,-3568.4231L13976.7625,-3568.4345L13976.7476,-3568.4378L13976.7304,-3568.4421L13976.5812,-3568.4745L13976.5658,-3568.4777L13976.5521,-3568.4808L13976.4734,-3568.4977L13976.4642,-3568.4996L13976.4533,-3568.502L13976.4429,-3568.5048L13976.336,-3568.5282L13976.3166,-3568.5321L13976.2764,-3568.4026L13976.2645,-3568.3644L13976.263,-3568.3594"/>
<path content="1,福島交通（株）,福島高速バスターミナル～大阪あべの橋,1.0,1.0,1.0," xlink:title="1" d="M13976.543,-3568.9087L13976.5452,-3568.9082L13976.5523,-3568.9067L13976.5532,-3568.9065L13976.5542,-3568.9063L13976.555,-3568.9062L13976.5556,-3568.906L13976.669,-3568.8823L13976.6864,-3568.8787L13976.7175,-3568.8722L13976.7651,-3568.8603L13976.7995,-3568.8458L13976.8066,-3568.8428"/>
<path content="1,茨城交通（株）,茨城交通大子営業所～新宿駅,9.0,9.0,9.0," xlink:title="1" d="M13976.543,-3568.9087L13976.5452,-3568.9082L13976.5523,-3568.9067L13976.5532,-3568.9065L13976.5542,-3568.9063L13976.555,-3568.9062L13976.5556,-3568.906L13976.669,-3568.8823L13976.6864,-3568.8787L13976.7175,-3568.8722L13976.7651,-3568.8603L13976.7995,-3568.8458L13976.8066,-3568.8428"/>
<path content="1,西東京バス（株）,002,2.0,2.0,2.0," xlink:title="1" d="M13976.543,-3568.9087L13976.5452,-3568.9082L13976.5523,-3568.9067L13976.5532,-3568.9065L13976.5542,-3568.9063L13976.555,-3568.9062L13976.5556,-3568.906L13976.669,-3568.8823L13976.6864,-3568.8787L13976.7175,-3568.8722L13976.7651,-3568.8603L13976.7995,-3568.8458L13976.8066,-3568.8428"/>
<path content="1,西武バス（株）,大宮成田線,2.0,2.0,2.0," xlink:title="1" d="M13976.8066,-3568.8428L13976.7995,-3568.8458L13976.7651,-3568.8603L13976.7175,-3568.8722L13976.6864,-3568.8787L13976.669,-3568.8823L13976.5556,-3568.906L13976.555,-3568.9062L13976.5542,-3568.9063L13976.5532,-3568.9065L13976.5523,-3568.9067L13976.5452,-3568.9082L13976.543,-3568.9087"/>
<path content="1,西武バス（株）,大宮羽田線,5.0,5.0,5.0," xlink:title="1" d="M13976.8066,-3568.8428L13976.7995,-3568.8458L13976.7651,-3568.8603L13976.7175,-3568.8722L13976.6864,-3568.8787L13976.669,-3568.8823L13976.5556,-3568.906L13976.555,-3568.9062L13976.5542,-3568.9063L13976.5532,-3568.9065L13976.5523,-3568.9067L13976.5452,-3568.9082L13976.543,-3568.9087"/>
<path content="1,西武バス（株）,大泉学園成田線,3.0,3.0,3.0," xlink:title="1" d="M13976.543,-3568.9087L13976.5452,-3568.9082L13976.5523,-3568.9067L13976.5532,-3568.9065L13976.5542,-3568.9063L13976.555,-3568.9062L13976.5556,-3568.906L13976.669,-3568.8823L13976.6864,-3568.8787L13976.7175,-3568.8722L13976.7651,-3568.8603L13976.7995,-3568.8458L13976.8066,-3568.8428"/>
<path content="1,西武バス（株）,大泉学園羽田線,5.5,5.5,5.5," xlink:title="1" d="M13976.8066,-3568.8428L13976.7995,-3568.8458L13976.7651,-3568.8603L13976.7175,-3568.8722L13976.6864,-3568.8787L13976.669,-3568.8823L13976.5556,-3568.906L13976.555,-3568.9062L13976.5542,-3568.9063L13976.5532,-3568.9065L13976.5523,-3568.9067L13976.5452,-3568.9082L13976.543,-3568.9087"/>
<path content="1,西武バス（株）,川越羽田線,2.0,2.0,2.0," xlink:title="1" d="M13976.543,-3568.9087L13976.5452,-3568.9082L13976.5523,-3568.9067L13976.5532,-3568.9065L13976.5542,-3568.9063L13976.555,-3568.9062L13976.5556,-3568.906L13976.669,-3568.8823L13976.6864,-3568.8787L13976.7175,-3568.8722L13976.7651,-3568.8603L13976.7995,-3568.8458L13976.8066,-3568.8428"/>
<path content="1,西武バス（株）,所沢成田線,4.0,4.0,4.0," xlink:title="1" d="M13976.543,-3568.9087L13976.5452,-3568.9082L13976.5523,-3568.9067L13976.5532,-3568.9065L13976.5542,-3568.9063L13976.555,-3568.9062L13976.5556,-3568.906L13976.669,-3568.8823L13976.6864,-3568.8787L13976.7175,-3568.8722L13976.7651,-3568.8603L13976.7995,-3568.8458L13976.8066,-3568.8428"/>
<path content="1,西武バス（株）,所沢羽田線,10.5,10.5,10.5," xlink:title="1" d="M13976.8066,-3568.8428L13976.7995,-3568.8458L13976.7651,-3568.8603L13976.7175,-3568.8722L13976.6864,-3568.8787L13976.669,-3568.8823L13976.5556,-3568.906L13976.555,-3568.9062L13976.5542,-3568.9063L13976.5532,-3568.9065L13976.5523,-3568.9067L13976.5452,-3568.9082L13976.543,-3568.9087"/>
<path content="1,西武観光バス,びわこドリーム号,1.0,1.0,1.0," xlink:title="1" d="M13976.8066,-3568.8428L13976.7995,-3568.8458L13976.7651,-3568.8603L13976.7175,-3568.8722L13976.6864,-3568.8787L13976.669,-3568.8823L13976.5556,-3568.906L13976.555,-3568.9062L13976.5542,-3568.9063L13976.5532,-3568.9065L13976.5523,-3568.9067L13976.5452,-3568.9082L13976.543,-3568.9087"/>
<path content="1,西武観光バス,大宮・池袋・横浜～南紀勝浦線,1.0,1.0,1.0," xlink:title="1" d="M13976.8066,-3568.8428L13976.7995,-3568.8458L13976.7651,-3568.8603L13976.7175,-3568.8722L13976.6864,-3568.8787L13976.669,-3568.8823L13976.5556,-3568.906L13976.555,-3568.9062L13976.5542,-3568.9063L13976.5532,-3568.9065L13976.5523,-3568.9067L13976.5452,-3568.9082L13976.543,-3568.9087"/>
<path content="1,西武観光バス,宇和島線,1.0,1.0,1.0," xlink:title="1" d="M13976.8066,-3568.8428L13976.7995,-3568.8458L13976.7651,-3568.8603L13976.7175,-3568.8722L13976.6864,-3568.8787L13976.669,-3568.8823L13976.5556,-3568.906L13976.555,-3568.9062L13976.5542,-3568.9063L13976.5532,-3568.9065L13976.5523,-3568.9067L13976.5452,-3568.9082L13976.543,-3568.9087"/>
<path content="1,近鉄バス（株）,大日・茨木・京都⇔東京駅,1.0,1.0,1.0," xlink:title="1" d="M13976.263,-3568.3594L13976.2645,-3568.3644L13976.2764,-3568.4026L13976.3166,-3568.5321L13976.336,-3568.5282L13976.4429,-3568.5048L13976.4533,-3568.502L13976.4642,-3568.4996L13976.4734,-3568.4977L13976.5521,-3568.4808L13976.5658,-3568.4777L13976.5812,-3568.4745L13976.7304,-3568.4421L13976.7476,-3568.4378L13976.7625,-3568.4345L13976.8066,-3568.4231"/>
<path content="1,近鉄バス（株）,大阪⇔東京駅,1.0,1.0,1.0," xlink:title="1" d="M13976.263,-3568.3594L13976.2645,-3568.3644L13976.2764,-3568.4026L13976.3166,-3568.5321L13976.336,-3568.5282L13976.4429,-3568.5048L13976.4533,-3568.502L13976.4642,-3568.4996L13976.4734,-3568.4977L13976.5521,-3568.4808L13976.5658,-3568.4777L13976.5812,-3568.4745L13976.7304,-3568.4421L13976.7476,-3568.4378L13976.7625,-3568.4345L13976.8066,-3568.4231"/>
<path content="1,近鉄バス（株）,大阪・京都⇔つくば・水戸,1.0,1.0,1.0," xlink:title="1" d="M13976.5428,-3568.9087L13976.7175,-3568.8722L13976.7651,-3568.8603L13976.8066,-3568.8428"/>
<path content="1,近鉄バス（株）,大阪・京都⇔日立・いわき,1.0,1.0,1.0," xlink:title="1" d="M13976.5428,-3568.9087L13976.7175,-3568.8722L13976.7651,-3568.8603L13976.8066,-3568.8428"/>
<path content="1,関東バス（株）,吉祥寺・成田空港,12.0,12.0,12.0," xlink:title="1" d="M13976.543,-3568.9087L13976.5452,-3568.9082L13976.5523,-3568.9067L13976.5532,-3568.9065L13976.5542,-3568.9063L13976.555,-3568.9062L13976.5556,-3568.906L13976.669,-3568.8823L13976.6864,-3568.8787L13976.7175,-3568.8722L13976.7651,-3568.8603L13976.7995,-3568.8458L13976.8066,-3568.8428"/>
<path content="1,関越交通（株）,四万温泉号,1.4,1.4,1.4," xlink:title="1" d="M13976.8066,-3568.8428L13976.7995,-3568.8458L13976.7651,-3568.8603L13976.7175,-3568.8722L13976.6864,-3568.8787L13976.669,-3568.8823L13976.5556,-3568.906L13976.555,-3568.9062L13976.5542,-3568.9063L13976.5532,-3568.9065L13976.5523,-3568.9067L13976.5452,-3568.9082L13976.543,-3568.9087"/>
<path content="1,阪急バス（株）,東京・東京ディズニーリゾート・千葉行,1.0,1.0,1.0," xlink:title="1" d="M13976.263,-3568.3594L13976.2645,-3568.3644L13976.2764,-3568.4026L13976.3166,-3568.5321L13976.336,-3568.5282L13976.4429,-3568.5048L13976.4533,-3568.502L13976.4642,-3568.4996L13976.4734,-3568.4977L13976.5521,-3568.4808L13976.5658,-3568.4777L13976.5812,-3568.4745L13976.7304,-3568.4421L13976.7476,-3568.4378L13976.7625,-3568.4345L13976.8066,-3568.4231"/>
<path content="1,阪神バス（株）,サラダエクスプレス　神戸・大阪⇔東京ディズニーリゾート,1.0,1.0,1.0," xlink:title="1" d="M13976.263,-3568.3594L13976.2645,-3568.3644L13976.2764,-3568.4026L13976.3166,-3568.5321L13976.336,-3568.5282L13976.4429,-3568.5048L13976.4533,-3568.502L13976.4642,-3568.4996L13976.4734,-3568.4977L13976.5521,-3568.4808L13976.5658,-3568.4777L13976.5812,-3568.4745L13976.7304,-3568.4421L13976.7476,-3568.4378L13976.7625,-3568.4345L13976.8066,-3568.4231"/>
<path content="1,防長交通（株）,萩・山口・防府・徳山・岩国～東京,1.0,1.0,1.0," xlink:title="1" d="M13976.8066,-3568.4195L13976.7516,-3568.4327L13976.7228,-3568.3594"/>
<path content="1,（株）シティバス立川,立川駅～成田空港線,3.0,3.0,3.0," xlink:title="1" d="M13976.543,-3568.9087L13976.5452,-3568.9082L13976.5523,-3568.9067L13976.5532,-3568.9065L13976.5542,-3568.9063L13976.555,-3568.9062L13976.5556,-3568.906L13976.669,-3568.8823L13976.6864,-3568.8787L13976.7175,-3568.8722L13976.7651,-3568.8603L13976.7995,-3568.8458L13976.8066,-3568.8428"/>
<path content="2,都営バス,S-1,32.0,40.0,40.0," xlink:title="2" d="M13976.7476,-3568.4378L13976.7412,-3568.4217L13976.7383,-3568.4144L13976.7166,-3568.3594M13976.4084,-3568.3594L13976.4269,-3568.4164L13976.4427,-3568.4675L13976.4533,-3568.502L13976.4642,-3568.4996L13976.4734,-3568.4977L13976.5521,-3568.4808L13976.5658,-3568.4777L13976.5812,-3568.4745L13976.7072,-3568.445L13976.7304,-3568.4421L13976.7476,-3568.4378"/>
<path content="2,都営バス,S-1,32.0,40.0,40.0," xlink:title="2" d="M13976.7476,-3568.4378L13976.7625,-3568.4345L13976.7763,-3568.4311L13976.8066,-3568.4248"/>
<path content="2,都営バス,東20,21.0,21.0,20.0," xlink:title="2" d="M13976.7476,-3568.4378L13976.7625,-3568.4345L13976.7763,-3568.4311L13976.8066,-3568.4248"/>
<path content="2,都営バス,東20,21.0,21.0,20.0," xlink:title="2" d="M13976.7476,-3568.4378L13976.7412,-3568.4217L13976.7383,-3568.4144L13976.7166,-3568.3594M13976.4084,-3568.3594L13976.4269,-3568.4164L13976.4427,-3568.4675L13976.4533,-3568.502L13976.4642,-3568.4996L13976.4734,-3568.4977L13976.5521,-3568.4808L13976.5658,-3568.4777L13976.5812,-3568.4745L13976.7072,-3568.445L13976.7304,-3568.4421L13976.7476,-3568.4378"/>
<path content="2,都営バス,東20乙,2.0,0.0,0.0," xlink:title="2" d="M13976.8066,-3568.4248L13976.7763,-3568.4311L13976.7625,-3568.4345L13976.7476,-3568.4378"/>
<path content="2,都営バス,東20乙,2.0,0.0,0.0," xlink:title="2" d="M13976.7476,-3568.4378L13976.7412,-3568.4217L13976.7383,-3568.4144L13976.7166,-3568.3594M13976.4084,-3568.3594L13976.4269,-3568.4164L13976.4427,-3568.4675L13976.4533,-3568.502L13976.4642,-3568.4996L13976.4734,-3568.4977L13976.5521,-3568.4808L13976.5658,-3568.4777L13976.5812,-3568.4745L13976.7072,-3568.445L13976.7304,-3568.4421L13976.7476,-3568.4378"/>
<path content="2,都営バス,東22,215.0,180.0,172.0," xlink:title="2" d="M13976.7476,-3568.4378L13976.7412,-3568.4217L13976.7383,-3568.4144L13976.7166,-3568.3594M13976.4084,-3568.3594L13976.4269,-3568.4164L13976.4427,-3568.4675L13976.4533,-3568.502L13976.4642,-3568.4996L13976.4734,-3568.4977L13976.5521,-3568.4808L13976.5658,-3568.4777L13976.5812,-3568.4745L13976.7072,-3568.445L13976.7304,-3568.4421L13976.7476,-3568.4378"/>
<path content="2,都営バス,東22,215.0,180.0,172.0," xlink:title="2" d="M13976.7476,-3568.4378L13976.7625,-3568.4345L13976.7763,-3568.4311L13976.8066,-3568.4248"/>
<path content="2,都営バス,東43,98.0,80.0,68.0," xlink:title="2" d="M13976.4533,-3568.502L13976.4427,-3568.4675L13976.4269,-3568.4164L13976.4084,-3568.3594M13976.7166,-3568.3594L13976.7383,-3568.4144L13976.7412,-3568.4217L13976.7476,-3568.4378L13976.7304,-3568.4421L13976.7072,-3568.445L13976.5812,-3568.4745L13976.5658,-3568.4777L13976.5521,-3568.4808L13976.4734,-3568.4977L13976.4642,-3568.4996L13976.4533,-3568.502"/>
<path content="2,都営バス,東43,98.0,80.0,68.0," xlink:title="2" d="M13976.4533,-3568.502L13976.4429,-3568.5048L13976.336,-3568.5282L13976.3166,-3568.5321L13976.3271,-3568.565L13976.3645,-3568.6939L13976.396,-3568.8131L13976.4174,-3568.903L13976.4187,-3568.9087"/>
</g>
</svg>
