<?xml version="1.0" encoding="UTF-8"?>
<svg  xmlns="http://www.w3.org/2000/svg" xmlns:xlink="http://www.w3.org/1999/xlink" xmlns:go="http://purl.org/svgmap/profile" property="N07_001,N07_002,N07_003,N07_004,N07_005,N07_006,N07_007" viewBox="13691.162109375 -3550.78125 2.197265625 2.197265625" go:dataArea="13691.162109375 -3550.78125 2.197265625 2.197265625" >
<metadata>
 <rdf:RDF xmlns:rdf="http://www.w3.org/1999/02/22-rdf-syntax-ns#" xmlns:crs="http://opengis.org/xmldtds/transformations.dtd" xmlns:svg="http://www.w3.org/svg" >
  <rdf:Description>
   <crs:CoordinateReferenceSystem rdf:resource="http://purl.org/crs/84" svg:transform="matrix(100.0,0.0,0.0,-100.0,0.0,0.0)" />
  </rdf:Description>
 </rdf:RDF>
</metadata>
<globalCoordinateSystem srsName="http://purl.org/crs/84" transform="matrix(100.0,0.0,0.0,-100.0,0.0,0.0)" />
<defs>
 <g id="p0" >
  <circle cx="0.0" cy="0.0" r="3" stroke="green" stroke-width="0.75" vector-effect="non-scaling-stroke" />
 </g>
</defs>
<g fill="none" fill-rule="evenodd" stroke="#FF00FF" stroke-width="0.75" opacity="0.5" vector-effect="non-scaling-stroke" stroke-linejoin="bevel" >
<path content="1,名鉄バス（株）,都市間高速バス関・美濃線_01_on,11.0,11.0,11.0," xlink:title="1" d="M13691.1621,-3548.6941L13691.1733,-3548.6944L13691.2208,-3548.6972L13691.2387,-3548.6983L13691.2848,-3548.7006L13691.3171,-3548.6977L13691.3736,-3548.6842L13691.4197,-3548.6713L13691.4266,-3548.6702L13691.4376,-3548.6668L13691.4679,-3548.6577L13691.5105,-3548.6454L13691.5688,-3548.6307L13691.5917,-3548.6228L13691.6371,-3548.6099L13691.6716,-3548.5986L13691.6901,-3548.5935L13691.7032,-3548.5902L13691.706,-3548.589L13691.717,-3548.5879L13691.728,-3548.5856L13691.7401,-3548.584M13693.0404,-3548.584L13693.074,-3548.5966L13693.1243,-3548.6138L13693.1312,-3548.6161L13693.2117,-3548.6426L13693.2585,-3548.6572L13693.2757,-3548.6617L13693.2812,-3548.664L13693.3143,-3548.673L13693.3594,-3548.6847M13693.3594,-3548.9037L13693.3569,-3548.9034L13693.3314,-3548.8972L13693.3087,-3548.8932L13693.2971,-3548.8914L13693.2778,-3548.8871L13693.2475,-3548.8803L13693.2234,-3548.8747L13693.2089,-3548.8718L13693.1993,-3548.8701L13693.1498,-3548.8735L13693.1346,-3548.8747L13693.1072,-3548.8768L13693.0851,-3548.8786L13692.9943,-3548.8865L13692.9178,-3548.8921L13692.9123,-3548.8932L13692.8697,-3548.8955L13692.8174,-3548.9006L13692.7342,-3548.9061L13692.6969,-3548.9096L13692.6921,-3548.9113L13692.6625,-3548.913L13692.6474,-3548.9147L13692.6054,-3548.9175L13692.5814,-3548.9192L13692.5634,-3548.9242L13692.5304,-3548.9366L13692.5001,-3548.9479L13692.3873,-3548.9907L13692.3329,-3549.0104L13692.3191,-3549.0149L13692.3116,-3549.0189L13692.2572,-3549.0391L13692.1432,-3549.0819L13692.1189,-3549.0915L13692.1051,-3549.096L13692.0762,-3549.1079L13692.0679,-3549.1118L13692.0556,-3549.1157L13691.9916,-3549.1405L13691.9813,-3549.145L13691.8787,-3549.1827L13691.8828,-3549.189L13691.8856,-3549.1957L13691.8987,-3549.2188L13691.9193,-3549.2554L13691.9234,-3549.2616L13691.931,-3549.2723L13691.9454,-3549.2977L13691.9654,-3549.3343L13691.9688,-3549.3382L13691.9833,-3549.3647L13691.9888,-3549.3788L13691.9929,-3549.3996L13691.9936,-3549.4047L13692.0017,-3549.4572L13691.6881,-3549.4869"/>
<path content="1,名鉄バス（株）,都市間高速バス関・美濃線_01_on,11.0,11.0,11.0," xlink:title="1" d="M13691.6881,-3549.4869L13691.6674,-3549.4892L13691.6792,-3549.5844L13691.6908,-3549.6655L13691.6935,-3549.6948L13691.7163,-3549.6931"/>
<path content="1,名鉄バス（株）,都市間高速バス関・美濃線_01_on,11.0,11.0,11.0," xlink:title="1" d="M13691.7163,-3549.6931L13691.6969,-3549.5499L13691.6881,-3549.4869"/>
<path content="1,名鉄バス（株）,都市間高速バス関・美濃線_01_on,11.0,11.0,11.0," xlink:title="1" d="M13691.7163,-3549.6931L13691.807,-3549.6886L13691.925,-3549.6747L13692.0259,-3549.6661L13692.0356,-3549.6632L13692.0383,-3549.6728L13692.0941,-3549.9382L13692.0961,-3549.9466L13692.1401,-3550.1432L13692.1443,-3550.1669L13692.179,-3550.3189L13692.1893,-3550.3651L13692.1995,-3550.4124L13692.2556,-3550.6722L13692.2573,-3550.68L13692.2891,-3550.7812"/>
<path content="1,名鉄バス（株）,都市間高速バス関・美濃線_02_on,11.0,11.0,11.0," xlink:title="1" d="M13691.6881,-3549.4869L13692.0017,-3549.4572L13691.9936,-3549.4047L13691.9929,-3549.3996L13691.9888,-3549.3788L13691.9833,-3549.3647L13691.9688,-3549.3382L13691.9654,-3549.3343L13691.9454,-3549.2977L13691.931,-3549.2723L13691.9234,-3549.2616L13691.9193,-3549.2554L13691.8987,-3549.2188L13691.8856,-3549.1957L13691.8828,-3549.189L13691.8787,-3549.1827L13691.9813,-3549.145L13691.9916,-3549.1405L13692.0556,-3549.1157L13692.0679,-3549.1118L13692.0762,-3549.1079L13692.1051,-3549.096L13692.1189,-3549.0915L13692.1432,-3549.0819L13692.2572,-3549.0391L13692.3116,-3549.0189L13692.3191,-3549.0149L13692.3329,-3549.0104L13692.3873,-3548.9907L13692.5001,-3548.9479L13692.5304,-3548.9366L13692.5634,-3548.9242L13692.5814,-3548.9192L13692.6054,-3548.9175L13692.6474,-3548.9147L13692.6625,-3548.913L13692.6921,-3548.9113L13692.6969,-3548.9096L13692.7342,-3548.9061L13692.8174,-3548.9006L13692.8697,-3548.8955L13692.9123,-3548.8932L13692.9178,-3548.8921L13692.9943,-3548.8865L13693.0851,-3548.8786L13693.1072,-3548.8768L13693.1346,-3548.8747L13693.1498,-3548.8735L13693.1993,-3548.8701L13693.2089,-3548.8718L13693.2234,-3548.8747L13693.2475,-3548.8803L13693.2778,-3548.8871L13693.2971,-3548.8914L13693.3087,-3548.8932L13693.3314,-3548.8972L13693.3569,-3548.9034L13693.3594,-3548.9037M13693.3594,-3548.6847L13693.3143,-3548.673L13693.2812,-3548.664L13693.2757,-3548.6617L13693.2585,-3548.6572L13693.2117,-3548.6426L13693.1312,-3548.6161L13693.1243,-3548.6138L13693.074,-3548.5966L13693.0404,-3548.584M13691.7401,-3548.584L13691.728,-3548.5856L13691.717,-3548.5879L13691.706,-3548.589L13691.7032,-3548.5902L13691.6901,-3548.5935L13691.6716,-3548.5986L13691.6371,-3548.6099L13691.5917,-3548.6228L13691.5688,-3548.6307L13691.5105,-3548.6454L13691.4679,-3548.6577L13691.4376,-3548.6668L13691.4266,-3548.6702L13691.4197,-3548.6713L13691.3736,-3548.6842L13691.3171,-3548.6977L13691.2848,-3548.7006L13691.2387,-3548.6983L13691.2208,-3548.6972L13691.1733,-3548.6944L13691.1621,-3548.6941"/>
<path content="1,名鉄バス（株）,都市間高速バス関・美濃線_02_on,11.0,11.0,11.0," xlink:title="1" d="M13691.6881,-3549.4869L13691.6969,-3549.5499L13691.7163,-3549.6931L13691.6935,-3549.6948"/>
<path content="1,名鉄バス（株）,都市間高速バス関・美濃線_02_on,11.0,11.0,11.0," xlink:title="1" d="M13691.6935,-3549.6948L13691.6908,-3549.6655L13691.6792,-3549.5844L13691.6674,-3549.4892L13691.6881,-3549.4869"/>
<path content="1,名鉄バス（株）,都市間高速バス関・美濃線_02_on,11.0,11.0,11.0," xlink:title="1" d="M13691.1621,-3549.7296L13691.1857,-3549.7303L13691.2524,-3549.7303L13691.2566,-3549.7303L13691.2779,-3549.7297L13691.2828,-3549.7293L13691.3577,-3549.7235L13691.4802,-3549.7134L13691.5848,-3549.7055L13691.6935,-3549.6948"/>
<path content="1,小田急シティバス（株）,パピヨン号,1.0,1.0,1.0," xlink:title="1" d="M13691.1621,-3549.2299L13691.1732,-3549.1774L13691.1806,-3549.1559L13691.2187,-3549.0279L13691.2481,-3548.9331L13691.2496,-3548.9231L13691.2637,-3548.8791L13691.2981,-3548.7534L13691.2993,-3548.749L13691.2848,-3548.7006L13691.2387,-3548.6983L13691.2208,-3548.6972L13691.1733,-3548.6944L13691.1621,-3548.6941"/>
<path content="1,小田急シティバス（株）,パピヨン号,1.0,1.0,1.0," xlink:title="1" d="M13691.1621,-3549.7296L13691.1857,-3549.7303L13691.2524,-3549.7303L13691.2566,-3549.7303L13691.2779,-3549.7297L13691.2827,-3549.7293L13691.3577,-3549.7235L13691.4802,-3549.7134L13691.5848,-3549.7055L13691.6935,-3549.6948L13691.7162,-3549.6931L13691.807,-3549.6886"/>
<path content="1,小田急バス（株）,パピヨン号,1.0,1.0,1.0," xlink:title="1" d="M13691.1621,-3549.2299L13691.1732,-3549.1774L13691.1806,-3549.1559L13691.2187,-3549.0279L13691.2481,-3548.9331L13691.2496,-3548.9231L13691.2637,-3548.8791L13691.2981,-3548.7534L13691.2993,-3548.749L13691.2848,-3548.7006L13691.2387,-3548.6983L13691.2208,-3548.6972L13691.1733,-3548.6944L13691.1621,-3548.6941"/>
<path content="1,小田急バス（株）,パピヨン号,1.0,1.0,1.0," xlink:title="1" d="M13691.1621,-3549.7296L13691.1857,-3549.7303L13691.2524,-3549.7303L13691.2566,-3549.7303L13691.2779,-3549.7297L13691.2827,-3549.7293L13691.3577,-3549.7235L13691.4802,-3549.7134L13691.5848,-3549.7055L13691.6935,-3549.6948L13691.7162,-3549.6931L13691.807,-3549.6886"/>
<path content="1,岐阜バス観光（株）,高速京都線_01_on,2.0,2.0,2.0," xlink:title="1" d="M13691.1621,-3549.7296L13691.1857,-3549.7303L13691.2524,-3549.7303L13691.2566,-3549.7303L13691.2779,-3549.7297L13691.2828,-3549.7293L13691.3577,-3549.7235L13691.4802,-3549.7134L13691.5848,-3549.7055L13691.6935,-3549.6948L13691.7163,-3549.6931L13691.6969,-3549.5499L13691.6881,-3549.4869L13692.0017,-3549.4572L13691.9936,-3549.4047L13691.9929,-3549.3996L13691.9888,-3549.3788L13691.9833,-3549.3647L13691.9688,-3549.3382L13691.9654,-3549.3343L13691.9454,-3549.2977L13691.931,-3549.2723L13691.9234,-3549.2616L13691.9193,-3549.2554L13691.8987,-3549.2188L13691.8856,-3549.1957L13691.8828,-3549.189L13691.8787,-3549.1827L13691.9813,-3549.145L13691.9916,-3549.1405L13692.0556,-3549.1157L13692.0679,-3549.1118L13692.0762,-3549.1079L13692.1051,-3549.096L13692.1189,-3549.0915L13692.1432,-3549.0819L13692.2572,-3549.0391L13692.3116,-3549.0189L13692.3191,-3549.0149L13692.3329,-3549.0104L13692.3873,-3548.9907L13692.5001,-3548.9479L13692.5304,-3548.9366L13692.5634,-3548.9242L13692.5814,-3548.9192L13692.6054,-3548.9175L13692.6474,-3548.9147L13692.6625,-3548.913L13692.6921,-3548.9113L13692.6969,-3548.9096L13692.7342,-3548.9061L13692.8174,-3548.9006L13692.8697,-3548.8955L13692.9123,-3548.8932L13692.9178,-3548.8921L13692.9943,-3548.8865L13693.0851,-3548.8786L13693.1072,-3548.8768L13693.1346,-3548.8747L13693.1498,-3548.8735L13693.1993,-3548.8701L13693.2089,-3548.8718L13693.2234,-3548.8747L13693.2475,-3548.8803L13693.2778,-3548.8871L13693.2971,-3548.8914L13693.3087,-3548.8932L13693.3314,-3548.8972L13693.3569,-3548.9034L13693.3594,-3548.9037M13693.3594,-3548.6847L13693.3143,-3548.673L13693.2812,-3548.664L13693.2757,-3548.6617L13693.2585,-3548.6572L13693.2117,-3548.6426L13693.1312,-3548.6161L13693.1243,-3548.6138L13693.074,-3548.5966L13693.0404,-3548.584M13691.7401,-3548.584L13691.728,-3548.5856L13691.717,-3548.5879L13691.706,-3548.589L13691.7032,-3548.5902L13691.6901,-3548.5935L13691.6716,-3548.5986L13691.6371,-3548.6099L13691.5917,-3548.6228L13691.5688,-3548.6307L13691.5105,-3548.6454L13691.4679,-3548.6577L13691.4376,-3548.6668L13691.4266,-3548.6702L13691.4197,-3548.6713L13691.3736,-3548.6842L13691.3171,-3548.6977L13691.2848,-3548.7006L13691.2387,-3548.6983L13691.2208,-3548.6972L13691.1733,-3548.6944L13691.1621,-3548.6941"/>
<path content="1,岐阜バス観光（株）,高速新宿線,1.0,1.0,1.0," xlink:title="1" d="M13691.1621,-3549.2298L13691.1733,-3549.1774L13691.2188,-3549.0279L13691.2481,-3548.9331L13691.2637,-3548.8791L13691.2981,-3548.7534L13691.2993,-3548.749L13691.2848,-3548.7006L13691.2387,-3548.6983L13691.2208,-3548.6972L13691.1733,-3548.6944L13691.1621,-3548.6941"/>
<path content="1,岐阜バス観光（株）,高速新宿線,1.0,1.0,1.0," xlink:title="1" d="M13691.1621,-3549.7296L13691.1857,-3549.7303L13691.2524,-3549.7303L13691.2566,-3549.7303L13691.2779,-3549.7297L13691.2828,-3549.7293L13691.3577,-3549.7235L13691.4802,-3549.7134L13691.5848,-3549.7055L13691.6935,-3549.6948L13691.7163,-3549.6931L13691.6969,-3549.5499"/>
<path content="1,岐阜乗合自動車（株）,倉知線_01_on,7.0,5.0,5.0," xlink:title="1" d="M13693.3594,-3548.6847L13693.3143,-3548.673L13693.2812,-3548.664L13693.2757,-3548.6617L13693.2585,-3548.6572L13693.2117,-3548.6426L13693.1312,-3548.6161L13693.1243,-3548.6138L13693.074,-3548.5966L13693.0404,-3548.584M13691.7401,-3548.584L13691.728,-3548.5856L13691.717,-3548.5879L13691.706,-3548.589L13691.7032,-3548.5902L13691.6901,-3548.5935L13691.6716,-3548.5986L13691.6371,-3548.6099L13691.5917,-3548.6228L13691.5688,-3548.6307L13691.5105,-3548.6454L13691.4679,-3548.6577L13691.4376,-3548.6668L13691.4266,-3548.6702L13691.4197,-3548.6713L13691.3736,-3548.6842L13691.3171,-3548.6977L13691.2848,-3548.7006L13691.2387,-3548.6983L13691.2208,-3548.6972L13691.1733,-3548.6944L13691.1621,-3548.6941"/>
<path content="1,岐阜乗合自動車（株）,倉知線_02_on,7.0,5.0,5.0," xlink:title="1" d="M13693.3594,-3548.6847L13693.3143,-3548.673L13693.2812,-3548.664L13693.2757,-3548.6617L13693.2585,-3548.6572L13693.2117,-3548.6426L13693.1312,-3548.6161L13693.1243,-3548.6138L13693.074,-3548.5966L13693.0404,-3548.584M13691.7401,-3548.584L13691.728,-3548.5856L13691.717,-3548.5879L13691.706,-3548.589L13691.7032,-3548.5902L13691.6901,-3548.5935L13691.6716,-3548.5986L13691.6371,-3548.6099L13691.5917,-3548.6228L13691.5688,-3548.6307L13691.5105,-3548.6454L13691.4679,-3548.6577L13691.4376,-3548.6668L13691.4266,-3548.6702L13691.4197,-3548.6713L13691.3736,-3548.6842L13691.3171,-3548.6977L13691.2848,-3548.7006L13691.2387,-3548.6983L13691.2208,-3548.6972L13691.1733,-3548.6944L13691.1621,-3548.6941"/>
<path content="1,岐阜乗合自動車（株）,倉知線_03_on,7.0,5.0,5.0," xlink:title="1" d="M13693.3594,-3548.6847L13693.3143,-3548.673L13693.2812,-3548.664L13693.2757,-3548.6617L13693.2585,-3548.6572L13693.2117,-3548.6426L13693.1312,-3548.6161L13693.1243,-3548.6138L13693.074,-3548.5966L13693.0404,-3548.584M13691.7401,-3548.584L13691.728,-3548.5856L13691.717,-3548.5879L13691.706,-3548.589L13691.7032,-3548.5902L13691.6901,-3548.5935L13691.6716,-3548.5986L13691.6371,-3548.6099L13691.5917,-3548.6228L13691.5688,-3548.6307L13691.5105,-3548.6454L13691.4679,-3548.6577L13691.4376,-3548.6668L13691.4266,-3548.6702L13691.4197,-3548.6713L13691.3736,-3548.6842L13691.3171,-3548.6977L13691.2848,-3548.7006L13691.2387,-3548.6983L13691.2208,-3548.6972L13691.1733,-3548.6944L13691.1621,-3548.6941"/>
<path content="1,岐阜乗合自動車（株）,岐阜関線_01_on,49.0,33.0,33.0," xlink:title="1" d="M13693.3594,-3548.6847L13693.3143,-3548.673L13693.2812,-3548.664L13693.2757,-3548.6617L13693.2585,-3548.6572L13693.2117,-3548.6426L13693.1312,-3548.6161L13693.1243,-3548.6138L13693.074,-3548.5966L13693.0404,-3548.584M13691.7401,-3548.584L13691.728,-3548.5856L13691.717,-3548.5879L13691.706,-3548.589L13691.7032,-3548.5902L13691.6901,-3548.5935L13691.6716,-3548.5986L13691.6371,-3548.6099L13691.5917,-3548.6228L13691.5688,-3548.6307L13691.5105,-3548.6454L13691.4679,-3548.6577L13691.4376,-3548.6668L13691.4266,-3548.6702L13691.4197,-3548.6713L13691.3736,-3548.6842L13691.3171,-3548.6977L13691.2848,-3548.7006L13691.2387,-3548.6983L13691.2208,-3548.6972L13691.1733,-3548.6944L13691.1621,-3548.6941"/>
<path content="1,岐阜乗合自動車（株）,岐阜関線_02_on,49.0,33.0,33.0," xlink:title="1" d="M13693.3594,-3548.6847L13693.3143,-3548.673L13693.2812,-3548.664L13693.2757,-3548.6617L13693.2585,-3548.6572L13693.2117,-3548.6426L13693.1312,-3548.6161L13693.1243,-3548.6138L13693.074,-3548.5966L13693.0404,-3548.584M13691.7401,-3548.584L13691.728,-3548.5856L13691.717,-3548.5879L13691.706,-3548.589L13691.7032,-3548.5902L13691.6901,-3548.5935L13691.6716,-3548.5986L13691.6371,-3548.6099L13691.5917,-3548.6228L13691.5688,-3548.6307L13691.5105,-3548.6454L13691.4679,-3548.6577L13691.4376,-3548.6668L13691.4266,-3548.6702L13691.4197,-3548.6713L13691.3736,-3548.6842L13691.3171,-3548.6977L13691.2848,-3548.7006L13691.2387,-3548.6983L13691.2208,-3548.6972L13691.1733,-3548.6944L13691.1621,-3548.6941"/>
<path content="1,岐阜乗合自動車（株）,岐阜関線_03_on,49.0,33.0,33.0," xlink:title="1" d="M13693.3594,-3548.6847L13693.3143,-3548.673L13693.2812,-3548.664L13693.2757,-3548.6617L13693.2585,-3548.6572L13693.2117,-3548.6426L13693.1312,-3548.6161L13693.1243,-3548.6138L13693.074,-3548.5966L13693.0404,-3548.584M13691.7401,-3548.584L13691.728,-3548.5856L13691.717,-3548.5879L13691.706,-3548.589L13691.7032,-3548.5902L13691.6901,-3548.5935L13691.6716,-3548.5986L13691.6371,-3548.6099L13691.5917,-3548.6228L13691.5688,-3548.6307L13691.5105,-3548.6454L13691.4679,-3548.6577L13691.4376,-3548.6668L13691.4266,-3548.6702L13691.4197,-3548.6713L13691.3736,-3548.6842L13691.3171,-3548.6977L13691.2848,-3548.7006L13691.2387,-3548.6983L13691.2208,-3548.6972L13691.1733,-3548.6944L13691.1621,-3548.6941"/>
<path content="1,岐阜乗合自動車（株）,岐阜関線_04_on,49.0,33.0,33.0," xlink:title="1" d="M13693.3594,-3548.6847L13693.3143,-3548.673L13693.2812,-3548.664L13693.2757,-3548.6617L13693.2585,-3548.6572L13693.2117,-3548.6426L13693.1312,-3548.6161L13693.1243,-3548.6138L13693.074,-3548.5966L13693.0404,-3548.584M13691.7401,-3548.584L13691.728,-3548.5856L13691.717,-3548.5879L13691.706,-3548.589L13691.7032,-3548.5902L13691.6901,-3548.5935L13691.6716,-3548.5986L13691.6371,-3548.6099L13691.5917,-3548.6228L13691.5688,-3548.6307L13691.5105,-3548.6454L13691.4679,-3548.6577L13691.4376,-3548.6668L13691.4266,-3548.6702L13691.4197,-3548.6713L13691.3736,-3548.6842L13691.3171,-3548.6977L13691.2848,-3548.7006L13691.2387,-3548.6983L13691.2208,-3548.6972L13691.1733,-3548.6944L13691.1621,-3548.6941"/>
<path content="1,岐阜乗合自動車（株）,快速関線,3.0,0.0,0.0," xlink:title="1" d="M13693.3594,-3548.6847L13693.3143,-3548.673L13693.2812,-3548.664L13693.2757,-3548.6617L13693.2585,-3548.6572L13693.2117,-3548.6426L13693.1312,-3548.6161L13693.1243,-3548.6138L13693.074,-3548.5966L13693.0404,-3548.584M13691.7401,-3548.584L13691.728,-3548.5856L13691.717,-3548.5879L13691.706,-3548.589L13691.7032,-3548.5902L13691.6901,-3548.5935L13691.6716,-3548.5986L13691.6371,-3548.6099L13691.5917,-3548.6228L13691.5688,-3548.6307L13691.5105,-3548.6454L13691.4679,-3548.6577L13691.4376,-3548.6668L13691.4266,-3548.6702L13691.4197,-3548.6713L13691.3736,-3548.6842L13691.3171,-3548.6977L13691.2848,-3548.7006L13691.2387,-3548.6983L13691.2208,-3548.6972L13691.1733,-3548.6944L13691.1621,-3548.6941"/>
<path content="1,岐阜乗合自動車（株）,洞戸・関線,2.0,2.0,2.0," xlink:title="1" d="M13691.1621,-3549.7296L13691.1857,-3549.7303L13691.2524,-3549.7303L13691.2566,-3549.7303L13691.2779,-3549.7297L13691.2828,-3549.7293L13691.3577,-3549.7235L13691.4802,-3549.7134L13691.5848,-3549.7055L13691.6935,-3549.6948L13691.6908,-3549.6655L13691.6792,-3549.5844L13691.6674,-3549.4892L13691.6881,-3549.4869L13692.0017,-3549.4572"/>
<path content="1,岐阜乗合自動車（株）,関上之保線_02_on,10.5,4.0,4.0," xlink:title="1" d="M13693.3594,-3548.9037L13693.3569,-3548.9034L13693.3314,-3548.8972L13693.3087,-3548.8932L13693.2971,-3548.8914L13693.2778,-3548.8871L13693.2475,-3548.8803L13693.2234,-3548.8747L13693.2089,-3548.8718L13693.1993,-3548.8701L13693.1498,-3548.8735L13693.1346,-3548.8747L13693.1072,-3548.8768L13693.0851,-3548.8786L13692.9943,-3548.8865L13692.9178,-3548.8921L13692.9123,-3548.8932L13692.8697,-3548.8955L13692.8174,-3548.9006L13692.7342,-3548.9061L13692.6969,-3548.9096L13692.6921,-3548.9113L13692.6625,-3548.913L13692.6474,-3548.9147L13692.6054,-3548.9175L13692.5814,-3548.9192L13692.5634,-3548.9242L13692.5304,-3548.9366L13692.5001,-3548.9479L13692.3873,-3548.9907L13692.3329,-3549.0104L13692.3191,-3549.0149L13692.3116,-3549.0189L13692.2572,-3549.0391L13692.1432,-3549.0819L13692.1189,-3549.0915L13692.1051,-3549.096L13692.0762,-3549.1079L13692.0679,-3549.1118L13692.0556,-3549.1157L13691.9916,-3549.1405L13691.9813,-3549.145L13691.8787,-3549.1827L13691.8828,-3549.189L13691.8856,-3549.1957L13691.8987,-3549.2188L13691.9193,-3549.2554L13691.9234,-3549.2616L13691.931,-3549.2723L13691.9454,-3549.2977L13691.9654,-3549.3343L13691.9688,-3549.3382L13691.9833,-3549.3647L13691.9888,-3549.3788L13691.9929,-3549.3996L13691.9936,-3549.4047L13692.0017,-3549.4572L13692.0335,-3549.6475L13692.0356,-3549.6632L13692.0259,-3549.6661L13691.925,-3549.6747L13691.807,-3549.6886L13691.7163,-3549.6931L13691.6935,-3549.6948"/>
<path content="1,岐阜乗合自動車（株）,関上之保線_02_on,10.5,4.0,4.0," xlink:title="1" d="M13691.6935,-3549.6948L13691.6908,-3549.6655L13691.6792,-3549.5844"/>
<path content="1,岐阜乗合自動車（株）,関上之保線_02_on,10.5,4.0,4.0," xlink:title="1" d="M13691.6935,-3549.6948L13691.5848,-3549.7055L13691.4802,-3549.7134L13691.3577,-3549.7235L13691.2828,-3549.7293L13691.2779,-3549.7297L13691.2566,-3549.7303L13691.2524,-3549.7303L13691.1857,-3549.7303L13691.1621,-3549.7296M13691.1621,-3549.2298L13691.1733,-3549.1774L13691.1806,-3549.1559L13691.2188,-3549.0279L13691.2481,-3548.9331L13691.2496,-3548.9231L13691.2637,-3548.8791L13691.2981,-3548.7534L13691.2993,-3548.749L13691.2848,-3548.7006L13691.2387,-3548.6983L13691.2208,-3548.6972L13691.1733,-3548.6944L13691.1621,-3548.6941"/>
<path content="1,岐阜乗合自動車（株）,関上之保線_03_on,10.5,4.0,4.0," xlink:title="1" d="M13693.3594,-3548.9037L13693.3569,-3548.9034L13693.3314,-3548.8972L13693.3087,-3548.8932L13693.2971,-3548.8914L13693.2778,-3548.8871L13693.2475,-3548.8803L13693.2234,-3548.8747L13693.2089,-3548.8718L13693.1993,-3548.8701L13693.1498,-3548.8735L13693.1346,-3548.8747L13693.1072,-3548.8768L13693.0851,-3548.8786L13692.9943,-3548.8865L13692.9178,-3548.8921L13692.9123,-3548.8932L13692.8697,-3548.8955L13692.8174,-3548.9006L13692.7342,-3548.9061L13692.6969,-3548.9096L13692.6921,-3548.9113L13692.6625,-3548.913L13692.6474,-3548.9147L13692.6054,-3548.9175L13692.5814,-3548.9192L13692.5634,-3548.9242L13692.5304,-3548.9366L13692.5001,-3548.9479L13692.3873,-3548.9907L13692.3329,-3549.0104L13692.3191,-3549.0149L13692.3116,-3549.0189L13692.2572,-3549.0391L13692.1432,-3549.0819L13692.1189,-3549.0915L13692.1051,-3549.096L13692.0762,-3549.1079L13692.0679,-3549.1118L13692.0556,-3549.1157L13691.9916,-3549.1405L13691.9813,-3549.145L13691.8787,-3549.1827L13691.8828,-3549.189L13691.8856,-3549.1957L13691.8987,-3549.2188L13691.9193,-3549.2554L13691.9234,-3549.2616L13691.931,-3549.2723L13691.9454,-3549.2977L13691.9654,-3549.3343L13691.9688,-3549.3382L13691.9833,-3549.3647L13691.9888,-3549.3788L13691.9929,-3549.3996L13691.9936,-3549.4047L13692.0017,-3549.4572L13692.0335,-3549.6475L13692.0356,-3549.6632L13692.0259,-3549.6661L13691.925,-3549.6747L13691.807,-3549.6886L13691.7163,-3549.6931L13691.6935,-3549.6948"/>
<path content="1,岐阜乗合自動車（株）,関上之保線_03_on,10.5,4.0,4.0," xlink:title="1" d="M13691.6935,-3549.6948L13691.6908,-3549.6655L13691.6792,-3549.5844"/>
<path content="1,岐阜乗合自動車（株）,関上之保線_03_on,10.5,4.0,4.0," xlink:title="1" d="M13691.6935,-3549.6948L13691.5848,-3549.7055L13691.4802,-3549.7134L13691.3577,-3549.7235L13691.2828,-3549.7293L13691.2779,-3549.7297L13691.2566,-3549.7303L13691.2524,-3549.7303L13691.1857,-3549.7303L13691.1621,-3549.7296M13691.1621,-3549.2298L13691.1733,-3549.1774L13691.1806,-3549.1559L13691.2188,-3549.0279L13691.2481,-3548.9331L13691.2496,-3548.9231L13691.2637,-3548.8791L13691.2981,-3548.7534L13691.2993,-3548.749L13691.2848,-3548.7006L13691.2387,-3548.6983L13691.2208,-3548.6972L13691.1733,-3548.6944L13691.1621,-3548.6941"/>
<path content="1,岐阜乗合自動車（株）,関上之保線_04_on,10.5,4.0,4.0," xlink:title="1" d="M13693.3594,-3548.9037L13693.3569,-3548.9034L13693.3314,-3548.8972L13693.3087,-3548.8932L13693.2971,-3548.8914L13693.2778,-3548.8871L13693.2475,-3548.8803L13693.2234,-3548.8747L13693.2089,-3548.8718L13693.1993,-3548.8701L13693.1498,-3548.8735L13693.1346,-3548.8747L13693.1072,-3548.8768L13693.0851,-3548.8786L13692.9943,-3548.8865L13692.9178,-3548.8921L13692.9123,-3548.8932L13692.8697,-3548.8955L13692.8174,-3548.9006L13692.7342,-3548.9061L13692.6969,-3548.9096L13692.6921,-3548.9113L13692.6625,-3548.913L13692.6474,-3548.9147L13692.6054,-3548.9175L13692.5814,-3548.9192L13692.5634,-3548.9242L13692.5304,-3548.9366L13692.5001,-3548.9479L13692.3873,-3548.9907L13692.3329,-3549.0104L13692.3191,-3549.0149L13692.3116,-3549.0189L13692.2572,-3549.0391L13692.1432,-3549.0819L13692.1189,-3549.0915L13692.1051,-3549.096L13692.0762,-3549.1079L13692.0679,-3549.1118L13692.0556,-3549.1157L13691.9916,-3549.1405L13691.9813,-3549.145L13691.8787,-3549.1827L13691.8828,-3549.189L13691.8856,-3549.1957L13691.8987,-3549.2188L13691.9193,-3549.2554L13691.9234,-3549.2616L13691.931,-3549.2723L13691.9454,-3549.2977L13691.9654,-3549.3343L13691.9688,-3549.3382L13691.9833,-3549.3647L13691.9888,-3549.3788L13691.9929,-3549.3996L13691.9936,-3549.4047L13692.0017,-3549.4572L13692.0335,-3549.6475L13692.0356,-3549.6632L13692.0259,-3549.6661L13691.925,-3549.6747L13691.807,-3549.6886L13691.7163,-3549.6931L13691.6935,-3549.6948"/>
<path content="1,岐阜乗合自動車（株）,関上之保線_04_on,10.5,4.0,4.0," xlink:title="1" d="M13691.6935,-3549.6948L13691.6908,-3549.6655L13691.6792,-3549.5844"/>
<path content="1,岐阜乗合自動車（株）,関上之保線_04_on,10.5,4.0,4.0," xlink:title="1" d="M13691.6935,-3549.6948L13691.5848,-3549.7055L13691.4802,-3549.7134L13691.3577,-3549.7235L13691.2828,-3549.7293L13691.2779,-3549.7297L13691.2566,-3549.7303L13691.2524,-3549.7303L13691.1857,-3549.7303L13691.1621,-3549.7296M13691.1621,-3549.2298L13691.1733,-3549.1774L13691.1806,-3549.1559L13691.2188,-3549.0279L13691.2481,-3548.9331L13691.2496,-3548.9231L13691.2637,-3548.8791L13691.2981,-3548.7534L13691.2993,-3548.749L13691.2848,-3548.7006L13691.2387,-3548.6983L13691.2208,-3548.6972L13691.1733,-3548.6944L13691.1621,-3548.6941"/>
<path content="1,岐阜乗合自動車（株）,関板取線_01_on,7.0,4.0,4.0," xlink:title="1" d="M13691.1621,-3548.6941L13691.1733,-3548.6944L13691.2208,-3548.6972L13691.2387,-3548.6983L13691.2848,-3548.7006L13691.2993,-3548.749L13691.2981,-3548.7534L13691.2637,-3548.8791L13691.2496,-3548.9231L13691.2481,-3548.9331L13691.2188,-3549.0279L13691.1806,-3549.1559L13691.1733,-3549.1774L13691.1621,-3549.2298M13691.1621,-3549.7296L13691.1857,-3549.7303L13691.2524,-3549.7303L13691.2566,-3549.7303L13691.2779,-3549.7297L13691.2828,-3549.7293L13691.3577,-3549.7235L13691.4802,-3549.7134L13691.5848,-3549.7055L13691.6935,-3549.6948L13691.6908,-3549.6655L13691.6792,-3549.5844L13691.6674,-3549.4892L13691.6881,-3549.4869L13692.0017,-3549.4572L13691.9936,-3549.4047L13691.9929,-3549.3996L13691.9888,-3549.3788L13691.9833,-3549.3647L13691.9688,-3549.3382L13691.9654,-3549.3343L13691.9454,-3549.2977L13691.931,-3549.2723L13691.9234,-3549.2616L13691.9193,-3549.2554L13691.8987,-3549.2188L13691.8856,-3549.1957L13691.8828,-3549.189L13691.8787,-3549.1827L13691.9813,-3549.145L13691.9916,-3549.1405L13692.0556,-3549.1157L13692.0679,-3549.1118L13692.0762,-3549.1079L13692.1051,-3549.096L13692.1189,-3549.0915L13692.1432,-3549.0819L13692.2572,-3549.0391L13692.3116,-3549.0189L13692.3191,-3549.0149L13692.3329,-3549.0104L13692.3873,-3548.9907L13692.5001,-3548.9479L13692.5304,-3548.9366L13692.5634,-3548.9242L13692.5814,-3548.9192L13692.6054,-3548.9175L13692.6474,-3548.9147L13692.6625,-3548.913L13692.6921,-3548.9113L13692.6969,-3548.9096L13692.7342,-3548.9061L13692.8174,-3548.9006L13692.8153,-3548.8837L13692.8133,-3548.8532L13692.8105,-3548.8386L13692.8112,-3548.8189L13692.816,-3548.7924L13692.8191,-3548.7782L13692.8208,-3548.7705L13692.8214,-3548.7492L13692.8215,-3548.744L13692.8217,-3548.739L13692.8229,-3548.6278L13692.8252,-3548.6049L13692.8255,-3548.584"/>
<path content="1,岐阜乗合自動車（株）,関板取線_02_on,7.0,4.0,4.0," xlink:title="1" d="M13691.1621,-3548.6941L13691.1733,-3548.6944L13691.2208,-3548.6972L13691.2387,-3548.6983L13691.2848,-3548.7006L13691.2993,-3548.749L13691.2981,-3548.7534L13691.2637,-3548.8791L13691.2496,-3548.9231L13691.2481,-3548.9331L13691.2188,-3549.0279L13691.1806,-3549.1559L13691.1733,-3549.1774L13691.1621,-3549.2298M13691.1621,-3549.7296L13691.1857,-3549.7303L13691.2524,-3549.7303L13691.2566,-3549.7303L13691.2779,-3549.7297L13691.2828,-3549.7293L13691.3577,-3549.7235L13691.4802,-3549.7134L13691.5848,-3549.7055L13691.6935,-3549.6948L13691.6908,-3549.6655L13691.6792,-3549.5844L13691.6674,-3549.4892L13691.6881,-3549.4869L13692.0017,-3549.4572L13691.9936,-3549.4047L13691.9929,-3549.3996L13691.9888,-3549.3788L13691.9833,-3549.3647L13691.9688,-3549.3382L13691.9654,-3549.3343L13691.9454,-3549.2977L13691.931,-3549.2723L13691.9234,-3549.2616L13691.9193,-3549.2554L13691.8987,-3549.2188L13691.8856,-3549.1957L13691.8828,-3549.189L13691.8787,-3549.1827L13691.9813,-3549.145L13691.9916,-3549.1405L13692.0556,-3549.1157L13692.0679,-3549.1118L13692.0762,-3549.1079L13692.1051,-3549.096L13692.1189,-3549.0915L13692.1432,-3549.0819L13692.2572,-3549.0391L13692.3116,-3549.0189L13692.3191,-3549.0149L13692.3329,-3549.0104L13692.3873,-3548.9907L13692.5001,-3548.9479L13692.5304,-3548.9366L13692.5634,-3548.9242L13692.5814,-3548.9192L13692.6054,-3548.9175L13692.6474,-3548.9147L13692.6625,-3548.913L13692.6921,-3548.9113L13692.6969,-3548.9096L13692.7342,-3548.9061L13692.8174,-3548.9006L13692.8153,-3548.8837L13692.8133,-3548.8532L13692.8105,-3548.8386L13692.8112,-3548.8189L13692.816,-3548.7924L13692.8191,-3548.7782L13692.8208,-3548.7705L13692.8214,-3548.7492L13692.8215,-3548.744L13692.8217,-3548.739L13692.8229,-3548.6278L13692.8252,-3548.6049L13692.8255,-3548.584"/>
<path content="1,岐阜乗合自動車（株）,高速名古屋線,11.0,11.0,11.0," xlink:title="1" d="M13691.1621,-3548.6941L13691.1733,-3548.6944L13691.2208,-3548.6972L13691.2387,-3548.6983L13691.2848,-3548.7006L13691.3171,-3548.6977L13691.3736,-3548.6842L13691.4197,-3548.6713L13691.4266,-3548.6702L13691.4376,-3548.6668L13691.4679,-3548.6577L13691.5105,-3548.6454L13691.5688,-3548.6307L13691.5917,-3548.6228L13691.6371,-3548.6099L13691.6716,-3548.5986L13691.6901,-3548.5935L13691.7032,-3548.5902L13691.706,-3548.589L13691.717,-3548.5879L13691.728,-3548.5856L13691.7401,-3548.584M13693.0404,-3548.584L13693.074,-3548.5966L13693.1243,-3548.6138L13693.1312,-3548.6161L13693.2117,-3548.6426L13693.2585,-3548.6572L13693.2757,-3548.6617L13693.2812,-3548.664L13693.3143,-3548.673L13693.3594,-3548.6847M13693.3594,-3548.9037L13693.3569,-3548.9034L13693.3314,-3548.8972L13693.3087,-3548.8932L13693.2971,-3548.8914L13693.2778,-3548.8871L13693.2475,-3548.8803L13693.2234,-3548.8747L13693.2089,-3548.8718L13693.1993,-3548.8701L13693.1498,-3548.8735L13693.1346,-3548.8747L13693.1072,-3548.8768L13693.0851,-3548.8786L13692.9943,-3548.8865L13692.9178,-3548.8921L13692.9123,-3548.8932L13692.8697,-3548.8955L13692.8174,-3548.9006L13692.7342,-3548.9061L13692.6969,-3548.9096L13692.6921,-3548.9113L13692.6625,-3548.913L13692.6474,-3548.9147L13692.6054,-3548.9175L13692.5814,-3548.9192L13692.5634,-3548.9242L13692.5304,-3548.9366L13692.5001,-3548.9479L13692.3873,-3548.9907L13692.3329,-3549.0104L13692.3191,-3549.0149L13692.3116,-3549.0189L13692.2572,-3549.0391L13692.1432,-3549.0819L13692.1189,-3549.0915L13692.1051,-3549.096L13692.0762,-3549.1079L13692.0679,-3549.1118L13692.0556,-3549.1157L13691.9916,-3549.1405L13691.9813,-3549.145L13691.8787,-3549.1827L13691.8828,-3549.189L13691.8856,-3549.1957L13691.8987,-3549.2188L13691.9193,-3549.2554L13691.9234,-3549.2616L13691.931,-3549.2723L13691.9454,-3549.2977L13691.9654,-3549.3343L13691.9688,-3549.3382L13691.9833,-3549.3647L13691.9888,-3549.3788L13691.9929,-3549.3996L13691.9936,-3549.4047L13692.0017,-3549.4572L13691.6881,-3549.4869"/>
<path content="1,岐阜乗合自動車（株）,高速名古屋線,11.0,11.0,11.0," xlink:title="1" d="M13691.6881,-3549.4869L13691.6969,-3549.5499L13691.7163,-3549.6931"/>
<path content="1,岐阜乗合自動車（株）,高速名古屋線,11.0,11.0,11.0," xlink:title="1" d="M13691.6881,-3549.4869L13691.6674,-3549.4892L13691.6792,-3549.5844L13691.6908,-3549.6655L13691.6935,-3549.6948"/>
<path content="1,岐阜乗合自動車（株）,高速名古屋線,11.0,11.0,11.0," xlink:title="1" d="M13691.7163,-3549.6931L13691.6935,-3549.6948"/>
<path content="1,岐阜乗合自動車（株）,高速名古屋線,11.0,11.0,11.0," xlink:title="1" d="M13691.7163,-3549.6931L13691.807,-3549.6886L13691.925,-3549.6747L13692.0259,-3549.6661L13692.0356,-3549.6632L13692.0383,-3549.6728L13692.0941,-3549.9382L13692.0961,-3549.9466L13692.1401,-3550.1432L13692.1443,-3550.1669L13692.179,-3550.3189L13692.1893,-3550.3651L13692.1995,-3550.4124L13692.2556,-3550.6722L13692.2573,-3550.68L13692.2891,-3550.7812"/>
<path content="1,岐阜乗合自動車（株）,高速名古屋線,11.0,11.0,11.0," xlink:title="1" d="M13691.6935,-3549.6948L13691.5848,-3549.7055L13691.4802,-3549.7134L13691.3577,-3549.7235L13691.2828,-3549.7293L13691.2779,-3549.7297L13691.2566,-3549.7303L13691.2524,-3549.7303L13691.1857,-3549.7303L13691.1621,-3549.7296"/>
<path content="3,関市,わかくさ・下有知線,4.0,4.0,4.0," xlink:title="3" d="M13692.0017,-3549.4572L13692.0335,-3549.6475L13692.0356,-3549.6632L13692.0259,-3549.6661L13691.925,-3549.6747L13691.807,-3549.6886L13691.7163,-3549.6931L13691.6969,-3549.5499L13691.6881,-3549.4869L13691.6674,-3549.4892L13691.6792,-3549.5844L13691.6908,-3549.6655L13691.6935,-3549.6948L13691.5848,-3549.7055L13691.4802,-3549.7134L13691.3577,-3549.7235L13691.2828,-3549.7293L13691.2779,-3549.7297L13691.2566,-3549.7303L13691.2524,-3549.7303L13691.1857,-3549.7303L13691.1621,-3549.7296"/>
<path content="3,関市,わかくさ・下有知線,4.0,4.0,4.0," xlink:title="3" d="M13691.1621,-3549.2298L13691.1733,-3549.1774L13691.1806,-3549.1559L13691.2188,-3549.0279L13691.2481,-3548.9331L13691.2496,-3548.9231L13691.2637,-3548.8791L13691.2981,-3548.7534L13691.2993,-3548.749L13691.2848,-3548.7006L13691.2387,-3548.6983L13691.2208,-3548.6972L13691.1733,-3548.6944L13691.1621,-3548.6941"/>
<path content="3,関市,わかくさ・千疋線,4.0,4.0,4.0," xlink:title="3" d="M13691.1621,-3548.6941L13691.1733,-3548.6944L13691.2208,-3548.6972L13691.2387,-3548.6983L13691.2848,-3548.7006L13691.2993,-3548.749L13691.2981,-3548.7534L13691.2637,-3548.8791L13691.2496,-3548.9231L13691.2481,-3548.9331L13691.2188,-3549.0279L13691.1806,-3549.1559L13691.1733,-3549.1774L13691.1621,-3549.2298M13691.1621,-3549.7296L13691.1857,-3549.7303L13691.2524,-3549.7303L13691.2566,-3549.7303L13691.2779,-3549.7297L13691.2828,-3549.7293L13691.3577,-3549.7235L13691.4802,-3549.7134L13691.5848,-3549.7055L13691.6935,-3549.6948L13691.6908,-3549.6655L13691.6792,-3549.5844L13691.6674,-3549.4892L13691.6881,-3549.4869L13691.6969,-3549.5499L13691.7163,-3549.6931L13691.807,-3549.6886L13691.925,-3549.6747L13692.0259,-3549.6661L13692.0356,-3549.6632L13692.0335,-3549.6475L13692.0017,-3549.4572"/>
<path content="3,関市,わかくさ・向山線,999.9,999.9,999.9," xlink:title="3" d="M13691.2848,-3548.7006L13691.2786,-3548.6837L13691.2621,-3548.6279L13691.2566,-3548.6009L13691.2529,-3548.584"/>
<path content="3,関市,わかくさ・向山線,999.9,999.9,999.9," xlink:title="3" d="M13691.1621,-3548.6941L13691.1733,-3548.6944L13691.2208,-3548.6972L13691.2387,-3548.6983L13691.2848,-3548.7006"/>
<path content="3,関市,わかくさ・向山線,999.9,999.9,999.9," xlink:title="3" d="M13692.0017,-3549.4572L13692.0335,-3549.6475L13692.0356,-3549.6632L13692.0259,-3549.6661L13691.925,-3549.6747L13691.807,-3549.6886L13691.7163,-3549.6931L13691.6969,-3549.5499L13691.6881,-3549.4869L13691.6674,-3549.4892L13691.6792,-3549.5844L13691.6908,-3549.6655L13691.6935,-3549.6948L13691.5848,-3549.7055L13691.4802,-3549.7134L13691.3577,-3549.7235L13691.2828,-3549.7293L13691.2779,-3549.7297L13691.2566,-3549.7303L13691.2524,-3549.7303L13691.1857,-3549.7303L13691.1621,-3549.7296M13691.1621,-3549.2298L13691.1733,-3549.1774L13691.1806,-3549.1559L13691.2188,-3549.0279L13691.2481,-3548.9331L13691.2496,-3548.9231L13691.2637,-3548.8791L13691.2981,-3548.7534L13691.2993,-3548.749L13691.2848,-3548.7006"/>
<path content="3,関市,わかくさ・富野線,999.9,999.9,999.9," xlink:title="3" d="M13692.0017,-3549.4572L13692.0335,-3549.6475L13692.0356,-3549.6632"/>
<path content="3,関市,わかくさ・富野線,999.9,999.9,999.9," xlink:title="3" d="M13691.6792,-3549.5844L13691.6674,-3549.4892L13691.6881,-3549.4869L13691.6969,-3549.5499L13691.7163,-3549.6931L13691.807,-3549.6886L13691.925,-3549.6747L13692.0259,-3549.6661L13692.0356,-3549.6632"/>
<path content="3,関市,わかくさ・富野線,999.9,999.9,999.9," xlink:title="3" d="M13692.0356,-3549.6632L13692.0383,-3549.6728L13692.0941,-3549.9382L13692.0961,-3549.9466L13692.1401,-3550.1432L13692.1931,-3550.1269L13692.2152,-3550.1195L13692.3081,-3550.0914L13692.3246,-3550.0857L13692.3728,-3550.0733L13692.3852,-3550.0705L13692.3941,-3550.0677L13692.4622,-3550.0519L13692.4891,-3550.0463L13692.4911,-3550.0547L13692.5008,-3550.0981L13692.5021,-3550.1066L13692.5083,-3550.1269L13692.5138,-3550.1505L13692.5156,-3550.1571L13692.5448,-3550.1539L13692.5827,-3550.1488L13692.6274,-3550.1443L13692.6608,-3550.1449L13692.6893,-3550.1505L13692.7086,-3550.1533L13692.7354,-3550.1539L13692.7643,-3550.1511L13692.8056,-3550.1449L13692.8524,-3550.1364L13692.8778,-3550.1288L13692.9164,-3550.1151L13692.9323,-3550.1117L13692.9426,-3550.1106L13692.9446,-3550.1094L13692.9853,-3550.1021L13693.0196,-3550.0936L13693.0355,-3550.088L13693.0493,-3550.0801L13693.0706,-3550.0655L13693.0864,-3550.0519L13693.1195,-3550.0231L13693.1408,-3549.9996L13693.1594,-3549.9714L13693.1718,-3549.9511L13693.1896,-3549.91L13693.1958,-3549.8858L13693.1972,-3549.8762L13693.1952,-3549.843L13693.2488,-3549.8238L13693.2667,-3549.8171L13693.275,-3549.8148L13693.3169,-3549.799L13693.3459,-3549.7906L13693.3594,-3549.7863"/>
<path content="3,関市,わかくさ・小瀬線,4.0,4.0,4.0," xlink:title="3" d="M13692.0017,-3549.4572L13692.0335,-3549.6475L13692.0356,-3549.6632L13692.0259,-3549.6661L13691.925,-3549.6747L13691.807,-3549.6886L13691.7163,-3549.6931L13691.6969,-3549.5499L13691.6881,-3549.4869L13691.6674,-3549.4892L13691.6792,-3549.5844L13691.6908,-3549.6655L13691.6935,-3549.6948L13691.5848,-3549.7055L13691.4802,-3549.7134L13691.3577,-3549.7235L13691.2828,-3549.7293L13691.2779,-3549.7297L13691.2566,-3549.7303L13691.2524,-3549.7303L13691.1857,-3549.7303L13691.1621,-3549.7296M13691.1621,-3549.2298L13691.1733,-3549.1774L13691.1806,-3549.1559L13691.2188,-3549.0279L13691.2481,-3548.9331L13691.2496,-3548.9231L13691.2637,-3548.8791L13691.2981,-3548.7534L13691.2993,-3548.749L13691.2848,-3548.7006L13691.2387,-3548.6983L13691.2208,-3548.6972L13691.1733,-3548.6944L13691.1621,-3548.6941"/>
<path content="3,関市,わかくさ・小金田線,4.0,4.0,4.0," xlink:title="3" d="M13691.2529,-3548.584L13691.2566,-3548.6009L13691.2621,-3548.6279L13691.2786,-3548.6837L13691.2848,-3548.7006"/>
<path content="3,関市,わかくさ・小金田線,4.0,4.0,4.0," xlink:title="3" d="M13691.2848,-3548.7006L13691.2993,-3548.749L13691.2981,-3548.7534L13691.2637,-3548.8791L13691.2496,-3548.9231L13691.2481,-3548.9331L13691.2188,-3549.0279L13691.1806,-3549.1559L13691.1733,-3549.1774L13691.1621,-3549.2298M13691.1621,-3549.7296L13691.1857,-3549.7303L13691.2524,-3549.7303L13691.2566,-3549.7303L13691.2779,-3549.7297L13691.2828,-3549.7293L13691.3577,-3549.7235L13691.4802,-3549.7134L13691.5848,-3549.7055L13691.6935,-3549.6948L13691.6908,-3549.6655L13691.6792,-3549.5844L13691.6674,-3549.4892L13691.6881,-3549.4869L13691.6969,-3549.5499L13691.7163,-3549.6931L13691.807,-3549.6886L13691.925,-3549.6747L13692.0259,-3549.6661L13692.0356,-3549.6632L13692.0335,-3549.6475L13692.0017,-3549.4572"/>
<path content="3,関市,わかくさ・小金田線,4.0,4.0,4.0," xlink:title="3" d="M13691.1621,-3548.6941L13691.1733,-3548.6944L13691.2208,-3548.6972L13691.2387,-3548.6983L13691.2848,-3548.7006"/>
<path content="3,関市,わかくさ・田原線,999.9,999.9,999.9," xlink:title="3" d="M13691.1621,-3548.6941L13691.1733,-3548.6944L13691.2208,-3548.6972L13691.2387,-3548.6983L13691.2848,-3548.7006L13691.2993,-3548.749L13691.2981,-3548.7534L13691.2637,-3548.8791L13691.2496,-3548.9231L13691.2481,-3548.9331L13691.2188,-3549.0279L13691.1806,-3549.1559L13691.1733,-3549.1774L13691.1621,-3549.2298M13691.1621,-3549.7296L13691.1857,-3549.7303L13691.2524,-3549.7303L13691.2566,-3549.7303L13691.2779,-3549.7297L13691.2828,-3549.7293L13691.3577,-3549.7235L13691.4802,-3549.7134L13691.5848,-3549.7055L13691.6935,-3549.6948L13691.6908,-3549.6655L13691.6792,-3549.5844L13691.6674,-3549.4892L13691.6881,-3549.4869L13691.6969,-3549.5499L13691.7163,-3549.6931L13691.807,-3549.6886L13691.925,-3549.6747L13692.0259,-3549.6661L13692.0356,-3549.6632L13692.0335,-3549.6475L13692.0017,-3549.4572L13691.9936,-3549.4047L13691.9929,-3549.3996L13691.9888,-3549.3788L13691.9833,-3549.3647L13691.9688,-3549.3382L13691.9654,-3549.3343L13691.9454,-3549.2977L13691.931,-3549.2723L13691.9234,-3549.2616L13691.9193,-3549.2554L13691.8987,-3549.2188L13691.8856,-3549.1957L13691.8828,-3549.189L13691.8787,-3549.1827L13691.9813,-3549.145L13691.9916,-3549.1405L13692.0556,-3549.1157L13692.0679,-3549.1118L13692.0762,-3549.1079L13692.1051,-3549.096L13692.1189,-3549.0915L13692.1432,-3549.0819L13692.2572,-3549.0391L13692.3116,-3549.0189L13692.3191,-3549.0149L13692.3329,-3549.0104L13692.3873,-3548.9907L13692.5001,-3548.9479L13692.5304,-3548.9366L13692.5634,-3548.9242L13692.5814,-3548.9192L13692.6054,-3548.9175L13692.6474,-3548.9147L13692.6625,-3548.913L13692.6921,-3548.9113L13692.6969,-3548.9096L13692.7342,-3548.9061L13692.8174,-3548.9006L13692.8153,-3548.8837L13692.8133,-3548.8532L13692.8105,-3548.8386L13692.8112,-3548.8189L13692.816,-3548.7924L13692.8191,-3548.7782L13692.8208,-3548.7705L13692.8214,-3548.7492L13692.8215,-3548.744L13692.8217,-3548.739L13692.8229,-3548.6278L13692.8252,-3548.6049L13692.8255,-3548.584"/>
<path content="3,関市,わかくさ・迫間線,999.9,999.9,999.9," xlink:title="3" d="M13691.1621,-3548.6941L13691.1733,-3548.6944L13691.2208,-3548.6972L13691.2387,-3548.6983L13691.2848,-3548.7006L13691.2993,-3548.749L13691.2981,-3548.7534L13691.2637,-3548.8791L13691.2496,-3548.9231L13691.2481,-3548.9331L13691.2188,-3549.0279L13691.1806,-3549.1559L13691.1733,-3549.1774L13691.1621,-3549.2298M13691.1621,-3549.7296L13691.1857,-3549.7303L13691.2524,-3549.7303L13691.2566,-3549.7303L13691.2779,-3549.7297L13691.2828,-3549.7293L13691.3577,-3549.7235L13691.4802,-3549.7134L13691.5848,-3549.7055L13691.6935,-3549.6948L13691.6908,-3549.6655L13691.6792,-3549.5844L13691.6674,-3549.4892L13691.6881,-3549.4869L13691.6969,-3549.5499L13691.7163,-3549.6931L13691.807,-3549.6886L13691.925,-3549.6747L13692.0259,-3549.6661L13692.0356,-3549.6632L13692.0335,-3549.6475L13692.0017,-3549.4572L13691.9936,-3549.4047L13691.9929,-3549.3996L13691.9888,-3549.3788L13691.9833,-3549.3647L13691.9688,-3549.3382L13691.9654,-3549.3343L13691.9454,-3549.2977L13691.931,-3549.2723L13691.9234,-3549.2616L13691.9193,-3549.2554L13691.8987,-3549.2188L13691.8856,-3549.1957L13691.8828,-3549.189L13691.8787,-3549.1827L13691.9813,-3549.145L13691.9916,-3549.1405L13692.0556,-3549.1157L13692.0679,-3549.1118L13692.0762,-3549.1079L13692.1051,-3549.096L13692.1189,-3549.0915L13692.1432,-3549.0819L13692.2572,-3549.0391L13692.3116,-3549.0189L13692.3191,-3549.0149L13692.3329,-3549.0104L13692.3873,-3548.9907L13692.5001,-3548.9479L13692.5304,-3548.9366L13692.5634,-3548.9242L13692.5814,-3548.9192L13692.6054,-3548.9175L13692.6474,-3548.9147L13692.6625,-3548.913L13692.6921,-3548.9113L13692.6969,-3548.9096L13692.7342,-3548.9061L13692.8174,-3548.9006L13692.8153,-3548.8837L13692.8133,-3548.8532L13692.8105,-3548.8386L13692.8112,-3548.8189L13692.816,-3548.7924L13692.8191,-3548.7782L13692.8208,-3548.7705L13692.8214,-3548.7492L13692.8215,-3548.744L13692.8217,-3548.739L13692.8229,-3548.6278L13692.8252,-3548.6049L13692.8255,-3548.584"/>
<path content="3,関市,マーゴ・東山線,4.0,4.0,4.0," xlink:title="3" d="M13691.2529,-3548.584L13691.2566,-3548.6009L13691.2621,-3548.6279L13691.2786,-3548.6837L13691.2848,-3548.7006"/>
<path content="3,関市,マーゴ・東山線,4.0,4.0,4.0," xlink:title="3" d="M13691.2848,-3548.7006L13691.2993,-3548.749L13691.2981,-3548.7534L13691.2637,-3548.8791L13691.2496,-3548.9231L13691.2481,-3548.9331L13691.2188,-3549.0279L13691.1806,-3549.1559L13691.1733,-3549.1774L13691.1621,-3549.2298M13691.1621,-3549.7296L13691.1857,-3549.7303L13691.2524,-3549.7303L13691.2566,-3549.7303L13691.2779,-3549.7297L13691.2828,-3549.7293L13691.3577,-3549.7235L13691.4802,-3549.7134L13691.5848,-3549.7055L13691.6935,-3549.6948L13691.6908,-3549.6655L13691.6792,-3549.5844L13691.6674,-3549.4892L13691.6881,-3549.4869L13691.6969,-3549.5499L13691.7163,-3549.6931L13691.807,-3549.6886L13691.925,-3549.6747L13692.0259,-3549.6661L13692.0356,-3549.6632L13692.0335,-3549.6475L13692.0017,-3549.4572L13691.9936,-3549.4047L13691.9929,-3549.3996L13691.9888,-3549.3788L13691.9833,-3549.3647L13691.9688,-3549.3382L13691.9654,-3549.3343L13691.9454,-3549.2977L13691.931,-3549.2723L13691.9234,-3549.2616L13691.9193,-3549.2554L13691.8987,-3549.2188L13691.8856,-3549.1957L13691.8828,-3549.189L13691.8787,-3549.1827L13691.9813,-3549.145L13691.9916,-3549.1405L13692.0556,-3549.1157L13692.0679,-3549.1118L13692.0762,-3549.1079L13692.1051,-3549.096L13692.1189,-3549.0915L13692.1432,-3549.0819L13692.2572,-3549.0391L13692.3116,-3549.0189L13692.3191,-3549.0149L13692.3329,-3549.0104L13692.3873,-3548.9907L13692.5001,-3548.9479L13692.5304,-3548.9366L13692.5634,-3548.9242L13692.5814,-3548.9192L13692.6054,-3548.9175L13692.6474,-3548.9147L13692.6625,-3548.913L13692.6921,-3548.9113L13692.6969,-3548.9096L13692.7342,-3548.9061L13692.8174,-3548.9006L13692.8153,-3548.8837L13692.8133,-3548.8532L13692.8105,-3548.8386L13692.8112,-3548.8189L13692.816,-3548.7924L13692.8191,-3548.7782L13692.8208,-3548.7705L13692.8214,-3548.7492L13692.8215,-3548.744L13692.8217,-3548.739L13692.8229,-3548.6278L13692.8252,-3548.6049L13692.8255,-3548.584"/>
<path content="3,関市,マーゴ・東山線,4.0,4.0,4.0," xlink:title="3" d="M13691.1621,-3548.6941L13691.1733,-3548.6944L13691.2208,-3548.6972L13691.2387,-3548.6983L13691.2848,-3548.7006"/>
<path content="3,関市,市街地病院循環線（東回り）,5.0,5.0,5.0," xlink:title="3" d="M13691.2848,-3548.7006L13691.2993,-3548.749L13691.2981,-3548.7534L13691.2637,-3548.8791L13691.2496,-3548.9231L13691.2481,-3548.9331L13691.2188,-3549.0279L13691.1806,-3549.1559L13691.1733,-3549.1774L13691.1621,-3549.2298M13691.1621,-3549.7296L13691.1857,-3549.7303L13691.2524,-3549.7303L13691.2566,-3549.7303L13691.2779,-3549.7297L13691.2828,-3549.7293L13691.3577,-3549.7235L13691.4802,-3549.7134L13691.5848,-3549.7055L13691.6935,-3549.6948L13691.6908,-3549.6655L13691.6792,-3549.5844L13691.6674,-3549.4892L13691.6881,-3549.4869L13691.6969,-3549.5499L13691.7163,-3549.6931L13691.807,-3549.6886L13691.925,-3549.6747L13692.0259,-3549.6661L13692.0356,-3549.6632L13692.0335,-3549.6475L13692.0017,-3549.4572L13691.9936,-3549.4047L13691.9929,-3549.3996L13691.9888,-3549.3788L13691.9833,-3549.3647L13691.9688,-3549.3382L13691.9654,-3549.3343L13691.9454,-3549.2977L13691.931,-3549.2723L13691.9234,-3549.2616L13691.9193,-3549.2554L13691.8987,-3549.2188L13691.8856,-3549.1957L13691.8828,-3549.189L13691.8787,-3549.1827L13691.8649,-3549.1614L13691.8608,-3549.1529L13691.8413,-3549.0798L13691.8201,-3548.9875L13691.8305,-3548.8885L13691.8346,-3548.7723L13691.8168,-3548.6302L13691.8094,-3548.584M13693.0404,-3548.584L13693.074,-3548.5966L13693.1243,-3548.6138L13693.1312,-3548.6161L13693.2117,-3548.6426L13693.2585,-3548.6572L13693.2757,-3548.6617L13693.2812,-3548.664L13693.3143,-3548.673L13693.3594,-3548.6847M13691.2529,-3548.584L13691.2566,-3548.6009L13691.2621,-3548.6279L13691.2786,-3548.6837L13691.2848,-3548.7006"/>
<path content="3,関市,市街地病院循環線（東回り）,5.0,5.0,5.0," xlink:title="3" d="M13691.1621,-3548.6941L13691.1733,-3548.6944L13691.2208,-3548.6972L13691.2387,-3548.6983L13691.2848,-3548.7006"/>
<path content="3,関市,市街地病院循環線（西回り）,5.0,5.0,5.0," xlink:title="3" d="M13691.2848,-3548.7006L13691.2993,-3548.749L13691.2981,-3548.7534L13691.2637,-3548.8791L13691.2496,-3548.9231L13691.2481,-3548.9331L13691.2188,-3549.0279L13691.1806,-3549.1559L13691.1733,-3549.1774L13691.1621,-3549.2298M13691.1621,-3549.7296L13691.1857,-3549.7303L13691.2524,-3549.7303L13691.2566,-3549.7303L13691.2779,-3549.7297L13691.2828,-3549.7293L13691.3577,-3549.7235L13691.4802,-3549.7134L13691.5848,-3549.7055L13691.6935,-3549.6948L13691.6908,-3549.6655L13691.6792,-3549.5844L13691.6674,-3549.4892L13691.6881,-3549.4869L13691.6969,-3549.5499L13691.7163,-3549.6931L13691.807,-3549.6886L13691.925,-3549.6747L13692.0259,-3549.6661L13692.0356,-3549.6632L13692.0335,-3549.6475L13692.0017,-3549.4572L13691.9936,-3549.4047L13691.9929,-3549.3996L13691.9888,-3549.3788L13691.9833,-3549.3647L13691.9688,-3549.3382L13691.9654,-3549.3343L13691.9454,-3549.2977L13691.931,-3549.2723L13691.9234,-3549.2616L13691.9193,-3549.2554L13691.8987,-3549.2188L13691.8856,-3549.1957L13691.8828,-3549.189L13691.8787,-3549.1827L13691.8649,-3549.1614L13691.8608,-3549.1529L13691.8413,-3549.0798L13691.8201,-3548.9875L13691.8305,-3548.8885L13691.8346,-3548.7723L13691.8168,-3548.6302L13691.8094,-3548.584M13693.0404,-3548.584L13693.074,-3548.5966L13693.1243,-3548.6138L13693.1312,-3548.6161L13693.2117,-3548.6426L13693.2585,-3548.6572L13693.2757,-3548.6617L13693.2812,-3548.664L13693.3143,-3548.673L13693.3594,-3548.6847M13691.2529,-3548.584L13691.2566,-3548.6009L13691.2621,-3548.6279L13691.2786,-3548.6837L13691.2848,-3548.7006"/>
<path content="3,関市,市街地病院循環線（西回り）,5.0,5.0,5.0," xlink:title="3" d="M13691.1621,-3548.6941L13691.1733,-3548.6944L13691.2208,-3548.6972L13691.2387,-3548.6983L13691.2848,-3548.7006"/>
<path content="3,関市,買い物循環線（東回り）,7.0,7.0,7.0," xlink:title="3" d="M13691.1621,-3548.6941L13691.1733,-3548.6944L13691.2208,-3548.6972L13691.2387,-3548.6983L13691.2848,-3548.7006L13691.2993,-3548.749L13691.2981,-3548.7534L13691.2637,-3548.8791L13691.2496,-3548.9231L13691.2481,-3548.9331L13691.2188,-3549.0279L13691.1806,-3549.1559L13691.1733,-3549.1774L13691.1621,-3549.2298M13691.1621,-3549.7296L13691.1857,-3549.7303L13691.2524,-3549.7303L13691.2566,-3549.7303L13691.2779,-3549.7297L13691.2828,-3549.7293L13691.3577,-3549.7235L13691.4802,-3549.7134L13691.5848,-3549.7055L13691.6935,-3549.6948L13691.6908,-3549.6655L13691.6792,-3549.5844L13691.6674,-3549.4892L13691.6881,-3549.4869L13691.6969,-3549.5499L13691.7163,-3549.6931L13691.807,-3549.6886L13691.925,-3549.6747L13692.0259,-3549.6661L13692.0356,-3549.6632L13692.0335,-3549.6475L13692.0017,-3549.4572L13691.9936,-3549.4047L13691.9929,-3549.3996L13691.9888,-3549.3788L13691.9833,-3549.3647L13691.9688,-3549.3382L13691.9654,-3549.3343L13691.9454,-3549.2977L13691.931,-3549.2723L13691.9234,-3549.2616L13691.9193,-3549.2554L13691.8987,-3549.2188L13691.8856,-3549.1957L13691.8828,-3549.189L13691.8787,-3549.1827L13691.8649,-3549.1614L13691.8608,-3549.1529L13691.8413,-3549.0798L13691.8201,-3548.9875L13691.8305,-3548.8885L13691.8346,-3548.7723L13691.8168,-3548.6302L13691.8094,-3548.584M13693.0404,-3548.584L13693.074,-3548.5966L13693.1243,-3548.6138L13693.1312,-3548.6161L13693.2117,-3548.6426L13693.2585,-3548.6572L13693.2757,-3548.6617L13693.2812,-3548.664L13693.3143,-3548.673L13693.3594,-3548.6847"/>
<path content="3,関市,買い物循環線（西回り）,6.0,6.0,6.0," xlink:title="3" d="M13691.1621,-3548.6941L13691.1733,-3548.6944L13691.2208,-3548.6972L13691.2387,-3548.6983L13691.2848,-3548.7006L13691.2993,-3548.749L13691.2981,-3548.7534L13691.2637,-3548.8791L13691.2496,-3548.9231L13691.2481,-3548.9331L13691.2188,-3549.0279L13691.1806,-3549.1559L13691.1733,-3549.1774L13691.1621,-3549.2298M13691.1621,-3549.7296L13691.1857,-3549.7303L13691.2524,-3549.7303L13691.2566,-3549.7303L13691.2779,-3549.7297L13691.2828,-3549.7293L13691.3577,-3549.7235L13691.4802,-3549.7134L13691.5848,-3549.7055L13691.6935,-3549.6948L13691.6908,-3549.6655L13691.6792,-3549.5844L13691.6674,-3549.4892L13691.6881,-3549.4869L13691.6969,-3549.5499L13691.7163,-3549.6931L13691.807,-3549.6886L13691.925,-3549.6747L13692.0259,-3549.6661L13692.0356,-3549.6632L13692.0335,-3549.6475L13692.0017,-3549.4572L13691.9936,-3549.4047L13691.9929,-3549.3996L13691.9888,-3549.3788L13691.9833,-3549.3647L13691.9688,-3549.3382L13691.9654,-3549.3343L13691.9454,-3549.2977L13691.931,-3549.2723L13691.9234,-3549.2616L13691.9193,-3549.2554L13691.8987,-3549.2188L13691.8856,-3549.1957L13691.8828,-3549.189L13691.8787,-3549.1827L13691.8649,-3549.1614L13691.8608,-3549.1529L13691.8413,-3549.0798L13691.8201,-3548.9875L13691.8305,-3548.8885L13691.8346,-3548.7723L13691.8168,-3548.6302L13691.8094,-3548.584M13693.0404,-3548.584L13693.074,-3548.5966L13693.1243,-3548.6138L13693.1312,-3548.6161L13693.2117,-3548.6426L13693.2585,-3548.6572L13693.2757,-3548.6617L13693.2812,-3548.664L13693.3143,-3548.673L13693.3594,-3548.6847"/>
</g>
</svg>
