<?xml version="1.0" encoding="UTF-8"?>
<svg  xmlns="http://www.w3.org/2000/svg" xmlns:xlink="http://www.w3.org/1999/xlink" xmlns:go="http://purl.org/svgmap/profile" property="N07_001,N07_002,N07_003,N07_004,N07_005,N07_006,N07_007" viewBox="13086.9140625 -3234.375 8.7890625 8.7890625" go:dataArea="13086.9140625 -3234.375 8.7890625 8.7890625" >
<metadata>
 <rdf:RDF xmlns:rdf="http://www.w3.org/1999/02/22-rdf-syntax-ns#" xmlns:crs="http://opengis.org/xmldtds/transformations.dtd" xmlns:svg="http://www.w3.org/svg" >
  <rdf:Description>
   <crs:CoordinateReferenceSystem rdf:resource="http://purl.org/crs/84" svg:transform="matrix(100.0,0.0,0.0,-100.0,0.0,0.0)" />
  </rdf:Description>
 </rdf:RDF>
</metadata>
<globalCoordinateSystem srsName="http://purl.org/crs/84" transform="matrix(100.0,0.0,0.0,-100.0,0.0,0.0)" />
<defs>
 <g id="p0" >
  <circle cx="0.0" cy="0.0" r="3" stroke="green" stroke-width="0.75" vector-effect="non-scaling-stroke" />
 </g>
</defs>
<g fill="none" fill-rule="evenodd" stroke="#FF00FF" stroke-width="0.75" opacity="0.5" vector-effect="non-scaling-stroke" stroke-linejoin="bevel" >
<path content="1,九州産交バス（株）,人吉～古屋敷線_01_nu,3.0,3.0,3.0," xlink:title="1" d="M13092.6454,-3225.5859L13092.6642,-3225.6002L13092.6772,-3225.6105L13092.686,-3225.6191L13092.6977,-3225.6277L13092.7046,-3225.6301L13092.7171,-3225.6371L13092.7329,-3225.6454L13092.8484,-3225.7194L13093.0416,-3225.8476L13093.1694,-3225.9354L13093.189,-3225.9566L13093.1972,-3225.9606L13093.21,-3225.9649L13093.23,-3225.9743L13093.2783,-3226.004L13093.3589,-3226.0578L13093.4456,-3226.1137"/>
<path content="1,九州産交バス（株）,人吉～古屋敷線_01_nu,3.0,3.0,3.0," xlink:title="1" d="M13093.4456,-3226.1137L13093.4403,-3226.1204"/>
<path content="1,九州産交バス（株）,人吉～古屋敷線_01_nu,3.0,3.0,3.0," xlink:title="1" d="M13093.4456,-3226.1137L13093.4505,-3226.1167L13093.586,-3226.2001L13093.7079,-3226.2776L13093.7737,-3226.3191"/>
<path content="1,九州産交バス（株）,人吉～古屋敷線_01_nu,3.0,3.0,3.0," xlink:title="1" d="M13093.7737,-3226.3191L13093.7643,-3226.3285"/>
<path content="1,九州産交バス（株）,人吉～古屋敷線_01_nu,3.0,3.0,3.0," xlink:title="1" d="M13093.7737,-3226.3191L13093.8707,-3226.3806L13093.8956,-3226.3988L13093.9147,-3226.4135L13093.9193,-3226.4173L13093.923,-3226.4206L13093.9318,-3226.4254L13093.9579,-3226.4368L13094.0357,-3226.4884L13094.1261,-3226.5461"/>
<path content="1,九州産交バス（株）,人吉～古屋敷線_01_nu,3.0,3.0,3.0," xlink:title="1" d="M13094.1261,-3226.5461L13094.135,-3226.5367"/>
<path content="1,九州産交バス（株）,人吉～古屋敷線_01_nu,3.0,3.0,3.0," xlink:title="1" d="M13094.1261,-3226.5461L13094.2087,-3226.5991L13094.271,-3226.6386L13094.3123,-3226.6652L13094.3289,-3226.6759L13094.3342,-3226.685L13094.3437,-3226.6952L13094.3559,-3226.7002L13094.3768,-3226.7075L13094.439,-3226.7454L13094.4839,-3226.7789L13094.4948,-3226.7818L13094.5115,-3226.7906L13094.518,-3226.7949L13094.5307,-3226.7968L13094.5426,-3226.802L13094.5587,-3226.8032L13094.613,-3226.8196L13094.6315,-3226.8295L13094.6428,-3226.8339L13094.6545,-3226.8353L13094.6741,-3226.8361L13094.7817,-3226.8666L13094.8513,-3226.8864L13094.8683,-3226.8951L13094.8814,-3226.8996L13094.8956,-3226.9015L13094.9166,-3226.9032L13094.9437,-3226.9133L13095.0022,-3226.9278L13095.1015,-3226.9565L13095.2545,-3226.9984"/>
<path content="1,九州産交バス（株）,人吉～古屋敷線_01_nu,3.0,3.0,3.0," xlink:title="1" d="M13095.2545,-3226.9984L13095.2685,-3226.99"/>
<path content="1,九州産交バス（株）,人吉～古屋敷線_01_nu,3.0,3.0,3.0," xlink:title="1" d="M13095.2545,-3226.9984L13095.3833,-3227.034L13095.422,-3227.0477L13095.5011,-3227.0685L13095.5075,-3227.073L13095.5317,-3227.0797L13095.5569,-3227.0928L13095.5861,-3227.1072L13095.6076,-3227.1166L13095.6192,-3227.1246L13095.6355,-3227.1399L13095.6458,-3227.1479L13095.6602,-3227.1529L13095.6721,-3227.1531L13095.6904,-3227.1648L13095.7031,-3227.1722"/>
<path content="1,九州産交バス（株）,人吉～古屋敷線_02_nu,2.0,2.0,2.0," xlink:title="1" d="M13092.6454,-3225.5859L13092.6642,-3225.6002L13092.6772,-3225.6105L13092.686,-3225.6191L13092.6977,-3225.6277L13092.7046,-3225.6301L13092.7171,-3225.6371L13092.7329,-3225.6454L13092.8484,-3225.7194L13093.0416,-3225.8476L13093.1694,-3225.9354L13093.189,-3225.9566L13093.1972,-3225.9606L13093.21,-3225.9649L13093.23,-3225.9743L13093.2783,-3226.004L13093.3589,-3226.0578L13093.4456,-3226.1137"/>
<path content="1,九州産交バス（株）,人吉～古屋敷線_02_nu,2.0,2.0,2.0," xlink:title="1" d="M13093.4456,-3226.1137L13093.4403,-3226.1204"/>
<path content="1,九州産交バス（株）,人吉～古屋敷線_02_nu,2.0,2.0,2.0," xlink:title="1" d="M13093.4456,-3226.1137L13093.4505,-3226.1167L13093.586,-3226.2001L13093.7079,-3226.2776L13093.7737,-3226.3191"/>
<path content="1,九州産交バス（株）,人吉～古屋敷線_02_nu,2.0,2.0,2.0," xlink:title="1" d="M13093.7737,-3226.3191L13093.7643,-3226.3285"/>
<path content="1,九州産交バス（株）,人吉～古屋敷線_02_nu,2.0,2.0,2.0," xlink:title="1" d="M13093.7737,-3226.3191L13093.8707,-3226.3806L13093.8956,-3226.3988L13093.9147,-3226.4135L13093.9193,-3226.4173L13093.923,-3226.4206L13093.9318,-3226.4254L13093.9579,-3226.4368L13094.0357,-3226.4884L13094.1261,-3226.5461"/>
<path content="1,九州産交バス（株）,人吉～古屋敷線_02_nu,2.0,2.0,2.0," xlink:title="1" d="M13094.1261,-3226.5461L13094.135,-3226.5367"/>
<path content="1,九州産交バス（株）,人吉～古屋敷線_02_nu,2.0,2.0,2.0," xlink:title="1" d="M13094.1261,-3226.5461L13094.2087,-3226.5991L13094.271,-3226.6386L13094.3123,-3226.6652L13094.3289,-3226.6759L13094.3342,-3226.685L13094.3437,-3226.6952L13094.3559,-3226.7002L13094.3768,-3226.7075L13094.439,-3226.7454L13094.4839,-3226.7789L13094.4948,-3226.7818L13094.5115,-3226.7906L13094.518,-3226.7949L13094.5307,-3226.7968L13094.5426,-3226.802L13094.5587,-3226.8032L13094.613,-3226.8196L13094.6315,-3226.8295L13094.6428,-3226.8339L13094.6545,-3226.8353L13094.6741,-3226.8361L13094.7817,-3226.8666L13094.8513,-3226.8864L13094.8683,-3226.8951L13094.8814,-3226.8996L13094.8956,-3226.9015L13094.9166,-3226.9032L13094.9437,-3226.9133L13095.0022,-3226.9278L13095.1015,-3226.9565L13095.2545,-3226.9984"/>
<path content="1,九州産交バス（株）,人吉～古屋敷線_02_nu,2.0,2.0,2.0," xlink:title="1" d="M13095.2545,-3226.9984L13095.2685,-3226.99"/>
<path content="1,九州産交バス（株）,人吉～古屋敷線_02_nu,2.0,2.0,2.0," xlink:title="1" d="M13095.2545,-3226.9984L13095.3833,-3227.034L13095.422,-3227.0477L13095.5011,-3227.0685L13095.5075,-3227.073L13095.5317,-3227.0797L13095.5569,-3227.0928L13095.5861,-3227.1072L13095.6076,-3227.1166L13095.6192,-3227.1246L13095.6355,-3227.1399L13095.6458,-3227.1479L13095.6602,-3227.1529L13095.6721,-3227.1531L13095.6904,-3227.1648L13095.7031,-3227.1722"/>
<path content="1,九州産交バス（株）,人吉～市房線,1.0,1.0,1.0," xlink:title="1" d="M13092.6454,-3225.5859L13092.6642,-3225.6002L13092.6772,-3225.6105L13092.686,-3225.6191L13092.6977,-3225.6277L13092.7046,-3225.6301L13092.7171,-3225.6371L13092.7329,-3225.6454L13092.8484,-3225.7194L13093.0416,-3225.8476L13093.1694,-3225.9354L13093.189,-3225.9566L13093.1972,-3225.9606L13093.21,-3225.9649L13093.23,-3225.9743L13093.2783,-3226.004L13093.3589,-3226.0578L13093.4456,-3226.1137"/>
<path content="1,九州産交バス（株）,人吉～市房線,1.0,1.0,1.0," xlink:title="1" d="M13093.4456,-3226.1137L13093.4505,-3226.1167L13093.586,-3226.2001L13093.7079,-3226.2776L13093.7737,-3226.3191"/>
<path content="1,九州産交バス（株）,人吉～市房線,1.0,1.0,1.0," xlink:title="1" d="M13093.4403,-3226.1204L13093.4456,-3226.1137"/>
<path content="1,九州産交バス（株）,人吉～市房線,1.0,1.0,1.0," xlink:title="1" d="M13093.7737,-3226.3191L13093.7643,-3226.3285"/>
<path content="1,九州産交バス（株）,人吉～市房線,1.0,1.0,1.0," xlink:title="1" d="M13093.7737,-3226.3191L13093.8707,-3226.3806L13093.8956,-3226.3988L13093.9147,-3226.4135L13093.9193,-3226.4173L13093.923,-3226.4206L13093.9318,-3226.4254L13093.9579,-3226.4368L13094.0357,-3226.4884L13094.1261,-3226.5461"/>
<path content="1,九州産交バス（株）,人吉～市房線,1.0,1.0,1.0," xlink:title="1" d="M13094.135,-3226.5367L13094.1261,-3226.5461"/>
<path content="1,九州産交バス（株）,人吉～市房線,1.0,1.0,1.0," xlink:title="1" d="M13094.1261,-3226.5461L13094.2087,-3226.5991L13094.271,-3226.6386L13094.3123,-3226.6652L13094.3289,-3226.6759L13094.3342,-3226.685L13094.3437,-3226.6952L13094.3559,-3226.7002L13094.3768,-3226.7075L13094.439,-3226.7454L13094.4839,-3226.7789L13094.4948,-3226.7818L13094.5115,-3226.7906L13094.518,-3226.7949L13094.5307,-3226.7968L13094.5426,-3226.802L13094.5587,-3226.8032L13094.613,-3226.8196L13094.6315,-3226.8295L13094.6428,-3226.8339L13094.6545,-3226.8353L13094.6741,-3226.8361L13094.7817,-3226.8666L13094.8513,-3226.8864L13094.8683,-3226.8951L13094.8814,-3226.8996L13094.8956,-3226.9015L13094.9166,-3226.9032L13094.9437,-3226.9133L13095.0022,-3226.9278L13095.1015,-3226.9565L13095.2545,-3226.9984"/>
<path content="1,九州産交バス（株）,人吉～市房線,1.0,1.0,1.0," xlink:title="1" d="M13095.2545,-3226.9984L13095.2685,-3226.99"/>
<path content="1,九州産交バス（株）,人吉～市房線,1.0,1.0,1.0," xlink:title="1" d="M13095.2545,-3226.9984L13095.3833,-3227.034L13095.422,-3227.0477L13095.5011,-3227.0685L13095.5075,-3227.073L13095.5317,-3227.0797L13095.5569,-3227.0928L13095.5861,-3227.1072L13095.6076,-3227.1166L13095.6192,-3227.1246L13095.6355,-3227.1399L13095.6458,-3227.1479L13095.6602,-3227.1529L13095.6721,-3227.1531L13095.6904,-3227.1648L13095.7031,-3227.1722"/>
<path content="1,九州産交バス（株）,人吉～湯前（市房）線,7.0,5.0,5.0," xlink:title="1" d="M13092.6454,-3225.5859L13092.6642,-3225.6002L13092.6772,-3225.6105L13092.686,-3225.6191L13092.6977,-3225.6277L13092.7046,-3225.6301L13092.7171,-3225.6371L13092.7329,-3225.6454L13092.8484,-3225.7194L13093.0416,-3225.8476L13093.1694,-3225.9354L13093.189,-3225.9566L13093.1972,-3225.9606L13093.21,-3225.9649L13093.23,-3225.9743L13093.2783,-3226.004L13093.3589,-3226.0578L13093.4456,-3226.1137"/>
<path content="1,九州産交バス（株）,人吉～湯前（市房）線,7.0,5.0,5.0," xlink:title="1" d="M13093.4456,-3226.1137L13093.4403,-3226.1204"/>
<path content="1,九州産交バス（株）,人吉～湯前（市房）線,7.0,5.0,5.0," xlink:title="1" d="M13093.4456,-3226.1137L13093.4505,-3226.1167L13093.586,-3226.2001L13093.7079,-3226.2776L13093.7737,-3226.3191"/>
<path content="1,九州産交バス（株）,人吉～湯前（市房）線,7.0,5.0,5.0," xlink:title="1" d="M13093.7737,-3226.3191L13093.7643,-3226.3285"/>
<path content="1,九州産交バス（株）,人吉～湯前（市房）線,7.0,5.0,5.0," xlink:title="1" d="M13093.7737,-3226.3191L13093.8707,-3226.3806L13093.8956,-3226.3988L13093.9147,-3226.4135L13093.9193,-3226.4173L13093.923,-3226.4206L13093.9318,-3226.4254L13093.9579,-3226.4368L13094.0357,-3226.4884L13094.1261,-3226.5461"/>
<path content="1,九州産交バス（株）,人吉～湯前（市房）線,7.0,5.0,5.0," xlink:title="1" d="M13094.1261,-3226.5461L13094.135,-3226.5367"/>
<path content="1,九州産交バス（株）,人吉～湯前（市房）線,7.0,5.0,5.0," xlink:title="1" d="M13094.1261,-3226.5461L13094.2087,-3226.5991L13094.271,-3226.6386L13094.3123,-3226.6652L13094.3289,-3226.6759L13094.3342,-3226.685L13094.3437,-3226.6952L13094.3559,-3226.7002L13094.3768,-3226.7075L13094.439,-3226.7454L13094.4839,-3226.7789L13094.4948,-3226.7818L13094.5115,-3226.7906L13094.518,-3226.7949L13094.5307,-3226.7968L13094.5426,-3226.802L13094.5587,-3226.8032L13094.613,-3226.8196L13094.6315,-3226.8295L13094.6428,-3226.8339L13094.6545,-3226.8353L13094.6741,-3226.8361L13094.7817,-3226.8666L13094.8513,-3226.8864L13094.8683,-3226.8951L13094.8814,-3226.8996L13094.8956,-3226.9015L13094.9166,-3226.9032L13094.9437,-3226.9133L13095.0022,-3226.9278L13095.1015,-3226.9565L13095.2545,-3226.9984"/>
<path content="1,九州産交バス（株）,人吉～湯前（市房）線,7.0,5.0,5.0," xlink:title="1" d="M13095.2545,-3226.9984L13095.2685,-3226.99"/>
<path content="1,九州産交バス（株）,人吉～湯前（市房）線,7.0,5.0,5.0," xlink:title="1" d="M13095.2545,-3226.9984L13095.3833,-3227.034L13095.422,-3227.0477L13095.5011,-3227.0685L13095.5075,-3227.073L13095.5317,-3227.0797L13095.5569,-3227.0928L13095.5861,-3227.1072L13095.6076,-3227.1166L13095.6192,-3227.1246L13095.6355,-3227.1399L13095.6458,-3227.1479L13095.6602,-3227.1529L13095.6721,-3227.1531L13095.6904,-3227.1648L13095.7031,-3227.1722"/>
<path content="1,九州産交バス（株）,湯前線_01_nu,7.0,5.0,5.0," xlink:title="1" d="M13093.4456,-3226.1137L13093.3589,-3226.0578L13093.2783,-3226.004L13093.23,-3225.9743L13093.21,-3225.9649L13093.1972,-3225.9606L13093.189,-3225.9566L13093.1694,-3225.9354L13093.0416,-3225.8476L13092.8484,-3225.7194L13092.7329,-3225.6454L13092.7171,-3225.6371L13092.7046,-3225.6301L13092.6977,-3225.6277L13092.686,-3225.6191L13092.6772,-3225.6105L13092.6642,-3225.6002L13092.6454,-3225.5859"/>
<path content="1,九州産交バス（株）,湯前線_01_nu,7.0,5.0,5.0," xlink:title="1" d="M13093.4456,-3226.1137L13093.4505,-3226.1167L13093.586,-3226.2001L13093.7079,-3226.2776L13093.7737,-3226.3191"/>
<path content="1,九州産交バス（株）,湯前線_01_nu,7.0,5.0,5.0," xlink:title="1" d="M13093.4403,-3226.1204L13093.4456,-3226.1137"/>
<path content="1,九州産交バス（株）,湯前線_01_nu,7.0,5.0,5.0," xlink:title="1" d="M13093.7737,-3226.3191L13093.7643,-3226.3285"/>
<path content="1,九州産交バス（株）,湯前線_01_nu,7.0,5.0,5.0," xlink:title="1" d="M13093.7737,-3226.3191L13093.8707,-3226.3806L13093.8956,-3226.3988L13093.9147,-3226.4135L13093.9193,-3226.4173L13093.923,-3226.4206L13093.9318,-3226.4254L13093.9579,-3226.4368L13094.0357,-3226.4884L13094.1261,-3226.5461"/>
<path content="1,九州産交バス（株）,湯前線_01_nu,7.0,5.0,5.0," xlink:title="1" d="M13094.1261,-3226.5461L13094.135,-3226.5367"/>
<path content="1,九州産交バス（株）,湯前線_01_nu,7.0,5.0,5.0," xlink:title="1" d="M13094.1261,-3226.5461L13094.2087,-3226.5991L13094.271,-3226.6386L13094.3123,-3226.6652L13094.3289,-3226.6759L13094.3342,-3226.685L13094.3437,-3226.6952L13094.3559,-3226.7002L13094.3768,-3226.7075L13094.439,-3226.7454L13094.4839,-3226.7789L13094.4948,-3226.7818L13094.5115,-3226.7906L13094.518,-3226.7949L13094.5307,-3226.7968L13094.5426,-3226.802L13094.5587,-3226.8032L13094.613,-3226.8196L13094.6315,-3226.8295L13094.6428,-3226.8339L13094.6545,-3226.8353L13094.6741,-3226.8361L13094.7817,-3226.8666L13094.8513,-3226.8864L13094.8683,-3226.8951L13094.8814,-3226.8996L13094.8956,-3226.9015L13094.9166,-3226.9032L13094.9437,-3226.9133L13095.0022,-3226.9278L13095.1015,-3226.9565L13095.2545,-3226.9984"/>
<path content="1,九州産交バス（株）,湯前線_01_nu,7.0,5.0,5.0," xlink:title="1" d="M13095.2545,-3226.9984L13095.2685,-3226.99"/>
<path content="1,九州産交バス（株）,湯前線_01_nu,7.0,5.0,5.0," xlink:title="1" d="M13095.2545,-3226.9984L13095.3833,-3227.034L13095.422,-3227.0477L13095.5011,-3227.0685L13095.5075,-3227.073L13095.5317,-3227.0797L13095.5569,-3227.0928L13095.5861,-3227.1072L13095.6076,-3227.1166L13095.6192,-3227.1246L13095.6355,-3227.1399L13095.6458,-3227.1479L13095.6602,-3227.1529L13095.6721,-3227.1531L13095.6904,-3227.1648L13095.7031,-3227.1722"/>
<path content="1,九州産交バス（株）,湯前線_02_nu,8.0,5.0,5.0," xlink:title="1" d="M13093.4456,-3226.1137L13093.3589,-3226.0578L13093.2783,-3226.004L13093.23,-3225.9743L13093.21,-3225.9649L13093.1972,-3225.9606L13093.189,-3225.9566L13093.1694,-3225.9354L13093.0416,-3225.8476L13092.8484,-3225.7194L13092.7329,-3225.6454L13092.7171,-3225.6371L13092.7046,-3225.6301L13092.6977,-3225.6277L13092.686,-3225.6191L13092.6772,-3225.6105L13092.6642,-3225.6002L13092.6454,-3225.5859"/>
<path content="1,九州産交バス（株）,湯前線_02_nu,8.0,5.0,5.0," xlink:title="1" d="M13093.4456,-3226.1137L13093.4505,-3226.1167L13093.586,-3226.2001L13093.7079,-3226.2776L13093.7737,-3226.3191"/>
<path content="1,九州産交バス（株）,湯前線_02_nu,8.0,5.0,5.0," xlink:title="1" d="M13093.4403,-3226.1204L13093.4456,-3226.1137"/>
<path content="1,九州産交バス（株）,湯前線_02_nu,8.0,5.0,5.0," xlink:title="1" d="M13093.7737,-3226.3191L13093.7643,-3226.3285"/>
<path content="1,九州産交バス（株）,湯前線_02_nu,8.0,5.0,5.0," xlink:title="1" d="M13093.7737,-3226.3191L13093.8707,-3226.3806L13093.8956,-3226.3988L13093.9147,-3226.4135L13093.9193,-3226.4173L13093.923,-3226.4206L13093.9318,-3226.4254L13093.9579,-3226.4368L13094.0357,-3226.4884L13094.1261,-3226.5461"/>
<path content="1,九州産交バス（株）,湯前線_02_nu,8.0,5.0,5.0," xlink:title="1" d="M13094.1261,-3226.5461L13094.135,-3226.5367"/>
<path content="1,九州産交バス（株）,湯前線_02_nu,8.0,5.0,5.0," xlink:title="1" d="M13094.1261,-3226.5461L13094.2087,-3226.5991L13094.271,-3226.6386L13094.3123,-3226.6652L13094.3289,-3226.6759L13094.3342,-3226.685L13094.3437,-3226.6952L13094.3559,-3226.7002L13094.3768,-3226.7075L13094.439,-3226.7454L13094.4839,-3226.7789L13094.4948,-3226.7818L13094.5115,-3226.7906L13094.518,-3226.7949L13094.5307,-3226.7968L13094.5426,-3226.802L13094.5587,-3226.8032L13094.613,-3226.8196L13094.6315,-3226.8295L13094.6428,-3226.8339L13094.6545,-3226.8353L13094.6741,-3226.8361L13094.7817,-3226.8666L13094.8513,-3226.8864L13094.8683,-3226.8951L13094.8814,-3226.8996L13094.8956,-3226.9015L13094.9166,-3226.9032L13094.9437,-3226.9133L13095.0022,-3226.9278L13095.1015,-3226.9565L13095.2545,-3226.9984"/>
<path content="1,九州産交バス（株）,湯前線_02_nu,8.0,5.0,5.0," xlink:title="1" d="M13095.2545,-3226.9984L13095.2685,-3226.99"/>
<path content="1,九州産交バス（株）,湯前線_02_nu,8.0,5.0,5.0," xlink:title="1" d="M13095.2545,-3226.9984L13095.3833,-3227.034L13095.422,-3227.0477L13095.5011,-3227.0685L13095.5075,-3227.073L13095.5317,-3227.0797L13095.5569,-3227.0928L13095.5861,-3227.1072L13095.6076,-3227.1166L13095.6192,-3227.1246L13095.6355,-3227.1399L13095.6458,-3227.1479L13095.6602,-3227.1529L13095.6721,-3227.1531L13095.6904,-3227.1648L13095.7031,-3227.1722"/>
<path content="1,九州産交バス（株）,湯山線,1.0,0.0,0.0," xlink:title="1" d="M13093.3744,-3226.2032L13093.4403,-3226.1204L13093.4456,-3226.1137L13093.4505,-3226.1167L13093.586,-3226.2001L13093.7079,-3226.2776L13093.7737,-3226.3191"/>
<path content="1,九州産交バス（株）,湯山線,1.0,0.0,0.0," xlink:title="1" d="M13093.7737,-3226.3191L13093.7643,-3226.3285"/>
<path content="1,九州産交バス（株）,湯山線,1.0,0.0,0.0," xlink:title="1" d="M13093.7737,-3226.3191L13093.8707,-3226.3806L13093.8956,-3226.3988L13093.9147,-3226.4135L13093.9193,-3226.4173L13093.923,-3226.4206L13093.9318,-3226.4254L13093.9579,-3226.4368L13094.0357,-3226.4884L13094.1261,-3226.5461"/>
<path content="1,九州産交バス（株）,湯山線,1.0,0.0,0.0," xlink:title="1" d="M13094.1261,-3226.5461L13094.135,-3226.5367"/>
<path content="1,九州産交バス（株）,湯山線,1.0,0.0,0.0," xlink:title="1" d="M13094.1261,-3226.5461L13094.2087,-3226.5991L13094.271,-3226.6386L13094.3123,-3226.6652L13094.3289,-3226.6759L13094.3342,-3226.685L13094.3437,-3226.6952L13094.3559,-3226.7002L13094.3768,-3226.7075L13094.439,-3226.7454L13094.4839,-3226.7789L13094.4948,-3226.7818L13094.5115,-3226.7906L13094.518,-3226.7949L13094.5307,-3226.7968L13094.5426,-3226.802L13094.5587,-3226.8032L13094.613,-3226.8196L13094.6315,-3226.8295L13094.6428,-3226.8339L13094.6545,-3226.8353L13094.6741,-3226.8361L13094.7817,-3226.8666L13094.8513,-3226.8864L13094.8683,-3226.8951L13094.8814,-3226.8996L13094.8956,-3226.9015L13094.9166,-3226.9032L13094.9437,-3226.9133L13095.0022,-3226.9278L13095.1015,-3226.9565L13095.2545,-3226.9984"/>
<path content="1,九州産交バス（株）,湯山線,1.0,0.0,0.0," xlink:title="1" d="M13095.2545,-3226.9984L13095.2685,-3226.99"/>
<path content="1,九州産交バス（株）,湯山線,1.0,0.0,0.0," xlink:title="1" d="M13095.2545,-3226.9984L13095.3833,-3227.034L13095.422,-3227.0477L13095.5011,-3227.0685L13095.5075,-3227.073L13095.5317,-3227.0797L13095.5569,-3227.0928L13095.5861,-3227.1072L13095.6076,-3227.1166L13095.6192,-3227.1246L13095.6355,-3227.1399L13095.6458,-3227.1479L13095.6602,-3227.1529L13095.6721,-3227.1531L13095.6904,-3227.1648L13095.7031,-3227.1722"/>
<path content="2,あさぎり町,平山ポッポー館線,3.0,0.0,0.0," xlink:title="2" d="M13090.5204,-3226.5868L13090.5259,-3226.5968"/>
<path content="2,あさぎり町,平山ポッポー館線,3.0,0.0,0.0," xlink:title="2" d="M13090.5204,-3226.5868L13090.5479,-3226.5783L13090.5965,-3226.5653L13090.6305,-3226.5583L13090.66,-3226.5533L13090.7079,-3226.5494L13090.7558,-3226.5459L13090.8178,-3226.5456L13090.8527,-3226.5476L13090.8778,-3226.5582L13090.928,-3226.5852L13090.9896,-3226.6176L13091.1411,-3226.7069L13091.1721,-3226.7226L13091.1925,-3226.7313L13091.216,-3226.7346L13091.2486,-3226.7373L13091.3016,-3226.737L13091.3808,-3226.7386L13091.4025,-3226.741L13091.414,-3226.746L13091.4345,-3226.7634L13091.4699,-3226.7911L13091.477,-3226.8011"/>
<path content="2,あさぎり町,平山ポッポー館線,3.0,0.0,0.0," xlink:title="2" d="M13090.5115,-3226.5896L13090.5204,-3226.5868"/>
<path content="2,あさぎり町,平山ポッポー館線,3.0,0.0,0.0," xlink:title="2" d="M13090.5115,-3226.5896L13090.4285,-3226.6143L13090.3111,-3226.649L13090.2827,-3226.6974L13090.2719,-3226.7133L13090.2618,-3226.721L13090.2497,-3226.7245L13090.2351,-3226.7257L13090.2233,-3226.7248L13090.2115,-3226.7201L13090.2014,-3226.7109L13090.1942,-3226.6924"/>
<path content="2,あさぎり町,平山ポッポー館線,3.0,0.0,0.0," xlink:title="2" d="M13090.1942,-3226.6924L13090.1883,-3226.6558L13090.1834,-3226.5969L13090.1848,-3226.5596L13090.1567,-3226.499L13090.1244,-3226.4351L13090.1174,-3226.423L13090.0904,-3226.3853L13090.074,-3226.357L13090.0609,-3226.3201L13090.0515,-3226.2709L13090.0397,-3226.2058L13090.0286,-3226.156L13090.0216,-3226.1377L13090.0076,-3226.1162L13089.968,-3226.0795L13089.8869,-3226.0125L13089.8392,-3225.977L13089.8242,-3225.9607L13089.8096,-3225.9551L13089.7865,-3225.9388L13089.7373,-3225.8985L13089.7261,-3225.8861L13089.7087,-3225.8676L13089.6977,-3225.8552L13089.6695,-3225.8162L13089.6502,-3225.7873L13089.6349,-3225.7687L13089.621,-3225.7569L13089.5978,-3225.7469L13089.5422,-3225.7307L13089.5166,-3225.7227L13089.5013,-3225.7154L13089.4895,-3225.7053L13089.4808,-3225.6927L13089.4763,-3225.6735L13089.4749,-3225.644L13089.4735,-3225.6137L13089.4694,-3225.5943L13089.4665,-3225.5859"/>
<path content="2,あさぎり町,平山ポッポー館線,3.0,0.0,0.0," xlink:title="2" d="M13090.1942,-3226.6924L13090.1483,-3226.6959L13090.0838,-3226.7027L13090.0577,-3226.7059L13090.0442,-3226.7098L13090.0327,-3226.7181"/>
<path content="2,あさぎり町,平山ポッポー館線,3.0,0.0,0.0," xlink:title="2" d="M13089.0322,-3229.8494L13089.0514,-3229.8383L13089.0656,-3229.8294L13089.0722,-3229.8223L13089.0774,-3229.8144L13089.0835,-3229.797L13089.0913,-3229.7708L13089.0944,-3229.7531L13089.0952,-3229.7339L13089.0937,-3229.7158L13089.0952,-3229.7026L13089.1028,-3229.6888L13089.1181,-3229.6732L13089.1299,-3229.6602L13089.1392,-3229.6485L13089.1462,-3229.6346L13089.1542,-3229.6128L13089.1618,-3229.5981L13089.1753,-3229.5804L13089.2017,-3229.545L13089.2245,-3229.5093L13089.2376,-3229.4856L13089.2602,-3229.4342L13089.2757,-3229.4024L13089.2944,-3229.3587L13089.3141,-3229.311L13089.3255,-3229.2842L13089.3293,-3229.2736L13089.3315,-3229.2591L13089.332,-3229.2487L13089.3264,-3229.2303L13089.3165,-3229.204L13089.3141,-3229.1908L13089.3142,-3229.1778L13089.3166,-3229.1598L13089.3177,-3229.1415L13089.3167,-3229.113L13089.3148,-3229.1017L13089.316,-3229.0914L13089.3216,-3229.0788L13089.3405,-3229.0423L13089.3617,-3229.0042L13089.377,-3228.985L13089.386,-3228.9762L13089.3975,-3228.9711L13089.4208,-3228.9547L13089.443,-3228.9402L13089.4534,-3228.9299L13089.4682,-3228.9092L13089.4818,-3228.8813L13089.4961,-3228.8442L13089.5152,-3228.7873L13089.536,-3228.7221L13089.5551,-3228.6393L13089.562,-3228.6125L13089.5665,-3228.6037L13089.577,-3228.5883L13089.6332,-3228.5297L13089.6361,-3228.5051L13089.6397,-3228.4936L13089.6516,-3228.4766L13089.6634,-3228.4598L13089.6651,-3228.4525L13089.6686,-3228.4354L13089.6703,-3228.428L13089.6735,-3228.4209L13089.6908,-3228.3965L13089.7356,-3228.3343L13089.788,-3228.2562L13089.7953,-3228.2432L13089.8002,-3228.2317L13089.8019,-3228.217L13089.8022,-3228.1931L13089.7943,-3228.1692L13089.7769,-3228.1109L13089.7737,-3228.0997L13089.772,-3228.0779L13089.7747,-3228.0453L13089.7781,-3228.0249L13089.7829,-3228.0106L13089.7931,-3227.9939L13089.8198,-3227.9572L13089.8395,-3227.9339L13089.8609,-3227.9128L13089.8838,-3227.896L13089.9206,-3227.876L13089.947,-3227.8618L13089.9893,-3227.843L13090.0786,-3227.8032L13090.1115,-3227.7905L13090.1414,-3227.7796L13090.1567,-3227.7722L13090.173,-3227.7631L13090.1876,-3227.7504L13090.2084,-3227.7316L13090.2377,-3227.7055L13090.2528,-3227.6912L13090.2782,-3227.6712L13090.3139,-3227.6429L13090.3304,-3227.6347L13090.3514,-3227.6172L13090.4177,-3227.5771L13090.4299,-3227.5692L13090.4726,-3227.5359L13090.5118,-3227.5037L13090.5722,-3227.4507L13090.593,-3227.4286L13090.6046,-3227.4152L13090.6669,-3227.3577L13090.7003,-3227.2811L13090.7579,-3227.1532L13090.8242,-3227.008L13090.828,-3226.9954L13090.8263,-3226.988L13090.8211,-3226.9786L13090.8089,-3226.9665L13090.7867,-3226.9511L13090.7775,-3226.9433L13090.7699,-3226.9356L13090.7634,-3226.9267L13090.7435,-3226.8901L13090.7246,-3226.8551L13090.71,-3226.8349L13090.6998,-3226.8218L13090.6932,-3226.8144L13090.6828,-3226.8066L13090.6585,-3226.7929L13090.6474,-3226.7844L13090.6355,-3226.7752L13090.6217,-3226.7553L13090.5885,-3226.7059L13090.5732,-3226.6874L13090.5441,-3226.6479L13090.5115,-3226.5896"/>
<path content="2,あさぎり町,平山湯の原ヘルシーランド線,0.2,1.0,0.0," xlink:title="2" d="M13089.4665,-3225.5859L13089.4694,-3225.5943L13089.4735,-3225.6137L13089.4749,-3225.644L13089.4763,-3225.6735L13089.4808,-3225.6927L13089.4895,-3225.7053L13089.5013,-3225.7154L13089.5166,-3225.7227L13089.5422,-3225.7307L13089.5978,-3225.7469L13089.621,-3225.7569L13089.6349,-3225.7687L13089.6502,-3225.7873L13089.6695,-3225.8162L13089.6977,-3225.8552"/>
<path content="2,あさぎり町,平山湯の原ヘルシーランド線,0.2,1.0,0.0," xlink:title="2" d="M13089.6977,-3225.8552L13089.7087,-3225.8676L13089.7261,-3225.8861L13089.7373,-3225.8985L13089.7865,-3225.9388L13089.8096,-3225.9551L13089.8242,-3225.9607L13089.8392,-3225.977L13089.8869,-3226.0125L13089.968,-3226.0795L13090.0076,-3226.1162L13090.0216,-3226.1377L13090.0286,-3226.156L13090.0397,-3226.2058L13090.0515,-3226.2709L13090.0609,-3226.3201L13090.074,-3226.357L13090.0904,-3226.3853L13090.1174,-3226.423L13090.1244,-3226.4351L13090.1567,-3226.499L13090.1848,-3226.5596L13090.1834,-3226.5969L13090.1883,-3226.6558L13090.1942,-3226.6924"/>
<path content="2,あさぎり町,平山湯の原ヘルシーランド線,0.2,1.0,0.0," xlink:title="2" d="M13090.1942,-3226.6924L13090.1483,-3226.6959L13090.0838,-3226.7027L13090.0577,-3226.7059L13090.0442,-3226.7098L13090.0327,-3226.7181L13090.0257,-3226.7217L13090.0117,-3226.7088L13089.9961,-3226.6948L13089.9748,-3226.6811L13089.9504,-3226.6613L13089.8933,-3226.6152L13089.8245,-3226.5614L13089.7395,-3226.4938L13089.6933,-3226.4562L13089.6502,-3226.4213L13089.6051,-3226.3853L13089.5815,-3226.3662L13089.5871,-3226.353L13089.595,-3226.3388L13089.5993,-3226.3214L13089.6009,-3226.3013L13089.5982,-3226.2854L13089.5947,-3226.2726L13089.5865,-3226.2541L13089.5818,-3226.2403L13089.5787,-3226.229L13089.5772,-3226.2126L13089.5799,-3226.1981L13089.5849,-3226.1849L13089.5935,-3226.171L13089.6071,-3226.1552L13089.6129,-3226.1476L13089.6152,-3226.1407L13089.6152,-3226.1324L13089.6129,-3226.1222L13089.6086,-3226.1136L13089.6028,-3226.1077L13089.5943,-3226.1047L13089.5884,-3226.0863L13089.5865,-3226.079L13089.5877,-3226.0414L13089.5923,-3225.9966L13089.5982,-3225.9534L13089.6044,-3225.9336L13089.6117,-3225.9224L13089.6207,-3225.9112L13089.6327,-3225.9016L13089.6677,-3225.8782L13089.6977,-3225.8552"/>
<path content="2,あさぎり町,平山湯の原ヘルシーランド線,0.2,1.0,0.0," xlink:title="2" d="M13090.1942,-3226.6924L13090.2014,-3226.7109L13090.2115,-3226.7201L13090.2233,-3226.7248L13090.2351,-3226.7257L13090.2497,-3226.7245L13090.2618,-3226.721L13090.2719,-3226.7133L13090.2827,-3226.6974L13090.3111,-3226.649L13090.4285,-3226.6143L13090.5115,-3226.5896L13090.5441,-3226.6479L13090.5732,-3226.6874L13090.5885,-3226.7059L13090.6217,-3226.7553L13090.6355,-3226.7752L13090.6474,-3226.7844L13090.6585,-3226.7929L13090.6828,-3226.8066L13090.6932,-3226.8144L13090.6998,-3226.8218L13090.71,-3226.8349L13090.7246,-3226.8551L13090.7435,-3226.8901L13090.7634,-3226.9267L13090.7699,-3226.9356L13090.7775,-3226.9433L13090.7867,-3226.9511L13090.8089,-3226.9665L13090.8211,-3226.9786L13090.8263,-3226.988L13090.828,-3226.9954L13090.8242,-3227.008L13090.7579,-3227.1532L13090.7003,-3227.2811L13090.6669,-3227.3577L13090.7008,-3227.4211L13090.7186,-3227.4824L13090.721,-3227.5177L13090.7342,-3227.5513L13090.7528,-3227.6681L13090.6705,-3227.6249L13090.6456,-3227.6123L13090.6239,-3227.6051L13090.601,-3227.6011L13090.5656,-3227.5998L13090.507,-3227.5991L13090.4709,-3227.5962L13090.4398,-3227.5879L13090.4177,-3227.5771L13090.3514,-3227.6172L13090.3304,-3227.6347L13090.3139,-3227.6429L13090.2782,-3227.6712L13090.2528,-3227.6912L13090.2377,-3227.7055L13090.2084,-3227.7316L13090.1876,-3227.7504L13090.173,-3227.7631L13090.1567,-3227.7722L13090.1414,-3227.7796L13090.1115,-3227.7905L13090.0786,-3227.8032L13089.9893,-3227.843L13089.947,-3227.8618L13089.9206,-3227.876L13089.8838,-3227.896L13089.8609,-3227.9128L13089.8395,-3227.9339L13089.8198,-3227.9572L13089.7931,-3227.9939L13089.7829,-3228.0106L13089.7781,-3228.0249L13089.7747,-3228.0453L13089.772,-3228.0779L13089.7737,-3228.0997L13089.7769,-3228.1109L13089.7943,-3228.1692L13089.8022,-3228.1931L13089.8019,-3228.217L13089.8002,-3228.2317L13089.7953,-3228.2432L13089.788,-3228.2562L13089.7356,-3228.3343L13089.6908,-3228.3965L13089.6735,-3228.4209L13089.6703,-3228.428L13089.6686,-3228.4354L13089.6651,-3228.4525L13089.6634,-3228.4598L13089.6516,-3228.4766L13089.6397,-3228.4936L13089.6361,-3228.5051L13089.6332,-3228.5297L13089.577,-3228.5883L13089.5665,-3228.6037L13089.562,-3228.6125L13089.5551,-3228.6393L13089.536,-3228.7221L13089.5152,-3228.7873L13089.4961,-3228.8442L13089.4818,-3228.8813L13089.4682,-3228.9092L13089.4534,-3228.9299L13089.443,-3228.9402L13089.4208,-3228.9547L13089.3975,-3228.9711L13089.386,-3228.9762L13089.377,-3228.985L13089.3617,-3229.0042L13089.3405,-3229.0423L13089.3216,-3229.0788L13089.316,-3229.0914L13089.3148,-3229.1017L13089.3167,-3229.113L13089.3177,-3229.1415L13089.3166,-3229.1598L13089.3142,-3229.1778L13089.3141,-3229.1908L13089.3165,-3229.204L13089.3264,-3229.2303L13089.332,-3229.2487L13089.3315,-3229.2591L13089.3293,-3229.2736L13089.3255,-3229.2842L13089.3141,-3229.311L13089.2944,-3229.3587L13089.2757,-3229.4024L13089.2602,-3229.4342L13089.2376,-3229.4856L13089.2245,-3229.5093L13089.2017,-3229.545L13089.1753,-3229.5804L13089.1618,-3229.5981L13089.1542,-3229.6128L13089.1462,-3229.6346L13089.1392,-3229.6485L13089.1299,-3229.6602L13089.1181,-3229.6732L13089.1028,-3229.6888L13089.0952,-3229.7026L13089.0937,-3229.7158L13089.0952,-3229.7339L13089.0944,-3229.7531L13089.0913,-3229.7708L13089.0835,-3229.797L13089.0774,-3229.8144L13089.0722,-3229.8223L13089.0656,-3229.8294L13089.0514,-3229.8383L13089.0322,-3229.8494"/>
<path content="2,あさぎり町,柳の内加茂庄屋二子役場本庁線,0.2,0.0,1.0," xlink:title="2" d="M13087.7311,-3226.2841L13087.7644,-3226.2695L13087.7912,-3226.2518L13087.8199,-3226.2311L13087.8458,-3226.2195L13087.8721,-3226.2075L13087.8985,-3226.197L13087.9184,-3226.1871L13087.9277,-3226.1788L13087.9461,-3226.1615L13087.9641,-3226.1479L13087.9758,-3226.1409L13087.9923,-3226.1376L13088.0166,-3226.1326L13088.055,-3226.1301L13088.0739,-3226.1314L13088.0997,-3226.1354L13088.1128,-3226.1373L13088.1223,-3226.1383L13088.1305,-3226.137L13088.1456,-3226.1317L13088.1675,-3226.1201L13088.1813,-3226.1134L13088.1954,-3226.1097L13088.2149,-3226.1097L13088.2229,-3226.1092L13088.2299,-3226.1077L13088.2384,-3226.1016L13088.2506,-3226.091L13088.2586,-3226.0865L13088.2661,-3226.0855L13088.2761,-3226.0857L13088.2853,-3226.0881L13088.3077,-3226.097L13088.3393,-3226.1139L13088.3611,-3226.1237L13088.3898,-3226.1312L13088.417,-3226.1402L13088.4311,-3226.1506L13088.4578,-3226.1691L13088.4899,-3226.1955L13088.5089,-3226.2079L13088.5288,-3226.2195L13088.5521,-3226.229L13088.5793,-3226.2376L13088.6075,-3226.2434L13088.6367,-3226.2463L13088.6823,-3226.2508L13088.7261,-3226.2546L13088.7732,-3226.2583L13088.8009,-3226.2645L13088.8167,-3226.2839L13088.8427,-3226.2905L13088.8685,-3226.2954L13088.8981,-3226.2929L13088.919,-3226.2888L13088.937,-3226.2826L13088.955,-3226.2789L13088.9778,-3226.2711L13088.9846,-3226.2649L13089.0016,-3226.2467L13089.0298,-3226.2034L13089.0424,-3226.1852L13089.0507,-3226.1766L13089.0575,-3226.1737L13089.0667,-3226.1745L13089.0803,-3226.1803L13089.094,-3226.1856L13089.1042,-3226.1885L13089.1134,-3226.1889L13089.1304,-3226.1844L13089.1503,-3226.1794L13089.1644,-3226.1761L13089.2123,-3226.1721L13089.2322,-3226.1571L13089.2419,-3226.1484L13089.2509,-3226.1426L13089.2563,-3226.1395L13089.2684,-3226.137L13089.2888,-3226.1331L13089.3343,-3226.1265L13089.3785,-3226.1225L13089.4091,-3226.1188L13089.4278,-3226.115L13089.4378,-3226.1073L13089.438,-3226.0908L13089.4366,-3226.0832L13089.4334,-3226.0758L13089.4276,-3226.0619L13089.4256,-3226.0541L13089.4246,-3226.0442L13089.4256,-3226.0153L13089.4278,-3226.0052L13089.4327,-3225.9891L13089.4407,-3225.9714L13089.4528,-3225.9458L13089.4601,-3225.926L13089.465,-3225.9123L13089.4669,-3225.8971L13089.4679,-3225.8744L13089.464,-3225.8566L13089.4582,-3225.8443L13089.448,-3225.8331L13089.4314,-3225.8187L13089.4052,-3225.8038L13089.3916,-3225.7927L13089.3814,-3225.7811L13089.3726,-3225.7663L13089.3673,-3225.7448L13089.362,-3225.6986L13089.3513,-3225.6387L13089.343,-3225.6103L13089.3384,-3225.5947L13089.3336,-3225.5859"/>
<path content="3,多良木町,中原線,0.4,0.0,0.0," xlink:title="3" d="M13095.7031,-3226.3591L13095.6889,-3226.3713L13095.6071,-3226.4318L13095.5653,-3226.4679L13095.4652,-3226.5275L13095.3983,-3226.5713L13095.3477,-3226.6014L13095.2725,-3226.6519L13095.2342,-3226.6797L13095.2125,-3226.6964L13095.1957,-3226.7062L13095.1514,-3226.7244L13095.0756,-3226.7571L13095.0599,-3226.7653L13095.0473,-3226.7727L13095.13,-3226.772L13095.1762,-3226.7748L13095.2151,-3226.7856L13095.3124,-3226.8289L13095.4097,-3226.8699L13095.4402,-3226.892L13095.4595,-3226.9084L13095.4187,-3226.9353L13095.3912,-3226.9517L13095.353,-3226.9647L13095.2685,-3226.99L13095.2545,-3226.9984"/>
<path content="3,多良木町,中原線,0.4,0.0,0.0," xlink:title="3" d="M13094.613,-3226.8196L13094.5587,-3226.8032L13094.5426,-3226.802L13094.5307,-3226.7968L13094.518,-3226.7949L13094.5115,-3226.7906L13094.4948,-3226.7818L13094.4839,-3226.7789L13094.439,-3226.7454L13094.3768,-3226.7075L13094.3559,-3226.7002L13094.3437,-3226.6952L13094.3342,-3226.685L13094.3289,-3226.6759L13094.3123,-3226.6652L13094.271,-3226.6386L13094.2296,-3226.7246L13094.1856,-3226.8172L13094.1258,-3226.7834L13094.0928,-3226.7687L13094.0619,-3226.7589L13094.0294,-3226.7531L13094.0084,-3226.7478L13093.9796,-3226.7326L13093.9187,-3226.6926L13093.8218,-3226.6272L13093.7343,-3226.5633L13093.6359,-3226.4983L13093.5438,-3226.4386L13093.4877,-3226.4037L13093.4285,-3226.3663L13093.379,-3226.3363L13093.3421,-3226.3215L13093.3045,-3226.292L13093.2261,-3226.2431L13093.0985,-3226.1602L13093.2783,-3226.004L13093.3589,-3226.0578L13093.4456,-3226.1137L13093.4505,-3226.1167L13093.4973,-3226.072L13093.5139,-3226.0592L13093.5499,-3226.0473L13093.7412,-3225.9886L13093.9414,-3225.9267L13094.028,-3225.9015L13094.0321,-3225.8938L13094.0448,-3225.9139L13094.0755,-3225.9459L13094.1066,-3225.9792L13094.1268,-3225.9992L13094.1471,-3226.0231L13094.1579,-3226.0395L13094.1751,-3226.0875L13094.1825,-3226.106L13094.2063,-3226.1815L13094.2215,-3226.2256L13094.2388,-3226.2625L13094.2572,-3226.2879L13094.2829,-3226.3146L13094.329,-3226.356L13094.3657,-3226.384L13094.4123,-3226.412L13094.4517,-3226.4361L13094.5078,-3226.4654L13094.5701,-3226.4935L13094.6414,-3226.5259L13094.6797,-3226.5455L13094.6907,-3226.5602L13094.696,-3226.5865L13094.7064,-3226.6532L13094.7152,-3226.6886L13094.7257,-3226.7255L13094.737,-3226.7533L13094.7509,-3226.7776L13094.7614,-3226.7914L13094.6344,-3226.8117L13094.613,-3226.8196"/>
<path content="3,多良木町,中原線,0.4,0.0,0.0," xlink:title="3" d="M13095.2545,-3226.9984L13095.1015,-3226.9565L13095.0022,-3226.9278L13094.9437,-3226.9133L13094.9166,-3226.9032L13094.8956,-3226.9015L13094.8814,-3226.8996L13094.8683,-3226.8951L13094.8513,-3226.8864L13094.7817,-3226.8666L13094.6741,-3226.8361L13094.6545,-3226.8353L13094.6428,-3226.8339L13094.6315,-3226.8295L13094.613,-3226.8196"/>
<path content="3,多良木町,中原線,0.4,0.0,0.0," xlink:title="3" d="M13095.2545,-3226.9984L13095.3833,-3227.034L13095.422,-3227.0477L13095.5011,-3227.0685L13095.5075,-3227.073L13095.5317,-3227.0797L13095.5569,-3227.0928L13095.5861,-3227.1072L13095.6076,-3227.1166L13095.6192,-3227.1246L13095.6355,-3227.1399L13095.6458,-3227.1479L13095.6602,-3227.1529L13095.6721,-3227.1531L13095.6904,-3227.1648L13095.7031,-3227.1722"/>
<path content="3,多良木町,奥野線,0.4,0.0,0.0," xlink:title="3" d="M13094.6009,-3225.6889L13094.597,-3225.6839"/>
<path content="3,多良木町,奥野線,0.4,0.0,0.0," xlink:title="3" d="M13094.6009,-3225.6889L13094.5349,-3225.7292L13094.4998,-3225.7477L13094.4676,-3225.7646L13094.4507,-3225.7724L13094.4393,-3225.7768L13094.3843,-3225.7937L13094.3279,-3225.8084L13094.2687,-3225.8264L13094.2139,-3225.8407L13094.16,-3225.8562L13094.0821,-3225.8794L13094.0321,-3225.8938"/>
<path content="3,多良木町,奥野線,0.4,0.0,0.0," xlink:title="3" d="M13094.0321,-3225.8938L13094.028,-3225.9015"/>
<path content="3,多良木町,奥野線,0.4,0.0,0.0," xlink:title="3" d="M13094.0321,-3225.8938L13094.0285,-3225.875L13094.0265,-3225.8536L13094.0177,-3225.7964L13094.0124,-3225.7401L13094.0064,-3225.7039L13093.9965,-3225.6249L13093.9921,-3225.5859M13092.0179,-3225.5859L13092.0226,-3225.5884L13092.0517,-3225.6057L13092.069,-3225.6204L13092.0761,-3225.634L13092.0808,-3225.6493L13092.0908,-3225.6885L13092.0981,-3225.7228L13092.1083,-3225.7621L13092.1094,-3225.7717L13092.1083,-3225.7804L13092.1026,-3225.7893L13092.0926,-3225.8073L13092.0926,-3225.818L13092.0944,-3225.8313L13092.0999,-3225.8803L13092.1023,-3225.8905L13092.1057,-3225.8987L13092.1109,-3225.9036L13092.1302,-3225.9187L13092.2136,-3225.9098L13092.2655,-3225.9055L13092.2771,-3225.911L13092.2916,-3225.915L13092.3053,-3225.915L13092.3202,-3225.9121L13092.3498,-3225.9067L13092.3797,-3225.9059L13092.4401,-3225.911L13092.5815,-3225.9192L13092.5803,-3225.9292L13092.5763,-3225.9351L13092.5656,-3225.9436L13092.4921,-3225.9855L13092.5106,-3226.0037L13092.5208,-3226.0168L13092.5258,-3226.0273L13092.5297,-3226.0427L13092.5336,-3226.0604L13092.5438,-3226.0678L13092.5606,-3226.0776L13092.5834,-3226.0932L13092.5944,-3226.0978L13092.6141,-3226.1014L13092.6701,-3226.1081L13092.7632,-3226.1174L13092.8019,-3226.121L13092.8145,-3226.1205L13092.8247,-3226.115L13092.8376,-3226.1036L13092.8559,-3226.0945L13092.8701,-3226.0927L13092.8937,-3226.0943L13092.9133,-3226.0983L13092.9534,-3226.1125L13092.9869,-3226.1247L13093.026,-3226.1276L13093.0456,-3226.1312L13093.0703,-3226.1448L13093.0985,-3226.1602L13093.2261,-3226.2431L13093.3045,-3226.292L13093.3421,-3226.3215L13093.379,-3226.3363L13093.4285,-3226.3663L13093.4877,-3226.4037L13093.5438,-3226.4386L13093.6359,-3226.4983L13093.6662,-3226.4683L13093.716,-3226.4149L13093.7948,-3226.3332L13093.7849,-3226.3267L13093.8425,-3226.2658L13093.8897,-3226.2217L13093.9036,-3226.2209L13093.9209,-3226.2151L13093.9424,-3226.204L13093.9603,-3226.1915L13093.9686,-3226.1653L13093.9769,-3226.1161L13094.017,-3226.1112L13094.039,-3226.1045L13094.0726,-3226.0983L13094.0846,-3226.0985L13094.0941,-3226.1025L13094.1085,-3226.1154L13094.1572,-3226.0958L13094.1751,-3226.0875L13094.3071,-3226.0271L13094.3792,-3225.9928L13094.4324,-3225.973L13094.4614,-3225.9603L13094.4861,-3225.9488L13094.5259,-3225.9288L13094.5697,-3225.9103L13094.6001,-3225.8978L13094.6278,-3225.8836L13094.6645,-3225.8591L13094.7373,-3225.8125L13094.7251,-3225.7991L13094.7111,-3225.7853L13094.6907,-3225.7605L13094.719,-3225.7368L13094.74,-3225.7243L13094.7602,-3225.7152L13094.7853,-3225.7099L13094.8162,-3225.7034L13094.8388,-3225.7001L13094.8673,-3225.6932L13094.8873,-3225.6858L13094.9085,-3225.676L13094.9274,-3225.6691L13094.9473,-3225.6656L13094.9747,-3225.6635L13094.9967,-3225.6555L13095.0088,-3225.6439L13095.0324,-3225.6283L13095.0738,-3225.6065L13095.1127,-3225.5859M13094.7321,-3225.5859L13094.7304,-3225.6151L13094.6261,-3225.6735L13094.6009,-3225.6889"/>
<path content="3,多良木町,宮ヶ野線,0.4,0.0,0.0," xlink:title="3" d="M13092.3464,-3227.3543L13092.3716,-3227.355L13092.3977,-3227.3503L13092.4193,-3227.3416"/>
<path content="3,多良木町,宮ヶ野線,0.4,0.0,0.0," xlink:title="3" d="M13092.3464,-3227.3543L13092.275,-3227.3292L13092.1653,-3227.2829L13092.0384,-3227.2308L13091.9319,-3227.1872L13091.8784,-3227.1636L13091.8464,-3227.1422L13091.8192,-3227.1137L13091.7647,-3227.0316L13091.7789,-3227.021L13091.7931,-3227.0101L13091.7978,-3227.0005L13091.7988,-3226.9582L13091.8078,-3226.9233L13091.8169,-3226.9061L13091.8303,-3226.8995L13091.8568,-3226.8952L13091.8849,-3226.8906L13091.9129,-3226.8839L13091.9313,-3226.8739L13091.9397,-3226.8616L13091.9483,-3226.8343L13091.9549,-3226.8116L13091.9549,-3226.7949L13091.9515,-3226.7822L13091.9462,-3226.7677L13091.941,-3226.7522L13091.9368,-3226.7326L13091.9368,-3226.7179L13091.9436,-3226.7072L13091.9717,-3226.6836L13092.0212,-3226.6378L13092.074,-3226.5877L13092.0792,-3226.5777L13092.1429,-3226.6149L13092.1503,-3226.6186L13092.1652,-3226.6209L13092.1833,-3226.6235L13092.2011,-3226.6295L13092.2177,-3226.6422L13092.2428,-3226.6671L13092.2536,-3226.6752L13092.2777,-3226.6838L13092.3472,-3226.7065L13092.359,-3226.7072L13092.3711,-3226.7032L13092.4251,-3226.6674L13092.476,-3226.63L13092.5709,-3226.5652L13092.6228,-3226.5298L13092.6631,-3226.5461L13092.7388,-3226.5747L13092.9396,-3226.6551L13093.1667,-3226.7441L13093.204,-3226.7619L13093.2465,-3226.7851L13093.2685,-3226.7975L13093.3042,-3226.8064L13093.3346,-3226.8073L13093.3188,-3226.8226L13093.303,-3226.8406L13093.2903,-3226.8543L13093.2772,-3226.8732L13093.2643,-3226.8965L13093.2475,-3226.9298L13093.2293,-3226.9696L13093.2221,-3226.977L13093.2088,-3226.9886L13093.1746,-3227.0244L13093.1438,-3227.0554L13093.1214,-3227.0794L13093.1118,-3227.0913L13093.1027,-3227.1066L13093.0965,-3227.1208L13093.0925,-3227.1332L13093.0709,-3227.1913L13093.0382,-3227.278L13092.9616,-3227.2687L13092.8478,-3227.26L13092.7967,-3227.2519L13092.7228,-3227.2513L13092.7406,-3227.2613L13092.7729,-3227.2713L13092.8096,-3227.2809L13092.808,-3227.2987L13092.8001,-3227.3601L13092.7949,-3227.4141L13092.786,-3227.4652L13092.7781,-3227.5273L13092.7697,-3227.5894L13092.7701,-3227.6178L13092.7743,-3227.641L13092.7792,-3227.6565L13092.7788,-3227.7087L13092.7731,-3227.7774L13092.7701,-3227.8045L13092.767,-3227.8139L13092.7553,-3227.8322L13092.7321,-3227.8664L13092.7199,-3227.8919L13092.7165,-3227.9055L13092.7142,-3227.978L13092.7089,-3228.1099L13092.7036,-3228.205L13092.6986,-3228.2386L13092.6933,-3228.2515L13092.6808,-3228.2724L13092.6424,-3228.3353L13092.6352,-3228.3556L13092.6317,-3228.3705L13092.6291,-3228.396L13092.6253,-3228.4821L13092.6184,-3228.5898L13092.6142,-3228.6404L13092.5918,-3228.6843L13092.5835,-3228.7004L13092.5785,-3228.722L13092.5702,-3228.7584L13092.5591,-3228.81L13092.5493,-3228.8574L13092.5432,-3228.8761L13092.5325,-3228.8974L13092.5097,-3228.9435L13092.482,-3228.9922L13092.452,-3229.0519L13092.4352,-3229.0922L13092.4189,-3229.1435L13092.4071,-3229.1803L13092.3889,-3229.2367L13092.3816,-3229.2744L13092.3759,-3229.3034L13092.3702,-3229.3434L13092.3694,-3229.404L13092.3661,-3229.5024L13092.3619,-3229.5121L13092.341,-3229.5305L13092.3136,-3229.5605L13092.3056,-3229.5805L13092.3011,-3229.6011L13092.295,-3229.6472L13092.2912,-3229.6556L13092.2732,-3229.6746L13092.2577,-3229.6904L13092.247,-3229.7061L13092.2405,-3229.7224L13092.2297,-3229.758L13092.2234,-3229.7733L13092.2139,-3229.7883L13092.1978,-3229.8056L13092.1729,-3229.8343L13092.1529,-3229.8665L13092.1423,-3229.8793L13092.1242,-3229.8928L13092.0984,-3229.9157L13092.0853,-3229.931L13092.0726,-3229.9525L13092.0608,-3229.9813L13092.0467,-3230.0092L13092.0311,-3230.0349L13092.0197,-3230.0492L13092.0038,-3230.0665L13091.9722,-3230.0989L13091.9412,-3230.1253L13091.9198,-3230.1484L13091.9048,-3230.1705L13091.8928,-3230.1914L13091.8814,-3230.2171L13091.87,-3230.2375L13091.8607,-3230.2471L13091.846,-3230.254L13091.808,-3230.2703L13091.774,-3230.2866L13091.7499,-3230.3019L13091.7288,-3230.318L13091.6866,-3230.3548L13091.6655,-3230.3757L13091.6467,-3230.397L13091.6362,-3230.4107L13091.6286,-3230.4297L13091.6243,-3230.4465L13091.6165,-3230.4791L13091.6087,-3230.5173L13091.6017,-3230.546L13091.5956,-3230.5584L13091.5834,-3230.571L13091.5659,-3230.591L13091.5595,-3230.6049L13091.5524,-3230.6216L13091.5395,-3230.6505L13091.5283,-3230.675L13091.5175,-3230.7043"/>
<path content="3,多良木町,宮ヶ野線,0.4,0.0,0.0," xlink:title="3" d="M13091.5175,-3230.7043L13091.4969,-3230.7133L13091.4759,-3230.7208L13091.4544,-3230.74L13091.4434,-3230.7524L13091.4292,-3230.7631L13091.4014,-3230.7769L13091.3631,-3230.7961L13091.3468,-3230.8045L13091.3369,-3230.7969L13091.3253,-3230.7934L13091.3154,-3230.7947L13091.3054,-3230.8018L13091.2954,-3230.8241L13091.2823,-3230.8508L13091.2677,-3230.8673L13091.2372,-3230.8935L13091.2126,-3230.9091L13091.1885,-3230.9122L13091.1675,-3230.91L13091.1491,-3230.8997L13091.1161,-3230.8744L13091.0993,-3230.8601L13091.0851,-3230.8535L13091.072,-3230.849L13091.0531,-3230.8366L13091.0426,-3230.821L13091.04,-3230.8063L13091.04,-3230.7529L13091.0379,-3230.7422L13091.0253,-3230.7106L13091.0017,-3230.6545L13090.9844,-3230.6158L13090.9739,-3230.6047L13090.9655,-3230.6002L13090.9577,-3230.602L13090.9446,-3230.6118L13090.9293,-3230.6278L13090.9141,-3230.6421L13090.9057,-3230.6465L13090.8869,-3230.6461L13090.8533,-3230.6381L13090.8391,-3230.6327L13090.8318,-3230.6229L13090.8318,-3230.6051L13090.8376,-3230.5953L13090.8533,-3230.5878L13090.8596,-3230.5811L13090.8543,-3230.5557L13090.8481,-3230.5424L13090.8355,-3230.5299L13090.7699,-3230.5054L13090.7463,-3230.5045L13090.73,-3230.5094L13090.7148,-3230.5201L13090.698,-3230.5455L13090.6723,-3230.5896L13090.6629,-3230.5927L13090.6451,-3230.5918L13090.622,-3230.582L13090.632,-3230.5724L13090.6421,-3230.5281L13090.6649,-3230.4734L13090.6706,-3230.4563L13090.6725,-3230.4356L13090.6738,-3230.4227L13090.6785,-3230.4095L13090.6963,-3230.3855L13090.7047,-3230.3632L13090.7058,-3230.337L13090.7113,-3230.3243L13090.7289,-3230.2996L13090.7661,-3230.2551L13090.7766,-3230.2386L13090.7763,-3230.2233L13090.769,-3230.2068L13090.7692,-3230.199L13090.7834,-3230.1797L13090.7816,-3230.1677L13090.7774,-3230.1592L13090.7721,-3230.1503L13090.7729,-3230.1345L13090.7862,-3230.0982L13090.7976,-3230.0753L13090.8008,-3230.0586L13090.7991,-3230.0348L13090.7934,-3230.0117L13090.7923,-3229.9721L13090.785,-3229.9498L13090.7748,-3229.9371L13090.7443,-3229.914L13090.6963,-3229.8839L13090.6709,-3229.8684L13090.6588,-3229.8508L13090.6407,-3229.8201L13090.6355,-3229.8132L13090.619,-3229.7992L13090.6087,-3229.7874L13090.5977,-3229.7615L13090.5872,-3229.7273L13090.5815,-3229.7017L13090.576,-3229.669L13090.5665,-3229.6311L13090.5542,-3229.5724L13090.5411,-3229.5145L13090.5335,-3229.4667L13090.5319,-3229.428L13090.5319,-3229.3463L13090.5324,-3229.3129L13090.5306,-3229.2974L13090.5246,-3229.2711L13090.5101,-3229.2462L13090.5002,-3229.2259L13090.4926,-3229.2026L13090.4886,-3229.1812L13090.491,-3229.1679L13090.5017,-3229.1547L13090.5309,-3229.1285L13090.5597,-3229.1002L13090.5815,-3229.0722L13090.5972,-3229.0521L13090.614,-3229.0375L13090.6415,-3229.0199L13090.674,-3229.0023L13090.6992,-3228.9947L13090.7346,-3228.9861L13090.7511,-3228.9865L13090.7695,-3228.9934L13090.8046,-3229.009L13090.8385,-3229.0232L13090.876,-3229.0306L13090.925,-3229.045L13090.9523,-3229.0519L13090.9722,-3229.051L13090.9927,-3229.045L13091.016,-3229.0357L13091.0457,-3229.0288L13091.0756,-3229.0266L13091.0978,-3229.0243L13091.1146,-3229.0192L13091.1296,-3229.0068L13091.1568,-3228.9709L13091.1915,-3228.9222L13091.2151,-3228.8884L13091.2381,-3228.8648L13091.2578,-3228.8532L13091.2817,-3228.8508L13091.304,-3228.8532L13091.3512,-3228.8657L13091.4417,-3228.895L13091.4666,-3228.9013L13091.5033,-3228.9073L13091.5686,-3228.9175L13091.5875,-3228.9215L13091.6121,-3228.893L13091.6394,-3228.8619L13091.6635,-3228.8394L13091.6842,-3228.8181L13091.6937,-3228.8043L13091.6942,-3228.7911L13091.6937,-3228.7513L13091.7,-3228.7404L13091.7147,-3228.7299L13091.7396,-3228.7144L13091.749,-3228.7048L13091.7577,-3228.6908L13091.775,-3228.6598L13091.7962,-3228.6184L13091.8154,-3228.584L13091.8335,-3228.555L13091.8439,-3228.5357L13091.8474,-3228.5205L13091.8497,-3228.4778L13091.8529,-3228.4627L13091.8573,-3228.4536L13091.8738,-3228.4211L13091.8912,-3228.3966L13091.9058,-3228.3779L13091.9389,-3228.3454L13091.9745,-3228.3134L13091.9814,-3228.3005L13091.9926,-3228.2791L13092.0092,-3228.2571L13092.0396,-3228.2339L13092.0653,-3228.219L13092.1004,-3228.2079L13092.1269,-3228.1999L13092.1371,-3228.1928L13092.1534,-3228.1774L13092.1681,-3228.1589L13092.1723,-3228.1465L13092.1749,-3228.1247L13092.1775,-3228.0962L13092.1828,-3228.0788L13092.1938,-3228.0597L13092.2082,-3228.0399L13092.2392,-3227.9969L13092.262,-3227.9649L13092.2841,-3227.9324L13092.2934,-3227.9119L13092.2982,-3227.8946L13092.3067,-3227.8608L13092.3136,-3227.8421L13092.3218,-3227.8269L13092.3443,-3227.7929L13092.3705,-3227.7513L13092.392,-3227.7215L13092.4204,-3227.6867L13092.4322,-3227.6707L13092.4368,-3227.6538L13092.4362,-3227.6373L13092.4324,-3227.6089L13092.4132,-3227.5452L13092.3953,-3227.5038L13092.3762,-3227.466L13092.3618,-3227.4384L13092.3542,-3227.4068L13092.3464,-3227.3543"/>
<path content="3,多良木町,宮ヶ野線,0.4,0.0,0.0," xlink:title="3" d="M13091.5175,-3230.7043L13091.5084,-3230.729L13091.5023,-3230.7532L13091.5009,-3230.7759L13091.4981,-3230.8362L13091.4917,-3230.8728L13091.487,-3230.8946L13091.4797,-3230.9204L13091.475,-3230.9414L13091.4692,-3230.9921L13091.4671,-3231.0273L13091.4702,-3231.07L13091.4776,-3231.1016L13091.4902,-3231.1376L13091.4902,-3231.1559L13091.4849,-3231.2062L13091.4854,-3231.2418L13091.4949,-3231.2689L13091.5091,-3231.3076L13091.5138,-3231.3334L13091.519,-3231.3958L13091.519,-3231.4505L13091.5132,-3231.4661L13091.4991,-3231.4857L13091.4896,-3231.5039L13091.4896,-3231.5346L13091.4959,-3231.5827L13091.4975,-3231.6499L13091.4975,-3231.6677L13091.4949,-3231.6984L13091.4786,-3231.7491L13091.4597,-3231.7945L13091.4448,-3231.8172L13091.4264,-3231.8341L13091.3934,-3231.8657L13091.3866,-3231.884L13091.3876,-3231.9258L13091.3855,-3231.9494L13091.3829,-3231.9601L13091.3735,-3231.9845L13091.3735,-3232.005L13091.3861,-3232.0455L13091.3861,-3232.0584L13091.3803,-3232.0762L13091.3525,-3232.1167L13091.3404,-3232.1492L13091.3231,-3232.1964L13091.3,-3232.248L13091.2838,-3232.2778L13091.2638,-3232.305L13091.2397,-3232.3352L13091.235,-3232.3477L13091.2361,-3232.3691L13091.2345,-3232.3984L13091.2298,-3232.4158L13091.2067,-3232.4505L13091.1946,-3232.4719L13091.1915,-3232.4888L13091.1957,-3232.5342L13091.202,-3232.5693L13091.2014,-3232.5992L13091.1957,-3232.6138L13091.1668,-3232.637L13091.108,-3232.6865"/>
<path content="3,多良木町,柳野線,0.4,0.0,0.0," xlink:title="3" d="M13093.3421,-3226.3215L13093.379,-3226.3363L13093.4285,-3226.3663L13093.4877,-3226.4037L13093.5438,-3226.4386L13093.6359,-3226.4983L13093.5652,-3226.5729L13093.4916,-3226.6482L13093.4032,-3226.7406L13093.4247,-3226.7708L13093.4546,-3226.8183L13093.4844,-3226.8793L13093.5237,-3226.9565L13093.5805,-3227.0583L13093.5827,-3227.0729L13093.5827,-3227.1254L13093.5685,-3227.2422L13093.5593,-3227.2546L13093.5345,-3227.2723L13093.4971,-3227.2977L13093.4822,-3227.3161L13093.474,-3227.3453L13093.4657,-3227.4544L13093.5121,-3227.4571L13093.6673,-3227.4651L13093.7162,-3227.4702L13093.7377,-3227.4772L13093.7216,-3227.4901L13093.7097,-3227.4928L13093.6853,-3227.4928L13093.658,-3227.494L13093.6199,-3227.4986L13093.5987,-3227.5035L13093.5868,-3227.5108L13093.5793,-3227.5251L13093.576,-3227.5638L13093.5721,-3227.6419L13093.5696,-3227.6983L13093.5732,-3227.716L13093.5793,-3227.7315L13093.5886,-3227.7535L13093.5911,-3227.7879L13093.5908,-3227.8178L13093.5839,-3227.8483L13093.5735,-3227.8724L13093.5523,-3227.909L13093.5351,-3227.9331L13093.5243,-3227.9474L13093.5153,-3227.963L13093.511,-3227.9806L13093.5038,-3227.9953L13093.479,-3228.0413L13093.4718,-3228.0813"/>
<path content="3,多良木町,柳野線,0.4,0.0,0.0," xlink:title="3" d="M13093.4718,-3228.0813L13093.4747,-3228.1157L13093.4837,-3228.1532L13093.4955,-3228.181L13093.5275,-3228.2291L13093.5911,-3228.3099L13093.64,-3228.3852L13093.6828,-3228.4731L13093.705,-3228.5222L13093.7331,-3228.5914L13093.7744,-3228.6947L13093.7999,-3228.7633L13093.8028,-3228.7804L13093.8021,-3228.8051L13093.8064,-3228.8329L13093.8186,-3228.8487L13093.8394,-3228.8664L13093.852,-3228.8819L13093.8646,-3228.9207L13093.8991,-3229.0228L13093.9113,-3229.0628L13093.9102,-3229.082L13093.9034,-3229.1076L13093.8682,-3229.1826L13093.8269,-3229.2835L13093.7726,-3229.411L13093.7435,-3229.4847L13093.7428,-3229.503L13093.7471,-3229.5168L13093.7884,-3229.5723L13093.792,-3229.5918L13093.792,-3229.6076L13093.7794,-3229.643L13093.7377,-3229.7204L13093.6971,-3229.8043L13093.6935,-3229.8232L13093.6943,-3229.8403L13093.7004,-3229.861L13093.727,-3229.9043L13093.7338,-3229.9308L13093.7363,-3229.9519L13093.7352,-3230.0304L13093.7417,-3230.0516L13093.7654,-3230.0943"/>
<path content="3,多良木町,柳野線,0.4,0.0,0.0," xlink:title="3" d="M13093.4718,-3228.0813L13093.438,-3228.0868L13093.4104,-3228.0916L13093.4007,-3228.0974L13093.3956,-3228.1075L13093.3938,-3228.1328L13093.3978,-3228.1462L13093.4028,-3228.1618L13093.4033,-3228.1814L13093.3981,-3228.2023L13093.3907,-3228.2254L13093.3729,-3228.2495L13093.3383,-3228.269L13093.2864,-3228.3032L13093.2334,-3228.3358L13093.171,-3228.3847L13093.1531,-3228.4042L13093.1319,-3228.4295L13093.118,-3228.4488L13093.108,-3228.472L13093.1085,-3228.5319L13093.1049,-3228.5487L13093.0995,-3228.5627L13093.0884,-3228.5837L13093.0672,-3228.613L13093.0589,-3228.6362L13093.051,-3228.671L13093.0392,-3228.721L13093.0323,-3228.7594L13093.0247,-3228.7953L13093.0144,-3228.8185L13093.0025,-3228.8353L13092.9989,-3228.8493L13092.9968,-3228.8883L13092.9813,-3228.9387L13092.9623,-3228.9929L13092.9497,-3229.0304L13092.9468,-3229.0655L13092.9468,-3229.1103L13092.9475,-3229.1569L13092.949,-3229.2109L13092.9447,-3229.2308L13092.9324,-3229.2555L13092.9184,-3229.2762L13092.9061,-3229.2979L13092.9001,-3229.3167L13092.8965,-3229.335L13092.8868,-3229.3924L13092.88,-3229.4225L13092.8731,-3229.4436L13092.8642,-3229.4704L13092.8559,-3229.4823L13092.843,-3229.4921L13092.8225,-3229.4985L13092.7898,-3229.5006L13092.7707,-3229.5055L13092.7413,-3229.5177L13092.6978,-3229.539L13092.6417,-3229.5643L13092.6011,-3229.586L13092.5745,-3229.604L13092.563,-3229.6186L13092.5551,-3229.6317L13092.5551,-3229.6463L13092.5578,-3229.6615L13092.567,-3229.6851L13092.5763,-3229.696L13092.5825,-3229.7074L13092.5914,-3229.7274L13092.6018,-3229.7543L13092.604,-3229.7711L13092.604,-3229.7869L13092.6,-3229.8015L13092.5939,-3229.8192L13092.5939,-3229.8378L13092.5972,-3229.8613L13092.5993,-3229.8738L13092.5977,-3229.8876L13092.5932,-3229.918L13092.5851,-3229.9539L13092.5774,-3229.9979L13092.563,-3230.0714L13092.5562,-3230.1125L13092.5562,-3230.1223L13092.5602,-3230.1336L13092.5681,-3230.1476L13092.5691,-3230.1571L13092.5609,-3230.1769L13092.5472,-3230.2022L13092.5386,-3230.2119L13092.5052,-3230.2412L13092.4922,-3230.2595L13092.4685,-3230.2949L13092.4251,-3230.3455L13092.3931,-3230.386L13092.3589,-3230.433L13092.3517,-3230.4476L13092.3485,-3230.4656L13092.3485,-3230.501L13092.3496,-3230.5298L13092.3568,-3230.5544L13092.3575,-3230.5723L13092.3568,-3230.594L13092.3465,-3230.6108L13092.3291,-3230.6348L13092.3237,-3230.6449L13092.3176,-3230.6797L13092.3093,-3230.7336L13092.3032,-3230.7827L13092.295,-3230.8553L13092.2901,-3230.9062L13092.2993,-3230.9114L13092.3269,-3230.9157L13092.3604,-3230.9157L13092.3895,-3230.9135L13092.4279,-3230.905L13092.4861,-3230.8919L13092.5346,-3230.88L13092.5731,-3230.8733L13092.6008,-3230.8715L13092.6407,-3230.8712L13092.6615,-3230.8773L13092.6849,-3230.8919L13092.7064,-3230.9166L13092.7402,-3230.9574L13092.7571,-3230.9751L13092.7697,-3230.9831L13092.805,-3230.9943L13092.8108,-3231.0011L13092.8172,-3231.0092L13092.8334,-3231.0312L13092.8424,-3231.0353L13092.8543,-3231.035L13092.9089,-3231.0229L13092.9082,-3230.9908L13092.914,-3230.9735L13092.9223,-3230.9365L13092.9244,-3230.9161L13092.925,-3230.8885L13092.9263,-3230.8416L13092.9227,-3230.8224L13092.9134,-3230.7693L13092.9041,-3230.7434L13092.8987,-3230.7278L13092.8976,-3230.7111L13092.9001,-3230.6919L13092.908,-3230.6748L13092.9278,-3230.647L13092.9428,-3230.6188L13092.9606,-3230.5796L13092.9696,-3230.5525L13092.9806,-3230.5209L13092.9871,-3230.4958L13092.983,-3230.4742L13093.0025,-3230.4751L13093.0327,-3230.4864L13093.0686,-3230.5016L13093.1089,-3230.5169L13093.1466,-3230.5229L13093.1673,-3230.5231L13093.1993,-3230.5138L13093.2188,-3230.5071L13093.2404,-3230.5092L13093.2821,-3230.5135L13093.3313,-3230.5117L13093.3701,-3230.5089L13093.396,-3230.4998L13093.419,-3230.484L13093.4646,-3230.4495L13093.5027,-3230.4251L13093.5139,-3230.4175L13093.5232,-3230.404L13093.5343,-3230.372L13093.5449,-3230.3398L13093.5523,-3230.3122L13093.5727,-3230.2735L13093.5864,-3230.2561L13093.6019,-3230.2409L13093.6292,-3230.2244L13093.6619,-3230.2071L13093.675,-3230.1951L13093.6876,-3230.1733L13093.7032,-3230.1412L13093.714,-3230.1241L13093.7334,-3230.111L13093.7654,-3230.0943"/>
<path content="3,多良木町,柳野線,0.4,0.0,0.0," xlink:title="3" d="M13093.7654,-3230.0943L13093.8003,-3230.1485L13093.8254,-3230.1757L13093.8499,-3230.208L13093.8527,-3230.2214L13093.8488,-3230.2424L13093.8258,-3230.3269L13093.8218,-3230.3412L13093.8272,-3230.3632L13093.8369,-3230.3851L13093.8815,-3230.4412L13093.9163,-3230.4955L13093.9605,-3230.5736L13093.981,-3230.6205L13093.9896,-3230.6519L13094.0205,-3230.7516L13094.0435,-3230.8068L13094.0558,-3230.8211L13094.0669,-3230.8358L13094.0777,-3230.8541L13094.0974,-3230.9151L13094.1143,-3230.9584L13094.1309,-3230.9891L13094.1398,-3231.001L13094.1646,-3231.0209L13094.184,-3231.0389L13094.1959,-3231.0553L13094.2031,-3231.0751L13094.206,-3231.1062L13094.2024,-3231.1178L13094.1912,-3231.1343L13094.174,-3231.1617L13094.1715,-3231.1797L13094.1747,-3231.2398L13094.174,-3231.2578L13094.1639,-3231.2816L13094.1079,-3231.3599L13094.1025,-3231.3721L13094.104,-3231.4051L13094.0974,-3231.4236L13094.0802,-3231.4496L13094.055,-3231.4773L13094.0295,-3231.5026L13093.9846,-3231.5538L13093.9483,-3231.5935L13093.9099,-3231.6401L13093.8865,-3231.6676L13093.8664,-3231.6941L13093.8506,-3231.7057L13093.8326,-3231.7133L13093.8071,-3231.7191L13093.7906,-3231.7258L13093.7712,-3231.7386L13093.7575,-3231.7569L13093.7464,-3231.777L13093.7252,-3231.8289L13093.7097,-3231.8917L13093.6989,-3231.9328L13093.6817,-3231.9819L13093.6727,-3231.9947L13093.6526,-3232.0112L13093.6066,-3232.049L13093.5918,-3232.0642L13093.5767,-3232.0856L13093.534,-3232.1514L13093.5013,-3232.2021L13093.4981,-3232.2164L13093.502,-3232.2319L13093.529,-3232.2762L13093.5379,-3232.289L13093.5415,-3232.3054L13093.5387,-3232.3295L13093.529,-3232.3506L13093.5218,-3232.374L13093.5225,-3232.3996L13093.5286,-3232.4155L13093.5372,-3232.4307L13093.5448,-3232.4567L13093.5451,-3232.4728L13093.5397,-3232.4981L13093.5218,-3232.5487L13093.5178,-3232.5634L13093.5196,-3232.5914L13093.5286,-3232.6164L13093.5451,-3232.6628L13093.5491,-3232.6841L13093.5491,-3232.7314L13093.5455,-3232.7482L13093.5369,-3232.7762L13093.5167,-3232.8253L13093.4977,-3232.8637L13093.4614,-3232.9247L13093.4449,-3232.9534L13093.438,-3232.9744L13093.4373,-3233L13093.4416,-3233.0546L13093.4416,-3233.0729L13093.4352,-3233.0942L13093.4136,-3233.132L13093.4039,-3233.1528L13093.3992,-3233.165L13093.4047,-3233.1884"/>
<path content="3,多良木町,槻木線,2.0,0.0,0.0," xlink:title="3" d="M13094.597,-3225.6839L13094.6009,-3225.6889"/>
<path content="3,多良木町,槻木線,2.0,0.0,0.0," xlink:title="3" d="M13094.6009,-3225.6889L13094.6261,-3225.6735L13094.7304,-3225.6151L13094.7777,-3225.5859"/>
<path content="3,多良木町,槻木線,2.0,0.0,0.0," xlink:title="3" d="M13093.3421,-3226.3215L13093.3045,-3226.292L13093.3744,-3226.2032L13093.4403,-3226.1204L13093.4456,-3226.1137L13093.4505,-3226.1167L13093.4973,-3226.072L13093.5139,-3226.0592L13093.5499,-3226.0473L13093.7412,-3225.9886L13093.9414,-3225.9267L13094.028,-3225.9015L13094.0321,-3225.8938L13094.0821,-3225.8794L13094.16,-3225.8562L13094.2139,-3225.8407L13094.2687,-3225.8264L13094.3279,-3225.8084L13094.3843,-3225.7937L13094.4393,-3225.7768L13094.4507,-3225.7724L13094.4676,-3225.7646L13094.4998,-3225.7477L13094.5349,-3225.7292L13094.6009,-3225.6889"/>
<path content="3,多良木町,赤木線,0.4,0.0,0.0," xlink:title="3" d="M13093.3421,-3226.3215L13093.379,-3226.3363L13093.4285,-3226.3663L13093.4877,-3226.4037L13093.5438,-3226.4386L13093.6359,-3226.4983L13093.7343,-3226.5633L13093.8218,-3226.6272L13093.9187,-3226.6926L13093.9796,-3226.7326L13094.0084,-3226.7478L13094.0294,-3226.7531L13094.0619,-3226.7589L13094.0928,-3226.7687L13094.1258,-3226.7834L13094.1856,-3226.8172L13094.1524,-3226.9023L13094.106,-3226.9993L13094.094,-3227.0337"/>
<path content="3,多良木町,赤木線,0.4,0.0,0.0," xlink:title="3" d="M13094.094,-3227.0337L13094.0836,-3227.0709L13094.0844,-3227.1183L13094.0859,-3227.2186L13094.0878,-3227.3844L13094.0942,-3227.4647L13094.1037,-3227.5256L13094.1148,-3227.5869L13094.133,-3227.5921L13094.2814,-3227.6326L13094.4381,-3227.6714L13094.4221,-3227.7137L13094.3179,-3227.8437L13094.3155,-3227.8719L13094.3361,-3227.9236L13094.3416,-3227.9607L13094.3349,-3227.9945L13094.3246,-3228.0221L13094.3135,-3228.04L13094.315,-3228.06L13094.3223,-3228.0903L13094.3299,-3228.1016L13094.3523,-3228.1193L13094.361,-3228.1293L13094.3603,-3228.1606L13094.3553,-3228.1803L13094.3416,-3228.228L13094.3373,-3228.242L13094.3371,-3228.2567L13094.3454,-3228.2706L13094.3766,-3228.2909L13094.407,-3228.3157L13094.4287,-3228.3402L13094.4503,-3228.3719L13094.4655,-3228.3906L13094.4914,-3228.4125L13094.5077,-3228.4325L13094.5241,-3228.4528L13094.5545,-3228.4718L13094.5784,-3228.485L13094.5951,-3228.4989L13094.6092,-3228.5208L13094.6289,-3228.5634L13094.6419,-3228.5766L13094.6612,-3228.5844L13094.6981,-3228.5921L13094.7429,-3228.5937L13094.7775,-3228.6011L13094.8076,-3228.616L13094.8311,-3228.6337L13094.8615,-3228.6698L13094.8836,-3228.7063L13094.9052,-3228.735L13094.9273,-3228.745L13094.977,-3228.7617L13095.0284,-3228.7766L13095.1021,-3228.7995L13095.1549,-3228.815L13095.1975,-3228.8304L13095.2184,-3228.844L13095.2355,-3228.863L13095.2453,-3228.8836L13095.248,-3228.9059L13095.2453,-3228.9311L13095.2385,-3228.9517L13095.2222,-3228.9736L13095.2073,-3228.9978L13095.2013,-3229.0143L13095.1978,-3229.0426L13095.1986,-3229.0584L13095.2188,-3229.0949L13095.2298,-3229.1145L13095.2005,-3229.1333L13095.1781,-3229.1478L13095.1667,-3229.1616L13095.1557,-3229.1797L13095.142,-3229.1865L13095.1298,-3229.191L13095.1165,-3229.1968L13095.0869,-3229.2148L13095.0728,-3229.2316L13095.0493,-3229.2887L13095.0192,-3229.3625L13095.0029,-3229.4109L13094.9801,-3229.487L13094.9561,-3229.5535L13094.9512,-3229.5776L13094.9489,-3229.6005L13094.9554,-3229.6173L13094.9751,-3229.6496L13095.0261,-3229.7363L13095.0998,-3229.8598L13095.1154,-3229.8856L13095.1306,-3229.905L13095.1503,-3229.9221L13095.1697,-3229.9414L13095.1777,-3229.9579L13095.1769,-3229.9695L13095.1716,-3229.9943L13095.169,-3230.0188L13095.1686,-3230.0749L13095.1747,-3230.1136L13095.1872,-3230.1681L13095.1929,-3230.2036L13095.191,-3230.2336L13095.1864,-3230.2681L13095.1769,-3230.3152L13095.1701,-3230.3784L13095.1617,-3230.4261L13095.1602,-3230.4635L13095.1525,-3230.5112L13095.1436,-3230.5552L13095.1352,-3230.5895L13095.1253,-3230.6162L13095.1017,-3230.6718L13095.0875,-3230.703L13095.0707,-3230.739"/>
<path content="3,多良木町,赤木線,0.4,0.0,0.0," xlink:title="3" d="M13094.094,-3227.0337L13094.1699,-3227.0629L13094.242,-3227.0938L13094.3314,-3227.133L13094.4174,-3227.1688L13094.5045,-3227.2075L13094.5936,-3227.2467L13094.6233,-3227.262L13094.6605,-3227.2852L13094.6977,-3227.3088L13094.7378,-3227.337L13094.7903,-3227.3812L13094.8502,-3227.426L13094.919,-3227.4899L13094.9652,-3227.5273L13095.0066,-3227.5598L13095.0617,-3227.5971L13095.132,-3227.6434L13095.1933,-3227.6786L13095.1771,-3227.7035L13095.1576,-3227.7329L13095.1445,-3227.7516L13095.1356,-3227.772L13095.1278,-3227.7961L13095.1898,-3227.8056L13095.2485,-3227.8123L13095.2983,-3227.8159L13095.3324,-3227.8201L13095.3628,-3227.8288L13095.4032,-3227.847L13095.4609,-3227.8724L13095.5335,-3227.9129L13095.5592,-3227.9293L13095.5757,-3227.9447L13095.5862,-3227.9632L13095.5978,-3227.9848L13095.6101,-3227.9979L13095.6264,-3228.0079L13095.6636,-3228.0217L13095.7031,-3228.0368M13095.7031,-3229.408L13095.6753,-3229.4007L13095.6903,-3229.4135L13095.6907,-3229.428L13095.6913,-3229.4554L13095.6839,-3229.4667L13095.6682,-3229.4756L13095.6561,-3229.4805L13095.6488,-3229.4889L13095.6446,-3229.5152L13095.653,-3229.5664L13095.6556,-3229.5957L13095.654,-3229.6184L13095.6467,-3229.6367L13095.6257,-3229.6696L13095.6205,-3229.6825L13095.6199,-3229.7123L13095.6241,-3229.7408L13095.6304,-3229.7831L13095.6446,-3229.8632L13095.664,-3229.9019L13095.676,-3229.9398L13095.6829,-3229.9709L13095.6991,-3230.0016L13095.7031,-3230.0089M13095.7031,-3230.7878L13095.6943,-3230.8002L13095.689,-3230.8113L13095.6843,-3230.8371L13095.6817,-3230.8587L13095.6777,-3230.8779L13095.6733,-3230.8885L13095.6659,-3230.8941L13095.6481,-3230.8981L13095.6266,-3230.9008L13095.6014,-3230.9026L13095.5917,-3230.9006L13095.5862,-3230.8952L13095.5844,-3230.8885L13095.5854,-3230.865L13095.5849,-3230.8572L13095.5794,-3230.8501L13095.5676,-3230.8456L13095.532,-3230.8458L13095.5212,-3230.8425L13095.5131,-3230.836L13095.5084,-3230.8162L13095.5052,-3230.7984L13095.4958,-3230.788L13095.474,-3230.7764L13095.4501,-3230.7684L13095.4252,-3230.7651L13095.4161,-3230.7615L13095.4127,-3230.7544L13095.4113,-3230.7437L13095.4058,-3230.7366L13095.3817,-3230.727L13095.3429,-3230.7085L13095.3319,-3230.7079L13095.3188,-3230.7108L13095.3065,-3230.7168L13095.2755,-3230.7395L13095.264,-3230.7479L13095.2496,-3230.7479L13095.2322,-3230.7461L13095.2086,-3230.749L13095.1947,-3230.7535L13095.1795,-3230.7657L13095.1654,-3230.7735L13095.1447,-3230.7786L13095.1187,-3230.7751L13095.1082,-3230.7691L13095.098,-3230.7584L13095.0789,-3230.7475L13095.0707,-3230.739"/>
<path content="3,多良木町,赤木線,0.4,0.0,0.0," xlink:title="3" d="M13095.0707,-3230.739L13095.0555,-3230.7626L13095.0419,-3230.784L13095.0366,-3230.7964L13095.0377,-3230.8116L13095.0529,-3230.8347L13095.0539,-3230.8449L13095.0445,-3230.8681L13095.0099,-3230.9282L13094.9753,-3230.9887L13094.9632,-3231.0056L13094.915,-3231.0559L13094.8861,-3231.0915L13094.8704,-3231.1155L13094.8573,-3231.1404L13094.8463,-3231.1654L13094.8426,-3231.2032L13094.8426,-3231.2161L13094.8379,-3231.2352L13094.829,-3231.2477L13094.8004,-3231.278"/>
</g>
</svg>
