<?xml version="1.0" encoding="UTF-8"?>
<svg  xmlns="http://www.w3.org/2000/svg" xmlns:xlink="http://www.w3.org/1999/xlink" xmlns:go="http://purl.org/svgmap/profile" property="N07_001,N07_002,N07_003,N07_004,N07_005,N07_006,N07_007" viewBox="13917.48046875 -3783.69140625 4.39453125 4.39453125" go:dataArea="13917.48046875 -3783.69140625 4.39453125 4.39453125" >
<metadata>
 <rdf:RDF xmlns:rdf="http://www.w3.org/1999/02/22-rdf-syntax-ns#" xmlns:crs="http://opengis.org/xmldtds/transformations.dtd" xmlns:svg="http://www.w3.org/svg" >
  <rdf:Description>
   <crs:CoordinateReferenceSystem rdf:resource="http://purl.org/crs/84" svg:transform="matrix(100.0,0.0,0.0,-100.0,0.0,0.0)" />
  </rdf:Description>
 </rdf:RDF>
</metadata>
<globalCoordinateSystem srsName="http://purl.org/crs/84" transform="matrix(100.0,0.0,0.0,-100.0,0.0,0.0)" />
<defs>
 <g id="p0" >
  <circle cx="0.0" cy="0.0" r="3" stroke="green" stroke-width="0.75" vector-effect="non-scaling-stroke" />
 </g>
</defs>
<g fill="none" fill-rule="evenodd" stroke="#FF00FF" stroke-width="0.75" opacity="0.5" vector-effect="non-scaling-stroke" stroke-linejoin="bevel" >
<path content="1,新潟交通（株）,新潟～横越～バスセンター前・保田線（亀田経由バスセンター前行）,3.0,2.0,2.0," xlink:title="1" d="M13921.8554,-3783.6914L13921.8519,-3783.6874L13921.8243,-3783.6625L13921.7872,-3783.6305L13921.7723,-3783.6167L13921.7857,-3783.6121L13921.8154,-3783.6012L13921.8494,-3783.5855L13921.875,-3783.5743"/>
<path content="1,新潟交通（株）,新潟～横越～保田・保田線（＜急行＞保田行）,1.0,1.0,1.0," xlink:title="1" d="M13921.875,-3783.5743L13921.8494,-3783.5855L13921.8154,-3783.6012L13921.7857,-3783.6121L13921.7723,-3783.6167L13921.7872,-3783.6305L13921.8243,-3783.6625L13921.8519,-3783.6874L13921.8554,-3783.6914"/>
<path content="1,新潟交通（株）,新潟～横越～古町前・保田線（亀田経由古町前行）,13.0,13.0,13.0," xlink:title="1" d="M13921.8554,-3783.6914L13921.8519,-3783.6874L13921.8243,-3783.6625L13921.7872,-3783.6305L13921.7723,-3783.6167L13921.7857,-3783.6121L13921.8154,-3783.6012L13921.8494,-3783.5855L13921.875,-3783.5743"/>
<path content="1,新潟交通（株）,新潟～横越～古町前・保田線（＜横雲バイパス経由・急行＞古町行）,1.0,0.0,0.0," xlink:title="1" d="M13921.875,-3783.5743L13921.8494,-3783.5855L13921.8154,-3783.6012L13921.7857,-3783.6121L13921.7723,-3783.6167L13921.7872,-3783.6305L13921.8243,-3783.6625L13921.8519,-3783.6874L13921.8554,-3783.6914"/>
<path content="1,新潟交通（株）,新潟～横越～水原・保田線_01（＜急行＞古町行）,9.0,7.0,7.0," xlink:title="1" d="M13921.8554,-3783.6914L13921.8519,-3783.6874L13921.8243,-3783.6625L13921.7872,-3783.6305L13921.7723,-3783.6167L13921.7857,-3783.6121L13921.8154,-3783.6012L13921.8494,-3783.5855L13921.875,-3783.5743"/>
<path content="1,新潟交通（株）,新潟～横越～水原・保田線_02（＜急行＞古町行）,1.0,1.0,1.0," xlink:title="1" d="M13921.875,-3783.5743L13921.8494,-3783.5855L13921.8154,-3783.6012L13921.7857,-3783.6121L13921.7723,-3783.6167L13921.7872,-3783.6305L13921.8243,-3783.6625L13921.8519,-3783.6874L13921.8554,-3783.6914"/>
<path content="1,新潟交通（株）,新潟～横越～水原・保田線（亀田経由水原行）,16.0,14.0,14.0," xlink:title="1" d="M13921.875,-3783.5743L13921.8494,-3783.5855L13921.8154,-3783.6012L13921.7857,-3783.6121L13921.7723,-3783.6167L13921.7872,-3783.6305L13921.8243,-3783.6625L13921.8519,-3783.6874L13921.8554,-3783.6914"/>
<path content="1,新潟交通（株）,新潟～横越～水原・保田線（＜急行＞水原行）,8.0,6.0,6.0," xlink:title="1" d="M13921.875,-3783.5743L13921.8494,-3783.5855L13921.8154,-3783.6012L13921.7857,-3783.6121L13921.7723,-3783.6167L13921.7872,-3783.6305L13921.8243,-3783.6625L13921.8519,-3783.6874L13921.8554,-3783.6914"/>
<path content="2,阿賀野市,100五頭温泉郷線,9.0,4.5,4.5," xlink:title="2" d="M13921.875,-3783.5743L13921.8494,-3783.5855L13921.8154,-3783.6012L13921.7857,-3783.6121L13921.7723,-3783.6167L13921.7872,-3783.6305L13921.8243,-3783.6625L13921.8519,-3783.6874L13921.8554,-3783.6914"/>
<path content="2,阿賀野市,200分田線,7.0,7.0,7.0," xlink:title="2" d="M13921.875,-3782.9122L13921.8611,-3782.9018L13921.814,-3782.8675L13921.7835,-3782.841L13921.7715,-3782.8264L13921.7665,-3782.819L13921.7622,-3782.8061L13921.7544,-3782.7762L13921.7502,-3782.7549L13921.7449,-3782.718L13921.7384,-3782.6806L13921.7353,-3782.6608L13921.7261,-3782.6343L13921.7013,-3782.5826L13921.6389,-3782.4682L13921.6361,-3782.4618L13921.6289,-3782.4451L13921.6275,-3782.4378L13921.6282,-3782.4175L13921.6353,-3782.3961L13921.6608,-3782.337L13921.663,-3782.3325L13921.6786,-3782.2948L13921.6828,-3782.2841L13921.6843,-3782.2745L13921.6644,-3782.2154L13921.6544,-3782.1968L13921.6027,-3782.1484L13921.5907,-3782.1402L13921.5573,-3782.1123L13921.5158,-3782.0864L13921.5133,-3782.0857L13921.5045,-3782.0832L13921.4734,-3782.0662L13921.4296,-3782.0442L13921.4127,-3782.0365L13921.3629,-3782.0138L13921.3526,-3782.0087L13921.3008,-3781.9736L13921.2892,-3781.9653L13921.2814,-3781.9591L13921.2339,-3781.9103L13921.1587,-3781.8307L13921.1254,-3781.8026L13921.1152,-3781.7969L13921.1034,-3781.7902L13921.0339,-3781.7553L13920.9906,-3781.7299L13920.9565,-3781.7028L13920.9154,-3781.6697L13920.8929,-3781.6496L13920.8743,-3781.6331L13920.7772,-3781.5497L13920.7552,-3781.5294L13920.7124,-3781.4946L13920.7057,-3781.4858L13920.6906,-3781.4759L13920.6389,-3781.4303L13920.6093,-3781.4045L13920.6062,-3781.3981L13920.6029,-3781.3881L13920.6018,-3781.3755L13920.6055,-3781.3622L13920.6105,-3781.3363L13920.6105,-3781.3138L13920.6084,-3781.2991L13920.6029,-3781.2844L13920.5999,-3781.276L13920.5176,-3781.1657L13920.4982,-3781.1408L13920.4524,-3781.0761L13920.4367,-3781.0553L13920.3434,-3780.983L13920.3077,-3780.9573L13920.2779,-3780.9329L13920.2261,-3780.888L13920.1999,-3780.8475L13920.1559,-3780.7759L13920.0893,-3780.665L13920.046,-3780.5924L13920.0396,-3780.58L13920.0366,-3780.5562L13920.0343,-3780.5183L13920.0325,-3780.5062L13920.0268,-3780.4403L13920.0227,-3780.4156L13920.0203,-3780.3969L13920.024,-3780.3356L13920.0254,-3780.295L13920.0304,-3780.2776L13920.0403,-3780.2567L13920.0474,-3780.2421L13920.0706,-3780.2028L13920.09,-3780.1683L13920.1091,-3780.134L13920.1538,-3780.054L13920.1715,-3780.0197L13920.1737,-3780.0123L13920.1729,-3779.9949L13920.1687,-3779.9864L13920.1467,-3779.9509L13920.1297,-3779.9341L13920.1006,-3779.9076L13920.0942,-3779.9019L13920.0857,-3779.8935L13920.0616,-3779.8727L13920.0487,-3779.8608L13920.0134,-3779.8282L13919.9744,-3779.7944L13919.9673,-3779.7876L13919.9082,-3779.7343L13919.8914,-3779.7195L13919.8759,-3779.7052L13919.8744,-3779.7037L13919.8119,-3779.6485L13919.7609,-3779.604L13919.7191,-3779.5663L13919.7161,-3779.5629L13919.6652,-3779.5195L13919.6509,-3779.5032L13919.6481,-3779.4959L13919.6481,-3779.4846L13919.6559,-3779.4661L13919.663,-3779.4537L13919.68,-3779.4244L13919.6907,-3779.4098L13919.6971,-3779.4036L13919.7084,-3779.3923L13919.7219,-3779.3805L13919.7496,-3779.3596L13919.7652,-3779.3478L13919.7879,-3779.332L13919.8408,-3779.2969"/>
<path content="2,阿賀野市,200分田線,7.0,7.0,7.0," xlink:title="2" d="M13921.875,-3783.5743L13921.8494,-3783.5855L13921.8154,-3783.6012L13921.7857,-3783.6121L13921.7723,-3783.6167L13921.7872,-3783.6305L13921.8243,-3783.6625L13921.8519,-3783.6874L13921.8554,-3783.6914"/>
<path content="2,阿賀野市,300千唐仁線,3.0,3.0,3.0," xlink:title="2" d="M13919.7609,-3779.604L13919.7191,-3779.5663L13919.7161,-3779.5629"/>
<path content="2,阿賀野市,300千唐仁線,3.0,3.0,3.0," xlink:title="2" d="M13919.7609,-3779.604L13919.6781,-3779.6616L13919.6626,-3779.6553L13919.6399,-3779.6784L13919.6105,-3779.7071L13919.4658,-3779.8595L13919.4512,-3779.8535L13919.3971,-3779.8248L13919.3545,-3779.809L13919.3089,-3779.7934L13919.2779,-3779.7842L13919.2169,-3779.7662L13919.2034,-3779.764L13919.1694,-3779.764L13919.129,-3779.7684L13919.0588,-3779.7786L13919.0325,-3779.7819L13919.019,-3779.7853L13919.0048,-3779.8203L13918.997,-3779.8467L13918.9829,-3779.8963L13918.9736,-3779.9126L13918.9474,-3779.9458L13918.947,-3779.9463L13918.9375,-3779.9582L13918.9141,-3779.9971L13918.9068,-3780.0085L13918.8814,-3780.0478L13918.8705,-3780.0586L13918.8531,-3780.0776L13918.8488,-3780.0827L13918.8339,-3780.0962L13918.8226,-3780.1102L13918.7985,-3780.1463L13918.7807,-3780.1688L13918.7637,-3780.1857L13918.7382,-3780.2082L13918.7361,-3780.2088L13918.7297,-3780.215L13918.7084,-3780.2297L13918.6906,-3780.2392L13918.6431,-3780.255L13918.6348,-3780.2565L13918.5968,-3780.2627L13918.5935,-3780.264L13918.4899,-3780.2764L13918.4857,-3780.2769L13918.4183,-3780.2809L13918.4156,-3780.2809L13918.4134,-3780.2809L13918.3935,-3780.2809L13918.3729,-3780.2786L13918.3358,-3780.2717L13918.3318,-3780.2713L13918.3084,-3780.2718L13918.3341,-3780.2239L13918.3464,-3780.1952L13918.3934,-3780.0979L13918.4304,-3780.0061L13918.4452,-3779.9745L13918.4665,-3779.9701L13918.4857,-3779.9655L13918.5013,-3779.9622L13918.5254,-3779.9565L13918.5552,-3779.9526L13918.5722,-3779.9514L13918.6041,-3779.9469L13918.6261,-3779.9402L13918.6559,-3779.9289L13918.6914,-3779.9115L13918.6928,-3779.9109L13918.6956,-3779.8979L13918.702,-3779.8771L13918.7093,-3779.8612L13918.7105,-3779.8586L13918.7233,-3779.8248L13918.7283,-3779.8039L13918.7297,-3779.7927L13918.746,-3779.6581L13918.758,-3779.5561L13918.7712,-3779.4555L13918.7792,-3779.3863L13918.78,-3779.3793L13918.7864,-3779.3174L13918.7892,-3779.2969"/>
<path content="2,阿賀野市,300千唐仁線,3.0,3.0,3.0," xlink:title="2" d="M13921.875,-3782.9122L13921.8611,-3782.9018L13921.814,-3782.8675L13921.7835,-3782.841L13921.7715,-3782.8264L13921.7665,-3782.819L13921.7622,-3782.8061L13921.7544,-3782.7762L13921.7502,-3782.7549L13921.7449,-3782.718L13921.7384,-3782.6806L13921.7353,-3782.6608L13921.7261,-3782.6343L13921.7013,-3782.5826L13921.6389,-3782.4682L13921.6361,-3782.4618L13921.6289,-3782.4451L13921.6275,-3782.4378L13921.6282,-3782.4175L13921.6353,-3782.3961L13921.6608,-3782.337L13921.663,-3782.3325L13921.6786,-3782.2948L13921.6828,-3782.2841L13921.6843,-3782.2745L13921.6644,-3782.2154L13921.6544,-3782.1968L13921.6027,-3782.1484L13921.5907,-3782.1402L13921.5573,-3782.1123L13921.5158,-3782.0864L13921.5133,-3782.0857L13921.5045,-3782.0832L13921.4734,-3782.0662L13921.4296,-3782.0442L13921.4127,-3782.0365L13921.3629,-3782.0138L13921.3526,-3782.0087L13921.3008,-3781.9736L13921.2892,-3781.9653L13921.2814,-3781.9591L13921.2339,-3781.9103L13921.1587,-3781.8307L13921.1254,-3781.8026L13921.1152,-3781.7969L13921.1034,-3781.7902L13921.0339,-3781.7553L13920.9906,-3781.7299L13920.9565,-3781.7028L13920.9154,-3781.6697L13920.8929,-3781.6496L13920.8743,-3781.6331L13920.7772,-3781.5497L13920.7552,-3781.5294L13920.7124,-3781.4946L13920.7057,-3781.4858L13920.6906,-3781.4759L13920.6389,-3781.4303L13920.6093,-3781.4045L13920.6062,-3781.3981L13920.6029,-3781.3881L13920.6018,-3781.3755L13920.6055,-3781.3622L13920.6105,-3781.3363L13920.6105,-3781.3138L13920.6084,-3781.2991L13920.6029,-3781.2844L13920.5999,-3781.276L13920.5176,-3781.1657L13920.4982,-3781.1408L13920.4524,-3781.0761L13920.4367,-3781.0553L13920.3434,-3780.983L13920.3077,-3780.9573L13920.2779,-3780.9329L13920.2261,-3780.888L13920.1999,-3780.8475L13920.1559,-3780.7759L13920.0893,-3780.665L13920.046,-3780.5924L13920.0396,-3780.58L13920.0366,-3780.5562L13920.0343,-3780.5183L13920.0325,-3780.5062L13920.0268,-3780.4403L13920.0227,-3780.4156L13920.0203,-3780.3969L13920.024,-3780.3356L13920.0254,-3780.295L13920.0304,-3780.2776L13920.0403,-3780.2567L13920.0474,-3780.2421L13920.0706,-3780.2028L13920.09,-3780.1683L13920.1091,-3780.134L13920.1538,-3780.054L13920.1715,-3780.0197L13920.1737,-3780.0123L13920.1729,-3779.9949L13920.1687,-3779.9864L13920.1467,-3779.9509L13920.1297,-3779.9341L13920.1006,-3779.9076L13920.0942,-3779.9019L13920.0857,-3779.8935L13920.0616,-3779.8727L13920.0487,-3779.8608L13920.0134,-3779.8282L13919.9744,-3779.7944L13919.9673,-3779.7876L13919.9082,-3779.7343L13919.8914,-3779.7195L13919.8759,-3779.7052L13919.8744,-3779.7037L13919.8119,-3779.6485L13919.7609,-3779.604"/>
<path content="2,阿賀野市,300千唐仁線,3.0,3.0,3.0," xlink:title="2" d="M13921.875,-3783.5743L13921.8494,-3783.5855L13921.8154,-3783.6012L13921.7857,-3783.6121L13921.7723,-3783.6167L13921.7872,-3783.6305L13921.8243,-3783.6625L13921.8519,-3783.6874L13921.8554,-3783.6914"/>
<path content="2,阿賀野市,350江端線,3.0,3.0,3.0," xlink:title="2" d="M13921.875,-3781.4222L13921.8651,-3781.4033L13921.8566,-3781.396L13921.8353,-3781.3825L13921.8161,-3781.3673L13921.8147,-3781.3658L13921.7971,-3781.3476L13921.7779,-3781.3228L13921.7424,-3781.2777L13921.6843,-3781.2124L13921.7098,-3781.1871L13921.7212,-3781.1803L13921.7389,-3781.173L13921.7749,-3781.1617L13921.8253,-3781.1412L13921.8276,-3781.1403L13921.8573,-3781.1234L13921.875,-3781.1141M13921.875,-3780.1918L13921.8659,-3780.1903L13921.8306,-3780.1846L13921.6708,-3780.1576L13921.6559,-3780.1537L13921.6424,-3780.1498L13921.6191,-3780.1419L13921.5644,-3780.1132L13921.4148,-3780.045L13921.3472,-3780.0148L13921.3297,-3780.0062L13921.2886,-3779.9881L13921.2453,-3779.9673L13921.1856,-3779.9332L13921.1793,-3779.9284L13921.1545,-3779.9127L13921.1205,-3779.8907L13921.0907,-3779.8609L13921.046,-3779.7877L13921.0233,-3779.7567L13921.0091,-3779.7415L13920.9928,-3779.7263L13920.9635,-3779.7034L13920.9357,-3779.6803L13920.8716,-3779.6311L13920.861,-3779.623L13920.8503,-3779.6159L13920.8449,-3779.6128L13920.8396,-3779.6097L13920.8019,-3779.5972L13920.7908,-3779.5958L13920.7741,-3779.5951L13920.7621,-3779.597L13920.7481,-3779.6001L13920.7331,-3779.6106L13920.7247,-3779.6164L13920.6621,-3779.6618L13920.6531,-3779.6705L13920.6148,-3779.7139L13920.5928,-3779.7369L13920.5808,-3779.746L13920.5716,-3779.7505L13920.5623,-3779.7527L13920.5432,-3779.7527L13920.4847,-3779.7427L13920.4578,-3779.7378L13920.4487,-3779.7365L13920.4261,-3779.7313L13920.3765,-3779.7246L13920.3084,-3779.724L13920.2822,-3779.7206L13920.2467,-3779.7127L13920.2247,-3779.7071L13920.2098,-3779.7026L13920.1822,-3779.6975L13920.1741,-3779.6975L13920.1432,-3779.6975L13920.1254,-3779.7003L13920.1091,-3779.7043L13920.0935,-3779.7099L13920.0715,-3779.7229L13920.0668,-3779.7263L13920.0503,-3779.7364L13920.0311,-3779.7499L13919.9744,-3779.7944L13919.9673,-3779.7876L13919.9082,-3779.7343L13919.8914,-3779.7195L13919.8759,-3779.7052L13919.8744,-3779.7037L13919.8119,-3779.6485L13919.7609,-3779.604L13919.7191,-3779.5663L13919.7161,-3779.5629L13919.6652,-3779.5195L13919.6509,-3779.5032L13919.6481,-3779.4959L13919.6481,-3779.4846L13919.6559,-3779.4661L13919.663,-3779.4537L13919.68,-3779.4244L13919.6907,-3779.4098L13919.6971,-3779.4036L13919.7084,-3779.3923L13919.7219,-3779.3805L13919.7496,-3779.3596L13919.7652,-3779.3478L13919.7879,-3779.332L13919.8408,-3779.2969"/>
<path content="2,阿賀野市,350江端線,3.0,3.0,3.0," xlink:title="2" d="M13921.875,-3783.5743L13921.8494,-3783.5855L13921.8154,-3783.6012L13921.7857,-3783.6121L13921.7723,-3783.6167L13921.7872,-3783.6305L13921.8243,-3783.6625L13921.8519,-3783.6874L13921.8554,-3783.6914"/>
<path content="2,阿賀野市,400寺社線,5.5,5.5,5.5," xlink:title="2" d="M13921.875,-3783.5743L13921.8494,-3783.5855L13921.8154,-3783.6012L13921.7857,-3783.6121L13921.7723,-3783.6167L13921.7872,-3783.6305L13921.8243,-3783.6625L13921.8519,-3783.6874L13921.8554,-3783.6914"/>
<path content="2,阿賀野市,500大室線,2.5,2.5,2.5," xlink:title="2" d="M13921.875,-3783.5743L13921.8494,-3783.5855L13921.8154,-3783.6012L13921.7857,-3783.6121L13921.7723,-3783.6167L13921.7872,-3783.6305L13921.8243,-3783.6625L13921.8519,-3783.6874L13921.8554,-3783.6914"/>
<path content="2,阿賀野市,600駒林線,4.0,4.0,4.0," xlink:title="2" d="M13921.5946,-3783.521L13921.7338,-3783.403L13921.7381,-3783.3991L13921.7466,-3783.3929L13921.8296,-3783.3225L13921.875,-3783.2862"/>
<path content="2,阿賀野市,600駒林線,4.0,4.0,4.0," xlink:title="2" d="M13921.5946,-3783.521L13921.6473,-3783.5596L13921.7227,-3783.6104L13921.7395,-3783.6232L13921.7453,-3783.6256L13921.7723,-3783.6167"/>
<path content="2,阿賀野市,600駒林線,4.0,4.0,4.0," xlink:title="2" d="M13921.7723,-3783.6167L13921.7857,-3783.6121L13921.8154,-3783.6012L13921.8494,-3783.5855L13921.875,-3783.5743"/>
<path content="2,阿賀野市,600駒林線,4.0,4.0,4.0," xlink:title="2" d="M13921.7723,-3783.6167L13921.7872,-3783.6305L13921.8243,-3783.6625L13921.8519,-3783.6874L13921.8554,-3783.6914"/>
<path content="2,阿賀野市,600駒林線,4.0,4.0,4.0," xlink:title="2" d="M13921.1292,-3783.6914L13921.1348,-3783.684L13921.1696,-3783.6305L13921.2083,-3783.577L13921.2388,-3783.5342L13921.2821,-3783.4723L13921.3303,-3783.4041L13921.3668,-3783.4312L13921.3963,-3783.4542L13921.4319,-3783.4202L13921.4721,-3783.4486L13921.487,-3783.4582L13921.5388,-3783.4897L13921.5946,-3783.521"/>
<path content="2,阿賀野市,700前山線,3.0,3.0,3.0," xlink:title="2" d="M13919.5587,-3780.6515L13919.5832,-3780.6389L13919.5921,-3780.6329L13919.6311,-3780.6109L13919.6679,-3780.5935L13919.697,-3780.5794L13919.7729,-3780.5423L13919.7949,-3780.5299L13919.8155,-3780.5197L13919.8226,-3780.5163L13919.8651,-3780.4961L13919.9127,-3780.4713L13919.9304,-3780.4594L13919.9524,-3780.4441L13919.9988,-3780.4119L13920.0203,-3780.3969L13920.0227,-3780.4156L13920.0268,-3780.4403L13920.0325,-3780.5062L13920.0343,-3780.5183L13920.0366,-3780.5562L13920.0396,-3780.58L13920.046,-3780.5924L13920.0893,-3780.665L13920.1559,-3780.7759L13920.1999,-3780.8475L13920.2261,-3780.888L13920.2779,-3780.9329L13920.3077,-3780.9573L13920.3434,-3780.983L13920.4367,-3781.0553L13920.4524,-3781.0761L13920.4982,-3781.1408L13920.5176,-3781.1657L13920.5999,-3781.276L13920.6029,-3781.2844L13920.6084,-3781.2991L13920.6105,-3781.3138L13920.6105,-3781.3363L13920.6055,-3781.3622L13920.6018,-3781.3755"/>
<path content="2,阿賀野市,700前山線,3.0,3.0,3.0," xlink:title="2" d="M13920.6018,-3781.3755L13920.6029,-3781.3881L13920.6062,-3781.3981L13920.6093,-3781.4045L13920.6389,-3781.4303L13920.6906,-3781.4759L13920.7057,-3781.4858"/>
<path content="2,阿賀野市,700前山線,3.0,3.0,3.0," xlink:title="2" d="M13920.6018,-3781.3755L13920.5956,-3781.3865L13920.5917,-3781.3981L13920.585,-3781.4129L13920.5537,-3781.4337L13920.5331,-3781.4461L13920.5119,-3781.4585L13920.4977,-3781.4681L13920.4935,-3781.4731L13920.4913,-3781.4776L13920.48,-3781.5176L13920.4715,-3781.543L13920.45,-3781.5488L13920.4488,-3781.5492L13920.4339,-3781.5537L13920.4218,-3781.5582L13920.3942,-3781.5672L13920.358,-3781.5812L13920.3431,-3781.5841L13920.3211,-3781.5841L13920.2706,-3781.5835L13920.2679,-3781.5835L13920.2481,-3781.5835L13920.2169,-3781.5874L13920.2027,-3781.5914L13920.1857,-3781.597L13920.1821,-3781.5987L13920.1609,-3781.6083L13920.0892,-3781.6443L13920.0814,-3781.6477L13919.9239,-3781.7245L13919.9232,-3781.7248L13919.8488,-3781.7603L13919.8486,-3781.7604L13919.7772,-3781.7952L13919.7601,-3781.8036"/>
<path content="2,阿賀野市,700前山線,3.0,3.0,3.0," xlink:title="2" d="M13919.7601,-3781.8036L13919.7545,-3781.7783L13919.7483,-3781.7521L13919.7389,-3781.7119L13919.7036,-3781.5617L13919.6439,-3781.3099L13919.5793,-3781.0367L13919.5246,-3780.8047L13919.5225,-3780.7962L13919.5183,-3780.7793L13919.5183,-3780.7737L13919.5169,-3780.7692L13919.5176,-3780.7528L13919.5204,-3780.7449L13919.5481,-3780.6999L13919.5609,-3780.6717L13919.5616,-3780.6644L13919.5587,-3780.6515"/>
<path content="2,阿賀野市,700前山線,3.0,3.0,3.0," xlink:title="2" d="M13919.7601,-3781.8036L13919.7176,-3781.8239L13919.6843,-3781.8386L13919.6566,-3781.8493L13919.6162,-3781.8611L13919.5637,-3781.8741L13919.5204,-3781.8808L13919.5098,-3781.8819L13919.5004,-3781.8822"/>
<path content="2,阿賀野市,700前山線,3.0,3.0,3.0," xlink:title="2" d="M13919.5004,-3781.8822L13919.5059,-3781.8734L13919.5068,-3781.8672"/>
<path content="2,阿賀野市,700前山線,3.0,3.0,3.0," xlink:title="2" d="M13919.5004,-3781.8822L13919.4871,-3781.9512L13919.4857,-3781.9619L13919.4807,-3781.9979L13919.4793,-3782.0117L13919.4743,-3782.0582L13919.4676,-3782.1277L13919.4641,-3782.1557L13919.463,-3782.1725L13919.4552,-3782.2148L13919.4225,-3782.3716L13919.4204,-3782.3865L13919.4682,-3782.3996L13919.5658,-3782.4214L13919.6252,-3782.4351L13919.6871,-3782.4512L13919.6998,-3782.4541L13919.7381,-3782.4676L13919.7849,-3782.4868L13919.8019,-3782.4941L13919.8353,-3782.5076L13919.8644,-3782.5155L13919.8786,-3782.5177L13919.9459,-3782.5245L13919.9786,-3782.529L13920.0005,-3782.5312L13920.0289,-3782.5335L13920.0715,-3782.5335L13920.0885,-3782.5329L13920.1268,-3782.5267L13920.1424,-3782.5239L13920.1518,-3782.5233L13920.1575,-3782.5247L13920.1665,-3782.5254L13920.2693,-3782.6028L13920.2821,-3782.6135L13920.2842,-3782.6152L13920.3459,-3782.6613L13920.3587,-3782.6715L13920.3743,-3782.6884L13920.4083,-3782.7306L13920.4317,-3782.7593L13920.4409,-3782.7706L13920.4679,-3782.8038"/>
<path content="2,阿賀野市,700前山線,3.0,3.0,3.0," xlink:title="2" d="M13918.7736,-3782.409L13918.6899,-3782.36L13918.6828,-3782.3549L13918.6303,-3782.3189L13918.5452,-3782.2547L13918.5396,-3782.2491L13918.5272,-3782.2398L13918.4864,-3782.2091L13918.4592,-3782.1886L13918.4289,-3782.1657L13918.3821,-3782.1308L13918.3381,-3782.097L13918.3063,-3782.0726L13918.2616,-3782.0384L13918.1538,-3781.9567L13918.1233,-3781.9331L13918.0311,-3781.8605L13918.0066,-3781.8458L13917.9907,-3781.8362L13917.951,-3781.8222L13917.9105,-3781.811L13917.9041,-3781.8092L13917.8744,-3781.8058L13917.8531,-3781.807L13917.8034,-3781.8154L13917.7733,-3781.8213L13917.7524,-3781.8261L13917.7219,-3781.8323L13917.7084,-3781.8345L13917.6886,-3781.8374L13917.6276,-3781.8402L13917.5772,-3781.8407L13917.507,-3781.8413L13917.4906,-3781.8422L13917.4805,-3781.8425M13917.4805,-3780.734L13917.5112,-3780.7303L13917.5609,-3780.7257L13917.6034,-3780.7212L13917.6426,-3780.7163L13917.6573,-3780.7385L13917.6637,-3780.746L13917.6827,-3780.7662L13917.6971,-3780.7798L13917.7134,-3780.7877L13917.7566,-3780.8029L13917.7807,-3780.8085L13917.7878,-3780.8125L13917.7871,-3780.8203L13917.7821,-3780.835L13917.78,-3780.8536L13917.78,-3780.8817L13917.7807,-3780.8936L13917.7864,-3780.8913L13917.8495,-3780.862L13917.88,-3780.8491L13917.9311,-3780.8266L13917.9424,-3780.8226L13917.9822,-3780.8119L13918.0169,-3780.8035L13918.0552,-3780.7927L13918.1215,-3780.7832L13918.119,-3780.7787L13918.1141,-3780.7657L13918.0942,-3780.7325L13918.0786,-3780.697L13918.0708,-3780.679L13918.0704,-3780.6781L13918.0666,-3780.6683L13918.0602,-3780.6542L13918.1687,-3780.6492L13918.1814,-3780.6486L13918.2049,-3780.648L13918.2219,-3780.6469L13918.2807,-3780.6441L13918.4206,-3780.6382L13918.5517,-3780.6323L13918.6105,-3780.6289L13918.6566,-3780.6289L13918.7211,-3780.6301L13918.7474,-3780.6323L13918.7658,-3780.6363L13918.7971,-3780.6453L13918.8469,-3780.6611L13918.8531,-3780.6638L13918.8708,-3780.67L13918.8776,-3780.6718L13918.8907,-3780.6751L13918.9112,-3780.6779L13918.963,-3780.6881L13919.0006,-3780.6948L13919.0353,-3780.7016L13919.0375,-3780.7021L13919.0644,-3780.7072L13919.0935,-3780.7123L13919.1247,-3780.7185L13919.1523,-3780.7252L13919.185,-3780.7314L13919.2084,-3780.7309L13919.2268,-3780.7309L13919.2487,-3780.7262L13919.2531,-3780.7252L13919.2956,-3780.714L13919.3765,-3780.6982L13919.3949,-3780.6943L13919.4389,-3780.6875L13919.4531,-3780.6852L13919.4701,-3780.6836L13919.4992,-3780.6791L13919.5043,-3780.6776L13919.5112,-3780.6757L13919.5332,-3780.6661L13919.5503,-3780.6571L13919.5587,-3780.6515"/>
<path content="2,阿賀野市,700前山線,3.0,3.0,3.0," xlink:title="2" d="M13918.7736,-3782.409L13918.8098,-3782.4L13918.9749,-3782.3549"/>
<path content="2,阿賀野市,700前山線,3.0,3.0,3.0," xlink:title="2" d="M13920.4679,-3782.8038L13920.4773,-3782.7984"/>
<path content="2,阿賀野市,700前山線,3.0,3.0,3.0," xlink:title="2" d="M13920.4679,-3782.8038L13920.4878,-3782.8275L13920.4991,-3782.8399L13920.5126,-3782.8506L13920.5268,-3782.8618L13920.5374,-3782.8686L13920.5559,-3782.877L13920.57,-3782.8821L13920.6218,-3782.8984L13920.6849,-3782.9243L13920.7097,-3782.9367L13920.7459,-3782.9609L13920.8473,-3783.0407L13920.8804,-3783.0659L13920.9506,-3783.1193L13921.0172,-3783.1689L13921.1445,-3783.2648L13921.2119,-3783.3151L13921.2849,-3783.3698L13921.3303,-3783.4041L13921.3668,-3783.4312L13921.3963,-3783.4542L13921.4319,-3783.4202L13921.4721,-3783.4486L13921.487,-3783.4582L13921.5388,-3783.4897L13921.5946,-3783.521"/>
<path content="2,阿賀野市,700前山線,3.0,3.0,3.0," xlink:title="2" d="M13918.5324,-3783.0673L13918.5473,-3783.056L13918.5587,-3783.0448L13918.5648,-3783.041L13918.5906,-3783.0144L13918.6161,-3782.9862L13918.6333,-3782.9647L13918.6552,-3782.9395L13918.6597,-3782.9339L13918.6814,-3782.9074L13918.7013,-3782.8758L13918.7069,-3782.8629L13918.7111,-3782.8472L13918.7204,-3782.8128L13918.7247,-3782.7778L13918.7268,-3782.7632L13918.7282,-3782.739L13918.7325,-3782.7063L13918.7353,-3782.663L13918.7346,-3782.6196L13918.7332,-3782.5813L13918.7329,-3782.5771L13918.7318,-3782.5622L13918.7261,-3782.5149L13918.7245,-3782.501L13918.719,-3782.4721L13918.717,-3782.4547L13918.7239,-3782.4417L13918.7289,-3782.436L13918.741,-3782.4264L13918.7736,-3782.409"/>
<path content="2,阿賀野市,700前山線,3.0,3.0,3.0," xlink:title="2" d="M13921.875,-3783.2862L13921.8296,-3783.3225L13921.7466,-3783.3929L13921.7381,-3783.3991L13921.7338,-3783.403L13921.5946,-3783.521"/>
<path content="2,阿賀野市,700前山線,3.0,3.0,3.0," xlink:title="2" d="M13921.5946,-3783.521L13921.6473,-3783.5596L13921.7227,-3783.6104L13921.7395,-3783.6232L13921.7453,-3783.6256L13921.7723,-3783.6167"/>
<path content="2,阿賀野市,700前山線,3.0,3.0,3.0," xlink:title="2" d="M13921.7723,-3783.6167L13921.7857,-3783.6121L13921.8154,-3783.6012L13921.8494,-3783.5855L13921.875,-3783.5743"/>
<path content="2,阿賀野市,700前山線,3.0,3.0,3.0," xlink:title="2" d="M13921.7723,-3783.6167L13921.7872,-3783.6305L13921.8243,-3783.6625L13921.8519,-3783.6874L13921.8554,-3783.6914"/>
<path content="2,阿賀野市,700前山線,3.0,3.0,3.0," xlink:title="2" d="M13917.4805,-3783.3216L13917.4997,-3783.3165L13917.5247,-3783.3095L13917.617,-3783.2772L13917.6963,-3783.2434L13917.799,-3783.2011L13917.8431,-3783.1828L13917.8927,-3783.163L13917.9031,-3783.1579L13917.9098,-3783.1546L13917.9237,-3783.1473L13917.9388,-3783.1394L13917.9509,-3783.1304L13918.0027,-3783.0842L13918.0133,-3783.0728L13918.0328,-3783.0534L13918.054,-3783.0314L13918.0788,-3782.9907L13918.0837,-3782.9932L13918.1254,-3782.998L13918.1459,-3782.998L13918.1651,-3782.9958L13918.1849,-3782.9918L13918.1956,-3782.989L13918.2105,-3782.9862L13918.2183,-3782.9839L13918.2325,-3782.9856L13918.3268,-3783.0037L13918.3509,-3783.0082L13918.3541,-3783.0089L13918.3637,-3783.011L13918.3928,-3783.0161L13918.4622,-3783.0296L13918.4726,-3783.0333L13918.4871,-3783.0386L13918.5324,-3783.0673"/>
<path content="2,阿賀野市,700前山線,3.0,3.0,3.0," xlink:title="2" d="M13918.1881,-3783.6914L13918.1997,-3783.5715L13918.2035,-3783.5309L13918.2118,-3783.4343L13918.2204,-3783.3536L13918.2225,-3783.3207L13918.2289,-3783.2993L13918.2402,-3783.2931L13918.2757,-3783.2717L13918.3239,-3783.2436L13918.3544,-3783.225L13918.3793,-3783.2064L13918.4126,-3783.176L13918.4658,-3783.1287L13918.4683,-3783.1264L13918.5324,-3783.0673"/>
<path content="2,阿賀野市,800折居大日線,4.0,4.0,4.0," xlink:title="2" d="M13921.875,-3783.5743L13921.8494,-3783.5855L13921.8154,-3783.6012L13921.7857,-3783.6121L13921.7723,-3783.6167L13921.7872,-3783.6305L13921.8243,-3783.6625L13921.8519,-3783.6874L13921.8554,-3783.6914"/>
<path content="2,阿賀野市,900神山線,6.0,6.0,6.0," xlink:title="2" d="M13921.875,-3783.5743L13921.8494,-3783.5855L13921.8154,-3783.6012L13921.7857,-3783.6121L13921.7723,-3783.6167L13921.7872,-3783.6305L13921.8243,-3783.6625L13921.8519,-3783.6874L13921.8554,-3783.6914"/>
</g>
</svg>
