<?xml version="1.0" encoding="UTF-8"?>
<svg  xmlns="http://www.w3.org/2000/svg" xmlns:xlink="http://www.w3.org/1999/xlink" xmlns:go="http://purl.org/svgmap/profile" property="N07_001,N07_002,N07_003,N07_004,N07_005,N07_006,N07_007" viewBox="14087.7685546875 -3826.5380859375 0.274658203125 0.274658203125" go:dataArea="14087.7685546875 -3826.5380859375 0.274658203125 0.274658203125" >
<metadata>
 <rdf:RDF xmlns:rdf="http://www.w3.org/1999/02/22-rdf-syntax-ns#" xmlns:crs="http://opengis.org/xmldtds/transformations.dtd" xmlns:svg="http://www.w3.org/svg" >
  <rdf:Description>
   <crs:CoordinateReferenceSystem rdf:resource="http://purl.org/crs/84" svg:transform="matrix(100.0,0.0,0.0,-100.0,0.0,0.0)" />
  </rdf:Description>
 </rdf:RDF>
</metadata>
<globalCoordinateSystem srsName="http://purl.org/crs/84" transform="matrix(100.0,0.0,0.0,-100.0,0.0,0.0)" />
<defs>
 <g id="p0" >
  <circle cx="0.0" cy="0.0" r="3" stroke="green" stroke-width="0.75" vector-effect="non-scaling-stroke" />
 </g>
</defs>
<g fill="none" fill-rule="evenodd" stroke="#FF00FF" stroke-width="0.75" opacity="0.5" vector-effect="non-scaling-stroke" stroke-linejoin="bevel" >
<path content="1,JRバス東北（株）,WEライナー号,4.0,4.0,4.0," xlink:title="1" d="M14087.7686,-3826.296L14087.7701,-3826.2961L14087.7702,-3826.2961L14087.7702,-3826.2961L14087.8019,-3826.2976L14087.8022,-3826.2971L14087.8083,-3826.2868L14087.8219,-3826.2634"/>
<path content="1,JRバス東北（株）,うみねこ号,1.0,1.0,1.0," xlink:title="1" d="M14087.8219,-3826.2634L14087.8083,-3826.2868L14087.8022,-3826.2971L14087.8019,-3826.2976L14087.7702,-3826.2961L14087.7702,-3826.2961L14087.7701,-3826.2961L14087.7686,-3826.296"/>
<path content="1,JRバス東北（株）,アーバン号,3.2,4.0,4.0," xlink:title="1" d="M14087.9785,-3826.5381L14087.9794,-3826.5351L14088.0298,-3826.3618L14088.0432,-3826.3192"/>
<path content="1,JRバス東北（株）,キャッスル号,3.0,3.0,3.0," xlink:title="1" d="M14087.8219,-3826.2634L14087.8083,-3826.2868L14087.8022,-3826.2971L14087.8019,-3826.2976L14087.7702,-3826.2961L14087.7702,-3826.2961L14087.7701,-3826.2961L14087.7686,-3826.296"/>
<path content="1,JRバス東北（株）,グリーンライナー号,2.0,2.0,2.0," xlink:title="1" d="M14087.8219,-3826.2634L14087.8083,-3826.2868L14087.8022,-3826.2971L14087.8019,-3826.2976L14087.7702,-3826.2961L14087.7702,-3826.2961L14087.7701,-3826.2961L14087.7686,-3826.296"/>
<path content="1,JRバス東北（株）,ドリームササニシキ号,1.0,1.0,1.0," xlink:title="1" d="M14087.7686,-3826.354L14087.7731,-3826.3463L14087.7905,-3826.3169L14087.8019,-3826.2976L14087.8022,-3826.2971L14087.8083,-3826.2868L14087.8219,-3826.2634"/>
<path content="1,JRバス東北（株）,ブルーシティ号,1.5,1.5,1.5," xlink:title="1" d="M14087.8219,-3826.2634L14087.8083,-3826.2868L14087.8022,-3826.2971L14087.8019,-3826.2976L14087.7702,-3826.2961L14087.7702,-3826.2961L14087.7701,-3826.2961L14087.7686,-3826.296"/>
<path content="1,JRバス東北（株）,仙台～会津若松線,4.0,4.0,4.0," xlink:title="1" d="M14088.0432,-3826.3192L14088.0298,-3826.3618L14087.9794,-3826.5351L14087.9785,-3826.5381"/>
<path content="1,JRバス東北（株）,仙台～古川線,31.0,25.0,25.0," xlink:title="1" d="M14087.9785,-3826.5381L14087.9794,-3826.5351L14088.0298,-3826.3618L14088.0432,-3826.3192"/>
<path content="1,JRバス東北（株）,仙台～江刺・水沢線,2.0,2.0,2.0," xlink:title="1" d="M14087.9785,-3826.5381L14087.9794,-3826.5351L14088.0298,-3826.3618L14088.0432,-3826.3192"/>
<path content="1,JRバス東北（株）,仙台～福島線,12.0,12.0,12.0," xlink:title="1" d="M14088.0432,-3826.3192L14088.0298,-3826.3618L14087.9794,-3826.5351L14087.9785,-3826.5381"/>
<path content="1,JRバス東北（株）,仙台～郡山・須賀川線,8.0,8.0,8.0," xlink:title="1" d="M14088.0432,-3826.3192L14088.0298,-3826.3618L14087.9794,-3826.5351L14087.9785,-3826.5381"/>
<path content="1,JRバス東北（株）,仙秋号,2.0,2.0,2.0," xlink:title="1" d="M14087.8219,-3826.2634L14087.8083,-3826.2868L14087.8022,-3826.2971L14087.8019,-3826.2976L14087.7702,-3826.2961L14087.7702,-3826.2961L14087.7701,-3826.2961L14087.7686,-3826.296"/>
<path content="1,京王バス南（株）,新宿・渋谷～仙台・石巻線,1.0,1.0,1.0," xlink:title="1" d="M14087.7686,-3826.296L14087.7701,-3826.2961L14087.7702,-3826.2961L14087.7702,-3826.2961L14087.8019,-3826.2976L14087.8022,-3826.2971L14087.8083,-3826.2868L14087.8219,-3826.2634M14088.0432,-3826.3192L14088.0298,-3826.3618L14087.9794,-3826.5351L14087.9785,-3826.5381"/>
<path content="1,名鉄バス（株）,名古屋～仙台,1.0,1.0,1.0," xlink:title="1" d="M14087.9783,-3826.3083L14087.9211,-3826.3056L14087.9118,-3826.305L14087.8262,-3826.2993L14087.8019,-3826.2976L14087.7701,-3826.2961L14087.7686,-3826.296"/>
<path content="1,宮城交通（株）,N2,52.1,26.3,3.3," xlink:title="1" d="M14087.7686,-3826.354L14087.7731,-3826.3463L14087.7905,-3826.3169L14087.8019,-3826.2976L14087.8022,-3826.2971L14087.8083,-3826.2868L14087.8219,-3826.2634"/>
<path content="1,宮城交通（株）,N3,3.2,3.7,0.0," xlink:title="1" d="M14087.7686,-3826.354L14087.7731,-3826.3463L14087.7905,-3826.3169L14087.8019,-3826.2976L14087.8022,-3826.2971L14087.8083,-3826.2868L14087.8219,-3826.2634"/>
<path content="1,宮城交通（株）,N42,16.0,15.5,15.5," xlink:title="1" d="M14088.0432,-3826.3192L14088.0298,-3826.3618L14087.9794,-3826.5351L14087.9785,-3826.5381"/>
<path content="1,宮城交通（株）,N44,34.5,17.5,16.0," xlink:title="1" d="M14087.8219,-3826.2634L14087.8083,-3826.2868L14087.8022,-3826.2971L14087.8019,-3826.2976L14087.7905,-3826.3169L14087.7731,-3826.3463L14087.7686,-3826.354"/>
<path content="1,宮城交通（株）,S32,52.5,47.0,46.0," xlink:title="1" d="M14087.8219,-3826.2634L14087.8083,-3826.2868L14087.8022,-3826.2971L14087.8019,-3826.2976L14087.7702,-3826.2961L14087.7702,-3826.2961L14087.7701,-3826.2961L14087.7686,-3826.296"/>
<path content="1,宮城交通（株）,SSライナー・夕陽,4.0,4.0,4.0," xlink:title="1" d="M14087.8219,-3826.2634L14087.8083,-3826.2868L14087.8022,-3826.2971L14087.8019,-3826.2976L14087.7702,-3826.2961L14087.7702,-3826.2961L14087.7701,-3826.2961L14087.7686,-3826.296"/>
<path content="1,宮城交通（株）,うみねこ,1.0,1.0,1.0," xlink:title="1" d="M14087.8219,-3826.2634L14087.8083,-3826.2868L14087.8022,-3826.2971L14087.8019,-3826.2976L14087.7702,-3826.2961L14087.7702,-3826.2961L14087.7701,-3826.2961L14087.7686,-3826.296"/>
<path content="1,宮城交通（株）,アーバン,3.2,4.0,4.0," xlink:title="1" d="M14087.8219,-3826.2634L14087.8083,-3826.2868L14087.8022,-3826.2971L14087.8019,-3826.2976L14087.7702,-3826.2961L14087.7702,-3826.2961L14087.7701,-3826.2961L14087.7686,-3826.296"/>
<path content="1,宮城交通（株）,エトアール,1.0,1.0,1.0," xlink:title="1" d="M14087.7686,-3826.296L14087.7701,-3826.2961L14087.7702,-3826.2961L14087.7702,-3826.2961L14087.8019,-3826.2976L14087.8022,-3826.2971L14087.8083,-3826.2868L14087.8219,-3826.2634"/>
<path content="1,宮城交通（株）,キャッスル,3.0,3.0,3.0," xlink:title="1" d="M14087.8219,-3826.2634L14087.8083,-3826.2868L14087.8022,-3826.2971L14087.8019,-3826.2976L14087.7702,-3826.2961L14087.7702,-3826.2961L14087.7701,-3826.2961L14087.7686,-3826.296"/>
<path content="1,宮城交通（株）,ブルーシティ,1.5,1.5,1.5," xlink:title="1" d="M14087.8219,-3826.2634L14087.8083,-3826.2868L14087.8022,-3826.2971L14087.8019,-3826.2976L14087.7702,-3826.2961L14087.7702,-3826.2961L14087.7701,-3826.2961L14087.7686,-3826.296"/>
<path content="1,宮城交通（株）,ポーラスター,1.0,1.0,1.0," xlink:title="1" d="M14087.8219,-3826.2634L14087.8083,-3826.2868L14087.8022,-3826.2971L14087.8019,-3826.2976L14087.7702,-3826.2961L14087.7702,-3826.2961L14087.7701,-3826.2961L14087.7686,-3826.296"/>
<path content="1,宮城交通（株）,仙台～上山線,4.0,3.0,3.0," xlink:title="1" d="M14087.7686,-3826.296L14087.7701,-3826.2961L14087.7702,-3826.2961L14087.7702,-3826.2961L14087.8019,-3826.2976L14087.8022,-3826.2971L14087.8083,-3826.2868L14087.8219,-3826.2634M14088.0432,-3826.3192L14088.0298,-3826.3618L14087.9794,-3826.5351L14087.9785,-3826.5381"/>
<path content="1,宮城交通（株）,仙台～名古屋線,1.0,1.0,1.0," xlink:title="1" d="M14087.7686,-3826.296L14087.7701,-3826.2961L14087.7702,-3826.2961L14087.7702,-3826.2961L14087.8019,-3826.2976L14087.8022,-3826.2971L14087.8083,-3826.2868L14087.8219,-3826.2634"/>
<path content="1,宮城交通（株）,仙台～大船渡線,2.0,2.0,2.0," xlink:title="1" d="M14087.9785,-3826.5381L14087.9794,-3826.5351L14088.0298,-3826.3618L14088.0432,-3826.3192M14087.8219,-3826.2634L14087.8083,-3826.2868L14087.8022,-3826.2971L14087.8019,-3826.2976L14087.7702,-3826.2961L14087.7702,-3826.2961L14087.7701,-3826.2961L14087.7686,-3826.296"/>
<path content="1,宮城交通（株）,仙台～大阪線,1.0,1.0,1.0," xlink:title="1" d="M14087.8219,-3826.2634L14087.8083,-3826.2868L14087.8022,-3826.2971L14087.8019,-3826.2976L14087.7702,-3826.2961L14087.7702,-3826.2961L14087.7701,-3826.2961L14087.7686,-3826.296"/>
<path content="1,宮城交通（株）,仙台～富山線,1.0,1.0,1.0," xlink:title="1" d="M14087.7686,-3826.296L14087.7701,-3826.2961L14087.7702,-3826.2961L14087.7702,-3826.2961L14087.8019,-3826.2976L14087.8022,-3826.2971L14087.8083,-3826.2868L14087.8219,-3826.2634"/>
<path content="1,宮城交通（株）,仙台～川崎町線,3.0,3.0,3.0," xlink:title="1" d="M14088.0432,-3826.3139L14088.0163,-3826.3113L14087.9783,-3826.3083L14087.9335,-3826.3024L14087.9118,-3826.305L14087.8262,-3826.2993L14087.8019,-3826.2976L14087.7702,-3826.2961L14087.7702,-3826.2961L14087.7701,-3826.2961L14087.7686,-3826.296"/>
<path content="1,宮城交通（株）,仙台～本荘線,1.0,1.0,1.0," xlink:title="1" d="M14087.8219,-3826.2634L14087.8083,-3826.2868L14087.8022,-3826.2971L14087.8019,-3826.2976L14087.7702,-3826.2961L14087.7702,-3826.2961L14087.7701,-3826.2961L14087.7686,-3826.296"/>
<path content="1,宮城交通（株）,仙台～気仙沼線,3.0,3.0,3.0," xlink:title="1" d="M14087.9785,-3826.5381L14087.9794,-3826.5351L14088.0298,-3826.3618L14088.0432,-3826.3192M14087.8219,-3826.2634L14087.8083,-3826.2868L14087.8022,-3826.2971L14087.8019,-3826.2976L14087.7702,-3826.2961L14087.7702,-3826.2961L14087.7701,-3826.2961L14087.7686,-3826.296"/>
<path content="1,宮城交通（株）,仙台～郡山須賀川線,8.0,8.0,8.0," xlink:title="1" d="M14087.7686,-3826.296L14087.7701,-3826.2961L14087.7702,-3826.2961L14087.7702,-3826.2961L14087.8019,-3826.2976L14087.8022,-3826.2971L14087.8083,-3826.2868L14087.8219,-3826.2634"/>
<path content="1,宮城交通（株）,仙台～釜石線,1.0,1.0,1.0," xlink:title="1" d="M14087.8219,-3826.2634L14087.8083,-3826.2868L14087.8022,-3826.2971L14087.8019,-3826.2976L14087.7702,-3826.2961L14087.7702,-3826.2961L14087.7701,-3826.2961L14087.7686,-3826.296"/>
<path content="1,宮城交通（株）,仙秋,4.0,4.0,4.0," xlink:title="1" d="M14087.8219,-3826.2634L14087.8083,-3826.2868L14087.8022,-3826.2971L14087.8019,-3826.2976L14087.7702,-3826.2961L14087.7702,-3826.2961L14087.7701,-3826.2961L14087.7686,-3826.296"/>
<path content="1,宮城交通（株）,南三陸～仙台線,3.0,3.0,3.0," xlink:title="1" d="M14087.9785,-3826.5381L14087.9794,-3826.5351L14088.0298,-3826.3618L14088.0432,-3826.3192"/>
<path content="1,宮城交通（株）,広瀬ライナー,1.0,1.0,1.0," xlink:title="1" d="M14087.7686,-3826.296L14087.7701,-3826.2961L14087.7702,-3826.2961L14087.7702,-3826.2961L14087.8019,-3826.2976L14087.8022,-3826.2971L14087.8083,-3826.2868L14087.8219,-3826.2634M14088.0432,-3826.3192L14088.0298,-3826.3618L14087.9794,-3826.5351L14087.9785,-3826.5381"/>
<path content="1,宮城交通（株）,特急仙台～山形線,38.0,33.0,33.0," xlink:title="1" d="M14087.7686,-3826.296L14087.7701,-3826.2961L14087.7702,-3826.2961L14087.7702,-3826.2961L14087.8019,-3826.2976L14087.8022,-3826.2971L14087.8083,-3826.2868L14087.8219,-3826.2634M14088.0432,-3826.3192L14088.0298,-3826.3618L14087.9794,-3826.5351L14087.9785,-3826.5381"/>
<path content="1,宮城交通（株）,石巻・女川～仙台線,17.0,17.0,17.0," xlink:title="1" d="M14087.9785,-3826.5381L14087.9794,-3826.5351L14088.0298,-3826.3618L14088.0432,-3826.3192"/>
<path content="1,富山地方鉄道（株）,仙台（高速バス）,1.0,1.0,1.0," xlink:title="1" d="M14088.0432,-3826.3192L14088.0298,-3826.3618L14087.9794,-3826.5351L14087.9785,-3826.5381"/>
<path content="1,岩手急行バス（株）,一ノ関仙台線,19.0,19.0,19.0," xlink:title="1" d="M14087.8219,-3826.2634L14087.8083,-3826.2868L14087.8022,-3826.2971L14087.8019,-3826.2976L14087.7702,-3826.2961L14087.7702,-3826.2961L14087.7701,-3826.2961L14087.7686,-3826.296"/>
<path content="1,岩手県交通（株）,アーバン号,3.2,4.0,4.0," xlink:title="1" d="M14087.8219,-3826.2634L14087.8083,-3826.2868L14087.8022,-3826.2971L14087.8019,-3826.2976L14087.7702,-3826.2961L14087.7702,-3826.2961L14087.7701,-3826.2961L14087.7686,-3826.296"/>
<path content="1,岩手県交通（株）,一関・仙台線,0.5,0.5,0.5," xlink:title="1" d="M14087.7686,-3826.296L14087.7701,-3826.2961L14087.7702,-3826.2961L14087.7702,-3826.2961L14087.8019,-3826.2976L14087.8022,-3826.2971L14087.8083,-3826.2868L14087.8219,-3826.2634"/>
<path content="1,岩手県交通（株）,大船渡・仙台線,2.0,2.0,2.0," xlink:title="1" d="M14087.7686,-3826.296L14087.7701,-3826.2961L14087.7702,-3826.2961L14087.7702,-3826.2961L14087.8019,-3826.2976L14087.8022,-3826.2971L14087.8083,-3826.2868L14087.8219,-3826.2634"/>
<path content="1,岩手県交通（株）,釜石・仙台線,1.0,1.0,1.0," xlink:title="1" d="M14087.7686,-3826.296L14087.7701,-3826.2961L14087.7702,-3826.2961L14087.7702,-3826.2961L14087.8019,-3826.2976L14087.8022,-3826.2971L14087.8083,-3826.2868L14087.8219,-3826.2634"/>
<path content="1,岩手県北自動車（株）,アーバン号　盛岡⇔仙台,3.2,4.0,4.0," xlink:title="1" d="M14087.8219,-3826.2634L14087.8083,-3826.2868L14087.8022,-3826.2971L14087.8019,-3826.2976L14087.7702,-3826.2961L14087.7702,-3826.2961L14087.7701,-3826.2961L14087.7686,-3826.296"/>
<path content="1,弘南バス（株）,キャッスル号,6.0,6.0,6.0," xlink:title="1" d="M14087.8219,-3826.2634L14087.8083,-3826.2868L14087.8022,-3826.2971L14087.8019,-3826.2976L14087.8262,-3826.2993L14087.9118,-3826.305L14087.9335,-3826.3024"/>
<path content="1,弘南バス（株）,ブルーシティー号,4.0,4.0,4.0," xlink:title="1" d="M14087.8219,-3826.2634L14087.8083,-3826.2868L14087.8022,-3826.2971L14087.8019,-3826.2976L14087.8262,-3826.2993L14087.9118,-3826.305L14087.9335,-3826.3024"/>
<path content="1,愛子観光バス（株）,錦ケ丘・仙台駅前線,20.5,16.0,16.0," xlink:title="1" d="M14088.0432,-3826.3139L14088.0163,-3826.3113L14087.9783,-3826.3083L14087.9335,-3826.3024L14087.9118,-3826.305L14087.8262,-3826.2993L14087.8019,-3826.2976L14087.7702,-3826.2961L14087.7702,-3826.2961L14087.7701,-3826.2961L14087.7686,-3826.296"/>
<path content="1,成田空港交通,仙台線,1.0,1.0,1.0," xlink:title="1" d="M14087.7686,-3826.296L14087.7701,-3826.2961L14087.7702,-3826.2961L14087.7702,-3826.2961L14087.8019,-3826.2976L14087.8022,-3826.2971L14087.8083,-3826.2868L14087.8219,-3826.2634"/>
<path content="1,日本中央バス（株）,ミリオンライナー,2.0,2.0,2.0," xlink:title="1" d="M14087.7686,-3826.296L14087.7701,-3826.2961L14087.7702,-3826.2961L14087.7702,-3826.2961L14087.8019,-3826.2976L14087.8022,-3826.2971L14087.8083,-3826.2868L14087.8219,-3826.2634"/>
<path content="1,日本中央バス（株）,仙台ライナー,1.0,1.0,1.0," xlink:title="1" d="M14087.7686,-3826.296L14087.7701,-3826.2961L14087.7702,-3826.2961L14087.7702,-3826.2961L14087.8019,-3826.2976L14087.8022,-3826.2971L14087.8083,-3826.2868L14087.8219,-3826.2634"/>
<path content="1,東北急行バス（株）,エススター号,0.1,0.5,0.0," xlink:title="1" d="M14087.7686,-3826.296L14087.7701,-3826.2961L14087.7702,-3826.2961L14087.7702,-3826.2961L14087.8019,-3826.2976"/>
<path content="1,東北急行バス（株）,エススター号,0.1,0.5,0.0," xlink:title="1" d="M14087.8019,-3826.2976L14087.8022,-3826.2971L14087.8083,-3826.2868L14087.8219,-3826.2634"/>
<path content="1,東北急行バス（株）,エススター号,0.1,0.5,0.0," xlink:title="1" d="M14087.8019,-3826.2976L14087.8262,-3826.2993L14087.9118,-3826.305L14087.9335,-3826.3024L14087.9783,-3826.3083"/>
<path content="1,東北急行バス（株）,スイート号,0.2,1.0,1.0," xlink:title="1" d="M14087.7686,-3826.296L14087.7701,-3826.2961L14087.7702,-3826.2961L14087.7702,-3826.2961L14087.8019,-3826.2976"/>
<path content="1,東北急行バス（株）,スイート号,0.2,1.0,1.0," xlink:title="1" d="M14087.8019,-3826.2976L14087.8022,-3826.2971L14087.8083,-3826.2868L14087.8219,-3826.2634"/>
<path content="1,東北急行バス（株）,スイート号,0.2,1.0,1.0," xlink:title="1" d="M14087.8019,-3826.2976L14087.8262,-3826.2993L14087.9118,-3826.305L14087.9335,-3826.3024L14087.9783,-3826.3083"/>
<path content="1,東北急行バス（株）,ニュースター号,2.0,2.0,2.0," xlink:title="1" d="M14087.7686,-3826.296L14087.7701,-3826.2961L14087.7702,-3826.2961L14087.7702,-3826.2961L14087.8019,-3826.2976"/>
<path content="1,東北急行バス（株）,ニュースター号,2.0,2.0,2.0," xlink:title="1" d="M14087.8019,-3826.2976L14087.8022,-3826.2971L14087.8083,-3826.2868L14087.8219,-3826.2634"/>
<path content="1,東北急行バス（株）,ニュースター号,2.0,2.0,2.0," xlink:title="1" d="M14087.8019,-3826.2976L14087.8262,-3826.2993L14087.9118,-3826.305L14087.9335,-3826.3024L14087.9783,-3826.3083"/>
<path content="1,東北急行バス（株）,ホリデースター号,0.2,1.0,1.0," xlink:title="1" d="M14087.7686,-3826.296L14087.7701,-3826.2961L14087.7702,-3826.2961L14087.7702,-3826.2961L14087.8019,-3826.2976"/>
<path content="1,東北急行バス（株）,ホリデースター号,0.2,1.0,1.0," xlink:title="1" d="M14087.8019,-3826.2976L14087.8022,-3826.2971L14087.8083,-3826.2868L14087.8219,-3826.2634"/>
<path content="1,東北急行バス（株）,ホリデースター号,0.2,1.0,1.0," xlink:title="1" d="M14087.8019,-3826.2976L14087.8262,-3826.2993L14087.9118,-3826.305L14087.9335,-3826.3024L14087.9783,-3826.3083"/>
<path content="1,東日本急行（株）,とよま総合支所～仙台線,6.0,6.0,6.0," xlink:title="1" d="M14087.9785,-3826.5381L14087.9794,-3826.5351L14088.0298,-3826.3618L14088.0432,-3826.3192"/>
<path content="1,東日本急行（株）,一ノ関～仙台線,19.0,19.0,19.0," xlink:title="1" d="M14087.8219,-3826.2634L14087.8083,-3826.2868L14087.8022,-3826.2971L14087.8019,-3826.2976L14087.7702,-3826.2961L14087.7702,-3826.2961L14087.7701,-3826.2961L14087.7686,-3826.296"/>
<path content="1,東日本急行（株）,仙台～盛岡線,16.0,20.0,20.0," xlink:title="1" d="M14087.7686,-3826.296L14087.7701,-3826.2961L14087.7702,-3826.2961L14087.7702,-3826.2961L14087.8019,-3826.2976L14087.8022,-3826.2971L14087.8083,-3826.2868L14087.8219,-3826.2634"/>
<path content="1,福島交通（株）,福交須賀川営業所～仙台駅前,12.0,12.0,12.0," xlink:title="1" d="M14087.7686,-3826.296L14087.7701,-3826.2961L14087.7702,-3826.2961L14087.7702,-3826.2961L14087.8019,-3826.2976L14087.8022,-3826.2971L14087.8083,-3826.2868L14087.8219,-3826.2634"/>
<path content="1,福島交通（株）,福島競馬場前～仙台駅前,15.0,15.0,15.0," xlink:title="1" d="M14087.7686,-3826.296L14087.7701,-3826.2961L14087.7702,-3826.2961L14087.7702,-3826.2961L14087.8019,-3826.2976L14087.8022,-3826.2971L14087.8083,-3826.2868L14087.8219,-3826.2634"/>
<path content="1,秋北バス（株）,二ツ井・能代～仙台線,1.0,1.0,1.0," xlink:title="1" d="M14087.8219,-3826.2634L14087.8083,-3826.2868L14087.8022,-3826.2971L14087.8019,-3826.2976L14087.7702,-3826.2961L14087.7702,-3826.2961L14087.7701,-3826.2961L14087.7686,-3826.296"/>
<path content="1,秋北バス（株）,大館・鹿角～仙台線,3.0,3.0,3.0," xlink:title="1" d="M14087.7686,-3826.296L14087.7701,-3826.2961L14087.7702,-3826.2961L14087.7702,-3826.2961L14087.8019,-3826.2976L14087.8022,-3826.2971L14087.8083,-3826.2868L14087.8219,-3826.2634"/>
<path content="1,秋田中央交通（株）,仙秋号,4.0,4.0,4.0," xlink:title="1" d="M14087.7686,-3826.296L14087.7701,-3826.2961L14087.7702,-3826.2961L14087.7702,-3826.2961L14087.8019,-3826.2976L14087.8262,-3826.2993L14087.9118,-3826.305L14087.9335,-3826.3024"/>
<path content="1,羽後交通（株）,グリーンライナー号,4.0,4.0,4.0," xlink:title="1" d="M14087.8219,-3826.2634L14087.8083,-3826.2868L14087.8022,-3826.2971L14087.8019,-3826.2976L14087.7702,-3826.2961L14087.7702,-3826.2961L14087.7701,-3826.2961L14087.7686,-3826.296"/>
<path content="1,羽後交通（株）,本荘仙台線,3.0,3.0,3.0," xlink:title="1" d="M14087.8219,-3826.2634L14087.8083,-3826.2868L14087.8022,-3826.2971L14087.8019,-3826.2976L14087.7702,-3826.2961L14087.7702,-3826.2961L14087.7701,-3826.2961L14087.7686,-3826.296"/>
<path content="1,近鉄バス（株）,大阪・京都⇔仙台,1.0,1.0,1.0," xlink:title="1" d="M14087.7686,-3826.296L14087.7701,-3826.2961L14087.8019,-3826.2976L14087.8262,-3826.2993L14087.9118,-3826.305L14087.9211,-3826.3056L14087.9783,-3826.3083"/>
<path content="2,仙台市,159,7.0,7.0,7.0," xlink:title="2" d="M14088.0432,-3826.3192L14088.0298,-3826.3618L14087.9794,-3826.5351L14087.9785,-3826.5381"/>
<path content="2,仙台市,200,12.5,13.5,13.5," xlink:title="2" d="M14088.0432,-3826.3192L14088.0298,-3826.3618L14087.9794,-3826.5351L14087.9785,-3826.5381"/>
<path content="2,仙台市,203,2.0,0.0,0.0," xlink:title="2" d="M14088.0432,-3826.3192L14088.0298,-3826.3618L14087.9794,-3826.5351L14087.9785,-3826.5381"/>
<path content="2,仙台市,205,14.0,11.5,11.0," xlink:title="2" d="M14088.0432,-3826.3192L14088.0298,-3826.3618L14087.9794,-3826.5351L14087.9785,-3826.5381"/>
<path content="2,仙台市,209,2.0,0.0,0.0," xlink:title="2" d="M14087.9785,-3826.5381L14087.9794,-3826.5351L14088.0298,-3826.3618L14088.0432,-3826.3192"/>
<path content="2,仙台市,220　仙台駅～旭ヶ丘駅,13.0,12.0,11.0," xlink:title="2" d="M14088.0432,-3826.3192L14088.0298,-3826.3618L14087.9794,-3826.5351L14087.9785,-3826.5381"/>
<path content="2,仙台市,220　仙台駅～鶴ヶ谷七丁目,21.5,17.5,18.0," xlink:title="2" d="M14088.0432,-3826.3192L14088.0298,-3826.3618L14087.9794,-3826.5351L14087.9785,-3826.5381"/>
<path content="2,仙台市,230,9.0,5.5,5.5," xlink:title="2" d="M14088.0432,-3826.3192L14088.0298,-3826.3618L14087.9794,-3826.5351L14087.9785,-3826.5381"/>
<path content="2,仙台市,233,8.0,6.0,6.0," xlink:title="2" d="M14088.0432,-3826.3192L14088.0298,-3826.3618L14087.9794,-3826.5351L14087.9785,-3826.5381"/>
<path content="2,仙台市,235,5.0,3.5,3.0," xlink:title="2" d="M14088.0432,-3826.3192L14088.0298,-3826.3618L14087.9794,-3826.5351L14087.9785,-3826.5381"/>
<path content="2,仙台市,240,35.0,30.5,30.0," xlink:title="2" d="M14088.0432,-3826.3192L14088.0298,-3826.3618L14087.9794,-3826.5351L14087.9785,-3826.5381"/>
<path content="2,仙台市,250,11.0,6.0,6.0," xlink:title="2" d="M14088.0432,-3826.3192L14088.0298,-3826.3618L14087.9794,-3826.5351L14087.9785,-3826.5381"/>
<path content="2,仙台市,259,8.0,7.0,7.0," xlink:title="2" d="M14087.9785,-3826.5381L14087.9794,-3826.5351L14088.0298,-3826.3618L14088.0432,-3826.3192"/>
<path content="2,仙台市,319,1.0,0.0,0.0," xlink:title="2" d="M14087.9785,-3826.5381L14087.9794,-3826.5351L14088.0298,-3826.3618L14088.0432,-3826.3192"/>
<path content="2,仙台市,605,8.5,3.5,3.5," xlink:title="2" d="M14087.8219,-3826.2634L14087.8083,-3826.2868L14087.8022,-3826.2971L14087.8019,-3826.2976L14087.7702,-3826.2961L14087.7702,-3826.2961L14087.7701,-3826.2961L14087.7686,-3826.296"/>
<path content="2,仙台市,610　～野草園,16.0,14.0,15.0," xlink:title="2" d="M14087.8219,-3826.2634L14087.8083,-3826.2868L14087.8022,-3826.2971L14087.8019,-3826.2976L14087.7702,-3826.2961L14087.7702,-3826.2961L14087.7701,-3826.2961L14087.7686,-3826.296"/>
<path content="2,仙台市,610　～長町営業所,8.5,3.0,0.0," xlink:title="2" d="M14087.8219,-3826.2634L14087.8083,-3826.2868L14087.8022,-3826.2971L14087.8019,-3826.2976L14087.7702,-3826.2961L14087.7702,-3826.2961L14087.7701,-3826.2961L14087.7686,-3826.296"/>
<path content="2,仙台市,700,49.0,42.5,39.5," xlink:title="2" d="M14087.8219,-3826.2634L14087.8083,-3826.2868L14087.8022,-3826.2971L14087.8019,-3826.2976L14087.7702,-3826.2961L14087.7702,-3826.2961L14087.7701,-3826.2961L14087.7686,-3826.296"/>
<path content="2,仙台市,705,41.0,36.5,35.5," xlink:title="2" d="M14087.8219,-3826.2634L14087.8083,-3826.2868L14087.8022,-3826.2971L14087.8019,-3826.2976L14087.7702,-3826.2961L14087.7702,-3826.2961L14087.7701,-3826.2961L14087.7686,-3826.296"/>
<path content="2,仙台市,707,7.5,9.0,7.5," xlink:title="2" d="M14087.7686,-3826.296L14087.7701,-3826.2961L14087.7702,-3826.2961L14087.7702,-3826.2961L14087.8019,-3826.2976L14087.8022,-3826.2971L14087.8083,-3826.2868L14087.8219,-3826.2634"/>
<path content="2,仙台市,730,28.0,15.5,14.5," xlink:title="2" d="M14087.8219,-3826.2634L14087.8083,-3826.2868L14087.8022,-3826.2971L14087.8019,-3826.2976L14087.7702,-3826.2961L14087.7702,-3826.2961L14087.7701,-3826.2961L14087.7686,-3826.296"/>
<path content="2,仙台市,739,17.0,13.0,13.0," xlink:title="2" d="M14087.8219,-3826.2634L14087.8083,-3826.2868L14087.8022,-3826.2971L14087.8019,-3826.2976L14087.7702,-3826.2961L14087.7702,-3826.2961L14087.7701,-3826.2961L14087.7686,-3826.296"/>
<path content="2,仙台市,750,1.0,0.0,0.0," xlink:title="2" d="M14087.8219,-3826.2634L14087.8083,-3826.2868L14087.8022,-3826.2971L14087.8019,-3826.2976L14087.7702,-3826.2961L14087.7702,-3826.2961L14087.7701,-3826.2961L14087.7686,-3826.296"/>
<path content="2,仙台市,757,4.0,0.0,0.0," xlink:title="2" d="M14087.8219,-3826.2634L14087.8083,-3826.2868L14087.8022,-3826.2971L14087.8019,-3826.2976L14087.7702,-3826.2961L14087.7702,-3826.2961L14087.7701,-3826.2961L14087.7686,-3826.296"/>
<path content="2,仙台市,760,13.5,16.5,15.5," xlink:title="2" d="M14087.8219,-3826.2634L14087.8083,-3826.2868L14087.8022,-3826.2971L14087.8019,-3826.2976L14087.7702,-3826.2961L14087.7702,-3826.2961L14087.7701,-3826.2961L14087.7686,-3826.296"/>
<path content="2,仙台市,761,3.0,0.0,0.0," xlink:title="2" d="M14087.8219,-3826.2634L14087.8083,-3826.2868L14087.8022,-3826.2971L14087.8019,-3826.2976L14087.7702,-3826.2961L14087.7702,-3826.2961L14087.7701,-3826.2961L14087.7686,-3826.296"/>
<path content="2,仙台市,765,15.0,3.0,1.0," xlink:title="2" d="M14087.8219,-3826.2634L14087.8083,-3826.2868L14087.8022,-3826.2971L14087.8019,-3826.2976L14087.7702,-3826.2961L14087.7702,-3826.2961L14087.7701,-3826.2961L14087.7686,-3826.296"/>
<path content="2,仙台市,766,7.0,7.5,6.5," xlink:title="2" d="M14087.8219,-3826.2634L14087.8083,-3826.2868L14087.8022,-3826.2971L14087.8019,-3826.2976L14087.7702,-3826.2961L14087.7702,-3826.2961L14087.7701,-3826.2961L14087.7686,-3826.296"/>
<path content="2,仙台市,770,2.0,0.0,0.0," xlink:title="2" d="M14087.8219,-3826.2634L14087.8083,-3826.2868L14087.8022,-3826.2971L14087.8019,-3826.2976L14087.7702,-3826.2961L14087.7702,-3826.2961L14087.7701,-3826.2961L14087.7686,-3826.296"/>
<path content="2,仙台市,780,2.0,0.0,0.0," xlink:title="2" d="M14087.7686,-3826.296L14087.7701,-3826.2961L14087.7702,-3826.2961L14087.7702,-3826.2961L14087.8019,-3826.2976L14087.8022,-3826.2971L14087.8083,-3826.2868L14087.8219,-3826.2634"/>
<path content="2,仙台市,785,2.0,0.0,0.0," xlink:title="2" d="M14087.7686,-3826.296L14087.7701,-3826.2961L14087.7702,-3826.2961L14087.7702,-3826.2961L14087.8019,-3826.2976L14087.8022,-3826.2971L14087.8083,-3826.2868L14087.8219,-3826.2634"/>
</g>
</svg>
