<?xml version="1.0" encoding="UTF-8"?>
<svg  xmlns="http://www.w3.org/2000/svg" xmlns:xlink="http://www.w3.org/1999/xlink" xmlns:go="http://purl.org/svgmap/profile" property="N07_001,N07_002,N07_003,N07_004,N07_005,N07_006,N07_007" viewBox="13939.453125 -3543.0908203125 1.0986328125 1.0986328125" go:dataArea="13939.453125 -3543.0908203125 1.0986328125 1.0986328125" >
<metadata>
 <rdf:RDF xmlns:rdf="http://www.w3.org/1999/02/22-rdf-syntax-ns#" xmlns:crs="http://opengis.org/xmldtds/transformations.dtd" xmlns:svg="http://www.w3.org/svg" >
  <rdf:Description>
   <crs:CoordinateReferenceSystem rdf:resource="http://purl.org/crs/84" svg:transform="matrix(100.0,0.0,0.0,-100.0,0.0,0.0)" />
  </rdf:Description>
 </rdf:RDF>
</metadata>
<globalCoordinateSystem srsName="http://purl.org/crs/84" transform="matrix(100.0,0.0,0.0,-100.0,0.0,0.0)" />
<defs>
 <g id="p0" >
  <circle cx="0.0" cy="0.0" r="3" stroke="green" stroke-width="0.75" vector-effect="non-scaling-stroke" />
 </g>
</defs>
<g fill="none" fill-rule="evenodd" stroke="#FF00FF" stroke-width="0.75" opacity="0.5" vector-effect="non-scaling-stroke" stroke-linejoin="bevel" >
<path content="1,JRバステック（株）,名古屋系統（特急）,1.0,1.0,1.0," xlink:title="1" d="M13939.9421,-3543.0908L13939.882,-3543.0348L13939.8095,-3542.9712L13939.7965,-3542.9601L13939.7881,-3542.9529L13939.765,-3542.9333L13939.7532,-3542.9231L13939.7003,-3542.8827L13939.6893,-3542.8743L13939.6341,-3542.8374L13939.5805,-3542.8024L13939.5452,-3542.7793L13939.4919,-3542.7479L13939.4531,-3542.7251"/>
<path content="1,JRバステック（株）,名古屋系統（超特急）,3.0,3.0,3.0," xlink:title="1" d="M13939.9421,-3543.0908L13939.882,-3543.0348L13939.8095,-3542.9712L13939.7965,-3542.9601L13939.7881,-3542.9529L13939.765,-3542.9333L13939.7532,-3542.9231L13939.7003,-3542.8827L13939.6893,-3542.8743L13939.6341,-3542.8374L13939.5805,-3542.8024L13939.5452,-3542.7793L13939.4919,-3542.7479L13939.4531,-3542.7251"/>
<path content="1,JRバステック（株）,御殿場プレミアムアウトレット号新宿号,0.7,0.0,0.0," xlink:title="1" d="M13939.9421,-3543.0908L13939.882,-3543.0348L13939.8095,-3542.9712L13939.7965,-3542.9601L13939.7881,-3542.9529L13939.765,-3542.9333L13939.7532,-3542.9231L13939.7003,-3542.8827L13939.6893,-3542.8743L13939.6341,-3542.8374L13939.5805,-3542.8024L13939.5452,-3542.7793L13939.4919,-3542.7479L13939.4531,-3542.7251"/>
<path content="1,JRバステック（株）,御殿場プレミアムアウトレット号東京号,0.7,0.0,0.0," xlink:title="1" d="M13939.4531,-3542.7251L13939.4919,-3542.7479L13939.5452,-3542.7793L13939.5805,-3542.8024L13939.6341,-3542.8374L13939.6893,-3542.8743L13939.7003,-3542.8827L13939.7532,-3542.9231L13939.765,-3542.9333L13939.7881,-3542.9529L13939.7965,-3542.9601L13939.8095,-3542.9712L13939.882,-3543.0348L13939.9421,-3543.0908"/>
<path content="1,JRバス関東（株）,かぐや姫EXPRESS・ヤキソバEXPRESS,3.0,3.0,3.0," xlink:title="1" d="M13939.9421,-3543.0908L13939.882,-3543.0348L13939.8095,-3542.9712L13939.7965,-3542.9601L13939.7881,-3542.9529L13939.765,-3542.9333L13939.7532,-3542.9231L13939.7003,-3542.8827L13939.6893,-3542.8743L13939.6341,-3542.8374L13939.5805,-3542.8024L13939.5452,-3542.7793L13939.4919,-3542.7479L13939.4531,-3542.7251"/>
<path content="1,JRバス関東（株）,しみずライナー,3.1,4.0,3.5," xlink:title="1" d="M13939.9421,-3543.0908L13939.882,-3543.0348L13939.8095,-3542.9712L13939.7965,-3542.9601L13939.7881,-3542.9529L13939.765,-3542.9333L13939.7532,-3542.9231L13939.7003,-3542.8827L13939.6893,-3542.8743L13939.6341,-3542.8374L13939.5805,-3542.8024L13939.5452,-3542.7793L13939.4919,-3542.7479L13939.4531,-3542.7251"/>
<path content="1,JRバス関東（株）,ドリーム和歌山号,1.0,1.0,1.0," xlink:title="1" d="M13939.9421,-3543.0908L13939.882,-3543.0348L13939.8095,-3542.9712L13939.7965,-3542.9601L13939.7881,-3542.9529L13939.765,-3542.9333L13939.7532,-3542.9231L13939.7003,-3542.8827L13939.6893,-3542.8743L13939.6341,-3542.8374L13939.5805,-3542.8024L13939.5452,-3542.7793L13939.4919,-3542.7479L13939.4531,-3542.7251"/>
<path content="1,JRバス関東（株）,ドリーム福井号,2.0,2.0,2.0," xlink:title="1" d="M13939.4531,-3542.7251L13939.4919,-3542.7479L13939.5452,-3542.7793L13939.5805,-3542.8024L13939.6341,-3542.8374L13939.6893,-3542.8743L13939.7003,-3542.8827L13939.7532,-3542.9231L13939.765,-3542.9333L13939.7881,-3542.9529L13939.7965,-3542.9601L13939.8095,-3542.9712L13939.882,-3543.0348L13939.9421,-3543.0908"/>
<path content="1,JRバス関東（株）,ドリーム静岡・浜松号,2.0,2.0,2.0," xlink:title="1" d="M13939.4531,-3542.7251L13939.4919,-3542.7479L13939.5452,-3542.7793L13939.5805,-3542.8024L13939.6341,-3542.8374L13939.6893,-3542.8743L13939.7003,-3542.8827L13939.7532,-3542.9231L13939.765,-3542.9333L13939.7881,-3542.9529L13939.7965,-3542.9601L13939.8095,-3542.9712L13939.882,-3543.0348L13939.9421,-3543.0908"/>
<path content="1,JRバス関東（株）,ドリーム高松号/松山号/徳島号/高知号,4.0,4.0,4.0," xlink:title="1" d="M13939.4531,-3542.7251L13939.4919,-3542.7479L13939.5452,-3542.7793L13939.5805,-3542.8024L13939.6341,-3542.8374L13939.6893,-3542.8743L13939.7003,-3542.8827L13939.7532,-3542.9231L13939.765,-3542.9333L13939.7881,-3542.9529L13939.7965,-3542.9601L13939.8095,-3542.9712L13939.882,-3543.0348L13939.9421,-3543.0908"/>
<path content="1,JRバス関東（株）,プレミアム中央ドリーム号/中央ドリーム号/プレミアムドリーム号/ドリーム号/レディースドリーム号/プレミアムレディース,9.4,12.0,12.0," xlink:title="1" d="M13939.4531,-3542.7251L13939.4919,-3542.7479L13939.5452,-3542.7793L13939.5805,-3542.8024L13939.6341,-3542.8374L13939.6893,-3542.8743L13939.7003,-3542.8827L13939.7532,-3542.9231L13939.765,-3542.9333L13939.7881,-3542.9529L13939.7965,-3542.9601L13939.8095,-3542.9712L13939.882,-3543.0348L13939.9421,-3543.0908"/>
<path content="1,JRバス関東（株）,御殿場プレミアム・アウトレット号,2.0,3.0,3.0," xlink:title="1" d="M13939.9421,-3543.0908L13939.882,-3543.0348L13939.8095,-3542.9712L13939.7965,-3542.9601L13939.7881,-3542.9529L13939.765,-3542.9333L13939.7532,-3542.9231L13939.7003,-3542.8827L13939.6893,-3542.8743L13939.6341,-3542.8374L13939.5805,-3542.8024L13939.5452,-3542.7793L13939.4919,-3542.7479L13939.4531,-3542.7251"/>
<path content="1,JRバス関東（株）,新宿ドリーム三河・なごや号,1.0,1.0,1.0," xlink:title="1" d="M13939.9421,-3543.0908L13939.882,-3543.0348L13939.8095,-3542.9712L13939.7965,-3542.9601L13939.7881,-3542.9529L13939.765,-3542.9333L13939.7532,-3542.9231L13939.7003,-3542.8827L13939.6893,-3542.8743L13939.6341,-3542.8374L13939.5805,-3542.8024L13939.5452,-3542.7793L13939.4919,-3542.7479L13939.4531,-3542.7251"/>
<path content="1,JRバス関東（株）,新宿ライナー三河・なごや号,1.0,1.0,1.0," xlink:title="1" d="M13939.4531,-3542.7251L13939.4919,-3542.7479L13939.5452,-3542.7793L13939.5805,-3542.8024L13939.6341,-3542.8374L13939.6893,-3542.8743L13939.7003,-3542.8827L13939.7532,-3542.9231L13939.765,-3542.9333L13939.7881,-3542.9529L13939.7965,-3542.9601L13939.8095,-3542.9712L13939.882,-3543.0348L13939.9421,-3543.0908"/>
<path content="1,JRバス関東（株）,東京～山中湖畔・河口湖,4.0,5.0,5.0," xlink:title="1" d="M13939.9421,-3543.0908L13939.882,-3543.0348L13939.8095,-3542.9712L13939.7965,-3542.9601L13939.7881,-3542.9529L13939.765,-3542.9333L13939.7532,-3542.9231L13939.7003,-3542.8827L13939.6893,-3542.8743L13939.6341,-3542.8374L13939.5805,-3542.8024L13939.5452,-3542.7793L13939.4919,-3542.7479L13939.4531,-3542.7251"/>
<path content="1,JRバス関東（株）,東名ハイウェイバス,8.0,8.0,8.0," xlink:title="1" d="M13939.9421,-3543.0908L13939.882,-3543.0348L13939.8095,-3542.9712L13939.7965,-3542.9601L13939.7881,-3542.9529L13939.765,-3542.9333L13939.7532,-3542.9231L13939.7003,-3542.8827L13939.6893,-3542.8743L13939.6341,-3542.8374L13939.5805,-3542.8024L13939.5452,-3542.7793L13939.4919,-3542.7479L13939.4531,-3542.7251"/>
<path content="1,JRバス関東（株）,東海道昼特急号/中央道昼特急号/青春昼特急号/プレミアム昼特急号,7.2,9.0,9.0," xlink:title="1" d="M13939.9421,-3543.0908L13939.882,-3543.0348L13939.8095,-3542.9712L13939.7965,-3542.9601L13939.7881,-3542.9529L13939.765,-3542.9333L13939.7532,-3542.9231L13939.7003,-3542.8827L13939.6893,-3542.8743L13939.6341,-3542.8374L13939.5805,-3542.8024L13939.5452,-3542.7793L13939.4919,-3542.7479L13939.4531,-3542.7251"/>
<path content="1,JRバス関東（株）,知多シーガール号,2.0,2.0,2.0," xlink:title="1" d="M13939.4531,-3542.7251L13939.4919,-3542.7479L13939.5452,-3542.7793L13939.5805,-3542.8024L13939.6341,-3542.8374L13939.6893,-3542.8743L13939.7003,-3542.8827L13939.7532,-3542.9231L13939.765,-3542.9333L13939.7881,-3542.9529L13939.7965,-3542.9601L13939.8095,-3542.9712L13939.882,-3543.0348L13939.9421,-3543.0908"/>
<path content="1,JRバス関東（株）,青春中央ドリーム号/青春中央エコドリーム号/青春ドリーム号/青春レディースドリーム号/青春エコドリーム号/超得割青春号,10.0,14.0,14.0," xlink:title="1" d="M13939.9421,-3543.0908L13939.882,-3543.0348L13939.8095,-3542.9712L13939.7965,-3542.9601L13939.7881,-3542.9529L13939.765,-3542.9333L13939.7532,-3542.9231L13939.7003,-3542.8827L13939.6893,-3542.8743L13939.6341,-3542.8374L13939.5805,-3542.8024L13939.5452,-3542.7793L13939.4919,-3542.7479L13939.4531,-3542.7251"/>
<path content="1,JRバス関東（株）,駿府ライナー,6.0,6.0,6.0," xlink:title="1" d="M13939.9421,-3543.0908L13939.882,-3543.0348L13939.8095,-3542.9712L13939.7965,-3542.9601L13939.7881,-3542.9529L13939.765,-3542.9333L13939.7532,-3542.9231L13939.7003,-3542.8827L13939.6893,-3542.8743L13939.6341,-3542.8374L13939.5805,-3542.8024L13939.5452,-3542.7793L13939.4919,-3542.7479L13939.4531,-3542.7251"/>
<path content="1,JR四国バス（株）,ドリーム徳島号　阿南・徳島⇔新宿・東京・新木場,1.0,1.0,1.0," xlink:title="1" d="M13939.9421,-3543.0908L13939.8815,-3543.0344L13939.8107,-3542.9722L13939.7964,-3542.9601L13939.765,-3542.9332L13939.7514,-3542.9216L13939.6892,-3542.8744L13939.6341,-3542.8374L13939.5452,-3542.7793L13939.4531,-3542.7251"/>
<path content="1,JR四国バス（株）,ドリーム高松・松山号　松山・高松⇔東京・東京ディズニーランド,1.0,1.0,1.0," xlink:title="1" d="M13939.9421,-3543.0908L13939.8815,-3543.0344L13939.8107,-3542.9722L13939.7964,-3542.9601L13939.765,-3542.9332L13939.7514,-3542.9216L13939.6892,-3542.8744L13939.6341,-3542.8374L13939.5452,-3542.7793L13939.4531,-3542.7251"/>
<path content="1,JR四国バス（株）,ドリーム高松号　観音寺・高松⇔新宿・東京・新木場,1.0,1.0,1.0," xlink:title="1" d="M13939.9421,-3543.0908L13939.8815,-3543.0344L13939.8107,-3542.9722L13939.7964,-3542.9601L13939.765,-3542.9332L13939.7514,-3542.9216L13939.6892,-3542.8744L13939.6341,-3542.8374L13939.5452,-3542.7793L13939.4531,-3542.7251"/>
<path content="1,JR四国バス（株）,ドリーム高知号　高知・徳島⇔東京・新木場,1.0,1.0,1.0," xlink:title="1" d="M13939.9421,-3543.0908L13939.8815,-3543.0344L13939.8107,-3542.9722L13939.7964,-3542.9601L13939.765,-3542.9332L13939.7514,-3542.9216L13939.6892,-3542.8744L13939.6341,-3542.8374L13939.5452,-3542.7793L13939.4531,-3542.7251"/>
<path content="1,JR東海バス（株）,ドリームとよた号,1.0,1.0,1.0," xlink:title="1" d="M13939.4531,-3542.7251L13939.5452,-3542.7793L13939.6341,-3542.8374L13939.6892,-3542.8744L13939.7514,-3542.9216L13939.765,-3542.9332L13939.7964,-3542.9601L13939.8107,-3542.9722L13939.8815,-3543.0344L13939.9421,-3543.0908"/>
<path content="1,JR東海バス（株）,ドリームなごや号_01_on,3.0,3.0,3.0," xlink:title="1" d="M13939.4531,-3542.7251L13939.5452,-3542.7793L13939.6341,-3542.8374L13939.6892,-3542.8744L13939.7514,-3542.9216L13939.765,-3542.9332L13939.7964,-3542.9601L13939.8107,-3542.9722L13939.8815,-3543.0344L13939.9421,-3543.0908"/>
<path content="1,JR東海バス（株）,ドリームなごや号_02_on,3.0,3.0,3.0," xlink:title="1" d="M13939.4531,-3542.7251L13939.5452,-3542.7793L13939.6341,-3542.8374L13939.6892,-3542.8744L13939.7514,-3542.9216L13939.765,-3542.9332L13939.7964,-3542.9601L13939.8107,-3542.9722L13939.8815,-3543.0344L13939.9421,-3543.0908"/>
<path content="1,JR東海バス（株）,ドリーム静岡・浜松号_01_on,2.0,2.0,2.0," xlink:title="1" d="M13939.9421,-3543.0908L13939.8815,-3543.0344L13939.8107,-3542.9722L13939.7964,-3542.9601L13939.765,-3542.9332L13939.7514,-3542.9216L13939.6892,-3542.8744L13939.6341,-3542.8374L13939.5452,-3542.7793L13939.4531,-3542.7251"/>
<path content="1,JR東海バス（株）,ドリーム静岡・浜松号_02_on,2.0,2.0,2.0," xlink:title="1" d="M13939.9421,-3543.0908L13939.8815,-3543.0344L13939.8107,-3542.9722L13939.7964,-3542.9601L13939.765,-3542.9332L13939.7514,-3542.9216L13939.6892,-3542.8744L13939.6341,-3542.8374L13939.5452,-3542.7793L13939.4531,-3542.7251"/>
<path content="1,JR東海バス（株）,ファンタジア号,1.0,1.0,1.0," xlink:title="1" d="M13939.4531,-3542.7251L13939.5452,-3542.7793L13939.6341,-3542.8374L13939.6892,-3542.8744L13939.7514,-3542.9216L13939.765,-3542.9332L13939.7964,-3542.9601L13939.8107,-3542.9722L13939.8815,-3543.0344L13939.9421,-3543.0908"/>
<path content="1,JR東海バス（株）,レディースドリームなごや号,1.0,1.0,1.0," xlink:title="1" d="M13939.4531,-3542.7251L13939.5452,-3542.7793L13939.6341,-3542.8374L13939.6892,-3542.8744L13939.7514,-3542.9216L13939.765,-3542.9332L13939.7964,-3542.9601L13939.8107,-3542.9722L13939.8815,-3543.0344L13939.9421,-3543.0908"/>
<path content="1,JR東海バス（株）,新宿ドリーム三河・なごや号,1.0,1.0,1.0," xlink:title="1" d="M13939.9421,-3543.0908L13939.8815,-3543.0344L13939.8107,-3542.9722L13939.7964,-3542.9601L13939.765,-3542.9332L13939.7514,-3542.9216L13939.6892,-3542.8744L13939.6341,-3542.8374L13939.5452,-3542.7793L13939.4531,-3542.7251"/>
<path content="1,JR東海バス（株）,新宿ライナー三河・なごや号,1.0,1.0,1.0," xlink:title="1" d="M13939.9421,-3543.0908L13939.8815,-3543.0344L13939.8107,-3542.9722L13939.7964,-3542.9601L13939.765,-3542.9332L13939.7514,-3542.9216L13939.6892,-3542.8744L13939.6341,-3542.8374L13939.5452,-3542.7793L13939.4531,-3542.7251"/>
<path content="1,JR東海バス（株）,東名ハイウェイバス_01_on,37.0,37.0,37.0," xlink:title="1" d="M13939.4531,-3542.7251L13939.5452,-3542.7793L13939.6341,-3542.8374L13939.6892,-3542.8744L13939.7514,-3542.9216L13939.765,-3542.9332L13939.7964,-3542.9601L13939.8107,-3542.9722L13939.8815,-3543.0344L13939.9421,-3543.0908"/>
<path content="1,JR東海バス（株）,東名ハイウェイバス_03_on,37.0,37.0,37.0," xlink:title="1" d="M13939.4531,-3542.7251L13939.5452,-3542.7793L13939.6341,-3542.8374L13939.6892,-3542.8744L13939.7514,-3542.9216L13939.765,-3542.9332L13939.7964,-3542.9601L13939.8107,-3542.9722L13939.8815,-3543.0344L13939.9421,-3543.0908"/>
<path content="1,JR東海バス（株）,渋谷・新宿ライナー浜松号,4.0,4.0,4.0," xlink:title="1" d="M13939.4531,-3542.7251L13939.5452,-3542.7793L13939.6341,-3542.8374L13939.6892,-3542.8744L13939.7514,-3542.9216L13939.765,-3542.9332L13939.7964,-3542.9601L13939.8107,-3542.9722L13939.8815,-3543.0344L13939.9421,-3543.0908"/>
<path content="1,JR東海バス（株）,渋谷・新宿ライナー静岡号,8.0,8.0,8.0," xlink:title="1" d="M13939.4531,-3542.7251L13939.5452,-3542.7793L13939.6341,-3542.8374L13939.6892,-3542.8744L13939.7514,-3542.9216L13939.765,-3542.9332L13939.7964,-3542.9601L13939.8107,-3542.9722L13939.8815,-3543.0344L13939.9421,-3543.0908"/>
<path content="1,JR東海バス（株）,青春ドリームなごや号,1.0,1.0,1.0," xlink:title="1" d="M13939.4531,-3542.7251L13939.5452,-3542.7793L13939.6341,-3542.8374L13939.6892,-3542.8744L13939.7514,-3542.9216L13939.765,-3542.9332L13939.7964,-3542.9601L13939.8107,-3542.9722L13939.8815,-3543.0344L13939.9421,-3543.0908"/>
<path content="1,しずてつジャストライン（株）,新静岡新宿線,15.0,15.0,15.0," xlink:title="1" d="M13939.4531,-3542.7251L13939.5452,-3542.7793L13939.6341,-3542.8374L13939.6892,-3542.8744L13939.7514,-3542.9216L13939.765,-3542.9332L13939.7964,-3542.9601L13939.8107,-3542.9722L13939.8815,-3543.0344L13939.9421,-3543.0908"/>
<path content="1,しずてつジャストライン（株）,東京清水線,5.0,5.0,5.0," xlink:title="1" d="M13939.4531,-3542.7251L13939.5452,-3542.7793L13939.6341,-3542.8374L13939.6892,-3542.8744L13939.7514,-3542.9216L13939.765,-3542.9332L13939.7964,-3542.9601L13939.8107,-3542.9722L13939.8815,-3543.0344L13939.9421,-3543.0908"/>
<path content="1,しずてつジャストライン（株）,静岡成田空港線,1.0,1.0,1.0," xlink:title="1" d="M13939.4531,-3542.7251L13939.5452,-3542.7793L13939.6341,-3542.8374L13939.6892,-3542.8744L13939.7514,-3542.9216L13939.765,-3542.9332L13939.7964,-3542.9601L13939.8107,-3542.9722L13939.8815,-3543.0344L13939.9421,-3543.0908"/>
<path content="1,しずてつジャストライン（株）,静岡横浜線,3.0,3.0,3.0," xlink:title="1" d="M13939.4531,-3542.7251L13939.5452,-3542.7793L13939.6341,-3542.8374L13939.6892,-3542.8744L13939.7514,-3542.9216L13939.765,-3542.9332L13939.7964,-3542.9601L13939.8107,-3542.9722L13939.8815,-3543.0344L13939.9421,-3543.0908"/>
<path content="1,エムケイ（株）,MKナイトシャトル　京都・大阪⇔東京便,1.0,1.0,1.0," xlink:title="1" d="M13939.4531,-3542.7251L13939.5452,-3542.7793L13939.6341,-3542.8374L13939.6892,-3542.8744L13939.7514,-3542.9216L13939.765,-3542.9332L13939.7964,-3542.9601L13939.8107,-3542.9722L13939.8815,-3543.0344L13939.9421,-3543.0908"/>
<path content="1,エムケイ（株）,MKナイトシャトル　名古屋・豊田⇔東京便,1.0,1.0,1.0," xlink:title="1" d="M13939.4531,-3542.7251L13939.5452,-3542.7793L13939.6341,-3542.8374L13939.6892,-3542.8744L13939.7514,-3542.9216L13939.765,-3542.9332L13939.7964,-3542.9601L13939.8107,-3542.9722L13939.8815,-3543.0344L13939.9421,-3543.0908"/>
<path content="1,一畑バス（株）,東京～松江・出雲線,1.0,1.0,1.0," xlink:title="1" d="M13939.4531,-3542.7251L13939.5452,-3542.7793L13939.6341,-3542.8374L13939.6892,-3542.8744L13939.7514,-3542.9216L13939.765,-3542.9332L13939.7964,-3542.9601L13939.8107,-3542.9722L13939.8815,-3543.0344L13939.9421,-3543.0908"/>
<path content="1,三重交通（株）,伊賀・四日市～横浜・品川,1.0,1.0,1.0," xlink:title="1" d="M13939.9421,-3543.0908L13939.8815,-3543.0344L13939.8107,-3542.9722L13939.7964,-3542.9601L13939.765,-3542.9332L13939.7514,-3542.9216L13939.6892,-3542.8744L13939.6341,-3542.8374L13939.5452,-3542.7793L13939.4531,-3542.7251"/>
<path content="1,三重交通（株）,勝浦・南紀～横浜・東京・大宮,1.0,1.0,1.0," xlink:title="1" d="M13939.4531,-3542.7251L13939.5452,-3542.7793L13939.6341,-3542.8374L13939.6892,-3542.8744L13939.7514,-3542.9216L13939.765,-3542.9332L13939.7964,-3542.9601L13939.8107,-3542.9722L13939.8815,-3543.0344L13939.9421,-3543.0908"/>
<path content="1,両備ホールディングス（株）,ままかりライナー　倉敷・岡山～東京駅八重洲通り線,1.0,1.0,1.0," xlink:title="1" d="M13939.4531,-3542.7251L13939.5452,-3542.7793L13939.6341,-3542.8374L13939.6892,-3542.8744L13939.7514,-3542.9216L13939.765,-3542.9332L13939.7964,-3542.9601L13939.8107,-3542.9722L13939.8815,-3543.0344L13939.9421,-3543.0908"/>
<path content="1,両備ホールディングス（株）,ルブラン　倉敷・岡山・津山～東京線,1.0,1.0,1.0," xlink:title="1" d="M13939.4531,-3542.7251L13939.5452,-3542.7793L13939.6341,-3542.8374L13939.6892,-3542.8744L13939.7514,-3542.9216L13939.765,-3542.9332L13939.7964,-3542.9601L13939.8107,-3542.9722L13939.8815,-3543.0344L13939.9421,-3543.0908"/>
<path content="1,中国JRバス（株）,広島～東京　ニューブリーズ号,2.0,2.0,2.0," xlink:title="1" d="M13939.4531,-3542.7251L13939.5452,-3542.7793L13939.6341,-3542.8374L13939.6892,-3542.8744L13939.7514,-3542.9216L13939.765,-3542.9332L13939.7964,-3542.9601L13939.8107,-3542.9722L13939.8815,-3543.0344L13939.9421,-3543.0908"/>
<path content="1,京成バス（株）,ファンタジアなごや号,0.5,0.5,0.5," xlink:title="1" d="M13939.4531,-3542.7251L13939.4919,-3542.7479L13939.5452,-3542.7793L13939.5805,-3542.8024L13939.6341,-3542.8374L13939.6893,-3542.8743L13939.7003,-3542.8827L13939.7532,-3542.9231L13939.765,-3542.9333L13939.7881,-3542.9529L13939.7965,-3542.9601L13939.8095,-3542.9712L13939.882,-3543.0348L13939.9421,-3543.0908"/>
<path content="1,京成バス（株）,奈良～上野・東京ディズニーリゾート,0.5,0.5,0.5," xlink:title="1" d="M13939.4531,-3542.7251L13939.4919,-3542.7479L13939.5452,-3542.7793L13939.5805,-3542.8024L13939.6341,-3542.8374L13939.6893,-3542.8743L13939.7003,-3542.8827L13939.7532,-3542.9231L13939.765,-3542.9333L13939.7881,-3542.9529L13939.7965,-3542.9601L13939.8095,-3542.9712L13939.882,-3543.0348L13939.9421,-3543.0908"/>
<path content="1,京成バス（株）,成田空港～新富士駅・沼津駅,2.0,2.0,2.0," xlink:title="1" d="M13939.4531,-3542.7251L13939.4919,-3542.7479L13939.5452,-3542.7793L13939.5805,-3542.8024L13939.6341,-3542.8374L13939.6893,-3542.8743L13939.7003,-3542.8827L13939.7532,-3542.9231L13939.765,-3542.9333L13939.7881,-3542.9529L13939.7965,-3542.9601L13939.8095,-3542.9712L13939.882,-3543.0348L13939.9421,-3543.0908"/>
<path content="1,京成バス（株）,成田空港～本厚木駅・平塚（田村車庫）,3.5,3.5,3.5," xlink:title="1" d="M13939.4531,-3542.7251L13939.4919,-3542.7479L13939.5452,-3542.7793L13939.5805,-3542.8024L13939.6341,-3542.8374L13939.6893,-3542.8743L13939.7003,-3542.8827L13939.7532,-3542.9231L13939.765,-3542.9333L13939.7881,-3542.9529L13939.7965,-3542.9601L13939.8095,-3542.9712L13939.882,-3543.0348L13939.9421,-3543.0908"/>
<path content="1,京成バス（株）,神戸・大阪～東京ディズニーリゾート・海浜幕張・千葉中央駅,0.5,0.5,0.5," xlink:title="1" d="M13939.4531,-3542.7251L13939.4919,-3542.7479L13939.5452,-3542.7793L13939.5805,-3542.8024L13939.6341,-3542.8374L13939.6893,-3542.8743L13939.7003,-3542.8827L13939.7532,-3542.9231L13939.765,-3542.9333L13939.7881,-3542.9529L13939.7965,-3542.9601L13939.8095,-3542.9712L13939.882,-3543.0348L13939.9421,-3543.0908"/>
<path content="1,京浜急行バス（株）,エディ号,2.0,2.0,2.0," xlink:title="1" d="M13939.4531,-3542.7251L13939.4919,-3542.7479L13939.5452,-3542.7793L13939.5805,-3542.8024L13939.6341,-3542.8374L13939.6893,-3542.8743L13939.7003,-3542.8827L13939.7532,-3542.9231L13939.765,-3542.9333L13939.7881,-3542.9529L13939.7965,-3542.9601L13939.8095,-3542.9712L13939.882,-3543.0348L13939.9421,-3543.0908"/>
<path content="1,京浜急行バス（株）,キャメル号,1.0,1.0,1.0," xlink:title="1" d="M13939.9421,-3543.0908L13939.882,-3543.0348L13939.8095,-3542.9712L13939.7965,-3542.9601L13939.7881,-3542.9529L13939.765,-3542.9333L13939.7532,-3542.9231L13939.7003,-3542.8827L13939.6893,-3542.8743L13939.6341,-3542.8374L13939.5805,-3542.8024L13939.5452,-3542.7793L13939.4919,-3542.7479L13939.4531,-3542.7251"/>
<path content="1,京浜急行バス（株）,シルフィード号,1.0,1.0,1.0," xlink:title="1" d="M13939.4531,-3542.7251L13939.4919,-3542.7479L13939.5452,-3542.7793L13939.5805,-3542.8024L13939.6341,-3542.8374L13939.6893,-3542.8743L13939.7003,-3542.8827L13939.7532,-3542.9231L13939.765,-3542.9333L13939.7881,-3542.9529L13939.7965,-3542.9601L13939.8095,-3542.9712L13939.882,-3543.0348L13939.9421,-3543.0908"/>
<path content="1,京浜急行バス（株）,パイレーツ号,1.0,1.0,1.0," xlink:title="1" d="M13939.4531,-3542.7251L13939.4919,-3542.7479L13939.5452,-3542.7793L13939.5805,-3542.8024L13939.6341,-3542.8374L13939.6893,-3542.8743L13939.7003,-3542.8827L13939.7532,-3542.9231L13939.765,-3542.9333L13939.7881,-3542.9529L13939.7965,-3542.9601L13939.8095,-3542.9712L13939.882,-3543.0348L13939.9421,-3543.0908"/>
<path content="1,京浜急行バス（株）,ルプラン号,1.0,1.0,1.0," xlink:title="1" d="M13939.4531,-3542.7251L13939.4919,-3542.7479L13939.5452,-3542.7793L13939.5805,-3542.8024L13939.6341,-3542.8374L13939.6893,-3542.8743L13939.7003,-3542.8827L13939.7532,-3542.9231L13939.765,-3542.9333L13939.7881,-3542.9529L13939.7965,-3542.9601L13939.8095,-3542.9712L13939.882,-3543.0348L13939.9421,-3543.0908"/>
<path content="1,京浜急行バス（株）,御殿場・箱根桃源台～羽田空港線,4.0,4.0,4.0," xlink:title="1" d="M13939.4531,-3542.7251L13939.4919,-3542.7479L13939.5452,-3542.7793L13939.5805,-3542.8024L13939.6341,-3542.8374L13939.6893,-3542.8743L13939.7003,-3542.8827L13939.7532,-3542.9231L13939.765,-3542.9333L13939.7881,-3542.9529L13939.7965,-3542.9601L13939.8095,-3542.9712L13939.882,-3543.0348L13939.9421,-3543.0908"/>
<path content="1,京浜急行バス（株）,新富士駅・富士宮駅～羽田空港線,2.0,2.0,2.0," xlink:title="1" d="M13939.4531,-3542.7251L13939.4919,-3542.7479L13939.5452,-3542.7793L13939.5805,-3542.8024L13939.6341,-3542.8374L13939.6893,-3542.8743L13939.7003,-3542.8827L13939.7532,-3542.9231L13939.765,-3542.9333L13939.7881,-3542.9529L13939.7965,-3542.9601L13939.8095,-3542.9712L13939.882,-3543.0348L13939.9421,-3543.0908"/>
<path content="1,京浜急行バス（株）,本厚木駅・田村車庫～羽田空港線,6.5,6.5,6.5," xlink:title="1" d="M13939.9421,-3543.0908L13939.882,-3543.0348L13939.8095,-3542.9712L13939.7965,-3542.9601L13939.7881,-3542.9529L13939.765,-3542.9333L13939.7532,-3542.9231L13939.7003,-3542.8827L13939.6893,-3542.8743L13939.6341,-3542.8374L13939.5805,-3542.8024L13939.5452,-3542.7793L13939.4919,-3542.7479L13939.4531,-3542.7251"/>
<path content="1,京王バス南（株）,新宿・渋谷～三島・沼津線,1.0,1.0,1.0," xlink:title="1" d="M13939.4531,-3542.7251L13939.4919,-3542.7479L13939.5452,-3542.7793L13939.5805,-3542.8024L13939.6341,-3542.8374L13939.6893,-3542.8743L13939.7003,-3542.8827L13939.7532,-3542.9231L13939.765,-3542.9333L13939.7881,-3542.9529L13939.7965,-3542.9601L13939.8095,-3542.9712L13939.882,-3543.0348L13939.9421,-3543.0908"/>
<path content="1,京王バス南（株）,新宿・渋谷～浜松線,1.0,1.0,1.0," xlink:title="1" d="M13939.4531,-3542.7251L13939.4919,-3542.7479L13939.5452,-3542.7793L13939.5805,-3542.8024L13939.6341,-3542.8374L13939.6893,-3542.8743L13939.7003,-3542.8827L13939.7532,-3542.9231L13939.765,-3542.9333L13939.7881,-3542.9529L13939.7965,-3542.9601L13939.8095,-3542.9712L13939.882,-3543.0348L13939.9421,-3543.0908"/>
<path content="1,京王バス南（株）,新宿・渋谷～神戸姫路線,1.0,1.0,1.0," xlink:title="1" d="M13939.4531,-3542.7251L13939.4919,-3542.7479L13939.5452,-3542.7793L13939.5805,-3542.8024L13939.6341,-3542.8374L13939.6893,-3542.8743L13939.7003,-3542.8827L13939.7532,-3542.9231L13939.765,-3542.9333L13939.7881,-3542.9529L13939.7965,-3542.9601L13939.8095,-3542.9712L13939.882,-3543.0348L13939.9421,-3543.0908"/>
<path content="1,京王バス南（株）,新宿・渋谷～静岡線,3.0,3.0,3.0," xlink:title="1" d="M13939.4531,-3542.7251L13939.4919,-3542.7479L13939.5452,-3542.7793L13939.5805,-3542.8024L13939.6341,-3542.8374L13939.6893,-3542.8743L13939.7003,-3542.8827L13939.7532,-3542.9231L13939.765,-3542.9333L13939.7881,-3542.9529L13939.7965,-3542.9601L13939.8095,-3542.9712L13939.882,-3543.0348L13939.9421,-3543.0908"/>
<path content="1,京福バス（株）,東京線,3.0,3.0,3.0," xlink:title="1" d="M13939.4531,-3542.7251L13939.5452,-3542.7793L13939.6341,-3542.8374L13939.6892,-3542.8744L13939.7514,-3542.9216L13939.765,-3542.9332L13939.7964,-3542.9601L13939.8107,-3542.9722L13939.8815,-3543.0344L13939.9421,-3543.0908"/>
<path content="1,京都交通（株）,舞鶴・綾部・福知山～東京,1.0,1.0,1.0," xlink:title="1" d="M13939.4531,-3542.7251L13939.5452,-3542.7793L13939.6341,-3542.8374L13939.6892,-3542.8744L13939.7514,-3542.9216L13939.765,-3542.9332L13939.7964,-3542.9601L13939.8107,-3542.9722L13939.8815,-3543.0344L13939.9421,-3543.0908"/>
<path content="1,京阪バス（株）,京都・大津⇔上野・TDR・千葉,1.0,1.0,1.0," xlink:title="1" d="M13939.4531,-3542.7251L13939.5452,-3542.7793L13939.6341,-3542.8374L13939.6892,-3542.8744L13939.7514,-3542.9216L13939.765,-3542.9332L13939.7964,-3542.9601L13939.8107,-3542.9722L13939.8815,-3543.0344L13939.9421,-3543.0908"/>
<path content="1,京阪バス（株）,枚方・京都⇔渋谷・新宿,1.0,1.0,1.0," xlink:title="1" d="M13939.4531,-3542.7251L13939.5452,-3542.7793L13939.6341,-3542.8374L13939.6892,-3542.8744L13939.7514,-3542.9216L13939.765,-3542.9332L13939.7964,-3542.9601L13939.8107,-3542.9722L13939.8815,-3543.0344L13939.9421,-3543.0908"/>
<path content="1,北陸鉄道（株）,高速バス　金沢⇔横浜,1.0,1.0,1.0," xlink:title="1" d="M13939.9421,-3543.0908L13939.8815,-3543.0344L13939.8107,-3542.9722L13939.7964,-3542.9601L13939.765,-3542.9332L13939.7514,-3542.9216L13939.6892,-3542.8744L13939.6341,-3542.8374L13939.5452,-3542.7793L13939.4531,-3542.7251"/>
<path content="1,千葉中央バス,京都～上野・東京ディズニーリゾート,1.0,1.0,1.0," xlink:title="1" d="M13939.4531,-3542.7251L13939.4919,-3542.7479L13939.5452,-3542.7793L13939.5805,-3542.8024L13939.6341,-3542.8374L13939.6893,-3542.8743L13939.7003,-3542.8827L13939.7532,-3542.9231L13939.765,-3542.9333L13939.7881,-3542.9529L13939.7965,-3542.9601L13939.8095,-3542.9712L13939.882,-3543.0348L13939.9421,-3543.0908"/>
<path content="1,千葉交通,大阪なんば・京都駅～成田・銚子線,1.0,1.0,1.0," xlink:title="1" d="M13939.4531,-3542.7251L13939.4919,-3542.7479L13939.5452,-3542.7793L13939.5805,-3542.8024L13939.6341,-3542.8374L13939.6893,-3542.8743L13939.7003,-3542.8827L13939.7532,-3542.9231L13939.765,-3542.9333L13939.7881,-3542.9529L13939.7965,-3542.9601L13939.8095,-3542.9712L13939.882,-3543.0348L13939.9421,-3543.0908"/>
<path content="1,南海バス（株）,和歌山・和泉中央・堺東⇔新宿・東京,1.0,1.0,1.0," xlink:title="1" d="M13939.4531,-3542.7251L13939.5452,-3542.7793L13939.6341,-3542.8374L13939.6892,-3542.8744L13939.7514,-3542.9216L13939.765,-3542.9332L13939.7964,-3542.9601L13939.8107,-3542.9722L13939.8815,-3543.0344L13939.9421,-3543.0908"/>
<path content="1,南海バス（株）,堺・大阪（なんば）⇔新宿・東京,1.0,1.0,1.0," xlink:title="1" d="M13939.4531,-3542.7251L13939.5452,-3542.7793L13939.6341,-3542.8374L13939.6892,-3542.8744L13939.7514,-3542.9216L13939.765,-3542.9332L13939.7964,-3542.9601L13939.8107,-3542.9722L13939.8815,-3543.0344L13939.9421,-3543.0908"/>
<path content="1,南海バス（株）,大阪（なんば）・京都⇔秋葉原・成田空港・銚子,1.0,1.0,1.0," xlink:title="1" d="M13939.4531,-3542.7251L13939.5452,-3542.7793L13939.6341,-3542.8374L13939.6892,-3542.8744L13939.7514,-3542.9216L13939.765,-3542.9332L13939.7964,-3542.9601L13939.8107,-3542.9722L13939.8815,-3543.0344L13939.9421,-3543.0908"/>
<path content="1,名鉄バス（株）,名古屋～仙台,1.0,1.0,1.0," xlink:title="1" d="M13939.9421,-3543.0908L13939.8815,-3543.0344L13939.8107,-3542.9722L13939.7964,-3542.9601L13939.765,-3542.9332L13939.7514,-3542.9216L13939.6892,-3542.8744L13939.6341,-3542.8374L13939.5452,-3542.7793L13939.4531,-3542.7251"/>
<path content="1,和歌山バス（株）,サウスウエーブ号和歌山・堺⇔横浜・上野・東京ディズニーリゾート・海浜幕張,1.0,1.0,1.0," xlink:title="1" d="M13939.4531,-3542.7251L13939.5452,-3542.7793L13939.6341,-3542.8374L13939.6892,-3542.8744L13939.7514,-3542.9216L13939.765,-3542.9332L13939.7964,-3542.9601L13939.8107,-3542.9722L13939.8815,-3543.0344L13939.9421,-3543.0908"/>
<path content="1,四国高速バス（株）,ハローブリッジ号　善通寺・坂出⇔横浜・新宿・八王子,1.0,1.0,1.0," xlink:title="1" d="M13939.4531,-3542.7251L13939.5452,-3542.7793L13939.6341,-3542.8374L13939.6892,-3542.8744L13939.7514,-3542.9216L13939.765,-3542.9332L13939.7964,-3542.9601L13939.8107,-3542.9722L13939.8815,-3543.0344L13939.9421,-3543.0908"/>
<path content="1,土佐電気鉄道（株）,ブルーメッツ号　高知⇔東京線,1.0,1.0,1.0," xlink:title="1" d="M13939.4531,-3542.7251L13939.5452,-3542.7793L13939.6341,-3542.8374L13939.6892,-3542.8744L13939.7514,-3542.9216L13939.765,-3542.9332L13939.7964,-3542.9601L13939.8107,-3542.9722L13939.8815,-3543.0344L13939.9421,-3543.0908"/>
<path content="1,奈良交通（株）,やまと号　五條-新宿線,1.0,1.0,1.0," xlink:title="1" d="M13939.4531,-3542.7251L13939.5452,-3542.7793L13939.6341,-3542.8374L13939.6892,-3542.8744L13939.7514,-3542.9216L13939.765,-3542.9332L13939.7964,-3542.9601L13939.8107,-3542.9722L13939.8815,-3543.0344L13939.9421,-3543.0908"/>
<path content="1,奈良交通（株）,やまと号　奈良-新宿線,1.0,1.0,1.0," xlink:title="1" d="M13939.4531,-3542.7251L13939.5452,-3542.7793L13939.6341,-3542.8374L13939.6892,-3542.8744L13939.7514,-3542.9216L13939.765,-3542.9332L13939.7964,-3542.9601L13939.8107,-3542.9722L13939.8815,-3543.0344L13939.9421,-3543.0908"/>
<path content="1,奈良交通（株）,やまと号　奈良-東京ディズニーリゾート・横浜線,1.0,1.0,1.0," xlink:title="1" d="M13939.4531,-3542.7251L13939.5452,-3542.7793L13939.6341,-3542.8374L13939.6892,-3542.8744L13939.7514,-3542.9216L13939.765,-3542.9332L13939.7964,-3542.9601L13939.8107,-3542.9722L13939.8815,-3543.0344L13939.9421,-3543.0908"/>
<path content="1,宇和島自動車（株）,宇和島・松山⇔横浜・池袋・大宮,1.0,1.0,1.0," xlink:title="1" d="M13939.4531,-3542.7251L13939.5452,-3542.7793L13939.6341,-3542.8374L13939.6892,-3542.8744L13939.7514,-3542.9216L13939.765,-3542.9332L13939.7964,-3542.9601L13939.8107,-3542.9722L13939.8815,-3543.0344L13939.9421,-3543.0908"/>
<path content="1,宮城交通（株）,仙台～名古屋線,1.0,1.0,1.0," xlink:title="1" d="M13939.4531,-3542.7251L13939.4919,-3542.7479L13939.5452,-3542.7793L13939.5805,-3542.8024L13939.6341,-3542.8374L13939.6893,-3542.8743L13939.7003,-3542.8827L13939.7532,-3542.9231L13939.765,-3542.9333L13939.7881,-3542.9529L13939.7965,-3542.9601L13939.8095,-3542.9712L13939.882,-3543.0348L13939.9421,-3543.0908"/>
<path content="1,宮城交通（株）,仙台～大阪線,1.0,1.0,1.0," xlink:title="1" d="M13939.9421,-3543.0908L13939.882,-3543.0348L13939.8095,-3542.9712L13939.7965,-3542.9601L13939.7881,-3542.9529L13939.765,-3542.9333L13939.7532,-3542.9231L13939.7003,-3542.8827L13939.6893,-3542.8743L13939.6341,-3542.8374L13939.5805,-3542.8024L13939.5452,-3542.7793L13939.4919,-3542.7479L13939.4531,-3542.7251"/>
<path content="1,富士急シティバス（株）,さんさんぬまづ・新宿号,2.5,2.5,2.5," xlink:title="1" d="M13939.4531,-3542.7251L13939.5452,-3542.7793L13939.6341,-3542.8374L13939.6892,-3542.8744L13939.7514,-3542.9216L13939.765,-3542.9332L13939.7964,-3542.9601L13939.8107,-3542.9722L13939.8815,-3543.0344L13939.9421,-3543.0908"/>
<path content="1,富士急シティバス（株）,さんさんぬまづ・東京号,3.0,3.0,3.0," xlink:title="1" d="M13939.4531,-3542.7251L13939.5452,-3542.7793L13939.6341,-3542.8374L13939.6892,-3542.8744L13939.7514,-3542.9216L13939.765,-3542.9332L13939.7964,-3542.9601L13939.8107,-3542.9722L13939.8815,-3543.0344L13939.9421,-3543.0908"/>
<path content="1,富士急シティバス（株）,みしまコロッケ号,1.5,1.5,1.5," xlink:title="1" d="M13939.4531,-3542.7251L13939.5452,-3542.7793L13939.6341,-3542.8374L13939.6892,-3542.8744L13939.7514,-3542.9216L13939.765,-3542.9332L13939.7964,-3542.9601L13939.8107,-3542.9722L13939.8815,-3543.0344L13939.9421,-3543.0908"/>
<path content="1,富士急湘南バス（株）,小田原～成田空港線,3.0,3.0,3.0," xlink:title="1" d="M13939.4531,-3542.7251L13939.4919,-3542.7479L13939.5452,-3542.7793L13939.5805,-3542.8024L13939.6341,-3542.8374L13939.6893,-3542.8743L13939.7003,-3542.8827L13939.7532,-3542.9231L13939.765,-3542.9333L13939.7881,-3542.9529L13939.7965,-3542.9601L13939.8095,-3542.9712L13939.882,-3543.0348L13939.9421,-3543.0908"/>
<path content="1,富士急行（株）,かぐや姫EXPRESS,3.0,3.0,3.0," xlink:title="1" d="M13939.4531,-3542.7251L13939.4919,-3542.7479L13939.5452,-3542.7793L13939.5805,-3542.8024L13939.6341,-3542.8374L13939.6893,-3542.8743L13939.7003,-3542.8827L13939.7532,-3542.9231L13939.765,-3542.9333L13939.7881,-3542.9529L13939.7965,-3542.9601L13939.8095,-3542.9712L13939.882,-3543.0348L13939.9421,-3543.0908"/>
<path content="1,富士急行（株）,みしまコロッケ号,1.5,1.5,1.5," xlink:title="1" d="M13939.4531,-3542.7251L13939.4919,-3542.7479L13939.5452,-3542.7793L13939.5805,-3542.8024L13939.6341,-3542.8374L13939.6893,-3542.8743L13939.7003,-3542.8827L13939.7532,-3542.9231L13939.765,-3542.9333L13939.7881,-3542.9529L13939.7965,-3542.9601L13939.8095,-3542.9712L13939.882,-3543.0348L13939.9421,-3543.0908"/>
<path content="1,富士急行（株）,ヤキソバEXPRESS,5.5,6.0,6.0," xlink:title="1" d="M13939.4531,-3542.7251L13939.4919,-3542.7479L13939.5452,-3542.7793L13939.5805,-3542.8024L13939.6341,-3542.8374L13939.6893,-3542.8743L13939.7003,-3542.8827L13939.7532,-3542.9231L13939.765,-3542.9333L13939.7881,-3542.9529L13939.7965,-3542.9601L13939.8095,-3542.9712L13939.882,-3543.0348L13939.9421,-3543.0908"/>
<path content="1,富士急行（株）,レイクライナー,3.2,3.2,3.2," xlink:title="1" d="M13939.4531,-3542.7251L13939.4919,-3542.7479L13939.5452,-3542.7793L13939.5805,-3542.8024L13939.6341,-3542.8374L13939.6893,-3542.8743L13939.7003,-3542.8827L13939.7532,-3542.9231L13939.765,-3542.9333L13939.7881,-3542.9529L13939.7965,-3542.9601L13939.8095,-3542.9712L13939.882,-3543.0348L13939.9421,-3543.0908"/>
<path content="1,富士急行（株）,富士宮・富士・沼津～羽田空港・横浜線,2.0,2.0,2.0," xlink:title="1" d="M13939.4531,-3542.7251L13939.4919,-3542.7479L13939.5452,-3542.7793L13939.5805,-3542.8024L13939.6341,-3542.8374L13939.6893,-3542.8743L13939.7003,-3542.8827L13939.7532,-3542.9231L13939.765,-3542.9333L13939.7881,-3542.9529L13939.7965,-3542.9601L13939.8095,-3542.9712L13939.882,-3543.0348L13939.9421,-3543.0908"/>
<path content="1,富士急行（株）,小田原～成田空港線,3.0,3.0,3.0," xlink:title="1" d="M13939.4531,-3542.7251L13939.4919,-3542.7479L13939.5452,-3542.7793L13939.5805,-3542.8024L13939.6341,-3542.8374L13939.6893,-3542.8743L13939.7003,-3542.8827L13939.7532,-3542.9231L13939.765,-3542.9333L13939.7881,-3542.9529L13939.7965,-3542.9601L13939.8095,-3542.9712L13939.882,-3543.0348L13939.9421,-3543.0908"/>
<path content="1,富士急行（株）,御殿場プレミアム・アウトレット～横浜線,0.0,1.0,1.0," xlink:title="1" d="M13939.4531,-3542.7251L13939.4919,-3542.7479L13939.5452,-3542.7793L13939.5805,-3542.8024L13939.6341,-3542.8374L13939.6893,-3542.8743L13939.7003,-3542.8827L13939.7532,-3542.9231L13939.765,-3542.9333L13939.7881,-3542.9529L13939.7965,-3542.9601L13939.8095,-3542.9712L13939.882,-3543.0348L13939.9421,-3543.0908"/>
<path content="1,富士急行（株）,新富士・沼津・御殿場～成田空港線,2.0,2.0,2.0," xlink:title="1" d="M13939.4531,-3542.7251L13939.4919,-3542.7479L13939.5452,-3542.7793L13939.5805,-3542.8024L13939.6341,-3542.8374L13939.6893,-3542.8743L13939.7003,-3542.8827L13939.7532,-3542.9231L13939.765,-3542.9333L13939.7881,-3542.9529L13939.7965,-3542.9601L13939.8095,-3542.9712L13939.882,-3543.0348L13939.9421,-3543.0908"/>
<path content="1,富士急行（株）,早朝線東京ライナー,0.0,0.0,0.0," xlink:title="1" d="M13939.4531,-3542.7251L13939.4919,-3542.7479L13939.5452,-3542.7793L13939.5805,-3542.8024L13939.6341,-3542.8374L13939.6893,-3542.8743L13939.7003,-3542.8827L13939.7532,-3542.9231L13939.765,-3542.9333L13939.7881,-3542.9529L13939.7965,-3542.9601L13939.8095,-3542.9712L13939.882,-3543.0348L13939.9421,-3543.0908"/>
<path content="1,富士急行（株）,河口湖～東京・市が尾線,8.2,10.0,10.0," xlink:title="1" d="M13939.4531,-3542.7251L13939.4919,-3542.7479L13939.5452,-3542.7793L13939.5805,-3542.8024L13939.6341,-3542.8374L13939.6893,-3542.8743L13939.7003,-3542.8827L13939.7532,-3542.9231L13939.765,-3542.9333L13939.7881,-3542.9529L13939.7965,-3542.9601L13939.8095,-3542.9712L13939.882,-3543.0348L13939.9421,-3543.0908"/>
<path content="1,富士急行（株）,沼津～新宿・渋谷線,2.5,2.5,2.5," xlink:title="1" d="M13939.4531,-3542.7251L13939.4919,-3542.7479L13939.5452,-3542.7793L13939.5805,-3542.8024L13939.6341,-3542.8374L13939.6893,-3542.8743L13939.7003,-3542.8827L13939.7532,-3542.9231L13939.765,-3542.9333L13939.7881,-3542.9529L13939.7965,-3542.9601L13939.8095,-3542.9712L13939.882,-3543.0348L13939.9421,-3543.0908"/>
<path content="1,富士急行（株）,沼津～東京線,3.0,3.0,3.0," xlink:title="1" d="M13939.4531,-3542.7251L13939.4919,-3542.7479L13939.5452,-3542.7793L13939.5805,-3542.8024L13939.6341,-3542.8374L13939.6893,-3542.8743L13939.7003,-3542.8827L13939.7532,-3542.9231L13939.765,-3542.9333L13939.7881,-3542.9529L13939.7965,-3542.9601L13939.8095,-3542.9712L13939.882,-3543.0348L13939.9421,-3543.0908"/>
<path content="1,富士急静岡バス（株）,かぐや姫EXPRESS,2.5,1.0,1.0," xlink:title="1" d="M13939.4531,-3542.7251L13939.5452,-3542.7793L13939.6341,-3542.8374L13939.6892,-3542.8744L13939.7514,-3542.9216L13939.765,-3542.9332L13939.7964,-3542.9601L13939.8107,-3542.9722L13939.8815,-3543.0344L13939.9421,-3543.0908"/>
<path content="1,富士急静岡バス（株）,ヤキソバEXPRESS,5.5,3.0,3.0," xlink:title="1" d="M13939.4531,-3542.7251L13939.5452,-3542.7793L13939.6341,-3542.8374L13939.6892,-3542.8744L13939.7514,-3542.9216L13939.765,-3542.9332L13939.7964,-3542.9601L13939.8107,-3542.9722L13939.8815,-3543.0344L13939.9421,-3543.0908"/>
<path content="1,富士急静岡バス（株）,富士宮・富士・沼津～羽田空港・横浜線,4.0,4.0,4.0," xlink:title="1" d="M13939.4531,-3542.7251L13939.5452,-3542.7793L13939.6341,-3542.8374L13939.6892,-3542.8744L13939.7514,-3542.9216L13939.765,-3542.9332L13939.7964,-3542.9601L13939.8107,-3542.9722L13939.8815,-3543.0344L13939.9421,-3543.0908"/>
<path content="1,富士急静岡バス（株）,新富士・沼津・御殿場～成田空港線,2.0,2.0,2.0," xlink:title="1" d="M13939.4531,-3542.7251L13939.5452,-3542.7793L13939.6341,-3542.8374L13939.6892,-3542.8744L13939.7514,-3542.9216L13939.765,-3542.9332L13939.7964,-3542.9601L13939.8107,-3542.9722L13939.8815,-3543.0344L13939.9421,-3543.0908"/>
<path content="1,小田急シティバス（株）,しまんとエクスプレス号,0.1,0.1,0.1," xlink:title="1" d="M13939.4531,-3542.7251L13939.4919,-3542.7479L13939.5452,-3542.7793L13939.5805,-3542.8024L13939.6341,-3542.8374L13939.6893,-3542.8743L13939.7003,-3542.8827L13939.7532,-3542.9231L13939.765,-3542.9333L13939.7881,-3542.9529L13939.7965,-3542.9601L13939.8095,-3542.9712L13939.882,-3543.0348L13939.9421,-3543.0908"/>
<path content="1,小田急シティバス（株）,エトワールセト号,1.0,1.0,1.0," xlink:title="1" d="M13939.4531,-3542.7251L13939.4919,-3542.7479L13939.5452,-3542.7793L13939.5805,-3542.8024L13939.6341,-3542.8374L13939.6893,-3542.8743L13939.7003,-3542.8827L13939.7532,-3542.9231L13939.765,-3542.9333L13939.7881,-3542.9529L13939.7965,-3542.9601L13939.8095,-3542.9712L13939.882,-3543.0348L13939.9421,-3543.0908"/>
<path content="1,小田急シティバス（株）,ニューブリーズ号,2.0,2.0,2.0," xlink:title="1" d="M13939.4531,-3542.7251L13939.4919,-3542.7479L13939.5452,-3542.7793L13939.5805,-3542.8024L13939.6341,-3542.8374L13939.6893,-3542.8743L13939.7003,-3542.8827L13939.7532,-3542.9231L13939.765,-3542.9333L13939.7881,-3542.9529L13939.7965,-3542.9601L13939.8095,-3542.9712L13939.882,-3543.0348L13939.9421,-3543.0908"/>
<path content="1,小田急シティバス（株）,パピヨン号,1.0,1.0,1.0," xlink:title="1" d="M13939.4531,-3542.7251L13939.4919,-3542.7479L13939.5452,-3542.7793L13939.5805,-3542.8024L13939.6341,-3542.8374L13939.6893,-3542.8743L13939.7003,-3542.8827L13939.7532,-3542.9231L13939.765,-3542.9333L13939.7881,-3542.9529L13939.7965,-3542.9601L13939.8095,-3542.9712L13939.882,-3543.0348L13939.9421,-3543.0908"/>
<path content="1,小田急シティバス（株）,ブルーメッツ号,1.0,1.0,1.0," xlink:title="1" d="M13939.4531,-3542.7251L13939.4919,-3542.7479L13939.5452,-3542.7793L13939.5805,-3542.8024L13939.6341,-3542.8374L13939.6893,-3542.8743L13939.7003,-3542.8827L13939.7532,-3542.9231L13939.765,-3542.9333L13939.7881,-3542.9529L13939.7965,-3542.9601L13939.8095,-3542.9712L13939.882,-3543.0348L13939.9421,-3543.0908"/>
<path content="1,小田急シティバス（株）,ルミナス号,1.0,1.0,1.0," xlink:title="1" d="M13939.9421,-3543.0908L13939.882,-3543.0348L13939.8095,-3542.9712L13939.7965,-3542.9601L13939.7881,-3542.9529L13939.765,-3542.9333L13939.7532,-3542.9231L13939.7003,-3542.8827L13939.6893,-3542.8743L13939.6341,-3542.8374L13939.5805,-3542.8024L13939.5452,-3542.7793L13939.4919,-3542.7479L13939.4531,-3542.7251"/>
<path content="1,小田急バス（株）,しまんとエクスプレス号,1.0,1.0,1.0," xlink:title="1" d="M13939.4531,-3542.7251L13939.4919,-3542.7479L13939.5452,-3542.7793L13939.5805,-3542.8024L13939.6341,-3542.8374L13939.6893,-3542.8743L13939.7003,-3542.8827L13939.7532,-3542.9231L13939.765,-3542.9333L13939.7881,-3542.9529L13939.7965,-3542.9601L13939.8095,-3542.9712L13939.882,-3543.0348L13939.9421,-3543.0908"/>
<path content="1,小田急バス（株）,エトワールセト号,1.0,1.0,1.0," xlink:title="1" d="M13939.4531,-3542.7251L13939.4919,-3542.7479L13939.5452,-3542.7793L13939.5805,-3542.8024L13939.6341,-3542.8374L13939.6893,-3542.8743L13939.7003,-3542.8827L13939.7532,-3542.9231L13939.765,-3542.9333L13939.7881,-3542.9529L13939.7965,-3542.9601L13939.8095,-3542.9712L13939.882,-3543.0348L13939.9421,-3543.0908"/>
<path content="1,小田急バス（株）,ニューブリーズ号,2.0,2.0,2.0," xlink:title="1" d="M13939.4531,-3542.7251L13939.4919,-3542.7479L13939.5452,-3542.7793L13939.5805,-3542.8024L13939.6341,-3542.8374L13939.6893,-3542.8743L13939.7003,-3542.8827L13939.7532,-3542.9231L13939.765,-3542.9333L13939.7881,-3542.9529L13939.7965,-3542.9601L13939.8095,-3542.9712L13939.882,-3543.0348L13939.9421,-3543.0908"/>
<path content="1,小田急バス（株）,パピヨン号,1.0,1.0,1.0," xlink:title="1" d="M13939.4531,-3542.7251L13939.4919,-3542.7479L13939.5452,-3542.7793L13939.5805,-3542.8024L13939.6341,-3542.8374L13939.6893,-3542.8743L13939.7003,-3542.8827L13939.7532,-3542.9231L13939.765,-3542.9333L13939.7881,-3542.9529L13939.7965,-3542.9601L13939.8095,-3542.9712L13939.882,-3543.0348L13939.9421,-3543.0908"/>
<path content="1,小田急バス（株）,ブルーメッツ号,1.0,1.0,1.0," xlink:title="1" d="M13939.4531,-3542.7251L13939.4919,-3542.7479L13939.5452,-3542.7793L13939.5805,-3542.8024L13939.6341,-3542.8374L13939.6893,-3542.8743L13939.7003,-3542.8827L13939.7532,-3542.9231L13939.765,-3542.9333L13939.7881,-3542.9529L13939.7965,-3542.9601L13939.8095,-3542.9712L13939.882,-3543.0348L13939.9421,-3543.0908"/>
<path content="1,小田急バス（株）,ルミナス号,1.0,1.0,1.0," xlink:title="1" d="M13939.9421,-3543.0908L13939.882,-3543.0348L13939.8095,-3542.9712L13939.7965,-3542.9601L13939.7881,-3542.9529L13939.765,-3542.9333L13939.7532,-3542.9231L13939.7003,-3542.8827L13939.6893,-3542.8743L13939.6341,-3542.8374L13939.5805,-3542.8024L13939.5452,-3542.7793L13939.4919,-3542.7479L13939.4531,-3542.7251"/>
<path content="1,小田急箱根高速バス,ふじやま号,0.2,1.1,1.0," xlink:title="1" d="M13939.4531,-3542.7251L13939.4919,-3542.7479L13939.5452,-3542.7793L13939.5805,-3542.8024L13939.6341,-3542.8374L13939.6893,-3542.8743L13939.7003,-3542.8827L13939.7532,-3542.9231L13939.765,-3542.9333L13939.7881,-3542.9529L13939.7965,-3542.9601L13939.8095,-3542.9712L13939.882,-3543.0348L13939.9421,-3543.0908"/>
<path content="1,小田急箱根高速バス,三島エクスプレス,3.0,3.0,3.0," xlink:title="1" d="M13939.4531,-3542.7251L13939.4919,-3542.7479L13939.5452,-3542.7793L13939.5805,-3542.8024L13939.6341,-3542.8374L13939.6893,-3542.8743L13939.7003,-3542.8827L13939.7532,-3542.9231L13939.765,-3542.9333L13939.7881,-3542.9529L13939.7965,-3542.9601L13939.8095,-3542.9712L13939.882,-3543.0348L13939.9421,-3543.0908"/>
<path content="1,小田急箱根高速バス,伊豆・新宿ライナー,2.0,2.0,2.0," xlink:title="1" d="M13939.4531,-3542.7251L13939.4919,-3542.7479L13939.5452,-3542.7793L13939.5805,-3542.8024L13939.6341,-3542.8374L13939.6893,-3542.8743L13939.7003,-3542.8827L13939.7532,-3542.9231L13939.765,-3542.9333L13939.7881,-3542.9529L13939.7965,-3542.9601L13939.8095,-3542.9712L13939.882,-3543.0348L13939.9421,-3543.0908"/>
<path content="1,小田急箱根高速バス,御殿場プレミアム・アウトレット・新宿駅線,1.0,1.0,1.0," xlink:title="1" d="M13939.9421,-3543.0908L13939.882,-3543.0348L13939.8095,-3542.9712L13939.7965,-3542.9601L13939.7881,-3542.9529L13939.765,-3542.9333L13939.7532,-3542.9231L13939.7003,-3542.8827L13939.6893,-3542.8743L13939.6341,-3542.8374L13939.5805,-3542.8024L13939.5452,-3542.7793L13939.4919,-3542.7479L13939.4531,-3542.7251"/>
<path content="1,小田急箱根高速バス,新宿・箱根線,32.9,29.0,32.5," xlink:title="1" d="M13939.4531,-3542.7251L13939.4919,-3542.7479L13939.5452,-3542.7793L13939.5805,-3542.8024L13939.6341,-3542.8374L13939.6893,-3542.8743L13939.7003,-3542.8827L13939.7532,-3542.9231L13939.765,-3542.9333L13939.7881,-3542.9529L13939.7965,-3542.9601L13939.8095,-3542.9712L13939.882,-3543.0348L13939.9421,-3543.0908"/>
<path content="1,小田急箱根高速バス,箱根桃源台～御殿場～羽田空港,4.0,4.0,4.0," xlink:title="1" d="M13939.4531,-3542.7251L13939.4919,-3542.7479L13939.5452,-3542.7793L13939.5805,-3542.8024L13939.6341,-3542.8374L13939.6893,-3542.8743L13939.7003,-3542.8827L13939.7532,-3542.9231L13939.765,-3542.9333L13939.7881,-3542.9529L13939.7965,-3542.9601L13939.8095,-3542.9712L13939.882,-3543.0348L13939.9421,-3543.0908"/>
<path content="1,徳島バス（株）,徳島⇔東京,2.0,2.0,2.0," xlink:title="1" d="M13939.4531,-3542.7251L13939.5452,-3542.7793L13939.6341,-3542.8374L13939.6892,-3542.8744L13939.7514,-3542.9216L13939.765,-3542.9332L13939.7964,-3542.9601L13939.8107,-3542.9722L13939.8815,-3543.0344L13939.9421,-3543.0908"/>
<path content="1,成田空港交通,和歌山線,1.0,1.0,1.0," xlink:title="1" d="M13939.4531,-3542.7251L13939.4919,-3542.7479L13939.5452,-3542.7793L13939.5805,-3542.8024L13939.6341,-3542.8374L13939.6893,-3542.8743L13939.7003,-3542.8827L13939.7532,-3542.9231L13939.765,-3542.9333L13939.7881,-3542.9529L13939.7965,-3542.9601L13939.8095,-3542.9712L13939.882,-3543.0348L13939.9421,-3543.0908"/>
<path content="1,新常磐交通（株）,シーガル号,1.0,1.0,1.0," xlink:title="1" d="M13939.4531,-3542.7251L13939.4919,-3542.7479L13939.5452,-3542.7793L13939.5805,-3542.8024L13939.6341,-3542.8374L13939.6893,-3542.8743L13939.7003,-3542.8827L13939.7532,-3542.9231L13939.765,-3542.9333L13939.7881,-3542.9529L13939.7965,-3542.9601L13939.8095,-3542.9712L13939.882,-3543.0348L13939.9421,-3543.0908"/>
<path content="1,日ノ丸自動車（株）,東京‐米子線,1.0,1.0,1.0," xlink:title="1" d="M13939.4531,-3542.7251L13939.5452,-3542.7793L13939.6341,-3542.8374L13939.6892,-3542.8744L13939.7514,-3542.9216L13939.765,-3542.9332L13939.7964,-3542.9601L13939.8107,-3542.9722L13939.8815,-3543.0344L13939.9421,-3543.0908"/>
<path content="1,日ノ丸自動車（株）,東京‐鳥取・倉吉線,1.0,1.0,1.0," xlink:title="1" d="M13939.4531,-3542.7251L13939.5452,-3542.7793L13939.6341,-3542.8374L13939.6892,-3542.8744L13939.7514,-3542.9216L13939.765,-3542.9332L13939.7964,-3542.9601L13939.8107,-3542.9722L13939.8815,-3543.0344L13939.9421,-3543.0908"/>
<path content="1,日本中央バス（株）,シルクライナー,5.0,5.0,5.0," xlink:title="1" d="M13939.4531,-3542.7251L13939.4919,-3542.7479L13939.5452,-3542.7793L13939.5805,-3542.8024L13939.6341,-3542.8374L13939.6893,-3542.8743L13939.7003,-3542.8827L13939.7532,-3542.9231L13939.765,-3542.9333L13939.7881,-3542.9529L13939.7965,-3542.9601L13939.8095,-3542.9712L13939.882,-3543.0348L13939.9421,-3543.0908"/>
<path content="1,日本中央バス（株）,東海ライナー,2.0,2.0,2.0," xlink:title="1" d="M13939.4531,-3542.7251L13939.4919,-3542.7479L13939.5452,-3542.7793L13939.5805,-3542.8024L13939.6341,-3542.8374L13939.6893,-3542.8743L13939.7003,-3542.8827L13939.7532,-3542.9231L13939.765,-3542.9333L13939.7881,-3542.9529L13939.7965,-3542.9601L13939.8095,-3542.9712L13939.882,-3543.0348L13939.9421,-3543.0908"/>
<path content="1,日本交通（株）,米子～東京線,1.0,1.0,1.0," xlink:title="1" d="M13939.4531,-3542.7251L13939.5452,-3542.7793L13939.6341,-3542.8374L13939.6892,-3542.8744L13939.7514,-3542.9216L13939.765,-3542.9332L13939.7964,-3542.9601L13939.8107,-3542.9722L13939.8815,-3543.0344L13939.9421,-3543.0908"/>
<path content="1,日本交通（株）,鳥取・倉吉～東京線,1.0,1.0,1.0," xlink:title="1" d="M13939.4531,-3542.7251L13939.5452,-3542.7793L13939.6341,-3542.8374L13939.6892,-3542.8744L13939.7514,-3542.9216L13939.765,-3542.9332L13939.7964,-3542.9601L13939.8107,-3542.9722L13939.8815,-3543.0344L13939.9421,-3543.0908"/>
<path content="1,東北急行バス（株）,ままかりライナー,1.0,1.0,1.0," xlink:title="1" d="M13939.4531,-3542.7251L13939.4919,-3542.7479L13939.5452,-3542.7793L13939.5805,-3542.8024L13939.6341,-3542.8374L13939.6893,-3542.8743L13939.7003,-3542.8827L13939.7532,-3542.9231L13939.765,-3542.9333L13939.7881,-3542.9529L13939.7965,-3542.9601L13939.8095,-3542.9712L13939.882,-3543.0348L13939.9421,-3543.0908"/>
<path content="1,東北急行バス（株）,フライングスニーカー京都・茨木号,1.0,1.0,1.0," xlink:title="1" d="M13939.9421,-3543.0908L13939.882,-3543.0348L13939.8095,-3542.9712L13939.7965,-3542.9601L13939.7881,-3542.9529L13939.765,-3542.9333L13939.7532,-3542.9231L13939.7003,-3542.8827L13939.6893,-3542.8743L13939.6341,-3542.8374L13939.5805,-3542.8024L13939.5452,-3542.7793L13939.4919,-3542.7479L13939.4531,-3542.7251"/>
<path content="1,東北急行バス（株）,フライングスニーカー大坂号,1.0,1.0,1.0," xlink:title="1" d="M13939.9421,-3543.0908L13939.882,-3543.0348L13939.8095,-3542.9712L13939.7965,-3542.9601L13939.7881,-3542.9529L13939.765,-3542.9333L13939.7532,-3542.9231L13939.7003,-3542.8827L13939.6893,-3542.8743L13939.6341,-3542.8374L13939.5805,-3542.8024L13939.5452,-3542.7793L13939.4919,-3542.7479L13939.4531,-3542.7251"/>
<path content="1,東北急行バス（株）,フライングライナー号,1.0,1.0,1.0," xlink:title="1" d="M13939.9421,-3543.0908L13939.882,-3543.0348L13939.8095,-3542.9712L13939.7965,-3542.9601L13939.7881,-3542.9529L13939.765,-3542.9333L13939.7532,-3542.9231L13939.7003,-3542.8827L13939.6893,-3542.8743L13939.6341,-3542.8374L13939.5805,-3542.8024L13939.5452,-3542.7793L13939.4919,-3542.7479L13939.4531,-3542.7251"/>
<path content="1,江ノ電バス藤沢,横浜・鎌倉・藤沢～金沢線,1.0,1.0,1.0," xlink:title="1" d="M13939.9421,-3543.0908L13939.882,-3543.0348L13939.8095,-3542.9712L13939.7965,-3542.9601L13939.7881,-3542.9529L13939.765,-3542.9333L13939.7532,-3542.9231L13939.7003,-3542.8827L13939.6893,-3542.8743L13939.6341,-3542.8374L13939.5805,-3542.8024L13939.5452,-3542.7793L13939.4919,-3542.7479L13939.4531,-3542.7251"/>
<path content="1,瀬戸内運輸（株）,パイレーツ　今治⇔東京,1.0,1.0,1.0," xlink:title="1" d="M13939.4531,-3542.7251L13939.5452,-3542.7793L13939.6341,-3542.8374L13939.6892,-3542.8744L13939.7514,-3542.9216L13939.765,-3542.9332L13939.7964,-3542.9601L13939.8107,-3542.9722L13939.8815,-3543.0344L13939.9421,-3543.0908"/>
<path content="1,琴平バス（株）,愛媛・高知シャトル,2.0,2.0,2.0," xlink:title="1" d="M13939.4531,-3542.7251L13939.5452,-3542.7793L13939.6341,-3542.8374L13939.6892,-3542.8744L13939.7514,-3542.9216L13939.765,-3542.9332L13939.7964,-3542.9601L13939.8107,-3542.9722L13939.8815,-3543.0344L13939.9421,-3543.0908"/>
<path content="1,相鉄バス（株）,横浜駅西口～河口湖駅,3.0,3.0,3.0," xlink:title="1" d="M13939.9421,-3543.0908L13939.882,-3543.0348L13939.8095,-3542.9712L13939.7965,-3542.9601L13939.7881,-3542.9529L13939.765,-3542.9333L13939.7532,-3542.9231L13939.7003,-3542.8827L13939.6893,-3542.8743L13939.6341,-3542.8374L13939.5805,-3542.8024L13939.5452,-3542.7793L13939.4919,-3542.7479L13939.4531,-3542.7251"/>
<path content="1,相鉄バス（株）,綾13,58.5,50.0,46.0," xlink:title="1" d="M13940.4545,-3543.0908L13940.4542,-3543.0896L13940.4266,-3543.0693L13940.3661,-3543.0355L13940.3454,-3543.0214L13940.3372,-3543.0107L13940.3351,-3543.0017L13940.3317,-3542.9803L13940.3318,-3542.9371L13940.2676,-3542.9188L13940.2205,-3542.9064L13940.2054,-3542.9024L13940.1307,-3542.8873L13940.1143,-3542.8876L13940.1169,-3542.8676L13940.1286,-3542.8124L13940.1404,-3542.7516L13940.1492,-3542.7104L13940.1492,-3542.6839L13940.1479,-3542.662L13940.1458,-3542.6529L13940.1444,-3542.6332L13940.1802,-3542.631L13940.2153,-3542.631L13940.2561,-3542.6294L13940.3241,-3542.6366L13940.3509,-3542.6394L13940.3695,-3542.6456L13940.3736,-3542.6462L13940.3991,-3542.6547L13940.4342,-3542.6564L13940.4507,-3542.6569L13940.4645,-3542.6581L13940.4879,-3542.6575L13940.4959,-3542.6566L13940.4955,-3542.6473L13940.4913,-3542.6117"/>
<path content="1,相鉄バス（株）,綾31,57.5,46.5,42.5," xlink:title="1" d="M13940.4913,-3542.6117L13940.4906,-3542.6039L13940.4858,-3542.5904L13940.4769,-3542.5763L13940.4721,-3542.5713L13940.4562,-3542.5583L13940.4383,-3542.5482L13940.4328,-3542.5437L13940.428,-3542.5414L13940.4129,-3542.5318L13940.4067,-3542.5267L13940.3998,-3542.52L13940.3778,-3542.4958L13940.331,-3542.4315L13940.3062,-3542.3988L13940.2483,-3542.3329L13940.2336,-3542.3212L13940.2133,-3542.3036L13940.2016,-3542.2974L13940.1892,-3542.2918L13940.1589,-3542.2845L13940.1334,-3542.2789L13940.1078,-3542.2737L13940.0804,-3542.2672L13940.0501,-3542.2608L13940.0164,-3542.2535L13939.973,-3542.2462L13939.951,-3542.2422L13939.9352,-3542.2383L13939.9242,-3542.2343L13939.8911,-3542.2214L13939.8904,-3542.2208L13939.8815,-3542.218L13939.8684,-3542.2118L13939.8567,-3542.2079L13939.8436,-3542.2017L13939.8361,-3542.1988L13939.7982,-3542.1819L13939.77,-3542.1707L13939.7479,-3542.1656L13939.7308,-3542.1656L13939.7011,-3542.1735L13939.6929,-3542.1741L13939.6778,-3542.1729L13939.6729,-3542.1741L13939.6648,-3542.1725L13939.6537,-3542.1712L13939.6041,-3542.1662L13939.5794,-3542.1607L13939.5642,-3542.165L13939.5477,-3542.1673L13939.5339,-3542.168L13939.5158,-3542.1682L13939.4866,-3542.166L13939.4882,-3542.2685L13939.4892,-3542.2833L13939.4795,-3542.3166L13939.4747,-3542.329L13939.4665,-3542.3498L13939.4531,-3542.3807"/>
<path content="1,神奈川中央交通（株）,長16,38.0,31.0,31.0," xlink:title="1" d="M13939.8028,-3541.9922L13939.7721,-3542.0134L13939.7626,-3542.021L13939.7559,-3542.0263L13939.6817,-3542.0843L13939.6316,-3542.1273L13939.6172,-3542.1369L13939.6005,-3542.1487L13939.5864,-3542.1587L13939.5794,-3542.1607L13939.5642,-3542.165L13939.5477,-3542.1673L13939.5339,-3542.168L13939.5158,-3542.1682L13939.4866,-3542.166L13939.4687,-3542.1627L13939.4531,-3542.1614"/>
<path content="1,神姫バス（株）,姫路・神戸（三ノ宮）-東京（渋谷・新宿）,1.0,1.0,1.0," xlink:title="1" d="M13939.4531,-3542.7251L13939.5452,-3542.7793L13939.6341,-3542.8374L13939.6892,-3542.8744L13939.7514,-3542.9216L13939.765,-3542.9332L13939.7964,-3542.9601L13939.8107,-3542.9722L13939.8815,-3543.0344L13939.9421,-3543.0908"/>
<path content="1,福井鉄道（株）,福井⇔東京,3.0,3.0,3.0," xlink:title="1" d="M13939.4531,-3542.7251L13939.5452,-3542.7793L13939.6341,-3542.8374L13939.6892,-3542.8744L13939.7514,-3542.9216L13939.765,-3542.9332L13939.7964,-3542.9601L13939.8107,-3542.9722L13939.8815,-3543.0344L13939.9421,-3543.0908"/>
<path content="1,福島交通（株）,福島高速バスターミナル～大阪あべの橋,1.0,1.0,1.0," xlink:title="1" d="M13939.4531,-3542.7251L13939.4919,-3542.7479L13939.5452,-3542.7793L13939.5805,-3542.8024L13939.6341,-3542.8374L13939.6893,-3542.8743L13939.7003,-3542.8827L13939.7532,-3542.9231L13939.765,-3542.9333L13939.7881,-3542.9529L13939.7965,-3542.9601L13939.8095,-3542.9712L13939.882,-3543.0348L13939.9421,-3543.0908"/>
<path content="1,西日本鉄道（株）,福岡　～　東京　（はかた号））,1.0,1.0,1.0," xlink:title="1" d="M13939.4531,-3542.7251L13939.5452,-3542.7793L13939.6341,-3542.8374L13939.6892,-3542.8744L13939.7514,-3542.9216L13939.765,-3542.9332L13939.7964,-3542.9601L13939.8107,-3542.9722L13939.8815,-3543.0344L13939.9421,-3543.0908"/>
<path content="1,西東京バス（株）,ハローブリッジ号,1.0,1.0,1.0," xlink:title="1" d="M13939.4531,-3542.7251L13939.4919,-3542.7479L13939.5452,-3542.7793L13939.5805,-3542.8024L13939.6341,-3542.8374L13939.6893,-3542.8743L13939.7003,-3542.8827L13939.7532,-3542.9231L13939.765,-3542.9333L13939.7881,-3542.9529L13939.7965,-3542.9601L13939.8095,-3542.9712L13939.882,-3543.0348L13939.9421,-3543.0908"/>
<path content="1,西武観光バス,びわこドリーム号,1.0,1.0,1.0," xlink:title="1" d="M13939.9421,-3543.0908L13939.882,-3543.0348L13939.8095,-3542.9712L13939.7965,-3542.9601L13939.7881,-3542.9529L13939.765,-3542.9333L13939.7532,-3542.9231L13939.7003,-3542.8827L13939.6893,-3542.8743L13939.6341,-3542.8374L13939.5805,-3542.8024L13939.5452,-3542.7793L13939.4919,-3542.7479L13939.4531,-3542.7251"/>
<path content="1,西武観光バス,大宮・池袋・横浜～南紀勝浦線,1.0,1.0,1.0," xlink:title="1" d="M13939.9421,-3543.0908L13939.882,-3543.0348L13939.8095,-3542.9712L13939.7965,-3542.9601L13939.7881,-3542.9529L13939.765,-3542.9333L13939.7532,-3542.9231L13939.7003,-3542.8827L13939.6893,-3542.8743L13939.6341,-3542.8374L13939.5805,-3542.8024L13939.5452,-3542.7793L13939.4919,-3542.7479L13939.4531,-3542.7251"/>
<path content="1,西武観光バス,宇和島線,1.0,1.0,1.0," xlink:title="1" d="M13939.9421,-3543.0908L13939.882,-3543.0348L13939.8095,-3542.9712L13939.7965,-3542.9601L13939.7881,-3542.9529L13939.765,-3542.9333L13939.7532,-3542.9231L13939.7003,-3542.8827L13939.6893,-3542.8743L13939.6341,-3542.8374L13939.5805,-3542.8024L13939.5452,-3542.7793L13939.4919,-3542.7479L13939.4531,-3542.7251"/>
<path content="1,豊鉄バス（株）,田原～練馬,1.0,1.0,1.0," xlink:title="1" d="M13939.4531,-3542.7251L13939.5452,-3542.7793L13939.6341,-3542.8374L13939.6892,-3542.8744L13939.7514,-3542.9216L13939.765,-3542.9332L13939.7964,-3542.9601L13939.8107,-3542.9722L13939.8815,-3543.0344L13939.9421,-3543.0908"/>
<path content="1,近鉄バス（株）,大日・茨木・京都⇔東京駅,1.0,1.0,1.0," xlink:title="1" d="M13939.4531,-3542.7251L13939.5452,-3542.7793L13939.6341,-3542.8374L13939.6892,-3542.8744L13939.7514,-3542.9216L13939.765,-3542.9332L13939.7964,-3542.9601L13939.8107,-3542.9722L13939.8815,-3543.0344L13939.9421,-3543.0908"/>
<path content="1,近鉄バス（株）,大阪⇔東京駅,1.0,1.0,1.0," xlink:title="1" d="M13939.4531,-3542.7251L13939.5452,-3542.7793L13939.6341,-3542.8374L13939.6892,-3542.8744L13939.7514,-3542.9216L13939.765,-3542.9332L13939.7964,-3542.9601L13939.8107,-3542.9722L13939.8815,-3543.0344L13939.9421,-3543.0908"/>
<path content="1,近鉄バス（株）,大阪・京都⇔つくば・水戸,1.0,1.0,1.0," xlink:title="1" d="M13939.4531,-3542.7251L13939.5452,-3542.7793L13939.6341,-3542.8374L13939.6892,-3542.8744L13939.7514,-3542.9216L13939.765,-3542.9332L13939.7964,-3542.9601L13939.8107,-3542.9722L13939.8815,-3543.0344L13939.9421,-3543.0908"/>
<path content="1,近鉄バス（株）,大阪・京都⇔久喜・栃木・宇都宮,1.0,1.0,1.0," xlink:title="1" d="M13939.4531,-3542.7251L13939.5452,-3542.7793L13939.6341,-3542.8374L13939.6892,-3542.8744L13939.7514,-3542.9216L13939.765,-3542.9332L13939.7964,-3542.9601L13939.8107,-3542.9722L13939.8815,-3543.0344L13939.9421,-3543.0908"/>
<path content="1,近鉄バス（株）,大阪・京都⇔仙台,1.0,1.0,1.0," xlink:title="1" d="M13939.4531,-3542.7251L13939.5452,-3542.7793L13939.6341,-3542.8374L13939.6892,-3542.8744L13939.7514,-3542.9216L13939.765,-3542.9332L13939.7964,-3542.9601L13939.8107,-3542.9722L13939.8815,-3543.0344L13939.9421,-3543.0908"/>
<path content="1,近鉄バス（株）,大阪・京都⇔川越・坂戸・熊谷,1.0,1.0,1.0," xlink:title="1" d="M13939.4531,-3542.7251L13939.5452,-3542.7793L13939.6341,-3542.8374L13939.6892,-3542.8744L13939.7514,-3542.9216L13939.765,-3542.9332L13939.7964,-3542.9601L13939.8107,-3542.9722L13939.8815,-3543.0344L13939.9421,-3543.0908"/>
<path content="1,近鉄バス（株）,大阪・京都⇔日立・いわき,1.0,1.0,1.0," xlink:title="1" d="M13939.4531,-3542.7251L13939.5452,-3542.7793L13939.6341,-3542.8374L13939.6892,-3542.8744L13939.7514,-3542.9216L13939.765,-3542.9332L13939.7964,-3542.9601L13939.8107,-3542.9722L13939.8815,-3543.0344L13939.9421,-3543.0908"/>
<path content="1,近鉄バス（株）,大阪・京都⇔郡山・福島,1.0,1.0,1.0," xlink:title="1" d="M13939.4531,-3542.7251L13939.5452,-3542.7793L13939.6341,-3542.8374L13939.6892,-3542.8744L13939.7514,-3542.9216L13939.765,-3542.9332L13939.7964,-3542.9601L13939.8107,-3542.9722L13939.8815,-3543.0344L13939.9421,-3543.0908"/>
<path content="1,近鉄バス（株）,大阪・茨木⇔新宿,1.0,1.0,1.0," xlink:title="1" d="M13939.4531,-3542.7251L13939.5452,-3542.7793L13939.6341,-3542.8374L13939.6892,-3542.8744L13939.7514,-3542.9216L13939.765,-3542.9332L13939.7964,-3542.9601L13939.8107,-3542.9722L13939.8815,-3543.0344L13939.9421,-3543.0908"/>
<path content="1,近鉄バス（株）,藤井寺・大阪・京都⇔東京駅・横浜,1.0,1.0,1.0," xlink:title="1" d="M13939.4531,-3542.7251L13939.5452,-3542.7793L13939.6341,-3542.8374L13939.6892,-3542.8744L13939.7514,-3542.9216L13939.765,-3542.9332L13939.7964,-3542.9601L13939.8107,-3542.9722L13939.8815,-3543.0344L13939.9421,-3543.0908"/>
<path content="1,遠州鉄道（株）,イーライナー,2.0,2.0,2.0," xlink:title="1" d="M13939.4531,-3542.7251L13939.5452,-3542.7793L13939.6341,-3542.8374L13939.6892,-3542.8744L13939.7514,-3542.9216L13939.765,-3542.9332L13939.7964,-3542.9601L13939.8107,-3542.9722L13939.8815,-3543.0344L13939.9421,-3543.0908"/>
<path content="1,関東バス（株）,ほの国号,1.0,1.0,1.0," xlink:title="1" d="M13939.4531,-3542.7251L13939.4919,-3542.7479L13939.5452,-3542.7793L13939.5805,-3542.8024L13939.6341,-3542.8374L13939.6893,-3542.8743L13939.7003,-3542.8827L13939.7532,-3542.9231L13939.765,-3542.9333L13939.7881,-3542.9529L13939.7965,-3542.9601L13939.8095,-3542.9712L13939.882,-3543.0348L13939.9421,-3543.0908"/>
<path content="1,関東バス（株）,やまと号,2.0,2.0,2.0," xlink:title="1" d="M13939.9421,-3543.0908L13939.882,-3543.0348L13939.8095,-3542.9712L13939.7965,-3542.9601L13939.7881,-3542.9529L13939.765,-3542.9333L13939.7532,-3542.9231L13939.7003,-3542.8827L13939.6893,-3542.8743L13939.6341,-3542.8374L13939.5805,-3542.8024L13939.5452,-3542.7793L13939.4919,-3542.7479L13939.4531,-3542.7251"/>
<path content="1,関東バス（株）,マスカット号,1.0,1.0,1.0," xlink:title="1" d="M13939.4531,-3542.7251L13939.4919,-3542.7479L13939.5452,-3542.7793L13939.5805,-3542.8024L13939.6341,-3542.8374L13939.6893,-3542.8743L13939.7003,-3542.8827L13939.7532,-3542.9231L13939.765,-3542.9333L13939.7881,-3542.9529L13939.7965,-3542.9601L13939.8095,-3542.9712L13939.882,-3543.0348L13939.9421,-3543.0908"/>
<path content="1,関東バス（株）,東京ミッドナイトエクスプレス京都号,1.0,1.0,1.0," xlink:title="1" d="M13939.9421,-3543.0908L13939.882,-3543.0348L13939.8095,-3542.9712L13939.7965,-3542.9601L13939.7881,-3542.9529L13939.765,-3542.9333L13939.7532,-3542.9231L13939.7003,-3542.8827L13939.6893,-3542.8743L13939.6341,-3542.8374L13939.5805,-3542.8024L13939.5452,-3542.7793L13939.4919,-3542.7479L13939.4531,-3542.7251"/>
<path content="1,関東自動車（株）,とちの木号,1.0,1.0,1.0," xlink:title="1" d="M13939.9421,-3543.0908L13939.882,-3543.0348L13939.8095,-3542.9712L13939.7965,-3542.9601L13939.7881,-3542.9529L13939.765,-3542.9333L13939.7532,-3542.9231L13939.7003,-3542.8827L13939.6893,-3542.8743L13939.6341,-3542.8374L13939.5805,-3542.8024L13939.5452,-3542.7793L13939.4919,-3542.7479L13939.4531,-3542.7251"/>
<path content="1,関東鉄道（株）,水戸駅南口～あべの橋駅（JR天王寺駅）,1.0,1.0,1.0," xlink:title="1" d="M13939.9421,-3543.0908L13939.882,-3543.0348L13939.8095,-3542.9712L13939.7965,-3542.9601L13939.7881,-3542.9529L13939.765,-3542.9333L13939.7532,-3542.9231L13939.7003,-3542.8827L13939.6893,-3542.8743L13939.6341,-3542.8374L13939.5805,-3542.8024L13939.5452,-3542.7793L13939.4919,-3542.7479L13939.4531,-3542.7251"/>
<path content="1,阪急バス（株）,東京・東京ディズニーリゾート・千葉行,1.0,1.0,1.0," xlink:title="1" d="M13939.4531,-3542.7251L13939.5452,-3542.7793L13939.6341,-3542.8374L13939.6892,-3542.8744L13939.7514,-3542.9216L13939.765,-3542.9332L13939.7964,-3542.9601L13939.8107,-3542.9722L13939.8815,-3543.0344L13939.9421,-3543.0908"/>
<path content="1,阪急バス（株）,横浜・品川・池袋行,1.0,1.0,1.0," xlink:title="1" d="M13939.9421,-3543.0908L13939.8815,-3543.0344L13939.8107,-3542.9722L13939.7964,-3542.9601L13939.765,-3542.9332L13939.7514,-3542.9216L13939.6892,-3542.8744L13939.6341,-3542.8374L13939.5452,-3542.7793L13939.4531,-3542.7251"/>
<path content="1,阪神バス（株）,サラダエクスプレス　神戸・大阪⇔東京ディズニーリゾート,1.0,1.0,1.0," xlink:title="1" d="M13939.4531,-3542.7251L13939.5452,-3542.7793L13939.6341,-3542.8374L13939.6892,-3542.8744L13939.7514,-3542.9216L13939.765,-3542.9332L13939.7964,-3542.9601L13939.8107,-3542.9722L13939.8815,-3543.0344L13939.9421,-3543.0908"/>
<path content="1,防長交通（株）,萩・山口・防府・徳山・岩国～東京,1.0,1.0,1.0," xlink:title="1" d="M13939.4531,-3542.7251L13939.5452,-3542.7793L13939.6341,-3542.8374L13939.6892,-3542.8744L13939.7514,-3542.9216L13939.765,-3542.9332L13939.7964,-3542.9601L13939.8107,-3542.9722L13939.8815,-3543.0344L13939.9421,-3543.0908"/>
<path content="1,高知県交通（株）,ブルーメッツ号　高知⇔東京線,1.0,1.0,1.0," xlink:title="1" d="M13939.4531,-3542.7251L13939.5452,-3542.7793L13939.6341,-3542.8374L13939.6892,-3542.8744L13939.7514,-3542.9216L13939.765,-3542.9332L13939.7964,-3542.9601L13939.8107,-3542.9722L13939.8815,-3543.0344L13939.9421,-3543.0908"/>
<path content="1,（株）中伊豆東海バス,伊豆新宿ライナー,2.0,2.0,2.0," xlink:title="1" d="M13939.4531,-3542.7251L13939.5452,-3542.7793L13939.6341,-3542.8374L13939.6892,-3542.8744L13939.7514,-3542.9216L13939.765,-3542.9332L13939.7964,-3542.9601L13939.8107,-3542.9722L13939.8815,-3543.0344L13939.9421,-3543.0908"/>
<path content="1,（株）中国バス,夜行便　東京線,1.0,1.0,1.0," xlink:title="1" d="M13939.9421,-3543.0908L13939.8815,-3543.0344L13939.8107,-3542.9722L13939.7964,-3542.9601L13939.765,-3542.9332L13939.7514,-3542.9216L13939.6892,-3542.8744L13939.6341,-3542.8374L13939.5452,-3542.7793L13939.4531,-3542.7251"/>
<path content="1,（株）中国バス,夜行便　横浜線,1.0,1.0,1.0," xlink:title="1" d="M13939.9421,-3543.0908L13939.8815,-3543.0344L13939.8107,-3542.9722L13939.7964,-3542.9601L13939.765,-3542.9332L13939.7514,-3542.9216L13939.6892,-3542.8744L13939.6341,-3542.8374L13939.5452,-3542.7793L13939.4531,-3542.7251"/>
<path content="1,（株）沼津登山東海バス,三島エクスプレス,3.0,3.0,3.0," xlink:title="1" d="M13939.4531,-3542.7251L13939.5452,-3542.7793L13939.6341,-3542.8374L13939.6892,-3542.8744L13939.7514,-3542.9216L13939.765,-3542.9332L13939.7964,-3542.9601L13939.8107,-3542.9722L13939.8815,-3543.0344L13939.9421,-3543.0908"/>
<path content="3,海老名市,大谷・杉久保ルート,9.0,9.0,9.0," xlink:title="3" d="M13939.5067,-3543.0908L13939.506,-3543.0841L13939.5319,-3543.0738L13939.6592,-3543.0242L13939.6788,-3543.0172L13939.6827,-3543.0147L13939.6845,-3543.0132L13939.6863,-3543.011L13939.6876,-3543.007L13939.6877,-3543L13939.6864,-3542.9958L13939.6833,-3542.9865L13939.6723,-3542.9476L13939.6564,-3542.8941L13939.6454,-3542.8856L13939.6333,-3542.878L13939.6184,-3542.8685L13939.5767,-3542.841L13939.5064,-3542.7977L13939.4734,-3542.7774L13939.4531,-3542.7654"/>
<path content="3,海老名市,本郷ルート,8.0,8.0,8.0," xlink:title="3" d="M13939.4531,-3542.1614L13939.4687,-3542.1627L13939.4866,-3542.166L13939.4882,-3542.2685L13939.4892,-3542.2833L13939.4795,-3542.3166L13939.4747,-3542.329L13939.4665,-3542.3498L13939.4531,-3542.3807"/>
</g>
</svg>
