<?xml version="1.0" encoding="UTF-8"?>
<svg  xmlns="http://www.w3.org/2000/svg" xmlns:xlink="http://www.w3.org/1999/xlink" xmlns:go="http://purl.org/svgmap/profile" property="N07_001,N07_002,N07_003,N07_004,N07_005,N07_006,N07_007" viewBox="12902.34375 -3295.8984375 8.7890625 8.7890625" go:dataArea="12902.34375 -3295.8984375 8.7890625 8.7890625" >
<metadata>
 <rdf:RDF xmlns:rdf="http://www.w3.org/1999/02/22-rdf-syntax-ns#" xmlns:crs="http://opengis.org/xmldtds/transformations.dtd" xmlns:svg="http://www.w3.org/svg" >
  <rdf:Description>
   <crs:CoordinateReferenceSystem rdf:resource="http://purl.org/crs/84" svg:transform="matrix(100.0,0.0,0.0,-100.0,0.0,0.0)" />
  </rdf:Description>
 </rdf:RDF>
</metadata>
<globalCoordinateSystem srsName="http://purl.org/crs/84" transform="matrix(100.0,0.0,0.0,-100.0,0.0,0.0)" />
<defs>
 <g id="p0" >
  <circle cx="0.0" cy="0.0" r="3" stroke="green" stroke-width="0.75" vector-effect="non-scaling-stroke" />
 </g>
</defs>
<g fill="none" fill-rule="evenodd" stroke="#FF00FF" stroke-width="0.75" opacity="0.5" vector-effect="non-scaling-stroke" stroke-linejoin="bevel" >
<path content="1,西肥自動車（株）,奈良尾～岩瀬浦～浜串線,10.7,7.0,7.0," xlink:title="1" d="M12907.7149,-3287.6436L12907.7023,-3287.6314L12907.6608,-3287.5912L12907.6219,-3287.5524L12907.5967,-3287.536L12907.57,-3287.5245L12907.5452,-3287.5135L12907.5287,-3287.4992L12907.5146,-3287.4845L12907.5083,-3287.471L12907.5078,-3287.4566L12907.5095,-3287.435L12907.5211,-3287.3957L12907.5313,-3287.3576L12907.544,-3287.3102L12907.5481,-3287.2828L12907.5543,-3287.2517L12907.5491,-3287.2137L12907.5432,-3287.1773L12907.544,-3287.1175L12907.5441,-3287.1094"/>
<path content="1,西肥自動車（株）,奈良尾～岩瀬浦～浜串線,10.7,7.0,7.0," xlink:title="1" d="M12907.7149,-3287.6436L12907.7407,-3287.657L12907.7766,-3287.6677L12907.8016,-3287.6787L12907.8153,-3287.6927L12907.8205,-3287.706L12907.8195,-3287.7448L12907.8264,-3287.7594L12907.8495,-3287.7775L12907.861,-3287.7856L12907.8732,-3287.7872L12907.8857,-3287.7883L12907.9116,-3287.8115L12907.9184,-3287.8188L12907.9222,-3287.8328L12907.9296,-3287.8414L12907.9416,-3287.8584L12907.949,-3287.8822L12907.9567,-3287.8943L12907.9685,-3287.8997L12908.0105,-3287.9032L12908.0281,-3287.9108L12908.0573,-3287.9256L12908.073,-3287.9262L12908.1028,-3287.9213L12908.1358,-3287.9181L12908.157,-3287.9175L12908.1711,-3287.9216L12908.2055,-3287.9429L12908.2247,-3287.9659L12908.2369,-3287.9745L12908.261,-3287.9783L12908.2776,-3287.9802L12908.284,-3287.985L12908.2847,-3287.9918L12908.2767,-3287.9985L12908.2608,-3287.9978"/>
<path content="1,西肥自動車（株）,奈良尾～岩瀬浦～浜串線,10.7,7.0,7.0," xlink:title="1" d="M12908.2608,-3287.9978L12908.1969,-3287.9937L12908.1626,-3287.9899L12908.1372,-3287.9912L12908.1185,-3287.999L12908.1009,-3288.0144L12908.0925,-3288.0274L12908.0922,-3288.0363L12908.105,-3288.0555L12908.1204,-3288.0768L12908.127,-3288.0922L12908.1334,-3288.1194L12908.1462,-3288.1792L12908.1522,-3288.2012L12908.1592,-3288.2117L12908.1659,-3288.2147L12908.2134,-3288.2128L12908.2556,-3288.1259L12908.2814,-3288.0712L12908.284,-3288.0636L12908.2667,-3288.0557L12908.2648,-3288.0457L12908.2619,-3288.036L12908.255,-3288.0282L12908.2515,-3288.0231L12908.2531,-3288.0177L12908.2582,-3288.0158L12908.2749,-3288.0177L12908.2794,-3288.0161L12908.2791,-3288.0125L12908.2675,-3288.0061L12908.2608,-3287.9978"/>
<path content="1,西肥自動車（株）,奈良尾～岩瀬浦～浜串線,10.7,7.0,7.0," xlink:title="1" d="M12905.9932,-3288.3813L12906.0001,-3288.2761L12906.0195,-3288.2626L12906.0308,-3288.2496L12906.0395,-3288.2361L12906.0449,-3288.222L12906.0514,-3288.2065L12906.0508,-3288.1814L12906.0452,-3288.1569L12906.042,-3288.1127L12906.036,-3288.0593L12906.0288,-3287.9172L12906.0265,-3287.8914L12906.0315,-3287.8758L12906.0382,-3287.8634L12906.0462,-3287.8532L12906.0569,-3287.8426L12906.0729,-3287.8301L12906.1524,-3287.7783L12906.1971,-3287.7506L12906.2178,-3287.7394L12906.2198,-3287.7388L12906.2365,-3287.7309L12906.2499,-3287.7258L12906.2792,-3287.7162L12906.308,-3287.7101L12906.3267,-3287.7106L12906.342,-3287.7134L12906.3514,-3287.7174L12906.3654,-3287.7287L12906.3935,-3287.7591L12906.4122,-3287.7839L12906.4295,-3287.8014L12906.4362,-3287.8059L12906.4522,-3287.8132L12906.4682,-3287.8161L12906.4769,-3287.8161L12906.487,-3287.8144L12906.495,-3287.811L12906.5043,-3287.7991L12906.5063,-3287.7958L12906.5083,-3287.7879L12906.5117,-3287.7428L12906.513,-3287.7117L12906.5497,-3287.639L12906.5551,-3287.6182L12906.5551,-3287.577L12906.5504,-3287.5584L12906.5391,-3287.5359L12906.517,-3287.5116L12906.4758,-3287.4746L12906.4649,-3287.4648L12906.4556,-3287.4547L12906.4521,-3287.4506L12906.4483,-3287.4406L12906.447,-3287.4299L12906.45,-3287.4093L12906.4559,-3287.3902L12906.458,-3287.3771L12906.4576,-3287.3703L12906.4534,-3287.3592L12906.4428,-3287.3401L12906.4364,-3287.3246L12906.4401,-3287.2924L12906.4435,-3287.2706L12906.4473,-3287.2405L12906.4487,-3287.214L12906.4527,-3287.1865L12906.4572,-3287.1603L12906.4685,-3287.1365L12906.4803,-3287.1146L12906.4812,-3287.1094M12906.4576,-3287.1094L12906.4497,-3287.1188L12906.4376,-3287.1356L12906.4115,-3287.163L12906.4046,-3287.1682L12906.3979,-3287.17L12906.3875,-3287.1683L12906.3688,-3287.1502L12906.3507,-3287.1277L12906.3421,-3287.1147L12906.3378,-3287.1094"/>
<path content="1,西肥自動車（株）,奈良尾～岩瀬浦～浜串線,10.7,7.0,7.0," xlink:title="1" d="M12908.5138,-3288.9846L12908.4965,-3289.0077L12908.4844,-3289.0249L12908.464,-3289.0644L12908.4589,-3289.0785L12908.4579,-3289.0903L12908.4601,-3289.1167L12908.424,-3289.1421L12908.3183,-3289.2145L12908.2925,-3289.2366L12908.2835,-3289.245L12908.2731,-3289.2497L12908.2575,-3289.2497L12908.2393,-3289.2464L12908.2245,-3289.2423L12908.2036,-3289.2341L12908.1952,-3289.2327L12908.1782,-3289.2331L12908.1654,-3289.24L12908.1506,-3289.2478L12908.1404,-3289.249L12908.1117,-3289.2497L12908.1047,-3289.2535L12908.1008,-3289.2597L12908.1025,-3289.272L12908.1095,-3289.2785L12908.1212,-3289.283L12908.1495,-3289.2877L12908.1655,-3289.2947L12908.1694,-3289.3018L12908.1706,-3289.3184L12908.1767,-3289.3282L12908.1864,-3289.3323L12908.1956,-3289.3302L12908.2141,-3289.3231L12908.224,-3289.3231L12908.2291,-3289.3266L12908.232,-3289.3378L12908.1871,-3289.3518L12908.1667,-3289.3515L12908.1575,-3289.3472L12908.147,-3289.3341L12908.1325,-3289.3217L12908.115,-3289.3182L12908.0273,-3289.3169L12908.0198,-3289.3135L12908.0086,-3289.2985L12907.9994,-3289.2891L12907.9824,-3289.2803L12907.9672,-3289.2748L12907.9602,-3289.2654L12907.9563,-3289.2554L12907.956,-3289.2355L12907.9589,-3289.2202L12907.9687,-3289.2034L12907.9731,-3289.1928L12907.9744,-3289.1834L12907.9707,-3289.1756L12907.962,-3289.1736L12907.9513,-3289.1744L12907.9455,-3289.1803L12907.9418,-3289.1908L12907.9362,-3289.2149L12907.9287,-3289.2405L12907.9236,-3289.2499L12907.9106,-3289.2687L12907.9084,-3289.2795L12907.9053,-3289.2971L12907.8982,-3289.3122L12907.8934,-3289.3212L12907.888,-3289.3266L12907.879,-3289.327L12907.871,-3289.3227L12907.8671,-3289.3118L12907.8674,-3289.2838L12907.8601,-3289.2646L12907.8606,-3289.2556L12907.8674,-3289.2392L12907.8703,-3289.2233L12907.8696,-3289.2041L12907.8663,-3289.1899L12907.8663,-3289.175L12907.8702,-3289.165L12907.8743,-3289.1544L12907.8758,-3289.1419L12907.8748,-3289.1169L12907.8707,-3289.1128L12907.8631,-3289.112L12907.8554,-3289.1159L12907.8534,-3289.1239L12907.8522,-3289.1425L12907.85,-3289.1501L12907.8422,-3289.1615L12907.8391,-3289.1681L12907.8386,-3289.1822L12907.8405,-3289.1938L12907.8415,-3289.2061L12907.8401,-3289.2161L12907.8359,-3289.2233L12907.8257,-3289.2384L12907.8227,-3289.2478L12907.8217,-3289.258L12907.8217,-3289.2697L12907.8237,-3289.2773L12907.8239,-3289.2871L12907.8198,-3289.2924L12907.8139,-3289.2949L12907.8062,-3289.2955L12907.7986,-3289.291L12907.7916,-3289.2828L12907.8023,-3289.2625L12907.8057,-3289.2435L12907.8074,-3289.2169L12907.8085,-3289.173L12907.8078,-3289.1351L12907.8081,-3289.1055L12907.8127,-3289.0934L12907.819,-3289.0824L12907.8285,-3289.073L12907.8477,-3289.0619L12907.8816,-3289.0429L12907.893,-3289.0331L12907.8971,-3289.0214L12907.8979,-3289.0063L12907.8947,-3288.9932L12907.8866,-3288.9592L12907.8856,-3288.9482L12907.8871,-3288.9345L12907.8888,-3288.9232L12907.9078,-3288.8913L12907.9289,-3288.8574L12907.936,-3288.8486L12907.9425,-3288.8422L12907.954,-3288.8377L12907.9693,-3288.8375L12907.9967,-3288.8382L12908.0243,-3288.8343L12908.0369,-3288.8258L12908.0449,-3288.8123L12908.071,-3288.7314L12908.0683,-3288.6641L12908.0664,-3288.6453L12908.0664,-3288.6322L12908.0698,-3288.6052L12908.0703,-3288.5791L12908.0615,-3288.5615L12908.0338,-3288.5451L12907.9282,-3288.5054L12907.9,-3288.4842L12907.8777,-3288.4641L12907.866,-3288.4424L12907.8558,-3288.4122L12907.8527,-3288.3942L12907.8536,-3288.3733L12907.8711,-3288.3115L12907.9058,-3288.2265L12907.9073,-3288.2023L12907.9063,-3288.1757L12907.9024,-3288.1569L12907.8932,-3288.1397L12907.8434,-3288.0911L12907.8094,-3288.0706L12907.6336,-3288.0015L12907.6125,-3287.9827L12907.5959,-3287.9573L12907.5906,-3287.9385L12907.5872,-3287.9189L12907.588,-3287.8994L12907.6108,-3287.8514L12907.6418,-3287.7966L12907.6746,-3287.7381L12907.6887,-3287.7021L12907.7047,-3287.6718L12907.7149,-3287.6436"/>
<path content="1,西肥自動車（株）,奈良尾～桐子里～若松港ターミナル線,5.0,5.0,5.0," xlink:title="1" d="M12904.5008,-3287.1094L12904.5015,-3287.1201L12904.5073,-3287.1291L12904.5171,-3287.1368L12904.5325,-3287.143L12904.5603,-3287.1486L12904.6129,-3287.1556L12904.6614,-3287.1565L12904.6717,-3287.1588L12904.6799,-3287.1654L12904.7049,-3287.1881L12904.7331,-3287.2059L12904.7421,-3287.2153L12904.7459,-3287.2219L12904.7452,-3287.2322L12904.7324,-3287.2475L12904.6985,-3287.2912L12904.6598,-3287.3396L12904.6478,-3287.3509L12904.6151,-3287.3706L12904.597,-3287.3825L12904.5897,-3287.3904L12904.5879,-3287.4111L12904.5937,-3287.4244L12904.6017,-3287.4537L12904.6044,-3287.4697L12904.6037,-3287.5121L12904.6055,-3287.5266L12904.6136,-3287.5377L12904.6345,-3287.5541L12904.6459,-3287.5644L12904.6505,-3287.5774L12904.6719,-3287.6568L12904.6766,-3287.6717L12904.6853,-3287.676L12904.6956,-3287.6764L12904.7098,-3287.6726L12904.7132,-3287.6638L12904.7145,-3287.6365L12904.7159,-3287.6232L12904.7286,-3287.6046L12904.7379,-3287.5956L12904.7486,-3287.5899L12904.7586,-3287.5826L12904.77,-3287.5697L12904.7747,-3287.5606L12904.782,-3287.5482L12904.796,-3287.5358L12904.8034,-3287.5262L12904.8041,-3287.5189L12904.8014,-3287.515L12904.7894,-3287.5026L12904.7793,-3287.4924L12904.7727,-3287.48L12904.772,-3287.467L12904.7773,-3287.4614L12904.7787,-3287.4608L12904.7827,-3287.458L12904.798,-3287.4586L12904.8081,-3287.4614L12904.8094,-3287.4625L12904.8428,-3287.4834L12904.8487,-3287.4843L12904.8535,-3287.4834L12904.8615,-3287.48L12904.8682,-3287.4749L12904.8782,-3287.4574L12904.8822,-3287.4524L12904.8851,-3287.4489L12904.8888,-3287.4454L12904.8954,-3287.4413L12904.9045,-3287.4378L12904.9145,-3287.4318L12904.9346,-3287.4271L12904.9571,-3287.4269L12904.9752,-3287.4282L12904.9897,-3287.4331L12905.0122,-3287.4447L12905.0234,-3287.4552L12905.0316,-3287.4701L12905.0298,-3287.4789L12905.0298,-3287.48L12905.0298,-3287.5262L12905.0324,-3287.5403L12905.0346,-3287.5438L12905.0411,-3287.5539L12905.0507,-3287.5554L12905.0558,-3287.5561L12905.1019,-3287.5572L12905.1239,-3287.5595L12905.1533,-3287.5657L12905.178,-3287.5736L12905.1901,-3287.5793L12905.1981,-3287.5843L12905.2087,-3287.5962L12905.2108,-3287.6001L12905.2108,-3287.6063L12905.2028,-3287.6097L12905.1877,-3287.6104L12905.178,-3287.6108L12905.1493,-3287.6136L12905.1413,-3287.6159L12905.1359,-3287.6255L12905.1322,-3287.6405L12905.1313,-3287.6441L12905.1286,-3287.6486L12905.0966,-3287.6757L12905.0805,-3287.6903L12905.0718,-3287.6954L12905.0672,-3287.6971L12905.0591,-3287.6957L12905.0545,-3287.6931L12905.0431,-3287.6841L12905.0324,-3287.679L12905.0257,-3287.679L12905.0231,-3287.6802L12905.0211,-3287.6819L12905.0164,-3287.6886L12905.0171,-3287.7162L12905.0171,-3287.7247L12905.0097,-3287.7405L12905.0144,-3287.7472L12905.0211,-3287.7518L12905.0344,-3287.7551L12905.0612,-3287.7579L12905.0872,-3287.7579L12905.0946,-3287.7546L12905.1219,-3287.7376L12905.1446,-3287.7371L12905.16,-3287.7383L12905.1633,-3287.7377L12905.1684,-3287.7373L12905.1754,-3287.7343L12905.1827,-3287.727L12905.2154,-3287.6965L12905.2234,-3287.6909L12905.2261,-3287.6903L12905.2421,-3287.6898L12905.2655,-3287.6993L12905.2802,-3287.6999L12905.2875,-3287.6988L12905.2969,-3287.6926L12905.3163,-3287.6706L12905.3223,-3287.6655L12905.3296,-3287.6621L12905.3403,-3287.6593L12905.4011,-3287.6492L12905.4305,-3287.6463L12905.4405,-3287.648L12905.4499,-3287.6501L12905.4574,-3287.656L12905.464,-3287.663L12905.4672,-3287.6774L12905.4672,-3287.7112L12905.4645,-3287.7354L12905.4585,-3287.745L12905.4238,-3287.7828L12905.4201,-3287.7965L12905.4202,-3287.8031L12905.424,-3287.809L12905.4385,-3287.8213L12905.4698,-3287.8387L12905.4848,-3287.8492L12905.5017,-3287.8642L12905.5226,-3287.885"/>
<path content="1,西肥自動車（株）,奈良尾～桐子里～若松港ターミナル線,5.0,5.0,5.0," xlink:title="1" d="M12905.5226,-3287.885L12905.5397,-3287.8825L12905.552,-3287.8838L12905.5649,-3287.8889L12905.5926,-3287.8923L12905.6124,-3287.8939L12905.6335,-3287.8916L12905.6475,-3287.8848L12905.6575,-3287.8781L12905.6722,-3287.8656L12905.7149,-3287.833L12905.7924,-3287.7709L12905.8071,-3287.758L12905.8953,-3287.6864L12905.912,-3287.6768L12905.9373,-3287.6661L12905.9547,-3287.6627L12905.9694,-3287.6621L12905.9721,-3287.6638L12905.9841,-3287.6678L12906.0028,-3287.6796L12906.0115,-3287.6886L12906.0148,-3287.6988L12906.0148,-3287.7191L12906.0088,-3287.7326L12905.9894,-3287.7591L12905.9801,-3287.7693L12905.9574,-3287.7986L12905.9413,-3287.8223L12905.9367,-3287.833L12905.9313,-3287.8476L12905.9333,-3287.8684L12905.9506,-3287.8826L12905.9766,-3287.8903L12906.0265,-3287.8914L12906.0288,-3287.9172L12906.036,-3288.0593L12906.042,-3288.1127L12906.0452,-3288.1569L12906.0508,-3288.1814L12906.0514,-3288.2065L12906.0449,-3288.222L12906.0395,-3288.2361L12906.0308,-3288.2496L12906.0195,-3288.2626L12906.0001,-3288.2761L12905.9932,-3288.3813"/>
<path content="1,西肥自動車（株）,奈良尾～桐子里～若松港ターミナル線,5.0,5.0,5.0," xlink:title="1" d="M12902.5923,-3288.554L12902.593,-3288.5694L12902.5897,-3288.5816L12902.5805,-3288.6036L12902.5772,-3288.6158L12902.5772,-3288.6331"/>
<path content="1,西肥自動車（株）,奈良尾～桐子里～若松港ターミナル線,5.0,5.0,5.0," xlink:title="1" d="M12902.5772,-3288.6331L12902.5915,-3288.6323L12902.6175,-3288.6442L12902.6356,-3288.6538L12902.6616,-3288.6735L12902.6903,-3288.6966L12902.709,-3288.7079L12902.7224,-3288.7152L12902.7538,-3288.7265L12902.7705,-3288.7299L12902.7872,-3288.7287L12902.7992,-3288.7242L12902.8065,-3288.7197L12902.8166,-3288.7101L12902.8292,-3288.6921L12902.8459,-3288.6656L12902.8539,-3288.6554L12902.8646,-3288.6487L12902.8767,-3288.6436L12902.9368,-3288.6289L12902.9661,-3288.6233L12902.9888,-3288.6239L12903.0289,-3288.6312L12903.0783,-3288.6493L12903.1031,-3288.6599L12903.1224,-3288.6718L12903.1378,-3288.6853L12903.1404,-3288.6938L12903.1404,-3288.7124L12903.1391,-3288.722L12903.1398,-3288.7423L12903.1451,-3288.753L12903.1538,-3288.7643L12903.1598,-3288.7676L12903.1689,-3288.7719L12903.2666,-3288.7857L12903.4363,-3288.8032L12903.6567,-3288.824L12903.7048,-3288.828L12903.7368,-3288.8291L12903.7535,-3288.8269L12903.7962,-3288.8122L12903.831,-3288.8032L12903.849,-3288.8032L12903.8644,-3288.8071L12903.8797,-3288.815L12903.9245,-3288.8471L12903.9452,-3288.8573L12903.9559,-3288.8596L12903.9899,-3288.859L12904.0353,-3288.8522L12904.1348,-3288.8364L12904.1622,-3288.837L12904.1722,-3288.8381L12904.2323,-3288.8494L12904.2544,-3288.8488L12904.2657,-3288.8443L12904.2811,-3288.8302L12904.3646,-3288.7344L12904.4574,-3288.6372L12904.5126,-3288.5916L12904.5228,-3288.5889L12904.5335,-3288.5878L12904.5502,-3288.5889L12904.6177,-3288.6008L12904.6331,-3288.603L12904.6524,-3288.607L12904.6691,-3288.6064L12904.6871,-3288.5991L12904.7119,-3288.5827L12904.7599,-3288.5473L12904.786,-3288.5264L12904.7967,-3288.5151L12904.806,-3288.5004L12904.81,-3288.4909L12904.8167,-3288.4458L12904.8234,-3288.4277L12904.8327,-3288.4164L12904.8494,-3288.4046L12904.8688,-3288.3973L12904.8888,-3288.3927L12904.9042,-3288.3882L12904.9182,-3288.3854L12904.9393,-3288.3811L12904.9509,-3288.3787L12904.9716,-3288.3758L12905.0184,-3288.3758L12905.0351,-3288.3781L12905.0464,-3288.3787L12905.0912,-3288.3843L12905.1152,-3288.3843L12905.1233,-3288.3832L12905.1366,-3288.3804L12905.1753,-3288.3651L12905.19,-3288.3606L12905.2087,-3288.3618L12905.2368,-3288.3686L12905.2568,-3288.3725L12905.2755,-3288.3719L12905.2869,-3288.3669L12905.2942,-3288.3573L12905.2982,-3288.3488L12905.2982,-3288.333L12905.2862,-3288.3105L12905.2789,-3288.2998L12905.2749,-3288.2902L12905.2735,-3288.2738L12905.2775,-3288.2631L12905.3123,-3288.2264L12905.3196,-3288.2157L12905.3249,-3288.2033L12905.3283,-3288.1898L12905.3283,-3288.1627L12905.3243,-3288.152L12905.3009,-3288.1216L12905.2929,-3288.1052L12905.2936,-3288.0945L12905.2976,-3288.0838L12905.3577,-3287.9869L12905.3697,-3287.9761L12905.377,-3287.9716L12905.3784,-3287.9694L12905.3951,-3287.9699L12905.4091,-3287.975L12905.4345,-3287.9812L12905.4498,-3287.9812L12905.4638,-3287.9773L12905.4785,-3287.9643L12905.4879,-3287.9542L12905.5019,-3287.9316L12905.5072,-3287.9144L12905.5178,-3287.895L12905.5226,-3287.885"/>
<path content="1,西肥自動車（株）,奈良尾～桐子里～若松港ターミナル線,5.0,5.0,5.0," xlink:title="1" d="M12902.3438,-3288.7058L12902.3451,-3288.7053L12902.387,-3288.7007L12902.4086,-3288.6956L12902.4236,-3288.6854L12902.4508,-3288.6546L12902.4661,-3288.6473L12902.4837,-3288.6469L12902.5238,-3288.6549L12902.5366,-3288.6543L12902.5518,-3288.6499L12902.5772,-3288.6331"/>
<path content="1,西肥自動車（株）,奈良尾～高井旅～中五島高校線,4.0,0.0,0.0," xlink:title="1" d="M12906.3378,-3287.1094L12906.3421,-3287.1147L12906.3507,-3287.1277L12906.3688,-3287.1502L12906.3875,-3287.1683L12906.3979,-3287.17L12906.4046,-3287.1682L12906.4115,-3287.163L12906.4376,-3287.1356L12906.4497,-3287.1188L12906.4576,-3287.1094M12906.4812,-3287.1094L12906.4803,-3287.1146L12906.4685,-3287.1365L12906.4572,-3287.1603L12906.4527,-3287.1865L12906.4487,-3287.214L12906.4473,-3287.2405L12906.4435,-3287.2706L12906.4401,-3287.2924L12906.4364,-3287.3246L12906.4428,-3287.3401L12906.4534,-3287.3592L12906.4576,-3287.3703L12906.458,-3287.3771L12906.4559,-3287.3902L12906.45,-3287.4093L12906.447,-3287.4299L12906.4483,-3287.4406L12906.4521,-3287.4506L12906.4556,-3287.4547L12906.4649,-3287.4648L12906.4758,-3287.4746L12906.517,-3287.5116L12906.5391,-3287.5359L12906.5504,-3287.5584L12906.5551,-3287.577L12906.5551,-3287.6182L12906.5497,-3287.639L12906.513,-3287.7117L12906.5117,-3287.7428L12906.5083,-3287.7879L12906.5063,-3287.7958L12906.5043,-3287.7991L12906.495,-3287.811L12906.487,-3287.8144L12906.4769,-3287.8161L12906.4682,-3287.8161L12906.4522,-3287.8132L12906.4362,-3287.8059L12906.4295,-3287.8014L12906.4122,-3287.7839L12906.3935,-3287.7591L12906.3654,-3287.7287L12906.3514,-3287.7174L12906.342,-3287.7134L12906.3267,-3287.7106L12906.308,-3287.7101L12906.2792,-3287.7162L12906.2499,-3287.7258L12906.2365,-3287.7309L12906.2198,-3287.7388L12906.2178,-3287.7394L12906.1971,-3287.7506L12906.1524,-3287.7783L12906.0729,-3287.8301L12906.0569,-3287.8426L12906.0462,-3287.8532L12906.0382,-3287.8634L12906.0315,-3287.8758L12906.0265,-3287.8914L12906.0288,-3287.9172L12906.036,-3288.0593L12906.042,-3288.1127L12906.0452,-3288.1569L12906.0508,-3288.1814L12906.0514,-3288.2065L12906.0449,-3288.222L12906.0395,-3288.2361L12906.0308,-3288.2496L12906.0195,-3288.2626L12906.0001,-3288.2761L12905.9932,-3288.3813"/>
<path content="1,西肥自動車（株）,有川港ターミナル～阿瀬津～鯛の浦線,12.0,12.0,12.0," xlink:title="1" d="M12910.1208,-3295.2513L12910.1245,-3295.2951L12910.1182,-3295.4094L12910.1167,-3295.4434L12910.1301,-3295.5576L12910.1336,-3295.5984L12910.1326,-3295.6196L12910.1171,-3295.6523L12910.093,-3295.6931L12910.0854,-3295.7118L12910.0799,-3295.7394L12910.0784,-3295.7657L12910.0854,-3295.8091L12910.1089,-3295.8936L12910.1102,-3295.8984"/>
<path content="1,西肥自動車（株）,有川港ターミナル～阿瀬津～鯛の浦線,12.0,12.0,12.0," xlink:title="1" d="M12910.4513,-3295.8984L12910.4568,-3295.8859L12910.4729,-3295.8696L12910.5203,-3295.8374L12910.5269,-3295.8302L12910.529,-3295.8278L12910.5344,-3295.8188L12910.5431,-3295.7991L12910.5497,-3295.785L12910.5858,-3295.6965L12910.6239,-3295.6221L12910.66,-3295.5499L12910.6781,-3295.5217L12910.6894,-3295.511L12910.7062,-3295.4997L12910.7213,-3295.4889L12910.7857,-3295.4619L12910.8305,-3295.4439L12910.8519,-3295.4332L12910.8604,-3295.4236"/>
<path content="1,西肥自動車（株）,有川港ターミナル～青方線,27.5,27.5,27.5," xlink:title="1" d="M12906.3378,-3287.1094L12906.3421,-3287.1147L12906.3507,-3287.1277L12906.3688,-3287.1502L12906.3875,-3287.1683L12906.3979,-3287.17L12906.4046,-3287.1682L12906.4115,-3287.163L12906.4376,-3287.1356L12906.4497,-3287.1188L12906.4576,-3287.1094M12906.4812,-3287.1094L12906.4803,-3287.1146L12906.4685,-3287.1365L12906.4572,-3287.1603L12906.4527,-3287.1865L12906.4487,-3287.214L12906.4473,-3287.2405L12906.4435,-3287.2706L12906.4401,-3287.2924L12906.4364,-3287.3246L12906.4428,-3287.3401L12906.4534,-3287.3592L12906.4576,-3287.3703L12906.458,-3287.3771L12906.4559,-3287.3902L12906.45,-3287.4093L12906.447,-3287.4299L12906.4483,-3287.4406L12906.4521,-3287.4506L12906.4556,-3287.4547L12906.4649,-3287.4648L12906.4758,-3287.4746L12906.517,-3287.5116L12906.5391,-3287.5359L12906.5504,-3287.5584L12906.5551,-3287.577L12906.5551,-3287.6182L12906.5497,-3287.639L12906.513,-3287.7117L12906.5117,-3287.7428L12906.5083,-3287.7879L12906.5063,-3287.7958L12906.5043,-3287.7991L12906.495,-3287.811L12906.487,-3287.8144L12906.4769,-3287.8161L12906.4682,-3287.8161L12906.4522,-3287.8132L12906.4362,-3287.8059L12906.4295,-3287.8014L12906.4122,-3287.7839L12906.3935,-3287.7591L12906.3654,-3287.7287L12906.3514,-3287.7174L12906.342,-3287.7134L12906.3267,-3287.7106L12906.308,-3287.7101L12906.2792,-3287.7162L12906.2499,-3287.7258L12906.2365,-3287.7309L12906.2198,-3287.7388L12906.2178,-3287.7394L12906.1971,-3287.7506L12906.1524,-3287.7783L12906.0729,-3287.8301L12906.0569,-3287.8426L12906.0462,-3287.8532L12906.0382,-3287.8634L12906.0315,-3287.8758L12906.0265,-3287.8914L12906.0288,-3287.9172L12906.036,-3288.0593L12906.042,-3288.1127L12906.0452,-3288.1569L12906.0508,-3288.1814L12906.0514,-3288.2065L12906.0449,-3288.222L12906.0395,-3288.2361L12906.0308,-3288.2496L12906.0195,-3288.2626L12906.0001,-3288.2761L12905.9514,-3288.2975L12905.9308,-3288.3077L12905.8966,-3288.3229L12905.8819,-3288.3336L12905.8639,-3288.3499L12905.8405,-3288.3736L12905.8211,-3288.3984L12905.8081,-3288.4214L12905.8051,-3288.4266L12905.8004,-3288.439L12905.7757,-3288.5518L12905.7737,-3288.5636L12905.7777,-3288.5771L12905.7864,-3288.589L12905.8044,-3288.6042L12905.8512,-3288.6307L12905.8906,-3288.6555L12905.9019,-3288.6656L12905.9386,-3288.7062L12905.9527,-3288.7215L12905.9547,-3288.7232L12905.968,-3288.7356L12905.9821,-3288.7457L12905.9961,-3288.7525L12906.0234,-3288.7604L12906.0341,-3288.7621L12906.0495,-3288.7654L12906.0508,-3288.7666L12906.0716,-3288.7705L12906.0829,-3288.7745L12906.0943,-3288.7807L12906.1103,-3288.7919L12906.1169,-3288.801L12906.1296,-3288.8224L12906.1343,-3288.8342L12906.1523,-3288.8985L12906.1603,-3288.9419L12906.161,-3288.9763L12906.157,-3288.9938L12906.151,-3289.0056L12906.1423,-3289.0169L12906.1356,-3289.0236L12906.1223,-3289.0332L12906.0942,-3289.0462L12906.0722,-3289.0535L12906.0415,-3289.0671L12906.0248,-3289.0806L12906.0176,-3289.0981L12906.0171,-3289.1139L12906.0261,-3289.1398L12906.0515,-3289.1911L12906.0562,-3289.2046L12906.0588,-3289.2198L12906.0595,-3289.2238L12906.0608,-3289.2537L12906.0635,-3289.2728L12906.0708,-3289.2965L12906.0822,-3289.3208L12906.0982,-3289.3399L12906.1062,-3289.3484L12906.1142,-3289.3535L12906.1276,-3289.3597L12906.1344,-3289.3603L12906.1396,-3289.3608L12906.1517,-3289.3574L12906.1984,-3289.3241L12906.2164,-3289.3084L12906.2298,-3289.2909L12906.2351,-3289.2802L12906.2485,-3289.23L12906.2505,-3289.2255L12906.2525,-3289.2193L12906.2605,-3289.2007L12906.2832,-3289.1618L12906.2972,-3289.1409L12906.3166,-3289.1178L12906.3266,-3289.1082L12906.338,-3289.0992L12906.3453,-3289.0958L12906.3507,-3289.0919L12906.3578,-3289.0885L12906.3674,-3289.0874L12906.3867,-3289.0874L12906.3974,-3289.0907L12906.4061,-3289.0952L12906.4174,-3289.1043L12906.4228,-3289.1139L12906.4222,-3289.1207L12906.4208,-3289.1268L12906.4114,-3289.1466L12906.3887,-3289.1911L12906.3808,-3289.21L12906.3781,-3289.2243L12906.374,-3289.2508L12906.3707,-3289.2734L12906.3687,-3289.3022L12906.3615,-3289.3499L12906.354,-3289.442L12906.3533,-3289.491L12906.354,-3289.5079L12906.352,-3289.5248L12906.3487,-3289.5361L12906.3406,-3289.557L12906.3273,-3289.5818L12906.3173,-3289.6083L12906.3168,-3289.6195L12906.315,-3289.6428L12906.3168,-3289.6715L12906.3209,-3289.6885L12906.3366,-3289.7239L12906.3547,-3289.7442L12906.3747,-3289.7543L12906.3954,-3289.7594L12906.4141,-3289.7611L12906.4181,-3289.7622L12906.4435,-3289.7645L12906.4488,-3289.7645L12906.4669,-3289.7662L12906.4882,-3289.7695L12906.5029,-3289.7741L12906.5156,-3289.7831L12906.5229,-3289.7977L12906.526,-3289.8155L12906.5283,-3289.85L12906.5002,-3289.9358L12906.4835,-3289.9742L12906.4809,-3289.9821L12906.4822,-3289.9996L12906.4869,-3290.0204L12906.5247,-3290.0988L12906.5463,-3290.1405L12906.5489,-3290.1446L12906.5637,-3290.1675L12906.5777,-3290.1884L12906.5797,-3290.1895L12906.5831,-3290.1946L12906.5931,-3290.2053L12906.6111,-3290.2256L12906.6189,-3290.2315L12906.6545,-3290.2583L12906.7023,-3290.2862L12906.7623,-3290.3313L12906.7891,-3290.3573L12906.7973,-3290.3706L12906.7984,-3290.3878L12906.7996,-3290.4155L12906.7907,-3290.4398L12906.7907,-3290.4404L12906.77,-3290.4776L12906.7614,-3290.4894L12906.7569,-3290.4941L12906.7533,-3290.4979L12906.7079,-3290.5278L12906.6738,-3290.5399L12906.6324,-3290.547L12906.5448,-3290.5429L12906.473,-3290.5401L12906.423,-3290.539L12906.3843,-3290.5515L12906.3118,-3290.5854L12906.2812,-3290.6005L12906.2685,-3290.6073L12906.2578,-3290.6157L12906.2571,-3290.6267L12906.2566,-3290.649L12906.272,-3290.6887L12906.2911,-3290.7287L12906.3535,-3290.8823L12906.3607,-3290.9032L12906.3608,-3290.9199L12906.3557,-3290.9429L12906.3453,-3290.9605L12906.3319,-3290.9676L12906.2896,-3290.9726L12906.2418,-3290.9737L12906.23,-3290.9742L12906.1865,-3290.9723L12906.165,-3290.9641L12906.1483,-3290.9495L12906.1033,-3290.8807L12906.09,-3290.873L12906.0627,-3290.8718L12905.9871,-3290.877L12905.8009,-3290.8849L12905.5493,-3290.9L12905.5069,-3290.9062L12905.4451,-3290.9198L12905.4098,-3290.931L12905.3722,-3290.9483L12905.3481,-3290.9632L12905.3222,-3290.9852L12905.2841,-3291.0216L12905.2459,-3291.0533L12905.2175,-3291.0929L12905.2075,-3291.1152L12905.2052,-3291.1352L12905.203,-3291.1602L12905.205,-3291.2241L12905.1993,-3291.2479L12905.1908,-3291.264L12905.1781,-3291.2858L12905.1617,-3291.3073L12905.138,-3291.3306L12905.1295,-3291.3507L12905.1201,-3291.3859L12905.1174,-3291.4178L12905.1207,-3291.4428L12905.1286,-3291.4745L12905.1399,-3291.5178L12905.1387,-3291.5269L12905.132,-3291.5391L12905.1082,-3291.5856L12905.0766,-3291.6292L12905.0672,-3291.6354L12905.0498,-3291.6349L12905.0369,-3291.6282L12905.0236,-3291.6161L12904.9969,-3291.5891L12904.9795,-3291.5755L12904.9672,-3291.5725L12904.9457,-3291.574L12904.9398,-3291.5807L12904.931,-3291.5928L12904.9307,-3291.603L12904.934,-3291.6166L12904.9428,-3291.6364L12904.9681,-3291.6777L12905.002,-3291.7258L12905.0179,-3291.7453L12905.0338,-3291.7614L12905.0627,-3291.7847L12905.1277,-3291.834L12905.1699,-3291.8659L12905.1784,-3291.8761L12905.1843,-3291.8924L12905.1937,-3291.9085L12905.204,-3291.9221L12905.1842,-3292.0031L12905.1673,-3292.0556L12905.1582,-3292.0788L12905.1464,-3292.0989L12905.1376,-3292.1083L12905.1171,-3292.1286L12905.1024,-3292.139L12905.0801,-3292.1537L12905.0448,-3292.1633L12904.9854,-3292.1729L12904.8162,-3292.195L12904.7021,-3292.2145L12904.6613,-3292.2247L12904.6312,-3292.236L12904.5784,-3292.263L12904.4779,-3292.3243L12904.4397,-3292.3439L12904.4287,-3292.3419L12904.4217,-3292.3402L12904.4137,-3292.3361L12904.406,-3292.3268L12904.3968,-3292.3131L12904.3834,-3292.2854L12904.375,-3292.2767L12904.3601,-3292.2712L12904.3479,-3292.2691L12904.2669,-3292.2698L12904.2355,-3292.2698L12904.2268,-3292.2721L12904.2207,-3292.282L12904.2198,-3292.2945L12904.2198,-3292.3423L12904.2171,-3292.3484L12904.1984,-3292.3543L12904.1851,-3292.3572L12904.1732,-3292.3568L12904.163,-3292.3525L12904.1531,-3292.3427L12904.1383,-3292.3257L12904.1077,-3292.3004L12904.0882,-3292.29L12904.0685,-3292.28L12904.0508,-3292.2744L12904.0356,-3292.276L12904.0304,-3292.2808L12904.0273,-3292.2885L12904.0236,-3292.3137L12904.0188,-3292.3251L12904.0088,-3292.3343L12903.9855,-3292.3504L12903.9754,-3292.3549L12903.9487,-3292.36L12903.9441,-3292.3606L12903.9253,-3292.3662L12903.9077,-3292.3737L12903.904,-3292.3799L12903.9033,-3292.3876L12903.9031,-3292.397L12903.9062,-3292.4117L12903.9147,-3292.4258L12903.9447,-3292.4642L12903.9486,-3292.4726L12903.952,-3292.4798L12903.951,-3292.4875L12903.9459,-3292.4922L12903.9313,-3292.4998L12903.9139,-3292.5054L12903.8678,-3292.5162L12903.8352,-3292.5289L12903.8162,-3292.5448L12903.7968,-3292.563L12903.7716,-3292.5914L12903.7541,-3292.6171L12903.7439,-3292.6325L12903.7398,-3292.6436L12903.7404,-3292.658L12903.748,-3292.6719L12903.7613,-3292.688L12903.7751,-3292.6994L12903.7951,-3292.7116L12903.8234,-3292.7249L12903.8505,-3292.737L12903.8725,-3292.7504L12903.8828,-3292.7605L12903.897,-3292.7766L12903.9171,-3292.8029L12903.9306,-3292.8271L12903.9341,-3292.8402L12903.9336,-3292.8556L12903.9234,-3292.8714L12903.9072,-3292.8855L12903.8981,-3292.8984L12903.894,-3292.9081L12903.8958,-3292.9192L12903.9067,-3292.942L12903.9065,-3292.9536L12903.9047,-3292.99L12903.9059,-3293.0014L12903.9183,-3293.0076L12903.9433,-3293.0084L12903.9571,-3293.0076L12903.9738,-3293.0007L12903.9953,-3292.9848L12904.0415,-3292.9502L12904.0635,-3292.9373L12904.0791,-3292.9311L12904.0897,-3292.9309L12904.1097,-3292.9264L12904.1217,-3292.9289L12904.1329,-3292.9351L12904.1414,-3292.9437L12904.1545,-3292.9782L12904.1619,-3293.0081L12904.1506,-3293.0529L12904.1439,-3293.0709L12904.1031,-3293.1391L12904.0831,-3293.1818L12904.0162,-3293.3133L12904.0135,-3293.3185L12904.0077,-3293.3293L12903.9968,-3293.35L12903.9935,-3293.3584L12903.9848,-3293.3781L12903.9787,-3293.3849L12903.9714,-3293.3939L12903.954,-3293.4074L12903.9409,-3293.4147L12903.9293,-3293.4311L12903.9119,-3293.4571L12903.9094,-3293.4614L12903.9016,-3293.4927L12903.8971,-3293.5121L12903.8564,-3293.6583L12903.8534,-3293.6699L12903.8464,-3293.6972L12903.839,-3293.7531L12903.8405,-3293.8433L12903.8432,-3293.8905L12903.8437,-3293.9757L12903.8437,-3293.9938L12903.839,-3294.0039L12903.8296,-3294.0152L12903.8209,-3294.022L12903.805,-3294.0321L12903.7742,-3294.0434L12903.7027,-3294.0586L12903.6833,-3294.0626L12903.6532,-3294.071L12903.6304,-3294.0801L12903.6124,-3294.0913L12903.6017,-3294.1043L12903.5966,-3294.1225L12903.5927,-3294.1408L12903.5921,-3294.17L12903.5951,-3294.1918L12903.6097,-3294.2428L12903.6232,-3294.2876L12903.6274,-3294.3182L12903.6274,-3294.3375L12903.6144,-3294.375L12903.5999,-3294.4314L12903.5866,-3294.4832L12903.6528,-3294.4901L12903.6984,-3294.4958L12903.7136,-3294.5055L12903.7186,-3294.5164L12903.7169,-3294.5295L12903.7079,-3294.5394L12903.6768,-3294.5594L12903.6659,-3294.5711L12903.6659,-3294.5818L12903.6699,-3294.5953L12903.6939,-3294.6388L12903.7027,-3294.6525L12903.7067,-3294.6729L12903.7041,-3294.7077L12903.7013,-3294.7577L12903.7005,-3294.7699L12903.7019,-3294.7802L12903.7039,-3294.7853L12903.712,-3294.7983L12903.722,-3294.805L12903.7307,-3294.8073L12903.7534,-3294.8073L12903.7708,-3294.8022L12903.7895,-3294.7904L12903.7975,-3294.7825L12903.8178,-3294.7633L12903.8395,-3294.7488L12903.851,-3294.7448L12903.8592,-3294.7439L12903.8636,-3294.7441L12903.8706,-3294.7455L12903.882,-3294.7524L12903.8889,-3294.7593L12903.8915,-3294.7644L12903.8962,-3294.7721L12903.8981,-3294.7796L12903.8978,-3294.7971L12903.8918,-3294.8163L12903.8811,-3294.8394L12903.8804,-3294.8518L12903.8911,-3294.8654L12903.9058,-3294.8732L12903.9139,-3294.8766L12903.9353,-3294.8823L12903.9419,-3294.8834L12903.9493,-3294.884L12903.9941,-3294.8851L12904.0301,-3294.8988L12904.0362,-3294.9061L12904.0368,-3294.918L12904.0268,-3294.9392L12904.0228,-3294.9477L12904.0114,-3294.9691L12904.0117,-3294.9911L12904.0227,-3295.0191L12904.0408,-3295.0599L12904.0629,-3295.0909L12904.1318,-3295.1766L12904.1598,-3295.2087L12904.2126,-3295.264L12904.2233,-3295.2764L12904.2334,-3295.2848L12904.2447,-3295.2905L12904.2567,-3295.2944L12904.2975,-3295.3012L12904.3203,-3295.3034L12904.339,-3295.3074L12904.3557,-3295.3147L12904.3751,-3295.326L12904.3938,-3295.3423L12904.4332,-3295.3874L12904.4593,-3295.4207L12904.4713,-3295.4314L12904.4994,-3295.4489L12904.5388,-3295.4703L12904.5723,-3295.4878L12904.6097,-3295.5002L12904.6244,-3295.5041L12904.6398,-3295.5036L12904.716,-3295.4844L12904.7354,-3295.4822L12904.74,-3295.4823L12904.7626,-3295.4804L12904.7752,-3295.4797L12904.7923,-3295.4747L12904.8381,-3295.5124L12904.8662,-3295.5403L12904.9022,-3295.5899L12904.9521,-3295.6446L12904.9843,-3295.6894L12905.0078,-3295.726L12905.0161,-3295.7488L12905.0181,-3295.7635L12905.0174,-3295.7877L12905.0154,-3295.8029L12905.0018,-3295.8539L12905.0001,-3295.8595L12904.9989,-3295.8672L12904.9987,-3295.8751L12905.0036,-3295.8984"/>
<path content="1,西肥自動車（株）,有川港ターミナル～青方～奈良尾線,14.0,14.0,14.0," xlink:title="1" d="M12903.5999,-3294.4314L12903.6144,-3294.375L12903.6274,-3294.3375L12903.6274,-3294.3182L12903.6232,-3294.2876L12903.6097,-3294.2428L12903.5951,-3294.1918L12903.5921,-3294.17L12903.5927,-3294.1408L12903.5966,-3294.1225L12903.6017,-3294.1043L12903.6124,-3294.0913L12903.6304,-3294.0801L12903.6532,-3294.071L12903.6833,-3294.0626L12903.7027,-3294.0586L12903.7742,-3294.0434L12903.805,-3294.0321L12903.8209,-3294.022L12903.8296,-3294.0152L12903.839,-3294.0039L12903.8437,-3293.9938L12903.8437,-3293.9757L12903.8432,-3293.8905L12903.8405,-3293.8433L12903.839,-3293.7531L12903.8464,-3293.6972L12903.8534,-3293.6699L12903.8564,-3293.6583L12903.8971,-3293.5121L12903.9016,-3293.4927L12903.9094,-3293.4614L12903.9119,-3293.4571L12903.9293,-3293.4311L12903.9409,-3293.4147L12903.954,-3293.4074L12903.9714,-3293.3939L12903.9787,-3293.3849L12903.9848,-3293.3781L12903.9935,-3293.3584L12903.9968,-3293.35L12904.0077,-3293.3293L12904.0135,-3293.3185L12904.0162,-3293.3133L12904.0831,-3293.1818L12904.1031,-3293.1391L12904.1439,-3293.0709L12904.1506,-3293.0529L12904.1619,-3293.0081L12904.1545,-3292.9782L12904.1414,-3292.9437L12904.1329,-3292.9351L12904.1217,-3292.9289L12904.1097,-3292.9264L12904.0897,-3292.9309L12904.0791,-3292.9311L12904.0635,-3292.9373L12904.0415,-3292.9502L12903.9953,-3292.9848L12903.9738,-3293.0007L12903.9571,-3293.0076L12903.9433,-3293.0084L12903.9183,-3293.0076L12903.9059,-3293.0014L12903.9047,-3292.99L12903.9065,-3292.9536L12903.9067,-3292.942L12903.8958,-3292.9192L12903.894,-3292.9081L12903.8981,-3292.8984L12903.9072,-3292.8855L12903.9234,-3292.8714L12903.9336,-3292.8556L12903.9341,-3292.8402L12903.9306,-3292.8271L12903.9171,-3292.8029L12903.897,-3292.7766L12903.8828,-3292.7605L12903.8725,-3292.7504L12903.8505,-3292.737L12903.8234,-3292.7249L12903.7951,-3292.7116L12903.7751,-3292.6994L12903.7613,-3292.688L12903.748,-3292.6719L12903.7404,-3292.658L12903.7398,-3292.6436L12903.7439,-3292.6325L12903.7541,-3292.6171L12903.7716,-3292.5914L12903.7968,-3292.563L12903.8162,-3292.5448L12903.8352,-3292.5289L12903.8678,-3292.5162L12903.9139,-3292.5054L12903.9313,-3292.4998L12903.9459,-3292.4922L12903.951,-3292.4875L12903.952,-3292.4798L12903.9486,-3292.4726L12903.9447,-3292.4642L12903.9147,-3292.4258L12903.9062,-3292.4117L12903.9031,-3292.397L12903.9033,-3292.3876L12903.904,-3292.3799L12903.9077,-3292.3737L12903.9253,-3292.3662L12903.9441,-3292.3606L12903.9487,-3292.36L12903.9754,-3292.3549L12903.9855,-3292.3504L12904.0088,-3292.3343L12904.0188,-3292.3251L12904.0236,-3292.3137L12904.0273,-3292.2885L12904.0304,-3292.2808L12904.0356,-3292.276L12904.0508,-3292.2744L12904.0685,-3292.28L12904.0882,-3292.29L12904.1077,-3292.3004L12904.1383,-3292.3257L12904.1531,-3292.3427L12904.163,-3292.3525L12904.1732,-3292.3568L12904.1851,-3292.3572L12904.1984,-3292.3543L12904.2171,-3292.3484L12904.2198,-3292.3423L12904.2198,-3292.2945L12904.2207,-3292.282L12904.2268,-3292.2721L12904.2355,-3292.2698L12904.2669,-3292.2698L12904.3479,-3292.2691L12904.3601,-3292.2712L12904.375,-3292.2767L12904.3834,-3292.2854L12904.3968,-3292.3131L12904.406,-3292.3268L12904.4137,-3292.3361L12904.4217,-3292.3402L12904.4287,-3292.3419L12904.4397,-3292.3439L12904.4779,-3292.3243L12904.5784,-3292.263L12904.6312,-3292.236L12904.6613,-3292.2247L12904.7021,-3292.2145L12904.8162,-3292.195L12904.9854,-3292.1729L12905.0448,-3292.1633L12905.0801,-3292.1537L12905.1024,-3292.139L12905.1171,-3292.1286L12905.1376,-3292.1083L12905.1464,-3292.0989L12905.1582,-3292.0788L12905.1673,-3292.0556L12905.1842,-3292.0031L12905.204,-3291.9221L12905.1937,-3291.9085L12905.1843,-3291.8924L12905.1784,-3291.8761L12905.1699,-3291.8659L12905.1277,-3291.834L12905.0627,-3291.7847L12905.0338,-3291.7614L12905.0179,-3291.7453L12905.002,-3291.7258L12904.9681,-3291.6777L12904.9428,-3291.6364L12904.934,-3291.6166L12904.9307,-3291.603L12904.931,-3291.5928L12904.9398,-3291.5807L12904.9457,-3291.574L12904.9672,-3291.5725L12904.9795,-3291.5755L12904.9969,-3291.5891L12905.0236,-3291.6161L12905.0369,-3291.6282L12905.0498,-3291.6349L12905.0672,-3291.6354L12905.0766,-3291.6292L12905.1082,-3291.5856L12905.132,-3291.5391L12905.1387,-3291.5269L12905.1399,-3291.5178L12905.1286,-3291.4745L12905.1207,-3291.4428L12905.1174,-3291.4178L12905.1201,-3291.3859L12905.1295,-3291.3507L12905.138,-3291.3306L12905.1617,-3291.3073L12905.1781,-3291.2858L12905.1908,-3291.264L12905.1993,-3291.2479L12905.205,-3291.2241L12905.203,-3291.1602L12905.2052,-3291.1352L12905.2075,-3291.1152L12905.2175,-3291.0929L12905.2459,-3291.0533L12905.2841,-3291.0216L12905.3222,-3290.9852L12905.3481,-3290.9632L12905.3722,-3290.9483L12905.4098,-3290.931L12905.4451,-3290.9198L12905.5069,-3290.9062L12905.5493,-3290.9L12905.8009,-3290.8849L12905.9871,-3290.877L12906.0627,-3290.8718L12906.09,-3290.873L12906.1033,-3290.8807L12906.1483,-3290.9495L12906.165,-3290.9641L12906.1865,-3290.9723L12906.23,-3290.9742L12906.2418,-3290.9737L12906.2896,-3290.9726L12906.3319,-3290.9676L12906.3453,-3290.9605L12906.3557,-3290.9429L12906.3608,-3290.9199L12906.3607,-3290.9032L12906.3535,-3290.8823L12906.2911,-3290.7287L12906.272,-3290.6887L12906.2566,-3290.649L12906.2571,-3290.6267L12906.2578,-3290.6157L12906.2685,-3290.6073L12906.2812,-3290.6005L12906.3118,-3290.5854L12906.3843,-3290.5515L12906.423,-3290.539L12906.473,-3290.5401L12906.5448,-3290.5429L12906.6324,-3290.547L12906.6738,-3290.5399L12906.7079,-3290.5278L12906.7533,-3290.4979L12906.7569,-3290.4941L12906.7614,-3290.4894L12906.77,-3290.4776L12906.7907,-3290.4404L12906.7907,-3290.4398L12906.7996,-3290.4155L12906.7984,-3290.3878L12906.7973,-3290.3706L12906.7891,-3290.3573L12906.7623,-3290.3313L12906.7023,-3290.2862L12906.6545,-3290.2583L12906.6189,-3290.2315L12906.6111,-3290.2256L12906.5931,-3290.2053L12906.5831,-3290.1946L12906.5797,-3290.1895L12906.5777,-3290.1884L12906.5637,-3290.1675L12906.5489,-3290.1446L12906.5463,-3290.1405L12906.5247,-3290.0988L12906.4869,-3290.0204L12906.4822,-3289.9996L12906.4809,-3289.9821L12906.4835,-3289.9742L12906.5002,-3289.9358L12906.5283,-3289.85L12906.526,-3289.8155L12906.5229,-3289.7977L12906.5156,-3289.7831L12906.5029,-3289.7741L12906.4882,-3289.7695L12906.4669,-3289.7662L12906.4488,-3289.7645L12906.4435,-3289.7645L12906.4181,-3289.7622L12906.4141,-3289.7611L12906.3954,-3289.7594L12906.3747,-3289.7543L12906.3547,-3289.7442L12906.3366,-3289.7239L12906.3209,-3289.6885L12906.3168,-3289.6715L12906.315,-3289.6428L12906.3168,-3289.6195L12906.3173,-3289.6083L12906.3273,-3289.5818L12906.3406,-3289.557L12906.3487,-3289.5361L12906.352,-3289.5248L12906.354,-3289.5079L12906.3533,-3289.491L12906.354,-3289.442L12906.3615,-3289.3499L12906.3687,-3289.3022L12906.3707,-3289.2734L12906.374,-3289.2508L12906.3781,-3289.2243L12906.3808,-3289.21L12906.3887,-3289.1911L12906.4114,-3289.1466L12906.4208,-3289.1268L12906.4222,-3289.1207L12906.4228,-3289.1139L12906.4174,-3289.1043L12906.4061,-3289.0952L12906.3974,-3289.0907L12906.3867,-3289.0874L12906.3674,-3289.0874L12906.3578,-3289.0885L12906.3507,-3289.0919L12906.3453,-3289.0958L12906.338,-3289.0992L12906.3266,-3289.1082L12906.3166,-3289.1178L12906.2972,-3289.1409L12906.2832,-3289.1618L12906.2605,-3289.2007L12906.2525,-3289.2193L12906.2505,-3289.2255L12906.2485,-3289.23L12906.2351,-3289.2802L12906.2298,-3289.2909L12906.2164,-3289.3084L12906.1984,-3289.3241L12906.1517,-3289.3574L12906.1396,-3289.3608L12906.1344,-3289.3603L12906.1276,-3289.3597L12906.1142,-3289.3535L12906.1062,-3289.3484L12906.0982,-3289.3399L12906.0822,-3289.3208L12906.0708,-3289.2965L12906.0635,-3289.2728L12906.0608,-3289.2537L12906.0595,-3289.2238L12906.0588,-3289.2198L12906.0562,-3289.2046L12906.0515,-3289.1911L12906.0261,-3289.1398L12906.0171,-3289.1139L12906.0176,-3289.0981L12906.0248,-3289.0806L12906.0415,-3289.0671L12906.0722,-3289.0535L12906.0942,-3289.0462L12906.1223,-3289.0332L12906.1356,-3289.0236L12906.1423,-3289.0169L12906.151,-3289.0056L12906.157,-3288.9938L12906.161,-3288.9763L12906.1603,-3288.9419L12906.1523,-3288.8985L12906.1343,-3288.8342L12906.1296,-3288.8224L12906.1169,-3288.801L12906.1103,-3288.7919L12906.0943,-3288.7807L12906.0829,-3288.7745L12906.0716,-3288.7705L12906.0508,-3288.7666L12906.0495,-3288.7654L12906.0341,-3288.7621L12906.0234,-3288.7604L12905.9961,-3288.7525L12905.9821,-3288.7457L12905.968,-3288.7356L12905.9547,-3288.7232L12905.9527,-3288.7215L12905.9386,-3288.7062L12905.9019,-3288.6656L12905.8906,-3288.6555L12905.8512,-3288.6307L12905.8044,-3288.6042L12905.7864,-3288.589L12905.7777,-3288.5771L12905.7737,-3288.5636L12905.7757,-3288.5518L12905.8004,-3288.439L12905.8051,-3288.4266L12905.8081,-3288.4214L12905.8211,-3288.3984L12905.8405,-3288.3736L12905.8639,-3288.3499L12905.8819,-3288.3336L12905.8966,-3288.3229L12905.9308,-3288.3077L12905.9514,-3288.2975L12906.0001,-3288.2761L12906.0195,-3288.2626L12906.0308,-3288.2496L12906.0395,-3288.2361L12906.0449,-3288.222L12906.0514,-3288.2065L12906.0508,-3288.1814L12906.0452,-3288.1569L12906.042,-3288.1127L12906.036,-3288.0593L12906.0288,-3287.9172L12906.0265,-3287.8914L12906.0315,-3287.8758L12906.0382,-3287.8634L12906.0462,-3287.8532L12906.0569,-3287.8426L12906.0729,-3287.8301L12906.1524,-3287.7783L12906.1971,-3287.7506L12906.2178,-3287.7394L12906.2198,-3287.7388L12906.2365,-3287.7309L12906.2499,-3287.7258L12906.2792,-3287.7162L12906.308,-3287.7101L12906.3267,-3287.7106L12906.342,-3287.7134L12906.3514,-3287.7174L12906.3654,-3287.7287L12906.3935,-3287.7591L12906.4122,-3287.7839L12906.4295,-3287.8014L12906.4362,-3287.8059L12906.4522,-3287.8132L12906.4682,-3287.8161L12906.4769,-3287.8161L12906.487,-3287.8144L12906.495,-3287.811L12906.5043,-3287.7991L12906.5063,-3287.7958L12906.5083,-3287.7879L12906.5117,-3287.7428L12906.513,-3287.7117L12906.5497,-3287.639L12906.5551,-3287.6182L12906.5551,-3287.577L12906.5504,-3287.5584L12906.5391,-3287.5359L12906.517,-3287.5116L12906.4758,-3287.4746L12906.4649,-3287.4648L12906.4556,-3287.4547L12906.4521,-3287.4506L12906.4483,-3287.4406L12906.447,-3287.4299L12906.45,-3287.4093L12906.4559,-3287.3902L12906.458,-3287.3771L12906.4576,-3287.3703L12906.4534,-3287.3592L12906.4428,-3287.3401L12906.4364,-3287.3246L12906.4401,-3287.2924L12906.4435,-3287.2706L12906.4473,-3287.2405L12906.4487,-3287.214L12906.4527,-3287.1865L12906.4572,-3287.1603L12906.4685,-3287.1365L12906.4803,-3287.1146L12906.4812,-3287.1094M12906.4576,-3287.1094L12906.4497,-3287.1188L12906.4376,-3287.1356L12906.4115,-3287.163L12906.4046,-3287.1682L12906.3979,-3287.17L12906.3875,-3287.1683L12906.3688,-3287.1502L12906.3507,-3287.1277L12906.3421,-3287.1147L12906.3378,-3287.1094"/>
<path content="1,西肥自動車（株）,有川港ターミナル～青方～奈良尾線,14.0,14.0,14.0," xlink:title="1" d="M12903.5999,-3294.4314L12903.5721,-3294.4238L12903.5655,-3294.4437L12903.5545,-3294.5766L12903.547,-3294.7201L12903.5384,-3294.739L12903.5025,-3294.7991"/>
<path content="1,西肥自動車（株）,有川港ターミナル～青方～奈良尾線,14.0,14.0,14.0," xlink:title="1" d="M12905.0036,-3295.8984L12904.9987,-3295.8751L12904.9989,-3295.8672L12905.0001,-3295.8595L12905.0018,-3295.8539L12905.0154,-3295.8029L12905.0174,-3295.7877L12905.0181,-3295.7635L12905.0161,-3295.7488L12905.0078,-3295.726L12904.9843,-3295.6894L12904.9521,-3295.6446L12904.9022,-3295.5899L12904.8662,-3295.5403L12904.8381,-3295.5124L12904.7923,-3295.4747L12904.7752,-3295.4797L12904.7626,-3295.4804L12904.74,-3295.4823L12904.7354,-3295.4822L12904.716,-3295.4844L12904.6398,-3295.5036L12904.6244,-3295.5041L12904.6097,-3295.5002L12904.5723,-3295.4878L12904.5388,-3295.4703L12904.4994,-3295.4489L12904.4713,-3295.4314L12904.4593,-3295.4207L12904.4332,-3295.3874L12904.3938,-3295.3423L12904.3751,-3295.326L12904.3557,-3295.3147L12904.339,-3295.3074L12904.3203,-3295.3034L12904.2975,-3295.3012L12904.2567,-3295.2944L12904.2447,-3295.2905L12904.2334,-3295.2848L12904.2233,-3295.2764L12904.2126,-3295.264L12904.1598,-3295.2087L12904.1318,-3295.1766L12904.0629,-3295.0909L12904.0408,-3295.0599L12904.0227,-3295.0191L12904.0117,-3294.9911L12904.0114,-3294.9691L12904.0228,-3294.9477L12904.0268,-3294.9392L12904.0368,-3294.918L12904.0362,-3294.9061L12904.0301,-3294.8988L12903.9941,-3294.8851L12903.9493,-3294.884L12903.9419,-3294.8834L12903.9353,-3294.8823L12903.9139,-3294.8766L12903.9058,-3294.8732L12903.8911,-3294.8654L12903.8804,-3294.8518L12903.8811,-3294.8394L12903.8918,-3294.8163L12903.8978,-3294.7971L12903.8981,-3294.7796L12903.8962,-3294.7721L12903.8915,-3294.7644L12903.8889,-3294.7593L12903.882,-3294.7524L12903.8706,-3294.7455L12903.8636,-3294.7441L12903.8592,-3294.7439L12903.851,-3294.7448L12903.8395,-3294.7488L12903.8178,-3294.7633L12903.7975,-3294.7825L12903.7895,-3294.7904L12903.7708,-3294.8022L12903.7534,-3294.8073L12903.7307,-3294.8073L12903.722,-3294.805L12903.712,-3294.7983L12903.7039,-3294.7853L12903.7019,-3294.7802L12903.7005,-3294.7699L12903.7013,-3294.7577L12903.7041,-3294.7077L12903.7067,-3294.6729L12903.7027,-3294.6525L12903.6939,-3294.6388L12903.6699,-3294.5953L12903.6659,-3294.5818L12903.6659,-3294.5711L12903.6768,-3294.5594L12903.7079,-3294.5394L12903.7169,-3294.5295L12903.7186,-3294.5164L12903.7136,-3294.5055L12903.6984,-3294.4958L12903.6528,-3294.4901L12903.5866,-3294.4832L12903.5999,-3294.4314"/>
<path content="1,西肥自動車（株）,有川港ターミナル～鯛の浦～神之浦～千切・船隠線,0.8,0.0,0.0," xlink:title="1" d="M12908.9575,-3291.0449L12908.9577,-3291.0413L12908.9497,-3291.0398L12908.9339,-3291.0276L12908.9206,-3291.0113L12908.9153,-3291.0023L12908.9157,-3290.9952L12908.9177,-3290.9872L12908.9323,-3290.9614L12908.9338,-3290.9532L12908.9313,-3290.9443L12908.9322,-3290.9294L12908.9384,-3290.9146L12908.9448,-3290.9051L12908.9985,-3290.9065L12909.0386,-3290.9074L12909.0528,-3290.9074L12909.0606,-3290.9046L12909.0706,-3290.8971L12909.0907,-3290.8762L12909.0979,-3290.8737L12909.1119,-3290.8747L12909.1231,-3290.8799L12909.1363,-3290.8833L12909.1463,-3290.8826L12909.1599,-3290.8765L12909.1798,-3290.8676L12909.198,-3290.8629L12909.227,-3290.8626L12909.2406,-3290.8592L12909.2474,-3290.8536L12909.251,-3290.8465L12909.251,-3290.8395L12909.2455,-3290.8338L12909.2387,-3290.8293L12909.2164,-3290.8267L12909.2088,-3290.8206L12909.199,-3290.81L12909.1922,-3290.8018L12909.1834,-3290.7841L12909.1745,-3290.7738L12909.1611,-3290.7648L12909.1439,-3290.7514L12909.1331,-3290.7396L12909.1303,-3290.7332L12909.1303,-3290.7266L12909.1343,-3290.7217L12909.1627,-3290.7149L12909.1746,-3290.7103L12909.178,-3290.7049L12909.1782,-3290.698L12909.1733,-3290.6887L12909.1619,-3290.6699L12909.149,-3290.6485L12909.1501,-3290.6342L12909.1548,-3290.6265L12909.1654,-3290.6195L12909.1788,-3290.614L12909.2088,-3290.6038L12909.2228,-3290.6016L12909.2453,-3290.6029L12909.2612,-3290.6054L12909.2742,-3290.61L12909.2831,-3290.6081L12909.2858,-3290.604L12909.2848,-3290.599L12909.2786,-3290.5947L12909.2661,-3290.5916L12909.2355,-3290.5886L12909.2309,-3290.5845L12909.2294,-3290.5796L12909.23,-3290.5736L12909.2474,-3290.5518L12909.2522,-3290.543L12909.2545,-3290.5337L12909.2541,-3290.5239L12909.2486,-3290.516L12909.2388,-3290.511L12909.2229,-3290.5057L12909.2191,-3290.5006L12909.2201,-3290.494L12909.225,-3290.4874L12909.231,-3290.4835L12909.2439,-3290.4822L12909.2556,-3290.4835L12909.2696,-3290.4922L12909.2842,-3290.4994L12909.2965,-3290.5046"/>
<path content="1,西肥自動車（株）,有川港ターミナル～鯛の浦～神之浦～千切・船隠線,0.8,0.0,0.0," xlink:title="1" d="M12908.9575,-3291.0449L12908.9908,-3291.0406L12909.0323,-3291.0329L12909.0627,-3291.0333L12909.0807,-3291.0406L12909.0936,-3291.0559L12909.0976,-3291.0752L12909.0978,-3291.0973L12909.1047,-3291.1184L12909.1032,-3291.1455L12909.0976,-3291.1549L12909.0862,-3291.1663L12909.0744,-3291.1788L12909.0722,-3291.1863L12909.0728,-3291.1966L12909.0817,-3291.2024L12909.1202,-3291.2024L12909.1408,-3291.1992L12909.1464,-3291.1961L12909.1495,-3291.1912"/>
<path content="1,西肥自動車（株）,有川港ターミナル～鯛の浦～神之浦～千切・船隠線,0.8,0.0,0.0," xlink:title="1" d="M12908.1239,-3292.9309L12908.1059,-3292.9189L12908.0872,-3292.9052L12908.0807,-3292.8969L12908.0816,-3292.8855L12908.0863,-3292.8769L12908.0962,-3292.8685L12908.1166,-3292.8607L12908.1375,-3292.8506L12908.1643,-3292.8399L12908.2071,-3292.8226L12908.2243,-3292.8177L12908.2377,-3292.8167L12908.2525,-3292.8211L12908.264,-3292.8288L12908.2753,-3292.8411L12908.2816,-3292.8556L12908.2808,-3292.8846L12908.2713,-3292.9176L12908.2686,-3292.9369L12908.2677,-3292.947L12908.2726,-3292.9548L12908.2847,-3292.9602L12908.2911,-3292.9613L12908.3074,-3292.9607L12908.3229,-3292.9537L12908.3612,-3292.9261L12908.3733,-3292.9187L12908.3855,-3292.9125L12908.4108,-3292.9135L12908.4214,-3292.9175L12908.4358,-3292.9287L12908.4697,-3292.9636L12908.4841,-3292.9822L12908.4915,-3292.9861L12908.4975,-3292.9868L12908.5056,-3292.9859L12908.5198,-3292.9764L12908.534,-3292.9604L12908.5425,-3292.9448L12908.5512,-3292.9239L12908.5566,-3292.8964L12908.5557,-3292.8803L12908.5259,-3292.8499L12908.5077,-3292.8277L12908.4956,-3292.8077L12908.4897,-3292.7961L12908.4868,-3292.7797L12908.4863,-3292.7554L12908.491,-3292.7436L12908.4955,-3292.735L12908.4996,-3292.7282L12908.5089,-3292.7194L12908.5162,-3292.7179L12908.4609,-3292.6824L12908.4362,-3292.6647L12908.4261,-3292.6556L12908.4197,-3292.6433L12908.4163,-3292.622L12908.4177,-3292.599L12908.4209,-3292.5798L12908.4247,-3292.5663L12908.4316,-3292.5487L12908.4441,-3292.5269L12908.4466,-3292.5175L12908.447,-3292.4932L12908.4508,-3292.4849L12908.4671,-3292.4629L12908.484,-3292.4472L12908.5116,-3292.4249L12908.5322,-3292.3975L12908.5418,-3292.3891L12908.5628,-3292.3798L12908.5715,-3292.3734L12908.5794,-3292.3614L12908.6183,-3292.3137L12908.626,-3292.306L12908.6338,-3292.3019L12908.6457,-3292.2983L12908.6523,-3292.2926L12908.669,-3292.2771L12908.6855,-3292.2542L12908.6889,-3292.2402L12908.6986,-3292.2127L12908.7041,-3292.1906L12908.7102,-3292.178L12908.7192,-3292.1637L12908.7224,-3292.1514L12908.7201,-3292.1285L12908.7195,-3292.1185L12908.7207,-3292.1103L12908.7271,-3292.0965L12908.7302,-3292.0842L12908.7287,-3292.0696L12908.7209,-3292.0542L12908.71,-3292.0402L12908.7085,-3292.0347L12908.7088,-3292.0288L12908.7193,-3292.0202L12908.7435,-3292.0086L12908.756,-3292.0004L12908.7643,-3291.9909L12908.7755,-3291.9755L12908.7844,-3291.9661L12908.7928,-3291.9605L12908.8083,-3291.9557L12908.8144,-3291.953L12908.8181,-3291.9496L12908.8189,-3291.943L12908.8125,-3291.9325L12908.8011,-3291.9169L12908.7987,-3291.9082L12908.8025,-3291.8567L12908.8056,-3291.8508L12908.819,-3291.8449L12908.825,-3291.8404L12908.8338,-3291.8233L12908.8395,-3291.8057L12908.8416,-3291.7936L12908.8423,-3291.7841L12908.8416,-3291.7763L12908.8224,-3291.7516L12908.8186,-3291.7455L12908.8186,-3291.7403L12908.8243,-3291.7343L12908.8349,-3291.7226L12908.8383,-3291.7169L12908.8392,-3291.7099L12908.8395,-3291.6948L12908.8359,-3291.6794L12908.8276,-3291.6601L12908.8244,-3291.6524L12908.8261,-3291.6458L12908.8342,-3291.6456L12908.8478,-3291.6486L12908.8565,-3291.6486L12908.8718,-3291.6427L12908.8855,-3291.6374L12908.8944,-3291.6347L12908.9011,-3291.6352L12908.9111,-3291.6513L12908.9175,-3291.6562L12908.9279,-3291.662L12908.937,-3291.6772L12908.9453,-3291.6894L12908.9555,-3291.6951L12908.9657,-3291.6978L12908.9782,-3291.6973L12908.9897,-3291.6905L12909.0058,-3291.6737L12909.0164,-3291.6547L12909.0223,-3291.6399L12909.0236,-3291.6293L12909.0274,-3291.6238L12909.0383,-3291.619L12909.0513,-3291.619L12909.0657,-3291.6222L12909.0929,-3291.6213L12909.1125,-3291.6212L12909.1368,-3291.6141L12909.1589,-3291.6188L12909.177,-3291.6202L12909.1884,-3291.6193L12909.1929,-3291.6156L12909.1929,-3291.6115L12909.1924,-3291.6074L12909.1842,-3291.6004L12909.1575,-3291.5825L12909.1527,-3291.5752L12909.1306,-3291.5226L12909.1188,-3291.4942L12909.112,-3291.4851L12909.1063,-3291.4814L12909.094,-3291.4801L12909.0727,-3291.4872L12909.0579,-3291.4944L12909.0418,-3291.4946L12909.0335,-3291.491L12909.0269,-3291.4824L12909.0193,-3291.4528L12909.0149,-3291.4322L12909.0015,-3291.4309L12908.9816,-3291.4293L12908.9699,-3291.424L12908.9296,-3291.4002L12908.9217,-3291.4002L12908.9007,-3291.4147L12908.8924,-3291.4172L12908.8852,-3291.4175L12908.8795,-3291.4159L12908.8601,-3291.4052L12908.8531,-3291.3954L12908.8539,-3291.3848L12908.8582,-3291.3696L12908.8624,-3291.3571L12908.8644,-3291.3462L12908.8623,-3291.3407L12908.857,-3291.3394L12908.8211,-3291.34L12908.818,-3291.3351L12908.8194,-3291.3285L12908.8307,-3291.3194L12908.8417,-3291.3044L12908.8471,-3291.2946L12908.851,-3291.2878L12908.8633,-3291.2826L12908.8764,-3291.2762L12908.8785,-3291.2683L12908.8798,-3291.2538L12908.8839,-3291.251L12908.9027,-3291.2431L12908.9095,-3291.2358L12908.9171,-3291.2231L12908.9247,-3291.2063L12908.9292,-3291.1984L12908.9379,-3291.195L12908.9614,-3291.1941L12908.9708,-3291.1911L12908.9786,-3291.1877L12908.9867,-3291.1822L12909.0044,-3291.168L12909.0159,-3291.1548L12909.0269,-3291.1496L12909.0418,-3291.1462L12909.0558,-3291.1453L12909.0609,-3291.1409L12909.0628,-3291.1334L12909.0627,-3291.0912L12909.0629,-3291.071L12909.0595,-3291.0613L12909.0508,-3291.0576L12908.9846,-3291.0595L12908.9631,-3291.0594L12908.9579,-3291.0579L12908.9564,-3291.0529L12908.9575,-3291.0449"/>
<path content="1,西肥自動車（株）,有川港ターミナル～鯛の浦～神之浦～千切・船隠線,0.8,0.0,0.0," xlink:title="1" d="M12908.1239,-3292.9309L12908.113,-3292.9436L12908.1059,-3292.9475L12908.0865,-3292.9486L12908.0771,-3292.9526L12908.0618,-3292.9633L12908.0518,-3292.9763L12908.0437,-3292.992L12908.0391,-3293.0061L12908.031,-3293.0659L12908.0284,-3293.1493L12908.0243,-3293.155L12908.0175,-3293.1539L12908.0118,-3293.1513L12908.0061,-3293.1412L12907.995,-3293.1175L12907.989,-3293.0937L12907.9816,-3293.0779L12907.9702,-3293.071L12907.9602,-3293.0681L12907.9412,-3293.0644L12907.9288,-3293.0593L12907.9159,-3293.0401L12907.899,-3293.0262L12907.8866,-3293.0247L12907.8773,-3293.0259L12907.8579,-3293.0354L12907.8378,-3293.0462L12907.8298,-3293.0484L12907.8004,-3293.0478L12907.7888,-3293.0469L12907.7101,-3293.0408L12907.6295,-3293.0342L12907.6022,-3293.0296L12907.5853,-3293.0238L12907.5546,-3293.0095L12907.5397,-3293.0008L12907.5333,-3292.9937L12907.525,-3292.9774L12907.5029,-3292.9484L12907.498,-3292.9367L12907.497,-3292.9079L12907.4952,-3292.9014L12907.4903,-3292.8977L12907.4821,-3292.8962L12907.4777,-3292.8977L12907.4753,-3292.9001L12907.4733,-3292.903L12907.4731,-3292.9118L12907.4738,-3292.9477L12907.4641,-3292.9796L12907.4635,-3293.0022L12907.4655,-3293.0242L12907.4661,-3293.0315L12907.4678,-3293.0476L12907.4789,-3293.089L12907.4781,-3293.1135L12907.4728,-3293.1245L12907.4684,-3293.1311L12907.4547,-3293.138L12907.4436,-3293.1391L12907.4385,-3293.1397L12907.4313,-3293.1427L12907.4147,-3293.16L12907.3953,-3293.1809L12907.3719,-3293.204L12907.351,-3293.2167L12907.3325,-3293.2277L12907.2863,-3293.2491L12907.273,-3293.2593L12907.2629,-3293.2711L12907.2469,-3293.2968L12907.2302,-3293.3213L12907.2088,-3293.3461L12907.1968,-3293.3664L12907.1734,-3293.4013L12907.158,-3293.4211L12907.1439,-3293.4425L12907.1386,-3293.4537L12907.1386,-3293.4616L12907.1406,-3293.4718L12907.1413,-3293.4955L12907.1352,-3293.5316L12907.1279,-3293.5659L12907.1266,-3293.5857L12907.1286,-3293.5964L12907.1326,-3293.606L12907.1333,-3293.6195L12907.1246,-3293.6488L12907.1245,-3293.668L12907.1405,-3293.6984L12907.1415,-3293.7193"/>
<path content="1,西肥自動車（株）,有川港ターミナル～鯛の浦～神之浦～千切・船隠線,0.8,0.0,0.0," xlink:title="1" d="M12910.1102,-3295.8984L12910.1089,-3295.8936L12910.0854,-3295.8091L12910.0784,-3295.7657L12910.0799,-3295.7394L12910.0854,-3295.7118L12910.093,-3295.6931L12910.1171,-3295.6523L12910.1326,-3295.6196L12910.1336,-3295.5984L12910.1301,-3295.5576L12910.1167,-3295.4434L12910.1182,-3295.4094L12910.1245,-3295.2951L12910.1208,-3295.2513L12910.1223,-3295.1422L12910.12,-3295.0492L12910.1139,-3295.0097L12910.1059,-3294.9685L12910.0977,-3294.9354L12910.1031,-3294.9205L12910.145,-3294.8568L12910.2259,-3294.7187L12910.2534,-3294.6639L12910.2559,-3294.6355L12910.2534,-3294.5913L12910.2489,-3294.5828L12910.2408,-3294.5713L12910.2317,-3294.5679L12910.2105,-3294.5692L12910.2014,-3294.5739L12910.1914,-3294.5887L12910.1853,-3294.6074L12910.1777,-3294.661L12910.1676,-3294.7013L12910.1591,-3294.7183L12910.1455,-3294.7323L12910.0839,-3294.7727L12910.0723,-3294.7769L12910.0466,-3294.7778L12910.0184,-3294.7731L12909.9982,-3294.7659L12909.9846,-3294.7531L12909.9735,-3294.7353L12909.9689,-3294.7208L12909.9598,-3294.7064L12909.9464,-3294.6898L12909.9271,-3294.6694L12909.9089,-3294.6567L12909.9039,-3294.6495L12909.9023,-3294.6423L12909.9091,-3294.6348L12909.9195,-3294.6331L12909.9306,-3294.635L12909.9371,-3294.645L12909.9434,-3294.6588L12909.95,-3294.665L12909.9576,-3294.665L12909.9629,-3294.659L12909.9631,-3294.6488L12909.9583,-3294.6382L12909.9429,-3294.6234L12909.9329,-3294.6085L12909.9288,-3294.5981L12909.9234,-3294.5643L12909.9176,-3294.5418L12909.9093,-3294.5278L12909.8997,-3294.5231L12909.8863,-3294.5238L12909.8677,-3294.5314L12909.8503,-3294.5325L12909.8435,-3294.5303L12909.8424,-3294.525L12909.8442,-3294.5195L12909.8778,-3294.4916L12909.8928,-3294.4854L12909.9074,-3294.4832L12909.9173,-3294.4841L12909.9259,-3294.4885L12909.9386,-3294.5095L12909.9518,-3294.5439L12909.963,-3294.558L12909.9763,-3294.5734L12909.9898,-3294.5844L12910.0005,-3294.5876L12910.005,-3294.5833L12910.0047,-3294.5705L12910.0022,-3294.5597L12909.9809,-3294.5377L12909.9654,-3294.5176L12909.9609,-3294.5066L12909.9585,-3294.4964L12909.955,-3294.4631L12909.954,-3294.4535L12909.9457,-3294.4442L12909.9281,-3294.4375L12909.9088,-3294.4343L12909.8885,-3294.434L12909.8743,-3294.4421L12909.863,-3294.4504L12909.8476,-3294.4633L12909.8343,-3294.4721L12909.8245,-3294.4763L12909.8125,-3294.4795L12909.7937,-3294.4808L12909.7714,-3294.4809L12909.7434,-3294.4763L12909.72,-3294.4712L12909.7058,-3294.4661L12909.6969,-3294.461L12909.6903,-3294.4545L12909.6745,-3294.4329L12909.6676,-3294.4269L12909.6592,-3294.4223L12909.6514,-3294.4198L12909.6402,-3294.4198L12909.6261,-3294.423L12909.5977,-3294.4315L12909.5799,-3294.4327L12909.5618,-3294.4315L12909.553,-3294.4291L12909.5297,-3294.4191L12909.511,-3294.4135L12909.4685,-3294.4021L12909.4256,-3294.3941L12909.3992,-3294.3903L12909.3834,-3294.3854L12909.3741,-3294.381L12909.3679,-3294.377L12909.3639,-3294.3713L12909.3604,-3294.3607L12909.3472,-3294.3186L12909.3434,-3294.296L12909.3417,-3294.2884L12909.3372,-3294.2777L12909.3306,-3294.2675L12909.3084,-3294.2364L12909.2746,-3294.1804L12909.2555,-3294.1418L12909.2503,-3294.1244L12909.2393,-3294.091L12909.2393,-3294.0747L12909.2519,-3294.0225L12909.2667,-3293.9685L12909.273,-3293.9508L12909.2855,-3293.9005L12909.2924,-3293.888L12909.3146,-3293.8564L12909.3163,-3293.8477L12909.317,-3293.8244L12909.3149,-3293.8082L12909.3084,-3293.7937L12909.2987,-3293.7873L12909.2127,-3293.7208L12909.181,-3293.7019L12909.1507,-3293.6868L12909.1238,-3293.6772L12908.9824,-3293.6349L12908.9336,-3293.625L12908.9164,-3293.6192L12908.9019,-3293.6084L12908.8929,-3293.5991L12908.8857,-3293.5843L12908.8861,-3293.5739L12908.8879,-3293.5475L12908.89,-3293.5358L12908.8917,-3293.5292L12908.9,-3293.5234L12908.941,-3293.5004L12908.9472,-3293.492L12908.949,-3293.4833L12908.9486,-3293.4746L12908.925,-3293.4287L12908.9136,-3293.413L12908.8971,-3293.4046L12908.884,-3293.3991L12908.8661,-3293.3971L12908.8274,-3293.3953L12908.8133,-3293.3918L12908.8023,-3293.3846L12908.795,-3293.3756L12908.7876,-3293.3625L12908.7835,-3293.3468L12908.7845,-3293.3175L12908.7873,-3293.3065L12908.7928,-3293.2954L12908.8035,-3293.2867L12908.84,-3293.2687L12908.8581,-3293.2539L12908.8612,-3293.2455L12908.8599,-3293.2359L12908.8547,-3293.2275L12908.833,-3293.2136L12908.806,-3293.1979L12908.6904,-3293.1375L12908.6659,-3293.1291L12908.6551,-3293.1281L12908.6359,-3293.1346L12908.6321,-3293.1395L12908.6287,-3293.1523L12908.629,-3293.1683L12908.6328,-3293.184L12908.6332,-3293.2005L12908.628,-3293.2162L12908.6221,-3293.2272L12908.6142,-3293.2374L12908.6025,-3293.2455L12908.5839,-3293.2455L12908.5718,-3293.2426L12908.5608,-3293.2316L12908.5566,-3293.2185L12908.5518,-3293.197L12908.5439,-3293.1869L12908.4927,-3293.1503L12908.4768,-3293.1346L12908.4403,-3293.0954L12908.4234,-3293.076L12908.414,-3293.0698L12908.392,-3293.0614L12908.3846,-3293.0591L12908.3719,-3293.0574L12908.3479,-3293.058L12908.3338,-3293.0619L12908.3191,-3293.0715L12908.3018,-3293.0862L12908.2904,-3293.0901L12908.275,-3293.0901L12908.2543,-3293.0856L12908.2269,-3293.076L12908.2162,-3293.0715L12908.2095,-3293.0659L12908.2048,-3293.058L12908.2021,-3293.0445L12908.2035,-3292.9965L12908.2021,-3292.9926L12908.1968,-3292.9859L12908.1821,-3292.974L12908.1239,-3292.9309"/>
<path content="1,西肥自動車（株）,青方～浜の浦線,0.8,0.0,0.0," xlink:title="1" d="M12903.5999,-3294.4314L12903.6144,-3294.375"/>
<path content="1,西肥自動車（株）,青方～浜の浦線,0.8,0.0,0.0," xlink:title="1" d="M12903.5999,-3294.4314L12903.5866,-3294.4832L12903.6528,-3294.4901L12903.6984,-3294.4958L12903.7136,-3294.5055L12903.7186,-3294.5164L12903.7169,-3294.5295L12903.7079,-3294.5394L12903.6768,-3294.5594L12903.6659,-3294.5711L12903.6659,-3294.5818L12903.6699,-3294.5953L12903.6939,-3294.6388L12903.7027,-3294.6525L12903.7067,-3294.6729L12903.7041,-3294.7077L12903.7013,-3294.7577L12903.7005,-3294.7699L12903.7019,-3294.7802L12903.7039,-3294.7853L12903.712,-3294.7983L12903.722,-3294.805L12903.7307,-3294.8073L12903.7534,-3294.8073L12903.7708,-3294.8022L12903.7895,-3294.7904L12903.7975,-3294.7825L12903.8178,-3294.7633L12903.8395,-3294.7488L12903.851,-3294.7448L12903.8592,-3294.7439L12903.8636,-3294.7441L12903.8706,-3294.7455L12903.882,-3294.7524L12903.8889,-3294.7593L12903.8915,-3294.7644L12903.8962,-3294.7721L12903.8981,-3294.7796L12903.8978,-3294.7971L12903.8918,-3294.8163L12903.8811,-3294.8394L12903.8804,-3294.8518L12903.8911,-3294.8654L12903.9058,-3294.8732L12903.9139,-3294.8766L12903.9353,-3294.8823L12903.9419,-3294.8834L12903.9493,-3294.884L12903.9941,-3294.8851L12904.0301,-3294.8988L12904.0362,-3294.9061L12904.0368,-3294.918L12904.0268,-3294.9392L12904.0228,-3294.9477L12904.0114,-3294.9691L12904.0117,-3294.9911L12904.0227,-3295.0191L12904.0408,-3295.0599L12904.0629,-3295.0909L12904.1318,-3295.1766L12904.1598,-3295.2087L12904.2126,-3295.264L12904.2233,-3295.2764L12904.2334,-3295.2848L12904.2447,-3295.2905L12904.2567,-3295.2944L12904.2975,-3295.3012L12904.3203,-3295.3034L12904.339,-3295.3074L12904.3557,-3295.3147L12904.3751,-3295.326L12904.3938,-3295.3423L12904.4332,-3295.3874L12904.4593,-3295.4207L12904.4713,-3295.4314L12904.4994,-3295.4489L12904.5388,-3295.4703L12904.5723,-3295.4878L12904.6097,-3295.5002L12904.6244,-3295.5041L12904.6398,-3295.5036L12904.716,-3295.4844L12904.7354,-3295.4822L12904.74,-3295.4823L12904.7626,-3295.4804L12904.7752,-3295.4797L12904.7923,-3295.4747L12904.8381,-3295.5124L12904.8662,-3295.5403L12904.9022,-3295.5899L12904.9521,-3295.6446L12904.9843,-3295.6894L12905.0078,-3295.726L12905.0161,-3295.7488L12905.0181,-3295.7635L12905.0174,-3295.7877L12905.0154,-3295.8029L12905.0018,-3295.8539L12905.0001,-3295.8595L12904.9989,-3295.8672L12904.9987,-3295.8751L12905.0036,-3295.8984"/>
<path content="1,西肥自動車（株）,青方～浜の浦線,0.8,0.0,0.0," xlink:title="1" d="M12902.9581,-3295.8984L12902.9507,-3295.8823L12902.942,-3295.8583L12902.9384,-3295.8468L12902.9381,-3295.8369L12902.9404,-3295.8313L12902.948,-3295.8258L12902.9621,-3295.8224L12903.0002,-3295.8221L12903.01,-3295.8209L12903.0221,-3295.8102L12903.0494,-3295.7809L12903.0635,-3295.7634L12903.0729,-3295.7523L12903.0801,-3295.7343L12903.0977,-3295.6717L12903.1105,-3295.6227L12903.1112,-3295.5898L12903.1086,-3295.5755L12903.0965,-3295.5569L12903.0583,-3295.5293L12903.0512,-3295.521L12903.0518,-3295.5104L12903.0593,-3295.5035L12903.0746,-3295.5027L12903.0961,-3295.5046L12903.126,-3295.5054L12903.1358,-3295.5021L12903.1432,-3295.4931L12903.1569,-3295.4531L12903.1803,-3295.3835L12903.1995,-3295.3334L12903.2151,-3295.3011L12903.2335,-3295.2718L12903.2703,-3295.2208L12903.3111,-3295.163L12903.3551,-3295.0822L12903.3603,-3295.0757L12903.396,-3295.0568L12903.4021,-3295.0516L12903.406,-3295.0387L12903.4093,-3295.0313L12903.4269,-3295.0187L12903.4822,-3294.9664L12903.4955,-3294.9587L12903.5379,-3294.948L12903.5379,-3294.9291L12903.5337,-3294.9198L12903.5227,-3294.9088L12903.5061,-3294.893L12903.5054,-3294.8554L12903.4903,-3294.8253L12903.5025,-3294.7991L12903.5384,-3294.739L12903.547,-3294.7201L12903.5545,-3294.5766L12903.5655,-3294.4437L12903.5721,-3294.4238L12903.5999,-3294.4314"/>
<path content="2,新上五島町,若松～堤,7.5,4.5,4.5," xlink:title="2" d="M12902.3438,-3288.7058L12902.3451,-3288.7053L12902.387,-3288.7007L12902.4086,-3288.6956L12902.4236,-3288.6854L12902.4508,-3288.6546L12902.4661,-3288.6473L12902.4837,-3288.6469L12902.5238,-3288.6549L12902.5366,-3288.6543L12902.5518,-3288.6499L12902.5772,-3288.6331L12902.5772,-3288.6158L12902.5805,-3288.6036L12902.5897,-3288.5816L12902.593,-3288.5694L12902.5923,-3288.554L12902.5825,-3288.5031L12902.5831,-3288.477L12902.5865,-3288.4668L12902.5911,-3288.4589L12902.5994,-3288.4479L12902.6137,-3288.4397L12902.634,-3288.4201L12902.712,-3288.354L12902.7249,-3288.3429L12902.7336,-3288.3306L12902.7383,-3288.317L12902.7397,-3288.2738L12902.7365,-3288.2568L12902.7267,-3288.2436L12902.7177,-3288.2379L12902.6934,-3288.2261L12902.6702,-3288.2167L12902.6621,-3288.2025L12902.6622,-3288.1827L12902.6651,-3288.1719L12902.6722,-3288.1609L12902.6872,-3288.1522L12902.7271,-3288.1346L12902.7529,-3288.1218L12902.767,-3288.1107L12902.7767,-3288.0972L12902.782,-3288.085L12902.7907,-3288.0578L12902.8027,-3288.0092L12902.8187,-3287.9453L12902.8335,-3287.8977L12902.8413,-3287.8589L12902.8429,-3287.8391L12902.8369,-3287.8241L12902.8263,-3287.8087L12902.824,-3287.8002L12902.8259,-3287.7913L12902.8355,-3287.7849L12902.8528,-3287.7746L12902.8642,-3287.766L12902.8704,-3287.7548L12902.8682,-3287.7422L12902.8616,-3287.733L12902.8528,-3287.725L12902.8219,-3287.714L12902.8102,-3287.7087L12902.805,-3287.7016L12902.8042,-3287.6921L12902.8005,-3287.6772L12902.7895,-3287.6678L12902.778,-3287.6613L12902.7577,-3287.6551L12902.7457,-3287.6502L12902.737,-3287.6431L12902.7006,-3287.5941L12902.6802,-3287.5674L12902.6335,-3287.5136L12902.6178,-3287.4979L12902.5951,-3287.4831L12902.5844,-3287.4779L12902.574,-3287.4761L12902.5339,-3287.4766L12902.4959,-3287.4792L12902.4531,-3287.4792L12902.4353,-3287.4826L12902.4117,-3287.4947L12902.3959,-3287.5031L12902.3734,-3287.5114L12902.3438,-3287.5214"/>
<path content="2,新上五島町,若松～日島,4.5,2.5,2.5," xlink:title="2" d="M12902.3438,-3288.7029L12902.3451,-3288.7053L12902.3438,-3288.7058"/>
<path content="2,新上五島町,若松～月ノ浦,2.5,0.0,0.0," xlink:title="2" d="M12902.3438,-3288.7029L12902.3451,-3288.7053L12902.3438,-3288.7058"/>
<path content="2,新上五島町,若松～白魚,3.5,2.0,2.0," xlink:title="2" d="M12902.3438,-3288.7058L12902.3451,-3288.7053L12902.387,-3288.7007L12902.4086,-3288.6956L12902.4236,-3288.6854L12902.4508,-3288.6546L12902.4661,-3288.6473L12902.4837,-3288.6469L12902.5238,-3288.6549L12902.5366,-3288.6543L12902.5518,-3288.6499L12902.5772,-3288.6331L12902.5915,-3288.6323L12902.6175,-3288.6442L12902.6356,-3288.6538L12902.6616,-3288.6735L12902.6903,-3288.6966L12902.709,-3288.7079L12902.7224,-3288.7152L12902.7538,-3288.7265L12902.7705,-3288.7299L12902.7872,-3288.7287L12902.7992,-3288.7242L12902.8065,-3288.7197L12902.8166,-3288.7101L12902.8292,-3288.6921L12902.8459,-3288.6656L12902.8539,-3288.6554L12902.8646,-3288.6487L12902.8767,-3288.6436L12902.9368,-3288.6289L12902.9661,-3288.6233L12902.9888,-3288.6239L12903.0289,-3288.6312L12903.0783,-3288.6493L12903.1031,-3288.6599L12903.1224,-3288.6718L12903.1378,-3288.6853L12903.1404,-3288.6938L12903.1404,-3288.7124L12903.1391,-3288.722L12903.1398,-3288.7423L12903.1451,-3288.753L12903.1538,-3288.7643L12903.1598,-3288.7676L12903.1689,-3288.7719L12903.2666,-3288.7857L12903.4363,-3288.8032L12903.6567,-3288.824L12903.7048,-3288.828L12903.7368,-3288.8291L12903.7535,-3288.8269L12903.7962,-3288.8122L12903.831,-3288.8032L12903.849,-3288.8032L12903.8644,-3288.8071L12903.8797,-3288.815L12903.9245,-3288.8471L12903.9452,-3288.8573L12903.9559,-3288.8596L12903.9899,-3288.859L12904.0353,-3288.8522L12904.1348,-3288.8364L12904.1622,-3288.837L12904.1722,-3288.8381L12904.2323,-3288.8494L12904.2544,-3288.8488L12904.2657,-3288.8443L12904.2811,-3288.8302L12904.3646,-3288.7344L12904.4574,-3288.6372L12904.5126,-3288.5916L12904.5228,-3288.5889L12904.5335,-3288.5878L12904.5502,-3288.5889L12904.6177,-3288.6008L12904.6331,-3288.603L12904.6524,-3288.607L12904.6691,-3288.6064L12904.6871,-3288.5991L12904.7119,-3288.5827L12904.7599,-3288.5473L12904.786,-3288.5264L12904.7967,-3288.5151L12904.806,-3288.5004L12904.81,-3288.4909L12904.8167,-3288.4458L12904.8234,-3288.4277L12904.8327,-3288.4164L12904.8494,-3288.4046L12904.8688,-3288.3973L12904.8888,-3288.3927L12904.9042,-3288.3882L12904.9182,-3288.3854L12904.9393,-3288.3811L12904.9509,-3288.3787L12904.9716,-3288.3758L12905.0184,-3288.3758L12905.0351,-3288.3781L12905.0464,-3288.3787L12905.0912,-3288.3843L12905.1152,-3288.3843L12905.1233,-3288.3832L12905.1366,-3288.3804L12905.1753,-3288.3651L12905.19,-3288.3606L12905.2087,-3288.3618L12905.2368,-3288.3686L12905.2568,-3288.3725L12905.2755,-3288.3719L12905.2869,-3288.3669L12905.2942,-3288.3573L12905.2982,-3288.3488L12905.2982,-3288.333L12905.2862,-3288.3105L12905.2789,-3288.2998L12905.2749,-3288.2902L12905.2735,-3288.2738L12905.2775,-3288.2631L12905.3123,-3288.2264L12905.3196,-3288.2157L12905.3249,-3288.2033L12905.3283,-3288.1898L12905.3283,-3288.1627L12905.3243,-3288.152L12905.3009,-3288.1216L12905.2929,-3288.1052L12905.2936,-3288.0945L12905.2976,-3288.0838L12905.3577,-3287.9869L12905.3697,-3287.9761L12905.377,-3287.9716L12905.3784,-3287.9694L12905.3951,-3287.9699L12905.4091,-3287.975L12905.4345,-3287.9812L12905.4498,-3287.9812L12905.4638,-3287.9773L12905.4785,-3287.9643L12905.4879,-3287.9542L12905.5019,-3287.9316L12905.5072,-3287.9144L12905.5178,-3287.895L12905.5226,-3287.885L12905.5397,-3287.8825L12905.552,-3287.8838L12905.5649,-3287.8889L12905.5926,-3287.8923L12905.6124,-3287.8939L12905.6335,-3287.8916L12905.6475,-3287.8848L12905.6575,-3287.8781L12905.6722,-3287.8656L12905.7149,-3287.833L12905.7924,-3287.7709L12905.8071,-3287.758L12905.8953,-3287.6864L12905.912,-3287.6768L12905.9373,-3287.6661L12905.9547,-3287.6627L12905.9694,-3287.6621L12905.9721,-3287.6638L12905.9841,-3287.6678L12906.0028,-3287.6796L12906.0115,-3287.6886L12906.0148,-3287.6988L12906.0148,-3287.7191L12906.0088,-3287.7326L12905.9894,-3287.7591L12905.9801,-3287.7693L12905.9574,-3287.7986L12905.9413,-3287.8223L12905.9367,-3287.833L12905.9313,-3287.8476L12905.9333,-3287.8684L12905.9506,-3287.8826L12905.9766,-3287.8903L12906.0265,-3287.8914L12906.0288,-3287.9172L12906.036,-3288.0593L12906.042,-3288.1127L12906.0452,-3288.1569L12906.0508,-3288.1814L12906.0514,-3288.2065L12906.0449,-3288.222L12906.0395,-3288.2361L12906.0308,-3288.2496L12906.0195,-3288.2626L12906.0001,-3288.2761L12905.9932,-3288.3813"/>
</g>
</svg>
