<?xml version="1.0" encoding="UTF-8"?>
<svg  xmlns="http://www.w3.org/2000/svg" xmlns:xlink="http://www.w3.org/1999/xlink" xmlns:go="http://purl.org/svgmap/profile" property="N07_001,N07_002,N07_003,N07_004,N07_005,N07_006,N07_007" viewBox="13957.03125 -3560.11962890625 0.54931640625 0.54931640625" go:dataArea="13957.03125 -3560.11962890625 0.54931640625 0.54931640625" >
<metadata>
 <rdf:RDF xmlns:rdf="http://www.w3.org/1999/02/22-rdf-syntax-ns#" xmlns:crs="http://opengis.org/xmldtds/transformations.dtd" xmlns:svg="http://www.w3.org/svg" >
  <rdf:Description>
   <crs:CoordinateReferenceSystem rdf:resource="http://purl.org/crs/84" svg:transform="matrix(100.0,0.0,0.0,-100.0,0.0,0.0)" />
  </rdf:Description>
 </rdf:RDF>
</metadata>
<globalCoordinateSystem srsName="http://purl.org/crs/84" transform="matrix(100.0,0.0,0.0,-100.0,0.0,0.0)" />
<defs>
 <g id="p0" >
  <circle cx="0.0" cy="0.0" r="3" stroke="green" stroke-width="0.75" vector-effect="non-scaling-stroke" />
 </g>
</defs>
<g fill="none" fill-rule="evenodd" stroke="#FF00FF" stroke-width="0.75" opacity="0.5" vector-effect="non-scaling-stroke" stroke-linejoin="bevel" >
<path content="1,JRバステック（株）,名古屋系統（特急）,1.0,1.0,1.0," xlink:title="1" d="M13957.5806,-3559.6313L13957.553,-3559.6096L13957.5158,-3559.5803L13957.5031,-3559.5703"/>
<path content="1,JRバステック（株）,名古屋系統（超特急）,3.0,3.0,3.0," xlink:title="1" d="M13957.5806,-3559.6313L13957.553,-3559.6096L13957.5158,-3559.5803L13957.5031,-3559.5703"/>
<path content="1,JRバステック（株）,御殿場プレミアムアウトレット号新宿号,0.7,0.0,0.0," xlink:title="1" d="M13957.5806,-3559.6313L13957.553,-3559.6096L13957.5158,-3559.5803L13957.5031,-3559.5703"/>
<path content="1,JRバステック（株）,御殿場プレミアムアウトレット号東京号,0.7,0.0,0.0," xlink:title="1" d="M13957.5031,-3559.5703L13957.5158,-3559.5803L13957.553,-3559.6096L13957.5806,-3559.6313"/>
<path content="1,JRバス関東（株）,かぐや姫EXPRESS・ヤキソバEXPRESS,3.0,3.0,3.0," xlink:title="1" d="M13957.5806,-3559.6313L13957.553,-3559.6096L13957.5158,-3559.5803L13957.5031,-3559.5703"/>
<path content="1,JRバス関東（株）,しみずライナー,3.1,4.0,3.5," xlink:title="1" d="M13957.5806,-3559.6313L13957.553,-3559.6096L13957.5158,-3559.5803L13957.5031,-3559.5703"/>
<path content="1,JRバス関東（株）,ドリーム和歌山号,1.0,1.0,1.0," xlink:title="1" d="M13957.5806,-3559.6313L13957.553,-3559.6096L13957.5158,-3559.5803L13957.5031,-3559.5703"/>
<path content="1,JRバス関東（株）,ドリーム福井号,2.0,2.0,2.0," xlink:title="1" d="M13957.5031,-3559.5703L13957.5158,-3559.5803L13957.553,-3559.6096L13957.5806,-3559.6313"/>
<path content="1,JRバス関東（株）,ドリーム静岡・浜松号,2.0,2.0,2.0," xlink:title="1" d="M13957.5031,-3559.5703L13957.5158,-3559.5803L13957.553,-3559.6096L13957.5806,-3559.6313"/>
<path content="1,JRバス関東（株）,ドリーム高松号/松山号/徳島号/高知号,4.0,4.0,4.0," xlink:title="1" d="M13957.5031,-3559.5703L13957.5158,-3559.5803L13957.553,-3559.6096L13957.5806,-3559.6313"/>
<path content="1,JRバス関東（株）,プレミアム中央ドリーム号/中央ドリーム号/プレミアムドリーム号/ドリーム号/レディースドリーム号/プレミアムレディース,9.4,12.0,12.0," xlink:title="1" d="M13957.5031,-3559.5703L13957.5158,-3559.5803L13957.553,-3559.6096L13957.5806,-3559.6313"/>
<path content="1,JRバス関東（株）,御殿場プレミアム・アウトレット号,2.0,3.0,3.0," xlink:title="1" d="M13957.5806,-3559.6313L13957.553,-3559.6096L13957.5158,-3559.5803L13957.5031,-3559.5703"/>
<path content="1,JRバス関東（株）,新宿ドリーム三河・なごや号,1.0,1.0,1.0," xlink:title="1" d="M13957.5806,-3559.6313L13957.553,-3559.6096L13957.5158,-3559.5803L13957.5031,-3559.5703"/>
<path content="1,JRバス関東（株）,新宿ライナー三河・なごや号,1.0,1.0,1.0," xlink:title="1" d="M13957.5031,-3559.5703L13957.5158,-3559.5803L13957.553,-3559.6096L13957.5806,-3559.6313"/>
<path content="1,JRバス関東（株）,東京～山中湖畔・河口湖,4.0,5.0,5.0," xlink:title="1" d="M13957.5806,-3559.6313L13957.553,-3559.6096L13957.5158,-3559.5803L13957.5031,-3559.5703"/>
<path content="1,JRバス関東（株）,東名ハイウェイバス,8.0,8.0,8.0," xlink:title="1" d="M13957.5806,-3559.6313L13957.553,-3559.6096L13957.5158,-3559.5803L13957.5031,-3559.5703"/>
<path content="1,JRバス関東（株）,東海道昼特急号/中央道昼特急号/青春昼特急号/プレミアム昼特急号,7.2,9.0,9.0," xlink:title="1" d="M13957.5806,-3559.6313L13957.553,-3559.6096L13957.5158,-3559.5803L13957.5031,-3559.5703"/>
<path content="1,JRバス関東（株）,知多シーガール号,2.0,2.0,2.0," xlink:title="1" d="M13957.5031,-3559.5703L13957.5158,-3559.5803L13957.553,-3559.6096L13957.5806,-3559.6313"/>
<path content="1,JRバス関東（株）,青春中央ドリーム号/青春中央エコドリーム号/青春ドリーム号/青春レディースドリーム号/青春エコドリーム号/超得割青春号,10.0,14.0,14.0," xlink:title="1" d="M13957.5806,-3559.6313L13957.553,-3559.6096L13957.5158,-3559.5803L13957.5031,-3559.5703"/>
<path content="1,JRバス関東（株）,駿府ライナー,6.0,6.0,6.0," xlink:title="1" d="M13957.5806,-3559.6313L13957.553,-3559.6096L13957.5158,-3559.5803L13957.5031,-3559.5703"/>
<path content="1,JR四国バス（株）,ドリーム徳島号　阿南・徳島⇔新宿・東京・新木場,1.0,1.0,1.0," xlink:title="1" d="M13957.5806,-3559.6313L13957.5031,-3559.5703"/>
<path content="1,JR四国バス（株）,ドリーム高松・松山号　松山・高松⇔東京・東京ディズニーランド,1.0,1.0,1.0," xlink:title="1" d="M13957.5806,-3559.6313L13957.5031,-3559.5703"/>
<path content="1,JR四国バス（株）,ドリーム高松号　観音寺・高松⇔新宿・東京・新木場,1.0,1.0,1.0," xlink:title="1" d="M13957.5806,-3559.6313L13957.5031,-3559.5703"/>
<path content="1,JR四国バス（株）,ドリーム高知号　高知・徳島⇔東京・新木場,1.0,1.0,1.0," xlink:title="1" d="M13957.5806,-3559.6313L13957.5031,-3559.5703"/>
<path content="1,JR東海バス（株）,ドリームとよた号,1.0,1.0,1.0," xlink:title="1" d="M13957.5031,-3559.5703L13957.5806,-3559.6313"/>
<path content="1,JR東海バス（株）,ドリームなごや号_01_on,3.0,3.0,3.0," xlink:title="1" d="M13957.5031,-3559.5703L13957.5806,-3559.6313"/>
<path content="1,JR東海バス（株）,ドリームなごや号_02_on,3.0,3.0,3.0," xlink:title="1" d="M13957.5031,-3559.5703L13957.5806,-3559.6313"/>
<path content="1,JR東海バス（株）,ドリーム静岡・浜松号_01_on,2.0,2.0,2.0," xlink:title="1" d="M13957.5806,-3559.6313L13957.5031,-3559.5703"/>
<path content="1,JR東海バス（株）,ドリーム静岡・浜松号_02_on,2.0,2.0,2.0," xlink:title="1" d="M13957.5806,-3559.6313L13957.5031,-3559.5703"/>
<path content="1,JR東海バス（株）,レディースドリームなごや号,1.0,1.0,1.0," xlink:title="1" d="M13957.5031,-3559.5703L13957.5806,-3559.6313"/>
<path content="1,JR東海バス（株）,新宿ドリーム三河・なごや号,1.0,1.0,1.0," xlink:title="1" d="M13957.5806,-3559.6313L13957.5031,-3559.5703"/>
<path content="1,JR東海バス（株）,新宿ライナー三河・なごや号,1.0,1.0,1.0," xlink:title="1" d="M13957.5806,-3559.6313L13957.5031,-3559.5703"/>
<path content="1,JR東海バス（株）,東名ハイウェイバス_01_on,37.0,37.0,37.0," xlink:title="1" d="M13957.5031,-3559.5703L13957.5806,-3559.6313"/>
<path content="1,JR東海バス（株）,東名ハイウェイバス_03_on,37.0,37.0,37.0," xlink:title="1" d="M13957.5031,-3559.5703L13957.5806,-3559.6313"/>
<path content="1,JR東海バス（株）,渋谷・新宿ライナー浜松号,4.0,4.0,4.0," xlink:title="1" d="M13957.5031,-3559.5703L13957.5806,-3559.6313"/>
<path content="1,JR東海バス（株）,渋谷・新宿ライナー静岡号,8.0,8.0,8.0," xlink:title="1" d="M13957.5031,-3559.5703L13957.5806,-3559.6313"/>
<path content="1,JR東海バス（株）,青春ドリームなごや号,1.0,1.0,1.0," xlink:title="1" d="M13957.5031,-3559.5703L13957.5806,-3559.6313"/>
<path content="1,しずてつジャストライン（株）,新静岡新宿線,15.0,15.0,15.0," xlink:title="1" d="M13957.5031,-3559.5703L13957.5806,-3559.6313"/>
<path content="1,しずてつジャストライン（株）,東京清水線,5.0,5.0,5.0," xlink:title="1" d="M13957.5031,-3559.5703L13957.5806,-3559.6313"/>
<path content="1,しずてつジャストライン（株）,静岡成田空港線,1.0,1.0,1.0," xlink:title="1" d="M13957.5031,-3559.5703L13957.5806,-3559.6313"/>
<path content="1,エムケイ（株）,MKナイトシャトル　京都・大阪⇔東京便,1.0,1.0,1.0," xlink:title="1" d="M13957.5031,-3559.5703L13957.5806,-3559.6313"/>
<path content="1,エムケイ（株）,MKナイトシャトル　名古屋・豊田⇔東京便,1.0,1.0,1.0," xlink:title="1" d="M13957.5031,-3559.5703L13957.5806,-3559.6313"/>
<path content="1,一畑バス（株）,東京～松江・出雲線,1.0,1.0,1.0," xlink:title="1" d="M13957.5031,-3559.5703L13957.5806,-3559.6313"/>
<path content="1,両備ホールディングス（株）,ままかりライナー　倉敷・岡山～東京駅八重洲通り線,1.0,1.0,1.0," xlink:title="1" d="M13957.5031,-3559.5703L13957.5806,-3559.6313"/>
<path content="1,両備ホールディングス（株）,ルブラン　倉敷・岡山・津山～東京線,1.0,1.0,1.0," xlink:title="1" d="M13957.5031,-3559.5703L13957.5806,-3559.6313"/>
<path content="1,中国JRバス（株）,広島～東京　ニューブリーズ号,2.0,2.0,2.0," xlink:title="1" d="M13957.5031,-3559.5703L13957.5806,-3559.6313"/>
<path content="1,京成バス（株）,成田空港～たまプラーザ駅・新百合ヶ丘駅,8.0,8.0,8.0," xlink:title="1" d="M13957.5031,-3559.5703L13957.5158,-3559.5803L13957.553,-3559.6096L13957.5806,-3559.6313"/>
<path content="1,京成バス（株）,成田空港～中山駅・センター南駅,4.0,4.0,4.0," xlink:title="1" d="M13957.5031,-3559.5703L13957.5158,-3559.5803L13957.553,-3559.6096L13957.5806,-3559.6313"/>
<path content="1,京成バス（株）,成田空港～新富士駅・沼津駅,2.0,2.0,2.0," xlink:title="1" d="M13957.5031,-3559.5703L13957.5158,-3559.5803L13957.553,-3559.6096L13957.5806,-3559.6313"/>
<path content="1,京成バス（株）,成田空港～本厚木駅・平塚（田村車庫）,3.5,3.5,3.5," xlink:title="1" d="M13957.5031,-3559.5703L13957.5158,-3559.5803L13957.553,-3559.6096L13957.5806,-3559.6313"/>
<path content="1,京成バス（株）,成田空港～相模大野駅・町田駅・橋本駅,8.0,8.0,8.0," xlink:title="1" d="M13957.5031,-3559.5703L13957.5158,-3559.5803L13957.553,-3559.6096L13957.5806,-3559.6313"/>
<path content="1,京成バス（株）,東京ディズニーリゾート～たまプラーザ駅,5.0,5.0,5.0," xlink:title="1" d="M13957.5031,-3559.5703L13957.5158,-3559.5803L13957.553,-3559.6096L13957.5806,-3559.6313"/>
<path content="1,京成バス（株）,神戸・大阪～東京ディズニーリゾート・海浜幕張・千葉中央駅,0.5,0.5,0.5," xlink:title="1" d="M13957.5031,-3559.5703L13957.5158,-3559.5803L13957.553,-3559.6096L13957.5806,-3559.6313"/>
<path content="1,京浜急行バス（株）,たまプラーザ駅～羽田空港線,17.5,17.5,17.5," xlink:title="1" d="M13957.5806,-3559.6313L13957.553,-3559.6096L13957.5158,-3559.5803L13957.5031,-3559.5703"/>
<path content="1,京浜急行バス（株）,エディ号,2.0,2.0,2.0," xlink:title="1" d="M13957.5031,-3559.5703L13957.5158,-3559.5803L13957.553,-3559.6096L13957.5806,-3559.6313"/>
<path content="1,京浜急行バス（株）,キャメル号,1.0,1.0,1.0," xlink:title="1" d="M13957.5806,-3559.6313L13957.553,-3559.6096L13957.5158,-3559.5803L13957.5031,-3559.5703"/>
<path content="1,京浜急行バス（株）,シルフィード号,1.0,1.0,1.0," xlink:title="1" d="M13957.5031,-3559.5703L13957.5158,-3559.5803L13957.553,-3559.6096L13957.5806,-3559.6313"/>
<path content="1,京浜急行バス（株）,センター北駅・センター南駅～羽田空港線,8.5,8.5,8.5," xlink:title="1" d="M13957.5806,-3559.6313L13957.553,-3559.6096L13957.5158,-3559.5803L13957.5031,-3559.5703"/>
<path content="1,京浜急行バス（株）,パイレーツ号,1.0,1.0,1.0," xlink:title="1" d="M13957.5031,-3559.5703L13957.5158,-3559.5803L13957.553,-3559.6096L13957.5806,-3559.6313"/>
<path content="1,京浜急行バス（株）,ルプラン号,1.0,1.0,1.0," xlink:title="1" d="M13957.5031,-3559.5703L13957.5158,-3559.5803L13957.553,-3559.6096L13957.5806,-3559.6313"/>
<path content="1,京浜急行バス（株）,新百合ヶ丘駅～羽田空港線,8.5,8.5,8.5," xlink:title="1" d="M13957.5031,-3559.5703L13957.5158,-3559.5803L13957.553,-3559.6096L13957.5806,-3559.6313"/>
<path content="1,京浜急行バス（株）,本厚木駅・田村車庫～羽田空港線,6.5,6.5,6.5," xlink:title="1" d="M13957.5806,-3559.6313L13957.553,-3559.6096L13957.5158,-3559.5803L13957.5031,-3559.5703"/>
<path content="1,京浜急行バス（株）,羽田空港～町田バスセンター・相模大野駅線,13.0,13.0,13.0," xlink:title="1" d="M13957.5031,-3559.5703L13957.5158,-3559.5803L13957.553,-3559.6096L13957.5806,-3559.6313"/>
<path content="1,京王バス南（株）,新宿・渋谷～三島・沼津線,1.0,1.0,1.0," xlink:title="1" d="M13957.5031,-3559.5703L13957.5158,-3559.5803L13957.553,-3559.6096L13957.5806,-3559.6313"/>
<path content="1,京王バス南（株）,新宿・渋谷～浜松線,1.0,1.0,1.0," xlink:title="1" d="M13957.5031,-3559.5703L13957.5158,-3559.5803L13957.553,-3559.6096L13957.5806,-3559.6313"/>
<path content="1,京王バス南（株）,新宿・渋谷～神戸姫路線,1.0,1.0,1.0," xlink:title="1" d="M13957.5031,-3559.5703L13957.5158,-3559.5803L13957.553,-3559.6096L13957.5806,-3559.6313"/>
<path content="1,京王バス南（株）,新宿・渋谷～静岡線,3.0,3.0,3.0," xlink:title="1" d="M13957.5031,-3559.5703L13957.5158,-3559.5803L13957.553,-3559.6096L13957.5806,-3559.6313"/>
<path content="1,京福バス（株）,東京線,3.0,3.0,3.0," xlink:title="1" d="M13957.5031,-3559.5703L13957.5806,-3559.6313"/>
<path content="1,京都交通（株）,舞鶴・綾部・福知山～東京,1.0,1.0,1.0," xlink:title="1" d="M13957.5031,-3559.5703L13957.5806,-3559.6313"/>
<path content="1,京阪バス（株）,京都・大津⇔上野・TDR・千葉,1.0,1.0,1.0," xlink:title="1" d="M13957.5031,-3559.5703L13957.5806,-3559.6313"/>
<path content="1,京阪バス（株）,枚方・京都⇔渋谷・新宿,1.0,1.0,1.0," xlink:title="1" d="M13957.5031,-3559.5703L13957.5806,-3559.6313"/>
<path content="1,千葉中央バス,京都～上野・東京ディズニーリゾート,1.0,1.0,1.0," xlink:title="1" d="M13957.5031,-3559.5703L13957.5158,-3559.5803L13957.553,-3559.6096L13957.5806,-3559.6313"/>
<path content="1,千葉交通,大阪なんば・京都駅～成田・銚子線,1.0,1.0,1.0," xlink:title="1" d="M13957.5031,-3559.5703L13957.5158,-3559.5803L13957.553,-3559.6096L13957.5806,-3559.6313"/>
<path content="1,南海バス（株）,和歌山・和泉中央・堺東⇔新宿・東京,1.0,1.0,1.0," xlink:title="1" d="M13957.5031,-3559.5703L13957.5806,-3559.6313"/>
<path content="1,南海バス（株）,堺・大阪（なんば）⇔新宿・東京,1.0,1.0,1.0," xlink:title="1" d="M13957.5031,-3559.5703L13957.5806,-3559.6313"/>
<path content="1,南海バス（株）,大阪（なんば）・京都⇔秋葉原・成田空港・銚子,1.0,1.0,1.0," xlink:title="1" d="M13957.5031,-3559.5703L13957.5806,-3559.6313"/>
<path content="1,名鉄バス（株）,名古屋～仙台,1.0,1.0,1.0," xlink:title="1" d="M13957.5806,-3559.6313L13957.5031,-3559.5703"/>
<path content="1,土佐電気鉄道（株）,ブルーメッツ号　高知⇔東京線,1.0,1.0,1.0," xlink:title="1" d="M13957.5031,-3559.5703L13957.5806,-3559.6313"/>
<path content="1,奈良交通（株）,やまと号　五條-新宿線,1.0,1.0,1.0," xlink:title="1" d="M13957.5031,-3559.5703L13957.5806,-3559.6313"/>
<path content="1,奈良交通（株）,やまと号　奈良-新宿線,1.0,1.0,1.0," xlink:title="1" d="M13957.5031,-3559.5703L13957.5806,-3559.6313"/>
<path content="1,宮城交通（株）,仙台～名古屋線,1.0,1.0,1.0," xlink:title="1" d="M13957.5031,-3559.5703L13957.5158,-3559.5803L13957.553,-3559.6096L13957.5806,-3559.6313"/>
<path content="1,宮城交通（株）,仙台～大阪線,1.0,1.0,1.0," xlink:title="1" d="M13957.5806,-3559.6313L13957.553,-3559.6096L13957.5158,-3559.5803L13957.5031,-3559.5703"/>
<path content="1,富士急シティバス（株）,さんさんぬまづ・新宿号,2.5,2.5,2.5," xlink:title="1" d="M13957.5031,-3559.5703L13957.5806,-3559.6313"/>
<path content="1,富士急シティバス（株）,さんさんぬまづ・東京号,3.0,3.0,3.0," xlink:title="1" d="M13957.5031,-3559.5703L13957.5806,-3559.6313"/>
<path content="1,富士急シティバス（株）,みしまコロッケ号,1.5,1.5,1.5," xlink:title="1" d="M13957.5031,-3559.5703L13957.5806,-3559.6313"/>
<path content="1,富士急湘南バス（株）,小田原～成田空港線,3.0,3.0,3.0," xlink:title="1" d="M13957.5031,-3559.5703L13957.5158,-3559.5803L13957.553,-3559.6096L13957.5806,-3559.6313"/>
<path content="1,富士急行（株）,かぐや姫EXPRESS,3.0,3.0,3.0," xlink:title="1" d="M13957.5031,-3559.5703L13957.5158,-3559.5803L13957.553,-3559.6096L13957.5806,-3559.6313"/>
<path content="1,富士急行（株）,みしまコロッケ号,1.5,1.5,1.5," xlink:title="1" d="M13957.5031,-3559.5703L13957.5158,-3559.5803L13957.553,-3559.6096L13957.5806,-3559.6313"/>
<path content="1,富士急行（株）,ヤキソバEXPRESS,5.5,6.0,6.0," xlink:title="1" d="M13957.5031,-3559.5703L13957.5158,-3559.5803L13957.553,-3559.6096L13957.5806,-3559.6313"/>
<path content="1,富士急行（株）,小田原～成田空港線,3.0,3.0,3.0," xlink:title="1" d="M13957.5031,-3559.5703L13957.5158,-3559.5803L13957.553,-3559.6096L13957.5806,-3559.6313"/>
<path content="1,富士急行（株）,新富士・沼津・御殿場～成田空港線,2.0,2.0,2.0," xlink:title="1" d="M13957.5031,-3559.5703L13957.5158,-3559.5803L13957.553,-3559.6096L13957.5806,-3559.6313"/>
<path content="1,富士急行（株）,早朝線東京ライナー,0.0,0.0,0.0," xlink:title="1" d="M13957.5031,-3559.5703L13957.5158,-3559.5803L13957.553,-3559.6096L13957.5806,-3559.6313"/>
<path content="1,富士急行（株）,河口湖～東京・市が尾線,8.2,10.0,10.0," xlink:title="1" d="M13957.5031,-3559.5703L13957.5158,-3559.5803L13957.553,-3559.6096L13957.5806,-3559.6313"/>
<path content="1,富士急行（株）,沼津～新宿・渋谷線,2.5,2.5,2.5," xlink:title="1" d="M13957.5031,-3559.5703L13957.5158,-3559.5803L13957.553,-3559.6096L13957.5806,-3559.6313"/>
<path content="1,富士急行（株）,沼津～東京線,3.0,3.0,3.0," xlink:title="1" d="M13957.5031,-3559.5703L13957.5158,-3559.5803L13957.553,-3559.6096L13957.5806,-3559.6313"/>
<path content="1,富士急静岡バス（株）,かぐや姫EXPRESS,2.5,1.0,1.0," xlink:title="1" d="M13957.5031,-3559.5703L13957.5806,-3559.6313"/>
<path content="1,富士急静岡バス（株）,ヤキソバEXPRESS,5.5,3.0,3.0," xlink:title="1" d="M13957.5031,-3559.5703L13957.5806,-3559.6313"/>
<path content="1,富士急静岡バス（株）,新富士・沼津・御殿場～成田空港線,2.0,2.0,2.0," xlink:title="1" d="M13957.5031,-3559.5703L13957.5806,-3559.6313"/>
<path content="1,小田急シティバス（株）,しまんとエクスプレス号,0.1,0.1,0.1," xlink:title="1" d="M13957.5031,-3559.5703L13957.5158,-3559.5803L13957.553,-3559.6096L13957.5806,-3559.6313"/>
<path content="1,小田急シティバス（株）,エトワールセト号,1.0,1.0,1.0," xlink:title="1" d="M13957.5031,-3559.5703L13957.5158,-3559.5803L13957.553,-3559.6096L13957.5806,-3559.6313"/>
<path content="1,小田急シティバス（株）,ニューブリーズ号,2.0,2.0,2.0," xlink:title="1" d="M13957.5031,-3559.5703L13957.5158,-3559.5803L13957.553,-3559.6096L13957.5806,-3559.6313"/>
<path content="1,小田急シティバス（株）,パピヨン号,1.0,1.0,1.0," xlink:title="1" d="M13957.5031,-3559.5703L13957.5158,-3559.5803L13957.553,-3559.6096L13957.5806,-3559.6313"/>
<path content="1,小田急シティバス（株）,ブルーメッツ号,1.0,1.0,1.0," xlink:title="1" d="M13957.5031,-3559.5703L13957.5158,-3559.5803L13957.553,-3559.6096L13957.5806,-3559.6313"/>
<path content="1,小田急シティバス（株）,ルミナス号,1.0,1.0,1.0," xlink:title="1" d="M13957.5806,-3559.6313L13957.553,-3559.6096L13957.5158,-3559.5803L13957.5031,-3559.5703"/>
<path content="1,小田急バス（株）,しまんとエクスプレス号,1.0,1.0,1.0," xlink:title="1" d="M13957.5031,-3559.5703L13957.5158,-3559.5803L13957.553,-3559.6096L13957.5806,-3559.6313"/>
<path content="1,小田急バス（株）,エトワールセト号,1.0,1.0,1.0," xlink:title="1" d="M13957.5031,-3559.5703L13957.5158,-3559.5803L13957.553,-3559.6096L13957.5806,-3559.6313"/>
<path content="1,小田急バス（株）,ニューブリーズ号,2.0,2.0,2.0," xlink:title="1" d="M13957.5031,-3559.5703L13957.5158,-3559.5803L13957.553,-3559.6096L13957.5806,-3559.6313"/>
<path content="1,小田急バス（株）,パピヨン号,1.0,1.0,1.0," xlink:title="1" d="M13957.5031,-3559.5703L13957.5158,-3559.5803L13957.553,-3559.6096L13957.5806,-3559.6313"/>
<path content="1,小田急バス（株）,ブルーメッツ号,1.0,1.0,1.0," xlink:title="1" d="M13957.5031,-3559.5703L13957.5158,-3559.5803L13957.553,-3559.6096L13957.5806,-3559.6313"/>
<path content="1,小田急バス（株）,ルミナス号,1.0,1.0,1.0," xlink:title="1" d="M13957.5806,-3559.6313L13957.553,-3559.6096L13957.5158,-3559.5803L13957.5031,-3559.5703"/>
<path content="1,小田急バス（株）,新百合ヶ丘駅～たまプラーザ駅～成田空港線,8.0,8.0,8.0," xlink:title="1" d="M13957.5031,-3559.5703L13957.5158,-3559.5803L13957.553,-3559.6096L13957.5806,-3559.6313"/>
<path content="1,小田急バス（株）,新百合ヶ丘駅～羽田空港線,10.0,10.0,10.0," xlink:title="1" d="M13957.5031,-3559.5703L13957.5158,-3559.5803L13957.553,-3559.6096L13957.5806,-3559.6313"/>
<path content="1,小田急箱根高速バス,ふじやま号,0.2,1.1,1.0," xlink:title="1" d="M13957.5806,-3559.6313L13957.553,-3559.6096L13957.5158,-3559.5803L13957.5031,-3559.5703"/>
<path content="1,小田急箱根高速バス,三島エクスプレス,3.0,3.0,3.0," xlink:title="1" d="M13957.5031,-3559.5703L13957.5158,-3559.5803L13957.553,-3559.6096L13957.5806,-3559.6313"/>
<path content="1,小田急箱根高速バス,伊豆・新宿ライナー,2.0,2.0,2.0," xlink:title="1" d="M13957.5031,-3559.5703L13957.5158,-3559.5803L13957.553,-3559.6096L13957.5806,-3559.6313"/>
<path content="1,小田急箱根高速バス,御殿場プレミアム・アウトレット・新宿駅線,1.0,1.0,1.0," xlink:title="1" d="M13957.5806,-3559.6313L13957.553,-3559.6096L13957.5158,-3559.5803L13957.5031,-3559.5703"/>
<path content="1,小田急箱根高速バス,新宿・箱根線,32.9,29.0,32.5," xlink:title="1" d="M13957.5031,-3559.5703L13957.5158,-3559.5803L13957.553,-3559.6096L13957.5806,-3559.6313"/>
<path content="1,川崎市,溝15,94.0,80.0,79.0," xlink:title="1" d="M13957.1706,-3559.5703L13957.1798,-3559.5813L13957.1984,-3559.605L13957.2074,-3559.6146L13957.2095,-3559.6179L13957.2184,-3559.6275L13957.2226,-3559.6326L13957.2281,-3559.6378L13957.2426,-3559.6512L13957.2605,-3559.6641L13957.3247,-3559.7052L13957.3411,-3559.7156L13957.3506,-3559.7201L13957.3611,-3559.7287L13957.3695,-3559.7368L13957.3729,-3559.7408L13957.3881,-3559.7588L13957.4033,-3559.7802L13957.415,-3559.8016L13957.4253,-3559.8286L13957.4315,-3559.85L13957.4358,-3559.8759L13957.4384,-3559.8985L13957.4529,-3559.8979L13957.5054,-3559.8991L13957.5239,-3559.9002L13957.5495,-3559.9007L13957.5789,-3559.9027L13957.5806,-3559.903"/>
<path content="1,川崎市,溝16,26.5,19.5,16.0," xlink:title="1" d="M13957.1706,-3559.5703L13957.1798,-3559.5813L13957.1984,-3559.605L13957.2074,-3559.6146L13957.2095,-3559.6179L13957.2184,-3559.6275L13957.2226,-3559.6326L13957.2281,-3559.6378L13957.2426,-3559.6512L13957.2605,-3559.6641L13957.3247,-3559.7052L13957.3411,-3559.7156L13957.3506,-3559.7201L13957.3611,-3559.7287L13957.3695,-3559.7368L13957.3729,-3559.7408L13957.3881,-3559.7588L13957.4033,-3559.7802L13957.415,-3559.8016L13957.4253,-3559.8286L13957.4315,-3559.85L13957.4358,-3559.8759L13957.4384,-3559.8985"/>
<path content="1,川崎市,溝16,26.5,19.5,16.0," xlink:title="1" d="M13957.0312,-3559.9367L13957.115,-3559.922L13957.1964,-3559.9092L13957.2779,-3559.8962L13957.3429,-3559.895L13957.3688,-3559.8962L13957.4198,-3559.8985L13957.4384,-3559.8985"/>
<path content="1,川崎市,溝16,26.5,19.5,16.0," xlink:title="1" d="M13957.4384,-3559.8985L13957.4529,-3559.8979L13957.5054,-3559.8991L13957.5239,-3559.9002L13957.5495,-3559.9007L13957.5789,-3559.9027L13957.5806,-3559.903"/>
<path content="1,川崎市,溝17,61.0,52.5,58.5," xlink:title="1" d="M13957.0312,-3559.9367L13957.115,-3559.922L13957.1964,-3559.9092L13957.2779,-3559.8962L13957.3429,-3559.895L13957.3688,-3559.8962L13957.4198,-3559.8985L13957.4384,-3559.8985L13957.4529,-3559.8979L13957.5054,-3559.8991L13957.5239,-3559.9002L13957.5495,-3559.9007L13957.5789,-3559.9027L13957.5806,-3559.903"/>
<path content="1,川崎市,溝18,148.0,120.0,114.5," xlink:title="1" d="M13957.5806,-3559.903L13957.5789,-3559.9027L13957.5495,-3559.9007L13957.5239,-3559.9002L13957.5054,-3559.8991L13957.4529,-3559.8979L13957.4384,-3559.8985L13957.4198,-3559.8985L13957.3688,-3559.8962L13957.3429,-3559.895L13957.2779,-3559.8962L13957.1964,-3559.9092L13957.115,-3559.922L13957.0312,-3559.9367"/>
<path content="1,川崎市,溝19,55.0,46.0,32.0," xlink:title="1" d="M13957.5806,-3559.903L13957.5789,-3559.9027L13957.5495,-3559.9007L13957.5239,-3559.9002L13957.5054,-3559.8991L13957.4529,-3559.8979L13957.4384,-3559.8985L13957.4198,-3559.8985L13957.3688,-3559.8962L13957.3429,-3559.895L13957.2779,-3559.8962L13957.1964,-3559.9092L13957.115,-3559.922L13957.0846,-3559.9576L13957.0605,-3559.9903L13957.0343,-3560.0219L13957.0329,-3560.0253L13957.0313,-3560.0272"/>
<path content="1,川崎市,登05,69.0,58.0,53.0," xlink:title="1" d="M13957.5806,-3559.903L13957.5789,-3559.9027L13957.5495,-3559.9007L13957.5239,-3559.9002L13957.5054,-3559.8991L13957.4529,-3559.8979L13957.4384,-3559.8985L13957.4198,-3559.8985L13957.3688,-3559.8962L13957.3429,-3559.895L13957.2779,-3559.8962L13957.1964,-3559.9092L13957.115,-3559.922L13957.0312,-3559.9367"/>
<path content="1,川崎市,登06,9.5,9.0,10.0," xlink:title="1" d="M13957.0312,-3559.9367L13957.115,-3559.922L13957.1964,-3559.9092L13957.2779,-3559.8962L13957.3429,-3559.895L13957.3688,-3559.8962L13957.4198,-3559.8985L13957.4384,-3559.8985L13957.4529,-3559.8979L13957.5054,-3559.8991L13957.5239,-3559.9002L13957.5495,-3559.9007L13957.5789,-3559.9027L13957.5806,-3559.903"/>
<path content="1,川崎鶴見臨港バス,たまプラーザ～羽田空港,8.5,8.5,8.5," xlink:title="1" d="M13957.5806,-3559.6313L13957.553,-3559.6096L13957.5158,-3559.5803L13957.5031,-3559.5703"/>
<path content="1,徳島バス（株）,徳島⇔東京,2.0,2.0,2.0," xlink:title="1" d="M13957.5031,-3559.5703L13957.5806,-3559.6313"/>
<path content="1,成田空港交通,和歌山線,1.0,1.0,1.0," xlink:title="1" d="M13957.5031,-3559.5703L13957.5158,-3559.5803L13957.553,-3559.6096L13957.5806,-3559.6313"/>
<path content="1,新常磐交通（株）,シーガル号,1.0,1.0,1.0," xlink:title="1" d="M13957.5031,-3559.5703L13957.5158,-3559.5803L13957.553,-3559.6096L13957.5806,-3559.6313"/>
<path content="1,日ノ丸自動車（株）,東京‐米子線,1.0,1.0,1.0," xlink:title="1" d="M13957.5031,-3559.5703L13957.5806,-3559.6313"/>
<path content="1,日ノ丸自動車（株）,東京‐鳥取・倉吉線,1.0,1.0,1.0," xlink:title="1" d="M13957.5031,-3559.5703L13957.5806,-3559.6313"/>
<path content="1,日本中央バス（株）,シルクライナー,5.0,5.0,5.0," xlink:title="1" d="M13957.5031,-3559.5703L13957.5158,-3559.5803L13957.553,-3559.6096L13957.5806,-3559.6313"/>
<path content="1,日本中央バス（株）,東海ライナー,2.0,2.0,2.0," xlink:title="1" d="M13957.5031,-3559.5703L13957.5158,-3559.5803L13957.553,-3559.6096L13957.5806,-3559.6313"/>
<path content="1,日本交通（株）,米子～東京線,1.0,1.0,1.0," xlink:title="1" d="M13957.5031,-3559.5703L13957.5806,-3559.6313"/>
<path content="1,日本交通（株）,鳥取・倉吉～東京線,1.0,1.0,1.0," xlink:title="1" d="M13957.5031,-3559.5703L13957.5806,-3559.6313"/>
<path content="1,東北急行バス（株）,ままかりライナー,1.0,1.0,1.0," xlink:title="1" d="M13957.5031,-3559.5703L13957.5158,-3559.5803L13957.553,-3559.6096L13957.5806,-3559.6313"/>
<path content="1,東北急行バス（株）,フライングスニーカー京都・茨木号,1.0,1.0,1.0," xlink:title="1" d="M13957.5806,-3559.6313L13957.553,-3559.6096L13957.5158,-3559.5803L13957.5031,-3559.5703"/>
<path content="1,東北急行バス（株）,フライングスニーカー大坂号,1.0,1.0,1.0," xlink:title="1" d="M13957.5806,-3559.6313L13957.553,-3559.6096L13957.5158,-3559.5803L13957.5031,-3559.5703"/>
<path content="1,東急バス（株）,たまプラーザ駅～成田空港,8.0,8.0,8.0," xlink:title="1" d="M13957.5031,-3559.5703L13957.5158,-3559.5803L13957.553,-3559.6096L13957.5806,-3559.6313"/>
<path content="1,東急バス（株）,たまプラーザ駅～東京ディズニーリゾート,5.0,5.0,5.0," xlink:title="1" d="M13957.5031,-3559.5703L13957.5158,-3559.5803L13957.553,-3559.6096L13957.5806,-3559.6313"/>
<path content="1,東急バス（株）,たまプラーザ駅～羽田空港,16.0,16.0,16.0," xlink:title="1" d="M13957.5031,-3559.5703L13957.5158,-3559.5803L13957.553,-3559.6096L13957.5806,-3559.6313"/>
<path content="1,東急バス（株）,新百合ヶ丘駅～成田空港,8.0,8.0,8.0," xlink:title="1" d="M13957.5031,-3559.5703L13957.5158,-3559.5803L13957.553,-3559.6096L13957.5806,-3559.6313"/>
<path content="1,東急バス（株）,新百合ヶ丘駅～羽田空港,5.0,5.0,5.0," xlink:title="1" d="M13957.5031,-3559.5703L13957.5158,-3559.5803L13957.553,-3559.6096L13957.5806,-3559.6313"/>
<path content="1,東急バス（株）,高速ニュータウン線,1.0,0.0,0.0," xlink:title="1" d="M13957.5031,-3559.5703L13957.5158,-3559.5803L13957.553,-3559.6096L13957.5806,-3559.6313"/>
<path content="1,東急バス（株）,高速青葉台線,2.4,0.0,0.0," xlink:title="1" d="M13957.5806,-3559.6313L13957.553,-3559.6096L13957.5158,-3559.5803L13957.5031,-3559.5703"/>
<path content="1,瀬戸内運輸（株）,パイレーツ　今治⇔東京,1.0,1.0,1.0," xlink:title="1" d="M13957.5031,-3559.5703L13957.5806,-3559.6313"/>
<path content="1,神奈川中央交通（株）,新宿駅西口小田急ハルク前～本厚木駅,0.2,0.0,0.0," xlink:title="1" d="M13957.5031,-3559.5703L13957.5158,-3559.5803L13957.553,-3559.6096L13957.5806,-3559.6313"/>
<path content="1,神奈川中央交通（株）,橋本駅・相模大野・町田バスセンター～成田空港,9.0,9.0,9.0," xlink:title="1" d="M13957.5031,-3559.5703L13957.5158,-3559.5803L13957.553,-3559.6096L13957.5806,-3559.6313"/>
<path content="1,神奈川中央交通（株）,田村車庫・本厚木駅～成田空港,4.0,4.0,4.0," xlink:title="1" d="M13957.5031,-3559.5703L13957.5158,-3559.5803L13957.553,-3559.6096L13957.5806,-3559.6313"/>
<path content="1,神奈川中央交通（株）,田村車庫・本厚木駅～羽田空港,6.0,6.0,6.0," xlink:title="1" d="M13957.5031,-3559.5703L13957.5158,-3559.5803L13957.553,-3559.6096L13957.5806,-3559.6313"/>
<path content="1,神奈川中央交通（株）,相模大野・町田バスセンター～羽田空港,10.0,10.0,10.0," xlink:title="1" d="M13957.5031,-3559.5703L13957.5158,-3559.5803L13957.553,-3559.6096L13957.5806,-3559.6313"/>
<path content="1,神姫バス（株）,姫路・神戸（三ノ宮）-東京（渋谷・新宿）,1.0,1.0,1.0," xlink:title="1" d="M13957.5031,-3559.5703L13957.5806,-3559.6313"/>
<path content="1,福井鉄道（株）,福井⇔東京,3.0,3.0,3.0," xlink:title="1" d="M13957.5031,-3559.5703L13957.5806,-3559.6313"/>
<path content="1,福島交通（株）,福島高速バスターミナル～大阪あべの橋,1.0,1.0,1.0," xlink:title="1" d="M13957.5031,-3559.5703L13957.5158,-3559.5803L13957.553,-3559.6096L13957.5806,-3559.6313"/>
<path content="1,西日本鉄道（株）,福岡　～　東京　（はかた号））,1.0,1.0,1.0," xlink:title="1" d="M13957.5031,-3559.5703L13957.5806,-3559.6313"/>
<path content="1,豊鉄バス（株）,田原～練馬,1.0,1.0,1.0," xlink:title="1" d="M13957.5031,-3559.5703L13957.5806,-3559.6313"/>
<path content="1,近鉄バス（株）,大日・茨木・京都⇔東京駅,1.0,1.0,1.0," xlink:title="1" d="M13957.5031,-3559.5703L13957.5806,-3559.6313"/>
<path content="1,近鉄バス（株）,大阪⇔東京駅,1.0,1.0,1.0," xlink:title="1" d="M13957.5031,-3559.5703L13957.5806,-3559.6313"/>
<path content="1,近鉄バス（株）,大阪・京都⇔つくば・水戸,1.0,1.0,1.0," xlink:title="1" d="M13957.5031,-3559.5703L13957.5806,-3559.6313"/>
<path content="1,近鉄バス（株）,大阪・京都⇔久喜・栃木・宇都宮,1.0,1.0,1.0," xlink:title="1" d="M13957.5031,-3559.5703L13957.5806,-3559.6313"/>
<path content="1,近鉄バス（株）,大阪・京都⇔仙台,1.0,1.0,1.0," xlink:title="1" d="M13957.5031,-3559.5703L13957.5806,-3559.6313"/>
<path content="1,近鉄バス（株）,大阪・京都⇔川越・坂戸・熊谷,1.0,1.0,1.0," xlink:title="1" d="M13957.5031,-3559.5703L13957.5806,-3559.6313"/>
<path content="1,近鉄バス（株）,大阪・京都⇔日立・いわき,1.0,1.0,1.0," xlink:title="1" d="M13957.5031,-3559.5703L13957.5806,-3559.6313"/>
<path content="1,近鉄バス（株）,大阪・京都⇔郡山・福島,1.0,1.0,1.0," xlink:title="1" d="M13957.5031,-3559.5703L13957.5806,-3559.6313"/>
<path content="1,近鉄バス（株）,大阪・茨木⇔新宿,1.0,1.0,1.0," xlink:title="1" d="M13957.5031,-3559.5703L13957.5806,-3559.6313"/>
<path content="1,関東バス（株）,ほの国号,1.0,1.0,1.0," xlink:title="1" d="M13957.5031,-3559.5703L13957.5158,-3559.5803L13957.553,-3559.6096L13957.5806,-3559.6313"/>
<path content="1,関東バス（株）,やまと号,2.0,2.0,2.0," xlink:title="1" d="M13957.5806,-3559.6313L13957.553,-3559.6096L13957.5158,-3559.5803L13957.5031,-3559.5703"/>
<path content="1,関東バス（株）,マスカット号,1.0,1.0,1.0," xlink:title="1" d="M13957.5031,-3559.5703L13957.5158,-3559.5803L13957.553,-3559.6096L13957.5806,-3559.6313"/>
<path content="1,関東バス（株）,東京ミッドナイトエクスプレス京都号,1.0,1.0,1.0," xlink:title="1" d="M13957.5806,-3559.6313L13957.553,-3559.6096L13957.5158,-3559.5803L13957.5031,-3559.5703"/>
<path content="1,関東自動車（株）,とちの木号,1.0,1.0,1.0," xlink:title="1" d="M13957.5806,-3559.6313L13957.553,-3559.6096L13957.5158,-3559.5803L13957.5031,-3559.5703"/>
<path content="1,関東鉄道（株）,水戸駅南口～あべの橋駅（JR天王寺駅）,1.0,1.0,1.0," xlink:title="1" d="M13957.5806,-3559.6313L13957.553,-3559.6096L13957.5158,-3559.5803L13957.5031,-3559.5703"/>
<path content="1,阪急バス（株）,東京・東京ディズニーリゾート・千葉行,1.0,1.0,1.0," xlink:title="1" d="M13957.5031,-3559.5703L13957.5806,-3559.6313"/>
<path content="1,阪神バス（株）,サラダエクスプレス　神戸・大阪⇔東京ディズニーリゾート,1.0,1.0,1.0," xlink:title="1" d="M13957.5031,-3559.5703L13957.5806,-3559.6313"/>
<path content="1,防長交通（株）,萩・山口・防府・徳山・岩国～東京,1.0,1.0,1.0," xlink:title="1" d="M13957.5031,-3559.5703L13957.5806,-3559.6313"/>
<path content="1,高知県交通（株）,ブルーメッツ号　高知⇔東京線,1.0,1.0,1.0," xlink:title="1" d="M13957.5031,-3559.5703L13957.5806,-3559.6313"/>
<path content="1,（株）中伊豆東海バス,伊豆新宿ライナー,2.0,2.0,2.0," xlink:title="1" d="M13957.5031,-3559.5703L13957.5806,-3559.6313"/>
<path content="1,（株）中国バス,夜行便　東京線,1.0,1.0,1.0," xlink:title="1" d="M13957.5806,-3559.6313L13957.5031,-3559.5703"/>
<path content="1,（株）沼津登山東海バス,三島エクスプレス,3.0,3.0,3.0," xlink:title="1" d="M13957.5031,-3559.5703L13957.5806,-3559.6313"/>
</g>
</svg>
