<?xml version="1.0" encoding="UTF-8"?>
<svg  xmlns="http://www.w3.org/2000/svg" xmlns:xlink="http://www.w3.org/1999/xlink" xmlns:go="http://purl.org/svgmap/profile" property="N07_001,N07_002,N07_003,N07_004,N07_005,N07_006,N07_007" viewBox="13976.25732421875 -3650.7568359375 0.54931640625 0.54931640625" go:dataArea="13976.25732421875 -3650.7568359375 0.54931640625 0.54931640625" >
<metadata>
 <rdf:RDF xmlns:rdf="http://www.w3.org/1999/02/22-rdf-syntax-ns#" xmlns:crs="http://opengis.org/xmldtds/transformations.dtd" xmlns:svg="http://www.w3.org/svg" >
  <rdf:Description>
   <crs:CoordinateReferenceSystem rdf:resource="http://purl.org/crs/84" svg:transform="matrix(100.0,0.0,0.0,-100.0,0.0,0.0)" />
  </rdf:Description>
 </rdf:RDF>
</metadata>
<globalCoordinateSystem srsName="http://purl.org/crs/84" transform="matrix(100.0,0.0,0.0,-100.0,0.0,0.0)" />
<defs>
 <g id="p0" >
  <circle cx="0.0" cy="0.0" r="3" stroke="green" stroke-width="0.75" vector-effect="non-scaling-stroke" />
 </g>
</defs>
<g fill="none" fill-rule="evenodd" stroke="#FF00FF" stroke-width="0.75" opacity="0.5" vector-effect="non-scaling-stroke" stroke-linejoin="bevel" >
<path content="1,JRバス東北（株）,あぶくま号,4.0,4.0,4.0," xlink:title="1" d="M13976.4165,-3650.2075L13976.4432,-3650.2291L13976.4466,-3650.2321L13976.4479,-3650.2332L13976.4507,-3650.2356L13976.4796,-3650.2629L13976.5211,-3650.3019L13976.5328,-3650.3137L13976.5428,-3650.3242L13976.5616,-3650.3438L13976.5795,-3650.3605L13976.5868,-3650.3684L13976.5954,-3650.3776L13976.6073,-3650.3914L13976.6165,-3650.4021L13976.6469,-3650.4378L13976.648,-3650.4391L13976.6537,-3650.4457L13976.6555,-3650.4479L13976.664,-3650.4578L13976.6744,-3650.4708L13976.6777,-3650.475L13976.6802,-3650.4781L13976.6831,-3650.4819L13976.7071,-3650.5135L13976.7351,-3650.5487L13976.7505,-3650.5712L13976.7635,-3650.5896L13976.7713,-3650.6004L13976.7742,-3650.6044L13976.7786,-3650.6114L13976.7812,-3650.6156L13976.7888,-3650.6279L13976.7893,-3650.6287L13976.7907,-3650.631L13976.7975,-3650.6429L13976.7982,-3650.6442L13976.8066,-3650.659"/>
<path content="1,JRバス東北（株）,ドリームさくらんぼ号,1.0,1.0,1.0," xlink:title="1" d="M13976.4165,-3650.2075L13976.4432,-3650.2291L13976.4466,-3650.2321L13976.4479,-3650.2332L13976.4507,-3650.2356L13976.4796,-3650.2629L13976.5211,-3650.3019L13976.5328,-3650.3137L13976.5428,-3650.3242L13976.5616,-3650.3438L13976.5795,-3650.3605L13976.5868,-3650.3684L13976.5954,-3650.3776L13976.6073,-3650.3914L13976.6165,-3650.4021L13976.6469,-3650.4378L13976.648,-3650.4391L13976.6537,-3650.4457L13976.6555,-3650.4479L13976.664,-3650.4578L13976.6744,-3650.4708L13976.6777,-3650.475L13976.6802,-3650.4781L13976.6831,-3650.4819L13976.7071,-3650.5135L13976.7351,-3650.5487L13976.7505,-3650.5712L13976.7635,-3650.5896L13976.7713,-3650.6004L13976.7742,-3650.6044L13976.7786,-3650.6114L13976.7812,-3650.6156L13976.7888,-3650.6279L13976.7893,-3650.6287L13976.7907,-3650.631L13976.7975,-3650.6429L13976.7982,-3650.6442L13976.8066,-3650.659"/>
<path content="1,JRバス東北（株）,ドリームふくしま・横浜号,1.0,1.0,1.0," xlink:title="1" d="M13976.4165,-3650.2075L13976.4432,-3650.2291L13976.4466,-3650.2321L13976.4479,-3650.2332L13976.4507,-3650.2356L13976.4796,-3650.2629L13976.5211,-3650.3019L13976.5328,-3650.3137L13976.5428,-3650.3242L13976.5616,-3650.3438L13976.5795,-3650.3605L13976.5868,-3650.3684L13976.5954,-3650.3776L13976.6073,-3650.3914L13976.6165,-3650.4021L13976.6469,-3650.4378L13976.648,-3650.4391L13976.6537,-3650.4457L13976.6555,-3650.4479L13976.664,-3650.4578L13976.6744,-3650.4708L13976.6777,-3650.475L13976.6802,-3650.4781L13976.6831,-3650.4819L13976.7071,-3650.5135L13976.7351,-3650.5487L13976.7505,-3650.5712L13976.7635,-3650.5896L13976.7713,-3650.6004L13976.7742,-3650.6044L13976.7786,-3650.6114L13976.7812,-3650.6156L13976.7888,-3650.6279L13976.7893,-3650.6287L13976.7907,-3650.631L13976.7975,-3650.6429L13976.7982,-3650.6442L13976.8066,-3650.659"/>
<path content="1,JRバス東北（株）,ドリームササニシキ号,1.0,1.0,1.0," xlink:title="1" d="M13976.8066,-3650.659L13976.7982,-3650.6442L13976.7975,-3650.6429L13976.7907,-3650.631L13976.7893,-3650.6287L13976.7888,-3650.6279L13976.7812,-3650.6156L13976.7786,-3650.6114L13976.7742,-3650.6044L13976.7713,-3650.6004L13976.7635,-3650.5896L13976.7505,-3650.5712L13976.7351,-3650.5487L13976.7071,-3650.5135L13976.6831,-3650.4819L13976.6802,-3650.4781L13976.6777,-3650.475L13976.6744,-3650.4708L13976.664,-3650.4578L13976.6555,-3650.4479L13976.6537,-3650.4457L13976.648,-3650.4391L13976.6469,-3650.4378L13976.6165,-3650.4021L13976.6073,-3650.3914L13976.5954,-3650.3776L13976.5868,-3650.3684L13976.5795,-3650.3605L13976.5616,-3650.3438L13976.5428,-3650.3242L13976.5328,-3650.3137L13976.5211,-3650.3019L13976.4796,-3650.2629L13976.4507,-3650.2356L13976.4479,-3650.2332L13976.4466,-3650.2321L13976.4432,-3650.2291L13976.4165,-3650.2075"/>
<path content="1,JRバス東北（株）,ドリーム政宗号,1.0,1.0,1.0," xlink:title="1" d="M13976.4165,-3650.2075L13976.4432,-3650.2291L13976.4466,-3650.2321L13976.4479,-3650.2332L13976.4507,-3650.2356L13976.4796,-3650.2629L13976.5211,-3650.3019L13976.5328,-3650.3137L13976.5428,-3650.3242L13976.5616,-3650.3438L13976.5795,-3650.3605L13976.5868,-3650.3684L13976.5954,-3650.3776L13976.6073,-3650.3914L13976.6165,-3650.4021L13976.6469,-3650.4378L13976.648,-3650.4391L13976.6537,-3650.4457L13976.6555,-3650.4479L13976.664,-3650.4578L13976.6744,-3650.4708L13976.6777,-3650.475L13976.6802,-3650.4781L13976.6831,-3650.4819L13976.7071,-3650.5135L13976.7351,-3650.5487L13976.7505,-3650.5712L13976.7635,-3650.5896L13976.7713,-3650.6004L13976.7742,-3650.6044L13976.7786,-3650.6114L13976.7812,-3650.6156L13976.7888,-3650.6279L13976.7893,-3650.6287L13976.7907,-3650.631L13976.7975,-3650.6429L13976.7982,-3650.6442L13976.8066,-3650.659"/>
<path content="1,JRバス東北（株）,ドリーム横浜・仙台号,1.0,1.0,1.0," xlink:title="1" d="M13976.4165,-3650.2075L13976.4432,-3650.2291L13976.4466,-3650.2321L13976.4479,-3650.2332L13976.4507,-3650.2356L13976.4796,-3650.2629L13976.5211,-3650.3019L13976.5328,-3650.3137L13976.5428,-3650.3242L13976.5616,-3650.3438L13976.5795,-3650.3605L13976.5868,-3650.3684L13976.5954,-3650.3776L13976.6073,-3650.3914L13976.6165,-3650.4021L13976.6469,-3650.4378L13976.648,-3650.4391L13976.6537,-3650.4457L13976.6555,-3650.4479L13976.664,-3650.4578L13976.6744,-3650.4708L13976.6777,-3650.475L13976.6802,-3650.4781L13976.6831,-3650.4819L13976.7071,-3650.5135L13976.7351,-3650.5487L13976.7505,-3650.5712L13976.7635,-3650.5896L13976.7713,-3650.6004L13976.7742,-3650.6044L13976.7786,-3650.6114L13976.7812,-3650.6156L13976.7888,-3650.6279L13976.7893,-3650.6287L13976.7907,-3650.631L13976.7975,-3650.6429L13976.7982,-3650.6442L13976.8066,-3650.659"/>
<path content="1,JRバス東北（株）,ドリーム盛岡・らくちん号,2.2,3.0,3.0," xlink:title="1" d="M13976.4165,-3650.2075L13976.4432,-3650.2291L13976.4466,-3650.2321L13976.4479,-3650.2332L13976.4507,-3650.2356L13976.4796,-3650.2629L13976.5211,-3650.3019L13976.5328,-3650.3137L13976.5428,-3650.3242L13976.5616,-3650.3438L13976.5795,-3650.3605L13976.5868,-3650.3684L13976.5954,-3650.3776L13976.6073,-3650.3914L13976.6165,-3650.4021L13976.6469,-3650.4378L13976.648,-3650.4391L13976.6537,-3650.4457L13976.6555,-3650.4479L13976.664,-3650.4578L13976.6744,-3650.4708L13976.6777,-3650.475L13976.6802,-3650.4781L13976.6831,-3650.4819L13976.7071,-3650.5135L13976.7351,-3650.5487L13976.7505,-3650.5712L13976.7635,-3650.5896L13976.7713,-3650.6004L13976.7742,-3650.6044L13976.7786,-3650.6114L13976.7812,-3650.6156L13976.7888,-3650.6279L13976.7893,-3650.6287L13976.7907,-3650.631L13976.7975,-3650.6429L13976.7982,-3650.6442L13976.8066,-3650.659"/>
<path content="1,JRバス東北（株）,ドリーム秋田・横浜号,1.0,1.0,1.0," xlink:title="1" d="M13976.8066,-3650.659L13976.7982,-3650.6442L13976.7975,-3650.6429L13976.7907,-3650.631L13976.7893,-3650.6287L13976.7888,-3650.6279L13976.7812,-3650.6156L13976.7786,-3650.6114L13976.7742,-3650.6044L13976.7713,-3650.6004L13976.7635,-3650.5896L13976.7505,-3650.5712L13976.7351,-3650.5487L13976.7071,-3650.5135L13976.6831,-3650.4819L13976.6802,-3650.4781L13976.6777,-3650.475L13976.6744,-3650.4708L13976.664,-3650.4578L13976.6555,-3650.4479L13976.6537,-3650.4457L13976.648,-3650.4391L13976.6469,-3650.4378L13976.6165,-3650.4021L13976.6073,-3650.3914L13976.5954,-3650.3776L13976.5868,-3650.3684L13976.5795,-3650.3605L13976.5616,-3650.3438L13976.5428,-3650.3242L13976.5328,-3650.3137L13976.5211,-3650.3019L13976.4796,-3650.2629L13976.4507,-3650.2356L13976.4479,-3650.2332L13976.4466,-3650.2321L13976.4432,-3650.2291L13976.4165,-3650.2075"/>
<path content="1,JRバス東北（株）,ドリーム鳥海号,1.0,1.0,1.0," xlink:title="1" d="M13976.4165,-3650.2075L13976.4432,-3650.2291L13976.4466,-3650.2321L13976.4479,-3650.2332L13976.4507,-3650.2356L13976.4796,-3650.2629L13976.5211,-3650.3019L13976.5328,-3650.3137L13976.5428,-3650.3242L13976.5616,-3650.3438L13976.5795,-3650.3605L13976.5868,-3650.3684L13976.5954,-3650.3776L13976.6073,-3650.3914L13976.6165,-3650.4021L13976.6469,-3650.4378L13976.648,-3650.4391L13976.6537,-3650.4457L13976.6555,-3650.4479L13976.664,-3650.4578L13976.6744,-3650.4708L13976.6777,-3650.475L13976.6802,-3650.4781L13976.6831,-3650.4819L13976.7071,-3650.5135L13976.7351,-3650.5487L13976.7505,-3650.5712L13976.7635,-3650.5896L13976.7713,-3650.6004L13976.7742,-3650.6044L13976.7786,-3650.6114L13976.7812,-3650.6156L13976.7888,-3650.6279L13976.7893,-3650.6287L13976.7907,-3650.631L13976.7975,-3650.6429L13976.7982,-3650.6442L13976.8066,-3650.659"/>
<path content="1,JRバス東北（株）,ラ・フォーレ号,1.0,1.0,1.0," xlink:title="1" d="M13976.4165,-3650.2075L13976.4432,-3650.2291L13976.4466,-3650.2321L13976.4479,-3650.2332L13976.4507,-3650.2356L13976.4796,-3650.2629L13976.5211,-3650.3019L13976.5328,-3650.3137L13976.5428,-3650.3242L13976.5616,-3650.3438L13976.5795,-3650.3605L13976.5868,-3650.3684L13976.5954,-3650.3776L13976.6073,-3650.3914L13976.6165,-3650.4021L13976.6469,-3650.4378L13976.648,-3650.4391L13976.6537,-3650.4457L13976.6555,-3650.4479L13976.664,-3650.4578L13976.6744,-3650.4708L13976.6777,-3650.475L13976.6802,-3650.4781L13976.6831,-3650.4819L13976.7071,-3650.5135L13976.7351,-3650.5487L13976.7505,-3650.5712L13976.7635,-3650.5896L13976.7713,-3650.6004L13976.7742,-3650.6044L13976.7786,-3650.6114L13976.7812,-3650.6156L13976.7888,-3650.6279L13976.7893,-3650.6287L13976.7907,-3650.631L13976.7975,-3650.6429L13976.7982,-3650.6442L13976.8066,-3650.659"/>
<path content="1,JRバス東北（株）,仙台・新宿号,2.0,2.0,2.0," xlink:title="1" d="M13976.4165,-3650.2075L13976.4432,-3650.2291L13976.4466,-3650.2321L13976.4479,-3650.2332L13976.4507,-3650.2356L13976.4796,-3650.2629L13976.5211,-3650.3019L13976.5328,-3650.3137L13976.5428,-3650.3242L13976.5616,-3650.3438L13976.5795,-3650.3605L13976.5868,-3650.3684L13976.5954,-3650.3776L13976.6073,-3650.3914L13976.6165,-3650.4021L13976.6469,-3650.4378L13976.648,-3650.4391L13976.6537,-3650.4457L13976.6555,-3650.4479L13976.664,-3650.4578L13976.6744,-3650.4708L13976.6777,-3650.475L13976.6802,-3650.4781L13976.6831,-3650.4819L13976.7071,-3650.5135L13976.7351,-3650.5487L13976.7505,-3650.5712L13976.7635,-3650.5896L13976.7713,-3650.6004L13976.7742,-3650.6044L13976.7786,-3650.6114L13976.7812,-3650.6156L13976.7888,-3650.6279L13976.7893,-3650.6287L13976.7907,-3650.631L13976.7975,-3650.6429L13976.7982,-3650.6442L13976.8066,-3650.659"/>
<path content="1,JRバス関東（株）,あぶくま号,4.0,4.0,4.0," xlink:title="1" d="M13976.4165,-3650.2075L13976.4432,-3650.2291L13976.4466,-3650.2321L13976.4479,-3650.2332L13976.4507,-3650.2356L13976.4796,-3650.2629L13976.5211,-3650.3019L13976.5328,-3650.3137L13976.5428,-3650.3242L13976.5616,-3650.3438L13976.5795,-3650.3605L13976.5868,-3650.3684L13976.5954,-3650.3776L13976.6073,-3650.3914L13976.6165,-3650.4021L13976.6469,-3650.4378L13976.648,-3650.4391L13976.6537,-3650.4457L13976.6555,-3650.4479L13976.664,-3650.4578L13976.6744,-3650.4708L13976.6777,-3650.475L13976.6802,-3650.4781L13976.6831,-3650.4819L13976.7071,-3650.5135L13976.7351,-3650.5487L13976.7505,-3650.5712L13976.7635,-3650.5896L13976.7713,-3650.6004L13976.7742,-3650.6044L13976.7786,-3650.6114L13976.7812,-3650.6156L13976.7888,-3650.6279L13976.7893,-3650.6287L13976.7907,-3650.631L13976.7975,-3650.6429L13976.7982,-3650.6442L13976.8066,-3650.659"/>
<path content="1,JRバス関東（株）,ドリーム盛岡号,2.2,3.0,3.0," xlink:title="1" d="M13976.4165,-3650.2075L13976.4432,-3650.2291L13976.4466,-3650.2321L13976.4479,-3650.2332L13976.4507,-3650.2356L13976.4796,-3650.2629L13976.5211,-3650.3019L13976.5328,-3650.3137L13976.5428,-3650.3242L13976.5616,-3650.3438L13976.5795,-3650.3605L13976.5868,-3650.3684L13976.5954,-3650.3776L13976.6073,-3650.3914L13976.6165,-3650.4021L13976.6469,-3650.4378L13976.648,-3650.4391L13976.6537,-3650.4457L13976.6555,-3650.4479L13976.664,-3650.4578L13976.6744,-3650.4708L13976.6777,-3650.475L13976.6802,-3650.4781L13976.6831,-3650.4819L13976.7071,-3650.5135L13976.7351,-3650.5487L13976.7505,-3650.5712L13976.7635,-3650.5896L13976.7713,-3650.6004L13976.7742,-3650.6044L13976.7786,-3650.6114L13976.7812,-3650.6156L13976.7888,-3650.6279L13976.7893,-3650.6287L13976.7907,-3650.631L13976.7975,-3650.6429L13976.7982,-3650.6442L13976.8066,-3650.659"/>
<path content="1,JRバス関東（株）,マロニエ新宿号・マロニエ東京号,34.0,37.0,37.0," xlink:title="1" d="M13976.8066,-3650.659L13976.7982,-3650.6442L13976.7975,-3650.6429L13976.7907,-3650.631L13976.7893,-3650.6287L13976.7888,-3650.6279L13976.7812,-3650.6156L13976.7786,-3650.6114L13976.7742,-3650.6044L13976.7713,-3650.6004L13976.7635,-3650.5896L13976.7505,-3650.5712L13976.7351,-3650.5487L13976.7071,-3650.5135L13976.6831,-3650.4819L13976.6802,-3650.4781L13976.6777,-3650.475L13976.6744,-3650.4708L13976.664,-3650.4578L13976.6555,-3650.4479L13976.6537,-3650.4457L13976.648,-3650.4391L13976.6469,-3650.4378L13976.6165,-3650.4021L13976.6073,-3650.3914L13976.5954,-3650.3776L13976.5868,-3650.3684L13976.5795,-3650.3605L13976.5616,-3650.3438L13976.5428,-3650.3242L13976.5328,-3650.3137L13976.5211,-3650.3019L13976.4796,-3650.2629L13976.4507,-3650.2356L13976.4479,-3650.2332L13976.4466,-3650.2321L13976.4432,-3650.2291L13976.4165,-3650.2075"/>
<path content="1,JRバス関東（株）,夢街道会津号,6.0,6.0,6.0," xlink:title="1" d="M13976.4165,-3650.2075L13976.4432,-3650.2291L13976.4466,-3650.2321L13976.4479,-3650.2332L13976.4507,-3650.2356L13976.4796,-3650.2629L13976.5211,-3650.3019L13976.5328,-3650.3137L13976.5428,-3650.3242L13976.5616,-3650.3438L13976.5795,-3650.3605L13976.5868,-3650.3684L13976.5954,-3650.3776L13976.6073,-3650.3914L13976.6165,-3650.4021L13976.6469,-3650.4378L13976.648,-3650.4391L13976.6537,-3650.4457L13976.6555,-3650.4479L13976.664,-3650.4578L13976.6744,-3650.4708L13976.6777,-3650.475L13976.6802,-3650.4781L13976.6831,-3650.4819L13976.7071,-3650.5135L13976.7351,-3650.5487L13976.7505,-3650.5712L13976.7635,-3650.5896L13976.7713,-3650.6004L13976.7742,-3650.6044L13976.7786,-3650.6114L13976.7812,-3650.6156L13976.7888,-3650.6279L13976.7893,-3650.6287L13976.7907,-3650.631L13976.7975,-3650.6429L13976.7982,-3650.6442L13976.8066,-3650.659"/>
<path content="1,JRバス関東（株）,那須塩原リゾートエクスプレス,4.0,4.0,4.0," xlink:title="1" d="M13976.8066,-3650.659L13976.7982,-3650.6442L13976.7975,-3650.6429L13976.7907,-3650.631L13976.7893,-3650.6287L13976.7888,-3650.6279L13976.7812,-3650.6156L13976.7786,-3650.6114L13976.7742,-3650.6044L13976.7713,-3650.6004L13976.7635,-3650.5896L13976.7505,-3650.5712L13976.7351,-3650.5487L13976.7071,-3650.5135L13976.6831,-3650.4819L13976.6802,-3650.4781L13976.6777,-3650.475L13976.6744,-3650.4708L13976.664,-3650.4578L13976.6555,-3650.4479L13976.6537,-3650.4457L13976.648,-3650.4391L13976.6469,-3650.4378L13976.6165,-3650.4021L13976.6073,-3650.3914L13976.5954,-3650.3776L13976.5868,-3650.3684L13976.5795,-3650.3605L13976.5616,-3650.3438L13976.5428,-3650.3242L13976.5328,-3650.3137L13976.5211,-3650.3019L13976.4796,-3650.2629L13976.4507,-3650.2356L13976.4479,-3650.2332L13976.4466,-3650.2321L13976.4432,-3650.2291L13976.4165,-3650.2075"/>
<path content="1,京浜急行バス（株）,ノクターン号,3.4,4.0,4.0," xlink:title="1" d="M13976.4165,-3650.2075L13976.4432,-3650.2291L13976.4466,-3650.2321L13976.4479,-3650.2332L13976.4507,-3650.2356L13976.4796,-3650.2629L13976.5211,-3650.3019L13976.5328,-3650.3137L13976.5428,-3650.3242L13976.5616,-3650.3438L13976.5795,-3650.3605L13976.5868,-3650.3684L13976.5954,-3650.3776L13976.6073,-3650.3914L13976.6165,-3650.4021L13976.6469,-3650.4378L13976.648,-3650.4391L13976.6537,-3650.4457L13976.6555,-3650.4479L13976.664,-3650.4578L13976.6744,-3650.4708L13976.6777,-3650.475L13976.6802,-3650.4781L13976.6831,-3650.4819L13976.7071,-3650.5135L13976.7351,-3650.5487L13976.7505,-3650.5712L13976.7635,-3650.5896L13976.7713,-3650.6004L13976.7742,-3650.6044L13976.7786,-3650.6114L13976.7812,-3650.6156L13976.7888,-3650.6279L13976.7893,-3650.6287L13976.7907,-3650.631L13976.7975,-3650.6429L13976.7982,-3650.6442L13976.8066,-3650.659"/>
<path content="1,京浜急行バス（株）,ビーム号,1.0,1.0,1.0," xlink:title="1" d="M13976.8066,-3650.659L13976.7982,-3650.6442L13976.7975,-3650.6429L13976.7907,-3650.631L13976.7893,-3650.6287L13976.7888,-3650.6279L13976.7812,-3650.6156L13976.7786,-3650.6114L13976.7742,-3650.6044L13976.7713,-3650.6004L13976.7635,-3650.5896L13976.7505,-3650.5712L13976.7351,-3650.5487L13976.7071,-3650.5135L13976.6831,-3650.4819L13976.6802,-3650.4781L13976.6777,-3650.475L13976.6744,-3650.4708L13976.664,-3650.4578L13976.6555,-3650.4479L13976.6537,-3650.4457L13976.648,-3650.4391L13976.6469,-3650.4378L13976.6165,-3650.4021L13976.6073,-3650.3914L13976.5954,-3650.3776L13976.5868,-3650.3684L13976.5795,-3650.3605L13976.5616,-3650.3438L13976.5428,-3650.3242L13976.5328,-3650.3137L13976.5211,-3650.3019L13976.4796,-3650.2629L13976.4507,-3650.2356L13976.4479,-3650.2332L13976.4466,-3650.2321L13976.4432,-3650.2291L13976.4165,-3650.2075"/>
<path content="1,京王バス南（株）,新宿・渋谷～仙台・石巻線,1.0,1.0,1.0," xlink:title="1" d="M13976.4165,-3650.2075L13976.4432,-3650.2291L13976.4466,-3650.2321L13976.4479,-3650.2332L13976.4507,-3650.2356L13976.4796,-3650.2629L13976.5211,-3650.3019L13976.5328,-3650.3137L13976.5428,-3650.3242L13976.5616,-3650.3438L13976.5795,-3650.3605L13976.5868,-3650.3684L13976.5954,-3650.3776L13976.6073,-3650.3914L13976.6165,-3650.4021L13976.6469,-3650.4378L13976.648,-3650.4391L13976.6537,-3650.4457L13976.6555,-3650.4479L13976.664,-3650.4578L13976.6744,-3650.4708L13976.6777,-3650.475L13976.6802,-3650.4781L13976.6831,-3650.4819L13976.7071,-3650.5135L13976.7351,-3650.5487L13976.7505,-3650.5712L13976.7635,-3650.5896L13976.7713,-3650.6004L13976.7742,-3650.6044L13976.7786,-3650.6114L13976.7812,-3650.6156L13976.7888,-3650.6279L13976.7893,-3650.6287L13976.7907,-3650.631L13976.7975,-3650.6429L13976.7982,-3650.6442L13976.8066,-3650.659"/>
<path content="1,会津乗合自動車,夢街道会津号,5.0,5.0,5.0," xlink:title="1" d="M13976.4165,-3650.2075L13976.4432,-3650.2291L13976.4466,-3650.2321L13976.4479,-3650.2332L13976.4507,-3650.2356L13976.4796,-3650.2629L13976.5211,-3650.3019L13976.5328,-3650.3137L13976.5428,-3650.3242L13976.5616,-3650.3438L13976.5795,-3650.3605L13976.5868,-3650.3684L13976.5954,-3650.3776L13976.6073,-3650.3914L13976.6165,-3650.4021L13976.6469,-3650.4378L13976.648,-3650.4391L13976.6537,-3650.4457L13976.6555,-3650.4479L13976.664,-3650.4578L13976.6744,-3650.4708L13976.6777,-3650.475L13976.6802,-3650.4781L13976.6831,-3650.4819L13976.7071,-3650.5135L13976.7351,-3650.5487L13976.7505,-3650.5712L13976.7635,-3650.5896L13976.7713,-3650.6004L13976.7742,-3650.6044L13976.7786,-3650.6114L13976.7812,-3650.6156L13976.7888,-3650.6279L13976.7893,-3650.6287L13976.7907,-3650.631L13976.7975,-3650.6429L13976.7982,-3650.6442L13976.8066,-3650.659"/>
<path content="1,十和田観光電鉄（株）,シリウス号,1.0,1.0,1.0," xlink:title="1" d="M13976.8066,-3650.659L13976.7982,-3650.6442L13976.7975,-3650.6429L13976.7907,-3650.631L13976.7893,-3650.6287L13976.7888,-3650.6279L13976.7812,-3650.6156L13976.7786,-3650.6114L13976.7742,-3650.6044L13976.7713,-3650.6004L13976.7635,-3650.5896L13976.7505,-3650.5712L13976.7351,-3650.5487L13976.7071,-3650.5135L13976.6831,-3650.4819L13976.6802,-3650.4781L13976.6777,-3650.475L13976.6744,-3650.4708L13976.664,-3650.4578L13976.6555,-3650.4479L13976.6537,-3650.4457L13976.648,-3650.4391L13976.6469,-3650.4378L13976.6165,-3650.4021L13976.6073,-3650.3914L13976.5954,-3650.3776L13976.5868,-3650.3684L13976.5795,-3650.3605L13976.5616,-3650.3438L13976.5428,-3650.3242L13976.5328,-3650.3137L13976.5211,-3650.3019L13976.4796,-3650.2629L13976.4507,-3650.2356L13976.4479,-3650.2332L13976.4466,-3650.2321L13976.4432,-3650.2291L13976.4165,-3650.2075"/>
<path content="1,千葉交通,マロニエ号,5.0,5.0,5.0," xlink:title="1" d="M13976.4165,-3650.2075L13976.4432,-3650.2291L13976.4466,-3650.2321L13976.4479,-3650.2332L13976.4507,-3650.2356L13976.4796,-3650.2629L13976.5211,-3650.3019L13976.5328,-3650.3137L13976.5428,-3650.3242L13976.5616,-3650.3438L13976.5795,-3650.3605L13976.5868,-3650.3684L13976.5954,-3650.3776L13976.6073,-3650.3914L13976.6165,-3650.4021L13976.6469,-3650.4378L13976.648,-3650.4391L13976.6537,-3650.4457L13976.6555,-3650.4479L13976.664,-3650.4578L13976.6744,-3650.4708L13976.6777,-3650.475L13976.6802,-3650.4781L13976.6831,-3650.4819L13976.7071,-3650.5135L13976.7351,-3650.5487L13976.7505,-3650.5712L13976.7635,-3650.5896L13976.7713,-3650.6004L13976.7742,-3650.6044L13976.7786,-3650.6114L13976.7812,-3650.6156L13976.7888,-3650.6279L13976.7893,-3650.6287L13976.7907,-3650.631L13976.7975,-3650.6429L13976.7982,-3650.6442L13976.8066,-3650.659"/>
<path content="1,千葉交通,福島・郡山～成田空港線,2.0,2.0,2.0," xlink:title="1" d="M13976.8066,-3650.659L13976.7982,-3650.6442L13976.7975,-3650.6429L13976.7907,-3650.631L13976.7893,-3650.6287L13976.7888,-3650.6279L13976.7812,-3650.6156L13976.7786,-3650.6114L13976.7742,-3650.6044L13976.7713,-3650.6004L13976.7635,-3650.5896L13976.7505,-3650.5712L13976.7351,-3650.5487L13976.7071,-3650.5135L13976.6831,-3650.4819L13976.6802,-3650.4781L13976.6777,-3650.475L13976.6744,-3650.4708L13976.664,-3650.4578L13976.6555,-3650.4479L13976.6537,-3650.4457L13976.648,-3650.4391L13976.6469,-3650.4378L13976.6165,-3650.4021L13976.6073,-3650.3914L13976.5954,-3650.3776L13976.5868,-3650.3684L13976.5795,-3650.3605L13976.5616,-3650.3438L13976.5428,-3650.3242L13976.5328,-3650.3137L13976.5211,-3650.3019L13976.4796,-3650.2629L13976.4507,-3650.2356L13976.4479,-3650.2332L13976.4466,-3650.2321L13976.4432,-3650.2291L13976.4165,-3650.2075"/>
<path content="1,名鉄バス（株）,名古屋～仙台,1.0,1.0,1.0," xlink:title="1" d="M13976.8066,-3650.659L13976.7907,-3650.6309L13976.7812,-3650.6156L13976.7742,-3650.6044L13976.7635,-3650.5896L13976.7505,-3650.5712L13976.7351,-3650.5487L13976.7071,-3650.5135L13976.6831,-3650.4817L13976.664,-3650.4578L13976.648,-3650.4391L13976.6165,-3650.4021L13976.5954,-3650.3776L13976.5795,-3650.3605L13976.5616,-3650.3438L13976.5328,-3650.3137L13976.5211,-3650.3019L13976.4507,-3650.2356L13976.443,-3650.2289L13976.4166,-3650.2075"/>
<path content="1,国際興業（株）,けせんライナー,1.0,1.0,1.0," xlink:title="1" d="M13976.4165,-3650.2075L13976.4432,-3650.2291L13976.4466,-3650.2321L13976.4479,-3650.2332L13976.4507,-3650.2356L13976.4796,-3650.2629L13976.5211,-3650.3019L13976.5328,-3650.3137L13976.5428,-3650.3242L13976.5616,-3650.3438L13976.5795,-3650.3605L13976.5868,-3650.3684L13976.5954,-3650.3776L13976.6073,-3650.3914L13976.6165,-3650.4021L13976.6469,-3650.4378L13976.648,-3650.4391L13976.6537,-3650.4457L13976.6555,-3650.4479L13976.664,-3650.4578L13976.6744,-3650.4708L13976.6777,-3650.475L13976.6802,-3650.4781L13976.6831,-3650.4819L13976.7071,-3650.5135L13976.7351,-3650.5487L13976.7505,-3650.5712L13976.7635,-3650.5896L13976.7713,-3650.6004L13976.7742,-3650.6044L13976.7786,-3650.6114L13976.7812,-3650.6156L13976.7888,-3650.6279L13976.7893,-3650.6287L13976.7907,-3650.631L13976.7975,-3650.6429L13976.7982,-3650.6442L13976.8066,-3650.659"/>
<path content="1,国際興業（株）,イーハトープ号,1.0,1.0,1.0," xlink:title="1" d="M13976.4165,-3650.2075L13976.4432,-3650.2291L13976.4466,-3650.2321L13976.4479,-3650.2332L13976.4507,-3650.2356L13976.4796,-3650.2629L13976.5211,-3650.3019L13976.5328,-3650.3137L13976.5428,-3650.3242L13976.5616,-3650.3438L13976.5795,-3650.3605L13976.5868,-3650.3684L13976.5954,-3650.3776L13976.6073,-3650.3914L13976.6165,-3650.4021L13976.6469,-3650.4378L13976.648,-3650.4391L13976.6537,-3650.4457L13976.6555,-3650.4479L13976.664,-3650.4578L13976.6744,-3650.4708L13976.6777,-3650.475L13976.6802,-3650.4781L13976.6831,-3650.4819L13976.7071,-3650.5135L13976.7351,-3650.5487L13976.7505,-3650.5712L13976.7635,-3650.5896L13976.7713,-3650.6004L13976.7742,-3650.6044L13976.7786,-3650.6114L13976.7812,-3650.6156L13976.7888,-3650.6279L13976.7893,-3650.6287L13976.7907,-3650.631L13976.7975,-3650.6429L13976.7982,-3650.6442L13976.8066,-3650.659"/>
<path content="1,国際興業（株）,シリウス号,1.0,1.0,1.0," xlink:title="1" d="M13976.4165,-3650.2075L13976.4432,-3650.2291L13976.4466,-3650.2321L13976.4479,-3650.2332L13976.4507,-3650.2356L13976.4796,-3650.2629L13976.5211,-3650.3019L13976.5328,-3650.3137L13976.5428,-3650.3242L13976.5616,-3650.3438L13976.5795,-3650.3605L13976.5868,-3650.3684L13976.5954,-3650.3776L13976.6073,-3650.3914L13976.6165,-3650.4021L13976.6469,-3650.4378L13976.648,-3650.4391L13976.6537,-3650.4457L13976.6555,-3650.4479L13976.664,-3650.4578L13976.6744,-3650.4708L13976.6777,-3650.475L13976.6802,-3650.4781L13976.6831,-3650.4819L13976.7071,-3650.5135L13976.7351,-3650.5487L13976.7505,-3650.5712L13976.7635,-3650.5896L13976.7713,-3650.6004L13976.7742,-3650.6044L13976.7786,-3650.6114L13976.7812,-3650.6156L13976.7888,-3650.6279L13976.7893,-3650.6287L13976.7907,-3650.631L13976.7975,-3650.6429L13976.7982,-3650.6442L13976.8066,-3650.659"/>
<path content="1,国際興業（株）,ジュピター号,1.0,1.0,1.0," xlink:title="1" d="M13976.4165,-3650.2075L13976.4432,-3650.2291L13976.4466,-3650.2321L13976.4479,-3650.2332L13976.4507,-3650.2356L13976.4796,-3650.2629L13976.5211,-3650.3019L13976.5328,-3650.3137L13976.5428,-3650.3242L13976.5616,-3650.3438L13976.5795,-3650.3605L13976.5868,-3650.3684L13976.5954,-3650.3776L13976.6073,-3650.3914L13976.6165,-3650.4021L13976.6469,-3650.4378L13976.648,-3650.4391L13976.6537,-3650.4457L13976.6555,-3650.4479L13976.664,-3650.4578L13976.6744,-3650.4708L13976.6777,-3650.475L13976.6802,-3650.4781L13976.6831,-3650.4819L13976.7071,-3650.5135L13976.7351,-3650.5487L13976.7505,-3650.5712L13976.7635,-3650.5896L13976.7713,-3650.6004L13976.7742,-3650.6044L13976.7786,-3650.6114L13976.7812,-3650.6156L13976.7888,-3650.6279L13976.7893,-3650.6287L13976.7907,-3650.631L13976.7975,-3650.6429L13976.7982,-3650.6442L13976.8066,-3650.659"/>
<path content="1,国際興業（株）,ドリーム盛岡（らくちん）号,2.2,3.0,3.0," xlink:title="1" d="M13976.4165,-3650.2075L13976.4432,-3650.2291L13976.4466,-3650.2321L13976.4479,-3650.2332L13976.4507,-3650.2356L13976.4796,-3650.2629L13976.5211,-3650.3019L13976.5328,-3650.3137L13976.5428,-3650.3242L13976.5616,-3650.3438L13976.5795,-3650.3605L13976.5868,-3650.3684L13976.5954,-3650.3776L13976.6073,-3650.3914L13976.6165,-3650.4021L13976.6469,-3650.4378L13976.648,-3650.4391L13976.6537,-3650.4457L13976.6555,-3650.4479L13976.664,-3650.4578L13976.6744,-3650.4708L13976.6777,-3650.475L13976.6802,-3650.4781L13976.6831,-3650.4819L13976.7071,-3650.5135L13976.7351,-3650.5487L13976.7505,-3650.5712L13976.7635,-3650.5896L13976.7713,-3650.6004L13976.7742,-3650.6044L13976.7786,-3650.6114L13976.7812,-3650.6156L13976.7888,-3650.6279L13976.7893,-3650.6287L13976.7907,-3650.631L13976.7975,-3650.6429L13976.7982,-3650.6442L13976.8066,-3650.659"/>
<path content="1,国際興業（株）,夕陽号,2.0,2.0,2.0," xlink:title="1" d="M13976.4165,-3650.2075L13976.4432,-3650.2291L13976.4466,-3650.2321L13976.4479,-3650.2332L13976.4507,-3650.2356L13976.4796,-3650.2629L13976.5211,-3650.3019L13976.5328,-3650.3137L13976.5428,-3650.3242L13976.5616,-3650.3438L13976.5795,-3650.3605L13976.5868,-3650.3684L13976.5954,-3650.3776L13976.6073,-3650.3914L13976.6165,-3650.4021L13976.6469,-3650.4378L13976.648,-3650.4391L13976.6537,-3650.4457L13976.6555,-3650.4479L13976.664,-3650.4578L13976.6744,-3650.4708L13976.6777,-3650.475L13976.6802,-3650.4781L13976.6831,-3650.4819L13976.7071,-3650.5135L13976.7351,-3650.5487L13976.7505,-3650.5712L13976.7635,-3650.5896L13976.7713,-3650.6004L13976.7742,-3650.6044L13976.7786,-3650.6114L13976.7812,-3650.6156L13976.7888,-3650.6279L13976.7893,-3650.6287L13976.7907,-3650.631L13976.7975,-3650.6429L13976.7982,-3650.6442L13976.8066,-3650.659"/>
<path content="1,国際興業（株）,遠野・釜石号,1.0,1.0,1.0," xlink:title="1" d="M13976.4165,-3650.2075L13976.4432,-3650.2291L13976.4466,-3650.2321L13976.4479,-3650.2332L13976.4507,-3650.2356L13976.4796,-3650.2629L13976.5211,-3650.3019L13976.5328,-3650.3137L13976.5428,-3650.3242L13976.5616,-3650.3438L13976.5795,-3650.3605L13976.5868,-3650.3684L13976.5954,-3650.3776L13976.6073,-3650.3914L13976.6165,-3650.4021L13976.6469,-3650.4378L13976.648,-3650.4391L13976.6537,-3650.4457L13976.6555,-3650.4479L13976.664,-3650.4578L13976.6744,-3650.4708L13976.6777,-3650.475L13976.6802,-3650.4781L13976.6831,-3650.4819L13976.7071,-3650.5135L13976.7351,-3650.5487L13976.7505,-3650.5712L13976.7635,-3650.5896L13976.7713,-3650.6004L13976.7742,-3650.6044L13976.7786,-3650.6114L13976.7812,-3650.6156L13976.7888,-3650.6279L13976.7893,-3650.6287L13976.7907,-3650.631L13976.7975,-3650.6429L13976.7982,-3650.6442L13976.8066,-3650.659"/>
<path content="1,宮城交通（株）,仙台～名古屋線,1.0,1.0,1.0," xlink:title="1" d="M13976.4165,-3650.2075L13976.4432,-3650.2291L13976.4466,-3650.2321L13976.4479,-3650.2332L13976.4507,-3650.2356L13976.4796,-3650.2629L13976.5211,-3650.3019L13976.5328,-3650.3137L13976.5428,-3650.3242L13976.5616,-3650.3438L13976.5795,-3650.3605L13976.5868,-3650.3684L13976.5954,-3650.3776L13976.6073,-3650.3914L13976.6165,-3650.4021L13976.6469,-3650.4378L13976.648,-3650.4391L13976.6537,-3650.4457L13976.6555,-3650.4479L13976.664,-3650.4578L13976.6744,-3650.4708L13976.6777,-3650.475L13976.6802,-3650.4781L13976.6831,-3650.4819L13976.7071,-3650.5135L13976.7351,-3650.5487L13976.7505,-3650.5712L13976.7635,-3650.5896L13976.7713,-3650.6004L13976.7742,-3650.6044L13976.7786,-3650.6114L13976.7812,-3650.6156L13976.7888,-3650.6279L13976.7893,-3650.6287L13976.7907,-3650.631L13976.7975,-3650.6429L13976.7982,-3650.6442L13976.8066,-3650.659"/>
<path content="1,宮城交通（株）,仙台～大阪線,1.0,1.0,1.0," xlink:title="1" d="M13976.8066,-3650.659L13976.7982,-3650.6442L13976.7975,-3650.6429L13976.7907,-3650.631L13976.7893,-3650.6287L13976.7888,-3650.6279L13976.7812,-3650.6156L13976.7786,-3650.6114L13976.7742,-3650.6044L13976.7713,-3650.6004L13976.7635,-3650.5896L13976.7505,-3650.5712L13976.7351,-3650.5487L13976.7071,-3650.5135L13976.6831,-3650.4819L13976.6802,-3650.4781L13976.6777,-3650.475L13976.6744,-3650.4708L13976.664,-3650.4578L13976.6555,-3650.4479L13976.6537,-3650.4457L13976.648,-3650.4391L13976.6469,-3650.4378L13976.6165,-3650.4021L13976.6073,-3650.3914L13976.5954,-3650.3776L13976.5868,-3650.3684L13976.5795,-3650.3605L13976.5616,-3650.3438L13976.5428,-3650.3242L13976.5328,-3650.3137L13976.5211,-3650.3019L13976.4796,-3650.2629L13976.4507,-3650.2356L13976.4479,-3650.2332L13976.4466,-3650.2321L13976.4432,-3650.2291L13976.4165,-3650.2075"/>
<path content="1,宮城交通（株）,広瀬ライナー,1.0,1.0,1.0," xlink:title="1" d="M13976.4165,-3650.2075L13976.4432,-3650.2291L13976.4466,-3650.2321L13976.4479,-3650.2332L13976.4507,-3650.2356L13976.4796,-3650.2629L13976.5211,-3650.3019L13976.5328,-3650.3137L13976.5428,-3650.3242L13976.5616,-3650.3438L13976.5795,-3650.3605L13976.5868,-3650.3684L13976.5954,-3650.3776L13976.6073,-3650.3914L13976.6165,-3650.4021L13976.6469,-3650.4378L13976.648,-3650.4391L13976.6537,-3650.4457L13976.6555,-3650.4479L13976.664,-3650.4578L13976.6744,-3650.4708L13976.6777,-3650.475L13976.6802,-3650.4781L13976.6831,-3650.4819L13976.7071,-3650.5135L13976.7351,-3650.5487L13976.7505,-3650.5712L13976.7635,-3650.5896L13976.7713,-3650.6004L13976.7742,-3650.6044L13976.7786,-3650.6114L13976.7812,-3650.6156L13976.7888,-3650.6279L13976.7893,-3650.6287L13976.7907,-3650.631L13976.7975,-3650.6429L13976.7982,-3650.6442L13976.8066,-3650.659"/>
<path content="1,小田急シティバス（株）,フローラ号,1.0,1.0,1.0," xlink:title="1" d="M13976.4165,-3650.2075L13976.4432,-3650.2291L13976.4466,-3650.2321L13976.4479,-3650.2332L13976.4507,-3650.2356L13976.4796,-3650.2629L13976.5211,-3650.3019L13976.5328,-3650.3137L13976.5428,-3650.3242L13976.5616,-3650.3438L13976.5795,-3650.3605L13976.5868,-3650.3684L13976.5954,-3650.3776L13976.6073,-3650.3914L13976.6165,-3650.4021L13976.6469,-3650.4378L13976.648,-3650.4391L13976.6537,-3650.4457L13976.6555,-3650.4479L13976.664,-3650.4578L13976.6744,-3650.4708L13976.6777,-3650.475L13976.6802,-3650.4781L13976.6831,-3650.4819L13976.7071,-3650.5135L13976.7351,-3650.5487L13976.7505,-3650.5712L13976.7635,-3650.5896L13976.7713,-3650.6004L13976.7742,-3650.6044L13976.7786,-3650.6114L13976.7812,-3650.6156L13976.7888,-3650.6279L13976.7893,-3650.6287L13976.7907,-3650.631L13976.7975,-3650.6429L13976.7982,-3650.6442L13976.8066,-3650.659"/>
<path content="1,小田急バス（株）,フローラ号,1.0,1.0,1.0," xlink:title="1" d="M13976.4165,-3650.2075L13976.4432,-3650.2291L13976.4466,-3650.2321L13976.4479,-3650.2332L13976.4507,-3650.2356L13976.4796,-3650.2629L13976.5211,-3650.3019L13976.5328,-3650.3137L13976.5428,-3650.3242L13976.5616,-3650.3438L13976.5795,-3650.3605L13976.5868,-3650.3684L13976.5954,-3650.3776L13976.6073,-3650.3914L13976.6165,-3650.4021L13976.6469,-3650.4378L13976.648,-3650.4391L13976.6537,-3650.4457L13976.6555,-3650.4479L13976.664,-3650.4578L13976.6744,-3650.4708L13976.6777,-3650.475L13976.6802,-3650.4781L13976.6831,-3650.4819L13976.7071,-3650.5135L13976.7351,-3650.5487L13976.7505,-3650.5712L13976.7635,-3650.5896L13976.7713,-3650.6004L13976.7742,-3650.6044L13976.7786,-3650.6114L13976.7812,-3650.6156L13976.7888,-3650.6279L13976.7893,-3650.6287L13976.7907,-3650.631L13976.7975,-3650.6429L13976.7982,-3650.6442L13976.8066,-3650.659"/>
<path content="1,山交バス（株）,TOKYOサンライズ,1.0,1.0,1.0," xlink:title="1" d="M13976.4165,-3650.2075L13976.4432,-3650.2291L13976.4466,-3650.2321L13976.4479,-3650.2332L13976.4507,-3650.2356L13976.4796,-3650.2629L13976.5211,-3650.3019L13976.5328,-3650.3137L13976.5428,-3650.3242L13976.5616,-3650.3438L13976.5795,-3650.3605L13976.5868,-3650.3684L13976.5954,-3650.3776L13976.6073,-3650.3914L13976.6165,-3650.4021L13976.6469,-3650.4378L13976.648,-3650.4391L13976.6537,-3650.4457L13976.6555,-3650.4479L13976.664,-3650.4578L13976.6744,-3650.4708L13976.6777,-3650.475L13976.6802,-3650.4781L13976.6831,-3650.4819L13976.7071,-3650.5135L13976.7351,-3650.5487L13976.7505,-3650.5712L13976.7635,-3650.5896L13976.7713,-3650.6004L13976.7742,-3650.6044L13976.7786,-3650.6114L13976.7812,-3650.6156L13976.7888,-3650.6279L13976.7893,-3650.6287L13976.7907,-3650.631L13976.7975,-3650.6429L13976.7982,-3650.6442L13976.8066,-3650.659"/>
<path content="1,岩手県交通（株）,けせんライナー,1.0,1.0,1.0," xlink:title="1" d="M13976.4165,-3650.2075L13976.4432,-3650.2291L13976.4466,-3650.2321L13976.4479,-3650.2332L13976.4507,-3650.2356L13976.4796,-3650.2629L13976.5211,-3650.3019L13976.5328,-3650.3137L13976.5428,-3650.3242L13976.5616,-3650.3438L13976.5795,-3650.3605L13976.5868,-3650.3684L13976.5954,-3650.3776L13976.6073,-3650.3914L13976.6165,-3650.4021L13976.6469,-3650.4378L13976.648,-3650.4391L13976.6537,-3650.4457L13976.6555,-3650.4479L13976.664,-3650.4578L13976.6744,-3650.4708L13976.6777,-3650.475L13976.6802,-3650.4781L13976.6831,-3650.4819L13976.7071,-3650.5135L13976.7351,-3650.5487L13976.7505,-3650.5712L13976.7635,-3650.5896L13976.7713,-3650.6004L13976.7742,-3650.6044L13976.7786,-3650.6114L13976.7812,-3650.6156L13976.7888,-3650.6279L13976.7893,-3650.6287L13976.7907,-3650.631L13976.7975,-3650.6429L13976.7982,-3650.6442L13976.8066,-3650.659"/>
<path content="1,岩手県交通（株）,イーハトーブ号,1.0,1.0,1.0," xlink:title="1" d="M13976.4165,-3650.2075L13976.4432,-3650.2291L13976.4466,-3650.2321L13976.4479,-3650.2332L13976.4507,-3650.2356L13976.4796,-3650.2629L13976.5211,-3650.3019L13976.5328,-3650.3137L13976.5428,-3650.3242L13976.5616,-3650.3438L13976.5795,-3650.3605L13976.5868,-3650.3684L13976.5954,-3650.3776L13976.6073,-3650.3914L13976.6165,-3650.4021L13976.6469,-3650.4378L13976.648,-3650.4391L13976.6537,-3650.4457L13976.6555,-3650.4479L13976.664,-3650.4578L13976.6744,-3650.4708L13976.6777,-3650.475L13976.6802,-3650.4781L13976.6831,-3650.4819L13976.7071,-3650.5135L13976.7351,-3650.5487L13976.7505,-3650.5712L13976.7635,-3650.5896L13976.7713,-3650.6004L13976.7742,-3650.6044L13976.7786,-3650.6114L13976.7812,-3650.6156L13976.7888,-3650.6279L13976.7893,-3650.6287L13976.7907,-3650.631L13976.7975,-3650.6429L13976.7982,-3650.6442L13976.8066,-3650.659"/>
<path content="1,岩手県交通（株）,ドリーム盛岡（らくちん）号,2.3,3.0,3.0," xlink:title="1" d="M13976.4165,-3650.2075L13976.4432,-3650.2291L13976.4466,-3650.2321L13976.4479,-3650.2332L13976.4507,-3650.2356L13976.4796,-3650.2629L13976.5211,-3650.3019L13976.5328,-3650.3137L13976.5428,-3650.3242L13976.5616,-3650.3438L13976.5795,-3650.3605L13976.5868,-3650.3684L13976.5954,-3650.3776L13976.6073,-3650.3914L13976.6165,-3650.4021L13976.6469,-3650.4378L13976.648,-3650.4391L13976.6537,-3650.4457L13976.6555,-3650.4479L13976.664,-3650.4578L13976.6744,-3650.4708L13976.6777,-3650.475L13976.6802,-3650.4781L13976.6831,-3650.4819L13976.7071,-3650.5135L13976.7351,-3650.5487L13976.7505,-3650.5712L13976.7635,-3650.5896L13976.7713,-3650.6004L13976.7742,-3650.6044L13976.7786,-3650.6114L13976.7812,-3650.6156L13976.7888,-3650.6279L13976.7893,-3650.6287L13976.7907,-3650.631L13976.7975,-3650.6429L13976.7982,-3650.6442L13976.8066,-3650.659"/>
<path content="1,岩手県交通（株）,盛岡・横浜線,1.0,1.0,1.0," xlink:title="1" d="M13976.4165,-3650.2075L13976.4432,-3650.2291L13976.4466,-3650.2321L13976.4479,-3650.2332L13976.4507,-3650.2356L13976.4796,-3650.2629L13976.5211,-3650.3019L13976.5328,-3650.3137L13976.5428,-3650.3242L13976.5616,-3650.3438L13976.5795,-3650.3605L13976.5868,-3650.3684L13976.5954,-3650.3776L13976.6073,-3650.3914L13976.6165,-3650.4021L13976.6469,-3650.4378L13976.648,-3650.4391L13976.6537,-3650.4457L13976.6555,-3650.4479L13976.664,-3650.4578L13976.6744,-3650.4708L13976.6777,-3650.475L13976.6802,-3650.4781L13976.6831,-3650.4819L13976.7071,-3650.5135L13976.7351,-3650.5487L13976.7505,-3650.5712L13976.7635,-3650.5896L13976.7713,-3650.6004L13976.7742,-3650.6044L13976.7786,-3650.6114L13976.7812,-3650.6156L13976.7888,-3650.6279L13976.7893,-3650.6287L13976.7907,-3650.631L13976.7975,-3650.6429L13976.7982,-3650.6442L13976.8066,-3650.659"/>
<path content="1,岩手県交通（株）,遠野・釜石号,1.0,1.0,1.0," xlink:title="1" d="M13976.4165,-3650.2075L13976.4432,-3650.2291L13976.4466,-3650.2321L13976.4479,-3650.2332L13976.4507,-3650.2356L13976.4796,-3650.2629L13976.5211,-3650.3019L13976.5328,-3650.3137L13976.5428,-3650.3242L13976.5616,-3650.3438L13976.5795,-3650.3605L13976.5868,-3650.3684L13976.5954,-3650.3776L13976.6073,-3650.3914L13976.6165,-3650.4021L13976.6469,-3650.4378L13976.648,-3650.4391L13976.6537,-3650.4457L13976.6555,-3650.4479L13976.664,-3650.4578L13976.6744,-3650.4708L13976.6777,-3650.475L13976.6802,-3650.4781L13976.6831,-3650.4819L13976.7071,-3650.5135L13976.7351,-3650.5487L13976.7505,-3650.5712L13976.7635,-3650.5896L13976.7713,-3650.6004L13976.7742,-3650.6044L13976.7786,-3650.6114L13976.7812,-3650.6156L13976.7888,-3650.6279L13976.7893,-3650.6287L13976.7907,-3650.631L13976.7975,-3650.6429L13976.7982,-3650.6442L13976.8066,-3650.659"/>
<path content="1,岩手県北自動車（株）,BEAM-1　宮古・盛岡南⇔浜松町・品川,1.0,1.0,1.0," xlink:title="1" d="M13976.4165,-3650.2075L13976.4432,-3650.2291L13976.4466,-3650.2321L13976.4479,-3650.2332L13976.4507,-3650.2356L13976.4796,-3650.2629L13976.5211,-3650.3019L13976.5328,-3650.3137L13976.5428,-3650.3242L13976.5616,-3650.3438L13976.5795,-3650.3605L13976.5868,-3650.3684L13976.5954,-3650.3776L13976.6073,-3650.3914L13976.6165,-3650.4021L13976.6469,-3650.4378L13976.648,-3650.4391L13976.6537,-3650.4457L13976.6555,-3650.4479L13976.664,-3650.4578L13976.6744,-3650.4708L13976.6777,-3650.475L13976.6802,-3650.4781L13976.6831,-3650.4819L13976.7071,-3650.5135L13976.7351,-3650.5487L13976.7505,-3650.5712L13976.7635,-3650.5896L13976.7713,-3650.6004L13976.7742,-3650.6044L13976.7786,-3650.6114L13976.7812,-3650.6156L13976.7888,-3650.6279L13976.7893,-3650.6287L13976.7907,-3650.631L13976.7975,-3650.6429L13976.7982,-3650.6442L13976.8066,-3650.659"/>
<path content="1,庄内交通（株）,高速バス　上野・秋葉原・東京,1.0,1.0,1.0," xlink:title="1" d="M13976.4165,-3650.2075L13976.4432,-3650.2291L13976.4466,-3650.2321L13976.4479,-3650.2332L13976.4507,-3650.2356L13976.4796,-3650.2629L13976.5211,-3650.3019L13976.5328,-3650.3137L13976.5428,-3650.3242L13976.5616,-3650.3438L13976.5795,-3650.3605L13976.5868,-3650.3684L13976.5954,-3650.3776L13976.6073,-3650.3914L13976.6165,-3650.4021L13976.6469,-3650.4378L13976.648,-3650.4391L13976.6537,-3650.4457L13976.6555,-3650.4479L13976.664,-3650.4578L13976.6744,-3650.4708L13976.6777,-3650.475L13976.6802,-3650.4781L13976.6831,-3650.4819L13976.7071,-3650.5135L13976.7351,-3650.5487L13976.7505,-3650.5712L13976.7635,-3650.5896L13976.7713,-3650.6004L13976.7742,-3650.6044L13976.7786,-3650.6114L13976.7812,-3650.6156L13976.7888,-3650.6279L13976.7893,-3650.6287L13976.7907,-3650.631L13976.7975,-3650.6429L13976.7982,-3650.6442L13976.8066,-3650.659"/>
<path content="1,庄内交通（株）,高速バス　酒田・鶴岡⇔大宮・池袋・渋谷,1.0,1.0,1.0," xlink:title="1" d="M13976.4165,-3650.2075L13976.4432,-3650.2291L13976.4466,-3650.2321L13976.4479,-3650.2332L13976.4507,-3650.2356L13976.4796,-3650.2629L13976.5211,-3650.3019L13976.5328,-3650.3137L13976.5428,-3650.3242L13976.5616,-3650.3438L13976.5795,-3650.3605L13976.5868,-3650.3684L13976.5954,-3650.3776L13976.6073,-3650.3914L13976.6165,-3650.4021L13976.6469,-3650.4378L13976.648,-3650.4391L13976.6537,-3650.4457L13976.6555,-3650.4479L13976.664,-3650.4578L13976.6744,-3650.4708L13976.6777,-3650.475L13976.6802,-3650.4781L13976.6831,-3650.4819L13976.7071,-3650.5135L13976.7351,-3650.5487L13976.7505,-3650.5712L13976.7635,-3650.5896L13976.7713,-3650.6004L13976.7742,-3650.6044L13976.7786,-3650.6114L13976.7812,-3650.6156L13976.7888,-3650.6279L13976.7893,-3650.6287L13976.7907,-3650.631L13976.7975,-3650.6429L13976.7982,-3650.6442L13976.8066,-3650.659"/>
<path content="1,弘南バス（株）,アップル号,1.0,1.0,1.0," xlink:title="1" d="M13976.8066,-3650.659L13976.7982,-3650.6442L13976.7975,-3650.6429L13976.7907,-3650.631L13976.7893,-3650.6287L13976.7888,-3650.6279L13976.7812,-3650.6156L13976.7786,-3650.6114L13976.7742,-3650.6044L13976.7713,-3650.6004L13976.7635,-3650.5896L13976.7505,-3650.5712L13976.7351,-3650.5487L13976.7071,-3650.5135L13976.6831,-3650.4819L13976.6802,-3650.4781L13976.6777,-3650.475L13976.6744,-3650.4708L13976.664,-3650.4578L13976.6555,-3650.4479L13976.6537,-3650.4457L13976.648,-3650.4391L13976.6469,-3650.4378L13976.6165,-3650.4021L13976.6073,-3650.3914L13976.5954,-3650.3776L13976.5868,-3650.3684L13976.5795,-3650.3605L13976.5616,-3650.3438L13976.5428,-3650.3242L13976.5328,-3650.3137L13976.5211,-3650.3019L13976.4796,-3650.2629L13976.4507,-3650.2356L13976.4479,-3650.2332L13976.4466,-3650.2321L13976.4432,-3650.2291L13976.4165,-3650.2075"/>
<path content="1,弘南バス（株）,スカイ号,1.0,1.0,1.0," xlink:title="1" d="M13976.8066,-3650.659L13976.7982,-3650.6442L13976.7975,-3650.6429L13976.7907,-3650.631L13976.7893,-3650.6287L13976.7888,-3650.6279L13976.7812,-3650.6156L13976.7786,-3650.6114L13976.7742,-3650.6044L13976.7713,-3650.6004L13976.7635,-3650.5896L13976.7505,-3650.5712L13976.7351,-3650.5487L13976.7071,-3650.5135L13976.6831,-3650.4819L13976.6802,-3650.4781L13976.6777,-3650.475L13976.6744,-3650.4708L13976.664,-3650.4578L13976.6555,-3650.4479L13976.6537,-3650.4457L13976.648,-3650.4391L13976.6469,-3650.4378L13976.6165,-3650.4021L13976.6073,-3650.3914L13976.5954,-3650.3776L13976.5868,-3650.3684L13976.5795,-3650.3605L13976.5616,-3650.3438L13976.5428,-3650.3242L13976.5328,-3650.3137L13976.5211,-3650.3019L13976.4796,-3650.2629L13976.4507,-3650.2356L13976.4479,-3650.2332L13976.4466,-3650.2321L13976.4432,-3650.2291L13976.4165,-3650.2075"/>
<path content="1,弘南バス（株）,ノクターン号,1.0,1.0,1.0," xlink:title="1" d="M13976.8066,-3650.659L13976.7982,-3650.6442L13976.7975,-3650.6429L13976.7907,-3650.631L13976.7893,-3650.6287L13976.7888,-3650.6279L13976.7812,-3650.6156L13976.7786,-3650.6114L13976.7742,-3650.6044L13976.7713,-3650.6004L13976.7635,-3650.5896L13976.7505,-3650.5712L13976.7351,-3650.5487L13976.7071,-3650.5135L13976.6831,-3650.4819L13976.6802,-3650.4781L13976.6777,-3650.475L13976.6744,-3650.4708L13976.664,-3650.4578L13976.6555,-3650.4479L13976.6537,-3650.4457L13976.648,-3650.4391L13976.6469,-3650.4378L13976.6165,-3650.4021L13976.6073,-3650.3914L13976.5954,-3650.3776L13976.5868,-3650.3684L13976.5795,-3650.3605L13976.5616,-3650.3438L13976.5428,-3650.3242L13976.5328,-3650.3137L13976.5211,-3650.3019L13976.4796,-3650.2629L13976.4507,-3650.2356L13976.4479,-3650.2332L13976.4466,-3650.2321L13976.4432,-3650.2291L13976.4165,-3650.2075"/>
<path content="1,弘南バス（株）,パンダ号,3.0,3.0,3.0," xlink:title="1" d="M13976.8066,-3650.659L13976.7982,-3650.6442L13976.7975,-3650.6429L13976.7907,-3650.631L13976.7893,-3650.6287L13976.7888,-3650.6279L13976.7812,-3650.6156L13976.7786,-3650.6114L13976.7742,-3650.6044L13976.7713,-3650.6004L13976.7635,-3650.5896L13976.7505,-3650.5712L13976.7351,-3650.5487L13976.7071,-3650.5135L13976.6831,-3650.4819L13976.6802,-3650.4781L13976.6777,-3650.475L13976.6744,-3650.4708L13976.664,-3650.4578L13976.6555,-3650.4479L13976.6537,-3650.4457L13976.648,-3650.4391L13976.6469,-3650.4378L13976.6165,-3650.4021L13976.6073,-3650.3914L13976.5954,-3650.3776L13976.5868,-3650.3684L13976.5795,-3650.3605L13976.5616,-3650.3438L13976.5428,-3650.3242L13976.5328,-3650.3137L13976.5211,-3650.3019L13976.4796,-3650.2629L13976.4507,-3650.2356L13976.4479,-3650.2332L13976.4466,-3650.2321L13976.4432,-3650.2291L13976.4165,-3650.2075"/>
<path content="1,弘南バス（株）,津軽号,1.0,1.0,1.0," xlink:title="1" d="M13976.4165,-3650.2075L13976.4432,-3650.2291L13976.4466,-3650.2321L13976.4479,-3650.2332L13976.4507,-3650.2356L13976.4796,-3650.2629L13976.5211,-3650.3019L13976.5328,-3650.3137L13976.5428,-3650.3242L13976.5616,-3650.3438L13976.5795,-3650.3605L13976.5868,-3650.3684L13976.5954,-3650.3776L13976.6073,-3650.3914L13976.6165,-3650.4021L13976.6469,-3650.4378L13976.648,-3650.4391L13976.6537,-3650.4457L13976.6555,-3650.4479L13976.664,-3650.4578L13976.6744,-3650.4708L13976.6777,-3650.475L13976.6802,-3650.4781L13976.6831,-3650.4819L13976.7071,-3650.5135L13976.7351,-3650.5487L13976.7505,-3650.5712L13976.7635,-3650.5896L13976.7713,-3650.6004L13976.7742,-3650.6044L13976.7786,-3650.6114L13976.7812,-3650.6156L13976.7888,-3650.6279L13976.7893,-3650.6287L13976.7907,-3650.631L13976.7975,-3650.6429L13976.7982,-3650.6442L13976.8066,-3650.659"/>
<path content="1,日本中央バス（株）,ミリオンライナー,2.0,2.0,2.0," xlink:title="1" d="M13976.4165,-3650.2075L13976.4432,-3650.2291L13976.4466,-3650.2321L13976.4479,-3650.2332L13976.4507,-3650.2356L13976.4796,-3650.2629L13976.5211,-3650.3019L13976.5328,-3650.3137L13976.5428,-3650.3242L13976.5616,-3650.3438L13976.5795,-3650.3605L13976.5868,-3650.3684L13976.5954,-3650.3776L13976.6073,-3650.3914L13976.6165,-3650.4021L13976.6469,-3650.4378L13976.648,-3650.4391L13976.6537,-3650.4457L13976.6555,-3650.4479L13976.664,-3650.4578L13976.6744,-3650.4708L13976.6777,-3650.475L13976.6802,-3650.4781L13976.6831,-3650.4819L13976.7071,-3650.5135L13976.7351,-3650.5487L13976.7505,-3650.5712L13976.7635,-3650.5896L13976.7713,-3650.6004L13976.7742,-3650.6044L13976.7786,-3650.6114L13976.7812,-3650.6156L13976.7888,-3650.6279L13976.7893,-3650.6287L13976.7907,-3650.631L13976.7975,-3650.6429L13976.7982,-3650.6442L13976.8066,-3650.659"/>
<path content="1,日本中央バス（株）,仙台ライナー,1.0,1.0,1.0," xlink:title="1" d="M13976.4165,-3650.2075L13976.4432,-3650.2291L13976.4466,-3650.2321L13976.4479,-3650.2332L13976.4507,-3650.2356L13976.4796,-3650.2629L13976.5211,-3650.3019L13976.5328,-3650.3137L13976.5428,-3650.3242L13976.5616,-3650.3438L13976.5795,-3650.3605L13976.5868,-3650.3684L13976.5954,-3650.3776L13976.6073,-3650.3914L13976.6165,-3650.4021L13976.6469,-3650.4378L13976.648,-3650.4391L13976.6537,-3650.4457L13976.6555,-3650.4479L13976.664,-3650.4578L13976.6744,-3650.4708L13976.6777,-3650.475L13976.6802,-3650.4781L13976.6831,-3650.4819L13976.7071,-3650.5135L13976.7351,-3650.5487L13976.7505,-3650.5712L13976.7635,-3650.5896L13976.7713,-3650.6004L13976.7742,-3650.6044L13976.7786,-3650.6114L13976.7812,-3650.6156L13976.7888,-3650.6279L13976.7893,-3650.6287L13976.7907,-3650.631L13976.7975,-3650.6429L13976.7982,-3650.6442L13976.8066,-3650.659"/>
<path content="1,日本中央バス（株）,北関東ライナー宇都宮号,4.0,4.0,4.0," xlink:title="1" d="M13976.4165,-3650.2075L13976.4432,-3650.2291L13976.4466,-3650.2321L13976.4479,-3650.2332L13976.4507,-3650.2356L13976.4796,-3650.2629L13976.5211,-3650.3019L13976.5328,-3650.3137L13976.5428,-3650.3242L13976.5616,-3650.3438L13976.5795,-3650.3605L13976.5868,-3650.3684L13976.5954,-3650.3776L13976.6073,-3650.3914L13976.6165,-3650.4021L13976.6469,-3650.4378L13976.648,-3650.4391L13976.6537,-3650.4457L13976.6555,-3650.4479L13976.664,-3650.4578L13976.6744,-3650.4708L13976.6777,-3650.475L13976.6802,-3650.4781L13976.6831,-3650.4819L13976.7071,-3650.5135L13976.7351,-3650.5487L13976.7505,-3650.5712L13976.7635,-3650.5896L13976.7713,-3650.6004L13976.7742,-3650.6044L13976.7786,-3650.6114L13976.7812,-3650.6156L13976.7888,-3650.6279L13976.7893,-3650.6287L13976.7907,-3650.631L13976.7975,-3650.6429L13976.7982,-3650.6442L13976.8066,-3650.659"/>
<path content="1,東京空港交通（株）,黒磯・宇都宮・佐野エリア～羽田空港線,3.0,3.0,3.0," xlink:title="1" d="M13976.4165,-3650.2075L13976.4432,-3650.2291L13976.4466,-3650.2321L13976.4479,-3650.2332L13976.4507,-3650.2356L13976.4796,-3650.2629L13976.5211,-3650.3019L13976.5328,-3650.3137L13976.5428,-3650.3242L13976.5616,-3650.3438L13976.5795,-3650.3605L13976.5868,-3650.3684L13976.5954,-3650.3776L13976.6073,-3650.3914L13976.6165,-3650.4021L13976.6469,-3650.4378L13976.648,-3650.4391L13976.6537,-3650.4457L13976.6555,-3650.4479L13976.664,-3650.4578L13976.6744,-3650.4708L13976.6777,-3650.475L13976.6802,-3650.4781L13976.6831,-3650.4819L13976.7071,-3650.5135L13976.7351,-3650.5487L13976.7505,-3650.5712L13976.7635,-3650.5896L13976.7713,-3650.6004L13976.7742,-3650.6044L13976.7786,-3650.6114L13976.7812,-3650.6156L13976.7888,-3650.6279L13976.7893,-3650.6287L13976.7907,-3650.631L13976.7975,-3650.6429L13976.7982,-3650.6442L13976.8066,-3650.659"/>
<path content="1,東北急行バス（株）,TOKYOサンライズ号,1.0,1.0,1.0," xlink:title="1" d="M13976.4165,-3650.2075L13976.4432,-3650.2291L13976.4466,-3650.2321L13976.4479,-3650.2332L13976.4507,-3650.2356L13976.4796,-3650.2629L13976.5211,-3650.3019L13976.5328,-3650.3137L13976.5428,-3650.3242L13976.5616,-3650.3438L13976.5795,-3650.3605L13976.5868,-3650.3684L13976.5954,-3650.3776L13976.6073,-3650.3914L13976.6165,-3650.4021L13976.6469,-3650.4378L13976.648,-3650.4391L13976.6537,-3650.4457L13976.6555,-3650.4479L13976.664,-3650.4578L13976.6744,-3650.4708L13976.6777,-3650.475L13976.6802,-3650.4781L13976.6831,-3650.4819L13976.7071,-3650.5135L13976.7351,-3650.5487L13976.7505,-3650.5712L13976.7635,-3650.5896L13976.7713,-3650.6004L13976.7742,-3650.6044L13976.7786,-3650.6114L13976.7812,-3650.6156L13976.7888,-3650.6279L13976.7893,-3650.6287L13976.7907,-3650.631L13976.7975,-3650.6429L13976.7982,-3650.6442L13976.8066,-3650.659"/>
<path content="1,東北急行バス（株）,エススター号,0.1,0.5,0.0," xlink:title="1" d="M13976.4165,-3650.2075L13976.4432,-3650.2291L13976.4466,-3650.2321L13976.4479,-3650.2332L13976.4507,-3650.2356L13976.4796,-3650.2629L13976.5211,-3650.3019L13976.5328,-3650.3137L13976.5428,-3650.3242L13976.5616,-3650.3438L13976.5795,-3650.3605L13976.5868,-3650.3684L13976.5954,-3650.3776L13976.6073,-3650.3914L13976.6165,-3650.4021L13976.6469,-3650.4378L13976.648,-3650.4391L13976.6537,-3650.4457L13976.6555,-3650.4479L13976.664,-3650.4578L13976.6744,-3650.4708L13976.6777,-3650.475L13976.6802,-3650.4781L13976.6831,-3650.4819L13976.7071,-3650.5135L13976.7351,-3650.5487L13976.7505,-3650.5712L13976.7635,-3650.5896L13976.7713,-3650.6004L13976.7742,-3650.6044L13976.7786,-3650.6114L13976.7812,-3650.6156L13976.7888,-3650.6279L13976.7893,-3650.6287L13976.7907,-3650.631L13976.7975,-3650.6429L13976.7982,-3650.6442L13976.8066,-3650.659"/>
<path content="1,東北急行バス（株）,スイート号,0.2,1.0,1.0," xlink:title="1" d="M13976.8066,-3650.659L13976.7982,-3650.6442L13976.7975,-3650.6429L13976.7907,-3650.631L13976.7893,-3650.6287L13976.7888,-3650.6279L13976.7812,-3650.6156L13976.7786,-3650.6114L13976.7742,-3650.6044L13976.7713,-3650.6004L13976.7635,-3650.5896L13976.7505,-3650.5712L13976.7351,-3650.5487L13976.7071,-3650.5135L13976.6831,-3650.4819L13976.6802,-3650.4781L13976.6777,-3650.475L13976.6744,-3650.4708L13976.664,-3650.4578L13976.6555,-3650.4479L13976.6537,-3650.4457L13976.648,-3650.4391L13976.6469,-3650.4378L13976.6165,-3650.4021L13976.6073,-3650.3914L13976.5954,-3650.3776L13976.5868,-3650.3684L13976.5795,-3650.3605L13976.5616,-3650.3438L13976.5428,-3650.3242L13976.5328,-3650.3137L13976.5211,-3650.3019L13976.4796,-3650.2629L13976.4507,-3650.2356L13976.4479,-3650.2332L13976.4466,-3650.2321L13976.4432,-3650.2291L13976.4165,-3650.2075"/>
<path content="1,東北急行バス（株）,スーパーレインボー号,0.1,0.0,0.0," xlink:title="1" d="M13976.4165,-3650.2075L13976.4432,-3650.2291L13976.4466,-3650.2321L13976.4479,-3650.2332L13976.4507,-3650.2356L13976.4796,-3650.2629L13976.5211,-3650.3019L13976.5328,-3650.3137L13976.5428,-3650.3242L13976.5616,-3650.3438L13976.5795,-3650.3605L13976.5868,-3650.3684L13976.5954,-3650.3776L13976.6073,-3650.3914L13976.6165,-3650.4021L13976.6469,-3650.4378L13976.648,-3650.4391L13976.6537,-3650.4457L13976.6555,-3650.4479L13976.664,-3650.4578L13976.6744,-3650.4708L13976.6777,-3650.475L13976.6802,-3650.4781L13976.6831,-3650.4819L13976.7071,-3650.5135L13976.7351,-3650.5487L13976.7505,-3650.5712L13976.7635,-3650.5896L13976.7713,-3650.6004L13976.7742,-3650.6044L13976.7786,-3650.6114L13976.7812,-3650.6156L13976.7888,-3650.6279L13976.7893,-3650.6287L13976.7907,-3650.631L13976.7975,-3650.6429L13976.7982,-3650.6442L13976.8066,-3650.659"/>
<path content="1,東北急行バス（株）,ニュースター号,2.0,2.0,2.0," xlink:title="1" d="M13976.4165,-3650.2075L13976.4432,-3650.2291L13976.4466,-3650.2321L13976.4479,-3650.2332L13976.4507,-3650.2356L13976.4796,-3650.2629L13976.5211,-3650.3019L13976.5328,-3650.3137L13976.5428,-3650.3242L13976.5616,-3650.3438L13976.5795,-3650.3605L13976.5868,-3650.3684L13976.5954,-3650.3776L13976.6073,-3650.3914L13976.6165,-3650.4021L13976.6469,-3650.4378L13976.648,-3650.4391L13976.6537,-3650.4457L13976.6555,-3650.4479L13976.664,-3650.4578L13976.6744,-3650.4708L13976.6777,-3650.475L13976.6802,-3650.4781L13976.6831,-3650.4819L13976.7071,-3650.5135L13976.7351,-3650.5487L13976.7505,-3650.5712L13976.7635,-3650.5896L13976.7713,-3650.6004L13976.7742,-3650.6044L13976.7786,-3650.6114L13976.7812,-3650.6156L13976.7888,-3650.6279L13976.7893,-3650.6287L13976.7907,-3650.631L13976.7975,-3650.6429L13976.7982,-3650.6442L13976.8066,-3650.659"/>
<path content="1,東北急行バス（株）,ホリデースター号,0.2,1.0,1.0," xlink:title="1" d="M13976.4165,-3650.2075L13976.4432,-3650.2291L13976.4466,-3650.2321L13976.4479,-3650.2332L13976.4507,-3650.2356L13976.4796,-3650.2629L13976.5211,-3650.3019L13976.5328,-3650.3137L13976.5428,-3650.3242L13976.5616,-3650.3438L13976.5795,-3650.3605L13976.5868,-3650.3684L13976.5954,-3650.3776L13976.6073,-3650.3914L13976.6165,-3650.4021L13976.6469,-3650.4378L13976.648,-3650.4391L13976.6537,-3650.4457L13976.6555,-3650.4479L13976.664,-3650.4578L13976.6744,-3650.4708L13976.6777,-3650.475L13976.6802,-3650.4781L13976.6831,-3650.4819L13976.7071,-3650.5135L13976.7351,-3650.5487L13976.7505,-3650.5712L13976.7635,-3650.5896L13976.7713,-3650.6004L13976.7742,-3650.6044L13976.7786,-3650.6114L13976.7812,-3650.6156L13976.7888,-3650.6279L13976.7893,-3650.6287L13976.7907,-3650.631L13976.7975,-3650.6429L13976.7982,-3650.6442L13976.8066,-3650.659"/>
<path content="1,東北急行バス（株）,レインボー号,1.0,1.0,1.0," xlink:title="1" d="M13976.4165,-3650.2075L13976.4432,-3650.2291L13976.4466,-3650.2321L13976.4479,-3650.2332L13976.4507,-3650.2356L13976.4796,-3650.2629L13976.5211,-3650.3019L13976.5328,-3650.3137L13976.5428,-3650.3242L13976.5616,-3650.3438L13976.5795,-3650.3605L13976.5868,-3650.3684L13976.5954,-3650.3776L13976.6073,-3650.3914L13976.6165,-3650.4021L13976.6469,-3650.4378L13976.648,-3650.4391L13976.6537,-3650.4457L13976.6555,-3650.4479L13976.664,-3650.4578L13976.6744,-3650.4708L13976.6777,-3650.475L13976.6802,-3650.4781L13976.6831,-3650.4819L13976.7071,-3650.5135L13976.7351,-3650.5487L13976.7505,-3650.5712L13976.7635,-3650.5896L13976.7713,-3650.6004L13976.7742,-3650.6044L13976.7786,-3650.6114L13976.7812,-3650.6156L13976.7888,-3650.6279L13976.7893,-3650.6287L13976.7907,-3650.631L13976.7975,-3650.6429L13976.7982,-3650.6442L13976.8066,-3650.659"/>
<path content="1,東武バスセントラル（株）,あだたら号,4.0,4.0,4.0," xlink:title="1" d="M13976.4165,-3650.2075L13976.4432,-3650.2291L13976.4466,-3650.2321L13976.4479,-3650.2332L13976.4507,-3650.2356L13976.4796,-3650.2629L13976.5211,-3650.3019L13976.5328,-3650.3137L13976.5428,-3650.3242L13976.5616,-3650.3438L13976.5795,-3650.3605L13976.5868,-3650.3684L13976.5954,-3650.3776L13976.6073,-3650.3914L13976.6165,-3650.4021L13976.6469,-3650.4378L13976.648,-3650.4391L13976.6537,-3650.4457L13976.6555,-3650.4479L13976.664,-3650.4578L13976.6744,-3650.4708L13976.6777,-3650.475L13976.6802,-3650.4781L13976.6831,-3650.4819L13976.7071,-3650.5135L13976.7351,-3650.5487L13976.7505,-3650.5712L13976.7635,-3650.5896L13976.7713,-3650.6004L13976.7742,-3650.6044L13976.7786,-3650.6114L13976.7812,-3650.6156L13976.7888,-3650.6279L13976.7893,-3650.6287L13976.7907,-3650.631L13976.7975,-3650.6429L13976.7982,-3650.6442L13976.8066,-3650.659"/>
<path content="1,東野交通（株）,JR黒磯駅～羽田空港,1.0,1.0,1.0," xlink:title="1" d="M13976.8066,-3650.659L13976.7982,-3650.6442L13976.7975,-3650.6429L13976.7907,-3650.631L13976.7893,-3650.6287L13976.7888,-3650.6279L13976.7812,-3650.6156L13976.7786,-3650.6114L13976.7742,-3650.6044L13976.7713,-3650.6004L13976.7635,-3650.5896L13976.7505,-3650.5712L13976.7351,-3650.5487L13976.7071,-3650.5135L13976.6831,-3650.4819L13976.6802,-3650.4781L13976.6777,-3650.475L13976.6744,-3650.4708L13976.664,-3650.4578L13976.6555,-3650.4479L13976.6537,-3650.4457L13976.648,-3650.4391L13976.6469,-3650.4378L13976.6165,-3650.4021L13976.6073,-3650.3914L13976.5954,-3650.3776L13976.5868,-3650.3684L13976.5795,-3650.3605L13976.5616,-3650.3438L13976.5428,-3650.3242L13976.5328,-3650.3137L13976.5211,-3650.3019L13976.4796,-3650.2629L13976.4507,-3650.2356L13976.4479,-3650.2332L13976.4466,-3650.2321L13976.4432,-3650.2291L13976.4165,-3650.2075"/>
<path content="1,東野交通（株）,那須温泉～新宿駅新南口,3.0,3.0,3.0," xlink:title="1" d="M13976.4165,-3650.2075L13976.4432,-3650.2291L13976.4466,-3650.2321L13976.4479,-3650.2332L13976.4507,-3650.2356L13976.4796,-3650.2629L13976.5211,-3650.3019L13976.5328,-3650.3137L13976.5428,-3650.3242L13976.5616,-3650.3438L13976.5795,-3650.3605L13976.5868,-3650.3684L13976.5954,-3650.3776L13976.6073,-3650.3914L13976.6165,-3650.4021L13976.6469,-3650.4378L13976.648,-3650.4391L13976.6537,-3650.4457L13976.6555,-3650.4479L13976.664,-3650.4578L13976.6744,-3650.4708L13976.6777,-3650.475L13976.6802,-3650.4781L13976.6831,-3650.4819L13976.7071,-3650.5135L13976.7351,-3650.5487L13976.7505,-3650.5712L13976.7635,-3650.5896L13976.7713,-3650.6004L13976.7742,-3650.6044L13976.7786,-3650.6114L13976.7812,-3650.6156L13976.7888,-3650.6279L13976.7893,-3650.6287L13976.7907,-3650.631L13976.7975,-3650.6429L13976.7982,-3650.6442L13976.8066,-3650.659"/>
<path content="1,江ノ電バス藤沢,レイク＆ポート号,1.0,1.0,1.0," xlink:title="1" d="M13976.4165,-3650.2075L13976.4432,-3650.2291L13976.4466,-3650.2321L13976.4479,-3650.2332L13976.4507,-3650.2356L13976.4796,-3650.2629L13976.5211,-3650.3019L13976.5328,-3650.3137L13976.5428,-3650.3242L13976.5616,-3650.3438L13976.5795,-3650.3605L13976.5868,-3650.3684L13976.5954,-3650.3776L13976.6073,-3650.3914L13976.6165,-3650.4021L13976.6469,-3650.4378L13976.648,-3650.4391L13976.6537,-3650.4457L13976.6555,-3650.4479L13976.664,-3650.4578L13976.6744,-3650.4708L13976.6777,-3650.475L13976.6802,-3650.4781L13976.6831,-3650.4819L13976.7071,-3650.5135L13976.7351,-3650.5487L13976.7505,-3650.5712L13976.7635,-3650.5896L13976.7713,-3650.6004L13976.7742,-3650.6044L13976.7786,-3650.6114L13976.7812,-3650.6156L13976.7888,-3650.6279L13976.7893,-3650.6287L13976.7907,-3650.631L13976.7975,-3650.6429L13976.7982,-3650.6442L13976.8066,-3650.659"/>
<path content="1,福島交通（株）,福島駅東口～新宿駅新南口,4.0,4.0,4.0," xlink:title="1" d="M13976.8066,-3650.659L13976.7982,-3650.6442L13976.7975,-3650.6429L13976.7907,-3650.631L13976.7893,-3650.6287L13976.7888,-3650.6279L13976.7812,-3650.6156L13976.7786,-3650.6114L13976.7742,-3650.6044L13976.7713,-3650.6004L13976.7635,-3650.5896L13976.7505,-3650.5712L13976.7351,-3650.5487L13976.7071,-3650.5135L13976.6831,-3650.4819L13976.6802,-3650.4781L13976.6777,-3650.475L13976.6744,-3650.4708L13976.664,-3650.4578L13976.6555,-3650.4479L13976.6537,-3650.4457L13976.648,-3650.4391L13976.6469,-3650.4378L13976.6165,-3650.4021L13976.6073,-3650.3914L13976.5954,-3650.3776L13976.5868,-3650.3684L13976.5795,-3650.3605L13976.5616,-3650.3438L13976.5428,-3650.3242L13976.5328,-3650.3137L13976.5211,-3650.3019L13976.4796,-3650.2629L13976.4507,-3650.2356L13976.4479,-3650.2332L13976.4466,-3650.2321L13976.4432,-3650.2291L13976.4165,-3650.2075"/>
<path content="1,福島交通（株）,福島高速バスターミナル～大阪あべの橋,1.0,1.0,1.0," xlink:title="1" d="M13976.4165,-3650.2075L13976.4432,-3650.2291L13976.4466,-3650.2321L13976.4479,-3650.2332L13976.4507,-3650.2356L13976.4796,-3650.2629L13976.5211,-3650.3019L13976.5328,-3650.3137L13976.5428,-3650.3242L13976.5616,-3650.3438L13976.5795,-3650.3605L13976.5868,-3650.3684L13976.5954,-3650.3776L13976.6073,-3650.3914L13976.6165,-3650.4021L13976.6469,-3650.4378L13976.648,-3650.4391L13976.6537,-3650.4457L13976.6555,-3650.4479L13976.664,-3650.4578L13976.6744,-3650.4708L13976.6777,-3650.475L13976.6802,-3650.4781L13976.6831,-3650.4819L13976.7071,-3650.5135L13976.7351,-3650.5487L13976.7505,-3650.5712L13976.7635,-3650.5896L13976.7713,-3650.6004L13976.7742,-3650.6044L13976.7786,-3650.6114L13976.7812,-3650.6156L13976.7888,-3650.6279L13976.7893,-3650.6287L13976.7907,-3650.631L13976.7975,-3650.6429L13976.7982,-3650.6442L13976.8066,-3650.659"/>
<path content="1,福島交通（株）,郡山駅前～新越谷駅西口,2.0,2.0,2.0," xlink:title="1" d="M13976.8066,-3650.659L13976.7982,-3650.6442L13976.7975,-3650.6429L13976.7907,-3650.631L13976.7893,-3650.6287L13976.7888,-3650.6279L13976.7812,-3650.6156L13976.7786,-3650.6114L13976.7742,-3650.6044L13976.7713,-3650.6004L13976.7635,-3650.5896L13976.7505,-3650.5712L13976.7351,-3650.5487L13976.7071,-3650.5135L13976.6831,-3650.4819L13976.6802,-3650.4781L13976.6777,-3650.475L13976.6744,-3650.4708L13976.664,-3650.4578L13976.6555,-3650.4479L13976.6537,-3650.4457L13976.648,-3650.4391L13976.6469,-3650.4378L13976.6165,-3650.4021L13976.6073,-3650.3914L13976.5954,-3650.3776L13976.5868,-3650.3684L13976.5795,-3650.3605L13976.5616,-3650.3438L13976.5428,-3650.3242L13976.5328,-3650.3137L13976.5211,-3650.3019L13976.4796,-3650.2629L13976.4507,-3650.2356L13976.4479,-3650.2332L13976.4466,-3650.2321L13976.4432,-3650.2291L13976.4165,-3650.2075"/>
<path content="1,秋北バス（株）,ジュピター号,1.0,1.0,1.0," xlink:title="1" d="M13976.4165,-3650.2075L13976.4432,-3650.2291L13976.4466,-3650.2321L13976.4479,-3650.2332L13976.4507,-3650.2356L13976.4796,-3650.2629L13976.5211,-3650.3019L13976.5328,-3650.3137L13976.5428,-3650.3242L13976.5616,-3650.3438L13976.5795,-3650.3605L13976.5868,-3650.3684L13976.5954,-3650.3776L13976.6073,-3650.3914L13976.6165,-3650.4021L13976.6469,-3650.4378L13976.648,-3650.4391L13976.6537,-3650.4457L13976.6555,-3650.4479L13976.664,-3650.4578L13976.6744,-3650.4708L13976.6777,-3650.475L13976.6802,-3650.4781L13976.6831,-3650.4819L13976.7071,-3650.5135L13976.7351,-3650.5487L13976.7505,-3650.5712L13976.7635,-3650.5896L13976.7713,-3650.6004L13976.7742,-3650.6044L13976.7786,-3650.6114L13976.7812,-3650.6156L13976.7888,-3650.6279L13976.7893,-3650.6287L13976.7907,-3650.631L13976.7975,-3650.6429L13976.7982,-3650.6442L13976.8066,-3650.659"/>
<path content="1,秋田中央交通（株）,フローラ号,1.0,1.0,1.0," xlink:title="1" d="M13976.8066,-3650.659L13976.7982,-3650.6442L13976.7975,-3650.6429L13976.7907,-3650.631L13976.7893,-3650.6287L13976.7888,-3650.6279L13976.7812,-3650.6156L13976.7786,-3650.6114L13976.7742,-3650.6044L13976.7713,-3650.6004L13976.7635,-3650.5896L13976.7505,-3650.5712L13976.7351,-3650.5487L13976.7071,-3650.5135L13976.6831,-3650.4819L13976.6802,-3650.4781L13976.6777,-3650.475L13976.6744,-3650.4708L13976.664,-3650.4578L13976.6555,-3650.4479L13976.6537,-3650.4457L13976.648,-3650.4391L13976.6469,-3650.4378L13976.6165,-3650.4021L13976.6073,-3650.3914L13976.5954,-3650.3776L13976.5868,-3650.3684L13976.5795,-3650.3605L13976.5616,-3650.3438L13976.5428,-3650.3242L13976.5328,-3650.3137L13976.5211,-3650.3019L13976.4796,-3650.2629L13976.4507,-3650.2356L13976.4479,-3650.2332L13976.4466,-3650.2321L13976.4432,-3650.2291L13976.4165,-3650.2075"/>
<path content="1,羽後交通（株）,ドリーム鳥海号,1.0,1.0,1.0," xlink:title="1" d="M13976.4165,-3650.2075L13976.4432,-3650.2291L13976.4466,-3650.2321L13976.4479,-3650.2332L13976.4507,-3650.2356L13976.4796,-3650.2629L13976.5211,-3650.3019L13976.5328,-3650.3137L13976.5428,-3650.3242L13976.5616,-3650.3438L13976.5795,-3650.3605L13976.5868,-3650.3684L13976.5954,-3650.3776L13976.6073,-3650.3914L13976.6165,-3650.4021L13976.6469,-3650.4378L13976.648,-3650.4391L13976.6537,-3650.4457L13976.6555,-3650.4479L13976.664,-3650.4578L13976.6744,-3650.4708L13976.6777,-3650.475L13976.6802,-3650.4781L13976.6831,-3650.4819L13976.7071,-3650.5135L13976.7351,-3650.5487L13976.7505,-3650.5712L13976.7635,-3650.5896L13976.7713,-3650.6004L13976.7742,-3650.6044L13976.7786,-3650.6114L13976.7812,-3650.6156L13976.7888,-3650.6279L13976.7893,-3650.6287L13976.7907,-3650.631L13976.7975,-3650.6429L13976.7982,-3650.6442L13976.8066,-3650.659"/>
<path content="1,羽後交通（株）,レーク＆ポート号,1.0,1.0,1.0," xlink:title="1" d="M13976.8066,-3650.659L13976.7982,-3650.6442L13976.7975,-3650.6429L13976.7907,-3650.631L13976.7893,-3650.6287L13976.7888,-3650.6279L13976.7812,-3650.6156L13976.7786,-3650.6114L13976.7742,-3650.6044L13976.7713,-3650.6004L13976.7635,-3650.5896L13976.7505,-3650.5712L13976.7351,-3650.5487L13976.7071,-3650.5135L13976.6831,-3650.4819L13976.6802,-3650.4781L13976.6777,-3650.475L13976.6744,-3650.4708L13976.664,-3650.4578L13976.6555,-3650.4479L13976.6537,-3650.4457L13976.648,-3650.4391L13976.6469,-3650.4378L13976.6165,-3650.4021L13976.6073,-3650.3914L13976.5954,-3650.3776L13976.5868,-3650.3684L13976.5795,-3650.3605L13976.5616,-3650.3438L13976.5428,-3650.3242L13976.5328,-3650.3137L13976.5211,-3650.3019L13976.4796,-3650.2629L13976.4507,-3650.2356L13976.4479,-3650.2332L13976.4466,-3650.2321L13976.4432,-3650.2291L13976.4165,-3650.2075"/>
<path content="1,足利中央観光バス（株）,足利・佐野‐運転免許センター,999.9,999.9,999.9," xlink:title="1" d="M13976.4165,-3650.2075L13976.4432,-3650.2291L13976.4466,-3650.2321L13976.4479,-3650.2332L13976.4507,-3650.2356L13976.4796,-3650.2629L13976.5211,-3650.3019L13976.5328,-3650.3137L13976.5428,-3650.3242L13976.5616,-3650.3438L13976.5795,-3650.3605L13976.5868,-3650.3684L13976.5954,-3650.3776L13976.6073,-3650.3914L13976.6165,-3650.4021L13976.6469,-3650.4378L13976.648,-3650.4391L13976.6537,-3650.4457L13976.6555,-3650.4479L13976.664,-3650.4578L13976.6744,-3650.4708L13976.6777,-3650.475L13976.6802,-3650.4781L13976.6831,-3650.4819L13976.7071,-3650.5135L13976.7351,-3650.5487L13976.7505,-3650.5712L13976.7635,-3650.5896L13976.7713,-3650.6004L13976.7742,-3650.6044L13976.7786,-3650.6114L13976.7812,-3650.6156L13976.7888,-3650.6279L13976.7893,-3650.6287L13976.7907,-3650.631L13976.7975,-3650.6429L13976.7982,-3650.6442L13976.8066,-3650.659"/>
<path content="1,近鉄バス（株）,大阪・京都⇔久喜・栃木・宇都宮,1.0,1.0,1.0," xlink:title="1" d="M13976.4166,-3650.2075L13976.443,-3650.2289L13976.4507,-3650.2356L13976.5211,-3650.3019L13976.5328,-3650.3137L13976.5616,-3650.3438L13976.5795,-3650.3605L13976.5954,-3650.3776L13976.6165,-3650.4021L13976.648,-3650.4391L13976.664,-3650.4578L13976.6831,-3650.4817L13976.7071,-3650.5135L13976.7351,-3650.5487L13976.7505,-3650.5712L13976.7635,-3650.5896L13976.7742,-3650.6044L13976.7812,-3650.6156L13976.7907,-3650.6309L13976.8066,-3650.659"/>
<path content="1,近鉄バス（株）,大阪・京都⇔仙台,1.0,1.0,1.0," xlink:title="1" d="M13976.4166,-3650.2075L13976.443,-3650.2289L13976.4507,-3650.2356L13976.5211,-3650.3019L13976.5328,-3650.3137L13976.5616,-3650.3438L13976.5795,-3650.3605L13976.5954,-3650.3776L13976.6165,-3650.4021L13976.648,-3650.4391L13976.664,-3650.4578L13976.6831,-3650.4817L13976.7071,-3650.5135L13976.7351,-3650.5487L13976.7505,-3650.5712L13976.7635,-3650.5896L13976.7742,-3650.6044L13976.7812,-3650.6156L13976.7907,-3650.6309L13976.8066,-3650.659"/>
<path content="1,近鉄バス（株）,大阪・京都⇔郡山・福島,1.0,1.0,1.0," xlink:title="1" d="M13976.4166,-3650.2075L13976.443,-3650.2289L13976.4507,-3650.2356L13976.5211,-3650.3019L13976.5328,-3650.3137L13976.5616,-3650.3438L13976.5795,-3650.3605L13976.5954,-3650.3776L13976.6165,-3650.4021L13976.648,-3650.4391L13976.664,-3650.4578L13976.6831,-3650.4817L13976.7071,-3650.5135L13976.7351,-3650.5487L13976.7505,-3650.5712L13976.7635,-3650.5896L13976.7742,-3650.6044L13976.7812,-3650.6156L13976.7907,-3650.6309L13976.8066,-3650.659"/>
<path content="1,関東自動車（株）,とちの木号,1.0,1.0,1.0," xlink:title="1" d="M13976.8066,-3650.659L13976.7982,-3650.6442L13976.7975,-3650.6429L13976.7907,-3650.631L13976.7893,-3650.6287L13976.7888,-3650.6279L13976.7812,-3650.6156L13976.7786,-3650.6114L13976.7742,-3650.6044L13976.7713,-3650.6004L13976.7635,-3650.5896L13976.7505,-3650.5712L13976.7351,-3650.5487L13976.7071,-3650.5135L13976.6831,-3650.4819L13976.6802,-3650.4781L13976.6777,-3650.475L13976.6744,-3650.4708L13976.664,-3650.4578L13976.6555,-3650.4479L13976.6537,-3650.4457L13976.648,-3650.4391L13976.6469,-3650.4378L13976.6165,-3650.4021L13976.6073,-3650.3914L13976.5954,-3650.3776L13976.5868,-3650.3684L13976.5795,-3650.3605L13976.5616,-3650.3438L13976.5428,-3650.3242L13976.5328,-3650.3137L13976.5211,-3650.3019L13976.4796,-3650.2629L13976.4507,-3650.2356L13976.4479,-3650.2332L13976.4466,-3650.2321L13976.4432,-3650.2291L13976.4165,-3650.2075"/>
<path content="1,関東自動車（株）,マロニエ号　成田空港,5.0,5.0,5.0," xlink:title="1" d="M13976.8066,-3650.659L13976.7982,-3650.6442L13976.7975,-3650.6429L13976.7907,-3650.631L13976.7893,-3650.6287L13976.7888,-3650.6279L13976.7812,-3650.6156L13976.7786,-3650.6114L13976.7742,-3650.6044L13976.7713,-3650.6004L13976.7635,-3650.5896L13976.7505,-3650.5712L13976.7351,-3650.5487L13976.7071,-3650.5135L13976.6831,-3650.4819L13976.6802,-3650.4781L13976.6777,-3650.475L13976.6744,-3650.4708L13976.664,-3650.4578L13976.6555,-3650.4479L13976.6537,-3650.4457L13976.648,-3650.4391L13976.6469,-3650.4378L13976.6165,-3650.4021L13976.6073,-3650.3914L13976.5954,-3650.3776L13976.5868,-3650.3684L13976.5795,-3650.3605L13976.5616,-3650.3438L13976.5428,-3650.3242L13976.5328,-3650.3137L13976.5211,-3650.3019L13976.4796,-3650.2629L13976.4507,-3650.2356L13976.4479,-3650.2332L13976.4466,-3650.2321L13976.4432,-3650.2291L13976.4165,-3650.2075"/>
<path content="1,関東自動車（株）,マロニエ号　羽田空港,3.0,3.0,3.0," xlink:title="1" d="M13976.8066,-3650.659L13976.7982,-3650.6442L13976.7975,-3650.6429L13976.7907,-3650.631L13976.7893,-3650.6287L13976.7888,-3650.6279L13976.7812,-3650.6156L13976.7786,-3650.6114L13976.7742,-3650.6044L13976.7713,-3650.6004L13976.7635,-3650.5896L13976.7505,-3650.5712L13976.7351,-3650.5487L13976.7071,-3650.5135L13976.6831,-3650.4819L13976.6802,-3650.4781L13976.6777,-3650.475L13976.6744,-3650.4708L13976.664,-3650.4578L13976.6555,-3650.4479L13976.6537,-3650.4457L13976.648,-3650.4391L13976.6469,-3650.4378L13976.6165,-3650.4021L13976.6073,-3650.3914L13976.5954,-3650.3776L13976.5868,-3650.3684L13976.5795,-3650.3605L13976.5616,-3650.3438L13976.5428,-3650.3242L13976.5328,-3650.3137L13976.5211,-3650.3019L13976.4796,-3650.2629L13976.4507,-3650.2356L13976.4479,-3650.2332L13976.4466,-3650.2321L13976.4432,-3650.2291L13976.4165,-3650.2075"/>
<path content="1,関東自動車（株）,北関東ライナー　佐野・高崎・前橋線,2.0,2.0,2.0," xlink:title="1" d="M13976.8066,-3650.659L13976.7982,-3650.6442L13976.7975,-3650.6429L13976.7907,-3650.631L13976.7893,-3650.6287L13976.7888,-3650.6279L13976.7812,-3650.6156L13976.7786,-3650.6114L13976.7742,-3650.6044L13976.7713,-3650.6004L13976.7635,-3650.5896L13976.7505,-3650.5712L13976.7351,-3650.5487L13976.7071,-3650.5135L13976.6831,-3650.4819L13976.6802,-3650.4781L13976.6777,-3650.475L13976.6744,-3650.4708L13976.664,-3650.4578L13976.6555,-3650.4479L13976.6537,-3650.4457L13976.648,-3650.4391L13976.6469,-3650.4378L13976.6165,-3650.4021L13976.6073,-3650.3914L13976.5954,-3650.3776L13976.5868,-3650.3684L13976.5795,-3650.3605L13976.5616,-3650.3438L13976.5428,-3650.3242L13976.5328,-3650.3137L13976.5211,-3650.3019L13976.4796,-3650.2629L13976.4507,-3650.2356L13976.4479,-3650.2332L13976.4466,-3650.2321L13976.4432,-3650.2291L13976.4165,-3650.2075"/>
<path content="1,関東自動車（株）,宇都宮駅・楡木車庫前,4.0,3.5,2.5," xlink:title="1" d="M13976.2573,-3650.4637L13976.2827,-3650.4641L13976.2849,-3650.4641L13976.3857,-3650.471L13976.4237,-3650.4737L13976.4433,-3650.4743L13976.4467,-3650.4754L13976.4907,-3650.4776L13976.497,-3650.4788L13976.5591,-3650.4793L13976.5807,-3650.4805L13976.5906,-3650.4835L13976.6028,-3650.4909L13976.6344,-3650.5188L13976.6456,-3650.5317L13976.6547,-3650.5441L13976.677,-3650.5802L13976.6924,-3650.6055L13976.7086,-3650.6274L13976.7203,-3650.6343L13976.7349,-3650.6399L13976.7578,-3650.6473L13976.8066,-3650.6601"/>
<path content="1,関東自動車（株）,宇都宮駅・運転免許センター・楡木車庫前,5.5,5.5,5.5," xlink:title="1" d="M13976.2573,-3650.4637L13976.2827,-3650.4641L13976.2849,-3650.4641L13976.3857,-3650.471L13976.4237,-3650.4737L13976.4433,-3650.4743L13976.4467,-3650.4754L13976.4907,-3650.4776L13976.497,-3650.4788L13976.5591,-3650.4793L13976.5807,-3650.4805L13976.5906,-3650.4835L13976.6028,-3650.4909L13976.6344,-3650.5188L13976.6456,-3650.5317L13976.6547,-3650.5441L13976.677,-3650.5802L13976.6924,-3650.6055L13976.7086,-3650.6274L13976.7203,-3650.6343L13976.7349,-3650.6399L13976.7578,-3650.6473L13976.8066,-3650.6601"/>
</g>
</svg>
