<?xml version="1.0" encoding="UTF-8"?>
<svg  xmlns="http://www.w3.org/2000/svg" xmlns:xlink="http://www.w3.org/1999/xlink" xmlns:go="http://purl.org/svgmap/profile" property="N07_001,N07_002,N07_003,N07_004,N07_005,N07_006,N07_007" viewBox="13971.3134765625 -3565.0634765625 1.0986328125 1.0986328125" go:dataArea="13971.3134765625 -3565.0634765625 1.0986328125 1.0986328125" >
<metadata>
 <rdf:RDF xmlns:rdf="http://www.w3.org/1999/02/22-rdf-syntax-ns#" xmlns:crs="http://opengis.org/xmldtds/transformations.dtd" xmlns:svg="http://www.w3.org/svg" >
  <rdf:Description>
   <crs:CoordinateReferenceSystem rdf:resource="http://purl.org/crs/84" svg:transform="matrix(100.0,0.0,0.0,-100.0,0.0,0.0)" />
  </rdf:Description>
 </rdf:RDF>
</metadata>
<globalCoordinateSystem srsName="http://purl.org/crs/84" transform="matrix(100.0,0.0,0.0,-100.0,0.0,0.0)" />
<defs>
 <g id="p0" >
  <circle cx="0.0" cy="0.0" r="3" stroke="green" stroke-width="0.75" vector-effect="non-scaling-stroke" />
 </g>
</defs>
<g fill="none" fill-rule="evenodd" stroke="#FF00FF" stroke-width="0.75" opacity="0.5" vector-effect="non-scaling-stroke" stroke-linejoin="bevel" >
<path content="1,京浜急行バス（株）,パイレーツ号,1.0,1.0,1.0," xlink:title="1" d="M13971.7028,-3563.9648L13971.7028,-3563.9649L13971.7076,-3563.9806L13971.7138,-3563.9964L13971.719,-3564.0066L13971.7207,-3564.0099L13971.7324,-3564.0297L13971.7414,-3564.042L13971.7566,-3564.0578L13971.771,-3564.0696L13971.8435,-3564.1181L13971.8856,-3564.1434L13971.8977,-3564.1508L13971.9346,-3564.1732L13971.9929,-3564.2085L13972.0735,-3564.3078L13972.0814,-3564.3153L13972.0857,-3564.3201L13972.0966,-3564.3311L13972.1656,-3564.4111L13972.1766,-3564.4229L13972.1919,-3564.4403L13972.2197,-3564.4719L13972.2311,-3564.4849L13972.2435,-3564.4984L13972.2669,-3564.5125L13972.2812,-3564.5187L13972.2962,-3564.5253L13972.307,-3564.53L13972.3104,-3564.5322L13972.4121,-3564.5752"/>
<path content="1,東京空港交通（株）,恵比寿・品川エリア～成田空港線,41.0,41.0,41.0," xlink:title="1" d="M13971.7028,-3563.9648L13971.7028,-3563.9649L13971.7076,-3563.9806L13971.7138,-3563.9964L13971.719,-3564.0066L13971.7207,-3564.0099L13971.7324,-3564.0297L13971.7414,-3564.042L13971.7566,-3564.0578L13971.771,-3564.0696L13971.8435,-3564.1181L13971.8856,-3564.1434L13971.8977,-3564.1508"/>
<path content="1,東京空港交通（株）,恵比寿・品川エリア～成田空港線,41.0,41.0,41.0," xlink:title="1" d="M13972.2541,-3563.9648L13972.2511,-3563.9773L13972.1663,-3564.0251L13972.1214,-3564.0494L13972.0676,-3564.0832L13972.0132,-3564.117L13971.9938,-3564.1288L13971.9801,-3564.1339L13971.9642,-3564.1361L13971.9578,-3564.1375L13971.8977,-3564.1508"/>
<path content="1,東京空港交通（株）,恵比寿・品川エリア～成田空港線,41.0,41.0,41.0," xlink:title="1" d="M13971.8977,-3564.1508L13971.8906,-3564.1524L13971.8124,-3564.1542L13971.7642,-3564.1549L13971.7366,-3564.1553L13971.7269,-3564.153L13971.7172,-3564.1587L13971.7103,-3564.1643L13971.6979,-3564.1694L13971.6724,-3564.175L13971.6607,-3564.1806L13971.6269,-3564.207L13971.6029,-3564.2314L13971.5848,-3564.2499L13971.5772,-3564.2606L13971.5745,-3564.2674L13971.571,-3564.286L13971.5668,-3564.3002L13971.5661,-3564.3024L13971.5448,-3564.3091L13971.5391,-3564.2616L13971.5372,-3564.2466L13971.5351,-3564.2376L13971.532,-3564.2278L13971.5262,-3564.2099L13971.5209,-3564.1994L13971.5396,-3564.1909"/>
<path content="1,東京空港交通（株）,恵比寿・品川エリア～成田空港線,41.0,41.0,41.0," xlink:title="1" d="M13971.8977,-3564.1508L13971.9346,-3564.1732L13971.9929,-3564.2085L13972.0735,-3564.3078L13972.0814,-3564.3153L13972.0857,-3564.3201L13972.0966,-3564.3311L13972.1656,-3564.4111L13972.1766,-3564.4229L13972.1919,-3564.4403L13972.2197,-3564.4719L13972.2311,-3564.4849L13972.2435,-3564.4984L13972.2669,-3564.5125L13972.2812,-3564.5187L13972.2962,-3564.5253L13972.307,-3564.53L13972.3104,-3564.5322L13972.4121,-3564.5752"/>
<path content="1,東京空港交通（株）,恵比寿・品川エリア～羽田空港線,3.5,3.5,3.5," xlink:title="1" d="M13972.4121,-3564.5752L13972.3104,-3564.5322L13972.307,-3564.53L13972.2962,-3564.5253L13972.2812,-3564.5187L13972.2669,-3564.5125L13972.2435,-3564.4984L13972.2311,-3564.4849L13972.2197,-3564.4719L13972.1919,-3564.4403L13972.1766,-3564.4229L13972.1656,-3564.4111L13972.0966,-3564.3311L13972.0857,-3564.3201L13972.0814,-3564.3153"/>
<path content="1,東京空港交通（株）,恵比寿・品川エリア～羽田空港線,3.5,3.5,3.5," xlink:title="1" d="M13971.7028,-3563.9648L13971.7028,-3563.9649L13971.7076,-3563.9806L13971.7138,-3563.9964L13971.719,-3564.0066L13971.7207,-3564.0099L13971.7324,-3564.0297L13971.7414,-3564.042L13971.7566,-3564.0578L13971.771,-3564.0696L13971.8435,-3564.1181L13971.8856,-3564.1434L13971.8977,-3564.1508L13971.9346,-3564.1732L13971.9929,-3564.2085L13972.0735,-3564.3078L13972.0814,-3564.3153"/>
<path content="1,東京空港交通（株）,恵比寿・品川エリア～羽田空港線,3.5,3.5,3.5," xlink:title="1" d="M13971.5396,-3564.1909L13971.5209,-3564.1994L13971.5262,-3564.2099L13971.532,-3564.2278L13971.5351,-3564.2376L13971.5372,-3564.2466L13971.5391,-3564.2616L13971.5448,-3564.3091L13971.5421,-3564.3716L13971.54,-3564.3852L13971.6248,-3564.3919L13971.66,-3564.3947L13971.6834,-3564.397L13971.7614,-3564.4038L13971.8055,-3564.4071L13971.8193,-3564.4077L13971.8207,-3564.4088L13971.8918,-3564.4144L13971.889,-3564.3818L13971.909,-3564.3789L13971.9911,-3564.3576L13972.0193,-3564.3491L13972.0462,-3564.3372L13972.0504,-3564.3351L13972.0572,-3564.3314L13972.0814,-3564.3153L13972.0814,-3564.3153"/>
<path content="1,東京空港交通（株）,恵比寿・品川エリア～羽田空港線,3.5,3.5,3.5," xlink:title="1" d="M13972.0814,-3564.3153L13972.1041,-3564.3004L13972.1138,-3564.2939L13972.1496,-3564.2518L13972.1573,-3564.2505L13972.1704,-3564.2325L13972.1849,-3564.2094L13972.2035,-3564.1761L13972.2132,-3564.1598L13972.2194,-3564.1495L13972.2242,-3564.1378L13972.2304,-3564.1203L13972.2352,-3564.0973L13972.2401,-3564.0618L13972.2463,-3564.0302L13972.2477,-3563.9919L13972.2511,-3563.9773L13972.2541,-3563.9648"/>
<path content="2,都営バス,品97,52.0,45.0,43.0," xlink:title="2" d="M13972.4121,-3564.7016L13972.4021,-3564.7069L13972.3617,-3564.7313L13972.3463,-3564.7407L13972.3158,-3564.7523L13972.3023,-3564.7574"/>
<path content="2,都営バス,品97,52.0,45.0,43.0," xlink:title="2" d="M13972.3023,-3564.7574L13972.2831,-3564.769"/>
<path content="2,都営バス,品97,52.0,45.0,43.0," xlink:title="2" d="M13972.3023,-3564.7574L13972.2871,-3564.811L13972.2676,-3564.8793L13972.2573,-3564.9193L13972.2532,-3564.9384L13972.2511,-3564.9435L13972.2401,-3564.9886L13972.2359,-3565.0128L13972.2338,-3565.0179L13972.2318,-3565.0331L13972.2312,-3565.0552L13972.2293,-3565.0635"/>
<path content="2,都営バス,橋86,33.0,33.0,31.0," xlink:title="2" d="M13972.2541,-3563.9648L13972.2511,-3563.9773L13972.2477,-3563.9919L13972.2463,-3564.0302L13972.2401,-3564.0618L13972.2352,-3564.0973L13972.2304,-3564.1203L13972.2242,-3564.1378L13972.2194,-3564.1495L13972.2132,-3564.1598L13972.2035,-3564.1761L13972.1849,-3564.2094L13972.1704,-3564.2325L13972.1573,-3564.2505L13972.1496,-3564.2518L13972.1138,-3564.2939L13972.1041,-3564.3004L13972.0815,-3564.3153L13972.0572,-3564.3314L13972.0504,-3564.3351L13972.0462,-3564.3372L13972.0193,-3564.3491L13971.9911,-3564.3576L13971.909,-3564.3789L13971.889,-3564.3818L13971.8918,-3564.4144L13971.8938,-3564.4494L13971.9014,-3564.4877L13971.9152,-3564.5159L13971.9419,-3564.5155L13971.9614,-3564.5091L13971.9738,-3564.5069L13972.0621,-3564.4939L13972.1297,-3564.4838L13972.1534,-3564.4797L13972.1634,-3564.4741L13972.1794,-3564.4753L13972.1859,-3564.4942L13972.1878,-3564.4999L13972.2338,-3564.6336L13972.249,-3564.6759L13972.2573,-3564.7024L13972.2685,-3564.7294L13972.2789,-3564.7502L13972.2831,-3564.769L13972.3023,-3564.7574L13972.2871,-3564.811L13972.2676,-3564.8793L13972.2573,-3564.9193L13972.2532,-3564.9384L13972.2511,-3564.9435L13972.2401,-3564.9886L13972.2359,-3565.0128L13972.2338,-3565.0179L13972.2318,-3565.0331L13972.2312,-3565.0552L13972.2293,-3565.0635"/>
<path content="2,都営バス,田87,126.0,128.0,118.0," xlink:title="2" d="M13972.4121,-3564.454L13972.3932,-3564.4562L13972.3677,-3564.4584L13972.3546,-3564.4607L13972.3132,-3564.4635L13972.3063,-3564.4646L13972.2724,-3564.4675L13972.2683,-3564.4678L13972.2642,-3564.4682L13972.2243,-3564.4715L13972.2197,-3564.4719L13972.1794,-3564.4753L13972.1634,-3564.4741L13972.1534,-3564.4797L13972.1297,-3564.4838L13972.0621,-3564.4939L13971.9738,-3564.5069L13971.9614,-3564.5091L13971.9419,-3564.5155L13971.9152,-3564.5159L13971.8324,-3564.5283L13971.8076,-3564.5328L13971.769,-3564.5378L13971.7552,-3564.5406L13971.7455,-3564.5412L13971.7055,-3564.548L13971.6639,-3564.5539L13971.6434,-3564.557L13971.6251,-3564.5593L13971.6172,-3564.5604L13971.5966,-3564.5633L13971.5779,-3564.566L13971.5538,-3564.5694L13971.5414,-3564.5711L13971.5262,-3564.5722L13971.5,-3564.5761L13971.4846,-3564.5776L13971.4676,-3564.5807L13971.4524,-3564.5835L13971.3654,-3564.5919L13971.333,-3564.5953L13971.3135,-3564.597"/>
<path content="2,都営バス,都06,131.0,94.0,86.0," xlink:title="2" d="M13971.3135,-3564.847L13971.3344,-3564.8443L13971.4055,-3564.8381L13971.4586,-3564.8359L13971.4675,-3564.8359L13971.5013,-3564.8366L13971.5089,-3564.8381L13971.5441,-3564.8426L13971.6207,-3564.8551L13971.7353,-3564.8727L13971.7404,-3564.8734L13971.7509,-3564.8738L13971.811,-3564.8838L13971.8759,-3564.8934L13971.8903,-3564.8945L13971.9034,-3564.8928L13971.9055,-3564.8934L13971.9241,-3564.8855L13971.9899,-3564.8515L13972.0256,-3564.837L13972.0572,-3564.8257L13972.069,-3564.8229L13972.1221,-3564.8089L13972.189,-3564.792L13972.2232,-3564.7859L13972.2635,-3564.7722L13972.2831,-3564.769L13972.3023,-3564.7574L13972.3158,-3564.7523L13972.3463,-3564.7407L13972.3617,-3564.7313L13972.4021,-3564.7069L13972.4121,-3564.7016"/>
<path content="2,都営バス,黒77,37.0,37.0,36.0," xlink:title="2" d="M13972.1794,-3564.4753L13972.1634,-3564.4741"/>
<path content="2,都営バス,黒77,37.0,37.0,36.0," xlink:title="2" d="M13972.1794,-3564.4753L13972.2197,-3564.4719L13972.1919,-3564.4403L13972.1766,-3564.4229L13972.1656,-3564.4111L13972.0966,-3564.3311L13972.0857,-3564.3201L13972.0815,-3564.3153L13972.1041,-3564.3004L13972.1138,-3564.2939L13972.1496,-3564.2518L13972.1573,-3564.2505L13972.1704,-3564.2325L13972.1849,-3564.2094L13972.2035,-3564.1761L13972.2132,-3564.1598L13972.2194,-3564.1495L13972.2242,-3564.1378L13972.2304,-3564.1203L13972.2352,-3564.0973L13972.2401,-3564.0618L13972.2463,-3564.0302L13972.2477,-3563.9919L13972.2511,-3563.9773L13972.2541,-3563.9648"/>
<path content="2,都営バス,黒77,37.0,37.0,36.0," xlink:title="2" d="M13972.2293,-3565.0635L13972.2312,-3565.0552L13972.2318,-3565.0331L13972.2338,-3565.0179L13972.2359,-3565.0128L13972.2401,-3564.9886L13972.2511,-3564.9435L13972.2532,-3564.9384L13972.2573,-3564.9193L13972.2676,-3564.8793L13972.2871,-3564.811L13972.3023,-3564.7574L13972.2831,-3564.769L13972.2789,-3564.7502L13972.2685,-3564.7294L13972.2573,-3564.7024L13972.249,-3564.6759L13972.2338,-3564.6336L13972.1878,-3564.4999L13972.1859,-3564.4942L13972.1794,-3564.4753"/>
<path content="3,渋谷区,夕やけこやけルート,41.0,42.0,42.0," xlink:title="3" d="M13971.9779,-3564.6466L13971.9745,-3564.6421L13971.9579,-3564.606L13971.9531,-3564.5976L13971.941,-3564.5693L13971.9352,-3564.5519L13971.9255,-3564.5288L13971.9152,-3564.5159L13971.8324,-3564.5283L13971.8076,-3564.5328L13971.769,-3564.5378L13971.7552,-3564.5406L13971.7455,-3564.5412L13971.7055,-3564.548L13971.6639,-3564.5539L13971.6434,-3564.557L13971.6365,-3564.5474L13971.62,-3564.5238L13971.5972,-3564.4922L13971.5896,-3564.4815L13971.5827,-3564.4731L13971.5579,-3564.4398L13971.5476,-3564.4218L13971.5462,-3564.4195L13971.54,-3564.3852L13971.5256,-3564.3859L13971.4324,-3564.3761L13971.4144,-3564.3739L13971.4053,-3564.3723L13971.3749,-3564.3656L13971.3503,-3564.3581L13971.3375,-3564.3539L13971.3135,-3564.3459"/>
<path content="3,渋谷区,夕やけこやけルート,41.0,42.0,42.0," xlink:title="3" d="M13971.9779,-3564.6466L13971.9835,-3564.6556L13972.0201,-3564.7248L13972.0409,-3564.766L13972.0431,-3564.7706L13972.047,-3564.7794L13972.055,-3564.7965L13972.0655,-3564.8139L13972.069,-3564.8229L13972.0572,-3564.8257L13972.0256,-3564.837L13971.9899,-3564.8515L13971.9241,-3564.8855L13971.9055,-3564.8934L13971.9034,-3564.8928L13971.8903,-3564.8945L13971.8759,-3564.8934L13971.811,-3564.8838L13971.7509,-3564.8738L13971.7404,-3564.8734L13971.7421,-3564.8629L13971.7482,-3564.8274L13971.7511,-3564.809L13971.7522,-3564.8023L13971.7531,-3564.7762L13971.7545,-3564.761L13971.7593,-3564.7221"/>
<path content="3,渋谷区,夕やけこやけルート,41.0,42.0,42.0," xlink:title="3" d="M13971.7593,-3564.7221L13971.8007,-3564.7317L13971.8138,-3564.7373L13971.8873,-3564.6984L13971.8924,-3564.695L13971.9779,-3564.6466"/>
<path content="3,渋谷区,夕やけこやけルート,41.0,42.0,42.0," xlink:title="3" d="M13971.7593,-3564.7221L13971.7228,-3564.7125L13971.6986,-3564.708L13971.6566,-3564.7041L13971.4917,-3564.7058L13971.4904,-3564.7053L13971.4878,-3564.7036L13971.4827,-3564.6793L13971.4786,-3564.6517L13971.4772,-3564.637L13971.4738,-3564.6167L13971.4696,-3564.5947L13971.4696,-3564.5908L13971.4676,-3564.5807L13971.4524,-3564.5835L13971.3654,-3564.5919L13971.333,-3564.5953L13971.3135,-3564.597"/>
</g>
</svg>
