<?xml version="1.0" encoding="UTF-8"?>
<svg  xmlns="http://www.w3.org/2000/svg" xmlns:xlink="http://www.w3.org/1999/xlink" xmlns:go="http://purl.org/svgmap/profile" property="N07_001,N07_002,N07_003,N07_004,N07_005,N07_006,N07_007" viewBox="13983.3984375 -3585.9375 2.197265625 2.197265625" go:dataArea="13983.3984375 -3585.9375 2.197265625 2.197265625" >
<metadata>
 <rdf:RDF xmlns:rdf="http://www.w3.org/1999/02/22-rdf-syntax-ns#" xmlns:crs="http://opengis.org/xmldtds/transformations.dtd" xmlns:svg="http://www.w3.org/svg" >
  <rdf:Description>
   <crs:CoordinateReferenceSystem rdf:resource="http://purl.org/crs/84" svg:transform="matrix(100.0,0.0,0.0,-100.0,0.0,0.0)" />
  </rdf:Description>
 </rdf:RDF>
</metadata>
<globalCoordinateSystem srsName="http://purl.org/crs/84" transform="matrix(100.0,0.0,0.0,-100.0,0.0,0.0)" />
<defs>
 <g id="p0" >
  <circle cx="0.0" cy="0.0" r="3" stroke="green" stroke-width="0.75" vector-effect="non-scaling-stroke" />
 </g>
</defs>
<g fill="none" fill-rule="evenodd" stroke="#FF00FF" stroke-width="0.75" opacity="0.5" vector-effect="non-scaling-stroke" stroke-linejoin="bevel" >
<path content="1,JRバス関東（株）,東京～吉川・松伏,0.5,0.5,0.5," xlink:title="1" d="M13985.5957,-3583.9171L13985.5582,-3583.9526L13985.5331,-3583.9766L13985.5393,-3583.9781L13985.5618,-3583.9834L13985.5817,-3583.9881L13985.5957,-3583.9915"/>
<path content="1,JRバス関東（株）,東京～吉川・松伏,0.5,0.5,0.5," xlink:title="1" d="M13984.8171,-3585.9375L13984.7631,-3585.9298L13984.7167,-3585.9236L13984.7091,-3585.9219L13984.6973,-3585.9207L13984.6018,-3585.8982L13984.5742,-3585.8909L13984.5008,-3585.8753L13984.5008,-3585.8914L13984.4999,-3585.8981L13984.4999,-3585.9375"/>
<path content="1,グローバル交通,001,37.0,33.0,33.0," xlink:title="1" d="M13985.5957,-3584.4121L13985.5654,-3584.4424L13985.5631,-3584.4447L13985.5538,-3584.454L13985.5443,-3584.4766L13985.5318,-3584.4958L13985.5242,-3584.5168L13985.5187,-3584.5286L13985.4946,-3584.5972L13985.5491,-3584.6108L13985.5872,-3584.6199L13985.5957,-3584.622"/>
<path content="1,グローバル交通,002,37.0,22.0,22.0," xlink:title="1" d="M13984.5687,-3583.7402L13984.5687,-3583.7606L13984.5705,-3583.7764L13984.5687,-3583.7843L13984.5729,-3583.8294L13984.5728,-3583.8514L13984.568,-3583.8632L13984.5659,-3583.8722L13984.5659,-3583.8964L13984.577,-3583.9404L13984.5756,-3583.9471L13984.568,-3583.9561L13984.5537,-3583.9692L13984.5452,-3583.977L13984.5454,-3584.0427L13984.5493,-3584.1167L13984.5528,-3584.1798L13984.5585,-3584.1997L13984.559,-3584.2283L13984.5687,-3584.2762L13984.5901,-3584.3539L13984.5898,-3584.373L13984.5881,-3584.3804L13984.5847,-3584.4008L13984.5847,-3584.4036L13984.5823,-3584.4284L13984.5825,-3584.4366L13984.5832,-3584.4569L13984.5845,-3584.4665L13984.5874,-3584.488L13984.5874,-3584.4936L13984.5881,-3584.5088L13984.5839,-3584.5269L13984.5721,-3584.559L13984.5569,-3584.5987L13984.5523,-3584.6033L13984.5433,-3584.6292L13984.5258,-3584.67L13984.523,-3584.6779L13984.5057,-3584.7229L13984.496,-3584.7494L13984.4939,-3584.7534L13984.4919,-3584.7635L13984.4912,-3584.7815L13984.4926,-3584.7934L13984.4988,-3584.7911L13984.5334,-3584.7827L13984.6159,-3584.7809L13984.6282,-3584.7844L13984.6386,-3584.7838L13984.696,-3584.7849L13984.8218,-3584.7852L13984.9015,-3584.7855L13984.9264,-3584.7849L13984.9374,-3584.7827L13984.9444,-3584.7798L13984.9672,-3584.7787L13984.979,-3584.777L13985.0184,-3584.7714L13985.0295,-3584.7714L13985.0849,-3584.7804L13985.0911,-3584.7821L13985.0987,-3584.7827L13985.1042,-3584.7844L13985.1063,-3584.7844L13985.1269,-3584.7875L13985.1537,-3584.7922L13985.1639,-3584.7939L13985.171,-3584.7345L13985.1722,-3584.7165L13985.1735,-3584.696L13985.1762,-3584.6742L13985.1773,-3584.6523L13985.1789,-3584.6315L13985.1795,-3584.6167L13985.1817,-3584.5987L13985.1827,-3584.585L13985.1838,-3584.5631L13985.1844,-3584.5467L13985.1855,-3584.5346L13985.1899,-3584.5316L13985.1966,-3584.5317L13985.2021,-3584.5318L13985.2204,-3584.5324L13985.2294,-3584.5328L13985.2384,-3584.5358L13985.2848,-3584.547L13985.4045,-3584.5765L13985.4883,-3584.5956L13985.4946,-3584.5972"/>
<path content="1,グローバル交通,002,37.0,22.0,22.0," xlink:title="1" d="M13985.4946,-3584.5972L13985.5187,-3584.5286L13985.5242,-3584.5168L13985.5318,-3584.4958L13985.5443,-3584.4766L13985.5538,-3584.454L13985.5631,-3584.4447L13985.5654,-3584.4424L13985.5957,-3584.4121"/>
<path content="1,グローバル交通,002,37.0,22.0,22.0," xlink:title="1" d="M13985.4946,-3584.5972L13985.5491,-3584.6108L13985.5872,-3584.6199L13985.5957,-3584.622"/>
<path content="1,マイスカイ交通,M-05,21.0,21.0,21.0," xlink:title="1" d="M13985.5957,-3584.622L13985.5872,-3584.6199L13985.5491,-3584.6108L13985.4946,-3584.5972L13985.5187,-3584.5286L13985.5242,-3584.5168L13985.5318,-3584.4958L13985.5443,-3584.4766L13985.5538,-3584.454L13985.5957,-3584.4121"/>
<path content="1,マイスカイ交通,M-05-1,28.0,28.0,28.0," xlink:title="1" d="M13985.5957,-3584.4121L13985.5654,-3584.4424L13985.5631,-3584.4447L13985.5538,-3584.454L13985.5443,-3584.4766L13985.5318,-3584.4958L13985.5242,-3584.5168L13985.5187,-3584.5286L13985.4946,-3584.5972L13985.5491,-3584.6108L13985.5872,-3584.6199L13985.5957,-3584.622"/>
<path content="1,マイスカイ交通,M-20,14.0,17.0,17.0," xlink:title="1" d="M13985.5957,-3583.9766L13985.589,-3583.9821L13985.5817,-3583.9881L13985.5957,-3583.9915"/>
<path content="1,マイスカイ交通,M-20,14.0,17.0,17.0," xlink:title="1" d="M13985.5957,-3584.4121L13985.5654,-3584.4424L13985.5631,-3584.4447L13985.5538,-3584.454L13985.5443,-3584.4766L13985.5318,-3584.4958L13985.5242,-3584.5168L13985.5187,-3584.5286L13985.4946,-3584.5972L13985.5491,-3584.6108L13985.5872,-3584.6199L13985.5957,-3584.622M13985.5957,-3584.9493L13985.594,-3584.95L13985.5743,-3584.9547L13985.5496,-3584.9589L13985.4815,-3584.97L13985.4613,-3584.9675L13985.4436,-3584.9649L13985.4208,-3584.9604L13985.4073,-3585.0238L13985.388,-3585.1019L13985.3886,-3585.1121L13985.3844,-3585.121L13985.3683,-3585.1821L13985.3639,-3585.198L13985.3404,-3585.2975L13985.3348,-3585.3374L13985.3229,-3585.3731L13985.3171,-3585.3977L13985.2959,-3585.4897L13985.2914,-3585.4986L13985.2696,-3585.5805L13985.2651,-3585.5944L13985.2423,-3585.6912L13985.2322,-3585.7286L13985.2246,-3585.7571L13985.2191,-3585.786L13985.2127,-3585.8023L13985.193,-3585.8858L13985.1801,-3585.9375"/>
<path content="1,メートー観光,001,35.0,29.0,29.0," xlink:title="1" d="M13985.5957,-3583.9915L13985.5817,-3583.9881L13985.589,-3583.9821L13985.5957,-3583.9766"/>
<path content="1,メートー観光,001,35.0,29.0,29.0," xlink:title="1" d="M13984.4999,-3585.9375L13984.4999,-3585.8981L13984.5008,-3585.8914L13984.5008,-3585.8753L13984.505,-3585.8216L13984.5057,-3585.7827L13984.5071,-3585.7737L13984.507,-3585.7242L13984.5071,-3585.6886L13984.5078,-3585.683L13984.5091,-3585.6723L13984.5168,-3585.6492L13984.5258,-3585.6216L13984.534,-3585.5991L13984.5382,-3585.5861L13984.5712,-3585.4921L13984.5716,-3585.4888L13984.606,-3585.3759L13984.6153,-3585.3529L13984.6247,-3585.3201L13984.6351,-3585.2863L13984.6489,-3585.2503L13984.6565,-3585.2199L13984.6579,-3585.19L13984.6635,-3585.1923L13984.6849,-3585.1951L13984.6964,-3585.1946L13984.7665,-3585.2075L13984.8115,-3585.2131L13984.8772,-3585.2233L13984.9008,-3585.2272L13984.9824,-3585.2398L13984.9984,-3585.2435L13985.0302,-3585.2492L13985.0717,-3585.2559L13985.0821,-3585.2576L13985.1215,-3585.2638L13985.2246,-3585.2807L13985.2475,-3585.2839L13985.2988,-3585.2925L13985.3293,-3585.2984L13985.3404,-3585.2975L13985.3639,-3585.198L13985.3683,-3585.1821L13985.3844,-3585.121L13985.3886,-3585.1121L13985.388,-3585.1019L13985.4073,-3585.0238L13985.4208,-3584.9604L13985.3761,-3584.8931L13985.3429,-3584.8396L13985.3346,-3584.8278L13985.3575,-3584.8311L13985.3768,-3584.8351L13985.4024,-3584.8407L13985.4177,-3584.8446L13985.426,-3584.8458L13985.5249,-3584.8678L13985.5263,-3584.8678L13985.5396,-3584.8719L13985.5838,-3584.8813L13985.5957,-3584.8837M13985.5957,-3584.622L13985.5872,-3584.6199L13985.5491,-3584.6108L13985.4946,-3584.5972L13985.5187,-3584.5286L13985.5242,-3584.5168L13985.5318,-3584.4958L13985.5443,-3584.4766L13985.5538,-3584.454L13985.5631,-3584.4447L13985.5654,-3584.4424L13985.5957,-3584.4121"/>
<path content="1,メートー観光,002（深夜のみ運行）,999.9,999.9,999.9," xlink:title="1" d="M13985.5957,-3585.543L13985.5953,-3585.5429L13985.5533,-3585.5399L13985.5138,-3585.5331L13985.5124,-3585.5331L13985.4751,-3585.5275L13985.3477,-3585.5067L13985.3395,-3585.5052L13985.3152,-3585.5016L13985.2914,-3585.4986L13985.2696,-3585.5805L13985.2651,-3585.5944L13985.2423,-3585.6912L13985.2322,-3585.7286L13985.2246,-3585.7571L13985.2191,-3585.786L13985.2127,-3585.8023L13985.193,-3585.8858L13985.1801,-3585.9375"/>
<path content="1,メートー観光,M-2,36.0,31.0,28.0," xlink:title="1" d="M13984.8171,-3585.9375L13984.7631,-3585.9298L13984.7167,-3585.9236L13984.7091,-3585.9219L13984.6973,-3585.9207L13984.6018,-3585.8982L13984.5742,-3585.8909L13984.5008,-3585.8753L13984.5008,-3585.8914L13984.4999,-3585.8981L13984.4999,-3585.9375"/>
<path content="1,メートー観光,M-3,35.0,29.0,29.0," xlink:title="1" d="M13985.5957,-3583.9915L13985.5817,-3583.9881L13985.589,-3583.9821L13985.5957,-3583.9766"/>
<path content="1,メートー観光,M-3,35.0,29.0,29.0," xlink:title="1" d="M13984.4999,-3585.9375L13984.4999,-3585.8981L13984.5008,-3585.8914L13984.5008,-3585.8753L13984.505,-3585.8216L13984.5057,-3585.7827L13984.5071,-3585.7737L13984.507,-3585.7242L13984.5071,-3585.6886L13984.5078,-3585.683L13984.5091,-3585.6723L13984.5168,-3585.6492L13984.5258,-3585.6216L13984.534,-3585.5991L13984.5382,-3585.5861L13984.5712,-3585.4921L13984.5716,-3585.4888L13984.606,-3585.3759L13984.6153,-3585.3529L13984.6247,-3585.3201L13984.6351,-3585.2863L13984.6489,-3585.2503L13984.6565,-3585.2199L13984.6579,-3585.19L13984.6635,-3585.1923L13984.6849,-3585.1951L13984.6964,-3585.1946L13984.7665,-3585.2075L13984.8115,-3585.2131L13984.8772,-3585.2233L13984.9008,-3585.2272L13984.9824,-3585.2398L13984.9984,-3585.2435L13985.0302,-3585.2492L13985.0717,-3585.2559L13985.0821,-3585.2576L13985.1215,-3585.2638L13985.2246,-3585.2807L13985.2475,-3585.2839L13985.2988,-3585.2925L13985.3293,-3585.2984L13985.3404,-3585.2975L13985.3639,-3585.198L13985.3683,-3585.1821L13985.3844,-3585.121L13985.3886,-3585.1121L13985.388,-3585.1019L13985.4073,-3585.0238L13985.4208,-3584.9604L13985.3761,-3584.8931L13985.3429,-3584.8396L13985.3346,-3584.8278L13985.3575,-3584.8311L13985.3768,-3584.8351L13985.4024,-3584.8407L13985.4177,-3584.8446L13985.426,-3584.8458L13985.5249,-3584.8678L13985.5263,-3584.8678L13985.5396,-3584.8719L13985.5838,-3584.8813L13985.5957,-3584.8837M13985.5957,-3584.622L13985.5872,-3584.6199L13985.5491,-3584.6108L13985.4946,-3584.5972L13985.5187,-3584.5286L13985.5242,-3584.5168L13985.5318,-3584.4958L13985.5443,-3584.4766L13985.5538,-3584.454L13985.5631,-3584.4447L13985.5654,-3584.4424L13985.5957,-3584.4121"/>
<path content="1,メートー観光,M1-1,59.5,40.5,34.0," xlink:title="1" d="M13984.1693,-3585.9375L13984.1697,-3585.9359L13984.1694,-3585.9275L13984.1721,-3585.9213L13984.1804,-3585.8819L13984.1839,-3585.8723L13984.1881,-3585.8486L13984.1929,-3585.8261L13984.1957,-3585.8131L13984.2012,-3585.7883L13984.2081,-3585.763L13984.2109,-3585.7478L13984.2116,-3585.7449L13984.2199,-3585.7157L13984.231,-3585.679L13984.233,-3585.6684L13984.2351,-3585.6616L13984.2455,-3585.6289L13984.2635,-3585.5765L13984.269,-3585.5641L13984.2718,-3585.5579L13984.2985,-3585.5047L13984.3064,-3585.4926L13984.3106,-3585.4875L13984.3438,-3585.4407L13984.377,-3585.3906L13984.3832,-3585.381L13984.3984,-3585.359L13984.4054,-3585.3449L13984.4316,-3585.2948L13984.4381,-3585.2783L13984.4649,-3585.2069L13984.4732,-3585.1759L13984.478,-3585.1624L13984.4842,-3585.1652L13984.5309,-3585.1757L13984.5638,-3585.1872L13984.5783,-3585.1911L13984.5922,-3585.1939L13984.615,-3585.1934L13984.6517,-3585.1894L13984.6579,-3585.19L13984.6635,-3585.1923L13984.6849,-3585.1951L13984.6964,-3585.1946L13984.7665,-3585.2075L13984.8115,-3585.2131L13984.8772,-3585.2233L13984.9008,-3585.2272L13984.9824,-3585.2398L13984.9984,-3585.2435L13985.0302,-3585.2492L13985.0717,-3585.2559L13985.0821,-3585.2576L13985.1215,-3585.2638L13985.2246,-3585.2807L13985.2475,-3585.2839L13985.2988,-3585.2925L13985.3293,-3585.2984L13985.3404,-3585.2975L13985.401,-3585.3061L13985.4419,-3585.3128L13985.464,-3585.3162L13985.491,-3585.3207L13985.556,-3585.3303L13985.5747,-3585.3337L13985.5957,-3585.3351"/>
<path content="1,メートー観光,M1-2,59.5,40.5,34.0," xlink:title="1" d="M13985.5957,-3585.3351L13985.5747,-3585.3337L13985.556,-3585.3303L13985.491,-3585.3207L13985.464,-3585.3162L13985.4419,-3585.3128L13985.401,-3585.3061L13985.3404,-3585.2975L13985.3293,-3585.2984L13985.2988,-3585.2925L13985.2475,-3585.2839L13985.2246,-3585.2807L13985.1215,-3585.2638L13985.0821,-3585.2576L13985.0717,-3585.2559L13985.0302,-3585.2492L13984.9984,-3585.2435L13984.9824,-3585.2398L13984.9008,-3585.2272L13984.8772,-3585.2233L13984.8115,-3585.2131L13984.7665,-3585.2075L13984.6964,-3585.1946L13984.6849,-3585.1951L13984.6635,-3585.1923L13984.6579,-3585.19L13984.6517,-3585.1894L13984.615,-3585.1934L13984.5922,-3585.1939L13984.5783,-3585.1911L13984.5638,-3585.1872L13984.5309,-3585.1757L13984.4842,-3585.1652L13984.478,-3585.1624L13984.4732,-3585.1759L13984.4649,-3585.2069L13984.4381,-3585.2783L13984.4316,-3585.2948L13984.4054,-3585.3449L13984.3984,-3585.359L13984.3832,-3585.381L13984.377,-3585.3906L13984.3438,-3585.4407L13984.3106,-3585.4875L13984.3064,-3585.4926L13984.2985,-3585.5047L13984.2718,-3585.5579L13984.269,-3585.5641L13984.2635,-3585.5765L13984.2455,-3585.6289L13984.2351,-3585.6616L13984.233,-3585.6684L13984.231,-3585.679L13984.2199,-3585.7157L13984.2116,-3585.7449L13984.2109,-3585.7478L13984.2081,-3585.763L13984.2012,-3585.7883L13984.1957,-3585.8131L13984.1929,-3585.8261L13984.1881,-3585.8486L13984.1839,-3585.8723L13984.1804,-3585.8819L13984.1721,-3585.9213L13984.1694,-3585.9275L13984.1697,-3585.9359L13984.1693,-3585.9375"/>
<path content="1,メートー観光,M1-3,35.0,29.0,29.0," xlink:title="1" d="M13984.1693,-3585.9375L13984.1697,-3585.9359L13984.1694,-3585.9275L13984.1721,-3585.9213L13984.1804,-3585.8819L13984.1839,-3585.8723L13984.1881,-3585.8486L13984.1929,-3585.8261L13984.1957,-3585.8131L13984.2012,-3585.7883L13984.2081,-3585.763L13984.2109,-3585.7478L13984.2116,-3585.7449L13984.2199,-3585.7157L13984.231,-3585.679L13984.233,-3585.6684L13984.2351,-3585.6616L13984.2455,-3585.6289L13984.2635,-3585.5765L13984.269,-3585.5641L13984.2718,-3585.5579L13984.2985,-3585.5047L13984.3064,-3585.4926L13984.3106,-3585.4875L13984.3438,-3585.4407L13984.377,-3585.3906L13984.3832,-3585.381L13984.3984,-3585.359L13984.4054,-3585.3449L13984.4316,-3585.2948L13984.4381,-3585.2783L13984.4649,-3585.2069L13984.4732,-3585.1759L13984.478,-3585.1624L13984.4794,-3585.1573L13984.4836,-3585.1393L13984.4884,-3585.1184L13984.4939,-3585.0752L13984.4981,-3585.0631L13984.4995,-3585.0503L13984.5008,-3585.0435L13984.5036,-3585.0103L13984.5098,-3584.9658L13984.5126,-3584.9449L13984.5154,-3584.9094L13984.5182,-3584.8948L13984.5512,-3584.8974L13984.5604,-3584.8998L13984.5631,-3584.901L13984.6033,-3584.906L13984.6749,-3584.9114L13984.6932,-3584.9168L13984.7147,-3584.9184L13984.7603,-3584.9224L13984.7769,-3584.9229L13984.7846,-3584.9241L13984.8461,-3584.9263L13984.898,-3584.9252L13984.9472,-3584.9239L13984.9527,-3584.9219L13984.9651,-3584.9224L13985.0053,-3584.9218L13985.0274,-3584.9207L13985.0662,-3584.9207L13985.1196,-3584.927L13985.1416,-3584.9281L13985.1526,-3584.9293L13985.2191,-3584.9371L13985.3236,-3584.9483L13985.3707,-3584.9552L13985.4041,-3584.9576L13985.4208,-3584.9604L13985.3761,-3584.8931L13985.3429,-3584.8396L13985.3346,-3584.8278L13985.3575,-3584.8311L13985.3768,-3584.8351L13985.4024,-3584.8407L13985.4177,-3584.8446L13985.426,-3584.8458L13985.5249,-3584.8678L13985.5263,-3584.8678L13985.5396,-3584.8719L13985.5838,-3584.8813L13985.5957,-3584.8837M13985.5957,-3584.622L13985.5872,-3584.6199L13985.5491,-3584.6108L13985.4946,-3584.5972L13985.5187,-3584.5286L13985.5242,-3584.5168L13985.5318,-3584.4958L13985.5443,-3584.4766L13985.5538,-3584.454L13985.5631,-3584.4447L13985.5654,-3584.4424L13985.5957,-3584.4121"/>
<path content="1,京浜急行バス（株）,朝霞台駅・志木駅・ふじみ野駅～羽田空港線,3.5,3.5,3.5," xlink:title="1" d="M13985.5957,-3583.9232L13985.5393,-3583.9781L13985.4042,-3584.1096L13985.3787,-3584.1323L13985.3416,-3584.1661L13985.3124,-3584.1928L13985.2899,-3584.213L13985.2678,-3584.2319L13985.2518,-3584.2462L13985.2283,-3584.2636L13985.1905,-3584.2886L13985.1762,-3584.2973L13985.1598,-3584.3067L13985.145,-3584.315L13985.1214,-3584.3258L13985.0818,-3584.3448L13985.036,-3584.3655L13984.9479,-3584.3901L13984.8644,-3584.4054L13984.6728,-3584.4287L13984.5825,-3584.4366L13984.5418,-3584.4401L13984.3702,-3584.4528L13984.3411,-3584.4551L13984.2093,-3584.4655L13984.0992,-3584.4739L13984.0027,-3584.4892L13983.9722,-3584.4974L13983.9087,-3584.5146L13983.86,-3584.5318L13983.7592,-3584.5707L13983.6696,-3584.6114L13983.5924,-3584.6491L13983.5575,-3584.6684L13983.5423,-3584.6768L13983.5277,-3584.6849L13983.4722,-3584.7187L13983.3984,-3584.7554"/>
<path content="1,千葉交通,しらこばと号,3.0,3.0,3.0," xlink:title="1" d="M13983.3984,-3584.7554L13983.4722,-3584.7187L13983.5277,-3584.6849L13983.5423,-3584.6768L13983.5575,-3584.6684L13983.5924,-3584.6491L13983.6696,-3584.6114L13983.7592,-3584.5707L13983.86,-3584.5318L13983.9087,-3584.5146L13983.9722,-3584.4974L13984.0027,-3584.4892L13984.0992,-3584.4739L13984.2093,-3584.4655L13984.3411,-3584.4551L13984.3702,-3584.4528L13984.5418,-3584.4401L13984.5825,-3584.4366L13984.6728,-3584.4287L13984.8644,-3584.4054L13984.9479,-3584.3901L13985.036,-3584.3655L13985.0818,-3584.3448L13985.1214,-3584.3258L13985.145,-3584.315L13985.1598,-3584.3067L13985.1762,-3584.2973L13985.1905,-3584.2886L13985.2283,-3584.2636L13985.2518,-3584.2462L13985.2678,-3584.2319L13985.2899,-3584.213L13985.3124,-3584.1928L13985.3416,-3584.1661L13985.3787,-3584.1323L13985.4042,-3584.1096L13985.5393,-3583.9781L13985.5957,-3583.9232"/>
<path content="1,千葉交通,サルビア号,3.0,3.0,3.0," xlink:title="1" d="M13985.5957,-3583.9232L13985.5393,-3583.9781L13985.4042,-3584.1096L13985.3787,-3584.1323L13985.3416,-3584.1661L13985.3124,-3584.1928L13985.2899,-3584.213L13985.2678,-3584.2319L13985.2518,-3584.2462L13985.2283,-3584.2636L13985.1905,-3584.2886L13985.1762,-3584.2973L13985.1598,-3584.3067L13985.145,-3584.315L13985.1214,-3584.3258L13985.0818,-3584.3448L13985.036,-3584.3655L13984.9479,-3584.3901L13984.8644,-3584.4054L13984.6728,-3584.4287L13984.5825,-3584.4366L13984.5418,-3584.4401L13984.3702,-3584.4528L13984.3411,-3584.4551L13984.2093,-3584.4655L13984.0992,-3584.4739L13984.0027,-3584.4892L13983.9722,-3584.4974L13983.9087,-3584.5146L13983.86,-3584.5318L13983.7592,-3584.5707L13983.6696,-3584.6114L13983.5924,-3584.6491L13983.5575,-3584.6684L13983.5423,-3584.6768L13983.5277,-3584.6849L13983.4722,-3584.7187L13983.3984,-3584.7554"/>
<path content="1,千葉交通,フォレスト号,1.0,1.0,1.0," xlink:title="1" d="M13983.3984,-3584.7554L13983.4722,-3584.7187L13983.5277,-3584.6849L13983.5423,-3584.6768L13983.5575,-3584.6684L13983.5924,-3584.6491L13983.6696,-3584.6114L13983.7592,-3584.5707L13983.86,-3584.5318L13983.9087,-3584.5146L13983.9722,-3584.4974L13984.0027,-3584.4892L13984.0992,-3584.4739L13984.2093,-3584.4655L13984.3411,-3584.4551L13984.3702,-3584.4528L13984.5418,-3584.4401L13984.5825,-3584.4366L13984.6728,-3584.4287L13984.8644,-3584.4054L13984.9479,-3584.3901L13985.036,-3584.3655L13985.0818,-3584.3448L13985.1214,-3584.3258L13985.145,-3584.315L13985.1598,-3584.3067L13985.1762,-3584.2973L13985.1905,-3584.2886L13985.2283,-3584.2636L13985.2518,-3584.2462L13985.2678,-3584.2319L13985.2899,-3584.213L13985.3124,-3584.1928L13985.3416,-3584.1661L13985.3787,-3584.1323L13985.4042,-3584.1096L13985.5393,-3583.9781L13985.5957,-3583.9232"/>
<path content="1,千葉交通,坂戸駅南口・川越駅西口～成田空港,4.0,4.0,4.0," xlink:title="1" d="M13983.3984,-3584.7554L13983.4722,-3584.7187L13983.5277,-3584.6849L13983.5423,-3584.6768L13983.5575,-3584.6684L13983.5924,-3584.6491L13983.6696,-3584.6114L13983.7592,-3584.5707L13983.86,-3584.5318L13983.9087,-3584.5146L13983.9722,-3584.4974L13984.0027,-3584.4892L13984.0992,-3584.4739L13984.2093,-3584.4655L13984.3411,-3584.4551L13984.3702,-3584.4528L13984.5418,-3584.4401L13984.5825,-3584.4366L13984.6728,-3584.4287L13984.8644,-3584.4054L13984.9479,-3584.3901L13985.036,-3584.3655L13985.0818,-3584.3448L13985.1214,-3584.3258L13985.145,-3584.315L13985.1598,-3584.3067L13985.1762,-3584.2973L13985.1905,-3584.2886L13985.2283,-3584.2636L13985.2518,-3584.2462L13985.2678,-3584.2319L13985.2899,-3584.213L13985.3124,-3584.1928L13985.3416,-3584.1661L13985.3787,-3584.1323L13985.4042,-3584.1096L13985.5393,-3583.9781L13985.5957,-3583.9232"/>
<path content="1,東武バスイースト,ミッドナイトアロー柏・我孫子,0.5,0.0,0.0," xlink:title="1" d="M13985.5957,-3583.969L13985.5858,-3583.9791L13985.589,-3583.9821L13985.5817,-3583.9881L13985.5626,-3584.0053L13985.5519,-3584.0153L13985.5425,-3584.0232L13985.5259,-3584.039L13985.4869,-3584.0734L13985.4253,-3584.128L13985.3933,-3584.1567L13985.3699,-3584.1776L13985.289,-3584.2497L13985.246,-3584.2849L13985.2454,-3584.3025L13985.2452,-3584.3088L13985.2447,-3584.3325L13985.244,-3584.3387L13985.2421,-3584.4281L13985.2419,-3584.4672L13985.2406,-3584.4689L13985.2384,-3584.5358L13985.2392,-3584.5719L13985.2378,-3584.5798L13985.2371,-3584.5945L13985.2343,-3584.608L13985.2336,-3584.6199L13985.2318,-3584.6372L13985.2351,-3584.6589L13985.2383,-3584.6711L13985.2448,-3584.6843L13985.253,-3584.699L13985.3205,-3584.8055L13985.3346,-3584.8278L13985.3429,-3584.8396L13985.3761,-3584.8931L13985.4208,-3584.9604L13985.4073,-3585.0238L13985.388,-3585.1019L13985.3886,-3585.1121L13985.3844,-3585.121L13985.3683,-3585.1821L13985.3639,-3585.198L13985.3404,-3585.2975L13985.3348,-3585.3374L13985.3229,-3585.3731L13985.3171,-3585.3977L13985.2959,-3585.4897L13985.2914,-3585.4986L13985.3152,-3585.5016L13985.3395,-3585.5052L13985.3477,-3585.5067L13985.4751,-3585.5275L13985.5124,-3585.5331L13985.5138,-3585.5331L13985.5533,-3585.5399L13985.5953,-3585.5429L13985.5957,-3585.543"/>
<path content="1,東武バスセントラル（株）,ミッドナイトアロー吉川・三郷,1.0,0.0,0.0," xlink:title="1" d="M13985.1801,-3585.9375L13985.193,-3585.8858L13985.2127,-3585.8023L13985.2191,-3585.786L13985.2246,-3585.7571L13985.2322,-3585.7286L13985.2423,-3585.6912L13985.2651,-3585.5944L13985.2696,-3585.5805L13985.2914,-3585.4986L13985.3152,-3585.5016L13985.3395,-3585.5052L13985.3477,-3585.5067L13985.4751,-3585.5275L13985.5124,-3585.5331L13985.5138,-3585.5331L13985.5533,-3585.5399L13985.5953,-3585.5429L13985.5957,-3585.543"/>
<path content="1,東武バスセントラル（株）,三07,69.0,68.0,68.0," xlink:title="1" d="M13985.1801,-3585.9375L13985.193,-3585.8858L13985.2127,-3585.8023L13985.2191,-3585.786L13985.2246,-3585.7571L13985.2322,-3585.7286L13985.2423,-3585.6912L13985.2651,-3585.5944L13985.2696,-3585.5805L13985.2914,-3585.4986L13985.3152,-3585.5016L13985.3395,-3585.5052L13985.3477,-3585.5067L13985.4751,-3585.5275L13985.5124,-3585.5331L13985.5138,-3585.5331L13985.5533,-3585.5399L13985.5953,-3585.5429L13985.5957,-3585.543"/>
<path content="1,東武バスセントラル（株）,八01,39.0,38.0,38.0," xlink:title="1" d="M13983.3984,-3584.6277L13983.4845,-3584.6605L13983.5145,-3584.669L13983.5344,-3584.6746L13983.5408,-3584.6764L13983.5423,-3584.6768L13983.5494,-3584.6788L13983.5564,-3584.6808L13983.557,-3584.6747L13983.5575,-3584.6684L13983.5577,-3584.6667L13983.5582,-3584.6614L13983.5597,-3584.6449L13983.5606,-3584.6346L13983.5636,-3584.6244L13983.5633,-3584.6153L13983.564,-3584.601L13983.5667,-3584.5815L13983.5667,-3584.5714L13983.5756,-3584.5004L13983.5792,-3584.4666L13983.5827,-3584.4503L13983.5854,-3584.4142L13983.5878,-3584.4002L13983.5979,-3584.3105L13983.6,-3584.2914L13983.609,-3584.1882L13983.6153,-3584.1217L13983.6208,-3584.0649L13983.6208,-3584.0497L13983.6227,-3583.9993L13983.6201,-3583.9595L13983.6175,-3583.8732L13983.6145,-3583.7939L13983.6135,-3583.7402"/>
<path content="1,東武バスセントラル（株）,松01,7.0,7.0,7.0," xlink:title="1" d="M13983.6145,-3584.6947L13983.6394,-3584.6998L13983.7231,-3584.7144L13983.7245,-3584.7156L13983.7612,-3584.7223L13983.7653,-3584.7229L13983.7854,-3584.7257L13983.9121,-3584.7484L13983.9611,-3584.7573L13983.9902,-3584.7624L13984.0569,-3584.7728L13984.0651,-3584.7754L13984.0831,-3584.7761L13984.1813,-3584.7982L13984.2684,-3584.8179L13984.275,-3584.8193L13984.2988,-3584.8275L13984.3086,-3584.8304L13984.3729,-3584.8553L13984.3964,-3584.8638L13984.4199,-3584.8734L13984.4697,-3584.8863L13984.5106,-3584.8942L13984.5182,-3584.8948L13984.5512,-3584.8974L13984.5604,-3584.8998L13984.5631,-3584.901L13984.6033,-3584.906L13984.6749,-3584.9114L13984.6932,-3584.9168L13984.7147,-3584.9184L13984.7603,-3584.9224L13984.7769,-3584.9229L13984.7846,-3584.9241L13984.8461,-3584.9263L13984.898,-3584.9252L13984.9472,-3584.9239L13984.9527,-3584.9219L13984.9651,-3584.9224L13985.0053,-3584.9218L13985.0274,-3584.9207L13985.0662,-3584.9207L13985.1196,-3584.927L13985.1416,-3584.9281L13985.1526,-3584.9293L13985.1639,-3584.7939L13985.171,-3584.7345L13985.1722,-3584.7165L13985.1735,-3584.696L13985.1762,-3584.6742L13985.1773,-3584.6523L13985.1789,-3584.6315L13985.1795,-3584.6167L13985.1817,-3584.5987L13985.1827,-3584.585L13985.1838,-3584.5631L13985.1844,-3584.5467L13985.1855,-3584.5346L13985.1899,-3584.5316L13985.1966,-3584.5317L13985.2021,-3584.5318L13985.2204,-3584.5324L13985.2294,-3584.5328L13985.2384,-3584.5358L13985.2848,-3584.547L13985.4045,-3584.5765L13985.4883,-3584.5956L13985.4946,-3584.5972L13985.5187,-3584.5286L13985.5242,-3584.5168L13985.5318,-3584.4958L13985.5443,-3584.4766L13985.5538,-3584.454L13985.5631,-3584.4447L13985.5654,-3584.4424L13985.5957,-3584.4121"/>
<path content="1,東武バスセントラル（株）,松01,7.0,7.0,7.0," xlink:title="1" d="M13983.3984,-3584.7071L13983.4076,-3584.7021L13983.4304,-3584.6897L13983.4477,-3584.6789L13983.4845,-3584.6605L13983.5145,-3584.669L13983.5344,-3584.6746L13983.5408,-3584.6764L13983.5423,-3584.6768L13983.5494,-3584.6788L13983.5564,-3584.6808L13983.5674,-3584.6839L13983.5778,-3584.6869L13983.6145,-3584.6947"/>
<path content="1,東武バスセントラル（株）,松01,7.0,7.0,7.0," xlink:title="1" d="M13983.3984,-3584.8086L13983.4277,-3584.7939L13983.5516,-3584.7286L13983.6145,-3584.6947"/>
<path content="1,東武バスセントラル（株）,松02,35.0,30.0,43.5," xlink:title="1" d="M13983.3984,-3584.6277L13983.4845,-3584.6605L13983.5145,-3584.669L13983.5344,-3584.6746L13983.5408,-3584.6764L13983.5423,-3584.6768L13983.5494,-3584.6788L13983.5564,-3584.6808L13983.557,-3584.6747L13983.5575,-3584.6684L13983.5577,-3584.6667L13983.5582,-3584.6614L13983.5597,-3584.6449L13983.5606,-3584.6346L13983.5636,-3584.6244L13983.5633,-3584.6153L13983.564,-3584.601L13983.5667,-3584.5815L13983.5667,-3584.5714L13983.5756,-3584.5004"/>
<path content="1,東武バスセントラル（株）,草09,66.0,46.5,44.0," xlink:title="1" d="M13983.6135,-3583.7402L13983.6145,-3583.7939L13983.6175,-3583.8732L13983.6201,-3583.9595L13983.6227,-3583.9993L13983.6208,-3584.0497L13983.6208,-3584.0649L13983.6153,-3584.1217L13983.609,-3584.1882L13983.6,-3584.2914L13983.5979,-3584.3105L13983.5878,-3584.4002L13983.5854,-3584.4142L13983.5827,-3584.4503L13983.5792,-3584.4666L13983.5756,-3584.5004"/>
<path content="1,東野交通（株）,JR黒磯駅～羽田空港,1.0,1.0,1.0," xlink:title="1" d="M13985.5957,-3583.9232L13985.5393,-3583.9781L13985.4042,-3584.1096L13985.3787,-3584.1323L13985.3416,-3584.1661L13985.3124,-3584.1928L13985.2899,-3584.213L13985.2678,-3584.2319L13985.2518,-3584.2462L13985.2283,-3584.2636L13985.1905,-3584.2886L13985.1762,-3584.2973L13985.1598,-3584.3067L13985.145,-3584.315L13985.1214,-3584.3258L13985.0818,-3584.3448L13985.036,-3584.3655L13984.9479,-3584.3901L13984.8644,-3584.4054L13984.6728,-3584.4287L13984.5825,-3584.4366L13984.5418,-3584.4401L13984.3702,-3584.4528L13984.3411,-3584.4551L13984.2093,-3584.4655L13984.0992,-3584.4739L13984.0027,-3584.4892L13983.9722,-3584.4974L13983.9087,-3584.5146L13983.86,-3584.5318L13983.7592,-3584.5707L13983.6696,-3584.6114L13983.5924,-3584.6491L13983.5575,-3584.6684L13983.5423,-3584.6768L13983.5277,-3584.6849L13983.4722,-3584.7187L13983.3984,-3584.7554"/>
<path content="1,関東自動車（株）,サルビア号,3.0,3.0,3.0," xlink:title="1" d="M13985.5957,-3583.9232L13985.5393,-3583.9781L13985.4042,-3584.1096L13985.3787,-3584.1323L13985.3416,-3584.1661L13985.3124,-3584.1928L13985.2899,-3584.213L13985.2678,-3584.2319L13985.2518,-3584.2462L13985.2283,-3584.2636L13985.1905,-3584.2886L13985.1762,-3584.2973L13985.1598,-3584.3067L13985.145,-3584.315L13985.1214,-3584.3258L13985.0818,-3584.3448L13985.036,-3584.3655L13984.9479,-3584.3901L13984.8644,-3584.4054L13984.6728,-3584.4287L13984.5825,-3584.4366L13984.5418,-3584.4401L13984.3702,-3584.4528L13984.3411,-3584.4551L13984.2093,-3584.4655L13984.0992,-3584.4739L13984.0027,-3584.4892L13983.9722,-3584.4974L13983.9087,-3584.5146L13983.86,-3584.5318L13983.7592,-3584.5707L13983.6696,-3584.6114L13983.5924,-3584.6491L13983.5575,-3584.6684L13983.5423,-3584.6768L13983.5277,-3584.6849L13983.4722,-3584.7187L13983.3984,-3584.7554"/>
<path content="1,関東自動車（株）,マロニエ号　成田空港,5.0,5.0,5.0," xlink:title="1" d="M13983.3984,-3584.7554L13983.4722,-3584.7187L13983.5277,-3584.6849L13983.5423,-3584.6768L13983.5575,-3584.6684L13983.5924,-3584.6491L13983.6696,-3584.6114L13983.7592,-3584.5707L13983.86,-3584.5318L13983.9087,-3584.5146L13983.9722,-3584.4974L13984.0027,-3584.4892L13984.0992,-3584.4739L13984.2093,-3584.4655L13984.3411,-3584.4551L13984.3702,-3584.4528L13984.5418,-3584.4401L13984.5825,-3584.4366L13984.6728,-3584.4287L13984.8644,-3584.4054L13984.9479,-3584.3901L13985.036,-3584.3655L13985.0818,-3584.3448L13985.1214,-3584.3258L13985.145,-3584.315L13985.1598,-3584.3067L13985.1762,-3584.2973L13985.1905,-3584.2886L13985.2283,-3584.2636L13985.2518,-3584.2462L13985.2678,-3584.2319L13985.2899,-3584.213L13985.3124,-3584.1928L13985.3416,-3584.1661L13985.3787,-3584.1323L13985.4042,-3584.1096L13985.5393,-3583.9781L13985.5957,-3583.9232"/>
<path content="1,関東自動車（株）,メープル号,3.0,3.0,3.0," xlink:title="1" d="M13985.5957,-3583.9232L13985.5393,-3583.9781L13985.4042,-3584.1096L13985.3787,-3584.1323L13985.3416,-3584.1661L13985.3124,-3584.1928L13985.2899,-3584.213L13985.2678,-3584.2319L13985.2518,-3584.2462L13985.2283,-3584.2636L13985.1905,-3584.2886L13985.1762,-3584.2973L13985.1598,-3584.3067L13985.145,-3584.315L13985.1214,-3584.3258L13985.0818,-3584.3448L13985.036,-3584.3655L13984.9479,-3584.3901L13984.8644,-3584.4054L13984.6728,-3584.4287L13984.5825,-3584.4366L13984.5418,-3584.4401L13984.3702,-3584.4528L13984.3411,-3584.4551L13984.2093,-3584.4655L13984.0992,-3584.4739L13984.0027,-3584.4892L13983.9722,-3584.4974L13983.9087,-3584.5146L13983.86,-3584.5318L13983.7592,-3584.5707L13983.6696,-3584.6114L13983.5924,-3584.6491L13983.5575,-3584.6684L13983.5423,-3584.6768L13983.5277,-3584.6849L13983.4722,-3584.7187L13983.3984,-3584.7554"/>
<path content="3,八潮市,八03,8.0,8.0,8.0," xlink:title="3" d="M13983.5377,-3584.8564L13983.5404,-3584.8334L13983.5428,-3584.8118L13983.5516,-3584.7286L13983.5545,-3584.7024L13983.5556,-3584.6905L13983.5564,-3584.6808L13983.557,-3584.6747L13983.5575,-3584.6684L13983.5577,-3584.6667L13983.5582,-3584.6614L13983.5597,-3584.6449L13983.5606,-3584.6346L13983.5636,-3584.6244L13983.5633,-3584.6153L13983.564,-3584.601L13983.5667,-3584.5815L13983.5667,-3584.5714L13983.5756,-3584.5004L13983.5792,-3584.4666L13983.5827,-3584.4503L13983.5854,-3584.4142L13983.5878,-3584.4002L13983.5979,-3584.3105L13983.6,-3584.2914L13983.6795,-3584.2964L13983.7051,-3584.2987L13983.719,-3584.2993L13983.7231,-3584.3004L13983.8078,-3584.3056L13983.8329,-3584.3071L13983.8365,-3584.308L13983.8838,-3584.3117L13983.892,-3584.3125L13983.9413,-3584.3151L13983.9637,-3584.3172L13984.0041,-3584.3201L13984.0435,-3584.3235L13984.1113,-3584.3274L13984.112,-3584.3224L13984.1175,-3584.288L13984.1334,-3584.2164L13984.1473,-3584.1663L13984.1724,-3584.1015L13984.1872,-3584.0592L13984.1859,-3584.0543L13984.1888,-3584.0074L13984.1869,-3583.9953L13984.1647,-3583.9134L13984.1349,-3583.8012L13984.1231,-3583.7511L13984.1208,-3583.7402"/>
<path content="3,八潮市,八03,8.0,8.0,8.0," xlink:title="3" d="M13983.5377,-3584.8564L13983.5319,-3584.9008L13983.5252,-3584.9421L13983.5155,-3584.9866L13983.5072,-3585.026L13983.5045,-3585.0489L13983.4989,-3585.0587L13983.4892,-3585.1021L13983.4879,-3585.106L13983.4733,-3585.1691L13983.4699,-3585.1798L13983.4505,-3585.2604L13983.4465,-3585.277L13983.4527,-3585.2786L13983.4408,-3585.3004L13983.4104,-3585.4252L13983.4071,-3585.4486L13983.3984,-3585.4767M13983.3984,-3585.7694L13983.4394,-3585.7765L13983.4567,-3585.7787L13983.4976,-3585.7827L13983.5224,-3585.7866L13983.548,-3585.7889L13983.5563,-3585.7906L13983.566,-3585.7917L13983.593,-3585.7945L13983.6131,-3585.7968L13983.6283,-3585.7984L13983.7183,-3585.808L13983.721,-3585.8092L13983.8096,-3585.8193L13983.8154,-3585.8068L13983.8158,-3585.8058L13983.8407,-3585.7669L13983.8574,-3585.7438L13983.8622,-3585.7308L13983.8636,-3585.7179L13983.8635,-3585.7022L13983.8629,-3585.6903L13983.8622,-3585.6762L13983.8581,-3585.5945L13983.8516,-3585.5083L13983.8442,-3585.4711L13983.8428,-3585.4514L13983.8435,-3585.4429L13983.8463,-3585.4368L13983.9009,-3585.3556L13983.9051,-3585.3477L13983.9072,-3585.3376L13983.9072,-3585.2908L13983.9037,-3585.2401L13983.9022,-3585.2213L13983.9009,-3585.2058L13983.9009,-3585.1759L13983.9022,-3585.1701L13983.9023,-3585.1697L13983.9016,-3585.159L13983.907,-3585.0974L13983.9072,-3585.0756L13983.9086,-3585.0638L13983.9127,-3585.0452L13983.9146,-3585.0347L13983.9414,-3584.9455L13983.9508,-3584.9128L13983.9522,-3584.8987L13983.9356,-3584.8998L13983.8767,-3584.8959L13983.8424,-3584.8936L13983.8298,-3584.8929L13983.7957,-3584.8901L13983.753,-3584.8863L13983.6195,-3584.872L13983.6034,-3584.8694L13983.5751,-3584.8638L13983.5695,-3584.8621L13983.5377,-3584.8564"/>
<path content="3,八潮市,八04,9.5,9.5,9.5," xlink:title="3" d="M13984.1208,-3583.7402L13984.1231,-3583.7511L13984.1349,-3583.8012L13984.1647,-3583.9134L13984.1869,-3583.9953L13984.1888,-3584.0074L13984.1859,-3584.0543L13984.1872,-3584.0592L13984.1724,-3584.1015L13984.1473,-3584.1663L13984.1334,-3584.2164L13984.1175,-3584.288L13984.112,-3584.3224L13984.1113,-3584.3274L13984.0435,-3584.3235L13984.0041,-3584.3201L13983.9637,-3584.3172L13983.9413,-3584.3151L13983.892,-3584.3125L13983.8838,-3584.3117L13983.8365,-3584.308L13983.8329,-3584.3071L13983.8078,-3584.3056L13983.7231,-3584.3004L13983.719,-3584.2993L13983.7051,-3584.2987L13983.6795,-3584.2964L13983.6,-3584.2914L13983.5979,-3584.3105L13983.5878,-3584.4002L13983.5854,-3584.4142L13983.5827,-3584.4503L13983.5792,-3584.4666L13983.5756,-3584.5004"/>
</g>
</svg>
