<?xml version="1.0" encoding="UTF-8"?>
<svg  xmlns="http://www.w3.org/2000/svg" xmlns:xlink="http://www.w3.org/1999/xlink" xmlns:go="http://purl.org/svgmap/profile" property="N07_001,N07_002,N07_003,N07_004,N07_005,N07_006,N07_007" viewBox="13702.1484375 -3647.4609375 8.7890625 8.7890625" go:dataArea="13702.1484375 -3647.4609375 8.7890625 8.7890625" >
<metadata>
 <rdf:RDF xmlns:rdf="http://www.w3.org/1999/02/22-rdf-syntax-ns#" xmlns:crs="http://opengis.org/xmldtds/transformations.dtd" xmlns:svg="http://www.w3.org/svg" >
  <rdf:Description>
   <crs:CoordinateReferenceSystem rdf:resource="http://purl.org/crs/84" svg:transform="matrix(100.0,0.0,0.0,-100.0,0.0,0.0)" />
  </rdf:Description>
 </rdf:RDF>
</metadata>
<globalCoordinateSystem srsName="http://purl.org/crs/84" transform="matrix(100.0,0.0,0.0,-100.0,0.0,0.0)" />
<defs>
 <g id="p0" >
  <circle cx="0.0" cy="0.0" r="3" stroke="green" stroke-width="0.75" vector-effect="non-scaling-stroke" />
 </g>
</defs>
<g fill="none" fill-rule="evenodd" stroke="#FF00FF" stroke-width="0.75" opacity="0.5" vector-effect="non-scaling-stroke" stroke-linejoin="bevel" >
<path content="2,南砺市,利賀下梨線,0.4,0.0,0.0," xlink:title="2" d="M13702.1484,-3645.1761L13702.1715,-3645.1834L13702.1877,-3645.1852L13702.3384,-3645.1536L13702.3579,-3645.1555L13702.3682,-3645.1588L13702.3936,-3645.2018L13702.3922,-3645.2248L13702.3901,-3645.2614L13702.3901,-3645.2687L13702.3971,-3645.3239L13702.4019,-3645.3391L13702.4096,-3645.3481L13702.4159,-3645.3526L13702.4243,-3645.3566L13702.434,-3645.3583L13702.4486,-3645.3571L13702.4654,-3645.3526L13702.4967,-3645.3419L13702.5126,-3645.3402L13702.5399,-3645.3402L13702.5525,-3645.3464L13702.5692,-3645.3583L13702.5713,-3645.3611L13702.5762,-3645.3661L13702.5789,-3645.3729L13702.5782,-3645.4022L13702.5782,-3645.4219L13702.5796,-3645.4298L13702.5957,-3645.4641L13702.6145,-3645.499L13702.6187,-3645.5103L13702.6187,-3645.5243L13702.6145,-3645.535L13702.6026,-3645.5525L13702.5901,-3645.5683L13702.5782,-3645.5868L13702.5734,-3645.5998L13702.57,-3645.6153L13702.5782,-3645.6263L13702.5901,-3645.6437L13702.6131,-3645.6646L13702.6177,-3645.6716L13702.6187,-3645.682L13702.6187,-3645.6978L13702.6089,-3645.7349L13702.6096,-3645.7557L13702.6131,-3645.7636L13702.6235,-3645.7749L13702.6336,-3645.781L13702.6479,-3645.7859L13702.6579,-3645.7876"/>
<path content="2,南砺市,利賀井波線,2.0,2.0,2.0," xlink:title="2" d="M13702.7086,-3645.7907L13702.6923,-3645.7904L13702.6688,-3645.7895L13702.6579,-3645.7876L13702.6479,-3645.7859L13702.6336,-3645.781L13702.6235,-3645.7749L13702.6131,-3645.7636L13702.6096,-3645.7557L13702.6089,-3645.7349L13702.6187,-3645.6978L13702.6187,-3645.682L13702.6177,-3645.6716L13702.6131,-3645.6646L13702.5901,-3645.6437L13702.5782,-3645.6263L13702.57,-3645.6153L13702.5734,-3645.5998L13702.5782,-3645.5868L13702.5901,-3645.5683L13702.6026,-3645.5525L13702.6145,-3645.535L13702.6187,-3645.5243L13702.6187,-3645.5103L13702.6145,-3645.499L13702.5957,-3645.4641L13702.5796,-3645.4298L13702.5782,-3645.4219L13702.5782,-3645.4022L13702.5789,-3645.3729L13702.5762,-3645.3661L13702.5713,-3645.3611L13702.5692,-3645.3583L13702.5525,-3645.3464L13702.5399,-3645.3402L13702.5126,-3645.3402L13702.4967,-3645.3419L13702.4654,-3645.3526L13702.4486,-3645.3571L13702.434,-3645.3583L13702.4243,-3645.3566L13702.4159,-3645.3526L13702.4096,-3645.3481L13702.4019,-3645.3391L13702.3971,-3645.3239L13702.3901,-3645.2687L13702.3901,-3645.2614L13702.3922,-3645.2248L13702.3936,-3645.2018L13702.3682,-3645.1588L13702.3579,-3645.1555L13702.3384,-3645.1536L13702.1877,-3645.1852L13702.1715,-3645.1834L13702.1484,-3645.1761"/>
<path content="2,南砺市,利賀井波線,2.0,2.0,2.0," xlink:title="2" d="M13702.7086,-3645.7907L13702.6876,-3645.7372L13702.6779,-3645.7079L13702.6619,-3645.6426L13702.6591,-3645.624L13702.6598,-3645.6077L13702.6633,-3645.5987L13702.6758,-3645.5778L13702.6911,-3645.5598L13702.7016,-3645.5503L13702.7253,-3645.5362L13702.7993,-3645.5004L13702.8208,-3645.49L13702.8312,-3645.4793L13702.8382,-3645.4624L13702.8396,-3645.4517L13702.8361,-3645.4331L13702.8334,-3645.4268L13702.8303,-3645.4215L13702.8303,-3645.4183"/>
<path content="2,南砺市,利賀井波線,2.0,2.0,2.0," xlink:title="2" d="M13703.2792,-3647.4609L13703.2807,-3647.4538L13703.2837,-3647.4445L13703.2877,-3647.4348L13703.2938,-3647.427L13703.3004,-3647.4174L13703.3035,-3647.4124L13703.3058,-3647.4082L13703.3066,-3647.4037L13703.3067,-3647.3982L13703.3055,-3647.3939L13703.3034,-3647.3886L13703.3003,-3647.3839L13703.2961,-3647.3792L13703.2848,-3647.3713L13703.2527,-3647.3487L13703.237,-3647.3376L13703.2296,-3647.3316L13703.2233,-3647.3258L13703.2191,-3647.3213L13703.2104,-3647.3128L13703.2034,-3647.3053L13703.1992,-3647.2996L13703.1973,-3647.2968L13703.1956,-3647.2923L13703.1956,-3647.2737L13703.1935,-3647.2605L13703.1914,-3647.2534L13703.1747,-3647.2237L13703.1703,-3647.2138L13703.1676,-3647.2053L13703.1671,-3647.1939L13703.1683,-3647.1798L13703.1726,-3647.1307L13703.174,-3647.0969L13703.1734,-3647.0575L13703.1685,-3647.0378L13703.1671,-3647.0248L13703.1667,-3647.0065L13703.165,-3646.9319L13703.1601,-3646.8334L13703.157,-3646.8274L13703.1538,-3646.8233L13703.1274,-3646.803L13703.1211,-3646.7963L13703.1165,-3646.7876L13703.1134,-3646.7805L13703.1113,-3646.772L13703.1092,-3646.7534L13703.1071,-3646.7214L13703.1022,-3646.7045L13703.096,-3646.6961L13703.0847,-3646.6891L13703.0662,-3646.6824L13703.0316,-3646.674L13703.0107,-3646.67L13702.9887,-3646.6675L13702.9701,-3646.6661L13702.9252,-3646.6669L13702.9117,-3646.6695L13702.8907,-3646.6761L13702.88,-3646.6761L13702.8729,-3646.6743L13702.8572,-3646.6697L13702.8354,-3646.6607L13702.8246,-3646.6533L13702.8154,-3646.6438L13702.8139,-3646.6383L13702.8138,-3646.6335L13702.8235,-3646.6149L13702.8284,-3646.6014L13702.8284,-3646.5862L13702.8089,-3646.526L13702.8033,-3646.5006L13702.802,-3646.4911L13702.8024,-3646.4834L13702.8055,-3646.4731L13702.8122,-3646.4577L13702.8148,-3646.4509L13702.8159,-3646.446L13702.8166,-3646.4388L13702.8166,-3646.4309L13702.8138,-3646.4134L13702.8129,-3646.3949L13702.8125,-3646.3851L13702.8138,-3646.3706L13702.8162,-3646.3605L13702.82,-3646.352L13702.8242,-3646.3469L13702.8305,-3646.342L13702.8451,-3646.3351L13702.8818,-3646.3256L13702.9273,-3646.3117L13702.9361,-3646.3084L13702.943,-3646.3048L13702.9481,-3646.3009L13702.9517,-3646.2964L13702.9539,-3646.2917L13702.9557,-3646.2877L13702.9554,-3646.28L13702.9531,-3646.2738L13702.9469,-3646.2662L13702.9416,-3646.2611L13702.9331,-3646.2561L13702.9054,-3646.2456L13702.8972,-3646.2406L13702.8929,-3646.2363L13702.8911,-3646.2289L13702.8917,-3646.2215L13702.8925,-3646.2118L13702.8946,-3646.2024L13702.8953,-3646.1994L13702.8994,-3646.1915L13702.9091,-3646.1801L13702.918,-3646.1725L13702.9359,-3646.1622L13702.9561,-3646.1468L13702.9727,-3646.133L13702.9982,-3646.1097L13703.0028,-3646.1041L13703.0037,-3646.0989L13703.0031,-3646.0936L13703.0026,-3646.0896L13702.999,-3646.0847L13702.9933,-3646.0794L13702.9858,-3646.075L13702.9785,-3646.0718L13702.9685,-3646.07L13702.9535,-3646.0698L13702.9194,-3646.0722L13702.8955,-3646.0729L13702.8801,-3646.0709L13702.8696,-3646.0683L13702.8626,-3646.0658L13702.8562,-3646.0619L13702.8503,-3646.056L13702.8433,-3646.0497L13702.8323,-3646.0434L13702.8216,-3646.0388L13702.813,-3646.0346L13702.8087,-3646.0312L13702.8049,-3646.0266L13702.8014,-3646.0202L13702.7967,-3646.0095L13702.7935,-3646.0029L13702.7912,-3645.996L13702.7901,-3645.9866L13702.7905,-3645.9626L13702.7921,-3645.9394L13702.7939,-3645.9298L13702.8005,-3645.9046L13702.813,-3645.8666L13702.8164,-3645.8536L13702.818,-3645.8455L13702.818,-3645.8371L13702.8112,-3645.8223L13702.7978,-3645.8086L13702.7896,-3645.8044L13702.776,-3645.8002L13702.7628,-3645.7974L13702.7086,-3645.7907"/>
<path content="2,南砺市,利賀八尾線,2.0,2.0,2.0," xlink:title="2" d="M13704.0709,-3645.2243L13704.0577,-3645.1894L13704.0389,-3645.1224L13704.0277,-3645.0779L13703.9964,-3644.9658L13703.9803,-3644.9208L13703.9664,-3644.8955L13703.9413,-3644.8572L13703.9234,-3644.8339L13703.9086,-3644.8088L13703.8772,-3644.7654L13703.8577,-3644.7395L13703.7566,-3644.6038L13703.7455,-3644.5847L13703.7413,-3644.5734L13703.7364,-3644.5379L13703.7341,-3644.5055L13703.7336,-3644.4991L13703.7336,-3644.4608L13703.7383,-3644.4425L13703.7413,-3644.4309L13703.758,-3644.3853L13703.8159,-3644.2291L13703.8383,-3644.1761L13703.8721,-3644.0772L13703.8779,-3644.0616L13703.9156,-3643.9496L13703.9399,-3643.8674L13703.9608,-3643.7936L13703.9998,-3643.6753L13704.0082,-3643.6534L13704.0138,-3643.6314L13704.0298,-3643.4941L13704.0402,-3643.392L13704.0458,-3643.3359L13704.0533,-3643.2726L13704.0535,-3643.2705L13704.0554,-3643.2579L13704.0556,-3643.2487L13704.0563,-3643.2401L13704.057,-3643.2317L13704.0619,-3643.1872L13704.0633,-3643.1529L13704.0598,-3643.1309L13704.0521,-3643.1089L13704.0445,-3643.0943L13704.0368,-3643.087L13704.0285,-3643.0795L13704.0197,-3643.0716L13704.0173,-3643.0695L13703.9629,-3643.02L13703.9497,-3643.0059L13703.9385,-3642.9896L13703.9274,-3642.9642L13703.9232,-3642.9445L13703.9169,-3642.9L13703.9107,-3642.8708L13703.9016,-3642.8415L13703.8779,-3642.7756L13703.857,-3642.7227L13703.7643,-3642.4924L13703.7525,-3642.4536L13703.749,-3642.4389L13703.7483,-3642.4286L13703.7463,-3642.4119L13703.7442,-3642.2959L13703.7393,-3642.2756L13703.726,-3642.2464L13703.7086,-3642.2154L13703.7016,-3642.1996L13703.6975,-3642.1844L13703.694,-3642.1557L13703.6919,-3642.1056L13703.687,-3642.0729L13703.6814,-3642.0538L13703.6689,-3642.0262L13703.6563,-3642.0003L13703.6372,-3641.975L13703.5297,-3641.8448L13703.5241,-3641.833L13703.5213,-3641.7992L13703.5198,-3641.7954L13703.5081,-3641.7728L13703.5018,-3641.7643L13703.4384,-3641.6911L13703.4083,-3641.6611L13703.3971,-3641.6457L13703.3849,-3641.6263L13703.3696,-3641.5965L13703.3612,-3641.5768L13703.3556,-3641.5514L13703.3563,-3641.5317L13703.3598,-3641.5035L13703.3669,-3641.4766L13703.4179,-3641.4781"/>
<path content="2,南砺市,利賀八尾線,2.0,2.0,2.0," xlink:title="2" d="M13704.0709,-3645.2243L13704.0604,-3645.2299L13704.0279,-3645.235L13703.9672,-3645.2467L13702.9628,-3645.4076L13702.9448,-3645.4089L13702.919,-3645.4095L13702.9065,-3645.4067L13702.8884,-3645.3994L13702.8772,-3645.3926L13702.8493,-3645.3684L13702.834,-3645.3588L13702.8214,-3645.3538L13702.8061,-3645.3549L13702.7971,-3645.3577L13702.7929,-3645.3622L13702.7873,-3645.3718L13702.7915,-3645.3796L13702.8012,-3645.3909L13702.8124,-3645.4005L13702.8266,-3645.4161L13702.8303,-3645.4183L13702.8334,-3645.4268"/>
<path content="2,南砺市,利賀八尾線,2.0,2.0,2.0," xlink:title="2" d="M13702.8334,-3645.4268L13702.8536,-3645.4246L13702.8607,-3645.424L13702.8672,-3645.4249L13702.878,-3645.4289L13702.8822,-3645.4319L13702.8866,-3645.4367L13702.8886,-3645.4401L13702.8905,-3645.4446L13702.8916,-3645.4496L13702.8907,-3645.4832L13702.8891,-3645.4875L13702.8854,-3645.4929L13702.8819,-3645.4961L13702.8773,-3645.4991L13702.8602,-3645.5066L13702.8552,-3645.51L13702.8489,-3645.5158L13702.8318,-3645.5354L13702.8134,-3645.5611L13702.8078,-3645.5711L13702.8025,-3645.5814L13702.7947,-3645.6023L13702.794,-3645.607L13702.7944,-3645.6115L13702.7977,-3645.6169L13702.8074,-3645.6289L13702.8166,-3645.6413L13702.8261,-3645.6559L13702.8316,-3645.6627L13702.8367,-3645.6659L13702.8411,-3645.6674L13702.866,-3645.6717L13702.9096,-3645.681L13702.9175,-3645.682L13702.9237,-3645.6814L13702.9272,-3645.6806L13702.9304,-3645.679L13702.9325,-3645.6763L13702.9329,-3645.6717L13702.9322,-3645.6675L13702.9304,-3645.6647L13702.9267,-3645.6619L13702.9207,-3645.6587L13702.8956,-3645.6496L13702.8898,-3645.6466L13702.8863,-3645.6428L13702.8838,-3645.6396L13702.8833,-3645.6364L13702.8831,-3645.6314L13702.884,-3645.6237L13702.8872,-3645.6134L13702.8937,-3645.5997L13702.9052,-3645.5847L13702.9101,-3645.5806L13702.9166,-3645.5763L13702.9235,-3645.5727L13702.9339,-3645.5692L13702.9431,-3645.5649"/>
<path content="2,南砺市,利賀八尾線,2.0,2.0,2.0," xlink:title="2" d="M13702.8334,-3645.4268L13702.8361,-3645.4331L13702.8396,-3645.4517L13702.8382,-3645.4624L13702.8312,-3645.4793L13702.8208,-3645.49L13702.7993,-3645.5004L13702.7253,-3645.5362L13702.7016,-3645.5503L13702.6911,-3645.5598L13702.6758,-3645.5778L13702.6633,-3645.5987L13702.6598,-3645.6077L13702.6591,-3645.624L13702.6619,-3645.6426L13702.6779,-3645.7079L13702.6876,-3645.7372L13702.7086,-3645.7907"/>
<path content="2,南砺市,利賀八尾線,2.0,2.0,2.0," xlink:title="2" d="M13702.7086,-3645.7907L13702.6923,-3645.7904L13702.6688,-3645.7895L13702.6579,-3645.7876L13702.6479,-3645.7859L13702.6336,-3645.781L13702.6235,-3645.7749L13702.6131,-3645.7636L13702.6096,-3645.7557L13702.6089,-3645.7349L13702.6187,-3645.6978L13702.6187,-3645.682L13702.6177,-3645.6716L13702.6131,-3645.6646L13702.5901,-3645.6437L13702.5782,-3645.6263L13702.5729,-3645.6181L13702.57,-3645.6153L13702.5712,-3645.6139L13702.5721,-3645.6084L13702.5734,-3645.5998L13702.5782,-3645.5868L13702.5901,-3645.5683L13702.6026,-3645.5525L13702.6145,-3645.535L13702.6187,-3645.5243L13702.6187,-3645.5103L13702.6145,-3645.499L13702.5957,-3645.4641L13702.5796,-3645.4298L13702.5782,-3645.4219L13702.5782,-3645.4022L13702.5789,-3645.3729L13702.5762,-3645.3661L13702.5713,-3645.3611L13702.5692,-3645.3583L13702.5525,-3645.3464L13702.5399,-3645.3402L13702.5126,-3645.3402"/>
<path content="2,南砺市,利賀八尾線,2.0,2.0,2.0," xlink:title="2" d="M13702.7086,-3645.7907L13702.7628,-3645.7974L13702.776,-3645.8002L13702.7896,-3645.8044L13702.7978,-3645.8086L13702.8044,-3645.814L13702.811,-3645.8206L13702.8112,-3645.8223"/>
<path content="2,南砺市,利賀八尾線,2.0,2.0,2.0," xlink:title="2" d="M13704.9686,-3647.4609L13704.9238,-3647.2788L13704.8625,-3647.035L13704.8569,-3647.0131L13704.8556,-3647.0016L13704.8639,-3646.9669L13704.8681,-3646.941L13704.8674,-3646.9218L13704.8611,-3646.8993L13704.8416,-3646.8498L13704.8263,-3646.7873L13704.8179,-3646.7512L13704.8116,-3646.7225L13704.8096,-3646.7107L13704.8089,-3646.6696L13704.8138,-3646.658L13704.8158,-3646.6499L13704.8179,-3646.6386L13704.8179,-3646.6156L13704.8116,-3646.5806L13704.8068,-3646.5655L13704.7893,-3646.5356L13704.7656,-3646.508L13704.7594,-3646.5007L13704.7426,-3646.4883L13704.7333,-3646.4898L13704.669,-3646.4936L13704.6464,-3646.4868L13704.6319,-3646.4675L13704.5698,-3646.3746L13704.5615,-3646.3633L13704.5517,-3646.3481L13704.5315,-3646.3211L13704.5085,-3646.2935L13704.4786,-3646.2603L13704.4674,-3646.2513L13704.4402,-3646.2338L13704.4096,-3646.2119L13704.3873,-3646.1905L13704.3768,-3646.1792L13704.3594,-3646.1556L13704.3392,-3646.1173L13704.312,-3646.0514L13704.3047,-3646.0263L13704.2918,-3645.9726L13704.2583,-3645.8599L13704.2013,-3645.6908L13704.1929,-3645.6685L13704.1831,-3645.6308L13704.1657,-3645.5266L13704.1531,-3645.4647L13704.1294,-3645.3848L13704.0939,-3645.289L13704.0709,-3645.2243"/>
<path content="2,南砺市,村内線（上利賀方面）,3.0,0.0,0.0," xlink:title="2" d="M13702.5712,-3645.6139L13702.5721,-3645.6084L13702.5734,-3645.5998L13702.5782,-3645.5868L13702.5901,-3645.5683L13702.6026,-3645.5525L13702.6145,-3645.535L13702.6187,-3645.5243L13702.6187,-3645.5103L13702.6145,-3645.499L13702.5957,-3645.4641L13702.5796,-3645.4298L13702.5782,-3645.4219L13702.5782,-3645.4022L13702.5789,-3645.3729L13702.5762,-3645.3661L13702.5713,-3645.3611L13702.5692,-3645.3583L13702.5525,-3645.3464L13702.5399,-3645.3402L13702.5126,-3645.3402L13702.4967,-3645.3419L13702.4654,-3645.3526L13702.4486,-3645.3571L13702.434,-3645.3583L13702.4243,-3645.3566L13702.4159,-3645.3526L13702.4096,-3645.3481L13702.4019,-3645.3391L13702.3971,-3645.3239L13702.3901,-3645.2687L13702.3901,-3645.2614L13702.3922,-3645.2248L13702.3936,-3645.2018L13702.3682,-3645.1588L13702.3579,-3645.1555L13702.3384,-3645.1536L13702.1877,-3645.1852L13702.1715,-3645.1834L13702.1484,-3645.1761"/>
<path content="2,南砺市,村内線（上利賀方面）,3.0,0.0,0.0," xlink:title="2" d="M13702.5712,-3645.6139L13702.5729,-3645.6181L13702.5782,-3645.6263L13702.5901,-3645.6437L13702.6131,-3645.6646L13702.6177,-3645.6716L13702.6187,-3645.682L13702.6187,-3645.6978L13702.6089,-3645.7349L13702.6096,-3645.7557L13702.6131,-3645.7636L13702.6235,-3645.7749L13702.6336,-3645.781L13702.6479,-3645.7859L13702.6491,-3645.7861L13702.6579,-3645.7876L13702.6688,-3645.7895L13702.6923,-3645.7904L13702.7086,-3645.7907L13702.7628,-3645.7974L13702.776,-3645.8002L13702.7896,-3645.8044L13702.7978,-3645.8086L13702.8044,-3645.814L13702.811,-3645.8206L13702.8112,-3645.8223"/>
<path content="2,南砺市,村内線（上利賀方面）,3.0,0.0,0.0," xlink:title="2" d="M13702.4113,-3645.9145L13702.4214,-3645.9218L13702.4284,-3645.9325L13702.4333,-3645.9461L13702.4361,-3645.95L13702.444,-3645.9582L13702.4541,-3645.9646L13702.4632,-3645.9687L13702.4819,-3645.9736L13702.5159,-3645.9801L13702.5361,-3645.9795L13702.5469,-3645.9783L13702.556,-3645.9767L13702.5596,-3645.9748L13702.5608,-3645.9719L13702.5616,-3645.9668L13702.5608,-3645.9613L13702.5572,-3645.9582L13702.5524,-3645.9568L13702.5382,-3645.9549L13702.519,-3645.9525L13702.507,-3645.9496L13702.5005,-3645.9461L13702.4981,-3645.9421L13702.496,-3645.9196L13702.4932,-3645.8712L13702.4897,-3645.8566L13702.48,-3645.8363L13702.4821,-3645.8284L13702.4995,-3645.7997L13702.5037,-3645.789L13702.5037,-3645.7766L13702.4898,-3645.7597L13702.4904,-3645.7428L13702.4925,-3645.7293L13702.4925,-3645.7068L13702.4807,-3645.6769L13702.4716,-3645.6471L13702.4674,-3645.6374L13702.4619,-3645.6291L13702.4336,-3645.6019L13702.4305,-3645.597L13702.4303,-3645.5939L13702.4312,-3645.5911L13702.4327,-3645.5885L13702.4358,-3645.5864L13702.4392,-3645.5851L13702.4444,-3645.5848L13702.4493,-3645.5857L13702.4612,-3645.593L13702.4814,-3645.6054L13702.4882,-3645.609L13702.4981,-3645.6122L13702.519,-3645.6178L13702.5314,-3645.6185L13702.5441,-3645.6173L13702.57,-3645.6153L13702.5712,-3645.6139"/>
<path content="2,南砺市,村内線（百瀬方面）,4.0,4.0,0.0," xlink:title="2" d="M13704.0709,-3645.2243L13704.0577,-3645.1894L13704.0389,-3645.1224L13704.0277,-3645.0779L13703.9964,-3644.9658L13703.9803,-3644.9208L13703.9664,-3644.8955L13703.9413,-3644.8572L13703.9234,-3644.8339L13703.9086,-3644.8088L13703.8772,-3644.7654L13703.8577,-3644.7395L13703.7566,-3644.6038L13703.7455,-3644.5847L13703.7413,-3644.5734L13703.7364,-3644.5379L13703.7341,-3644.5055L13703.7336,-3644.4991L13703.7336,-3644.4608L13703.7383,-3644.4425L13703.7413,-3644.4309L13703.758,-3644.3853L13703.8159,-3644.2291L13703.8383,-3644.1761L13703.8721,-3644.0772L13703.8779,-3644.0616L13703.9156,-3643.9496L13703.9399,-3643.8674L13703.9608,-3643.7936L13703.9998,-3643.6753L13704.0082,-3643.6534L13704.0138,-3643.6314L13704.0298,-3643.4941L13704.0402,-3643.392L13704.0458,-3643.3359L13704.0533,-3643.2726L13704.0535,-3643.2705L13704.0554,-3643.2579L13704.0556,-3643.2486L13704.0563,-3643.2401L13704.057,-3643.2317L13704.0619,-3643.1872L13704.0633,-3643.1529L13704.0598,-3643.1309L13704.0521,-3643.1089L13704.0445,-3643.0943L13704.0368,-3643.087L13704.0285,-3643.0795L13704.0197,-3643.0716L13704.0173,-3643.0695L13703.9629,-3643.02L13703.9497,-3643.0059L13703.9385,-3642.9896L13703.9274,-3642.9642L13703.9232,-3642.9445L13703.9169,-3642.9L13703.9107,-3642.8708L13703.9016,-3642.8415L13703.8779,-3642.7756L13703.857,-3642.7227L13703.7643,-3642.4924L13703.7525,-3642.4536L13703.749,-3642.4389L13703.7483,-3642.4286L13703.7463,-3642.4119L13703.7442,-3642.2959L13703.7393,-3642.2756L13703.726,-3642.2464L13703.7086,-3642.2154L13703.7016,-3642.1996L13703.6975,-3642.1844L13703.694,-3642.1557L13703.6919,-3642.1056L13703.687,-3642.0729L13703.6814,-3642.0538L13703.6689,-3642.0262L13703.6563,-3642.0003L13703.6372,-3641.975L13703.5297,-3641.8448L13703.5241,-3641.833L13703.5213,-3641.7992L13703.5198,-3641.7954L13703.5081,-3641.7728L13703.5018,-3641.7643L13703.4384,-3641.6911L13703.4083,-3641.6611L13703.3971,-3641.6457L13703.3849,-3641.6263L13703.3696,-3641.5965L13703.3612,-3641.5768L13703.3556,-3641.5514L13703.3563,-3641.5317L13703.3598,-3641.5035L13703.3669,-3641.4766L13703.3727,-3641.4766L13703.4179,-3641.4781"/>
<path content="2,南砺市,村内線（百瀬方面）,4.0,4.0,0.0," xlink:title="2" d="M13704.0709,-3645.2243L13704.0604,-3645.2299L13704.0279,-3645.235L13703.9672,-3645.2467L13702.9628,-3645.4076L13702.9448,-3645.4089L13702.919,-3645.4095L13702.9065,-3645.4067L13702.8884,-3645.3994L13702.8772,-3645.3926L13702.8493,-3645.3684L13702.834,-3645.3588L13702.8214,-3645.3538L13702.8061,-3645.3549L13702.7971,-3645.3577L13702.7929,-3645.3622L13702.7873,-3645.3718L13702.7915,-3645.3796L13702.8012,-3645.3909L13702.8124,-3645.4005L13702.8266,-3645.4161L13702.8303,-3645.4183L13702.8334,-3645.4268L13702.8361,-3645.4331L13702.8396,-3645.4517L13702.8382,-3645.4624L13702.8312,-3645.4793L13702.8208,-3645.49L13702.7993,-3645.5004L13702.7253,-3645.5362L13702.7016,-3645.5503L13702.6911,-3645.5598L13702.6758,-3645.5778L13702.6633,-3645.5987L13702.6598,-3645.6077L13702.6591,-3645.624L13702.6619,-3645.6426L13702.6779,-3645.7079L13702.6876,-3645.7372L13702.7086,-3645.7907"/>
<path content="2,南砺市,村内線（百瀬方面）,4.0,4.0,0.0," xlink:title="2" d="M13702.7086,-3645.7907L13702.6923,-3645.7904L13702.6688,-3645.7895L13702.6579,-3645.7876L13702.6479,-3645.7859L13702.6336,-3645.781L13702.6235,-3645.7749L13702.6131,-3645.7636L13702.6096,-3645.7557L13702.6089,-3645.7349L13702.6187,-3645.6978L13702.6187,-3645.682L13702.6177,-3645.6716L13702.6131,-3645.6646L13702.5901,-3645.6437L13702.5782,-3645.6263L13702.5729,-3645.6181L13702.57,-3645.6153L13702.5712,-3645.6139L13702.5721,-3645.6084L13702.5734,-3645.5998L13702.5782,-3645.5868L13702.5901,-3645.5683L13702.6026,-3645.5525L13702.6145,-3645.535L13702.6187,-3645.5243L13702.6187,-3645.5103L13702.6145,-3645.499L13702.5957,-3645.4641L13702.5796,-3645.4298L13702.5782,-3645.4219L13702.5782,-3645.4022L13702.5789,-3645.3729L13702.5762,-3645.3661L13702.5713,-3645.3611L13702.5692,-3645.3583L13702.5525,-3645.3464L13702.5399,-3645.3402L13702.5126,-3645.3402"/>
<path content="2,南砺市,村内線（百瀬方面）,4.0,4.0,0.0," xlink:title="2" d="M13702.7086,-3645.7907L13702.7628,-3645.7974L13702.776,-3645.8002L13702.7896,-3645.8044L13702.7978,-3645.8086L13702.8044,-3645.814L13702.811,-3645.8206L13702.8112,-3645.8223"/>
<path content="2,南砺市,村内線（百瀬方面）,4.0,4.0,0.0," xlink:title="2" d="M13704.8138,-3646.658L13704.8158,-3646.6499L13704.8179,-3646.6386L13704.8179,-3646.6156L13704.8116,-3646.5806L13704.8068,-3646.5655L13704.7893,-3646.5356L13704.7656,-3646.508L13704.7594,-3646.5007L13704.7426,-3646.4883L13704.7333,-3646.4898L13704.669,-3646.4936L13704.6464,-3646.4868L13704.6319,-3646.4675L13704.5698,-3646.3746L13704.5615,-3646.3633L13704.5517,-3646.3481L13704.5315,-3646.3211L13704.5085,-3646.2935L13704.4786,-3646.2603L13704.4674,-3646.2513L13704.4402,-3646.2338L13704.4096,-3646.2119L13704.3873,-3646.1905L13704.3768,-3646.1792L13704.3594,-3646.1556L13704.3392,-3646.1173L13704.312,-3646.0514L13704.3047,-3646.0263L13704.2918,-3645.9726L13704.2583,-3645.8599L13704.2013,-3645.6908L13704.1929,-3645.6685L13704.1831,-3645.6308L13704.1657,-3645.5266L13704.1531,-3645.4647L13704.1294,-3645.3848L13704.0939,-3645.289L13704.0709,-3645.2243"/>
<path content="2,南砺市,村内線（豆谷方面）,3.0,0.0,0.0," xlink:title="2" d="M13703.2792,-3647.4609L13703.2807,-3647.4538L13703.2837,-3647.4445L13703.2877,-3647.4348L13703.2938,-3647.427L13703.3004,-3647.4174L13703.3035,-3647.4124L13703.3058,-3647.4082L13703.3066,-3647.4037L13703.3067,-3647.3982L13703.3055,-3647.3939L13703.3034,-3647.3886L13703.3003,-3647.3839L13703.2961,-3647.3792L13703.2848,-3647.3713L13703.2527,-3647.3487L13703.237,-3647.3376L13703.2296,-3647.3316L13703.2233,-3647.3258L13703.2191,-3647.3213L13703.2104,-3647.3128L13703.2034,-3647.3053L13703.1992,-3647.2996L13703.1973,-3647.2968L13703.1956,-3647.2923L13703.1956,-3647.2737L13703.1935,-3647.2605L13703.1914,-3647.2534L13703.1747,-3647.2237L13703.1703,-3647.2138L13703.1676,-3647.2053L13703.1671,-3647.1939L13703.1683,-3647.1798L13703.1726,-3647.1307L13703.174,-3647.0969L13703.1734,-3647.0575L13703.1685,-3647.0378L13703.1671,-3647.0248L13703.1667,-3647.0065L13703.165,-3646.9319L13703.1601,-3646.8334L13703.157,-3646.8274L13703.1538,-3646.8233L13703.1274,-3646.803L13703.1211,-3646.7963L13703.1165,-3646.7876L13703.1134,-3646.7805L13703.1113,-3646.772L13703.1092,-3646.7534L13703.1071,-3646.7214L13703.1022,-3646.7045L13703.096,-3646.6961L13703.0847,-3646.6891L13703.0662,-3646.6824L13703.0316,-3646.674L13703.0107,-3646.67L13702.9887,-3646.6675L13702.9701,-3646.6661L13702.9252,-3646.6669L13702.9117,-3646.6695L13702.8907,-3646.6761L13702.88,-3646.6761L13702.8729,-3646.6743L13702.8572,-3646.6697L13702.8354,-3646.6607L13702.8246,-3646.6533L13702.8154,-3646.6438L13702.8139,-3646.6383L13702.8138,-3646.6335L13702.8235,-3646.6149L13702.8284,-3646.6014L13702.8284,-3646.5862L13702.8089,-3646.526L13702.8033,-3646.5006L13702.802,-3646.4911L13702.8024,-3646.4834L13702.8055,-3646.4731L13702.8122,-3646.4577L13702.8148,-3646.4509L13702.8159,-3646.446L13702.8166,-3646.4388L13702.8166,-3646.4309L13702.8138,-3646.4134L13702.8129,-3646.3949L13702.8125,-3646.3851L13702.8138,-3646.3706L13702.8162,-3646.3605L13702.82,-3646.352L13702.8242,-3646.3469L13702.8305,-3646.342L13702.8451,-3646.3351L13702.8818,-3646.3256L13702.9273,-3646.3117L13702.9361,-3646.3084L13702.943,-3646.3048L13702.9481,-3646.3009L13702.9517,-3646.2964L13702.9539,-3646.2917L13702.9557,-3646.2877L13702.9554,-3646.28L13702.9531,-3646.2738L13702.9469,-3646.2662L13702.9416,-3646.2611L13702.9331,-3646.2561L13702.9054,-3646.2456L13702.8972,-3646.2406L13702.8929,-3646.2363L13702.8911,-3646.2289L13702.8917,-3646.2215L13702.8925,-3646.2118L13702.8946,-3646.2024L13702.8953,-3646.1994L13702.8994,-3646.1915L13702.9091,-3646.1801L13702.918,-3646.1725L13702.9359,-3646.1622L13702.9561,-3646.1468L13702.9727,-3646.133L13702.9982,-3646.1097L13703.0028,-3646.1041L13703.0037,-3646.0989L13703.0031,-3646.0936L13703.0026,-3646.0896L13702.999,-3646.0847L13702.9933,-3646.0794L13702.9858,-3646.075L13702.9785,-3646.0718L13702.9685,-3646.07L13702.9535,-3646.0698L13702.9194,-3646.0722L13702.8955,-3646.0729L13702.8801,-3646.0709L13702.8696,-3646.0683L13702.8626,-3646.0658L13702.8562,-3646.0619L13702.8503,-3646.056L13702.8433,-3646.0497L13702.8323,-3646.0434L13702.8216,-3646.0388L13702.813,-3646.0346L13702.8087,-3646.0312L13702.8049,-3646.0266L13702.8014,-3646.0202L13702.7967,-3646.0095L13702.7935,-3646.0029L13702.7912,-3645.996L13702.7901,-3645.9866L13702.7905,-3645.9626L13702.7921,-3645.9394L13702.7939,-3645.9298L13702.8005,-3645.9046L13702.813,-3645.8666L13702.8164,-3645.8536L13702.818,-3645.8455L13702.818,-3645.8371L13702.8153,-3645.8289L13702.8112,-3645.8223L13702.8044,-3645.814L13702.7978,-3645.8086L13702.7896,-3645.8044L13702.776,-3645.8002L13702.7628,-3645.7974L13702.7086,-3645.7907L13702.6923,-3645.7904L13702.6688,-3645.7895L13702.6579,-3645.7876L13702.6479,-3645.7859L13702.6336,-3645.781L13702.6235,-3645.7749L13702.6131,-3645.7636L13702.6096,-3645.7557L13702.6089,-3645.7349L13702.6187,-3645.6978L13702.6187,-3645.682L13702.6177,-3645.6716L13702.6131,-3645.6646L13702.5901,-3645.6437L13702.5782,-3645.6263L13702.5729,-3645.6181L13702.57,-3645.6153L13702.5712,-3645.6139L13702.5721,-3645.6084L13702.5734,-3645.5998L13702.5782,-3645.5868L13702.5901,-3645.5683L13702.6026,-3645.5525L13702.6145,-3645.535L13702.6187,-3645.5243L13702.6187,-3645.5103L13702.6145,-3645.499L13702.5957,-3645.4641L13702.5796,-3645.4298L13702.5782,-3645.4219L13702.5782,-3645.4022L13702.5789,-3645.3729L13702.5762,-3645.3661L13702.5713,-3645.3611L13702.5692,-3645.3583L13702.5525,-3645.3464L13702.5399,-3645.3402L13702.5126,-3645.3402"/>
<path content="3,富山市,大長谷線,6.0,6.0,0.0," xlink:title="3" d="M13708.4146,-3644.9488L13708.4066,-3644.9581"/>
<path content="3,富山市,大長谷線,6.0,6.0,0.0," xlink:title="3" d="M13708.4066,-3644.9581L13708.3983,-3644.9389L13708.3906,-3644.9237L13708.3865,-3644.9152L13708.3834,-3644.9075L13708.3802,-3644.8995L13708.3732,-3644.8685L13708.3502,-3644.8043L13708.3391,-3644.7644L13708.3391,-3644.7536L13708.3412,-3644.7497L13708.3921,-3644.6619L13708.399,-3644.6444L13708.4039,-3644.6298L13708.4046,-3644.6157L13708.3997,-3644.5881L13708.3913,-3644.5645L13708.3886,-3644.5419L13708.4041,-3644.4878L13708.4136,-3644.4592L13708.4185,-3644.4395L13708.4164,-3644.3961L13708.4116,-3644.3573L13708.4102,-3644.3077L13708.4088,-3644.2908L13708.4025,-3644.2706L13708.3948,-3644.2565L13708.3809,-3644.2402L13708.3663,-3644.2272L13708.3614,-3644.2244L13708.3496,-3644.2149L13708.3328,-3644.207L13708.2889,-3644.1934L13708.2604,-3644.1828L13708.2457,-3644.1749L13708.2332,-3644.1664L13708.1746,-3644.118L13708.1113,-3644.0414L13708.0915,-3644.0198L13708.0809,-3644.0017L13708.0734,-3643.9769L13708.072,-3643.9574L13708.0771,-3643.9311L13708.0861,-3643.9097L13708.1022,-3643.8809L13708.114,-3643.8534L13708.1147,-3643.8427L13708.1147,-3643.8173L13708.1112,-3643.7948L13708.1077,-3643.7582L13708.1077,-3643.7301L13708.1165,-3643.6841L13708.1189,-3643.6636L13708.1224,-3643.6518L13708.128,-3643.6203L13708.1426,-3643.5465L13708.1558,-3643.4812L13708.1677,-3643.4193L13708.1708,-3643.4049L13708.1785,-3643.3482L13708.1865,-3643.301L13708.1923,-3643.2953"/>
<path content="3,富山市,大長谷線,6.0,6.0,0.0," xlink:title="3" d="M13708.5465,-3647.4609L13708.5592,-3647.4129L13708.5564,-3647.396L13708.5529,-3647.3836L13708.5473,-3647.3628L13708.5244,-3647.28L13708.5116,-3647.2546L13708.5387,-3647.2089L13708.5435,-3647.1944L13708.5527,-3647.1625L13708.5669,-3647.1038L13708.5715,-3647.0857L13708.5725,-3647.0806L13708.5746,-3647.0751L13708.5781,-3647.057L13708.585,-3647.0148L13708.5878,-3646.9934L13708.5913,-3646.9422L13708.5926,-3646.8774L13708.5948,-3646.7857L13708.5961,-3646.7536L13708.5984,-3646.6861L13708.5989,-3646.6736L13708.5989,-3646.6291L13708.5975,-3646.6128L13708.5927,-3646.5887L13708.5878,-3646.5644L13708.5857,-3646.561L13708.5738,-3646.5379L13708.5627,-3646.521L13708.5383,-3646.4782L13708.5244,-3646.4557L13708.5209,-3646.4489L13708.4763,-3646.378L13708.4359,-3646.3071L13708.4094,-3646.2609L13708.3997,-3646.2406L13708.3986,-3646.2382L13708.3962,-3646.2316L13708.392,-3646.213L13708.3871,-3646.1888L13708.3836,-3646.1652L13708.3836,-3646.1173L13708.385,-3646.11L13708.3899,-3646.0971L13708.3906,-3646.0948L13708.3997,-3646.0796L13708.4307,-3646.0575L13708.4345,-3646.0421L13708.4382,-3646.0268L13708.4412,-3646.0165L13708.4465,-3645.9965L13708.4617,-3645.8268L13708.4645,-3645.797L13708.4645,-3645.7795L13708.4652,-3645.7559L13708.4625,-3645.693L13708.4638,-3645.6652L13708.4631,-3645.6585L13708.4624,-3645.6376L13708.4603,-3645.6247L13708.4575,-3645.5965L13708.4296,-3645.4102L13708.4296,-3645.382L13708.4247,-3645.3514L13708.4245,-3645.3345L13708.4284,-3645.3178L13708.4327,-3645.305L13708.4366,-3645.2959L13708.4401,-3645.2885L13708.4451,-3645.2821L13708.4531,-3645.2741L13708.4617,-3645.2662L13708.4646,-3645.2614L13708.4659,-3645.2548L13708.4659,-3645.2317L13708.4687,-3645.2255L13708.484,-3645.2142L13708.4868,-3645.2109L13708.4903,-3645.2035L13708.4917,-3645.185L13708.4903,-3645.1776L13708.4784,-3645.136L13708.4729,-3645.1179L13708.4541,-3645.0622L13708.4352,-3645.0194L13708.4255,-3644.9974L13708.4066,-3644.9581"/>
<path content="4,南砺市,村内線（豆谷方面）,3.0,0.0,0.0," xlink:title="4" d="M13702.7086,-3645.7907L13702.6876,-3645.7372L13702.6779,-3645.7079L13702.6619,-3645.6426L13702.6591,-3645.624L13702.6598,-3645.6077L13702.6633,-3645.5987L13702.6758,-3645.5778L13702.6911,-3645.5598L13702.7016,-3645.5503L13702.7253,-3645.5362L13702.7993,-3645.5004L13702.8208,-3645.49L13702.8312,-3645.4793L13702.8382,-3645.4624L13702.8396,-3645.4517L13702.8361,-3645.4331L13702.8334,-3645.4268L13702.8303,-3645.4215L13702.8303,-3645.4183"/>
</g>
</svg>
