<?xml version="1.0" encoding="UTF-8"?>
<svg  xmlns="http://www.w3.org/2000/svg" xmlns:xlink="http://www.w3.org/1999/xlink" xmlns:go="http://purl.org/svgmap/profile" property="N07_001,N07_002,N07_003,N07_004,N07_005,N07_006,N07_007" viewBox="14088.31787109375 -3834.77783203125 0.54931640625 0.54931640625" go:dataArea="14088.31787109375 -3834.77783203125 0.54931640625 0.54931640625" >
<metadata>
 <rdf:RDF xmlns:rdf="http://www.w3.org/1999/02/22-rdf-syntax-ns#" xmlns:crs="http://opengis.org/xmldtds/transformations.dtd" xmlns:svg="http://www.w3.org/svg" >
  <rdf:Description>
   <crs:CoordinateReferenceSystem rdf:resource="http://purl.org/crs/84" svg:transform="matrix(100.0,0.0,0.0,-100.0,0.0,0.0)" />
  </rdf:Description>
 </rdf:RDF>
</metadata>
<globalCoordinateSystem srsName="http://purl.org/crs/84" transform="matrix(100.0,0.0,0.0,-100.0,0.0,0.0)" />
<defs>
 <g id="p0" >
  <circle cx="0.0" cy="0.0" r="3" stroke="green" stroke-width="0.75" vector-effect="non-scaling-stroke" />
 </g>
</defs>
<g fill="none" fill-rule="evenodd" stroke="#FF00FF" stroke-width="0.75" opacity="0.5" vector-effect="non-scaling-stroke" stroke-linejoin="bevel" >
<path content="1,宮城交通（株）,N25,13.0,5.0,5.0," xlink:title="1" d="M14088.8082,-3834.2285L14088.8186,-3834.2781L14088.8328,-3834.3465L14088.8417,-3834.3805L14088.8459,-3834.3964"/>
<path content="1,宮城交通（株）,N25,13.0,5.0,5.0," xlink:title="1" d="M14088.8459,-3834.3964L14088.8672,-3834.3896"/>
<path content="1,宮城交通（株）,N25,13.0,5.0,5.0," xlink:title="1" d="M14088.8459,-3834.3964L14088.851,-3834.4086L14088.8527,-3834.4127L14088.8663,-3834.434L14088.8672,-3834.4352"/>
<path content="1,宮城交通（株）,N26,31.0,16.0,14.0," xlink:title="1" d="M14088.8082,-3834.2285L14088.8186,-3834.2781L14088.8328,-3834.3465L14088.8417,-3834.3805L14088.8459,-3834.3964L14088.851,-3834.4086L14088.8527,-3834.4127L14088.8663,-3834.434L14088.8672,-3834.4352"/>
<path content="1,宮城交通（株）,N27,6.5,6.0,4.0," xlink:title="1" d="M14088.8082,-3834.2285L14088.8186,-3834.2781L14088.8328,-3834.3465L14088.8417,-3834.3805L14088.8459,-3834.3964L14088.851,-3834.4086L14088.8527,-3834.4127L14088.8663,-3834.434L14088.8672,-3834.4352"/>
<path content="1,宮城交通（株）,N29,19.0,14.0,14.0," xlink:title="1" d="M14088.4344,-3834.2285L14088.4365,-3834.2419L14088.4369,-3834.2532L14088.4587,-3834.3506L14088.4737,-3834.4272L14088.4809,-3834.4638L14088.4902,-3834.4976L14088.4923,-3834.5032L14088.5168,-3834.5593L14088.6024,-3834.6531L14088.6131,-3834.6699L14088.6203,-3834.6874L14088.6239,-3834.7015L14088.626,-3834.7172L14088.626,-3834.72L14088.626,-3834.7353L14088.6274,-3834.7716L14088.6277,-3834.7778"/>
</g>
</svg>
