<?xml version="1.0" encoding="UTF-8"?>
<svg  xmlns="http://www.w3.org/2000/svg" xmlns:xlink="http://www.w3.org/1999/xlink" xmlns:go="http://purl.org/svgmap/profile" property="N07_001,N07_002,N07_003,N07_004,N07_005,N07_006,N07_007" viewBox="13710.9375 -3546.38671875 4.39453125 4.39453125" go:dataArea="13710.9375 -3546.38671875 4.39453125 4.39453125" >
<metadata>
 <rdf:RDF xmlns:rdf="http://www.w3.org/1999/02/22-rdf-syntax-ns#" xmlns:crs="http://opengis.org/xmldtds/transformations.dtd" xmlns:svg="http://www.w3.org/svg" >
  <rdf:Description>
   <crs:CoordinateReferenceSystem rdf:resource="http://purl.org/crs/84" svg:transform="matrix(100.0,0.0,0.0,-100.0,0.0,0.0)" />
  </rdf:Description>
 </rdf:RDF>
</metadata>
<globalCoordinateSystem srsName="http://purl.org/crs/84" transform="matrix(100.0,0.0,0.0,-100.0,0.0,0.0)" />
<defs>
 <g id="p0" >
  <circle cx="0.0" cy="0.0" r="3" stroke="green" stroke-width="0.75" vector-effect="non-scaling-stroke" />
 </g>
</defs>
<g fill="none" fill-rule="evenodd" stroke="#FF00FF" stroke-width="0.75" opacity="0.5" vector-effect="non-scaling-stroke" stroke-linejoin="bevel" >
<path content="3,八百津町,八百津方面行,21.0,17.0,17.0," xlink:title="3" d="M13711.9257,-3546.3867L13711.9084,-3546.3843L13711.8503,-3546.3817L13711.8457,-3546.3817L13711.8065,-3546.3817L13711.7342,-3546.3839L13711.6528,-3546.3867"/>
<path content="3,御嵩町,おおくご線_01_on,1.5,0.0,0.0," xlink:title="3" d="M13714.3335,-3542.6643L13714.4111,-3542.6769L13714.4683,-3542.6859L13714.4917,-3542.6871L13714.5962,-3542.6871L13714.6148,-3542.6842L13714.6368,-3542.6746L13714.6527,-3542.6673L13714.7105,-3542.6403L13714.7779,-3542.61L13714.8261,-3542.5896L13714.844,-3542.5845L13714.9276,-3542.5743L13714.9362,-3542.5732L13714.9623,-3542.5693L13715.0284,-3542.5614L13715.047,-3542.5595L13715.0497,-3542.5592L13715.0538,-3542.5581L13715.1651,-3542.5438L13715.2651,-3542.531L13715.2848,-3542.5296L13715.2878,-3542.5293L13715.3174,-3542.5248L13715.3318,-3542.5231L13715.332,-3542.5231"/>
<path content="3,御嵩町,おおくご線_01_on,1.5,0.0,0.0," xlink:title="3" d="M13715.332,-3542.7636L13715.3298,-3542.7642L13715.3227,-3542.7667L13715.2809,-3542.7811L13715.1646,-3542.8211L13715.1557,-3542.8245L13715.1274,-3542.8324L13715.1164,-3542.8346L13715.1082,-3542.8357L13715.091,-3542.8414L13715.0607,-3542.8487L13715.0442,-3542.8515L13714.9389,-3542.8515L13714.9134,-3542.8532L13714.9093,-3542.8549L13714.8963,-3542.8572L13714.835,-3542.8724L13714.8034,-3542.8802L13714.7999,-3542.8819L13714.7685,-3542.8882L13714.6772,-3542.9123L13714.6045,-3542.9315L13714.5267,-3542.9512L13714.5254,-3542.9523L13714.482,-3542.9631L13714.4676,-3542.9664L13714.444,-3542.973L13714.4392,-3542.9743L13714.3946,-3542.9867L13714.3485,-3542.9991L13714.3427,-3542.9032L13714.343,-3542.8594L13714.3403,-3542.7969L13714.3381,-3542.7602L13714.3373,-3542.7281L13714.3373,-3542.7232L13714.3367,-3542.7156L13714.3355,-3542.6934L13714.3338,-3542.6686L13714.3335,-3542.6643"/>
<path content="3,御嵩町,おおくご線_01_on,1.5,0.0,0.0," xlink:title="3" d="M13715.332,-3543.0829L13715.2843,-3543.0701L13715.2699,-3543.0639L13715.2534,-3543.0537L13715.2396,-3543.0425L13715.2266,-3543.0273L13715.2183,-3543.0143L13715.2085,-3542.9991L13715.2073,-3542.9991L13715.2087,-3542.9737L13715.2073,-3542.9557L13715.1951,-3542.9268L13715.1743,-3542.8876L13715.1981,-3542.8779L13715.2754,-3542.8572L13715.2933,-3542.8515L13715.3084,-3542.8515L13715.316,-3542.8515L13715.332,-3542.8469"/>
<path content="3,御嵩町,おおくご線_01_on,1.5,0.0,0.0," xlink:title="3" d="M13712.8181,-3542.8987L13712.8035,-3542.8546L13712.8014,-3542.8483L13712.798,-3542.8384L13712.7908,-3542.8163L13712.7906,-3542.7811L13712.792,-3542.7281L13712.7941,-3542.6864L13712.7941,-3542.6695L13712.7996,-3542.558L13712.7948,-3542.5462L13712.7659,-3542.4899L13712.7528,-3542.46L13712.7487,-3542.4363L13712.7496,-3542.4221L13712.7528,-3542.4099L13712.7679,-3542.3766L13712.7838,-3542.3496L13712.7948,-3542.3355L13712.8016,-3542.3293L13712.8113,-3542.322L13712.8333,-3542.3135L13712.8464,-3542.3101L13712.8581,-3542.3079L13712.931,-3542.2983L13712.9573,-3542.2967L13712.9599,-3542.3344L13712.9682,-3542.4273L13712.9688,-3542.4329L13712.9737,-3542.5011L13713.0143,-3542.4977L13713.0287,-3542.4972L13713.1058,-3542.4921L13713.1402,-3542.4893L13713.1781,-3542.4876L13713.2021,-3542.4786L13713.2242,-3542.4769L13713.2317,-3542.478L13713.2427,-3542.4837L13713.2709,-3542.4842L13713.2709,-3542.4769L13713.2668,-3542.4138L13713.2661,-3542.384L13713.2634,-3542.3412L13713.2579,-3542.2465L13713.2544,-3542.2088L13713.2262,-3542.2088L13713.2634,-3542.1547L13713.2834,-3542.1299L13713.2796,-3542.1242L13713.2654,-3542.1141L13713.2476,-3542.1046L13713.2661,-3542.0877L13713.2868,-3542.0753L13713.3205,-3542.0601L13713.3315,-3542.0567L13713.3533,-3542.0558L13713.4264,-3542.0681L13713.4819,-3542.0816L13713.532,-3542.1029L13713.6019,-3542.1508L13713.6171,-3542.1542L13713.6419,-3542.1553L13713.7781,-3542.1547L13713.8912,-3542.1555L13713.9247,-3542.1553L13713.9378,-3542.1553L13713.9721,-3542.157L13714.0244,-3542.1592L13714.0809,-3542.1643L13714.0905,-3542.1671L13714.1036,-3542.1733L13714.1318,-3542.1902L13714.1628,-3542.2054L13714.1951,-3542.2161L13714.2342,-3542.226L13714.2556,-3542.2279L13714.2914,-3542.2296L13714.3141,-3542.2696L13714.3245,-3542.2939L13714.332,-3542.3187L13714.3345,-3542.4673L13714.3334,-3542.5214L13714.3313,-3542.5699L13714.3313,-3542.597L13714.3313,-3542.6358L13714.3335,-3542.6643"/>
<path content="3,御嵩町,おおくご線_01_on,1.5,0.0,0.0," xlink:title="3" d="M13712.8181,-3542.8987L13712.7578,-3542.8991"/>
<path content="3,御嵩町,おおくご線_01_on,1.5,0.0,0.0," xlink:title="3" d="M13712.8388,-3543.1331L13712.8395,-3543.0982L13712.8408,-3543.088L13712.8436,-3543.0204L13712.8436,-3542.9804L13712.8402,-3542.9574L13712.8333,-3542.9354L13712.8319,-3542.9292L13712.8181,-3542.8987"/>
<path content="3,御嵩町,おおくご線_01_on,1.5,0.0,0.0," xlink:title="3" d="M13712.8388,-3543.1331L13712.8381,-3543.1742L13712.8594,-3543.2553L13712.8395,-3543.2581L13712.803,-3543.2666L13712.7823,-3543.2717L13712.7789,-3543.2722L13712.7555,-3543.2773L13712.7369,-3543.2801L13712.7307,-3543.2807L13712.7156,-3543.2835L13712.6076,-3543.3032L13712.5945,-3543.3049L13712.5621,-3543.3105L13712.5559,-3543.3122L13712.5387,-3543.315L13712.5133,-3543.3178L13712.4803,-3543.3235L13712.4699,-3543.3263L13712.45,-3543.3302L13712.4355,-3543.3319L13712.4238,-3543.3347L13712.4046,-3543.337L13712.3915,-3543.3398L13712.3881,-3543.3167L13712.3826,-3543.2553L13712.3757,-3543.1995"/>
<path content="3,御嵩町,おおくご線_01_on,1.5,0.0,0.0," xlink:title="3" d="M13712.3757,-3543.1995L13712.4259,-3543.1939L13712.4335,-3543.1939L13712.4452,-3543.1922L13712.4583,-3543.19L13712.5027,-3543.184L13712.5628,-3543.1753L13712.5787,-3543.1736L13712.5904,-3543.1714L13712.6062,-3543.1686L13712.6309,-3543.1663L13712.6612,-3543.1618L13712.7356,-3543.1539L13712.7466,-3543.1511L13712.7748,-3543.1461L13712.8388,-3543.1331"/>
<path content="3,御嵩町,おおくご線_01_on,1.5,0.0,0.0," xlink:title="3" d="M13711.4589,-3543.4683L13711.5221,-3543.456L13711.4604,-3543.3551L13711.5031,-3543.3455L13711.5774,-3543.3303L13711.5967,-3543.3263L13711.6228,-3543.3213L13711.6414,-3543.3173L13711.6517,-3543.3145L13711.6545,-3543.3145L13711.7233,-3543.2993L13711.7302,-3543.2987L13711.7515,-3543.2942L13711.804,-3543.283L13711.8685,-3543.2694L13711.9105,-3543.2621L13711.9242,-3543.2582L13711.9435,-3543.2548L13712.0164,-3543.2391L13712.0261,-3543.2362L13712.1639,-3543.2057L13712.2016,-3543.201L13712.28,-3543.1995L13712.3013,-3543.2012L13712.3586,-3543.2004L13712.3757,-3543.1995"/>
<path content="3,御嵩町,おおくご線_02_on,1.5,0.0,0.0," xlink:title="3" d="M13714.3335,-3542.6643L13714.4111,-3542.6769L13714.4683,-3542.6859L13714.4917,-3542.6871L13714.5962,-3542.6871L13714.6148,-3542.6842L13714.6368,-3542.6746L13714.6527,-3542.6673L13714.7105,-3542.6403L13714.7779,-3542.61L13714.8261,-3542.5896L13714.844,-3542.5845L13714.9276,-3542.5743L13714.9362,-3542.5732L13714.9623,-3542.5693L13715.0284,-3542.5614L13715.047,-3542.5595L13715.0497,-3542.5592L13715.0538,-3542.5581L13715.1651,-3542.5438L13715.2651,-3542.531L13715.2848,-3542.5296L13715.2878,-3542.5293L13715.3174,-3542.5248L13715.3318,-3542.5231L13715.332,-3542.5231"/>
<path content="3,御嵩町,おおくご線_02_on,1.5,0.0,0.0," xlink:title="3" d="M13715.332,-3542.7636L13715.3298,-3542.7642L13715.3227,-3542.7667L13715.2809,-3542.7811L13715.1646,-3542.8211L13715.1557,-3542.8245L13715.1274,-3542.8324L13715.1164,-3542.8346L13715.1082,-3542.8357L13715.091,-3542.8414L13715.0607,-3542.8487L13715.0442,-3542.8515L13714.9389,-3542.8515L13714.9134,-3542.8532L13714.9093,-3542.8549L13714.8963,-3542.8572L13714.835,-3542.8724L13714.8034,-3542.8802L13714.7999,-3542.8819L13714.7685,-3542.8882L13714.6772,-3542.9123L13714.6045,-3542.9315L13714.5267,-3542.9512L13714.5254,-3542.9523L13714.482,-3542.9631L13714.4676,-3542.9664L13714.444,-3542.973L13714.4392,-3542.9743L13714.3946,-3542.9867L13714.3485,-3542.9991L13714.3427,-3542.9032L13714.343,-3542.8594L13714.3403,-3542.7969L13714.3381,-3542.7602L13714.3373,-3542.7281L13714.3373,-3542.7232L13714.3367,-3542.7156L13714.3355,-3542.6934L13714.3338,-3542.6686L13714.3335,-3542.6643"/>
<path content="3,御嵩町,おおくご線_02_on,1.5,0.0,0.0," xlink:title="3" d="M13715.332,-3543.0829L13715.2843,-3543.0701L13715.2699,-3543.0639L13715.2534,-3543.0537L13715.2396,-3543.0425L13715.2266,-3543.0273L13715.2183,-3543.0143L13715.2085,-3542.9991L13715.2073,-3542.9991L13715.2087,-3542.9737L13715.2073,-3542.9557L13715.1951,-3542.9268L13715.1743,-3542.8876L13715.1981,-3542.8779L13715.2754,-3542.8572L13715.2933,-3542.8515L13715.3084,-3542.8515L13715.316,-3542.8515L13715.332,-3542.8469"/>
<path content="3,御嵩町,おおくご線_02_on,1.5,0.0,0.0," xlink:title="3" d="M13712.8181,-3542.8987L13712.8035,-3542.8546L13712.8014,-3542.8483L13712.798,-3542.8384L13712.7908,-3542.8163L13712.7906,-3542.7811L13712.792,-3542.7281L13712.7941,-3542.6864L13712.7941,-3542.6695L13712.7996,-3542.558L13712.7948,-3542.5462L13712.7659,-3542.4899L13712.7528,-3542.46L13712.7487,-3542.4363L13712.7496,-3542.4221L13712.7528,-3542.4099L13712.7679,-3542.3766L13712.7838,-3542.3496L13712.7948,-3542.3355L13712.8016,-3542.3293L13712.8113,-3542.322L13712.8333,-3542.3135L13712.8464,-3542.3101L13712.8581,-3542.3079L13712.931,-3542.2983L13712.9573,-3542.2967L13712.9599,-3542.3344L13712.9682,-3542.4273L13712.9688,-3542.4329L13712.9737,-3542.5011L13713.0143,-3542.4977L13713.0287,-3542.4972L13713.1058,-3542.4921L13713.1402,-3542.4893L13713.1781,-3542.4876L13713.2021,-3542.4786L13713.2242,-3542.4769L13713.2317,-3542.478L13713.2427,-3542.4837L13713.2709,-3542.4842L13713.2709,-3542.4769L13713.2668,-3542.4138L13713.2661,-3542.384L13713.2634,-3542.3412L13713.2579,-3542.2465L13713.2544,-3542.2088L13713.2262,-3542.2088L13713.2634,-3542.1547L13713.2834,-3542.1299L13713.2796,-3542.1242L13713.2654,-3542.1141L13713.2476,-3542.1046L13713.2661,-3542.0877L13713.2868,-3542.0753L13713.3205,-3542.0601L13713.3315,-3542.0567L13713.3533,-3542.0558L13713.4264,-3542.0681L13713.4819,-3542.0816L13713.532,-3542.1029L13713.6019,-3542.1508L13713.6171,-3542.1542L13713.6419,-3542.1553L13713.7781,-3542.1547L13713.8912,-3542.1555L13713.9247,-3542.1553L13713.9378,-3542.1553L13713.9721,-3542.157L13714.0244,-3542.1592L13714.0809,-3542.1643L13714.0905,-3542.1671L13714.1036,-3542.1733L13714.1318,-3542.1902L13714.1628,-3542.2054L13714.1951,-3542.2161L13714.2342,-3542.226L13714.2556,-3542.2279L13714.2914,-3542.2296L13714.3141,-3542.2696L13714.3245,-3542.2939L13714.332,-3542.3187L13714.3345,-3542.4673L13714.3334,-3542.5214L13714.3313,-3542.5699L13714.3313,-3542.597L13714.3313,-3542.6358L13714.3335,-3542.6643"/>
<path content="3,御嵩町,おおくご線_02_on,1.5,0.0,0.0," xlink:title="3" d="M13712.8181,-3542.8987L13712.7578,-3542.8991"/>
<path content="3,御嵩町,おおくご線_02_on,1.5,0.0,0.0," xlink:title="3" d="M13712.8388,-3543.1331L13712.8395,-3543.0982L13712.8408,-3543.088L13712.8436,-3543.0204L13712.8436,-3542.9804L13712.8402,-3542.9574L13712.8333,-3542.9354L13712.8319,-3542.9292L13712.8181,-3542.8987"/>
<path content="3,御嵩町,おおくご線_02_on,1.5,0.0,0.0," xlink:title="3" d="M13712.8388,-3543.1331L13712.8381,-3543.1742L13712.8594,-3543.2553L13712.8395,-3543.2581L13712.803,-3543.2666L13712.7823,-3543.2717L13712.7789,-3543.2722L13712.7555,-3543.2773L13712.7369,-3543.2801L13712.7307,-3543.2807L13712.7156,-3543.2835L13712.6076,-3543.3032L13712.5945,-3543.3049L13712.5621,-3543.3105L13712.5559,-3543.3122L13712.5387,-3543.315L13712.5133,-3543.3178L13712.4803,-3543.3235L13712.4699,-3543.3263L13712.45,-3543.3302L13712.4355,-3543.3319L13712.4238,-3543.3347L13712.4046,-3543.337L13712.3915,-3543.3398L13712.3881,-3543.3167L13712.3826,-3543.2553L13712.3757,-3543.1995"/>
<path content="3,御嵩町,おおくご線_02_on,1.5,0.0,0.0," xlink:title="3" d="M13712.3757,-3543.1995L13712.4259,-3543.1939L13712.4335,-3543.1939L13712.4452,-3543.1922L13712.4583,-3543.19L13712.5027,-3543.184L13712.5628,-3543.1753L13712.5787,-3543.1736L13712.5904,-3543.1714L13712.6062,-3543.1686L13712.6309,-3543.1663L13712.6612,-3543.1618L13712.7356,-3543.1539L13712.7466,-3543.1511L13712.7748,-3543.1461L13712.8388,-3543.1331"/>
<path content="3,御嵩町,おおくご線_02_on,1.5,0.0,0.0," xlink:title="3" d="M13711.4589,-3543.4683L13711.5221,-3543.456L13711.4604,-3543.3551L13711.5031,-3543.3455L13711.5774,-3543.3303L13711.5967,-3543.3263L13711.6228,-3543.3213L13711.6414,-3543.3173L13711.6517,-3543.3145L13711.6545,-3543.3145L13711.7233,-3543.2993L13711.7302,-3543.2987L13711.7515,-3543.2942L13711.804,-3543.283L13711.8685,-3543.2694L13711.9105,-3543.2621L13711.9242,-3543.2582L13711.9435,-3543.2548L13712.0164,-3543.2391L13712.0261,-3543.2362L13712.1639,-3543.2057L13712.2016,-3543.201L13712.28,-3543.1995L13712.3013,-3543.2012L13712.3586,-3543.2004L13712.3757,-3543.1995"/>
<path content="3,御嵩町,かみのごう線_01_on,2.0,0.0,0.0," xlink:title="3" d="M13715.332,-3542.8469L13715.316,-3542.8515L13715.3084,-3542.8515L13715.2933,-3542.8515L13715.2754,-3542.8572L13715.1981,-3542.8779L13715.1743,-3542.8876L13715.1951,-3542.9268L13715.2073,-3542.9557L13715.2087,-3542.9737L13715.2073,-3542.9991L13715.2085,-3542.9991L13715.2183,-3543.0143L13715.2266,-3543.0273L13715.2396,-3543.0425L13715.2534,-3543.0537L13715.2699,-3543.0639L13715.2843,-3543.0701L13715.332,-3543.0829"/>
<path content="3,御嵩町,かみのごう線_02_on,2.0,0.0,0.0," xlink:title="3" d="M13715.332,-3542.8469L13715.316,-3542.8515L13715.3084,-3542.8515L13715.2933,-3542.8515L13715.2754,-3542.8572L13715.1981,-3542.8779L13715.1743,-3542.8876L13715.1951,-3542.9268L13715.2073,-3542.9557L13715.2087,-3542.9737L13715.2073,-3542.9991L13715.2085,-3542.9991L13715.2183,-3543.0143L13715.2266,-3543.0273L13715.2396,-3543.0425L13715.2534,-3543.0537L13715.2699,-3543.0639L13715.2843,-3543.0701L13715.332,-3543.0829"/>
<path content="3,御嵩町,つばし線_01_on,2.0,0.0,0.0," xlink:title="3" d="M13712.3013,-3543.2012L13712.3586,-3543.2004L13712.3757,-3543.1995L13712.4259,-3543.1939L13712.4335,-3543.1939L13712.4452,-3543.1922L13712.4583,-3543.19L13712.5027,-3543.184L13712.5628,-3543.1753L13712.5787,-3543.1736L13712.5904,-3543.1714L13712.6062,-3543.1686L13712.6309,-3543.1663L13712.6612,-3543.1618L13712.7356,-3543.1539L13712.7466,-3543.1511L13712.7748,-3543.1461L13712.8388,-3543.1331L13712.8395,-3543.0982L13712.8408,-3543.088L13712.8436,-3543.0204L13712.8436,-3542.9804L13712.8402,-3542.9574L13712.8333,-3542.9354L13712.8319,-3542.9292L13712.8181,-3542.8987L13712.8066,-3542.9016L13712.795,-3542.902L13712.7578,-3542.8991"/>
<path content="3,御嵩町,つばし線_01_on,2.0,0.0,0.0," xlink:title="3" d="M13712.3013,-3543.2012L13712.3048,-3543.2086L13712.3089,-3543.2215L13712.3082,-3543.2497L13712.3041,-3543.2711L13712.2972,-3543.3308L13712.2951,-3543.3454L13712.291,-3543.3871L13712.2883,-3543.4001L13712.2841,-3543.435L13712.2649,-3543.4389L13712.2676,-3543.4558L13712.2838,-3543.5216L13712.3006,-3543.5871L13712.3013,-3543.5888L13712.3027,-3543.5888L13712.4114,-3543.5696L13712.4251,-3543.567L13712.4741,-3543.5578L13712.6261,-3543.5324L13712.6929,-3543.5201L13712.6956,-3543.5257L13712.697,-3543.5302L13712.706,-3543.5516L13712.7066,-3543.5578L13712.7142,-3543.5567L13712.7218,-3543.5556L13712.7397,-3543.5505L13712.7596,-3543.546L13712.7768,-3543.5415L13712.7865,-3543.5398L13712.8147,-3543.5319L13712.8449,-3543.5246L13712.8856,-3543.5127L13712.9117,-3543.5105L13712.9248,-3543.5139L13712.9378,-3543.5212L13712.9695,-3543.5449L13712.9895,-3543.5578L13713.0046,-3543.5606L13713.0232,-3543.5601L13713.0383,-3543.5539L13713.0617,-3543.5358L13713.0789,-3543.5189L13713.0906,-3543.5054L13713.0989,-3543.4913L13713.1071,-3543.4711L13713.1071,-3543.448L13713.0996,-3543.417L13713.0839,-3543.3589L13713.07,-3543.3032L13713.1085,-3543.2964L13713.1519,-3543.2886L13713.189,-3543.2818L13713.2152,-3543.2779L13713.2179,-3543.2621L13713.2193,-3543.1928L13713.2207,-3543.1771L13713.2221,-3543.1686L13713.2234,-3543.1613L13713.2221,-3543.1309L13713.2207,-3543.1235L13713.2207,-3543.1106L13713.1939,-3543.1111L13713.1746,-3543.11L13713.169,-3543.023L13713.1684,-3542.9929L13713.2138,-3542.9945L13713.2207,-3542.9962L13713.2393,-3542.9923L13713.2399,-3542.9912L13713.3067,-3542.9737L13713.3411,-3542.9686L13713.3714,-3542.9675L13713.3872,-3542.9658L13713.4209,-3542.9664L13713.4884,-3542.9686L13713.4959,-3542.9681L13713.5241,-3542.9641L13713.5537,-3542.9579L13713.5703,-3542.9529L13713.5771,-3542.9517L13713.6542,-3542.9501L13713.6582,-3542.9603L13713.6666,-3542.9782L13713.6694,-3542.9946L13713.6769,-3543.0007L13713.6893,-3543.0064L13713.756,-3543.0272L13713.7726,-3543.034L13713.7796,-3543.0381L13713.7898,-3543.0441L13713.7946,-3543.0509L13713.798,-3543.0565L13713.8104,-3543.0622L13713.8288,-3543.0653L13713.8725,-3543.0776L13713.9047,-3543.1112L13713.9253,-3543.1101L13713.937,-3543.1072L13713.9721,-3543.0977L13714.0086,-3543.0881L13714.0189,-3543.0852L13714.0326,-3543.083L13714.065,-3543.0734L13714.0829,-3543.1022L13714.1118,-3543.1371L13714.1226,-3543.1482L13714.1462,-3543.1399L13714.1792,-3543.1309L13714.2288,-3543.1174L13714.246,-3543.1134L13714.2694,-3543.1072L13714.2866,-3543.1033L13714.3203,-3543.0937L13714.3369,-3543.0894L13714.3444,-3543.0875L13714.4029,-3543.0717L13714.4098,-3543.0706L13714.4331,-3543.0639L13714.4345,-3543.0627L13714.4448,-3543.0605L13714.4763,-3543.0523L13714.5219,-3543.0402L13714.5295,-3543.0391L13714.5309,-3543.038L13714.5549,-3543.0318L13714.6052,-3543.0182L13714.6894,-3542.9971L13714.7046,-3542.9932L13714.7394,-3543.0898L13714.7442,-3543.0999L13714.7462,-3543.0988L13714.7786,-3543.0909L13714.7799,-3543.0904L13714.7978,-3543.0664L13714.8254,-3543.0306L13714.8405,-3543.0194L13714.8226,-3542.9681L13714.8206,-3542.9608L13714.8825,-3542.9444L13714.93,-3542.9321L13715.0208,-3542.9078L13715.0304,-3542.9061L13715.0497,-3542.9005L13715.0862,-3542.8904L13715.1743,-3542.8876L13715.1981,-3542.8779L13715.2754,-3542.8572L13715.2933,-3542.8515L13715.3084,-3542.8515L13715.316,-3542.8515L13715.332,-3542.8469"/>
<path content="3,御嵩町,つばし線_01_on,2.0,0.0,0.0," xlink:title="3" d="M13711.4589,-3543.4683L13711.5221,-3543.456L13711.4604,-3543.3551L13711.5031,-3543.3455L13711.5774,-3543.3303L13711.5967,-3543.3263L13711.6228,-3543.3213L13711.6414,-3543.3173L13711.6517,-3543.3145L13711.6545,-3543.3145L13711.7233,-3543.2993L13711.7302,-3543.2987L13711.7515,-3543.2942L13711.804,-3543.283L13711.8685,-3543.2694L13711.9105,-3543.2621L13711.9242,-3543.2582L13711.9435,-3543.2548L13712.0164,-3543.2391L13712.0261,-3543.2362L13712.1639,-3543.2057L13712.2016,-3543.201L13712.28,-3543.1995L13712.3013,-3543.2012"/>
<path content="3,御嵩町,つばし線_02_on,2.0,0.0,0.0," xlink:title="3" d="M13712.3013,-3543.2012L13712.3586,-3543.2004L13712.3757,-3543.1995L13712.4259,-3543.1939L13712.4335,-3543.1939L13712.4452,-3543.1922L13712.4583,-3543.19L13712.5027,-3543.184L13712.5628,-3543.1753L13712.5787,-3543.1736L13712.5904,-3543.1714L13712.6062,-3543.1686L13712.6309,-3543.1663L13712.6612,-3543.1618L13712.7356,-3543.1539L13712.7466,-3543.1511L13712.7748,-3543.1461L13712.8388,-3543.1331L13712.8395,-3543.0982L13712.8408,-3543.088L13712.8436,-3543.0204L13712.8436,-3542.9804L13712.8402,-3542.9574L13712.8333,-3542.9354L13712.8319,-3542.9292L13712.8181,-3542.8987L13712.8066,-3542.9016L13712.795,-3542.902L13712.7578,-3542.8991"/>
<path content="3,御嵩町,つばし線_02_on,2.0,0.0,0.0," xlink:title="3" d="M13712.3013,-3543.2012L13712.3048,-3543.2086L13712.3089,-3543.2215L13712.3082,-3543.2497L13712.3041,-3543.2711L13712.2972,-3543.3308L13712.2951,-3543.3454L13712.291,-3543.3871L13712.2883,-3543.4001L13712.2841,-3543.435L13712.2649,-3543.4389L13712.2676,-3543.4558L13712.2838,-3543.5216L13712.3006,-3543.5871L13712.3013,-3543.5888L13712.3027,-3543.5888L13712.4114,-3543.5696L13712.4251,-3543.567L13712.4741,-3543.5578L13712.6261,-3543.5324L13712.6929,-3543.5201L13712.6956,-3543.5257L13712.697,-3543.5302L13712.706,-3543.5516L13712.7066,-3543.5578L13712.7142,-3543.5567L13712.7218,-3543.5556L13712.7397,-3543.5505L13712.7596,-3543.546L13712.7768,-3543.5415L13712.7865,-3543.5398L13712.8147,-3543.5319L13712.8449,-3543.5246L13712.8856,-3543.5127L13712.9117,-3543.5105L13712.9248,-3543.5139L13712.9378,-3543.5212L13712.9695,-3543.5449L13712.9895,-3543.5578L13713.0046,-3543.5606L13713.0232,-3543.5601L13713.0383,-3543.5539L13713.0617,-3543.5358L13713.0789,-3543.5189L13713.0906,-3543.5054L13713.0989,-3543.4913L13713.1071,-3543.4711L13713.1071,-3543.448L13713.0996,-3543.417L13713.0839,-3543.3589L13713.07,-3543.3032L13713.1085,-3543.2964L13713.1519,-3543.2886L13713.189,-3543.2818L13713.2152,-3543.2779L13713.2179,-3543.2621L13713.2193,-3543.1928L13713.2207,-3543.1771L13713.2221,-3543.1686L13713.2234,-3543.1613L13713.2221,-3543.1309L13713.2207,-3543.1235L13713.2207,-3543.1106L13713.1939,-3543.1111L13713.1746,-3543.11L13713.169,-3543.023L13713.1684,-3542.9929L13713.2138,-3542.9945L13713.2207,-3542.9962L13713.2393,-3542.9923L13713.2399,-3542.9912L13713.3067,-3542.9737L13713.3411,-3542.9686L13713.3714,-3542.9675L13713.3872,-3542.9658L13713.4209,-3542.9664L13713.4884,-3542.9686L13713.4959,-3542.9681L13713.5241,-3542.9641L13713.5537,-3542.9579L13713.5703,-3542.9529L13713.5771,-3542.9517L13713.6542,-3542.9501L13713.6582,-3542.9603L13713.6666,-3542.9782L13713.6694,-3542.9946L13713.6769,-3543.0007L13713.6893,-3543.0064L13713.756,-3543.0272L13713.7726,-3543.034L13713.7796,-3543.0381L13713.7898,-3543.0441L13713.7946,-3543.0509L13713.798,-3543.0565L13713.8104,-3543.0622L13713.8288,-3543.0653L13713.8725,-3543.0776L13713.9047,-3543.1112L13713.9253,-3543.1101L13713.937,-3543.1072L13713.9721,-3543.0977L13714.0086,-3543.0881L13714.0189,-3543.0852L13714.0326,-3543.083L13714.065,-3543.0734L13714.0829,-3543.1022L13714.1118,-3543.1371L13714.1226,-3543.1482L13714.1462,-3543.1399L13714.1792,-3543.1309L13714.2288,-3543.1174L13714.246,-3543.1134L13714.2694,-3543.1072L13714.2866,-3543.1033L13714.3203,-3543.0937L13714.3369,-3543.0894L13714.3444,-3543.0875L13714.4029,-3543.0717L13714.4098,-3543.0706L13714.4331,-3543.0639L13714.4345,-3543.0627L13714.4448,-3543.0605L13714.4763,-3543.0523L13714.5219,-3543.0402L13714.5295,-3543.0391L13714.5309,-3543.038L13714.5549,-3543.0318L13714.6052,-3543.0182L13714.6894,-3542.9971L13714.7046,-3542.9932L13714.7394,-3543.0898L13714.7442,-3543.0999L13714.7462,-3543.0988L13714.7786,-3543.0909L13714.7799,-3543.0904L13714.7978,-3543.0664L13714.8254,-3543.0306L13714.8405,-3543.0194L13714.8226,-3542.9681L13714.8206,-3542.9608L13714.8825,-3542.9444L13714.93,-3542.9321L13715.0208,-3542.9078L13715.0304,-3542.9061L13715.0497,-3542.9005L13715.0862,-3542.8904L13715.1743,-3542.8876L13715.1981,-3542.8779L13715.2754,-3542.8572L13715.2933,-3542.8515L13715.3084,-3542.8515L13715.316,-3542.8515L13715.332,-3542.8469"/>
<path content="3,御嵩町,つばし線_02_on,2.0,0.0,0.0," xlink:title="3" d="M13711.4589,-3543.4683L13711.5221,-3543.456L13711.4604,-3543.3551L13711.5031,-3543.3455L13711.5774,-3543.3303L13711.5967,-3543.3263L13711.6228,-3543.3213L13711.6414,-3543.3173L13711.6517,-3543.3145L13711.6545,-3543.3145L13711.7233,-3543.2993L13711.7302,-3543.2987L13711.7515,-3543.2942L13711.804,-3543.283L13711.8685,-3543.2694L13711.9105,-3543.2621L13711.9242,-3543.2582L13711.9435,-3543.2548L13712.0164,-3543.2391L13712.0261,-3543.2362L13712.1639,-3543.2057L13712.2016,-3543.201L13712.28,-3543.1995L13712.3013,-3543.2012"/>
<path content="3,御嵩町,なか線_01_on,1.5,0.0,0.0," xlink:title="3" d="M13712.8181,-3542.8987L13712.8066,-3542.9016L13712.795,-3542.902L13712.7578,-3542.8991"/>
<path content="3,御嵩町,なか線_01_on,1.5,0.0,0.0," xlink:title="3" d="M13712.8181,-3542.8987L13712.8319,-3542.9292L13712.8333,-3542.9354L13712.8402,-3542.9574L13712.8436,-3542.9804L13712.8436,-3543.0204L13712.8408,-3543.088L13712.8395,-3543.0982L13712.8388,-3543.1331L13712.7748,-3543.1461L13712.7466,-3543.1511L13712.7356,-3543.1539L13712.6612,-3543.1618L13712.6309,-3543.1663L13712.6062,-3543.1686L13712.5904,-3543.1714L13712.5787,-3543.1736L13712.5628,-3543.1753L13712.5027,-3543.184L13712.4583,-3543.19L13712.4452,-3543.1922L13712.4335,-3543.1939L13712.4259,-3543.1939L13712.3757,-3543.1995L13712.3586,-3543.2004L13712.3013,-3543.2012"/>
<path content="3,御嵩町,なか線_01_on,1.5,0.0,0.0," xlink:title="3" d="M13713.6542,-3542.9501L13713.7712,-3542.905L13713.7863,-3542.8994L13713.7896,-3542.8981L13713.8352,-3542.8802L13713.8538,-3542.8734L13713.8737,-3542.865L13713.8964,-3542.8509L13713.9151,-3542.8387L13713.9459,-3542.8055L13713.9941,-3542.7383L13714.0024,-3542.7264L13714.0141,-3542.7079L13714.0373,-3542.6742L13714.0744,-3542.6699L13714.0932,-3542.669L13714.1414,-3542.6791L13714.1489,-3542.6815L13714.1559,-3542.6836L13714.2054,-3542.6949L13714.2563,-3542.7062L13714.3373,-3542.7281L13714.3373,-3542.7232L13714.3367,-3542.7156L13714.3355,-3542.6934L13714.3338,-3542.6686L13714.3335,-3542.6643L13714.3313,-3542.6358L13714.3313,-3542.597L13714.3313,-3542.5699L13714.3334,-3542.5214L13714.3345,-3542.4673L13714.332,-3542.3187L13714.3245,-3542.2939L13714.3141,-3542.2696L13714.2914,-3542.2296L13714.2556,-3542.2279L13714.2342,-3542.226L13714.1951,-3542.2161L13714.1628,-3542.2054L13714.1318,-3542.1902L13714.1036,-3542.1733L13714.0905,-3542.1671L13714.0809,-3542.1643L13714.0244,-3542.1592L13713.9721,-3542.157L13713.9378,-3542.1553L13713.9247,-3542.1553L13713.8912,-3542.1555L13713.7781,-3542.1547L13713.6419,-3542.1553L13713.6171,-3542.1542L13713.6019,-3542.1508L13713.532,-3542.1029L13713.4819,-3542.0816L13713.4264,-3542.0681L13713.3533,-3542.0558L13713.3315,-3542.0567L13713.3205,-3542.0601L13713.2868,-3542.0753L13713.2661,-3542.0877L13713.2476,-3542.1046L13713.2654,-3542.1141L13713.2796,-3542.1242L13713.2834,-3542.1299L13713.2634,-3542.1547L13713.2262,-3542.2088L13713.2544,-3542.2088L13713.2579,-3542.2465L13713.2634,-3542.3412L13713.2661,-3542.384L13713.2668,-3542.4138L13713.2709,-3542.4769L13713.2709,-3542.4842L13713.2427,-3542.4837L13713.2317,-3542.478L13713.2242,-3542.4769L13713.2021,-3542.4786L13713.1781,-3542.4876L13713.1402,-3542.4893L13713.1058,-3542.4921L13713.0287,-3542.4972L13713.0143,-3542.4977L13712.9737,-3542.5011L13712.9688,-3542.4329L13712.9682,-3542.4273L13712.9599,-3542.3344L13712.9573,-3542.2967L13712.931,-3542.2983L13712.8581,-3542.3079L13712.8464,-3542.3101L13712.8333,-3542.3135L13712.8113,-3542.322L13712.8016,-3542.3293L13712.7948,-3542.3355L13712.7838,-3542.3496L13712.7679,-3542.3766L13712.7528,-3542.4099L13712.7496,-3542.4221L13712.7487,-3542.4363L13712.7528,-3542.46L13712.7659,-3542.4899L13712.7948,-3542.5462L13712.7996,-3542.558L13712.7941,-3542.6695L13712.7941,-3542.6864L13712.792,-3542.7281L13712.7906,-3542.7811L13712.7908,-3542.8163L13712.798,-3542.8384L13712.8014,-3542.8483L13712.8035,-3542.8546L13712.8181,-3542.8987"/>
<path content="3,御嵩町,なか線_01_on,1.5,0.0,0.0," xlink:title="3" d="M13713.6542,-3542.9501L13713.6582,-3542.9603"/>
<path content="3,御嵩町,なか線_01_on,1.5,0.0,0.0," xlink:title="3" d="M13712.3013,-3543.2012L13712.28,-3543.1995L13712.2016,-3543.201L13712.1639,-3543.2057L13712.0261,-3543.2362L13712.0164,-3543.2391L13711.9435,-3543.2548L13711.9242,-3543.2582L13711.9105,-3543.2621L13711.8685,-3543.2694L13711.804,-3543.283L13711.7515,-3543.2942L13711.7302,-3543.2987L13711.7233,-3543.2993L13711.6545,-3543.3145L13711.6517,-3543.3145L13711.6414,-3543.3173L13711.6228,-3543.3213L13711.5967,-3543.3263L13711.5774,-3543.3303L13711.5031,-3543.3455L13711.4604,-3543.3551"/>
<path content="3,御嵩町,なか線_01_on,1.5,0.0,0.0," xlink:title="3" d="M13711.4604,-3543.3551L13711.4474,-3543.3355L13711.434,-3543.3139L13711.3996,-3543.2594L13711.3923,-3543.2486L13711.3875,-3543.2413L13711.3489,-3543.1923L13711.3118,-3543.203L13711.2918,-3543.203L13711.201,-3543.1945L13711.1322,-3543.1889L13711.1191,-3543.1877L13711.1026,-3543.186L13711.0448,-3543.1877L13711.0159,-3543.1922L13710.9856,-3543.2007L13710.9649,-3543.208L13710.9471,-3543.2193L13710.9375,-3543.2275M13710.9375,-3543.9492L13711.0207,-3543.9347L13711.0764,-3543.9245L13711.0888,-3543.9228L13711.0916,-3543.9127L13711.0909,-3543.9093L13711.1005,-3543.9099L13711.1225,-3543.9122L13711.1459,-3543.9127L13711.1659,-3543.915L13711.1796,-3543.9178L13711.2017,-3543.9262"/>
<path content="3,御嵩町,なか線_01_on,1.5,0.0,0.0," xlink:title="3" d="M13711.4589,-3543.4683L13711.5221,-3543.456L13711.4604,-3543.3551"/>
<path content="3,御嵩町,なか線_01_on,1.5,0.0,0.0," xlink:title="3" d="M13712.3013,-3543.5888L13712.2838,-3543.5216L13712.2649,-3543.4389L13712.2841,-3543.435L13712.2883,-3543.4001L13712.291,-3543.3871L13712.2951,-3543.3454L13712.2972,-3543.3308L13712.3041,-3543.2711L13712.3082,-3543.2497L13712.3089,-3543.2215L13712.3048,-3543.2086L13712.3013,-3543.2012"/>
<path content="3,御嵩町,なか線_01_on,1.5,0.0,0.0," xlink:title="3" d="M13712.3013,-3543.5888L13712.3027,-3543.5888L13712.4114,-3543.5696L13712.4251,-3543.567L13712.4741,-3543.5578L13712.6261,-3543.5324L13712.6929,-3543.5201L13712.6956,-3543.5257L13712.697,-3543.5302L13712.706,-3543.5516L13712.7066,-3543.5578L13712.7142,-3543.5567L13712.7218,-3543.5556L13712.7397,-3543.5505L13712.7596,-3543.546L13712.7768,-3543.5415L13712.7865,-3543.5398L13712.8147,-3543.5319L13712.8449,-3543.5246L13712.8856,-3543.5127L13712.9117,-3543.5105L13712.9248,-3543.5139L13712.9378,-3543.5212L13712.9695,-3543.5449L13712.9895,-3543.5578L13713.0046,-3543.5606L13713.0232,-3543.5601L13713.0383,-3543.5539L13713.0617,-3543.5358L13713.0789,-3543.5189L13713.0906,-3543.5054L13713.0989,-3543.4913L13713.1071,-3543.4711L13713.1071,-3543.448L13713.0996,-3543.417L13713.0839,-3543.3589L13713.07,-3543.3032L13713.1085,-3543.2964L13713.1519,-3543.2886L13713.189,-3543.2818L13713.2152,-3543.2779L13713.2179,-3543.2621L13713.2193,-3543.1928L13713.2207,-3543.1771L13713.2221,-3543.1686L13713.2234,-3543.1613L13713.2221,-3543.1309L13713.2207,-3543.1235L13713.2207,-3543.1106L13713.1939,-3543.1111L13713.1746,-3543.11L13713.169,-3543.023L13713.1684,-3542.9929L13713.2138,-3542.9945L13713.2207,-3542.9962L13713.2393,-3542.9923L13713.2399,-3542.9912L13713.3067,-3542.9737L13713.3411,-3542.9686L13713.3714,-3542.9675L13713.3872,-3542.9658L13713.4209,-3542.9664L13713.4884,-3542.9686L13713.4959,-3542.9681L13713.5241,-3542.9641L13713.5537,-3542.9579L13713.5703,-3542.9529L13713.5771,-3542.9517L13713.6542,-3542.9501"/>
<path content="3,御嵩町,なか線_01_on,1.5,0.0,0.0," xlink:title="3" d="M13711.2017,-3543.9262L13711.2132,-3543.8629"/>
<path content="3,御嵩町,なか線_01_on,1.5,0.0,0.0," xlink:title="3" d="M13711.2017,-3543.9262L13711.2168,-3543.9364L13711.2196,-3543.9398L13711.2354,-3543.9415L13711.2457,-3543.9437L13711.2718,-3543.9426L13711.3097,-3543.933L13711.32,-3543.9302L13711.3228,-3543.9375L13711.3379,-3543.9674L13711.342,-3543.9848L13711.3434,-3544.0012L13711.3462,-3544.0136L13711.3558,-3544.0389L13711.3716,-3544.0597L13711.384,-3544.0794L13711.4095,-3544.1144L13711.4143,-3544.1214L13711.4233,-3544.1307L13711.4308,-3544.1352L13711.4666,-3544.1589L13711.4907,-3544.173L13711.5002,-3544.1792L13711.5191,-3544.1917L13711.5671,-3544.2203L13711.5671,-3544.2248L13711.5622,-3544.2417L13711.6455,-3544.2637L13711.6598,-3544.2595L13711.6992,-3544.2845L13711.7047,-3544.2924L13711.7074,-3544.3048L13711.7123,-3544.3161L13711.7178,-3544.3194L13711.7343,-3544.3245L13711.7418,-3544.3256L13711.7659,-3544.3324L13711.7673,-3544.3335L13711.7886,-3544.3386L13711.7921,-3544.3403L13711.8127,-3544.3454L13711.8251,-3544.3476L13711.8904,-3544.352L13711.8705,-3544.409L13711.8698,-3544.4164L13711.8726,-3544.4259L13711.876,-3544.4344L13711.8788,-3544.4377L13711.8994,-3544.4744L13711.9194,-3544.5098L13711.9325,-3544.5059L13711.9428,-3544.5037L13711.9559,-3544.4992L13711.9683,-3544.4992L13712.0625,-3544.5031L13712.1018,-3544.5049L13712.1052,-3544.4727L13712.1079,-3544.4372L13712.1107,-3544.4028L13712.1134,-3544.369L13712.1148,-3544.3471L13712.1162,-3544.3426L13712.1162,-3544.3341L13712.1176,-3544.3178L13712.1176,-3544.3009L13712.1162,-3544.2952L13712.1121,-3544.2834L13712.1018,-3544.2631L13712.0901,-3544.2462L13712.0763,-3544.2282L13712.0674,-3544.2299L13712.0316,-3544.2451L13712.0068,-3544.2124L13711.9886,-3544.1987L13711.9524,-3544.2006L13711.9098,-3544.2034L13711.8341,-3544.2085L13711.8155,-3544.1747L13711.8004,-3544.1398L13711.7838,-3544.0896L13711.779,-3544.0705L13711.7769,-3544.066L13711.7749,-3544.0564L13711.7653,-3544.0231L13711.7547,-3543.9805L13711.746,-3543.9421L13711.7412,-3543.9218L13711.7377,-3543.9133L13711.7276,-3543.8719L13711.725,-3543.8638L13711.6944,-3543.7809L13711.6889,-3543.768L13711.7295,-3543.7618L13711.7329,-3543.7606L13711.746,-3543.7595L13711.7488,-3543.7584L13711.7577,-3543.7573L13711.8183,-3543.7477L13711.8299,-3543.7471L13711.841,-3543.7454L13711.9449,-3543.728L13711.9931,-3543.7207L13712.0694,-3543.7094L13712.1162,-3543.7021L13712.1231,-3543.7004L13712.2016,-3543.6882L13712.2404,-3543.6792L13712.2769,-3543.6699L13712.3165,-3543.6626L13712.3013,-3543.5888"/>
<path content="3,御嵩町,なか線_02_on,1.5,0.0,0.0," xlink:title="3" d="M13712.8181,-3542.8987L13712.8066,-3542.9016L13712.795,-3542.902L13712.7578,-3542.8991"/>
<path content="3,御嵩町,なか線_02_on,1.5,0.0,0.0," xlink:title="3" d="M13712.8181,-3542.8987L13712.8319,-3542.9292L13712.8333,-3542.9354L13712.8402,-3542.9574L13712.8436,-3542.9804L13712.8436,-3543.0204L13712.8408,-3543.088L13712.8395,-3543.0982L13712.8388,-3543.1331L13712.7748,-3543.1461L13712.7466,-3543.1511L13712.7356,-3543.1539L13712.6612,-3543.1618L13712.6309,-3543.1663L13712.6062,-3543.1686L13712.5904,-3543.1714L13712.5787,-3543.1736L13712.5628,-3543.1753L13712.5027,-3543.184L13712.4583,-3543.19L13712.4452,-3543.1922L13712.4335,-3543.1939L13712.4259,-3543.1939L13712.3757,-3543.1995L13712.3586,-3543.2004L13712.3013,-3543.2012"/>
<path content="3,御嵩町,なか線_02_on,1.5,0.0,0.0," xlink:title="3" d="M13713.6542,-3542.9501L13713.7712,-3542.905L13713.7863,-3542.8994L13713.7896,-3542.8981L13713.8352,-3542.8802L13713.8538,-3542.8734L13713.8737,-3542.865L13713.8964,-3542.8509L13713.9151,-3542.8387L13713.9459,-3542.8055L13713.9941,-3542.7383L13714.0024,-3542.7264L13714.0141,-3542.7079L13714.0373,-3542.6742L13714.0744,-3542.6699L13714.0932,-3542.669L13714.1414,-3542.6791L13714.1489,-3542.6815L13714.1559,-3542.6836L13714.2054,-3542.6949L13714.2563,-3542.7062L13714.3373,-3542.7281L13714.3373,-3542.7232L13714.3367,-3542.7156L13714.3355,-3542.6934L13714.3338,-3542.6686L13714.3335,-3542.6643L13714.3313,-3542.6358L13714.3313,-3542.597L13714.3313,-3542.5699L13714.3334,-3542.5214L13714.3345,-3542.4673L13714.332,-3542.3187L13714.3245,-3542.2939L13714.3141,-3542.2696L13714.2914,-3542.2296L13714.2556,-3542.2279L13714.2342,-3542.226L13714.1951,-3542.2161L13714.1628,-3542.2054L13714.1318,-3542.1902L13714.1036,-3542.1733L13714.0905,-3542.1671L13714.0809,-3542.1643L13714.0244,-3542.1592L13713.9721,-3542.157L13713.9378,-3542.1553L13713.9247,-3542.1553L13713.8912,-3542.1555L13713.7781,-3542.1547L13713.6419,-3542.1553L13713.6171,-3542.1542L13713.6019,-3542.1508L13713.532,-3542.1029L13713.4819,-3542.0816L13713.4264,-3542.0681L13713.3533,-3542.0558L13713.3315,-3542.0567L13713.3205,-3542.0601L13713.2868,-3542.0753L13713.2661,-3542.0877L13713.2476,-3542.1046L13713.2654,-3542.1141L13713.2796,-3542.1242L13713.2834,-3542.1299L13713.2634,-3542.1547L13713.2262,-3542.2088L13713.2544,-3542.2088L13713.2579,-3542.2465L13713.2634,-3542.3412L13713.2661,-3542.384L13713.2668,-3542.4138L13713.2709,-3542.4769L13713.2709,-3542.4842L13713.2427,-3542.4837L13713.2317,-3542.478L13713.2242,-3542.4769L13713.2021,-3542.4786L13713.1781,-3542.4876L13713.1402,-3542.4893L13713.1058,-3542.4921L13713.0287,-3542.4972L13713.0143,-3542.4977L13712.9737,-3542.5011L13712.9688,-3542.4329L13712.9682,-3542.4273L13712.9599,-3542.3344L13712.9573,-3542.2967L13712.931,-3542.2983L13712.8581,-3542.3079L13712.8464,-3542.3101L13712.8333,-3542.3135L13712.8113,-3542.322L13712.8016,-3542.3293L13712.7948,-3542.3355L13712.7838,-3542.3496L13712.7679,-3542.3766L13712.7528,-3542.4099L13712.7496,-3542.4221L13712.7487,-3542.4363L13712.7528,-3542.46L13712.7659,-3542.4899L13712.7948,-3542.5462L13712.7996,-3542.558L13712.7941,-3542.6695L13712.7941,-3542.6864L13712.792,-3542.7281L13712.7906,-3542.7811L13712.7908,-3542.8163L13712.798,-3542.8384L13712.8014,-3542.8483L13712.8035,-3542.8546L13712.8181,-3542.8987"/>
<path content="3,御嵩町,なか線_02_on,1.5,0.0,0.0," xlink:title="3" d="M13713.6542,-3542.9501L13713.6582,-3542.9603"/>
<path content="3,御嵩町,なか線_02_on,1.5,0.0,0.0," xlink:title="3" d="M13712.3013,-3543.2012L13712.28,-3543.1995L13712.2016,-3543.201L13712.1639,-3543.2057L13712.0261,-3543.2362L13712.0164,-3543.2391L13711.9435,-3543.2548L13711.9242,-3543.2582L13711.9105,-3543.2621L13711.8685,-3543.2694L13711.804,-3543.283L13711.7515,-3543.2942L13711.7302,-3543.2987L13711.7233,-3543.2993L13711.6545,-3543.3145L13711.6517,-3543.3145L13711.6414,-3543.3173L13711.6228,-3543.3213L13711.5967,-3543.3263L13711.5774,-3543.3303L13711.5031,-3543.3455L13711.4604,-3543.3551"/>
<path content="3,御嵩町,なか線_02_on,1.5,0.0,0.0," xlink:title="3" d="M13711.4604,-3543.3551L13711.4474,-3543.3355L13711.434,-3543.3139L13711.3996,-3543.2594L13711.3923,-3543.2486L13711.3875,-3543.2413L13711.3489,-3543.1923L13711.3118,-3543.203L13711.2918,-3543.203L13711.201,-3543.1945L13711.1322,-3543.1889L13711.1191,-3543.1877L13711.1026,-3543.186L13711.0448,-3543.1877L13711.0159,-3543.1922L13710.9856,-3543.2007L13710.9649,-3543.208L13710.9471,-3543.2193L13710.9375,-3543.2275M13710.9375,-3543.9492L13711.0207,-3543.9347L13711.0764,-3543.9245L13711.0888,-3543.9228L13711.0916,-3543.9127L13711.0909,-3543.9093L13711.1005,-3543.9099L13711.1225,-3543.9122L13711.1459,-3543.9127L13711.1659,-3543.915L13711.1796,-3543.9178L13711.2017,-3543.9262"/>
<path content="3,御嵩町,なか線_02_on,1.5,0.0,0.0," xlink:title="3" d="M13711.4589,-3543.4683L13711.5221,-3543.456L13711.4604,-3543.3551"/>
<path content="3,御嵩町,なか線_02_on,1.5,0.0,0.0," xlink:title="3" d="M13712.3013,-3543.5888L13712.2838,-3543.5216L13712.2649,-3543.4389L13712.2841,-3543.435L13712.2883,-3543.4001L13712.291,-3543.3871L13712.2951,-3543.3454L13712.2972,-3543.3308L13712.3041,-3543.2711L13712.3082,-3543.2497L13712.3089,-3543.2215L13712.3048,-3543.2086L13712.3013,-3543.2012"/>
<path content="3,御嵩町,なか線_02_on,1.5,0.0,0.0," xlink:title="3" d="M13712.3013,-3543.5888L13712.3027,-3543.5888L13712.4114,-3543.5696L13712.4251,-3543.567L13712.4741,-3543.5578L13712.6261,-3543.5324L13712.6929,-3543.5201L13712.6956,-3543.5257L13712.697,-3543.5302L13712.706,-3543.5516L13712.7066,-3543.5578L13712.7142,-3543.5567L13712.7218,-3543.5556L13712.7397,-3543.5505L13712.7596,-3543.546L13712.7768,-3543.5415L13712.7865,-3543.5398L13712.8147,-3543.5319L13712.8449,-3543.5246L13712.8856,-3543.5127L13712.9117,-3543.5105L13712.9248,-3543.5139L13712.9378,-3543.5212L13712.9695,-3543.5449L13712.9895,-3543.5578L13713.0046,-3543.5606L13713.0232,-3543.5601L13713.0383,-3543.5539L13713.0617,-3543.5358L13713.0789,-3543.5189L13713.0906,-3543.5054L13713.0989,-3543.4913L13713.1071,-3543.4711L13713.1071,-3543.448L13713.0996,-3543.417L13713.0839,-3543.3589L13713.07,-3543.3032L13713.1085,-3543.2964L13713.1519,-3543.2886L13713.189,-3543.2818L13713.2152,-3543.2779L13713.2179,-3543.2621L13713.2193,-3543.1928L13713.2207,-3543.1771L13713.2221,-3543.1686L13713.2234,-3543.1613L13713.2221,-3543.1309L13713.2207,-3543.1235L13713.2207,-3543.1106L13713.1939,-3543.1111L13713.1746,-3543.11L13713.169,-3543.023L13713.1684,-3542.9929L13713.2138,-3542.9945L13713.2207,-3542.9962L13713.2393,-3542.9923L13713.2399,-3542.9912L13713.3067,-3542.9737L13713.3411,-3542.9686L13713.3714,-3542.9675L13713.3872,-3542.9658L13713.4209,-3542.9664L13713.4884,-3542.9686L13713.4959,-3542.9681L13713.5241,-3542.9641L13713.5537,-3542.9579L13713.5703,-3542.9529L13713.5771,-3542.9517L13713.6542,-3542.9501"/>
<path content="3,御嵩町,なか線_02_on,1.5,0.0,0.0," xlink:title="3" d="M13711.2017,-3543.9262L13711.2132,-3543.8629"/>
<path content="3,御嵩町,なか線_02_on,1.5,0.0,0.0," xlink:title="3" d="M13711.2017,-3543.9262L13711.2168,-3543.9364L13711.2196,-3543.9398L13711.2354,-3543.9415L13711.2457,-3543.9437L13711.2718,-3543.9426L13711.3097,-3543.933L13711.32,-3543.9302L13711.3228,-3543.9375L13711.3379,-3543.9674L13711.342,-3543.9848L13711.3434,-3544.0012L13711.3462,-3544.0136L13711.3558,-3544.0389L13711.3716,-3544.0597L13711.384,-3544.0794L13711.4095,-3544.1144L13711.4143,-3544.1214L13711.4233,-3544.1307L13711.4308,-3544.1352L13711.4666,-3544.1589L13711.4907,-3544.173L13711.5002,-3544.1792L13711.5191,-3544.1917L13711.5671,-3544.2203L13711.5671,-3544.2248L13711.5622,-3544.2417L13711.6455,-3544.2637L13711.6598,-3544.2595L13711.6992,-3544.2845L13711.7047,-3544.2924L13711.7074,-3544.3048L13711.7123,-3544.3161L13711.7178,-3544.3194L13711.7343,-3544.3245L13711.7418,-3544.3256L13711.7659,-3544.3324L13711.7673,-3544.3335L13711.7886,-3544.3386L13711.7921,-3544.3403L13711.8127,-3544.3454L13711.8251,-3544.3476L13711.8904,-3544.352L13711.8705,-3544.409L13711.8698,-3544.4164L13711.8726,-3544.4259L13711.876,-3544.4344L13711.8788,-3544.4377L13711.8994,-3544.4744L13711.9194,-3544.5098L13711.9325,-3544.5059L13711.9428,-3544.5037L13711.9559,-3544.4992L13711.9683,-3544.4992L13712.0625,-3544.5031L13712.1018,-3544.5049L13712.1052,-3544.4727L13712.1079,-3544.4372L13712.1107,-3544.4028L13712.1134,-3544.369L13712.1148,-3544.3471L13712.1162,-3544.3426L13712.1162,-3544.3341L13712.1176,-3544.3178L13712.1176,-3544.3009L13712.1162,-3544.2952L13712.1121,-3544.2834L13712.1018,-3544.2631L13712.0901,-3544.2462L13712.0763,-3544.2282L13712.0674,-3544.2299L13712.0316,-3544.2451L13712.0068,-3544.2124L13711.9886,-3544.1987L13711.9524,-3544.2006L13711.9098,-3544.2034L13711.8341,-3544.2085L13711.8155,-3544.1747L13711.8004,-3544.1398L13711.7838,-3544.0896L13711.779,-3544.0705L13711.7769,-3544.066L13711.7749,-3544.0564L13711.7653,-3544.0231L13711.7547,-3543.9805L13711.746,-3543.9421L13711.7412,-3543.9218L13711.7377,-3543.9133L13711.7276,-3543.8719L13711.725,-3543.8638L13711.6944,-3543.7809L13711.6889,-3543.768L13711.7295,-3543.7618L13711.7329,-3543.7606L13711.746,-3543.7595L13711.7488,-3543.7584L13711.7577,-3543.7573L13711.8183,-3543.7477L13711.8299,-3543.7471L13711.841,-3543.7454L13711.9449,-3543.728L13711.9931,-3543.7207L13712.0694,-3543.7094L13712.1162,-3543.7021L13712.1231,-3543.7004L13712.2016,-3543.6882L13712.2404,-3543.6792L13712.2769,-3543.6699L13712.3165,-3543.6626L13712.3013,-3543.5888"/>
<path content="3,御嵩町,ふしみ線_01_on,2.0,0.0,0.0," xlink:title="3" d="M13712.8181,-3542.8987L13712.8066,-3542.9016L13712.795,-3542.902L13712.7578,-3542.8991"/>
<path content="3,御嵩町,ふしみ線_01_on,2.0,0.0,0.0," xlink:title="3" d="M13712.8181,-3542.8987L13712.8319,-3542.9292L13712.8333,-3542.9354L13712.8402,-3542.9574L13712.8436,-3542.9804L13712.8436,-3543.0204L13712.8408,-3543.088L13712.8395,-3543.0982L13712.8388,-3543.1331L13712.7748,-3543.1461L13712.7466,-3543.1511L13712.7356,-3543.1539L13712.6612,-3543.1618L13712.6309,-3543.1663L13712.6062,-3543.1686L13712.5904,-3543.1714L13712.5787,-3543.1736L13712.5628,-3543.1753L13712.5027,-3543.184L13712.4583,-3543.19L13712.4452,-3543.1922L13712.4335,-3543.1939L13712.4259,-3543.1939L13712.3757,-3543.1995L13712.3586,-3543.2004L13712.3013,-3543.2012L13712.28,-3543.1995L13712.2016,-3543.201L13712.1639,-3543.2057L13712.0261,-3543.2362L13712.0164,-3543.2391L13711.9435,-3543.2548L13711.9242,-3543.2582L13711.9105,-3543.2621L13711.8685,-3543.2694L13711.804,-3543.283L13711.7515,-3543.2942L13711.7302,-3543.2987L13711.7233,-3543.2993L13711.6545,-3543.3145L13711.6517,-3543.3145L13711.6414,-3543.3173L13711.6228,-3543.3213L13711.5967,-3543.3263L13711.5774,-3543.3303L13711.5031,-3543.3455L13711.4604,-3543.3551L13711.5221,-3543.456"/>
<path content="3,御嵩町,ふしみ線_01_on,2.0,0.0,0.0," xlink:title="3" d="M13711.5221,-3543.456L13711.4589,-3543.4683"/>
<path content="3,御嵩町,ふしみ線_01_on,2.0,0.0,0.0," xlink:title="3" d="M13711.5221,-3543.456L13711.5279,-3543.4655L13711.5506,-3543.5021L13711.5623,-3543.519L13711.5719,-3543.5364L13711.5795,-3543.5466L13711.5967,-3543.5747"/>
<path content="3,御嵩町,ふしみ線_01_on,2.0,0.0,0.0," xlink:title="3" d="M13711.5967,-3543.5747L13711.6359,-3543.5764L13711.6545,-3543.5793L13711.6669,-3543.5798L13711.6861,-3543.5821L13711.7226,-3543.581L13711.7501,-3543.5764L13711.7875,-3543.5714L13711.7921,-3543.5708L13711.8183,-3543.5657L13711.8403,-3543.5629L13711.8905,-3543.5556L13711.9284,-3543.5466L13711.9435,-3543.5443L13711.9573,-3543.541L13711.9999,-3543.5331L13712.0481,-3543.5218L13712.0839,-3543.5117L13712.1093,-3543.501L13712.1627,-3543.4722L13712.2051,-3543.4541L13712.2649,-3543.4389L13712.2676,-3543.4558L13712.2838,-3543.5216L13712.3006,-3543.5871L13712.3013,-3543.5888L13712.3027,-3543.5888L13712.4114,-3543.5696L13712.4251,-3543.567L13712.4741,-3543.5578L13712.6261,-3543.5324L13712.6929,-3543.5201L13712.6956,-3543.5257L13712.697,-3543.5302L13712.706,-3543.5516L13712.7066,-3543.5578L13712.7142,-3543.5567L13712.7218,-3543.5556L13712.7397,-3543.5505L13712.7596,-3543.546L13712.7768,-3543.5415L13712.7865,-3543.5398L13712.8147,-3543.5319L13712.8449,-3543.5246L13712.8856,-3543.5127L13712.9117,-3543.5105L13712.9248,-3543.5139L13712.9378,-3543.5212L13712.9695,-3543.5449L13712.9895,-3543.5578L13713.0046,-3543.5606L13713.0232,-3543.5601L13713.0383,-3543.5539L13713.0617,-3543.5358L13713.0789,-3543.5189L13713.0906,-3543.5054L13713.0989,-3543.4913L13713.1071,-3543.4711L13713.1071,-3543.448L13713.0996,-3543.417L13713.0839,-3543.3589L13713.07,-3543.3032L13713.1085,-3543.2964L13713.1519,-3543.2886L13713.189,-3543.2818L13713.2152,-3543.2779L13713.2179,-3543.2621L13713.2193,-3543.1928L13713.2207,-3543.1771L13713.2221,-3543.1686L13713.2234,-3543.1613L13713.2221,-3543.1309L13713.2207,-3543.1235L13713.2207,-3543.1106L13713.1939,-3543.1111L13713.1746,-3543.11L13713.169,-3543.023L13713.1684,-3542.9929L13713.2138,-3542.9945L13713.2207,-3542.9962L13713.2393,-3542.9923L13713.2399,-3542.9912L13713.3067,-3542.9737L13713.3411,-3542.9686L13713.3714,-3542.9675L13713.3872,-3542.9658L13713.4209,-3542.9664L13713.4884,-3542.9686L13713.4959,-3542.9681L13713.5241,-3542.9641L13713.5537,-3542.9579L13713.5703,-3542.9529L13713.5771,-3542.9517L13713.6542,-3542.9501L13713.6582,-3542.9603L13713.6666,-3542.9782L13713.6694,-3542.9946L13713.6769,-3543.0007L13713.6893,-3543.0064L13713.756,-3543.0272L13713.7726,-3543.034L13713.7796,-3543.0381L13713.7898,-3543.0441L13713.7946,-3543.0509L13713.798,-3543.0565L13713.8104,-3543.0622L13713.8288,-3543.0653L13713.8725,-3543.0776L13713.9047,-3543.1112L13713.9253,-3543.1101L13713.937,-3543.1072L13713.9721,-3543.0977L13714.0086,-3543.0881L13714.0189,-3543.0852L13714.0326,-3543.083L13714.065,-3543.0734L13714.0829,-3543.1022L13714.1118,-3543.1371L13714.1226,-3543.1482L13714.1462,-3543.1399L13714.1792,-3543.1309L13714.2288,-3543.1174L13714.246,-3543.1134L13714.2694,-3543.1072L13714.2866,-3543.1033L13714.3203,-3543.0937L13714.3369,-3543.0894L13714.3444,-3543.0875L13714.4029,-3543.0717L13714.4098,-3543.0706L13714.4331,-3543.0639L13714.4345,-3543.0627L13714.4448,-3543.0605L13714.4763,-3543.0523L13714.5219,-3543.0402L13714.5295,-3543.0391L13714.5309,-3543.038L13714.5549,-3543.0318L13714.6052,-3543.0182L13714.6894,-3542.9971L13714.7046,-3542.9932L13714.7394,-3543.0898L13714.7442,-3543.0999L13714.7462,-3543.0988L13714.7786,-3543.0909L13714.7799,-3543.0904L13714.7978,-3543.0664L13714.8254,-3543.0306L13714.8405,-3543.0194L13714.8226,-3542.9681L13714.8206,-3542.9608L13714.8825,-3542.9444L13714.93,-3542.9321L13715.0208,-3542.9078L13715.0304,-3542.9061L13715.0497,-3542.9005L13715.0862,-3542.8904L13715.1743,-3542.8876L13715.1981,-3542.8779L13715.2754,-3542.8572L13715.2933,-3542.8515L13715.3084,-3542.8515L13715.316,-3542.8515L13715.332,-3542.8469M13715.332,-3542.7636L13715.3298,-3542.7642L13715.3227,-3542.7667L13715.2809,-3542.7811L13715.1646,-3542.8211L13715.1557,-3542.8245L13715.1274,-3542.8324L13715.1164,-3542.8346L13715.1082,-3542.8357L13715.091,-3542.8414L13715.0607,-3542.8487L13715.0442,-3542.8515L13714.9389,-3542.8515L13714.9134,-3542.8532L13714.9093,-3542.8549L13714.8963,-3542.8572L13714.835,-3542.8724L13714.8034,-3542.8802L13714.7999,-3542.8819L13714.7685,-3542.8882L13714.6772,-3542.9123L13714.6045,-3542.9315L13714.5267,-3542.9512L13714.5254,-3542.9523L13714.482,-3542.9631L13714.4676,-3542.9664L13714.444,-3542.973L13714.4392,-3542.9743L13714.3946,-3542.9867L13714.3485,-3542.9991L13714.3427,-3542.9032L13714.343,-3542.8594L13714.3403,-3542.7969L13714.3381,-3542.7602L13714.3373,-3542.7281L13714.3373,-3542.7232L13714.3367,-3542.7156L13714.3355,-3542.6934L13714.3338,-3542.6686L13714.3335,-3542.6643L13714.3313,-3542.6358L13714.3313,-3542.597L13714.3313,-3542.5699L13714.3334,-3542.5214L13714.3345,-3542.4673L13714.332,-3542.3187L13714.3245,-3542.2939L13714.3141,-3542.2696L13714.2914,-3542.2296L13714.2556,-3542.2279L13714.2342,-3542.226L13714.1951,-3542.2161L13714.1628,-3542.2054L13714.1318,-3542.1902L13714.1036,-3542.1733L13714.0905,-3542.1671L13714.0809,-3542.1643L13714.0244,-3542.1592L13713.9721,-3542.157L13713.9378,-3542.1553L13713.9247,-3542.1553L13713.8912,-3542.1555L13713.7781,-3542.1547L13713.6419,-3542.1553L13713.6171,-3542.1542L13713.6019,-3542.1508L13713.532,-3542.1029L13713.4819,-3542.0816L13713.4264,-3542.0681L13713.3533,-3542.0558L13713.3315,-3542.0567L13713.3205,-3542.0601L13713.2868,-3542.0753L13713.2661,-3542.0877L13713.2476,-3542.1046L13713.2654,-3542.1141L13713.2796,-3542.1242L13713.2834,-3542.1299L13713.2634,-3542.1547L13713.2262,-3542.2088L13713.2544,-3542.2088L13713.2579,-3542.2465L13713.2634,-3542.3412L13713.2661,-3542.384L13713.2668,-3542.4138L13713.2709,-3542.4769L13713.2709,-3542.4842L13713.2427,-3542.4837L13713.2317,-3542.478L13713.2242,-3542.4769L13713.2021,-3542.4786L13713.1781,-3542.4876L13713.1402,-3542.4893L13713.1058,-3542.4921L13713.0287,-3542.4972L13713.0143,-3542.4977L13712.9737,-3542.5011L13712.9688,-3542.4329L13712.9682,-3542.4273L13712.9599,-3542.3344L13712.9573,-3542.2967L13712.931,-3542.2983L13712.8581,-3542.3079L13712.8464,-3542.3101L13712.8333,-3542.3135L13712.8113,-3542.322L13712.8016,-3542.3293L13712.7948,-3542.3355L13712.7838,-3542.3496L13712.7679,-3542.3766L13712.7528,-3542.4099L13712.7496,-3542.4221L13712.7487,-3542.4363L13712.7528,-3542.46L13712.7659,-3542.4899L13712.7948,-3542.5462L13712.7996,-3542.558L13712.7941,-3542.6695L13712.7941,-3542.6864L13712.792,-3542.7281L13712.7906,-3542.7811L13712.7908,-3542.8163L13712.798,-3542.8384L13712.8014,-3542.8483L13712.8035,-3542.8546L13712.8181,-3542.8987"/>
<path content="3,御嵩町,ふしみ線_01_on,2.0,0.0,0.0," xlink:title="3" d="M13710.9375,-3543.6562L13710.9429,-3543.6547L13710.9574,-3543.6524L13710.9822,-3543.6474L13711.0289,-3543.6418L13711.062,-3543.6373L13711.0737,-3543.635L13711.0984,-3543.6327L13711.1466,-3543.626L13711.2615,-3543.6114L13711.3935,-3543.5936L13711.4329,-3543.5877L13711.4941,-3543.5815L13711.5574,-3543.5776L13711.576,-3543.5759L13711.5967,-3543.5747"/>
<path content="3,御嵩町,ふしみ線_02_on,2.0,0.0,0.0," xlink:title="3" d="M13712.8181,-3542.8987L13712.8066,-3542.9016L13712.795,-3542.902L13712.7578,-3542.8991"/>
<path content="3,御嵩町,ふしみ線_02_on,2.0,0.0,0.0," xlink:title="3" d="M13712.8181,-3542.8987L13712.8319,-3542.9292L13712.8333,-3542.9354L13712.8402,-3542.9574L13712.8436,-3542.9804L13712.8436,-3543.0204L13712.8408,-3543.088L13712.8395,-3543.0982L13712.8388,-3543.1331L13712.7748,-3543.1461L13712.7466,-3543.1511L13712.7356,-3543.1539L13712.6612,-3543.1618L13712.6309,-3543.1663L13712.6062,-3543.1686L13712.5904,-3543.1714L13712.5787,-3543.1736L13712.5628,-3543.1753L13712.5027,-3543.184L13712.4583,-3543.19L13712.4452,-3543.1922L13712.4335,-3543.1939L13712.4259,-3543.1939L13712.3757,-3543.1995L13712.3586,-3543.2004L13712.3013,-3543.2012L13712.28,-3543.1995L13712.2016,-3543.201L13712.1639,-3543.2057L13712.0261,-3543.2362L13712.0164,-3543.2391L13711.9435,-3543.2548L13711.9242,-3543.2582L13711.9105,-3543.2621L13711.8685,-3543.2694L13711.804,-3543.283L13711.7515,-3543.2942L13711.7302,-3543.2987L13711.7233,-3543.2993L13711.6545,-3543.3145L13711.6517,-3543.3145L13711.6414,-3543.3173L13711.6228,-3543.3213L13711.5967,-3543.3263L13711.5774,-3543.3303L13711.5031,-3543.3455L13711.4604,-3543.3551L13711.5221,-3543.456"/>
<path content="3,御嵩町,ふしみ線_02_on,2.0,0.0,0.0," xlink:title="3" d="M13711.5221,-3543.456L13711.4589,-3543.4683"/>
<path content="3,御嵩町,ふしみ線_02_on,2.0,0.0,0.0," xlink:title="3" d="M13711.5221,-3543.456L13711.5279,-3543.4655L13711.5506,-3543.5021L13711.5623,-3543.519L13711.5719,-3543.5364L13711.5795,-3543.5466L13711.5967,-3543.5747"/>
<path content="3,御嵩町,ふしみ線_02_on,2.0,0.0,0.0," xlink:title="3" d="M13711.5967,-3543.5747L13711.6359,-3543.5764L13711.6545,-3543.5793L13711.6669,-3543.5798L13711.6861,-3543.5821L13711.7226,-3543.581L13711.7501,-3543.5764L13711.7875,-3543.5714L13711.7921,-3543.5708L13711.8183,-3543.5657L13711.8403,-3543.5629L13711.8905,-3543.5556L13711.9284,-3543.5466L13711.9435,-3543.5443L13711.9573,-3543.541L13711.9999,-3543.5331L13712.0481,-3543.5218L13712.0839,-3543.5117L13712.1093,-3543.501L13712.1627,-3543.4722L13712.2051,-3543.4541L13712.2649,-3543.4389L13712.2676,-3543.4558L13712.2838,-3543.5216L13712.3006,-3543.5871L13712.3013,-3543.5888L13712.3027,-3543.5888L13712.4114,-3543.5696L13712.4251,-3543.567L13712.4741,-3543.5578L13712.6261,-3543.5324L13712.6929,-3543.5201L13712.6956,-3543.5257L13712.697,-3543.5302L13712.706,-3543.5516L13712.7066,-3543.5578L13712.7142,-3543.5567L13712.7218,-3543.5556L13712.7397,-3543.5505L13712.7596,-3543.546L13712.7768,-3543.5415L13712.7865,-3543.5398L13712.8147,-3543.5319L13712.8449,-3543.5246L13712.8856,-3543.5127L13712.9117,-3543.5105L13712.9248,-3543.5139L13712.9378,-3543.5212L13712.9695,-3543.5449L13712.9895,-3543.5578L13713.0046,-3543.5606L13713.0232,-3543.5601L13713.0383,-3543.5539L13713.0617,-3543.5358L13713.0789,-3543.5189L13713.0906,-3543.5054L13713.0989,-3543.4913L13713.1071,-3543.4711L13713.1071,-3543.448L13713.0996,-3543.417L13713.0839,-3543.3589L13713.07,-3543.3032L13713.1085,-3543.2964L13713.1519,-3543.2886L13713.189,-3543.2818L13713.2152,-3543.2779L13713.2179,-3543.2621L13713.2193,-3543.1928L13713.2207,-3543.1771L13713.2221,-3543.1686L13713.2234,-3543.1613L13713.2221,-3543.1309L13713.2207,-3543.1235L13713.2207,-3543.1106L13713.1939,-3543.1111L13713.1746,-3543.11L13713.169,-3543.023L13713.1684,-3542.9929L13713.2138,-3542.9945L13713.2207,-3542.9962L13713.2393,-3542.9923L13713.2399,-3542.9912L13713.3067,-3542.9737L13713.3411,-3542.9686L13713.3714,-3542.9675L13713.3872,-3542.9658L13713.4209,-3542.9664L13713.4884,-3542.9686L13713.4959,-3542.9681L13713.5241,-3542.9641L13713.5537,-3542.9579L13713.5703,-3542.9529L13713.5771,-3542.9517L13713.6542,-3542.9501L13713.6582,-3542.9603L13713.6666,-3542.9782L13713.6694,-3542.9946L13713.6769,-3543.0007L13713.6893,-3543.0064L13713.756,-3543.0272L13713.7726,-3543.034L13713.7796,-3543.0381L13713.7898,-3543.0441L13713.7946,-3543.0509L13713.798,-3543.0565L13713.8104,-3543.0622L13713.8288,-3543.0653L13713.8725,-3543.0776L13713.9047,-3543.1112L13713.9253,-3543.1101L13713.937,-3543.1072L13713.9721,-3543.0977L13714.0086,-3543.0881L13714.0189,-3543.0852L13714.0326,-3543.083L13714.065,-3543.0734L13714.0829,-3543.1022L13714.1118,-3543.1371L13714.1226,-3543.1482L13714.1462,-3543.1399L13714.1792,-3543.1309L13714.2288,-3543.1174L13714.246,-3543.1134L13714.2694,-3543.1072L13714.2866,-3543.1033L13714.3203,-3543.0937L13714.3369,-3543.0894L13714.3444,-3543.0875L13714.4029,-3543.0717L13714.4098,-3543.0706L13714.4331,-3543.0639L13714.4345,-3543.0627L13714.4448,-3543.0605L13714.4763,-3543.0523L13714.5219,-3543.0402L13714.5295,-3543.0391L13714.5309,-3543.038L13714.5549,-3543.0318L13714.6052,-3543.0182L13714.6894,-3542.9971L13714.7046,-3542.9932L13714.7394,-3543.0898L13714.7442,-3543.0999L13714.7462,-3543.0988L13714.7786,-3543.0909L13714.7799,-3543.0904L13714.7978,-3543.0664L13714.8254,-3543.0306L13714.8405,-3543.0194L13714.8226,-3542.9681L13714.8206,-3542.9608L13714.8825,-3542.9444L13714.93,-3542.9321L13715.0208,-3542.9078L13715.0304,-3542.9061L13715.0497,-3542.9005L13715.0862,-3542.8904L13715.1743,-3542.8876L13715.1981,-3542.8779L13715.2754,-3542.8572L13715.2933,-3542.8515L13715.3084,-3542.8515L13715.316,-3542.8515L13715.332,-3542.8469M13715.332,-3542.7636L13715.3298,-3542.7642L13715.3227,-3542.7667L13715.2809,-3542.7811L13715.1646,-3542.8211L13715.1557,-3542.8245L13715.1274,-3542.8324L13715.1164,-3542.8346L13715.1082,-3542.8357L13715.091,-3542.8414L13715.0607,-3542.8487L13715.0442,-3542.8515L13714.9389,-3542.8515L13714.9134,-3542.8532L13714.9093,-3542.8549L13714.8963,-3542.8572L13714.835,-3542.8724L13714.8034,-3542.8802L13714.7999,-3542.8819L13714.7685,-3542.8882L13714.6772,-3542.9123L13714.6045,-3542.9315L13714.5267,-3542.9512L13714.5254,-3542.9523L13714.482,-3542.9631L13714.4676,-3542.9664L13714.444,-3542.973L13714.4392,-3542.9743L13714.3946,-3542.9867L13714.3485,-3542.9991L13714.3427,-3542.9032L13714.343,-3542.8594L13714.3403,-3542.7969L13714.3381,-3542.7602L13714.3373,-3542.7281L13714.3373,-3542.7232L13714.3367,-3542.7156L13714.3355,-3542.6934L13714.3338,-3542.6686L13714.3335,-3542.6643L13714.3313,-3542.6358L13714.3313,-3542.597L13714.3313,-3542.5699L13714.3334,-3542.5214L13714.3345,-3542.4673L13714.332,-3542.3187L13714.3245,-3542.2939L13714.3141,-3542.2696L13714.2914,-3542.2296L13714.2556,-3542.2279L13714.2342,-3542.226L13714.1951,-3542.2161L13714.1628,-3542.2054L13714.1318,-3542.1902L13714.1036,-3542.1733L13714.0905,-3542.1671L13714.0809,-3542.1643L13714.0244,-3542.1592L13713.9721,-3542.157L13713.9378,-3542.1553L13713.9247,-3542.1553L13713.8912,-3542.1555L13713.7781,-3542.1547L13713.6419,-3542.1553L13713.6171,-3542.1542L13713.6019,-3542.1508L13713.532,-3542.1029L13713.4819,-3542.0816L13713.4264,-3542.0681L13713.3533,-3542.0558L13713.3315,-3542.0567L13713.3205,-3542.0601L13713.2868,-3542.0753L13713.2661,-3542.0877L13713.2476,-3542.1046L13713.2654,-3542.1141L13713.2796,-3542.1242L13713.2834,-3542.1299L13713.2634,-3542.1547L13713.2262,-3542.2088L13713.2544,-3542.2088L13713.2579,-3542.2465L13713.2634,-3542.3412L13713.2661,-3542.384L13713.2668,-3542.4138L13713.2709,-3542.4769L13713.2709,-3542.4842L13713.2427,-3542.4837L13713.2317,-3542.478L13713.2242,-3542.4769L13713.2021,-3542.4786L13713.1781,-3542.4876L13713.1402,-3542.4893L13713.1058,-3542.4921L13713.0287,-3542.4972L13713.0143,-3542.4977L13712.9737,-3542.5011L13712.9688,-3542.4329L13712.9682,-3542.4273L13712.9599,-3542.3344L13712.9573,-3542.2967L13712.931,-3542.2983L13712.8581,-3542.3079L13712.8464,-3542.3101L13712.8333,-3542.3135L13712.8113,-3542.322L13712.8016,-3542.3293L13712.7948,-3542.3355L13712.7838,-3542.3496L13712.7679,-3542.3766L13712.7528,-3542.4099L13712.7496,-3542.4221L13712.7487,-3542.4363L13712.7528,-3542.46L13712.7659,-3542.4899L13712.7948,-3542.5462L13712.7996,-3542.558L13712.7941,-3542.6695L13712.7941,-3542.6864L13712.792,-3542.7281L13712.7906,-3542.7811L13712.7908,-3542.8163L13712.798,-3542.8384L13712.8014,-3542.8483L13712.8035,-3542.8546L13712.8181,-3542.8987"/>
<path content="3,御嵩町,ふしみ線_02_on,2.0,0.0,0.0," xlink:title="3" d="M13710.9375,-3543.6562L13710.9429,-3543.6547L13710.9574,-3543.6524L13710.9822,-3543.6474L13711.0289,-3543.6418L13711.062,-3543.6373L13711.0737,-3543.635L13711.0984,-3543.6327L13711.1466,-3543.626L13711.2615,-3543.6114L13711.3935,-3543.5936L13711.4329,-3543.5877L13711.4941,-3543.5815L13711.5574,-3543.5776L13711.576,-3543.5759L13711.5967,-3543.5747"/>
<path content="3,御嵩町,ふるやしき線_01_on,1.0,0.0,0.0," xlink:title="3" d="M13711.5349,-3541.9922L13711.5252,-3542.0386L13711.5162,-3542.0639L13711.5059,-3542.0803L13711.4949,-3542.0955L13711.4894,-3542.1084L13711.4846,-3542.1254L13711.4791,-3542.1558L13711.4749,-3542.1856L13711.4715,-3542.2155L13711.4701,-3542.2211L13711.468,-3542.2482L13711.4673,-3542.2775L13711.4653,-3542.3L13711.4625,-3542.3084L13711.4488,-3542.3293L13711.4378,-3542.3473L13711.4336,-3542.3608L13711.4344,-3542.3748L13711.435,-3542.3862L13711.4391,-3542.3991L13711.4501,-3542.4256L13711.4543,-3542.4335"/>
<path content="3,御嵩町,ふるやしき線_01_on,1.0,0.0,0.0," xlink:title="3" d="M13711.4543,-3542.4335L13711.4061,-3542.4757L13711.3331,-3542.5411L13711.3104,-3542.5614L13711.3043,-3542.5692L13711.3029,-3542.5698L13711.3022,-3542.5732L13711.2981,-3542.5777L13711.2994,-3542.5895L13711.3043,-3542.6487L13711.3049,-3542.6937L13711.3036,-3542.6966L13711.3036,-3542.7208L13711.3146,-3542.7624L13711.3269,-3542.7917L13711.3036,-3542.8272L13711.2891,-3542.8447L13711.2726,-3542.861L13711.2423,-3542.8864L13711.1769,-3542.8852L13711.1492,-3542.8837L13711.0016,-3542.8799L13710.9719,-3542.879L13710.9375,-3542.879M13710.9375,-3542.9841L13711.0641,-3542.9765L13711.1129,-3542.9748L13711.1212,-3542.9737L13711.1638,-3542.9737L13711.1817,-3542.9754L13711.1941,-3543.0041L13711.2044,-3543.0266L13711.2141,-3543.0396L13711.2471,-3543.0768L13711.2753,-3543.1077L13711.329,-3543.1669L13711.3489,-3543.1923L13711.3875,-3543.2413L13711.3923,-3543.2486L13711.3996,-3543.2594L13711.434,-3543.3139L13711.4474,-3543.3355L13711.4604,-3543.3551"/>
<path content="3,御嵩町,ふるやしき線_01_on,1.0,0.0,0.0," xlink:title="3" d="M13712.8436,-3542.9804L13712.8402,-3542.9574L13712.8333,-3542.9354L13712.8319,-3542.9292L13712.8181,-3542.8987L13712.8066,-3542.9016L13712.795,-3542.902L13712.7578,-3542.8991"/>
<path content="3,御嵩町,ふるやしき線_01_on,1.0,0.0,0.0," xlink:title="3" d="M13712.8436,-3542.9804L13712.8126,-3542.9821L13712.7913,-3542.9912L13712.7555,-3543.0142L13712.739,-3543.0238L13712.7266,-3543.03L13712.7156,-3543.0334L13712.7149,-3543.0345L13712.6833,-3543.0401L13712.6255,-3543.0452L13712.5697,-3543.0503L13712.5491,-3543.0514L13712.4803,-3543.0548L13712.4603,-3543.057L13712.4314,-3543.0582L13712.4121,-3543.0599L13712.3598,-3543.0655L13712.3571,-3543.0666L13712.3419,-3543.0677L13712.3296,-3543.07L13712.3124,-3543.0711L13712.2855,-3543.0745L13712.2511,-3543.0773L13712.2436,-3543.0599L13712.2124,-3542.9852L13712.2107,-3542.9803L13712.2016,-3542.9633L13712.1842,-3542.9369L13712.1761,-3542.9329L13712.1624,-3542.9236L13712.0922,-3542.8875L13712.0688,-3542.8757L13712.0282,-3542.8532L13712.0206,-3542.8504L13711.9833,-3542.8307L13711.9071,-3542.7906L13711.8616,-3542.7681L13711.8265,-3542.7489L13711.7811,-3542.7253L13711.7736,-3542.7213L13711.7323,-3542.7005L13711.7061,-3542.6864L13711.6731,-3542.6701L13711.6428,-3542.6532L13711.6304,-3542.6244L13711.6249,-3542.6171L13711.6187,-3542.6115L13711.6111,-3542.6098L13711.5939,-3542.6087L13711.5919,-3542.6098L13711.5713,-3542.6109L13711.5602,-3542.6092L13711.552,-3542.6053L13711.5458,-3542.6008L13711.5327,-3542.5889L13711.5307,-3542.585L13711.5217,-3542.5512L13711.5155,-3542.5355L13711.5059,-3542.5186L13711.4949,-3542.5062L13711.4818,-3542.4864L13711.4543,-3542.4335"/>
<path content="3,御嵩町,ふるやしき線_01_on,1.0,0.0,0.0," xlink:title="3" d="M13711.4604,-3543.3551L13711.5031,-3543.3455L13711.5774,-3543.3303L13711.5967,-3543.3263L13711.6228,-3543.3213L13711.6414,-3543.3173L13711.6517,-3543.3145L13711.6545,-3543.3145L13711.7233,-3543.2993L13711.7302,-3543.2987L13711.7515,-3543.2942L13711.804,-3543.283L13711.8685,-3543.2694L13711.9105,-3543.2621L13711.9242,-3543.2582L13711.9435,-3543.2548L13712.0164,-3543.2391L13712.0261,-3543.2362L13712.1639,-3543.2057L13712.2016,-3543.201L13712.28,-3543.1995L13712.3013,-3543.2012L13712.3586,-3543.2004L13712.3757,-3543.1995L13712.4259,-3543.1939L13712.4335,-3543.1939L13712.4452,-3543.1922L13712.4583,-3543.19L13712.5027,-3543.184L13712.5628,-3543.1753L13712.5787,-3543.1736L13712.5904,-3543.1714L13712.6062,-3543.1686L13712.6309,-3543.1663L13712.6612,-3543.1618L13712.7356,-3543.1539L13712.7466,-3543.1511L13712.7748,-3543.1461L13712.8388,-3543.1331L13712.8395,-3543.0982L13712.8408,-3543.088L13712.8436,-3543.0204L13712.8436,-3542.9804"/>
<path content="3,御嵩町,ふるやしき線_01_on,1.0,0.0,0.0," xlink:title="3" d="M13711.4604,-3543.3551L13711.5221,-3543.456L13711.4589,-3543.4683"/>
<path content="3,御嵩町,ふるやしき線_02_on,1.0,0.0,0.0," xlink:title="3" d="M13711.5349,-3541.9922L13711.5252,-3542.0386L13711.5162,-3542.0639L13711.5059,-3542.0803L13711.4949,-3542.0955L13711.4894,-3542.1084L13711.4846,-3542.1254L13711.4791,-3542.1558L13711.4749,-3542.1856L13711.4715,-3542.2155L13711.4701,-3542.2211L13711.468,-3542.2482L13711.4673,-3542.2775L13711.4653,-3542.3L13711.4625,-3542.3084L13711.4488,-3542.3293L13711.4378,-3542.3473L13711.4336,-3542.3608L13711.4344,-3542.3748L13711.435,-3542.3862L13711.4391,-3542.3991L13711.4501,-3542.4256L13711.4543,-3542.4335"/>
<path content="3,御嵩町,ふるやしき線_02_on,1.0,0.0,0.0," xlink:title="3" d="M13711.4543,-3542.4335L13711.4061,-3542.4757L13711.3331,-3542.5411L13711.3104,-3542.5614L13711.3043,-3542.5692L13711.3029,-3542.5698L13711.3022,-3542.5732L13711.2981,-3542.5777L13711.2994,-3542.5895L13711.3043,-3542.6487L13711.3049,-3542.6937L13711.3036,-3542.6966L13711.3036,-3542.7208L13711.3146,-3542.7624L13711.3269,-3542.7917L13711.3036,-3542.8272L13711.2891,-3542.8447L13711.2726,-3542.861L13711.2423,-3542.8864L13711.1769,-3542.8852L13711.1492,-3542.8837L13711.0016,-3542.8799L13710.9719,-3542.879L13710.9375,-3542.879M13710.9375,-3542.9841L13711.0641,-3542.9765L13711.1129,-3542.9748L13711.1212,-3542.9737L13711.1638,-3542.9737L13711.1817,-3542.9754L13711.1941,-3543.0041L13711.2044,-3543.0266L13711.2141,-3543.0396L13711.2471,-3543.0768L13711.2753,-3543.1077L13711.329,-3543.1669L13711.3489,-3543.1923L13711.3875,-3543.2413L13711.3923,-3543.2486L13711.3996,-3543.2594L13711.434,-3543.3139L13711.4474,-3543.3355L13711.4604,-3543.3551"/>
<path content="3,御嵩町,ふるやしき線_02_on,1.0,0.0,0.0," xlink:title="3" d="M13712.8436,-3542.9804L13712.8402,-3542.9574L13712.8333,-3542.9354L13712.8319,-3542.9292L13712.8181,-3542.8987L13712.8066,-3542.9016L13712.795,-3542.902L13712.7578,-3542.8991"/>
<path content="3,御嵩町,ふるやしき線_02_on,1.0,0.0,0.0," xlink:title="3" d="M13712.8436,-3542.9804L13712.8126,-3542.9821L13712.7913,-3542.9912L13712.7555,-3543.0142L13712.739,-3543.0238L13712.7266,-3543.03L13712.7156,-3543.0334L13712.7149,-3543.0345L13712.6833,-3543.0401L13712.6255,-3543.0452L13712.5697,-3543.0503L13712.5491,-3543.0514L13712.4803,-3543.0548L13712.4603,-3543.057L13712.4314,-3543.0582L13712.4121,-3543.0599L13712.3598,-3543.0655L13712.3571,-3543.0666L13712.3419,-3543.0677L13712.3296,-3543.07L13712.3124,-3543.0711L13712.2855,-3543.0745L13712.2511,-3543.0773L13712.2436,-3543.0599L13712.2124,-3542.9852L13712.2107,-3542.9803L13712.2016,-3542.9633L13712.1842,-3542.9369L13712.1761,-3542.9329L13712.1624,-3542.9236L13712.0922,-3542.8875L13712.0688,-3542.8757L13712.0282,-3542.8532L13712.0206,-3542.8504L13711.9833,-3542.8307L13711.9071,-3542.7906L13711.8616,-3542.7681L13711.8265,-3542.7489L13711.7811,-3542.7253L13711.7736,-3542.7213L13711.7323,-3542.7005L13711.7061,-3542.6864L13711.6731,-3542.6701L13711.6428,-3542.6532L13711.6304,-3542.6244L13711.6249,-3542.6171L13711.6187,-3542.6115L13711.6111,-3542.6098L13711.5939,-3542.6087L13711.5919,-3542.6098L13711.5713,-3542.6109L13711.5602,-3542.6092L13711.552,-3542.6053L13711.5458,-3542.6008L13711.5327,-3542.5889L13711.5307,-3542.585L13711.5217,-3542.5512L13711.5155,-3542.5355L13711.5059,-3542.5186L13711.4949,-3542.5062L13711.4818,-3542.4864L13711.4543,-3542.4335"/>
<path content="3,御嵩町,ふるやしき線_02_on,1.0,0.0,0.0," xlink:title="3" d="M13711.4604,-3543.3551L13711.5031,-3543.3455L13711.5774,-3543.3303L13711.5967,-3543.3263L13711.6228,-3543.3213L13711.6414,-3543.3173L13711.6517,-3543.3145L13711.6545,-3543.3145L13711.7233,-3543.2993L13711.7302,-3543.2987L13711.7515,-3543.2942L13711.804,-3543.283L13711.8685,-3543.2694L13711.9105,-3543.2621L13711.9242,-3543.2582L13711.9435,-3543.2548L13712.0164,-3543.2391L13712.0261,-3543.2362L13712.1639,-3543.2057L13712.2016,-3543.201L13712.28,-3543.1995L13712.3013,-3543.2012L13712.3586,-3543.2004L13712.3757,-3543.1995L13712.4259,-3543.1939L13712.4335,-3543.1939L13712.4452,-3543.1922L13712.4583,-3543.19L13712.5027,-3543.184L13712.5628,-3543.1753L13712.5787,-3543.1736L13712.5904,-3543.1714L13712.6062,-3543.1686L13712.6309,-3543.1663L13712.6612,-3543.1618L13712.7356,-3543.1539L13712.7466,-3543.1511L13712.7748,-3543.1461L13712.8388,-3543.1331L13712.8395,-3543.0982L13712.8408,-3543.088L13712.8436,-3543.0204L13712.8436,-3542.9804"/>
<path content="3,御嵩町,ふるやしき線_02_on,1.0,0.0,0.0," xlink:title="3" d="M13711.4604,-3543.3551L13711.5221,-3543.456L13711.4589,-3543.4683"/>
<path content="3,御嵩町,ふれあい線_01_on,1.5,0.0,0.0," xlink:title="3" d="M13712.8181,-3542.8987L13712.8066,-3542.9016L13712.795,-3542.902L13712.7578,-3542.8991"/>
<path content="3,御嵩町,ふれあい線_01_on,1.5,0.0,0.0," xlink:title="3" d="M13712.8181,-3542.8987L13712.8035,-3542.8546L13712.8014,-3542.8483L13712.798,-3542.8384L13712.7908,-3542.8163L13712.7906,-3542.7811L13712.792,-3542.7281L13712.7941,-3542.6864L13712.7941,-3542.6695L13712.7996,-3542.558L13712.7948,-3542.5462L13712.7659,-3542.4899L13712.7528,-3542.46L13712.7487,-3542.4363L13712.7496,-3542.4221L13712.7528,-3542.4099L13712.7679,-3542.3766L13712.7838,-3542.3496L13712.7948,-3542.3355L13712.8016,-3542.3293L13712.8113,-3542.322L13712.8333,-3542.3135L13712.8464,-3542.3101L13712.8581,-3542.3079L13712.931,-3542.2983L13712.9573,-3542.2967L13712.9599,-3542.3344L13712.9682,-3542.4273L13712.9688,-3542.4329L13712.9737,-3542.5011L13713.0143,-3542.4977L13713.0287,-3542.4972L13713.1058,-3542.4921L13713.1402,-3542.4893L13713.1781,-3542.4876L13713.2021,-3542.4786L13713.2242,-3542.4769L13713.2317,-3542.478L13713.2427,-3542.4837L13713.2709,-3542.4842L13713.2709,-3542.4769L13713.2668,-3542.4138L13713.2661,-3542.384L13713.2634,-3542.3412L13713.2579,-3542.2465L13713.2544,-3542.2088L13713.2262,-3542.2088L13713.2634,-3542.1547L13713.2834,-3542.1299L13713.2796,-3542.1242L13713.2654,-3542.1141L13713.2476,-3542.1046L13713.2661,-3542.0877L13713.2868,-3542.0753L13713.3205,-3542.0601L13713.3315,-3542.0567L13713.3533,-3542.0558L13713.4264,-3542.0681L13713.4819,-3542.0816L13713.532,-3542.1029L13713.6019,-3542.1508L13713.6171,-3542.1542L13713.6419,-3542.1553L13713.7781,-3542.1547L13713.8912,-3542.1555L13713.9247,-3542.1553L13713.9378,-3542.1553L13713.9721,-3542.157L13714.0244,-3542.1592L13714.0809,-3542.1643L13714.0905,-3542.1671L13714.1036,-3542.1733L13714.1318,-3542.1902L13714.1628,-3542.2054L13714.1951,-3542.2161L13714.2342,-3542.226L13714.2556,-3542.2279L13714.2914,-3542.2296L13714.3141,-3542.2696L13714.3245,-3542.2939L13714.332,-3542.3187L13714.3345,-3542.4673L13714.3334,-3542.5214L13714.3313,-3542.5699L13714.3313,-3542.597L13714.3313,-3542.6358L13714.3335,-3542.6643L13714.3338,-3542.6686L13714.3355,-3542.6934L13714.3367,-3542.7156L13714.3373,-3542.7232L13714.3373,-3542.7281L13714.3381,-3542.7602L13714.3403,-3542.7969L13714.343,-3542.8594L13714.3427,-3542.9032L13714.3485,-3542.9991L13714.3946,-3542.9867L13714.4392,-3542.9743L13714.444,-3542.973L13714.4676,-3542.9664L13714.482,-3542.9631L13714.5254,-3542.9523L13714.5267,-3542.9512L13714.6045,-3542.9315L13714.6772,-3542.9123L13714.7685,-3542.8882L13714.7999,-3542.8819L13714.8034,-3542.8802L13714.835,-3542.8724L13714.8963,-3542.8572L13714.9093,-3542.8549L13714.9134,-3542.8532L13714.9389,-3542.8515L13715.0442,-3542.8515L13715.0607,-3542.8487L13715.091,-3542.8414L13715.1082,-3542.8357L13715.1164,-3542.8346L13715.1274,-3542.8324L13715.1557,-3542.8245L13715.1646,-3542.8211L13715.2809,-3542.7811L13715.3227,-3542.7667L13715.3298,-3542.7642L13715.332,-3542.7636M13715.332,-3542.8469L13715.316,-3542.8515L13715.3084,-3542.8515L13715.2933,-3542.8515L13715.2754,-3542.8572L13715.1981,-3542.8779L13715.1743,-3542.8876L13715.0862,-3542.8904L13715.0497,-3542.9005L13715.0304,-3542.9061L13715.0208,-3542.9078L13714.93,-3542.9321L13714.8825,-3542.9444L13714.8206,-3542.9608L13714.8226,-3542.9681L13714.8405,-3543.0194L13714.8254,-3543.0306L13714.7978,-3543.0664L13714.7799,-3543.0904L13714.7786,-3543.0909L13714.7462,-3543.0988L13714.7442,-3543.0999L13714.7394,-3543.0898L13714.7046,-3542.9932L13714.6894,-3542.9971L13714.6052,-3543.0182L13714.5549,-3543.0318L13714.5309,-3543.038L13714.5295,-3543.0391L13714.5219,-3543.0402L13714.4763,-3543.0523L13714.4448,-3543.0605L13714.4345,-3543.0627L13714.4331,-3543.0639L13714.4098,-3543.0706L13714.4029,-3543.0717L13714.3444,-3543.0875L13714.3369,-3543.0894L13714.3203,-3543.0937L13714.2866,-3543.1033L13714.2694,-3543.1072L13714.246,-3543.1134L13714.2288,-3543.1174L13714.1792,-3543.1309L13714.1462,-3543.1399L13714.1226,-3543.1482L13714.1118,-3543.1371L13714.0829,-3543.1022L13714.065,-3543.0734L13714.0326,-3543.083L13714.0189,-3543.0852L13714.0086,-3543.0881L13713.9721,-3543.0977L13713.937,-3543.1072L13713.9253,-3543.1101L13713.9047,-3543.1112L13713.8725,-3543.0776L13713.8288,-3543.0653L13713.8104,-3543.0622L13713.798,-3543.0565L13713.7946,-3543.0509L13713.7898,-3543.0441L13713.7796,-3543.0381L13713.7726,-3543.034L13713.756,-3543.0272L13713.6893,-3543.0064L13713.6769,-3543.0007L13713.6694,-3542.9946L13713.6666,-3542.9782L13713.6582,-3542.9603L13713.6542,-3542.9501L13713.5771,-3542.9517L13713.5703,-3542.9529L13713.5537,-3542.9579L13713.5241,-3542.9641L13713.4959,-3542.9681L13713.4884,-3542.9686L13713.4209,-3542.9664L13713.3872,-3542.9658L13713.3714,-3542.9675L13713.3411,-3542.9686L13713.3067,-3542.9737L13713.2399,-3542.9912L13713.2393,-3542.9923L13713.2207,-3542.9962L13713.2138,-3542.9945L13713.1684,-3542.9929L13713.169,-3543.023L13713.1746,-3543.11L13713.1939,-3543.1111L13713.2207,-3543.1106L13713.2207,-3543.1235L13713.2221,-3543.1309L13713.2234,-3543.1613L13713.2221,-3543.1686L13713.2207,-3543.1771L13713.2193,-3543.1928L13713.2179,-3543.2621L13713.2152,-3543.2779L13713.189,-3543.2818L13713.1519,-3543.2886L13713.1085,-3543.2964L13713.07,-3543.3032L13713.0839,-3543.3589L13713.0996,-3543.417L13713.1071,-3543.448L13713.1071,-3543.4711L13713.0989,-3543.4913L13713.0906,-3543.5054L13713.0789,-3543.5189L13713.0617,-3543.5358L13713.0383,-3543.5539L13713.0232,-3543.5601L13713.0046,-3543.5606L13712.9895,-3543.5578L13712.9695,-3543.5449L13712.9378,-3543.5212L13712.9248,-3543.5139L13712.9117,-3543.5105L13712.8856,-3543.5127L13712.8449,-3543.5246L13712.8147,-3543.5319L13712.7865,-3543.5398L13712.7768,-3543.5415L13712.7596,-3543.546L13712.7397,-3543.5505L13712.7218,-3543.5556L13712.7142,-3543.5567L13712.7066,-3543.5578L13712.706,-3543.5516L13712.697,-3543.5302L13712.6956,-3543.5257L13712.6929,-3543.5201L13712.6261,-3543.5324L13712.4741,-3543.5578L13712.4251,-3543.567L13712.4114,-3543.5696L13712.3027,-3543.5888L13712.3013,-3543.5888L13712.3006,-3543.5871L13712.2838,-3543.5216L13712.2676,-3543.4558L13712.2649,-3543.4389L13712.2051,-3543.4541L13712.1627,-3543.4722L13712.1093,-3543.501L13712.0839,-3543.5117L13712.0481,-3543.5218L13711.9999,-3543.5331L13711.9573,-3543.541L13711.9435,-3543.5443L13711.9284,-3543.5466L13711.8905,-3543.5556L13711.8403,-3543.5629L13711.8183,-3543.5657L13711.7921,-3543.5708L13711.7875,-3543.5714L13711.7501,-3543.5764L13711.7226,-3543.581L13711.6861,-3543.5821L13711.6669,-3543.5798L13711.6545,-3543.5793L13711.6359,-3543.5764L13711.5967,-3543.5747"/>
<path content="3,御嵩町,ふれあい線_01_on,1.5,0.0,0.0," xlink:title="3" d="M13711.5221,-3543.456L13711.4604,-3543.3551L13711.5031,-3543.3455L13711.5774,-3543.3303L13711.5967,-3543.3263L13711.6228,-3543.3213L13711.6414,-3543.3173L13711.6517,-3543.3145L13711.6545,-3543.3145L13711.7233,-3543.2993L13711.7302,-3543.2987L13711.7515,-3543.2942L13711.804,-3543.283L13711.8685,-3543.2694L13711.9105,-3543.2621L13711.9242,-3543.2582L13711.9435,-3543.2548L13712.0164,-3543.2391L13712.0261,-3543.2362L13712.1639,-3543.2057L13712.2016,-3543.201L13712.28,-3543.1995L13712.3013,-3543.2012L13712.3586,-3543.2004L13712.3757,-3543.1995L13712.4259,-3543.1939L13712.4335,-3543.1939L13712.4452,-3543.1922L13712.4583,-3543.19L13712.5027,-3543.184L13712.5628,-3543.1753L13712.5787,-3543.1736L13712.5904,-3543.1714L13712.6062,-3543.1686L13712.6309,-3543.1663L13712.6612,-3543.1618L13712.7356,-3543.1539L13712.7466,-3543.1511L13712.7748,-3543.1461L13712.8388,-3543.1331L13712.8395,-3543.0982L13712.8408,-3543.088L13712.8436,-3543.0204L13712.8436,-3542.9804L13712.8402,-3542.9574L13712.8333,-3542.9354L13712.8319,-3542.9292L13712.8181,-3542.8987"/>
<path content="3,御嵩町,ふれあい線_01_on,1.5,0.0,0.0," xlink:title="3" d="M13711.5221,-3543.456L13711.4589,-3543.4683"/>
<path content="3,御嵩町,ふれあい線_01_on,1.5,0.0,0.0," xlink:title="3" d="M13711.5967,-3543.5747L13711.5795,-3543.5466L13711.5719,-3543.5364L13711.5623,-3543.519L13711.5506,-3543.5021L13711.5279,-3543.4655L13711.5221,-3543.456"/>
<path content="3,御嵩町,ふれあい線_01_on,1.5,0.0,0.0," xlink:title="3" d="M13711.5967,-3543.5747L13711.576,-3543.5759L13711.5574,-3543.5776L13711.4941,-3543.5815L13711.4329,-3543.5877L13711.4164,-3543.5905L13711.3935,-3543.5936L13711.3903,-3543.5944L13711.3829,-3543.5953L13711.3097,-3543.604L13711.2615,-3543.6114L13711.1466,-3543.626L13711.0984,-3543.6327L13711.0737,-3543.635L13711.062,-3543.6373L13711.0289,-3543.6418L13710.9822,-3543.6474L13710.9574,-3543.6524L13710.9429,-3543.6547L13710.9375,-3543.6562"/>
<path content="3,御嵩町,ふれあい線_01_on,1.5,0.0,0.0," xlink:title="3" d="M13710.9375,-3543.9492L13711.0207,-3543.9347L13711.0764,-3543.9245L13711.0888,-3543.9228L13711.0916,-3543.9127L13711.0909,-3543.9093L13711.1005,-3543.9099L13711.1225,-3543.9122L13711.1459,-3543.9127L13711.1659,-3543.915L13711.1796,-3543.9178L13711.2017,-3543.9262"/>
<path content="3,御嵩町,ふれあい線_01_on,1.5,0.0,0.0," xlink:title="3" d="M13711.2017,-3543.9262L13711.2132,-3543.8629"/>
<path content="3,御嵩町,ふれあい線_01_on,1.5,0.0,0.0," xlink:title="3" d="M13711.2017,-3543.9262L13711.2168,-3543.9364L13711.2196,-3543.9398L13711.2354,-3543.9415L13711.2457,-3543.9437L13711.2718,-3543.9426L13711.3097,-3543.933L13711.32,-3543.9302L13711.3228,-3543.9375L13711.3379,-3543.9674L13711.342,-3543.9848L13711.3434,-3544.0012L13711.3462,-3544.0136L13711.3558,-3544.0389L13711.3716,-3544.0597L13711.384,-3544.0794L13711.4095,-3544.1144L13711.4143,-3544.1214L13711.4233,-3544.1307L13711.4308,-3544.1352L13711.4666,-3544.1589L13711.4907,-3544.173L13711.5002,-3544.1792L13711.5191,-3544.1917L13711.5671,-3544.2203L13711.5671,-3544.2248L13711.5622,-3544.2417L13711.6455,-3544.2637L13711.6598,-3544.2595L13711.6992,-3544.2845L13711.7047,-3544.2924L13711.7074,-3544.3048L13711.7123,-3544.3161L13711.7178,-3544.3194L13711.7343,-3544.3245L13711.7418,-3544.3256L13711.7659,-3544.3324L13711.7673,-3544.3335L13711.7886,-3544.3386L13711.7921,-3544.3403L13711.8127,-3544.3454L13711.8251,-3544.3476L13711.8904,-3544.352L13711.8705,-3544.409L13711.8698,-3544.4164L13711.8726,-3544.4259L13711.876,-3544.4344L13711.8788,-3544.4377L13711.8994,-3544.4744L13711.9194,-3544.5098L13711.9325,-3544.5059L13711.9428,-3544.5037L13711.9559,-3544.4992L13711.9683,-3544.4992L13712.0625,-3544.5031L13712.1018,-3544.5049L13712.1052,-3544.4727L13712.1079,-3544.4372L13712.1107,-3544.4028L13712.1134,-3544.369L13712.1148,-3544.3471L13712.1162,-3544.3426L13712.1162,-3544.3341L13712.1176,-3544.3178L13712.1176,-3544.3009L13712.1162,-3544.2952L13712.1121,-3544.2834L13712.1018,-3544.2631L13712.0901,-3544.2462L13712.0763,-3544.2282L13712.0674,-3544.2299L13712.0316,-3544.2451L13712.0068,-3544.2124L13711.9886,-3544.1987L13711.9524,-3544.2006L13711.9098,-3544.2034L13711.8341,-3544.2085L13711.8155,-3544.1747L13711.8004,-3544.1398L13711.7838,-3544.0896L13711.779,-3544.0705L13711.7769,-3544.066L13711.7749,-3544.0564L13711.7653,-3544.0231L13711.7547,-3543.9805L13711.746,-3543.9421L13711.7412,-3543.9218L13711.7377,-3543.9133L13711.7276,-3543.8719L13711.725,-3543.8638L13711.6944,-3543.7809L13711.6889,-3543.768L13711.6875,-3543.7629L13711.6577,-3543.7015L13711.6476,-3543.6806L13711.6264,-3543.6366L13711.5967,-3543.5747"/>
<path content="3,御嵩町,ふれあい線_02_on,1.5,0.0,0.0," xlink:title="3" d="M13712.8181,-3542.8987L13712.8066,-3542.9016L13712.795,-3542.902L13712.7578,-3542.8991"/>
<path content="3,御嵩町,ふれあい線_02_on,1.5,0.0,0.0," xlink:title="3" d="M13712.8181,-3542.8987L13712.8035,-3542.8546L13712.8014,-3542.8483L13712.798,-3542.8384L13712.7908,-3542.8163L13712.7906,-3542.7811L13712.792,-3542.7281L13712.7941,-3542.6864L13712.7941,-3542.6695L13712.7996,-3542.558L13712.7948,-3542.5462L13712.7659,-3542.4899L13712.7528,-3542.46L13712.7487,-3542.4363L13712.7496,-3542.4221L13712.7528,-3542.4099L13712.7679,-3542.3766L13712.7838,-3542.3496L13712.7948,-3542.3355L13712.8016,-3542.3293L13712.8113,-3542.322L13712.8333,-3542.3135L13712.8464,-3542.3101L13712.8581,-3542.3079L13712.931,-3542.2983L13712.9573,-3542.2967L13712.9599,-3542.3344L13712.9682,-3542.4273L13712.9688,-3542.4329L13712.9737,-3542.5011L13713.0143,-3542.4977L13713.0287,-3542.4972L13713.1058,-3542.4921L13713.1402,-3542.4893L13713.1781,-3542.4876L13713.2021,-3542.4786L13713.2242,-3542.4769L13713.2317,-3542.478L13713.2427,-3542.4837L13713.2709,-3542.4842L13713.2709,-3542.4769L13713.2668,-3542.4138L13713.2661,-3542.384L13713.2634,-3542.3412L13713.2579,-3542.2465L13713.2544,-3542.2088L13713.2262,-3542.2088L13713.2634,-3542.1547L13713.2834,-3542.1299L13713.2796,-3542.1242L13713.2654,-3542.1141L13713.2476,-3542.1046L13713.2661,-3542.0877L13713.2868,-3542.0753L13713.3205,-3542.0601L13713.3315,-3542.0567L13713.3533,-3542.0558L13713.4264,-3542.0681L13713.4819,-3542.0816L13713.532,-3542.1029L13713.6019,-3542.1508L13713.6171,-3542.1542L13713.6419,-3542.1553L13713.7781,-3542.1547L13713.8912,-3542.1555L13713.9247,-3542.1553L13713.9378,-3542.1553L13713.9721,-3542.157L13714.0244,-3542.1592L13714.0809,-3542.1643L13714.0905,-3542.1671L13714.1036,-3542.1733L13714.1318,-3542.1902L13714.1628,-3542.2054L13714.1951,-3542.2161L13714.2342,-3542.226L13714.2556,-3542.2279L13714.2914,-3542.2296L13714.3141,-3542.2696L13714.3245,-3542.2939L13714.332,-3542.3187L13714.3345,-3542.4673L13714.3334,-3542.5214L13714.3313,-3542.5699L13714.3313,-3542.597L13714.3313,-3542.6358L13714.3335,-3542.6643L13714.3338,-3542.6686L13714.3355,-3542.6934L13714.3367,-3542.7156L13714.3373,-3542.7232L13714.3373,-3542.7281L13714.3381,-3542.7602L13714.3403,-3542.7969L13714.343,-3542.8594L13714.3427,-3542.9032L13714.3485,-3542.9991L13714.3946,-3542.9867L13714.4392,-3542.9743L13714.444,-3542.973L13714.4676,-3542.9664L13714.482,-3542.9631L13714.5254,-3542.9523L13714.5267,-3542.9512L13714.6045,-3542.9315L13714.6772,-3542.9123L13714.7685,-3542.8882L13714.7999,-3542.8819L13714.8034,-3542.8802L13714.835,-3542.8724L13714.8963,-3542.8572L13714.9093,-3542.8549L13714.9134,-3542.8532L13714.9389,-3542.8515L13715.0442,-3542.8515L13715.0607,-3542.8487L13715.091,-3542.8414L13715.1082,-3542.8357L13715.1164,-3542.8346L13715.1274,-3542.8324L13715.1557,-3542.8245L13715.1646,-3542.8211L13715.2809,-3542.7811L13715.3227,-3542.7667L13715.3298,-3542.7642L13715.332,-3542.7636M13715.332,-3542.8469L13715.316,-3542.8515L13715.3084,-3542.8515L13715.2933,-3542.8515L13715.2754,-3542.8572L13715.1981,-3542.8779L13715.1743,-3542.8876L13715.0862,-3542.8904L13715.0497,-3542.9005L13715.0304,-3542.9061L13715.0208,-3542.9078L13714.93,-3542.9321L13714.8825,-3542.9444L13714.8206,-3542.9608L13714.8226,-3542.9681L13714.8405,-3543.0194L13714.8254,-3543.0306L13714.7978,-3543.0664L13714.7799,-3543.0904L13714.7786,-3543.0909L13714.7462,-3543.0988L13714.7442,-3543.0999L13714.7394,-3543.0898L13714.7046,-3542.9932L13714.6894,-3542.9971L13714.6052,-3543.0182L13714.5549,-3543.0318L13714.5309,-3543.038L13714.5295,-3543.0391L13714.5219,-3543.0402L13714.4763,-3543.0523L13714.4448,-3543.0605L13714.4345,-3543.0627L13714.4331,-3543.0639L13714.4098,-3543.0706L13714.4029,-3543.0717L13714.3444,-3543.0875L13714.3369,-3543.0894L13714.3203,-3543.0937L13714.2866,-3543.1033L13714.2694,-3543.1072L13714.246,-3543.1134L13714.2288,-3543.1174L13714.1792,-3543.1309L13714.1462,-3543.1399L13714.1226,-3543.1482L13714.1118,-3543.1371L13714.0829,-3543.1022L13714.065,-3543.0734L13714.0326,-3543.083L13714.0189,-3543.0852L13714.0086,-3543.0881L13713.9721,-3543.0977L13713.937,-3543.1072L13713.9253,-3543.1101L13713.9047,-3543.1112L13713.8725,-3543.0776L13713.8288,-3543.0653L13713.8104,-3543.0622L13713.798,-3543.0565L13713.7946,-3543.0509L13713.7898,-3543.0441L13713.7796,-3543.0381L13713.7726,-3543.034L13713.756,-3543.0272L13713.6893,-3543.0064L13713.6769,-3543.0007L13713.6694,-3542.9946L13713.6666,-3542.9782L13713.6582,-3542.9603L13713.6542,-3542.9501L13713.5771,-3542.9517L13713.5703,-3542.9529L13713.5537,-3542.9579L13713.5241,-3542.9641L13713.4959,-3542.9681L13713.4884,-3542.9686L13713.4209,-3542.9664L13713.3872,-3542.9658L13713.3714,-3542.9675L13713.3411,-3542.9686L13713.3067,-3542.9737L13713.2399,-3542.9912L13713.2393,-3542.9923L13713.2207,-3542.9962L13713.2138,-3542.9945L13713.1684,-3542.9929L13713.169,-3543.023L13713.1746,-3543.11L13713.1939,-3543.1111L13713.2207,-3543.1106L13713.2207,-3543.1235L13713.2221,-3543.1309L13713.2234,-3543.1613L13713.2221,-3543.1686L13713.2207,-3543.1771L13713.2193,-3543.1928L13713.2179,-3543.2621L13713.2152,-3543.2779L13713.189,-3543.2818L13713.1519,-3543.2886L13713.1085,-3543.2964L13713.07,-3543.3032L13713.0839,-3543.3589L13713.0996,-3543.417L13713.1071,-3543.448L13713.1071,-3543.4711L13713.0989,-3543.4913L13713.0906,-3543.5054L13713.0789,-3543.5189L13713.0617,-3543.5358L13713.0383,-3543.5539L13713.0232,-3543.5601L13713.0046,-3543.5606L13712.9895,-3543.5578L13712.9695,-3543.5449L13712.9378,-3543.5212L13712.9248,-3543.5139L13712.9117,-3543.5105L13712.8856,-3543.5127L13712.8449,-3543.5246L13712.8147,-3543.5319L13712.7865,-3543.5398L13712.7768,-3543.5415L13712.7596,-3543.546L13712.7397,-3543.5505L13712.7218,-3543.5556L13712.7142,-3543.5567L13712.7066,-3543.5578L13712.706,-3543.5516L13712.697,-3543.5302L13712.6956,-3543.5257L13712.6929,-3543.5201L13712.6261,-3543.5324L13712.4741,-3543.5578L13712.4251,-3543.567L13712.4114,-3543.5696L13712.3027,-3543.5888L13712.3013,-3543.5888L13712.3006,-3543.5871L13712.2838,-3543.5216L13712.2676,-3543.4558L13712.2649,-3543.4389L13712.2051,-3543.4541L13712.1627,-3543.4722L13712.1093,-3543.501L13712.0839,-3543.5117L13712.0481,-3543.5218L13711.9999,-3543.5331L13711.9573,-3543.541L13711.9435,-3543.5443L13711.9284,-3543.5466L13711.8905,-3543.5556L13711.8403,-3543.5629L13711.8183,-3543.5657L13711.7921,-3543.5708L13711.7875,-3543.5714L13711.7501,-3543.5764L13711.7226,-3543.581L13711.6861,-3543.5821L13711.6669,-3543.5798L13711.6545,-3543.5793L13711.6359,-3543.5764L13711.5967,-3543.5747"/>
<path content="3,御嵩町,ふれあい線_02_on,1.5,0.0,0.0," xlink:title="3" d="M13711.5221,-3543.456L13711.4604,-3543.3551L13711.5031,-3543.3455L13711.5774,-3543.3303L13711.5967,-3543.3263L13711.6228,-3543.3213L13711.6414,-3543.3173L13711.6517,-3543.3145L13711.6545,-3543.3145L13711.7233,-3543.2993L13711.7302,-3543.2987L13711.7515,-3543.2942L13711.804,-3543.283L13711.8685,-3543.2694L13711.9105,-3543.2621L13711.9242,-3543.2582L13711.9435,-3543.2548L13712.0164,-3543.2391L13712.0261,-3543.2362L13712.1639,-3543.2057L13712.2016,-3543.201L13712.28,-3543.1995L13712.3013,-3543.2012L13712.3586,-3543.2004L13712.3757,-3543.1995L13712.4259,-3543.1939L13712.4335,-3543.1939L13712.4452,-3543.1922L13712.4583,-3543.19L13712.5027,-3543.184L13712.5628,-3543.1753L13712.5787,-3543.1736L13712.5904,-3543.1714L13712.6062,-3543.1686L13712.6309,-3543.1663L13712.6612,-3543.1618L13712.7356,-3543.1539L13712.7466,-3543.1511L13712.7748,-3543.1461L13712.8388,-3543.1331L13712.8395,-3543.0982L13712.8408,-3543.088L13712.8436,-3543.0204L13712.8436,-3542.9804L13712.8402,-3542.9574L13712.8333,-3542.9354L13712.8319,-3542.9292L13712.8181,-3542.8987"/>
<path content="3,御嵩町,ふれあい線_02_on,1.5,0.0,0.0," xlink:title="3" d="M13711.5221,-3543.456L13711.4589,-3543.4683"/>
<path content="3,御嵩町,ふれあい線_02_on,1.5,0.0,0.0," xlink:title="3" d="M13711.5967,-3543.5747L13711.5795,-3543.5466L13711.5719,-3543.5364L13711.5623,-3543.519L13711.5506,-3543.5021L13711.5279,-3543.4655L13711.5221,-3543.456"/>
<path content="3,御嵩町,ふれあい線_02_on,1.5,0.0,0.0," xlink:title="3" d="M13711.5967,-3543.5747L13711.576,-3543.5759L13711.5574,-3543.5776L13711.4941,-3543.5815L13711.4329,-3543.5877L13711.4164,-3543.5905L13711.3935,-3543.5936L13711.3903,-3543.5944L13711.3829,-3543.5953L13711.3097,-3543.604L13711.2615,-3543.6114L13711.1466,-3543.626L13711.0984,-3543.6327L13711.0737,-3543.635L13711.062,-3543.6373L13711.0289,-3543.6418L13710.9822,-3543.6474L13710.9574,-3543.6524L13710.9429,-3543.6547L13710.9375,-3543.6562"/>
<path content="3,御嵩町,ふれあい線_02_on,1.5,0.0,0.0," xlink:title="3" d="M13710.9375,-3543.9492L13711.0207,-3543.9347L13711.0764,-3543.9245L13711.0888,-3543.9228L13711.0916,-3543.9127L13711.0909,-3543.9093L13711.1005,-3543.9099L13711.1225,-3543.9122L13711.1459,-3543.9127L13711.1659,-3543.915L13711.1796,-3543.9178L13711.2017,-3543.9262"/>
<path content="3,御嵩町,ふれあい線_02_on,1.5,0.0,0.0," xlink:title="3" d="M13711.2017,-3543.9262L13711.2132,-3543.8629"/>
<path content="3,御嵩町,ふれあい線_02_on,1.5,0.0,0.0," xlink:title="3" d="M13711.2017,-3543.9262L13711.2168,-3543.9364L13711.2196,-3543.9398L13711.2354,-3543.9415L13711.2457,-3543.9437L13711.2718,-3543.9426L13711.3097,-3543.933L13711.32,-3543.9302L13711.3228,-3543.9375L13711.3379,-3543.9674L13711.342,-3543.9848L13711.3434,-3544.0012L13711.3462,-3544.0136L13711.3558,-3544.0389L13711.3716,-3544.0597L13711.384,-3544.0794L13711.4095,-3544.1144L13711.4143,-3544.1214L13711.4233,-3544.1307L13711.4308,-3544.1352L13711.4666,-3544.1589L13711.4907,-3544.173L13711.5002,-3544.1792L13711.5191,-3544.1917L13711.5671,-3544.2203L13711.5671,-3544.2248L13711.5622,-3544.2417L13711.6455,-3544.2637L13711.6598,-3544.2595L13711.6992,-3544.2845L13711.7047,-3544.2924L13711.7074,-3544.3048L13711.7123,-3544.3161L13711.7178,-3544.3194L13711.7343,-3544.3245L13711.7418,-3544.3256L13711.7659,-3544.3324L13711.7673,-3544.3335L13711.7886,-3544.3386L13711.7921,-3544.3403L13711.8127,-3544.3454L13711.8251,-3544.3476L13711.8904,-3544.352L13711.8705,-3544.409L13711.8698,-3544.4164L13711.8726,-3544.4259L13711.876,-3544.4344L13711.8788,-3544.4377L13711.8994,-3544.4744L13711.9194,-3544.5098L13711.9325,-3544.5059L13711.9428,-3544.5037L13711.9559,-3544.4992L13711.9683,-3544.4992L13712.0625,-3544.5031L13712.1018,-3544.5049L13712.1052,-3544.4727L13712.1079,-3544.4372L13712.1107,-3544.4028L13712.1134,-3544.369L13712.1148,-3544.3471L13712.1162,-3544.3426L13712.1162,-3544.3341L13712.1176,-3544.3178L13712.1176,-3544.3009L13712.1162,-3544.2952L13712.1121,-3544.2834L13712.1018,-3544.2631L13712.0901,-3544.2462L13712.0763,-3544.2282L13712.0674,-3544.2299L13712.0316,-3544.2451L13712.0068,-3544.2124L13711.9886,-3544.1987L13711.9524,-3544.2006L13711.9098,-3544.2034L13711.8341,-3544.2085L13711.8155,-3544.1747L13711.8004,-3544.1398L13711.7838,-3544.0896L13711.779,-3544.0705L13711.7769,-3544.066L13711.7749,-3544.0564L13711.7653,-3544.0231L13711.7547,-3543.9805L13711.746,-3543.9421L13711.7412,-3543.9218L13711.7377,-3543.9133L13711.7276,-3543.8719L13711.725,-3543.8638L13711.6944,-3543.7809L13711.6889,-3543.768L13711.6875,-3543.7629L13711.6577,-3543.7015L13711.6476,-3543.6806L13711.6264,-3543.6366L13711.5967,-3543.5747"/>
</g>
</svg>
