<?xml version="1.0" encoding="UTF-8"?>
<svg  xmlns="http://www.w3.org/2000/svg" xmlns:xlink="http://www.w3.org/1999/xlink" xmlns:go="http://purl.org/svgmap/profile" property="N07_001,N07_002,N07_003,N07_004,N07_005,N07_006,N07_007" viewBox="13051.7578125 -3326.66015625 4.39453125 4.39453125" go:dataArea="13051.7578125 -3326.66015625 4.39453125 4.39453125" >
<metadata>
 <rdf:RDF xmlns:rdf="http://www.w3.org/1999/02/22-rdf-syntax-ns#" xmlns:crs="http://opengis.org/xmldtds/transformations.dtd" xmlns:svg="http://www.w3.org/svg" >
  <rdf:Description>
   <crs:CoordinateReferenceSystem rdf:resource="http://purl.org/crs/84" svg:transform="matrix(100.0,0.0,0.0,-100.0,0.0,0.0)" />
  </rdf:Description>
 </rdf:RDF>
</metadata>
<globalCoordinateSystem srsName="http://purl.org/crs/84" transform="matrix(100.0,0.0,0.0,-100.0,0.0,0.0)" />
<defs>
 <g id="p0" >
  <circle cx="0.0" cy="0.0" r="3" stroke="green" stroke-width="0.75" vector-effect="non-scaling-stroke" />
 </g>
</defs>
<g fill="none" fill-rule="evenodd" stroke="#FF00FF" stroke-width="0.75" opacity="0.5" vector-effect="non-scaling-stroke" stroke-linejoin="bevel" >
<path content="1,JR九州バス（株）,福岡～宮崎（フェニックス号）,6.0,6.0,6.0," xlink:title="1" d="M13053.9057,-3326.6602L13053.9009,-3326.6387L13053.8758,-3326.4901L13053.8492,-3326.2966L13053.8459,-3326.2763L13053.8439,-3326.2636L13053.8313,-3326.1717L13053.8298,-3326.1608L13053.8263,-3326.1348L13053.8228,-3326.1092L13053.8153,-3326.0663L13053.796,-3325.9558L13053.761,-3325.7847L13053.7383,-3325.6764L13053.6962,-3325.5261L13053.6544,-3325.3893L13053.6218,-3325.3197L13053.6123,-3325.2766L13053.5969,-3325.233L13053.5603,-3325.1364L13053.5454,-3325.0973L13053.4693,-3324.9213L13053.4541,-3324.8864L13053.3837,-3324.7236L13053.3465,-3324.6368L13053.3232,-3324.5827L13053.3095,-3324.5466L13053.2929,-3324.5078L13053.2787,-3324.4699L13053.2519,-3324.4003L13053.2319,-3324.3441L13053.2148,-3324.2821L13053.2058,-3324.2518L13053.1991,-3324.2221L13053.1921,-3324.1874L13053.1864,-3324.1576L13053.1719,-3324.0872L13053.1573,-3323.9877L13053.1441,-3323.8746L13053.1431,-3323.8615L13053.1411,-3323.8333L13053.1391,-3323.8044L13053.1384,-3323.7938L13053.1346,-3323.7175L13053.1318,-3323.65L13053.1305,-3323.6192L13053.1241,-3323.4639L13053.1203,-3323.4109L13053.1154,-3323.3408L13053.1097,-3323.2407L13053.0992,-3323.1597L13053.0897,-3323.0901L13053.0867,-3323.0748L13053.0795,-3323.0377L13053.0792,-3323.0357L13053.062,-3322.968L13053.0458,-3322.9108L13053.0416,-3322.898L13053.0231,-3322.8452L13053.0156,-3322.8252L13052.9939,-3322.7668L13052.9793,-3322.7328L13052.9586,-3322.6821L13052.9312,-3322.6219L13052.9213,-3322.6015L13052.901,-3322.561L13052.8777,-3322.5141L13052.8399,-3322.4484L13052.8192,-3322.4126L13052.8014,-3322.3816L13052.7335,-3322.2656"/>
<path content="1,JR九州バス（株）,福岡～宮崎（皆割フェニックス号）,1.0,1.0,1.0," xlink:title="1" d="M13053.9057,-3326.6602L13053.9009,-3326.6387L13053.8758,-3326.4901L13053.8492,-3326.2966L13053.8459,-3326.2763L13053.8439,-3326.2636L13053.8313,-3326.1717L13053.8298,-3326.1608L13053.8263,-3326.1348L13053.8228,-3326.1092L13053.8153,-3326.0663L13053.796,-3325.9558L13053.761,-3325.7847L13053.7383,-3325.6764L13053.6962,-3325.5261L13053.6544,-3325.3893L13053.6218,-3325.3197L13053.6123,-3325.2766L13053.5969,-3325.233L13053.5603,-3325.1364L13053.5454,-3325.0973L13053.4693,-3324.9213L13053.4541,-3324.8864L13053.3837,-3324.7236L13053.3465,-3324.6368L13053.3232,-3324.5827L13053.3095,-3324.5466L13053.2929,-3324.5078L13053.2787,-3324.4699L13053.2519,-3324.4003L13053.2319,-3324.3441L13053.2148,-3324.2821L13053.2058,-3324.2518L13053.1991,-3324.2221L13053.1921,-3324.1874L13053.1864,-3324.1576L13053.1719,-3324.0872L13053.1573,-3323.9877L13053.1441,-3323.8746L13053.1431,-3323.8615L13053.1411,-3323.8333L13053.1391,-3323.8044L13053.1384,-3323.7938L13053.1346,-3323.7175L13053.1318,-3323.65L13053.1305,-3323.6192L13053.1241,-3323.4639L13053.1203,-3323.4109L13053.1154,-3323.3408L13053.1097,-3323.2407L13053.0992,-3323.1597L13053.0897,-3323.0901L13053.0867,-3323.0748L13053.0795,-3323.0377L13053.0792,-3323.0357L13053.062,-3322.968L13053.0458,-3322.9108L13053.0416,-3322.898L13053.0231,-3322.8452L13053.0156,-3322.8252L13052.9939,-3322.7668L13052.9793,-3322.7328L13052.9586,-3322.6821L13052.9312,-3322.6219L13052.9213,-3322.6015L13052.901,-3322.561L13052.8777,-3322.5141L13052.8399,-3322.4484L13052.8192,-3322.4126L13052.8014,-3322.3816L13052.7335,-3322.2656"/>
<path content="1,JR九州バス（株）,福岡～鹿児島（桜島号）,23.0,23.0,23.0," xlink:title="1" d="M13052.7335,-3322.2656L13052.8014,-3322.3816L13052.8192,-3322.4126L13052.8399,-3322.4484L13052.8777,-3322.5141L13052.901,-3322.561L13052.9213,-3322.6015L13052.9312,-3322.6219L13052.9586,-3322.6821L13052.9793,-3322.7328L13052.9939,-3322.7668L13053.0156,-3322.8252L13053.0231,-3322.8452L13053.0416,-3322.898L13053.0458,-3322.9108L13053.062,-3322.968L13053.0792,-3323.0357L13053.0795,-3323.0377L13053.0867,-3323.0748L13053.0897,-3323.0901L13053.0992,-3323.1597L13053.1097,-3323.2407L13053.1154,-3323.3408L13053.1203,-3323.4109L13053.1241,-3323.4639L13053.1305,-3323.6192L13053.1318,-3323.65L13053.1346,-3323.7175L13053.1384,-3323.7938L13053.1391,-3323.8044L13053.1411,-3323.8333L13053.1431,-3323.8615L13053.1441,-3323.8746L13053.1573,-3323.9877L13053.1719,-3324.0872L13053.1864,-3324.1576L13053.1921,-3324.1874L13053.1991,-3324.2221L13053.2058,-3324.2518L13053.2148,-3324.2821L13053.2319,-3324.3441L13053.2519,-3324.4003L13053.2787,-3324.4699L13053.2929,-3324.5078L13053.3095,-3324.5466L13053.3232,-3324.5827L13053.3465,-3324.6368L13053.3837,-3324.7236L13053.4541,-3324.8864L13053.4693,-3324.9213L13053.5454,-3325.0973L13053.5603,-3325.1364L13053.5969,-3325.233L13053.6123,-3325.2766L13053.6218,-3325.3197L13053.6544,-3325.3893L13053.6962,-3325.5261L13053.7383,-3325.6764L13053.761,-3325.7847L13053.796,-3325.9558L13053.8153,-3326.0663L13053.8228,-3326.1092L13053.8263,-3326.1348L13053.8298,-3326.1608L13053.8313,-3326.1717L13053.8439,-3326.2636L13053.8459,-3326.2763L13053.8492,-3326.2966L13053.8758,-3326.4901L13053.9009,-3326.6387L13053.9057,-3326.6602"/>
<path content="1,いわさきバスネットワーク（株）,鹿児島～福岡（桜島号）,23.0,23.0,23.0," xlink:title="1" d="M13052.7335,-3322.2656L13052.8014,-3322.3816L13052.8192,-3322.4126L13052.8399,-3322.4484L13052.8777,-3322.5141L13052.901,-3322.561L13052.9213,-3322.6015L13052.9312,-3322.6219L13052.9586,-3322.6821L13052.9793,-3322.7328L13052.9939,-3322.7668L13053.0156,-3322.8252L13053.0231,-3322.8452L13053.0416,-3322.898L13053.0458,-3322.9108L13053.062,-3322.968L13053.0792,-3323.0357L13053.0795,-3323.0377L13053.0867,-3323.0748L13053.0897,-3323.0901L13053.0992,-3323.1597L13053.1097,-3323.2407L13053.1154,-3323.3408L13053.1203,-3323.4109L13053.1241,-3323.4639L13053.1305,-3323.6192L13053.1318,-3323.65L13053.1346,-3323.7175L13053.1384,-3323.7938L13053.1391,-3323.8044L13053.1411,-3323.8333L13053.1431,-3323.8615L13053.1441,-3323.8746L13053.1573,-3323.9877L13053.1719,-3324.0872L13053.1864,-3324.1576L13053.1921,-3324.1874L13053.1991,-3324.2221L13053.2058,-3324.2518L13053.2148,-3324.2821L13053.2319,-3324.3441L13053.2519,-3324.4003L13053.2787,-3324.4699L13053.2929,-3324.5078L13053.3095,-3324.5466L13053.3232,-3324.5827L13053.3465,-3324.6368L13053.3837,-3324.7236L13053.4541,-3324.8864L13053.4693,-3324.9213L13053.5454,-3325.0973L13053.5603,-3325.1364L13053.5969,-3325.233L13053.6093,-3325.2751L13053.6218,-3325.3197L13053.6493,-3325.3939L13053.6962,-3325.5261L13053.7383,-3325.6764L13053.761,-3325.7847L13053.796,-3325.9558L13053.8153,-3326.0663L13053.8228,-3326.1092L13053.8263,-3326.1348L13053.8298,-3326.1608L13053.8313,-3326.1717L13053.8439,-3326.2636L13053.8459,-3326.2763L13053.8492,-3326.2966L13053.8758,-3326.4901L13053.9009,-3326.6387L13053.9057,-3326.6602"/>
<path content="1,いわさきバスネットワーク（株）,鹿児島～福岡（桜島号）夜行便,1.0,1.0,1.0," xlink:title="1" d="M13052.7335,-3322.2656L13052.8014,-3322.3816L13052.8192,-3322.4126L13052.8399,-3322.4484L13052.8777,-3322.5141L13052.901,-3322.561L13052.9213,-3322.6015L13052.9312,-3322.6219L13052.9586,-3322.6821L13052.9793,-3322.7328L13052.9939,-3322.7668L13053.0156,-3322.8252L13053.0231,-3322.8452L13053.0416,-3322.898L13053.0458,-3322.9108L13053.062,-3322.968L13053.0792,-3323.0357L13053.0795,-3323.0377L13053.0867,-3323.0748L13053.0897,-3323.0901L13053.0992,-3323.1597L13053.1097,-3323.2407L13053.1154,-3323.3408L13053.1203,-3323.4109L13053.1241,-3323.4639L13053.1305,-3323.6192L13053.1318,-3323.65L13053.1346,-3323.7175L13053.1384,-3323.7938L13053.1391,-3323.8044L13053.1411,-3323.8333L13053.1431,-3323.8615L13053.1441,-3323.8746L13053.1573,-3323.9877L13053.1719,-3324.0872L13053.1864,-3324.1576L13053.1921,-3324.1874L13053.1991,-3324.2221L13053.2058,-3324.2518L13053.2148,-3324.2821L13053.2319,-3324.3441L13053.2519,-3324.4003L13053.2787,-3324.4699L13053.2929,-3324.5078L13053.3095,-3324.5466L13053.3232,-3324.5827L13053.3465,-3324.6368L13053.3837,-3324.7236L13053.4541,-3324.8864L13053.4693,-3324.9213L13053.5454,-3325.0973L13053.5603,-3325.1364L13053.5969,-3325.233L13053.6093,-3325.2751L13053.6218,-3325.3197L13053.6493,-3325.3939L13053.6962,-3325.5261L13053.7383,-3325.6764L13053.761,-3325.7847L13053.796,-3325.9558L13053.8153,-3326.0663L13053.8228,-3326.1092L13053.8263,-3326.1348L13053.8298,-3326.1608L13053.8313,-3326.1717L13053.8439,-3326.2636L13053.8459,-3326.2763L13053.8492,-3326.2966L13053.8758,-3326.4901L13053.9009,-3326.6387L13053.9057,-3326.6602"/>
<path content="1,九州産交バス（株）,ぎんなん号,6.0,6.0,6.0," xlink:title="1" d="M13053.9057,-3326.6602L13053.9009,-3326.6387L13053.8758,-3326.4901L13053.8492,-3326.2966L13053.8459,-3326.2763L13053.8439,-3326.2636L13053.8313,-3326.1717L13053.8298,-3326.1608L13053.8263,-3326.1348L13053.8228,-3326.1092L13053.8153,-3326.0663L13053.796,-3325.9558L13053.761,-3325.7847L13053.7383,-3325.6764L13053.6962,-3325.5261L13053.6544,-3325.3893L13053.6218,-3325.3197L13053.6123,-3325.2766L13053.5969,-3325.233L13053.5603,-3325.1364L13053.5454,-3325.0973L13053.4693,-3324.9213L13053.4541,-3324.8864L13053.3837,-3324.7236L13053.3465,-3324.6368L13053.3232,-3324.5827L13053.3095,-3324.5466L13053.2929,-3324.5078L13053.2787,-3324.4699L13053.2519,-3324.4003L13053.2319,-3324.3441L13053.2148,-3324.2821L13053.2058,-3324.2518L13053.1991,-3324.2221L13053.1921,-3324.1874L13053.1864,-3324.1576L13053.1719,-3324.0872L13053.1573,-3323.9877L13053.1441,-3323.8746L13053.1431,-3323.8615L13053.1411,-3323.8333L13053.1391,-3323.8044L13053.1384,-3323.7938L13053.1346,-3323.7175L13053.1318,-3323.65L13053.1305,-3323.6192L13053.1241,-3323.4639L13053.1203,-3323.4109L13053.1154,-3323.3408L13053.1097,-3323.2407L13053.0992,-3323.1597L13053.0897,-3323.0901L13053.0867,-3323.0748L13053.0795,-3323.0377L13053.0792,-3323.0357L13053.062,-3322.968L13053.0458,-3322.9108L13053.0416,-3322.898L13053.0231,-3322.8452L13053.0156,-3322.8252L13052.9939,-3322.7668L13052.9793,-3322.7328L13052.9586,-3322.6821L13052.9312,-3322.6219L13052.9213,-3322.6015L13052.901,-3322.561L13052.8777,-3322.5141L13052.8399,-3322.4484L13052.8192,-3322.4126L13052.8014,-3322.3816L13052.7335,-3322.2656"/>
<path content="1,九州産交バス（株）,ひのくに号　スーパーノンストップ（益城インター口経由）熊本⇔天神・博多駅,13.5,13.0,13.0," xlink:title="1" d="M13053.9057,-3326.6602L13053.9009,-3326.6387L13053.8758,-3326.4901L13053.8492,-3326.2966L13053.8459,-3326.2763L13053.8439,-3326.2636L13053.8313,-3326.1717L13053.8298,-3326.1608L13053.8263,-3326.1348L13053.8228,-3326.1092L13053.8153,-3326.0663L13053.796,-3325.9558L13053.761,-3325.7847L13053.7383,-3325.6764L13053.6962,-3325.5261L13053.6544,-3325.3893L13053.6218,-3325.3197L13053.6123,-3325.2766L13053.5969,-3325.233L13053.5603,-3325.1364L13053.5454,-3325.0973L13053.4693,-3324.9213L13053.4541,-3324.8864L13053.3837,-3324.7236L13053.3465,-3324.6368L13053.3232,-3324.5827L13053.3095,-3324.5466L13053.2929,-3324.5078L13053.2787,-3324.4699L13053.2519,-3324.4003L13053.2319,-3324.3441L13053.2148,-3324.2821L13053.2058,-3324.2518L13053.1991,-3324.2221L13053.1921,-3324.1874L13053.1864,-3324.1576L13053.1719,-3324.0872L13053.1573,-3323.9877L13053.1441,-3323.8746L13053.1431,-3323.8615L13053.1411,-3323.8333L13053.1391,-3323.8044L13053.1384,-3323.7938L13053.1346,-3323.7175L13053.1318,-3323.65L13053.1305,-3323.6192L13053.1241,-3323.4639L13053.1203,-3323.4109L13053.1154,-3323.3408L13053.1097,-3323.2407L13053.0992,-3323.1597L13053.0897,-3323.0901L13053.0867,-3323.0748L13053.0795,-3323.0377L13053.0792,-3323.0357L13053.062,-3322.968L13053.0458,-3322.9108L13053.0416,-3322.898L13053.0231,-3322.8452L13053.0156,-3322.8252L13052.9939,-3322.7668L13052.9793,-3322.7328L13052.9586,-3322.6821L13052.9312,-3322.6219L13052.9213,-3322.6015L13052.901,-3322.561L13052.8777,-3322.5141L13052.8399,-3322.4484L13052.8192,-3322.4126L13052.8014,-3322.3816L13052.7335,-3322.2656"/>
<path content="1,九州産交バス（株）,ひのくに号　（植木インター経由）熊本⇔天神・博多駅,8.5,9.0,9.0," xlink:title="1" d="M13053.6123,-3325.2766L13053.5969,-3325.233L13053.5603,-3325.1364L13053.5454,-3325.0973L13053.4693,-3324.9213L13053.4541,-3324.8864L13053.3837,-3324.7236L13053.3465,-3324.6368L13053.3232,-3324.5827L13053.3095,-3324.5466L13053.2929,-3324.5078L13053.2787,-3324.4699L13053.2519,-3324.4003L13053.2319,-3324.3441L13053.2148,-3324.2821L13053.2058,-3324.2518L13053.1991,-3324.2221L13053.1921,-3324.1874L13053.1864,-3324.1576L13053.1719,-3324.0872L13053.1573,-3323.9877L13053.1441,-3323.8746L13053.1431,-3323.8615L13053.1411,-3323.8333L13053.1391,-3323.8044L13053.1384,-3323.7938L13053.1346,-3323.7175L13053.1318,-3323.65L13053.1305,-3323.6192L13053.1241,-3323.4639L13053.1203,-3323.4109L13053.1154,-3323.3408L13053.1097,-3323.2407L13053.0992,-3323.1597L13053.0897,-3323.0901L13053.0867,-3323.0748L13053.0795,-3323.0377L13053.0792,-3323.0357L13053.062,-3322.968L13053.0458,-3322.9108L13053.0416,-3322.898L13053.0231,-3322.8452L13053.0156,-3322.8252L13052.9939,-3322.7668L13052.9793,-3322.7328L13052.9586,-3322.6821L13052.9312,-3322.6219L13052.9213,-3322.6015L13052.901,-3322.561L13052.8777,-3322.5141L13052.8399,-3322.4484L13052.8192,-3322.4126L13052.8014,-3322.3816L13052.7335,-3322.2656"/>
<path content="1,九州産交バス（株）,ひのくに号　（植木インター経由）熊本⇔天神・博多駅,8.5,9.0,9.0," xlink:title="1" d="M13053.6123,-3325.2766L13053.5859,-3325.2958"/>
<path content="1,九州産交バス（株）,ひのくに号　（植木インター経由）熊本⇔天神・博多駅,8.5,9.0,9.0," xlink:title="1" d="M13053.9057,-3326.6602L13053.9009,-3326.6387L13053.8758,-3326.4901L13053.8492,-3326.2966L13053.8459,-3326.2763L13053.8439,-3326.2636L13053.8313,-3326.1717L13053.8298,-3326.1608L13053.8263,-3326.1348L13053.8228,-3326.1092L13053.8153,-3326.0663L13053.796,-3325.9558L13053.761,-3325.7847L13053.7383,-3325.6764L13053.6962,-3325.5261L13053.6544,-3325.3893L13053.6218,-3325.3197L13053.6123,-3325.2766"/>
<path content="1,九州産交バス（株）,熊本⇔名古屋,1.0,1.0,1.0," xlink:title="1" d="M13053.9057,-3326.6602L13053.9009,-3326.6387L13053.8758,-3326.4901L13053.8492,-3326.2966L13053.8459,-3326.2763L13053.8439,-3326.2636L13053.8313,-3326.1717L13053.8298,-3326.1608L13053.8263,-3326.1348L13053.8228,-3326.1092L13053.8153,-3326.0663L13053.796,-3325.9558L13053.761,-3325.7847L13053.7383,-3325.6764L13053.6962,-3325.5261L13053.6544,-3325.3893L13053.6218,-3325.3197L13053.6123,-3325.2766L13053.5969,-3325.233L13053.5603,-3325.1364L13053.5454,-3325.0973L13053.4693,-3324.9213L13053.4541,-3324.8864L13053.3837,-3324.7236L13053.3465,-3324.6368L13053.3232,-3324.5827L13053.3095,-3324.5466L13053.2929,-3324.5078L13053.2787,-3324.4699L13053.2519,-3324.4003L13053.2319,-3324.3441L13053.2148,-3324.2821L13053.2058,-3324.2518L13053.1991,-3324.2221L13053.1921,-3324.1874L13053.1864,-3324.1576L13053.1719,-3324.0872L13053.1573,-3323.9877L13053.1441,-3323.8746L13053.1431,-3323.8615L13053.1411,-3323.8333L13053.1391,-3323.8044L13053.1384,-3323.7938L13053.1346,-3323.7175L13053.1318,-3323.65L13053.1305,-3323.6192L13053.1241,-3323.4639L13053.1203,-3323.4109L13053.1154,-3323.3408L13053.1097,-3323.2407L13053.0992,-3323.1597L13053.0897,-3323.0901L13053.0867,-3323.0748L13053.0795,-3323.0377L13053.0792,-3323.0357L13053.062,-3322.968L13053.0458,-3322.9108L13053.0416,-3322.898L13053.0231,-3322.8452L13053.0156,-3322.8252L13052.9939,-3322.7668L13052.9793,-3322.7328L13052.9586,-3322.6821L13052.9312,-3322.6219L13052.9213,-3322.6015L13052.901,-3322.561L13052.8777,-3322.5141L13052.8399,-3322.4484L13052.8192,-3322.4126L13052.8014,-3322.3816L13052.7335,-3322.2656"/>
<path content="1,九州産交バス（株）,熊本⇔大阪・京都,1.0,1.0,1.0," xlink:title="1" d="M13053.9057,-3326.6602L13053.9009,-3326.6387L13053.8758,-3326.4901L13053.8492,-3326.2966L13053.8459,-3326.2763L13053.8439,-3326.2636L13053.8313,-3326.1717L13053.8298,-3326.1608L13053.8263,-3326.1348L13053.8228,-3326.1092L13053.8153,-3326.0663L13053.796,-3325.9558L13053.761,-3325.7847L13053.7383,-3325.6764L13053.6962,-3325.5261L13053.6544,-3325.3893L13053.6218,-3325.3197L13053.6123,-3325.2766L13053.5969,-3325.233L13053.5603,-3325.1364L13053.5454,-3325.0973L13053.4693,-3324.9213L13053.4541,-3324.8864L13053.3837,-3324.7236L13053.3465,-3324.6368L13053.3232,-3324.5827L13053.3095,-3324.5466L13053.2929,-3324.5078L13053.2787,-3324.4699L13053.2519,-3324.4003L13053.2319,-3324.3441L13053.2148,-3324.2821L13053.2058,-3324.2518L13053.1991,-3324.2221L13053.1921,-3324.1874L13053.1864,-3324.1576L13053.1719,-3324.0872L13053.1573,-3323.9877L13053.1441,-3323.8746L13053.1431,-3323.8615L13053.1411,-3323.8333L13053.1391,-3323.8044L13053.1384,-3323.7938L13053.1346,-3323.7175L13053.1318,-3323.65L13053.1305,-3323.6192L13053.1241,-3323.4639L13053.1203,-3323.4109L13053.1154,-3323.3408L13053.1097,-3323.2407L13053.0992,-3323.1597L13053.0897,-3323.0901L13053.0867,-3323.0748L13053.0795,-3323.0377L13053.0792,-3323.0357L13053.062,-3322.968L13053.0458,-3322.9108L13053.0416,-3322.898L13053.0231,-3322.8452L13053.0156,-3322.8252L13052.9939,-3322.7668L13052.9793,-3322.7328L13052.9586,-3322.6821L13052.9312,-3322.6219L13052.9213,-3322.6015L13052.901,-3322.561L13052.8777,-3322.5141L13052.8399,-3322.4484L13052.8192,-3322.4126L13052.8014,-3322.3816L13052.7335,-3322.2656"/>
<path content="1,九州産交バス（株）,熊本～佐世保・ハウステンボス　（さいかい号）,6.0,6.0,6.0," xlink:title="1" d="M13052.7335,-3322.2656L13052.8014,-3322.3816L13052.8192,-3322.4126L13052.8399,-3322.4484L13052.8777,-3322.5141L13052.901,-3322.561L13052.9213,-3322.6015L13052.9312,-3322.6219L13052.9586,-3322.6821L13052.9793,-3322.7328L13052.9939,-3322.7668L13053.0156,-3322.8252L13053.0231,-3322.8452L13053.0416,-3322.898L13053.0458,-3322.9108L13053.062,-3322.968L13053.0792,-3323.0357L13053.0795,-3323.0377L13053.0867,-3323.0748L13053.0897,-3323.0901L13053.0992,-3323.1597L13053.1097,-3323.2407L13053.1154,-3323.3408L13053.1203,-3323.4109L13053.1241,-3323.4639L13053.1305,-3323.6192L13053.1318,-3323.65L13053.1346,-3323.7175L13053.1384,-3323.7938L13053.1391,-3323.8044L13053.1411,-3323.8333L13053.1431,-3323.8615L13053.1441,-3323.8746L13053.1573,-3323.9877L13053.1719,-3324.0872L13053.1864,-3324.1576L13053.1921,-3324.1874L13053.1991,-3324.2221L13053.2058,-3324.2518L13053.2148,-3324.2821L13053.2319,-3324.3441L13053.2519,-3324.4003L13053.2787,-3324.4699L13053.2929,-3324.5078L13053.3095,-3324.5466L13053.3232,-3324.5827L13053.3465,-3324.6368L13053.3837,-3324.7236L13053.4541,-3324.8864L13053.4693,-3324.9213L13053.5454,-3325.0973L13053.5603,-3325.1364L13053.5969,-3325.233L13053.6123,-3325.2766L13053.6218,-3325.3197L13053.6544,-3325.3893L13053.6962,-3325.5261L13053.7383,-3325.6764L13053.761,-3325.7847L13053.796,-3325.9558L13053.8153,-3326.0663L13053.8228,-3326.1092L13053.8263,-3326.1348L13053.8298,-3326.1608L13053.8313,-3326.1717L13053.8439,-3326.2636L13053.8459,-3326.2763L13053.8492,-3326.2966L13053.8758,-3326.4901L13053.9009,-3326.6387L13053.9057,-3326.6602"/>
<path content="1,九州産交バス（株）,熊本～長崎　（りんどう号）,8.0,8.0,8.0," xlink:title="1" d="M13052.7335,-3322.2656L13052.8014,-3322.3816L13052.8192,-3322.4126L13052.8399,-3322.4484L13052.8777,-3322.5141L13052.901,-3322.561L13052.9213,-3322.6015L13052.9312,-3322.6219L13052.9586,-3322.6821L13052.9793,-3322.7328L13052.9939,-3322.7668L13053.0156,-3322.8252L13053.0231,-3322.8452L13053.0416,-3322.898L13053.0458,-3322.9108L13053.062,-3322.968L13053.0792,-3323.0357L13053.0795,-3323.0377L13053.0867,-3323.0748L13053.0897,-3323.0901L13053.0992,-3323.1597L13053.1097,-3323.2407L13053.1154,-3323.3408L13053.1203,-3323.4109L13053.1241,-3323.4639L13053.1305,-3323.6192L13053.1318,-3323.65L13053.1346,-3323.7175L13053.1384,-3323.7938L13053.1391,-3323.8044L13053.1411,-3323.8333L13053.1431,-3323.8615L13053.1441,-3323.8746L13053.1573,-3323.9877L13053.1719,-3324.0872L13053.1864,-3324.1576L13053.1921,-3324.1874L13053.1991,-3324.2221L13053.2058,-3324.2518L13053.2148,-3324.2821L13053.2319,-3324.3441L13053.2519,-3324.4003L13053.2787,-3324.4699L13053.2929,-3324.5078L13053.3095,-3324.5466L13053.3232,-3324.5827L13053.3465,-3324.6368L13053.3837,-3324.7236L13053.4541,-3324.8864L13053.4693,-3324.9213L13053.5454,-3325.0973L13053.5603,-3325.1364L13053.5969,-3325.233L13053.6123,-3325.2766L13053.6218,-3325.3197L13053.6544,-3325.3893L13053.6962,-3325.5261L13053.7383,-3325.6764L13053.761,-3325.7847L13053.796,-3325.9558L13053.8153,-3326.0663L13053.8228,-3326.1092L13053.8263,-3326.1348L13053.8298,-3326.1608L13053.8313,-3326.1717L13053.8439,-3326.2636L13053.8459,-3326.2763L13053.8492,-3326.2966L13053.8758,-3326.4901L13053.9009,-3326.6387L13053.9057,-3326.6602"/>
<path content="1,九州産交バス（株）,福岡～宮崎　（スーパーフェニックス号）,16.0,16.0,16.0," xlink:title="1" d="M13053.9057,-3326.6602L13053.9009,-3326.6387L13053.8758,-3326.4901L13053.8492,-3326.2966L13053.8459,-3326.2763L13053.8439,-3326.2636L13053.8313,-3326.1717L13053.8298,-3326.1608L13053.8263,-3326.1348L13053.8228,-3326.1092L13053.8153,-3326.0663L13053.796,-3325.9558L13053.761,-3325.7847L13053.7383,-3325.6764L13053.6962,-3325.5261L13053.6544,-3325.3893L13053.6218,-3325.3197L13053.6123,-3325.2766L13053.5969,-3325.233L13053.5603,-3325.1364L13053.5454,-3325.0973L13053.4693,-3324.9213L13053.4541,-3324.8864L13053.3837,-3324.7236L13053.3465,-3324.6368L13053.3232,-3324.5827L13053.3095,-3324.5466L13053.2929,-3324.5078L13053.2787,-3324.4699L13053.2519,-3324.4003L13053.2319,-3324.3441L13053.2148,-3324.2821L13053.2058,-3324.2518L13053.1991,-3324.2221L13053.1921,-3324.1874L13053.1864,-3324.1576L13053.1719,-3324.0872L13053.1573,-3323.9877L13053.1441,-3323.8746L13053.1431,-3323.8615L13053.1411,-3323.8333L13053.1391,-3323.8044L13053.1384,-3323.7938L13053.1346,-3323.7175L13053.1318,-3323.65L13053.1305,-3323.6192L13053.1241,-3323.4639L13053.1203,-3323.4109L13053.1154,-3323.3408L13053.1097,-3323.2407L13053.0992,-3323.1597L13053.0897,-3323.0901L13053.0867,-3323.0748L13053.0795,-3323.0377L13053.0792,-3323.0357L13053.062,-3322.968L13053.0458,-3322.9108L13053.0416,-3322.898L13053.0231,-3322.8452L13053.0156,-3322.8252L13052.9939,-3322.7668L13052.9793,-3322.7328L13052.9586,-3322.6821L13052.9312,-3322.6219L13052.9213,-3322.6015L13052.901,-3322.561L13052.8777,-3322.5141L13052.8399,-3322.4484L13052.8192,-3322.4126L13052.8014,-3322.3816L13052.7335,-3322.2656"/>
<path content="1,九州産交バス（株）,福岡～宮崎　（フェニックス号）,8.0,8.0,8.0," xlink:title="1" d="M13053.9057,-3326.6602L13053.9009,-3326.6387L13053.8758,-3326.4901L13053.8492,-3326.2966L13053.8459,-3326.2763L13053.8439,-3326.2636L13053.8313,-3326.1717L13053.8298,-3326.1608L13053.8263,-3326.1348L13053.8228,-3326.1092L13053.8153,-3326.0663L13053.796,-3325.9558L13053.761,-3325.7847L13053.7383,-3325.6764L13053.6962,-3325.5261L13053.6544,-3325.3893L13053.6218,-3325.3197L13053.6123,-3325.2766L13053.5969,-3325.233L13053.5603,-3325.1364L13053.5454,-3325.0973L13053.4693,-3324.9213L13053.4541,-3324.8864L13053.3837,-3324.7236L13053.3465,-3324.6368L13053.3232,-3324.5827L13053.3095,-3324.5466L13053.2929,-3324.5078L13053.2787,-3324.4699L13053.2519,-3324.4003L13053.2319,-3324.3441L13053.2148,-3324.2821L13053.2058,-3324.2518L13053.1991,-3324.2221L13053.1921,-3324.1874L13053.1864,-3324.1576L13053.1719,-3324.0872L13053.1573,-3323.9877L13053.1441,-3323.8746L13053.1431,-3323.8615L13053.1411,-3323.8333L13053.1391,-3323.8044L13053.1384,-3323.7938L13053.1346,-3323.7175L13053.1318,-3323.65L13053.1305,-3323.6192L13053.1241,-3323.4639L13053.1203,-3323.4109L13053.1154,-3323.3408L13053.1097,-3323.2407L13053.0992,-3323.1597L13053.0897,-3323.0901L13053.0867,-3323.0748L13053.0795,-3323.0377L13053.0792,-3323.0357L13053.062,-3322.968L13053.0458,-3322.9108L13053.0416,-3322.898L13053.0231,-3322.8452L13053.0156,-3322.8252L13052.9939,-3322.7668L13052.9793,-3322.7328L13052.9586,-3322.6821L13052.9312,-3322.6219L13052.9213,-3322.6015L13052.901,-3322.561L13052.8777,-3322.5141L13052.8399,-3322.4484L13052.8192,-3322.4126L13052.8014,-3322.3816L13052.7335,-3322.2656"/>
<path content="1,九州産交バス（株）,鹿児島・熊本～神戸・尼崎（トワイライト号）,1.0,1.0,1.0," xlink:title="1" d="M13053.9057,-3326.6602L13053.9009,-3326.6387L13053.8758,-3326.4901L13053.8492,-3326.2966L13053.8459,-3326.2763L13053.8439,-3326.2636L13053.8313,-3326.1717L13053.8298,-3326.1608L13053.8263,-3326.1348L13053.8228,-3326.1092L13053.8153,-3326.0663L13053.796,-3325.9558L13053.761,-3325.7847L13053.7383,-3325.6764L13053.6962,-3325.5261L13053.6544,-3325.3893L13053.6218,-3325.3197L13053.6123,-3325.2766L13053.5969,-3325.233L13053.5603,-3325.1364L13053.5454,-3325.0973L13053.4693,-3324.9213L13053.4541,-3324.8864L13053.3837,-3324.7236L13053.3465,-3324.6368L13053.3232,-3324.5827L13053.3095,-3324.5466L13053.2929,-3324.5078L13053.2787,-3324.4699L13053.2519,-3324.4003L13053.2319,-3324.3441L13053.2148,-3324.2821L13053.2058,-3324.2518L13053.1991,-3324.2221L13053.1921,-3324.1874L13053.1864,-3324.1576L13053.1719,-3324.0872L13053.1573,-3323.9877L13053.1441,-3323.8746L13053.1431,-3323.8615L13053.1411,-3323.8333L13053.1391,-3323.8044L13053.1384,-3323.7938L13053.1346,-3323.7175L13053.1318,-3323.65L13053.1305,-3323.6192L13053.1241,-3323.4639L13053.1203,-3323.4109L13053.1154,-3323.3408L13053.1097,-3323.2407L13053.0992,-3323.1597L13053.0897,-3323.0901L13053.0867,-3323.0748L13053.0795,-3323.0377L13053.0792,-3323.0357L13053.062,-3322.968L13053.0458,-3322.9108L13053.0416,-3322.898L13053.0231,-3322.8452L13053.0156,-3322.8252L13052.9939,-3322.7668L13052.9793,-3322.7328L13052.9586,-3322.6821L13052.9312,-3322.6219L13052.9213,-3322.6015L13052.901,-3322.561L13052.8777,-3322.5141L13052.8399,-3322.4484L13052.8192,-3322.4126L13052.8014,-3322.3816L13052.7335,-3322.2656"/>
<path content="1,南国交通（株）,鹿児島～大阪,1.0,1.0,1.0," xlink:title="1" d="M13052.7335,-3322.2656L13052.8014,-3322.3816L13052.8192,-3322.4126L13052.8399,-3322.4484L13052.8777,-3322.5141L13052.901,-3322.561L13052.9213,-3322.6015L13052.9312,-3322.6219L13052.9586,-3322.6821L13052.9793,-3322.7328L13052.9939,-3322.7668L13053.0156,-3322.8252L13053.0231,-3322.8452L13053.0416,-3322.898L13053.0458,-3322.9108L13053.062,-3322.968L13053.0792,-3323.0357L13053.0795,-3323.0377L13053.0867,-3323.0748L13053.0897,-3323.0901L13053.0992,-3323.1597L13053.1097,-3323.2407L13053.1154,-3323.3408L13053.1203,-3323.4109L13053.1241,-3323.4639L13053.1305,-3323.6192L13053.1318,-3323.65L13053.1346,-3323.7175L13053.1384,-3323.7938L13053.1391,-3323.8044L13053.1411,-3323.8333L13053.1431,-3323.8615L13053.1441,-3323.8746L13053.1573,-3323.9877L13053.1719,-3324.0872L13053.1864,-3324.1576L13053.1921,-3324.1874L13053.1991,-3324.2221L13053.2058,-3324.2518L13053.2148,-3324.2821L13053.2319,-3324.3441L13053.2519,-3324.4003L13053.2787,-3324.4699L13053.2929,-3324.5078L13053.3095,-3324.5466L13053.3232,-3324.5827L13053.3465,-3324.6368L13053.3837,-3324.7236L13053.4541,-3324.8864L13053.4693,-3324.9213L13053.5454,-3325.0973L13053.5603,-3325.1364L13053.5969,-3325.233L13053.6093,-3325.2751L13053.6218,-3325.3197L13053.6493,-3325.3939L13053.6962,-3325.5261L13053.7383,-3325.6764L13053.761,-3325.7847L13053.796,-3325.9558L13053.8153,-3326.0663L13053.8228,-3326.1092L13053.8263,-3326.1348L13053.8298,-3326.1608L13053.8313,-3326.1717L13053.8439,-3326.2636L13053.8459,-3326.2763L13053.8492,-3326.2966L13053.8758,-3326.4901L13053.9009,-3326.6387L13053.9057,-3326.6602"/>
<path content="1,南国交通（株）,鹿児島～福岡（桜島号）,23.0,23.0,23.0," xlink:title="1" d="M13052.7335,-3322.2656L13052.8014,-3322.3816L13052.8192,-3322.4126L13052.8399,-3322.4484L13052.8777,-3322.5141L13052.901,-3322.561L13052.9213,-3322.6015L13052.9312,-3322.6219L13052.9586,-3322.6821L13052.9793,-3322.7328L13052.9939,-3322.7668L13053.0156,-3322.8252L13053.0231,-3322.8452L13053.0416,-3322.898L13053.0458,-3322.9108L13053.062,-3322.968L13053.0792,-3323.0357L13053.0795,-3323.0377L13053.0867,-3323.0748L13053.0897,-3323.0901L13053.0992,-3323.1597L13053.1097,-3323.2407L13053.1154,-3323.3408L13053.1203,-3323.4109L13053.1241,-3323.4639L13053.1305,-3323.6192L13053.1318,-3323.65L13053.1346,-3323.7175L13053.1384,-3323.7938L13053.1391,-3323.8044L13053.1411,-3323.8333L13053.1431,-3323.8615L13053.1441,-3323.8746L13053.1573,-3323.9877L13053.1719,-3324.0872L13053.1864,-3324.1576L13053.1921,-3324.1874L13053.1991,-3324.2221L13053.2058,-3324.2518L13053.2148,-3324.2821L13053.2319,-3324.3441L13053.2519,-3324.4003L13053.2787,-3324.4699L13053.2929,-3324.5078L13053.3095,-3324.5466L13053.3232,-3324.5827L13053.3465,-3324.6368L13053.3837,-3324.7236L13053.4541,-3324.8864L13053.4693,-3324.9213L13053.5454,-3325.0973L13053.5603,-3325.1364L13053.5969,-3325.233L13053.6093,-3325.2751L13053.6218,-3325.3197L13053.6493,-3325.3939L13053.6962,-3325.5261L13053.7383,-3325.6764L13053.761,-3325.7847L13053.796,-3325.9558L13053.8153,-3326.0663L13053.8228,-3326.1092L13053.8263,-3326.1348L13053.8298,-3326.1608L13053.8313,-3326.1717L13053.8439,-3326.2636L13053.8459,-3326.2763L13053.8492,-3326.2966L13053.8758,-3326.4901L13053.9009,-3326.6387L13053.9057,-3326.6602"/>
<path content="1,南国交通（株）,鹿児島～福岡（桜島号）夜行便,1.0,1.0,1.0," xlink:title="1" d="M13052.7335,-3322.2656L13052.8014,-3322.3816L13052.8192,-3322.4126L13052.8399,-3322.4484L13052.8777,-3322.5141L13052.901,-3322.561L13052.9213,-3322.6015L13052.9312,-3322.6219L13052.9586,-3322.6821L13052.9793,-3322.7328L13052.9939,-3322.7668L13053.0156,-3322.8252L13053.0231,-3322.8452L13053.0416,-3322.898L13053.0458,-3322.9108L13053.062,-3322.968L13053.0792,-3323.0357L13053.0795,-3323.0377L13053.0867,-3323.0748L13053.0897,-3323.0901L13053.0992,-3323.1597L13053.1097,-3323.2407L13053.1154,-3323.3408L13053.1203,-3323.4109L13053.1241,-3323.4639L13053.1305,-3323.6192L13053.1318,-3323.65L13053.1346,-3323.7175L13053.1384,-3323.7938L13053.1391,-3323.8044L13053.1411,-3323.8333L13053.1431,-3323.8615L13053.1441,-3323.8746L13053.1573,-3323.9877L13053.1719,-3324.0872L13053.1864,-3324.1576L13053.1921,-3324.1874L13053.1991,-3324.2221L13053.2058,-3324.2518L13053.2148,-3324.2821L13053.2319,-3324.3441L13053.2519,-3324.4003L13053.2787,-3324.4699L13053.2929,-3324.5078L13053.3095,-3324.5466L13053.3232,-3324.5827L13053.3465,-3324.6368L13053.3837,-3324.7236L13053.4541,-3324.8864L13053.4693,-3324.9213L13053.5454,-3325.0973L13053.5603,-3325.1364L13053.5969,-3325.233L13053.6093,-3325.2751L13053.6218,-3325.3197L13053.6493,-3325.3939L13053.6962,-3325.5261L13053.7383,-3325.6764L13053.761,-3325.7847L13053.796,-3325.9558L13053.8153,-3326.0663L13053.8228,-3326.1092L13053.8263,-3326.1348L13053.8298,-3326.1608L13053.8313,-3326.1717L13053.8439,-3326.2636L13053.8459,-3326.2763L13053.8492,-3326.2966L13053.8758,-3326.4901L13053.9009,-3326.6387L13053.9057,-3326.6602"/>
<path content="1,名鉄バス（株）,名古屋～熊本,1.0,1.0,1.0," xlink:title="1" d="M13053.9057,-3326.6602L13053.9009,-3326.6387L13053.8758,-3326.4901L13053.8492,-3326.2966L13053.8459,-3326.2763L13053.8439,-3326.2636L13053.8313,-3326.1717L13053.8298,-3326.1608L13053.8263,-3326.1348L13053.8228,-3326.1092L13053.8153,-3326.0663L13053.796,-3325.9558L13053.761,-3325.7847L13053.7383,-3325.6764L13053.6962,-3325.5261L13053.6544,-3325.3893L13053.6218,-3325.3197L13053.6123,-3325.2766L13053.5969,-3325.233L13053.5603,-3325.1364L13053.5454,-3325.0973L13053.4693,-3324.9213L13053.4541,-3324.8864L13053.3837,-3324.7236L13053.3465,-3324.6368L13053.3232,-3324.5827L13053.3095,-3324.5466L13053.2929,-3324.5078L13053.2787,-3324.4699L13053.2519,-3324.4003L13053.2319,-3324.3441L13053.2148,-3324.2821L13053.2058,-3324.2518L13053.1991,-3324.2221L13053.1921,-3324.1874L13053.1864,-3324.1576L13053.1719,-3324.0872L13053.1573,-3323.9877L13053.1441,-3323.8746L13053.1431,-3323.8615L13053.1411,-3323.8333L13053.1391,-3323.8044L13053.1384,-3323.7938L13053.1346,-3323.7175L13053.1318,-3323.65L13053.1305,-3323.6192L13053.1241,-3323.4639L13053.1203,-3323.4109L13053.1154,-3323.3408L13053.1097,-3323.2407L13053.0992,-3323.1597L13053.0897,-3323.0901L13053.0867,-3323.0748L13053.0795,-3323.0377L13053.0792,-3323.0357L13053.062,-3322.968L13053.0458,-3322.9108L13053.0416,-3322.898L13053.0231,-3322.8452L13053.0156,-3322.8252L13052.9939,-3322.7668L13052.9793,-3322.7328L13052.9586,-3322.6821L13052.9312,-3322.6219L13052.9213,-3322.6015L13052.901,-3322.561L13052.8777,-3322.5141L13052.8399,-3322.4484L13052.8192,-3322.4126L13052.8014,-3322.3816L13052.7335,-3322.2656"/>
<path content="1,堀川バス（株）,上広川線,4.4,2.0,0.0," xlink:title="1" d="M13055.7987,-3322.2656L13055.7981,-3322.2674L13055.7564,-3322.3704L13055.7345,-3322.4305L13055.6832,-3322.5659L13055.6664,-3322.6135L13055.6608,-3322.6217L13055.6471,-3322.6567L13055.6263,-3322.717L13055.6181,-3322.7379L13055.5982,-3322.7839L13055.594,-3322.8074L13055.5739,-3322.8754L13055.5675,-3322.9015L13055.5523,-3322.9789L13055.5333,-3323.0701L13055.53,-3323.0921L13055.5281,-3323.1344L13055.5282,-3323.1916L13055.5264,-3323.2084L13055.5184,-3323.2237L13055.491,-3323.27L13055.4596,-3323.3242L13055.4072,-3323.3933L13055.3666,-3323.4539L13055.2721,-3323.5765L13055.1828,-3323.678L13055.0835,-3323.8059L13055.1075,-3323.8234L13055.1298,-3323.8522L13055.1366,-3323.8909L13055.1434,-3323.9551L13055.1418,-3323.9863L13055.1423,-3324.0181L13055.1444,-3324.0333L13055.1629,-3324.1059L13055.171,-3324.1313L13055.1824,-3324.1736L13055.1949,-3324.2147L13055.2058,-3324.2545L13055.2141,-3324.2899L13055.4859,-3324.2821L13055.6445,-3324.2781L13055.6637,-3324.2782L13055.9751,-3324.2663L13056.1523,-3324.2655"/>
<path content="1,堀川バス（株）,下広川線,1.2,0.0,0.0," xlink:title="1" d="M13054.677,-3324.2974L13054.6911,-3324.2781"/>
<path content="1,堀川バス（株）,下広川線,1.2,0.0,0.0," xlink:title="1" d="M13054.677,-3324.2974L13054.8258,-3324.2981L13055.0336,-3324.293L13055.2141,-3324.2899L13055.2058,-3324.2545L13055.1949,-3324.2147L13055.1824,-3324.1736L13055.171,-3324.1313L13055.1629,-3324.1059L13055.1444,-3324.0333L13055.1423,-3324.0181L13055.1418,-3323.9863L13055.1434,-3323.9551L13055.1366,-3323.8909L13055.441,-3323.8703L13055.6311,-3323.8633L13055.8386,-3323.8515L13055.9396,-3323.8485L13055.9307,-3323.9188L13055.9307,-3323.9333L13055.9348,-3323.9481L13055.9444,-3323.9628L13055.9532,-3323.977L13055.9608,-3323.9934L13055.9694,-3324.0246L13055.9743,-3324.0519L13055.9769,-3324.0783L13055.9858,-3324.1457L13055.9881,-3324.1927L13055.9863,-3324.2031L13055.9813,-3324.2158L13055.9777,-3324.2274L13055.9767,-3324.2427L13055.9751,-3324.2663L13055.6637,-3324.2782L13055.6445,-3324.2781L13055.4859,-3324.2821"/>
<path content="1,堀川バス（株）,下広川線,1.2,0.0,0.0," xlink:title="1" d="M13052.2914,-3324.3408L13052.3587,-3324.3188L13052.3858,-3324.3087L13052.4061,-3324.3048L13052.4565,-3324.3013L13052.5242,-3324.2971L13052.6606,-3324.2858L13052.708,-3324.2824L13052.8271,-3324.2794L13052.9109,-3324.265L13053.0087,-3324.2554L13053.1804,-3324.2405L13053.2704,-3324.2348L13053.4354,-3324.2217L13053.4963,-3324.2174L13053.5338,-3324.2187L13053.679,-3324.2304L13053.7903,-3324.2375L13053.9334,-3324.2458L13053.984,-3324.2505L13054.1832,-3324.2615L13054.2733,-3324.2681L13054.3924,-3324.2764L13054.5444,-3324.2886L13054.6615,-3324.296L13054.677,-3324.2974"/>
<path content="1,堀川バス（株）,下広川線,1.2,0.0,0.0," xlink:title="1" d="M13052.2914,-3324.3408L13052.2699,-3324.3518L13052.2224,-3324.3705L13052.1537,-3324.3939L13052.0793,-3324.4219L13052.0184,-3324.4403L13051.9653,-3324.4516L13051.8956,-3324.4608L13051.7822,-3324.4757L13051.7578,-3324.4781M13051.7578,-3325.2576L13051.7668,-3325.2657L13051.8183,-3325.3137L13051.9536,-3325.2119L13052.0701,-3325.1227L13052.1279,-3325.079L13052.1664,-3325.048L13052.1841,-3325.0323L13052.1987,-3325.0139L13052.207,-3324.9929L13052.2122,-3324.9741L13052.2127,-3324.9422L13052.2122,-3324.8959L13052.2122,-3324.8714L13052.2183,-3324.8504L13052.2705,-3324.7359L13052.3048,-3324.6437L13052.3173,-3324.6061L13052.3199,-3324.5882L13052.3127,-3324.524L13052.3025,-3324.4263L13052.2914,-3324.3408"/>
<path content="1,堀川バス（株）,中広川線,1.2,0.0,0.0," xlink:title="1" d="M13055.7987,-3322.2656L13055.7981,-3322.2674L13055.7564,-3322.3704L13055.7345,-3322.4305L13055.6832,-3322.5659L13055.6664,-3322.6135L13055.6608,-3322.6217L13055.6471,-3322.6567L13055.6263,-3322.717L13055.6181,-3322.7379L13055.5982,-3322.7839L13055.594,-3322.8074L13055.5739,-3322.8754L13055.5675,-3322.9015L13055.5523,-3322.9789L13055.5333,-3323.0701L13055.53,-3323.0921L13055.5281,-3323.1344L13055.5282,-3323.1916L13055.5264,-3323.2084L13055.5184,-3323.2237L13055.491,-3323.27L13055.4596,-3323.3242L13055.4072,-3323.3933L13055.3666,-3323.4539L13055.2721,-3323.5765L13055.1828,-3323.678L13055.0835,-3323.8059L13055.1075,-3323.8234L13055.1298,-3323.8522L13055.1366,-3323.8909L13055.1434,-3323.9551L13055.1418,-3323.9863L13055.1423,-3324.0181L13055.1444,-3324.0333L13055.1629,-3324.1059L13055.171,-3324.1313L13055.1824,-3324.1736L13055.1949,-3324.2147L13055.2058,-3324.2545L13055.2141,-3324.2899L13055.4859,-3324.2821L13055.6445,-3324.2781L13055.6637,-3324.2782L13055.9751,-3324.2663L13055.9767,-3324.2427L13055.9777,-3324.2274L13055.9813,-3324.2158L13055.9863,-3324.2031L13055.9881,-3324.1927L13055.9858,-3324.1457L13055.9769,-3324.0783L13055.9743,-3324.0519L13055.9694,-3324.0246L13055.9608,-3323.9934L13055.9532,-3323.977L13055.9444,-3323.9628L13055.9348,-3323.9481L13055.9307,-3323.9333L13055.9307,-3323.9188L13055.9396,-3323.8485L13055.9352,-3323.749L13055.9313,-3323.6765L13055.9313,-3323.6192L13055.9318,-3323.5848L13055.9414,-3323.5493L13055.9598,-3323.4798L13055.9625,-3323.4611L13055.9609,-3323.4133L13055.9945,-3323.4185L13056.0417,-3323.4277L13056.0925,-3323.4405L13056.1343,-3323.451L13056.1523,-3323.455"/>
<path content="1,堀川バス（株）,中広川線,1.2,0.0,0.0," xlink:title="1" d="M13056.1523,-3325.2956L13056.0909,-3325.296L13056.0199,-3325.2927L13055.882,-3325.2905L13055.8773,-3325.296L13055.8183,-3325.3512L13055.7857,-3325.3817L13055.7279,-3325.4279L13055.6583,-3325.4934L13055.6475,-3325.5062L13055.6401,-3325.5256L13055.5792,-3325.7085L13055.5759,-3325.7232L13055.4822,-3325.716L13055.401,-3325.6976L13055.287,-3325.6622L13055.2075,-3325.6369L13055.0489,-3325.5992L13055.0028,-3325.5907L13054.892,-3325.575L13054.7998,-3325.575L13054.7663,-3325.5737L13054.7421,-3325.5671L13054.7194,-3325.5501L13054.682,-3325.5035L13054.6179,-3325.4162L13054.5391,-3325.3094L13054.5055,-3325.2792L13054.4743,-3325.2641L13054.4376,-3325.2563L13054.3517,-3325.2543L13054.3018,-3325.2471L13054.2768,-3325.2359L13054.2573,-3325.2215L13054.2206,-3325.1782L13054.2081,-3325.1704L13054.2011,-3325.1737L13054.0199,-3325.1723L13054.018,-3325.1817"/>
<path content="1,堀川バス（株）,久留米線,29.0,29.0,24.0," xlink:title="1" d="M13056.1523,-3324.9697L13056.1375,-3324.9877L13056.0792,-3325.0601L13056.014,-3325.1359L13055.882,-3325.2905L13055.8773,-3325.296L13055.8183,-3325.3512L13055.7857,-3325.3817L13055.7279,-3325.4279L13055.6583,-3325.4934L13055.6475,-3325.5062L13055.6401,-3325.5256L13055.5792,-3325.7085L13055.5759,-3325.7232L13055.5118,-3325.9569L13055.4757,-3326.0751L13055.4238,-3326.2063L13055.402,-3326.2457L13055.3676,-3326.301L13055.3426,-3326.3243L13055.304,-3326.3561L13055.2368,-3326.3931L13055.1627,-3326.4243L13055.1304,-3326.4357L13055.092,-3326.4433L13055.0725,-3326.4479L13055.0518,-3326.4574L13055.0155,-3326.4892L13054.9796,-3326.5259L13054.9288,-3326.595L13054.8918,-3326.639L13054.8698,-3326.6602"/>
<path content="1,宮崎交通（株）,宮崎-長崎,1.0,1.0,1.0," xlink:title="1" d="M13052.7335,-3322.2656L13052.8014,-3322.3816L13052.8192,-3322.4126L13052.8399,-3322.4484L13052.8777,-3322.5141L13052.901,-3322.561L13052.9213,-3322.6015L13052.9312,-3322.6219L13052.9586,-3322.6821L13052.9793,-3322.7328L13052.9939,-3322.7668L13053.0156,-3322.8252L13053.0231,-3322.8452L13053.0416,-3322.898L13053.0458,-3322.9108L13053.062,-3322.968L13053.0792,-3323.0357L13053.0795,-3323.0377L13053.0867,-3323.0748L13053.0897,-3323.0901L13053.0992,-3323.1597L13053.1097,-3323.2407L13053.1154,-3323.3408L13053.1203,-3323.4109L13053.1241,-3323.4639L13053.1305,-3323.6192L13053.1318,-3323.65L13053.1346,-3323.7175L13053.1384,-3323.7938L13053.1391,-3323.8044L13053.1411,-3323.8333L13053.1431,-3323.8615L13053.1441,-3323.8746L13053.1573,-3323.9877L13053.1719,-3324.0872L13053.1864,-3324.1576L13053.1921,-3324.1874L13053.1991,-3324.2221L13053.2058,-3324.2518L13053.2148,-3324.2821L13053.2319,-3324.3441L13053.2519,-3324.4003L13053.2787,-3324.4699L13053.2929,-3324.5078L13053.3095,-3324.5466L13053.3232,-3324.5827L13053.3465,-3324.6368L13053.3837,-3324.7236L13053.4541,-3324.8864L13053.4693,-3324.9213L13053.5454,-3325.0973L13053.5603,-3325.1364L13053.5969,-3325.233L13053.6123,-3325.2766L13053.6218,-3325.3197L13053.6544,-3325.3893L13053.6962,-3325.5261L13053.7383,-3325.6764L13053.761,-3325.7847L13053.796,-3325.9558L13053.8153,-3326.0663L13053.8228,-3326.1092L13053.8263,-3326.1348L13053.8298,-3326.1608L13053.8313,-3326.1717L13053.8439,-3326.2636L13053.8459,-3326.2763L13053.8492,-3326.2966L13053.8758,-3326.4901L13053.9009,-3326.6387L13053.9057,-3326.6602"/>
<path content="1,宮崎交通（株）,宮崎～福岡（スーパーフェニックス号）,4.0,4.0,4.0," xlink:title="1" d="M13052.7335,-3322.2656L13052.8014,-3322.3816L13052.8192,-3322.4126L13052.8399,-3322.4484L13052.8777,-3322.5141L13052.901,-3322.561L13052.9213,-3322.6015L13052.9312,-3322.6219L13052.9586,-3322.6821L13052.9793,-3322.7328L13052.9939,-3322.7668L13053.0156,-3322.8252L13053.0231,-3322.8452L13053.0416,-3322.898L13053.0458,-3322.9108L13053.062,-3322.968L13053.0792,-3323.0357L13053.0795,-3323.0377L13053.0867,-3323.0748L13053.0897,-3323.0901L13053.0992,-3323.1597L13053.1097,-3323.2407L13053.1154,-3323.3408L13053.1203,-3323.4109L13053.1241,-3323.4639L13053.1305,-3323.6192L13053.1318,-3323.65L13053.1346,-3323.7175L13053.1384,-3323.7938L13053.1391,-3323.8044L13053.1411,-3323.8333L13053.1431,-3323.8615L13053.1441,-3323.8746L13053.1573,-3323.9877L13053.1719,-3324.0872L13053.1864,-3324.1576L13053.1921,-3324.1874L13053.1991,-3324.2221L13053.2058,-3324.2518L13053.2148,-3324.2821L13053.2319,-3324.3441L13053.2519,-3324.4003L13053.2787,-3324.4699L13053.2929,-3324.5078L13053.3095,-3324.5466L13053.3232,-3324.5827L13053.3465,-3324.6368L13053.3837,-3324.7236L13053.4541,-3324.8864L13053.4693,-3324.9213L13053.5454,-3325.0973L13053.5603,-3325.1364L13053.5969,-3325.233L13053.6123,-3325.2766L13053.6218,-3325.3197L13053.6544,-3325.3893L13053.6962,-3325.5261L13053.7383,-3325.6764L13053.761,-3325.7847L13053.796,-3325.9558L13053.8153,-3326.0663L13053.8228,-3326.1092L13053.8263,-3326.1348L13053.8298,-3326.1608L13053.8313,-3326.1717L13053.8439,-3326.2636L13053.8459,-3326.2763L13053.8492,-3326.2966L13053.8758,-3326.4901L13053.9009,-3326.6387L13053.9057,-3326.6602"/>
<path content="1,宮崎交通（株）,延岡-福岡,2.0,2.0,2.0," xlink:title="1" d="M13052.7335,-3322.2656L13052.8014,-3322.3816L13052.8192,-3322.4126L13052.8399,-3322.4484L13052.8777,-3322.5141L13052.901,-3322.561L13052.9213,-3322.6015L13052.9312,-3322.6219L13052.9586,-3322.6821L13052.9793,-3322.7328L13052.9939,-3322.7668L13053.0156,-3322.8252L13053.0231,-3322.8452L13053.0416,-3322.898L13053.0458,-3322.9108L13053.062,-3322.968L13053.0792,-3323.0357L13053.0795,-3323.0377L13053.0867,-3323.0748L13053.0897,-3323.0901L13053.0992,-3323.1597L13053.1097,-3323.2407L13053.1154,-3323.3408L13053.1203,-3323.4109L13053.1241,-3323.4639L13053.1305,-3323.6192L13053.1318,-3323.65L13053.1346,-3323.7175L13053.1384,-3323.7938L13053.1391,-3323.8044L13053.1411,-3323.8333L13053.1431,-3323.8615L13053.1441,-3323.8746L13053.1573,-3323.9877L13053.1719,-3324.0872L13053.1864,-3324.1576L13053.1921,-3324.1874L13053.1991,-3324.2221L13053.2058,-3324.2518L13053.2148,-3324.2821L13053.2319,-3324.3441L13053.2519,-3324.4003L13053.2787,-3324.4699L13053.2929,-3324.5078L13053.3095,-3324.5466L13053.3232,-3324.5827L13053.3465,-3324.6368L13053.3837,-3324.7236L13053.4541,-3324.8864L13053.4693,-3324.9213L13053.5454,-3325.0973L13053.5603,-3325.1364L13053.5969,-3325.233L13053.6123,-3325.2766L13053.6218,-3325.3197L13053.6544,-3325.3893L13053.6962,-3325.5261L13053.7383,-3325.6764L13053.761,-3325.7847L13053.796,-3325.9558L13053.8153,-3326.0663L13053.8228,-3326.1092L13053.8263,-3326.1348L13053.8298,-3326.1608L13053.8313,-3326.1717L13053.8439,-3326.2636L13053.8459,-3326.2763L13053.8492,-3326.2966L13053.8758,-3326.4901L13053.9009,-3326.6387L13053.9057,-3326.6602"/>
<path content="1,西日本鉄道（株）,福岡空港～熊本（ひのくに号）,20.0,20.0,20.0," xlink:title="1" d="M13053.9057,-3326.6602L13053.9009,-3326.6387L13053.8758,-3326.4901L13053.8492,-3326.2966L13053.8459,-3326.2763L13053.8439,-3326.2636L13053.8313,-3326.1717L13053.8298,-3326.1608L13053.8263,-3326.1348L13053.8228,-3326.1092L13053.8153,-3326.0663L13053.796,-3325.9558L13053.761,-3325.7847L13053.7383,-3325.6764L13053.6962,-3325.5261L13053.6544,-3325.3893L13053.6218,-3325.3197L13053.6123,-3325.2766L13053.5969,-3325.233L13053.5603,-3325.1364L13053.5454,-3325.0973L13053.4693,-3324.9213L13053.4541,-3324.8864L13053.3837,-3324.7236L13053.3465,-3324.6368L13053.3232,-3324.5827L13053.3095,-3324.5466L13053.2929,-3324.5078L13053.2787,-3324.4699L13053.2519,-3324.4003L13053.2319,-3324.3441L13053.2148,-3324.2821L13053.2058,-3324.2518L13053.1991,-3324.2221L13053.1921,-3324.1874L13053.1864,-3324.1576L13053.1719,-3324.0872L13053.1573,-3323.9877L13053.1441,-3323.8746L13053.1431,-3323.8615L13053.1411,-3323.8333L13053.1391,-3323.8044L13053.1384,-3323.7938L13053.1346,-3323.7175L13053.1318,-3323.65L13053.1305,-3323.6192L13053.1241,-3323.4639L13053.1203,-3323.4109L13053.1154,-3323.3408L13053.1097,-3323.2407L13053.0992,-3323.1597L13053.0897,-3323.0901L13053.0867,-3323.0748L13053.0795,-3323.0377L13053.0792,-3323.0357L13053.062,-3322.968L13053.0458,-3322.9108L13053.0416,-3322.898L13053.0231,-3322.8452L13053.0156,-3322.8252L13052.9939,-3322.7668L13052.9793,-3322.7328L13052.9586,-3322.6821L13052.9312,-3322.6219L13052.9213,-3322.6015L13052.901,-3322.561L13052.8777,-3322.5141L13052.8399,-3322.4484L13052.8192,-3322.4126L13052.8014,-3322.3816L13052.7335,-3322.2656"/>
<path content="1,西日本鉄道（株）,福岡空港～熊本（ひのくに号）スーパーノンストップ,54.0,56.0,56.0," xlink:title="1" d="M13053.9057,-3326.6602L13053.9009,-3326.6387L13053.8758,-3326.4901L13053.8492,-3326.2966L13053.8459,-3326.2763L13053.8439,-3326.2636L13053.8313,-3326.1717L13053.8298,-3326.1608L13053.8263,-3326.1348L13053.8228,-3326.1092L13053.8153,-3326.0663L13053.796,-3325.9558L13053.761,-3325.7847L13053.7383,-3325.6764L13053.6962,-3325.5261L13053.6544,-3325.3893L13053.6218,-3325.3197L13053.6123,-3325.2766L13053.5969,-3325.233L13053.5603,-3325.1364L13053.5454,-3325.0973L13053.4693,-3324.9213L13053.4541,-3324.8864L13053.3837,-3324.7236L13053.3465,-3324.6368L13053.3232,-3324.5827L13053.3095,-3324.5466L13053.2929,-3324.5078L13053.2787,-3324.4699L13053.2519,-3324.4003L13053.2319,-3324.3441L13053.2148,-3324.2821L13053.2058,-3324.2518L13053.1991,-3324.2221L13053.1921,-3324.1874L13053.1864,-3324.1576L13053.1719,-3324.0872L13053.1573,-3323.9877L13053.1441,-3323.8746L13053.1431,-3323.8615L13053.1411,-3323.8333L13053.1391,-3323.8044L13053.1384,-3323.7938L13053.1346,-3323.7175L13053.1318,-3323.65L13053.1305,-3323.6192L13053.1241,-3323.4639L13053.1203,-3323.4109L13053.1154,-3323.3408L13053.1097,-3323.2407L13053.0992,-3323.1597L13053.0897,-3323.0901L13053.0867,-3323.0748L13053.0795,-3323.0377L13053.0792,-3323.0357L13053.062,-3322.968L13053.0458,-3322.9108L13053.0416,-3322.898L13053.0231,-3322.8452L13053.0156,-3322.8252L13052.9939,-3322.7668L13052.9793,-3322.7328L13052.9586,-3322.6821L13052.9312,-3322.6219L13052.9213,-3322.6015L13052.901,-3322.561L13052.8777,-3322.5141L13052.8399,-3322.4484L13052.8192,-3322.4126L13052.8014,-3322.3816L13052.7335,-3322.2656"/>
<path content="1,西日本鉄道（株）,福岡空港～熊本（ひのくに号）植木IC経由,34.0,34.0,34.0," xlink:title="1" d="M13053.9057,-3326.6602L13053.9009,-3326.6387L13053.8758,-3326.4901L13053.8492,-3326.2966L13053.8459,-3326.2763L13053.8439,-3326.2636L13053.8313,-3326.1717L13053.8298,-3326.1608L13053.8263,-3326.1348L13053.8228,-3326.1092L13053.8153,-3326.0663L13053.796,-3325.9558L13053.761,-3325.7847L13053.7383,-3325.6764L13053.6962,-3325.5261L13053.6544,-3325.3893L13053.6218,-3325.3197L13053.6123,-3325.2766L13053.5969,-3325.233L13053.5603,-3325.1364L13053.5454,-3325.0973L13053.4693,-3324.9213L13053.4541,-3324.8864L13053.3837,-3324.7236L13053.3465,-3324.6368L13053.3232,-3324.5827L13053.3095,-3324.5466L13053.2929,-3324.5078L13053.2787,-3324.4699L13053.2519,-3324.4003L13053.2319,-3324.3441L13053.2148,-3324.2821L13053.2058,-3324.2518L13053.1991,-3324.2221L13053.1921,-3324.1874L13053.1864,-3324.1576L13053.1719,-3324.0872L13053.1573,-3323.9877L13053.1441,-3323.8746L13053.1431,-3323.8615L13053.1411,-3323.8333L13053.1391,-3323.8044L13053.1384,-3323.7938L13053.1346,-3323.7175L13053.1318,-3323.65L13053.1305,-3323.6192L13053.1241,-3323.4639L13053.1203,-3323.4109L13053.1154,-3323.3408L13053.1097,-3323.2407L13053.0992,-3323.1597L13053.0897,-3323.0901L13053.0867,-3323.0748L13053.0795,-3323.0377L13053.0792,-3323.0357L13053.062,-3322.968L13053.0458,-3322.9108L13053.0416,-3322.898L13053.0231,-3322.8452L13053.0156,-3322.8252L13052.9939,-3322.7668L13052.9793,-3322.7328L13052.9586,-3322.6821L13052.9312,-3322.6219L13052.9213,-3322.6015L13052.901,-3322.561L13052.8777,-3322.5141L13052.8399,-3322.4484L13052.8192,-3322.4126L13052.8014,-3322.3816L13052.7335,-3322.2656"/>
<path content="1,西日本鉄道（株）,福岡～宮交シティ,8.0,8.0,8.0," xlink:title="1" d="M13052.7335,-3322.2656L13052.8014,-3322.3816L13052.8192,-3322.4126L13052.8399,-3322.4484L13052.8777,-3322.5141L13052.901,-3322.561L13052.9213,-3322.6015L13052.9312,-3322.6219L13052.9586,-3322.6821L13052.9793,-3322.7328L13052.9939,-3322.7668L13053.0156,-3322.8252L13053.0231,-3322.8452L13053.0416,-3322.898L13053.0458,-3322.9108L13053.062,-3322.968L13053.0792,-3323.0357L13053.0795,-3323.0377L13053.0867,-3323.0748L13053.0897,-3323.0901L13053.0992,-3323.1597L13053.1097,-3323.2407L13053.1154,-3323.3408L13053.1203,-3323.4109L13053.1241,-3323.4639L13053.1305,-3323.6192L13053.1318,-3323.65L13053.1346,-3323.7175L13053.1384,-3323.7938L13053.1391,-3323.8044L13053.1411,-3323.8333L13053.1431,-3323.8615L13053.1441,-3323.8746L13053.1573,-3323.9877L13053.1719,-3324.0872L13053.1864,-3324.1576L13053.1921,-3324.1874L13053.1991,-3324.2221L13053.2058,-3324.2518L13053.2148,-3324.2821L13053.2319,-3324.3441L13053.2519,-3324.4003L13053.2787,-3324.4699L13053.2929,-3324.5078L13053.3095,-3324.5466L13053.3232,-3324.5827L13053.3465,-3324.6368L13053.3837,-3324.7236L13053.4541,-3324.8864L13053.4693,-3324.9213L13053.5454,-3325.0973L13053.5603,-3325.1364L13053.5969,-3325.233L13053.6123,-3325.2766L13053.6218,-3325.3197L13053.6544,-3325.3893L13053.6962,-3325.5261L13053.7383,-3325.6764L13053.761,-3325.7847L13053.796,-3325.9558L13053.8153,-3326.0663L13053.8228,-3326.1092L13053.8263,-3326.1348L13053.8298,-3326.1608L13053.8313,-3326.1717L13053.8439,-3326.2636L13053.8459,-3326.2763L13053.8492,-3326.2966L13053.8758,-3326.4901L13053.9009,-3326.6387L13053.9057,-3326.6602"/>
<path content="1,西日本鉄道（株）,福岡～宮崎（フェニックス号）,8.0,8.0,8.0," xlink:title="1" d="M13053.9057,-3326.6602L13053.9009,-3326.6387L13053.8758,-3326.4901L13053.8492,-3326.2966L13053.8459,-3326.2763L13053.8439,-3326.2636L13053.8313,-3326.1717L13053.8298,-3326.1608L13053.8263,-3326.1348L13053.8228,-3326.1092L13053.8153,-3326.0663L13053.796,-3325.9558L13053.761,-3325.7847L13053.7383,-3325.6764L13053.6962,-3325.5261L13053.6544,-3325.3893L13053.6218,-3325.3197L13053.6123,-3325.2766L13053.5969,-3325.233L13053.5603,-3325.1364L13053.5454,-3325.0973L13053.4693,-3324.9213L13053.4541,-3324.8864L13053.3837,-3324.7236L13053.3465,-3324.6368L13053.3232,-3324.5827L13053.3095,-3324.5466L13053.2929,-3324.5078L13053.2787,-3324.4699L13053.2519,-3324.4003L13053.2319,-3324.3441L13053.2148,-3324.2821L13053.2058,-3324.2518L13053.1991,-3324.2221L13053.1921,-3324.1874L13053.1864,-3324.1576L13053.1719,-3324.0872L13053.1573,-3323.9877L13053.1441,-3323.8746L13053.1431,-3323.8615L13053.1411,-3323.8333L13053.1391,-3323.8044L13053.1384,-3323.7938L13053.1346,-3323.7175L13053.1318,-3323.65L13053.1305,-3323.6192L13053.1241,-3323.4639L13053.1203,-3323.4109L13053.1154,-3323.3408L13053.1097,-3323.2407L13053.0992,-3323.1597L13053.0897,-3323.0901L13053.0867,-3323.0748L13053.0795,-3323.0377L13053.0792,-3323.0357L13053.062,-3322.968L13053.0458,-3322.9108L13053.0416,-3322.898L13053.0231,-3322.8452L13053.0156,-3322.8252L13052.9939,-3322.7668L13052.9793,-3322.7328L13052.9586,-3322.6821L13052.9312,-3322.6219L13052.9213,-3322.6015L13052.901,-3322.561L13052.8777,-3322.5141L13052.8399,-3322.4484L13052.8192,-3322.4126L13052.8014,-3322.3816L13052.7335,-3322.2656"/>
<path content="1,西日本鉄道（株）,福岡～宮崎（皆割フェニックス号）,3.0,3.0,3.0," xlink:title="1" d="M13053.9057,-3326.6602L13053.9009,-3326.6387L13053.8758,-3326.4901L13053.8492,-3326.2966L13053.8459,-3326.2763L13053.8439,-3326.2636L13053.8313,-3326.1717L13053.8298,-3326.1608L13053.8263,-3326.1348L13053.8228,-3326.1092L13053.8153,-3326.0663L13053.796,-3325.9558L13053.761,-3325.7847L13053.7383,-3325.6764L13053.6962,-3325.5261L13053.6544,-3325.3893L13053.6218,-3325.3197L13053.6123,-3325.2766L13053.5969,-3325.233L13053.5603,-3325.1364L13053.5454,-3325.0973L13053.4693,-3324.9213L13053.4541,-3324.8864L13053.3837,-3324.7236L13053.3465,-3324.6368L13053.3232,-3324.5827L13053.3095,-3324.5466L13053.2929,-3324.5078L13053.2787,-3324.4699L13053.2519,-3324.4003L13053.2319,-3324.3441L13053.2148,-3324.2821L13053.2058,-3324.2518L13053.1991,-3324.2221L13053.1921,-3324.1874L13053.1864,-3324.1576L13053.1719,-3324.0872L13053.1573,-3323.9877L13053.1441,-3323.8746L13053.1431,-3323.8615L13053.1411,-3323.8333L13053.1391,-3323.8044L13053.1384,-3323.7938L13053.1346,-3323.7175L13053.1318,-3323.65L13053.1305,-3323.6192L13053.1241,-3323.4639L13053.1203,-3323.4109L13053.1154,-3323.3408L13053.1097,-3323.2407L13053.0992,-3323.1597L13053.0897,-3323.0901L13053.0867,-3323.0748L13053.0795,-3323.0377L13053.0792,-3323.0357L13053.062,-3322.968L13053.0458,-3322.9108L13053.0416,-3322.898L13053.0231,-3322.8452L13053.0156,-3322.8252L13052.9939,-3322.7668L13052.9793,-3322.7328L13052.9586,-3322.6821L13052.9312,-3322.6219L13052.9213,-3322.6015L13052.901,-3322.561L13052.8777,-3322.5141L13052.8399,-3322.4484L13052.8192,-3322.4126L13052.8014,-3322.3816L13052.7335,-3322.2656"/>
<path content="1,西日本鉄道（株）,福岡～延岡,4.0,4.0,4.0," xlink:title="1" d="M13053.9057,-3326.6602L13053.9009,-3326.6387L13053.8758,-3326.4901L13053.8492,-3326.2966L13053.8459,-3326.2763L13053.8439,-3326.2636L13053.8313,-3326.1717L13053.8298,-3326.1608L13053.8263,-3326.1348L13053.8228,-3326.1092L13053.8153,-3326.0663L13053.796,-3325.9558L13053.761,-3325.7847L13053.7383,-3325.6764L13053.6962,-3325.5261L13053.6544,-3325.3893L13053.6218,-3325.3197L13053.6123,-3325.2766L13053.5969,-3325.233L13053.5603,-3325.1364L13053.5454,-3325.0973L13053.4693,-3324.9213L13053.4541,-3324.8864L13053.3837,-3324.7236L13053.3465,-3324.6368L13053.3232,-3324.5827L13053.3095,-3324.5466L13053.2929,-3324.5078L13053.2787,-3324.4699L13053.2519,-3324.4003L13053.2319,-3324.3441L13053.2148,-3324.2821L13053.2058,-3324.2518L13053.1991,-3324.2221L13053.1921,-3324.1874L13053.1864,-3324.1576L13053.1719,-3324.0872L13053.1573,-3323.9877L13053.1441,-3323.8746L13053.1431,-3323.8615L13053.1411,-3323.8333L13053.1391,-3323.8044L13053.1384,-3323.7938L13053.1346,-3323.7175L13053.1318,-3323.65L13053.1305,-3323.6192L13053.1241,-3323.4639L13053.1203,-3323.4109L13053.1154,-3323.3408L13053.1097,-3323.2407L13053.0992,-3323.1597L13053.0897,-3323.0901L13053.0867,-3323.0748L13053.0795,-3323.0377L13053.0792,-3323.0357L13053.062,-3322.968L13053.0458,-3322.9108L13053.0416,-3322.898L13053.0231,-3322.8452L13053.0156,-3322.8252L13052.9939,-3322.7668L13052.9793,-3322.7328L13052.9586,-3322.6821L13052.9312,-3322.6219L13052.9213,-3322.6015L13052.901,-3322.561L13052.8777,-3322.5141L13052.8399,-3322.4484L13052.8192,-3322.4126L13052.8014,-3322.3816L13052.7335,-3322.2656"/>
<path content="1,西日本鉄道（株）,福岡～熊本（スーパーノンストップ）,54.0,56.0,56.0," xlink:title="1" d="M13053.9057,-3326.6602L13053.9009,-3326.6387L13053.8758,-3326.4901L13053.8492,-3326.2966L13053.8459,-3326.2763L13053.8439,-3326.2636L13053.8313,-3326.1717L13053.8298,-3326.1608L13053.8263,-3326.1348L13053.8228,-3326.1092L13053.8153,-3326.0663L13053.796,-3325.9558L13053.761,-3325.7847L13053.7383,-3325.6764L13053.6962,-3325.5261L13053.6544,-3325.3893L13053.6218,-3325.3197L13053.6123,-3325.2766L13053.5969,-3325.233L13053.5603,-3325.1364L13053.5454,-3325.0973L13053.4693,-3324.9213L13053.4541,-3324.8864L13053.3837,-3324.7236L13053.3465,-3324.6368L13053.3232,-3324.5827L13053.3095,-3324.5466L13053.2929,-3324.5078L13053.2787,-3324.4699L13053.2519,-3324.4003L13053.2319,-3324.3441L13053.2148,-3324.2821L13053.2058,-3324.2518L13053.1991,-3324.2221L13053.1921,-3324.1874L13053.1864,-3324.1576L13053.1719,-3324.0872L13053.1573,-3323.9877L13053.1441,-3323.8746L13053.1431,-3323.8615L13053.1411,-3323.8333L13053.1391,-3323.8044L13053.1384,-3323.7938L13053.1346,-3323.7175L13053.1318,-3323.65L13053.1305,-3323.6192L13053.1241,-3323.4639L13053.1203,-3323.4109L13053.1154,-3323.3408L13053.1097,-3323.2407L13053.0992,-3323.1597L13053.0897,-3323.0901L13053.0867,-3323.0748L13053.0795,-3323.0377L13053.0792,-3323.0357L13053.062,-3322.968L13053.0458,-3322.9108L13053.0416,-3322.898L13053.0231,-3322.8452L13053.0156,-3322.8252L13052.9939,-3322.7668L13052.9793,-3322.7328L13052.9586,-3322.6821L13052.9312,-3322.6219L13052.9213,-3322.6015L13052.901,-3322.561L13052.8777,-3322.5141L13052.8399,-3322.4484L13052.8192,-3322.4126L13052.8014,-3322.3816L13052.7335,-3322.2656"/>
<path content="1,西日本鉄道（株）,福岡～熊本（植木ＩＣ経由）,34.0,34.0,34.0," xlink:title="1" d="M13053.9057,-3326.6602L13053.9009,-3326.6387L13053.8758,-3326.4901L13053.8492,-3326.2966L13053.8459,-3326.2763L13053.8439,-3326.2636L13053.8313,-3326.1717L13053.8298,-3326.1608L13053.8263,-3326.1348L13053.8228,-3326.1092L13053.8153,-3326.0663L13053.796,-3325.9558L13053.761,-3325.7847L13053.7383,-3325.6764L13053.6962,-3325.5261L13053.6544,-3325.3893L13053.6218,-3325.3197L13053.6123,-3325.2766L13053.5969,-3325.233L13053.5603,-3325.1364L13053.5454,-3325.0973L13053.4693,-3324.9213L13053.4541,-3324.8864L13053.3837,-3324.7236L13053.3465,-3324.6368L13053.3232,-3324.5827L13053.3095,-3324.5466L13053.2929,-3324.5078L13053.2787,-3324.4699L13053.2519,-3324.4003L13053.2319,-3324.3441L13053.2148,-3324.2821L13053.2058,-3324.2518L13053.1991,-3324.2221L13053.1921,-3324.1874L13053.1864,-3324.1576L13053.1719,-3324.0872L13053.1573,-3323.9877L13053.1441,-3323.8746L13053.1431,-3323.8615L13053.1411,-3323.8333L13053.1391,-3323.8044L13053.1384,-3323.7938L13053.1346,-3323.7175L13053.1318,-3323.65L13053.1305,-3323.6192L13053.1241,-3323.4639L13053.1203,-3323.4109L13053.1154,-3323.3408L13053.1097,-3323.2407L13053.0992,-3323.1597L13053.0897,-3323.0901L13053.0867,-3323.0748L13053.0795,-3323.0377L13053.0792,-3323.0357L13053.062,-3322.968L13053.0458,-3322.9108L13053.0416,-3322.898L13053.0231,-3322.8452L13053.0156,-3322.8252L13052.9939,-3322.7668L13052.9793,-3322.7328L13052.9586,-3322.6821L13052.9312,-3322.6219L13052.9213,-3322.6015L13052.901,-3322.561L13052.8777,-3322.5141L13052.8399,-3322.4484L13052.8192,-3322.4126L13052.8014,-3322.3816L13052.7335,-3322.2656"/>
<path content="1,西肥自動車（株）,ハウステンボス・佐世保～熊本,6.0,6.0,6.0," xlink:title="1" d="M13052.7335,-3322.2656L13052.8014,-3322.3816L13052.8192,-3322.4126L13052.8399,-3322.4484L13052.8777,-3322.5141L13052.901,-3322.561L13052.9213,-3322.6015L13052.9312,-3322.6219L13052.9586,-3322.6821L13052.9793,-3322.7328L13052.9939,-3322.7668L13053.0156,-3322.8252L13053.0231,-3322.8452L13053.0416,-3322.898L13053.0458,-3322.9108L13053.062,-3322.968L13053.0792,-3323.0357L13053.0795,-3323.0377L13053.0867,-3323.0748L13053.0897,-3323.0901L13053.0992,-3323.1597L13053.1097,-3323.2407L13053.1154,-3323.3408L13053.1203,-3323.4109L13053.1241,-3323.4639L13053.1305,-3323.6192L13053.1318,-3323.65L13053.1346,-3323.7175L13053.1384,-3323.7938L13053.1391,-3323.8044L13053.1411,-3323.8333L13053.1431,-3323.8615L13053.1441,-3323.8746L13053.1573,-3323.9877L13053.1719,-3324.0872L13053.1864,-3324.1576L13053.1921,-3324.1874L13053.1991,-3324.2221L13053.2058,-3324.2518L13053.2148,-3324.2821L13053.2319,-3324.3441L13053.2519,-3324.4003L13053.2787,-3324.4699L13053.2929,-3324.5078L13053.3095,-3324.5466L13053.3232,-3324.5827L13053.3465,-3324.6368L13053.3837,-3324.7236L13053.4541,-3324.8864L13053.4693,-3324.9213L13053.5454,-3325.0973L13053.5603,-3325.1364L13053.5969,-3325.233L13053.6123,-3325.2766L13053.6218,-3325.3197L13053.6544,-3325.3893L13053.6962,-3325.5261L13053.7383,-3325.6764L13053.761,-3325.7847L13053.796,-3325.9558L13053.8153,-3326.0663L13053.8228,-3326.1092L13053.8263,-3326.1348L13053.8298,-3326.1608L13053.8313,-3326.1717L13053.8439,-3326.2636L13053.8459,-3326.2763L13053.8492,-3326.2966L13053.8758,-3326.4901L13053.9009,-3326.6387L13053.9057,-3326.6602"/>
<path content="1,西鉄バス久留米（株）,30,19.0,19.5,17.0," xlink:title="1" d="M13055.7987,-3322.2656L13055.7981,-3322.2674"/>
<path content="1,西鉄バス久留米（株）,30,19.0,19.5,17.0," xlink:title="1" d="M13055.7981,-3322.2674L13055.8783,-3322.273"/>
<path content="1,西鉄バス久留米（株）,30,19.0,19.5,17.0," xlink:title="1" d="M13053.9138,-3326.6602L13053.9555,-3326.5205L13053.9758,-3326.4256L13053.9843,-3326.3793L13053.9865,-3326.3262L13053.9877,-3326.2974L13053.9856,-3326.1319L13053.9829,-3325.8725L13053.9812,-3325.7574L13053.9912,-3325.6505L13053.997,-3325.6128L13054.0053,-3325.5646L13054.0086,-3325.5381L13054.0136,-3325.5164L13054.0198,-3325.4981L13054.0334,-3325.4715L13054.141,-3325.2829L13054.2011,-3325.1737L13054.2081,-3325.1704L13054.2265,-3325.1255L13054.3139,-3325.0075L13054.3535,-3324.9622L13054.3808,-3324.9349L13054.3973,-3324.917L13054.4102,-3324.9013L13054.4172,-3324.8882L13054.4185,-3324.8631L13054.4163,-3324.8452L13054.41,-3324.825L13054.375,-3324.7529L13054.366,-3324.7301L13054.3625,-3324.7118L13054.3629,-3324.6957L13054.3676,-3324.68L13054.3743,-3324.6677L13054.5926,-3324.4016L13054.677,-3324.2974L13054.6911,-3324.2781L13054.7192,-3324.2514L13054.8462,-3324.0967L13055.0565,-3323.8381L13055.0835,-3323.8059L13055.1828,-3323.678L13055.2721,-3323.5765L13055.3666,-3323.4539L13055.4072,-3323.3933L13055.4596,-3323.3242L13055.491,-3323.27L13055.5184,-3323.2237L13055.5264,-3323.2084L13055.5282,-3323.1916L13055.5281,-3323.1344L13055.53,-3323.0921L13055.5333,-3323.0701L13055.5523,-3322.9789L13055.5675,-3322.9015L13055.5739,-3322.8754L13055.594,-3322.8074L13055.5982,-3322.7839L13055.6181,-3322.7379L13055.6263,-3322.717L13055.6471,-3322.6567L13055.6608,-3322.6217L13055.6664,-3322.6135L13055.6832,-3322.5659L13055.7345,-3322.4305L13055.7564,-3322.3704L13055.7981,-3322.2674"/>
<path content="1,西鉄バス久留米（株）,31,75.0,57.5,54.0," xlink:title="1" d="M13055.7987,-3322.2656L13055.7981,-3322.2674"/>
<path content="1,西鉄バス久留米（株）,31,75.0,57.5,54.0," xlink:title="1" d="M13055.7981,-3322.2674L13055.8783,-3322.273"/>
<path content="1,西鉄バス久留米（株）,31,75.0,57.5,54.0," xlink:title="1" d="M13053.9138,-3326.6602L13053.9555,-3326.5205L13053.9758,-3326.4256L13053.9843,-3326.3793L13053.9865,-3326.3262L13053.9877,-3326.2974L13053.9856,-3326.1319L13053.9829,-3325.8725L13053.9812,-3325.7574L13053.9912,-3325.6505L13053.997,-3325.6128L13054.0053,-3325.5646L13054.0086,-3325.5381L13054.0136,-3325.5164L13054.0198,-3325.4981L13054.0334,-3325.4715L13054.141,-3325.2829L13054.2011,-3325.1737L13054.2081,-3325.1704L13054.2265,-3325.1255L13054.3139,-3325.0075L13054.3535,-3324.9622L13054.3808,-3324.9349L13054.3973,-3324.917L13054.4102,-3324.9013L13054.4172,-3324.8882L13054.4185,-3324.8631L13054.4163,-3324.8452L13054.41,-3324.825L13054.375,-3324.7529L13054.366,-3324.7301L13054.3625,-3324.7118L13054.3629,-3324.6957L13054.3676,-3324.68L13054.3743,-3324.6677L13054.5926,-3324.4016L13054.677,-3324.2974L13054.6911,-3324.2781L13054.7192,-3324.2514L13054.8462,-3324.0967L13055.0565,-3323.8381L13055.0835,-3323.8059L13055.1828,-3323.678L13055.2721,-3323.5765L13055.3666,-3323.4539L13055.4072,-3323.3933L13055.4596,-3323.3242L13055.491,-3323.27L13055.5184,-3323.2237L13055.5264,-3323.2084L13055.5282,-3323.1916L13055.5281,-3323.1344L13055.53,-3323.0921L13055.5333,-3323.0701L13055.5523,-3322.9789L13055.5675,-3322.9015L13055.5739,-3322.8754L13055.594,-3322.8074L13055.5982,-3322.7839L13055.6181,-3322.7379L13055.6263,-3322.717L13055.6471,-3322.6567L13055.6608,-3322.6217L13055.6664,-3322.6135L13055.6832,-3322.5659L13055.7345,-3322.4305L13055.7564,-3322.3704L13055.7981,-3322.2674"/>
<path content="1,近鉄バス（株）,京都・大阪⇔熊本,1.0,1.0,1.0," xlink:title="1" d="M13053.9057,-3326.6602L13053.9009,-3326.6387L13053.8758,-3326.4901L13053.8492,-3326.2966L13053.8459,-3326.2763L13053.8439,-3326.2636L13053.8313,-3326.1717L13053.8298,-3326.1608L13053.8263,-3326.1348L13053.8228,-3326.1092L13053.8153,-3326.0663L13053.796,-3325.9558L13053.761,-3325.7847L13053.7383,-3325.6764L13053.6962,-3325.5261L13053.6544,-3325.3893L13053.6218,-3325.3197L13053.6123,-3325.2766L13053.5969,-3325.233L13053.5603,-3325.1364L13053.5454,-3325.0973L13053.4693,-3324.9213L13053.4541,-3324.8864L13053.3837,-3324.7236L13053.3465,-3324.6368L13053.3232,-3324.5827L13053.3095,-3324.5466L13053.2929,-3324.5078L13053.2787,-3324.4699L13053.2519,-3324.4003L13053.2319,-3324.3441L13053.2148,-3324.2821L13053.2058,-3324.2518L13053.1991,-3324.2221L13053.1921,-3324.1874L13053.1864,-3324.1576L13053.1719,-3324.0872L13053.1573,-3323.9877L13053.1441,-3323.8746L13053.1431,-3323.8615L13053.1411,-3323.8333L13053.1391,-3323.8044L13053.1384,-3323.7938L13053.1346,-3323.7175L13053.1318,-3323.65L13053.1305,-3323.6192L13053.1241,-3323.4639L13053.1203,-3323.4109L13053.1154,-3323.3408L13053.1097,-3323.2407L13053.0992,-3323.1597L13053.0897,-3323.0901L13053.0867,-3323.0748L13053.0795,-3323.0377L13053.0792,-3323.0357L13053.062,-3322.968L13053.0458,-3322.9108L13053.0416,-3322.898L13053.0231,-3322.8452L13053.0156,-3322.8252L13052.9939,-3322.7668L13052.9793,-3322.7328L13052.9586,-3322.6821L13052.9312,-3322.6219L13052.9213,-3322.6015L13052.901,-3322.561L13052.8777,-3322.5141L13052.8399,-3322.4484L13052.8192,-3322.4126L13052.8014,-3322.3816L13052.7335,-3322.2656"/>
<path content="1,近鉄バス（株）,京都・大阪・神戸⇔宮崎,1.0,1.0,1.0," xlink:title="1" d="M13052.7335,-3322.2656L13052.8014,-3322.3816L13052.8192,-3322.4126L13052.8399,-3322.4484L13052.8777,-3322.5141L13052.901,-3322.561L13052.9213,-3322.6015L13052.9312,-3322.6219L13052.9586,-3322.6821L13052.9793,-3322.7328L13052.9939,-3322.7668L13053.0156,-3322.8252L13053.0231,-3322.8452L13053.0416,-3322.898L13053.0458,-3322.9108L13053.062,-3322.968L13053.0792,-3323.0357L13053.0795,-3323.0377L13053.0867,-3323.0748L13053.0897,-3323.0901L13053.0992,-3323.1597L13053.1097,-3323.2407L13053.1154,-3323.3408L13053.1203,-3323.4109L13053.1241,-3323.4639L13053.1305,-3323.6192L13053.1318,-3323.65L13053.1346,-3323.7175L13053.1384,-3323.7938L13053.1391,-3323.8044L13053.1411,-3323.8333L13053.1431,-3323.8615L13053.1441,-3323.8746L13053.1573,-3323.9877L13053.1719,-3324.0872L13053.1864,-3324.1576L13053.1921,-3324.1874L13053.1991,-3324.2221L13053.2058,-3324.2518L13053.2148,-3324.2821L13053.2319,-3324.3441L13053.2519,-3324.4003L13053.2787,-3324.4699L13053.2929,-3324.5078L13053.3095,-3324.5466L13053.3232,-3324.5827L13053.3465,-3324.6368L13053.3837,-3324.7236L13053.4541,-3324.8864L13053.4693,-3324.9213L13053.5454,-3325.0973L13053.5603,-3325.1364L13053.5969,-3325.233L13053.6123,-3325.2766L13053.6218,-3325.3197L13053.6544,-3325.3893L13053.6962,-3325.5261L13053.7383,-3325.6764L13053.761,-3325.7847L13053.796,-3325.9558L13053.8153,-3326.0663L13053.8228,-3326.1092L13053.8263,-3326.1348L13053.8298,-3326.1608L13053.8313,-3326.1717L13053.8439,-3326.2636L13053.8459,-3326.2763L13053.8492,-3326.2966L13053.8758,-3326.4901L13053.9009,-3326.6387L13053.9057,-3326.6602"/>
<path content="1,近鉄バス（株）,大阪⇔鹿児島,1.0,1.0,1.0," xlink:title="1" d="M13052.7335,-3322.2656L13052.8014,-3322.3816L13052.8192,-3322.4126L13052.8399,-3322.4484L13052.8777,-3322.5141L13052.901,-3322.561L13052.9213,-3322.6015L13052.9312,-3322.6219L13052.9586,-3322.6821L13052.9793,-3322.7328L13052.9939,-3322.7668L13053.0156,-3322.8252L13053.0231,-3322.8452L13053.0416,-3322.898L13053.0458,-3322.9108L13053.062,-3322.968L13053.0792,-3323.0357L13053.0795,-3323.0377L13053.0867,-3323.0748L13053.0897,-3323.0901L13053.0992,-3323.1597L13053.1097,-3323.2407L13053.1154,-3323.3408L13053.1203,-3323.4109L13053.1241,-3323.4639L13053.1305,-3323.6192L13053.1318,-3323.65L13053.1346,-3323.7175L13053.1384,-3323.7938L13053.1391,-3323.8044L13053.1411,-3323.8333L13053.1431,-3323.8615L13053.1441,-3323.8746L13053.1573,-3323.9877L13053.1719,-3324.0872L13053.1864,-3324.1576L13053.1921,-3324.1874L13053.1991,-3324.2221L13053.2058,-3324.2518L13053.2148,-3324.2821L13053.2319,-3324.3441L13053.2519,-3324.4003L13053.2787,-3324.4699L13053.2929,-3324.5078L13053.3095,-3324.5466L13053.3232,-3324.5827L13053.3465,-3324.6368L13053.3837,-3324.7236L13053.4541,-3324.8864L13053.4693,-3324.9213L13053.5454,-3325.0973L13053.5603,-3325.1364L13053.5969,-3325.233L13053.6123,-3325.2766L13053.6195,-3325.283L13053.6255,-3325.2928L13053.6372,-3325.3326L13053.6962,-3325.5261L13053.7383,-3325.6764L13053.761,-3325.7847L13053.796,-3325.9558L13053.8153,-3326.0663L13053.8228,-3326.1092L13053.8263,-3326.1348L13053.8298,-3326.1608L13053.8313,-3326.1717L13053.8439,-3326.2636L13053.8459,-3326.2763L13053.8492,-3326.2966L13053.8758,-3326.4901L13053.9009,-3326.6387L13053.9057,-3326.6602"/>
<path content="1,阪急観光バス（株）,鹿児島行（さつま号）,1.0,1.0,1.0," xlink:title="1" d="M13052.7335,-3322.2656L13052.8014,-3322.3816L13052.8192,-3322.4126L13052.8399,-3322.4484L13052.8777,-3322.5141L13052.901,-3322.561L13052.9213,-3322.6015L13052.9312,-3322.6219L13052.9586,-3322.6821L13052.9793,-3322.7328L13052.9939,-3322.7668L13053.0156,-3322.8252L13053.0231,-3322.8452L13053.0416,-3322.898L13053.0458,-3322.9108L13053.062,-3322.968L13053.0792,-3323.0357L13053.0795,-3323.0377L13053.0867,-3323.0748L13053.0897,-3323.0901L13053.0992,-3323.1597L13053.1097,-3323.2407L13053.1154,-3323.3408L13053.1203,-3323.4109L13053.1241,-3323.4639L13053.1305,-3323.6192L13053.1318,-3323.65L13053.1346,-3323.7175L13053.1384,-3323.7938L13053.1391,-3323.8044L13053.1411,-3323.8333L13053.1431,-3323.8615L13053.1441,-3323.8746L13053.1573,-3323.9877L13053.1719,-3324.0872L13053.1864,-3324.1576L13053.1921,-3324.1874L13053.1991,-3324.2221L13053.2058,-3324.2518L13053.2148,-3324.2821L13053.2319,-3324.3441L13053.2519,-3324.4003L13053.2787,-3324.4699L13053.2929,-3324.5078L13053.3095,-3324.5466L13053.3232,-3324.5827L13053.3465,-3324.6368L13053.3837,-3324.7236L13053.4541,-3324.8864L13053.4693,-3324.9213L13053.5454,-3325.0973L13053.5603,-3325.1364L13053.5969,-3325.233L13053.6123,-3325.2766L13053.6218,-3325.3197L13053.6544,-3325.3893L13053.6962,-3325.5261L13053.7383,-3325.6764L13053.761,-3325.7847L13053.796,-3325.9558L13053.8153,-3326.0663L13053.8228,-3326.1092L13053.8263,-3326.1348L13053.8298,-3326.1608L13053.8313,-3326.1717L13053.8439,-3326.2636L13053.8459,-3326.2763L13053.8492,-3326.2966L13053.8758,-3326.4901L13053.9009,-3326.6387L13053.9057,-3326.6602"/>
<path content="2,長崎県,高速バス長崎～熊本（りんどう号）,8.0,8.0,8.0," xlink:title="2" d="M13052.7335,-3322.2656L13052.8014,-3322.3816L13052.8192,-3322.4126L13052.8399,-3322.4484L13052.8777,-3322.5141L13052.901,-3322.561L13052.9213,-3322.6015L13052.9312,-3322.6219L13052.9586,-3322.6821L13052.9793,-3322.7328L13052.9939,-3322.7668L13053.0156,-3322.8252L13053.0231,-3322.8452L13053.0416,-3322.898L13053.0458,-3322.9108L13053.062,-3322.968L13053.0792,-3323.0357L13053.0795,-3323.0377L13053.0867,-3323.0748L13053.0897,-3323.0901L13053.0992,-3323.1597L13053.1097,-3323.2407L13053.1154,-3323.3408L13053.1203,-3323.4109L13053.1241,-3323.4639L13053.1305,-3323.6192L13053.1318,-3323.65L13053.1346,-3323.7175L13053.1384,-3323.7938L13053.1391,-3323.8044L13053.1411,-3323.8333L13053.1431,-3323.8615L13053.1441,-3323.8746L13053.1573,-3323.9877L13053.1719,-3324.0872L13053.1864,-3324.1576L13053.1921,-3324.1874L13053.1991,-3324.2221L13053.2058,-3324.2518L13053.2148,-3324.2821L13053.2319,-3324.3441L13053.2519,-3324.4003L13053.2787,-3324.4699L13053.2929,-3324.5078L13053.3095,-3324.5466L13053.3232,-3324.5827L13053.3465,-3324.6368L13053.3837,-3324.7236L13053.4541,-3324.8864L13053.4693,-3324.9213L13053.5454,-3325.0973L13053.5603,-3325.1364L13053.5969,-3325.233L13053.6123,-3325.2766L13053.6218,-3325.3197L13053.6544,-3325.3893L13053.6962,-3325.5261L13053.7383,-3325.6764L13053.761,-3325.7847L13053.796,-3325.9558L13053.8153,-3326.0663L13053.8228,-3326.1092L13053.8263,-3326.1348L13053.8298,-3326.1608L13053.8313,-3326.1717L13053.8439,-3326.2636L13053.8459,-3326.2763L13053.8492,-3326.2966L13053.8758,-3326.4901L13053.9009,-3326.6387L13053.9057,-3326.6602"/>
<path content="3,八女市,岡山・長峰方面,0.6,1.5,0.0," xlink:title="3" d="M13055.7987,-3322.2656L13055.7981,-3322.2674L13055.7564,-3322.3704L13055.7345,-3322.4305L13055.6832,-3322.5659L13055.6664,-3322.6135L13055.6608,-3322.6217"/>
<path content="3,八女市,岡山・長峰方面,0.6,1.5,0.0," xlink:title="3" d="M13055.6608,-3322.6217L13055.6471,-3322.6567"/>
<path content="3,八女市,岡山・長峰方面,0.6,1.5,0.0," xlink:title="3" d="M13055.6608,-3322.6217L13055.7537,-3322.6184L13055.8157,-3322.6148L13055.9098,-3322.6135L13056.0232,-3322.6204L13056.1523,-3322.6215"/>
<path content="3,八女市,岡山・長峰方面,0.6,1.5,0.0," xlink:title="3" d="M13055.6471,-3322.6567L13055.6263,-3322.717L13055.6181,-3322.7379L13055.5761,-3322.7371L13055.5175,-3322.7325L13055.4789,-3322.7318L13055.4372,-3322.7307L13055.3913,-3322.73L13055.3416,-3322.7351L13055.3234,-3322.7394L13055.3015,-3322.7478L13055.2807,-3322.7606"/>
<path content="3,八女市,岡山・長峰方面,0.6,1.5,0.0," xlink:title="3" d="M13055.6471,-3322.6567L13055.6067,-3322.5995L13055.5599,-3322.5238L13055.4818,-3322.3985L13055.458,-3322.3562L13055.4392,-3322.3309L13055.4291,-3322.3211L13055.4193,-3322.3145L13055.408,-3322.304L13055.3971,-3322.2929L13055.3865,-3322.2798L13055.3764,-3322.2656M13054.9588,-3322.2656L13054.9591,-3322.2663L13054.9622,-3322.2807L13054.9572,-3322.327L13054.9591,-3322.348L13054.9657,-3322.3693L13054.9896,-3322.467L13055.0079,-3322.5651L13055.0196,-3322.6162L13055.0204,-3322.6284L13055.0204,-3322.6425L13055.0083,-3322.6815L13055.0036,-3322.7107L13055.0021,-3322.7292L13054.9633,-3322.7274L13054.9252,-3322.7261L13054.8802,-3322.7266L13054.7865,-3322.725L13054.767,-3322.7233L13054.7474,-3322.7197L13054.6346,-3322.6961L13054.58,-3322.6846L13054.5214,-3322.6753L13054.5043,-3322.6735L13054.4804,-3322.6748L13054.4389,-3322.683L13054.4065,-3322.6928L13054.3709,-3322.705L13054.2862,-3322.7437L13054.2367,-3322.7704L13054.2099,-3322.7866L13054.1879,-3322.7961L13054.1568,-3322.8065L13054.1254,-3322.814L13054.0858,-3322.8235L13054.0573,-3322.8299L13053.9755,-3322.8484L13053.892,-3322.8675L13053.8663,-3322.8719L13053.8016,-3322.8878L13053.6508,-3322.9232L13053.6286,-3322.9278L13053.6177,-3322.9252L13053.6122,-3322.9173L13053.5876,-3322.8583L13053.5849,-3322.8399L13053.5868,-3322.8147L13053.5907,-3322.7989L13053.6032,-3322.7769L13053.6434,-3322.7143L13053.7074,-3322.6133L13053.7304,-3322.5808L13053.7068,-3322.5203L13053.6812,-3322.4518L13053.6476,-3322.3659L13053.6079,-3322.2656"/>
</g>
</svg>
