<?xml version="1.0" encoding="UTF-8"?>
<svg  xmlns="http://www.w3.org/2000/svg" xmlns:xlink="http://www.w3.org/1999/xlink" xmlns:go="http://purl.org/svgmap/profile" property="N07_001,N07_002,N07_003,N07_004,N07_005,N07_006,N07_007" viewBox="13801.025390625 -3478.271484375 1.0986328125 1.0986328125" go:dataArea="13801.025390625 -3478.271484375 1.0986328125 1.0986328125" >
<metadata>
 <rdf:RDF xmlns:rdf="http://www.w3.org/1999/02/22-rdf-syntax-ns#" xmlns:crs="http://opengis.org/xmldtds/transformations.dtd" xmlns:svg="http://www.w3.org/svg" >
  <rdf:Description>
   <crs:CoordinateReferenceSystem rdf:resource="http://purl.org/crs/84" svg:transform="matrix(100.0,0.0,0.0,-100.0,0.0,0.0)" />
  </rdf:Description>
 </rdf:RDF>
</metadata>
<globalCoordinateSystem srsName="http://purl.org/crs/84" transform="matrix(100.0,0.0,0.0,-100.0,0.0,0.0)" />
<defs>
 <g id="p0" >
  <circle cx="0.0" cy="0.0" r="3" stroke="green" stroke-width="0.75" vector-effect="non-scaling-stroke" />
 </g>
</defs>
<g fill="none" fill-rule="evenodd" stroke="#FF00FF" stroke-width="0.75" opacity="0.5" vector-effect="non-scaling-stroke" stroke-linejoin="bevel" >
<path content="1,しずてつジャストライン（株）,大坂線_02_on,17.5,10.0,10.0," xlink:title="1" d="M13801.5388,-3477.1729L13801.5351,-3477.2114L13801.5312,-3477.2812L13801.6582,-3477.287L13801.6841,-3477.2875L13801.7108,-3477.2892L13801.7251,-3477.2892L13801.8408,-3477.2952L13801.8643,-3477.2966L13801.8691,-3477.2301L13801.8691,-3477.2228L13801.8718,-3477.1788L13801.8721,-3477.1729"/>
<path content="1,掛川バスサービス（株）,倉真線,9.0,6.0,6.0," xlink:title="1" d="M13801.356,-3477.2761L13801.3557,-3477.1729"/>
<path content="1,掛川バスサービス（株）,倉真線,9.0,6.0,6.0," xlink:title="1" d="M13801.356,-3477.2761L13801.5312,-3477.2812L13801.5351,-3477.2114L13801.5388,-3477.1729"/>
<path content="1,掛川バスサービス（株）,倉真線,9.0,6.0,6.0," xlink:title="1" d="M13801.3271,-3478.2715L13801.3277,-3478.263L13801.3591,-3477.7916L13801.3665,-3477.7289L13801.373,-3477.6997L13801.3751,-3477.6715L13801.3745,-3477.6502L13801.3717,-3477.6367L13801.3676,-3477.6136L13801.3635,-3477.5978L13801.3594,-3477.5815L13801.3485,-3477.5578L13801.3444,-3477.5426L13801.3416,-3477.5156L13801.3445,-3477.4458L13801.3454,-3477.4336L13801.3479,-3477.4005L13801.3539,-3477.3196L13801.356,-3477.2761"/>
<path content="1,掛川バスサービス（株）,居尻線,8.0,6.0,6.0," xlink:title="1" d="M13801.356,-3477.2761L13801.3557,-3477.1729"/>
<path content="1,掛川バスサービス（株）,居尻線,8.0,6.0,6.0," xlink:title="1" d="M13801.356,-3477.2761L13801.5312,-3477.2812L13801.5351,-3477.2114L13801.5388,-3477.1729"/>
<path content="1,掛川バスサービス（株）,居尻線,8.0,6.0,6.0," xlink:title="1" d="M13801.3271,-3478.2715L13801.3277,-3478.263L13801.3591,-3477.7916L13801.3665,-3477.7289L13801.373,-3477.6997L13801.3751,-3477.6715L13801.3745,-3477.6502L13801.3717,-3477.6367L13801.3676,-3477.6136L13801.3635,-3477.5978L13801.3594,-3477.5815L13801.3485,-3477.5578L13801.3444,-3477.5426L13801.3416,-3477.5156L13801.3445,-3477.4458L13801.3454,-3477.4336L13801.3479,-3477.4005L13801.3539,-3477.3196L13801.356,-3477.2761"/>
<path content="1,掛川バスサービス（株）,東山線,8.0,7.0,7.0," xlink:title="1" d="M13801.3557,-3477.1729L13801.356,-3477.2761L13801.5312,-3477.2812"/>
<path content="1,掛川バスサービス（株）,東山線,8.0,7.0,7.0," xlink:title="1" d="M13801.5388,-3477.1729L13801.5351,-3477.2114L13801.5312,-3477.2812"/>
<path content="1,掛川バスサービス（株）,東山線,8.0,7.0,7.0," xlink:title="1" d="M13801.5312,-3477.2812L13801.6582,-3477.287L13801.6841,-3477.2875L13801.7108,-3477.2892L13801.7251,-3477.2892L13801.8408,-3477.2952L13801.8643,-3477.2966L13801.8765,-3477.2994L13801.9263,-3477.3011L13801.9516,-3477.3027L13801.9966,-3477.3044L13802.0205,-3477.305L13802.0505,-3477.3067L13802.0753,-3477.3065L13802.0799,-3477.2255L13802.1209,-3477.2268L13802.124,-3477.227"/>
<path content="1,掛川バスサービス（株）,桜木線,8.0,5.0,5.0," xlink:title="1" d="M13801.5388,-3477.1729L13801.5351,-3477.2114L13801.5312,-3477.2812L13801.356,-3477.2761"/>
<path content="1,掛川バスサービス（株）,桜木線,8.0,5.0,5.0," xlink:title="1" d="M13801.356,-3477.2761L13801.356,-3477.2081L13801.3557,-3477.1729"/>
<path content="1,掛川バスサービス（株）,桜木線,8.0,5.0,5.0," xlink:title="1" d="M13801.0254,-3477.6555L13801.0715,-3477.6609L13801.1302,-3477.6716L13801.182,-3477.6839L13801.3665,-3477.7289L13801.373,-3477.6997L13801.3751,-3477.6715L13801.3745,-3477.6502L13801.3717,-3477.6367L13801.3676,-3477.6136L13801.3635,-3477.5978L13801.3594,-3477.5815L13801.3485,-3477.5578L13801.3444,-3477.5426L13801.3416,-3477.5156L13801.3445,-3477.4458L13801.3454,-3477.4336L13801.3479,-3477.4005L13801.3539,-3477.3196L13801.356,-3477.2761"/>
<path content="1,掛川バスサービス（株）,粟本線,11.0,9.0,9.0," xlink:title="1" d="M13801.3557,-3477.1729L13801.356,-3477.2761L13801.5312,-3477.2812"/>
<path content="1,掛川バスサービス（株）,粟本線,11.0,9.0,9.0," xlink:title="1" d="M13801.5388,-3477.1729L13801.5351,-3477.2114L13801.5312,-3477.2812"/>
<path content="1,掛川バスサービス（株）,粟本線,11.0,9.0,9.0," xlink:title="1" d="M13801.5312,-3477.2812L13801.5238,-3477.3534L13801.5211,-3477.3771L13801.5912,-3477.3853L13801.8146,-3477.3906L13801.8574,-3477.3906L13801.8538,-3477.4647L13801.8496,-3477.5039L13801.8465,-3477.5578L13801.8444,-3477.5969L13801.8538,-3477.6267L13801.867,-3477.6637L13801.8827,-3477.6924L13801.9154,-3477.7324L13801.9195,-3477.7364L13801.9495,-3477.7639L13801.9543,-3477.7696L13801.9577,-3477.7741L13801.9652,-3477.7893L13801.9739,-3477.8258L13801.9789,-3477.8563L13801.9871,-3477.9357L13802.0034,-3478.0816L13802.0573,-3478.081L13802.099,-3478.0816L13802.124,-3478.0817"/>
<path content="3,掛川市,北回り,17.0,17.0,17.0," xlink:title="3" d="M13801.0254,-3478.0518L13801.0268,-3478.052L13801.0366,-3478.0525L13801.1262,-3478.0569L13801.1656,-3478.0584L13801.2059,-3478.0601L13801.2509,-3478.0618L13801.2857,-3478.0646L13801.3396,-3478.0669L13801.3888,-3478.0698L13801.3956,-3478.0697L13801.4304,-3478.0709L13801.4481,-3478.072L13801.5348,-3478.0765L13801.5852,-3478.0782L13801.6214,-3478.081L13801.6866,-3478.0805L13801.7761,-3478.0819L13801.8281,-3478.081L13801.9466,-3478.0805L13802.0034,-3478.0816L13801.9871,-3477.9357L13801.9857,-3477.9199L13801.9789,-3477.8563L13801.9739,-3477.8258L13801.9653,-3477.7898L13801.9652,-3477.7893L13801.9577,-3477.7741L13801.9543,-3477.7696L13801.9495,-3477.7639L13801.9195,-3477.7364L13801.9154,-3477.7324L13801.8827,-3477.6924L13801.867,-3477.6637L13801.8538,-3477.6267L13801.8444,-3477.5969L13801.8465,-3477.5578L13801.8496,-3477.5039L13801.8538,-3477.4647L13801.8574,-3477.3906L13801.8146,-3477.3906L13801.5912,-3477.3853L13801.5211,-3477.3771L13801.5238,-3477.3534L13801.5312,-3477.2812L13801.5351,-3477.2114L13801.5388,-3477.1729M13801.3557,-3477.1729L13801.356,-3477.2761L13801.1977,-3477.2705L13801.1684,-3477.2695L13801.1581,-3477.2684L13801.064,-3477.2656L13801.0298,-3477.2642L13801.0254,-3477.2638"/>
</g>
</svg>
