<?xml version="1.0" encoding="UTF-8"?>
<svg  xmlns="http://www.w3.org/2000/svg" xmlns:xlink="http://www.w3.org/1999/xlink" xmlns:go="http://purl.org/svgmap/profile" property="N07_001,N07_002,N07_003,N07_004,N07_005,N07_006,N07_007" viewBox="14005.37109375 -3590.33203125 4.39453125 4.39453125" go:dataArea="14005.37109375 -3590.33203125 4.39453125 4.39453125" >
<metadata>
 <rdf:RDF xmlns:rdf="http://www.w3.org/1999/02/22-rdf-syntax-ns#" xmlns:crs="http://opengis.org/xmldtds/transformations.dtd" xmlns:svg="http://www.w3.org/svg" >
  <rdf:Description>
   <crs:CoordinateReferenceSystem rdf:resource="http://purl.org/crs/84" svg:transform="matrix(100.0,0.0,0.0,-100.0,0.0,0.0)" />
  </rdf:Description>
 </rdf:RDF>
</metadata>
<globalCoordinateSystem srsName="http://purl.org/crs/84" transform="matrix(100.0,0.0,0.0,-100.0,0.0,0.0)" />
<defs>
 <g id="p0" >
  <circle cx="0.0" cy="0.0" r="3" stroke="green" stroke-width="0.75" vector-effect="non-scaling-stroke" />
 </g>
</defs>
<g fill="none" fill-rule="evenodd" stroke="#FF00FF" stroke-width="0.75" opacity="0.5" vector-effect="non-scaling-stroke" stroke-linejoin="bevel" >
<path content="1,JRバス関東（株）,（深夜バス）取手駅西口～藤代～かわはら台～土浦駅東口,1.0,0.0,0.0," xlink:title="1" d="M14006.3001,-3589.6547L14006.2923,-3589.6804L14006.2809,-3589.6737L14006.2688,-3589.6666L14006.2561,-3589.6588L14006.1997,-3589.6647L14006.0959,-3589.6715L14006.0606,-3589.6748L14006.0453,-3589.6788L14006.0619,-3589.702L14006.1197,-3589.7821L14006.1451,-3589.8263L14006.1518,-3589.8405L14006.21,-3589.9372L14006.2289,-3589.9706L14006.2359,-3589.9839L14006.2374,-3589.9868L14006.2464,-3590.0041L14006.3225,-3590.1382L14006.3359,-3590.1614L14006.3562,-3590.189L14006.3656,-3590.2008L14006.3791,-3590.2175L14006.4003,-3590.2372L14006.4073,-3590.248L14006.4165,-3590.2512L14006.4419,-3590.2744L14006.4663,-3590.2957L14006.5061,-3590.332"/>
<path content="1,大利根交通自動車（株）,1,51.0,38.0,38.0," xlink:title="1" d="M14006.3973,-3589.5822L14006.3814,-3589.57L14006.3656,-3589.555L14006.3546,-3589.5406L14006.3511,-3589.5315L14006.3444,-3589.5181L14006.3281,-3589.5003L14006.2966,-3589.4427L14006.2904,-3589.4326L14006.2468,-3589.3519L14006.2267,-3589.3159L14006.235,-3589.3125L14006.2433,-3589.3097L14006.2765,-3589.2945L14006.343,-3589.2663L14006.3561,-3589.2596L14006.3776,-3589.246L14006.4267,-3589.2049L14006.4785,-3589.1632L14006.4918,-3589.1508L14006.6136,-3589.0516L14006.6309,-3589.0398L14006.6503,-3589.0313L14006.6724,-3589.0212L14006.6842,-3589.0153L14006.6963,-3589.013L14006.7119,-3588.9986L14006.734,-3588.9806L14006.7527,-3588.9671L14006.7908,-3588.9434L14006.8109,-3588.9338L14006.8358,-3588.9237L14006.8503,-3588.9141L14006.905,-3588.873L14006.9188,-3588.8651L14006.9223,-3588.8622L14006.9424,-3588.8504L14006.9617,-3588.8409L14007.0037,-3588.8329L14007.0282,-3588.8228L14007.0586,-3588.8251L14007.1112,-3588.8364L14007.1846,-3588.8516L14007.2331,-3588.8623L14007.2372,-3588.8628L14007.2537,-3588.871L14007.2614,-3588.8685L14007.3299,-3588.8831L14007.3645,-3588.8899L14007.3805,-3588.8933L14007.3915,-3588.8955L14007.4614,-3588.9096L14007.4954,-3588.9175L14007.5158,-3588.9253L14007.5237,-3588.913L14007.5452,-3588.891L14007.5715,-3588.8702L14007.586,-3588.8612L14007.6033,-3588.851L14007.6248,-3588.842L14007.6504,-3588.8364L14007.6641,-3588.8357L14007.6834,-3588.8256L14007.6933,-3588.8234L14007.8338,-3588.7839L14007.9266,-3588.76L14007.957,-3588.7479L14007.9856,-3588.7393L14008.0198,-3588.7265L14008.0497,-3588.7201L14008.094,-3588.7152L14008.1162,-3588.7146L14008.2587,-3588.7203L14008.2719,-3588.7214L14008.3155,-3588.7225L14008.4228,-3588.7271L14008.4996,-3588.7355L14008.5107,-3588.7378L14008.5197,-3588.7389L14008.5369,-3588.7429L14008.5841,-3588.7537L14008.6456,-3588.7766L14008.6851,-3588.7952L14008.719,-3588.8149L14008.8159,-3588.8707L14008.8194,-3588.873L14008.8439,-3588.8872L14008.9052,-3588.9226L14008.9397,-3588.9461L14008.9682,-3588.9604L14008.9813,-3588.9671L14009.0035,-3588.9806L14009.0588,-3589.0128L14009.0955,-3589.033L14009.1384,-3589.0563L14009.1549,-3589.0617L14009.1665,-3589.0631L14009.1769,-3589.0617L14009.1872,-3589.0597L14009.1982,-3589.0547L14009.2201,-3589.0443L14009.2395,-3589.0364L14009.2872,-3589.0195L14009.3098,-3589.0139L14009.3205,-3589.0094L14009.3474,-3589.0054L14009.3549,-3589.0054L14009.4007,-3589.0054L14009.4359,-3589.008L14009.4965,-3589.0134L14009.505,-3589.0139L14009.5592,-3589.019L14009.586,-3589.0204L14009.6021,-3589.0212L14009.6848,-3589.0229L14009.7316,-3589.0212L14009.7461,-3589.0173L14009.7656,-3589.0081"/>
<path content="1,大利根交通自動車（株）,11,0.0,1.0,1.0," xlink:title="1" d="M14006.3973,-3589.5822L14006.3814,-3589.57L14006.3656,-3589.555L14006.3546,-3589.5406L14006.3511,-3589.5315L14006.3444,-3589.5181L14006.3281,-3589.5003L14006.2966,-3589.4427L14006.2904,-3589.4326L14006.2468,-3589.3519L14006.2267,-3589.3159L14006.235,-3589.3125L14006.2433,-3589.3097L14006.2765,-3589.2945L14006.343,-3589.2663L14006.3561,-3589.2596L14006.3776,-3589.246L14006.4267,-3589.2049L14006.4785,-3589.1632L14006.4918,-3589.1508L14006.6136,-3589.0516L14006.6309,-3589.0398L14006.6503,-3589.0313L14006.6724,-3589.0212L14006.6842,-3589.0153L14006.6963,-3589.013L14006.7119,-3588.9986L14006.734,-3588.9806L14006.7527,-3588.9671L14006.7908,-3588.9434L14006.8109,-3588.9338L14006.8358,-3588.9237L14006.8503,-3588.9141L14006.905,-3588.873L14006.9188,-3588.8651L14006.9223,-3588.8622L14006.9424,-3588.8504L14006.9617,-3588.8409L14007.0037,-3588.8329L14007.0282,-3588.8228L14007.0586,-3588.8251L14007.1112,-3588.8364L14007.1846,-3588.8516L14007.2331,-3588.8623L14007.2372,-3588.8628L14007.2537,-3588.871L14007.2614,-3588.8685L14007.3299,-3588.8831L14007.3645,-3588.8899L14007.3805,-3588.8933L14007.3915,-3588.8955L14007.4614,-3588.9096L14007.4954,-3588.9175L14007.5158,-3588.9253L14007.5237,-3588.913L14007.5452,-3588.891L14007.5715,-3588.8702L14007.586,-3588.8612L14007.6033,-3588.851L14007.6248,-3588.842L14007.6504,-3588.8364L14007.6641,-3588.8357L14007.6834,-3588.8256L14007.6933,-3588.8234L14007.8338,-3588.7839L14007.9266,-3588.76L14007.957,-3588.7479L14007.9856,-3588.7393L14008.0198,-3588.7265L14008.0497,-3588.7201L14008.094,-3588.7152L14008.1162,-3588.7146L14008.2587,-3588.7203L14008.2719,-3588.7214L14008.3155,-3588.7225L14008.4228,-3588.7271L14008.4996,-3588.7355L14008.5107,-3588.7378L14008.5197,-3588.7389L14008.5369,-3588.7429L14008.5841,-3588.7537L14008.6456,-3588.7766L14008.6851,-3588.7952L14008.719,-3588.8149L14008.8159,-3588.8707L14008.8194,-3588.873L14008.8439,-3588.8872L14008.9052,-3588.9226L14008.9397,-3588.9461L14008.9682,-3588.9604L14008.9813,-3588.9671L14009.0035,-3588.9806L14009.0588,-3589.0128L14009.0955,-3589.033L14009.1384,-3589.0563L14009.1549,-3589.0617L14009.1665,-3589.0631L14009.1769,-3589.0617L14009.1872,-3589.0597L14009.1982,-3589.0547L14009.2201,-3589.0443L14009.2395,-3589.0364L14009.2872,-3589.0195L14009.3098,-3589.0139L14009.3205,-3589.0094L14009.3474,-3589.0054L14009.3549,-3589.0054L14009.4007,-3589.0054L14009.4359,-3589.008L14009.4965,-3589.0134L14009.505,-3589.0139L14009.5592,-3589.019L14009.586,-3589.0204L14009.6021,-3589.0212L14009.6848,-3589.0229L14009.7316,-3589.0212L14009.7461,-3589.0173L14009.7656,-3589.0081"/>
<path content="1,大利根交通自動車（株）,2,5.0,3.0,3.0," xlink:title="1" d="M14006.3973,-3589.5822L14006.3814,-3589.57L14006.3656,-3589.555L14006.3546,-3589.5406L14006.3511,-3589.5315L14006.3444,-3589.5181L14006.3281,-3589.5003L14006.2966,-3589.4427L14006.2904,-3589.4326L14006.2468,-3589.3519L14006.2267,-3589.3159L14006.235,-3589.3125L14006.2433,-3589.3097L14006.2765,-3589.2945L14006.343,-3589.2663L14006.3561,-3589.2596L14006.3776,-3589.246L14006.4267,-3589.2049L14006.4785,-3589.1632L14006.4918,-3589.1508L14006.6136,-3589.0516L14006.6309,-3589.0398L14006.6503,-3589.0313L14006.6724,-3589.0212L14006.6842,-3589.0153L14006.6963,-3589.013L14006.7119,-3588.9986L14006.734,-3588.9806L14006.7527,-3588.9671L14006.7908,-3588.9434L14006.8109,-3588.9338L14006.8358,-3588.9237L14006.8503,-3588.9141L14006.905,-3588.873L14006.9188,-3588.8651L14006.9223,-3588.8622L14006.9424,-3588.8504L14006.9617,-3588.8409L14007.0037,-3588.8329L14007.0282,-3588.8228L14007.0586,-3588.8251L14007.1112,-3588.8364L14007.1846,-3588.8516L14007.2331,-3588.8623L14007.2372,-3588.8628L14007.2537,-3588.871L14007.2614,-3588.8685L14007.3299,-3588.8831L14007.3645,-3588.8899L14007.3805,-3588.8933L14007.3915,-3588.8955L14007.4614,-3588.9096L14007.4954,-3588.9175L14007.5158,-3588.9253L14007.5237,-3588.913L14007.5452,-3588.891L14007.5715,-3588.8702L14007.586,-3588.8612L14007.6033,-3588.851L14007.6248,-3588.842L14007.6504,-3588.8364L14007.6641,-3588.8357L14007.6834,-3588.8256L14007.6933,-3588.8234L14007.8338,-3588.7839L14007.9266,-3588.76L14007.957,-3588.7479L14007.9856,-3588.7393L14008.0198,-3588.7265L14008.0497,-3588.7201L14008.094,-3588.7152L14008.1162,-3588.7146L14008.2587,-3588.7203L14008.2719,-3588.7214L14008.3155,-3588.7225L14008.4228,-3588.7271L14008.4996,-3588.7355L14008.5107,-3588.7378L14008.5197,-3588.7389L14008.5369,-3588.7429L14008.5841,-3588.7537L14008.6456,-3588.7766L14008.6851,-3588.7952L14008.719,-3588.8149L14008.8159,-3588.8707L14008.8194,-3588.873L14008.8439,-3588.8872L14008.9052,-3588.9226L14008.9397,-3588.9461L14008.9682,-3588.9604L14008.9813,-3588.9671L14009.0035,-3588.9806L14009.0588,-3589.0128L14009.0955,-3589.033L14009.1384,-3589.0563L14009.1549,-3589.0617L14009.1665,-3589.0631L14009.1769,-3589.0617L14009.1872,-3589.0597L14009.1982,-3589.0547L14009.2201,-3589.0443L14009.2395,-3589.0364L14009.2872,-3589.0195L14009.3098,-3589.0139L14009.3205,-3589.0094L14009.3474,-3589.0054L14009.3549,-3589.0054L14009.4007,-3589.0054L14009.4359,-3589.008L14009.4965,-3589.0134L14009.505,-3589.0139L14009.5592,-3589.019L14009.586,-3589.0204L14009.6021,-3589.0212L14009.6848,-3589.0229L14009.7316,-3589.0212L14009.7461,-3589.0173L14009.7656,-3589.0081"/>
<path content="1,大利根交通自動車（株）,3,2.0,0.0,0.0," xlink:title="1" d="M14006.3973,-3589.5822L14006.3814,-3589.57L14006.3656,-3589.555L14006.3546,-3589.5406L14006.3511,-3589.5315L14006.3444,-3589.5181L14006.3281,-3589.5003L14006.2966,-3589.4427L14006.2904,-3589.4326L14006.2468,-3589.3519L14006.2267,-3589.3159L14006.235,-3589.3125L14006.2433,-3589.3097L14006.2765,-3589.2945L14006.343,-3589.2663L14006.3561,-3589.2596L14006.3776,-3589.246L14006.4267,-3589.2049L14006.4785,-3589.1632L14006.4918,-3589.1508L14006.6136,-3589.0516L14006.6309,-3589.0398L14006.6503,-3589.0313L14006.6724,-3589.0212L14006.6842,-3589.0153L14006.6963,-3589.013L14006.7119,-3588.9986L14006.734,-3588.9806L14006.7527,-3588.9671L14006.7908,-3588.9434L14006.8109,-3588.9338L14006.8358,-3588.9237L14006.8503,-3588.9141L14006.905,-3588.873L14006.9188,-3588.8651L14006.9223,-3588.8622L14006.9424,-3588.8504L14006.9617,-3588.8409L14007.0037,-3588.8329L14007.0282,-3588.8228L14007.0586,-3588.8251L14007.1112,-3588.8364L14007.1846,-3588.8516L14007.2331,-3588.8623L14007.2372,-3588.8628L14007.2537,-3588.871L14007.2614,-3588.8685L14007.3299,-3588.8831L14007.3645,-3588.8899L14007.3805,-3588.8933L14007.3915,-3588.8955L14007.4614,-3588.9096L14007.4954,-3588.9175L14007.5158,-3588.9253L14007.5237,-3588.913L14007.5452,-3588.891L14007.5715,-3588.8702L14007.586,-3588.8612L14007.6033,-3588.851L14007.6248,-3588.842L14007.6504,-3588.8364L14007.6641,-3588.8357L14007.6834,-3588.8256L14007.6933,-3588.8234L14007.8338,-3588.7839L14007.9266,-3588.76L14007.957,-3588.7479L14007.9856,-3588.7393L14008.0198,-3588.7265L14008.0497,-3588.7201L14008.094,-3588.7152L14008.1162,-3588.7146L14008.2587,-3588.7203L14008.2719,-3588.7214L14008.3155,-3588.7225L14008.4228,-3588.7271L14008.4996,-3588.7355L14008.5107,-3588.7378L14008.5197,-3588.7389L14008.5369,-3588.7429L14008.5841,-3588.7537L14008.6456,-3588.7766L14008.6851,-3588.7952L14008.719,-3588.8149L14008.8159,-3588.8707L14008.8194,-3588.873L14008.8439,-3588.8872L14008.9052,-3588.9226L14008.9397,-3588.9461L14008.9682,-3588.9604L14008.9813,-3588.9671L14009.0035,-3588.9806L14009.0588,-3589.0128L14009.0955,-3589.033L14009.1384,-3589.0563L14009.1549,-3589.0617L14009.1665,-3589.0631L14009.1769,-3589.0617L14009.1872,-3589.0597L14009.1982,-3589.0547L14009.2201,-3589.0443L14009.2395,-3589.0364L14009.2872,-3589.0195L14009.3098,-3589.0139L14009.3205,-3589.0094L14009.3474,-3589.0054L14009.3549,-3589.0054L14009.4007,-3589.0054L14009.4359,-3589.008L14009.4965,-3589.0134L14009.505,-3589.0139L14009.5592,-3589.019L14009.586,-3589.0204L14009.6021,-3589.0212L14009.6848,-3589.0229L14009.7316,-3589.0212L14009.7461,-3589.0173L14009.7656,-3589.0081"/>
<path content="1,大利根交通自動車（株）,4,8.0,8.0,8.0," xlink:title="1" d="M14009.7656,-3589.0081L14009.7461,-3589.0173L14009.7316,-3589.0212L14009.6848,-3589.0229L14009.6021,-3589.0212L14009.586,-3589.0204L14009.5592,-3589.019L14009.505,-3589.0139L14009.4965,-3589.0134L14009.4359,-3589.008L14009.4007,-3589.0054L14009.3549,-3589.0054L14009.3474,-3589.0054L14009.3205,-3589.0094L14009.3098,-3589.0139L14009.2872,-3589.0195L14009.2395,-3589.0364L14009.2201,-3589.0443L14009.1982,-3589.0547L14009.1872,-3589.0597L14009.1769,-3589.0617L14009.1665,-3589.0631L14009.1549,-3589.0617L14009.1384,-3589.0563L14009.0955,-3589.033L14009.0588,-3589.0128L14009.0035,-3588.9806L14008.9813,-3588.9671L14008.9682,-3588.9604L14008.9397,-3588.9461L14008.9052,-3588.9226L14008.8439,-3588.8872L14008.8194,-3588.873L14008.8159,-3588.8707L14008.719,-3588.8149L14008.6851,-3588.7952L14008.6456,-3588.7766L14008.5841,-3588.7537L14008.5369,-3588.7429L14008.5197,-3588.7389L14008.5107,-3588.7378L14008.4996,-3588.7355L14008.4228,-3588.7271L14008.3155,-3588.7225L14008.2719,-3588.7214L14008.2587,-3588.7203L14008.1162,-3588.7146L14008.094,-3588.7152L14008.0497,-3588.7201L14008.0198,-3588.7265L14007.9856,-3588.7393L14007.957,-3588.7479L14007.9266,-3588.76L14007.8338,-3588.7839L14007.6933,-3588.8234L14007.6834,-3588.8256L14007.6641,-3588.8357L14007.6504,-3588.8364L14007.6248,-3588.842L14007.6033,-3588.851L14007.586,-3588.8612L14007.5715,-3588.8702L14007.5452,-3588.891L14007.5237,-3588.913L14007.5158,-3588.9253L14007.4954,-3588.9175L14007.4614,-3588.9096L14007.3915,-3588.8955L14007.3805,-3588.8933L14007.3645,-3588.8899L14007.3299,-3588.8831L14007.2614,-3588.8685L14007.2537,-3588.871L14007.2372,-3588.8628L14007.2331,-3588.8623L14007.1846,-3588.8516L14007.1112,-3588.8364L14007.0586,-3588.8251L14007.0282,-3588.8228L14007.0037,-3588.8329L14006.9617,-3588.8409L14006.9424,-3588.8504L14006.9223,-3588.8622L14006.9188,-3588.8651L14006.905,-3588.873L14006.8503,-3588.9141L14006.8358,-3588.9237L14006.8109,-3588.9338L14006.7908,-3588.9434L14006.7527,-3588.9671L14006.734,-3588.9806L14006.7119,-3588.9986L14006.6963,-3589.013L14006.6842,-3589.0153L14006.6724,-3589.0212L14006.6503,-3589.0313L14006.6309,-3589.0398L14006.6136,-3589.0516L14006.4918,-3589.1508L14006.4785,-3589.1632L14006.4267,-3589.2049L14006.3776,-3589.246L14006.3561,-3589.2596L14006.343,-3589.2663L14006.2765,-3589.2945L14006.2433,-3589.3097L14006.235,-3589.3125L14006.2267,-3589.3159L14006.2468,-3589.3519L14006.2904,-3589.4326L14006.2966,-3589.4427L14006.3281,-3589.5003L14006.3444,-3589.5181L14006.3511,-3589.5315L14006.3546,-3589.5406L14006.3656,-3589.555L14006.3814,-3589.57L14006.3973,-3589.5822"/>
<path content="1,大利根交通自動車（株）,5,2.0,0.0,0.0," xlink:title="1" d="M14009.7656,-3589.0081L14009.7461,-3589.0173L14009.7316,-3589.0212L14009.6848,-3589.0229L14009.6021,-3589.0212L14009.586,-3589.0204L14009.5592,-3589.019L14009.505,-3589.0139L14009.4965,-3589.0134L14009.4359,-3589.008L14009.4007,-3589.0054L14009.3549,-3589.0054L14009.3474,-3589.0054L14009.3205,-3589.0094L14009.3098,-3589.0139L14009.2872,-3589.0195L14009.2395,-3589.0364L14009.2201,-3589.0443L14009.1982,-3589.0547L14009.1872,-3589.0597L14009.1769,-3589.0617L14009.1665,-3589.0631L14009.1549,-3589.0617L14009.1384,-3589.0563L14009.0955,-3589.033L14009.0588,-3589.0128L14009.0035,-3588.9806L14008.9813,-3588.9671L14008.9682,-3588.9604L14008.9397,-3588.9461L14008.9052,-3588.9226L14008.8439,-3588.8872L14008.8194,-3588.873L14008.8159,-3588.8707L14008.719,-3588.8149L14008.6851,-3588.7952L14008.6456,-3588.7766L14008.5841,-3588.7537L14008.5369,-3588.7429L14008.5197,-3588.7389L14008.5107,-3588.7378L14008.4996,-3588.7355L14008.4228,-3588.7271L14008.3155,-3588.7225L14008.2719,-3588.7214L14008.2587,-3588.7203L14008.1162,-3588.7146L14008.094,-3588.7152L14008.0497,-3588.7201L14008.0198,-3588.7265L14007.9856,-3588.7393L14007.957,-3588.7479L14007.9266,-3588.76L14007.8338,-3588.7839L14007.6933,-3588.8234L14007.6834,-3588.8256L14007.6641,-3588.8357L14007.6504,-3588.8364L14007.6248,-3588.842L14007.6033,-3588.851L14007.586,-3588.8612L14007.5715,-3588.8702L14007.5452,-3588.891L14007.5237,-3588.913L14007.5158,-3588.9253L14007.4954,-3588.9175L14007.4614,-3588.9096L14007.3915,-3588.8955L14007.3805,-3588.8933L14007.3645,-3588.8899L14007.3299,-3588.8831L14007.2614,-3588.8685L14007.2537,-3588.871L14007.2372,-3588.8628L14007.2331,-3588.8623L14007.1846,-3588.8516L14007.1112,-3588.8364L14007.0586,-3588.8251L14007.0282,-3588.8228L14007.0037,-3588.8329L14006.9617,-3588.8409L14006.9424,-3588.8504L14006.9223,-3588.8622L14006.9188,-3588.8651L14006.905,-3588.873L14006.8503,-3588.9141L14006.8358,-3588.9237L14006.8109,-3588.9338L14006.7908,-3588.9434L14006.7527,-3588.9671L14006.734,-3588.9806L14006.7119,-3588.9986L14006.6963,-3589.013L14006.6842,-3589.0153L14006.6724,-3589.0212L14006.6503,-3589.0313L14006.6309,-3589.0398L14006.6136,-3589.0516L14006.4918,-3589.1508L14006.4785,-3589.1632L14006.4267,-3589.2049L14006.3776,-3589.246L14006.3561,-3589.2596L14006.343,-3589.2663L14006.2765,-3589.2945L14006.2433,-3589.3097L14006.235,-3589.3125L14006.2267,-3589.3159L14006.2468,-3589.3519L14006.2904,-3589.4326L14006.2966,-3589.4427L14006.3281,-3589.5003L14006.3444,-3589.5181L14006.3511,-3589.5315L14006.3546,-3589.5406L14006.3656,-3589.555L14006.3814,-3589.57L14006.3973,-3589.5822"/>
<path content="1,大利根交通自動車（株）,6,8.0,4.5,4.5," xlink:title="1" d="M14006.3973,-3589.5822L14006.3814,-3589.57L14006.3656,-3589.555L14006.3546,-3589.5406L14006.3511,-3589.5315L14006.3444,-3589.5181L14006.3281,-3589.5003L14006.2966,-3589.4427L14006.2904,-3589.4326L14006.2468,-3589.3519L14006.2267,-3589.3159L14006.235,-3589.3125L14006.2433,-3589.3097L14006.2765,-3589.2945L14006.343,-3589.2663L14006.3561,-3589.2596L14006.3776,-3589.246L14006.4267,-3589.2049L14006.4785,-3589.1632L14006.4918,-3589.1508L14006.6136,-3589.0516L14006.6309,-3589.0398L14006.6503,-3589.0313L14006.6724,-3589.0212L14006.6842,-3589.0153L14006.6963,-3589.013L14006.7119,-3588.9986L14006.734,-3588.9806L14006.7527,-3588.9671L14006.7908,-3588.9434L14006.8109,-3588.9338L14006.8358,-3588.9237L14006.8503,-3588.9141L14006.905,-3588.873L14006.9188,-3588.8651L14006.9223,-3588.8622L14006.9424,-3588.8504L14006.9617,-3588.8409L14007.0037,-3588.8329L14007.0282,-3588.8228L14007.0586,-3588.8251L14007.1112,-3588.8364L14007.1846,-3588.8516L14007.2331,-3588.8623L14007.2372,-3588.8628L14007.2537,-3588.871L14007.2614,-3588.8685L14007.3299,-3588.8831L14007.3645,-3588.8899L14007.3805,-3588.8933L14007.3915,-3588.8955L14007.4614,-3588.9096L14007.4954,-3588.9175L14007.5158,-3588.9253L14007.5237,-3588.913L14007.5452,-3588.891L14007.5715,-3588.8702L14007.586,-3588.8612L14007.6033,-3588.851L14007.6248,-3588.842L14007.6504,-3588.8364L14007.6641,-3588.8357L14007.6834,-3588.8256L14007.6933,-3588.8234L14007.8338,-3588.7839L14007.9266,-3588.76L14007.957,-3588.7479L14007.9856,-3588.7393L14008.0198,-3588.7265L14008.0497,-3588.7201L14008.094,-3588.7152L14008.1162,-3588.7146L14008.2587,-3588.7203L14008.2719,-3588.7214L14008.3155,-3588.7225L14008.4228,-3588.7271L14008.4996,-3588.7355L14008.5107,-3588.7378L14008.5197,-3588.7389L14008.5369,-3588.7429L14008.5841,-3588.7537L14008.6456,-3588.7766L14008.6851,-3588.7952L14008.719,-3588.8149L14008.8159,-3588.8707L14008.8194,-3588.873L14008.8439,-3588.8872L14008.9052,-3588.9226L14008.9397,-3588.9461L14008.9682,-3588.9604L14008.9813,-3588.9671L14009.0035,-3588.9806L14009.0588,-3589.0128L14009.0955,-3589.033L14009.1384,-3589.0563L14009.1549,-3589.0617L14009.1665,-3589.0631L14009.1769,-3589.0617L14009.1872,-3589.0597L14009.1982,-3589.0547L14009.2201,-3589.0443L14009.2395,-3589.0364L14009.2872,-3589.0195L14009.3098,-3589.0139L14009.3205,-3589.0094L14009.3474,-3589.0054L14009.3549,-3589.0054L14009.4007,-3589.0054L14009.4359,-3589.008L14009.4965,-3589.0134L14009.505,-3589.0139L14009.5592,-3589.019L14009.586,-3589.0204L14009.6021,-3589.0212L14009.6848,-3589.0229L14009.7316,-3589.0212L14009.7461,-3589.0173L14009.7656,-3589.0081"/>
<path content="1,関東鉄道（株）,041,0.5,0.0,0.0," xlink:title="1" d="M14008.6018,-3590.332L14008.5986,-3590.3247L14008.5854,-3590.3004L14008.5737,-3590.2863L14008.5639,-3590.2615L14008.5543,-3590.2424L14008.5356,-3590.1894L14008.5245,-3590.1562L14008.5224,-3590.1421L14008.5183,-3590.119L14008.5162,-3590.0847L14008.5148,-3590.0649L14008.512,-3590.0485L14008.5106,-3590.0431L14008.5086,-3590.0356L14008.5009,-3590.0164L14008.4684,-3589.9561L14008.447,-3589.9223L14008.4372,-3589.91L14008.4261,-3589.9044L14008.4016,-3589.8739L14008.3844,-3589.8573L14008.3577,-3589.8282L14008.2989,-3589.7679L14008.2712,-3589.7397L14008.2039,-3589.6729L14008.1489,-3589.6093L14008.1355,-3589.5904L14008.1074,-3589.5581L14008.0854,-3589.5282L14008.0616,-3589.4954L14008.0196,-3589.4439L14007.9356,-3589.3287L14007.8954,-3589.2754L14007.8836,-3589.259L14007.8677,-3589.2398L14007.8319,-3589.1927L14007.8116,-3589.1643L14007.7889,-3589.134L14007.7757,-3589.1159L14007.739,-3589.0668L14007.7058,-3589.0345L14007.6372,-3588.9795L14007.6054,-3588.9592L14007.5936,-3588.9531L14007.5575,-3588.9368L14007.5234,-3588.9258L14007.5158,-3588.9253L14007.4954,-3588.9175L14007.4614,-3588.9096L14007.3915,-3588.8955L14007.3805,-3588.8933L14007.3645,-3588.8899L14007.3299,-3588.8831L14007.2614,-3588.8685L14007.2537,-3588.871L14007.2372,-3588.8628L14007.2331,-3588.8623L14007.1846,-3588.8516L14007.1112,-3588.8364L14007.0586,-3588.8251L14007.0282,-3588.8228L14007.0037,-3588.8329L14006.9617,-3588.8409L14006.9424,-3588.8504L14006.9223,-3588.8622L14006.9188,-3588.8651L14006.905,-3588.873L14006.8503,-3588.9141L14006.8358,-3588.9237L14006.8109,-3588.9338L14006.7908,-3588.9434L14006.7527,-3588.9671L14006.734,-3588.9806L14006.7119,-3588.9986L14006.6963,-3589.013L14006.6842,-3589.0153L14006.6724,-3589.0212L14006.6503,-3589.0313L14006.6309,-3589.0398L14006.6136,-3589.0516L14006.4918,-3589.1508L14006.4785,-3589.1632L14006.4267,-3589.2049L14006.3776,-3589.246L14006.3561,-3589.2596L14006.343,-3589.2663L14006.2765,-3589.2945L14006.2433,-3589.3097L14006.235,-3589.3125L14006.2267,-3589.3159L14006.2468,-3589.3519L14006.2904,-3589.4326L14006.2966,-3589.4427L14006.3281,-3589.5003"/>
<path content="1,関東鉄道（株）,042,0.5,0.0,0.0," xlink:title="1" d="M14008.6018,-3590.332L14008.5986,-3590.3247L14008.5854,-3590.3004L14008.5737,-3590.2863L14008.5639,-3590.2615L14008.5543,-3590.2424L14008.5356,-3590.1894L14008.5245,-3590.1562L14008.5224,-3590.1421L14008.5183,-3590.119L14008.5162,-3590.0847L14008.5148,-3590.0649L14008.512,-3590.0485L14008.5106,-3590.0431L14008.5086,-3590.0356L14008.5009,-3590.0164L14008.4684,-3589.9561L14008.447,-3589.9223L14008.4372,-3589.91L14008.4261,-3589.9044L14008.4016,-3589.8739L14008.3844,-3589.8573L14008.3577,-3589.8282L14008.2989,-3589.7679L14008.2712,-3589.7397L14008.2039,-3589.6729L14008.1489,-3589.6093L14008.1355,-3589.5904L14008.1074,-3589.5581L14008.0854,-3589.5282L14008.0616,-3589.4954L14008.0196,-3589.4439L14007.9356,-3589.3287L14007.8954,-3589.2754L14007.8836,-3589.259L14007.8677,-3589.2398L14007.8319,-3589.1927L14007.8116,-3589.1643L14007.7889,-3589.134L14007.7757,-3589.1159L14007.739,-3589.0668L14007.7058,-3589.0345L14007.6372,-3588.9795L14007.6054,-3588.9592L14007.5936,-3588.9531L14007.5575,-3588.9368L14007.5234,-3588.9258L14007.5158,-3588.9253L14007.4954,-3588.9175L14007.4614,-3588.9096L14007.3915,-3588.8955L14007.3805,-3588.8933L14007.3645,-3588.8899L14007.3299,-3588.8831L14007.2614,-3588.8685L14007.2537,-3588.871L14007.2372,-3588.8628L14007.2331,-3588.8623L14007.1846,-3588.8516L14007.1112,-3588.8364L14007.0586,-3588.8251L14007.0282,-3588.8228L14007.0037,-3588.8329L14006.9617,-3588.8409L14006.9424,-3588.8504L14006.9223,-3588.8622L14006.9188,-3588.8651L14006.905,-3588.873L14006.8503,-3588.9141L14006.8358,-3588.9237L14006.8109,-3588.9338L14006.7908,-3588.9434L14006.7527,-3588.9671L14006.734,-3588.9806L14006.7119,-3588.9986L14006.6963,-3589.013L14006.6842,-3589.0153L14006.6724,-3589.0212L14006.6503,-3589.0313L14006.6309,-3589.0398L14006.6136,-3589.0516L14006.4918,-3589.1508L14006.4785,-3589.1632L14006.4267,-3589.2049L14006.3776,-3589.246L14006.3561,-3589.2596L14006.343,-3589.2663L14006.2765,-3589.2945L14006.2433,-3589.3097L14006.235,-3589.3125L14006.2267,-3589.3159L14006.2468,-3589.3519L14006.2904,-3589.4326L14006.2966,-3589.4427L14006.3281,-3589.5003"/>
<path content="1,関東鉄道（株）,048,14.5,6.0,6.0," xlink:title="1" d="M14006.3281,-3589.5003L14006.2966,-3589.4427L14006.2904,-3589.4326L14006.2468,-3589.3519L14006.2267,-3589.3159L14006.235,-3589.3125L14006.2433,-3589.3097L14006.2765,-3589.2945L14006.343,-3589.2663L14006.3561,-3589.2596L14006.3776,-3589.246L14006.4267,-3589.2049L14006.4785,-3589.1632L14006.4918,-3589.1508L14006.6136,-3589.0516L14006.6309,-3589.0398L14006.6503,-3589.0313L14006.6724,-3589.0212L14006.6842,-3589.0153L14006.6963,-3589.013L14006.7119,-3588.9986L14006.734,-3588.9806L14006.7527,-3588.9671L14006.7908,-3588.9434L14006.8109,-3588.9338L14006.8358,-3588.9237L14006.8503,-3588.9141L14006.905,-3588.873L14006.9188,-3588.8651L14006.9223,-3588.8622L14006.9424,-3588.8504L14006.9617,-3588.8409L14007.0037,-3588.8329L14007.0282,-3588.8228L14007.0586,-3588.8251L14007.1112,-3588.8364L14007.1846,-3588.8516L14007.2331,-3588.8623L14007.2372,-3588.8628L14007.2537,-3588.871L14007.2614,-3588.8685L14007.3299,-3588.8831L14007.3645,-3588.8899L14007.3805,-3588.8933L14007.3915,-3588.8955L14007.4614,-3588.9096L14007.4954,-3588.9175L14007.5158,-3588.9253L14007.5234,-3588.9258L14007.5575,-3588.9368L14007.5936,-3588.9531L14007.6054,-3588.9592L14007.6372,-3588.9795L14007.7058,-3589.0345L14007.739,-3589.0668L14007.7757,-3589.1159L14007.7889,-3589.134L14007.8116,-3589.1643L14007.8319,-3589.1927L14007.8677,-3589.2398L14007.8836,-3589.259L14007.8954,-3589.2754L14007.9356,-3589.3287L14008.0196,-3589.4439L14008.0616,-3589.4954L14008.0854,-3589.5282L14008.1074,-3589.5581L14008.1355,-3589.5904L14008.1489,-3589.6093L14008.2039,-3589.6729L14008.2712,-3589.7397L14008.2989,-3589.7679L14008.3577,-3589.8282L14008.3844,-3589.8573L14008.4016,-3589.8739L14008.4261,-3589.9044L14008.4372,-3589.91L14008.447,-3589.9223L14008.4684,-3589.9561L14008.5009,-3590.0164L14008.5086,-3590.0356L14008.5106,-3590.0431L14008.512,-3590.0485L14008.5148,-3590.0649L14008.5162,-3590.0847L14008.5183,-3590.119L14008.5224,-3590.1421L14008.5245,-3590.1562L14008.5356,-3590.1894L14008.5543,-3590.2424L14008.5639,-3590.2615L14008.5737,-3590.2863L14008.5854,-3590.3004L14008.5986,-3590.3247L14008.6018,-3590.332"/>
<path content="1,関東鉄道（株）,049,33.5,14.0,14.0," xlink:title="1" d="M14008.6018,-3590.332L14008.5986,-3590.3247L14008.5854,-3590.3004L14008.5737,-3590.2863L14008.5639,-3590.2615L14008.5543,-3590.2424L14008.5356,-3590.1894L14008.5245,-3590.1562L14008.5224,-3590.1421L14008.5183,-3590.119L14008.5162,-3590.0847L14008.5148,-3590.0649L14008.512,-3590.0485L14008.5106,-3590.0431L14008.5086,-3590.0356L14008.5009,-3590.0164L14008.4684,-3589.9561L14008.447,-3589.9223L14008.4372,-3589.91L14008.4261,-3589.9044L14008.4016,-3589.8739L14008.3844,-3589.8573L14008.3577,-3589.8282L14008.2989,-3589.7679L14008.2712,-3589.7397L14008.2039,-3589.6729L14008.1489,-3589.6093L14008.1355,-3589.5904L14008.1074,-3589.5581L14008.0854,-3589.5282L14008.0616,-3589.4954L14008.0196,-3589.4439L14007.9356,-3589.3287L14007.8954,-3589.2754L14007.8836,-3589.259L14007.8677,-3589.2398L14007.8319,-3589.1927L14007.8116,-3589.1643L14007.7889,-3589.134L14007.7757,-3589.1159L14007.739,-3589.0668L14007.7058,-3589.0345L14007.6372,-3588.9795L14007.6054,-3588.9592L14007.5936,-3588.9531L14007.5575,-3588.9368L14007.5234,-3588.9258L14007.5158,-3588.9253L14007.4954,-3588.9175L14007.4614,-3588.9096L14007.3915,-3588.8955L14007.3805,-3588.8933L14007.3645,-3588.8899L14007.3299,-3588.8831L14007.2614,-3588.8685L14007.2537,-3588.871L14007.2372,-3588.8628L14007.2331,-3588.8623L14007.1846,-3588.8516L14007.1112,-3588.8364L14007.0586,-3588.8251L14007.0282,-3588.8228L14007.0037,-3588.8329L14006.9617,-3588.8409L14006.9424,-3588.8504L14006.9223,-3588.8622L14006.9188,-3588.8651L14006.905,-3588.873L14006.8503,-3588.9141L14006.8358,-3588.9237L14006.8109,-3588.9338L14006.7908,-3588.9434L14006.7527,-3588.9671L14006.734,-3588.9806L14006.7119,-3588.9986L14006.6963,-3589.013L14006.6842,-3589.0153L14006.6724,-3589.0212L14006.6503,-3589.0313L14006.6309,-3589.0398L14006.6136,-3589.0516L14006.4918,-3589.1508L14006.4785,-3589.1632L14006.4267,-3589.2049L14006.3776,-3589.246L14006.3561,-3589.2596L14006.343,-3589.2663L14006.2765,-3589.2945L14006.2433,-3589.3097L14006.235,-3589.3125L14006.2267,-3589.3159L14006.2468,-3589.3519L14006.2904,-3589.4326L14006.2966,-3589.4427L14006.3281,-3589.5003"/>
<path content="1,関東鉄道（株）,124,35.5,19.0,19.0," xlink:title="1" d="M14006.3001,-3589.6547L14006.2923,-3589.6804L14006.2809,-3589.6737L14006.2688,-3589.6666L14006.2561,-3589.6588L14006.1997,-3589.6647L14006.0959,-3589.6715L14006.0606,-3589.6748L14006.0453,-3589.6788L14006.0619,-3589.702L14006.1197,-3589.7821L14006.1451,-3589.8263L14006.1518,-3589.8405L14006.21,-3589.9372L14006.2289,-3589.9706L14006.2359,-3589.9839L14006.2374,-3589.9868L14006.2464,-3590.0041L14006.3225,-3590.1382L14006.3359,-3590.1614L14006.3562,-3590.189L14006.3656,-3590.2008L14006.3791,-3590.2175L14006.4003,-3590.2372L14006.4073,-3590.248L14006.4165,-3590.2512L14006.4419,-3590.2744L14006.4663,-3590.2957L14006.5061,-3590.332"/>
<path content="1,関東鉄道（株）,128,4.0,4.0,4.0," xlink:title="1" d="M14006.3001,-3589.6547L14006.2923,-3589.6804L14006.2809,-3589.6737L14006.2688,-3589.6666L14006.2561,-3589.6588L14006.1997,-3589.6647L14006.0959,-3589.6715L14006.0606,-3589.6748L14006.0453,-3589.6788L14006.0315,-3589.6844L14005.9251,-3589.7376L14005.9139,-3589.7431L14005.9086,-3589.7471L14005.8896,-3589.7549L14005.8398,-3589.7802L14005.7021,-3589.8467L14005.6571,-3589.8698L14005.646,-3589.8749L14005.5885,-3589.9031L14005.5221,-3589.9341L14005.4958,-3589.9448L14005.4522,-3589.9566L14005.4453,-3589.9583L14005.4026,-3589.9647L14005.3974,-3589.963L14005.3892,-3589.9668L14005.3711,-3589.9692"/>
<path content="1,関東鉄道（株）,129,96.5,61.0,61.0," xlink:title="1" d="M14006.3001,-3589.6547L14006.2923,-3589.6804L14006.2809,-3589.6737L14006.2688,-3589.6666L14006.2561,-3589.6588L14006.1997,-3589.6647L14006.0959,-3589.6715L14006.0606,-3589.6748L14006.0453,-3589.6788L14006.0315,-3589.6844L14005.9251,-3589.7376L14005.9139,-3589.7431L14005.9086,-3589.7471L14005.8896,-3589.7549L14005.8398,-3589.7802L14005.7021,-3589.8467L14005.6571,-3589.8698L14005.646,-3589.8749L14005.5885,-3589.9031L14005.5221,-3589.9341L14005.4958,-3589.9448L14005.4522,-3589.9566L14005.4453,-3589.9583L14005.4026,-3589.9647L14005.3974,-3589.963L14005.3892,-3589.9668L14005.3711,-3589.9692"/>
<path content="1,関東鉄道（株）,130,100.0,68.0,68.0," xlink:title="1" d="M14006.3281,-3589.5003L14006.3444,-3589.5181L14006.3511,-3589.5315L14006.3762,-3589.5193L14006.4094,-3589.5013L14006.435,-3589.4866L14006.4793,-3589.4528L14006.5167,-3589.419L14006.5368,-3589.4004L14006.5818,-3589.3553L14006.5894,-3589.3497L14006.6094,-3589.3441L14006.6254,-3589.3452L14006.6832,-3589.3578L14006.7133,-3589.3604L14006.8129,-3589.3582L14006.8302,-3589.3565L14006.8517,-3589.3526L14006.9174,-3589.3367L14006.9492,-3589.3306L14006.9686,-3589.33L14006.9804,-3589.33L14007.0053,-3589.3339L14007.0365,-3589.3424L14007.0615,-3589.3517L14007.0932,-3589.3621L14007.1119,-3589.3705L14007.1562,-3589.3841L14007.1834,-3589.3909L14007.2267,-3589.3934L14007.2713,-3589.3929L14007.3057,-3589.3909L14007.3168,-3589.3892L14007.3611,-3589.3847L14007.3754,-3589.3833L14007.4434,-3589.3756L14007.4455,-3589.3875L14007.4493,-3589.4109L14007.4517,-3589.4258L14007.46,-3589.4669L14007.4672,-3589.5135L14007.4667,-3589.5213L14007.4649,-3589.5256L14007.4552,-3589.5396L14007.4489,-3589.547L14007.4358,-3589.5667L14007.4347,-3589.572L14007.4351,-3589.5785L14007.4427,-3589.618L14007.4476,-3589.6462L14007.4538,-3589.6754"/>
<path content="1,関東鉄道（株）,130,100.0,68.0,68.0," xlink:title="1" d="M14007.4538,-3589.6754L14007.3438,-3589.6991L14007.3472,-3589.7109L14007.3613,-3589.7647L14007.3763,-3589.8062L14007.3799,-3589.8174L14007.3797,-3589.8293L14007.3867,-3589.8434L14007.3867,-3589.849L14007.3818,-3589.8608L14007.3735,-3589.8834L14007.3684,-3589.8936L14007.3665,-3589.8956L14007.3633,-3589.8962L14007.3521,-3589.8975L14007.3327,-3589.8997L14007.323,-3589.902L14007.323,-3589.9245L14007.3164,-3589.9364L14007.3071,-3589.9538L14007.2847,-3589.9981L14007.2974,-3589.9989L14007.3306,-3590.0109L14007.3579,-3590.021L14007.3659,-3590.0243L14007.3728,-3590.0271L14007.4863,-3590.0705L14007.5548,-3590.0958L14007.5761,-3590.104L14007.5806,-3590.0946L14007.5858,-3590.0838L14007.5858,-3590.0801L14007.5846,-3590.0767L14007.5766,-3590.0605L14007.5729,-3590.0479L14007.5707,-3590.0356L14007.5697,-3590.0227L14007.5707,-3590.0096L14007.5744,-3589.9901L14007.5817,-3589.9687L14007.5897,-3589.9513L14007.6034,-3589.9265L14007.6097,-3589.9144L14007.62,-3589.896L14007.63,-3589.8759L14007.6412,-3589.8569L14007.6456,-3589.8487L14007.6787,-3589.7865L14007.6988,-3589.747L14007.6836,-3589.7076L14007.6801,-3589.6973L14007.6642,-3589.6546L14007.6542,-3589.6286L14007.6483,-3589.6135L14007.5999,-3589.6332L14007.5864,-3589.638L14007.554,-3589.6495L14007.523,-3589.6574L14007.4538,-3589.6754"/>
<path content="1,関東鉄道（株）,131,5.0,2.0,2.0," xlink:title="1" d="M14006.3281,-3589.5003L14006.3444,-3589.5181L14006.3511,-3589.5315L14006.3762,-3589.5193L14006.4094,-3589.5013L14006.435,-3589.4866L14006.4793,-3589.4528L14006.5167,-3589.419L14006.5368,-3589.4004L14006.5818,-3589.3553L14006.5894,-3589.3497L14006.6094,-3589.3441L14006.6254,-3589.3452L14006.6832,-3589.3578L14006.7133,-3589.3604L14006.8129,-3589.3582L14006.8302,-3589.3565L14006.8517,-3589.3526L14006.9174,-3589.3367L14006.9492,-3589.3306L14006.9686,-3589.33L14006.9804,-3589.33L14007.0053,-3589.3339L14007.0365,-3589.3424L14007.0615,-3589.3517L14007.0932,-3589.3621L14007.1119,-3589.3705L14007.1562,-3589.3841L14007.1834,-3589.3909L14007.2267,-3589.3934L14007.2713,-3589.3929L14007.3057,-3589.3909L14007.3168,-3589.3892L14007.3611,-3589.3847L14007.3754,-3589.3833L14007.4434,-3589.3756L14007.4455,-3589.3875L14007.4493,-3589.4109L14007.4517,-3589.4258L14007.46,-3589.4669L14007.4672,-3589.5135L14007.4667,-3589.5213L14007.4649,-3589.5256L14007.4552,-3589.5396L14007.4489,-3589.547L14007.4358,-3589.5667L14007.4347,-3589.572L14007.4351,-3589.5785L14007.4427,-3589.618L14007.4476,-3589.6462L14007.4538,-3589.6754L14007.3438,-3589.6991L14007.3472,-3589.7109L14007.3613,-3589.7647L14007.3763,-3589.8062L14007.3799,-3589.8174L14007.3797,-3589.8293L14007.3867,-3589.8434L14007.3867,-3589.849L14007.3818,-3589.8608L14007.3735,-3589.8834L14007.3684,-3589.8936L14007.3665,-3589.8956L14007.3633,-3589.8962L14007.3521,-3589.8975L14007.3327,-3589.8997L14007.323,-3589.902L14007.323,-3589.9245"/>
<path content="1,関東鉄道（株）,131,5.0,2.0,2.0," xlink:title="1" d="M14007.62,-3589.896L14007.6097,-3589.9144L14007.6034,-3589.9265L14007.5897,-3589.9513L14007.5817,-3589.9687L14007.5744,-3589.9901L14007.5707,-3590.0096L14007.5697,-3590.0227L14007.5707,-3590.0356L14007.5729,-3590.0479L14007.5766,-3590.0605L14007.5846,-3590.0767L14007.5858,-3590.0801L14007.5858,-3590.0838L14007.5806,-3590.0946L14007.5761,-3590.104L14007.5548,-3590.0958L14007.4863,-3590.0705L14007.3728,-3590.0271L14007.3659,-3590.0243"/>
<path content="1,関東鉄道（株）,131,5.0,2.0,2.0," xlink:title="1" d="M14007.323,-3589.9245L14007.3164,-3589.9364L14007.3071,-3589.9538L14007.2847,-3589.9981L14007.2974,-3589.9989L14007.3306,-3590.0109L14007.3579,-3590.021L14007.3659,-3590.0243"/>
<path content="1,関東鉄道（株）,131,5.0,2.0,2.0," xlink:title="1" d="M14007.323,-3589.9245L14007.3994,-3589.9574L14007.3659,-3590.0243"/>
<path content="1,関東鉄道（株）,132,47.0,40.5,40.5," xlink:title="1" d="M14006.3001,-3589.6547L14006.2923,-3589.6804L14006.2809,-3589.6737L14006.2688,-3589.6666L14006.2561,-3589.6588L14006.1997,-3589.6647L14006.0959,-3589.6715L14006.0606,-3589.6748L14006.0453,-3589.6788L14006.0619,-3589.702L14006.1197,-3589.7821L14006.1451,-3589.8263L14006.1518,-3589.8405L14006.21,-3589.9372L14006.2289,-3589.9706L14006.2359,-3589.9839L14006.2374,-3589.9868L14006.2464,-3590.0041L14006.3225,-3590.1382L14006.3359,-3590.1614L14006.3562,-3590.189L14006.3656,-3590.2008L14006.3791,-3590.2175L14006.4003,-3590.2372L14006.4073,-3590.248L14006.3921,-3590.2559L14006.3616,-3590.2744L14006.3249,-3590.2981L14006.3138,-3590.3043L14006.2945,-3590.3167L14006.2704,-3590.3318L14006.27,-3590.332"/>
<path content="1,関東鉄道（株）,谷田部取手（筑波ゴルフ場経由）,15.5,15.0,15.0," xlink:title="1" d="M14006.27,-3590.332L14006.2704,-3590.3318L14006.2945,-3590.3167L14006.3138,-3590.3043L14006.3249,-3590.2981L14006.3616,-3590.2744L14006.3921,-3590.2559L14006.4073,-3590.248L14006.4003,-3590.2372L14006.3791,-3590.2175L14006.3656,-3590.2008L14006.3562,-3590.189L14006.3359,-3590.1614L14006.3225,-3590.1382L14006.2464,-3590.0041L14006.2374,-3589.9868L14006.2359,-3589.9839L14006.2289,-3589.9706L14006.21,-3589.9372L14006.1518,-3589.8405L14006.1451,-3589.8263L14006.1197,-3589.7821L14006.0619,-3589.702L14006.0453,-3589.6788L14006.0606,-3589.6748L14006.0959,-3589.6715L14006.1997,-3589.6647L14006.2561,-3589.6588L14006.2688,-3589.6666L14006.2809,-3589.6737L14006.2923,-3589.6804L14006.3001,-3589.6547"/>
<path content="1,関東鉄道（株）,谷田部取手（高波・みらい平駅経由）,3.5,2.5,2.5," xlink:title="1" d="M14006.27,-3590.332L14006.2704,-3590.3318L14006.2945,-3590.3167L14006.3138,-3590.3043L14006.3249,-3590.2981L14006.3616,-3590.2744L14006.3921,-3590.2559L14006.4073,-3590.248L14006.4003,-3590.2372L14006.3791,-3590.2175L14006.3656,-3590.2008L14006.3562,-3590.189L14006.3359,-3590.1614L14006.3225,-3590.1382L14006.2464,-3590.0041L14006.2374,-3589.9868L14006.2359,-3589.9839L14006.2289,-3589.9706L14006.21,-3589.9372L14006.1518,-3589.8405L14006.1451,-3589.8263L14006.1197,-3589.7821L14006.0619,-3589.702L14006.0453,-3589.6788L14006.0606,-3589.6748L14006.0959,-3589.6715L14006.1997,-3589.6647L14006.2561,-3589.6588L14006.2688,-3589.6666L14006.2809,-3589.6737L14006.2923,-3589.6804L14006.3001,-3589.6547"/>
<path content="1,阪東自動車,1,0.0,3.0,0.0," xlink:title="1" d="M14009.7656,-3586.424L14009.751,-3586.4267L14009.7272,-3586.4302L14009.6928,-3586.435L14009.6394,-3586.4477L14009.6,-3586.4625L14009.5316,-3586.4915L14009.5011,-3586.5016L14009.4946,-3586.505L14009.4555,-3586.5123L14009.4489,-3586.5137L14009.398,-3586.5225L14009.3199,-3586.5371L14009.3027,-3586.5423L14009.2354,-3586.5608L14009.2208,-3586.5653L14009.2132,-3586.5687L14009.1674,-3586.5886L14009.1489,-3586.5957L14009.1399,-3586.6002L14009.0478,-3586.6453L14008.9487,-3586.6934L14008.9101,-3586.7135L14008.8713,-3586.7355L14008.8166,-3586.7704L14008.7938,-3586.7845L14008.7626,-3586.8031L14008.759,-3586.8053L14008.7537,-3586.8086L14008.7142,-3586.8296L14008.7059,-3586.8341L14008.6692,-3586.851L14008.582,-3586.8848L14008.5371,-3586.9016L14008.4893,-3586.9147L14008.4464,-3586.9259L14008.4325,-3586.9277L14008.3266,-3586.9406L14008.2643,-3586.9491L14008.2512,-3586.9502L14008.2277,-3586.9536L14008.2021,-3586.9559L14008.1716,-3586.9598L14008.1501,-3586.9621L14008.0235,-3586.9767L14008.0005,-3586.9817L14007.9854,-3586.9812L14007.9515,-3586.9852L14007.9224,-3586.9886L14007.8449,-3586.9976L14007.7972,-3586.9976L14007.757,-3586.9942L14007.6504,-3586.9767L14007.5756,-3586.9676L14007.5376,-3586.957L14007.5203,-3586.9542L14007.4594,-3586.9429L14007.447,-3586.9401L14007.4345,-3586.9378L14007.4207,-3586.9367L14007.3694,-3586.9367L14007.3417,-3586.9389L14007.312,-3586.9434L14007.2741,-3586.9505L14007.2075,-3586.9542L14007.1847,-3586.9576L14007.1099,-3586.9654L14007.0601,-3586.9711L14007.0165,-3586.9767L14006.9556,-3586.9835L14006.9502,-3586.9851L14006.885,-3586.9919L14006.8635,-3586.9948L14006.7977,-3587.0023L14006.7272,-3587.0105L14006.6933,-3587.015L14006.6497,-3587.0201L14006.6152,-3587.0244L14006.5998,-3587.0263L14006.5839,-3587.028L14006.5147,-3587.0359L14006.4884,-3587.0415L14006.4683,-3587.0461L14006.4266,-3587.058L14006.4178,-3587.059L14006.3922,-3587.059L14006.3818,-3587.059L14006.3688,-3587.0621L14006.2371,-3587.0584L14006.2198,-3587.0594L14006.2018,-3587.0612L14006.1874,-3587.0625L14006.1687,-3587.0651L14006.1389,-3587.0708L14006.0454,-3587.0911L14006.0323,-3587.095L14006.0164,-3587.0968L14005.9866,-3587.0978L14005.9776,-3587.0978L14005.9479,-3587.0995L14005.9306,-3587.0995L14005.9229,-3587.0984L14005.8953,-3587.0944L14005.8468,-3587.0922L14005.8101,-3587.0883L14005.7376,-3587.0776L14005.5788,-3587.053L14005.5651,-3587.0499L14005.544,-3587.0461L14005.4336,-3587.0263L14005.417,-3587.0229L14005.4004,-3587.0206L14005.3863,-3587.019L14005.3711,-3587.0177"/>
<path content="1,阪東自動車,14,0.0,12.0,5.5," xlink:title="1" d="M14005.3711,-3587.0177L14005.3863,-3587.019L14005.4004,-3587.0206L14005.417,-3587.0229L14005.4336,-3587.0263L14005.544,-3587.0461L14005.5651,-3587.0499L14005.5788,-3587.053L14005.7376,-3587.0776L14005.8101,-3587.0883L14005.8468,-3587.0922L14005.8953,-3587.0944L14005.9229,-3587.0984L14005.9306,-3587.0995L14005.9479,-3587.0995L14005.9776,-3587.0978L14005.9866,-3587.0978L14005.9928,-3587.0804L14006.0347,-3587.0028L14006.0704,-3586.9368L14006.0735,-3586.931L14006.0946,-3586.8921L14006.0981,-3586.8871L14006.1161,-3586.8606L14006.1285,-3586.8471L14006.1364,-3586.8406L14006.1396,-3586.8352L14006.2524,-3586.7366L14006.3701,-3586.6346L14006.3863,-3586.6237L14006.3971,-3586.6126L14006.4289,-3586.5912L14006.451,-3586.5794L14006.4939,-3586.5614L14006.514,-3586.5563L14006.5532,-3586.5496L14006.5612,-3586.5448L14006.5929,-3586.5405L14006.6483,-3586.5343L14006.6614,-3586.5321L14006.7057,-3586.527L14006.7862,-3586.5177L14006.8289,-3586.5117L14006.8566,-3586.5078L14006.9708,-3586.4921L14006.9895,-3586.4898L14007.0026,-3586.4876L14007.0262,-3586.4847L14007.0428,-3586.4819L14007.0552,-3586.4808L14007.0982,-3586.4746L14007.1171,-3586.4738L14007.1335,-3586.474L14007.1611,-3586.4785L14007.195,-3586.4864L14007.213,-3586.4915L14007.3016,-3586.5191L14007.3698,-3586.5391L14007.422,-3586.555L14007.5719,-3586.6013L14007.5892,-3586.6059L14007.6053,-3586.6095L14007.6214,-3586.6109L14007.6476,-3586.6109L14007.674,-3586.6098L14007.6996,-3586.6064L14007.7098,-3586.6679"/>
<path content="1,阪東自動車,15,22.0,10.0,3.0," xlink:title="1" d="M14005.3711,-3587.0177L14005.3863,-3587.019L14005.4004,-3587.0206L14005.417,-3587.0229L14005.4336,-3587.0263L14005.544,-3587.0461L14005.5651,-3587.0499L14005.5788,-3587.053L14005.7376,-3587.0776L14005.8101,-3587.0883L14005.8468,-3587.0922L14005.8953,-3587.0944L14005.9229,-3587.0984L14005.9306,-3587.0995L14005.9479,-3587.0995L14005.9776,-3587.0978L14005.9866,-3587.0978L14005.9928,-3587.0804L14006.0347,-3587.0028L14006.0704,-3586.9368L14006.0735,-3586.931L14006.0946,-3586.8921L14006.0981,-3586.8871L14006.1161,-3586.8606L14006.1285,-3586.8471L14006.1364,-3586.8406L14006.1396,-3586.8352L14006.2524,-3586.7366L14006.3701,-3586.6346L14006.3863,-3586.6237L14006.3971,-3586.6126L14006.4289,-3586.5912L14006.451,-3586.5794L14006.4939,-3586.5614L14006.514,-3586.5563L14006.5532,-3586.5496L14006.5612,-3586.5448L14006.5929,-3586.5405L14006.6483,-3586.5343L14006.6614,-3586.5321L14006.7057,-3586.527L14006.7862,-3586.5177L14006.8289,-3586.5117L14006.8566,-3586.5078L14006.9708,-3586.4921L14006.9895,-3586.4898L14007.0026,-3586.4876L14007.0262,-3586.4847L14007.0428,-3586.4819L14007.0552,-3586.4808L14007.0982,-3586.4746L14007.1171,-3586.4738L14007.1335,-3586.474L14007.1611,-3586.4785L14007.195,-3586.4864L14007.213,-3586.4915L14007.3016,-3586.5191L14007.3698,-3586.5391L14007.422,-3586.555L14007.5719,-3586.6013L14007.5892,-3586.6059L14007.6053,-3586.6095L14007.6214,-3586.6109L14007.6476,-3586.6109L14007.674,-3586.6098L14007.6996,-3586.6064L14007.7098,-3586.6679"/>
<path content="1,阪東自動車,16,50.0,44.0,35.0," xlink:title="1" d="M14005.3711,-3587.0177L14005.3863,-3587.019L14005.4004,-3587.0206L14005.417,-3587.0229L14005.4336,-3587.0263L14005.544,-3587.0461L14005.5651,-3587.0499L14005.5788,-3587.053L14005.7376,-3587.0776L14005.8101,-3587.0883L14005.8468,-3587.0922L14005.8953,-3587.0944L14005.9229,-3587.0984L14005.9306,-3587.0995L14005.9479,-3587.0995L14005.9776,-3587.0978L14005.9866,-3587.0978L14005.9928,-3587.0804L14006.0347,-3587.0028L14006.0704,-3586.9368L14006.0735,-3586.931L14006.0946,-3586.8921L14006.0981,-3586.8871L14006.1161,-3586.8606L14006.1285,-3586.8471L14006.1364,-3586.8406L14006.1396,-3586.8352L14006.2524,-3586.7366L14006.3701,-3586.6346L14006.3863,-3586.6237L14006.3971,-3586.6126L14006.4289,-3586.5912L14006.451,-3586.5794L14006.4939,-3586.5614L14006.514,-3586.5563L14006.5532,-3586.5496L14006.5612,-3586.5448L14006.5929,-3586.5405L14006.6483,-3586.5343L14006.6614,-3586.5321L14006.7057,-3586.527L14006.7862,-3586.5177L14006.8289,-3586.5117L14006.8566,-3586.5078L14006.8525,-3586.4881L14006.8456,-3586.4504L14006.8186,-3586.3168L14006.8052,-3586.2547L14006.7937,-3586.1993L14006.7894,-3586.1776L14006.7881,-3586.1727L14006.7756,-3586.1105L14006.7618,-3586.0406L14006.7591,-3586.0254L14006.7508,-3585.9871L14006.781,-3585.9769L14006.7943,-3585.9713L14006.8324,-3585.9674L14006.9502,-3585.9549L14006.9542,-3585.9544L14006.9833,-3585.9511L14007.0089,-3585.9499L14007.0269,-3585.9488L14007.13,-3585.9499L14007.2027,-3585.9511L14007.2778,-3585.9544L14007.4207,-3585.9533L14007.582,-3585.9556L14007.6535,-3585.9587L14007.6968,-3585.9572L14007.7633,-3585.9578L14007.7612,-3586.0384L14007.7577,-3586.1263L14007.7577,-3586.1297L14007.7577,-3586.1534L14007.7614,-3586.1658L14007.7676,-3586.1872L14007.773,-3586.1945L14007.7834,-3586.2131L14007.7903,-3586.2244L14007.802,-3586.2401L14007.8496,-3586.2819L14007.8636,-3586.2956L14007.9211,-3586.3444L14007.9463,-3586.3671L14007.9651,-3586.3836L14007.982,-3586.3985L14007.9933,-3586.4086L14008.0293,-3586.4408L14007.9993,-3586.4639L14007.9936,-3586.4677L14007.9259,-3586.5253L14007.9148,-3586.5343L14007.8726,-3586.5619L14007.8553,-3586.5709L14007.8401,-3586.5771L14007.8325,-3586.5799L14007.8089,-3586.5873L14007.7874,-3586.5917L14007.7648,-3586.5962L14007.7549,-3586.5983L14007.7395,-3586.6007L14007.7233,-3586.6034L14007.6996,-3586.6064L14007.7098,-3586.6679"/>
<path content="1,阪東自動車,17,39.0,22.0,10.0," xlink:title="1" d="M14007.7098,-3586.6679L14007.6996,-3586.6064L14007.674,-3586.6098L14007.6476,-3586.6109L14007.6214,-3586.6109L14007.6053,-3586.6095L14007.5892,-3586.6059L14007.5719,-3586.6013L14007.422,-3586.555L14007.3698,-3586.5391L14007.3016,-3586.5191L14007.213,-3586.4915L14007.195,-3586.4864L14007.1611,-3586.4785L14007.1335,-3586.474L14007.1171,-3586.4738L14007.0982,-3586.4746L14007.0552,-3586.4808L14007.0428,-3586.4819L14007.0262,-3586.4847L14007.0026,-3586.4876L14006.9895,-3586.4898L14006.9708,-3586.4921L14006.8566,-3586.5078L14006.8289,-3586.5117L14006.7862,-3586.5177L14006.7057,-3586.527L14006.6614,-3586.5321L14006.6483,-3586.5343L14006.5929,-3586.5405L14006.5612,-3586.5448L14006.5532,-3586.5496L14006.514,-3586.5563L14006.4939,-3586.5614L14006.451,-3586.5794L14006.4289,-3586.5912L14006.3971,-3586.6126L14006.3863,-3586.6237L14006.3701,-3586.6346L14006.2524,-3586.7366L14006.1396,-3586.8352L14006.1364,-3586.8406L14006.1285,-3586.8471L14006.1161,-3586.8606L14006.0981,-3586.8871L14006.0946,-3586.8921L14006.0735,-3586.931L14006.0704,-3586.9368L14006.0347,-3587.0028L14005.9928,-3587.0804L14005.9866,-3587.0978L14005.9776,-3587.0978L14005.9479,-3587.0995L14005.9306,-3587.0995L14005.9229,-3587.0984L14005.8953,-3587.0944L14005.8468,-3587.0922L14005.8101,-3587.0883L14005.7376,-3587.0776L14005.5788,-3587.053L14005.5651,-3587.0499L14005.544,-3587.0461L14005.4336,-3587.0263L14005.417,-3587.0229L14005.4004,-3587.0206L14005.3863,-3587.019L14005.3711,-3587.0177"/>
<path content="1,阪東自動車,18,75.0,61.0,53.0," xlink:title="1" d="M14007.7098,-3586.6679L14007.6996,-3586.6064L14007.7233,-3586.6034L14007.7395,-3586.6007L14007.7549,-3586.5983L14007.7648,-3586.5962L14007.7874,-3586.5917L14007.8089,-3586.5873L14007.8325,-3586.5799L14007.8401,-3586.5771L14007.8553,-3586.5709L14007.8726,-3586.5619L14007.9148,-3586.5343L14007.9259,-3586.5253L14007.9936,-3586.4677L14007.9993,-3586.4639L14008.0293,-3586.4408L14007.9933,-3586.4086L14007.982,-3586.3985L14007.9651,-3586.3836L14007.9463,-3586.3671L14007.9211,-3586.3444L14007.8636,-3586.2956L14007.8496,-3586.2819L14007.802,-3586.2401L14007.7903,-3586.2244L14007.7834,-3586.2131L14007.773,-3586.1945L14007.7676,-3586.1872L14007.7614,-3586.1658L14007.7577,-3586.1534L14007.7577,-3586.1297L14007.7577,-3586.1263L14007.7612,-3586.0384L14007.7633,-3585.9578L14007.6968,-3585.9572L14007.6535,-3585.9587L14007.582,-3585.9556L14007.4207,-3585.9533L14007.2778,-3585.9544L14007.2027,-3585.9511L14007.13,-3585.9499L14007.0269,-3585.9488L14007.0089,-3585.9499L14006.9833,-3585.9511L14006.9542,-3585.9544L14006.9502,-3585.9549L14006.8324,-3585.9674L14006.7943,-3585.9713L14006.781,-3585.9769L14006.7508,-3585.9871L14006.7591,-3586.0254L14006.7618,-3586.0406L14006.7756,-3586.1105L14006.7881,-3586.1727L14006.7894,-3586.1776L14006.7937,-3586.1993L14006.8052,-3586.2547L14006.8186,-3586.3168L14006.8456,-3586.4504L14006.8525,-3586.4881L14006.8566,-3586.5078L14006.8289,-3586.5117L14006.7862,-3586.5177L14006.7057,-3586.527L14006.6614,-3586.5321L14006.6483,-3586.5343L14006.5929,-3586.5405L14006.5612,-3586.5448L14006.5532,-3586.5496L14006.514,-3586.5563L14006.4939,-3586.5614L14006.451,-3586.5794L14006.4289,-3586.5912L14006.3971,-3586.6126L14006.3863,-3586.6237L14006.3701,-3586.6346L14006.2524,-3586.7366L14006.1396,-3586.8352L14006.1364,-3586.8406L14006.1285,-3586.8471L14006.1161,-3586.8606L14006.0981,-3586.8871L14006.0946,-3586.8921L14006.0735,-3586.931L14006.0704,-3586.9368L14006.0347,-3587.0028L14005.9928,-3587.0804L14005.9866,-3587.0978L14005.9776,-3587.0978L14005.9479,-3587.0995L14005.9306,-3587.0995L14005.9229,-3587.0984L14005.8953,-3587.0944L14005.8468,-3587.0922L14005.8101,-3587.0883L14005.7376,-3587.0776L14005.5788,-3587.053L14005.5651,-3587.0499L14005.544,-3587.0461L14005.4336,-3587.0263L14005.417,-3587.0229L14005.4004,-3587.0206L14005.3863,-3587.019L14005.3711,-3587.0177"/>
<path content="1,阪東自動車,19,0.0,0.0,1.0," xlink:title="1" d="M14007.7098,-3586.6679L14007.6996,-3586.6064L14007.674,-3586.6098L14007.6476,-3586.6109L14007.6214,-3586.6109L14007.6053,-3586.6095L14007.5892,-3586.6059L14007.5719,-3586.6013L14007.422,-3586.555L14007.3698,-3586.5391L14007.3016,-3586.5191L14007.213,-3586.4915L14007.195,-3586.4864L14007.1611,-3586.4785L14007.1335,-3586.474L14007.1171,-3586.4738L14007.0982,-3586.4746L14007.0552,-3586.4808L14007.0428,-3586.4819L14007.0262,-3586.4847L14007.0026,-3586.4876L14006.9895,-3586.4898L14006.9708,-3586.4921L14006.8566,-3586.5078L14006.8289,-3586.5117L14006.7862,-3586.5177L14006.7057,-3586.527L14006.6614,-3586.5321L14006.6483,-3586.5343L14006.5929,-3586.5405L14006.5612,-3586.5448L14006.5532,-3586.5496L14006.514,-3586.5563L14006.4939,-3586.5614L14006.451,-3586.5794L14006.4289,-3586.5912L14006.3971,-3586.6126L14006.3863,-3586.6237L14006.3701,-3586.6346L14006.2524,-3586.7366L14006.1396,-3586.8352L14006.1364,-3586.8406L14006.1285,-3586.8471L14006.1161,-3586.8606L14006.0981,-3586.8871L14006.0946,-3586.8921L14006.0735,-3586.931L14006.0704,-3586.9368L14006.0347,-3587.0028L14005.9928,-3587.0804L14005.9866,-3587.0978L14005.9776,-3587.0978L14005.9479,-3587.0995L14005.9306,-3587.0995L14005.9229,-3587.0984L14005.8953,-3587.0944L14005.8468,-3587.0922L14005.8101,-3587.0883L14005.7376,-3587.0776L14005.5788,-3587.053L14005.5651,-3587.0499L14005.544,-3587.0461L14005.4336,-3587.0263L14005.417,-3587.0229L14005.4004,-3587.0206L14005.3863,-3587.019L14005.3711,-3587.0177"/>
<path content="1,阪東自動車,2,6.0,8.0,5.0," xlink:title="1" d="M14009.7656,-3586.424L14009.751,-3586.4267L14009.7272,-3586.4302L14009.6928,-3586.435L14009.6394,-3586.4477L14009.6,-3586.4625L14009.5316,-3586.4915L14009.5011,-3586.5016L14009.4946,-3586.505L14009.4555,-3586.5123L14009.4489,-3586.5137L14009.398,-3586.5225L14009.3199,-3586.5371L14009.3027,-3586.5423L14009.2354,-3586.5608L14009.2208,-3586.5653L14009.2132,-3586.5687L14009.1674,-3586.5886L14009.1489,-3586.5957L14009.1399,-3586.6002L14009.0478,-3586.6453L14008.9487,-3586.6934L14008.9101,-3586.7135L14008.8713,-3586.7355L14008.8166,-3586.7704L14008.7938,-3586.7845L14008.7626,-3586.8031L14008.759,-3586.8053L14008.7537,-3586.8086L14008.7142,-3586.8296L14008.7059,-3586.8341L14008.6692,-3586.851L14008.582,-3586.8848L14008.5371,-3586.9016L14008.4893,-3586.9147L14008.4464,-3586.9259L14008.4325,-3586.9277L14008.3266,-3586.9406L14008.2643,-3586.9491L14008.2512,-3586.9502L14008.2277,-3586.9536L14008.2021,-3586.9559L14008.1716,-3586.9598L14008.1501,-3586.9621L14008.0235,-3586.9767L14008.0005,-3586.9817L14007.9854,-3586.9812L14007.9515,-3586.9852L14007.9224,-3586.9886L14007.8449,-3586.9976L14007.7972,-3586.9976L14007.757,-3586.9942L14007.6504,-3586.9767L14007.5756,-3586.9676L14007.5376,-3586.957L14007.5203,-3586.9542L14007.4594,-3586.9429L14007.447,-3586.9401L14007.4345,-3586.9378L14007.4207,-3586.9367L14007.3694,-3586.9367L14007.3417,-3586.9389L14007.312,-3586.9434L14007.2741,-3586.9505L14007.2075,-3586.9542L14007.1847,-3586.9576L14007.1099,-3586.9654L14007.0601,-3586.9711L14007.0165,-3586.9767L14006.9556,-3586.9835L14006.9502,-3586.9851L14006.885,-3586.9919L14006.8635,-3586.9948L14006.7977,-3587.0023L14006.7272,-3587.0105L14006.6933,-3587.015L14006.6497,-3587.0201L14006.6152,-3587.0244L14006.5998,-3587.0263L14006.5839,-3587.028L14006.5147,-3587.0359L14006.4884,-3587.0415L14006.4683,-3587.0461L14006.4266,-3587.058L14006.4178,-3587.059L14006.3922,-3587.059L14006.3818,-3587.059L14006.3688,-3587.0621L14006.2371,-3587.0584L14006.2198,-3587.0594L14006.2018,-3587.0612L14006.1874,-3587.0625L14006.1687,-3587.0651L14006.1389,-3587.0708L14006.0454,-3587.0911L14006.0323,-3587.095L14006.0164,-3587.0968L14005.9866,-3587.0978L14005.9776,-3587.0978L14005.9479,-3587.0995L14005.9306,-3587.0995L14005.9229,-3587.0984L14005.8953,-3587.0944L14005.8468,-3587.0922L14005.8101,-3587.0883L14005.7376,-3587.0776L14005.5788,-3587.053L14005.5651,-3587.0499L14005.544,-3587.0461L14005.4336,-3587.0263L14005.417,-3587.0229L14005.4004,-3587.0206L14005.3863,-3587.019L14005.3711,-3587.0177"/>
<path content="1,阪東自動車,20,4.0,1.0,1.0," xlink:title="1" d="M14007.7098,-3586.6679L14007.6996,-3586.6064L14007.674,-3586.6098L14007.6476,-3586.6109L14007.6214,-3586.6109L14007.6053,-3586.6095L14007.5892,-3586.6059L14007.5719,-3586.6013L14007.422,-3586.555L14007.3698,-3586.5391L14007.3016,-3586.5191L14007.213,-3586.4915L14007.195,-3586.4864L14007.1611,-3586.4785L14007.1335,-3586.474L14007.1171,-3586.4738L14007.0982,-3586.4746L14007.0552,-3586.4808L14007.0428,-3586.4819L14007.0262,-3586.4847L14007.0026,-3586.4876L14006.9895,-3586.4898L14006.9708,-3586.4921L14006.8566,-3586.5078L14006.8289,-3586.5117L14006.7862,-3586.5177L14006.7057,-3586.527L14006.6614,-3586.5321L14006.6483,-3586.5343L14006.5929,-3586.5405L14006.5612,-3586.5448L14006.5532,-3586.5496L14006.514,-3586.5563L14006.4939,-3586.5614L14006.451,-3586.5794L14006.4289,-3586.5912L14006.3971,-3586.6126L14006.3863,-3586.6237L14006.3701,-3586.6346L14006.2524,-3586.7366L14006.1396,-3586.8352L14006.1364,-3586.8406L14006.1285,-3586.8471L14006.1161,-3586.8606L14006.0981,-3586.8871L14006.0946,-3586.8921L14006.0735,-3586.931L14006.0704,-3586.9368L14006.0347,-3587.0028L14005.9928,-3587.0804L14005.9866,-3587.0978L14005.9776,-3587.0978L14005.9479,-3587.0995L14005.9306,-3587.0995L14005.9229,-3587.0984L14005.8953,-3587.0944L14005.8468,-3587.0922L14005.8101,-3587.0883L14005.7376,-3587.0776L14005.5788,-3587.053L14005.5651,-3587.0499L14005.544,-3587.0461L14005.4336,-3587.0263L14005.417,-3587.0229L14005.4004,-3587.0206L14005.3863,-3587.019L14005.3711,-3587.0177"/>
<path content="1,阪東自動車,21,9.0,10.0,4.0," xlink:title="1" d="M14007.7098,-3586.6679L14007.6996,-3586.6064L14007.7233,-3586.6034L14007.7395,-3586.6007L14007.7549,-3586.5983L14007.7648,-3586.5962L14007.7874,-3586.5917L14007.8089,-3586.5873L14007.8325,-3586.5799L14007.8401,-3586.5771L14007.8553,-3586.5709L14007.8726,-3586.5619L14007.9148,-3586.5343L14007.9259,-3586.5253L14007.9936,-3586.4677L14007.9993,-3586.4639L14008.0293,-3586.4408L14007.9933,-3586.4086L14007.982,-3586.3985L14007.9651,-3586.3836L14007.9463,-3586.3671L14007.9211,-3586.3444L14007.8636,-3586.2956L14007.8496,-3586.2819L14007.802,-3586.2401L14007.7903,-3586.2244L14007.7834,-3586.2131L14007.773,-3586.1945L14007.7676,-3586.1872L14007.7614,-3586.1658L14007.7577,-3586.1534L14007.7577,-3586.1297L14007.7577,-3586.1263L14007.7612,-3586.0384L14007.7633,-3585.9578L14007.6968,-3585.9572L14007.6535,-3585.9587L14007.582,-3585.9556L14007.4207,-3585.9533L14007.2778,-3585.9544L14007.2027,-3585.9511L14007.13,-3585.9499L14007.0269,-3585.9488L14007.0089,-3585.9499L14006.9833,-3585.9511L14006.9542,-3585.9544L14006.9502,-3585.9549L14006.8324,-3585.9674L14006.7943,-3585.9713L14006.781,-3585.9769L14006.7508,-3585.9871L14006.7591,-3586.0254L14006.7618,-3586.0406L14006.7756,-3586.1105L14006.7881,-3586.1727L14006.7894,-3586.1776L14006.7937,-3586.1993L14006.8052,-3586.2547L14006.8186,-3586.3168L14006.8456,-3586.4504L14006.8525,-3586.4881L14006.8566,-3586.5078L14006.8289,-3586.5117L14006.7862,-3586.5177L14006.7057,-3586.527L14006.6614,-3586.5321L14006.6483,-3586.5343L14006.5929,-3586.5405L14006.5612,-3586.5448L14006.5532,-3586.5496L14006.514,-3586.5563L14006.4939,-3586.5614L14006.451,-3586.5794L14006.4289,-3586.5912L14006.3971,-3586.6126L14006.3863,-3586.6237L14006.3701,-3586.6346L14006.2524,-3586.7366L14006.1396,-3586.8352L14006.1364,-3586.8406L14006.1285,-3586.8471L14006.1161,-3586.8606L14006.0981,-3586.8871L14006.0946,-3586.8921L14006.0735,-3586.931L14006.0704,-3586.9368L14006.0347,-3587.0028L14005.9928,-3587.0804L14005.9866,-3587.0978L14005.9776,-3587.0978L14005.9479,-3587.0995L14005.9306,-3587.0995L14005.9229,-3587.0984L14005.8953,-3587.0944L14005.8468,-3587.0922L14005.8101,-3587.0883L14005.7376,-3587.0776L14005.5788,-3587.053L14005.5651,-3587.0499L14005.544,-3587.0461L14005.4336,-3587.0263L14005.417,-3587.0229L14005.4004,-3587.0206L14005.3863,-3587.019L14005.3711,-3587.0177"/>
<path content="1,阪東自動車,23,96.0,30.0,30.0," xlink:title="1" d="M14005.3711,-3587.7315L14005.3859,-3587.7261L14005.4018,-3587.7228L14005.4323,-3587.7214"/>
<path content="1,阪東自動車,24,11.0,11.0,11.0," xlink:title="1" d="M14005.3711,-3587.7315L14005.3859,-3587.7261L14005.4018,-3587.7228L14005.4323,-3587.7214L14005.4377,-3587.7172L14005.5132,-3587.7048L14005.5395,-3587.7008L14005.5706,-3587.6963L14005.5976,-3587.6924L14005.6025,-3587.6907L14005.7029,-3587.6766L14005.7298,-3587.6726L14005.7492,-3587.6687L14005.7596,-3587.667L14005.813,-3587.6627L14005.9423,-3587.6394L14005.9658,-3587.6354L14005.9783,-3587.6343L14006.0283,-3587.6263L14006.0343,-3587.6253L14006.039,-3587.6246L14006.0683,-3587.6202L14006.116,-3587.6129L14006.1816,-3587.6025L14006.2821,-3587.5864L14006.4072,-3587.5655L14006.5008,-3587.5509L14006.5237,-3587.5481L14006.5299,-3587.5464L14006.6391,-3587.5285L14006.7375,-3587.5126L14006.7846,-3587.5053L14006.8033,-3587.5025L14006.8691,-3587.4915L14006.9556,-3587.4777L14007.0088,-3587.4698L14007.0254,-3587.4664L14007.0914,-3587.4559L14007.1528,-3587.4461L14007.2164,-3587.4349L14007.2479,-3587.4338L14007.2822,-3587.4247L14007.3009,-3587.4213L14007.3978,-3587.4056L14007.4407,-3587.3988L14007.5791,-3587.3757L14007.6211,-3587.3697"/>
<path content="1,阪東自動車,3,5.0,1.0,6.0," xlink:title="1" d="M14009.7656,-3586.424L14009.751,-3586.4267L14009.7272,-3586.4302L14009.6928,-3586.435L14009.6394,-3586.4477L14009.6,-3586.4625L14009.5316,-3586.4915L14009.5011,-3586.5016L14009.4946,-3586.505L14009.4555,-3586.5123L14009.4489,-3586.5137L14009.398,-3586.5225L14009.3199,-3586.5371L14009.3027,-3586.5423L14009.2354,-3586.5608L14009.2208,-3586.5653L14009.2132,-3586.5687L14009.1674,-3586.5886L14009.1489,-3586.5957L14009.1399,-3586.6002L14009.0478,-3586.6453L14008.9487,-3586.6934L14008.9101,-3586.7135L14008.8713,-3586.7355L14008.8166,-3586.7704L14008.7938,-3586.7845L14008.7626,-3586.8031L14008.759,-3586.8053L14008.7537,-3586.8086L14008.7142,-3586.8296L14008.7059,-3586.8341L14008.6692,-3586.851L14008.582,-3586.8848L14008.5371,-3586.9016L14008.4893,-3586.9147L14008.4464,-3586.9259L14008.4325,-3586.9277L14008.3266,-3586.9406L14008.2643,-3586.9491L14008.2512,-3586.9502L14008.2277,-3586.9536L14008.2021,-3586.9559L14008.1716,-3586.9598L14008.1501,-3586.9621L14008.0235,-3586.9767L14008.0005,-3586.9817L14007.9854,-3586.9812L14007.9515,-3586.9852L14007.9224,-3586.9886L14007.8449,-3586.9976L14007.7972,-3586.9976L14007.757,-3586.9942L14007.6504,-3586.9767L14007.5756,-3586.9676L14007.5376,-3586.957L14007.5203,-3586.9542L14007.4594,-3586.9429L14007.447,-3586.9401L14007.4345,-3586.9378L14007.4207,-3586.9367L14007.3694,-3586.9367L14007.3417,-3586.9389L14007.312,-3586.9434L14007.2741,-3586.9505L14007.2075,-3586.9542L14007.1847,-3586.9576L14007.1099,-3586.9654L14007.0601,-3586.9711L14007.0165,-3586.9767L14006.9556,-3586.9835L14006.9502,-3586.9851L14006.885,-3586.9919L14006.8635,-3586.9948L14006.7977,-3587.0023L14006.7272,-3587.0105L14006.6933,-3587.015L14006.6497,-3587.0201L14006.6152,-3587.0244L14006.5998,-3587.0263L14006.5839,-3587.028L14006.5147,-3587.0359L14006.4884,-3587.0415L14006.4683,-3587.0461L14006.4266,-3587.058L14006.4178,-3587.059L14006.3922,-3587.059L14006.3818,-3587.059L14006.3688,-3587.0621L14006.2371,-3587.0584L14006.2198,-3587.0594L14006.2018,-3587.0612L14006.1874,-3587.0625L14006.1687,-3587.0651L14006.1389,-3587.0708L14006.0454,-3587.0911L14006.0323,-3587.095L14006.0164,-3587.0968L14005.9866,-3587.0978L14005.9776,-3587.0978L14005.9479,-3587.0995L14005.9306,-3587.0995L14005.9229,-3587.0984L14005.8953,-3587.0944L14005.8468,-3587.0922L14005.8101,-3587.0883L14005.7376,-3587.0776L14005.5788,-3587.053L14005.5651,-3587.0499L14005.544,-3587.0461L14005.4336,-3587.0263L14005.417,-3587.0229L14005.4004,-3587.0206L14005.3863,-3587.019L14005.3711,-3587.0177"/>
<path content="1,阪東自動車,44,31.0,12.0,12.0," xlink:title="1" d="M14005.4323,-3587.7214L14005.4018,-3587.7228L14005.3859,-3587.7261L14005.3711,-3587.7315"/>
<path content="1,阪東自動車,45,13.0,12.0,12.0," xlink:title="1" d="M14005.4323,-3587.7214L14005.4018,-3587.7228L14005.3859,-3587.7261L14005.3711,-3587.7315"/>
<path content="1,阪東自動車,46,9.0,0.0,0.0," xlink:title="1" d="M14005.3711,-3587.7315L14005.3859,-3587.7261L14005.4018,-3587.7228L14005.4323,-3587.7214L14005.4377,-3587.7172L14005.5132,-3587.7048L14005.5395,-3587.7008L14005.5706,-3587.6963L14005.5976,-3587.6924L14005.6025,-3587.6907L14005.7029,-3587.6766L14005.7298,-3587.6726L14005.7492,-3587.6687L14005.7596,-3587.667L14005.813,-3587.6627L14005.9423,-3587.6394L14005.9423,-3587.6287L14005.9534,-3587.5013L14005.9562,-3587.4709L14005.9672,-3587.3464L14005.9672,-3587.3379L14005.9762,-3587.2413L14005.9818,-3587.1773L14005.9845,-3587.1407L14005.9866,-3587.1254L14005.9866,-3587.0978L14005.9928,-3587.0804L14006.0347,-3587.0028L14006.0704,-3586.9368L14006.0735,-3586.931L14006.0946,-3586.8921L14006.0981,-3586.8871L14006.1161,-3586.8606L14006.1285,-3586.8471L14006.1364,-3586.8406L14006.1396,-3586.8352L14006.2524,-3586.7366L14006.3701,-3586.6346L14006.3863,-3586.6237L14006.3971,-3586.6126L14006.4289,-3586.5912L14006.451,-3586.5794L14006.4939,-3586.5614L14006.514,-3586.5563L14006.5532,-3586.5496L14006.5612,-3586.5448L14006.5929,-3586.5405L14006.6483,-3586.5343L14006.6614,-3586.5321L14006.7057,-3586.527L14006.7862,-3586.5177L14006.8289,-3586.5117L14006.8566,-3586.5078L14006.9708,-3586.4921L14006.9895,-3586.4898L14007.0026,-3586.4876L14007.0262,-3586.4847L14007.0428,-3586.4819L14007.0552,-3586.4808L14007.0982,-3586.4746L14007.1171,-3586.4738L14007.1335,-3586.474L14007.1611,-3586.4785L14007.195,-3586.4864L14007.213,-3586.4915L14007.3016,-3586.5191L14007.3698,-3586.5391L14007.422,-3586.555L14007.5719,-3586.6013L14007.5892,-3586.6059L14007.6053,-3586.6095L14007.6214,-3586.6109L14007.6476,-3586.6109L14007.674,-3586.6098L14007.6996,-3586.6064L14007.7098,-3586.6679"/>
<path content="3,取手市,中央循環東ルート,10.0,10.0,10.0," xlink:title="3" d="M14008.8318,-3589.189L14008.8899,-3589.1587L14008.9363,-3589.1356L14008.9626,-3589.1238L14008.9938,-3589.1086L14009.0464,-3589.0854L14009.0574,-3589.0821L14009.063,-3589.0793L14009.0882,-3589.0711L14009.1074,-3589.066L14009.125,-3589.061L14009.1384,-3589.0563L14009.0955,-3589.033L14009.0588,-3589.0128L14009.0035,-3588.9806L14008.9813,-3588.9671L14008.9682,-3588.9604L14008.9397,-3588.9461"/>
<path content="3,取手市,中央循環東ルート,10.0,10.0,10.0," xlink:title="3" d="M14008.8318,-3589.189L14008.7363,-3589.2336L14008.7065,-3589.2455L14008.67,-3589.255L14008.6415,-3589.2624L14008.6108,-3589.2718L14008.555,-3589.2827L14008.5292,-3589.2876L14008.5107,-3589.2911L14008.4954,-3589.2928L14008.4401,-3589.2985L14008.3425,-3589.2979L14008.2946,-3589.2979L14008.292,-3589.2979L14008.2514,-3589.3035L14008.2401,-3589.3013L14008.1805,-3589.3064L14008.0933,-3589.3148L14008.0726,-3589.3159L14008.0477,-3589.3193L14007.9356,-3589.3287L14007.8814,-3589.3359L14007.8698,-3589.3328L14007.8335,-3589.3335L14007.8281,-3589.3336L14007.6843,-3589.3347L14007.6847,-3589.3794L14007.6859,-3589.3963L14007.6891,-3589.4095L14007.6957,-3589.4346L14007.7043,-3589.4512L14007.7162,-3589.4753L14007.7466,-3589.5257L14007.7508,-3589.5372L14007.7521,-3589.5451L14007.7533,-3589.5506L14007.7533,-3589.5556L14007.7508,-3589.5605L14007.7484,-3589.5643L14007.7418,-3589.5701L14007.7175,-3589.5836L14007.6974,-3589.5921L14007.6753,-3589.6028L14007.6988,-3589.6185L14007.7736,-3589.6738L14007.7936,-3589.6873L14007.8158,-3589.7036L14007.8525,-3589.7262L14007.8891,-3589.7476L14007.9154,-3589.7611L14007.9279,-3589.7665L14007.9348,-3589.7696L14007.9423,-3589.7728L14007.9443,-3589.7834L14007.9589,-3589.8261L14007.9702,-3589.8576L14007.9846,-3589.8901L14007.9957,-3589.9167L14007.9963,-3589.9274L14007.9975,-3589.9568L14007.9576,-3589.9578L14007.9422,-3589.9577L14007.9315,-3589.957L14007.9078,-3589.9503L14007.8375,-3589.9239L14007.75,-3589.8907L14007.6456,-3589.8487L14007.6412,-3589.8569L14007.63,-3589.8759L14007.62,-3589.896L14007.6097,-3589.9144L14007.6034,-3589.9265L14007.5897,-3589.9513L14007.5817,-3589.9687L14007.5744,-3589.9901L14007.5707,-3590.0096L14007.5697,-3590.0227L14007.5707,-3590.0356L14007.5729,-3590.0479L14007.5766,-3590.0605L14007.5846,-3590.0767L14007.5858,-3590.0801L14007.5858,-3590.0838L14007.5806,-3590.0946L14007.5761,-3590.104L14007.6074,-3590.1156L14007.6386,-3590.1246L14007.6988,-3590.1308L14007.7049,-3590.1547L14007.7106,-3590.1606L14007.7237,-3590.257L14007.7258,-3590.2711L14007.7254,-3590.3111L14007.7252,-3590.332"/>
<path content="3,取手市,中央循環東ルート,10.0,10.0,10.0," xlink:title="3" d="M14006.2267,-3589.3159L14006.235,-3589.3125L14006.2433,-3589.3097L14006.2765,-3589.2945L14006.343,-3589.2663L14006.3561,-3589.2596L14006.3776,-3589.246L14006.4267,-3589.2049L14006.4785,-3589.1632L14006.4918,-3589.1508L14006.6136,-3589.0516L14006.6309,-3589.0398L14006.6503,-3589.0313L14006.6724,-3589.0212L14006.6842,-3589.0153L14006.6963,-3589.013L14006.7119,-3588.9986L14006.734,-3588.9806L14006.7527,-3588.9671L14006.7908,-3588.9434L14006.8109,-3588.9338L14006.8358,-3588.9237L14006.8503,-3588.9141L14006.905,-3588.873L14006.9188,-3588.8651L14006.9223,-3588.8622L14006.9424,-3588.8504L14006.9617,-3588.8409L14007.0037,-3588.8329L14007.0282,-3588.8228L14007.0586,-3588.8251L14007.1112,-3588.8364L14007.1846,-3588.8516L14007.2331,-3588.8623L14007.2372,-3588.8628L14007.2537,-3588.871L14007.2614,-3588.8685L14007.3299,-3588.8831L14007.3645,-3588.8899L14007.3805,-3588.8933L14007.3915,-3588.8955L14007.4614,-3588.9096L14007.4954,-3588.9175L14007.5158,-3588.9253L14007.5237,-3588.913L14007.5452,-3588.891L14007.5715,-3588.8702L14007.586,-3588.8612L14007.6033,-3588.851L14007.6248,-3588.842L14007.6504,-3588.8364L14007.6641,-3588.8357L14007.6834,-3588.8256L14007.6933,-3588.8234L14007.8338,-3588.7839L14007.9266,-3588.76L14007.957,-3588.7479L14007.9856,-3588.7393L14008.056,-3588.7479L14008.0954,-3588.7541L14008.1446,-3588.7665L14008.1619,-3588.7721L14008.2664,-3588.8252L14008.2837,-3588.8341L14008.3667,-3588.8769L14008.3792,-3588.8826L14008.4046,-3588.8966L14008.4089,-3588.8989L14008.4961,-3588.9434L14008.501,-3588.9459L14008.5478,-3588.9726L14008.6415,-3589.0174L14008.7052,-3589.0494L14008.7301,-3589.0635L14008.7529,-3589.0826L14008.7873,-3589.1278L14008.8318,-3589.189"/>
<path content="3,取手市,中央循環東ルート,10.0,10.0,10.0," xlink:title="3" d="M14006.2267,-3589.3159L14006.2025,-3589.326L14006.1158,-3589.3608L14006.0703,-3589.3801L14006.0384,-3589.3965L14005.9782,-3589.4331L14005.9194,-3589.4703L14005.8696,-3589.5018L14005.8419,-3589.5193L14005.8239,-3589.5317L14005.8206,-3589.5338L14005.7851,-3589.556L14005.7734,-3589.5635L14005.7026,-3589.6108L14005.6792,-3589.6179L14005.646,-3589.6376L14005.5899,-3589.6726L14005.5588,-3589.6962L14005.5477,-3589.7069L14005.5242,-3589.7323L14005.5172,-3589.7413L14005.5015,-3589.7655L14005.4974,-3589.7757L14005.4951,-3589.7887L14005.493,-3589.8089L14005.4923,-3589.8738L14005.4937,-3589.9143L14005.4958,-3589.9448L14005.4522,-3589.9566L14005.4453,-3589.9583L14005.4026,-3589.9647L14005.3974,-3589.963L14005.3892,-3589.9668L14005.3711,-3589.9692"/>
<path content="3,取手市,中央循環東ルート,10.0,10.0,10.0," xlink:title="3" d="M14006.3281,-3589.5003L14006.2966,-3589.4427L14006.2904,-3589.4326L14006.2468,-3589.3519L14006.2267,-3589.3159"/>
<path content="3,取手市,中央循環西ルート,7.0,7.0,7.0," xlink:title="3" d="M14006.2831,-3589.6226L14006.3001,-3589.6547"/>
<path content="3,取手市,中央循環西ルート,7.0,7.0,7.0," xlink:title="3" d="M14006.2831,-3589.6226L14006.2744,-3589.5938L14006.2678,-3589.5817L14006.1158,-3589.3608L14006.2025,-3589.326L14006.2267,-3589.3159L14006.2468,-3589.3519L14006.2904,-3589.4326L14006.2966,-3589.4427L14006.3281,-3589.5003L14006.3444,-3589.5181L14006.3511,-3589.5315L14006.3762,-3589.5193L14006.4094,-3589.5013L14006.435,-3589.4866L14006.4793,-3589.4528L14006.5167,-3589.419L14006.5368,-3589.4004L14006.5818,-3589.3553L14006.5894,-3589.3497L14006.6094,-3589.3441L14006.6254,-3589.3452L14006.6832,-3589.3578L14006.6814,-3589.3982L14006.6786,-3589.4145L14006.7139,-3589.4433L14006.7204,-3589.45L14006.7395,-3589.4596L14006.7707,-3589.4765L14006.8184,-3589.4979L14006.8247,-3589.503L14006.8551,-3589.5481L14006.8551,-3589.5486L14006.8657,-3589.5619L14006.8759,-3589.5724L14006.8994,-3589.5971L14006.916,-3589.6196L14006.9363,-3589.6516L14006.9465,-3589.667L14006.961,-3589.6867L14006.9672,-3589.6963L14006.9838,-3589.716L14006.9956,-3589.7239L14007.0011,-3589.7279L14007.0067,-3589.7296L14007.0434,-3589.7301L14007.0555,-3589.7366L14007.072,-3589.741L14007.0988,-3589.7459L14007.1119,-3589.7464L14007.1233,-3589.7445L14007.1458,-3589.7414L14007.161,-3589.7374L14007.2171,-3589.7262L14007.2607,-3589.7171L14007.2655,-3589.7154L14007.2773,-3589.7137L14007.3438,-3589.6991L14007.3472,-3589.7109L14007.3613,-3589.7647L14007.3763,-3589.8062L14007.3799,-3589.8174L14007.3797,-3589.8293L14007.3867,-3589.8434L14007.3867,-3589.849L14007.3818,-3589.8608L14007.3735,-3589.8834L14007.3684,-3589.8936L14007.3665,-3589.8956L14007.3633,-3589.8962L14007.3521,-3589.8975L14007.3327,-3589.8997L14007.323,-3589.902L14007.323,-3589.9245L14007.3164,-3589.9364L14007.3071,-3589.9538L14007.2847,-3589.9981L14007.251,-3590.0458L14007.2358,-3590.0699L14007.2205,-3590.0908L14007.2153,-3590.1009L14007.2088,-3590.106L14007.1936,-3590.1234L14007.1686,-3590.1539L14007.1451,-3590.1764L14007.1022,-3590.2012L14007.0836,-3590.2125L14007.0778,-3590.2189L14007.0745,-3590.2243L14007.0712,-3590.2312L14007.0683,-3590.2429L14007.0668,-3590.2536L14007.0662,-3590.2666L14007.0648,-3590.306L14007.0627,-3590.3123L14007.0586,-3590.3168L14007.0537,-3590.3201L14007.0433,-3590.3241L14007.0378,-3590.3252L14007.0316,-3590.3252L14006.9188,-3590.3308L14006.9091,-3590.3314L14006.8973,-3590.332"/>
<path content="3,取手市,中央循環西ルート,7.0,7.0,7.0," xlink:title="3" d="M14005.3711,-3589.9692L14005.3892,-3589.9668L14005.3974,-3589.963L14005.4026,-3589.9647L14005.4453,-3589.9583L14005.4522,-3589.9566L14005.4958,-3589.9448L14005.5221,-3589.9341L14005.5885,-3589.9031L14005.646,-3589.8749L14005.6571,-3589.8698L14005.7021,-3589.8467L14005.8398,-3589.7802L14005.8896,-3589.7549L14005.9086,-3589.7471L14005.9139,-3589.7431L14005.9251,-3589.7376L14006.0315,-3589.6844L14006.0453,-3589.6788L14006.0606,-3589.6748L14006.0959,-3589.6715L14006.1997,-3589.6647L14006.2561,-3589.6588L14006.2716,-3589.6489L14006.2831,-3589.6226"/>
<path content="3,取手市,北部ルート,5.0,5.0,5.0," xlink:title="3" d="M14007.224,-3590.332L14007.225,-3590.3222L14007.2268,-3590.3022L14007.2294,-3590.2695L14007.2446,-3590.2036L14007.2464,-3590.1891L14007.2482,-3590.1749L14007.2482,-3590.1516L14007.2434,-3590.1297L14007.2392,-3590.1218L14007.2205,-3590.0908L14007.2358,-3590.0699L14007.251,-3590.0458L14007.2847,-3589.9981L14007.242,-3589.991L14007.1225,-3589.9819L14007.0884,-3589.9792L14007.0461,-3589.9764L14006.9963,-3589.973L14006.9188,-3589.9662L14006.9029,-3589.9651L14006.8629,-3589.9612L14006.8318,-3589.9585L14006.8156,-3589.9572L14006.7367,-3589.951L14006.7049,-3589.9454L14006.6842,-3589.9296L14006.6731,-3589.9183L14006.6613,-3589.9087L14006.6555,-3589.9051L14006.6496,-3589.902L14006.635,-3589.9009L14006.6177,-3589.8969L14006.608,-3589.8924L14006.5767,-3589.8675L14006.5406,-3589.8341L14006.5076,-3589.7967L14006.4894,-3589.7752L14006.4732,-3589.7499L14006.4631,-3589.7323L14006.4523,-3589.716L14006.4352,-3589.6898L14006.4052,-3589.6401L14006.3825,-3589.6008L14006.3814,-3589.5954L14006.3854,-3589.5924L14006.3973,-3589.5822L14006.3814,-3589.57L14006.3656,-3589.555L14006.3546,-3589.5406L14006.3511,-3589.5315L14006.3444,-3589.5181L14006.3281,-3589.5003"/>
<path content="3,取手市,東南部ルート,7.0,7.0,7.0," xlink:title="3" d="M14008.9397,-3588.9461L14008.9682,-3588.9604L14008.9813,-3588.9671L14009.0035,-3588.9806L14009.0588,-3589.0128L14009.0955,-3589.033L14009.1384,-3589.0563L14009.125,-3589.061L14009.1074,-3589.066L14009.0882,-3589.0711L14009.063,-3589.0793L14009.0574,-3589.0821L14009.0464,-3589.0854L14008.9938,-3589.1086L14008.9626,-3589.1238L14008.9363,-3589.1356L14008.8899,-3589.1587L14008.8318,-3589.189L14008.7363,-3589.2336L14008.7065,-3589.2455L14008.67,-3589.255L14008.6415,-3589.2624L14008.6108,-3589.2718L14008.555,-3589.2827L14008.5292,-3589.2876L14008.5107,-3589.2911L14008.4954,-3589.2928L14008.4401,-3589.2985L14008.3425,-3589.2979L14008.2946,-3589.2979L14008.292,-3589.2979L14008.2514,-3589.3035L14008.2401,-3589.3013L14008.1805,-3589.3064L14008.0933,-3589.3148L14008.0726,-3589.3159L14008.0477,-3589.3193L14007.9356,-3589.3287"/>
<path content="3,取手市,東南部ルート,7.0,7.0,7.0," xlink:title="3" d="M14007.9356,-3589.3287L14007.8814,-3589.3359L14007.8698,-3589.3328L14007.8335,-3589.3335L14007.8281,-3589.3336L14007.6843,-3589.3347L14007.6594,-3589.3356L14007.6303,-3589.339L14007.6026,-3589.3457L14007.5752,-3589.3521L14007.5564,-3589.3576L14007.5137,-3589.365L14007.4434,-3589.3756L14007.3754,-3589.3833L14007.3611,-3589.3847L14007.3168,-3589.3892L14007.3057,-3589.3909L14007.2713,-3589.3929L14007.2267,-3589.3934L14007.1834,-3589.3909L14007.1562,-3589.3841L14007.1119,-3589.3705L14007.0932,-3589.3621L14007.0615,-3589.3517L14007.0365,-3589.3424L14007.0053,-3589.3339L14006.9804,-3589.33L14006.9686,-3589.33L14006.9492,-3589.3306L14006.9174,-3589.3367L14006.8517,-3589.3526L14006.8302,-3589.3565L14006.8129,-3589.3582L14006.7133,-3589.3604L14006.6832,-3589.3578L14006.6254,-3589.3452L14006.6094,-3589.3441L14006.5894,-3589.3497L14006.5818,-3589.3553L14006.5368,-3589.4004L14006.5167,-3589.419L14006.4793,-3589.4528L14006.435,-3589.4866L14006.4094,-3589.5013L14006.3762,-3589.5193L14006.3511,-3589.5315L14006.3444,-3589.5181L14006.3281,-3589.5003"/>
<path content="3,取手市,東南部ルート,7.0,7.0,7.0," xlink:title="3" d="M14007.9356,-3589.3287L14008.0196,-3589.4439L14008.0616,-3589.4954L14008.0854,-3589.5282L14008.1074,-3589.5581L14008.1355,-3589.5904L14008.1489,-3589.6093L14008.2039,-3589.6729L14008.2712,-3589.7397L14008.2989,-3589.7679L14008.3577,-3589.8282L14008.3844,-3589.8573L14008.4016,-3589.8739L14008.4261,-3589.9044L14008.4372,-3589.91L14008.447,-3589.9223L14008.4684,-3589.9561L14008.5009,-3590.0164L14008.5086,-3590.0356L14008.5106,-3590.0431L14008.512,-3590.0485L14008.5148,-3590.0649L14008.5162,-3590.0847L14008.5183,-3590.119L14008.5224,-3590.1421L14008.5245,-3590.1562L14008.5356,-3590.1894L14008.5543,-3590.2424L14008.5639,-3590.2615L14008.5737,-3590.2863L14008.5854,-3590.3004L14008.5986,-3590.3247L14008.6018,-3590.332"/>
<path content="3,取手市,東南部ルート,7.0,7.0,7.0," xlink:title="3" d="M14009.7656,-3589.0081L14009.7461,-3589.0173L14009.7316,-3589.0212L14009.6848,-3589.0229L14009.6021,-3589.0212L14009.586,-3589.0204L14009.5592,-3589.019L14009.505,-3589.0139L14009.4965,-3589.0134L14009.4359,-3589.008L14009.4007,-3589.0054L14009.3549,-3589.0054L14009.3474,-3589.0054L14009.3205,-3589.0094L14009.3098,-3589.0139"/>
<path content="3,取手市,西部ルート,3.5,3.5,3.5," xlink:title="3" d="M14006.2359,-3589.9839L14006.2289,-3589.9706L14006.21,-3589.9372L14006.1518,-3589.8405L14006.1451,-3589.8263L14006.1197,-3589.7821L14006.0619,-3589.702L14006.0453,-3589.6788L14006.0606,-3589.6748L14006.0959,-3589.6715L14006.1997,-3589.6647L14006.2561,-3589.6588L14006.2688,-3589.6666L14006.2809,-3589.6737L14006.2923,-3589.6804L14006.3001,-3589.6547L14006.2831,-3589.6226L14006.2744,-3589.5938L14006.2678,-3589.5817L14006.1158,-3589.3608L14006.2025,-3589.326L14006.2267,-3589.3159L14006.2468,-3589.3519L14006.2904,-3589.4326L14006.2966,-3589.4427L14006.3281,-3589.5003L14006.3444,-3589.5181L14006.3511,-3589.5315L14006.3546,-3589.5406L14006.3656,-3589.555L14006.3814,-3589.57L14006.3973,-3589.5822L14006.3854,-3589.5924L14006.3814,-3589.5954L14006.3825,-3589.6008L14006.4052,-3589.6401L14006.4352,-3589.6898L14006.4523,-3589.716L14006.4631,-3589.7323L14006.4732,-3589.7499L14006.4587,-3589.7571L14006.4048,-3589.7834L14006.3939,-3589.7892L14006.3835,-3589.7976L14006.3741,-3589.8073L14006.3665,-3589.818L14006.3533,-3589.8327L14006.3429,-3589.8394L14006.3062,-3589.8614L14006.2903,-3589.8738L14006.2772,-3589.8884L14006.2661,-3589.9076L14006.2633,-3589.9161L14006.2552,-3589.9514L14006.2374,-3589.9868"/>
<path content="3,取手市,西部ルート,3.5,3.5,3.5," xlink:title="3" d="M14006.2359,-3589.9839L14006.2191,-3590.04L14006.2142,-3590.0637L14006.2134,-3590.0839L14006.2138,-3590.0952L14006.2149,-3590.1054L14006.2217,-3590.1429L14006.2273,-3590.1491L14006.226,-3590.1719L14006.2322,-3590.2079L14006.2322,-3590.235L14006.2301,-3590.2423L14006.2191,-3590.2598L14006.2024,-3590.2761L14006.1727,-3590.2981L14006.1623,-3590.3043L14006.1346,-3590.3218L14006.1167,-3590.332"/>
<path content="3,取手市,西部ルート,3.5,3.5,3.5," xlink:title="3" d="M14006.2374,-3589.9868L14006.2359,-3589.9839"/>
<path content="3,取手市,西部ルート,3.5,3.5,3.5," xlink:title="3" d="M14006.27,-3590.332L14006.2704,-3590.3318L14006.2945,-3590.3167L14006.3138,-3590.3043L14006.3249,-3590.2981L14006.3616,-3590.2744L14006.3921,-3590.2559L14006.4073,-3590.248L14006.4003,-3590.2372L14006.3791,-3590.2175L14006.3656,-3590.2008L14006.3562,-3590.189L14006.3359,-3590.1614L14006.3225,-3590.1382L14006.2464,-3590.0041L14006.2374,-3589.9868"/>
<path content="3,我孫子市,1新木ルート,2.0,2.0,2.0," xlink:title="3" d="M14007.7098,-3586.6679L14007.7494,-3586.6651L14007.8567,-3586.6504L14007.8733,-3586.6484L14007.9398,-3586.6397L14008.0025,-3586.6308L14008.0581,-3586.6234L14008.1003,-3586.6177L14008.1112,-3586.6169L14008.1308,-3586.6143L14008.1412,-3586.6126L14008.1369,-3586.5707L14008.1516,-3586.5354L14008.1633,-3586.4859L14008.1633,-3586.4825L14008.2104,-3586.4842L14008.2374,-3586.4814L14008.2629,-3586.4768L14008.2726,-3586.474L14008.2816,-3586.4729L14008.302,-3586.4966L14008.3277,-3586.5339L14008.3475,-3586.5589L14008.3514,-3586.5628L14008.3551,-3586.5653L14008.3593,-3586.5667L14008.3638,-3586.5662L14008.3862,-3586.5563L14008.4415,-3586.5326L14008.4927,-3586.5095L14008.508,-3586.5005L14008.5219,-3586.4915L14008.5319,-3586.4863L14008.5371,-3586.4843L14008.5554,-3586.4815L14008.6021,-3586.4644L14008.6858,-3586.4289L14008.8181,-3586.3754L14008.8312,-3586.3697L14008.8976,-3586.3466L14008.9059,-3586.3444L14008.9613,-3586.3247L14008.9751,-3586.3173L14009.0001,-3586.2965L14009.0077,-3586.3061L14009.0243,-3586.3241L14009.029,-3586.3306L14009.0358,-3586.3464L14009.0437,-3586.3658L14009.0471,-3586.3838L14009.0471,-3586.4148L14009.0439,-3586.4342L14009.0423,-3586.4571L14009.0433,-3586.4635L14009.0458,-3586.4689L14009.0525,-3586.4851L14009.0584,-3586.4956L14009.0608,-3586.4987L14009.0732,-3586.5118L14009.0997,-3586.5431L14009.1223,-3586.5736L14009.1399,-3586.6002L14009.1489,-3586.5957L14009.1674,-3586.5886L14009.2132,-3586.5687L14009.2208,-3586.5653L14009.2354,-3586.5608L14009.3027,-3586.5423L14009.3179,-3586.5884L14009.3226,-3586.6008L14009.3244,-3586.6104L14009.3324,-3586.6294L14009.3424,-3586.6554L14009.3542,-3586.6893L14009.3686,-3586.7236L14009.3752,-3586.7372L14009.3999,-3586.798L14009.4132,-3586.7947L14009.4345,-3586.7907L14009.4645,-3586.78L14009.4979,-3586.7703L14009.5095,-3586.7667L14009.5364,-3586.7586L14009.5422,-3586.7571L14009.5632,-3586.7515L14009.607,-3586.7389L14009.6304,-3586.732L14009.6407,-3586.745L14009.6455,-3586.76L14009.6511,-3586.7823L14009.6574,-3586.8325L14009.6596,-3586.8459L14009.6619,-3586.8554L14009.665,-3586.8623L14009.6689,-3586.8667L14009.6748,-3586.8716L14009.6814,-3586.8753L14009.6909,-3586.8789L14009.6998,-3586.8809L14009.7139,-3586.8811L14009.7281,-3586.8798L14009.7385,-3586.8775L14009.7656,-3586.8698M14009.7656,-3586.5277L14009.7475,-3586.5114L14009.737,-3586.5008L14009.7282,-3586.4912L14009.7251,-3586.4857L14009.7229,-3586.4798L14009.7272,-3586.4302L14009.751,-3586.4267L14009.7656,-3586.424"/>
<path content="3,我孫子市,6新木ルート,8.0,8.0,8.0," xlink:title="3" d="M14007.7098,-3586.6679L14007.7494,-3586.6651L14007.8567,-3586.6504L14007.8733,-3586.6484L14007.9398,-3586.6397L14008.0025,-3586.6308L14008.0581,-3586.6234L14008.1003,-3586.6177L14008.1112,-3586.6169L14008.1308,-3586.6143L14008.1412,-3586.6126L14008.1369,-3586.5707L14008.1516,-3586.5354L14008.1633,-3586.4859L14008.1633,-3586.4825L14008.2104,-3586.4842L14008.2374,-3586.4814L14008.2629,-3586.4768L14008.2726,-3586.474L14008.2816,-3586.4729L14008.302,-3586.4966L14008.3277,-3586.5339L14008.3475,-3586.5589L14008.3514,-3586.5628L14008.3551,-3586.5653L14008.3593,-3586.5667L14008.3638,-3586.5662L14008.3862,-3586.5563L14008.4415,-3586.5326L14008.4927,-3586.5095L14008.508,-3586.5005L14008.5219,-3586.4915L14008.5319,-3586.4863L14008.5371,-3586.4843L14008.5554,-3586.4815L14008.6021,-3586.4644L14008.6858,-3586.4289L14008.8181,-3586.3754L14008.8312,-3586.3697L14008.8976,-3586.3466L14008.9059,-3586.3444L14008.9613,-3586.3247L14008.9751,-3586.3173L14009.0001,-3586.2965L14009.0077,-3586.3061L14009.0243,-3586.3241L14009.029,-3586.3306L14009.0358,-3586.3464L14009.0437,-3586.3658L14009.0471,-3586.3838L14009.0471,-3586.4148L14009.0439,-3586.4342L14009.0423,-3586.4571L14009.0433,-3586.4635L14009.0458,-3586.4689L14009.0525,-3586.4851L14009.0584,-3586.4956L14009.0608,-3586.4987L14009.0732,-3586.5118L14009.0997,-3586.5431L14009.1223,-3586.5736L14009.1399,-3586.6002L14009.1489,-3586.5957L14009.1674,-3586.5886L14009.2132,-3586.5687L14009.2208,-3586.5653L14009.2354,-3586.5608L14009.3027,-3586.5423L14009.3179,-3586.5884L14009.3226,-3586.6008L14009.3244,-3586.6104L14009.3324,-3586.6294L14009.3424,-3586.6554L14009.3542,-3586.6893L14009.3686,-3586.7236L14009.3752,-3586.7372L14009.3999,-3586.798L14009.4132,-3586.7947L14009.4345,-3586.7907L14009.4645,-3586.78L14009.4979,-3586.7703L14009.5095,-3586.7667L14009.5364,-3586.7586L14009.5422,-3586.7571L14009.5632,-3586.7515L14009.607,-3586.7389L14009.6304,-3586.732L14009.6407,-3586.745L14009.6455,-3586.76L14009.6511,-3586.7823L14009.6574,-3586.8325L14009.6596,-3586.8459L14009.6619,-3586.8554L14009.665,-3586.8623L14009.6689,-3586.8667L14009.6748,-3586.8716L14009.6814,-3586.8753L14009.6909,-3586.8789L14009.6998,-3586.8809L14009.7139,-3586.8811L14009.7281,-3586.8798L14009.7385,-3586.8775L14009.7656,-3586.8698"/>
<path content="3,我孫子市,6新木ルート,8.0,8.0,8.0," xlink:title="3" d="M14009.7656,-3586.5277L14009.7475,-3586.5114L14009.737,-3586.5008L14009.7282,-3586.4912L14009.7251,-3586.4857L14009.7229,-3586.4798L14009.7272,-3586.4302L14009.751,-3586.4267L14009.7656,-3586.424"/>
</g>
</svg>
