<?xml version="1.0" encoding="UTF-8"?>
<svg  xmlns="http://www.w3.org/2000/svg" xmlns:xlink="http://www.w3.org/1999/xlink" xmlns:go="http://purl.org/svgmap/profile" property="N07_001,N07_002,N07_003,N07_004,N07_005,N07_006,N07_007" viewBox="13954.010009765625 -3566.436767578125 0.274658203125 0.274658203125" go:dataArea="13954.010009765625 -3566.436767578125 0.274658203125 0.274658203125" >
<metadata>
 <rdf:RDF xmlns:rdf="http://www.w3.org/1999/02/22-rdf-syntax-ns#" xmlns:crs="http://opengis.org/xmldtds/transformations.dtd" xmlns:svg="http://www.w3.org/svg" >
  <rdf:Description>
   <crs:CoordinateReferenceSystem rdf:resource="http://purl.org/crs/84" svg:transform="matrix(100.0,0.0,0.0,-100.0,0.0,0.0)" />
  </rdf:Description>
 </rdf:RDF>
</metadata>
<globalCoordinateSystem srsName="http://purl.org/crs/84" transform="matrix(100.0,0.0,0.0,-100.0,0.0,0.0)" />
<defs>
 <g id="p0" >
  <circle cx="0.0" cy="0.0" r="3" stroke="green" stroke-width="0.75" vector-effect="non-scaling-stroke" />
 </g>
</defs>
<g fill="none" fill-rule="evenodd" stroke="#FF00FF" stroke-width="0.75" opacity="0.5" vector-effect="non-scaling-stroke" stroke-linejoin="bevel" >
<path content="1,JRバス関東（株）,プレミアム中央ドリーム号/中央ドリーム号/プレミアムドリーム号/ドリーム号/レディースドリーム号/プレミアムレディース,9.4,12.0,12.0," xlink:title="1" d="M13954.01,-3566.2672L13954.0157,-3566.2683L13954.03,-3566.2711L13954.0334,-3566.2717L13954.0347,-3566.2719L13954.0354,-3566.272L13954.0389,-3566.2726L13954.0396,-3566.2727L13954.0403,-3566.2728L13954.0602,-3566.276L13954.1079,-3566.2838L13954.1196,-3566.2858L13954.1388,-3566.2881L13954.1403,-3566.2883L13954.1424,-3566.2886L13954.1508,-3566.2898L13954.1552,-3566.2904L13954.2058,-3566.2976L13954.2289,-3566.2998L13954.2319,-3566.3L13954.2325,-3566.3001L13954.2367,-3566.3005L13954.2443,-3566.3012L13954.2472,-3566.3015L13954.2491,-3566.3016L13954.2658,-3566.3033L13954.2732,-3566.3037L13954.2847,-3566.3044"/>
<path content="1,JRバス関東（株）,中央ドリーム名古屋号,1.0,1.0,1.0," xlink:title="1" d="M13954.01,-3566.2672L13954.0157,-3566.2683L13954.03,-3566.2711L13954.0334,-3566.2717L13954.0347,-3566.2719L13954.0354,-3566.272L13954.0389,-3566.2726L13954.0396,-3566.2727L13954.0403,-3566.2728L13954.0602,-3566.276L13954.1079,-3566.2838L13954.1196,-3566.2858L13954.1388,-3566.2881L13954.1403,-3566.2883L13954.1424,-3566.2886L13954.1508,-3566.2898L13954.1552,-3566.2904L13954.2058,-3566.2976L13954.2289,-3566.2998L13954.2319,-3566.3L13954.2325,-3566.3001L13954.2367,-3566.3005L13954.2443,-3566.3012L13954.2472,-3566.3015L13954.2491,-3566.3016L13954.2658,-3566.3033L13954.2732,-3566.3037L13954.2847,-3566.3044"/>
<path content="1,JRバス関東（株）,中央ライナー,2.5,2.5,2.5," xlink:title="1" d="M13954.01,-3566.2672L13954.0157,-3566.2683L13954.03,-3566.2711L13954.0334,-3566.2717L13954.0347,-3566.2719L13954.0354,-3566.272L13954.0389,-3566.2726L13954.0396,-3566.2727L13954.0403,-3566.2728L13954.0602,-3566.276L13954.1079,-3566.2838L13954.1196,-3566.2858L13954.1388,-3566.2881L13954.1403,-3566.2883L13954.1424,-3566.2886L13954.1508,-3566.2898L13954.1552,-3566.2904L13954.2058,-3566.2976L13954.2289,-3566.2998L13954.2319,-3566.3L13954.2325,-3566.3001L13954.2367,-3566.3005L13954.2443,-3566.3012L13954.2472,-3566.3015L13954.2491,-3566.3016L13954.2658,-3566.3033L13954.2732,-3566.3037L13954.2847,-3566.3044"/>
<path content="1,JRバス関東（株）,新宿～諏訪駅・岡谷駅,2.0,2.0,2.0," xlink:title="1" d="M13954.01,-3566.2672L13954.0157,-3566.2683L13954.03,-3566.2711L13954.0334,-3566.2717L13954.0347,-3566.2719L13954.0354,-3566.272L13954.0389,-3566.2726L13954.0396,-3566.2727L13954.0403,-3566.2728L13954.0602,-3566.276L13954.1079,-3566.2838L13954.1196,-3566.2858L13954.1388,-3566.2881L13954.1403,-3566.2883L13954.1424,-3566.2886L13954.1508,-3566.2898L13954.1552,-3566.2904L13954.2058,-3566.2976L13954.2289,-3566.2998L13954.2319,-3566.3L13954.2325,-3566.3001L13954.2367,-3566.3005L13954.2443,-3566.3012L13954.2472,-3566.3015L13954.2491,-3566.3016L13954.2658,-3566.3033L13954.2732,-3566.3037L13954.2847,-3566.3044"/>
<path content="1,JRバス関東（株）,東海道昼特急号/中央道昼特急号/青春昼特急号/プレミアム昼特急号,7.2,9.0,9.0," xlink:title="1" d="M13954.01,-3566.2672L13954.0157,-3566.2683L13954.03,-3566.2711L13954.0334,-3566.2717L13954.0347,-3566.2719L13954.0354,-3566.272L13954.0389,-3566.2726L13954.0396,-3566.2727L13954.0403,-3566.2728L13954.0602,-3566.276L13954.1079,-3566.2838L13954.1196,-3566.2858L13954.1388,-3566.2881L13954.1403,-3566.2883L13954.1424,-3566.2886L13954.1508,-3566.2898L13954.1552,-3566.2904L13954.2058,-3566.2976L13954.2289,-3566.2998L13954.2319,-3566.3L13954.2325,-3566.3001L13954.2367,-3566.3005L13954.2443,-3566.3012L13954.2472,-3566.3015L13954.2491,-3566.3016L13954.2658,-3566.3033L13954.2732,-3566.3037L13954.2847,-3566.3044"/>
<path content="1,JRバス関東（株）,青春中央ドリーム号/青春中央エコドリーム号/青春ドリーム号/青春レディースドリーム号/青春エコドリーム号/超得割青春号,10.0,14.0,14.0," xlink:title="1" d="M13954.01,-3566.2672L13954.0157,-3566.2683L13954.03,-3566.2711L13954.0334,-3566.2717L13954.0347,-3566.2719L13954.0354,-3566.272L13954.0389,-3566.2726L13954.0396,-3566.2727L13954.0403,-3566.2728L13954.0602,-3566.276L13954.1079,-3566.2838L13954.1196,-3566.2858L13954.1388,-3566.2881L13954.1403,-3566.2883L13954.1424,-3566.2886L13954.1508,-3566.2898L13954.1552,-3566.2904L13954.2058,-3566.2976L13954.2289,-3566.2998L13954.2319,-3566.3L13954.2325,-3566.3001L13954.2367,-3566.3005L13954.2443,-3566.3012L13954.2472,-3566.3015L13954.2491,-3566.3016L13954.2658,-3566.3033L13954.2732,-3566.3037L13954.2847,-3566.3044"/>
<path content="1,JR東海バス（株）,中央ドリームなごや号,1.0,1.0,1.0," xlink:title="1" d="M13954.01,-3566.2672L13954.0157,-3566.2683L13954.0299,-3566.2711L13954.0403,-3566.2728L13954.1196,-3566.2858L13954.1424,-3566.2886L13954.2058,-3566.2976L13954.2442,-3566.3012L13954.2658,-3566.3032L13954.2847,-3566.3044"/>
<path content="1,おんたけ交通（株）,木曽福島・新宿線,2.0,2.0,2.0," xlink:title="1" d="M13954.01,-3566.2672L13954.0157,-3566.2683L13954.0299,-3566.2711L13954.0403,-3566.2728L13954.1196,-3566.2858L13954.1424,-3566.2886L13954.2058,-3566.2976L13954.2442,-3566.3012L13954.2658,-3566.3032L13954.2847,-3566.3044"/>
<path content="1,ロウズ観光（株）,岡山・倉敷～東京,1.0,1.0,1.0," xlink:title="1" d="M13954.01,-3566.2672L13954.0299,-3566.2711L13954.0403,-3566.2728L13954.1196,-3566.2858L13954.1424,-3566.2886L13954.2058,-3566.2976L13954.2442,-3566.3012L13954.2658,-3566.3032L13954.2847,-3566.3044"/>
<path content="1,三交伊勢志摩交通（株）,鳥羽・伊勢～東京・大宮,2.0,2.0,2.0," xlink:title="1" d="M13954.2847,-3566.3044L13954.2658,-3566.3032L13954.2442,-3566.3012L13954.2058,-3566.2976L13954.1424,-3566.2886L13954.1196,-3566.2858L13954.0403,-3566.2728L13954.0299,-3566.2711L13954.0157,-3566.2683L13954.01,-3566.2672"/>
<path content="1,三重交通（株）,鳥羽・伊勢～東京・大宮,2.0,2.0,2.0," xlink:title="1" d="M13954.2847,-3566.3044L13954.2658,-3566.3032L13954.2442,-3566.3012L13954.2058,-3566.2976L13954.1424,-3566.2886L13954.1196,-3566.2858L13954.0403,-3566.2728L13954.0299,-3566.2711L13954.0157,-3566.2683L13954.01,-3566.2672"/>
<path content="1,下津井電鉄（株）,岡山～東京線,1.0,1.0,1.0," xlink:title="1" d="M13954.01,-3566.2672L13954.0299,-3566.2711L13954.0403,-3566.2728L13954.1196,-3566.2858L13954.1424,-3566.2886L13954.2058,-3566.2976L13954.2442,-3566.3012L13954.2658,-3566.3032L13954.2847,-3566.3044"/>
<path content="1,両備ホールディングス（株）,マスカット　倉敷～新宿線,1.0,1.0,1.0," xlink:title="1" d="M13954.01,-3566.2672L13954.0299,-3566.2711L13954.0403,-3566.2728L13954.1196,-3566.2858L13954.1424,-3566.2886L13954.2058,-3566.2976L13954.2442,-3566.3012L13954.2658,-3566.3032L13954.2847,-3566.3044"/>
<path content="1,中国JRバス（株）,津和野・益田・浜田・三次～東京　いわみエクスプレス,1.0,1.0,1.0," xlink:title="1" d="M13954.01,-3566.2672L13954.0157,-3566.2683L13954.0299,-3566.2711L13954.0403,-3566.2728L13954.1196,-3566.2858L13954.1424,-3566.2886L13954.2058,-3566.2976L13954.2442,-3566.3012L13954.2658,-3566.3032L13954.2847,-3566.3044"/>
<path content="1,京成バス（株）,津田沼・西船橋・新浦安～富士急ハイランド・河口湖線,0.4,0.4,0.4," xlink:title="1" d="M13954.01,-3566.2672L13954.0157,-3566.2683L13954.03,-3566.2711L13954.0334,-3566.2717L13954.0347,-3566.2719L13954.0354,-3566.272L13954.0389,-3566.2726L13954.0396,-3566.2727L13954.0403,-3566.2728L13954.0602,-3566.276L13954.1079,-3566.2838L13954.1196,-3566.2858L13954.1388,-3566.2881L13954.1403,-3566.2883L13954.1424,-3566.2886L13954.1508,-3566.2898L13954.1552,-3566.2904L13954.2058,-3566.2976L13954.2289,-3566.2998L13954.2319,-3566.3L13954.2325,-3566.3001L13954.2367,-3566.3005L13954.2443,-3566.3012L13954.2472,-3566.3015L13954.2491,-3566.3016L13954.2658,-3566.3033L13954.2732,-3566.3037L13954.2847,-3566.3044"/>
<path content="1,京浜急行バス（株）,甲府駅・竜王～羽田空港線,2.0,2.0,2.0," xlink:title="1" d="M13954.2847,-3566.3044L13954.2732,-3566.3037L13954.2658,-3566.3033L13954.2491,-3566.3016L13954.2472,-3566.3015L13954.2443,-3566.3012L13954.2367,-3566.3005L13954.2325,-3566.3001L13954.2319,-3566.3L13954.2289,-3566.2998L13954.2058,-3566.2976L13954.1552,-3566.2904L13954.1508,-3566.2898L13954.1424,-3566.2886L13954.1403,-3566.2883L13954.1388,-3566.2881L13954.1196,-3566.2858L13954.1079,-3566.2838L13954.0602,-3566.276L13954.0403,-3566.2728L13954.0396,-3566.2727L13954.0389,-3566.2726L13954.0354,-3566.272L13954.0347,-3566.2719L13954.0334,-3566.2717L13954.03,-3566.2711L13954.0157,-3566.2683L13954.01,-3566.2672"/>
<path content="1,京浜急行バス（株）,立川・拝島～羽田空港線,10.0,10.0,10.0," xlink:title="1" d="M13954.2847,-3566.3044L13954.2732,-3566.3037L13954.2658,-3566.3033L13954.2491,-3566.3016L13954.2472,-3566.3015L13954.2443,-3566.3012L13954.2367,-3566.3005L13954.2325,-3566.3001L13954.2319,-3566.3L13954.2289,-3566.2998L13954.2058,-3566.2976L13954.1552,-3566.2904L13954.1508,-3566.2898L13954.1424,-3566.2886L13954.1403,-3566.2883L13954.1388,-3566.2881L13954.1196,-3566.2858L13954.1079,-3566.2838L13954.0602,-3566.276L13954.0403,-3566.2728L13954.0396,-3566.2727L13954.0389,-3566.2726L13954.0354,-3566.272L13954.0347,-3566.2719L13954.0334,-3566.2717L13954.03,-3566.2711L13954.0157,-3566.2683L13954.01,-3566.2672"/>
<path content="1,京王バス南（株）,成田空港～南大沢線,4.0,4.0,4.0," xlink:title="1" d="M13954.01,-3566.2672L13954.0157,-3566.2683L13954.03,-3566.2711L13954.0334,-3566.2717L13954.0347,-3566.2719L13954.0354,-3566.272L13954.0389,-3566.2726L13954.0396,-3566.2727L13954.0403,-3566.2728L13954.0602,-3566.276L13954.1079,-3566.2838L13954.1196,-3566.2858L13954.1388,-3566.2881L13954.1403,-3566.2883L13954.1424,-3566.2886L13954.1508,-3566.2898L13954.1552,-3566.2904L13954.2058,-3566.2976L13954.2289,-3566.2998L13954.2319,-3566.3L13954.2325,-3566.3001L13954.2367,-3566.3005L13954.2443,-3566.3012L13954.2472,-3566.3015L13954.2491,-3566.3016L13954.2658,-3566.3033L13954.2732,-3566.3037L13954.2847,-3566.3044"/>
<path content="1,京王バス南（株）,成田空港～調布駅北口線,4.0,4.0,4.0," xlink:title="1" d="M13954.01,-3566.2672L13954.0157,-3566.2683L13954.03,-3566.2711L13954.0334,-3566.2717L13954.0347,-3566.2719L13954.0354,-3566.272L13954.0389,-3566.2726L13954.0396,-3566.2727L13954.0403,-3566.2728L13954.0602,-3566.276L13954.1079,-3566.2838L13954.1196,-3566.2858L13954.1388,-3566.2881L13954.1403,-3566.2883L13954.1424,-3566.2886L13954.1508,-3566.2898L13954.1552,-3566.2904L13954.2058,-3566.2976L13954.2289,-3566.2998L13954.2319,-3566.3L13954.2325,-3566.3001L13954.2367,-3566.3005L13954.2443,-3566.3012L13954.2472,-3566.3015L13954.2491,-3566.3016L13954.2658,-3566.3033L13954.2732,-3566.3037L13954.2847,-3566.3044"/>
<path content="1,京王バス南（株）,新宿・渋谷～大阪（阪急梅田）線,1.0,1.0,1.0," xlink:title="1" d="M13954.01,-3566.2672L13954.0157,-3566.2683L13954.03,-3566.2711L13954.0334,-3566.2717L13954.0347,-3566.2719L13954.0354,-3566.272L13954.0389,-3566.2726L13954.0396,-3566.2727L13954.0403,-3566.2728L13954.0602,-3566.276L13954.1079,-3566.2838L13954.1196,-3566.2858L13954.1388,-3566.2881L13954.1403,-3566.2883L13954.1424,-3566.2886L13954.1508,-3566.2898L13954.1552,-3566.2904L13954.2058,-3566.2976L13954.2289,-3566.2998L13954.2319,-3566.3L13954.2325,-3566.3001L13954.2367,-3566.3005L13954.2443,-3566.3012L13954.2472,-3566.3015L13954.2491,-3566.3016L13954.2658,-3566.3033L13954.2732,-3566.3037L13954.2847,-3566.3044"/>
<path content="1,京王バス南（株）,新宿駅西口～八王子駅北口線,0.5,0.0,0.0," xlink:title="1" d="M13954.2847,-3566.3044L13954.2732,-3566.3037L13954.2658,-3566.3033L13954.2491,-3566.3016L13954.2472,-3566.3015L13954.2443,-3566.3012L13954.2367,-3566.3005L13954.2325,-3566.3001L13954.2319,-3566.3L13954.2289,-3566.2998L13954.2058,-3566.2976L13954.1552,-3566.2904L13954.1508,-3566.2898L13954.1424,-3566.2886L13954.1403,-3566.2883L13954.1388,-3566.2881L13954.1196,-3566.2858L13954.1079,-3566.2838L13954.0602,-3566.276L13954.0403,-3566.2728L13954.0396,-3566.2727L13954.0389,-3566.2726L13954.0354,-3566.272L13954.0347,-3566.2719L13954.0334,-3566.2717L13954.03,-3566.2711L13954.0157,-3566.2683L13954.01,-3566.2672"/>
<path content="1,京王バス南（株）,新宿駅西口～南大沢線,0.5,0.0,0.0," xlink:title="1" d="M13954.01,-3566.2672L13954.0157,-3566.2683L13954.03,-3566.2711L13954.0334,-3566.2717L13954.0347,-3566.2719L13954.0354,-3566.272L13954.0389,-3566.2726L13954.0396,-3566.2727L13954.0403,-3566.2728L13954.0602,-3566.276L13954.1079,-3566.2838L13954.1196,-3566.2858L13954.1388,-3566.2881L13954.1403,-3566.2883L13954.1424,-3566.2886L13954.1508,-3566.2898L13954.1552,-3566.2904L13954.2058,-3566.2976L13954.2289,-3566.2998L13954.2319,-3566.3L13954.2325,-3566.3001L13954.2367,-3566.3005L13954.2443,-3566.3012L13954.2472,-3566.3015L13954.2491,-3566.3016L13954.2658,-3566.3033L13954.2732,-3566.3037L13954.2847,-3566.3044"/>
<path content="1,京王バス南（株）,新宿駅西口～国立線,0.5,0.0,0.0," xlink:title="1" d="M13954.2847,-3566.3044L13954.2732,-3566.3037L13954.2658,-3566.3033L13954.2491,-3566.3016L13954.2472,-3566.3015L13954.2443,-3566.3012L13954.2367,-3566.3005L13954.2325,-3566.3001L13954.2319,-3566.3L13954.2289,-3566.2998L13954.2058,-3566.2976L13954.1552,-3566.2904L13954.1508,-3566.2898L13954.1424,-3566.2886L13954.1403,-3566.2883L13954.1388,-3566.2881L13954.1196,-3566.2858L13954.1079,-3566.2838L13954.0602,-3566.276L13954.0403,-3566.2728L13954.0396,-3566.2727L13954.0389,-3566.2726L13954.0354,-3566.272L13954.0347,-3566.2719L13954.0334,-3566.2717L13954.03,-3566.2711L13954.0157,-3566.2683L13954.01,-3566.2672"/>
<path content="1,京王バス南（株）,新宿～伊那・飯田線,9.0,9.0,9.0," xlink:title="1" d="M13954.2847,-3566.3044L13954.2732,-3566.3037L13954.2658,-3566.3033L13954.2491,-3566.3016L13954.2472,-3566.3015L13954.2443,-3566.3012L13954.2367,-3566.3005L13954.2325,-3566.3001L13954.2319,-3566.3L13954.2289,-3566.2998L13954.2058,-3566.2976L13954.1552,-3566.2904L13954.1508,-3566.2898L13954.1424,-3566.2886L13954.1403,-3566.2883L13954.1388,-3566.2881L13954.1196,-3566.2858L13954.1079,-3566.2838L13954.0602,-3566.276L13954.0403,-3566.2728L13954.0396,-3566.2727L13954.0389,-3566.2726L13954.0354,-3566.272L13954.0347,-3566.2719L13954.0334,-3566.2717L13954.03,-3566.2711L13954.0157,-3566.2683L13954.01,-3566.2672"/>
<path content="1,京王バス南（株）,新宿～名古屋線,2.0,2.0,2.0," xlink:title="1" d="M13954.01,-3566.2672L13954.0157,-3566.2683L13954.03,-3566.2711L13954.0334,-3566.2717L13954.0347,-3566.2719L13954.0354,-3566.272L13954.0389,-3566.2726L13954.0396,-3566.2727L13954.0403,-3566.2728L13954.0602,-3566.276L13954.1079,-3566.2838L13954.1196,-3566.2858L13954.1388,-3566.2881L13954.1403,-3566.2883L13954.1424,-3566.2886L13954.1508,-3566.2898L13954.1552,-3566.2904L13954.2058,-3566.2976L13954.2289,-3566.2998L13954.2319,-3566.3L13954.2325,-3566.3001L13954.2367,-3566.3005L13954.2443,-3566.3012L13954.2472,-3566.3015L13954.2491,-3566.3016L13954.2658,-3566.3033L13954.2732,-3566.3037L13954.2847,-3566.3044"/>
<path content="1,京王バス南（株）,新宿～富士五湖線,10.0,10.0,10.0," xlink:title="1" d="M13954.2847,-3566.3044L13954.2732,-3566.3037L13954.2658,-3566.3033L13954.2491,-3566.3016L13954.2472,-3566.3015L13954.2443,-3566.3012L13954.2367,-3566.3005L13954.2325,-3566.3001L13954.2319,-3566.3L13954.2289,-3566.2998L13954.2058,-3566.2976L13954.1552,-3566.2904L13954.1508,-3566.2898L13954.1424,-3566.2886L13954.1403,-3566.2883L13954.1388,-3566.2881L13954.1196,-3566.2858L13954.1079,-3566.2838L13954.0602,-3566.276L13954.0403,-3566.2728L13954.0396,-3566.2727L13954.0389,-3566.2726L13954.0354,-3566.272L13954.0347,-3566.2719L13954.0334,-3566.2717L13954.03,-3566.2711L13954.0157,-3566.2683L13954.01,-3566.2672"/>
<path content="1,京王バス南（株）,新宿～富士山五合目線,0.6,0.9,0.9," xlink:title="1" d="M13954.2847,-3566.3044L13954.2732,-3566.3037L13954.2658,-3566.3033L13954.2491,-3566.3016L13954.2472,-3566.3015L13954.2443,-3566.3012L13954.2367,-3566.3005L13954.2325,-3566.3001L13954.2319,-3566.3L13954.2289,-3566.2998L13954.2058,-3566.2976L13954.1552,-3566.2904L13954.1508,-3566.2898L13954.1424,-3566.2886L13954.1403,-3566.2883L13954.1388,-3566.2881L13954.1196,-3566.2858L13954.1079,-3566.2838L13954.0602,-3566.276L13954.0403,-3566.2728L13954.0396,-3566.2727L13954.0389,-3566.2726L13954.0354,-3566.272L13954.0347,-3566.2719L13954.0334,-3566.2717L13954.03,-3566.2711L13954.0157,-3566.2683L13954.01,-3566.2672"/>
<path content="1,京王バス南（株）,新宿～木曽福島線,1.0,1.0,1.0," xlink:title="1" d="M13954.01,-3566.2672L13954.0157,-3566.2683L13954.03,-3566.2711L13954.0334,-3566.2717L13954.0347,-3566.2719L13954.0354,-3566.272L13954.0389,-3566.2726L13954.0396,-3566.2727L13954.0403,-3566.2728L13954.0602,-3566.276L13954.1079,-3566.2838L13954.1196,-3566.2858L13954.1388,-3566.2881L13954.1403,-3566.2883L13954.1424,-3566.2886L13954.1508,-3566.2898L13954.1552,-3566.2904L13954.2058,-3566.2976L13954.2289,-3566.2998L13954.2319,-3566.3L13954.2325,-3566.3001L13954.2367,-3566.3005L13954.2443,-3566.3012L13954.2472,-3566.3015L13954.2491,-3566.3016L13954.2658,-3566.3033L13954.2732,-3566.3037L13954.2847,-3566.3044"/>
<path content="1,京王バス南（株）,新宿～松本線,11.0,11.0,11.0," xlink:title="1" d="M13954.2847,-3566.3044L13954.2732,-3566.3037L13954.2658,-3566.3033L13954.2491,-3566.3016L13954.2472,-3566.3015L13954.2443,-3566.3012L13954.2367,-3566.3005L13954.2325,-3566.3001L13954.2319,-3566.3L13954.2289,-3566.2998L13954.2058,-3566.2976L13954.1552,-3566.2904L13954.1508,-3566.2898L13954.1424,-3566.2886L13954.1403,-3566.2883L13954.1388,-3566.2881L13954.1196,-3566.2858L13954.1079,-3566.2838L13954.0602,-3566.276L13954.0403,-3566.2728L13954.0396,-3566.2727L13954.0389,-3566.2726L13954.0354,-3566.272L13954.0347,-3566.2719L13954.0334,-3566.2717L13954.03,-3566.2711L13954.0157,-3566.2683L13954.01,-3566.2672"/>
<path content="1,京王バス南（株）,新宿～甲府線,9.0,9.0,9.0," xlink:title="1" d="M13954.01,-3566.2672L13954.0157,-3566.2683L13954.03,-3566.2711L13954.0334,-3566.2717L13954.0347,-3566.2719L13954.0354,-3566.272L13954.0389,-3566.2726L13954.0396,-3566.2727L13954.0403,-3566.2728L13954.0602,-3566.276L13954.1079,-3566.2838L13954.1196,-3566.2858L13954.1388,-3566.2881L13954.1403,-3566.2883L13954.1424,-3566.2886L13954.1508,-3566.2898L13954.1552,-3566.2904L13954.2058,-3566.2976L13954.2289,-3566.2998L13954.2319,-3566.3L13954.2325,-3566.3001L13954.2367,-3566.3005L13954.2443,-3566.3012L13954.2472,-3566.3015L13954.2491,-3566.3016L13954.2658,-3566.3033L13954.2732,-3566.3037L13954.2847,-3566.3044"/>
<path content="1,京王バス南（株）,新宿～白馬線,2.0,2.0,2.0," xlink:title="1" d="M13954.2847,-3566.3044L13954.2732,-3566.3037L13954.2658,-3566.3033L13954.2491,-3566.3016L13954.2472,-3566.3015L13954.2443,-3566.3012L13954.2367,-3566.3005L13954.2325,-3566.3001L13954.2319,-3566.3L13954.2289,-3566.2998L13954.2058,-3566.2976L13954.1552,-3566.2904L13954.1508,-3566.2898L13954.1424,-3566.2886L13954.1403,-3566.2883L13954.1388,-3566.2881L13954.1196,-3566.2858L13954.1079,-3566.2838L13954.0602,-3566.276L13954.0403,-3566.2728L13954.0396,-3566.2727L13954.0389,-3566.2726L13954.0354,-3566.272L13954.0347,-3566.2719L13954.0334,-3566.2717L13954.03,-3566.2711L13954.0157,-3566.2683L13954.01,-3566.2672"/>
<path content="1,京王バス南（株）,新宿～諏訪・岡谷・茅野線,6.0,6.0,6.0," xlink:title="1" d="M13954.01,-3566.2672L13954.0157,-3566.2683L13954.03,-3566.2711L13954.0334,-3566.2717L13954.0347,-3566.2719L13954.0354,-3566.272L13954.0389,-3566.2726L13954.0396,-3566.2727L13954.0403,-3566.2728L13954.0602,-3566.276L13954.1079,-3566.2838L13954.1196,-3566.2858L13954.1388,-3566.2881L13954.1403,-3566.2883L13954.1424,-3566.2886L13954.1508,-3566.2898L13954.1552,-3566.2904L13954.2058,-3566.2976L13954.2289,-3566.2998L13954.2319,-3566.3L13954.2325,-3566.3001L13954.2367,-3566.3005L13954.2443,-3566.3012L13954.2472,-3566.3015L13954.2491,-3566.3016L13954.2658,-3566.3033L13954.2732,-3566.3037L13954.2847,-3566.3044"/>
<path content="1,京王バス南（株）,新宿～身延線,2.0,2.0,2.0," xlink:title="1" d="M13954.01,-3566.2672L13954.0157,-3566.2683L13954.03,-3566.2711L13954.0334,-3566.2717L13954.0347,-3566.2719L13954.0354,-3566.272L13954.0389,-3566.2726L13954.0396,-3566.2727L13954.0403,-3566.2728L13954.0602,-3566.276L13954.1079,-3566.2838L13954.1196,-3566.2858L13954.1388,-3566.2881L13954.1403,-3566.2883L13954.1424,-3566.2886L13954.1508,-3566.2898L13954.1552,-3566.2904L13954.2058,-3566.2976L13954.2289,-3566.2998L13954.2319,-3566.3L13954.2325,-3566.3001L13954.2367,-3566.3005L13954.2443,-3566.3012L13954.2472,-3566.3015L13954.2491,-3566.3016L13954.2658,-3566.3033L13954.2732,-3566.3037L13954.2847,-3566.3044"/>
<path content="1,京王バス南（株）,新宿～飛騨高山線,3.0,3.0,3.0," xlink:title="1" d="M13954.2847,-3566.3044L13954.2732,-3566.3037L13954.2658,-3566.3033L13954.2491,-3566.3016L13954.2472,-3566.3015L13954.2443,-3566.3012L13954.2367,-3566.3005L13954.2325,-3566.3001L13954.2319,-3566.3L13954.2289,-3566.2998L13954.2058,-3566.2976L13954.1552,-3566.2904L13954.1508,-3566.2898L13954.1424,-3566.2886L13954.1403,-3566.2883L13954.1388,-3566.2881L13954.1196,-3566.2858L13954.1079,-3566.2838L13954.0602,-3566.276L13954.0403,-3566.2728L13954.0396,-3566.2727L13954.0389,-3566.2726L13954.0354,-3566.272L13954.0347,-3566.2719L13954.0334,-3566.2717L13954.03,-3566.2711L13954.0157,-3566.2683L13954.01,-3566.2672"/>
<path content="1,京王バス南（株）,羽田空港～南大沢線,10.0,10.0,10.0," xlink:title="1" d="M13954.2847,-3566.3044L13954.2732,-3566.3037L13954.2658,-3566.3033L13954.2491,-3566.3016L13954.2472,-3566.3015L13954.2443,-3566.3012L13954.2367,-3566.3005L13954.2325,-3566.3001L13954.2319,-3566.3L13954.2289,-3566.2998L13954.2058,-3566.2976L13954.1552,-3566.2904L13954.1508,-3566.2898L13954.1424,-3566.2886L13954.1403,-3566.2883L13954.1388,-3566.2881L13954.1196,-3566.2858L13954.1079,-3566.2838L13954.0602,-3566.276L13954.0403,-3566.2728L13954.0396,-3566.2727L13954.0389,-3566.2726L13954.0354,-3566.272L13954.0347,-3566.2719L13954.0334,-3566.2717L13954.03,-3566.2711L13954.0157,-3566.2683L13954.01,-3566.2672"/>
<path content="1,京王バス南（株）,羽田空港～国分寺駅南口線,12.0,12.0,12.0," xlink:title="1" d="M13954.2847,-3566.3044L13954.2732,-3566.3037L13954.2658,-3566.3033L13954.2491,-3566.3016L13954.2472,-3566.3015L13954.2443,-3566.3012L13954.2367,-3566.3005L13954.2325,-3566.3001L13954.2319,-3566.3L13954.2289,-3566.2998L13954.2058,-3566.2976L13954.1552,-3566.2904L13954.1508,-3566.2898L13954.1424,-3566.2886L13954.1403,-3566.2883L13954.1388,-3566.2881L13954.1196,-3566.2858L13954.1079,-3566.2838L13954.0602,-3566.276L13954.0403,-3566.2728L13954.0396,-3566.2727L13954.0389,-3566.2726L13954.0354,-3566.272L13954.0347,-3566.2719L13954.0334,-3566.2717L13954.03,-3566.2711L13954.0157,-3566.2683L13954.01,-3566.2672"/>
<path content="1,京王バス南（株）,羽田空港～高尾駅南口線,3.0,3.0,3.0," xlink:title="1" d="M13954.2847,-3566.3044L13954.2732,-3566.3037L13954.2658,-3566.3033L13954.2491,-3566.3016L13954.2472,-3566.3015L13954.2443,-3566.3012L13954.2367,-3566.3005L13954.2325,-3566.3001L13954.2319,-3566.3L13954.2289,-3566.2998L13954.2058,-3566.2976L13954.1552,-3566.2904L13954.1508,-3566.2898L13954.1424,-3566.2886L13954.1403,-3566.2883L13954.1388,-3566.2881L13954.1196,-3566.2858L13954.1079,-3566.2838L13954.0602,-3566.276L13954.0403,-3566.2728L13954.0396,-3566.2727L13954.0389,-3566.2726L13954.0354,-3566.272L13954.0347,-3566.2719L13954.0334,-3566.2717L13954.03,-3566.2711L13954.0157,-3566.2683L13954.01,-3566.2672"/>
<path content="1,伊予鉄道（株）,オレンジライナーえひめ　八幡浜・松山⇔東京,1.0,1.0,1.0," xlink:title="1" d="M13954.01,-3566.2672L13954.0157,-3566.2683L13954.0299,-3566.2711L13954.0403,-3566.2728L13954.1196,-3566.2858L13954.1424,-3566.2886L13954.2058,-3566.2976L13954.2442,-3566.3012L13954.2658,-3566.3032L13954.2847,-3566.3044"/>
<path content="1,伊那バス（株）,伊那線,16.0,16.0,16.0," xlink:title="1" d="M13954.01,-3566.2672L13954.0157,-3566.2683L13954.0299,-3566.2711L13954.0403,-3566.2728L13954.1196,-3566.2858L13954.1424,-3566.2886L13954.2058,-3566.2976L13954.2442,-3566.3012L13954.2658,-3566.3032L13954.2847,-3566.3044"/>
<path content="1,伊那バス（株）,横浜線,17.0,17.0,17.0," xlink:title="1" d="M13954.2847,-3566.3044L13954.2658,-3566.3032L13954.2442,-3566.3012L13954.2058,-3566.2976L13954.1424,-3566.2886L13954.1196,-3566.2858L13954.0403,-3566.2728L13954.0299,-3566.2711L13954.0157,-3566.2683L13954.01,-3566.2672"/>
<path content="1,伊那バス（株）,飯田線,2.0,2.0,2.0," xlink:title="1" d="M13954.01,-3566.2672L13954.0157,-3566.2683L13954.0299,-3566.2711L13954.0403,-3566.2728L13954.1196,-3566.2858L13954.1424,-3566.2886L13954.2058,-3566.2976L13954.2442,-3566.3012L13954.2658,-3566.3032L13954.2847,-3566.3044"/>
<path content="1,信南交通（株）,新宿線_01_on,5.5,5.5,5.5," xlink:title="1" d="M13954.01,-3566.2672L13954.0157,-3566.2683L13954.0299,-3566.2711L13954.0403,-3566.2728L13954.1196,-3566.2858L13954.1424,-3566.2886L13954.2058,-3566.2976L13954.2442,-3566.3012L13954.2658,-3566.3032L13954.2847,-3566.3044"/>
<path content="1,信南交通（株）,新宿線_02_on,5.5,5.5,5.5," xlink:title="1" d="M13954.01,-3566.2672L13954.0157,-3566.2683L13954.0299,-3566.2711L13954.0403,-3566.2728L13954.1196,-3566.2858L13954.1424,-3566.2886L13954.2058,-3566.2976L13954.2442,-3566.3012L13954.2658,-3566.3032L13954.2847,-3566.3044"/>
<path content="1,信南交通（株）,横浜線,2.0,2.0,2.0," xlink:title="1" d="M13954.2847,-3566.3044L13954.2658,-3566.3032L13954.2442,-3566.3012L13954.2058,-3566.2976L13954.1424,-3566.2886L13954.1196,-3566.2858L13954.0403,-3566.2728L13954.0299,-3566.2711L13954.0157,-3566.2683L13954.01,-3566.2672"/>
<path content="1,北陸鉄道（株）,高速バス　金沢⇔渋谷八王子,2.0,2.0,2.0," xlink:title="1" d="M13954.01,-3566.2672L13954.0157,-3566.2683L13954.0299,-3566.2711L13954.0403,-3566.2728L13954.1196,-3566.2858L13954.1424,-3566.2886L13954.2058,-3566.2976L13954.2442,-3566.3012L13954.2658,-3566.3032L13954.2847,-3566.3044"/>
<path content="1,千葉交通,竜王・甲府・石和・一宮・勝沼～成田空港,3.0,3.0,3.0," xlink:title="1" d="M13954.01,-3566.2672L13954.0157,-3566.2683L13954.03,-3566.2711L13954.0334,-3566.2717L13954.0347,-3566.2719L13954.0354,-3566.272L13954.0389,-3566.2726L13954.0396,-3566.2727L13954.0403,-3566.2728L13954.0602,-3566.276L13954.1079,-3566.2838L13954.1196,-3566.2858L13954.1388,-3566.2881L13954.1403,-3566.2883L13954.1424,-3566.2886L13954.1508,-3566.2898L13954.1552,-3566.2904L13954.2058,-3566.2976L13954.2289,-3566.2998L13954.2319,-3566.3L13954.2325,-3566.3001L13954.2367,-3566.3005L13954.2443,-3566.3012L13954.2472,-3566.3015L13954.2491,-3566.3016L13954.2658,-3566.3033L13954.2732,-3566.3037L13954.2847,-3566.3044"/>
<path content="1,名鉄バス（株）,名古屋～新宿,4.0,4.0,4.0," xlink:title="1" d="M13954.01,-3566.2672L13954.0157,-3566.2683L13954.0299,-3566.2711L13954.0403,-3566.2728L13954.1196,-3566.2858L13954.1424,-3566.2886L13954.2058,-3566.2976L13954.2442,-3566.3012L13954.2658,-3566.3032L13954.2847,-3566.3044"/>
<path content="1,四国高速バス（株）,ハローブリッジ号　善通寺・坂出⇔横浜・新宿・八王子,1.0,1.0,1.0," xlink:title="1" d="M13954.01,-3566.2672L13954.0157,-3566.2683L13954.0299,-3566.2711L13954.0403,-3566.2728L13954.1196,-3566.2858L13954.1424,-3566.2886L13954.2058,-3566.2976L13954.2442,-3566.3012L13954.2658,-3566.3032L13954.2847,-3566.3044"/>
<path content="1,富士急山梨バス（株）,河口湖～大宮・川越・所沢線,0.7,0.7,0.7," xlink:title="1" d="M13954.01,-3566.2672L13954.0157,-3566.2683L13954.03,-3566.2711L13954.0334,-3566.2717L13954.0347,-3566.2719L13954.0354,-3566.272L13954.0389,-3566.2726L13954.0396,-3566.2727L13954.0403,-3566.2728L13954.0602,-3566.276L13954.1079,-3566.2838L13954.1196,-3566.2858L13954.1388,-3566.2881L13954.1403,-3566.2883L13954.1424,-3566.2886L13954.1508,-3566.2898L13954.1552,-3566.2904L13954.2058,-3566.2976L13954.2289,-3566.2998L13954.2319,-3566.3L13954.2325,-3566.3001L13954.2367,-3566.3005L13954.2443,-3566.3012L13954.2472,-3566.3015L13954.2491,-3566.3016L13954.2658,-3566.3033L13954.2732,-3566.3037L13954.2847,-3566.3044"/>
<path content="1,富士急平和観光（株）,甲府～新宿線,27.0,27.0,27.0," xlink:title="1" d="M13954.01,-3566.2672L13954.0157,-3566.2683L13954.03,-3566.2711L13954.0334,-3566.2717L13954.0347,-3566.2719L13954.0354,-3566.272L13954.0389,-3566.2726L13954.0396,-3566.2727L13954.0403,-3566.2728L13954.0602,-3566.276L13954.1079,-3566.2838L13954.1196,-3566.2858L13954.1388,-3566.2881L13954.1403,-3566.2883L13954.1424,-3566.2886L13954.1508,-3566.2898L13954.1552,-3566.2904L13954.2058,-3566.2976L13954.2289,-3566.2998L13954.2319,-3566.3L13954.2325,-3566.3001L13954.2367,-3566.3005L13954.2443,-3566.3012L13954.2472,-3566.3015L13954.2491,-3566.3016L13954.2658,-3566.3033L13954.2732,-3566.3037L13954.2847,-3566.3044"/>
<path content="1,富士急行（株）,伊那・駒ヶ根～新宿線,16.0,16.0,16.0," xlink:title="1" d="M13954.01,-3566.2672L13954.0157,-3566.2683L13954.03,-3566.2711L13954.0334,-3566.2717L13954.0347,-3566.2719L13954.0354,-3566.272L13954.0389,-3566.2726L13954.0396,-3566.2727L13954.0403,-3566.2728L13954.0602,-3566.276L13954.1079,-3566.2838L13954.1196,-3566.2858L13954.1388,-3566.2881L13954.1403,-3566.2883L13954.1424,-3566.2886L13954.1508,-3566.2898L13954.1552,-3566.2904L13954.2058,-3566.2976L13954.2289,-3566.2998L13954.2319,-3566.3L13954.2325,-3566.3001L13954.2367,-3566.3005L13954.2443,-3566.3012L13954.2472,-3566.3015L13954.2491,-3566.3016L13954.2658,-3566.3033L13954.2732,-3566.3037L13954.2847,-3566.3044"/>
<path content="1,富士急行（株）,富士五湖～新宿線,37.4,36.0,36.0," xlink:title="1" d="M13954.01,-3566.2672L13954.0157,-3566.2683L13954.03,-3566.2711L13954.0334,-3566.2717L13954.0347,-3566.2719L13954.0354,-3566.272L13954.0389,-3566.2726L13954.0396,-3566.2727L13954.0403,-3566.2728L13954.0602,-3566.276L13954.1079,-3566.2838L13954.1196,-3566.2858L13954.1388,-3566.2881L13954.1403,-3566.2883L13954.1424,-3566.2886L13954.1508,-3566.2898L13954.1552,-3566.2904L13954.2058,-3566.2976L13954.2289,-3566.2998L13954.2319,-3566.3L13954.2325,-3566.3001L13954.2367,-3566.3005L13954.2443,-3566.3012L13954.2472,-3566.3015L13954.2491,-3566.3016L13954.2658,-3566.3033L13954.2732,-3566.3037L13954.2847,-3566.3044"/>
<path content="1,富士急行（株）,富士山五合目～新宿線,1.0,1.7,1.8," xlink:title="1" d="M13954.01,-3566.2672L13954.0157,-3566.2683L13954.03,-3566.2711L13954.0334,-3566.2717L13954.0347,-3566.2719L13954.0354,-3566.272L13954.0389,-3566.2726L13954.0396,-3566.2727L13954.0403,-3566.2728L13954.0602,-3566.276L13954.1079,-3566.2838L13954.1196,-3566.2858L13954.1388,-3566.2881L13954.1403,-3566.2883L13954.1424,-3566.2886L13954.1508,-3566.2898L13954.1552,-3566.2904L13954.2058,-3566.2976L13954.2289,-3566.2998L13954.2319,-3566.3L13954.2325,-3566.3001L13954.2367,-3566.3005L13954.2443,-3566.3012L13954.2472,-3566.3015L13954.2491,-3566.3016L13954.2658,-3566.3033L13954.2732,-3566.3037L13954.2847,-3566.3044"/>
<path content="1,富士急行（株）,河口湖～大宮・川越・所沢線,0.7,0.7,0.7," xlink:title="1" d="M13954.01,-3566.2672L13954.0157,-3566.2683L13954.03,-3566.2711L13954.0334,-3566.2717L13954.0347,-3566.2719L13954.0354,-3566.272L13954.0389,-3566.2726L13954.0396,-3566.2727L13954.0403,-3566.2728L13954.0602,-3566.276L13954.1079,-3566.2838L13954.1196,-3566.2858L13954.1388,-3566.2881L13954.1403,-3566.2883L13954.1424,-3566.2886L13954.1508,-3566.2898L13954.1552,-3566.2904L13954.2058,-3566.2976L13954.2289,-3566.2998L13954.2319,-3566.3L13954.2325,-3566.3001L13954.2367,-3566.3005L13954.2443,-3566.3012L13954.2472,-3566.3015L13954.2491,-3566.3016L13954.2658,-3566.3033L13954.2732,-3566.3037L13954.2847,-3566.3044"/>
<path content="1,富士急行（株）,河口湖～津田沼・西船橋・新浦安線,0.3,0.3,0.3," xlink:title="1" d="M13954.01,-3566.2672L13954.0157,-3566.2683L13954.03,-3566.2711L13954.0334,-3566.2717L13954.0347,-3566.2719L13954.0354,-3566.272L13954.0389,-3566.2726L13954.0396,-3566.2727L13954.0403,-3566.2728L13954.0602,-3566.276L13954.1079,-3566.2838L13954.1196,-3566.2858L13954.1388,-3566.2881L13954.1403,-3566.2883L13954.1424,-3566.2886L13954.1508,-3566.2898L13954.1552,-3566.2904L13954.2058,-3566.2976L13954.2289,-3566.2998L13954.2319,-3566.3L13954.2325,-3566.3001L13954.2367,-3566.3005L13954.2443,-3566.3012L13954.2472,-3566.3015L13954.2491,-3566.3016L13954.2658,-3566.3033L13954.2732,-3566.3037L13954.2847,-3566.3044"/>
<path content="1,富士急行（株）,河口湖～渋川・前橋・高崎線,0.3,0.3,0.3," xlink:title="1" d="M13954.01,-3566.2672L13954.0157,-3566.2683L13954.03,-3566.2711L13954.0334,-3566.2717L13954.0347,-3566.2719L13954.0354,-3566.272L13954.0389,-3566.2726L13954.0396,-3566.2727L13954.0403,-3566.2728L13954.0602,-3566.276L13954.1079,-3566.2838L13954.1196,-3566.2858L13954.1388,-3566.2881L13954.1403,-3566.2883L13954.1424,-3566.2886L13954.1508,-3566.2898L13954.1552,-3566.2904L13954.2058,-3566.2976L13954.2289,-3566.2998L13954.2319,-3566.3L13954.2325,-3566.3001L13954.2367,-3566.3005L13954.2443,-3566.3012L13954.2472,-3566.3015L13954.2491,-3566.3016L13954.2658,-3566.3033L13954.2732,-3566.3037L13954.2847,-3566.3044"/>
<path content="1,富士急行（株）,甲府～新宿線,27.0,27.0,27.0," xlink:title="1" d="M13954.2847,-3566.3044L13954.2732,-3566.3037L13954.2658,-3566.3033L13954.2491,-3566.3016L13954.2472,-3566.3015L13954.2443,-3566.3012L13954.2367,-3566.3005L13954.2325,-3566.3001L13954.2319,-3566.3L13954.2289,-3566.2998L13954.2058,-3566.2976L13954.1552,-3566.2904L13954.1508,-3566.2898L13954.1424,-3566.2886L13954.1403,-3566.2883L13954.1388,-3566.2881L13954.1196,-3566.2858L13954.1079,-3566.2838L13954.0602,-3566.276L13954.0403,-3566.2728L13954.0396,-3566.2727L13954.0389,-3566.2726L13954.0354,-3566.272L13954.0347,-3566.2719L13954.0334,-3566.2717L13954.03,-3566.2711L13954.0157,-3566.2683L13954.01,-3566.2672"/>
<path content="1,富士急行（株）,諏訪・岡谷～新宿線,15.0,15.0,15.0," xlink:title="1" d="M13954.01,-3566.2672L13954.0157,-3566.2683L13954.03,-3566.2711L13954.0334,-3566.2717L13954.0347,-3566.2719L13954.0354,-3566.272L13954.0389,-3566.2726L13954.0396,-3566.2727L13954.0403,-3566.2728L13954.0602,-3566.276L13954.1079,-3566.2838L13954.1196,-3566.2858L13954.1388,-3566.2881L13954.1403,-3566.2883L13954.1424,-3566.2886L13954.1508,-3566.2898L13954.1552,-3566.2904L13954.2058,-3566.2976L13954.2289,-3566.2998L13954.2319,-3566.3L13954.2325,-3566.3001L13954.2367,-3566.3005L13954.2443,-3566.3012L13954.2472,-3566.3015L13954.2491,-3566.3016L13954.2658,-3566.3033L13954.2732,-3566.3037L13954.2847,-3566.3044"/>
<path content="1,小田急シティバス（株）,002,0.0,0.0,0.9," xlink:title="1" d="M13954.01,-3566.2672L13954.0157,-3566.2683L13954.03,-3566.2711L13954.0334,-3566.2717L13954.0347,-3566.2719L13954.0354,-3566.272L13954.0389,-3566.2726L13954.0396,-3566.2727L13954.0403,-3566.2728L13954.0602,-3566.276L13954.1079,-3566.2838L13954.1196,-3566.2858L13954.1388,-3566.2881L13954.1403,-3566.2883L13954.1424,-3566.2886L13954.1508,-3566.2898L13954.1552,-3566.2904L13954.2058,-3566.2976L13954.2289,-3566.2998L13954.2319,-3566.3L13954.2325,-3566.3001L13954.2367,-3566.3005L13954.2443,-3566.3012L13954.2472,-3566.3015L13954.2491,-3566.3016L13954.2658,-3566.3033L13954.2732,-3566.3037L13954.2847,-3566.3044"/>
<path content="1,小田急バス（株）,吉05,21.5,14.5,14.5," xlink:title="1" d="M13954.2705,-3566.4368L13954.2661,-3566.4279L13954.2624,-3566.4184L13954.2562,-3566.4007L13954.2458,-3566.3607L13954.2847,-3566.3203"/>
<path content="1,小田急バス（株）,吉06,73.5,66.0,65.0," xlink:title="1" d="M13954.2705,-3566.4368L13954.2661,-3566.4279L13954.2624,-3566.4184L13954.2562,-3566.4007L13954.2458,-3566.3607L13954.2323,-3566.3069L13954.2289,-3566.2998L13954.2289,-3566.2998L13954.2289,-3566.2997L13954.2258,-3566.2932L13954.2176,-3566.2756L13954.2102,-3566.2609L13954.1831,-3566.2159L13954.1477,-3566.1621"/>
<path content="1,小田急バス（株）,吉07,0.0,0.0,1.0," xlink:title="1" d="M13954.1477,-3566.1621L13954.1831,-3566.2159L13954.2102,-3566.2609L13954.2176,-3566.2756L13954.2258,-3566.2932L13954.2289,-3566.2997L13954.2289,-3566.2998L13954.2289,-3566.2998L13954.2323,-3566.3069L13954.2458,-3566.3607L13954.2562,-3566.4007L13954.2624,-3566.4184L13954.2661,-3566.4279L13954.2705,-3566.4368"/>
<path content="1,小田急バス（株）,調31,5.0,6.0,4.0," xlink:title="1" d="M13954.1477,-3566.1621L13954.1831,-3566.2159L13954.2102,-3566.2609L13954.2176,-3566.2756L13954.2258,-3566.2932L13954.2289,-3566.2997L13954.2289,-3566.2998L13954.2289,-3566.2998L13954.2323,-3566.3069L13954.2458,-3566.3607"/>
<path content="1,小田急バス（株）,調31,5.0,6.0,4.0," xlink:title="1" d="M13954.2458,-3566.3607L13954.2562,-3566.4007L13954.2624,-3566.4184L13954.2661,-3566.4279L13954.2705,-3566.4368M13954.1764,-3566.4368L13954.1776,-3566.4354L13954.1824,-3566.43L13954.2134,-3566.3956L13954.2458,-3566.3607"/>
<path content="1,小田急バス（株）,調32,1.0,1.0,1.0," xlink:title="1" d="M13954.1477,-3566.1621L13954.1831,-3566.2159L13954.2102,-3566.2609L13954.2176,-3566.2756L13954.2258,-3566.2932L13954.2289,-3566.2997L13954.2289,-3566.2998L13954.2289,-3566.2998L13954.2323,-3566.3069L13954.2458,-3566.3607L13954.2562,-3566.4007L13954.2624,-3566.4184L13954.2661,-3566.4279L13954.2705,-3566.4368"/>
<path content="1,小田急バス（株）,調40,2.0,2.0,2.0," xlink:title="1" d="M13954.2847,-3566.3203L13954.2458,-3566.3607L13954.2134,-3566.3956L13954.1824,-3566.43L13954.1776,-3566.4354L13954.1764,-3566.4368"/>
<path content="1,小田急バス（株）,鷹51,126.0,107.5,107.0," xlink:title="1" d="M13954.2847,-3566.3203L13954.2458,-3566.3607L13954.2134,-3566.3956L13954.1824,-3566.43L13954.1776,-3566.4354L13954.1764,-3566.4368"/>
<path content="1,小田急バス（株）,鷹56,86.5,70.0,70.0," xlink:title="1" d="M13954.1477,-3566.1621L13954.1831,-3566.2159L13954.2102,-3566.2609L13954.2176,-3566.2756L13954.2258,-3566.2932L13954.2289,-3566.2997L13954.2289,-3566.2998L13954.2289,-3566.2998L13954.2323,-3566.3069L13954.2458,-3566.3607L13954.2562,-3566.4007L13954.2624,-3566.4184L13954.2661,-3566.4279L13954.2705,-3566.4368"/>
<path content="1,山梨交通（株）,北杜・白州～新宿線,1.0,1.0,1.0," xlink:title="1" d="M13954.2847,-3566.3044L13954.2732,-3566.3037L13954.2658,-3566.3033L13954.2491,-3566.3016L13954.2472,-3566.3015L13954.2443,-3566.3012L13954.2367,-3566.3005L13954.2325,-3566.3001L13954.2319,-3566.3L13954.2289,-3566.2998L13954.2058,-3566.2976L13954.1552,-3566.2904L13954.1508,-3566.2898L13954.1424,-3566.2886L13954.1403,-3566.2883L13954.1388,-3566.2881L13954.1196,-3566.2858L13954.1079,-3566.2838L13954.0602,-3566.276L13954.0403,-3566.2728L13954.0396,-3566.2727L13954.0389,-3566.2726L13954.0354,-3566.272L13954.0347,-3566.2719L13954.0334,-3566.2717L13954.03,-3566.2711L13954.0157,-3566.2683L13954.01,-3566.2672"/>
<path content="1,山梨交通（株）,甲府～新宿線,9.0,9.0,9.0," xlink:title="1" d="M13954.01,-3566.2672L13954.0157,-3566.2683L13954.03,-3566.2711L13954.0334,-3566.2717L13954.0347,-3566.2719L13954.0354,-3566.272L13954.0389,-3566.2726L13954.0396,-3566.2727L13954.0403,-3566.2728L13954.0602,-3566.276L13954.1079,-3566.2838L13954.1196,-3566.2858L13954.1388,-3566.2881L13954.1403,-3566.2883L13954.1424,-3566.2886L13954.1508,-3566.2898L13954.1552,-3566.2904L13954.2058,-3566.2976L13954.2289,-3566.2998L13954.2319,-3566.3L13954.2325,-3566.3001L13954.2367,-3566.3005L13954.2443,-3566.3012L13954.2472,-3566.3015L13954.2491,-3566.3016L13954.2658,-3566.3033L13954.2732,-3566.3037L13954.2847,-3566.3044"/>
<path content="1,山梨交通（株）,竜王・甲府～成田空港線,3.0,3.0,3.0," xlink:title="1" d="M13954.01,-3566.2672L13954.0157,-3566.2683L13954.03,-3566.2711L13954.0334,-3566.2717L13954.0347,-3566.2719L13954.0354,-3566.272L13954.0389,-3566.2726L13954.0396,-3566.2727L13954.0403,-3566.2728L13954.0602,-3566.276L13954.1079,-3566.2838L13954.1196,-3566.2858L13954.1388,-3566.2881L13954.1403,-3566.2883L13954.1424,-3566.2886L13954.1508,-3566.2898L13954.1552,-3566.2904L13954.2058,-3566.2976L13954.2289,-3566.2998L13954.2319,-3566.3L13954.2325,-3566.3001L13954.2367,-3566.3005L13954.2443,-3566.3012L13954.2472,-3566.3015L13954.2491,-3566.3016L13954.2658,-3566.3033L13954.2732,-3566.3037L13954.2847,-3566.3044"/>
<path content="1,山梨交通（株）,竜王・甲府～羽田空港線,2.0,2.0,2.0," xlink:title="1" d="M13954.2847,-3566.3044L13954.2732,-3566.3037L13954.2658,-3566.3033L13954.2491,-3566.3016L13954.2472,-3566.3015L13954.2443,-3566.3012L13954.2367,-3566.3005L13954.2325,-3566.3001L13954.2319,-3566.3L13954.2289,-3566.2998L13954.2058,-3566.2976L13954.1552,-3566.2904L13954.1508,-3566.2898L13954.1424,-3566.2886L13954.1403,-3566.2883L13954.1388,-3566.2881L13954.1196,-3566.2858L13954.1079,-3566.2838L13954.0602,-3566.276L13954.0403,-3566.2728L13954.0396,-3566.2727L13954.0389,-3566.2726L13954.0354,-3566.272L13954.0347,-3566.2719L13954.0334,-3566.2717L13954.03,-3566.2711L13954.0157,-3566.2683L13954.01,-3566.2672"/>
<path content="1,山梨交通（株）,諏訪・岡谷～新宿線,17.0,17.0,17.0," xlink:title="1" d="M13954.2847,-3566.3044L13954.2732,-3566.3037L13954.2658,-3566.3033L13954.2491,-3566.3016L13954.2472,-3566.3015L13954.2443,-3566.3012L13954.2367,-3566.3005L13954.2325,-3566.3001L13954.2319,-3566.3L13954.2289,-3566.2998L13954.2058,-3566.2976L13954.1552,-3566.2904L13954.1508,-3566.2898L13954.1424,-3566.2886L13954.1403,-3566.2883L13954.1388,-3566.2881L13954.1196,-3566.2858L13954.1079,-3566.2838L13954.0602,-3566.276L13954.0403,-3566.2728L13954.0396,-3566.2727L13954.0389,-3566.2726L13954.0354,-3566.272L13954.0347,-3566.2719L13954.0334,-3566.2717L13954.03,-3566.2711L13954.0157,-3566.2683L13954.01,-3566.2672"/>
<path content="1,山梨交通（株）,身延・身延山～新宿線,4.0,4.0,4.0," xlink:title="1" d="M13954.01,-3566.2672L13954.0157,-3566.2683L13954.03,-3566.2711L13954.0334,-3566.2717L13954.0347,-3566.2719L13954.0354,-3566.272L13954.0389,-3566.2726L13954.0396,-3566.2727L13954.0403,-3566.2728L13954.0602,-3566.276L13954.1079,-3566.2838L13954.1196,-3566.2858L13954.1388,-3566.2881L13954.1403,-3566.2883L13954.1424,-3566.2886L13954.1508,-3566.2898L13954.1552,-3566.2904L13954.2058,-3566.2976L13954.2289,-3566.2998L13954.2319,-3566.3L13954.2325,-3566.3001L13954.2367,-3566.3005L13954.2443,-3566.3012L13954.2472,-3566.3015L13954.2491,-3566.3016L13954.2658,-3566.3033L13954.2732,-3566.3037L13954.2847,-3566.3044"/>
<path content="1,山梨交通（株）,駒ヶ根～新宿,2.0,2.0,2.0," xlink:title="1" d="M13954.2847,-3566.3044L13954.2732,-3566.3037L13954.2658,-3566.3033L13954.2491,-3566.3016L13954.2472,-3566.3015L13954.2443,-3566.3012L13954.2367,-3566.3005L13954.2325,-3566.3001L13954.2319,-3566.3L13954.2289,-3566.2998L13954.2058,-3566.2976L13954.1552,-3566.2904L13954.1508,-3566.2898L13954.1424,-3566.2886L13954.1403,-3566.2883L13954.1388,-3566.2881L13954.1196,-3566.2858L13954.1079,-3566.2838L13954.0602,-3566.276L13954.0403,-3566.2728L13954.0396,-3566.2727L13954.0389,-3566.2726L13954.0354,-3566.272L13954.0347,-3566.2719L13954.0334,-3566.2717L13954.03,-3566.2711L13954.0157,-3566.2683L13954.01,-3566.2672"/>
<path content="1,岐阜バス観光（株）,高速新宿線,1.0,1.0,1.0," xlink:title="1" d="M13954.01,-3566.2672L13954.0157,-3566.2683L13954.0299,-3566.2711L13954.0403,-3566.2728L13954.1196,-3566.2858L13954.1424,-3566.2886L13954.2058,-3566.2976L13954.2442,-3566.3012L13954.2658,-3566.3032L13954.2847,-3566.3044"/>
<path content="1,川中島バス（株）,特急白馬～新宿線,2.0,2.0,2.0," xlink:title="1" d="M13954.01,-3566.2672L13954.0157,-3566.2683L13954.0299,-3566.2711L13954.0403,-3566.2728L13954.1196,-3566.2858L13954.1424,-3566.2886L13954.2058,-3566.2976L13954.2442,-3566.3012L13954.2658,-3566.3032L13954.2847,-3566.3044"/>
<path content="1,成田空港交通,立川線,3.0,3.0,3.0," xlink:title="1" d="M13954.01,-3566.2672L13954.0157,-3566.2683L13954.03,-3566.2711L13954.0334,-3566.2717L13954.0347,-3566.2719L13954.0354,-3566.272L13954.0389,-3566.2726L13954.0396,-3566.2727L13954.0403,-3566.2728L13954.0602,-3566.276L13954.1079,-3566.2838L13954.1196,-3566.2858L13954.1388,-3566.2881L13954.1403,-3566.2883L13954.1424,-3566.2886L13954.1508,-3566.2898L13954.1552,-3566.2904L13954.2058,-3566.2976L13954.2289,-3566.2998L13954.2319,-3566.3L13954.2325,-3566.3001L13954.2367,-3566.3005L13954.2443,-3566.3012L13954.2472,-3566.3015L13954.2491,-3566.3016L13954.2658,-3566.3033L13954.2732,-3566.3037L13954.2847,-3566.3044"/>
<path content="1,東京空港交通（株）,八王子エリア～成田空港線,3.5,3.5,3.5," xlink:title="1" d="M13954.01,-3566.2672L13954.0157,-3566.2683L13954.03,-3566.2711L13954.0334,-3566.2717L13954.0347,-3566.2719L13954.0354,-3566.272L13954.0389,-3566.2726L13954.0396,-3566.2727L13954.0403,-3566.2728L13954.0602,-3566.276L13954.1079,-3566.2838L13954.1196,-3566.2858L13954.1388,-3566.2881L13954.1403,-3566.2883L13954.1424,-3566.2886L13954.1508,-3566.2898L13954.1552,-3566.2904L13954.2058,-3566.2976L13954.2289,-3566.2998L13954.2319,-3566.3L13954.2325,-3566.3001L13954.2367,-3566.3005L13954.2443,-3566.3012L13954.2472,-3566.3015L13954.2491,-3566.3016L13954.2658,-3566.3033L13954.2732,-3566.3037L13954.2847,-3566.3044"/>
<path content="1,東京空港交通（株）,南大沢駅・京王多摩センター駅・聖蹟桜ヶ丘駅～成田空港線,4.0,4.0,4.0," xlink:title="1" d="M13954.01,-3566.2672L13954.0157,-3566.2683L13954.03,-3566.2711L13954.0334,-3566.2717L13954.0347,-3566.2719L13954.0354,-3566.272L13954.0389,-3566.2726L13954.0396,-3566.2727L13954.0403,-3566.2728L13954.0602,-3566.276L13954.1079,-3566.2838L13954.1196,-3566.2858L13954.1388,-3566.2881L13954.1403,-3566.2883L13954.1424,-3566.2886L13954.1508,-3566.2898L13954.1552,-3566.2904L13954.2058,-3566.2976L13954.2289,-3566.2998L13954.2319,-3566.3L13954.2325,-3566.3001L13954.2367,-3566.3005L13954.2443,-3566.3012L13954.2472,-3566.3015L13954.2491,-3566.3016L13954.2658,-3566.3033L13954.2732,-3566.3037L13954.2847,-3566.3044"/>
<path content="1,東京空港交通（株）,南大沢駅・京王多摩センター駅・聖蹟桜ヶ丘駅～羽田空港線,8.5,8.5,8.5," xlink:title="1" d="M13954.2847,-3566.3044L13954.2732,-3566.3037L13954.2658,-3566.3033L13954.2491,-3566.3016L13954.2472,-3566.3015L13954.2443,-3566.3012L13954.2367,-3566.3005L13954.2325,-3566.3001L13954.2319,-3566.3L13954.2289,-3566.2998L13954.2058,-3566.2976L13954.1552,-3566.2904L13954.1508,-3566.2898L13954.1424,-3566.2886L13954.1403,-3566.2883L13954.1388,-3566.2881L13954.1196,-3566.2858L13954.1079,-3566.2838L13954.0602,-3566.276L13954.0403,-3566.2728L13954.0396,-3566.2727L13954.0389,-3566.2726L13954.0354,-3566.272L13954.0347,-3566.2719L13954.0334,-3566.2717L13954.03,-3566.2711L13954.0157,-3566.2683L13954.01,-3566.2672"/>
<path content="1,東京空港交通（株）,国分寺駅・府中駅・調布駅～羽田空港線,10.5,10.5,10.5," xlink:title="1" d="M13954.2847,-3566.3044L13954.2732,-3566.3037L13954.2658,-3566.3033L13954.2491,-3566.3016L13954.2472,-3566.3015L13954.2443,-3566.3012L13954.2367,-3566.3005L13954.2325,-3566.3001L13954.2319,-3566.3L13954.2289,-3566.2998L13954.2058,-3566.2976L13954.1552,-3566.2904L13954.1508,-3566.2898L13954.1424,-3566.2886L13954.1403,-3566.2883L13954.1388,-3566.2881L13954.1196,-3566.2858L13954.1079,-3566.2838L13954.0602,-3566.276L13954.0403,-3566.2728L13954.0396,-3566.2727L13954.0389,-3566.2726L13954.0354,-3566.272L13954.0347,-3566.2719L13954.0334,-3566.2717L13954.03,-3566.2711L13954.0157,-3566.2683L13954.01,-3566.2672"/>
<path content="1,東京空港交通（株）,立川エリア～成田空港線,3.0,3.0,3.0," xlink:title="1" d="M13954.01,-3566.2672L13954.0157,-3566.2683L13954.03,-3566.2711L13954.0334,-3566.2717L13954.0347,-3566.2719L13954.0354,-3566.272L13954.0389,-3566.2726L13954.0396,-3566.2727L13954.0403,-3566.2728L13954.0602,-3566.276L13954.1079,-3566.2838L13954.1196,-3566.2858L13954.1388,-3566.2881L13954.1403,-3566.2883L13954.1424,-3566.2886L13954.1508,-3566.2898L13954.1552,-3566.2904L13954.2058,-3566.2976L13954.2289,-3566.2998L13954.2319,-3566.3L13954.2325,-3566.3001L13954.2367,-3566.3005L13954.2443,-3566.3012L13954.2472,-3566.3015L13954.2491,-3566.3016L13954.2658,-3566.3033L13954.2732,-3566.3037L13954.2847,-3566.3044"/>
<path content="1,東京空港交通（株）,調布駅～成田空港線,4.0,4.0,4.0," xlink:title="1" d="M13954.2847,-3566.3044L13954.2732,-3566.3037L13954.2658,-3566.3033L13954.2491,-3566.3016L13954.2472,-3566.3015L13954.2443,-3566.3012L13954.2367,-3566.3005L13954.2325,-3566.3001L13954.2319,-3566.3L13954.2289,-3566.2998L13954.2058,-3566.2976L13954.1552,-3566.2904L13954.1508,-3566.2898L13954.1424,-3566.2886L13954.1403,-3566.2883L13954.1388,-3566.2881L13954.1196,-3566.2858L13954.1079,-3566.2838L13954.0602,-3566.276L13954.0403,-3566.2728L13954.0396,-3566.2727L13954.0389,-3566.2726L13954.0354,-3566.272L13954.0347,-3566.2719L13954.0334,-3566.2717L13954.03,-3566.2711L13954.0157,-3566.2683L13954.01,-3566.2672"/>
<path content="1,東京空港交通（株）,高尾・八王子・日野エリア～羽田空港線,3.0,3.0,3.0," xlink:title="1" d="M13954.2847,-3566.3044L13954.2732,-3566.3037L13954.2658,-3566.3033L13954.2491,-3566.3016L13954.2472,-3566.3015L13954.2443,-3566.3012L13954.2367,-3566.3005L13954.2325,-3566.3001L13954.2319,-3566.3L13954.2289,-3566.2998L13954.2058,-3566.2976L13954.1552,-3566.2904L13954.1508,-3566.2898L13954.1424,-3566.2886L13954.1403,-3566.2883L13954.1388,-3566.2881L13954.1196,-3566.2858L13954.1079,-3566.2838L13954.0602,-3566.276L13954.0403,-3566.2728L13954.0396,-3566.2727L13954.0389,-3566.2726L13954.0354,-3566.272L13954.0347,-3566.2719L13954.0334,-3566.2717L13954.03,-3566.2711L13954.0157,-3566.2683L13954.01,-3566.2672"/>
<path content="1,東濃鉄道（株）,中央ライナー号,1.0,1.0,1.0," xlink:title="1" d="M13954.01,-3566.2672L13954.0157,-3566.2683L13954.0299,-3566.2711L13954.0403,-3566.2728L13954.1196,-3566.2858L13954.1424,-3566.2886L13954.2058,-3566.2976L13954.2442,-3566.3012L13954.2658,-3566.3032L13954.2847,-3566.3044"/>
<path content="1,松本電気鉄道（株）,特急松本新宿線,11.0,11.0,11.0," xlink:title="1" d="M13954.01,-3566.2672L13954.0157,-3566.2683L13954.0299,-3566.2711L13954.0403,-3566.2728L13954.1196,-3566.2858L13954.1424,-3566.2886L13954.2058,-3566.2976L13954.2442,-3566.3012L13954.2658,-3566.3032L13954.2847,-3566.3044"/>
<path content="1,松本電気鉄道（株）,特急白馬新宿線,4.0,4.0,4.0," xlink:title="1" d="M13954.01,-3566.2672L13954.0157,-3566.2683L13954.0299,-3566.2711L13954.0403,-3566.2728L13954.1196,-3566.2858L13954.1424,-3566.2886L13954.2058,-3566.2976L13954.2442,-3566.3012L13954.2658,-3566.3032L13954.2847,-3566.3044"/>
<path content="1,濃飛乗合自動車（株）,新宿線,2.0,2.0,2.0," xlink:title="1" d="M13954.01,-3566.2672L13954.0157,-3566.2683L13954.0299,-3566.2711L13954.0403,-3566.2728L13954.1196,-3566.2858L13954.1424,-3566.2886L13954.2058,-3566.2976L13954.2442,-3566.3012L13954.2658,-3566.3032L13954.2847,-3566.3044"/>
<path content="1,石見交通（株）,いわみEX　東京線,1.0,1.0,1.0," xlink:title="1" d="M13954.01,-3566.2672L13954.0299,-3566.2711L13954.0403,-3566.2728L13954.1196,-3566.2858L13954.1424,-3566.2886L13954.2058,-3566.2976L13954.2442,-3566.3012L13954.2658,-3566.3032L13954.2847,-3566.3044"/>
<path content="1,西東京バス（株）,001,2.0,2.0,2.0," xlink:title="1" d="M13954.2847,-3566.3044L13954.2732,-3566.3037L13954.2658,-3566.3033L13954.2491,-3566.3016L13954.2472,-3566.3015L13954.2443,-3566.3012L13954.2367,-3566.3005L13954.2325,-3566.3001L13954.2319,-3566.3L13954.2289,-3566.2998L13954.2058,-3566.2976L13954.1552,-3566.2904L13954.1508,-3566.2898L13954.1424,-3566.2886L13954.1403,-3566.2883L13954.1388,-3566.2881L13954.1196,-3566.2858L13954.1079,-3566.2838L13954.0602,-3566.276L13954.0403,-3566.2728L13954.0396,-3566.2727L13954.0389,-3566.2726L13954.0354,-3566.272L13954.0347,-3566.2719L13954.0334,-3566.2717L13954.03,-3566.2711L13954.0157,-3566.2683L13954.01,-3566.2672"/>
<path content="1,西東京バス（株）,002,2.0,2.0,2.0," xlink:title="1" d="M13954.01,-3566.2672L13954.0157,-3566.2683L13954.03,-3566.2711L13954.0334,-3566.2717L13954.0347,-3566.2719L13954.0354,-3566.272L13954.0389,-3566.2726L13954.0396,-3566.2727L13954.0403,-3566.2728L13954.0602,-3566.276L13954.1079,-3566.2838L13954.1196,-3566.2858L13954.1388,-3566.2881L13954.1403,-3566.2883L13954.1424,-3566.2886L13954.1508,-3566.2898L13954.1552,-3566.2904L13954.2058,-3566.2976L13954.2289,-3566.2998L13954.2319,-3566.3L13954.2325,-3566.3001L13954.2367,-3566.3005L13954.2443,-3566.3012L13954.2472,-3566.3015L13954.2491,-3566.3016L13954.2658,-3566.3033L13954.2732,-3566.3037L13954.2847,-3566.3044"/>
<path content="1,西東京バス（株）,003,9.0,9.0,9.0," xlink:title="1" d="M13954.2847,-3566.3044L13954.2732,-3566.3037L13954.2658,-3566.3033L13954.2491,-3566.3016L13954.2472,-3566.3015L13954.2443,-3566.3012L13954.2367,-3566.3005L13954.2325,-3566.3001L13954.2319,-3566.3L13954.2289,-3566.2998L13954.2058,-3566.2976L13954.1552,-3566.2904L13954.1508,-3566.2898L13954.1424,-3566.2886L13954.1403,-3566.2883L13954.1388,-3566.2881L13954.1196,-3566.2858L13954.1079,-3566.2838L13954.0602,-3566.276L13954.0403,-3566.2728L13954.0396,-3566.2727L13954.0389,-3566.2726L13954.0354,-3566.272L13954.0347,-3566.2719L13954.0334,-3566.2717L13954.03,-3566.2711L13954.0157,-3566.2683L13954.01,-3566.2672"/>
<path content="1,西東京バス（株）,004,1.0,0.0,0.0," xlink:title="1" d="M13954.2847,-3566.3044L13954.2732,-3566.3037L13954.2658,-3566.3033L13954.2491,-3566.3016L13954.2472,-3566.3015L13954.2443,-3566.3012L13954.2367,-3566.3005L13954.2325,-3566.3001L13954.2319,-3566.3L13954.2289,-3566.2998L13954.2058,-3566.2976L13954.1552,-3566.2904L13954.1508,-3566.2898L13954.1424,-3566.2886L13954.1403,-3566.2883L13954.1388,-3566.2881L13954.1196,-3566.2858L13954.1079,-3566.2838L13954.0602,-3566.276L13954.0403,-3566.2728L13954.0396,-3566.2727L13954.0389,-3566.2726L13954.0354,-3566.272L13954.0347,-3566.2719L13954.0334,-3566.2717L13954.03,-3566.2711L13954.0157,-3566.2683L13954.01,-3566.2672"/>
<path content="1,西東京バス（株）,005,1.0,0.0,0.0," xlink:title="1" d="M13954.2847,-3566.3044L13954.2732,-3566.3037L13954.2658,-3566.3033L13954.2491,-3566.3016L13954.2472,-3566.3015L13954.2443,-3566.3012L13954.2367,-3566.3005L13954.2325,-3566.3001L13954.2319,-3566.3L13954.2289,-3566.2998L13954.2058,-3566.2976L13954.1552,-3566.2904L13954.1508,-3566.2898L13954.1424,-3566.2886L13954.1403,-3566.2883L13954.1388,-3566.2881L13954.1196,-3566.2858L13954.1079,-3566.2838L13954.0602,-3566.276L13954.0403,-3566.2728L13954.0396,-3566.2727L13954.0389,-3566.2726L13954.0354,-3566.272L13954.0347,-3566.2719L13954.0334,-3566.2717L13954.03,-3566.2711L13954.0157,-3566.2683L13954.01,-3566.2672"/>
<path content="1,西東京バス（株）,オレンジライナー号,1.0,1.0,1.0," xlink:title="1" d="M13954.01,-3566.2672L13954.0157,-3566.2683L13954.03,-3566.2711L13954.0334,-3566.2717L13954.0347,-3566.2719L13954.0354,-3566.272L13954.0389,-3566.2726L13954.0396,-3566.2727L13954.0403,-3566.2728L13954.0602,-3566.276L13954.1079,-3566.2838L13954.1196,-3566.2858L13954.1388,-3566.2881L13954.1403,-3566.2883L13954.1424,-3566.2886L13954.1508,-3566.2898L13954.1552,-3566.2904L13954.2058,-3566.2976L13954.2289,-3566.2998L13954.2319,-3566.3L13954.2325,-3566.3001L13954.2367,-3566.3005L13954.2443,-3566.3012L13954.2472,-3566.3015L13954.2491,-3566.3016L13954.2658,-3566.3033L13954.2732,-3566.3037L13954.2847,-3566.3044"/>
<path content="1,西東京バス（株）,ツインクル号,1.0,1.0,1.0," xlink:title="1" d="M13954.01,-3566.2672L13954.0157,-3566.2683L13954.03,-3566.2711L13954.0334,-3566.2717L13954.0347,-3566.2719L13954.0354,-3566.272L13954.0389,-3566.2726L13954.0396,-3566.2727L13954.0403,-3566.2728L13954.0602,-3566.276L13954.1079,-3566.2838L13954.1196,-3566.2858L13954.1388,-3566.2881L13954.1403,-3566.2883L13954.1424,-3566.2886L13954.1508,-3566.2898L13954.1552,-3566.2904L13954.2058,-3566.2976L13954.2289,-3566.2998L13954.2319,-3566.3L13954.2325,-3566.3001L13954.2367,-3566.3005L13954.2443,-3566.3012L13954.2472,-3566.3015L13954.2491,-3566.3016L13954.2658,-3566.3033L13954.2732,-3566.3037L13954.2847,-3566.3044"/>
<path content="1,西東京バス（株）,ハローブリッジ号,1.0,1.0,1.0," xlink:title="1" d="M13954.01,-3566.2672L13954.0157,-3566.2683L13954.03,-3566.2711L13954.0334,-3566.2717L13954.0347,-3566.2719L13954.0354,-3566.272L13954.0389,-3566.2726L13954.0396,-3566.2727L13954.0403,-3566.2728L13954.0602,-3566.276L13954.1079,-3566.2838L13954.1196,-3566.2858L13954.1388,-3566.2881L13954.1403,-3566.2883L13954.1424,-3566.2886L13954.1508,-3566.2898L13954.1552,-3566.2904L13954.2058,-3566.2976L13954.2289,-3566.2998L13954.2319,-3566.3L13954.2325,-3566.3001L13954.2367,-3566.3005L13954.2443,-3566.3012L13954.2472,-3566.3015L13954.2491,-3566.3016L13954.2658,-3566.3033L13954.2732,-3566.3037L13954.2847,-3566.3044"/>
<path content="1,西武バス（株）,伊勢・鳥羽線,2.0,2.0,2.0," xlink:title="1" d="M13954.01,-3566.2672L13954.0157,-3566.2683L13954.03,-3566.2711L13954.0334,-3566.2717L13954.0347,-3566.2719L13954.0354,-3566.272L13954.0389,-3566.2726L13954.0396,-3566.2727L13954.0403,-3566.2728L13954.0602,-3566.276L13954.1079,-3566.2838L13954.1196,-3566.2858L13954.1388,-3566.2881L13954.1403,-3566.2883L13954.1424,-3566.2886L13954.1508,-3566.2898L13954.1552,-3566.2904L13954.2058,-3566.2976L13954.2289,-3566.2998L13954.2319,-3566.3L13954.2325,-3566.3001L13954.2367,-3566.3005L13954.2443,-3566.3012L13954.2472,-3566.3015L13954.2491,-3566.3016L13954.2658,-3566.3033L13954.2732,-3566.3037L13954.2847,-3566.3044"/>
<path content="1,諏訪バス（株）,岡谷・諏訪・茅野～新宿線_01_on,17.0,17.0,17.0," xlink:title="1" d="M13954.01,-3566.2672L13954.0157,-3566.2683L13954.0299,-3566.2711L13954.0403,-3566.2728L13954.1196,-3566.2858L13954.1424,-3566.2886L13954.2058,-3566.2976L13954.2442,-3566.3012L13954.2658,-3566.3032L13954.2847,-3566.3044"/>
<path content="1,諏訪バス（株）,岡谷・諏訪・茅野～新宿線_02_on,17.0,17.0,17.0," xlink:title="1" d="M13954.01,-3566.2672L13954.0157,-3566.2683L13954.0299,-3566.2711L13954.0403,-3566.2728L13954.1196,-3566.2858L13954.1424,-3566.2886L13954.2058,-3566.2976L13954.2442,-3566.3012L13954.2658,-3566.3032L13954.2847,-3566.3044"/>
<path content="1,諏訪バス（株）,岡谷・諏訪・茅野～新宿線_03_on,17.0,17.0,17.0," xlink:title="1" d="M13954.01,-3566.2672L13954.0157,-3566.2683L13954.0299,-3566.2711L13954.0403,-3566.2728L13954.1196,-3566.2858L13954.1424,-3566.2886L13954.2058,-3566.2976L13954.2442,-3566.3012L13954.2658,-3566.3032L13954.2847,-3566.3044"/>
<path content="1,諏訪バス（株）,飯田～新宿線,12.0,12.0,12.0," xlink:title="1" d="M13954.01,-3566.2672L13954.0157,-3566.2683L13954.0299,-3566.2711L13954.0403,-3566.2728L13954.1196,-3566.2858L13954.1424,-3566.2886L13954.2058,-3566.2976L13954.2442,-3566.3012L13954.2658,-3566.3032L13954.2847,-3566.3044"/>
<path content="1,諏訪バス（株）,駒ヶ根・伊那～新宿線,11.0,11.0,11.0," xlink:title="1" d="M13954.01,-3566.2672L13954.0157,-3566.2683L13954.0299,-3566.2711L13954.0403,-3566.2728L13954.1196,-3566.2858L13954.1424,-3566.2886L13954.2058,-3566.2976L13954.2442,-3566.3012L13954.2658,-3566.3032L13954.2847,-3566.3044"/>
<path content="1,近鉄バス（株）,大阪・茨木⇔新宿・八王子,1.0,1.0,1.0," xlink:title="1" d="M13954.01,-3566.2672L13954.0157,-3566.2683L13954.0299,-3566.2711L13954.0403,-3566.2728L13954.1196,-3566.2858L13954.1424,-3566.2886L13954.2058,-3566.2976L13954.2442,-3566.3012L13954.2658,-3566.3032L13954.2847,-3566.3044"/>
<path content="1,関越交通（株）,富士急ハイランド線,999.9,999.9,999.9," xlink:title="1" d="M13954.01,-3566.2672L13954.0157,-3566.2683L13954.03,-3566.2711L13954.0334,-3566.2717L13954.0347,-3566.2719L13954.0354,-3566.272L13954.0389,-3566.2726L13954.0396,-3566.2727L13954.0403,-3566.2728L13954.0602,-3566.276L13954.1079,-3566.2838L13954.1196,-3566.2858L13954.1388,-3566.2881L13954.1403,-3566.2883L13954.1424,-3566.2886L13954.1508,-3566.2898L13954.1552,-3566.2904L13954.2058,-3566.2976L13954.2289,-3566.2998L13954.2319,-3566.3L13954.2325,-3566.3001L13954.2367,-3566.3005L13954.2443,-3566.3012L13954.2472,-3566.3015L13954.2491,-3566.3016L13954.2658,-3566.3033L13954.2732,-3566.3037L13954.2847,-3566.3044"/>
<path content="1,阪急バス（株）,新宿・渋谷行,1.0,1.0,1.0," xlink:title="1" d="M13954.01,-3566.2672L13954.0157,-3566.2683L13954.0299,-3566.2711L13954.0403,-3566.2728L13954.1196,-3566.2858L13954.1424,-3566.2886L13954.2058,-3566.2976L13954.2442,-3566.3012L13954.2658,-3566.3032L13954.2847,-3566.3044"/>
<path content="1,（株）シティバス立川,立川駅～成田空港線,3.0,3.0,3.0," xlink:title="1" d="M13954.01,-3566.2672L13954.0157,-3566.2683L13954.03,-3566.2711L13954.0334,-3566.2717L13954.0347,-3566.2719L13954.0354,-3566.272L13954.0389,-3566.2726L13954.0396,-3566.2727L13954.0403,-3566.2728L13954.0602,-3566.276L13954.1079,-3566.2838L13954.1196,-3566.2858L13954.1388,-3566.2881L13954.1403,-3566.2883L13954.1424,-3566.2886L13954.1508,-3566.2898L13954.1552,-3566.2904L13954.2058,-3566.2976L13954.2289,-3566.2998L13954.2319,-3566.3L13954.2325,-3566.3001L13954.2367,-3566.3005L13954.2443,-3566.3012L13954.2472,-3566.3015L13954.2491,-3566.3016L13954.2658,-3566.3033L13954.2732,-3566.3037L13954.2847,-3566.3044"/>
<path content="1,（株）シティバス立川,立川駅～羽田空港線,9.0,9.0,9.0," xlink:title="1" d="M13954.2847,-3566.3044L13954.2732,-3566.3037L13954.2658,-3566.3033L13954.2491,-3566.3016L13954.2472,-3566.3015L13954.2443,-3566.3012L13954.2367,-3566.3005L13954.2325,-3566.3001L13954.2319,-3566.3L13954.2289,-3566.2998L13954.2058,-3566.2976L13954.1552,-3566.2904L13954.1508,-3566.2898L13954.1424,-3566.2886L13954.1403,-3566.2883L13954.1388,-3566.2881L13954.1196,-3566.2858L13954.1079,-3566.2838L13954.0602,-3566.276L13954.0403,-3566.2728L13954.0396,-3566.2727L13954.0389,-3566.2726L13954.0354,-3566.272L13954.0347,-3566.2719L13954.0334,-3566.2717L13954.03,-3566.2711L13954.0157,-3566.2683L13954.01,-3566.2672"/>
</g>
</svg>
