<?xml version="1.0" encoding="UTF-8"?>
<svg  xmlns="http://www.w3.org/2000/svg" xmlns:xlink="http://www.w3.org/1999/xlink" xmlns:go="http://purl.org/svgmap/profile" property="N07_001,N07_002,N07_003,N07_004,N07_005,N07_006,N07_007" viewBox="13517.578125 -3467.28515625 4.39453125 4.39453125" go:dataArea="13517.578125 -3467.28515625 4.39453125 4.39453125" >
<metadata>
 <rdf:RDF xmlns:rdf="http://www.w3.org/1999/02/22-rdf-syntax-ns#" xmlns:crs="http://opengis.org/xmldtds/transformations.dtd" xmlns:svg="http://www.w3.org/svg" >
  <rdf:Description>
   <crs:CoordinateReferenceSystem rdf:resource="http://purl.org/crs/84" svg:transform="matrix(100.0,0.0,0.0,-100.0,0.0,0.0)" />
  </rdf:Description>
 </rdf:RDF>
</metadata>
<globalCoordinateSystem srsName="http://purl.org/crs/84" transform="matrix(100.0,0.0,0.0,-100.0,0.0,0.0)" />
<defs>
 <g id="p0" >
  <circle cx="0.0" cy="0.0" r="3" stroke="green" stroke-width="0.75" vector-effect="non-scaling-stroke" />
 </g>
</defs>
<g fill="none" fill-rule="evenodd" stroke="#FF00FF" stroke-width="0.75" opacity="0.5" vector-effect="non-scaling-stroke" stroke-linejoin="bevel" >
<path content="1,JRバス関東（株）,プレミアム中央ドリーム号/中央ドリーム号/プレミアムドリーム号/ドリーム号/レディースドリーム号/プレミアムレディース,9.4,12.0,12.0," xlink:title="1" d="M13517.5781,-3467.2172L13517.633,-3467.2499L13517.6683,-3467.2756L13517.6773,-3467.2852"/>
<path content="1,JRバス関東（株）,青春中央ドリーム号/青春中央エコドリーム号/青春ドリーム号/青春レディースドリーム号/青春エコドリーム号/超得割青春号,10.0,14.0,14.0," xlink:title="1" d="M13517.5781,-3467.2172L13517.633,-3467.2499L13517.6683,-3467.2756L13517.6773,-3467.2852"/>
<path content="1,JR九州バス（株）,福岡・小倉～神戸・大阪（山陽道昼特急博多号）,1.0,1.0,1.0," xlink:title="1" d="M13517.6773,-3467.2852L13517.6683,-3467.2756L13517.633,-3467.2499L13517.5781,-3467.2172"/>
<path content="1,JR四国バス（株）,オリーブ松山号　松山⇔名古屋,1.0,1.0,1.0," xlink:title="1" d="M13517.5781,-3467.2172L13517.633,-3467.2499L13517.6683,-3467.2756L13517.6773,-3467.2852"/>
<path content="1,JR四国バス（株）,ドリーム徳島号　阿南・徳島⇔新宿・東京・新木場,1.0,1.0,1.0," xlink:title="1" d="M13517.5781,-3467.2172L13517.633,-3467.2499L13517.6683,-3467.2756L13517.6773,-3467.2852"/>
<path content="1,JR四国バス（株）,ドリーム高松・松山号　松山・高松⇔東京・東京ディズニーランド,1.0,1.0,1.0," xlink:title="1" d="M13517.5781,-3467.2172L13517.633,-3467.2499L13517.6683,-3467.2756L13517.6773,-3467.2852"/>
<path content="1,JR四国バス（株）,ドリーム高松号　観音寺・高松⇔新宿・東京・新木場,1.0,1.0,1.0," xlink:title="1" d="M13517.5781,-3467.2172L13517.633,-3467.2499L13517.6683,-3467.2756L13517.6773,-3467.2852"/>
<path content="1,JR四国バス（株）,ドリーム高知号　高知・徳島⇔東京・新木場,1.0,1.0,1.0," xlink:title="1" d="M13517.6773,-3467.2852L13517.6683,-3467.2756L13517.633,-3467.2499L13517.5781,-3467.2172"/>
<path content="1,JR四国バス（株）,松山エクスプレス大阪号　松山⇔京都,5.0,5.0,5.0," xlink:title="1" d="M13517.6773,-3467.2852L13517.6683,-3467.2756L13517.633,-3467.2499L13517.5781,-3467.2172"/>
<path content="1,JR四国バス（株）,観音寺エクスプレス　観音寺・丸亀・高松⇔神戸・大阪,3.0,3.0,3.0," xlink:title="1" d="M13517.5781,-3467.2172L13517.633,-3467.2499L13517.6683,-3467.2756L13517.6773,-3467.2852"/>
<path content="1,JR四国バス（株）,関西リムジンバス　（丸亀・善通寺・坂出・高松⇔関空）,1.0,1.0,1.0," xlink:title="1" d="M13517.6773,-3467.2852L13517.6683,-3467.2756L13517.633,-3467.2499L13517.5781,-3467.2172"/>
<path content="1,JR四国バス（株）,阿波エクスプレス京都号　徳島⇔京都,3.0,3.0,3.0," xlink:title="1" d="M13517.5781,-3467.2172L13517.633,-3467.2499L13517.6683,-3467.2756L13517.6773,-3467.2852"/>
<path content="1,JR四国バス（株）,阿波エクスプレス大阪号　徳島⇔大阪,7.0,7.0,7.0," xlink:title="1" d="M13517.5781,-3467.2172L13517.633,-3467.2499L13517.6683,-3467.2756L13517.6773,-3467.2852"/>
<path content="1,JR四国バス（株）,阿波エクスプレス神戸号　徳島⇔神戸,5.0,5.0,5.0," xlink:title="1" d="M13517.5781,-3467.2172L13517.633,-3467.2499L13517.6683,-3467.2756L13517.6773,-3467.2852M13520.7926,-3467.2852L13520.8202,-3467.2399L13520.9688,-3467.003L13520.9722,-3466.9974L13520.9742,-3466.9941L13520.9756,-3466.9918L13520.9984,-3466.9528L13521.0544,-3466.8569L13521.1156,-3466.7547L13521.1756,-3466.6484L13521.2885,-3466.6937L13521.3614,-3466.7208L13521.3771,-3466.7213L13521.4614,-3466.6976L13521.4752,-3466.688L13521.4786,-3466.6847L13521.5099,-3466.6334L13521.5795,-3466.5167L13521.6221,-3466.4461L13521.6575,-3466.4607L13521.6843,-3466.4717L13521.7387,-3466.4941L13521.7541,-3466.5004L13521.9353,-3466.575L13521.9426,-3466.5624L13521.9727,-3466.5111"/>
<path content="1,JR四国バス（株）,高松エクスプレス京都号　高松⇔京都,2.0,2.0,2.0," xlink:title="1" d="M13517.5781,-3467.2172L13517.633,-3467.2499L13517.6683,-3467.2756L13517.6773,-3467.2852"/>
<path content="1,JR四国バス（株）,高松エクスプレス大阪号　高松⇔大阪,8.0,8.0,8.0," xlink:title="1" d="M13517.5781,-3467.2172L13517.633,-3467.2499L13517.6683,-3467.2756L13517.6773,-3467.2852"/>
<path content="1,JR四国バス（株）,高松エクスプレス神戸号　高松⇔神戸,5.0,5.0,5.0," xlink:title="1" d="M13517.5781,-3467.2172L13517.633,-3467.2499L13517.6683,-3467.2756L13517.6773,-3467.2852"/>
<path content="1,JR四国バス（株）,高知エクスプレス号　高知⇔神戸・大阪・京都,7.0,7.0,7.0," xlink:title="1" d="M13517.6773,-3467.2852L13517.6683,-3467.2756L13517.633,-3467.2499L13517.5781,-3467.2172"/>
<path content="1,JR東海バス（株）,オリーブ松山号,1.0,1.0,1.0," xlink:title="1" d="M13517.5781,-3467.2172L13517.633,-3467.2499L13517.6683,-3467.2756L13517.6773,-3467.2852"/>
<path content="1,JR東海バス（株）,名神ハイウェイバス_05_on,29.0,29.0,29.0," xlink:title="1" d="M13521.2996,-3466.434L13521.2834,-3466.4589L13521.244,-3466.534L13521.2308,-3466.5512L13521.1769,-3466.646L13521.1756,-3466.6484L13521.1468,-3466.6994L13521.1156,-3466.7547L13521.0601,-3466.8472L13521.0544,-3466.8569L13520.9984,-3466.9528L13520.9756,-3466.9918L13520.9742,-3466.9941L13520.9722,-3466.9974L13520.9688,-3467.003L13520.8202,-3467.2399L13520.7926,-3467.2852"/>
<path content="1,みなと観光バス（株）（南あわじ市）,淡路島特急線　淡路島-神戸三ノ宮,8.0,8.0,8.0," xlink:title="1" d="M13517.6773,-3467.2852L13517.6683,-3467.2756L13517.633,-3467.2499L13517.5781,-3467.2172"/>
<path content="1,サンデン交通（株）,下関～大阪,1.0,1.0,1.0," xlink:title="1" d="M13517.5781,-3467.2172L13517.633,-3467.2499L13517.6683,-3467.2756L13517.6773,-3467.2852"/>
<path content="1,ロウズ観光（株）,岡山・倉敷～東京,1.0,1.0,1.0," xlink:title="1" d="M13517.5781,-3467.2172L13517.633,-3467.2499L13517.6683,-3467.2756L13517.6773,-3467.2852"/>
<path content="1,両備ホールディングス（株）,リョービ・エクスプレス　岡山・倉敷～神戸・三ノ宮線,4.0,7.0,7.0," xlink:title="1" d="M13520.7896,-3467.2852L13520.971,-3466.993L13521.244,-3466.534"/>
<path content="1,両備ホールディングス（株）,リョービ・エクスプレス　岡山・倉敷～神戸・三ノ宮線,4.0,7.0,7.0," xlink:title="1" d="M13517.5781,-3467.2172L13517.633,-3467.2499L13517.6683,-3467.2756L13517.6773,-3467.2852"/>
<path content="1,両備ホールディングス（株）,関空リムジンバス,3.0,3.0,3.0," xlink:title="1" d="M13517.5781,-3467.2172L13517.633,-3467.2499L13517.6683,-3467.2756L13517.6773,-3467.2852"/>
<path content="1,中国JRバス（株）,呉・西条～大阪　呉エクスプレス大阪号・呉ドリーム大阪号,2.0,2.0,2.0," xlink:title="1" d="M13517.6773,-3467.2852L13517.6683,-3467.2756L13517.633,-3467.2499L13517.5781,-3467.2172"/>
<path content="1,中国JRバス（株）,江津・益田・浜田～大阪　浜田道エクスプレス,3.0,3.0,3.0," xlink:title="1" d="M13517.5781,-3467.2172L13517.633,-3467.2499L13517.6683,-3467.2756L13517.6773,-3467.2852"/>
<path content="1,中鉄バス（株）,神戸線　ハーバープリンス,4.0,7.0,7.0," xlink:title="1" d="M13520.7896,-3467.2852L13520.971,-3466.993L13521.244,-3466.534"/>
<path content="1,中鉄バス（株）,神戸線　ハーバープリンス,4.0,7.0,7.0," xlink:title="1" d="M13517.5781,-3467.2172L13517.633,-3467.2499L13517.6683,-3467.2756L13517.6773,-3467.2852"/>
<path content="1,九州産交バス（株）,鹿児島・熊本～神戸・尼崎（トワイライト号）,1.0,1.0,1.0," xlink:title="1" d="M13517.6773,-3467.2852L13517.6683,-3467.2756L13517.633,-3467.2499L13517.5781,-3467.2172"/>
<path content="1,京王バス南（株）,新宿・渋谷～神戸姫路線,1.0,1.0,1.0," xlink:title="1" d="M13517.5781,-3467.2172L13517.633,-3467.2499L13517.6683,-3467.2756L13517.6773,-3467.2852"/>
<path content="1,京阪バス（株）,京都⇔徳島,1.0,1.0,1.0," xlink:title="1" d="M13517.5781,-3467.2172L13517.633,-3467.2499L13517.6683,-3467.2756L13517.6773,-3467.2852"/>
<path content="1,京阪バス（株）,京都⇔高松,1.0,1.0,1.0," xlink:title="1" d="M13517.5781,-3467.2172L13517.633,-3467.2499L13517.6683,-3467.2756L13517.6773,-3467.2852"/>
<path content="1,京阪バス（株）,枚方・寝屋川⇔淡路・徳島,1.0,1.0,1.0," xlink:title="1" d="M13517.5781,-3467.2172L13517.633,-3467.2499L13517.6683,-3467.2756L13517.6773,-3467.2852"/>
<path content="1,伊予鉄道（株）,ハーバーライナー　松山⇔神戸,8.0,8.0,8.0," xlink:title="1" d="M13517.5781,-3467.2172L13517.633,-3467.2499L13517.6683,-3467.2756L13517.6773,-3467.2852"/>
<path content="1,南海バス（株）,エアポートリムジン（徳島空港線）12,2.0,2.0,2.0," xlink:title="1" d="M13517.6773,-3467.2852L13517.6683,-3467.2756L13517.633,-3467.2499L13517.5781,-3467.2172"/>
<path content="1,南海バス（株）,エアポートリムジン（高松空港線）15,4.5,4.5,4.5," xlink:title="1" d="M13517.5781,-3467.2172L13517.633,-3467.2499L13517.6683,-3467.2756L13517.6773,-3467.2852"/>
<path content="1,南海バス（株）,南海なんば⇔高松・国分寺,15.5,15.5,15.5," xlink:title="1" d="M13517.5781,-3467.2172L13517.633,-3467.2499L13517.6683,-3467.2756L13517.6773,-3467.2852"/>
<path content="1,南海バス（株）,堺・大阪（なんば）・神戸（三宮）⇔佐世保・ハウステンボス,1.0,1.0,1.0," xlink:title="1" d="M13517.6773,-3467.2852L13517.6683,-3467.2756L13517.633,-3467.2499L13517.5781,-3467.2172"/>
<path content="1,南海バス（株）,大阪⇔鳴門・徳島,22.5,22.5,22.5," xlink:title="1" d="M13517.6773,-3467.2852L13517.6683,-3467.2756L13517.633,-3467.2499L13517.5781,-3467.2172"/>
<path content="1,名鉄バス（株）,名古屋～徳島,0.5,2.0,2.0," xlink:title="1" d="M13517.6773,-3467.2852L13517.6683,-3467.2756L13517.633,-3467.2499L13517.5781,-3467.2172"/>
<path content="1,名鉄バス（株）,名古屋～松山,1.0,1.0,1.0," xlink:title="1" d="M13517.5781,-3467.2172L13517.633,-3467.2499L13517.6683,-3467.2756L13517.6773,-3467.2852"/>
<path content="1,名鉄バス（株）,名古屋～高松,2.0,2.0,2.0," xlink:title="1" d="M13517.5781,-3467.2172L13517.633,-3467.2499L13517.6683,-3467.2756L13517.6773,-3467.2852"/>
<path content="1,四国交通（株）,大阪線（阿波池田BT～大阪間）,6.0,6.0,6.0," xlink:title="1" d="M13517.5781,-3467.2172L13517.633,-3467.2499L13517.6683,-3467.2756L13517.6773,-3467.2852"/>
<path content="1,四国高速バス（株）,さぬきエクスプレス名古屋　善通寺・坂出⇔名古屋,1.0,1.0,1.0," xlink:title="1" d="M13517.5781,-3467.2172L13517.633,-3467.2499L13517.6683,-3467.2756L13517.6773,-3467.2852"/>
<path content="1,四国高速バス（株）,さぬきエクスプレス大阪　高松⇔大阪,8.0,8.0,8.0," xlink:title="1" d="M13517.5781,-3467.2172L13517.633,-3467.2499L13517.6683,-3467.2756L13517.6773,-3467.2852"/>
<path content="1,四国高速バス（株）,さぬきエクスプレス大阪号　丸亀・善通寺・坂出⇔大阪・神戸,4.0,4.0,4.0," xlink:title="1" d="M13517.5781,-3467.2172L13517.633,-3467.2499L13517.6683,-3467.2756L13517.6773,-3467.2852"/>
<path content="1,四国高速バス（株）,さぬきエクスプレス神戸　高松⇔神戸,5.0,5.0,5.0," xlink:title="1" d="M13517.5781,-3467.2172L13517.633,-3467.2499L13517.6683,-3467.2756L13517.6773,-3467.2852"/>
<path content="1,四国高速バス（株）,さぬきエクスプレス神戸号　丸亀・善通寺・坂出⇔神戸,4.0,4.0,4.0," xlink:title="1" d="M13517.5781,-3467.2172L13517.633,-3467.2499L13517.6683,-3467.2756L13517.6773,-3467.2852"/>
<path content="1,四国高速バス（株）,ハローブリッジ号　善通寺・坂出⇔横浜・新宿・八王子,1.0,1.0,1.0," xlink:title="1" d="M13517.6773,-3467.2852L13517.6683,-3467.2756L13517.633,-3467.2499L13517.5781,-3467.2172"/>
<path content="1,四国高速バス（株）,観音寺エクスプレス号　観音寺⇔大阪,6.0,6.0,6.0," xlink:title="1" d="M13517.5781,-3467.2172L13517.633,-3467.2499L13517.6683,-3467.2756L13517.6773,-3467.2852"/>
<path content="1,四国高速バス（株）,関西空港リムジンバス　善通寺・高松⇔関西空港,2.0,2.0,2.0," xlink:title="1" d="M13517.6773,-3467.2852L13517.6683,-3467.2756L13517.633,-3467.2499L13517.5781,-3467.2172"/>
<path content="1,四国高速バス（株）,高松エクスプレス京都　高松⇔京都,1.0,2.0,2.0," xlink:title="1" d="M13517.5781,-3467.2172L13517.633,-3467.2499L13517.6683,-3467.2756L13517.6773,-3467.2852"/>
<path content="1,土佐電気鉄道（株）,ドラゴンライナー　高知⇔名古屋線,1.0,1.0,1.0," xlink:title="1" d="M13517.5781,-3467.2172L13517.633,-3467.2499L13517.6683,-3467.2756L13517.6773,-3467.2852"/>
<path content="1,土佐電気鉄道（株）,ハーバーライナー　高知⇔神戸線,4.0,4.0,4.0," xlink:title="1" d="M13517.5781,-3467.2172L13517.633,-3467.2499L13517.6683,-3467.2756L13517.6773,-3467.2852"/>
<path content="1,宇和島自動車（株）,城辺・宇和島⇔神戸・大阪,1.0,1.0,1.0," xlink:title="1" d="M13517.5781,-3467.2172L13517.633,-3467.2499L13517.6683,-3467.2756L13517.6773,-3467.2852"/>
<path content="1,宇和島自動車（株）,宇和島・松山⇔横浜・池袋・大宮,1.0,1.0,1.0," xlink:title="1" d="M13517.5781,-3467.2172L13517.633,-3467.2499L13517.6683,-3467.2756L13517.6773,-3467.2852"/>
<path content="1,広交観光（株）,神戸エクスプレス　広島⇔神戸,2.0,4.0,4.0," xlink:title="1" d="M13517.5781,-3467.2172L13517.633,-3467.2499L13517.6683,-3467.2756L13517.6773,-3467.2852"/>
<path content="1,徳島バス南部（株）,高知・室戸⇔大阪駅前・なんば・USJ,7.0,7.0,7.0," xlink:title="1" d="M13517.5781,-3467.2172L13517.633,-3467.2499L13517.6683,-3467.2756L13517.6773,-3467.2852"/>
<path content="1,徳島バス阿南（株）,室戸/阿南-大阪線,7.0,7.0,7.0," xlink:title="1" d="M13517.5781,-3467.2172L13517.633,-3467.2499L13517.6683,-3467.2756L13517.6773,-3467.2852"/>
<path content="1,徳島バス（株）,室戸・生見・橘⇔大阪,7.0,7.0,7.0," xlink:title="1" d="M13517.5781,-3467.2172L13517.633,-3467.2499L13517.6683,-3467.2756L13517.6773,-3467.2852"/>
<path content="1,徳島バス（株）,徳島⇔三宮,16.0,16.0,16.0," xlink:title="1" d="M13517.5781,-3467.2172L13517.633,-3467.2499L13517.6683,-3467.2756L13517.6773,-3467.2852"/>
<path content="1,徳島バス（株）,徳島⇔京都,7.0,7.0,7.0," xlink:title="1" d="M13517.5781,-3467.2172L13517.633,-3467.2499L13517.6683,-3467.2756L13517.6773,-3467.2852"/>
<path content="1,徳島バス（株）,徳島⇔名古屋,2.0,2.0,2.0," xlink:title="1" d="M13517.6773,-3467.2852L13517.6683,-3467.2756L13517.633,-3467.2499L13517.5781,-3467.2172"/>
<path content="1,徳島バス（株）,徳島⇔大阪,22.5,22.5,22.5," xlink:title="1" d="M13517.5781,-3467.2172L13517.633,-3467.2499L13517.6683,-3467.2756L13517.6773,-3467.2852"/>
<path content="1,徳島バス（株）,徳島⇔寝屋川・枚方,2.0,2.0,2.0," xlink:title="1" d="M13517.5781,-3467.2172L13517.633,-3467.2499L13517.6683,-3467.2756L13517.6773,-3467.2852"/>
<path content="1,徳島バス（株）,徳島⇔東京,2.0,2.0,2.0," xlink:title="1" d="M13517.5781,-3467.2172L13517.633,-3467.2499L13517.6683,-3467.2756L13517.6773,-3467.2852"/>
<path content="1,徳島バス（株）,徳島⇔関西空港,10.0,10.0,10.0," xlink:title="1" d="M13517.6773,-3467.2852L13517.6683,-3467.2756L13517.633,-3467.2499L13517.5781,-3467.2172"/>
<path content="1,日本交通（株）,倉吉～神戸・大阪線　夜行便,1.0,1.0,1.0," xlink:title="1" d="M13517.5781,-3467.2172L13517.633,-3467.2499L13517.6683,-3467.2756L13517.6773,-3467.2852"/>
<path content="1,日本交通（株）,倉吉～神戸・大阪線　神戸経由なんば便,9.0,9.0,9.0," xlink:title="1" d="M13517.5781,-3467.2172L13517.633,-3467.2499L13517.6683,-3467.2756L13517.6773,-3467.2852"/>
<path content="1,日本交通（株）,米子～神戸・大阪線　夜行便,1.0,1.0,1.0," xlink:title="1" d="M13517.5781,-3467.2172L13517.633,-3467.2499L13517.6683,-3467.2756L13517.6773,-3467.2852"/>
<path content="1,日本交通（株）,米子～神戸・大阪線　神戸便,5.0,5.0,5.0," xlink:title="1" d="M13517.5781,-3467.2172L13517.633,-3467.2499L13517.6683,-3467.2756L13517.6773,-3467.2852"/>
<path content="1,日本交通（株）,鳥取～神戸・大阪線　夜行便,1.0,1.0,1.0," xlink:title="1" d="M13517.6773,-3467.2852L13517.6683,-3467.2756L13517.633,-3467.2499L13517.5781,-3467.2172"/>
<path content="1,日本交通（株）,鳥取～神戸・大阪線　神戸経由なんば便,6.0,6.0,6.0," xlink:title="1" d="M13517.6773,-3467.2852L13517.6683,-3467.2756L13517.633,-3467.2499L13517.5781,-3467.2172"/>
<path content="1,日本交通（株）（大阪）,淡路島特急線　神戸～淡路,8.0,8.0,8.0," xlink:title="1" d="M13517.5781,-3467.2172L13517.633,-3467.2499L13517.6683,-3467.2756L13517.6773,-3467.2852"/>
<path content="1,本四海峡バス（株）,かけはし号（神戸）　新神戸駅-洲本BC,12.0,11.0,11.0," xlink:title="1" d="M13517.6773,-3467.2852L13517.6683,-3467.2756L13517.633,-3467.2499L13517.5781,-3467.2172"/>
<path content="1,本四海峡バス（株）,くにうみライナー（南あわじ線）　陸の港西淡-高速舞子・新神戸駅,5.0,4.0,4.0," xlink:title="1" d="M13517.6773,-3467.2852L13517.6683,-3467.2756L13517.633,-3467.2499L13517.5781,-3467.2172"/>
<path content="1,本四海峡バス（株）,くにうみライナー（洲本線）　洲本BC-高速舞子・新神戸駅,3.0,2.0,2.0," xlink:title="1" d="M13517.6773,-3467.2852L13517.6683,-3467.2756L13517.633,-3467.2499L13517.5781,-3467.2172"/>
<path content="1,本四海峡バス（株）,大磯号　高速舞子・三宮BT・新神戸-東浦バスターミナル,18.0,20.0,20.0," xlink:title="1" d="M13517.6773,-3467.2852L13517.6683,-3467.2756L13517.633,-3467.2499L13517.5781,-3467.2172"/>
<path content="1,本四海峡バス（株）,関空リムジンバス　関西空港-JR徳島駅,2.0,2.0,2.0," xlink:title="1" d="M13517.6773,-3467.2852L13517.6683,-3467.2756L13517.633,-3467.2499L13517.5781,-3467.2172"/>
<path content="1,本四海峡バス（株）,阿波エクスプレス号（京都）　徳島駅-京都駅,1.0,1.0,1.0," xlink:title="1" d="M13517.6773,-3467.2852L13517.6683,-3467.2756L13517.633,-3467.2499L13517.5781,-3467.2172"/>
<path content="1,本四海峡バス（株）,阿波エクスプレス号（大阪）　USJ-徳島マリンピア,9.0,9.0,9.0," xlink:title="1" d="M13517.6773,-3467.2852L13517.6683,-3467.2756L13517.633,-3467.2499L13517.5781,-3467.2172"/>
<path content="1,本四海峡バス（株）,阿波エクスプレス号（神戸）　神戸空港-徳島マリンピア,5.0,5.0,5.0," xlink:title="1" d="M13517.5781,-3467.2172L13517.633,-3467.2499L13517.6683,-3467.2756L13517.6773,-3467.2852M13520.7926,-3467.2852L13520.8202,-3467.2399L13520.9688,-3467.003L13520.9722,-3466.9974L13520.9742,-3466.9941L13520.9756,-3466.9918L13520.9984,-3466.9528L13521.0544,-3466.8569L13521.1156,-3466.7547L13521.1756,-3466.6484L13521.2308,-3466.5512L13521.244,-3466.534L13521.2834,-3466.4589L13521.2629,-3466.4507L13521.3127,-3466.3646L13521.3212,-3466.3499L13521.3357,-3466.3249L13521.3789,-3466.3422L13521.4025,-3466.3549L13521.4901,-3466.3918L13521.6221,-3466.4461L13521.6575,-3466.4607L13521.6843,-3466.4717L13521.7833,-3466.5205L13521.9353,-3466.575L13521.9426,-3466.5624L13521.9727,-3466.5111"/>
<path content="1,淡路交通（株）,三ノ宮・洲本線,2.5,1.5,1.5," xlink:title="1" d="M13517.5781,-3467.2172L13517.633,-3467.2499L13517.6683,-3467.2756L13517.6773,-3467.2852"/>
<path content="1,淡路交通（株）,三ノ宮・福良線,10.0,10.0,10.0," xlink:title="1" d="M13517.6773,-3467.2852L13517.6683,-3467.2756L13517.633,-3467.2499L13517.5781,-3467.2172"/>
<path content="1,淡路交通（株）,三ノ宮・西浦線,8.0,8.0,8.0," xlink:title="1" d="M13517.6773,-3467.2852L13517.6683,-3467.2756L13517.633,-3467.2499L13517.5781,-3467.2172"/>
<path content="1,淡路交通（株）,大阪・洲本線,4.0,4.0,4.0," xlink:title="1" d="M13517.6773,-3467.2852L13517.6683,-3467.2756L13517.633,-3467.2499L13517.5781,-3467.2172"/>
<path content="1,瀬戸内運輸（株）,いしづちライナー　今治⇔神戸・大阪,7.0,7.0,7.0," xlink:title="1" d="M13517.5781,-3467.2172L13517.633,-3467.2499L13517.6683,-3467.2756L13517.6773,-3467.2852"/>
<path content="1,琴平バス（株）,愛媛・高知シャトル,2.0,2.0,2.0," xlink:title="1" d="M13517.5781,-3467.2172L13517.633,-3467.2499L13517.6683,-3467.2756L13517.6773,-3467.2852"/>
<path content="1,石見交通（株）,つわのEX　大阪線,1.0,1.0,1.0," xlink:title="1" d="M13517.5781,-3467.2172L13517.633,-3467.2499L13517.6683,-3467.2756L13517.6773,-3467.2852"/>
<path content="1,神姫バス（株）,つつじが丘北口～えるむプラザ前～フラワータウンセンター～新神戸駅～三ノ宮,3.7,4.0,4.0," xlink:title="1" d="M13521.4934,-3467.2852L13521.5638,-3467.1698L13521.5983,-3467.1123L13521.603,-3467.1045L13521.6734,-3466.9918L13521.6799,-3466.9825L13521.682,-3466.9795L13521.755,-3466.8692L13521.8205,-3466.763L13521.8919,-3466.6477L13521.9072,-3466.6231L13521.9353,-3466.575L13521.9426,-3466.5624L13521.9727,-3466.5111"/>
<path content="1,神姫バス（株）,三ノ宮～フラワータウンセンター～えるむプラザ前～ゆりのき台4丁目～つつじが丘北口,5.0,4.0,4.0," xlink:title="1" d="M13520.646,-3467.2852L13520.6473,-3467.2351L13520.6496,-3467.1767L13520.6774,-3467.181L13520.6943,-3467.1881L13520.7409,-3467.207L13520.7795,-3467.2217L13520.7934,-3467.2279L13520.8202,-3467.2399L13520.9688,-3467.003L13520.9722,-3466.9974L13520.9742,-3466.9941L13520.9756,-3466.9918L13520.9984,-3466.9528L13521.0544,-3466.8569L13521.0601,-3466.8472L13521.1156,-3466.7547L13521.1468,-3466.6994L13521.1756,-3466.6484L13521.1769,-3466.646L13521.2308,-3466.5512L13521.244,-3466.534L13521.2834,-3466.4589L13521.2629,-3466.4507L13521.3127,-3466.3646L13521.3212,-3466.3499L13521.3357,-3466.3249L13521.3789,-3466.3422L13521.3801,-3466.3426L13521.4025,-3466.3549L13521.4901,-3466.3918L13521.6221,-3466.4461L13521.6575,-3466.4607L13521.6843,-3466.4717L13521.7833,-3466.5205L13521.9353,-3466.575L13521.9426,-3466.5624L13521.9727,-3466.5111"/>
<path content="1,神姫バス（株）,三ノ宮～フラワータウンセンター～えるむプラザ前～ゆりのき台4丁目～学園フ丁目,16.5,10.0,10.0," xlink:title="1" d="M13520.646,-3467.2852L13520.6473,-3467.2351L13520.6496,-3467.1767L13520.6774,-3467.181L13520.6943,-3467.1881L13520.7409,-3467.207L13520.7795,-3467.2217L13520.7934,-3467.2279L13520.8202,-3467.2399L13520.9688,-3467.003L13520.9722,-3466.9974L13520.9742,-3466.9941L13520.9756,-3466.9918L13520.9984,-3466.9528L13521.0544,-3466.8569L13521.0601,-3466.8472L13521.1156,-3466.7547L13521.1468,-3466.6994L13521.1756,-3466.6484L13521.1769,-3466.646L13521.2308,-3466.5512L13521.244,-3466.534L13521.2834,-3466.4589L13521.2629,-3466.4507L13521.3127,-3466.3646L13521.3212,-3466.3499L13521.3357,-3466.3249L13521.3789,-3466.3422L13521.3801,-3466.3426L13521.4025,-3466.3549L13521.4901,-3466.3918L13521.6221,-3466.4461L13521.6575,-3466.4607L13521.6843,-3466.4717L13521.7833,-3466.5205L13521.9353,-3466.575L13521.9426,-3466.5624L13521.9727,-3466.5111"/>
<path content="1,神姫バス（株）,三ノ宮～ポートアイランド～先端医療センター～物流センター～MOL,13.5,6.0,6.0," xlink:title="1" d="M13520.646,-3467.2852L13520.6473,-3467.2351L13520.6496,-3467.1767L13520.6774,-3467.181L13520.6943,-3467.1881L13520.7409,-3467.207L13520.7795,-3467.2217L13520.7934,-3467.2279L13520.8202,-3467.2399L13520.9688,-3467.003L13520.9722,-3466.9974L13520.9742,-3466.9941L13520.9756,-3466.9918L13520.9984,-3466.9528L13521.0544,-3466.8569L13521.0601,-3466.8472L13521.1156,-3466.7547L13521.1468,-3466.6994L13521.1756,-3466.6484L13521.1769,-3466.646L13521.2308,-3466.5512L13521.244,-3466.534L13521.2834,-3466.4589L13521.2629,-3466.4507L13521.3127,-3466.3646L13521.3212,-3466.3499L13521.3357,-3466.3249L13521.3789,-3466.3422L13521.3801,-3466.3426L13521.4025,-3466.3549L13521.4901,-3466.3918L13521.6221,-3466.4461L13521.6575,-3466.4607L13521.6843,-3466.4717L13521.7833,-3466.5205L13521.9353,-3466.575L13521.9426,-3466.5624L13521.9727,-3466.5111M13521.9727,-3465.9349L13521.9387,-3465.921L13521.8221,-3465.8736L13521.6668,-3465.8094L13521.5822,-3465.7768L13521.4493,-3465.7209L13521.5727,-3465.5146L13521.6258,-3465.416L13521.6845,-3465.3148L13521.9506,-3465.4178L13521.9727,-3465.4268"/>
<path content="1,神姫バス（株）,三ノ宮～ポートアイランド～神戸インキュベーションオフィス～物流センター～MOL,17.3,11.5,11.5," xlink:title="1" d="M13520.646,-3467.2852L13520.6473,-3467.2351L13520.6496,-3467.1767L13520.6774,-3467.181L13520.6943,-3467.1881L13520.7409,-3467.207L13520.7795,-3467.2217L13520.7934,-3467.2279L13520.8202,-3467.2399L13520.9688,-3467.003L13520.9722,-3466.9974L13520.9742,-3466.9941L13520.9756,-3466.9918L13520.9984,-3466.9528L13521.0544,-3466.8569L13521.0601,-3466.8472L13521.1156,-3466.7547L13521.1468,-3466.6994L13521.1756,-3466.6484L13521.1769,-3466.646L13521.2308,-3466.5512L13521.244,-3466.534L13521.2834,-3466.4589L13521.2629,-3466.4507L13521.3127,-3466.3646L13521.3212,-3466.3499L13521.3357,-3466.3249L13521.3789,-3466.3422L13521.3801,-3466.3426L13521.4025,-3466.3549L13521.4901,-3466.3918L13521.6221,-3466.4461L13521.6575,-3466.4607L13521.6843,-3466.4717L13521.7833,-3466.5205L13521.9353,-3466.575L13521.9426,-3466.5624L13521.9727,-3466.5111"/>
<path content="1,神姫バス（株）,三ノ宮～神戸学院大学ポーアイキャンパス,8.5,3.0,3.0," xlink:title="1" d="M13520.646,-3467.2852L13520.6473,-3467.2351L13520.6496,-3467.1767L13520.6386,-3467.1752L13520.6283,-3467.1742L13520.5709,-3467.1711L13520.5816,-3466.9918L13520.5922,-3466.8827L13520.5993,-3466.7478L13520.4764,-3466.7434"/>
<path content="1,神姫バス（株）,三ノ宮～緑が丘駅～東自由が丘～恵比須駅,29.0,27.0,27.0," xlink:title="1" d="M13520.646,-3467.2852L13520.6473,-3467.2351L13520.6496,-3467.1767L13520.6774,-3467.181L13520.6943,-3467.1881L13520.7409,-3467.207L13520.7795,-3467.2217L13520.7934,-3467.2279L13520.8202,-3467.2399L13520.9688,-3467.003L13520.9722,-3466.9974L13520.9742,-3466.9941L13520.9756,-3466.9918L13520.9984,-3466.9528L13521.0544,-3466.8569L13521.0601,-3466.8472L13521.1156,-3466.7547L13521.1468,-3466.6994L13521.1756,-3466.6484L13521.1769,-3466.646L13521.2308,-3466.5512L13521.244,-3466.534L13521.2834,-3466.4589L13521.2629,-3466.4507L13521.3127,-3466.3646L13521.3212,-3466.3499L13521.3357,-3466.3249L13521.3789,-3466.3422L13521.3801,-3466.3426L13521.4025,-3466.3549L13521.4901,-3466.3918L13521.6221,-3466.4461L13521.6575,-3466.4607L13521.6843,-3466.4717L13521.7833,-3466.5205L13521.9353,-3466.575L13521.9426,-3466.5624L13521.9727,-3466.5111"/>
<path content="1,神姫バス（株）,三田駅～フラワータウンセンター～新神戸駅～三ノ宮,8.6,9.0,9.0," xlink:title="1" d="M13521.4934,-3467.2852L13521.5638,-3467.1698L13521.5983,-3467.1123L13521.603,-3467.1045L13521.6734,-3466.9918L13521.6799,-3466.9825L13521.682,-3466.9795L13521.755,-3466.8692L13521.8205,-3466.763L13521.8919,-3466.6477L13521.9072,-3466.6231L13521.9353,-3466.575L13521.9426,-3466.5624L13521.9727,-3466.5111"/>
<path content="1,神姫バス（株）,姫路・神戸（三ノ宮）-東京（渋谷・新宿）,1.0,1.0,1.0," xlink:title="1" d="M13517.6773,-3467.2852L13517.6683,-3467.2756L13517.633,-3467.2499L13517.5781,-3467.2172"/>
<path content="1,神姫バス（株）,学園フ丁目～えるむプラザ前～フラワータウンセンター～新神戸駅～三ノ宮,24.0,16.0,16.0," xlink:title="1" d="M13521.4934,-3467.2852L13521.5638,-3467.1698L13521.5983,-3467.1123L13521.603,-3467.1045L13521.6734,-3466.9918L13521.6799,-3466.9825L13521.682,-3466.9795L13521.755,-3466.8692L13521.8205,-3466.763L13521.8919,-3466.6477L13521.9072,-3466.6231L13521.9353,-3466.575L13521.9426,-3466.5624L13521.9727,-3466.5111"/>
<path content="1,神姫バス（株）,恵比須駅～東自由が丘～緑が丘駅～三ノ宮,42.5,39.5,39.5," xlink:title="1" d="M13520.646,-3467.2852L13520.6473,-3467.2351L13520.6496,-3467.1767L13520.6774,-3467.181L13520.6943,-3467.1881L13520.7409,-3467.207L13520.7795,-3467.2217L13520.7934,-3467.2279L13520.8202,-3467.2399L13520.9688,-3467.003L13520.9722,-3466.9974L13520.9742,-3466.9941L13520.9756,-3466.9918L13520.9984,-3466.9528L13521.0544,-3466.8569L13521.0601,-3466.8472L13521.1156,-3466.7547L13521.1468,-3466.6994L13521.1756,-3466.6484L13521.1769,-3466.646L13521.2308,-3466.5512L13521.244,-3466.534L13521.2834,-3466.4589L13521.2629,-3466.4507L13521.3127,-3466.3646L13521.3212,-3466.3499L13521.3357,-3466.3249L13521.3789,-3466.3422L13521.3801,-3466.3426L13521.4025,-3466.3549L13521.4901,-3466.3918L13521.6221,-3466.4461L13521.6575,-3466.4607L13521.6843,-3466.4717L13521.7833,-3466.5205L13521.9353,-3466.575L13521.9426,-3466.5624L13521.9727,-3466.5111"/>
<path content="1,神姫バス（株）,神戸学院大学KPC～三ノ宮,8.5,3.0,3.0," xlink:title="1" d="M13520.3421,-3466.7385L13520.5993,-3466.7478L13520.5922,-3466.8827L13520.5816,-3466.9918L13520.5709,-3467.1711L13520.6283,-3467.1742L13520.6386,-3467.1752L13520.6496,-3467.1767L13520.6473,-3467.2351L13520.646,-3467.2852"/>
<path content="1,神姫バス（株）,神戸学院大学KPC～神戸駅南口,4.0,0.0,0.0," xlink:title="1" d="M13520.3421,-3466.7385L13520.5993,-3466.7478L13520.5922,-3466.8827L13520.5816,-3466.9918L13520.5709,-3467.1711L13520.6283,-3467.1742L13520.6386,-3467.1752L13520.6496,-3467.1767L13520.6473,-3467.2351L13520.646,-3467.2852"/>
<path content="1,神姫バス（株）,神戸空港・三ノ宮-五色,8.0,8.0,8.0," xlink:title="1" d="M13517.6773,-3467.2852L13517.6683,-3467.2756L13517.633,-3467.2499L13517.5781,-3467.2172"/>
<path content="1,神姫バス（株）,神戸空港・三ノ宮-洲本,11.5,10.5,10.5," xlink:title="1" d="M13517.5781,-3467.2172L13517.633,-3467.2499L13517.6683,-3467.2756L13517.6773,-3467.2852"/>
<path content="1,神姫バス（株）,神戸空港・三ノ宮-福良,10.0,10.0,10.0," xlink:title="1" d="M13517.5781,-3467.2172L13517.633,-3467.2499L13517.6683,-3467.2756L13517.6773,-3467.2852"/>
<path content="1,神姫バス（株）,神戸駅（南口）～白川台・白川～押部谷（栄）,4.0,4.0,4.0," xlink:title="1" d="M13517.5781,-3467.2513L13517.6142,-3467.2387L13517.633,-3467.2499L13517.6683,-3467.2756L13517.6773,-3467.2852"/>
<path content="1,神姫バス（株）,神戸駅～神戸学院大学ポーアイキャンパス,4.0,0.0,0.0," xlink:title="1" d="M13520.646,-3467.2852L13520.6473,-3467.2351L13520.6496,-3467.1767L13520.6386,-3467.1752L13520.6283,-3467.1742L13520.5709,-3467.1711L13520.5816,-3466.9918L13520.5922,-3466.8827L13520.5993,-3466.7478L13520.4764,-3466.7434"/>
<path content="1,神姫バス（株）,神戸（三ノ宮）-ホテル玄関前乗降バス,3.0,3.0,3.0," xlink:title="1" d="M13521.2996,-3466.434L13521.2834,-3466.4589L13521.244,-3466.534L13521.2308,-3466.5512L13521.1769,-3466.646L13521.1756,-3466.6484L13521.1468,-3466.6994L13521.1156,-3466.7547L13521.0601,-3466.8472L13521.0544,-3466.8569L13520.9984,-3466.9528L13520.9756,-3466.9918L13520.9742,-3466.9941L13520.9722,-3466.9974L13520.9688,-3467.003L13520.8202,-3467.2399L13520.7926,-3467.2852"/>
<path content="1,神姫バス（株）,神戸（三ノ宮）-丸亀・観音寺線,1.0,1.0,1.0," xlink:title="1" d="M13517.5781,-3467.2172L13517.633,-3467.2499L13517.6683,-3467.2756L13517.6773,-3467.2852"/>
<path content="1,神姫バス（株）,神戸（三ノ宮）-岡山・倉敷,1.0,1.0,1.0," xlink:title="1" d="M13521.2996,-3466.434L13521.2834,-3466.4589L13521.244,-3466.534L13521.2308,-3466.5512L13521.1769,-3466.646L13521.1756,-3466.6484L13521.1468,-3466.6994L13521.1156,-3466.7547L13521.0601,-3466.8472L13521.0544,-3466.8569L13520.9984,-3466.9528L13520.9756,-3466.9918L13520.9742,-3466.9941L13520.9722,-3466.9974L13520.9688,-3467.003L13520.8202,-3467.2399L13520.7926,-3467.2852"/>
<path content="1,神姫バス（株）,神戸（三ノ宮）-岡山・倉敷,1.0,1.0,1.0," xlink:title="1" d="M13517.6773,-3467.2852L13517.6683,-3467.2756L13517.633,-3467.2499L13517.5781,-3467.2172"/>
<path content="1,神姫バス（株）,神戸（三ノ宮）-広島,1.5,1.5,1.5," xlink:title="1" d="M13517.5781,-3467.2172L13517.633,-3467.2499L13517.6683,-3467.2756L13517.6773,-3467.2852"/>
<path content="1,神姫バス（株）,神戸（三ノ宮）-徳島,3.0,3.0,3.0," xlink:title="1" d="M13517.5781,-3467.2172L13517.633,-3467.2499L13517.6683,-3467.2756L13517.6773,-3467.2852"/>
<path content="1,神姫バス（株）,神戸（三ノ宮）-徳島（阿波池田）,3.0,3.0,3.0," xlink:title="1" d="M13517.5781,-3467.2172L13517.633,-3467.2499L13517.6683,-3467.2756L13517.6773,-3467.2852"/>
<path content="1,神姫バス（株）,神戸（三ノ宮）-松山,3.0,3.0,3.0," xlink:title="1" d="M13517.5781,-3467.2172L13517.633,-3467.2499L13517.6683,-3467.2756L13517.6773,-3467.2852"/>
<path content="1,神姫バス（株）,神戸（三ノ宮）-高松線,5.0,5.0,5.0," xlink:title="1" d="M13517.5781,-3467.2172L13517.633,-3467.2499L13517.6683,-3467.2756L13517.6773,-3467.2852"/>
<path content="1,神姫バス（株）,神戸（三ノ宮）-高知,2.0,2.0,2.0," xlink:title="1" d="M13517.5781,-3467.2172L13517.633,-3467.2499L13517.6683,-3467.2756L13517.6773,-3467.2852"/>
<path content="1,神姫バス（株）,神戸（三ノ宮）・姫路-長崎,1.0,1.0,1.0," xlink:title="1" d="M13517.5781,-3467.2172L13517.633,-3467.2499L13517.6683,-3467.2756L13517.6773,-3467.2852"/>
<path content="1,神戸交通振興（株）,ボーアイキャンパス線,13.7,3.0,3.0," xlink:title="1" d="M13520.2713,-3466.736L13520.3421,-3466.7385L13520.4764,-3466.7434L13520.5993,-3466.7478L13520.5922,-3466.8827L13520.5816,-3466.9918L13520.5709,-3467.1711"/>
<path content="1,神戸交通振興（株）,ボーアイキャンパス線,13.7,3.0,3.0," xlink:title="1" d="M13520.5709,-3467.1711L13520.5638,-3467.2852"/>
<path content="1,神戸交通振興（株）,ボーアイキャンパス線,13.7,3.0,3.0," xlink:title="1" d="M13520.5709,-3467.1711L13520.6283,-3467.1742L13520.6386,-3467.1752L13520.6496,-3467.1767L13520.6473,-3467.2351L13520.646,-3467.2852"/>
<path content="1,近鉄バス（株）,京都・大阪・神戸⇔中村・宿毛,2.0,2.0,2.0," xlink:title="1" d="M13517.5781,-3467.2172L13517.633,-3467.2499L13517.6683,-3467.2756L13517.6773,-3467.2852"/>
<path content="1,近鉄バス（株）,京都・大阪・神戸⇔宮崎,1.0,1.0,1.0," xlink:title="1" d="M13517.5781,-3467.2172L13517.633,-3467.2499L13517.6683,-3467.2756L13517.6773,-3467.2852"/>
<path content="1,近鉄バス（株）,大阪・神戸⇔徳山・山口・萩,1.0,1.0,1.0," xlink:title="1" d="M13517.6773,-3467.2852L13517.6683,-3467.2756L13517.633,-3467.2499L13517.5781,-3467.2172"/>
<path content="1,関西空港交通（株）,姫路発着,3.0,3.0,3.0," xlink:title="1" d="M13517.6773,-3467.2852L13517.6683,-3467.2756L13517.633,-3467.2499L13517.5781,-3467.2172"/>
<path content="1,関西空港交通（株）,淡路・鳴門・徳島発着,2.0,2.0,2.0," xlink:title="1" d="M13517.6773,-3467.2852L13517.6683,-3467.2756L13517.633,-3467.2499L13517.5781,-3467.2172"/>
<path content="1,関西空港交通（株）,高松・坂出・丸亀発着,2.0,2.0,2.0," xlink:title="1" d="M13517.5781,-3467.2172L13517.633,-3467.2499L13517.6683,-3467.2756L13517.6773,-3467.2852"/>
<path content="1,阪急バス（株）,大阪-高松・坂出・善通寺・丸亀・観音寺行（さぬきエクスプレス号）,44.0,44.0,44.0," xlink:title="1" d="M13517.5781,-3467.2172L13517.633,-3467.2499L13517.6683,-3467.2756L13517.6773,-3467.2852"/>
<path content="1,阪急バス（株）,徳島行（パールエクスプレス徳島号）,22.5,22.5,22.5," xlink:title="1" d="M13517.6773,-3467.2852L13517.6683,-3467.2756L13517.633,-3467.2499L13517.5781,-3467.2172"/>
<path content="1,阪急バス（株）,津名・洲本行（パールエクスプレス洲本号）,8.0,8.0,8.0," xlink:title="1" d="M13517.6773,-3467.2852L13517.6683,-3467.2756L13517.633,-3467.2499L13517.5781,-3467.2172"/>
<path content="1,阪急バス（株）,阿波池田（脇町・美馬）行,6.0,6.0,6.0," xlink:title="1" d="M13517.6773,-3467.2852L13517.6683,-3467.2756L13517.633,-3467.2499L13517.5781,-3467.2172"/>
<path content="1,阪神バス（株）,サラダエクスプレス　大阪梅田・なんば⇔鳴門・徳島,22.5,22.5,22.5," xlink:title="1" d="M13517.6773,-3467.2852L13517.6683,-3467.2756L13517.633,-3467.2499L13517.5781,-3467.2172"/>
<path content="1,阪神バス（株）,サラダエクスプレス　大阪梅田・神戸三宮⇔今冶,7.0,7.0,7.0," xlink:title="1" d="M13517.6773,-3467.2852L13517.6683,-3467.2756L13517.633,-3467.2499L13517.5781,-3467.2172"/>
<path content="1,阪神バス（株）,サラダエクスプレス　大阪梅田・神戸三宮⇔宇和島,2.0,2.0,2.0," xlink:title="1" d="M13517.5781,-3467.2172L13517.633,-3467.2499L13517.6683,-3467.2756L13517.6773,-3467.2852"/>
<path content="1,阪神バス（株）,サラダエクスプレス　大阪梅田・神戸三宮⇔浜田・増田,1.0,1.0,1.0," xlink:title="1" d="M13517.5781,-3467.2172L13517.633,-3467.2499L13517.6683,-3467.2756L13517.6773,-3467.2852"/>
<path content="1,阪神バス（株）,サラダエクスプレス　神戸三宮・舞子⇔鳴門・徳島,16.0,16.0,16.0," xlink:title="1" d="M13517.5781,-3467.2172L13517.633,-3467.2499L13517.6683,-3467.2756L13517.6773,-3467.2852"/>
<path content="1,防長交通（株）,萩・山口・防府・徳山・岩国～神戸・大阪,1.0,1.0,1.0," xlink:title="1" d="M13517.6773,-3467.2852L13517.6683,-3467.2756L13517.633,-3467.2499L13517.5781,-3467.2172"/>
<path content="1,高松エクスプレス（株）,フットバス大阪線　（国分寺・高松駅⇔南海なんば）,16.0,16.0,16.0," xlink:title="1" d="M13517.5781,-3467.2172L13517.633,-3467.2499L13517.6683,-3467.2756L13517.6773,-3467.2852"/>
<path content="1,高知県交通（株）,ドラゴンライナー　高知⇔名古屋線,1.0,1.0,1.0," xlink:title="1" d="M13517.5781,-3467.2172L13517.633,-3467.2499L13517.6683,-3467.2756L13517.6773,-3467.2852"/>
<path content="1,高知県交通（株）,ハーバーライナー　高知⇔神戸線,4.0,4.0,4.0," xlink:title="1" d="M13517.5781,-3467.2172L13517.633,-3467.2499L13517.6683,-3467.2756L13517.6773,-3467.2852"/>
<path content="1,高知西南交通（株）,しまんとブルーライナー　京都線,1.0,1.0,1.0," xlink:title="1" d="M13517.5781,-3467.2172L13517.633,-3467.2499L13517.6683,-3467.2756L13517.6773,-3467.2852"/>
<path content="1,高知西南交通（株）,しまんとブルーライナー　大阪線,1.0,1.0,1.0," xlink:title="1" d="M13517.5781,-3467.2172L13517.633,-3467.2499L13517.6683,-3467.2756L13517.6773,-3467.2852"/>
<path content="1,（株）はくろタクシー,はくろエクスプレス　姫路-大阪便,0.4,0.0,0.0," xlink:title="1" d="M13517.6773,-3467.2852L13517.6683,-3467.2756L13517.633,-3467.2499L13517.5781,-3467.2172"/>
<path content="1,（株）はくろタクシー,関西空港シャトル（北回り）　福崎-関空,999.9,999.9,999.9," xlink:title="1" d="M13517.6773,-3467.2852L13517.6683,-3467.2756L13517.633,-3467.2499L13517.5781,-3467.2172"/>
<path content="1,（株）はくろタクシー,関西空港シャトル（南回り）　網干-関空,999.9,999.9,999.9," xlink:title="1" d="M13517.6773,-3467.2852L13517.6683,-3467.2756L13517.633,-3467.2499L13517.5781,-3467.2172"/>
<path content="1,（株）中国バス,関西　神戸線（三成（尾道営業所～）,1.0,1.0,1.0," xlink:title="1" d="M13517.5781,-3467.2172L13517.633,-3467.2499L13517.6683,-3467.2756L13517.6773,-3467.2852"/>
<path content="1,（株）中国バス,関西　神戸線（府中営業所～）,4.0,4.0,4.0," xlink:title="1" d="M13517.5781,-3467.2172L13517.633,-3467.2499L13517.6683,-3467.2756L13517.6773,-3467.2852"/>
<path content="1,（株）神戸山陽バス,すだち120　三宮～徳島線,2.0,2.0,2.0," xlink:title="1" d="M13517.5781,-3467.2172L13517.633,-3467.2499L13517.6683,-3467.2756L13517.6773,-3467.2852"/>
<path content="1,（株）神戸山陽バス,大門橋・多聞団地・本多聞⇔三宮線,13.0,13.0,13.0," xlink:title="1" d="M13517.6773,-3467.2852L13517.6683,-3467.2756L13517.633,-3467.2499L13517.5781,-3467.2172"/>
<path content="1,（株）神戸山陽バス,清水が丘・舞子高校前⇔三宮・神戸空港線,38.0,38.0,38.0," xlink:title="1" d="M13521.9727,-3466.5111L13521.9426,-3466.5624L13521.9353,-3466.575L13521.7833,-3466.5205L13521.6843,-3466.4717L13521.6575,-3466.4607L13521.6221,-3466.4461L13521.4901,-3466.3918L13521.4025,-3466.3549L13521.3789,-3466.3422L13521.3357,-3466.3249L13521.3212,-3466.3499L13521.3127,-3466.3646L13521.2629,-3466.4507L13521.2834,-3466.4589L13521.244,-3466.534L13521.2308,-3466.5512L13521.1756,-3466.6484L13521.1156,-3466.7547L13521.0544,-3466.8569L13520.9984,-3466.9528L13520.9756,-3466.9918L13520.9742,-3466.9941L13520.9722,-3466.9974L13520.9688,-3467.003L13520.8202,-3467.2399L13520.7926,-3467.2852"/>
<path content="1,（株）神戸山陽バス,清水が丘・舞子高校前⇔三宮・神戸空港線,38.0,38.0,38.0," xlink:title="1" d="M13517.6773,-3467.2852L13517.6683,-3467.2756L13517.633,-3467.2499L13517.5781,-3467.2172"/>
<path content="1,（株）神戸山陽バス,阿波やまびこライナー　三ノ宮～阿波池田,3.0,3.0,3.0," xlink:title="1" d="M13517.5781,-3467.2172L13517.633,-3467.2499L13517.6683,-3467.2756L13517.6773,-3467.2852"/>
<path content="2,神戸市,3,65.0,58.5,55.5," xlink:title="2" d="M13517.5781,-3467.2513L13517.6142,-3467.2387L13517.6656,-3467.2216L13517.6472,-3467.1463L13517.6176,-3467.0686L13517.6169,-3467.0655L13517.6142,-3466.9802L13517.6016,-3466.8894L13517.6011,-3466.8749L13517.6003,-3466.8497L13517.5989,-3466.8096L13517.6008,-3466.6982L13517.5848,-3466.463L13517.5856,-3466.4333L13517.5781,-3466.4023M13517.5781,-3466.2838L13517.5787,-3466.2784L13517.5819,-3466.2626L13517.5929,-3466.2258L13517.6406,-3466.1122L13517.6587,-3466.0415L13517.6652,-3466.0268L13517.7058,-3465.9366L13517.7097,-3465.9281L13517.7109,-3465.9193L13517.7105,-3465.9112L13517.7074,-3465.9022L13517.7026,-3465.8948L13517.7002,-3465.8912L13517.6896,-3465.8787L13517.685,-3465.874L13517.6801,-3465.869L13517.6718,-3465.8604L13517.6599,-3465.8377L13517.5781,-3465.7582"/>
<path content="2,神戸市,85,38.5,34.5,34.5," xlink:title="2" d="M13517.6934,-3467.2852L13517.6861,-3467.2656L13517.6656,-3467.2216L13517.6472,-3467.1463L13517.6176,-3467.0686L13517.6169,-3467.0655L13517.6142,-3466.9802L13517.6016,-3466.8894L13517.6011,-3466.8749L13517.6003,-3466.8497L13517.5989,-3466.8096L13517.6008,-3466.6982L13517.5929,-3466.7009L13517.5781,-3466.699"/>
</g>
</svg>
