<?xml version="1.0" encoding="UTF-8"?>
<svg  xmlns="http://www.w3.org/2000/svg" xmlns:xlink="http://www.w3.org/1999/xlink" xmlns:go="http://purl.org/svgmap/profile" property="N07_001,N07_002,N07_003,N07_004,N07_005,N07_006,N07_007" viewBox="13315.4296875 -3331.0546875 8.7890625 8.7890625" go:dataArea="13315.4296875 -3331.0546875 8.7890625 8.7890625" >
<metadata>
 <rdf:RDF xmlns:rdf="http://www.w3.org/1999/02/22-rdf-syntax-ns#" xmlns:crs="http://opengis.org/xmldtds/transformations.dtd" xmlns:svg="http://www.w3.org/svg" >
  <rdf:Description>
   <crs:CoordinateReferenceSystem rdf:resource="http://purl.org/crs/84" svg:transform="matrix(100.0,0.0,0.0,-100.0,0.0,0.0)" />
  </rdf:Description>
 </rdf:RDF>
</metadata>
<globalCoordinateSystem srsName="http://purl.org/crs/84" transform="matrix(100.0,0.0,0.0,-100.0,0.0,0.0)" />
<defs>
 <g id="p0" >
  <circle cx="0.0" cy="0.0" r="3" stroke="green" stroke-width="0.75" vector-effect="non-scaling-stroke" />
 </g>
</defs>
<g fill="none" fill-rule="evenodd" stroke="#FF00FF" stroke-width="0.75" opacity="0.5" vector-effect="non-scaling-stroke" stroke-linejoin="bevel" >
<path content="1,小田急シティバス（株）,しまんとエクスプレス号,0.1,0.1,0.1," xlink:title="1" d="M13315.4297,-3323.7229L13315.4473,-3323.7303L13315.4949,-3323.7546L13315.5089,-3323.7636L13315.515,-3323.7659L13315.529,-3323.776L13315.5672,-3323.8019L13315.5846,-3323.8166L13315.626,-3323.8568L13315.6791,-3323.9073L13315.714,-3323.9413L13315.7207,-3323.9479L13315.7328,-3323.9586L13315.7562,-3323.9856L13315.778,-3324.011L13315.7984,-3324.0347L13315.8198,-3324.0617L13315.9304,-3324.1902L13315.9726,-3324.2392L13316.0631,-3324.3452L13316.1341,-3324.428L13316.1924,-3324.4954L13316.2024,-3324.5091L13316.2172,-3324.5289L13316.2185,-3324.5418L13316.2192,-3324.5914L13316.2181,-3324.6748L13316.2165,-3324.9174L13316.2162,-3324.9506L13316.2159,-3324.9837L13316.2154,-3325.016L13316.2159,-3325.0541L13316.2212,-3325.0817L13316.2242,-3325.0941L13316.2286,-3325.1076L13316.2413,-3325.1409L13316.2561,-3325.1713L13316.3392,-3325.2801L13316.3823,-3325.3392L13316.4187,-3325.386L13316.4495,-3325.4261L13316.4649,-3325.4486L13316.4691,-3325.4555L13316.5206,-3325.5292L13316.5233,-3325.5325L13316.5481,-3325.5681L13316.5944,-3325.634L13316.6119,-3325.6554L13316.63,-3325.6762L13316.6541,-3325.7011L13316.7238,-3325.7794L13316.74,-3325.7954L13316.7735,-3325.8183L13316.7862,-3325.8261L13316.8325,-3325.8588L13316.8607,-3325.8859L13316.8855,-3325.9169L13316.9163,-3325.9654L13316.9461,-3326.0186L13316.9566,-3326.0375L13316.9995,-3326.1169L13317.0129,-3326.1446L13317.0297,-3326.1806L13317.0471,-3326.246L13317.0579,-3326.2903L13317.0609,-3326.2992L13317.0637,-3326.3147L13317.074,-3326.3542L13317.0793,-3326.3795L13317.0954,-3326.4877L13317.0994,-3326.5097L13317.1057,-3326.53L13317.1095,-3326.5368L13317.1162,-3326.5491L13317.1337,-3326.5903L13317.1369,-3326.5987L13317.1369,-3326.5987L13317.139,-3326.6089L13317.1397,-3326.6117L13317.1397,-3326.6343L13317.1384,-3326.6421L13317.1269,-3326.6653L13317.1196,-3326.6748L13317.1075,-3326.6867L13317.1049,-3326.6894L13317.0723,-3326.724L13317.0626,-3326.7334L13317.0465,-3326.7526L13317.0304,-3326.7791L13317.0136,-3326.8135L13317.0058,-3326.8291L13316.995,-3326.8463L13316.9861,-3326.8687L13316.921,-3326.9983L13316.9082,-3327.0213L13316.8931,-3327.0467L13316.8874,-3327.0535L13316.8278,-3327.1239L13316.8166,-3327.1378L13316.809,-3327.1519L13316.8057,-3327.1634L13316.803,-3327.1787L13316.8027,-3327.188L13316.8032,-3327.1943L13316.8049,-3327.2132L13316.8072,-3327.229L13316.8137,-3327.2896L13316.8224,-3327.351L13316.8271,-3327.3708L13316.8352,-3327.3888L13316.8406,-3327.395L13316.8565,-3327.4068L13316.8613,-3327.4088L13316.8677,-3327.4116L13316.8694,-3327.4125L13316.97,-3327.4536L13317.0015,-3327.4666L13317.0116,-3327.4699L13317.0927,-3327.5026L13317.1303,-3327.5184L13317.1343,-3327.5201L13317.1585,-3327.5342L13317.1974,-3327.5618L13317.2014,-3327.5641L13317.2047,-3327.5663L13317.248,-3327.5976L13317.3221,-3327.6537L13317.4134,-3327.7269L13317.4382,-3327.75L13317.4442,-3327.7596L13317.4878,-3327.8582L13317.4964,-3327.8789L13317.5022,-3327.8958L13317.5059,-3327.9123L13317.5072,-3327.9196L13317.5173,-3328.0087L13317.52,-3328.0329L13317.522,-3328.0634L13317.5227,-3328.1174L13317.5209,-3328.1255L13317.518,-3328.1546L13317.5173,-3328.1586L13317.5146,-3328.1699L13317.5139,-3328.1822L13317.5126,-3328.2082L13317.5139,-3328.2234L13317.5247,-3328.3429L13317.5361,-3328.4229L13317.5441,-3328.4787L13317.5596,-3328.5564L13317.5582,-3328.5778L13317.5528,-3328.5897L13317.5367,-3328.6138L13317.5073,-3328.6477L13317.5066,-3328.6487L13317.459,-3328.7159L13317.4476,-3328.7294L13317.4315,-3328.7441L13317.414,-3328.7565L13317.3771,-3328.7756L13317.3416,-3328.7886L13317.296,-3328.8021L13317.2745,-3328.8072L13317.2571,-3328.8123L13317.2309,-3328.8219L13317.1867,-3328.8444L13317.1524,-3328.8669L13317.1437,-3328.8748L13317.1363,-3328.8855L13317.1303,-3328.9036L13317.1202,-3328.9577L13317.1149,-3328.9954L13317.1142,-3329.0225L13317.1182,-3329.0456L13317.1301,-3329.0735L13317.2236,-3329.2929L13317.2289,-3329.3098L13317.2323,-3329.3279L13317.2323,-3329.3764L13317.2296,-3329.3983L13317.2283,-3329.4224L13317.2189,-3329.4502L13317.2088,-3329.4857L13317.2068,-3329.4936L13317.1753,-3329.5961L13317.1659,-3329.6282L13317.1618,-3329.6525L13317.1618,-3329.6699L13317.1639,-3329.6767L13317.1639,-3329.6801L13317.1692,-3329.6857L13317.1753,-3329.693L13317.2068,-3329.7173L13317.2443,-3329.7443L13317.247,-3329.7454L13317.2484,-3329.7471L13317.2879,-3329.7714L13317.4355,-3329.848L13317.4576,-3329.8593L13317.4831,-3329.8756L13317.4884,-3329.88L13317.5146,-3329.9016L13317.5522,-3329.9343L13317.575,-3329.9545L13317.632,-3330.0041L13317.6488,-3330.021L13317.6602,-3330.0351L13317.6683,-3330.0509L13317.6783,-3330.0807L13317.681,-3330.0867L13317.6818,-3330.0936L13317.6864,-3330.1101L13317.6971,-3330.1399L13317.7152,-3330.1647L13317.7628,-3330.2199L13317.7762,-3330.2402L13317.7843,-3330.2583L13317.7869,-3330.2741L13317.7876,-3330.2994L13317.7977,-3330.3349L13317.7984,-3330.3398L13317.799,-3330.3439L13317.8024,-3330.3558L13317.8326,-3330.4769L13317.8453,-3330.5147L13317.8906,-3330.6225L13317.899,-3330.6454L13317.9332,-3330.7257L13317.9446,-3330.7525L13317.9497,-3330.7651L13317.9608,-3330.7924L13317.9692,-3330.8187L13317.9775,-3330.8482L13317.9869,-3330.897L13317.9927,-3330.9173L13317.9976,-3330.9312L13318.006,-3330.9484L13318.0178,-3330.9566L13318.0384,-3330.9661L13318.0649,-3330.9773L13318.1061,-3330.9948L13318.1208,-3331.0014L13318.1277,-3331.0044L13318.1458,-3331.0198L13318.161,-3331.0354L13318.1693,-3331.0465L13318.1732,-3331.0547"/>
<path content="1,小田急バス（株）,しまんとエクスプレス号,1.0,1.0,1.0," xlink:title="1" d="M13315.4297,-3323.7229L13315.4473,-3323.7303L13315.4949,-3323.7546L13315.5089,-3323.7636L13315.515,-3323.7659L13315.529,-3323.776L13315.5672,-3323.8019L13315.5846,-3323.8166L13315.626,-3323.8568L13315.6791,-3323.9073L13315.714,-3323.9413L13315.7207,-3323.9479L13315.7328,-3323.9586L13315.7562,-3323.9856L13315.778,-3324.011L13315.7984,-3324.0347L13315.8198,-3324.0617L13315.9304,-3324.1902L13315.9726,-3324.2392L13316.0631,-3324.3452L13316.1341,-3324.428L13316.1924,-3324.4954L13316.2024,-3324.5091L13316.2172,-3324.5289L13316.2185,-3324.5418L13316.2192,-3324.5914L13316.2181,-3324.6748L13316.2165,-3324.9174L13316.2162,-3324.9506L13316.2159,-3324.9837L13316.2154,-3325.016L13316.2159,-3325.0541L13316.2212,-3325.0817L13316.2242,-3325.0941L13316.2286,-3325.1076L13316.2413,-3325.1409L13316.2561,-3325.1713L13316.3392,-3325.2801L13316.3823,-3325.3392L13316.4187,-3325.386L13316.4495,-3325.4261L13316.4649,-3325.4486L13316.4691,-3325.4555L13316.5206,-3325.5292L13316.5233,-3325.5325L13316.5481,-3325.5681L13316.5944,-3325.634L13316.6119,-3325.6554L13316.63,-3325.6762L13316.6541,-3325.7011L13316.7238,-3325.7794L13316.74,-3325.7954L13316.7735,-3325.8183L13316.7862,-3325.8261L13316.8325,-3325.8588L13316.8607,-3325.8859L13316.8855,-3325.9169L13316.9163,-3325.9654L13316.9461,-3326.0186L13316.9566,-3326.0375L13316.9995,-3326.1169L13317.0129,-3326.1446L13317.0297,-3326.1806L13317.0471,-3326.246L13317.0579,-3326.2903L13317.0609,-3326.2992L13317.0637,-3326.3147L13317.074,-3326.3542L13317.0793,-3326.3795L13317.0954,-3326.4877L13317.0994,-3326.5097L13317.1057,-3326.53L13317.1095,-3326.5368L13317.1162,-3326.5491L13317.1337,-3326.5903L13317.1369,-3326.5987L13317.1369,-3326.5987L13317.139,-3326.6089L13317.1397,-3326.6117L13317.1397,-3326.6343L13317.1384,-3326.6421L13317.1269,-3326.6653L13317.1196,-3326.6748L13317.1075,-3326.6867L13317.1049,-3326.6894L13317.0723,-3326.724L13317.0626,-3326.7334L13317.0465,-3326.7526L13317.0304,-3326.7791L13317.0136,-3326.8135L13317.0058,-3326.8291L13316.995,-3326.8463L13316.9861,-3326.8687L13316.921,-3326.9983L13316.9082,-3327.0213L13316.8931,-3327.0467L13316.8874,-3327.0535L13316.8278,-3327.1239L13316.8166,-3327.1378L13316.809,-3327.1519L13316.8057,-3327.1634L13316.803,-3327.1787L13316.8027,-3327.188L13316.8032,-3327.1943L13316.8049,-3327.2132L13316.8072,-3327.229L13316.8137,-3327.2896L13316.8224,-3327.351L13316.8271,-3327.3708L13316.8352,-3327.3888L13316.8406,-3327.395L13316.8565,-3327.4068L13316.8613,-3327.4088L13316.8677,-3327.4116L13316.8694,-3327.4125L13316.97,-3327.4536L13317.0015,-3327.4666L13317.0116,-3327.4699L13317.0927,-3327.5026L13317.1303,-3327.5184L13317.1343,-3327.5201L13317.1585,-3327.5342L13317.1974,-3327.5618L13317.2014,-3327.5641L13317.2047,-3327.5663L13317.248,-3327.5976L13317.3221,-3327.6537L13317.4134,-3327.7269L13317.4382,-3327.75L13317.4442,-3327.7596L13317.4878,-3327.8582L13317.4964,-3327.8789L13317.5022,-3327.8958L13317.5059,-3327.9123L13317.5072,-3327.9196L13317.5173,-3328.0087L13317.52,-3328.0329L13317.522,-3328.0634L13317.5227,-3328.1174L13317.5209,-3328.1255L13317.518,-3328.1546L13317.5173,-3328.1586L13317.5146,-3328.1699L13317.5139,-3328.1822L13317.5126,-3328.2082L13317.5139,-3328.2234L13317.5247,-3328.3429L13317.5361,-3328.4229L13317.5441,-3328.4787L13317.5596,-3328.5564L13317.5582,-3328.5778L13317.5528,-3328.5897L13317.5367,-3328.6138L13317.5073,-3328.6477L13317.5066,-3328.6487L13317.459,-3328.7159L13317.4476,-3328.7294L13317.4315,-3328.7441L13317.414,-3328.7565L13317.3771,-3328.7756L13317.3416,-3328.7886L13317.296,-3328.8021L13317.2745,-3328.8072L13317.2571,-3328.8123L13317.2309,-3328.8219L13317.1867,-3328.8444L13317.1524,-3328.8669L13317.1437,-3328.8748L13317.1363,-3328.8855L13317.1303,-3328.9036L13317.1202,-3328.9577L13317.1149,-3328.9954L13317.1142,-3329.0225L13317.1182,-3329.0456L13317.1301,-3329.0735L13317.2236,-3329.2929L13317.2289,-3329.3098L13317.2323,-3329.3279L13317.2323,-3329.3764L13317.2296,-3329.3983L13317.2283,-3329.4224L13317.2189,-3329.4502L13317.2088,-3329.4857L13317.2068,-3329.4936L13317.1753,-3329.5961L13317.1659,-3329.6282L13317.1618,-3329.6525L13317.1618,-3329.6699L13317.1639,-3329.6767L13317.1639,-3329.6801L13317.1692,-3329.6857L13317.1753,-3329.693L13317.2068,-3329.7173L13317.2443,-3329.7443L13317.247,-3329.7454L13317.2484,-3329.7471L13317.2879,-3329.7714L13317.4355,-3329.848L13317.4576,-3329.8593L13317.4831,-3329.8756L13317.4884,-3329.88L13317.5146,-3329.9016L13317.5522,-3329.9343L13317.575,-3329.9545L13317.632,-3330.0041L13317.6488,-3330.021L13317.6602,-3330.0351L13317.6683,-3330.0509L13317.6783,-3330.0807L13317.681,-3330.0867L13317.6818,-3330.0936L13317.6864,-3330.1101L13317.6971,-3330.1399L13317.7152,-3330.1647L13317.7628,-3330.2199L13317.7762,-3330.2402L13317.7843,-3330.2583L13317.7869,-3330.2741L13317.7876,-3330.2994L13317.7977,-3330.3349L13317.7984,-3330.3398L13317.799,-3330.3439L13317.8024,-3330.3558L13317.8326,-3330.4769L13317.8453,-3330.5147L13317.8906,-3330.6225L13317.899,-3330.6454L13317.9332,-3330.7257L13317.9446,-3330.7525L13317.9497,-3330.7651L13317.9608,-3330.7924L13317.9692,-3330.8187L13317.9775,-3330.8482L13317.9869,-3330.897L13317.9927,-3330.9173L13317.9976,-3330.9312L13318.006,-3330.9484L13318.0178,-3330.9566L13318.0384,-3330.9661L13318.0649,-3330.9773L13318.1061,-3330.9948L13318.1208,-3331.0014L13318.1277,-3331.0044L13318.1458,-3331.0198L13318.161,-3331.0354L13318.1693,-3331.0465L13318.1732,-3331.0547"/>
<path content="1,近鉄バス（株）,京都・大阪・神戸⇔中村・宿毛,2.0,2.0,2.0," xlink:title="1" d="M13315.4297,-3323.7229L13315.4473,-3323.7303L13315.4949,-3323.7546L13315.5089,-3323.7636L13315.515,-3323.7659L13315.529,-3323.776L13315.5672,-3323.8019L13315.5846,-3323.8166L13315.6791,-3323.9073L13315.714,-3323.9413L13315.7207,-3323.9479L13315.7328,-3323.9586L13315.7562,-3323.9856L13315.778,-3324.011L13315.7984,-3324.0347L13315.8198,-3324.0617L13315.9304,-3324.1902L13315.9726,-3324.2392L13316.0631,-3324.3452L13316.1341,-3324.428L13316.1898,-3324.4923L13316.2024,-3324.5091L13316.2172,-3324.5289L13316.2185,-3324.5418L13316.2192,-3324.5914L13316.2165,-3324.9174L13316.2162,-3324.9506L13316.2159,-3324.9837L13316.2154,-3325.016L13316.2159,-3325.0541L13316.2212,-3325.0817L13316.2242,-3325.0941L13316.2286,-3325.1076L13316.2413,-3325.1409L13316.2561,-3325.1713L13316.3392,-3325.2801L13316.3823,-3325.3392L13316.4187,-3325.386L13316.4495,-3325.4261L13316.4649,-3325.4486L13316.4703,-3325.4554L13316.5206,-3325.5292L13316.5233,-3325.5325L13316.5481,-3325.5681L13316.5944,-3325.634L13316.6119,-3325.6554L13316.63,-3325.6762L13316.6541,-3325.7011L13316.7238,-3325.7794L13316.74,-3325.7954L13316.7862,-3325.8261L13316.8325,-3325.8588L13316.8607,-3325.8859L13316.8855,-3325.9169L13316.9163,-3325.9654L13316.9461,-3326.0186L13316.9566,-3326.0375L13316.9995,-3326.1169L13317.0129,-3326.1446L13317.0297,-3326.1806L13317.0471,-3326.246L13317.0579,-3326.2903L13317.0609,-3326.2992L13317.0637,-3326.3147L13317.074,-3326.3542L13317.0793,-3326.3795L13317.0954,-3326.4877L13317.0994,-3326.5097L13317.1095,-3326.5368L13317.1162,-3326.5491L13317.1337,-3326.5903L13317.1369,-3326.5987L13317.1369,-3326.5987L13317.139,-3326.6089L13317.1397,-3326.6117L13317.1397,-3326.6343L13317.1384,-3326.6421L13317.1269,-3326.6653L13317.1196,-3326.6748L13317.1075,-3326.6867L13317.1049,-3326.6894L13317.0723,-3326.724L13317.0626,-3326.7334L13317.0465,-3326.7526L13317.0304,-3326.7791L13317.0136,-3326.8135L13317.0058,-3326.8291L13316.9861,-3326.8687L13316.921,-3326.9983L13316.9082,-3327.0213L13316.8931,-3327.0467L13316.8874,-3327.0535L13316.8278,-3327.1239L13316.8166,-3327.1378L13316.809,-3327.1519L13316.8057,-3327.1634L13316.803,-3327.1787L13316.8027,-3327.188L13316.803,-3327.1974L13316.8049,-3327.2132L13316.8072,-3327.229L13316.8137,-3327.2896L13316.8224,-3327.351L13316.8271,-3327.3708L13316.8352,-3327.3888L13316.8406,-3327.395L13316.8565,-3327.4068L13316.8613,-3327.4088L13316.8677,-3327.4116L13316.8694,-3327.4125L13316.97,-3327.4536L13317.0015,-3327.4666L13317.0116,-3327.4699L13317.0927,-3327.5026L13317.1303,-3327.5184L13317.1343,-3327.5201L13317.1585,-3327.5342L13317.1974,-3327.5618L13317.2014,-3327.5641L13317.2047,-3327.5663L13317.3221,-3327.6537L13317.4134,-3327.7269L13317.4382,-3327.75L13317.4442,-3327.7596L13317.4878,-3327.8582L13317.4964,-3327.8789L13317.5022,-3327.8958L13317.5059,-3327.9123L13317.5072,-3327.9196L13317.5173,-3328.0087L13317.52,-3328.0329L13317.522,-3328.0634L13317.5227,-3328.1174L13317.522,-3328.1281L13317.518,-3328.1546L13317.5173,-3328.1586L13317.5146,-3328.1699L13317.5139,-3328.1822L13317.5126,-3328.2082L13317.5139,-3328.2234L13317.5247,-3328.3429L13317.5361,-3328.4229L13317.5441,-3328.4787L13317.5596,-3328.5564L13317.5582,-3328.5778L13317.5528,-3328.5897L13317.5394,-3328.6117L13317.5073,-3328.6477L13317.5066,-3328.6487L13317.459,-3328.7159L13317.4476,-3328.7294L13317.4315,-3328.7441L13317.414,-3328.7565L13317.3771,-3328.7756L13317.3416,-3328.7886L13317.296,-3328.8021L13317.2745,-3328.8072L13317.2571,-3328.8123L13317.2309,-3328.8219L13317.1867,-3328.8444L13317.1524,-3328.8669L13317.1437,-3328.8748L13317.1363,-3328.8855L13317.1303,-3328.9036L13317.1202,-3328.9577L13317.1149,-3328.9954L13317.1142,-3329.0225L13317.1182,-3329.0456L13317.1301,-3329.0735L13317.2236,-3329.2929L13317.2289,-3329.3098L13317.2323,-3329.3279L13317.2323,-3329.3764L13317.2296,-3329.3983L13317.2189,-3329.4502L13317.2088,-3329.4857L13317.2068,-3329.4936L13317.1753,-3329.5961L13317.1659,-3329.6282L13317.1618,-3329.6525L13317.1618,-3329.6699L13317.1639,-3329.6767L13317.1639,-3329.6801L13317.1692,-3329.6857L13317.1753,-3329.693L13317.2068,-3329.7173L13317.2443,-3329.7443L13317.247,-3329.7454L13317.2484,-3329.7471L13317.2879,-3329.7714L13317.4355,-3329.848L13317.461,-3329.861L13317.4831,-3329.8756L13317.4884,-3329.88L13317.5146,-3329.9016L13317.5522,-3329.9343L13317.575,-3329.9545L13317.632,-3330.0041L13317.6488,-3330.021L13317.6602,-3330.0351L13317.6683,-3330.0509L13317.6783,-3330.0807L13317.6818,-3330.0936L13317.6864,-3330.1101L13317.6971,-3330.1399L13317.7152,-3330.1647L13317.7628,-3330.2199L13317.7762,-3330.2402L13317.7843,-3330.2583L13317.7869,-3330.2741L13317.7876,-3330.2994L13317.7977,-3330.3349L13317.7984,-3330.3398L13317.799,-3330.3439L13317.8024,-3330.3558L13317.8326,-3330.4769L13317.8453,-3330.5147L13317.899,-3330.6454L13317.9332,-3330.7257L13317.9446,-3330.7525L13317.9497,-3330.7651L13317.9608,-3330.7924L13317.9692,-3330.8187L13317.9775,-3330.8482L13317.9869,-3330.897L13317.9927,-3330.9173L13317.9976,-3330.9312L13318.006,-3330.9484L13318.0178,-3330.9566L13318.0384,-3330.9661L13318.0649,-3330.9773L13318.1061,-3330.9948L13318.1208,-3331.0014L13318.1277,-3331.0044L13318.1458,-3331.0198L13318.161,-3331.0354L13318.1693,-3331.0465L13318.1732,-3331.0547"/>
<path content="1,高知西南交通（株）,しまんとブルーライナー　京都線,1.0,1.0,1.0," xlink:title="1" d="M13315.4297,-3323.7229L13315.4473,-3323.7303L13315.4949,-3323.7546L13315.5089,-3323.7636L13315.515,-3323.7659L13315.529,-3323.776L13315.5672,-3323.8019L13315.5846,-3323.8166L13315.6791,-3323.9073L13315.714,-3323.9413L13315.7207,-3323.9479L13315.7328,-3323.9586L13315.7562,-3323.9856L13315.778,-3324.011L13315.7984,-3324.0347L13315.8198,-3324.0617L13315.9304,-3324.1902L13315.9726,-3324.2392L13316.0631,-3324.3452L13316.1341,-3324.428L13316.1898,-3324.4923L13316.2024,-3324.5091L13316.2172,-3324.5289L13316.2185,-3324.5418L13316.2192,-3324.5914L13316.2165,-3324.9174L13316.2162,-3324.9506L13316.2159,-3324.9837L13316.2154,-3325.016L13316.2159,-3325.0541L13316.2212,-3325.0817L13316.2242,-3325.0941L13316.2286,-3325.1076L13316.2413,-3325.1409L13316.2561,-3325.1713L13316.3392,-3325.2801L13316.3823,-3325.3392L13316.4187,-3325.386L13316.4495,-3325.4261L13316.4649,-3325.4486L13316.4703,-3325.4554L13316.5206,-3325.5292L13316.5233,-3325.5325L13316.5481,-3325.5681L13316.5944,-3325.634L13316.6119,-3325.6554L13316.63,-3325.6762L13316.6541,-3325.7011L13316.7238,-3325.7794L13316.74,-3325.7954L13316.7862,-3325.8261L13316.8325,-3325.8588L13316.8607,-3325.8859L13316.8855,-3325.9169L13316.9163,-3325.9654L13316.9461,-3326.0186L13316.9566,-3326.0375L13316.9995,-3326.1169L13317.0129,-3326.1446L13317.0297,-3326.1806L13317.0471,-3326.246L13317.0579,-3326.2903L13317.0609,-3326.2992L13317.0637,-3326.3147L13317.074,-3326.3542L13317.0793,-3326.3795L13317.0954,-3326.4877L13317.0994,-3326.5097L13317.1095,-3326.5368L13317.1162,-3326.5491L13317.1337,-3326.5903L13317.1369,-3326.5987L13317.1369,-3326.5987L13317.139,-3326.6089L13317.1397,-3326.6117L13317.1397,-3326.6343L13317.1384,-3326.6421L13317.1269,-3326.6653L13317.1196,-3326.6748L13317.1075,-3326.6867L13317.1049,-3326.6894L13317.0723,-3326.724L13317.0626,-3326.7334L13317.0465,-3326.7526L13317.0304,-3326.7791L13317.0136,-3326.8135L13317.0058,-3326.8291L13316.9861,-3326.8687L13316.921,-3326.9983L13316.9082,-3327.0213L13316.8931,-3327.0467L13316.8874,-3327.0535L13316.8278,-3327.1239L13316.8166,-3327.1378L13316.809,-3327.1519L13316.8057,-3327.1634L13316.803,-3327.1787L13316.8027,-3327.188L13316.803,-3327.1974L13316.8049,-3327.2132L13316.8072,-3327.229L13316.8137,-3327.2896L13316.8224,-3327.351L13316.8271,-3327.3708L13316.8352,-3327.3888L13316.8406,-3327.395L13316.8565,-3327.4068L13316.8613,-3327.4088L13316.8677,-3327.4116L13316.8694,-3327.4125L13316.97,-3327.4536L13317.0015,-3327.4666L13317.0116,-3327.4699L13317.0927,-3327.5026L13317.1303,-3327.5184L13317.1343,-3327.5201L13317.1585,-3327.5342L13317.1974,-3327.5618L13317.2014,-3327.5641L13317.2047,-3327.5663L13317.3221,-3327.6537L13317.4134,-3327.7269L13317.4382,-3327.75L13317.4442,-3327.7596L13317.4878,-3327.8582L13317.4964,-3327.8789L13317.5022,-3327.8958L13317.5059,-3327.9123L13317.5072,-3327.9196L13317.5173,-3328.0087L13317.52,-3328.0329L13317.522,-3328.0634L13317.5227,-3328.1174L13317.522,-3328.1281L13317.518,-3328.1546L13317.5173,-3328.1586L13317.5146,-3328.1699L13317.5139,-3328.1822L13317.5126,-3328.2082L13317.5139,-3328.2234L13317.5247,-3328.3429L13317.5361,-3328.4229L13317.5441,-3328.4787L13317.5596,-3328.5564L13317.5582,-3328.5778L13317.5528,-3328.5897L13317.5394,-3328.6117L13317.5073,-3328.6477L13317.5066,-3328.6487L13317.459,-3328.7159L13317.4476,-3328.7294L13317.4315,-3328.7441L13317.414,-3328.7565L13317.3771,-3328.7756L13317.3416,-3328.7886L13317.296,-3328.8021L13317.2745,-3328.8072L13317.2571,-3328.8123L13317.2309,-3328.8219L13317.1867,-3328.8444L13317.1524,-3328.8669L13317.1437,-3328.8748L13317.1363,-3328.8855L13317.1303,-3328.9036L13317.1202,-3328.9577L13317.1149,-3328.9954L13317.1142,-3329.0225L13317.1182,-3329.0456L13317.1301,-3329.0735L13317.2236,-3329.2929L13317.2289,-3329.3098L13317.2323,-3329.3279L13317.2323,-3329.3764L13317.2296,-3329.3983L13317.2189,-3329.4502L13317.2088,-3329.4857L13317.2068,-3329.4936L13317.1753,-3329.5961L13317.1659,-3329.6282L13317.1618,-3329.6525L13317.1618,-3329.6699L13317.1639,-3329.6767L13317.1639,-3329.6801L13317.1692,-3329.6857L13317.1753,-3329.693L13317.2068,-3329.7173L13317.2443,-3329.7443L13317.247,-3329.7454L13317.2484,-3329.7471L13317.2879,-3329.7714L13317.4355,-3329.848L13317.461,-3329.861L13317.4831,-3329.8756L13317.4884,-3329.88L13317.5146,-3329.9016L13317.5522,-3329.9343L13317.575,-3329.9545L13317.632,-3330.0041L13317.6488,-3330.021L13317.6602,-3330.0351L13317.6683,-3330.0509L13317.6783,-3330.0807L13317.6818,-3330.0936L13317.6864,-3330.1101L13317.6971,-3330.1399L13317.7152,-3330.1647L13317.7628,-3330.2199L13317.7762,-3330.2402L13317.7843,-3330.2583L13317.7869,-3330.2741L13317.7876,-3330.2994L13317.7977,-3330.3349L13317.7984,-3330.3398L13317.799,-3330.3439L13317.8024,-3330.3558L13317.8326,-3330.4769L13317.8453,-3330.5147L13317.899,-3330.6454L13317.9332,-3330.7257L13317.9446,-3330.7525L13317.9497,-3330.7651L13317.9608,-3330.7924L13317.9692,-3330.8187L13317.9775,-3330.8482L13317.9869,-3330.897L13317.9927,-3330.9173L13317.9976,-3330.9312L13318.006,-3330.9484L13318.0178,-3330.9566L13318.0384,-3330.9661L13318.0649,-3330.9773L13318.1061,-3330.9948L13318.1208,-3331.0014L13318.1277,-3331.0044L13318.1458,-3331.0198L13318.161,-3331.0354L13318.1693,-3331.0465L13318.1732,-3331.0547"/>
<path content="1,高知西南交通（株）,しまんとブルーライナー　大阪線,1.0,1.0,1.0," xlink:title="1" d="M13315.4297,-3323.7229L13315.4473,-3323.7303L13315.4949,-3323.7546L13315.5089,-3323.7636L13315.515,-3323.7659L13315.529,-3323.776L13315.5672,-3323.8019L13315.5846,-3323.8166L13315.6791,-3323.9073L13315.714,-3323.9413L13315.7207,-3323.9479L13315.7328,-3323.9586L13315.7562,-3323.9856L13315.778,-3324.011L13315.7984,-3324.0347L13315.8198,-3324.0617L13315.9304,-3324.1902L13315.9726,-3324.2392L13316.0631,-3324.3452L13316.1341,-3324.428L13316.1898,-3324.4923L13316.2024,-3324.5091L13316.2172,-3324.5289L13316.2185,-3324.5418L13316.2192,-3324.5914L13316.2165,-3324.9174L13316.2162,-3324.9506L13316.2159,-3324.9837L13316.2154,-3325.016L13316.2159,-3325.0541L13316.2212,-3325.0817L13316.2242,-3325.0941L13316.2286,-3325.1076L13316.2413,-3325.1409L13316.2561,-3325.1713L13316.3392,-3325.2801L13316.3823,-3325.3392L13316.4187,-3325.386L13316.4495,-3325.4261L13316.4649,-3325.4486L13316.4703,-3325.4554L13316.5206,-3325.5292L13316.5233,-3325.5325L13316.5481,-3325.5681L13316.5944,-3325.634L13316.6119,-3325.6554L13316.63,-3325.6762L13316.6541,-3325.7011L13316.7238,-3325.7794L13316.74,-3325.7954L13316.7862,-3325.8261L13316.8325,-3325.8588L13316.8607,-3325.8859L13316.8855,-3325.9169L13316.9163,-3325.9654L13316.9461,-3326.0186L13316.9566,-3326.0375L13316.9995,-3326.1169L13317.0129,-3326.1446L13317.0297,-3326.1806L13317.0471,-3326.246L13317.0579,-3326.2903L13317.0609,-3326.2992L13317.0637,-3326.3147L13317.074,-3326.3542L13317.0793,-3326.3795L13317.0954,-3326.4877L13317.0994,-3326.5097L13317.1095,-3326.5368L13317.1162,-3326.5491L13317.1337,-3326.5903L13317.1369,-3326.5987L13317.1369,-3326.5987L13317.139,-3326.6089L13317.1397,-3326.6117L13317.1397,-3326.6343L13317.1384,-3326.6421L13317.1269,-3326.6653L13317.1196,-3326.6748L13317.1075,-3326.6867L13317.1049,-3326.6894L13317.0723,-3326.724L13317.0626,-3326.7334L13317.0465,-3326.7526L13317.0304,-3326.7791L13317.0136,-3326.8135L13317.0058,-3326.8291L13316.9861,-3326.8687L13316.921,-3326.9983L13316.9082,-3327.0213L13316.8931,-3327.0467L13316.8874,-3327.0535L13316.8278,-3327.1239L13316.8166,-3327.1378L13316.809,-3327.1519L13316.8057,-3327.1634L13316.803,-3327.1787L13316.8027,-3327.188L13316.803,-3327.1974L13316.8049,-3327.2132L13316.8072,-3327.229L13316.8137,-3327.2896L13316.8224,-3327.351L13316.8271,-3327.3708L13316.8352,-3327.3888L13316.8406,-3327.395L13316.8565,-3327.4068L13316.8613,-3327.4088L13316.8677,-3327.4116L13316.8694,-3327.4125L13316.97,-3327.4536L13317.0015,-3327.4666L13317.0116,-3327.4699L13317.0927,-3327.5026L13317.1303,-3327.5184L13317.1343,-3327.5201L13317.1585,-3327.5342L13317.1974,-3327.5618L13317.2014,-3327.5641L13317.2047,-3327.5663L13317.3221,-3327.6537L13317.4134,-3327.7269L13317.4382,-3327.75L13317.4442,-3327.7596L13317.4878,-3327.8582L13317.4964,-3327.8789L13317.5022,-3327.8958L13317.5059,-3327.9123L13317.5072,-3327.9196L13317.5173,-3328.0087L13317.52,-3328.0329L13317.522,-3328.0634L13317.5227,-3328.1174L13317.522,-3328.1281L13317.518,-3328.1546L13317.5173,-3328.1586L13317.5146,-3328.1699L13317.5139,-3328.1822L13317.5126,-3328.2082L13317.5139,-3328.2234L13317.5247,-3328.3429L13317.5361,-3328.4229L13317.5441,-3328.4787L13317.5596,-3328.5564L13317.5582,-3328.5778L13317.5528,-3328.5897L13317.5394,-3328.6117L13317.5073,-3328.6477L13317.5066,-3328.6487L13317.459,-3328.7159L13317.4476,-3328.7294L13317.4315,-3328.7441L13317.414,-3328.7565L13317.3771,-3328.7756L13317.3416,-3328.7886L13317.296,-3328.8021L13317.2745,-3328.8072L13317.2571,-3328.8123L13317.2309,-3328.8219L13317.1867,-3328.8444L13317.1524,-3328.8669L13317.1437,-3328.8748L13317.1363,-3328.8855L13317.1303,-3328.9036L13317.1202,-3328.9577L13317.1149,-3328.9954L13317.1142,-3329.0225L13317.1182,-3329.0456L13317.1301,-3329.0735L13317.2236,-3329.2929L13317.2289,-3329.3098L13317.2323,-3329.3279L13317.2323,-3329.3764L13317.2296,-3329.3983L13317.2189,-3329.4502L13317.2088,-3329.4857L13317.2068,-3329.4936L13317.1753,-3329.5961L13317.1659,-3329.6282L13317.1618,-3329.6525L13317.1618,-3329.6699L13317.1639,-3329.6767L13317.1639,-3329.6801L13317.1692,-3329.6857L13317.1753,-3329.693L13317.2068,-3329.7173L13317.2443,-3329.7443L13317.247,-3329.7454L13317.2484,-3329.7471L13317.2879,-3329.7714L13317.4355,-3329.848L13317.461,-3329.861L13317.4831,-3329.8756L13317.4884,-3329.88L13317.5146,-3329.9016L13317.5522,-3329.9343L13317.575,-3329.9545L13317.632,-3330.0041L13317.6488,-3330.021L13317.6602,-3330.0351L13317.6683,-3330.0509L13317.6783,-3330.0807L13317.6818,-3330.0936L13317.6864,-3330.1101L13317.6971,-3330.1399L13317.7152,-3330.1647L13317.7628,-3330.2199L13317.7762,-3330.2402L13317.7843,-3330.2583L13317.7869,-3330.2741L13317.7876,-3330.2994L13317.7977,-3330.3349L13317.7984,-3330.3398L13317.799,-3330.3439L13317.8024,-3330.3558L13317.8326,-3330.4769L13317.8453,-3330.5147L13317.899,-3330.6454L13317.9332,-3330.7257L13317.9446,-3330.7525L13317.9497,-3330.7651L13317.9608,-3330.7924L13317.9692,-3330.8187L13317.9775,-3330.8482L13317.9869,-3330.897L13317.9927,-3330.9173L13317.9976,-3330.9312L13318.006,-3330.9484L13318.0178,-3330.9566L13318.0384,-3330.9661L13318.0649,-3330.9773L13318.1061,-3330.9948L13318.1208,-3331.0014L13318.1277,-3331.0044L13318.1458,-3331.0198L13318.161,-3331.0354L13318.1693,-3331.0465L13318.1732,-3331.0547"/>
<path content="1,高知高陵交通（株）,矢井賀～久礼～須崎線,10.0,10.0,10.0," xlink:title="1" d="M13323.9914,-3331.0547L13324.0044,-3331.0228L13324.0283,-3330.965L13324.0373,-3330.9427L13324.0407,-3330.9348L13324.0487,-3330.9089L13324.0502,-3330.9047L13324.0547,-3330.892L13324.0695,-3330.8394L13324.0823,-3330.794L13324.0846,-3330.7801L13324.0943,-3330.7494L13324.0977,-3330.7387L13324.099,-3330.7348L13324.1057,-3330.7094L13324.1198,-3330.6683L13324.1238,-3330.6458L13324.1238,-3330.6306L13324.1245,-3330.6103L13324.1158,-3330.5691L13324.1037,-3330.5353L13324.0957,-3330.5172L13324.0896,-3330.5024L13324.0816,-3330.4902L13324.0702,-3330.4716L13324.0541,-3330.4519L13324.0072,-3330.4023L13323.9817,-3330.3702L13323.9696,-3330.3448L13323.9602,-3330.3144L13323.9464,-3330.2545L13323.9383,-3330.2085L13323.9272,-3330.1454L13323.9227,-3330.1197L13323.9186,-3330.0968L13323.9086,-3330.0585L13323.9032,-3330.0444L13323.8784,-3329.9948L13323.8583,-3329.9633L13323.8415,-3329.9334L13323.8321,-3329.9143L13323.8167,-3329.8698L13323.8153,-3329.8664L13323.8039,-3329.8235L13323.7966,-3329.7846L13323.7919,-3329.757L13323.7872,-3329.7148L13323.7865,-3329.6606L13323.7861,-3329.6582L13323.7885,-3329.6421L13323.7892,-3329.6398L13323.7925,-3329.6206L13323.8019,-3329.5908L13323.8152,-3329.5622L13323.8207,-3329.5502L13323.8489,-3329.495L13323.8824,-3329.4307L13323.8918,-3329.4155L13323.8951,-3329.4076L13323.9166,-3329.3656L13323.9428,-3329.3186L13323.9472,-3329.3098L13323.9569,-3329.2904L13323.9602,-3329.2791L13323.9622,-3329.2639L13323.9629,-3329.1805L13323.9629,-3329.1484L13323.9653,-3329.094L13323.9665,-3329.0666L13323.9689,-3328.9788L13323.9726,-3328.8924L13323.975,-3328.8326L13323.9787,-3328.7979L13323.9792,-3328.729L13323.9825,-3328.6556L13323.9872,-3328.5684L13323.991,-3328.4865L13323.991,-3328.4096L13323.9834,-3328.3601L13323.975,-3328.3231L13323.9576,-3328.2626L13323.9397,-3328.2177L13323.9338,-3328.2054L13323.9542,-3328.2056L13323.9555,-3328.2056L13323.9649,-3328.2039L13323.971,-3328.2011L13324.0025,-3328.174L13324.0132,-3328.1684L13324.0233,-3328.165L13324.0374,-3328.1661L13324.0609,-3328.1718L13324.0561,-3328.1594L13324.0469,-3328.091L13324.0455,-3328.0824L13324.0411,-3328.0494L13324.0334,-3328.0001L13324.0328,-3327.9958L13324.03,-3327.9706L13324.0273,-3327.9554L13324.0206,-3327.8973L13324.0193,-3327.8866L13324.0179,-3327.8432L13324.0179,-3327.8009L13323.9978,-3327.8026L13323.9804,-3327.8049L13323.9472,-3327.8082L13323.9435,-3327.81L13323.8851,-3327.8105L13323.8341,-3327.8122L13323.7845,-3327.8128L13323.7751,-3327.8151L13323.7671,-3327.8167L13323.6953,-3327.819L13323.6423,-3327.8218L13323.6195,-3327.8241L13323.5846,-3327.8269L13323.5249,-3327.8353L13323.5108,-3327.8393L13323.4894,-3327.8489L13323.4237,-3327.8832L13323.4096,-3327.8883L13323.4006,-3327.8872L13323.4002,-3327.8883L13323.374,-3327.8888L13323.3599,-3327.8855L13323.3459,-3327.8793L13323.3371,-3327.8742L13323.3251,-3327.8629L13323.3103,-3327.8376L13323.2976,-3327.8082L13323.2821,-3327.779L13323.2797,-3327.7724L13323.2767,-3327.7643L13323.2761,-3327.7531L13323.2814,-3327.7412L13323.2823,-3327.74L13323.2918,-3327.7271L13323.3029,-3327.7102L13323.311,-3327.6939L13323.3177,-3327.6679L13323.3177,-3327.6448L13323.311,-3327.6313L13323.3009,-3327.624L13323.2875,-3327.6178L13323.256,-3327.6071L13323.1755,-3327.584L13323.1667,-3327.5811L13323.152,-3327.5704L13323.1485,-3327.5571L13323.144,-3327.5575L13323.1399,-3327.5439L13323.1393,-3327.5006L13323.1333,-3327.4808L13323.1252,-3327.4668L13323.0943,-3327.4335L13323.0883,-3327.425L13323.0836,-3327.4121L13323.0756,-3327.3653L13323.0742,-3327.3552L13323.0762,-3327.3507L13323.0803,-3327.3337L13323.0724,-3327.3272L13323.0836,-3327.3197L13323.0836,-3327.3084L13323.0796,-3327.2982L13323.0756,-3327.2954L13323.0668,-3327.2881L13323.0501,-3327.2819L13323.0071,-3327.2684L13322.9723,-3327.2543L13322.9595,-3327.2509L13322.9293,-3327.2487L13322.9206,-3327.2464L13322.8991,-3327.2329L13322.8945,-3327.227L13322.8924,-3327.2244L13322.8837,-3327.1979L13322.867,-3327.1686L13322.8536,-3327.1574L13322.8287,-3327.1455L13322.812,-3327.1343L13322.7999,-3327.1235L13322.7945,-3327.1111L13322.7933,-3327.1036L13322.7945,-3327.0993L13322.8006,-3327.0914L13322.8106,-3327.0835L13322.8468,-3327.0576L13322.8589,-3327.0474L13322.8629,-3327.039L13322.8649,-3327.0334L13322.8656,-3327.012L13322.8636,-3327.0041L13322.8395,-3326.9584L13322.8374,-3326.9511L13322.8374,-3326.9348L13322.8421,-3326.9235L13322.8576,-3326.8942L13322.8596,-3326.8857L13322.8623,-3326.8581L13322.8663,-3326.8474L13322.8703,-3326.8412L13322.8791,-3326.8344L13322.8846,-3326.832L13322.8878,-3326.8299L13322.9166,-3326.8232L13322.9341,-3326.817L13322.9428,-3326.8102L13322.9508,-3326.7989L13322.9569,-3326.7702L13322.9595,-3326.764L13322.9716,-3326.7544L13322.9857,-3326.7494L13323.0031,-3326.7494L13323.0172,-3326.7533L13323.0353,-3326.7634L13323.0447,-3326.7719L13323.0514,-3326.7764L13323.0568,-3326.7736L13323.0635,-3326.7674L13323.0642,-3326.7668L13323.0709,-3326.755L13323.0769,-3326.7443L13323.0836,-3326.715L13323.0843,-3326.6998L13323.0877,-3326.6879L13323.0944,-3326.6801L13323.1266,-3326.6558L13323.1359,-3326.6468L13323.1393,-3326.6389L13323.1393,-3326.6242L13323.1366,-3326.6135L13323.1333,-3326.5916L13323.1272,-3326.573L13323.1286,-3326.5617L13323.1333,-3326.5538L13323.144,-3326.538L13323.1453,-3326.5324L13323.146,-3326.5081L13323.1534,-3326.4969L13323.1648,-3326.4879L13323.1681,-3326.4817L13323.1762,-3326.4546L13323.203,-3326.3898L13323.2077,-3326.3825L13323.2171,-3326.3729L13323.2252,-3326.3678L13323.2607,-3326.3532L13323.2694,-3326.3492L13323.2835,-3326.3408L13323.3016,-3326.3272L13323.3426,-3326.2923L13323.3446,-3326.2878L13323.3459,-3326.2669L13323.3446,-3326.2574L13323.3291,-3326.2258L13323.3264,-3326.2174L13323.3258,-3326.2033L13323.3271,-3326.2027L13323.3311,-3326.1965L13323.3727,-3326.1622L13323.4707,-3326.1007L13323.5002,-3326.0872L13323.5216,-3326.0816L13323.5397,-3326.0737L13323.5552,-3326.0635L13323.5626,-3326.0556L13323.5671,-3326.0014L13323.5721,-3325.9421L13323.5726,-3325.9379L13323.574,-3325.9339L13323.5751,-3325.9315L13323.5785,-3325.924L13323.5807,-3325.9227L13323.6055,-3325.9007L13323.6109,-3325.8922L13323.6142,-3325.8826L13323.6149,-3325.8404L13323.6176,-3325.8268L13323.6209,-3325.8231L13323.6243,-3325.8206L13323.628,-3325.8202L13323.6592,-3325.8201L13323.6618,-3325.8195L13323.6631,-3325.8182L13323.6665,-3325.8077L13323.6679,-3325.7846L13323.6692,-3325.7801L13323.6739,-3325.7761L13323.692,-3325.7722L13323.6961,-3325.7699L13323.7061,-3325.7575L13323.7088,-3325.7524L13323.7091,-3325.7464L13323.7088,-3325.7406L13323.7034,-3325.7305L13323.6867,-3325.7091L13323.6826,-3325.7L13323.6822,-3325.6972L13323.6833,-3325.6843L13323.6839,-3325.6805L13323.6863,-3325.6772L13323.6893,-3325.6744L13323.6943,-3325.6723L13323.7001,-3325.6707L13323.7182,-3325.6702L13323.7305,-3325.6678L13323.7341,-3325.6657L13323.7357,-3325.6631L13323.7362,-3325.6605L13323.7361,-3325.6571L13323.7209,-3325.6251L13323.7194,-3325.6216L13323.7203,-3325.6194L13323.7209,-3325.6177L13323.7245,-3325.6159L13323.7317,-3325.6159L13323.7631,-3325.6195L13323.7752,-3325.6229L13323.7838,-3325.6248L13323.7859,-3325.6245L13323.7892,-3325.6232L13323.7906,-3325.6211L13323.7906,-3325.6189L13323.7893,-3325.5828L13323.7926,-3325.5614L13323.798,-3325.5496L13323.8003,-3325.5453L13323.8043,-3325.5403L13323.8074,-3325.5372L13323.8107,-3325.5353L13323.8215,-3325.5327L13323.8291,-3325.5323L13323.8342,-3325.5327L13323.8443,-3325.5366L13323.8577,-3325.5445L13323.8619,-3325.5449L13323.8652,-3325.5444L13323.8677,-3325.5439L13323.9321,-3325.5304L13323.9523,-3325.5265L13323.9579,-3325.5244L13323.9596,-3325.5231L13323.9626,-3325.5203L13323.965,-3325.5158L13323.9939,-3325.4566L13324.0099,-3325.4273L13324.0133,-3325.4234L13324.0173,-3325.4189L13324.0352,-3325.4001L13324.0442,-3325.3935L13324.0576,-3325.3817L13324.0609,-3325.38L13324.112,-3325.3394L13324.1181,-3325.333L13324.1558,-3325.3013L13324.1594,-3325.2999L13324.2187,-3325.2681"/>
<path content="1,（有）高南観光自動車,窪川～仁～土佐興津線,2.5,2.5,2.5," xlink:title="1" d="M13315.4297,-3323.7229L13315.4473,-3323.7303L13315.4949,-3323.7546L13315.5089,-3323.7636L13315.515,-3323.7659L13315.529,-3323.776L13315.5672,-3323.8019L13315.5846,-3323.8166L13315.626,-3323.8568L13315.6791,-3323.9073L13315.714,-3323.9413L13315.7207,-3323.9479L13315.7328,-3323.9586L13315.7562,-3323.9856L13315.778,-3324.011L13315.7984,-3324.0347L13315.8198,-3324.0617L13315.9304,-3324.1902L13315.9726,-3324.2392L13316.0631,-3324.3452"/>
<path content="1,（有）高南観光自動車,窪川～仁～土佐興津線,2.5,2.5,2.5," xlink:title="1" d="M13316.0631,-3324.3452L13316.1019,-3324.3164L13316.1223,-3324.3016L13316.2045,-3324.2437L13316.2212,-3324.2319L13316.23,-3324.2258L13316.265,-3324.2021L13316.2686,-3324.1952L13316.271,-3324.1918L13316.2717,-3324.1871L13316.2718,-3324.1765L13316.2708,-3324.1728L13316.2695,-3324.1694L13316.2674,-3324.1632L13316.2601,-3324.1479L13316.2152,-3324.0367L13316.1763,-3323.9462L13316.175,-3323.9451L13316.1676,-3323.9276L13316.1602,-3323.9158L13316.1408,-3323.8927L13316.1334,-3323.8825L13316.1174,-3323.8487L13316.114,-3323.8397L13316.0591,-3323.6988L13316.0577,-3323.6977L13316.045,-3323.6599L13316.045,-3323.6318L13316.0477,-3323.6148L13316.0624,-3323.5602L13316.0664,-3323.5517L13316.0777,-3323.5311L13316.0865,-3323.5201L13316.0946,-3323.51L13316.1221,-3323.4801L13316.1408,-3323.4649L13316.1596,-3323.4536L13316.2494,-3323.4108L13316.2725,-3323.3986L13316.2809,-3323.3945L13316.3673,-3323.3545L13316.3713,-3323.3517L13316.3934,-3323.3421L13316.4089,-3323.3398L13316.431,-3323.3381L13316.4491,-3323.3376L13316.4852,-3323.3336L13316.502,-3323.3297L13316.5181,-3323.3229L13316.5583,-3323.3015L13316.6018,-3323.275L13316.6126,-3323.2671L13316.6233,-3323.257L13316.6494,-3323.2294L13316.6916,-3323.1894L13316.7055,-3323.1742L13316.7479,-3323.146L13316.7654,-3323.1341L13316.8344,-3323.0879L13316.888,-3323.0553L13316.9322,-3323.0276L13316.9429,-3323.0209L13316.9697,-3322.9961L13316.9831,-3322.9786L13316.9838,-3322.9781L13317.0066,-3322.9454L13317.1125,-3322.8113L13317.1145,-3322.809L13317.1265,-3322.7934L13317.1527,-3322.7594L13317.1862,-3322.7171L13317.2029,-3322.6957L13317.2146,-3322.6824L13317.2338,-3322.6636L13317.2499,-3322.6501L13317.2807,-3322.6292L13317.288,-3322.6247L13317.3101,-3322.6152L13317.3524,-3322.6022L13317.3738,-3322.5971L13317.3966,-3322.5943L13317.4084,-3322.5942L13317.4522,-3322.5938L13317.4831,-3322.596L13317.5461,-3322.6061L13317.5628,-3322.6078L13317.6439,-3322.6236L13317.6633,-3322.6236L13317.6935,-3322.6174L13317.7746,-3322.6044L13317.8295,-3322.5949L13317.8443,-3322.5856L13317.8482,-3322.5832L13317.8798,-3322.5588L13318.0044,-3322.4653L13318.0285,-3322.4461L13318.0305,-3322.4455L13318.0439,-3322.4348L13318.0446,-3322.4343L13318.0647,-3322.4224L13318.0808,-3322.4162L13318.1062,-3322.4117L13318.1652,-3322.41L13318.192,-3322.4072L13318.2115,-3322.4027L13318.2368,-3322.3918L13318.2713,-3322.3752L13318.2838,-3322.3689L13318.2899,-3322.3638L13318.3066,-3322.3413L13318.3596,-3322.2692L13318.362,-3322.2656"/>
<path content="1,（有）高南観光自動車,窪川～仁～土佐興津線,2.5,2.5,2.5," xlink:title="1" d="M13316.0631,-3324.3452L13316.1341,-3324.428L13316.1898,-3324.4923L13316.1924,-3324.4954"/>
<path content="1,（有）高南観光自動車,窪川～仁～奈～飯の川線,3.0,3.0,3.0," xlink:title="1" d="M13315.4297,-3323.7229L13315.4473,-3323.7303L13315.4949,-3323.7546L13315.5089,-3323.7636L13315.515,-3323.7659L13315.529,-3323.776L13315.5672,-3323.8019L13315.5846,-3323.8166L13315.626,-3323.8568L13315.6791,-3323.9073L13315.714,-3323.9413L13315.7207,-3323.9479L13315.7328,-3323.9586L13315.7562,-3323.9856L13315.778,-3324.011L13315.7984,-3324.0347L13315.8198,-3324.0617L13315.9304,-3324.1902L13315.9726,-3324.2392L13316.0631,-3324.3452"/>
<path content="1,（有）高南観光自動車,窪川～仁～奈～飯の川線,3.0,3.0,3.0," xlink:title="1" d="M13319.2622,-3324.1418L13319.293,-3324.117L13319.3044,-3324.1057L13319.3138,-3324.0905L13319.3252,-3324.0629L13319.3352,-3324.0409L13319.3559,-3324.0082L13319.3674,-3323.9942L13319.3915,-3323.9711L13319.4096,-3323.9592L13319.433,-3323.9468L13319.4358,-3323.9448L13319.4893,-3323.9271L13319.5302,-3323.9119L13319.5369,-3323.9063L13319.5409,-3323.8972L13319.5429,-3323.8567L13319.5463,-3323.8403L13319.5543,-3323.8223L13319.5664,-3323.8059L13319.6093,-3323.7693L13319.6388,-3323.7383L13319.6502,-3323.7299L13319.6656,-3323.7225L13319.7038,-3323.7118L13319.7205,-3323.7062L13319.7292,-3323.7006L13319.7339,-3323.6961L13319.7413,-3323.6836L13319.7439,-3323.6735L13319.7507,-3323.6301L13319.7547,-3323.5918L13319.7513,-3323.5777L13319.7185,-3323.4904L13319.7051,-3323.4487L13319.7064,-3323.4374L13319.7058,-3323.4357L13319.7071,-3323.4351L13319.7111,-3323.4267L13319.7192,-3323.4148L13319.7319,-3323.4036L13319.7608,-3323.3861L13319.7728,-3323.3754L13319.7982,-3323.3365L13319.813,-3323.3157L13319.8224,-3323.3067L13319.8364,-3323.2971L13319.8445,-3323.2942L13319.8539,-3323.2904L13319.8633,-3323.2897L13319.8834,-3323.2876L13319.9202,-3323.2836L13319.941,-3323.2796L13319.9624,-3323.2734L13320.0549,-3323.239L13320.1012,-3323.2199L13320.1251,-3323.2072L13320.1407,-3323.199L13320.1554,-3323.1883L13320.1661,-3323.1765L13320.1856,-3323.1489L13320.2261,-3323.0879L13320.2324,-3323.0905L13320.2372,-3323.0948L13320.2415,-3323.1029L13320.2523,-3323.1208L13320.2807,-3323.1765L13320.2901,-3323.1878L13320.3236,-3323.2216L13320.4529,-3323.3574L13320.461,-3323.3636L13320.4731,-3323.3709L13320.5061,-3323.3838L13320.532,-3323.394L13320.5508,-3323.4021"/>
<path content="1,（有）高南観光自動車,窪川～仁～奈～飯の川線,3.0,3.0,3.0," xlink:title="1" d="M13319.2622,-3324.1418L13319.2642,-3324.1536L13319.2642,-3324.178L13319.2642,-3324.1925L13319.2561,-3324.2697L13319.2541,-3324.3503L13319.2494,-3324.3644L13319.196,-3324.4717L13319.1946,-3324.4771L13319.163,-3324.5381L13319.1462,-3324.5718L13319.1375,-3324.5836L13319.1261,-3324.5943L13319.0772,-3324.6309L13319.073,-3324.6353L13319.0658,-3324.6428L13319.0511,-3324.6648L13318.9981,-3324.7499L13318.9554,-3324.8007L13318.9432,-3324.8153L13318.9043,-3324.8586L13318.8849,-3324.8783L13318.8813,-3324.8814L13318.8618,-3324.898L13318.842,-3324.915L13318.7301,-3324.977L13318.7171,-3324.9832"/>
<path content="1,（有）高南観光自動車,窪川～仁～奈～飯の川線,3.0,3.0,3.0," xlink:title="1" d="M13316.0631,-3324.3452L13316.1019,-3324.3164L13316.1223,-3324.3016L13316.2045,-3324.2437L13316.2212,-3324.2319L13316.23,-3324.2258L13316.265,-3324.2021L13316.2686,-3324.1952L13316.271,-3324.1918L13316.2717,-3324.1871L13316.2718,-3324.1765L13316.2708,-3324.1728L13316.2695,-3324.1694L13316.2674,-3324.1632L13316.2601,-3324.1479L13316.2152,-3324.0367L13316.175,-3323.9451L13316.1676,-3323.9276L13316.1602,-3323.9158L13316.1408,-3323.8927L13316.1334,-3323.8825L13316.1174,-3323.8487L13316.114,-3323.8397L13316.0591,-3323.6988L13316.0577,-3323.6977L13316.045,-3323.6599L13316.045,-3323.6318L13316.0477,-3323.6148L13316.0624,-3323.5602L13316.0664,-3323.5517L13316.0777,-3323.5311L13316.0865,-3323.5201L13316.0946,-3323.51L13316.1221,-3323.4801L13316.1408,-3323.4649L13316.1596,-3323.4536L13316.2494,-3323.4108L13316.2725,-3323.3986L13316.2809,-3323.3945L13316.3673,-3323.3545L13316.3713,-3323.3517L13316.3934,-3323.3421L13316.4089,-3323.3398L13316.431,-3323.3381L13316.4491,-3323.3376L13316.4852,-3323.3336L13316.502,-3323.3297L13316.5181,-3323.3229L13316.5583,-3323.3015L13316.6018,-3323.275L13316.6126,-3323.2671L13316.6233,-3323.257L13316.6494,-3323.2294L13316.6916,-3323.1894L13316.7055,-3323.1742L13316.7483,-3323.1458L13316.7654,-3323.1341L13316.8344,-3323.0879L13316.888,-3323.0553L13316.9322,-3323.0276L13316.9429,-3323.0209L13316.9697,-3322.9961L13316.9831,-3322.9786L13316.9838,-3322.9781L13317.0066,-3322.9454L13317.1125,-3322.8113L13317.1145,-3322.809L13317.1265,-3322.7934L13317.1527,-3322.7594L13317.1862,-3322.7171L13317.2029,-3322.6957L13317.2146,-3322.6824L13317.2338,-3322.6636L13317.2499,-3322.6501L13317.2807,-3322.6292L13317.288,-3322.6247L13317.3101,-3322.6152L13317.3524,-3322.6022L13317.3738,-3322.5971L13317.3966,-3322.5943L13317.4084,-3322.5942L13317.4522,-3322.5938L13317.4831,-3322.596L13317.5461,-3322.6061L13317.5628,-3322.6078L13317.6439,-3322.6236L13317.6583,-3322.6236L13317.7746,-3322.6044L13317.8295,-3322.5949L13317.8443,-3322.5856L13317.9086,-3322.6557L13317.9146,-3322.6608L13317.9416,-3322.6882L13318.0513,-3322.7994L13318.1029,-3322.853L13318.1605,-3322.9104L13318.2966,-3323.0468L13318.3394,-3323.0886L13318.3729,-3323.1156L13318.3984,-3323.1302L13318.4942,-3323.1815L13318.5478,-3323.2136L13318.5746,-3323.2317L13318.5907,-3323.2429L13318.6322,-3323.2756L13318.6571,-3323.2993L13318.6704,-3323.3162L13318.6805,-3323.3331L13318.6852,-3323.3455L13318.6884,-3323.363L13318.7019,-3323.4036L13318.716,-3323.4396L13318.7355,-3323.4751L13318.7723,-3323.5219L13318.7844,-3323.5343L13318.8062,-3323.5572L13318.832,-3323.5809L13318.8347,-3323.5805L13318.8728,-3323.6143L13318.9191,-3323.6515L13318.9351,-3323.6656L13318.9633,-3323.6994L13318.9888,-3323.7327L13319.0048,-3323.7575L13319.0504,-3323.8516L13319.0624,-3323.873L13319.0725,-3323.8848L13319.0839,-3323.8944L13319.0946,-3323.9006L13319.1307,-3323.9151L13319.1799,-3323.9281L13319.1988,-3323.9346L13319.2059,-3323.9384L13319.2213,-3323.9513L13319.2253,-3323.9553L13319.2296,-3323.9628L13319.2313,-3323.966L13319.236,-3323.9789L13319.2434,-3324.0184L13319.2549,-3324.0901L13319.2622,-3324.1418"/>
<path content="1,（有）高南観光自動車,窪川～仁～奈～飯の川線,3.0,3.0,3.0," xlink:title="1" d="M13316.0631,-3324.3452L13316.1341,-3324.428L13316.1898,-3324.4923L13316.1924,-3324.4954"/>
<path content="1,（有）高南観光自動車,窪川～大井野～影野線,1.0,1.0,1.0," xlink:title="1" d="M13317.248,-3327.5976L13317.2014,-3327.5641L13317.1974,-3327.5618L13317.1585,-3327.5342L13317.1343,-3327.5201L13317.1303,-3327.5184L13317.0927,-3327.5026L13317.0116,-3327.4699L13317.0015,-3327.4666L13316.97,-3327.4536L13316.8694,-3327.4125L13316.8677,-3327.4116L13316.8613,-3327.4088L13316.8565,-3327.4068L13316.8406,-3327.395L13316.8352,-3327.3888L13316.8271,-3327.3708L13316.8224,-3327.351L13316.8137,-3327.2896L13316.8072,-3327.229L13316.8049,-3327.2132L13316.803,-3327.1974L13316.8032,-3327.1943L13316.7822,-3327.2011L13316.7185,-3327.2074L13316.6051,-3327.2169L13316.5823,-3327.2209L13316.5709,-3327.2287L13316.5367,-3327.2581L13316.5139,-3327.2755L13316.473,-3327.2971L13316.4502,-3327.311L13316.4241,-3327.3274L13316.4053,-3327.3385L13316.3899,-3327.3477L13316.3744,-3327.3567L13316.3281,-3327.3911L13316.2852,-3327.4215L13316.2389,-3327.4581L13316.1967,-3327.488L13316.1605,-3327.5122L13316.133,-3327.5291L13316.078,-3327.5562L13316.0699,-3327.559L13316.0371,-3327.5708L13316.0163,-3327.5778L13316.0008,-3327.5826L13315.9391,-3327.5968L13315.9069,-3327.599L13315.8439,-3327.6209L13315.7882,-3327.6435L13315.6997,-3327.6796L13315.6501,-3327.6948L13315.581,-3327.7111L13315.5676,-3327.7128L13315.5374,-3327.719L13315.5082,-3327.7207L13315.4851,-3327.719L13315.4703,-3327.7167L13315.4297,-3327.7168"/>
<path content="1,（有）高南観光自動車,窪川～床鍋線,3.0,0.0,0.0," xlink:title="1" d="M13317.8906,-3330.6225L13317.8453,-3330.5147L13317.8326,-3330.4769L13317.8024,-3330.3558L13317.799,-3330.3439L13317.7984,-3330.3398L13317.7977,-3330.3349L13317.7876,-3330.2994L13317.7869,-3330.2741L13317.7843,-3330.2583L13317.7762,-3330.2402L13317.7628,-3330.2199L13317.7152,-3330.1647L13317.6971,-3330.1399L13317.6864,-3330.1101L13317.6818,-3330.0936L13317.681,-3330.0867L13317.6783,-3330.0807L13317.6683,-3330.0509L13317.6602,-3330.0351L13317.6488,-3330.021L13317.632,-3330.0041L13317.575,-3329.9545L13317.5522,-3329.9343L13317.5146,-3329.9016L13317.4884,-3329.88L13317.4831,-3329.8756L13317.461,-3329.861L13317.4576,-3329.8593L13317.4355,-3329.848L13317.2879,-3329.7714L13317.2484,-3329.7471L13317.247,-3329.7454L13317.2443,-3329.7443L13317.2068,-3329.7173L13317.1753,-3329.693L13317.1692,-3329.6857L13317.1639,-3329.6801L13317.1639,-3329.6767L13317.1618,-3329.6699L13317.1618,-3329.6525L13317.1659,-3329.6282L13317.1753,-3329.5961L13317.2068,-3329.4936L13317.2088,-3329.4857L13317.2189,-3329.4502L13317.2283,-3329.4224L13317.2296,-3329.3983L13317.2323,-3329.3764L13317.2323,-3329.3279L13317.2289,-3329.3098L13317.2236,-3329.2929L13317.1301,-3329.0735L13317.1182,-3329.0456L13317.1142,-3329.0225L13317.1149,-3328.9954L13317.1202,-3328.9577L13317.1303,-3328.9036L13317.1363,-3328.8855L13317.1437,-3328.8748L13317.1524,-3328.8669L13317.1867,-3328.8444L13317.2309,-3328.8219L13317.2571,-3328.8123L13317.2745,-3328.8072L13317.296,-3328.8021L13317.3416,-3328.7886L13317.3771,-3328.7756L13317.414,-3328.7565L13317.4315,-3328.7441L13317.4476,-3328.7294L13317.459,-3328.7159L13317.5066,-3328.6487L13317.5367,-3328.6138L13317.5528,-3328.5897L13317.5582,-3328.5778L13317.5596,-3328.5564L13317.5441,-3328.4787L13317.5361,-3328.4229L13317.5247,-3328.3429L13317.5139,-3328.2234L13317.5126,-3328.2082L13317.5139,-3328.1822L13317.5146,-3328.1699L13317.5173,-3328.1586L13317.518,-3328.1546L13317.5209,-3328.1255L13317.5227,-3328.1174L13317.522,-3328.0634L13317.52,-3328.0329L13317.5173,-3328.0087L13317.5072,-3327.9196L13317.5059,-3327.9123L13317.5022,-3327.8958L13317.4964,-3327.8789L13317.4878,-3327.8582L13317.4442,-3327.7596L13317.4382,-3327.75L13317.4134,-3327.7269L13317.3221,-3327.6537L13317.248,-3327.5976L13317.2014,-3327.5641L13317.1974,-3327.5618L13317.1585,-3327.5342L13317.1343,-3327.5201L13317.1303,-3327.5184L13317.0927,-3327.5026L13317.0116,-3327.4699L13317.0015,-3327.4666L13316.97,-3327.4536L13316.8694,-3327.4125L13316.8677,-3327.4116L13316.8613,-3327.4088L13316.8565,-3327.4068L13316.8406,-3327.395L13316.8352,-3327.3888L13316.8271,-3327.3708L13316.8224,-3327.351L13316.8137,-3327.2896L13316.8072,-3327.229L13316.8049,-3327.2132L13316.8046,-3327.2103L13316.8031,-3327.198L13316.803,-3327.1974L13316.8032,-3327.1943L13316.8027,-3327.188L13316.803,-3327.1787L13316.8057,-3327.1634L13316.809,-3327.1519L13316.8166,-3327.1378L13316.8278,-3327.1239L13316.8874,-3327.0535L13316.8931,-3327.0467L13316.9082,-3327.0213L13316.921,-3326.9983L13316.9861,-3326.8687L13316.995,-3326.8463L13317.0058,-3326.8291L13317.0136,-3326.8135L13317.0304,-3326.7791L13317.0465,-3326.7526L13317.0626,-3326.7334L13317.0723,-3326.724L13317.1049,-3326.6894L13317.1075,-3326.6867L13317.1196,-3326.6748L13317.1269,-3326.6653L13317.1384,-3326.6421L13317.1397,-3326.6343L13317.1397,-3326.6117L13317.139,-3326.6089L13317.1369,-3326.5987L13317.1369,-3326.5987L13317.1337,-3326.5903L13317.1162,-3326.5491L13317.1095,-3326.5368L13317.1057,-3326.53L13317.0994,-3326.5097L13317.0954,-3326.4877L13317.0793,-3326.3795L13317.074,-3326.3542L13317.0637,-3326.3147L13317.0609,-3326.2992L13317.0579,-3326.2903L13317.0471,-3326.246L13317.0297,-3326.1806L13317.0129,-3326.1446L13316.9995,-3326.1169L13316.9566,-3326.0375L13316.9461,-3326.0186L13316.9163,-3325.9654L13316.8855,-3325.9169L13316.8607,-3325.8859L13316.8325,-3325.8588L13316.7862,-3325.8261L13316.7735,-3325.8183L13316.74,-3325.7954L13316.7238,-3325.7794L13316.6541,-3325.7011L13316.63,-3325.6762L13316.6119,-3325.6554L13316.5944,-3325.634L13316.5481,-3325.5681L13316.5233,-3325.5325L13316.5206,-3325.5292L13316.4691,-3325.4555L13316.4495,-3325.4261L13316.4187,-3325.386L13316.3823,-3325.3392L13316.3392,-3325.2801L13316.2561,-3325.1713L13316.2413,-3325.1409L13316.2286,-3325.1076L13316.2242,-3325.0941L13316.2212,-3325.0817L13316.2159,-3325.0541L13316.2154,-3325.016L13316.2159,-3324.9837L13316.2162,-3324.9506L13316.2165,-3324.9174L13316.2181,-3324.6748L13316.2192,-3324.5914L13316.2185,-3324.5418L13316.2172,-3324.5289L13316.2173,-3324.5282L13316.1924,-3324.4954L13316.0631,-3324.3452L13315.9726,-3324.2392L13315.9304,-3324.1902L13315.8198,-3324.0617L13315.7984,-3324.0347L13315.778,-3324.011L13315.7562,-3323.9856L13315.7328,-3323.9586L13315.7207,-3323.9479L13315.714,-3323.9413L13315.626,-3323.8568L13315.5846,-3323.8166L13315.5672,-3323.8019L13315.529,-3323.776L13315.515,-3323.7659L13315.5089,-3323.7636L13315.4949,-3323.7546L13315.4473,-3323.7303L13315.4297,-3323.7229"/>
<path content="1,（有）高南観光自動車,窪川～志和線,3.0,3.0,3.0," xlink:title="1" d="M13318.6534,-3322.2656L13318.7578,-3322.3184L13318.7757,-3322.3272L13318.857,-3322.3663L13318.8963,-3322.3852L13318.9901,-3322.4304L13319.0149,-3322.4427L13319.0404,-3322.4551L13319.0484,-3322.4597L13319.0826,-3322.4766L13319.1007,-3322.485L13319.1181,-3322.494L13319.1275,-3322.498L13319.1362,-3322.5014L13319.1956,-3322.5193L13319.243,-3322.5342L13319.2702,-3322.5419L13319.2923,-3322.5481L13319.3306,-3322.5571L13319.3674,-3322.5656L13319.4056,-3322.574L13319.4223,-3322.5786L13319.5129,-3322.5895L13319.5584,-3322.5977L13319.61,-3322.6045L13319.6421,-3322.6096L13319.6555,-3322.6107L13319.6817,-3322.6169L13319.7339,-3322.6304L13319.8418,-3322.6586L13319.882,-3322.671L13319.9018,-3322.6799L13319.9169,-3322.6867L13319.9772,-3322.7217L13320.0033,-3322.7358L13320.0261,-3322.7454L13320.0536,-3322.7533L13320.0556,-3322.7541L13320.0633,-3322.7513L13320.0825,-3322.7515L13320.1059,-3322.7482L13320.1266,-3322.7426L13320.1407,-3322.7273L13320.1467,-3322.7088L13320.1527,-3322.6721L13320.1561,-3322.6614L13320.1608,-3322.6557L13320.2345,-3322.5938L13320.2499,-3322.5819L13320.2654,-3322.5769L13320.2861,-3322.5763L13320.2988,-3322.5752L13320.3632,-3322.5729L13320.3947,-3322.5696L13320.4168,-3322.5662L13320.4247,-3322.5644L13320.4305,-3322.5622L13320.4351,-3322.5589L13320.4397,-3322.5547L13320.4451,-3322.5458L13320.453,-3322.5245L13320.4563,-3322.5053L13320.4556,-3322.489L13320.4503,-3322.4591L13320.4376,-3322.4292L13320.3986,-3322.3587L13320.3913,-3322.3487L13320.3846,-3322.3402L13320.3819,-3322.334L13320.3732,-3322.2878L13320.3713,-3322.2656M13320.647,-3322.2656L13320.6868,-3322.2917L13320.7478,-3322.3267L13320.7853,-3322.3458L13320.8396,-3322.3706L13320.8852,-3322.3903L13320.9569,-3322.423L13321.0179,-3322.4506L13321.0721,-3322.4963L13321.0915,-3322.505L13321.1759,-3322.5486L13321.2263,-3322.5746L13321.2839,-3322.6039L13321.2946,-3322.6101L13321.3891,-3322.658L13321.4159,-3322.671L13321.4474,-3322.6879L13321.4856,-3322.7071L13321.5151,-3322.7211L13321.5278,-3322.7256L13321.5606,-3322.7335L13321.6618,-3322.7578L13321.6686,-3322.7583L13321.7657,-3322.782L13321.7724,-3322.7837L13321.8495,-3322.8012L13321.8803,-3322.8096L13321.9091,-3322.8169L13321.916,-3322.8179L13321.9386,-3322.8231L13321.9466,-3322.8237L13321.95,-3322.8248L13322.012,-3322.8339L13322.0532,-3322.8339L13322.0813,-3322.831L13322.1115,-3322.8248L13322.1343,-3322.8181L13322.1477,-3322.8124L13322.1684,-3322.8091L13322.2576,-3322.8091L13322.3727,-3322.8109L13322.411,-3322.8119L13322.4238,-3322.8186L13322.4392,-3322.8322L13322.4533,-3322.8468L13322.46,-3322.8513L13322.4673,-3322.8547L13322.4781,-3322.8564L13322.5316,-3322.8587L13322.5638,-3322.8587L13322.5698,-3322.857L13322.5779,-3322.853L13322.5826,-3322.8496L13322.5893,-3322.8378L13322.5926,-3322.8209L13322.5953,-3322.8057L13322.6033,-3322.7938L13322.6228,-3322.7826L13322.6576,-3322.7679L13322.6643,-3322.7668L13322.6791,-3322.7663L13322.6952,-3322.7719L13322.7119,-3322.7809L13322.732,-3322.7933L13322.7609,-3322.7891L13322.7744,-3322.7856L13322.7802,-3322.784L13322.7885,-3322.7792L13322.8,-3322.7671L13322.8044,-3322.7593L13322.8114,-3322.7471L13322.8152,-3322.7425L13322.8225,-3322.7379L13322.8454,-3322.7284L13322.8532,-3322.7289L13322.8593,-3322.7328L13322.8662,-3322.7372L13322.8681,-3322.7387L13322.8717,-3322.738L13322.8731,-3322.7346L13322.8752,-3322.7254L13322.8766,-3322.7111L13322.879,-3322.7083L13322.8821,-3322.7084L13322.8886,-3322.7134L13322.8959,-3322.7204L13322.8995,-3322.7206L13322.9014,-3322.7188L13322.9014,-3322.7134L13322.8952,-3322.6895L13322.8961,-3322.6848L13322.8981,-3322.6832L13322.9008,-3322.6825L13322.9077,-3322.6831L13322.931,-3322.6982L13322.946,-3322.7048L13322.9528,-3322.7054L13322.9619,-3322.704L13322.9949,-3322.703L13323.0143,-3322.7006L13323.02,-3322.6985L13323.0261,-3322.6954L13323.0396,-3322.6906L13323.0447,-3322.6901L13323.0616,-3322.6905L13323.0734,-3322.6869L13323.0811,-3322.6858L13323.0939,-3322.6859L13323.1098,-3322.6851L13323.1156,-3322.6834L13323.1224,-3322.6801L13323.1394,-3322.6733L13323.145,-3322.6722L13323.1494,-3322.6722L13323.1539,-3322.6737L13323.1601,-3322.6783L13323.1758,-3322.6947L13323.1922,-3322.7036L13323.2037,-3322.7055L13323.2136,-3322.7051L13323.2436,-3322.7029L13323.2644,-3322.7047L13323.2807,-3322.7079L13323.2906,-3322.7079L13323.2961,-3322.7067L13323.2987,-3322.704L13323.3025,-3322.6919L13323.304,-3322.6754L13323.3048,-3322.6672L13323.3077,-3322.6643L13323.3161,-3322.6551L13323.3312,-3322.6434L13323.3364,-3322.642L13323.3387,-3322.6428L13323.3396,-3322.6462L13323.3402,-3322.66L13323.3418,-3322.6749L13323.3431,-3322.6776L13323.3455,-3322.6788L13323.3511,-3322.6768L13323.3546,-3322.6763L13323.3595,-3322.6773L13323.3638,-3322.6802L13323.3667,-3322.6855L13323.3694,-3322.6892L13323.3723,-3322.6903L13323.3755,-3322.6901L13323.3781,-3322.6867L13323.3803,-3322.6814L13323.3833,-3322.6758L13323.3864,-3322.6749L13323.3906,-3322.6751L13323.3939,-3322.6753L13323.3974,-3322.674L13323.4015,-3322.67L13323.4039,-3322.6677L13323.4083,-3322.6664L13323.4119,-3322.6643L13323.4142,-3322.6618L13323.4168,-3322.6581L13323.4201,-3322.6547L13323.4263,-3322.6514L13323.4354,-3322.6477L13323.4504,-3322.6451L13323.4611,-3322.644L13323.4806,-3322.6406L13323.4926,-3322.6338L13323.508,-3322.6175L13323.5308,-3322.6L13323.5702,-3322.5841L13323.5858,-3322.5865L13323.6126,-3322.5955L13323.642,-3322.6147L13323.6816,-3322.6372L13323.7003,-3322.6468L13323.7204,-3322.6552L13323.7499,-3322.6654L13323.7627,-3322.6688L13323.7908,-3322.6795L13323.8042,-3322.6829L13323.8256,-3322.6891L13323.8592,-3322.6969L13323.8759,-3322.7026L13323.9134,-3322.7167L13323.9537,-3322.7319L13323.9905,-3322.7516L13324.0093,-3322.7629L13324.0334,-3322.7815L13324.0448,-3322.7933L13324.0622,-3322.817"/>
<path content="1,（有）高南観光自動車,窪川～志和線,3.0,3.0,3.0," xlink:title="1" d="M13324.0622,-3322.817L13324.0428,-3322.8125L13324.0233,-3322.8114L13324.0153,-3322.8114L13323.9978,-3322.8134"/>
<path content="1,（有）高南観光自動車,窪川～志和線,3.0,3.0,3.0," xlink:title="1" d="M13324.0622,-3322.817L13324.0709,-3322.8187L13324.0997,-3322.826L13324.1353,-3322.8356L13324.1775,-3322.8531L13324.1942,-3322.8587L13324.2188,-3322.8644"/>
<path content="1,（有）高南観光自動車,窪川～見付～飯の川線,2.0,2.0,2.0," xlink:title="1" d="M13320.5508,-3323.4021L13320.532,-3323.394L13320.5061,-3323.3838L13320.4731,-3323.3709L13320.461,-3323.3636L13320.4529,-3323.3574L13320.3236,-3323.2216L13320.2901,-3323.1878L13320.2807,-3323.1765L13320.2523,-3323.1208L13320.2415,-3323.1029L13320.2372,-3323.0948L13320.2324,-3323.0905L13320.2261,-3323.0879L13320.228,-3323.0848L13320.2276,-3323.0824L13320.226,-3323.0793L13320.2224,-3323.0717L13320.1416,-3322.9153L13320.1244,-3322.8828L13320.0643,-3322.7707L13320.0556,-3322.7541L13320.0536,-3322.7533L13320.0261,-3322.7454L13320.0033,-3322.7358L13319.9772,-3322.7217L13319.9169,-3322.6867L13319.9018,-3322.6799L13319.882,-3322.671L13319.8418,-3322.6586L13319.7339,-3322.6304L13319.6817,-3322.6169L13319.6555,-3322.6107L13319.6421,-3322.6096L13319.61,-3322.6045L13319.5584,-3322.5977L13319.5129,-3322.5895L13319.4223,-3322.5786L13319.4056,-3322.574L13319.3674,-3322.5656L13319.3306,-3322.5571L13319.2923,-3322.5481L13319.2702,-3322.5419L13319.243,-3322.5342L13319.1956,-3322.5193L13319.1275,-3322.498L13319.1181,-3322.494L13319.1007,-3322.485L13319.0826,-3322.4766L13319.0484,-3322.4597L13319.0404,-3322.4551L13319.0149,-3322.4427L13318.9901,-3322.4304L13318.8963,-3322.3852L13318.857,-3322.3663L13318.7757,-3322.3272L13318.7578,-3322.3184L13318.6534,-3322.2656"/>
<path content="1,（有）高南観光自動車,窪川～香月丘～影野線,1.0,1.0,1.0," xlink:title="1" d="M13317.248,-3327.5976L13317.2014,-3327.5641L13317.1974,-3327.5618L13317.1585,-3327.5342L13317.1343,-3327.5201L13317.1303,-3327.5184L13317.0927,-3327.5026L13317.0116,-3327.4699L13317.0015,-3327.4666L13316.97,-3327.4536L13316.8694,-3327.4125L13316.8677,-3327.4116L13316.8613,-3327.4088L13316.8565,-3327.4068L13316.8406,-3327.395L13316.8352,-3327.3888L13316.8271,-3327.3708L13316.8224,-3327.351L13316.8137,-3327.2896L13316.8072,-3327.229L13316.8049,-3327.2132L13316.803,-3327.1974L13316.8032,-3327.1943L13316.7822,-3327.2011L13316.7185,-3327.2074L13316.6051,-3327.2169L13316.5823,-3327.2209L13316.5709,-3327.2287L13316.5367,-3327.2581L13316.5139,-3327.2755L13316.473,-3327.2971L13316.4502,-3327.311L13316.4241,-3327.3274L13316.4053,-3327.3385L13316.3899,-3327.3477L13316.3744,-3327.3567L13316.3281,-3327.3911L13316.2852,-3327.4215L13316.2389,-3327.4581L13316.1967,-3327.488L13316.1605,-3327.5122L13316.133,-3327.5291L13316.078,-3327.5562L13316.0699,-3327.559L13316.0371,-3327.5708L13316.0163,-3327.5778L13316.0008,-3327.5826L13315.9391,-3327.5968L13315.9069,-3327.599L13315.8439,-3327.6209L13315.7882,-3327.6435L13315.6997,-3327.6796L13315.6501,-3327.6948L13315.581,-3327.7111L13315.5676,-3327.7128L13315.5374,-3327.719L13315.5082,-3327.7207L13315.4851,-3327.719L13315.4703,-3327.7167L13315.4297,-3327.7168"/>
</g>
</svg>
