<?xml version="1.0" encoding="UTF-8"?>
<svg  xmlns="http://www.w3.org/2000/svg" xmlns:xlink="http://www.w3.org/1999/xlink" xmlns:go="http://purl.org/svgmap/profile" property="N07_001,N07_002,N07_003,N07_004,N07_005,N07_006,N07_007" viewBox="13975.7080078125 -3578.2470703125 1.0986328125 1.0986328125" go:dataArea="13975.7080078125 -3578.2470703125 1.0986328125 1.0986328125" >
<metadata>
 <rdf:RDF xmlns:rdf="http://www.w3.org/1999/02/22-rdf-syntax-ns#" xmlns:crs="http://opengis.org/xmldtds/transformations.dtd" xmlns:svg="http://www.w3.org/svg" >
  <rdf:Description>
   <crs:CoordinateReferenceSystem rdf:resource="http://purl.org/crs/84" svg:transform="matrix(100.0,0.0,0.0,-100.0,0.0,0.0)" />
  </rdf:Description>
 </rdf:RDF>
</metadata>
<globalCoordinateSystem srsName="http://purl.org/crs/84" transform="matrix(100.0,0.0,0.0,-100.0,0.0,0.0)" />
<defs>
 <g id="p0" >
  <circle cx="0.0" cy="0.0" r="3" stroke="green" stroke-width="0.75" vector-effect="non-scaling-stroke" />
 </g>
</defs>
<g fill="none" fill-rule="evenodd" stroke="#FF00FF" stroke-width="0.75" opacity="0.5" vector-effect="non-scaling-stroke" stroke-linejoin="bevel" >
<path content="1,JRバス東北（株）,あぶくま号,4.0,4.0,4.0," xlink:title="1" d="M13975.9201,-3577.1484L13975.9179,-3577.1501L13975.8923,-3577.1658L13975.8895,-3577.1672L13975.8891,-3577.1674L13975.8882,-3577.1678L13975.8868,-3577.1685L13975.8829,-3577.1704L13975.8804,-3577.1716L13975.8784,-3577.1726L13975.8748,-3577.1744L13975.8698,-3577.1768L13975.8232,-3577.1997L13975.8123,-3577.2045L13975.8082,-3577.2063L13975.793,-3577.2131L13975.7471,-3577.2335L13975.708,-3577.2497"/>
<path content="1,JRバス東北（株）,ドリームさくらんぼ号,1.0,1.0,1.0," xlink:title="1" d="M13975.9201,-3577.1484L13975.9179,-3577.1501L13975.8923,-3577.1658L13975.8895,-3577.1672L13975.8891,-3577.1674L13975.8882,-3577.1678L13975.8868,-3577.1685L13975.8829,-3577.1704L13975.8804,-3577.1716L13975.8784,-3577.1726L13975.8748,-3577.1744L13975.8698,-3577.1768L13975.8232,-3577.1997L13975.8123,-3577.2045L13975.8082,-3577.2063L13975.793,-3577.2131L13975.7471,-3577.2335L13975.708,-3577.2497"/>
<path content="1,JRバス東北（株）,ドリームふくしま・横浜号,1.0,1.0,1.0," xlink:title="1" d="M13975.9201,-3577.1484L13975.9179,-3577.1501L13975.8923,-3577.1658L13975.8895,-3577.1672L13975.8891,-3577.1674L13975.8882,-3577.1678L13975.8868,-3577.1685L13975.8829,-3577.1704L13975.8804,-3577.1716L13975.8784,-3577.1726L13975.8748,-3577.1744L13975.8698,-3577.1768L13975.8232,-3577.1997L13975.8123,-3577.2045L13975.8082,-3577.2063L13975.793,-3577.2131L13975.7471,-3577.2335L13975.708,-3577.2497"/>
<path content="1,JRバス東北（株）,ドリームササニシキ号,1.0,1.0,1.0," xlink:title="1" d="M13975.708,-3577.2497L13975.7471,-3577.2335L13975.793,-3577.2131L13975.8082,-3577.2063L13975.8123,-3577.2045L13975.8232,-3577.1997L13975.8698,-3577.1768L13975.8748,-3577.1744L13975.8784,-3577.1726L13975.8804,-3577.1716L13975.8829,-3577.1704L13975.8868,-3577.1685L13975.8882,-3577.1678L13975.8891,-3577.1674L13975.8895,-3577.1672L13975.8923,-3577.1658L13975.9179,-3577.1501L13975.9201,-3577.1484"/>
<path content="1,JRバス東北（株）,ドリーム政宗号,1.0,1.0,1.0," xlink:title="1" d="M13975.9201,-3577.1484L13975.9179,-3577.1501L13975.8923,-3577.1658L13975.8895,-3577.1672L13975.8891,-3577.1674L13975.8882,-3577.1678L13975.8868,-3577.1685L13975.8829,-3577.1704L13975.8804,-3577.1716L13975.8784,-3577.1726L13975.8748,-3577.1744L13975.8698,-3577.1768L13975.8232,-3577.1997L13975.8123,-3577.2045L13975.8082,-3577.2063L13975.793,-3577.2131L13975.7471,-3577.2335L13975.708,-3577.2497"/>
<path content="1,JRバス東北（株）,ドリーム横浜・仙台号,1.0,1.0,1.0," xlink:title="1" d="M13975.9201,-3577.1484L13975.9179,-3577.1501L13975.8923,-3577.1658L13975.8895,-3577.1672L13975.8891,-3577.1674L13975.8882,-3577.1678L13975.8868,-3577.1685L13975.8829,-3577.1704L13975.8804,-3577.1716L13975.8784,-3577.1726L13975.8748,-3577.1744L13975.8698,-3577.1768L13975.8232,-3577.1997L13975.8123,-3577.2045L13975.8082,-3577.2063L13975.793,-3577.2131L13975.7471,-3577.2335L13975.708,-3577.2497"/>
<path content="1,JRバス東北（株）,ドリーム盛岡・らくちん号,2.2,3.0,3.0," xlink:title="1" d="M13975.9201,-3577.1484L13975.9179,-3577.1501L13975.8923,-3577.1658L13975.8895,-3577.1672L13975.8891,-3577.1674L13975.8882,-3577.1678L13975.8868,-3577.1685L13975.8829,-3577.1704L13975.8804,-3577.1716L13975.8784,-3577.1726L13975.8748,-3577.1744L13975.8698,-3577.1768L13975.8232,-3577.1997L13975.8123,-3577.2045L13975.8082,-3577.2063L13975.793,-3577.2131L13975.7471,-3577.2335L13975.708,-3577.2497"/>
<path content="1,JRバス東北（株）,ドリーム秋田・横浜号,1.0,1.0,1.0," xlink:title="1" d="M13975.9201,-3577.1484L13975.9179,-3577.1501L13975.8923,-3577.1658L13975.8895,-3577.1672L13975.8891,-3577.1674L13975.8882,-3577.1678L13975.8868,-3577.1685L13975.8829,-3577.1704L13975.8804,-3577.1716L13975.8784,-3577.1726L13975.8748,-3577.1744L13975.8698,-3577.1768L13975.8232,-3577.1997L13975.8123,-3577.2045L13975.8082,-3577.2063L13975.793,-3577.2131L13975.7471,-3577.2335L13975.708,-3577.2497"/>
<path content="1,JRバス東北（株）,ドリーム鳥海号,1.0,1.0,1.0," xlink:title="1" d="M13975.9201,-3577.1484L13975.9179,-3577.1501L13975.8923,-3577.1658L13975.8895,-3577.1672L13975.8891,-3577.1674L13975.8882,-3577.1678L13975.8868,-3577.1685L13975.8829,-3577.1704L13975.8804,-3577.1716L13975.8784,-3577.1726L13975.8748,-3577.1744L13975.8698,-3577.1768L13975.8232,-3577.1997L13975.8123,-3577.2045L13975.8082,-3577.2063L13975.793,-3577.2131L13975.7471,-3577.2335L13975.708,-3577.2497"/>
<path content="1,JRバス東北（株）,ラ・フォーレ号,1.0,1.0,1.0," xlink:title="1" d="M13975.9201,-3577.1484L13975.9179,-3577.1501L13975.8923,-3577.1658L13975.8895,-3577.1672L13975.8891,-3577.1674L13975.8882,-3577.1678L13975.8868,-3577.1685L13975.8829,-3577.1704L13975.8804,-3577.1716L13975.8784,-3577.1726L13975.8748,-3577.1744L13975.8698,-3577.1768L13975.8232,-3577.1997L13975.8123,-3577.2045L13975.8082,-3577.2063L13975.793,-3577.2131L13975.7471,-3577.2335L13975.708,-3577.2497"/>
<path content="1,JRバス東北（株）,仙台・新宿号,2.0,2.0,2.0," xlink:title="1" d="M13975.9201,-3577.1484L13975.9179,-3577.1501L13975.8923,-3577.1658L13975.8895,-3577.1672L13975.8891,-3577.1674L13975.8882,-3577.1678L13975.8868,-3577.1685L13975.8829,-3577.1704L13975.8804,-3577.1716L13975.8784,-3577.1726L13975.8748,-3577.1744L13975.8698,-3577.1768L13975.8232,-3577.1997L13975.8123,-3577.2045L13975.8082,-3577.2063L13975.793,-3577.2131L13975.7471,-3577.2335L13975.708,-3577.2497"/>
<path content="1,JRバス関東（株）,あぶくま号,4.0,4.0,4.0," xlink:title="1" d="M13975.9201,-3577.1484L13975.9179,-3577.1501L13975.8923,-3577.1658L13975.8895,-3577.1672L13975.8891,-3577.1674L13975.8882,-3577.1678L13975.8868,-3577.1685L13975.8829,-3577.1704L13975.8804,-3577.1716L13975.8784,-3577.1726L13975.8748,-3577.1744L13975.8698,-3577.1768L13975.8232,-3577.1997L13975.8123,-3577.2045L13975.8082,-3577.2063L13975.793,-3577.2131L13975.7471,-3577.2335L13975.708,-3577.2497"/>
<path content="1,JRバス関東（株）,ドリーム盛岡号,2.2,3.0,3.0," xlink:title="1" d="M13975.708,-3577.2497L13975.7471,-3577.2335L13975.793,-3577.2131L13975.8082,-3577.2063L13975.8123,-3577.2045L13975.8232,-3577.1997L13975.8698,-3577.1768L13975.8748,-3577.1744L13975.8784,-3577.1726L13975.8804,-3577.1716L13975.8829,-3577.1704L13975.8868,-3577.1685L13975.8882,-3577.1678L13975.8891,-3577.1674L13975.8895,-3577.1672L13975.8923,-3577.1658L13975.9179,-3577.1501L13975.9201,-3577.1484"/>
<path content="1,JRバス関東（株）,マロニエ新宿号・マロニエ東京号,34.0,37.0,37.0," xlink:title="1" d="M13975.9201,-3577.1484L13975.9179,-3577.1501L13975.8923,-3577.1658L13975.8895,-3577.1672L13975.8891,-3577.1674L13975.8882,-3577.1678L13975.8868,-3577.1685L13975.8829,-3577.1704L13975.8804,-3577.1716L13975.8784,-3577.1726L13975.8748,-3577.1744L13975.8698,-3577.1768L13975.8232,-3577.1997L13975.8123,-3577.2045L13975.8082,-3577.2063L13975.793,-3577.2131L13975.7471,-3577.2335L13975.708,-3577.2497"/>
<path content="1,JRバス関東（株）,夢街道会津号,6.0,6.0,6.0," xlink:title="1" d="M13975.9201,-3577.1484L13975.9179,-3577.1501L13975.8923,-3577.1658L13975.8895,-3577.1672L13975.8891,-3577.1674L13975.8882,-3577.1678L13975.8868,-3577.1685L13975.8829,-3577.1704L13975.8804,-3577.1716L13975.8784,-3577.1726L13975.8748,-3577.1744L13975.8698,-3577.1768L13975.8232,-3577.1997L13975.8123,-3577.2045L13975.8082,-3577.2063L13975.793,-3577.2131L13975.7471,-3577.2335L13975.708,-3577.2497"/>
<path content="1,JRバス関東（株）,那須塩原リゾートエクスプレス,4.0,4.0,4.0," xlink:title="1" d="M13975.9201,-3577.1484L13975.9179,-3577.1501L13975.8923,-3577.1658L13975.8895,-3577.1672L13975.8891,-3577.1674L13975.8882,-3577.1678L13975.8868,-3577.1685L13975.8829,-3577.1704L13975.8804,-3577.1716L13975.8784,-3577.1726L13975.8748,-3577.1744L13975.8698,-3577.1768L13975.8232,-3577.1997L13975.8123,-3577.2045L13975.8082,-3577.2063L13975.793,-3577.2131L13975.7471,-3577.2335L13975.708,-3577.2497"/>
<path content="1,京王バス南（株）,新宿・渋谷～仙台・石巻線,1.0,1.0,1.0," xlink:title="1" d="M13975.708,-3577.2497L13975.7471,-3577.2335L13975.793,-3577.2131L13975.8082,-3577.2063L13975.8123,-3577.2045L13975.8232,-3577.1997L13975.8698,-3577.1768L13975.8748,-3577.1744L13975.8784,-3577.1726L13975.8804,-3577.1716L13975.8829,-3577.1704L13975.8868,-3577.1685L13975.8882,-3577.1678L13975.8891,-3577.1674L13975.8895,-3577.1672L13975.8923,-3577.1658L13975.9179,-3577.1501L13975.9201,-3577.1484"/>
<path content="1,会津乗合自動車,夢街道会津号,5.0,5.0,5.0," xlink:title="1" d="M13975.9201,-3577.1484L13975.9179,-3577.1501L13975.8923,-3577.1658L13975.8895,-3577.1672L13975.8891,-3577.1674L13975.8882,-3577.1678L13975.8868,-3577.1685L13975.8829,-3577.1704L13975.8804,-3577.1716L13975.8784,-3577.1726L13975.8748,-3577.1744L13975.8698,-3577.1768L13975.8232,-3577.1997L13975.8123,-3577.2045L13975.8082,-3577.2063L13975.793,-3577.2131L13975.7471,-3577.2335L13975.708,-3577.2497"/>
<path content="1,十和田観光電鉄（株）,シリウス号,1.0,1.0,1.0," xlink:title="1" d="M13975.9201,-3577.1484L13975.9179,-3577.1501L13975.8923,-3577.1658L13975.8895,-3577.1672L13975.8891,-3577.1674L13975.8882,-3577.1678L13975.8868,-3577.1685L13975.8829,-3577.1704L13975.8804,-3577.1716L13975.8784,-3577.1726L13975.8748,-3577.1744L13975.8698,-3577.1768L13975.8232,-3577.1997L13975.8123,-3577.2045L13975.8082,-3577.2063L13975.793,-3577.2131L13975.7471,-3577.2335L13975.708,-3577.2497"/>
<path content="1,千葉交通,マロニエ号,5.0,5.0,5.0," xlink:title="1" d="M13975.9201,-3577.1484L13975.9179,-3577.1501L13975.8923,-3577.1658L13975.8895,-3577.1672L13975.8891,-3577.1674L13975.8882,-3577.1678L13975.8868,-3577.1685L13975.8829,-3577.1704L13975.8804,-3577.1716L13975.8784,-3577.1726L13975.8748,-3577.1744L13975.8698,-3577.1768L13975.8232,-3577.1997L13975.8123,-3577.2045L13975.8082,-3577.2063L13975.793,-3577.2131L13975.7471,-3577.2335L13975.708,-3577.2497"/>
<path content="1,千葉交通,メープル号,3.0,3.0,3.0," xlink:title="1" d="M13975.708,-3577.2497L13975.7471,-3577.2335L13975.793,-3577.2131L13975.8082,-3577.2063L13975.8123,-3577.2045L13975.8232,-3577.1997L13975.8698,-3577.1768L13975.8748,-3577.1744L13975.8784,-3577.1726L13975.8804,-3577.1716L13975.8829,-3577.1704L13975.8868,-3577.1685L13975.8882,-3577.1678L13975.8891,-3577.1674L13975.8895,-3577.1672L13975.8923,-3577.1658L13975.9179,-3577.1501L13975.9201,-3577.1484"/>
<path content="1,千葉交通,福島・郡山～成田空港線,2.0,2.0,2.0," xlink:title="1" d="M13975.708,-3577.2497L13975.7471,-3577.2335L13975.793,-3577.2131L13975.8082,-3577.2063L13975.8123,-3577.2045L13975.8232,-3577.1997L13975.8698,-3577.1768L13975.8748,-3577.1744L13975.8784,-3577.1726L13975.8804,-3577.1716L13975.8829,-3577.1704L13975.8868,-3577.1685L13975.8882,-3577.1678L13975.8891,-3577.1674L13975.8895,-3577.1672L13975.8923,-3577.1658L13975.9179,-3577.1501L13975.9201,-3577.1484"/>
<path content="1,名鉄バス（株）,名古屋～仙台,1.0,1.0,1.0," xlink:title="1" d="M13975.708,-3577.2496L13975.7471,-3577.2335L13975.8231,-3577.1996L13975.8923,-3577.1658L13975.9178,-3577.1501L13975.92,-3577.1484"/>
<path content="1,国際興業（株）,ONライナー,1.0,1.0,1.0," xlink:title="1" d="M13975.708,-3577.2497L13975.7471,-3577.2335L13975.793,-3577.2131L13975.8082,-3577.2063L13975.8123,-3577.2045L13975.8232,-3577.1997L13975.8698,-3577.1768L13975.8748,-3577.1744L13975.8784,-3577.1726L13975.8804,-3577.1716L13975.8829,-3577.1704L13975.8868,-3577.1685L13975.8882,-3577.1678L13975.8891,-3577.1674L13975.8895,-3577.1672L13975.8923,-3577.1658L13975.9179,-3577.1501L13975.9201,-3577.1484"/>
<path content="1,国際興業（株）,けせんライナー,1.0,1.0,1.0," xlink:title="1" d="M13975.9201,-3577.1484L13975.9179,-3577.1501L13975.8923,-3577.1658L13975.8895,-3577.1672L13975.8891,-3577.1674L13975.8882,-3577.1678L13975.8868,-3577.1685L13975.8829,-3577.1704L13975.8804,-3577.1716L13975.8784,-3577.1726L13975.8748,-3577.1744L13975.8698,-3577.1768L13975.8232,-3577.1997L13975.8123,-3577.2045L13975.8082,-3577.2063L13975.793,-3577.2131L13975.7471,-3577.2335L13975.708,-3577.2497"/>
<path content="1,国際興業（株）,シリウス号,1.0,1.0,1.0," xlink:title="1" d="M13975.9201,-3577.1484L13975.9179,-3577.1501L13975.8923,-3577.1658L13975.8895,-3577.1672L13975.8891,-3577.1674L13975.8882,-3577.1678L13975.8868,-3577.1685L13975.8829,-3577.1704L13975.8804,-3577.1716L13975.8784,-3577.1726L13975.8748,-3577.1744L13975.8698,-3577.1768L13975.8232,-3577.1997L13975.8123,-3577.2045L13975.8082,-3577.2063L13975.793,-3577.2131L13975.7471,-3577.2335L13975.708,-3577.2497"/>
<path content="1,国際興業（株）,ドリーム盛岡（らくちん）号,2.2,3.0,3.0," xlink:title="1" d="M13975.9201,-3577.1484L13975.9179,-3577.1501L13975.8923,-3577.1658L13975.8895,-3577.1672L13975.8891,-3577.1674L13975.8882,-3577.1678L13975.8868,-3577.1685L13975.8829,-3577.1704L13975.8804,-3577.1716L13975.8784,-3577.1726L13975.8748,-3577.1744L13975.8698,-3577.1768L13975.8232,-3577.1997L13975.8123,-3577.2045L13975.8082,-3577.2063L13975.793,-3577.2131L13975.7471,-3577.2335L13975.708,-3577.2497"/>
<path content="1,国際興業（株）,夕陽号,2.0,2.0,2.0," xlink:title="1" d="M13975.9201,-3577.1484L13975.9179,-3577.1501L13975.8923,-3577.1658L13975.8895,-3577.1672L13975.8891,-3577.1674L13975.8882,-3577.1678L13975.8868,-3577.1685L13975.8829,-3577.1704L13975.8804,-3577.1716L13975.8784,-3577.1726L13975.8748,-3577.1744L13975.8698,-3577.1768L13975.8232,-3577.1997L13975.8123,-3577.2045L13975.8082,-3577.2063L13975.793,-3577.2131L13975.7471,-3577.2335L13975.708,-3577.2497"/>
<path content="1,国際興業（株）,赤26,53.0,48.0,44.0," xlink:title="1" d="M13975.708,-3577.8405L13975.7595,-3577.838L13975.7922,-3577.8364L13975.8093,-3577.8363L13975.8268,-3577.8337L13975.9631,-3577.8292L13976.0236,-3577.8271L13976.046,-3577.8267L13976.0537,-3577.8269L13976.0539,-3577.8459L13976.0546,-3577.8724L13976.056,-3577.8808L13976.0567,-3577.8904L13976.0609,-3577.9338L13976.0616,-3577.9524L13976.0627,-3577.9794L13976.0664,-3578.0082L13976.0706,-3578.0471L13976.072,-3578.0811L13976.0795,-3578.1529L13976.0825,-3578.1805L13976.0837,-3578.1986L13976.0885,-3578.238L13976.0892,-3578.2459L13976.0893,-3578.2471"/>
<path content="1,国際興業（株）,赤26-2,1.0,1.0,0.0," xlink:title="1" d="M13975.708,-3577.8405L13975.7595,-3577.838L13975.7922,-3577.8364L13975.8093,-3577.8363L13975.8268,-3577.8337L13975.9631,-3577.8292L13976.0236,-3577.8271L13976.046,-3577.8267L13976.0537,-3577.8269L13976.0539,-3577.8459L13976.0546,-3577.8724L13976.056,-3577.8808L13976.0567,-3577.8904L13976.0609,-3577.9338L13976.0616,-3577.9524L13976.0627,-3577.9794L13976.0664,-3578.0082L13976.0706,-3578.0471L13976.072,-3578.0811L13976.0795,-3578.1529L13976.0825,-3578.1805L13976.0837,-3578.1986L13976.0885,-3578.238L13976.0892,-3578.2459L13976.0893,-3578.2471"/>
<path content="1,国際興業（株）,赤27,57.0,47.0,46.0," xlink:title="1" d="M13976.8066,-3577.8257L13976.7243,-3577.8273L13976.6611,-3577.8265L13976.6422,-3577.8267L13976.6311,-3577.8265L13976.5377,-3577.8271L13976.5196,-3577.8271L13976.5022,-3577.827L13976.4801,-3577.8262L13976.4648,-3577.827L13976.461,-3577.8271L13976.3643,-3577.8264L13976.2197,-3577.8278L13976.206,-3577.8279L13976.193,-3577.8278L13976.0771,-3577.8278L13976.0537,-3577.8269L13976.046,-3577.8267L13976.0236,-3577.8271L13975.9631,-3577.8292L13975.8268,-3577.8337L13975.8093,-3577.8363L13975.7922,-3577.8364L13975.7595,-3577.838L13975.708,-3577.8405"/>
<path content="1,国際興業（株）,赤27-2,3.0,2.0,1.0," xlink:title="1" d="M13975.708,-3577.8405L13975.7595,-3577.838L13975.7922,-3577.8364L13975.8093,-3577.8363L13975.8268,-3577.8337L13975.9631,-3577.8292L13976.0236,-3577.8271L13976.046,-3577.8267L13976.0537,-3577.8269L13976.0771,-3577.8278L13976.193,-3577.8278L13976.206,-3577.8279L13976.2197,-3577.8278L13976.3643,-3577.8264L13976.461,-3577.8271L13976.4648,-3577.827L13976.4801,-3577.8262L13976.5022,-3577.827L13976.5196,-3577.8271L13976.5377,-3577.8271L13976.6311,-3577.8265L13976.6422,-3577.8267L13976.6611,-3577.8265L13976.7243,-3577.8273L13976.8066,-3577.8257"/>
<path content="1,国際興業（株）,遠野・釜石号,1.0,1.0,1.0," xlink:title="1" d="M13975.9201,-3577.1484L13975.9179,-3577.1501L13975.8923,-3577.1658L13975.8895,-3577.1672L13975.8891,-3577.1674L13975.8882,-3577.1678L13975.8868,-3577.1685L13975.8829,-3577.1704L13975.8804,-3577.1716L13975.8784,-3577.1726L13975.8748,-3577.1744L13975.8698,-3577.1768L13975.8232,-3577.1997L13975.8123,-3577.2045L13975.8082,-3577.2063L13975.793,-3577.2131L13975.7471,-3577.2335L13975.708,-3577.2497"/>
<path content="1,宮城交通（株）,仙台～名古屋線,1.0,1.0,1.0," xlink:title="1" d="M13975.9201,-3577.1484L13975.9179,-3577.1501L13975.8923,-3577.1658L13975.8895,-3577.1672L13975.8891,-3577.1674L13975.8882,-3577.1678L13975.8868,-3577.1685L13975.8829,-3577.1704L13975.8804,-3577.1716L13975.8784,-3577.1726L13975.8748,-3577.1744L13975.8698,-3577.1768L13975.8232,-3577.1997L13975.8123,-3577.2045L13975.8082,-3577.2063L13975.793,-3577.2131L13975.7471,-3577.2335L13975.708,-3577.2497"/>
<path content="1,宮城交通（株）,仙台～大阪線,1.0,1.0,1.0," xlink:title="1" d="M13975.708,-3577.2497L13975.7471,-3577.2335L13975.793,-3577.2131L13975.8082,-3577.2063L13975.8123,-3577.2045L13975.8232,-3577.1997L13975.8698,-3577.1768L13975.8748,-3577.1744L13975.8784,-3577.1726L13975.8804,-3577.1716L13975.8829,-3577.1704L13975.8868,-3577.1685L13975.8882,-3577.1678L13975.8891,-3577.1674L13975.8895,-3577.1672L13975.8923,-3577.1658L13975.9179,-3577.1501L13975.9201,-3577.1484"/>
<path content="1,宮城交通（株）,広瀬ライナー,1.0,1.0,1.0," xlink:title="1" d="M13975.708,-3577.2497L13975.7471,-3577.2335L13975.793,-3577.2131L13975.8082,-3577.2063L13975.8123,-3577.2045L13975.8232,-3577.1997L13975.8698,-3577.1768L13975.8748,-3577.1744L13975.8784,-3577.1726L13975.8804,-3577.1716L13975.8829,-3577.1704L13975.8868,-3577.1685L13975.8882,-3577.1678L13975.8891,-3577.1674L13975.8895,-3577.1672L13975.8923,-3577.1658L13975.9179,-3577.1501L13975.9201,-3577.1484"/>
<path content="1,小田急シティバス（株）,フローラ号,1.0,1.0,1.0," xlink:title="1" d="M13975.9201,-3577.1484L13975.9179,-3577.1501L13975.8923,-3577.1658L13975.8895,-3577.1672L13975.8891,-3577.1674L13975.8882,-3577.1678L13975.8868,-3577.1685L13975.8829,-3577.1704L13975.8804,-3577.1716L13975.8784,-3577.1726L13975.8748,-3577.1744L13975.8698,-3577.1768L13975.8232,-3577.1997L13975.8123,-3577.2045L13975.8082,-3577.2063L13975.793,-3577.2131L13975.7471,-3577.2335L13975.708,-3577.2497"/>
<path content="1,小田急バス（株）,フローラ号,1.0,1.0,1.0," xlink:title="1" d="M13975.9201,-3577.1484L13975.9179,-3577.1501L13975.8923,-3577.1658L13975.8895,-3577.1672L13975.8891,-3577.1674L13975.8882,-3577.1678L13975.8868,-3577.1685L13975.8829,-3577.1704L13975.8804,-3577.1716L13975.8784,-3577.1726L13975.8748,-3577.1744L13975.8698,-3577.1768L13975.8232,-3577.1997L13975.8123,-3577.2045L13975.8082,-3577.2063L13975.793,-3577.2131L13975.7471,-3577.2335L13975.708,-3577.2497"/>
<path content="1,山交バス（株）,TOKYOサンライズ,1.0,1.0,1.0," xlink:title="1" d="M13975.9201,-3577.1484L13975.9179,-3577.1501L13975.8923,-3577.1658L13975.8895,-3577.1672L13975.8891,-3577.1674L13975.8882,-3577.1678L13975.8868,-3577.1685L13975.8829,-3577.1704L13975.8804,-3577.1716L13975.8784,-3577.1726L13975.8748,-3577.1744L13975.8698,-3577.1768L13975.8232,-3577.1997L13975.8123,-3577.2045L13975.8082,-3577.2063L13975.793,-3577.2131L13975.7471,-3577.2335L13975.708,-3577.2497"/>
<path content="1,岩手県交通（株）,けせんライナー,1.0,1.0,1.0," xlink:title="1" d="M13975.9201,-3577.1484L13975.9179,-3577.1501L13975.8923,-3577.1658L13975.8895,-3577.1672L13975.8891,-3577.1674L13975.8882,-3577.1678L13975.8868,-3577.1685L13975.8829,-3577.1704L13975.8804,-3577.1716L13975.8784,-3577.1726L13975.8748,-3577.1744L13975.8698,-3577.1768L13975.8232,-3577.1997L13975.8123,-3577.2045L13975.8082,-3577.2063L13975.793,-3577.2131L13975.7471,-3577.2335L13975.708,-3577.2497"/>
<path content="1,岩手県交通（株）,ドリーム盛岡（らくちん）号,2.3,3.0,3.0," xlink:title="1" d="M13975.9201,-3577.1484L13975.9179,-3577.1501L13975.8923,-3577.1658L13975.8895,-3577.1672L13975.8891,-3577.1674L13975.8882,-3577.1678L13975.8868,-3577.1685L13975.8829,-3577.1704L13975.8804,-3577.1716L13975.8784,-3577.1726L13975.8748,-3577.1744L13975.8698,-3577.1768L13975.8232,-3577.1997L13975.8123,-3577.2045L13975.8082,-3577.2063L13975.793,-3577.2131L13975.7471,-3577.2335L13975.708,-3577.2497"/>
<path content="1,岩手県交通（株）,遠野・釜石号,1.0,1.0,1.0," xlink:title="1" d="M13975.9201,-3577.1484L13975.9179,-3577.1501L13975.8923,-3577.1658L13975.8895,-3577.1672L13975.8891,-3577.1674L13975.8882,-3577.1678L13975.8868,-3577.1685L13975.8829,-3577.1704L13975.8804,-3577.1716L13975.8784,-3577.1726L13975.8748,-3577.1744L13975.8698,-3577.1768L13975.8232,-3577.1997L13975.8123,-3577.2045L13975.8082,-3577.2063L13975.793,-3577.2131L13975.7471,-3577.2335L13975.708,-3577.2497"/>
<path content="1,庄内交通（株）,高速バス　上野・秋葉原・東京,1.0,1.0,1.0," xlink:title="1" d="M13975.9201,-3577.1484L13975.9179,-3577.1501L13975.8923,-3577.1658L13975.8895,-3577.1672L13975.8891,-3577.1674L13975.8882,-3577.1678L13975.8868,-3577.1685L13975.8829,-3577.1704L13975.8804,-3577.1716L13975.8784,-3577.1726L13975.8748,-3577.1744L13975.8698,-3577.1768L13975.8232,-3577.1997L13975.8123,-3577.2045L13975.8082,-3577.2063L13975.793,-3577.2131L13975.7471,-3577.2335L13975.708,-3577.2497"/>
<path content="1,弘南バス（株）,アップル号,1.0,1.0,1.0," xlink:title="1" d="M13975.708,-3577.2497L13975.7471,-3577.2335L13975.793,-3577.2131L13975.8082,-3577.2063L13975.8123,-3577.2045L13975.8232,-3577.1997L13975.8698,-3577.1768L13975.8748,-3577.1744L13975.8784,-3577.1726L13975.8804,-3577.1716L13975.8829,-3577.1704L13975.8868,-3577.1685L13975.8882,-3577.1678L13975.8891,-3577.1674L13975.8895,-3577.1672L13975.8923,-3577.1658L13975.9179,-3577.1501L13975.9201,-3577.1484"/>
<path content="1,弘南バス（株）,スカイ号,1.0,1.0,1.0," xlink:title="1" d="M13975.9201,-3577.1484L13975.9179,-3577.1501L13975.8923,-3577.1658L13975.8895,-3577.1672L13975.8891,-3577.1674L13975.8882,-3577.1678L13975.8868,-3577.1685L13975.8829,-3577.1704L13975.8804,-3577.1716L13975.8784,-3577.1726L13975.8748,-3577.1744L13975.8698,-3577.1768L13975.8232,-3577.1997L13975.8123,-3577.2045L13975.8082,-3577.2063L13975.793,-3577.2131L13975.7471,-3577.2335L13975.708,-3577.2497"/>
<path content="1,弘南バス（株）,ノクターン号,1.0,1.0,1.0," xlink:title="1" d="M13975.9201,-3577.1484L13975.9179,-3577.1501L13975.8923,-3577.1658L13975.8895,-3577.1672L13975.8891,-3577.1674L13975.8882,-3577.1678L13975.8868,-3577.1685L13975.8829,-3577.1704L13975.8804,-3577.1716L13975.8784,-3577.1726L13975.8748,-3577.1744L13975.8698,-3577.1768L13975.8232,-3577.1997L13975.8123,-3577.2045L13975.8082,-3577.2063L13975.793,-3577.2131L13975.7471,-3577.2335L13975.708,-3577.2497"/>
<path content="1,弘南バス（株）,パンダ号,3.0,3.0,3.0," xlink:title="1" d="M13975.9201,-3577.1484L13975.9179,-3577.1501L13975.8923,-3577.1658L13975.8895,-3577.1672L13975.8891,-3577.1674L13975.8882,-3577.1678L13975.8868,-3577.1685L13975.8829,-3577.1704L13975.8804,-3577.1716L13975.8784,-3577.1726L13975.8748,-3577.1744L13975.8698,-3577.1768L13975.8232,-3577.1997L13975.8123,-3577.2045L13975.8082,-3577.2063L13975.793,-3577.2131L13975.7471,-3577.2335L13975.708,-3577.2497"/>
<path content="1,弘南バス（株）,津軽号,1.0,1.0,1.0," xlink:title="1" d="M13975.9201,-3577.1484L13975.9179,-3577.1501L13975.8923,-3577.1658L13975.8895,-3577.1672L13975.8891,-3577.1674L13975.8882,-3577.1678L13975.8868,-3577.1685L13975.8829,-3577.1704L13975.8804,-3577.1716L13975.8784,-3577.1726L13975.8748,-3577.1744L13975.8698,-3577.1768L13975.8232,-3577.1997L13975.8123,-3577.2045L13975.8082,-3577.2063L13975.793,-3577.2131L13975.7471,-3577.2335L13975.708,-3577.2497"/>
<path content="1,日本中央バス（株）,桐生～羽田空港線,4.0,4.0,4.0," xlink:title="1" d="M13975.9201,-3577.1484L13975.9179,-3577.1501L13975.8923,-3577.1658L13975.8895,-3577.1672L13975.8891,-3577.1674L13975.8882,-3577.1678L13975.8868,-3577.1685L13975.8829,-3577.1704L13975.8804,-3577.1716L13975.8784,-3577.1726L13975.8748,-3577.1744L13975.8698,-3577.1768L13975.8232,-3577.1997L13975.8123,-3577.2045L13975.8082,-3577.2063L13975.793,-3577.2131L13975.7471,-3577.2335L13975.708,-3577.2497"/>
<path content="1,東京空港交通（株）,桐生・太田・大泉・館林エリア～羽田空港線,1.0,1.0,1.0," xlink:title="1" d="M13975.9201,-3577.1484L13975.9179,-3577.1501L13975.8923,-3577.1658L13975.8895,-3577.1672L13975.8891,-3577.1674L13975.8882,-3577.1678L13975.8868,-3577.1685L13975.8829,-3577.1704L13975.8804,-3577.1716L13975.8784,-3577.1726L13975.8748,-3577.1744L13975.8698,-3577.1768L13975.8232,-3577.1997L13975.8123,-3577.2045L13975.8082,-3577.2063L13975.793,-3577.2131L13975.7471,-3577.2335L13975.708,-3577.2497"/>
<path content="1,東京空港交通（株）,黒磯・宇都宮・佐野エリア～羽田空港線,3.0,3.0,3.0," xlink:title="1" d="M13975.9201,-3577.1484L13975.9179,-3577.1501L13975.8923,-3577.1658L13975.8895,-3577.1672L13975.8891,-3577.1674L13975.8882,-3577.1678L13975.8868,-3577.1685L13975.8829,-3577.1704L13975.8804,-3577.1716L13975.8784,-3577.1726L13975.8748,-3577.1744L13975.8698,-3577.1768L13975.8232,-3577.1997L13975.8123,-3577.2045L13975.8082,-3577.2063L13975.793,-3577.2131L13975.7471,-3577.2335L13975.708,-3577.2497"/>
<path content="1,東北急行バス（株）,TOKYOサンライズ号,1.0,1.0,1.0," xlink:title="1" d="M13975.9201,-3577.1484L13975.9179,-3577.1501L13975.8923,-3577.1658L13975.8895,-3577.1672L13975.8891,-3577.1674L13975.8882,-3577.1678L13975.8868,-3577.1685L13975.8829,-3577.1704L13975.8804,-3577.1716L13975.8784,-3577.1726L13975.8748,-3577.1744L13975.8698,-3577.1768L13975.8232,-3577.1997L13975.8123,-3577.2045L13975.8082,-3577.2063L13975.793,-3577.2131L13975.7471,-3577.2335L13975.708,-3577.2497"/>
<path content="1,東北急行バス（株）,エススター号,0.1,0.5,0.0," xlink:title="1" d="M13975.708,-3577.2497L13975.7471,-3577.2335L13975.793,-3577.2131L13975.8082,-3577.2063L13975.8123,-3577.2045L13975.8232,-3577.1997L13975.8698,-3577.1768L13975.8748,-3577.1744L13975.8784,-3577.1726L13975.8804,-3577.1716L13975.8829,-3577.1704L13975.8868,-3577.1685L13975.8882,-3577.1678L13975.8891,-3577.1674L13975.8895,-3577.1672L13975.8923,-3577.1658L13975.9179,-3577.1501L13975.9201,-3577.1484"/>
<path content="1,東北急行バス（株）,スイート号,0.2,1.0,1.0," xlink:title="1" d="M13975.9201,-3577.1484L13975.9179,-3577.1501L13975.8923,-3577.1658L13975.8895,-3577.1672L13975.8891,-3577.1674L13975.8882,-3577.1678L13975.8868,-3577.1685L13975.8829,-3577.1704L13975.8804,-3577.1716L13975.8784,-3577.1726L13975.8748,-3577.1744L13975.8698,-3577.1768L13975.8232,-3577.1997L13975.8123,-3577.2045L13975.8082,-3577.2063L13975.793,-3577.2131L13975.7471,-3577.2335L13975.708,-3577.2497"/>
<path content="1,東北急行バス（株）,スーパーレインボー号,0.1,0.0,0.0," xlink:title="1" d="M13975.9201,-3577.1484L13975.9179,-3577.1501L13975.8923,-3577.1658L13975.8895,-3577.1672L13975.8891,-3577.1674L13975.8882,-3577.1678L13975.8868,-3577.1685L13975.8829,-3577.1704L13975.8804,-3577.1716L13975.8784,-3577.1726L13975.8748,-3577.1744L13975.8698,-3577.1768L13975.8232,-3577.1997L13975.8123,-3577.2045L13975.8082,-3577.2063L13975.793,-3577.2131L13975.7471,-3577.2335L13975.708,-3577.2497"/>
<path content="1,東北急行バス（株）,ニュースター号,2.0,2.0,2.0," xlink:title="1" d="M13975.9201,-3577.1484L13975.9179,-3577.1501L13975.8923,-3577.1658L13975.8895,-3577.1672L13975.8891,-3577.1674L13975.8882,-3577.1678L13975.8868,-3577.1685L13975.8829,-3577.1704L13975.8804,-3577.1716L13975.8784,-3577.1726L13975.8748,-3577.1744L13975.8698,-3577.1768L13975.8232,-3577.1997L13975.8123,-3577.2045L13975.8082,-3577.2063L13975.793,-3577.2131L13975.7471,-3577.2335L13975.708,-3577.2497"/>
<path content="1,東北急行バス（株）,ホリデースター号,0.2,1.0,1.0," xlink:title="1" d="M13975.9201,-3577.1484L13975.9179,-3577.1501L13975.8923,-3577.1658L13975.8895,-3577.1672L13975.8891,-3577.1674L13975.8882,-3577.1678L13975.8868,-3577.1685L13975.8829,-3577.1704L13975.8804,-3577.1716L13975.8784,-3577.1726L13975.8748,-3577.1744L13975.8698,-3577.1768L13975.8232,-3577.1997L13975.8123,-3577.2045L13975.8082,-3577.2063L13975.793,-3577.2131L13975.7471,-3577.2335L13975.708,-3577.2497"/>
<path content="1,東武バスセントラル（株）,王30,2.0,2.0,2.0," xlink:title="1" d="M13975.708,-3577.8405L13975.7595,-3577.838L13975.7922,-3577.8364L13975.8093,-3577.8363L13975.8268,-3577.8337L13975.9631,-3577.8292L13976.0236,-3577.8271L13976.046,-3577.8267L13976.0537,-3577.8269L13976.0771,-3577.8278L13976.193,-3577.8278L13976.206,-3577.8279L13976.2197,-3577.8278L13976.3643,-3577.8264L13976.461,-3577.8271L13976.4648,-3577.827L13976.4801,-3577.8262L13976.5022,-3577.827L13976.5196,-3577.8271L13976.5377,-3577.8271L13976.6311,-3577.8265L13976.6422,-3577.8267L13976.6611,-3577.8265L13976.7243,-3577.8273L13976.8066,-3577.8257"/>
<path content="1,東武バスセントラル（株）,西01,63.0,44.0,44.0," xlink:title="1" d="M13976.8066,-3577.8257L13976.7243,-3577.8273L13976.6611,-3577.8265L13976.6422,-3577.8267L13976.6311,-3577.8265L13976.5377,-3577.8271L13976.5196,-3577.8271L13976.5022,-3577.827L13976.4801,-3577.8262L13976.4648,-3577.827L13976.461,-3577.8271L13976.3643,-3577.8264L13976.2197,-3577.8278L13976.206,-3577.8279L13976.193,-3577.8278L13976.0771,-3577.8278L13976.0537,-3577.8269L13976.046,-3577.8267L13976.0236,-3577.8271L13975.9631,-3577.8292L13975.8268,-3577.8337L13975.8093,-3577.8363L13975.7922,-3577.8364L13975.7595,-3577.838L13975.708,-3577.8405"/>
<path content="1,東野交通（株）,那須温泉～新宿駅新南口,3.0,3.0,3.0," xlink:title="1" d="M13975.9201,-3577.1484L13975.9179,-3577.1501L13975.8923,-3577.1658L13975.8895,-3577.1672L13975.8891,-3577.1674L13975.8882,-3577.1678L13975.8868,-3577.1685L13975.8829,-3577.1704L13975.8804,-3577.1716L13975.8784,-3577.1726L13975.8748,-3577.1744L13975.8698,-3577.1768L13975.8232,-3577.1997L13975.8123,-3577.2045L13975.8082,-3577.2063L13975.793,-3577.2131L13975.7471,-3577.2335L13975.708,-3577.2497"/>
<path content="1,江ノ電バス藤沢,レイク＆ポート号,1.0,1.0,1.0," xlink:title="1" d="M13975.9201,-3577.1484L13975.9179,-3577.1501L13975.8923,-3577.1658L13975.8895,-3577.1672L13975.8891,-3577.1674L13975.8882,-3577.1678L13975.8868,-3577.1685L13975.8829,-3577.1704L13975.8804,-3577.1716L13975.8784,-3577.1726L13975.8748,-3577.1744L13975.8698,-3577.1768L13975.8232,-3577.1997L13975.8123,-3577.2045L13975.8082,-3577.2063L13975.793,-3577.2131L13975.7471,-3577.2335L13975.708,-3577.2497"/>
<path content="1,福島交通（株）,福島駅東口～新宿駅新南口,4.0,4.0,4.0," xlink:title="1" d="M13975.9201,-3577.1484L13975.9179,-3577.1501L13975.8923,-3577.1658L13975.8895,-3577.1672L13975.8891,-3577.1674L13975.8882,-3577.1678L13975.8868,-3577.1685L13975.8829,-3577.1704L13975.8804,-3577.1716L13975.8784,-3577.1726L13975.8748,-3577.1744L13975.8698,-3577.1768L13975.8232,-3577.1997L13975.8123,-3577.2045L13975.8082,-3577.2063L13975.793,-3577.2131L13975.7471,-3577.2335L13975.708,-3577.2497"/>
<path content="1,福島交通（株）,福島高速バスターミナル～大阪あべの橋,1.0,1.0,1.0," xlink:title="1" d="M13975.9201,-3577.1484L13975.9179,-3577.1501L13975.8923,-3577.1658L13975.8895,-3577.1672L13975.8891,-3577.1674L13975.8882,-3577.1678L13975.8868,-3577.1685L13975.8829,-3577.1704L13975.8804,-3577.1716L13975.8784,-3577.1726L13975.8748,-3577.1744L13975.8698,-3577.1768L13975.8232,-3577.1997L13975.8123,-3577.2045L13975.8082,-3577.2063L13975.793,-3577.2131L13975.7471,-3577.2335L13975.708,-3577.2497"/>
<path content="1,秋北バス（株）,ジュピター号,1.0,1.0,1.0," xlink:title="1" d="M13975.9201,-3577.1484L13975.9179,-3577.1501L13975.8923,-3577.1658L13975.8895,-3577.1672L13975.8891,-3577.1674L13975.8882,-3577.1678L13975.8868,-3577.1685L13975.8829,-3577.1704L13975.8804,-3577.1716L13975.8784,-3577.1726L13975.8748,-3577.1744L13975.8698,-3577.1768L13975.8232,-3577.1997L13975.8123,-3577.2045L13975.8082,-3577.2063L13975.793,-3577.2131L13975.7471,-3577.2335L13975.708,-3577.2497"/>
<path content="1,秋田中央交通（株）,フローラ号,1.0,1.0,1.0," xlink:title="1" d="M13975.9201,-3577.1484L13975.9179,-3577.1501L13975.8923,-3577.1658L13975.8895,-3577.1672L13975.8891,-3577.1674L13975.8882,-3577.1678L13975.8868,-3577.1685L13975.8829,-3577.1704L13975.8804,-3577.1716L13975.8784,-3577.1726L13975.8748,-3577.1744L13975.8698,-3577.1768L13975.8232,-3577.1997L13975.8123,-3577.2045L13975.8082,-3577.2063L13975.793,-3577.2131L13975.7471,-3577.2335L13975.708,-3577.2497"/>
<path content="1,羽後交通（株）,ドリーム鳥海号,1.0,1.0,1.0," xlink:title="1" d="M13975.9201,-3577.1484L13975.9179,-3577.1501L13975.8923,-3577.1658L13975.8895,-3577.1672L13975.8891,-3577.1674L13975.8882,-3577.1678L13975.8868,-3577.1685L13975.8829,-3577.1704L13975.8804,-3577.1716L13975.8784,-3577.1726L13975.8748,-3577.1744L13975.8698,-3577.1768L13975.8232,-3577.1997L13975.8123,-3577.2045L13975.8082,-3577.2063L13975.793,-3577.2131L13975.7471,-3577.2335L13975.708,-3577.2497"/>
<path content="1,羽後交通（株）,レーク＆ポート号,1.0,1.0,1.0," xlink:title="1" d="M13975.708,-3577.2497L13975.7471,-3577.2335L13975.793,-3577.2131L13975.8082,-3577.2063L13975.8123,-3577.2045L13975.8232,-3577.1997L13975.8698,-3577.1768L13975.8748,-3577.1744L13975.8784,-3577.1726L13975.8804,-3577.1716L13975.8829,-3577.1704L13975.8868,-3577.1685L13975.8882,-3577.1678L13975.8891,-3577.1674L13975.8895,-3577.1672L13975.8923,-3577.1658L13975.9179,-3577.1501L13975.9201,-3577.1484"/>
<path content="1,近鉄バス（株）,大阪・京都⇔久喜・栃木・宇都宮,1.0,1.0,1.0," xlink:title="1" d="M13975.92,-3577.1484L13975.9178,-3577.1501L13975.8923,-3577.1658L13975.8231,-3577.1996L13975.7471,-3577.2335L13975.708,-3577.2496"/>
<path content="1,近鉄バス（株）,大阪・京都⇔仙台,1.0,1.0,1.0," xlink:title="1" d="M13975.92,-3577.1484L13975.9178,-3577.1501L13975.8923,-3577.1658L13975.8231,-3577.1996L13975.7471,-3577.2335L13975.708,-3577.2496"/>
<path content="1,近鉄バス（株）,大阪・京都⇔郡山・福島,1.0,1.0,1.0," xlink:title="1" d="M13975.92,-3577.1484L13975.9178,-3577.1501L13975.8923,-3577.1658L13975.8231,-3577.1996L13975.7471,-3577.2335L13975.708,-3577.2496"/>
<path content="1,関東自動車（株）,とちの木号,1.0,1.0,1.0," xlink:title="1" d="M13975.9201,-3577.1484L13975.9179,-3577.1501L13975.8923,-3577.1658L13975.8895,-3577.1672L13975.8891,-3577.1674L13975.8882,-3577.1678L13975.8868,-3577.1685L13975.8829,-3577.1704L13975.8804,-3577.1716L13975.8784,-3577.1726L13975.8748,-3577.1744L13975.8698,-3577.1768L13975.8232,-3577.1997L13975.8123,-3577.2045L13975.8082,-3577.2063L13975.793,-3577.2131L13975.7471,-3577.2335L13975.708,-3577.2497"/>
<path content="1,関東自動車（株）,マロニエ号　羽田空港,3.0,3.0,3.0," xlink:title="1" d="M13975.9201,-3577.1484L13975.9179,-3577.1501L13975.8923,-3577.1658L13975.8895,-3577.1672L13975.8891,-3577.1674L13975.8882,-3577.1678L13975.8868,-3577.1685L13975.8829,-3577.1704L13975.8804,-3577.1716L13975.8784,-3577.1726L13975.8748,-3577.1744L13975.8698,-3577.1768L13975.8232,-3577.1997L13975.8123,-3577.2045L13975.8082,-3577.2063L13975.793,-3577.2131L13975.7471,-3577.2335L13975.708,-3577.2497"/>
<path content="2,都営バス,東43,98.0,80.0,68.0," xlink:title="2" d="M13976.7527,-3577.1484L13976.8066,-3577.1813"/>
<path content="2,都営バス,王40甲,167.0,172.0,167.0," xlink:title="2" d="M13976.7527,-3577.1484L13976.8066,-3577.1813"/>
<path content="2,都営バス,王46,15.0,10.0,10.0," xlink:title="2" d="M13976.5911,-3577.1484L13976.5904,-3577.1617L13976.5807,-3577.2076L13976.5793,-3577.2132L13976.5786,-3577.2262L13976.5758,-3577.2447L13976.5744,-3577.2645L13976.5696,-3577.3051L13976.5711,-3577.3232L13976.5641,-3577.349L13976.5599,-3577.3783L13976.5565,-3577.4143L13976.5551,-3577.4183L13976.5544,-3577.4307L13976.5503,-3577.4577L13976.5344,-3577.5822L13976.5337,-3577.5924L13976.5281,-3577.6256L13976.528,-3577.6348L13976.5022,-3577.827L13976.5196,-3577.8271L13976.5377,-3577.8271L13976.6311,-3577.8265L13976.6422,-3577.8267L13976.6611,-3577.8265L13976.7243,-3577.8273L13976.8066,-3577.8257"/>
<path content="2,都営バス,王49,43.0,24.0,28.0," xlink:title="2" d="M13975.708,-3577.8405L13975.7595,-3577.838L13975.7922,-3577.8364L13975.8093,-3577.8363L13975.8268,-3577.8337L13975.9631,-3577.8292L13976.0236,-3577.8271L13976.046,-3577.8267L13976.0537,-3577.8269L13976.0771,-3577.8278L13976.193,-3577.8278L13976.206,-3577.8279L13976.2197,-3577.8278L13976.3643,-3577.8264L13976.461,-3577.8271L13976.4648,-3577.827L13976.4801,-3577.8262L13976.5022,-3577.827L13976.5196,-3577.8271L13976.5377,-3577.8271L13976.6311,-3577.8265L13976.6422,-3577.8267L13976.6611,-3577.8265L13976.7243,-3577.8273L13976.8066,-3577.8257"/>
<path content="2,都営バス,王49折返,23.0,24.0,18.0," xlink:title="2" d="M13976.8066,-3577.8257L13976.7243,-3577.8273L13976.6611,-3577.8265L13976.6422,-3577.8267L13976.6311,-3577.8265L13976.5377,-3577.8271L13976.5196,-3577.8271L13976.5022,-3577.827L13976.4801,-3577.8262L13976.4648,-3577.827L13976.461,-3577.8271L13976.3643,-3577.8264L13976.2197,-3577.8278L13976.206,-3577.8279L13976.193,-3577.8278L13976.0771,-3577.8278L13976.0537,-3577.8269L13976.046,-3577.8267L13976.0236,-3577.8271L13975.9631,-3577.8292L13975.8268,-3577.8337L13975.8093,-3577.8363L13975.7922,-3577.8364L13975.7595,-3577.838L13975.708,-3577.8405"/>
<path content="3,足立区,第六弾・鹿02,61.0,54.0,54.0," xlink:title="3" d="M13976.5911,-3577.1484L13976.5904,-3577.1617L13976.5807,-3577.2076L13976.5793,-3577.2132L13976.5786,-3577.2262L13976.5758,-3577.2447L13976.5744,-3577.2645L13976.5696,-3577.3051L13976.5711,-3577.3232L13976.5641,-3577.349L13976.5599,-3577.3783L13976.5565,-3577.4143L13976.5551,-3577.4183L13976.5544,-3577.4307L13976.5503,-3577.4577L13976.5344,-3577.5822L13976.5337,-3577.5924L13976.5281,-3577.6256L13976.528,-3577.6348L13976.5022,-3577.827L13976.5046,-3577.8814L13976.5079,-3577.9413L13976.5084,-3577.9499L13976.514,-3578.013L13976.515,-3578.0606L13976.5164,-3578.1098L13976.5164,-3578.1134L13976.5198,-3578.1891L13976.5205,-3578.2392L13976.5206,-3578.2471"/>
<path content="3,足立区,第十一弾・椿04,36.0,32.0,32.0," xlink:title="3" d="M13975.9405,-3577.1484L13975.8985,-3577.1766L13975.8708,-3577.1912L13975.8321,-3577.2104L13975.8356,-3577.2498L13975.8401,-3577.292L13975.839,-3577.3078L13975.8383,-3577.314L13975.8342,-3577.3231L13975.8252,-3577.3417L13975.8162,-3577.3484L13975.8138,-3577.3533L13975.8047,-3577.3621L13975.7249,-3577.4372L13975.708,-3577.455M13975.708,-3577.8405L13975.7595,-3577.838L13975.7922,-3577.8364L13975.8093,-3577.8363L13975.8268,-3577.8337L13975.9631,-3577.8292L13976.0236,-3577.8271L13976.046,-3577.8267L13976.0526,-3577.7986L13976.0625,-3577.775L13976.0685,-3577.7574L13976.0761,-3577.736L13976.0878,-3577.6966L13976.1003,-3577.6442L13976.1023,-3577.6341L13976.1054,-3577.6263L13976.1155,-3577.5738L13976.1224,-3577.5366L13976.1272,-3577.5067L13976.139,-3577.4064L13976.1458,-3577.367L13976.1514,-3577.3247L13976.1556,-3577.2988L13976.1646,-3577.2397L13976.1735,-3577.1802L13976.1759,-3577.1484"/>
</g>
</svg>
