<?xml version="1.0" encoding="UTF-8"?>
<svg  xmlns="http://www.w3.org/2000/svg" xmlns:xlink="http://www.w3.org/1999/xlink" xmlns:go="http://purl.org/svgmap/profile" property="N07_001,N07_002,N07_003,N07_004,N07_005,N07_006,N07_007" viewBox="13122.0703125 -3190.4296875 8.7890625 8.7890625" go:dataArea="13122.0703125 -3190.4296875 8.7890625 8.7890625" >
<metadata>
 <rdf:RDF xmlns:rdf="http://www.w3.org/1999/02/22-rdf-syntax-ns#" xmlns:crs="http://opengis.org/xmldtds/transformations.dtd" xmlns:svg="http://www.w3.org/svg" >
  <rdf:Description>
   <crs:CoordinateReferenceSystem rdf:resource="http://purl.org/crs/84" svg:transform="matrix(100.0,0.0,0.0,-100.0,0.0,0.0)" />
  </rdf:Description>
 </rdf:RDF>
</metadata>
<globalCoordinateSystem srsName="http://purl.org/crs/84" transform="matrix(100.0,0.0,0.0,-100.0,0.0,0.0)" />
<defs>
 <g id="p0" >
  <circle cx="0.0" cy="0.0" r="3" stroke="green" stroke-width="0.75" vector-effect="non-scaling-stroke" />
 </g>
</defs>
<g fill="none" fill-rule="evenodd" stroke="#FF00FF" stroke-width="0.75" opacity="0.5" vector-effect="non-scaling-stroke" stroke-linejoin="bevel" >
<path content="1,宮崎交通（株）,合又線,9.5,5.5,5.5," xlink:title="1" d="M13130.8594,-3183.5677L13130.8542,-3183.5646L13130.8306,-3183.5483L13130.8163,-3183.5398L13130.8061,-3183.5369L13130.7973,-3183.5372L13130.7936,-3183.5377L13130.7903,-3183.5386L13130.7758,-3183.546L13130.7645,-3183.5528L13130.7551,-3183.5599L13130.752,-3183.5658L13130.7471,-3183.5711L13130.7426,-3183.5741L13130.7324,-3183.5783L13130.7211,-3183.5818L13130.6972,-3183.5866L13130.6902,-3183.5869L13130.6696,-3183.5883L13130.6036,-3183.5883L13130.5681,-3183.5852L13130.5655,-3183.5849L13130.5627,-3183.5843L13130.5317,-3183.5804L13130.5106,-3183.5798L13130.4981,-3183.5815L13130.4869,-3183.5854L13130.4664,-3183.5984L13130.4499,-3183.6074L13130.4243,-3183.6211L13130.4017,-3183.6321L13130.3862,-3183.6385L13130.4199,-3183.6813L13130.4293,-3183.6946L13130.4636,-3183.7399L13130.4779,-3183.7526L13130.4682,-3183.7613L13130.4212,-3183.7932L13130.4174,-3183.7951L13130.3996,-3183.7996L13130.3487,-3183.8064L13130.3243,-3183.8086L13130.2695,-3183.8165L13130.2431,-3183.8199L13130.1371,-3183.8402L13130.0807,-3183.8452L13130.0266,-3183.8542L13129.9461,-3183.8644L13129.9091,-3183.87L13129.8592,-3183.8799L13129.8273,-3183.8813L13129.7926,-3183.8873L13129.6971,-3183.9142L13129.6444,-3183.9263L13129.6121,-3183.9371L13129.5705,-3183.9506L13129.5573,-3183.9534L13129.5457,-3183.9536L13129.5423,-3183.9537L13129.5302,-3183.9511L13129.5256,-3183.9494L13129.4781,-3183.9371L13129.4576,-3183.932L13129.4299,-3183.9252L13129.3939,-3183.917L13129.3872,-3183.9143L13129.385,-3183.9139L13129.3692,-3183.9089L13129.3632,-3183.8942L13129.3507,-3183.861L13129.3474,-3183.8519L13129.315,-3183.7996L13129.3091,-3183.7827L13129.2978,-3183.7791L13129.2896,-3183.7759L13129.2827,-3183.7719L13129.275,-3183.7661L13129.2391,-3183.7364L13129.2206,-3183.7246L13129.2127,-3183.7218L13129.1923,-3183.719L13129.1877,-3183.7185L13129.1741,-3183.7164L13129.1447,-3183.7161"/>
<path content="1,宮崎交通（株）,宮崎-長崎,1.0,1.0,1.0," xlink:title="1" d="M13130.8594,-3182.5092L13130.8354,-3182.4873L13130.7806,-3182.4395L13130.7239,-3182.3931L13130.6675,-3182.3511L13130.6086,-3182.311L13130.5501,-3182.2727L13130.4838,-3182.234L13130.4433,-3182.2116L13130.4392,-3182.2095L13130.4369,-3182.2084L13130.3741,-3182.1775L13130.3705,-3182.1758L13130.333,-3182.1583L13130.3231,-3182.154L13130.2576,-3182.1258L13130.1942,-3182.1028L13130.1368,-3182.0841L13130.0676,-3182.064L13129.9654,-3182.0376L13129.8574,-3182.0149L13129.7761,-3182.0006L13129.6648,-3181.9855L13129.6132,-3181.9805L13129.5546,-3181.9772L13129.5301,-3181.9768L13129.4496,-3181.9764L13129.3661,-3181.9783L13129.2673,-3181.9827L13129.1718,-3181.9904L13129.0864,-3181.9969L13128.9993,-3182.0064L13128.9397,-3182.0138L13128.8925,-3182.0204L13128.8169,-3182.0303L13128.739,-3182.0398L13128.6557,-3182.049L13128.6064,-3182.0537L13128.5731,-3182.0563L13128.4989,-3182.0596L13128.4269,-3182.0607L13128.3457,-3182.0577L13128.2601,-3182.0515L13128.175,-3182.0431L13128.0927,-3182.0339L13128.0094,-3182.0201L13127.9632,-3182.0113L13127.9217,-3182.0022L13127.8006,-3181.9737L13127.624,-3181.9263L13127.4625,-3181.8823L13127.3792,-3181.8618L13127.2969,-3181.8431L13127.2405,-3181.8348L13127.1925,-3181.8288L13127.1567,-3181.8244L13127.1171,-3181.82L13127.0713,-3181.8149L13127.0353,-3181.8127L13127.0064,-3181.8108L13126.9789,-3181.8097L13126.9474,-3181.8086L13126.9151,-3181.8079L13126.8818,-3181.8068L13126.8576,-3181.8068L13126.8191,-3181.8068L13126.781,-3181.8068L13126.7355,-3181.809L13126.7018,-3181.8112L13126.6633,-3181.8145L13126.6285,-3181.8174L13126.5995,-3181.8207L13126.5676,-3181.8244L13126.5314,-3181.8295L13126.5006,-3181.8354L13126.4705,-3181.8405L13126.4379,-3181.8468L13126.3979,-3181.8559L13126.3653,-3181.8636L13126.3301,-3181.8728L13126.2979,-3181.8801L13126.259,-3181.8908L13126.2172,-3181.9061L13126.1747,-3181.9193L13126.1381,-3181.9333L13126.108,-3181.945L13126.0791,-3181.9556L13126.0534,-3181.9648L13126.0241,-3181.9762L13125.9922,-3181.9868L13125.9555,-3181.9989L13125.924,-3182.0088L13125.8888,-3182.0209L13125.8613,-3182.0297L13125.8302,-3182.0396L13125.7972,-3182.0502L13125.7657,-3182.0594L13125.7268,-3182.0704L13125.6942,-3182.0791L13125.6656,-3182.0876L13125.6363,-3182.0956L13125.6081,-3182.1041L13125.5805,-3182.1106L13125.5557,-3182.1184L13125.5227,-3182.1272L13125.4856,-3182.1363L13125.4512,-3182.1451L13125.4222,-3182.1525L13125.3947,-3182.1587L13125.3629,-3182.1667L13125.3317,-3182.1741L13125.2987,-3182.1807L13125.2639,-3182.1876L13125.2313,-3182.1942L13125.2027,-3182.199L13125.1734,-3182.2038L13125.1374,-3182.21L13125.1011,-3182.2151L13125.0572,-3182.2206L13125.0223,-3182.2254L13124.9886,-3182.2298L13124.9597,-3182.2327L13124.9281,-3182.2364L13124.9014,-3182.239L13124.8658,-3182.243L13124.8259,-3182.2463L13124.787,-3182.2489L13124.7467,-3182.2507L13124.7119,-3182.2529L13124.6829,-3182.2547L13124.654,-3182.2566L13124.6203,-3182.2584L13124.5807,-3182.2617L13124.5437,-3182.2639L13124.5066,-3182.2668L13124.4685,-3182.2697L13124.4355,-3182.2719L13124.4018,-3182.2745L13124.3706,-3182.2771L13124.3358,-3182.2796L13124.305,-3182.2815L13124.2662,-3182.2848L13124.2287,-3182.286L13124.2017,-3182.2873L13124.1766,-3182.2882L13124.1332,-3182.2912L13124.1,-3182.2925L13124.0622,-3182.2951L13124.0277,-3182.2977L13124.0016,-3182.299L13123.9749,-3182.2997L13123.9176,-3182.3048L13123.8661,-3182.3075L13123.8179,-3182.3121L13123.7748,-3182.314L13123.6911,-3182.3196L13123.6607,-3182.3207L13123.613,-3182.3233L13123.5745,-3182.3258L13123.5375,-3182.3277L13123.502,-3182.3299L13123.4627,-3182.3321L13123.4309,-3182.3346L13123.403,-3182.3365L13123.3729,-3182.339L13123.3462,-3182.3412L13123.3055,-3182.342L13123.2718,-3182.3442L13123.2377,-3182.3467L13123.2098,-3182.3489L13123.164,-3182.3507L13123.1123,-3182.3529L13123.0651,-3182.3548L13123.0152,-3182.3555L13122.9665,-3182.3573L13122.925,-3182.3588L13122.9005,-3182.3592L13122.8645,-3182.359L13122.8252,-3182.3604L13122.7766,-3182.3583L13122.7297,-3182.3577L13122.6808,-3182.3577L13122.6352,-3182.3564L13122.5896,-3182.3538L13122.5492,-3182.3505L13122.4983,-3182.3446L13122.4579,-3182.3394L13122.4292,-3182.3364L13122.4129,-3182.3306L13122.3813,-3182.3251L13122.3561,-3182.3206L13122.3395,-3182.3177L13122.3053,-3182.3108L13122.2775,-3182.3029L13122.2625,-3182.2983L13122.2326,-3182.2892L13122.2231,-3182.2863L13122.1845,-3182.2738L13122.1308,-3182.2529L13122.1068,-3182.2438L13122.0886,-3182.2345L13122.0703,-3182.2264"/>
<path content="1,宮崎交通（株）,宮崎-鹿児島,7.0,7.0,7.0," xlink:title="1" d="M13122.0703,-3182.2264L13122.0886,-3182.2345L13122.1068,-3182.2438L13122.1308,-3182.2529L13122.1845,-3182.2738L13122.2231,-3182.2863L13122.2326,-3182.2892L13122.2625,-3182.2983L13122.2775,-3182.3029L13122.3053,-3182.3108L13122.3395,-3182.3177L13122.3561,-3182.3206L13122.3813,-3182.3251L13122.4129,-3182.3306L13122.4292,-3182.3364L13122.4579,-3182.3394L13122.4983,-3182.3446L13122.5492,-3182.3505L13122.5896,-3182.3538L13122.6352,-3182.3564L13122.6808,-3182.3577L13122.7297,-3182.3577L13122.7766,-3182.3583L13122.8252,-3182.3604L13122.8645,-3182.359L13122.9005,-3182.3592L13122.925,-3182.3588L13122.9665,-3182.3573L13123.0152,-3182.3555L13123.0651,-3182.3548L13123.1123,-3182.3529L13123.164,-3182.3507L13123.2098,-3182.3489L13123.2377,-3182.3467L13123.2718,-3182.3442L13123.3055,-3182.342L13123.3462,-3182.3412L13123.3729,-3182.339L13123.403,-3182.3365L13123.4309,-3182.3346L13123.4627,-3182.3321L13123.502,-3182.3299L13123.5375,-3182.3277L13123.5745,-3182.3258L13123.613,-3182.3233L13123.6607,-3182.3207L13123.6911,-3182.3196L13123.7748,-3182.314L13123.8179,-3182.3121L13123.8661,-3182.3075L13123.9176,-3182.3048L13123.9749,-3182.2997L13124.0016,-3182.299L13124.0277,-3182.2977L13124.0622,-3182.2951L13124.1,-3182.2925L13124.1332,-3182.2912L13124.1766,-3182.2882L13124.2017,-3182.2873L13124.2287,-3182.286L13124.2662,-3182.2848L13124.305,-3182.2815L13124.3358,-3182.2796L13124.3706,-3182.2771L13124.4018,-3182.2745L13124.4355,-3182.2719L13124.4685,-3182.2697L13124.5066,-3182.2668L13124.5437,-3182.2639L13124.5807,-3182.2617L13124.6203,-3182.2584L13124.654,-3182.2566L13124.6829,-3182.2547L13124.7119,-3182.2529L13124.7467,-3182.2507L13124.787,-3182.2489L13124.8259,-3182.2463L13124.8658,-3182.243L13124.9014,-3182.239L13124.9281,-3182.2364L13124.9597,-3182.2327L13124.9886,-3182.2298L13125.0223,-3182.2254L13125.0572,-3182.2206L13125.1011,-3182.2151L13125.1374,-3182.21L13125.1734,-3182.2038L13125.2027,-3182.199L13125.2313,-3182.1942L13125.2639,-3182.1876L13125.2987,-3182.1807L13125.3317,-3182.1741L13125.3629,-3182.1667L13125.3947,-3182.1587L13125.4222,-3182.1525L13125.4512,-3182.1451L13125.4856,-3182.1363L13125.5227,-3182.1272L13125.5557,-3182.1184L13125.5805,-3182.1106L13125.6081,-3182.1041L13125.6363,-3182.0956L13125.6656,-3182.0876L13125.6942,-3182.0791L13125.7268,-3182.0704L13125.7657,-3182.0594L13125.7972,-3182.0502L13125.8302,-3182.0396L13125.8613,-3182.0297L13125.8888,-3182.0209L13125.924,-3182.0088L13125.9555,-3181.9989L13125.9922,-3181.9868L13126.0241,-3181.9762L13126.0534,-3181.9648L13126.0791,-3181.9556L13126.108,-3181.945L13126.1381,-3181.9333L13126.1747,-3181.9193L13126.2172,-3181.9061L13126.259,-3181.8908L13126.2979,-3181.8801L13126.3301,-3181.8728L13126.3653,-3181.8636L13126.3979,-3181.8559L13126.4379,-3181.8468L13126.4705,-3181.8405L13126.5006,-3181.8354L13126.5314,-3181.8295L13126.5676,-3181.8244L13126.5995,-3181.8207L13126.6285,-3181.8174L13126.6633,-3181.8145L13126.7018,-3181.8112L13126.7355,-3181.809L13126.781,-3181.8068L13126.8191,-3181.8068L13126.8576,-3181.8068L13126.8818,-3181.8068L13126.9151,-3181.8079L13126.9474,-3181.8086L13126.9789,-3181.8097L13127.0064,-3181.8108L13127.0353,-3181.8127L13127.0713,-3181.8149L13127.1171,-3181.82L13127.1567,-3181.8244L13127.1925,-3181.8288L13127.2405,-3181.8348L13127.2969,-3181.8431L13127.3792,-3181.8618L13127.4625,-3181.8823L13127.624,-3181.9263L13127.8006,-3181.9737L13127.9217,-3182.0022L13127.9632,-3182.0113L13128.0094,-3182.0201L13128.0927,-3182.0339L13128.175,-3182.0431L13128.2601,-3182.0515L13128.3457,-3182.0577L13128.4269,-3182.0607L13128.4989,-3182.0596L13128.5731,-3182.0563L13128.6064,-3182.0537L13128.6557,-3182.049L13128.739,-3182.0398L13128.8169,-3182.0303L13128.8925,-3182.0204L13128.9397,-3182.0138L13128.9993,-3182.0064L13129.0864,-3181.9969L13129.1718,-3181.9904L13129.2673,-3181.9827L13129.3661,-3181.9783L13129.4496,-3181.9764L13129.5301,-3181.9768L13129.5546,-3181.9772L13129.6132,-3181.9805L13129.6648,-3181.9855L13129.7761,-3182.0006L13129.8574,-3182.0149L13129.9654,-3182.0376L13130.0676,-3182.064L13130.1368,-3182.0841L13130.1942,-3182.1028L13130.2576,-3182.1258L13130.3231,-3182.154L13130.333,-3182.1583L13130.3705,-3182.1758L13130.3741,-3182.1775L13130.4369,-3182.2084L13130.4392,-3182.2095L13130.4433,-3182.2116L13130.4838,-3182.234L13130.5501,-3182.2727L13130.6086,-3182.311L13130.6675,-3182.3511L13130.7239,-3182.3931L13130.7806,-3182.4395L13130.8354,-3182.4873L13130.8594,-3182.5092"/>
<path content="1,宮崎交通（株）,宮崎駅前-西都城駅前,22.0,21.5,21.5," xlink:title="1" d="M13122.0703,-3182.2264L13122.0886,-3182.2345L13122.1068,-3182.2438L13122.1308,-3182.2529L13122.1845,-3182.2738L13122.2231,-3182.2863L13122.2775,-3182.3029L13122.3053,-3182.3108L13122.3395,-3182.3177L13122.3813,-3182.3251L13122.4129,-3182.3306L13122.4579,-3182.3394L13122.4983,-3182.3446L13122.5326,-3182.3478L13122.5492,-3182.3505L13122.5896,-3182.3538L13122.6665,-3182.3578L13122.7297,-3182.3577L13122.7766,-3182.3583L13122.8252,-3182.3604L13122.8645,-3182.359L13122.9005,-3182.3592L13122.9665,-3182.3573L13123.0651,-3182.3548L13123.1123,-3182.3529L13123.164,-3182.3507L13123.2098,-3182.3489L13123.3055,-3182.342L13123.3729,-3182.339L13123.6911,-3182.3196L13123.8661,-3182.3075L13124.0622,-3182.2951L13124.2017,-3182.2873L13124.3358,-3182.2796L13124.5437,-3182.2639L13124.7467,-3182.2507L13124.8259,-3182.2463L13124.8658,-3182.243L13124.9886,-3182.2298L13125.0223,-3182.2254L13125.0572,-3182.2206L13125.1011,-3182.2151L13125.1734,-3182.2038L13125.2313,-3182.1942L13125.3317,-3182.1741L13125.4222,-3182.1525L13125.4512,-3182.1451L13125.4856,-3182.1363L13125.5227,-3182.1272L13125.5557,-3182.1184L13125.5805,-3182.1106L13125.6081,-3182.1041L13125.6656,-3182.0876L13125.7657,-3182.0594L13125.8302,-3182.0396L13125.9555,-3181.9989L13126.0534,-3181.9648L13126.1381,-3181.9333L13126.1747,-3181.9193L13126.259,-3181.8908L13126.2979,-3181.8801L13126.3653,-3181.8636L13126.3979,-3181.8559L13126.4705,-3181.8405L13126.5676,-3181.8244L13126.6285,-3181.8174L13126.7018,-3181.8112L13126.8191,-3181.8068L13126.9151,-3181.8079L13127.0064,-3181.8108L13127.1171,-3181.82L13127.1925,-3181.8288L13127.2429,-3181.8351L13127.2992,-3181.8434L13127.3815,-3181.8623L13127.4625,-3181.8823L13127.624,-3181.9263L13127.8006,-3181.9737L13127.9217,-3182.0022L13127.9632,-3182.0113L13128.0094,-3182.0201L13128.0927,-3182.0339L13128.175,-3182.0431L13128.2601,-3182.0515L13128.3457,-3182.0577L13128.4269,-3182.0607L13128.4989,-3182.0596L13128.5731,-3182.0563L13128.6064,-3182.0537L13128.6557,-3182.049L13128.739,-3182.0398L13128.8169,-3182.0303L13128.8925,-3182.0204L13128.9397,-3182.0138L13128.9993,-3182.0064L13129.0864,-3181.9969L13129.1718,-3181.9904L13129.2673,-3181.9827L13129.3661,-3181.9783L13129.4496,-3181.9764L13129.5301,-3181.9768L13129.5546,-3181.9772L13129.6132,-3181.9805L13129.6648,-3181.9855L13129.7761,-3182.0006L13129.8574,-3182.0149L13129.9654,-3182.0376L13130.0676,-3182.064L13130.1368,-3182.0841L13130.1942,-3182.1028L13130.2576,-3182.1258L13130.3231,-3182.154L13130.333,-3182.1583L13130.3705,-3182.1758L13130.3741,-3182.1775L13130.4369,-3182.2084L13130.4392,-3182.2095L13130.4433,-3182.2116L13130.4838,-3182.234L13130.5501,-3182.2727L13130.6086,-3182.311L13130.6675,-3182.3511L13130.7239,-3182.3931L13130.7806,-3182.4395L13130.8354,-3182.4873L13130.8594,-3182.5092"/>
<path content="1,宮崎交通（株）,宮崎～熊本（なんぷう号ノンストップ）,4.0,4.0,4.0," xlink:title="1" d="M13130.8594,-3182.5092L13130.8354,-3182.4873L13130.7806,-3182.4395L13130.7239,-3182.3931L13130.6675,-3182.3511L13130.6086,-3182.311L13130.5501,-3182.2727L13130.4838,-3182.234L13130.4433,-3182.2116L13130.4392,-3182.2095L13130.4369,-3182.2084L13130.3741,-3182.1775L13130.3705,-3182.1758L13130.333,-3182.1583L13130.3231,-3182.154L13130.2576,-3182.1258L13130.1942,-3182.1028L13130.1368,-3182.0841L13130.0676,-3182.064L13129.9654,-3182.0376L13129.8574,-3182.0149L13129.7761,-3182.0006L13129.6648,-3181.9855L13129.6132,-3181.9805L13129.5546,-3181.9772L13129.5301,-3181.9768L13129.4496,-3181.9764L13129.3661,-3181.9783L13129.2673,-3181.9827L13129.1718,-3181.9904L13129.0864,-3181.9969L13128.9993,-3182.0064L13128.9397,-3182.0138L13128.8925,-3182.0204L13128.8169,-3182.0303L13128.739,-3182.0398L13128.6557,-3182.049L13128.6064,-3182.0537L13128.5731,-3182.0563L13128.4989,-3182.0596L13128.4269,-3182.0607L13128.3457,-3182.0577L13128.2601,-3182.0515L13128.175,-3182.0431L13128.0927,-3182.0339L13128.0094,-3182.0201L13127.9632,-3182.0113L13127.9217,-3182.0022L13127.8006,-3181.9737L13127.624,-3181.9263L13127.4625,-3181.8823L13127.3792,-3181.8618L13127.2969,-3181.8431L13127.2405,-3181.8348L13127.1925,-3181.8288L13127.1567,-3181.8244L13127.1171,-3181.82L13127.0713,-3181.8149L13127.0353,-3181.8127L13127.0064,-3181.8108L13126.9789,-3181.8097L13126.9474,-3181.8086L13126.9151,-3181.8079L13126.8818,-3181.8068L13126.8576,-3181.8068L13126.8191,-3181.8068L13126.781,-3181.8068L13126.7355,-3181.809L13126.7018,-3181.8112L13126.6633,-3181.8145L13126.6285,-3181.8174L13126.5995,-3181.8207L13126.5676,-3181.8244L13126.5314,-3181.8295L13126.5006,-3181.8354L13126.4705,-3181.8405L13126.4379,-3181.8468L13126.3979,-3181.8559L13126.3653,-3181.8636L13126.3301,-3181.8728L13126.2979,-3181.8801L13126.259,-3181.8908L13126.2172,-3181.9061L13126.1747,-3181.9193L13126.1381,-3181.9333L13126.108,-3181.945L13126.0791,-3181.9556L13126.0534,-3181.9648L13126.0241,-3181.9762L13125.9922,-3181.9868L13125.9555,-3181.9989L13125.924,-3182.0088L13125.8888,-3182.0209L13125.8613,-3182.0297L13125.8302,-3182.0396L13125.7972,-3182.0502L13125.7657,-3182.0594L13125.7268,-3182.0704L13125.6942,-3182.0791L13125.6656,-3182.0876L13125.6363,-3182.0956L13125.6081,-3182.1041L13125.5805,-3182.1106L13125.5557,-3182.1184L13125.5227,-3182.1272L13125.4856,-3182.1363L13125.4512,-3182.1451L13125.4222,-3182.1525L13125.3947,-3182.1587L13125.3629,-3182.1667L13125.3317,-3182.1741L13125.2987,-3182.1807L13125.2639,-3182.1876L13125.2313,-3182.1942L13125.2027,-3182.199L13125.1734,-3182.2038L13125.1374,-3182.21L13125.1011,-3182.2151L13125.0572,-3182.2206L13125.0223,-3182.2254L13124.9886,-3182.2298L13124.9597,-3182.2327L13124.9281,-3182.2364L13124.9014,-3182.239L13124.8658,-3182.243L13124.8259,-3182.2463L13124.787,-3182.2489L13124.7467,-3182.2507L13124.7119,-3182.2529L13124.6829,-3182.2547L13124.654,-3182.2566L13124.6203,-3182.2584L13124.5807,-3182.2617L13124.5437,-3182.2639L13124.5066,-3182.2668L13124.4685,-3182.2697L13124.4355,-3182.2719L13124.4018,-3182.2745L13124.3706,-3182.2771L13124.3358,-3182.2796L13124.305,-3182.2815L13124.2662,-3182.2848L13124.2287,-3182.286L13124.2017,-3182.2873L13124.1766,-3182.2882L13124.1332,-3182.2912L13124.1,-3182.2925L13124.0622,-3182.2951L13124.0277,-3182.2977L13124.0016,-3182.299L13123.9749,-3182.2997L13123.9176,-3182.3048L13123.8661,-3182.3075L13123.8179,-3182.3121L13123.7748,-3182.314L13123.6911,-3182.3196L13123.6607,-3182.3207L13123.613,-3182.3233L13123.5745,-3182.3258L13123.5375,-3182.3277L13123.502,-3182.3299L13123.4627,-3182.3321L13123.4309,-3182.3346L13123.403,-3182.3365L13123.3729,-3182.339L13123.3462,-3182.3412L13123.3055,-3182.342L13123.2718,-3182.3442L13123.2377,-3182.3467L13123.2098,-3182.3489L13123.164,-3182.3507L13123.1123,-3182.3529L13123.0651,-3182.3548L13123.0152,-3182.3555L13122.9665,-3182.3573L13122.925,-3182.3588L13122.9005,-3182.3592L13122.8645,-3182.359L13122.8252,-3182.3604L13122.7766,-3182.3583L13122.7297,-3182.3577L13122.6808,-3182.3577L13122.6352,-3182.3564L13122.5896,-3182.3538L13122.5492,-3182.3505L13122.4983,-3182.3446L13122.4579,-3182.3394L13122.4292,-3182.3364L13122.4129,-3182.3306L13122.3813,-3182.3251L13122.3561,-3182.3206L13122.3395,-3182.3177L13122.3053,-3182.3108L13122.2775,-3182.3029L13122.2625,-3182.2983L13122.2326,-3182.2892L13122.2231,-3182.2863L13122.1845,-3182.2738L13122.1308,-3182.2529L13122.1068,-3182.2438L13122.0886,-3182.2345L13122.0703,-3182.2264"/>
<path content="1,宮崎交通（株）,宮崎～福岡（スーパーフェニックス号）,4.0,4.0,4.0," xlink:title="1" d="M13130.8594,-3182.5092L13130.8354,-3182.4873L13130.7806,-3182.4395L13130.7239,-3182.3931L13130.6675,-3182.3511L13130.6086,-3182.311L13130.5501,-3182.2727L13130.4838,-3182.234L13130.4433,-3182.2116L13130.4392,-3182.2095L13130.4369,-3182.2084L13130.3741,-3182.1775L13130.3705,-3182.1758L13130.333,-3182.1583L13130.3231,-3182.154L13130.2576,-3182.1258L13130.1942,-3182.1028L13130.1368,-3182.0841L13130.0676,-3182.064L13129.9654,-3182.0376L13129.8574,-3182.0149L13129.7761,-3182.0006L13129.6648,-3181.9855L13129.6132,-3181.9805L13129.5546,-3181.9772L13129.5301,-3181.9768L13129.4496,-3181.9764L13129.3661,-3181.9783L13129.2673,-3181.9827L13129.1718,-3181.9904L13129.0864,-3181.9969L13128.9993,-3182.0064L13128.9397,-3182.0138L13128.8925,-3182.0204L13128.8169,-3182.0303L13128.739,-3182.0398L13128.6557,-3182.049L13128.6064,-3182.0537L13128.5731,-3182.0563L13128.4989,-3182.0596L13128.4269,-3182.0607L13128.3457,-3182.0577L13128.2601,-3182.0515L13128.175,-3182.0431L13128.0927,-3182.0339L13128.0094,-3182.0201L13127.9632,-3182.0113L13127.9217,-3182.0022L13127.8006,-3181.9737L13127.624,-3181.9263L13127.4625,-3181.8823L13127.3792,-3181.8618L13127.2969,-3181.8431L13127.2405,-3181.8348L13127.1925,-3181.8288L13127.1567,-3181.8244L13127.1171,-3181.82L13127.0713,-3181.8149L13127.0353,-3181.8127L13127.0064,-3181.8108L13126.9789,-3181.8097L13126.9474,-3181.8086L13126.9151,-3181.8079L13126.8818,-3181.8068L13126.8576,-3181.8068L13126.8191,-3181.8068L13126.781,-3181.8068L13126.7355,-3181.809L13126.7018,-3181.8112L13126.6633,-3181.8145L13126.6285,-3181.8174L13126.5995,-3181.8207L13126.5676,-3181.8244L13126.5314,-3181.8295L13126.5006,-3181.8354L13126.4705,-3181.8405L13126.4379,-3181.8468L13126.3979,-3181.8559L13126.3653,-3181.8636L13126.3301,-3181.8728L13126.2979,-3181.8801L13126.259,-3181.8908L13126.2172,-3181.9061L13126.1747,-3181.9193L13126.1381,-3181.9333L13126.108,-3181.945L13126.0791,-3181.9556L13126.0534,-3181.9648L13126.0241,-3181.9762L13125.9922,-3181.9868L13125.9555,-3181.9989L13125.924,-3182.0088L13125.8888,-3182.0209L13125.8613,-3182.0297L13125.8302,-3182.0396L13125.7972,-3182.0502L13125.7657,-3182.0594L13125.7268,-3182.0704L13125.6942,-3182.0791L13125.6656,-3182.0876L13125.6363,-3182.0956L13125.6081,-3182.1041L13125.5805,-3182.1106L13125.5557,-3182.1184L13125.5227,-3182.1272L13125.4856,-3182.1363L13125.4512,-3182.1451L13125.4222,-3182.1525L13125.3947,-3182.1587L13125.3629,-3182.1667L13125.3317,-3182.1741L13125.2987,-3182.1807L13125.2639,-3182.1876L13125.2313,-3182.1942L13125.2027,-3182.199L13125.1734,-3182.2038L13125.1374,-3182.21L13125.1011,-3182.2151L13125.0572,-3182.2206L13125.0223,-3182.2254L13124.9886,-3182.2298L13124.9597,-3182.2327L13124.9281,-3182.2364L13124.9014,-3182.239L13124.8658,-3182.243L13124.8259,-3182.2463L13124.787,-3182.2489L13124.7467,-3182.2507L13124.7119,-3182.2529L13124.6829,-3182.2547L13124.654,-3182.2566L13124.6203,-3182.2584L13124.5807,-3182.2617L13124.5437,-3182.2639L13124.5066,-3182.2668L13124.4685,-3182.2697L13124.4355,-3182.2719L13124.4018,-3182.2745L13124.3706,-3182.2771L13124.3358,-3182.2796L13124.305,-3182.2815L13124.2662,-3182.2848L13124.2287,-3182.286L13124.2017,-3182.2873L13124.1766,-3182.2882L13124.1332,-3182.2912L13124.1,-3182.2925L13124.0622,-3182.2951L13124.0277,-3182.2977L13124.0016,-3182.299L13123.9749,-3182.2997L13123.9176,-3182.3048L13123.8661,-3182.3075L13123.8179,-3182.3121L13123.7748,-3182.314L13123.6911,-3182.3196L13123.6607,-3182.3207L13123.613,-3182.3233L13123.5745,-3182.3258L13123.5375,-3182.3277L13123.502,-3182.3299L13123.4627,-3182.3321L13123.4309,-3182.3346L13123.403,-3182.3365L13123.3729,-3182.339L13123.3462,-3182.3412L13123.3055,-3182.342L13123.2718,-3182.3442L13123.2377,-3182.3467L13123.2098,-3182.3489L13123.164,-3182.3507L13123.1123,-3182.3529L13123.0651,-3182.3548L13123.0152,-3182.3555L13122.9665,-3182.3573L13122.925,-3182.3588L13122.9005,-3182.3592L13122.8645,-3182.359L13122.8252,-3182.3604L13122.7766,-3182.3583L13122.7297,-3182.3577L13122.6808,-3182.3577L13122.6352,-3182.3564L13122.5896,-3182.3538L13122.5492,-3182.3505L13122.4983,-3182.3446L13122.4579,-3182.3394L13122.4292,-3182.3364L13122.4129,-3182.3306L13122.3813,-3182.3251L13122.3561,-3182.3206L13122.3395,-3182.3177L13122.3053,-3182.3108L13122.2775,-3182.3029L13122.2625,-3182.2983L13122.2326,-3182.2892L13122.2231,-3182.2863L13122.1845,-3182.2738L13122.1308,-3182.2529L13122.1068,-3182.2438L13122.0886,-3182.2345L13122.0703,-3182.2264"/>
<path content="1,宮崎交通（株）,田野線,7.5,6.5,6.5," xlink:title="1" d="M13130.8594,-3183.5677L13130.8542,-3183.5646L13130.8307,-3183.5483L13130.8163,-3183.5398L13130.8061,-3183.5369L13130.7973,-3183.5372L13130.7936,-3183.5377L13130.7903,-3183.5386L13130.7757,-3183.546L13130.7645,-3183.5528L13130.7551,-3183.5599L13130.752,-3183.5658L13130.7471,-3183.5711L13130.7426,-3183.5742L13130.7324,-3183.5783L13130.7211,-3183.5818L13130.6973,-3183.5866L13130.6902,-3183.5869L13130.6696,-3183.5883L13130.6036,-3183.5883L13130.5681,-3183.5852L13130.5655,-3183.5849L13130.5627,-3183.5843L13130.5317,-3183.5804L13130.5106,-3183.5798L13130.4981,-3183.5815L13130.4869,-3183.5855L13130.4664,-3183.5984L13130.4499,-3183.6074L13130.4243,-3183.6211L13130.4017,-3183.6321L13130.3862,-3183.6385L13130.42,-3183.6813L13130.4293,-3183.6946L13130.4636,-3183.7399L13130.4779,-3183.7526L13130.4682,-3183.7613L13130.4212,-3183.7932L13130.4174,-3183.7951L13130.3996,-3183.7996L13130.3487,-3183.8064L13130.3243,-3183.8086L13130.2695,-3183.8165L13130.2431,-3183.8199L13130.1371,-3183.8402L13130.0807,-3183.8452L13130.0266,-3183.8542L13129.9461,-3183.8644L13129.9091,-3183.87L13129.8592,-3183.8799L13129.8273,-3183.8813L13129.7926,-3183.8873L13129.6971,-3183.9142L13129.6444,-3183.9263L13129.6121,-3183.9371L13129.5705,-3183.9506L13129.5573,-3183.9534L13129.5457,-3183.9536L13129.5423,-3183.9537L13129.5302,-3183.9511L13129.5256,-3183.9494L13129.4781,-3183.9371L13129.4576,-3183.932L13129.4299,-3183.9252L13129.3939,-3183.917L13129.3872,-3183.9143L13129.385,-3183.9139L13129.3692,-3183.9089L13129.3632,-3183.8942L13129.3507,-3183.861L13129.3507,-3183.861L13129.3474,-3183.852L13129.315,-3183.7996L13129.315,-3183.7996L13129.3091,-3183.7827L13129.2978,-3183.7791L13129.2896,-3183.7759L13129.2828,-3183.7719L13129.275,-3183.7662L13129.2392,-3183.7365L13129.2207,-3183.7246L13129.2127,-3183.7218L13129.1923,-3183.719L13129.1877,-3183.7185L13129.1741,-3183.7164L13129.1674,-3183.7154L13129.1447,-3183.7161L13129.1254,-3183.7091L13129.1165,-3183.7078L13129.0912,-3183.7031L13129.0812,-3183.7004L13129.0609,-3183.6948L13129.058,-3183.6941L13129.0464,-3183.6908L13129.0404,-3183.6886L13129.0339,-3183.685L13129.0285,-3183.6812L13129.0159,-3183.669L13129.0084,-3183.6608L13128.9992,-3183.6441L13128.9924,-3183.6327L13128.9793,-3183.6181L13128.9651,-3183.606L13128.9559,-3183.5995L13128.9476,-3183.5954L13128.936,-3183.5906L13128.9291,-3183.5854L13128.9225,-3183.5792L13128.9186,-3183.5725L13128.9186,-3183.5724L13128.9113,-3183.5285L13128.9054,-3183.4907L13128.903,-3183.4796L13128.9007,-3183.4682L13128.8991,-3183.4582L13128.8971,-3183.4532L13128.8843,-3183.431L13128.8662,-3183.4013L13128.8613,-3183.3955L13128.858,-3183.3925L13128.8474,-3183.3848L13128.8313,-3183.3742L13128.8205,-3183.3684L13128.8058,-3183.3605L13128.763,-3183.3403L13128.7239,-3183.3236L13128.7081,-3183.3175L13128.6893,-3183.313L13128.6705,-3183.3086L13128.6376,-3183.3048L13128.606,-3183.3025L13128.5698,-3183.3025L13128.5585,-3183.3009L13128.5477,-3183.3025L13128.5477,-3183.3025L13128.5393,-3183.3025L13128.5077,-3183.3042L13128.4754,-3183.3092L13128.4497,-3183.316L13128.4394,-3183.3186L13128.4295,-3183.3218L13128.4187,-3183.3259L13128.3753,-3183.3429L13128.3698,-3183.3452L13128.3175,-3183.3679L13128.2849,-3183.3818L13128.2183,-3183.4112L13128.2164,-3183.4121L13128.2114,-3183.414L13128.2109,-3183.414L13128.1994,-3183.4159L13128.19,-3183.4136L13128.1839,-3183.4118L13128.1779,-3183.4087L13128.1694,-3183.4028L13128.1351,-3183.3746L13128.1041,-3183.3521L13128.0579,-3183.3267L13128.0019,-3183.2991L13127.9478,-3183.2721L13127.9115,-3183.2523L13127.8752,-3183.227L13127.8495,-3183.2039L13127.7908,-3183.1413L13127.7473,-3183.0945L13127.6794,-3183.0297L13127.6668,-3183.0128L13127.6453,-3182.9992L13127.6385,-3182.9931L13127.6303,-3182.9872L13127.6229,-3182.9825L13127.6087,-3182.9766L13127.5961,-3182.9729L13127.5859,-3182.9705L13127.5725,-3182.9666L13127.5415,-3182.957L13127.4452,-3182.9333L13127.407,-3182.9232L13127.3773,-3182.9153L13127.3219,-3182.9012L13127.3125,-3182.8986L13127.3003,-3182.8959L13127.2817,-3182.895L13127.2565,-3182.8946L13127.2434,-3182.895L13127.2279,-3182.8962L13127.2074,-3182.8997L13127.2004,-3182.9039L13127.1883,-3182.9086L13127.1742,-3182.9176L13127.1537,-3182.9361L13127.1366,-3182.9525L13127.1228,-3182.9615L13127.1063,-3182.9694L13127.0924,-3182.9727L13127.0726,-3182.9727L13127.0396,-3182.9699L13126.9473,-3182.9638L13126.9241,-3182.9624L13126.9083,-3182.9626L13126.8919,-3182.9638L13126.8715,-3182.9677L13126.8524,-3182.9722L13126.8069,-3182.9916L13126.784,-3183.0043L13126.7745,-3183.0099L13126.7646,-3183.0167L13126.7442,-3183.0342L13126.7119,-3183.0669L13126.6899,-3183.0903L13126.6373,-3183.1463L13126.5991,-3183.1874L13126.5812,-3183.2105L13126.5746,-3183.222L13126.5666,-3183.2408L13126.5647,-3183.2432L13126.5544,-3183.2531L13126.5512,-3183.2568L13126.5511,-3183.2568L13126.5371,-3183.2709L13126.4968,-3183.3121L13126.4725,-3183.3362L13126.4459,-3183.3639L13126.4378,-3183.3704L13126.3933,-3183.4146L13126.3734,-3183.4344L13126.3693,-3183.4383L13126.3636,-3183.4433L13126.3419,-3183.4613L13126.3315,-3183.4682L13126.3234,-3183.4726L13126.3083,-3183.4788L13126.2882,-3183.4842L13126.2686,-3183.4867L13126.2499,-3183.4904L13126.2302,-3183.493L13126.2078,-3183.4969L13126.1892,-3183.5007L13126.1759,-3183.5026L13126.157,-3183.5027L13126.1502,-3183.5025L13126.1302,-3183.4996L13126.1196,-3183.4974L13126.0904,-3183.4852L13126.08,-3183.4805L13126.0187,-3183.4501L13125.9903,-3183.4382L13125.9798,-3183.436L13125.9739,-3183.4343L13125.9638,-3183.4339L13125.9565,-3183.4347L13125.8426,-3183.4726L13125.7872,-3183.494L13125.7008,-3183.5329L13125.6362,-3183.5667L13125.6157,-3183.5814L13125.6045,-3183.5921L13125.5854,-3183.6208L13125.5757,-3183.6312L13125.5714,-3183.6331L13125.5552,-3183.6377L13125.5329,-3183.6433L13125.4951,-3183.6546L13125.4806,-3183.6571L13125.463,-3183.6572L13125.4482,-3183.6561L13125.438,-3183.6524L13125.4308,-3183.6488L13125.4147,-3183.6368L13125.3893,-3183.6155L13125.3809,-3183.6096L13125.3714,-3183.6046L13125.3324,-3183.5899L13125.2785,-3183.5706L13125.2393,-3183.5566L13125.1933,-3183.5403L13125.1723,-3183.5337L13125.1611,-3183.5308L13125.1443,-3183.5302L13125.1349,-3183.5306L13125.123,-3183.5339L13125.1153,-3183.5379L13125.1073,-3183.5433L13125.0935,-3183.5544L13125.0835,-3183.5619L13125.0699,-3183.5701L13125.0574,-3183.5747L13125.0442,-3183.577L13125.0312,-3183.5772L13125.0175,-3183.5757L13125.0032,-3183.572L13124.9939,-3183.568L13124.9625,-3183.55L13124.9358,-3183.5356L13124.9216,-3183.5308L13124.9059,-3183.5274L13124.8927,-3183.5266L13124.8747,-3183.5279L13124.8624,-3183.5304L13124.8455,-3183.5363L13124.8362,-3183.5398L13124.7926,-3183.5604L13124.7656,-3183.5752L13124.7386,-3183.5904L13124.7194,-3183.596L13124.701,-3183.5954L13124.6904,-3183.5921L13124.6753,-3183.5853L13124.6482,-3183.5661L13124.6271,-3183.5526L13124.604,-3183.5413L13124.5875,-3183.5363L13124.5664,-3183.5323L13124.5348,-3183.5289L13124.5177,-3183.5286L13124.5081,-3183.5317L13124.5021,-3183.5357L13124.4943,-3183.5439L13124.4848,-3183.556L13124.47,-3183.5773L13124.453,-3183.6039L13124.4438,-3183.6151L13124.4385,-3183.6191L13124.4239,-3183.6247L13124.3659,-3183.6354L13124.3032,-3183.6439L13124.265,-3183.6489L13124.2478,-3183.6506L13124.2234,-3183.6495L13124.1733,-3183.6422L13124.1417,-3183.6382L13124.1119,-3183.6344L13124.0816,-3183.6304L13124.0678,-3183.6292L13124.0196,-3183.6219L13123.988,-3183.6174L13123.9623,-3183.6168L13123.9391,-3183.6219L13123.9128,-3183.6315L13123.8844,-3183.6433L13123.8646,-3183.6506L13123.8184,-3183.6631L13123.8099,-3183.6642L13123.798,-3183.6636L13123.7828,-3183.6597L13123.7664,-3183.6535L13123.7406,-3183.6371L13123.643,-3183.5701L13123.6265,-3183.5599L13123.5942,-3183.5413L13123.5817,-3183.5379L13123.5704,-3183.5362L13123.5526,-3183.5368L13123.5434,-3183.5391L13123.5379,-3183.5412L13123.5296,-3183.5452L13123.5157,-3183.5593L13123.459,-3183.645L13123.4491,-3183.6529L13123.4306,-3183.6608L13123.3939,-3183.6716L13123.3655,-3183.6811L13123.3496,-3183.6857L13123.3239,-3183.6936L13123.2987,-3183.6989L13123.2875,-3183.6996L13123.2729,-3183.6989L13123.2624,-3183.6969L13123.2531,-3183.693L13123.2492,-3183.6897L13123.2432,-3183.6811L13123.2378,-3183.6792L13123.2281,-3183.6597L13123.2202,-3183.6377L13123.2202,-3183.6377L13123.2202,-3183.6377L13123.2196,-3183.623L13123.2294,-3183.6011L13123.236,-3183.5796L13123.2347,-3183.5571L13123.2321,-3183.4134L13123.2295,-3183.3779L13123.2275,-3183.3643L13123.2123,-3183.3153L13123.2123,-3183.3153L13123.2064,-3183.3007L13123.2004,-3183.2916L13123.1925,-3183.2838L13123.1866,-3183.2798L13123.178,-3183.2776L13123.1698,-3183.2775L13123.1616,-3183.2787L13123.149,-3183.2849L13123.1332,-3183.2967L13123.0887,-3183.3411L13123.0645,-3183.3606L13123.056,-3183.3677L13123.0144,-3183.3914L13123.0052,-3183.3981L13122.994,-3183.4111L13122.9828,-3183.4399L13122.9729,-3183.4714L13122.9682,-3183.481L13122.9557,-3183.4968L13122.9439,-3183.5047L13122.9313,-3183.5103L13122.9168,-3183.5143L13122.9049,-3183.5143L13122.8931,-3183.5103L13122.8772,-3183.5013L13122.8608,-3183.4872L13122.7466,-3183.3204L13122.696,-3183.2432L13122.6881,-3183.2338L13122.6709,-3183.2126L13122.6108,-3183.1384L13122.5966,-3183.1208L13122.5587,-3183.0741L13122.5362,-3183.0498L13122.5198,-3183.0369L13122.494,-3183.0234L13122.4709,-3183.0121L13122.4635,-3183.0082L13122.4472,-3182.9997L13122.403,-3182.9799L13122.3773,-3182.9738L13122.3272,-3182.9687L13122.2982,-3182.9647L13122.2714,-3182.9625L13122.2428,-3182.9623"/>
<path content="1,近鉄バス（株）,京都・大阪・神戸⇔宮崎,1.0,1.0,1.0," xlink:title="1" d="M13130.8594,-3182.5092L13130.8354,-3182.4873L13130.7806,-3182.4395L13130.7239,-3182.3931L13130.6675,-3182.3511L13130.6086,-3182.311L13130.5501,-3182.2727L13130.4838,-3182.234L13130.4433,-3182.2116L13130.4392,-3182.2095L13130.4369,-3182.2084L13130.3741,-3182.1775L13130.3705,-3182.1758L13130.333,-3182.1583L13130.3231,-3182.154L13130.2576,-3182.1258L13130.1942,-3182.1028L13130.1368,-3182.0841L13130.0676,-3182.064L13129.9654,-3182.0376L13129.8574,-3182.0149L13129.7761,-3182.0006L13129.6648,-3181.9855L13129.6132,-3181.9805L13129.5546,-3181.9772L13129.5301,-3181.9768L13129.4496,-3181.9764L13129.3661,-3181.9783L13129.2673,-3181.9827L13129.1718,-3181.9904L13129.0864,-3181.9969L13128.9993,-3182.0064L13128.9397,-3182.0138L13128.8925,-3182.0204L13128.8169,-3182.0303L13128.739,-3182.0398L13128.6557,-3182.049L13128.6064,-3182.0537L13128.5731,-3182.0563L13128.4989,-3182.0596L13128.4269,-3182.0607L13128.3457,-3182.0577L13128.2601,-3182.0515L13128.175,-3182.0431L13128.0927,-3182.0339L13128.0094,-3182.0201L13127.9632,-3182.0113L13127.9217,-3182.0022L13127.8006,-3181.9737L13127.624,-3181.9263L13127.4625,-3181.8823L13127.3791,-3181.8623L13127.2968,-3181.8434L13127.2404,-3181.8351L13127.1925,-3181.8288L13127.1567,-3181.8244L13127.1171,-3181.82L13127.0713,-3181.8149L13127.0353,-3181.8127L13127.0064,-3181.8108L13126.9789,-3181.8097L13126.9474,-3181.8086L13126.9151,-3181.8079L13126.8818,-3181.8068L13126.8576,-3181.8068L13126.8191,-3181.8068L13126.781,-3181.8068L13126.7355,-3181.809L13126.7018,-3181.8112L13126.6633,-3181.8145L13126.6285,-3181.8174L13126.5995,-3181.8207L13126.5676,-3181.8244L13126.5314,-3181.8295L13126.5006,-3181.8354L13126.4705,-3181.8405L13126.4379,-3181.8468L13126.3979,-3181.8559L13126.3653,-3181.8636L13126.3301,-3181.8728L13126.2979,-3181.8801L13126.259,-3181.8908L13126.2172,-3181.9061L13126.1747,-3181.9193L13126.1381,-3181.9333L13126.108,-3181.945L13126.0791,-3181.9556L13126.0534,-3181.9648L13126.0241,-3181.9762L13125.9922,-3181.9868L13125.9555,-3181.9989L13125.924,-3182.0088L13125.8888,-3182.0209L13125.8613,-3182.0297L13125.8302,-3182.0396L13125.7972,-3182.0502L13125.7657,-3182.0594L13125.7268,-3182.0704L13125.6942,-3182.0791L13125.6656,-3182.0876L13125.6363,-3182.0956L13125.6081,-3182.1041L13125.5817,-3182.111L13125.5557,-3182.1184L13125.5227,-3182.1272L13125.4856,-3182.1363L13125.4512,-3182.1451L13125.4222,-3182.1525L13125.3947,-3182.1587L13125.3629,-3182.1667L13125.3317,-3182.1741L13125.2987,-3182.1807L13125.2639,-3182.1876L13125.2313,-3182.1942L13125.2027,-3182.199L13125.1734,-3182.2038L13125.1374,-3182.21L13125.1011,-3182.2151L13125.0572,-3182.2206L13125.0223,-3182.2254L13124.9886,-3182.2298L13124.9597,-3182.2327L13124.9281,-3182.2364L13124.9014,-3182.239L13124.8658,-3182.243L13124.8259,-3182.2463L13124.787,-3182.2489L13124.7467,-3182.2507L13124.7119,-3182.2529L13124.6829,-3182.2547L13124.654,-3182.2566L13124.6203,-3182.2584L13124.5807,-3182.2617L13124.5437,-3182.2639L13124.5066,-3182.2668L13124.4685,-3182.2697L13124.4355,-3182.2719L13124.4018,-3182.2745L13124.3706,-3182.2771L13124.3358,-3182.2796L13124.305,-3182.2815L13124.2662,-3182.2848L13124.2287,-3182.286L13124.2017,-3182.2873L13124.1743,-3182.2886L13124.1332,-3182.2912L13124.1,-3182.2925L13124.0622,-3182.2951L13124.0277,-3182.2977L13124.0016,-3182.299L13123.9749,-3182.2997L13123.9176,-3182.3036L13123.8661,-3182.3075L13123.8179,-3182.3121L13123.7748,-3182.314L13123.6911,-3182.3196L13123.6607,-3182.3207L13123.613,-3182.3233L13123.5745,-3182.3258L13123.5375,-3182.3277L13123.502,-3182.3299L13123.4627,-3182.3321L13123.4309,-3182.3346L13123.403,-3182.3365L13123.3729,-3182.339L13123.3462,-3182.3412L13123.3055,-3182.342L13123.2718,-3182.3442L13123.2377,-3182.3467L13123.2098,-3182.3489L13123.164,-3182.3507L13123.1123,-3182.3529L13123.0651,-3182.3548L13123.0152,-3182.3555L13122.9665,-3182.3573L13122.925,-3182.3588L13122.9005,-3182.3592L13122.8645,-3182.359L13122.8228,-3182.3596L13122.7766,-3182.3583L13122.7297,-3182.3577L13122.6808,-3182.3577L13122.6352,-3182.3564L13122.5896,-3182.3538L13122.5492,-3182.3505L13122.4983,-3182.3446L13122.4579,-3182.3394L13122.4306,-3182.3336L13122.4129,-3182.3306L13122.3813,-3182.3251L13122.3561,-3182.3206L13122.3395,-3182.3177L13122.3053,-3182.3108L13122.2775,-3182.3029L13122.2625,-3182.2983L13122.2326,-3182.2892L13122.2231,-3182.2863L13122.1845,-3182.2738L13122.1308,-3182.2529L13122.1068,-3182.2438L13122.0886,-3182.2345L13122.0703,-3182.2264"/>
</g>
</svg>
