<?xml version="1.0" encoding="UTF-8"?>
<svg  xmlns="http://www.w3.org/2000/svg" xmlns:xlink="http://www.w3.org/1999/xlink" xmlns:go="http://purl.org/svgmap/profile" property="N07_001,N07_002,N07_003,N07_004,N07_005,N07_006,N07_007" viewBox="14167.96875 -4078.125 35.15625 35.15625" go:dataArea="14167.96875 -4078.125 35.15625 35.15625" >
<metadata>
 <rdf:RDF xmlns:rdf="http://www.w3.org/1999/02/22-rdf-syntax-ns#" xmlns:crs="http://opengis.org/xmldtds/transformations.dtd" xmlns:svg="http://www.w3.org/svg" >
  <rdf:Description>
   <crs:CoordinateReferenceSystem rdf:resource="http://purl.org/crs/84" svg:transform="matrix(100.0,0.0,0.0,-100.0,0.0,0.0)" />
  </rdf:Description>
 </rdf:RDF>
</metadata>
<globalCoordinateSystem srsName="http://purl.org/crs/84" transform="matrix(100.0,0.0,0.0,-100.0,0.0,0.0)" />
<defs>
 <g id="p0" >
  <circle cx="0.0" cy="0.0" r="3" stroke="green" stroke-width="0.75" vector-effect="non-scaling-stroke" />
 </g>
</defs>
<g fill="none" fill-rule="evenodd" stroke="#FF00FF" stroke-width="0.75" opacity="0.5" vector-effect="non-scaling-stroke" stroke-linejoin="bevel" >
<path content="3,洋野町,大沢山手線,1.0,0.0,0.0," xlink:title="3" d="M14167.9688,-4044.1166L14167.9865,-4044.1011L14168.0491,-4044.0426L14168.0823,-4044.0077L14168.1515,-4043.9311L14168.1795,-4043.9035L14168.2121,-4043.8762L14168.2333,-4043.8613L14168.2581,-4043.8463L14168.2816,-4043.8328L14168.3022,-4043.8222L14168.3393,-4043.8038L14168.4266,-4043.7629L14168.4653,-4043.7448L14168.4837,-4043.7357L14168.511,-4043.7206L14168.5275,-4043.7076L14168.5935,-4043.6502L14168.6171,-4043.6237L14168.7153,-4043.4928L14168.7227,-4043.4831L14168.7725,-4043.4199L14168.8447,-4043.3236L14168.8749,-4043.2837L14168.934,-4043.2034L14168.9808,-4043.1424L14169.0197,-4043.0926L14169.0576,-4043.0438L14169.1141,-4042.9688"/>
<path content="3,洋野町,大沢線（滝沢・種市高校経由）,1.0,999.9,999.9," xlink:title="3" d="M14167.9688,-4044.1658L14168.0049,-4044.1591L14168.0752,-4044.1459L14168.0963,-4044.142L14168.1316,-4044.1338L14168.1493,-4044.1276L14168.1911,-4044.1133L14168.1978,-4044.1086L14168.2406,-4044.1006L14168.3187,-4044.0848L14168.3534,-4044.0758L14168.3875,-4044.0656L14168.4058,-4044.0619L14168.4288,-4044.0611L14168.4444,-4044.0599L14168.4601,-4044.0555L14168.5095,-4044.0432L14168.5279,-4044.0426L14168.5526,-4044.0452L14168.5603,-4044.0449L14168.57,-4044.0426L14168.5964,-4044.0359L14168.6149,-4044.0314L14168.6436,-4044.0263L14168.6818,-4044.0203L14168.7298,-4044.0032L14168.7799,-4043.9874L14168.8204,-4043.9749L14168.863,-4043.9569L14168.9117,-4043.9334L14168.9279,-4043.9255L14168.9743,-4043.8991L14169.0171,-4043.8698L14169.0296,-4043.8591L14169.0563,-4043.8342L14169.0966,-4043.7932L14169.1499,-4043.7381L14169.1681,-4043.7151L14169.1934,-4043.6824L14169.2111,-4043.6624L14169.2342,-4043.64L14169.258,-4043.6163L14169.2801,-4043.5916L14169.3081,-4043.5573L14169.3346,-4043.5201L14169.3552,-4043.4847L14169.3675,-4043.4686L14169.3774,-4043.4626L14169.3913,-4043.4537L14169.448,-4043.4216L14169.5342,-4043.3698L14169.6211,-4043.3203L14169.6857,-4043.2839L14169.7581,-4043.2414L14169.7979,-4043.2156L14169.8281,-4043.1936L14169.8392,-4043.1835L14169.8525,-4043.1702L14169.8616,-4043.1615L14169.8843,-4043.1312L14169.9423,-4043.0619L14169.9963,-4042.9959L14170.0123,-4042.9791L14170.0214,-4042.9688"/>
<path content="3,階上町,東部循環線,2.5,2.5,2.5," xlink:title="3" d="M14167.9688,-4045.1061L14167.9899,-4045.0882"/>
</g>
</svg>
