<?xml version="1.0" encoding="UTF-8"?>
<svg  xmlns="http://www.w3.org/2000/svg" xmlns:xlink="http://www.w3.org/1999/xlink" xmlns:go="http://purl.org/svgmap/profile" property="N07_001,N07_002,N07_003,N07_004,N07_005,N07_006,N07_007" viewBox="13728.515625 -3471.6796875 8.7890625 8.7890625" go:dataArea="13728.515625 -3471.6796875 8.7890625 8.7890625" >
<metadata>
 <rdf:RDF xmlns:rdf="http://www.w3.org/1999/02/22-rdf-syntax-ns#" xmlns:crs="http://opengis.org/xmldtds/transformations.dtd" xmlns:svg="http://www.w3.org/svg" >
  <rdf:Description>
   <crs:CoordinateReferenceSystem rdf:resource="http://purl.org/crs/84" svg:transform="matrix(100.0,0.0,0.0,-100.0,0.0,0.0)" />
  </rdf:Description>
 </rdf:RDF>
</metadata>
<globalCoordinateSystem srsName="http://purl.org/crs/84" transform="matrix(100.0,0.0,0.0,-100.0,0.0,0.0)" />
<defs>
 <g id="p0" >
  <circle cx="0.0" cy="0.0" r="3" stroke="green" stroke-width="0.75" vector-effect="non-scaling-stroke" />
 </g>
</defs>
<g fill="none" fill-rule="evenodd" stroke="#FF00FF" stroke-width="0.75" opacity="0.5" vector-effect="non-scaling-stroke" stroke-linejoin="bevel" >
<path content="1,豊鉄バス（株）,レイクタウン線,25.0,25.0,25.0," xlink:title="1" d="M13736.7611,-3467.6751L13736.7631,-3467.7494L13736.8176,-3467.7494L13736.8184,-3467.701L13736.8183,-3467.6486L13736.8177,-3467.5991L13736.7597,-3467.5991L13736.7611,-3467.6751"/>
<path content="1,豊鉄バス（株）,レイクタウン線,25.0,25.0,25.0," xlink:title="1" d="M13736.0601,-3468.1201L13735.9851,-3468.1922L13735.9729,-3468.2046L13735.9613,-3468.213L13735.9293,-3468.2299L13735.9074,-3468.2361L13735.8965,-3468.2378L13735.8768,-3468.2384L13735.8379,-3468.2311L13735.827,-3468.2294L13735.8222,-3468.2277L13735.8106,-3468.226L13735.7772,-3468.2198L13735.7622,-3468.2164L13735.7479,-3468.2147L13735.7451,-3468.2136L13735.7206,-3468.2096L13735.6777,-3468.2012L13735.6347,-3468.1933L13735.6265,-3468.1911L13735.5993,-3468.1866L13735.5591,-3468.1791L13735.5031,-3468.1685L13735.512,-3468.1274L13735.5215,-3468.0863L13735.5297,-3468.0485L13735.5365,-3468.0215L13735.5617,-3468.0258L13735.5768,-3468.0294L13735.6088,-3468.0356L13735.6865,-3468.0491L13735.694,-3468.0514L13735.7186,-3468.0547L13735.7213,-3468.0424L13735.7281,-3468.0198L13735.7281,-3468.0164L13735.7322,-3468.0012L13735.7411,-3467.968L13735.7442,-3467.956L13735.7499,-3467.9325L13735.8126,-3467.9426L13735.8311,-3467.9455L13735.8563,-3467.95L13735.8774,-3467.9528L13735.9081,-3467.9579L13735.9504,-3467.9641L13735.9673,-3467.9665L13735.9783,-3467.9686L13735.9674,-3468.0102L13735.9674,-3468.0198L13735.9702,-3468.0491L13735.9756,-3468.0841L13735.9845,-3468.0801L13735.9961,-3468.0756L13736.0088,-3468.0702L13736.0114,-3468.0735L13736.0134,-3468.0764L13736.0222,-3468.0867L13736.0346,-3468.0997L13736.0519,-3468.115L13736.0601,-3468.1201"/>
<path content="1,豊鉄バス（株）,レイクタウン線,25.0,25.0,25.0," xlink:title="1" d="M13736.3151,-3468.168L13736.2592,-3468.1601L13736.1958,-3468.1516L13736.1638,-3468.1477L13736.1563,-3468.146L13736.1406,-3468.1443L13736.1024,-3468.1387L13736.0758,-3468.1297L13736.0697,-3468.1268L13736.0601,-3468.1201"/>
<path content="1,豊鉄バス（株）,レイクタウン線,25.0,25.0,25.0," xlink:title="1" d="M13736.3151,-3468.168L13736.3165,-3468.137L13736.3179,-3468.1201L13736.3274,-3468.088L13736.3444,-3468.0598L13736.3526,-3468.0514L13736.3649,-3468.0396L13736.3792,-3468.0243L13736.4161,-3467.9838L13736.4236,-3467.9753L13736.4386,-3467.9596L13736.4576,-3467.9376L13736.517,-3467.8734L13736.5415,-3467.8401L13736.5565,-3467.817L13736.5633,-3467.8041L13736.5743,-3467.7765L13736.577,-3467.7635L13736.5722,-3467.7094L13736.5647,-3467.6779L13736.6209,-3467.6769L13736.7611,-3467.6751"/>
<path content="1,豊鉄バス（株）,レイクタウン線,25.0,25.0,25.0," xlink:title="1" d="M13735.9156,-3469.5779L13735.9626,-3469.5841L13735.9728,-3469.5858L13736.0021,-3469.5897L13736.0144,-3469.5914L13736.0301,-3469.592"/>
<path content="1,豊鉄バス（株）,レイクタウン線,25.0,25.0,25.0," xlink:title="1" d="M13736.0301,-3469.592L13736.0331,-3469.576L13736.041,-3469.539L13736.056,-3469.4737L13736.0585,-3469.4588L13736.0621,-3469.4416L13736.0689,-3469.4117L13736.0887,-3469.3148L13736.0928,-3469.2974L13736.1003,-3469.2613L13736.1106,-3469.214L13736.116,-3469.1892L13736.1276,-3469.1323L13736.1317,-3469.1154L13736.143,-3469.0672L13736.1535,-3469.0157L13736.1542,-3469.0129L13736.1603,-3468.9836L13736.176,-3468.9138L13736.1969,-3468.8129L13736.2199,-3468.7052L13736.2336,-3468.6431L13736.2415,-3468.6045L13736.2476,-3468.5752L13736.2623,-3468.5062L13736.2647,-3468.4952L13736.2729,-3468.4609L13736.2756,-3468.4434L13736.2831,-3468.4081L13736.2838,-3468.4051L13736.3063,-3468.3021L13736.3069,-3468.2953L13736.3086,-3468.2727L13736.3097,-3468.2581L13736.3097,-3468.2542L13736.3147,-3468.188L13736.3151,-3468.168"/>
<path content="1,豊鉄バス（株）,レイクタウン線,25.0,25.0,25.0," xlink:title="1" d="M13735.5623,-3470.0081L13735.6605,-3469.9463L13735.7063,-3469.9185L13735.7171,-3469.9119L13735.7969,-3469.9232L13735.8126,-3469.926L13735.8214,-3469.9266L13735.8808,-3469.9356L13735.9408,-3469.9446L13735.9489,-3469.9463L13735.9698,-3469.9472L13735.9658,-3469.9352L13735.9633,-3469.9271L13735.9605,-3469.917L13735.9612,-3469.895L13735.9694,-3469.8686L13735.9728,-3469.8533L13735.9899,-3469.7762L13735.9946,-3469.7559L13735.9974,-3469.7384L13736.0144,-3469.6567L13736.0301,-3469.592"/>
<path content="1,豊鉄バス（株）,中浜大崎線_03_on,7.5,4.0,4.0," xlink:title="1" d="M13733.396,-3471.6797L13733.3955,-3471.6541L13733.2967,-3471.6553L13733.2503,-3471.6547L13733.1535,-3471.653L13733.155,-3471.405L13732.9244,-3471.403L13732.9116,-3471.4028L13732.8997,-3471.4026L13732.5626,-3471.4007L13732.5539,-3471.4007L13732.5213,-3471.4002L13732.2193,-3471.3989L13732.2239,-3470.7778L13732.2244,-3470.7028L13732.2378,-3470.7028L13732.4364,-3470.7042L13732.5393,-3470.7052L13732.5567,-3470.7047L13732.7375,-3470.7047"/>
<path content="1,豊鉄バス（株）,伊良湖本線,27.5,27.0,27.0," xlink:title="1" d="M13735.153,-3471.6797L13735.1734,-3471.6696L13735.2398,-3471.6386L13735.2644,-3471.6256L13735.2857,-3471.6143L13735.2906,-3471.6122L13735.3189,-3471.5984L13735.353,-3471.5821L13735.3816,-3471.568L13735.467,-3471.5257L13735.5795,-3471.4684L13735.593,-3471.4616L13735.608,-3471.4548L13735.6734,-3471.4221L13735.685,-3471.4165L13735.6946,-3471.4126L13735.7055,-3471.4069L13735.7164,-3471.4018L13735.79,-3471.3664L13735.8023,-3471.3601L13735.8275,-3471.3483L13735.8328,-3471.3458L13735.9073,-3471.3095L13735.9266,-3471.3002L13735.954,-3471.2871L13735.9743,-3471.2764L13736.0159,-3471.257L13736.0341,-3471.2475L13736.0557,-3471.2372L13736.0779,-3471.2253L13736.0925,-3471.2185L13736.1262,-3471.2019L13736.1686,-3471.1809L13736.2132,-3471.158L13736.2803,-3471.1253L13736.2564,-3471.1011L13736.2425,-3471.0879L13736.236,-3471.0811L13736.2261,-3471.0722L13736.1964,-3471.047L13736.1855,-3471.0346L13736.1821,-3471.0289L13736.1759,-3471.0137L13736.1705,-3470.9923L13736.1684,-3470.9851L13736.1609,-3470.9602L13736.1518,-3470.9431L13736.0703,-3470.8701L13736.0225,-3470.8459L13735.9891,-3470.8296L13735.8971,-3470.7845L13735.8521,-3470.7619L13735.7737,-3470.7321L13735.7451,-3470.7214L13735.6844,-3470.7005L13735.6646,-3470.6943L13735.6441,-3470.687L13735.5956,-3470.6706L13735.4423,-3470.6188L13735.3612,-3470.5918L13735.3462,-3470.5856L13735.3312,-3470.5806L13735.2774,-3470.5575L13735.2521,-3470.5445L13735.2453,-3470.5417L13735.2058,-3470.5225L13735.1962,-3470.5175L13735.1908,-3470.5152L13735.1812,-3470.5101L13735.1669,-3470.5039L13735.1602,-3470.5005L13735.1273,-3470.4837L13735.0994,-3470.4701L13735.0953,-3470.4679L13735.0792,-3470.461L13735.0631,-3470.4524L13734.9884,-3470.4151L13734.948,-3470.3935L13734.9242,-3470.3789L13734.886,-3470.353L13734.8321,-3470.3177L13734.7592,-3470.2699L13734.7082,-3470.2366L13734.676,-3470.2155L13734.6522,-3470.2003L13734.6119,-3470.175L13734.5642,-3470.1434L13734.5356,-3470.1181L13734.5192,-3470.0989L13734.5165,-3470.095L13734.4967,-3470.0696L13734.4873,-3470.057L13734.4708,-3470.0347L13734.4658,-3470.0286L13734.4613,-3470.0229L13734.4067,-3469.9513L13734.3829,-3469.9271L13734.3495,-3469.8961L13734.3426,-3469.8916L13734.3331,-3469.8854L13734.3161,-3469.8725L13734.2922,-3469.8561L13734.2322,-3469.8178L13734.2076,-3469.8021L13734.1749,-3469.7812L13734.0815,-3469.7221L13734.0597,-3469.708L13734.0311,-3469.6894L13734.0249,-3469.686L13734.0202,-3469.6821L13733.9909,-3469.6641L13733.981,-3469.6571L13733.9684,-3469.6483L13733.9384,-3469.6241L13733.9281,-3469.6139L13733.9159,-3469.6009L13733.9065,-3469.5919L13733.8995,-3469.5852L13733.879,-3469.5638L13733.8695,-3469.5553L13733.8334,-3469.5176L13733.7898,-3469.4725L13733.7795,-3469.4612L13733.77,-3469.4528L13733.7083,-3469.3903L13733.6997,-3469.3818L13733.6718,-3469.3559L13733.6609,-3469.3469L13733.6582,-3469.3458L13733.6432,-3469.3339L13733.6091,-3469.3142L13733.5968,-3469.308L13733.572,-3469.2971L13733.5341,-3469.2844L13733.5191,-3469.281L13733.5034,-3469.2776L13733.4359,-3469.2646L13733.4318,-3469.2641L13733.3889,-3469.2573L13733.3534,-3469.2528L13733.3323,-3469.2485L13733.3173,-3469.2455L13733.3064,-3469.2438L13733.2954,-3469.2416L13733.2784,-3469.2382L13733.242,-3469.2302L13733.2131,-3469.224L13733.1605,-3469.2122L13733.1564,-3469.2117L13733.1543,-3469.2117L13733.1454,-3469.2094L13733.0295,-3469.1846L13732.9859,-3469.1751L13732.962,-3469.17L13732.8986,-3469.1565L13732.8703,-3469.1515L13732.8352,-3469.1391L13732.8299,-3469.1366L13732.8059,-3469.1255L13732.7704,-3469.1036L13732.7619,-3469.0982L13732.7141,-3469.0667L13732.6805,-3469.0472L13732.6678,-3469.0408L13732.6299,-3469.0255L13732.6018,-3469.0104L13732.5967,-3469.0074L13732.5925,-3469.005L13732.5687,-3468.9892L13732.5428,-3468.9706L13732.5269,-3468.9605L13732.4742,-3468.9246L13732.4292,-3468.894L13732.3776,-3468.8589L13732.3314,-3468.8275L13732.2789,-3468.7916L13732.1827,-3468.7259L13732.1726,-3468.7182L13732.1166,-3468.6805L13732.1084,-3468.6743L13732.1064,-3468.6737L13732.0839,-3468.6579L13732.0464,-3468.6326L13732.0041,-3468.5982L13731.9687,-3468.5605L13731.9575,-3468.5441L13731.9537,-3468.5386L13731.9204,-3468.4819L13731.9003,-3468.4477L13731.8628,-3468.3839L13731.8491,-3468.3606L13731.8385,-3468.3425L13731.8118,-3468.2997L13731.7948,-3468.2804L13731.7894,-3468.2738L13731.7781,-3468.2643L13731.7526,-3468.2434L13731.7253,-3468.227L13731.7051,-3468.2173L13731.6869,-3468.2085L13731.67,-3468.2016L13731.6674,-3468.2006L13731.6237,-3468.1825L13731.6026,-3468.1746L13731.5883,-3468.1679L13731.56,-3468.1564L13731.5467,-3468.151L13731.4748,-3468.1149L13731.4514,-3468.1026L13731.4233,-3468.0879L13731.3728,-3468.0608L13731.347,-3468.0415L13731.2643,-3467.9576L13731.2017,-3467.8935L13731.186,-3467.8789L13731.1844,-3467.8771L13731.1778,-3467.8699L13731.1171,-3467.8181L13731.0987,-3467.8024L13731.0108,-3467.7279L13730.9721,-3467.6951L13730.9604,-3467.6851L13730.9564,-3467.6811L13730.9277,-3467.6563L13730.8833,-3467.6221L13730.8601,-3467.6034L13730.8383,-3467.5893L13730.8158,-3467.5797L13730.8009,-3467.5751L13730.7886,-3467.5707L13730.7806,-3467.5684L13730.7326,-3467.5538L13730.7018,-3467.545L13730.6802,-3467.5381L13730.6665,-3467.5347L13730.644,-3467.5285L13730.5462,-3467.4993L13730.5097,-3467.4885L13730.496,-3467.4847L13730.4838,-3467.4806L13730.4306,-3467.4648L13730.3958,-3467.4547L13730.3699,-3467.444L13730.3552,-3467.4376L13730.3452,-3467.433L13730.3297,-3467.4265L13730.3168,-3467.4209L13730.2649,-3467.3984L13730.2433,-3467.3884L13730.2194,-3467.3767L13730.2007,-3467.3683L13730.1968,-3467.3662L13730.0856,-3467.3133L13730.0529,-3467.298L13730.0195,-3467.2817L13729.9692,-3467.2617L13729.9288,-3467.2462L13729.8811,-3467.2322L13729.8571,-3467.2275L13729.7917,-3467.2172L13729.7191,-3467.2072L13729.6534,-3467.1995L13729.6411,-3467.1989L13729.6253,-3467.1961L13729.579,-3467.191L13729.5741,-3467.1892L13729.5058,-3467.1807L13729.4754,-3467.1767L13729.464,-3467.1744L13729.4529,-3467.1699L13729.4431,-3467.1664L13729.4337,-3467.1624L13729.4242,-3467.1577L13729.4097,-3467.1507L13729.3812,-3467.1363L13729.3329,-3467.1127L13729.275,-3467.0817L13729.247,-3467.0637L13729.2348,-3467.0569L13729.1955,-3467.0251L13729.0965,-3466.9484L13729.0689,-3466.9268L13729.0593,-3466.9206L13729.0377,-3466.9066L13729.0301,-3466.9015L13728.9878,-3466.8784L13728.9551,-3466.8615L13728.917,-3466.8463L13728.8659,-3466.8339L13728.8489,-3466.8322L13728.8298,-3466.8322L13728.8039,-3466.8367L13728.7501,-3466.8435L13728.7267,-3466.8432L13728.6898,-3466.8423L13728.6288,-3466.8389L13728.6023,-3466.8394L13728.5913,-3466.8396L13728.5628,-3466.8401L13728.5451,-3466.8423L13728.5156,-3466.848"/>
<path content="1,豊鉄バス（株）,大崎線_01_on,11.0,9.0,9.0," xlink:title="1" d="M13733.396,-3471.6797L13733.3955,-3471.6541L13733.2967,-3471.6553L13733.2503,-3471.6547L13733.1535,-3471.653L13733.155,-3471.405L13732.9244,-3471.403L13732.9116,-3471.4028L13732.8997,-3471.4026L13732.5626,-3471.4007L13732.5539,-3471.4007L13732.5213,-3471.4002L13732.2193,-3471.3989L13732.2239,-3470.7778L13732.2244,-3470.7028L13732.2378,-3470.7028L13732.4364,-3470.7042L13732.5393,-3470.7052L13732.5567,-3470.7047L13732.7375,-3470.7047"/>
<path content="1,豊鉄バス（株）,大崎線_04_on,1.0,0.5,0.5," xlink:title="1" d="M13734.3857,-3471.6797L13734.3794,-3471.6621L13734.378,-3471.6581L13734.3719,-3471.6384L13734.3671,-3471.6271L13734.3535,-3471.5877L13734.3528,-3471.5854L13734.3435,-3471.5587L13734.31,-3471.4645"/>
<path content="1,豊鉄バス（株）,小浜大崎線_01_on,12.5,12.5,12.5," xlink:title="1" d="M13734.3857,-3471.6797L13734.3794,-3471.6621L13734.378,-3471.6581L13734.3719,-3471.6384L13734.3671,-3471.6271L13734.3535,-3471.5877L13734.3528,-3471.5854L13734.3435,-3471.5587L13734.31,-3471.4645"/>
<path content="1,豊鉄バス（株）,田原～練馬,1.0,1.0,1.0," xlink:title="1" d="M13728.5156,-3466.848L13728.5451,-3466.8423L13728.5628,-3466.8401L13728.5913,-3466.8396L13728.6023,-3466.8394L13728.6288,-3466.8389L13728.6898,-3466.8423L13728.7267,-3466.8432L13728.7501,-3466.8435L13728.8039,-3466.8367L13728.8298,-3466.8322L13728.8489,-3466.8322L13728.8659,-3466.8339L13728.917,-3466.8463L13728.9551,-3466.8615L13728.9878,-3466.8784L13729.0301,-3466.9015L13729.0377,-3466.9066L13729.0593,-3466.9206L13729.0689,-3466.9268L13729.0965,-3466.9484L13729.1955,-3467.0251L13729.2348,-3467.0569L13729.247,-3467.0637L13729.275,-3467.0817L13729.3329,-3467.1127L13729.3812,-3467.1363L13729.4097,-3467.1507L13729.4242,-3467.1577L13729.4337,-3467.1624L13729.4431,-3467.1664L13729.4529,-3467.1699L13729.464,-3467.1744L13729.4754,-3467.1767L13729.5058,-3467.1807L13729.5741,-3467.1892L13729.579,-3467.191L13729.6253,-3467.1961L13729.6411,-3467.1989L13729.6534,-3467.1995L13729.7191,-3467.2072L13729.7917,-3467.2172L13729.8571,-3467.2275L13729.8811,-3467.2322L13729.9288,-3467.2462L13729.9692,-3467.2617L13730.0195,-3467.2817L13730.0529,-3467.298L13730.0856,-3467.3133L13730.1968,-3467.3662L13730.2007,-3467.3683L13730.2194,-3467.3767L13730.2433,-3467.3884L13730.2649,-3467.3984L13730.3168,-3467.4209L13730.3297,-3467.4265L13730.3452,-3467.433L13730.3552,-3467.4376L13730.3699,-3467.444L13730.3958,-3467.4547L13730.4306,-3467.4648L13730.4838,-3467.4806L13730.496,-3467.4847L13730.5097,-3467.4885L13730.5462,-3467.4993L13730.644,-3467.5285L13730.6665,-3467.5347L13730.6802,-3467.5381L13730.7018,-3467.545L13730.7326,-3467.5538L13730.7806,-3467.5684L13730.7886,-3467.5707L13730.8009,-3467.5751L13730.8158,-3467.5797L13730.8383,-3467.5893L13730.8601,-3467.6034L13730.8833,-3467.6221L13730.9277,-3467.6563L13730.9564,-3467.6811L13730.9604,-3467.6851L13730.9721,-3467.6951L13731.0108,-3467.7279L13731.0987,-3467.8024L13731.1171,-3467.8181L13731.1778,-3467.8699L13731.1844,-3467.8771L13731.186,-3467.8789L13731.2017,-3467.8935L13731.2643,-3467.9576L13731.347,-3468.0415L13731.3728,-3468.0608L13731.4233,-3468.0879L13731.4514,-3468.1026L13731.4748,-3468.1149L13731.5467,-3468.151L13731.56,-3468.1564L13731.5883,-3468.1679L13731.6026,-3468.1746L13731.6237,-3468.1825L13731.6674,-3468.2006L13731.67,-3468.2016L13731.6869,-3468.2085L13731.7051,-3468.2173L13731.7253,-3468.227L13731.7526,-3468.2434L13731.7781,-3468.2643L13731.7894,-3468.2738L13731.7948,-3468.2804L13731.8118,-3468.2997L13731.8385,-3468.3425L13731.8491,-3468.3606L13731.8628,-3468.3839L13731.9003,-3468.4477L13731.9204,-3468.4819L13731.9537,-3468.5386L13731.9575,-3468.5441L13731.9687,-3468.5605L13732.0041,-3468.5982L13732.0464,-3468.6326L13732.0839,-3468.6579L13732.1064,-3468.6737L13732.1084,-3468.6743L13732.1166,-3468.6805L13732.1726,-3468.7182L13732.1827,-3468.7259L13732.2789,-3468.7916L13732.3314,-3468.8275L13732.3776,-3468.8589L13732.4292,-3468.894L13732.4742,-3468.9246L13732.5269,-3468.9605L13732.5428,-3468.9706L13732.5687,-3468.9892L13732.5925,-3469.005L13732.5967,-3469.0074L13732.6018,-3469.0104L13732.6299,-3469.0255L13732.6678,-3469.0408L13732.6805,-3469.0472L13732.7141,-3469.0667L13732.7619,-3469.0982L13732.7704,-3469.1036L13732.8059,-3469.1255L13732.8299,-3469.1366L13732.8352,-3469.1391L13732.8703,-3469.1515L13732.8986,-3469.1565L13732.962,-3469.17L13732.9859,-3469.1751L13733.0295,-3469.1846L13733.1454,-3469.2094L13733.1543,-3469.2117L13733.1564,-3469.2117L13733.1605,-3469.2122L13733.2131,-3469.224L13733.242,-3469.2302L13733.2784,-3469.2382L13733.2954,-3469.2416L13733.3064,-3469.2438L13733.3173,-3469.2455L13733.3323,-3469.2485L13733.3534,-3469.2528L13733.3889,-3469.2573L13733.4318,-3469.2641L13733.4359,-3469.2646L13733.5034,-3469.2776L13733.5191,-3469.281L13733.5341,-3469.2844L13733.572,-3469.2971L13733.5968,-3469.308L13733.6091,-3469.3142L13733.6432,-3469.3339L13733.6582,-3469.3458L13733.6609,-3469.3469L13733.6718,-3469.3559L13733.6997,-3469.3818L13733.7083,-3469.3903L13733.77,-3469.4528L13733.7795,-3469.4612L13733.7898,-3469.4725L13733.8334,-3469.5176L13733.8695,-3469.5553L13733.879,-3469.5638L13733.8995,-3469.5852L13733.9065,-3469.5919L13733.9159,-3469.6009L13733.9281,-3469.6139L13733.9384,-3469.6241L13733.9684,-3469.6483L13733.981,-3469.6571L13733.9909,-3469.6641L13734.0202,-3469.6821L13734.0249,-3469.686L13734.0311,-3469.6894L13734.0597,-3469.708L13734.0815,-3469.7221L13734.1749,-3469.7812L13734.2076,-3469.8021L13734.2322,-3469.8178L13734.2922,-3469.8561L13734.3161,-3469.8725L13734.3331,-3469.8854L13734.3426,-3469.8916L13734.3495,-3469.8961L13734.3829,-3469.9271L13734.4067,-3469.9513L13734.4613,-3470.0229L13734.4658,-3470.0286L13734.4708,-3470.0347L13734.4873,-3470.057L13734.4967,-3470.0696L13734.5165,-3470.095L13734.5192,-3470.0989L13734.5356,-3470.1181L13734.5642,-3470.1434L13734.6119,-3470.175L13734.6522,-3470.2003L13734.676,-3470.2155L13734.7082,-3470.2366L13734.7592,-3470.2699L13734.8321,-3470.3177L13734.886,-3470.353L13734.9242,-3470.3789L13734.948,-3470.3935L13734.9884,-3470.4151L13735.0631,-3470.4524L13735.0792,-3470.461L13735.0953,-3470.4679L13735.0994,-3470.4701L13735.1273,-3470.4837L13735.1602,-3470.5005L13735.1669,-3470.5039L13735.1812,-3470.5101L13735.1908,-3470.5152L13735.1962,-3470.5175L13735.2058,-3470.5225L13735.2453,-3470.5417L13735.2521,-3470.5445L13735.2774,-3470.5575L13735.3312,-3470.5806L13735.3462,-3470.5856L13735.3612,-3470.5918L13735.4423,-3470.6188L13735.5956,-3470.6706L13735.6441,-3470.687L13735.6646,-3470.6943L13735.6844,-3470.7005L13735.7451,-3470.7214L13735.7737,-3470.7321L13735.8521,-3470.7619L13735.8971,-3470.7845L13735.9891,-3470.8296L13736.0225,-3470.8459L13736.0703,-3470.8701L13736.1518,-3470.9431L13736.1609,-3470.9602L13736.1684,-3470.9851L13736.1705,-3470.9923L13736.1759,-3471.0137L13736.1821,-3471.0289L13736.1855,-3471.0346L13736.1964,-3471.047L13736.2261,-3471.0722L13736.236,-3471.0811L13736.2425,-3471.0879L13736.2564,-3471.1011L13736.2803,-3471.1253L13736.2966,-3471.1433L13736.3164,-3471.1704L13736.3273,-3471.1884L13736.33,-3471.1934L13736.3355,-3471.2075L13736.3477,-3471.2532L13736.3607,-3471.3016L13736.3716,-3471.332L13736.3812,-3471.3484L13736.4234,-3471.394L13736.4336,-3471.4052L13736.4718,-3471.4458L13736.4868,-3471.4627L13736.5032,-3471.4807L13736.5141,-3471.4914L13736.5209,-3471.4999L13736.5807,-3471.5641L13736.5838,-3471.5674L13736.6167,-3471.6062L13736.623,-3471.6141L13736.6228,-3471.6216L13736.6188,-3471.6271L13736.612,-3471.6316L13736.6034,-3471.6328L13736.5809,-3471.6306L13736.5693,-3471.6306L13736.5393,-3471.6506L13736.5544,-3471.6618L13736.5631,-3471.6683L13736.5781,-3471.6797"/>
<path content="1,豊鉄バス（株）,豊橋～京都,1.0,1.0,1.0," xlink:title="1" d="M13736.5807,-3471.5641L13736.5838,-3471.5674L13736.6167,-3471.6062L13736.623,-3471.6141L13736.6228,-3471.6216L13736.6188,-3471.6271L13736.612,-3471.6316L13736.6034,-3471.6328L13736.5809,-3471.6306L13736.5693,-3471.6306L13736.5393,-3471.6506L13736.5544,-3471.6618L13736.5631,-3471.6683L13736.5781,-3471.6797"/>
<path content="1,関東バス（株）,ほの国号,1.0,1.0,1.0," xlink:title="1" d="M13736.5781,-3471.6797L13736.5631,-3471.6683L13736.5544,-3471.6618L13736.5393,-3471.6506L13736.4898,-3471.6136L13736.4166,-3471.559L13736.3314,-3471.4954L13736.3276,-3471.4925L13736.3175,-3471.4849L13736.2646,-3471.4452L13736.206,-3471.4016L13736.1324,-3471.3471L13736.1086,-3471.3284L13736.0726,-3471.2998L13736.0283,-3471.2663L13736.0231,-3471.2623L13736.0159,-3471.257L13736.0341,-3471.2475L13736.0557,-3471.2372L13736.0779,-3471.2253L13736.0925,-3471.2185L13736.1262,-3471.2019L13736.1686,-3471.1809L13736.1827,-3471.1737L13736.2132,-3471.158L13736.2802,-3471.1253L13736.2564,-3471.1011L13736.2425,-3471.0879L13736.236,-3471.0811L13736.2261,-3471.0722L13736.1964,-3471.047L13736.1855,-3471.0346L13736.1821,-3471.0289L13736.1759,-3471.0137L13736.1705,-3470.9923L13736.1684,-3470.9851L13736.1609,-3470.9602L13736.1518,-3470.9431L13736.1269,-3470.9264L13736.1187,-3470.9186L13736.0887,-3470.887L13736.0703,-3470.8701L13736.0225,-3470.8459L13735.9891,-3470.8296L13735.8971,-3470.7845L13735.8521,-3470.7619L13735.7737,-3470.7321L13735.7451,-3470.7214L13735.6844,-3470.7005L13735.6646,-3470.6943L13735.6441,-3470.687L13735.6196,-3470.6786L13735.6053,-3470.6741L13735.5956,-3470.6706L13735.4519,-3470.6222L13735.4423,-3470.6188L13735.3612,-3470.5918L13735.3462,-3470.5856L13735.3312,-3470.5806L13735.2774,-3470.5575L13735.2521,-3470.5445L13735.2453,-3470.5417L13735.2058,-3470.5225L13735.1962,-3470.5175L13735.1908,-3470.5152L13735.1812,-3470.5101L13735.1669,-3470.5039L13735.1602,-3470.5005L13735.1273,-3470.4837L13735.0994,-3470.4701L13735.0953,-3470.4679L13735.0792,-3470.461L13735.0631,-3470.4524L13735.0394,-3470.4408L13735.0039,-3470.4239L13734.9884,-3470.4151L13734.948,-3470.3935L13734.9242,-3470.3789L13734.8957,-3470.3596L13734.886,-3470.353L13734.8321,-3470.3177L13734.7592,-3470.2699L13734.7082,-3470.2366L13734.676,-3470.2155L13734.6522,-3470.2003L13734.6119,-3470.175L13734.5642,-3470.1434L13734.5356,-3470.1181L13734.5192,-3470.0989L13734.5165,-3470.095L13734.4967,-3470.0696L13734.4873,-3470.057L13734.4708,-3470.0347L13734.4658,-3470.0286L13734.4613,-3470.0229L13734.4067,-3469.9513L13734.3829,-3469.9271L13734.3495,-3469.8961L13734.3426,-3469.8916L13734.3331,-3469.8854L13734.3161,-3469.8725L13734.2922,-3469.8561L13734.2322,-3469.8178L13734.2076,-3469.8021L13734.1749,-3469.7812L13734.0815,-3469.7221L13734.0597,-3469.708L13734.0311,-3469.6894L13734.0249,-3469.686L13734.0202,-3469.6821L13733.9909,-3469.6641L13733.981,-3469.6571L13733.9684,-3469.6483L13733.9384,-3469.6241L13733.9281,-3469.6139L13733.9159,-3469.6009L13733.9065,-3469.5919L13733.8995,-3469.5852L13733.879,-3469.5638L13733.8695,-3469.5553L13733.8334,-3469.5176L13733.7897,-3469.4725L13733.7795,-3469.4612L13733.77,-3469.4528L13733.7083,-3469.3903L13733.6997,-3469.3818L13733.6718,-3469.3559L13733.6609,-3469.3469L13733.6582,-3469.3458L13733.6432,-3469.3339L13733.6091,-3469.3142L13733.5968,-3469.308L13733.577,-3469.2996L13733.572,-3469.2971L13733.5341,-3469.2844L13733.5191,-3469.281L13733.5034,-3469.2776L13733.4359,-3469.2646L13733.4318,-3469.2641L13733.3889,-3469.2573L13733.3534,-3469.2528L13733.3323,-3469.2485L13733.3172,-3469.2455L13733.3064,-3469.2438L13733.2954,-3469.2416L13733.2784,-3469.2382L13733.242,-3469.2302L13733.2131,-3469.224L13733.1605,-3469.2123L13733.1564,-3469.2117L13733.1543,-3469.2117L13733.1454,-3469.2094L13733.0295,-3469.1846L13732.9859,-3469.1751L13732.962,-3469.17L13732.8986,-3469.1565L13732.8702,-3469.1515L13732.8352,-3469.1391L13732.8299,-3469.1366L13732.8059,-3469.1255L13732.7704,-3469.1036L13732.7619,-3469.0982L13732.7141,-3469.0667L13732.6805,-3469.0472L13732.6677,-3469.0408L13732.6574,-3469.0365L13732.6375,-3469.029L13732.6299,-3469.0255L13732.6017,-3469.0104L13732.5967,-3469.0074L13732.5925,-3469.005L13732.5687,-3468.9892L13732.5427,-3468.9706L13732.5269,-3468.9605L13732.4742,-3468.9246L13732.4292,-3468.894L13732.3776,-3468.8589L13732.3314,-3468.8275L13732.2789,-3468.7916L13732.1827,-3468.7259L13732.1726,-3468.7182L13732.1166,-3468.6805L13732.1084,-3468.6743L13732.1064,-3468.6737L13732.0839,-3468.6579L13732.0464,-3468.6326L13732.0041,-3468.5983L13731.9687,-3468.5605L13731.9575,-3468.5441L13731.9537,-3468.5386L13731.9204,-3468.4819L13731.9003,-3468.4477L13731.8628,-3468.3839L13731.8491,-3468.3606L13731.8385,-3468.3425L13731.8118,-3468.2997L13731.7948,-3468.2804L13731.7894,-3468.2738L13731.7781,-3468.2643L13731.7526,-3468.2434L13731.7253,-3468.227L13731.7051,-3468.2173L13731.6869,-3468.2085L13731.67,-3468.2016L13731.6674,-3468.2006L13731.6237,-3468.1825L13731.6026,-3468.1746L13731.5883,-3468.1679L13731.56,-3468.1564L13731.5467,-3468.151L13731.4748,-3468.1149L13731.4514,-3468.1026L13731.4233,-3468.0879L13731.3728,-3468.0608L13731.347,-3468.0415L13731.2643,-3467.9576L13731.2017,-3467.8935L13731.186,-3467.8789L13731.1844,-3467.8771L13731.1778,-3467.8699L13731.1171,-3467.8181L13731.0987,-3467.8024L13731.0108,-3467.7279L13730.9721,-3467.6951L13730.9604,-3467.6851L13730.9564,-3467.6811L13730.9277,-3467.6563L13730.909,-3467.6415L13730.8956,-3467.631L13730.8833,-3467.6221L13730.8601,-3467.6034L13730.8383,-3467.5893L13730.8158,-3467.5798L13730.8009,-3467.5751L13730.7886,-3467.5708L13730.7806,-3467.5684L13730.7326,-3467.5538L13730.7018,-3467.545L13730.6802,-3467.5381L13730.6665,-3467.5347L13730.644,-3467.5285L13730.5462,-3467.4993L13730.5097,-3467.4885L13730.496,-3467.4847L13730.4838,-3467.4806L13730.4306,-3467.4648L13730.3958,-3467.4547L13730.3699,-3467.444L13730.3552,-3467.4376L13730.3452,-3467.433L13730.3297,-3467.4265L13730.3167,-3467.4209L13730.2649,-3467.3984L13730.2433,-3467.3884L13730.2194,-3467.3767L13730.2007,-3467.3683L13730.1968,-3467.3662L13730.0856,-3467.3133L13730.0529,-3467.298L13730.0195,-3467.2817L13729.9692,-3467.2617L13729.9288,-3467.2463L13729.8811,-3467.2322L13729.8571,-3467.2275L13729.7917,-3467.2172L13729.7191,-3467.2072L13729.6534,-3467.1995L13729.6411,-3467.1989L13729.6253,-3467.1961L13729.579,-3467.191L13729.5741,-3467.1892L13729.5058,-3467.1807L13729.4754,-3467.1767L13729.464,-3467.1744L13729.4529,-3467.1699L13729.4431,-3467.1664L13729.4337,-3467.1624L13729.4242,-3467.1577L13729.4097,-3467.1507L13729.3812,-3467.1363L13729.3329,-3467.1127L13729.275,-3467.0817L13729.247,-3467.0637L13729.2347,-3467.0569L13729.2286,-3467.0502L13729.2177,-3467.0429L13729.1955,-3467.0251L13729.1593,-3466.9967L13729.107,-3466.9567L13729.0965,-3466.9484L13729.0689,-3466.9268L13729.0593,-3466.9206L13729.0377,-3466.9066L13729.0301,-3466.9015L13728.9878,-3466.8784L13728.9551,-3466.8615L13728.917,-3466.8463L13728.8659,-3466.8339L13728.8489,-3466.8322L13728.8298,-3466.8322L13728.8039,-3466.8367L13728.7501,-3466.8435L13728.7267,-3466.8432L13728.7208,-3466.844L13728.6898,-3466.8423L13728.6288,-3466.8389L13728.6022,-3466.8394L13728.5913,-3466.8396L13728.5628,-3466.8401L13728.5451,-3466.8423L13728.5156,-3466.848"/>
<path content="3,田原市,表浜線（右回り）,5.0,5.0,5.0," xlink:title="3" d="M13728.5156,-3465.9113L13728.5308,-3465.9202L13728.5349,-3465.9226L13728.5574,-3465.9354L13728.571,-3465.9444L13728.5976,-3465.9597L13728.635,-3465.9822L13728.6514,-3465.9912L13728.665,-3466.0002L13728.7568,-3466.0836L13728.7999,-3466.1236L13728.8142,-3466.1388L13728.8612,-3466.1782L13728.872,-3466.1868L13728.873,-3466.1883L13728.8789,-3466.1968L13728.8836,-3466.2075L13728.8936,-3466.2364L13728.8986,-3466.2509L13728.9054,-3466.2824L13728.9068,-3466.2875L13728.9157,-3466.3173L13728.9381,-3466.3669L13728.9388,-3466.3686L13728.9495,-3466.3931L13728.9575,-3466.4137L13728.9817,-3466.4666L13728.9906,-3466.4807L13729.0046,-3466.4962L13729.0069,-3466.4987L13729.0246,-3466.5122L13729.0601,-3466.5314L13729.0692,-3466.5353L13729.0816,-3466.5413L13729.09,-3466.5444L13729.1098,-3466.5528L13729.1232,-3466.5601L13729.1983,-3466.5922L13729.252,-3466.6161L13729.2719,-3466.6249L13729.2882,-3466.6317L13729.2957,-3466.6356L13729.3243,-3466.648L13729.3795,-3466.6728L13729.3875,-3466.6767L13729.3965,-3466.6817L13729.4082,-3466.6907L13729.4135,-3466.6973L13729.419,-3466.7038L13729.4232,-3466.7102L13729.4272,-3466.7212L13729.4299,-3466.7336L13729.4306,-3466.7556L13729.4279,-3466.7747L13729.4224,-3466.8001L13729.4147,-3466.83L13729.4046,-3466.8606L13729.4377,-3466.8736L13729.4464,-3466.8771L13729.4524,-3466.8826L13729.4934,-3466.8969L13729.5296,-3466.9077L13729.5533,-3466.9145L13729.5601,-3466.9159L13729.5696,-3466.9165L13729.576,-3466.9164L13729.5776,-3466.9162L13729.595,-3466.914L13729.6128,-3466.9089L13729.6263,-3466.902L13729.6438,-3466.8889L13729.6488,-3466.8841L13729.6744,-3466.8592L13729.6962,-3466.8384L13729.7099,-3466.8255L13729.765,-3466.7742L13729.8338,-3466.7072L13729.8379,-3466.7036L13729.8841,-3466.662L13729.9486,-3466.6072L13730.0354,-3466.5354L13730.0709,-3466.5078L13730.0736,-3466.5067L13730.1267,-3466.4672L13730.1935,-3466.4177L13730.2459,-3466.3805L13730.2868,-3466.3557L13730.3161,-3466.3399L13730.3199,-3466.3383L13730.3474,-3466.3264L13730.4142,-3466.3028L13730.4659,-3466.2909L13730.5141,-3466.2802L13730.6403,-3466.2504L13730.6546,-3466.2476L13730.6655,-3466.2447L13730.6689,-3466.2436L13730.7088,-3466.2349L13730.7152,-3466.2335L13730.7411,-3466.2267L13730.7997,-3466.2132L13730.8133,-3466.2104L13730.8289,-3466.2065L13730.8378,-3466.2054L13730.8603,-3466.2003L13730.8797,-3466.1956L13730.895,-3466.1918L13730.9999,-3466.1682L13731.0027,-3466.1676L13731.1476,-3466.1367L13731.2397,-3466.1141L13731.2805,-3466.1046L13731.2868,-3466.1031L13731.2942,-3466.1012L13731.2948,-3466.1012L13731.3123,-3466.0965L13731.3201,-3466.0944L13731.3786,-3466.0809L13731.4072,-3466.0736L13731.4106,-3466.0724L13731.4427,-3466.0651L13731.4917,-3466.0522L13731.5462,-3466.0381L13731.5571,-3466.0353L13731.6274,-3466.0174L13731.6355,-3466.0151L13731.679,-3466.0032L13731.7342,-3465.9891L13731.7975,-3465.9716L13731.8214,-3465.9638L13731.8929,-3465.9396L13731.9283,-3465.9294L13731.9905,-3465.9099L13732.0659,-3465.8838L13732.1394,-3465.8607L13732.1926,-3465.8472L13732.2492,-3465.8345L13732.2654,-3465.8309L13732.2777,-3465.828L13732.3111,-3465.823L13732.3451,-3465.8179L13732.3587,-3465.8156L13732.3683,-3465.8151L13732.3751,-3465.8139L13732.3989,-3465.8122L13732.5249,-3465.8027L13732.5638,-3465.7993L13732.5733,-3465.7982L13732.6019,-3465.7959L13732.6693,-3465.7914L13732.6932,-3465.7903L13732.7198,-3465.7881L13732.7238,-3465.7881L13732.7313,-3465.7881L13732.747,-3465.7897L13732.8219,-3465.7965L13732.8233,-3465.7965L13732.8341,-3465.7988L13732.8757,-3465.8021L13732.9021,-3465.8054L13732.9173,-3465.8072L13732.9425,-3465.8095L13732.9718,-3465.8134L13732.982,-3465.814L13733.0106,-3465.8191L13733.0398,-3465.8275L13733.0655,-3465.8353L13733.1518,-3465.8616L13733.1908,-3465.8747L13733.2013,-3465.8782L13733.2208,-3465.8859L13733.2801,-3465.9096L13733.3089,-3465.921L13733.3382,-3465.934L13733.3611,-3465.9421L13733.3723,-3465.9458L13733.395,-3465.9522L13733.409,-3465.9559L13733.4136,-3465.9569L13733.4226,-3465.9587L13733.5156,-3465.9816L13733.565,-3465.9937L13733.5991,-3465.9948L13733.6038,-3465.9948L13733.6482,-3465.9953L13733.7046,-3465.9959L13733.7291,-3465.9966L13733.7666,-3465.9976L13733.8368,-3465.9976L13733.8536,-3465.9961L13733.8559,-3465.9959L13733.8797,-3465.9897L13733.9008,-3465.9807L13733.9192,-3465.9666L13733.9542,-3465.9302L13733.9042,-3465.8822L13733.8573,-3465.8448L13733.8452,-3465.8351L13733.83,-3465.823L13733.7816,-3465.7875L13733.7673,-3465.7757L13733.7387,-3465.747L13733.7328,-3465.7397L13733.7224,-3465.7267L13733.7086,-3465.7069L13733.6754,-3465.6591L13733.6433,-3465.6152L13733.6386,-3465.6101L13733.6222,-3465.5853L13733.6105,-3465.5713L13733.594,-3465.5464L13733.5898,-3465.5388L13733.5868,-3465.5329L13733.5834,-3465.5194L13733.5725,-3465.4485L13733.5636,-3465.3882L13733.5643,-3465.3662L13733.5672,-3465.3555L13733.5705,-3465.3463L13733.5929,-3465.2829L13733.5998,-3465.2643L13733.5998,-3465.2519L13733.597,-3465.2446L13733.5813,-3465.2175L13733.5773,-3465.2079L13733.5745,-3465.2023L13733.5453,-3465.1466L13733.5378,-3465.1358L13733.4546,-3465.1405L13733.4006,-3465.1407L13733.3838,-3465.1409L13733.3613,-3465.1387L13733.3525,-3465.1375L13733.3293,-3465.133L13733.3137,-3465.1291L13733.2469,-3465.1099L13733.2081,-3465.097L13733.1958,-3465.0936L13733.1822,-3465.0891L13733.1441,-3465.0761L13733.1257,-3465.0699L13733.1005,-3465.0615L13733.093,-3465.0592L13733.0871,-3465.0572L13733.0797,-3465.0549L13733.0739,-3465.053L13733.0712,-3465.0519L13733.031,-3465.0384L13733.016,-3465.0339L13732.9868,-3465.0249L13732.9431,-3465.0159L13732.8403,-3465.0012L13732.7756,-3464.9905L13732.7443,-3464.9865L13732.7375,-3464.9853L13732.7307,-3464.9848L13732.6939,-3464.9798L13732.6708,-3464.9772L13732.6687,-3464.9769L13732.6442,-3464.9724L13732.6033,-3464.9668L13732.5828,-3464.964L13732.5549,-3464.9603L13732.4889,-3464.9516L13732.4251,-3464.9426L13732.3213,-3464.9279L13732.292,-3464.924L13732.24,-3464.9165L13732.181,-3464.9082L13732.1776,-3464.9071L13732.1585,-3464.9049L13732.1449,-3464.902L13732.1401,-3464.9009L13732.1204,-3464.8975L13732.1006,-3464.8924L13732.0938,-3464.8907L13732.0611,-3464.8789L13732.0257,-3464.8654L13731.9889,-3464.8513L13731.9863,-3464.8503L13731.9222,-3464.8259L13731.882,-3464.8107L13731.8418,-3464.7955L13731.8207,-3464.7876L13731.7907,-3464.7769L13731.7369,-3464.7561L13731.7022,-3464.7426L13731.6811,-3464.7347L13731.6348,-3464.7178L13731.6211,-3464.7127L13731.5681,-3464.6926L13731.5326,-3464.6795L13731.5033,-3464.6677L13731.4522,-3464.6491L13731.4338,-3464.6421L13731.3671,-3464.6175L13731.3437,-3464.6087L13731.2472,-3464.5724L13731.2356,-3464.5685L13731.2009,-3464.5556L13731.1994,-3464.555L13731.1535,-3464.538L13731.0305,-3464.4924L13730.9775,-3464.4727L13730.9625,-3464.4682L13730.9509,-3464.4632L13730.9431,-3464.4606L13730.9305,-3464.4564L13730.9209,-3464.4525L13730.9087,-3464.4491L13730.8944,-3464.4468L13730.8842,-3464.4474L13730.8399,-3464.4587L13730.8344,-3464.4592L13730.7776,-3464.4744L13730.7357,-3464.4817L13730.6921,-3464.4851L13730.6655,-3464.4857L13730.6022,-3464.4817L13730.5836,-3464.4797L13730.5409,-3464.475L13730.5021,-3464.4705L13730.4891,-3464.4685L13730.4762,-3464.4665L13730.468,-3464.4654L13730.3978,-3464.4569L13730.3869,-3464.4552L13730.374,-3464.4536L13730.3597,-3464.4524L13730.3447,-3464.4502L13730.3025,-3464.4453L13730.2957,-3464.4446L13730.2133,-3464.4342L13730.2105,-3464.4339L13730.1506,-3464.4259L13730.1417,-3464.4248L13730.1016,-3464.4192L13730.0798,-3464.4169L13730.0689,-3464.4158L13730.0328,-3464.4107L13729.9538,-3464.4011L13729.8924,-3464.3944L13729.8836,-3464.3932L13729.8604,-3464.3882L13729.8257,-3464.3786L13729.8114,-3464.3736L13729.7739,-3464.3595L13729.7253,-3464.3365L13729.7126,-3464.3296L13729.6847,-3464.3138L13729.6384,-3464.2845L13729.6309,-3464.28L13729.6146,-3464.2682L13729.6074,-3464.2623L13729.5662,-3464.2282L13729.5621,-3464.2254L13729.541,-3464.2119L13729.524,-3464.2017L13729.5144,-3464.1972L13729.5117,-3464.1955L13729.4838,-3464.1865L13729.4736,-3464.1843L13729.4668,-3464.182L13729.4334,-3464.1769L13729.4266,-3464.1758L13729.4102,-3464.173L13729.3864,-3464.1685L13729.3591,-3464.1634L13729.3083,-3464.1557L13729.2971,-3464.1539L13729.2174,-3464.1427L13729.1561,-3464.1341L13729.1405,-3464.1324L13729.1221,-3464.1291L13729.1037,-3464.1229L13729.0588,-3464.1031L13729.0506,-3464.0981L13729.0254,-3464.0851L13729.009,-3464.0767L13728.9293,-3464.0378L13728.8734,-3464.0103L13728.8239,-3463.9859L13728.7965,-3463.9724L13728.7761,-3463.9629L13728.759,-3463.9544L13728.7432,-3463.9471L13728.6931,-3463.9239L13728.6603,-3463.9088L13728.6577,-3463.9077L13728.5973,-3463.8814L13728.5156,-3463.8469"/>
<path content="3,田原市,表浜線（左回り）,5.0,5.0,5.0," xlink:title="3" d="M13728.5156,-3465.9113L13728.5308,-3465.9202L13728.5349,-3465.9226L13728.5574,-3465.9354L13728.571,-3465.9444L13728.5976,-3465.9597L13728.635,-3465.9822L13728.6514,-3465.9912L13728.665,-3466.0002L13728.7568,-3466.0836L13728.7999,-3466.1236L13728.8142,-3466.1388L13728.8612,-3466.1782L13728.872,-3466.1868L13728.873,-3466.1883L13728.8789,-3466.1968L13728.8836,-3466.2075L13728.8936,-3466.2364L13728.8986,-3466.2509L13728.9054,-3466.2824L13728.9068,-3466.2875L13728.9157,-3466.3173L13728.9381,-3466.3669L13728.9388,-3466.3686L13728.9495,-3466.3931L13728.9575,-3466.4137L13728.9817,-3466.4666L13728.9906,-3466.4807L13729.0046,-3466.4962L13729.0069,-3466.4987L13729.0246,-3466.5122L13729.0601,-3466.5314L13729.0692,-3466.5353L13729.0816,-3466.5413L13729.09,-3466.5444L13729.1098,-3466.5528L13729.1232,-3466.5601L13729.1983,-3466.5922L13729.252,-3466.6161L13729.2719,-3466.6249L13729.2882,-3466.6317L13729.2957,-3466.6356L13729.3243,-3466.648L13729.3795,-3466.6728L13729.3875,-3466.6767L13729.3965,-3466.6817L13729.4082,-3466.6907L13729.4135,-3466.6973L13729.419,-3466.7038L13729.4232,-3466.7102L13729.4272,-3466.7212L13729.4299,-3466.7336L13729.4306,-3466.7556L13729.4279,-3466.7747L13729.4224,-3466.8001L13729.4147,-3466.83L13729.4046,-3466.8606L13729.4377,-3466.8736L13729.4464,-3466.8771L13729.4524,-3466.8826L13729.4934,-3466.8969L13729.5296,-3466.9077L13729.5533,-3466.9145L13729.5601,-3466.9159L13729.5696,-3466.9165L13729.576,-3466.9164L13729.5776,-3466.9162L13729.595,-3466.914L13729.6128,-3466.9089L13729.6263,-3466.902L13729.6438,-3466.8889L13729.6488,-3466.8841L13729.6744,-3466.8592L13729.6962,-3466.8384L13729.7099,-3466.8255L13729.765,-3466.7742L13729.8338,-3466.7072L13729.8379,-3466.7036L13729.8841,-3466.662L13729.9486,-3466.6072L13730.0354,-3466.5354L13730.0709,-3466.5078L13730.0736,-3466.5067L13730.1267,-3466.4672L13730.1935,-3466.4177L13730.2459,-3466.3805L13730.2868,-3466.3557L13730.3161,-3466.3399L13730.3199,-3466.3383L13730.3474,-3466.3264L13730.4142,-3466.3028L13730.4659,-3466.2909L13730.5141,-3466.2802L13730.6403,-3466.2504L13730.6546,-3466.2476L13730.6655,-3466.2447L13730.6689,-3466.2436L13730.7088,-3466.2349L13730.7152,-3466.2335L13730.7411,-3466.2267L13730.7997,-3466.2132L13730.8133,-3466.2104L13730.8289,-3466.2065L13730.8378,-3466.2054L13730.8603,-3466.2003L13730.8797,-3466.1956L13730.895,-3466.1918L13730.9999,-3466.1682L13731.0027,-3466.1676L13731.1476,-3466.1367L13731.2397,-3466.1141L13731.2805,-3466.1046L13731.2868,-3466.1031L13731.2942,-3466.1012L13731.2948,-3466.1012L13731.3123,-3466.0965L13731.3201,-3466.0944L13731.3786,-3466.0809L13731.4072,-3466.0736L13731.4106,-3466.0724L13731.4427,-3466.0651L13731.4917,-3466.0522L13731.5462,-3466.0381L13731.5571,-3466.0353L13731.6274,-3466.0174L13731.6355,-3466.0151L13731.679,-3466.0032L13731.7342,-3465.9891L13731.7975,-3465.9716L13731.8214,-3465.9638L13731.8929,-3465.9396L13731.9283,-3465.9294L13731.9905,-3465.9099L13732.0659,-3465.8838L13732.1394,-3465.8607L13732.1926,-3465.8472L13732.2492,-3465.8345L13732.2654,-3465.8309L13732.2777,-3465.828L13732.3111,-3465.823L13732.3451,-3465.8179L13732.3587,-3465.8156L13732.3683,-3465.8151L13732.3751,-3465.8139L13732.3989,-3465.8122L13732.5249,-3465.8027L13732.5638,-3465.7993L13732.5733,-3465.7982L13732.6019,-3465.7959L13732.6693,-3465.7914L13732.6932,-3465.7903L13732.7198,-3465.7881L13732.7238,-3465.7881L13732.7313,-3465.7881L13732.747,-3465.7897L13732.8219,-3465.7965L13732.8233,-3465.7965L13732.8341,-3465.7988L13732.8757,-3465.8021L13732.9021,-3465.8054L13732.9173,-3465.8072L13732.9425,-3465.8095L13732.9718,-3465.8134L13732.982,-3465.814L13733.0106,-3465.8191L13733.0398,-3465.8275L13733.0655,-3465.8353L13733.1518,-3465.8616L13733.1908,-3465.8747L13733.2013,-3465.8782L13733.2208,-3465.8859L13733.2801,-3465.9096L13733.3089,-3465.921L13733.3382,-3465.934L13733.3611,-3465.9421L13733.3723,-3465.9458L13733.395,-3465.9522L13733.409,-3465.9559L13733.4136,-3465.9569L13733.4226,-3465.9587L13733.5156,-3465.9816L13733.565,-3465.9937L13733.5991,-3465.9948L13733.6038,-3465.9948L13733.6482,-3465.9953L13733.7046,-3465.9959L13733.7291,-3465.9966L13733.7666,-3465.9976L13733.8368,-3465.9976L13733.8536,-3465.9961L13733.8559,-3465.9959L13733.8797,-3465.9897L13733.9008,-3465.9807L13733.9192,-3465.9666L13733.9542,-3465.9302L13733.9042,-3465.8822L13733.8573,-3465.8448L13733.8452,-3465.8351L13733.83,-3465.823L13733.7816,-3465.7875L13733.7673,-3465.7757L13733.7387,-3465.747L13733.7328,-3465.7397L13733.7224,-3465.7267L13733.7086,-3465.7069L13733.6754,-3465.6591L13733.6433,-3465.6152L13733.6386,-3465.6101L13733.6222,-3465.5853L13733.6105,-3465.5713L13733.594,-3465.5464L13733.5898,-3465.5388L13733.5868,-3465.5329L13733.5834,-3465.5194L13733.5725,-3465.4485L13733.5636,-3465.3882L13733.5643,-3465.3662L13733.5672,-3465.3555L13733.5705,-3465.3463L13733.5929,-3465.2829L13733.5998,-3465.2643L13733.5998,-3465.2519L13733.597,-3465.2446L13733.5813,-3465.2175L13733.5773,-3465.2079L13733.5745,-3465.2023L13733.5453,-3465.1466L13733.5378,-3465.1358L13733.4546,-3465.1405L13733.4006,-3465.1407L13733.3838,-3465.1409L13733.3613,-3465.1387L13733.3525,-3465.1375L13733.3293,-3465.133L13733.3137,-3465.1291L13733.2469,-3465.1099L13733.2081,-3465.097L13733.1958,-3465.0936L13733.1822,-3465.0891L13733.1441,-3465.0761L13733.1257,-3465.0699L13733.1005,-3465.0615L13733.093,-3465.0592L13733.0871,-3465.0572L13733.0797,-3465.0549L13733.0739,-3465.053L13733.0712,-3465.0519L13733.031,-3465.0384L13733.016,-3465.0339L13732.9868,-3465.0249L13732.9431,-3465.0159L13732.8403,-3465.0012L13732.7756,-3464.9905L13732.7443,-3464.9865L13732.7375,-3464.9853L13732.7307,-3464.9848L13732.6939,-3464.9798L13732.6708,-3464.9772L13732.6687,-3464.9769L13732.6442,-3464.9724L13732.6033,-3464.9668L13732.5828,-3464.964L13732.5549,-3464.9603L13732.4889,-3464.9516L13732.4251,-3464.9426L13732.3213,-3464.9279L13732.292,-3464.924L13732.24,-3464.9165L13732.181,-3464.9082L13732.1776,-3464.9071L13732.1585,-3464.9049L13732.1449,-3464.902L13732.1401,-3464.9009L13732.1204,-3464.8975L13732.1006,-3464.8924L13732.0938,-3464.8907L13732.0611,-3464.8789L13732.0257,-3464.8654L13731.9889,-3464.8513L13731.9863,-3464.8503L13731.9222,-3464.8259L13731.882,-3464.8107L13731.8418,-3464.7955L13731.8207,-3464.7876L13731.7907,-3464.7769L13731.7369,-3464.7561L13731.7022,-3464.7426L13731.6811,-3464.7347L13731.6348,-3464.7178L13731.6211,-3464.7127L13731.5681,-3464.6926L13731.5326,-3464.6795L13731.5033,-3464.6677L13731.4522,-3464.6491L13731.4338,-3464.6421L13731.3671,-3464.6175L13731.3437,-3464.6087L13731.2472,-3464.5724L13731.2356,-3464.5685L13731.2009,-3464.5556L13731.1994,-3464.555L13731.1535,-3464.538L13731.0305,-3464.4924L13730.9775,-3464.4727L13730.9625,-3464.4682L13730.9509,-3464.4632L13730.9431,-3464.4606L13730.9305,-3464.4564L13730.9209,-3464.4525L13730.9087,-3464.4491L13730.8944,-3464.4468L13730.8842,-3464.4474L13730.8399,-3464.4587L13730.8344,-3464.4592L13730.7776,-3464.4744L13730.7357,-3464.4817L13730.6921,-3464.4851L13730.6655,-3464.4857L13730.6022,-3464.4817L13730.5836,-3464.4797L13730.5409,-3464.475L13730.5021,-3464.4705L13730.4891,-3464.4685L13730.4762,-3464.4665L13730.468,-3464.4654L13730.3978,-3464.4569L13730.3869,-3464.4552L13730.374,-3464.4536L13730.3597,-3464.4524L13730.3447,-3464.4502L13730.3025,-3464.4453L13730.2957,-3464.4446L13730.2133,-3464.4342L13730.2105,-3464.4339L13730.1506,-3464.4259L13730.1417,-3464.4248L13730.1016,-3464.4192L13730.0798,-3464.4169L13730.0689,-3464.4158L13730.0328,-3464.4107L13729.9538,-3464.4011L13729.8924,-3464.3944L13729.8836,-3464.3932L13729.8604,-3464.3882L13729.8257,-3464.3786L13729.8114,-3464.3736L13729.7739,-3464.3595L13729.7253,-3464.3365L13729.7126,-3464.3296L13729.6847,-3464.3138L13729.6384,-3464.2845L13729.6309,-3464.28L13729.6146,-3464.2682L13729.6074,-3464.2623L13729.5662,-3464.2282L13729.5621,-3464.2254L13729.541,-3464.2119L13729.524,-3464.2017L13729.5144,-3464.1972L13729.5117,-3464.1955L13729.4838,-3464.1865L13729.4736,-3464.1843L13729.4668,-3464.182L13729.4334,-3464.1769L13729.4266,-3464.1758L13729.4102,-3464.173L13729.3864,-3464.1685L13729.3591,-3464.1634L13729.3083,-3464.1557L13729.2971,-3464.1539L13729.2174,-3464.1427L13729.1561,-3464.1341L13729.1405,-3464.1324L13729.1221,-3464.1291L13729.1037,-3464.1229L13729.0588,-3464.1031L13729.0506,-3464.0981L13729.0254,-3464.0851L13729.009,-3464.0767L13728.9293,-3464.0378L13728.8734,-3464.0103L13728.8239,-3463.9859L13728.7965,-3463.9724L13728.7761,-3463.9629L13728.759,-3463.9544L13728.7432,-3463.9471L13728.6931,-3463.9239L13728.6603,-3463.9088L13728.6577,-3463.9077L13728.5973,-3463.8814L13728.5156,-3463.8469"/>
</g>
</svg>
