<?xml version="1.0" encoding="UTF-8"?>
<svg  xmlns="http://www.w3.org/2000/svg" xmlns:xlink="http://www.w3.org/1999/xlink" xmlns:go="http://purl.org/svgmap/profile" property="N07_001,N07_002,N07_003,N07_004,N07_005,N07_006,N07_007" viewBox="13772.4609375 -3541.9921875 8.7890625 8.7890625" go:dataArea="13772.4609375 -3541.9921875 8.7890625 8.7890625" >
<metadata>
 <rdf:RDF xmlns:rdf="http://www.w3.org/1999/02/22-rdf-syntax-ns#" xmlns:crs="http://opengis.org/xmldtds/transformations.dtd" xmlns:svg="http://www.w3.org/svg" >
  <rdf:Description>
   <crs:CoordinateReferenceSystem rdf:resource="http://purl.org/crs/84" svg:transform="matrix(100.0,0.0,0.0,-100.0,0.0,0.0)" />
  </rdf:Description>
 </rdf:RDF>
</metadata>
<globalCoordinateSystem srsName="http://purl.org/crs/84" transform="matrix(100.0,0.0,0.0,-100.0,0.0,0.0)" />
<defs>
 <g id="p0" >
  <circle cx="0.0" cy="0.0" r="3" stroke="green" stroke-width="0.75" vector-effect="non-scaling-stroke" />
 </g>
</defs>
<g fill="none" fill-rule="evenodd" stroke="#FF00FF" stroke-width="0.75" opacity="0.5" vector-effect="non-scaling-stroke" stroke-linejoin="bevel" >
<path content="3,阿南町,南部公共バス阿南線_01_on,1.0,0.0,0.0," xlink:title="3" d="M13779.6211,-3541.9922L13779.6194,-3541.9894L13779.6103,-3541.9787L13779.6041,-3541.9719L13779.5953,-3541.9623L13779.5942,-3541.9611L13779.5893,-3541.9555L13779.5815,-3541.938L13779.578,-3541.9341L13779.5755,-3541.9283L13779.5629,-3541.8993L13779.5621,-3541.8976L13779.556,-3541.8846L13779.5443,-3541.8655L13779.5292,-3541.8469L13779.5086,-3541.8267L13779.4942,-3541.816L13779.4824,-3541.8092L13779.4784,-3541.807L13779.4626,-3541.8008L13779.42,-3541.7827L13779.4,-3541.7704L13779.3739,-3541.7456L13779.3616,-3541.7304L13779.3492,-3541.7073L13779.3375,-3541.6808L13779.3271,-3541.6373L13779.3251,-3541.6196L13779.3246,-3541.5803L13779.3298,-3541.5481L13779.334,-3541.5219L13779.3588,-3541.3684L13779.3692,-3541.3045L13779.3701,-3541.3004L13779.3732,-3541.2543L13779.3725,-3541.2447L13779.3732,-3541.2361L13779.3705,-3541.2225L13779.3657,-3541.2106L13779.3595,-3541.2005L13779.354,-3541.1932L13779.3492,-3541.1831L13779.3437,-3541.1634L13779.3444,-3541.1324L13779.3534,-3541.0947L13779.3547,-3541.0558L13779.3451,-3541.0248L13779.3369,-3541.0068L13779.3149,-3540.9562L13779.3053,-3540.9302L13779.2998,-3540.9156L13779.29,-3540.8868L13779.2812,-3540.8571L13779.2736,-3540.839L13779.2654,-3540.8238L13779.2564,-3540.8131L13779.2386,-3540.7996L13779.2194,-3540.7867L13779.1822,-3540.7608L13779.1637,-3540.7489L13779.1417,-3540.7292L13779.1128,-3540.7011L13779.0799,-3540.6645L13779.051,-3540.6318L13779.0276,-3540.602L13779.0166,-3540.5852L13778.9995,-3540.5637L13778.9892,-3540.5474L13778.9864,-3540.5395L13778.9789,-3540.5192L13778.9775,-3540.4888L13778.9816,-3540.4573L13778.9816,-3540.4533L13778.9817,-3540.4521L13778.983,-3540.4331L13778.9844,-3540.4179L13778.9854,-3540.3902L13778.992,-3540.2194L13778.9955,-3540.1457L13778.9961,-3540.1341L13778.9961,-3540.1091L13778.9961,-3540.1031L13778.9951,-3540.0893L13778.9881,-3540.0777L13778.978,-3540.0676L13778.9197,-3540.0359L13778.8689,-3540.0085L13778.8277,-3539.9871L13778.8002,-3539.9714L13778.781,-3539.9611L13778.7734,-3539.9578L13778.7631,-3539.9511L13778.7281,-3539.9319L13778.7191,-3539.9241L13778.7088,-3539.9088L13778.7026,-3539.8976L13778.6992,-3539.8897L13778.6868,-3539.8603L13778.6779,-3539.8418L13778.6704,-3539.8193L13778.6657,-3539.8046L13778.6705,-3539.7889L13778.6799,-3539.7659L13778.6837,-3539.7587L13778.7296,-3539.721L13778.8002,-3539.6616L13778.8146,-3539.6509L13778.8231,-3539.6464L13778.8465,-3539.6352L13778.8715,-3539.6273L13778.8822,-3539.6249L13778.8952,-3539.6253L13778.9103,-3539.6281L13778.9282,-3539.6331L13778.953,-3539.6399L13778.98,-3539.6486L13778.9995,-3539.6552L13779.0044,-3539.6569L13779.0443,-3539.6704L13779.0693,-3539.6743L13779.0956,-3539.676L13779.1211,-3539.6757L13779.136,-3539.6736L13779.1479,-3539.6694L13779.161,-3539.6614L13779.1678,-3539.6506L13779.1704,-3539.6451L13779.1759,-3539.6319L13779.1776,-3539.6228L13779.1839,-3539.5863L13779.1848,-3539.5745L13779.1827,-3539.5522L13779.1767,-3539.5213L13779.1761,-3539.5152L13779.172,-3539.4837L13779.172,-3539.468L13779.1754,-3539.4533L13779.1823,-3539.4404L13779.2016,-3539.4196L13779.223,-3539.402L13779.2934,-3539.3412L13779.3172,-3539.3172L13779.3198,-3539.3131L13779.3232,-3539.3047L13779.3294,-3539.2771L13779.3339,-3539.259L13779.3452,-3539.214L13779.3466,-3539.2078L13779.3622,-3539.1505L13779.3665,-3539.1363L13779.3761,-3539.0997L13779.3816,-3539.0761L13779.3967,-3539.022L13779.4063,-3538.9897L13779.4139,-3538.9561L13779.4167,-3538.946L13779.418,-3538.9094L13779.416,-3538.9004L13779.4077,-3538.8807L13779.4009,-3538.8672L13779.3892,-3538.8514L13779.3734,-3538.8345L13779.3493,-3538.8148L13779.3294,-3538.8024L13779.3281,-3538.8019L13779.3203,-3538.7986L13779.3096,-3538.7955L13779.2937,-3538.7908L13779.2681,-3538.7847L13779.2378,-3538.7799L13779.176,-3538.7676L13779.1534,-3538.7617L13779.1405,-3538.7582L13779.139,-3538.7579L13779.1239,-3538.7523L13779.1129,-3538.7484L13779.0882,-3538.736L13779.0552,-3538.718L13779.0257,-3538.6932L13779.0112,-3538.6769L13778.9865,-3538.6402L13778.9783,-3538.6234L13778.9752,-3538.6151L13778.9714,-3538.6048L13778.9604,-3538.5614L13778.9451,-3538.4959L13778.9448,-3538.4943L13778.9333,-3538.439L13778.9233,-3538.3756L13778.9168,-3538.3324L13778.9164,-3538.3283L13778.9116,-3538.2776L13778.9089,-3538.2298L13778.9058,-3538.1658L13778.9006,-3538.0549L13778.9006,-3538.0514L13778.9003,-3538.0059L13778.8976,-3537.981L13778.8896,-3537.8035L13778.8896,-3537.7236L13778.8953,-3537.6916L13778.9003,-3537.6744L13778.9021,-3537.6712L13778.9156,-3537.6477L13778.9405,-3537.6164L13778.9705,-3537.5884L13778.9738,-3537.5857L13779.0319,-3537.5329L13779.0556,-3537.5129L13779.0604,-3537.5089L13779.0921,-3537.4813L13779.1399,-3537.4357L13779.1426,-3537.4332L13779.1607,-3537.4134L13779.1801,-3537.3889L13779.1914,-3537.3674L13779.1992,-3537.3456L13779.2185,-3537.2912L13779.2196,-3537.2839L13779.2246,-3537.2495L13779.2294,-3537.2233L13779.2298,-3537.2213L13779.2312,-3537.2129L13779.2436,-3537.1701L13779.2504,-3537.1571L13779.2608,-3537.1414L13779.2745,-3537.1256L13779.2819,-3537.1194L13779.3329,-3537.0806L13779.3438,-3537.0736L13779.3453,-3537.0727L13779.3776,-3537.0518L13779.4009,-3537.0344L13779.4037,-3537.0332L13779.4167,-3537.0237L13779.4305,-3537.0119L13779.4415,-3537.0006L13779.4531,-3536.9854L13779.46,-3536.9719L13779.4682,-3536.948L13779.4683,-3536.9466L13779.4689,-3536.9139L13779.4648,-3536.8886L13779.4619,-3536.8768L13779.4555,-3536.8619L13779.4353,-3536.821L13779.4195,-3536.7883L13779.4105,-3536.772L13779.4071,-3536.763L13779.3557,-3536.6462L13779.3522,-3536.6373L13779.3424,-3536.6126L13779.3521,-3536.4865L13779.3532,-3536.4706L13779.3579,-3536.4219L13779.3603,-3536.3986L13779.361,-3536.3901L13779.3597,-3536.3549L13779.3565,-3536.3284L13779.3504,-3536.2977L13779.3442,-3536.2762L13779.3047,-3536.1629L13779.2876,-3536.1182L13779.2715,-3536.0764L13779.2539,-3536.031L13779.2497,-3536.0149L13779.2459,-3536.0013L13779.2449,-3535.9884L13779.2466,-3535.9786L13779.2488,-3535.9715L13779.2519,-3535.964L13779.2546,-3535.9585L13779.258,-3535.9516L13779.2621,-3535.9415L13779.2697,-3535.9268L13779.2738,-3535.9184L13779.2933,-3535.8884L13779.3114,-3535.8605L13779.3134,-3535.8576L13779.3198,-3535.8477L13779.3398,-3535.825L13779.3574,-3535.8076L13779.3714,-3535.7988L13779.3919,-3535.7899L13779.4115,-3535.7853L13779.4271,-3535.7857L13779.449,-3535.7894L13779.4544,-3535.7903L13779.48,-3535.7981L13779.5024,-3535.8093L13779.5309,-3535.8293L13779.5397,-3535.8366L13779.5434,-3535.8387L13779.5485,-3535.8409L13779.5511,-3535.8422L13779.5741,-3535.8491L13779.6113,-3535.8559L13779.6539,-3535.8621L13779.7253,-3535.8688L13779.7627,-3535.8699L13779.7815,-3535.8693L13779.7966,-3535.8652L13779.8048,-3535.8592L13779.8154,-3535.8449L13779.8168,-3535.8416L13779.8193,-3535.8331L13779.8332,-3535.7877L13779.8366,-3535.7726L13779.8435,-3535.7455L13779.8519,-3535.7176L13779.8552,-3535.7112L13779.8607,-3535.7033L13779.8786,-3535.6852L13779.8951,-3535.6661L13779.9019,-3535.6431L13779.9191,-3535.576L13779.9267,-3535.5563L13779.9397,-3535.5332L13779.9507,-3535.518L13779.9652,-3535.5034L13779.9908,-3535.4824L13780.0153,-3535.455L13780.0325,-3535.4364L13780.0511,-3535.406L13780.0586,-3535.388L13780.0634,-3535.3688L13780.0641,-3535.3536L13780.0607,-3535.3345L13780.0504,-3535.3074L13780.0442,-3535.2962L13780.0284,-3535.2737L13780.0112,-3535.2551L13779.9989,-3535.2444L13779.9844,-3535.2348L13779.9621,-3535.2262L13779.9583,-3535.2252L13779.926,-3535.2168L13779.9026,-3535.2123L13779.9014,-3535.212L13779.8544,-3535.203L13779.7741,-3535.1875L13779.7597,-3535.1824L13779.7439,-3535.174L13779.7315,-3535.1639L13779.7231,-3535.1489L13779.6999,-3535.1014L13779.6858,-3535.0637L13779.6824,-3535.0482L13779.6736,-3535.0041L13779.6728,-3534.9986L13779.657,-3534.9372L13779.6556,-3534.9236L13779.6551,-3534.9191L13779.6587,-3534.8949L13779.6681,-3534.8578L13779.6707,-3534.8466L13779.6814,-3534.826L13779.6931,-3534.8024L13779.7006,-3534.7883L13779.7054,-3534.7814L13779.7123,-3534.7703L13779.7432,-3534.7174L13779.7801,-3534.6418L13779.8132,-3534.5419L13779.841,-3534.4436L13779.8436,-3534.435L13779.858,-3534.3874L13779.8601,-3534.3808L13779.8633,-3534.3665L13779.8754,-3534.3131L13779.8806,-3534.2911L13779.8855,-3534.2562L13779.8881,-3534.2327L13779.8965,-3534.1762L13779.9006,-3534.1464L13779.9006,-3534.134L13779.9047,-3534.1019L13779.9047,-3534.0721L13779.9027,-3534.0518L13779.9013,-3534.0316L13779.899,-3534.0015L13779.8972,-3533.9856L13779.8982,-3533.9764L13779.897,-3533.9058L13779.8976,-3533.8201L13779.8979,-3533.7872L13779.9054,-3533.7207L13779.9082,-3533.6999L13779.912,-3533.6793L13779.9183,-3533.6571L13779.9213,-3533.6381L13779.9244,-3533.6271L13779.9261,-3533.6115L13779.9302,-3533.5935L13779.9386,-3533.5712L13779.9474,-3533.5529L13779.9577,-3533.5315L13779.9879,-3533.4848L13780.0139,-3533.4527L13780.0469,-3533.4178L13780.0565,-3533.4094L13780.0751,-3533.3936L13780.1039,-3533.3739L13780.1238,-3533.3621L13780.1307,-3533.3576L13780.1643,-3533.3407L13780.2117,-3533.3209L13780.2879,-3533.2962L13780.3016,-3533.2928L13780.3195,-3533.2889L13780.3503,-3533.2858L13780.3902,-3533.2821L13780.4423,-3533.2832L13780.4808,-3533.2855L13780.5117,-3533.2855L13780.5261,-3533.2849L13780.5488,-3533.2816L13780.5741,-3533.2748L13780.5899,-3533.2669L13780.5959,-3533.2626L13780.6069,-3533.2541L13780.638,-3533.2393L13780.6648,-3533.2309L13780.684,-3533.2264L13780.7217,-3533.2219L13780.7633,-3533.2203L13780.7986,-3533.2185L13780.8316,-3533.214L13780.8542,-3533.2106L13780.8867,-3533.2031"/>
<path content="3,阿南町,南部公共バス阿南線_03_on,8.0,0.0,0.0," xlink:title="3" d="M13779.6211,-3541.9922L13779.6194,-3541.9894L13779.6103,-3541.9787L13779.6041,-3541.9719L13779.5953,-3541.9623L13779.5942,-3541.9611L13779.5893,-3541.9555L13779.5815,-3541.938L13779.578,-3541.9341L13779.5755,-3541.9283L13779.5629,-3541.8993L13779.5621,-3541.8976L13779.556,-3541.8846L13779.5443,-3541.8655L13779.5292,-3541.8469L13779.5086,-3541.8267L13779.4942,-3541.816L13779.4824,-3541.8092L13779.4784,-3541.807L13779.4626,-3541.8008L13779.42,-3541.7827L13779.4,-3541.7704L13779.3739,-3541.7456L13779.3616,-3541.7304L13779.3492,-3541.7073L13779.3375,-3541.6808L13779.3271,-3541.6373L13779.3251,-3541.6196L13779.3246,-3541.5803L13779.3298,-3541.5481L13779.334,-3541.5219L13779.3588,-3541.3684L13779.3692,-3541.3045L13779.3701,-3541.3004L13779.3732,-3541.2543L13779.3725,-3541.2447L13779.3732,-3541.2361L13779.3705,-3541.2225L13779.3657,-3541.2106L13779.3595,-3541.2005L13779.354,-3541.1932L13779.3492,-3541.1831L13779.3437,-3541.1634L13779.3444,-3541.1324L13779.3534,-3541.0947L13779.3547,-3541.0558L13779.3451,-3541.0248L13779.3369,-3541.0068L13779.3149,-3540.9562L13779.3053,-3540.9302L13779.2998,-3540.9156L13779.29,-3540.8868L13779.2812,-3540.8571L13779.2736,-3540.839L13779.2654,-3540.8238L13779.2564,-3540.8131L13779.2386,-3540.7996L13779.2194,-3540.7867L13779.1822,-3540.7608L13779.1637,-3540.7489L13779.1417,-3540.7292L13779.1128,-3540.7011L13779.0799,-3540.6645L13779.051,-3540.6318L13779.0276,-3540.602L13779.0166,-3540.5852L13778.9995,-3540.5637L13778.9892,-3540.5474L13778.9864,-3540.5395L13778.9789,-3540.5192L13778.9775,-3540.4888L13778.9816,-3540.4573L13778.9816,-3540.4533L13778.9817,-3540.4521L13778.983,-3540.4331L13778.9844,-3540.4179L13778.9854,-3540.3902L13778.992,-3540.2194L13778.9955,-3540.1457L13778.9961,-3540.1341L13778.9961,-3540.1091L13778.9961,-3540.1031L13778.9951,-3540.0893L13778.9881,-3540.0777L13778.978,-3540.0676L13778.9197,-3540.0359L13778.8689,-3540.0085L13778.8277,-3539.9871L13778.8002,-3539.9714L13778.781,-3539.9611L13778.7734,-3539.9578L13778.7631,-3539.9511L13778.7281,-3539.9319L13778.7191,-3539.9241L13778.7088,-3539.9088L13778.7026,-3539.8976L13778.6992,-3539.8897L13778.6868,-3539.8603L13778.6779,-3539.8418L13778.6704,-3539.8193L13778.6657,-3539.8046L13778.6705,-3539.7889L13778.6799,-3539.7659L13778.6837,-3539.7587L13778.7296,-3539.721L13778.8002,-3539.6616L13778.8146,-3539.6509L13778.8231,-3539.6464L13778.8465,-3539.6352L13778.8715,-3539.6273L13778.8822,-3539.6249L13778.8952,-3539.6253L13778.9103,-3539.6281L13778.9282,-3539.6331L13778.953,-3539.6399L13778.98,-3539.6486L13778.9995,-3539.6552L13779.0044,-3539.6569L13779.0443,-3539.6704L13779.0693,-3539.6743L13779.0956,-3539.676L13779.1211,-3539.6757L13779.136,-3539.6736L13779.1479,-3539.6694L13779.161,-3539.6614L13779.1678,-3539.6506L13779.1704,-3539.6451L13779.1759,-3539.6319L13779.1776,-3539.6228L13779.1839,-3539.5863L13779.1848,-3539.5745L13779.1827,-3539.5522L13779.1767,-3539.5213L13779.1761,-3539.5152L13779.172,-3539.4837L13779.172,-3539.468L13779.1754,-3539.4533L13779.1823,-3539.4404L13779.2016,-3539.4196L13779.223,-3539.402L13779.2934,-3539.3412L13779.3172,-3539.3172L13779.3198,-3539.3131L13779.3232,-3539.3047L13779.3294,-3539.2771L13779.3339,-3539.259L13779.3452,-3539.214L13779.3466,-3539.2078L13779.3622,-3539.1505L13779.3665,-3539.1363L13779.3761,-3539.0997L13779.3816,-3539.0761L13779.3967,-3539.022L13779.4063,-3538.9897L13779.4139,-3538.9561L13779.4167,-3538.946L13779.418,-3538.9094L13779.416,-3538.9004L13779.4077,-3538.8807L13779.4009,-3538.8672L13779.3892,-3538.8514L13779.3734,-3538.8345L13779.3493,-3538.8148L13779.3294,-3538.8024L13779.3281,-3538.8019L13779.3203,-3538.7986L13779.3096,-3538.7955L13779.2937,-3538.7908L13779.2681,-3538.7847L13779.2378,-3538.7799L13779.176,-3538.7676L13779.1534,-3538.7617L13779.1405,-3538.7582L13779.139,-3538.7579L13779.1239,-3538.7523L13779.1129,-3538.7484L13779.0882,-3538.736L13779.0552,-3538.718L13779.0257,-3538.6932L13779.0112,-3538.6769L13778.9865,-3538.6402L13778.9783,-3538.6234L13778.9752,-3538.6151L13778.9714,-3538.6048L13778.9604,-3538.5614L13778.9451,-3538.4959L13778.9448,-3538.4943L13778.9333,-3538.439L13778.9233,-3538.3756L13778.9168,-3538.3324L13778.9164,-3538.3283L13778.9116,-3538.2776L13778.9089,-3538.2298L13778.9058,-3538.1658L13778.9006,-3538.0549L13778.9006,-3538.0514L13778.9003,-3538.0059L13778.8976,-3537.981L13778.8896,-3537.8035L13778.8896,-3537.7236L13778.8953,-3537.6916L13778.9003,-3537.6744L13778.9021,-3537.6712L13778.9156,-3537.6477L13778.9405,-3537.6164L13778.9705,-3537.5884L13778.9738,-3537.5857L13779.0319,-3537.5329L13779.0556,-3537.5129L13779.0604,-3537.5089L13779.0921,-3537.4813L13779.1399,-3537.4357L13779.1426,-3537.4332L13779.1607,-3537.4134L13779.1801,-3537.3889L13779.1914,-3537.3674L13779.1992,-3537.3456L13779.2185,-3537.2912L13779.2196,-3537.2839L13779.2246,-3537.2495L13779.2294,-3537.2233L13779.2298,-3537.2213L13779.2312,-3537.2129L13779.2436,-3537.1701L13779.2504,-3537.1571L13779.2608,-3537.1414L13779.2745,-3537.1256L13779.2819,-3537.1194L13779.3329,-3537.0806L13779.3438,-3537.0736L13779.3453,-3537.0727L13779.3776,-3537.0518L13779.4009,-3537.0344L13779.4037,-3537.0332L13779.4167,-3537.0237L13779.4305,-3537.0119L13779.4415,-3537.0006L13779.4531,-3536.9854L13779.46,-3536.9719L13779.4682,-3536.948L13779.4683,-3536.9466L13779.4689,-3536.9139L13779.4648,-3536.8886L13779.4619,-3536.8768L13779.4555,-3536.8619L13779.4353,-3536.821L13779.4195,-3536.7883L13779.4105,-3536.772L13779.4071,-3536.763L13779.3557,-3536.6462L13779.3522,-3536.6373L13779.3424,-3536.6126L13779.3521,-3536.4865L13779.3532,-3536.4706L13779.3579,-3536.4219L13779.3603,-3536.3986L13779.361,-3536.3901L13779.3597,-3536.3549L13779.3565,-3536.3284L13779.3504,-3536.2977L13779.3442,-3536.2762L13779.3047,-3536.1629L13779.2876,-3536.1182L13779.2715,-3536.0764L13779.2539,-3536.031L13779.2497,-3536.0149L13779.2459,-3536.0013L13779.2449,-3535.9884L13779.2466,-3535.9786L13779.2488,-3535.9715L13779.2519,-3535.964L13779.2546,-3535.9585L13779.258,-3535.9516L13779.2621,-3535.9415L13779.2697,-3535.9268L13779.2738,-3535.9184L13779.2933,-3535.8884L13779.3114,-3535.8605L13779.3134,-3535.8576L13779.3198,-3535.8477L13779.3398,-3535.825L13779.3574,-3535.8076L13779.3714,-3535.7988L13779.3919,-3535.7899L13779.4115,-3535.7853L13779.4271,-3535.7857L13779.449,-3535.7894L13779.4544,-3535.7903L13779.48,-3535.7981L13779.5024,-3535.8093L13779.5309,-3535.8293L13779.5397,-3535.8366L13779.5434,-3535.8387L13779.5485,-3535.8409L13779.5511,-3535.8422L13779.5741,-3535.8491L13779.6113,-3535.8559L13779.6539,-3535.8621L13779.7253,-3535.8688L13779.7627,-3535.8699L13779.7815,-3535.8693L13779.7966,-3535.8652L13779.8048,-3535.8592L13779.8154,-3535.8449L13779.8168,-3535.8416L13779.8193,-3535.8331L13779.8332,-3535.7877L13779.8366,-3535.7726L13779.8435,-3535.7455L13779.8519,-3535.7176L13779.8552,-3535.7112L13779.8607,-3535.7033L13779.8786,-3535.6852L13779.8951,-3535.6661L13779.9019,-3535.6431L13779.9191,-3535.576L13779.9267,-3535.5563L13779.9397,-3535.5332L13779.9507,-3535.518L13779.9652,-3535.5034L13779.9908,-3535.4824L13780.0153,-3535.455L13780.0325,-3535.4364L13780.0511,-3535.406L13780.0586,-3535.388L13780.0634,-3535.3688L13780.0641,-3535.3536L13780.0607,-3535.3345L13780.0504,-3535.3074L13780.0442,-3535.2962L13780.0284,-3535.2737L13780.0112,-3535.2551L13779.9989,-3535.2444L13779.9844,-3535.2348L13779.9621,-3535.2262L13779.9583,-3535.2252L13779.926,-3535.2168L13779.9026,-3535.2123L13779.9014,-3535.212L13779.8544,-3535.203L13779.7741,-3535.1875L13779.7597,-3535.1824L13779.7439,-3535.174L13779.7315,-3535.1639L13779.7231,-3535.1489L13779.6999,-3535.1014L13779.6858,-3535.0637L13779.6824,-3535.0482L13779.6736,-3535.0041L13779.6728,-3534.9986L13779.657,-3534.9372L13779.6556,-3534.9236L13779.6551,-3534.9191L13779.6587,-3534.8949L13779.6681,-3534.8578L13779.6707,-3534.8466L13779.6814,-3534.826L13779.6931,-3534.8024L13779.7006,-3534.7883L13779.7054,-3534.7814L13779.7123,-3534.7703L13779.7432,-3534.7174L13779.7801,-3534.6418L13779.8132,-3534.5419L13779.841,-3534.4436L13779.8436,-3534.435L13779.858,-3534.3874L13779.8601,-3534.3808L13779.8633,-3534.3665L13779.8754,-3534.3131L13779.8806,-3534.2911L13779.8855,-3534.2562L13779.8881,-3534.2327L13779.8965,-3534.1762L13779.9006,-3534.1464L13779.9006,-3534.134L13779.9047,-3534.1019L13779.9047,-3534.0721L13779.9027,-3534.0518L13779.9013,-3534.0316L13779.899,-3534.0015L13779.8972,-3533.9856L13779.8982,-3533.9764L13779.897,-3533.9058L13779.8976,-3533.8201L13779.8979,-3533.7872L13779.9054,-3533.7207L13779.9082,-3533.6999L13779.912,-3533.6793L13779.9183,-3533.6571L13779.9213,-3533.6381L13779.9244,-3533.6271L13779.9261,-3533.6115L13779.9302,-3533.5935L13779.9386,-3533.5712L13779.9474,-3533.5529L13779.9577,-3533.5315L13779.9879,-3533.4848L13780.0139,-3533.4527L13780.0469,-3533.4178L13780.0565,-3533.4094L13780.0751,-3533.3936L13780.1039,-3533.3739L13780.1238,-3533.3621L13780.1307,-3533.3576L13780.1643,-3533.3407L13780.2117,-3533.3209L13780.2879,-3533.2962L13780.3016,-3533.2928L13780.3195,-3533.2889L13780.3503,-3533.2858L13780.3902,-3533.2821L13780.4423,-3533.2832L13780.4808,-3533.2855L13780.5117,-3533.2855L13780.5261,-3533.2849L13780.5488,-3533.2816L13780.5741,-3533.2748L13780.5899,-3533.2669L13780.5959,-3533.2626L13780.6069,-3533.2541L13780.638,-3533.2393L13780.6648,-3533.2309L13780.684,-3533.2264L13780.7217,-3533.2219L13780.7633,-3533.2203L13780.7986,-3533.2185L13780.8316,-3533.214L13780.8542,-3533.2106L13780.8867,-3533.2031"/>
</g>
</svg>
