<?xml version="1.0" encoding="UTF-8"?>
<svg  xmlns="http://www.w3.org/2000/svg" xmlns:xlink="http://www.w3.org/1999/xlink" xmlns:go="http://purl.org/svgmap/profile" property="N07_001,N07_002,N07_003,N07_004,N07_005,N07_006,N07_007" viewBox="13977.9052734375 -3567.81005859375 0.54931640625 0.54931640625" go:dataArea="13977.9052734375 -3567.81005859375 0.54931640625 0.54931640625" >
<metadata>
 <rdf:RDF xmlns:rdf="http://www.w3.org/1999/02/22-rdf-syntax-ns#" xmlns:crs="http://opengis.org/xmldtds/transformations.dtd" xmlns:svg="http://www.w3.org/svg" >
  <rdf:Description>
   <crs:CoordinateReferenceSystem rdf:resource="http://purl.org/crs/84" svg:transform="matrix(100.0,0.0,0.0,-100.0,0.0,0.0)" />
  </rdf:Description>
 </rdf:RDF>
</metadata>
<globalCoordinateSystem srsName="http://purl.org/crs/84" transform="matrix(100.0,0.0,0.0,-100.0,0.0,0.0)" />
<defs>
 <g id="p0" >
  <circle cx="0.0" cy="0.0" r="3" stroke="green" stroke-width="0.75" vector-effect="non-scaling-stroke" />
 </g>
</defs>
<g fill="none" fill-rule="evenodd" stroke="#FF00FF" stroke-width="0.75" opacity="0.5" vector-effect="non-scaling-stroke" stroke-linejoin="bevel" >
<path content="1,JR四国バス（株）,ドリーム徳島号　阿南・徳島⇔新宿・東京・新木場,1.0,1.0,1.0," xlink:title="1" d="M13978.4546,-3567.7452L13978.4496,-3567.7478L13978.4451,-3567.75L13978.4388,-3567.7538L13978.385,-3567.7861L13978.3768,-3567.7911L13978.3452,-3567.8101"/>
<path content="1,JR四国バス（株）,ドリーム高松号　観音寺・高松⇔新宿・東京・新木場,1.0,1.0,1.0," xlink:title="1" d="M13978.4546,-3567.7452L13978.4496,-3567.7478L13978.4451,-3567.75L13978.4388,-3567.7538L13978.385,-3567.7861L13978.3768,-3567.7911L13978.3452,-3567.8101"/>
<path content="1,JR四国バス（株）,ドリーム高知号　高知・徳島⇔東京・新木場,1.0,1.0,1.0," xlink:title="1" d="M13978.4546,-3567.7452L13978.4496,-3567.7478L13978.4451,-3567.75L13978.4388,-3567.7538L13978.385,-3567.7861L13978.3768,-3567.7911L13978.3452,-3567.8101"/>
<path content="1,京成バス（株）,千葉北IC周辺地区～東京駅・潮見駅,10.5,8.0,8.0," xlink:title="1" d="M13978.4546,-3567.7453L13978.4513,-3567.747L13978.4509,-3567.7472L13978.4505,-3567.7474L13978.45,-3567.7478L13978.4497,-3567.7479L13978.4491,-3567.7481L13978.4485,-3567.7484L13978.4452,-3567.75L13978.4405,-3567.7528L13978.4401,-3567.7531L13978.4389,-3567.7538L13978.3851,-3567.7861L13978.3769,-3567.791L13978.3452,-3567.8101"/>
<path content="1,京成バス（株）,東雲車庫・東京駅～千城台・八街・成東,8.0,6.5,6.5," xlink:title="1" d="M13978.4546,-3567.7453L13978.4513,-3567.747L13978.4509,-3567.7472L13978.4505,-3567.7474L13978.45,-3567.7478L13978.4497,-3567.7479L13978.4491,-3567.7481L13978.4485,-3567.7484L13978.4452,-3567.75L13978.4405,-3567.7528L13978.4401,-3567.7531L13978.4389,-3567.7538L13978.3851,-3567.7861L13978.3769,-3567.791L13978.3452,-3567.8101"/>
<path content="1,京成バス（株）,東雲車庫・東京～志津・臼井・ユーカリが丘,3.0,2.5,2.5," xlink:title="1" d="M13978.4546,-3567.7453L13978.4513,-3567.747L13978.4509,-3567.7472L13978.4505,-3567.7474L13978.45,-3567.7478L13978.4497,-3567.7479L13978.4491,-3567.7481L13978.4485,-3567.7484L13978.4452,-3567.75L13978.4405,-3567.7528L13978.4401,-3567.7531L13978.4389,-3567.7538L13978.3851,-3567.7861L13978.3769,-3567.791L13978.3452,-3567.8101"/>
<path content="1,京成バス（株）,浜松町・東京駅～君津駅・青堀駅,22.0,21.0,21.0," xlink:title="1" d="M13978.4546,-3567.7453L13978.4513,-3567.747L13978.4509,-3567.7472L13978.4505,-3567.7474L13978.45,-3567.7478L13978.4497,-3567.7479L13978.4491,-3567.7481L13978.4485,-3567.7484L13978.4452,-3567.75L13978.4405,-3567.7528L13978.4401,-3567.7531L13978.4389,-3567.7538L13978.3851,-3567.7861L13978.3769,-3567.791L13978.3452,-3567.8101"/>
<path content="1,京成バス（株）,潮見・東京駅～木更津駅・君津製鉄所,15.0,15.0,15.0," xlink:title="1" d="M13978.4546,-3567.7453L13978.4513,-3567.747L13978.4509,-3567.7472L13978.4505,-3567.7474L13978.45,-3567.7478L13978.4497,-3567.7479L13978.4491,-3567.7481L13978.4485,-3567.7484L13978.4452,-3567.75L13978.4405,-3567.7528L13978.4401,-3567.7531L13978.4389,-3567.7538L13978.3851,-3567.7861L13978.3769,-3567.791L13978.3452,-3567.8101"/>
<path content="1,京成バス（株）,白子・茂原駅・大網駅・～東京駅・潮見駅,2.5,2.5,2.5," xlink:title="1" d="M13978.4546,-3567.7453L13978.4513,-3567.747L13978.4509,-3567.7472L13978.4505,-3567.7474L13978.45,-3567.7478L13978.4497,-3567.7479L13978.4491,-3567.7481L13978.4485,-3567.7484L13978.4452,-3567.75L13978.4405,-3567.7528L13978.4401,-3567.7531L13978.4389,-3567.7538L13978.3851,-3567.7861L13978.3769,-3567.791L13978.3452,-3567.8101"/>
<path content="1,京福バス（株）,東京線,3.0,3.0,3.0," xlink:title="1" d="M13978.4546,-3567.7452L13978.4496,-3567.7478L13978.4451,-3567.75L13978.4388,-3567.7538L13978.385,-3567.7861L13978.3768,-3567.7911L13978.3452,-3567.8101"/>
<path content="1,会津乗合自動車,夢街道会津号,5.0,5.0,5.0," xlink:title="1" d="M13978.4546,-3567.7453L13978.4513,-3567.747L13978.4509,-3567.7472L13978.4505,-3567.7474L13978.45,-3567.7478L13978.4497,-3567.7479L13978.4491,-3567.7481L13978.4485,-3567.7484L13978.4452,-3567.75L13978.4405,-3567.7528L13978.4401,-3567.7531L13978.4392,-3567.7538L13978.3854,-3567.7861L13978.3772,-3567.7911L13978.3456,-3567.8101"/>
<path content="1,南海バス（株）,和歌山・和泉中央・堺東⇔新宿・東京,1.0,1.0,1.0," xlink:title="1" d="M13978.4546,-3567.7452L13978.4496,-3567.7478L13978.4451,-3567.75L13978.4388,-3567.7538L13978.385,-3567.7861L13978.3768,-3567.7911L13978.3452,-3567.8101"/>
<path content="1,富士急行（株）,河口湖～東京・市が尾線,8.2,10.0,10.0," xlink:title="1" d="M13978.4546,-3567.7453L13978.4513,-3567.747L13978.4509,-3567.7472L13978.4505,-3567.7474L13978.45,-3567.7478L13978.4497,-3567.7479L13978.4491,-3567.7481L13978.4485,-3567.7484L13978.4452,-3567.75L13978.4405,-3567.7528L13978.4401,-3567.7531L13978.4389,-3567.7538L13978.3851,-3567.7861L13978.3769,-3567.791L13978.3452,-3567.8101"/>
<path content="1,日東交通,君津～東京線,23.5,24.0,24.0," xlink:title="1" d="M13978.3456,-3567.8101L13978.3772,-3567.7911L13978.3854,-3567.7861L13978.4392,-3567.7538L13978.4401,-3567.7531L13978.4405,-3567.7528L13978.4452,-3567.75L13978.4485,-3567.7484L13978.4491,-3567.7481L13978.4497,-3567.7479L13978.45,-3567.7478L13978.4505,-3567.7474L13978.4509,-3567.7472L13978.4513,-3567.747L13978.4546,-3567.7453"/>
<path content="1,日東交通,木更津～東京線,16.0,16.0,16.0," xlink:title="1" d="M13978.3456,-3567.8101L13978.3772,-3567.7911L13978.3854,-3567.7861L13978.4392,-3567.7538L13978.4401,-3567.7531L13978.4405,-3567.7528L13978.4452,-3567.75L13978.4485,-3567.7484L13978.4491,-3567.7481L13978.4497,-3567.7479L13978.45,-3567.7478L13978.4505,-3567.7474L13978.4509,-3567.7472L13978.4513,-3567.747L13978.4546,-3567.7453"/>
<path content="1,東北急行バス（株）,ままかりライナー,1.0,1.0,1.0," xlink:title="1" d="M13978.3452,-3567.8101L13978.3769,-3567.791L13978.3851,-3567.7861L13978.4389,-3567.7538L13978.4401,-3567.7531L13978.4405,-3567.7528L13978.4452,-3567.75L13978.4485,-3567.7484L13978.4491,-3567.7481L13978.4497,-3567.7479L13978.45,-3567.7478L13978.4505,-3567.7474L13978.4509,-3567.7472L13978.4513,-3567.747L13978.4546,-3567.7453"/>
<path content="1,東北急行バス（株）,フライングスニーカー京都・茨木号,1.0,1.0,1.0," xlink:title="1" d="M13977.9053,-3567.6416L13977.9256,-3567.6336L13977.9428,-3567.6276L13978.0032,-3567.5933L13978.0378,-3567.5729L13978.0747,-3567.5504L13978.1599,-3567.5005L13978.1494,-3567.4969L13978.2213,-3567.4287L13978.2496,-3567.3971L13978.2765,-3567.367L13978.2793,-3567.3638L13978.2951,-3567.343L13978.3839,-3567.2616L13978.3846,-3567.2607"/>
<path content="1,東北急行バス（株）,フライングスニーカー大坂号,1.0,1.0,1.0," xlink:title="1" d="M13978.3846,-3567.2607L13978.3839,-3567.2616L13978.2951,-3567.343L13978.2793,-3567.3638L13978.2765,-3567.367L13978.2496,-3567.3971L13978.2213,-3567.4287L13978.1494,-3567.4969L13978.1599,-3567.5005L13978.0747,-3567.5504L13978.0378,-3567.5729L13978.0032,-3567.5933L13977.9428,-3567.6276L13977.9256,-3567.6336L13977.9053,-3567.6416"/>
<path content="1,東北急行バス（株）,フライングライナー号,1.0,1.0,1.0," xlink:title="1" d="M13978.3846,-3567.2607L13978.3839,-3567.2616L13978.2951,-3567.343L13978.2793,-3567.3638L13978.2765,-3567.367L13978.2496,-3567.3971L13978.2213,-3567.4287L13978.1494,-3567.4969L13978.1599,-3567.5005L13978.0747,-3567.5504L13978.0378,-3567.5729L13978.0032,-3567.5933L13977.9428,-3567.6276L13977.9256,-3567.6336L13977.9053,-3567.6416"/>
<path content="1,福井鉄道（株）,福井⇔東京,3.0,3.0,3.0," xlink:title="1" d="M13978.4546,-3567.7452L13978.4496,-3567.7478L13978.4451,-3567.75L13978.4388,-3567.7538L13978.385,-3567.7861L13978.3768,-3567.7911L13978.3452,-3567.8101"/>
<path content="1,関越交通（株）,四万温泉号,1.4,1.4,1.4," xlink:title="1" d="M13978.4546,-3567.7453L13978.4513,-3567.747L13978.4509,-3567.7472L13978.4505,-3567.7474L13978.45,-3567.7478L13978.4497,-3567.7479L13978.4491,-3567.7481L13978.4485,-3567.7484L13978.4452,-3567.75L13978.4405,-3567.7528L13978.4401,-3567.7531L13978.4389,-3567.7538L13978.3851,-3567.7861L13978.3769,-3567.791L13978.3452,-3567.8101"/>
<path content="2,都営バス,東12,32.0,19.0,19.0," xlink:title="2" d="M13978.3846,-3567.2607L13978.3839,-3567.2616L13978.2951,-3567.343L13978.2793,-3567.3638L13978.2765,-3567.367L13978.2496,-3567.3971L13978.2213,-3567.4287L13978.1494,-3567.4969L13978.1599,-3567.5005L13978.0747,-3567.5504L13978.0032,-3567.5933L13977.9428,-3567.6276L13977.9256,-3567.6336L13977.9053,-3567.6416"/>
<path content="2,都営バス,東15,48.0,43.0,41.0," xlink:title="2" d="M13978.0111,-3567.2607L13978.0123,-3567.2767L13978.0433,-3567.2762L13978.0814,-3567.2776L13978.1043,-3567.285L13978.106,-3567.2857L13978.1776,-3567.3154L13978.2047,-3567.3259"/>
<path content="2,都営バス,東15,48.0,43.0,41.0," xlink:title="2" d="M13978.2047,-3567.3259L13978.066,-3567.4753L13978.1022,-3567.4722L13978.1161,-3567.4864L13978.1494,-3567.4969"/>
<path content="2,都営バス,東15,48.0,43.0,41.0," xlink:title="2" d="M13978.2047,-3567.3259L13978.2172,-3567.331L13978.2513,-3567.3477L13978.2793,-3567.3638L13978.2765,-3567.367L13978.2496,-3567.3971L13978.2213,-3567.4287L13978.1494,-3567.4969"/>
<path content="2,都営バス,東15,48.0,43.0,41.0," xlink:title="2" d="M13978.1494,-3567.4969L13978.1599,-3567.5005L13978.0747,-3567.5504L13978.0032,-3567.5933L13977.9428,-3567.6276L13977.9256,-3567.6336L13977.9053,-3567.6416"/>
<path content="2,都営バス,東16,112.0,55.0,48.0," xlink:title="2" d="M13978.3846,-3567.2607L13978.3839,-3567.2616L13978.2951,-3567.343L13978.2793,-3567.3638L13978.2765,-3567.367L13978.2496,-3567.3971L13978.2213,-3567.4287L13978.1494,-3567.4969L13978.1599,-3567.5005L13978.0747,-3567.5504L13978.0032,-3567.5933L13977.9428,-3567.6276L13977.9256,-3567.6336L13977.9053,-3567.6416"/>
<path content="2,都営バス,東20,21.0,21.0,20.0," xlink:title="2" d="M13978.3452,-3567.8101L13978.3769,-3567.791L13978.3851,-3567.7861L13978.4389,-3567.7538L13978.4401,-3567.7531L13978.4405,-3567.7528L13978.4452,-3567.75L13978.4485,-3567.7484L13978.4491,-3567.7481L13978.4497,-3567.7479L13978.45,-3567.7478L13978.4505,-3567.7474L13978.4509,-3567.7472L13978.4513,-3567.747L13978.4546,-3567.7453"/>
<path content="2,都営バス,東22,215.0,180.0,172.0," xlink:title="2" d="M13978.3452,-3567.8101L13978.3769,-3567.791L13978.3851,-3567.7861L13978.4389,-3567.7538L13978.4401,-3567.7531L13978.4405,-3567.7528L13978.4452,-3567.75L13978.4485,-3567.7484L13978.4491,-3567.7481L13978.4497,-3567.7479L13978.45,-3567.7478L13978.4505,-3567.7474L13978.4509,-3567.7472L13978.4513,-3567.747L13978.4546,-3567.7453"/>
<path content="3,中央区,北循環,36.0,36.0,33.0," xlink:title="3" d="M13978.1724,-3567.8101L13978.1651,-3567.8058L13978.0544,-3567.7374L13978.0036,-3567.6859L13977.9808,-3567.6566L13977.9428,-3567.6276L13977.9256,-3567.6336L13977.9053,-3567.6416"/>
<path content="3,中央区,南循環,36.0,36.0,33.0," xlink:title="3" d="M13978.0111,-3567.2607L13978.0123,-3567.2767L13978.0433,-3567.2762L13978.0814,-3567.2776L13978.1043,-3567.285L13978.106,-3567.2857L13978.1776,-3567.3154L13978.2047,-3567.3259L13978.2172,-3567.331L13978.2513,-3567.3477L13978.2793,-3567.3638L13978.2951,-3567.343L13978.3839,-3567.2616L13978.3846,-3567.2607"/>
</g>
</svg>
