<?xml version="1.0" encoding="UTF-8"?>
<svg  xmlns="http://www.w3.org/2000/svg" xmlns:xlink="http://www.w3.org/1999/xlink" xmlns:go="http://purl.org/svgmap/profile" property="N07_001,N07_002,N07_003,N07_004,N07_005,N07_006,N07_007" viewBox="14097.65625 -3726.5625 35.15625 35.15625" go:dataArea="14097.65625 -3726.5625 35.15625 35.15625" >
<metadata>
 <rdf:RDF xmlns:rdf="http://www.w3.org/1999/02/22-rdf-syntax-ns#" xmlns:crs="http://opengis.org/xmldtds/transformations.dtd" xmlns:svg="http://www.w3.org/svg" >
  <rdf:Description>
   <crs:CoordinateReferenceSystem rdf:resource="http://purl.org/crs/84" svg:transform="matrix(100.0,0.0,0.0,-100.0,0.0,0.0)" />
  </rdf:Description>
 </rdf:RDF>
</metadata>
<globalCoordinateSystem srsName="http://purl.org/crs/84" transform="matrix(100.0,0.0,0.0,-100.0,0.0,0.0)" />
<defs>
 <g id="p0" >
  <circle cx="0.0" cy="0.0" r="3" stroke="green" stroke-width="0.75" vector-effect="non-scaling-stroke" />
 </g>
</defs>
<g fill="none" fill-rule="evenodd" stroke="#FF00FF" stroke-width="0.75" opacity="0.5" vector-effect="non-scaling-stroke" stroke-linejoin="bevel" >
<path content="1,新常磐交通（株）,いわき駅-四倉,15.5,11.5,6.0," xlink:title="1" d="M14098.6199,-3710.2222L14098.6649,-3710.2614L14098.7134,-3710.3014L14098.7268,-3710.311L14098.7774,-3710.351L14098.7915,-3710.3679L14098.8147,-3710.3944L14098.8295,-3710.4141L14098.8323,-3710.4164L14098.8391,-3710.4216L14098.8927,-3710.5133L14098.897,-3710.5206L14098.9152,-3710.5476L14098.9504,-3710.5961L14098.9884,-3710.6372L14099.0193,-3710.6654L14099.0594,-3710.6975L14099.0664,-3710.7031L14099.0974,-3710.7223L14099.1465,-3710.746L14099.1782,-3710.76L14099.1974,-3710.7668L14099.234,-3710.7775L14099.2523,-3710.7792L14099.264,-3710.7803L14099.2985,-3710.7865L14099.3526,-3710.7938L14099.4138,-3710.8034L14099.4771,-3710.8158L14099.4975,-3710.8221L14099.5059,-3710.822L14099.5622,-3710.8434L14099.5798,-3710.849L14099.6388,-3710.8744L14099.6599,-3710.8836L14099.6873,-3710.8969L14099.7197,-3710.915L14099.6599,-3710.9075L14099.6142,-3710.9026L14099.6009,-3710.9014L14099.5523,-3710.902L14099.5432,-3710.9031L14099.5404,-3710.9026L14099.5234,-3710.9078L14099.5045,-3710.9065L14099.4412,-3710.911L14099.398,-3710.9163L14099.3857,-3710.9133L14099.2978,-3710.9161L14099.276,-3710.9172L14099.1627,-3710.9206L14099.1473,-3710.921L14099.1072,-3710.9217L14099.0768,-3710.9207L14099.0179,-3710.9772L14099.0117,-3710.9831L14099.0097,-3710.9806L14098.9957,-3710.9628L14098.9349,-3710.8856L14098.9138,-3710.8603L14098.9012,-3710.8423L14098.8889,-3710.8269L14098.8309,-3710.7516L14098.7908,-3710.6981L14098.7873,-3710.6947L14098.7786,-3710.6728L14098.6979,-3710.5786L14098.6923,-3710.5735L14098.6909,-3710.5707L14098.6473,-3710.5133L14098.6176,-3710.4659L14098.596,-3710.4473L14098.5109,-3710.3307L14098.5004,-3710.317L14098.4884,-3710.2975L14098.4652,-3710.262L14098.4265,-3710.2045L14098.423,-3710.2011L14098.3801,-3710.138L14098.3942,-3710.1318L14098.4596,-3710.1009L14098.4491,-3710.089L14098.4061,-3710.0541L14098.3728,-3710.021L14098.3654,-3710.0214L14098.3309,-3709.9927L14098.2767,-3709.9476L14098.2367,-3709.9161L14098.1994,-3709.8834L14098.1642,-3709.8552L14098.1389,-3709.8349L14098.1051,-3709.8012L14098.0384,-3709.7521L14097.9849,-3709.7082L14097.9266,-3709.6619L14097.8717,-3709.6157L14097.8309,-3709.5825L14097.812,-3709.5667L14097.7684,-3709.5318L14097.6967,-3709.4697L14097.6562,-3709.4349"/>
<path content="1,新常磐交通（株）,いわき駅-泉駅,35.0,26.0,22.5," xlink:title="1" d="M14097.6562,-3700.1457L14097.6752,-3700.1592L14097.6873,-3700.1669L14097.7203,-3700.1928L14097.7596,-3700.2249L14097.7751,-3700.2426L14097.7777,-3700.2486L14097.7851,-3700.2554L14097.7974,-3700.3111L14097.8025,-3700.3325L14097.806,-3700.3432L14097.8145,-3700.3528L14097.8196,-3700.3546L14097.8137,-3700.3815L14097.7868,-3700.468L14097.7807,-3700.4818L14097.7709,-3700.5072L14097.7666,-3700.5201L14097.7631,-3700.5359L14097.7547,-3700.5635L14097.7463,-3700.5945L14097.7442,-3700.5979L14097.7432,-3700.6094L14097.7364,-3700.6215L14097.7154,-3700.6705L14097.7048,-3700.6914L14097.7013,-3700.697L14097.6932,-3700.7129L14097.6922,-3700.7213L14097.6563,-3700.7466L14097.6562,-3700.7467"/>
<path content="1,新常磐交通（株）,シーガル号,1.0,1.0,1.0," xlink:title="1" d="M14098.4716,-3723.9932L14098.4472,-3723.9476L14098.3889,-3723.8442L14098.3488,-3723.7705L14098.2951,-3723.6741L14098.2449,-3723.5858L14098.2047,-3723.5105L14098.1576,-3723.4261L14098.0968,-3723.3258L14098.0823,-3723.3012L14098.0441,-3723.2314L14097.9995,-3723.1471L14097.9677,-3723.0882L14097.9608,-3723.0753L14097.9171,-3722.989L14097.876,-3722.9147L14097.8474,-3722.859L14097.8243,-3722.8123L14097.8017,-3722.7696L14097.7706,-3722.6974L14097.753,-3722.6457L14097.7455,-3722.616L14097.7249,-3722.5543L14097.7093,-3722.5046L14097.6978,-3722.4544L14097.6861,-3722.3992L14097.6822,-3722.3586L14097.6792,-3722.3059L14097.6777,-3722.2622L14097.6767,-3722.2055L14097.6797,-3722.1784L14097.6873,-3722.1096L14097.6893,-3722.0795L14097.7023,-3722.0173L14097.7189,-3721.9415L14097.7254,-3721.9109L14097.7289,-3721.8973L14097.744,-3721.8476L14097.7791,-3721.7432L14097.7917,-3721.6965L14097.7992,-3721.6719L14097.8144,-3721.6329L14097.8145,-3721.6328L14097.8318,-3721.5977L14097.8519,-3721.5475L14097.8735,-3721.5028L14097.8961,-3721.4461L14097.9116,-3721.4145L14097.9247,-3721.3823L14097.9372,-3721.3542L14097.9608,-3721.3101L14097.9834,-3721.2689L14098.0752,-3721.1003L14098.1335,-3721.0019L14098.1822,-3720.9176L14098.2554,-3720.7876L14098.2755,-3720.7474L14098.3086,-3720.6867L14098.3563,-3720.6014L14098.395,-3720.5276L14098.41,-3720.5L14098.4326,-3720.4578L14098.4447,-3720.4347L14098.4517,-3720.4187L14098.4579,-3720.4052L14098.4713,-3720.376L14098.4888,-3720.3343L14098.5039,-3720.2952L14098.528,-3720.2274L14098.5556,-3720.1501L14098.561,-3720.1348L14098.5762,-3720.0914L14098.5882,-3720.0533L14098.5977,-3720.0186L14098.6088,-3719.9835L14098.6178,-3719.9464L14098.6264,-3719.9087L14098.6334,-3719.8746L14098.6404,-3719.8153L14098.6429,-3719.7782L14098.6424,-3719.7285L14098.6419,-3719.6502L14098.6379,-3719.585L14098.6329,-3719.5147L14098.6208,-3719.4133L14098.6143,-3719.3727L14098.6028,-3719.3029L14098.5847,-3719.2201L14098.5752,-3719.1608L14098.5541,-3719.069L14098.546,-3719.0324L14098.5245,-3718.9661L14098.4943,-3718.8838L14098.4783,-3718.8436L14098.4672,-3718.8145L14098.4286,-3718.7247L14098.3809,-3718.6368L14098.3428,-3718.5641L14098.2941,-3718.4838L14098.2419,-3718.4025L14098.2047,-3718.3417L14098.148,-3718.2559L14098.1114,-3718.2057L14098.0778,-3718.1635L14098.02,-3718.0948L14097.9683,-3718.0371L14097.888,-3717.9447L14097.8238,-3717.8744L14097.7887,-3717.8283L14097.745,-3717.7776L14097.6888,-3717.7138L14097.6562,-3717.6857"/>
<path content="1,新常磐交通（株）,シーガル号,1.0,1.0,1.0," xlink:title="1" d="M14098.4716,-3723.9932L14098.4688,-3723.9617L14098.4497,-3723.9153L14098.4363,-3723.8739L14098.431,-3723.8493L14098.4402,-3723.8301L14098.4483,-3723.8161L14098.4609,-3723.7948L14098.4686,-3723.7771L14098.4686,-3723.7533L14098.4671,-3723.7318L14098.4889,-3723.6435L14098.4944,-3723.6212L14098.5189,-3723.5793L14098.5473,-3723.5306L14098.5724,-3723.5032L14098.6038,-3723.4698L14098.6645,-3723.4267L14098.7184,-3723.4005L14098.7245,-3723.3976L14098.7908,-3723.3754L14098.8147,-3723.3712L14098.8393,-3723.3766L14098.852,-3723.3854L14098.8744,-3723.4039"/>
<path content="1,新常磐交通（株）,シーガル号,1.0,1.0,1.0," xlink:title="1" d="M14098.7761,-3726.5625L14098.7945,-3726.537L14098.8346,-3726.4788L14098.8592,-3726.4427L14098.8828,-3726.4045L14098.92,-3726.3433L14098.9496,-3726.2891L14098.9832,-3726.2198L14099.0284,-3726.1275L14099.0455,-3726.0838L14099.0675,-3726.0256L14099.0816,-3725.9844L14099.1032,-3725.8991L14099.1112,-3725.8609L14099.1207,-3725.8072L14099.1298,-3725.742L14099.1363,-3725.6853L14099.1378,-3725.626L14099.1388,-3725.5884L14099.1353,-3725.5412L14099.1323,-3725.4735L14099.1253,-3725.4112L14099.1207,-3725.3836L14099.1092,-3725.342L14099.0951,-3725.2923L14099.0751,-3725.2135L14099.0675,-3725.1798L14099.05,-3725.1206L14099.0394,-3725.08L14099.0319,-3725.0589L14099.0194,-3725.0258L14098.9938,-3724.9705L14098.9807,-3724.9404L14098.9566,-3724.8988L14098.929,-3724.8461L14098.9084,-3724.8099L14098.8894,-3724.7733L14098.8487,-3724.6955L14098.8186,-3724.6388L14098.7895,-3724.5851L14098.7724,-3724.5514L14098.7348,-3724.4787L14098.7162,-3724.443L14098.6861,-3724.3818L14098.66,-3724.3291L14098.6439,-3724.296L14098.6218,-3724.2573L14098.5962,-3724.2096L14098.5546,-3724.1404L14098.5337,-3724.1027L14098.5276,-3724.0922L14098.4878,-3724.0234L14098.4716,-3723.9932"/>
<path content="1,新常磐交通（株）,南相馬-東京,2.0,2.0,2.0," xlink:title="1" d="M14098.4671,-3723.7318L14098.4889,-3723.6435L14098.4944,-3723.6212L14098.5189,-3723.5793L14098.5473,-3723.5306L14098.5724,-3723.5032L14098.6038,-3723.4698L14098.6645,-3723.4267L14098.7184,-3723.4005L14098.7245,-3723.3976L14098.7908,-3723.3754L14098.8147,-3723.3712L14098.8393,-3723.3766L14098.852,-3723.3854L14098.8744,-3723.4039"/>
<path content="1,新常磐交通（株）,南相馬-東京,2.0,2.0,2.0," xlink:title="1" d="M14098.4671,-3723.7318L14098.4438,-3723.7451L14098.4166,-3723.7579L14098.4034,-3723.7602L14098.3861,-3723.7573L14098.3717,-3723.7446L14098.3538,-3723.7233L14098.3025,-3723.6582L14098.2749,-3723.6173L14098.2449,-3723.5858L14098.2047,-3723.5105L14098.1576,-3723.4261L14098.0968,-3723.3258L14098.0823,-3723.3012L14098.0441,-3723.2314L14097.9995,-3723.1471L14097.9677,-3723.0882L14097.9608,-3723.0753L14097.9171,-3722.989L14097.876,-3722.9147L14097.8474,-3722.859L14097.8243,-3722.8123L14097.8017,-3722.7696L14097.7706,-3722.6974L14097.753,-3722.6457L14097.7455,-3722.616L14097.7249,-3722.5543L14097.7093,-3722.5046L14097.6978,-3722.4544L14097.6861,-3722.3992L14097.6822,-3722.3586L14097.6792,-3722.3059L14097.6777,-3722.2622L14097.6767,-3722.2055L14097.6797,-3722.1784L14097.6873,-3722.1096L14097.6893,-3722.0795L14097.7023,-3722.0173L14097.7189,-3721.9415L14097.7254,-3721.9109L14097.7289,-3721.8973L14097.744,-3721.8476L14097.7791,-3721.7432L14097.7917,-3721.6965L14097.7992,-3721.6719L14097.8144,-3721.6329L14097.8145,-3721.6328L14097.8145,-3721.6328L14097.8145,-3721.6326L14097.8318,-3721.5977L14097.8519,-3721.5475L14097.8735,-3721.5028L14097.8961,-3721.4461L14097.9116,-3721.4145L14097.9247,-3721.3823L14097.9372,-3721.3542L14097.9608,-3721.3101L14097.9834,-3721.2689L14098.0752,-3721.1003L14098.1335,-3721.0019L14098.1822,-3720.9176L14098.2554,-3720.7876L14098.2755,-3720.7474L14098.3086,-3720.6867L14098.3563,-3720.6014L14098.395,-3720.5276L14098.41,-3720.5L14098.4326,-3720.4578L14098.4447,-3720.4347L14098.4517,-3720.4187L14098.4579,-3720.4052L14098.4713,-3720.376L14098.4888,-3720.3343L14098.5039,-3720.2952L14098.528,-3720.2274L14098.5556,-3720.1501L14098.561,-3720.1348L14098.5762,-3720.0914L14098.5882,-3720.0533L14098.5977,-3720.0186L14098.6088,-3719.9835L14098.6178,-3719.9464L14098.6264,-3719.9087L14098.6334,-3719.8746L14098.6404,-3719.8153L14098.6429,-3719.7782L14098.6424,-3719.7285L14098.6419,-3719.6502L14098.6379,-3719.585L14098.6329,-3719.5147L14098.6208,-3719.4133L14098.6143,-3719.3727L14098.6028,-3719.3029L14098.5847,-3719.2201L14098.5752,-3719.1608L14098.5541,-3719.069L14098.546,-3719.0324L14098.5245,-3718.9661L14098.4943,-3718.8838L14098.4783,-3718.8436L14098.4672,-3718.8145L14098.4286,-3718.7247L14098.3809,-3718.6368L14098.3428,-3718.5641L14098.2941,-3718.4838L14098.2419,-3718.4025L14098.2047,-3718.3417L14098.148,-3718.2559L14098.1114,-3718.2057L14098.0778,-3718.1635L14098.02,-3718.0948L14097.9683,-3718.0371L14097.888,-3717.9447L14097.8238,-3717.8744L14097.7887,-3717.8283L14097.745,-3717.7776L14097.6888,-3717.7138L14097.6562,-3717.6857"/>
<path content="1,新常磐交通（株）,南相馬-東京,2.0,2.0,2.0," xlink:title="1" d="M14098.7761,-3726.5625L14098.7945,-3726.537L14098.8346,-3726.4788L14098.8592,-3726.4427L14098.8828,-3726.4045L14098.92,-3726.3433L14098.9496,-3726.2891L14098.9832,-3726.2198L14099.0284,-3726.1275L14099.0455,-3726.0838L14099.0675,-3726.0256L14099.0816,-3725.9844L14099.1032,-3725.8991L14099.1112,-3725.8609L14099.1207,-3725.8072L14099.1298,-3725.742L14099.1363,-3725.6853L14099.1378,-3725.626L14099.1388,-3725.5884L14099.1353,-3725.5412L14099.1323,-3725.4735L14099.1253,-3725.4112L14099.1207,-3725.3836L14099.1092,-3725.342L14099.0951,-3725.2923L14099.0751,-3725.2135L14099.0675,-3725.1798L14099.05,-3725.1206L14099.0394,-3725.08L14099.0319,-3725.0589L14099.0194,-3725.0258L14098.9938,-3724.9705L14098.9807,-3724.9404L14098.9566,-3724.8988L14098.929,-3724.8461L14098.9084,-3724.8099L14098.8894,-3724.7733L14098.8487,-3724.6955L14098.8186,-3724.6388L14098.7895,-3724.5851L14098.7724,-3724.5514L14098.7348,-3724.4787L14098.7162,-3724.443L14098.6861,-3724.3818L14098.66,-3724.3291L14098.6439,-3724.296L14098.6218,-3724.2573L14098.5962,-3724.2096L14098.5546,-3724.1404L14098.5337,-3724.1027L14098.5276,-3724.0922L14098.4878,-3724.0234L14098.4716,-3723.9932L14098.4688,-3723.9617L14098.4497,-3723.9153L14098.4363,-3723.8739L14098.431,-3723.8493L14098.4402,-3723.8301L14098.4483,-3723.8161L14098.4609,-3723.7948L14098.4686,-3723.7771L14098.4686,-3723.7533L14098.4671,-3723.7318"/>
<path content="1,新常磐交通（株）,小名浜-いわき光洋高校,0.8,0.0,0.0," xlink:title="1" d="M14097.6562,-3700.7467L14097.6563,-3700.7466L14097.6922,-3700.7213L14097.6932,-3700.7129L14097.7013,-3700.697L14097.7048,-3700.6914L14097.7154,-3700.6705L14097.7364,-3700.6215L14097.7432,-3700.6094L14097.7442,-3700.5979L14097.7463,-3700.5945L14097.7547,-3700.5635L14097.7631,-3700.5359L14097.7666,-3700.5201L14097.7709,-3700.5072L14097.7807,-3700.4818L14097.7868,-3700.468L14097.8137,-3700.3815L14097.8196,-3700.3546L14097.8145,-3700.3528L14097.806,-3700.3432L14097.8025,-3700.3325L14097.7974,-3700.3111L14097.7851,-3700.2554L14097.7777,-3700.2486L14097.7751,-3700.2426L14097.7596,-3700.2249L14097.7203,-3700.1928L14097.6873,-3700.1669L14097.6752,-3700.1592L14097.6562,-3700.1457"/>
<path content="1,新常磐交通（株）,小名浜-平商業高校,1.0,0.0,0.0," xlink:title="1" d="M14097.6562,-3700.7467L14097.6563,-3700.7466L14097.6922,-3700.7213L14097.6932,-3700.7129L14097.7013,-3700.697L14097.7048,-3700.6914L14097.7154,-3700.6705L14097.7364,-3700.6215L14097.7432,-3700.6094L14097.7442,-3700.5979L14097.7463,-3700.5945L14097.7547,-3700.5635L14097.7631,-3700.5359L14097.7666,-3700.5201L14097.7709,-3700.5072L14097.7807,-3700.4818L14097.7868,-3700.468L14097.8137,-3700.3815L14097.8196,-3700.3546L14097.8145,-3700.3528L14097.806,-3700.3432L14097.8025,-3700.3325L14097.7974,-3700.3111L14097.7851,-3700.2554L14097.7777,-3700.2486L14097.7751,-3700.2426L14097.7596,-3700.2249L14097.7203,-3700.1928L14097.6873,-3700.1669L14097.6752,-3700.1592L14097.6562,-3700.1457"/>
<path content="1,新常磐交通（株）,西原-いわき秀英高校,0.8,0.0,0.0," xlink:title="1" d="M14097.6562,-3700.7467L14097.6563,-3700.7466L14097.6922,-3700.7213L14097.6932,-3700.7129L14097.7013,-3700.697L14097.7048,-3700.6914L14097.7154,-3700.6705L14097.7364,-3700.6215L14097.7432,-3700.6094L14097.7442,-3700.5979L14097.7463,-3700.5945L14097.7547,-3700.5635L14097.7631,-3700.5359L14097.7666,-3700.5201L14097.7709,-3700.5072L14097.7807,-3700.4818L14097.7868,-3700.468L14097.8137,-3700.3815L14097.8196,-3700.3546L14097.8145,-3700.3528L14097.806,-3700.3432L14097.8025,-3700.3325L14097.7974,-3700.3111L14097.7851,-3700.2554L14097.7777,-3700.2486L14097.7751,-3700.2426L14097.7596,-3700.2249L14097.7203,-3700.1928L14097.6873,-3700.1669L14097.6752,-3700.1592L14097.6562,-3700.1457"/>
<path content="1,新常磐交通（株）,西原-湯本高校,1.0,0.0,0.0," xlink:title="1" d="M14097.6562,-3700.1457L14097.6752,-3700.1592L14097.6873,-3700.1669L14097.7203,-3700.1928L14097.7596,-3700.2249L14097.7751,-3700.2426L14097.7777,-3700.2486L14097.7851,-3700.2554L14097.7974,-3700.3111L14097.8025,-3700.3325L14097.806,-3700.3432L14097.8145,-3700.3528L14097.8196,-3700.3546L14097.8137,-3700.3815L14097.7868,-3700.468L14097.7807,-3700.4818L14097.7709,-3700.5072L14097.7666,-3700.5201L14097.7631,-3700.5359L14097.7547,-3700.5635L14097.7463,-3700.5945L14097.7442,-3700.5979L14097.7432,-3700.6094L14097.7364,-3700.6215L14097.7154,-3700.6705L14097.7048,-3700.6914L14097.7013,-3700.697L14097.6932,-3700.7129L14097.6922,-3700.7213L14097.6563,-3700.7466L14097.6562,-3700.7467"/>
<path content="1,近鉄バス（株）,大阪・京都⇔日立・いわき,1.0,1.0,1.0," xlink:title="1" d="M14097.6562,-3717.6857L14097.6888,-3717.7138L14097.745,-3717.7776L14097.7887,-3717.8283L14097.8238,-3717.8744L14097.888,-3717.9447L14097.9683,-3718.0371L14098.02,-3718.0948L14098.0778,-3718.1635L14098.1114,-3718.2057L14098.148,-3718.2559L14098.2047,-3718.3417L14098.2419,-3718.4025L14098.2941,-3718.4838L14098.3428,-3718.5641L14098.3809,-3718.6368L14098.4286,-3718.7247L14098.4672,-3718.8145L14098.4783,-3718.8436L14098.4943,-3718.8838L14098.5245,-3718.9661L14098.546,-3719.0324L14098.5541,-3719.069L14098.5752,-3719.1608L14098.5847,-3719.2201L14098.6028,-3719.3029L14098.6143,-3719.3727L14098.6208,-3719.4133L14098.6329,-3719.5147L14098.6379,-3719.585L14098.6419,-3719.6502L14098.6424,-3719.7285L14098.6429,-3719.7782L14098.6404,-3719.8153L14098.6334,-3719.8746L14098.6264,-3719.9087L14098.6178,-3719.9464L14098.6088,-3719.9835L14098.5977,-3720.0186L14098.5882,-3720.0533L14098.5762,-3720.0914L14098.5556,-3720.1501L14098.528,-3720.2274L14098.5039,-3720.2952L14098.4888,-3720.3343L14098.4713,-3720.376L14098.4517,-3720.4187L14098.4447,-3720.4347L14098.4326,-3720.4578L14098.41,-3720.5L14098.395,-3720.5276L14098.3563,-3720.6014L14098.3086,-3720.6867L14098.2755,-3720.7474L14098.2554,-3720.7876L14098.1822,-3720.9176L14098.1335,-3721.0019L14098.0752,-3721.1003L14097.9834,-3721.2689L14097.9608,-3721.3101L14097.9372,-3721.3542L14097.9247,-3721.3823L14097.9116,-3721.4145L14097.8961,-3721.4461L14097.8735,-3721.5028L14097.8519,-3721.5475L14097.8318,-3721.5977L14097.8153,-3721.6308L14097.7992,-3721.6719L14097.7917,-3721.6965L14097.7791,-3721.7432L14097.744,-3721.8476L14097.7289,-3721.8973L14097.7254,-3721.9109L14097.7189,-3721.9415L14097.7023,-3722.0173L14097.6893,-3722.0795L14097.6873,-3722.1096L14097.6797,-3722.1784L14097.6767,-3722.2055L14097.6777,-3722.2622L14097.6792,-3722.3059L14097.6822,-3722.3586L14097.6873,-3722.4068L14097.6978,-3722.4544L14097.7093,-3722.5046L14097.7249,-3722.5543L14097.7455,-3722.616L14097.753,-3722.6457L14097.7706,-3722.6974L14097.8017,-3722.7696L14097.8243,-3722.8123L14097.8474,-3722.859L14097.876,-3722.9147L14097.9171,-3722.989L14097.9608,-3723.0753L14097.9995,-3723.1471L14098.0441,-3723.2314L14098.0823,-3723.3012L14098.0968,-3723.3258L14098.1576,-3723.4261L14098.2047,-3723.5105L14098.2449,-3723.5858L14098.2951,-3723.6741L14098.3488,-3723.7705L14098.3767,-3723.8217"/>
<path content="1,近鉄バス（株）,大阪・京都⇔日立・いわき,1.0,1.0,1.0," xlink:title="1" d="M14098.3767,-3723.8217L14098.4249,-3723.791L14098.4603,-3723.7516L14098.4775,-3723.6868L14098.5008,-3723.6089L14098.5464,-3723.5309L14098.6152,-3723.4611L14098.686,-3723.4125L14098.8065,-3723.369L14098.8469,-3723.3741L14098.8814,-3723.4054L14098.9129,-3723.4586"/>
<path content="1,近鉄バス（株）,大阪・京都⇔日立・いわき,1.0,1.0,1.0," xlink:title="1" d="M14098.3767,-3723.8217L14098.3889,-3723.8442L14098.4472,-3723.9476L14098.4878,-3724.0234L14098.5285,-3724.0937L14098.5546,-3724.1404L14098.5962,-3724.2096L14098.6218,-3724.2573L14098.6439,-3724.296L14098.66,-3724.3291L14098.6861,-3724.3818L14098.7162,-3724.443L14098.7348,-3724.4787L14098.7724,-3724.5514L14098.7895,-3724.5851L14098.8186,-3724.6388L14098.8487,-3724.6955L14098.8894,-3724.7733L14098.9084,-3724.8099L14098.929,-3724.8461L14098.9566,-3724.8988L14098.9807,-3724.9404L14098.9938,-3724.9705L14099.0194,-3725.0258L14099.0319,-3725.0589L14099.0394,-3725.08L14099.05,-3725.1206L14099.0675,-3725.1798L14099.0751,-3725.2135L14099.0951,-3725.2923L14099.1092,-3725.342L14099.1207,-3725.3836L14099.1253,-3725.4112L14099.1323,-3725.4735L14099.1353,-3725.5412L14099.1388,-3725.5884L14099.1378,-3725.626L14099.1363,-3725.6853L14099.1298,-3725.742L14099.1207,-3725.8072L14099.1112,-3725.8609L14099.1032,-3725.8991L14099.0816,-3725.9844L14099.0675,-3726.0256L14099.0455,-3726.0838L14099.0284,-3726.1275L14098.9832,-3726.2198L14098.9496,-3726.2891L14098.92,-3726.3433L14098.8828,-3726.4045L14098.8592,-3726.4427L14098.8346,-3726.4788L14098.7945,-3726.537L14098.7761,-3726.5625"/>
<path content="2,楢葉町,ルート1・ルート2・ルート3・ルート4,3.2,0.0,0.0," xlink:title="2" d="M14100.2304,-3724.6185L14100.2149,-3724.6196L14100.1396,-3724.6207L14100.1227,-3724.6179L14100.1037,-3724.6117L14100.0954,-3724.6075L14100.0866,-3724.6019L14100.083,-3724.5948L14100.0809,-3724.5887L14100.0804,-3724.5785L14100.079,-3724.5357L14100.0769,-3724.5165L14100.0713,-3724.4968L14100.0628,-3724.4776L14100.0445,-3724.4523L14100.0164,-3724.4298L14100.0023,-3724.4224L14099.9917,-3724.4181L14099.988,-3724.4245L14099.9415,-3724.4761L14099.9196,-3724.4955L14099.8974,-3724.513L14099.8843,-3724.5216L14099.8783,-3724.5255L14099.8568,-3724.5374L14099.8412,-3724.5529L14099.8243,-3724.568L14099.8016,-3724.5896L14099.7771,-3724.6123L14099.7579,-3724.635L14099.7404,-3724.6641L14099.7305,-3724.6839L14099.7235,-3724.7031L14099.7183,-3724.7194L14099.716,-3724.7369L14099.7148,-3724.7584L14099.7154,-3724.7969L14099.7183,-3724.8137L14099.7224,-3724.8289L14099.7276,-3724.8452L14099.735,-3724.8631"/>
<path content="2,楢葉町,ルート1・ルート2・ルート3・ルート4,3.2,0.0,0.0," xlink:title="2" d="M14100.2542,-3724.7354L14100.2304,-3724.6185"/>
<path content="2,楢葉町,ルート1・ルート2・ルート3・ルート4,3.2,0.0,0.0," xlink:title="2" d="M14099.735,-3724.8631L14099.7538,-3724.9086L14099.7701,-3724.9401L14099.7858,-3724.9733L14099.8027,-3725.0018L14099.812,-3725.0204L14099.8225,-3725.0548L14099.8295,-3725.0775L14099.8353,-3725.0973L14099.8388,-3725.1206L14099.8421,-3725.2111L14099.8547,-3725.1877L14099.8718,-3725.1881L14099.8874,-3725.1929L14099.9035,-3725.1966L14099.9182,-3725.1989L14099.9338,-3725.1999L14099.9568,-3725.2016L14099.979,-3725.2016L14099.995,-3725.2016L14100.0113,-3725.1999L14100.029,-3725.1983L14100.0446,-3725.1979L14100.0636,-3725.1966L14100.086,-3725.1959L14100.0963,-3725.2019L14100.1036,-3725.2072L14100.1459,-3725.2483L14100.1551,-3725.2575L14100.1656,-3725.2712L14100.1705,-3725.2785L14100.1768,-3725.2889L14100.183,-3725.3013L14100.1749,-3725.3095L14100.1699,-3725.3181L14100.1687,-3725.3254L14100.169,-3725.3335L14100.1711,-3725.341L14100.1734,-3725.3485L14100.1611,-3725.3488L14100.1231,-3725.3496L14100.0939,-3725.3502L14099.9864,-3725.3575L14099.892,-3725.3583L14099.8606,-3725.36L14099.861,-3725.3969L14099.8631,-3725.4127L14099.8666,-3725.418L14099.8765,-3725.4219L14099.9089,-3725.4219L14099.9226,-3725.4233L14099.9314,-3725.4265L14099.9376,-3725.4294L14099.9437,-3725.4342L14099.9494,-3725.4396L14099.9544,-3725.446L14099.9766,-3725.4853L14099.9868,-3725.5049L14099.9903,-3725.5107L14099.9946,-3725.5166L14100.0144,-3725.546L14100.0227,-3725.5621L14100.0311,-3725.5671L14100.0465,-3725.6014L14100.0545,-3725.6274L14100.0687,-3725.6787L14100.0775,-3725.7148L14100.0839,-3725.7459L14100.0887,-3725.7707L14100.0906,-3725.7878L14100.0882,-3725.796L14100.0842,-3725.8151L14100.0828,-3725.8232L14100.082,-3725.8317L14100.0788,-3725.8438L14100.0541,-3725.8499L14100.04,-3725.8504L14100.0245,-3725.8454L14100.0041,-3725.8352L14099.9956,-3725.8366L14099.9801,-3725.8393L14099.9681,-3725.8443L14099.9441,-3725.8516L14099.9075,-3725.8543L14099.8694,-3725.8532L14099.8201,-3725.8454L14099.799,-3725.8399L14099.7814,-3725.8357L14099.7433,-3725.8279L14099.6594,-3725.8216L14099.6439,-3725.8196L14099.5812,-3725.8088L14099.5664,-3725.8038L14099.5422,-3725.7889L14099.5305,-3725.7829L14099.46,-3725.7666L14099.4198,-3725.757L14099.4131,-3725.7546L14099.4067,-3725.7578L14099.4031,-3725.7626L14099.4001,-3725.7688L14099.3966,-3725.7796L14099.3961,-3725.7847L14099.3966,-3725.8545L14099.3967,-3725.8586L14099.3989,-3725.8639L14099.4106,-3725.8736L14099.4282,-3725.8815L14099.4426,-3725.8892L14099.4543,-3725.8984L14099.4628,-3725.9074L14099.4889,-3725.9407L14099.4917,-3725.9429L14099.4967,-3725.9457L14099.5084,-3725.9521L14099.5262,-3725.966L14099.534,-3725.9756L14099.5495,-3726.0009L14099.565,-3726.0184L14099.5734,-3726.0314L14099.5769,-3726.041L14099.5777,-3726.0447L14099.5835,-3726.0569L14099.5892,-3726.0921L14099.5805,-3726.1089L14099.5727,-3726.1159L14099.5692,-3726.1233L14099.5644,-3726.1288L14099.5682,-3726.1352L14099.5855,-3726.1587"/>
<path content="2,楢葉町,ルート1・ルート2・ルート3・ルート4,3.2,0.0,0.0," xlink:title="2" d="M14099.6925,-3724.9637L14099.6665,-3724.9232L14099.6548,-3724.9075L14099.6514,-3724.8976L14099.6554,-3724.8883L14099.6636,-3724.8813L14099.681,-3724.8731L14099.7113,-3724.8675L14099.735,-3724.8631"/>
<path content="2,楢葉町,ルート1・ルート2・ルート3・ルート4,3.2,0.0,0.0," xlink:title="2" d="M14099.8488,-3726.0804L14099.8025,-3726.1282L14099.7905,-3726.144L14099.7863,-3726.1559L14099.7799,-3726.179L14099.7672,-3726.2398L14099.7426,-3726.2398L14099.7289,-3726.2404L14099.748,-3726.1864L14099.7283,-3726.1832L14099.7177,-3726.1808L14099.7081,-3726.1784L14099.6786,-3726.1712L14099.6568,-3726.1656L14099.6312,-3726.1615L14099.6108,-3726.1581L14099.5939,-3726.1576L14099.5855,-3726.1587"/>
<path content="2,楢葉町,ルート1・ルート2・ルート3・ルート4,3.2,0.0,0.0," xlink:title="2" d="M14099.5855,-3726.1587L14099.5798,-3726.1604L14099.5741,-3726.1626L14099.4917,-3726.1976L14099.4896,-3726.2116L14099.487,-3726.2175L14099.4818,-3726.2257L14099.4754,-3726.2315L14099.4691,-3726.2359L14099.4424,-3726.246L14099.4219,-3726.2505L14099.3888,-3726.2584L14099.3761,-3726.2668L14099.3691,-3726.2759L14099.3592,-3726.2973L14099.3529,-3726.3108L14099.3409,-3726.3238L14099.312,-3726.3728L14099.3079,-3726.3796L14099.2866,-3726.415L14099.2782,-3726.4291L14099.2422,-3726.4505L14099.2314,-3726.4558L14099.2202,-3726.5013L14099.214,-3726.5213L14099.2091,-3726.5386L14099.2014,-3726.5625"/>
<path content="2,楢葉町,ルート1・ルート2・ルート3・ルート4,3.2,0.0,0.0," xlink:title="2" d="M14100.0173,-3726.5625L14100.0217,-3726.5434L14100.0231,-3726.5326L14100.0328,-3726.4981L14100.0484,-3726.4426L14100.0823,-3726.3204L14100.0879,-3726.2951L14100.0899,-3726.2843L14100.0926,-3726.2773L14100.0957,-3726.2596L14100.0992,-3726.2207L14100.1014,-3726.1896L14100.0977,-3726.1554L14100.0929,-3726.1068L14100.1196,-3726.0663L14100.1359,-3726.0454L14100.1401,-3726.0388L14100.1654,-3726.0021L14100.169,-3725.9993L14100.2063,-3725.9463L14100.2331,-3725.9107L14100.2458,-3725.8921L14100.2571,-3725.8766L14100.3141,-3725.7946L14100.3304,-3725.7721L14100.3832,-3725.6966L14100.4165,-3725.6519L14100.4182,-3725.646L14100.4225,-3725.6474L14100.4854,-3725.6799L14100.6235,-3725.7552L14100.6623,-3725.7769L14100.6686,-3725.7791L14100.7095,-3725.8021L14100.7779,-3725.8388L14100.8004,-3725.8471L14100.8089,-3725.8488L14100.8966,-3725.8752L14100.9003,-3725.877L14100.927,-3725.8871L14100.927,-3725.8944L14100.9328,-3726.0251L14100.946,-3726.1412L14100.9648,-3726.2834L14100.9739,-3726.3537L14101.0429,-3726.3479L14101.1239,-3726.3412L14101.1464,-3726.3396L14101.1345,-3726.2274L14101.126,-3726.1546L14101.1252,-3726.1471L14101.115,-3726.0312L14101.1126,-3726.0152L14101.1126,-3726.011L14101.1169,-3726.0027L14101.126,-3725.9929L14101.1345,-3725.9796L14101.138,-3725.9649L14101.138,-3725.9452L14101.1295,-3725.9277L14101.1204,-3725.9142L14101.1135,-3725.9059L14101.1097,-3725.8973L14101.108,-3725.8884L14101.1087,-3725.8801L14101.1155,-3725.8591L14101.1252,-3725.8401L14101.1407,-3725.8126L14101.1474,-3725.8035L14101.1525,-3725.7923L14101.156,-3725.7843L14101.1651,-3725.758L14101.1734,-3725.7315L14101.1786,-3725.7135L14101.1805,-3725.7058L14101.1821,-3725.6552L14101.1841,-3725.6307L14101.1872,-3725.6056L14101.1924,-3725.588L14101.2024,-3725.5729L14101.2048,-3725.5626L14101.2062,-3725.5529L14101.2078,-3725.5339L14101.2092,-3725.5283L14101.2057,-3725.3958L14101.2028,-3725.3081L14101.2025,-3725.2996L14101.2004,-3725.2093L14101.1906,-3725.2074L14101.1842,-3725.2056L14101.1801,-3725.201L14101.1768,-3725.1959L14101.1764,-3725.1867L14101.1736,-3725.1577L14101.1722,-3725.1471L14101.1681,-3725.1419L14101.1639,-3725.1365L14101.157,-3725.1315L14101.1506,-3725.1259L14101.1455,-3725.119L14101.1405,-3725.1131L14101.1386,-3725.1057L14101.1359,-3725.0946L14101.1285,-3725.0716L14101.1253,-3725.0546L14101.1178,-3725.0138L14101.1165,-3724.9588L14101.1193,-3724.9187L14101.1225,-3724.8916L14101.1262,-3724.8676L14101.1266,-3724.8354L14101.1234,-3724.8248L14101.1156,-3724.8096L14101.1073,-3724.794L14101.1027,-3724.7843L14101.0981,-3724.7677L14101.094,-3724.7507L14101.0907,-3724.7364L14101.0838,-3724.7129L14101.0723,-3724.6899L14101.0617,-3724.6678L14101.0497,-3724.6429L14101.0438,-3724.63L14101.0405,-3724.6213L14101.0359,-3724.613L14101.0346,-3724.6024L14101.0341,-3724.5932L14101.0387,-3724.5766L14101.0442,-3724.5518L14101.0497,-3724.538L14101.0525,-3724.5209L14101.053,-3724.5066L14101.0507,-3724.491L14101.0449,-3724.4883L14100.9956,-3724.4602L14100.8344,-3724.3678L14100.8294,-3724.3639L14100.8196,-3724.3582L14100.808,-3724.3538L14100.7985,-3724.3524L14100.7849,-3724.3466L14100.7481,-3724.3355L14100.7047,-3724.3182L14100.6671,-3724.3747L14100.6534,-3724.3924L14100.6416,-3724.4113L14100.6389,-3724.4364L14100.6372,-3724.4576L14100.6383,-3724.4816L14100.64,-3724.5056L14100.6366,-3724.5256L14100.6338,-3724.5385L14100.626,-3724.5535L14100.6177,-3724.5652L14100.6065,-3724.5775L14100.5926,-3724.587L14100.5759,-3724.5959L14100.5653,-3724.6015L14100.5502,-3724.6059L14100.5368,-3724.6098L14100.5257,-3724.6104L14100.4887,-3724.6095L14100.3212,-3724.6157L14100.2505,-3724.6179L14100.2304,-3724.6185"/>
<path content="2,楢葉町,ルート5・ルート6,0.4,0.0,0.0," xlink:title="2" d="M14099.6925,-3724.9637L14099.6665,-3724.9232L14099.6548,-3724.9075L14099.6514,-3724.8976L14099.6554,-3724.8883L14099.6636,-3724.8813L14099.681,-3724.8731L14099.7113,-3724.8675L14099.735,-3724.8631L14099.7538,-3724.9086L14099.7701,-3724.9401L14099.7858,-3724.9733L14099.8027,-3725.0018L14099.812,-3725.0204L14099.8225,-3725.0548L14099.8295,-3725.0775L14099.8353,-3725.0973L14099.8388,-3725.1206L14099.8421,-3725.2111L14099.8547,-3725.1877L14099.8718,-3725.1881L14099.8874,-3725.1929L14099.9035,-3725.1966L14099.9182,-3725.1989L14099.9338,-3725.1999L14099.9568,-3725.2016L14099.979,-3725.2016L14099.995,-3725.2016L14100.0113,-3725.1999L14100.029,-3725.1983L14100.0446,-3725.1979L14100.0636,-3725.1966L14100.086,-3725.1959L14100.0963,-3725.2019L14100.1036,-3725.2072L14100.1459,-3725.2483L14100.1551,-3725.2575L14100.1656,-3725.2712L14100.1705,-3725.2785L14100.1768,-3725.2889L14100.183,-3725.3013L14100.1749,-3725.3095L14100.1699,-3725.3181L14100.1687,-3725.3254L14100.169,-3725.3335L14100.1711,-3725.341L14100.1734,-3725.3485L14100.1611,-3725.3488L14100.1231,-3725.3496L14100.0939,-3725.3502L14099.9864,-3725.3575L14099.892,-3725.3583L14099.8606,-3725.36L14099.861,-3725.3969L14099.8631,-3725.4127L14099.8666,-3725.418L14099.8765,-3725.4219L14099.9089,-3725.4219L14099.9226,-3725.4233L14099.9314,-3725.4265L14099.9376,-3725.4294L14099.9437,-3725.4342L14099.9494,-3725.4396L14099.9544,-3725.446L14099.9766,-3725.4853L14099.9868,-3725.5049L14099.9903,-3725.5107L14099.9946,-3725.5166L14100.0144,-3725.546L14100.0227,-3725.5621L14100.0311,-3725.5671L14100.0465,-3725.6014L14100.0545,-3725.6274L14100.0687,-3725.6787L14100.0775,-3725.7148L14100.0839,-3725.7459L14100.0887,-3725.7707L14100.0906,-3725.7878L14100.0882,-3725.796L14100.0842,-3725.8151L14100.0828,-3725.8232L14100.082,-3725.8317L14100.0788,-3725.8438L14100.0802,-3725.8579L14100.0802,-3725.8685L14100.0823,-3725.9007L14100.0435,-3725.9052L14100.0132,-3725.9113L14099.9801,-3725.9204L14099.9611,-3725.9282L14099.9385,-3725.9424L14099.923,-3725.9551L14099.9096,-3725.9743L14099.8976,-3725.9971L14099.8807,-3726.0346L14099.868,-3726.0557L14099.8613,-3726.0632L14099.8488,-3726.0804L14099.8025,-3726.1282L14099.7905,-3726.144L14099.7863,-3726.1559L14099.7799,-3726.179L14099.7672,-3726.2398L14099.7785,-3726.2432L14099.8072,-3726.2584L14099.8228,-3726.2637L14099.8392,-3726.2665L14099.8568,-3726.2679L14099.9316,-3726.2734L14099.9628,-3726.2748L14099.9928,-3726.2771L14100.0054,-3726.2782L14100.0407,-3726.2809L14100.0611,-3726.2815L14100.0899,-3726.2843L14100.0879,-3726.2951L14100.0823,-3726.3204L14100.0484,-3726.4426L14100.0328,-3726.4981L14100.0231,-3726.5326L14100.0217,-3726.5434L14100.0173,-3726.5625"/>
<path content="3,広野町,①コース,2.0,0.0,0.0," xlink:title="3" d="M14099.4773,-3721.3707L14099.4569,-3721.3358L14099.4315,-3721.2869L14099.3907,-3721.2186L14099.3872,-3721.2141L14099.3829,-3721.2094L14099.3697,-3721.2066L14099.3597,-3721.2056L14099.2619,-3721.2056L14099.2279,-3721.2046L14099.2209,-3721.2034L14099.2119,-3721.2062L14099.1985,-3721.2101L14099.1823,-3721.2203L14099.1725,-3721.2293L14099.1676,-3721.2355L14099.1655,-3721.2424L14099.1651,-3721.2593L14099.1716,-3721.3076"/>
<path content="3,広野町,①コース,2.0,0.0,0.0," xlink:title="3" d="M14099.4773,-3721.3707L14099.4886,-3721.3679L14099.5153,-3721.364L14099.5653,-3721.3583L14099.6019,-3721.3533L14099.6596,-3721.3408L14099.68,-3721.3369L14099.6969,-3721.3322L14099.7082,-3721.329L14099.7371,-3721.3172L14099.7835,-3721.2919L14099.799,-3721.2856L14099.7969,-3721.2742L14099.7692,-3721.2284L14099.7491,-3721.1872L14099.7371,-3721.1707L14099.7511,-3721.1651L14099.792,-3721.1566L14099.8139,-3721.1492L14099.8359,-3721.1732L14099.9002,-3721.2665L14099.9147,-3721.2874L14099.9249,-3721.3003L14099.934,-3721.3129L14099.9447,-3721.3259L14099.9631,-3721.3502L14099.9751,-3721.366L14099.9896,-3721.3849L14100.0111,-3721.4187L14100.0227,-3721.4339L14100.0299,-3721.4424L14100.0388,-3721.4525L14100.0467,-3721.4649L14100.0557,-3721.4811L14100.0663,-3721.5014L14100.0831,-3721.5311L14100.1035,-3721.5552L14100.1232,-3721.5826L14100.1427,-3721.6127L14100.1662,-3721.6516L14100.1772,-3721.6697L14100.1923,-3721.6897L14100.2002,-3721.7023L14100.2117,-3721.7171L14100.2322,-3721.754L14100.2468,-3721.7774L14100.2603,-3721.7982L14100.2796,-3721.8256L14100.3045,-3721.868L14100.33,-3721.9081L14100.3545,-3721.945L14100.3654,-3721.9651L14100.3819,-3721.995L14100.3954,-3722.01L14100.416,-3722.0619L14100.4199,-3722.0749L14100.4296,-3722.1054L14100.4339,-3722.1189L14100.4374,-3722.1408L14100.443,-3722.1541L14100.4403,-3722.1763L14100.4381,-3722.2355L14100.4297,-3722.3104L14100.4135,-3722.3994L14100.4075,-3722.4329L14100.4015,-3722.4574L14100.3948,-3722.4911L14100.3857,-3722.5087L14100.3825,-3722.5247L14100.3445,-3722.6118L14100.3332,-3722.6349L14100.3114,-3722.6698L14100.2945,-3722.6901L14100.2431,-3722.7408L14100.1995,-3722.7791L14100.1847,-3722.7904L14100.1551,-3722.809"/>
<path content="3,広野町,①コース,2.0,0.0,0.0," xlink:title="3" d="M14099.397,-3721.4658L14099.4139,-3721.4225L14099.4203,-3721.4124L14099.4372,-3721.3927L14099.4435,-3721.3871L14099.4576,-3721.3792L14099.4773,-3721.3707"/>
<path content="3,広野町,①コース,2.0,0.0,0.0," xlink:title="3" d="M14100.1551,-3722.809L14100.1488,-3722.8197L14100.1432,-3722.8295L14100.134,-3722.8456L14100.0925,-3722.9193"/>
<path content="3,広野町,①コース,2.0,0.0,0.0," xlink:title="3" d="M14100.1551,-3722.809L14100.1663,-3722.7914L14100.172,-3722.7825L14100.1819,-3722.7656L14100.1974,-3722.7414L14100.2143,-3722.7115L14100.234,-3722.6642L14100.2558,-3722.6028L14100.2657,-3722.5628L14100.2706,-3722.5329L14100.2755,-3722.5036L14100.2621,-3722.5014L14100.2481,-3722.5014L14100.2255,-3722.5048L14100.2044,-3722.5104L14100.1854,-3722.5183L14100.1542,-3722.5368L14100.1502,-3722.5391L14100.1312,-3722.5482L14100.1122,-3722.5549L14100.0862,-3722.5583L14100.0446,-3722.5662L14100.0312,-3722.5712L14100.0262,-3722.574L14100.0158,-3722.5797L14099.9742,-3722.6118L14099.9728,-3722.6125L14099.9439,-3722.6264L14099.9292,-3722.6315L14099.9158,-3722.6338L14099.8595,-3722.6496L14099.8334,-3722.6603L14099.7982,-3722.6811L14099.7856,-3722.6866L14099.7771,-3722.6907L14099.7694,-3722.6929L14099.734,-3722.7038L14099.7243,-3722.7127L14099.7081,-3722.7239L14099.7032,-3722.7301L14099.7009,-3722.7371L14099.7011,-3722.7487L14099.7039,-3722.7656L14099.7035,-3722.7819L14099.6986,-3722.7934L14099.685,-3722.8074L14099.6776,-3722.8136L14099.6668,-3722.8221L14099.6596,-3722.8286L14099.6222,-3722.8541L14099.5249,-3722.915L14099.5033,-3722.9301L14099.4976,-3722.9352L14099.4899,-3722.9414L14099.4695,-3722.9633L14099.4397,-3722.9907L14099.4202,-3723.0202L14099.3779,-3723.0794L14099.3589,-3723.1042L14099.354,-3723.1093L14099.3202,-3723.1481L14099.3026,-3723.1639L14099.278,-3723.1831L14099.2569,-3723.1977L14099.2456,-3723.2039L14099.2379,-3723.2076L14099.23,-3723.2098L14099.2139,-3723.2118L14099.1787,-3723.2124L14099.0744,-3723.212L14098.9485,-3723.2146L14098.9316,-3723.2135L14098.9109,-3723.2096L14098.8837,-3723.2045L14098.8739,-3723.2028L14098.8401,-3723.196L14098.8277,-3723.1942"/>
<path content="3,広野町,①コース,2.0,0.0,0.0," xlink:title="3" d="M14100.0925,-3722.9193L14100.0121,-3722.8898L14100.0007,-3722.9101L14099.9777,-3722.9504L14099.958,-3722.9864L14099.9331,-3723.0299L14099.9131,-3723.0649L14099.9015,-3723.0887"/>
<path content="3,広野町,①コース,2.0,0.0,0.0," xlink:title="3" d="M14100.0925,-3722.9193L14100.0714,-3722.9566L14100.0192,-3723.0552L14099.9425,-3723.1926L14099.9214,-3723.2298L14099.8987,-3723.3157"/>
<path content="3,広野町,①コース,2.0,0.0,0.0," xlink:title="3" d="M14098.8277,-3723.1942L14098.8065,-3723.269L14098.8121,-3723.2817L14098.8271,-3723.2968L14098.8462,-3723.2952L14098.8602,-3723.2933L14098.9017,-3723.2912L14098.9239,-3723.3008L14098.9334,-3723.3166L14098.939,-3723.3396L14098.9374,-3723.3666L14098.9231,-3723.3817L14098.9073,-3723.3912L14098.893,-3723.3967L14098.8744,-3723.4039"/>
<path content="3,広野町,①コース,2.0,0.0,0.0," xlink:title="3" d="M14098.8277,-3723.1942L14098.7944,-3723.1892L14098.7423,-3723.184L14098.7282,-3723.1825L14098.6564,-3723.1786L14098.5705,-3723.178L14098.55,-3723.1797L14098.5393,-3723.1812L14098.4973,-3723.1904L14098.4825,-3723.1932L14098.455,-3723.1988L14098.4452,-3723.1988L14098.4273,-3723.2011L14098.41,-3723.2007L14098.3685,-3723.1958L14098.3502,-3723.1937L14098.334,-3723.1898L14098.3281,-3723.1878L14098.3258,-3723.186L14098.3234,-3723.1842L14098.2929,-3723.1538L14098.2643,-3723.1242L14098.2389,-3723.098L14098.2277,-3723.0896L14098.2183,-3723.0851L14098.2009,-3723.0817L14098.1727,-3723.0817L14098.1483,-3723.0856L14098.1099,-3723.0911L14098.0974,-3723.0929L14098.0608,-3723.0923L14098.0256,-3723.0861L14097.9932,-3723.0861L14097.9677,-3723.0882L14097.9664,-3723.0883L14097.9651,-3723.0884L14097.9285,-3723.0929L14097.897,-3723.0979L14097.9045,-3723.1092L14097.9062,-3723.1232L14097.9059,-3723.1369L14097.9009,-3723.1548L14097.8933,-3723.174L14097.8778,-3723.1977L14097.8627,-3723.2116L14097.851,-3723.2213L14097.8411,-3723.2274L14097.8285,-3723.2388L14097.8039,-3723.2574L14097.7483,-3723.2957L14097.7025,-3723.3329L14097.6764,-3723.3622L14097.6673,-3723.3746L14097.664,-3723.3806L14097.6562,-3723.395M14097.6562,-3723.5453L14097.6616,-3723.5706L14097.6715,-3723.6033L14097.681,-3723.6178L14097.6849,-3723.63"/>
<path content="3,広野町,①コース,2.0,0.0,0.0," xlink:title="3" d="M14099.8987,-3723.3157L14099.8577,-3723.4369L14099.8521,-3723.4779L14099.848,-3723.5188L14099.8455,-3723.5697L14099.8477,-3723.6036L14099.8553,-3723.6523L14099.861,-3723.6807L14099.8643,-3723.6991L14099.6595,-3723.6964L14099.4871,-3723.6895L14099.4832,-3723.6669L14099.4827,-3723.6333L14099.4885,-3723.6155L14099.505,-3723.5739L14099.537,-3723.534L14099.5483,-3723.5177L14099.5715,-3723.4901L14099.5898,-3723.4709L14099.6349,-3723.4304L14099.6552,-3723.4138L14099.6595,-3723.4111L14099.6792,-3723.4005L14099.6982,-3723.3909L14099.7074,-3723.3864L14099.732,-3723.3746L14099.7989,-3723.3447L14099.8348,-3723.3261L14099.8987,-3723.3157"/>
<path content="3,広野町,①コース,2.0,0.0,0.0," xlink:title="3" d="M14097.6849,-3723.63L14097.7095,-3723.6619L14097.7376,-3723.6951L14097.7475,-3723.7154L14097.7524,-3723.7419L14097.7573,-3723.8084L14097.7566,-3723.8365L14097.7503,-3723.8714L14097.7397,-3723.8962L14097.7362,-3723.9013L14097.7271,-3723.9103L14097.7031,-3723.9255L14097.6855,-3723.9334L14097.671,-3723.9386L14097.6562,-3723.9444M14097.6562,-3723.6189L14097.6698,-3723.6243L14097.6849,-3723.63"/>
<path content="3,広野町,②コース,2.0,0.0,0.0," xlink:title="3" d="M14099.8361,-3720.8398L14099.8229,-3720.8372L14099.8103,-3720.831L14099.8004,-3720.8457L14099.8342,-3720.8598L14099.8764,-3720.8704L14099.9025,-3720.8761L14099.9159,-3720.8845L14099.9658,-3720.9071L14100.0264,-3720.9245L14100.0496,-3720.9346L14100.0658,-3720.9318L14100.0841,-3720.9313L14100.1559,-3720.9217L14100.1693,-3720.9212L14100.1735,-3720.9213L14100.1779,-3720.9285L14100.1852,-3720.9372L14100.1936,-3720.9415L14100.1975,-3720.9448L14100.2005,-3720.9486L14100.2026,-3720.9522L14100.2116,-3720.9587L14100.2266,-3720.9683L14100.24,-3720.9743L14100.2528,-3720.9805L14100.2607,-3720.9843L14100.2722,-3720.9848L14100.2817,-3720.9865L14100.282,-3720.9894L14100.2845,-3721.0083L14100.2869,-3721.0253L14100.2898,-3721.0481L14100.2937,-3721.0791L14100.2995,-3721.1227L14100.3053,-3721.1603L14100.3107,-3721.2093L14100.317,-3721.2608L14100.3274,-3721.3234L14100.3341,-3721.3696L14100.3453,-3721.4404L14100.352,-3721.4821L14100.3572,-3721.5238L14100.3651,-3721.5754L14100.3693,-3721.6126L14100.3714,-3721.624L14100.4599,-3721.6267L14100.4911,-3721.6281L14100.5079,-3721.622L14100.5269,-3721.618L14100.5487,-3721.618L14100.5698,-3721.6225L14100.5945,-3721.6326L14100.6046,-3721.6387L14100.648,-3721.6676L14100.6519,-3721.6702L14100.6451,-3721.6789L14100.6374,-3721.6913L14100.6261,-3721.7138L14100.6231,-3721.7529L14100.6169,-3721.7724L14100.6155,-3721.7966L14100.6113,-3721.8383L14100.6086,-3721.8663L14100.6015,-3721.8733L14100.5867,-3721.9031L14100.5726,-3721.9206L14100.5564,-3721.9341L14100.5311,-3721.9516L14100.5157,-3721.9596L14100.505,-3721.9651L14100.4022,-3722.022L14100.3954,-3722.01"/>
<path content="3,広野町,②コース,2.0,0.0,0.0," xlink:title="3" d="M14099.9002,-3721.2665L14099.8532,-3721.2738L14099.8405,-3721.2749L14099.8138,-3721.2811L14099.799,-3721.2856"/>
<path content="3,広野町,②コース,2.0,0.0,0.0," xlink:title="3" d="M14099.799,-3721.2856L14099.7969,-3721.2742L14099.7692,-3721.2284L14099.7491,-3721.1872L14099.7371,-3721.1707L14099.7511,-3721.1651L14099.792,-3721.1566L14099.8139,-3721.1492L14099.8359,-3721.1732L14099.9002,-3721.2665"/>
<path content="3,広野町,②コース,2.0,0.0,0.0," xlink:title="3" d="M14099.799,-3721.2856L14099.7835,-3721.2919L14099.7371,-3721.3172L14099.7082,-3721.329L14099.6969,-3721.3322L14099.68,-3721.3369L14099.6596,-3721.3408L14099.6019,-3721.3533L14099.5653,-3721.3583L14099.5153,-3721.364L14099.4886,-3721.3679L14099.4773,-3721.3707"/>
<path content="3,広野町,②コース,2.0,0.0,0.0," xlink:title="3" d="M14099.1716,-3721.3076L14099.1651,-3721.2593L14099.1655,-3721.2424L14099.1676,-3721.2355L14099.1725,-3721.2293L14099.1823,-3721.2203L14099.1985,-3721.2101L14099.2119,-3721.2062L14099.2209,-3721.2034L14099.2279,-3721.2046L14099.2619,-3721.2056L14099.3597,-3721.2056L14099.3697,-3721.2066L14099.3829,-3721.2094L14099.3872,-3721.2141L14099.3907,-3721.2186L14099.4315,-3721.2869L14099.4569,-3721.3358L14099.4773,-3721.3707"/>
<path content="3,広野町,②コース,2.0,0.0,0.0," xlink:title="3" d="M14099.4773,-3721.3707L14099.4576,-3721.3792L14099.4435,-3721.3871L14099.4372,-3721.3927L14099.4203,-3721.4124L14099.4139,-3721.4225L14099.397,-3721.4658"/>
<path content="3,広野町,②コース,2.0,0.0,0.0," xlink:title="3" d="M14100.3954,-3722.01L14100.3819,-3721.995L14100.3654,-3721.9651L14100.3545,-3721.945L14100.33,-3721.9081L14100.3045,-3721.868L14100.2796,-3721.8256L14100.2603,-3721.7982L14100.2468,-3721.7774L14100.2322,-3721.754L14100.2117,-3721.7171L14100.2002,-3721.7023L14100.1923,-3721.6897L14100.1772,-3721.6697L14100.1662,-3721.6516L14100.1427,-3721.6127L14100.1232,-3721.5826L14100.1035,-3721.5552L14100.0831,-3721.5311L14100.0663,-3721.5014L14100.0557,-3721.4811L14100.0467,-3721.4649L14100.0388,-3721.4525L14100.0299,-3721.4424L14100.0227,-3721.4339L14100.0111,-3721.4187L14099.9896,-3721.3849L14099.9751,-3721.366L14099.9631,-3721.3502L14099.9447,-3721.3259L14099.934,-3721.3129L14099.9249,-3721.3003L14099.9147,-3721.2874L14099.9002,-3721.2665"/>
<path content="3,広野町,②コース,2.0,0.0,0.0," xlink:title="3" d="M14100.416,-3722.0619L14100.3954,-3722.01"/>
<path content="3,広野町,③コース,2.0,0.0,0.0," xlink:title="3" d="M14099.1716,-3721.3076L14099.1651,-3721.2593L14099.1655,-3721.2424L14099.1676,-3721.2355L14099.1725,-3721.2293L14099.1823,-3721.2203L14099.1985,-3721.2101L14099.2119,-3721.2062L14099.2209,-3721.2034L14099.2279,-3721.2046L14099.2619,-3721.2056L14099.3597,-3721.2056L14099.3697,-3721.2066L14099.3829,-3721.2094L14099.3872,-3721.2141L14099.3907,-3721.2186L14099.4315,-3721.2869L14099.4569,-3721.3358L14099.4773,-3721.3707"/>
<path content="3,広野町,③コース,2.0,0.0,0.0," xlink:title="3" d="M14099.4773,-3721.3707L14099.4886,-3721.3679L14099.5153,-3721.364L14099.5025,-3721.3437L14099.4703,-3721.2845L14099.4097,-3721.1662L14099.4029,-3721.1507L14099.4028,-3721.1505L14099.4027,-3721.1503L14099.4025,-3721.1499L14099.3683,-3721.0725L14099.3592,-3721.0481L14099.3588,-3721.0468L14099.3485,-3721.0192L14099.3421,-3720.9882L14099.3379,-3720.9239L14099.3372,-3720.9046L14099.3316,-3720.8609L14099.3252,-3720.8147L14099.3217,-3720.7944L14099.3138,-3720.7461L14099.3731,-3720.6997L14099.3982,-3720.6851L14099.4013,-3720.6794L14099.4386,-3720.6569L14099.4773,-3720.698L14099.535,-3720.7685L14099.5646,-3720.8073L14099.5702,-3720.8152L14099.6603,-3720.9328L14099.6939,-3720.9819L14099.7145,-3721.0066L14099.7334,-3721.0322L14099.7406,-3721.0411L14099.7453,-3721.0486L14099.7498,-3721.0569L14099.7611,-3721.0744L14099.7755,-3721.1057L14099.7787,-3721.1095L14099.7847,-3721.1138L14099.7906,-3721.119L14099.7956,-3721.1257L14099.8041,-3721.1358L14099.8139,-3721.1492L14099.8359,-3721.1732L14099.9002,-3721.2665L14099.9147,-3721.2874L14099.9249,-3721.3003L14099.934,-3721.3129L14099.9447,-3721.3259L14099.9631,-3721.3502L14099.9751,-3721.366L14099.9896,-3721.3849L14100.0111,-3721.4187L14100.0227,-3721.4339L14100.0299,-3721.4424L14100.0388,-3721.4525L14100.0467,-3721.4649L14100.0557,-3721.4811L14100.0663,-3721.5014L14100.0831,-3721.5311L14100.1035,-3721.5552L14100.1232,-3721.5826L14100.1427,-3721.6127L14100.1662,-3721.6516L14100.1772,-3721.6697L14100.1923,-3721.6897L14100.2002,-3721.7023L14100.2117,-3721.7171L14100.2322,-3721.754L14100.2468,-3721.7774L14100.2603,-3721.7982L14100.2796,-3721.8256L14100.3045,-3721.868L14100.33,-3721.9081L14100.3545,-3721.945L14100.3654,-3721.9651L14100.3819,-3721.995L14100.3954,-3722.01L14100.416,-3722.0619L14100.4199,-3722.0749L14100.4296,-3722.1054L14100.4339,-3722.1189L14100.4374,-3722.1408L14100.443,-3722.1541L14100.4403,-3722.1763L14100.4381,-3722.2355L14100.4297,-3722.3104L14100.4135,-3722.3994L14100.4075,-3722.4329L14100.4015,-3722.4574L14100.3948,-3722.4911L14100.3857,-3722.5087L14100.4016,-3722.5094L14100.4154,-3722.5163L14100.4179,-3722.5235L14100.4223,-3722.5322L14100.4284,-3722.5446L14100.4397,-3722.5855L14100.4469,-3722.608L14100.4498,-3722.6193L14100.4538,-3722.6294L14100.4683,-3722.67L14100.4795,-3722.6979L14100.4857,-3722.7146L14100.49,-3722.7313L14100.4926,-3722.7588L14100.49,-3722.807L14100.4882,-3722.8331L14100.4842,-3722.8408L14100.4755,-3722.8509L14100.4662,-3722.8619L14100.4581,-3722.8686L14100.456,-3722.8766L14100.452,-3722.8886L14100.4494,-3722.9006L14100.4465,-3722.9125L14100.4389,-3722.9341L14100.4312,-3722.9561L14100.4246,-3722.9721L14100.4169,-3722.9906L14100.4096,-3723.0043L14100.4038,-3723.0102L14100.3938,-3723.0186L14100.3874,-3723.036L14100.3747,-3723.0709L14100.3698,-3723.0822L14100.3459,-3723.1431L14100.3395,-3723.1532L14100.3191,-3723.1752L14100.2163,-3723.2619L14100.1924,-3723.2833L14100.1812,-3723.2923L14100.1734,-3723.3036L14100.1664,-3723.3177L14100.1558,-3723.343L14100.1466,-3723.3594L14100.1283,-3723.3819L14100.1216,-3723.3946L14100.1178,-3723.4067L14100.1185,-3723.4326L14100.1241,-3723.4783L14100.1304,-3723.543L14100.1304,-3723.5875L14100.1234,-3723.6033L14100.1129,-3723.6226L14100.1119,-3723.6331L14100.1144,-3723.6421L14100.1269,-3723.6585L14100.1699,-3723.7126L14100.1751,-3723.7253L14100.1199,-3723.7205L14100.1128,-3723.7194L14100.1037,-3723.7188L14100.0509,-3723.7092L14100.0093,-3723.7042L14099.9396,-3723.7008L14099.8721,-3723.6991L14099.8643,-3723.6991"/>
<path content="3,広野町,③コース,2.0,0.0,0.0," xlink:title="3" d="M14099.397,-3721.4658L14099.4139,-3721.4225L14099.4203,-3721.4124L14099.4372,-3721.3927L14099.4435,-3721.3871L14099.4576,-3721.3792L14099.4773,-3721.3707"/>
<path content="3,広野町,③コース,2.0,0.0,0.0," xlink:title="3" d="M14100.0925,-3722.9193L14100.1051,-3722.9211L14100.1495,-3722.9295L14100.1924,-3722.9419L14100.2199,-3722.9526L14100.2573,-3722.9638"/>
<path content="3,広野町,③コース,2.0,0.0,0.0," xlink:title="3" d="M14100.0925,-3722.9193L14100.0121,-3722.8898L14100.0007,-3722.9101L14099.9777,-3722.9504L14099.958,-3722.9864L14099.9331,-3723.0299L14099.9131,-3723.0649L14099.9015,-3723.0887L14099.8934,-3723.0991L14099.889,-3723.1076L14099.8728,-3723.1353L14099.7656,-3723.1016L14099.7617,-3723.1002L14099.7543,-3723.0997L14099.745,-3723.1016L14099.7304,-3723.1082L14099.7111,-3723.1143L14099.6967,-3723.1194L14099.6863,-3723.1253L14099.6786,-3723.1289L14099.6722,-3723.1293L14099.668,-3723.1287L14099.6646,-3723.126L14099.6617,-3723.1225L14099.6569,-3723.1169L14099.648,-3723.1088L14099.641,-3723.1019L14099.6355,-3723.0946L14099.6287,-3723.0868L14099.621,-3723.0783L14099.6117,-3723.0681L14099.6025,-3723.0619"/>
<path content="3,広野町,③コース,2.0,0.0,0.0," xlink:title="3" d="M14099.6025,-3723.0619L14099.609,-3723.0592"/>
<path content="3,広野町,③コース,2.0,0.0,0.0," xlink:title="3" d="M14099.6025,-3723.0619L14099.5891,-3723.0766L14099.5765,-3723.0889L14099.5636,-3723.0991L14099.5581,-3723.1036L14099.5524,-3723.1053L14099.5317,-3723.1053L14099.5131,-3723.1025L14099.4998,-3723.1016L14099.4934,-3723.1031L14099.4843,-3723.1098L14099.48,-3723.1171L14099.4772,-3723.1318L14099.4765,-3723.1774L14099.473,-3723.1926L14099.4722,-3723.2L14099.473,-3723.2101L14099.4814,-3723.2383L14099.4997,-3723.2799L14099.5124,-3723.2951L14099.5377,-3723.3115L14099.5486,-3723.3202L14099.556,-3723.3278L14099.5657,-3723.3387L14099.5455,-3723.3622L14099.5349,-3723.3712L14099.5293,-3723.3735L14099.4927,-3723.3791L14099.4666,-3723.3819L14099.4124,-3723.3909L14099.3969,-3723.396L14099.3948,-3723.3966L14099.3864,-3723.4016L14099.3751,-3723.4134L14099.3596,-3723.436L14099.3462,-3723.4529L14099.3174,-3723.4822L14099.3068,-3723.4901L14099.2949,-3723.4951L14099.2695,-3723.5008L14099.1928,-3723.5132L14099.1759,-3723.5128L14099.1329,-3723.5216L14099.109,-3723.53L14099.0987,-3723.5351L14099.0928,-3723.5402L14099.0837,-3723.5521L14099.0625,-3723.5864L14099.0621,-3723.5937"/>
<path content="3,広野町,③コース,2.0,0.0,0.0," xlink:title="3" d="M14099.8643,-3723.6991L14099.861,-3723.6807L14099.8553,-3723.6523L14099.8477,-3723.6036L14099.8455,-3723.5697L14099.848,-3723.5188L14099.8521,-3723.4779L14099.8577,-3723.4369L14099.8987,-3723.3157L14099.9214,-3723.2298L14099.9425,-3723.1926L14100.0192,-3723.0552L14100.0714,-3722.9566L14100.0925,-3722.9193"/>
<path content="3,広野町,③コース,2.0,0.0,0.0," xlink:title="3" d="M14099.8643,-3723.6991L14099.8652,-3723.7095L14099.8672,-3723.7275L14099.8839,-3723.8235L14099.8868,-3723.8293L14099.9298,-3723.938L14099.9835,-3724.0726L14100.008,-3724.1189L14100.0372,-3724.2096L14100.0459,-3724.2426L14100.0476,-3724.2637L14100.0483,-3724.2829L14100.0473,-3724.2959L14100.0442,-3724.3098L14100.0379,-3724.3282L14100.0352,-3724.3348L14100.0303,-3724.3468L14100.0227,-3724.3651L14100.0122,-3724.387L14099.998,-3724.407L14099.9917,-3724.4181L14100.0023,-3724.4224L14100.0164,-3724.4298L14100.0445,-3724.4523L14100.0628,-3724.4776L14100.0713,-3724.4968L14100.0769,-3724.5165L14100.079,-3724.5357L14100.0804,-3724.5785L14100.0809,-3724.5887L14100.083,-3724.5948L14100.0866,-3724.6019L14100.0954,-3724.6075L14100.1037,-3724.6117L14100.1227,-3724.6179L14100.1396,-3724.6207L14100.2149,-3724.6196L14100.2304,-3724.6185L14100.2542,-3724.7354"/>
<path content="3,広野町,④コース,2.0,0.0,0.0," xlink:title="3" d="M14099.799,-3721.2856L14099.7969,-3721.2742"/>
<path content="3,広野町,④コース,2.0,0.0,0.0," xlink:title="3" d="M14099.799,-3721.2856L14099.8138,-3721.2811L14099.8405,-3721.2749L14099.8532,-3721.2738L14099.9002,-3721.2665L14099.8359,-3721.1732L14099.8139,-3721.1492L14099.8041,-3721.1358L14099.7956,-3721.1257L14099.7906,-3721.119L14099.7847,-3721.1138L14099.7787,-3721.1095L14099.7755,-3721.1057L14099.7611,-3721.0744L14099.7498,-3721.0569L14099.7453,-3721.0486L14099.7406,-3721.0411L14099.7334,-3721.0322L14099.7145,-3721.0066L14099.6939,-3720.9819L14099.6603,-3720.9328L14099.5702,-3720.8152L14099.5646,-3720.8073L14099.535,-3720.7685L14099.4773,-3720.698L14099.4386,-3720.6569L14099.4013,-3720.6794L14099.3982,-3720.6851L14099.3731,-3720.6997L14099.3138,-3720.7461L14099.295,-3720.7549L14099.271,-3720.7628L14099.2555,-3720.7651L14099.2211,-3720.7645L14099.1971,-3720.7611L14099.1133,-3720.7493L14099.088,-3720.7476L14099.0751,-3720.7465L14099.0458,-3720.7454L14098.9866,-3720.7403L14098.9493,-3720.7364L14098.9014,-3720.7324L14098.8754,-3720.7369L14098.8613,-3720.7442L14098.8564,-3720.7482L14098.8204,-3720.7849L14098.7374,-3720.8716L14098.7286,-3720.8828L14098.72,-3720.8948L14098.7058,-3720.9178L14098.6797,-3720.9589L14098.6669,-3720.9761L14098.6575,-3720.9902L14098.6503,-3721.001L14098.6431,-3721.0135L14098.6412,-3721.0238L14098.6044,-3721.084L14098.5854,-3721.1099L14098.5671,-3721.1279L14098.5439,-3721.1482L14098.5066,-3721.1769L14098.4664,-3721.1998L14098.4493,-3721.2048L14098.4242,-3721.2107L14098.3932,-3721.2189L14098.3738,-3721.2228L14098.3623,-3721.2265L14098.3439,-3721.2333L14098.32,-3721.2445L14098.3094,-3721.2502L14098.2975,-3721.2603L14098.2904,-3721.2682L14098.2771,-3721.289L14098.2545,-3721.3426L14098.2346,-3721.3852L14098.2201,-3721.3994L14098.2102,-3721.409L14098.1994,-3721.4179L14098.1736,-3721.4349L14098.1574,-3721.4434L14098.1447,-3721.449L14098.1032,-3721.4637L14098.0905,-3721.4699L14098.0821,-3721.4755L14098.1215,-3721.5786L14098.1349,-3721.6169L14098.1349,-3721.6265L14098.1271,-3721.6451L14098.1147,-3721.6758L14098.1011,-3721.7099L14098.0926,-3721.7239L14098.087,-3721.7279L14098.0792,-3721.7313L14098.0468,-3721.742L14098.0396,-3721.7442L14098.0089,-3721.7538L14097.9884,-3721.7583L14097.9662,-3721.7578L14097.9567,-3721.7589L14097.9363,-3721.7538L14097.9314,-3721.7544L14097.911,-3721.7026L14097.8997,-3721.671L14097.8779,-3721.6163L14097.873,-3721.6022"/>
<path content="3,広野町,④コース,2.0,0.0,0.0," xlink:title="3" d="M14099.4773,-3721.3707L14099.4569,-3721.3358L14099.4315,-3721.2869L14099.3907,-3721.2186L14099.3872,-3721.2141L14099.3829,-3721.2094L14099.3697,-3721.2066L14099.3597,-3721.2056L14099.2619,-3721.2056L14099.2279,-3721.2046L14099.2209,-3721.2034L14099.2119,-3721.2062L14099.1985,-3721.2101L14099.1823,-3721.2203L14099.1725,-3721.2293L14099.1676,-3721.2355L14099.1655,-3721.2424L14099.1651,-3721.2593L14099.1716,-3721.3076"/>
<path content="3,広野町,④コース,2.0,0.0,0.0," xlink:title="3" d="M14099.4773,-3721.3707L14099.4886,-3721.3679L14099.5153,-3721.364L14099.5653,-3721.3583L14099.6019,-3721.3533L14099.6596,-3721.3408L14099.68,-3721.3369L14099.6969,-3721.3322L14099.7082,-3721.329L14099.7371,-3721.3172L14099.7835,-3721.2919L14099.799,-3721.2856"/>
<path content="3,広野町,④コース,2.0,0.0,0.0," xlink:title="3" d="M14099.397,-3721.4658L14099.4139,-3721.4225L14099.4203,-3721.4124L14099.4372,-3721.3927L14099.4435,-3721.3871L14099.4576,-3721.3792L14099.4773,-3721.3707"/>
<path content="3,広野町,④コース,2.0,0.0,0.0," xlink:title="3" d="M14097.873,-3721.6022L14097.8819,-3721.5989"/>
<path content="3,広野町,④コース,2.0,0.0,0.0," xlink:title="3" d="M14097.873,-3721.6022L14097.8404,-3721.6218L14097.8144,-3721.6329L14097.8071,-3721.636L14097.7927,-3721.64L14097.7695,-3721.6462L14097.7322,-3721.6535L14097.6696,-3721.6634L14097.6599,-3721.6644L14097.6587,-3721.6646L14097.6563,-3721.6651L14097.6562,-3721.6651"/>
<path content="3,広野町,④コース,2.0,0.0,0.0," xlink:title="3" d="M14097.6562,-3722.3905L14097.6588,-3722.391L14097.6861,-3722.3992L14097.7694,-3722.418L14097.8011,-3722.4219L14097.8201,-3722.4264L14097.8455,-3722.4343L14097.8751,-3722.4468L14097.9701,-3722.4828L14098.0285,-3722.5014L14098.1123,-3722.5341L14098.1982,-3722.569L14098.2319,-3722.5825L14098.2369,-3722.5837L14098.2601,-3722.5932L14098.2841,-3722.5977L14098.3404,-3722.6096L14098.3882,-3722.6197L14098.4009,-3722.6225L14098.4486,-3722.6318"/>
<path content="3,広野町,⑤コース,2.0,0.0,0.0," xlink:title="3" d="M14099.4644,-3720.0405L14099.3977,-3720.0372L14099.359,-3720.0259L14099.333,-3720.0203L14099.3238,-3720.0203L14099.3112,-3720.0237L14099.2996,-3720.0289L14099.2809,-3720.0349L14099.2619,-3720.0411L14099.2576,-3720.0417L14099.2386,-3720.0456L14099.2196,-3720.0462L14099.2091,-3720.0445L14099.1774,-3720.0355L14099.1471,-3720.0299L14099.1204,-3720.0299L14099.1035,-3720.04L14099.088,-3720.0479L14099.0746,-3720.0479L14099.0598,-3720.0423L14099.0169,-3720.0233L14098.9936,-3720.0237L14098.9704,-3720.0197L14098.971,-3720.0488L14098.9697,-3720.0569L14098.9648,-3720.0659L14098.9584,-3720.0727L14098.9486,-3720.0777L14098.9247,-3720.0856L14098.9169,-3720.0901L14098.9141,-3720.0937L14098.913,-3720.0969L14098.9141,-3720.1025L14098.9197,-3720.107L14098.931,-3720.1116L14098.9416,-3720.1127L14098.9571,-3720.1161L14098.9655,-3720.1194L14098.971,-3720.1236L14098.9738,-3720.1264L14098.9774,-3720.1363L14098.9774,-3720.1504L14098.9732,-3720.1639L14098.9718,-3720.1735L14098.9732,-3720.1809L14098.9805,-3720.2015L14098.9805,-3720.2047L14098.9792,-3720.208L14098.993,-3720.2329L14098.9954,-3720.2351L14099.0028,-3720.2332L14099.0181,-3720.2347L14099.031,-3720.2659L14099.0401,-3720.2811L14099.069,-3720.3116L14099.0735,-3720.3197L14099.0753,-3720.3322L14099.0737,-3720.3419L14099.0718,-3720.3459L14099.0598,-3720.3606L14099.0366,-3720.3808L14099.0119,-3720.4L14099.0049,-3720.4056L14099.0218,-3720.4096"/>
<path content="3,広野町,⑤コース,2.0,0.0,0.0," xlink:title="3" d="M14099.4622,-3720.0478L14099.4644,-3720.0405"/>
<path content="3,広野町,⑤コース,2.0,0.0,0.0," xlink:title="3" d="M14099.9961,-3720.2189L14099.9898,-3720.2214L14099.9813,-3720.2254L14099.9539,-3720.2265L14099.913,-3720.2271L14099.8609,-3720.2287"/>
<path content="3,広野町,⑤コース,2.0,0.0,0.0," xlink:title="3" d="M14099.8609,-3720.2287L14099.8638,-3720.1966L14099.8673,-3720.1786L14099.8729,-3720.1589L14099.8751,-3720.1525L14099.8936,-3720.0968L14099.9116,-3720.0451L14099.9236,-3719.9938L14099.9229,-3719.9696L14099.918,-3719.9521L14099.9025,-3719.9127L14099.8909,-3719.8775L14099.8821,-3719.8823L14099.8261,-3719.9333L14099.7984,-3719.9173L14099.7903,-3719.9171L14099.7683,-3719.9331L14099.7609,-3719.9336L14099.7266,-3719.9188L14099.7308,-3719.9101L14099.7307,-3719.8804L14099.7293,-3719.857L14099.7283,-3719.8425L14099.7266,-3719.8204L14099.727,-3719.8079L14099.7293,-3719.8004L14099.7324,-3719.793L14099.7376,-3719.7866L14099.7466,-3719.7788L14099.7669,-3719.7651L14099.7885,-3719.753L14099.7996,-3719.7449L14099.8107,-3719.7366L14099.8283,-3719.7267L14099.8505,-3719.7146L14099.8714,-3719.6998L14099.8835,-3719.6917L14099.8919,-3719.6834L14099.9116,-3719.6754L14099.9282,-3719.6654L14099.9405,-3719.658L14099.9514,-3719.6511L14099.9673,-3719.6384L14099.991,-3719.617L14100.0137,-3719.5969L14100.0234,-3719.586L14100.0341,-3719.5768L14100.0395,-3719.5685L14100.0447,-3719.5619L14100.0495,-3719.5555L14100.0526,-3719.5486L14100.0524,-3719.5229L14100.0546,-3719.4964L14100.0602,-3719.4699L14100.0644,-3719.4569L14100.069,-3719.4368L14100.0707,-3719.4169L14100.0736,-3719.3865L14100.0757,-3719.3668L14100.0778,-3719.3544L14100.0778,-3719.3369L14100.0686,-3719.2936L14100.0651,-3719.2829L14100.0644,-3719.2744L14100.0659,-3719.2621L14100.0679,-3719.2575L14100.0785,-3719.2434L14100.0827,-3719.2338L14100.083,-3719.2267L14100.0764,-3719.2017L14100.0688,-3719.1769L14100.0616,-3719.1696L14100.0567,-3719.1634L14100.0475,-3719.1583L14100.0229,-3719.1471L14100.0163,-3719.1429L14100.0109,-3719.1375L14099.9968,-3719.1116L14099.9841,-3719.0828L14099.9701,-3719.0586L14099.9384,-3719.0164L14099.9243,-3718.9995L14099.9159,-3718.9927L14099.9004,-3718.9837L14099.8898,-3718.9803L14099.8701,-3718.9792L14099.8364,-3718.9837L14099.8841,-3719.047L14099.8983,-3719.0716L14099.9138,-3719.0981L14099.9292,-3719.1341L14099.9363,-3719.1651L14099.9482,-3719.222L14099.9546,-3719.2688L14099.9553,-3719.3189L14099.9525,-3719.3392L14099.9482,-3719.3544L14099.9398,-3719.3764L14099.9236,-3719.409L14099.8954,-3719.4581L14099.8755,-3719.4911L14099.8511,-3719.5251L14099.699,-3719.7211L14099.6596,-3719.7729L14099.5521,-3719.9237L14099.5315,-3719.9482L14099.4644,-3720.0405"/>
<path content="3,広野町,⑤コース,2.0,0.0,0.0," xlink:title="3" d="M14099.8609,-3720.2287L14099.8511,-3720.2287L14099.7786,-3720.2338L14099.7671,-3720.2353L14099.7478,-3720.2367L14099.7409,-3720.2361L14099.7345,-3720.2357L14099.725,-3720.2349L14099.7168,-3720.2329L14099.7071,-3720.2309L14099.6984,-3720.2282L14099.688,-3720.2256L14099.6809,-3720.2242L14099.6743,-3720.2244L14099.6682,-3720.2262L14099.663,-3720.2289L14099.6585,-3720.2321L14099.653,-3720.2374L14099.6469,-3720.2411L14099.6403,-3720.2453L14099.6329,-3720.2514L14099.6228,-3720.254L14099.6114,-3720.2665L14099.6032,-3720.2715L14099.5953,-3720.2757L14099.5842,-3720.28L14099.5714,-3720.2847L14099.5447,-3720.2953L14099.5159,-3720.3046L14099.4902,-3720.3123L14099.473,-3720.3176L14099.4478,-3720.3245L14099.429,-3720.3303L14099.4152,-3720.3382L14099.3991,-3720.3462L14099.3914,-3720.3485L14099.3766,-3720.352L14099.3623,-3720.3552L14099.3517,-3720.3568L14099.3411,-3720.3581L14099.3284,-3720.3589L14099.316,-3720.3583L14099.305,-3720.3582"/>
<path content="3,広野町,⑤コース,2.0,0.0,0.0," xlink:title="3" d="M14099.305,-3720.3582L14099.3213,-3720.3378L14099.3344,-3720.3215L14099.359,-3720.2916"/>
<path content="3,広野町,⑤コース,2.0,0.0,0.0," xlink:title="3" d="M14099.799,-3721.2856L14099.7969,-3721.2742"/>
<path content="3,広野町,⑤コース,2.0,0.0,0.0," xlink:title="3" d="M14099.799,-3721.2856L14099.8138,-3721.2811L14099.8405,-3721.2749L14099.8532,-3721.2738L14099.9002,-3721.2665L14099.8359,-3721.1732L14099.8139,-3721.1492L14099.8041,-3721.1358L14099.7956,-3721.1257L14099.7906,-3721.119L14099.7847,-3721.1138L14099.7787,-3721.1095L14099.7755,-3721.1057L14099.7611,-3721.0744L14099.7498,-3721.0569L14099.7453,-3721.0486L14099.7406,-3721.0411L14099.7334,-3721.0322L14099.7145,-3721.0066L14099.6939,-3720.9819L14099.6603,-3720.9328L14099.5702,-3720.8152L14099.5646,-3720.8073L14099.535,-3720.7685L14099.4773,-3720.698L14099.4386,-3720.6569L14099.4013,-3720.6794L14099.3982,-3720.6851L14099.3731,-3720.6997L14099.3138,-3720.7461L14099.3076,-3720.7161L14099.2788,-3720.6045L14099.2758,-3720.5963L14099.2742,-3720.59L14099.262,-3720.5414L14099.2471,-3720.4794L14099.245,-3720.4592L14099.2429,-3720.4293L14099.2439,-3720.4168L14099.2469,-3720.4108L14099.2516,-3720.4071L14099.2575,-3720.4068L14099.2646,-3720.4049L14099.2696,-3720.4004L14099.2752,-3720.3951L14099.2818,-3720.3877L14099.2868,-3720.3814L14099.2943,-3720.3718L14099.305,-3720.3582"/>
<path content="3,広野町,⑤コース,2.0,0.0,0.0," xlink:title="3" d="M14099.4773,-3721.3707L14099.4569,-3721.3358L14099.4315,-3721.2869L14099.3907,-3721.2186L14099.3872,-3721.2141L14099.3829,-3721.2094L14099.3697,-3721.2066L14099.3597,-3721.2056L14099.2619,-3721.2056L14099.2279,-3721.2046L14099.2209,-3721.2034L14099.2119,-3721.2062L14099.1985,-3721.2101L14099.1823,-3721.2203L14099.1725,-3721.2293L14099.1676,-3721.2355L14099.1655,-3721.2424L14099.1651,-3721.2593L14099.1716,-3721.3076"/>
<path content="3,広野町,⑤コース,2.0,0.0,0.0," xlink:title="3" d="M14099.4773,-3721.3707L14099.4886,-3721.3679L14099.5153,-3721.364L14099.5653,-3721.3583L14099.6019,-3721.3533L14099.6596,-3721.3408L14099.68,-3721.3369L14099.6969,-3721.3322L14099.7082,-3721.329L14099.7371,-3721.3172L14099.7835,-3721.2919L14099.799,-3721.2856"/>
<path content="3,広野町,⑤コース,2.0,0.0,0.0," xlink:title="3" d="M14099.397,-3721.4658L14099.4139,-3721.4225L14099.4203,-3721.4124L14099.4372,-3721.3927L14099.4435,-3721.3871L14099.4576,-3721.3792L14099.4773,-3721.3707"/>
<path content="3,広野町,⑥コース,3.5,0.0,0.0," xlink:title="3" d="M14097.6562,-3719.8379L14097.6702,-3719.8439L14097.7033,-3719.8558L14097.7293,-3719.8648L14097.7603,-3719.8738L14097.78,-3719.8766L14097.8454,-3719.8755L14097.8588,-3719.8766L14097.8729,-3719.8811L14097.8933,-3719.8896L14097.9109,-3719.9003L14097.9553,-3719.9369L14097.9771,-3719.9504L14097.9863,-3719.9555L14098.0144,-3719.9684L14098.0665,-3719.9938L14098.101,-3720.0158L14098.1651,-3720.0636L14098.1841,-3720.0761L14098.2087,-3720.0845L14098.2249,-3720.0862L14098.251,-3720.0851L14098.2559,-3720.0834L14098.2693,-3720.0811L14098.2749,-3720.0803L14098.2981,-3720.0766L14098.3368,-3720.0772L14098.3812,-3720.0811L14098.4319,-3720.0896L14098.4636,-3720.0958L14098.491,-3720.1031L14098.5234,-3720.1099L14098.5329,-3720.1133L14098.5424,-3720.1183L14098.561,-3720.1348L14098.5678,-3720.1408L14098.5797,-3720.1611L14098.5861,-3720.1797L14098.5859,-3720.2018L14098.5853,-3720.2209L14098.5825,-3720.231L14098.5776,-3720.24L14098.567,-3720.2529L14098.5487,-3720.271L14098.5424,-3720.2783L14098.5431,-3720.2884L14098.5459,-3720.3003L14098.5581,-3720.3229L14098.5772,-3720.359L14098.5797,-3720.3651L14098.588,-3720.3792L14098.6156,-3720.382L14098.6339,-3720.3854L14098.6389,-3720.3868L14098.648,-3720.3893L14098.6726,-3720.3949L14098.6945,-3720.4L14098.7219,-3720.4028L14098.7427,-3720.4026L14098.7549,-3720.3998L14098.7691,-3720.3938L14098.7909,-3720.3791L14098.8156,-3720.3589L14098.8197,-3720.3564L14098.8289,-3720.351L14098.8524,-3720.3417L14098.873,-3720.337L14098.8867,-3720.3352L14098.9036,-3720.3341L14098.9768,-3720.3893L14099,-3720.4034L14099.0049,-3720.4056"/>
<path content="3,広野町,⑥コース,3.5,0.0,0.0," xlink:title="3" d="M14099.0049,-3720.4056L14099.0119,-3720.4L14099.0366,-3720.3808L14099.0598,-3720.3606L14099.0718,-3720.3459L14099.0737,-3720.3419L14099.0753,-3720.3322L14099.0735,-3720.3197L14099.069,-3720.3116L14099.0401,-3720.2811L14099.031,-3720.2659L14099.0181,-3720.2347L14099.0028,-3720.2332L14098.9954,-3720.2351L14098.993,-3720.2329L14098.9792,-3720.208L14098.9805,-3720.2047L14098.9805,-3720.2015L14098.9732,-3720.1809L14098.9718,-3720.1735L14098.9732,-3720.1639L14098.9774,-3720.1504L14098.9774,-3720.1363L14098.9738,-3720.1264L14098.971,-3720.1236L14098.9655,-3720.1194L14098.9571,-3720.1161L14098.9416,-3720.1127L14098.931,-3720.1116L14098.9197,-3720.107L14098.9141,-3720.1025L14098.913,-3720.0969L14098.9141,-3720.0937L14098.9169,-3720.0901L14098.9247,-3720.0856L14098.9486,-3720.0777L14098.9584,-3720.0727L14098.9648,-3720.0659L14098.9697,-3720.0569L14098.971,-3720.0488L14098.9704,-3720.0197L14098.9936,-3720.0237L14099.0169,-3720.0233L14099.0598,-3720.0423L14099.0746,-3720.0479L14099.088,-3720.0479L14099.1035,-3720.04L14099.1204,-3720.0299L14099.1471,-3720.0299L14099.1774,-3720.0355L14099.2091,-3720.0445L14099.2196,-3720.0462L14099.2386,-3720.0456L14099.2576,-3720.0417L14099.2619,-3720.0411L14099.2809,-3720.0349L14099.2996,-3720.0289L14099.3112,-3720.0237L14099.3238,-3720.0203L14099.333,-3720.0203L14099.359,-3720.0259L14099.3977,-3720.0372L14099.4644,-3720.0405L14099.5315,-3719.9482L14099.5521,-3719.9237L14099.6596,-3719.7729L14099.699,-3719.7211L14099.8511,-3719.5251L14099.8755,-3719.4911L14099.8954,-3719.4581L14099.9236,-3719.409L14099.9398,-3719.3764L14099.9482,-3719.3544L14099.9525,-3719.3392L14099.9553,-3719.3189L14099.9546,-3719.2688L14099.9482,-3719.222L14099.9363,-3719.1651L14099.9292,-3719.1341L14099.9138,-3719.0981L14099.8983,-3719.0716L14099.8841,-3719.047L14099.8364,-3718.9837L14099.8701,-3718.9792L14099.8898,-3718.9803L14099.9004,-3718.9837L14099.9159,-3718.9927L14099.9243,-3718.9995L14099.9384,-3719.0164L14099.9701,-3719.0586L14099.9841,-3719.0828L14099.9968,-3719.1116L14100.0109,-3719.1375L14100.0163,-3719.1429L14100.0229,-3719.1471L14100.0475,-3719.1583L14100.0567,-3719.1634L14100.0616,-3719.1696L14100.0688,-3719.1769L14100.0764,-3719.2017L14100.083,-3719.2267L14100.0827,-3719.2338L14100.0785,-3719.2434L14100.0679,-3719.2575L14100.0659,-3719.2621L14100.0644,-3719.2744L14100.0651,-3719.2829L14100.0686,-3719.2936L14100.0778,-3719.3369L14100.0778,-3719.3544L14100.0757,-3719.3668L14100.0736,-3719.3865L14100.0707,-3719.4169L14100.069,-3719.4368L14100.0644,-3719.4569L14100.0602,-3719.4699L14100.0546,-3719.4964L14100.0524,-3719.5229L14100.0526,-3719.5486L14100.0495,-3719.5555L14100.0447,-3719.5619L14100.0395,-3719.5685L14100.0341,-3719.5768L14100.0234,-3719.586L14100.0137,-3719.5969L14099.991,-3719.617L14099.9673,-3719.6384L14099.9514,-3719.6511L14099.9405,-3719.658L14099.9282,-3719.6654L14099.9116,-3719.6754L14099.8919,-3719.6834L14099.8835,-3719.6917L14099.8714,-3719.6998L14099.8505,-3719.7146L14099.8283,-3719.7267L14099.8107,-3719.7366L14099.7996,-3719.7449L14099.7885,-3719.753L14099.7669,-3719.7651L14099.7466,-3719.7788L14099.7376,-3719.7866L14099.7324,-3719.793L14099.7293,-3719.8004L14099.727,-3719.8079L14099.7266,-3719.8204L14099.7283,-3719.8425L14099.7293,-3719.857L14099.7307,-3719.8804L14099.7308,-3719.9101L14099.7266,-3719.9188L14099.7233,-3719.9241L14099.7171,-3719.9303L14099.7034,-3719.9417L14099.6677,-3719.9722L14099.6406,-3719.9978L14099.6133,-3720.0229L14099.584,-3720.0546L14099.5766,-3720.0626L14099.5604,-3720.0783L14099.465,-3720.1707L14099.4416,-3720.1936L14099.4182,-3720.2215L14099.4022,-3720.2392L14099.3862,-3720.2581L14099.359,-3720.2916L14099.3344,-3720.3215L14099.3213,-3720.3378L14099.305,-3720.3582L14099.2943,-3720.3718L14099.2868,-3720.3814L14099.2818,-3720.3877L14099.2752,-3720.3951L14099.2696,-3720.4004L14099.2646,-3720.4049L14099.2575,-3720.4068L14099.2516,-3720.4071L14099.2469,-3720.4108L14099.2439,-3720.4168L14099.2429,-3720.4293L14099.245,-3720.4592L14099.2471,-3720.4794L14099.262,-3720.5414L14099.2742,-3720.59L14099.2758,-3720.5963L14099.2788,-3720.6045L14099.3076,-3720.7161L14099.3138,-3720.7461L14099.3731,-3720.6997L14099.3982,-3720.6851L14099.4013,-3720.6794L14099.4386,-3720.6569L14099.4773,-3720.698L14099.535,-3720.7685L14099.5646,-3720.8073L14099.5702,-3720.8152L14099.6603,-3720.9328L14099.6939,-3720.9819L14099.7145,-3721.0066L14099.7334,-3721.0322L14099.7406,-3721.0411L14099.7453,-3721.0486L14099.7498,-3721.0569L14099.7611,-3721.0744L14099.7755,-3721.1057L14099.7787,-3721.1095L14099.7847,-3721.1138L14099.7906,-3721.119L14099.7956,-3721.1257L14099.8041,-3721.1358L14099.8139,-3721.1492L14099.8359,-3721.1732L14099.9002,-3721.2665"/>
<path content="3,広野町,⑥コース,3.5,0.0,0.0," xlink:title="3" d="M14099.0218,-3720.4096L14099.0049,-3720.4056"/>
<path content="3,広野町,⑥コース,3.5,0.0,0.0," xlink:title="3" d="M14099.9002,-3721.2665L14099.8532,-3721.2738L14099.8405,-3721.2749L14099.8138,-3721.2811L14099.799,-3721.2856"/>
<path content="3,広野町,⑥コース,3.5,0.0,0.0," xlink:title="3" d="M14099.9002,-3721.2665L14099.9147,-3721.2874L14099.9249,-3721.3003L14099.934,-3721.3129L14099.9447,-3721.3259L14099.9631,-3721.3502L14099.9751,-3721.366L14099.9896,-3721.3849L14100.0111,-3721.4187L14100.0227,-3721.4339L14100.0299,-3721.4424L14100.0388,-3721.4525L14100.0467,-3721.4649L14100.0557,-3721.4811L14100.0663,-3721.5014L14100.0831,-3721.5311"/>
<path content="3,広野町,⑥コース,3.5,0.0,0.0," xlink:title="3" d="M14099.799,-3721.2856L14099.7969,-3721.2742"/>
<path content="3,広野町,⑥コース,3.5,0.0,0.0," xlink:title="3" d="M14099.799,-3721.2856L14099.7835,-3721.2919L14099.7371,-3721.3172L14099.7082,-3721.329L14099.6969,-3721.3322L14099.68,-3721.3369L14099.6596,-3721.3408L14099.6019,-3721.3533L14099.5653,-3721.3583L14099.5153,-3721.364L14099.4886,-3721.3679L14099.4773,-3721.3707"/>
<path content="3,広野町,⑥コース,3.5,0.0,0.0," xlink:title="3" d="M14099.1716,-3721.3076L14099.1651,-3721.2593L14099.1655,-3721.2424L14099.1676,-3721.2355L14099.1725,-3721.2293L14099.1823,-3721.2203L14099.1985,-3721.2101L14099.2119,-3721.2062L14099.2209,-3721.2034L14099.2279,-3721.2046L14099.2619,-3721.2056L14099.3597,-3721.2056L14099.3697,-3721.2066L14099.3829,-3721.2094L14099.3872,-3721.2141L14099.3907,-3721.2186L14099.4315,-3721.2869L14099.4569,-3721.3358L14099.4773,-3721.3707"/>
<path content="3,広野町,⑥コース,3.5,0.0,0.0," xlink:title="3" d="M14099.4773,-3721.3707L14099.4576,-3721.3792L14099.4435,-3721.3871L14099.4372,-3721.3927L14099.4203,-3721.4124L14099.4139,-3721.4225L14099.397,-3721.4658"/>
<path content="3,広野町,⑦コース,0.4,0.0,0.0," xlink:title="3" d="M14099.3982,-3720.6851L14099.3731,-3720.6997L14099.3138,-3720.7461"/>
<path content="3,広野町,⑦コース,0.4,0.0,0.0," xlink:title="3" d="M14099.3138,-3720.7461L14099.295,-3720.7549L14099.271,-3720.7628L14099.2555,-3720.7651L14099.2211,-3720.7645L14099.1971,-3720.7611L14099.1133,-3720.7493L14099.088,-3720.7476L14099.0751,-3720.7465L14099.0458,-3720.7454L14098.9866,-3720.7403L14098.9493,-3720.7364L14098.9014,-3720.7324L14098.8754,-3720.7369L14098.8613,-3720.7442L14098.8564,-3720.7482L14098.8204,-3720.7849L14098.7374,-3720.8716L14098.7286,-3720.8828L14098.72,-3720.8948L14098.7058,-3720.9178L14098.6797,-3720.9589L14098.6669,-3720.9761L14098.6575,-3720.9902L14098.6503,-3721.001L14098.6431,-3721.0135L14098.6412,-3721.0238L14098.6044,-3721.084L14098.5854,-3721.1099L14098.5671,-3721.1279L14098.5439,-3721.1482L14098.5066,-3721.1769L14098.4664,-3721.1998L14098.4493,-3721.2048L14098.4242,-3721.2107L14098.3932,-3721.2189L14098.3738,-3721.2228L14098.3623,-3721.2265L14098.3439,-3721.2333L14098.32,-3721.2445L14098.3094,-3721.2502L14098.2975,-3721.2603L14098.2904,-3721.2682L14098.2771,-3721.289L14098.2545,-3721.3426L14098.2346,-3721.3852L14098.2201,-3721.3994L14098.2102,-3721.409L14098.1994,-3721.4179L14098.1736,-3721.4349L14098.1574,-3721.4434L14098.1447,-3721.449L14098.1032,-3721.4637L14098.0905,-3721.4699L14098.0821,-3721.4755L14098.0708,-3721.4823L14098.0653,-3721.4871L14098.0159,-3721.5223L14097.9976,-3721.533L14097.9546,-3721.5521L14097.9334,-3721.563L14097.9251,-3721.5673L14097.8925,-3721.5894L14097.8819,-3721.5989L14097.873,-3721.6022L14097.8404,-3721.6218L14097.8144,-3721.6329L14097.8071,-3721.636L14097.7927,-3721.64L14097.7695,-3721.6462L14097.7322,-3721.6535L14097.6696,-3721.6634L14097.6611,-3721.6642L14097.6599,-3721.6644L14097.6587,-3721.6646L14097.6563,-3721.6651L14097.6562,-3721.6651"/>
<path content="3,広野町,⑦コース,0.4,0.0,0.0," xlink:title="3" d="M14099.8359,-3721.1732L14099.9002,-3721.2665L14099.8532,-3721.2738L14099.8405,-3721.2749L14099.8138,-3721.2811L14099.799,-3721.2856L14099.7835,-3721.2919L14099.7371,-3721.3172L14099.7082,-3721.329L14099.6969,-3721.3322L14099.68,-3721.3369L14099.6596,-3721.3408L14099.6019,-3721.3533L14099.5653,-3721.3583L14099.5153,-3721.364"/>
<path content="3,広野町,⑦コース,0.4,0.0,0.0," xlink:title="3" d="M14099.5153,-3721.364L14099.5025,-3721.3437L14099.4703,-3721.2845L14099.4097,-3721.1662L14099.4029,-3721.1507L14099.4028,-3721.1505L14099.4027,-3721.1503L14099.4025,-3721.1499L14099.3683,-3721.0725L14099.3592,-3721.0481L14099.3588,-3721.0468L14099.3485,-3721.0192L14099.3421,-3720.9882L14099.3379,-3720.9239L14099.3372,-3720.9046L14099.3316,-3720.8609L14099.3252,-3720.8147L14099.3217,-3720.7944L14099.3138,-3720.7461"/>
<path content="3,広野町,⑦コース,0.4,0.0,0.0," xlink:title="3" d="M14099.5153,-3721.364L14099.4886,-3721.3679L14099.4773,-3721.3707"/>
<path content="3,広野町,⑦コース,0.4,0.0,0.0," xlink:title="3" d="M14099.4773,-3721.3707L14099.4569,-3721.3358L14099.4315,-3721.2869L14099.3907,-3721.2186L14099.3872,-3721.2141L14099.3829,-3721.2094L14099.3697,-3721.2066L14099.3597,-3721.2056L14099.2619,-3721.2056L14099.2279,-3721.2046L14099.2209,-3721.2034L14099.2119,-3721.2062L14099.1985,-3721.2101L14099.1823,-3721.2203L14099.1725,-3721.2293L14099.1676,-3721.2355L14099.1655,-3721.2424L14099.1651,-3721.2593L14099.1716,-3721.3076"/>
<path content="3,広野町,⑦コース,0.4,0.0,0.0," xlink:title="3" d="M14099.4773,-3721.3707L14099.4576,-3721.3792L14099.4435,-3721.3871L14099.4372,-3721.3927L14099.4203,-3721.4124L14099.4139,-3721.4225L14099.397,-3721.4658"/>
<path content="3,広野町,⑧コース,2.0,0.0,0.0," xlink:title="3" d="M14099.3592,-3721.0481L14099.3927,-3721.042L14099.4211,-3721.0452"/>
<path content="3,広野町,⑧コース,2.0,0.0,0.0," xlink:title="3" d="M14099.3592,-3721.0481L14099.3588,-3721.0468L14099.3485,-3721.0192L14099.3421,-3720.9882L14099.3379,-3720.9239L14099.3372,-3720.9046L14099.3316,-3720.8609L14099.3252,-3720.8147L14099.3217,-3720.7944L14099.3138,-3720.7461L14099.295,-3720.7549L14099.271,-3720.7628L14099.2555,-3720.7651L14099.2211,-3720.7645L14099.1971,-3720.7611L14099.1133,-3720.7493L14099.088,-3720.7476L14099.0751,-3720.7465L14099.0458,-3720.7454L14098.9866,-3720.7403L14098.9493,-3720.7364L14098.9014,-3720.7324L14098.8754,-3720.7369L14098.8613,-3720.7442L14098.8564,-3720.7482L14098.8204,-3720.7849L14098.7374,-3720.8716L14098.7286,-3720.8828L14098.72,-3720.8948L14098.7058,-3720.9178L14098.6797,-3720.9589L14098.6669,-3720.9761L14098.6575,-3720.9902L14098.6503,-3721.001L14098.6431,-3721.0135L14098.6412,-3721.0238L14098.6044,-3721.084L14098.5854,-3721.1099L14098.5671,-3721.1279L14098.5439,-3721.1482L14098.5066,-3721.1769L14098.4664,-3721.1998L14098.4493,-3721.2048L14098.4242,-3721.2107L14098.3932,-3721.2189L14098.3738,-3721.2228L14098.3623,-3721.2265L14098.3439,-3721.2333L14098.32,-3721.2445L14098.3094,-3721.2502L14098.2975,-3721.2603L14098.2904,-3721.2682L14098.2771,-3721.289L14098.2545,-3721.3426L14098.2346,-3721.3852L14098.2201,-3721.3994L14098.2102,-3721.409L14098.1994,-3721.4179L14098.1736,-3721.4349L14098.1574,-3721.4434L14098.1447,-3721.449L14098.1032,-3721.4637L14098.0905,-3721.4699L14098.0821,-3721.4755L14098.0708,-3721.4823L14098.0653,-3721.4871L14098.0159,-3721.5223L14097.9976,-3721.533L14097.9546,-3721.5521L14097.9334,-3721.563L14097.9251,-3721.5673L14097.8925,-3721.5894L14097.8819,-3721.5989L14097.873,-3721.6022L14097.8404,-3721.6218L14097.8144,-3721.6329L14097.8071,-3721.636L14097.7927,-3721.64L14097.7695,-3721.6462L14097.7322,-3721.6535L14097.6696,-3721.6634L14097.6587,-3721.6646L14097.6562,-3721.6651"/>
<path content="3,広野町,⑧コース,2.0,0.0,0.0," xlink:title="3" d="M14099.8359,-3721.1732L14099.9002,-3721.2665L14099.8531,-3721.2734L14099.8405,-3721.2749L14099.8138,-3721.2811L14099.799,-3721.2856L14099.7835,-3721.2919L14099.7371,-3721.3172L14099.7082,-3721.329L14099.6969,-3721.3322L14099.68,-3721.3369L14099.6596,-3721.3408L14099.6019,-3721.3533L14099.5653,-3721.3581L14099.5153,-3721.364L14099.5025,-3721.3437L14099.4703,-3721.2845L14099.4097,-3721.1662L14099.4029,-3721.1507L14099.4028,-3721.1505L14099.4027,-3721.1503L14099.4025,-3721.1499L14099.3683,-3721.0725L14099.3592,-3721.0481"/>
<path content="3,広野町,⑧コース,2.0,0.0,0.0," xlink:title="3" d="M14100.3857,-3722.5087L14100.3948,-3722.4911L14100.4015,-3722.4574L14100.4075,-3722.4329L14100.4135,-3722.3994L14100.4297,-3722.3104L14100.4381,-3722.2355L14100.4403,-3722.1763L14100.443,-3722.1541L14100.4374,-3722.1408L14100.4339,-3722.1189L14100.4296,-3722.1054L14100.4199,-3722.0749L14100.416,-3722.0619L14100.3954,-3722.01L14100.3819,-3721.995L14100.3654,-3721.9651L14100.3545,-3721.945L14100.33,-3721.9081L14100.3045,-3721.868L14100.2796,-3721.8256L14100.2603,-3721.7982L14100.2468,-3721.7774L14100.2322,-3721.754L14100.2117,-3721.7171"/>
<path content="3,広野町,⑧コース,2.0,0.0,0.0," xlink:title="3" d="M14100.3825,-3722.5247L14100.3857,-3722.5087"/>
<path content="3,広野町,⑧コース,2.0,0.0,0.0," xlink:title="3" d="M14097.6562,-3722.772L14097.6673,-3722.7786L14097.7567,-3722.8315L14097.7951,-3722.8599L14097.8003,-3722.8651L14097.8074,-3722.876L14097.8123,-3722.8839L14097.8187,-3722.9036L14097.8194,-3722.9301L14097.8172,-3722.9637L14097.818,-3722.9701L14097.8222,-3722.9808L14097.8616,-3723.0332L14097.8693,-3723.0456L14097.8809,-3723.0634L14097.8864,-3723.0751L14097.897,-3723.0979"/>
<path content="3,広野町,⑧コース,2.0,0.0,0.0," xlink:title="3" d="M14099.5249,-3722.915L14099.6222,-3722.8541L14099.6596,-3722.8286L14099.6668,-3722.8221"/>
<path content="3,広野町,⑧コース,2.0,0.0,0.0," xlink:title="3" d="M14099.5249,-3722.915L14099.5384,-3722.9284L14099.54,-3722.9321L14099.5392,-3722.9397L14099.5377,-3722.9481L14099.5377,-3722.956L14099.5403,-3722.9602L14099.5751,-3722.9864L14099.5948,-3723.0016L14099.6004,-3723.005L14099.6123,-3723.0099L14099.6173,-3723.0163L14099.6194,-3723.0225L14099.6187,-3723.0377L14099.6145,-3723.0462L14099.609,-3723.0592L14099.6025,-3723.0619L14099.6117,-3723.0681L14099.621,-3723.0783L14099.6287,-3723.0868L14099.6355,-3723.0946L14099.641,-3723.1019L14099.648,-3723.1088L14099.6569,-3723.1169L14099.6617,-3723.1225L14099.6646,-3723.126L14099.668,-3723.1287L14099.6722,-3723.1293L14099.6786,-3723.1289L14099.6863,-3723.1253L14099.6967,-3723.1194L14099.7111,-3723.1143L14099.7304,-3723.1082L14099.745,-3723.1016L14099.7543,-3723.0997L14099.7617,-3723.1002L14099.7656,-3723.1016L14099.8728,-3723.1353L14099.889,-3723.1076L14099.8934,-3723.0991L14099.9015,-3723.0887L14099.9131,-3723.0649L14099.9331,-3723.0299L14099.958,-3722.9864L14099.9777,-3722.9504L14100.0007,-3722.9101L14100.0121,-3722.8898L14100.0925,-3722.9193L14100.1051,-3722.9211L14100.1495,-3722.9295L14100.1924,-3722.9419L14100.2199,-3722.9526L14100.2573,-3722.9638L14100.2713,-3722.974L14100.3227,-3722.9943L14100.3396,-3723.0022L14100.3586,-3723.009L14100.3938,-3723.0186L14100.4038,-3723.0102L14100.4096,-3723.0043L14100.4169,-3722.9906L14100.4246,-3722.9721L14100.4312,-3722.9561L14100.4389,-3722.9341L14100.4465,-3722.9125L14100.4494,-3722.9006L14100.452,-3722.8886L14100.456,-3722.8766L14100.4581,-3722.8686L14100.4662,-3722.8619L14100.4755,-3722.8509L14100.4842,-3722.8408L14100.4882,-3722.8331L14100.49,-3722.807L14100.4926,-3722.7588L14100.49,-3722.7313L14100.4857,-3722.7146L14100.4795,-3722.6979L14100.4683,-3722.67L14100.4538,-3722.6294L14100.4498,-3722.6193L14100.4469,-3722.608L14100.4397,-3722.5855L14100.4284,-3722.5446L14100.4223,-3722.5322L14100.4179,-3722.5235L14100.4154,-3722.5163L14100.4016,-3722.5094L14100.3857,-3722.5087"/>
<path content="3,広野町,⑧コース,2.0,0.0,0.0," xlink:title="3" d="M14097.897,-3723.0979L14097.9285,-3723.0929L14097.9664,-3723.0883L14097.9677,-3723.0882L14097.9932,-3723.0861L14098.0256,-3723.0861L14098.0608,-3723.0923L14098.0974,-3723.0929L14098.1099,-3723.0911L14098.1483,-3723.0856L14098.1727,-3723.0817L14098.2009,-3723.0817L14098.2183,-3723.0851L14098.2277,-3723.0896L14098.2389,-3723.098L14098.2643,-3723.1242L14098.2929,-3723.1538L14098.3258,-3723.186L14098.334,-3723.1898L14098.3502,-3723.1937L14098.3685,-3723.1958L14098.41,-3723.2007L14098.4273,-3723.2011L14098.4452,-3723.1988L14098.455,-3723.1988L14098.4825,-3723.1932L14098.4973,-3723.1904L14098.5393,-3723.1812L14098.55,-3723.1797L14098.5705,-3723.178L14098.6564,-3723.1786L14098.7282,-3723.1825L14098.7423,-3723.184L14098.7944,-3723.1892L14098.8277,-3723.1942L14098.8401,-3723.196L14098.8739,-3723.2028L14098.8837,-3723.2045L14098.9109,-3723.2096L14098.9316,-3723.2135L14098.9485,-3723.2146L14099.0744,-3723.212L14099.1787,-3723.2124L14099.2139,-3723.2118L14099.23,-3723.2098L14099.2379,-3723.2076L14099.2456,-3723.2039L14099.2569,-3723.1977L14099.278,-3723.1831L14099.3026,-3723.1639L14099.3202,-3723.1481L14099.354,-3723.1093L14099.3589,-3723.1042L14099.3779,-3723.0794L14099.4202,-3723.0202L14099.4397,-3722.9907L14099.4695,-3722.9633L14099.4899,-3722.9414L14099.4976,-3722.9352L14099.5033,-3722.9301L14099.5249,-3722.915"/>
<path content="3,広野町,⑧コース,2.0,0.0,0.0," xlink:title="3" d="M14097.9045,-3723.1092L14097.897,-3723.0979"/>
<path content="3,広野町,⑨コース,2.0,0.0,0.0," xlink:title="3" d="M14099.9116,-3719.6754L14099.8919,-3719.6834"/>
<path content="3,広野町,⑨コース,2.0,0.0,0.0," xlink:title="3" d="M14099.8919,-3719.6834L14099.8835,-3719.6917L14099.8714,-3719.6998L14099.8505,-3719.7146L14099.8283,-3719.7267L14099.8107,-3719.7366L14099.7996,-3719.7449L14099.7885,-3719.753L14099.7669,-3719.7651L14099.7466,-3719.7788L14099.7376,-3719.7866L14099.7324,-3719.793L14099.7293,-3719.8004L14099.727,-3719.8079L14099.7266,-3719.8204L14099.7283,-3719.8425L14099.7293,-3719.857L14099.7307,-3719.8804L14099.7308,-3719.9101L14099.7266,-3719.9188L14099.7233,-3719.9241L14099.7171,-3719.9303L14099.7034,-3719.9417L14099.6677,-3719.9722L14099.6406,-3719.9978L14099.6133,-3720.0229L14099.584,-3720.0546L14099.5766,-3720.0626L14099.5604,-3720.0783L14099.465,-3720.1707L14099.4416,-3720.1936L14099.4182,-3720.2215L14099.4022,-3720.2392L14099.3862,-3720.2581L14099.359,-3720.2916L14099.3344,-3720.3215L14099.3213,-3720.3378L14099.305,-3720.3582L14099.2943,-3720.3718L14099.2868,-3720.3814L14099.2818,-3720.3877L14099.2752,-3720.3951L14099.2696,-3720.4004L14099.2646,-3720.4049L14099.2575,-3720.4068L14099.2516,-3720.4071L14099.2469,-3720.4108L14099.2439,-3720.4168L14099.2429,-3720.4293L14099.245,-3720.4592L14099.2471,-3720.4794L14099.262,-3720.5414L14099.2742,-3720.59L14099.2758,-3720.5963L14099.2788,-3720.6045L14099.3076,-3720.7161L14099.3138,-3720.7461L14099.3731,-3720.6997L14099.3982,-3720.6851L14099.4013,-3720.6794L14099.4386,-3720.6569L14099.4773,-3720.698L14099.535,-3720.7685L14099.5646,-3720.8073L14099.5702,-3720.8152L14099.6603,-3720.9328L14099.6939,-3720.9819L14099.7145,-3721.0066L14099.7334,-3721.0322L14099.7406,-3721.0411L14099.7453,-3721.0486L14099.7498,-3721.0569L14099.7611,-3721.0744L14099.7755,-3721.1057"/>
<path content="3,広野町,⑨コース,2.0,0.0,0.0," xlink:title="3" d="M14098.5859,-3720.2018L14098.5861,-3720.1797L14098.5797,-3720.1611L14098.5678,-3720.1408L14098.561,-3720.1348L14098.5424,-3720.1183L14098.5329,-3720.1133L14098.5234,-3720.1099L14098.491,-3720.1031L14098.4636,-3720.0958L14098.4319,-3720.0896L14098.3812,-3720.0811L14098.3368,-3720.0772L14098.2981,-3720.0766L14098.2749,-3720.0803L14098.2693,-3720.0811L14098.2559,-3720.0834L14098.251,-3720.0851L14098.2249,-3720.0862L14098.2087,-3720.0845L14098.1841,-3720.0761L14098.1651,-3720.0636L14098.101,-3720.0158L14098.0665,-3719.9938L14098.0144,-3719.9684L14097.9863,-3719.9555L14097.9771,-3719.9504L14097.9553,-3719.9369L14097.9109,-3719.9003L14097.8933,-3719.8896L14097.8729,-3719.8811L14097.8588,-3719.8766L14097.8454,-3719.8755L14097.78,-3719.8766L14097.7603,-3719.8738L14097.7293,-3719.8648L14097.7033,-3719.8558L14097.6702,-3719.8439L14097.6562,-3719.8379M14097.6562,-3720.2338L14097.659,-3720.2338L14097.6759,-3720.2358L14097.6876,-3720.2387L14097.7033,-3720.2439L14097.7173,-3720.2518L14097.7325,-3720.2629L14097.7624,-3720.2873L14097.768,-3720.2907L14097.8124,-3720.3076L14097.8511,-3720.3273L14097.8919,-3720.3538L14097.9321,-3720.3758L14097.9799,-3720.3955L14097.9989,-3720.4005L14098.0144,-3720.4028L14098.0468,-3720.4028L14098.0841,-3720.3977L14098.1053,-3720.3909L14098.151,-3720.3713L14098.1848,-3720.3583L14098.1961,-3720.3555L14098.2242,-3720.3536L14098.2411,-3720.3527L14098.3038,-3720.3516L14098.315,-3720.3504L14098.339,-3720.3504L14098.3481,-3720.3532L14098.3594,-3720.3578L14098.4065,-3720.3842L14098.441,-3720.4L14098.4579,-3720.4052L14098.4629,-3720.4068L14098.4699,-3720.4079L14098.4924,-3720.4068L14098.5058,-3720.4045L14098.5674,-3720.3848L14098.588,-3720.3792L14098.6156,-3720.382L14098.6339,-3720.3854L14098.6389,-3720.3868L14098.648,-3720.3893L14098.6726,-3720.3949L14098.6945,-3720.4L14098.7219,-3720.4028L14098.7427,-3720.4026L14098.7549,-3720.3998L14098.7691,-3720.3938L14098.7909,-3720.3791L14098.8156,-3720.3589L14098.8197,-3720.3564L14098.8289,-3720.351L14098.8524,-3720.3417L14098.873,-3720.337L14098.8867,-3720.3352L14098.9036,-3720.3341L14098.9768,-3720.3893L14099,-3720.4034L14099.0049,-3720.4056"/>
<path content="3,広野町,⑨コース,2.0,0.0,0.0," xlink:title="3" d="M14099.0049,-3720.4056L14099.0119,-3720.4L14099.0366,-3720.3808L14099.0598,-3720.3606L14099.0718,-3720.3459L14099.0737,-3720.3419L14099.0753,-3720.3322L14099.0735,-3720.3197L14099.069,-3720.3116L14099.0401,-3720.2811L14099.031,-3720.2659L14099.0181,-3720.2347L14099.0028,-3720.2332L14098.9954,-3720.2351L14098.993,-3720.2329L14098.9792,-3720.208L14098.9805,-3720.2047L14098.9805,-3720.2015L14098.9732,-3720.1809L14098.9718,-3720.1735L14098.9732,-3720.1639L14098.9774,-3720.1504L14098.9774,-3720.1363L14098.9738,-3720.1264L14098.971,-3720.1236L14098.9655,-3720.1194L14098.9571,-3720.1161L14098.9416,-3720.1127L14098.931,-3720.1116L14098.9197,-3720.107L14098.9141,-3720.1025L14098.913,-3720.0969L14098.9141,-3720.0937L14098.9169,-3720.0901L14098.9247,-3720.0856L14098.9486,-3720.0777L14098.9584,-3720.0727L14098.9648,-3720.0659L14098.9697,-3720.0569L14098.971,-3720.0488L14098.9704,-3720.0197L14098.9936,-3720.0237L14099.0169,-3720.0233L14099.0598,-3720.0423L14099.0746,-3720.0479L14099.088,-3720.0479L14099.1035,-3720.04L14099.1204,-3720.0299L14099.1471,-3720.0299L14099.1774,-3720.0355L14099.2091,-3720.0445L14099.2196,-3720.0462L14099.2386,-3720.0456L14099.2576,-3720.0417L14099.2619,-3720.0411L14099.2809,-3720.0349L14099.2996,-3720.0289L14099.3112,-3720.0237L14099.3238,-3720.0203L14099.333,-3720.0203L14099.359,-3720.0259L14099.3977,-3720.0372L14099.4644,-3720.0405L14099.5315,-3719.9482L14099.5521,-3719.9237L14099.6596,-3719.7729L14099.699,-3719.7211L14099.8511,-3719.5251L14099.8755,-3719.4911L14099.8926,-3719.5026L14099.9003,-3719.5117L14099.9065,-3719.5208L14099.9123,-3719.5295L14099.9149,-3719.5361L14099.9109,-3719.5823L14099.9065,-3719.6096L14099.9028,-3719.63L14099.8981,-3719.6573L14099.8956,-3719.6722L14099.8919,-3719.6834"/>
<path content="3,広野町,⑨コース,2.0,0.0,0.0," xlink:title="3" d="M14099.0218,-3720.4096L14099.0049,-3720.4056"/>
<path content="3,広野町,⑨コース,2.0,0.0,0.0," xlink:title="3" d="M14099.4211,-3721.0452L14099.4372,-3721.0473L14099.4661,-3721.0423L14099.4745,-3721.0411L14099.5026,-3721.0496L14099.516,-3721.0552L14099.5371,-3721.062L14099.5808,-3721.0727L14099.6406,-3721.0862L14099.6596,-3721.0897L14099.6983,-3721.0952L14099.7755,-3721.1057"/>
<path content="3,広野町,⑨コース,2.0,0.0,0.0," xlink:title="3" d="M14099.7755,-3721.1057L14099.7787,-3721.1095L14099.7847,-3721.1138L14099.7906,-3721.119L14099.7956,-3721.1257L14099.8041,-3721.1358L14099.8139,-3721.1492L14099.8359,-3721.1732"/>
</g>
</svg>
