<?xml version="1.0" encoding="UTF-8"?>
<svg  xmlns="http://www.w3.org/2000/svg" xmlns:xlink="http://www.w3.org/1999/xlink" xmlns:go="http://purl.org/svgmap/profile" property="N07_001,N07_002,N07_003,N07_004,N07_005,N07_006,N07_007" viewBox="13353.8818359375 -3357.421875 1.0986328125 1.0986328125" go:dataArea="13353.8818359375 -3357.421875 1.0986328125 1.0986328125" >
<metadata>
 <rdf:RDF xmlns:rdf="http://www.w3.org/1999/02/22-rdf-syntax-ns#" xmlns:crs="http://opengis.org/xmldtds/transformations.dtd" xmlns:svg="http://www.w3.org/svg" >
  <rdf:Description>
   <crs:CoordinateReferenceSystem rdf:resource="http://purl.org/crs/84" svg:transform="matrix(100.0,0.0,0.0,-100.0,0.0,0.0)" />
  </rdf:Description>
 </rdf:RDF>
</metadata>
<globalCoordinateSystem srsName="http://purl.org/crs/84" transform="matrix(100.0,0.0,0.0,-100.0,0.0,0.0)" />
<defs>
 <g id="p0" >
  <circle cx="0.0" cy="0.0" r="3" stroke="green" stroke-width="0.75" vector-effect="non-scaling-stroke" />
 </g>
</defs>
<g fill="none" fill-rule="evenodd" stroke="#FF00FF" stroke-width="0.75" opacity="0.5" vector-effect="non-scaling-stroke" stroke-linejoin="bevel" >
<path content="1,JRバス関東（株）,ドリーム高松号/松山号/徳島号/高知号,4.0,4.0,4.0," xlink:title="1" d="M13354.3332,-3356.3232L13354.3317,-3356.3543L13354.3331,-3356.3601L13354.3349,-3356.3745L13354.3393,-3356.4101L13354.3524,-3356.44L13354.3464,-3356.4619L13354.3555,-3356.5411L13354.3599,-3356.5791L13354.3628,-3356.6056L13354.356,-3356.6547L13354.3534,-3356.7311"/>
<path content="1,JR四国バス（株）,なんごくエクスプレス　高知⇔松山,6.0,6.0,6.0," xlink:title="1" d="M13354.456,-3356.7461L13354.5423,-3356.7493L13354.5429,-3356.722L13354.558,-3356.7198L13354.6022,-3356.711L13354.6539,-3356.7049L13354.7502,-3356.6975L13354.8021,-3356.6942L13354.7738,-3356.5926L13354.6519,-3356.5988L13354.5917,-3356.6016L13354.5191,-3356.6047L13354.5186,-3356.5986L13354.4486,-3356.6031L13354.429,-3356.6026L13354.3995,-3356.6022L13354.3628,-3356.6056L13354.3599,-3356.5791L13354.3555,-3356.5411L13354.3524,-3356.44L13354.3331,-3356.3601L13354.3317,-3356.3543L13354.3332,-3356.3232"/>
<path content="1,JR四国バス（株）,ドリーム高知号　高知・徳島⇔東京・新木場,1.0,1.0,1.0," xlink:title="1" d="M13354.456,-3356.7461L13354.5423,-3356.7493L13354.5429,-3356.722L13354.558,-3356.7198L13354.6022,-3356.711L13354.6539,-3356.7049L13354.7502,-3356.6975L13354.8021,-3356.6942L13354.7738,-3356.5926L13354.6519,-3356.5988L13354.5917,-3356.6016L13354.5191,-3356.6047L13354.5186,-3356.5986L13354.4486,-3356.6031L13354.429,-3356.6026L13354.3995,-3356.6022L13354.3628,-3356.6056L13354.3599,-3356.5791L13354.3555,-3356.5411L13354.3524,-3356.44L13354.3331,-3356.3601L13354.3317,-3356.3543L13354.3332,-3356.3232"/>
<path content="1,JR四国バス（株）,高知エクスプレス号　高知⇔神戸・大阪・京都,7.0,7.0,7.0," xlink:title="1" d="M13354.456,-3356.7461L13354.5423,-3356.7493L13354.5429,-3356.722L13354.558,-3356.7198L13354.6022,-3356.711L13354.6539,-3356.7049L13354.7502,-3356.6975L13354.8021,-3356.6942L13354.7738,-3356.5926L13354.6519,-3356.5988L13354.5917,-3356.6016L13354.5191,-3356.6047L13354.5186,-3356.5986L13354.4486,-3356.6031L13354.429,-3356.6026L13354.3995,-3356.6022L13354.3628,-3356.6056L13354.3599,-3356.5791L13354.3555,-3356.5411L13354.3524,-3356.44L13354.3331,-3356.3601L13354.3317,-3356.3543L13354.3332,-3356.3232"/>
<path content="1,JR四国バス（株）,高知徳島エクスプレス号　高知⇔徳島,1.0,1.0,1.0," xlink:title="1" d="M13354.456,-3356.7461L13354.5423,-3356.7493L13354.5429,-3356.722L13354.558,-3356.7198L13354.6022,-3356.711L13354.6539,-3356.7049L13354.7502,-3356.6975L13354.8021,-3356.6942L13354.7738,-3356.5926L13354.6519,-3356.5988L13354.5917,-3356.6016L13354.5191,-3356.6047L13354.5186,-3356.5986L13354.4486,-3356.6031L13354.429,-3356.6026L13354.3995,-3356.6022L13354.3628,-3356.6056L13354.3599,-3356.5791L13354.3555,-3356.5411L13354.3524,-3356.44L13354.3331,-3356.3601L13354.3317,-3356.3543L13354.3332,-3356.3232"/>
<path content="1,JR四国バス（株）,黒潮エクスプレス号　高知⇔高松,3.0,3.0,3.0," xlink:title="1" d="M13354.456,-3356.7461L13354.5423,-3356.7493L13354.5429,-3356.722L13354.558,-3356.7198L13354.6022,-3356.711L13354.6539,-3356.7049L13354.7502,-3356.6975L13354.8021,-3356.6942L13354.7738,-3356.5926L13354.6519,-3356.5988L13354.5917,-3356.6016L13354.5191,-3356.6047L13354.5186,-3356.5986L13354.4486,-3356.6031L13354.429,-3356.6026L13354.3995,-3356.6022L13354.3628,-3356.6056L13354.3599,-3356.5791L13354.3555,-3356.5411L13354.3524,-3356.44L13354.3331,-3356.3601L13354.3317,-3356.3543L13354.3332,-3356.3232"/>
<path content="1,JR四国バス（株）,龍馬エクスプレス号　高知⇔岡山,9.0,9.0,9.0," xlink:title="1" d="M13354.456,-3356.7461L13354.5423,-3356.7493L13354.5409,-3356.8045L13354.5416,-3356.8366L13354.5424,-3356.8703L13354.6302,-3356.8733L13354.8086,-3356.8801L13354.8396,-3356.8835L13354.8021,-3356.6942L13354.7738,-3356.5926L13354.6519,-3356.5988L13354.5858,-3356.6028L13354.5191,-3356.6047L13354.5186,-3356.5986L13354.4486,-3356.6031L13354.429,-3356.6026L13354.3995,-3356.6022L13354.3628,-3356.6056L13354.3599,-3356.5791L13354.3555,-3356.5411L13354.3524,-3356.44L13354.3331,-3356.3601L13354.3317,-3356.3543L13354.3332,-3356.3232"/>
<path content="1,下津井電鉄（株）,岡山～高知線,9.0,9.0,9.0," xlink:title="1" d="M13354.4086,-3356.7735L13354.3666,-3356.6063L13354.3319,-3356.3232"/>
<path content="1,両備ホールディングス（株）,龍馬エクスプレス　岡山～高知線,9.0,9.0,9.0," xlink:title="1" d="M13354.4086,-3356.7735L13354.3666,-3356.6063L13354.3319,-3356.3232"/>
<path content="1,京阪バス（株）,京都⇔高知,1.0,1.0,1.0," xlink:title="1" d="M13354.456,-3356.7461L13354.5423,-3356.7493L13354.5429,-3356.722L13354.558,-3356.7198L13354.6022,-3356.711L13354.6539,-3356.7049L13354.7502,-3356.6975L13354.8021,-3356.6942L13354.7738,-3356.5926L13354.6519,-3356.5988L13354.5858,-3356.6028L13354.5191,-3356.6047L13354.5186,-3356.5986L13354.4486,-3356.6031L13354.429,-3356.6026L13354.3995,-3356.6022L13354.3628,-3356.6056L13354.3599,-3356.5791L13354.3555,-3356.5411L13354.3524,-3356.44L13354.3331,-3356.3601L13354.3317,-3356.3543L13354.3332,-3356.3232"/>
<path content="1,伊予鉄道（株）,ホエールエクスプレス　松山⇔高知,5.0,5.0,5.0," xlink:title="1" d="M13354.456,-3356.7461L13354.5423,-3356.7493L13354.5429,-3356.722L13354.558,-3356.7198L13354.6022,-3356.711L13354.6539,-3356.7049L13354.7502,-3356.6975L13354.8021,-3356.6942L13354.7738,-3356.5926L13354.6519,-3356.5988L13354.5917,-3356.6016L13354.5191,-3356.6047L13354.5186,-3356.5986L13354.4486,-3356.6031L13354.3995,-3356.6022L13354.3628,-3356.6056L13354.3599,-3356.5791L13354.3555,-3356.5411L13354.3524,-3356.44L13354.3331,-3356.3601L13354.3317,-3356.3543L13354.3332,-3356.3232"/>
<path content="1,四国高速バス（株）,黒潮エクスプレス　高松⇔高知,5.0,5.0,5.0," xlink:title="1" d="M13354.456,-3356.7461L13354.5423,-3356.7493L13354.5429,-3356.722L13354.558,-3356.7198L13354.6022,-3356.711L13354.6539,-3356.7049L13354.7502,-3356.6975L13354.8021,-3356.6942L13354.7738,-3356.5926L13354.6519,-3356.5988L13354.5917,-3356.6016L13354.5191,-3356.6047L13354.5186,-3356.5986L13354.4486,-3356.6031L13354.429,-3356.6026L13354.3995,-3356.6022L13354.3628,-3356.6056L13354.3599,-3356.5791L13354.3555,-3356.5411L13354.3524,-3356.44L13354.3331,-3356.3601L13354.3317,-3356.3543L13354.3332,-3356.3232"/>
<path content="1,土佐電ドリームサービス（株）,医療センター・十津団地線,7.0,5.5,5.5," xlink:title="1" d="M13354.3332,-3356.3232L13354.3317,-3356.3543L13354.3331,-3356.3601L13354.3524,-3356.44L13354.3555,-3356.5411L13354.3599,-3356.5791L13354.3628,-3356.6056L13354.3995,-3356.6022L13354.429,-3356.6026L13354.4486,-3356.6031L13354.5186,-3356.5986L13354.5191,-3356.6047L13354.5432,-3356.7087L13354.5423,-3356.7493L13354.456,-3356.7461"/>
<path content="1,土佐電ドリームサービス（株）,医療センター女子大・望海ヶ丘線,10.5,5.0,5.0," xlink:title="1" d="M13354.456,-3356.7461L13354.4278,-3356.7445L13354.4294,-3356.7422L13354.4422,-3356.7374L13354.5424,-3356.7308L13354.5432,-3356.7087L13354.5191,-3356.6047L13354.5186,-3356.5986L13354.4486,-3356.6031L13354.429,-3356.6026L13354.3995,-3356.6022L13354.3628,-3356.6056L13354.3599,-3356.5791L13354.3555,-3356.5411L13354.3524,-3356.44L13354.3331,-3356.3601L13354.3317,-3356.3543L13354.3332,-3356.3232"/>
<path content="1,土佐電ドリームサービス（株）,比島・竹島線,1.0,1.0,1.0," xlink:title="1" d="M13354.3332,-3356.3232L13354.3317,-3356.3543L13354.3331,-3356.3601L13354.3524,-3356.44L13354.3555,-3356.5411L13354.3599,-3356.5791L13354.3628,-3356.6056L13354.3995,-3356.6022L13354.429,-3356.6026L13354.4486,-3356.6031L13354.5186,-3356.5986L13354.5191,-3356.6047L13354.5432,-3356.7087L13354.5424,-3356.7308L13354.4422,-3356.7374L13354.4294,-3356.7422L13354.428,-3356.7445L13354.456,-3356.7461L13354.5423,-3356.7493L13354.5409,-3356.8045L13354.5413,-3356.8153L13354.5416,-3356.8366L13354.5424,-3356.8703L13354.6302,-3356.8733L13354.7333,-3356.8778L13354.8086,-3356.8801L13354.827,-3356.8823L13354.8396,-3356.8835L13354.8511,-3356.9163L13354.8652,-3356.9366L13354.8749,-3356.9549L13354.9055,-3356.9939L13354.9217,-3357.0192L13354.9412,-3357.0452L13354.9553,-3357.0655L13354.9799,-3357.1044L13354.9805,-3357.105M13354.9805,-3357.2326L13354.8907,-3357.2176L13354.81,-3357.2047L13354.8007,-3357.2045L13354.7077,-3357.1889L13354.5725,-3357.1663L13354.3942,-3357.137L13354.3942,-3357.1374L13354.393,-3357.139L13354.3075,-3357.1235L13354.2375,-3357.1122L13354.1971,-3357.1072L13354.0794,-3357.1026L13354.0273,-3357.1044L13353.9368,-3357.0976L13353.9031,-3357.097L13353.8843,-3357.0964L13353.8818,-3357.0963"/>
<path content="1,土佐電気鉄道（株）,はりまや号　高知⇔福岡線,1.0,1.0,1.0," xlink:title="1" d="M13354.456,-3356.7461L13354.5423,-3356.7493L13354.5409,-3356.8045L13354.5416,-3356.8366L13354.5424,-3356.8703L13354.6302,-3356.8733L13354.8086,-3356.8801L13354.8396,-3356.8835L13354.8021,-3356.6942L13354.7738,-3356.5926L13354.6519,-3356.5988L13354.5858,-3356.6028L13354.5191,-3356.6047L13354.5186,-3356.5986L13354.4486,-3356.6031L13354.429,-3356.6026L13354.3995,-3356.6022L13354.3628,-3356.6056L13354.3599,-3356.5791L13354.3555,-3356.5411L13354.3524,-3356.44L13354.3331,-3356.3601L13354.3317,-3356.3543L13354.3332,-3356.3232"/>
<path content="1,土佐電気鉄道（株）,よさこい号　高知⇔大阪線,10.0,10.0,10.0," xlink:title="1" d="M13354.456,-3356.7461L13354.5423,-3356.7493L13354.5409,-3356.8045L13354.5416,-3356.8366L13354.5424,-3356.8703L13354.6302,-3356.8733L13354.8086,-3356.8801L13354.8396,-3356.8835L13354.8021,-3356.6942L13354.7738,-3356.5926L13354.6519,-3356.5988L13354.5858,-3356.6028L13354.5191,-3356.6047L13354.5186,-3356.5986L13354.4486,-3356.6031L13354.429,-3356.6026L13354.3995,-3356.6022L13354.3628,-3356.6056L13354.3599,-3356.5791L13354.3555,-3356.5411L13354.3524,-3356.44L13354.3331,-3356.3601L13354.3317,-3356.3543L13354.3332,-3356.3232"/>
<path content="1,土佐電気鉄道（株）,ドラゴンライナー　高知⇔名古屋線,1.0,1.0,1.0," xlink:title="1" d="M13354.9805,-3357.2326L13354.8907,-3357.2176L13354.81,-3357.2047L13354.8007,-3357.2045L13354.7165,-3357.1906L13354.7077,-3357.1889L13354.5725,-3357.1663L13354.3942,-3357.137L13354.3915,-3357.0891L13354.3895,-3357.0474L13354.3868,-3356.999L13354.3866,-3356.9946L13354.3794,-3356.9462L13354.3787,-3356.8643L13354.3781,-3356.8569L13354.3755,-3356.7996L13354.3868,-3356.7983L13354.4077,-3356.7983L13354.4086,-3356.7735L13354.4078,-3356.7631L13354.4097,-3356.7436L13354.4467,-3356.7453L13354.456,-3356.7461L13354.5423,-3356.7493L13354.5409,-3356.8045L13354.5416,-3356.8366L13354.5424,-3356.8703L13354.6302,-3356.8733L13354.8086,-3356.8801L13354.8396,-3356.8835L13354.8021,-3356.6942L13354.7738,-3356.5926L13354.6519,-3356.5988L13354.5858,-3356.6028L13354.5191,-3356.6047L13354.5186,-3356.5986L13354.4486,-3356.6031L13354.429,-3356.6026L13354.3995,-3356.6022L13354.3628,-3356.6056L13354.3599,-3356.5791L13354.3555,-3356.5411L13354.3524,-3356.44L13354.3331,-3356.3601L13354.3317,-3356.3543L13354.3332,-3356.3232"/>
<path content="1,土佐電気鉄道（株）,ハーバーライナー　高知⇔神戸線,4.0,4.0,4.0," xlink:title="1" d="M13354.456,-3356.7461L13354.5423,-3356.7493L13354.5409,-3356.8045L13354.5416,-3356.8366L13354.5424,-3356.8703L13354.6302,-3356.8733L13354.8086,-3356.8801L13354.8396,-3356.8835L13354.8021,-3356.6942L13354.7738,-3356.5926L13354.6519,-3356.5988L13354.5858,-3356.6028L13354.5191,-3356.6047L13354.5186,-3356.5986L13354.4486,-3356.6031L13354.429,-3356.6026L13354.3995,-3356.6022L13354.3628,-3356.6056L13354.3599,-3356.5791L13354.3555,-3356.5411L13354.3524,-3356.44L13354.3331,-3356.3601L13354.3317,-3356.3543L13354.3332,-3356.3232"/>
<path content="1,土佐電気鉄道（株）,ブルーメッツ号　高知⇔東京線,1.0,1.0,1.0," xlink:title="1" d="M13354.9805,-3357.2326L13354.8907,-3357.2176L13354.81,-3357.2047L13354.8007,-3357.2045L13354.7165,-3357.1906L13354.7077,-3357.1889L13354.5725,-3357.1663L13354.3942,-3357.137L13354.3915,-3357.0891L13354.3895,-3357.0474L13354.3868,-3356.999L13354.3866,-3356.9946L13354.3794,-3356.9462L13354.3787,-3356.8643L13354.3781,-3356.8569L13354.3755,-3356.7996L13354.3868,-3356.7983L13354.4077,-3356.7983L13354.4086,-3356.7735L13354.4078,-3356.7631L13354.4097,-3356.7436L13354.4467,-3356.7453L13354.456,-3356.7461L13354.5423,-3356.7493L13354.5409,-3356.8045L13354.5416,-3356.8366L13354.5424,-3356.8703L13354.6302,-3356.8733L13354.8086,-3356.8801L13354.8396,-3356.8835L13354.8021,-3356.6942L13354.7738,-3356.5926L13354.6519,-3356.5988L13354.5858,-3356.6028L13354.5191,-3356.6047L13354.5186,-3356.5986L13354.4486,-3356.6031L13354.429,-3356.6026L13354.3995,-3356.6022L13354.3628,-3356.6056L13354.3599,-3356.5791L13354.3555,-3356.5411L13354.3524,-3356.44L13354.3331,-3356.3601L13354.3317,-3356.3543L13354.3332,-3356.3232"/>
<path content="1,土佐電気鉄道（株）,ホエールエクスプレス　高知⇔松山線,5.0,5.0,5.0," xlink:title="1" d="M13354.456,-3356.7461L13354.5423,-3356.7493L13354.5409,-3356.8045L13354.5416,-3356.8366L13354.5424,-3356.8703L13354.6302,-3356.8733L13354.8086,-3356.8801L13354.8396,-3356.8835L13354.8021,-3356.6942L13354.7738,-3356.5926L13354.6519,-3356.5988L13354.5858,-3356.6028L13354.5191,-3356.6047L13354.5186,-3356.5986L13354.4486,-3356.6031L13354.429,-3356.6026L13354.3995,-3356.6022L13354.3628,-3356.6056L13354.3599,-3356.5791L13354.3555,-3356.5411L13354.3524,-3356.44L13354.3331,-3356.3601L13354.3317,-3356.3543L13354.3332,-3356.3232"/>
<path content="1,土佐電気鉄道（株）,伊野・岩目地・駅・イオン・北秦泉寺線,17.5,22.0,22.0," xlink:title="1" d="M13354.3332,-3356.3232L13354.3317,-3356.3543L13354.3331,-3356.3601L13354.3524,-3356.44L13354.3555,-3356.5411L13354.3599,-3356.5791L13354.3628,-3356.6056L13354.3995,-3356.6022L13354.429,-3356.6026L13354.4486,-3356.6031L13354.5186,-3356.5986L13354.5191,-3356.6047L13354.5432,-3356.7087L13354.5423,-3356.7493L13354.456,-3356.7461L13354.4467,-3356.7453L13354.4097,-3356.7436L13354.4078,-3356.7631L13354.4086,-3356.7735L13354.4077,-3356.7983L13354.5413,-3356.7906L13354.5413,-3356.8153L13354.5416,-3356.8366L13354.5424,-3356.8703L13354.5279,-3356.8696L13354.3787,-3356.8643L13354.3794,-3356.9462L13354.3866,-3356.9946L13354.3868,-3356.999L13354.3895,-3357.0474L13354.3915,-3357.0891L13354.3942,-3357.137L13354.393,-3357.139L13354.3976,-3357.1889L13354.3983,-3357.2255L13354.3982,-3357.2344L13354.3982,-3357.2391L13354.3948,-3357.2474L13354.36,-3357.3118L13354.3588,-3357.3141L13354.3461,-3357.3292L13354.3384,-3357.3371L13354.3048,-3357.3506L13354.1453,-3357.407L13354.1325,-3357.4149L13354.1299,-3357.4154L13354.1295,-3357.4219"/>
<path content="1,土佐電気鉄道（株）,土佐エクスプレス　高知⇔広島線,2.0,2.0,2.0," xlink:title="1" d="M13354.456,-3356.7461L13354.5423,-3356.7493L13354.5409,-3356.8045L13354.5416,-3356.8366L13354.5424,-3356.8703L13354.6302,-3356.8733L13354.8086,-3356.8801L13354.8396,-3356.8835L13354.8021,-3356.6942L13354.7738,-3356.5926L13354.6519,-3356.5988L13354.5858,-3356.6028L13354.5191,-3356.6047L13354.5186,-3356.5986L13354.4486,-3356.6031L13354.429,-3356.6026L13354.3995,-3356.6022L13354.3628,-3356.6056L13354.3599,-3356.5791L13354.3555,-3356.5411L13354.3524,-3356.44L13354.3331,-3356.3601L13354.3317,-3356.3543L13354.3332,-3356.3232"/>
<path content="1,土佐電気鉄道（株）,高知⇔京都線,2.0,2.0,2.0," xlink:title="1" d="M13354.456,-3356.7461L13354.5423,-3356.7493L13354.5409,-3356.8045L13354.5416,-3356.8366L13354.5424,-3356.8703L13354.6302,-3356.8733L13354.8086,-3356.8801L13354.8396,-3356.8835L13354.8021,-3356.6942L13354.7738,-3356.5926L13354.6519,-3356.5988L13354.5858,-3356.6028L13354.5191,-3356.6047L13354.5186,-3356.5986L13354.4486,-3356.6031L13354.429,-3356.6026L13354.3995,-3356.6022L13354.3628,-3356.6056L13354.3599,-3356.5791L13354.3555,-3356.5411L13354.3524,-3356.44L13354.3331,-3356.3601L13354.3317,-3356.3543L13354.3332,-3356.3232"/>
<path content="1,土佐電気鉄道（株）,高知徳島エクスプレス　高知⇔徳島線,4.0,4.0,4.0," xlink:title="1" d="M13354.456,-3356.7461L13354.5423,-3356.7493L13354.5409,-3356.8045L13354.5416,-3356.8366L13354.5424,-3356.8703L13354.6302,-3356.8733L13354.8086,-3356.8801L13354.8396,-3356.8835L13354.8021,-3356.6942L13354.7738,-3356.5926L13354.6519,-3356.5988L13354.5858,-3356.6028L13354.5191,-3356.6047L13354.5186,-3356.5986L13354.4486,-3356.6031L13354.429,-3356.6026L13354.3995,-3356.6022L13354.3628,-3356.6056L13354.3599,-3356.5791L13354.3555,-3356.5411L13354.3524,-3356.44L13354.3331,-3356.3601L13354.3317,-3356.3543L13354.3332,-3356.3232"/>
<path content="1,土佐電気鉄道（株）,黒潮エクスプレス　高知⇔高松線,13.0,13.0,13.0," xlink:title="1" d="M13354.456,-3356.7461L13354.5423,-3356.7493L13354.5409,-3356.8045L13354.5416,-3356.8366L13354.5424,-3356.8703L13354.6302,-3356.8733L13354.8086,-3356.8801L13354.8396,-3356.8835L13354.8021,-3356.6942L13354.7738,-3356.5926L13354.6519,-3356.5988L13354.5858,-3356.6028L13354.5191,-3356.6047L13354.5186,-3356.5986L13354.4486,-3356.6031L13354.429,-3356.6026L13354.3995,-3356.6022L13354.3628,-3356.6056L13354.3599,-3356.5791L13354.3555,-3356.5411L13354.3524,-3356.44L13354.3331,-3356.3601L13354.3317,-3356.3543L13354.3332,-3356.3232"/>
<path content="1,土佐電気鉄道（株）,龍馬エクスプレス　高知⇔岡山線,9.0,9.0,9.0," xlink:title="1" d="M13354.456,-3356.7461L13354.5423,-3356.7493L13354.5409,-3356.8045L13354.5416,-3356.8366L13354.5424,-3356.8703L13354.6302,-3356.8733L13354.8086,-3356.8801L13354.8396,-3356.8835L13354.8021,-3356.6942L13354.7738,-3356.5926L13354.6519,-3356.5988L13354.5858,-3356.6028L13354.5191,-3356.6047L13354.5186,-3356.5986L13354.4486,-3356.6031L13354.429,-3356.6026L13354.3995,-3356.6022L13354.3628,-3356.6056L13354.3599,-3356.5791L13354.3555,-3356.5411L13354.3524,-3356.44L13354.3331,-3356.3601L13354.3317,-3356.3543L13354.3332,-3356.3232"/>
<path content="1,小田急シティバス（株）,ブルーメッツ号,1.0,1.0,1.0," xlink:title="1" d="M13354.827,-3356.8823L13354.8086,-3356.8801L13354.7333,-3356.8778L13354.7138,-3356.8761L13354.6714,-3356.8756L13354.6458,-3356.8739L13354.6302,-3356.8733L13354.6169,-3356.8733L13354.6001,-3356.8722L13354.5424,-3356.8703L13354.5416,-3356.8366L13354.5413,-3356.8153L13354.5409,-3356.8045L13354.5423,-3356.7493L13354.456,-3356.7461L13354.4467,-3356.7453L13354.4097,-3356.7436L13354.4078,-3356.7631"/>
<path content="1,小田急シティバス（株）,ブルーメッツ号,1.0,1.0,1.0," xlink:title="1" d="M13354.827,-3356.8823L13354.8501,-3356.8852L13354.8207,-3356.7809L13354.814,-3356.7594L13354.812,-3356.7482L13354.7945,-3356.6834L13354.7743,-3356.6039L13354.7696,-3356.5937L13354.7138,-3356.596L13354.6519,-3356.5988L13354.5917,-3356.6016L13354.5858,-3356.6028L13354.5191,-3356.6047L13354.5186,-3356.5986L13354.4486,-3356.6031L13354.429,-3356.6026L13354.4121,-3356.6034L13354.3995,-3356.6022L13354.3628,-3356.6056L13354.3599,-3356.5791L13354.3555,-3356.5411L13354.3464,-3356.4619L13354.3524,-3356.44L13354.3393,-3356.4101L13354.3349,-3356.3745L13354.3331,-3356.3601L13354.3317,-3356.3543L13354.3332,-3356.3232"/>
<path content="1,小田急シティバス（株）,ブルーメッツ号,1.0,1.0,1.0," xlink:title="1" d="M13354.9805,-3357.105L13354.9799,-3357.1044L13354.956,-3357.0672L13354.9553,-3357.0655L13354.9412,-3357.0452L13354.9217,-3357.0192L13354.9055,-3356.9939L13354.8749,-3356.9549L13354.8652,-3356.9366L13354.8511,-3356.9163L13354.8369,-3356.8958L13354.827,-3356.8823"/>
<path content="1,小田急バス（株）,ブルーメッツ号,1.0,1.0,1.0," xlink:title="1" d="M13354.827,-3356.8823L13354.8086,-3356.8801L13354.7333,-3356.8778L13354.7138,-3356.8761L13354.6714,-3356.8756L13354.6458,-3356.8739L13354.6302,-3356.8733L13354.6169,-3356.8733L13354.6001,-3356.8722L13354.5424,-3356.8703L13354.5416,-3356.8366L13354.5413,-3356.8153L13354.5409,-3356.8045L13354.5423,-3356.7493L13354.456,-3356.7461L13354.4467,-3356.7453L13354.4097,-3356.7436L13354.4078,-3356.7631"/>
<path content="1,小田急バス（株）,ブルーメッツ号,1.0,1.0,1.0," xlink:title="1" d="M13354.827,-3356.8823L13354.8501,-3356.8852L13354.8207,-3356.7809L13354.814,-3356.7594L13354.812,-3356.7482L13354.7945,-3356.6834L13354.7743,-3356.6039L13354.7696,-3356.5937L13354.7138,-3356.596L13354.6519,-3356.5988L13354.5917,-3356.6016L13354.5858,-3356.6028L13354.5191,-3356.6047L13354.5186,-3356.5986L13354.4486,-3356.6031L13354.429,-3356.6026L13354.4121,-3356.6034L13354.3995,-3356.6022L13354.3628,-3356.6056L13354.3599,-3356.5791L13354.3555,-3356.5411L13354.3464,-3356.4619L13354.3524,-3356.44L13354.3393,-3356.4101L13354.3349,-3356.3745L13354.3331,-3356.3601L13354.3317,-3356.3543L13354.3332,-3356.3232"/>
<path content="1,小田急バス（株）,ブルーメッツ号,1.0,1.0,1.0," xlink:title="1" d="M13354.9805,-3357.105L13354.9799,-3357.1044L13354.956,-3357.0672L13354.9553,-3357.0655L13354.9412,-3357.0452L13354.9217,-3357.0192L13354.9055,-3356.9939L13354.8749,-3356.9549L13354.8652,-3356.9366L13354.8511,-3356.9163L13354.8369,-3356.8958L13354.827,-3356.8823"/>
<path content="1,広交観光（株）,土佐エクスプレス　広島⇔高知,2.0,2.0,2.0," xlink:title="1" d="M13354.4486,-3356.6031L13354.3666,-3356.6063L13354.3319,-3356.3232"/>
<path content="1,徳島バス（株）,徳島⇔高知,4.0,4.0,4.0," xlink:title="1" d="M13354.456,-3356.7461L13354.5423,-3356.7493L13354.5429,-3356.722L13354.558,-3356.7198L13354.6022,-3356.711L13354.6539,-3356.7049L13354.7074,-3356.7003L13354.7502,-3356.6975L13354.8021,-3356.6942L13354.7738,-3356.5926L13354.5917,-3356.6016L13354.5191,-3356.6047L13354.5186,-3356.5986L13354.4486,-3356.6031L13354.429,-3356.6026L13354.3995,-3356.6022L13354.3628,-3356.6056L13354.3599,-3356.5791L13354.3555,-3356.5411L13354.3524,-3356.44L13354.3331,-3356.3601L13354.3317,-3356.3543L13354.3332,-3356.3232"/>
<path content="1,神姫バス（株）,神戸（三ノ宮）-高知,2.0,2.0,2.0," xlink:title="1" d="M13354.456,-3356.7461L13354.5423,-3356.7493L13354.5429,-3356.722L13354.558,-3356.7198L13354.6022,-3356.711L13354.6539,-3356.7049L13354.7502,-3356.6975L13354.8021,-3356.6942L13354.7738,-3356.5926L13354.6519,-3356.5988L13354.5917,-3356.6016L13354.5191,-3356.6047L13354.5186,-3356.5986L13354.4486,-3356.6031L13354.429,-3356.6026L13354.3995,-3356.6022L13354.3628,-3356.6056L13354.3599,-3356.5791L13354.3555,-3356.5411L13354.3524,-3356.44L13354.3331,-3356.3601L13354.3317,-3356.3543L13354.3332,-3356.3232"/>
<path content="1,阪急バス（株）,高知行（よさこい号）,10.0,10.0,10.0," xlink:title="1" d="M13354.456,-3356.7461L13354.5423,-3356.7493L13354.5429,-3356.722L13354.558,-3356.7198L13354.6022,-3356.711L13354.6539,-3356.7049L13354.7502,-3356.6975L13354.8021,-3356.6942L13354.7738,-3356.5926L13354.6519,-3356.5988L13354.5858,-3356.6028L13354.5191,-3356.6047L13354.5186,-3356.5986L13354.4486,-3356.6031L13354.429,-3356.6026L13354.3995,-3356.6022L13354.3628,-3356.6056L13354.3599,-3356.5791L13354.3555,-3356.5411L13354.3524,-3356.44L13354.3331,-3356.3601L13354.3317,-3356.3543L13354.3332,-3356.3232"/>
<path content="1,高知県交通（株）,はりまや号　高知⇔福岡線,1.0,1.0,1.0," xlink:title="1" d="M13354.456,-3356.7461L13354.5423,-3356.7493L13354.5409,-3356.8045L13354.5416,-3356.8366L13354.5424,-3356.8703L13354.6302,-3356.8733L13354.8086,-3356.8801L13354.8396,-3356.8835L13354.8021,-3356.6942L13354.7738,-3356.5926L13354.6519,-3356.5988L13354.5858,-3356.6028L13354.5191,-3356.6047L13354.5186,-3356.5986L13354.4486,-3356.6031L13354.429,-3356.6026L13354.3995,-3356.6022L13354.3628,-3356.6056L13354.3599,-3356.5791L13354.3555,-3356.5411L13354.3524,-3356.44L13354.3331,-3356.3601L13354.3317,-3356.3543L13354.3332,-3356.3232"/>
<path content="1,高知県交通（株）,よさこい号　高知⇔大阪線,10.0,10.0,10.0," xlink:title="1" d="M13354.456,-3356.7461L13354.5423,-3356.7493L13354.5409,-3356.8045L13354.5416,-3356.8366L13354.5424,-3356.8703L13354.6302,-3356.8733L13354.8086,-3356.8801L13354.8396,-3356.8835L13354.8021,-3356.6942L13354.7738,-3356.5926L13354.6519,-3356.5988L13354.5858,-3356.6028L13354.5191,-3356.6047L13354.5186,-3356.5986L13354.4486,-3356.6031L13354.429,-3356.6026L13354.3995,-3356.6022L13354.3628,-3356.6056L13354.3599,-3356.5791L13354.3555,-3356.5411L13354.3524,-3356.44L13354.3331,-3356.3601L13354.3317,-3356.3543L13354.3332,-3356.3232"/>
<path content="1,高知県交通（株）,オフィスパーク,1.0,0.0,0.0," xlink:title="1" d="M13354.456,-3356.7461L13354.5423,-3356.7493"/>
<path content="1,高知県交通（株）,オフィスパーク,1.0,0.0,0.0," xlink:title="1" d="M13354.5423,-3356.7493L13354.5432,-3356.7087L13354.5191,-3356.6047L13354.5186,-3356.5986L13354.4486,-3356.6031L13354.429,-3356.6026L13354.3995,-3356.6022L13354.3628,-3356.6056L13354.3599,-3356.5791L13354.3555,-3356.5411L13354.3524,-3356.44L13354.3331,-3356.3601L13354.3317,-3356.3543L13354.3332,-3356.3232"/>
<path content="1,高知県交通（株）,オフィスパーク,1.0,0.0,0.0," xlink:title="1" d="M13354.9805,-3357.105L13354.9799,-3357.1044L13354.9553,-3357.0655L13354.9412,-3357.0452L13354.9217,-3357.0192L13354.9055,-3356.9939L13354.8749,-3356.9549L13354.8652,-3356.9366L13354.8511,-3356.9163L13354.8396,-3356.8835L13354.827,-3356.8823L13354.8086,-3356.8801L13354.7333,-3356.8778L13354.6302,-3356.8733L13354.5424,-3356.8703L13354.5416,-3356.8366L13354.5413,-3356.8153L13354.5409,-3356.8045L13354.5423,-3356.7493"/>
<path content="1,高知県交通（株）,トーメン団地,6.0,5.5,5.5," xlink:title="1" d="M13354.9805,-3356.5843L13354.956,-3356.5847L13354.8687,-3356.5892L13354.7696,-3356.5937L13354.7138,-3356.596L13354.6519,-3356.5988L13354.5858,-3356.6028L13354.5191,-3356.6047L13354.5186,-3356.5986L13354.4486,-3356.6031L13354.429,-3356.6026L13354.3995,-3356.6022L13354.3628,-3356.6056L13354.3599,-3356.5791L13354.3555,-3356.5411L13354.3524,-3356.44L13354.3331,-3356.3601L13354.3317,-3356.3543L13354.3332,-3356.3232"/>
<path content="1,高知県交通（株）,ドラゴンライナー　高知⇔名古屋線,1.0,1.0,1.0," xlink:title="1" d="M13354.9805,-3357.2326L13354.8907,-3357.2176L13354.81,-3357.2047L13354.8007,-3357.2045L13354.7165,-3357.1906L13354.7077,-3357.1889L13354.5725,-3357.1663L13354.3942,-3357.137L13354.3915,-3357.0891L13354.3895,-3357.0474L13354.3868,-3356.999L13354.3866,-3356.9946L13354.3794,-3356.9462L13354.3787,-3356.8643L13354.3781,-3356.8569L13354.3755,-3356.7996L13354.3868,-3356.7983L13354.4077,-3356.7983L13354.4086,-3356.7735L13354.4078,-3356.7631L13354.4097,-3356.7436L13354.4467,-3356.7453L13354.456,-3356.7461L13354.5423,-3356.7493L13354.5409,-3356.8045L13354.5416,-3356.8366L13354.5424,-3356.8703L13354.6302,-3356.8733L13354.8086,-3356.8801L13354.8396,-3356.8835L13354.8021,-3356.6942L13354.7738,-3356.5926L13354.6519,-3356.5988L13354.5858,-3356.6028L13354.5191,-3356.6047L13354.5186,-3356.5986L13354.4486,-3356.6031L13354.429,-3356.6026L13354.3995,-3356.6022L13354.3628,-3356.6056L13354.3599,-3356.5791L13354.3555,-3356.5411L13354.3524,-3356.44L13354.3331,-3356.3601L13354.3317,-3356.3543L13354.3332,-3356.3232"/>
<path content="1,高知県交通（株）,ハーバーライナー　高知⇔神戸線,4.0,4.0,4.0," xlink:title="1" d="M13354.456,-3356.7461L13354.5423,-3356.7493L13354.5409,-3356.8045L13354.5416,-3356.8366L13354.5424,-3356.8703L13354.6302,-3356.8733L13354.8086,-3356.8801L13354.8396,-3356.8835L13354.8021,-3356.6942L13354.7738,-3356.5926L13354.6519,-3356.5988L13354.5858,-3356.6028L13354.5191,-3356.6047L13354.5186,-3356.5986L13354.4486,-3356.6031L13354.429,-3356.6026L13354.3995,-3356.6022L13354.3628,-3356.6056L13354.3599,-3356.5791L13354.3555,-3356.5411L13354.3524,-3356.44L13354.3331,-3356.3601L13354.3317,-3356.3543L13354.3332,-3356.3232"/>
<path content="1,高知県交通（株）,ブルーメッツ号　高知⇔東京線,1.0,1.0,1.0," xlink:title="1" d="M13354.9805,-3357.2326L13354.8907,-3357.2176L13354.81,-3357.2047L13354.8007,-3357.2045L13354.7165,-3357.1906L13354.7077,-3357.1889L13354.5725,-3357.1663L13354.3942,-3357.137L13354.3915,-3357.0891L13354.3895,-3357.0474L13354.3868,-3356.999L13354.3866,-3356.9946L13354.3794,-3356.9462L13354.3787,-3356.8643L13354.3781,-3356.8569L13354.3755,-3356.7996L13354.3868,-3356.7983L13354.4077,-3356.7983L13354.4086,-3356.7735L13354.4078,-3356.7631L13354.4097,-3356.7436L13354.4467,-3356.7453L13354.456,-3356.7461L13354.5423,-3356.7493L13354.5409,-3356.8045L13354.5416,-3356.8366L13354.5424,-3356.8703L13354.6302,-3356.8733L13354.8086,-3356.8801L13354.8396,-3356.8835L13354.8021,-3356.6942L13354.7738,-3356.5926L13354.6519,-3356.5988L13354.5858,-3356.6028L13354.5191,-3356.6047L13354.5186,-3356.5986L13354.4486,-3356.6031L13354.429,-3356.6026L13354.3995,-3356.6022L13354.3628,-3356.6056L13354.3599,-3356.5791L13354.3555,-3356.5411L13354.3524,-3356.44L13354.3331,-3356.3601L13354.3317,-3356.3543L13354.3332,-3356.3232"/>
<path content="1,高知県交通（株）,ホエールエクスプレス　高知⇔松山線,5.0,5.0,5.0," xlink:title="1" d="M13354.456,-3356.7461L13354.5423,-3356.7493L13354.5409,-3356.8045L13354.5416,-3356.8366L13354.5424,-3356.8703L13354.6302,-3356.8733L13354.8086,-3356.8801L13354.8396,-3356.8835L13354.8021,-3356.6942L13354.7738,-3356.5926L13354.6519,-3356.5988L13354.5858,-3356.6028L13354.5191,-3356.6047L13354.5186,-3356.5986L13354.4486,-3356.6031L13354.429,-3356.6026L13354.3995,-3356.6022L13354.3628,-3356.6056L13354.3599,-3356.5791L13354.3555,-3356.5411L13354.3524,-3356.44L13354.3331,-3356.3601L13354.3317,-3356.3543L13354.3332,-3356.3232"/>
<path content="1,高知県交通（株）,リハビリセンター,1.8,2.2,2.2," xlink:title="1" d="M13354.5191,-3356.6047L13354.5186,-3356.5986L13354.4486,-3356.6031L13354.429,-3356.6026L13354.3995,-3356.6022L13354.3628,-3356.6056L13354.3599,-3356.5791L13354.3555,-3356.5411L13354.3524,-3356.44L13354.3331,-3356.3601L13354.3317,-3356.3543L13354.3332,-3356.3232"/>
<path content="1,高知県交通（株）,リハビリセンター,1.8,2.2,2.2," xlink:title="1" d="M13354.5191,-3356.6047L13354.5858,-3356.6028L13354.6519,-3356.5988L13354.7138,-3356.596L13354.7696,-3356.5937L13354.8687,-3356.5892L13354.956,-3356.5847L13354.9805,-3356.5843M13354.9805,-3357.105L13354.9799,-3357.1044L13354.9553,-3357.0655L13354.9412,-3357.0452L13354.9217,-3357.0192L13354.9055,-3356.9939L13354.8749,-3356.9549L13354.8652,-3356.9366L13354.8511,-3356.9163L13354.8396,-3356.8835L13354.827,-3356.8823L13354.8086,-3356.8801L13354.7333,-3356.8778L13354.6302,-3356.8733L13354.5424,-3356.8703L13354.5416,-3356.8366L13354.5413,-3356.8153L13354.5409,-3356.8045L13354.5423,-3356.7493"/>
<path content="1,高知県交通（株）,リハビリセンター,1.8,2.2,2.2," xlink:title="1" d="M13354.456,-3356.7461L13354.5423,-3356.7493"/>
<path content="1,高知県交通（株）,リハビリセンター,1.8,2.2,2.2," xlink:title="1" d="M13354.5423,-3356.7493L13354.5432,-3356.7087L13354.5191,-3356.6047"/>
<path content="1,高知県交通（株）,仁野,1.0,0.0,0.0," xlink:title="1" d="M13354.5423,-3356.7493L13354.456,-3356.7461"/>
<path content="1,高知県交通（株）,仁野,1.0,0.0,0.0," xlink:title="1" d="M13354.5423,-3356.7493L13354.5432,-3356.7087L13354.5191,-3356.6047L13354.5186,-3356.5986L13354.4486,-3356.6031L13354.429,-3356.6026L13354.3995,-3356.6022L13354.3628,-3356.6056L13354.3599,-3356.5791L13354.3555,-3356.5411L13354.3524,-3356.44L13354.3331,-3356.3601L13354.3317,-3356.3543L13354.3332,-3356.3232"/>
<path content="1,高知県交通（株）,仁野,1.0,0.0,0.0," xlink:title="1" d="M13354.9805,-3357.105L13354.9799,-3357.1044L13354.9553,-3357.0655L13354.9412,-3357.0452L13354.9217,-3357.0192L13354.9055,-3356.9939L13354.8749,-3356.9549L13354.8652,-3356.9366L13354.8511,-3356.9163L13354.8396,-3356.8835L13354.827,-3356.8823L13354.8086,-3356.8801L13354.7333,-3356.8778L13354.6302,-3356.8733L13354.5424,-3356.8703L13354.5416,-3356.8366L13354.5413,-3356.8153L13354.5409,-3356.8045L13354.5423,-3356.7493"/>
<path content="1,高知県交通（株）,吉野,3.3,2.8,2.3," xlink:title="1" d="M13354.456,-3356.7461L13354.5423,-3356.7493"/>
<path content="1,高知県交通（株）,吉野,3.3,2.8,2.3," xlink:title="1" d="M13354.5423,-3356.7493L13354.5432,-3356.7087L13354.5191,-3356.6047L13354.5186,-3356.5986L13354.4486,-3356.6031L13354.429,-3356.6026L13354.3995,-3356.6022L13354.3628,-3356.6056L13354.3599,-3356.5791L13354.3555,-3356.5411L13354.3524,-3356.44L13354.3331,-3356.3601L13354.3317,-3356.3543L13354.3332,-3356.3232"/>
<path content="1,高知県交通（株）,吉野,3.3,2.8,2.3," xlink:title="1" d="M13354.9805,-3357.105L13354.9799,-3357.1044L13354.9553,-3357.0655L13354.9412,-3357.0452L13354.9217,-3357.0192L13354.9055,-3356.9939L13354.8749,-3356.9549L13354.8652,-3356.9366L13354.8511,-3356.9163L13354.8396,-3356.8835L13354.827,-3356.8823L13354.8086,-3356.8801L13354.7333,-3356.8778L13354.6302,-3356.8733L13354.5424,-3356.8703L13354.5416,-3356.8366L13354.5413,-3356.8153L13354.5409,-3356.8045L13354.5423,-3356.7493"/>
<path content="1,高知県交通（株）,土佐エクスプレス　高知⇔広島線,2.0,2.0,2.0," xlink:title="1" d="M13354.456,-3356.7461L13354.5423,-3356.7493L13354.5409,-3356.8045L13354.5416,-3356.8366L13354.5424,-3356.8703L13354.6302,-3356.8733L13354.8086,-3356.8801L13354.8396,-3356.8835L13354.8021,-3356.6942L13354.7738,-3356.5926L13354.6519,-3356.5988L13354.5858,-3356.6028L13354.5191,-3356.6047L13354.5186,-3356.5986L13354.4486,-3356.6031L13354.429,-3356.6026L13354.3995,-3356.6022L13354.3628,-3356.6056L13354.3599,-3356.5791L13354.3555,-3356.5411L13354.3524,-3356.44L13354.3331,-3356.3601L13354.3317,-3356.3543L13354.3332,-3356.3232"/>
<path content="1,高知県交通（株）,土佐塾校,1.2,1.3,1.2," xlink:title="1" d="M13354.5191,-3356.6047L13354.5186,-3356.5986L13354.4486,-3356.6031L13354.429,-3356.6026L13354.3995,-3356.6022L13354.3628,-3356.6056L13354.3599,-3356.5791L13354.3555,-3356.5411L13354.3524,-3356.44L13354.3331,-3356.3601L13354.3317,-3356.3543L13354.3332,-3356.3232"/>
<path content="1,高知県交通（株）,土佐塾校,1.2,1.3,1.2," xlink:title="1" d="M13354.5191,-3356.6047L13354.5858,-3356.6028L13354.6519,-3356.5988L13354.7138,-3356.596L13354.7696,-3356.5937L13354.8687,-3356.5892L13354.956,-3356.5847L13354.9805,-3356.5843"/>
<path content="1,高知県交通（株）,土佐塾校,1.2,1.3,1.2," xlink:title="1" d="M13354.456,-3356.7461L13354.5423,-3356.7493"/>
<path content="1,高知県交通（株）,土佐塾校,1.2,1.3,1.2," xlink:title="1" d="M13354.5423,-3356.7493L13354.5432,-3356.7087L13354.5191,-3356.6047"/>
<path content="1,高知県交通（株）,土佐塾校,1.2,1.3,1.2," xlink:title="1" d="M13354.9805,-3357.105L13354.9799,-3357.1044L13354.9553,-3357.0655L13354.9412,-3357.0452L13354.9217,-3357.0192L13354.9055,-3356.9939L13354.8749,-3356.9549L13354.8652,-3356.9366L13354.8511,-3356.9163L13354.8396,-3356.8835L13354.827,-3356.8823L13354.8086,-3356.8801L13354.7333,-3356.8778L13354.6302,-3356.8733L13354.5424,-3356.8703L13354.5416,-3356.8366L13354.5413,-3356.8153L13354.5409,-3356.8045L13354.5423,-3356.7493"/>
<path content="1,高知県交通（株）,天王ニュータウン,3.3,2.5,2.5," xlink:title="1" d="M13354.456,-3356.7461L13354.5423,-3356.7493"/>
<path content="1,高知県交通（株）,天王ニュータウン,3.3,2.5,2.5," xlink:title="1" d="M13354.5423,-3356.7493L13354.5432,-3356.7087L13354.5191,-3356.6047L13354.5186,-3356.5986L13354.4486,-3356.6031L13354.429,-3356.6026L13354.3995,-3356.6022L13354.3628,-3356.6056L13354.3599,-3356.5791L13354.3555,-3356.5411L13354.3524,-3356.44L13354.3331,-3356.3601L13354.3317,-3356.3543L13354.3332,-3356.3232"/>
<path content="1,高知県交通（株）,天王ニュータウン,3.3,2.5,2.5," xlink:title="1" d="M13354.9805,-3357.105L13354.9799,-3357.1044L13354.9553,-3357.0655L13354.9412,-3357.0452L13354.9217,-3357.0192L13354.9055,-3356.9939L13354.8749,-3356.9549L13354.8652,-3356.9366L13354.8511,-3356.9163L13354.8396,-3356.8835L13354.827,-3356.8823L13354.8086,-3356.8801L13354.7333,-3356.8778L13354.6302,-3356.8733L13354.5424,-3356.8703L13354.5416,-3356.8366L13354.5413,-3356.8153L13354.5409,-3356.8045L13354.5423,-3356.7493"/>
<path content="1,高知県交通（株）,孕橋,0.7,0.7,1.0," xlink:title="1" d="M13354.456,-3356.7461L13354.5423,-3356.7493"/>
<path content="1,高知県交通（株）,孕橋,0.7,0.7,1.0," xlink:title="1" d="M13354.5423,-3356.7493L13354.5432,-3356.7087L13354.5191,-3356.6047L13354.5186,-3356.5986L13354.4486,-3356.6031L13354.429,-3356.6026L13354.3995,-3356.6022L13354.3628,-3356.6056L13354.3599,-3356.5791L13354.3555,-3356.5411L13354.3524,-3356.44L13354.3331,-3356.3601L13354.3317,-3356.3543L13354.3332,-3356.3232"/>
<path content="1,高知県交通（株）,孕橋,0.7,0.7,1.0," xlink:title="1" d="M13354.9805,-3357.105L13354.9799,-3357.1044L13354.9553,-3357.0655L13354.9412,-3357.0452L13354.9217,-3357.0192L13354.9055,-3356.9939L13354.8749,-3356.9549L13354.8652,-3356.9366L13354.8511,-3356.9163L13354.8396,-3356.8835L13354.827,-3356.8823L13354.8086,-3356.8801L13354.7333,-3356.8778L13354.6302,-3356.8733L13354.5424,-3356.8703L13354.5416,-3356.8366L13354.5413,-3356.8153L13354.5409,-3356.8045L13354.5423,-3356.7493"/>
<path content="1,高知県交通（株）,宇佐,3.0,3.1,2.4," xlink:title="1" d="M13354.456,-3356.7461L13354.5423,-3356.7493"/>
<path content="1,高知県交通（株）,宇佐,3.0,3.1,2.4," xlink:title="1" d="M13354.5423,-3356.7493L13354.5432,-3356.7087L13354.5191,-3356.6047L13354.5186,-3356.5986L13354.4486,-3356.6031L13354.429,-3356.6026L13354.3995,-3356.6022L13354.3628,-3356.6056L13354.3599,-3356.5791L13354.3555,-3356.5411L13354.3524,-3356.44L13354.3331,-3356.3601L13354.3317,-3356.3543L13354.3332,-3356.3232"/>
<path content="1,高知県交通（株）,宇佐,3.0,3.1,2.4," xlink:title="1" d="M13354.9805,-3357.105L13354.9799,-3357.1044L13354.9553,-3357.0655L13354.9412,-3357.0452L13354.9217,-3357.0192L13354.9055,-3356.9939L13354.8749,-3356.9549L13354.8652,-3356.9366L13354.8511,-3356.9163L13354.8396,-3356.8835L13354.827,-3356.8823L13354.8086,-3356.8801L13354.7333,-3356.8778L13354.6302,-3356.8733L13354.5424,-3356.8703L13354.5416,-3356.8366L13354.5413,-3356.8153L13354.5409,-3356.8045L13354.5423,-3356.7493"/>
<path content="1,高知県交通（株）,市野々,1.7,1.4,1.2," xlink:title="1" d="M13354.456,-3356.7461L13354.5423,-3356.7493"/>
<path content="1,高知県交通（株）,市野々,1.7,1.4,1.2," xlink:title="1" d="M13354.5423,-3356.7493L13354.5432,-3356.7087L13354.5191,-3356.6047L13354.5186,-3356.5986L13354.4486,-3356.6031L13354.429,-3356.6026L13354.3995,-3356.6022L13354.3628,-3356.6056L13354.3599,-3356.5791L13354.3555,-3356.5411L13354.3524,-3356.44L13354.3331,-3356.3601L13354.3317,-3356.3543L13354.3332,-3356.3232"/>
<path content="1,高知県交通（株）,市野々,1.7,1.4,1.2," xlink:title="1" d="M13354.9805,-3357.105L13354.9799,-3357.1044L13354.9553,-3357.0655L13354.9412,-3357.0452L13354.9217,-3357.0192L13354.9055,-3356.9939L13354.8749,-3356.9549L13354.8652,-3356.9366L13354.8511,-3356.9163L13354.8396,-3356.8835L13354.827,-3356.8823L13354.8086,-3356.8801L13354.7333,-3356.8778L13354.6302,-3356.8733L13354.5424,-3356.8703L13354.5416,-3356.8366L13354.5413,-3356.8153L13354.5409,-3356.8045L13354.5423,-3356.7493"/>
<path content="1,高知県交通（株）,旭駅構内,1.0,0.0,0.0," xlink:title="1" d="M13354.9805,-3356.5843L13354.956,-3356.5847L13354.8687,-3356.5892L13354.7696,-3356.5937L13354.7138,-3356.596L13354.6519,-3356.5988L13354.5858,-3356.6028L13354.5191,-3356.6047L13354.5186,-3356.5986L13354.4486,-3356.6031L13354.3995,-3356.6022L13354.3628,-3356.6056L13354.3599,-3356.5791L13354.3555,-3356.5411L13354.3524,-3356.44L13354.3331,-3356.3601L13354.3317,-3356.3543L13354.3332,-3356.3232"/>
<path content="1,高知県交通（株）,東高校,2.2,0.0,0.0," xlink:title="1" d="M13354.5191,-3356.6047L13354.5186,-3356.5986L13354.4486,-3356.6031L13354.429,-3356.6026L13354.3995,-3356.6022L13354.3628,-3356.6056L13354.3599,-3356.5791L13354.3555,-3356.5411L13354.3524,-3356.44L13354.3331,-3356.3601L13354.3317,-3356.3543L13354.3332,-3356.3232"/>
<path content="1,高知県交通（株）,東高校,2.2,0.0,0.0," xlink:title="1" d="M13354.456,-3356.7461L13354.5423,-3356.7493"/>
<path content="1,高知県交通（株）,東高校,2.2,0.0,0.0," xlink:title="1" d="M13354.5423,-3356.7493L13354.5432,-3356.7087L13354.5191,-3356.6047"/>
<path content="1,高知県交通（株）,東高校,2.2,0.0,0.0," xlink:title="1" d="M13354.9805,-3357.105L13354.9799,-3357.1044L13354.9553,-3357.0655L13354.9412,-3357.0452L13354.9217,-3357.0192L13354.9055,-3356.9939L13354.8749,-3356.9549L13354.8652,-3356.9366L13354.8511,-3356.9163L13354.8396,-3356.8835L13354.827,-3356.8823L13354.8086,-3356.8801L13354.7333,-3356.8778L13354.6302,-3356.8733L13354.5424,-3356.8703L13354.5416,-3356.8366L13354.5413,-3356.8153L13354.5409,-3356.8045L13354.5423,-3356.7493"/>
<path content="1,高知県交通（株）,東高校,2.2,0.0,0.0," xlink:title="1" d="M13354.9805,-3356.5843L13354.956,-3356.5847L13354.8687,-3356.5892L13354.7696,-3356.5937L13354.7138,-3356.596L13354.6519,-3356.5988L13354.5858,-3356.6028L13354.5191,-3356.6047"/>
<path content="1,高知県交通（株）,桂浜,2.3,2.2,2.2," xlink:title="1" d="M13354.456,-3356.7461L13354.5423,-3356.7493"/>
<path content="1,高知県交通（株）,桂浜,2.3,2.2,2.2," xlink:title="1" d="M13354.5423,-3356.7493L13354.5432,-3356.7087L13354.5191,-3356.6047L13354.5186,-3356.5986L13354.4486,-3356.6031L13354.429,-3356.6026L13354.3995,-3356.6022L13354.3628,-3356.6056L13354.3599,-3356.5791L13354.3555,-3356.5411L13354.3524,-3356.44L13354.3331,-3356.3601L13354.3317,-3356.3543L13354.3332,-3356.3232"/>
<path content="1,高知県交通（株）,桂浜,2.3,2.2,2.2," xlink:title="1" d="M13354.9805,-3357.105L13354.9799,-3357.1044L13354.9553,-3357.0655L13354.9412,-3357.0452L13354.9217,-3357.0192L13354.9055,-3356.9939L13354.8749,-3356.9549L13354.8652,-3356.9366L13354.8511,-3356.9163L13354.8396,-3356.8835L13354.827,-3356.8823L13354.8086,-3356.8801L13354.7333,-3356.8778L13354.6302,-3356.8733L13354.5424,-3356.8703L13354.5416,-3356.8366L13354.5413,-3356.8153L13354.5409,-3356.8045L13354.5423,-3356.7493"/>
<path content="1,高知県交通（株）,歴民資料館,3.0,2.0,2.0," xlink:title="1" d="M13354.9805,-3356.5843L13354.956,-3356.5847L13354.8687,-3356.5892L13354.7696,-3356.5937L13354.7138,-3356.596L13354.6519,-3356.5988L13354.5858,-3356.6028L13354.5191,-3356.6047L13354.5186,-3356.5986L13354.4486,-3356.6031L13354.429,-3356.6026L13354.3995,-3356.6022L13354.3628,-3356.6056L13354.3599,-3356.5791L13354.3555,-3356.5411L13354.3524,-3356.44L13354.3331,-3356.3601L13354.3317,-3356.3543L13354.3332,-3356.3232"/>
<path content="1,高知県交通（株）,田井,4.0,4.0,4.0," xlink:title="1" d="M13354.3332,-3356.3232L13354.3317,-3356.3543L13354.3331,-3356.3601L13354.3524,-3356.44L13354.3555,-3356.5411L13354.3599,-3356.5791L13354.3628,-3356.6056L13354.3995,-3356.6022L13354.429,-3356.6026L13354.4486,-3356.6031L13354.5186,-3356.5986L13354.5191,-3356.6047"/>
<path content="1,高知県交通（株）,田井,4.0,4.0,4.0," xlink:title="1" d="M13354.5191,-3356.6047L13354.5432,-3356.7087L13354.5423,-3356.7493"/>
<path content="1,高知県交通（株）,田井,4.0,4.0,4.0," xlink:title="1" d="M13354.5191,-3356.6047L13354.5858,-3356.6028L13354.6519,-3356.5988L13354.7138,-3356.596L13354.7696,-3356.5937L13354.8687,-3356.5892L13354.956,-3356.5847L13354.9805,-3356.5843"/>
<path content="1,高知県交通（株）,田井,4.0,4.0,4.0," xlink:title="1" d="M13354.456,-3356.7461L13354.5423,-3356.7493"/>
<path content="1,高知県交通（株）,田井,4.0,4.0,4.0," xlink:title="1" d="M13354.5423,-3356.7493L13354.5409,-3356.8045L13354.5413,-3356.8153L13354.5416,-3356.8366L13354.5424,-3356.8703L13354.6302,-3356.8733L13354.7333,-3356.8778L13354.8086,-3356.8801L13354.827,-3356.8823L13354.8396,-3356.8835L13354.8501,-3356.8852L13354.8584,-3356.8863L13354.8967,-3356.8936L13354.9445,-3356.9009L13354.956,-3356.9032L13354.9805,-3356.9065"/>
<path content="1,高知県交通（株）,県庁前,3.4,3.3,3.0," xlink:title="1" d="M13354.5191,-3356.6047L13354.5186,-3356.5986L13354.4486,-3356.6031L13354.429,-3356.6026L13354.3995,-3356.6022L13354.3628,-3356.6056L13354.3599,-3356.5791L13354.3555,-3356.5411L13354.3524,-3356.44L13354.3331,-3356.3601L13354.3317,-3356.3543L13354.3332,-3356.3232"/>
<path content="1,高知県交通（株）,県庁前,3.4,3.3,3.0," xlink:title="1" d="M13354.5191,-3356.6047L13354.5432,-3356.7087L13354.5423,-3356.7493"/>
<path content="1,高知県交通（株）,県庁前,3.4,3.3,3.0," xlink:title="1" d="M13354.456,-3356.7461L13354.5423,-3356.7493"/>
<path content="1,高知県交通（株）,県庁前,3.4,3.3,3.0," xlink:title="1" d="M13354.5423,-3356.7493L13354.5409,-3356.8045L13354.5413,-3356.8153L13354.5416,-3356.8366L13354.5424,-3356.8703L13354.6302,-3356.8733L13354.7333,-3356.8778L13354.8086,-3356.8801L13354.827,-3356.8823L13354.8396,-3356.8835"/>
<path content="1,高知県交通（株）,県庁前,3.4,3.3,3.0," xlink:title="1" d="M13354.8396,-3356.8835L13354.8501,-3356.8852L13354.8584,-3356.8863L13354.8967,-3356.8936L13354.9445,-3356.9009L13354.956,-3356.9032L13354.9805,-3356.9065"/>
<path content="1,高知県交通（株）,県庁前,3.4,3.3,3.0," xlink:title="1" d="M13354.8396,-3356.8835L13354.8511,-3356.9163L13354.8652,-3356.9366L13354.8749,-3356.9549L13354.9055,-3356.9939L13354.9217,-3357.0192L13354.9412,-3357.0452L13354.9553,-3357.0655L13354.9799,-3357.1044L13354.9805,-3357.105"/>
<path content="1,高知県交通（株）,県庁前,3.4,3.3,3.0," xlink:title="1" d="M13354.9805,-3356.5843L13354.956,-3356.5847L13354.8687,-3356.5892L13354.7696,-3356.5937L13354.7138,-3356.596L13354.6519,-3356.5988L13354.5858,-3356.6028L13354.5191,-3356.6047"/>
<path content="1,高知県交通（株）,船岡南団地,3.5,3.5,2.5," xlink:title="1" d="M13354.9805,-3356.5843L13354.956,-3356.5847L13354.8687,-3356.5892L13354.7696,-3356.5937L13354.7138,-3356.596L13354.6519,-3356.5988L13354.5858,-3356.6028L13354.5191,-3356.6047L13354.5186,-3356.5986L13354.4486,-3356.6031L13354.429,-3356.6026L13354.3995,-3356.6022L13354.3628,-3356.6056L13354.3599,-3356.5791L13354.3555,-3356.5411L13354.3524,-3356.44L13354.3331,-3356.3601L13354.3317,-3356.3543L13354.3332,-3356.3232"/>
<path content="1,高知県交通（株）,蒲原,1.0,0.5,0.5," xlink:title="1" d="M13354.456,-3356.7461L13354.5423,-3356.7493"/>
<path content="1,高知県交通（株）,蒲原,1.0,0.5,0.5," xlink:title="1" d="M13354.5423,-3356.7493L13354.5432,-3356.7087L13354.5191,-3356.6047L13354.5186,-3356.5986L13354.4486,-3356.6031L13354.429,-3356.6026L13354.3995,-3356.6022L13354.3628,-3356.6056L13354.3599,-3356.5791L13354.3555,-3356.5411L13354.3524,-3356.44L13354.3331,-3356.3601L13354.3317,-3356.3543L13354.3332,-3356.3232"/>
<path content="1,高知県交通（株）,蒲原,1.0,0.5,0.5," xlink:title="1" d="M13354.9805,-3357.105L13354.9799,-3357.1044L13354.9553,-3357.0655L13354.9412,-3357.0452L13354.9217,-3357.0192L13354.9055,-3356.9939L13354.8749,-3356.9549L13354.8652,-3356.9366L13354.8511,-3356.9163L13354.8396,-3356.8835L13354.827,-3356.8823L13354.8086,-3356.8801L13354.7333,-3356.8778L13354.6302,-3356.8733L13354.5424,-3356.8703L13354.5416,-3356.8366L13354.5413,-3356.8153L13354.5409,-3356.8045L13354.5423,-3356.7493"/>
<path content="1,高知県交通（株）,西の宮,1.0,0.0,0.0," xlink:title="1" d="M13354.5423,-3356.7493L13354.456,-3356.7461"/>
<path content="1,高知県交通（株）,西の宮,1.0,0.0,0.0," xlink:title="1" d="M13354.5423,-3356.7493L13354.5432,-3356.7087L13354.5191,-3356.6047L13354.5186,-3356.5986L13354.4486,-3356.6031L13354.429,-3356.6026L13354.3995,-3356.6022L13354.3628,-3356.6056L13354.3599,-3356.5791L13354.3555,-3356.5411L13354.3524,-3356.44L13354.3331,-3356.3601L13354.3317,-3356.3543L13354.3332,-3356.3232"/>
<path content="1,高知県交通（株）,西の宮,1.0,0.0,0.0," xlink:title="1" d="M13354.9805,-3357.105L13354.9799,-3357.1044L13354.9553,-3357.0655L13354.9412,-3357.0452L13354.9217,-3357.0192L13354.9055,-3356.9939L13354.8749,-3356.9549L13354.8652,-3356.9366L13354.8511,-3356.9163L13354.8396,-3356.8835L13354.827,-3356.8823L13354.8086,-3356.8801L13354.7333,-3356.8778L13354.6302,-3356.8733L13354.5424,-3356.8703L13354.5416,-3356.8366L13354.5413,-3356.8153L13354.5409,-3356.8045L13354.5423,-3356.7493"/>
<path content="1,高知県交通（株）,観月坂団地,3.4,1.8,1.8," xlink:title="1" d="M13354.3628,-3356.6056L13354.3599,-3356.5791L13354.3555,-3356.5411L13354.3524,-3356.44L13354.3331,-3356.3601L13354.3317,-3356.3543L13354.3332,-3356.3232"/>
<path content="1,高知県交通（株）,観月坂団地,3.4,1.8,1.8," xlink:title="1" d="M13353.8818,-3356.6269L13353.9149,-3356.6275L13353.9455,-3356.6287L13354.0424,-3356.6247L13354.0592,-3356.6247L13354.0686,-3356.6236L13354.0895,-3356.623L13354.1454,-3356.6191L13354.1501,-3356.6191L13354.1502,-3356.6191L13354.2933,-3356.6134L13354.3246,-3356.6099L13354.3628,-3356.6056"/>
<path content="1,高知県交通（株）,観月坂団地,3.4,1.8,1.8," xlink:title="1" d="M13354.456,-3356.7461L13354.5423,-3356.7493"/>
<path content="1,高知県交通（株）,観月坂団地,3.4,1.8,1.8," xlink:title="1" d="M13354.5423,-3356.7493L13354.5432,-3356.7087L13354.5191,-3356.6047L13354.5186,-3356.5986L13354.4486,-3356.6031L13354.429,-3356.6026L13354.3995,-3356.6022L13354.3628,-3356.6056"/>
<path content="1,高知県交通（株）,観月坂団地,3.4,1.8,1.8," xlink:title="1" d="M13354.9805,-3357.105L13354.9799,-3357.1044L13354.9553,-3357.0655L13354.9412,-3357.0452L13354.9217,-3357.0192L13354.9055,-3356.9939L13354.8749,-3356.9549L13354.8652,-3356.9366L13354.8511,-3356.9163L13354.8396,-3356.8835L13354.827,-3356.8823L13354.8086,-3356.8801L13354.7333,-3356.8778L13354.6302,-3356.8733L13354.5424,-3356.8703L13354.5416,-3356.8366L13354.5413,-3356.8153L13354.5409,-3356.8045L13354.5423,-3356.7493"/>
<path content="1,高知県交通（株）,長浜,1.0,0.0,0.0," xlink:title="1" d="M13354.456,-3356.7461L13354.5423,-3356.7493"/>
<path content="1,高知県交通（株）,長浜,1.0,0.0,0.0," xlink:title="1" d="M13354.5423,-3356.7493L13354.5432,-3356.7087L13354.5191,-3356.6047L13354.5186,-3356.5986L13354.4486,-3356.6031L13354.429,-3356.6026L13354.3995,-3356.6022L13354.3628,-3356.6056L13354.3599,-3356.5791L13354.3555,-3356.5411L13354.3524,-3356.44L13354.3331,-3356.3601L13354.3317,-3356.3543L13354.3332,-3356.3232"/>
<path content="1,高知県交通（株）,長浜,1.0,0.0,0.0," xlink:title="1" d="M13354.9805,-3357.105L13354.9799,-3357.1044L13354.9553,-3357.0655L13354.9412,-3357.0452L13354.9217,-3357.0192L13354.9055,-3356.9939L13354.8749,-3356.9549L13354.8652,-3356.9366L13354.8511,-3356.9163L13354.8396,-3356.8835L13354.827,-3356.8823L13354.8086,-3356.8801L13354.7333,-3356.8778L13354.6302,-3356.8733L13354.5424,-3356.8703L13354.5416,-3356.8366L13354.5413,-3356.8153L13354.5409,-3356.8045L13354.5423,-3356.7493"/>
<path content="1,高知県交通（株）,須崎,2.9,2.6,2.6," xlink:title="1" d="M13354.456,-3356.7461L13354.5423,-3356.7493"/>
<path content="1,高知県交通（株）,須崎,2.9,2.6,2.6," xlink:title="1" d="M13354.5423,-3356.7493L13354.5432,-3356.7087L13354.5191,-3356.6047L13354.5186,-3356.5986L13354.4486,-3356.6031L13354.429,-3356.6026L13354.3995,-3356.6022L13354.3628,-3356.6056L13354.3599,-3356.5791L13354.3555,-3356.5411L13354.3524,-3356.44L13354.3331,-3356.3601L13354.3317,-3356.3543L13354.3332,-3356.3232"/>
<path content="1,高知県交通（株）,須崎,2.9,2.6,2.6," xlink:title="1" d="M13354.9805,-3357.105L13354.9799,-3357.1044L13354.9553,-3357.0655L13354.9412,-3357.0452L13354.9217,-3357.0192L13354.9055,-3356.9939L13354.8749,-3356.9549L13354.8652,-3356.9366L13354.8511,-3356.9163L13354.8396,-3356.8835L13354.827,-3356.8823L13354.8086,-3356.8801L13354.7333,-3356.8778L13354.6302,-3356.8733L13354.5424,-3356.8703L13354.5416,-3356.8366L13354.5413,-3356.8153L13354.5409,-3356.8045L13354.5423,-3356.7493"/>
<path content="1,高知県交通（株）,領石,0.7,0.7,0.7," xlink:title="1" d="M13354.456,-3356.7461L13354.5423,-3356.7493"/>
<path content="1,高知県交通（株）,領石,0.7,0.7,0.7," xlink:title="1" d="M13354.5423,-3356.7493L13354.5432,-3356.7087L13354.5191,-3356.6047L13354.5186,-3356.5986L13354.4486,-3356.6031L13354.429,-3356.6026L13354.3995,-3356.6022L13354.3628,-3356.6056L13354.3599,-3356.5791L13354.3555,-3356.5411L13354.3524,-3356.44L13354.3331,-3356.3601L13354.3317,-3356.3543L13354.3332,-3356.3232"/>
<path content="1,高知県交通（株）,領石,0.7,0.7,0.7," xlink:title="1" d="M13354.9805,-3357.105L13354.9799,-3357.1044L13354.9553,-3357.0655L13354.9412,-3357.0452L13354.9217,-3357.0192L13354.9055,-3356.9939L13354.8749,-3356.9549L13354.8652,-3356.9366L13354.8511,-3356.9163L13354.8396,-3356.8835L13354.827,-3356.8823L13354.8086,-3356.8801L13354.7333,-3356.8778L13354.6302,-3356.8733L13354.5424,-3356.8703L13354.5416,-3356.8366L13354.5413,-3356.8153L13354.5409,-3356.8045L13354.5423,-3356.7493"/>
<path content="1,高知県交通（株）,高岡,1.7,1.8,1.7," xlink:title="1" d="M13354.3332,-3356.3232L13354.3317,-3356.3543L13354.3331,-3356.3601L13354.3524,-3356.44L13354.3555,-3356.5411L13354.3599,-3356.5791L13354.3628,-3356.6056L13354.3995,-3356.6022L13354.429,-3356.6026L13354.4486,-3356.6031L13354.5186,-3356.5986L13354.5191,-3356.6047L13354.5432,-3356.7087L13354.5423,-3356.7493"/>
<path content="1,高知県交通（株）,高岡,1.7,1.8,1.7," xlink:title="1" d="M13354.456,-3356.7461L13354.5423,-3356.7493"/>
<path content="1,高知県交通（株）,高岡,1.7,1.8,1.7," xlink:title="1" d="M13354.5423,-3356.7493L13354.5409,-3356.8045L13354.5413,-3356.8153L13354.5416,-3356.8366L13354.5424,-3356.8703L13354.6302,-3356.8733L13354.7333,-3356.8778L13354.8086,-3356.8801L13354.827,-3356.8823L13354.8396,-3356.8835L13354.8511,-3356.9163L13354.8652,-3356.9366L13354.8749,-3356.9549L13354.9055,-3356.9939L13354.9217,-3357.0192L13354.9412,-3357.0452L13354.9553,-3357.0655L13354.9799,-3357.1044L13354.9805,-3357.105"/>
<path content="1,高知県交通（株）,高岡（土佐道路）,2.8,1.7,1.7," xlink:title="1" d="M13354.456,-3356.7461L13354.5423,-3356.7493"/>
<path content="1,高知県交通（株）,高岡（土佐道路）,2.8,1.7,1.7," xlink:title="1" d="M13354.5423,-3356.7493L13354.5432,-3356.7087L13354.5191,-3356.6047L13354.5186,-3356.5986L13354.4486,-3356.6031L13354.429,-3356.6026L13354.3995,-3356.6022L13354.3628,-3356.6056L13354.3599,-3356.5791L13354.3555,-3356.5411L13354.3524,-3356.44L13354.3331,-3356.3601L13354.3317,-3356.3543L13354.3332,-3356.3232"/>
<path content="1,高知県交通（株）,高岡（土佐道路）,2.8,1.7,1.7," xlink:title="1" d="M13354.9805,-3357.105L13354.9799,-3357.1044L13354.9553,-3357.0655L13354.9412,-3357.0452L13354.9217,-3357.0192L13354.9055,-3356.9939L13354.8749,-3356.9549L13354.8652,-3356.9366L13354.8511,-3356.9163L13354.8396,-3356.8835L13354.827,-3356.8823L13354.8086,-3356.8801L13354.7333,-3356.8778L13354.6302,-3356.8733L13354.5424,-3356.8703L13354.5416,-3356.8366L13354.5413,-3356.8153L13354.5409,-3356.8045L13354.5423,-3356.7493"/>
<path content="1,高知県交通（株）,高知⇔京都線,2.0,2.0,2.0," xlink:title="1" d="M13354.456,-3356.7461L13354.5423,-3356.7493L13354.5409,-3356.8045L13354.5416,-3356.8366L13354.5424,-3356.8703L13354.6302,-3356.8733L13354.8086,-3356.8801L13354.8396,-3356.8835L13354.8021,-3356.6942L13354.7738,-3356.5926L13354.6519,-3356.5988L13354.5858,-3356.6028L13354.5191,-3356.6047L13354.5186,-3356.5986L13354.4486,-3356.6031L13354.429,-3356.6026L13354.3995,-3356.6022L13354.3628,-3356.6056L13354.3599,-3356.5791L13354.3555,-3356.5411L13354.3524,-3356.44L13354.3331,-3356.3601L13354.3317,-3356.3543L13354.3332,-3356.3232"/>
<path content="1,高知県交通（株）,高知徳島エクスプレス　高知⇔徳島線,4.0,4.0,4.0," xlink:title="1" d="M13354.456,-3356.7461L13354.5423,-3356.7493L13354.5409,-3356.8045L13354.5416,-3356.8366L13354.5424,-3356.8703L13354.6302,-3356.8733L13354.8086,-3356.8801L13354.8396,-3356.8835L13354.8021,-3356.6942L13354.7738,-3356.5926L13354.6519,-3356.5988L13354.5858,-3356.6028L13354.5191,-3356.6047L13354.5186,-3356.5986L13354.4486,-3356.6031L13354.429,-3356.6026L13354.3995,-3356.6022L13354.3628,-3356.6056L13354.3599,-3356.5791L13354.3555,-3356.5411L13354.3524,-3356.44L13354.3331,-3356.3601L13354.3317,-3356.3543L13354.3332,-3356.3232"/>
<path content="1,高知県交通（株）,鳥越,2.6,2.2,2.1," xlink:title="1" d="M13354.456,-3356.7461L13354.5423,-3356.7493"/>
<path content="1,高知県交通（株）,鳥越,2.6,2.2,2.1," xlink:title="1" d="M13354.5423,-3356.7493L13354.5432,-3356.7087L13354.5191,-3356.6047L13354.5186,-3356.5986L13354.4486,-3356.6031L13354.429,-3356.6026L13354.3995,-3356.6022L13354.3628,-3356.6056L13354.3599,-3356.5791L13354.3555,-3356.5411L13354.3524,-3356.44L13354.3331,-3356.3601L13354.3317,-3356.3543L13354.3332,-3356.3232"/>
<path content="1,高知県交通（株）,鳥越,2.6,2.2,2.1," xlink:title="1" d="M13354.9805,-3357.105L13354.9799,-3357.1044L13354.9553,-3357.0655L13354.9412,-3357.0452L13354.9217,-3357.0192L13354.9055,-3356.9939L13354.8749,-3356.9549L13354.8652,-3356.9366L13354.8511,-3356.9163L13354.8396,-3356.8835L13354.827,-3356.8823L13354.8086,-3356.8801L13354.7333,-3356.8778L13354.6302,-3356.8733L13354.5424,-3356.8703L13354.5416,-3356.8366L13354.5413,-3356.8153L13354.5409,-3356.8045L13354.5423,-3356.7493"/>
<path content="1,高知県交通（株）,黒潮エクスプレス　高知⇔高松線,13.0,13.0,13.0," xlink:title="1" d="M13354.456,-3356.7461L13354.5423,-3356.7493L13354.5409,-3356.8045L13354.5416,-3356.8366L13354.5424,-3356.8703L13354.6302,-3356.8733L13354.8086,-3356.8801L13354.8396,-3356.8835L13354.8021,-3356.6942L13354.7738,-3356.5926L13354.6519,-3356.5988L13354.5858,-3356.6028L13354.5191,-3356.6047L13354.5186,-3356.5986L13354.4486,-3356.6031L13354.429,-3356.6026L13354.3995,-3356.6022L13354.3628,-3356.6056L13354.3599,-3356.5791L13354.3555,-3356.5411L13354.3524,-3356.44L13354.3331,-3356.3601L13354.3317,-3356.3543L13354.3332,-3356.3232"/>
<path content="1,高知県交通（株）,龍馬エクスプレス　高知⇔岡山線,9.0,9.0,9.0," xlink:title="1" d="M13354.456,-3356.7461L13354.5423,-3356.7493L13354.5429,-3356.722L13354.558,-3356.7198L13354.6022,-3356.711L13354.6539,-3356.7049L13354.7502,-3356.6975L13354.8021,-3356.6942L13354.7738,-3356.5926L13354.6519,-3356.5988L13354.5858,-3356.6028L13354.5191,-3356.6047L13354.5186,-3356.5986L13354.4486,-3356.6031L13354.429,-3356.6026L13354.3995,-3356.6022L13354.3628,-3356.6056L13354.3599,-3356.5791L13354.3555,-3356.5411L13354.3524,-3356.44L13354.3331,-3356.3601L13354.3317,-3356.3543L13354.3332,-3356.3232"/>
<path content="1,（株）中国バス,山陰・四国　高知線,1.0,1.0,1.0," xlink:title="1" d="M13354.4486,-3356.6031L13354.3666,-3356.6063L13354.3319,-3356.3232"/>
<path content="1,（株）県交北部交通,円行寺,2.0,2.0,2.0," xlink:title="1" d="M13354.5423,-3356.7493L13354.456,-3356.7461"/>
<path content="1,（株）県交北部交通,円行寺,2.0,2.0,2.0," xlink:title="1" d="M13354.5423,-3356.7493L13354.5432,-3356.7087L13354.5191,-3356.6047L13354.5186,-3356.5986L13354.4486,-3356.6031L13354.429,-3356.6026L13354.3995,-3356.6022L13354.3628,-3356.6056L13354.3599,-3356.5791L13354.3555,-3356.5411L13354.3524,-3356.44L13354.3331,-3356.3601L13354.3317,-3356.3543L13354.3332,-3356.3232"/>
<path content="1,（株）県交北部交通,円行寺,2.0,2.0,2.0," xlink:title="1" d="M13354.9805,-3357.105L13354.9799,-3357.1044L13354.9553,-3357.0655L13354.9412,-3357.0452L13354.9217,-3357.0192L13354.9055,-3356.9939L13354.8749,-3356.9549L13354.8652,-3356.9366L13354.8511,-3356.9163L13354.8396,-3356.8835L13354.827,-3356.8823L13354.8086,-3356.8801L13354.7333,-3356.8778L13354.7138,-3356.8761L13354.6714,-3356.8756L13354.6458,-3356.8739L13354.6302,-3356.8733L13354.6169,-3356.8733L13354.6001,-3356.8722L13354.5424,-3356.8703L13354.5416,-3356.8366L13354.5413,-3356.8153L13354.5409,-3356.8045L13354.5423,-3356.7493"/>
<path content="1,（株）県交北部交通,吾北柳の瀬,2.5,2.5,2.5," xlink:title="1" d="M13354.5423,-3356.7493L13354.456,-3356.7461"/>
<path content="1,（株）県交北部交通,吾北柳の瀬,2.5,2.5,2.5," xlink:title="1" d="M13354.5423,-3356.7493L13354.5409,-3356.8045L13354.5413,-3356.8153L13354.5416,-3356.8366L13354.5424,-3356.8703L13354.6001,-3356.8722L13354.6169,-3356.8733L13354.6302,-3356.8733L13354.6458,-3356.8739L13354.6714,-3356.8756L13354.7138,-3356.8761L13354.7333,-3356.8778L13354.8086,-3356.8801L13354.827,-3356.8823L13354.8396,-3356.8835L13354.8511,-3356.9163L13354.8652,-3356.9366L13354.8749,-3356.9549L13354.9055,-3356.9939L13354.9217,-3357.0192L13354.9412,-3357.0452L13354.9553,-3357.0655L13354.9799,-3357.1044L13354.9805,-3357.105"/>
<path content="1,（株）県交北部交通,吾北柳の瀬,2.5,2.5,2.5," xlink:title="1" d="M13354.3332,-3356.3232L13354.3317,-3356.3543L13354.3331,-3356.3601L13354.3524,-3356.44L13354.3555,-3356.5411L13354.3599,-3356.5791L13354.3628,-3356.6056L13354.3995,-3356.6022L13354.429,-3356.6026L13354.4486,-3356.6031L13354.5186,-3356.5986L13354.5191,-3356.6047L13354.5432,-3356.7087L13354.5423,-3356.7493"/>
<path content="1,（株）県交北部交通,春野,2.0,2.0,2.0," xlink:title="1" d="M13354.5423,-3356.7493L13354.456,-3356.7461"/>
<path content="1,（株）県交北部交通,春野,2.0,2.0,2.0," xlink:title="1" d="M13354.5423,-3356.7493L13354.5432,-3356.7087L13354.5191,-3356.6047L13354.5186,-3356.5986L13354.4486,-3356.6031L13354.429,-3356.6026L13354.3995,-3356.6022L13354.3628,-3356.6056L13354.3599,-3356.5791L13354.3555,-3356.5411L13354.3524,-3356.44L13354.3331,-3356.3601L13354.3317,-3356.3543L13354.3332,-3356.3232"/>
<path content="1,（株）県交北部交通,春野,2.0,2.0,2.0," xlink:title="1" d="M13354.9805,-3357.105L13354.9799,-3357.1044L13354.9553,-3357.0655L13354.9412,-3357.0452L13354.9217,-3357.0192L13354.9055,-3356.9939L13354.8749,-3356.9549L13354.8652,-3356.9366L13354.8511,-3356.9163L13354.8396,-3356.8835L13354.827,-3356.8823L13354.8086,-3356.8801L13354.7333,-3356.8778L13354.7138,-3356.8761L13354.6714,-3356.8756L13354.6458,-3356.8739L13354.6302,-3356.8733L13354.6169,-3356.8733L13354.6001,-3356.8722L13354.5424,-3356.8703L13354.5416,-3356.8366L13354.5413,-3356.8153L13354.5409,-3356.8045L13354.5423,-3356.7493"/>
<path content="1,（株）県交北部交通,正連寺,6.0,6.0,6.0," xlink:title="1" d="M13354.3332,-3356.3232L13354.3317,-3356.3543L13354.3524,-3356.44L13354.3555,-3356.5411L13354.3599,-3356.5791L13354.3628,-3356.6056"/>
<path content="1,（株）県交北部交通,正連寺,6.0,6.0,6.0," xlink:title="1" d="M13354.3628,-3356.6056L13354.3246,-3356.6099L13354.2933,-3356.6134L13354.1502,-3356.6191L13354.1501,-3356.6191L13354.1454,-3356.6191L13354.0895,-3356.623L13354.0686,-3356.6236L13354.0592,-3356.6247L13354.0424,-3356.6247L13353.9455,-3356.6287L13353.9149,-3356.6275L13353.8818,-3356.6269"/>
<path content="1,（株）県交北部交通,正連寺,6.0,6.0,6.0," xlink:title="1" d="M13354.9805,-3356.5843L13354.956,-3356.5847L13354.8687,-3356.5892L13354.7696,-3356.5937L13354.7138,-3356.596L13354.6519,-3356.5988L13354.5858,-3356.6028L13354.5191,-3356.6047L13354.5186,-3356.5986L13354.4486,-3356.6031L13354.3995,-3356.6022L13354.3628,-3356.6056"/>
<path content="1,（株）県交北部交通,鏡　川口,20.8,20.8,20.8," xlink:title="1" d="M13354.5423,-3356.7493L13354.456,-3356.7461"/>
<path content="1,（株）県交北部交通,鏡　川口,20.8,20.8,20.8," xlink:title="1" d="M13354.5423,-3356.7493L13354.5432,-3356.7087L13354.5191,-3356.6047L13354.5186,-3356.5986L13354.4486,-3356.6031L13354.429,-3356.6026L13354.3995,-3356.6022L13354.3628,-3356.6056L13354.3599,-3356.5791L13354.3555,-3356.5411L13354.3524,-3356.44L13354.3331,-3356.3601L13354.3317,-3356.3543L13354.3332,-3356.3232"/>
<path content="1,（株）県交北部交通,鏡　川口,20.8,20.8,20.8," xlink:title="1" d="M13354.9805,-3357.105L13354.9799,-3357.1044L13354.9553,-3357.0655L13354.9412,-3357.0452L13354.9217,-3357.0192L13354.9055,-3356.9939L13354.8749,-3356.9549L13354.8652,-3356.9366L13354.8511,-3356.9163L13354.8396,-3356.8835L13354.827,-3356.8823L13354.8086,-3356.8801L13354.7333,-3356.8778L13354.7138,-3356.8761L13354.6714,-3356.8756L13354.6458,-3356.8739L13354.6302,-3356.8733L13354.6169,-3356.8733L13354.6001,-3356.8722L13354.5424,-3356.8703L13354.5416,-3356.8366L13354.5413,-3356.8153L13354.5409,-3356.8045L13354.5423,-3356.7493"/>
<path content="1,（株）県交北部交通,鏡岩,3.0,3.0,3.0," xlink:title="1" d="M13354.3332,-3356.3232L13354.3317,-3356.3543L13354.3331,-3356.3601L13354.3524,-3356.44L13354.3555,-3356.5411L13354.3599,-3356.5791L13354.3628,-3356.6056L13354.3995,-3356.6022L13354.429,-3356.6026L13354.4486,-3356.6031L13354.5186,-3356.5986L13354.5191,-3356.6047L13354.5432,-3356.7087L13354.5423,-3356.7493"/>
<path content="1,（株）県交北部交通,鏡岩,3.0,3.0,3.0," xlink:title="1" d="M13354.456,-3356.7461L13354.5423,-3356.7493"/>
<path content="1,（株）県交北部交通,鏡岩,3.0,3.0,3.0," xlink:title="1" d="M13354.5423,-3356.7493L13354.5409,-3356.8045L13354.5413,-3356.8153L13354.5416,-3356.8366L13354.5424,-3356.8703L13354.6001,-3356.8722L13354.6169,-3356.8733L13354.6302,-3356.8733L13354.6458,-3356.8739L13354.6714,-3356.8756L13354.7138,-3356.8761L13354.7333,-3356.8778L13354.8086,-3356.8801L13354.827,-3356.8823L13354.8396,-3356.8835L13354.8511,-3356.9163L13354.8652,-3356.9366L13354.8749,-3356.9549L13354.9055,-3356.9939L13354.9217,-3357.0192L13354.9412,-3357.0452L13354.9553,-3357.0655L13354.9799,-3357.1044L13354.9805,-3357.105"/>
<path content="1,（株）高知駅前観光,朝倉-高知龍馬空港線,20.0,20.0,20.0," xlink:title="1" d="M13354.3332,-3356.3232L13354.3317,-3356.3543L13354.3331,-3356.3601L13354.3524,-3356.44L13354.3555,-3356.5411L13354.3599,-3356.5791L13354.3628,-3356.6056L13354.3995,-3356.6022L13354.4486,-3356.6031L13354.5186,-3356.5986L13354.5191,-3356.6047L13354.5432,-3356.7087L13354.5423,-3356.7493L13354.456,-3356.7461L13354.4097,-3356.7436L13354.4078,-3356.7631"/>
<path content="3,高知市,右回りコース,15.0,13.0,13.0," xlink:title="3" d="M13354.3628,-3356.6056L13354.3599,-3356.5791L13354.3555,-3356.5411L13354.3524,-3356.44L13354.3331,-3356.3601L13354.3317,-3356.3543L13354.3332,-3356.3232M13353.8818,-3356.6269L13353.9149,-3356.6275L13353.9455,-3356.6287L13354.0424,-3356.6247L13354.0592,-3356.6247L13354.0686,-3356.6236L13354.0895,-3356.623L13354.1454,-3356.6191L13354.1501,-3356.6191L13354.1502,-3356.6191L13354.2933,-3356.6134L13354.3246,-3356.6099L13354.3628,-3356.6056"/>
<path content="3,高知市,右回りコース,15.0,13.0,13.0," xlink:title="3" d="M13354.356,-3356.6547L13354.3628,-3356.6056"/>
<path content="3,高知市,左回りコース,15.0,14.0,14.0," xlink:title="3" d="M13354.3628,-3356.6056L13354.3599,-3356.5791L13354.3555,-3356.5411L13354.3524,-3356.44L13354.3331,-3356.3601L13354.3317,-3356.3543L13354.3332,-3356.3232M13353.8818,-3356.6269L13353.9149,-3356.6275L13353.9455,-3356.6287L13354.0424,-3356.6247L13354.0592,-3356.6247L13354.0686,-3356.6236L13354.0895,-3356.623L13354.1454,-3356.6191L13354.1501,-3356.6191L13354.1502,-3356.6191L13354.2933,-3356.6134L13354.3246,-3356.6099L13354.3628,-3356.6056"/>
<path content="3,高知市,左回りコース,15.0,14.0,14.0," xlink:title="3" d="M13354.356,-3356.6547L13354.3628,-3356.6056"/>
</g>
</svg>
