<?xml version="1.0" encoding="UTF-8"?>
<svg  xmlns="http://www.w3.org/2000/svg" xmlns:xlink="http://www.w3.org/1999/xlink" xmlns:go="http://purl.org/svgmap/profile" property="N07_001,N07_002,N07_003,N07_004,N07_005,N07_006,N07_007" viewBox="13730.712890625 -3485.9619140625 1.0986328125 1.0986328125" go:dataArea="13730.712890625 -3485.9619140625 1.0986328125 1.0986328125" >
<metadata>
 <rdf:RDF xmlns:rdf="http://www.w3.org/1999/02/22-rdf-syntax-ns#" xmlns:crs="http://opengis.org/xmldtds/transformations.dtd" xmlns:svg="http://www.w3.org/svg" >
  <rdf:Description>
   <crs:CoordinateReferenceSystem rdf:resource="http://purl.org/crs/84" svg:transform="matrix(100.0,0.0,0.0,-100.0,0.0,0.0)" />
  </rdf:Description>
 </rdf:RDF>
</metadata>
<globalCoordinateSystem srsName="http://purl.org/crs/84" transform="matrix(100.0,0.0,0.0,-100.0,0.0,0.0)" />
<defs>
 <g id="p0" >
  <circle cx="0.0" cy="0.0" r="3" stroke="green" stroke-width="0.75" vector-effect="non-scaling-stroke" />
 </g>
</defs>
<g fill="none" fill-rule="evenodd" stroke="#FF00FF" stroke-width="0.75" opacity="0.5" vector-effect="non-scaling-stroke" stroke-linejoin="bevel" >
<path content="3,豊川市,萩・長沢線,6.0,6.0,6.0," xlink:title="3" d="M13730.9991,-3485.7211L13730.9656,-3485.7532L13730.8707,-3485.84L13730.8556,-3485.8535L13730.8112,-3485.8896L13730.7661,-3485.929L13730.7514,-3485.9399"/>
<path content="3,豊川市,萩・長沢線,6.0,6.0,6.0," xlink:title="3" d="M13730.9991,-3485.7211L13730.975,-3485.7029L13730.9151,-3485.6536L13730.8426,-3485.5956L13730.8263,-3485.5837L13730.7778,-3485.6226L13730.717,-3485.6721L13730.7129,-3485.6757"/>
<path content="3,豊川市,萩・長沢線,6.0,6.0,6.0," xlink:title="3" d="M13731.3103,-3485.9619L13731.3072,-3485.9594L13731.2443,-3485.9093L13731.2245,-3485.8935L13731.2204,-3485.8896L13731.215,-3485.8862L13731.2034,-3485.8761L13731.1583,-3485.843L13731.0484,-3485.7592L13731.0278,-3485.7426L13731.0032,-3485.724L13730.9991,-3485.7211"/>
<path content="3,豊川市,赤坂・赤坂台線,9.0,9.0,9.0," xlink:title="3" d="M13730.7129,-3485.4228L13730.7347,-3485.4249L13730.7737,-3485.4294L13730.8367,-3485.4467"/>
<path content="3,豊川市,赤坂・赤坂台線,9.0,9.0,9.0," xlink:title="3" d="M13730.8064,-3485.341L13730.758,-3485.3132L13730.7313,-3485.2948L13730.786,-3485.2446L13730.8426,-3485.2818L13730.842,-3485.2874L13730.8064,-3485.341"/>
<path content="3,豊川市,赤坂・赤坂台線,9.0,9.0,9.0," xlink:title="3" d="M13730.8367,-3485.4467L13730.8372,-3485.4418L13730.8549,-3485.4294L13730.8795,-3485.4069L13730.8816,-3485.4029L13730.8795,-3485.3979L13730.8618,-3485.3736L13730.8064,-3485.341"/>
<path content="3,豊川市,赤坂・赤坂台線,9.0,9.0,9.0," xlink:title="3" d="M13730.8367,-3485.4467L13730.8618,-3485.4531L13730.8884,-3485.4576L13730.9103,-3485.4621L13730.9171,-3485.4632L13730.9444,-3485.4869L13730.9201,-3485.5059L13730.8263,-3485.5837L13730.8426,-3485.5956L13730.9151,-3485.6536L13730.975,-3485.7029L13730.9991,-3485.7211"/>
<path content="3,豊川市,赤坂・赤坂台線,9.0,9.0,9.0," xlink:title="3" d="M13730.9991,-3485.7211L13731.0032,-3485.724L13731.0278,-3485.7426L13731.0484,-3485.7592L13731.1583,-3485.843L13731.2034,-3485.8761"/>
<path content="3,豊川市,赤坂・赤坂台線,9.0,9.0,9.0," xlink:title="3" d="M13730.9991,-3485.7211L13730.9656,-3485.7532L13730.8707,-3485.84L13730.8556,-3485.8535L13730.8112,-3485.8896L13730.7661,-3485.929L13730.7514,-3485.9399"/>
<path content="3,豊川市,赤坂・赤坂台線,9.0,9.0,9.0," xlink:title="3" d="M13731.2034,-3485.8761L13731.215,-3485.8626L13731.2741,-3485.7931L13731.2997,-3485.7646L13731.3113,-3485.7493L13731.329,-3485.7285L13731.3333,-3485.7239L13731.3389,-3485.7212L13731.3625,-3485.7161L13731.3864,-3485.7105L13731.4075,-3485.6791L13731.4588,-3485.6108L13731.5169,-3485.5291L13731.5818,-3485.439L13731.6856,-3485.488L13731.7238,-3485.4976L13731.7348,-3485.5004L13731.7409,-3485.5024L13731.7464,-3485.5052L13731.7536,-3485.5107L13731.7793,-3485.5317L13731.7904,-3485.5401L13731.7991,-3485.5449L13731.8051,-3485.5471L13731.8096,-3485.5482L13731.8115,-3485.5486"/>
<path content="3,豊川市,赤坂・赤坂台線,9.0,9.0,9.0," xlink:title="3" d="M13731.2034,-3485.8761L13731.215,-3485.8862L13731.2204,-3485.8896L13731.2245,-3485.8935L13731.2443,-3485.9093L13731.3072,-3485.9594L13731.3103,-3485.9619"/>
</g>
</svg>
