<?xml version="1.0" encoding="UTF-8"?>
<svg  xmlns="http://www.w3.org/2000/svg" xmlns:xlink="http://www.w3.org/1999/xlink" xmlns:go="http://purl.org/svgmap/profile" property="N07_001,N07_002,N07_003,N07_004,N07_005,N07_006,N07_007" viewBox="13715.33203125 -3501.3427734375 1.0986328125 1.0986328125" go:dataArea="13715.33203125 -3501.3427734375 1.0986328125 1.0986328125" >
<metadata>
 <rdf:RDF xmlns:rdf="http://www.w3.org/1999/02/22-rdf-syntax-ns#" xmlns:crs="http://opengis.org/xmldtds/transformations.dtd" xmlns:svg="http://www.w3.org/svg" >
  <rdf:Description>
   <crs:CoordinateReferenceSystem rdf:resource="http://purl.org/crs/84" svg:transform="matrix(100.0,0.0,0.0,-100.0,0.0,0.0)" />
  </rdf:Description>
 </rdf:RDF>
</metadata>
<globalCoordinateSystem srsName="http://purl.org/crs/84" transform="matrix(100.0,0.0,0.0,-100.0,0.0,0.0)" />
<defs>
 <g id="p0" >
  <circle cx="0.0" cy="0.0" r="3" stroke="green" stroke-width="0.75" vector-effect="non-scaling-stroke" />
 </g>
</defs>
<g fill="none" fill-rule="evenodd" stroke="#FF00FF" stroke-width="0.75" opacity="0.5" vector-effect="non-scaling-stroke" stroke-linejoin="bevel" >
<path content="1,名鉄バス（株）,岡崎市内線_05_on,61.0,48.0,46.5," xlink:title="1" d="M13715.332,-3500.6925L13715.3411,-3500.6912L13715.3863,-3500.6816L13715.4816,-3500.6624L13715.5127,-3500.6543L13715.5165,-3500.6518L13715.5336,-3500.6452L13715.6374,-3500.5915L13715.6614,-3500.5779L13715.6943,-3500.5622L13715.7182,-3500.5503L13715.7675,-3500.5222L13715.7908,-3500.5098L13715.8079,-3500.5002L13715.8442,-3500.4827L13715.877,-3500.4642L13715.9284,-3500.4371L13715.9479,-3500.4286L13715.9695,-3500.4191L13716.0269,-3500.3972L13716.0601,-3500.3866L13716.0605,-3500.3864L13716.1064,-3500.3741L13716.1358,-3500.3684L13716.1474,-3500.3673L13716.168,-3500.3641L13716.1776,-3500.3634L13716.181,-3500.3628L13716.2268,-3500.3593L13716.2399,-3500.3583L13716.2636,-3500.3585L13716.2713,-3500.3586L13716.3221,-3500.3588L13716.3705,-3500.3591L13716.3959,-3500.3592L13716.4026,-3500.3592L13716.4307,-3500.3592"/>
<path content="1,名鉄バス（株）,岡崎市内線_06_on,61.0,48.0,46.5," xlink:title="1" d="M13715.332,-3500.6925L13715.3411,-3500.6912L13715.3863,-3500.6816L13715.4816,-3500.6624L13715.5127,-3500.6543L13715.5165,-3500.6518L13715.5336,-3500.6452L13715.6374,-3500.5915L13715.6614,-3500.5779L13715.6943,-3500.5622L13715.7182,-3500.5503L13715.7675,-3500.5222L13715.7908,-3500.5098L13715.8079,-3500.5002L13715.8442,-3500.4827L13715.877,-3500.4642L13715.9284,-3500.4371L13715.9479,-3500.4286L13715.9695,-3500.4191L13716.0269,-3500.3972L13716.0601,-3500.3866L13716.0605,-3500.3864L13716.1064,-3500.3741L13716.1358,-3500.3684L13716.1474,-3500.3673L13716.168,-3500.3641L13716.1776,-3500.3634L13716.181,-3500.3628L13716.2268,-3500.3593L13716.2399,-3500.3583L13716.2636,-3500.3585L13716.2713,-3500.3586L13716.3221,-3500.3588L13716.3705,-3500.3591L13716.3959,-3500.3592L13716.4026,-3500.3592L13716.4307,-3500.3592"/>
<path content="1,名鉄バス（株）,岡崎市内線_07_on,61.0,48.0,46.5," xlink:title="1" d="M13715.332,-3500.6925L13715.3411,-3500.6912L13715.3863,-3500.6816L13715.4816,-3500.6624L13715.5127,-3500.6543L13715.5165,-3500.6518L13715.5336,-3500.6452L13715.6374,-3500.5915L13715.6614,-3500.5779L13715.6943,-3500.5622L13715.7182,-3500.5503L13715.7675,-3500.5222L13715.7908,-3500.5098L13715.8079,-3500.5002L13715.8442,-3500.4827L13715.877,-3500.4642L13715.9284,-3500.4371L13715.9479,-3500.4286L13715.9695,-3500.4191L13716.0269,-3500.3972L13716.0601,-3500.3866L13716.0605,-3500.3864L13716.1064,-3500.3741L13716.1358,-3500.3684L13716.1474,-3500.3673L13716.168,-3500.3641L13716.1776,-3500.3634L13716.181,-3500.3628L13716.2268,-3500.3593L13716.2399,-3500.3583L13716.2636,-3500.3585L13716.2713,-3500.3586L13716.3221,-3500.3588L13716.3705,-3500.3591L13716.3959,-3500.3592L13716.4026,-3500.3592L13716.4307,-3500.3592"/>
</g>
</svg>
