<?xml version="1.0" encoding="UTF-8"?>
<svg  xmlns="http://www.w3.org/2000/svg" xmlns:xlink="http://www.w3.org/1999/xlink" xmlns:go="http://purl.org/svgmap/profile" property="N07_001,N07_002,N07_003,N07_004,N07_005,N07_006,N07_007" viewBox="13974.06005859375 -3568.084716796875 0.274658203125 0.274658203125" go:dataArea="13974.06005859375 -3568.084716796875 0.274658203125 0.274658203125" >
<metadata>
 <rdf:RDF xmlns:rdf="http://www.w3.org/1999/02/22-rdf-syntax-ns#" xmlns:crs="http://opengis.org/xmldtds/transformations.dtd" xmlns:svg="http://www.w3.org/svg" >
  <rdf:Description>
   <crs:CoordinateReferenceSystem rdf:resource="http://purl.org/crs/84" svg:transform="matrix(100.0,0.0,0.0,-100.0,0.0,0.0)" />
  </rdf:Description>
 </rdf:RDF>
</metadata>
<globalCoordinateSystem srsName="http://purl.org/crs/84" transform="matrix(100.0,0.0,0.0,-100.0,0.0,0.0)" />
<defs>
 <g id="p0" >
  <circle cx="0.0" cy="0.0" r="3" stroke="green" stroke-width="0.75" vector-effect="non-scaling-stroke" />
 </g>
</defs>
<g fill="none" fill-rule="evenodd" stroke="#FF00FF" stroke-width="0.75" opacity="0.5" vector-effect="non-scaling-stroke" stroke-linejoin="bevel" >
<path content="1,JRバステック（株）,名古屋系統（特急）,1.0,1.0,1.0," xlink:title="1" d="M13974.3347,-3567.941L13974.3234,-3567.9391L13974.3213,-3567.9387L13974.3196,-3567.9384L13974.2138,-3567.92L13974.213,-3567.9199L13974.2129,-3567.9199L13974.2121,-3567.9198L13974.2056,-3567.9192L13974.1993,-3567.9186L13974.1898,-3567.9178L13974.0601,-3567.8876"/>
<path content="1,JRバステック（株）,名古屋系統（超特急）,3.0,3.0,3.0," xlink:title="1" d="M13974.0601,-3567.8876L13974.1898,-3567.9178L13974.1993,-3567.9186L13974.2056,-3567.9192L13974.2121,-3567.9198L13974.2129,-3567.9199L13974.213,-3567.9199L13974.2138,-3567.92L13974.3196,-3567.9384L13974.3213,-3567.9387L13974.3234,-3567.9391L13974.3347,-3567.941"/>
<path content="1,JRバス関東（株）,プレミアム中央ドリーム号/中央ドリーム号/プレミアムドリーム号/ドリーム号/レディースドリーム号/プレミアムレディース,9.4,12.0,12.0," xlink:title="1" d="M13974.0601,-3567.8876L13974.1898,-3567.9178L13974.1993,-3567.9186L13974.2056,-3567.9192L13974.2121,-3567.9198L13974.2129,-3567.9199L13974.213,-3567.9199L13974.2138,-3567.92L13974.3196,-3567.9384L13974.3213,-3567.9387L13974.3234,-3567.9391L13974.3347,-3567.941"/>
<path content="1,JRバス関東（株）,新宿～東京ディズニーリゾート,4.0,4.0,4.0," xlink:title="1" d="M13974.3347,-3567.941L13974.3234,-3567.9391L13974.3213,-3567.9387L13974.3196,-3567.9384L13974.2138,-3567.92L13974.213,-3567.9199L13974.2129,-3567.9199L13974.2121,-3567.9198L13974.2056,-3567.9192L13974.1993,-3567.9186L13974.1898,-3567.9178L13974.0601,-3567.8876"/>
<path content="1,JRバス関東（株）,東名ハイウェイバス,8.0,8.0,8.0," xlink:title="1" d="M13974.3347,-3567.941L13974.3234,-3567.9391L13974.3213,-3567.9387L13974.3196,-3567.9384L13974.2138,-3567.92L13974.213,-3567.9199L13974.2129,-3567.9199L13974.2121,-3567.9198L13974.2056,-3567.9192L13974.1993,-3567.9186L13974.1898,-3567.9178L13974.0601,-3567.8876"/>
<path content="1,JRバス関東（株）,知多シーガール号,2.0,2.0,2.0," xlink:title="1" d="M13974.0601,-3567.8876L13974.1898,-3567.9178L13974.1993,-3567.9186L13974.2056,-3567.9192L13974.2121,-3567.9198L13974.2129,-3567.9199L13974.213,-3567.9199L13974.2138,-3567.92L13974.3196,-3567.9384L13974.3213,-3567.9387L13974.3234,-3567.9391L13974.3347,-3567.941"/>
<path content="1,JRバス関東（株）,金沢エクスプレス/ドリーム金沢号/青春ドリーム金沢号,6.0,6.0,6.0," xlink:title="1" d="M13974.3347,-3567.941L13974.3234,-3567.9391L13974.3213,-3567.9387L13974.3196,-3567.9384L13974.2138,-3567.92L13974.213,-3567.9199L13974.2129,-3567.9199L13974.2121,-3567.9198L13974.2056,-3567.9192L13974.1993,-3567.9186L13974.1898,-3567.9178L13974.0601,-3567.8876"/>
<path content="1,京成バス（株）,東京ディズニーリゾート～新宿駅新南口,3.0,3.0,3.0," xlink:title="1" d="M13974.3347,-3567.941L13974.3234,-3567.9391L13974.3213,-3567.9387L13974.3196,-3567.9384L13974.2138,-3567.92L13974.2129,-3567.9199L13974.2121,-3567.9198L13974.2056,-3567.9192L13974.1993,-3567.9186L13974.1898,-3567.9178L13974.0601,-3567.8876"/>
<path content="1,京成バス（株）,神戸・大阪～東京ディズニーリゾート・海浜幕張・千葉中央駅,0.5,0.5,0.5," xlink:title="1" d="M13974.0601,-3567.8876L13974.1898,-3567.9178L13974.1993,-3567.9186L13974.2056,-3567.9192L13974.2121,-3567.9198L13974.2129,-3567.9199L13974.2138,-3567.92L13974.3196,-3567.9384L13974.3213,-3567.9387L13974.3234,-3567.9391L13974.3347,-3567.941"/>
<path content="1,京浜急行バス（株）,吉祥寺駅～羽田空港線,6.0,6.0,6.0," xlink:title="1" d="M13974.3347,-3567.941L13974.3234,-3567.9391L13974.3213,-3567.9387L13974.3196,-3567.9384L13974.2138,-3567.92L13974.2129,-3567.9199L13974.2121,-3567.9198L13974.2056,-3567.9192L13974.1993,-3567.9186L13974.1898,-3567.9178L13974.0601,-3567.8876"/>
<path content="1,京王バス南（株）,成田空港～南大沢線,4.0,4.0,4.0," xlink:title="1" d="M13974.0601,-3567.8876L13974.1898,-3567.9178L13974.1993,-3567.9186L13974.2056,-3567.9192L13974.2121,-3567.9198L13974.2129,-3567.9199L13974.2138,-3567.92L13974.3196,-3567.9384L13974.3213,-3567.9387L13974.3234,-3567.9391L13974.3347,-3567.941"/>
<path content="1,京王バス南（株）,成田空港～調布駅北口線,4.0,4.0,4.0," xlink:title="1" d="M13974.0601,-3567.8876L13974.1898,-3567.9178L13974.1993,-3567.9186L13974.2056,-3567.9192L13974.2121,-3567.9198L13974.2129,-3567.9199L13974.2138,-3567.92L13974.3196,-3567.9384L13974.3213,-3567.9387L13974.3234,-3567.9391L13974.3347,-3567.941"/>
<path content="1,京王バス南（株）,新宿・渋谷～仙台・石巻線,1.0,1.0,1.0," xlink:title="1" d="M13974.3347,-3567.941L13974.3234,-3567.9391L13974.3213,-3567.9387L13974.3196,-3567.9384L13974.2138,-3567.92L13974.2129,-3567.9199L13974.2121,-3567.9198L13974.2056,-3567.9192L13974.1993,-3567.9186L13974.1898,-3567.9178L13974.0601,-3567.8876"/>
<path content="1,京王バス南（株）,新宿～長野線,7.0,7.0,7.0," xlink:title="1" d="M13974.0601,-3567.8876L13974.1898,-3567.9178L13974.1993,-3567.9186L13974.2056,-3567.9192L13974.2121,-3567.9198L13974.2129,-3567.9199L13974.2138,-3567.92L13974.3196,-3567.9384L13974.3213,-3567.9387L13974.3234,-3567.9391L13974.3347,-3567.941"/>
<path content="1,千葉交通,竜王・甲府・石和・一宮・勝沼～成田空港,3.0,3.0,3.0," xlink:title="1" d="M13974.0601,-3567.8876L13974.1898,-3567.9178L13974.1993,-3567.9186L13974.2056,-3567.9192L13974.2121,-3567.9198L13974.2129,-3567.9199L13974.213,-3567.9199L13974.2138,-3567.92L13974.3196,-3567.9384L13974.3213,-3567.9387L13974.3234,-3567.9391L13974.3347,-3567.941"/>
<path content="1,四国高速バス（株）,ハローブリッジ号　善通寺・坂出⇔横浜・新宿・八王子,1.0,1.0,1.0," xlink:title="1" d="M13974.3347,-3567.941L13974.2138,-3567.9199L13974.1898,-3567.9178L13974.0601,-3567.8875"/>
<path content="1,宮城交通（株）,広瀬ライナー,1.0,1.0,1.0," xlink:title="1" d="M13974.3347,-3567.941L13974.3234,-3567.9391L13974.3213,-3567.9387L13974.3196,-3567.9384L13974.2138,-3567.92L13974.2129,-3567.9199L13974.2121,-3567.9198L13974.2056,-3567.9192L13974.1993,-3567.9186L13974.1898,-3567.9178L13974.0601,-3567.8876"/>
<path content="1,富士急行（株）,河口湖～津田沼・西船橋・新浦安線,0.3,0.3,0.3," xlink:title="1" d="M13974.0601,-3567.8876L13974.1898,-3567.9178L13974.1993,-3567.9186L13974.2056,-3567.9192L13974.2121,-3567.9198L13974.2129,-3567.9199L13974.2138,-3567.92L13974.3196,-3567.9384L13974.3213,-3567.9387L13974.3234,-3567.9391L13974.3347,-3567.941"/>
<path content="1,小湊鉄道,五井～新宿,7.0,7.0,7.0," xlink:title="1" d="M13974.3347,-3567.941L13974.3234,-3567.9391L13974.3213,-3567.9387L13974.3196,-3567.9384L13974.2138,-3567.92L13974.213,-3567.9199L13974.2129,-3567.9199L13974.2121,-3567.9198L13974.2056,-3567.9192L13974.1993,-3567.9186L13974.1898,-3567.9178L13974.0601,-3567.8876"/>
<path content="1,小湊鉄道,木更津駅西口～袖ヶ浦バスターミナル～新宿駅西口,19.5,19.5,19.5," xlink:title="1" d="M13974.0601,-3567.8876L13974.1898,-3567.9178L13974.1993,-3567.9186L13974.2056,-3567.9192L13974.2121,-3567.9198L13974.2129,-3567.9199L13974.213,-3567.9199L13974.2138,-3567.92L13974.3196,-3567.9384L13974.3213,-3567.9387L13974.3234,-3567.9391L13974.3347,-3567.941"/>
<path content="1,小田急シティバス（株）,アクアライン高速バス,9.5,9.5,9.5," xlink:title="1" d="M13974.3347,-3567.941L13974.3234,-3567.9391L13974.3213,-3567.9387L13974.3196,-3567.9384L13974.2138,-3567.92L13974.2129,-3567.9199L13974.2121,-3567.9198L13974.2056,-3567.9192L13974.1993,-3567.9186L13974.1898,-3567.9178L13974.0601,-3567.8876"/>
<path content="1,小田急バス（株）,アクアライン,9.5,9.5,9.5," xlink:title="1" d="M13974.3347,-3567.941L13974.3234,-3567.9391L13974.3213,-3567.9387L13974.3196,-3567.9384L13974.2138,-3567.92L13974.2129,-3567.9199L13974.2121,-3567.9198L13974.2056,-3567.9192L13974.1993,-3567.9186L13974.1898,-3567.9178L13974.0601,-3567.8876"/>
<path content="1,小田急バス（株）,吉祥寺駅～成田空港線,3.5,3.5,3.5," xlink:title="1" d="M13974.3347,-3567.941L13974.3234,-3567.9391L13974.3213,-3567.9387L13974.3196,-3567.9384L13974.2138,-3567.92L13974.2129,-3567.9199L13974.2121,-3567.9198L13974.2056,-3567.9192L13974.1993,-3567.9186L13974.1898,-3567.9178L13974.0601,-3567.8876"/>
<path content="1,小田急バス（株）,吉祥寺駅～羽田空港線,3.0,3.0,3.0," xlink:title="1" d="M13974.3347,-3567.941L13974.3234,-3567.9391L13974.3213,-3567.9387L13974.3196,-3567.9384L13974.2138,-3567.92L13974.2129,-3567.9199L13974.2121,-3567.9198L13974.2056,-3567.9192L13974.1993,-3567.9186L13974.1898,-3567.9178L13974.0601,-3567.8876"/>
<path content="1,小田急バス（株）,新宿～五井線,3.5,3.0,3.0," xlink:title="1" d="M13974.3347,-3567.941L13974.3234,-3567.9391L13974.3213,-3567.9387L13974.3196,-3567.9384L13974.2138,-3567.92L13974.2129,-3567.9199L13974.2121,-3567.9198L13974.2056,-3567.9192L13974.1993,-3567.9186L13974.1898,-3567.9178L13974.0601,-3567.8876"/>
<path content="1,山梨交通（株）,竜王・甲府～成田空港線,3.0,3.0,3.0," xlink:title="1" d="M13974.0601,-3567.8876L13974.1898,-3567.9178L13974.1993,-3567.9186L13974.2056,-3567.9192L13974.2121,-3567.9198L13974.2129,-3567.9199L13974.2138,-3567.92L13974.3196,-3567.9384L13974.3213,-3567.9387L13974.3234,-3567.9391L13974.3347,-3567.941"/>
<path content="1,東京空港交通（株）,八王子エリア～成田空港線,3.5,3.5,3.5," xlink:title="1" d="M13974.0601,-3567.8876L13974.1898,-3567.9178L13974.1993,-3567.9186L13974.2056,-3567.9192L13974.2121,-3567.9198L13974.2129,-3567.9199L13974.2138,-3567.92L13974.3196,-3567.9384L13974.3213,-3567.9387L13974.3234,-3567.9391L13974.3347,-3567.941"/>
<path content="1,東京空港交通（株）,吉祥寺駅～羽田空港線,2.5,2.5,2.5," xlink:title="1" d="M13974.3347,-3567.941L13974.3234,-3567.9391L13974.3213,-3567.9387L13974.3196,-3567.9384L13974.2138,-3567.92L13974.2129,-3567.9199L13974.2121,-3567.9198L13974.2056,-3567.9192L13974.1993,-3567.9186L13974.1898,-3567.9178L13974.0601,-3567.8876"/>
<path content="1,東京空港交通（株）,新宿エリア～羽田空港線,54.5,54.5,54.5," xlink:title="1" d="M13974.0601,-3567.8876L13974.1898,-3567.9178L13974.1993,-3567.9186L13974.2056,-3567.9192L13974.2121,-3567.9198L13974.2129,-3567.9199L13974.2138,-3567.92L13974.3196,-3567.9384L13974.3213,-3567.9387L13974.3234,-3567.9391L13974.3347,-3567.941"/>
<path content="1,東京空港交通（株）,新宿駅西口～　新浦安・行徳・千葉地区,1.0,1.0,1.0," xlink:title="1" d="M13974.3347,-3567.941L13974.3234,-3567.9391L13974.3213,-3567.9387L13974.3196,-3567.9384L13974.2138,-3567.92L13974.2129,-3567.9199L13974.2121,-3567.9198L13974.2056,-3567.9192L13974.1993,-3567.9186L13974.1898,-3567.9178L13974.0601,-3567.8876"/>
<path content="1,東京空港交通（株）,立川エリア～成田空港線,3.0,3.0,3.0," xlink:title="1" d="M13974.0601,-3567.8876L13974.1898,-3567.9178L13974.1993,-3567.9186L13974.2056,-3567.9192L13974.2121,-3567.9198L13974.2129,-3567.9199L13974.2138,-3567.92L13974.3196,-3567.9384L13974.3213,-3567.9387L13974.3234,-3567.9391L13974.3347,-3567.941"/>
<path content="1,琴平バス（株）,愛媛・高知シャトル,2.0,2.0,2.0," xlink:title="1" d="M13974.3347,-3567.941L13974.2138,-3567.9199L13974.1898,-3567.9178L13974.0601,-3567.8875"/>
<path content="1,神奈川中央交通（株）,東京駅八重洲南口～平塚駅北口,1.0,0.0,0.0," xlink:title="1" d="M13974.3347,-3567.941L13974.3234,-3567.9391L13974.3213,-3567.9387L13974.3196,-3567.9384L13974.2138,-3567.92L13974.2129,-3567.9199L13974.2121,-3567.9198L13974.2056,-3567.9192L13974.1993,-3567.9186L13974.1898,-3567.9178L13974.0601,-3567.8876"/>
<path content="1,西東京バス（株）,002,2.0,2.0,2.0," xlink:title="1" d="M13974.0601,-3567.8876L13974.1898,-3567.9178L13974.1993,-3567.9186L13974.2056,-3567.9192L13974.2121,-3567.9198L13974.2129,-3567.9199L13974.2138,-3567.92L13974.3196,-3567.9384L13974.3213,-3567.9387L13974.3234,-3567.9391L13974.3347,-3567.941"/>
<path content="1,西東京バス（株）,ハローブリッジ号,1.0,1.0,1.0," xlink:title="1" d="M13974.3347,-3567.941L13974.3234,-3567.9391L13974.3213,-3567.9387L13974.3196,-3567.9384L13974.2138,-3567.92L13974.2129,-3567.9199L13974.2121,-3567.9198L13974.2056,-3567.9192L13974.1993,-3567.9186L13974.1898,-3567.9178L13974.0601,-3567.8876"/>
<path content="1,関東バス（株）,吉祥寺・成田空港,12.0,12.0,12.0," xlink:title="1" d="M13974.0601,-3567.8876L13974.1898,-3567.9178L13974.1993,-3567.9186L13974.2056,-3567.9192L13974.2121,-3567.9198L13974.2129,-3567.9199L13974.2138,-3567.92L13974.3196,-3567.9384L13974.3213,-3567.9387L13974.3234,-3567.9391L13974.3347,-3567.941"/>
<path content="1,関東バス（株）,吉祥寺・羽田空港,19.0,19.0,19.0," xlink:title="1" d="M13974.3347,-3567.941L13974.3234,-3567.9391L13974.3213,-3567.9387L13974.3196,-3567.9384L13974.2138,-3567.92L13974.2129,-3567.9199L13974.2121,-3567.9198L13974.2056,-3567.9192L13974.1993,-3567.9186L13974.1898,-3567.9178L13974.0601,-3567.8876"/>
<path content="1,関東自動車（株）,マロニエ号　羽田空港,3.0,3.0,3.0," xlink:title="1" d="M13974.0601,-3567.8876L13974.1898,-3567.9178L13974.1993,-3567.9186L13974.2056,-3567.9192L13974.2121,-3567.9198L13974.2129,-3567.9199L13974.2138,-3567.92L13974.3196,-3567.9384L13974.3213,-3567.9387L13974.3234,-3567.9391L13974.3347,-3567.941"/>
<path content="1,（株）シティバス立川,立川駅～成田空港線,3.0,3.0,3.0," xlink:title="1" d="M13974.0601,-3567.8876L13974.1898,-3567.9178L13974.1993,-3567.9186L13974.2056,-3567.9192L13974.2121,-3567.9198L13974.2129,-3567.9199L13974.2138,-3567.92L13974.3196,-3567.9384L13974.3213,-3567.9387L13974.3234,-3567.9391L13974.3347,-3567.941"/>
<path content="1,（株）中国バス,夜行便　東京線,1.0,1.0,1.0," xlink:title="1" d="M13974.0601,-3567.8875L13974.1898,-3567.9178L13974.2138,-3567.9199L13974.3347,-3567.941"/>
<path content="2,都営バス,橋63,40.0,27.0,25.0," xlink:title="2" d="M13974.126,-3567.8101L13974.1177,-3567.8152L13974.0951,-3567.8298L13974.0637,-3567.8504L13974.0601,-3567.8522"/>
<path content="3,千代田区,秋葉原・麹町便,8.0,8.0,8.0," xlink:title="3" d="M13974.1831,-3568.0847L13974.1838,-3568.0567L13974.1841,-3568.0422L13974.1852,-3568.0328L13974.19,-3568.0103L13974.2102,-3567.9927L13974.2375,-3567.9802L13974.2676,-3567.9666L13974.2887,-3567.9562L13974.3234,-3567.9391L13974.3213,-3567.9387L13974.3196,-3567.9384L13974.2138,-3567.92L13974.213,-3567.9199L13974.2129,-3567.9199L13974.2121,-3567.9198L13974.2056,-3567.9192L13974.1993,-3567.9186L13974.1898,-3567.9178L13974.0601,-3567.8876"/>
</g>
</svg>
