<?xml version="1.0" encoding="UTF-8"?>
<svg  xmlns="http://www.w3.org/2000/svg" xmlns:xlink="http://www.w3.org/1999/xlink" xmlns:go="http://purl.org/svgmap/profile" property="N07_001,N07_002,N07_003,N07_004,N07_005,N07_006,N07_007" viewBox="14044.921875 -3636.474609375 2.197265625 2.197265625" go:dataArea="14044.921875 -3636.474609375 2.197265625 2.197265625" >
<metadata>
 <rdf:RDF xmlns:rdf="http://www.w3.org/1999/02/22-rdf-syntax-ns#" xmlns:crs="http://opengis.org/xmldtds/transformations.dtd" xmlns:svg="http://www.w3.org/svg" >
  <rdf:Description>
   <crs:CoordinateReferenceSystem rdf:resource="http://purl.org/crs/84" svg:transform="matrix(100.0,0.0,0.0,-100.0,0.0,0.0)" />
  </rdf:Description>
 </rdf:RDF>
</metadata>
<globalCoordinateSystem srsName="http://purl.org/crs/84" transform="matrix(100.0,0.0,0.0,-100.0,0.0,0.0)" />
<defs>
 <g id="p0" >
  <circle cx="0.0" cy="0.0" r="3" stroke="green" stroke-width="0.75" vector-effect="non-scaling-stroke" />
 </g>
</defs>
<g fill="none" fill-rule="evenodd" stroke="#FF00FF" stroke-width="0.75" opacity="0.5" vector-effect="non-scaling-stroke" stroke-linejoin="bevel" >
<path content="1,JRバス関東（株）,みと号,18.0,20.0,20.0," xlink:title="1" d="M14044.9219,-3634.8377L14044.9287,-3634.8373L14044.953,-3634.833L14044.9814,-3634.8266L14045.0132,-3634.8194L14045.2063,-3634.7759L14045.2221,-3634.7723L14045.2506,-3634.7657L14045.4076,-3634.7289L14045.4368,-3634.7238L14045.4386,-3634.7235L14045.4584,-3634.7207L14045.4901,-3634.7178L14045.5101,-3634.7163L14045.5826,-3634.711L14045.6088,-3634.7097L14045.6947,-3634.7085L14045.6959,-3634.7086L14045.7208,-3634.7104L14045.7408,-3634.7119L14045.9342,-3634.727L14045.9806,-3634.7308L14045.9969,-3634.7321L14046.0235,-3634.7345L14046.1337,-3634.7433L14046.1767,-3634.7448L14046.2191,-3634.7462L14046.2226,-3634.7462L14046.276,-3634.7456L14046.3369,-3634.7415L14046.4101,-3634.7337L14046.5607,-3634.7177L14046.6344,-3634.7104L14046.7024,-3634.703L14046.7223,-3634.7008L14046.7783,-3634.6939L14046.7908,-3634.6919L14046.8644,-3634.6768L14046.8943,-3634.6689L14046.9141,-3634.6637L14046.9951,-3634.6362L14047.0112,-3634.6306L14047.051,-3634.6159L14047.1173,-3634.5898L14047.1191,-3634.5891"/>
<path content="1,茨城交通（株）,8,18.2,3.0,3.0," xlink:title="1" d="M14046.3927,-3635.0585L14046.3936,-3635.0181"/>
<path content="1,茨城交通（株）,8,18.2,3.0,3.0," xlink:title="1" d="M14046.3927,-3635.0585L14046.3697,-3635.0592L14046.353,-3635.0598L14046.3264,-3635.048L14046.319,-3635.0438L14046.28,-3635.0023L14046.2233,-3634.9392L14046.2085,-3634.9233L14046.1872,-3634.9053L14046.1669,-3634.8888L14046.1387,-3634.8665L14046.1298,-3634.8594L14046.1122,-3634.8474L14046.0891,-3634.8351L14046.0709,-3634.8284L14046.0481,-3634.8279L14045.9757,-3634.8289L14045.7559,-3634.8439L14045.7979,-3634.9874L14045.804,-3635.009L14045.8134,-3635.0381L14045.846,-3635.1554L14045.8165,-3635.1655L14045.7292,-3635.1955L14045.691,-3635.2077L14045.6426,-3635.2194L14045.6206,-3635.2238L14045.5867,-3635.2301L14045.5764,-3635.2338L14045.4107,-3635.2638L14045.3994,-3635.2669L14045.3782,-3635.2718L14045.136,-3635.3203L14045.0971,-3635.3309L14045.1722,-3635.4761L14045.1743,-3635.48L14045.2529,-3635.6374L14045.2699,-3635.6703L14045.277,-3635.6804L14045.2792,-3635.6823L14045.3139,-3635.7036L14045.4469,-3635.7751L14045.47,-3635.7894L14045.4818,-3635.8132L14045.5069,-3635.8742L14045.5192,-3635.9081L14045.5262,-3635.9268L14045.5308,-3635.9364L14045.5364,-3635.9445L14045.5434,-3635.9504L14045.552,-3635.9559L14045.5606,-3635.9602L14045.766,-3636.0381L14045.7812,-3636.0446L14045.8026,-3636.0526L14045.9027,-3636.0903L14045.9537,-3636.1118L14045.9712,-3636.12L14045.9889,-3636.1337L14046.0106,-3636.1553L14046.0215,-3636.1761L14046.0825,-3636.2534L14046.1033,-3636.2823L14046.1469,-3636.3228L14046.2249,-3636.3366L14046.3103,-3636.3497L14046.3413,-3636.3543L14046.3669,-3636.3547L14046.426,-3636.3578L14046.443,-3636.3579L14046.4594,-3636.3569L14046.472,-3636.3687L14046.4899,-3636.3882L14046.5109,-3636.4149L14046.5159,-3636.4205L14046.5228,-3636.4263L14046.5414,-3636.4386L14046.5542,-3636.4466L14046.5986,-3636.4746"/>
<path content="1,茨城交通（株）,8,18.2,3.0,3.0," xlink:title="1" d="M14046.862,-3636.4746L14046.9234,-3636.4134L14046.93,-3636.4095L14046.9913,-3636.3465L14047.0651,-3636.2729L14047.0738,-3636.264L14047.0685,-3636.2611L14047.0433,-3636.2398L14047.027,-3636.2264L14047.026,-3636.2223L14047.0271,-3636.2144L14047.0313,-3636.2077L14047.0619,-3636.1704L14047.0684,-3636.1616L14047.0711,-3636.1551L14047.0711,-3636.1489L14047.0613,-3636.1217L14047.0489,-3636.0958L14047.0445,-3636.091L14047.0407,-3636.0884L14047.0134,-3636.071L14046.9811,-3636.0449L14046.9723,-3636.0361L14046.9587,-3636.0179L14046.9521,-3636.008L14046.9477,-3635.9985L14046.9436,-3635.9871L14046.9398,-3635.9741L14046.9375,-3635.9561L14046.9392,-3635.9363L14046.9451,-3635.9118L14046.9527,-3635.8765L14046.9558,-3635.8587L14046.9403,-3635.8028L14046.9332,-3635.7692L14046.9302,-3635.7481L14046.9283,-3635.7188L14046.9254,-3635.7051L14046.9093,-3635.6688L14046.8848,-3635.6217L14046.8836,-3635.6131L14046.8247,-3635.5001L14046.817,-3635.4867L14046.753,-3635.3732L14046.745,-3635.3544L14046.7278,-3635.3224L14046.7256,-3635.3206L14046.7221,-3635.3186L14046.5541,-3635.2551L14046.5502,-3635.2517L14046.5477,-3635.2484L14046.5349,-3635.2308L14046.5261,-3635.2053L14046.4528,-3635.0691L14046.4386,-3635.0699L14046.4202,-3635.0693L14046.3924,-3635.0652L14046.3927,-3635.0585"/>
<path content="1,茨城交通（株）,県庁,15.0,17.0,17.0," xlink:title="1" d="M14044.9219,-3634.8377L14044.9287,-3634.8373L14044.953,-3634.833L14044.9814,-3634.8266L14045.0132,-3634.8194L14045.2063,-3634.7759L14045.2221,-3634.7723L14045.2506,-3634.7657L14045.4076,-3634.7289L14045.4368,-3634.7238L14045.4386,-3634.7235L14045.4584,-3634.7207L14045.4901,-3634.7178L14045.5101,-3634.7163L14045.5826,-3634.711L14045.6088,-3634.7097L14045.6947,-3634.7085L14045.6959,-3634.7086L14045.7208,-3634.7104L14045.7408,-3634.7119L14045.9342,-3634.727L14045.9806,-3634.7308L14045.9969,-3634.7321L14046.0235,-3634.7345L14046.1337,-3634.7433L14046.1767,-3634.7448L14046.2191,-3634.7462L14046.2226,-3634.7462L14046.276,-3634.7456L14046.3369,-3634.7415L14046.4101,-3634.7337L14046.5607,-3634.7177L14046.6344,-3634.7104L14046.7024,-3634.703L14046.7223,-3634.7008L14046.7783,-3634.6939L14046.7908,-3634.6919L14046.8644,-3634.6768L14046.8943,-3634.6689L14046.9141,-3634.6637L14046.9951,-3634.6362L14047.0112,-3634.6306L14047.051,-3634.6159L14047.1173,-3634.5898L14047.1191,-3634.5891"/>
<path content="1,関東鉄道（株）,058,20.0,4.0,4.0," xlink:title="1" d="M14047.1191,-3634.5891L14047.1173,-3634.5898L14047.051,-3634.6159L14047.0112,-3634.6306L14046.9951,-3634.6362L14046.9141,-3634.6637L14046.8943,-3634.6689L14046.8644,-3634.6768L14046.7908,-3634.6919L14046.7783,-3634.6939L14046.7223,-3634.7008L14046.7024,-3634.703L14046.6846,-3634.6981L14046.6339,-3634.6963L14046.6109,-3634.6966L14046.4066,-3634.717L14046.2846,-3634.7285L14046.267,-3634.7295L14046.2252,-3634.7304L14046.2108,-3634.7307L14046.1745,-3634.7286L14046.1479,-3634.7271L14046.0576,-3634.721L14046.0103,-3634.7169L14045.9975,-3634.717L14045.9734,-3634.7175L14045.9561,-3634.7178L14045.9454,-3634.72L14045.9342,-3634.727L14045.7408,-3634.7119L14045.7208,-3634.7104L14045.6959,-3634.7086L14045.6947,-3634.7085L14045.6088,-3634.7097L14045.5826,-3634.711L14045.5101,-3634.7163L14045.4901,-3634.7178L14045.4584,-3634.7207L14045.4386,-3634.7235L14045.4368,-3634.7238L14045.4076,-3634.7289L14045.2506,-3634.7657L14045.2221,-3634.7723L14045.2063,-3634.7759L14045.0132,-3634.8194L14044.9814,-3634.8266L14044.953,-3634.833L14044.9287,-3634.8373L14044.9219,-3634.8377"/>
<path content="1,関東鉄道（株）,059,15.5,12.0,12.0," xlink:title="1" d="M14044.9219,-3635.9544L14044.9491,-3636.0066L14044.9599,-3636.0258L14044.9884,-3636.0824L14045.0359,-3636.1771L14045.0425,-3636.193L14045.0579,-3636.2299L14045.0691,-3636.258L14045.0805,-3636.2939L14045.0944,-3636.3396L14045.0959,-3636.3477L14045.0973,-3636.3593L14045.0973,-3636.3897L14045.0888,-3636.4488L14045.084,-3636.4746"/>
<path content="1,関東鉄道（株）,061,8.0,7.0,7.0," xlink:title="1" d="M14044.9219,-3635.9544L14044.9491,-3636.0066L14044.9599,-3636.0258L14044.9884,-3636.0824L14045.0359,-3636.1771L14045.0425,-3636.193L14045.0579,-3636.2299L14045.0691,-3636.258L14045.0805,-3636.2939L14045.0944,-3636.3396L14045.0959,-3636.3477L14045.0973,-3636.3593L14045.0973,-3636.3897L14045.0888,-3636.4488L14045.084,-3636.4746"/>
<path content="1,関東鉄道（株）,062,6.0,5.0,5.0," xlink:title="1" d="M14044.9219,-3634.3037L14044.9298,-3634.3337L14044.9604,-3634.4498L14044.9219,-3634.4569M14044.9219,-3635.9544L14044.9491,-3636.0066L14044.9599,-3636.0258L14044.9884,-3636.0824L14045.0359,-3636.1771L14045.0425,-3636.193L14045.0579,-3636.2299L14045.0691,-3636.258L14045.0805,-3636.2939L14045.0944,-3636.3396L14045.0959,-3636.3477L14045.0973,-3636.3593L14045.0973,-3636.3897L14045.0888,-3636.4488L14045.084,-3636.4746"/>
<path content="1,関東鉄道（株）,063,1.0,0.0,0.0," xlink:title="1" d="M14045.553,-3636.4746L14045.5635,-3636.471L14045.728,-3636.4207L14045.8319,-3636.3869L14045.8712,-3636.375L14045.9635,-3636.3471L14045.9951,-3636.3391L14046.0911,-3636.3274L14046.1469,-3636.3228L14046.2249,-3636.3366L14046.3103,-3636.3497L14046.3413,-3636.3543L14046.3669,-3636.3547L14046.426,-3636.3578L14046.443,-3636.3579L14046.4594,-3636.3569L14046.472,-3636.3687L14046.4899,-3636.3882L14046.5109,-3636.4149L14046.5159,-3636.4205L14046.5228,-3636.4263L14046.5414,-3636.4386L14046.5542,-3636.4466L14046.5986,-3636.4746"/>
<path content="1,関東鉄道（株）,065,7.5,7.0,7.0," xlink:title="1" d="M14044.9219,-3634.8377L14044.9287,-3634.8373L14044.953,-3634.833L14044.9814,-3634.8266L14045.0132,-3634.8194L14045.2063,-3634.7759L14045.2221,-3634.7723L14045.2506,-3634.7657L14045.4076,-3634.7289L14045.4368,-3634.7238L14045.4386,-3634.7235L14045.4584,-3634.7207L14045.4901,-3634.7178L14045.5101,-3634.7163L14045.5826,-3634.711L14045.6088,-3634.7097L14045.6947,-3634.7085L14045.6959,-3634.7086L14045.7208,-3634.7104L14045.7408,-3634.7119L14045.9342,-3634.727L14045.9454,-3634.72L14045.9561,-3634.7178L14045.9734,-3634.7175L14045.9975,-3634.717L14046.0103,-3634.7169L14046.0576,-3634.721L14046.1479,-3634.7271L14046.1745,-3634.7286L14046.2108,-3634.7307L14046.2252,-3634.7304L14046.267,-3634.7295L14046.2846,-3634.7285L14046.4066,-3634.717L14046.6109,-3634.6966L14046.6339,-3634.6963L14046.6846,-3634.6981L14046.7024,-3634.703L14046.7223,-3634.7008L14046.7783,-3634.6939L14046.7908,-3634.6919L14046.8644,-3634.6768L14046.8943,-3634.6689L14046.9141,-3634.6637L14046.9951,-3634.6362L14047.0112,-3634.6306L14047.051,-3634.6159L14047.1173,-3634.5898L14047.1191,-3634.5891"/>
<path content="1,関東鉄道（株）,066,13.5,10.5,10.5," xlink:title="1" d="M14046.3243,-3634.2773L14046.3376,-3634.3371L14046.3448,-3634.388L14046.3883,-3634.6137L14046.3886,-3634.616L14046.4066,-3634.717L14046.6109,-3634.6966L14046.6339,-3634.6963L14046.6846,-3634.6981L14046.7024,-3634.703L14046.7223,-3634.7008L14046.7783,-3634.6939L14046.7908,-3634.6919L14046.8644,-3634.6768L14046.8943,-3634.6689L14046.9141,-3634.6637L14046.9951,-3634.6362L14047.0112,-3634.6306L14047.051,-3634.6159L14047.1173,-3634.5898L14047.1191,-3634.5891"/>
<path content="1,関東鉄道（株）,067,1.0,0.0,0.0," xlink:title="1" d="M14046.3243,-3634.2773L14046.3376,-3634.3371L14046.3448,-3634.388L14046.3883,-3634.6137L14046.3886,-3634.616L14046.4066,-3634.717L14046.6109,-3634.6966L14046.6339,-3634.6963L14046.6846,-3634.6981L14046.7024,-3634.703L14046.7223,-3634.7008L14046.7783,-3634.6939L14046.7908,-3634.6919L14046.8644,-3634.6768L14046.8943,-3634.6689L14046.9141,-3634.6637L14046.9951,-3634.6362L14047.0112,-3634.6306L14047.051,-3634.6159L14047.1173,-3634.5898L14047.1191,-3634.5891"/>
<path content="1,関東鉄道（株）,067,1.0,0.0,0.0," xlink:title="1" d="M14045.084,-3636.4746L14045.0888,-3636.4488L14045.0973,-3636.3897L14045.0973,-3636.3593L14045.0959,-3636.3477L14045.0944,-3636.3396L14045.0805,-3636.2939L14045.0691,-3636.258L14045.0579,-3636.2299L14045.0425,-3636.193L14045.0359,-3636.1771L14044.9884,-3636.0824L14044.9599,-3636.0258L14044.9491,-3636.0066L14044.9219,-3635.9544"/>
<path content="1,関東鉄道（株）,068,2.5,5.0,5.0," xlink:title="1" d="M14046.3243,-3634.2773L14046.3376,-3634.3371L14046.3448,-3634.388L14046.3883,-3634.6137L14046.3886,-3634.616L14046.4066,-3634.717L14046.6109,-3634.6966L14046.6339,-3634.6963L14046.6846,-3634.6981L14046.7024,-3634.703L14046.7223,-3634.7008L14046.7783,-3634.6939L14046.7908,-3634.6919L14046.8644,-3634.6768L14046.8943,-3634.6689L14046.9141,-3634.6637L14046.9951,-3634.6362L14047.0112,-3634.6306L14047.051,-3634.6159L14047.1173,-3634.5898L14047.1191,-3634.5891"/>
<path content="1,関東鉄道（株）,068,2.5,5.0,5.0," xlink:title="1" d="M14045.084,-3636.4746L14045.0888,-3636.4488L14045.0973,-3636.3897L14045.0973,-3636.3593L14045.0959,-3636.3477L14045.0944,-3636.3396L14045.0805,-3636.2939L14045.0691,-3636.258L14045.0579,-3636.2299L14045.0425,-3636.193L14045.0359,-3636.1771L14044.9884,-3636.0824L14044.9599,-3636.0258L14044.9491,-3636.0066L14044.9219,-3635.9544"/>
<path content="1,関東鉄道（株）,069,4.5,2.5,2.5," xlink:title="1" d="M14045.084,-3636.4746L14045.0888,-3636.4488L14045.0973,-3636.3897L14045.0973,-3636.3593L14045.0959,-3636.3477L14045.0944,-3636.3396L14045.0805,-3636.2939L14045.0691,-3636.258L14045.0579,-3636.2299L14045.0425,-3636.193L14045.0359,-3636.1771L14044.9884,-3636.0824L14044.9599,-3636.0258L14044.9491,-3636.0066L14044.9219,-3635.9544"/>
<path content="1,関東鉄道（株）,070,0.9,0.0,0.0," xlink:title="1" d="M14044.9219,-3634.3037L14044.9298,-3634.3337L14044.9604,-3634.4498L14045.0493,-3634.4331L14045.1347,-3634.4153L14045.1972,-3634.4023L14045.2264,-3634.3963L14045.318,-3634.3768L14045.3678,-3634.3675L14045.3745,-3634.3657L14045.4629,-3634.3486L14045.6267,-3634.3171L14045.728,-3634.3035L14045.7489,-3634.3021L14045.769,-3634.3013L14045.7841,-3634.3015L14045.7947,-3634.3021L14045.8219,-3634.3079L14045.8468,-3634.3147L14045.8689,-3634.3216L14045.932,-3634.3449L14045.974,-3634.3603L14046.0184,-3634.3751L14046.0484,-3634.3819L14046.1571,-3634.365L14046.1826,-3634.361L14046.3376,-3634.3371L14046.3448,-3634.388L14046.3883,-3634.6137L14046.3886,-3634.616L14046.4066,-3634.717L14046.6109,-3634.6966L14046.6339,-3634.6963L14046.6846,-3634.6981L14046.7024,-3634.703L14046.7223,-3634.7008L14046.7783,-3634.6939L14046.7908,-3634.6919L14046.8644,-3634.6768L14046.8943,-3634.6689L14046.9141,-3634.6637L14046.9951,-3634.6362L14047.0112,-3634.6306L14047.051,-3634.6159L14047.1173,-3634.5898L14047.1191,-3634.5891"/>
<path content="1,関東鉄道（株）,071,21.0,16.0,16.0," xlink:title="1" d="M14045.084,-3636.4746L14045.0888,-3636.4488L14045.0973,-3636.3897L14045.0973,-3636.3593L14045.0959,-3636.3477L14045.0944,-3636.3396L14045.0805,-3636.2939L14045.0691,-3636.258L14045.0579,-3636.2299L14045.0425,-3636.193L14045.0359,-3636.1771L14044.9884,-3636.0824L14044.9599,-3636.0258L14044.9491,-3636.0066L14044.9219,-3635.9544"/>
<path content="1,関東鉄道（株）,072,3.0,0.0,0.0," xlink:title="1" d="M14046.3243,-3634.2773L14046.3376,-3634.3371L14046.3448,-3634.388L14046.3883,-3634.6137L14046.3886,-3634.616L14046.4066,-3634.717L14046.4101,-3634.7337L14046.4136,-3634.7504L14046.4099,-3634.8104L14046.4057,-3634.8709L14046.3936,-3635.0181L14046.3927,-3635.0585L14046.3924,-3635.0652L14046.4182,-3635.279L14046.4202,-3635.2964L14046.4509,-3635.5575L14046.4699,-3635.709L14046.4906,-3635.8237L14046.4944,-3635.8482L14046.5239,-3635.9609L14046.5671,-3636.0974L14046.5877,-3636.182L14046.6058,-3636.2469L14046.62,-3636.2954L14046.6274,-3636.3218L14046.6549,-3636.4061L14046.6611,-3636.4214L14046.6734,-3636.4519L14046.684,-3636.4746"/>
<path content="1,関東鉄道（株）,074,12.5,11.0,11.0," xlink:title="1" d="M14045.084,-3636.4746L14045.0888,-3636.4488L14045.0973,-3636.3897L14045.0973,-3636.3593L14045.0959,-3636.3477L14045.0944,-3636.3396L14045.0805,-3636.2939L14045.0691,-3636.258L14045.0579,-3636.2299L14045.0425,-3636.193L14045.0359,-3636.1771L14044.9884,-3636.0824L14044.9599,-3636.0258L14044.9491,-3636.0066L14044.9219,-3635.9544M14044.9219,-3634.4569L14044.9604,-3634.4498L14044.9298,-3634.3337L14044.9219,-3634.3037"/>
<path content="1,関東鉄道（株）,075,11.5,9.0,9.0," xlink:title="1" d="M14045.084,-3636.4746L14045.0888,-3636.4488L14045.0973,-3636.3897L14045.0973,-3636.3593L14045.0959,-3636.3477L14045.0944,-3636.3396L14045.0805,-3636.2939L14045.0691,-3636.258L14045.0579,-3636.2299L14045.0425,-3636.193L14045.0359,-3636.1771L14044.9884,-3636.0824L14044.9599,-3636.0258L14044.9491,-3636.0066L14044.9219,-3635.9544M14044.9219,-3634.4569L14044.9604,-3634.4498L14044.9298,-3634.3337L14044.9219,-3634.3037"/>
<path content="1,関東鉄道（株）,077,0.0,1.0,1.0," xlink:title="1" d="M14046.3243,-3634.2773L14046.3376,-3634.3371L14046.3448,-3634.388L14046.3883,-3634.6137L14046.3886,-3634.616L14046.4066,-3634.717L14046.4101,-3634.7337L14046.4136,-3634.7504L14046.4099,-3634.8104L14046.4057,-3634.8709L14046.3936,-3635.0181L14046.3927,-3635.0585L14046.3924,-3635.0652L14046.4182,-3635.279L14046.4202,-3635.2964L14046.4509,-3635.5575L14046.4699,-3635.709L14046.4906,-3635.8237L14046.4944,-3635.8482L14046.5239,-3635.9609L14046.5671,-3636.0974L14046.5877,-3636.182L14046.6058,-3636.2469L14046.62,-3636.2954L14046.6274,-3636.3218L14046.6549,-3636.4061L14046.6611,-3636.4214L14046.6734,-3636.4519L14046.684,-3636.4746"/>
<path content="1,関東鉄道（株）,085,1.8,0.0,0.0," xlink:title="1" d="M14045.553,-3636.4746L14045.5635,-3636.471L14045.728,-3636.4207L14045.8319,-3636.3869L14045.8712,-3636.375L14045.9635,-3636.3471L14045.9951,-3636.3391L14046.0911,-3636.3274L14046.1469,-3636.3228L14046.2249,-3636.3366L14046.3103,-3636.3497L14046.3413,-3636.3543L14046.3669,-3636.3547L14046.426,-3636.3578L14046.443,-3636.3579L14046.4594,-3636.3569L14046.5019,-3636.3545L14046.5156,-3636.3528L14046.5267,-3636.3507L14046.5595,-3636.3401L14046.6094,-3636.3269L14046.6274,-3636.3218L14046.62,-3636.2954L14046.6058,-3636.2469L14046.5877,-3636.182L14046.5671,-3636.0974L14046.5239,-3635.9609L14046.4944,-3635.8482L14046.4906,-3635.8237L14046.4699,-3635.709L14046.4509,-3635.5575"/>
<path content="1,関東鉄道（株）,086,10.5,8.5,8.5," xlink:title="1" d="M14044.9219,-3635.9544L14044.9491,-3636.0066L14044.9599,-3636.0258L14044.9884,-3636.0824L14045.0359,-3636.1771L14045.0425,-3636.193L14045.0579,-3636.2299L14045.0691,-3636.258L14045.0805,-3636.2939L14045.0944,-3636.3396L14045.0959,-3636.3477L14045.0973,-3636.3593L14045.0973,-3636.3897L14045.0888,-3636.4488L14045.084,-3636.4746"/>
<path content="1,関東鉄道（株）,087,1.5,0.5,0.5," xlink:title="1" d="M14044.9219,-3635.9544L14044.9491,-3636.0066L14044.9599,-3636.0258L14044.9884,-3636.0824L14045.0359,-3636.1771L14045.0425,-3636.193L14045.0579,-3636.2299L14045.0691,-3636.258L14045.0805,-3636.2939L14045.0944,-3636.3396L14045.0959,-3636.3477L14045.0973,-3636.3593L14045.0973,-3636.3897L14045.0888,-3636.4488L14045.084,-3636.4746"/>
<path content="1,関東鉄道（株）,088,2.0,0.0,0.0," xlink:title="1" d="M14044.9219,-3634.3037L14044.9298,-3634.3337L14044.9604,-3634.4498L14044.9219,-3634.4569M14044.9219,-3635.9544L14044.9491,-3636.0066L14044.9599,-3636.0258L14044.9884,-3636.0824L14045.0359,-3636.1771L14045.0425,-3636.193L14045.0579,-3636.2299L14045.0691,-3636.258L14045.0805,-3636.2939L14045.0944,-3636.3396L14045.0959,-3636.3477L14045.0973,-3636.3593L14045.0973,-3636.3897L14045.0888,-3636.4488L14045.084,-3636.4746"/>
<path content="1,関東鉄道（株）,089,1.5,0.5,0.5," xlink:title="1" d="M14044.9219,-3635.9544L14044.9491,-3636.0066L14044.9599,-3636.0258L14044.9884,-3636.0824L14045.0359,-3636.1771L14045.0425,-3636.193L14045.0579,-3636.2299L14045.0691,-3636.258L14045.0805,-3636.2939L14045.0944,-3636.3396L14045.0959,-3636.3477L14045.0973,-3636.3593L14045.0973,-3636.3897L14045.0888,-3636.4488L14045.084,-3636.4746"/>
<path content="1,関東鉄道（株）,090,1.5,0.0,0.0," xlink:title="1" d="M14045.084,-3636.4746L14045.0888,-3636.4488L14045.0973,-3636.3897L14045.0973,-3636.3593L14045.0959,-3636.3477L14045.0944,-3636.3396L14045.0805,-3636.2939L14045.0691,-3636.258L14045.0579,-3636.2299L14045.0425,-3636.193L14045.0359,-3636.1771L14044.9884,-3636.0824L14044.9599,-3636.0258L14044.9491,-3636.0066L14044.9219,-3635.9544"/>
<path content="1,関東鉄道（株）,千波上本郷・笠原・払沢線,38.0,28.0,28.0," xlink:title="1" d="M14046.3243,-3634.2773L14046.3376,-3634.3371L14046.3448,-3634.388L14046.3883,-3634.6137L14046.3886,-3634.616L14046.4066,-3634.717L14046.4101,-3634.7337L14046.4136,-3634.7504L14046.4099,-3634.8104L14046.4057,-3634.8709L14046.3936,-3635.0181L14046.3927,-3635.0585"/>
<path content="1,関東鉄道（株）,千波上本郷・笠原・払沢線,38.0,28.0,28.0," xlink:title="1" d="M14046.3927,-3635.0585L14046.3697,-3635.0592L14046.353,-3635.0598L14046.3264,-3635.048L14046.319,-3635.0438L14046.28,-3635.0023L14046.2233,-3634.9392L14046.2085,-3634.9233L14046.1872,-3634.9053L14046.1669,-3634.8888L14046.1387,-3634.8665L14046.1298,-3634.8594L14046.1122,-3634.8474L14046.0891,-3634.8351L14046.0709,-3634.8284L14046.0481,-3634.8279L14045.9757,-3634.8289L14045.7559,-3634.8439L14045.7979,-3634.9874L14045.804,-3635.009L14045.8134,-3635.0381L14045.846,-3635.1554L14045.8165,-3635.1655L14045.7292,-3635.1955L14045.691,-3635.2077L14045.6426,-3635.2194L14045.6206,-3635.2238L14045.5867,-3635.2301L14045.5764,-3635.2338L14045.4107,-3635.2638L14045.3994,-3635.2669L14045.3782,-3635.2718L14045.136,-3635.3203L14045.0971,-3635.3309L14045.1722,-3635.4761L14045.1743,-3635.48L14045.2529,-3635.6374L14045.2699,-3635.6703L14045.277,-3635.6804L14045.2792,-3635.6823L14045.3139,-3635.7036L14045.4469,-3635.7751L14045.47,-3635.7894L14045.4818,-3635.8132L14045.5069,-3635.8742L14045.5192,-3635.9081L14045.5262,-3635.9268L14045.5308,-3635.9364L14045.5364,-3635.9445L14045.5434,-3635.9504L14045.552,-3635.9559L14045.5606,-3635.9602L14045.766,-3636.0381L14045.7812,-3636.0446L14045.8026,-3636.0526L14045.9027,-3636.0903L14045.9537,-3636.1118L14045.9712,-3636.12L14045.9889,-3636.1337L14046.0106,-3636.1553L14046.0215,-3636.1761L14046.0825,-3636.2534L14046.1033,-3636.2823L14046.1469,-3636.3228L14046.2249,-3636.3366L14046.3103,-3636.3497L14046.3413,-3636.3543L14046.3669,-3636.3547L14046.426,-3636.3578L14046.443,-3636.3579L14046.4594,-3636.3569L14046.472,-3636.3687L14046.4899,-3636.3882L14046.5109,-3636.4149L14046.5159,-3636.4205L14046.5228,-3636.4263L14046.5414,-3636.4386L14046.5542,-3636.4466L14046.5986,-3636.4746"/>
<path content="1,関東鉄道（株）,千波上本郷・笠原・払沢線,38.0,28.0,28.0," xlink:title="1" d="M14046.3927,-3635.0585L14046.3924,-3635.0652L14046.4202,-3635.0693L14046.4386,-3635.0699L14046.4528,-3635.0691L14046.5261,-3635.2053L14046.5349,-3635.2308L14046.5477,-3635.2484L14046.5502,-3635.2517L14046.5541,-3635.2551L14046.7221,-3635.3186L14046.7256,-3635.3206L14046.7278,-3635.3224L14046.745,-3635.3544L14046.753,-3635.3732L14046.817,-3635.4867L14046.8247,-3635.5001L14046.8836,-3635.6131L14046.8848,-3635.6217L14046.9093,-3635.6688L14046.9254,-3635.7051L14046.9283,-3635.7188L14046.9302,-3635.7481L14046.9332,-3635.7692L14046.9403,-3635.8028L14046.9558,-3635.8587L14046.9527,-3635.8765L14046.9451,-3635.9118L14046.9392,-3635.9363L14046.9375,-3635.9561L14046.9398,-3635.9741L14046.9436,-3635.9871L14046.9477,-3635.9985L14046.9521,-3636.008L14046.9587,-3636.0179L14046.9723,-3636.0361L14046.9811,-3636.0449L14047.0134,-3636.071L14047.0407,-3636.0884L14047.0445,-3636.091L14047.0489,-3636.0958L14047.0613,-3636.1217L14047.0711,-3636.1489L14047.0711,-3636.1551L14047.0684,-3636.1616L14047.0619,-3636.1704L14047.0313,-3636.2077L14047.0271,-3636.2144L14047.026,-3636.2223L14047.027,-3636.2264L14047.0433,-3636.2398L14047.0685,-3636.2611L14047.0738,-3636.264L14047.0651,-3636.2729L14046.9913,-3636.3465L14046.93,-3636.4095L14046.9234,-3636.4134L14046.862,-3636.4746"/>
<path content="1,関東鉄道（株）,新TMライナー,3.5,2.0,2.0," xlink:title="1" d="M14044.9219,-3634.3037L14044.9298,-3634.3337L14044.9604,-3634.4498L14044.9219,-3634.4569M14044.9219,-3634.8377L14044.9287,-3634.8373L14044.953,-3634.833L14044.9814,-3634.8266L14045.0132,-3634.8194L14045.2063,-3634.7759L14045.2221,-3634.7723L14045.2506,-3634.7657L14045.4076,-3634.7289L14045.4368,-3634.7238L14045.4386,-3634.7235L14045.4584,-3634.7207L14045.4901,-3634.7178L14045.5101,-3634.7163L14045.5826,-3634.711L14045.6088,-3634.7097L14045.6947,-3634.7085L14045.6959,-3634.7086L14045.7208,-3634.7104L14045.7408,-3634.7119L14045.9342,-3634.727L14045.9467,-3634.735L14045.9887,-3634.7454L14045.9939,-3634.7468L14046.0241,-3634.751L14046.1325,-3634.7598L14046.1416,-3634.7604L14046.1769,-3634.7625L14046.2135,-3634.7647L14046.2182,-3634.7645L14046.2682,-3634.7628L14046.3097,-3634.7604L14046.3678,-3634.7552L14046.4136,-3634.7504L14046.6362,-3634.7267L14046.6501,-3634.7256L14046.6838,-3634.717L14046.6915,-3634.7133L14046.7024,-3634.703L14046.7223,-3634.7008L14046.7783,-3634.6939L14046.7908,-3634.6919L14046.8644,-3634.6768L14046.8943,-3634.6689L14046.9141,-3634.6637L14046.9951,-3634.6362L14047.0112,-3634.6306L14047.051,-3634.6159L14047.1173,-3634.5898L14047.1191,-3634.5891"/>
<path content="1,関東鉄道（株）,水戸駅～東京線（県庁）,3.0,4.0,4.0," xlink:title="1" d="M14044.9219,-3634.8377L14044.9287,-3634.8373L14044.953,-3634.833L14044.9814,-3634.8266L14045.0132,-3634.8194L14045.2063,-3634.7759L14045.2221,-3634.7723L14045.2506,-3634.7657L14045.4076,-3634.7289L14045.4368,-3634.7238L14045.4386,-3634.7235L14045.4584,-3634.7207L14045.4901,-3634.7178L14045.5101,-3634.7163L14045.5826,-3634.711L14045.6088,-3634.7097L14045.6947,-3634.7085L14045.6959,-3634.7086L14045.7208,-3634.7104L14045.7408,-3634.7119L14045.9342,-3634.727L14045.9806,-3634.7308L14045.9969,-3634.7321L14046.0235,-3634.7345L14046.1337,-3634.7433L14046.1767,-3634.7448L14046.2191,-3634.7462L14046.2226,-3634.7462L14046.276,-3634.7456L14046.3369,-3634.7415L14046.4101,-3634.7337L14046.5607,-3634.7177L14046.6344,-3634.7104L14046.7024,-3634.703L14046.7223,-3634.7008L14046.7783,-3634.6939L14046.7908,-3634.6919L14046.8644,-3634.6768L14046.8943,-3634.6689L14046.9141,-3634.6637L14046.9951,-3634.6362L14047.0112,-3634.6306L14047.051,-3634.6159L14047.1173,-3634.5898L14047.1191,-3634.5891"/>
<path content="1,関東鉄道（株）,水戸～茨城空港線,1.0,1.0,1.0," xlink:title="1" d="M14046.3243,-3634.2773L14046.3376,-3634.3371L14046.3448,-3634.388L14046.3883,-3634.6137L14046.3886,-3634.616L14046.4066,-3634.717L14046.6109,-3634.6966L14046.6339,-3634.6963L14046.6846,-3634.6981L14046.7024,-3634.703L14046.7223,-3634.7008L14046.7783,-3634.6939L14046.7908,-3634.6919L14046.8644,-3634.6768L14046.8943,-3634.6689L14046.9141,-3634.6637L14046.9951,-3634.6362L14047.0112,-3634.6306L14047.051,-3634.6159L14047.1173,-3634.5898L14047.1191,-3634.5891"/>
<path content="1,関鉄グリーンバス（株）,400-1,0.5,0.0,0.0," xlink:title="1" d="M14044.9219,-3635.9544L14044.9491,-3636.0066L14044.9599,-3636.0258L14044.9884,-3636.0824L14045.0359,-3636.1771L14045.0425,-3636.193L14045.0579,-3636.2299L14045.0691,-3636.258L14045.0805,-3636.2939L14045.0944,-3636.3396L14045.0959,-3636.3477L14045.0973,-3636.3593L14045.0973,-3636.3897L14045.0888,-3636.4488L14045.084,-3636.4746"/>
<path content="1,関鉄グリーンバス（株）,400-2,3.0,2.0,2.0," xlink:title="1" d="M14044.9219,-3635.9544L14044.9491,-3636.0066L14044.9599,-3636.0258L14044.9884,-3636.0824L14045.0359,-3636.1771L14045.0425,-3636.193L14045.0579,-3636.2299L14045.0691,-3636.258L14045.0805,-3636.2939L14045.0944,-3636.3396L14045.0959,-3636.3477L14045.0973,-3636.3593L14045.0973,-3636.3897L14045.0888,-3636.4488L14045.084,-3636.4746"/>
<path content="1,関鉄グリーンバス（株）,401-1,6.0,5.0,5.0," xlink:title="1" d="M14044.9219,-3635.9544L14044.9491,-3636.0066L14044.9599,-3636.0258L14044.9884,-3636.0824L14045.0359,-3636.1771L14045.0425,-3636.193L14045.0579,-3636.2299L14045.0691,-3636.258L14045.0805,-3636.2939L14045.0944,-3636.3396L14045.0959,-3636.3477L14045.0973,-3636.3593L14045.0973,-3636.3897L14045.0888,-3636.4488L14045.084,-3636.4746"/>
<path content="1,関鉄グリーンバス（株）,410-2,4.5,3.0,3.0," xlink:title="1" d="M14044.9219,-3635.9544L14044.9491,-3636.0066L14044.9599,-3636.0258L14044.9884,-3636.0824L14045.0359,-3636.1771L14045.0425,-3636.193L14045.0579,-3636.2299L14045.0691,-3636.258L14045.0805,-3636.2939L14045.0944,-3636.3396L14045.0959,-3636.3477L14045.0973,-3636.3593L14045.0973,-3636.3897L14045.0888,-3636.4488L14045.084,-3636.4746"/>
<path content="1,関鉄グリーンバス（株）,410-6,0.0,1.0,1.0," xlink:title="1" d="M14044.9219,-3635.9544L14044.9491,-3636.0066L14044.9599,-3636.0258L14044.9884,-3636.0824L14045.0359,-3636.1771L14045.0425,-3636.193L14045.0579,-3636.2299L14045.0691,-3636.258L14045.0805,-3636.2939L14045.0944,-3636.3396L14045.0959,-3636.3477L14045.0973,-3636.3593L14045.0973,-3636.3897L14045.0888,-3636.4488L14045.084,-3636.4746"/>
<path content="1,関鉄グリーンバス（株）,420-1,0.5,0.5,0.5," xlink:title="1" d="M14044.9219,-3635.9544L14044.9491,-3636.0066L14044.9599,-3636.0258L14044.9884,-3636.0824L14045.0359,-3636.1771L14045.0425,-3636.193L14045.0579,-3636.2299L14045.0691,-3636.258L14045.0805,-3636.2939L14045.0944,-3636.3396L14045.0959,-3636.3477L14045.0973,-3636.3593L14045.0973,-3636.3897L14045.0888,-3636.4488L14045.084,-3636.4746"/>
<path content="1,関鉄グリーンバス（株）,420-2,1.0,0.5,0.5," xlink:title="1" d="M14044.9219,-3635.9544L14044.9491,-3636.0066L14044.9599,-3636.0258L14044.9884,-3636.0824L14045.0359,-3636.1771L14045.0425,-3636.193L14045.0579,-3636.2299L14045.0691,-3636.258L14045.0805,-3636.2939L14045.0944,-3636.3396L14045.0959,-3636.3477L14045.0973,-3636.3593L14045.0973,-3636.3897L14045.0888,-3636.4488L14045.084,-3636.4746"/>
<path content="1,関鉄グリーンバス（株）,421-1,3.0,2.0,2.0," xlink:title="1" d="M14044.9219,-3635.9544L14044.9491,-3636.0066L14044.9599,-3636.0258L14044.9884,-3636.0824L14045.0359,-3636.1771L14045.0425,-3636.193L14045.0579,-3636.2299L14045.0691,-3636.258L14045.0805,-3636.2939L14045.0944,-3636.3396L14045.0959,-3636.3477L14045.0973,-3636.3593L14045.0973,-3636.3897L14045.0888,-3636.4488L14045.084,-3636.4746"/>
<path content="1,関鉄グリーンバス（株）,421-2,2.5,2.0,2.0," xlink:title="1" d="M14044.9219,-3635.9544L14044.9491,-3636.0066L14044.9599,-3636.0258L14044.9884,-3636.0824L14045.0359,-3636.1771L14045.0425,-3636.193L14045.0579,-3636.2299L14045.0691,-3636.258L14045.0805,-3636.2939L14045.0944,-3636.3396L14045.0959,-3636.3477L14045.0973,-3636.3593L14045.0973,-3636.3897L14045.0888,-3636.4488L14045.084,-3636.4746"/>
<path content="1,関鉄グリーンバス（株）,422-1,2.0,2.0,2.0," xlink:title="1" d="M14044.9219,-3635.9544L14044.9491,-3636.0066L14044.9599,-3636.0258L14044.9884,-3636.0824L14045.0359,-3636.1771L14045.0425,-3636.193L14045.0579,-3636.2299L14045.0691,-3636.258L14045.0805,-3636.2939L14045.0944,-3636.3396L14045.0959,-3636.3477L14045.0973,-3636.3593L14045.0973,-3636.3897L14045.0888,-3636.4488L14045.084,-3636.4746"/>
<path content="1,関鉄グリーンバス（株）,430-1,3.5,3.5,3.5," xlink:title="1" d="M14045.084,-3636.4746L14045.0888,-3636.4488L14045.0973,-3636.3897L14045.0973,-3636.3593L14045.0959,-3636.3477L14045.0944,-3636.3396L14045.0805,-3636.2939L14045.0691,-3636.258L14045.0579,-3636.2299L14045.0425,-3636.193L14045.0359,-3636.1771L14044.9884,-3636.0824L14044.9599,-3636.0258L14044.9491,-3636.0066L14044.9219,-3635.9544"/>
<path content="1,関鉄グリーンバス（株）,431-1,2.0,0.0,0.0," xlink:title="1" d="M14044.9219,-3635.9544L14044.9491,-3636.0066L14044.9599,-3636.0258L14044.9884,-3636.0824L14045.0359,-3636.1771L14045.0425,-3636.193L14045.0579,-3636.2299L14045.0691,-3636.258L14045.0805,-3636.2939L14045.0944,-3636.3396L14045.0959,-3636.3477L14045.0973,-3636.3593L14045.0973,-3636.3897L14045.0888,-3636.4488L14045.084,-3636.4746"/>
<path content="1,関鉄観光バス（株）,新TMライナー,3.5,2.0,2.0," xlink:title="1" d="M14044.9219,-3634.3037L14044.9298,-3634.3337L14044.9604,-3634.4498L14044.9219,-3634.4569M14044.9219,-3634.8377L14044.9287,-3634.8373L14044.953,-3634.833L14044.9814,-3634.8266L14045.0132,-3634.8194L14045.2063,-3634.7759L14045.2221,-3634.7723L14045.2506,-3634.7657L14045.4076,-3634.7289L14045.4368,-3634.7238L14045.4386,-3634.7235L14045.4584,-3634.7207L14045.4901,-3634.7178L14045.5101,-3634.7163L14045.5826,-3634.711L14045.6088,-3634.7097L14045.6947,-3634.7085L14045.6959,-3634.7086L14045.7208,-3634.7104L14045.7408,-3634.7119L14045.9342,-3634.727L14045.9467,-3634.735L14045.9887,-3634.7454L14045.9939,-3634.7468L14046.0241,-3634.751L14046.1325,-3634.7598L14046.1416,-3634.7604L14046.1769,-3634.7625L14046.2135,-3634.7647L14046.2182,-3634.7645L14046.2682,-3634.7628L14046.3097,-3634.7604L14046.3678,-3634.7552L14046.4136,-3634.7504L14046.6362,-3634.7267L14046.6501,-3634.7256L14046.6838,-3634.717L14046.6915,-3634.7133L14046.7024,-3634.703L14046.7223,-3634.7008L14046.7783,-3634.6939L14046.7908,-3634.6919L14046.8644,-3634.6768L14046.8943,-3634.6689L14046.9141,-3634.6637L14046.9951,-3634.6362L14047.0112,-3634.6306L14047.051,-3634.6159L14047.1173,-3634.5898L14047.1191,-3634.5891"/>
</g>
</svg>
