<?xml version="1.0" encoding="UTF-8"?>
<svg  xmlns="http://www.w3.org/2000/svg" xmlns:xlink="http://www.w3.org/1999/xlink" xmlns:go="http://purl.org/svgmap/profile" property="N07_001,N07_002,N07_003,N07_004,N07_005,N07_006,N07_007" viewBox="13972.412109375 -3571.6552734375 1.0986328125 1.0986328125" go:dataArea="13972.412109375 -3571.6552734375 1.0986328125 1.0986328125" >
<metadata>
 <rdf:RDF xmlns:rdf="http://www.w3.org/1999/02/22-rdf-syntax-ns#" xmlns:crs="http://opengis.org/xmldtds/transformations.dtd" xmlns:svg="http://www.w3.org/svg" >
  <rdf:Description>
   <crs:CoordinateReferenceSystem rdf:resource="http://purl.org/crs/84" svg:transform="matrix(100.0,0.0,0.0,-100.0,0.0,0.0)" />
  </rdf:Description>
 </rdf:RDF>
</metadata>
<globalCoordinateSystem srsName="http://purl.org/crs/84" transform="matrix(100.0,0.0,0.0,-100.0,0.0,0.0)" />
<defs>
 <g id="p0" >
  <circle cx="0.0" cy="0.0" r="3" stroke="green" stroke-width="0.75" vector-effect="non-scaling-stroke" />
 </g>
</defs>
<g fill="none" fill-rule="evenodd" stroke="#FF00FF" stroke-width="0.75" opacity="0.5" vector-effect="non-scaling-stroke" stroke-linejoin="bevel" >
<path content="1,JRバス東北（株）,ドリーム盛岡・らくちん号,2.2,3.0,3.0," xlink:title="1" d="M13973.5107,-3570.9185L13973.4579,-3570.9334L13973.4271,-3570.9438L13973.3995,-3570.9531L13973.3491,-3570.9733L13973.2974,-3570.9933L13973.2665,-3571.0053L13973.2132,-3571.0302L13973.2099,-3571.0316L13973.208,-3571.0324L13973.2021,-3571.0348L13973.1881,-3571.0407L13973.1869,-3571.0412L13973.1852,-3571.0419L13973.1826,-3571.043L13973.1817,-3571.0434L13973.1809,-3571.0438L13973.1799,-3571.0442L13973.1791,-3571.0446L13973.1738,-3571.047L13973.1713,-3571.0481L13973.1713,-3571.0481L13973.1713,-3571.0481L13973.1713,-3571.0481L13973.1713,-3571.0481L13973.1646,-3571.0511L13973.1502,-3571.0576L13973.147,-3571.0591L13973.1423,-3571.0621L13973.1378,-3571.065L13973.1371,-3571.0655L13973.1333,-3571.068L13973.1285,-3571.0711L13973.126,-3571.0727L13973.1255,-3571.073L13973.1248,-3571.0735L13973.1206,-3571.0762L13973.1199,-3571.0767L13973.1161,-3571.0791L13973.114,-3571.0805L13973.1134,-3571.0809L13973.1128,-3571.0813L13973.1108,-3571.0826L13973.1103,-3571.0829L13973.1103,-3571.0829L13973.1103,-3571.0829L13973.1103,-3571.0829L13973.1103,-3571.0829L13973.1095,-3571.0834L13973.1089,-3571.0838L13973.1085,-3571.0842L13973.1085,-3571.0842L13973.1081,-3571.0845L13973.1077,-3571.0849L13973.1068,-3571.0857L13973.1057,-3571.0866L13973.1047,-3571.0875L13973.1022,-3571.0898L13973.1015,-3571.0904L13973.1009,-3571.0909L13973.1003,-3571.0915L13973.0972,-3571.0942L13973.0958,-3571.0954L13973.0947,-3571.0964L13973.0936,-3571.0974L13973.093,-3571.0979L13973.093,-3571.0979L13973.093,-3571.0979L13973.0925,-3571.0983L13973.0766,-3571.1124L13973.0732,-3571.1154L13973.0729,-3571.1157L13973.0729,-3571.1157L13973.0516,-3571.1401L13973.0326,-3571.163L13973.0184,-3571.1882L13973.0093,-3571.2062L13972.9956,-3571.2331L13972.9851,-3571.2532L13972.9567,-3571.3071L13972.8392,-3571.5489L13972.7825,-3571.6553"/>
<path content="1,JRバス東北（株）,ラ・フォーレ号,1.0,1.0,1.0," xlink:title="1" d="M13973.5107,-3570.9185L13973.4579,-3570.9334L13973.4271,-3570.9438L13973.3995,-3570.9531L13973.3491,-3570.9733L13973.2974,-3570.9933L13973.2665,-3571.0053L13973.2132,-3571.0302L13973.2099,-3571.0316L13973.208,-3571.0324L13973.2021,-3571.0348L13973.1881,-3571.0407L13973.1869,-3571.0412L13973.1852,-3571.0419L13973.1826,-3571.043L13973.1817,-3571.0434L13973.1809,-3571.0438L13973.1799,-3571.0442L13973.1791,-3571.0446L13973.1738,-3571.047L13973.1713,-3571.0481L13973.1713,-3571.0481L13973.1713,-3571.0481L13973.1713,-3571.0481L13973.1713,-3571.0481L13973.1646,-3571.0511L13973.1502,-3571.0576L13973.147,-3571.0591L13973.1423,-3571.0621L13973.1378,-3571.065L13973.1371,-3571.0655L13973.1333,-3571.068L13973.1285,-3571.0711L13973.126,-3571.0727L13973.1255,-3571.073L13973.1248,-3571.0735L13973.1206,-3571.0762L13973.1199,-3571.0767L13973.1161,-3571.0791L13973.114,-3571.0805L13973.1134,-3571.0809L13973.1128,-3571.0813L13973.1108,-3571.0826L13973.1103,-3571.0829L13973.1103,-3571.0829L13973.1103,-3571.0829L13973.1103,-3571.0829L13973.1103,-3571.0829L13973.1095,-3571.0834L13973.1089,-3571.0838L13973.1085,-3571.0842L13973.1085,-3571.0842L13973.1081,-3571.0845L13973.1077,-3571.0849L13973.1068,-3571.0857L13973.1057,-3571.0866L13973.1047,-3571.0875L13973.1022,-3571.0898L13973.1015,-3571.0904L13973.1009,-3571.0909L13973.1003,-3571.0915L13973.0972,-3571.0942L13973.0958,-3571.0954L13973.0947,-3571.0964L13973.0936,-3571.0974L13973.093,-3571.0979L13973.093,-3571.0979L13973.093,-3571.0979L13973.0925,-3571.0983L13973.0766,-3571.1124L13973.0732,-3571.1154L13973.0729,-3571.1157L13973.0729,-3571.1157L13973.0516,-3571.1401L13973.0326,-3571.163L13973.0184,-3571.1882L13973.0093,-3571.2062L13972.9956,-3571.2331L13972.9851,-3571.2532L13972.9567,-3571.3071L13972.8392,-3571.5489L13972.7825,-3571.6553"/>
<path content="1,JRバス関東（株）,ドリーム盛岡号,2.2,3.0,3.0," xlink:title="1" d="M13972.4121,-3571.5171L13972.4403,-3571.5113L13972.4513,-3571.5107L13972.4598,-3571.5078L13972.4727,-3571.5034L13972.4817,-3571.4972L13972.4976,-3571.4831L13972.5224,-3571.4578L13972.5535,-3571.4263L13972.6205,-3571.3592L13972.6316,-3571.3497L13972.6384,-3571.3411L13972.6647,-3571.3143L13972.6819,-3571.2961L13972.6971,-3571.2837L13972.724,-3571.2623L13972.7364,-3571.2516L13972.7627,-3571.2319L13972.771,-3571.2274L13972.8055,-3571.2121L13972.8304,-3571.2059L13972.8469,-3571.2037L13972.898,-3571.2014L13972.9871,-3571.2043L13973.0093,-3571.2062L13973.0184,-3571.1882L13973.0326,-3571.163L13973.0516,-3571.1401L13973.0729,-3571.1157L13973.0732,-3571.1154L13973.0766,-3571.1124L13973.0925,-3571.0983L13973.093,-3571.0979L13973.0936,-3571.0974L13973.0947,-3571.0964L13973.0958,-3571.0954L13973.0972,-3571.0942L13973.1003,-3571.0915L13973.1009,-3571.0909L13973.1015,-3571.0904L13973.1022,-3571.0898L13973.1047,-3571.0875L13973.1057,-3571.0866L13973.1068,-3571.0857L13973.1077,-3571.0849L13973.1081,-3571.0845L13973.1085,-3571.0842L13973.1089,-3571.0838L13973.1095,-3571.0834L13973.1103,-3571.0829L13973.1103,-3571.0829L13973.1108,-3571.0826L13973.1128,-3571.0813L13973.1134,-3571.0809L13973.114,-3571.0805L13973.1161,-3571.0791L13973.1199,-3571.0767L13973.1206,-3571.0762L13973.1248,-3571.0735L13973.1255,-3571.073L13973.126,-3571.0727L13973.1285,-3571.0711L13973.1333,-3571.068L13973.1371,-3571.0655L13973.1378,-3571.065L13973.1423,-3571.0621L13973.147,-3571.0591L13973.1502,-3571.0576L13973.1646,-3571.0511L13973.1713,-3571.0481L13973.1738,-3571.047L13973.1791,-3571.0446L13973.1799,-3571.0442L13973.1809,-3571.0438L13973.1817,-3571.0434L13973.1826,-3571.043L13973.1852,-3571.0419L13973.1869,-3571.0412L13973.1881,-3571.0407L13973.2021,-3571.0348L13973.208,-3571.0324L13973.2099,-3571.0316L13973.2132,-3571.0302L13973.2665,-3571.0053L13973.2974,-3570.9933L13973.3491,-3570.9733L13973.3995,-3570.9531L13973.4271,-3570.9438L13973.4579,-3570.9334L13973.5107,-3570.9185"/>
<path content="1,JRバス関東（株）,マロニエ新宿号・マロニエ東京号,34.0,37.0,37.0," xlink:title="1" d="M13973.5107,-3570.9185L13973.4579,-3570.9334L13973.4271,-3570.9438L13973.3995,-3570.9531L13973.3491,-3570.9733L13973.2974,-3570.9933L13973.2665,-3571.0053L13973.2132,-3571.0302L13973.2099,-3571.0316L13973.208,-3571.0324L13973.2021,-3571.0348L13973.1881,-3571.0407L13973.1869,-3571.0412L13973.1852,-3571.0419L13973.1826,-3571.043L13973.1817,-3571.0434L13973.1809,-3571.0438L13973.1799,-3571.0442L13973.1791,-3571.0446L13973.1738,-3571.047L13973.1713,-3571.0481L13973.1646,-3571.0511L13973.1502,-3571.0576L13973.147,-3571.0591L13973.1423,-3571.0621L13973.1378,-3571.065L13973.1371,-3571.0655L13973.1333,-3571.068L13973.1285,-3571.0711L13973.126,-3571.0727L13973.1255,-3571.073L13973.1248,-3571.0735L13973.1206,-3571.0762L13973.1199,-3571.0767L13973.1161,-3571.0791L13973.114,-3571.0805L13973.1134,-3571.0809L13973.1128,-3571.0813L13973.1108,-3571.0826L13973.1103,-3571.0829L13973.1103,-3571.0829L13973.1095,-3571.0834L13973.1089,-3571.0838L13973.1085,-3571.0842L13973.1081,-3571.0845L13973.1077,-3571.0849L13973.1068,-3571.0857L13973.1057,-3571.0866L13973.1047,-3571.0875L13973.1022,-3571.0898L13973.1015,-3571.0904L13973.1009,-3571.0909L13973.1003,-3571.0915L13973.0972,-3571.0942L13973.0958,-3571.0954L13973.0947,-3571.0964L13973.0936,-3571.0974L13973.093,-3571.0979L13973.0925,-3571.0983L13973.0766,-3571.1124L13973.0732,-3571.1154L13973.0729,-3571.1157L13973.0516,-3571.1401L13973.0326,-3571.163L13973.0184,-3571.1882L13973.0093,-3571.2062L13972.9871,-3571.2043L13972.898,-3571.2014L13972.8469,-3571.2037L13972.8304,-3571.2059L13972.8055,-3571.2121L13972.771,-3571.2274L13972.7627,-3571.2319L13972.7364,-3571.2516L13972.724,-3571.2623L13972.6971,-3571.2837L13972.6819,-3571.2961L13972.6647,-3571.3143L13972.6384,-3571.3411L13972.6316,-3571.3497L13972.6205,-3571.3592L13972.5535,-3571.4263L13972.5224,-3571.4578L13972.4976,-3571.4831L13972.4817,-3571.4972L13972.4727,-3571.5034L13972.4598,-3571.5078L13972.4513,-3571.5107L13972.4403,-3571.5113L13972.4121,-3571.5171"/>
<path content="1,JRバス関東（株）,夢街道会津号,6.0,6.0,6.0," xlink:title="1" d="M13973.5107,-3570.9185L13973.4579,-3570.9334L13973.4271,-3570.9438L13973.3995,-3570.9531L13973.3491,-3570.9733L13973.2974,-3570.9933L13973.2665,-3571.0053L13973.2132,-3571.0302L13973.2099,-3571.0316L13973.208,-3571.0324L13973.2021,-3571.0348L13973.1881,-3571.0407L13973.1869,-3571.0412L13973.1852,-3571.0419L13973.1826,-3571.043L13973.1817,-3571.0434L13973.1809,-3571.0438L13973.1799,-3571.0442L13973.1791,-3571.0446L13973.1738,-3571.047L13973.1713,-3571.0481L13973.1646,-3571.0511L13973.1502,-3571.0576L13973.147,-3571.0591L13973.1423,-3571.0621L13973.1378,-3571.065L13973.1371,-3571.0655L13973.1333,-3571.068L13973.1285,-3571.0711L13973.126,-3571.0727L13973.1255,-3571.073L13973.1248,-3571.0735L13973.1206,-3571.0762L13973.1199,-3571.0767L13973.1161,-3571.0791L13973.114,-3571.0805L13973.1134,-3571.0809L13973.1128,-3571.0813L13973.1108,-3571.0826L13973.1103,-3571.0829L13973.1103,-3571.0829L13973.1095,-3571.0834L13973.1089,-3571.0838L13973.1085,-3571.0842L13973.1081,-3571.0845L13973.1077,-3571.0849L13973.1068,-3571.0857L13973.1057,-3571.0866L13973.1047,-3571.0875L13973.1022,-3571.0898L13973.1015,-3571.0904L13973.1009,-3571.0909L13973.1003,-3571.0915L13973.0972,-3571.0942L13973.0958,-3571.0954L13973.0947,-3571.0964L13973.0936,-3571.0974L13973.093,-3571.0979L13973.0925,-3571.0983L13973.0766,-3571.1124L13973.0732,-3571.1154L13973.0729,-3571.1157L13973.0516,-3571.1401L13973.0326,-3571.163L13973.0184,-3571.1882L13973.0093,-3571.2062L13972.9871,-3571.2043L13972.898,-3571.2014L13972.8469,-3571.2037L13972.8304,-3571.2059L13972.8055,-3571.2121L13972.771,-3571.2274L13972.7627,-3571.2319L13972.7364,-3571.2516L13972.724,-3571.2623L13972.6971,-3571.2837L13972.6819,-3571.2961L13972.6647,-3571.3143L13972.6384,-3571.3411L13972.6316,-3571.3497L13972.6205,-3571.3592L13972.5535,-3571.4263L13972.5224,-3571.4578L13972.4976,-3571.4831L13972.4817,-3571.4972L13972.4727,-3571.5034L13972.4598,-3571.5078L13972.4513,-3571.5107L13972.4403,-3571.5113L13972.4121,-3571.5171"/>
<path content="1,JRバス関東（株）,新宿・東京～常陸太田・大宮・大子,2.0,2.0,2.0," xlink:title="1" d="M13972.4121,-3571.5171L13972.4403,-3571.5113L13972.4513,-3571.5107L13972.4598,-3571.5078L13972.4727,-3571.5034L13972.4817,-3571.4972L13972.4976,-3571.4831L13972.5224,-3571.4578L13972.5535,-3571.4263L13972.6205,-3571.3592L13972.6316,-3571.3497L13972.6384,-3571.3411L13972.6647,-3571.3143L13972.6819,-3571.2961L13972.6971,-3571.2837L13972.724,-3571.2623L13972.7364,-3571.2516L13972.7627,-3571.2319L13972.771,-3571.2274L13972.8055,-3571.2121L13972.8304,-3571.2059L13972.8469,-3571.2037L13972.898,-3571.2014L13972.9871,-3571.2043L13973.0093,-3571.2062L13973.0184,-3571.1882L13973.0326,-3571.163L13973.0516,-3571.1401L13973.0729,-3571.1157L13973.0732,-3571.1154L13973.0766,-3571.1124L13973.0925,-3571.0983L13973.093,-3571.0979L13973.0936,-3571.0974L13973.0947,-3571.0964L13973.0958,-3571.0954L13973.0972,-3571.0942L13973.1003,-3571.0915L13973.1009,-3571.0909L13973.1015,-3571.0904L13973.1022,-3571.0898L13973.1047,-3571.0875L13973.1057,-3571.0866L13973.1068,-3571.0857L13973.1077,-3571.0849L13973.1081,-3571.0845L13973.1085,-3571.0842L13973.1089,-3571.0838L13973.1095,-3571.0834L13973.1103,-3571.0829L13973.1103,-3571.0829L13973.1108,-3571.0826L13973.1128,-3571.0813L13973.1134,-3571.0809L13973.114,-3571.0805L13973.1161,-3571.0791L13973.1199,-3571.0767L13973.1206,-3571.0762L13973.1248,-3571.0735L13973.1255,-3571.073L13973.126,-3571.0727L13973.1285,-3571.0711L13973.1333,-3571.068L13973.1371,-3571.0655L13973.1378,-3571.065L13973.1423,-3571.0621L13973.147,-3571.0591L13973.1502,-3571.0576L13973.1646,-3571.0511L13973.1713,-3571.0481L13973.1738,-3571.047L13973.1791,-3571.0446L13973.1799,-3571.0442L13973.1809,-3571.0438L13973.1817,-3571.0434L13973.1826,-3571.043L13973.1852,-3571.0419L13973.1869,-3571.0412L13973.1881,-3571.0407L13973.2021,-3571.0348L13973.208,-3571.0324L13973.2099,-3571.0316L13973.2132,-3571.0302L13973.2665,-3571.0053L13973.2974,-3570.9933L13973.3491,-3570.9733L13973.3995,-3570.9531L13973.4271,-3570.9438L13973.4579,-3570.9334L13973.5107,-3570.9185"/>
<path content="1,イーグルバス（株）,川越～羽田空港高速直結バス,2.5,2.5,2.5," xlink:title="1" d="M13973.5107,-3570.9185L13973.4579,-3570.9334L13973.4271,-3570.9438L13973.3995,-3570.9531L13973.3491,-3570.9733L13973.2974,-3570.9933L13973.2665,-3571.0053L13973.2132,-3571.0302L13973.2099,-3571.0316L13973.208,-3571.0324L13973.2021,-3571.0348L13973.1881,-3571.0407L13973.1869,-3571.0412L13973.1852,-3571.0419L13973.1826,-3571.043L13973.1817,-3571.0434L13973.1809,-3571.0438L13973.1799,-3571.0442L13973.1791,-3571.0446L13973.1738,-3571.047L13973.1713,-3571.0481L13973.1646,-3571.0511L13973.1502,-3571.0576L13973.147,-3571.0591L13973.1423,-3571.0621L13973.1378,-3571.065L13973.1371,-3571.0655L13973.1333,-3571.068L13973.1285,-3571.0711L13973.126,-3571.0727L13973.1255,-3571.073L13973.1248,-3571.0735L13973.1206,-3571.0762L13973.1199,-3571.0767L13973.1161,-3571.0791L13973.114,-3571.0805L13973.1134,-3571.0809L13973.1128,-3571.0813L13973.1108,-3571.0826L13973.1103,-3571.0829L13973.1103,-3571.0829L13973.1095,-3571.0834L13973.1089,-3571.0838L13973.1085,-3571.0842L13973.1081,-3571.0845L13973.1077,-3571.0849L13973.1068,-3571.0857L13973.1057,-3571.0866L13973.1047,-3571.0875L13973.1022,-3571.0898L13973.1015,-3571.0904L13973.1009,-3571.0909L13973.1003,-3571.0915L13973.0972,-3571.0942L13973.0958,-3571.0954L13973.0947,-3571.0964L13973.0936,-3571.0974L13973.093,-3571.0979L13973.0925,-3571.0983L13973.0766,-3571.1124L13973.0732,-3571.1154L13973.0729,-3571.1157L13973.0516,-3571.1401L13973.0326,-3571.163L13973.0184,-3571.1882L13973.0093,-3571.2062L13972.9956,-3571.2331L13972.9851,-3571.2532L13972.9567,-3571.3071L13972.8392,-3571.5489L13972.7825,-3571.6553"/>
<path content="1,三重交通（株）,勝浦・南紀～横浜・東京・大宮,1.0,1.0,1.0," xlink:title="1" d="M13973.5107,-3570.9185L13973.5107,-3570.9185L13973.4579,-3570.9334L13973.3995,-3570.9531L13973.3491,-3570.9732L13973.2665,-3571.0053L13973.2132,-3571.0302L13973.1817,-3571.0433L13973.147,-3571.059L13973.1083,-3571.0842L13973.0728,-3571.1157L13973.0516,-3571.1401L13973.0326,-3571.163L13973.0184,-3571.1882L13972.9956,-3571.2331L13972.9851,-3571.2531L13972.9567,-3571.3071L13972.8392,-3571.5489L13972.7825,-3571.6553"/>
<path content="1,京浜急行バス（株）,ノクターン号,3.4,4.0,4.0," xlink:title="1" d="M13973.5107,-3570.9185L13973.4579,-3570.9334L13973.4271,-3570.9438L13973.3995,-3570.9531L13973.3491,-3570.9733L13973.2974,-3570.9933L13973.2665,-3571.0053L13973.2132,-3571.0302L13973.2099,-3571.0316L13973.208,-3571.0324L13973.2021,-3571.0348L13973.1881,-3571.0407L13973.1869,-3571.0412L13973.1852,-3571.0419L13973.1826,-3571.043L13973.1817,-3571.0434L13973.1809,-3571.0438L13973.1799,-3571.0442L13973.1791,-3571.0446L13973.1738,-3571.047L13973.1713,-3571.0481L13973.1713,-3571.0481L13973.1713,-3571.0481L13973.1713,-3571.0481L13973.1646,-3571.0511L13973.1502,-3571.0576L13973.147,-3571.0591L13973.1423,-3571.0621L13973.1378,-3571.065L13973.1371,-3571.0655L13973.1333,-3571.068L13973.1285,-3571.0711L13973.126,-3571.0727L13973.126,-3571.0727L13973.1255,-3571.073L13973.1248,-3571.0735L13973.1206,-3571.0762L13973.1199,-3571.0767L13973.1161,-3571.0791L13973.114,-3571.0805L13973.1134,-3571.0809L13973.1128,-3571.0813L13973.1108,-3571.0826L13973.1104,-3571.0828L13973.1104,-3571.0828L13973.1104,-3571.0829L13973.1103,-3571.0829L13973.1103,-3571.0829L13973.1095,-3571.0834L13973.1089,-3571.0838L13973.1086,-3571.0841L13973.1085,-3571.0842L13973.1085,-3571.0842L13973.1081,-3571.0845L13973.1077,-3571.0849L13973.1068,-3571.0857L13973.1057,-3571.0866L13973.1047,-3571.0875L13973.1022,-3571.0898L13973.1015,-3571.0904L13973.1009,-3571.0909L13973.1003,-3571.0915L13973.0972,-3571.0942L13973.0958,-3571.0954L13973.0947,-3571.0964L13973.0936,-3571.0974L13973.093,-3571.0979L13973.093,-3571.0979L13973.093,-3571.0979L13973.0929,-3571.0979L13973.0929,-3571.098L13973.0925,-3571.0983L13973.0766,-3571.1124L13973.0732,-3571.1154L13973.073,-3571.1157L13973.0729,-3571.1157L13973.0729,-3571.1157L13973.0729,-3571.1157L13973.0516,-3571.1401L13973.0326,-3571.163L13973.0184,-3571.1882L13973.0093,-3571.2062L13972.9956,-3571.2331L13972.9851,-3571.2532L13972.9567,-3571.3071L13972.8392,-3571.5489L13972.7825,-3571.6553"/>
<path content="1,京浜急行バス（株）,ビーム号,1.0,1.0,1.0," xlink:title="1" d="M13972.7825,-3571.6553L13972.8392,-3571.5489L13972.9567,-3571.3071L13972.9851,-3571.2532L13972.9956,-3571.2331L13973.0093,-3571.2062L13973.0184,-3571.1882L13973.0326,-3571.163L13973.0516,-3571.1401L13973.0729,-3571.1157L13973.0729,-3571.1157L13973.0729,-3571.1157L13973.073,-3571.1157L13973.0732,-3571.1154L13973.0766,-3571.1124L13973.0925,-3571.0983L13973.0929,-3571.098L13973.0929,-3571.0979L13973.093,-3571.0979L13973.093,-3571.0979L13973.093,-3571.0979L13973.0936,-3571.0974L13973.0947,-3571.0964L13973.0958,-3571.0954L13973.0972,-3571.0942L13973.1003,-3571.0915L13973.1009,-3571.0909L13973.1015,-3571.0904L13973.1022,-3571.0898L13973.1047,-3571.0875L13973.1057,-3571.0866L13973.1068,-3571.0857L13973.1077,-3571.0849L13973.1081,-3571.0845L13973.1085,-3571.0842L13973.1085,-3571.0842L13973.1086,-3571.0841L13973.1089,-3571.0838L13973.1095,-3571.0834L13973.1103,-3571.0829L13973.1103,-3571.0829L13973.1104,-3571.0829L13973.1104,-3571.0828L13973.1104,-3571.0828L13973.1108,-3571.0826L13973.1128,-3571.0813L13973.1134,-3571.0809L13973.114,-3571.0805L13973.1161,-3571.0791L13973.1199,-3571.0767L13973.1206,-3571.0762L13973.1248,-3571.0735L13973.1255,-3571.073L13973.126,-3571.0727L13973.126,-3571.0727L13973.1285,-3571.0711L13973.1333,-3571.068L13973.1371,-3571.0655L13973.1378,-3571.065L13973.1423,-3571.0621L13973.147,-3571.0591L13973.1502,-3571.0576L13973.1646,-3571.0511L13973.1713,-3571.0481L13973.1713,-3571.0481L13973.1713,-3571.0481L13973.1713,-3571.0481L13973.1738,-3571.047L13973.1791,-3571.0446L13973.1799,-3571.0442L13973.1809,-3571.0438L13973.1817,-3571.0434L13973.1826,-3571.043L13973.1852,-3571.0419L13973.1869,-3571.0412L13973.1881,-3571.0407L13973.2021,-3571.0348L13973.208,-3571.0324L13973.2099,-3571.0316L13973.2132,-3571.0302L13973.2665,-3571.0053L13973.2974,-3570.9933L13973.3491,-3570.9733L13973.3995,-3570.9531L13973.4271,-3570.9438L13973.4579,-3570.9334L13973.5107,-3570.9185"/>
<path content="1,京王バス南（株）,新宿・渋谷～仙台・石巻線,1.0,1.0,1.0," xlink:title="1" d="M13972.7825,-3571.6553L13972.8392,-3571.5489L13972.9567,-3571.3071L13972.9851,-3571.2532L13972.9956,-3571.2331L13973.0093,-3571.2062L13973.0184,-3571.1882L13973.0326,-3571.163L13973.0516,-3571.1401L13973.0729,-3571.1157L13973.0732,-3571.1154L13973.0766,-3571.1124L13973.0925,-3571.0983L13973.093,-3571.0979L13973.0936,-3571.0974L13973.0947,-3571.0964L13973.0958,-3571.0954L13973.0972,-3571.0942L13973.1003,-3571.0915L13973.1009,-3571.0909L13973.1015,-3571.0904L13973.1022,-3571.0898L13973.1047,-3571.0875L13973.1057,-3571.0866L13973.1068,-3571.0857L13973.1077,-3571.0849L13973.1081,-3571.0845L13973.1085,-3571.0842L13973.1089,-3571.0838L13973.1095,-3571.0834L13973.1103,-3571.0829L13973.1108,-3571.0826L13973.1128,-3571.0813L13973.1134,-3571.0809L13973.114,-3571.0805L13973.1161,-3571.0791L13973.1199,-3571.0767L13973.1206,-3571.0762L13973.1248,-3571.0735L13973.1255,-3571.073L13973.126,-3571.0727L13973.1285,-3571.0711L13973.1333,-3571.068L13973.1371,-3571.0655L13973.1378,-3571.065L13973.1423,-3571.0621L13973.147,-3571.0591L13973.1502,-3571.0576L13973.1646,-3571.0511L13973.1713,-3571.0481L13973.1738,-3571.047L13973.1791,-3571.0446L13973.1799,-3571.0442L13973.1809,-3571.0438L13973.1817,-3571.0434L13973.1826,-3571.043L13973.1852,-3571.0419L13973.1869,-3571.0412L13973.1881,-3571.0407L13973.2021,-3571.0348L13973.208,-3571.0324L13973.2099,-3571.0316L13973.2132,-3571.0302L13973.2665,-3571.0053L13973.2974,-3570.9933L13973.3491,-3570.9733L13973.3995,-3570.9531L13973.4271,-3570.9438L13973.4579,-3570.9334L13973.5107,-3570.9185"/>
<path content="1,京王バス南（株）,新宿～長野線,7.0,7.0,7.0," xlink:title="1" d="M13973.5107,-3570.9185L13973.4579,-3570.9334L13973.4271,-3570.9438L13973.3995,-3570.9531L13973.3491,-3570.9733L13973.2974,-3570.9933L13973.2665,-3571.0053L13973.2132,-3571.0302L13973.2099,-3571.0316L13973.208,-3571.0324L13973.2021,-3571.0348L13973.1881,-3571.0407L13973.1869,-3571.0412L13973.1852,-3571.0419L13973.1826,-3571.043L13973.1817,-3571.0434L13973.1809,-3571.0438L13973.1799,-3571.0442L13973.1791,-3571.0446L13973.1738,-3571.047L13973.1713,-3571.0481L13973.1646,-3571.0511L13973.1502,-3571.0576L13973.147,-3571.0591L13973.1423,-3571.0621L13973.1378,-3571.065L13973.1371,-3571.0655L13973.1333,-3571.068L13973.1285,-3571.0711L13973.126,-3571.0727L13973.1255,-3571.073L13973.1248,-3571.0735L13973.1206,-3571.0762L13973.1199,-3571.0767L13973.1161,-3571.0791L13973.114,-3571.0805L13973.1134,-3571.0809L13973.1128,-3571.0813L13973.1108,-3571.0826L13973.1103,-3571.0829L13973.1095,-3571.0834L13973.1089,-3571.0838L13973.1085,-3571.0842L13973.1081,-3571.0845L13973.1077,-3571.0849L13973.1068,-3571.0857L13973.1057,-3571.0866L13973.1047,-3571.0875L13973.1022,-3571.0898L13973.1015,-3571.0904L13973.1009,-3571.0909L13973.1003,-3571.0915L13973.0972,-3571.0942L13973.0958,-3571.0954L13973.0947,-3571.0964L13973.0936,-3571.0974L13973.093,-3571.0979L13973.0925,-3571.0983L13973.0766,-3571.1124L13973.0732,-3571.1154L13973.0729,-3571.1157L13973.0516,-3571.1401L13973.0326,-3571.163L13973.0184,-3571.1882L13973.0093,-3571.2062L13972.9956,-3571.2331L13972.9851,-3571.2532L13972.9567,-3571.3071L13972.8392,-3571.5489L13972.7825,-3571.6553"/>
<path content="1,十和田観光電鉄（株）,シリウス号,1.0,1.0,1.0," xlink:title="1" d="M13973.5107,-3570.9185L13973.4579,-3570.9334L13973.4271,-3570.9438L13973.3995,-3570.9531L13973.3491,-3570.9733L13973.2974,-3570.9933L13973.2665,-3571.0053L13973.2132,-3571.0302L13973.2099,-3571.0316L13973.208,-3571.0324L13973.2021,-3571.0348L13973.1881,-3571.0407L13973.1869,-3571.0412L13973.1852,-3571.0419L13973.1826,-3571.043L13973.1817,-3571.0434L13973.1809,-3571.0438L13973.1799,-3571.0442L13973.1791,-3571.0446L13973.1738,-3571.047L13973.1713,-3571.0481L13973.1713,-3571.0481L13973.1713,-3571.0481L13973.1713,-3571.0481L13973.1713,-3571.0481L13973.1646,-3571.0511L13973.1502,-3571.0576L13973.147,-3571.0591L13973.1423,-3571.0621L13973.1378,-3571.065L13973.1371,-3571.0655L13973.1333,-3571.068L13973.1285,-3571.0711L13973.126,-3571.0727L13973.1255,-3571.073L13973.1248,-3571.0735L13973.1206,-3571.0762L13973.1199,-3571.0767L13973.1161,-3571.0791L13973.114,-3571.0805L13973.1134,-3571.0809L13973.1128,-3571.0813L13973.1108,-3571.0826L13973.1103,-3571.0829L13973.1103,-3571.0829L13973.1103,-3571.0829L13973.1103,-3571.0829L13973.1103,-3571.0829L13973.1095,-3571.0834L13973.1089,-3571.0838L13973.1085,-3571.0842L13973.1085,-3571.0842L13973.1081,-3571.0845L13973.1077,-3571.0849L13973.1068,-3571.0857L13973.1057,-3571.0866L13973.1047,-3571.0875L13973.1022,-3571.0898L13973.1015,-3571.0904L13973.1009,-3571.0909L13973.1003,-3571.0915L13973.0972,-3571.0942L13973.0958,-3571.0954L13973.0947,-3571.0964L13973.0936,-3571.0974L13973.093,-3571.0979L13973.093,-3571.0979L13973.093,-3571.0979L13973.0925,-3571.0983L13973.0766,-3571.1124L13973.0732,-3571.1154L13973.0729,-3571.1157L13973.0729,-3571.1157L13973.0516,-3571.1401L13973.0326,-3571.163L13973.0184,-3571.1882L13973.0093,-3571.2062L13972.9956,-3571.2331L13972.9851,-3571.2532L13972.9567,-3571.3071L13972.8392,-3571.5489L13972.7825,-3571.6553"/>
<path content="1,千葉交通,ONライナー,4.0,4.0,4.0," xlink:title="1" d="M13972.7825,-3571.6553L13972.8392,-3571.5489L13972.9567,-3571.3071L13972.9851,-3571.2532L13972.9956,-3571.2331L13973.0093,-3571.2062L13973.0184,-3571.1882L13973.0326,-3571.163L13973.0516,-3571.1401L13973.0729,-3571.1157L13973.0732,-3571.1154L13973.0766,-3571.1124L13973.0925,-3571.0983L13973.093,-3571.0979L13973.0936,-3571.0974L13973.0947,-3571.0964L13973.0958,-3571.0954L13973.0972,-3571.0942L13973.1003,-3571.0915L13973.1009,-3571.0909L13973.1015,-3571.0904L13973.1022,-3571.0898L13973.1047,-3571.0875L13973.1057,-3571.0866L13973.1068,-3571.0857L13973.1077,-3571.0849L13973.1081,-3571.0845L13973.1085,-3571.0842L13973.1089,-3571.0838L13973.1095,-3571.0834L13973.1103,-3571.0829L13973.1103,-3571.0829L13973.1108,-3571.0826L13973.1128,-3571.0813L13973.1134,-3571.0809L13973.114,-3571.0805L13973.1161,-3571.0791L13973.1199,-3571.0767L13973.1206,-3571.0762L13973.1248,-3571.0735L13973.1255,-3571.073L13973.126,-3571.0727L13973.1285,-3571.0711L13973.1333,-3571.068L13973.1371,-3571.0655L13973.1378,-3571.065L13973.1423,-3571.0621L13973.147,-3571.0591L13973.1502,-3571.0576L13973.1646,-3571.0511L13973.1713,-3571.0481L13973.1738,-3571.047L13973.1791,-3571.0446L13973.1799,-3571.0442L13973.1809,-3571.0438L13973.1817,-3571.0434L13973.1826,-3571.043L13973.1852,-3571.0419L13973.1869,-3571.0412L13973.1881,-3571.0407L13973.2021,-3571.0348L13973.208,-3571.0324L13973.2099,-3571.0316L13973.2132,-3571.0302L13973.2665,-3571.0053L13973.2974,-3570.9933L13973.3491,-3570.9733L13973.3995,-3570.9531L13973.4271,-3570.9438L13973.4579,-3570.9334L13973.5107,-3570.9185"/>
<path content="1,千葉交通,アザレア号,7.0,7.0,7.0," xlink:title="1" d="M13972.7825,-3571.6553L13972.8392,-3571.5489L13972.9567,-3571.3071L13972.9851,-3571.2532L13972.9956,-3571.2331L13973.0093,-3571.2062L13973.0184,-3571.1882L13973.0326,-3571.163L13973.0516,-3571.1401L13973.0729,-3571.1157L13973.0732,-3571.1154L13973.0766,-3571.1124L13973.0925,-3571.0983L13973.093,-3571.0979L13973.0936,-3571.0974L13973.0947,-3571.0964L13973.0958,-3571.0954L13973.0972,-3571.0942L13973.1003,-3571.0915L13973.1009,-3571.0909L13973.1015,-3571.0904L13973.1022,-3571.0898L13973.1047,-3571.0875L13973.1057,-3571.0866L13973.1068,-3571.0857L13973.1077,-3571.0849L13973.1081,-3571.0845L13973.1085,-3571.0842L13973.1089,-3571.0838L13973.1095,-3571.0834L13973.1103,-3571.0829L13973.1103,-3571.0829L13973.1108,-3571.0826L13973.1128,-3571.0813L13973.1134,-3571.0809L13973.114,-3571.0805L13973.1161,-3571.0791L13973.1199,-3571.0767L13973.1206,-3571.0762L13973.1248,-3571.0735L13973.1255,-3571.073L13973.126,-3571.0727L13973.1285,-3571.0711L13973.1333,-3571.068L13973.1371,-3571.0655L13973.1378,-3571.065L13973.1423,-3571.0621L13973.147,-3571.0591L13973.1502,-3571.0576L13973.1646,-3571.0511L13973.1713,-3571.0481L13973.1738,-3571.047L13973.1791,-3571.0446L13973.1799,-3571.0442L13973.1809,-3571.0438L13973.1817,-3571.0434L13973.1826,-3571.043L13973.1852,-3571.0419L13973.1869,-3571.0412L13973.1881,-3571.0407L13973.2021,-3571.0348L13973.208,-3571.0324L13973.2099,-3571.0316L13973.2132,-3571.0302L13973.2665,-3571.0053L13973.2974,-3570.9933L13973.3491,-3570.9733L13973.3995,-3570.9531L13973.4271,-3570.9438L13973.4579,-3570.9334L13973.5107,-3570.9185"/>
<path content="1,国際十王交通（株）,成田空港線,2.0,2.0,2.0," xlink:title="1" d="M13973.5107,-3570.9185L13973.4579,-3570.9334L13973.4271,-3570.9438L13973.3995,-3570.9531L13973.3491,-3570.9733L13973.2974,-3570.9933L13973.2665,-3571.0053L13973.2132,-3571.0302L13973.2099,-3571.0316L13973.208,-3571.0324L13973.2021,-3571.0348L13973.1881,-3571.0407L13973.1869,-3571.0412L13973.1852,-3571.0419L13973.1826,-3571.043L13973.1817,-3571.0434L13973.1809,-3571.0438L13973.1799,-3571.0442L13973.1791,-3571.0446L13973.1738,-3571.047L13973.1713,-3571.0481L13973.1646,-3571.0511L13973.1502,-3571.0576L13973.147,-3571.0591L13973.1423,-3571.0621L13973.1378,-3571.065L13973.1371,-3571.0655L13973.1333,-3571.068L13973.1285,-3571.0711L13973.126,-3571.0727L13973.1255,-3571.073L13973.1248,-3571.0735L13973.1206,-3571.0762L13973.1199,-3571.0767L13973.1161,-3571.0791L13973.114,-3571.0805L13973.1134,-3571.0809L13973.1128,-3571.0813L13973.1108,-3571.0826L13973.1103,-3571.0829L13973.1103,-3571.0829L13973.1095,-3571.0834L13973.1089,-3571.0838L13973.1085,-3571.0842L13973.1081,-3571.0845L13973.1077,-3571.0849L13973.1068,-3571.0857L13973.1057,-3571.0866L13973.1047,-3571.0875L13973.1022,-3571.0898L13973.1015,-3571.0904L13973.1009,-3571.0909L13973.1003,-3571.0915L13973.0972,-3571.0942L13973.0958,-3571.0954L13973.0947,-3571.0964L13973.0936,-3571.0974L13973.093,-3571.0979L13973.0925,-3571.0983L13973.0766,-3571.1124L13973.0732,-3571.1154L13973.0729,-3571.1157L13973.0516,-3571.1401L13973.0326,-3571.163L13973.0184,-3571.1882L13973.0093,-3571.2062L13972.9956,-3571.2331L13972.9851,-3571.2532L13972.9567,-3571.3071L13972.8392,-3571.5489L13972.7825,-3571.6553"/>
<path content="1,国際十王交通（株）,羽田空港線,3.0,3.0,3.0," xlink:title="1" d="M13973.5107,-3570.9185L13973.4579,-3570.9334L13973.4271,-3570.9438L13973.3995,-3570.9531L13973.3491,-3570.9733L13973.2974,-3570.9933L13973.2665,-3571.0053L13973.2132,-3571.0302L13973.2099,-3571.0316L13973.208,-3571.0324L13973.2021,-3571.0348L13973.1881,-3571.0407L13973.1869,-3571.0412L13973.1852,-3571.0419L13973.1826,-3571.043L13973.1817,-3571.0434L13973.1809,-3571.0438L13973.1799,-3571.0442L13973.1791,-3571.0446L13973.1738,-3571.047L13973.1713,-3571.0481L13973.1646,-3571.0511L13973.1502,-3571.0576L13973.147,-3571.0591L13973.1423,-3571.0621L13973.1378,-3571.065L13973.1371,-3571.0655L13973.1333,-3571.068L13973.1285,-3571.0711L13973.126,-3571.0727L13973.1255,-3571.073L13973.1248,-3571.0735L13973.1206,-3571.0762L13973.1199,-3571.0767L13973.1161,-3571.0791L13973.114,-3571.0805L13973.1134,-3571.0809L13973.1128,-3571.0813L13973.1108,-3571.0826L13973.1103,-3571.0829L13973.1103,-3571.0829L13973.1095,-3571.0834L13973.1089,-3571.0838L13973.1085,-3571.0842L13973.1081,-3571.0845L13973.1077,-3571.0849L13973.1068,-3571.0857L13973.1057,-3571.0866L13973.1047,-3571.0875L13973.1022,-3571.0898L13973.1015,-3571.0904L13973.1009,-3571.0909L13973.1003,-3571.0915L13973.0972,-3571.0942L13973.0958,-3571.0954L13973.0947,-3571.0964L13973.0936,-3571.0974L13973.093,-3571.0979L13973.0925,-3571.0983L13973.0766,-3571.1124L13973.0732,-3571.1154L13973.0729,-3571.1157L13973.0516,-3571.1401L13973.0326,-3571.163L13973.0184,-3571.1882L13973.0093,-3571.2062L13972.9956,-3571.2331L13972.9851,-3571.2532L13972.9567,-3571.3071L13972.8392,-3571.5489L13972.7825,-3571.6553"/>
<path content="1,国際興業（株）,大宮羽田線,4.0,4.0,4.0," xlink:title="1" d="M13973.5107,-3570.9185L13973.4579,-3570.9334L13973.4271,-3570.9438L13973.3995,-3570.9531L13973.3491,-3570.9733L13973.2974,-3570.9933L13973.2665,-3571.0053L13973.2132,-3571.0302L13973.2099,-3571.0316L13973.208,-3571.0324L13973.2021,-3571.0348L13973.1881,-3571.0407L13973.1869,-3571.0412L13973.1852,-3571.0419L13973.1826,-3571.043L13973.1817,-3571.0434L13973.1809,-3571.0438L13973.1799,-3571.0442L13973.1791,-3571.0446L13973.1738,-3571.047L13973.1713,-3571.0481L13973.1646,-3571.0511L13973.1502,-3571.0576L13973.147,-3571.0591L13973.1423,-3571.0621L13973.1378,-3571.065L13973.1371,-3571.0655L13973.1333,-3571.068L13973.1285,-3571.0711L13973.126,-3571.0727L13973.1255,-3571.073L13973.1248,-3571.0735L13973.1206,-3571.0762L13973.1199,-3571.0767L13973.1161,-3571.0791L13973.114,-3571.0805L13973.1134,-3571.0809L13973.1128,-3571.0813L13973.1108,-3571.0826L13973.1104,-3571.0828L13973.1104,-3571.0828L13973.1104,-3571.0829L13973.1103,-3571.0829L13973.1095,-3571.0834L13973.1089,-3571.0838L13973.1086,-3571.0841L13973.1085,-3571.0842L13973.1081,-3571.0845L13973.1077,-3571.0849L13973.1068,-3571.0857L13973.1057,-3571.0866L13973.1047,-3571.0875L13973.1022,-3571.0898L13973.1015,-3571.0904L13973.1009,-3571.0909L13973.1003,-3571.0915L13973.0972,-3571.0942L13973.0958,-3571.0954L13973.0947,-3571.0964L13973.0936,-3571.0974L13973.093,-3571.0979L13973.0929,-3571.0979L13973.0929,-3571.098L13973.0925,-3571.0983L13973.0766,-3571.1124L13973.0732,-3571.1154L13973.0729,-3571.1157L13973.0729,-3571.1157L13973.0516,-3571.1401L13973.0326,-3571.163L13973.0184,-3571.1882L13973.0093,-3571.2062L13972.9956,-3571.2331L13972.9851,-3571.2532L13972.9567,-3571.3071L13972.8392,-3571.5489L13972.7825,-3571.6553"/>
<path content="1,宇和島自動車（株）,宇和島・松山⇔横浜・池袋・大宮,1.0,1.0,1.0," xlink:title="1" d="M13973.5107,-3570.9185L13973.5107,-3570.9185L13973.4579,-3570.9334L13973.3995,-3570.9531L13973.3491,-3570.9732L13973.2665,-3571.0053L13973.2132,-3571.0302L13973.1817,-3571.0433L13973.147,-3571.059L13973.1083,-3571.0842L13973.0728,-3571.1157L13973.0516,-3571.1401L13973.0326,-3571.163L13973.0184,-3571.1882L13972.9956,-3571.2331L13972.9851,-3571.2531L13972.9567,-3571.3071L13972.8392,-3571.5489L13972.7825,-3571.6553"/>
<path content="1,宮城交通（株）,広瀬ライナー,1.0,1.0,1.0," xlink:title="1" d="M13972.7825,-3571.6553L13972.8392,-3571.5489L13972.9567,-3571.3071L13972.9851,-3571.2532L13972.9956,-3571.2331L13973.0093,-3571.2062L13973.0184,-3571.1882L13973.0326,-3571.163L13973.0516,-3571.1401L13973.0729,-3571.1157L13973.0729,-3571.1157L13973.0732,-3571.1154L13973.0766,-3571.1124L13973.0925,-3571.0983L13973.093,-3571.0979L13973.093,-3571.0979L13973.093,-3571.0979L13973.0936,-3571.0974L13973.0947,-3571.0964L13973.0958,-3571.0954L13973.0972,-3571.0942L13973.1003,-3571.0915L13973.1009,-3571.0909L13973.1015,-3571.0904L13973.1022,-3571.0898L13973.1047,-3571.0875L13973.1057,-3571.0866L13973.1068,-3571.0857L13973.1077,-3571.0849L13973.1081,-3571.0845L13973.1085,-3571.0842L13973.1085,-3571.0842L13973.1089,-3571.0838L13973.1095,-3571.0834L13973.1103,-3571.0829L13973.1103,-3571.0829L13973.1103,-3571.0829L13973.1103,-3571.0829L13973.1103,-3571.0829L13973.1108,-3571.0826L13973.1128,-3571.0813L13973.1134,-3571.0809L13973.114,-3571.0805L13973.1161,-3571.0791L13973.1199,-3571.0767L13973.1206,-3571.0762L13973.1248,-3571.0735L13973.1255,-3571.073L13973.126,-3571.0727L13973.1285,-3571.0711L13973.1333,-3571.068L13973.1371,-3571.0655L13973.1378,-3571.065L13973.1423,-3571.0621L13973.147,-3571.0591L13973.1502,-3571.0576L13973.1646,-3571.0511L13973.1713,-3571.0481L13973.1713,-3571.0481L13973.1713,-3571.0481L13973.1713,-3571.0481L13973.1713,-3571.0481L13973.1738,-3571.047L13973.1791,-3571.0446L13973.1799,-3571.0442L13973.1809,-3571.0438L13973.1817,-3571.0434L13973.1826,-3571.043L13973.1852,-3571.0419L13973.1869,-3571.0412L13973.1881,-3571.0407L13973.2021,-3571.0348L13973.208,-3571.0324L13973.2099,-3571.0316L13973.2132,-3571.0302L13973.2665,-3571.0053L13973.2974,-3570.9933L13973.3491,-3570.9733L13973.3995,-3570.9531L13973.4271,-3570.9438L13973.4579,-3570.9334L13973.5107,-3570.9185"/>
<path content="1,岩手県交通（株）,ドリーム盛岡（らくちん）号,2.3,3.0,3.0," xlink:title="1" d="M13973.5107,-3570.9185L13973.4579,-3570.9334L13973.4271,-3570.9438L13973.3995,-3570.9531L13973.3491,-3570.9733L13973.2974,-3570.9933L13973.2665,-3571.0053L13973.2132,-3571.0302L13973.2099,-3571.0316L13973.208,-3571.0324L13973.2021,-3571.0348L13973.1881,-3571.0407L13973.1869,-3571.0412L13973.1852,-3571.0419L13973.1826,-3571.043L13973.1817,-3571.0434L13973.1809,-3571.0438L13973.1799,-3571.0442L13973.1791,-3571.0446L13973.1738,-3571.047L13973.1713,-3571.0481L13973.1713,-3571.0481L13973.1713,-3571.0481L13973.1713,-3571.0481L13973.1713,-3571.0481L13973.1646,-3571.0511L13973.1502,-3571.0576L13973.147,-3571.0591L13973.1423,-3571.0621L13973.1378,-3571.065L13973.1371,-3571.0655L13973.1333,-3571.068L13973.1285,-3571.0711L13973.126,-3571.0727L13973.1255,-3571.073L13973.1248,-3571.0735L13973.1206,-3571.0762L13973.1199,-3571.0767L13973.1161,-3571.0791L13973.114,-3571.0805L13973.1134,-3571.0809L13973.1128,-3571.0813L13973.1108,-3571.0826L13973.1103,-3571.0829L13973.1103,-3571.0829L13973.1103,-3571.0829L13973.1103,-3571.0829L13973.1103,-3571.0829L13973.1095,-3571.0834L13973.1089,-3571.0838L13973.1085,-3571.0842L13973.1085,-3571.0842L13973.1081,-3571.0845L13973.1077,-3571.0849L13973.1068,-3571.0857L13973.1057,-3571.0866L13973.1047,-3571.0875L13973.1022,-3571.0898L13973.1015,-3571.0904L13973.1009,-3571.0909L13973.1003,-3571.0915L13973.0972,-3571.0942L13973.0958,-3571.0954L13973.0947,-3571.0964L13973.0936,-3571.0974L13973.093,-3571.0979L13973.093,-3571.0979L13973.093,-3571.0979L13973.0925,-3571.0983L13973.0766,-3571.1124L13973.0732,-3571.1154L13973.0729,-3571.1157L13973.0729,-3571.1157L13973.0516,-3571.1401L13973.0326,-3571.163L13973.0184,-3571.1882L13973.0093,-3571.2062L13972.9871,-3571.2043L13972.898,-3571.2014L13972.8469,-3571.2037L13972.8304,-3571.2059L13972.8055,-3571.2121L13972.771,-3571.2274L13972.7627,-3571.2319L13972.7364,-3571.2516L13972.724,-3571.2623L13972.6971,-3571.2837L13972.6819,-3571.2961L13972.6647,-3571.3143L13972.6384,-3571.3411L13972.6316,-3571.3497L13972.6205,-3571.3592L13972.5535,-3571.4263L13972.5224,-3571.4578L13972.4976,-3571.4831L13972.4817,-3571.4972L13972.4727,-3571.5034L13972.4598,-3571.5078L13972.4513,-3571.5107L13972.4403,-3571.5113L13972.4121,-3571.5171"/>
<path content="1,岩手県交通（株）,盛岡・横浜線,1.0,1.0,1.0," xlink:title="1" d="M13973.5107,-3570.9185L13973.4579,-3570.9334L13973.4271,-3570.9438L13973.3995,-3570.9531L13973.3491,-3570.9733L13973.2974,-3570.9933L13973.2665,-3571.0053L13973.2132,-3571.0302L13973.2099,-3571.0316L13973.208,-3571.0324L13973.2021,-3571.0348L13973.1881,-3571.0407L13973.1869,-3571.0412L13973.1852,-3571.0419L13973.1826,-3571.043L13973.1817,-3571.0434L13973.1809,-3571.0438L13973.1799,-3571.0442L13973.1791,-3571.0446L13973.1738,-3571.047L13973.1713,-3571.0481L13973.1713,-3571.0481L13973.1713,-3571.0481L13973.1713,-3571.0481L13973.1713,-3571.0481L13973.1646,-3571.0511L13973.1502,-3571.0576L13973.147,-3571.0591L13973.1423,-3571.0621L13973.1378,-3571.065L13973.1371,-3571.0655L13973.1333,-3571.068L13973.1285,-3571.0711L13973.126,-3571.0727L13973.1255,-3571.073L13973.1248,-3571.0735L13973.1206,-3571.0762L13973.1199,-3571.0767L13973.1161,-3571.0791L13973.114,-3571.0805L13973.1134,-3571.0809L13973.1128,-3571.0813L13973.1108,-3571.0826L13973.1103,-3571.0829L13973.1103,-3571.0829L13973.1103,-3571.0829L13973.1103,-3571.0829L13973.1103,-3571.0829L13973.1095,-3571.0834L13973.1089,-3571.0838L13973.1085,-3571.0842L13973.1085,-3571.0842L13973.1081,-3571.0845L13973.1077,-3571.0849L13973.1068,-3571.0857L13973.1057,-3571.0866L13973.1047,-3571.0875L13973.1022,-3571.0898L13973.1015,-3571.0904L13973.1009,-3571.0909L13973.1003,-3571.0915L13973.0972,-3571.0942L13973.0958,-3571.0954L13973.0947,-3571.0964L13973.0936,-3571.0974L13973.093,-3571.0979L13973.093,-3571.0979L13973.093,-3571.0979L13973.0925,-3571.0983L13973.0766,-3571.1124L13973.0732,-3571.1154L13973.0729,-3571.1157L13973.0729,-3571.1157L13973.0516,-3571.1401L13973.0326,-3571.163L13973.0184,-3571.1882L13973.0093,-3571.2062L13972.9956,-3571.2331L13972.9851,-3571.2532L13972.9567,-3571.3071L13972.8392,-3571.5489L13972.7825,-3571.6553"/>
<path content="1,岩手県交通（株）,遠野・釜石号,1.0,1.0,1.0," xlink:title="1" d="M13973.5107,-3570.9185L13973.4579,-3570.9334L13973.4271,-3570.9438L13973.3995,-3570.9531L13973.3491,-3570.9733L13973.2974,-3570.9933L13973.2665,-3571.0053L13973.2132,-3571.0302L13973.2099,-3571.0316L13973.208,-3571.0324L13973.2021,-3571.0348L13973.1881,-3571.0407L13973.1869,-3571.0412L13973.1852,-3571.0419L13973.1826,-3571.043L13973.1817,-3571.0434L13973.1809,-3571.0438L13973.1799,-3571.0442L13973.1791,-3571.0446L13973.1738,-3571.047L13973.1713,-3571.0481L13973.1713,-3571.0481L13973.1713,-3571.0481L13973.1713,-3571.0481L13973.1713,-3571.0481L13973.1646,-3571.0511L13973.1502,-3571.0576L13973.147,-3571.0591L13973.1423,-3571.0621L13973.1378,-3571.065L13973.1371,-3571.0655L13973.1333,-3571.068L13973.1285,-3571.0711L13973.126,-3571.0727L13973.1255,-3571.073L13973.1248,-3571.0735L13973.1206,-3571.0762L13973.1199,-3571.0767L13973.1161,-3571.0791L13973.114,-3571.0805L13973.1134,-3571.0809L13973.1128,-3571.0813L13973.1108,-3571.0826L13973.1103,-3571.0829L13973.1103,-3571.0829L13973.1103,-3571.0829L13973.1103,-3571.0829L13973.1103,-3571.0829L13973.1095,-3571.0834L13973.1089,-3571.0838L13973.1085,-3571.0842L13973.1085,-3571.0842L13973.1081,-3571.0845L13973.1077,-3571.0849L13973.1068,-3571.0857L13973.1057,-3571.0866L13973.1047,-3571.0875L13973.1022,-3571.0898L13973.1015,-3571.0904L13973.1009,-3571.0909L13973.1003,-3571.0915L13973.0972,-3571.0942L13973.0958,-3571.0954L13973.0947,-3571.0964L13973.0936,-3571.0974L13973.093,-3571.0979L13973.093,-3571.0979L13973.093,-3571.0979L13973.0925,-3571.0983L13973.0766,-3571.1124L13973.0732,-3571.1154L13973.0729,-3571.1157L13973.0729,-3571.1157L13973.0516,-3571.1401L13973.0326,-3571.163L13973.0184,-3571.1882L13973.0093,-3571.2062L13972.9956,-3571.2331L13972.9851,-3571.2532L13972.9567,-3571.3071L13972.8392,-3571.5489L13972.7825,-3571.6553"/>
<path content="1,岩手県北自動車（株）,BEAM-1　宮古・盛岡南⇔浜松町・品川,1.0,1.0,1.0," xlink:title="1" d="M13973.5107,-3570.9185L13973.4579,-3570.9334L13973.4271,-3570.9438L13973.3995,-3570.9531L13973.3491,-3570.9733L13973.2974,-3570.9933L13973.2665,-3571.0053L13973.2132,-3571.0302L13973.2099,-3571.0316L13973.208,-3571.0324L13973.2021,-3571.0348L13973.1881,-3571.0407L13973.1869,-3571.0412L13973.1852,-3571.0419L13973.1826,-3571.043L13973.1817,-3571.0434L13973.1809,-3571.0438L13973.1799,-3571.0442L13973.1791,-3571.0446L13973.1738,-3571.047L13973.1713,-3571.0481L13973.1713,-3571.0481L13973.1713,-3571.0481L13973.1713,-3571.0481L13973.1713,-3571.0481L13973.1646,-3571.0511L13973.1502,-3571.0576L13973.147,-3571.0591L13973.1423,-3571.0621L13973.1378,-3571.065L13973.1371,-3571.0655L13973.1333,-3571.068L13973.1285,-3571.0711L13973.126,-3571.0727L13973.1255,-3571.073L13973.1248,-3571.0735L13973.1206,-3571.0762L13973.1199,-3571.0767L13973.1161,-3571.0791L13973.114,-3571.0805L13973.1134,-3571.0809L13973.1128,-3571.0813L13973.1108,-3571.0826L13973.1103,-3571.0829L13973.1103,-3571.0829L13973.1103,-3571.0829L13973.1103,-3571.0829L13973.1103,-3571.0829L13973.1095,-3571.0834L13973.1089,-3571.0838L13973.1085,-3571.0842L13973.1085,-3571.0842L13973.1081,-3571.0845L13973.1077,-3571.0849L13973.1068,-3571.0857L13973.1057,-3571.0866L13973.1047,-3571.0875L13973.1022,-3571.0898L13973.1015,-3571.0904L13973.1009,-3571.0909L13973.1003,-3571.0915L13973.0972,-3571.0942L13973.0958,-3571.0954L13973.0947,-3571.0964L13973.0936,-3571.0974L13973.093,-3571.0979L13973.093,-3571.0979L13973.093,-3571.0979L13973.0925,-3571.0983L13973.0766,-3571.1124L13973.0732,-3571.1154L13973.0729,-3571.1157L13973.0729,-3571.1157L13973.0516,-3571.1401L13973.0326,-3571.163L13973.0184,-3571.1882L13973.0093,-3571.2062L13972.9956,-3571.2331L13972.9851,-3571.2532L13972.9567,-3571.3071L13972.8392,-3571.5489L13972.7825,-3571.6553"/>
<path content="1,川越観光自動車,高速バス成田線,4.0,4.0,4.0," xlink:title="1" d="M13973.5107,-3570.9185L13973.4579,-3570.9334L13973.4271,-3570.9438L13973.3995,-3570.9531L13973.3491,-3570.9733L13973.2974,-3570.9933L13973.2665,-3571.0053L13973.2132,-3571.0302L13973.2099,-3571.0316L13973.208,-3571.0324L13973.2021,-3571.0348L13973.1881,-3571.0407L13973.1869,-3571.0412L13973.1852,-3571.0419L13973.1826,-3571.043L13973.1817,-3571.0434L13973.1809,-3571.0438L13973.1799,-3571.0442L13973.1791,-3571.0446L13973.1738,-3571.047L13973.1713,-3571.0481L13973.1646,-3571.0511L13973.1502,-3571.0576L13973.147,-3571.0591L13973.1423,-3571.0621L13973.1378,-3571.065L13973.1371,-3571.0655L13973.1333,-3571.068L13973.1285,-3571.0711L13973.126,-3571.0727L13973.1255,-3571.073L13973.1248,-3571.0735L13973.1206,-3571.0762L13973.1199,-3571.0767L13973.1161,-3571.0791L13973.114,-3571.0805L13973.1134,-3571.0809L13973.1128,-3571.0813L13973.1108,-3571.0826L13973.1103,-3571.0829L13973.1103,-3571.0829L13973.1095,-3571.0834L13973.1089,-3571.0838L13973.1085,-3571.0842L13973.1081,-3571.0845L13973.1077,-3571.0849L13973.1068,-3571.0857L13973.1057,-3571.0866L13973.1047,-3571.0875L13973.1022,-3571.0898L13973.1015,-3571.0904L13973.1009,-3571.0909L13973.1003,-3571.0915L13973.0972,-3571.0942L13973.0958,-3571.0954L13973.0947,-3571.0964L13973.0936,-3571.0974L13973.093,-3571.0979L13973.0925,-3571.0983L13973.0766,-3571.1124L13973.0732,-3571.1154L13973.0729,-3571.1157L13973.0516,-3571.1401L13973.0326,-3571.163L13973.0184,-3571.1882L13973.0093,-3571.2062L13972.9956,-3571.2331L13972.9851,-3571.2532L13972.9567,-3571.3071L13972.8392,-3571.5489L13972.7825,-3571.6553"/>
<path content="1,東京空港交通（株）,池袋エリア～成田空港線,15.0,15.0,15.0," xlink:title="1" d="M13972.7825,-3571.6553L13972.8392,-3571.5489L13972.9567,-3571.3071L13972.9851,-3571.2532L13972.9956,-3571.2331L13973.0093,-3571.2062L13973.0184,-3571.1882L13973.0326,-3571.163L13973.0516,-3571.1401L13973.0729,-3571.1157L13973.0729,-3571.1157L13973.0729,-3571.1157L13973.073,-3571.1157L13973.0732,-3571.1154L13973.0766,-3571.1124L13973.0925,-3571.0983L13973.0929,-3571.098L13973.0929,-3571.0979L13973.093,-3571.0979L13973.093,-3571.0979L13973.093,-3571.0979L13973.0936,-3571.0974L13973.0947,-3571.0964L13973.0958,-3571.0954L13973.0972,-3571.0942L13973.1003,-3571.0915L13973.1009,-3571.0909L13973.1015,-3571.0904L13973.1022,-3571.0898L13973.1047,-3571.0875L13973.1057,-3571.0866L13973.1068,-3571.0857L13973.1077,-3571.0849L13973.1081,-3571.0845L13973.1085,-3571.0842L13973.1085,-3571.0842L13973.1086,-3571.0841L13973.1089,-3571.0838L13973.1095,-3571.0834L13973.1103,-3571.0829L13973.1103,-3571.0829L13973.1104,-3571.0829L13973.1104,-3571.0828L13973.1104,-3571.0828L13973.1108,-3571.0826L13973.1128,-3571.0813L13973.1134,-3571.0809L13973.114,-3571.0805L13973.1161,-3571.0791L13973.1199,-3571.0767L13973.1206,-3571.0762L13973.1248,-3571.0735L13973.1255,-3571.073L13973.126,-3571.0727L13973.126,-3571.0727L13973.1285,-3571.0711L13973.1333,-3571.068L13973.1371,-3571.0655L13973.1378,-3571.065L13973.1423,-3571.0621L13973.147,-3571.0591L13973.1502,-3571.0576L13973.1646,-3571.0511L13973.1713,-3571.0481L13973.1713,-3571.0481L13973.1713,-3571.0481L13973.1713,-3571.0481L13973.1738,-3571.047L13973.1791,-3571.0446L13973.1799,-3571.0442L13973.1809,-3571.0438L13973.1817,-3571.0434L13973.1826,-3571.043L13973.1852,-3571.0419L13973.1869,-3571.0412L13973.1881,-3571.0407L13973.2021,-3571.0348L13973.208,-3571.0324L13973.2099,-3571.0316L13973.2132,-3571.0302L13973.2665,-3571.0053L13973.2974,-3570.9933L13973.3491,-3570.9733L13973.3995,-3570.9531L13973.4271,-3570.9438L13973.4579,-3570.9334L13973.5107,-3570.9185"/>
<path content="1,東京空港交通（株）,池袋エリア～羽田空港線,18.0,18.0,18.0," xlink:title="1" d="M13973.5107,-3570.9185L13973.4579,-3570.9334L13973.4271,-3570.9438L13973.3995,-3570.9531L13973.3491,-3570.9733L13973.2974,-3570.9933L13973.2665,-3571.0053L13973.2132,-3571.0302L13973.2099,-3571.0316L13973.208,-3571.0324L13973.2021,-3571.0348L13973.1881,-3571.0407L13973.1869,-3571.0412L13973.1852,-3571.0419L13973.1826,-3571.043L13973.1817,-3571.0434L13973.1809,-3571.0438L13973.1799,-3571.0442L13973.1791,-3571.0446L13973.1738,-3571.047L13973.1713,-3571.0481L13973.1713,-3571.0481L13973.1713,-3571.0481L13973.1713,-3571.0481L13973.1646,-3571.0511L13973.1502,-3571.0576L13973.147,-3571.0591L13973.1423,-3571.0621L13973.1378,-3571.065L13973.1371,-3571.0655L13973.1333,-3571.068L13973.1285,-3571.0711L13973.126,-3571.0727L13973.126,-3571.0727L13973.1255,-3571.073L13973.1248,-3571.0735L13973.1206,-3571.0762L13973.1199,-3571.0767L13973.1161,-3571.0791L13973.114,-3571.0805L13973.1134,-3571.0809L13973.1128,-3571.0813L13973.1108,-3571.0826L13973.1107,-3571.0826L13973.1104,-3571.0828L13973.1104,-3571.0828L13973.1104,-3571.0829L13973.1103,-3571.0829L13973.1103,-3571.0829L13973.1101,-3571.083L13973.1101,-3571.083L13973.1096,-3571.0833L13973.1096,-3571.0833L13973.1093,-3571.0835L13973.1089,-3571.0838L13973.1087,-3571.084L13973.1086,-3571.0841L13973.1086,-3571.0841L13973.1084,-3571.0843L13973.1083,-3571.0844L13973.1082,-3571.0845L13973.1081,-3571.0846L13973.1077,-3571.0849L13973.1068,-3571.0857L13973.1057,-3571.0866L13973.1047,-3571.0875L13973.1022,-3571.0898L13973.1021,-3571.0898L13973.1016,-3571.0903L13973.1015,-3571.0904L13973.1009,-3571.0909L13973.1003,-3571.0915L13973.0972,-3571.0942L13973.0958,-3571.0954L13973.0947,-3571.0964L13973.0936,-3571.0974L13973.093,-3571.0979L13973.093,-3571.0979L13973.093,-3571.0979L13973.0929,-3571.0979L13973.0929,-3571.098L13973.0925,-3571.0983L13973.0766,-3571.1124L13973.0734,-3571.1152L13973.0733,-3571.1153L13973.0731,-3571.1155L13973.073,-3571.1157L13973.0729,-3571.1157L13973.0729,-3571.1157L13973.0729,-3571.1157L13973.0516,-3571.1401L13973.0326,-3571.163L13973.0184,-3571.1882L13973.0093,-3571.2062L13972.9956,-3571.2331L13972.9851,-3571.2532L13972.9567,-3571.3071L13972.8392,-3571.5489L13972.7825,-3571.6553"/>
<path content="1,東京空港交通（株）,目白・九段・後楽園エリア～成田空港線,8.5,8.5,8.5," xlink:title="1" d="M13973.5107,-3570.9185L13973.4579,-3570.9334L13973.4271,-3570.9438L13973.3995,-3570.9531L13973.3491,-3570.9733L13973.2974,-3570.9933L13973.2665,-3571.0053L13973.2132,-3571.0302L13973.2099,-3571.0316L13973.208,-3571.0324L13973.2021,-3571.0348L13973.1881,-3571.0407L13973.1869,-3571.0412L13973.1852,-3571.0419L13973.1826,-3571.043L13973.1817,-3571.0434L13973.1809,-3571.0438L13973.1799,-3571.0442L13973.1791,-3571.0446L13973.1738,-3571.047L13973.1713,-3571.0481L13973.1713,-3571.0481L13973.1713,-3571.0481L13973.1713,-3571.0481L13973.1646,-3571.0511L13973.1502,-3571.0576L13973.147,-3571.0591L13973.1423,-3571.0621L13973.1378,-3571.065L13973.1371,-3571.0655L13973.1333,-3571.068L13973.1285,-3571.0711L13973.126,-3571.0727L13973.126,-3571.0727L13973.1255,-3571.073L13973.1248,-3571.0735L13973.1206,-3571.0762L13973.1199,-3571.0767L13973.1161,-3571.0791L13973.114,-3571.0805L13973.1134,-3571.0809L13973.1128,-3571.0813L13973.1108,-3571.0826L13973.1104,-3571.0828L13973.1104,-3571.0828L13973.1104,-3571.0829L13973.1103,-3571.0829L13973.1103,-3571.0829L13973.1095,-3571.0834L13973.1089,-3571.0838L13973.1086,-3571.0841L13973.1085,-3571.0842L13973.1085,-3571.0842L13973.1081,-3571.0845L13973.1077,-3571.0849L13973.1068,-3571.0857L13973.1057,-3571.0866L13973.1047,-3571.0875L13973.1022,-3571.0898L13973.1015,-3571.0904L13973.1009,-3571.0909L13973.1003,-3571.0915L13973.0972,-3571.0942L13973.0958,-3571.0954L13973.0947,-3571.0964L13973.0936,-3571.0974L13973.093,-3571.0979L13973.093,-3571.0979L13973.093,-3571.0979L13973.0929,-3571.0979L13973.0929,-3571.098L13973.0925,-3571.0983L13973.0766,-3571.1124L13973.0568,-3571.1068L13973.0436,-3571.1036L13973.0327,-3571.1017L13973.0209,-3571.0989L13973.0113,-3571.0978L13972.9954,-3571.0944L13972.9705,-3571.0893L13972.9685,-3571.0882L13972.9312,-3571.0809L13972.9111,-3571.082L13972.8849,-3571.0904L13972.8725,-3571.0978L13972.8103,-3571.1355L13972.7351,-3571.1811L13972.7178,-3571.1936L13972.7047,-3571.2048L13972.6923,-3571.2223L13972.652,-3571.2501"/>
<path content="1,東京空港交通（株）,目白・九段・後楽園・秋葉原エリア～羽田空港線,5.0,5.0,5.0," xlink:title="1" d="M13972.7018,-3570.5566L13972.7021,-3570.5599L13972.702,-3570.5644L13972.702,-3570.5917L13972.7019,-3570.6026L13972.7019,-3570.6377L13972.7017,-3570.6649L13972.7006,-3570.6921L13972.7005,-3570.7023L13972.7,-3570.7394L13972.7002,-3570.7585L13972.7003,-3570.7807L13972.7013,-3570.8115L13972.7019,-3570.8424L13972.7012,-3570.854L13972.7013,-3570.8609L13972.7015,-3570.8783L13972.7016,-3570.8929L13972.7019,-3570.9026L13972.7029,-3570.9448L13972.7021,-3570.9697L13972.6906,-3570.9709L13972.6751,-3570.9726L13972.6505,-3570.9761L13972.6471,-3570.9766L13972.5875,-3570.9918L13972.5416,-3571.0127L13972.5125,-3571.0118L13972.4433,-3571.0316L13972.4251,-3571.0369L13972.4121,-3571.0403M13972.4121,-3571.3325L13972.4306,-3571.3564L13972.4547,-3571.3868L13972.5127,-3571.4476L13972.5224,-3571.4578L13972.5535,-3571.4263L13972.6205,-3571.3592L13972.6316,-3571.3497L13972.6384,-3571.3411L13972.6647,-3571.3143L13972.6661,-3571.3025L13972.6665,-3571.296L13972.6681,-3571.2888L13972.6715,-3571.2767L13972.6749,-3571.2645L13972.6769,-3571.2584L13972.652,-3571.2501"/>
<path content="1,東武バスウエスト,ONライナー,4.0,4.0,4.0," xlink:title="1" d="M13973.5107,-3570.9185L13973.4579,-3570.9334L13973.4271,-3570.9438L13973.3995,-3570.9531L13973.3491,-3570.9733L13973.2974,-3570.9933L13973.2665,-3571.0053L13973.2132,-3571.0302L13973.2099,-3571.0316L13973.208,-3571.0324L13973.2021,-3571.0348L13973.1881,-3571.0407L13973.1869,-3571.0412L13973.1852,-3571.0419L13973.1826,-3571.043L13973.1817,-3571.0434L13973.1809,-3571.0438L13973.1799,-3571.0442L13973.1791,-3571.0446L13973.1738,-3571.047L13973.1713,-3571.0481L13973.1713,-3571.0481L13973.1713,-3571.0481L13973.1713,-3571.0481L13973.1713,-3571.0481L13973.1646,-3571.0511L13973.1502,-3571.0576L13973.147,-3571.0591L13973.1423,-3571.0621L13973.1378,-3571.065L13973.1371,-3571.0655L13973.1333,-3571.068L13973.1285,-3571.0711L13973.126,-3571.0727L13973.1255,-3571.073L13973.1248,-3571.0735L13973.1206,-3571.0762L13973.1199,-3571.0767L13973.1161,-3571.0791L13973.114,-3571.0805L13973.1134,-3571.0809L13973.1128,-3571.0813L13973.1108,-3571.0826L13973.1103,-3571.0829L13973.1103,-3571.0829L13973.1103,-3571.0829L13973.1103,-3571.0829L13973.1103,-3571.0829L13973.1095,-3571.0834L13973.1089,-3571.0838L13973.1085,-3571.0842L13973.1085,-3571.0842L13973.1081,-3571.0845L13973.1077,-3571.0849L13973.1068,-3571.0857L13973.1057,-3571.0866L13973.1047,-3571.0875L13973.1022,-3571.0898L13973.1015,-3571.0904L13973.1009,-3571.0909L13973.1003,-3571.0915L13973.0972,-3571.0942L13973.0958,-3571.0954L13973.0947,-3571.0964L13973.0936,-3571.0974L13973.093,-3571.0979L13973.093,-3571.0979L13973.093,-3571.0979L13973.0925,-3571.0983L13973.0766,-3571.1124L13973.0732,-3571.1154L13973.0729,-3571.1157L13973.0729,-3571.1157L13973.0516,-3571.1401L13973.0326,-3571.163L13973.0184,-3571.1882L13973.0093,-3571.2062L13972.9956,-3571.2331L13972.9851,-3571.2532L13972.9567,-3571.3071L13972.8392,-3571.5489L13972.7825,-3571.6553"/>
<path content="1,東武バスウエスト,ふじみ野駅・ふじみ野駅・新座車庫・志木駅・朝霞台駅～成田空港,3.0,3.0,3.0," xlink:title="1" d="M13973.5107,-3570.9185L13973.4579,-3570.9334L13973.4271,-3570.9438L13973.3995,-3570.9531L13973.3491,-3570.9733L13973.2974,-3570.9933L13973.2665,-3571.0053L13973.2132,-3571.0302L13973.2099,-3571.0316L13973.208,-3571.0324L13973.2021,-3571.0348L13973.1881,-3571.0407L13973.1869,-3571.0412L13973.1852,-3571.0419L13973.1826,-3571.043L13973.1817,-3571.0434L13973.1809,-3571.0438L13973.1799,-3571.0442L13973.1791,-3571.0446L13973.1738,-3571.047L13973.1713,-3571.0481L13973.1713,-3571.0481L13973.1713,-3571.0481L13973.1713,-3571.0481L13973.1713,-3571.0481L13973.1646,-3571.0511L13973.1502,-3571.0576L13973.147,-3571.0591L13973.1423,-3571.0621L13973.1378,-3571.065L13973.1371,-3571.0655L13973.1333,-3571.068L13973.1285,-3571.0711L13973.126,-3571.0727L13973.1255,-3571.073L13973.1248,-3571.0735L13973.1206,-3571.0762L13973.1199,-3571.0767L13973.1161,-3571.0791L13973.114,-3571.0805L13973.1134,-3571.0809L13973.1128,-3571.0813L13973.1108,-3571.0826L13973.1103,-3571.0829L13973.1103,-3571.0829L13973.1103,-3571.0829L13973.1103,-3571.0829L13973.1103,-3571.0829L13973.1095,-3571.0834L13973.1089,-3571.0838L13973.1085,-3571.0842L13973.1085,-3571.0842L13973.1081,-3571.0845L13973.1077,-3571.0849L13973.1068,-3571.0857L13973.1057,-3571.0866L13973.1047,-3571.0875L13973.1022,-3571.0898L13973.1015,-3571.0904L13973.1009,-3571.0909L13973.1003,-3571.0915L13973.0972,-3571.0942L13973.0958,-3571.0954L13973.0947,-3571.0964L13973.0936,-3571.0974L13973.093,-3571.0979L13973.093,-3571.0979L13973.093,-3571.0979L13973.0925,-3571.0983L13973.0766,-3571.1124L13973.0732,-3571.1154L13973.0729,-3571.1157L13973.0729,-3571.1157L13973.0516,-3571.1401L13973.0326,-3571.163L13973.0184,-3571.1882L13973.0093,-3571.2062L13972.9956,-3571.2331L13972.9851,-3571.2532L13972.9567,-3571.3071L13972.8392,-3571.5489L13972.7825,-3571.6553"/>
<path content="1,東武バスウエスト,ふじみ野駅・志木駅・朝霞台駅～羽田空港,8.5,8.5,8.5," xlink:title="1" d="M13973.5107,-3570.9185L13973.4579,-3570.9334L13973.4271,-3570.9438L13973.3995,-3570.9531L13973.3491,-3570.9733L13973.2974,-3570.9933L13973.2665,-3571.0053L13973.2132,-3571.0302L13973.2099,-3571.0316L13973.208,-3571.0324L13973.2021,-3571.0348L13973.1881,-3571.0407L13973.1869,-3571.0412L13973.1852,-3571.0419L13973.1826,-3571.043L13973.1817,-3571.0434L13973.1809,-3571.0438L13973.1799,-3571.0442L13973.1791,-3571.0446L13973.1738,-3571.047L13973.1713,-3571.0481L13973.1713,-3571.0481L13973.1713,-3571.0481L13973.1713,-3571.0481L13973.1713,-3571.0481L13973.1646,-3571.0511L13973.1502,-3571.0576L13973.147,-3571.0591L13973.1423,-3571.0621L13973.1378,-3571.065L13973.1371,-3571.0655L13973.1333,-3571.068L13973.1285,-3571.0711L13973.126,-3571.0727L13973.1255,-3571.073L13973.1248,-3571.0735L13973.1206,-3571.0762L13973.1199,-3571.0767L13973.1161,-3571.0791L13973.114,-3571.0805L13973.1134,-3571.0809L13973.1128,-3571.0813L13973.1108,-3571.0826L13973.1103,-3571.0829L13973.1103,-3571.0829L13973.1103,-3571.0829L13973.1103,-3571.0829L13973.1103,-3571.0829L13973.1095,-3571.0834L13973.1089,-3571.0838L13973.1085,-3571.0842L13973.1085,-3571.0842L13973.1081,-3571.0845L13973.1077,-3571.0849L13973.1068,-3571.0857L13973.1057,-3571.0866L13973.1047,-3571.0875L13973.1022,-3571.0898L13973.1015,-3571.0904L13973.1009,-3571.0909L13973.1003,-3571.0915L13973.0972,-3571.0942L13973.0958,-3571.0954L13973.0947,-3571.0964L13973.0936,-3571.0974L13973.093,-3571.0979L13973.093,-3571.0979L13973.093,-3571.0979L13973.0925,-3571.0983L13973.0766,-3571.1124L13973.0732,-3571.1154L13973.0729,-3571.1157L13973.0729,-3571.1157L13973.0516,-3571.1401L13973.0326,-3571.163L13973.0184,-3571.1882L13973.0093,-3571.2062L13972.9956,-3571.2331L13972.9851,-3571.2532L13972.9567,-3571.3071L13972.8392,-3571.5489L13972.7825,-3571.6553"/>
<path content="1,東武バスウエスト,坂戸駅南口・川越駅西口～成田空港,2.0,2.0,2.0," xlink:title="1" d="M13973.5107,-3570.9185L13973.4579,-3570.9334L13973.4271,-3570.9438L13973.3995,-3570.9531L13973.3491,-3570.9733L13973.2974,-3570.9933L13973.2665,-3571.0053L13973.2132,-3571.0302L13973.2099,-3571.0316L13973.208,-3571.0324L13973.2021,-3571.0348L13973.1881,-3571.0407L13973.1869,-3571.0412L13973.1852,-3571.0419L13973.1826,-3571.043L13973.1817,-3571.0434L13973.1809,-3571.0438L13973.1799,-3571.0442L13973.1791,-3571.0446L13973.1738,-3571.047L13973.1713,-3571.0481L13973.1713,-3571.0481L13973.1713,-3571.0481L13973.1713,-3571.0481L13973.1713,-3571.0481L13973.1646,-3571.0511L13973.1502,-3571.0576L13973.147,-3571.0591L13973.1423,-3571.0621L13973.1378,-3571.065L13973.1371,-3571.0655L13973.1333,-3571.068L13973.1285,-3571.0711L13973.126,-3571.0727L13973.1255,-3571.073L13973.1248,-3571.0735L13973.1206,-3571.0762L13973.1199,-3571.0767L13973.1161,-3571.0791L13973.114,-3571.0805L13973.1134,-3571.0809L13973.1128,-3571.0813L13973.1108,-3571.0826L13973.1103,-3571.0829L13973.1103,-3571.0829L13973.1103,-3571.0829L13973.1103,-3571.0829L13973.1103,-3571.0829L13973.1095,-3571.0834L13973.1089,-3571.0838L13973.1085,-3571.0842L13973.1085,-3571.0842L13973.1081,-3571.0845L13973.1077,-3571.0849L13973.1068,-3571.0857L13973.1057,-3571.0866L13973.1047,-3571.0875L13973.1022,-3571.0898L13973.1015,-3571.0904L13973.1009,-3571.0909L13973.1003,-3571.0915L13973.0972,-3571.0942L13973.0958,-3571.0954L13973.0947,-3571.0964L13973.0936,-3571.0974L13973.093,-3571.0979L13973.093,-3571.0979L13973.093,-3571.0979L13973.0925,-3571.0983L13973.0766,-3571.1124L13973.0732,-3571.1154L13973.0729,-3571.1157L13973.0729,-3571.1157L13973.0516,-3571.1401L13973.0326,-3571.163L13973.0184,-3571.1882L13973.0093,-3571.2062L13972.9956,-3571.2331L13972.9851,-3571.2532L13972.9567,-3571.3071L13972.8392,-3571.5489L13972.7825,-3571.6553"/>
<path content="1,東武バスウエスト,東京ディズニーリゾート（東京ディズニーランド・東京ディズニーシー）・新浦安～小江戸　川越,2.0,2.0,2.0," xlink:title="1" d="M13973.5107,-3570.9185L13973.4579,-3570.9334L13973.4271,-3570.9438L13973.3995,-3570.9531L13973.3491,-3570.9733L13973.2974,-3570.9933L13973.2665,-3571.0053L13973.2132,-3571.0302L13973.2099,-3571.0316L13973.208,-3571.0324L13973.2021,-3571.0348L13973.1881,-3571.0407L13973.1869,-3571.0412L13973.1852,-3571.0419L13973.1826,-3571.043L13973.1817,-3571.0434L13973.1809,-3571.0438L13973.1799,-3571.0442L13973.1791,-3571.0446L13973.1738,-3571.047L13973.1713,-3571.0481L13973.1713,-3571.0481L13973.1713,-3571.0481L13973.1713,-3571.0481L13973.1713,-3571.0481L13973.1646,-3571.0511L13973.1502,-3571.0576L13973.147,-3571.0591L13973.1423,-3571.0621L13973.1378,-3571.065L13973.1371,-3571.0655L13973.1333,-3571.068L13973.1285,-3571.0711L13973.126,-3571.0727L13973.1255,-3571.073L13973.1248,-3571.0735L13973.1206,-3571.0762L13973.1199,-3571.0767L13973.1161,-3571.0791L13973.114,-3571.0805L13973.1134,-3571.0809L13973.1128,-3571.0813L13973.1108,-3571.0826L13973.1103,-3571.0829L13973.1103,-3571.0829L13973.1103,-3571.0829L13973.1103,-3571.0829L13973.1103,-3571.0829L13973.1095,-3571.0834L13973.1089,-3571.0838L13973.1085,-3571.0842L13973.1085,-3571.0842L13973.1081,-3571.0845L13973.1077,-3571.0849L13973.1068,-3571.0857L13973.1057,-3571.0866L13973.1047,-3571.0875L13973.1022,-3571.0898L13973.1015,-3571.0904L13973.1009,-3571.0909L13973.1003,-3571.0915L13973.0972,-3571.0942L13973.0958,-3571.0954L13973.0947,-3571.0964L13973.0936,-3571.0974L13973.093,-3571.0979L13973.093,-3571.0979L13973.093,-3571.0979L13973.0925,-3571.0983L13973.0766,-3571.1124L13973.0732,-3571.1154L13973.0729,-3571.1157L13973.0729,-3571.1157L13973.0516,-3571.1401L13973.0326,-3571.163L13973.0184,-3571.1882L13973.0093,-3571.2062L13972.9956,-3571.2331L13972.9851,-3571.2532L13972.9567,-3571.3071L13972.8392,-3571.5489L13972.7825,-3571.6553"/>
<path content="1,東野交通（株）,那須温泉～新宿駅新南口,3.0,3.0,3.0," xlink:title="1" d="M13972.7018,-3570.5566L13972.7021,-3570.5599L13972.702,-3570.5644L13972.702,-3570.5917L13972.7019,-3570.6026L13972.7019,-3570.6377L13972.7017,-3570.6649L13972.7006,-3570.6921L13972.7005,-3570.7023L13972.7,-3570.7394L13972.7002,-3570.7585L13972.7003,-3570.7807L13972.7013,-3570.8115L13972.7019,-3570.8424L13972.7012,-3570.854L13972.7013,-3570.8609L13972.7015,-3570.8783L13972.7016,-3570.8929L13972.7019,-3570.9026L13972.7029,-3570.9448L13972.7021,-3570.9697L13972.7023,-3570.9762L13972.7023,-3570.9815L13972.703,-3570.9869L13972.7063,-3570.9949L13972.7144,-3571.003L13972.7278,-3571.011L13972.7379,-3571.0144L13972.7526,-3571.0157L13972.7909,-3571.015L13972.8308,-3571.0157L13972.8664,-3571.0184L13972.9026,-3571.0231L13972.9536,-3571.0324L13972.9979,-3571.0412L13973.0288,-3571.0445L13973.0724,-3571.0472L13973.1073,-3571.0459L13973.1469,-3571.0378L13973.1687,-3571.0311L13973.173,-3571.0298L13973.1734,-3571.0327L13973.1713,-3571.0481L13973.1663,-3571.0655L13973.162,-3571.0769L13973.1549,-3571.0911L13973.1524,-3571.0954L13973.1496,-3571.1003L13973.085,-3571.2127L13973.0741,-3571.2318L13973.0672,-3571.2437L13973.0471,-3571.2871L13973.0444,-3571.291L13973.0347,-3571.3119L13973.0002,-3571.3823L13972.9912,-3571.4014L13972.9788,-3571.4268L13972.976,-3571.4313L13972.9719,-3571.4414L13972.9608,-3571.4668L13972.9449,-3571.5029L13972.9373,-3571.52L13972.9187,-3571.5547L13972.8946,-3571.6054L13972.8724,-3571.6553"/>
<path content="1,江ノ電バス藤沢,レイク＆ポート号,1.0,1.0,1.0," xlink:title="1" d="M13973.5107,-3570.9185L13973.4579,-3570.9334L13973.4271,-3570.9438L13973.3995,-3570.9531L13973.3491,-3570.9733L13973.2974,-3570.9933L13973.2665,-3571.0053L13973.2132,-3571.0302L13973.2099,-3571.0316L13973.208,-3571.0324L13973.2021,-3571.0348L13973.1881,-3571.0407L13973.1869,-3571.0412L13973.1852,-3571.0419L13973.1826,-3571.043L13973.1817,-3571.0434L13973.1809,-3571.0438L13973.1799,-3571.0442L13973.1791,-3571.0446L13973.1738,-3571.047L13973.1713,-3571.0481L13973.1646,-3571.0511L13973.1502,-3571.0576L13973.147,-3571.0591L13973.1423,-3571.0621L13973.1378,-3571.065L13973.1371,-3571.0655L13973.1333,-3571.068L13973.1285,-3571.0711L13973.126,-3571.0727L13973.1255,-3571.073L13973.1248,-3571.0735L13973.1206,-3571.0762L13973.1199,-3571.0767L13973.1161,-3571.0791L13973.114,-3571.0805L13973.1134,-3571.0809L13973.1128,-3571.0813L13973.1108,-3571.0826L13973.1103,-3571.0829L13973.1095,-3571.0834L13973.1089,-3571.0838L13973.1085,-3571.0842L13973.1081,-3571.0845L13973.1077,-3571.0849L13973.1068,-3571.0857L13973.1057,-3571.0866L13973.1047,-3571.0875L13973.1022,-3571.0898L13973.1015,-3571.0904L13973.1009,-3571.0909L13973.1003,-3571.0915L13973.0972,-3571.0942L13973.0958,-3571.0954L13973.0947,-3571.0964L13973.0936,-3571.0974L13973.093,-3571.0979L13973.0925,-3571.0983L13973.0766,-3571.1124L13973.0732,-3571.1154L13973.0729,-3571.1157L13973.0516,-3571.1401L13973.0326,-3571.163L13973.0184,-3571.1882L13973.0093,-3571.2062L13972.9956,-3571.2331L13972.9851,-3571.2532L13972.9567,-3571.3071L13972.8392,-3571.5489L13972.7825,-3571.6553"/>
<path content="1,茨城交通（株）,茨城交通大子営業所～新宿駅,9.0,9.0,9.0," xlink:title="1" d="M13972.4121,-3571.5171L13972.4403,-3571.5113L13972.4513,-3571.5107L13972.4598,-3571.5078L13972.4727,-3571.5034L13972.4817,-3571.4972L13972.4976,-3571.4831L13972.5224,-3571.4578L13972.5535,-3571.4263L13972.6205,-3571.3592L13972.6316,-3571.3497L13972.6384,-3571.3411L13972.6647,-3571.3143L13972.6819,-3571.2961L13972.6971,-3571.2837L13972.724,-3571.2623L13972.7364,-3571.2516L13972.7627,-3571.2319L13972.771,-3571.2274L13972.8055,-3571.2121L13972.8304,-3571.2059L13972.8469,-3571.2037L13972.898,-3571.2014L13972.9871,-3571.2043L13973.0093,-3571.2062L13973.0184,-3571.1882L13973.0326,-3571.163L13973.0516,-3571.1401L13973.0729,-3571.1157L13973.0729,-3571.1157L13973.0732,-3571.1154L13973.0766,-3571.1124L13973.0925,-3571.0983L13973.093,-3571.0979L13973.093,-3571.0979L13973.093,-3571.0979L13973.0936,-3571.0974L13973.0947,-3571.0964L13973.0958,-3571.0954L13973.0972,-3571.0942L13973.1003,-3571.0915L13973.1009,-3571.0909L13973.1015,-3571.0904L13973.1022,-3571.0898L13973.1047,-3571.0875L13973.1057,-3571.0866L13973.1068,-3571.0857L13973.1077,-3571.0849L13973.1081,-3571.0845L13973.1085,-3571.0842L13973.1085,-3571.0842L13973.1089,-3571.0838L13973.1095,-3571.0834L13973.1103,-3571.0829L13973.1103,-3571.0829L13973.1103,-3571.0829L13973.1103,-3571.0829L13973.1103,-3571.0829L13973.1108,-3571.0826L13973.1128,-3571.0813L13973.1134,-3571.0809L13973.114,-3571.0805L13973.1161,-3571.0791L13973.1199,-3571.0767L13973.1206,-3571.0762L13973.1248,-3571.0735L13973.1255,-3571.073L13973.126,-3571.0727L13973.1285,-3571.0711L13973.1333,-3571.068L13973.1371,-3571.0655L13973.1378,-3571.065L13973.1423,-3571.0621L13973.147,-3571.0591L13973.1502,-3571.0576L13973.1646,-3571.0511L13973.1713,-3571.0481L13973.1713,-3571.0481L13973.1713,-3571.0481L13973.1713,-3571.0481L13973.1713,-3571.0481L13973.1738,-3571.047L13973.1791,-3571.0446L13973.1799,-3571.0442L13973.1809,-3571.0438L13973.1817,-3571.0434L13973.1826,-3571.043L13973.1852,-3571.0419L13973.1869,-3571.0412L13973.1881,-3571.0407L13973.2021,-3571.0348L13973.208,-3571.0324L13973.2099,-3571.0316L13973.2132,-3571.0302L13973.2665,-3571.0053L13973.2974,-3570.9933L13973.3491,-3570.9733L13973.3995,-3570.9531L13973.4271,-3570.9438L13973.4579,-3570.9334L13973.5107,-3570.9185"/>
<path content="1,西武バス（株）,大宮成田線,2.0,2.0,2.0," xlink:title="1" d="M13973.5107,-3570.9185L13973.4579,-3570.9334L13973.4271,-3570.9438L13973.3995,-3570.9531L13973.3491,-3570.9733L13973.2974,-3570.9933L13973.2665,-3571.0053L13973.2132,-3571.0302L13973.2099,-3571.0316L13973.208,-3571.0324L13973.2021,-3571.0348L13973.1881,-3571.0407L13973.1869,-3571.0412L13973.1852,-3571.0419L13973.1826,-3571.043L13973.1817,-3571.0434L13973.1809,-3571.0438L13973.1799,-3571.0442L13973.1791,-3571.0446L13973.1738,-3571.047L13973.1713,-3571.0481L13973.1713,-3571.0481L13973.1713,-3571.0481L13973.1713,-3571.0481L13973.1713,-3571.0481L13973.1646,-3571.0511L13973.1502,-3571.0576L13973.147,-3571.0591L13973.1423,-3571.0621L13973.1378,-3571.065L13973.1371,-3571.0655L13973.1333,-3571.068L13973.1285,-3571.0711L13973.126,-3571.0727L13973.1255,-3571.073L13973.1248,-3571.0735L13973.1206,-3571.0762L13973.1199,-3571.0767L13973.1161,-3571.0791L13973.114,-3571.0805L13973.1134,-3571.0809L13973.1128,-3571.0813L13973.1108,-3571.0826L13973.1103,-3571.0829L13973.1103,-3571.0829L13973.1103,-3571.0829L13973.1103,-3571.0829L13973.1103,-3571.0829L13973.1095,-3571.0834L13973.1089,-3571.0838L13973.1085,-3571.0842L13973.1085,-3571.0842L13973.1081,-3571.0845L13973.1077,-3571.0849L13973.1068,-3571.0857L13973.1057,-3571.0866L13973.1047,-3571.0875L13973.1022,-3571.0898L13973.1015,-3571.0904L13973.1009,-3571.0909L13973.1003,-3571.0915L13973.0972,-3571.0942L13973.0958,-3571.0954L13973.0947,-3571.0964L13973.0936,-3571.0974L13973.093,-3571.0979L13973.093,-3571.0979L13973.093,-3571.0979L13973.0925,-3571.0983L13973.0766,-3571.1124L13973.0732,-3571.1154L13973.0729,-3571.1157L13973.0729,-3571.1157L13973.0516,-3571.1401L13973.0326,-3571.163L13973.0184,-3571.1882L13973.0093,-3571.2062L13972.9956,-3571.2331L13972.9851,-3571.2532L13972.9567,-3571.3071L13972.8392,-3571.5489L13972.7825,-3571.6553"/>
<path content="1,西武バス（株）,大宮羽田線,5.0,5.0,5.0," xlink:title="1" d="M13973.5107,-3570.9185L13973.4579,-3570.9334L13973.4271,-3570.9438L13973.3995,-3570.9531L13973.3491,-3570.9733L13973.2974,-3570.9933L13973.2665,-3571.0053L13973.2132,-3571.0302L13973.2099,-3571.0316L13973.208,-3571.0324L13973.2021,-3571.0348L13973.1881,-3571.0407L13973.1869,-3571.0412L13973.1852,-3571.0419L13973.1826,-3571.043L13973.1817,-3571.0434L13973.1809,-3571.0438L13973.1799,-3571.0442L13973.1791,-3571.0446L13973.1738,-3571.047L13973.1713,-3571.0481L13973.1713,-3571.0481L13973.1713,-3571.0481L13973.1713,-3571.0481L13973.1713,-3571.0481L13973.1646,-3571.0511L13973.1502,-3571.0576L13973.147,-3571.0591L13973.1423,-3571.0621L13973.1378,-3571.065L13973.1371,-3571.0655L13973.1333,-3571.068L13973.1285,-3571.0711L13973.126,-3571.0727L13973.1255,-3571.073L13973.1248,-3571.0735L13973.1206,-3571.0762L13973.1199,-3571.0767L13973.1161,-3571.0791L13973.114,-3571.0805L13973.1134,-3571.0809L13973.1128,-3571.0813L13973.1108,-3571.0826L13973.1103,-3571.0829L13973.1103,-3571.0829L13973.1103,-3571.0829L13973.1103,-3571.0829L13973.1103,-3571.0829L13973.1095,-3571.0834L13973.1089,-3571.0838L13973.1085,-3571.0842L13973.1085,-3571.0842L13973.1081,-3571.0845L13973.1077,-3571.0849L13973.1068,-3571.0857L13973.1057,-3571.0866L13973.1047,-3571.0875L13973.1022,-3571.0898L13973.1015,-3571.0904L13973.1009,-3571.0909L13973.1003,-3571.0915L13973.0972,-3571.0942L13973.0958,-3571.0954L13973.0947,-3571.0964L13973.0936,-3571.0974L13973.093,-3571.0979L13973.093,-3571.0979L13973.093,-3571.0979L13973.0925,-3571.0983L13973.0766,-3571.1124L13973.0732,-3571.1154L13973.0729,-3571.1157L13973.0729,-3571.1157L13973.0516,-3571.1401L13973.0326,-3571.163L13973.0184,-3571.1882L13973.0093,-3571.2062L13972.9956,-3571.2331L13972.9851,-3571.2532L13972.9567,-3571.3071L13972.8392,-3571.5489L13972.7825,-3571.6553"/>
<path content="1,西武バス（株）,大泉学園成田線,3.0,3.0,3.0," xlink:title="1" d="M13972.7825,-3571.6553L13972.8392,-3571.5489L13972.9567,-3571.3071L13972.9851,-3571.2532L13972.9956,-3571.2331L13973.0093,-3571.2062L13973.0184,-3571.1882L13973.0326,-3571.163L13973.0516,-3571.1401L13973.0729,-3571.1157L13973.0729,-3571.1157L13973.0732,-3571.1154L13973.0766,-3571.1124L13973.0925,-3571.0983L13973.093,-3571.0979L13973.093,-3571.0979L13973.093,-3571.0979L13973.0936,-3571.0974L13973.0947,-3571.0964L13973.0958,-3571.0954L13973.0972,-3571.0942L13973.1003,-3571.0915L13973.1009,-3571.0909L13973.1015,-3571.0904L13973.1022,-3571.0898L13973.1047,-3571.0875L13973.1057,-3571.0866L13973.1068,-3571.0857L13973.1077,-3571.0849L13973.1081,-3571.0845L13973.1085,-3571.0842L13973.1085,-3571.0842L13973.1089,-3571.0838L13973.1095,-3571.0834L13973.1103,-3571.0829L13973.1103,-3571.0829L13973.1103,-3571.0829L13973.1103,-3571.0829L13973.1103,-3571.0829L13973.1108,-3571.0826L13973.1128,-3571.0813L13973.1134,-3571.0809L13973.114,-3571.0805L13973.1161,-3571.0791L13973.1199,-3571.0767L13973.1206,-3571.0762L13973.1248,-3571.0735L13973.1255,-3571.073L13973.126,-3571.0727L13973.1285,-3571.0711L13973.1333,-3571.068L13973.1371,-3571.0655L13973.1378,-3571.065L13973.1423,-3571.0621L13973.147,-3571.0591L13973.1502,-3571.0576L13973.1646,-3571.0511L13973.1713,-3571.0481L13973.1713,-3571.0481L13973.1713,-3571.0481L13973.1713,-3571.0481L13973.1713,-3571.0481L13973.1738,-3571.047L13973.1791,-3571.0446L13973.1799,-3571.0442L13973.1809,-3571.0438L13973.1817,-3571.0434L13973.1826,-3571.043L13973.1852,-3571.0419L13973.1869,-3571.0412L13973.1881,-3571.0407L13973.2021,-3571.0348L13973.208,-3571.0324L13973.2099,-3571.0316L13973.2132,-3571.0302L13973.2665,-3571.0053L13973.2974,-3570.9933L13973.3491,-3570.9733L13973.3995,-3570.9531L13973.4271,-3570.9438L13973.4579,-3570.9334L13973.5107,-3570.9185"/>
<path content="1,西武バス（株）,大泉学園羽田線,5.5,5.5,5.5," xlink:title="1" d="M13973.5107,-3570.9185L13973.4579,-3570.9334L13973.4271,-3570.9438L13973.3995,-3570.9531L13973.3491,-3570.9733L13973.2974,-3570.9933L13973.2665,-3571.0053L13973.2132,-3571.0302L13973.2099,-3571.0316L13973.208,-3571.0324L13973.2021,-3571.0348L13973.1881,-3571.0407L13973.1869,-3571.0412L13973.1852,-3571.0419L13973.1826,-3571.043L13973.1817,-3571.0434L13973.1809,-3571.0438L13973.1799,-3571.0442L13973.1791,-3571.0446L13973.1738,-3571.047L13973.1713,-3571.0481L13973.1713,-3571.0481L13973.1713,-3571.0481L13973.1713,-3571.0481L13973.1713,-3571.0481L13973.1646,-3571.0511L13973.1502,-3571.0576L13973.147,-3571.0591L13973.1423,-3571.0621L13973.1378,-3571.065L13973.1371,-3571.0655L13973.1333,-3571.068L13973.1285,-3571.0711L13973.126,-3571.0727L13973.1255,-3571.073L13973.1248,-3571.0735L13973.1206,-3571.0762L13973.1199,-3571.0767L13973.1161,-3571.0791L13973.114,-3571.0805L13973.1134,-3571.0809L13973.1128,-3571.0813L13973.1108,-3571.0826L13973.1103,-3571.0829L13973.1103,-3571.0829L13973.1103,-3571.0829L13973.1103,-3571.0829L13973.1103,-3571.0829L13973.1095,-3571.0834L13973.1089,-3571.0838L13973.1085,-3571.0842L13973.1085,-3571.0842L13973.1081,-3571.0845L13973.1077,-3571.0849L13973.1068,-3571.0857L13973.1057,-3571.0866L13973.1047,-3571.0875L13973.1022,-3571.0898L13973.1015,-3571.0904L13973.1009,-3571.0909L13973.1003,-3571.0915L13973.0972,-3571.0942L13973.0958,-3571.0954L13973.0947,-3571.0964L13973.0936,-3571.0974L13973.093,-3571.0979L13973.093,-3571.0979L13973.093,-3571.0979L13973.0925,-3571.0983L13973.0766,-3571.1124L13973.0732,-3571.1154L13973.0729,-3571.1157L13973.0729,-3571.1157L13973.0516,-3571.1401L13973.0326,-3571.163L13973.0184,-3571.1882L13973.0093,-3571.2062L13972.9956,-3571.2331L13972.9851,-3571.2532L13972.9567,-3571.3071L13972.8392,-3571.5489L13972.7825,-3571.6553"/>
<path content="1,西武バス（株）,川越羽田線,2.0,2.0,2.0," xlink:title="1" d="M13972.7825,-3571.6553L13972.8392,-3571.5489L13972.9567,-3571.3071L13972.9851,-3571.2532L13972.9956,-3571.2331L13973.0093,-3571.2062L13973.0184,-3571.1882L13973.0326,-3571.163L13973.0516,-3571.1401L13973.0729,-3571.1157L13973.0729,-3571.1157L13973.0732,-3571.1154L13973.0766,-3571.1124L13973.0925,-3571.0983L13973.093,-3571.0979L13973.093,-3571.0979L13973.093,-3571.0979L13973.0936,-3571.0974L13973.0947,-3571.0964L13973.0958,-3571.0954L13973.0972,-3571.0942L13973.1003,-3571.0915L13973.1009,-3571.0909L13973.1015,-3571.0904L13973.1022,-3571.0898L13973.1047,-3571.0875L13973.1057,-3571.0866L13973.1068,-3571.0857L13973.1077,-3571.0849L13973.1081,-3571.0845L13973.1085,-3571.0842L13973.1085,-3571.0842L13973.1089,-3571.0838L13973.1095,-3571.0834L13973.1103,-3571.0829L13973.1103,-3571.0829L13973.1103,-3571.0829L13973.1103,-3571.0829L13973.1103,-3571.0829L13973.1108,-3571.0826L13973.1128,-3571.0813L13973.1134,-3571.0809L13973.114,-3571.0805L13973.1161,-3571.0791L13973.1199,-3571.0767L13973.1206,-3571.0762L13973.1248,-3571.0735L13973.1255,-3571.073L13973.126,-3571.0727L13973.1285,-3571.0711L13973.1333,-3571.068L13973.1371,-3571.0655L13973.1378,-3571.065L13973.1423,-3571.0621L13973.147,-3571.0591L13973.1502,-3571.0576L13973.1646,-3571.0511L13973.1713,-3571.0481L13973.1713,-3571.0481L13973.1713,-3571.0481L13973.1713,-3571.0481L13973.1713,-3571.0481L13973.1738,-3571.047L13973.1791,-3571.0446L13973.1799,-3571.0442L13973.1809,-3571.0438L13973.1817,-3571.0434L13973.1826,-3571.043L13973.1852,-3571.0419L13973.1869,-3571.0412L13973.1881,-3571.0407L13973.2021,-3571.0348L13973.208,-3571.0324L13973.2099,-3571.0316L13973.2132,-3571.0302L13973.2665,-3571.0053L13973.2974,-3570.9933L13973.3491,-3570.9733L13973.3995,-3570.9531L13973.4271,-3570.9438L13973.4579,-3570.9334L13973.5107,-3570.9185"/>
<path content="1,西武バス（株）,所沢成田線,4.0,4.0,4.0," xlink:title="1" d="M13972.7825,-3571.6553L13972.8392,-3571.5489L13972.9567,-3571.3071L13972.9851,-3571.2532L13972.9956,-3571.2331L13973.0093,-3571.2062L13973.0184,-3571.1882L13973.0326,-3571.163L13973.0516,-3571.1401L13973.0729,-3571.1157L13973.0729,-3571.1157L13973.0732,-3571.1154L13973.0766,-3571.1124L13973.0925,-3571.0983L13973.093,-3571.0979L13973.093,-3571.0979L13973.093,-3571.0979L13973.0936,-3571.0974L13973.0947,-3571.0964L13973.0958,-3571.0954L13973.0972,-3571.0942L13973.1003,-3571.0915L13973.1009,-3571.0909L13973.1015,-3571.0904L13973.1022,-3571.0898L13973.1047,-3571.0875L13973.1057,-3571.0866L13973.1068,-3571.0857L13973.1077,-3571.0849L13973.1081,-3571.0845L13973.1085,-3571.0842L13973.1085,-3571.0842L13973.1089,-3571.0838L13973.1095,-3571.0834L13973.1103,-3571.0829L13973.1103,-3571.0829L13973.1103,-3571.0829L13973.1103,-3571.0829L13973.1103,-3571.0829L13973.1108,-3571.0826L13973.1128,-3571.0813L13973.1134,-3571.0809L13973.114,-3571.0805L13973.1161,-3571.0791L13973.1199,-3571.0767L13973.1206,-3571.0762L13973.1248,-3571.0735L13973.1255,-3571.073L13973.126,-3571.0727L13973.1285,-3571.0711L13973.1333,-3571.068L13973.1371,-3571.0655L13973.1378,-3571.065L13973.1423,-3571.0621L13973.147,-3571.0591L13973.1502,-3571.0576L13973.1646,-3571.0511L13973.1713,-3571.0481L13973.1713,-3571.0481L13973.1713,-3571.0481L13973.1713,-3571.0481L13973.1713,-3571.0481L13973.1738,-3571.047L13973.1791,-3571.0446L13973.1799,-3571.0442L13973.1809,-3571.0438L13973.1817,-3571.0434L13973.1826,-3571.043L13973.1852,-3571.0419L13973.1869,-3571.0412L13973.1881,-3571.0407L13973.2021,-3571.0348L13973.208,-3571.0324L13973.2099,-3571.0316L13973.2132,-3571.0302L13973.2665,-3571.0053L13973.2974,-3570.9933L13973.3491,-3570.9733L13973.3995,-3570.9531L13973.4271,-3570.9438L13973.4579,-3570.9334L13973.5107,-3570.9185"/>
<path content="1,西武バス（株）,所沢羽田線,10.5,10.5,10.5," xlink:title="1" d="M13973.5107,-3570.9185L13973.4579,-3570.9334L13973.4271,-3570.9438L13973.3995,-3570.9531L13973.3491,-3570.9733L13973.2974,-3570.9933L13973.2665,-3571.0053L13973.2132,-3571.0302L13973.2099,-3571.0316L13973.208,-3571.0324L13973.2021,-3571.0348L13973.1881,-3571.0407L13973.1869,-3571.0412L13973.1852,-3571.0419L13973.1826,-3571.043L13973.1817,-3571.0434L13973.1809,-3571.0438L13973.1799,-3571.0442L13973.1791,-3571.0446L13973.1738,-3571.047L13973.1713,-3571.0481L13973.1713,-3571.0481L13973.1713,-3571.0481L13973.1713,-3571.0481L13973.1713,-3571.0481L13973.1646,-3571.0511L13973.1502,-3571.0576L13973.147,-3571.0591L13973.1423,-3571.0621L13973.1378,-3571.065L13973.1371,-3571.0655L13973.1333,-3571.068L13973.1285,-3571.0711L13973.126,-3571.0727L13973.1255,-3571.073L13973.1248,-3571.0735L13973.1206,-3571.0762L13973.1199,-3571.0767L13973.1161,-3571.0791L13973.114,-3571.0805L13973.1134,-3571.0809L13973.1128,-3571.0813L13973.1108,-3571.0826L13973.1103,-3571.0829L13973.1103,-3571.0829L13973.1103,-3571.0829L13973.1103,-3571.0829L13973.1103,-3571.0829L13973.1095,-3571.0834L13973.1089,-3571.0838L13973.1085,-3571.0842L13973.1085,-3571.0842L13973.1081,-3571.0845L13973.1077,-3571.0849L13973.1068,-3571.0857L13973.1057,-3571.0866L13973.1047,-3571.0875L13973.1022,-3571.0898L13973.1015,-3571.0904L13973.1009,-3571.0909L13973.1003,-3571.0915L13973.0972,-3571.0942L13973.0958,-3571.0954L13973.0947,-3571.0964L13973.0936,-3571.0974L13973.093,-3571.0979L13973.093,-3571.0979L13973.093,-3571.0979L13973.0925,-3571.0983L13973.0766,-3571.1124L13973.0732,-3571.1154L13973.0729,-3571.1157L13973.0729,-3571.1157L13973.0516,-3571.1401L13973.0326,-3571.163L13973.0184,-3571.1882L13973.0093,-3571.2062L13972.9956,-3571.2331L13972.9851,-3571.2532L13972.9567,-3571.3071L13972.8392,-3571.5489L13972.7825,-3571.6553"/>
<path content="1,西武観光バス,びわこドリーム号,1.0,1.0,1.0," xlink:title="1" d="M13973.5107,-3570.9185L13973.4579,-3570.9334L13973.4271,-3570.9438L13973.3995,-3570.9531L13973.3491,-3570.9733L13973.2974,-3570.9933L13973.2665,-3571.0053L13973.2132,-3571.0302L13973.2099,-3571.0316L13973.208,-3571.0324L13973.2021,-3571.0348L13973.1881,-3571.0407L13973.1869,-3571.0412L13973.1852,-3571.0419L13973.1826,-3571.043L13973.1817,-3571.0434L13973.1809,-3571.0438L13973.1799,-3571.0442L13973.1791,-3571.0446L13973.1738,-3571.047L13973.1713,-3571.0481L13973.1713,-3571.0481L13973.1713,-3571.0481L13973.1713,-3571.0481L13973.1713,-3571.0481L13973.1646,-3571.0511L13973.1502,-3571.0576L13973.147,-3571.0591L13973.1423,-3571.0621L13973.1378,-3571.065L13973.1371,-3571.0655L13973.1333,-3571.068L13973.1285,-3571.0711L13973.126,-3571.0727L13973.1255,-3571.073L13973.1248,-3571.0735L13973.1206,-3571.0762L13973.1199,-3571.0767L13973.1161,-3571.0791L13973.114,-3571.0805L13973.1134,-3571.0809L13973.1128,-3571.0813L13973.1108,-3571.0826L13973.1103,-3571.0829L13973.1103,-3571.0829L13973.1103,-3571.0829L13973.1103,-3571.0829L13973.1103,-3571.0829L13973.1095,-3571.0834L13973.1089,-3571.0838L13973.1085,-3571.0842L13973.1085,-3571.0842L13973.1081,-3571.0845L13973.1077,-3571.0849L13973.1068,-3571.0857L13973.1057,-3571.0866L13973.1047,-3571.0875L13973.1022,-3571.0898L13973.1015,-3571.0904L13973.1009,-3571.0909L13973.1003,-3571.0915L13973.0972,-3571.0942L13973.0958,-3571.0954L13973.0947,-3571.0964L13973.0936,-3571.0974L13973.093,-3571.0979L13973.093,-3571.0979L13973.093,-3571.0979L13973.0925,-3571.0983L13973.0766,-3571.1124L13973.0732,-3571.1154L13973.0729,-3571.1157L13973.0729,-3571.1157L13973.0516,-3571.1401L13973.0326,-3571.163L13973.0184,-3571.1882L13973.0093,-3571.2062L13972.9956,-3571.2331L13972.9851,-3571.2532L13972.9567,-3571.3071L13972.8392,-3571.5489L13972.7825,-3571.6553"/>
<path content="1,西武観光バス,大宮・池袋・横浜～南紀勝浦線,1.0,1.0,1.0," xlink:title="1" d="M13973.5107,-3570.9185L13973.4579,-3570.9334L13973.4271,-3570.9438L13973.3995,-3570.9531L13973.3491,-3570.9733L13973.2974,-3570.9933L13973.2665,-3571.0053L13973.2132,-3571.0302L13973.2099,-3571.0316L13973.208,-3571.0324L13973.2021,-3571.0348L13973.1881,-3571.0407L13973.1869,-3571.0412L13973.1852,-3571.0419L13973.1826,-3571.043L13973.1817,-3571.0434L13973.1809,-3571.0438L13973.1799,-3571.0442L13973.1791,-3571.0446L13973.1738,-3571.047L13973.1713,-3571.0481L13973.1713,-3571.0481L13973.1713,-3571.0481L13973.1713,-3571.0481L13973.1713,-3571.0481L13973.1646,-3571.0511L13973.1502,-3571.0576L13973.147,-3571.0591L13973.1423,-3571.0621L13973.1378,-3571.065L13973.1371,-3571.0655L13973.1333,-3571.068L13973.1285,-3571.0711L13973.126,-3571.0727L13973.1255,-3571.073L13973.1248,-3571.0735L13973.1206,-3571.0762L13973.1199,-3571.0767L13973.1161,-3571.0791L13973.114,-3571.0805L13973.1134,-3571.0809L13973.1128,-3571.0813L13973.1108,-3571.0826L13973.1103,-3571.0829L13973.1103,-3571.0829L13973.1103,-3571.0829L13973.1103,-3571.0829L13973.1103,-3571.0829L13973.1095,-3571.0834L13973.1089,-3571.0838L13973.1085,-3571.0842L13973.1085,-3571.0842L13973.1081,-3571.0845L13973.1077,-3571.0849L13973.1068,-3571.0857L13973.1057,-3571.0866L13973.1047,-3571.0875L13973.1022,-3571.0898L13973.1015,-3571.0904L13973.1009,-3571.0909L13973.1003,-3571.0915L13973.0972,-3571.0942L13973.0958,-3571.0954L13973.0947,-3571.0964L13973.0936,-3571.0974L13973.093,-3571.0979L13973.093,-3571.0979L13973.093,-3571.0979L13973.0925,-3571.0983L13973.0766,-3571.1124L13973.0732,-3571.1154L13973.0729,-3571.1157L13973.0729,-3571.1157L13973.0516,-3571.1401L13973.0326,-3571.163L13973.0184,-3571.1882L13973.0093,-3571.2062L13972.9956,-3571.2331L13972.9851,-3571.2532L13972.9567,-3571.3071L13972.8392,-3571.5489L13972.7825,-3571.6553"/>
<path content="1,西武観光バス,宇和島線,1.0,1.0,1.0," xlink:title="1" d="M13973.5107,-3570.9185L13973.4579,-3570.9334L13973.4271,-3570.9438L13973.3995,-3570.9531L13973.3491,-3570.9733L13973.2974,-3570.9933L13973.2665,-3571.0053L13973.2132,-3571.0302L13973.2099,-3571.0316L13973.208,-3571.0324L13973.2021,-3571.0348L13973.1881,-3571.0407L13973.1869,-3571.0412L13973.1852,-3571.0419L13973.1826,-3571.043L13973.1817,-3571.0434L13973.1809,-3571.0438L13973.1799,-3571.0442L13973.1791,-3571.0446L13973.1738,-3571.047L13973.1713,-3571.0481L13973.1713,-3571.0481L13973.1713,-3571.0481L13973.1713,-3571.0481L13973.1713,-3571.0481L13973.1646,-3571.0511L13973.1502,-3571.0576L13973.147,-3571.0591L13973.1423,-3571.0621L13973.1378,-3571.065L13973.1371,-3571.0655L13973.1333,-3571.068L13973.1285,-3571.0711L13973.126,-3571.0727L13973.1255,-3571.073L13973.1248,-3571.0735L13973.1206,-3571.0762L13973.1199,-3571.0767L13973.1161,-3571.0791L13973.114,-3571.0805L13973.1134,-3571.0809L13973.1128,-3571.0813L13973.1108,-3571.0826L13973.1103,-3571.0829L13973.1103,-3571.0829L13973.1103,-3571.0829L13973.1103,-3571.0829L13973.1103,-3571.0829L13973.1095,-3571.0834L13973.1089,-3571.0838L13973.1085,-3571.0842L13973.1085,-3571.0842L13973.1081,-3571.0845L13973.1077,-3571.0849L13973.1068,-3571.0857L13973.1057,-3571.0866L13973.1047,-3571.0875L13973.1022,-3571.0898L13973.1015,-3571.0904L13973.1009,-3571.0909L13973.1003,-3571.0915L13973.0972,-3571.0942L13973.0958,-3571.0954L13973.0947,-3571.0964L13973.0936,-3571.0974L13973.093,-3571.0979L13973.093,-3571.0979L13973.093,-3571.0979L13973.0925,-3571.0983L13973.0766,-3571.1124L13973.0732,-3571.1154L13973.0729,-3571.1157L13973.0729,-3571.1157L13973.0516,-3571.1401L13973.0326,-3571.163L13973.0184,-3571.1882L13973.0093,-3571.2062L13972.9956,-3571.2331L13972.9851,-3571.2532L13972.9567,-3571.3071L13972.8392,-3571.5489L13972.7825,-3571.6553"/>
<path content="1,関越交通（株）,四万温泉号,1.4,1.4,1.4," xlink:title="1" d="M13973.5107,-3570.9185L13973.4579,-3570.9334L13973.4271,-3570.9438L13973.3995,-3570.9531L13973.3491,-3570.9733L13973.2974,-3570.9933L13973.2665,-3571.0053L13973.2132,-3571.0302L13973.2099,-3571.0316L13973.208,-3571.0324L13973.2021,-3571.0348L13973.1881,-3571.0407L13973.1869,-3571.0412L13973.1852,-3571.0419L13973.1826,-3571.043L13973.1817,-3571.0434L13973.1809,-3571.0438L13973.1799,-3571.0442L13973.1791,-3571.0446L13973.1738,-3571.047L13973.1713,-3571.0481L13973.1713,-3571.0481L13973.1713,-3571.0481L13973.1713,-3571.0481L13973.1713,-3571.0481L13973.1646,-3571.0511L13973.1502,-3571.0576L13973.147,-3571.0591L13973.1423,-3571.0621L13973.1378,-3571.065L13973.1371,-3571.0655L13973.1333,-3571.068L13973.1285,-3571.0711L13973.126,-3571.0727L13973.1255,-3571.073L13973.1248,-3571.0735L13973.1206,-3571.0762L13973.1199,-3571.0767L13973.1161,-3571.0791L13973.114,-3571.0805L13973.1134,-3571.0809L13973.1128,-3571.0813L13973.1108,-3571.0826L13973.1103,-3571.0829L13973.1103,-3571.0829L13973.1103,-3571.0829L13973.1103,-3571.0829L13973.1103,-3571.0829L13973.1095,-3571.0834L13973.1089,-3571.0838L13973.1085,-3571.0842L13973.1085,-3571.0842L13973.1081,-3571.0845L13973.1077,-3571.0849L13973.1068,-3571.0857L13973.1057,-3571.0866L13973.1047,-3571.0875L13973.1022,-3571.0898L13973.1015,-3571.0904L13973.1009,-3571.0909L13973.1003,-3571.0915L13973.0972,-3571.0942L13973.0958,-3571.0954L13973.0947,-3571.0964L13973.0936,-3571.0974L13973.093,-3571.0979L13973.093,-3571.0979L13973.093,-3571.0979L13973.0925,-3571.0983L13973.0766,-3571.1124L13973.0732,-3571.1154L13973.0729,-3571.1157L13973.0729,-3571.1157L13973.0516,-3571.1401L13973.0326,-3571.163L13973.0184,-3571.1882L13973.0093,-3571.2062L13972.9956,-3571.2331L13972.9851,-3571.2532L13972.9567,-3571.3071L13972.8392,-3571.5489L13972.7825,-3571.6553"/>
<path content="1,阪急バス（株）,横浜・品川・池袋行,1.0,1.0,1.0," xlink:title="1" d="M13973.5107,-3570.9185L13973.5107,-3570.9185L13973.4579,-3570.9334L13973.3995,-3570.9531L13973.3491,-3570.9732L13973.2665,-3571.0053L13973.2132,-3571.0302L13973.1817,-3571.0433L13973.147,-3571.059L13973.1083,-3571.0842L13973.0728,-3571.1157L13973.0516,-3571.1401L13973.0326,-3571.163L13973.0184,-3571.1882L13972.9956,-3571.2331L13972.9851,-3571.2531L13972.9567,-3571.3071L13972.8392,-3571.5489L13972.7825,-3571.6553"/>
<path content="2,都営バス,上58,87.0,80.0,70.0," xlink:title="2" d="M13972.8724,-3571.6553L13972.8946,-3571.6054L13972.9187,-3571.5547L13972.9373,-3571.52L13972.9449,-3571.5029L13972.9608,-3571.4668L13972.9719,-3571.4414L13972.976,-3571.4313L13972.9788,-3571.4268L13972.9912,-3571.4014L13973.0002,-3571.3823L13973.0347,-3571.3119L13973.0444,-3571.291L13973.0471,-3571.2871L13973.0672,-3571.2437L13973.0741,-3571.2318L13973.085,-3571.2127L13973.1496,-3571.1003L13973.1524,-3571.0954L13973.1549,-3571.0911L13973.162,-3571.0769L13973.1663,-3571.0655L13973.1713,-3571.0482L13973.1713,-3571.0481L13973.1734,-3571.0327L13973.173,-3571.0298L13973.1706,-3571.0124"/>
<path content="2,都営バス,上58,87.0,80.0,70.0," xlink:title="2" d="M13973.1706,-3571.0124L13973.1731,-3571.007"/>
<path content="2,都営バス,上58,87.0,80.0,70.0," xlink:title="2" d="M13973.1706,-3571.0124L13973.1261,-3571.0101L13973.0577,-3571.0017L13972.9697,-3570.9875L13972.9498,-3570.9846L13972.9371,-3570.9828L13972.8947,-3570.9767L13972.8443,-3570.9706L13972.8347,-3570.969L13972.8161,-3570.9674L13972.8088,-3570.9671L13972.7783,-3570.9659L13972.7339,-3570.9675L13972.7099,-3570.9716L13972.7021,-3570.9697L13972.6906,-3570.9709L13972.6751,-3570.9726L13972.6505,-3570.9761L13972.6471,-3570.9766L13972.5875,-3570.9918L13972.5416,-3571.0127L13972.5125,-3571.0118L13972.4433,-3571.0316L13972.4251,-3571.0369L13972.4121,-3571.0403"/>
<path content="2,都営バス,上69,59.0,54.0,54.0," xlink:title="2" d="M13973.5107,-3570.8974L13973.4996,-3570.9L13973.4938,-3570.9017L13973.4839,-3570.9048L13973.4293,-3570.9206L13973.4177,-3570.9243L13973.3997,-3570.9305L13973.3943,-3570.9326L13973.3643,-3570.9451L13973.3278,-3570.9583L13973.2861,-3570.9745L13973.2395,-3570.9968L13973.2253,-3571.0021L13973.1731,-3571.007L13973.1706,-3571.0124L13973.1261,-3571.0101L13973.0577,-3571.0017L13972.9697,-3570.9875L13972.9498,-3570.9846L13972.9371,-3570.9828L13972.8947,-3570.9767L13972.8443,-3570.9706L13972.8347,-3570.969L13972.8161,-3570.9674L13972.8088,-3570.9671L13972.7783,-3570.9659L13972.7339,-3570.9675L13972.7099,-3570.9716L13972.7021,-3570.9697L13972.6906,-3570.9709L13972.6751,-3570.9726L13972.6505,-3570.9761L13972.6471,-3570.9766L13972.5875,-3570.9918L13972.5416,-3571.0127L13972.5125,-3571.0118L13972.4433,-3571.0316L13972.4251,-3571.0369L13972.4121,-3571.0403"/>
<path content="2,都営バス,白61,101.0,92.0,87.0," xlink:title="2" d="M13972.4121,-3571.5171L13972.4403,-3571.5113L13972.4513,-3571.5107L13972.4598,-3571.5078L13972.4727,-3571.5034L13972.4817,-3571.4972L13972.4976,-3571.4831L13972.5224,-3571.4578L13972.5535,-3571.4263L13972.6205,-3571.3592L13972.6316,-3571.3497L13972.6384,-3571.3411L13972.6647,-3571.3143L13972.6819,-3571.2961L13972.6971,-3571.2837L13972.724,-3571.2623L13972.7364,-3571.2516L13972.7627,-3571.2319L13972.771,-3571.2274L13972.8055,-3571.2121L13972.8304,-3571.2059L13972.8469,-3571.2037L13972.898,-3571.2014L13972.9871,-3571.2043L13973.0093,-3571.2062L13973.0464,-3571.2094L13973.085,-3571.2127L13973.1496,-3571.1003L13973.1524,-3571.0954L13973.1549,-3571.0911L13973.162,-3571.0769L13973.1663,-3571.0655L13973.1713,-3571.0482L13973.1713,-3571.0481L13973.1734,-3571.0327L13973.173,-3571.0298L13973.1706,-3571.0124L13973.1731,-3571.007L13973.1666,-3570.9845L13973.1638,-3570.9702L13973.1632,-3570.9671L13973.1623,-3570.9626L13973.1604,-3570.9524L13973.1575,-3570.9324L13973.1562,-3570.9237L13973.1521,-3570.8978L13973.1487,-3570.8825L13973.1459,-3570.8639L13973.1467,-3570.8328L13973.124,-3570.7361L13973.0781,-3570.7352L13973.0667,-3570.735L13973.0431,-3570.7346L13973.0031,-3570.7338L13972.9868,-3570.7334L13972.9805,-3570.7333L13972.9456,-3570.7326L13972.9251,-3570.7332L13972.9093,-3570.7332L13972.8974,-3570.7323L13972.8872,-3570.7323L13972.8795,-3570.7326L13972.866,-3570.7328L13972.8385,-3570.7361L13972.816,-3570.7326L13972.7942,-3570.7326L13972.7856,-3570.733L13972.7301,-3570.7354L13972.7135,-3570.7376L13972.7,-3570.7394L13972.7005,-3570.7023L13972.7006,-3570.6921L13972.7017,-3570.6649L13972.7019,-3570.6377L13972.7019,-3570.6026L13972.702,-3570.5917L13972.702,-3570.5644L13972.7021,-3570.5599L13972.7018,-3570.5566"/>
<path content="2,都営バス,飯64,65.0,57.0,39.0," xlink:title="2" d="M13972.4121,-3571.0403L13972.4251,-3571.0369L13972.4433,-3571.0316L13972.5125,-3571.0118L13972.5416,-3571.0127L13972.5875,-3570.9918L13972.6471,-3570.9766L13972.6505,-3570.9761L13972.6751,-3570.9726L13972.6906,-3570.9709L13972.7021,-3570.9697L13972.7099,-3570.9716L13972.7339,-3570.9675L13972.7783,-3570.9659L13972.8088,-3570.9671L13972.8161,-3570.9674L13972.8347,-3570.969L13972.8443,-3570.9706L13972.8947,-3570.9767L13972.9371,-3570.9828L13972.9498,-3570.9846L13972.9697,-3570.9875L13973.0577,-3571.0017L13973.1261,-3571.0101L13973.1706,-3571.0124L13973.1731,-3571.007L13973.2253,-3571.0021L13973.2395,-3570.9968L13973.2861,-3570.9745L13973.3278,-3570.9583L13973.3643,-3570.9451L13973.3943,-3570.9326L13973.3997,-3570.9305L13973.4177,-3570.9243L13973.4293,-3570.9206L13973.4839,-3570.9048L13973.4938,-3570.9017L13973.4996,-3570.9L13973.5107,-3570.8974"/>
</g>
</svg>
