<?xml version="1.0" encoding="UTF-8"?>
<svg  xmlns="http://www.w3.org/2000/svg" xmlns:xlink="http://www.w3.org/1999/xlink" xmlns:go="http://purl.org/svgmap/profile" property="N07_001,N07_002,N07_003,N07_004,N07_005,N07_006,N07_007" viewBox="13930.6640625 -3559.5703125 4.39453125 4.39453125" go:dataArea="13930.6640625 -3559.5703125 4.39453125 4.39453125" >
<metadata>
 <rdf:RDF xmlns:rdf="http://www.w3.org/1999/02/22-rdf-syntax-ns#" xmlns:crs="http://opengis.org/xmldtds/transformations.dtd" xmlns:svg="http://www.w3.org/svg" >
  <rdf:Description>
   <crs:CoordinateReferenceSystem rdf:resource="http://purl.org/crs/84" svg:transform="matrix(100.0,0.0,0.0,-100.0,0.0,0.0)" />
  </rdf:Description>
 </rdf:RDF>
</metadata>
<globalCoordinateSystem srsName="http://purl.org/crs/84" transform="matrix(100.0,0.0,0.0,-100.0,0.0,0.0)" />
<defs>
 <g id="p0" >
  <circle cx="0.0" cy="0.0" r="3" stroke="green" stroke-width="0.75" vector-effect="non-scaling-stroke" />
 </g>
</defs>
<g fill="none" fill-rule="evenodd" stroke="#FF00FF" stroke-width="0.75" opacity="0.5" vector-effect="non-scaling-stroke" stroke-linejoin="bevel" >
<path content="1,京成バス（株）,成田空港～相模大野駅・町田駅・橋本駅,8.0,8.0,8.0," xlink:title="1" d="M13934.5202,-3559.3971L13934.4922,-3559.4125L13934.4091,-3559.4544L13934.3832,-3559.4707L13934.3374,-3559.4984L13934.3187,-3559.5096L13934.2932,-3559.5226L13934.2725,-3559.5293L13934.2533,-3559.532L13934.1939,-3559.5333L13934.1408,-3559.531L13934.0925,-3559.5299L13934.0449,-3559.5277L13934.0056,-3559.5265L13933.9939,-3559.5254L13933.9736,-3559.5264L13933.9656,-3559.5254L13933.9161,-3559.5226L13933.9161,-3559.5226L13933.916,-3559.5226L13933.9739,-3559.4021L13934.0173,-3559.3136L13934.0842,-3559.188L13934.1511,-3559.0821L13934.1642,-3559.0624L13934.2357,-3558.9521L13934.2403,-3558.9457L13934.3236,-3558.8129L13934.331,-3558.8014L13934.3462,-3558.7779L13934.3902,-3558.7116L13934.4139,-3558.6736L13934.4294,-3558.6574L13934.4566,-3558.6269L13934.4822,-3558.6093L13934.5171,-3558.5937L13934.5616,-3558.581L13934.5938,-3558.5639L13934.6514,-3558.5528L13934.6865,-3558.5418L13934.7159,-3558.5346L13934.8026,-3558.504L13934.8115,-3558.5003L13934.8427,-3558.4907L13934.8646,-3558.4852L13934.8806,-3558.4814L13934.8925,-3558.4774L13934.9178,-3558.4686L13934.9524,-3558.457L13935.0297,-3558.4376L13935.0389,-3558.4352L13935.0428,-3558.4341L13935.0537,-3558.4307L13935.0586,-3558.4293"/>
<path content="1,京王バス,南63,26.0,24.0,24.0," xlink:title="1" d="M13934.4841,-3559.5604L13934.4946,-3559.5703"/>
<path content="1,南海バス（株）,神戸・大阪（なんば）・京都⇔立川・昭島・玉川上水（東京）,1.0,1.0,1.0," xlink:title="1" d="M13935.0586,-3555.2576L13935.0526,-3555.2613L13935.0054,-3555.293L13934.9897,-3555.3045L13934.9839,-3555.3088L13934.9673,-3555.3229L13934.9496,-3555.3406L13934.9278,-3555.3662L13934.9261,-3555.3682L13934.9223,-3555.3726L13934.9204,-3555.375L13934.9004,-3555.4006L13934.8874,-3555.4203L13934.8744,-3555.4401L13934.8611,-3555.4605L13934.8508,-3555.4811L13934.8479,-3555.4873L13934.8314,-3555.5351L13934.8174,-3555.5793L13934.8131,-3555.5929L13934.7899,-3555.6711L13934.7884,-3555.6763L13934.7635,-3555.7591L13934.7623,-3555.763L13934.7449,-3555.8211L13934.7335,-3555.8588L13934.7287,-3555.8662L13934.6924,-3555.9979L13934.6731,-3556.0681L13934.6692,-3556.0824L13934.663,-3556.0966L13934.6526,-3556.1224L13934.6417,-3556.1566L13934.6361,-3556.1802L13934.6356,-3556.21L13934.6368,-3556.2158L13934.639,-3556.2214L13934.6416,-3556.2271L13934.6443,-3556.2323L13934.6699,-3556.2805L13934.6909,-3556.3107L13934.7384,-3556.3773L13934.7586,-3556.4081L13934.764,-3556.4161L13934.7719,-3556.4282L13934.7884,-3556.4455L13934.8138,-3556.4696L13934.8187,-3556.4743L13934.8283,-3556.4834L13934.8834,-3556.5323L13934.894,-3556.5424L13934.905,-3556.5527L13934.9051,-3556.5529L13934.9087,-3556.5575L13934.9183,-3556.5701L13934.9193,-3556.5715L13934.9298,-3556.5889L13934.938,-3556.6024L13934.9393,-3556.6046L13934.9403,-3556.6063L13934.9604,-3556.646L13934.9825,-3556.6899L13934.9954,-3556.7154L13934.997,-3556.7183L13934.9979,-3556.7201L13935.0424,-3556.8142L13935.0563,-3556.8528L13935.0586,-3556.8638M13935.0586,-3556.9911L13935.0549,-3557.0074L13935.0344,-3557.0773L13935.0245,-3557.118L13935.0172,-3557.1436L13935.0075,-3557.1694L13934.9684,-3557.2743L13934.9609,-3557.2941L13934.9489,-3557.3263L13934.9282,-3557.3798L13934.8753,-3557.5229L13934.831,-3557.6337L13934.8289,-3557.6396L13934.7832,-3557.7636L13934.7204,-3557.9343L13934.7178,-3557.9414L13934.6804,-3558.0391L13934.6496,-3558.1193L13934.6474,-3558.1252L13934.6304,-3558.171L13934.6134,-3558.2132L13934.5686,-3558.325L13934.5304,-3558.4286L13934.4935,-3558.5216L13934.4656,-3558.5961L13934.4454,-3558.6093L13934.4273,-3558.627L13934.4032,-3558.6574L13934.3919,-3558.6709L13934.3824,-3558.6846L13934.3761,-3558.6933L13934.3631,-3558.7129L13934.3532,-3558.7283L13934.3433,-3558.7421L13934.3367,-3558.7505L13934.3282,-3558.764L13934.3258,-3558.7715L13934.3242,-3558.7834L13934.3242,-3558.7942L13934.3236,-3558.8129L13934.2403,-3558.9457L13934.2367,-3558.9514L13934.1642,-3559.0624L13934.1511,-3559.0821L13934.0842,-3559.188L13934.0173,-3559.3136L13933.9739,-3559.4021L13933.9159,-3559.5226L13933.9013,-3559.5576L13933.896,-3559.5703"/>
<path content="1,津久井神奈交バス,橋01,91.0,78.0,75.0," xlink:title="1" d="M13934.4946,-3559.5703L13934.4841,-3559.5604"/>
<path content="1,相模神奈交バス,橋34,20.0,15.0,14.0," xlink:title="1" d="M13934.2533,-3559.532L13934.1939,-3559.5333L13934.1408,-3559.531L13934.0925,-3559.5299L13934.0449,-3559.5277L13934.0056,-3559.5265L13933.9939,-3559.5254L13933.9736,-3559.5264L13933.9656,-3559.5254L13933.9161,-3559.5226L13933.9161,-3559.5226L13933.9739,-3559.4021L13934.0173,-3559.3136L13934.0842,-3559.188L13934.1511,-3559.0821L13934.1642,-3559.0624L13934.2357,-3558.9521L13934.2403,-3558.9457L13934.2357,-3558.9359L13934.2277,-3558.921L13934.2229,-3558.9126L13934.2174,-3558.8996L13934.2015,-3558.876L13934.1912,-3558.8579L13934.1422,-3558.7678L13934.0905,-3558.6703L13934.08,-3558.6574L13934.0636,-3558.6304L13934.0336,-3558.5806L13934.0308,-3558.5756L13934.0016,-3558.5256L13933.9823,-3558.4907L13933.9486,-3558.427L13933.9344,-3558.4L13933.9233,-3558.3802L13933.9171,-3558.3759L13933.8645,-3558.3122L13933.8587,-3558.3055L13933.8011,-3558.2389L13933.7722,-3558.2074L13933.7405,-3558.1798L13933.7095,-3558.1494L13933.6578,-3558.0925L13933.6496,-3558.0822L13933.6454,-3558.077L13933.6259,-3558.0737L13933.606,-3558.0661L13933.569,-3558.0503L13933.5498,-3558.0427L13933.5352,-3558.0349L13933.514,-3558.0318L13933.4972,-3558.0308L13933.4714,-3558.0317L13933.4465,-3558.0346L13933.4198,-3558.0381L13933.4006,-3558.0406L13933.3764,-3558.0436L13933.359,-3558.0449L13933.3368,-3558.0463L13933.3113,-3558.0463L13933.2906,-3558.0441L13933.281,-3558.039L13933.2644,-3558.0278L13933.2612,-3558.0203L13933.2553,-3558.0086L13933.2844,-3557.9833L13933.3127,-3557.9557L13933.3382,-3557.9326L13933.3664,-3557.9049L13933.3754,-3557.8988L13933.3816,-3557.8926L13933.3899,-3557.8875L13933.3995,-3557.8802L13933.4078,-3557.8737L13933.4457,-3557.8441L13933.4526,-3557.8396L13933.4787,-3557.8182L13933.4839,-3557.8137L13933.4898,-3557.8086L13933.5435,-3557.7518L13933.5814,-3557.7208L13933.6227,-3557.6861L13933.6454,-3557.6678L13933.6534,-3557.6623L13933.6599,-3557.6571L13933.7267,-3557.6092L13933.7371,-3557.6025L13933.7578,-3557.5878L13933.7874,-3557.5698L13933.8191,-3557.5512L13933.8225,-3557.5501L13933.8273,-3557.5467L13933.9107,-3557.5044L13933.9238,-3557.4988L13933.9314,-3557.4943L13933.9858,-3557.4684L13933.9928,-3557.4569L13933.9968,-3557.438L13933.9989,-3557.4295L13934.0106,-3557.393L13934.0127,-3557.3867L13934.0161,-3557.3693L13934.0402,-3557.2577L13934.0492,-3557.2092L13934.0526,-3557.1862L13934.0602,-3557.1451L13934.0654,-3557.127L13934.0756,-3557.1305L13934.1118,-3557.1287L13934.1289,-3557.1269L13934.1495,-3557.1238L13934.1725,-3557.1191L13934.2159,-3557.1067L13934.2682,-3557.0983L13934.2889,-3557.0969L13934.2944,-3557.0966L13934.3055,-3557.0943L13934.3344,-3557.0921L13934.3764,-3557.0915L13934.3874,-3557.0892L13934.4078,-3557.0802L13934.4122,-3557.0785L13934.4439,-3557.0633L13934.4708,-3557.0549L13934.4949,-3557.0509L13934.5245,-3557.0453L13934.5486,-3557.0385L13934.5679,-3557.0244L13934.5737,-3557.0203L13934.5838,-3557.0137L13934.6327,-3556.9799L13934.694,-3556.941L13934.7016,-3556.9337L13934.7106,-3556.9207L13934.7188,-3556.9005L13934.7312,-3556.8565L13934.7319,-3556.8469L13934.734,-3556.8402L13934.7422,-3556.8081L13934.7443,-3556.7996L13934.7491,-3556.7743L13934.7567,-3556.7439L13934.7587,-3556.7363L13934.7712,-3556.705L13934.7843,-3556.6836L13934.7905,-3556.6763L13934.8198,-3556.6489L13934.8435,-3556.6284L13934.8599,-3556.6153L13934.9018,-3556.5829L13934.9188,-3556.567L13934.9439,-3556.5433L13934.947,-3556.5356L13934.9599,-3556.4993L13934.9675,-3556.4808L13934.9834,-3556.4514L13935.0013,-3556.4272L13935.044,-3556.381L13935.0586,-3556.366"/>
<path content="1,相模神奈交バス,橋36,36.0,30.0,28.0," xlink:title="1" d="M13934.2533,-3559.532L13934.1939,-3559.5333L13934.1408,-3559.531L13934.0925,-3559.5299L13934.0449,-3559.5277L13934.0056,-3559.5265L13933.9939,-3559.5254L13933.9736,-3559.5264L13933.9656,-3559.5254L13933.9161,-3559.5226L13933.9161,-3559.5226L13933.916,-3559.5226L13933.916,-3559.5226L13933.9739,-3559.4021L13934.0173,-3559.3136L13934.0842,-3559.188L13934.1511,-3559.0821L13934.1642,-3559.0624L13934.2357,-3558.9521L13934.2403,-3558.9457L13934.2357,-3558.9359L13934.2277,-3558.921L13934.2229,-3558.9126L13934.2174,-3558.8996L13934.2015,-3558.876L13934.1912,-3558.8579L13934.1422,-3558.7678L13934.0905,-3558.6703L13934.08,-3558.6574L13934.0636,-3558.6304L13934.0336,-3558.5806L13934.0308,-3558.5756L13934.0016,-3558.5256L13933.9823,-3558.4907L13933.9486,-3558.427L13933.9344,-3558.4L13933.9233,-3558.3802L13933.9171,-3558.3759L13933.8645,-3558.3122L13933.8587,-3558.3055L13933.8011,-3558.2389L13933.7722,-3558.2074L13933.7405,-3558.1798L13933.7095,-3558.1494L13933.6578,-3558.0925L13933.6496,-3558.0822L13933.6454,-3558.077L13933.6259,-3558.0737L13933.606,-3558.0661L13933.569,-3558.0503L13933.5498,-3558.0427L13933.5352,-3558.0349L13933.514,-3558.0318L13933.4972,-3558.0308L13933.4714,-3558.0317L13933.4465,-3558.0346L13933.4198,-3558.0381L13933.4006,-3558.0406L13933.3764,-3558.0436L13933.359,-3558.0449L13933.3368,-3558.0463L13933.3113,-3558.0463L13933.2906,-3558.0441L13933.281,-3558.039L13933.2644,-3558.0278L13933.2612,-3558.0203L13933.2553,-3558.0086L13933.2045,-3558.0604L13933.1981,-3558.0659L13933.1563,-3558.1015L13933.1501,-3558.1055L13933.1191,-3558.1291L13933.0853,-3558.1477L13933.0367,-3558.1732L13933.0082,-3558.1877L13932.9909,-3558.1962L13932.9792,-3558.2024L13932.9471,-3558.2206L13932.9204,-3558.2315L13932.8793,-3558.2519L13932.8662,-3558.2593L13932.858,-3558.2666L13932.8352,-3558.2913L13932.8297,-3558.2964L13932.8249,-3558.3032L13932.8035,-3558.328L13932.7897,-3558.3381L13932.7506,-3558.3546L13932.7448,-3558.3578L13932.7215,-3558.3668L13932.6223,-3558.4085L13932.5486,-3558.444L13932.5407,-3558.4487L13932.5307,-3558.4524L13932.5176,-3558.4575L13932.5025,-3558.4632L13932.4914,-3558.4654L13932.4763,-3558.466L13932.4522,-3558.4688L13932.4349,-3558.4688L13932.3674,-3558.4739L13932.2937,-3558.4795L13932.2606,-3558.4868L13932.2475,-3558.4907L13932.2393,-3558.493L13932.2331,-3558.4941L13932.1959,-3558.5059L13932.1807,-3558.5099L13932.1683,-3558.515L13932.1476,-3558.5212L13932.1304,-3558.5268L13932.0622,-3558.5482L13932.0353,-3558.5499L13931.943,-3558.548L13931.9217,-3558.5555L13931.9086,-3558.5583L13931.8969,-3558.5623L13931.8783,-3558.5713L13931.859,-3558.5848L13931.7942,-3558.6366L13931.7718,-3558.6541L13931.7675,-3558.6575L13931.7345,-3558.6834L13931.7235,-3558.6903L13931.7089,-3558.6997L13931.6896,-3558.7081L13931.6819,-3558.7105L13931.6724,-3558.7121L13931.6666,-3558.711L13931.651,-3558.7144L13931.642,-3558.7154L13931.5848,-3558.7144L13931.5179,-3558.7144L13931.4992,-3558.7166L13931.4618,-3558.6633L13931.4591,-3558.6575L13931.4422,-3558.622L13931.4311,-3558.6022L13931.4239,-3558.5888L13931.4201,-3558.5819L13931.416,-3558.5741L13931.4061,-3558.5543L13931.4029,-3558.5453L13931.3946,-3558.5336L13931.3891,-3558.5251L13931.3685,-3558.4851L13931.3609,-3558.4733L13931.3275,-3558.4131L13931.2535,-3558.3282L13931.1831,-3558.2643L13931.2637,-3558.2193L13931.2706,-3558.2153L13931.3241,-3558.1799"/>
<path content="1,相模神奈交バス,橋40,10.0,6.0,6.0," xlink:title="1" d="M13934.2533,-3559.532L13934.1939,-3559.5333L13934.1408,-3559.531L13934.0925,-3559.5299L13934.0449,-3559.5277L13934.0056,-3559.5265L13933.9939,-3559.5254L13933.9736,-3559.5264L13933.9656,-3559.5254L13933.9161,-3559.5226L13933.9161,-3559.5226L13933.916,-3559.5226L13933.916,-3559.5226L13933.916,-3559.5226L13933.9159,-3559.5226L13933.9739,-3559.4021L13934.0173,-3559.3136L13934.0842,-3559.188L13934.1511,-3559.0821L13934.1642,-3559.0624L13934.2357,-3558.9521L13934.2403,-3558.9457L13934.2357,-3558.9359L13934.2277,-3558.921L13934.2229,-3558.9126L13934.2174,-3558.8996L13934.2015,-3558.876L13934.1912,-3558.8579L13934.1422,-3558.7678L13934.0905,-3558.6703L13934.0367,-3558.689L13934.0243,-3558.694L13933.9615,-3558.7154L13933.9181,-3558.7301L13933.9043,-3558.7353L13933.8932,-3558.7391L13933.8594,-3558.7515L13933.8229,-3558.764L13933.8093,-3558.7685L13933.7967,-3558.7729L13933.7608,-3558.7853L13933.7112,-3558.8022L13933.6826,-3558.8094L13933.6677,-3558.8168L13933.6139,-3558.836L13933.596,-3558.8416L13933.5656,-3558.8523L13933.5084,-3558.8715L13933.4939,-3558.8766L13933.4677,-3558.8856L13933.3697,-3558.9205L13933.3615,-3558.9233L13933.3201,-3558.9385L13933.3153,-3558.9397L13933.294,-3558.948L13933.169,-3558.9909L13933.0286,-3559.0412L13932.9787,-3559.0591L13932.9656,-3559.063L13932.8987,-3559.0866L13932.8869,-3559.0906L13932.8559,-3559.1024L13932.8193,-3559.1154L13932.8131,-3559.1165L13932.8097,-3559.1182L13932.7918,-3559.1255L13932.7821,-3559.1289L13932.7552,-3559.1385L13932.7311,-3559.1449"/>
<path content="1,相模神奈交バス,橋41,5.0,4.0,4.0," xlink:title="1" d="M13934.2533,-3559.532L13934.1939,-3559.5333L13934.1408,-3559.531L13934.0925,-3559.5299L13934.0449,-3559.5277L13934.0056,-3559.5265L13933.9939,-3559.5254L13933.9736,-3559.5264L13933.9656,-3559.5254L13933.9161,-3559.5226L13933.9161,-3559.5226L13933.916,-3559.5226L13933.916,-3559.5226L13933.916,-3559.5226L13933.9159,-3559.5226L13933.8863,-3559.5203L13933.7897,-3559.5203L13933.7732,-3559.5209L13933.7532,-3559.5198L13933.7361,-3559.5173L13933.7107,-3559.518L13933.6841,-3559.519L13933.6511,-3559.5176L13933.6411,-3559.5174L13933.6166,-3559.517L13933.5925,-3559.5153L13933.5642,-3559.5153L13933.4454,-3559.5086L13933.3952,-3559.5085L13933.3621,-3559.5034L13933.3435,-3559.5034L13933.2559,-3559.5074L13933.2387,-3559.5085L13933.2028,-3559.5109L13933.0786,-3559.5176L13933.0704,-3559.5181L13933.0166,-3559.5221L13932.9607,-3559.5215L13932.9214,-3559.517L13932.9041,-3559.5142L13932.8697,-3559.5068L13932.8241,-3559.4984L13932.8124,-3559.495L13932.7607,-3559.4843L13932.7152,-3559.4775L13932.7025,-3559.4769L13932.6034,-3559.4657L13932.5717,-3559.4618L13932.5662,-3559.4612L13932.5276,-3559.4562L13932.4483,-3559.4471L13932.3562,-3559.4375L13932.3227,-3559.4331L13932.3186,-3559.4319L13932.3089,-3559.4314L13932.2634,-3559.426L13932.2531,-3559.4246L13932.2282,-3559.4224L13932.1738,-3559.4156L13932.1231,-3559.4079L13932.1467,-3559.2851L13932.1492,-3559.2728L13932.1483,-3559.2611L13932.1448,-3559.2179L13932.1462,-3559.1159"/>
<path content="1,相模神奈交バス,橋57,53.0,38.0,31.0," xlink:title="1" d="M13934.2533,-3559.532L13934.1939,-3559.5333L13934.1408,-3559.531L13934.0925,-3559.5299L13934.0449,-3559.5277L13934.0056,-3559.5265L13933.9939,-3559.5254L13933.9736,-3559.5264L13933.9656,-3559.5254L13933.9161,-3559.5226L13933.9161,-3559.5226L13933.916,-3559.5226L13933.916,-3559.5226L13933.9739,-3559.4021L13934.0173,-3559.3136L13934.0842,-3559.188L13934.1511,-3559.0821L13934.1642,-3559.0624L13934.2357,-3558.9521L13934.2403,-3558.9457L13934.2357,-3558.9359L13934.2277,-3558.921L13934.2229,-3558.9126L13934.2174,-3558.8996L13934.2015,-3558.876L13934.1912,-3558.8579L13934.1422,-3558.7678L13934.0905,-3558.6703L13934.08,-3558.6574L13934.0636,-3558.6304L13934.0336,-3558.5806L13934.0308,-3558.5756L13934.0016,-3558.5256L13933.9823,-3558.4907L13933.9486,-3558.427L13933.9344,-3558.4L13933.9233,-3558.3802L13933.9171,-3558.3759L13933.8645,-3558.3122L13933.8587,-3558.3055L13933.8011,-3558.2389L13933.7722,-3558.2074L13933.7405,-3558.1798L13933.7095,-3558.1494L13933.6578,-3558.0925L13933.6496,-3558.0822L13933.6454,-3558.077L13933.6259,-3558.0737L13933.606,-3558.0661L13933.569,-3558.0503L13933.5498,-3558.0427L13933.5352,-3558.0349L13933.514,-3558.0318L13933.4972,-3558.0308L13933.4714,-3558.0317L13933.4465,-3558.0346L13933.4198,-3558.0381L13933.4006,-3558.0406L13933.3764,-3558.0436L13933.359,-3558.0449L13933.3368,-3558.0463L13933.3113,-3558.0463L13933.2906,-3558.0441L13933.281,-3558.039L13933.2644,-3558.0278L13933.2612,-3558.0203L13933.2553,-3558.0086L13933.2472,-3558.0024L13933.19,-3557.954L13933.1673,-3557.9371L13933.1584,-3557.932L13933.1425,-3557.9258L13933.1184,-3557.9185L13933.0654,-3557.9055L13933.0152,-3557.8955L13932.9729,-3557.8832L13932.9637,-3557.8796L13932.9533,-3557.8745L13932.9441,-3557.8695L13932.9324,-3557.8627L13932.9117,-3557.8509L13932.8888,-3557.8343L13932.8754,-3557.8286L13932.8366,-3557.8036L13932.827,-3557.7968L13932.7932,-3557.767L13932.7471,-3557.7106L13932.6947,-3557.647L13932.6713,-3557.6194L13932.6649,-3557.6062L13932.6424,-3557.5839L13932.6045,-3557.5428L13932.5645,-3557.5073L13932.5424,-3557.4898L13932.5142,-3557.4712L13932.4997,-3557.46L13932.4388,-3557.4175L13932.4228,-3557.4035L13932.4113,-3557.3851L13932.4054,-3557.3755L13932.4026,-3557.3659L13932.3985,-3557.3389L13932.3909,-3557.2843L13932.3893,-3557.2788L13932.3854,-3557.2657L13932.3557,-3557.2133L13932.3413,-3557.1845L13932.3358,-3557.1755L13932.3158,-3557.1626L13932.3034,-3557.1569L13932.2242,-3557.1164L13932.2145,-3557.1136L13932.2063,-3557.1136L13932.1766,-3557.1124L13932.1505,-3557.1102L13932.1243,-3557.1068L13932.0974,-3557.1L13932.0747,-3557.095L13932.0582,-3557.0899L13932.0462,-3557.0863L13932.0729,-3557.059L13932.0967,-3557.0336L13932.127,-3556.9947L13932.1415,-3556.9716L13932.1608,-3556.917L13932.175,-3556.8822L13932.1773,-3556.8764L13932.1791,-3556.8724L13932.1933,-3556.8418L13932.209,-3556.8111L13932.2538,-3556.7418L13932.2579,-3556.7316L13932.2635,-3556.6843L13932.2655,-3556.6781L13932.2676,-3556.6623L13932.2724,-3556.6494L13932.2779,-3556.6359L13932.2807,-3556.6313L13932.2931,-3556.6099L13932.3203,-3556.5617L13932.3227,-3556.5564L13932.3303,-3556.5469L13932.3537,-3556.526L13932.3785,-3556.5097L13932.3999,-3556.4958L13932.4501,-3556.4662L13932.5039,-3556.4347L13932.5349,-3556.4122L13932.5666,-3556.3869L13932.5884,-3556.3683L13932.5942,-3556.3609L13932.621,-3556.3266L13932.6307,-3556.3097L13932.6369,-3556.2962L13932.6389,-3556.2804L13932.6417,-3556.2674L13932.6548,-3556.2128L13932.6621,-3556.1807L13932.6803,-3556.1136L13932.6844,-3556.0996L13932.7051,-3556.0318L13932.7326,-3555.9215L13932.7443,-3555.8781L13932.7485,-3555.8595L13932.7549,-3555.8387L13932.7603,-3555.8243L13932.7671,-3555.8083L13932.7775,-3555.7882L13932.7822,-3555.7835L13932.8043,-3555.7604L13932.8374,-3555.7305L13932.8443,-3555.7254L13932.8697,-3555.7063L13932.9042,-3555.6832L13932.9428,-3555.6567L13932.9917,-3555.624L13933.0162,-3555.6073L13933.0529,-3555.5559L13933.084,-3555.5052L13933.0984,-3555.4882L13933.1287,-3555.4629L13933.1536,-3555.4477L13933.1768,-3555.4297L13933.1811,-3555.4251L13933.2073,-3555.3947L13933.2307,-3555.3632L13933.2426,-3555.3466L13933.2603,-3555.3221L13933.2851,-3555.295L13933.3468,-3555.2391L13933.3984,-3555.1758"/>
<path content="1,相模神奈交バス,橋59,21.0,21.0,21.0," xlink:title="1" d="M13934.2533,-3559.532L13934.1939,-3559.5333L13934.1408,-3559.531L13934.0925,-3559.5299L13934.0449,-3559.5277L13934.0056,-3559.5265L13933.9939,-3559.5254L13933.9736,-3559.5264L13933.9656,-3559.5254L13933.9161,-3559.5226L13933.9161,-3559.5226L13933.916,-3559.5226L13933.916,-3559.5226L13933.916,-3559.5226L13933.9159,-3559.5226L13933.9739,-3559.4021L13934.0173,-3559.3136L13934.0842,-3559.188L13934.1511,-3559.0821L13934.1642,-3559.0624L13934.2357,-3558.9521L13934.2403,-3558.9457L13934.2357,-3558.9359L13934.2277,-3558.921L13934.2229,-3558.9126L13934.2174,-3558.8996L13934.2015,-3558.876L13934.1912,-3558.8579L13934.1422,-3558.7678L13934.0905,-3558.6703L13934.179,-3558.6574L13934.2174,-3558.6508L13934.221,-3558.6501L13934.3591,-3558.6258L13934.347,-3558.5774L13934.3412,-3558.5543L13934.335,-3558.5301L13934.3219,-3558.4749L13934.3149,-3558.4452L13934.3095,-3558.4264L13934.3049,-3558.41L13934.301,-3558.3938L13934.2958,-3558.3758L13934.2928,-3558.3614L13934.2893,-3558.3493L13934.2858,-3558.3375L13934.282,-3558.3256L13934.2787,-3558.2755L13934.2787,-3558.2198L13934.2695,-3558.2017L13934.251,-3558.1629L13934.2386,-3558.1341L13934.2069,-3558.0419L13934.1745,-3557.9787L13934.1654,-3557.9498L13934.1573,-3557.9223L13934.1542,-3557.9095L13934.1518,-3557.8959L13934.1489,-3557.8825L13934.1452,-3557.8688L13934.1401,-3557.8498L13934.1355,-3557.8305L13934.1333,-3557.8225L13934.1338,-3557.8141L13934.1292,-3557.7899L13934.1265,-3557.7692L13934.1246,-3557.7505L13934.1197,-3557.7184L13934.1165,-3557.6871L13934.1124,-3557.6512L13934.1045,-3557.638L13934.0898,-3557.6311L13934.0711,-3557.6241L13934.0512,-3557.6147L13934.0448,-3557.6051L13934.0415,-3557.5993L13934.0386,-3557.5918L13934.0348,-3557.5842L13934.0306,-3557.5743L13934.0071,-3557.5157L13934.0051,-3557.5123L13934.0016,-3557.5016L13933.9927,-3557.4836L13933.9858,-3557.4684L13933.9928,-3557.4569L13933.9968,-3557.438L13933.9989,-3557.4295L13934.0106,-3557.393L13934.0127,-3557.3867L13934.0161,-3557.3693L13934.0402,-3557.2577L13934.0492,-3557.2092L13934.0526,-3557.1862L13934.0602,-3557.1451L13934.0654,-3557.127L13934.0664,-3557.1107L13934.076,-3557.0841L13934.0894,-3557.0633L13934.1195,-3557.0143L13934.1291,-3556.9986L13934.1401,-3556.9794L13934.149,-3556.9636L13934.1573,-3556.9492L13934.1638,-3556.9377L13934.1717,-3556.9254L13934.1782,-3556.9105L13934.1852,-3556.8961L13934.1914,-3556.8838L13934.1986,-3556.8719L13934.1934,-3556.8527L13934.1866,-3556.8372L13934.1678,-3556.8114L13934.1518,-3556.7918L13934.1429,-3556.7789L13934.1277,-3556.7592L13934.1091,-3556.7282L13934.094,-3556.6989L13934.075,-3556.6257L13934.0678,-3556.6155L13934.0526,-3556.5682L13934.0285,-3556.4921L13934.0134,-3556.4448L13934.0016,-3556.3998L13933.9941,-3556.3654L13933.9844,-3556.2995L13933.981,-3556.2651L13933.9782,-3556.2482L13933.9569,-3556.1598L13933.948,-3556.1338L13933.9414,-3556.1119L13933.9329,-3556.061L13933.93,-3556.0172L13933.9293,-3555.9547L13933.9279,-3555.9339L13933.9265,-3555.9316L13933.9245,-3555.9192L13933.9132,-3555.8796L13933.9045,-3555.8516L13933.8921,-3555.8161L13933.8804,-3555.7953L13933.8611,-3555.7699L13933.8376,-3555.7384L13933.8198,-3555.7153L13933.8163,-3555.7096L13933.7523,-3555.6251L13933.693,-3555.544L13933.6824,-3555.5256L13933.6675,-3555.5113L13933.6475,-3555.4871L13933.6331,-3555.4736L13933.6172,-3555.4606L13933.6117,-3555.4567L13933.5938,-3555.4454L13933.5779,-3555.4381L13933.5407,-3555.4268L13933.5284,-3555.423L13933.4863,-3555.4099L13933.4573,-3555.3964L13933.4381,-3555.384L13933.425,-3555.3739L13933.4071,-3555.3524L13933.3468,-3555.2391L13933.3984,-3555.1758"/>
<path content="1,神奈川中央交通（株）,八72,31.0,27.0,27.0," xlink:title="1" d="M13934.4841,-3559.5604L13934.4946,-3559.5703"/>
<path content="1,神奈川中央交通（株）,宿01,2.0,1.5,1.5," xlink:title="1" d="M13930.8465,-3559.3916L13930.9185,-3559.3835L13931.0006,-3559.3734L13931.0199,-3559.3717L13931.073,-3559.3661L13931.1633,-3559.3565L13931.2116,-3559.3497L13931.2326,-3559.3418L13931.2482,-3559.3435L13931.2999,-3559.3339L13931.2889,-3559.4432L13931.2889,-3559.446L13931.2841,-3559.4809L13931.2827,-3559.5041L13931.2827,-3559.5395L13931.2855,-3559.5703"/>
<path content="1,神奈川中央交通（株）,宿01,2.0,1.5,1.5," xlink:title="1" d="M13930.6641,-3557.3235L13930.6761,-3557.3096L13930.6954,-3557.287L13930.734,-3557.2425L13930.7444,-3557.2338L13930.7809,-3557.1884L13930.8151,-3557.1499L13930.8287,-3557.1356L13930.842,-3557.1209L13930.8612,-3557.1056L13930.8883,-3557.0854L13930.9185,-3557.0602L13930.94,-3557.0375L13930.9703,-3557.0003L13930.9786,-3556.9901L13931.0013,-3556.9569L13931.0048,-3556.9524L13931.0495,-3556.8803L13931.0667,-3556.8612L13931.0757,-3556.8533L13931.0916,-3556.8443L13931.1315,-3556.8263L13931.1426,-3556.8173L13931.1529,-3556.8065L13931.1639,-3556.793L13931.1722,-3556.7784L13931.1929,-3556.7299L13931.2094,-3556.6978L13931.2197,-3556.6848L13931.239,-3556.6708L13931.2721,-3556.6527L13931.2831,-3556.6438L13931.2976,-3556.6257L13931.3121,-3556.6021L13931.3134,-3556.5976L13931.3224,-3556.5806L13931.3326,-3556.5668L13931.361,-3556.5361L13931.414,-3556.4838L13931.4298,-3556.4719L13931.434,-3556.4703L13931.4471,-3556.4624L13931.4521,-3556.4583L13931.4801,-3556.4432L13931.5173,-3556.4162L13931.5332,-3556.4032L13931.538,-3556.4009L13931.5428,-3556.3964L13931.5477,-3556.3936L13931.5759,-3556.3705L13931.5873,-3556.3582L13931.5926,-3556.3513L13931.5988,-3556.3441L13931.604,-3556.3372L13931.6083,-3556.3328L13931.6248,-3556.3142L13931.6662,-3556.2601L13931.6907,-3556.2266L13931.7091,-3556.193L13931.7393,-3556.162L13931.7566,-3556.1428L13931.7736,-3556.1236L13931.8081,-3556.0737L13931.8246,-3556.0562L13931.8441,-3556.0398L13931.8598,-3556.0269L13931.8632,-3556.0162L13931.8666,-3555.988L13931.8811,-3555.8821L13931.8847,-3555.8545L13931.8849,-3555.8531L13931.8851,-3555.8517L13931.8873,-3555.8303L13931.8883,-3555.8261L13931.8909,-3555.814L13931.9004,-3555.7897L13931.9169,-3555.7565L13931.9321,-3555.7221L13931.9397,-3555.6968L13931.9431,-3555.6771L13931.9424,-3555.6472L13931.93,-3555.6095L13931.9177,-3555.5614L13931.915,-3555.5505L13931.9094,-3555.5165L13931.908,-3555.4957L13931.9108,-3555.4776L13931.9299,-3555.4129L13931.9363,-3555.3942L13931.9411,-3555.3796L13931.9445,-3555.3666L13931.9562,-3555.3559L13931.9886,-3555.3391L13931.9996,-3555.3306L13932.0024,-3555.3261L13932.0136,-3555.2886L13932.0186,-3555.2828L13932.0217,-3555.2613L13932.0506,-3555.1864L13932.0526,-3555.1758"/>
<path content="1,神奈川中央交通（株）,橋01,88.0,76.0,74.0," xlink:title="1" d="M13933.5717,-3559.5703L13933.5925,-3559.5153L13933.6166,-3559.517L13933.6411,-3559.5174L13933.6511,-3559.5176L13933.6841,-3559.519L13933.7107,-3559.518L13933.7361,-3559.5173L13933.7532,-3559.5198L13933.7732,-3559.5209L13933.7897,-3559.5203L13933.8863,-3559.5203L13933.9159,-3559.5226L13933.916,-3559.5226L13933.916,-3559.5226L13933.916,-3559.5226L13933.9161,-3559.5226L13933.9161,-3559.5226L13933.9656,-3559.5254L13933.9736,-3559.5264L13933.9939,-3559.5254L13934.0056,-3559.5265L13934.0449,-3559.5277L13934.0925,-3559.5299L13934.1408,-3559.531L13934.1939,-3559.5333L13934.2533,-3559.532"/>
<path content="1,神奈川中央交通（株）,橋01,88.0,76.0,74.0," xlink:title="1" d="M13934.4946,-3559.5703L13934.4841,-3559.5604"/>
<path content="1,神奈川中央交通（株）,橋03,9.0,8.0,8.0," xlink:title="1" d="M13934.4946,-3559.5703L13934.4841,-3559.5604"/>
<path content="1,神奈川中央交通（株）,橋05,5.0,3.5,3.5," xlink:title="1" d="M13934.2533,-3559.532L13934.1939,-3559.5333L13934.1408,-3559.531L13934.0925,-3559.5299L13934.0449,-3559.5277L13934.0056,-3559.5265L13933.9939,-3559.5254L13933.9736,-3559.5264L13933.9656,-3559.5254L13933.9161,-3559.5226L13933.9161,-3559.5226L13933.916,-3559.5226L13933.916,-3559.5226L13933.916,-3559.5226L13933.9159,-3559.5226L13933.8863,-3559.5203L13933.7897,-3559.5203L13933.7732,-3559.5209L13933.7532,-3559.5198L13933.7361,-3559.5173L13933.7107,-3559.518L13933.6841,-3559.519L13933.6511,-3559.5176L13933.6411,-3559.5174L13933.6166,-3559.517L13933.5925,-3559.5153L13933.5717,-3559.5703M13930.6641,-3557.3235L13930.6761,-3557.3096L13930.6954,-3557.287L13930.734,-3557.2425L13930.7444,-3557.2338L13930.7809,-3557.1884L13930.8151,-3557.1499L13930.8287,-3557.1356L13930.842,-3557.1209L13930.8612,-3557.1056L13930.8883,-3557.0854L13930.9185,-3557.0602L13930.94,-3557.0375L13930.9703,-3557.0003L13930.9786,-3556.9901L13931.0013,-3556.9569L13931.0048,-3556.9524L13931.0495,-3556.8803L13931.0667,-3556.8612L13931.0757,-3556.8533L13931.0916,-3556.8443L13931.1315,-3556.8263L13931.1426,-3556.8173L13931.1529,-3556.8065L13931.1639,-3556.793L13931.1722,-3556.7784L13931.1929,-3556.7299L13931.2094,-3556.6978L13931.2197,-3556.6848L13931.239,-3556.6708L13931.2721,-3556.6527L13931.2831,-3556.6438L13931.2976,-3556.6257L13931.3121,-3556.6021L13931.3134,-3556.5976L13931.3224,-3556.5806L13931.3326,-3556.5668L13931.361,-3556.5361L13931.414,-3556.4838L13931.4298,-3556.4719L13931.434,-3556.4703L13931.4471,-3556.4624L13931.4521,-3556.4583L13931.4801,-3556.4432L13931.5173,-3556.4162L13931.5332,-3556.4032L13931.538,-3556.4009L13931.5428,-3556.3964L13931.5477,-3556.3936L13931.5759,-3556.3705L13931.5873,-3556.3582L13931.5926,-3556.3513L13931.5988,-3556.3441L13931.604,-3556.3372L13931.6083,-3556.3328L13931.6248,-3556.3142L13931.6662,-3556.2601L13931.6907,-3556.2266L13931.7091,-3556.193L13931.7393,-3556.162L13931.7566,-3556.1428L13931.7736,-3556.1236L13931.8081,-3556.0737L13931.8246,-3556.0562L13931.8441,-3556.0398L13931.8598,-3556.0269L13931.8632,-3556.0162L13931.8666,-3555.988L13931.8811,-3555.8821L13931.8849,-3555.8531L13931.8873,-3555.8303L13931.8883,-3555.8261L13931.8909,-3555.814L13931.9004,-3555.7897L13931.9169,-3555.7565L13931.9321,-3555.7221L13931.9397,-3555.6968L13931.9431,-3555.6771L13931.9424,-3555.6472L13931.93,-3555.6095L13931.9177,-3555.5614L13931.915,-3555.5505L13931.9094,-3555.5165L13931.908,-3555.4957L13931.9108,-3555.4776L13931.9299,-3555.4129L13931.9363,-3555.3942L13931.9411,-3555.3796L13931.9445,-3555.3666L13931.9562,-3555.3559L13931.9886,-3555.3391L13931.9996,-3555.3306L13932.0024,-3555.3261L13932.0136,-3555.2886L13932.0186,-3555.2828L13932.0217,-3555.2613L13932.0506,-3555.1864L13932.0526,-3555.1758"/>
<path content="1,神奈川中央交通（株）,橋07,10.0,10.0,10.0," xlink:title="1" d="M13934.4946,-3559.5703L13934.4841,-3559.5604"/>
<path content="1,神奈川中央交通（株）,橋08,6.0,4.5,5.0," xlink:title="1" d="M13934.2533,-3559.532L13934.1939,-3559.5333L13934.1408,-3559.531L13934.0925,-3559.5299L13934.0449,-3559.5277L13934.0056,-3559.5265L13933.9939,-3559.5254L13933.9736,-3559.5264L13933.9656,-3559.5254L13933.9161,-3559.5226L13933.9161,-3559.5226L13933.916,-3559.5226L13933.916,-3559.5226L13933.916,-3559.5226L13933.9159,-3559.5226L13933.8863,-3559.5203L13933.7897,-3559.5203L13933.7732,-3559.5209L13933.7532,-3559.5198L13933.7361,-3559.5173L13933.7107,-3559.518L13933.6841,-3559.519L13933.6511,-3559.5176L13933.6411,-3559.5174L13933.6166,-3559.517L13933.5925,-3559.5153L13933.5717,-3559.5703"/>
<path content="1,神奈川中央交通（株）,橋08,6.0,4.5,5.0," xlink:title="1" d="M13934.4841,-3559.5604L13934.4946,-3559.5703"/>
<path content="1,神奈川中央交通（株）,橋10,9.0,9.0,9.0," xlink:title="1" d="M13934.4946,-3559.5703L13934.4841,-3559.5604"/>
<path content="1,神奈川中央交通（株）,橋14,5.0,1.0,1.0," xlink:title="1" d="M13934.4946,-3559.5703L13934.4841,-3559.5604"/>
<path content="1,神奈川中央交通（株）,橋16,5.5,5.5,4.5," xlink:title="1" d="M13934.4946,-3559.5703L13934.4841,-3559.5604"/>
<path content="1,神奈川中央交通（株）,橋18,1.5,1.5,0.0," xlink:title="1" d="M13934.4841,-3559.5604L13934.4946,-3559.5703"/>
<path content="1,神奈川中央交通（株）,橋20,2.5,0.0,0.0," xlink:title="1" d="M13934.4841,-3559.5604L13934.4946,-3559.5703"/>
<path content="1,神奈川中央交通（株）,橋24,2.5,2.5,0.0," xlink:title="1" d="M13934.4841,-3559.5604L13934.4946,-3559.5703"/>
<path content="1,神奈川中央交通（株）,橋25,18.0,17.0,16.0," xlink:title="1" d="M13934.4841,-3559.5604L13934.4946,-3559.5703"/>
<path content="1,神奈川中央交通（株）,橋26,2.5,1.5,1.5," xlink:title="1" d="M13934.4841,-3559.5604L13934.4946,-3559.5703"/>
<path content="1,神奈川中央交通（株）,橋27,25.0,19.0,16.0," xlink:title="1" d="M13934.2533,-3559.532L13934.1939,-3559.5333L13934.1408,-3559.531L13934.0925,-3559.5299L13934.0449,-3559.5277L13934.0056,-3559.5265L13933.9939,-3559.5254L13933.9736,-3559.5264L13933.9656,-3559.5254L13933.9161,-3559.5226L13933.9161,-3559.5226L13933.916,-3559.5226L13933.916,-3559.5226L13933.916,-3559.5226L13933.9159,-3559.5226L13933.8863,-3559.5203L13933.7897,-3559.5203L13933.7732,-3559.5209L13933.7532,-3559.5198L13933.7361,-3559.5173L13933.7107,-3559.518L13933.6841,-3559.519L13933.6511,-3559.5176L13933.6411,-3559.5174L13933.6166,-3559.517L13933.5925,-3559.5153L13933.5642,-3559.5153L13933.4454,-3559.5086L13933.3952,-3559.5085L13933.3621,-3559.5034L13933.3435,-3559.5034L13933.2559,-3559.5074L13933.2387,-3559.5085L13933.2028,-3559.5109L13933.0786,-3559.5176L13933.0704,-3559.5181L13933.0166,-3559.5221L13932.9607,-3559.5215L13932.9214,-3559.517L13932.9041,-3559.5142L13932.8697,-3559.5068L13932.8241,-3559.4984L13932.8124,-3559.495L13932.7607,-3559.4843L13932.7152,-3559.4775L13932.7025,-3559.4769L13932.6034,-3559.4657L13932.5717,-3559.4618L13932.5662,-3559.4612L13932.5276,-3559.4562L13932.4483,-3559.4471L13932.3562,-3559.4375L13932.3227,-3559.4331L13932.3186,-3559.4319L13932.3089,-3559.4314L13932.2634,-3559.426L13932.2531,-3559.4246L13932.2282,-3559.4224L13932.1738,-3559.4156L13932.1231,-3559.4079L13932.0676,-3559.4037L13932.0544,-3559.4015L13931.9999,-3559.3953L13931.9765,-3559.3925L13931.9469,-3559.3851L13931.8834,-3559.3818L13931.8551,-3559.379L13931.7931,-3559.3711L13931.7572,-3559.3672L13931.7072,-3559.3605L13931.6918,-3559.3597L13931.5565,-3559.3441L13931.5275,-3559.3412L13931.4813,-3559.3351L13931.4668,-3559.3334L13931.433,-3559.3294L13931.4241,-3559.3277L13931.3972,-3559.3255L13931.351,-3559.3255L13931.3365,-3559.3269L13931.3289,-3559.3277L13931.3192,-3559.3292L13931.2999,-3559.3339L13931.2482,-3559.3435L13931.2326,-3559.3418L13931.2116,-3559.3497L13931.1633,-3559.3565L13931.073,-3559.3661L13931.0199,-3559.3717L13931.0006,-3559.3734L13930.9185,-3559.3835L13930.8465,-3559.3916"/>
<path content="1,神奈川中央交通（株）,橋28,5.0,3.5,3.0," xlink:title="1" d="M13934.2533,-3559.532L13934.1939,-3559.5333L13934.1408,-3559.531L13934.0925,-3559.5299L13934.0449,-3559.5277L13934.0056,-3559.5265L13933.9939,-3559.5254L13933.9736,-3559.5264L13933.9656,-3559.5254L13933.9161,-3559.5226L13933.9161,-3559.5226L13933.916,-3559.5226L13933.916,-3559.5226L13933.916,-3559.5226L13933.9159,-3559.5226L13933.8863,-3559.5203L13933.7897,-3559.5203L13933.7732,-3559.5209L13933.7532,-3559.5198L13933.7361,-3559.5173L13933.7107,-3559.518L13933.6841,-3559.519L13933.6511,-3559.5176L13933.6411,-3559.5174L13933.6166,-3559.517L13933.5925,-3559.5153L13933.5717,-3559.5703"/>
<path content="1,神奈川中央交通（株）,橋31,7.0,0.0,0.0," xlink:title="1" d="M13933.5717,-3559.5703L13933.5925,-3559.5153L13933.6166,-3559.517L13933.6411,-3559.5174L13933.6511,-3559.5176L13933.6841,-3559.519L13933.7107,-3559.518L13933.7361,-3559.5173L13933.7532,-3559.5198L13933.7732,-3559.5209L13933.7897,-3559.5203L13933.8863,-3559.5203L13933.9159,-3559.5226L13933.916,-3559.5226L13933.916,-3559.5226L13933.916,-3559.5226L13933.9161,-3559.5226L13933.9161,-3559.5226L13933.9656,-3559.5254L13933.9736,-3559.5264L13933.9939,-3559.5254L13934.0056,-3559.5265L13934.0449,-3559.5277L13934.0925,-3559.5299L13934.1408,-3559.531L13934.1939,-3559.5333L13934.2533,-3559.532"/>
<path content="1,神奈川中央交通（株）,橋33,51.0,39.0,33.0," xlink:title="1" d="M13934.2533,-3559.532L13934.1939,-3559.5333L13934.1408,-3559.531L13934.0925,-3559.5299L13934.0449,-3559.5277L13934.0056,-3559.5265L13933.9939,-3559.5254L13933.9736,-3559.5264L13933.9656,-3559.5254L13933.9161,-3559.5226L13933.9161,-3559.5226L13933.916,-3559.5226L13933.916,-3559.5226L13933.916,-3559.5226L13933.9159,-3559.5226L13933.8863,-3559.5203L13933.7897,-3559.5203L13933.7732,-3559.5209L13933.7532,-3559.5198L13933.7361,-3559.5173L13933.7107,-3559.518L13933.6841,-3559.519L13933.6511,-3559.5176L13933.6411,-3559.5174L13933.6166,-3559.517L13933.5925,-3559.5153L13933.5642,-3559.5153L13933.4454,-3559.5086L13933.3952,-3559.5085L13933.3621,-3559.5034L13933.3435,-3559.5034L13933.2559,-3559.5074L13933.2387,-3559.5085L13933.2028,-3559.5109L13933.0786,-3559.5176L13933.0704,-3559.5181L13933.0166,-3559.5221L13932.9607,-3559.5215L13932.9214,-3559.517L13932.9041,-3559.5142L13932.8697,-3559.5068L13932.8241,-3559.4984L13932.8124,-3559.495L13932.7607,-3559.4843L13932.7152,-3559.4775L13932.7025,-3559.4769L13932.6034,-3559.4657L13932.5717,-3559.4618L13932.5662,-3559.4612L13932.5276,-3559.4562L13932.4483,-3559.4471L13932.3562,-3559.4375L13932.3227,-3559.4331L13932.3186,-3559.4319L13932.3089,-3559.4314L13932.2634,-3559.426L13932.2531,-3559.4246L13932.2282,-3559.4224L13932.1738,-3559.4156L13932.1231,-3559.4079L13932.1467,-3559.2851L13932.1492,-3559.2728L13932.1483,-3559.2611L13932.1448,-3559.2179L13932.1462,-3559.1159L13932.14,-3559.0478L13932.1395,-3559.0247L13932.1395,-3559.0156L13932.1393,-3558.9729L13932.1386,-3558.9509L13932.1385,-3558.9185L13932.1345,-3558.8676L13932.1317,-3558.8411L13932.1296,-3558.8338L13932.1262,-3558.8219L13932.118,-3558.8012L13932.0872,-3558.7597L13932.0524,-3558.7177L13932.0019,-3558.6575L13931.9844,-3558.6344L13931.9575,-3558.5944L13931.943,-3558.548L13931.9265,-3558.5183L13931.921,-3558.5093L13931.9024,-3558.4896L13931.8914,-3558.4812L13931.8652,-3558.4603L13931.8555,-3558.4524L13931.8473,-3558.4446L13931.8328,-3558.4339L13931.7852,-3558.3939L13931.7764,-3558.3786L13931.7509,-3558.3672L13931.7416,-3558.3585L13931.7157,-3558.3364L13931.6475,-3558.2806L13931.6406,-3558.2761L13931.6172,-3558.257L13931.5394,-3558.1959L13931.5317,-3558.1899L13931.5172,-3558.175L13931.5008,-3558.1556L13931.499,-3558.1528L13931.4849,-3558.1303L13931.4615,-3558.0841L13931.4518,-3558.0959L13931.4189,-3558.1239L13931.4154,-3558.1271L13931.384,-3558.148L13931.3629,-3558.1612L13931.3241,-3558.1799"/>
<path content="1,神奈川中央交通（株）,橋34,21.5,16.0,14.5," xlink:title="1" d="M13935.0586,-3556.366L13935.044,-3556.381L13935.0013,-3556.4272L13934.9834,-3556.4514L13934.9675,-3556.4808L13934.9599,-3556.4993L13934.947,-3556.5356L13934.9439,-3556.5433L13934.9188,-3556.567L13934.9018,-3556.5829L13934.8599,-3556.6153L13934.8435,-3556.6284L13934.8198,-3556.6489L13934.7905,-3556.6763L13934.7843,-3556.6836L13934.7712,-3556.705L13934.7587,-3556.7363L13934.7567,-3556.7439L13934.7491,-3556.7743L13934.7443,-3556.7996L13934.7422,-3556.8081L13934.734,-3556.8402L13934.7319,-3556.8469L13934.7312,-3556.8565L13934.7188,-3556.9005L13934.7106,-3556.9207L13934.7016,-3556.9337L13934.694,-3556.941L13934.6327,-3556.9799L13934.5838,-3557.0137L13934.5737,-3557.0203L13934.5679,-3557.0244L13934.5486,-3557.0385L13934.5245,-3557.0453L13934.4949,-3557.0509L13934.4708,-3557.0549L13934.4439,-3557.0633L13934.4122,-3557.0785L13934.4078,-3557.0802L13934.3874,-3557.0892L13934.3764,-3557.0915L13934.3344,-3557.0921L13934.3055,-3557.0943L13934.2944,-3557.0966L13934.2889,-3557.0969L13934.2682,-3557.0983L13934.2159,-3557.1067L13934.1725,-3557.1191L13934.1495,-3557.1238L13934.1289,-3557.1269L13934.1118,-3557.1287L13934.0756,-3557.1305L13934.0654,-3557.127L13934.0602,-3557.1451L13934.0526,-3557.1862L13934.0492,-3557.2092L13934.0402,-3557.2577L13934.0161,-3557.3693L13934.0127,-3557.3867L13934.0106,-3557.393L13933.9989,-3557.4295L13933.9968,-3557.438L13933.9928,-3557.4569L13933.9858,-3557.4684L13933.9314,-3557.4943L13933.9238,-3557.4988L13933.9107,-3557.5044L13933.8273,-3557.5467L13933.8225,-3557.5501L13933.8191,-3557.5512L13933.7874,-3557.5698L13933.7578,-3557.5878L13933.7371,-3557.6025L13933.7267,-3557.6092L13933.6599,-3557.6571L13933.6534,-3557.6623L13933.6454,-3557.6678L13933.6227,-3557.6861L13933.5814,-3557.7208L13933.5435,-3557.7518L13933.4898,-3557.8086L13933.4839,-3557.8137L13933.4787,-3557.8182L13933.4526,-3557.8396L13933.4457,-3557.8441L13933.4078,-3557.8737L13933.3995,-3557.8802L13933.3899,-3557.8875L13933.3816,-3557.8926L13933.3754,-3557.8988L13933.3664,-3557.9049L13933.3382,-3557.9326L13933.3127,-3557.9557L13933.2844,-3557.9833L13933.2553,-3558.0086L13933.2612,-3558.0203L13933.2644,-3558.0278L13933.281,-3558.039L13933.2906,-3558.0441L13933.3113,-3558.0463L13933.3368,-3558.0463L13933.359,-3558.0449L13933.3764,-3558.0436L13933.4006,-3558.0406L13933.4198,-3558.0381L13933.4465,-3558.0346L13933.4714,-3558.0317L13933.4972,-3558.0308L13933.514,-3558.0318L13933.5352,-3558.0349L13933.5498,-3558.0427L13933.569,-3558.0503L13933.606,-3558.0661L13933.6259,-3558.0737L13933.6454,-3558.077L13933.6496,-3558.0822L13933.6578,-3558.0925L13933.7095,-3558.1494L13933.7405,-3558.1798L13933.7722,-3558.2074L13933.8011,-3558.2389L13933.8587,-3558.3055L13933.8645,-3558.3122L13933.9171,-3558.3759L13933.9233,-3558.3802L13933.9344,-3558.4L13933.9486,-3558.427L13933.9823,-3558.4907L13934.0016,-3558.5256L13934.0308,-3558.5756L13934.0336,-3558.5806L13934.0636,-3558.6304L13934.08,-3558.6574L13934.0905,-3558.6703L13934.1422,-3558.7678L13934.1912,-3558.8579L13934.2015,-3558.876L13934.2174,-3558.8996L13934.2229,-3558.9126L13934.2277,-3558.921L13934.2357,-3558.9359L13934.2403,-3558.9457L13934.2357,-3558.9521L13934.1642,-3559.0624L13934.1511,-3559.0821L13934.0842,-3559.188L13934.0173,-3559.3136L13933.9739,-3559.4021L13933.916,-3559.5226L13933.916,-3559.5226L13933.9161,-3559.5226L13933.9161,-3559.5226L13933.9656,-3559.5254L13933.9736,-3559.5264L13933.9939,-3559.5254L13934.0056,-3559.5265L13934.0449,-3559.5277L13934.0925,-3559.5299L13934.1408,-3559.531L13934.1939,-3559.5333L13934.2533,-3559.532"/>
<path content="1,神奈川中央交通（株）,橋40,10.0,6.0,6.0," xlink:title="1" d="M13934.2533,-3559.532L13934.1939,-3559.5333L13934.1408,-3559.531L13934.0925,-3559.5299L13934.0449,-3559.5277L13934.0056,-3559.5265L13933.9939,-3559.5254L13933.9736,-3559.5264L13933.9656,-3559.5254L13933.9161,-3559.5226L13933.9161,-3559.5226L13933.916,-3559.5226L13933.916,-3559.5226L13933.916,-3559.5226L13933.9159,-3559.5226L13933.9739,-3559.4021L13934.0173,-3559.3136L13934.0842,-3559.188L13934.1511,-3559.0821L13934.1642,-3559.0624L13934.2357,-3558.9521L13934.2403,-3558.9457L13934.2357,-3558.9359L13934.2277,-3558.921L13934.2229,-3558.9126L13934.2174,-3558.8996L13934.2015,-3558.876L13934.1912,-3558.8579L13934.1422,-3558.7678L13934.0905,-3558.6703L13934.0367,-3558.689L13934.0243,-3558.694L13933.9615,-3558.7154L13933.9181,-3558.7301L13933.9043,-3558.7353L13933.8932,-3558.7391L13933.8594,-3558.7515L13933.8229,-3558.764L13933.8093,-3558.7685L13933.7967,-3558.7729L13933.7608,-3558.7853L13933.7112,-3558.8022L13933.6826,-3558.8094L13933.6677,-3558.8168L13933.6139,-3558.836L13933.596,-3558.8416L13933.5656,-3558.8523L13933.5084,-3558.8715L13933.4939,-3558.8766L13933.4677,-3558.8856L13933.3697,-3558.9205L13933.3615,-3558.9233L13933.3201,-3558.9385L13933.3153,-3558.9397L13933.294,-3558.948L13933.169,-3558.9909L13933.0286,-3559.0412L13932.9787,-3559.0591L13932.9656,-3559.063L13932.8987,-3559.0866L13932.8869,-3559.0906L13932.8559,-3559.1024L13932.8193,-3559.1154L13932.8131,-3559.1165L13932.8097,-3559.1182L13932.7918,-3559.1255L13932.7821,-3559.1289L13932.7552,-3559.1385L13932.7311,-3559.1449"/>
<path content="1,神奈川中央交通（株）,橋41,5.0,4.0,4.0," xlink:title="1" d="M13934.2533,-3559.532L13934.1939,-3559.5333L13934.1408,-3559.531L13934.0925,-3559.5299L13934.0449,-3559.5277L13934.0056,-3559.5265L13933.9939,-3559.5254L13933.9736,-3559.5264L13933.9656,-3559.5254L13933.9161,-3559.5226L13933.9161,-3559.5226L13933.916,-3559.5226L13933.916,-3559.5226L13933.916,-3559.5226L13933.9159,-3559.5226L13933.8863,-3559.5203L13933.7897,-3559.5203L13933.7732,-3559.5209L13933.7532,-3559.5198L13933.7361,-3559.5173L13933.7107,-3559.518L13933.6841,-3559.519L13933.6511,-3559.5176L13933.6411,-3559.5174L13933.6166,-3559.517L13933.5925,-3559.5153L13933.5642,-3559.5153L13933.4454,-3559.5086L13933.3952,-3559.5085L13933.3621,-3559.5034L13933.3435,-3559.5034L13933.2559,-3559.5074L13933.2387,-3559.5085L13933.2028,-3559.5109L13933.0786,-3559.5176L13933.0704,-3559.5181L13933.0166,-3559.5221L13932.9607,-3559.5215L13932.9214,-3559.517L13932.9041,-3559.5142L13932.8697,-3559.5068L13932.8241,-3559.4984L13932.8124,-3559.495L13932.7607,-3559.4843L13932.7152,-3559.4775L13932.7025,-3559.4769L13932.6034,-3559.4657L13932.5717,-3559.4618L13932.5662,-3559.4612L13932.5276,-3559.4562L13932.4483,-3559.4471L13932.3562,-3559.4375L13932.3227,-3559.4331L13932.3186,-3559.4319L13932.3089,-3559.4314L13932.2634,-3559.426L13932.2531,-3559.4246L13932.2282,-3559.4224L13932.1738,-3559.4156L13932.1231,-3559.4079L13932.1467,-3559.2851L13932.1492,-3559.2728L13932.1483,-3559.2611L13932.1448,-3559.2179L13932.1462,-3559.1159"/>
<path content="1,神奈川中央交通（株）,橋50,2.0,2.0,0.0," xlink:title="1" d="M13934.4841,-3559.5604L13934.4946,-3559.5703"/>
<path content="1,神奈川中央交通（株）,橋52,25.5,21.5,20.5," xlink:title="1" d="M13934.4946,-3559.5703L13934.4841,-3559.5604"/>
<path content="1,神奈川中央交通（株）,橋55,40.5,20.5,20.5," xlink:title="1" d="M13935.0586,-3559.3928L13935.0577,-3559.3932L13934.9816,-3559.4331L13934.9505,-3559.4471L13934.853,-3559.4939L13934.7898,-3559.5242L13934.7194,-3559.5563L13934.6908,-3559.5703M13934.4946,-3559.5703L13934.4841,-3559.5604"/>
<path content="1,神奈川中央交通（株）,橋57,54.0,38.0,31.0," xlink:title="1" d="M13934.2533,-3559.532L13934.1939,-3559.5333L13934.1408,-3559.531L13934.0925,-3559.5299L13934.0449,-3559.5277L13934.0056,-3559.5265L13933.9939,-3559.5254L13933.9736,-3559.5264L13933.9656,-3559.5254L13933.9161,-3559.5226L13933.9161,-3559.5226L13933.916,-3559.5226L13933.916,-3559.5226L13933.9739,-3559.4021L13934.0173,-3559.3136L13934.0842,-3559.188L13934.1511,-3559.0821L13934.1642,-3559.0624L13934.2357,-3558.9521L13934.2403,-3558.9457L13934.2357,-3558.9359L13934.2277,-3558.921L13934.2229,-3558.9126L13934.2174,-3558.8996L13934.2015,-3558.876L13934.1912,-3558.8579L13934.1422,-3558.7678L13934.0905,-3558.6703L13934.08,-3558.6574L13934.0636,-3558.6304L13934.0336,-3558.5806L13934.0308,-3558.5756L13934.0016,-3558.5256L13933.9823,-3558.4907L13933.9486,-3558.427L13933.9344,-3558.4L13933.9233,-3558.3802L13933.9171,-3558.3759L13933.8645,-3558.3122L13933.8587,-3558.3055L13933.8011,-3558.2389L13933.7722,-3558.2074L13933.7405,-3558.1798L13933.7095,-3558.1494L13933.6578,-3558.0925L13933.6496,-3558.0822L13933.6454,-3558.077L13933.6259,-3558.0737L13933.606,-3558.0661L13933.569,-3558.0503L13933.5498,-3558.0427L13933.5352,-3558.0349L13933.514,-3558.0318L13933.4972,-3558.0308L13933.4714,-3558.0317L13933.4465,-3558.0346L13933.4198,-3558.0381L13933.4006,-3558.0406L13933.3764,-3558.0436L13933.359,-3558.0449L13933.3368,-3558.0463L13933.3113,-3558.0463L13933.2906,-3558.0441L13933.281,-3558.039L13933.2644,-3558.0278L13933.2612,-3558.0203L13933.2553,-3558.0086L13933.2472,-3558.0024L13933.19,-3557.954L13933.1673,-3557.9371L13933.1584,-3557.932L13933.1425,-3557.9258L13933.1184,-3557.9185L13933.0654,-3557.9055L13933.0152,-3557.8955L13932.9729,-3557.8832L13932.9637,-3557.8796L13932.9533,-3557.8745L13932.9441,-3557.8695L13932.9324,-3557.8627L13932.9117,-3557.8509L13932.8888,-3557.8343L13932.8754,-3557.8286L13932.8366,-3557.8036L13932.827,-3557.7968L13932.7932,-3557.767L13932.7471,-3557.7106L13932.6947,-3557.647L13932.6713,-3557.6194L13932.6649,-3557.6062L13932.6424,-3557.5839L13932.6045,-3557.5428L13932.5645,-3557.5073L13932.5424,-3557.4898L13932.5142,-3557.4712L13932.4997,-3557.46L13932.4388,-3557.4175L13932.4228,-3557.4035L13932.4113,-3557.3851L13932.4054,-3557.3755L13932.4026,-3557.3659L13932.3985,-3557.3389L13932.3909,-3557.2843L13932.3893,-3557.2788L13932.3854,-3557.2657L13932.3557,-3557.2133L13932.3413,-3557.1845L13932.3358,-3557.1755L13932.3158,-3557.1626L13932.3034,-3557.1569L13932.2242,-3557.1164L13932.2145,-3557.1136L13932.2063,-3557.1136L13932.1766,-3557.1124L13932.1505,-3557.1102L13932.1243,-3557.1068L13932.0974,-3557.1L13932.0747,-3557.095L13932.0582,-3557.0899L13932.0462,-3557.0863L13932.0729,-3557.059L13932.0967,-3557.0336L13932.127,-3556.9947L13932.1415,-3556.9716L13932.1608,-3556.917L13932.175,-3556.8822L13932.1773,-3556.8764L13932.1791,-3556.8724L13932.1933,-3556.8418L13932.209,-3556.8111L13932.2538,-3556.7418L13932.2579,-3556.7316L13932.2635,-3556.6843L13932.2655,-3556.6781L13932.2676,-3556.6623L13932.2724,-3556.6494L13932.2779,-3556.6359L13932.2807,-3556.6313L13932.2931,-3556.6099L13932.3203,-3556.5617L13932.3227,-3556.5564L13932.3303,-3556.5469L13932.3537,-3556.526L13932.3785,-3556.5097L13932.3999,-3556.4958L13932.4501,-3556.4662L13932.5039,-3556.4347L13932.5349,-3556.4122L13932.5666,-3556.3869L13932.5884,-3556.3683L13932.5942,-3556.3609L13932.621,-3556.3266L13932.6307,-3556.3097L13932.6369,-3556.2962L13932.6389,-3556.2804L13932.6417,-3556.2674L13932.6548,-3556.2128L13932.6621,-3556.1807L13932.6803,-3556.1136L13932.6844,-3556.0996L13932.7051,-3556.0318L13932.7326,-3555.9215L13932.7443,-3555.8781L13932.7485,-3555.8595L13932.7549,-3555.8387L13932.7603,-3555.8243L13932.7671,-3555.8083L13932.7775,-3555.7882L13932.7822,-3555.7835L13932.8043,-3555.7604L13932.8374,-3555.7305L13932.8443,-3555.7254L13932.8697,-3555.7063L13932.9042,-3555.6832L13932.9428,-3555.6567L13932.9917,-3555.624L13933.0162,-3555.6073L13933.0529,-3555.5559L13933.084,-3555.5052L13933.0984,-3555.4882L13933.1287,-3555.4629L13933.1536,-3555.4477L13933.1768,-3555.4297L13933.1811,-3555.4251L13933.2073,-3555.3947L13933.2307,-3555.3632L13933.2426,-3555.3466L13933.2603,-3555.3221L13933.2851,-3555.295L13933.3468,-3555.2391L13933.3984,-3555.1758"/>
<path content="1,神奈川中央交通（株）,橋59,21.5,21.5,21.5," xlink:title="1" d="M13934.2533,-3559.532L13934.1939,-3559.5333L13934.1408,-3559.531L13934.0925,-3559.5299L13934.0449,-3559.5277L13934.0056,-3559.5265L13933.9939,-3559.5254L13933.9736,-3559.5264L13933.9656,-3559.5254L13933.9161,-3559.5226L13933.9161,-3559.5226L13933.916,-3559.5226L13933.916,-3559.5226L13933.916,-3559.5226L13933.9159,-3559.5226L13933.9739,-3559.4021L13934.0173,-3559.3136L13934.0842,-3559.188L13934.1511,-3559.0821L13934.1642,-3559.0624L13934.2357,-3558.9521L13934.2403,-3558.9457L13934.2357,-3558.9359L13934.2277,-3558.921L13934.2229,-3558.9126L13934.2174,-3558.8996L13934.2015,-3558.876L13934.1912,-3558.8579L13934.1422,-3558.7678L13934.0905,-3558.6703L13934.179,-3558.6574L13934.2174,-3558.6508L13934.221,-3558.6501L13934.3591,-3558.6258L13934.347,-3558.5774L13934.3412,-3558.5543L13934.335,-3558.5301L13934.3219,-3558.4749L13934.3149,-3558.4452L13934.3095,-3558.4264L13934.3049,-3558.41L13934.301,-3558.3938L13934.2958,-3558.3758L13934.2928,-3558.3614L13934.2893,-3558.3493L13934.2858,-3558.3375L13934.282,-3558.3256L13934.2787,-3558.2755L13934.2787,-3558.2198L13934.2695,-3558.2017L13934.251,-3558.1629L13934.2386,-3558.1341L13934.2069,-3558.0419L13934.1745,-3557.9787L13934.1654,-3557.9498L13934.1573,-3557.9223L13934.1542,-3557.9095L13934.1518,-3557.8959L13934.1489,-3557.8825L13934.1452,-3557.8688L13934.1401,-3557.8498L13934.1355,-3557.8305L13934.1333,-3557.8225L13934.1338,-3557.8141L13934.1292,-3557.7899L13934.1265,-3557.7692L13934.1246,-3557.7505L13934.1197,-3557.7184L13934.1165,-3557.6871L13934.1124,-3557.6512L13934.1045,-3557.638L13934.0898,-3557.6311L13934.0711,-3557.6241L13934.0512,-3557.6147L13934.0448,-3557.6051L13934.0415,-3557.5993L13934.0386,-3557.5918L13934.0348,-3557.5842L13934.0306,-3557.5743L13934.0071,-3557.5157L13934.0051,-3557.5123L13934.0016,-3557.5016L13933.9927,-3557.4836L13933.9858,-3557.4684L13933.9928,-3557.4569L13933.9968,-3557.438L13933.9989,-3557.4295L13934.0106,-3557.393L13934.0127,-3557.3867L13934.0161,-3557.3693L13934.0402,-3557.2577L13934.0492,-3557.2092L13934.0526,-3557.1862L13934.0602,-3557.1451L13934.0654,-3557.127L13934.0664,-3557.1107L13934.076,-3557.0841L13934.0894,-3557.0633L13934.1195,-3557.0143L13934.1291,-3556.9986L13934.1401,-3556.9794L13934.149,-3556.9636L13934.1573,-3556.9492L13934.1638,-3556.9377L13934.1717,-3556.9254L13934.1782,-3556.9105L13934.1852,-3556.8961L13934.1914,-3556.8838L13934.1986,-3556.8719L13934.1934,-3556.8527L13934.1866,-3556.8372L13934.1678,-3556.8114L13934.1518,-3556.7918L13934.1429,-3556.7789L13934.1277,-3556.7592L13934.1091,-3556.7282L13934.094,-3556.6989L13934.075,-3556.6257L13934.0678,-3556.6155L13934.0526,-3556.5682L13934.0285,-3556.4921L13934.0134,-3556.4448L13934.0016,-3556.3998L13933.9941,-3556.3654L13933.9844,-3556.2995L13933.981,-3556.2651L13933.9782,-3556.2482L13933.9569,-3556.1598L13933.948,-3556.1338L13933.9414,-3556.1119L13933.9329,-3556.061L13933.93,-3556.0172L13933.9293,-3555.9547L13933.9279,-3555.9339L13933.9265,-3555.9316L13933.9245,-3555.9192L13933.9132,-3555.8796L13933.9045,-3555.8516L13933.8921,-3555.8161L13933.8804,-3555.7953L13933.8611,-3555.7699L13933.8376,-3555.7384L13933.8198,-3555.7153L13933.8163,-3555.7096L13933.7523,-3555.6251L13933.693,-3555.544L13933.6824,-3555.5256L13933.6675,-3555.5113L13933.6475,-3555.4871L13933.6331,-3555.4736L13933.6172,-3555.4606L13933.6117,-3555.4567L13933.5938,-3555.4454L13933.5779,-3555.4381L13933.5407,-3555.4268L13933.5284,-3555.423L13933.4863,-3555.4099L13933.4573,-3555.3964L13933.4381,-3555.384L13933.425,-3555.3739L13933.4071,-3555.3524L13933.3468,-3555.2391L13933.3984,-3555.1758"/>
<path content="1,神奈川中央交通（株）,橋70,4.5,3.5,3.0," xlink:title="1" d="M13934.4841,-3559.5604L13934.4946,-3559.5703"/>
<path content="1,神奈川中央交通（株）,橋73,9.0,7.0,12.0," xlink:title="1" d="M13934.4841,-3559.5604L13934.4946,-3559.5703"/>
<path content="1,神奈川中央交通（株）,橋75,55.0,44.5,22.0," xlink:title="1" d="M13934.4841,-3559.5604L13934.4946,-3559.5703"/>
<path content="1,神奈川中央交通（株）,橋76,64.5,29.0,29.5," xlink:title="1" d="M13934.4841,-3559.5604L13934.4946,-3559.5703"/>
<path content="1,神奈川中央交通（株）,橋80,8.0,4.5,3.0," xlink:title="1" d="M13934.4841,-3559.5604L13934.4946,-3559.5703"/>
<path content="1,神奈川中央交通（株）,橋本駅・相模大野・町田バスセンター～成田空港,9.0,9.0,9.0," xlink:title="1" d="M13935.0586,-3558.4293L13935.0537,-3558.4307L13935.0428,-3558.4341L13935.0389,-3558.4352L13935.0297,-3558.4376L13934.9524,-3558.457L13934.9178,-3558.4686L13934.8925,-3558.4774L13934.8806,-3558.4814L13934.8646,-3558.4852L13934.8427,-3558.4907L13934.8115,-3558.5003L13934.8026,-3558.504L13934.7159,-3558.5346L13934.6865,-3558.5418L13934.6514,-3558.5528L13934.5938,-3558.5639L13934.5616,-3558.581L13934.5171,-3558.5937L13934.4822,-3558.6093L13934.4566,-3558.6269L13934.4294,-3558.6574L13934.4139,-3558.6736L13934.3902,-3558.7116L13934.3462,-3558.7779L13934.331,-3558.8014L13934.3236,-3558.8129L13934.2403,-3558.9457L13934.2357,-3558.9521L13934.1642,-3559.0624L13934.1511,-3559.0821L13934.0842,-3559.188L13934.0173,-3559.3136L13933.9739,-3559.4021L13933.916,-3559.5226L13933.9161,-3559.5226L13933.9161,-3559.5226L13933.9656,-3559.5254L13933.9736,-3559.5264L13933.9939,-3559.5254L13934.0056,-3559.5265L13934.0449,-3559.5277L13934.0925,-3559.5299L13934.1408,-3559.531L13934.1939,-3559.5333L13934.2533,-3559.532L13934.2725,-3559.5293L13934.2932,-3559.5226L13934.3187,-3559.5096L13934.3374,-3559.4984L13934.3832,-3559.4707L13934.4091,-3559.4544L13934.4922,-3559.4125L13934.5202,-3559.3971"/>
<path content="1,神奈川中央交通（株）,淵53,37.0,32.5,28.5," xlink:title="1" d="M13935.0586,-3555.6197L13935.0165,-3555.6132L13934.9634,-3555.6042L13934.9538,-3555.6036L13934.9248,-3555.5986L13934.9159,-3555.5951L13934.909,-3555.5952L13934.8532,-3555.5851L13934.8158,-3555.579L13934.8134,-3555.5868L13934.7629,-3555.5721L13934.7326,-3555.5642L13934.6851,-3555.5496L13934.6437,-3555.5372L13934.6162,-3555.5282L13934.5259,-3555.4995L13934.5142,-3555.4966L13934.4804,-3555.4865L13934.443,-3555.4768L13934.4336,-3555.4747L13934.3916,-3555.464L13934.3791,-3555.4618L13934.3679,-3555.4591L13934.3172,-3555.4471L13934.3013,-3555.4431L13934.2262,-3555.4262L13934.1759,-3555.4121L13934.1628,-3555.4065L13934.136,-3555.3936L13934.1161,-3555.383L13934.0991,-3555.3741L13934.0616,-3555.3541L13934.0216,-3555.3243L13933.921,-3555.2431L13933.9168,-3555.2336L13933.8735,-3555.2049L13933.839,-3555.1761L13933.8385,-3555.1758"/>
<path content="1,神奈川中央交通（株）,淵59,17.5,15.0,13.5," xlink:title="1" d="M13935.0586,-3555.6197L13935.0165,-3555.6132L13934.9634,-3555.6042L13934.9538,-3555.6036L13934.9248,-3555.5986L13934.9159,-3555.5951L13934.909,-3555.5952L13934.8532,-3555.5851L13934.8158,-3555.579L13934.8134,-3555.5868L13934.7629,-3555.5721L13934.7326,-3555.5642L13934.6851,-3555.5496L13934.6437,-3555.5372L13934.6162,-3555.5282L13934.5259,-3555.4995L13934.5142,-3555.4966L13934.4804,-3555.4865L13934.443,-3555.4768L13934.4336,-3555.4747L13934.3916,-3555.464L13934.3791,-3555.4618L13934.3679,-3555.4591L13934.3172,-3555.4471L13934.3013,-3555.4431L13934.2262,-3555.4262L13934.1759,-3555.4121L13934.1628,-3555.4065L13934.136,-3555.3936L13934.1161,-3555.383L13934.0991,-3555.3741L13934.0616,-3555.3541L13934.0216,-3555.3243L13933.921,-3555.2431L13933.9168,-3555.2336L13933.8735,-3555.2049L13933.839,-3555.1761L13933.8385,-3555.1758"/>
<path content="1,神奈川中央交通（株）,町30,61.0,48.0,50.5," xlink:title="1" d="M13934.4841,-3559.5604L13934.4946,-3559.5703"/>
<path content="1,神奈川中央交通（株）,町60,13.0,13.0,10.0," xlink:title="1" d="M13934.4841,-3559.5604L13934.4946,-3559.5703"/>
<path content="1,神奈川中央交通（株）,相17,43.5,33.0,31.0," xlink:title="1" d="M13935.0586,-3555.6197L13935.0165,-3555.6132L13934.9634,-3555.6042L13934.9538,-3555.6036L13934.9248,-3555.5986L13934.9159,-3555.5951L13934.909,-3555.5952L13934.8532,-3555.5851L13934.8158,-3555.579L13934.8134,-3555.5868L13934.7629,-3555.5721L13934.7326,-3555.5642L13934.6851,-3555.5496L13934.6437,-3555.5372L13934.6162,-3555.5282L13934.5259,-3555.4995L13934.5142,-3555.4966L13934.4804,-3555.4865L13934.443,-3555.4768L13934.4336,-3555.4747L13934.3916,-3555.464L13934.3791,-3555.4618L13934.3679,-3555.4591L13934.3172,-3555.4471L13934.3027,-3555.4431L13934.3013,-3555.4431L13934.2999,-3555.4431L13934.2262,-3555.4262L13934.1759,-3555.4121L13934.1628,-3555.4065L13934.136,-3555.3936L13934.1161,-3555.383L13934.0991,-3555.3741L13934.0616,-3555.3541L13934.0216,-3555.3243L13933.921,-3555.2431L13933.9168,-3555.2336L13933.8735,-3555.2049L13933.839,-3555.1761L13933.8385,-3555.1758"/>
<path content="1,神奈川中央交通（株）,相31,49.5,45.0,44.5," xlink:title="1" d="M13935.0586,-3558.4293L13935.0537,-3558.4307L13935.0428,-3558.4341L13935.0389,-3558.4352L13935.0297,-3558.4376L13934.9524,-3558.457L13934.9178,-3558.4686L13934.8925,-3558.4774L13934.8806,-3558.4814L13934.8646,-3558.4852L13934.8427,-3558.4907L13934.8115,-3558.5003L13934.8026,-3558.504L13934.7159,-3558.5346L13934.6865,-3558.5418L13934.6514,-3558.5528L13934.5938,-3558.5639L13934.5616,-3558.581L13934.5171,-3558.5937L13934.4454,-3558.6093L13934.4346,-3558.612L13934.3929,-3558.6196L13934.3591,-3558.6258L13934.221,-3558.6501L13934.2174,-3558.6508L13934.179,-3558.6574L13934.0905,-3558.6703L13934.0367,-3558.689L13934.0243,-3558.694L13933.9615,-3558.7154L13933.9181,-3558.7301L13933.9043,-3558.7353L13933.8932,-3558.7391L13933.8594,-3558.7515L13933.8229,-3558.764L13933.8093,-3558.7685L13933.7967,-3558.7729L13933.7608,-3558.7853L13933.7112,-3558.8022L13933.6826,-3558.8094L13933.6677,-3558.8168L13933.6139,-3558.836L13933.596,-3558.8416L13933.5656,-3558.8523L13933.5084,-3558.8715L13933.4939,-3558.8766L13933.4677,-3558.8856L13933.3697,-3558.9205L13933.3615,-3558.9233L13933.3201,-3558.9385L13933.3153,-3558.9397L13933.294,-3558.948L13933.169,-3558.9909L13933.0286,-3559.0412L13932.9787,-3559.0591L13932.9656,-3559.063L13932.8987,-3559.0866L13932.8869,-3559.0906L13932.8559,-3559.1024L13932.8193,-3559.1154L13932.8131,-3559.1165L13932.8097,-3559.1182L13932.7918,-3559.1255L13932.7821,-3559.1289L13932.7552,-3559.1385L13932.7311,-3559.1449"/>
<path content="1,神奈川中央交通（株）,相36,34.5,29.0,23.0," xlink:title="1" d="M13935.0586,-3557.6303L13934.9785,-3557.6327L13934.8545,-3557.6378L13934.8442,-3557.6384L13934.8312,-3557.6371L13934.8753,-3557.5229L13934.9282,-3557.3798L13934.932,-3557.3752L13934.9489,-3557.3263L13934.9028,-3557.3257L13934.8821,-3557.329L13934.8655,-3557.3299"/>
<path content="3,相模原市,橋30,11.5,11.5,11.5," xlink:title="3" d="M13930.7329,-3557.8479L13930.7539,-3557.8672L13930.7657,-3557.8813L13930.7732,-3557.8959L13930.7822,-3557.9258L13930.787,-3557.9365L13930.7946,-3557.9444L13930.8071,-3557.9507L13930.8276,-3557.9494L13930.8435,-3557.9438L13930.8628,-3557.9337L13930.9028,-3557.9066L13930.9489,-3557.8695L13931.0158,-3557.8109L13931.0309,-3557.8013L13931.0488,-3557.7945L13931.0667,-3557.7929L13931.1184,-3557.7947L13931.1345,-3557.7926L13931.1482,-3557.7874L13931.1606,-3557.778L13931.1711,-3557.7692L13931.1849,-3557.7586L13931.1947,-3557.7505L13931.1991,-3557.7452L13931.2023,-3557.7379L13931.2197,-3557.6943L13931.2332,-3557.6775L13931.3492,-3557.5658L13931.3899,-3557.5293L13931.3967,-3557.5214L13931.4319,-3557.487L13931.4574,-3557.4594L13931.4649,-3557.4515L13931.4808,-3557.4262L13931.5091,-3557.3749L13931.529,-3557.3817L13931.5862,-3557.4014L13931.6107,-3557.41L13931.6308,-3557.4168L13931.6424,-3557.4207L13931.6502,-3557.423L13931.6581,-3557.4257L13931.7178,-3557.4414L13931.685,-3557.4769L13931.6565,-3557.5067L13931.6165,-3557.5473L13931.6117,-3557.5535L13931.5866,-3557.5796L13931.5823,-3557.584L13931.5669,-3557.6019L13931.5621,-3557.6079L13931.5583,-3557.6156L13931.5557,-3557.6219L13931.5532,-3557.6303L13931.5521,-3557.6366L13931.55,-3557.6489L13931.5484,-3557.6627L13931.5473,-3557.6724L13931.5466,-3557.6882L13931.5462,-3557.6953L13931.5462,-3557.7027L13931.5484,-3557.737L13931.5483,-3557.7827L13931.5483,-3557.8819L13931.5455,-3557.9191L13931.5428,-3557.941L13931.5354,-3557.9685L13931.5304,-3557.9804L13931.5201,-3557.9996L13931.5042,-3558.0255L13931.4946,-3558.0396L13931.4897,-3558.0486L13931.4691,-3558.0751L13931.4615,-3558.0841L13931.4849,-3558.1303L13931.499,-3558.1528L13931.5008,-3558.1556L13931.5172,-3558.175L13931.5317,-3558.1899L13931.5394,-3558.1959L13931.6172,-3558.257L13931.6406,-3558.2761L13931.6475,-3558.2806L13931.7157,-3558.3364L13931.7416,-3558.3585L13931.7509,-3558.3672L13931.7764,-3558.3786L13931.7852,-3558.3939L13931.8328,-3558.4339L13931.8473,-3558.4446L13931.8555,-3558.4524L13931.8652,-3558.4603L13931.8914,-3558.4812L13931.9024,-3558.4896L13931.921,-3558.5093L13931.9265,-3558.5183L13931.943,-3558.548L13932.0353,-3558.5499L13932.0622,-3558.5482L13932.1304,-3558.5268L13932.1476,-3558.5212L13932.1683,-3558.515L13932.1807,-3558.5099L13932.1959,-3558.5059L13932.2331,-3558.4941L13932.2393,-3558.493L13932.2475,-3558.4907L13932.2606,-3558.4868L13932.2937,-3558.4795L13932.3674,-3558.4739L13932.4349,-3558.4688L13932.4522,-3558.4688L13932.4763,-3558.466L13932.4914,-3558.4654L13932.5025,-3558.4632L13932.5176,-3558.4575L13932.5307,-3558.4524L13932.5407,-3558.4487L13932.5486,-3558.444L13932.6223,-3558.4085L13932.7215,-3558.3668L13932.7448,-3558.3578L13932.7506,-3558.3546L13932.7897,-3558.3381L13932.8035,-3558.328L13932.8249,-3558.3032L13932.8297,-3558.2964L13932.8352,-3558.2913L13932.858,-3558.2666L13932.8662,-3558.2593L13932.8793,-3558.2519L13932.9204,-3558.2315L13932.9455,-3558.2564L13932.9482,-3558.2621L13932.9489,-3558.2739L13932.9544,-3558.2947L13932.9668,-3558.3261L13932.8903,-3558.3759L13932.8504,-3558.4017L13932.8022,-3558.4333L13932.7698,-3558.4586L13932.7557,-3558.4771L13932.7463,-3558.4907L13932.7393,-3558.5088L13932.7353,-3558.5212L13932.7314,-3558.5332L13932.7393,-3558.5368L13932.7466,-3558.5393L13932.7498,-3558.5401L13932.7606,-3558.5428L13932.7832,-3558.5434L13932.8345,-3558.5426L13932.8752,-3558.5381L13932.9034,-3558.5336L13932.9578,-3558.5212L13932.9916,-3558.5104L13933.0047,-3558.5058L13933.0819,-3558.5279L13933.0901,-3558.5283L13933.1494,-3558.5493L13933.201,-3558.5645L13933.2574,-3558.5797L13933.3093,-3558.6574L13933.3284,-3558.6828L13933.3318,-3558.6884L13933.3442,-3558.7065L13933.367,-3558.7391L13933.3777,-3558.7539L13933.3889,-3558.7728L13933.4044,-3558.7945L13933.4139,-3558.7915L13933.4856,-3558.7684L13933.5056,-3558.7616L13933.5714,-3558.7402L13933.5942,-3558.7319L13933.6145,-3558.7259L13933.6215,-3558.7336L13933.6339,-3558.7583L13933.65,-3558.7872L13933.6677,-3558.8168L13933.6732,-3558.8253L13933.6905,-3558.8563L13933.6933,-3558.8604L13933.715,-3558.8548L13933.7267,-3558.8509L13933.736,-3558.8473L13933.7891,-3558.8298L13933.7955,-3558.8274L13933.8553,-3558.8073L13933.8652,-3558.804L13933.8967,-3558.7932L13933.927,-3558.7819L13933.9374,-3558.7983L13933.9497,-3558.8122L13933.9684,-3558.8571L13933.9594,-3558.8608L13933.9397,-3558.8686L13933.9363,-3558.8693L13933.9297,-3558.8708L13933.9139,-3558.8765L13933.8553,-3558.8963L13933.8298,-3558.9053L13933.8187,-3558.9092L13933.8015,-3558.9165L13933.7767,-3558.9223L13933.7456,-3558.9363L13933.756,-3558.9593L13933.7697,-3558.9974L13933.7707,-3559.0013L13933.7035,-3559.0224L13933.6925,-3559.081L13933.6884,-3559.0984L13933.6856,-3559.1131L13933.6835,-3559.1193L13933.6739,-3559.1638L13933.6704,-3559.1807L13933.6684,-3559.1869L13933.6594,-3559.2319L13933.6484,-3559.277L13933.6335,-3559.3441L13933.6291,-3559.3637L13933.6291,-3559.3722L13933.6277,-3559.3762L13933.6197,-3559.4073L13933.6175,-3559.415L13933.6134,-3559.4304L13933.6084,-3559.4527L13933.6002,-3559.4832L13933.5925,-3559.5153L13933.6166,-3559.517L13933.6411,-3559.5174L13933.6511,-3559.5176L13933.6841,-3559.519L13933.7107,-3559.518L13933.7361,-3559.5173L13933.7532,-3559.5198L13933.7732,-3559.5209L13933.7897,-3559.5203L13933.8863,-3559.5203L13933.9159,-3559.5226L13933.916,-3559.5226L13933.916,-3559.5226L13933.916,-3559.5226L13933.9161,-3559.5226L13933.9161,-3559.5226L13933.9656,-3559.5254L13933.9736,-3559.5264L13933.9939,-3559.5254L13934.0056,-3559.5265L13934.0449,-3559.5277L13934.0925,-3559.5299L13934.1408,-3559.531L13934.1939,-3559.5333L13934.2533,-3559.532"/>
</g>
</svg>
