<?xml version="1.0" encoding="UTF-8"?>
<svg  xmlns="http://www.w3.org/2000/svg" xmlns:xlink="http://www.w3.org/1999/xlink" xmlns:go="http://purl.org/svgmap/profile" property="N07_001,N07_002,N07_003,N07_004,N07_005,N07_006,N07_007" viewBox="14317.3828125 -4293.45703125 2.197265625 2.197265625" go:dataArea="14317.3828125 -4293.45703125 2.197265625 2.197265625" >
<metadata>
 <rdf:RDF xmlns:rdf="http://www.w3.org/1999/02/22-rdf-syntax-ns#" xmlns:crs="http://opengis.org/xmldtds/transformations.dtd" xmlns:svg="http://www.w3.org/svg" >
  <rdf:Description>
   <crs:CoordinateReferenceSystem rdf:resource="http://purl.org/crs/84" svg:transform="matrix(100.0,0.0,0.0,-100.0,0.0,0.0)" />
  </rdf:Description>
 </rdf:RDF>
</metadata>
<globalCoordinateSystem srsName="http://purl.org/crs/84" transform="matrix(100.0,0.0,0.0,-100.0,0.0,0.0)" />
<defs>
 <g id="p0" >
  <circle cx="0.0" cy="0.0" r="3" stroke="green" stroke-width="0.75" vector-effect="non-scaling-stroke" />
 </g>
</defs>
<g fill="none" fill-rule="evenodd" stroke="#FF00FF" stroke-width="0.75" opacity="0.5" vector-effect="non-scaling-stroke" stroke-linejoin="bevel" >
<path content="1,JR北海道バス（株）,高速ポテトライナー,7.0,7.0,7.0," xlink:title="1" d="M14319.5801,-4293.1448L14319.5711,-4293.1441L14319.5463,-4293.1428L14319.4639,-4293.1376L14319.4512,-4293.1365L14319.4433,-4293.1361L14319.3058,-4293.1261L14319.293,-4293.1252L14319.2821,-4293.1244L14319.2317,-4293.1175L14319.2146,-4293.1203L14319.1471,-4293.1155L14319.1373,-4293.1151L14319.1278,-4293.1142L14319.0816,-4293.1108L14319.0185,-4293.1066L14319.0018,-4293.1053L14318.9755,-4293.1035L14318.9557,-4293.1022L14318.9264,-4293.0965L14318.8833,-4293.097L14318.8301,-4293.0933L14318.8197,-4293.0926L14318.8086,-4293.092L14318.7707,-4293.0886L14318.6793,-4293.0823L14318.6674,-4293.0819L14318.6587,-4293.0808L14318.6107,-4293.0747L14318.5943,-4293.0762L14318.5816,-4293.0757L14318.576,-4293.0747L14318.525,-4293.071L14318.5074,-4293.0701L14318.4947,-4293.0688L14318.4029,-4293.0621L14318.3738,-4293.0599L14318.3601,-4293.0593L14318.261,-4293.0481L14318.1861,-4293.046L14318.1752,-4293.0448L14318.1644,-4293.0443L14318.1047,-4293.0397L14318.0961,-4293.0389L14318.0878,-4293.0384L14318.075,-4293.0373L14318.0409,-4293.0347L14318.031,-4293.034L14318.0235,-4293.0338L14318.0188,-4293.0332L14317.9973,-4293.0315L14317.9722,-4293.0272L14317.9426,-4293.0274L14317.9334,-4293.0259L14317.9258,-4293.0253L14317.9077,-4293.0247L14317.8215,-4293.018L14317.7076,-4293.0097L14317.6961,-4293.0099L14317.6241,-4293.0045L14317.5201,-4292.9967L14317.5009,-4292.9946L14317.4865,-4292.9937L14317.4136,-4292.9882L14317.3828,-4292.9862"/>
<path content="1,くしろバス（株）,特急すずらん号,2.0,2.0,2.0," xlink:title="1" d="M14319.5801,-4292.3214L14319.5619,-4292.32L14319.4359,-4292.3158L14319.4102,-4292.3124L14319.4055,-4292.3121L14319.3991,-4292.3116L14319.3064,-4292.3034L14319.294,-4292.2352L14319.2651,-4292.1645L14319.2614,-4292.1159L14319.2615,-4292.1094L14319.2642,-4292.0781L14319.2665,-4292.0661L14319.2366,-4292.0643L14319.2116,-4292.0624L14319.1124,-4292.0551L14319.1006,-4292.054L14319.0893,-4292.0531L14319.0367,-4292.0432L14318.9613,-4292.0438L14318.9443,-4292.0419L14318.9288,-4292.0406L14318.8268,-4292.0331L14318.8198,-4292.0331L14318.8112,-4292.0346L14318.8018,-4292.0366L14318.7905,-4292.0386L14318.7869,-4292.0392L14318.7815,-4292.0401L14318.7773,-4292.0411L14318.7622,-4292.0455L14318.7435,-4292.0516L14318.7362,-4292.0541L14318.727,-4292.0573L14318.7052,-4292.0655L14318.6834,-4292.0715L14318.6689,-4292.0739L14318.6577,-4292.0741L14318.6457,-4292.0739L14318.6103,-4292.0718L14318.5921,-4292.0702L14318.5804,-4292.0696L14318.5481,-4292.0663L14318.4832,-4292.0645L14318.4661,-4292.0632L14318.4077,-4292.0585L14318.3878,-4292.0603L14318.3373,-4292.0544L14318.3169,-4292.0525L14318.2978,-4292.0507L14318.1369,-4292.0397L14318.1093,-4292.0377L14318.1015,-4292.0369L14318.0362,-4292.03L14317.9987,-4292.0298L14317.9888,-4292.0291L14317.9549,-4292.0264L14317.8648,-4292.0199L14317.8336,-4292.0176L14317.8049,-4292.0155L14317.7614,-4292.0127L14317.7273,-4292.0073L14317.6987,-4292.0086L14317.6701,-4292.0064L14317.5688,-4291.9996L14317.5377,-4291.9973L14317.5125,-4291.9952L14317.4734,-4291.9929L14317.4185,-4291.9889L14317.3828,-4291.9865"/>
<path content="1,北海道中央バス（株）,ポテトライナー,7.0,7.0,7.0," xlink:title="1" d="M14319.5801,-4293.1448L14319.5711,-4293.1441L14319.5463,-4293.1428L14319.4639,-4293.1376L14319.4512,-4293.1365L14319.4433,-4293.1361L14319.3058,-4293.1261L14319.293,-4293.1252L14319.2821,-4293.1244L14319.2317,-4293.1175L14319.2146,-4293.1203L14319.1471,-4293.1155L14319.1373,-4293.1151L14319.1278,-4293.1142L14319.0816,-4293.1108L14319.0185,-4293.1066L14319.0018,-4293.1053L14318.9755,-4293.1035L14318.9557,-4293.1022L14318.9264,-4293.0965L14318.8833,-4293.097L14318.8301,-4293.0933L14318.8197,-4293.0926L14318.8086,-4293.092L14318.7707,-4293.0886L14318.6793,-4293.0823L14318.6674,-4293.0819L14318.6587,-4293.0808L14318.6107,-4293.0747L14318.5943,-4293.0762L14318.5816,-4293.0757L14318.576,-4293.0747L14318.525,-4293.071L14318.5074,-4293.0701L14318.4947,-4293.0688L14318.4029,-4293.0621L14318.3738,-4293.0599L14318.3601,-4293.0593L14318.261,-4293.0481L14318.1861,-4293.046L14318.1752,-4293.0448L14318.1644,-4293.0443L14318.1047,-4293.0397L14318.0961,-4293.0389L14318.0878,-4293.0384L14318.075,-4293.0373L14318.0409,-4293.0347L14318.031,-4293.034L14318.0235,-4293.0338L14318.0188,-4293.0332L14317.9973,-4293.0315L14317.9722,-4293.0272L14317.9426,-4293.0274L14317.9334,-4293.0259L14317.9258,-4293.0253L14317.9077,-4293.0247L14317.8215,-4293.018L14317.7076,-4293.0097L14317.6961,-4293.0099L14317.6241,-4293.0045L14317.5201,-4292.9967L14317.5009,-4292.9946L14317.4865,-4292.9937L14317.4136,-4292.9882L14317.3828,-4292.9862"/>
<path content="1,北海道拓殖バス（株）,ノースライナー,4.0,4.0,4.0," xlink:title="1" d="M14319.5801,-4292.0843L14319.5738,-4292.0843L14319.5621,-4292.0841L14319.4363,-4292.0764L14319.3643,-4292.0718L14319.3531,-4292.0709L14319.3459,-4292.0703L14319.2897,-4292.0667L14319.2665,-4292.0661L14319.2366,-4292.0643L14319.2116,-4292.0624L14319.1124,-4292.0551L14319.1006,-4292.054L14319.0893,-4292.0531L14319.0367,-4292.0432L14318.9613,-4292.0438L14318.9443,-4292.0419L14318.9288,-4292.0406L14318.8268,-4292.0331L14318.8198,-4292.0331L14318.8112,-4292.0346L14318.8018,-4292.0366L14318.7905,-4292.0386L14318.7869,-4292.0392L14318.7815,-4292.0401L14318.7773,-4292.0411L14318.7622,-4292.0455L14318.7435,-4292.0516L14318.7362,-4292.0541L14318.727,-4292.0573L14318.7052,-4292.0655L14318.6834,-4292.0715L14318.6689,-4292.0739L14318.6577,-4292.0741L14318.6457,-4292.0739L14318.6103,-4292.0718L14318.5921,-4292.0702L14318.5804,-4292.0696L14318.5481,-4292.0663L14318.4832,-4292.0645L14318.4661,-4292.0632L14318.4077,-4292.0585L14318.3878,-4292.0603L14318.3373,-4292.0544L14318.3169,-4292.0525L14318.2978,-4292.0507L14318.1369,-4292.0397L14318.1093,-4292.0377L14318.1015,-4292.0369L14318.0362,-4292.03L14317.9987,-4292.0298L14317.9888,-4292.0291L14317.9549,-4292.0264L14317.8648,-4292.0199L14317.8336,-4292.0176L14317.8049,-4292.0155L14317.7614,-4292.0127L14317.7273,-4292.0073L14317.6987,-4292.0086L14317.6701,-4292.0064L14317.5688,-4291.9996L14317.5377,-4291.9973L14317.5125,-4291.9952L14317.4734,-4291.9929L14317.4185,-4291.9889L14317.3828,-4291.9865"/>
<path content="1,北海道拓殖バス（株）,ポテトライナー,7.0,7.0,7.0," xlink:title="1" d="M14319.5801,-4293.1448L14319.5711,-4293.1441L14319.5463,-4293.1428L14319.4639,-4293.1376L14319.4512,-4293.1365L14319.4433,-4293.1361L14319.3058,-4293.1261L14319.293,-4293.1252L14319.2821,-4293.1244L14319.2317,-4293.1175L14319.2146,-4293.1203L14319.1471,-4293.1155L14319.1373,-4293.1151L14319.1278,-4293.1142L14319.0816,-4293.1108L14319.0185,-4293.1066L14319.0018,-4293.1053L14318.9755,-4293.1035L14318.9557,-4293.1022L14318.9264,-4293.0965L14318.8833,-4293.097L14318.8301,-4293.0933L14318.8197,-4293.0926L14318.8086,-4293.092L14318.7707,-4293.0886L14318.6793,-4293.0823L14318.6674,-4293.0819L14318.6587,-4293.0808L14318.6107,-4293.0747L14318.5943,-4293.0762L14318.5816,-4293.0757L14318.576,-4293.0747L14318.525,-4293.071L14318.5074,-4293.0701L14318.4947,-4293.0688L14318.4029,-4293.0621L14318.3738,-4293.0599L14318.3601,-4293.0593L14318.261,-4293.0481L14318.1861,-4293.046L14318.1752,-4293.0448L14318.1644,-4293.0443L14318.1047,-4293.0397L14318.0961,-4293.0389L14318.0878,-4293.0384L14318.075,-4293.0373L14318.0409,-4293.0347L14318.031,-4293.034L14318.0235,-4293.0338L14318.0188,-4293.0332L14317.9973,-4293.0315L14317.9722,-4293.0272L14317.9426,-4293.0274L14317.9334,-4293.0259L14317.9258,-4293.0253L14317.9077,-4293.0247L14317.8215,-4293.018L14317.7076,-4293.0097L14317.6961,-4293.0099L14317.6241,-4293.0045L14317.5201,-4292.9967L14317.5009,-4292.9946L14317.4865,-4292.9937L14317.4136,-4292.9882L14317.3828,-4292.9862"/>
<path content="1,北海道拓殖バス（株）,一中・療養所循環線,14.0,7.0,7.0," xlink:title="1" d="M14319.5801,-4292.9095L14319.4795,-4292.903L14319.3234,-4292.8918"/>
<path content="1,北海道拓殖バス（株）,一中・療養所循環線,14.0,7.0,7.0," xlink:title="1" d="M14319.3234,-4292.8918L14319.331,-4292.8344L14319.3335,-4292.8044L14319.3471,-4292.7146L14319.3501,-4292.7005L14319.3555,-4292.6549L14319.3555,-4292.6465L14319.3664,-4292.5564L14319.3693,-4292.5413L14319.3693,-4292.5301L14319.344,-4292.4367L14319.341,-4292.4248L14319.3367,-4292.4114L14319.3234,-4292.363L14319.3064,-4292.3034L14319.3991,-4292.3116L14319.4055,-4292.3121L14319.4102,-4292.3124L14319.4359,-4292.3158L14319.5619,-4292.32L14319.5801,-4292.3214"/>
<path content="1,北海道拓殖バス（株）,一中・療養所循環線,14.0,7.0,7.0," xlink:title="1" d="M14319.3234,-4292.8918L14319.275,-4292.8879L14319.1634,-4292.88L14319.1411,-4292.8784L14319.0195,-4292.8698L14318.8526,-4292.8575L14318.8089,-4292.8549L14318.736,-4292.85L14318.7216,-4292.8487L14318.6947,-4292.8457L14318.5943,-4292.8389L14318.5357,-4292.8344L14318.5296,-4292.8929L14318.5269,-4292.9216L14318.5221,-4292.9521L14318.5199,-4292.9691L14318.4679,-4292.9997L14318.3738,-4293.0599L14318.3601,-4293.0593L14318.261,-4293.0481L14318.1861,-4293.046L14318.1752,-4293.0448L14318.1644,-4293.0443L14318.1047,-4293.0397L14318.0961,-4293.0389L14318.0878,-4293.0384L14318.075,-4293.0373L14318.0409,-4293.0347L14318.031,-4293.034L14318.0235,-4293.0338L14318.0188,-4293.0332L14317.9973,-4293.0315L14317.9722,-4293.0272L14317.9426,-4293.0274L14317.9334,-4293.0259L14317.9258,-4293.0253L14317.9077,-4293.0247L14317.8215,-4293.018L14317.7076,-4293.0097L14317.6961,-4293.0099L14317.693,-4293.0363L14317.68,-4293.1303L14317.6669,-4293.2293L14317.6661,-4293.2487L14317.6645,-4293.2594L14317.6637,-4293.2647L14317.654,-4293.3165L14317.6524,-4293.3418L14317.6473,-4293.3822L14317.6471,-4293.3863L14317.6447,-4293.3998L14317.6417,-4293.4279L14317.638,-4293.457M14319.5637,-4293.457L14319.566,-4293.4398L14319.5771,-4293.384L14319.5801,-4293.3735"/>
<path content="1,北海道拓殖バス（株）,一中・療養所循環線,14.0,7.0,7.0," xlink:title="1" d="M14319.5801,-4293.1448L14319.5711,-4293.1441L14319.5463,-4293.1428"/>
<path content="1,北海道拓殖バス（株）,一中線,4.0,2.0,2.0," xlink:title="1" d="M14319.5463,-4293.1428L14319.5711,-4293.1441L14319.5801,-4293.1448"/>
<path content="1,北海道拓殖バス（株）,一中線,4.0,2.0,2.0," xlink:title="1" d="M14319.5801,-4293.3735L14319.5771,-4293.384L14319.566,-4293.4398L14319.5637,-4293.457"/>
<path content="1,北海道拓殖バス（株）,中鈴蘭・北親線,15.0,9.0,9.0," xlink:title="1" d="M14319.256,-4293.457L14319.2635,-4293.3894L14319.269,-4293.3171L14319.2705,-4293.303L14319.2757,-4293.2631L14319.2786,-4293.2443L14319.2851,-4293.1871L14319.2871,-4293.1789L14319.293,-4293.1252L14319.3012,-4293.0624L14319.3084,-4293.0096L14319.3121,-4292.9938L14319.3172,-4292.9481L14319.3234,-4292.8918L14319.331,-4292.8344L14319.3335,-4292.8044L14319.3471,-4292.7146L14319.3501,-4292.7005L14319.3555,-4292.6549L14319.3555,-4292.6465L14319.3664,-4292.5564L14319.3693,-4292.5413L14319.3693,-4292.5301L14319.344,-4292.4367L14319.341,-4292.4248L14319.3367,-4292.4114L14319.3234,-4292.363L14319.3064,-4292.3034L14319.3991,-4292.3116L14319.4055,-4292.3121L14319.4102,-4292.3124L14319.4359,-4292.3158L14319.5619,-4292.32L14319.5801,-4292.3214"/>
<path content="1,北海道拓殖バス（株）,南商高校線17,17.0,11.5,11.5," xlink:title="1" d="M14319.5801,-4292.3214L14319.5619,-4292.32"/>
<path content="1,北海道拓殖バス（株）,南商高校線18,7.0,2.5,2.5," xlink:title="1" d="M14319.3737,-4291.2598L14319.3728,-4291.2667L14319.3665,-4291.3127L14319.3608,-4291.3537L14319.3588,-4291.3714L14319.3574,-4291.3834L14319.3443,-4291.4445L14319.3452,-4291.4738L14319.3435,-4291.4873L14319.3416,-4291.5034L14319.3357,-4291.5438L14319.3296,-4291.586L14319.3271,-4291.6026L14319.3241,-4291.6235L14319.3197,-4291.6513L14319.3181,-4291.6604L14319.3145,-4291.6717L14319.3121,-4291.7086L14319.3103,-4291.7214L14319.3071,-4291.7313L14319.3022,-4291.768L14319.3011,-4291.7771L14319.2996,-4291.7901L14319.2936,-4291.8266L14319.2927,-4291.8377L14319.2915,-4291.8516L14319.2876,-4291.8841L14319.287,-4291.8912L14319.2863,-4291.8998L14319.2848,-4291.9191L14319.2827,-4291.9449L14319.2812,-4291.9533L14319.2806,-4291.9567L14319.2761,-4291.9971L14319.2748,-4292.008L14319.2741,-4292.0127L14319.2686,-4292.0508L14319.2665,-4292.0661L14319.2642,-4292.0781L14319.2615,-4292.1094L14319.2614,-4292.1159L14319.2651,-4292.1645L14319.294,-4292.2352L14319.3064,-4292.3034L14319.3991,-4292.3116L14319.4055,-4292.3121L14319.4102,-4292.3124L14319.4359,-4292.3158L14319.5619,-4292.32L14319.5801,-4292.3214"/>
<path content="1,北海道拓殖バス（株）,帯広の森バス,3.0,3.5,3.5," xlink:title="1" d="M14319.5801,-4292.3214L14319.5619,-4292.32L14319.4359,-4292.3158L14319.4102,-4292.3124L14319.4055,-4292.3121L14319.3991,-4292.3116L14319.3064,-4292.3034L14319.294,-4292.2352L14319.2651,-4292.1645L14319.2614,-4292.1159L14319.2615,-4292.1094L14319.2642,-4292.0781L14319.2665,-4292.0661L14319.2686,-4292.0508L14319.2741,-4292.0127L14319.2748,-4292.008L14319.2761,-4291.9971L14319.2806,-4291.9567L14319.2812,-4291.9533L14319.2827,-4291.9449L14319.2848,-4291.9191L14319.2863,-4291.8998L14319.287,-4291.8912L14319.2876,-4291.8841L14319.2915,-4291.8516L14319.2927,-4291.8377L14319.2936,-4291.8266L14319.2996,-4291.7901L14319.3011,-4291.7771L14319.3022,-4291.768L14319.3071,-4291.7313L14319.3103,-4291.7214L14319.3121,-4291.7086L14319.3145,-4291.6717L14319.3181,-4291.6604L14319.3197,-4291.6513L14319.3241,-4291.6235L14319.3271,-4291.6026L14319.3296,-4291.586L14319.3357,-4291.5438L14319.3416,-4291.5034L14319.3435,-4291.4873L14319.3452,-4291.4738L14319.3443,-4291.4445L14319.3574,-4291.3834L14319.3588,-4291.3714L14319.3608,-4291.3537L14319.3665,-4291.3127L14319.3728,-4291.2667L14319.3737,-4291.2598"/>
<path content="1,北海道拓殖バス（株）,療養所線,1.0,0.0,0.0," xlink:title="1" d="M14319.5801,-4292.9095L14319.4795,-4292.903L14319.3234,-4292.8918L14319.275,-4292.8879L14319.1634,-4292.88L14319.1411,-4292.8784L14319.0195,-4292.8698L14318.8526,-4292.8575L14318.8089,-4292.8549L14318.736,-4292.85L14318.7216,-4292.8487L14318.6947,-4292.8457L14318.5943,-4292.8389L14318.5357,-4292.8344L14318.5296,-4292.8929L14318.5269,-4292.9216L14318.5221,-4292.9521L14318.5199,-4292.9691L14318.4679,-4292.9997L14318.3738,-4293.0599L14318.3601,-4293.0593L14318.261,-4293.0481L14318.1861,-4293.046L14318.1752,-4293.0448L14318.1644,-4293.0443L14318.1047,-4293.0397L14318.0961,-4293.0389L14318.0878,-4293.0384L14318.075,-4293.0373L14318.0409,-4293.0347L14318.031,-4293.034L14318.0235,-4293.0338L14318.0188,-4293.0332L14317.9973,-4293.0315L14317.9722,-4293.0272L14317.9426,-4293.0274L14317.9334,-4293.0259L14317.9258,-4293.0253L14317.9077,-4293.0247L14317.8215,-4293.018L14317.7076,-4293.0097L14317.6961,-4293.0099L14317.693,-4293.0363L14317.68,-4293.1303L14317.6669,-4293.2293L14317.6661,-4293.2487L14317.6645,-4293.2594L14317.6637,-4293.2647L14317.654,-4293.3165L14317.6524,-4293.3418L14317.6473,-4293.3822L14317.6471,-4293.3863L14317.6447,-4293.3998L14317.6417,-4293.4279L14317.638,-4293.457"/>
<path content="1,北海道拓殖バス（株）,白樺学園線16,3.0,3.5,3.5," xlink:title="1" d="M14319.3737,-4291.2598L14319.3728,-4291.2667L14319.3665,-4291.3127L14319.3608,-4291.3537L14319.3588,-4291.3714L14319.3574,-4291.3834L14319.3443,-4291.4445L14319.3452,-4291.4738L14319.3435,-4291.4873L14319.3416,-4291.5034L14319.3357,-4291.5438L14319.3296,-4291.586L14319.3271,-4291.6026L14319.3241,-4291.6235L14319.3197,-4291.6513L14319.3181,-4291.6604L14319.3145,-4291.6717L14319.3121,-4291.7086L14319.3103,-4291.7214L14319.3071,-4291.7313L14319.3022,-4291.768L14319.3011,-4291.7771L14319.2996,-4291.7901L14319.2936,-4291.8266L14319.2927,-4291.8377L14319.2915,-4291.8516L14319.2876,-4291.8841L14319.287,-4291.8912L14319.2863,-4291.8998L14319.2848,-4291.9191L14319.2827,-4291.9449L14319.2812,-4291.9533L14319.2806,-4291.9567L14319.2761,-4291.9971L14319.2748,-4292.008L14319.2741,-4292.0127L14319.2686,-4292.0508L14319.2665,-4292.0661L14319.2642,-4292.0781L14319.2615,-4292.1094L14319.2614,-4292.1159L14319.2651,-4292.1645L14319.294,-4292.2352L14319.3064,-4292.3034L14319.3991,-4292.3116L14319.4055,-4292.3121L14319.4102,-4292.3124L14319.4359,-4292.3158L14319.5619,-4292.32L14319.5801,-4292.3214"/>
<path content="1,北海道拓殖バス（株）,運転免許試験場線,5.0,0.0,0.0," xlink:title="1" d="M14319.5801,-4292.9095L14319.4795,-4292.903L14319.3234,-4292.8918L14319.275,-4292.8879L14319.1634,-4292.88L14319.1411,-4292.8784L14319.0195,-4292.8698L14318.8526,-4292.8575L14318.8089,-4292.8549L14318.736,-4292.85L14318.7216,-4292.8487L14318.6947,-4292.8457L14318.5943,-4292.8389L14318.5357,-4292.8344L14318.5296,-4292.8929L14318.5269,-4292.9216L14318.5221,-4292.9521L14318.5199,-4292.9691L14318.4679,-4292.9997L14318.3738,-4293.0599L14318.3601,-4293.0593L14318.261,-4293.0481L14318.1861,-4293.046L14318.1752,-4293.0448L14318.1644,-4293.0443L14318.1047,-4293.0397L14318.0961,-4293.0389L14318.0878,-4293.0384L14318.075,-4293.0373L14318.0409,-4293.0347L14318.031,-4293.034L14318.0235,-4293.0338L14318.0188,-4293.0332L14317.9973,-4293.0315L14317.9722,-4293.0272L14317.9426,-4293.0274L14317.9334,-4293.0259L14317.9258,-4293.0253L14317.9077,-4293.0247L14317.8215,-4293.018L14317.7076,-4293.0097L14317.6961,-4293.0099L14317.6241,-4293.0045L14317.5201,-4292.9967L14317.5009,-4292.9946L14317.4865,-4292.9937L14317.4136,-4292.9882L14317.3828,-4292.9862"/>
<path content="1,北都交通（株）,帯広～新千歳空港　とかちミルキーライナー,3.0,3.0,3.0," xlink:title="1" d="M14319.5801,-4293.1448L14319.5711,-4293.1441L14319.5463,-4293.1428L14319.4639,-4293.1376L14319.4512,-4293.1365L14319.4433,-4293.1361L14319.3058,-4293.1261L14319.293,-4293.1252L14319.2821,-4293.1244L14319.2317,-4293.1175L14319.2146,-4293.1203L14319.1471,-4293.1155L14319.1373,-4293.1151L14319.1278,-4293.1142L14319.0816,-4293.1108L14319.0185,-4293.1066L14319.0018,-4293.1053L14318.9755,-4293.1035L14318.9557,-4293.1022L14318.9264,-4293.0965L14318.8833,-4293.097L14318.8301,-4293.0933L14318.8197,-4293.0926L14318.8086,-4293.092L14318.7707,-4293.0886L14318.6793,-4293.0823L14318.6674,-4293.0819L14318.6587,-4293.0808L14318.6107,-4293.0747L14318.5943,-4293.0762L14318.5816,-4293.0757L14318.576,-4293.0747L14318.525,-4293.071L14318.5074,-4293.0701L14318.4947,-4293.0688L14318.4029,-4293.0621L14318.3738,-4293.0599L14318.3601,-4293.0593L14318.261,-4293.0481L14318.1861,-4293.046L14318.1752,-4293.0448L14318.1644,-4293.0443L14318.1047,-4293.0397L14318.0961,-4293.0389L14318.0878,-4293.0384L14318.075,-4293.0373L14318.0409,-4293.0347L14318.031,-4293.034L14318.0235,-4293.0338L14318.0188,-4293.0332L14317.9973,-4293.0315L14317.9722,-4293.0272L14317.9426,-4293.0274L14317.9334,-4293.0259L14317.9258,-4293.0253L14317.9077,-4293.0247L14317.8215,-4293.018L14317.7076,-4293.0097L14317.6961,-4293.0099L14317.6241,-4293.0045L14317.5201,-4292.9967L14317.5009,-4292.9946L14317.4865,-4292.9937L14317.4136,-4292.9882L14317.3828,-4292.9862"/>
<path content="1,十勝バス（株）,すずらん号,2.0,2.0,2.0," xlink:title="1" d="M14317.3828,-4291.9865L14317.4185,-4291.9889L14317.4734,-4291.9929L14317.5125,-4291.9952L14317.5377,-4291.9973L14317.5688,-4291.9996L14317.6701,-4292.0064L14317.6987,-4292.0086L14317.7273,-4292.0073L14317.7614,-4292.0127L14317.8049,-4292.0155L14317.8336,-4292.0176L14317.8648,-4292.0199L14317.9549,-4292.0264L14317.9888,-4292.0291L14317.9987,-4292.0298L14318.0362,-4292.03L14318.1015,-4292.0369L14318.1093,-4292.0377L14318.1369,-4292.0397L14318.2978,-4292.0507L14318.3169,-4292.0525L14318.3373,-4292.0544L14318.3878,-4292.0603L14318.4077,-4292.0585L14318.4661,-4292.0632L14318.4832,-4292.0645L14318.5481,-4292.0663L14318.5804,-4292.0696L14318.5921,-4292.0702L14318.6103,-4292.0718L14318.6457,-4292.0739L14318.6577,-4292.0741L14318.6689,-4292.0739L14318.6834,-4292.0715L14318.7052,-4292.0655L14318.727,-4292.0573L14318.7362,-4292.0541L14318.7435,-4292.0516L14318.7622,-4292.0455L14318.7773,-4292.0411L14318.7815,-4292.0401L14318.7869,-4292.0392L14318.7905,-4292.0386L14318.8018,-4292.0366L14318.8112,-4292.0346L14318.8198,-4292.0331L14318.8268,-4292.0331L14318.9288,-4292.0406L14318.9443,-4292.0419L14318.9613,-4292.0438L14319.0367,-4292.0432L14319.0893,-4292.0531L14319.1006,-4292.054L14319.1124,-4292.0551L14319.2116,-4292.0624L14319.2366,-4292.0643L14319.2665,-4292.0661L14319.2642,-4292.0781L14319.2615,-4292.1094L14319.2614,-4292.1159L14319.2651,-4292.1645L14319.294,-4292.2352L14319.3064,-4292.3034L14319.3991,-4292.3116L14319.4055,-4292.3121L14319.4102,-4292.3124L14319.4359,-4292.3158L14319.5619,-4292.32L14319.5801,-4292.3214"/>
<path content="1,十勝バス（株）,とかち帯広空港連絡バス,4.0,4.0,4.0," xlink:title="1" d="M14319.5801,-4292.3214L14319.5619,-4292.32L14319.4359,-4292.3158L14319.4102,-4292.3124L14319.4055,-4292.3121L14319.3991,-4292.3116L14319.3064,-4292.3034L14319.294,-4292.2352L14319.2651,-4292.1645L14319.2614,-4292.1159L14319.2615,-4292.1094L14319.2642,-4292.0781L14319.2665,-4292.0661L14319.2366,-4292.0643L14319.2116,-4292.0624L14319.1124,-4292.0551L14319.1006,-4292.054L14319.0893,-4292.0531L14319.0367,-4292.0432L14318.9613,-4292.0438L14318.9443,-4292.0419L14318.9288,-4292.0406L14318.8268,-4292.0331L14318.8198,-4292.0331L14318.8112,-4292.0346L14318.8018,-4292.0366L14318.7905,-4292.0386L14318.7869,-4292.0392L14318.7815,-4292.0401L14318.7773,-4292.0411L14318.7622,-4292.0455L14318.7435,-4292.0516L14318.7362,-4292.0541L14318.727,-4292.0573L14318.7052,-4292.0655L14318.6834,-4292.0715L14318.6689,-4292.0739L14318.6577,-4292.0741L14318.6457,-4292.0739L14318.6103,-4292.0718L14318.5921,-4292.0702L14318.5804,-4292.0696L14318.5481,-4292.0663L14318.4832,-4292.0645L14318.4661,-4292.0632L14318.4077,-4292.0585L14318.3878,-4292.0603L14318.3373,-4292.0544L14318.3169,-4292.0525L14318.2978,-4292.0507L14318.1369,-4292.0397L14318.1093,-4292.0377L14318.1015,-4292.0369L14318.0362,-4292.03L14317.9987,-4292.0298L14317.9888,-4292.0291L14317.9549,-4292.0264L14317.8648,-4292.0199L14317.8336,-4292.0176L14317.8049,-4292.0155L14317.7614,-4292.0127L14317.7273,-4292.0073L14317.6987,-4292.0086L14317.6701,-4292.0064L14317.5688,-4291.9996L14317.5377,-4291.9973L14317.5125,-4291.9952L14317.4734,-4291.9929L14317.4185,-4291.9889L14317.3828,-4291.9865"/>
<path content="1,十勝バス（株）,上士幌線　49,4.0,2.0,2.0," xlink:title="1" d="M14317.3828,-4291.4768L14317.416,-4291.4785L14317.4711,-4291.4808L14317.5444,-4291.4853L14317.5785,-4291.4884L14317.6087,-4291.4875L14317.6821,-4291.492L14317.7547,-4291.4954L14317.8349,-4291.4993L14317.8969,-4291.5033L14317.9808,-4291.5081L14318.02,-4291.5122L14318.0345,-4291.5136L14318.0911,-4291.5164L14318.2124,-4291.5253L14318.2873,-4291.5298L14318.3257,-4291.5337L14318.4266,-4291.5404L14318.5298,-4291.5477L14318.6006,-4291.5519L14318.6904,-4291.5585L14318.8493,-4291.5691L14318.9209,-4291.5747L14319.0046,-4291.5804L14319.162,-4291.5917L14319.2834,-4291.6007L14319.3271,-4291.6026L14319.4143,-4291.6108L14319.4409,-4291.6121L14319.4953,-4291.617L14319.5687,-4291.6226L14319.5801,-4291.6234"/>
<path content="1,十勝バス（株）,上士幌線　49,4.0,2.0,2.0," xlink:title="1" d="M14319.5801,-4292.3214L14319.5619,-4292.32"/>
<path content="1,十勝バス（株）,十勝川温泉線　45,8.5,6.5,6.5," xlink:title="1" d="M14319.5801,-4291.6234L14319.5687,-4291.6226L14319.4953,-4291.617L14319.4409,-4291.6121L14319.4143,-4291.6108L14319.3271,-4291.6026L14319.2834,-4291.6007L14319.162,-4291.5917L14319.0046,-4291.5804L14318.9209,-4291.5747L14318.8493,-4291.5691L14318.6904,-4291.5585L14318.6006,-4291.5519L14318.5298,-4291.5477L14318.4266,-4291.5404L14318.3257,-4291.5337L14318.2873,-4291.5298L14318.2124,-4291.5253L14318.0911,-4291.5164L14318.0345,-4291.5136L14318.02,-4291.5122L14317.9808,-4291.5081L14317.8969,-4291.5033L14317.8349,-4291.4993L14317.7547,-4291.4954L14317.6821,-4291.492L14317.6087,-4291.4875L14317.5785,-4291.4884L14317.5444,-4291.4853L14317.4711,-4291.4808L14317.416,-4291.4785L14317.3828,-4291.4768"/>
<path content="1,十勝バス（株）,十勝川温泉線　45,8.5,6.5,6.5," xlink:title="1" d="M14319.5801,-4292.3214L14319.5619,-4292.32"/>
<path content="1,十勝バス（株）,南商・あかしや線　21,10.5,7.5,7.5," xlink:title="1" d="M14319.5801,-4292.3214L14319.5619,-4292.32"/>
<path content="1,十勝バス（株）,南商線　3,13.0,5.5,5.5," xlink:title="1" d="M14319.5801,-4292.3214L14319.5619,-4292.32"/>
<path content="1,十勝バス（株）,南商＋柏葉高総合振興局線,4.0,0.0,0.0," xlink:title="1" d="M14319.5801,-4292.3214L14319.5619,-4292.32"/>
<path content="1,十勝バス（株）,大正小学校線,0.4,0.4,0.4," xlink:title="1" d="M14319.5801,-4292.3214L14319.5619,-4292.32"/>
<path content="1,十勝バス（株）,大正小学校線　61,0.4,0.4,0.4," xlink:title="1" d="M14319.5619,-4292.32L14319.5801,-4292.3214"/>
<path content="1,十勝バス（株）,大正小学校線　61,0.4,0.4,0.4," xlink:title="1" d="M14317.3828,-4292.9862L14317.4136,-4292.9882L14317.4865,-4292.9937L14317.5009,-4292.9946L14317.5201,-4292.9967L14317.6241,-4293.0045L14317.6961,-4293.0099L14317.7076,-4293.0097L14317.8215,-4293.018L14317.9077,-4293.0247L14317.9258,-4293.0253L14317.9334,-4293.0259L14317.9426,-4293.0274L14317.9722,-4293.0272L14317.9973,-4293.0315L14318.0188,-4293.0332L14318.0235,-4293.0338L14318.031,-4293.034L14318.0409,-4293.0347L14318.075,-4293.0373L14318.0878,-4293.0384L14318.0961,-4293.0389L14318.1047,-4293.0397L14318.1644,-4293.0443L14318.1752,-4293.0448L14318.1861,-4293.046L14318.261,-4293.0481L14318.3601,-4293.0593L14318.3738,-4293.0599L14318.4029,-4293.0621L14318.4947,-4293.0688L14318.5074,-4293.0701L14318.525,-4293.071L14318.576,-4293.0747L14318.5816,-4293.0757L14318.5943,-4293.0762L14318.6107,-4293.0747L14318.6587,-4293.0808L14318.6674,-4293.0819L14318.6793,-4293.0823L14318.7707,-4293.0886L14318.8086,-4293.092L14318.8197,-4293.0926L14318.8301,-4293.0933L14318.8833,-4293.097L14318.9264,-4293.0965L14318.9557,-4293.1022L14318.9755,-4293.1035L14319.0018,-4293.1053L14319.0185,-4293.1066L14319.0816,-4293.1108L14319.1278,-4293.1142L14319.1373,-4293.1151L14319.1471,-4293.1155L14319.2146,-4293.1203L14319.2317,-4293.1175L14319.2821,-4293.1244L14319.293,-4293.1252L14319.3058,-4293.1261L14319.4433,-4293.1361L14319.4512,-4293.1365L14319.4639,-4293.1376L14319.5463,-4293.1428L14319.5711,-4293.1441L14319.5801,-4293.1448"/>
<path content="1,十勝バス（株）,大空-柏葉高校,0.8,0.8,0.8," xlink:title="1" d="M14319.5619,-4292.32L14319.5801,-4292.3214"/>
<path content="1,十勝バス（株）,大空団地線　70,30.5,27.5,27.5," xlink:title="1" d="M14319.5801,-4293.1448L14319.5711,-4293.1441L14319.5463,-4293.1428L14319.4639,-4293.1376L14319.4512,-4293.1365L14319.4433,-4293.1361L14319.3058,-4293.1261L14319.293,-4293.1252L14319.2821,-4293.1244L14319.2317,-4293.1175L14319.2146,-4293.1203L14319.1471,-4293.1155L14319.1373,-4293.1151L14319.1278,-4293.1142L14319.0816,-4293.1108L14319.0185,-4293.1066L14319.0018,-4293.1053L14318.9755,-4293.1035L14318.9557,-4293.1022L14318.9264,-4293.0965L14318.8833,-4293.097L14318.8301,-4293.0933L14318.8197,-4293.0926L14318.8086,-4293.092L14318.7707,-4293.0886L14318.6793,-4293.0823L14318.6674,-4293.0819L14318.6587,-4293.0808L14318.6107,-4293.0747L14318.5943,-4293.0762L14318.5816,-4293.0757L14318.576,-4293.0747L14318.525,-4293.071L14318.5074,-4293.0701L14318.4947,-4293.0688L14318.4029,-4293.0621L14318.3738,-4293.0599L14318.3601,-4293.0593L14318.261,-4293.0481L14318.1861,-4293.046L14318.1752,-4293.0448L14318.1644,-4293.0443L14318.1047,-4293.0397L14318.0961,-4293.0389L14318.0878,-4293.0384L14318.075,-4293.0373L14318.0409,-4293.0347L14318.031,-4293.034L14318.0235,-4293.0338L14318.0188,-4293.0332L14317.9973,-4293.0315L14317.9722,-4293.0272L14317.9426,-4293.0274L14317.9334,-4293.0259L14317.9258,-4293.0253L14317.9077,-4293.0247L14317.8215,-4293.018L14317.7076,-4293.0097L14317.6961,-4293.0099L14317.6241,-4293.0045L14317.5201,-4292.9967L14317.5009,-4292.9946L14317.4865,-4292.9937L14317.4136,-4292.9882L14317.3828,-4292.9862"/>
<path content="1,十勝バス（株）,大空団地線　70,30.5,27.5,27.5," xlink:title="1" d="M14319.5619,-4292.32L14319.5801,-4292.3214"/>
<path content="1,十勝バス（株）,帯広陸別線　17,9.0,7.0,7.0," xlink:title="1" d="M14317.3828,-4291.9865L14317.4185,-4291.9889L14317.4734,-4291.9929L14317.5125,-4291.9952L14317.5377,-4291.9973L14317.5688,-4291.9996L14317.6701,-4292.0064L14317.6987,-4292.0086L14317.7273,-4292.0073L14317.7614,-4292.0127L14317.8049,-4292.0155L14317.8336,-4292.0176L14317.8648,-4292.0199L14317.9549,-4292.0264L14317.9888,-4292.0291L14317.9987,-4292.0298L14318.0362,-4292.03L14318.1015,-4292.0369L14318.1093,-4292.0377L14318.1369,-4292.0397L14318.2978,-4292.0507L14318.3169,-4292.0525L14318.3373,-4292.0544L14318.3878,-4292.0603L14318.4077,-4292.0585L14318.4661,-4292.0632L14318.4832,-4292.0645L14318.5481,-4292.0663L14318.5804,-4292.0696L14318.5921,-4292.0702L14318.6103,-4292.0718L14318.6457,-4292.0739L14318.6577,-4292.0741L14318.6689,-4292.0739L14318.6834,-4292.0715L14318.7052,-4292.0655L14318.727,-4292.0573L14318.7362,-4292.0541L14318.7435,-4292.0516L14318.7622,-4292.0455L14318.7773,-4292.0411L14318.7815,-4292.0401L14318.7869,-4292.0392L14318.7905,-4292.0386L14318.8018,-4292.0366L14318.8112,-4292.0346L14318.8198,-4292.0331L14318.8268,-4292.0331L14318.9288,-4292.0406L14318.9443,-4292.0419L14318.9613,-4292.0438L14319.0367,-4292.0432L14319.0893,-4292.0531L14319.1006,-4292.054L14319.1124,-4292.0551L14319.2116,-4292.0624L14319.2366,-4292.0643L14319.2665,-4292.0661L14319.2642,-4292.0781L14319.2615,-4292.1094L14319.2614,-4292.1159L14319.2651,-4292.1645L14319.294,-4292.2352L14319.3064,-4292.3034L14319.3991,-4292.3116L14319.4055,-4292.3121L14319.4102,-4292.3124L14319.4359,-4292.3158L14319.5619,-4292.32L14319.5801,-4292.3214"/>
<path content="1,十勝バス（株）,幕別線　10,3.0,0.0,0.0," xlink:title="1" d="M14317.3828,-4291.9865L14317.4185,-4291.9889L14317.4734,-4291.9929L14317.5125,-4291.9952L14317.5377,-4291.9973L14317.5688,-4291.9996L14317.6701,-4292.0064L14317.6987,-4292.0086L14317.7273,-4292.0073L14317.7614,-4292.0127L14317.8049,-4292.0155L14317.8336,-4292.0176L14317.8648,-4292.0199L14317.9549,-4292.0264L14317.9888,-4292.0291L14317.9987,-4292.0298L14318.0362,-4292.03L14318.1015,-4292.0369L14318.1093,-4292.0377L14318.1369,-4292.0397L14318.2978,-4292.0507L14318.3169,-4292.0525L14318.3373,-4292.0544L14318.3878,-4292.0603L14318.4077,-4292.0585L14318.4661,-4292.0632L14318.4832,-4292.0645L14318.5481,-4292.0663L14318.5804,-4292.0696L14318.5921,-4292.0702L14318.6103,-4292.0718L14318.6457,-4292.0739L14318.6577,-4292.0741L14318.6689,-4292.0739L14318.6834,-4292.0715L14318.7052,-4292.0655L14318.727,-4292.0573L14318.7362,-4292.0541L14318.7435,-4292.0516L14318.7622,-4292.0455L14318.7773,-4292.0411L14318.7815,-4292.0401L14318.7869,-4292.0392L14318.7905,-4292.0386L14318.8018,-4292.0366L14318.8112,-4292.0346L14318.8198,-4292.0331L14318.8268,-4292.0331L14318.9288,-4292.0406L14318.9443,-4292.0419L14318.9613,-4292.0438L14319.0367,-4292.0432L14319.0893,-4292.0531L14319.1006,-4292.054L14319.1124,-4292.0551L14319.2116,-4292.0624L14319.2366,-4292.0643L14319.2665,-4292.0661L14319.2642,-4292.0781L14319.2615,-4292.1094L14319.2614,-4292.1159L14319.2651,-4292.1645L14319.294,-4292.2352L14319.3064,-4292.3034L14319.3991,-4292.3116L14319.4055,-4292.3121L14319.4102,-4292.3124L14319.4359,-4292.3158L14319.5619,-4292.32L14319.5801,-4292.3214"/>
<path content="1,十勝バス（株）,広尾線　60,14.0,10.0,10.0," xlink:title="1" d="M14319.5801,-4292.1002L14319.5799,-4292.1003L14319.5078,-4292.1358L14319.294,-4292.2352L14319.3064,-4292.3034L14319.3991,-4292.3116L14319.4055,-4292.3121L14319.4102,-4292.3124L14319.4359,-4292.3158L14319.5619,-4292.32L14319.5801,-4292.3214"/>
<path content="1,十勝バス（株）,新町線　36,18.0,12.5,12.5," xlink:title="1" d="M14319.5801,-4292.3214L14319.5619,-4292.32L14319.4359,-4292.3158L14319.4102,-4292.3124L14319.4055,-4292.3121L14319.3991,-4292.3116L14319.3064,-4292.3034L14319.3234,-4292.363L14319.3367,-4292.4114L14319.341,-4292.4248L14319.344,-4292.4367L14319.3693,-4292.5301L14319.3693,-4292.5413L14319.2889,-4292.5374L14319.1642,-4292.5277L14318.9083,-4292.5083L14318.8322,-4292.5059L14318.7228,-4292.4993L14318.7124,-4292.4989L14318.6755,-4292.4956L14318.6107,-4292.4906L14318.5919,-4292.4904L14318.4718,-4292.4798L14318.3886,-4292.4768L14318.3523,-4292.4707L14318.2005,-4292.458L14318.1423,-4292.4524L14318.0749,-4292.4361L14318.0374,-4292.4316L14317.9511,-4292.4208L14317.8652,-4292.4124L14317.8553,-4292.4096L14317.8162,-4292.391L14317.8047,-4292.3871L14317.7894,-4292.3837L14317.7803,-4292.3809L14317.6984,-4292.3927L14317.5773,-4292.4103L14317.5146,-4292.418L14317.3828,-4292.4365"/>
<path content="1,十勝バス（株）,新緑通線　40,1.0,0.0,0.0," xlink:title="1" d="M14317.3828,-4291.4768L14317.416,-4291.4785L14317.4711,-4291.4808L14317.5444,-4291.4853L14317.5785,-4291.4884L14317.6087,-4291.4875L14317.6821,-4291.492L14317.7547,-4291.4954L14317.8349,-4291.4993L14317.8969,-4291.5033L14317.9808,-4291.5081L14318.02,-4291.5122L14318.0345,-4291.5136L14318.0911,-4291.5164L14318.2124,-4291.5253L14318.2873,-4291.5298L14318.3257,-4291.5337L14318.4266,-4291.5404L14318.5298,-4291.5477L14318.6006,-4291.5519L14318.6904,-4291.5585L14318.8493,-4291.5691L14318.9209,-4291.5747L14319.0046,-4291.5804L14319.162,-4291.5917L14319.2834,-4291.6007L14319.3271,-4291.6026L14319.4143,-4291.6108L14319.4409,-4291.6121L14319.4953,-4291.617L14319.5687,-4291.6226L14319.5801,-4291.6234"/>
<path content="1,十勝バス（株）,新緑通線　40,1.0,0.0,0.0," xlink:title="1" d="M14319.5801,-4292.3214L14319.5619,-4292.32"/>
<path content="1,十勝バス（株）,東8条線　6,9.0,7.0,7.0," xlink:title="1" d="M14319.5801,-4292.0843L14319.5738,-4292.0843L14319.5621,-4292.0841L14319.4363,-4292.0764L14319.3643,-4292.0718L14319.3531,-4292.0709L14319.3459,-4292.0703L14319.2897,-4292.0667L14319.2665,-4292.0661L14319.2642,-4292.0781L14319.2615,-4292.1094L14319.2614,-4292.1159L14319.2651,-4292.1645L14319.294,-4292.2352L14319.3064,-4292.3034L14319.3991,-4292.3116L14319.4055,-4292.3121L14319.4102,-4292.3124L14319.4359,-4292.3158L14319.5619,-4292.32L14319.5801,-4292.3214"/>
<path content="1,十勝バス（株）,東西循環線　1,26.5,21.0,21.0," xlink:title="1" d="M14319.5801,-4292.3214L14319.5619,-4292.32L14319.4359,-4292.3158L14319.4102,-4292.3124L14319.4055,-4292.3121L14319.3991,-4292.3116L14319.3064,-4292.3034L14319.294,-4292.2352L14319.2651,-4292.1645L14319.2614,-4292.1159L14319.2615,-4292.1094L14319.2642,-4292.0781L14319.2665,-4292.0661L14319.2366,-4292.0643L14319.2116,-4292.0624L14319.1124,-4292.0551L14319.1006,-4292.054L14319.0893,-4292.0531L14319.0367,-4292.0432L14318.9613,-4292.0438L14318.9443,-4292.0419L14318.9288,-4292.0406L14318.8268,-4292.0331L14318.8198,-4292.0331L14318.8112,-4292.0346L14318.8018,-4292.0366L14318.7905,-4292.0386L14318.7869,-4292.0392L14318.7815,-4292.0401L14318.7773,-4292.0411L14318.7622,-4292.0455L14318.7435,-4292.0516L14318.7362,-4292.0541L14318.727,-4292.0573L14318.7052,-4292.0655L14318.6834,-4292.0715L14318.6689,-4292.0739L14318.6577,-4292.0741L14318.6457,-4292.0739L14318.6103,-4292.0718L14318.5921,-4292.0702L14318.5804,-4292.0696L14318.5481,-4292.0663L14318.4832,-4292.0645L14318.4661,-4292.0632L14318.4077,-4292.0585L14318.3878,-4292.0603L14318.3373,-4292.0544L14318.3169,-4292.0525L14318.2978,-4292.0507L14318.1369,-4292.0397L14318.1093,-4292.0377L14318.1015,-4292.0369L14318.0362,-4292.03L14317.9987,-4292.0298L14317.9888,-4292.0291L14317.9549,-4292.0264L14317.8648,-4292.0199L14317.8336,-4292.0176L14317.8049,-4292.0155L14317.7614,-4292.0127L14317.7273,-4292.0073L14317.6987,-4292.0086L14317.6701,-4292.0064L14317.5688,-4291.9996L14317.5377,-4291.9973L14317.5125,-4291.9952L14317.4734,-4291.9929L14317.4185,-4291.9889L14317.3828,-4291.9865"/>
<path content="1,十勝バス（株）,水光線　7,1.2,0.0,0.0," xlink:title="1" d="M14319.5801,-4292.3214L14319.5619,-4292.32L14319.4359,-4292.3158"/>
<path content="1,十勝バス（株）,環状線きた・みなみ廻り,7.0,0.0,0.0," xlink:title="1" d="M14319.5801,-4293.1448L14319.5711,-4293.1441L14319.5463,-4293.1428L14319.4639,-4293.1376L14319.4512,-4293.1365L14319.4433,-4293.1361L14319.3058,-4293.1261L14319.293,-4293.1252L14319.2821,-4293.1244L14319.2317,-4293.1175L14319.2146,-4293.1203L14319.1471,-4293.1155L14319.1373,-4293.1151L14319.1278,-4293.1142L14319.0816,-4293.1108L14319.0185,-4293.1066L14319.0018,-4293.1053L14318.9755,-4293.1035L14318.9557,-4293.1022L14318.9264,-4293.0965L14318.8833,-4293.097L14318.8301,-4293.0933L14318.8197,-4293.0926L14318.8086,-4293.092L14318.7707,-4293.0886L14318.6793,-4293.0823L14318.6674,-4293.0819L14318.6587,-4293.0808L14318.6107,-4293.0747L14318.5943,-4293.0762L14318.5816,-4293.0757L14318.576,-4293.0747L14318.525,-4293.071L14318.5074,-4293.0701L14318.4947,-4293.0688L14318.4029,-4293.0621L14318.3738,-4293.0599L14318.3601,-4293.0593L14318.261,-4293.0481L14318.1861,-4293.046L14318.1752,-4293.0448L14318.1644,-4293.0443L14318.1047,-4293.0397L14318.0961,-4293.0389L14318.0878,-4293.0384L14318.075,-4293.0373L14318.0409,-4293.0347L14318.031,-4293.034L14318.0235,-4293.0338L14318.0188,-4293.0332L14317.9973,-4293.0315L14317.9722,-4293.0272L14317.9426,-4293.0274L14317.9334,-4293.0259L14317.9258,-4293.0253L14317.9077,-4293.0247L14317.8215,-4293.018L14317.7076,-4293.0097L14317.6961,-4293.0099L14317.6241,-4293.0045L14317.5201,-4292.9967L14317.5009,-4292.9946L14317.4865,-4292.9937L14317.4136,-4292.9882L14317.3828,-4292.9862"/>
<path content="1,十勝バス（株）,環状線きた・みなみ廻り,7.0,0.0,0.0," xlink:title="1" d="M14319.5801,-4292.3214L14319.5619,-4292.32"/>
<path content="1,十勝バス（株）,畜大線　79,2.5,0.0,0.0," xlink:title="1" d="M14319.5801,-4292.3214L14319.5619,-4292.32"/>
<path content="1,十勝バス（株）,糖平線　51,4.0,4.0,4.0," xlink:title="1" d="M14319.5801,-4291.6234L14319.5687,-4291.6226L14319.4953,-4291.617L14319.4409,-4291.6121L14319.4143,-4291.6108L14319.3271,-4291.6026L14319.2834,-4291.6007L14319.162,-4291.5917L14319.0046,-4291.5804L14318.9209,-4291.5747L14318.8493,-4291.5691L14318.6904,-4291.5585L14318.6006,-4291.5519L14318.5298,-4291.5477L14318.4266,-4291.5404L14318.3257,-4291.5337L14318.2873,-4291.5298L14318.2124,-4291.5253L14318.0911,-4291.5164L14318.0345,-4291.5136L14318.02,-4291.5122L14317.9808,-4291.5081L14317.8969,-4291.5033L14317.8349,-4291.4993L14317.7547,-4291.4954L14317.6821,-4291.492L14317.6087,-4291.4875L14317.5785,-4291.4884L14317.5444,-4291.4853L14317.4711,-4291.4808L14317.416,-4291.4785L14317.3828,-4291.4768"/>
<path content="1,十勝バス（株）,糖平線　51,4.0,4.0,4.0," xlink:title="1" d="M14319.5801,-4292.3214L14319.5619,-4292.32"/>
<path content="1,十勝バス（株）,自衛隊・稲田線　73,9.5,8.0,8.0," xlink:title="1" d="M14319.5801,-4292.3214L14319.5619,-4292.32"/>
<path content="1,十勝バス（株）,芽室線,7.5,4.0,4.0," xlink:title="1" d="M14319.5801,-4292.3214L14319.5619,-4292.32L14319.4359,-4292.3158L14319.4102,-4292.3124L14319.4055,-4292.3121L14319.3991,-4292.3116L14319.3064,-4292.3034L14319.294,-4292.2352L14319.2651,-4292.1645L14319.2614,-4292.1159L14319.2615,-4292.1094L14319.2642,-4292.0781L14319.2665,-4292.0661L14319.2366,-4292.0643L14319.2116,-4292.0624L14319.1124,-4292.0551L14319.1006,-4292.054L14319.0893,-4292.0531L14319.0367,-4292.0432L14318.9613,-4292.0438L14318.9443,-4292.0419L14318.9288,-4292.0406L14318.8268,-4292.0331L14318.8198,-4292.0331L14318.8112,-4292.0346L14318.8018,-4292.0366L14318.7905,-4292.0386L14318.7869,-4292.0392L14318.7815,-4292.0401L14318.7773,-4292.0411L14318.7622,-4292.0455L14318.7435,-4292.0516L14318.7362,-4292.0541L14318.727,-4292.0573L14318.7052,-4292.0655L14318.6834,-4292.0715L14318.6689,-4292.0739L14318.6577,-4292.0741L14318.6457,-4292.0739L14318.6103,-4292.0718L14318.5921,-4292.0702L14318.5804,-4292.0696L14318.5481,-4292.0663L14318.4832,-4292.0645L14318.4661,-4292.0632L14318.4077,-4292.0585L14318.3878,-4292.0603L14318.3373,-4292.0544L14318.3169,-4292.0525L14318.2978,-4292.0507L14318.1369,-4292.0397L14318.1093,-4292.0377L14318.1015,-4292.0369L14318.0362,-4292.03L14317.9987,-4292.0298L14317.9888,-4292.0291L14317.9549,-4292.0264L14317.8648,-4292.0199L14317.8336,-4292.0176L14317.8049,-4292.0155L14317.7614,-4292.0127L14317.7273,-4292.0073L14317.6987,-4292.0086L14317.6701,-4292.0064L14317.5688,-4291.9996L14317.5377,-4291.9973L14317.5125,-4291.9952L14317.4734,-4291.9929L14317.4185,-4291.9889L14317.3828,-4291.9865"/>
<path content="1,十勝バス（株）,都市間バスノースライナー（狩勝峠経由）,3.0,3.0,3.0," xlink:title="1" d="M14319.5801,-4292.0843L14319.5738,-4292.0843L14319.5621,-4292.0841L14319.4363,-4292.0764L14319.3643,-4292.0718L14319.3531,-4292.0709L14319.3459,-4292.0703L14319.2897,-4292.0667L14319.2665,-4292.0661L14319.2366,-4292.0643L14319.2116,-4292.0624L14319.1124,-4292.0551L14319.1006,-4292.054L14319.0893,-4292.0531L14319.0367,-4292.0432L14318.9613,-4292.0438L14318.9443,-4292.0419L14318.9288,-4292.0406L14318.8268,-4292.0331L14318.8198,-4292.0331L14318.8112,-4292.0346L14318.8018,-4292.0366L14318.7905,-4292.0386L14318.7869,-4292.0392L14318.7815,-4292.0401L14318.7773,-4292.0411L14318.7622,-4292.0455L14318.7435,-4292.0516L14318.7362,-4292.0541L14318.727,-4292.0573L14318.7052,-4292.0655L14318.6834,-4292.0715L14318.6689,-4292.0739L14318.6577,-4292.0741L14318.6457,-4292.0739L14318.6103,-4292.0718L14318.5921,-4292.0702L14318.5804,-4292.0696L14318.5481,-4292.0663L14318.4832,-4292.0645L14318.4661,-4292.0632L14318.4077,-4292.0585L14318.3878,-4292.0603L14318.3373,-4292.0544L14318.3169,-4292.0525L14318.2978,-4292.0507L14318.1369,-4292.0397L14318.1093,-4292.0377L14318.1015,-4292.0369L14318.0362,-4292.03L14317.9987,-4292.0298L14317.9888,-4292.0291L14317.9549,-4292.0264L14317.8648,-4292.0199L14317.8336,-4292.0176L14317.8049,-4292.0155L14317.7614,-4292.0127L14317.7273,-4292.0073L14317.6987,-4292.0086L14317.6701,-4292.0064L14317.5688,-4291.9996L14317.5377,-4291.9973L14317.5125,-4291.9952L14317.4734,-4291.9929L14317.4185,-4291.9889L14317.3828,-4291.9865"/>
<path content="1,十勝バス（株）,都市間バスポテトライナー号（十勝川温泉発）,1.0,1.0,1.0," xlink:title="1" d="M14319.5801,-4293.1448L14319.5711,-4293.1441L14319.5463,-4293.1428L14319.4639,-4293.1376L14319.4512,-4293.1365L14319.4433,-4293.1361L14319.3058,-4293.1261L14319.293,-4293.1252L14319.2821,-4293.1244L14319.2317,-4293.1175L14319.2146,-4293.1203L14319.1471,-4293.1155L14319.1373,-4293.1151L14319.1278,-4293.1142L14319.0816,-4293.1108L14319.0185,-4293.1066L14319.0018,-4293.1053L14318.9755,-4293.1035L14318.9557,-4293.1022L14318.9264,-4293.0965L14318.8833,-4293.097L14318.8301,-4293.0933L14318.8197,-4293.0926L14318.8086,-4293.092L14318.7707,-4293.0886L14318.6793,-4293.0823L14318.6674,-4293.0819L14318.6587,-4293.0808L14318.6107,-4293.0747L14318.5943,-4293.0762L14318.5816,-4293.0757L14318.576,-4293.0747L14318.525,-4293.071L14318.5074,-4293.0701L14318.4947,-4293.0688L14318.4029,-4293.0621L14318.3738,-4293.0599L14318.3601,-4293.0593L14318.261,-4293.0481L14318.1861,-4293.046L14318.1752,-4293.0448L14318.1644,-4293.0443L14318.1047,-4293.0397L14318.0961,-4293.0389L14318.0878,-4293.0384L14318.075,-4293.0373L14318.0409,-4293.0347L14318.031,-4293.034L14318.0235,-4293.0338L14318.0188,-4293.0332L14317.9973,-4293.0315L14317.9722,-4293.0272L14317.9426,-4293.0274L14317.9334,-4293.0259L14317.9258,-4293.0253L14317.9077,-4293.0247L14317.8215,-4293.018L14317.7076,-4293.0097L14317.6961,-4293.0099L14317.6241,-4293.0045L14317.5201,-4292.9967L14317.5009,-4292.9946L14317.4865,-4292.9937L14317.4136,-4292.9882L14317.3828,-4292.9862"/>
<path content="1,十勝バス（株）,都市間バスポテトライナー号（帯広バスターミナル発、芽室経由,4.0,4.0,4.0," xlink:title="1" d="M14319.5801,-4293.1448L14319.5711,-4293.1441L14319.5463,-4293.1428L14319.4639,-4293.1376L14319.4512,-4293.1365L14319.4433,-4293.1361L14319.3058,-4293.1261L14319.293,-4293.1252L14319.2821,-4293.1244L14319.2317,-4293.1175L14319.2146,-4293.1203L14319.1471,-4293.1155L14319.1373,-4293.1151L14319.1278,-4293.1142L14319.0816,-4293.1108L14319.0185,-4293.1066L14319.0018,-4293.1053L14318.9755,-4293.1035L14318.9557,-4293.1022L14318.9264,-4293.0965L14318.8833,-4293.097L14318.8301,-4293.0933L14318.8197,-4293.0926L14318.8086,-4293.092L14318.7707,-4293.0886L14318.6793,-4293.0823L14318.6674,-4293.0819L14318.6587,-4293.0808L14318.6107,-4293.0747L14318.5943,-4293.0762L14318.5816,-4293.0757L14318.576,-4293.0747L14318.525,-4293.071L14318.5074,-4293.0701L14318.4947,-4293.0688L14318.4029,-4293.0621L14318.3738,-4293.0599L14318.3601,-4293.0593L14318.261,-4293.0481L14318.1861,-4293.046L14318.1752,-4293.0448L14318.1644,-4293.0443L14318.1047,-4293.0397L14318.0961,-4293.0389L14318.0878,-4293.0384L14318.075,-4293.0373L14318.0409,-4293.0347L14318.031,-4293.034L14318.0235,-4293.0338L14318.0188,-4293.0332L14317.9973,-4293.0315L14317.9722,-4293.0272L14317.9426,-4293.0274L14317.9334,-4293.0259L14317.9258,-4293.0253L14317.9077,-4293.0247L14317.8215,-4293.018L14317.7076,-4293.0097L14317.6961,-4293.0099L14317.6241,-4293.0045L14317.5201,-4292.9967L14317.5009,-4292.9946L14317.4865,-4292.9937L14317.4136,-4292.9882L14317.3828,-4292.9862"/>
<path content="1,十勝バス（株）,音更線　41,28.0,26.5,26.5," xlink:title="1" d="M14317.3828,-4291.4768L14317.416,-4291.4785L14317.4711,-4291.4808L14317.5444,-4291.4853L14317.5785,-4291.4884L14317.6087,-4291.4875L14317.6821,-4291.492L14317.7547,-4291.4954L14317.8349,-4291.4993L14317.8969,-4291.5033L14317.9808,-4291.5081L14318.02,-4291.5122L14318.0345,-4291.5136L14318.0911,-4291.5164L14318.2124,-4291.5253L14318.2873,-4291.5298L14318.3257,-4291.5337L14318.4266,-4291.5404L14318.5298,-4291.5477L14318.6006,-4291.5519L14318.6904,-4291.5585L14318.8493,-4291.5691L14318.9209,-4291.5747L14319.0046,-4291.5804L14319.162,-4291.5917L14319.2834,-4291.6007L14319.3271,-4291.6026L14319.4143,-4291.6108L14319.4409,-4291.6121L14319.4953,-4291.617L14319.5687,-4291.6226L14319.5801,-4291.6234"/>
<path content="1,十勝バス（株）,音更線　41,28.0,26.5,26.5," xlink:title="1" d="M14319.5619,-4292.32L14319.5801,-4292.3214"/>
<path content="1,帯運観光（株）,とかちミルキーライナー,3.0,3.0,3.0," xlink:title="1" d="M14317.3828,-4291.9865L14317.4185,-4291.9889L14317.4734,-4291.9929L14317.5125,-4291.9952L14317.5377,-4291.9973L14317.5688,-4291.9996L14317.6701,-4292.0064L14317.6987,-4292.0086L14317.7273,-4292.0073L14317.7614,-4292.0127L14317.8049,-4292.0155L14317.8336,-4292.0176L14317.8648,-4292.0199L14317.9549,-4292.0264L14317.9888,-4292.0291L14317.9987,-4292.0298L14318.0362,-4292.03L14318.1015,-4292.0369L14318.1093,-4292.0377L14318.1369,-4292.0397L14318.2978,-4292.0507L14318.3169,-4292.0525L14318.3373,-4292.0544L14318.3878,-4292.0603L14318.4077,-4292.0585L14318.4661,-4292.0632L14318.4832,-4292.0645L14318.5481,-4292.0663L14318.5804,-4292.0696L14318.5921,-4292.0702L14318.6103,-4292.0718L14318.6457,-4292.0739L14318.6577,-4292.0741L14318.6689,-4292.0739L14318.6834,-4292.0715L14318.7052,-4292.0655L14318.727,-4292.0573L14318.7362,-4292.0541L14318.7435,-4292.0516L14318.7622,-4292.0455L14318.7773,-4292.0411L14318.7815,-4292.0401L14318.7869,-4292.0392L14318.7905,-4292.0386L14318.8018,-4292.0366L14318.8112,-4292.0346L14318.8198,-4292.0331L14318.8268,-4292.0331L14318.9288,-4292.0406L14318.9443,-4292.0419L14318.9613,-4292.0438L14319.0367,-4292.0432L14319.0893,-4292.0531L14319.1006,-4292.054L14319.1124,-4292.0551L14319.2116,-4292.0624L14319.2366,-4292.0643L14319.2665,-4292.0661L14319.2897,-4292.0667L14319.3459,-4292.0703L14319.3531,-4292.0709L14319.3643,-4292.0718L14319.4363,-4292.0764L14319.5621,-4292.0841L14319.5738,-4292.0843L14319.5801,-4292.0843"/>
<path content="1,道北バス（株）,ノースライナー　旭川・帯広線,3.0,3.0,3.0," xlink:title="1" d="M14319.5801,-4292.0843L14319.5738,-4292.0843L14319.5621,-4292.0841L14319.4363,-4292.0764L14319.3643,-4292.0718L14319.3531,-4292.0709L14319.3459,-4292.0703L14319.2897,-4292.0667L14319.2665,-4292.0661L14319.2366,-4292.0643L14319.2116,-4292.0624L14319.1124,-4292.0551L14319.1006,-4292.054L14319.0893,-4292.0531L14319.0367,-4292.0432L14318.9613,-4292.0438L14318.9443,-4292.0419L14318.9288,-4292.0406L14318.8268,-4292.0331L14318.8198,-4292.0331L14318.8112,-4292.0346L14318.8018,-4292.0366L14318.7905,-4292.0386L14318.7869,-4292.0392L14318.7815,-4292.0401L14318.7773,-4292.0411L14318.7622,-4292.0455L14318.7435,-4292.0516L14318.7362,-4292.0541L14318.727,-4292.0573L14318.7052,-4292.0655L14318.6834,-4292.0715L14318.6689,-4292.0739L14318.6577,-4292.0741L14318.6457,-4292.0739L14318.6103,-4292.0718L14318.5921,-4292.0702L14318.5804,-4292.0696L14318.5481,-4292.0663L14318.4832,-4292.0645L14318.4661,-4292.0632L14318.4077,-4292.0585L14318.3878,-4292.0603L14318.3373,-4292.0544L14318.3169,-4292.0525L14318.2978,-4292.0507L14318.1369,-4292.0397L14318.1093,-4292.0377L14318.1015,-4292.0369L14318.0362,-4292.03L14317.9987,-4292.0298L14317.9888,-4292.0291L14317.9549,-4292.0264L14317.8648,-4292.0199L14317.8336,-4292.0176L14317.8049,-4292.0155L14317.7614,-4292.0127L14317.7273,-4292.0073L14317.6987,-4292.0086L14317.6701,-4292.0064L14317.5688,-4291.9996L14317.5377,-4291.9973L14317.5125,-4291.9952L14317.4734,-4291.9929L14317.4185,-4291.9889L14317.3828,-4291.9865"/>
<path content="3,本別町,ふるさと銀河線代替バス,9.0,9.0,9.0," xlink:title="3" d="M14319.4359,-4292.3158L14319.5619,-4292.32L14319.5801,-4292.3214"/>
<path content="4,毎日交通（株）,八千代線「ポロシリ号」,999.9,999.9,999.9," xlink:title="4" d="M14319.5801,-4292.3214L14319.5619,-4292.32L14319.4359,-4292.3158"/>
<path content="4,毎日交通（株）,戸蔦線「しらかば号」,999.9,999.9,999.9," xlink:title="4" d="M14319.5801,-4292.3214L14319.5619,-4292.32L14319.4359,-4292.3158"/>
</g>
</svg>
