<?xml version="1.0" encoding="UTF-8"?>
<svg  xmlns="http://www.w3.org/2000/svg" xmlns:xlink="http://www.w3.org/1999/xlink" xmlns:go="http://purl.org/svgmap/profile" property="N07_001,N07_002,N07_003,N07_004,N07_005,N07_006,N07_007" viewBox="14004.2724609375 -3566.162109375 1.0986328125 1.0986328125" go:dataArea="14004.2724609375 -3566.162109375 1.0986328125 1.0986328125" >
<metadata>
 <rdf:RDF xmlns:rdf="http://www.w3.org/1999/02/22-rdf-syntax-ns#" xmlns:crs="http://opengis.org/xmldtds/transformations.dtd" xmlns:svg="http://www.w3.org/svg" >
  <rdf:Description>
   <crs:CoordinateReferenceSystem rdf:resource="http://purl.org/crs/84" svg:transform="matrix(100.0,0.0,0.0,-100.0,0.0,0.0)" />
  </rdf:Description>
 </rdf:RDF>
</metadata>
<globalCoordinateSystem srsName="http://purl.org/crs/84" transform="matrix(100.0,0.0,0.0,-100.0,0.0,0.0)" />
<defs>
 <g id="p0" >
  <circle cx="0.0" cy="0.0" r="3" stroke="green" stroke-width="0.75" vector-effect="non-scaling-stroke" />
 </g>
</defs>
<g fill="none" fill-rule="evenodd" stroke="#FF00FF" stroke-width="0.75" opacity="0.5" vector-effect="non-scaling-stroke" stroke-linejoin="bevel" >
<path content="1,JRバス関東（株）,はさき号,4.0,4.0,4.0," xlink:title="1" d="M14005.1593,-3565.0635L14005.104,-3565.0809L14005.1004,-3565.0821L14004.9806,-3565.1239L14004.9452,-3565.1379L14004.9382,-3565.1408L14004.8626,-3565.1708L14004.7815,-3565.207L14004.7262,-3565.2316L14004.609,-3565.2876L14004.5901,-3565.2966L14004.5444,-3565.3213L14004.4751,-3565.3585L14004.4257,-3565.3851L14004.2725,-3565.4738"/>
<path content="1,JRバス関東（株）,東京～富里・多古・八日市場駅・匝瑳市役所,9.0,9.0,9.0," xlink:title="1" d="M14004.2725,-3565.4738L14004.4257,-3565.3851L14004.4751,-3565.3585L14004.5444,-3565.3213L14004.5901,-3565.2966L14004.609,-3565.2876L14004.7262,-3565.2316L14004.7815,-3565.207L14004.8626,-3565.1708L14004.9382,-3565.1408L14004.9452,-3565.1379L14004.9806,-3565.1239L14005.1004,-3565.0821L14005.104,-3565.0809L14005.1593,-3565.0635"/>
<path content="1,JRバス関東（株）,東京～水郷潮来・鹿島神宮,29.0,9.0,29.0," xlink:title="1" d="M14004.2725,-3565.4738L14004.4257,-3565.3851L14004.4751,-3565.3585L14004.5444,-3565.3213L14004.5901,-3565.2966L14004.609,-3565.2876L14004.7262,-3565.2316L14004.7815,-3565.207L14004.8626,-3565.1708L14004.9382,-3565.1408L14004.9452,-3565.1379L14004.9806,-3565.1239L14005.1004,-3565.0821L14005.104,-3565.0809L14005.1593,-3565.0635"/>
<path content="1,しずてつジャストライン（株）,静岡成田空港線,1.0,1.0,1.0," xlink:title="1" d="M14004.2725,-3565.4738L14004.4257,-3565.3851L14004.5901,-3565.2966L14004.609,-3565.2876L14004.7262,-3565.2316L14004.8626,-3565.1708L14004.9795,-3565.1243L14005.1055,-3565.0804L14005.1592,-3565.0635"/>
<path content="1,ちばシティバス（株）,成田空港線,3.5,3.5,3.5," xlink:title="1" d="M14004.6783,-3565.0635L14004.6693,-3565.0665L14004.6251,-3565.0757L14004.5818,-3565.081L14004.5723,-3565.0819L14004.564,-3565.0827"/>
<path content="1,ちばシティバス（株）,成田空港線,3.5,3.5,3.5," xlink:title="1" d="M14004.5612,-3565.0635L14004.564,-3565.0827"/>
<path content="1,ちばシティバス（株）,成田空港線,3.5,3.5,3.5," xlink:title="1" d="M14004.564,-3565.0827L14004.5452,-3565.086L14004.5206,-3565.0915L14004.5097,-3565.0937L14004.4936,-3565.0982L14004.4928,-3565.0984L14004.4927,-3565.0984L14004.4867,-3565.1005L14004.4807,-3565.1021L14004.4786,-3565.1027L14004.4628,-3565.1087L14004.4517,-3565.1129L14004.4507,-3565.1134L14004.412,-3565.1306L14004.3859,-3565.1469L14004.3666,-3565.161L14004.3665,-3565.1609L14004.3606,-3565.1556L14004.3444,-3565.1411L14004.2981,-3565.1068L14004.2741,-3565.0755L14004.2725,-3565.0734"/>
<path content="1,ちばシティバス（株）,羽田空港～幕張新都心・稲毛海岸駅・千葉中央駅,6.5,6.5,6.5," xlink:title="1" d="M14004.2725,-3565.4738L14004.4257,-3565.3851L14004.4751,-3565.3585L14004.5444,-3565.3213L14004.5901,-3565.2966L14004.609,-3565.2876L14004.7262,-3565.2316L14004.7815,-3565.207L14004.8626,-3565.1708L14004.9382,-3565.1408L14004.9452,-3565.1379L14004.9806,-3565.1239L14005.1004,-3565.0821L14005.104,-3565.0809L14005.1593,-3565.0635"/>
<path content="1,ちばシティバス（株）,羽田空港～幕張新都心・稲毛海岸駅・千葉中央駅,6.5,6.5,6.5," xlink:title="1" d="M14004.6783,-3565.0635L14004.6693,-3565.0665L14004.6251,-3565.0757L14004.5818,-3565.081L14004.5723,-3565.0819L14004.564,-3565.0827"/>
<path content="1,ちばシティバス（株）,羽田空港～幕張新都心・稲毛海岸駅・千葉中央駅,6.5,6.5,6.5," xlink:title="1" d="M14004.5612,-3565.0635L14004.564,-3565.0827"/>
<path content="1,ちばシティバス（株）,羽田空港～幕張新都心・稲毛海岸駅・千葉中央駅,6.5,6.5,6.5," xlink:title="1" d="M14004.564,-3565.0827L14004.5452,-3565.086L14004.5206,-3565.0915L14004.5097,-3565.0937L14004.4936,-3565.0982L14004.4928,-3565.0984L14004.4927,-3565.0984L14004.4867,-3565.1005L14004.4807,-3565.1021L14004.4786,-3565.1027L14004.4628,-3565.1087L14004.4517,-3565.1129L14004.4507,-3565.1134L14004.412,-3565.1306L14004.3859,-3565.1469L14004.3666,-3565.161L14004.3665,-3565.1609L14004.3606,-3565.1556L14004.3444,-3565.1411L14004.2981,-3565.1068L14004.2741,-3565.0755L14004.2725,-3565.0734"/>
<path content="1,ちばフラワーバス（株）,シーサイドライナー,19.0,18.0,18.0," xlink:title="1" d="M14005.1593,-3565.0635L14005.104,-3565.0809L14005.1004,-3565.0821L14004.9806,-3565.1239L14004.9452,-3565.1379L14004.9382,-3565.1408L14004.8626,-3565.1708L14004.7815,-3565.207L14004.7262,-3565.2316L14004.609,-3565.2876L14004.5901,-3565.2966L14004.5444,-3565.3213L14004.4751,-3565.3585L14004.4257,-3565.3851L14004.2725,-3565.4738"/>
<path content="1,京成バス（株）,ポケット,34.0,27.0,27.0," xlink:title="1" d="M14004.2725,-3565.2306L14004.2874,-3565.2196L14004.3431,-3565.1792L14004.3666,-3565.161L14004.3714,-3565.1656L14004.3877,-3565.1809L14004.5007,-3565.2871L14004.5198,-3565.3037L14004.5441,-3565.3209L14004.5446,-3565.3212L14004.5643,-3565.3351L14004.5854,-3565.3472L14004.6286,-3565.3708L14004.7031,-3565.414L14004.733,-3565.4313L14004.7524,-3565.4445L14004.849,-3565.499L14004.8529,-3565.5012L14004.8661,-3565.5082L14004.8783,-3565.5147L14004.9003,-3565.5281L14004.9016,-3565.5289L14004.916,-3565.537L14004.9239,-3565.5396L14004.9303,-3565.5506L14004.9778,-3565.5993L14005.1011,-3565.7283L14005.1217,-3565.7455L14005.1438,-3565.7675L14005.2216,-3565.845L14005.2256,-3565.849L14005.3029,-3565.9252L14005.3091,-3565.9302L14005.3438,-3565.9581L14005.3711,-3565.98"/>
<path content="1,京成バス（株）,ポケット,34.0,27.0,27.0," xlink:title="1" d="M14004.2981,-3565.1068L14004.2741,-3565.0755L14004.2725,-3565.0734"/>
<path content="1,京成バス（株）,八千02,27.0,21.0,21.0," xlink:title="1" d="M14004.2725,-3565.0734L14004.2741,-3565.0755L14004.2981,-3565.1068L14004.3444,-3565.1411L14004.3606,-3565.1556L14004.3665,-3565.1609L14004.3859,-3565.1468L14004.412,-3565.1306L14004.4507,-3565.1134L14004.4517,-3565.1129L14004.4628,-3565.1087L14004.4786,-3565.1027L14004.4807,-3565.1021L14004.4867,-3565.1005L14004.4927,-3565.0984L14004.4928,-3565.0984L14004.4936,-3565.0982L14004.5099,-3565.0938L14004.5206,-3565.0915L14004.5454,-3565.0862L14004.5641,-3565.0827L14004.5641,-3565.0827L14004.5725,-3565.082L14004.582,-3565.0812L14004.6251,-3565.0759L14004.6694,-3565.0667L14004.679,-3565.0635"/>
<path content="1,京成バス（株）,千葉北IC周辺地区～東京駅・潮見駅,10.5,8.0,8.0," xlink:title="1" d="M14004.2725,-3565.4738L14004.4257,-3565.3851L14004.4751,-3565.3585L14004.5444,-3565.3213L14004.5901,-3565.2966L14004.609,-3565.2876L14004.7262,-3565.2316L14004.7815,-3565.207L14004.8626,-3565.1708L14004.9382,-3565.1408L14004.9452,-3565.1379L14004.9806,-3565.1239L14005.1004,-3565.0821L14005.104,-3565.0809L14005.1593,-3565.0635"/>
<path content="1,京成バス（株）,奈良～上野・東京ディズニーリゾート,0.5,0.5,0.5," xlink:title="1" d="M14004.2725,-3565.0734L14004.2741,-3565.0755L14004.2981,-3565.1068L14004.3444,-3565.1411L14004.3606,-3565.1556L14004.3665,-3565.161L14004.3859,-3565.1469L14004.412,-3565.1306L14004.4511,-3565.1132L14004.4628,-3565.1087L14004.4796,-3565.1024L14004.4867,-3565.1005L14004.493,-3565.0983L14004.5099,-3565.0938L14004.5206,-3565.0915L14004.5454,-3565.0861L14004.5641,-3565.0827L14004.5724,-3565.082L14004.582,-3565.0812L14004.6251,-3565.0758L14004.6694,-3565.0667L14004.6788,-3565.0635M14005.1593,-3565.0635L14005.104,-3565.0809L14005.1004,-3565.0821L14004.9806,-3565.1239L14004.9452,-3565.1379L14004.9382,-3565.1408L14004.8626,-3565.1708L14004.7815,-3565.207L14004.7262,-3565.2316L14004.609,-3565.2876L14004.5901,-3565.2966L14004.5444,-3565.3213L14004.4751,-3565.3585L14004.4257,-3565.3851L14004.2725,-3565.4738"/>
<path content="1,京成バス（株）,幕03,37.0,0.0,0.0," xlink:title="1" d="M14004.2725,-3565.0734L14004.2741,-3565.0755L14004.2981,-3565.1068L14004.3444,-3565.1411L14004.3606,-3565.1556L14004.3665,-3565.1609L14004.3666,-3565.161L14004.3431,-3565.1792L14004.2874,-3565.2196L14004.2725,-3565.2306"/>
<path content="1,京成バス（株）,幕21,22.0,17.0,17.0," xlink:title="1" d="M14004.3373,-3566.1621L14004.2725,-3566.1171M14004.2725,-3565.8544L14004.3616,-3565.802L14004.3879,-3565.7853L14004.5598,-3565.6852L14004.7352,-3565.5826L14004.8029,-3565.5438L14004.8661,-3565.5082L14004.8783,-3565.5147L14004.9003,-3565.5281L14004.9016,-3565.5289L14004.916,-3565.537L14004.9239,-3565.5396L14004.9303,-3565.5506L14004.9778,-3565.5993L14005.1011,-3565.7283"/>
<path content="1,京成バス（株）,幕22,53.0,45.0,45.0," xlink:title="1" d="M14004.2725,-3565.8544L14004.3616,-3565.802L14004.3879,-3565.7853L14004.5598,-3565.6852L14004.7352,-3565.5826L14004.8029,-3565.5438L14004.8661,-3565.5082L14004.8529,-3565.5012L14004.849,-3565.499L14004.7524,-3565.4445L14004.733,-3565.4313L14004.7031,-3565.414L14004.6286,-3565.3708L14004.5854,-3565.3472L14004.5643,-3565.3351L14004.5446,-3565.3212L14004.5441,-3565.3209L14004.5198,-3565.3037L14004.5007,-3565.2871L14004.3877,-3565.1809L14004.3714,-3565.1656L14004.3666,-3565.161L14004.3665,-3565.1609L14004.3606,-3565.1556L14004.3444,-3565.1411L14004.2981,-3565.1068L14004.289,-3565.0951L14004.2741,-3565.0755L14004.2725,-3565.0734"/>
<path content="1,京成バス（株）,成田空港～さいたま新都心・大宮駅,3.5,3.5,3.5," xlink:title="1" d="M14005.1593,-3565.0635L14005.104,-3565.0809L14005.1004,-3565.0821L14004.9806,-3565.1239L14004.9452,-3565.1379L14004.9382,-3565.1408L14004.8626,-3565.1708L14004.7815,-3565.207L14004.7262,-3565.2316L14004.609,-3565.2876L14004.5901,-3565.2966L14004.5444,-3565.3213L14004.4751,-3565.3585L14004.4257,-3565.3851L14004.2725,-3565.4738"/>
<path content="1,京成バス（株）,成田空港～たまプラーザ駅・新百合ヶ丘駅,8.0,8.0,8.0," xlink:title="1" d="M14004.2725,-3565.4738L14004.4257,-3565.3851L14004.4751,-3565.3585L14004.5444,-3565.3213L14004.5901,-3565.2966L14004.609,-3565.2876L14004.7262,-3565.2316L14004.7815,-3565.207L14004.8626,-3565.1708L14004.9382,-3565.1408L14004.9452,-3565.1379L14004.9806,-3565.1239L14005.1004,-3565.0821L14005.104,-3565.0809L14005.1593,-3565.0635"/>
<path content="1,京成バス（株）,成田空港～中山駅・センター南駅,4.0,4.0,4.0," xlink:title="1" d="M14004.2725,-3565.4738L14004.4257,-3565.3851L14004.4751,-3565.3585L14004.5444,-3565.3213L14004.5901,-3565.2966L14004.609,-3565.2876L14004.7262,-3565.2316L14004.7815,-3565.207L14004.8626,-3565.1708L14004.9382,-3565.1408L14004.9452,-3565.1379L14004.9806,-3565.1239L14005.1004,-3565.0821L14005.104,-3565.0809L14005.1593,-3565.0635"/>
<path content="1,京成バス（株）,成田空港～吉祥寺駅,4.0,4.0,4.0," xlink:title="1" d="M14004.2725,-3565.4738L14004.4257,-3565.3851L14004.4751,-3565.3585L14004.5444,-3565.3213L14004.5901,-3565.2966L14004.609,-3565.2876L14004.7262,-3565.2316L14004.7815,-3565.207L14004.8626,-3565.1708L14004.9382,-3565.1408L14004.9452,-3565.1379L14004.9806,-3565.1239L14005.1004,-3565.0821L14005.104,-3565.0809L14005.1593,-3565.0635"/>
<path content="1,京成バス（株）,成田空港～和光市駅・大泉学園駅,2.5,2.5,2.5," xlink:title="1" d="M14004.2725,-3565.4738L14004.4257,-3565.3851L14004.4751,-3565.3585L14004.5444,-3565.3213L14004.5901,-3565.2966L14004.609,-3565.2876L14004.7262,-3565.2316L14004.7815,-3565.207L14004.8626,-3565.1708L14004.9382,-3565.1408L14004.9452,-3565.1379L14004.9806,-3565.1239L14005.1004,-3565.0821L14005.104,-3565.0809L14005.1593,-3565.0635"/>
<path content="1,京成バス（株）,成田空港～幕張新都心・稲毛海岸駅・千葉中央駅,1.0,1.0,1.0," xlink:title="1" d="M14004.5612,-3565.0635L14004.564,-3565.0827"/>
<path content="1,京成バス（株）,成田空港～幕張新都心・稲毛海岸駅・千葉中央駅,1.0,1.0,1.0," xlink:title="1" d="M14004.2725,-3565.0734L14004.2741,-3565.0755L14004.2981,-3565.1068L14004.3444,-3565.1411L14004.3606,-3565.1556L14004.3665,-3565.1609L14004.3666,-3565.161L14004.3859,-3565.1469L14004.412,-3565.1306L14004.4515,-3565.1131L14004.4518,-3565.1129L14004.4628,-3565.1087L14004.4786,-3565.1027L14004.4807,-3565.1021L14004.4867,-3565.1005L14004.4927,-3565.0984L14004.4928,-3565.0984L14004.4936,-3565.0982L14004.5098,-3565.0938L14004.5206,-3565.0915L14004.5453,-3565.0861L14004.5641,-3565.0827L14004.5641,-3565.0827L14004.5724,-3565.082L14004.582,-3565.0811L14004.6251,-3565.0758L14004.6693,-3565.0666L14004.6788,-3565.0635"/>
<path content="1,京成バス（株）,成田空港～新富士駅・沼津駅,2.0,2.0,2.0," xlink:title="1" d="M14004.2725,-3565.4738L14004.4257,-3565.3851L14004.4751,-3565.3585L14004.5444,-3565.3213L14004.5901,-3565.2966L14004.609,-3565.2876L14004.7262,-3565.2316L14004.7815,-3565.207L14004.8626,-3565.1708L14004.9382,-3565.1408L14004.9452,-3565.1379L14004.9806,-3565.1239L14005.1004,-3565.0821L14005.104,-3565.0809L14005.1593,-3565.0635"/>
<path content="1,京成バス（株）,成田空港～本厚木駅・平塚（田村車庫）,3.5,3.5,3.5," xlink:title="1" d="M14004.2725,-3565.4738L14004.4257,-3565.3851L14004.4751,-3565.3585L14004.5444,-3565.3213L14004.5901,-3565.2966L14004.609,-3565.2876L14004.7262,-3565.2316L14004.7815,-3565.207L14004.8626,-3565.1708L14004.9382,-3565.1408L14004.9452,-3565.1379L14004.9806,-3565.1239L14005.1004,-3565.0821L14005.104,-3565.0809L14005.1593,-3565.0635"/>
<path content="1,京成バス（株）,成田空港～東所沢駅・所沢駅,4.0,4.0,4.0," xlink:title="1" d="M14005.1593,-3565.0635L14005.104,-3565.0809L14005.1004,-3565.0821L14004.9806,-3565.1239L14004.9452,-3565.1379L14004.9382,-3565.1408L14004.8626,-3565.1708L14004.7815,-3565.207L14004.7262,-3565.2316L14004.609,-3565.2876L14004.5901,-3565.2966L14004.5444,-3565.3213L14004.4751,-3565.3585L14004.4257,-3565.3851L14004.2725,-3565.4738"/>
<path content="1,京成バス（株）,成田空港～横浜シティ・エア・ターミナル・みなとみらい地区,9.5,9.5,9.5," xlink:title="1" d="M14004.2725,-3565.4738L14004.4257,-3565.3851L14004.4751,-3565.3585L14004.5444,-3565.3213L14004.5901,-3565.2966L14004.609,-3565.2876L14004.7262,-3565.2316L14004.7815,-3565.207L14004.8626,-3565.1708L14004.9382,-3565.1408L14004.9452,-3565.1379L14004.9806,-3565.1239L14005.1004,-3565.0821L14005.104,-3565.0809L14005.1593,-3565.0635"/>
<path content="1,京成バス（株）,成田空港～相模大野駅・町田駅・橋本駅,8.0,8.0,8.0," xlink:title="1" d="M14004.2725,-3565.4738L14004.4257,-3565.3851L14004.4751,-3565.3585L14004.5444,-3565.3213L14004.5901,-3565.2966L14004.609,-3565.2876L14004.7262,-3565.2316L14004.7815,-3565.207L14004.8626,-3565.1708L14004.9382,-3565.1408L14004.9452,-3565.1379L14004.9806,-3565.1239L14005.1004,-3565.0821L14005.104,-3565.0809L14005.1593,-3565.0635"/>
<path content="1,京成バス（株）,成田空港～葛西駅・一之江駅・小岩駅,7.5,7.5,7.5," xlink:title="1" d="M14004.2725,-3565.4738L14004.4257,-3565.3851L14004.4751,-3565.3585L14004.5444,-3565.3213L14004.5901,-3565.2966L14004.609,-3565.2876L14004.7262,-3565.2316L14004.7815,-3565.207L14004.8626,-3565.1708L14004.9382,-3565.1408L14004.9452,-3565.1379L14004.9806,-3565.1239L14005.1004,-3565.0821L14005.104,-3565.0809L14005.1593,-3565.0635"/>
<path content="1,京成バス（株）,成田空港～藤沢駅・辻堂駅・茅ヶ崎駅,3.0,3.0,3.0," xlink:title="1" d="M14004.2725,-3565.4738L14004.4257,-3565.3851L14004.4751,-3565.3585L14004.5444,-3565.3213L14004.5901,-3565.2966L14004.609,-3565.2876L14004.7262,-3565.2316L14004.7815,-3565.207L14004.8626,-3565.1708L14004.9382,-3565.1408L14004.9452,-3565.1379L14004.9806,-3565.1239L14005.1004,-3565.0821L14005.104,-3565.0809L14005.1593,-3565.0635"/>
<path content="1,京成バス（株）,東京駅～鹿島セントラルホテル・鹿島神宮駅,28.0,30.0,30.0," xlink:title="1" d="M14004.2725,-3565.4738L14004.4257,-3565.3851L14004.4751,-3565.3585L14004.5444,-3565.3213L14004.5901,-3565.2966L14004.609,-3565.2876L14004.7262,-3565.2316L14004.7815,-3565.207L14004.8626,-3565.1708L14004.9382,-3565.1408L14004.9452,-3565.1379L14004.9806,-3565.1239L14005.1004,-3565.0821L14005.104,-3565.0809L14005.1593,-3565.0635"/>
<path content="1,京成バス（株）,東雲車庫・東京駅～千城台・八街・成東,8.0,6.5,6.5," xlink:title="1" d="M14005.1593,-3565.0635L14005.104,-3565.0809L14005.1004,-3565.0821L14004.9806,-3565.1239L14004.9452,-3565.1379L14004.9382,-3565.1408L14004.8626,-3565.1708L14004.7815,-3565.207L14004.7262,-3565.2316L14004.609,-3565.2876L14004.5901,-3565.2966L14004.5444,-3565.3213L14004.4751,-3565.3585L14004.4257,-3565.3851L14004.2725,-3565.4738"/>
<path content="1,京成バス（株）,東雲車庫・東京～志津・臼井・ユーカリが丘,3.0,2.5,2.5," xlink:title="1" d="M14004.2725,-3565.4738L14004.4257,-3565.3851L14004.4751,-3565.3585L14004.5444,-3565.3213L14004.5901,-3565.2966L14004.609,-3565.2876L14004.7262,-3565.2316L14004.7815,-3565.207L14004.8626,-3565.1708L14004.9382,-3565.1408L14004.9452,-3565.1379L14004.9806,-3565.1239L14005.1004,-3565.0821L14005.104,-3565.0809L14005.1593,-3565.0635"/>
<path content="1,京成バス（株）,浜松町・東京駅～銚子・犬吠崎京成ホテル,10.0,11.0,11.0," xlink:title="1" d="M14004.2725,-3565.4738L14004.4257,-3565.3851L14004.4751,-3565.3585L14004.5444,-3565.3213L14004.5901,-3565.2966L14004.609,-3565.2876L14004.7262,-3565.2316L14004.7815,-3565.207L14004.8626,-3565.1708L14004.9382,-3565.1408L14004.9452,-3565.1379L14004.9806,-3565.1239L14005.1004,-3565.0821L14005.104,-3565.0809L14005.1593,-3565.0635"/>
<path content="1,京成バス（株）,海01,40.0,33.0,33.0," xlink:title="1" d="M14004.2725,-3565.0736L14004.289,-3565.0951L14004.2981,-3565.1068L14004.3444,-3565.1411L14004.3606,-3565.1556L14004.3665,-3565.1609L14004.3859,-3565.1468L14004.412,-3565.1306L14004.45,-3565.1136L14004.4507,-3565.1134L14004.4515,-3565.1131L14004.4519,-3565.1129L14004.4628,-3565.1087L14004.4786,-3565.1027L14004.4807,-3565.1021L14004.4867,-3565.1005L14004.4927,-3565.0984L14004.4928,-3565.0984L14004.4936,-3565.0982L14004.5099,-3565.0938L14004.5206,-3565.0915L14004.5454,-3565.0862L14004.5641,-3565.0827L14004.5641,-3565.0827L14004.5725,-3565.082L14004.582,-3565.0812L14004.6251,-3565.0759L14004.6694,-3565.0667L14004.679,-3565.0635"/>
<path content="1,京成バス（株）,白子・茂原駅・大網駅・～東京駅・潮見駅,2.5,2.5,2.5," xlink:title="1" d="M14005.1593,-3565.0635L14005.104,-3565.0809L14005.1004,-3565.0821L14004.9806,-3565.1239L14004.9452,-3565.1379L14004.9382,-3565.1408L14004.8626,-3565.1708L14004.7815,-3565.207L14004.7262,-3565.2316L14004.609,-3565.2876L14004.5901,-3565.2966L14004.5444,-3565.3213L14004.4751,-3565.3585L14004.4257,-3565.3851L14004.2725,-3565.4738"/>
<path content="1,京成バス（株）,神戸・大阪～東京ディズニーリゾート・海浜幕張・千葉中央駅,0.5,0.5,0.5," xlink:title="1" d="M14004.2725,-3565.0734L14004.2741,-3565.0755L14004.2981,-3565.1068L14004.3444,-3565.1411L14004.3606,-3565.1556L14004.3665,-3565.161L14004.3859,-3565.1469L14004.412,-3565.1306L14004.4511,-3565.1132L14004.4628,-3565.1087L14004.4796,-3565.1024L14004.4867,-3565.1005L14004.493,-3565.0983L14004.5099,-3565.0938L14004.5206,-3565.0915L14004.5454,-3565.0861L14004.5641,-3565.0827L14004.5724,-3565.082L14004.582,-3565.0812L14004.6251,-3565.0758L14004.6694,-3565.0667L14004.6788,-3565.0635M14005.1593,-3565.0635L14005.104,-3565.0809L14005.1004,-3565.0821L14004.9806,-3565.1239L14004.9452,-3565.1379L14004.9382,-3565.1408L14004.8626,-3565.1708L14004.7815,-3565.207L14004.7262,-3565.2316L14004.609,-3565.2876L14004.5901,-3565.2966L14004.5444,-3565.3213L14004.4751,-3565.3585L14004.4257,-3565.3851L14004.2725,-3565.4738"/>
<path content="1,京成バス（株）,羽田空港～幕張新都心・稲毛海岸駅・千葉中央駅,7.5,7.5,7.5," xlink:title="1" d="M14004.2725,-3565.0734L14004.2741,-3565.0755L14004.2981,-3565.1068L14004.3444,-3565.1411L14004.3606,-3565.1556L14004.3665,-3565.1609L14004.3666,-3565.161L14004.3859,-3565.1469L14004.412,-3565.1306L14004.4507,-3565.1134L14004.4517,-3565.1129L14004.4628,-3565.1087L14004.4786,-3565.1027L14004.4807,-3565.1021L14004.4867,-3565.1005L14004.4927,-3565.0984L14004.4928,-3565.0984L14004.4936,-3565.0982L14004.5097,-3565.0937L14004.5206,-3565.0915L14004.5452,-3565.086L14004.564,-3565.0827L14004.5612,-3565.0635"/>
<path content="1,京浜急行バス（株）,幕張新都心・千葉中央駅～羽田空港線,14.0,14.0,14.0," xlink:title="1" d="M14004.2725,-3565.4738L14004.4257,-3565.3851L14004.4751,-3565.3585L14004.5444,-3565.3213L14004.5901,-3565.2966L14004.609,-3565.2876L14004.7262,-3565.2316L14004.7815,-3565.207L14004.8626,-3565.1708L14004.9382,-3565.1408L14004.9452,-3565.1379L14004.9806,-3565.1239L14005.1004,-3565.0821L14005.104,-3565.0809L14005.1593,-3565.0635M14004.6783,-3565.0635L14004.6693,-3565.0665L14004.6251,-3565.0757L14004.5818,-3565.081L14004.5723,-3565.0819L14004.564,-3565.0827L14004.5612,-3565.0635M14004.2844,-3565.0635L14004.2725,-3565.0723"/>
<path content="1,京浜急行バス（株）,新横浜駅（ホテルアソシア新横浜）・新横浜プリンスホテル～成田空港線,10.0,10.0,10.0," xlink:title="1" d="M14004.2725,-3565.4738L14004.4257,-3565.3851L14004.4751,-3565.3585L14004.5444,-3565.3213L14004.5901,-3565.2966L14004.609,-3565.2876L14004.7262,-3565.2316L14004.7815,-3565.207L14004.8626,-3565.1708L14004.9382,-3565.1408L14004.9452,-3565.1379L14004.9806,-3565.1239L14005.1004,-3565.0821L14005.1049,-3565.0806L14005.1593,-3565.0635"/>
<path content="1,京浜急行バス（株）,横浜駅（YCAT）～成田空港線,24.0,24.0,24.0," xlink:title="1" d="M14004.2725,-3565.4738L14004.4257,-3565.3851L14004.4751,-3565.3585L14004.5444,-3565.3213L14004.5901,-3565.2966L14004.609,-3565.2876L14004.7262,-3565.2316L14004.7815,-3565.207L14004.8626,-3565.1708L14004.9382,-3565.1408L14004.9452,-3565.1379L14004.9806,-3565.1239L14005.1004,-3565.0821L14005.104,-3565.0809L14005.1593,-3565.0635"/>
<path content="1,京浜急行バス（株）,鹿島神宮駅～羽田空港線,3.0,3.0,3.0," xlink:title="1" d="M14004.2725,-3565.4738L14004.4257,-3565.3851L14004.4751,-3565.3585L14004.5444,-3565.3213L14004.5901,-3565.2966L14004.609,-3565.2876L14004.7262,-3565.2316L14004.7815,-3565.207L14004.8626,-3565.1708L14004.9382,-3565.1408L14004.9452,-3565.1379L14004.9806,-3565.1239L14005.1004,-3565.0821L14005.104,-3565.0809L14005.1593,-3565.0635"/>
<path content="1,京王バス南（株）,成田空港～南大沢線,4.0,4.0,4.0," xlink:title="1" d="M14004.2725,-3565.4738L14004.4257,-3565.3851L14004.4751,-3565.3585L14004.5444,-3565.3213L14004.5901,-3565.2966L14004.609,-3565.2876L14004.7262,-3565.2316L14004.7815,-3565.207L14004.8626,-3565.1708L14004.9382,-3565.1408L14004.9452,-3565.1379L14004.9806,-3565.1239L14005.1004,-3565.0821L14005.104,-3565.0809L14005.1593,-3565.0635"/>
<path content="1,京王バス南（株）,成田空港～調布駅北口線,4.0,4.0,4.0," xlink:title="1" d="M14004.2725,-3565.4738L14004.4257,-3565.3851L14004.4751,-3565.3585L14004.5444,-3565.3213L14004.5901,-3565.2966L14004.609,-3565.2876L14004.7262,-3565.2316L14004.7815,-3565.207L14004.8626,-3565.1708L14004.9382,-3565.1408L14004.9452,-3565.1379L14004.9806,-3565.1239L14005.1004,-3565.0821L14005.104,-3565.0809L14005.1593,-3565.0635"/>
<path content="1,京阪バス（株）,京都・大津⇔上野・TDR・千葉,1.0,1.0,1.0," xlink:title="1" d="M14004.2725,-3565.0732L14004.3444,-3565.1411L14004.3666,-3565.161L14004.3877,-3565.1809L14004.5007,-3565.2871L14004.5198,-3565.3037L14004.5446,-3565.3212"/>
<path content="1,京阪バス（株）,京都・大津⇔上野・TDR・千葉,1.0,1.0,1.0," xlink:title="1" d="M14004.5446,-3565.3212L14004.5643,-3565.3351L14004.6829,-3565.2774L14004.7548,-3565.244L14004.8869,-3565.1887L14004.9614,-3565.161L14005.0103,-3565.1452L14005.2086,-3565.0863L14005.2267,-3565.0807L14005.2937,-3565.0681L14005.3622,-3565.0635"/>
<path content="1,京阪バス（株）,京都・大津⇔上野・TDR・千葉,1.0,1.0,1.0," xlink:title="1" d="M14004.2725,-3565.4738L14004.4257,-3565.3851L14004.5446,-3565.3212"/>
<path content="1,千葉シーサイドバス,212,1.0,1.0,1.0," xlink:title="1" d="M14004.2725,-3565.0734L14004.2741,-3565.0755L14004.2981,-3565.1068L14004.3444,-3565.1411L14004.3606,-3565.1556L14004.3665,-3565.1609L14004.3666,-3565.161L14004.3714,-3565.1656L14004.3877,-3565.1809L14004.5007,-3565.2871L14004.5198,-3565.3037L14004.5441,-3565.3209L14004.5446,-3565.3212L14004.5643,-3565.3351L14004.5854,-3565.3472L14004.6286,-3565.3708L14004.7031,-3565.414L14004.733,-3565.4313L14004.7524,-3565.4445L14004.849,-3565.499L14004.8529,-3565.5012L14004.8661,-3565.5082L14004.8783,-3565.5147L14004.9003,-3565.5281L14004.9016,-3565.5289L14004.916,-3565.537L14004.9239,-3565.5396L14004.9303,-3565.5506L14004.9778,-3565.5993L14005.1011,-3565.7283L14005.1217,-3565.7455L14005.1438,-3565.7675L14005.2216,-3565.845L14005.2256,-3565.849L14005.3029,-3565.9252L14005.3091,-3565.9302L14005.3438,-3565.9581L14005.3711,-3565.98"/>
<path content="1,千葉シーサイドバス,214,2.0,0.0,0.0," xlink:title="1" d="M14004.2725,-3565.0734L14004.2741,-3565.0755L14004.2981,-3565.1068L14004.3444,-3565.1411L14004.3606,-3565.1556L14004.3665,-3565.1609L14004.3666,-3565.161L14004.3714,-3565.1656L14004.3877,-3565.1809L14004.5007,-3565.2871L14004.5198,-3565.3037L14004.5441,-3565.3209L14004.5446,-3565.3212L14004.5643,-3565.3351L14004.5854,-3565.3472L14004.6286,-3565.3708L14004.7031,-3565.414L14004.733,-3565.4313L14004.7524,-3565.4445L14004.849,-3565.499L14004.8529,-3565.5012L14004.8661,-3565.5082L14004.8783,-3565.5147L14004.9003,-3565.5281L14004.9016,-3565.5289L14004.916,-3565.537L14004.9239,-3565.5396L14004.9303,-3565.5506L14004.9778,-3565.5993L14005.1011,-3565.7283L14005.1217,-3565.7455L14005.1438,-3565.7675L14005.2216,-3565.845L14005.2256,-3565.849L14005.3029,-3565.9252L14005.3091,-3565.9302L14005.3438,-3565.9581L14005.3711,-3565.98"/>
<path content="1,千葉シーサイドバス,222,0.5,0.0,0.0," xlink:title="1" d="M14005.3711,-3565.98L14005.3438,-3565.9581L14005.3091,-3565.9302L14005.3029,-3565.9252L14005.2256,-3565.849L14005.2216,-3565.845L14005.1438,-3565.7675L14005.1217,-3565.7455L14005.1011,-3565.7283L14004.9778,-3565.5993L14004.9303,-3565.5506L14004.9239,-3565.5396L14004.916,-3565.537L14004.9016,-3565.5289L14004.9003,-3565.5281L14004.8783,-3565.5147L14004.8661,-3565.5082L14004.8529,-3565.5012L14004.849,-3565.499L14004.7524,-3565.4445L14004.733,-3565.4313L14004.7031,-3565.414L14004.6286,-3565.3708L14004.5854,-3565.3472L14004.5643,-3565.3351L14004.5446,-3565.3212L14004.5441,-3565.3209L14004.5198,-3565.3037L14004.5007,-3565.2871L14004.3877,-3565.1809L14004.3714,-3565.1656L14004.3666,-3565.161L14004.3665,-3565.1609L14004.3606,-3565.1556L14004.3444,-3565.1411L14004.2981,-3565.1068L14004.2741,-3565.0755L14004.2725,-3565.0734"/>
<path content="1,千葉シーサイドバス,231,1.0,0.0,0.0," xlink:title="1" d="M14004.2725,-3565.0734L14004.2741,-3565.0755L14004.2981,-3565.1068L14004.3444,-3565.1411L14004.3606,-3565.1556L14004.3665,-3565.1609L14004.3666,-3565.161L14004.3714,-3565.1656L14004.3877,-3565.1809L14004.5007,-3565.2871L14004.5198,-3565.3037L14004.5441,-3565.3209L14004.5446,-3565.3212L14004.5643,-3565.3351L14004.5854,-3565.3472L14004.6286,-3565.3708L14004.7031,-3565.414L14004.733,-3565.4313L14004.7524,-3565.4445L14004.849,-3565.499L14004.8529,-3565.5012L14004.8661,-3565.5082L14004.8783,-3565.5147L14004.9003,-3565.5281L14004.9016,-3565.5289L14004.916,-3565.537L14004.9239,-3565.5396L14004.9303,-3565.5506L14004.9778,-3565.5993L14005.1011,-3565.7283L14005.1217,-3565.7455L14005.1438,-3565.7675L14005.2216,-3565.845L14005.2256,-3565.849L14005.3029,-3565.9252L14005.3091,-3565.9302L14005.3438,-3565.9581L14005.3711,-3565.98"/>
<path content="1,千葉シーサイドバス,232,35.0,18.0,18.0," xlink:title="1" d="M14004.2725,-3565.0734L14004.2741,-3565.0755L14004.2981,-3565.1068L14004.3444,-3565.1411L14004.3606,-3565.1556L14004.3665,-3565.1609L14004.3666,-3565.161L14004.3714,-3565.1656L14004.3877,-3565.1809L14004.5007,-3565.2871L14004.5198,-3565.3037L14004.5441,-3565.3209L14004.5446,-3565.3212L14004.5643,-3565.3351L14004.5854,-3565.3472L14004.6286,-3565.3708L14004.7031,-3565.414L14004.733,-3565.4313L14004.7524,-3565.4445L14004.849,-3565.499L14004.8529,-3565.5012L14004.8661,-3565.5082L14004.8783,-3565.5147L14004.9003,-3565.5281L14004.9016,-3565.5289L14004.916,-3565.537L14004.9239,-3565.5396L14004.9303,-3565.5506L14004.9778,-3565.5993L14005.1011,-3565.7283L14005.1217,-3565.7455L14005.1438,-3565.7675L14005.2216,-3565.845L14005.2256,-3565.849L14005.3029,-3565.9252L14005.3091,-3565.9302L14005.3438,-3565.9581L14005.3711,-3565.98"/>
<path content="1,千葉シーサイドバス,234,2.0,2.0,2.0," xlink:title="1" d="M14004.2725,-3565.0734L14004.2741,-3565.0755L14004.2981,-3565.1068L14004.3444,-3565.1411L14004.3606,-3565.1556L14004.3665,-3565.1609L14004.3666,-3565.161L14004.3714,-3565.1656L14004.3877,-3565.1809L14004.5007,-3565.2871L14004.5198,-3565.3037L14004.5441,-3565.3209L14004.5446,-3565.3212L14004.5643,-3565.3351L14004.5854,-3565.3472L14004.6286,-3565.3708L14004.7031,-3565.414L14004.733,-3565.4313L14004.7524,-3565.4445L14004.849,-3565.499L14004.8529,-3565.5012L14004.8661,-3565.5082L14004.8783,-3565.5147L14004.9003,-3565.5281L14004.9016,-3565.5289L14004.916,-3565.537L14004.9239,-3565.5396L14004.9303,-3565.5506L14004.9778,-3565.5993L14005.1011,-3565.7283L14005.1217,-3565.7455L14005.1438,-3565.7675L14005.2216,-3565.845L14005.2256,-3565.849L14005.3029,-3565.9252L14005.3091,-3565.9302L14005.3438,-3565.9581L14005.3711,-3565.98"/>
<path content="1,千葉シーサイドバス,235,0.0,1.0,1.0," xlink:title="1" d="M14004.2725,-3565.0734L14004.2741,-3565.0755L14004.2981,-3565.1068L14004.3444,-3565.1411L14004.3606,-3565.1556L14004.3665,-3565.1609L14004.3666,-3565.161L14004.3714,-3565.1656L14004.3877,-3565.1809L14004.5007,-3565.2871L14004.5198,-3565.3037L14004.5441,-3565.3209L14004.5446,-3565.3212L14004.5643,-3565.3351L14004.5854,-3565.3472L14004.6286,-3565.3708L14004.7031,-3565.414L14004.733,-3565.4313L14004.7524,-3565.4445L14004.849,-3565.499L14004.8529,-3565.5012L14004.8661,-3565.5082L14004.8783,-3565.5147L14004.9003,-3565.5281L14004.9016,-3565.5289L14004.916,-3565.537L14004.9239,-3565.5396L14004.9303,-3565.5506L14004.9778,-3565.5993L14005.1011,-3565.7283L14005.1217,-3565.7455L14005.1438,-3565.7675L14005.2216,-3565.845L14005.2256,-3565.849L14005.3029,-3565.9252L14005.3091,-3565.9302L14005.3438,-3565.9581L14005.3711,-3565.98"/>
<path content="1,千葉シーサイドバス,240,18.0,20.0,20.0," xlink:title="1" d="M14004.2725,-3565.0734L14004.2741,-3565.0755L14004.2981,-3565.1068L14004.3444,-3565.1411L14004.3606,-3565.1556L14004.3665,-3565.1609L14004.3666,-3565.161L14004.3714,-3565.1656L14004.3877,-3565.1809L14004.5007,-3565.2871L14004.5198,-3565.3037L14004.5441,-3565.3209L14004.5446,-3565.3212L14004.5643,-3565.3351L14004.5854,-3565.3472L14004.6286,-3565.3708L14004.7031,-3565.414L14004.733,-3565.4313L14004.7524,-3565.4445L14004.849,-3565.499L14004.8529,-3565.5012L14004.8661,-3565.5082L14004.8783,-3565.5147L14004.9003,-3565.5281L14004.9016,-3565.5289L14004.916,-3565.537L14004.9239,-3565.5396L14004.9303,-3565.5506L14004.9778,-3565.5993L14005.1011,-3565.7283L14005.1217,-3565.7455L14005.1438,-3565.7675L14005.2216,-3565.845L14005.2256,-3565.849L14005.3029,-3565.9252L14005.3091,-3565.9302L14005.3438,-3565.9581L14005.3711,-3565.98"/>
<path content="1,千葉シーサイドバス,241,8.0,1.0,1.0," xlink:title="1" d="M14004.2725,-3565.0734L14004.2741,-3565.0755L14004.2981,-3565.1068L14004.3444,-3565.1411L14004.3606,-3565.1556L14004.3665,-3565.1609L14004.3666,-3565.161L14004.3714,-3565.1656L14004.3877,-3565.1809L14004.5007,-3565.2871L14004.5198,-3565.3037L14004.5441,-3565.3209L14004.5446,-3565.3212L14004.5643,-3565.3351L14004.5854,-3565.3472L14004.6286,-3565.3708L14004.7031,-3565.414L14004.733,-3565.4313L14004.7524,-3565.4445L14004.849,-3565.499L14004.8529,-3565.5012L14004.8661,-3565.5082L14004.8783,-3565.5147L14004.9003,-3565.5281L14004.9016,-3565.5289L14004.916,-3565.537L14004.9239,-3565.5396L14004.9303,-3565.5506L14004.9778,-3565.5993L14005.1011,-3565.7283L14005.1217,-3565.7455L14005.1438,-3565.7675L14005.2216,-3565.845L14005.2256,-3565.849L14005.3029,-3565.9252L14005.3091,-3565.9302L14005.3438,-3565.9581L14005.3711,-3565.98"/>
<path content="1,千葉シーサイドバス,242,1.0,0.0,0.0," xlink:title="1" d="M14004.2725,-3565.0734L14004.2741,-3565.0755L14004.2981,-3565.1068L14004.3444,-3565.1411L14004.3606,-3565.1556L14004.3665,-3565.1609L14004.3666,-3565.161L14004.3859,-3565.1469L14004.412,-3565.1306L14004.4507,-3565.1134L14004.4517,-3565.1129L14004.4628,-3565.1087L14004.4786,-3565.1027L14004.4807,-3565.1021L14004.4867,-3565.1005L14004.4927,-3565.0984L14004.4928,-3565.0984L14004.4936,-3565.0982L14004.5097,-3565.0937L14004.5206,-3565.0915L14004.5452,-3565.086L14004.564,-3565.0827L14004.5723,-3565.0819L14004.5818,-3565.081L14004.6251,-3565.0757L14004.6693,-3565.0665L14004.6783,-3565.0635M14004.847,-3565.0635L14004.8811,-3565.0961L14004.8917,-3565.1055L14004.9137,-3565.1194L14004.9378,-3565.1404L14004.9382,-3565.1408L14004.9614,-3565.161L14004.9873,-3565.1843L14005.109,-3565.2992L14005.1455,-3565.3346L14005.1559,-3565.3479L14005.1611,-3565.3534L14005.1655,-3565.3588L14005.1727,-3565.3661L14005.2025,-3565.3978L14005.2066,-3565.4023L14005.2164,-3565.4129L14005.368,-3565.5751L14005.3711,-3565.5784"/>
<path content="1,千葉シーサイドバス,260,15.0,0.0,0.0," xlink:title="1" d="M14004.2725,-3565.0734L14004.2741,-3565.0755L14004.2981,-3565.1068L14004.3444,-3565.1411L14004.3606,-3565.1556L14004.3665,-3565.1609L14004.3666,-3565.161L14004.3714,-3565.1656L14004.3877,-3565.1809L14004.5007,-3565.2871L14004.5198,-3565.3037L14004.5441,-3565.3209L14004.5446,-3565.3212L14004.5643,-3565.3351L14004.5854,-3565.3472L14004.6286,-3565.3708L14004.7031,-3565.414L14004.733,-3565.4313L14004.7524,-3565.4445L14004.849,-3565.499L14004.8529,-3565.5012L14004.8661,-3565.5082L14004.8783,-3565.5147L14004.9003,-3565.5281L14004.9016,-3565.5289L14004.916,-3565.537L14004.9239,-3565.5396L14004.9303,-3565.5506L14004.9778,-3565.5993L14005.1011,-3565.7283L14005.1217,-3565.7455L14005.1438,-3565.7675L14005.2216,-3565.845L14005.2256,-3565.849L14005.3029,-3565.9252L14005.2536,-3565.9646L14005.2531,-3565.9651L14005.1981,-3566.0095L14005.1706,-3566.0331L14005.1635,-3566.0394L14005.1384,-3566.0513L14005.0568,-3566.0859L14005.022,-3566.1007L14004.9527,-3566.1304L14004.8941,-3566.1543L14004.8823,-3566.159L14004.8732,-3566.1621"/>
<path content="1,千葉シーサイドバス,261,1.0,0.0,0.0," xlink:title="1" d="M14004.2725,-3565.0734L14004.2741,-3565.0755L14004.2981,-3565.1068L14004.3444,-3565.1411L14004.3606,-3565.1556L14004.3665,-3565.1609L14004.3666,-3565.161L14004.3714,-3565.1656L14004.3877,-3565.1809L14004.5007,-3565.2871L14004.5198,-3565.3037L14004.5441,-3565.3209L14004.5446,-3565.3212L14004.5643,-3565.3351L14004.5854,-3565.3472L14004.6286,-3565.3708L14004.7031,-3565.414L14004.733,-3565.4313L14004.7524,-3565.4445L14004.849,-3565.499L14004.8529,-3565.5012L14004.8661,-3565.5082L14004.8783,-3565.5147L14004.9003,-3565.5281L14004.9016,-3565.5289L14004.916,-3565.537L14004.9239,-3565.5396L14004.9303,-3565.5506L14004.9778,-3565.5993L14005.1011,-3565.7283L14005.1217,-3565.7455L14005.1438,-3565.7675L14005.2216,-3565.845L14005.2256,-3565.849L14005.3029,-3565.9252L14005.2536,-3565.9646L14005.2531,-3565.9651L14005.1981,-3566.0095L14005.1706,-3566.0331L14005.1635,-3566.0394L14005.1384,-3566.0513L14005.0568,-3566.0859L14005.022,-3566.1007L14004.9527,-3566.1304L14004.8941,-3566.1543L14004.8823,-3566.159L14004.8732,-3566.1621"/>
<path content="1,千葉シーサイドバス,270,2.0,0.0,0.0," xlink:title="1" d="M14005.3711,-3565.98L14005.3438,-3565.9581L14005.3091,-3565.9302L14005.3029,-3565.9252L14005.2536,-3565.9646L14005.2531,-3565.9651L14005.1981,-3566.0095L14005.1706,-3566.0331L14005.1635,-3566.0394L14005.1384,-3566.0513L14005.0568,-3566.0859L14005.022,-3566.1007L14004.9527,-3566.1304L14004.8941,-3566.1543L14004.8823,-3566.159L14004.8732,-3566.1621"/>
<path content="1,千葉シーサイドバス,290,3.0,8.0,8.0," xlink:title="1" d="M14004.2725,-3565.0734L14004.2741,-3565.0755L14004.2981,-3565.1068L14004.3444,-3565.1411L14004.3606,-3565.1556L14004.3665,-3565.1609L14004.3666,-3565.161L14004.3714,-3565.1656L14004.3877,-3565.1809L14004.5007,-3565.2871L14004.5198,-3565.3037L14004.5441,-3565.3209L14004.5446,-3565.3212L14004.5643,-3565.3351L14004.5854,-3565.3472L14004.6286,-3565.3708L14004.7031,-3565.414L14004.733,-3565.4313L14004.7524,-3565.4445L14004.849,-3565.499L14004.8529,-3565.5012L14004.8661,-3565.5082L14004.8783,-3565.5147L14004.9003,-3565.5281L14004.9016,-3565.5289L14004.916,-3565.537L14004.9239,-3565.5396L14004.9303,-3565.5506L14004.9778,-3565.5993L14005.1011,-3565.7283L14005.1217,-3565.7455L14005.1438,-3565.7675L14005.2216,-3565.845L14005.2256,-3565.849L14005.3029,-3565.9252L14005.3091,-3565.9302L14005.3438,-3565.9581L14005.3711,-3565.98"/>
<path content="1,千葉シーサイドバス,291,2.0,0.0,0.0," xlink:title="1" d="M14004.2725,-3565.0734L14004.2741,-3565.0755L14004.2981,-3565.1068L14004.3444,-3565.1411L14004.3606,-3565.1556L14004.3665,-3565.1609L14004.3666,-3565.161L14004.3714,-3565.1656L14004.3877,-3565.1809L14004.5007,-3565.2871L14004.5198,-3565.3037L14004.5441,-3565.3209L14004.5446,-3565.3212L14004.5643,-3565.3351L14004.5854,-3565.3472L14004.6286,-3565.3708L14004.7031,-3565.414L14004.733,-3565.4313L14004.7524,-3565.4445L14004.849,-3565.499L14004.8529,-3565.5012L14004.8661,-3565.5082L14004.8783,-3565.5147L14004.9003,-3565.5281L14004.9016,-3565.5289L14004.916,-3565.537L14004.9239,-3565.5396L14004.9303,-3565.5506L14004.9778,-3565.5993L14005.1011,-3565.7283L14005.1217,-3565.7455L14005.1438,-3565.7675L14005.2216,-3565.845L14005.2256,-3565.849L14005.3029,-3565.9252L14005.3091,-3565.9302L14005.3438,-3565.9581L14005.3711,-3565.98"/>
<path content="1,千葉中央バス,京都～上野・東京ディズニーリゾート,1.0,1.0,1.0," xlink:title="1" d="M14004.5643,-3565.3351L14004.5446,-3565.3212L14004.5441,-3565.3209L14004.5198,-3565.3037L14004.5007,-3565.2871L14004.3877,-3565.1809L14004.3714,-3565.1656L14004.3666,-3565.161L14004.3665,-3565.1609L14004.3606,-3565.1556L14004.3444,-3565.1411L14004.2981,-3565.1068L14004.2741,-3565.0755L14004.2725,-3565.0734"/>
<path content="1,千葉中央バス,京都～上野・東京ディズニーリゾート,1.0,1.0,1.0," xlink:title="1" d="M14004.5643,-3565.3351L14004.6829,-3565.2774L14004.7548,-3565.244L14004.8869,-3565.1887L14004.9614,-3565.161L14005.0103,-3565.1452L14005.1017,-3565.1181L14005.2086,-3565.0863L14005.2267,-3565.0807L14005.2937,-3565.0681L14005.3622,-3565.0635"/>
<path content="1,千葉中央バス,京都～上野・東京ディズニーリゾート,1.0,1.0,1.0," xlink:title="1" d="M14004.2725,-3565.4993L14004.3746,-3565.4394L14004.516,-3565.3616L14004.5643,-3565.3351"/>
<path content="1,千葉交通,ONライナー,4.0,4.0,4.0," xlink:title="1" d="M14004.2725,-3565.4738L14004.4257,-3565.3851L14004.4751,-3565.3585L14004.5444,-3565.3213L14004.5901,-3565.2966L14004.609,-3565.2876L14004.7262,-3565.2316L14004.7815,-3565.207L14004.8626,-3565.1708L14004.9382,-3565.1408L14004.9452,-3565.1379L14004.9806,-3565.1239L14005.1004,-3565.0821L14005.104,-3565.0809L14005.1593,-3565.0635"/>
<path content="1,千葉交通,しらこばと号,3.0,3.0,3.0," xlink:title="1" d="M14004.2725,-3565.4738L14004.4257,-3565.3851L14004.4751,-3565.3585L14004.5444,-3565.3213L14004.5901,-3565.2966L14004.609,-3565.2876L14004.7262,-3565.2316L14004.7815,-3565.207L14004.8626,-3565.1708L14004.9382,-3565.1408L14004.9452,-3565.1379L14004.9806,-3565.1239L14005.1004,-3565.0821L14005.104,-3565.0809L14005.1593,-3565.0635"/>
<path content="1,千葉交通,アザレア号,7.0,7.0,7.0," xlink:title="1" d="M14004.2725,-3565.4738L14004.4257,-3565.3851L14004.4751,-3565.3585L14004.5444,-3565.3213L14004.5901,-3565.2966L14004.609,-3565.2876L14004.7262,-3565.2316L14004.7815,-3565.207L14004.8626,-3565.1708L14004.9382,-3565.1408L14004.9452,-3565.1379L14004.9806,-3565.1239L14005.1004,-3565.0821L14005.104,-3565.0809L14005.1593,-3565.0635"/>
<path content="1,千葉交通,サルビア号,3.0,3.0,3.0," xlink:title="1" d="M14005.1593,-3565.0635L14005.104,-3565.0809L14005.1004,-3565.0821L14004.9806,-3565.1239L14004.9452,-3565.1379L14004.9382,-3565.1408L14004.8626,-3565.1708L14004.7815,-3565.207L14004.7262,-3565.2316L14004.609,-3565.2876L14004.5901,-3565.2966L14004.5444,-3565.3213L14004.4751,-3565.3585L14004.4257,-3565.3851L14004.2725,-3565.4738"/>
<path content="1,千葉交通,フォレスト号,1.0,1.0,1.0," xlink:title="1" d="M14004.2725,-3565.4738L14004.4257,-3565.3851L14004.4751,-3565.3585L14004.5444,-3565.3213L14004.5901,-3565.2966L14004.609,-3565.2876L14004.7262,-3565.2316L14004.7815,-3565.207L14004.8626,-3565.1708L14004.9382,-3565.1408L14004.9452,-3565.1379L14004.9806,-3565.1239L14005.1004,-3565.0821L14005.104,-3565.0809L14005.1593,-3565.0635"/>
<path content="1,千葉交通,マロニエ号,5.0,5.0,5.0," xlink:title="1" d="M14005.1593,-3565.0635L14005.104,-3565.0809L14005.1004,-3565.0821L14004.9806,-3565.1239L14004.9452,-3565.1379L14004.9382,-3565.1408L14004.8626,-3565.1708L14004.7815,-3565.207L14004.7262,-3565.2316L14004.609,-3565.2876L14004.5901,-3565.2966L14004.5444,-3565.3213L14004.4751,-3565.3585L14004.4257,-3565.3851L14004.2725,-3565.4738"/>
<path content="1,千葉交通,メープル号,3.0,3.0,3.0," xlink:title="1" d="M14004.2725,-3565.4738L14004.4257,-3565.3851L14004.4751,-3565.3585L14004.5444,-3565.3213L14004.5901,-3565.2966L14004.609,-3565.2876L14004.7262,-3565.2316L14004.7815,-3565.207L14004.8626,-3565.1708L14004.9382,-3565.1408L14004.9452,-3565.1379L14004.9806,-3565.1239L14005.1004,-3565.0821L14005.104,-3565.0809L14005.1593,-3565.0635"/>
<path content="1,千葉交通,八日市場～東京線,7.0,7.0,7.0," xlink:title="1" d="M14004.2725,-3565.4738L14004.4257,-3565.3851L14004.4751,-3565.3585L14004.5444,-3565.3213L14004.5901,-3565.2966L14004.609,-3565.2876L14004.7262,-3565.2316L14004.7815,-3565.207L14004.8626,-3565.1708L14004.9382,-3565.1408L14004.9452,-3565.1379L14004.9806,-3565.1239L14005.1004,-3565.0821L14005.104,-3565.0809L14005.1593,-3565.0635"/>
<path content="1,千葉交通,土浦駅東口・つくばセンター・ひたち野うしく駅・牛久・竜ヶ崎ニュータウン・新利根～成田空港線,3.0,3.0,3.0," xlink:title="1" d="M14005.1593,-3565.0635L14005.104,-3565.0809L14005.1004,-3565.0821L14004.9806,-3565.1239L14004.9452,-3565.1379L14004.9382,-3565.1408L14004.8626,-3565.1708L14004.7815,-3565.207L14004.7262,-3565.2316L14004.609,-3565.2876L14004.5901,-3565.2966L14004.5444,-3565.3213L14004.4751,-3565.3585L14004.4257,-3565.3851L14004.2725,-3565.4738"/>
<path content="1,千葉交通,坂戸駅南口・川越駅西口～成田空港,4.0,4.0,4.0," xlink:title="1" d="M14004.2725,-3565.4738L14004.4257,-3565.3851L14004.4751,-3565.3585L14004.5444,-3565.3213L14004.5901,-3565.2966L14004.609,-3565.2876L14004.7262,-3565.2316L14004.7815,-3565.207L14004.8626,-3565.1708L14004.9382,-3565.1408L14004.9452,-3565.1379L14004.9806,-3565.1239L14005.1004,-3565.0821L14005.104,-3565.0809L14005.1593,-3565.0635"/>
<path content="1,千葉交通,大阪なんば・京都駅～成田・銚子線,1.0,1.0,1.0," xlink:title="1" d="M14004.2725,-3565.4738L14004.4257,-3565.3851L14004.4751,-3565.3585L14004.5444,-3565.3213L14004.5901,-3565.2966L14004.609,-3565.2876L14004.7262,-3565.2316L14004.7815,-3565.207L14004.8626,-3565.1708L14004.9382,-3565.1408L14004.9452,-3565.1379L14004.9806,-3565.1239L14005.1004,-3565.0821L14005.104,-3565.0809L14005.1593,-3565.0635"/>
<path content="1,千葉交通,成田・佐倉～東京駅・浜松町線,0.0,0.5,0.5," xlink:title="1" d="M14005.1593,-3565.0635L14005.104,-3565.0809L14005.1004,-3565.0821L14004.9806,-3565.1239L14004.9452,-3565.1379L14004.9382,-3565.1408L14004.8626,-3565.1708L14004.7815,-3565.207L14004.7262,-3565.2316L14004.609,-3565.2876L14004.5901,-3565.2966L14004.5444,-3565.3213L14004.4751,-3565.3585L14004.4257,-3565.3851L14004.2725,-3565.4738"/>
<path content="1,千葉交通,新浦安・東京ディズニーリゾート～成田空港線,4.0,4.0,4.0," xlink:title="1" d="M14005.1593,-3565.0635L14005.1057,-3565.0804L14005.1056,-3565.0804L14005.103,-3565.0813L14005.1004,-3565.0822L14004.9816,-3565.1236L14004.9805,-3565.1239L14004.9795,-3565.1243L14004.9452,-3565.1379L14004.9382,-3565.1408L14004.8627,-3565.1708L14004.8626,-3565.1708L14004.7815,-3565.207L14004.7262,-3565.2316L14004.609,-3565.2876L14004.5901,-3565.2966L14004.5446,-3565.3212L14004.4752,-3565.3586L14004.4259,-3565.3852L14004.4258,-3565.3852L14004.2725,-3565.4739"/>
<path content="1,千葉交通,福島・郡山～成田空港線,2.0,2.0,2.0," xlink:title="1" d="M14004.2725,-3565.4738L14004.4257,-3565.3851L14004.4751,-3565.3585L14004.5444,-3565.3213L14004.5901,-3565.2966L14004.609,-3565.2876L14004.7262,-3565.2316L14004.7815,-3565.207L14004.8626,-3565.1708L14004.9382,-3565.1408L14004.9452,-3565.1379L14004.9806,-3565.1239L14005.1004,-3565.0821L14005.104,-3565.0809L14005.1593,-3565.0635"/>
<path content="1,千葉交通,竜王・甲府・石和・一宮・勝沼～成田空港,3.0,3.0,3.0," xlink:title="1" d="M14004.2725,-3565.4738L14004.4257,-3565.3851L14004.4751,-3565.3585L14004.5444,-3565.3213L14004.5901,-3565.2966L14004.609,-3565.2876L14004.7262,-3565.2316L14004.7815,-3565.207L14004.8626,-3565.1708L14004.9382,-3565.1408L14004.9452,-3565.1379L14004.9806,-3565.1239L14005.1004,-3565.0821L14005.104,-3565.0809L14005.1593,-3565.0635"/>
<path content="1,千葉交通,銚子～千葉・幕張線,1.0,0.0,0.0," xlink:title="1" d="M14004.2844,-3565.0635L14004.2725,-3565.0723"/>
<path content="1,千葉交通,銚子～東京駅・浜松町線,32.0,31.0,31.0," xlink:title="1" d="M14005.1593,-3565.0635L14005.104,-3565.0809L14005.1004,-3565.0821L14004.9806,-3565.1239L14004.9452,-3565.1379L14004.9382,-3565.1408L14004.8626,-3565.1708L14004.7815,-3565.207L14004.7262,-3565.2316L14004.609,-3565.2876L14004.5901,-3565.2966L14004.5444,-3565.3213L14004.4751,-3565.3585L14004.4257,-3565.3851L14004.2725,-3565.4738"/>
<path content="1,千葉内陸バス,東京線　み春野ルート,0.5,0.0,0.0," xlink:title="1" d="M14004.2725,-3565.4738L14004.4257,-3565.3851L14004.4751,-3565.3585L14004.5444,-3565.3213L14004.5901,-3565.2966L14004.609,-3565.2876L14004.7262,-3565.2316L14004.7815,-3565.207L14004.8626,-3565.1708L14004.9382,-3565.1408L14004.9452,-3565.1379L14004.9806,-3565.1239L14005.1004,-3565.0821L14005.104,-3565.0809L14005.1593,-3565.0635"/>
<path content="1,千葉内陸バス,東京線　国立民俗博物館・川村記念美術館ルート,1.0,1.0,1.0," xlink:title="1" d="M14004.2725,-3565.4738L14004.4257,-3565.3851L14004.4751,-3565.3585L14004.5444,-3565.3213L14004.5901,-3565.2966L14004.609,-3565.2876L14004.7262,-3565.2316L14004.7815,-3565.207L14004.8626,-3565.1708L14004.9382,-3565.1408L14004.9452,-3565.1379L14004.9806,-3565.1239L14005.1004,-3565.0821L14005.104,-3565.0809L14005.1593,-3565.0635"/>
<path content="1,千葉内陸バス,東京線　臼井・千代田ルート,2.5,2.5,2.5," xlink:title="1" d="M14004.2725,-3565.4738L14004.4257,-3565.3851L14004.4751,-3565.3585L14004.5444,-3565.3213L14004.5901,-3565.2966L14004.609,-3565.2876L14004.7262,-3565.2316L14004.7815,-3565.207L14004.8626,-3565.1708L14004.9382,-3565.1408L14004.9452,-3565.1379L14004.9806,-3565.1239L14005.1004,-3565.0821L14005.104,-3565.0809L14005.1593,-3565.0635"/>
<path content="1,千葉内陸バス,羽田線,6.0,6.0,6.0," xlink:title="1" d="M14004.2725,-3565.4738L14004.4257,-3565.3851L14004.4751,-3565.3585L14004.5444,-3565.3213L14004.5901,-3565.2966L14004.609,-3565.2876L14004.7262,-3565.2316L14004.7815,-3565.207L14004.8626,-3565.1708L14004.9382,-3565.1408L14004.9452,-3565.1379L14004.9806,-3565.1239L14005.1004,-3565.0821L14005.104,-3565.0809L14005.1593,-3565.0635"/>
<path content="1,千葉海浜交通,ベイタウン北循環線,17.0,0.0,0.0," xlink:title="1" d="M14004.2725,-3565.0734L14004.2741,-3565.0755L14004.2981,-3565.1068L14004.3444,-3565.1411L14004.3606,-3565.1556L14004.3665,-3565.1609L14004.3666,-3565.161"/>
<path content="1,千葉海浜交通,ベイタウン北循環線,17.0,0.0,0.0," xlink:title="1" d="M14004.2725,-3565.2306L14004.2874,-3565.2196L14004.3431,-3565.1792L14004.3666,-3565.161"/>
<path content="1,千葉海浜交通,ベイタウン北循環線,17.0,0.0,0.0," xlink:title="1" d="M14004.3666,-3565.161L14004.3859,-3565.1469L14004.412,-3565.1306L14004.4507,-3565.1134L14004.4517,-3565.1129L14004.4628,-3565.1087L14004.4786,-3565.1027L14004.4807,-3565.1021L14004.4867,-3565.1005L14004.4927,-3565.0984L14004.4928,-3565.0984L14004.4936,-3565.0982L14004.5097,-3565.0937L14004.5206,-3565.0915L14004.5452,-3565.086L14004.564,-3565.0827L14004.5723,-3565.0819L14004.5818,-3565.081L14004.6251,-3565.0757L14004.6693,-3565.0665L14004.6783,-3565.0635"/>
<path content="1,千葉海浜交通,マリンスタジアム線,16.0,21.0,21.0," xlink:title="1" d="M14004.2725,-3565.0734L14004.2741,-3565.0755L14004.2981,-3565.1068L14004.3444,-3565.1411L14004.3606,-3565.1556L14004.3665,-3565.1609L14004.3666,-3565.161L14004.3859,-3565.1469L14004.412,-3565.1306L14004.4507,-3565.1134L14004.4517,-3565.1129L14004.4628,-3565.1087L14004.4786,-3565.1027L14004.4807,-3565.1021L14004.4867,-3565.1005L14004.4927,-3565.0984L14004.4928,-3565.0984L14004.4936,-3565.0982L14004.5097,-3565.0937L14004.5206,-3565.0915L14004.5452,-3565.086L14004.564,-3565.0827L14004.5723,-3565.0819L14004.5818,-3565.081L14004.6251,-3565.0757L14004.6693,-3565.0665L14004.6783,-3565.0635"/>
<path content="1,千葉海浜交通,幕張線,2.0,0.0,0.0," xlink:title="1" d="M14004.2725,-3565.0734L14004.2741,-3565.0755L14004.2981,-3565.1068L14004.3444,-3565.1411L14004.3606,-3565.1556L14004.3665,-3565.1609L14004.3666,-3565.161L14004.3859,-3565.1469L14004.412,-3565.1306L14004.4507,-3565.1134L14004.4517,-3565.1129L14004.4628,-3565.1087L14004.4786,-3565.1027L14004.4807,-3565.1021L14004.4867,-3565.1005L14004.4927,-3565.0984L14004.4928,-3565.0984L14004.4936,-3565.0982L14004.5097,-3565.0937L14004.5206,-3565.0915L14004.5452,-3565.086L14004.564,-3565.0827L14004.5723,-3565.0819L14004.5818,-3565.081L14004.6251,-3565.0757L14004.6693,-3565.0665L14004.6783,-3565.0635"/>
<path content="1,千葉海浜交通,幕張線,2.0,0.0,0.0," xlink:title="1" d="M14005.3711,-3565.5784L14005.368,-3565.5751L14005.2164,-3565.4129L14005.2066,-3565.4023L14005.2025,-3565.3978L14005.1727,-3565.3661L14005.1655,-3565.3588L14005.1611,-3565.3534L14005.1559,-3565.3479L14005.1455,-3565.3346L14005.109,-3565.2992L14004.9873,-3565.1843L14004.9614,-3565.161L14004.9382,-3565.1408L14004.9378,-3565.1404L14004.9137,-3565.1194L14004.8917,-3565.1055L14004.8811,-3565.0961L14004.847,-3565.0635"/>
<path content="1,南海バス（株）,大阪（なんば）・京都⇔秋葉原・成田空港・銚子,1.0,1.0,1.0," xlink:title="1" d="M14004.2725,-3565.4738L14004.4257,-3565.3851L14004.5901,-3565.2966L14004.609,-3565.2876L14004.7262,-3565.2316L14004.8626,-3565.1708L14004.9795,-3565.1243L14005.1055,-3565.0804L14005.1592,-3565.0635"/>
<path content="1,国際十王交通（株）,成田空港線,2.0,2.0,2.0," xlink:title="1" d="M14005.1593,-3565.0635L14005.104,-3565.0809L14005.1004,-3565.0821L14004.9806,-3565.1239L14004.9452,-3565.1379L14004.9382,-3565.1408L14004.8626,-3565.1708L14004.7815,-3565.207L14004.7262,-3565.2316L14004.609,-3565.2876L14004.5901,-3565.2966L14004.5444,-3565.3213L14004.4751,-3565.3585L14004.4257,-3565.3851L14004.2725,-3565.4738"/>
<path content="1,国際興業（株）,ONライナー,1.0,1.0,1.0," xlink:title="1" d="M14004.2725,-3565.4738L14004.4257,-3565.3851L14004.4751,-3565.3585L14004.5444,-3565.3213L14004.5901,-3565.2966L14004.609,-3565.2876L14004.7262,-3565.2316L14004.7815,-3565.207L14004.8626,-3565.1708L14004.9382,-3565.1408L14004.9452,-3565.1379L14004.9806,-3565.1239L14005.1004,-3565.0821L14005.104,-3565.0809L14005.1593,-3565.0635"/>
<path content="1,奈良交通（株）,やまと号　奈良-東京ディズニーリゾート・横浜線,1.0,1.0,1.0," xlink:title="1" d="M14004.2725,-3565.0732L14004.3444,-3565.1411L14004.3666,-3565.161L14004.3877,-3565.1809L14004.5007,-3565.2871L14004.5198,-3565.3037L14004.5446,-3565.3212L14004.4257,-3565.3851L14004.2725,-3565.4738"/>
<path content="1,宮城交通（株）,ポーラスター,1.0,1.0,1.0," xlink:title="1" d="M14004.5384,-3566.1621L14004.5473,-3566.1564L14004.5692,-3566.1417L14004.5754,-3566.1383L14004.5901,-3566.1279L14004.6263,-3566.1025L14004.8182,-3565.9804L14004.8395,-3565.9665L14004.9464,-3565.8968L14005.0387,-3565.8367L14005.0666,-3565.8185L14005.1438,-3565.7675L14005.2711,-3565.6834L14005.3711,-3565.619"/>
<path content="1,富士急湘南バス（株）,小田原～成田空港線,3.0,3.0,3.0," xlink:title="1" d="M14005.1593,-3565.0635L14005.104,-3565.0809L14005.1004,-3565.0821L14004.9806,-3565.1239L14004.9452,-3565.1379L14004.9382,-3565.1408L14004.8626,-3565.1708L14004.7815,-3565.207L14004.7262,-3565.2316L14004.609,-3565.2876L14004.5901,-3565.2966L14004.5444,-3565.3213L14004.4751,-3565.3585L14004.4257,-3565.3851L14004.2725,-3565.4738"/>
<path content="1,富士急行（株）,小田原～成田空港線,3.0,3.0,3.0," xlink:title="1" d="M14004.2725,-3565.4738L14004.4257,-3565.3851L14004.4751,-3565.3585L14004.5444,-3565.3213L14004.5901,-3565.2966L14004.609,-3565.2876L14004.7262,-3565.2316L14004.7815,-3565.207L14004.8626,-3565.1708L14004.9382,-3565.1408L14004.9452,-3565.1379L14004.9806,-3565.1239L14005.1004,-3565.0821L14005.104,-3565.0809L14005.1593,-3565.0635"/>
<path content="1,富士急行（株）,新富士・沼津・御殿場～成田空港線,2.0,2.0,2.0," xlink:title="1" d="M14004.2725,-3565.4738L14004.4257,-3565.3851L14004.4751,-3565.3585L14004.5444,-3565.3213L14004.5901,-3565.2966L14004.609,-3565.2876L14004.7262,-3565.2316L14004.7815,-3565.207L14004.8626,-3565.1708L14004.9382,-3565.1408L14004.9452,-3565.1379L14004.9806,-3565.1239L14005.1004,-3565.0821L14005.104,-3565.0809L14005.1593,-3565.0635"/>
<path content="1,富士急静岡バス（株）,新富士・沼津・御殿場～成田空港線,2.0,2.0,2.0," xlink:title="1" d="M14004.2725,-3565.4738L14004.4257,-3565.3851L14004.5901,-3565.2966L14004.609,-3565.2876L14004.7262,-3565.2316L14004.8626,-3565.1708L14004.9795,-3565.1243L14005.1055,-3565.0804L14005.1592,-3565.0635"/>
<path content="1,小湊鉄道,五井～新宿,7.0,7.0,7.0," xlink:title="1" d="M14005.1593,-3565.0635L14005.104,-3565.0809L14005.1004,-3565.0821L14004.9806,-3565.1239L14004.9452,-3565.1379L14004.9382,-3565.1408L14004.8626,-3565.1708L14004.7815,-3565.207L14004.7262,-3565.2316L14004.609,-3565.2876L14004.5901,-3565.2966L14004.5444,-3565.3213L14004.4751,-3565.3585L14004.4257,-3565.3851L14004.2725,-3565.4738"/>
<path content="1,小湊鉄道,白子・茂原～東京線,6.0,6.0,6.0," xlink:title="1" d="M14005.1593,-3565.0635L14005.104,-3565.0809L14005.1004,-3565.0821L14004.9806,-3565.1239L14004.9452,-3565.1379L14004.9382,-3565.1408L14004.8626,-3565.1708L14004.7815,-3565.207L14004.7262,-3565.2316L14004.609,-3565.2876L14004.5901,-3565.2966L14004.5444,-3565.3213L14004.4751,-3565.3585L14004.4257,-3565.3851L14004.2725,-3565.4738"/>
<path content="1,小田急バス（株）,吉祥寺駅～成田空港線,3.5,3.5,3.5," xlink:title="1" d="M14004.2725,-3565.4738L14004.4257,-3565.3851L14004.4751,-3565.3585L14004.5444,-3565.3213L14004.5901,-3565.2966L14004.609,-3565.2876L14004.7262,-3565.2316L14004.7815,-3565.207L14004.8626,-3565.1708L14004.9382,-3565.1408L14004.9452,-3565.1379L14004.9806,-3565.1239L14005.1004,-3565.0821L14005.104,-3565.0809L14005.1593,-3565.0635"/>
<path content="1,小田急バス（株）,新宿～五井線,3.5,3.0,3.0," xlink:title="1" d="M14005.1593,-3565.0635L14005.104,-3565.0809L14005.1004,-3565.0821L14004.9806,-3565.1239L14004.9452,-3565.1379L14004.9382,-3565.1408L14004.8626,-3565.1708L14004.7815,-3565.207L14004.7262,-3565.2316L14004.609,-3565.2876L14004.5901,-3565.2966L14004.5444,-3565.3213L14004.4751,-3565.3585L14004.4257,-3565.3851L14004.2725,-3565.4738"/>
<path content="1,小田急バス（株）,新百合ヶ丘駅～たまプラーザ駅～成田空港線,8.0,8.0,8.0," xlink:title="1" d="M14004.2725,-3565.4738L14004.4257,-3565.3851L14004.4751,-3565.3585L14004.5444,-3565.3213L14004.5901,-3565.2966L14004.609,-3565.2876L14004.7262,-3565.2316L14004.7815,-3565.207L14004.8626,-3565.1708L14004.9382,-3565.1408L14004.9452,-3565.1379L14004.9806,-3565.1239L14005.1004,-3565.0821L14005.104,-3565.0809L14005.1593,-3565.0635"/>
<path content="1,山梨交通（株）,竜王・甲府～成田空港線,3.0,3.0,3.0," xlink:title="1" d="M14004.2725,-3565.4738L14004.4257,-3565.3851L14004.4751,-3565.3585L14004.5444,-3565.3213L14004.5901,-3565.2966L14004.609,-3565.2876L14004.7262,-3565.2316L14004.7815,-3565.207L14004.8626,-3565.1708L14004.9382,-3565.1408L14004.9452,-3565.1379L14004.9806,-3565.1239L14005.1004,-3565.0821L14005.104,-3565.0809L14005.1593,-3565.0635"/>
<path content="1,川崎鶴見臨港バス,新横浜成田空港線,10.0,10.0,10.0," xlink:title="1" d="M14004.2725,-3565.4738L14004.4257,-3565.3851L14004.4751,-3565.3585L14004.5444,-3565.3213L14004.5901,-3565.2966L14004.609,-3565.2876L14004.7262,-3565.2316L14004.7815,-3565.207L14004.8626,-3565.1708L14004.9382,-3565.1408L14004.9452,-3565.1379L14004.9806,-3565.1239L14005.1004,-3565.0821L14005.104,-3565.0809L14005.1593,-3565.0635"/>
<path content="1,川越観光自動車,高速バス成田線,4.0,4.0,4.0," xlink:title="1" d="M14005.1593,-3565.0635L14005.104,-3565.0809L14005.1004,-3565.0821L14004.9806,-3565.1239L14004.9452,-3565.1379L14004.9382,-3565.1408L14004.8626,-3565.1708L14004.7815,-3565.207L14004.7262,-3565.2316L14004.609,-3565.2876L14004.5901,-3565.2966L14004.5444,-3565.3213L14004.4751,-3565.3585L14004.4257,-3565.3851L14004.2725,-3565.4738"/>
<path content="1,平和交通,海浜幕張01,10.0,10.0,10.0," xlink:title="1" d="M14004.2725,-3565.0734L14004.2741,-3565.0755L14004.2981,-3565.1068L14004.3444,-3565.1411L14004.3606,-3565.1556L14004.3665,-3565.1609L14004.3666,-3565.161L14004.3714,-3565.1656L14004.3877,-3565.1809L14004.5007,-3565.2871L14004.5198,-3565.3037L14004.5441,-3565.3209L14004.5446,-3565.3212L14004.5643,-3565.3351L14004.5854,-3565.3472L14004.6286,-3565.3708L14004.7031,-3565.414L14004.733,-3565.4313L14004.7524,-3565.4445L14004.849,-3565.499L14004.8529,-3565.5012L14004.8661,-3565.5082L14004.8783,-3565.5147L14004.9003,-3565.5281L14004.9016,-3565.5289L14004.916,-3565.537L14004.9239,-3565.5396L14004.9303,-3565.5506L14004.9778,-3565.5993L14005.1011,-3565.7283L14005.1217,-3565.7455L14005.1438,-3565.7675L14005.2216,-3565.845L14005.2256,-3565.849L14005.3029,-3565.9252L14005.2536,-3565.9646L14005.2531,-3565.9651L14005.1981,-3566.0095L14005.1706,-3566.0331L14005.1635,-3566.0394L14005.1384,-3566.0513L14005.0568,-3566.0859L14005.022,-3566.1007L14004.9527,-3566.1304L14004.8941,-3566.1543L14004.8823,-3566.159L14004.8732,-3566.1621"/>
<path content="1,成田空港交通,仙台線,1.0,1.0,1.0," xlink:title="1" d="M14005.3711,-3565.5828L14005.2489,-3565.6537L14005.1011,-3565.7283L14005.0177,-3565.8137L14004.9263,-3565.8738L14004.8986,-3565.8918L14004.7252,-3566.0038L14004.6482,-3566.0536L14004.6176,-3566.0736L14004.5648,-3566.108L14004.5554,-3566.1142L14004.5493,-3566.1182L14004.5409,-3566.1234L14004.5146,-3566.1413L14004.4841,-3566.1621"/>
<path content="1,成田空港交通,千葉線,7.5,7.5,7.5," xlink:title="1" d="M14004.2844,-3565.0635L14004.2725,-3565.0723"/>
<path content="1,成田空港交通,千葉線,7.5,7.5,7.5," xlink:title="1" d="M14005.1593,-3565.0635L14005.104,-3565.0809L14005.1004,-3565.0821L14004.9806,-3565.1239L14004.9452,-3565.1379L14004.9382,-3565.1408L14004.8626,-3565.1708L14004.7815,-3565.207L14004.7262,-3565.2316L14004.609,-3565.2876L14004.5901,-3565.2966L14004.5444,-3565.3213L14004.5198,-3565.3037L14004.5007,-3565.2871L14004.3877,-3565.1809L14004.3714,-3565.1656L14004.3665,-3565.161L14004.3606,-3565.1556L14004.3444,-3565.1411L14004.2981,-3565.1068L14004.2741,-3565.0755L14004.2725,-3565.0734"/>
<path content="1,成田空港交通,和歌山線,1.0,1.0,1.0," xlink:title="1" d="M14004.2725,-3565.0734L14004.2741,-3565.0755L14004.2981,-3565.1068L14004.3444,-3565.1411L14004.3606,-3565.1556L14004.3665,-3565.161L14004.3714,-3565.1656L14004.3877,-3565.1809L14004.5007,-3565.2871L14004.5198,-3565.3037L14004.5444,-3565.3213L14004.4751,-3565.3585L14004.4257,-3565.3851L14004.2725,-3565.4738"/>
<path content="1,成田空港交通,立川線,3.0,3.0,3.0," xlink:title="1" d="M14004.2725,-3565.4738L14004.4257,-3565.3851L14004.4751,-3565.3585L14004.5444,-3565.3213L14004.5901,-3565.2966L14004.609,-3565.2876L14004.7262,-3565.2316L14004.7815,-3565.207L14004.8626,-3565.1708L14004.9382,-3565.1408L14004.9452,-3565.1379L14004.9806,-3565.1239L14005.1004,-3565.0821L14005.104,-3565.0809L14005.1593,-3565.0635"/>
<path content="1,東京ベイシティ交通,成田空港～新浦安地区線,2.0,2.0,2.0," xlink:title="1" d="M14004.2725,-3565.4738L14004.4257,-3565.3851L14004.4751,-3565.3585L14004.5444,-3565.3213L14004.5901,-3565.2966L14004.609,-3565.2876L14004.7262,-3565.2316L14004.7815,-3565.207L14004.8626,-3565.1708L14004.9382,-3565.1408L14004.9452,-3565.1379L14004.9806,-3565.1239L14005.1004,-3565.0821L14005.104,-3565.0809L14005.1593,-3565.0635"/>
<path content="1,東京ベイシティ交通,成田空港～東京ディズニーリゾート線,2.0,2.0,2.0," xlink:title="1" d="M14004.2725,-3565.4738L14004.4257,-3565.3851L14004.4751,-3565.3585L14004.5444,-3565.3213L14004.5901,-3565.2966L14004.609,-3565.2876L14004.7262,-3565.2316L14004.7815,-3565.207L14004.8626,-3565.1708L14004.9382,-3565.1408L14004.9452,-3565.1379L14004.9806,-3565.1239L14005.1004,-3565.0821L14005.104,-3565.0809L14005.1593,-3565.0635"/>
<path content="1,東京空港交通（株）,ふじみ野・新座・志木・朝霞台エリア～成田空港線,3.0,3.0,3.0," xlink:title="1" d="M14004.2725,-3565.4738L14004.4257,-3565.3851L14004.4751,-3565.3585L14004.5444,-3565.3213L14004.5901,-3565.2966L14004.609,-3565.2876L14004.7262,-3565.2316L14004.7815,-3565.207L14004.8626,-3565.1708L14004.9382,-3565.1408L14004.9452,-3565.1379L14004.9806,-3565.1239L14005.1004,-3565.0821L14005.104,-3565.0809L14005.1593,-3565.0635"/>
<path content="1,東京空港交通（株）,みなとみらいエリア～成田空港線,4.0,4.0,4.0," xlink:title="1" d="M14004.2725,-3565.4738L14004.4257,-3565.3851L14004.4751,-3565.3585L14004.5444,-3565.3213L14004.5901,-3565.2966L14004.609,-3565.2876L14004.7262,-3565.2316L14004.7815,-3565.207L14004.8626,-3565.1708L14004.9382,-3565.1408L14004.9452,-3565.1379L14004.9806,-3565.1239L14005.1004,-3565.0821L14005.104,-3565.0809L14005.1593,-3565.0635"/>
<path content="1,東京空港交通（株）,八王子エリア～成田空港線,3.5,3.5,3.5," xlink:title="1" d="M14004.2725,-3565.4738L14004.4257,-3565.3851L14004.4751,-3565.3585L14004.5444,-3565.3213L14004.5901,-3565.2966L14004.609,-3565.2876L14004.7262,-3565.2316L14004.7815,-3565.207L14004.8626,-3565.1708L14004.9382,-3565.1408L14004.9452,-3565.1379L14004.9806,-3565.1239L14005.1004,-3565.0821L14005.104,-3565.0809L14005.1593,-3565.0635"/>
<path content="1,東京空港交通（株）,六本木エリア～成田空港線,14.5,14.5,14.5," xlink:title="1" d="M14004.2725,-3565.4738L14004.4257,-3565.3851L14004.4751,-3565.3585L14004.5444,-3565.3213L14004.5901,-3565.2966L14004.609,-3565.2876L14004.7262,-3565.2316L14004.7815,-3565.207L14004.8626,-3565.1708L14004.9382,-3565.1408L14004.9452,-3565.1379L14004.9806,-3565.1239L14005.1004,-3565.0821L14005.104,-3565.0809L14005.1593,-3565.0635"/>
<path content="1,東京空港交通（株）,千葉エリア～羽田空港線,13.0,13.0,13.0," xlink:title="1" d="M14004.2725,-3565.4738L14004.4257,-3565.3851L14004.4751,-3565.3585L14004.5444,-3565.3213L14004.5901,-3565.2966L14004.609,-3565.2876L14004.7262,-3565.2316L14004.7815,-3565.207L14004.8626,-3565.1708L14004.9382,-3565.1408L14004.9452,-3565.1379L14004.9806,-3565.1239L14005.1004,-3565.0821L14005.104,-3565.0809L14005.1593,-3565.0635M14004.6788,-3565.0635L14004.6694,-3565.0667L14004.6251,-3565.0758L14004.582,-3565.0812L14004.5724,-3565.082L14004.5641,-3565.0827L14004.5454,-3565.0861L14004.5206,-3565.0915L14004.5099,-3565.0938L14004.493,-3565.0983L14004.4867,-3565.1005L14004.4796,-3565.1024L14004.4628,-3565.1087L14004.4511,-3565.1132L14004.412,-3565.1306L14004.3859,-3565.1469L14004.3665,-3565.161L14004.3606,-3565.1556L14004.3444,-3565.1411L14004.2981,-3565.1068L14004.2741,-3565.0755L14004.2725,-3565.0734"/>
<path content="1,東京空港交通（株）,千葉エリア～羽田空港線,13.0,13.0,13.0," xlink:title="1" d="M14004.564,-3565.0827L14004.5612,-3565.0635"/>
<path content="1,東京空港交通（株）,南大沢駅・京王多摩センター駅・聖蹟桜ヶ丘駅～成田空港線,4.0,4.0,4.0," xlink:title="1" d="M14004.2725,-3565.4738L14004.4257,-3565.3851L14004.4751,-3565.3585L14004.5444,-3565.3213L14004.5901,-3565.2966L14004.609,-3565.2876L14004.7262,-3565.2316L14004.7815,-3565.207L14004.8626,-3565.1708L14004.9382,-3565.1408L14004.9452,-3565.1379L14004.9806,-3565.1239L14005.1004,-3565.0821L14005.104,-3565.0809L14005.1593,-3565.0635"/>
<path content="1,東京空港交通（株）,吉祥寺駅～成田空港線,2.0,2.0,2.0," xlink:title="1" d="M14004.2725,-3565.4738L14004.4257,-3565.3851L14004.4751,-3565.3585L14004.5444,-3565.3213L14004.5901,-3565.2966L14004.609,-3565.2876L14004.7262,-3565.2316L14004.7815,-3565.207L14004.8626,-3565.1708L14004.9382,-3565.1408L14004.9452,-3565.1379L14004.9806,-3565.1239L14005.1004,-3565.0821L14005.104,-3565.0809L14005.1593,-3565.0635"/>
<path content="1,東京空港交通（株）,四街道・稲毛エリア～羽田空港線,6.0,6.0,6.0," xlink:title="1" d="M14004.2725,-3565.4738L14004.4257,-3565.3851L14004.4751,-3565.3585L14004.5444,-3565.3213L14004.5901,-3565.2966L14004.609,-3565.2876L14004.7262,-3565.2316L14004.7815,-3565.207L14004.8626,-3565.1708L14004.9382,-3565.1408L14004.9452,-3565.1379L14004.9806,-3565.1239L14005.1004,-3565.0821L14005.104,-3565.0809L14005.1593,-3565.0635"/>
<path content="1,東京空港交通（株）,大網・千葉市東南部エリア～羽田空港線,6.5,6.5,6.5," xlink:title="1" d="M14004.2725,-3565.4738L14004.4257,-3565.3851L14004.4751,-3565.3585L14004.5444,-3565.3213L14004.5901,-3565.2966L14004.609,-3565.2876L14004.7262,-3565.2316L14004.7815,-3565.207L14004.8626,-3565.1708L14004.9382,-3565.1408L14004.9452,-3565.1379L14004.9806,-3565.1239L14005.1004,-3565.0821L14005.104,-3565.0809L14005.1593,-3565.0635"/>
<path content="1,東京空港交通（株）,恵比寿・品川エリア～成田空港線,41.0,41.0,41.0," xlink:title="1" d="M14004.2725,-3565.4738L14004.4257,-3565.3851L14004.4751,-3565.3585L14004.5444,-3565.3213L14004.5901,-3565.2966L14004.609,-3565.2876L14004.7262,-3565.2316L14004.7815,-3565.207L14004.8626,-3565.1708L14004.9382,-3565.1408L14004.9452,-3565.1379L14004.9806,-3565.1239L14005.1004,-3565.0821L14005.104,-3565.0809L14005.1593,-3565.0635"/>
<path content="1,東京空港交通（株）,新宿エリア～成田空港線,49.0,49.0,49.0," xlink:title="1" d="M14005.1593,-3565.0635L14005.104,-3565.0809L14005.1004,-3565.0821L14004.9806,-3565.1239L14004.9452,-3565.1379L14004.9382,-3565.1408L14004.8626,-3565.1708L14004.7815,-3565.207L14004.7262,-3565.2316L14004.609,-3565.2876L14004.5901,-3565.2966L14004.5444,-3565.3213L14004.4751,-3565.3585L14004.4257,-3565.3851L14004.2725,-3565.4738"/>
<path content="1,東京空港交通（株）,新宿駅西口～　新浦安・行徳・千葉地区,1.0,1.0,1.0," xlink:title="1" d="M14005.1593,-3565.0635L14005.104,-3565.0809L14005.1004,-3565.0821L14004.9806,-3565.1239L14004.9452,-3565.1379L14004.9382,-3565.1408L14004.8626,-3565.1708L14004.7815,-3565.207L14004.7262,-3565.2316L14004.609,-3565.2876L14004.5901,-3565.2966L14004.5444,-3565.3213L14004.4751,-3565.3585L14004.4257,-3565.3851L14004.2725,-3565.4738"/>
<path content="1,東京空港交通（株）,新横浜エリア～成田空港線,5.0,5.0,5.0," xlink:title="1" d="M14004.2725,-3565.4738L14004.4257,-3565.3851L14004.4751,-3565.3585L14004.5444,-3565.3213L14004.5901,-3565.2966L14004.609,-3565.2876L14004.7262,-3565.2316L14004.7815,-3565.207L14004.8626,-3565.1708L14004.9382,-3565.1408L14004.9452,-3565.1379L14004.9806,-3565.1239L14005.1004,-3565.0821L14005.104,-3565.0809L14005.1593,-3565.0635"/>
<path content="1,東京空港交通（株）,新浦安エリア～成田空港線,4.0,4.0,4.0," xlink:title="1" d="M14005.1593,-3565.0635L14005.104,-3565.0809L14005.1004,-3565.0821L14004.9806,-3565.1239L14004.9452,-3565.1379L14004.9382,-3565.1408L14004.8626,-3565.1708L14004.7815,-3565.207L14004.7262,-3565.2316L14004.609,-3565.2876L14004.5901,-3565.2966L14004.5444,-3565.3213L14004.4751,-3565.3585L14004.4257,-3565.3851L14004.2725,-3565.4738"/>
<path content="1,東京空港交通（株）,新越谷駅・草加駅・八潮駅～成田空港線,3.0,3.0,3.0," xlink:title="1" d="M14005.1593,-3565.0635L14005.104,-3565.0809L14005.1004,-3565.0821L14004.9806,-3565.1239L14004.9452,-3565.1379L14004.9382,-3565.1408L14004.8626,-3565.1708L14004.7815,-3565.207L14004.7262,-3565.2316L14004.609,-3565.2876L14004.5901,-3565.2966L14004.5444,-3565.3213L14004.4751,-3565.3585L14004.4257,-3565.3851L14004.2725,-3565.4738"/>
<path content="1,東京空港交通（株）,日比谷エリア～成田空港線,14.5,14.5,14.5," xlink:title="1" d="M14004.2725,-3565.4738L14004.4257,-3565.3851L14004.4751,-3565.3585L14004.5444,-3565.3213L14004.5901,-3565.2966L14004.609,-3565.2876L14004.7262,-3565.2316L14004.7815,-3565.207L14004.8626,-3565.1708L14004.9382,-3565.1408L14004.9452,-3565.1379L14004.9806,-3565.1239L14005.1004,-3565.0821L14005.104,-3565.0809L14005.1593,-3565.0635"/>
<path content="1,東京空港交通（株）,東京シティ・エアターミナル～成田空港,69.5,69.5,69.5," xlink:title="1" d="M14005.1593,-3565.0635L14005.104,-3565.0809L14005.1004,-3565.0821L14004.9806,-3565.1239L14004.9452,-3565.1379L14004.9382,-3565.1408L14004.8626,-3565.1708L14004.7815,-3565.207L14004.7262,-3565.2316L14004.609,-3565.2876L14004.5901,-3565.2966L14004.5444,-3565.3213L14004.4751,-3565.3585L14004.4257,-3565.3851L14004.2725,-3565.4738"/>
<path content="1,東京空港交通（株）,東京ディズニーリゾートエリア～成田空港線,1.5,1.5,1.5," xlink:title="1" d="M14004.2725,-3565.4738L14004.4257,-3565.3851L14004.4751,-3565.3585L14004.5444,-3565.3213L14004.5901,-3565.2966L14004.609,-3565.2876L14004.7262,-3565.2316L14004.7815,-3565.207L14004.8626,-3565.1708L14004.9382,-3565.1408L14004.9452,-3565.1379L14004.9806,-3565.1239L14005.1004,-3565.0821L14005.104,-3565.0809L14005.1593,-3565.0635"/>
<path content="1,東京空港交通（株）,東京駅・日本橋エリア～成田空港線,30.0,30.0,30.0," xlink:title="1" d="M14004.2725,-3565.4738L14004.4257,-3565.3851L14004.4751,-3565.3585L14004.5444,-3565.3213L14004.5901,-3565.2966L14004.609,-3565.2876L14004.7262,-3565.2316L14004.7815,-3565.207L14004.8626,-3565.1708L14004.9382,-3565.1408L14004.9452,-3565.1379L14004.9806,-3565.1239L14005.1004,-3565.0821L14005.104,-3565.0809L14005.1593,-3565.0635"/>
<path content="1,東京空港交通（株）,横浜シティエアターミナル～成田空港線,24.0,24.0,24.0," xlink:title="1" d="M14004.2725,-3565.4738L14004.4257,-3565.3851L14004.4751,-3565.3585L14004.5444,-3565.3213L14004.5901,-3565.2966L14004.609,-3565.2876L14004.7262,-3565.2316L14004.7815,-3565.207L14004.8626,-3565.1708L14004.9382,-3565.1408L14004.9452,-3565.1379L14004.9806,-3565.1239L14005.1004,-3565.0821L14005.104,-3565.0809L14005.1593,-3565.0635"/>
<path content="1,東京空港交通（株）,池袋エリア～成田空港線,15.0,15.0,15.0," xlink:title="1" d="M14004.2725,-3565.4738L14004.4257,-3565.3851L14004.4751,-3565.3585L14004.5444,-3565.3213L14004.5901,-3565.2966L14004.609,-3565.2876L14004.7262,-3565.2316L14004.7815,-3565.207L14004.8626,-3565.1708L14004.9382,-3565.1408L14004.9452,-3565.1379L14004.9806,-3565.1239L14005.1004,-3565.0821L14005.104,-3565.0809L14005.1593,-3565.0635"/>
<path content="1,東京空港交通（株）,深谷駅・籠原駅・熊谷駅・森林公園駅～成田空港線,1.0,1.0,1.0," xlink:title="1" d="M14004.2725,-3565.4738L14004.4257,-3565.3851L14004.4751,-3565.3585L14004.5444,-3565.3213L14004.5901,-3565.2966L14004.609,-3565.2876L14004.7262,-3565.2316L14004.7815,-3565.207L14004.8626,-3565.1708L14004.9382,-3565.1408L14004.9452,-3565.1379L14004.9806,-3565.1239L14005.1004,-3565.0821L14005.104,-3565.0809L14005.1593,-3565.0635"/>
<path content="1,東京空港交通（株）,渋谷エリア～成田空港線,11.0,11.0,11.0," xlink:title="1" d="M14005.1593,-3565.0635L14005.104,-3565.0809L14005.1004,-3565.0821L14004.9806,-3565.1239L14004.9452,-3565.1379L14004.9382,-3565.1408L14004.8626,-3565.1708L14004.7815,-3565.207L14004.7262,-3565.2316L14004.609,-3565.2876L14004.5901,-3565.2966L14004.5444,-3565.3213L14004.4751,-3565.3585L14004.4257,-3565.3851L14004.2725,-3565.4738"/>
<path content="1,東京空港交通（株）,目白・九段・後楽園エリア～成田空港線,8.5,8.5,8.5," xlink:title="1" d="M14004.2725,-3565.4738L14004.4257,-3565.3851L14004.4751,-3565.3585L14004.5444,-3565.3213L14004.5901,-3565.2966L14004.609,-3565.2876L14004.7262,-3565.2316L14004.7815,-3565.207L14004.8626,-3565.1708L14004.9382,-3565.1408L14004.9452,-3565.1379L14004.9806,-3565.1239L14005.1004,-3565.0821L14005.104,-3565.0809L14005.1593,-3565.0635"/>
<path content="1,東京空港交通（株）,立川エリア～成田空港線,3.0,3.0,3.0," xlink:title="1" d="M14004.2725,-3565.4738L14004.4257,-3565.3851L14004.4751,-3565.3585L14004.5444,-3565.3213L14004.5901,-3565.2966L14004.609,-3565.2876L14004.7262,-3565.2316L14004.7815,-3565.207L14004.8626,-3565.1708L14004.9382,-3565.1408L14004.9452,-3565.1379L14004.9806,-3565.1239L14005.1004,-3565.0821L14005.104,-3565.0809L14005.1593,-3565.0635"/>
<path content="1,東京空港交通（株）,竹芝・お台場・有明エリア～成田空港線,11.0,11.0,11.0," xlink:title="1" d="M14004.2725,-3565.4738L14004.4257,-3565.3851L14004.4751,-3565.3585L14004.5444,-3565.3213L14004.5901,-3565.2966L14004.609,-3565.2876L14004.7262,-3565.2316L14004.7815,-3565.207L14004.8626,-3565.1708L14004.9382,-3565.1408L14004.9452,-3565.1379L14004.9806,-3565.1239L14005.1004,-3565.0821L14005.104,-3565.0809L14005.1593,-3565.0635"/>
<path content="1,東京空港交通（株）,羽田空港～成田空港線,43.5,43.5,43.5," xlink:title="1" d="M14004.2725,-3565.4738L14004.4257,-3565.3851L14004.4751,-3565.3585L14004.5444,-3565.3213L14004.5901,-3565.2966L14004.609,-3565.2876L14004.7262,-3565.2316L14004.7815,-3565.207L14004.8626,-3565.1708L14004.9382,-3565.1408L14004.9452,-3565.1379L14004.9806,-3565.1239L14005.1004,-3565.0821L14005.104,-3565.0809L14005.1593,-3565.0635"/>
<path content="1,東京空港交通（株）,芝エリア～成田空港線,16.0,16.0,16.0," xlink:title="1" d="M14004.2725,-3565.4738L14004.4257,-3565.3851L14004.4751,-3565.3585L14004.5444,-3565.3213L14004.5901,-3565.2966L14004.609,-3565.2876L14004.7262,-3565.2316L14004.7815,-3565.207L14004.8626,-3565.1708L14004.9382,-3565.1408L14004.9452,-3565.1379L14004.9806,-3565.1239L14005.1004,-3565.0821L14005.104,-3565.0809L14005.1593,-3565.0635"/>
<path content="1,東京空港交通（株）,調布駅～成田空港線,4.0,4.0,4.0," xlink:title="1" d="M14004.2725,-3565.4738L14004.4257,-3565.3851L14004.4751,-3565.3585L14004.5444,-3565.3213L14004.5901,-3565.2966L14004.609,-3565.2876L14004.7262,-3565.2316L14004.7815,-3565.207L14004.8626,-3565.1708L14004.9382,-3565.1408L14004.9452,-3565.1379L14004.9806,-3565.1239L14005.1004,-3565.0821L14005.104,-3565.0809L14005.1593,-3565.0635"/>
<path content="1,東京空港交通（株）,赤坂エリア～成田空港線,26.0,26.0,26.0," xlink:title="1" d="M14004.2725,-3565.4738L14004.4257,-3565.3851L14004.4751,-3565.3585L14004.5444,-3565.3213L14004.5901,-3565.2966L14004.609,-3565.2876L14004.7262,-3565.2316L14004.7815,-3565.207L14004.8626,-3565.1708L14004.9382,-3565.1408L14004.9452,-3565.1379L14004.9806,-3565.1239L14005.1004,-3565.0821L14005.104,-3565.0809L14005.1593,-3565.0635"/>
<path content="1,東京空港交通（株）,銀座・汐留エリア～成田空港線,10.5,10.5,10.5," xlink:title="1" d="M14004.2725,-3565.4738L14004.4257,-3565.3851L14004.4751,-3565.3585L14004.5444,-3565.3213L14004.5901,-3565.2966L14004.609,-3565.2876L14004.7262,-3565.2316L14004.7815,-3565.207L14004.8626,-3565.1708L14004.9382,-3565.1408L14004.9452,-3565.1379L14004.9806,-3565.1239L14005.1004,-3565.0821L14005.104,-3565.0809L14005.1593,-3565.0635"/>
<path content="1,東京空港交通（株）,錦糸町・東陽町・新木場エリア～成田空港線,2.0,2.0,2.0," xlink:title="1" d="M14004.2725,-3565.4738L14004.4257,-3565.3851L14004.4751,-3565.3585L14004.5444,-3565.3213L14004.5901,-3565.2966L14004.609,-3565.2876L14004.7262,-3565.2316L14004.7815,-3565.207L14004.8626,-3565.1708L14004.9382,-3565.1408L14004.9452,-3565.1379L14004.9806,-3565.1239L14005.1004,-3565.0821L14005.104,-3565.0809L14005.1593,-3565.0635"/>
<path content="1,東急バス（株）,たまプラーザ駅～成田空港,8.0,8.0,8.0," xlink:title="1" d="M14005.1593,-3565.0635L14005.104,-3565.0809L14005.1004,-3565.0821L14004.9806,-3565.1239L14004.9452,-3565.1379L14004.9382,-3565.1408L14004.8626,-3565.1708L14004.7815,-3565.207L14004.7262,-3565.2316L14004.609,-3565.2876L14004.5901,-3565.2966L14004.5444,-3565.3213L14004.4751,-3565.3585L14004.4257,-3565.3851L14004.2725,-3565.4738"/>
<path content="1,東急バス（株）,センター南駅～成田空港,4.0,4.0,4.0," xlink:title="1" d="M14004.2725,-3565.4738L14004.4257,-3565.3851L14004.4751,-3565.3585L14004.5444,-3565.3213L14004.5901,-3565.2966L14004.609,-3565.2876L14004.7262,-3565.2316L14004.7815,-3565.207L14004.8626,-3565.1708L14004.9382,-3565.1408L14004.9452,-3565.1379L14004.9806,-3565.1239L14005.1004,-3565.0821L14005.104,-3565.0809L14005.1593,-3565.0635"/>
<path content="1,東急バス（株）,中山駅～成田空港,4.0,4.0,4.0," xlink:title="1" d="M14004.2725,-3565.4738L14004.4257,-3565.3851L14004.4751,-3565.3585L14004.5444,-3565.3213L14004.5901,-3565.2966L14004.609,-3565.2876L14004.7262,-3565.2316L14004.7815,-3565.207L14004.8626,-3565.1708L14004.9382,-3565.1408L14004.9452,-3565.1379L14004.9806,-3565.1239L14005.1004,-3565.0821L14005.104,-3565.0809L14005.1593,-3565.0635"/>
<path content="1,東急バス（株）,新百合ヶ丘駅～成田空港,8.0,8.0,8.0," xlink:title="1" d="M14005.1593,-3565.0635L14005.104,-3565.0809L14005.1004,-3565.0821L14004.9806,-3565.1239L14004.9452,-3565.1379L14004.9382,-3565.1408L14004.8626,-3565.1708L14004.7815,-3565.207L14004.7262,-3565.2316L14004.609,-3565.2876L14004.5901,-3565.2966L14004.5444,-3565.3213L14004.4751,-3565.3585L14004.4257,-3565.3851L14004.2725,-3565.4738"/>
<path content="1,東武バスウエスト,ONライナー,4.0,4.0,4.0," xlink:title="1" d="M14005.1593,-3565.0635L14005.104,-3565.0809L14005.1004,-3565.0821L14004.9806,-3565.1239L14004.9452,-3565.1379L14004.9382,-3565.1408L14004.8626,-3565.1708L14004.7815,-3565.207L14004.7262,-3565.2316L14004.609,-3565.2876L14004.5901,-3565.2966L14004.5444,-3565.3213L14004.4751,-3565.3585L14004.4257,-3565.3851L14004.2725,-3565.4738"/>
<path content="1,東武バスウエスト,ふじみ野駅・ふじみ野駅・新座車庫・志木駅・朝霞台駅～成田空港,3.0,3.0,3.0," xlink:title="1" d="M14005.1593,-3565.0635L14005.104,-3565.0809L14005.1004,-3565.0821L14004.9806,-3565.1239L14004.9452,-3565.1379L14004.9382,-3565.1408L14004.8626,-3565.1708L14004.7815,-3565.207L14004.7262,-3565.2316L14004.609,-3565.2876L14004.5901,-3565.2966L14004.5444,-3565.3213L14004.4751,-3565.3585L14004.4257,-3565.3851L14004.2725,-3565.4738"/>
<path content="1,東武バスウエスト,坂戸駅南口・川越駅西口～成田空港,2.0,2.0,2.0," xlink:title="1" d="M14005.1593,-3565.0635L14005.104,-3565.0809L14005.1004,-3565.0821L14004.9806,-3565.1239L14004.9452,-3565.1379L14004.9382,-3565.1408L14004.8626,-3565.1708L14004.7815,-3565.207L14004.7262,-3565.2316L14004.609,-3565.2876L14004.5901,-3565.2966L14004.5444,-3565.3213L14004.4751,-3565.3585L14004.4257,-3565.3851L14004.2725,-3565.4738"/>
<path content="1,東武バスセントラル（株）,しらこばと号,3.0,3.0,3.0," xlink:title="1" d="M14004.2725,-3565.4738L14004.4257,-3565.3851L14004.4751,-3565.3585L14004.5444,-3565.3213L14004.5901,-3565.2966L14004.609,-3565.2876L14004.7262,-3565.2316L14004.7815,-3565.207L14004.8626,-3565.1708L14004.9382,-3565.1408L14004.9452,-3565.1379L14004.9806,-3565.1239L14005.1004,-3565.0821L14005.104,-3565.0809L14005.1593,-3565.0635"/>
<path content="1,神奈川中央交通（株）,橋本駅・相模大野・町田バスセンター～成田空港,9.0,9.0,9.0," xlink:title="1" d="M14004.2725,-3565.4738L14004.4257,-3565.3851L14004.4751,-3565.3585L14004.5444,-3565.3213L14004.5901,-3565.2966L14004.609,-3565.2876L14004.7262,-3565.2316L14004.7815,-3565.207L14004.8626,-3565.1708L14004.9382,-3565.1408L14004.9452,-3565.1379L14004.9806,-3565.1239L14005.1004,-3565.0821L14005.104,-3565.0809L14005.1593,-3565.0635"/>
<path content="1,神奈川中央交通（株）,田村車庫・本厚木駅～成田空港,4.0,4.0,4.0," xlink:title="1" d="M14004.2725,-3565.4738L14004.4257,-3565.3851L14004.4751,-3565.3585L14004.5444,-3565.3213L14004.5901,-3565.2966L14004.609,-3565.2876L14004.7262,-3565.2316L14004.7815,-3565.207L14004.8626,-3565.1708L14004.9382,-3565.1408L14004.9452,-3565.1379L14004.9806,-3565.1239L14005.1004,-3565.0821L14005.104,-3565.0809L14005.1593,-3565.0635"/>
<path content="1,神奈川中央交通（株）,茅ヶ崎駅・辻堂駅・藤沢駅・戸塚～成田空港,3.0,3.0,3.0," xlink:title="1" d="M14004.2725,-3565.4738L14004.4257,-3565.3851L14004.4751,-3565.3585L14004.5444,-3565.3213L14004.5901,-3565.2966L14004.609,-3565.2876L14004.7262,-3565.2316L14004.7815,-3565.207L14004.8626,-3565.1708L14004.9382,-3565.1408L14004.9452,-3565.1379L14004.9806,-3565.1239L14005.1004,-3565.0821L14005.104,-3565.0809L14005.1593,-3565.0635"/>
<path content="1,西東京バス（株）,002,2.0,2.0,2.0," xlink:title="1" d="M14004.2725,-3565.4738L14004.4257,-3565.3851L14004.4751,-3565.3585L14004.5444,-3565.3213L14004.5901,-3565.2966L14004.609,-3565.2876L14004.7262,-3565.2316L14004.7815,-3565.207L14004.8626,-3565.1708L14004.9382,-3565.1408L14004.9452,-3565.1379L14004.9806,-3565.1239L14005.1004,-3565.0821L14005.104,-3565.0809L14005.1593,-3565.0635"/>
<path content="1,西武バス（株）,大宮成田線,2.0,2.0,2.0," xlink:title="1" d="M14005.1593,-3565.0635L14005.104,-3565.0809L14005.1004,-3565.0821L14004.9806,-3565.1239L14004.9452,-3565.1379L14004.9382,-3565.1408L14004.8626,-3565.1708L14004.7815,-3565.207L14004.7262,-3565.2316L14004.609,-3565.2876L14004.5901,-3565.2966L14004.5444,-3565.3213L14004.4751,-3565.3585L14004.4257,-3565.3851L14004.2725,-3565.4738"/>
<path content="1,西武バス（株）,大泉学園成田線,3.0,3.0,3.0," xlink:title="1" d="M14004.2725,-3565.4738L14004.4257,-3565.3851L14004.4751,-3565.3585L14004.5444,-3565.3213L14004.5901,-3565.2966L14004.609,-3565.2876L14004.7262,-3565.2316L14004.7815,-3565.207L14004.8626,-3565.1708L14004.9382,-3565.1408L14004.9452,-3565.1379L14004.9806,-3565.1239L14005.1004,-3565.0821L14005.104,-3565.0809L14005.1593,-3565.0635"/>
<path content="1,西武バス（株）,所沢成田線,4.0,4.0,4.0," xlink:title="1" d="M14004.2725,-3565.4738L14004.4257,-3565.3851L14004.4751,-3565.3585L14004.5444,-3565.3213L14004.5901,-3565.2966L14004.609,-3565.2876L14004.7262,-3565.2316L14004.7815,-3565.207L14004.8626,-3565.1708L14004.9382,-3565.1408L14004.9452,-3565.1379L14004.9806,-3565.1239L14005.1004,-3565.0821L14005.104,-3565.0809L14005.1593,-3565.0635"/>
<path content="1,関東バス（株）,吉祥寺・成田空港,12.0,12.0,12.0," xlink:title="1" d="M14004.2725,-3565.4738L14004.4257,-3565.3851L14004.4751,-3565.3585L14004.5444,-3565.3213L14004.5901,-3565.2966L14004.609,-3565.2876L14004.7262,-3565.2316L14004.7815,-3565.207L14004.8626,-3565.1708L14004.9382,-3565.1408L14004.9452,-3565.1379L14004.9806,-3565.1239L14005.1004,-3565.0821L14005.104,-3565.0809L14005.1593,-3565.0635"/>
<path content="1,関東自動車（株）,サルビア号,3.0,3.0,3.0," xlink:title="1" d="M14005.1593,-3565.0635L14005.104,-3565.0809L14005.1004,-3565.0821L14004.9806,-3565.1239L14004.9452,-3565.1379L14004.9382,-3565.1408L14004.8626,-3565.1708L14004.7815,-3565.207L14004.7262,-3565.2316L14004.609,-3565.2876L14004.5901,-3565.2966L14004.5444,-3565.3213L14004.4751,-3565.3585L14004.4257,-3565.3851L14004.2725,-3565.4738"/>
<path content="1,関東自動車（株）,マロニエ号　成田空港,5.0,5.0,5.0," xlink:title="1" d="M14004.2725,-3565.4738L14004.4257,-3565.3851L14004.4751,-3565.3585L14004.5444,-3565.3213L14004.5901,-3565.2966L14004.609,-3565.2876L14004.7262,-3565.2316L14004.7815,-3565.207L14004.8626,-3565.1708L14004.9382,-3565.1408L14004.9452,-3565.1379L14004.9806,-3565.1239L14005.1004,-3565.0821L14005.104,-3565.0809L14005.1593,-3565.0635"/>
<path content="1,関東自動車（株）,メープル号,3.0,3.0,3.0," xlink:title="1" d="M14005.1593,-3565.0635L14005.104,-3565.0809L14005.1004,-3565.0821L14004.9806,-3565.1239L14004.9452,-3565.1379L14004.9382,-3565.1408L14004.8626,-3565.1708L14004.7815,-3565.207L14004.7262,-3565.2316L14004.609,-3565.2876L14004.5901,-3565.2966L14004.5444,-3565.3213L14004.4751,-3565.3585L14004.4257,-3565.3851L14004.2725,-3565.4738"/>
<path content="1,関東鉄道（株）,カシマサッカースタジアム～鹿島神宮駅～鹿島セントラルホテル～東京駅線,29.0,29.0,29.0," xlink:title="1" d="M14004.2725,-3565.4738L14004.4257,-3565.3851L14004.4751,-3565.3585L14004.5444,-3565.3213L14004.5901,-3565.2966L14004.609,-3565.2876L14004.7262,-3565.2316L14004.7815,-3565.207L14004.8626,-3565.1708L14004.9382,-3565.1408L14004.9452,-3565.1379L14004.9806,-3565.1239L14005.1004,-3565.0821L14005.104,-3565.0809L14005.1593,-3565.0635"/>
<path content="1,関東鉄道（株）,波崎～東京駅,4.0,4.0,4.0," xlink:title="1" d="M14004.2725,-3565.4738L14004.4257,-3565.3851L14004.4751,-3565.3585L14004.5444,-3565.3213L14004.5901,-3565.2966L14004.609,-3565.2876L14004.7262,-3565.2316L14004.7815,-3565.207L14004.8626,-3565.1708L14004.9382,-3565.1408L14004.9452,-3565.1379L14004.9806,-3565.1239L14005.1004,-3565.0821L14005.104,-3565.0809L14005.1593,-3565.0635"/>
<path content="1,関東鉄道（株）,鹿島神宮駅～東京テレポート,4.0,4.0,4.0," xlink:title="1" d="M14004.2725,-3565.4738L14004.4257,-3565.3851L14004.4751,-3565.3585L14004.5444,-3565.3213L14004.5901,-3565.2966L14004.609,-3565.2876L14004.7262,-3565.2316L14004.7815,-3565.207L14004.8626,-3565.1708L14004.9382,-3565.1408L14004.9452,-3565.1379L14004.9806,-3565.1239L14005.1004,-3565.0821L14005.104,-3565.0809L14005.1593,-3565.0635"/>
<path content="1,関東鉄道（株）,鹿島神宮駅～東京テレポート,4.0,4.0,4.0," xlink:title="1" d="M14004.6783,-3565.0635L14004.6693,-3565.0665L14004.6251,-3565.0757L14004.5818,-3565.081L14004.5723,-3565.0819L14004.564,-3565.0827L14004.5452,-3565.086L14004.5206,-3565.0915L14004.5097,-3565.0937L14004.4936,-3565.0982L14004.4928,-3565.0984L14004.4927,-3565.0984L14004.4867,-3565.1005L14004.4807,-3565.1021L14004.4786,-3565.1027L14004.4628,-3565.1087L14004.4517,-3565.1129L14004.4507,-3565.1134L14004.412,-3565.1306L14004.3859,-3565.1469L14004.3666,-3565.161L14004.3665,-3565.1609L14004.3606,-3565.1556L14004.3444,-3565.1411L14004.2981,-3565.1068L14004.2741,-3565.0755L14004.2725,-3565.0734"/>
<path content="1,関東鉄道（株）,鹿島神宮駅～羽田空港国際線,3.0,3.0,3.0," xlink:title="1" d="M14004.2725,-3565.4738L14004.4257,-3565.3851L14004.4751,-3565.3585L14004.5444,-3565.3213L14004.5901,-3565.2966L14004.609,-3565.2876L14004.7262,-3565.2316L14004.7815,-3565.207L14004.8626,-3565.1708L14004.9382,-3565.1408L14004.9452,-3565.1379L14004.9806,-3565.1239L14005.1004,-3565.0821L14005.104,-3565.0809L14005.1593,-3565.0635"/>
<path content="1,関越交通（株）,アザレア号,14.0,14.0,14.0," xlink:title="1" d="M14005.1593,-3565.0635L14005.104,-3565.0809L14005.1004,-3565.0821L14004.9806,-3565.1239L14004.9452,-3565.1379L14004.9382,-3565.1408L14004.8626,-3565.1708L14004.7815,-3565.207L14004.7262,-3565.2316L14004.609,-3565.2876L14004.5901,-3565.2966L14004.5444,-3565.3213L14004.4751,-3565.3585L14004.4257,-3565.3851L14004.2725,-3565.4738"/>
<path content="1,関鉄グリーンバス（株）,800-1,6.0,6.0,6.0," xlink:title="1" d="M14004.2725,-3565.4738L14004.4257,-3565.3851L14004.4751,-3565.3585L14004.5444,-3565.3213L14004.5901,-3565.2966L14004.609,-3565.2876L14004.7262,-3565.2316L14004.7815,-3565.207L14004.8626,-3565.1708L14004.9382,-3565.1408L14004.9452,-3565.1379L14004.9806,-3565.1239L14005.1004,-3565.0821L14005.104,-3565.0809L14005.1593,-3565.0635"/>
<path content="1,阪急バス（株）,東京・東京ディズニーリゾート・千葉行,1.0,1.0,1.0," xlink:title="1" d="M14005.3622,-3565.0635L14005.2937,-3565.0681L14005.2267,-3565.0807L14005.2086,-3565.0863L14005.0103,-3565.1452L14004.9614,-3565.161L14004.8869,-3565.1887L14004.7548,-3565.244L14004.6829,-3565.2774L14004.5643,-3565.3351L14004.5446,-3565.3212"/>
<path content="1,阪急バス（株）,東京・東京ディズニーリゾート・千葉行,1.0,1.0,1.0," xlink:title="1" d="M14004.2725,-3565.0732L14004.3444,-3565.1411L14004.3666,-3565.161L14004.3877,-3565.1809L14004.5007,-3565.2871L14004.5198,-3565.3037L14004.5446,-3565.3212"/>
<path content="1,阪急バス（株）,東京・東京ディズニーリゾート・千葉行,1.0,1.0,1.0," xlink:title="1" d="M14004.5446,-3565.3212L14004.4257,-3565.3851L14004.2725,-3565.4738"/>
<path content="1,阪神バス（株）,サラダエクスプレス　神戸・大阪⇔東京ディズニーリゾート,1.0,1.0,1.0," xlink:title="1" d="M14004.2725,-3565.0732L14004.3444,-3565.1411L14004.3666,-3565.161L14004.3877,-3565.1809L14004.5007,-3565.2871L14004.5198,-3565.3037L14004.5446,-3565.3212L14004.5643,-3565.3351L14004.6829,-3565.2774L14004.7548,-3565.244L14004.8869,-3565.1887L14004.9614,-3565.161L14005.0103,-3565.1452L14005.2086,-3565.0863L14005.2267,-3565.0807L14005.2937,-3565.0681L14005.3622,-3565.0635"/>
<path content="1,（株）シティバス立川,立川駅～成田空港線,3.0,3.0,3.0," xlink:title="1" d="M14004.2725,-3565.4738L14004.4257,-3565.3851L14004.4751,-3565.3585L14004.5444,-3565.3213L14004.5901,-3565.2966L14004.609,-3565.2876L14004.7262,-3565.2316L14004.7815,-3565.207L14004.8626,-3565.1708L14004.9382,-3565.1408L14004.9452,-3565.1379L14004.9806,-3565.1239L14005.1004,-3565.0821L14005.104,-3565.0809L14005.1593,-3565.0635"/>
</g>
</svg>
