<?xml version="1.0" encoding="UTF-8"?>
<svg  xmlns="http://www.w3.org/2000/svg" xmlns:xlink="http://www.w3.org/1999/xlink" xmlns:go="http://purl.org/svgmap/profile" property="N07_001,N07_002,N07_003,N07_004,N07_005,N07_006,N07_007" viewBox="14100.9521484375 -3871.03271484375 0.54931640625 0.54931640625" go:dataArea="14100.9521484375 -3871.03271484375 0.54931640625 0.54931640625" >
<metadata>
 <rdf:RDF xmlns:rdf="http://www.w3.org/1999/02/22-rdf-syntax-ns#" xmlns:crs="http://opengis.org/xmldtds/transformations.dtd" xmlns:svg="http://www.w3.org/svg" >
  <rdf:Description>
   <crs:CoordinateReferenceSystem rdf:resource="http://purl.org/crs/84" svg:transform="matrix(100.0,0.0,0.0,-100.0,0.0,0.0)" />
  </rdf:Description>
 </rdf:RDF>
</metadata>
<globalCoordinateSystem srsName="http://purl.org/crs/84" transform="matrix(100.0,0.0,0.0,-100.0,0.0,0.0)" />
<defs>
 <g id="p0" >
  <circle cx="0.0" cy="0.0" r="3" stroke="green" stroke-width="0.75" vector-effect="non-scaling-stroke" />
 </g>
</defs>
<g fill="none" fill-rule="evenodd" stroke="#FF00FF" stroke-width="0.75" opacity="0.5" vector-effect="non-scaling-stroke" stroke-linejoin="bevel" >
<path content="1,東日本急行（株）,金成庁舎前・くりこま高原駅前・一迫総合支所前～築館～仙台線,15.0,15.0,15.0," xlink:title="1" d="M14101.5015,-3870.8812L14101.3763,-3870.7456L14101.3504,-3870.718L14101.3292,-3870.6953L14101.3262,-3870.6971L14101.2973,-3870.7145L14101.2901,-3870.7186L14101.2486,-3870.7572L14101.2183,-3870.7855L14101.2108,-3870.7951L14101.2031,-3870.8094L14101.1439,-3870.8657L14101.1133,-3870.8956L14101.0898,-3870.9187L14101.0314,-3870.9737L14100.9909,-3871.0124L14100.9699,-3871.0327"/>
<path content="3,大崎市,古川線,8.0,5.0,5.0," xlink:title="3" d="M14101.0801,-3870.4834L14101.0946,-3870.5051L14101.1381,-3870.5589L14101.1902,-3870.6217L14101.1942,-3870.6277L14101.1988,-3870.6374L14101.201,-3870.6446L14101.2031,-3870.6538L14101.2074,-3870.6752L14101.2081,-3870.6949L14101.2055,-3870.7144L14101.2226,-3870.7167L14101.2486,-3870.7572L14101.2673,-3870.7864L14101.2778,-3870.7951L14101.3131,-3870.8301L14101.3238,-3870.8424L14101.3317,-3870.8537L14101.3367,-3870.8672L14101.3367,-3870.905L14101.3346,-3870.9258L14101.3331,-3870.9342L14101.3339,-3870.959L14101.3389,-3870.9742L14101.354,-3870.999L14101.3776,-3871.0327"/>
<path content="3,栗原市,古川線,8.0,5.0,5.0," xlink:title="3" d="M14101.0801,-3870.4834L14101.0946,-3870.5051L14101.1381,-3870.5589L14101.1902,-3870.6217L14101.1942,-3870.6277L14101.1988,-3870.6374L14101.201,-3870.6446L14101.2031,-3870.6538L14101.2074,-3870.6752L14101.2081,-3870.6949L14101.2055,-3870.7144L14101.2226,-3870.7167L14101.2486,-3870.7572L14101.2673,-3870.7864L14101.2778,-3870.7951L14101.3131,-3870.8301L14101.3238,-3870.8424L14101.3317,-3870.8537L14101.3367,-3870.8672L14101.3367,-3870.905L14101.3346,-3870.9258L14101.3331,-3870.9342L14101.3339,-3870.959L14101.3389,-3870.9742L14101.354,-3870.999L14101.3776,-3871.0327"/>
</g>
</svg>
