<?xml version="1.0" encoding="UTF-8"?>
<svg  xmlns="http://www.w3.org/2000/svg" xmlns:xlink="http://www.w3.org/1999/xlink" xmlns:go="http://purl.org/svgmap/profile" property="N07_001,N07_002,N07_003,N07_004,N07_005,N07_006,N07_007" viewBox="14049.31640625 -3783.69140625 4.39453125 4.39453125" go:dataArea="14049.31640625 -3783.69140625 4.39453125 4.39453125" >
<metadata>
 <rdf:RDF xmlns:rdf="http://www.w3.org/1999/02/22-rdf-syntax-ns#" xmlns:crs="http://opengis.org/xmldtds/transformations.dtd" xmlns:svg="http://www.w3.org/svg" >
  <rdf:Description>
   <crs:CoordinateReferenceSystem rdf:resource="http://purl.org/crs/84" svg:transform="matrix(100.0,0.0,0.0,-100.0,0.0,0.0)" />
  </rdf:Description>
 </rdf:RDF>
</metadata>
<globalCoordinateSystem srsName="http://purl.org/crs/84" transform="matrix(100.0,0.0,0.0,-100.0,0.0,0.0)" />
<defs>
 <g id="p0" >
  <circle cx="0.0" cy="0.0" r="3" stroke="green" stroke-width="0.75" vector-effect="non-scaling-stroke" />
 </g>
</defs>
<g fill="none" fill-rule="evenodd" stroke="#FF00FF" stroke-width="0.75" opacity="0.5" vector-effect="non-scaling-stroke" stroke-linejoin="bevel" >
<path content="1,JRバス東北（株）,WEライナー号,4.0,4.0,4.0," xlink:title="1" d="M14049.3164,-3783.6299L14049.3216,-3783.6337L14049.3686,-3783.6623L14049.4246,-3783.6914"/>
<path content="1,JRバス東北（株）,いわき～仙台線,1.0,1.0,1.0," xlink:title="1" d="M14049.3164,-3783.6299L14049.3216,-3783.6337L14049.3686,-3783.6623L14049.4246,-3783.6914"/>
<path content="1,JRバス東北（株）,ドリームさくらんぼ号,1.0,1.0,1.0," xlink:title="1" d="M14049.3164,-3783.6299L14049.3216,-3783.6337L14049.3686,-3783.6623L14049.4246,-3783.6914"/>
<path content="1,JRバス東北（株）,ドリームササニシキ号,1.0,1.0,1.0," xlink:title="1" d="M14049.4246,-3783.6914L14049.3686,-3783.6623L14049.3216,-3783.6337L14049.3164,-3783.6299"/>
<path content="1,JRバス東北（株）,ドリーム政宗号,1.0,1.0,1.0," xlink:title="1" d="M14049.3164,-3783.6299L14049.3216,-3783.6337L14049.3686,-3783.6623L14049.4246,-3783.6914"/>
<path content="1,JRバス東北（株）,ドリーム横浜・仙台号,1.0,1.0,1.0," xlink:title="1" d="M14049.3164,-3783.6299L14049.3216,-3783.6337L14049.3686,-3783.6623L14049.4246,-3783.6914"/>
<path content="1,JRバス東北（株）,ドリーム盛岡・らくちん号,2.2,3.0,3.0," xlink:title="1" d="M14049.3164,-3783.6299L14049.3216,-3783.6337L14049.3686,-3783.6623L14049.4246,-3783.6914"/>
<path content="1,JRバス東北（株）,ドリーム秋田・横浜号,1.0,1.0,1.0," xlink:title="1" d="M14049.4246,-3783.6914L14049.3686,-3783.6623L14049.3216,-3783.6337L14049.3164,-3783.6299"/>
<path content="1,JRバス東北（株）,ドリーム鳥海号,1.0,1.0,1.0," xlink:title="1" d="M14049.3164,-3783.6299L14049.3216,-3783.6337L14049.3686,-3783.6623L14049.4246,-3783.6914"/>
<path content="1,JRバス東北（株）,ラ・フォーレ号,1.0,1.0,1.0," xlink:title="1" d="M14049.3164,-3783.6299L14049.3216,-3783.6337L14049.3686,-3783.6623L14049.4246,-3783.6914"/>
<path content="1,JRバス東北（株）,仙台・新宿号,2.0,2.0,2.0," xlink:title="1" d="M14049.3164,-3783.6299L14049.3216,-3783.6337L14049.3686,-3783.6623L14049.4246,-3783.6914"/>
<path content="1,JRバス東北（株）,仙台～会津若松線,4.0,4.0,4.0," xlink:title="1" d="M14049.3164,-3783.6299L14049.3216,-3783.6337L14049.3686,-3783.6623L14049.4246,-3783.6914"/>
<path content="1,JRバス東北（株）,仙台～福島線,12.0,12.0,12.0," xlink:title="1" d="M14049.3164,-3783.6299L14049.3216,-3783.6337L14049.3686,-3783.6623L14049.4246,-3783.6914"/>
<path content="1,JRバス東北（株）,仙台～米沢線,3.0,3.0,3.0," xlink:title="1" d="M14049.3164,-3783.6299L14049.3216,-3783.6337L14049.3686,-3783.6623L14049.4246,-3783.6914"/>
<path content="1,JRバス東北（株）,仙台～郡山・須賀川線,8.0,8.0,8.0," xlink:title="1" d="M14049.3164,-3783.6299L14049.3216,-3783.6337L14049.3686,-3783.6623L14049.4246,-3783.6914"/>
<path content="1,JRバス関東（株）,ドリーム盛岡号,2.2,3.0,3.0," xlink:title="1" d="M14049.3164,-3783.6299L14049.3216,-3783.6337L14049.3686,-3783.6623L14049.4246,-3783.6914"/>
<path content="1,京浜急行バス（株）,ノクターン号,3.4,4.0,4.0," xlink:title="1" d="M14049.3164,-3783.6299L14049.3216,-3783.6337L14049.3686,-3783.6623L14049.4246,-3783.6914"/>
<path content="1,京浜急行バス（株）,ビーム号,1.0,1.0,1.0," xlink:title="1" d="M14049.4246,-3783.6914L14049.3686,-3783.6623L14049.3216,-3783.6337L14049.3164,-3783.6299"/>
<path content="1,京王バス南（株）,新宿・渋谷～仙台・石巻線,1.0,1.0,1.0," xlink:title="1" d="M14049.3164,-3783.6299L14049.3216,-3783.6337L14049.3686,-3783.6623L14049.4246,-3783.6914"/>
<path content="1,会津乗合自動車,仙台線,8.0,8.0,8.0," xlink:title="1" d="M14049.3164,-3783.6299L14049.3216,-3783.6337L14049.3686,-3783.6623L14049.4246,-3783.6914"/>
<path content="1,北陸鉄道（株）,高速バス　金沢⇔仙台,1.0,1.0,1.0," xlink:title="1" d="M14049.4246,-3783.6914L14049.3686,-3783.6623L14049.3216,-3783.6337L14049.3164,-3783.6299"/>
<path content="1,十和田観光電鉄（株）,シリウス号,1.0,1.0,1.0," xlink:title="1" d="M14049.4246,-3783.6914L14049.3686,-3783.6623L14049.3216,-3783.6337L14049.3164,-3783.6299"/>
<path content="1,名鉄バス（株）,名古屋～仙台,1.0,1.0,1.0," xlink:title="1" d="M14049.4246,-3783.6914L14049.3686,-3783.6623L14049.3216,-3783.6337L14049.3164,-3783.6299"/>
<path content="1,国際興業（株）,けせんライナー,1.0,1.0,1.0," xlink:title="1" d="M14049.3164,-3783.6299L14049.3216,-3783.6337L14049.3686,-3783.6623L14049.4246,-3783.6914"/>
<path content="1,国際興業（株）,イーハトープ号,1.0,1.0,1.0," xlink:title="1" d="M14049.3164,-3783.6299L14049.3216,-3783.6337L14049.3686,-3783.6623L14049.4246,-3783.6914"/>
<path content="1,国際興業（株）,シリウス号,1.0,1.0,1.0," xlink:title="1" d="M14049.3164,-3783.6299L14049.3216,-3783.6337L14049.3686,-3783.6623L14049.4246,-3783.6914"/>
<path content="1,国際興業（株）,ジュピター号,1.0,1.0,1.0," xlink:title="1" d="M14049.3164,-3783.6299L14049.3216,-3783.6337L14049.3686,-3783.6623L14049.4246,-3783.6914"/>
<path content="1,国際興業（株）,ドリーム盛岡（らくちん）号,2.2,3.0,3.0," xlink:title="1" d="M14049.3164,-3783.6299L14049.3216,-3783.6337L14049.3686,-3783.6623L14049.4246,-3783.6914"/>
<path content="1,国際興業（株）,夕陽号,2.0,2.0,2.0," xlink:title="1" d="M14049.3164,-3783.6299L14049.3216,-3783.6337L14049.3686,-3783.6623L14049.4246,-3783.6914"/>
<path content="1,国際興業（株）,遠野・釜石号,1.0,1.0,1.0," xlink:title="1" d="M14049.3164,-3783.6299L14049.3216,-3783.6337L14049.3686,-3783.6623L14049.4246,-3783.6914"/>
<path content="1,宮城交通（株）,エトアール,1.0,1.0,1.0," xlink:title="1" d="M14049.3164,-3783.6299L14049.3216,-3783.6337L14049.3686,-3783.6623L14049.4246,-3783.6914"/>
<path content="1,宮城交通（株）,ポーラスター,1.0,1.0,1.0," xlink:title="1" d="M14049.4246,-3783.6914L14049.3686,-3783.6623L14049.3216,-3783.6337L14049.3164,-3783.6299"/>
<path content="1,宮城交通（株）,仙台～名古屋線,1.0,1.0,1.0," xlink:title="1" d="M14049.3164,-3783.6299L14049.3216,-3783.6337L14049.3686,-3783.6623L14049.4246,-3783.6914"/>
<path content="1,宮城交通（株）,仙台～大阪線,1.0,1.0,1.0," xlink:title="1" d="M14049.4246,-3783.6914L14049.3686,-3783.6623L14049.3216,-3783.6337L14049.3164,-3783.6299"/>
<path content="1,宮城交通（株）,仙台～富山線,1.0,1.0,1.0," xlink:title="1" d="M14049.3164,-3783.6299L14049.3216,-3783.6337L14049.3686,-3783.6623L14049.4246,-3783.6914"/>
<path content="1,宮城交通（株）,仙台～福島線,12.0,12.0,12.0," xlink:title="1" d="M14049.3164,-3783.6299L14049.3216,-3783.6337L14049.3686,-3783.6623L14049.4246,-3783.6914"/>
<path content="1,宮城交通（株）,仙台～郡山須賀川線,8.0,8.0,8.0," xlink:title="1" d="M14049.3164,-3783.6299L14049.3216,-3783.6337L14049.3686,-3783.6623L14049.4246,-3783.6914"/>
<path content="1,宮城交通（株）,広瀬ライナー,1.0,1.0,1.0," xlink:title="1" d="M14049.3164,-3783.6299L14049.3216,-3783.6337L14049.3686,-3783.6623L14049.4246,-3783.6914"/>
<path content="1,富山地方鉄道（株）,仙台（高速バス）,1.0,1.0,1.0," xlink:title="1" d="M14049.3164,-3783.6299L14049.3216,-3783.6337L14049.3686,-3783.6623L14049.4246,-3783.6914"/>
<path content="1,小田急シティバス（株）,フローラ号,1.0,1.0,1.0," xlink:title="1" d="M14049.3164,-3783.6299L14049.3216,-3783.6337L14049.3686,-3783.6623L14049.4246,-3783.6914"/>
<path content="1,小田急バス（株）,フローラ号,1.0,1.0,1.0," xlink:title="1" d="M14049.3164,-3783.6299L14049.3216,-3783.6337L14049.3686,-3783.6623L14049.4246,-3783.6914"/>
<path content="1,山交バス（株）,TOKYOサンライズ,1.0,1.0,1.0," xlink:title="1" d="M14049.3164,-3783.6299L14049.3216,-3783.6337L14049.3686,-3783.6623L14049.4246,-3783.6914"/>
<path content="1,山交バス（株）,米沢-仙台,3.0,3.0,3.0," xlink:title="1" d="M14049.3164,-3783.6299L14049.3216,-3783.6337L14049.3686,-3783.6623L14049.4246,-3783.6914"/>
<path content="1,岩手県交通（株）,けせんライナー,1.0,1.0,1.0," xlink:title="1" d="M14049.3164,-3783.6299L14049.3216,-3783.6337L14049.3686,-3783.6623L14049.4246,-3783.6914"/>
<path content="1,岩手県交通（株）,イーハトーブ号,1.0,1.0,1.0," xlink:title="1" d="M14049.3164,-3783.6299L14049.3216,-3783.6337L14049.3686,-3783.6623L14049.4246,-3783.6914"/>
<path content="1,岩手県交通（株）,ドリーム盛岡（らくちん）号,2.3,3.0,3.0," xlink:title="1" d="M14049.3164,-3783.6299L14049.3216,-3783.6337L14049.3686,-3783.6623L14049.4246,-3783.6914"/>
<path content="1,岩手県交通（株）,盛岡・横浜線,1.0,1.0,1.0," xlink:title="1" d="M14049.3164,-3783.6299L14049.3216,-3783.6337L14049.3686,-3783.6623L14049.4246,-3783.6914"/>
<path content="1,岩手県交通（株）,遠野・釜石号,1.0,1.0,1.0," xlink:title="1" d="M14049.3164,-3783.6299L14049.3216,-3783.6337L14049.3686,-3783.6623L14049.4246,-3783.6914"/>
<path content="1,岩手県北自動車（株）,BEAM-1　宮古・盛岡南⇔浜松町・品川,1.0,1.0,1.0," xlink:title="1" d="M14049.3164,-3783.6299L14049.3216,-3783.6337L14049.3686,-3783.6623L14049.4246,-3783.6914"/>
<path content="1,庄内交通（株）,高速バス　上野・秋葉原・東京,1.0,1.0,1.0," xlink:title="1" d="M14049.3164,-3783.6299L14049.3216,-3783.6337L14049.3686,-3783.6623L14049.4246,-3783.6914"/>
<path content="1,庄内交通（株）,高速バス　酒田・鶴岡⇔大宮・池袋・渋谷,1.0,1.0,1.0," xlink:title="1" d="M14049.3164,-3783.6299L14049.3216,-3783.6337L14049.3686,-3783.6623L14049.4246,-3783.6914"/>
<path content="1,弘南バス（株）,アップル号,1.0,1.0,1.0," xlink:title="1" d="M14049.4246,-3783.6914L14049.3686,-3783.6623L14049.3216,-3783.6337L14049.3164,-3783.6299"/>
<path content="1,弘南バス（株）,スカイ号,1.0,1.0,1.0," xlink:title="1" d="M14049.4246,-3783.6914L14049.3686,-3783.6623L14049.3216,-3783.6337L14049.3164,-3783.6299"/>
<path content="1,弘南バス（株）,ノクターン号,1.0,1.0,1.0," xlink:title="1" d="M14049.4246,-3783.6914L14049.3686,-3783.6623L14049.3216,-3783.6337L14049.3164,-3783.6299"/>
<path content="1,弘南バス（株）,パンダ号,3.0,3.0,3.0," xlink:title="1" d="M14049.4246,-3783.6914L14049.3686,-3783.6623L14049.3216,-3783.6337L14049.3164,-3783.6299"/>
<path content="1,弘南バス（株）,津軽号,1.0,1.0,1.0," xlink:title="1" d="M14049.3164,-3783.6299L14049.3216,-3783.6337L14049.3686,-3783.6623L14049.4246,-3783.6914"/>
<path content="1,成田空港交通,仙台線,1.0,1.0,1.0," xlink:title="1" d="M14049.3164,-3783.6299L14049.3216,-3783.6337L14049.3686,-3783.6623L14049.4246,-3783.6914"/>
<path content="1,新常磐交通（株）,いわき-仙台,3.0,3.0,3.0," xlink:title="1" d="M14049.3164,-3783.6299L14049.3216,-3783.6337L14049.3686,-3783.6623L14049.4246,-3783.6914"/>
<path content="1,新潟交通（株）・JRバス東北,仙台高速バス,8.0,8.0,8.0," xlink:title="1" d="M14049.3164,-3783.6299L14049.3216,-3783.6337L14049.3686,-3783.6623L14049.4246,-3783.6914"/>
<path content="1,日本中央バス（株）,ミリオンライナー,2.0,2.0,2.0," xlink:title="1" d="M14049.3164,-3783.6299L14049.3216,-3783.6337L14049.3686,-3783.6623L14049.4246,-3783.6914"/>
<path content="1,日本中央バス（株）,仙台ライナー,1.0,1.0,1.0," xlink:title="1" d="M14049.3164,-3783.6299L14049.3216,-3783.6337L14049.3686,-3783.6623L14049.4246,-3783.6914"/>
<path content="1,東北急行バス（株）,TOKYOサンライズ号,1.0,1.0,1.0," xlink:title="1" d="M14049.3164,-3783.6299L14049.3216,-3783.6337L14049.3686,-3783.6623L14049.4246,-3783.6914"/>
<path content="1,東北急行バス（株）,エススター号,0.1,0.5,0.0," xlink:title="1" d="M14049.3164,-3783.6299L14049.3216,-3783.6337L14049.3686,-3783.6623L14049.4246,-3783.6914"/>
<path content="1,東北急行バス（株）,スイート号,0.2,1.0,1.0," xlink:title="1" d="M14049.3164,-3783.6299L14049.3216,-3783.6337L14049.3686,-3783.6623L14049.4246,-3783.6914"/>
<path content="1,東北急行バス（株）,ニュースター号,2.0,2.0,2.0," xlink:title="1" d="M14049.3164,-3783.6299L14049.3216,-3783.6337L14049.3686,-3783.6623L14049.4246,-3783.6914"/>
<path content="1,東北急行バス（株）,ホリデースター号,0.2,1.0,1.0," xlink:title="1" d="M14049.3164,-3783.6299L14049.3216,-3783.6337L14049.3686,-3783.6623L14049.4246,-3783.6914"/>
<path content="1,江ノ電バス藤沢,レイク＆ポート号,1.0,1.0,1.0," xlink:title="1" d="M14049.3164,-3783.6299L14049.3216,-3783.6337L14049.3686,-3783.6623L14049.4246,-3783.6914"/>
<path content="1,福島交通（株）,167,7.5,6.5,6.5," xlink:title="1" d="M14051.9794,-3783.6914L14051.9787,-3783.6895L14051.9753,-3783.6789L14051.9594,-3783.6338L14051.9562,-3783.6267L14051.9529,-3783.6193L14051.9353,-3783.5933L14051.9143,-3783.5154L14051.9066,-3783.4941L14051.8323,-3783.4223L14051.7449,-3783.3396L14051.6563,-3783.2548L14051.5864,-3783.1873L14051.5578,-3783.1591L14051.4627,-3783.0655L14051.4527,-3783.0556L14051.4403,-3783.0432L14051.3966,-3783.0066L14051.328,-3782.9317L14051.3169,-3782.9206L14051.1708,-3782.7754L14051.1615,-3782.7662L14051.0698,-3782.6751L14051.0639,-3782.6691L14051.0574,-3782.6628L14050.9626,-3782.5708L14050.9548,-3782.5632L14050.9469,-3782.5553L14050.8607,-3782.4692L14050.8511,-3782.4597L14050.7609,-3782.3709L14050.7546,-3782.3647L14050.7464,-3782.3569L14050.7099,-3782.3205L14050.6943,-3782.3082L14050.6663,-3782.2696L14050.5984,-3782.1736L14050.5933,-3782.1664L14050.5901,-3782.1608L14050.5779,-3782.1392L14050.4877,-3782.0145L14050.4806,-3782.0047L14050.4707,-3781.9917L14050.4217,-3781.9236L14050.4179,-3781.9177L14050.4024,-3781.9041L14050.3728,-3781.8537L14050.3075,-3781.7619L14050.2791,-3781.7208L14050.2605,-3781.6947L14050.1791,-3781.5839L14050.1564,-3781.554L14050.1286,-3781.5204L14050.1138,-3781.4954L14050.0805,-3781.4498L14050.0744,-3781.4413L14050.0641,-3781.4273L14049.9932,-3781.3304L14049.9542,-3781.2757L14049.9191,-3781.2362L14049.9095,-3781.2155L14049.884,-3781.1788L14049.8123,-3781.0803L14049.7925,-3781.0506L14049.7843,-3781.0387L14049.7279,-3780.9592L14049.7084,-3780.9349L14049.6751,-3780.8888L14049.6619,-3780.8726L14049.6498,-3780.8574L14049.6336,-3780.8347L14049.6165,-3780.8155L14049.5987,-3780.7918L14049.5907,-3780.7808L14049.5406,-3780.7119L14049.532,-3780.7L14049.4987,-3780.6544L14049.4881,-3780.6398L14049.4451,-3780.5871L14049.4427,-3780.5772L14049.4274,-3780.5561L14049.3965,-3780.5133L14049.3433,-3780.4398L14049.3164,-3780.4009"/>
<path content="1,福島交通（株）,168,4.0,1.5,1.5," xlink:title="1" d="M14051.9794,-3783.6914L14051.9787,-3783.6895L14051.9753,-3783.6789L14051.9594,-3783.6338L14051.9562,-3783.6267L14051.9529,-3783.6193L14051.9353,-3783.5933L14051.9143,-3783.5154L14051.9066,-3783.4941L14051.8323,-3783.4223L14051.7449,-3783.3396L14051.6563,-3783.2548L14051.5864,-3783.1873L14051.5578,-3783.1591L14051.4627,-3783.0655L14051.4527,-3783.0556L14051.4403,-3783.0432L14051.3966,-3783.0066L14051.328,-3782.9317L14051.3169,-3782.9206L14051.1708,-3782.7754L14051.1615,-3782.7662L14051.0698,-3782.6751L14051.0639,-3782.6691L14051.0574,-3782.6628L14050.9626,-3782.5708L14050.9548,-3782.5632L14050.9469,-3782.5553L14050.8607,-3782.4692L14050.8511,-3782.4597L14050.7609,-3782.3709L14050.7546,-3782.3647L14050.7464,-3782.3569L14050.7099,-3782.3205L14050.6943,-3782.3082L14050.6663,-3782.2696L14050.5984,-3782.1736L14050.5933,-3782.1664L14050.5901,-3782.1608L14050.5779,-3782.1392L14050.4877,-3782.0145L14050.4806,-3782.0047L14050.4707,-3781.9917L14050.4217,-3781.9236L14050.4179,-3781.9177L14050.4024,-3781.9041L14050.3728,-3781.8537L14050.3075,-3781.7619L14050.2791,-3781.7208L14050.2605,-3781.6947L14050.1791,-3781.5839L14050.1564,-3781.554L14050.1286,-3781.5204L14050.1138,-3781.4954L14050.0805,-3781.4498L14050.0744,-3781.4413L14050.0641,-3781.4273L14049.9932,-3781.3304L14049.9542,-3781.2757L14049.9191,-3781.2362L14049.9095,-3781.2155L14049.884,-3781.1788L14049.8123,-3781.0803L14049.7925,-3781.0506L14049.7843,-3781.0387L14049.7279,-3780.9592L14049.7084,-3780.9349L14049.6751,-3780.8888L14049.6619,-3780.8726L14049.6498,-3780.8574L14049.6336,-3780.8347L14049.6165,-3780.8155L14049.5987,-3780.7918L14049.5907,-3780.7808L14049.5406,-3780.7119L14049.532,-3780.7L14049.4987,-3780.6544L14049.4881,-3780.6398L14049.4451,-3780.5871L14049.4427,-3780.5772L14049.4274,-3780.5561L14049.3965,-3780.5133L14049.3433,-3780.4398L14049.3164,-3780.4009"/>
<path content="1,福島交通（株）,169,11.0,8.0,8.0," xlink:title="1" d="M14051.9903,-3781.8633L14051.9811,-3781.9131L14051.9684,-3781.9844L14051.9372,-3781.9839L14051.889,-3781.9811L14051.8213,-3781.9773L14051.7456,-3781.9743L14051.7286,-3781.9732L14051.6507,-3781.9693L14051.6144,-3781.9675L14051.6073,-3781.9669L14051.5753,-3781.9658L14051.5214,-3781.9664L14051.4971,-3781.9676L14051.4874,-3781.9681L14051.4732,-3781.9703L14051.4441,-3781.9726L14051.4164,-3781.9765L14051.398,-3781.9782L14051.3518,-3781.9777L14051.3019,-3781.9766L14051.2688,-3781.976L14051.2511,-3781.9754L14051.2145,-3781.9749L14051.2047,-3781.9747L14051.1553,-3781.9754L14051.0915,-3781.9759L14050.907,-3781.9782L14050.8937,-3781.9776L14050.8715,-3781.9771L14050.7928,-3781.9764L14050.7715,-3781.9764L14050.6834,-3781.9827L14050.5668,-3781.9959L14050.5005,-3782.003L14050.4806,-3782.0047L14050.4707,-3781.9917L14050.4217,-3781.9236L14050.4179,-3781.9177L14050.4024,-3781.9041L14050.3728,-3781.8537L14050.3075,-3781.7619L14050.2791,-3781.7208L14050.2605,-3781.6947L14050.1791,-3781.5839L14050.1564,-3781.554L14050.1286,-3781.5204L14050.1138,-3781.4954L14050.0805,-3781.4498L14050.0744,-3781.4413L14050.0641,-3781.4273L14049.9932,-3781.3304L14049.9542,-3781.2757L14049.9191,-3781.2362L14049.9095,-3781.2155L14049.884,-3781.1788L14049.8123,-3781.0803L14049.7925,-3781.0506L14049.7843,-3781.0387L14049.7279,-3780.9592L14049.7084,-3780.9349L14049.6751,-3780.8888L14049.6619,-3780.8726L14049.6498,-3780.8574L14049.6336,-3780.8347L14049.6165,-3780.8155L14049.5987,-3780.7918L14049.5907,-3780.7808L14049.5406,-3780.7119L14049.532,-3780.7L14049.4987,-3780.6544L14049.4881,-3780.6398L14049.4451,-3780.5871L14049.4427,-3780.5772L14049.4274,-3780.5561L14049.3965,-3780.5133L14049.3433,-3780.4398L14049.3164,-3780.4009"/>
<path content="1,福島交通（株）,170,8.0,7.0,7.0," xlink:title="1" d="M14049.3164,-3780.4009L14049.3433,-3780.4398L14049.3965,-3780.5133L14049.4274,-3780.5561L14049.4427,-3780.5772L14049.4451,-3780.5871L14049.4881,-3780.6398L14049.4987,-3780.6544L14049.532,-3780.7L14049.5406,-3780.7119L14049.5907,-3780.7808L14049.5987,-3780.7918L14049.6165,-3780.8155L14049.6336,-3780.8347L14049.6498,-3780.8574L14049.6619,-3780.8726L14049.6751,-3780.8888L14049.7084,-3780.9349L14049.7279,-3780.9592L14049.7843,-3781.0387L14049.7925,-3781.0506L14049.8123,-3781.0803L14049.884,-3781.1788L14049.9095,-3781.2155L14049.9191,-3781.2362L14049.9542,-3781.2757L14049.9932,-3781.3304L14050.0641,-3781.4273L14050.0744,-3781.4413L14050.0805,-3781.4498L14050.1138,-3781.4954L14050.1286,-3781.5204L14050.1564,-3781.554L14050.1791,-3781.5839L14050.2605,-3781.6947L14050.2791,-3781.7208L14050.3075,-3781.7619L14050.3728,-3781.8537L14050.4024,-3781.9041L14050.4179,-3781.9177L14050.4217,-3781.9236L14050.4707,-3781.9917L14050.4806,-3782.0047L14050.4877,-3782.0145L14050.5779,-3782.1392L14050.5901,-3782.1608L14050.5933,-3782.1664L14050.5984,-3782.1736L14050.6663,-3782.2696L14050.6943,-3782.3082L14050.7099,-3782.3205L14050.7464,-3782.3569L14050.7546,-3782.3647L14050.7609,-3782.3709L14050.8511,-3782.4597L14050.8607,-3782.4692L14050.9469,-3782.5553L14050.9548,-3782.5632L14050.9626,-3782.5708L14051.0574,-3782.6628L14051.0639,-3782.6691L14051.0698,-3782.6751L14051.1615,-3782.7662L14051.1708,-3782.7754L14051.3169,-3782.9206L14051.328,-3782.9317L14051.3966,-3783.0066L14051.4403,-3783.0432L14051.4527,-3783.0556L14051.4627,-3783.0655L14051.5578,-3783.1591L14051.5864,-3783.1873L14051.6563,-3783.2548L14051.7449,-3783.3396L14051.8323,-3783.4223L14051.9066,-3783.4941L14051.9143,-3783.5154L14051.9353,-3783.5933L14051.9529,-3783.6193L14051.9562,-3783.6267L14051.9594,-3783.6338L14051.9753,-3783.6789L14051.9787,-3783.6895L14051.9794,-3783.6914"/>
<path content="1,福島交通（株）,171,4.5,3.0,3.0," xlink:title="1" d="M14049.3164,-3782.1873L14049.349,-3782.1826L14049.4341,-3782.1759L14049.4504,-3782.1736L14049.4597,-3782.1736L14049.4795,-3782.1714L14049.5859,-3782.1624L14049.6405,-3782.1599L14049.6619,-3782.1589L14049.6992,-3782.1532L14049.7094,-3782.1518L14049.7476,-3782.1471L14049.8024,-3782.1359L14049.8506,-3782.1246L14049.8875,-3782.1145L14049.9215,-3782.1071L14049.9322,-3782.1038L14049.9698,-3782.0948L14050.0145,-3782.0824L14050.028,-3782.0801L14050.0471,-3782.0762L14050.0549,-3782.0739L14050.1441,-3782.0516L14050.2025,-3782.0373L14050.2472,-3782.0311L14050.3269,-3782.0217L14050.3359,-3782.021L14050.3733,-3782.0196L14050.4111,-3782.0125L14050.4189,-3782.0108L14050.4317,-3782.0097L14050.4806,-3782.0047L14050.4707,-3781.9917L14050.4217,-3781.9236L14050.4179,-3781.9177L14050.4024,-3781.9041L14050.3728,-3781.8537L14050.3075,-3781.7619L14050.2791,-3781.7208L14050.2605,-3781.6947L14050.1791,-3781.5839L14050.1564,-3781.554L14050.1286,-3781.5204L14050.1138,-3781.4954L14050.0805,-3781.4498L14050.0744,-3781.4413L14050.0641,-3781.4273L14049.9932,-3781.3304L14049.9542,-3781.2757L14049.9191,-3781.2362L14049.9095,-3781.2155L14049.884,-3781.1788L14049.8123,-3781.0803L14049.7925,-3781.0506L14049.7843,-3781.0387L14049.7279,-3780.9592L14049.7084,-3780.9349L14049.6751,-3780.8888L14049.6619,-3780.8726L14049.6498,-3780.8574L14049.6336,-3780.8347L14049.6165,-3780.8155L14049.5987,-3780.7918L14049.5907,-3780.7808L14049.5406,-3780.7119L14049.532,-3780.7L14049.4987,-3780.6544L14049.4881,-3780.6398L14049.4451,-3780.5871L14049.4427,-3780.5772L14049.4274,-3780.5561L14049.3965,-3780.5133L14049.3433,-3780.4398L14049.3164,-3780.4009"/>
<path content="1,福島交通（株）,174,10.5,8.5,8.5," xlink:title="1" d="M14053.7109,-3781.0228L14053.7003,-3781.0173L14053.6228,-3780.976L14053.5946,-3780.9621L14053.5626,-3780.9424L14053.5445,-3780.9279L14053.4911,-3780.8853L14053.4219,-3780.83L14053.4165,-3780.8258L14053.3219,-3780.747L14053.2846,-3780.7148L14053.2572,-3780.6906L14053.2406,-3780.6748L14053.1909,-3780.6275L14053.1781,-3780.6151L14053.1732,-3780.6106L14053.1512,-3780.592L14053.1185,-3780.57L14053.105,-3780.5649L14053.0838,-3780.5604L14053.0334,-3780.5525L14053.0136,-3780.5503L14052.9946,-3780.5506L14052.9341,-3780.5356L14052.9121,-3780.5328L14052.8936,-3780.5283L14052.8341,-3780.5187L14052.8035,-3780.5137L14052.7503,-3780.5041L14052.6723,-3780.4844L14052.6531,-3780.4782L14052.6306,-3780.4738L14052.5453,-3780.4506L14052.5183,-3780.4438L14052.5027,-3780.4416L14052.4708,-3780.4404L14052.4317,-3780.4455L14052.4185,-3780.4481L14052.4112,-3780.4483L14052.3494,-3780.4551L14052.326,-3780.4585L14052.3083,-3780.4607L14052.2749,-3780.4652L14052.2452,-3780.4697L14052.2277,-3780.4709L14052.2097,-3780.4703L14052.1827,-3780.4658L14052.1586,-3780.457L14052.1238,-3780.4247L14052.0855,-3780.3897L14052.072,-3780.3779L14052.0394,-3780.348L14052.0174,-3780.3289L14051.9898,-3780.3041L14051.9672,-3780.2846L14051.9585,-3780.2748L14051.8664,-3780.1781L14051.7436,-3780.0472L14051.7329,-3780.0337L14051.7279,-3780.0247L14051.7237,-3780.0174L14051.7174,-3779.9928L14051.7116,-3779.9565L14051.7131,-3779.9114L14051.7202,-3779.8686L14051.7343,-3779.8185L14051.7444,-3779.7824L14051.7493,-3779.7684L14051.7563,-3779.7397L14051.7602,-3779.729L14051.7563,-3779.7149L14051.7514,-3779.7014L14051.7336,-3779.6692L14051.7166,-3779.6399L14051.7017,-3779.6129L14051.6733,-3779.5673L14051.6386,-3779.5059L14051.6286,-3779.4901L14051.6003,-3779.4434L14051.5788,-3779.4142L14051.5719,-3779.4022L14051.5662,-3779.3943L14051.5236,-3779.3504L14051.471,-3779.2969"/>
<path content="1,福島交通（株）,175,10.0,7.5,7.5," xlink:title="1" d="M14053.7109,-3781.0228L14053.7003,-3781.0173L14053.6228,-3780.976L14053.5946,-3780.9621L14053.5626,-3780.9424L14053.5445,-3780.9279L14053.4911,-3780.8853L14053.4219,-3780.83L14053.4165,-3780.8258L14053.3219,-3780.747L14053.2846,-3780.7148L14053.2572,-3780.6906L14053.2406,-3780.6748L14053.1909,-3780.6275L14053.1781,-3780.6151L14053.1732,-3780.6106L14053.1512,-3780.592L14053.1185,-3780.57L14053.105,-3780.5649L14053.0838,-3780.5604L14053.0334,-3780.5525L14053.0136,-3780.5503L14052.9946,-3780.5506L14052.9341,-3780.5356L14052.9121,-3780.5328L14052.8936,-3780.5283L14052.8341,-3780.5187L14052.8035,-3780.5137L14052.7503,-3780.5041L14052.6723,-3780.4844L14052.6531,-3780.4782L14052.6306,-3780.4738L14052.5453,-3780.4506L14052.5183,-3780.4438L14052.5027,-3780.4416L14052.4708,-3780.4404L14052.4317,-3780.4455L14052.4185,-3780.4481L14052.4112,-3780.4483L14052.3494,-3780.4551L14052.326,-3780.4585L14052.3083,-3780.4607L14052.2749,-3780.4652L14052.2452,-3780.4697L14052.2277,-3780.4709L14052.2097,-3780.4703L14052.1827,-3780.4658L14052.1586,-3780.457L14052.1238,-3780.4247L14052.0855,-3780.3897L14052.072,-3780.3779L14052.0394,-3780.348L14052.0174,-3780.3289L14051.9898,-3780.3041L14051.9672,-3780.2846L14051.9585,-3780.2748L14051.8664,-3780.1781L14051.7436,-3780.0472L14051.7329,-3780.0337L14051.7279,-3780.0247L14051.7237,-3780.0174L14051.7174,-3779.9928L14051.7116,-3779.9565L14051.7131,-3779.9114L14051.7202,-3779.8686L14051.7343,-3779.8185L14051.7444,-3779.7824L14051.7493,-3779.7684L14051.7563,-3779.7397L14051.7602,-3779.729L14051.7563,-3779.7149L14051.7514,-3779.7014L14051.7336,-3779.6692L14051.7166,-3779.6399L14051.7017,-3779.6129L14051.6733,-3779.5673L14051.6386,-3779.5059L14051.6286,-3779.4901L14051.6003,-3779.4434L14051.5788,-3779.4142L14051.5719,-3779.4022L14051.5662,-3779.3943L14051.5236,-3779.3504L14051.471,-3779.2969"/>
<path content="1,福島交通（株）,177,9.5,6.5,6.5," xlink:title="1" d="M14053.7109,-3781.0228L14053.7003,-3781.0173L14053.6228,-3780.976L14053.5946,-3780.9621L14053.5626,-3780.9424L14053.5445,-3780.9279L14053.4911,-3780.8853L14053.4219,-3780.83L14053.4165,-3780.8258L14053.3219,-3780.747L14053.2846,-3780.7148L14053.2572,-3780.6906L14053.2406,-3780.6748L14053.1909,-3780.6275L14053.1781,-3780.6151L14053.1732,-3780.6106L14053.1512,-3780.592L14053.1185,-3780.57L14053.105,-3780.5649L14053.0838,-3780.5604L14053.0334,-3780.5525L14053.0136,-3780.5503L14052.9946,-3780.5506L14052.9341,-3780.5356L14052.9121,-3780.5328L14052.8936,-3780.5283L14052.8341,-3780.5187L14052.8035,-3780.5137L14052.7503,-3780.5041L14052.6723,-3780.4844L14052.6531,-3780.4782L14052.6306,-3780.4738L14052.5453,-3780.4506L14052.5183,-3780.4438L14052.5027,-3780.4416L14052.4708,-3780.4404L14052.4317,-3780.4455L14052.4185,-3780.4481L14052.4112,-3780.4483L14052.3494,-3780.4551L14052.326,-3780.4585L14052.3083,-3780.4607L14052.2749,-3780.4652L14052.2452,-3780.4697L14052.2277,-3780.4709L14052.2097,-3780.4703L14052.1827,-3780.4658L14052.1586,-3780.457L14052.1238,-3780.4247L14052.0855,-3780.3897L14052.072,-3780.3779L14052.0394,-3780.348L14052.0174,-3780.3289L14051.9898,-3780.3041L14051.9672,-3780.2846L14051.9585,-3780.2748L14051.8664,-3780.1781L14051.7436,-3780.0472L14051.7329,-3780.0337L14051.7279,-3780.0247L14051.7237,-3780.0174L14051.7174,-3779.9928L14051.7116,-3779.9565L14051.7131,-3779.9114L14051.7202,-3779.8686L14051.7343,-3779.8185L14051.7444,-3779.7824L14051.7493,-3779.7684L14051.7563,-3779.7397L14051.7602,-3779.729L14051.7563,-3779.7149L14051.7514,-3779.7014L14051.7336,-3779.6692L14051.7166,-3779.6399L14051.7017,-3779.6129L14051.6733,-3779.5673L14051.6386,-3779.5059L14051.6286,-3779.4901L14051.6003,-3779.4434L14051.5788,-3779.4142L14051.5719,-3779.4022L14051.5662,-3779.3943L14051.5236,-3779.3504L14051.471,-3779.2969"/>
<path content="1,福島交通（株）,178,17.0,11.5,11.5," xlink:title="1" d="M14051.471,-3779.2969L14051.5236,-3779.3504L14051.5662,-3779.3943L14051.5719,-3779.4022L14051.5788,-3779.4142L14051.6003,-3779.4434L14051.6286,-3779.4901L14051.6386,-3779.5059L14051.6073,-3779.5166L14051.6187,-3779.5397L14051.6265,-3779.5599L14051.6383,-3779.5886"/>
<path content="1,福島交通（株）,179,9.0,7.5,7.5," xlink:title="1" d="M14049.3164,-3780.4009L14049.3433,-3780.4398L14049.3965,-3780.5133L14049.4274,-3780.5561L14049.4427,-3780.5772L14049.4451,-3780.5871L14049.4881,-3780.6398L14049.4987,-3780.6544L14049.532,-3780.7L14049.5406,-3780.7119L14049.5907,-3780.7808L14049.5987,-3780.7918L14049.6165,-3780.8155L14049.6336,-3780.8347L14049.6498,-3780.8574L14049.6619,-3780.8726L14049.6751,-3780.8888L14049.7084,-3780.9349L14049.7279,-3780.9592L14049.7843,-3781.0387L14049.7925,-3781.0506L14049.8123,-3781.0803L14049.884,-3781.1788L14049.9095,-3781.2155L14049.9191,-3781.2362L14049.9542,-3781.2757L14049.9932,-3781.3304L14050.0641,-3781.4273L14050.0744,-3781.4413L14050.0805,-3781.4498L14050.1138,-3781.4954L14050.1286,-3781.5204L14050.1564,-3781.554L14050.1791,-3781.5839L14050.2605,-3781.6947L14050.2791,-3781.7208L14050.3075,-3781.7619L14050.3728,-3781.8537L14050.4024,-3781.9041L14050.4179,-3781.9177L14050.4217,-3781.9236L14050.4707,-3781.9917L14050.4806,-3782.0047L14050.4877,-3782.0145L14050.5779,-3782.1392L14050.5901,-3782.1608L14050.5933,-3782.1664L14050.5984,-3782.1736L14050.6663,-3782.2696L14050.6943,-3782.3082L14050.7099,-3782.3205L14050.7464,-3782.3569L14050.7546,-3782.3647L14050.7609,-3782.3709L14050.8511,-3782.4597L14050.8607,-3782.4692L14050.9469,-3782.5553L14050.9548,-3782.5632L14050.9626,-3782.5708L14051.0574,-3782.6628L14051.0639,-3782.6691L14051.0698,-3782.6751L14051.1615,-3782.7662L14051.1708,-3782.7754L14051.3169,-3782.9206L14051.328,-3782.9317L14051.3966,-3783.0066L14051.4403,-3783.0432L14051.4527,-3783.0556L14051.4951,-3783.0508L14051.8088,-3783.0241L14051.815,-3783.0172L14051.8747,-3782.9511L14052.0127,-3782.8093L14052.0629,-3782.7597L14052.1145,-3782.7088L14052.1209,-3782.7054L14052.1564,-3782.6767L14052.1678,-3782.6683L14052.1933,-3782.6497L14052.221,-3782.6334L14052.2493,-3782.6255L14052.2791,-3782.6193L14052.2855,-3782.6176L14052.3125,-3782.6131L14052.3224,-3782.612L14052.3399,-3782.6093L14052.3662,-3782.6036L14052.3785,-3782.6013L14052.4203,-3782.5939L14052.4281,-3782.5928L14052.46,-3782.588L14052.4806,-3782.5832L14052.5005,-3782.5787L14052.5296,-3782.5725L14052.5629,-3782.5675L14052.5772,-3782.5664L14052.6105,-3782.5652L14052.6374,-3782.5652L14052.6594,-3782.5675L14052.68,-3782.5675L14052.785,-3782.5736L14052.824,-3782.577L14052.8361,-3782.5787L14052.8832,-3782.5827L14052.9084,-3782.5855L14052.951,-3782.5939L14052.9908,-3782.6007L14053.0268,-3782.6088L14053.0369,-3782.6114L14053.1369,-3782.6368L14053.1489,-3782.6384L14053.1972,-3782.6379L14053.2532,-3782.6402L14053.2738,-3782.6419L14053.2987,-3782.6424L14053.3306,-3782.6436L14053.3732,-3782.6436L14053.3938,-3782.6424L14053.4119,-3782.6409L14053.4222,-3782.6436L14053.4668,-3782.6379L14053.5108,-3782.6351L14053.5356,-3782.6328L14053.608,-3782.6233L14053.6258,-3782.6199L14053.6789,-3782.6126L14053.7045,-3782.6081L14053.7109,-3782.6071"/>
<path content="1,福島交通（株）,195,1.0,1.0,1.0," xlink:title="1" d="M14051.471,-3779.2969L14051.5236,-3779.3504L14051.5662,-3779.3943L14051.5719,-3779.4022L14051.5788,-3779.4142L14051.6003,-3779.4434L14051.6286,-3779.4901L14051.6386,-3779.5059L14051.6733,-3779.5673L14051.7017,-3779.6129L14051.7166,-3779.6399L14051.7336,-3779.6692L14051.6868,-3779.6828L14051.6719,-3779.685L14051.6478,-3779.6861L14051.6478,-3779.6135L14051.6471,-3779.6084L14051.6383,-3779.5886"/>
<path content="1,福島交通（株）,196,1.0,0.5,0.5," xlink:title="1" d="M14049.3164,-3780.4009L14049.3433,-3780.4398L14049.3965,-3780.5133L14049.4274,-3780.5561L14049.4427,-3780.5772L14049.4451,-3780.5871L14049.4881,-3780.6398L14049.4987,-3780.6544L14049.532,-3780.7L14049.5406,-3780.7119L14049.5907,-3780.7808L14049.5987,-3780.7918L14049.6165,-3780.8155L14049.6336,-3780.8347L14049.6498,-3780.8574L14049.6619,-3780.8726L14049.6751,-3780.8888L14049.7084,-3780.9349L14049.7279,-3780.9592L14049.7843,-3781.0387L14049.7925,-3781.0506L14049.8123,-3781.0803L14049.884,-3781.1788L14049.9095,-3781.2155L14049.9191,-3781.2362L14049.9542,-3781.2757L14049.9932,-3781.3304L14050.0641,-3781.4273L14050.0744,-3781.4413L14050.0805,-3781.4498L14050.1138,-3781.4954L14050.1286,-3781.5204L14050.1564,-3781.554L14050.1791,-3781.5839L14050.2605,-3781.6947L14050.2791,-3781.7208L14050.3075,-3781.7619L14050.3728,-3781.8537L14050.4024,-3781.9041L14050.4179,-3781.9177L14050.4217,-3781.9236L14050.4707,-3781.9917L14050.4806,-3782.0047L14050.4877,-3782.0145L14050.5779,-3782.1392L14050.5901,-3782.1608L14050.5933,-3782.1664L14050.5984,-3782.1736L14050.6663,-3782.2696L14050.6943,-3782.3082L14050.7099,-3782.3205L14050.7464,-3782.3569L14050.7546,-3782.3647L14050.7609,-3782.3709L14050.8511,-3782.4597L14050.8607,-3782.4692L14050.9469,-3782.5553L14050.9548,-3782.5632L14050.9626,-3782.5708L14051.0574,-3782.6628L14051.0639,-3782.6691L14051.0698,-3782.6751L14051.1615,-3782.7662L14051.1708,-3782.7754L14051.3169,-3782.9206L14051.328,-3782.9317L14051.3966,-3783.0066L14051.4403,-3783.0432L14051.4527,-3783.0556L14051.4627,-3783.0655L14051.5578,-3783.1591L14051.5864,-3783.1873L14051.6563,-3783.2548L14051.7449,-3783.3396L14051.8323,-3783.4223L14051.9066,-3783.4941L14051.9143,-3783.5154L14051.9353,-3783.5933L14051.9529,-3783.6193L14051.9562,-3783.6267L14051.9594,-3783.6338L14051.9753,-3783.6789L14051.9787,-3783.6895L14051.9794,-3783.6914"/>
<path content="1,福島交通（株）,福交須賀川営業所～仙台駅前,12.0,12.0,12.0," xlink:title="1" d="M14049.3164,-3783.6299L14049.3216,-3783.6337L14049.3686,-3783.6623L14049.4246,-3783.6914"/>
<path content="1,福島交通（株）,福島競馬場前～仙台駅前,15.0,15.0,15.0," xlink:title="1" d="M14049.3164,-3783.6299L14049.3216,-3783.6337L14049.3686,-3783.6623L14049.4246,-3783.6914"/>
<path content="1,秋北バス（株）,ジュピター号,1.0,1.0,1.0," xlink:title="1" d="M14049.3164,-3783.6299L14049.3216,-3783.6337L14049.3686,-3783.6623L14049.4246,-3783.6914"/>
<path content="1,秋田中央交通（株）,フローラ号,1.0,1.0,1.0," xlink:title="1" d="M14049.4246,-3783.6914L14049.3686,-3783.6623L14049.3216,-3783.6337L14049.3164,-3783.6299"/>
<path content="1,羽後交通（株）,ドリーム鳥海号,1.0,1.0,1.0," xlink:title="1" d="M14049.3164,-3783.6299L14049.3216,-3783.6337L14049.3686,-3783.6623L14049.4246,-3783.6914"/>
<path content="1,羽後交通（株）,レーク＆ポート号,1.0,1.0,1.0," xlink:title="1" d="M14049.4246,-3783.6914L14049.3686,-3783.6623L14049.3216,-3783.6337L14049.3164,-3783.6299"/>
<path content="1,近鉄バス（株）,大阪・京都⇔仙台,1.0,1.0,1.0," xlink:title="1" d="M14049.3164,-3783.6299L14049.3216,-3783.6337L14049.3686,-3783.6623L14049.4246,-3783.6914"/>
</g>
</svg>
