<?xml version="1.0" encoding="UTF-8"?>
<svg  xmlns="http://www.w3.org/2000/svg" xmlns:xlink="http://www.w3.org/1999/xlink" xmlns:go="http://purl.org/svgmap/profile" property="N07_001,N07_002,N07_003,N07_004,N07_005,N07_006,N07_007" viewBox="12985.83984375 -3282.71484375 2.197265625 2.197265625" go:dataArea="12985.83984375 -3282.71484375 2.197265625 2.197265625" >
<metadata>
 <rdf:RDF xmlns:rdf="http://www.w3.org/1999/02/22-rdf-syntax-ns#" xmlns:crs="http://opengis.org/xmldtds/transformations.dtd" xmlns:svg="http://www.w3.org/svg" >
  <rdf:Description>
   <crs:CoordinateReferenceSystem rdf:resource="http://purl.org/crs/84" svg:transform="matrix(100.0,0.0,0.0,-100.0,0.0,0.0)" />
  </rdf:Description>
 </rdf:RDF>
</metadata>
<globalCoordinateSystem srsName="http://purl.org/crs/84" transform="matrix(100.0,0.0,0.0,-100.0,0.0,0.0)" />
<defs>
 <g id="p0" >
  <circle cx="0.0" cy="0.0" r="3" stroke="green" stroke-width="0.75" vector-effect="non-scaling-stroke" />
 </g>
</defs>
<g fill="none" fill-rule="evenodd" stroke="#FF00FF" stroke-width="0.75" opacity="0.5" vector-effect="non-scaling-stroke" stroke-linejoin="bevel" >
<path content="1,神姫バス（株）,神戸（三ノ宮）・姫路-長崎,1.0,1.0,1.0," xlink:title="1" d="M12986.4579,-3280.5176L12986.4494,-3280.534L12986.3848,-3280.6437L12986.3601,-3280.6843L12986.3521,-3280.6961L12986.3255,-3280.7366L12986.3075,-3280.7645L12986.2959,-3280.7815L12986.2823,-3280.8013L12986.2771,-3280.809L12986.224,-3280.8656L12986.1855,-3280.9003L12986.1444,-3280.9356L12986.0826,-3280.9842L12986.0312,-3281.0181L12985.9916,-3281.0421L12985.9876,-3281.0445L12985.9212,-3281.0844L12985.9078,-3281.0925L12985.8671,-3281.1144L12985.8398,-3281.1294"/>
<path content="1,近鉄バス（株）,京都・大阪⇔長崎,1.0,1.0,1.0," xlink:title="1" d="M12986.4579,-3280.5176L12986.4494,-3280.534L12986.3848,-3280.6437L12986.3601,-3280.6843L12986.3521,-3280.6961L12986.3255,-3280.7366L12986.3075,-3280.7645L12986.2959,-3280.7815L12986.2823,-3280.8013L12986.2771,-3280.809L12986.224,-3280.8656L12986.1855,-3280.9003L12986.1444,-3280.9356L12986.0826,-3280.9842L12986.0312,-3281.0181L12985.9916,-3281.0421L12985.9876,-3281.0445L12985.9212,-3281.0844L12985.9078,-3281.0925L12985.8671,-3281.1144L12985.8398,-3281.1294"/>
<path content="1,長崎市,吉住-（泉町）-西崎団地線,21.0,21.0,15.0," xlink:title="1" d="M12987.3159,-3280.5176L12987.3291,-3280.5247L12987.3382,-3280.532L12987.3756,-3280.5585L12987.3981,-3280.5726L12987.4071,-3280.5414L12987.4139,-3280.5294L12987.4265,-3280.5211L12987.4464,-3280.5176"/>
<path content="1,長崎自動車（株）,三重・長与・時津・バイパス経由-長崎新地線,11.0,0.0,0.0," xlink:title="1" d="M12987.9531,-3281.8524L12987.9994,-3281.8125L12988.0179,-3281.7957L12988.0371,-3281.7786"/>
<path content="1,長崎自動車（株）,三重・長与・時津・バイパス経由-長崎新地線,11.0,0.0,0.0," xlink:title="1" d="M12987.744,-3281.9921L12987.7327,-3281.9793L12987.7236,-3281.9727L12987.7163,-3281.9698L12987.6939,-3281.9637L12987.6832,-3281.9575L12987.6737,-3281.9463L12987.6354,-3281.8765L12987.6239,-3281.846L12987.6145,-3281.8193L12987.5973,-3281.7667L12987.581,-3281.723L12987.56,-3281.6666L12987.5523,-3281.6479L12987.5497,-3281.637L12987.5427,-3281.6062L12987.5423,-3281.5698L12987.5518,-3281.5259L12987.5619,-3281.4861L12987.563,-3281.4705L12987.5614,-3281.4602L12987.5554,-3281.4508L12987.5441,-3281.4407L12987.4737,-3281.3936L12987.4078,-3281.3495L12987.3697,-3281.3233L12987.2697,-3281.2559L12987.2457,-3281.2381L12987.2357,-3281.2286L12987.2281,-3281.2192L12987.2228,-3281.2067L12987.2194,-3281.1934L12987.2151,-3281.1765L12987.2122,-3281.1424L12987.2177,-3281.1196L12987.227,-3281.0969L12987.2356,-3281.0792L12987.2444,-3281.0652L12987.2464,-3281.059L12987.2453,-3281.0508L12987.2397,-3281.0438L12987.2122,-3281.0261L12987.179,-3281.0035L12987.1997,-3280.9903L12987.2275,-3280.9769L12987.274,-3280.9647L12987.2928,-3280.962L12987.3767,-3280.9647L12987.4591,-3280.9643L12987.5029,-3280.9612L12987.521,-3280.9599L12987.5295,-3281.0359L12987.5493,-3281.145L12987.5587,-3281.1917L12987.5681,-3281.2133L12987.5783,-3281.2295L12987.5923,-3281.2448L12987.6128,-3281.2627L12987.6398,-3281.2801L12987.687,-3281.3015L12987.7558,-3281.3339L12987.8262,-3281.3622L12987.8152,-3281.3872L12987.809,-3281.4124L12987.8048,-3281.4341L12987.803,-3281.4559L12987.8,-3281.4671L12987.7936,-3281.4795L12987.7863,-3281.4932L12987.7795,-3281.5046L12987.782,-3281.5237L12987.7847,-3281.551L12987.7858,-3281.5712L12987.7828,-3281.59L12987.7705,-3281.6386L12987.7652,-3281.6692L12987.7672,-3281.6834L12987.7845,-3281.7053L12987.8339,-3281.7694L12987.8459,-3281.7868L12987.858,-3281.7991L12987.8838,-3281.8094L12987.9052,-3281.817L12987.9421,-3281.8423L12987.9531,-3281.8524"/>
<path content="1,長崎自動車（株）,三重・長与・時津・バイパス経由-長崎新地線,11.0,0.0,0.0," xlink:title="1" d="M12987.744,-3281.9921L12987.8172,-3281.9524L12987.8693,-3281.9169L12987.9316,-3281.8705L12987.9531,-3281.8524"/>
<path content="1,長崎自動車（株）,三重・長与・時津・バイパス経由-長崎新地線,11.0,0.0,0.0," xlink:title="1" d="M12986.8278,-3282.0203L12986.7438,-3281.9849L12986.7078,-3281.9703L12986.6926,-3281.9634L12986.6815,-3281.9561L12986.6654,-3281.9422L12986.6346,-3281.9061L12986.6116,-3281.8788L12986.5966,-3281.8668L12986.5823,-3281.8574L12986.5692,-3281.8503L12986.5447,-3281.8403L12986.5219,-3281.8327L12986.4912,-3281.8185L12986.472,-3281.809L12986.459,-3281.7961L12986.4516,-3281.7941L12986.4322,-3281.7591L12986.4215,-3281.7425L12986.4045,-3281.7039L12986.4048,-3281.6856L12986.3832,-3281.6671L12986.3667,-3281.6548L12986.3372,-3281.6415L12986.2557,-3281.6076L12986.2025,-3281.582L12986.1587,-3281.5553L12986.1213,-3281.5302L12986.0756,-3281.4962L12986.0448,-3281.4711L12985.9928,-3281.4383L12985.9574,-3281.4171L12985.9277,-3281.4033L12985.8866,-3281.3854L12985.8414,-3281.3714L12985.8398,-3281.3709"/>
<path content="1,長崎自動車（株）,三重・長与・時津・バイパス経由-長崎新地線,11.0,0.0,0.0," xlink:title="1" d="M12986.8278,-3282.0203L12986.7989,-3282.0487"/>
<path content="1,長崎自動車（株）,三重・長与・時津・バイパス経由-長崎新地線,11.0,0.0,0.0," xlink:title="1" d="M12987.5707,-3282.1858L12987.5473,-3282.1387L12987.5271,-3282.0953L12987.5263,-3282.0845L12987.5263,-3282.0543L12987.5445,-3282.0563L12987.5582,-3282.0564L12987.5764,-3282.0549L12987.5932,-3282.0536L12987.6102,-3282.0502L12987.6345,-3282.0448L12987.6688,-3282.0317L12987.7003,-3282.0159L12987.744,-3281.9921"/>
<path content="1,長崎自動車（株）,三重・長与・時津・バイパス経由-長崎新地線,11.0,0.0,0.0," xlink:title="1" d="M12987.5707,-3282.1858L12987.5498,-3282.2009L12987.5344,-3282.1832L12987.5026,-3282.1519L12987.4902,-3282.1425L12987.4806,-3282.1393L12987.4652,-3282.1393L12987.452,-3282.1404L12987.4354,-3282.1429L12987.411,-3282.1433L12987.3816,-3282.1407L12987.3624,-3282.1375L12987.3436,-3282.1324L12987.3248,-3282.1269L12987.2944,-3282.1165L12987.2783,-3282.108L12987.2642,-3282.1051L12987.2315,-3282.0995L12987.2172,-3282.0961L12987.1677,-3282.0771L12987.1139,-3282.0636L12987.0918,-3282.0601L12987.0758,-3282.0605L12987.0607,-3282.062L12987.0076,-3282.0701L12986.987,-3282.073L12986.969,-3282.0732L12986.9555,-3282.0715L12986.9418,-3282.0665L12986.9162,-3282.0571L12986.8278,-3282.0203"/>
<path content="1,長崎自動車（株）,三重・長与・時津・バイパス経由-長崎新地線,11.0,0.0,0.0," xlink:title="1" d="M12987.4058,-3282.7148L12987.4007,-3282.6858L12987.387,-3282.6359L12987.3844,-3282.6033L12987.3865,-3282.579L12987.3965,-3282.5596L12987.4265,-3282.5265L12987.4555,-3282.4947L12987.4707,-3282.4775L12987.493,-3282.4616L12987.5128,-3282.4322L12987.5223,-3282.4183L12987.5257,-3282.4109L12987.5292,-3282.4034L12987.5377,-3282.3786L12987.5553,-3282.3297L12987.5657,-3282.3184L12987.5755,-3282.3098L12987.5949,-3282.298L12987.6091,-3282.2873L12987.6339,-3282.2739L12987.5944,-3282.212L12987.5707,-3282.1858"/>
<path content="1,長崎自動車（株）,内海-（琴海・大串）線,81.0,63.0,57.0," xlink:title="1" d="M12985.8398,-3281.3709L12985.8414,-3281.3714L12985.8866,-3281.3854L12985.9277,-3281.4033L12985.9574,-3281.4171L12985.9928,-3281.4383L12986.0448,-3281.4711L12986.0756,-3281.4962L12986.1213,-3281.5302L12986.1587,-3281.5553L12986.2025,-3281.582L12986.2557,-3281.6076L12986.3372,-3281.6415L12986.3667,-3281.6548L12986.3832,-3281.6671L12986.4048,-3281.6856"/>
<path content="1,長崎自動車（株）,内海-（琴海・大串）線,81.0,63.0,57.0," xlink:title="1" d="M12986.4048,-3281.6856L12986.4045,-3281.7039L12986.4215,-3281.7425L12986.4322,-3281.7591L12986.4516,-3281.7941L12986.459,-3281.7961L12986.472,-3281.809L12986.4912,-3281.8185L12986.5219,-3281.8327L12986.5447,-3281.8403L12986.5692,-3281.8503L12986.5823,-3281.8574L12986.5966,-3281.8668L12986.6116,-3281.8788L12986.6346,-3281.9061L12986.6654,-3281.9422L12986.6815,-3281.9561L12986.6926,-3281.9634L12986.7078,-3281.9703L12986.7438,-3281.9849L12986.8278,-3282.0203L12986.9162,-3282.0571L12986.9418,-3282.0665L12986.9555,-3282.0715L12986.969,-3282.0732L12986.987,-3282.073L12987.0076,-3282.0701L12987.0607,-3282.062L12987.0758,-3282.0605L12987.0918,-3282.0601L12987.1139,-3282.0636L12987.1677,-3282.0771L12987.2172,-3282.0961L12987.2315,-3282.0995L12987.2642,-3282.1051L12987.2783,-3282.108L12987.2944,-3282.1165L12987.3248,-3282.1269L12987.3436,-3282.1324L12987.3624,-3282.1375L12987.3816,-3282.1407L12987.411,-3282.1433L12987.4354,-3282.1429L12987.452,-3282.1404L12987.4652,-3282.1393L12987.4806,-3282.1393L12987.4902,-3282.1425L12987.5026,-3282.1519L12987.5344,-3282.1832L12987.5498,-3282.2009L12987.5707,-3282.1858"/>
<path content="1,長崎自動車（株）,内海-（琴海・大串）線,81.0,63.0,57.0," xlink:title="1" d="M12987.744,-3281.9921L12987.7327,-3281.9793L12987.7236,-3281.9727L12987.7163,-3281.9698L12987.6939,-3281.9637L12987.6832,-3281.9575L12987.6737,-3281.9463L12987.6354,-3281.8765L12987.6239,-3281.846L12987.6145,-3281.8193L12987.5973,-3281.7667L12987.581,-3281.723L12987.56,-3281.6666L12987.5523,-3281.6479L12987.5497,-3281.637L12987.5427,-3281.6062L12987.5423,-3281.5698L12987.5518,-3281.5259L12987.5619,-3281.4861L12987.563,-3281.4705L12987.5614,-3281.4602L12987.5554,-3281.4508L12987.5441,-3281.4407L12987.4737,-3281.3936L12987.4078,-3281.3495L12987.3697,-3281.3233L12987.2697,-3281.2559L12987.2457,-3281.2381L12987.2357,-3281.2286L12987.2281,-3281.2192L12987.2228,-3281.2067L12987.2194,-3281.1934L12987.2151,-3281.1765L12987.2122,-3281.1424L12987.2177,-3281.1196L12987.227,-3281.0969L12987.2356,-3281.0792L12987.2444,-3281.0652L12987.2464,-3281.059L12987.2453,-3281.0508L12987.2397,-3281.0438L12987.2122,-3281.0261L12987.179,-3281.0035L12987.1412,-3281.0415L12987.1082,-3281.084L12987.086,-3281.1279L12987.0682,-3281.1527L12987.0577,-3281.1636L12987.0473,-3281.1704L12987.0352,-3281.1749L12987.019,-3281.1813L12987.0065,-3281.1891L12987.0001,-3281.2004L12986.9964,-3281.2136L12986.9971,-3281.2626L12987.0041,-3281.3239L12987.0017,-3281.3348L12986.9976,-3281.3413L12986.9827,-3281.3515L12986.9501,-3281.3729L12986.9355,-3281.3804L12986.9267,-3281.3886L12986.9226,-3281.3988L12986.9194,-3281.4158L12986.9186,-3281.4434L12986.9167,-3281.4772L12986.9259,-3281.5026L12986.9315,-3281.5451L12986.944,-3281.6036L12986.9533,-3281.6407L12986.9541,-3281.656L12986.9513,-3281.668L12986.946,-3281.6805L12986.9359,-3281.6955L12986.9247,-3281.7101L12986.921,-3281.719L12986.9194,-3281.7357L12986.9219,-3281.7669L12986.948,-3281.802L12986.9565,-3281.8119L12986.9622,-3281.8177L12986.9698,-3281.8224L12986.9847,-3281.8252L12987.0711,-3281.8395L12987.1283,-3281.8483L12987.1396,-3281.8531L12987.1481,-3281.8595L12987.1513,-3281.8684L12987.1513,-3281.8789L12987.1469,-3281.8888L12987.1372,-3281.898L12987.1267,-3281.9017L12987.109,-3281.9034L12987.0908,-3281.9014L12987.0727,-3281.9014L12987.0618,-3281.9024L12987.0478,-3281.9098L12987.0315,-3281.9364L12986.9218,-3281.9089L12986.8162,-3281.882L12986.7359,-3281.8626L12986.7053,-3281.8558L12986.6875,-3281.8486L12986.6794,-3281.8452L12986.6085,-3281.8044L12986.5496,-3281.7728L12986.4927,-3281.7428L12986.4437,-3281.7182L12986.4205,-3281.6984L12986.4048,-3281.6856"/>
<path content="1,長崎自動車（株）,内海-（琴海・大串）線,81.0,63.0,57.0," xlink:title="1" d="M12987.744,-3281.9921L12987.8172,-3281.9524L12987.8693,-3281.9169L12987.9316,-3281.8705L12987.9531,-3281.8524L12987.9994,-3281.8125L12988.0179,-3281.7957L12988.0371,-3281.7786"/>
<path content="1,長崎自動車（株）,内海-（琴海・大串）線,81.0,63.0,57.0," xlink:title="1" d="M12987.5707,-3282.1858L12987.5473,-3282.1387L12987.5271,-3282.0953L12987.5263,-3282.0845L12987.5263,-3282.0543L12987.5445,-3282.0563L12987.5582,-3282.0564L12987.5764,-3282.0549L12987.5932,-3282.0536L12987.6102,-3282.0502L12987.6345,-3282.0448L12987.6688,-3282.0317L12987.7003,-3282.0159L12987.744,-3281.9921"/>
<path content="1,長崎自動車（株）,内海-（琴海・大串）線,81.0,63.0,57.0," xlink:title="1" d="M12987.5707,-3282.1858L12987.5944,-3282.212L12987.6339,-3282.2739L12987.6091,-3282.2873L12987.5949,-3282.298L12987.5755,-3282.3098L12987.5657,-3282.3184L12987.5553,-3282.3297L12987.5377,-3282.3786L12987.5292,-3282.4034L12987.5257,-3282.4109L12987.5223,-3282.4183L12987.5128,-3282.4322L12987.493,-3282.4616L12987.4707,-3282.4775L12987.4555,-3282.4947L12987.4265,-3282.5265L12987.3965,-3282.5596L12987.3865,-3282.579L12987.3844,-3282.6033L12987.387,-3282.6359L12987.4007,-3282.6858L12987.4058,-3282.7148"/>
<path content="1,長崎自動車（株）,大串線、石原線,37.5,28.5,26.0," xlink:title="1" d="M12987.3469,-3282.7148L12987.3447,-3282.7047L12987.3316,-3282.6689L12987.3273,-3282.6366L12987.387,-3282.6359L12987.3844,-3282.6033L12987.3865,-3282.579L12987.3965,-3282.5596L12987.4265,-3282.5265L12987.4555,-3282.4947L12987.4707,-3282.4775L12987.493,-3282.4616L12987.5128,-3282.4322L12987.5223,-3282.4183L12987.5257,-3282.4109L12987.5292,-3282.4034L12987.5377,-3282.3786L12987.5553,-3282.3297L12987.5657,-3282.3184L12987.5755,-3282.3098L12987.5949,-3282.298L12987.6091,-3282.2873L12987.6339,-3282.2739L12987.687,-3282.2563L12987.748,-3282.2282L12987.7737,-3282.215L12987.7974,-3282.2031L12987.8305,-3282.1799L12987.8857,-3282.1306L12987.906,-3282.1137L12987.931,-3282.0887L12987.9679,-3282.0577L12987.9772,-3282.0494L12988.0041,-3282.028L12988.0172,-3282.0182L12988.0371,-3281.9983"/>
<path content="1,長崎自動車（株）,時津-南陽台-長与ニュータウン・長与駅線,8.0,6.0,6.0," xlink:title="1" d="M12987.8487,-3280.863L12987.8277,-3280.8436"/>
<path content="1,長崎自動車（株）,時津-南陽台-長与ニュータウン・長与駅線,8.0,6.0,6.0," xlink:title="1" d="M12987.8487,-3280.863L12987.8118,-3280.8691L12987.7628,-3280.8792L12987.7139,-3280.8921L12987.6761,-3280.9016L12987.6424,-3280.9117L12987.6023,-3280.93L12987.5541,-3280.9503L12987.521,-3280.9599L12987.5029,-3280.9612L12987.4591,-3280.9643L12987.3767,-3280.9647L12987.2928,-3280.962L12987.274,-3280.9647L12987.2275,-3280.9769L12987.1997,-3280.9903L12987.179,-3281.0035"/>
<path content="1,長崎自動車（株）,時津-南陽台-長与ニュータウン・長与駅線,8.0,6.0,6.0," xlink:title="1" d="M12987.179,-3281.0035L12987.1412,-3281.0415L12987.1082,-3281.084L12987.086,-3281.1279L12987.0682,-3281.1527L12987.0577,-3281.1636L12987.0473,-3281.1704L12987.0352,-3281.1749L12987.019,-3281.1813L12987.0065,-3281.1891L12987.0001,-3281.2004L12986.9964,-3281.2136L12986.9971,-3281.2626L12987.0041,-3281.3239L12987.0017,-3281.3348L12986.9976,-3281.3413L12986.9827,-3281.3515L12986.9501,-3281.3729L12986.9355,-3281.3804L12986.9267,-3281.3886L12986.9226,-3281.3988L12986.9194,-3281.4158L12986.9186,-3281.4434L12986.9167,-3281.4772L12986.9259,-3281.5026L12986.9315,-3281.5451L12986.944,-3281.6036L12986.9533,-3281.6407L12986.9541,-3281.656L12986.9513,-3281.668L12986.946,-3281.6805L12986.9359,-3281.6955L12986.9247,-3281.7101L12986.921,-3281.719L12986.9194,-3281.7357L12986.9219,-3281.7669L12986.948,-3281.802L12986.9565,-3281.8119L12986.9622,-3281.8177L12986.9698,-3281.8224L12986.9847,-3281.8252L12987.0711,-3281.8395L12987.1283,-3281.8483L12987.1396,-3281.8531L12987.1481,-3281.8595L12987.1513,-3281.8684L12987.1513,-3281.8789L12987.1469,-3281.8888L12987.1372,-3281.898L12987.1267,-3281.9017L12987.109,-3281.9034L12987.0908,-3281.9014L12987.0727,-3281.9014L12987.0618,-3281.9024L12987.0478,-3281.9098"/>
<path content="1,長崎自動車（株）,時津-南陽台-長与ニュータウン・長与駅線,8.0,6.0,6.0," xlink:title="1" d="M12987.179,-3281.0035L12987.2122,-3281.0261L12987.2397,-3281.0438L12987.2453,-3281.0508L12987.2464,-3281.059L12987.2444,-3281.0652L12987.2356,-3281.0792L12987.227,-3281.0969L12987.2177,-3281.1196L12987.2122,-3281.1424L12987.2151,-3281.1765L12987.2194,-3281.1934L12987.2228,-3281.2067L12987.2281,-3281.2192L12987.2357,-3281.2286L12987.2457,-3281.2381L12987.2697,-3281.2559L12987.3697,-3281.3233L12987.4078,-3281.3495L12987.4737,-3281.3936L12987.5441,-3281.4407L12987.5554,-3281.4508L12987.5614,-3281.4602L12987.563,-3281.4705L12987.5619,-3281.4861L12987.5518,-3281.5259L12987.5423,-3281.5698L12987.5427,-3281.6062L12987.5497,-3281.637L12987.5523,-3281.6479L12987.56,-3281.6666L12987.581,-3281.723L12987.5973,-3281.7667L12987.6145,-3281.8193L12987.6239,-3281.846L12987.6354,-3281.8765L12987.6737,-3281.9463L12987.6832,-3281.9575L12987.6939,-3281.9637L12987.7163,-3281.9698L12987.7236,-3281.9727L12987.7327,-3281.9793L12987.744,-3281.9921"/>
<path content="1,長崎自動車（株）,時津-南陽台-長与ニュータウン・長与駅線,8.0,6.0,6.0," xlink:title="1" d="M12988.0371,-3280.8685L12987.9654,-3280.8741L12987.9368,-3280.8767L12987.9184,-3280.8792L12987.8999,-3280.8796L12987.8746,-3280.8773L12987.8662,-3280.8714L12987.8576,-3280.87L12987.8487,-3280.863"/>
<path content="1,長崎自動車（株）,時津-南陽台-長与ニュータウン・長与駅線,8.0,6.0,6.0," xlink:title="1" d="M12988.0371,-3281.7786L12988.0179,-3281.7957L12987.9994,-3281.8125L12987.9531,-3281.8524L12987.9316,-3281.8705L12987.8693,-3281.9169L12987.8172,-3281.9524L12987.744,-3281.9921"/>
<path content="1,長崎自動車（株）,時津-南陽台-長与ニュータウン・長与駅線,8.0,6.0,6.0," xlink:title="1" d="M12987.744,-3281.9921L12987.7003,-3282.0159L12987.6688,-3282.0317L12987.6345,-3282.0448L12987.6102,-3282.0502L12987.5932,-3282.0536L12987.5764,-3282.0549L12987.5582,-3282.0564L12987.5445,-3282.0563L12987.5263,-3282.0543L12987.5263,-3282.0845L12987.5271,-3282.0953L12987.5473,-3282.1387L12987.5707,-3282.1858L12987.5944,-3282.212L12987.6339,-3282.2739"/>
<path content="1,長崎自動車（株）,時津-南陽台-長与ニュータウン・長与駅線,8.0,6.0,6.0," xlink:title="1" d="M12987.6339,-3282.2739L12987.687,-3282.2563L12987.748,-3282.2282L12987.7737,-3282.215L12987.7974,-3282.2031L12987.8305,-3282.1799L12987.8857,-3282.1306L12987.906,-3282.1137L12987.931,-3282.0887L12987.9679,-3282.0577L12987.9772,-3282.0494L12988.0041,-3282.028L12988.0172,-3282.0182L12988.0371,-3281.9983"/>
<path content="1,長崎自動車（株）,時津-南陽台-長与ニュータウン・長与駅線,8.0,6.0,6.0," xlink:title="1" d="M12987.6339,-3282.2739L12987.6091,-3282.2873L12987.5949,-3282.298L12987.5755,-3282.3098L12987.5657,-3282.3184L12987.5553,-3282.3297L12987.5377,-3282.3786L12987.5292,-3282.4034L12987.5257,-3282.4109L12987.5223,-3282.4183L12987.5128,-3282.4322L12987.493,-3282.4616L12987.4707,-3282.4775L12987.4555,-3282.4947L12987.4265,-3282.5265L12987.3965,-3282.5596L12987.3865,-3282.579L12987.3844,-3282.6033L12987.387,-3282.6359L12987.4007,-3282.6858L12987.4058,-3282.7148"/>
<path content="1,長崎自動車（株）,時津・溝川-長与ニュータウン線,1.0,1.0,1.0," xlink:title="1" d="M12988.0371,-3281.9983L12988.0172,-3282.0182L12988.0041,-3282.028L12987.9772,-3282.0494L12987.9679,-3282.0577L12987.931,-3282.0887L12987.906,-3282.1137L12987.8857,-3282.1306L12987.8305,-3282.1799L12987.7974,-3282.2031L12987.7737,-3282.215L12987.748,-3282.2282L12987.687,-3282.2563L12987.6339,-3282.2739L12987.6091,-3282.2873L12987.5949,-3282.298L12987.5755,-3282.3098L12987.5657,-3282.3184L12987.5553,-3282.3297L12987.5377,-3282.3786L12987.5292,-3282.4034L12987.5257,-3282.4109L12987.5223,-3282.4183L12987.5128,-3282.4322L12987.493,-3282.4616L12987.4707,-3282.4775L12987.4555,-3282.4947L12987.4265,-3282.5265L12987.3965,-3282.5596L12987.3865,-3282.579L12987.3844,-3282.6033L12987.387,-3282.6359L12987.4007,-3282.6858L12987.4058,-3282.7148"/>
<path content="1,長崎自動車（株）,長与ニュータウン～上横尾、寺川内,12.5,12.0,11.5," xlink:title="1" d="M12985.8398,-3281.3709L12985.8414,-3281.3714L12985.8866,-3281.3854L12985.9277,-3281.4033L12985.9574,-3281.4171L12985.9928,-3281.4383L12986.0448,-3281.4711L12986.0756,-3281.4962L12986.1213,-3281.5302L12986.1587,-3281.5553L12986.2025,-3281.582L12986.2557,-3281.6076L12986.3372,-3281.6415L12986.3667,-3281.6548L12986.3832,-3281.6671L12986.4048,-3281.6856L12986.4045,-3281.7039L12986.4215,-3281.7425L12986.4322,-3281.7591L12986.4516,-3281.7941L12986.459,-3281.7961L12986.472,-3281.809L12986.4912,-3281.8185L12986.5219,-3281.8327L12986.5447,-3281.8403L12986.5692,-3281.8503L12986.5823,-3281.8574L12986.5966,-3281.8668L12986.6116,-3281.8788L12986.6346,-3281.9061L12986.6654,-3281.9422L12986.6815,-3281.9561L12986.6926,-3281.9634L12986.7078,-3281.9703L12986.7438,-3281.9849L12986.8278,-3282.0203"/>
<path content="1,長崎自動車（株）,長与ニュータウン～上横尾、寺川内,12.5,12.0,11.5," xlink:title="1" d="M12987.8487,-3280.863L12987.8277,-3280.8436"/>
<path content="1,長崎自動車（株）,長与ニュータウン～上横尾、寺川内,12.5,12.0,11.5," xlink:title="1" d="M12987.8487,-3280.863L12987.8576,-3280.87L12987.8662,-3280.8714L12987.8746,-3280.8773L12987.8999,-3280.8796L12987.9184,-3280.8792L12987.9368,-3280.8767L12987.9654,-3280.8741L12988.0371,-3280.8685"/>
<path content="1,長崎自動車（株）,長与ニュータウン～上横尾、寺川内,12.5,12.0,11.5," xlink:title="1" d="M12987.521,-3280.9599L12987.5541,-3280.9503L12987.6023,-3280.93L12987.6424,-3280.9117L12987.6761,-3280.9016L12987.7139,-3280.8921L12987.7628,-3280.8792L12987.8118,-3280.8691L12987.8487,-3280.863"/>
<path content="1,長崎自動車（株）,長与ニュータウン～上横尾、寺川内,12.5,12.0,11.5," xlink:title="1" d="M12987.521,-3280.9599L12987.5295,-3281.0359L12987.5493,-3281.145L12987.5587,-3281.1917L12987.5681,-3281.2133L12987.5783,-3281.2295L12987.5923,-3281.2448L12987.6128,-3281.2627L12987.6398,-3281.2801L12987.687,-3281.3015L12987.7558,-3281.3339L12987.8262,-3281.3622L12987.8152,-3281.3872L12987.809,-3281.4124L12987.8048,-3281.4341L12987.803,-3281.4559L12987.8,-3281.4671L12987.7936,-3281.4795L12987.7863,-3281.4932L12987.7795,-3281.5046L12987.782,-3281.5237L12987.7847,-3281.551L12987.7858,-3281.5712L12987.7828,-3281.59L12987.7705,-3281.6386L12987.7652,-3281.6692L12987.7672,-3281.6834L12987.7845,-3281.7053L12987.8339,-3281.7694L12987.8459,-3281.7868L12987.858,-3281.7991L12987.8838,-3281.8094L12987.9052,-3281.817L12987.9421,-3281.8423L12987.9531,-3281.8524"/>
<path content="1,長崎自動車（株）,長与ニュータウン～上横尾、寺川内,12.5,12.0,11.5," xlink:title="1" d="M12988.0371,-3281.9983L12988.0172,-3282.0182L12988.0041,-3282.028L12987.9772,-3282.0494L12987.9679,-3282.0577L12987.931,-3282.0887L12987.906,-3282.1137L12987.8857,-3282.1306L12987.8305,-3282.1799L12987.7974,-3282.2031L12987.7737,-3282.215L12987.748,-3282.2282L12987.687,-3282.2563L12987.6339,-3282.2739"/>
<path content="1,長崎自動車（株）,長与ニュータウン～上横尾、寺川内,12.5,12.0,11.5," xlink:title="1" d="M12987.9531,-3281.8524L12987.9994,-3281.8125L12988.0179,-3281.7957L12988.0371,-3281.7786"/>
<path content="1,長崎自動車（株）,長与ニュータウン～上横尾、寺川内,12.5,12.0,11.5," xlink:title="1" d="M12987.744,-3281.9921L12987.7327,-3281.9793L12987.7236,-3281.9727L12987.7163,-3281.9698L12987.6939,-3281.9637L12987.6832,-3281.9575L12987.6737,-3281.9463L12987.6354,-3281.8765L12987.6239,-3281.846L12987.6145,-3281.8193L12987.5973,-3281.7667L12987.581,-3281.723L12987.56,-3281.6666L12987.5523,-3281.6479L12987.5497,-3281.637L12987.5427,-3281.6062L12987.5423,-3281.5698L12987.5518,-3281.5259L12987.5619,-3281.4861L12987.563,-3281.4705L12987.5614,-3281.4602L12987.5554,-3281.4508L12987.5441,-3281.4407L12987.4737,-3281.3936L12987.4078,-3281.3495L12987.3697,-3281.3233L12987.2697,-3281.2559L12987.2457,-3281.2381L12987.2357,-3281.2286L12987.2281,-3281.2192L12987.2228,-3281.2067L12987.2194,-3281.1934L12987.2151,-3281.1765L12987.2122,-3281.1424L12987.2177,-3281.1196L12987.227,-3281.0969L12987.2356,-3281.0792L12987.2444,-3281.0652L12987.2464,-3281.059L12987.2453,-3281.0508L12987.2397,-3281.0438L12987.2122,-3281.0261L12987.179,-3281.0035L12987.1997,-3280.9903L12987.2275,-3280.9769L12987.274,-3280.9647L12987.2928,-3280.962L12987.3767,-3280.9647L12987.4591,-3280.9643L12987.5029,-3280.9612L12987.521,-3280.9599"/>
<path content="1,長崎自動車（株）,長与ニュータウン～上横尾、寺川内,12.5,12.0,11.5," xlink:title="1" d="M12987.744,-3281.9921L12987.8172,-3281.9524L12987.8693,-3281.9169L12987.9316,-3281.8705L12987.9531,-3281.8524"/>
<path content="1,長崎自動車（株）,長与ニュータウン～上横尾、寺川内,12.5,12.0,11.5," xlink:title="1" d="M12986.8278,-3282.0203L12986.7989,-3282.0487"/>
<path content="1,長崎自動車（株）,長与ニュータウン～上横尾、寺川内,12.5,12.0,11.5," xlink:title="1" d="M12986.8278,-3282.0203L12986.9162,-3282.0571L12986.9418,-3282.0665L12986.9555,-3282.0715L12986.969,-3282.0732L12986.987,-3282.073L12987.0076,-3282.0701L12987.0607,-3282.062L12987.0758,-3282.0605L12987.0918,-3282.0601L12987.1139,-3282.0636L12987.1677,-3282.0771L12987.2172,-3282.0961L12987.2315,-3282.0995L12987.2642,-3282.1051L12987.2783,-3282.108L12987.2944,-3282.1165L12987.3248,-3282.1269L12987.3436,-3282.1324L12987.3624,-3282.1375L12987.3816,-3282.1407L12987.411,-3282.1433L12987.4354,-3282.1429L12987.452,-3282.1404L12987.4652,-3282.1393L12987.4806,-3282.1393L12987.4902,-3282.1425L12987.5026,-3282.1519L12987.5344,-3282.1832L12987.5498,-3282.2009L12987.5707,-3282.1858"/>
<path content="1,長崎自動車（株）,長与ニュータウン～上横尾、寺川内,12.5,12.0,11.5," xlink:title="1" d="M12987.5707,-3282.1858L12987.5473,-3282.1387L12987.5271,-3282.0953L12987.5263,-3282.0845L12987.5263,-3282.0543L12987.5445,-3282.0563L12987.5582,-3282.0564L12987.5764,-3282.0549L12987.5932,-3282.0536L12987.6102,-3282.0502L12987.6345,-3282.0448L12987.6688,-3282.0317L12987.7003,-3282.0159L12987.744,-3281.9921"/>
<path content="1,長崎自動車（株）,長与ニュータウン～上横尾、寺川内,12.5,12.0,11.5," xlink:title="1" d="M12987.5707,-3282.1858L12987.5944,-3282.212L12987.6339,-3282.2739"/>
<path content="1,長崎自動車（株）,長与ニュータウン～上横尾、寺川内,12.5,12.0,11.5," xlink:title="1" d="M12987.6339,-3282.2739L12987.6091,-3282.2873L12987.5949,-3282.298L12987.5755,-3282.3098L12987.5657,-3282.3184L12987.5553,-3282.3297L12987.5377,-3282.3786L12987.5292,-3282.4034L12987.5257,-3282.4109L12987.5223,-3282.4183L12987.5128,-3282.4322L12987.493,-3282.4616L12987.4707,-3282.4775L12987.4555,-3282.4947L12987.4265,-3282.5265L12987.3965,-3282.5596L12987.3865,-3282.579L12987.3844,-3282.6033L12987.387,-3282.6359L12987.4007,-3282.6858L12987.4058,-3282.7148"/>
<path content="1,長崎自動車（株）,長与駅・長与ニュータウン-南陽台-時津線,10.0,8.0,8.0," xlink:title="1" d="M12987.179,-3281.0035L12987.1997,-3280.9903L12987.2275,-3280.9769L12987.274,-3280.9647L12987.2928,-3280.962L12987.3767,-3280.9647L12987.4591,-3280.9643L12987.5029,-3280.9612L12987.521,-3280.9599L12987.5295,-3281.0359L12987.5493,-3281.145L12987.5587,-3281.1917L12987.5681,-3281.2133L12987.5783,-3281.2295L12987.5923,-3281.2448L12987.6128,-3281.2627L12987.6398,-3281.2801L12987.687,-3281.3015L12987.7558,-3281.3339L12987.8262,-3281.3622L12987.8152,-3281.3872L12987.809,-3281.4124L12987.8048,-3281.4341L12987.803,-3281.4559L12987.8,-3281.4671L12987.7936,-3281.4795L12987.7863,-3281.4932L12987.7795,-3281.5046L12987.782,-3281.5237L12987.7847,-3281.551L12987.7858,-3281.5712L12987.7828,-3281.59L12987.7705,-3281.6386L12987.7652,-3281.6692L12987.7672,-3281.6834L12987.7845,-3281.7053L12987.8339,-3281.7694L12987.8459,-3281.7868L12987.858,-3281.7991L12987.8838,-3281.8094L12987.9052,-3281.817L12987.9421,-3281.8423L12987.9531,-3281.8524"/>
<path content="1,長崎自動車（株）,長与駅・長与ニュータウン-南陽台-時津線,10.0,8.0,8.0," xlink:title="1" d="M12987.179,-3281.0035L12987.2122,-3281.0261L12987.2397,-3281.0438L12987.2453,-3281.0508L12987.2464,-3281.059L12987.2444,-3281.0652L12987.2356,-3281.0792L12987.227,-3281.0969L12987.2177,-3281.1196L12987.2122,-3281.1424L12987.2151,-3281.1765L12987.2194,-3281.1934L12987.2228,-3281.2067L12987.2281,-3281.2192L12987.2357,-3281.2286L12987.2457,-3281.2381L12987.2697,-3281.2559L12987.3697,-3281.3233L12987.4078,-3281.3495L12987.4737,-3281.3936L12987.5441,-3281.4407L12987.5554,-3281.4508L12987.5614,-3281.4602L12987.563,-3281.4705L12987.5619,-3281.4861L12987.5518,-3281.5259L12987.5423,-3281.5698L12987.5427,-3281.6062L12987.5497,-3281.637L12987.5523,-3281.6479L12987.56,-3281.6666L12987.581,-3281.723L12987.5973,-3281.7667L12987.6145,-3281.8193L12987.6239,-3281.846L12987.6354,-3281.8765L12987.6737,-3281.9463L12987.6832,-3281.9575L12987.6939,-3281.9637L12987.7163,-3281.9698L12987.7236,-3281.9727L12987.7327,-3281.9793L12987.744,-3281.9921"/>
<path content="1,長崎自動車（株）,長与駅・長与ニュータウン-南陽台-時津線,10.0,8.0,8.0," xlink:title="1" d="M12988.0371,-3281.9811L12988.0155,-3281.9661L12988.01,-3281.9586L12987.9843,-3281.9239L12987.9765,-3281.9168"/>
<path content="1,長崎自動車（株）,長与駅・長与ニュータウン-南陽台-時津線,10.0,8.0,8.0," xlink:title="1" d="M12987.9531,-3281.8524L12987.9994,-3281.8125L12988.0179,-3281.7957L12988.0371,-3281.7786"/>
<path content="1,長崎自動車（株）,長与駅・長与ニュータウン-南陽台-時津線,10.0,8.0,8.0," xlink:title="1" d="M12987.744,-3281.9921L12987.8172,-3281.9524L12987.8693,-3281.9169L12987.9316,-3281.8705L12987.9531,-3281.8524"/>
<path content="1,長崎自動車（株）,長与駅・長与ニュータウン-南陽台-時津線,10.0,8.0,8.0," xlink:title="1" d="M12987.744,-3281.9921L12987.7003,-3282.0159L12987.6688,-3282.0317L12987.6345,-3282.0448L12987.6102,-3282.0502L12987.5932,-3282.0536L12987.5764,-3282.0549L12987.5582,-3282.0564L12987.5445,-3282.0563L12987.5263,-3282.0543"/>
<path content="1,長崎自動車（株）,長与駅・長与ニュータウン-南陽台-時津線,10.0,8.0,8.0," xlink:title="1" d="M12987.5263,-3282.0543L12987.4831,-3282.0456L12987.4142,-3282.0299L12987.2539,-3281.9932L12987.1105,-3281.958L12987.0315,-3281.9364L12987.0478,-3281.9098L12987.0618,-3281.9024L12987.0727,-3281.9014L12987.0908,-3281.9014L12987.109,-3281.9034L12987.1267,-3281.9017L12987.1372,-3281.898L12987.1469,-3281.8888L12987.1513,-3281.8789L12987.1513,-3281.8684L12987.1481,-3281.8595L12987.1396,-3281.8531L12987.1283,-3281.8483L12987.0711,-3281.8395L12986.9847,-3281.8252L12986.9698,-3281.8224L12986.9622,-3281.8177L12986.9565,-3281.8119L12986.948,-3281.802L12986.9219,-3281.7669L12986.9194,-3281.7357L12986.921,-3281.719L12986.9247,-3281.7101L12986.9359,-3281.6955L12986.946,-3281.6805L12986.9513,-3281.668L12986.9541,-3281.656L12986.9533,-3281.6407L12986.944,-3281.6036L12986.9315,-3281.5451L12986.9259,-3281.5026L12986.9167,-3281.4772L12986.9186,-3281.4434L12986.9194,-3281.4158L12986.9226,-3281.3988L12986.9267,-3281.3886L12986.9355,-3281.3804L12986.9501,-3281.3729L12986.9827,-3281.3515L12986.9976,-3281.3413L12987.0017,-3281.3348L12987.0041,-3281.3239L12986.9971,-3281.2626L12986.9964,-3281.2136L12987.0001,-3281.2004L12987.0065,-3281.1891L12987.019,-3281.1813L12987.0352,-3281.1749L12987.0473,-3281.1704L12987.0577,-3281.1636L12987.0682,-3281.1527L12987.086,-3281.1279L12987.1082,-3281.084L12987.1412,-3281.0415L12987.179,-3281.0035"/>
<path content="1,長崎自動車（株）,長与駅・長与ニュータウン-南陽台-時津線,10.0,8.0,8.0," xlink:title="1" d="M12987.5263,-3282.0543L12987.5263,-3282.0845L12987.5271,-3282.0953L12987.5473,-3282.1387L12987.5707,-3282.1858L12987.5944,-3282.212L12987.6339,-3282.2739L12987.6091,-3282.2873L12987.5949,-3282.298L12987.5755,-3282.3098L12987.5657,-3282.3184L12987.5553,-3282.3297L12987.5377,-3282.3786L12987.5292,-3282.4034L12987.5257,-3282.4109L12987.5223,-3282.4183L12987.5128,-3282.4322L12987.493,-3282.4616L12987.4707,-3282.4775L12987.4555,-3282.4947L12987.4265,-3282.5265L12987.3965,-3282.5596L12987.3865,-3282.579L12987.3844,-3282.6033L12987.387,-3282.6359L12987.4007,-3282.6858L12987.4058,-3282.7148"/>
<path content="1,長崎自動車（株）,長与（多良見大浦・堂崎・満永）-長崎新地線,58.0,55.0,48.0," xlink:title="1" d="M12985.8398,-3281.3709L12985.8414,-3281.3714L12985.8866,-3281.3854L12985.9277,-3281.4033L12985.9574,-3281.4171L12985.9928,-3281.4383L12986.0448,-3281.4711L12986.0756,-3281.4962L12986.1213,-3281.5302L12986.1587,-3281.5553L12986.2025,-3281.582L12986.2557,-3281.6076L12986.3372,-3281.6415L12986.3667,-3281.6548L12986.3832,-3281.6671L12986.4048,-3281.6856"/>
<path content="1,長崎自動車（株）,長与（多良見大浦・堂崎・満永）-長崎新地線,58.0,55.0,48.0," xlink:title="1" d="M12986.4048,-3281.6856L12986.4045,-3281.7039L12986.4215,-3281.7425L12986.4322,-3281.7591L12986.4516,-3281.7941L12986.459,-3281.7961L12986.472,-3281.809L12986.4912,-3281.8185L12986.5219,-3281.8327L12986.5447,-3281.8403L12986.5692,-3281.8503L12986.5823,-3281.8574L12986.5966,-3281.8668L12986.6116,-3281.8788L12986.6346,-3281.9061L12986.6654,-3281.9422L12986.6815,-3281.9561L12986.6926,-3281.9634L12986.7078,-3281.9703L12986.7438,-3281.9849L12986.8278,-3282.0203L12986.7989,-3282.0487L12986.7895,-3282.0577L12986.769,-3282.0736L12986.7413,-3282.0898L12986.6661,-3282.1305L12986.632,-3282.1506L12986.6209,-3282.1582L12986.6154,-3282.1647L12986.6149,-3282.1715L12986.6175,-3282.1849L12986.6218,-3282.2014L12986.6269,-3282.2133L12986.6366,-3282.2299"/>
<path content="1,長崎自動車（株）,長与（多良見大浦・堂崎・満永）-長崎新地線,58.0,55.0,48.0," xlink:title="1" d="M12986.4048,-3281.6856L12986.4205,-3281.6984L12986.4437,-3281.7182L12986.4927,-3281.7428L12986.5496,-3281.7728L12986.6085,-3281.8044L12986.6794,-3281.8452L12986.6875,-3281.8486L12986.7053,-3281.8558L12986.7359,-3281.8626L12986.8162,-3281.882L12986.9218,-3281.9089L12987.0315,-3281.9364L12987.0478,-3281.9098L12987.0618,-3281.9024L12987.0727,-3281.9014L12987.0908,-3281.9014L12987.109,-3281.9034L12987.1267,-3281.9017L12987.1372,-3281.898L12987.1469,-3281.8888L12987.1513,-3281.8789L12987.1513,-3281.8684L12987.1481,-3281.8595L12987.1396,-3281.8531L12987.1283,-3281.8483L12987.0711,-3281.8395L12986.9847,-3281.8252L12986.9698,-3281.8224L12986.9622,-3281.8177L12986.9565,-3281.8119L12986.948,-3281.802L12986.9219,-3281.7669L12986.9194,-3281.7357L12986.921,-3281.719L12986.9247,-3281.7101L12986.9359,-3281.6955L12986.946,-3281.6805L12986.9513,-3281.668L12986.9541,-3281.656L12986.9533,-3281.6407L12986.944,-3281.6036L12986.9315,-3281.5451L12986.9259,-3281.5026L12986.9167,-3281.4772L12986.9186,-3281.4434L12986.9194,-3281.4158L12986.9226,-3281.3988L12986.9267,-3281.3886L12986.9355,-3281.3804L12986.9501,-3281.3729L12986.9827,-3281.3515L12986.9976,-3281.3413L12987.0017,-3281.3348L12987.0041,-3281.3239L12986.9971,-3281.2626L12986.9964,-3281.2136L12987.0001,-3281.2004L12987.0065,-3281.1891L12987.019,-3281.1813L12987.0352,-3281.1749L12987.0473,-3281.1704L12987.0577,-3281.1636L12987.0682,-3281.1527L12987.086,-3281.1279L12987.1082,-3281.084L12987.1412,-3281.0415L12987.179,-3281.0035L12987.2122,-3281.0261L12987.2397,-3281.0438L12987.2453,-3281.0508L12987.2464,-3281.059L12987.2444,-3281.0652L12987.2356,-3281.0792L12987.227,-3281.0969L12987.2177,-3281.1196L12987.2122,-3281.1424L12987.2151,-3281.1765L12987.2194,-3281.1934L12987.2228,-3281.2067L12987.2281,-3281.2192L12987.2357,-3281.2286L12987.2457,-3281.2381L12987.2697,-3281.2559L12987.3697,-3281.3233L12987.4078,-3281.3495L12987.4737,-3281.3936L12987.5441,-3281.4407L12987.5554,-3281.4508L12987.5614,-3281.4602L12987.563,-3281.4705L12987.5619,-3281.4861L12987.5518,-3281.5259L12987.5423,-3281.5698L12987.5427,-3281.6062L12987.5497,-3281.637L12987.5523,-3281.6479L12987.56,-3281.6666L12987.581,-3281.723L12987.5973,-3281.7667L12987.6145,-3281.8193L12987.6239,-3281.846L12987.6354,-3281.8765L12987.6737,-3281.9463L12987.6832,-3281.9575L12987.6939,-3281.9637L12987.7163,-3281.9698L12987.7236,-3281.9727L12987.7327,-3281.9793L12987.744,-3281.9921L12987.7003,-3282.0159L12987.6688,-3282.0317L12987.6345,-3282.0448L12987.6102,-3282.0502L12987.5932,-3282.0536L12987.5764,-3282.0549L12987.5582,-3282.0564L12987.5445,-3282.0563L12987.5263,-3282.0543L12987.5263,-3282.0845L12987.5271,-3282.0953L12987.5473,-3282.1387L12987.5707,-3282.1858L12987.5944,-3282.212L12987.6339,-3282.2739"/>
<path content="1,長崎自動車（株）,長与（多良見大浦・堂崎・満永）-長崎新地線,58.0,55.0,48.0," xlink:title="1" d="M12987.6339,-3282.2739L12987.687,-3282.2563L12987.748,-3282.2282L12987.7737,-3282.215L12987.7974,-3282.2031L12987.8305,-3282.1799L12987.8857,-3282.1306L12987.906,-3282.1137L12987.931,-3282.0887L12987.9679,-3282.0577L12987.9772,-3282.0494L12988.0041,-3282.028L12988.0172,-3282.0182L12988.0371,-3281.9983M12988.0371,-3281.9811L12988.0155,-3281.9661L12988.01,-3281.9586L12987.9843,-3281.9239L12987.9765,-3281.9168"/>
<path content="1,長崎自動車（株）,長与（多良見大浦・堂崎・満永）-長崎新地線,58.0,55.0,48.0," xlink:title="1" d="M12987.6339,-3282.2739L12987.6091,-3282.2873L12987.5949,-3282.298L12987.5755,-3282.3098L12987.5657,-3282.3184L12987.5553,-3282.3297L12987.5377,-3282.3786L12987.5292,-3282.4034L12987.5257,-3282.4109L12987.5223,-3282.4183L12987.5128,-3282.4322L12987.493,-3282.4616L12987.4707,-3282.4775L12987.4555,-3282.4947L12987.4265,-3282.5265L12987.3965,-3282.5596L12987.3865,-3282.579L12987.3844,-3282.6033L12987.387,-3282.6359L12987.4007,-3282.6858L12987.4058,-3282.7148"/>
<path content="1,長崎自動車（株）,長崎新地-バイパス経由時津・長与・三重線,3.0,0.0,0.0," xlink:title="1" d="M12985.8398,-3281.3709L12985.8414,-3281.3714L12985.8866,-3281.3854L12985.9277,-3281.4033L12985.9574,-3281.4171L12985.9928,-3281.4383L12986.0448,-3281.4711L12986.0756,-3281.4962L12986.1213,-3281.5302L12986.1587,-3281.5553L12986.2025,-3281.582L12986.2557,-3281.6076L12986.3372,-3281.6415L12986.3667,-3281.6548L12986.3832,-3281.6671L12986.4048,-3281.6856L12986.4205,-3281.6984L12986.4437,-3281.7182L12986.4927,-3281.7428L12986.5496,-3281.7728L12986.6085,-3281.8044L12986.6794,-3281.8452L12986.6875,-3281.8486L12986.7053,-3281.8558L12986.7359,-3281.8626L12986.8162,-3281.882L12986.9218,-3281.9089L12987.0315,-3281.9364L12987.0478,-3281.9098L12987.0618,-3281.9024L12987.0727,-3281.9014L12987.0908,-3281.9014L12987.109,-3281.9034L12987.1267,-3281.9017L12987.1372,-3281.898L12987.1469,-3281.8888L12987.1513,-3281.8789L12987.1513,-3281.8684L12987.1481,-3281.8595L12987.1396,-3281.8531L12987.1283,-3281.8483L12987.0711,-3281.8395L12986.9847,-3281.8252L12986.9698,-3281.8224L12986.9622,-3281.8177L12986.9565,-3281.8119L12986.948,-3281.802L12986.9219,-3281.7669L12986.9194,-3281.7357L12986.921,-3281.719L12986.9247,-3281.7101L12986.9359,-3281.6955L12986.946,-3281.6805L12986.9513,-3281.668L12986.9541,-3281.656L12986.9533,-3281.6407L12986.944,-3281.6036L12986.9315,-3281.5451L12986.9259,-3281.5026L12986.9167,-3281.4772L12986.9186,-3281.4434L12986.9194,-3281.4158L12986.9226,-3281.3988L12986.9267,-3281.3886L12986.9355,-3281.3804L12986.9501,-3281.3729L12986.9827,-3281.3515L12986.9976,-3281.3413L12987.0017,-3281.3348L12987.0041,-3281.3239L12986.9971,-3281.2626L12986.9964,-3281.2136L12987.0001,-3281.2004L12987.0065,-3281.1891L12987.019,-3281.1813L12987.0352,-3281.1749L12987.0473,-3281.1704L12987.0577,-3281.1636L12987.0682,-3281.1527L12987.086,-3281.1279L12987.1082,-3281.084L12987.1412,-3281.0415L12987.179,-3281.0035L12987.2122,-3281.0261L12987.2397,-3281.0438L12987.2453,-3281.0508L12987.2464,-3281.059L12987.2444,-3281.0652L12987.2356,-3281.0792L12987.227,-3281.0969L12987.2177,-3281.1196L12987.2122,-3281.1424L12987.2151,-3281.1765L12987.2194,-3281.1934L12987.2228,-3281.2067L12987.2281,-3281.2192L12987.2357,-3281.2286L12987.2457,-3281.2381L12987.2697,-3281.2559L12987.3697,-3281.3233L12987.4078,-3281.3495L12987.4737,-3281.3936L12987.5441,-3281.4407L12987.5554,-3281.4508L12987.5614,-3281.4602L12987.563,-3281.4705L12987.5619,-3281.4861L12987.5518,-3281.5259L12987.5423,-3281.5698L12987.5427,-3281.6062L12987.5497,-3281.637L12987.5523,-3281.6479L12987.56,-3281.6666L12987.581,-3281.723L12987.5973,-3281.7667L12987.6145,-3281.8193L12987.6239,-3281.846L12987.6354,-3281.8765L12987.6737,-3281.9463L12987.6832,-3281.9575L12987.6939,-3281.9637L12987.7163,-3281.9698L12987.7236,-3281.9727L12987.7327,-3281.9793L12987.744,-3281.9921L12987.7003,-3282.0159L12987.6688,-3282.0317L12987.6345,-3282.0448L12987.6102,-3282.0502L12987.5932,-3282.0536L12987.5764,-3282.0549L12987.5582,-3282.0564L12987.5445,-3282.0563L12987.5263,-3282.0543L12987.5263,-3282.0845L12987.5271,-3282.0953L12987.5473,-3282.1387L12987.5707,-3282.1858L12987.5944,-3282.212L12987.6339,-3282.2739L12987.6091,-3282.2873L12987.5949,-3282.298L12987.5755,-3282.3098L12987.5657,-3282.3184L12987.5553,-3282.3297L12987.5377,-3282.3786L12987.5292,-3282.4034L12987.5257,-3282.4109L12987.5223,-3282.4183L12987.5128,-3282.4322L12987.493,-3282.4616L12987.4707,-3282.4775L12987.4555,-3282.4947L12987.4265,-3282.5265L12987.3965,-3282.5596L12987.3865,-3282.579L12987.3844,-3282.6033L12987.387,-3282.6359L12987.4007,-3282.6858L12987.4058,-3282.7148"/>
<path content="1,長崎自動車（株）,長崎新地-女の都団地線,30.5,30.5,28.5," xlink:title="1" d="M12987.3159,-3280.5176L12987.3291,-3280.5247L12987.3382,-3280.532L12987.3756,-3280.5585L12987.3981,-3280.5726L12987.4661,-3280.6177L12987.4817,-3280.6275L12987.499,-3280.634L12987.5188,-3280.6364L12987.5273,-3280.6373L12987.5348,-3280.6364L12987.5565,-3280.6354L12987.5715,-3280.6288L12987.5891,-3280.6219L12987.6059,-3280.6141L12987.6314,-3280.6042L12987.652,-3280.6009L12987.668,-3280.5986L12987.6831,-3280.6004L12987.7152,-3280.6039L12987.7382,-3280.6102L12987.7498,-3280.6154L12987.7711,-3280.6229L12987.8012,-3280.6359L12987.8493,-3280.6539L12987.856,-3280.6573L12987.8982,-3280.6328L12987.9533,-3280.5987L12988.0187,-3280.5613L12988.0371,-3280.5497"/>
<path content="1,長崎自動車（株）,長崎新地-池原・緑ヶ丘団地線,11.0,9.0,8.5," xlink:title="1" d="M12987.0605,-3280.5176L12987.0633,-3280.528L12987.072,-3280.5406L12987.1027,-3280.5845L12987.1301,-3280.6226L12987.1343,-3280.6318L12987.1368,-3280.6444L12987.1384,-3280.6605L12987.1405,-3280.6976L12987.1279,-3280.7197L12987.1247,-3280.7351L12987.1135,-3280.76L12987.1102,-3280.7744L12987.1065,-3280.7926L12987.1019,-3280.8056L12987.0932,-3280.8206L12987.0778,-3280.8441L12987.0703,-3280.8578L12987.0641,-3280.8701L12987.0633,-3280.8809L12987.0633,-3280.8911L12987.0687,-3280.9012L12987.0828,-3280.9259L12987.1131,-3280.9454L12987.179,-3281.0035L12987.1997,-3280.9903L12987.2275,-3280.9769L12987.274,-3280.9647L12987.2928,-3280.962L12987.3767,-3280.9647L12987.4591,-3280.9643L12987.5029,-3280.9612L12987.521,-3280.9599L12987.5295,-3281.0359L12987.5493,-3281.145L12987.5587,-3281.1917L12987.5681,-3281.2133L12987.5783,-3281.2295L12987.5923,-3281.2448L12987.6128,-3281.2627L12987.6398,-3281.2801L12987.687,-3281.3015L12987.7558,-3281.3339L12987.8262,-3281.3622L12987.8152,-3281.3872L12987.809,-3281.4124L12987.8048,-3281.4341L12987.803,-3281.4559L12987.8,-3281.4671L12987.7936,-3281.4795L12987.7863,-3281.4932L12987.7795,-3281.5046L12987.782,-3281.5237L12987.7847,-3281.551L12987.7858,-3281.5712L12987.7828,-3281.59L12987.7705,-3281.6386L12987.7652,-3281.6692L12987.7672,-3281.6834L12987.7845,-3281.7053L12987.8339,-3281.7694L12987.8459,-3281.7868L12987.858,-3281.7991L12987.8838,-3281.8094L12987.9052,-3281.817L12987.9421,-3281.8423L12987.9531,-3281.8524L12987.9994,-3281.8125L12988.0179,-3281.7957L12988.0371,-3281.7786"/>
<path content="1,長崎自動車（株）,長崎新地-池原・緑ヶ丘団地線,11.0,9.0,8.5," xlink:title="1" d="M12987.8277,-3280.8436L12987.8487,-3280.863L12987.8576,-3280.87"/>
<path content="1,長崎自動車（株）,長崎新地-池原・緑ヶ丘団地線,11.0,9.0,8.5," xlink:title="1" d="M12987.8576,-3280.87L12987.8662,-3280.8714L12987.8746,-3280.8773L12987.8999,-3280.8796L12987.9184,-3280.8792L12987.9368,-3280.8767L12987.9654,-3280.8741L12988.0371,-3280.8685"/>
<path content="1,長崎自動車（株）,長崎新地-池原・緑ヶ丘団地線,11.0,9.0,8.5," xlink:title="1" d="M12987.8576,-3280.87L12987.8523,-3280.8846L12987.8508,-3280.8988L12987.8539,-3280.9179L12987.8573,-3280.9302L12987.873,-3280.9409L12987.8809,-3280.9518L12987.8849,-3280.9651L12987.8947,-3281.0407L12987.9001,-3281.0822L12987.9439,-3281.0784L12987.995,-3281.0734L12988.0371,-3281.0698"/>
<path content="1,長崎自動車（株）,長崎新地-琴の尾登口（本川内）線,13.5,13.5,12.0," xlink:title="1" d="M12985.8398,-3281.3709L12985.8414,-3281.3714L12985.8866,-3281.3854L12985.9277,-3281.4033L12985.9574,-3281.4171L12985.9928,-3281.4383L12986.0448,-3281.4711L12986.0756,-3281.4962L12986.1213,-3281.5302L12986.1587,-3281.5553L12986.2025,-3281.582L12986.2557,-3281.6076L12986.3372,-3281.6415L12986.3667,-3281.6548L12986.3832,-3281.6671L12986.4048,-3281.6856"/>
<path content="1,長崎自動車（株）,長崎新地-琴の尾登口（本川内）線,13.5,13.5,12.0," xlink:title="1" d="M12986.4048,-3281.6856L12986.4205,-3281.6984L12986.4437,-3281.7182"/>
<path content="1,長崎自動車（株）,長崎新地-琴の尾登口（本川内）線,13.5,13.5,12.0," xlink:title="1" d="M12986.4048,-3281.6856L12986.4045,-3281.7039L12986.4215,-3281.7425L12986.4322,-3281.7591L12986.4516,-3281.7941L12986.459,-3281.7961L12986.472,-3281.809L12986.4912,-3281.8185L12986.5219,-3281.8327L12986.5447,-3281.8403L12986.5692,-3281.8503L12986.5823,-3281.8574L12986.5966,-3281.8668L12986.6116,-3281.8788L12986.6346,-3281.9061L12986.6654,-3281.9422L12986.6815,-3281.9561L12986.6926,-3281.9634L12986.7078,-3281.9703L12986.7438,-3281.9849L12986.8278,-3282.0203"/>
<path content="1,長崎自動車（株）,長崎新地-琴の尾登口（本川内）線,13.5,13.5,12.0," xlink:title="1" d="M12986.8278,-3282.0203L12986.9162,-3282.0571L12986.9418,-3282.0665L12986.9555,-3282.0715L12986.969,-3282.0732L12986.987,-3282.073L12987.0076,-3282.0701L12987.0607,-3282.062L12987.0758,-3282.0605L12987.0918,-3282.0601L12987.1139,-3282.0636L12987.1677,-3282.0771L12987.2172,-3282.0961L12987.2315,-3282.0995L12987.2642,-3282.1051L12987.2783,-3282.108L12987.2944,-3282.1165L12987.3248,-3282.1269L12987.3436,-3282.1324L12987.3624,-3282.1375L12987.3816,-3282.1407L12987.411,-3282.1433L12987.4354,-3282.1429L12987.452,-3282.1404L12987.4652,-3282.1393L12987.4806,-3282.1393L12987.4902,-3282.1425L12987.5026,-3282.1519L12987.5344,-3282.1832L12987.5498,-3282.2009"/>
<path content="1,長崎自動車（株）,長崎新地-琴の尾登口（本川内）線,13.5,13.5,12.0," xlink:title="1" d="M12986.8278,-3282.0203L12986.7989,-3282.0487L12986.7895,-3282.0577L12986.769,-3282.0736L12986.7413,-3282.0898L12986.6661,-3282.1305L12986.632,-3282.1506L12986.6209,-3282.1582L12986.6154,-3282.1647L12986.6149,-3282.1715L12986.6175,-3282.1849L12986.6218,-3282.2014L12986.6269,-3282.2133L12986.6366,-3282.2299"/>
<path content="1,長崎自動車（株）,長崎新地-琴の尾登口（本川内）線,13.5,13.5,12.0," xlink:title="1" d="M12987.5498,-3282.2009L12987.5707,-3282.1858L12987.5473,-3282.1387L12987.5271,-3282.0953L12987.5263,-3282.0845L12987.5263,-3282.0543L12987.5445,-3282.0563L12987.5582,-3282.0564L12987.5764,-3282.0549L12987.5932,-3282.0536L12987.6102,-3282.0502L12987.6345,-3282.0448L12987.6688,-3282.0317L12987.7003,-3282.0159L12987.744,-3281.9921L12987.7327,-3281.9793L12987.7236,-3281.9727L12987.7163,-3281.9698L12987.6939,-3281.9637L12987.6832,-3281.9575L12987.6737,-3281.9463L12987.6354,-3281.8765L12987.6239,-3281.846L12987.6145,-3281.8193L12987.5973,-3281.7667L12987.581,-3281.723L12987.56,-3281.6666L12987.5523,-3281.6479L12987.5497,-3281.637L12987.5427,-3281.6062L12987.5423,-3281.5698L12987.5518,-3281.5259L12987.5619,-3281.4861L12987.563,-3281.4705L12987.5614,-3281.4602L12987.5554,-3281.4508L12987.5441,-3281.4407L12987.4737,-3281.3936L12987.4078,-3281.3495L12987.3697,-3281.3233L12987.2697,-3281.2559L12987.2457,-3281.2381L12987.2357,-3281.2286L12987.2281,-3281.2192L12987.2228,-3281.2067L12987.2194,-3281.1934L12987.2151,-3281.1765L12987.2122,-3281.1424L12987.2177,-3281.1196L12987.227,-3281.0969L12987.2356,-3281.0792L12987.2444,-3281.0652L12987.2464,-3281.059L12987.2453,-3281.0508L12987.2397,-3281.0438L12987.2122,-3281.0261L12987.179,-3281.0035L12987.1997,-3280.9903L12987.2275,-3280.9769L12987.274,-3280.9647L12987.2928,-3280.962L12987.3767,-3280.9647L12987.4591,-3280.9643L12987.5029,-3280.9612L12987.521,-3280.9599L12987.5295,-3281.0359L12987.5493,-3281.145L12987.5587,-3281.1917L12987.5681,-3281.2133L12987.5783,-3281.2295L12987.5923,-3281.2448L12987.6128,-3281.2627L12987.6398,-3281.2801L12987.687,-3281.3015L12987.7558,-3281.3339L12987.8262,-3281.3622L12987.8152,-3281.3872L12987.809,-3281.4124L12987.8048,-3281.4341L12987.803,-3281.4559L12987.8,-3281.4671L12987.7936,-3281.4795L12987.7863,-3281.4932L12987.7795,-3281.5046L12987.782,-3281.5237L12987.7847,-3281.551L12987.7858,-3281.5712L12987.7828,-3281.59L12987.7705,-3281.6386L12987.7652,-3281.6692L12987.7672,-3281.6834L12987.7845,-3281.7053L12987.8339,-3281.7694L12987.8459,-3281.7868L12987.858,-3281.7991L12987.8838,-3281.8094L12987.9052,-3281.817L12987.9421,-3281.8423L12987.9531,-3281.8524L12987.9994,-3281.8125L12988.0179,-3281.7957L12988.0371,-3281.7786"/>
<path content="1,長崎自動車（株）,長崎新地-琴の尾登口（本川内）線,13.5,13.5,12.0," xlink:title="1" d="M12987.5498,-3282.2009L12987.5387,-3282.2164L12987.5293,-3282.2344L12987.5199,-3282.2535L12987.5113,-3282.2751L12987.5047,-3282.3005"/>
<path content="1,長崎自動車（株）,長崎新地-長与ニュータウン線,38.5,33.5,31.0," xlink:title="1" d="M12987.0605,-3280.5176L12987.0633,-3280.528L12987.072,-3280.5406L12987.1027,-3280.5845L12987.1301,-3280.6226L12987.1343,-3280.6318L12987.1368,-3280.6444L12987.1384,-3280.6605L12987.1405,-3280.6976L12987.1279,-3280.7197L12987.1247,-3280.7351L12987.1135,-3280.76L12987.1102,-3280.7744L12987.1065,-3280.7926L12987.1019,-3280.8056L12987.0932,-3280.8206L12987.0778,-3280.8441L12987.0703,-3280.8578L12987.0641,-3280.8701L12987.0633,-3280.8809L12987.0633,-3280.8911"/>
<path content="1,長崎自動車（株）,長崎新地-長与ニュータウン線,38.5,33.5,31.0," xlink:title="1" d="M12987.0633,-3280.8911L12987.045,-3280.8977L12987.0309,-3280.9058L12987.0205,-3280.9153L12987.0114,-3280.9244L12987.0039,-3280.9349L12986.9993,-3280.9426L12986.9948,-3280.951L12986.9902,-3280.9552L12986.9765,-3280.9601L12986.8656,-3280.9941L12986.7975,-3281.0148L12986.7585,-3281.0242L12986.7452,-3281.0249L12986.7373,-3281.0242L12986.7257,-3281.0225L12986.7157,-3281.02L12986.7099,-3281.0165L12986.7066,-3281.0109L12986.7037,-3281.0039L12986.7016,-3280.9955L12986.7016,-3280.9825L12986.7058,-3280.951L12986.7236,-3280.8995L12986.7146,-3280.8985"/>
<path content="1,長崎自動車（株）,長崎新地-長与ニュータウン線,38.5,33.5,31.0," xlink:title="1" d="M12988.0371,-3281.7786L12988.0179,-3281.7957L12987.9994,-3281.8125L12987.9531,-3281.8524L12987.9316,-3281.8705L12987.8693,-3281.9169L12987.8172,-3281.9524L12987.744,-3281.9921L12987.7327,-3281.9793L12987.7236,-3281.9727L12987.7163,-3281.9698L12987.6939,-3281.9637L12987.6832,-3281.9575L12987.6737,-3281.9463L12987.6354,-3281.8765L12987.6239,-3281.846L12987.6145,-3281.8193L12987.5973,-3281.7667L12987.581,-3281.723L12987.56,-3281.6666L12987.5523,-3281.6479L12987.5497,-3281.637L12987.5427,-3281.6062L12987.5423,-3281.5698L12987.5518,-3281.5259L12987.5619,-3281.4861L12987.563,-3281.4705L12987.5614,-3281.4602L12987.5554,-3281.4508L12987.5441,-3281.4407L12987.4737,-3281.3936L12987.4078,-3281.3495L12987.3697,-3281.3233L12987.2697,-3281.2559L12987.2457,-3281.2381L12987.2357,-3281.2286L12987.2281,-3281.2192L12987.2228,-3281.2067L12987.2194,-3281.1934L12987.2151,-3281.1765L12987.2122,-3281.1424L12987.2177,-3281.1196L12987.227,-3281.0969L12987.2356,-3281.0792L12987.2444,-3281.0652L12987.2464,-3281.059L12987.2453,-3281.0508L12987.2397,-3281.0438L12987.2122,-3281.0261L12987.179,-3281.0035L12987.1131,-3280.9454L12987.0828,-3280.9259L12987.0687,-3280.9012L12987.0633,-3280.8911"/>
<path content="1,長崎自動車（株）,長崎新地-長与（満永・堂崎・多良見大浦）線,56.0,51.0,45.0," xlink:title="1" d="M12985.8398,-3281.3709L12985.8414,-3281.3714L12985.8866,-3281.3854L12985.9277,-3281.4033L12985.9574,-3281.4171L12985.9928,-3281.4383L12986.0448,-3281.4711L12986.0756,-3281.4962L12986.1213,-3281.5302L12986.1587,-3281.5553L12986.2025,-3281.582L12986.2557,-3281.6076L12986.3372,-3281.6415L12986.3667,-3281.6548L12986.3832,-3281.6671L12986.4048,-3281.6856"/>
<path content="1,長崎自動車（株）,長崎新地-長与（満永・堂崎・多良見大浦）線,56.0,51.0,45.0," xlink:title="1" d="M12986.4048,-3281.6856L12986.4045,-3281.7039L12986.4215,-3281.7425L12986.4322,-3281.7591L12986.4516,-3281.7941L12986.459,-3281.7961L12986.472,-3281.809L12986.4912,-3281.8185L12986.5219,-3281.8327L12986.5447,-3281.8403L12986.5692,-3281.8503L12986.5823,-3281.8574L12986.5966,-3281.8668L12986.6116,-3281.8788L12986.6346,-3281.9061L12986.6654,-3281.9422L12986.6815,-3281.9561L12986.6926,-3281.9634L12986.7078,-3281.9703L12986.7438,-3281.9849L12986.8278,-3282.0203"/>
<path content="1,長崎自動車（株）,長崎新地-長与（満永・堂崎・多良見大浦）線,56.0,51.0,45.0," xlink:title="1" d="M12986.4048,-3281.6856L12986.4205,-3281.6984L12986.4437,-3281.7182L12986.4927,-3281.7428L12986.5496,-3281.7728L12986.6085,-3281.8044L12986.6794,-3281.8452L12986.6875,-3281.8486L12986.7053,-3281.8558L12986.7359,-3281.8626L12986.8162,-3281.882L12986.9218,-3281.9089L12987.0315,-3281.9364L12987.0478,-3281.9098L12987.0618,-3281.9024L12987.0727,-3281.9014L12987.0908,-3281.9014L12987.109,-3281.9034L12987.1267,-3281.9017L12987.1372,-3281.898L12987.1469,-3281.8888L12987.1513,-3281.8789L12987.1513,-3281.8684L12987.1481,-3281.8595L12987.1396,-3281.8531L12987.1283,-3281.8483L12987.0711,-3281.8395L12986.9847,-3281.8252L12986.9698,-3281.8224L12986.9622,-3281.8177L12986.9565,-3281.8119L12986.948,-3281.802L12986.9219,-3281.7669L12986.9194,-3281.7357L12986.921,-3281.719L12986.9247,-3281.7101L12986.9359,-3281.6955L12986.946,-3281.6805L12986.9513,-3281.668L12986.9541,-3281.656L12986.9533,-3281.6407L12986.944,-3281.6036L12986.9315,-3281.5451L12986.9259,-3281.5026L12986.9167,-3281.4772L12986.9186,-3281.4434L12986.9194,-3281.4158L12986.9226,-3281.3988L12986.9267,-3281.3886L12986.9355,-3281.3804L12986.9501,-3281.3729L12986.9827,-3281.3515L12986.9976,-3281.3413L12987.0017,-3281.3348L12987.0041,-3281.3239L12986.9971,-3281.2626L12986.9964,-3281.2136L12987.0001,-3281.2004L12987.0065,-3281.1891L12987.019,-3281.1813L12987.0352,-3281.1749L12987.0473,-3281.1704L12987.0577,-3281.1636L12987.0682,-3281.1527L12987.086,-3281.1279L12987.1082,-3281.084L12987.1412,-3281.0415L12987.179,-3281.0035L12987.2122,-3281.0261L12987.2397,-3281.0438L12987.2453,-3281.0508L12987.2464,-3281.059L12987.2444,-3281.0652L12987.2356,-3281.0792L12987.227,-3281.0969L12987.2177,-3281.1196L12987.2122,-3281.1424L12987.2151,-3281.1765L12987.2194,-3281.1934L12987.2228,-3281.2067L12987.2281,-3281.2192L12987.2357,-3281.2286L12987.2457,-3281.2381L12987.2697,-3281.2559L12987.3697,-3281.3233L12987.4078,-3281.3495L12987.4737,-3281.3936L12987.5441,-3281.4407L12987.5554,-3281.4508L12987.5614,-3281.4602L12987.563,-3281.4705L12987.5619,-3281.4861L12987.5518,-3281.5259L12987.5423,-3281.5698L12987.5427,-3281.6062L12987.5497,-3281.637L12987.5523,-3281.6479L12987.56,-3281.6666L12987.581,-3281.723L12987.5973,-3281.7667L12987.6145,-3281.8193L12987.6239,-3281.846L12987.6354,-3281.8765L12987.6737,-3281.9463L12987.6832,-3281.9575L12987.6939,-3281.9637L12987.7163,-3281.9698L12987.7236,-3281.9727L12987.7327,-3281.9793L12987.744,-3281.9921L12987.7003,-3282.0159L12987.6688,-3282.0317L12987.6345,-3282.0448L12987.6102,-3282.0502L12987.5932,-3282.0536L12987.5764,-3282.0549L12987.5582,-3282.0564L12987.5445,-3282.0563L12987.5263,-3282.0543L12987.5263,-3282.0845L12987.5271,-3282.0953L12987.5473,-3282.1387L12987.5707,-3282.1858"/>
<path content="1,長崎自動車（株）,長崎新地-長与（満永・堂崎・多良見大浦）線,56.0,51.0,45.0," xlink:title="1" d="M12986.8278,-3282.0203L12986.7989,-3282.0487"/>
<path content="1,長崎自動車（株）,長崎新地-長与（満永・堂崎・多良見大浦）線,56.0,51.0,45.0," xlink:title="1" d="M12986.8278,-3282.0203L12986.9162,-3282.0571L12986.9418,-3282.0665L12986.9555,-3282.0715L12986.969,-3282.0732L12986.987,-3282.073L12987.0076,-3282.0701L12987.0607,-3282.062L12987.0758,-3282.0605L12987.0918,-3282.0601L12987.1139,-3282.0636L12987.1677,-3282.0771L12987.2172,-3282.0961L12987.2315,-3282.0995L12987.2642,-3282.1051L12987.2783,-3282.108L12987.2944,-3282.1165L12987.3248,-3282.1269L12987.3436,-3282.1324L12987.3624,-3282.1375L12987.3816,-3282.1407L12987.411,-3282.1433L12987.4354,-3282.1429L12987.452,-3282.1404L12987.4652,-3282.1393L12987.4806,-3282.1393L12987.4902,-3282.1425L12987.5026,-3282.1519L12987.5344,-3282.1832L12987.5498,-3282.2009L12987.5707,-3282.1858"/>
<path content="1,長崎自動車（株）,長崎新地-長与（満永・堂崎・多良見大浦）線,56.0,51.0,45.0," xlink:title="1" d="M12987.5707,-3282.1858L12987.5944,-3282.212L12987.6339,-3282.2739L12987.6091,-3282.2873L12987.5949,-3282.298L12987.5755,-3282.3098L12987.5657,-3282.3184L12987.5553,-3282.3297L12987.5377,-3282.3786L12987.5292,-3282.4034L12987.5257,-3282.4109L12987.5223,-3282.4183L12987.5128,-3282.4322L12987.493,-3282.4616L12987.4707,-3282.4775L12987.4555,-3282.4947L12987.4265,-3282.5265L12987.3965,-3282.5596L12987.3865,-3282.579L12987.3844,-3282.6033L12987.387,-3282.6359L12987.4007,-3282.6858L12987.4058,-3282.7148"/>
<path content="1,長崎自動車（株）,長崎～姫路・神戸（エトランゼ号）,1.0,1.0,1.0," xlink:title="1" d="M12986.4579,-3280.5176L12986.4494,-3280.534L12986.3848,-3280.6437L12986.3601,-3280.6843L12986.3521,-3280.6961L12986.3255,-3280.7366L12986.3075,-3280.7645L12986.2823,-3280.8013L12986.2771,-3280.809L12986.224,-3280.8656L12986.1855,-3280.9003L12986.1444,-3280.9356L12986.0826,-3280.9842L12986.0312,-3281.0181L12985.9916,-3281.0421L12985.9078,-3281.0925L12985.8671,-3281.1144L12985.8398,-3281.1294"/>
<path content="2,長崎県,女の都・西崎団地・サニータウン～中央橋線,28.0,42.0,41.0," xlink:title="2" d="M12987.3159,-3280.5176L12987.3291,-3280.5247L12987.3382,-3280.532L12987.3756,-3280.5585L12987.3981,-3280.5726"/>
<path content="2,長崎県,女の都・西崎団地・サニータウン～中央橋線,28.0,42.0,41.0," xlink:title="2" d="M12987.3981,-3280.5726L12987.4071,-3280.5414L12987.4139,-3280.5294L12987.4265,-3280.5211L12987.4464,-3280.5176"/>
<path content="2,長崎県,女の都・西崎団地・サニータウン～中央橋線,28.0,42.0,41.0," xlink:title="2" d="M12987.3981,-3280.5726L12987.4661,-3280.6177L12987.4817,-3280.6275L12987.499,-3280.634L12987.5188,-3280.6364L12987.5273,-3280.6373L12987.5348,-3280.6364L12987.5565,-3280.6354L12987.5715,-3280.6288L12987.5891,-3280.6219L12987.6059,-3280.6141L12987.6314,-3280.6042L12987.652,-3280.6009L12987.668,-3280.5986L12987.6831,-3280.6004L12987.7152,-3280.6039L12987.7382,-3280.6102L12987.7498,-3280.6154L12987.7711,-3280.6229L12987.8012,-3280.6359"/>
<path content="2,長崎県,女の都・西崎団地・サニータウン～中央橋線,28.0,42.0,41.0," xlink:title="2" d="M12987.8012,-3280.6359L12987.8493,-3280.6539L12987.856,-3280.6573L12987.8982,-3280.6328L12987.9533,-3280.5987L12988.0187,-3280.5613L12988.0371,-3280.5497"/>
<path content="2,長崎県,女の都・西崎団地・サニータウン～中央橋線,28.0,42.0,41.0," xlink:title="2" d="M12987.8012,-3280.6359L12987.7952,-3280.6438L12987.7783,-3280.6744L12987.7683,-3280.6985L12987.7643,-3280.7294L12987.7723,-3280.7603L12987.7949,-3280.8024L12987.8277,-3280.8436L12987.8487,-3280.863L12987.8576,-3280.87L12987.8662,-3280.8714L12987.8746,-3280.8773L12987.8999,-3280.8796L12987.9184,-3280.8792L12987.9368,-3280.8767L12987.9654,-3280.8741L12988.0371,-3280.8685"/>
<path content="2,長崎県,女の都・西崎団地・サニータウン～網場・春日車庫前線,25.0,4.5,0.5," xlink:title="2" d="M12987.3159,-3280.5176L12987.3291,-3280.5247L12987.3382,-3280.532L12987.3756,-3280.5585L12987.3981,-3280.5726"/>
<path content="2,長崎県,女の都・西崎団地・サニータウン～網場・春日車庫前線,25.0,4.5,0.5," xlink:title="2" d="M12987.3981,-3280.5726L12987.4071,-3280.5414L12987.4139,-3280.5294L12987.4265,-3280.5211L12987.4464,-3280.5176"/>
<path content="2,長崎県,女の都・西崎団地・サニータウン～網場・春日車庫前線,25.0,4.5,0.5," xlink:title="2" d="M12987.3981,-3280.5726L12987.4661,-3280.6177L12987.4817,-3280.6275L12987.499,-3280.634L12987.5188,-3280.6364L12987.5273,-3280.6373L12987.5348,-3280.6364L12987.5565,-3280.6354L12987.5715,-3280.6288L12987.5891,-3280.6219L12987.6059,-3280.6141L12987.6314,-3280.6042L12987.652,-3280.6009L12987.668,-3280.5986L12987.6831,-3280.6004L12987.7152,-3280.6039L12987.7382,-3280.6102L12987.7498,-3280.6154L12987.7711,-3280.6229L12987.8012,-3280.6359"/>
<path content="2,長崎県,女の都・西崎団地・サニータウン～網場・春日車庫前線,25.0,4.5,0.5," xlink:title="2" d="M12987.8012,-3280.6359L12987.8493,-3280.6539L12987.856,-3280.6573L12987.8982,-3280.6328L12987.9533,-3280.5987L12988.0187,-3280.5613L12988.0371,-3280.5497"/>
<path content="2,長崎県,女の都・西崎団地・サニータウン～網場・春日車庫前線,25.0,4.5,0.5," xlink:title="2" d="M12987.8012,-3280.6359L12987.7952,-3280.6438L12987.7783,-3280.6744L12987.7683,-3280.6985L12987.7643,-3280.7294L12987.7723,-3280.7603L12987.7949,-3280.8024L12987.8277,-3280.8436L12987.8487,-3280.863L12987.8576,-3280.87L12987.8662,-3280.8714L12987.8746,-3280.8773L12987.8999,-3280.8796L12987.9184,-3280.8792L12987.9368,-3280.8767L12987.9654,-3280.8741L12988.0371,-3280.8685"/>
<path content="2,長崎県,郊外線,3.0,3.0,3.0," xlink:title="2" d="M12987.0605,-3280.5176L12987.0633,-3280.528L12987.072,-3280.5406L12987.1027,-3280.5845L12987.1301,-3280.6226L12987.1343,-3280.6318L12987.1368,-3280.6444L12987.1384,-3280.6605L12987.1405,-3280.6976L12987.1279,-3280.7197L12987.1247,-3280.7351L12987.1135,-3280.76L12987.1102,-3280.7744L12987.1065,-3280.7926L12987.1019,-3280.8056L12987.0932,-3280.8206L12987.0778,-3280.8441L12987.0703,-3280.8578L12987.0641,-3280.8701L12987.0633,-3280.8809L12987.0633,-3280.8911L12987.045,-3280.8977L12987.0309,-3280.9058L12987.0205,-3280.9153L12987.0114,-3280.9244L12987.0039,-3280.9349L12986.9993,-3280.9426L12986.9948,-3280.951L12986.9902,-3280.9552L12986.9765,-3280.9601L12986.8656,-3280.9941L12986.7975,-3281.0148L12986.7585,-3281.0242L12986.7452,-3281.0249L12986.7373,-3281.0242L12986.7257,-3281.0225L12986.7157,-3281.02L12986.7099,-3281.0165L12986.7066,-3281.0109L12986.7037,-3281.0039L12986.7016,-3280.9955L12986.7016,-3280.9825L12986.7058,-3280.951L12986.7236,-3280.8995L12986.7146,-3280.8985"/>
</g>
</svg>
