<?xml version="1.0" encoding="UTF-8"?>
<svg  xmlns="http://www.w3.org/2000/svg" xmlns:xlink="http://www.w3.org/1999/xlink" xmlns:go="http://purl.org/svgmap/profile" property="N07_001,N07_002,N07_003,N07_004,N07_005,N07_006,N07_007" viewBox="13095.703125 -3172.8515625 4.39453125 4.39453125" go:dataArea="13095.703125 -3172.8515625 4.39453125 4.39453125" >
<metadata>
 <rdf:RDF xmlns:rdf="http://www.w3.org/1999/02/22-rdf-syntax-ns#" xmlns:crs="http://opengis.org/xmldtds/transformations.dtd" xmlns:svg="http://www.w3.org/svg" >
  <rdf:Description>
   <crs:CoordinateReferenceSystem rdf:resource="http://purl.org/crs/84" svg:transform="matrix(100.0,0.0,0.0,-100.0,0.0,0.0)" />
  </rdf:Description>
 </rdf:RDF>
</metadata>
<globalCoordinateSystem srsName="http://purl.org/crs/84" transform="matrix(100.0,0.0,0.0,-100.0,0.0,0.0)" />
<defs>
 <g id="p0" >
  <circle cx="0.0" cy="0.0" r="3" stroke="green" stroke-width="0.75" vector-effect="non-scaling-stroke" />
 </g>
</defs>
<g fill="none" fill-rule="evenodd" stroke="#FF00FF" stroke-width="0.75" opacity="0.5" vector-effect="non-scaling-stroke" stroke-linejoin="bevel" >
<path content="1,大隅交通ネットワーク（株）,213,2.0,0.0,0.0," xlink:title="1" d="M13098.5873,-3172.8516L13098.5934,-3172.8472L13098.6166,-3172.8304L13098.6285,-3172.8237L13098.6353,-3172.8201L13098.6401,-3172.8186L13098.649,-3172.8176L13098.6688,-3172.8159L13098.6873,-3172.8114L13098.6971,-3172.8069L13098.7031,-3172.8024L13098.7604,-3172.7466L13098.7887,-3172.7213L13098.8072,-3172.71L13098.8197,-3172.7049L13098.8303,-3172.7021L13098.8434,-3172.6987L13098.8731,-3172.6931L13098.9034,-3172.6891L13098.9198,-3172.6868L13098.9377,-3172.6842L13098.9768,-3172.6808L13099.0026,-3172.6799L13099.0377,-3172.6847L13099.0777,-3172.6913L13099.0972,-3172.6948L13099.14,-3172.7021L13099.1855,-3172.7094L13099.1993,-3172.7106L13099.2158,-3172.7117L13099.2406,-3172.7149L13099.3199,-3172.7275L13099.3984,-3172.7399L13099.4122,-3172.7416L13099.4623,-3172.7495L13099.5341,-3172.7602L13099.5513,-3172.7624L13099.6316,-3172.7748L13099.6969,-3172.785L13099.7332,-3172.7897L13099.7681,-3172.7969L13099.7847,-3172.7996L13099.8376,-3172.8074L13099.8502,-3172.8097L13099.8715,-3172.8135L13100.0043,-3172.8288L13100.0226,-3172.8306L13100.0358,-3172.8315L13100.0605,-3172.8315L13100.0699,-3172.8312L13100.0859,-3172.8283L13100.0977,-3172.8254"/>
<path content="2,曽於市,211,3.0,3.0,0.0," xlink:title="2" d="M13095.7031,-3168.8389L13095.7105,-3168.8382L13095.7151,-3168.8371L13095.7573,-3168.8326L13095.7731,-3168.8303L13095.8858,-3168.8134L13095.9332,-3168.8082L13095.9948,-3168.8003L13096.0104,-3168.7999L13096.046,-3168.8022L13096.0756,-3168.8033L13096.1151,-3168.8072L13096.1362,-3168.8101L13096.1575,-3168.8113L13096.1784,-3168.8101L13096.3379,-3168.7684L13096.3538,-3168.7644L13096.3867,-3168.7565L13096.4104,-3168.7497L13096.4697,-3168.7351L13096.5086,-3168.7249L13096.5369,-3168.7182L13096.5706,-3168.7137L13096.6898,-3168.7137L13096.7861,-3168.7148L13096.8111,-3168.7182L13096.8427,-3168.7244L13096.8578,-3168.7281L13096.8698,-3168.734L13096.8928,-3168.7515L13096.9139,-3168.7746L13096.9942,-3168.8763L13097.0029,-3168.8856L13097.0087,-3168.8925L13097.0112,-3168.8955L13097.0213,-3168.9082L13097.0714,-3168.9719L13097.0952,-3169.0046L13097.1413,-3169.0863L13097.1557,-3169.1124L13097.2158,-3169.1894L13097.2362,-3169.2148L13097.2704,-3169.2616L13097.2907,-3169.2904L13097.3146,-3169.3304L13097.3376,-3169.3619L13097.3482,-3169.3721L13097.3555,-3169.3786L13097.367,-3169.3843L13097.3724,-3169.3863L13097.4365,-3169.3957L13097.4721,-3169.4053L13097.4925,-3169.4132L13097.5116,-3169.4245L13097.5496,-3169.457L13097.5828,-3169.4938L13097.5941,-3169.5042L13097.6052,-3169.5147L13097.6309,-3169.5291L13097.6678,-3169.5355L13097.6738,-3169.5361L13097.6949,-3169.5344L13097.7719,-3169.5175L13097.8543,-3169.4989L13097.8702,-3169.4949L13097.8932,-3169.4904L13097.9692,-3169.4728L13097.9814,-3169.4694L13097.9944,-3169.4664L13098.0197,-3169.4599L13098.0566,-3169.4513L13098.0771,-3169.4465L13098.1411,-3169.4314L13098.164,-3169.4262L13098.2491,-3169.4132L13098.3737,-3169.3953L13098.3783,-3169.3946L13098.3895,-3169.3929L13098.398,-3169.393L13098.4048,-3169.3948L13098.4264,-3169.4014L13098.5404,-3169.4358L13098.5971,-3169.4521L13098.7506,-3169.4933L13098.7889,-3169.5029L13098.8409,-3169.5152L13098.8699,-3169.522L13098.8936,-3169.5265L13098.949,-3169.5384L13099.0505,-3169.557L13099.0888,-3169.5637L13099.119,-3169.5671L13099.1329,-3169.5683L13099.1889,-3169.5666L13099.2067,-3169.5649L13099.2251,-3169.5626L13099.2548,-3169.5564L13099.3319,-3169.535L13099.3912,-3169.5221L13099.4301,-3169.5198L13099.438,-3169.5198L13099.4538,-3169.5204L13099.4729,-3169.5215L13099.5883,-3169.5243L13099.6469,-3169.5266L13099.6629,-3169.5282L13099.6746,-3169.5294L13099.7332,-3169.5369L13099.7469,-3169.5399L13099.7682,-3169.5428L13099.8124,-3169.5608L13099.8269,-3169.567L13099.8435,-3169.5716L13099.9079,-3169.594L13099.9422,-3169.6053L13100.0333,-3169.6353L13100.0503,-3169.6408L13100.0977,-3169.6579"/>
<path content="2,曽於市,343,1.0,0.0,0.0," xlink:title="2" d="M13095.7031,-3170.3026L13095.744,-3170.3167L13095.8357,-3170.3477L13095.8581,-3170.355L13095.9016,-3170.3702L13095.9523,-3170.3871L13095.9694,-3170.3933L13095.9853,-3170.4001L13096.0149,-3170.4176L13096.0399,-3170.4362L13096.09,-3170.4807L13096.1092,-3170.4954L13096.1296,-3170.5055L13096.154,-3170.5145L13096.1793,-3170.5225L13096.2203,-3170.5338L13096.2924,-3170.5506L13096.3662,-3170.5709L13096.4031,-3170.5788L13096.4439,-3170.5844L13096.496,-3170.5889L13096.5276,-3170.5929L13096.5566,-3170.5985L13096.585,-3170.6075L13096.6159,-3170.6244L13096.6555,-3170.6515L13096.7774,-3170.7484L13096.8176,-3170.7766L13096.84,-3170.7907L13096.8604,-3170.8003L13096.8829,-3170.8076L13096.8961,-3170.811L13096.9701,-3170.8169L13096.9981,-3170.8155L13097.0282,-3170.8186L13097.0483,-3170.8218L13097.0621,-3170.8251L13097.0904,-3170.8324L13097.1139,-3170.8426L13097.1372,-3170.8528L13097.169,-3170.8671L13097.204,-3170.8807L13097.2413,-3170.8972L13097.2582,-3170.9018L13097.2717,-3170.9052L13097.2889,-3170.9044L13097.326,-3170.8952L13097.3724,-3170.8788L13097.3839,-3170.8749L13097.4028,-3170.8736L13097.4516,-3170.8815L13097.5215,-3170.8944L13097.5828,-3170.9069L13097.6039,-3170.9125L13097.621,-3170.9215L13097.6289,-3170.9277L13097.6369,-3170.9361L13097.6466,-3170.9505L13097.6542,-3170.9631L13097.6615,-3170.9756L13097.675,-3170.9982L13097.7073,-3171.0466L13097.7284,-3171.0748L13097.7598,-3171.1144L13097.7634,-3171.1184L13097.803,-3171.167L13097.8549,-3171.2112L13097.8694,-3171.2219L13097.9103,-3171.2529L13097.9296,-3171.2687L13097.9405,-3171.2833L13097.9465,-3171.2958L13097.9538,-3171.3217L13097.9591,-3171.3544L13097.9676,-3171.3888L13097.9762,-3171.404L13097.9933,-3171.4249L13098.0566,-3171.4818L13098.0621,-3171.4892L13098.0665,-3171.4981L13098.0787,-3171.5422L13098.0816,-3171.5528L13098.1,-3171.61L13098.1405,-3171.6803L13098.1594,-3171.7129L13098.1719,-3171.7422L13098.1759,-3171.7614L13098.1789,-3171.8151L13098.1747,-3171.8307L13098.1574,-3171.8758L13098.1536,-3171.8906L13098.1521,-3171.9017L13098.1516,-3171.9118L13098.1521,-3171.9226L13098.1541,-3171.9327L13098.1612,-3171.9454L13098.1761,-3171.9594L13098.2045,-3171.9739L13098.2615,-3172.0009L13098.282,-3172.0094L13098.2906,-3172.0137L13098.3162,-3172.0274L13098.338,-3172.0421L13098.3624,-3172.0624L13098.3762,-3172.0776L13098.3999,-3172.1063L13098.423,-3172.1638L13098.4335,-3172.1863L13098.4376,-3172.1933L13098.4433,-3172.2013L13098.4556,-3172.2116L13098.4711,-3172.2207L13098.4839,-3172.2261L13098.5567,-3172.2537L13098.5768,-3172.2615L13098.601,-3172.2707L13098.6135,-3172.2748L13098.6174,-3172.2759L13098.6551,-3172.2866L13098.725,-3172.3092L13098.7301,-3172.3109L13098.7558,-3172.3188L13098.8349,-3172.3439L13098.9047,-3172.3662L13098.9114,-3172.3679L13098.9331,-3172.3746L13099.0089,-3172.3994L13099.0708,-3172.4186L13099.1716,-3172.4513L13099.2426,-3172.4741L13099.2362,-3172.5256L13099.2162,-3172.6365L13099.1993,-3172.7106L13099.2158,-3172.7117L13099.2406,-3172.7149L13099.3199,-3172.7275L13099.3984,-3172.7399L13099.4122,-3172.7416L13099.4623,-3172.7495L13099.5341,-3172.7602L13099.5513,-3172.7624L13099.6316,-3172.7748L13099.6969,-3172.785L13099.7332,-3172.7897L13099.7681,-3172.7969L13099.7847,-3172.7996L13099.8376,-3172.8074L13099.8502,-3172.8097L13099.8715,-3172.8135L13100.0043,-3172.8288L13100.0226,-3172.8306L13100.0358,-3172.8315L13100.0605,-3172.8315L13100.0699,-3172.8312L13100.0859,-3172.8283L13100.0977,-3172.8254"/>
<path content="3,曽於市,中谷校区コース（月・水・金）,1.2,0.0,0.0," xlink:title="3" d="M13099.8502,-3172.8097L13099.8715,-3172.8135"/>
<path content="3,曽於市,中谷校区コース（月・水・金）,1.2,0.0,0.0," xlink:title="3" d="M13099.8502,-3172.8097L13099.829,-3172.8516"/>
<path content="3,曽於市,中谷校区コース（月・水・金）,1.2,0.0,0.0," xlink:title="3" d="M13098.5873,-3172.8516L13098.5934,-3172.8472L13098.6166,-3172.8304L13098.6285,-3172.8237L13098.6353,-3172.8201L13098.6401,-3172.8186L13098.649,-3172.8176L13098.6688,-3172.8159L13098.6873,-3172.8114L13098.6971,-3172.8069L13098.7031,-3172.8024L13098.7604,-3172.7466L13098.7887,-3172.7213L13098.8072,-3172.71L13098.8197,-3172.7049L13098.8303,-3172.7021L13098.8434,-3172.6987L13098.8731,-3172.6931L13098.9034,-3172.6891L13098.9198,-3172.6868L13098.9377,-3172.6842L13098.9768,-3172.6808L13099.0026,-3172.6799L13099.0377,-3172.6847L13099.0777,-3172.6913L13099.0972,-3172.6948L13099.14,-3172.7021L13099.126,-3172.7456L13099.1033,-3172.7838L13099.111,-3172.8509L13099.1748,-3172.8511L13099.1889,-3172.768L13099.1993,-3172.7106L13099.2162,-3172.6365L13099.3072,-3172.6434L13099.3645,-3172.6473L13099.4093,-3172.5289L13099.508,-3172.5614L13099.5371,-3172.5747L13099.5807,-3172.6157L13099.621,-3172.6628L13099.6316,-3172.6748L13099.7332,-3172.7897L13099.7681,-3172.7969L13099.7847,-3172.7996L13099.8376,-3172.8074L13099.8502,-3172.8097"/>
<path content="3,曽於市,北校区①コース（月・水・金）,1.2,0.0,0.0," xlink:title="3" d="M13099.1889,-3172.768L13099.1993,-3172.7106L13099.2162,-3172.6365L13099.3072,-3172.6434L13099.3645,-3172.6473L13099.4093,-3172.5289L13099.508,-3172.5614L13099.5371,-3172.5747L13099.5807,-3172.6157L13099.621,-3172.6628L13099.6316,-3172.6748L13099.7332,-3172.7897L13099.7681,-3172.7969L13099.7847,-3172.7996L13099.8376,-3172.8074L13099.8502,-3172.8097"/>
<path content="3,曽於市,北校区①コース（月・水・金）,1.2,0.0,0.0," xlink:title="3" d="M13099.1889,-3172.768L13099.1748,-3172.8511"/>
<path content="3,曽於市,北校区①コース（月・水・金）,1.2,0.0,0.0," xlink:title="3" d="M13099.8502,-3172.8097L13099.8715,-3172.8135"/>
<path content="3,曽於市,北校区①コース（月・水・金）,1.2,0.0,0.0," xlink:title="3" d="M13099.8502,-3172.8097L13099.829,-3172.8516"/>
<path content="3,曽於市,北校区①コース（月・水・金）,1.2,0.0,0.0," xlink:title="3" d="M13099.4168,-3172.8516L13099.4201,-3172.8441L13099.4234,-3172.8351L13099.345,-3172.8126L13099.3285,-3172.8081L13099.2896,-3172.7974L13099.2138,-3172.7759L13099.1889,-3172.768"/>
<path content="3,曽於市,北校区②コース（火・木・土）,0.8,2.0,0.0," xlink:title="3" d="M13099.1993,-3172.7106L13099.2162,-3172.6365L13099.3072,-3172.6434L13099.3645,-3172.6473L13099.4093,-3172.5289L13099.508,-3172.5614L13099.5371,-3172.5747L13099.5807,-3172.6157L13099.621,-3172.6628L13099.6316,-3172.6748L13099.7332,-3172.7897L13099.7681,-3172.7969L13099.7847,-3172.7996L13099.8376,-3172.8074L13099.8502,-3172.8097"/>
<path content="3,曽於市,北校区②コース（火・木・土）,0.8,2.0,0.0," xlink:title="3" d="M13099.8502,-3172.8097L13099.8715,-3172.8135"/>
<path content="3,曽於市,北校区②コース（火・木・土）,0.8,2.0,0.0," xlink:title="3" d="M13099.8502,-3172.8097L13099.829,-3172.8516"/>
<path content="3,曽於市,北校区②コース（火・木・土）,0.8,2.0,0.0," xlink:title="3" d="M13099.1748,-3172.8511L13099.1889,-3172.768L13099.1993,-3172.7106"/>
<path content="3,曽於市,北校区②コース（火・木・土）,0.8,2.0,0.0," xlink:title="3" d="M13098.5873,-3172.8516L13098.5934,-3172.8472L13098.6166,-3172.8304L13098.6285,-3172.8237L13098.6353,-3172.8201L13098.6401,-3172.8186L13098.649,-3172.8176L13098.6688,-3172.8159L13098.6873,-3172.8114L13098.6971,-3172.8069L13098.7031,-3172.8024L13098.7604,-3172.7466L13098.7887,-3172.7213L13098.8072,-3172.71L13098.8197,-3172.7049L13098.8303,-3172.7021L13098.8434,-3172.6987L13098.8731,-3172.6931L13098.9034,-3172.6891L13098.9198,-3172.6868L13098.9377,-3172.6842L13098.9768,-3172.6808L13099.0026,-3172.6799L13099.0377,-3172.6847L13099.0777,-3172.6913L13099.0972,-3172.6948L13099.14,-3172.7021L13099.1855,-3172.7094L13099.1993,-3172.7106"/>
<path content="3,曽於市,南校区①コース（月・水・金）,1.2,0.0,0.0," xlink:title="3" d="M13095.7031,-3169.9823L13095.734,-3169.9926L13095.7778,-3170.0038L13095.8116,-3170.0096L13095.8399,-3170.0142L13095.8548,-3170.0151L13095.8706,-3170.0191L13095.8772,-3170.0223L13095.8854,-3170.0286L13095.8939,-3170.0343L13095.9006,-3170.0379L13095.9097,-3170.0402L13095.9551,-3170.0405L13095.9866,-3170.0394L13095.9984,-3170.0377L13096.0116,-3170.0343L13096.0142,-3170.0325L13096.0173,-3170.0295L13096.0189,-3170.0263L13096.02,-3170.0232L13096.0211,-3170.0158L13096.021,-3170.0083L13096.02,-3170.0003L13096.0202,-3169.9931L13096.0221,-3169.9863L13096.0245,-3169.9806L13096.0129,-3169.9638L13096.0457,-3169.9269L13096.0536,-3169.9194L13096.0591,-3169.9172L13096.0669,-3169.917L13096.0733,-3169.9194L13096.1019,-3169.9357L13096.1259,-3169.9502L13096.1318,-3169.9547L13096.1338,-3169.958L13096.1388,-3169.9829L13096.1447,-3170.0078L13096.1487,-3170.0168L13096.154,-3170.0224L13096.1593,-3170.0255L13096.1672,-3170.0286L13096.2113,-3170.0444L13096.2154,-3170.045L13096.2206,-3170.045L13096.2245,-3170.0439L13096.2311,-3170.0394L13096.2467,-3170.0224L13096.2528,-3170.0151L13096.2568,-3170.0089L13096.2607,-3169.9982L13096.2634,-3169.9808L13096.2644,-3169.9579L13096.2641,-3169.9351L13096.2631,-3169.926L13096.2607,-3169.9188L13096.2502,-3169.9035L13096.2061,-3169.8539L13096.2028,-3169.8494L13096.2001,-3169.8432L13096.1993,-3169.8377L13096.2001,-3169.8319L13096.2113,-3169.7942L13096.2186,-3169.7705L13096.2192,-3169.765L13096.2192,-3169.7616L13096.2181,-3169.7564L13096.1777,-3169.6899L13096.1678,-3169.6752L13096.1586,-3169.66L13096.1408,-3169.6336L13096.1296,-3169.6211L13096.1211,-3169.6149L13096.0967,-3169.6014L13096.0808,-3169.5941L13096.0446,-3169.5794L13096.013,-3169.5636L13095.9998,-3169.5546L13095.9926,-3169.5473L13095.9622,-3169.5022L13095.9563,-3169.4904L13095.9471,-3169.4583L13095.9422,-3169.447L13095.9364,-3169.4385L13095.9128,-3169.4103L13095.8884,-3169.3793L13095.866,-3169.3449L13095.8568,-3169.3342L13095.8508,-3169.3297L13095.8271,-3169.319L13095.8225,-3169.3159L13095.8192,-3169.3122L13095.8142,-3169.3043L13095.8067,-3169.2886L13095.754,-3169.2159L13095.7507,-3169.2085L13095.7329,-3169.1567L13095.7283,-3169.1437L13095.7263,-3169.1387L13095.7164,-3169.1094L13095.7118,-3169.1009L13095.7031,-3169.0905M13095.7031,-3168.8389L13095.7105,-3168.8382L13095.7151,-3168.8371L13095.7573,-3168.8326L13095.7731,-3168.8303L13095.8858,-3168.8134L13095.9332,-3168.8082L13095.9948,-3168.8003L13096.0104,-3168.7999L13096.046,-3168.8022L13096.0756,-3168.8033L13096.1151,-3168.8072L13096.1362,-3168.8101L13096.1575,-3168.8113L13096.1784,-3168.8101L13096.3379,-3168.7684L13096.3538,-3168.7644L13096.3867,-3168.7565L13096.4104,-3168.7497L13096.4697,-3168.7351L13096.5086,-3168.7249L13096.5369,-3168.7182L13096.5706,-3168.7137L13096.6898,-3168.7137L13096.7861,-3168.7148L13096.8111,-3168.7182L13096.8427,-3168.7244L13096.8578,-3168.7281L13096.8698,-3168.734L13096.8928,-3168.7515L13096.9139,-3168.7746L13096.9942,-3168.8763L13097.0029,-3168.8856L13097.0087,-3168.8925L13097.0112,-3168.8955L13096.9921,-3168.9099L13096.9752,-3168.9245L13096.964,-3168.9364L13096.9528,-3168.951L13096.9402,-3168.9713L13096.9324,-3168.9905L13096.9271,-3169.0119L13096.9271,-3169.0558L13096.9294,-3169.0835L13096.9343,-3169.1404L13096.9376,-3169.1686L13096.9383,-3169.1844L13096.9429,-3169.2294L13096.9429,-3169.2756L13096.9396,-3169.2926L13096.9317,-3169.3146L13096.9172,-3169.3388L13096.8935,-3169.367L13096.7755,-3169.5017L13096.7643,-3169.5197L13096.7584,-3169.5372L13096.7577,-3169.5513L13096.7588,-3169.5664L13096.7643,-3169.6034L13096.7682,-3169.6301L13096.7761,-3169.6973L13096.7834,-3169.7519L13096.788,-3169.7942L13096.79,-3169.8184L13096.7926,-3169.8438L13096.7986,-3169.8916L13096.7994,-3169.9097L13096.7982,-3169.9199L13096.7977,-3169.9246L13096.7952,-3169.9334L13096.7913,-3169.943L13096.7847,-3169.9537L13096.773,-3169.9637L13096.7695,-3169.9667L13096.7584,-3169.975L13096.7451,-3169.9824L13096.7168,-3169.9949L13096.6615,-3170.014L13096.6371,-3170.0225L13096.6142,-3170.0279L13096.5771,-3170.0383L13096.554,-3170.0439L13096.5164,-3170.058L13096.5009,-3170.0662L13096.4867,-3170.0738L13096.4753,-3170.0812L13096.4629,-3170.091L13096.4519,-3170.1L13096.4424,-3170.1066L13096.4339,-3170.1141L13096.4189,-3170.1318L13096.4103,-3170.1465L13096.3998,-3170.1718L13096.3886,-3170.2175L13096.3752,-3170.2624L13096.3737,-3170.2676L13096.3674,-3170.2932L13096.3569,-3170.3285L13096.3451,-3170.3691L13096.3049,-3170.5078L13096.2924,-3170.5506L13096.3662,-3170.5709L13096.4031,-3170.5788L13096.4439,-3170.5844L13096.496,-3170.5889L13096.5276,-3170.5929L13096.5566,-3170.5985L13096.585,-3170.6075L13096.6159,-3170.6244L13096.6555,-3170.6515L13096.7774,-3170.7484L13096.8176,-3170.7766L13096.84,-3170.7907L13096.8604,-3170.8003L13096.8829,-3170.8076L13096.8961,-3170.811L13096.9701,-3170.8169L13096.9981,-3170.8155L13097.0282,-3170.8186L13097.0483,-3170.8218L13097.0621,-3170.8251L13097.0904,-3170.8324L13097.1139,-3170.8426L13097.1372,-3170.8528L13097.169,-3170.8671L13097.204,-3170.8807L13097.2413,-3170.8972L13097.2582,-3170.9018L13097.2717,-3170.9052L13097.2889,-3170.9044L13097.326,-3170.8952L13097.3724,-3170.8788L13097.3839,-3170.8749L13097.4028,-3170.8736L13097.4516,-3170.8815L13097.5215,-3170.8944L13097.5828,-3170.9069L13097.6039,-3170.9125L13097.621,-3170.9215L13097.6289,-3170.9277L13097.6369,-3170.9361L13097.6466,-3170.9505L13097.6542,-3170.9631L13097.6615,-3170.9756L13097.675,-3170.9982L13097.7073,-3171.0466L13097.7284,-3171.0748L13097.7598,-3171.1144L13097.7634,-3171.1184L13097.803,-3171.167L13097.8549,-3171.2112L13097.8694,-3171.2219L13097.9103,-3171.2529L13097.9296,-3171.2687L13097.9405,-3171.2833L13097.9465,-3171.2958L13097.9538,-3171.3217L13097.9591,-3171.3544L13097.9676,-3171.3888L13097.9762,-3171.404L13097.9933,-3171.4249L13098.0566,-3171.4818L13098.0621,-3171.4892L13098.0665,-3171.4981L13098.0787,-3171.5422L13098.0816,-3171.5528L13098.1,-3171.61L13098.1405,-3171.6803L13098.1594,-3171.7129L13098.1719,-3171.7422L13098.1759,-3171.7614L13098.1789,-3171.8151L13098.1747,-3171.8307L13098.1574,-3171.8758L13098.1536,-3171.8906L13098.1521,-3171.9017L13098.1516,-3171.9118L13098.1521,-3171.9226L13098.1541,-3171.9327L13098.1612,-3171.9454L13098.1761,-3171.9594L13098.2045,-3171.9739L13098.2615,-3172.0009L13098.282,-3172.0094L13098.2906,-3172.0137L13098.3162,-3172.0274L13098.338,-3172.0421L13098.3624,-3172.0624L13098.3762,-3172.0776L13098.3999,-3172.1063L13098.423,-3172.1638L13098.4335,-3172.1863L13098.4376,-3172.1933L13098.4433,-3172.2013L13098.4556,-3172.2116L13098.4711,-3172.2207L13098.4839,-3172.2261L13098.5567,-3172.2537L13098.5768,-3172.2615L13098.601,-3172.2707L13098.6135,-3172.2748L13098.6174,-3172.2759L13098.6551,-3172.2866L13098.725,-3172.3092L13098.7301,-3172.3109L13098.7558,-3172.3188L13098.8349,-3172.3439L13098.9047,-3172.3662L13098.9114,-3172.3679L13098.9331,-3172.3746L13099.0089,-3172.3994L13099.0708,-3172.4186L13099.1716,-3172.4513L13099.2426,-3172.4741L13099.2362,-3172.5256L13099.2162,-3172.6365"/>
<path content="3,曽於市,南校区①コース（月・水・金）,1.2,0.0,0.0," xlink:title="3" d="M13099.2162,-3172.6365L13099.3072,-3172.6434L13099.3645,-3172.6473L13099.4093,-3172.5289L13099.508,-3172.5614L13099.5371,-3172.5747L13099.5807,-3172.6157L13099.621,-3172.6628L13099.6316,-3172.6748L13099.7332,-3172.7897L13099.7681,-3172.7969L13099.7847,-3172.7996L13099.8376,-3172.8074L13099.8502,-3172.8097"/>
<path content="3,曽於市,南校区①コース（月・水・金）,1.2,0.0,0.0," xlink:title="3" d="M13099.2162,-3172.6365L13099.1993,-3172.7106L13099.1889,-3172.768L13099.1748,-3172.8511"/>
<path content="3,曽於市,南校区①コース（月・水・金）,1.2,0.0,0.0," xlink:title="3" d="M13099.8502,-3172.8097L13099.8715,-3172.8135"/>
<path content="3,曽於市,南校区①コース（月・水・金）,1.2,0.0,0.0," xlink:title="3" d="M13099.8502,-3172.8097L13099.829,-3172.8516"/>
<path content="3,曽於市,南校区②コース（火・木・土）,0.8,2.0,0.0," xlink:title="3" d="M13095.7031,-3172.5916L13095.7094,-3172.5874L13095.7197,-3172.57L13095.7258,-3172.5614L13095.7341,-3172.5536L13095.7631,-3172.5277L13095.7756,-3172.5194L13095.8059,-3172.5081L13095.8105,-3172.5048L13095.8129,-3172.5026L13095.8151,-3172.4991L13095.8157,-3172.4967L13095.816,-3172.4931L13095.8151,-3172.4811L13095.8113,-3172.4676L13095.8105,-3172.4602L13095.8095,-3172.4446L13095.8105,-3172.432L13095.8138,-3172.4185L13095.827,-3172.3909L13095.8376,-3172.3734L13095.8441,-3172.3655L13095.8503,-3172.3602L13095.858,-3172.3557L13095.8639,-3172.3537L13095.8738,-3172.3514L13095.9095,-3172.3504L13095.9135,-3172.3538L13095.9281,-3172.3653L13095.9283,-3172.3654L13095.9468,-3172.3801L13095.9591,-3172.3903L13095.9694,-3172.401L13095.9852,-3172.4292L13095.9937,-3172.4433L13096.003,-3172.4506L13096.0148,-3172.458L13096.0233,-3172.4628L13096.0351,-3172.4699L13096.0491,-3172.4781L13096.057,-3172.4813L13096.0625,-3172.4816L13096.0694,-3172.481L13096.078,-3172.4784L13096.1132,-3172.4622L13096.1394,-3172.4512L13096.1585,-3172.444L13096.1816,-3172.4371L13096.2093,-3172.4303L13096.2067,-3172.4205L13096.206,-3172.4113L13096.2086,-3172.3695L13096.2098,-3172.3574L13096.2106,-3172.3554L13096.2139,-3172.3166L13096.2166,-3172.3031L13096.2183,-3172.2981L13096.2205,-3172.2934L13096.2382,-3172.2765L13096.2956,-3172.2331L13096.3239,-3172.2162L13096.3345,-3172.2128L13096.3529,-3172.21L13096.4314,-3172.2043L13096.4475,-3172.2044L13096.5342,-3172.2049L13096.5737,-3172.206L13096.6152,-3172.21L13096.6304,-3172.2145L13096.6785,-3172.2444L13096.6976,-3172.2523L13096.7648,-3172.2731L13096.7991,-3172.2816L13096.8927,-3172.303L13096.9101,-3172.3067L13096.9627,-3172.3244L13096.9797,-3172.3295L13097.0284,-3172.3426L13097.0494,-3172.3458L13097.1049,-3172.3526L13097.1879,-3172.3633L13097.2532,-3172.3757L13097.2848,-3172.3824L13097.3145,-3172.3887L13097.3494,-3172.396L13097.3712,-3172.3983L13097.5998,-3172.4101L13097.6157,-3172.4119L13097.6338,-3172.4161L13097.6644,-3172.4287L13097.7448,-3172.4625L13097.7989,-3172.4851L13097.8549,-3172.5099L13097.8931,-3172.5262L13097.9017,-3172.5307L13097.9544,-3172.5527L13097.9614,-3172.5539L13097.9693,-3172.5548L13097.9815,-3172.5554L13097.9978,-3172.5556L13097.9978,-3172.5548L13098.0077,-3172.5521L13098.0189,-3172.5482L13098.0243,-3172.5465L13098.046,-3172.5375L13098.0605,-3172.533L13098.0875,-3172.5291L13098.1339,-3172.5363L13098.189,-3172.5628L13098.1974,-3172.5662L13098.212,-3172.5701L13098.2569,-3172.5786L13098.3276,-3172.5899L13098.334,-3172.5916L13098.3531,-3172.5959L13098.3722,-3172.6018L13098.3894,-3172.6057L13098.4026,-3172.6057L13098.4404,-3172.5976L13098.4979,-3172.5776L13098.5364,-3172.5623L13098.5673,-3172.5471L13098.6147,-3172.52L13098.6292,-3172.5149L13098.649,-3172.5116L13098.6677,-3172.5113L13098.6996,-3172.5128L13098.7044,-3172.5135L13098.7122,-3172.5155L13098.7191,-3172.5193L13098.7268,-3172.5257L13098.7351,-3172.536L13098.7486,-3172.5527L13098.7611,-3172.564L13098.7687,-3172.5704L13098.7752,-3172.5745L13098.7822,-3172.5768L13098.7937,-3172.5795L13098.8026,-3172.5815L13098.8131,-3172.5871L13098.8182,-3172.5908L13098.8236,-3172.599L13098.826,-3172.6074L13098.8322,-3172.6356L13098.8434,-3172.6987L13098.8731,-3172.6931L13098.9034,-3172.6891L13098.9198,-3172.6868L13098.9377,-3172.6842L13098.9768,-3172.6808L13099.0026,-3172.6799L13099.0377,-3172.6847L13099.0777,-3172.6913L13099.0972,-3172.6948L13099.14,-3172.7021L13099.1855,-3172.7094L13099.1993,-3172.7106"/>
<path content="3,曽於市,南校区②コース（火・木・土）,0.8,2.0,0.0," xlink:title="3" d="M13099.1993,-3172.7106L13099.2162,-3172.6365L13099.3072,-3172.6434L13099.3645,-3172.6473L13099.4093,-3172.5289L13099.508,-3172.5614L13099.5371,-3172.5747L13099.5807,-3172.6157L13099.621,-3172.6628L13099.6316,-3172.6748L13099.7332,-3172.7897L13099.7681,-3172.7969L13099.7847,-3172.7996L13099.8376,-3172.8074L13099.8502,-3172.8097"/>
<path content="3,曽於市,南校区②コース（火・木・土）,0.8,2.0,0.0," xlink:title="3" d="M13099.1993,-3172.7106L13099.1889,-3172.768L13099.1748,-3172.8511"/>
<path content="3,曽於市,南校区②コース（火・木・土）,0.8,2.0,0.0," xlink:title="3" d="M13099.8502,-3172.8097L13099.8715,-3172.8135"/>
<path content="3,曽於市,南校区②コース（火・木・土）,0.8,2.0,0.0," xlink:title="3" d="M13099.8502,-3172.8097L13099.829,-3172.8516"/>
<path content="3,曽於市,外園～交流センター前線,2.5,2.5,0.0," xlink:title="3" d="M13095.7031,-3168.8389L13095.7105,-3168.8382L13095.7151,-3168.8371L13095.7573,-3168.8326L13095.7731,-3168.8303L13095.8858,-3168.8134L13095.9332,-3168.8082L13095.9948,-3168.8003L13096.0104,-3168.7999L13096.046,-3168.8022L13096.0756,-3168.8033L13096.1151,-3168.8072L13096.1362,-3168.8101L13096.1575,-3168.8113L13096.1784,-3168.8101L13096.3379,-3168.7684L13096.3538,-3168.7644L13096.3867,-3168.7565L13096.4104,-3168.7497L13096.4697,-3168.7351L13096.5086,-3168.7249L13096.5369,-3168.7182L13096.5706,-3168.7137L13096.6898,-3168.7137L13096.7861,-3168.7148L13096.8111,-3168.7182L13096.8427,-3168.7244L13096.8578,-3168.7281L13096.8698,-3168.734L13096.8928,-3168.7515L13096.9139,-3168.7746L13096.9942,-3168.8763L13097.0029,-3168.8856L13097.0087,-3168.8925L13097.0112,-3168.8955L13097.0213,-3168.9082L13097.0714,-3168.9719L13097.0952,-3169.0046L13097.1413,-3169.0863L13097.1557,-3169.1124L13097.2158,-3169.1894L13097.2362,-3169.2148L13097.2704,-3169.2616L13097.2907,-3169.2904L13097.3146,-3169.3304L13097.3376,-3169.3619L13097.3482,-3169.3721L13097.3555,-3169.3786L13097.367,-3169.3843L13097.3724,-3169.3863L13097.4365,-3169.3957L13097.4721,-3169.4053L13097.4925,-3169.4132L13097.5116,-3169.4245L13097.5496,-3169.457L13097.5828,-3169.4938L13097.5941,-3169.5042L13097.6052,-3169.5147L13097.6309,-3169.5291L13097.6678,-3169.5355L13097.6738,-3169.5361L13097.6949,-3169.5344L13097.7719,-3169.5175L13097.8543,-3169.4989L13097.8702,-3169.4949L13097.8932,-3169.4904L13097.9692,-3169.4728L13097.9814,-3169.4694L13097.9944,-3169.4664L13098.0197,-3169.4599L13098.0566,-3169.4513L13098.0771,-3169.4465L13098.1411,-3169.4314L13098.164,-3169.4262L13098.2491,-3169.4132L13098.3737,-3169.3953L13098.3783,-3169.3946L13098.3895,-3169.3929L13098.398,-3169.393L13098.4048,-3169.3948L13098.4264,-3169.4014L13098.5404,-3169.4358L13098.5971,-3169.4521L13098.7506,-3169.4933L13098.7889,-3169.5029L13098.8409,-3169.5152L13098.8094,-3169.4374L13098.7625,-3169.3214L13098.7599,-3169.3067L13098.7599,-3169.2779L13098.7638,-3169.252L13098.7665,-3169.2363L13098.775,-3169.1979L13098.7761,-3169.1822L13098.7744,-3169.1557L13098.7731,-3169.1201L13098.7783,-3169.0786L13098.7901,-3169.0544L13098.804,-3169.0272L13098.8245,-3168.9846L13098.8416,-3168.9353L13098.8601,-3168.9009L13098.8739,-3168.8817L13098.8831,-3168.8711L13098.8882,-3168.8652L13098.8933,-3168.8587L13098.8996,-3168.8485L13098.9042,-3168.8344L13098.9051,-3168.8209L13098.9042,-3168.7994L13098.897,-3168.7521L13098.887,-3168.7048L13098.8864,-3168.698L13098.8858,-3168.6884L13098.8879,-3168.6791L13098.8956,-3168.6681L13098.9154,-3168.6461L13098.955,-3168.6078L13098.9727,-3168.5926L13098.9832,-3168.5867L13098.9945,-3168.5824L13099.0668,-3168.5599L13099.0761,-3168.5573"/>
<path content="3,曽於市,外園～交流センター前線,2.5,2.5,0.0," xlink:title="3" d="M13099.0761,-3168.5573L13099.0693,-3168.5442L13099.0347,-3168.468L13099.0297,-3168.457"/>
<path content="3,曽於市,外園～交流センター前線,2.5,2.5,0.0," xlink:title="3" d="M13099.0761,-3168.5573L13099.0965,-3168.5509L13099.158,-3168.5323L13099.2447,-3168.5054L13099.3201,-3168.4821L13099.3853,-3168.4618L13099.4044,-3168.4574L13099.4071,-3168.457"/>
<path content="3,曽於市,曽於市思いやりバス,5.0,0.0,0.0," xlink:title="3" d="M13100.0977,-3171.5621L13100.0383,-3171.5858L13100.0232,-3171.5926L13099.9388,-3171.6337L13099.8524,-3171.6795L13099.7681,-3171.7202L13099.7382,-3171.7351L13099.7344,-3171.737L13099.693,-3171.7586L13099.6528,-3171.7777L13099.6383,-3171.7834L13099.6304,-3171.7845L13099.6119,-3171.7823L13099.6027,-3171.7777L13099.5862,-3171.7659L13099.55,-3171.7366L13099.5355,-3171.727L13099.5249,-3171.7231L13099.5181,-3171.7223L13099.5114,-3171.7231L13099.5046,-3171.7249L13099.4979,-3171.7281L13099.4847,-3171.7366L13099.4702,-3171.749L13099.4406,-3171.78L13099.4195,-3171.8082L13099.3512,-3171.9559L13099.3246,-3171.984L13099.3009,-3172.0032L13099.2864,-3172.0139L13099.2527,-3172.0348L13099.2455,-3172.0404L13099.2382,-3172.0498L13099.2365,-3172.0543L13099.2356,-3172.0584L13099.2316,-3172.0889L13099.2265,-3172.1125L13099.2186,-3172.1302L13099.2086,-3172.1452L13099.1749,-3172.1943L13099.1715,-3172.1991L13099.159,-3172.2184L13099.1447,-3172.2403L13099.1354,-3172.2514L13099.1684,-3172.3087L13099.2086,-3172.3797L13099.2349,-3172.4282L13099.2422,-3172.4456L13099.2434,-3172.4574L13099.2426,-3172.4741L13099.2362,-3172.5256L13099.2162,-3172.6365L13099.1993,-3172.7106L13099.1889,-3172.768L13099.1748,-3172.8511"/>
<path content="3,曽於市,棚木～交流センター前線,2.5,2.5,0.0," xlink:title="3" d="M13097.7089,-3168.457L13097.7115,-3168.5531L13097.7057,-3168.579L13097.6997,-3168.5904L13097.6692,-3168.6168L13097.6181,-3168.6561L13097.6028,-3168.6641L13097.5953,-3168.6763L13097.5925,-3168.7118L13097.585,-3168.7227L13097.538,-3168.7577L13097.5214,-3168.7723L13097.5128,-3168.7935L13097.5024,-3168.8174"/>
<path content="3,曽於市,棚木～交流センター前線,2.5,2.5,0.0," xlink:title="3" d="M13097.5024,-3168.8174L13097.5433,-3168.8112L13097.5723,-3168.8062L13097.6514,-3168.7943L13097.6816,-3168.7889L13097.7226,-3168.7814L13097.743,-3168.7763L13097.7733,-3168.7656L13097.7924,-3168.7566L13097.8131,-3168.7417L13097.8438,-3168.7166L13097.8603,-3168.7002L13097.8897,-3168.6651L13097.8985,-3168.6546L13097.9354,-3168.6067L13097.971,-3168.5554L13098.0152,-3168.4888L13098.0251,-3168.4736L13098.0345,-3168.457"/>
<path content="3,曽於市,棚木～交流センター前線,2.5,2.5,0.0," xlink:title="3" d="M13096.9942,-3168.8763L13097.0029,-3168.8856L13097.0087,-3168.8925L13097.0501,-3168.8862L13097.1003,-3168.8786L13097.2197,-3168.8603L13097.2645,-3168.8541L13097.2909,-3168.8496L13097.3502,-3168.8411L13097.3884,-3168.8349L13097.4451,-3168.8264L13097.4925,-3168.8191L13097.5024,-3168.8174"/>
<path content="3,曽於市,蓑原～交流センター前線,3.0,3.0,0.0," xlink:title="3" d="M13100.0977,-3169.4554L13099.9982,-3169.4227L13099.9903,-3169.4199L13099.9639,-3169.4424L13099.9507,-3169.4492L13099.9079,-3169.4588L13099.8967,-3169.4609L13099.8876,-3169.4617L13099.8726,-3169.4611L13099.8545,-3169.4616L13099.8269,-3169.4661L13099.8262,-3169.4695L13099.8242,-3169.4774L13099.8242,-3169.4931L13099.8275,-3169.523L13099.8236,-3169.5371L13099.8124,-3169.5608L13099.8269,-3169.567L13099.8435,-3169.5716L13099.9079,-3169.594L13099.9422,-3169.6053L13100.0333,-3169.6353L13100.0503,-3169.6408L13100.0977,-3169.6579"/>
<path content="3,曽於市,財部支所周回コース（月～土）,3.0,3.0,0.0," xlink:title="3" d="M13099.2162,-3172.6365L13099.2362,-3172.5256L13099.2426,-3172.4741L13099.1716,-3172.4513L13099.0708,-3172.4186L13099.0089,-3172.3994L13099.06,-3172.3407L13099.1019,-3172.2914L13099.1284,-3172.2607L13099.1354,-3172.2514L13099.1447,-3172.2403L13099.159,-3172.2184L13099.1715,-3172.1991L13099.1749,-3172.1943L13099.2086,-3172.1452L13099.2186,-3172.1302L13099.2265,-3172.1125L13099.2316,-3172.0889L13099.2356,-3172.0584L13099.2365,-3172.0543L13099.2382,-3172.0498L13099.2455,-3172.0404L13099.2527,-3172.0348L13099.2864,-3172.0139L13099.3009,-3172.0032L13099.3246,-3171.984L13099.3388,-3171.9695L13099.3512,-3171.9559L13099.4195,-3171.8082L13099.4406,-3171.78L13099.4702,-3171.749L13099.4847,-3171.7366L13099.4979,-3171.7281L13099.5046,-3171.7249L13099.5114,-3171.7231L13099.5181,-3171.7223L13099.5249,-3171.7231L13099.5355,-3171.727L13099.55,-3171.7366L13099.5862,-3171.7659L13099.6027,-3171.7777L13099.6119,-3171.7823L13099.6304,-3171.7845L13099.6383,-3171.7834L13099.6528,-3171.7777L13099.693,-3171.7586L13099.7344,-3171.737L13099.7382,-3171.7351L13099.7681,-3171.7995L13099.7819,-3171.8304L13099.7899,-3171.8389L13099.8459,-3171.8631L13099.9253,-3171.8987L13099.9638,-3171.9172L13099.9941,-3171.9319L13100.0159,-3171.942L13100.037,-3171.9521L13100.0653,-3171.964L13100.0943,-3171.9719L13100.0977,-3171.9727M13100.0977,-3172.2363L13100.0594,-3172.2565L13100.035,-3172.2683L13100.0258,-3172.2724L13100.0145,-3172.2786L13100.0047,-3172.2903L13099.9967,-3172.305L13099.9876,-3172.3269L13099.9777,-3172.3546L13099.9552,-3172.3799L13099.9493,-3172.398L13099.9454,-3172.4177L13099.9428,-3172.425L13099.9322,-3172.4386L13099.9256,-3172.4493L13099.9184,-3172.4696L13099.9131,-3172.4864L13099.8986,-3172.5243L13099.8948,-3172.5291L13099.9131,-3172.5358L13099.9276,-3172.5406L13099.9377,-3172.5414L13099.9474,-3172.5411L13099.9612,-3172.5383L13099.9803,-3172.5315L13099.9915,-3172.5225L13099.9955,-3172.5152L13100.0021,-3172.4966L13100.008,-3172.4909L13100.0126,-3172.4881L13100.0172,-3172.487L13100.0548,-3172.4842L13100.0804,-3172.4803L13100.0969,-3172.4758L13100.0977,-3172.4754M13100.0977,-3172.8254L13100.0859,-3172.8283L13100.0699,-3172.8312L13100.0605,-3172.8315L13100.0358,-3172.8315L13100.0226,-3172.8306L13100.0043,-3172.8288L13099.8715,-3172.8135L13099.8502,-3172.8097"/>
<path content="3,曽於市,財部支所周回コース（月～土）,3.0,3.0,0.0," xlink:title="3" d="M13099.2162,-3172.6365L13099.1993,-3172.7106L13099.1889,-3172.768L13099.1748,-3172.8511L13099.111,-3172.8509L13099.1033,-3172.7838L13099.126,-3172.7456L13099.14,-3172.7021L13099.0972,-3172.6948L13099.0777,-3172.6913L13099.0377,-3172.6847L13099.0026,-3172.6799L13099.0017,-3172.6424L13098.9997,-3172.5829L13098.9954,-3172.5322L13098.9949,-3172.5069L13098.9842,-3172.4571L13098.921,-3172.4602L13098.8244,-3172.4655L13098.7676,-3172.4696L13098.7616,-3172.4697L13098.7575,-3172.4863L13098.7536,-3172.5091L13098.7296,-3172.5132L13098.7122,-3172.5155L13098.7044,-3172.5135L13098.6996,-3172.5128L13098.6677,-3172.5113L13098.649,-3172.5116L13098.6292,-3172.5149L13098.6147,-3172.52L13098.5673,-3172.5471L13098.5364,-3172.5623L13098.4979,-3172.5776L13098.4404,-3172.5976L13098.4026,-3172.6057L13098.3894,-3172.6057L13098.3722,-3172.6018L13098.3531,-3172.5959L13098.334,-3172.5916L13098.3276,-3172.5899L13098.2569,-3172.5786L13098.212,-3172.5701L13098.1974,-3172.5662L13098.189,-3172.5628L13098.1339,-3172.5363L13098.0875,-3172.5291L13098.0605,-3172.533L13098.046,-3172.5375L13098.0243,-3172.5465L13098.0189,-3172.5482L13098.0077,-3172.5521L13097.9978,-3172.5548L13097.9978,-3172.5556L13097.9815,-3172.5554L13097.9693,-3172.5548L13097.9614,-3172.5539L13097.9544,-3172.5527L13097.9017,-3172.5307L13097.8931,-3172.5262L13097.8549,-3172.5099L13097.8536,-3172.5251L13097.8526,-3172.5488L13097.8529,-3172.5719L13097.8542,-3172.582L13097.8588,-3172.591L13097.8674,-3172.5989L13097.8793,-3172.6046L13097.8924,-3172.6085L13097.9054,-3172.6098L13097.9055,-3172.6158L13097.905,-3172.6215L13097.9017,-3172.6328L13097.8964,-3172.6423L13097.8872,-3172.6502L13097.8727,-3172.6564L13097.8318,-3172.6688L13097.8153,-3172.6756L13097.8035,-3172.6857L13097.7976,-3172.6959L13097.7916,-3172.7105L13097.7798,-3172.7645L13097.7901,-3172.7693L13097.8015,-3172.7736L13097.8219,-3172.7798L13097.8397,-3172.7838L13097.8542,-3172.7848L13097.8694,-3172.7832L13097.8859,-3172.7782L13097.9056,-3172.7708L13097.9267,-3172.7646L13097.9504,-3172.7607L13097.9735,-3172.7607L13097.9794,-3172.7618L13097.9865,-3172.7637L13097.9905,-3172.7659L13097.9946,-3172.7708L13097.9959,-3172.7755L13097.9965,-3172.781L13097.9963,-3172.7885L13097.9887,-3172.8137L13097.9884,-3172.8212L13097.9893,-3172.8289L13097.9952,-3172.8436L13097.9999,-3172.8516"/>
<path content="3,曽於市,財部支所周回コース（月～土）,3.0,3.0,0.0," xlink:title="3" d="M13099.8502,-3172.8097L13099.8376,-3172.8074L13099.7847,-3172.7996L13099.7681,-3172.7969L13099.7332,-3172.7897L13099.6316,-3172.6748L13099.621,-3172.6628L13099.5807,-3172.6157L13099.5371,-3172.5747L13099.508,-3172.5614L13099.4093,-3172.5289L13099.3645,-3172.6473L13099.3072,-3172.6434L13099.2162,-3172.6365"/>
<path content="3,曽於市,財部支所周回コース（月～土）,3.0,3.0,0.0," xlink:title="3" d="M13099.829,-3172.8516L13099.8502,-3172.8097"/>
<path content="3,曽於市,財部校区巡回コース（火・木・土）,1.2,3.0,0.0," xlink:title="3" d="M13100.0977,-3171.8505L13100.0732,-3171.8918L13100.0456,-3171.9381L13100.037,-3171.9521L13100.0159,-3171.942L13099.9941,-3171.9319L13099.9638,-3171.9172L13099.9253,-3171.8987L13099.8459,-3171.8631L13099.7899,-3171.8389L13099.7819,-3171.8304L13099.7681,-3171.7995L13099.7382,-3171.7351L13099.7344,-3171.737L13099.693,-3171.7586L13099.6528,-3171.7777L13099.6383,-3171.7834L13099.6304,-3171.7845L13099.6119,-3171.7823L13099.6027,-3171.7777L13099.5862,-3171.7659L13099.55,-3171.7366L13099.5355,-3171.727L13099.5249,-3171.7231L13099.5181,-3171.7223L13099.5114,-3171.7231L13099.5046,-3171.7249L13099.4979,-3171.7281L13099.4847,-3171.7366L13099.4702,-3171.749L13099.4406,-3171.78L13099.4195,-3171.8082L13099.3512,-3171.9559L13099.3388,-3171.9695L13099.3246,-3171.984L13099.3009,-3172.0032L13099.2864,-3172.0139L13099.2527,-3172.0348L13099.2455,-3172.0404L13099.2382,-3172.0498L13099.2365,-3172.0543L13099.2356,-3172.0584L13099.2316,-3172.0889L13099.2265,-3172.1125L13099.2186,-3172.1302L13099.2086,-3172.1452L13099.1749,-3172.1943L13099.1104,-3172.1435L13099.0376,-3172.0882L13099.0102,-3172.0674L13098.9832,-3172.046L13098.9765,-3172.0399L13098.9726,-3172.0346L13098.9708,-3172.0301L13098.9709,-3172.0265L13098.9733,-3172.0173L13098.9795,-3172.0022L13098.9831,-3171.9975L13098.9885,-3171.9942L13099.0267,-3171.9795L13099.0316,-3171.9759L13099.0366,-3171.9705L13099.0405,-3171.9649L13099.0438,-3171.9553L13099.048,-3171.9397L13099.049,-3171.9326L13099.049,-3171.9248L13099.0485,-3171.9183L13099.0473,-3171.9131L13099.0458,-3171.9074L13099.0228,-3171.8589L13098.9878,-3171.8025L13098.9825,-3171.7986L13098.9792,-3171.7975L13098.9687,-3171.7952L13098.9364,-3171.7879L13098.9265,-3171.7862L13098.8837,-3171.7766L13098.8267,-3171.7652L13098.8204,-3171.7636L13098.7815,-3171.7563L13098.771,-3171.7529L13098.7638,-3171.7479L13098.7591,-3171.7405L13098.7565,-3171.7174L13098.7545,-3171.7053L13098.7474,-3171.6838L13098.7433,-3171.6751L13098.7413,-3171.6706L13098.7176,-3171.6301L13098.7156,-3171.6199L13098.7146,-3171.6053L13098.7156,-3171.5878L13098.7169,-3171.5748L13098.7182,-3171.5387L13098.7169,-3171.5319L13098.7123,-3171.5224L13098.6873,-3171.4897L13098.6853,-3171.4846L13098.6858,-3171.4635L13098.6865,-3171.4393L13098.7168,-3171.4319L13098.7466,-3171.4203L13098.7685,-3171.4188L13098.8054,-3171.4229L13098.8576,-3171.4355L13098.8649,-3171.4225L13098.8756,-3171.4148L13098.9204,-3171.3989L13098.894,-3171.38L13098.8719,-3171.3687L13098.8416,-3171.3587L13098.8277,-3171.3455L13098.8178,-3171.3298L13098.8113,-3171.3153L13098.7946,-3171.302L13098.7647,-3171.2942L13098.7452,-3171.2905L13098.7057,-3171.2898L13098.6859,-3171.2757L13098.6224,-3171.2276L13098.6069,-3171.2231L13098.5844,-3171.2221L13098.5542,-3171.2238L13098.5076,-3171.2264L13098.4778,-3171.2224L13098.4617,-3171.2118L13098.427,-3171.1685L13098.3872,-3171.1056L13098.3727,-3171.0962L13098.3191,-3171.0804L13098.3092,-3171.0749L13098.3062,-3171.0526L13098.3038,-3171.0373L13098.298,-3171.0291L13098.1911,-3171.0331L13098.1851,-3170.9993L13098.1822,-3170.9929L13098.1772,-3170.9875L13098.1456,-3170.9627L13098.1278,-3170.9469L13098.1161,-3170.9338L13098.1035,-3170.9142L13098.0998,-3170.9064L13098.0929,-3170.89L13098.0751,-3170.8488L13098.0678,-3170.8387L13098.0614,-3170.8324L13098.0562,-3170.8299L13098.0483,-3170.8284L13098.0375,-3170.8291L13097.9501,-3170.8496L13097.934,-3170.8528L13097.9259,-3170.8533L13097.9195,-3170.8522L13097.911,-3170.8499L13097.8752,-3170.8358L13097.8678,-3170.8337L13097.8546,-3170.8325L13097.8407,-3170.8297L13097.8274,-3170.828L13097.8081,-3170.8239L13097.7851,-3170.8184L13097.7521,-3170.8088L13097.7086,-3170.7924L13097.6474,-3170.7671L13097.6087,-3170.7538L13097.5993,-3170.7526L13097.5893,-3170.7524L13097.5366,-3170.753L13097.5169,-3170.7547L13097.5083,-3170.7564L13097.507,-3170.7569L13097.4892,-3170.7665L13097.48,-3170.7687L13097.4716,-3170.7693L13097.4622,-3170.7687L13097.4486,-3170.7655L13097.4302,-3170.7602L13097.4179,-3170.7559L13097.411,-3170.7543L13097.4042,-3170.7543L13097.3976,-3170.7563L13097.3866,-3170.7614L13097.3759,-3170.767L13097.3656,-3170.7733L13097.3702,-3170.7796L13097.3732,-3170.7857L13097.3761,-3170.7959L13097.3785,-3170.8099L13097.3793,-3170.8222L13097.3791,-3170.8382L13097.3798,-3170.8511L13097.3839,-3170.8749L13097.3724,-3170.8788L13097.326,-3170.8952L13097.2889,-3170.9044L13097.2717,-3170.9052L13097.2582,-3170.9018L13097.2413,-3170.8972L13097.204,-3170.8807L13097.169,-3170.8671L13097.1372,-3170.8528L13097.1139,-3170.8426L13097.0904,-3170.8324L13097.0621,-3170.8251L13097.0483,-3170.8218L13097.0282,-3170.8186L13096.9981,-3170.8155L13096.9851,-3170.8154L13096.9701,-3170.8169L13096.8961,-3170.811L13096.8829,-3170.8076L13096.8604,-3170.8003L13096.84,-3170.7907L13096.8176,-3170.7766L13096.7774,-3170.7484L13096.6555,-3170.6515L13096.6159,-3170.6244L13096.585,-3170.6075L13096.5566,-3170.5985L13096.5276,-3170.5929L13096.496,-3170.5889L13096.4439,-3170.5844L13096.4031,-3170.5788L13096.3662,-3170.5709L13096.2924,-3170.5506L13096.2541,-3170.7016L13096.2475,-3170.7264L13096.2285,-3170.799L13096.186,-3170.9571L13096.1649,-3171.0353L13096.1466,-3171.0414L13096.1407,-3171.0528L13096.141,-3171.0668L13096.1764,-3171.0849L13096.1889,-3171.0945L13096.2251,-3171.1126L13096.2331,-3171.1186L13096.2495,-3171.1261L13096.2574,-3171.1328L13096.2619,-3171.1387L13096.266,-3171.1452L13096.2679,-3171.152L13096.2686,-3171.1847L13096.2699,-3171.1959L13096.2709,-3171.1998L13096.2732,-3171.2044L13096.2778,-3171.2089L13096.2844,-3171.2134L13096.2976,-3171.2185L13096.3134,-3171.2242L13096.3195,-3171.2267L13096.3246,-3171.2298L13096.3287,-3171.2338L13096.3339,-3171.2422L13096.3365,-3171.2523L13096.3431,-3171.2687L13096.3454,-3171.2718L13096.3503,-3171.2749L13096.3556,-3171.2771L13096.3637,-3171.278L13096.3754,-3171.2771L13096.4123,-3171.2726L13096.4229,-3171.2716L13096.4347,-3171.2726L13096.4485,-3171.2754L13096.4663,-3171.2833L13096.5078,-3171.3076L13096.5197,-3171.3126L13096.5289,-3171.3143L13096.5867,-3171.3198L13096.5997,-3171.3208L13096.6108,-3171.3227L13096.6221,-3171.3253L13096.6271,-3171.3268L13096.6746,-3171.3425L13096.7444,-3171.3713L13096.7695,-3171.3809L13096.7794,-3171.3843L13096.7879,-3171.3859L13096.7999,-3171.3891L13096.8215,-3171.3938L13097.0028,-3171.4327L13097.0684,-3171.4484L13097.0899,-3171.4548L13097.1128,-3171.4632L13097.1399,-3171.4773L13097.1517,-3171.4851L13097.1669,-3171.4992L13097.1748,-3171.5075L13097.1801,-3171.5133L13097.1964,-3171.5319L13097.2047,-3171.5421L13097.236,-3171.5154L13097.2456,-3171.5084L13097.2515,-3171.5073L13097.2581,-3171.5082L13097.3244,-3171.5195L13097.3324,-3171.5204L13097.3411,-3171.521L13097.3505,-3171.5218L13097.3548,-3171.5203L13097.3659,-3171.5063L13097.3792,-3171.4852L13097.3857,-3171.4688L13097.3916,-3171.4446L13097.4121,-3171.3837L13097.4134,-3171.3628L13097.4173,-3171.3307L13097.4252,-3171.2986L13097.4285,-3171.28L13097.4318,-3171.2687L13097.4371,-3171.2433L13097.4373,-3171.2325L13097.4378,-3171.2112L13097.4331,-3171.1825L13097.4322,-3171.1689L13097.433,-3171.1606L13097.4352,-3171.156L13097.4483,-3171.1436L13097.4621,-3171.1334L13097.4826,-3171.1114L13097.4991,-3171.0889L13097.5041,-3171.0845L13097.5106,-3171.0817L13097.5175,-3171.0816L13097.5365,-3171.0887L13097.5676,-3171.1019L13097.5946,-3171.1114L13097.6019,-3171.1126L13097.6106,-3171.1126L13097.617,-3171.112L13097.6269,-3171.1109L13097.6572,-3171.103L13097.6654,-3171.1013L13097.6705,-3171.1008L13097.675,-3171.1013L13097.6869,-3171.103L13097.7115,-3171.1069L13097.7405,-3171.1102L13097.7598,-3171.1144L13097.7634,-3171.1184L13097.803,-3171.167L13097.813,-3171.1752L13097.8549,-3171.2112L13097.8694,-3171.2219L13097.9103,-3171.2529L13097.9296,-3171.2687L13097.9405,-3171.2833L13097.9465,-3171.2958L13097.9538,-3171.3217L13097.9591,-3171.3544L13097.9676,-3171.3888L13097.9762,-3171.404L13097.9933,-3171.4249L13098.0566,-3171.4818L13098.0621,-3171.4892L13098.0665,-3171.4981L13098.0787,-3171.5422L13098.0816,-3171.5528L13098.1,-3171.61L13098.1405,-3171.6803L13098.1594,-3171.7129L13098.1719,-3171.7422L13098.1759,-3171.7614L13098.1789,-3171.8151L13098.1747,-3171.8307L13098.1574,-3171.8758L13098.1536,-3171.8906L13098.1521,-3171.9017L13098.1516,-3171.9118L13098.1521,-3171.9226L13098.1541,-3171.9327L13098.1612,-3171.9454L13098.1761,-3171.9594L13098.2045,-3171.9739L13098.2615,-3172.0009L13098.282,-3172.0094L13098.2906,-3172.0137L13098.3162,-3172.0274L13098.338,-3172.0421L13098.3624,-3172.0624L13098.3762,-3172.0776L13098.3999,-3172.1063L13098.423,-3172.1638L13098.4335,-3172.1863L13098.4376,-3172.1933L13098.4433,-3172.2013L13098.4556,-3172.2116L13098.4711,-3172.2207L13098.4839,-3172.2261L13098.5567,-3172.2537L13098.5768,-3172.2615L13098.601,-3172.2707L13098.6135,-3172.2748L13098.6174,-3172.2759L13098.6551,-3172.2866L13098.725,-3172.3092L13098.7301,-3172.3109L13098.7558,-3172.3188L13098.8349,-3172.3439L13098.9047,-3172.3662L13098.9114,-3172.3679L13098.9331,-3172.3746L13099.0089,-3172.3994L13099.0708,-3172.4186L13099.1716,-3172.4513L13099.2426,-3172.4741L13099.2362,-3172.5256L13099.2162,-3172.6365"/>
<path content="3,曽於市,財部校区巡回コース（火・木・土）,1.2,3.0,0.0," xlink:title="3" d="M13099.2162,-3172.6365L13099.3072,-3172.6434L13099.3645,-3172.6473L13099.4093,-3172.5289L13099.508,-3172.5614L13099.5371,-3172.5747L13099.5807,-3172.6157L13099.621,-3172.6628L13099.6316,-3172.6748L13099.7332,-3172.7897L13099.7681,-3172.7969L13099.7847,-3172.7996L13099.8376,-3172.8074L13099.8502,-3172.8097"/>
<path content="3,曽於市,財部校区巡回コース（火・木・土）,1.2,3.0,0.0," xlink:title="3" d="M13099.2162,-3172.6365L13099.1993,-3172.7106L13099.1889,-3172.768L13099.1748,-3172.8511"/>
<path content="3,曽於市,財部校区巡回コース（火・木・土）,1.2,3.0,0.0," xlink:title="3" d="M13099.8502,-3172.8097L13099.8715,-3172.8135"/>
<path content="3,曽於市,財部校区巡回コース（火・木・土）,1.2,3.0,0.0," xlink:title="3" d="M13099.8502,-3172.8097L13099.829,-3172.8516"/>
</g>
</svg>
