<?xml version="1.0" encoding="UTF-8"?>
<svg  xmlns="http://www.w3.org/2000/svg" xmlns:xlink="http://www.w3.org/1999/xlink" xmlns:go="http://purl.org/svgmap/profile" property="N07_001,N07_002,N07_003,N07_004,N07_005,N07_006,N07_007" viewBox="13969.1162109375 -3568.90869140625 0.274658203125 0.274658203125" go:dataArea="13969.1162109375 -3568.90869140625 0.274658203125 0.274658203125" >
<metadata>
 <rdf:RDF xmlns:rdf="http://www.w3.org/1999/02/22-rdf-syntax-ns#" xmlns:crs="http://opengis.org/xmldtds/transformations.dtd" xmlns:svg="http://www.w3.org/svg" >
  <rdf:Description>
   <crs:CoordinateReferenceSystem rdf:resource="http://purl.org/crs/84" svg:transform="matrix(100.0,0.0,0.0,-100.0,0.0,0.0)" />
  </rdf:Description>
 </rdf:RDF>
</metadata>
<globalCoordinateSystem srsName="http://purl.org/crs/84" transform="matrix(100.0,0.0,0.0,-100.0,0.0,0.0)" />
<defs>
 <g id="p0" >
  <circle cx="0.0" cy="0.0" r="3" stroke="green" stroke-width="0.75" vector-effect="non-scaling-stroke" />
 </g>
</defs>
<g fill="none" fill-rule="evenodd" stroke="#FF00FF" stroke-width="0.75" opacity="0.5" vector-effect="non-scaling-stroke" stroke-linejoin="bevel" >
<path content="1,おんたけ交通（株）,木曽福島・新宿線,2.0,2.0,2.0," xlink:title="1" d="M13969.1683,-3568.634L13969.1599,-3568.6665L13969.1563,-3568.684L13969.1522,-3568.6956L13969.1448,-3568.7165L13969.1217,-3568.8193L13969.1198,-3568.8314L13969.1162,-3568.8538"/>
<path content="1,ロウズ観光（株）,岡山・倉敷～東京,1.0,1.0,1.0," xlink:title="1" d="M13969.1676,-3568.634L13969.1395,-3568.7567L13969.1162,-3568.8634"/>
<path content="1,三交伊勢志摩交通（株）,鳥羽・伊勢～東京・大宮,2.0,2.0,2.0," xlink:title="1" d="M13969.1162,-3568.8538L13969.1198,-3568.8314L13969.1217,-3568.8193L13969.1448,-3568.7165L13969.1522,-3568.6956L13969.1563,-3568.684L13969.1599,-3568.6665L13969.1683,-3568.634"/>
<path content="1,三重交通（株）,鳥羽・伊勢～東京・大宮,2.0,2.0,2.0," xlink:title="1" d="M13969.1162,-3568.8538L13969.1198,-3568.8314L13969.1217,-3568.8193L13969.1448,-3568.7165L13969.1522,-3568.6956L13969.1563,-3568.684L13969.1599,-3568.6665L13969.1683,-3568.634"/>
<path content="1,下津井電鉄（株）,岡山～東京線,1.0,1.0,1.0," xlink:title="1" d="M13969.1676,-3568.634L13969.1395,-3568.7567L13969.1162,-3568.8634"/>
<path content="1,両備ホールディングス（株）,マスカット　倉敷～新宿線,1.0,1.0,1.0," xlink:title="1" d="M13969.1676,-3568.634L13969.1395,-3568.7567L13969.1162,-3568.8634"/>
<path content="1,中国JRバス（株）,津和野・益田・浜田・三次～東京　いわみエクスプレス,1.0,1.0,1.0," xlink:title="1" d="M13969.1676,-3568.634L13969.1395,-3568.7567L13969.1162,-3568.8634"/>
<path content="1,京王バス,C・H01,51.0,10.0,10.0," xlink:title="1" d="M13969.318,-3568.9087L13969.3263,-3568.8917L13969.2837,-3568.8844L13969.2581,-3568.8799L13969.2217,-3568.8892L13969.1173,-3568.8561L13969.1162,-3568.8559"/>
<path content="1,京王バス,S01,87.0,70.0,70.0," xlink:title="1" d="M13969.3909,-3568.7383L13969.3746,-3568.741L13969.3245,-3568.7242L13969.3163,-3568.722L13969.2965,-3568.7196L13969.2649,-3568.7143L13969.1903,-3568.702L13969.1645,-3568.6976L13969.1605,-3568.6969L13969.1523,-3568.6953L13969.1162,-3568.6896"/>
<path content="1,京王バス,宿41,44.0,45.0,67.0," xlink:title="1" d="M13969.1162,-3568.8559L13969.1173,-3568.8561L13969.2217,-3568.8892L13969.2581,-3568.8799L13969.2837,-3568.8844L13969.3263,-3568.8917L13969.3438,-3568.8948L13969.362,-3568.9027L13969.3909,-3568.9031"/>
<path content="1,京王バス,宿45,124.0,101.0,77.5," xlink:title="1" d="M13969.1162,-3568.8559L13969.1173,-3568.8561L13969.2217,-3568.8892L13969.2581,-3568.8799L13969.2837,-3568.8844L13969.3263,-3568.8917L13969.3438,-3568.8948L13969.362,-3568.9027L13969.3909,-3568.9031"/>
<path content="1,京王バス南（株）,新宿・渋谷～仙台・石巻線,1.0,1.0,1.0," xlink:title="1" d="M13969.1675,-3568.634L13969.1608,-3568.6629L13969.1605,-3568.6641L13969.1599,-3568.6669L13969.1599,-3568.6669L13969.1598,-3568.6669L13969.1564,-3568.6841L13969.1543,-3568.6898L13969.1528,-3568.6939L13969.1524,-3568.6952L13969.1524,-3568.6952L13969.1524,-3568.6952L13969.1524,-3568.6952L13969.1605,-3568.6969L13969.1645,-3568.6976L13969.1903,-3568.702L13969.2649,-3568.7143L13969.2965,-3568.7196L13969.3163,-3568.722L13969.3245,-3568.7242L13969.3746,-3568.741L13969.3909,-3568.7383"/>
<path content="1,京王バス南（株）,新宿～伊那・飯田線,9.0,9.0,9.0," xlink:title="1" d="M13969.3909,-3568.7383L13969.3746,-3568.741L13969.3245,-3568.7242L13969.3163,-3568.722L13969.2965,-3568.7196L13969.2649,-3568.7143L13969.1903,-3568.702L13969.1645,-3568.6976L13969.1605,-3568.6969L13969.1524,-3568.6952L13969.1524,-3568.6952L13969.1524,-3568.6952L13969.1524,-3568.6952L13969.1528,-3568.6939L13969.1543,-3568.6898L13969.1564,-3568.6841L13969.1598,-3568.6669L13969.1599,-3568.6669L13969.1599,-3568.6669L13969.1605,-3568.6641L13969.1608,-3568.6629L13969.1675,-3568.634"/>
<path content="1,京王バス南（株）,新宿～名古屋線,2.0,2.0,2.0," xlink:title="1" d="M13969.1675,-3568.634L13969.1608,-3568.6629L13969.1605,-3568.6641L13969.1599,-3568.6669L13969.1599,-3568.6669L13969.1598,-3568.6669L13969.1564,-3568.6841L13969.1543,-3568.6898L13969.1528,-3568.6939L13969.1524,-3568.6952L13969.1524,-3568.6952L13969.1524,-3568.6952L13969.1524,-3568.6952L13969.1605,-3568.6969L13969.1645,-3568.6976L13969.1903,-3568.702L13969.2649,-3568.7143L13969.2965,-3568.7196L13969.3163,-3568.722L13969.3245,-3568.7242L13969.3746,-3568.741L13969.3909,-3568.7383"/>
<path content="1,京王バス南（株）,新宿～木曽福島線,1.0,1.0,1.0," xlink:title="1" d="M13969.1675,-3568.634L13969.1608,-3568.6629L13969.1605,-3568.6641L13969.1599,-3568.6669L13969.1599,-3568.6669L13969.1598,-3568.6669L13969.1564,-3568.6841L13969.1543,-3568.6898L13969.1528,-3568.6939L13969.1524,-3568.6952L13969.1524,-3568.6952L13969.1524,-3568.6952L13969.1524,-3568.6952L13969.1605,-3568.6969L13969.1645,-3568.6976L13969.1903,-3568.702L13969.2649,-3568.7143L13969.2965,-3568.7196L13969.3163,-3568.722L13969.3245,-3568.7242L13969.3746,-3568.741L13969.3909,-3568.7383"/>
<path content="1,京王バス南（株）,新宿～松本線,11.0,11.0,11.0," xlink:title="1" d="M13969.3909,-3568.7383L13969.3746,-3568.741L13969.3245,-3568.7242L13969.3163,-3568.722L13969.2965,-3568.7196L13969.2649,-3568.7143L13969.1903,-3568.702L13969.1645,-3568.6976L13969.1605,-3568.6969L13969.1524,-3568.6952L13969.1524,-3568.6952L13969.1524,-3568.6952L13969.1524,-3568.6952L13969.1528,-3568.6939L13969.1543,-3568.6898L13969.1564,-3568.6841L13969.1598,-3568.6669L13969.1599,-3568.6669L13969.1599,-3568.6669L13969.1605,-3568.6641L13969.1608,-3568.6629L13969.1675,-3568.634"/>
<path content="1,京王バス南（株）,新宿～白馬線,2.0,2.0,2.0," xlink:title="1" d="M13969.3909,-3568.7383L13969.3746,-3568.741L13969.3245,-3568.7242L13969.3163,-3568.722L13969.2965,-3568.7196L13969.2649,-3568.7143L13969.1903,-3568.702L13969.1645,-3568.6976L13969.1605,-3568.6969L13969.1524,-3568.6952L13969.1524,-3568.6952L13969.1524,-3568.6952L13969.1524,-3568.6952L13969.1528,-3568.6939L13969.1543,-3568.6898L13969.1564,-3568.6841L13969.1598,-3568.6669L13969.1599,-3568.6669L13969.1599,-3568.6669L13969.1605,-3568.6641L13969.1608,-3568.6629L13969.1675,-3568.634"/>
<path content="1,京王バス南（株）,新宿～長野線,7.0,7.0,7.0," xlink:title="1" d="M13969.3909,-3568.7383L13969.3746,-3568.741L13969.3245,-3568.7242L13969.3163,-3568.722L13969.2965,-3568.7196L13969.2649,-3568.7143L13969.1903,-3568.702L13969.1645,-3568.6976L13969.1605,-3568.6969L13969.1524,-3568.6952L13969.1524,-3568.6952L13969.1524,-3568.6952L13969.1524,-3568.6952L13969.1528,-3568.6939L13969.1543,-3568.6898L13969.1564,-3568.6841L13969.1598,-3568.6669L13969.1599,-3568.6669L13969.1599,-3568.6669L13969.1605,-3568.6641L13969.1608,-3568.6629L13969.1675,-3568.634"/>
<path content="1,京王バス南（株）,新宿～飛騨高山線,3.0,3.0,3.0," xlink:title="1" d="M13969.3909,-3568.7383L13969.3746,-3568.741L13969.3245,-3568.7242L13969.3163,-3568.722L13969.2965,-3568.7196L13969.2649,-3568.7143L13969.1903,-3568.702L13969.1645,-3568.6976L13969.1605,-3568.6969L13969.1524,-3568.6952L13969.1524,-3568.6952L13969.1524,-3568.6952L13969.1524,-3568.6952L13969.1528,-3568.6939L13969.1543,-3568.6898L13969.1564,-3568.6841L13969.1598,-3568.6669L13969.1599,-3568.6669L13969.1599,-3568.6669L13969.1605,-3568.6641L13969.1608,-3568.6629L13969.1675,-3568.634"/>
<path content="1,伊予鉄道（株）,オレンジライナーえひめ　八幡浜・松山⇔東京,1.0,1.0,1.0," xlink:title="1" d="M13969.1683,-3568.634L13969.1599,-3568.6665L13969.1563,-3568.684L13969.1522,-3568.6956L13969.1448,-3568.7165L13969.1217,-3568.8193L13969.1198,-3568.8314L13969.1162,-3568.8538"/>
<path content="1,伊那バス（株）,伊那線,16.0,16.0,16.0," xlink:title="1" d="M13969.1683,-3568.634L13969.1599,-3568.6665L13969.1563,-3568.684L13969.1522,-3568.6956L13969.1448,-3568.7165L13969.1217,-3568.8193L13969.1198,-3568.8314L13969.1162,-3568.8538"/>
<path content="1,伊那バス（株）,飯田線,2.0,2.0,2.0," xlink:title="1" d="M13969.1683,-3568.634L13969.1599,-3568.6665L13969.1563,-3568.684L13969.1522,-3568.6956L13969.1448,-3568.7165L13969.1217,-3568.8193L13969.1198,-3568.8314L13969.1162,-3568.8538"/>
<path content="1,信南交通（株）,新宿線_01_on,5.5,5.5,5.5," xlink:title="1" d="M13969.1683,-3568.634L13969.1599,-3568.6665L13969.1563,-3568.684L13969.1522,-3568.6956L13969.1448,-3568.7165L13969.1217,-3568.8193L13969.1198,-3568.8314L13969.1162,-3568.8538"/>
<path content="1,信南交通（株）,新宿線_02_on,5.5,5.5,5.5," xlink:title="1" d="M13969.1683,-3568.634L13969.1599,-3568.6665L13969.1563,-3568.684L13969.1522,-3568.6956L13969.1448,-3568.7165L13969.1217,-3568.8193L13969.1198,-3568.8314L13969.1162,-3568.8538"/>
<path content="1,名鉄バス（株）,名古屋～新宿,4.0,4.0,4.0," xlink:title="1" d="M13969.1683,-3568.634L13969.1599,-3568.6665L13969.1563,-3568.684L13969.1522,-3568.6956L13969.1448,-3568.7165L13969.1217,-3568.8193L13969.1198,-3568.8314L13969.1162,-3568.8538"/>
<path content="1,四国高速バス（株）,ハローブリッジ号　善通寺・坂出⇔横浜・新宿・八王子,1.0,1.0,1.0," xlink:title="1" d="M13969.1683,-3568.634L13969.1599,-3568.6665L13969.1563,-3568.684L13969.1522,-3568.6956L13969.1448,-3568.7165L13969.1217,-3568.8193L13969.1198,-3568.8314L13969.1162,-3568.8538"/>
<path content="1,奈良交通（株）,やまと号　五條-新宿線,1.0,1.0,1.0," xlink:title="1" d="M13969.1683,-3568.634L13969.1599,-3568.6665L13969.1563,-3568.684L13969.1522,-3568.6956L13969.1448,-3568.7165L13969.1217,-3568.8193L13969.1198,-3568.8314L13969.1162,-3568.8538M13969.3909,-3568.9086L13969.3909,-3568.9087"/>
<path content="1,奈良交通（株）,やまと号　奈良-新宿線,1.0,1.0,1.0," xlink:title="1" d="M13969.1683,-3568.634L13969.1599,-3568.6665L13969.1563,-3568.684L13969.1522,-3568.6956L13969.1448,-3568.7165L13969.1217,-3568.8193L13969.1198,-3568.8314L13969.1162,-3568.8538M13969.3909,-3568.9086L13969.3909,-3568.9087"/>
<path content="1,小田急シティバス（株）,しまんとエクスプレス号,0.1,0.1,0.1," xlink:title="1" d="M13969.1675,-3568.634L13969.1608,-3568.6629L13969.1605,-3568.6641L13969.1599,-3568.6669L13969.1599,-3568.6669L13969.1598,-3568.6669L13969.1564,-3568.6841L13969.1543,-3568.6898L13969.1528,-3568.6939L13969.1524,-3568.6952L13969.1524,-3568.6952L13969.1524,-3568.6952L13969.1524,-3568.6952L13969.1524,-3568.6952L13969.1523,-3568.6953L13969.1523,-3568.6953L13969.1523,-3568.6953L13969.1523,-3568.6953L13969.1523,-3568.6954L13969.1448,-3568.7165L13969.1217,-3568.8193L13969.1198,-3568.8314L13969.1162,-3568.8541"/>
<path content="1,小田急シティバス（株）,アクアライン高速バス,9.5,9.5,9.5," xlink:title="1" d="M13969.1675,-3568.634L13969.1608,-3568.6629L13969.1605,-3568.6641L13969.1599,-3568.6669L13969.1599,-3568.6669L13969.1598,-3568.6669L13969.1564,-3568.6841L13969.1543,-3568.6898L13969.1528,-3568.6939L13969.1524,-3568.6952L13969.1524,-3568.6952L13969.1524,-3568.6952L13969.1524,-3568.6952L13969.1524,-3568.6952L13969.1523,-3568.6953L13969.1523,-3568.6953L13969.1523,-3568.6953L13969.1523,-3568.6953L13969.1523,-3568.6954L13969.1448,-3568.7165L13969.1217,-3568.8193L13969.1198,-3568.8314L13969.1162,-3568.8541"/>
<path content="1,小田急シティバス（株）,エトワールセト号,1.0,1.0,1.0," xlink:title="1" d="M13969.1162,-3568.8541L13969.1198,-3568.8314L13969.1217,-3568.8193L13969.1448,-3568.7165L13969.1523,-3568.6954L13969.1523,-3568.6953L13969.1523,-3568.6953L13969.1523,-3568.6953L13969.1523,-3568.6953L13969.1524,-3568.6952L13969.1524,-3568.6952L13969.1524,-3568.6952L13969.1524,-3568.6952L13969.1524,-3568.6952L13969.1528,-3568.6939L13969.1543,-3568.6898L13969.1564,-3568.6841L13969.1598,-3568.6669L13969.1599,-3568.6669L13969.1599,-3568.6669L13969.1605,-3568.6641L13969.1608,-3568.6629L13969.1675,-3568.634"/>
<path content="1,小田急シティバス（株）,パピヨン号,1.0,1.0,1.0," xlink:title="1" d="M13969.1675,-3568.634L13969.1608,-3568.6629L13969.1605,-3568.6641L13969.1599,-3568.6669L13969.1599,-3568.6669L13969.1598,-3568.6669L13969.1564,-3568.6841L13969.1543,-3568.6898L13969.1528,-3568.6939L13969.1524,-3568.6952L13969.1524,-3568.6952L13969.1524,-3568.6952L13969.1524,-3568.6952L13969.1524,-3568.6952L13969.1523,-3568.6953L13969.1523,-3568.6953L13969.1523,-3568.6953L13969.1523,-3568.6953L13969.1523,-3568.6954L13969.1448,-3568.7165L13969.1217,-3568.8193L13969.1198,-3568.8314L13969.1162,-3568.8541"/>
<path content="1,小田急シティバス（株）,ブルーメッツ号,1.0,1.0,1.0," xlink:title="1" d="M13969.1675,-3568.634L13969.1608,-3568.6629L13969.1605,-3568.6641L13969.1599,-3568.6669L13969.1599,-3568.6669L13969.1598,-3568.6669L13969.1564,-3568.6841L13969.1543,-3568.6898L13969.1528,-3568.6939L13969.1524,-3568.6952L13969.1524,-3568.6952L13969.1524,-3568.6952L13969.1524,-3568.6952L13969.1524,-3568.6952L13969.1523,-3568.6953L13969.1523,-3568.6953L13969.1523,-3568.6953L13969.1523,-3568.6953L13969.1523,-3568.6954L13969.1448,-3568.7165L13969.1217,-3568.8193L13969.1198,-3568.8314L13969.1162,-3568.8541"/>
<path content="1,小田急シティバス（株）,ルミナス号,1.0,1.0,1.0," xlink:title="1" d="M13969.1675,-3568.634L13969.1608,-3568.6629L13969.1605,-3568.6641L13969.1599,-3568.6669L13969.1599,-3568.6669L13969.1598,-3568.6669L13969.1564,-3568.6841L13969.1543,-3568.6898L13969.1528,-3568.6939L13969.1524,-3568.6952L13969.1524,-3568.6952L13969.1524,-3568.6952L13969.1524,-3568.6952L13969.1524,-3568.6952L13969.1523,-3568.6953L13969.1523,-3568.6953L13969.1523,-3568.6953L13969.1523,-3568.6953L13969.1523,-3568.6954L13969.1448,-3568.7165L13969.1217,-3568.8193L13969.1198,-3568.8314L13969.1162,-3568.8541"/>
<path content="1,小田急バス（株）,しまんとエクスプレス号,1.0,1.0,1.0," xlink:title="1" d="M13969.1675,-3568.634L13969.1608,-3568.6629L13969.1605,-3568.6641L13969.1599,-3568.6669L13969.1599,-3568.6669L13969.1598,-3568.6669L13969.1564,-3568.6841L13969.1543,-3568.6898L13969.1528,-3568.6939L13969.1524,-3568.6952L13969.1524,-3568.6952L13969.1524,-3568.6952L13969.1524,-3568.6952L13969.1524,-3568.6952L13969.1523,-3568.6953L13969.1523,-3568.6953L13969.1523,-3568.6953L13969.1523,-3568.6953L13969.1523,-3568.6954L13969.1448,-3568.7165L13969.1217,-3568.8193L13969.1198,-3568.8314L13969.1162,-3568.8541"/>
<path content="1,小田急バス（株）,アクアライン,9.5,9.5,9.5," xlink:title="1" d="M13969.1675,-3568.634L13969.1608,-3568.6629L13969.1605,-3568.6641L13969.1599,-3568.6669L13969.1599,-3568.6669L13969.1598,-3568.6669L13969.1564,-3568.6841L13969.1543,-3568.6898L13969.1528,-3568.6939L13969.1524,-3568.6952L13969.1524,-3568.6952L13969.1524,-3568.6952L13969.1524,-3568.6952L13969.1524,-3568.6952L13969.1523,-3568.6953L13969.1523,-3568.6953L13969.1523,-3568.6953L13969.1523,-3568.6953L13969.1523,-3568.6954L13969.1448,-3568.7165L13969.1217,-3568.8193L13969.1198,-3568.8314L13969.1162,-3568.8541"/>
<path content="1,小田急バス（株）,エトワールセト号,1.0,1.0,1.0," xlink:title="1" d="M13969.1675,-3568.634L13969.1608,-3568.6629L13969.1605,-3568.6641L13969.1599,-3568.6669L13969.1599,-3568.6669L13969.1598,-3568.6669L13969.1564,-3568.6841L13969.1543,-3568.6898L13969.1528,-3568.6939L13969.1524,-3568.6952L13969.1524,-3568.6952L13969.1524,-3568.6952L13969.1524,-3568.6952L13969.1524,-3568.6952L13969.1523,-3568.6953L13969.1523,-3568.6953L13969.1523,-3568.6953L13969.1523,-3568.6953L13969.1523,-3568.6954L13969.1448,-3568.7165L13969.1217,-3568.8193L13969.1198,-3568.8314L13969.1162,-3568.8541"/>
<path content="1,小田急バス（株）,パピヨン号,1.0,1.0,1.0," xlink:title="1" d="M13969.1162,-3568.8541L13969.1198,-3568.8314L13969.1217,-3568.8193L13969.1448,-3568.7165L13969.1523,-3568.6954L13969.1523,-3568.6953L13969.1523,-3568.6953L13969.1523,-3568.6953L13969.1523,-3568.6953L13969.1524,-3568.6952L13969.1524,-3568.6952L13969.1524,-3568.6952L13969.1524,-3568.6952L13969.1524,-3568.6952L13969.1528,-3568.6939L13969.1543,-3568.6898L13969.1564,-3568.6841L13969.1598,-3568.6669L13969.1599,-3568.6669L13969.1599,-3568.6669L13969.1605,-3568.6641L13969.1608,-3568.6629L13969.1675,-3568.634"/>
<path content="1,小田急バス（株）,ブルーメッツ号,1.0,1.0,1.0," xlink:title="1" d="M13969.1675,-3568.634L13969.1608,-3568.6629L13969.1605,-3568.6641L13969.1599,-3568.6669L13969.1599,-3568.6669L13969.1598,-3568.6669L13969.1564,-3568.6841L13969.1543,-3568.6898L13969.1528,-3568.6939L13969.1524,-3568.6952L13969.1524,-3568.6952L13969.1524,-3568.6952L13969.1524,-3568.6952L13969.1524,-3568.6952L13969.1523,-3568.6953L13969.1523,-3568.6953L13969.1523,-3568.6953L13969.1523,-3568.6953L13969.1523,-3568.6954L13969.1448,-3568.7165L13969.1217,-3568.8193L13969.1198,-3568.8314L13969.1162,-3568.8541"/>
<path content="1,小田急バス（株）,ルミナス号,1.0,1.0,1.0," xlink:title="1" d="M13969.1675,-3568.634L13969.1608,-3568.6629L13969.1605,-3568.6641L13969.1599,-3568.6669L13969.1599,-3568.6669L13969.1598,-3568.6669L13969.1564,-3568.6841L13969.1543,-3568.6898L13969.1528,-3568.6939L13969.1524,-3568.6952L13969.1524,-3568.6952L13969.1524,-3568.6952L13969.1524,-3568.6952L13969.1524,-3568.6952L13969.1523,-3568.6953L13969.1523,-3568.6953L13969.1523,-3568.6953L13969.1523,-3568.6953L13969.1523,-3568.6954L13969.1448,-3568.7165L13969.1217,-3568.8193L13969.1198,-3568.8314L13969.1162,-3568.8541"/>
<path content="1,小田急箱根高速バス,ふじやま号,0.2,1.1,1.0," xlink:title="1" d="M13969.1675,-3568.634L13969.1608,-3568.6629L13969.1605,-3568.6641L13969.1599,-3568.6669L13969.1599,-3568.6669L13969.1598,-3568.6669L13969.1564,-3568.6841L13969.1543,-3568.6898L13969.1528,-3568.6939L13969.1524,-3568.6952L13969.1524,-3568.6952L13969.1524,-3568.6952L13969.1524,-3568.6952L13969.1524,-3568.6952L13969.1523,-3568.6953L13969.1523,-3568.6953L13969.1523,-3568.6953L13969.1523,-3568.6953L13969.1523,-3568.6954L13969.1448,-3568.7165L13969.1217,-3568.8193L13969.1198,-3568.8314L13969.1162,-3568.8541"/>
<path content="1,川中島バス（株）,特急白馬～新宿線,2.0,2.0,2.0," xlink:title="1" d="M13969.1683,-3568.634L13969.1599,-3568.6665L13969.1563,-3568.684L13969.1522,-3568.6956L13969.1448,-3568.7165L13969.1217,-3568.8193L13969.1198,-3568.8314L13969.1162,-3568.8538"/>
<path content="1,川中島バス（株）,特急長野新宿線,8.5,8.5,8.5," xlink:title="1" d="M13969.1162,-3568.8538L13969.1198,-3568.8314L13969.1217,-3568.8193L13969.1448,-3568.7165L13969.1522,-3568.6956L13969.1563,-3568.684L13969.1599,-3568.6665L13969.1683,-3568.634"/>
<path content="1,東京空港交通（株）,新宿エリア～成田空港線,49.0,49.0,49.0," xlink:title="1" d="M13969.1675,-3568.634L13969.1608,-3568.6629L13969.1605,-3568.6641L13969.1599,-3568.6665L13969.1598,-3568.6669L13969.1598,-3568.6672L13969.1564,-3568.6841L13969.1543,-3568.6898L13969.1528,-3568.6939L13969.1524,-3568.6952L13969.1524,-3568.6952L13969.1523,-3568.6953L13969.1523,-3568.6953L13969.1523,-3568.6953L13969.1523,-3568.6953L13969.1523,-3568.6954L13969.1522,-3568.6956L13969.1162,-3568.6896"/>
<path content="1,東京空港交通（株）,新宿エリア～成田空港線,49.0,49.0,49.0," xlink:title="1" d="M13969.2511,-3568.9087L13969.2581,-3568.8799L13969.2706,-3568.8076L13969.2895,-3568.7494L13969.2965,-3568.7196L13969.3163,-3568.722L13969.3245,-3568.7242L13969.3746,-3568.741L13969.3909,-3568.7383"/>
<path content="1,東京空港交通（株）,新宿エリア～羽田空港線,54.5,54.5,54.5," xlink:title="1" d="M13969.2965,-3568.7196L13969.2649,-3568.7143L13969.1903,-3568.702L13969.1645,-3568.6976L13969.1605,-3568.6969L13969.1524,-3568.6952L13969.1162,-3568.6896"/>
<path content="1,東京空港交通（株）,新宿エリア～羽田空港線,54.5,54.5,54.5," xlink:title="1" d="M13969.2965,-3568.7196L13969.3163,-3568.722L13969.3245,-3568.7242L13969.3746,-3568.741L13969.3909,-3568.7383"/>
<path content="1,東京空港交通（株）,新宿エリア～羽田空港線,54.5,54.5,54.5," xlink:title="1" d="M13969.2511,-3568.9087L13969.2581,-3568.8799L13969.2706,-3568.8076L13969.2895,-3568.7494L13969.2965,-3568.7196"/>
<path content="1,松本電気鉄道（株）,特急松本新宿線,11.0,11.0,11.0," xlink:title="1" d="M13969.1683,-3568.634L13969.1599,-3568.6665L13969.1563,-3568.684L13969.1522,-3568.6956L13969.1448,-3568.7165L13969.1217,-3568.8193L13969.1198,-3568.8314L13969.1162,-3568.8538"/>
<path content="1,松本電気鉄道（株）,特急白馬新宿線,4.0,4.0,4.0," xlink:title="1" d="M13969.1683,-3568.634L13969.1599,-3568.6665L13969.1563,-3568.684L13969.1522,-3568.6956L13969.1448,-3568.7165L13969.1217,-3568.8193L13969.1198,-3568.8314L13969.1162,-3568.8538"/>
<path content="1,濃飛乗合自動車（株）,新宿線,2.0,2.0,2.0," xlink:title="1" d="M13969.1683,-3568.634L13969.1599,-3568.6665L13969.1563,-3568.684L13969.1522,-3568.6956L13969.1448,-3568.7165L13969.1217,-3568.8193L13969.1198,-3568.8314L13969.1162,-3568.8538"/>
<path content="1,琴平バス（株）,愛媛・高知シャトル,2.0,2.0,2.0," xlink:title="1" d="M13969.1683,-3568.634L13969.1599,-3568.6665L13969.1563,-3568.684L13969.1522,-3568.6956L13969.1448,-3568.7165L13969.1217,-3568.8193L13969.1198,-3568.8314L13969.1162,-3568.8538"/>
<path content="1,石見交通（株）,いわみEX　東京線,1.0,1.0,1.0," xlink:title="1" d="M13969.1676,-3568.634L13969.1395,-3568.7567L13969.1162,-3568.8634"/>
<path content="1,諏訪バス（株）,岡谷・諏訪・茅野～新宿線_01_on,17.0,17.0,17.0," xlink:title="1" d="M13969.1683,-3568.634L13969.1599,-3568.6665L13969.1563,-3568.684L13969.1522,-3568.6956L13969.1448,-3568.7165L13969.1217,-3568.8193L13969.1198,-3568.8314L13969.1162,-3568.8538"/>
<path content="1,諏訪バス（株）,岡谷・諏訪・茅野～新宿線_02_on,17.0,17.0,17.0," xlink:title="1" d="M13969.1683,-3568.634L13969.1599,-3568.6665L13969.1563,-3568.684L13969.1522,-3568.6956L13969.1448,-3568.7165L13969.1217,-3568.8193L13969.1198,-3568.8314L13969.1162,-3568.8538"/>
<path content="1,諏訪バス（株）,岡谷・諏訪・茅野～新宿線_03_on,17.0,17.0,17.0," xlink:title="1" d="M13969.1683,-3568.634L13969.1599,-3568.6665L13969.1563,-3568.684L13969.1522,-3568.6956L13969.1448,-3568.7165L13969.1217,-3568.8193L13969.1198,-3568.8314L13969.1162,-3568.8538"/>
<path content="1,諏訪バス（株）,飯田～新宿線,12.0,12.0,12.0," xlink:title="1" d="M13969.1683,-3568.634L13969.1599,-3568.6665L13969.1563,-3568.684L13969.1522,-3568.6956L13969.1448,-3568.7165L13969.1217,-3568.8193L13969.1198,-3568.8314L13969.1162,-3568.8538"/>
<path content="1,諏訪バス（株）,駒ヶ根・伊那～新宿線,11.0,11.0,11.0," xlink:title="1" d="M13969.1683,-3568.634L13969.1599,-3568.6665L13969.1563,-3568.684L13969.1522,-3568.6956L13969.1448,-3568.7165L13969.1217,-3568.8193L13969.1198,-3568.8314L13969.1162,-3568.8538"/>
<path content="1,阪急バス（株）,新宿・渋谷行,1.0,1.0,1.0," xlink:title="1" d="M13969.1683,-3568.634L13969.1599,-3568.6665L13969.1563,-3568.684L13969.1522,-3568.6956L13969.1448,-3568.7165L13969.1217,-3568.8193L13969.1198,-3568.8314L13969.1162,-3568.8538"/>
<path content="1,（株）中国バス,夜行便　東京線,1.0,1.0,1.0," xlink:title="1" d="M13969.1162,-3568.8596L13969.169,-3568.634"/>
<path content="2,都営バス,C・H01,60.0,10.0,10.0," xlink:title="2" d="M13969.1162,-3568.8559L13969.1173,-3568.8561L13969.2217,-3568.8892L13969.2581,-3568.8799L13969.2837,-3568.8844L13969.3263,-3568.8917L13969.318,-3568.9087"/>
<path content="2,都営バス,宿74,55.0,49.0,42.0," xlink:title="2" d="M13969.1162,-3568.8559L13969.1173,-3568.8561L13969.2217,-3568.8892L13969.2581,-3568.8799L13969.2837,-3568.8844L13969.3263,-3568.8917L13969.3438,-3568.8948L13969.362,-3568.9027L13969.3909,-3568.9031"/>
<path content="3,新宿区,001,54.0,80.0,80.0," xlink:title="3" d="M13969.2511,-3568.9087L13969.2581,-3568.8799L13969.2706,-3568.8076L13969.2895,-3568.7494L13969.2965,-3568.7196L13969.3163,-3568.722L13969.3245,-3568.7242L13969.3746,-3568.741L13969.3909,-3568.7383"/>
</g>
</svg>
