<?xml version="1.0" encoding="UTF-8"?>
<svg  xmlns="http://www.w3.org/2000/svg" xmlns:xlink="http://www.w3.org/1999/xlink" xmlns:go="http://purl.org/svgmap/profile" property="N07_001,N07_002,N07_003,N07_004,N07_005,N07_006,N07_007" viewBox="13959.228515625 -3570.556640625 2.197265625 2.197265625" go:dataArea="13959.228515625 -3570.556640625 2.197265625 2.197265625" >
<metadata>
 <rdf:RDF xmlns:rdf="http://www.w3.org/1999/02/22-rdf-syntax-ns#" xmlns:crs="http://opengis.org/xmldtds/transformations.dtd" xmlns:svg="http://www.w3.org/svg" >
  <rdf:Description>
   <crs:CoordinateReferenceSystem rdf:resource="http://purl.org/crs/84" svg:transform="matrix(100.0,0.0,0.0,-100.0,0.0,0.0)" />
  </rdf:Description>
 </rdf:RDF>
</metadata>
<globalCoordinateSystem srsName="http://purl.org/crs/84" transform="matrix(100.0,0.0,0.0,-100.0,0.0,0.0)" />
<defs>
 <g id="p0" >
  <circle cx="0.0" cy="0.0" r="3" stroke="green" stroke-width="0.75" vector-effect="non-scaling-stroke" />
 </g>
</defs>
<g fill="none" fill-rule="evenodd" stroke="#FF00FF" stroke-width="0.75" opacity="0.5" vector-effect="non-scaling-stroke" stroke-linejoin="bevel" >
<path content="1,京成バス（株）,成田空港～吉祥寺駅,4.0,4.0,4.0," xlink:title="1" d="M13959.2285,-3569.7466L13959.24,-3569.7422L13959.2483,-3569.7388L13959.2683,-3569.7326L13959.2869,-3569.7248L13959.3055,-3569.7188L13959.318,-3569.714L13959.356,-3569.6999L13959.3981,-3569.6836L13959.4347,-3569.6718L13959.4526,-3569.6644L13959.4823,-3569.6543L13959.4948,-3569.6492L13959.5328,-3569.6357L13959.5687,-3569.6222L13959.6122,-3569.607L13959.6488,-3569.5934L13959.6619,-3569.5889L13959.6626,-3569.5878L13959.7033,-3569.5726L13959.7261,-3569.5641L13959.7482,-3569.5557L13959.7861,-3569.5422L13959.8213,-3569.5298L13959.8434,-3569.5219L13959.8897,-3569.5056L13959.9284,-3569.4909L13959.9433,-3569.4857L13959.9594,-3569.4791L13959.9767,-3569.4723L13959.9898,-3569.4684L13960.0238,-3569.4555L13960.0437,-3569.4487L13960.0754,-3569.4363L13960.0866,-3569.4279L13960.1535,-3569.4081L13960.1576,-3569.4059L13960.1831,-3569.3969L13960.1921,-3569.3929L13960.2839,-3569.3586L13960.3033,-3569.3512L13960.3192,-3569.345L13960.3309,-3569.3416L13960.3337,-3569.3399L13960.373,-3569.3264L13960.3917,-3569.3191L13960.4269,-3569.3078L13960.4345,-3569.305L13960.4531,-3569.2983L13960.469,-3569.2926L13960.4859,-3569.2841L13960.5125,-3569.2763L13960.5367,-3569.2679L13960.5937,-3569.2464L13960.6022,-3569.2442L13960.6471,-3569.2273L13960.6794,-3569.2157L13960.6989,-3569.2081L13960.7631,-3569.1845L13960.7721,-3569.1805L13960.7912,-3569.1745L13960.7976,-3569.1721L13960.8204,-3569.1636L13960.8439,-3569.1558L13960.8674,-3569.1462L13960.8876,-3569.1392L13960.9095,-3569.1315L13960.9214,-3569.1237L13960.9302,-3569.1248L13961.0062,-3569.0972L13961.0207,-3569.0921L13961.0372,-3569.0859L13961.049,-3569.0825L13961.0648,-3569.0763L13961.1021,-3569.0628L13961.1111,-3569.0589L13961.1705,-3569.038L13961.1912,-3569.0301L13961.2085,-3569.0234L13961.2195,-3569.0194L13961.3166,-3568.9729L13961.3702,-3568.9617L13961.4022,-3568.9505L13961.4258,-3568.9423"/>
<path content="1,京浜急行バス（株）,吉祥寺駅～羽田空港線,6.0,6.0,6.0," xlink:title="1" d="M13960.7142,-3568.3594L13960.7354,-3568.3846L13960.7543,-3568.4064L13960.7564,-3568.4093L13960.7811,-3568.4431L13960.7942,-3568.4713L13960.808,-3568.5045L13960.81,-3568.5102L13960.8109,-3568.5161L13960.817,-3568.5783L13960.8232,-3568.6256L13960.8232,-3568.629L13960.8308,-3568.6814L13960.8377,-3568.7388L13960.8411,-3568.7557L13960.8464,-3568.8021L13960.8591,-3568.8831L13960.8626,-3568.8893L13960.8653,-3568.8943L13960.8701,-3568.9169L13960.8805,-3568.9586L13960.8827,-3568.97L13960.8856,-3568.9808L13960.888,-3568.9925L13960.8971,-3569.0279L13960.8998,-3569.0413L13960.9054,-3569.0637L13960.9074,-3569.0729L13960.9214,-3569.1237L13960.9095,-3569.1315L13960.8876,-3569.1392L13960.8674,-3569.1462L13960.8439,-3569.1558L13960.8204,-3569.1636L13960.7976,-3569.1721L13960.7912,-3569.1745L13960.7721,-3569.1805L13960.7631,-3569.1845L13960.6989,-3569.2081L13960.6794,-3569.2157L13960.6471,-3569.2273L13960.6022,-3569.2442L13960.5937,-3569.2464L13960.5367,-3569.2679L13960.5125,-3569.2763L13960.4859,-3569.2841L13960.469,-3569.2926L13960.4531,-3569.2983L13960.4345,-3569.305L13960.4269,-3569.3078L13960.3917,-3569.3191L13960.373,-3569.3264L13960.3337,-3569.3399L13960.3309,-3569.3416L13960.3192,-3569.345L13960.3033,-3569.3512L13960.2839,-3569.3586L13960.1921,-3569.3929L13960.1831,-3569.3969L13960.1576,-3569.4059L13960.1535,-3569.4081L13960.0866,-3569.4279L13960.0754,-3569.4363L13960.0437,-3569.4487L13960.0238,-3569.4555L13959.9898,-3569.4684L13959.9767,-3569.4723L13959.9594,-3569.4791L13959.9433,-3569.4857L13959.9284,-3569.4909L13959.8897,-3569.5056L13959.8434,-3569.5219L13959.8213,-3569.5298L13959.7861,-3569.5422L13959.7482,-3569.5557L13959.7261,-3569.5641L13959.7033,-3569.5726L13959.6626,-3569.5878L13959.6619,-3569.5889L13959.6488,-3569.5934L13959.6122,-3569.607L13959.5687,-3569.6222L13959.5328,-3569.6357L13959.4948,-3569.6492L13959.4823,-3569.6543L13959.4526,-3569.6644L13959.4347,-3569.6718L13959.3981,-3569.6836L13959.356,-3569.6999L13959.318,-3569.714L13959.3055,-3569.7188L13959.2869,-3569.7248L13959.2683,-3569.7326L13959.2483,-3569.7388L13959.24,-3569.7422L13959.2285,-3569.7466"/>
<path content="1,京王バス,鷹64,167.0,102.0,91.0," xlink:title="1" d="M13961.4258,-3568.6711L13961.3749,-3568.6797L13961.3544,-3568.6824L13961.3486,-3568.6837L13961.2782,-3568.7L13961.2271,-3568.7129L13961.1905,-3568.7219L13961.1567,-3568.7315L13961.1208,-3568.74L13961.0932,-3568.7473L13961.0587,-3568.7561L13961.035,-3568.762L13961.0145,-3568.7664L13960.982,-3568.7738L13960.9668,-3568.7783L13960.953,-3568.7805L13960.866,-3568.7991L13960.8464,-3568.8021L13960.8354,-3568.8026L13960.8199,-3568.8034L13960.8031,-3568.8047L13960.7859,-3568.8065L13960.7535,-3568.8076L13960.6478,-3568.8127L13960.5733,-3568.8132L13960.4773,-3568.8109L13960.4692,-3568.8104L13960.4201,-3568.8074L13960.3827,-3568.8033L13960.2622,-3568.7902L13960.2514,-3568.789L13960.2143,-3568.7833L13960.0603,-3568.7636L13960.0481,-3568.7581L13959.9919,-3568.7534L13959.9492,-3568.7452L13959.8932,-3568.736L13959.8877,-3568.736L13959.8607,-3568.7321L13959.8442,-3568.7298L13959.8083,-3568.7247L13959.7606,-3568.7197L13959.7013,-3568.7123L13959.6529,-3568.705L13959.5777,-3568.6921L13959.5453,-3568.6892L13959.5369,-3568.6836L13959.5121,-3568.6774L13959.4658,-3568.6672L13959.4361,-3568.6599L13959.3878,-3568.6481L13959.3802,-3568.647L13959.3712,-3568.6436L13959.3602,-3568.6402L13959.3049,-3568.6273L13959.2815,-3568.6205L13959.2285,-3568.607"/>
<path content="1,京王バス南（株）,渋谷～吉祥寺駅北口線,0.5,0.0,0.0," xlink:title="1" d="M13961.4258,-3568.6711L13961.3749,-3568.6797L13961.3544,-3568.6824L13961.3486,-3568.6837L13961.2782,-3568.7L13961.2271,-3568.7129L13961.1905,-3568.7219L13961.1567,-3568.7315L13961.1208,-3568.74L13961.0932,-3568.7473L13961.0587,-3568.7561L13961.035,-3568.762L13961.0145,-3568.7664L13960.982,-3568.7738L13960.9668,-3568.7783L13960.953,-3568.7805L13960.866,-3568.7991L13960.8464,-3568.8021L13960.8591,-3568.8831L13960.8626,-3568.8893L13960.8342,-3568.8864L13960.8177,-3568.8859L13960.7569,-3568.8803L13960.7369,-3568.8808L13960.6955,-3568.8864L13960.6761,-3568.8898L13960.6492,-3568.8949L13960.6389,-3568.8977L13960.6313,-3568.8988L13960.5961,-3568.9079L13960.5728,-3568.9163L13960.5449,-3568.9276L13960.5339,-3568.9315L13960.5063,-3568.9417L13960.4773,-3568.9529L13960.4373,-3568.9709L13960.3924,-3568.9935L13960.3491,-3569.0174L13960.2909,-3569.056L13960.2778,-3569.0661L13960.2667,-3569.0729L13960.2605,-3569.0786L13960.2218,-3569.105L13960.2123,-3569.1078L13960.1908,-3569.1242L13960.1203,-3569.1642L13960.11,-3569.1693L13960.0911,-3569.1764L13960.0572,-3569.1861L13960.0408,-3569.1897L13960.0195,-3569.1935L13960.0007,-3569.1964L13959.9961,-3569.1972L13959.9746,-3569.2014L13959.9316,-3569.2087L13959.9056,-3569.2137L13959.8835,-3569.2171L13959.8704,-3569.2188L13959.8642,-3569.2194L13959.8518,-3569.2233L13959.8379,-3569.2267L13959.8127,-3569.2333L13959.8,-3569.2374L13959.791,-3569.2391L13959.7806,-3569.2385L13959.7734,-3569.2385L13959.7668,-3569.2397L13959.7539,-3569.2435L13959.7338,-3569.2486L13959.7233,-3569.2515L13959.7033,-3569.2571L13959.6612,-3569.2684L13959.6391,-3569.274L13959.6232,-3569.2774L13959.6074,-3569.2815L13959.597,-3569.287L13959.5873,-3569.2864L13959.5176,-3569.3056L13959.4962,-3569.3117L13959.4768,-3569.3157L13959.4575,-3569.3174L13959.443,-3569.3196L13959.4361,-3569.3213L13959.3954,-3569.3354L13959.3553,-3569.3489L13959.3249,-3569.3591L13959.2718,-3569.3828L13959.2608,-3569.3856L13959.2373,-3569.3926L13959.2285,-3569.3961"/>
<path content="1,小田急バス（株）,吉祥寺駅～成田空港線,3.5,3.5,3.5," xlink:title="1" d="M13961.4258,-3568.9423L13961.4022,-3568.9505L13961.3702,-3568.9617L13961.3166,-3568.9729L13961.2195,-3569.0194L13961.2085,-3569.0234L13961.1912,-3569.0301L13961.1705,-3569.038L13961.1111,-3569.0589L13961.1021,-3569.0628L13961.0648,-3569.0763L13961.049,-3569.0825L13961.0372,-3569.0859L13961.0207,-3569.0921L13961.0062,-3569.0972L13960.9302,-3569.1248L13960.9214,-3569.1237L13960.9095,-3569.1315L13960.8876,-3569.1392L13960.8674,-3569.1462L13960.8439,-3569.1558L13960.8204,-3569.1636L13960.7976,-3569.1721L13960.7912,-3569.1745L13960.7721,-3569.1805L13960.7631,-3569.1845L13960.6989,-3569.2081L13960.6794,-3569.2157L13960.6471,-3569.2273L13960.6022,-3569.2442L13960.5937,-3569.2464L13960.5367,-3569.2679L13960.5125,-3569.2763L13960.4859,-3569.2841L13960.469,-3569.2926L13960.4531,-3569.2983L13960.4345,-3569.305L13960.4269,-3569.3078L13960.3917,-3569.3191L13960.373,-3569.3264L13960.3337,-3569.3399L13960.3309,-3569.3416L13960.3192,-3569.345L13960.3033,-3569.3512L13960.2839,-3569.3586L13960.1921,-3569.3929L13960.1831,-3569.3969L13960.1576,-3569.4059L13960.1535,-3569.4081L13960.0866,-3569.4279L13960.0754,-3569.4363L13960.0437,-3569.4487L13960.0238,-3569.4555L13959.9898,-3569.4684L13959.9767,-3569.4723L13959.9594,-3569.4791L13959.9433,-3569.4857L13959.9284,-3569.4909L13959.8897,-3569.5056L13959.8434,-3569.5219L13959.8213,-3569.5298L13959.7861,-3569.5422L13959.7482,-3569.5557L13959.7261,-3569.5641L13959.7033,-3569.5726L13959.6626,-3569.5878L13959.6619,-3569.5889L13959.6488,-3569.5934L13959.6122,-3569.607L13959.5687,-3569.6222L13959.5328,-3569.6357L13959.4948,-3569.6492L13959.4823,-3569.6543L13959.4526,-3569.6644L13959.4347,-3569.6718L13959.3981,-3569.6836L13959.356,-3569.6999L13959.318,-3569.714L13959.3055,-3569.7188L13959.2869,-3569.7248L13959.2683,-3569.7326L13959.2483,-3569.7388L13959.24,-3569.7422L13959.2285,-3569.7466"/>
<path content="1,小田急バス（株）,吉祥寺駅～羽田空港線,3.0,3.0,3.0," xlink:title="1" d="M13960.7142,-3568.3594L13960.7354,-3568.3846L13960.7543,-3568.4064L13960.7564,-3568.4093L13960.7811,-3568.4431L13960.7942,-3568.4713L13960.808,-3568.5045L13960.81,-3568.5102L13960.8109,-3568.5161L13960.817,-3568.5783L13960.8232,-3568.6256L13960.8232,-3568.629L13960.8308,-3568.6814L13960.8377,-3568.7388L13960.8411,-3568.7557L13960.8464,-3568.8021L13960.8591,-3568.8831L13960.8626,-3568.8893L13960.8653,-3568.8943L13960.8701,-3568.9169L13960.8805,-3568.9586L13960.8827,-3568.97L13960.8856,-3568.9808L13960.888,-3568.9925L13960.8971,-3569.0279L13960.8998,-3569.0413L13960.9054,-3569.0637L13960.9074,-3569.0729L13960.9214,-3569.1237L13960.9095,-3569.1315L13960.8876,-3569.1392L13960.8674,-3569.1462L13960.8439,-3569.1558L13960.8204,-3569.1636L13960.7976,-3569.1721L13960.7912,-3569.1745L13960.7721,-3569.1805L13960.7631,-3569.1845L13960.6989,-3569.2081L13960.6794,-3569.2157L13960.6471,-3569.2273L13960.6022,-3569.2442L13960.5937,-3569.2464L13960.5367,-3569.2679L13960.5125,-3569.2763L13960.4859,-3569.2841L13960.469,-3569.2926L13960.4531,-3569.2983L13960.4345,-3569.305L13960.4269,-3569.3078L13960.3917,-3569.3191L13960.373,-3569.3264L13960.3337,-3569.3399L13960.3309,-3569.3416L13960.3192,-3569.345L13960.3033,-3569.3512L13960.2839,-3569.3586L13960.1921,-3569.3929L13960.1831,-3569.3969L13960.1576,-3569.4059L13960.1535,-3569.4081L13960.0866,-3569.4279L13960.0754,-3569.4363L13960.0437,-3569.4487L13960.0238,-3569.4555L13959.9898,-3569.4684L13959.9767,-3569.4723L13959.9594,-3569.4791L13959.9433,-3569.4857L13959.9284,-3569.4909L13959.8897,-3569.5056L13959.8434,-3569.5219L13959.8213,-3569.5298L13959.7861,-3569.5422L13959.7482,-3569.5557L13959.7261,-3569.5641L13959.7033,-3569.5726L13959.6626,-3569.5878L13959.6619,-3569.5889L13959.6488,-3569.5934L13959.6122,-3569.607L13959.5687,-3569.6222L13959.5328,-3569.6357L13959.4948,-3569.6492L13959.4823,-3569.6543L13959.4526,-3569.6644L13959.4347,-3569.6718L13959.3981,-3569.6836L13959.356,-3569.6999L13959.318,-3569.714L13959.3055,-3569.7188L13959.2869,-3569.7248L13959.2683,-3569.7326L13959.2483,-3569.7388L13959.24,-3569.7422L13959.2285,-3569.7466"/>
<path content="1,小田急バス（株）,宿44,9.0,9.0,9.0," xlink:title="1" d="M13961.4258,-3568.9423L13961.4022,-3568.9505L13961.3702,-3568.9617L13961.3166,-3568.9729L13961.2195,-3569.0194L13961.2085,-3569.0234L13961.1912,-3569.0301L13961.1705,-3569.038L13961.1111,-3569.0589L13961.1021,-3569.0628L13961.0648,-3569.0763L13961.049,-3569.0825L13961.0372,-3569.0859L13961.0207,-3569.0921L13961.0062,-3569.0972L13960.9302,-3569.1248L13960.9214,-3569.1237L13960.9095,-3569.1315L13960.8876,-3569.1392L13960.8674,-3569.1462L13960.8439,-3569.1558L13960.8204,-3569.1636L13960.7976,-3569.1721L13960.7912,-3569.1745L13960.7721,-3569.1805L13960.7631,-3569.1845L13960.6989,-3569.2081L13960.6794,-3569.2157L13960.6471,-3569.2273L13960.6022,-3569.2442L13960.5937,-3569.2464L13960.5367,-3569.2679L13960.5125,-3569.2763L13960.4859,-3569.2841L13960.469,-3569.2926L13960.4531,-3569.2983L13960.4345,-3569.305L13960.4269,-3569.3078L13960.3917,-3569.3191L13960.373,-3569.3264L13960.3337,-3569.3399L13960.3309,-3569.3416L13960.3192,-3569.345L13960.3033,-3569.3512L13960.2839,-3569.3586L13960.1921,-3569.3929L13960.1831,-3569.3969L13960.1576,-3569.4059L13960.1535,-3569.4081L13960.0866,-3569.4279L13960.0754,-3569.4363L13960.0437,-3569.4487L13960.0238,-3569.4555L13959.9898,-3569.4684L13959.9767,-3569.4723L13959.9594,-3569.4791L13959.9433,-3569.4857L13959.9284,-3569.4909L13959.8897,-3569.5056L13959.8434,-3569.5219L13959.8213,-3569.5298L13959.7861,-3569.5422L13959.7482,-3569.5557L13959.7261,-3569.5641L13959.7033,-3569.5726L13959.6626,-3569.5878L13959.6619,-3569.5889L13959.6488,-3569.5934L13959.6122,-3569.607L13959.5687,-3569.6222L13959.5328,-3569.6357L13959.4948,-3569.6492L13959.4823,-3569.6543L13959.4526,-3569.6644L13959.4347,-3569.6718L13959.3981,-3569.6836L13959.356,-3569.6999L13959.318,-3569.714L13959.3055,-3569.7188L13959.2869,-3569.7248L13959.2683,-3569.7326L13959.2483,-3569.7388L13959.24,-3569.7422L13959.2285,-3569.7466"/>
<path content="1,東京空港交通（株）,吉祥寺駅～成田空港線,2.0,2.0,2.0," xlink:title="1" d="M13960.2885,-3568.3594L13960.2723,-3568.367L13960.2598,-3568.3721L13960.2439,-3568.3794L13960.2329,-3568.3833L13960.2025,-3568.3969L13960.1887,-3568.4036L13960.1632,-3568.4138L13960.0955,-3568.4431L13960.0396,-3568.4639L13959.9761,-3568.4785L13959.9754,-3568.4633L13959.9616,-3568.4667L13959.9291,-3568.4768L13959.9215,-3568.4814L13959.9015,-3568.4904L13959.8752,-3568.505L13959.8152,-3568.407L13959.8124,-3568.4036L13959.8097,-3568.3951L13959.8083,-3568.3872L13959.8062,-3568.3771L13959.8072,-3568.3594"/>
<path content="1,東京空港交通（株）,吉祥寺駅～羽田空港線,2.5,2.5,2.5," xlink:title="1" d="M13960.7142,-3568.3594L13960.7354,-3568.3846L13960.7543,-3568.4064L13960.7564,-3568.4093L13960.7811,-3568.4431L13960.7942,-3568.4713L13960.808,-3568.5045L13960.81,-3568.5102L13960.8109,-3568.5161L13960.817,-3568.5783L13960.8232,-3568.6256L13960.8232,-3568.629L13960.8308,-3568.6814L13960.8377,-3568.7388L13960.8411,-3568.7557L13960.8464,-3568.8021L13960.8591,-3568.8831L13960.8626,-3568.8893L13960.8653,-3568.8943L13960.8701,-3568.9169L13960.8805,-3568.9586L13960.8827,-3568.97L13960.8856,-3568.9808L13960.888,-3568.9925L13960.8971,-3569.0279L13960.8998,-3569.0413L13960.9054,-3569.0637L13960.9074,-3569.0729L13960.9214,-3569.1237L13960.9095,-3569.1315L13960.8876,-3569.1392L13960.8674,-3569.1462L13960.8439,-3569.1558L13960.8204,-3569.1636L13960.7976,-3569.1721L13960.7912,-3569.1745L13960.7721,-3569.1805L13960.7631,-3569.1845L13960.6989,-3569.2081L13960.6794,-3569.2157L13960.6471,-3569.2273L13960.6022,-3569.2442L13960.5937,-3569.2464L13960.5367,-3569.2679L13960.5125,-3569.2763L13960.4859,-3569.2841L13960.469,-3569.2926L13960.4531,-3569.2983L13960.4345,-3569.305L13960.4269,-3569.3078L13960.3917,-3569.3191L13960.373,-3569.3264L13960.3337,-3569.3399L13960.3309,-3569.3416L13960.3192,-3569.345L13960.3033,-3569.3512L13960.2839,-3569.3586L13960.1921,-3569.3929L13960.1831,-3569.3969L13960.1576,-3569.4059L13960.1535,-3569.4081L13960.0866,-3569.4279L13960.0754,-3569.4363L13960.0437,-3569.4487L13960.0238,-3569.4555L13959.9898,-3569.4684L13959.9767,-3569.4723L13959.9594,-3569.4791L13959.9433,-3569.4857L13959.9284,-3569.4909L13959.8897,-3569.5056L13959.8434,-3569.5219L13959.8213,-3569.5298L13959.7861,-3569.5422L13959.7482,-3569.5557L13959.7261,-3569.5641L13959.7033,-3569.5726L13959.6626,-3569.5878L13959.6619,-3569.5889L13959.6488,-3569.5934L13959.6122,-3569.607L13959.5687,-3569.6222L13959.5328,-3569.6357L13959.4948,-3569.6492L13959.4823,-3569.6543L13959.4526,-3569.6644L13959.4347,-3569.6718L13959.3981,-3569.6836L13959.356,-3569.6999L13959.318,-3569.714L13959.3055,-3569.7188L13959.2869,-3569.7248L13959.2683,-3569.7326L13959.2483,-3569.7388L13959.24,-3569.7422L13959.2285,-3569.7466"/>
<path content="1,西武バス（株）,西03,27.0,25.0,25.0," xlink:title="1" d="M13960.0924,-3570.5566L13960.0871,-3570.5428L13960.0775,-3570.5225L13960.074,-3570.509L13960.063,-3570.4566L13960.0616,-3570.4476L13960.0579,-3570.4319L13960.05,-3570.4108L13960.004,-3570.4101L13959.9404,-3570.4104L13959.8655,-3570.4385L13959.8089,-3570.4605L13959.8027,-3570.4622L13959.7965,-3570.4656L13959.7405,-3570.5107L13959.7336,-3570.5152L13959.6853,-3570.5546L13959.6821,-3570.5566"/>
<path content="1,関東バス（株）,中36,47.0,49.0,49.0," xlink:title="1" d="M13959.2285,-3570.1058L13959.2779,-3570.0796L13959.2827,-3570.0772L13959.294,-3570.0701L13959.3063,-3570.0656L13959.3415,-3570.0487L13959.3498,-3570.0436L13959.3698,-3570.034L13959.3774,-3570.0295L13959.4168,-3570.0109L13959.4368,-3570.0013L13959.4444,-3569.9968L13959.5004,-3569.9719L13959.5113,-3569.9647L13959.5238,-3569.9591L13959.5548,-3569.9456L13959.5769,-3569.9354L13959.5838,-3569.9326L13959.6176,-3569.9146L13959.6398,-3569.9028L13959.6584,-3569.8909L13959.695,-3569.8684L13959.7212,-3569.8521L13959.7606,-3569.8278L13959.8006,-3569.8036L13959.8406,-3569.7793L13959.912,-3569.7398L13959.9218,-3569.7341L13959.9719,-3569.7046L13959.9828,-3569.6981L13960.024,-3569.6761L13960.0423,-3569.6672L13960.0506,-3569.6616L13960.0649,-3569.6545L13960.0768,-3569.6481L13960.1101,-3569.6282L13960.1504,-3569.6096L13960.1604,-3569.6043L13960.2439,-3569.5614L13960.2453,-3569.5608L13960.2757,-3569.5456L13960.3054,-3569.5309L13960.3497,-3569.5092L13960.356,-3569.5061L13960.3943,-3569.4857L13960.4027,-3569.4842L13960.411,-3569.4791L13960.4296,-3569.4713L13960.4552,-3569.4601L13960.4828,-3569.4476L13960.4902,-3569.446L13960.5007,-3569.4403L13960.5147,-3569.4339L13960.5684,-3569.4092L13960.5808,-3569.404L13960.5847,-3569.4023L13960.6009,-3569.3958L13960.6497,-3569.3746L13960.6571,-3569.3716L13960.7024,-3569.3524L13960.71,-3569.3506L13960.7528,-3569.3293L13960.7769,-3569.318L13960.7942,-3569.309L13960.8191,-3569.2966L13960.8336,-3569.2898L13960.8957,-3569.2605L13960.9252,-3569.2442L13960.9397,-3569.2381L13960.9458,-3569.2356L13960.9737,-3569.2228L13961.0345,-3569.1935L13961.0662,-3569.1811L13961.089,-3569.1726L13961.1139,-3569.1625L13961.1947,-3569.1299L13961.2426,-3569.1103L13961.2658,-3569.1011L13961.295,-3569.0886L13961.3444,-3569.0691L13961.3673,-3569.06L13961.3763,-3569.0566L13961.4059,-3569.0487L13961.4258,-3569.0435"/>
<path content="1,関東バス（株）,吉祥寺・成田空港,12.0,12.0,12.0," xlink:title="1" d="M13959.2285,-3570.1058L13959.2779,-3570.0796L13959.2827,-3570.0772L13959.294,-3570.0701L13959.3063,-3570.0656L13959.3415,-3570.0487L13959.3498,-3570.0436L13959.3698,-3570.034L13959.3774,-3570.0295L13959.4168,-3570.0109L13959.4368,-3570.0013L13959.4444,-3569.9968L13959.5004,-3569.9719L13959.5113,-3569.9647L13959.5238,-3569.9591L13959.5548,-3569.9456L13959.5769,-3569.9354L13959.5838,-3569.9326L13959.6176,-3569.9146L13959.6398,-3569.9028L13959.6584,-3569.8909L13959.695,-3569.8684L13959.7212,-3569.8521L13959.7606,-3569.8278L13959.8006,-3569.8036L13959.8406,-3569.7793L13959.912,-3569.7398L13959.9218,-3569.7341L13959.9719,-3569.7046L13959.9828,-3569.6981L13960.024,-3569.6761L13960.0423,-3569.6672L13960.0506,-3569.6616L13960.0649,-3569.6545L13960.0768,-3569.6481L13960.1101,-3569.6282L13960.1504,-3569.6096L13960.1604,-3569.6043L13960.2439,-3569.5614L13960.2453,-3569.5608L13960.2757,-3569.5456L13960.3054,-3569.5309L13960.3497,-3569.5092L13960.356,-3569.5061L13960.3943,-3569.4857L13960.4027,-3569.4842L13960.411,-3569.4791L13960.4296,-3569.4713L13960.4552,-3569.4601L13960.4828,-3569.4476L13960.4902,-3569.446L13960.5007,-3569.4403L13960.5147,-3569.4339L13960.5684,-3569.4092L13960.5808,-3569.404L13960.5847,-3569.4023L13960.6009,-3569.3958L13960.6497,-3569.3746L13960.6571,-3569.3716L13960.7024,-3569.3524L13960.71,-3569.3506L13960.7528,-3569.3293L13960.7769,-3569.318L13960.7942,-3569.309L13960.8191,-3569.2966L13960.8336,-3569.2898L13960.8957,-3569.2605L13960.9252,-3569.2442L13960.9397,-3569.2381L13960.9458,-3569.2356L13960.9737,-3569.2228L13961.0345,-3569.1935L13961.0662,-3569.1811L13961.089,-3569.1726L13961.1139,-3569.1625L13961.1947,-3569.1299L13961.2426,-3569.1103L13961.2658,-3569.1011L13961.295,-3569.0886L13961.3444,-3569.0691L13961.3673,-3569.06L13961.3763,-3569.0566L13961.4059,-3569.0487L13961.4258,-3569.0435"/>
<path content="1,関東バス（株）,吉祥寺・羽田空港,19.0,19.0,19.0," xlink:title="1" d="M13960.7142,-3568.3594L13960.7354,-3568.3846L13960.7543,-3568.4064L13960.7564,-3568.4093L13960.7811,-3568.4431L13960.7942,-3568.4713L13960.808,-3568.5045L13960.81,-3568.5102L13960.8109,-3568.5161L13960.817,-3568.5783L13960.8232,-3568.6256L13960.8232,-3568.629L13960.8308,-3568.6814L13960.8377,-3568.7388L13960.8411,-3568.7557L13960.8464,-3568.8021L13960.8591,-3568.8831L13960.8626,-3568.8893L13960.8653,-3568.8943L13960.8701,-3568.9169L13960.8805,-3568.9586L13960.8827,-3568.97L13960.8856,-3568.9808L13960.888,-3568.9925L13960.8971,-3569.0279L13960.8998,-3569.0413L13960.9054,-3569.0637L13960.9074,-3569.0729L13960.9214,-3569.1237L13960.9095,-3569.1315L13960.8876,-3569.1392L13960.8674,-3569.1462L13960.8439,-3569.1558L13960.8204,-3569.1636L13960.7976,-3569.1721L13960.7912,-3569.1745L13960.7721,-3569.1805L13960.7631,-3569.1845L13960.6989,-3569.2081L13960.6794,-3569.2157L13960.6471,-3569.2273L13960.6022,-3569.2442L13960.5937,-3569.2464L13960.5367,-3569.2679L13960.5125,-3569.2763L13960.4859,-3569.2841L13960.469,-3569.2926L13960.4531,-3569.2983L13960.4345,-3569.305L13960.4269,-3569.3078L13960.3917,-3569.3191L13960.373,-3569.3264L13960.3337,-3569.3399L13960.3309,-3569.3416L13960.3192,-3569.345L13960.3033,-3569.3512L13960.2839,-3569.3586L13960.1921,-3569.3929L13960.1831,-3569.3969L13960.1576,-3569.4059L13960.1535,-3569.4081L13960.0866,-3569.4279L13960.0754,-3569.4363L13960.0437,-3569.4487L13960.0238,-3569.4555L13959.9898,-3569.4684L13959.9767,-3569.4723L13959.9594,-3569.4791L13959.9433,-3569.4857L13959.9284,-3569.4909L13959.8897,-3569.5056L13959.8434,-3569.5219L13959.8213,-3569.5298L13959.7861,-3569.5422L13959.7482,-3569.5557L13959.7261,-3569.5641L13959.7033,-3569.5726L13959.6626,-3569.5878L13959.6619,-3569.5889L13959.6488,-3569.5934L13959.6122,-3569.607L13959.5687,-3569.6222L13959.5328,-3569.6357L13959.4948,-3569.6492L13959.4823,-3569.6543L13959.4526,-3569.6644L13959.4347,-3569.6718L13959.3981,-3569.6836L13959.356,-3569.6999L13959.318,-3569.714L13959.3055,-3569.7188L13959.2869,-3569.7248L13959.2683,-3569.7326L13959.2483,-3569.7388L13959.24,-3569.7422L13959.2285,-3569.7466"/>
<path content="1,関東バス（株）,荻40,62.0,63.0,64.0," xlink:title="1" d="M13959.8406,-3569.7793L13959.7944,-3569.6611L13959.7606,-3569.5856L13959.7482,-3569.5557L13959.7387,-3569.5395L13959.724,-3569.5039L13959.6997,-3569.4473L13959.6973,-3569.4415L13959.675,-3569.3929L13959.6467,-3569.3309L13959.637,-3569.3072L13959.6232,-3569.2774L13959.6074,-3569.2815L13959.597,-3569.287L13959.5873,-3569.2864L13959.5176,-3569.3056L13959.4962,-3569.3117L13959.4768,-3569.3157L13959.4575,-3569.3174L13959.443,-3569.3196L13959.4361,-3569.3213L13959.3954,-3569.3354L13959.3553,-3569.3489L13959.3249,-3569.3591L13959.2718,-3569.3828L13959.2608,-3569.3856L13959.2373,-3569.3926L13959.2285,-3569.3961M13959.2285,-3569.9815L13959.2327,-3569.9946L13959.269,-3570.0706L13959.2779,-3570.0796L13959.2827,-3570.0772L13959.294,-3570.0701L13959.3063,-3570.0656L13959.3415,-3570.0487L13959.3498,-3570.0436L13959.3698,-3570.034L13959.3774,-3570.0295L13959.4168,-3570.0109L13959.4368,-3570.0013L13959.4444,-3569.9968L13959.5004,-3569.9719L13959.5113,-3569.9647L13959.5238,-3569.9591L13959.5548,-3569.9456L13959.5769,-3569.9354L13959.5838,-3569.9326L13959.6176,-3569.9146L13959.6398,-3569.9028L13959.6584,-3569.8909L13959.695,-3569.8684L13959.7212,-3569.8521L13959.7606,-3569.8278L13959.8006,-3569.8036"/>
<path content="1,関東バス（株）,荻40,62.0,63.0,64.0," xlink:title="1" d="M13959.8006,-3569.8036L13959.8406,-3569.7793"/>
<path content="1,関東バス（株）,荻40,62.0,63.0,64.0," xlink:title="1" d="M13959.8006,-3569.8036L13959.8097,-3569.8249L13959.8331,-3569.8746L13959.8579,-3569.9304L13959.8607,-3569.9337L13959.8635,-3569.9411L13959.8642,-3569.9444L13959.8904,-3570.0036L13959.9056,-3570.0352L13959.909,-3570.0431L13959.9208,-3570.0684L13959.9297,-3570.0893L13959.9332,-3570.0988L13959.9292,-3570.1001L13959.9325,-3570.1079L13959.9504,-3570.1489L13959.9539,-3570.158L13959.9649,-3570.1857L13959.9718,-3570.2002L13959.9746,-3570.2064L13960.0017,-3570.2699L13960.0064,-3570.2673"/>
<path content="1,関東バス（株）,荻40,62.0,63.0,64.0," xlink:title="1" d="M13960.0064,-3570.2673L13960.0513,-3570.2306L13960.0154,-3570.1495L13960.014,-3570.1484L13960.0112,-3570.1416L13959.9781,-3570.0777L13959.958,-3570.0244L13959.9567,-3570.0233L13959.9408,-3569.9895L13959.9332,-3569.9743L13959.9173,-3569.9377L13959.8959,-3569.8915L13959.8843,-3569.8676L13959.8805,-3569.8613L13959.8611,-3569.8173L13959.8406,-3569.7793"/>
<path content="1,関東バス（株）,荻40,62.0,63.0,64.0," xlink:title="1" d="M13960.0924,-3570.5566L13960.0871,-3570.5428L13960.0775,-3570.5225L13960.074,-3570.509L13960.063,-3570.4566L13960.0616,-3570.4476L13960.0579,-3570.4319L13960.05,-3570.4108L13960.0448,-3570.3581L13960.035,-3570.3541L13960.0299,-3570.3219L13960.0147,-3570.2842L13960.0064,-3570.2673"/>
<path content="1,関東バス（株）,荻60,177.0,135.0,45.0," xlink:title="1" d="M13961.0701,-3569.6402L13961.0776,-3569.637L13961.1049,-3569.6256L13961.1173,-3569.6194L13961.1687,-3569.598L13961.1408,-3569.5535L13961.1153,-3569.5135L13961.0931,-3569.4786L13961.069,-3569.4408L13961.0673,-3569.4376L13961.0645,-3569.4325L13961.0567,-3569.4218L13961.0262,-3569.3715L13960.9461,-3569.2493L13960.9397,-3569.2381L13960.9252,-3569.2442L13960.8957,-3569.2605L13960.8336,-3569.2898L13960.8191,-3569.2966L13960.7942,-3569.309L13960.7769,-3569.318L13960.7528,-3569.3293L13960.71,-3569.3506L13960.7024,-3569.3524L13960.6571,-3569.3716L13960.6497,-3569.3746L13960.6009,-3569.3958L13960.5847,-3569.4023L13960.5808,-3569.404L13960.5684,-3569.4092L13960.5147,-3569.4339L13960.5007,-3569.4403L13960.4902,-3569.446L13960.5368,-3569.5344L13960.5553,-3569.5828L13960.5587,-3569.5946L13960.5663,-3569.6104L13960.5857,-3569.6622L13960.6043,-3569.7096L13960.6478,-3569.8188L13960.6683,-3569.8095L13960.692,-3569.8014L13960.761,-3569.7738L13960.7894,-3569.7616L13960.8456,-3569.7414L13960.862,-3569.7335L13960.8756,-3569.727L13960.8853,-3569.7219L13960.9247,-3569.7045L13960.9392,-3569.6983L13960.9972,-3569.6724L13961.0303,-3569.6577L13961.0503,-3569.6487L13961.0701,-3569.6402"/>
<path content="1,関東バス（株）,荻60,177.0,135.0,45.0," xlink:title="1" d="M13961.4258,-3569.8068L13961.419,-3569.8065L13961.4075,-3569.8029L13961.3955,-3569.7997L13961.3603,-3569.7896L13961.3136,-3569.7764L13961.2319,-3569.7552L13961.216,-3569.7462L13961.1753,-3569.7169L13961.158,-3569.7034L13961.1256,-3569.6803L13961.1211,-3569.6765L13961.1166,-3569.6729L13961.0895,-3569.6544L13961.0773,-3569.6453L13961.0701,-3569.6402"/>
<path content="1,関東バス（株）,荻71,0.0,0.0,0.0," xlink:title="1" d="M13961.4258,-3570.1853L13961.3907,-3570.1913L13961.3686,-3570.1969L13961.3044,-3570.2064L13961.2315,-3570.2093L13961.1981,-3570.2217L13961.1711,-3570.2256L13961.0945,-3570.2363L13961.0582,-3570.2343L13961.013,-3570.2476L13960.9868,-3570.2521L13960.9751,-3570.256L13960.9205,-3570.2825L13960.9094,-3570.2887L13960.9014,-3570.2891L13960.8162,-3570.3433L13960.7976,-3570.3541L13960.7914,-3570.3563L13960.752,-3570.3569L13960.7362,-3570.3574L13960.7169,-3570.3558L13960.6844,-3570.3625L13960.6581,-3570.3625L13960.5414,-3570.3614L13960.503,-3570.3598L13960.4765,-3570.3614L13960.3668,-3570.3603L13960.3184,-3570.3606L13960.2957,-3570.3591L13960.2894,-3570.3597L13960.2819,-3570.3608L13960.2107,-3570.3619L13960.1969,-3570.3642L13960.1658,-3570.3648L13960.1375,-3570.3631L13960.1168,-3570.3608L13960.0906,-3570.3603L13960.083,-3570.3591L13960.0448,-3570.3581L13960.035,-3570.3541L13960.0299,-3570.3219L13960.0147,-3570.2842L13960.0064,-3570.2673L13960.0017,-3570.2699L13959.9746,-3570.2064L13959.9718,-3570.2002L13959.9649,-3570.1857L13959.9539,-3570.158L13959.9504,-3570.1489L13959.9325,-3570.1079L13959.9292,-3570.1001L13959.9332,-3570.0988L13959.9297,-3570.0893L13959.9208,-3570.0684L13959.909,-3570.0431L13959.9056,-3570.0352L13959.8904,-3570.0036L13959.8642,-3569.9444L13959.8635,-3569.9411L13959.8607,-3569.9337L13959.8579,-3569.9304L13959.8331,-3569.8746L13959.8097,-3569.8249L13959.8006,-3569.8036L13959.8406,-3569.7793L13959.912,-3569.7398L13959.9218,-3569.7341L13959.9719,-3569.7046L13959.9828,-3569.6981L13960.024,-3569.6761L13960.0423,-3569.6672L13960.0506,-3569.6616L13960.0649,-3569.6545L13960.0768,-3569.6481L13960.1101,-3569.6282L13960.1504,-3569.6096L13960.1604,-3569.6043L13960.2439,-3569.5614L13960.2453,-3569.5608L13960.2757,-3569.5456L13960.3054,-3569.5309L13960.3497,-3569.5092L13960.356,-3569.5061L13960.3943,-3569.4857L13960.4027,-3569.4842L13960.411,-3569.4791L13960.4296,-3569.4713L13960.4552,-3569.4601L13960.4828,-3569.4476L13960.4902,-3569.446L13960.5007,-3569.4403L13960.5147,-3569.4339L13960.5684,-3569.4092L13960.5808,-3569.404L13960.5847,-3569.4023L13960.6009,-3569.3958L13960.6497,-3569.3746L13960.6571,-3569.3716L13960.7024,-3569.3524L13960.71,-3569.3506L13960.7528,-3569.3293L13960.7769,-3569.318L13960.7942,-3569.309L13960.8191,-3569.2966L13960.8336,-3569.2898L13960.8957,-3569.2605L13960.9252,-3569.2442L13960.9397,-3569.2381L13960.9461,-3569.2493L13961.0262,-3569.3715L13961.0567,-3569.4218L13961.0645,-3569.4325L13961.0673,-3569.4376L13961.069,-3569.4408L13961.0931,-3569.4786L13961.1153,-3569.5135L13961.1408,-3569.5535L13961.1687,-3569.598L13961.1173,-3569.6194L13961.1049,-3569.6256L13961.0776,-3569.637L13961.0701,-3569.6402L13961.0773,-3569.6453L13961.0895,-3569.6544L13961.1166,-3569.6729L13961.1211,-3569.6765L13961.1256,-3569.6803L13961.158,-3569.7034L13961.1753,-3569.7169L13961.216,-3569.7462L13961.2319,-3569.7552L13961.3136,-3569.7764L13961.3603,-3569.7896L13961.3955,-3569.7997L13961.4075,-3569.8029L13961.419,-3569.8065L13961.4258,-3569.8068"/>
<path content="1,関東バス（株）,西01,25.0,24.0,16.0," xlink:title="1" d="M13959.6821,-3570.5566L13959.6853,-3570.5546L13959.7336,-3570.5152L13959.7405,-3570.5107L13959.7965,-3570.4656L13959.8027,-3570.4622L13959.8089,-3570.4605L13959.8655,-3570.4385L13959.9404,-3570.4104L13960.004,-3570.4101L13960.05,-3570.4108L13960.0579,-3570.4319L13960.0616,-3570.4476L13960.063,-3570.4566L13960.074,-3570.509L13960.0775,-3570.5225L13960.0871,-3570.5428L13960.0924,-3570.5566"/>
<path content="1,関東バス（株）,西02,109.0,106.0,82.0," xlink:title="1" d="M13959.6821,-3570.5566L13959.6853,-3570.5546L13959.7336,-3570.5152L13959.7405,-3570.5107L13959.7965,-3570.4656L13959.8027,-3570.4622L13959.8089,-3570.4605L13959.8655,-3570.4385L13959.9404,-3570.4104L13960.004,-3570.4101L13960.05,-3570.4108L13960.0579,-3570.4319L13960.0616,-3570.4476L13960.063,-3570.4566L13960.074,-3570.509L13960.0775,-3570.5225L13960.0871,-3570.5428L13960.0924,-3570.5566"/>
<path content="1,関東バス（株）,西03,54.0,50.0,0.0," xlink:title="1" d="M13959.6821,-3570.5566L13959.6853,-3570.5546L13959.7336,-3570.5152L13959.7405,-3570.5107L13959.7965,-3570.4656L13959.8027,-3570.4622L13959.8089,-3570.4605L13959.8655,-3570.4385L13959.9404,-3570.4104L13960.004,-3570.4101L13960.05,-3570.4108L13960.0579,-3570.4319L13960.0616,-3570.4476L13960.063,-3570.4566L13960.074,-3570.509L13960.0775,-3570.5225L13960.0871,-3570.5428L13960.0924,-3570.5566"/>
<path content="1,関東バス（株）,西10,111.0,98.0,93.0," xlink:title="1" d="M13959.6821,-3570.5566L13959.6853,-3570.5546L13959.7336,-3570.5152L13959.7405,-3570.5107L13959.7965,-3570.4656L13959.8027,-3570.4622L13959.8089,-3570.4605L13959.8655,-3570.4385L13959.9404,-3570.4104L13960.004,-3570.4101L13960.05,-3570.4108L13960.0579,-3570.4319L13960.0616,-3570.4476L13960.063,-3570.4566L13960.074,-3570.509L13960.0775,-3570.5225L13960.0871,-3570.5428L13960.0924,-3570.5566"/>
<path content="1,関東バス（株）,西20,10.0,11.0,5.0," xlink:title="1" d="M13960.0064,-3570.2673L13960.0513,-3570.2306L13960.0154,-3570.1495L13960.014,-3570.1484L13960.0112,-3570.1416L13959.9781,-3570.0777L13959.958,-3570.0244L13959.9567,-3570.0233L13959.9408,-3569.9895L13959.9332,-3569.9743L13959.9173,-3569.9377L13959.8959,-3569.8915L13959.8843,-3569.8676L13959.8805,-3569.8613L13959.8611,-3569.8173L13959.8406,-3569.7793L13959.7944,-3569.6611L13959.7606,-3569.5856L13959.7482,-3569.5557L13959.7387,-3569.5395L13959.724,-3569.5039L13959.6997,-3569.4473L13959.6973,-3569.4415L13959.675,-3569.3929L13959.6467,-3569.3309L13959.637,-3569.3072L13959.6232,-3569.2774L13959.6074,-3569.2815L13959.597,-3569.287L13959.5873,-3569.2864L13959.5176,-3569.3056L13959.4962,-3569.3117L13959.4768,-3569.3157L13959.4575,-3569.3174L13959.443,-3569.3196L13959.4361,-3569.3213L13959.3954,-3569.3354L13959.3553,-3569.3489L13959.3249,-3569.3591L13959.2718,-3569.3828L13959.2608,-3569.3856L13959.2373,-3569.3926L13959.2285,-3569.3961M13959.2285,-3569.9815L13959.2327,-3569.9946L13959.269,-3570.0706L13959.2779,-3570.0796L13959.2827,-3570.0772L13959.294,-3570.0701L13959.3063,-3570.0656L13959.3415,-3570.0487L13959.3498,-3570.0436L13959.3698,-3570.034L13959.3774,-3570.0295L13959.4168,-3570.0109L13959.4368,-3570.0013L13959.4444,-3569.9968L13959.5004,-3569.9719L13959.5113,-3569.9647L13959.5238,-3569.9591L13959.5548,-3569.9456L13959.5769,-3569.9354L13959.5838,-3569.9326L13959.6176,-3569.9146L13959.6398,-3569.9028L13959.6584,-3569.8909L13959.695,-3569.8684L13959.7212,-3569.8521L13959.7606,-3569.8278L13959.8006,-3569.8036L13959.8097,-3569.8249L13959.8331,-3569.8746L13959.8579,-3569.9304L13959.8607,-3569.9337L13959.8635,-3569.9411L13959.8642,-3569.9444L13959.8904,-3570.0036L13959.9056,-3570.0352L13959.909,-3570.0431L13959.9208,-3570.0684L13959.9297,-3570.0893L13959.9332,-3570.0988L13959.9292,-3570.1001L13959.9325,-3570.1079L13959.9504,-3570.1489L13959.9539,-3570.158L13959.9649,-3570.1857L13959.9718,-3570.2002L13959.9746,-3570.2064L13960.0017,-3570.2699L13960.0064,-3570.2673"/>
<path content="1,関東バス（株）,西20,10.0,11.0,5.0," xlink:title="1" d="M13960.035,-3570.3541L13960.0299,-3570.3219L13960.0147,-3570.2842L13960.0064,-3570.2673"/>
<path content="1,関東バス（株）,西50,81.0,71.0,59.0," xlink:title="1" d="M13960.0924,-3570.5566L13960.0871,-3570.5428L13960.0775,-3570.5225L13960.074,-3570.509L13960.063,-3570.4566L13960.0616,-3570.4476L13960.0579,-3570.4319L13960.05,-3570.4108"/>
<path content="3,杉並区,かえで路線,35.0,35.0,35.0," xlink:title="3" d="M13959.9981,-3568.8352L13960.0044,-3568.8363L13960.0133,-3568.8352L13960.0271,-3568.8301L13960.0665,-3568.8099L13960.0865,-3568.8109L13960.0969,-3568.8104L13960.1196,-3568.8199L13960.1314,-3568.8194L13960.1411,-3568.8166L13960.1576,-3568.8087L13960.1749,-3568.8031L13960.2204,-3568.798L13960.2622,-3568.7902L13960.3827,-3568.8033L13960.4201,-3568.8074L13960.4692,-3568.8104L13960.4773,-3568.8109L13960.5733,-3568.8132L13960.6478,-3568.8127L13960.7535,-3568.8076L13960.7859,-3568.8065L13960.8031,-3568.8047L13960.8199,-3568.8034L13960.8354,-3568.8026L13960.8464,-3568.8021L13960.8591,-3568.8831L13960.8626,-3568.8893L13960.8342,-3568.8864L13960.8177,-3568.8859L13960.7569,-3568.8803L13960.7369,-3568.8808L13960.6955,-3568.8864L13960.6761,-3568.8898L13960.6492,-3568.8949L13960.6389,-3568.8977L13960.6313,-3568.8988L13960.5961,-3568.9079L13960.5728,-3568.9163L13960.5449,-3568.9276L13960.5339,-3568.9315L13960.5063,-3568.9417L13960.4773,-3568.9529L13960.4373,-3568.9709L13960.3924,-3568.9935L13960.3491,-3569.0174"/>
<path content="3,杉並区,かえで路線,35.0,35.0,35.0," xlink:title="3" d="M13959.9251,-3568.8437L13959.9443,-3568.838L13959.956,-3568.8363L13959.9822,-3568.834L13959.997,-3568.8311L13959.9981,-3568.8352"/>
<path content="3,杉並区,かえで路線,35.0,35.0,35.0," xlink:title="3" d="M13960.3491,-3569.0174L13960.2909,-3569.056L13960.2778,-3569.0661L13960.2667,-3569.0729L13960.2605,-3569.0786L13960.2218,-3569.105L13960.2123,-3569.1078L13960.1908,-3569.1242L13960.1203,-3569.1642L13960.11,-3569.1693L13960.1011,-3569.1445L13960.0891,-3569.1124L13960.0885,-3569.1067L13960.0775,-3569.0769L13960.035,-3568.9579L13960.0347,-3568.9506L13960.0244,-3568.9213L13960.0175,-3568.9022L13960.015,-3568.8954L13960.0133,-3568.8954L13960.0057,-3568.8628L13960.0038,-3568.8561L13960.0014,-3568.8457L13959.9981,-3568.8352"/>
<path content="3,杉並区,かえで路線,35.0,35.0,35.0," xlink:title="3" d="M13960.4444,-3569.9453L13960.4074,-3569.8612L13960.3965,-3569.8312L13960.3834,-3569.8008L13960.3771,-3569.789L13960.3378,-3569.6943L13960.3164,-3569.6447L13960.2991,-3569.6052L13960.2867,-3569.5687L13960.2757,-3569.5456L13960.3054,-3569.5309L13960.3497,-3569.5092L13960.356,-3569.5061L13960.3943,-3569.4857L13960.4027,-3569.4842L13960.411,-3569.4791L13960.4296,-3569.4713L13960.4552,-3569.4601L13960.4828,-3569.4476L13960.4902,-3569.446L13960.5007,-3569.4403L13960.5147,-3569.4339L13960.4835,-3569.3582L13960.4531,-3569.2983L13960.469,-3569.2926L13960.4561,-3569.2629L13960.4436,-3569.2309L13960.4395,-3569.2192L13960.4289,-3569.1957L13960.4201,-3569.1744L13960.4115,-3569.1554L13960.3571,-3569.0256L13960.3491,-3569.0174"/>
<path content="3,杉並区,かえで路線,35.0,35.0,35.0," xlink:title="3" d="M13960.4444,-3569.9453L13960.4186,-3569.9659L13960.3744,-3569.9969L13960.3647,-3570.0047L13960.3412,-3570.0205L13960.326,-3570.0329L13960.3198,-3570.0369L13960.3288,-3570.0521L13960.3362,-3570.0703L13960.3689,-3570.1298L13960.4089,-3570.2076L13960.4137,-3570.2155L13960.4179,-3570.2244L13960.4211,-3570.2319"/>
<path content="3,杉並区,かえで路線,35.0,35.0,35.0," xlink:title="3" d="M13960.4211,-3570.2319L13960.4262,-3570.2306L13960.438,-3570.2262L13960.452,-3570.2219L13960.4638,-3570.2167L13960.4739,-3570.2129L13960.4827,-3570.2093L13960.5235,-3570.1941L13960.5456,-3570.1862L13960.558,-3570.1811L13960.5746,-3570.1755L13960.6388,-3570.1546L13960.6423,-3570.1529L13960.6581,-3570.149L13960.6712,-3570.1445L13960.7217,-3570.1298L13960.7969,-3570.1141L13960.8425,-3570.1033L13960.8522,-3570.1016L13960.8453,-3570.0718L13960.837,-3570.0284L13960.8287,-3569.9867L13960.8266,-3569.9777L13960.82,-3569.9385L13960.8195,-3569.9358L13960.8133,-3569.9033L13960.8107,-3569.8819L13960.8031,-3569.8335L13960.8024,-3569.8284L13960.8011,-3569.8172L13960.7894,-3569.7616L13960.761,-3569.7738L13960.692,-3569.8014L13960.6683,-3569.8095L13960.6478,-3569.8188L13960.6174,-3569.8301L13960.6036,-3569.8357L13960.5857,-3569.847L13960.5608,-3569.8633L13960.5153,-3569.8966L13960.5083,-3569.9017L13960.4828,-3569.9208L13960.4564,-3569.9342L13960.4444,-3569.9453"/>
<path content="3,杉並区,かえで路線,35.0,35.0,35.0," xlink:title="3" d="M13960.2586,-3570.2722L13960.3267,-3570.2599L13960.335,-3570.2583L13960.3467,-3570.256L13960.364,-3570.2504L13960.3737,-3570.2464L13960.4089,-3570.2346L13960.4168,-3570.2328L13960.4211,-3570.2319"/>
<path content="3,杉並区,かえで路線,35.0,35.0,35.0," xlink:title="3" d="M13960.2586,-3570.2722L13960.268,-3570.2949L13960.2715,-3570.3067L13960.2805,-3570.3326L13960.2894,-3570.3597L13960.2908,-3570.3642L13960.2944,-3570.3757L13960.3066,-3570.3963L13960.3057,-3570.4173L13960.3143,-3570.4599L13960.3171,-3570.4825L13960.3322,-3570.5321L13960.3136,-3570.5354L13960.2542,-3570.5439L13960.2307,-3570.5495L13960.2208,-3570.5508L13960.2104,-3570.5566M13960.0924,-3570.5566L13960.0871,-3570.5428L13960.0775,-3570.5225L13960.074,-3570.509L13960.063,-3570.4566L13960.0616,-3570.4476L13960.0579,-3570.4319L13960.05,-3570.4108L13960.0448,-3570.3581L13960.035,-3570.3541L13960.0299,-3570.3219L13960.0568,-3570.3146L13960.0719,-3570.3101L13960.0989,-3570.3033L13960.1038,-3570.3023L13960.103,-3570.2988L13960.1334,-3570.2926L13960.1832,-3570.2876L13960.2052,-3570.2763L13960.2525,-3570.2649L13960.2586,-3570.2722"/>
<path content="3,武蔵野市,C1・C2,45.0,45.0,45.0," xlink:title="3" d="M13959.2285,-3569.9815L13959.2327,-3569.9946L13959.269,-3570.0706L13959.2779,-3570.0796L13959.2832,-3570.0853L13959.2883,-3570.0909L13959.3223,-3570.156L13959.3525,-3570.207L13959.3601,-3570.2211L13959.4064,-3570.3033L13959.4319,-3570.3473L13959.4398,-3570.3676L13959.4574,-3570.4132L13959.3863,-3570.4318L13959.358,-3570.4402L13959.3186,-3570.4509L13959.3035,-3570.4543L13959.2731,-3570.4622L13959.2563,-3570.4668L13959.2434,-3570.4695L13959.2358,-3570.4718L13959.2285,-3570.4737"/>
</g>
</svg>
