<?xml version="1.0" encoding="UTF-8"?>
<svg  xmlns="http://www.w3.org/2000/svg" xmlns:xlink="http://www.w3.org/1999/xlink" xmlns:go="http://purl.org/svgmap/profile" property="N07_001,N07_002,N07_003,N07_004,N07_005,N07_006,N07_007" viewBox="14093.26171875 -3845.21484375 4.39453125 4.39453125" go:dataArea="14093.26171875 -3845.21484375 4.39453125 4.39453125" >
<metadata>
 <rdf:RDF xmlns:rdf="http://www.w3.org/1999/02/22-rdf-syntax-ns#" xmlns:crs="http://opengis.org/xmldtds/transformations.dtd" xmlns:svg="http://www.w3.org/svg" >
  <rdf:Description>
   <crs:CoordinateReferenceSystem rdf:resource="http://purl.org/crs/84" svg:transform="matrix(100.0,0.0,0.0,-100.0,0.0,0.0)" />
  </rdf:Description>
 </rdf:RDF>
</metadata>
<globalCoordinateSystem srsName="http://purl.org/crs/84" transform="matrix(100.0,0.0,0.0,-100.0,0.0,0.0)" />
<defs>
 <g id="p0" >
  <circle cx="0.0" cy="0.0" r="3" stroke="green" stroke-width="0.75" vector-effect="non-scaling-stroke" />
 </g>
</defs>
<g fill="none" fill-rule="evenodd" stroke="#FF00FF" stroke-width="0.75" opacity="0.5" vector-effect="non-scaling-stroke" stroke-linejoin="bevel" >
<path content="1,東日本急行（株）,とよま総合支所～仙台線,6.0,6.0,6.0," xlink:title="1" d="M14093.2617,-3843.6936L14093.2694,-3843.6952L14093.3,-3843.6989L14093.3342,-3843.7022L14093.3646,-3843.7031L14093.3812,-3843.6998L14093.4449,-3843.6822L14093.5189,-3843.6619L14093.531,-3843.6624L14093.583,-3843.6586L14093.5981,-3843.658L14093.6252,-3843.6552L14093.6367,-3843.6524L14093.7026,-3843.6304L14093.7456,-3843.6169L14093.8036,-3843.5961L14093.8196,-3843.5885L14093.8294,-3843.5827L14093.8392,-3843.5747L14093.8989,-3843.5284L14093.9761,-3843.4688L14093.9983,-3843.454L14094.0143,-3843.4459L14094.0326,-3843.4428L14094.0553,-3843.4433L14094.0758,-3843.4451L14094.1007,-3843.4508L14094.1221,-3843.4586L14094.1462,-3843.4722L14094.1627,-3843.4847L14094.1787,-3843.5007L14094.2703,-3843.6152L14094.2861,-3843.6299L14094.2946,-3843.636L14094.3079,-3843.6431L14094.3276,-3843.6507L14094.3527,-3843.6592L14094.3762,-3843.6642L14094.4652,-3843.6813L14094.4876,-3843.6875L14094.5365,-3843.7042L14094.5546,-3843.7099L14094.5771,-3843.7146L14094.5901,-3843.7182L14094.6073,-3843.7151L14094.6247,-3843.7144L14094.6462,-3843.7121L14094.7813,-3843.7015L14094.8331,-3843.6975L14094.8507,-3843.6964L14094.8714,-3843.6972L14094.923,-3843.7042L14094.9305,-3843.7057L14094.9619,-3843.7088L14094.9709,-3843.7107L14095.0113,-3843.7138L14095.0772,-3843.7206L14095.1007,-3843.7216L14095.2712,-3843.729L14095.2869,-3843.7296L14095.3048,-3843.7301L14095.351,-3843.733L14095.3893,-3843.736L14095.4043,-3843.7386L14095.4148,-3843.7416L14095.4235,-3843.746L14095.4547,-3843.7656L14095.4734,-3843.782L14095.4906,-3843.7909L14095.5462,-3843.8271L14095.5783,-3843.8451L14095.605,-3843.8584L14095.6239,-3843.8671L14095.6814,-3843.8929L14095.7473,-3843.9228L14095.7717,-3843.9343L14095.7964,-3843.9446L14095.8959,-3843.9879L14095.9298,-3844.0039L14095.9581,-3844.0149L14095.9826,-3844.0215L14096.0183,-3844.0271L14096.0537,-3844.0292L14096.0791,-3844.0324L14096.0897,-3844.0312L14096.1203,-3844.0302L14096.156,-3844.0282L14096.181,-3844.0241L14096.233,-3844.0103L14096.267,-3844.0033L14096.3086,-3843.9971L14096.3497,-3843.9944L14096.3707,-3843.9935L14096.4041,-3843.9906L14096.4551,-3843.9878L14096.4847,-3843.9887L14096.5029,-3843.9917L14096.5264,-3843.9977L14096.5506,-3844.0084L14096.5713,-3844.0174L14096.589,-3844.0268L14096.6038,-3844.0378L14096.6208,-3844.0531L14096.6356,-3844.0685L14096.6483,-3844.0795L14096.6687,-3844.0946L14096.6959,-3844.1121L14096.7424,-3844.1419L14096.7717,-3844.1605L14096.7911,-3844.1706L14096.8079,-3844.1796L14096.8172,-3844.1788L14096.8469,-3844.1804L14096.8627,-3844.178L14096.8741,-3844.1751L14096.8906,-3844.1678L14096.911,-3844.1559L14096.945,-3844.1351L14097.0244,-3844.0866L14097.0445,-3844.0743L14097.0617,-3844.0653L14097.0766,-3844.0581L14097.2078,-3844.0073L14097.2349,-3843.9976L14097.2472,-3843.9944L14097.2595,-3843.9916L14097.3121,-3843.984L14097.3366,-3843.9803L14097.4834,-3843.9589L14097.4959,-3843.9575L14097.5132,-3843.9556L14097.5282,-3843.9553L14097.5439,-3843.9559L14097.5611,-3843.959L14097.5794,-3843.9655L14097.5915,-3843.9702L14097.6091,-3843.9807L14097.629,-3843.9942L14097.6539,-3844.0122L14097.6562,-3844.0139"/>
<path content="2,大和町,落合線,1.5,0.0,0.0," xlink:title="2" d="M14096.8123,-3842.8852L14096.7471,-3842.8809L14096.6664,-3842.8798L14096.4168,-3842.8782L14096.3158,-3842.8758L14096.147,-3842.8744L14096.051,-3842.872L14096.0359,-3842.8718L14095.9922,-3842.8713L14095.8647,-3842.8707L14095.8368,-3842.8729L14095.8019,-3842.8786L14095.776,-3842.8842L14095.7034,-3842.9004L14095.6816,-3842.9027L14095.6593,-3842.9028L14095.6085,-3842.8996L14095.5889,-3842.8978L14095.529,-3842.8989L14095.4882,-3842.8994L14095.4214,-3842.9017L14095.4114,-3842.9013L14095.3801,-3842.8988L14095.2806,-3842.8836L14095.2669,-3842.8808L14095.1975,-3842.8667L14095.1538,-3842.8577L14095.1251,-3842.8516L14095.0952,-3842.846L14095.0793,-3842.8432L14095.0462,-3842.8385L14094.9494,-3842.8285L14094.851,-3842.8194L14094.8216,-3842.8172L14094.6999,-3842.8053L14094.6005,-3842.797L14094.4107,-3842.7806L14094.3948,-3842.7814L14094.357,-3842.7755L14094.3012,-3842.7698L14094.2725,-3842.7676L14094.2363,-3842.7647L14094.1926,-3842.7627L14094.1565,-3842.7631L14094.1235,-3842.7666L14094.0907,-3842.771L14093.8787,-3842.8042L14093.7478,-3842.8267L14093.6984,-3842.8334L14093.6608,-3842.8401L14093.6333,-3842.8453L14093.6014,-3842.8572L14093.554,-3842.8667L14093.4277,-3842.9039L14093.3869,-3842.9162L14093.3389,-3842.9303L14093.2617,-3842.9529"/>
<path content="2,大和町,落合線,1.5,0.0,0.0," xlink:title="2" d="M14094.9709,-3843.7107L14094.9619,-3843.7088L14094.9305,-3843.7057L14094.923,-3843.7042L14094.8714,-3843.6972L14094.8507,-3843.6964L14094.8331,-3843.6975L14094.7813,-3843.7015L14094.6462,-3843.7121L14094.6247,-3843.7144L14094.6073,-3843.7151L14094.5901,-3843.7182L14094.5771,-3843.7146L14094.5546,-3843.7099L14094.5365,-3843.7042L14094.4876,-3843.6875L14094.4652,-3843.6813L14094.3762,-3843.6642L14094.3527,-3843.6592L14094.3276,-3843.6507L14094.3079,-3843.6431L14094.2946,-3843.636L14094.2861,-3843.6299L14094.2703,-3843.6152L14094.1787,-3843.5007L14094.1627,-3843.4847L14094.1462,-3843.4722L14094.1221,-3843.4586L14094.1007,-3843.4508L14094.0758,-3843.4451L14094.0553,-3843.4433L14094.0326,-3843.4428L14094.0143,-3843.4459L14093.9983,-3843.454L14093.9761,-3843.4688L14093.8989,-3843.5284L14093.8392,-3843.5747L14093.8294,-3843.5827L14093.8196,-3843.5885L14093.8036,-3843.5961L14093.7456,-3843.6169L14093.7026,-3843.6304L14093.6367,-3843.6524L14093.6252,-3843.6552L14093.5981,-3843.658L14093.583,-3843.6586L14093.531,-3843.6624L14093.5189,-3843.6619L14093.4449,-3843.6822L14093.3812,-3843.6998L14093.3646,-3843.7031L14093.3342,-3843.7022L14093.3,-3843.6989L14093.2694,-3843.6952L14093.2617,-3843.6936"/>
<path content="2,大和町,落合線,1.5,0.0,0.0," xlink:title="2" d="M14094.9709,-3843.7107L14094.9604,-3843.7288L14094.9554,-3843.7374L14094.9402,-3843.7676L14094.9326,-3843.7853L14094.9263,-3843.8071L14094.9243,-3843.8258L14094.9255,-3843.8473L14094.9283,-3843.868L14094.9397,-3843.9419L14094.9426,-3843.9765L14094.9429,-3843.9814L14094.9433,-3843.995L14094.9432,-3844.0072L14094.943,-3844.0108L14094.9404,-3844.0247L14094.9351,-3844.0396L14094.9275,-3844.0567L14094.9171,-3844.0758L14094.9039,-3844.0985L14094.8889,-3844.124L14094.8821,-3844.1348L14094.8717,-3844.1471L14094.8646,-3844.1569L14094.8622,-3844.1621L14094.8586,-3844.1844L14094.8552,-3844.2145L14094.8542,-3844.2341L14094.8554,-3844.2505L14094.8602,-3844.2699L14094.8689,-3844.2998L14094.8709,-3844.311L14094.8717,-3844.3197L14094.8713,-3844.3309L14094.8689,-3844.3408L14094.8606,-3844.3651L14094.8502,-3844.3916L14094.8466,-3844.394L14094.843,-3844.3936L14094.812,-3844.3908L14094.7936,-3844.3925L14094.7814,-3844.3959L14094.7485,-3844.4133L14094.7371,-3844.4178L14094.7206,-3844.4201L14094.712,-3844.4212L14094.7051,-3844.4247L14094.6936,-3844.4253L14094.6806,-3844.4306L14094.6712,-3844.4367L14094.5803,-3844.5293L14094.5659,-3844.5463L14094.5495,-3844.5682L14094.5301,-3844.5947L14094.5068,-3844.6236L14094.4858,-3844.6471L14094.4756,-3844.6569L14094.4641,-3844.6641L14094.4537,-3844.6688L14094.4414,-3844.6735L14094.3903,-3844.6885L14094.3616,-3844.6954L14094.3461,-3844.6989L14094.3311,-3844.7039L14094.3221,-3844.7089L14094.3148,-3844.7136L14094.3018,-3844.7261L14094.2934,-3844.7323L14094.2836,-3844.737L14094.2607,-3844.7474L14094.2373,-3844.7563L14094.2194,-3844.7628L14094.2045,-3844.7682L14094.1976,-3844.7713"/>
<path content="2,大和町,落合線,1.5,0.0,0.0," xlink:title="2" d="M14096.8079,-3844.1796L14096.7911,-3844.1706L14096.7717,-3844.1605L14096.7424,-3844.1419L14096.6959,-3844.1121L14096.6687,-3844.0946L14096.6483,-3844.0795L14096.6356,-3844.0685L14096.6208,-3844.0531L14096.6038,-3844.0378L14096.589,-3844.0268L14096.5713,-3844.0174L14096.5506,-3844.0084L14096.5264,-3843.9977L14096.5029,-3843.9917L14096.4847,-3843.9887L14096.4551,-3843.9878L14096.4041,-3843.9906L14096.3707,-3843.9935L14096.3497,-3843.9944L14096.3086,-3843.9971L14096.267,-3844.0033L14096.233,-3844.0103L14096.181,-3844.0241L14096.156,-3844.0282L14096.1203,-3844.0302L14096.0897,-3844.0312L14096.0791,-3844.0324L14096.0537,-3844.0292L14096.0183,-3844.0271L14095.9826,-3844.0215L14095.9581,-3844.0149L14095.9298,-3844.0039L14095.8959,-3843.9879L14095.7964,-3843.9446L14095.7717,-3843.9343L14095.7473,-3843.9228L14095.6814,-3843.8929L14095.6239,-3843.8671L14095.605,-3843.8584L14095.5783,-3843.8451L14095.5462,-3843.8271L14095.4906,-3843.7909L14095.4734,-3843.782L14095.4547,-3843.7656L14095.4235,-3843.746L14095.4148,-3843.7416L14095.4043,-3843.7386L14095.3893,-3843.736L14095.351,-3843.733L14095.3048,-3843.7301L14095.2869,-3843.7296L14095.2712,-3843.729L14095.1007,-3843.7216L14095.0772,-3843.7206L14095.0113,-3843.7138L14094.9709,-3843.7107"/>
<path content="2,大和町,落合線,1.5,0.0,0.0," xlink:title="2" d="M14093.2647,-3844.5925L14093.3332,-3844.6505L14093.3469,-3844.6619L14093.3635,-3844.6718L14093.3949,-3844.688L14093.4523,-3844.715L14093.5055,-3844.7416L14093.5344,-3844.754L14093.5492,-3844.7587L14093.5819,-3844.769L14093.6581,-3844.7895L14093.7234,-3844.8076L14093.8249,-3844.8363L14093.8471,-3844.8397L14093.8636,-3844.8402L14093.9028,-3844.8392L14093.9288,-3844.8385L14094.0009,-3844.8346L14094.0161,-3844.8318L14094.029,-3844.8278L14094.0975,-3844.7958L14094.1113,-3844.7904L14094.1252,-3844.7864L14094.1456,-3844.7828L14094.1547,-3844.7815L14094.1858,-3844.7743L14094.1976,-3844.7713"/>
<path content="2,大和町,落合線,1.5,0.0,0.0," xlink:title="2" d="M14094.1976,-3844.7713L14094.2216,-3844.8299L14094.23,-3844.846L14094.2476,-3844.8788L14094.2534,-3844.8928L14094.2731,-3844.9427L14094.3017,-3845.0227L14094.3383,-3845.1162L14094.3526,-3845.1461L14094.3621,-3845.1611L14094.3735,-3845.1748L14094.3891,-3845.1899L14094.4068,-3845.2029L14094.4257,-3845.2148"/>
<path content="2,大和町,鶴巣線1・2,2.5,2.5,0.0," xlink:title="2" d="M14093.3424,-3841.4453L14093.322,-3841.4158L14093.3069,-3841.3916L14093.2965,-3841.3704L14093.2914,-3841.3533L14093.2885,-3841.3362L14093.2896,-3841.3151L14093.3055,-3841.2294L14093.3098,-3841.2023L14093.3106,-3841.1877L14093.3055,-3841.1651L14093.2958,-3841.1262L14093.2898,-3841.0998L14093.2791,-3841.0598L14093.2726,-3841.0238L14093.2698,-3841.0175L14093.2705,-3840.9967L14093.2717,-3840.971L14093.2791,-3840.9072L14093.2823,-3840.8651L14093.2856,-3840.8418L14093.2889,-3840.833L14093.2947,-3840.8239L14093.2977,-3840.8203"/>
<path content="2,大和町,鶴巣線1・2,2.5,2.5,0.0," xlink:title="2" d="M14093.3424,-3841.4453L14093.3422,-3841.4995L14093.3406,-3841.5155L14093.3319,-3841.5476L14093.3241,-3841.5712L14093.3112,-3841.6236L14093.3048,-3841.6691L14093.3019,-3841.6884L14093.3008,-3841.7029L14093.3019,-3841.7149L14093.3076,-3841.7262L14093.3183,-3841.7361L14093.3291,-3841.7425L14093.3591,-3841.7577L14093.3713,-3841.7628L14093.3906,-3841.7735L14093.4156,-3841.7949L14093.4321,-3841.8106L14093.4406,-3841.8174L14093.4528,-3841.832L14093.4571,-3841.8402L14093.4596,-3841.8508L14093.4641,-3841.9254L14093.4659,-3841.9467L14093.4677,-3841.9488L14093.4614,-3841.9474L14093.4513,-3841.9467L14093.3899,-3841.9385L14093.367,-3841.9323L14093.3491,-3841.9312L14093.3241,-3841.9273L14093.3091,-3841.9227L14093.289,-3841.9182L14093.2732,-3841.9164"/>
<path content="2,大和町,鶴巣線1・2,2.5,2.5,0.0," xlink:title="2" d="M14093.2732,-3841.9164L14093.2617,-3841.9161"/>
<path content="2,大和町,鶴巣線1・2,2.5,2.5,0.0," xlink:title="2" d="M14093.2617,-3841.9369L14093.2732,-3841.9164"/>
<path content="2,大和町,鶴巣線1・2,2.5,2.5,0.0," xlink:title="2" d="M14093.2617,-3842.6702L14093.3146,-3842.6566L14093.3855,-3842.638L14093.432,-3842.6262L14093.5895,-3842.5862L14093.5645,-3842.4921L14093.5538,-3842.4488L14093.5408,-3842.3977L14093.5301,-3842.3553L14093.5071,-3842.2664L14093.5052,-3842.2531L14093.5071,-3842.235L14093.517,-3842.2166L14093.5452,-3842.1745L14093.6034,-3842.0986L14093.6096,-3842.0869L14093.6151,-3842.075L14093.6196,-3842.0606L14093.6215,-3842.0449L14093.622,-3842.0331L14093.6196,-3842.0084L14093.6116,-3841.9622L14093.6054,-3841.9278L14093.6022,-3841.8951L14093.5996,-3841.8816L14093.5953,-3841.8661L14093.5868,-3841.846L14093.5787,-3841.8219L14093.5701,-3841.805L14093.5415,-3841.7611L14093.5307,-3841.7431L14093.5107,-3841.7109L14093.4678,-3841.6439L14093.4535,-3841.6214L14093.4314,-3841.5854L14093.3613,-3841.4761L14093.3424,-3841.4453"/>
<path content="2,大和町,鶴巣線3,1.0,1.0,0.0," xlink:title="2" d="M14094.629,-3841.1827L14094.6785,-3841.2305L14094.6847,-3841.2382L14094.6881,-3841.2485L14094.6871,-3841.2598L14094.6792,-3841.2852L14094.6334,-3841.3826L14094.6177,-3841.4266L14094.6091,-3841.4789L14094.6012,-3841.5482L14094.6012,-3841.582L14094.6048,-3841.5961L14094.6234,-3841.6513L14094.6406,-3841.7025L14094.6442,-3841.7138L14094.6481,-3841.7246L14094.6566,-3841.736"/>
<path content="2,大和町,鶴巣線3,1.0,1.0,0.0," xlink:title="2" d="M14093.3048,-3841.6691L14093.3001,-3841.6676L14093.2617,-3841.653"/>
<path content="2,大和町,鶴巣線3,1.0,1.0,0.0," xlink:title="2" d="M14093.3048,-3841.6691L14093.3019,-3841.6884L14093.3008,-3841.7029L14093.3019,-3841.7149L14093.3076,-3841.7262L14093.3183,-3841.7361L14093.3291,-3841.7425L14093.3591,-3841.7577L14093.3713,-3841.7628L14093.3906,-3841.7735L14093.4156,-3841.7949L14093.4321,-3841.8106L14093.4406,-3841.8174L14093.4528,-3841.832L14093.4571,-3841.8402L14093.4596,-3841.8508L14093.4641,-3841.9254L14093.4659,-3841.9467L14093.4677,-3841.9488L14093.4614,-3841.9474L14093.4513,-3841.9467L14093.3899,-3841.9385L14093.367,-3841.9323L14093.3491,-3841.9312L14093.3241,-3841.9273L14093.3091,-3841.9227L14093.289,-3841.9182L14093.2732,-3841.9164"/>
<path content="2,大和町,鶴巣線3,1.0,1.0,0.0," xlink:title="2" d="M14094.6566,-3841.736L14094.6327,-3841.7301L14094.6191,-3841.7262L14094.5948,-3841.72L14094.5648,-3841.7155L14094.5069,-3841.7099L14094.4803,-3841.7068L14094.4343,-3841.7028L14094.4288,-3841.7002L14094.4205,-3841.6923L14094.4039,-3841.6783L14094.396,-3841.6699L14094.3953,-3841.662L14094.4046,-3841.6344L14094.4118,-3841.609L14094.4111,-3841.5736L14094.4067,-3841.5589L14094.3924,-3841.542L14094.2988,-3841.4846L14094.2831,-3841.4806L14094.2595,-3841.4744L14094.2487,-3841.4699L14094.2373,-3841.4609L14094.2301,-3841.4524L14094.2151,-3841.4282L14094.2015,-3841.4169L14094.1863,-3841.41L14094.1725,-3841.4066L14094.1186,-3841.3955L14094.1129,-3841.3961L14094.1136,-3841.3814L14094.1157,-3841.3668L14094.1179,-3841.3324L14094.1172,-3841.2872L14094.1168,-3841.24L14094.1159,-3841.2331L14094.0658,-3841.227L14094.0554,-3841.2236L14094.0126,-3841.1942L14094.004,-3841.192L14093.9604,-3841.189L14093.8583,-3841.1826L14093.8154,-3841.1804L14093.7246,-3841.1742L14093.6621,-3841.1702L14093.5987,-3841.1663L14093.5923,-3841.1663L14093.5718,-3841.1659L14093.5344,-3841.1663L14093.4872,-3841.1663L14093.4686,-3841.1635L14093.4493,-3841.1584L14093.4362,-3841.1545L14093.4288,-3841.1529L14093.3811,-3841.1432L14093.3614,-3841.1361L14093.3326,-3841.1291L14093.3241,-3841.1274L14093.312,-3841.1269L14093.2958,-3841.1262L14093.3055,-3841.1651L14093.3106,-3841.1877L14093.3098,-3841.2023L14093.3055,-3841.2294L14093.2896,-3841.3151L14093.2885,-3841.3362L14093.2914,-3841.3533L14093.2965,-3841.3704L14093.3069,-3841.3916L14093.322,-3841.4158L14093.3424,-3841.4453L14093.3422,-3841.4995L14093.3406,-3841.5155L14093.3319,-3841.5476L14093.3241,-3841.5712L14093.3112,-3841.6236L14093.3048,-3841.6691"/>
<path content="2,大和町,鶴巣線3,1.0,1.0,0.0," xlink:title="2" d="M14094.6566,-3841.736L14094.6677,-3841.7405L14094.6821,-3841.7442L14094.6964,-3841.7459L14094.7364,-3841.747L14094.8229,-3841.7431L14094.8344,-3841.7436L14094.8587,-3841.7487L14094.8797,-3841.7578L14094.9037,-3841.7752L14094.9238,-3841.787L14094.9381,-3841.7938L14094.9509,-3841.7972L14094.9774,-3841.7994L14095.0246,-3841.8L14095.0411,-3841.8004L14095.0668,-3841.7989L14095.0775,-3841.7972L14095.0864,-3841.7947L14095.1119,-3841.7859L14095.1576,-3841.7718L14095.1784,-3841.7677L14095.19,-3841.7668L14095.2019,-3841.7651L14095.2477,-3841.7651L14095.2663,-3841.7673L14095.2906,-3841.7724L14095.3171,-3841.7797L14095.3428,-3841.7882L14095.3543,-3841.7938L14095.4486,-3841.8333L14095.4869,-3841.8499L14095.5005,-3841.8546L14095.5487,-3841.8738L14095.5852,-3841.8845L14095.6095,-3841.8907L14095.7039,-3841.9087L14095.7347,-3841.9116L14095.7597,-3841.9127L14095.7831,-3841.9159L14095.8015,-3841.9202L14095.8182,-3841.9249L14095.8305,-3841.9307L14095.9026,-3841.9623L14095.9256,-3841.9713L14095.9671,-3841.9836L14095.9964,-3841.9869L14096.0026,-3841.9912L14096.0128,-3841.9952L14096.0317,-3842.0059L14096.0403,-3842.0121L14096.0552,-3842.0174L14096.081,-3842.0214L14096.098,-3842.0258L14096.1107,-3842.0309L14096.1179,-3842.0376L14096.1235,-3842.0452L14096.151,-3842.086L14096.2062,-3842.1734L14096.2456,-3842.2297L14096.2484,-3842.2408L14096.2478,-3842.2579L14096.2327,-3842.3481L14096.3015,-3842.3475L14096.3498,-3842.3536L14096.3827,-3842.3542L14096.4812,-3842.3694L14096.6029,-3842.3824L14096.6759,-3842.3903L14096.8168,-3842.3992L14096.8227,-3842.4016L14096.8442,-3842.403"/>
<path content="2,大和町,鶴巣線3,1.0,1.0,0.0," xlink:title="2" d="M14093.2617,-3841.9161L14093.2732,-3841.9164"/>
<path content="2,大和町,鶴巣線3,1.0,1.0,0.0," xlink:title="2" d="M14093.2732,-3841.9164L14093.2617,-3841.9369"/>
<path content="2,大和町,鶴巣線3,1.0,1.0,0.0," xlink:title="2" d="M14096.8442,-3842.403L14096.8456,-3842.334L14096.8492,-3842.321L14096.8554,-3842.3092L14096.8655,-3842.2979L14096.8826,-3842.2771L14096.887,-3842.2683L14096.8996,-3842.2576L14096.9151,-3842.2382L14096.9315,-3842.2219L14096.9444,-3842.2146L14096.9723,-3842.205L14097.0131,-3842.1932L14097.0454,-3842.1932L14097.0575,-3842.1915L14097.072,-3842.1862L14097.0947,-3842.1718L14097.1126,-3842.1656L14097.137,-3842.1611L14097.253,-3842.1453L14097.2995,-3842.1419L14097.3203,-3842.1419L14097.3324,-3842.1425L14097.3689,-3842.1463L14097.4126,-3842.1509L14097.4341,-3842.1538L14097.4739,-3842.1633L14097.5064,-3842.1735L14097.5309,-3842.1802L14097.5522,-3842.1859L14097.5744,-3842.1859L14097.6331,-3842.1797L14097.6511,-3842.1786L14097.6562,-3842.1788M14097.6562,-3842.4214L14097.6159,-3842.4253L14097.5951,-3842.4251L14097.5737,-3842.4264L14097.54,-3842.4269L14097.4586,-3842.4284L14097.4004,-3842.4294L14097.3752,-3842.4298L14097.3109,-3842.4309L14097.2136,-3842.4297L14097.1518,-3842.4267L14097.0797,-3842.4224L14097.0694,-3842.3948L14097.0389,-3842.3988L14096.9773,-3842.4061L14096.9408,-3842.4083L14096.9079,-3842.4083L14096.8671,-3842.4049L14096.8442,-3842.403"/>
<path content="3,大郷町,不来内経由松島線,7.0,0.0,0.0," xlink:title="3" d="M14097.6159,-3842.4253L14097.6562,-3842.4214"/>
<path content="3,大郷町,黒川病院線,4.0,0.0,0.0," xlink:title="3" d="M14097.6562,-3842.4214L14097.6159,-3842.4253L14097.5951,-3842.4251L14097.5737,-3842.4264L14097.54,-3842.4269L14097.4586,-3842.4284L14097.4004,-3842.4294L14097.3752,-3842.4298L14097.3109,-3842.4309L14097.2136,-3842.4297L14097.1518,-3842.4267L14097.0797,-3842.4224L14097.0694,-3842.3948L14097.0389,-3842.3988L14096.9773,-3842.4061L14096.9408,-3842.4083L14096.9079,-3842.4083L14096.8671,-3842.4049L14096.8442,-3842.403L14096.8227,-3842.4016L14096.8168,-3842.3992L14096.6759,-3842.3903L14096.6029,-3842.3824L14096.4812,-3842.3694L14096.3827,-3842.3542L14096.3498,-3842.3536L14096.3015,-3842.3475L14096.2327,-3842.3481L14096.2206,-3842.3481L14096.0087,-3842.3616L14095.9521,-3842.3649L14095.8981,-3842.3688L14095.8674,-3842.3693L14095.8368,-3842.3683L14095.8083,-3842.367L14095.7853,-3842.3669L14095.7696,-3842.3688L14095.754,-3842.3725L14095.7402,-3842.3794L14095.7288,-3842.3863L14095.6957,-3842.4133L14095.6913,-3842.417L14095.6067,-3842.4834L14095.5973,-3842.4916L14095.5703,-3842.5123L14095.5496,-3842.5248L14095.5258,-3842.5361L14095.4964,-3842.5461L14095.4724,-3842.5525L14095.3249,-3842.5784L14095.2526,-3842.5928L14095.1989,-3842.6026L14095.1739,-3842.6077L14095.0701,-3842.6268L14094.998,-3842.6402L14094.9618,-3842.6457L14094.9347,-3842.6493L14094.9033,-3842.6527L14094.8706,-3842.6541L14094.8423,-3842.6533L14094.8045,-3842.6465L14094.7522,-3842.6353L14094.715,-3842.6262L14094.6699,-3842.6155L14094.6212,-3842.6031L14094.5775,-3842.593L14094.4637,-3842.5639L14094.3841,-3842.542L14094.3581,-3842.5353L14094.33,-3842.5306L14094.2743,-3842.5254L14094.1809,-3842.522L14094.1747,-3842.5219L14094.0914,-3842.5203L14094.0205,-3842.5158L14093.9833,-3842.513L14093.9575,-3842.5113L14093.9038,-3842.5108L14093.8759,-3842.5136L14093.8208,-3842.5254L14093.7632,-3842.5417L14093.6361,-3842.5738L14093.5895,-3842.5862L14093.432,-3842.6262L14093.3855,-3842.638L14093.3146,-3842.6566L14093.2617,-3842.6702"/>
</g>
</svg>
