<?xml version="1.0" encoding="UTF-8"?>
<svg  xmlns="http://www.w3.org/2000/svg" xmlns:xlink="http://www.w3.org/1999/xlink" xmlns:go="http://purl.org/svgmap/profile" property="N07_001,N07_002,N07_003,N07_004,N07_005,N07_006,N07_007" viewBox="13491.2109375 -3449.70703125 4.39453125 4.39453125" go:dataArea="13491.2109375 -3449.70703125 4.39453125 4.39453125" >
<metadata>
 <rdf:RDF xmlns:rdf="http://www.w3.org/1999/02/22-rdf-syntax-ns#" xmlns:crs="http://opengis.org/xmldtds/transformations.dtd" xmlns:svg="http://www.w3.org/svg" >
  <rdf:Description>
   <crs:CoordinateReferenceSystem rdf:resource="http://purl.org/crs/84" svg:transform="matrix(100.0,0.0,0.0,-100.0,0.0,0.0)" />
  </rdf:Description>
 </rdf:RDF>
</metadata>
<globalCoordinateSystem srsName="http://purl.org/crs/84" transform="matrix(100.0,0.0,0.0,-100.0,0.0,0.0)" />
<defs>
 <g id="p0" >
  <circle cx="0.0" cy="0.0" r="3" stroke="green" stroke-width="0.75" vector-effect="non-scaling-stroke" />
 </g>
</defs>
<g fill="none" fill-rule="evenodd" stroke="#FF00FF" stroke-width="0.75" opacity="0.5" vector-effect="non-scaling-stroke" stroke-linejoin="bevel" >
<path content="1,淡路交通（株）,縦貫線,34.0,28.5,28.5," xlink:title="1" d="M13492.306,-3445.3125L13492.3117,-3445.317L13492.3683,-3445.3611L13492.4001,-3445.3857L13492.4793,-3445.4478L13492.4971,-3445.4618L13492.5148,-3445.4757L13492.5357,-3445.4924L13492.5633,-3445.5137L13492.5871,-3445.5294L13492.6014,-3445.5379L13492.6558,-3445.5684L13492.6594,-3445.5705L13492.6633,-3445.5729L13492.7007,-3445.5926L13492.7401,-3445.6151L13492.7749,-3445.6341L13492.8175,-3445.6611L13492.883,-3445.7076L13492.887,-3445.7104L13492.8932,-3445.7149L13492.9163,-3445.7307L13492.9469,-3445.7482L13492.9694,-3445.7593L13492.9746,-3445.7611L13493.0176,-3445.7831L13493.0591,-3445.8068L13493.07,-3445.8141L13493.1598,-3445.8677L13493.1681,-3445.8728L13493.2053,-3445.8958L13493.2441,-3445.9178L13493.257,-3445.9263L13493.2762,-3445.9396L13493.3102,-3445.9637L13493.3441,-3445.9866L13493.4244,-3446.0407L13493.4468,-3446.0554L13493.4713,-3446.0723L13493.4856,-3446.0824L13493.4986,-3446.0913L13493.5241,-3446.108L13493.5352,-3446.1162L13493.5583,-3446.1314L13493.5896,-3446.1568L13493.5971,-3446.1624L13493.6195,-3446.1816L13493.6746,-3446.2284L13493.805,-3446.3372L13493.8376,-3446.3656L13493.8841,-3446.4048L13493.8878,-3446.4078L13493.9208,-3446.4352L13493.9861,-3446.4933L13494.0239,-3446.5341L13494.0526,-3446.5645L13494.0623,-3446.5762L13494.0922,-3446.61L13494.1004,-3446.6196L13494.1521,-3446.6793L13494.1915,-3446.7261L13494.1989,-3446.737L13494.2174,-3446.7644L13494.2711,-3446.8304L13494.299,-3446.8659L13494.32,-3446.8992L13494.3799,-3446.9814L13494.3846,-3446.9881L13494.3915,-3446.9978L13494.4055,-3447.0153L13494.4323,-3447.0513L13494.4651,-3447.1033L13494.4905,-3447.1387L13494.502,-3447.1506L13494.5492,-3447.2121L13494.559,-3447.2284L13494.5677,-3447.2518L13494.5758,-3447.2604L13494.6071,-3447.2954L13494.6206,-3447.3112L13494.6404,-3447.336L13494.6819,-3447.3912L13494.6996,-3447.4115L13494.7329,-3447.4532L13494.7445,-3447.4667L13494.8406,-3447.5514L13494.8696,-3447.5851L13494.8881,-3447.613L13494.8988,-3447.6291L13494.9057,-3447.64L13494.9172,-3447.6714L13494.926,-3447.6979L13494.9274,-3447.7007L13494.9353,-3447.7162L13494.9444,-3447.7264L13494.9832,-3447.77L13495.0199,-3447.8117L13495.0369,-3447.8326L13495.0502,-3447.8522L13495.0559,-3447.8624L13495.0657,-3447.8798L13495.0743,-3447.9036L13495.0852,-3447.934L13495.095,-3447.9782L13495.1001,-3448.0011L13495.1097,-3448.0349L13495.1199,-3448.0608L13495.1376,-3448.0907L13495.1548,-3448.114L13495.1789,-3448.1466L13495.1973,-3448.1697L13495.2674,-3448.2615L13495.3117,-3448.3105L13495.345,-3448.3421L13495.3613,-3448.3562L13495.3885,-3448.3765L13495.4158,-3448.3947L13495.4205,-3448.3979L13495.4462,-3448.4138L13495.4626,-3448.4246L13495.4752,-3448.4346L13495.4905,-3448.4514L13495.4949,-3448.4589L13495.4998,-3448.4673L13495.5335,-3448.5386L13495.5429,-3448.5586L13495.5575,-3448.5805L13495.5723,-3448.5967L13495.5856,-3448.6096L13495.6055,-3448.6264"/>
<path content="1,淡路交通（株）,舞子・津名線,8.0,8.0,8.0," xlink:title="1" d="M13495.6055,-3448.6264L13495.5856,-3448.6096L13495.5723,-3448.5967L13495.5575,-3448.5805L13495.5429,-3448.5586L13495.5335,-3448.5386L13495.4998,-3448.4673L13495.4949,-3448.4589L13495.4905,-3448.4514L13495.4752,-3448.4346L13495.4626,-3448.4246L13495.4462,-3448.4138L13495.4205,-3448.3979L13495.4158,-3448.3947L13495.3885,-3448.3765L13495.3613,-3448.3562L13495.345,-3448.3421L13495.3117,-3448.3105L13495.2674,-3448.2615L13495.1973,-3448.1697L13495.1789,-3448.1466L13495.1548,-3448.114L13495.1376,-3448.0907L13495.1199,-3448.0608L13495.1097,-3448.0349L13495.1001,-3448.0011L13495.095,-3447.9782L13495.0852,-3447.934L13495.0743,-3447.9036L13495.0657,-3447.8798L13495.0559,-3447.8624L13495.0502,-3447.8522L13495.0369,-3447.8326L13495.0199,-3447.8117L13494.9832,-3447.77L13494.9444,-3447.7264L13494.9353,-3447.7162L13494.9274,-3447.7007L13494.926,-3447.6979L13494.9172,-3447.6714L13494.9057,-3447.64L13494.8988,-3447.6291L13494.8881,-3447.613L13494.8696,-3447.5851L13494.8406,-3447.5514L13494.7445,-3447.4667L13494.7329,-3447.4532L13494.6996,-3447.4115L13494.6819,-3447.3912L13494.6404,-3447.336L13494.6206,-3447.3112L13494.6071,-3447.2954L13494.5758,-3447.2604L13494.5677,-3447.2518L13494.559,-3447.2284L13494.5492,-3447.2121L13494.502,-3447.1506L13494.4905,-3447.1387L13494.4651,-3447.1033L13494.4323,-3447.0513L13494.4055,-3447.0153L13494.3915,-3446.9978L13494.3846,-3446.9881L13494.3799,-3446.9814L13494.32,-3446.8992L13494.299,-3446.8659L13494.2711,-3446.8304L13494.2174,-3446.7644L13494.1989,-3446.737L13494.1915,-3446.7261L13494.1521,-3446.6793L13494.1004,-3446.6196L13494.0922,-3446.61L13494.0623,-3446.5762L13494.0526,-3446.5645L13494.0239,-3446.5341L13493.9861,-3446.4933L13493.9208,-3446.4352L13493.8878,-3446.4078L13493.8841,-3446.4048L13493.8376,-3446.3656L13493.805,-3446.3372L13493.6746,-3446.2284L13493.6195,-3446.1816L13493.5971,-3446.1624L13493.5896,-3446.1568L13493.5583,-3446.1314L13493.5352,-3446.1162L13493.5241,-3446.108L13493.4986,-3446.0913L13493.4856,-3446.0824L13493.4713,-3446.0723L13493.4468,-3446.0554L13493.4244,-3446.0407L13493.3441,-3445.9866L13493.3102,-3445.9637L13493.2762,-3445.9396L13493.257,-3445.9263L13493.2441,-3445.9178L13493.2053,-3445.8958L13493.1681,-3445.8728L13493.1598,-3445.8677L13493.07,-3445.8141L13493.0591,-3445.8068L13493.0176,-3445.7831L13492.9746,-3445.7611L13492.9694,-3445.7593L13492.9469,-3445.7482L13492.9163,-3445.7307L13492.8932,-3445.7149L13492.887,-3445.7104L13492.883,-3445.7076L13492.8175,-3445.6611L13492.7749,-3445.6341L13492.7401,-3445.6151L13492.7007,-3445.5926L13492.6633,-3445.5729L13492.6594,-3445.5705L13492.6558,-3445.5684L13492.6014,-3445.5379L13492.5871,-3445.5294L13492.5633,-3445.5137L13492.5357,-3445.4924L13492.5148,-3445.4757L13492.4971,-3445.4618L13492.4793,-3445.4478L13492.4001,-3445.3857L13492.3683,-3445.3611L13492.3117,-3445.317L13492.306,-3445.3125"/>
</g>
</svg>
