<?xml version="1.0" encoding="UTF-8"?>
<svg  xmlns="http://www.w3.org/2000/svg" xmlns:xlink="http://www.w3.org/1999/xlink" xmlns:go="http://purl.org/svgmap/profile" property="N07_001,N07_002,N07_003,N07_004,N07_005,N07_006,N07_007" viewBox="13034.1796875 -3243.1640625 8.7890625 8.7890625" go:dataArea="13034.1796875 -3243.1640625 8.7890625 8.7890625" >
<metadata>
 <rdf:RDF xmlns:rdf="http://www.w3.org/1999/02/22-rdf-syntax-ns#" xmlns:crs="http://opengis.org/xmldtds/transformations.dtd" xmlns:svg="http://www.w3.org/svg" >
  <rdf:Description>
   <crs:CoordinateReferenceSystem rdf:resource="http://purl.org/crs/84" svg:transform="matrix(100.0,0.0,0.0,-100.0,0.0,0.0)" />
  </rdf:Description>
 </rdf:RDF>
</metadata>
<globalCoordinateSystem srsName="http://purl.org/crs/84" transform="matrix(100.0,0.0,0.0,-100.0,0.0,0.0)" />
<defs>
 <g id="p0" >
  <circle cx="0.0" cy="0.0" r="3" stroke="green" stroke-width="0.75" vector-effect="non-scaling-stroke" />
 </g>
</defs>
<g fill="none" fill-rule="evenodd" stroke="#FF00FF" stroke-width="0.75" opacity="0.5" vector-effect="non-scaling-stroke" stroke-linejoin="bevel" >
<path content="1,九州産交バス（株）,本渡バスセンター～下柿塚・浦公民館前～教良木,8.0,1.0,1.0," xlink:title="1" d="M13034.1797,-3241.3199L13034.1839,-3241.3277L13034.2055,-3241.368L13034.2426,-3241.4344L13034.2597,-3241.4705L13034.2879,-3241.5165L13034.3027,-3241.5561L13034.3072,-3241.5788L13034.3051,-3241.6124L13034.3333,-3241.6395L13034.3656,-3241.6788L13034.4015,-3241.7185L13034.4436,-3241.7599L13034.4996,-3241.8238L13034.5802,-3241.9094L13034.6162,-3241.9452L13034.6262,-3241.9597L13034.6485,-3241.9852L13034.6715,-3242.0144L13034.6949,-3242.0481L13034.7105,-3242.0736L13034.7283,-3242.1003L13034.7421,-3242.1186L13034.7633,-3242.1391L13034.768,-3242.1493L13034.7807,-3242.1702L13034.7885,-3242.1795L13034.7949,-3242.1857L13034.8009,-3242.1887L13034.8074,-3242.1916L13034.8154,-3242.1948L13034.8293,-3242.2004L13034.8755,-3242.2217L13034.9064,-3242.235L13034.9381,-3242.2486L13034.955,-3242.2567L13034.9686,-3242.2642L13034.9756,-3242.2696L13034.9835,-3242.2795L13034.9928,-3242.2898L13035.005,-3242.3038L13035.0073,-3242.3146L13035.0303,-3242.3474L13035.0503,-3242.3743L13035.0551,-3242.381L13035.0615,-3242.3851L13035.0687,-3242.3861L13035.0832,-3242.3879L13035.092,-3242.4122L13035.1008,-3242.432L13035.1104,-3242.4491L13035.125,-3242.4689L13035.1436,-3242.4919L13035.1986,-3242.5585L13035.2643,-3242.6523L13035.2928,-3242.7079L13035.3174,-3242.7586L13035.342,-3242.7854L13035.3366,-3242.8116L13035.3367,-3242.8667L13035.3386,-3242.9395L13035.3422,-3243.0035L13035.3466,-3243.1026L13035.3448,-3243.118L13035.3405,-3243.127L13035.3351,-3243.1334L13035.3281,-3243.14L13035.3109,-3243.1534L13035.3008,-3243.1641"/>
<path content="1,九州産交バス（株）,本渡バスセンター～下柿塚～浦公民館前,1.0,1.0,1.0," xlink:title="1" d="M13034.1797,-3241.3199L13034.1839,-3241.3277L13034.2055,-3241.368L13034.2426,-3241.4344L13034.2597,-3241.4705L13034.2879,-3241.5165L13034.3027,-3241.5561L13034.3072,-3241.5788L13034.3051,-3241.6124L13034.3333,-3241.6395L13034.3656,-3241.6788L13034.4015,-3241.7185L13034.4436,-3241.7599L13034.4996,-3241.8238L13034.5802,-3241.9094L13034.6162,-3241.9452L13034.6262,-3241.9597L13034.6485,-3241.9852L13034.6715,-3242.0144L13034.6949,-3242.0481L13034.7105,-3242.0736L13034.7283,-3242.1003L13034.7421,-3242.1186L13034.7633,-3242.1391L13034.768,-3242.1493L13034.7807,-3242.1702L13034.7885,-3242.1795L13034.7949,-3242.1857L13034.8009,-3242.1887L13034.8074,-3242.1916L13034.8154,-3242.1948L13034.8293,-3242.2004L13034.8755,-3242.2217L13034.9064,-3242.235L13034.9381,-3242.2486L13034.955,-3242.2567L13034.9686,-3242.2642L13034.9756,-3242.2696L13034.9835,-3242.2795L13034.9928,-3242.2898L13035.005,-3242.3038L13035.0073,-3242.3146L13035.0303,-3242.3474L13035.0503,-3242.3743L13035.0551,-3242.381L13035.0615,-3242.3851L13035.0687,-3242.3861L13035.0832,-3242.3879L13035.092,-3242.4122L13035.1008,-3242.432L13035.1104,-3242.4491L13035.125,-3242.4689L13035.1436,-3242.4919L13035.1986,-3242.5585L13035.2643,-3242.6523L13035.2928,-3242.7079L13035.3174,-3242.7586L13035.342,-3242.7854L13035.3366,-3242.8116L13035.3367,-3242.8667L13035.3386,-3242.9395L13035.3422,-3243.0035L13035.3466,-3243.1026L13035.3448,-3243.118L13035.3405,-3243.127L13035.3351,-3243.1334L13035.3281,-3243.14L13035.3109,-3243.1534L13035.3008,-3243.1641"/>
<path content="1,九州産交バス（株）,松島～内野河内・竜ヶ岳学校前～赤崎,5.0,5.0,5.0," xlink:title="1" d="M13040.0382,-3243.1641L13040.0193,-3243.1597L13039.9917,-3243.1521L13039.9772,-3243.1333L13039.9718,-3243.1152L13039.9778,-3243.0944L13039.9951,-3243.0778L13040.081,-3242.9906L13040.2057,-3242.8648L13040.2232,-3242.8448L13040.2338,-3242.8256L13040.2411,-3242.8038L13040.242,-3242.78L13040.2335,-3242.7585L13040.2187,-3242.7299L13040.2066,-3242.7074L13040.1963,-3242.6856L13040.1924,-3242.6618L13040.1966,-3242.6352L13040.206,-3242.613L13040.2523,-3242.5508L13040.2608,-3242.5332L13040.285,-3242.4659L13040.3037,-3242.4142L13040.3192,-3242.3556L13040.3509,-3242.251L13040.3712,-3242.1868L13040.3779,-3242.1696L13040.4013,-3242.1536L13040.426,-3242.1284L13040.4832,-3242.0865L13040.5107,-3242.0658L13040.524,-3242.0522L13040.5467,-3242.0169L13040.5643,-3241.9921L13040.5709,-3241.9714L13040.5725,-3241.9552L13040.5725,-3241.9432L13040.5646,-3241.9276L13040.5519,-3241.9174L13040.5289,-3241.9002L13040.4774,-3241.867L13040.4375,-3241.8381L13040.4166,-3241.8202L13040.4036,-3241.8007L13040.3978,-3241.782L13040.3981,-3241.7636L13040.4066,-3241.7432L13040.4248,-3241.7114L13040.446,-3241.6784L13040.4599,-3241.6672L13040.4808,-3241.6621L13040.501,-3241.6646L13040.597,-3241.6979L13040.6572,-3241.7163L13040.7002,-3241.7265L13040.7625,-3241.738L13040.797,-3241.7414L13040.8409,-3241.7414L13040.8712,-3241.7368L13040.9199,-3241.7253L13040.9816,-3241.7117L13041.0101,-3241.702L13041.0297,-3241.691L13041.0455,-3241.6723L13041.0624,-3241.639L13041.0754,-3241.6012L13041.0909,-3241.5503L13041.0972,-3241.5134L13041.0954,-3241.4896L13041.0896,-3241.4674L13041.0712,-3241.4369L13041.0379,-3241.3819L13040.9771,-3241.2937L13040.9065,-3241.1953L13040.8332,-3241.0914L13040.7989,-3241.0478L13040.7668,-3241.0197L13040.7378,-3241.0023L13040.7024,-3240.9876L13040.6445,-3240.9747L13040.6033,-3240.9662L13040.5342,-3240.9446L13040.4726,-3240.9136L13040.4351,-3240.8909L13040.4183,-3240.8681L13040.4088,-3240.8378L13040.3967,-3240.7714L13040.3777,-3240.7081L13040.3661,-3240.648L13040.3514,-3240.6301L13040.3381,-3240.6052L13040.317,-3240.5833L13040.3023,-3240.5686L13040.2848,-3240.5528L13040.2718,-3240.5314L13040.2605,-3240.5056L13040.2536,-3240.4804L13040.2476,-3240.4403L13040.2397,-3240.4287L13040.2204,-3240.4162L13040.2102,-3240.4033L13040.2036,-3240.3823L13040.2009,-3240.352L13040.208,-3240.2943L13040.2049,-3240.2642L13040.1967,-3240.2321L13040.1883,-3240.2087L13040.178,-3240.194L13040.1587,-3240.1737L13040.1415,-3240.1612L13040.1263,-3240.1448L13040.1052,-3240.1361L13040.0762,-3240.1287L13040.0573,-3240.1214L13040.0491,-3240.1131L13040.0396,-3240.0982L13040.0338,-3240.0844L13040.0259,-3240.0592L13040.0164,-3240.0247L13039.9944,-3239.9559L13039.9879,-3239.9317L13039.9787,-3239.9095L13039.9666,-3239.8825L13039.9624,-3239.8633L13039.9626,-3239.8435L13039.9639,-3239.8065L13039.9647,-3239.7581L13039.9626,-3239.7533L13039.9602,-3239.7479L13039.9442,-3239.7258L13039.9086,-3239.6897L13039.8922,-3239.6599L13039.873,-3239.6333L13039.8566,-3239.6075L13039.8427,-3239.5792L13039.7784,-3239.5932L13039.7346,-3239.6004L13039.6922,-3239.6028L13039.6292,-3239.605L13039.5709,-3239.6048L13039.5202,-3239.6031L13039.4973,-3239.591L13039.4699,-3239.5772L13039.4417,-3239.5598L13039.4162,-3239.5475L13039.3816,-3239.5375L13039.3263,-3239.5273L13039.2978,-3239.5215L13039.2578,-3239.5113L13039.2261,-3239.4985L13039.2024,-3239.4856L13039.186,-3239.474L13039.1789,-3239.4613L13039.1742,-3239.4419L13039.1641,-3239.4187L13039.1504,-3239.4078L13039.112,-3239.4036L13039.0753,-3239.3987L13039.05,-3239.3947L13039.0197,-3239.3889L13038.9917,-3239.3786L13038.949,-3239.3588L13038.8874,-3239.3238L13038.8665,-3239.308L13038.8528,-3239.2935L13038.8494,-3239.2743L13038.8518,-3239.2389L13038.8507,-3239.2057L13038.8502,-3239.1863L13038.8446,-3239.1718L13038.833,-3239.1596L13038.8122,-3239.1464L13038.7861,-3239.1388L13038.7468,-3239.1337L13038.6875,-3239.1221L13038.6717,-3239.1195L13038.6519,-3239.1112L13038.6237,-3239.0996L13038.594,-3239.0865L13038.5702,-3239.0724L13038.5613,-3239.0622L13038.5581,-3239.0528L13038.557,-3239.0274L13038.5692,-3239.0103L13038.5826,-3238.9855L13038.5826,-3238.9719L13038.575,-3238.9548L13038.5589,-3238.9383L13038.5486,-3238.9234L13038.5444,-3238.9153L13038.5418,-3238.8919L13038.5354,-3238.8835L13038.5236,-3238.8732L13038.4901,-3238.8547L13038.4753,-3238.8451L13038.4658,-3238.8331L13038.4535,-3238.8095L13038.4487,-3238.799L13038.4421,-3238.7941L13038.4171,-3238.7887L13038.3459,-3238.7812L13038.2992,-3238.7734L13038.2826,-3238.7671L13038.2513,-3238.7509L13038.2172,-3238.7343L13038.203,-3238.7186L13038.1951,-3238.703L13038.1901,-3238.6755L13038.1919,-3238.6374L13038.1956,-3238.6094L13038.1927,-3238.5882L13038.1893,-3238.5699L13038.1835,-3238.5514L13038.1811,-3238.5327L13038.1817,-3238.4899L13038.1848,-3238.4572L13038.1919,-3238.4153L13038.1967,-3238.3925L13038.1951,-3238.3722L13038.1877,-3238.3578L13038.1619,-3238.3321L13038.1284,-3238.3094L13038.0886,-3238.288L13038.0657,-3238.2815L13038.0414,-3238.2811L13038.0211,-3238.284L13038.0021,-3238.2947L13037.9866,-3238.3094L13037.9658,-3238.3488L13037.9481,-3238.4133L13037.9239,-3238.4794L13037.9028,-3238.534L13037.8938,-3238.5499L13037.8746,-3238.5764L13037.8416,-3238.6221L13037.8126,-3238.6599L13037.795,-3238.6845L13037.7857,-3238.7034L13037.7826,-3238.7223L13037.7823,-3238.7428L13037.7794,-3238.8008L13037.7757,-3238.8175L13037.767,-3238.8353L13037.7219,-3238.9006L13037.694,-3238.9427L13037.6834,-3238.9514L13037.6655,-3238.9606L13037.6341,-3238.971L13037.5793,-3238.9898L13037.4989,-3239.0094L13037.443,-3239.0243L13037.4114,-3239.0308L13037.3777,-3239.035L13037.3339,-3239.0373L13037.2936,-3239.0325L13037.2527,-3239.0243L13037.19,-3239.0098L13037.1475,-3238.9998L13037.1262,-3238.994L13037.0988,-3238.9915L13037.0761,-3238.9933L13037.0479,-3238.9991L13037.0004,-3239.0087L13036.9356,-3239.0227L13036.9163,-3239.0263L13036.8905,-3239.0283L13036.8475,-3239.0288L13036.8069,-3239.0276L13036.7687,-3239.0245L13036.7226,-3239.0161L13036.701,-3239.0091L13036.639,-3238.9842L13036.6108,-3238.9679L13036.5997,-3238.9565L13036.5647,-3238.9283L13036.5415,-3238.9069L13036.5175,-3238.8881L13036.4877,-3238.8716L13036.4331,-3238.844L13036.396,-3238.8242L13036.3614,-3238.7981L13036.3417,-3238.7789L13036.3224,-3238.7584L13036.304,-3238.7275L13036.2905,-3238.7025L13036.2752,-3238.6809L13036.2578,-3238.6575L13036.2378,-3238.6341L13036.1914,-3238.5882L13036.1553,-3238.5588L13036.1226,-3238.5421L13036.0881,-3238.5282L13036.0575,-3238.5216L13036.0156,-3238.518L13035.9713,-3238.5191L13035.9325,-3238.5251L13035.9033,-3238.5314L13035.8664,-3238.5483L13035.8095,-3238.591L13035.6762,-3238.677L13035.6436,-3238.7003L13035.5805,-3238.7447L13035.5122,-3238.7998L13035.4515,-3238.8509L13035.3743,-3238.9142L13035.3378,-3238.9485L13035.3038,-3238.9875"/>
<path content="1,九州産交バス（株）,松島～牟田漁港・姫戸港～上天草病院前,3.0,2.0,2.0," xlink:title="1" d="M13039.9626,-3239.7533L13039.9602,-3239.7479L13039.9442,-3239.7258L13039.9086,-3239.6897L13039.8922,-3239.6599L13039.873,-3239.6333L13039.8566,-3239.6075L13039.8427,-3239.5792L13039.7784,-3239.5932L13039.7346,-3239.6004L13039.6922,-3239.6028L13039.6292,-3239.605L13039.5709,-3239.6048L13039.5202,-3239.6031L13039.4973,-3239.591L13039.4699,-3239.5772L13039.4417,-3239.5598L13039.4162,-3239.5475L13039.3816,-3239.5375L13039.3263,-3239.5273L13039.2978,-3239.5215L13039.2578,-3239.5113L13039.2261,-3239.4985L13039.2024,-3239.4856L13039.186,-3239.474L13039.1789,-3239.4613L13039.1742,-3239.4419L13039.1641,-3239.4187L13039.1504,-3239.4078L13039.112,-3239.4036"/>
<path content="1,九州産交バス（株）,松島～牟田漁港・姫戸港～上天草病院前,3.0,2.0,2.0," xlink:title="1" d="M13039.9626,-3239.7533L13039.9844,-3239.742L13040.0008,-3239.7292L13040.0809,-3239.6665L13040.0994,-3239.6523L13040.1097,-3239.6402L13040.1231,-3239.6191L13040.1735,-3239.5567L13040.1989,-3239.5242L13040.2002,-3239.5194L13040.2019,-3239.5121L13040.2058,-3239.4443L13040.2131,-3239.3852L13040.2122,-3239.3567L13040.22,-3239.3475L13040.2338,-3239.337L13040.2618,-3239.314L13040.2742,-3239.3023L13040.2842,-3239.2906L13040.2923,-3239.2771L13040.2923,-3239.2636L13040.2876,-3239.2377L13040.2876,-3239.214L13040.2889,-3239.1987L13040.2971,-3239.152L13040.304,-3239.106L13040.3044,-3239.0841L13040.3014,-3239.0721L13040.2949,-3239.0608L13040.282,-3239.0385L13040.2777,-3239.0279L13040.2764,-3239.013L13040.2777,-3238.9871L13040.2807,-3238.9706L13040.2867,-3238.96L13040.3005,-3238.9436L13040.316,-3238.9298L13040.3543,-3238.906L13040.431,-3238.8758L13040.4594,-3238.8681L13040.4801,-3238.8685L13040.5292,-3238.8739L13040.5796,-3238.8776L13040.5912,-3238.8812L13040.5998,-3238.8882L13040.6171,-3238.9039L13040.6231,-3238.9192L13040.6278,-3238.9363L13040.6244,-3238.9663L13040.6248,-3238.9801L13040.633,-3238.9896L13040.6485,-3238.9987L13040.6752,-3239.0111L13040.757,-3239.0677L13040.8312,-3239.1211L13040.8502,-3239.1346L13040.8667,-3239.1512L13040.87,-3239.159L13040.8704,-3239.1687L13040.8784,-3239.1907L13040.8833,-3239.2189L13040.8848,-3239.2247L13040.8896,-3239.2289L13040.9005,-3239.2353L13040.9346,-3239.2504L13040.9475,-3239.2583L13040.9544,-3239.2656L13040.9692,-3239.2827L13040.977,-3239.2895L13040.986,-3239.2924L13041.0026,-3239.2958L13041.0433,-3239.3037L13041.0539,-3239.3068L13041.0653,-3239.313L13041.0974,-3239.332L13041.128,-3239.3515"/>
<path content="1,九州産交バス（株）,松島～牟田漁港・姫戸港～上天草病院前,3.0,2.0,2.0," xlink:title="1" d="M13040.0382,-3243.1641L13040.0193,-3243.1597L13039.9917,-3243.1521L13039.9772,-3243.1333L13039.9718,-3243.1152L13039.9778,-3243.0944L13039.9951,-3243.0778L13040.081,-3242.9906L13040.2057,-3242.8648L13040.2232,-3242.8448L13040.2338,-3242.8256L13040.2411,-3242.8038L13040.242,-3242.78L13040.2335,-3242.7585L13040.2187,-3242.7299L13040.2066,-3242.7074L13040.1963,-3242.6856L13040.1924,-3242.6618L13040.1966,-3242.6352L13040.206,-3242.613L13040.2523,-3242.5508L13040.2608,-3242.5332L13040.285,-3242.4659L13040.3037,-3242.4142L13040.3192,-3242.3556L13040.3509,-3242.251L13040.3712,-3242.1868L13040.3779,-3242.1696L13040.4013,-3242.1536L13040.426,-3242.1284L13040.4832,-3242.0865L13040.5107,-3242.0658L13040.524,-3242.0522L13040.5467,-3242.0169L13040.5643,-3241.9921L13040.5709,-3241.9714L13040.5725,-3241.9552L13040.5725,-3241.9432L13040.5646,-3241.9276L13040.5519,-3241.9174L13040.5289,-3241.9002L13040.4774,-3241.867L13040.4375,-3241.8381L13040.4166,-3241.8202L13040.4036,-3241.8007L13040.3978,-3241.782L13040.3981,-3241.7636L13040.4066,-3241.7432L13040.4248,-3241.7114L13040.446,-3241.6784L13040.4599,-3241.6672L13040.4808,-3241.6621L13040.501,-3241.6646L13040.597,-3241.6979L13040.6572,-3241.7163L13040.7002,-3241.7265L13040.7625,-3241.738L13040.797,-3241.7414L13040.8409,-3241.7414L13040.8712,-3241.7368L13040.9199,-3241.7253L13040.9816,-3241.7117L13041.0101,-3241.702L13041.0297,-3241.691L13041.0455,-3241.6723L13041.0624,-3241.639L13041.0754,-3241.6012L13041.0909,-3241.5503L13041.0972,-3241.5134L13041.0954,-3241.4896L13041.0896,-3241.4674L13041.0712,-3241.4369L13041.0379,-3241.3819L13040.9771,-3241.2937L13040.9065,-3241.1953L13040.8332,-3241.0914L13040.7989,-3241.0478L13040.7668,-3241.0197L13040.7378,-3241.0023L13040.7024,-3240.9876L13040.6445,-3240.9747L13040.6033,-3240.9662L13040.5342,-3240.9446L13040.4726,-3240.9136L13040.4351,-3240.8909L13040.4183,-3240.8681L13040.4088,-3240.8378L13040.3967,-3240.7714L13040.3777,-3240.7081L13040.3661,-3240.648L13040.3514,-3240.6301L13040.3381,-3240.6052L13040.317,-3240.5833L13040.3023,-3240.5686L13040.2848,-3240.5528L13040.2718,-3240.5314L13040.2605,-3240.5056L13040.2536,-3240.4804L13040.2476,-3240.4403L13040.2397,-3240.4287L13040.2204,-3240.4162L13040.2102,-3240.4033L13040.2036,-3240.3823L13040.2009,-3240.352L13040.208,-3240.2943L13040.2049,-3240.2642L13040.1967,-3240.2321L13040.1883,-3240.2087L13040.178,-3240.194L13040.1587,-3240.1737L13040.1415,-3240.1612L13040.1263,-3240.1448L13040.1052,-3240.1361L13040.0762,-3240.1287L13040.0573,-3240.1214L13040.0491,-3240.1131L13040.0396,-3240.0982L13040.0338,-3240.0844L13040.0259,-3240.0592L13040.0164,-3240.0247L13039.9944,-3239.9559L13039.9879,-3239.9317L13039.9787,-3239.9095L13039.9666,-3239.8825L13039.9624,-3239.8633L13039.9626,-3239.8435L13039.9639,-3239.8065L13039.9647,-3239.7581L13039.9626,-3239.7533"/>
<path content="1,九州産交バス（株）,松島～竜ヶ岳～倉岳校前,1.0,6.0,6.0," xlink:title="1" d="M13040.0382,-3243.1641L13040.0193,-3243.1597L13039.9917,-3243.1521L13039.9772,-3243.1333L13039.9718,-3243.1152L13039.9778,-3243.0944L13039.9951,-3243.0778L13040.081,-3242.9906L13040.2057,-3242.8648L13040.2232,-3242.8448L13040.2338,-3242.8256L13040.2411,-3242.8038L13040.242,-3242.78L13040.2335,-3242.7585L13040.2187,-3242.7299L13040.2066,-3242.7074L13040.1963,-3242.6856L13040.1924,-3242.6618L13040.1966,-3242.6352L13040.206,-3242.613L13040.2523,-3242.5508L13040.2608,-3242.5332L13040.285,-3242.4659L13040.3037,-3242.4142L13040.3192,-3242.3556L13040.3509,-3242.251L13040.3712,-3242.1868L13040.3779,-3242.1696L13040.4013,-3242.1536L13040.426,-3242.1284L13040.4832,-3242.0865L13040.5107,-3242.0658L13040.524,-3242.0522L13040.5467,-3242.0169L13040.5643,-3241.9921L13040.5709,-3241.9714L13040.5725,-3241.9552L13040.5725,-3241.9432L13040.5646,-3241.9276L13040.5519,-3241.9174L13040.5289,-3241.9002L13040.4774,-3241.867L13040.4375,-3241.8381L13040.4166,-3241.8202L13040.4036,-3241.8007L13040.3978,-3241.782L13040.3981,-3241.7636L13040.4066,-3241.7432L13040.4248,-3241.7114L13040.446,-3241.6784L13040.4599,-3241.6672L13040.4808,-3241.6621L13040.501,-3241.6646L13040.597,-3241.6979L13040.6572,-3241.7163L13040.7002,-3241.7265L13040.7625,-3241.738L13040.797,-3241.7414L13040.8409,-3241.7414L13040.8712,-3241.7368L13040.9199,-3241.7253L13040.9816,-3241.7117L13041.0101,-3241.702L13041.0297,-3241.691L13041.0455,-3241.6723L13041.0624,-3241.639L13041.0754,-3241.6012L13041.0909,-3241.5503L13041.0972,-3241.5134L13041.0954,-3241.4896L13041.0896,-3241.4674L13041.0712,-3241.4369L13041.0379,-3241.3819L13040.9771,-3241.2937L13040.9065,-3241.1953L13040.8332,-3241.0914L13040.7989,-3241.0478L13040.7668,-3241.0197L13040.7378,-3241.0023L13040.7024,-3240.9876L13040.6445,-3240.9747L13040.6033,-3240.9662L13040.5342,-3240.9446L13040.4726,-3240.9136L13040.4351,-3240.8909L13040.4183,-3240.8681L13040.4088,-3240.8378L13040.3967,-3240.7714L13040.3777,-3240.7081L13040.3661,-3240.648L13040.3514,-3240.6301L13040.3381,-3240.6052L13040.317,-3240.5833L13040.3023,-3240.5686L13040.2848,-3240.5528L13040.2718,-3240.5314L13040.2605,-3240.5056L13040.2536,-3240.4804L13040.2476,-3240.4403L13040.2397,-3240.4287L13040.2204,-3240.4162L13040.2102,-3240.4033L13040.2036,-3240.3823L13040.2009,-3240.352L13040.208,-3240.2943L13040.2049,-3240.2642L13040.1967,-3240.2321L13040.1883,-3240.2087L13040.178,-3240.194L13040.1587,-3240.1737L13040.1415,-3240.1612L13040.1263,-3240.1448L13040.1052,-3240.1361L13040.0762,-3240.1287L13040.0573,-3240.1214L13040.0491,-3240.1131L13040.0396,-3240.0982L13040.0338,-3240.0844L13040.0259,-3240.0592L13040.0164,-3240.0247L13039.9944,-3239.9559L13039.9879,-3239.9317L13039.9787,-3239.9095L13039.9666,-3239.8825L13039.9624,-3239.8633L13039.9626,-3239.8435L13039.9639,-3239.8065L13039.9647,-3239.7581L13039.9626,-3239.7533L13039.9602,-3239.7479L13039.9442,-3239.7258L13039.9086,-3239.6897L13039.8922,-3239.6599L13039.873,-3239.6333L13039.8566,-3239.6075L13039.8427,-3239.5792L13039.7784,-3239.5932L13039.7346,-3239.6004L13039.6922,-3239.6028L13039.6292,-3239.605L13039.5709,-3239.6048L13039.5202,-3239.6031L13039.4973,-3239.591L13039.4699,-3239.5772L13039.4417,-3239.5598L13039.4162,-3239.5475L13039.3816,-3239.5375L13039.3263,-3239.5273L13039.2978,-3239.5215L13039.2578,-3239.5113L13039.2261,-3239.4985L13039.2024,-3239.4856L13039.186,-3239.474L13039.1789,-3239.4613L13039.1742,-3239.4419L13039.1641,-3239.4187L13039.1504,-3239.4078L13039.112,-3239.4036L13039.0753,-3239.3987L13039.05,-3239.3947L13039.0197,-3239.3889L13038.9917,-3239.3786L13038.949,-3239.3588L13038.8874,-3239.3238L13038.8665,-3239.308L13038.8528,-3239.2935L13038.8494,-3239.2743L13038.8518,-3239.2389L13038.8507,-3239.2057L13038.8502,-3239.1863L13038.8446,-3239.1718L13038.833,-3239.1596L13038.8122,-3239.1464L13038.7861,-3239.1388L13038.7468,-3239.1337L13038.6875,-3239.1221L13038.6717,-3239.1195L13038.6519,-3239.1112L13038.6237,-3239.0996L13038.594,-3239.0865L13038.5702,-3239.0724L13038.5613,-3239.0622L13038.5581,-3239.0528L13038.557,-3239.0274L13038.5692,-3239.0103L13038.5826,-3238.9855L13038.5826,-3238.9719L13038.575,-3238.9548L13038.5589,-3238.9383L13038.5486,-3238.9234L13038.5444,-3238.9153L13038.5418,-3238.8919L13038.5354,-3238.8835L13038.5236,-3238.8732L13038.4901,-3238.8547L13038.4753,-3238.8451L13038.4658,-3238.8331L13038.4535,-3238.8095L13038.4487,-3238.799L13038.4421,-3238.7941L13038.4171,-3238.7887L13038.3459,-3238.7812L13038.2992,-3238.7734L13038.2826,-3238.7671L13038.2513,-3238.7509L13038.2172,-3238.7343L13038.203,-3238.7186L13038.1951,-3238.703L13038.1901,-3238.6755L13038.1919,-3238.6374L13038.1956,-3238.6094L13038.1927,-3238.5882L13038.1893,-3238.5699L13038.1835,-3238.5514L13038.1811,-3238.5327L13038.1817,-3238.4899L13038.1848,-3238.4572L13038.1919,-3238.4153L13038.1967,-3238.3925L13038.1951,-3238.3722L13038.1877,-3238.3578L13038.1619,-3238.3321L13038.1284,-3238.3094L13038.0886,-3238.288L13038.0657,-3238.2815L13038.0414,-3238.2811L13038.0211,-3238.284L13038.0021,-3238.2947L13037.9866,-3238.3094L13037.9658,-3238.3488L13037.9481,-3238.4133L13037.9239,-3238.4794L13037.9028,-3238.534L13037.8938,-3238.5499L13037.8746,-3238.5764L13037.8416,-3238.6221L13037.8126,-3238.6599L13037.795,-3238.6845L13037.7857,-3238.7034L13037.7826,-3238.7223L13037.7823,-3238.7428L13037.7794,-3238.8008L13037.7757,-3238.8175L13037.767,-3238.8353L13037.7219,-3238.9006L13037.694,-3238.9427L13037.6834,-3238.9514L13037.6655,-3238.9606L13037.6341,-3238.971L13037.5793,-3238.9898L13037.4989,-3239.0094L13037.443,-3239.0243L13037.4114,-3239.0308L13037.3777,-3239.035L13037.3339,-3239.0373L13037.2936,-3239.0325L13037.2527,-3239.0243L13037.19,-3239.0098L13037.1475,-3238.9998L13037.1262,-3238.994L13037.0988,-3238.9915L13037.0761,-3238.9933L13037.0479,-3238.9991L13037.0004,-3239.0087L13036.9356,-3239.0227L13036.9163,-3239.0263L13036.8905,-3239.0283L13036.8475,-3239.0288L13036.8069,-3239.0276L13036.7687,-3239.0245L13036.7226,-3239.0161L13036.701,-3239.0091L13036.639,-3238.9842L13036.6108,-3238.9679L13036.5997,-3238.9565L13036.5647,-3238.9283L13036.5415,-3238.9069L13036.5175,-3238.8881L13036.4877,-3238.8716L13036.4331,-3238.844L13036.396,-3238.8242L13036.3614,-3238.7981L13036.3417,-3238.7789L13036.3224,-3238.7584L13036.304,-3238.7275L13036.2905,-3238.7025L13036.2752,-3238.6809L13036.2578,-3238.6575L13036.2378,-3238.6341L13036.1914,-3238.5882L13036.1553,-3238.5588L13036.1226,-3238.5421L13036.0881,-3238.5282L13036.0575,-3238.5216L13036.0156,-3238.518L13035.9713,-3238.5191L13035.9325,-3238.5251L13035.9033,-3238.5314L13035.8664,-3238.5483L13035.8095,-3238.591L13035.6762,-3238.677L13035.6436,-3238.7003L13035.5805,-3238.7447L13035.5122,-3238.7998L13035.4515,-3238.8509L13035.3743,-3238.9142L13035.3378,-3238.9485L13035.3038,-3238.9875L13035.2801,-3238.9987L13035.2423,-3239.0304L13035.1279,-3239.1336L13035.1001,-3239.1594L13035.0886,-3239.1739L13035.0867,-3239.1827L13035.0912,-3239.1893L13035.099,-3239.1953L13035.1283,-3239.199L13035.1762,-3239.2085L13035.1873,-3239.2132L13035.1903,-3239.2179L13035.1883,-3239.2224L13035.1873,-3239.2321L13035.1847,-3239.2393L13035.1803,-3239.2421L13035.1691,-3239.2465L13035.1558,-3239.2503L13035.1376,-3239.2563L13035.1261,-3239.2664L13035.1201,-3239.2789L13035.1194,-3239.3249L13035.1246,-3239.334L13035.1417,-3239.3488L13035.2115,-3239.4045L13035.2263,-3239.4249L13035.2397,-3239.4447L13035.2449,-3239.4689L13035.2545,-3239.4831L13035.2712,-3239.4929L13035.318,-3239.5124L13035.3239,-3239.5212L13035.3254,-3239.5419L13035.3161,-3239.547L13035.3028,-3239.5463L13035.2735,-3239.5485L13035.2478,-3239.5545L13035.2345,-3239.5602L13035.2219,-3239.5706L13035.2126,-3239.5847L13035.2074,-3239.6004L13035.207,-3239.6048L13035.2122,-3239.6212L13035.2248,-3239.6413L13035.2397,-3239.6674L13035.2497,-3239.6778L13035.2586,-3239.6825L13035.2805,-3239.6866L13035.2916,-3239.6929L13035.298,-3239.702L13035.2987,-3239.7127L13035.2965,-3239.7439L13035.3002,-3239.7574L13035.315,-3239.7763L13035.3369,-3239.7879L13035.3592,-3239.7983L13035.3663,-3239.809L13035.3651,-3239.8172L13035.3603,-3239.8228L13035.3325,-3239.8228L13035.318,-3239.8244L13035.2894,-3239.8263L13035.279,-3239.8294L13035.2757,-3239.8357L13035.2757,-3239.8423L13035.2827,-3239.8574L13035.2864,-3239.8697L13035.2831,-3239.8813L13035.2753,-3239.8961L13035.2697,-3239.9081L13035.2683,-3239.9147L13035.2731,-3239.9273L13035.2928,-3239.959L13035.3058,-3239.9694L13035.334,-3239.976L13035.3633,-3239.9867L13035.3771,-3239.9933L13035.3806,-3239.9987L13035.3799,-3240.0087L13035.373,-3240.0147L13035.3665,-3240.0165L13035.342,-3240.0201L13035.2886,-3240.0231L13035.2704,-3240.0262L13035.2619,-3240.0317L13035.2522,-3240.0448L13035.2526,-3240.0636L13035.257,-3240.0754L13035.2637,-3240.0897L13035.2804,-3240.1044L13035.2914,-3240.1077L13035.3235,-3240.1072L13035.3337,-3240.1088L13035.3435,-3240.1283L13035.3515,-3240.1426L13035.366,-3240.1566L13035.392,-3240.1733L13035.4222,-3240.1981L13035.4534,-3240.2263L13035.4612,-3240.2326L13035.472,-3240.2355L13035.4928,-3240.2365L13035.5243,-3240.2403L13035.5347,-3240.2458L13035.5509,-3240.2587L13035.5716,-3240.2953L13035.5781,-3240.306L13035.6006,-3240.3505L13035.632,-3240.3892L13035.6422,-3240.3993L13035.652,-3240.4015L13035.6598,-3240.3994L13035.6754,-3240.3931L13035.6969,-3240.3817L13035.7153,-3240.3755L13035.7352,-3240.373L13035.7506,-3240.3713L13035.7741,-3240.3736L13035.7849,-3240.3787L13035.7882,-3240.3832L13035.7856,-3240.3924L13035.7836,-3240.3961L13035.7723,-3240.4064L13035.7665,-3240.4152L13035.7621,-3240.4211L13035.7532,-3240.4296L13035.7372,-3240.4388L13035.7134,-3240.4551L13035.7016,-3240.4655L13035.6932,-3240.4743L13035.6917,-3240.4833L13035.6925,-3240.4949L13035.6963,-3240.5006L13035.7092,-3240.4985L13035.7264,-3240.494L13035.7407,-3240.4929L13035.7506,-3240.4959L13035.7587,-3240.5064L13035.758,-3240.5187L13035.7539,-3240.5273L13035.7495,-3240.5309L13035.7394,-3240.5383L13035.7309,-3240.546L13035.7279,-3240.5507L13035.727,-3240.5596L13035.7311,-3240.5714L13035.7459,-3240.6012L13035.7463,-3240.6108L13035.74,-3240.6166L13035.7324,-3240.6181L13035.6941,-3240.6187L13035.6921,-3240.6203L13035.6895,-3240.6281L13035.6852,-3240.642L13035.6799,-3240.6538L13035.6721,-3240.6648L13035.6702,-3240.6704L13035.6719,-3240.6764L13035.6773,-3240.6859L13035.6761,-3240.6989L13035.6747,-3240.7267L13035.6771,-3240.7308L13035.6888,-3240.7345L13035.7185,-3240.7436L13035.725,-3240.7494L13035.7333,-3240.7614L13035.7443,-3240.7843L13035.7574,-3240.8L13035.7732,-3240.8087L13035.7819,-3240.818L13035.7817,-3240.8291L13035.7784,-3240.8362L13035.7697,-3240.8395L13035.7571,-3240.8408L13035.7498,-3240.8408L13035.7439,-3240.8373L13035.7417,-3240.8339L13035.7255,-3240.8087L13035.7064,-3240.7898L13035.6899,-3240.7779L13035.6826,-3240.7747L13035.6637,-3240.7793L13035.6537,-3240.7842L13035.6381,-3240.7886L13035.6112,-3240.7917L13035.5856,-3240.7969L13035.5748,-3240.8022L13035.5698,-3240.8101L13035.5713,-3240.8188L13035.5807,-3240.826L13035.5878,-3240.8287L13035.5952,-3240.8263L13035.6095,-3240.8206L13035.6206,-3240.8151L13035.6386,-3240.8134L13035.6539,-3240.8169L13035.6672,-3240.8222L13035.6739,-3240.8287L13035.6748,-3240.8551L13035.6748,-3240.8704L13035.6837,-3240.8815L13035.6919,-3240.8924L13035.7253,-3240.9169L13035.7418,-3240.924L13035.7608,-3240.9259L13035.7929,-3240.9263L13035.8094,-3240.9285L13035.8259,-3240.938L13035.8439,-3240.9518L13035.8534,-3240.9605L13035.8567,-3240.9709L13035.8569,-3241.0158L13035.8517,-3241.0229L13035.8415,-3241.0319L13035.822,-3241.0476L13035.8101,-3241.0638L13035.805,-3241.0805L13035.8048,-3241.0978L13035.8124,-3241.1072L13035.8417,-3241.1546L13035.8488,-3241.1708L13035.8501,-3241.1811L13035.8465,-3241.1961L13035.8426,-3241.2157L13035.8467,-3241.2227L13035.8541,-3241.2285L13035.8614,-3241.2327L13035.8733,-3241.2359L13035.8942,-3241.236L13035.9113,-3241.2387L13035.9299,-3241.2455L13035.9568,-3241.2585L13035.9616,-3241.2634L13035.9601,-3241.2859L13035.9629,-3241.3018L13035.9674,-3241.309L13035.9805,-3241.3202L13035.9839,-3241.328L13035.9833,-3241.3414L13035.9729,-3241.3675L13035.9651,-3241.3781L13035.9629,-3241.3804L13035.952,-3241.3812L13035.9327,-3241.3774L13035.9184,-3241.3749L13035.8978,-3241.3737L13035.8844,-3241.3766L13035.8692,-3241.3825L13035.8501,-3241.3892L13035.8354,-3241.3957L13035.8239,-3241.4002L13035.8059,-3241.4013L13035.7866,-3241.4013L13035.7652,-3241.4073L13035.7513,-3241.4147L13035.7266,-3241.4358L13035.7101,-3241.4411L13035.6927,-3241.4437L13035.6618,-3241.4485L13035.6351,-3241.4588L13035.6169,-3241.4644L13035.5824,-3241.4775L13035.547,-3241.4894L13035.5178,-3241.4973L13035.4755,-3241.5081L13035.4493,-3241.519L13035.4328,-3241.5253L13035.4181,-3241.522L13035.4027,-3241.5174L13035.3944,-3241.5199L13035.3849,-3241.5276L13035.381,-3241.535L13035.381,-3241.5454L13035.3888,-3241.5563L13035.4009,-3241.5745L13035.402,-3241.5803L13035.3988,-3241.5893L13035.3907,-3241.5946L13035.3812,-3241.5945L13035.3634,-3241.5932L13035.3311,-3241.5869L13035.3071,-3241.5844L13035.294,-3241.5844L13035.2838,-3241.5873L13035.2717,-3241.5948L13035.265,-3241.6035L13035.2524,-3241.6239L13035.2427,-3241.6338L13035.2305,-3241.6399L13035.2169,-3241.6442L13035.1865,-3241.6465L13035.1603,-3241.6521L13035.1427,-3241.6596L13035.141,-3241.6705L13035.1425,-3241.6876L13035.1375,-3241.698L13035.1251,-3241.7161L13035.1132,-3241.7375L13035.1113,-3241.7458L13035.115,-3241.7612L13035.1228,-3241.7717L13035.1353,-3241.781L13035.1497,-3241.7845L13035.1631,-3241.7895L13035.1731,-3241.793L13035.1802,-3241.7999L13035.1871,-3241.8158L13035.2039,-3241.8661L13035.2145,-3241.8913L13035.2221,-3241.9168L13035.2305,-3241.9405L13035.2322,-3241.9555L13035.2301,-3241.9822L13035.2286,-3242.0019L13035.2232,-3242.0127L13035.2164,-3242.0223L13035.2028,-3242.0344L13035.1937,-3242.0402L13035.0093,-3242.1475L13034.9841,-3242.1661L13034.9596,-3242.1786L13034.9317,-3242.1812L13034.8972,-3242.1793L13034.8694,-3242.1723L13034.8178,-3242.1572L13034.7814,-3242.1425L13034.7633,-3242.1391L13034.7421,-3242.1186L13034.7283,-3242.1003L13034.7105,-3242.0736L13034.6949,-3242.0481L13034.6715,-3242.0144L13034.6485,-3241.9852L13034.6262,-3241.9597L13034.6162,-3241.9452L13034.5802,-3241.9094L13034.4996,-3241.8238L13034.4436,-3241.7599L13034.4015,-3241.7185L13034.3656,-3241.6788L13034.3333,-3241.6395L13034.3051,-3241.6124L13034.3072,-3241.5788L13034.3027,-3241.5561L13034.2879,-3241.5165L13034.2597,-3241.4705L13034.2426,-3241.4344L13034.2055,-3241.368L13034.1839,-3241.3277L13034.1797,-3241.3199"/>
<path content="1,九州産交バス（株）,赤崎～竜ヶ岳学校前・内野河内～教良木,4.0,3.0,3.0," xlink:title="1" d="M13035.8664,-3238.5483L13035.8095,-3238.591"/>
<path content="1,九州産交バス（株）,赤崎～竜ヶ岳学校前・内野河内～教良木,4.0,3.0,3.0," xlink:title="1" d="M13035.8664,-3238.5483L13035.8429,-3238.5485L13035.8226,-3238.5476L13035.81,-3238.5434L13035.7976,-3238.5334L13035.7923,-3238.5207L13035.7912,-3238.5037L13035.7976,-3238.4868L13035.8147,-3238.4572L13035.8202,-3238.4451L13035.8213,-3238.4364L13035.8168,-3238.4293L13035.8065,-3238.4297L13035.7984,-3238.4382L13035.7765,-3238.4609L13035.7625,-3238.4768L13035.7512,-3238.4866L13035.742,-3238.4908L13035.7248,-3238.4921L13035.7069,-3238.4899L13035.6834,-3238.4803L13035.6594,-3238.4661L13035.6397,-3238.4476L13035.617,-3238.4211L13035.5851,-3238.3834L13035.5391,-3238.3395L13035.5142,-3238.3121L13035.5015,-3238.3009L13035.4876,-3238.2947L13035.4544,-3238.2858L13035.429,-3238.2813L13035.4085,-3238.2769L13035.3845,-3238.2671L13035.3653,-3238.2555L13035.3407,-3238.2479L13035.2843,-3238.2392L13035.2543,-3238.2334L13035.2337,-3238.2343L13035.2226,-3238.2405L13035.2176,-3238.2472L13035.2179,-3238.2784L13035.2226,-3238.3105L13035.2266,-3238.3214L13035.2329,-3238.3304L13035.2485,-3238.3509L13035.2516,-3238.3607L13035.2516,-3238.3765L13035.2501,-3238.3865L13035.245,-3238.397L13035.2366,-3238.4008L13035.216,-3238.403L13035.2018,-3238.4057L13035.1947,-3238.411L13035.1952,-3238.419L13035.1994,-3238.43L13035.2137,-3238.4598L13035.2226,-3238.4699L13035.2361,-3238.4761L13035.2511,-3238.4777L13035.2748,-3238.4721L13035.2935,-3238.4658L13035.3075,-3238.4647L13035.317,-3238.4676L13035.3305,-3238.4803L13035.3394,-3238.4973L13035.3421,-3238.5126L13035.3463,-3238.532L13035.351,-3238.5401L13035.3595,-3238.5485L13035.3739,-3238.5557L13035.4119,-3238.5632L13035.4293,-3238.5686L13035.4425,-3238.5782L13035.4538,-3238.5866L13035.4691,-3238.6027L13035.4783,-3238.6192L13035.481,-3238.6332L13035.4765,-3238.6432L13035.4625,-3238.6588L13035.4507,-3238.6715L13035.443,-3238.6831L13035.4359,-3238.7034L13035.4314,-3238.717L13035.4254,-3238.7277L13035.4161,-3238.7362L13035.3964,-3238.7468L13035.3164,-3238.7844L13035.2841,-3238.7996L13035.2702,-3238.8075L13035.2626,-3238.8155L13035.2554,-3238.8212L13035.2407,-3238.8488L13035.2371,-3238.8602L13035.238,-3238.8693L13035.242,-3238.8787L13035.2758,-3238.913L13035.2879,-3238.9281L13035.2924,-3238.9403L13035.2928,-3238.9524L13035.2942,-3238.9717L13035.3038,-3238.9875"/>
<path content="1,九州産交バス（株）,赤崎～竜ヶ岳学校前・内野河内～教良木,4.0,3.0,3.0," xlink:title="1" d="M13038.5702,-3239.0724L13038.5613,-3239.0622L13038.5581,-3239.0528L13038.557,-3239.0274L13038.5692,-3239.0103L13038.5826,-3238.9855L13038.5826,-3238.9719L13038.575,-3238.9548L13038.5589,-3238.9383L13038.5486,-3238.9234L13038.5444,-3238.9153L13038.5418,-3238.8919L13038.5354,-3238.8835L13038.5236,-3238.8732L13038.4901,-3238.8547L13038.4753,-3238.8451L13038.4658,-3238.8331L13038.4535,-3238.8095L13038.4487,-3238.799L13038.4421,-3238.7941L13038.4171,-3238.7887L13038.3459,-3238.7812L13038.2992,-3238.7734L13038.2826,-3238.7671L13038.2513,-3238.7509L13038.2172,-3238.7343L13038.203,-3238.7186L13038.1951,-3238.703L13038.1901,-3238.6755L13038.1919,-3238.6374L13038.1956,-3238.6094L13038.1927,-3238.5882L13038.1893,-3238.5699L13038.1835,-3238.5514L13038.1811,-3238.5327L13038.1817,-3238.4899L13038.1848,-3238.4572L13038.1919,-3238.4153L13038.1967,-3238.3925L13038.1951,-3238.3722L13038.1877,-3238.3578L13038.1619,-3238.3321L13038.1284,-3238.3094L13038.0886,-3238.288L13038.0657,-3238.2815L13038.0414,-3238.2811L13038.0211,-3238.284L13038.0021,-3238.2947L13037.9866,-3238.3094L13037.9658,-3238.3488L13037.9481,-3238.4133L13037.9239,-3238.4794L13037.9028,-3238.534L13037.8938,-3238.5499L13037.8746,-3238.5764L13037.8416,-3238.6221L13037.8126,-3238.6599L13037.795,-3238.6845L13037.7857,-3238.7034L13037.7826,-3238.7223L13037.7823,-3238.7428L13037.7794,-3238.8008L13037.7757,-3238.8175L13037.767,-3238.8353L13037.7219,-3238.9006L13037.694,-3238.9427L13037.6834,-3238.9514L13037.6655,-3238.9606L13037.6341,-3238.971L13037.5793,-3238.9898L13037.4989,-3239.0094L13037.443,-3239.0243L13037.4114,-3239.0308L13037.3777,-3239.035L13037.3339,-3239.0373L13037.2936,-3239.0325L13037.2527,-3239.0243L13037.19,-3239.0098L13037.1475,-3238.9998L13037.1262,-3238.994L13037.0988,-3238.9915L13037.0761,-3238.9933L13037.0479,-3238.9991L13037.0004,-3239.0087L13036.9356,-3239.0227L13036.9163,-3239.0263L13036.8905,-3239.0283L13036.8475,-3239.0288L13036.8069,-3239.0276L13036.7687,-3239.0245L13036.7226,-3239.0161L13036.701,-3239.0091L13036.639,-3238.9842L13036.6108,-3238.9679L13036.5997,-3238.9565L13036.5647,-3238.9283L13036.5415,-3238.9069L13036.5175,-3238.8881L13036.4877,-3238.8716L13036.4331,-3238.844L13036.396,-3238.8242L13036.3614,-3238.7981L13036.3417,-3238.7789L13036.3224,-3238.7584L13036.304,-3238.7275L13036.2905,-3238.7025L13036.2752,-3238.6809L13036.2578,-3238.6575L13036.2378,-3238.6341L13036.1914,-3238.5882L13036.1553,-3238.5588L13036.1226,-3238.5421L13036.0881,-3238.5282L13036.0575,-3238.5216L13036.0156,-3238.518L13035.9713,-3238.5191L13035.9325,-3238.5251L13035.9033,-3238.5314L13035.8664,-3238.5483"/>
<path content="1,九州産交バス（株）,赤崎～竜ヶ岳学校前・内野河内～教良木,4.0,3.0,3.0," xlink:title="1" d="M13038.5605,-3239.1561L13038.5734,-3239.1348L13038.5734,-3239.1187L13038.5676,-3239.0995L13038.5702,-3239.0724"/>
<path content="1,九州産交バス（株）,赤崎～竜ヶ岳学校前・内野河内～教良木,4.0,3.0,3.0," xlink:title="1" d="M13040.0382,-3243.1641L13040.0193,-3243.1597L13039.9917,-3243.1521L13039.9772,-3243.1333L13039.9718,-3243.1152L13039.9778,-3243.0944L13039.9951,-3243.0778L13040.081,-3242.9906L13040.2057,-3242.8648L13040.2232,-3242.8448L13040.2338,-3242.8256L13040.2411,-3242.8038L13040.242,-3242.78L13040.2335,-3242.7585L13040.2187,-3242.7299L13040.2066,-3242.7074L13040.1963,-3242.6856L13040.1924,-3242.6618L13040.1966,-3242.6352L13040.206,-3242.613L13040.2523,-3242.5508L13040.2608,-3242.5332L13040.285,-3242.4659L13040.3037,-3242.4142L13040.3192,-3242.3556L13040.3509,-3242.251L13040.3712,-3242.1868L13040.3779,-3242.1696L13040.4013,-3242.1536L13040.426,-3242.1284L13040.4832,-3242.0865L13040.5107,-3242.0658L13040.524,-3242.0522L13040.5467,-3242.0169L13040.5643,-3241.9921L13040.5709,-3241.9714L13040.5725,-3241.9552L13040.5725,-3241.9432L13040.5646,-3241.9276L13040.5519,-3241.9174L13040.5289,-3241.9002L13040.4774,-3241.867L13040.4375,-3241.8381L13040.4166,-3241.8202L13040.4036,-3241.8007L13040.3978,-3241.782L13040.3981,-3241.7636L13040.4066,-3241.7432L13040.4248,-3241.7114L13040.446,-3241.6784L13040.4599,-3241.6672L13040.4808,-3241.6621L13040.501,-3241.6646L13040.597,-3241.6979L13040.6572,-3241.7163L13040.7002,-3241.7265L13040.7625,-3241.738L13040.797,-3241.7414L13040.8409,-3241.7414L13040.8712,-3241.7368L13040.9199,-3241.7253L13040.9816,-3241.7117L13041.0101,-3241.702L13041.0297,-3241.691L13041.0455,-3241.6723L13041.0624,-3241.639L13041.0754,-3241.6012L13041.0909,-3241.5503L13041.0972,-3241.5134L13041.0954,-3241.4896L13041.0896,-3241.4674L13041.0712,-3241.4369L13041.0379,-3241.3819L13040.9771,-3241.2937L13040.9065,-3241.1953L13040.8332,-3241.0914L13040.7989,-3241.0478L13040.7668,-3241.0197L13040.7378,-3241.0023L13040.7024,-3240.9876L13040.6445,-3240.9747L13040.6033,-3240.9662L13040.5342,-3240.9446L13040.4726,-3240.9136L13040.4351,-3240.8909L13040.4183,-3240.8681L13040.4088,-3240.8378L13040.3967,-3240.7714L13040.3777,-3240.7081L13040.3661,-3240.648L13040.3514,-3240.6301L13040.3381,-3240.6052L13040.317,-3240.5833L13040.3023,-3240.5686L13040.2848,-3240.5528L13040.2718,-3240.5314L13040.2605,-3240.5056L13040.2536,-3240.4804L13040.2476,-3240.4403L13040.2397,-3240.4287L13040.2204,-3240.4162L13040.2102,-3240.4033L13040.2036,-3240.3823L13040.2009,-3240.352L13040.208,-3240.2943L13040.2049,-3240.2642L13040.1967,-3240.2321L13040.1883,-3240.2087L13040.178,-3240.194L13040.1587,-3240.1737L13040.1415,-3240.1612L13040.1263,-3240.1448L13040.1052,-3240.1361L13040.0762,-3240.1287L13040.0573,-3240.1214L13040.0491,-3240.1131L13040.0396,-3240.0982L13040.0338,-3240.0844L13040.0259,-3240.0592L13040.0164,-3240.0247L13039.9944,-3239.9559L13039.9879,-3239.9317L13039.9787,-3239.9095L13039.9666,-3239.8825L13039.9624,-3239.8633L13039.9626,-3239.8435L13039.9639,-3239.8065L13039.9647,-3239.7581L13039.9626,-3239.7533L13039.9602,-3239.7479L13039.9442,-3239.7258L13039.9086,-3239.6897L13039.8922,-3239.6599L13039.873,-3239.6333L13039.8566,-3239.6075L13039.8427,-3239.5792L13039.7784,-3239.5932L13039.7346,-3239.6004L13039.6922,-3239.6028L13039.6292,-3239.605L13039.5709,-3239.6048L13039.5202,-3239.6031L13039.4973,-3239.591L13039.4699,-3239.5772L13039.4417,-3239.5598L13039.4162,-3239.5475L13039.3816,-3239.5375L13039.3263,-3239.5273L13039.2978,-3239.5215L13039.2578,-3239.5113L13039.2261,-3239.4985L13039.2024,-3239.4856L13039.186,-3239.474L13039.1789,-3239.4613L13039.1742,-3239.4419L13039.1641,-3239.4187L13039.1504,-3239.4078L13039.112,-3239.4036L13039.0753,-3239.3987L13039.05,-3239.3947L13039.0197,-3239.3889L13038.9917,-3239.3786L13038.949,-3239.3588L13038.8874,-3239.3238L13038.8665,-3239.308L13038.8528,-3239.2935L13038.8494,-3239.2743L13038.8518,-3239.2389L13038.8507,-3239.2057L13038.8502,-3239.1863L13038.8446,-3239.1718L13038.833,-3239.1596L13038.8122,-3239.1464L13038.7861,-3239.1388L13038.7468,-3239.1337L13038.6875,-3239.1221L13038.6717,-3239.1195L13038.6519,-3239.1112L13038.6237,-3239.0996L13038.594,-3239.0865L13038.5702,-3239.0724"/>
<path content="1,（有）御所浦タクシー,嵐口線,1.0,1.0,1.0," xlink:title="1" d="M13034.1797,-3234.3849L13034.2002,-3234.3952L13034.2196,-3234.4054L13034.2293,-3234.4131L13034.2377,-3234.427L13034.2692,-3234.4772L13034.2776,-3234.4916L13034.2861,-3234.5024L13034.3024,-3234.5162L13034.3278,-3234.5444L13034.333,-3234.5541L13034.3345,-3234.567L13034.3345,-3234.5798L13034.329,-3234.5926L13034.3266,-3234.606L13034.3266,-3234.6162L13034.3381,-3234.6378L13034.3425,-3234.6469L13034.3756,-3234.708L13034.4155,-3234.7747L13034.4288,-3234.7819L13034.4488,-3234.7875L13034.4699,-3234.7993L13034.4875,-3234.8193L13034.4923,-3234.8373L13034.4959,-3234.8603L13034.5008,-3234.8721L13034.5177,-3234.8829L13034.5413,-3234.8957L13034.5631,-3234.9173L13034.58,-3234.9373L13034.5957,-3234.9496L13034.6507,-3234.9798L13034.6967,-3235.0009L13034.7215,-3235.0106L13034.7547,-3235.0209L13034.7741,-3235.0244L13034.791,-3235.0224L13034.8122,-3235.0132L13034.8364,-3235.0091L13034.9228,-3235.0086L13035.0353,-3235.0116L13035.0746,-3235.0147L13035.094,-3235.0173L13035.1321,-3235.0142L13035.1816,-3235.0086L13035.2191,-3235.0065L13035.2391,-3235.0075L13035.2609,-3235.0142L13035.2893,-3235.048L13035.3183,-3235.0952L13035.3262,-3235.1039L13035.3352,-3235.1065L13035.354,-3235.0973L13035.3673,-3235.0865L13035.3848,-3235.0865L13035.3993,-3235.0886L13035.4229,-3235.1152L13035.438,-3235.1265L13035.4538,-3235.1337L13035.4822,-3235.1552L13035.5238,-3235.2031L13035.6134,-3235.1557L13035.6237,-3235.1455L13035.631,-3235.1185"/>
<path content="1,（有）御所浦タクシー,江の口・烏帽子線,4.0,4.0,4.0," xlink:title="1" d="M13034.1797,-3234.3849L13034.2002,-3234.3952L13034.2196,-3234.4054L13034.2293,-3234.4131L13034.2377,-3234.427L13034.2692,-3234.4772L13034.2776,-3234.4916L13034.2861,-3234.5024L13034.3024,-3234.5162L13034.3278,-3234.5444L13034.333,-3234.5541L13034.3345,-3234.567L13034.3345,-3234.5798L13034.329,-3234.5926L13034.3266,-3234.606L13034.3266,-3234.6162L13034.3381,-3234.6378L13034.3425,-3234.6469L13034.3756,-3234.708L13034.4155,-3234.7747L13034.4288,-3234.7819L13034.4488,-3234.7875L13034.4699,-3234.7993L13034.4875,-3234.8193L13034.4923,-3234.8373L13034.4959,-3234.8603L13034.5008,-3234.8721L13034.5177,-3234.8829L13034.5413,-3234.8957L13034.5631,-3234.9173L13034.58,-3234.9373L13034.5957,-3234.9496L13034.6507,-3234.9798L13034.6967,-3235.0009L13034.7215,-3235.0106L13034.7547,-3235.0209L13034.7741,-3235.0244L13034.791,-3235.0224L13034.8122,-3235.0132L13034.8364,-3235.0091L13034.9228,-3235.0086L13035.0353,-3235.0116L13035.0746,-3235.0147L13035.094,-3235.0173L13035.1321,-3235.0142L13035.1816,-3235.0086L13035.2191,-3235.0065L13035.2391,-3235.0075L13035.2609,-3235.0142L13035.2893,-3235.048L13035.3183,-3235.0952L13035.3262,-3235.1039L13035.3352,-3235.1065L13035.354,-3235.0973L13035.3673,-3235.0865L13035.3848,-3235.0865L13035.3993,-3235.0886L13035.4229,-3235.1152L13035.438,-3235.1265L13035.4538,-3235.1337L13035.4822,-3235.1552L13035.5238,-3235.2031L13035.6134,-3235.1557L13035.6237,-3235.1455L13035.631,-3235.1185L13035.6726,-3235.0357L13035.6696,-3234.9444L13035.6696,-3234.9321L13035.6781,-3234.9183L13035.7531,-3234.8526L13035.7863,-3234.8229L13035.8014,-3234.8111L13035.8178,-3234.8055L13035.8389,-3234.7993L13035.8837,-3234.7916L13035.9308,-3234.7767L13035.9575,-3234.7608L13036.0027,-3234.7252L13036.0601,-3234.6788L13036.0822,-3234.666L13036.1154,-3234.6521L13036.172,-3234.6257L13036.191,-3234.6262L13036.2082,-3234.6157L13036.2212,-3234.6044L13036.2321,-3234.599L13036.263,-3234.5954L13036.3189,-3234.588L13036.4033,-3234.5847L13036.438,-3234.5883L13036.4525,-3234.5942L13036.5139,-3234.6283L13036.5692,-3234.6721L13036.6385,-3234.7137L13036.6917,-3234.746L13036.7543,-3234.7824L13036.8764,-3234.8601L13036.9363,-3234.8991L13036.9659,-3234.9126L13037.0702,-3234.9498L13037.1243,-3234.9665L13037.1576,-3234.9691L13037.1966,-3234.9668L13037.2438,-3234.9596L13037.3003,-3234.9457L13037.3493,-3234.9252L13037.3744,-3234.9106L13037.4058,-3234.8873L13037.4249,-3234.8608L13037.4457,-3234.8273L13037.4608,-3234.7939L13037.4711,-3234.7583L13037.4796,-3234.699L13037.4835,-3234.6444L13037.4856,-3234.5865L13037.4838,-3234.5619L13037.4793,-3234.5247L13037.4666,-3234.4616L13037.4533,-3234.4116L13037.446,-3234.3793L13037.4445,-3234.375"/>
<path content="1,（有）御所浦タクシー,田の頭線,2.0,2.0,2.0," xlink:title="1" d="M13034.1797,-3234.3849L13034.2002,-3234.3952L13034.2196,-3234.4054L13034.2293,-3234.4131L13034.2377,-3234.427L13034.2692,-3234.4772L13034.2776,-3234.4916L13034.2861,-3234.5024L13034.3024,-3234.5162L13034.3278,-3234.5444L13034.333,-3234.5541L13034.3345,-3234.567L13034.3345,-3234.5798L13034.329,-3234.5926L13034.3266,-3234.606L13034.3266,-3234.6162L13034.3381,-3234.6378L13034.3425,-3234.6469L13034.1797,-3234.6844"/>
</g>
</svg>
