<?xml version="1.0" encoding="UTF-8"?>
<svg  xmlns="http://www.w3.org/2000/svg" xmlns:xlink="http://www.w3.org/1999/xlink" xmlns:go="http://purl.org/svgmap/profile" property="N07_001,N07_002,N07_003,N07_004,N07_005,N07_006,N07_007" viewBox="13590.087890625 -3495.849609375 2.197265625 2.197265625" go:dataArea="13590.087890625 -3495.849609375 2.197265625 2.197265625" >
<metadata>
 <rdf:RDF xmlns:rdf="http://www.w3.org/1999/02/22-rdf-syntax-ns#" xmlns:crs="http://opengis.org/xmldtds/transformations.dtd" xmlns:svg="http://www.w3.org/svg" >
  <rdf:Description>
   <crs:CoordinateReferenceSystem rdf:resource="http://purl.org/crs/84" svg:transform="matrix(100.0,0.0,0.0,-100.0,0.0,0.0)" />
  </rdf:Description>
 </rdf:RDF>
</metadata>
<globalCoordinateSystem srsName="http://purl.org/crs/84" transform="matrix(100.0,0.0,0.0,-100.0,0.0,0.0)" />
<defs>
 <g id="p0" >
  <circle cx="0.0" cy="0.0" r="3" stroke="green" stroke-width="0.75" vector-effect="non-scaling-stroke" />
 </g>
</defs>
<g fill="none" fill-rule="evenodd" stroke="#FF00FF" stroke-width="0.75" opacity="0.5" vector-effect="non-scaling-stroke" stroke-linejoin="bevel" >
<path content="1,京阪バス（株）,大津営業所1,46.0,42.0,37.0," xlink:title="1" d="M13590.9942,-3495.8496L13590.9954,-3495.8247L13590.9924,-3495.7628L13590.9926,-3495.7514L13590.996,-3495.6712L13590.9971,-3495.6507L13590.9981,-3495.6316L13591.0002,-3495.5914L13590.9998,-3495.5763L13591.0022,-3495.5587L13591.0043,-3495.5311L13591.0077,-3495.4787L13590.9085,-3495.4674L13590.8011,-3495.4561L13590.7963,-3495.455L13590.7847,-3495.4533L13590.7404,-3495.4502L13590.6095,-3495.4342L13590.5138,-3495.4234L13590.4594,-3495.416L13590.4402,-3495.4156L13590.4274,-3495.4117L13590.4076,-3495.409L13590.3975,-3495.4086L13590.3636,-3495.4054L13590.3324,-3495.4024L13590.3281,-3495.4057L13590.2828,-3495.4059L13590.2353,-3495.4059L13590.1764,-3495.4082L13590.1456,-3495.4105L13590.1217,-3495.4127L13590.1054,-3495.4156L13590.0968,-3495.4164L13590.0879,-3495.4177"/>
<path content="1,京阪バス（株）,大津営業所11,1.5,0.0,0.0," xlink:title="1" d="M13590.9942,-3495.8496L13590.9954,-3495.8247L13590.9924,-3495.7628L13590.9926,-3495.7514L13590.996,-3495.6712L13590.9971,-3495.6507L13590.9981,-3495.6316L13591.0002,-3495.5914L13590.9998,-3495.5763L13591.0022,-3495.5587L13591.0043,-3495.5311L13591.0077,-3495.4787L13590.9085,-3495.4674L13590.8011,-3495.4561L13590.7963,-3495.455L13590.7847,-3495.4533L13590.7404,-3495.4502L13590.6095,-3495.4342L13590.5138,-3495.4234L13590.4594,-3495.416L13590.4402,-3495.4156L13590.4274,-3495.4117L13590.4076,-3495.409L13590.3975,-3495.4086L13590.3636,-3495.4054L13590.3324,-3495.4024L13590.3281,-3495.4057L13590.2828,-3495.4059L13590.2353,-3495.4059L13590.1764,-3495.4082L13590.1456,-3495.4105L13590.1217,-3495.4127L13590.1054,-3495.4156L13590.0968,-3495.4164L13590.0879,-3495.4177"/>
<path content="1,京阪バス（株）,大津営業所14,29.7,72.0,58.0," xlink:title="1" d="M13590.9942,-3495.8496L13590.9954,-3495.8247L13590.9924,-3495.7628L13590.9926,-3495.7514L13590.996,-3495.6712L13590.9971,-3495.6507L13590.9981,-3495.6316L13591.0002,-3495.5914L13590.9998,-3495.5763L13591.0022,-3495.5587L13591.0043,-3495.5311L13591.0077,-3495.4787L13591.0111,-3495.4195L13591.0132,-3495.4049L13591.0173,-3495.3429L13591.0173,-3495.3237L13591.0186,-3495.2488L13591.0186,-3495.2172L13591.0189,-3495.1571L13591.0196,-3495.1018L13591.0193,-3495.0831L13591.0234,-3495.0577L13591.0405,-3495.0081L13591.0624,-3494.9337L13591.0693,-3494.8887L13591.069,-3494.8436L13591.0706,-3494.8284L13591.0734,-3494.7686L13591.0727,-3494.7585L13591.07,-3494.7461L13591.0536,-3494.7033L13591.0522,-3494.6959L13591.0399,-3494.6706L13591.0344,-3494.661L13591.0228,-3494.6458L13590.9817,-3494.6018L13590.9282,-3494.5484L13590.9153,-3494.5329L13590.8998,-3494.5165L13590.8973,-3494.5139L13590.8821,-3494.4979L13590.8799,-3494.4956L13590.8374,-3494.4508L13590.8353,-3494.4491L13590.8223,-3494.4277L13590.8141,-3494.4029L13590.7931,-3494.3178L13590.7935,-3494.3068L13590.7958,-3494.2952L13590.7996,-3494.2877L13590.8339,-3494.2598L13590.8479,-3494.2494L13590.9249,-3494.1842L13590.9318,-3494.1752L13590.9332,-3494.1696L13590.9345,-3494.1639L13590.9345,-3494.1481L13590.9229,-3494.0715L13590.9213,-3494.0483L13590.9174,-3494.0005L13590.9192,-3493.9429L13590.9181,-3493.8923L13590.9134,-3493.7914L13590.9113,-3493.7233L13590.9195,-3493.6872L13590.9208,-3493.6811L13590.9291,-3493.6652L13590.9375,-3493.6523"/>
<path content="1,京阪バス（株）,大津営業所2,33.0,37.0,31.0," xlink:title="1" d="M13590.9942,-3495.8496L13590.9954,-3495.8247L13590.9924,-3495.7628L13590.9926,-3495.7514L13590.996,-3495.6712L13590.9971,-3495.6507L13590.9981,-3495.6316L13591.0002,-3495.5914L13590.9998,-3495.5763L13591.0022,-3495.5587L13591.0043,-3495.5311L13591.0077,-3495.4787L13591.0111,-3495.4195L13591.0132,-3495.4049L13591.0173,-3495.3429L13591.0173,-3495.3237L13591.0186,-3495.2488L13591.0186,-3495.2172L13591.0189,-3495.1571L13591.0196,-3495.1018L13591.0193,-3495.0831L13591.0234,-3495.0577L13591.0405,-3495.0081L13591.0624,-3494.9337L13591.0693,-3494.8887L13591.069,-3494.8436L13591.0706,-3494.8284L13591.0734,-3494.7686L13591.0727,-3494.7585L13591.07,-3494.7461L13591.0536,-3494.7033L13591.0522,-3494.6959L13591.0399,-3494.6706L13591.0344,-3494.661L13591.0228,-3494.6458L13590.9817,-3494.6018L13590.9282,-3494.5484L13590.9153,-3494.5329L13590.8998,-3494.5165L13590.8973,-3494.5139L13590.8821,-3494.4979L13590.8799,-3494.4956L13590.8374,-3494.4508L13590.8353,-3494.4491L13590.8223,-3494.4277L13590.8141,-3494.4029L13590.7931,-3494.3178L13590.7935,-3494.3068L13590.7958,-3494.2952L13590.7996,-3494.2877L13590.8339,-3494.2598L13590.8479,-3494.2494L13590.9249,-3494.1842L13590.9318,-3494.1752L13590.9332,-3494.1696L13590.9345,-3494.1639L13590.9345,-3494.1481L13590.9229,-3494.0715L13590.9213,-3494.0483L13590.9174,-3494.0005L13590.9192,-3493.9429L13590.9181,-3493.8923L13590.9134,-3493.7914L13590.9113,-3493.7233L13590.9195,-3493.6872L13590.9208,-3493.6811L13590.9291,-3493.6652L13590.9375,-3493.6523"/>
<path content="1,京阪バス（株）,大津営業所4,57.0,68.0,57.3," xlink:title="1" d="M13590.9942,-3495.8496L13590.9954,-3495.8247L13590.9924,-3495.7628L13590.9926,-3495.7514L13590.996,-3495.6712L13590.9971,-3495.6507L13590.9981,-3495.6316L13591.0002,-3495.5914L13590.9998,-3495.5763L13591.0022,-3495.5587L13591.0043,-3495.5311L13591.0077,-3495.4787L13591.0111,-3495.4195L13591.0132,-3495.4049L13591.0173,-3495.3429L13591.0173,-3495.3237L13591.0186,-3495.2488L13591.0186,-3495.2172L13591.0189,-3495.1571L13591.0196,-3495.1018L13591.0193,-3495.0831L13591.0234,-3495.0577L13591.0405,-3495.0081L13591.0624,-3494.9337L13591.0693,-3494.8887L13591.069,-3494.8436L13591.0706,-3494.8284L13591.0734,-3494.7686L13591.0727,-3494.7585L13591.07,-3494.7461L13591.0536,-3494.7033L13591.0522,-3494.6959L13591.0399,-3494.6706L13591.0344,-3494.661L13591.0228,-3494.6458L13590.9817,-3494.6018L13590.9282,-3494.5484L13590.9153,-3494.5329L13590.8998,-3494.5165L13590.8973,-3494.5139L13590.8821,-3494.4979L13590.8799,-3494.4956L13590.8374,-3494.4508L13590.8353,-3494.4491L13590.8223,-3494.4277L13590.8141,-3494.4029L13590.7931,-3494.3178L13590.7935,-3494.3068L13590.7958,-3494.2952L13590.7996,-3494.2877L13590.8339,-3494.2598L13590.8479,-3494.2494L13590.9249,-3494.1842L13590.9318,-3494.1752L13590.9332,-3494.1696L13590.9345,-3494.1639L13590.9345,-3494.1481L13590.9229,-3494.0715L13590.9213,-3494.0483L13590.9174,-3494.0005L13590.9192,-3493.9429L13590.9181,-3493.8923L13590.9134,-3493.7914L13590.9113,-3493.7233L13590.9195,-3493.6872L13590.9208,-3493.6811L13590.9291,-3493.6652L13590.9375,-3493.6523"/>
<path content="1,京阪バス（株）,大津営業所50,1.0,1.0,0.0," xlink:title="1" d="M13590.9942,-3495.8496L13590.9954,-3495.8247L13590.9924,-3495.7628L13590.9926,-3495.7514L13590.996,-3495.6712L13590.9971,-3495.6507L13590.9981,-3495.6316L13591.0002,-3495.5914L13590.9998,-3495.5763L13591.0022,-3495.5587L13591.0043,-3495.5311L13591.0077,-3495.4787L13590.9085,-3495.4674L13590.8011,-3495.4561L13590.7963,-3495.455L13590.7847,-3495.4533L13590.7404,-3495.4502L13590.6095,-3495.4342L13590.5138,-3495.4234L13590.4594,-3495.416L13590.4402,-3495.4156L13590.4274,-3495.4117L13590.4076,-3495.409L13590.4056,-3495.4009L13590.4036,-3495.3964L13590.4015,-3495.3885L13590.3933,-3495.3688L13590.3885,-3495.3569L13590.3802,-3495.3345L13590.368,-3495.3012L13590.3652,-3495.2848L13590.3639,-3495.2476L13590.3632,-3495.2239L13590.3577,-3495.211L13590.3407,-3495.1862L13590.3393,-3495.1856L13590.3188,-3495.1619L13590.2572,-3495.096L13590.245,-3495.0821L13590.223,-3495.0481L13590.2113,-3495.0272L13590.199,-3494.9963L13590.1942,-3494.9827L13590.1689,-3494.9112L13590.1539,-3494.8864L13590.145,-3494.8734L13590.1299,-3494.8559L13590.1258,-3494.8531L13590.1078,-3494.8461L13590.0964,-3494.834L13590.0879,-3494.8286"/>
<path content="1,京阪バス（株）,大津営業所52,14.7,16.0,14.3," xlink:title="1" d="M13590.9942,-3495.8496L13590.9954,-3495.8247L13590.9924,-3495.7628L13590.9926,-3495.7514L13590.996,-3495.6712L13590.9971,-3495.6507L13590.9981,-3495.6316L13591.0002,-3495.5914L13590.9998,-3495.5763L13591.0022,-3495.5587L13591.0043,-3495.5311L13591.0077,-3495.4787L13590.9085,-3495.4674L13590.8011,-3495.4561L13590.7963,-3495.455L13590.7847,-3495.4533L13590.7404,-3495.4502L13590.6095,-3495.4342L13590.5138,-3495.4234L13590.4594,-3495.416L13590.4402,-3495.4156L13590.4274,-3495.4117L13590.4076,-3495.409L13590.4056,-3495.4009L13590.4036,-3495.3964L13590.4015,-3495.3885L13590.3933,-3495.3688L13590.3885,-3495.3569L13590.3802,-3495.3345L13590.368,-3495.3012L13590.3652,-3495.2848L13590.3639,-3495.2476L13590.3632,-3495.2239L13590.3577,-3495.211L13590.3407,-3495.1862L13590.3393,-3495.1856L13590.3188,-3495.1619L13590.2572,-3495.096L13590.245,-3495.0821L13590.223,-3495.0481L13590.2113,-3495.0272L13590.199,-3494.9963L13590.1942,-3494.9827L13590.1689,-3494.9112L13590.1539,-3494.8864L13590.145,-3494.8734L13590.1299,-3494.8559L13590.1258,-3494.8531L13590.1078,-3494.8461L13590.0964,-3494.834L13590.0879,-3494.8286M13590.0879,-3494.157L13590.1272,-3494.1566L13590.1491,-3494.1566L13590.1902,-3494.1583L13590.2052,-3494.1588L13590.2121,-3494.1599L13590.282,-3494.1617L13590.3256,-3494.1639L13590.3708,-3494.1651L13590.3865,-3494.1668L13590.4707,-3494.1701L13590.4754,-3494.1707L13590.4898,-3494.1707L13590.524,-3494.1769L13590.5418,-3494.1808L13590.5795,-3494.1961L13590.5906,-3494.1992L13590.6071,-3494.2113L13590.6171,-3494.2186L13590.6691,-3494.2665L13590.6922,-3494.2852L13590.7006,-3494.2936L13590.7163,-3494.3026L13590.7307,-3494.3076L13590.7464,-3494.3116L13590.7751,-3494.3172L13590.7931,-3494.3178L13590.7935,-3494.3068L13590.7958,-3494.2952L13590.7996,-3494.2877L13590.8339,-3494.2598L13590.8479,-3494.2494L13590.9249,-3494.1842L13590.9318,-3494.1752L13590.9332,-3494.1696L13590.9345,-3494.1639L13590.9345,-3494.1481L13590.9229,-3494.0715L13590.9213,-3494.0483L13590.9174,-3494.0005L13590.9192,-3493.9429L13590.9181,-3493.8923L13590.9134,-3493.7914L13590.9113,-3493.7233L13590.9195,-3493.6872L13590.9208,-3493.6811L13590.9291,-3493.6652L13590.9375,-3493.6523"/>
<path content="1,京阪バス（株）,大津営業所53,4.0,4.0,4.0," xlink:title="1" d="M13590.0879,-3494.157L13590.1272,-3494.1566L13590.1491,-3494.1566L13590.1902,-3494.1583L13590.2052,-3494.1588L13590.2121,-3494.1599L13590.282,-3494.1617L13590.3256,-3494.1639L13590.3708,-3494.1651L13590.3865,-3494.1668L13590.4707,-3494.1701L13590.4754,-3494.1707L13590.4898,-3494.1707L13590.524,-3494.1769L13590.5418,-3494.1808L13590.5795,-3494.1961L13590.5906,-3494.1992L13590.6071,-3494.2113L13590.6171,-3494.2186L13590.6691,-3494.2665L13590.6922,-3494.2852"/>
<path content="1,京阪バス（株）,大津営業所53,4.0,4.0,4.0," xlink:title="1" d="M13590.9942,-3495.8496L13590.9954,-3495.8247L13590.9924,-3495.7628L13590.9926,-3495.7514L13590.996,-3495.6712L13590.9971,-3495.6507L13590.9981,-3495.6316L13591.0002,-3495.5914L13590.9998,-3495.5763L13591.0022,-3495.5587L13591.0043,-3495.5311L13591.0077,-3495.4787L13590.9085,-3495.4674L13590.8011,-3495.4561L13590.7963,-3495.455L13590.7847,-3495.4533L13590.7404,-3495.4502L13590.6095,-3495.4342L13590.5138,-3495.4234L13590.4594,-3495.416L13590.4402,-3495.4156L13590.4274,-3495.4117L13590.4076,-3495.409L13590.4056,-3495.4009L13590.4036,-3495.3964L13590.4015,-3495.3885L13590.3933,-3495.3688L13590.3885,-3495.3569L13590.3802,-3495.3345L13590.368,-3495.3012L13590.3652,-3495.2848L13590.3639,-3495.2476L13590.3632,-3495.2239L13590.3577,-3495.211L13590.3407,-3495.1862L13590.3393,-3495.1856L13590.3188,-3495.1619L13590.2572,-3495.096L13590.245,-3495.0821L13590.223,-3495.0481L13590.2113,-3495.0272L13590.199,-3494.9963L13590.1942,-3494.9827L13590.1689,-3494.9112L13590.1539,-3494.8864L13590.145,-3494.8734L13590.1299,-3494.8559L13590.1258,-3494.8531L13590.1078,-3494.8461L13590.0964,-3494.834L13590.0879,-3494.8286"/>
<path content="1,京阪バス（株）,大津営業所54,10.3,22.0,19.0," xlink:title="1" d="M13590.9942,-3495.8496L13590.9954,-3495.8247L13590.9924,-3495.7628L13590.9926,-3495.7514L13590.996,-3495.6712L13590.9971,-3495.6507L13590.9981,-3495.6316L13591.0002,-3495.5914L13590.9998,-3495.5763L13591.0022,-3495.5587L13591.0043,-3495.5311L13591.0077,-3495.4787L13590.9085,-3495.4674L13590.8011,-3495.4561L13590.7963,-3495.455L13590.7847,-3495.4533L13590.7404,-3495.4502L13590.6095,-3495.4342L13590.5138,-3495.4234L13590.4594,-3495.416L13590.4402,-3495.4156L13590.4274,-3495.4117L13590.4076,-3495.409L13590.4056,-3495.4009L13590.4036,-3495.3964L13590.4015,-3495.3885L13590.3933,-3495.3688L13590.3885,-3495.3569L13590.3802,-3495.3345L13590.368,-3495.3012L13590.3652,-3495.2848L13590.3639,-3495.2476L13590.3632,-3495.2239L13590.3577,-3495.211L13590.3407,-3495.1862L13590.3393,-3495.1856L13590.3188,-3495.1619L13590.2572,-3495.096L13590.245,-3495.0821L13590.223,-3495.0481L13590.2113,-3495.0272L13590.199,-3494.9963L13590.1942,-3494.9827L13590.1689,-3494.9112L13590.1539,-3494.8864L13590.145,-3494.8734L13590.1299,-3494.8559L13590.1258,-3494.8531L13590.1078,-3494.8461L13590.0964,-3494.834L13590.0879,-3494.8286M13590.0879,-3494.157L13590.1272,-3494.1566L13590.1491,-3494.1566L13590.1902,-3494.1583L13590.2052,-3494.1588L13590.2121,-3494.1599L13590.282,-3494.1617L13590.3256,-3494.1639L13590.3708,-3494.1651L13590.3865,-3494.1668L13590.4707,-3494.1701L13590.4754,-3494.1707L13590.4898,-3494.1707L13590.524,-3494.1769L13590.5418,-3494.1808L13590.5795,-3494.1961L13590.5906,-3494.1992L13590.6071,-3494.2113L13590.6171,-3494.2186L13590.6691,-3494.2665L13590.6922,-3494.2852L13590.7006,-3494.2936L13590.7163,-3494.3026L13590.7307,-3494.3076L13590.7464,-3494.3116L13590.7751,-3494.3172L13590.7931,-3494.3178L13590.7935,-3494.3068L13590.7958,-3494.2952L13590.7996,-3494.2877L13590.8339,-3494.2598L13590.8479,-3494.2494L13590.9249,-3494.1842L13590.9318,-3494.1752L13590.9332,-3494.1696L13590.9345,-3494.1639L13590.9345,-3494.1481L13590.9229,-3494.0715L13590.9213,-3494.0483L13590.9174,-3494.0005L13590.9192,-3493.9429L13590.9181,-3493.8923L13590.9134,-3493.7914L13590.9113,-3493.7233L13590.9195,-3493.6872L13590.9208,-3493.6811L13590.9291,-3493.6652L13590.9375,-3493.6523"/>
<path content="1,京阪バス（株）,大津営業所NS,1.0,0.0,0.0," xlink:title="1" d="M13590.0879,-3495.4177L13590.0968,-3495.4164L13590.1054,-3495.4156L13590.1217,-3495.4127L13590.1456,-3495.4105L13590.1764,-3495.4082L13590.2353,-3495.4059L13590.2828,-3495.4059L13590.3281,-3495.4057L13590.3324,-3495.4024L13590.3636,-3495.4054L13590.3975,-3495.4086L13590.4076,-3495.409L13590.4056,-3495.4009L13590.4036,-3495.3964L13590.4015,-3495.3885L13590.3933,-3495.3688L13590.3885,-3495.3569L13590.3802,-3495.3345L13590.368,-3495.3012L13590.3652,-3495.2848L13590.3639,-3495.2476L13590.3632,-3495.2239L13590.3577,-3495.211L13590.3407,-3495.1862L13590.3393,-3495.1856L13590.3188,-3495.1619L13590.2572,-3495.096L13590.245,-3495.0821L13590.223,-3495.0481L13590.2113,-3495.0272L13590.199,-3494.9963L13590.1942,-3494.9827L13590.4084,-3494.9653"/>
<path content="1,京阪宇治バス（株）,京阪中書島～立命館大学線,14.0,0.0,0.0," xlink:title="1" d="M13590.0879,-3495.1054L13590.1114,-3495.1237L13590.144,-3495.1569L13590.1446,-3495.1574L13590.1565,-3495.169L13590.1971,-3495.2086L13590.262,-3495.2805L13590.3441,-3495.3853L13590.3636,-3495.4054L13590.4023,-3495.4452L13590.4092,-3495.4523L13590.4179,-3495.4598L13590.4658,-3495.5011L13590.4877,-3495.5199L13590.5498,-3495.5581L13590.5595,-3495.5629L13590.6142,-3495.5903L13590.6758,-3495.6129L13590.7258,-3495.6292L13590.7584,-3495.6359L13590.7911,-3495.641L13590.8033,-3495.643L13590.8137,-3495.6438L13590.8153,-3495.644L13590.8498,-3495.6473L13590.8978,-3495.6476L13590.9798,-3495.6501L13590.9971,-3495.6507L13591.0817,-3495.6532L13591.1257,-3495.6561L13591.139,-3495.6564L13591.14,-3495.6564L13591.1762,-3495.6596L13591.2053,-3495.6639L13591.2761,-3495.6812L13591.2916,-3495.6871L13591.359,-3495.7138L13591.42,-3495.7489L13591.4927,-3495.8045L13591.516,-3495.8271L13591.5393,-3495.8496"/>
<path content="1,帝産湖南交通（株）,ミホミュージアム線,6.0,7.0,7.0," xlink:title="1" d="M13591.1303,-3495.8496L13591.135,-3495.8101L13591.137,-3495.7616L13591.137,-3495.7374L13591.1384,-3495.6737L13591.139,-3495.6564L13591.1397,-3495.6377L13591.14,-3495.6228L13591.1439,-3495.5266L13591.1614,-3495.258L13591.1692,-3495.1609L13591.1692,-3495.1586L13591.1733,-3495.1011L13591.176,-3495.0916L13591.1849,-3495.0758L13591.1972,-3495.0532L13591.2171,-3495.0217L13591.228,-3495.0025L13591.2444,-3494.967L13591.2551,-3494.9394L13591.2595,-3494.9219L13591.2636,-3494.8988L13591.2656,-3494.8729L13591.2656,-3494.8289L13591.2616,-3494.7692L13591.2595,-3494.7331L13591.2574,-3494.7145L13591.2574,-3494.7095L13591.2506,-3494.6909L13591.2595,-3494.6773L13591.263,-3494.6671L13591.2677,-3494.6542L13591.2753,-3494.6435L13591.3024,-3494.6183L13591.3273,-3494.6002L13591.3895,-3494.5579L13591.4079,-3494.5461L13591.4278,-3494.537L13591.449,-3494.5303L13591.4873,-3494.5212L13591.5229,-3494.5128L13591.5783,-3494.5032L13591.5927,-3494.4984L13591.5948,-3494.4967L13591.6101,-3494.4932L13591.6235,-3494.487L13591.6332,-3494.4816L13591.6365,-3494.4796L13591.6515,-3494.4694L13591.6604,-3494.4615L13591.6673,-3494.4547L13591.683,-3494.4344L13591.6933,-3494.417L13591.7015,-3494.3933L13591.7015,-3494.3719L13591.6974,-3494.3522L13591.7301,-3494.3381L13591.7384,-3494.3347L13591.7631,-3494.3392L13591.7932,-3494.346L13591.8226,-3494.3516L13591.841,-3494.3539L13591.871,-3494.3535L13591.8848,-3494.3556L13591.9266,-3494.3561L13591.9355,-3494.3584L13591.9424,-3494.3611L13591.956,-3494.3663L13591.9902,-3494.3832L13592.0039,-3494.3911L13592.0135,-3494.3956L13592.0243,-3494.4015L13592.0436,-3494.4119L13592.0914,-3494.4367L13592.1161,-3494.4474L13592.1428,-3494.457L13592.153,-3494.4598L13592.1777,-3494.4655L13592.2468,-3494.47L13592.2852,-3494.4716"/>
<path content="1,帝産湖南交通（株）,石山・田上車庫（太子）,20.0,18.0,18.0," xlink:title="1" d="M13591.1303,-3495.8496L13591.135,-3495.8101L13591.137,-3495.7616L13591.137,-3495.7374L13591.1384,-3495.6737L13591.139,-3495.6564L13591.1397,-3495.6377L13591.14,-3495.6228L13591.1439,-3495.5266L13591.1614,-3495.258L13591.1692,-3495.1609L13591.1692,-3495.1586L13591.1733,-3495.1011L13591.176,-3495.0916L13591.1849,-3495.0758L13591.1972,-3495.0532L13591.2171,-3495.0217L13591.228,-3495.0025L13591.2444,-3494.967L13591.2551,-3494.9394L13591.2595,-3494.9219L13591.2636,-3494.8988L13591.2656,-3494.8729L13591.2656,-3494.8289L13591.2616,-3494.7692L13591.2595,-3494.7331L13591.2574,-3494.7145L13591.2574,-3494.7095L13591.2506,-3494.6909L13591.2595,-3494.6773L13591.263,-3494.6671L13591.2677,-3494.6542L13591.2753,-3494.6435L13591.3024,-3494.6183L13591.3273,-3494.6002L13591.3895,-3494.5579L13591.4079,-3494.5461L13591.4278,-3494.537L13591.449,-3494.5303L13591.4873,-3494.5212L13591.5229,-3494.5128L13591.5783,-3494.5032L13591.5927,-3494.4984L13591.5948,-3494.4967L13591.6101,-3494.4932L13591.6235,-3494.487L13591.6332,-3494.4816L13591.6365,-3494.4796L13591.6515,-3494.4694L13591.6604,-3494.4615L13591.6673,-3494.4547L13591.683,-3494.4344L13591.6933,-3494.417L13591.7015,-3494.3933L13591.7015,-3494.3719L13591.6974,-3494.3522L13591.6796,-3494.324L13591.644,-3494.297L13591.5866,-3494.2586L13591.5606,-3494.2389L13591.4908,-3494.1685L13591.4644,-3494.1428L13591.4552,-3494.1268L13591.454,-3494.1219L13591.4531,-3494.1155L13591.4523,-3494.0801L13591.4523,-3494.0615L13591.4599,-3494.0576L13591.4627,-3494.0551L13591.5152,-3493.9971L13591.5201,-3493.9924L13591.4997,-3493.9684L13591.4805,-3493.9459L13591.4607,-3493.9216L13591.4354,-3493.8856L13591.4306,-3493.8743L13591.419,-3493.8394L13591.4142,-3493.8157L13591.4121,-3493.7824L13591.4135,-3493.7464L13591.4183,-3493.7227L13591.4285,-3493.6838L13591.4374,-3493.659L13591.4403,-3493.6523"/>
<path content="1,帝産湖南交通（株）,石山・田上車庫（石居町）,13.5,10.5,10.5," xlink:title="1" d="M13591.1303,-3495.8496L13591.135,-3495.8101L13591.137,-3495.7616L13591.137,-3495.7374L13591.1384,-3495.6737L13591.139,-3495.6564L13591.1397,-3495.6377L13591.14,-3495.6228L13591.1439,-3495.5266L13591.1614,-3495.258L13591.1692,-3495.1609L13591.1692,-3495.1586L13591.1733,-3495.1011L13591.176,-3495.0916L13591.1849,-3495.0758L13591.1972,-3495.0532L13591.2171,-3495.0217L13591.228,-3495.0025L13591.2444,-3494.967L13591.2551,-3494.9394L13591.2595,-3494.9219L13591.2636,-3494.8988L13591.2656,-3494.8729L13591.2656,-3494.8289L13591.2616,-3494.7692L13591.2595,-3494.7331L13591.2574,-3494.7145L13591.2574,-3494.7095L13591.2506,-3494.6909L13591.2595,-3494.6773L13591.263,-3494.6671L13591.2677,-3494.6542L13591.2753,-3494.6435L13591.3024,-3494.6183L13591.3273,-3494.6002L13591.3895,-3494.5579L13591.4079,-3494.5461L13591.4278,-3494.537L13591.449,-3494.5303L13591.4873,-3494.5212L13591.5229,-3494.5128L13591.5783,-3494.5032L13591.5927,-3494.4984L13591.5948,-3494.4967L13591.6101,-3494.4932L13591.6235,-3494.487L13591.6332,-3494.4816L13591.6365,-3494.4796L13591.6515,-3494.4694L13591.6604,-3494.4615L13591.6673,-3494.4547L13591.683,-3494.4344L13591.6933,-3494.417L13591.7015,-3494.3933L13591.7015,-3494.3719L13591.6974,-3494.3522L13591.7301,-3494.3381L13591.7384,-3494.3347L13591.7631,-3494.3392L13591.7932,-3494.346L13591.8226,-3494.3516L13591.841,-3494.3539L13591.871,-3494.3535L13591.8848,-3494.3556L13591.9266,-3494.3561L13591.9355,-3494.3584L13591.9424,-3494.3611L13591.956,-3494.3663L13591.9902,-3494.3832L13592.0039,-3494.3911L13592.0135,-3494.3956L13592.0243,-3494.4015L13592.0436,-3494.4119L13592.0914,-3494.4367L13592.1161,-3494.4474L13592.1428,-3494.457L13592.153,-3494.4598L13592.1777,-3494.4655L13592.2468,-3494.47L13592.2852,-3494.4716"/>
<path content="1,帝産湖南交通（株）,石山・田上車庫（里）,5.0,0.0,0.0," xlink:title="1" d="M13591.1303,-3495.8496L13591.135,-3495.8101L13591.137,-3495.7616L13591.137,-3495.7374L13591.1384,-3495.6737L13591.139,-3495.6564L13591.1397,-3495.6377L13591.14,-3495.6228L13591.1439,-3495.5266L13591.1614,-3495.258L13591.1692,-3495.1609L13591.1692,-3495.1586L13591.1733,-3495.1011L13591.176,-3495.0916L13591.1849,-3495.0758L13591.1972,-3495.0532L13591.2171,-3495.0217L13591.228,-3495.0025L13591.2444,-3494.967L13591.2551,-3494.9394L13591.2595,-3494.9219L13591.2636,-3494.8988L13591.2656,-3494.8729L13591.2656,-3494.8289L13591.2616,-3494.7692L13591.2595,-3494.7331L13591.2574,-3494.7145L13591.2574,-3494.7095L13591.2506,-3494.6909L13591.2595,-3494.6773L13591.263,-3494.6671L13591.2677,-3494.6542L13591.2753,-3494.6435L13591.3024,-3494.6183L13591.3273,-3494.6002L13591.3895,-3494.5579L13591.4079,-3494.5461L13591.4278,-3494.537L13591.449,-3494.5303L13591.4873,-3494.5212L13591.5229,-3494.5128L13591.5783,-3494.5032L13591.5927,-3494.4984L13591.5948,-3494.4967L13591.6101,-3494.4932L13591.6235,-3494.487L13591.6332,-3494.4816L13591.6365,-3494.4796L13591.6515,-3494.4694L13591.6604,-3494.4615L13591.6673,-3494.4547L13591.683,-3494.4344L13591.6933,-3494.417L13591.7015,-3494.3933L13591.7015,-3494.3719L13591.6974,-3494.3522L13591.6796,-3494.324L13591.644,-3494.297L13591.5866,-3494.2586L13591.5606,-3494.2389L13591.4908,-3494.1685L13591.4644,-3494.1428L13591.4552,-3494.1268L13591.454,-3494.1219L13591.4531,-3494.1155L13591.4523,-3494.0801L13591.4523,-3494.0615L13591.4599,-3494.0576L13591.4627,-3494.0551L13591.5152,-3493.9971L13591.5201,-3493.9924L13591.5537,-3494.0169L13591.5872,-3494.0428L13591.6516,-3494.0828L13591.6769,-3494.0963L13591.7446,-3494.1369L13591.8055,-3494.1719L13591.8315,-3494.1859L13591.8424,-3494.1921L13591.8892,-3494.2166L13591.9923,-3494.2598L13592.047,-3494.2823L13592.1031,-3494.306L13592.1311,-3494.3156L13592.1441,-3494.3206L13592.1756,-3494.3096L13592.2694,-3494.2818L13592.2852,-3494.2778"/>
<path content="1,帝産湖南交通（株）,石山・登山口,19.5,16.0,16.0," xlink:title="1" d="M13591.1303,-3495.8496L13591.135,-3495.8101L13591.137,-3495.7616L13591.137,-3495.7374L13591.1384,-3495.6737L13591.139,-3495.6564L13591.1397,-3495.6377L13591.14,-3495.6228L13591.1439,-3495.5266L13591.1614,-3495.258L13591.1692,-3495.1609L13591.1692,-3495.1586L13591.1733,-3495.1011L13591.176,-3495.0916L13591.1849,-3495.0758L13591.1972,-3495.0532L13591.2171,-3495.0217L13591.228,-3495.0025L13591.2444,-3494.967L13591.2551,-3494.9394L13591.2595,-3494.9219L13591.2636,-3494.8988L13591.2656,-3494.8729L13591.2656,-3494.8289L13591.2616,-3494.7692L13591.2595,-3494.7331L13591.2574,-3494.7145L13591.2574,-3494.7095L13591.2506,-3494.6909L13591.2595,-3494.6773L13591.263,-3494.6671L13591.2677,-3494.6542L13591.2753,-3494.6435L13591.3024,-3494.6183L13591.3273,-3494.6002L13591.3895,-3494.5579L13591.4079,-3494.5461L13591.4278,-3494.537L13591.449,-3494.5303L13591.4873,-3494.5212L13591.5229,-3494.5128L13591.5783,-3494.5032L13591.5927,-3494.4984L13591.5948,-3494.4967L13591.6101,-3494.4932L13591.6235,-3494.487L13591.6332,-3494.4816L13591.6365,-3494.4796L13591.6515,-3494.4694L13591.6604,-3494.4615L13591.6673,-3494.4547L13591.683,-3494.4344L13591.6933,-3494.417L13591.7015,-3494.3933L13591.7015,-3494.3719L13591.6974,-3494.3522L13591.6796,-3494.324L13591.644,-3494.297L13591.5866,-3494.2586L13591.5606,-3494.2389L13591.4908,-3494.1685L13591.4644,-3494.1428L13591.4552,-3494.1268L13591.454,-3494.1219L13591.4531,-3494.1155L13591.4523,-3494.0801L13591.4523,-3494.0615L13591.4599,-3494.0576L13591.4627,-3494.0551L13591.5152,-3493.9971L13591.5201,-3493.9924L13591.5537,-3494.0169L13591.5872,-3494.0428L13591.6516,-3494.0828L13591.6769,-3494.0963L13591.7446,-3494.1369L13591.8055,-3494.1719L13591.8315,-3494.1859L13591.8424,-3494.1921L13591.8892,-3494.2166L13591.9923,-3494.2598L13592.047,-3494.2823L13592.1031,-3494.306L13592.1311,-3494.3156L13592.1441,-3494.3206L13592.1756,-3494.3096L13592.2694,-3494.2818L13592.2852,-3494.2778"/>
<path content="1,帝産湖南交通（株）,石山・登山口（もみじ）,16.5,15.0,15.0," xlink:title="1" d="M13591.1303,-3495.8496L13591.135,-3495.8101L13591.137,-3495.7616L13591.137,-3495.7374L13591.1384,-3495.6737L13591.139,-3495.6564L13591.1397,-3495.6377L13591.14,-3495.6228L13591.1439,-3495.5266L13591.1614,-3495.258L13591.1692,-3495.1609L13591.1692,-3495.1586L13591.1733,-3495.1011L13591.176,-3495.0916L13591.1849,-3495.0758L13591.1972,-3495.0532L13591.2171,-3495.0217L13591.228,-3495.0025L13591.2444,-3494.967L13591.2551,-3494.9394L13591.2595,-3494.9219L13591.2636,-3494.8988L13591.2656,-3494.8729L13591.2656,-3494.8289L13591.2616,-3494.7692L13591.2595,-3494.7331L13591.2574,-3494.7145L13591.2574,-3494.7095L13591.2506,-3494.6909L13591.2595,-3494.6773L13591.263,-3494.6671L13591.2677,-3494.6542L13591.2753,-3494.6435L13591.3024,-3494.6183L13591.3273,-3494.6002L13591.3895,-3494.5579L13591.4079,-3494.5461L13591.4278,-3494.537L13591.449,-3494.5303L13591.4873,-3494.5212L13591.5229,-3494.5128L13591.5783,-3494.5032L13591.5927,-3494.4984L13591.5948,-3494.4967L13591.6101,-3494.4932L13591.6235,-3494.487L13591.6332,-3494.4816L13591.6365,-3494.4796L13591.6515,-3494.4694L13591.6604,-3494.4615L13591.6673,-3494.4547L13591.683,-3494.4344L13591.6933,-3494.417L13591.7015,-3494.3933L13591.7015,-3494.3719L13591.6974,-3494.3522L13591.6796,-3494.324L13591.644,-3494.297L13591.5866,-3494.2586L13591.5606,-3494.2389L13591.4908,-3494.1685L13591.4644,-3494.1428L13591.4552,-3494.1268L13591.454,-3494.1219L13591.4531,-3494.1155L13591.4523,-3494.0801L13591.4523,-3494.0615L13591.4599,-3494.0576L13591.4627,-3494.0551L13591.5152,-3493.9971L13591.5201,-3493.9924L13591.4997,-3493.9684L13591.4805,-3493.9459L13591.4607,-3493.9216L13591.4354,-3493.8856L13591.4306,-3493.8743L13591.419,-3493.8394L13591.4142,-3493.8157L13591.4121,-3493.7824L13591.4135,-3493.7464L13591.4183,-3493.7227L13591.4285,-3493.6838L13591.4374,-3493.659L13591.4403,-3493.6523"/>
<path content="1,近江鉄道（株）,野郷原線,35.0,26.0,26.0," xlink:title="1" d="M13592.2852,-3495.6979L13592.2549,-3495.7143L13592.2351,-3495.7194L13592.2029,-3495.7228L13592.0148,-3495.7239L13591.9087,-3495.7244L13591.7938,-3495.7261L13591.7658,-3495.7261L13591.7316,-3495.7278L13591.7014,-3495.734L13591.6727,-3495.7441L13591.646,-3495.7543L13591.6426,-3495.7565L13591.5619,-3495.7847L13591.5297,-3495.7971"/>
<path content="1,近江鉄道（株）,野郷原線,35.0,26.0,26.0," xlink:title="1" d="M13591.5297,-3495.7971L13591.5087,-3495.7787L13591.4891,-3495.7643L13591.4655,-3495.7486L13591.4695,-3495.7379L13591.4695,-3495.7318L13591.4661,-3495.7239L13591.4216,-3495.6883L13591.372,-3495.6454L13591.3204,-3495.6213L13591.2875,-3495.6078L13591.2431,-3495.5937L13591.2218,-3495.5858L13591.2088,-3495.5779L13591.1952,-3495.5689L13591.1439,-3495.5266L13591.15,-3495.419L13591.1514,-3495.4111L13591.1582,-3495.3034L13591.1599,-3495.2775L13591.2156,-3495.2812"/>
<path content="1,近江鉄道（株）,野郷原線,35.0,26.0,26.0," xlink:title="1" d="M13591.5822,-3495.8496L13591.5817,-3495.849L13591.5653,-3495.8304L13591.5615,-3495.8267L13591.549,-3495.8139L13591.5297,-3495.7971"/>
<path content="3,甲賀市,朝宮ルート,9.0,4.0,4.0," xlink:title="3" d="M13590.9942,-3495.8496L13590.9954,-3495.8247L13590.9924,-3495.7628L13590.9926,-3495.7514L13590.996,-3495.6712L13590.9971,-3495.6507L13590.9981,-3495.6316L13591.0002,-3495.5914L13590.9998,-3495.5763L13591.0077,-3495.4787L13591.0111,-3495.4195L13591.0132,-3495.4049L13591.0173,-3495.3429L13591.0173,-3495.3237L13591.0186,-3495.2488L13591.0186,-3495.2172L13591.0196,-3495.1018L13591.0193,-3495.0831L13591.0234,-3495.0577L13591.0405,-3495.0081L13591.0624,-3494.9337L13591.0693,-3494.8887L13591.069,-3494.8436L13591.0706,-3494.8284L13591.0734,-3494.7686L13591.0727,-3494.7585L13591.07,-3494.7461L13591.0536,-3494.7033L13591.0522,-3494.6959L13591.0399,-3494.6706L13591.0344,-3494.661L13591.0228,-3494.6458L13590.9817,-3494.6018L13590.9282,-3494.5484L13590.9153,-3494.5329L13590.8998,-3494.5165L13590.8973,-3494.5139L13590.8821,-3494.4979L13590.8799,-3494.4956L13590.8374,-3494.4508L13590.8353,-3494.4491L13590.8223,-3494.4277L13590.8141,-3494.4029L13590.7931,-3494.3178L13590.7935,-3494.3068L13590.7958,-3494.2952L13590.7996,-3494.2877L13590.8339,-3494.2598L13590.8479,-3494.2494L13590.9249,-3494.1842L13590.9318,-3494.1752L13590.9332,-3494.1696L13590.9345,-3494.1639L13590.9345,-3494.1481L13590.9229,-3494.0715L13590.9213,-3494.0483L13590.9174,-3494.0005L13590.9192,-3493.9429L13590.9181,-3493.8923L13590.9134,-3493.7914L13590.9113,-3493.7233L13590.9208,-3493.6811L13590.9291,-3493.6652L13590.9375,-3493.6523"/>
</g>
</svg>
