<?xml version="1.0" encoding="UTF-8"?>
<svg  xmlns="http://www.w3.org/2000/svg" xmlns:xlink="http://www.w3.org/1999/xlink" xmlns:go="http://purl.org/svgmap/profile" property="N07_001,N07_002,N07_003,N07_004,N07_005,N07_006,N07_007" viewBox="14080.078125 -4236.328125 17.578125 17.578125" go:dataArea="14080.078125 -4236.328125 17.578125 17.578125" >
<metadata>
 <rdf:RDF xmlns:rdf="http://www.w3.org/1999/02/22-rdf-syntax-ns#" xmlns:crs="http://opengis.org/xmldtds/transformations.dtd" xmlns:svg="http://www.w3.org/svg" >
  <rdf:Description>
   <crs:CoordinateReferenceSystem rdf:resource="http://purl.org/crs/84" svg:transform="matrix(100.0,0.0,0.0,-100.0,0.0,0.0)" />
  </rdf:Description>
 </rdf:RDF>
</metadata>
<globalCoordinateSystem srsName="http://purl.org/crs/84" transform="matrix(100.0,0.0,0.0,-100.0,0.0,0.0)" />
<defs>
 <g id="p0" >
  <circle cx="0.0" cy="0.0" r="3" stroke="green" stroke-width="0.75" vector-effect="non-scaling-stroke" />
 </g>
</defs>
<g fill="none" fill-rule="evenodd" stroke="#FF00FF" stroke-width="0.75" opacity="0.5" vector-effect="non-scaling-stroke" stroke-linejoin="bevel" >
<path content="1,北海道中央バス（株）,高速むろらん号,8.0,8.0,8.0," xlink:title="1" d="M14097.4878,-4231.6462L14097.4878,-4231.6462L14097.4687,-4231.6543L14097.4521,-4231.6644L14097.421,-4231.692L14097.4154,-4231.6976L14097.4028,-4231.71L14097.3946,-4231.7213L14097.3884,-4231.7298L14097.3648,-4231.7573L14097.3644,-4231.7578"/>
<path content="1,北海道中央バス（株）,高速むろらん号,8.0,8.0,8.0," xlink:title="1" d="M14097.4878,-4231.6462L14097.5034,-4231.6448L14097.5233,-4231.6448L14097.5289,-4231.6456L14097.5491,-4231.6487L14097.5589,-4231.6504L14097.603,-4231.6566L14097.6114,-4231.6578L14097.6461,-4231.6601L14097.6562,-4231.6608"/>
<path content="1,北海道中央バス（株）,高速むろらん号,8.0,8.0,8.0," xlink:title="1" d="M14097.0212,-4232.1766L14097.0274,-4232.1721L14096.9696,-4232.1409L14096.9826,-4232.1261L14097.0194,-4232.0844L14097.0376,-4232.0585L14097.0459,-4232.0416L14097.0565,-4231.996L14097.0573,-4231.9904L14097.0649,-4231.9566L14097.0824,-4231.8892L14097.0929,-4231.8254L14097.1111,-4231.7444L14097.1202,-4231.7151L14097.124,-4231.7061L14097.134,-4231.6915L14097.1399,-4231.6858L14097.1457,-4231.6821L14097.1559,-4231.6708L14097.1564,-4231.6702L14097.1641,-4231.6616L14097.1816,-4231.647L14097.1982,-4231.6329L14097.2097,-4231.6288L14097.2286,-4231.6222L14097.2505,-4231.6155L14097.2808,-4231.6093L14097.3028,-4231.6059L14097.3125,-4231.6077L14097.318,-4231.5384L14097.4128,-4231.5438L14097.429,-4231.5446L14097.4367,-4231.545L14097.4718,-4231.5795L14097.4839,-4231.5958L14097.4892,-4231.6116L14097.4862,-4231.6268L14097.4834,-4231.6359L14097.4859,-4231.6418L14097.4878,-4231.6462"/>
<path content="1,道南バス（株）,ターミナル線,79.5,77.0,77.0," xlink:title="1" d="M14097.4362,-4231.4506L14097.5112,-4231.4562L14097.5127,-4231.4506L14097.5284,-4231.4035"/>
<path content="1,道南バス（株）,ターミナル線,79.5,77.0,77.0," xlink:title="1" d="M14097.397,-4231.6162L14097.4128,-4231.5438L14097.429,-4231.5446L14097.4367,-4231.545L14097.4362,-4231.4506"/>
<path content="1,道南バス（株）,ターミナル線,79.5,77.0,77.0," xlink:title="1" d="M14097.1982,-4231.6329L14097.1936,-4231.6294L14097.1952,-4231.62L14097.202,-4231.5761L14097.2096,-4231.5293L14097.2172,-4231.4821L14097.224,-4231.4331L14097.2702,-4231.437L14097.3331,-4231.4421L14097.4362,-4231.4506"/>
<path content="1,道南バス（株）,ターミナル線,79.5,77.0,77.0," xlink:title="1" d="M14097.1982,-4231.6329L14097.2097,-4231.6288L14097.2286,-4231.6222L14097.2505,-4231.6155L14097.2808,-4231.6093L14097.3028,-4231.6059L14097.3125,-4231.6077L14097.3331,-4231.607L14097.367,-4231.6114L14097.3688,-4231.6116L14097.3706,-4231.6118L14097.3725,-4231.6121L14097.3817,-4231.6135L14097.3834,-4231.6138L14097.3938,-4231.6155L14097.397,-4231.6162"/>
<path content="1,道南バス（株）,ターミナル線,79.5,77.0,77.0," xlink:title="1" d="M14097.1982,-4231.6329L14097.1816,-4231.647L14097.1641,-4231.6616L14097.1564,-4231.6702L14097.1559,-4231.6708L14097.1457,-4231.6821L14097.1399,-4231.6858L14097.134,-4231.6915L14097.124,-4231.7061L14097.1202,-4231.7151L14097.1111,-4231.7444L14097.0929,-4231.8254L14097.0824,-4231.8892L14097.0649,-4231.9566L14097.1293,-4231.9639L14097.1346,-4231.9662L14097.1801,-4231.9842"/>
<path content="1,道南バス（株）,ターミナル線,79.5,77.0,77.0," xlink:title="1" d="M14097.4878,-4231.6462L14097.4859,-4231.6418L14097.4834,-4231.6359L14097.4792,-4231.635L14097.397,-4231.6162"/>
<path content="1,道南バス（株）,ターミナル線,79.5,77.0,77.0," xlink:title="1" d="M14097.4878,-4231.6462L14097.5034,-4231.6448L14097.5233,-4231.6448L14097.5289,-4231.6456L14097.5491,-4231.6487L14097.5589,-4231.6504L14097.603,-4231.6566L14097.6114,-4231.6578L14097.6461,-4231.6601L14097.6562,-4231.6608"/>
<path content="1,道南バス（株）,ターミナル線,79.5,77.0,77.0," xlink:title="1" d="M14097.1801,-4231.9842L14097.2376,-4231.9133L14097.2422,-4231.9065L14097.2483,-4231.8992L14097.2892,-4231.8491L14097.3127,-4231.8215L14097.3574,-4231.7675L14097.3596,-4231.7644L14097.3644,-4231.7578L14097.3665,-4231.7551L14097.3884,-4231.7298L14097.3946,-4231.7213L14097.4028,-4231.71L14097.4154,-4231.6976L14097.421,-4231.692L14097.4521,-4231.6644L14097.4687,-4231.6543L14097.4878,-4231.6462L14097.4878,-4231.6462"/>
<path content="1,道南バス（株）,ターミナル線,79.5,77.0,77.0," xlink:title="1" d="M14097.5858,-4232.0595L14097.5847,-4232.0033L14097.5581,-4232.0067L14097.5142,-4232.014L14097.499,-4232.0185L14097.4809,-4232.0298L14097.4695,-4232.0388L14097.4248,-4232.0793L14097.3823,-4232.1197L14097.3217,-4232.1733L14097.2156,-4232.2746L14097.1797,-4232.2761L14097.0823,-4232.2746L14097.0588,-4232.2763L14097.0239,-4232.2735L14097.0118,-4232.2701L14096.9656,-4232.2482L14097.0212,-4232.1766L14097.0274,-4232.1721L14097.1694,-4231.9977L14097.1801,-4231.9842"/>
<path content="1,道南バス（株）,内回り工大循環線,17.0,17.0,17.0," xlink:title="1" d="M14097.429,-4231.5446L14097.4128,-4231.5438L14097.397,-4231.6162"/>
<path content="1,道南バス（株）,内回り工大循環線,17.0,17.0,17.0," xlink:title="1" d="M14097.397,-4231.6162L14097.3938,-4231.6155L14097.3834,-4231.6138L14097.3817,-4231.6135L14097.3725,-4231.6121L14097.3706,-4231.6118L14097.3688,-4231.6116L14097.367,-4231.6114L14097.3331,-4231.607L14097.3125,-4231.6077L14097.3028,-4231.6059L14097.2808,-4231.6093L14097.2505,-4231.6155L14097.2286,-4231.6222L14097.2097,-4231.6288L14097.1982,-4231.6329L14097.1816,-4231.647L14097.1641,-4231.6616L14097.1564,-4231.6702L14097.1559,-4231.6708L14097.1457,-4231.6821L14097.1399,-4231.6858L14097.134,-4231.6915L14097.124,-4231.7061L14097.1202,-4231.7151L14097.1111,-4231.7444L14097.0929,-4231.8254L14097.0824,-4231.8892L14097.0649,-4231.9566L14097.1293,-4231.9639L14097.1346,-4231.9662L14097.1801,-4231.9842"/>
<path content="1,道南バス（株）,内回り工大循環線,17.0,17.0,17.0," xlink:title="1" d="M14097.4878,-4231.6462L14097.4859,-4231.6418L14097.4834,-4231.6359L14097.4792,-4231.635L14097.397,-4231.6162"/>
<path content="1,道南バス（株）,内回り工大循環線,17.0,17.0,17.0," xlink:title="1" d="M14097.4878,-4231.6462L14097.5034,-4231.6448L14097.5233,-4231.6448L14097.5289,-4231.6456L14097.5491,-4231.6487L14097.5589,-4231.6504L14097.603,-4231.6566L14097.6114,-4231.6578L14097.6461,-4231.6601L14097.6562,-4231.6608"/>
<path content="1,道南バス（株）,内回り工大循環線,17.0,17.0,17.0," xlink:title="1" d="M14097.1801,-4231.9842L14097.2376,-4231.9133L14097.2422,-4231.9065L14097.2483,-4231.8992L14097.2892,-4231.8491L14097.3127,-4231.8215L14097.3574,-4231.7675L14097.3596,-4231.7644L14097.3644,-4231.7578L14097.3648,-4231.7573L14097.3884,-4231.7298L14097.3946,-4231.7213L14097.4028,-4231.71L14097.4154,-4231.6976L14097.421,-4231.692L14097.4521,-4231.6644L14097.4687,-4231.6543L14097.4878,-4231.6462L14097.4878,-4231.6462"/>
<path content="1,道南バス（株）,内回り工大循環線,17.0,17.0,17.0," xlink:title="1" d="M14097.2156,-4232.2746L14097.3861,-4232.2746L14097.4188,-4232.2751L14097.4626,-4232.2752L14097.4652,-4232.2752L14097.5558,-4232.2752L14097.6218,-4232.2752L14097.6089,-4232.1801L14097.5858,-4232.0595L14097.5847,-4232.0033L14097.5581,-4232.0067L14097.5142,-4232.014L14097.499,-4232.0185L14097.4809,-4232.0298L14097.4695,-4232.0388L14097.4248,-4232.0793L14097.3823,-4232.1197L14097.3217,-4232.1733L14097.2156,-4232.2746"/>
<path content="1,道南バス（株）,内回り工大循環線,17.0,17.0,17.0," xlink:title="1" d="M14097.2156,-4232.2746L14097.1797,-4232.2761L14097.0823,-4232.2746L14097.0588,-4232.2763L14097.0239,-4232.2735L14097.0118,-4232.2701L14096.9656,-4232.2482L14097.0212,-4232.1766L14097.0274,-4232.1721L14097.1694,-4231.9977L14097.1801,-4231.9842"/>
<path content="1,道南バス（株）,千代の台線,44.0,37.5,37.5," xlink:title="1" d="M14097.5284,-4231.4035L14097.5127,-4231.4506L14097.5112,-4231.4562L14097.4362,-4231.4506"/>
<path content="1,道南バス（株）,千代の台線,44.0,37.5,37.5," xlink:title="1" d="M14097.4362,-4231.4506L14097.4367,-4231.545L14097.429,-4231.5446L14097.4128,-4231.5438L14097.397,-4231.6162"/>
<path content="1,道南バス（株）,千代の台線,44.0,37.5,37.5," xlink:title="1" d="M14097.397,-4231.6162L14097.4792,-4231.635L14097.4834,-4231.6359L14097.4859,-4231.6418L14097.4878,-4231.6462"/>
<path content="1,道南バス（株）,千代の台線,44.0,37.5,37.5," xlink:title="1" d="M14097.1982,-4231.6329L14097.1936,-4231.6294L14097.1952,-4231.62L14097.202,-4231.5761L14097.2096,-4231.5293L14097.2172,-4231.4821L14097.224,-4231.4331L14097.2702,-4231.437L14097.3331,-4231.4421L14097.4362,-4231.4506"/>
<path content="1,道南バス（株）,千代の台線,44.0,37.5,37.5," xlink:title="1" d="M14097.1982,-4231.6329L14097.2097,-4231.6288L14097.2286,-4231.6222L14097.2505,-4231.6155L14097.2808,-4231.6093L14097.3028,-4231.6059L14097.3125,-4231.6077L14097.3331,-4231.607L14097.367,-4231.6114L14097.3688,-4231.6116L14097.3706,-4231.6118L14097.3725,-4231.6121L14097.3817,-4231.6135L14097.3834,-4231.6138L14097.3938,-4231.6155L14097.397,-4231.6162"/>
<path content="1,道南バス（株）,千代の台線,44.0,37.5,37.5," xlink:title="1" d="M14097.4878,-4231.6462L14097.4878,-4231.6462L14097.4687,-4231.6543L14097.4521,-4231.6644L14097.421,-4231.692L14097.4154,-4231.6976L14097.4028,-4231.71L14097.3946,-4231.7213L14097.3884,-4231.7298L14097.3648,-4231.7573L14097.3644,-4231.7578L14097.3596,-4231.7644L14097.3574,-4231.7675L14097.3127,-4231.8215L14097.2892,-4231.8491L14097.2483,-4231.8992L14097.2422,-4231.9065L14097.2376,-4231.9133L14097.1801,-4231.9842"/>
<path content="1,道南バス（株）,千代の台線,44.0,37.5,37.5," xlink:title="1" d="M14097.4878,-4231.6462L14097.5034,-4231.6448L14097.5233,-4231.6448L14097.5289,-4231.6456L14097.5491,-4231.6487L14097.5589,-4231.6504L14097.603,-4231.6566L14097.6114,-4231.6578L14097.6461,-4231.6601L14097.6562,-4231.6608"/>
<path content="1,道南バス（株）,千代の台線,44.0,37.5,37.5," xlink:title="1" d="M14097.1801,-4231.9842L14097.1346,-4231.9662L14097.1293,-4231.9639L14097.0649,-4231.9566L14097.0824,-4231.8892L14097.0929,-4231.8254L14097.1111,-4231.7444L14097.1202,-4231.7151L14097.124,-4231.7061L14097.134,-4231.6915L14097.1399,-4231.6858L14097.1457,-4231.6821L14097.1559,-4231.6708L14097.1564,-4231.6702L14097.1641,-4231.6616L14097.1816,-4231.647L14097.1982,-4231.6329"/>
<path content="1,道南バス（株）,千代の台線,44.0,37.5,37.5," xlink:title="1" d="M14097.1801,-4231.9842L14097.1694,-4231.9977L14097.0274,-4232.1721L14097.0212,-4232.1766L14096.9656,-4232.2482"/>
<path content="1,道南バス（株）,千代の台線,44.0,37.5,37.5," xlink:title="1" d="M14096.9656,-4232.2482L14097.0118,-4232.2701L14097.0239,-4232.2735L14097.0588,-4232.2763L14097.0823,-4232.2746L14097.1797,-4232.2761L14097.2156,-4232.2746"/>
<path content="1,道南バス（株）,千代の台線,44.0,37.5,37.5," xlink:title="1" d="M14096.9656,-4232.2482L14096.9519,-4232.2645L14096.9065,-4232.3332L14096.9004,-4232.3472L14096.8959,-4232.3591L14096.8898,-4232.3872L14096.8762,-4232.47L14096.8739,-4232.4897L14096.861,-4232.542L14096.8616,-4232.5486L14096.8201,-4232.6597L14096.7981,-4232.716L14096.7958,-4232.7239L14096.7678,-4232.7836L14096.7606,-4232.8053L14096.736,-4232.8511L14096.7345,-4232.8579L14096.7337,-4232.8809L14096.7307,-4232.9018L14096.7117,-4232.9316L14096.6852,-4232.9569L14096.6367,-4232.9986L14096.6261,-4233.0065L14096.5844,-4233.038L14096.5314,-4233.078L14096.52,-4233.0876L14096.4761,-4233.1196L14096.467,-4233.1241L14096.4404,-4233.1416L14096.4329,-4233.1461L14096.3695,-4233.1828L14096.3374,-4233.2052L14096.3276,-4233.2154L14096.3162,-4233.2311L14096.3101,-4233.2424L14096.2987,-4233.2666L14096.2844,-4233.288L14096.2684,-4233.3049L14096.2571,-4233.3144L14096.2306,-4233.3415L14096.2192,-4233.3522L14096.2101,-4233.3578L14096.1858,-4233.373L14096.1586,-4233.3865L14096.1288,-4233.4009L14096.0972,-4233.4191L14096.0578,-4233.4394L14096.0472,-4233.4456L14095.954,-4233.4951L14095.8909,-4233.5342"/>
<path content="1,道南バス（株）,千代の台線,44.0,37.5,37.5," xlink:title="1" d="M14097.2156,-4232.2746L14097.3217,-4232.1733L14097.3823,-4232.1197L14097.4248,-4232.0793L14097.4695,-4232.0388L14097.4809,-4232.0298L14097.499,-4232.0185L14097.5142,-4232.014L14097.5581,-4232.0067L14097.5847,-4232.0033L14097.5858,-4232.0595L14097.6089,-4232.1801L14097.6218,-4232.2752L14097.5558,-4232.2752L14097.4652,-4232.2752L14097.4626,-4232.2752L14097.4188,-4232.2751L14097.3861,-4232.2746L14097.2156,-4232.2746"/>
<path content="1,道南バス（株）,千代の台線,44.0,37.5,37.5," xlink:title="1" d="M14095.7509,-4233.5047L14095.716,-4233.4794L14095.6721,-4233.4473L14095.6325,-4233.4189L14095.6183,-4233.4084L14095.4872,-4233.3128L14095.4796,-4233.3054L14095.4463,-4233.2728L14095.4114,-4233.2399L14095.4099,-4233.2328L14095.3683,-4233.1816L14095.4062,-4233.1675L14095.4244,-4233.1597L14095.4213,-4233.1563L14095.3993,-4233.1045L14095.3834,-4233.0651L14095.338,-4232.9508L14095.3305,-4232.9423L14095.3274,-4232.9311L14095.3205,-4232.9007L14095.3016,-4232.8163L14095.2971,-4232.7872L14095.2925,-4232.7774L14095.288,-4232.7656L14095.2739,-4232.7521L14095.2605,-4232.744L14095.2387,-4232.7251L14095.2296,-4232.7178L14095.213,-4232.7014L14095.1842,-4232.675L14095.1758,-4232.6666L14095.0953,-4232.586L14095.0523,-4232.5539L14095.0569,-4232.5207L14095.0576,-4232.5066L14095.0584,-4232.4987L14095.0561,-4232.4869L14095.0508,-4232.4616L14095.0486,-4232.4396L14095.0501,-4232.4025L14095.0561,-4232.3782L14095.0569,-4232.349L14095.0516,-4232.3084L14095.0493,-4232.2397L14095.0463,-4232.2268L14095.0399,-4232.2172"/>
<path content="1,道南バス（株）,千代の台線,44.0,37.5,37.5," xlink:title="1" d="M14095.7509,-4233.5047L14095.7661,-4233.5019L14095.7759,-4233.5008L14095.838,-4233.4906L14095.8883,-4233.5321L14095.8909,-4233.5342"/>
<path content="1,道南バス（株）,千代の台線,44.0,37.5,37.5," xlink:title="1" d="M14095.8909,-4233.5342L14095.8358,-4233.5655L14095.8267,-4233.5599L14095.7509,-4233.5047"/>
<path content="1,道南バス（株）,千代の台線,44.0,37.5,37.5," xlink:title="1" d="M14097.6562,-4235.9056L14097.6316,-4235.9027L14097.6067,-4235.8969L14097.578,-4235.8972L14097.5282,-4235.8949L14097.4333,-4235.8976L14097.3628,-4235.9018L14097.2851,-4235.9082L14097.1891,-4235.9191L14097.1191,-4235.9299L14097.0865,-4235.9365L14097.0624,-4235.9421L14097.0272,-4235.9546L14097.0131,-4235.9602L14096.9972,-4235.97L14096.9817,-4235.9836L14096.9641,-4236.0049L14096.9407,-4236.0331L14096.9127,-4236.0719L14096.8872,-4236.1132L14096.8811,-4236.119L14096.8635,-4236.1291L14096.8479,-4236.1362L14096.8319,-4236.1423L14096.8038,-4236.1505L14096.7923,-4236.1534L14096.7691,-4236.1598L14096.7648,-4236.161L14096.7513,-4236.1649L14096.7402,-4236.1677L14096.7161,-4236.174L14096.6994,-4236.1783L14096.6941,-4236.1806L14096.5682,-4236.2149L14096.506,-4236.2329L14096.4939,-4236.2352L14096.461,-4236.2447L14096.4089,-4236.2582L14096.3558,-4236.2644L14096.2989,-4236.265L14096.2754,-4236.2627L14096.223,-4236.256L14096.1934,-4236.2504L14096.1896,-4236.2487L14096.1563,-4236.2408L14096.1381,-4236.2352L14096.1191,-4236.2267L14096.1138,-4236.2256L14096.0531,-4236.198L14096.0189,-4236.1806L14095.9696,-4236.1608L14095.9317,-4236.1501L14095.893,-4236.1417L14095.8558,-4236.1355L14095.8019,-4236.1287L14095.7443,-4236.1237L14095.6927,-4236.1209L14095.6592,-4236.1206L14095.6298,-4236.1226L14095.6009,-4236.122L14095.5372,-4236.1271L14095.4689,-4236.1349L14095.4499,-4236.1372L14095.3233,-4236.1732L14095.3073,-4236.1788L14095.2347,-4236.2077L14095.1936,-4236.2227L14095.1714,-4236.2409L14095.1419,-4236.2588L14095.1207,-4236.2768L14095.1017,-4236.2971L14095.0873,-4236.3184L14095.0823,-4236.3281"/>
<path content="1,道南バス（株）,地球岬団地線,41.0,38.0,38.0," xlink:title="1" d="M14097.6562,-4231.6608L14097.6461,-4231.6601L14097.6114,-4231.6578L14097.603,-4231.6566L14097.5589,-4231.6504L14097.5491,-4231.6487L14097.5289,-4231.6456L14097.5233,-4231.6448L14097.5034,-4231.6448L14097.4878,-4231.6462"/>
<path content="1,道南バス（株）,地球岬団地線,41.0,38.0,38.0," xlink:title="1" d="M14097.0749,-4231.023L14097.0672,-4231.0588L14097.0634,-4231.0858L14097.0604,-4231.1016L14097.0589,-4231.1106L14097.0513,-4231.1601L14097.0437,-4231.2079L14097.0354,-4231.2608L14097.027,-4231.3132L14097.0283,-4231.3313L14097.0202,-4231.3633L14097.0179,-4231.3791L14097.0156,-4231.3892L14097.0103,-4231.4151L14097.005,-4231.464L14096.9967,-4231.5113L14096.9877,-4231.5449L14096.9838,-4231.6126L14096.9838,-4231.6284L14096.9816,-4231.6487L14096.9793,-4231.683L14096.9732,-4231.7387L14097.0081,-4231.7629L14097.0831,-4231.8158L14097.0929,-4231.8254"/>
<path content="1,道南バス（株）,地球岬団地線,41.0,38.0,38.0," xlink:title="1" d="M14097.5284,-4231.4035L14097.5127,-4231.4506L14097.5112,-4231.4562L14097.4362,-4231.4506"/>
<path content="1,道南バス（株）,地球岬団地線,41.0,38.0,38.0," xlink:title="1" d="M14097.4362,-4231.4506L14097.4367,-4231.545"/>
<path content="1,道南バス（株）,地球岬団地線,41.0,38.0,38.0," xlink:title="1" d="M14097.429,-4231.5446L14097.4367,-4231.545"/>
<path content="1,道南バス（株）,地球岬団地線,41.0,38.0,38.0," xlink:title="1" d="M14097.1982,-4231.6329L14097.1936,-4231.6294L14097.1952,-4231.62L14097.202,-4231.5761L14097.2096,-4231.5293L14097.2172,-4231.4821L14097.224,-4231.4331L14097.2702,-4231.437L14097.3331,-4231.4421L14097.4362,-4231.4506"/>
<path content="1,道南バス（株）,地球岬団地線,41.0,38.0,38.0," xlink:title="1" d="M14097.1982,-4231.6329L14097.1816,-4231.647L14097.1641,-4231.6616L14097.1564,-4231.6702L14097.1559,-4231.6708L14097.1457,-4231.6821L14097.1399,-4231.6858L14097.134,-4231.6915L14097.124,-4231.7061L14097.1202,-4231.7151L14097.1111,-4231.7444L14097.0929,-4231.8254"/>
<path content="1,道南バス（株）,地球岬団地線,41.0,38.0,38.0," xlink:title="1" d="M14097.4834,-4231.6359L14097.4792,-4231.635L14097.397,-4231.6162L14097.3938,-4231.6155L14097.3834,-4231.6138L14097.3817,-4231.6135L14097.3725,-4231.6121L14097.3706,-4231.6118L14097.3688,-4231.6116L14097.367,-4231.6114L14097.3331,-4231.607L14097.3125,-4231.6077L14097.3028,-4231.6059L14097.2808,-4231.6093L14097.2505,-4231.6155L14097.2286,-4231.6222L14097.2097,-4231.6288L14097.1982,-4231.6329"/>
<path content="1,道南バス（株）,地球岬団地線,41.0,38.0,38.0," xlink:title="1" d="M14097.4834,-4231.6359L14097.4862,-4231.6268L14097.4892,-4231.6116L14097.4839,-4231.5958L14097.4718,-4231.5795L14097.4367,-4231.545"/>
<path content="1,道南バス（株）,地球岬団地線,41.0,38.0,38.0," xlink:title="1" d="M14097.4878,-4231.6462L14097.4859,-4231.6418L14097.4834,-4231.6359"/>
<path content="1,道南バス（株）,地球岬団地線,41.0,38.0,38.0," xlink:title="1" d="M14097.0929,-4231.8254L14097.1005,-4231.8288L14097.1702,-4231.8367L14097.2498,-4231.8446L14097.2892,-4231.8491"/>
<path content="1,道南バス（株）,地球岬団地線,41.0,38.0,38.0," xlink:title="1" d="M14097.0929,-4231.8254L14097.0824,-4231.8892L14097.0649,-4231.9566L14097.0573,-4231.9904L14097.0565,-4231.996L14097.0459,-4232.0416L14097.0376,-4232.0585L14097.0194,-4232.0844L14096.9826,-4232.1261L14096.9696,-4232.1409L14096.952,-4232.1609L14096.942,-4232.1817L14096.9035,-4232.2211L14096.886,-4232.2454L14096.855,-4232.2887L14096.7959,-4232.3743L14096.7838,-4232.3951L14096.7792,-4232.4137L14096.7814,-4232.4514L14096.7822,-4232.4582L14096.7807,-4232.4886L14096.7761,-4232.5032L14096.7615,-4232.5231L14096.7436,-4232.5488L14096.736,-4232.5629L14096.7322,-4232.5798L14096.7322,-4232.6136L14096.7337,-4232.6259L14096.739,-4232.6687L14096.742,-4232.689L14096.7519,-4232.6963L14096.7595,-4232.7002L14096.7981,-4232.716"/>
<path content="1,道南バス（株）,地球岬団地線,41.0,38.0,38.0," xlink:title="1" d="M14097.2892,-4231.8491L14097.3127,-4231.8215L14097.3574,-4231.7675L14097.3596,-4231.7644L14097.3644,-4231.7578L14097.3648,-4231.7573L14097.3884,-4231.7298L14097.3946,-4231.7213L14097.4028,-4231.71L14097.4154,-4231.6976L14097.421,-4231.692L14097.4521,-4231.6644L14097.4687,-4231.6543L14097.4878,-4231.6462L14097.4878,-4231.6462"/>
<path content="1,道南バス（株）,地球岬団地線,41.0,38.0,38.0," xlink:title="1" d="M14097.2892,-4231.8491L14097.3953,-4231.8066"/>
<path content="1,道南バス（株）,地球岬団地線,41.0,38.0,38.0," xlink:title="1" d="M14097.2892,-4231.8491L14097.2483,-4231.8992L14097.2422,-4231.9065L14097.2376,-4231.9133L14097.1801,-4231.9842L14097.1694,-4231.9977L14097.0274,-4232.1721L14097.0212,-4232.1766L14096.9656,-4232.2482L14096.9519,-4232.2645L14096.9065,-4232.3332L14096.9004,-4232.3472L14096.8959,-4232.3591L14096.8898,-4232.3872L14096.8762,-4232.47L14096.8739,-4232.4897L14096.861,-4232.542L14096.8616,-4232.5486L14096.8201,-4232.6597L14096.7981,-4232.716"/>
<path content="1,道南バス（株）,地球岬団地線,41.0,38.0,38.0," xlink:title="1" d="M14095.0576,-4232.5066L14095.0584,-4232.4987L14095.0561,-4232.4869L14095.0508,-4232.4616L14095.0486,-4232.4396L14095.0501,-4232.4025L14095.0561,-4232.3782L14095.0569,-4232.349L14095.0516,-4232.3084L14095.0493,-4232.2397L14095.0463,-4232.2268L14095.0399,-4232.2172"/>
<path content="1,道南バス（株）,地球岬団地線,41.0,38.0,38.0," xlink:title="1" d="M14095.0576,-4232.5066L14095.0736,-4232.5185L14095.1107,-4232.5511L14095.1228,-4232.5618L14095.1311,-4232.5702L14095.1781,-4232.6119L14095.2031,-4232.6356L14095.2152,-4232.653L14095.2205,-4232.666L14095.2198,-4232.684L14095.216,-4232.6902L14095.213,-4232.7014"/>
<path content="1,道南バス（株）,地球岬団地線,41.0,38.0,38.0," xlink:title="1" d="M14095.213,-4232.7014L14095.1842,-4232.675L14095.1758,-4232.6666L14095.0953,-4232.586L14095.0523,-4232.5539L14095.0569,-4232.5207L14095.0576,-4232.5066"/>
<path content="1,道南バス（株）,地球岬団地線,41.0,38.0,38.0," xlink:title="1" d="M14096.7981,-4232.716L14096.7958,-4232.7239L14096.7678,-4232.7836L14096.7606,-4232.8053L14096.736,-4232.8511L14096.7345,-4232.8579L14096.7337,-4232.8809L14096.7307,-4232.9018L14096.7117,-4232.9316L14096.6852,-4232.9569L14096.6367,-4232.9986L14096.6261,-4233.0065L14096.5844,-4233.038L14096.5314,-4233.078L14096.52,-4233.0876L14096.4761,-4233.1196L14096.467,-4233.1241L14096.4404,-4233.1416L14096.4329,-4233.1461L14096.3695,-4233.1828L14096.3374,-4233.2052L14096.3276,-4233.2154L14096.3162,-4233.2311L14096.3101,-4233.2424L14096.2987,-4233.2666L14096.2844,-4233.288L14096.2684,-4233.3049L14096.2571,-4233.3144L14096.2306,-4233.3415L14096.2192,-4233.3522L14096.2101,-4233.3578L14096.1858,-4233.373L14096.1586,-4233.3865L14096.1288,-4233.4009L14096.0972,-4233.4191L14096.0578,-4233.4394L14096.0472,-4233.4456L14095.954,-4233.4951L14095.8909,-4233.5342"/>
<path content="1,道南バス（株）,地球岬団地線,41.0,38.0,38.0," xlink:title="1" d="M14095.3305,-4232.9423L14095.3274,-4232.9311L14095.3205,-4232.9007L14095.3016,-4232.8163L14095.2971,-4232.7872L14095.2925,-4232.7774L14095.288,-4232.7656L14095.2739,-4232.7521L14095.2605,-4232.744L14095.2387,-4232.7251L14095.2296,-4232.7178L14095.213,-4232.7014"/>
<path content="1,道南バス（株）,地球岬団地線,41.0,38.0,38.0," xlink:title="1" d="M14095.3305,-4232.9423L14095.3137,-4232.9452L14095.2652,-4232.952L14095.1542,-4232.9692L14095.1334,-4232.9716L14095.1251,-4232.9722L14095.0758,-4232.9795L14095.0546,-4232.9812L14094.9985,-4232.9818L14094.9682,-4232.9773L14094.9334,-4232.9733L14094.925,-4232.9722L14094.9068,-4232.9699L14094.8492,-4232.9671L14094.7576,-4232.9654L14094.7189,-4232.9671L14094.7129,-4232.9682L14094.6924,-4232.9711L14094.6714,-4232.9797L14094.6295,-4232.9958L14094.5787,-4233.0201L14094.484,-4233.0639L14094.4564,-4233.0849L14094.4456,-4233.0964L14094.4409,-4233.1031L14094.4308,-4233.1212L14094.4209,-4233.1447L14094.413,-4233.1632L14094.4059,-4233.1848L14094.4046,-4233.1894L14094.3989,-4233.1963L14094.3729,-4233.2227L14094.3575,-4233.2396L14094.3405,-4233.2565L14094.2591,-4233.3366L14094.2442,-4233.3506L14094.2283,-4233.364L14094.2154,-4233.3729L14094.1839,-4233.3825L14094.1324,-4233.3955L14094.0998,-4233.4045L14094.0854,-4233.4096L14094.0559,-4233.4225L14094.0301,-4233.4321"/>
<path content="1,道南バス（株）,地球岬団地線,41.0,38.0,38.0," xlink:title="1" d="M14094.0301,-4233.4321L14094.0066,-4233.4535L14093.9597,-4233.4973L14093.9589,-4233.4985L14093.9415,-4233.5204L14093.9377,-4233.5261L14093.8953,-4233.5708"/>
<path content="1,道南バス（株）,地球岬団地線,41.0,38.0,38.0," xlink:title="1" d="M14095.7509,-4233.5047L14095.716,-4233.4794L14095.6721,-4233.4473L14095.6325,-4233.4189L14095.6183,-4233.4084L14095.4872,-4233.3128L14095.4796,-4233.3054L14095.4463,-4233.2728L14095.4114,-4233.2399L14095.4099,-4233.2328L14095.3683,-4233.1816L14095.4062,-4233.1675L14095.4244,-4233.1597L14095.4213,-4233.1563L14095.3993,-4233.1045L14095.3834,-4233.0651L14095.338,-4232.9508L14095.3305,-4232.9423"/>
<path content="1,道南バス（株）,地球岬団地線,41.0,38.0,38.0," xlink:title="1" d="M14095.8909,-4233.5342L14095.8883,-4233.5321L14095.838,-4233.4906L14095.7759,-4233.5008L14095.7661,-4233.5019L14095.7509,-4233.5047"/>
<path content="1,道南バス（株）,地球岬団地線,41.0,38.0,38.0," xlink:title="1" d="M14095.8909,-4233.5342L14095.8358,-4233.5655"/>
<path content="1,道南バス（株）,地球岬団地線,41.0,38.0,38.0," xlink:title="1" d="M14095.8358,-4233.5655L14095.8267,-4233.5599L14095.7509,-4233.5047"/>
<path content="1,道南バス（株）,地球岬団地線,41.0,38.0,38.0," xlink:title="1" d="M14093.8953,-4233.5708L14093.835,-4233.5691L14093.8043,-4233.5727L14093.7561,-4233.5841L14093.7552,-4233.5843L14093.7537,-4233.5846L14093.7138,-4233.6031L14093.7102,-4233.6047L14093.6899,-4233.6127L14093.6482,-4233.6268L14093.6308,-4233.6313L14093.608,-4233.6358L14093.6004,-4233.6364L14093.5738,-4233.6386L14093.5261,-4233.6369L14093.4987,-4233.6375L14093.4798,-4233.6364L14093.4292,-4233.6348L14093.3492,-4233.633L14093.3136,-4233.6347L14093.306,-4233.6341L14093.3045,-4233.624L14093.306,-4233.5891L14093.3063,-4233.5846L14093.3064,-4233.5828L14093.316,-4233.5596L14093.3283,-4233.5373L14093.3384,-4233.52L14093.3529,-4233.4976L14093.3682,-4233.4744L14093.3694,-4233.4726L14093.3818,-4233.4545L14093.3851,-4233.4497L14093.3884,-4233.445L14093.399,-4233.4249L14093.4164,-4233.4028L14093.4656,-4233.3363L14093.4704,-4233.3302L14093.4952,-4233.3144L14093.521,-4233.2981L14093.5346,-4233.2879L14093.5482,-4233.2784L14093.5551,-4233.2744L14093.5907,-4233.2503L14093.6308,-4233.2243L14093.6422,-4233.2159L14093.6735,-4233.2328L14093.7021,-4233.2435L14093.774,-4233.2761L14093.8013,-4233.2879L14093.846,-4233.3077L14093.9013,-4233.3336L14093.9453,-4233.3527L14093.9533,-4233.3582L14093.9673,-4233.3678L14093.9977,-4233.3996L14094.017,-4233.4194L14094.0301,-4233.4321"/>
<path content="1,道南バス（株）,地球岬団地線,41.0,38.0,38.0," xlink:title="1" d="M14093.8953,-4233.5708L14093.8872,-4233.5781L14093.8792,-4233.5846L14093.8348,-4233.6223L14093.7726,-4233.6859L14093.7665,-4233.6915L14093.7407,-4233.7178L14093.7198,-4233.7397L14093.7027,-4233.7603L14093.6853,-4233.7782L14093.6641,-4233.8098L14093.6444,-4233.8452L14093.6345,-4233.8671L14093.7142,-4233.8885L14093.7582,-4233.8981L14093.7938,-4233.9049L14093.828,-4233.9088L14093.8856,-4233.9127L14093.9144,-4233.9127L14093.9251,-4233.9144L14093.9319,-4233.9161L14093.9592,-4233.9195L14093.9797,-4233.924L14094.0032,-4233.9313L14094.1094,-4233.9735L14094.1451,-4233.9887"/>
<path content="1,道南バス（株）,地球岬団地線,41.0,38.0,38.0," xlink:title="1" d="M14094.1451,-4233.9887L14094.1198,-4234.0433"/>
<path content="1,道南バス（株）,地球岬団地線,41.0,38.0,38.0," xlink:title="1" d="M14094.1451,-4233.9887L14094.1891,-4234.0107L14094.2187,-4234.0326L14094.2612,-4234.0726L14094.2885,-4234.0991L14094.3105,-4234.1154L14094.3355,-4234.1294L14094.3606,-4234.1396L14094.3795,-4234.1446L14094.4273,-4234.1508L14094.4458,-4234.1529L14094.5206,-4234.1599L14094.5699,-4234.1632L14094.6071,-4234.1627L14094.6284,-4234.161L14094.6572,-4234.1565L14094.683,-4234.152L14094.6906,-4234.1514L14094.7164,-4234.1464L14094.8256,-4234.1261L14094.8529,-4234.1267L14094.8765,-4234.1323L14094.8969,-4234.1396L14094.9379,-4234.161L14094.9811,-4234.1835L14095.0024,-4234.1959L14095.0441,-4234.1334L14095.0866,-4234.0833"/>
<path content="1,道南バス（株）,地球岬団地線,41.0,38.0,38.0," xlink:title="1" d="M14095.0866,-4234.0833L14095.0464,-4234.0608L14095.0358,-4234.0552L14094.9956,-4234.0338L14094.9076,-4233.9854L14094.888,-4233.9709L14094.8674,-4233.9634L14094.8196,-4233.937L14094.7937,-4233.9234L14094.7664,-4233.9077L14094.7619,-4233.906L14094.7558,-4233.9015L14094.7591,-4233.8779L14094.7496,-4233.7888L14094.7487,-4233.7737L14094.7483,-4233.7653L14094.7475,-4233.7574L14094.7445,-4233.7473L14094.7376,-4233.7304L14094.6914,-4233.6195L14094.6771,-4233.5909L14094.6759,-4233.5846L14094.6669,-4233.5678L14094.6636,-4233.5531L14094.6605,-4233.543L14094.6583,-4233.5272L14094.6545,-4233.5081L14094.6545,-4233.5058L14094.6514,-4233.4996L14094.6492,-4233.4934L14094.6431,-4233.4889L14094.6287,-4233.4805L14094.6143,-4233.4754L14094.5977,-4233.4715L14094.5828,-4233.4705L14094.5728,-4233.4712L14094.5628,-4233.4718L14094.5539,-4233.4756L14094.5391,-4233.4819L14094.5295,-4233.4876L14094.5053,-4233.5026L14094.4963,-4233.5063L14094.4529,-4233.5199L14094.4423,-4233.5221L14094.4316,-4233.5219L14094.3696,-4233.5064L14094.2673,-4233.4839L14094.1976,-4233.4838L14094.1794,-4233.4844L14094.1631,-4233.4881L14094.1588,-4233.4879L14094.1499,-4233.4895L14094.1317,-4233.4962L14094.1241,-4233.5007L14094.1059,-4233.5109L14094.0438,-4233.5497L14094.0256,-4233.5587L14094.015,-4233.5626L14094.0115,-4233.5633L14093.9896,-4233.5677L14093.9445,-4233.5709L14093.9178,-4233.5709L14093.8953,-4233.5708"/>
<path content="1,道南バス（株）,地球岬団地線,41.0,38.0,38.0," xlink:title="1" d="M14095.0866,-4234.0833L14095.1362,-4234.0371L14095.1632,-4234.0062L14095.1792,-4233.9922L14095.2065,-4233.9719L14095.2239,-4233.9606L14095.2361,-4233.9533L14095.2882,-4233.9231L14095.2937,-4233.915L14095.3529,-4233.8728L14095.384,-4233.8531L14095.3939,-4233.8498L14095.5158,-4233.8177L14095.5623,-4233.7849L14095.5858,-4233.7685L14095.6251,-4233.7276L14095.6526,-4233.7068L14095.6792,-4233.6848L14095.7588,-4233.6229L14095.8094,-4233.5847L14095.8226,-4233.5751L14095.8358,-4233.5655"/>
<path content="1,道南バス（株）,室蘭港～登別温泉,20.0,20.0,20.0," xlink:title="1" d="M14097.5284,-4231.4035L14097.5127,-4231.4506L14097.5112,-4231.4562L14097.4362,-4231.4506L14097.4367,-4231.545L14097.429,-4231.5446L14097.4128,-4231.5438L14097.397,-4231.6162"/>
<path content="1,道南バス（株）,室蘭港～登別温泉,20.0,20.0,20.0," xlink:title="1" d="M14097.397,-4231.6162L14097.4792,-4231.635L14097.4834,-4231.6359L14097.4859,-4231.6418L14097.4878,-4231.6462L14097.5034,-4231.6448L14097.5233,-4231.6448L14097.5289,-4231.6456L14097.5491,-4231.6487L14097.5589,-4231.6504L14097.603,-4231.6566L14097.6114,-4231.6578L14097.6461,-4231.6601L14097.6562,-4231.6608"/>
<path content="1,道南バス（株）,室蘭港～登別温泉,20.0,20.0,20.0," xlink:title="1" d="M14097.3644,-4231.7578L14097.3596,-4231.7644L14097.3574,-4231.7675L14097.3127,-4231.8215L14097.2892,-4231.8491"/>
<path content="1,道南バス（株）,室蘭港～登別温泉,20.0,20.0,20.0," xlink:title="1" d="M14097.0929,-4231.8254L14097.1111,-4231.7444L14097.1202,-4231.7151L14097.124,-4231.7061L14097.134,-4231.6915L14097.1399,-4231.6858L14097.1457,-4231.6821L14097.1559,-4231.6708L14097.1564,-4231.6702L14097.1641,-4231.6616L14097.1816,-4231.647L14097.1982,-4231.6329L14097.2097,-4231.6288L14097.2286,-4231.6222L14097.2505,-4231.6155L14097.2808,-4231.6093L14097.3028,-4231.6059L14097.3125,-4231.6077L14097.3331,-4231.607L14097.367,-4231.6114L14097.3688,-4231.6116L14097.3706,-4231.6118L14097.3725,-4231.6121L14097.3817,-4231.6135L14097.3834,-4231.6138L14097.3938,-4231.6155L14097.397,-4231.6162"/>
<path content="1,道南バス（株）,室蘭港～登別温泉,20.0,20.0,20.0," xlink:title="1" d="M14097.0929,-4231.8254L14097.1005,-4231.8288L14097.1702,-4231.8367L14097.2498,-4231.8446L14097.2892,-4231.8491"/>
<path content="1,道南バス（株）,室蘭港～登別温泉,20.0,20.0,20.0," xlink:title="1" d="M14097.2892,-4231.8491L14097.2483,-4231.8992L14097.2422,-4231.9065L14097.2376,-4231.9133L14097.1801,-4231.9842L14097.1694,-4231.9977L14097.0274,-4232.1721"/>
<path content="1,道南バス（株）,室蘭港～登別温泉,20.0,20.0,20.0," xlink:title="1" d="M14097.0824,-4231.8892L14097.0929,-4231.8254"/>
<path content="1,道南バス（株）,室蘭港～登別温泉,20.0,20.0,20.0," xlink:title="1" d="M14097.0274,-4232.1721L14097.0212,-4232.1766L14096.9656,-4232.2482L14097.0118,-4232.2701L14097.0239,-4232.2735L14097.0588,-4232.2763L14097.0823,-4232.2746L14097.1797,-4232.2761L14097.2156,-4232.2746L14097.3217,-4232.1733L14097.3823,-4232.1197L14097.4248,-4232.0793L14097.4695,-4232.0388L14097.4809,-4232.0298L14097.499,-4232.0185L14097.5142,-4232.014L14097.5581,-4232.0067L14097.5847,-4232.0033L14097.5858,-4232.0595"/>
<path content="1,道南バス（株）,室蘭港～登別温泉,20.0,20.0,20.0," xlink:title="1" d="M14097.0274,-4232.1721L14096.9696,-4232.1409L14096.952,-4232.1609L14096.942,-4232.1817L14096.9035,-4232.2211L14096.886,-4232.2454L14096.855,-4232.2887L14096.7959,-4232.3743L14096.7838,-4232.3951L14096.7792,-4232.4137L14096.7814,-4232.4514L14096.7822,-4232.4582L14096.7807,-4232.4886L14096.7761,-4232.5032L14096.7615,-4232.5231L14096.7436,-4232.5488L14096.736,-4232.5629L14096.7322,-4232.5798L14096.7322,-4232.6136L14096.7337,-4232.6259L14096.739,-4232.6687L14096.742,-4232.689L14096.7519,-4232.6963L14096.7595,-4232.7002L14096.7981,-4232.716L14096.7958,-4232.7239L14096.7678,-4232.7836L14096.7606,-4232.8053L14096.736,-4232.8511L14096.7345,-4232.8579L14096.7337,-4232.8809L14096.7307,-4232.9018L14096.7117,-4232.9316L14096.6852,-4232.9569L14096.6367,-4232.9986L14096.6261,-4233.0065L14096.5844,-4233.038L14096.5314,-4233.078L14096.52,-4233.0876L14096.4761,-4233.1196L14096.467,-4233.1241L14096.4404,-4233.1416L14096.4329,-4233.1461L14096.3695,-4233.1828L14096.3374,-4233.2052L14096.3276,-4233.2154L14096.3162,-4233.2311L14096.3101,-4233.2424L14096.2987,-4233.2666L14096.2844,-4233.288L14096.2684,-4233.3049L14096.2571,-4233.3144L14096.2306,-4233.3415L14096.2192,-4233.3522L14096.2101,-4233.3578L14096.1858,-4233.373L14096.1586,-4233.3865L14096.1288,-4233.4009L14096.0972,-4233.4191L14096.0578,-4233.4394L14096.0472,-4233.4456L14095.954,-4233.4951L14095.8909,-4233.5342L14095.8358,-4233.5655L14095.8267,-4233.5599L14095.7509,-4233.5047L14095.716,-4233.4794L14095.6721,-4233.4473L14095.6325,-4233.4189L14095.6183,-4233.4084L14095.4872,-4233.3128L14095.4796,-4233.3054L14095.4463,-4233.2728L14095.4114,-4233.2399L14095.4099,-4233.2328L14095.3683,-4233.1816L14095.4062,-4233.1675L14095.4244,-4233.1597L14095.4213,-4233.1563L14095.3993,-4233.1045L14095.3834,-4233.0651L14095.338,-4232.9508L14095.3305,-4232.9423L14095.3137,-4232.9452L14095.2652,-4232.952L14095.1542,-4232.9692L14095.1334,-4232.9716L14095.1251,-4232.9722L14095.0758,-4232.9795L14095.0546,-4232.9812L14094.9985,-4232.9818L14094.9682,-4232.9773L14094.9334,-4232.9733L14094.925,-4232.9722L14094.9068,-4232.9699L14094.8492,-4232.9671L14094.7576,-4232.9654L14094.7189,-4232.9671L14094.7129,-4232.9682L14094.6924,-4232.9711L14094.6714,-4232.9797L14094.6295,-4232.9958L14094.5787,-4233.0201L14094.484,-4233.0639L14094.4564,-4233.0849L14094.4456,-4233.0964L14094.4409,-4233.1031L14094.4308,-4233.1212L14094.4209,-4233.1447L14094.413,-4233.1632L14094.4059,-4233.1848L14094.4046,-4233.1894L14094.3989,-4233.1963L14094.3729,-4233.2227L14094.3575,-4233.2396L14094.3405,-4233.2565L14094.2591,-4233.3366L14094.2442,-4233.3506L14094.2283,-4233.364L14094.2154,-4233.3729L14094.1839,-4233.3825L14094.1324,-4233.3955L14094.0998,-4233.4045L14094.0854,-4233.4096L14094.0559,-4233.4225L14094.0301,-4233.4321L14094.0066,-4233.4535L14093.9597,-4233.4973L14093.9589,-4233.4985L14093.9415,-4233.5204L14093.9377,-4233.5261L14093.8953,-4233.5708L14093.835,-4233.5691L14093.8043,-4233.5727L14093.7561,-4233.5841L14093.7552,-4233.5843L14093.7537,-4233.5846L14093.7138,-4233.6031L14093.7102,-4233.6047L14093.6899,-4233.6127L14093.6482,-4233.6268L14093.6308,-4233.6313L14093.608,-4233.6358L14093.6004,-4233.6364L14093.5738,-4233.6386L14093.5261,-4233.6369L14093.4987,-4233.6375L14093.4798,-4233.6364L14093.4292,-4233.6348L14093.3492,-4233.633L14093.3136,-4233.6347L14093.306,-4233.6341L14093.3045,-4233.624L14093.306,-4233.5891L14093.3063,-4233.5846L14093.3064,-4233.5828L14093.316,-4233.5596L14093.3283,-4233.5373L14093.3384,-4233.52L14093.3529,-4233.4976L14093.3682,-4233.4744L14093.3694,-4233.4726L14093.3818,-4233.4545L14093.3851,-4233.4497L14093.3884,-4233.445L14093.399,-4233.4249L14093.4164,-4233.4028L14093.4656,-4233.3363L14093.4704,-4233.3302L14093.4952,-4233.3144L14093.521,-4233.2981L14093.5346,-4233.2879L14093.5482,-4233.2784L14093.5551,-4233.2744L14093.5907,-4233.2503L14093.6308,-4233.2243L14093.6422,-4233.2159L14093.6735,-4233.2328"/>
<path content="1,道南バス（株）,工大・東室蘭東口・東町ターミナル～増市通・清水ヶ丘高校・絵,13.0,12.0,12.0," xlink:title="1" d="M14097.5284,-4231.4035L14097.5127,-4231.4506L14097.5112,-4231.4562L14097.4362,-4231.4506"/>
<path content="1,道南バス（株）,工大・東室蘭東口・東町ターミナル～増市通・清水ヶ丘高校・絵,13.0,12.0,12.0," xlink:title="1" d="M14097.4362,-4231.4506L14097.4367,-4231.545L14097.429,-4231.5446L14097.4128,-4231.5438L14097.397,-4231.6162"/>
<path content="1,道南バス（株）,工大・東室蘭東口・東町ターミナル～増市通・清水ヶ丘高校・絵,13.0,12.0,12.0," xlink:title="1" d="M14097.397,-4231.6162L14097.4792,-4231.635L14097.4834,-4231.6359L14097.4859,-4231.6418L14097.4878,-4231.6462"/>
<path content="1,道南バス（株）,工大・東室蘭東口・東町ターミナル～増市通・清水ヶ丘高校・絵,13.0,12.0,12.0," xlink:title="1" d="M14097.1982,-4231.6329L14097.1936,-4231.6294L14097.1952,-4231.62L14097.202,-4231.5761L14097.2096,-4231.5293L14097.2172,-4231.4821L14097.224,-4231.4331L14097.2702,-4231.437L14097.3331,-4231.4421L14097.4362,-4231.4506"/>
<path content="1,道南バス（株）,工大・東室蘭東口・東町ターミナル～増市通・清水ヶ丘高校・絵,13.0,12.0,12.0," xlink:title="1" d="M14097.1982,-4231.6329L14097.2097,-4231.6288L14097.2286,-4231.6222L14097.2505,-4231.6155L14097.2808,-4231.6093L14097.3028,-4231.6059L14097.3125,-4231.6077L14097.3331,-4231.607L14097.367,-4231.6114L14097.3688,-4231.6116L14097.3706,-4231.6118L14097.3725,-4231.6121L14097.3817,-4231.6135L14097.3834,-4231.6138L14097.3938,-4231.6155L14097.397,-4231.6162"/>
<path content="1,道南バス（株）,工大・東室蘭東口・東町ターミナル～増市通・清水ヶ丘高校・絵,13.0,12.0,12.0," xlink:title="1" d="M14097.4878,-4231.6462L14097.5034,-4231.6448L14097.5233,-4231.6448L14097.5289,-4231.6456L14097.5491,-4231.6487L14097.5589,-4231.6504L14097.603,-4231.6566L14097.6114,-4231.6578L14097.6461,-4231.6601L14097.6562,-4231.6608"/>
<path content="1,道南バス（株）,工大・東室蘭東口・東町ターミナル～増市通・清水ヶ丘高校・絵,13.0,12.0,12.0," xlink:title="1" d="M14097.4878,-4231.6462L14097.4878,-4231.6462L14097.4687,-4231.6543L14097.4521,-4231.6644L14097.421,-4231.692L14097.4154,-4231.6976L14097.4028,-4231.71L14097.3946,-4231.7213L14097.3884,-4231.7298L14097.3648,-4231.7573L14097.3644,-4231.7578L14097.3596,-4231.7644L14097.3574,-4231.7675L14097.3127,-4231.8215L14097.2892,-4231.8491"/>
<path content="1,道南バス（株）,工大・東室蘭東口・東町ターミナル～増市通・清水ヶ丘高校・絵,13.0,12.0,12.0," xlink:title="1" d="M14097.0929,-4231.8254L14097.1111,-4231.7444L14097.1202,-4231.7151L14097.124,-4231.7061L14097.134,-4231.6915L14097.1399,-4231.6858L14097.1457,-4231.6821L14097.1559,-4231.6708L14097.1564,-4231.6702L14097.1641,-4231.6616L14097.1816,-4231.647L14097.1982,-4231.6329"/>
<path content="1,道南バス（株）,工大・東室蘭東口・東町ターミナル～増市通・清水ヶ丘高校・絵,13.0,12.0,12.0," xlink:title="1" d="M14097.0929,-4231.8254L14097.0824,-4231.8892L14097.0649,-4231.9566L14097.1293,-4231.9639L14097.1346,-4231.9662L14097.1801,-4231.9842"/>
<path content="1,道南バス（株）,工大・東室蘭東口・東町ターミナル～増市通・清水ヶ丘高校・絵,13.0,12.0,12.0," xlink:title="1" d="M14097.2892,-4231.8491L14097.2498,-4231.8446L14097.1702,-4231.8367L14097.1005,-4231.8288L14097.0929,-4231.8254"/>
<path content="1,道南バス（株）,工大・東室蘭東口・東町ターミナル～増市通・清水ヶ丘高校・絵,13.0,12.0,12.0," xlink:title="1" d="M14097.1801,-4231.9842L14097.2376,-4231.9133L14097.2422,-4231.9065L14097.2483,-4231.8992L14097.2892,-4231.8491"/>
<path content="1,道南バス（株）,工大・東室蘭東口・東町ターミナル～増市通・清水ヶ丘高校・絵,13.0,12.0,12.0," xlink:title="1" d="M14097.1801,-4231.9842L14097.1694,-4231.9977L14097.0274,-4232.1721L14097.0212,-4232.1766L14096.9656,-4232.2482L14096.9519,-4232.2645L14096.9065,-4232.3332L14096.9004,-4232.3472L14096.8959,-4232.3591L14096.8898,-4232.3872L14096.8762,-4232.47L14096.8739,-4232.4897L14096.861,-4232.542L14096.8616,-4232.5486L14096.8201,-4232.6597L14096.7981,-4232.716L14096.7958,-4232.7239L14096.7678,-4232.7836L14096.7606,-4232.8053L14096.736,-4232.8511L14096.7345,-4232.8579L14096.7337,-4232.8809L14096.7307,-4232.9018L14096.7117,-4232.9316L14096.6852,-4232.9569L14096.6367,-4232.9986L14096.6261,-4233.0065L14096.5844,-4233.038L14096.5314,-4233.078L14096.52,-4233.0876L14096.4761,-4233.1196L14096.467,-4233.1241L14096.4404,-4233.1416L14096.4329,-4233.1461L14096.3695,-4233.1828L14096.3374,-4233.2052L14096.3276,-4233.2154L14096.3162,-4233.2311L14096.3101,-4233.2424L14096.2987,-4233.2666L14096.2844,-4233.288L14096.2684,-4233.3049L14096.2571,-4233.3144L14096.2306,-4233.3415L14096.2192,-4233.3522L14096.2101,-4233.3578L14096.1858,-4233.373L14096.1586,-4233.3865L14096.1288,-4233.4009L14096.0972,-4233.4191L14096.0578,-4233.4394L14096.0472,-4233.4456L14095.954,-4233.4951L14095.8909,-4233.5342"/>
<path content="1,道南バス（株）,工大・東室蘭東口・東町ターミナル～増市通・清水ヶ丘高校・絵,13.0,12.0,12.0," xlink:title="1" d="M14095.3305,-4232.9423L14095.3274,-4232.9311L14095.3205,-4232.9007L14095.3016,-4232.8163L14095.2971,-4232.7872L14095.2925,-4232.7774L14095.288,-4232.7656L14095.2739,-4232.7521L14095.2605,-4232.744L14095.2387,-4232.7251L14095.2296,-4232.7178L14095.213,-4232.7014L14095.1842,-4232.675L14095.1758,-4232.6666L14095.0953,-4232.586L14095.0523,-4232.5539L14095.0569,-4232.5207L14095.0576,-4232.5066L14095.0584,-4232.4987L14095.0561,-4232.4869L14095.0508,-4232.4616L14095.0486,-4232.4396L14095.0501,-4232.4025L14095.0561,-4232.3782L14095.0569,-4232.349L14095.0516,-4232.3084L14095.0493,-4232.2397L14095.0463,-4232.2268L14095.0399,-4232.2172"/>
<path content="1,道南バス（株）,工大・東室蘭東口・東町ターミナル～増市通・清水ヶ丘高校・絵,13.0,12.0,12.0," xlink:title="1" d="M14095.3305,-4232.9423L14095.3137,-4232.9452L14095.2652,-4232.952L14095.1542,-4232.9692L14095.1334,-4232.9716L14095.1251,-4232.9722L14095.0758,-4232.9795L14095.0546,-4232.9812L14094.9985,-4232.9818L14094.9682,-4232.9773L14094.9334,-4232.9733L14094.925,-4232.9722L14094.9068,-4232.9699L14094.8492,-4232.9671L14094.7576,-4232.9654L14094.7189,-4232.9671L14094.7129,-4232.9682L14094.6924,-4232.9711L14094.6714,-4232.9797L14094.6295,-4232.9958L14094.5787,-4233.0201L14094.484,-4233.0639L14094.4564,-4233.0849L14094.4456,-4233.0964L14094.4409,-4233.1031L14094.4308,-4233.1212L14094.4209,-4233.1447L14094.413,-4233.1632L14094.4059,-4233.1848L14094.4046,-4233.1894L14094.3989,-4233.1963L14094.3729,-4233.2227L14094.3575,-4233.2396L14094.3405,-4233.2565L14094.2591,-4233.3366L14094.2442,-4233.3506L14094.2283,-4233.364L14094.2154,-4233.3729L14094.1839,-4233.3825L14094.1324,-4233.3955L14094.0998,-4233.4045L14094.0854,-4233.4096L14094.0559,-4233.4225L14094.0301,-4233.4321"/>
<path content="1,道南バス（株）,工大・東室蘭東口・東町ターミナル～増市通・清水ヶ丘高校・絵,13.0,12.0,12.0," xlink:title="1" d="M14094.0301,-4233.4321L14094.0066,-4233.4535L14093.9597,-4233.4973L14093.9589,-4233.4985L14093.9415,-4233.5204L14093.9377,-4233.5261L14093.8953,-4233.5708"/>
<path content="1,道南バス（株）,工大・東室蘭東口・東町ターミナル～増市通・清水ヶ丘高校・絵,13.0,12.0,12.0," xlink:title="1" d="M14094.0301,-4233.4321L14094.017,-4233.4194L14093.9977,-4233.3996L14093.9673,-4233.3678L14093.9533,-4233.3582L14093.9453,-4233.3527L14093.9013,-4233.3336L14093.846,-4233.3077L14093.8013,-4233.2879L14093.774,-4233.2761L14093.7021,-4233.2435L14093.6735,-4233.2328L14093.6422,-4233.2159L14093.6308,-4233.2243L14093.5907,-4233.2503L14093.5551,-4233.2744L14093.5482,-4233.2784L14093.5346,-4233.2879L14093.521,-4233.2981L14093.4952,-4233.3144L14093.4704,-4233.3302L14093.4656,-4233.3363L14093.4164,-4233.4028L14093.399,-4233.4249L14093.3884,-4233.445L14093.3851,-4233.4497L14093.3818,-4233.4545L14093.3694,-4233.4726L14093.3682,-4233.4744L14093.3529,-4233.4976L14093.3384,-4233.52L14093.3283,-4233.5373L14093.316,-4233.5596L14093.3064,-4233.5828L14093.3063,-4233.5846L14093.306,-4233.5891L14093.3045,-4233.624L14093.306,-4233.6341L14093.3136,-4233.6347L14093.3492,-4233.633L14093.4292,-4233.6348L14093.4798,-4233.6364L14093.4987,-4233.6375L14093.5261,-4233.6369L14093.5738,-4233.6386L14093.6004,-4233.6364L14093.608,-4233.6358L14093.6308,-4233.6313L14093.6482,-4233.6268L14093.6899,-4233.6127L14093.7102,-4233.6047L14093.7138,-4233.6031L14093.7537,-4233.5846L14093.7552,-4233.5843L14093.7561,-4233.5841L14093.8043,-4233.5727L14093.835,-4233.5691L14093.8953,-4233.5708"/>
<path content="1,道南バス（株）,工大・東室蘭東口・東町ターミナル～増市通・清水ヶ丘高校・絵,13.0,12.0,12.0," xlink:title="1" d="M14094.1241,-4233.5007L14094.0862,-4233.4737L14094.0445,-4233.4439L14094.0301,-4233.4321"/>
<path content="1,道南バス（株）,工大・東室蘭東口・東町ターミナル～増市通・清水ヶ丘高校・絵,13.0,12.0,12.0," xlink:title="1" d="M14094.1241,-4233.5007L14094.1059,-4233.5109L14094.0438,-4233.5497L14094.0256,-4233.5587L14094.015,-4233.5626L14094.0115,-4233.5633L14093.9896,-4233.5677L14093.9445,-4233.5709L14093.9178,-4233.5709L14093.8953,-4233.5708"/>
<path content="1,道南バス（株）,工大・東室蘭東口・東町ターミナル～増市通・清水ヶ丘高校・絵,13.0,12.0,12.0," xlink:title="1" d="M14095.7509,-4233.5047L14095.716,-4233.4794L14095.6721,-4233.4473L14095.6325,-4233.4189L14095.6183,-4233.4084L14095.4872,-4233.3128L14095.4796,-4233.3054L14095.4463,-4233.2728L14095.4114,-4233.2399L14095.4099,-4233.2328L14095.3683,-4233.1816L14095.4062,-4233.1675L14095.4244,-4233.1597L14095.4213,-4233.1563L14095.3993,-4233.1045L14095.3834,-4233.0651L14095.338,-4232.9508L14095.3305,-4232.9423"/>
<path content="1,道南バス（株）,工大・東室蘭東口・東町ターミナル～増市通・清水ヶ丘高校・絵,13.0,12.0,12.0," xlink:title="1" d="M14095.7509,-4233.5047L14095.7661,-4233.5019L14095.7759,-4233.5008L14095.838,-4233.4906L14095.8883,-4233.5321L14095.8909,-4233.5342"/>
<path content="1,道南バス（株）,工大・東室蘭東口・東町ターミナル～増市通・清水ヶ丘高校・絵,13.0,12.0,12.0," xlink:title="1" d="M14095.8909,-4233.5342L14095.8358,-4233.5655"/>
<path content="1,道南バス（株）,工大・東室蘭東口・東町ターミナル～増市通・清水ヶ丘高校・絵,13.0,12.0,12.0," xlink:title="1" d="M14095.8358,-4233.5655L14095.8267,-4233.5599L14095.7509,-4233.5047"/>
<path content="1,道南バス（株）,工大・東室蘭東口・東町ターミナル～増市通・清水ヶ丘高校・絵,13.0,12.0,12.0," xlink:title="1" d="M14093.8953,-4233.5708L14093.8872,-4233.5781L14093.8792,-4233.5846L14093.8348,-4233.6223L14093.7726,-4233.6859L14093.7665,-4233.6915L14093.7407,-4233.7178L14093.7198,-4233.7397L14093.7027,-4233.7603L14093.6853,-4233.7782L14093.6641,-4233.8098L14093.6444,-4233.8452L14093.6345,-4233.8671L14093.7142,-4233.8885L14093.7582,-4233.8981L14093.7938,-4233.9049L14093.828,-4233.9088L14093.8856,-4233.9127L14093.9144,-4233.9127L14093.9251,-4233.9144L14093.9319,-4233.9161L14093.9592,-4233.9195L14093.9797,-4233.924L14094.0032,-4233.9313L14094.1094,-4233.9735L14094.1451,-4233.9887"/>
<path content="1,道南バス（株）,工大・東室蘭東口・東町ターミナル～増市通・清水ヶ丘高校・絵,13.0,12.0,12.0," xlink:title="1" d="M14094.1451,-4233.9887L14094.1198,-4234.0433"/>
<path content="1,道南バス（株）,工大・東室蘭東口・東町ターミナル～増市通・清水ヶ丘高校・絵,13.0,12.0,12.0," xlink:title="1" d="M14094.1451,-4233.9887L14094.1891,-4234.0107L14094.2187,-4234.0326L14094.2612,-4234.0726L14094.2885,-4234.0991L14094.3105,-4234.1154L14094.3355,-4234.1294L14094.3606,-4234.1396L14094.3795,-4234.1446L14094.4273,-4234.1508L14094.4458,-4234.1529L14094.5206,-4234.1599L14094.5699,-4234.1632L14094.6071,-4234.1627L14094.6284,-4234.161L14094.6572,-4234.1565L14094.683,-4234.152L14094.6906,-4234.1514L14094.7164,-4234.1464L14094.8256,-4234.1261L14094.8529,-4234.1267L14094.8765,-4234.1323L14094.8969,-4234.1396L14094.9379,-4234.161L14094.9811,-4234.1835L14095.0024,-4234.1959L14095.0441,-4234.1334L14095.0866,-4234.0833"/>
<path content="1,道南バス（株）,工大・東室蘭東口・東町ターミナル～増市通・清水ヶ丘高校・絵,13.0,12.0,12.0," xlink:title="1" d="M14095.0866,-4234.0833L14095.0464,-4234.0608L14095.0358,-4234.0552L14094.9956,-4234.0338L14094.9076,-4233.9854L14094.888,-4233.9709L14094.8674,-4233.9634L14094.8196,-4233.937L14094.7937,-4233.9234L14094.7664,-4233.9077L14094.7619,-4233.906L14094.7558,-4233.9015L14094.7591,-4233.8779L14094.7496,-4233.7888L14094.7487,-4233.7737L14094.7483,-4233.7653L14094.7475,-4233.7574L14094.7445,-4233.7473L14094.7376,-4233.7304L14094.6914,-4233.6195L14094.6771,-4233.5909L14094.6759,-4233.5846L14094.6669,-4233.5678L14094.6636,-4233.5531L14094.6605,-4233.543L14094.6583,-4233.5272L14094.6545,-4233.5081L14094.6545,-4233.5058L14094.6514,-4233.4996L14094.6492,-4233.4934L14094.6431,-4233.4889L14094.6287,-4233.4805L14094.6143,-4233.4754L14094.5977,-4233.4715L14094.5828,-4233.4705L14094.5728,-4233.4712L14094.5628,-4233.4718L14094.5539,-4233.4756L14094.5391,-4233.4819L14094.5295,-4233.4876L14094.5053,-4233.5026L14094.4963,-4233.5063L14094.4529,-4233.5199L14094.4423,-4233.5221L14094.4316,-4233.5219L14094.3696,-4233.5064L14094.2673,-4233.4839L14094.1976,-4233.4838L14094.1794,-4233.4844L14094.1631,-4233.4881L14094.1588,-4233.4879L14094.1499,-4233.4895L14094.1317,-4233.4962L14094.1241,-4233.5007"/>
<path content="1,道南バス（株）,工大・東室蘭東口・東町ターミナル～増市通・清水ヶ丘高校・絵,13.0,12.0,12.0," xlink:title="1" d="M14095.0866,-4234.0833L14095.1362,-4234.0371L14095.1632,-4234.0062L14095.1792,-4233.9922L14095.2065,-4233.9719L14095.2239,-4233.9606L14095.2361,-4233.9533L14095.2882,-4233.9231L14095.2937,-4233.915L14095.3529,-4233.8728L14095.384,-4233.8531L14095.3939,-4233.8498L14095.5158,-4233.8177L14095.5623,-4233.7849L14095.5858,-4233.7685L14095.6251,-4233.7276L14095.6526,-4233.7068L14095.6792,-4233.6848L14095.7588,-4233.6229L14095.8094,-4233.5847L14095.8226,-4233.5751L14095.8358,-4233.5655"/>
<path content="1,道南バス（株）,幌別資料館線,13.5,12.0,12.0," xlink:title="1" d="M14097.429,-4231.5446L14097.4128,-4231.5438L14097.397,-4231.6162"/>
<path content="1,道南バス（株）,幌別資料館線,13.5,12.0,12.0," xlink:title="1" d="M14097.397,-4231.6162L14097.4792,-4231.635L14097.4834,-4231.6359L14097.4859,-4231.6418L14097.4878,-4231.6462L14097.5034,-4231.6448L14097.5233,-4231.6448L14097.5289,-4231.6456L14097.5491,-4231.6487L14097.5589,-4231.6504L14097.603,-4231.6566L14097.6114,-4231.6578L14097.6461,-4231.6601L14097.6562,-4231.6608"/>
<path content="1,道南バス（株）,幌別資料館線,13.5,12.0,12.0," xlink:title="1" d="M14097.5858,-4232.0595L14097.5847,-4232.0033L14097.5581,-4232.0067L14097.5142,-4232.014L14097.499,-4232.0185L14097.4809,-4232.0298L14097.4695,-4232.0388L14097.4248,-4232.0793L14097.3823,-4232.1197L14097.3217,-4232.1733L14097.2156,-4232.2746L14097.1797,-4232.2761L14097.0823,-4232.2746L14097.0588,-4232.2763L14097.0239,-4232.2735L14097.0118,-4232.2701L14096.9656,-4232.2482"/>
<path content="1,道南バス（株）,幌別資料館線,13.5,12.0,12.0," xlink:title="1" d="M14096.9656,-4232.2482L14097.0212,-4232.1766"/>
<path content="1,道南バス（株）,幌別資料館線,13.5,12.0,12.0," xlink:title="1" d="M14096.9656,-4232.2482L14096.9519,-4232.2645L14096.9065,-4232.3332L14096.9004,-4232.3472L14096.8959,-4232.3591L14096.8898,-4232.3872L14096.8762,-4232.47L14096.8739,-4232.4897L14096.861,-4232.542L14096.8616,-4232.5486L14096.8201,-4232.6597L14096.7981,-4232.716L14096.7595,-4232.7002L14096.7519,-4232.6963L14096.742,-4232.689L14096.739,-4232.6687L14096.7337,-4232.6259L14096.7322,-4232.6136L14096.7322,-4232.5798L14096.736,-4232.5629L14096.7436,-4232.5488L14096.7615,-4232.5231L14096.7761,-4232.5032L14096.7807,-4232.4886L14096.7822,-4232.4582L14096.7814,-4232.4514L14096.7792,-4232.4137L14096.7838,-4232.3951L14096.7959,-4232.3743L14096.855,-4232.2887L14096.886,-4232.2454L14096.9035,-4232.2211L14096.942,-4232.1817L14096.952,-4232.1609L14096.9696,-4232.1409L14096.9826,-4232.1261L14097.0194,-4232.0844L14097.0376,-4232.0585L14097.0459,-4232.0416L14097.0565,-4231.996L14097.0573,-4231.9904L14097.0649,-4231.9566L14097.0824,-4231.8892L14097.0929,-4231.8254L14097.1111,-4231.7444L14097.1202,-4231.7151L14097.124,-4231.7061L14097.134,-4231.6915L14097.1399,-4231.6858L14097.1457,-4231.6821L14097.1559,-4231.6708L14097.1564,-4231.6702L14097.1641,-4231.6616L14097.1816,-4231.647L14097.1982,-4231.6329L14097.2097,-4231.6288L14097.2286,-4231.6222L14097.2505,-4231.6155L14097.2808,-4231.6093L14097.3028,-4231.6059L14097.3125,-4231.6077L14097.3331,-4231.607L14097.367,-4231.6114L14097.3688,-4231.6116L14097.3706,-4231.6118L14097.3725,-4231.6121L14097.3817,-4231.6135L14097.3834,-4231.6138L14097.3938,-4231.6155L14097.397,-4231.6162"/>
<path content="1,道南バス（株）,洞爺湖温泉・豊浦～伊達～室蘭港,25.5,24.5,21.0," xlink:title="1" d="M14097.5284,-4231.4035L14097.5127,-4231.4506L14097.5112,-4231.4562L14097.4362,-4231.4506L14097.4367,-4231.545L14097.429,-4231.5446L14097.4128,-4231.5438L14097.397,-4231.6162"/>
<path content="1,道南バス（株）,洞爺湖温泉・豊浦～伊達～室蘭港,25.5,24.5,21.0," xlink:title="1" d="M14097.397,-4231.6162L14097.4792,-4231.635L14097.4834,-4231.6359L14097.4859,-4231.6418L14097.4878,-4231.6462"/>
<path content="1,道南バス（株）,洞爺湖温泉・豊浦～伊達～室蘭港,25.5,24.5,21.0," xlink:title="1" d="M14097.4878,-4231.6462L14097.4878,-4231.6462L14097.4687,-4231.6543L14097.4521,-4231.6644L14097.421,-4231.692L14097.4154,-4231.6976L14097.4028,-4231.71L14097.3946,-4231.7213L14097.3884,-4231.7298L14097.3665,-4231.7551L14097.3644,-4231.7578L14097.3596,-4231.7644L14097.3574,-4231.7675L14097.3127,-4231.8215L14097.2892,-4231.8491L14097.2483,-4231.8992L14097.2422,-4231.9065L14097.2376,-4231.9133L14097.1801,-4231.9842L14097.1694,-4231.9977L14097.0274,-4232.1721L14097.0212,-4232.1766L14096.9656,-4232.2482L14097.0118,-4232.2701L14097.0239,-4232.2735L14097.0588,-4232.2763L14097.0823,-4232.2746L14097.1797,-4232.2761L14097.2156,-4232.2746L14097.3217,-4232.1733L14097.3823,-4232.1197L14097.4248,-4232.0793L14097.4695,-4232.0388L14097.4809,-4232.0298L14097.499,-4232.0185L14097.5142,-4232.014L14097.5581,-4232.0067L14097.5847,-4232.0033L14097.5858,-4232.0595"/>
<path content="1,道南バス（株）,洞爺湖温泉・豊浦～伊達～室蘭港,25.5,24.5,21.0," xlink:title="1" d="M14097.4878,-4231.6462L14097.5034,-4231.6448L14097.5233,-4231.6448L14097.5289,-4231.6456L14097.5491,-4231.6487L14097.5589,-4231.6504L14097.603,-4231.6566L14097.6114,-4231.6578L14097.6461,-4231.6601L14097.6562,-4231.6608"/>
<path content="1,道南バス（株）,洞爺湖温泉・豊浦～伊達～室蘭港,25.5,24.5,21.0," xlink:title="1" d="M14097.1457,-4231.6821L14097.1559,-4231.6708L14097.1564,-4231.6702L14097.1641,-4231.6616L14097.1816,-4231.647L14097.1982,-4231.6329L14097.2097,-4231.6288L14097.2286,-4231.6222L14097.2505,-4231.6155L14097.2808,-4231.6093L14097.3028,-4231.6059L14097.3125,-4231.6077L14097.3331,-4231.607L14097.367,-4231.6114L14097.3688,-4231.6116L14097.3706,-4231.6118L14097.3725,-4231.6121L14097.3817,-4231.6135L14097.3834,-4231.6138L14097.3938,-4231.6155L14097.397,-4231.6162"/>
<path content="1,道南バス（株）,洞爺湖温泉・豊浦～伊達～室蘭港,25.5,24.5,21.0," xlink:title="1" d="M14097.6562,-4235.9056L14097.6316,-4235.9027L14097.6067,-4235.8969L14097.578,-4235.8972L14097.5282,-4235.8949L14097.4333,-4235.8976L14097.3628,-4235.9018L14097.2851,-4235.9082L14097.1891,-4235.9191L14097.1191,-4235.9299L14097.0865,-4235.9365L14097.0624,-4235.9421L14097.0272,-4235.9546L14097.0131,-4235.9602L14096.9972,-4235.97L14096.9817,-4235.9836L14096.9641,-4236.0049L14096.9407,-4236.0331L14096.9127,-4236.0719L14096.8872,-4236.1132L14096.8811,-4236.119L14096.8635,-4236.1291L14096.8479,-4236.1362L14096.8319,-4236.1423L14096.8038,-4236.1505L14096.7923,-4236.1534L14096.7691,-4236.1598L14096.7648,-4236.161L14096.7513,-4236.1649L14096.7402,-4236.1677L14096.7161,-4236.174L14096.6994,-4236.1783L14096.6941,-4236.1806L14096.5682,-4236.2149L14096.506,-4236.2329L14096.4939,-4236.2352L14096.461,-4236.2447L14096.4089,-4236.2582L14096.3558,-4236.2644L14096.2989,-4236.265L14096.2754,-4236.2627L14096.223,-4236.256L14096.1934,-4236.2504L14096.1896,-4236.2487L14096.1563,-4236.2408L14096.1381,-4236.2352L14096.1191,-4236.2267L14096.1138,-4236.2256L14096.0531,-4236.198L14096.0189,-4236.1806L14095.9696,-4236.1608L14095.9317,-4236.1501L14095.893,-4236.1417L14095.8558,-4236.1355L14095.8019,-4236.1287L14095.7443,-4236.1237L14095.6927,-4236.1209L14095.6592,-4236.1206L14095.6298,-4236.1226L14095.6009,-4236.122L14095.5372,-4236.1271L14095.4689,-4236.1349L14095.4499,-4236.1372L14095.3233,-4236.1732L14095.3073,-4236.1788L14095.2347,-4236.2077L14095.1936,-4236.2227L14095.1714,-4236.2409L14095.1419,-4236.2588L14095.1207,-4236.2768L14095.1017,-4236.2971L14095.0873,-4236.3184L14095.0823,-4236.3281"/>
<path content="1,道南バス（株）,白馬台線,34.5,26.5,26.5," xlink:title="1" d="M14097.4878,-4231.6462L14097.4859,-4231.6418L14097.4834,-4231.6359L14097.4792,-4231.635L14097.397,-4231.6162L14097.3938,-4231.6155L14097.3834,-4231.6138L14097.3817,-4231.6135L14097.3725,-4231.6121L14097.3706,-4231.6118L14097.3688,-4231.6116L14097.367,-4231.6114L14097.3331,-4231.607L14097.3125,-4231.6077L14097.3028,-4231.6059L14097.2808,-4231.6093L14097.2505,-4231.6155L14097.2286,-4231.6222L14097.2097,-4231.6288L14097.1982,-4231.6329L14097.1816,-4231.647L14097.1641,-4231.6616L14097.1564,-4231.6702L14097.1559,-4231.6708L14097.1457,-4231.6821L14097.1399,-4231.6858L14097.134,-4231.6915L14097.124,-4231.7061L14097.1202,-4231.7151L14097.1111,-4231.7444L14097.0929,-4231.8254L14097.0824,-4231.8892L14097.0649,-4231.9566L14097.0573,-4231.9904L14097.0565,-4231.996L14097.0459,-4232.0416L14097.0376,-4232.0585L14097.0194,-4232.0844L14096.9826,-4232.1261L14096.9696,-4232.1409L14096.952,-4232.1609L14096.942,-4232.1817L14096.9035,-4232.2211L14096.886,-4232.2454L14096.855,-4232.2887L14096.7959,-4232.3743L14096.7838,-4232.3951L14096.7792,-4232.4137L14096.7814,-4232.4514L14096.7822,-4232.4582L14096.7807,-4232.4886L14096.7761,-4232.5032L14096.7615,-4232.5231L14096.7436,-4232.5488L14096.736,-4232.5629L14096.7322,-4232.5798L14096.7322,-4232.6136L14096.7337,-4232.6259L14096.739,-4232.6687L14096.742,-4232.689L14096.7519,-4232.6963L14096.7595,-4232.7002L14096.7981,-4232.716"/>
<path content="1,道南バス（株）,白馬台線,34.5,26.5,26.5," xlink:title="1" d="M14097.4878,-4231.6462L14097.5034,-4231.6448L14097.5233,-4231.6448L14097.5289,-4231.6456L14097.5491,-4231.6487L14097.5589,-4231.6504L14097.603,-4231.6566L14097.6114,-4231.6578L14097.6461,-4231.6601L14097.6562,-4231.6608"/>
<path content="1,道南バス（株）,白馬台線,34.5,26.5,26.5," xlink:title="1" d="M14095.0399,-4232.2172L14095.0463,-4232.2268L14095.0493,-4232.2397L14095.0516,-4232.3084L14095.0569,-4232.349L14095.0561,-4232.3782L14095.0501,-4232.4025L14095.0486,-4232.4396L14095.0508,-4232.4616L14095.0561,-4232.4869L14095.0584,-4232.4987L14095.0576,-4232.5066L14095.0569,-4232.5207L14095.0523,-4232.5539L14095.0953,-4232.586L14095.1758,-4232.6666L14095.1842,-4232.675L14095.213,-4232.7014L14095.2296,-4232.7178L14095.2387,-4232.7251L14095.2605,-4232.744L14095.2739,-4232.7521L14095.288,-4232.7656L14095.2925,-4232.7774L14095.2971,-4232.7872L14095.3016,-4232.8163L14095.3205,-4232.9007L14095.3274,-4232.9311L14095.3305,-4232.9423L14095.338,-4232.9508L14095.3834,-4233.0651L14095.3993,-4233.1045L14095.4213,-4233.1563L14095.4244,-4233.1597L14095.4062,-4233.1675L14095.3683,-4233.1816L14095.4099,-4233.2328L14095.4114,-4233.2399L14095.4463,-4233.2728L14095.4796,-4233.3054L14095.4872,-4233.3128L14095.6183,-4233.4084L14095.6325,-4233.4189L14095.6721,-4233.4473L14095.716,-4233.4794L14095.7509,-4233.5047L14095.8267,-4233.5599L14095.8358,-4233.5655"/>
<path content="1,道南バス（株）,白馬台線,34.5,26.5,26.5," xlink:title="1" d="M14096.9656,-4232.2482L14097.0212,-4232.1766L14097.0274,-4232.1721L14097.1694,-4231.9977L14097.1801,-4231.9842L14097.2376,-4231.9133L14097.2422,-4231.9065L14097.2483,-4231.8992L14097.2892,-4231.8491L14097.3127,-4231.8215L14097.3574,-4231.7675L14097.3596,-4231.7644L14097.3644,-4231.7578L14097.3648,-4231.7573L14097.3884,-4231.7298L14097.3946,-4231.7213L14097.4028,-4231.71L14097.4154,-4231.6976L14097.421,-4231.692L14097.4521,-4231.6644L14097.4687,-4231.6543L14097.4878,-4231.6462L14097.4878,-4231.6462"/>
<path content="1,道南バス（株）,白馬台線,34.5,26.5,26.5," xlink:title="1" d="M14096.9656,-4232.2482L14097.0118,-4232.2701L14097.0239,-4232.2735L14097.0588,-4232.2763L14097.0823,-4232.2746L14097.1797,-4232.2761L14097.2156,-4232.2746"/>
<path content="1,道南バス（株）,白馬台線,34.5,26.5,26.5," xlink:title="1" d="M14097.2156,-4232.2746L14097.3217,-4232.1733L14097.3823,-4232.1197L14097.4248,-4232.0793L14097.4695,-4232.0388L14097.4809,-4232.0298L14097.499,-4232.0185L14097.5142,-4232.014L14097.5581,-4232.0067L14097.5847,-4232.0033L14097.5858,-4232.0595L14097.6089,-4232.1801L14097.6218,-4232.2752L14097.5558,-4232.2752L14097.4652,-4232.2752L14097.4626,-4232.2752L14097.4188,-4232.2751L14097.3861,-4232.2746L14097.2156,-4232.2746"/>
<path content="1,道南バス（株）,白馬台線,34.5,26.5,26.5," xlink:title="1" d="M14096.7981,-4232.716L14096.8201,-4232.6597L14096.8616,-4232.5486L14096.861,-4232.542L14096.8739,-4232.4897L14096.8762,-4232.47L14096.8898,-4232.3872L14096.8959,-4232.3591L14096.9004,-4232.3472L14096.9065,-4232.3332L14096.9519,-4232.2645L14096.9656,-4232.2482"/>
<path content="1,道南バス（株）,白馬台線,34.5,26.5,26.5," xlink:title="1" d="M14095.8358,-4233.5655L14095.8909,-4233.5342L14095.954,-4233.4951L14096.0472,-4233.4456L14096.0578,-4233.4394L14096.0972,-4233.4191L14096.1288,-4233.4009L14096.1586,-4233.3865L14096.1858,-4233.373L14096.2101,-4233.3578L14096.2192,-4233.3522L14096.2306,-4233.3415L14096.2571,-4233.3144L14096.2684,-4233.3049L14096.2844,-4233.288L14096.2987,-4233.2666L14096.3101,-4233.2424L14096.3162,-4233.2311L14096.3276,-4233.2154L14096.3374,-4233.2052L14096.3695,-4233.1828L14096.4329,-4233.1461L14096.4404,-4233.1416L14096.467,-4233.1241L14096.4761,-4233.1196L14096.52,-4233.0876L14096.5314,-4233.078L14096.5844,-4233.038L14096.6261,-4233.0065L14096.6367,-4232.9986L14096.6852,-4232.9569L14096.7117,-4232.9316L14096.7307,-4232.9018L14096.7337,-4232.8809L14096.7345,-4232.8579L14096.736,-4232.8511L14096.7606,-4232.8053L14096.7678,-4232.7836L14096.7958,-4232.7239L14096.7981,-4232.716"/>
<path content="1,道南バス（株）,白馬台線,34.5,26.5,26.5," xlink:title="1" d="M14095.8358,-4233.5655L14095.8226,-4233.5751L14095.8094,-4233.5847L14095.7588,-4233.6229L14095.6792,-4233.6848L14095.6526,-4233.7068L14095.6251,-4233.7276L14095.5858,-4233.7685L14095.5623,-4233.7849L14095.5158,-4233.8177L14095.3939,-4233.8498L14095.384,-4233.8531L14095.3529,-4233.8728L14095.2937,-4233.915L14095.2882,-4233.9231L14095.2361,-4233.9533L14095.2239,-4233.9606L14095.2065,-4233.9719L14095.1792,-4233.9922L14095.1632,-4234.0062L14095.1362,-4234.0371L14095.0866,-4234.0833L14095.0441,-4234.1334L14095.0024,-4234.1959L14094.9963,-4234.2055L14094.9621,-4234.2581L14094.9622,-4234.2606L14094.9576,-4234.2843L14094.9303,-4234.3625L14094.9235,-4234.3878L14094.9129,-4234.4509L14094.9112,-4234.4684L14094.9151,-4234.47L14094.9121,-4234.483L14094.9106,-4234.5139L14094.9113,-4234.5972L14094.9144,-4234.6366L14094.953,-4234.8792L14094.9841,-4235.0672L14095.0039,-4235.1809L14095.0334,-4235.3648L14095.0714,-4235.6008L14095.1571,-4236.1467L14095.1714,-4236.2409"/>
<path content="1,道南バス（株）,白馬台線,34.5,26.5,26.5," xlink:title="1" d="M14095.1714,-4236.2409L14095.1419,-4236.2588L14095.1207,-4236.2768L14095.1017,-4236.2971L14095.0873,-4236.3184L14095.0823,-4236.3281"/>
<path content="1,道南バス（株）,白馬台線,34.5,26.5,26.5," xlink:title="1" d="M14095.1714,-4236.2409L14095.1742,-4236.2591L14095.176,-4236.271L14095.1771,-4236.2783L14095.1821,-4236.3111L14095.1836,-4236.3257L14095.1841,-4236.3281"/>
<path content="1,道南バス（株）,白馬台線,34.5,26.5,26.5," xlink:title="1" d="M14097.6562,-4235.9056L14097.6316,-4235.9027L14097.6067,-4235.8969L14097.578,-4235.8972L14097.5282,-4235.8949L14097.4333,-4235.8976L14097.3628,-4235.9018L14097.2851,-4235.9082L14097.1891,-4235.9191L14097.1191,-4235.9299L14097.0865,-4235.9365L14097.0624,-4235.9421L14097.0272,-4235.9546L14097.0131,-4235.9602L14096.9972,-4235.97L14096.9817,-4235.9836L14096.9641,-4236.0049L14096.9407,-4236.0331L14096.9127,-4236.0719L14096.8872,-4236.1132L14096.8811,-4236.119L14096.8635,-4236.1291L14096.8479,-4236.1362L14096.8319,-4236.1423L14096.8038,-4236.1505L14096.7923,-4236.1534L14096.7691,-4236.1598L14096.7648,-4236.161L14096.7513,-4236.1649L14096.7402,-4236.1677L14096.7161,-4236.174L14096.6994,-4236.1783L14096.6941,-4236.1806L14096.5682,-4236.2149L14096.506,-4236.2329L14096.4939,-4236.2352L14096.461,-4236.2447L14096.4089,-4236.2582L14096.3558,-4236.2644L14096.2989,-4236.265L14096.2754,-4236.2627L14096.223,-4236.256L14096.1934,-4236.2504L14096.1896,-4236.2487L14096.1563,-4236.2408L14096.1381,-4236.2352L14096.1191,-4236.2267L14096.1138,-4236.2256L14096.0531,-4236.198L14096.0189,-4236.1806L14095.9696,-4236.1608L14095.9317,-4236.1501L14095.893,-4236.1417L14095.8558,-4236.1355L14095.8019,-4236.1287L14095.7443,-4236.1237L14095.6927,-4236.1209L14095.6592,-4236.1206L14095.6298,-4236.1226L14095.6009,-4236.122L14095.5372,-4236.1271L14095.4689,-4236.1349L14095.4499,-4236.1372L14095.3233,-4236.1732L14095.3073,-4236.1788L14095.2347,-4236.2077L14095.1936,-4236.2227L14095.1714,-4236.2409"/>
<path content="1,道南バス（株）,高速はやぶさ号,11.0,11.0,11.0," xlink:title="1" d="M14097.429,-4231.5446L14097.4128,-4231.5438L14097.397,-4231.6162"/>
<path content="1,道南バス（株）,高速はやぶさ号,11.0,11.0,11.0," xlink:title="1" d="M14097.397,-4231.6162L14097.4792,-4231.635L14097.4834,-4231.6359L14097.4859,-4231.6418L14097.4878,-4231.6462"/>
<path content="1,道南バス（株）,高速はやぶさ号,11.0,11.0,11.0," xlink:title="1" d="M14097.4878,-4231.6462L14097.4878,-4231.6462L14097.4687,-4231.6543L14097.4521,-4231.6644L14097.421,-4231.692L14097.4154,-4231.6976L14097.4028,-4231.71L14097.3946,-4231.7213L14097.3884,-4231.7298L14097.3648,-4231.7573L14097.3644,-4231.7578L14097.3596,-4231.7644L14097.3574,-4231.7675L14097.3127,-4231.8215L14097.2892,-4231.8491L14097.2483,-4231.8992L14097.2422,-4231.9065L14097.2376,-4231.9133L14097.1801,-4231.9842L14097.1694,-4231.9977L14097.0274,-4232.1721L14097.0212,-4232.1766"/>
<path content="1,道南バス（株）,高速はやぶさ号,11.0,11.0,11.0," xlink:title="1" d="M14097.4878,-4231.6462L14097.5034,-4231.6448L14097.5233,-4231.6448L14097.5289,-4231.6456L14097.5491,-4231.6487L14097.5589,-4231.6504L14097.603,-4231.6566L14097.6114,-4231.6578L14097.6461,-4231.6601L14097.6562,-4231.6608"/>
<path content="1,道南バス（株）,高速はやぶさ号,11.0,11.0,11.0," xlink:title="1" d="M14097.0824,-4231.8892L14097.0929,-4231.8254L14097.1111,-4231.7444L14097.1202,-4231.7151L14097.124,-4231.7061L14097.134,-4231.6915L14097.1399,-4231.6858L14097.1457,-4231.6821L14097.1559,-4231.6708L14097.1564,-4231.6702L14097.1641,-4231.6616L14097.1816,-4231.647L14097.1982,-4231.6329L14097.2097,-4231.6288L14097.2286,-4231.6222L14097.2505,-4231.6155L14097.2808,-4231.6093L14097.3028,-4231.6059L14097.3125,-4231.6077L14097.3331,-4231.607L14097.367,-4231.6114L14097.3688,-4231.6116L14097.3706,-4231.6118L14097.3725,-4231.6121L14097.3817,-4231.6135L14097.3834,-4231.6138L14097.3938,-4231.6155L14097.397,-4231.6162"/>
<path content="1,道南バス（株）,高速白鳥号,7.0,7.0,7.0," xlink:title="1" d="M14097.429,-4231.5446L14097.4128,-4231.5438L14097.397,-4231.6162"/>
<path content="1,道南バス（株）,高速白鳥号,7.0,7.0,7.0," xlink:title="1" d="M14097.397,-4231.6162L14097.4792,-4231.635L14097.4834,-4231.6359L14097.4859,-4231.6418L14097.4878,-4231.6462L14097.5034,-4231.6448L14097.5233,-4231.6448L14097.5289,-4231.6456L14097.5491,-4231.6487L14097.5589,-4231.6504L14097.603,-4231.6566L14097.6114,-4231.6578L14097.6461,-4231.6601L14097.6562,-4231.6608"/>
<path content="1,道南バス（株）,高速白鳥号,7.0,7.0,7.0," xlink:title="1" d="M14097.0929,-4231.8254L14097.1111,-4231.7444L14097.1202,-4231.7151L14097.124,-4231.7061L14097.134,-4231.6915L14097.1399,-4231.6858L14097.1457,-4231.6821L14097.1559,-4231.6708L14097.1564,-4231.6702L14097.1641,-4231.6616L14097.1816,-4231.647L14097.1982,-4231.6329L14097.2097,-4231.6288L14097.2286,-4231.6222L14097.2505,-4231.6155L14097.2808,-4231.6093L14097.3028,-4231.6059L14097.3125,-4231.6077L14097.3331,-4231.607L14097.367,-4231.6114L14097.3688,-4231.6116L14097.3706,-4231.6118L14097.3725,-4231.6121L14097.3817,-4231.6135L14097.3834,-4231.6138L14097.3938,-4231.6155L14097.397,-4231.6162"/>
<path content="1,道南バス（株）,高速白鳥号,7.0,7.0,7.0," xlink:title="1" d="M14097.0929,-4231.8254L14097.0824,-4231.8892"/>
<path content="1,道南バス（株）,高速白鳥号,7.0,7.0,7.0," xlink:title="1" d="M14097.2892,-4231.8491L14097.2498,-4231.8446L14097.1702,-4231.8367L14097.1005,-4231.8288L14097.0929,-4231.8254"/>
<path content="1,道南バス（株）,高速白鳥号,7.0,7.0,7.0," xlink:title="1" d="M14097.2892,-4231.8491L14097.3127,-4231.8215L14097.3574,-4231.7675L14097.3596,-4231.7644L14097.3644,-4231.7578"/>
<path content="1,道南バス（株）,高速白鳥号,7.0,7.0,7.0," xlink:title="1" d="M14097.0212,-4232.1766L14097.0274,-4232.1721L14097.1694,-4231.9977L14097.1801,-4231.9842L14097.2376,-4231.9133L14097.2422,-4231.9065L14097.2483,-4231.8992L14097.2892,-4231.8491"/>
</g>
</svg>
