<?xml version="1.0" encoding="UTF-8"?>
<svg  xmlns="http://www.w3.org/2000/svg" xmlns:xlink="http://www.w3.org/1999/xlink" xmlns:go="http://purl.org/svgmap/profile" property="N07_001,N07_002,N07_003,N07_004,N07_005,N07_006,N07_007" viewBox="14109.7412109375 -3901.2451171875 1.0986328125 1.0986328125" go:dataArea="14109.7412109375 -3901.2451171875 1.0986328125 1.0986328125" >
<metadata>
 <rdf:RDF xmlns:rdf="http://www.w3.org/1999/02/22-rdf-syntax-ns#" xmlns:crs="http://opengis.org/xmldtds/transformations.dtd" xmlns:svg="http://www.w3.org/svg" >
  <rdf:Description>
   <crs:CoordinateReferenceSystem rdf:resource="http://purl.org/crs/84" svg:transform="matrix(100.0,0.0,0.0,-100.0,0.0,0.0)" />
  </rdf:Description>
 </rdf:RDF>
</metadata>
<globalCoordinateSystem srsName="http://purl.org/crs/84" transform="matrix(100.0,0.0,0.0,-100.0,0.0,0.0)" />
<defs>
 <g id="p0" >
  <circle cx="0.0" cy="0.0" r="3" stroke="green" stroke-width="0.75" vector-effect="non-scaling-stroke" />
 </g>
</defs>
<g fill="none" fill-rule="evenodd" stroke="#FF00FF" stroke-width="0.75" opacity="0.5" vector-effect="non-scaling-stroke" stroke-linejoin="bevel" >
<path content="1,岩手県交通（株）,国道南線,31.0,29.0,29.0," xlink:title="1" d="M14110.6187,-3900.1465L14110.6174,-3900.1513L14110.6095,-3900.1891L14110.6044,-3900.229L14110.6027,-3900.2523L14110.5994,-3900.2893L14110.5954,-3900.3355L14110.5949,-3900.3515L14110.594,-3900.3974L14110.5961,-3900.4104L14110.599,-3900.4267L14110.6055,-3900.4492L14110.612,-3900.4628L14110.6257,-3900.4892L14110.633,-3900.5005L14110.6445,-3900.5225L14110.6553,-3900.5411L14110.6553,-3900.5411L14110.6554,-3900.5412L14110.6748,-3900.5755L14110.7109,-3900.6402L14110.7181,-3900.6503L14110.7253,-3900.6596L14110.7664,-3900.7376L14110.8126,-3900.821L14110.8307,-3900.8559L14110.8398,-3900.8715"/>
<path content="1,岩手県交通（株）,盛岡・平泉線,0.6,0.6,0.6," xlink:title="1" d="M14110.6187,-3900.1465L14110.6174,-3900.1513L14110.6095,-3900.1891L14110.6044,-3900.229L14110.6027,-3900.2523L14110.5994,-3900.2893L14110.5954,-3900.3355L14110.5949,-3900.3515L14110.594,-3900.3974L14110.5961,-3900.4104L14110.599,-3900.4267L14110.6055,-3900.4492L14110.612,-3900.4628L14110.6257,-3900.4892L14110.633,-3900.5005L14110.6445,-3900.5225L14110.6553,-3900.5411L14110.6748,-3900.5755L14110.7109,-3900.6402L14110.7181,-3900.6503L14110.7253,-3900.6596L14110.7664,-3900.7376L14110.8126,-3900.821L14110.8307,-3900.8559L14110.8398,-3900.8715"/>
</g>
</svg>
