<?xml version="1.0" encoding="UTF-8"?>
<svg  xmlns="http://www.w3.org/2000/svg" xmlns:xlink="http://www.w3.org/1999/xlink" xmlns:go="http://purl.org/svgmap/profile" property="N07_001,N07_002,N07_003,N07_004,N07_005,N07_006,N07_007" viewBox="14114.410400390625 -3970.458984375 0.274658203125 0.274658203125" go:dataArea="14114.410400390625 -3970.458984375 0.274658203125 0.274658203125" >
<metadata>
 <rdf:RDF xmlns:rdf="http://www.w3.org/1999/02/22-rdf-syntax-ns#" xmlns:crs="http://opengis.org/xmldtds/transformations.dtd" xmlns:svg="http://www.w3.org/svg" >
  <rdf:Description>
   <crs:CoordinateReferenceSystem rdf:resource="http://purl.org/crs/84" svg:transform="matrix(100.0,0.0,0.0,-100.0,0.0,0.0)" />
  </rdf:Description>
 </rdf:RDF>
</metadata>
<globalCoordinateSystem srsName="http://purl.org/crs/84" transform="matrix(100.0,0.0,0.0,-100.0,0.0,0.0)" />
<defs>
 <g id="p0" >
  <circle cx="0.0" cy="0.0" r="3" stroke="green" stroke-width="0.75" vector-effect="non-scaling-stroke" />
 </g>
</defs>
<g fill="none" fill-rule="evenodd" stroke="#FF00FF" stroke-width="0.75" opacity="0.5" vector-effect="non-scaling-stroke" stroke-linejoin="bevel" >
<path content="1,JRバス東北（株）,盛岡ー岩泉（龍泉洞）,4.0,4.0,4.0," xlink:title="1" d="M14114.4104,-3970.1846L14114.4115,-3970.1843"/>
<path content="1,岩手県交通（株）,210,7.0,9.0,9.0," xlink:title="1" d="M14114.4104,-3970.1846L14114.4115,-3970.1843"/>
<path content="1,岩手県交通（株）,218,10.0,10.0,10.0," xlink:title="1" d="M14114.4104,-3970.1846L14114.4115,-3970.1843"/>
<path content="1,岩手県交通（株）,219,10.0,10.0,10.0," xlink:title="1" d="M14114.4104,-3970.1846L14114.4115,-3970.1843"/>
<path content="1,岩手県交通（株）,252,14.0,20.0,20.0," xlink:title="1" d="M14114.4104,-3970.1846L14114.4115,-3970.1843"/>
<path content="1,岩手県交通（株）,307,62.5,72.0,72.0," xlink:title="1" d="M14114.6851,-3970.2058L14114.6843,-3970.2033L14114.6763,-3970.1843M14114.4115,-3970.1843L14114.4104,-3970.1846"/>
<path content="1,岩手県交通（株）,314,25.0,16.0,16.0," xlink:title="1" d="M14114.4104,-3970.1846L14114.4115,-3970.1843"/>
<path content="1,岩手県交通（株）,333,3.0,0.0,0.0," xlink:title="1" d="M14114.4104,-3970.1846L14114.4115,-3970.1843M14114.6763,-3970.1843L14114.6843,-3970.2033L14114.6851,-3970.2058"/>
<path content="1,岩手県交通（株）,401,11.0,5.5,5.5," xlink:title="1" d="M14114.6851,-3970.2058L14114.6843,-3970.2033L14114.6763,-3970.1843M14114.4115,-3970.1843L14114.4104,-3970.1846"/>
<path content="1,岩手県交通（株）,402,11.5,7.5,7.5," xlink:title="1" d="M14114.6851,-3970.2058L14114.6843,-3970.2033L14114.6763,-3970.1843M14114.4115,-3970.1843L14114.4104,-3970.1846"/>
<path content="1,岩手県交通（株）,403,2.0,4.0,4.0," xlink:title="1" d="M14114.6851,-3970.2058L14114.6843,-3970.2033L14114.6763,-3970.1843M14114.4115,-3970.1843L14114.4104,-3970.1846"/>
<path content="1,岩手県交通（株）,405,25.8,18.0,18.0," xlink:title="1" d="M14114.4104,-3970.1846L14114.4115,-3970.1843"/>
<path content="1,岩手県交通（株）,406,0.1,2.2,2.2," xlink:title="1" d="M14114.4115,-3970.1843L14114.4104,-3970.1846"/>
<path content="1,岩手県交通（株）,781,53.0,53.0,53.0," xlink:title="1" d="M14114.4115,-3970.1843L14114.4104,-3970.1846"/>
<path content="1,岩手県交通（株）,782,40.0,40.0,40.0," xlink:title="1" d="M14114.4115,-3970.1843L14114.4104,-3970.1846"/>
<path content="1,岩手県交通（株）,792,12.0,0.0,0.0," xlink:title="1" d="M14114.6851,-3970.2058L14114.6843,-3970.2033L14114.6763,-3970.1843"/>
<path content="1,岩手県交通（株）,北上深夜線,1.0,0.0,0.0," xlink:title="1" d="M14114.6763,-3970.1843L14114.6843,-3970.2033L14114.6851,-3970.2058"/>
<path content="1,岩手県交通（株）,厨川深夜線,1.0,0.0,0.0," xlink:title="1" d="M14114.4104,-3970.1846L14114.4115,-3970.1843"/>
<path content="1,岩手県交通（株）,日詰深夜線,1.0,0.0,0.0," xlink:title="1" d="M14114.6763,-3970.1843L14114.6843,-3970.2033L14114.6851,-3970.2058"/>
<path content="1,岩手県交通（株）,松園深夜線,2.0,0.0,0.0," xlink:title="1" d="M14114.4104,-3970.1846L14114.4115,-3970.1843M14114.6763,-3970.1843L14114.6843,-3970.2033L14114.6851,-3970.2058"/>
<path content="1,岩手県交通（株）,盛岡大船渡線,4.0,4.0,4.0," xlink:title="1" d="M14114.4104,-3970.356L14114.4132,-3970.3561L14114.4438,-3970.3544L14114.4642,-3970.3527L14114.4708,-3970.3504L14114.4759,-3970.3482L14114.5196,-3970.3397L14114.5743,-3970.3302L14114.6187,-3970.32L14114.6588,-3970.3121L14114.6851,-3970.3074"/>
<path content="1,岩手県北自動車（株）,久慈こはく号　盛岡⇔九戸・久慈,2.0,2.0,2.0," xlink:title="1" d="M14114.6851,-3970.2058L14114.6843,-3970.2033L14114.6763,-3970.1843M14114.4115,-3970.1843L14114.4104,-3970.1846"/>
<path content="1,岩手県北自動車（株）,厨川駅⇔上堂⇔盛岡バスセンター,1.0,1.0,1.0," xlink:title="1" d="M14114.4104,-3970.1846L14114.4115,-3970.1843M14114.6763,-3970.1843L14114.6843,-3970.2033L14114.6851,-3970.2058"/>
<path content="1,岩手県北自動車（株）,盛岡⇔八幡平（季節運行）,2.8,2.8,2.8," xlink:title="1" d="M14114.6851,-3970.2058L14114.6843,-3970.2033L14114.6763,-3970.1843M14114.4115,-3970.1843L14114.4104,-3970.1846"/>
<path content="1,岩手県北自動車（株）,盛岡⇔沼宮内,15.5,15.5,9.0," xlink:title="1" d="M14114.6851,-3970.2058L14114.6843,-3970.2033L14114.6763,-3970.1843M14114.4115,-3970.1843L14114.4104,-3970.1846"/>
<path content="1,岩手県北自動車（株）,盛岡バスセンター⇔イオン盛岡南SC,5.5,6.5,6.5," xlink:title="1" d="M14114.4104,-3970.1846L14114.4115,-3970.1843M14114.6763,-3970.1843L14114.6843,-3970.2033L14114.6851,-3970.2058"/>
<path content="1,岩手県北自動車（株）,盛岡バスセンター⇔盛岡大学,14.0,1.0,1.0," xlink:title="1" d="M14114.4104,-3970.1846L14114.4115,-3970.1843M14114.6763,-3970.1843L14114.6843,-3970.2033L14114.6851,-3970.2058"/>
<path content="1,岩手県北自動車（株）,盛岡バスセンター⇔県立大学・滝沢駅前,16.0,7.0,7.0," xlink:title="1" d="M14114.4104,-3970.1846L14114.4115,-3970.1843M14114.6763,-3970.1843L14114.6843,-3970.2033L14114.6851,-3970.2058"/>
<path content="1,岩手県北自動車（株）,盛岡バスセンター・イオン盛岡南SC⇔運動公園⇔厨川駅,3.0,2.0,2.0," xlink:title="1" d="M14114.6851,-3970.2058L14114.6843,-3970.2033L14114.6763,-3970.1843M14114.4115,-3970.1843L14114.4104,-3970.1846"/>
</g>
</svg>
