<?xml version="1.0" encoding="UTF-8"?>
<svg  xmlns="http://www.w3.org/2000/svg" xmlns:xlink="http://www.w3.org/1999/xlink" xmlns:go="http://purl.org/svgmap/profile" property="N07_001,N07_002,N07_003,N07_004,N07_005,N07_006,N07_007" viewBox="13987.79296875 -3654.052734375 2.197265625 2.197265625" go:dataArea="13987.79296875 -3654.052734375 2.197265625 2.197265625" >
<metadata>
 <rdf:RDF xmlns:rdf="http://www.w3.org/1999/02/22-rdf-syntax-ns#" xmlns:crs="http://opengis.org/xmldtds/transformations.dtd" xmlns:svg="http://www.w3.org/svg" >
  <rdf:Description>
   <crs:CoordinateReferenceSystem rdf:resource="http://purl.org/crs/84" svg:transform="matrix(100.0,0.0,0.0,-100.0,0.0,0.0)" />
  </rdf:Description>
 </rdf:RDF>
</metadata>
<globalCoordinateSystem srsName="http://purl.org/crs/84" transform="matrix(100.0,0.0,0.0,-100.0,0.0,0.0)" />
<defs>
 <g id="p0" >
  <circle cx="0.0" cy="0.0" r="3" stroke="green" stroke-width="0.75" vector-effect="non-scaling-stroke" />
 </g>
</defs>
<g fill="none" fill-rule="evenodd" stroke="#FF00FF" stroke-width="0.75" opacity="0.5" vector-effect="non-scaling-stroke" stroke-linejoin="bevel" >
<path content="1,関東自動車（株）,作新学園前・上三川車庫,0.4,0.0,0.0," xlink:title="1" d="M13989.8814,-3654.0527L13989.8787,-3654.0431L13989.8696,-3654.0143L13989.8676,-3654.0031L13989.8676,-3653.9907L13989.8683,-3653.985L13989.8843,-3653.9309L13989.8913,-3653.8994L13989.8899,-3653.8583L13989.8826,-3653.8388L13989.878,-3653.8126L13989.8766,-3653.811L13989.8599,-3653.7625L13989.8446,-3653.7315L13989.8383,-3653.7214L13989.8348,-3653.7135L13989.8285,-3653.7017L13989.8234,-3653.6899L13989.8138,-3653.66L13989.8111,-3653.6509L13989.8096,-3653.6374L13989.8076,-3653.5763L13989.8045,-3653.5696L13989.7579,-3653.5738L13989.7095,-3653.573L13989.6959,-3653.5723L13989.6595,-3653.5706L13989.555,-3653.5682L13989.5424,-3653.567L13989.533,-3653.5672L13989.4372,-3653.5643L13989.4132,-3653.5636L13989.3924,-3653.5629L13989.3051,-3653.5598L13989.2845,-3653.5591L13989.2334,-3653.5573L13989.2194,-3653.5568L13989.1081,-3653.5588L13989.0691,-3653.5515L13989.0541,-3653.5515L13989.0444,-3653.5515L13988.9828,-3653.5471L13988.9604,-3653.5478L13988.9639,-3653.5377L13988.9834,-3653.4842L13989.0009,-3653.438L13989.0044,-3653.4312L13989.0079,-3653.4194L13989.0141,-3653.3856L13989.0155,-3653.3568L13989.0127,-3653.3061L13989.0113,-3653.2864L13989.0104,-3653.2634L13989.0106,-3653.2498L13989.012,-3653.2413L13989.0127,-3653.2312L13989.0197,-3653.2013L13989.0309,-3653.167L13989.0399,-3653.1439L13989.0637,-3653.0875L13989.092,-3653.0302L13989.1286,-3652.9562L13989.1774,-3652.8932L13989.1949,-3652.8695L13989.2103,-3652.8503L13989.2137,-3652.8447L13989.2186,-3652.8396L13989.2535,-3652.7912L13989.2633,-3652.7771L13989.2703,-3652.7478L13989.2694,-3652.6838L13989.271,-3652.6447L13989.2724,-3652.6058L13989.2751,-3652.5844L13989.28,-3652.5636L13989.2828,-3652.5512L13989.3017,-3652.4881L13989.3079,-3652.4565L13989.3121,-3652.4244L13989.3205,-3652.283L13989.3289,-3652.2182L13989.3317,-3652.1934L13989.3338,-3652.1743L13989.3365,-3652.1368L13989.3457,-3652.0999L13989.3582,-3652.0611L13989.3722,-3652.0289L13989.3764,-3652.0143L13989.3801,-3651.9851L13989.3813,-3651.976L13989.3826,-3651.9112L13989.385,-3651.9035L13989.3853,-3651.8555"/>
<path content="1,関東自動車（株）,宇都宮駅・一条町・江曽島駅（西川田東）,75.5,63.5,55.5," xlink:title="1" d="M13987.793,-3653.4163L13987.7957,-3653.4165L13987.8132,-3653.4189L13987.8439,-3653.4219L13987.915,-3653.4289L13987.9192,-3653.4301L13987.9241,-3653.4312L13988.0106,-3653.4396L13988.0336,-3653.443L13988.0455,-3653.4441L13988.0947,-3653.4517L13988.0957,-3653.4746L13988.0923,-3653.5467L13988.0888,-3653.6278L13988.0884,-3653.6376L13988.0874,-3653.6486L13988.0886,-3653.6921L13988.0853,-3653.7234L13988.0755,-3653.8362L13988.0741,-3653.8712L13988.0727,-3653.8796L13988.0699,-3653.923L13988.0641,-3653.9445L13988.0606,-3654.0527"/>
<path content="1,関東自動車（株）,宇都宮駅・石橋駅,24.5,20.0,18.0," xlink:title="1" d="M13988.0606,-3654.0527L13988.0641,-3653.9445L13988.0699,-3653.923L13988.0727,-3653.8796L13988.0741,-3653.8712L13988.0755,-3653.8362L13988.0853,-3653.7234L13988.0886,-3653.6921L13988.0874,-3653.6486L13988.0884,-3653.6376L13988.0888,-3653.6278L13988.0923,-3653.5467L13988.0957,-3653.4746L13988.0947,-3653.4517L13988.0986,-3653.4126L13988.0999,-3653.4024L13988.102,-3653.3433L13988.1034,-3653.3185L13988.1048,-3653.2814L13988.1062,-3653.2498L13988.1083,-3653.2098L13988.1111,-3653.1675L13988.1111,-3653.154L13988.1125,-3653.1438L13988.1139,-3653.092L13988.1167,-3653.0464L13988.1188,-3652.9918L13988.1188,-3652.9326L13988.1153,-3652.9027L13988.1146,-3652.8869L13988.1132,-3652.8684L13988.1056,-3652.8298L13988.1035,-3652.803L13988.0916,-3652.7602L13988.0553,-3652.6312L13988.0135,-3652.4965L13988.0079,-3652.4791L13988.003,-3652.461L13988.0016,-3652.4599L13987.9904,-3652.4238L13987.98,-3652.39L13987.9597,-3652.3247L13987.9442,-3652.2886L13987.9458,-3652.2768L13987.9437,-3652.2734L13987.9326,-3652.2393L13987.9271,-3652.2222L13987.9189,-3652.2092L13987.9095,-3652.194L13987.8936,-3652.1685L13987.8481,-3652.0954L13987.8299,-3652.0621L13987.8244,-3652.0447L13987.8125,-3652.0007L13987.8097,-3651.9883L13987.793,-3651.9403"/>
<path content="1,関東自動車（株）,宇都宮駅・雀宮,11.5,12.0,8.0," xlink:title="1" d="M13988.0606,-3654.0527L13988.0641,-3653.9445L13988.0699,-3653.923L13988.0727,-3653.8796L13988.0741,-3653.8712L13988.0755,-3653.8362L13988.0853,-3653.7234L13988.0886,-3653.6921L13988.0874,-3653.6486L13988.0884,-3653.6376L13988.0888,-3653.6278L13988.0923,-3653.5467L13988.0957,-3653.4746L13988.0947,-3653.4517L13988.0986,-3653.4126L13988.0999,-3653.4024L13988.102,-3653.3433L13988.1034,-3653.3185L13988.1048,-3653.2814L13988.1062,-3653.2498L13988.1083,-3653.2098L13988.1111,-3653.1675L13988.1111,-3653.154L13988.1125,-3653.1438L13988.1139,-3653.092L13988.1167,-3653.0464L13988.1188,-3652.9918L13988.1188,-3652.9326L13988.1153,-3652.9027L13988.1146,-3652.8869L13988.1132,-3652.8684L13988.1056,-3652.8298L13988.1035,-3652.803L13988.0916,-3652.7602L13988.0553,-3652.6312L13988.0135,-3652.4965L13988.0079,-3652.4791L13988.003,-3652.461L13988.0016,-3652.4599L13987.9904,-3652.4238L13987.98,-3652.39L13987.9597,-3652.3247L13987.9442,-3652.2886L13987.9458,-3652.2768L13987.9437,-3652.2734L13987.9326,-3652.2393L13987.9271,-3652.2222L13987.9189,-3652.2092L13987.9095,-3652.194L13987.8936,-3652.1685L13987.8481,-3652.0954L13987.8299,-3652.0621L13987.8244,-3652.0447L13987.8125,-3652.0007L13987.8097,-3651.9883L13987.793,-3651.9403"/>
<path content="1,関東自動車（株）,駒生営業所・インターパーク・上三川車庫,2.5,2.5,2.5," xlink:title="1" d="M13989.8814,-3654.0527L13989.8787,-3654.0431L13989.8696,-3654.0143L13989.8676,-3654.0031L13989.8676,-3653.9907L13989.8683,-3653.985L13989.8843,-3653.9309L13989.8913,-3653.8994L13989.8899,-3653.8583L13989.8826,-3653.8388L13989.878,-3653.8126L13989.8766,-3653.811L13989.8599,-3653.7625L13989.8446,-3653.7315L13989.8383,-3653.7214L13989.8348,-3653.7135L13989.8285,-3653.7017L13989.8234,-3653.6899L13989.8138,-3653.66L13989.8111,-3653.6509L13989.8096,-3653.6374L13989.8076,-3653.5763L13989.8045,-3653.5696L13989.7579,-3653.5738L13989.7095,-3653.573L13989.6959,-3653.5723L13989.6595,-3653.5706L13989.555,-3653.5682L13989.5424,-3653.567L13989.533,-3653.5672L13989.4372,-3653.5643L13989.4132,-3653.5636L13989.3924,-3653.5629L13989.3051,-3653.5598L13989.2845,-3653.5591L13989.2334,-3653.5573L13989.2194,-3653.5568L13989.1081,-3653.5588L13989.0691,-3653.5515L13989.0541,-3653.5515L13989.0444,-3653.5515L13988.9828,-3653.5471L13988.9604,-3653.5478L13988.9639,-3653.5377L13988.9834,-3653.4842L13989.0009,-3653.438L13989.0044,-3653.4312L13989.0079,-3653.4194L13989.0141,-3653.3856L13989.0155,-3653.3568L13989.0127,-3653.3061L13989.0113,-3653.2864L13989.0104,-3653.2634L13989.0106,-3653.2498L13989.012,-3653.2413L13989.0127,-3653.2312L13989.0197,-3653.2013L13989.0309,-3653.167L13989.0399,-3653.1439L13989.0637,-3653.0875L13989.092,-3653.0302L13989.1286,-3652.9562L13989.1774,-3652.8932L13989.1949,-3652.8695L13989.2103,-3652.8503L13989.2137,-3652.8447L13989.2186,-3652.8396L13989.2535,-3652.7912L13989.2633,-3652.7771L13989.2703,-3652.7478L13989.2694,-3652.6838L13989.271,-3652.6447L13989.2724,-3652.6058L13989.2751,-3652.5844L13989.28,-3652.5636L13989.2828,-3652.5512L13989.3017,-3652.4881L13989.3079,-3652.4565L13989.3121,-3652.4244L13989.3205,-3652.283L13989.3289,-3652.2182L13989.3317,-3652.1934L13989.3338,-3652.1743L13989.3365,-3652.1368L13989.3457,-3652.0999L13989.3582,-3652.0611L13989.3722,-3652.0289L13989.3764,-3652.0143L13989.3801,-3651.9851L13989.3813,-3651.976L13989.3826,-3651.9112L13989.385,-3651.9035L13989.3853,-3651.8555"/>
<path content="1,関東自動車（株）,駒生営業所・健康の森・上三川車庫,6.5,5.5,5.5," xlink:title="1" d="M13989.8814,-3654.0527L13989.8787,-3654.0431L13989.8696,-3654.0143L13989.8676,-3654.0031L13989.8676,-3653.9907L13989.8683,-3653.985L13989.8843,-3653.9309L13989.8913,-3653.8994L13989.8899,-3653.8583L13989.8826,-3653.8388L13989.878,-3653.8126L13989.8766,-3653.811L13989.8599,-3653.7625L13989.8446,-3653.7315L13989.8383,-3653.7214L13989.8348,-3653.7135L13989.8285,-3653.7017L13989.8234,-3653.6899L13989.8138,-3653.66L13989.8111,-3653.6509L13989.8096,-3653.6374L13989.8076,-3653.5763L13989.8045,-3653.5696L13989.7579,-3653.5738L13989.7095,-3653.573L13989.6959,-3653.5723L13989.6595,-3653.5706L13989.555,-3653.5682L13989.5424,-3653.567L13989.533,-3653.5672L13989.4372,-3653.5643L13989.4132,-3653.5636L13989.3924,-3653.5629L13989.3051,-3653.5598L13989.2845,-3653.5591L13989.2334,-3653.5573L13989.2194,-3653.5568L13989.1081,-3653.5588L13989.0691,-3653.5515L13989.0541,-3653.5515L13989.0444,-3653.5515L13988.9828,-3653.5471L13988.9604,-3653.5478L13988.9639,-3653.5377L13988.9834,-3653.4842L13989.0009,-3653.438L13989.0044,-3653.4312L13989.0079,-3653.4194L13989.0141,-3653.3856L13989.0155,-3653.3568L13989.0127,-3653.3061L13989.0113,-3653.2864L13989.0104,-3653.2634L13989.0106,-3653.2498L13989.012,-3653.2413L13989.0127,-3653.2312L13989.0197,-3653.2013L13989.0309,-3653.167L13989.0399,-3653.1439L13989.0637,-3653.0875L13989.092,-3653.0302L13989.1286,-3652.9562L13989.1774,-3652.8932L13989.1949,-3652.8695L13989.2103,-3652.8503L13989.2137,-3652.8447L13989.2186,-3652.8396L13989.2535,-3652.7912L13989.2633,-3652.7771L13989.2703,-3652.7478L13989.2694,-3652.6838L13989.271,-3652.6447L13989.2724,-3652.6058L13989.2751,-3652.5844L13989.28,-3652.5636L13989.2828,-3652.5512L13989.3017,-3652.4881L13989.3079,-3652.4565L13989.3121,-3652.4244L13989.3205,-3652.283L13989.3289,-3652.2182L13989.3317,-3652.1934L13989.3338,-3652.1743L13989.3365,-3652.1368L13989.3457,-3652.0999L13989.3582,-3652.0611L13989.3722,-3652.0289L13989.3764,-3652.0143L13989.3801,-3651.9851L13989.3813,-3651.976L13989.3826,-3651.9112L13989.385,-3651.9035L13989.3853,-3651.8555"/>
</g>
</svg>
