<?xml version="1.0" encoding="UTF-8"?>
<svg  xmlns="http://www.w3.org/2000/svg" xmlns:xlink="http://www.w3.org/1999/xlink" xmlns:go="http://purl.org/svgmap/profile" property="N07_001,N07_002,N07_003,N07_004,N07_005,N07_006,N07_007" viewBox="13974.609375 -3902.34375 8.7890625 8.7890625" go:dataArea="13974.609375 -3902.34375 8.7890625 8.7890625" >
<metadata>
 <rdf:RDF xmlns:rdf="http://www.w3.org/1999/02/22-rdf-syntax-ns#" xmlns:crs="http://opengis.org/xmldtds/transformations.dtd" xmlns:svg="http://www.w3.org/svg" >
  <rdf:Description>
   <crs:CoordinateReferenceSystem rdf:resource="http://purl.org/crs/84" svg:transform="matrix(100.0,0.0,0.0,-100.0,0.0,0.0)" />
  </rdf:Description>
 </rdf:RDF>
</metadata>
<globalCoordinateSystem srsName="http://purl.org/crs/84" transform="matrix(100.0,0.0,0.0,-100.0,0.0,0.0)" />
<defs>
 <g id="p0" >
  <circle cx="0.0" cy="0.0" r="3" stroke="green" stroke-width="0.75" vector-effect="non-scaling-stroke" />
 </g>
</defs>
<g fill="none" fill-rule="evenodd" stroke="#FF00FF" stroke-width="0.75" opacity="0.5" vector-effect="non-scaling-stroke" stroke-linejoin="bevel" >
<path content="1,庄内交通（株）,十里塚-古湊,10.0,5.5,5.5," xlink:title="1" d="M13982.5961,-3893.5547L13982.5334,-3893.7048L13982.525,-3893.7496L13982.5132,-3893.777L13982.4676,-3893.8559L13982.4468,-3893.9063L13982.3836,-3894.0595L13982.385,-3894.0616L13982.4349,-3894.1167L13982.508,-3894.2015L13982.5806,-3894.2853L13982.5881,-3894.2955L13982.6043,-3894.3315L13982.6157,-3894.3537L13982.6299,-3894.3948L13982.6368,-3894.4202L13982.6525,-3894.4783L13982.6597,-3894.5049L13982.6781,-3894.5503L13982.7054,-3894.5961L13982.7554,-3894.6651L13982.7679,-3894.6746"/>
<path content="3,酒田市,南遊佐砂越駅線（月・水・金運行）,2.4,0.0,2.0," xlink:title="3" d="M13983.3984,-3894.9729L13983.3145,-3894.9799L13983.279,-3894.9808L13983.2651,-3894.9805L13983.0117,-3894.9747L13983.0096,-3894.957L13983.0042,-3894.9261L13982.9889,-3894.885L13982.9582,-3894.8359L13982.9396,-3894.8061L13982.8668,-3894.7015L13982.8577,-3894.6896L13982.8481,-3894.6883L13982.7982,-3894.7151L13982.7679,-3894.6746L13982.7554,-3894.6651L13982.7054,-3894.5961L13982.6781,-3894.5503L13982.6597,-3894.5049L13982.6525,-3894.4783L13982.6368,-3894.4202L13982.6299,-3894.3948L13982.6157,-3894.3537L13982.6043,-3894.3315L13982.5881,-3894.2955L13982.5806,-3894.2853L13982.508,-3894.2015L13982.4349,-3894.1167L13982.385,-3894.0616L13982.3836,-3894.0595L13982.4468,-3893.9063L13982.4676,-3893.8559L13982.5132,-3893.777L13982.525,-3893.7496L13982.5334,-3893.7048L13982.5961,-3893.5547"/>
</g>
</svg>
