<?xml version="1.0" encoding="UTF-8"?>
<svg  xmlns="http://www.w3.org/2000/svg" xmlns:xlink="http://www.w3.org/1999/xlink" xmlns:go="http://purl.org/svgmap/profile" property="N07_001,N07_002,N07_003,N07_004,N07_005,N07_006,N07_007" viewBox="13570.3125 -3375.0 17.578125 17.578125" go:dataArea="13570.3125 -3375.0 17.578125 17.578125" >
<metadata>
 <rdf:RDF xmlns:rdf="http://www.w3.org/1999/02/22-rdf-syntax-ns#" xmlns:crs="http://opengis.org/xmldtds/transformations.dtd" xmlns:svg="http://www.w3.org/svg" >
  <rdf:Description>
   <crs:CoordinateReferenceSystem rdf:resource="http://purl.org/crs/84" svg:transform="matrix(100.0,0.0,0.0,-100.0,0.0,0.0)" />
  </rdf:Description>
 </rdf:RDF>
</metadata>
<globalCoordinateSystem srsName="http://purl.org/crs/84" transform="matrix(100.0,0.0,0.0,-100.0,0.0,0.0)" />
<defs>
 <g id="p0" >
  <circle cx="0.0" cy="0.0" r="3" stroke="green" stroke-width="0.75" vector-effect="non-scaling-stroke" />
 </g>
</defs>
<g fill="none" fill-rule="evenodd" stroke="#FF00FF" stroke-width="0.75" opacity="0.5" vector-effect="non-scaling-stroke" stroke-linejoin="bevel" >
<path content="3,古座川町,ふるさとバス小川線,2.0,2.0,2.0," xlink:title="3" d="M13578.4199,-3363.1209L13578.426,-3363.1113L13578.4462,-3363.0606L13578.4455,-3363.0419L13578.4374,-3363.016L13578.4206,-3362.9754L13578.4125,-3362.9613L13578.4011,-3362.9495L13578.358,-3362.9169L13578.3445,-3362.9093L13578.328,-3362.8999L13578.3007,-3362.8914L13578.2805,-3362.8881L13578.2549,-3362.8881L13578.2354,-3362.8937L13578.2037,-3362.9072L13578.1363,-3362.9399L13578.1043,-3362.954L13578.0481,-3362.9788L13578.0164,-3362.9906L13577.9861,-3362.9991L13577.9706,-3363.0053L13577.9423,-3363.0194L13577.9241,-3363.0245L13577.9093,-3363.0267L13577.8905,-3363.0267L13577.8763,-3363.025L13577.8581,-3363.02L13577.844,-3363.0121L13577.8351,-3363.0055L13577.8265,-3362.9991L13577.8117,-3362.9833L13577.7915,-3362.9517L13577.7807,-3362.923L13577.7746,-3362.8993L13577.7504,-3362.8441L13577.7436,-3362.8227L13577.7322,-3362.7714L13577.7281,-3362.7494L13577.7288,-3362.7218L13577.7322,-3362.7088L13577.7443,-3362.6913L13577.7632,-3362.6749L13577.7787,-3362.6688L13577.8002,-3362.6637L13577.8575,-3362.6642L13577.939,-3362.6654L13577.9619,-3362.6665L13577.9834,-3362.6648L13577.9969,-3362.6592L13578.0164,-3362.6473L13578.0232,-3362.6411L13578.0259,-3362.64L13578.0353,-3362.631L13578.0441,-3362.6163L13578.0501,-3362.6L13578.0501,-3362.5791L13578.0474,-3362.5673L13578.0427,-3362.5526L13578.0225,-3362.5103L13578.0104,-3362.4901L13578.0077,-3362.4872L13577.9976,-3362.4709L13577.9917,-3362.464L13577.9672,-3362.4297L13577.937,-3362.3981L13577.9201,-3362.3852L13577.8918,-3362.3666L13577.8736,-3362.3547L13577.8171,-3362.3187L13577.8056,-3362.3063L13577.7996,-3362.2922L13577.7982,-3362.2832L13577.7982,-3362.2589L13577.8022,-3362.2414L13577.811,-3362.2217L13577.8211,-3362.2048L13577.8447,-3362.1912L13577.8642,-3362.1851L13577.8952,-3362.1845L13577.9053,-3362.1862L13577.9181,-3362.1907L13577.9289,-3362.1986L13577.9424,-3362.2132L13577.9814,-3362.2493L13577.9888,-3362.2533L13578.0057,-3362.2572L13578.0346,-3362.2578L13578.1107,-3362.2567L13578.1269,-3362.2544L13578.1485,-3362.2448L13578.1687,-3362.2313L13578.1721,-3362.2302L13578.1916,-3362.2166L13578.1936,-3362.2138L13578.2424,-3362.1819L13578.2805,-3362.1569L13578.3007,-3362.1428L13578.3149,-3362.1315L13578.3256,-3362.1191L13578.331,-3362.109L13578.3357,-3362.0932L13578.3351,-3362.0774L13578.3297,-3362.0667L13578.2913,-3362.0295L13578.2704,-3362.0047L13578.2549,-3361.9821L13578.234,-3361.946L13578.2246,-3361.9257L13578.2024,-3361.8699L13578.1977,-3361.853L13578.1977,-3361.8271L13578.2024,-3361.8124L13578.2118,-3361.7955L13578.2206,-3361.7876L13578.2286,-3361.7826L13578.2495,-3361.7752L13578.2913,-3361.7758L13578.3378,-3361.7673L13578.4462,-3361.751L13578.4691,-3361.7465L13578.4853,-3361.7397L13578.5587,-3361.6935L13578.5796,-3361.6782L13578.5816,-3361.6777L13578.5971,-3361.6664L13578.6247,-3361.6507L13578.6522,-3361.6381L13578.6786,-3361.6242L13578.6941,-3361.6179L13578.7047,-3361.6159L13578.7204,-3361.6089L13578.7264,-3361.6033L13578.7284,-3361.5977L13578.7284,-3361.5847L13578.6685,-3361.5582L13578.6557,-3361.5503L13578.6335,-3361.5272L13578.6106,-3361.4888L13578.6079,-3361.4781L13578.6072,-3361.4482L13578.6065,-3361.4404L13578.5978,-3361.4257L13578.5951,-3361.4223L13578.5607,-3361.4038L13578.5506,-3361.3936L13578.5392,-3361.3773L13578.5284,-3361.3541L13578.523,-3361.3366L13578.5223,-3361.3079L13578.5237,-3361.2831L13578.5338,-3361.2667L13578.5493,-3361.2521L13578.5533,-3361.2486L13578.5681,-3361.2357L13578.5769,-3361.2312L13578.591,-3361.2273L13578.6159,-3361.225L13578.6422,-3361.2239L13578.6665,-3361.2188L13578.6692,-3361.2177L13578.6786,-3361.2138L13578.6867,-3361.2075L13578.6921,-3361.1991L13578.6954,-3361.1895L13578.6948,-3361.1743L13578.6853,-3361.1624L13578.6786,-3361.1624L13578.6624,-3361.1669L13578.653,-3361.172L13578.6422,-3361.1805L13578.6368,-3361.1822L13578.5742,-3361.1833L13578.5681,-3361.1839L13578.5096,-3361.1991L13578.4833,-3361.2053L13578.4624,-3361.2087L13578.4226,-3361.2205L13578.3856,-3361.2357L13578.3627,-3361.2481L13578.3546,-3361.2543L13578.3398,-3361.2724L13578.333,-3361.2836L13578.3276,-3361.3017L13578.3243,-3361.3316L13578.3202,-3361.3507L13578.3149,-3361.3609L13578.3061,-3361.3716L13578.2973,-3361.3773L13578.261,-3361.3941L13578.2462,-3361.3998L13578.2253,-3361.4043L13578.1916,-3361.4037L13578.1646,-3361.3964L13578.1498,-3361.3902L13578.1269,-3361.3778L13578.1148,-3361.3665L13578.1033,-3361.3519L13578.0899,-3361.3276L13578.0757,-3361.2774L13578.0744,-3361.2763L13578.069,-3361.26L13578.0637,-3361.2343L13578.0636,-3361.234L13578.0629,-3361.2222L13578.0555,-3361.1985L13578.0488,-3361.1816L13578.0447,-3361.1602L13578.0441,-3361.11L13578.0407,-3361.0999L13578.0346,-3361.0942L13578.0198,-3361.0909L13578.005,-3361.0919L13577.9942,-3361.097L13577.9626,-3361.1173L13577.9424,-3361.1241L13577.9329,-3361.1258L13577.8986,-3361.1348L13577.8278,-3361.1608L13577.7935,-3361.1731L13577.7632,-3361.1799L13577.7147,-3361.1861L13577.7046,-3361.1867L13577.6898,-3361.185L13577.679,-3361.1805L13577.6702,-3361.1726L13577.6635,-3361.1636L13577.6594,-3361.1534L13577.6554,-3361.1314L13577.652,-3361.1139L13577.652,-3361.0999L13577.6675,-3361.0694L13577.6669,-3361.0626L13577.6581,-3361.0508L13577.6473,-3361.0441L13577.613,-3361.0334L13577.5975,-3361.0288L13577.5685,-3361.0192L13577.5382,-3361.0102L13577.5113,-3360.9978L13577.4998,-3360.9877L13577.4917,-3360.9792L13577.4823,-3360.9646L13577.4809,-3360.9228L13577.4802,-3360.9133L13577.4776,-3360.9003L13577.4688,-3360.8839L13577.4574,-3360.8732L13577.4331,-3360.8603L13577.4181,-3360.8542L13577.3954,-3360.845L13577.3671,-3360.8371L13577.3388,-3360.8326L13577.3112,-3360.8281L13577.293,-3360.8247L13577.2351,-3360.8214L13577.2081,-3360.8174L13577.1906,-3360.8135L13577.1589,-3360.8027L13577.1313,-3360.7864L13577.1179,-3360.7791L13577.099,-3360.7639L13577.0734,-3360.7379L13577.0559,-3360.7154L13577.0498,-3360.6985L13577.0451,-3360.6663L13577.0444,-3360.6477L13577.0458,-3360.6387L13577.0512,-3360.6246L13577.0579,-3360.615L13577.0747,-3360.6004L13577.0909,-3360.5914L13577.1078,-3360.5852L13577.1306,-3360.5784L13577.136,-3360.5778L13577.1569,-3360.5739L13577.1771,-3360.5739L13577.1967,-3360.5795L13577.2048,-3360.5835L13577.2169,-3360.5931L13577.2445,-3360.6291L13577.2586,-3360.6472L13577.2721,-3360.6601L13577.2809,-3360.6635L13577.3085,-3360.6635L13577.3193,-3360.6607L13577.322,-3360.659L13577.3388,-3360.6551L13577.4021,-3360.6477L13577.4371,-3360.6404L13577.4607,-3360.6342L13577.4634,-3360.6331L13577.5368,-3360.6111L13577.5408,-3360.6083L13577.5456,-3360.6049L13577.5544,-3360.5936L13577.5624,-3360.5773L13577.5678,-3360.5553L13577.5766,-3360.5344L13577.5799,-3360.5248L13577.5799,-3360.5006L13577.5766,-3360.4842L13577.5618,-3360.4454L13577.5564,-3360.4341L13577.5402,-3360.411L13577.5166,-3360.3873L13577.4931,-3360.3693L13577.4796,-3360.3619L13577.4681,-3360.3568L13577.4513,-3360.3512L13577.3678,-3360.3292L13577.3429,-3360.3253L13577.2647,-3360.3258L13577.2472,-3360.3281L13577.2155,-3360.3461L13577.1906,-3360.3602L13577.1818,-3360.3647L13577.1643,-3360.3709L13577.1569,-3360.3732L13577.1495,-3360.3754L13577.1333,-3360.3777L13577.0828,-3360.3777L13577.0613,-3360.3732L13577.0505,-3360.3676L13577.037,-3360.354L13577.031,-3360.3439L13577.0289,-3360.3157L13577.0256,-3360.3044L13577.0229,-3360.2768L13577.0431,-3360.1911L13577.0438,-3360.1702L13577.0424,-3360.1623L13577.0364,-3360.1545L13577.002,-3360.1263L13576.9542,-3360.0992L13576.9407,-3360.0958L13576.8922,-3360.0958L13576.8794,-3360.0975L13576.8558,-3360.1049L13576.8458,-3360.1133L13576.8397,-3360.1206L13576.8397,-3360.1307L13576.8477,-3360.1482L13576.8545,-3360.1567L13576.8626,-3360.1612L13576.8747,-3360.1657L13576.8868,-3360.1714L13576.8989,-3360.1815L13576.9057,-3360.1888L13576.9158,-3360.2024L13576.94,-3360.2272L13576.9427,-3360.2362L13576.9421,-3360.2458L13576.934,-3360.2689L13576.9293,-3360.2768L13576.9057,-3360.3016L13576.8908,-3360.3123L13576.8659,-3360.3281L13576.8511,-3360.3354L13576.8121,-3360.3495L13576.7952,-3360.358L13576.7858,-3360.3653L13576.7811,-3360.3805L13576.7703,-3360.4048L13576.7661,-3360.41L13576.7619,-3360.4106L13576.7508,-3360.4083L13576.714,-3360.3936L13576.6578,-3360.3681L13576.6488,-3360.3642L13576.6315,-3360.3546L13576.616,-3360.3439L13576.5924,-3360.3241L13576.5648,-3360.2993L13576.5464,-3360.2796L13576.517,-3360.248L13576.5062,-3360.2339L13576.5022,-3360.2255L13576.4921,-3360.1962L13576.4874,-3360.1719L13576.4874,-3360.1572L13576.4874,-3360.1206L13576.49,-3360.1112L13576.4968,-3360.0868L13576.5116,-3360.0547L13576.5163,-3360.0423L13576.5157,-3360.018L13576.5142,-3360.0068L13576.5069,-3359.9526L13576.5022,-3359.903L13576.502,-3359.8899L13576.5034,-3359.8707L13576.5056,-3359.8551L13576.5197,-3359.7936L13576.5291,-3359.7469L13576.5366,-3359.7266L13576.5581,-3359.6939L13576.5709,-3359.6798L13576.5904,-3359.6629L13576.6012,-3359.6567L13576.6187,-3359.6499L13576.645,-3359.6426L13576.6686,-3359.6364L13576.6888,-3359.6307L13576.6894,-3359.6296L13576.7184,-3359.6206L13576.7474,-3359.6133L13576.8053,-3359.6037L13576.8942,-3359.5896L13576.9259,-3359.5873L13576.9562,-3359.5811L13576.9933,-3359.5716L13577.0404,-3359.5557L13577.0523,-3359.5519L13577.0909,-3359.5377L13577.0929,-3359.536L13577.1008,-3359.5327L13577.101,-3359.5326L13577.1125,-3359.5264L13577.1199,-3359.518L13577.1199,-3359.5101L13577.1172,-3359.5056L13577.1084,-3359.4977L13577.0882,-3359.4892L13577.033,-3359.4768L13576.971,-3359.4582L13576.9178,-3359.4374L13576.8929,-3359.4244L13576.8781,-3359.4137L13576.8585,-3359.3934L13576.8309,-3359.3657L13576.7818,-3359.3235L13576.7716,-3359.3116L13576.7467,-3359.2575L13576.7352,-3359.2378L13576.7171,-3359.2164L13576.6841,-3359.1871L13576.6618,-3359.1656L13576.6524,-3359.1544L13576.6416,-3359.1408L13576.6396,-3359.1346L13576.6335,-3359.116L13576.6248,-3359.1014L13576.6181,-3359.094L13576.6086,-3359.0805L13576.5985,-3359.063L13576.5884,-3359.0388L13576.5648,-3358.9818L13576.5567,-3358.9554L13576.548,-3358.9283L13576.5372,-3358.9119L13576.5244,-3358.8871L13576.5033,-3358.8514L13576.4941,-3358.8358L13576.4631,-3358.7969L13576.455,-3358.7908L13576.4443,-3358.7857L13576.4126,-3358.7862L13576.3655,-3358.7904L13576.3055,-3358.7896L13576.257,-3358.7828L13576.2146,-3358.7749L13576.1714,-3358.7688L13576.1364,-3358.7648L13576.1095,-3358.7593L13576.1091,-3358.7592L13576.065,-3358.749L13576.0414,-3358.7394L13576.0192,-3358.7276L13575.9997,-3358.7152L13575.9815,-3358.7005L13575.9653,-3358.6904L13575.9586,-3358.6819L13575.9562,-3358.6718L13575.9554,-3358.619L13575.9534,-3358.5976L13575.9507,-3358.5801L13575.95,-3358.5643L13575.952,-3358.5508L13575.9561,-3358.5395L13575.9783,-3358.4843L13575.9984,-3358.4544L13576.0213,-3358.429L13576.0402,-3358.3939L13576.0065,-3358.3608L13575.9897,-3358.3518L13575.9567,-3358.3287L13575.9278,-3358.3095L13575.8598,-3358.2492L13575.8117,-3358.1811L13575.753,-3358.1199L13575.6822,-3358.0575L13575.6478,-3358.0473L13575.6303,-3358.0406L13575.6276,-3358.0394L13575.6182,-3358.0315L13575.6155,-3358.0281L13575.6117,-3358.0172L13575.6088,-3358.0124L13575.6047,-3357.9932L13575.6021,-3357.9724L13575.6047,-3357.9194L13575.6115,-3357.8624L13575.6189,-3357.8218L13575.6278,-3357.7854L13575.6431,-3357.7395L13575.646,-3357.7329L13575.6525,-3357.7181L13575.6795,-3357.6713L13575.6983,-3357.6448L13575.7246,-3357.6093L13575.7542,-3357.576L13575.8087,-3357.5292L13575.8174,-3357.5162L13575.8289,-3357.4886L13575.8471,-3357.4362L13575.8514,-3357.4219"/>
<path content="3,古座川町,ふるさとバス本川線,2.0,2.0,2.0," xlink:title="3" d="M13571.4017,-3367.0959L13571.405,-3367.0819L13571.4124,-3367.0667L13571.4225,-3367.0537L13571.4515,-3367.0312L13571.467,-3367.0176L13571.4773,-3367.0041L13571.4837,-3366.9908L13571.4776,-3366.9677L13571.4668,-3366.9389L13571.4527,-3366.9158L13571.4426,-3366.9046L13571.4284,-3366.8927L13571.3826,-3366.8668L13571.3705,-3366.8589L13571.3651,-3366.8527L13571.3611,-3366.8431L13571.3604,-3366.8296L13571.3638,-3366.8189L13571.382,-3366.7788L13571.4062,-3366.7303L13571.4102,-3366.7157L13571.4116,-3366.7033L13571.4076,-3366.6768L13571.3961,-3366.6407L13571.3961,-3366.6317L13571.4156,-3366.6165L13571.4325,-3366.6069L13571.4699,-3366.576L13571.4864,-3366.5623L13571.5133,-3366.5471L13571.5281,-3366.5415L13571.5652,-3366.5307L13571.5759,-3366.5262L13571.5928,-3366.5167L13571.5968,-3366.515L13571.6002,-3366.5122L13571.6069,-3366.5093L13571.6319,-3366.4958L13571.6467,-3366.4896L13571.6912,-3366.4795L13571.6999,-3366.4784L13571.7053,-3366.4767L13571.7242,-3366.4721L13571.7269,-3366.471L13571.7498,-3366.4603L13571.7605,-3366.453L13571.7781,-3366.4366L13571.7834,-3366.4293L13571.7875,-3366.4174L13571.7895,-3366.3994L13571.7909,-3366.365L13571.7922,-3366.3549L13571.7929,-3366.343L13571.772,-3366.2681L13571.7619,-3366.2478L13571.7451,-3366.2213L13571.737,-3366.2117L13571.7154,-3366.1914L13571.6776,-3366.1676L13571.6521,-3366.148L13571.6292,-3366.1282L13571.611,-3366.1046L13571.6002,-3366.0972L13571.549,-3366.0673L13571.5376,-3366.0583L13571.5059,-3366.0133L13571.4884,-3365.9907L13571.4729,-3365.9732L13571.4298,-3365.9338L13571.4183,-3365.9247L13571.3968,-3365.9129L13571.3692,-3365.8999L13571.3231,-3365.8823L13571.2836,-3365.8757L13571.2688,-3365.8745L13571.254,-3365.8717L13571.2378,-3365.8689L13571.1987,-3365.8661L13571.1761,-3365.8647L13571.1604,-3365.8621L13571.1577,-3365.8604L13571.155,-3365.8576L13571.1482,-3365.8526L13571.1462,-3365.843L13571.1469,-3365.8272L13571.1516,-3365.8012L13571.1536,-3365.7646L13571.1489,-3365.7562L13571.1327,-3365.7364L13571.1273,-3365.7257L13571.1233,-3365.7032L13571.1186,-3365.6885L13571.0916,-3365.631L13571.0647,-3365.6011L13571.0579,-3365.5926L13571.0546,-3365.5847L13571.0479,-3365.5583L13571.0458,-3365.5363L13571.0472,-3365.5194L13571.0573,-3365.5053L13571.0694,-3365.4867L13571.097,-3365.4602L13571.1125,-3365.4461L13571.1604,-3365.401L13571.2041,-3365.3525L13571.2123,-3365.3404L13571.1994,-3365.2996L13571.2017,-3365.2929L13571.2318,-3365.2572L13571.2446,-3365.2386L13571.2464,-3365.2355L13571.2499,-3365.2273L13571.2661,-3365.2014L13571.2708,-3365.1913L13571.3132,-3365.1247L13571.3247,-3365.1056L13571.3348,-3365.0887L13571.3578,-3365.0401L13571.3624,-3365.0029L13571.3618,-3364.977L13571.3584,-3364.9663L13571.3496,-3364.9528L13571.3052,-3364.8998L13571.3005,-3364.8874L13571.2964,-3364.871L13571.2951,-3364.8209L13571.2971,-3364.7927L13571.2998,-3364.7808L13571.3059,-3364.7662L13571.3153,-3364.7481L13571.3308,-3364.6867L13571.3335,-3364.6731L13571.3335,-3364.6551L13571.322,-3364.6168L13571.3173,-3364.6066L13571.3045,-3364.5874L13571.2843,-3364.5655L13571.285,-3364.5649L13571.2836,-3364.5615L13571.2843,-3364.5531L13571.2863,-3364.544L13571.285,-3364.5361L13571.2776,-3364.5277L13571.2594,-3364.5147L13571.2298,-3364.5012L13571.2169,-3364.4939L13571.2129,-3364.4916L13571.2014,-3364.4814L13571.1921,-3364.4727L13571.1842,-3364.4622L13571.1815,-3364.4533L13571.1815,-3364.4423L13571.1861,-3364.4052L13571.1927,-3364.3783L13571.1947,-3364.3614L13571.1934,-3364.3484L13571.1859,-3364.3242L13571.1846,-3364.318L13571.1725,-3364.2869L13571.1536,-3364.2373L13571.1481,-3364.2271L13571.1347,-3364.217L13571.1233,-3364.2142L13571.1112,-3364.2154L13571.0964,-3364.2182L13571.0802,-3364.2187L13571.0674,-3364.2159L13571.064,-3364.212L13571.0351,-3364.1612L13571.0229,-3364.1404L13570.992,-3364.0868L13570.9738,-3364.0479L13570.9529,-3364.0203L13570.9455,-3364.0084L13570.9293,-3363.9803L13570.9199,-3363.9667L13570.9111,-3363.9577L13570.8923,-3363.9363L13570.8849,-3363.9216L13570.8815,-3363.9036L13570.8793,-3363.8913L13570.8815,-3363.8664L13570.8815,-3363.8652L13570.8842,-3363.8545L13570.8916,-3363.819L13570.8983,-3363.797L13570.8997,-3363.7756L13570.8891,-3363.7349L13570.8862,-3363.7079L13570.8855,-3363.7001L13570.8855,-3363.6905L13570.8781,-3363.6606L13570.8727,-3363.6476L13570.8626,-3363.6279L13570.835,-3363.5849L13570.8196,-3363.559L13570.8178,-3363.5553L13570.8101,-3363.5377L13570.8108,-3363.5264L13570.8128,-3363.5168L13570.8202,-3363.496L13570.8444,-3363.4503L13570.8593,-3363.422L13570.8512,-3363.3302L13570.885,-3363.1955L13570.9219,-3363.1442L13570.9401,-3363.1306L13570.9859,-3363.1109L13570.9906,-3363.112L13571.0014,-3363.1126L13571.0149,-3363.1165L13571.0499,-3363.1295L13571.0674,-3363.1368L13571.1004,-3363.1549L13571.1125,-3363.1633L13571.1186,-3363.1752L13571.1159,-3363.1921L13571.1152,-3363.2062L13571.1173,-3363.2112L13571.1361,-3363.2299L13571.1523,-3363.2428L13571.1806,-3363.2564L13571.1998,-3363.2648L13571.2075,-3363.2682L13571.2176,-3363.271L13571.2324,-3363.2716L13571.2426,-3363.2676L13571.2587,-3363.2586L13571.2675,-3363.2519L13571.2816,-3363.2344L13571.3065,-3363.2124L13571.3187,-3363.1977L13571.3254,-3363.1893L13571.3375,-3363.1695L13571.3571,-3363.1464L13571.361,-3363.1405L13571.3726,-3363.1233L13571.3847,-3363.0963L13571.3928,-3363.0692L13571.4191,-3363.01L13571.4231,-3362.9891L13571.4251,-3362.9784L13571.4285,-3362.9666L13571.4339,-3362.9587L13571.4487,-3362.9474L13571.4729,-3362.9412L13571.4891,-3362.9401L13571.5026,-3362.9418L13571.5362,-3362.9418L13571.5409,-3362.9373L13571.5544,-3362.9288L13571.5773,-3362.9153L13571.6252,-3362.8815L13571.6319,-3362.8781L13571.6817,-3362.864L13571.6898,-3362.8606L13571.7128,-3362.851L13571.7228,-3362.8482L13571.7404,-3362.8414L13571.7559,-3362.8369L13571.7922,-3362.8352L13571.8044,-3362.8324L13571.8239,-3362.8189L13571.8326,-3362.8183L13571.8562,-3362.8206L13571.8704,-3362.8178L13571.8993,-3362.8048L13571.9081,-3362.798L13571.9169,-3362.7873L13571.9229,-3362.7749L13571.9236,-3362.7648L13571.9128,-3362.7461L13571.9041,-3362.7281L13571.9039,-3362.728L13571.8825,-3362.7039L13571.8688,-3362.6887L13571.8636,-3362.6819L13571.8508,-3362.6503L13571.8387,-3362.634L13571.8313,-3362.6227L13571.77,-3362.5511L13571.7565,-3362.5376L13571.7397,-3362.5184L13571.7255,-3362.4975L13571.7154,-3362.4846L13571.6925,-3362.4642L13571.6703,-3362.4507L13571.6568,-3362.4451L13571.6177,-3362.4434L13571.6002,-3362.4344L13571.5847,-3362.4276L13571.5719,-3362.4287L13571.5349,-3362.4361L13571.5134,-3362.4361L13571.4999,-3362.4316L13571.4817,-3362.422L13571.4601,-3362.4124L13571.4251,-3362.4017L13571.4056,-3362.3977L13571.3901,-3362.3966L13571.3773,-3362.3887L13571.3604,-3362.3746L13571.3551,-3362.3718L13571.3321,-3362.3633L13571.3261,-3362.3594L13571.3119,-3362.3515L13571.2708,-3362.3369L13571.2048,-3362.3058L13571.1873,-3362.2962L13571.1826,-3362.2912L13571.1786,-3362.2839L13571.1738,-3362.2557L13571.1691,-3362.2156L13571.1664,-3362.2021L13571.1583,-3362.1835L13571.1543,-3362.1801L13571.1529,-3362.1767L13571.128,-3362.1604L13571.0997,-3362.1451L13571.0331,-3362.0978L13571.0302,-3362.0951L13571.0088,-3362.0752L13571.0061,-3362.0741L13570.9718,-3362.0459L13570.9381,-3362.0177L13570.9165,-3362.0087L13570.8939,-3361.9973L13570.8815,-3361.9896L13570.8572,-3361.9704L13570.8377,-3361.9518L13570.8134,-3361.9328L13570.8027,-3361.9326L13570.7596,-3361.9315L13570.7515,-3361.9309L13570.7366,-3361.9275L13570.7205,-3361.9225L13570.6841,-3361.9247L13570.6693,-3361.9264L13570.5878,-3361.9264L13570.5743,-3361.9253L13570.5507,-3361.9247L13570.4618,-3361.9264L13570.4342,-3361.9247L13570.4073,-3361.9213L13570.3931,-3361.9191L13570.348,-3361.9134L13570.3318,-3361.9106L13570.3149,-3361.9095L13570.3125,-3361.9091"/>
</g>
</svg>
