<?xml version="1.0" encoding="UTF-8"?>
<svg  xmlns="http://www.w3.org/2000/svg" xmlns:xlink="http://www.w3.org/1999/xlink" xmlns:go="http://purl.org/svgmap/profile" property="N07_001,N07_002,N07_003,N07_004,N07_005,N07_006,N07_007" viewBox="13921.875 -4078.125 70.3125 70.3125" go:dataArea="13921.875 -4078.125 70.3125 70.3125" >
<metadata>
 <rdf:RDF xmlns:rdf="http://www.w3.org/1999/02/22-rdf-syntax-ns#" xmlns:crs="http://opengis.org/xmldtds/transformations.dtd" xmlns:svg="http://www.w3.org/svg" >
  <rdf:Description>
   <crs:CoordinateReferenceSystem rdf:resource="http://purl.org/crs/84" svg:transform="matrix(100.0,0.0,0.0,-100.0,0.0,0.0)" />
  </rdf:Description>
 </rdf:RDF>
</metadata>
<globalCoordinateSystem srsName="http://purl.org/crs/84" transform="matrix(100.0,0.0,0.0,-100.0,0.0,0.0)" />
<defs>
 <g id="p0" >
  <circle cx="0.0" cy="0.0" r="3" stroke="green" stroke-width="0.75" vector-effect="non-scaling-stroke" />
 </g>
</defs>
<g fill="none" fill-rule="evenodd" stroke="#FF00FF" stroke-width="0.75" opacity="0.5" vector-effect="non-scaling-stroke" stroke-linejoin="bevel" >
<path content="1,弘南バス（株）,十二湖線　122,7.6,7.6,7.6," xlink:title="1" d="M13987.3324,-4059.2361L13987.3479,-4059.2147L13987.3691,-4059.1838L13987.3731,-4059.1781L13987.393,-4059.1539L13987.4193,-4059.1266L13987.4255,-4059.1202L13987.4351,-4059.1129L13987.4572,-4059.0993L13987.6758,-4058.9969L13987.8132,-4058.9333L13987.8162,-4058.931L13987.8604,-4058.913L13987.8782,-4058.9079L13987.8988,-4058.9034L13987.9291,-4058.8995L13987.9594,-4058.8984L13988.0155,-4058.8978L13988.0414,-4058.8967L13988.0532,-4058.895L13988.0621,-4058.8927L13988.0783,-4058.886L13988.0953,-4058.873L13988.1019,-4058.8629L13988.1219,-4058.8246L13988.1653,-4058.7552L13988.1902,-4058.7153L13988.229,-4058.671L13988.2751,-4058.6507L13988.3211,-4058.6433L13988.4642,-4058.6562L13988.6047,-4058.6692L13988.6968,-4058.6766L13988.7286,-4058.676L13988.7465,-4058.6756L13988.7831,-4058.6684L13988.7913,-4058.6667L13988.8605,-4058.6461L13988.9526,-4058.6148L13988.9971,-4058.6006L13989.0144,-4058.5944L13989.0648,-4058.5764L13989.1304,-4058.5527L13989.23,-4058.5195L13989.2654,-4058.5094L13989.2831,-4058.5071L13989.3591,-4058.5004L13989.3937,-4058.4982L13989.5028,-4058.4896L13989.6475,-4058.4779L13989.9447,-4058.4632L13990.0074,-4058.4604L13990.0465,-4058.4616L13990.0826,-4058.4694L13990.1247,-4058.4835L13990.1542,-4058.4953L13990.267,-4058.5449L13990.2877,-4058.5533L13990.3135,-4058.5652L13990.3878,-4058.5987L13990.3921,-4058.6006L13990.4316,-4058.6166L13990.4577,-4058.6288L13990.4981,-4058.6475L13990.5392,-4058.664L13990.5866,-4058.6799L13990.611,-4058.6882L13990.6588,-4058.6895L13990.7246,-4058.6928L13990.7492,-4058.6938L13990.7683,-4058.686L13990.7795,-4058.6731L13990.7923,-4058.6631L13990.804,-4058.6619L13990.8167,-4058.6621L13990.8985,-4058.6582L13990.9804,-4058.6552L13991.0102,-4058.6551L13991.0151,-4058.6552L13991.04,-4058.6552L13991.0979,-4058.6508L13991.1532,-4058.6543L13991.1653,-4058.6594L13991.1775,-4058.6654L13991.2113,-4058.6827L13991.2456,-4058.6969L13991.2834,-4058.7027L13991.3023,-4058.7035L13991.316,-4058.7043L13991.3284,-4058.7061L13991.4106,-4058.7028L13991.4988,-4058.6942L13991.5581,-4058.6847L13991.6372,-4058.6667L13991.6473,-4058.6644L13991.6679,-4058.6561L13991.7118,-4058.6441L13991.7567,-4058.6348L13991.7962,-4058.625L13991.8359,-4058.6172L13991.875,-4058.6182L13991.9005,-4058.6133L13991.9107,-4058.6119L13991.9243,-4058.6096L13991.9548,-4058.6007L13991.9981,-4058.5827L13992.0334,-4058.5604L13992.0844,-4058.5292L13992.1707,-4058.4751L13992.1875,-4058.464"/>
<path content="1,弘南バス（株）,十二湖線　122,7.6,7.6,7.6," xlink:title="1" d="M13987.3324,-4059.2361L13987.3147,-4059.2333L13987.3154,-4059.2136L13987.3236,-4059.195L13987.3208,-4059.1869L13987.3066,-4059.1809L13987.2896,-4059.1821L13987.2726,-4059.186L13987.2534,-4059.1922L13987.1759,-4059.2125L13987.1559,-4059.2172L13987.0851,-4059.2266L13987.0584,-4059.2389L13987.0503,-4059.2412L13987.0459,-4059.2412L13987.0356,-4059.257L13987.0156,-4059.2705L13987.0068,-4059.2778L13986.9955,-4059.2958L13986.999,-4059.298"/>
<path content="1,弘南バス（株）,十二湖線　122,7.6,7.6,7.6," xlink:title="1" d="M13987.3324,-4059.2361L13987.3273,-4059.244L13987.2992,-4059.2851L13987.2874,-4059.311L13987.2822,-4059.3251L13987.2748,-4059.3572L13987.2719,-4059.3831L13987.2718,-4059.4731L13987.2763,-4059.4985L13987.2866,-4059.5227L13987.3051,-4059.5536L13987.325,-4059.5869L13987.342,-4059.6195L13987.3427,-4059.6235L13987.3494,-4059.6381L13987.3546,-4059.6555L13987.3546,-4059.66L13987.3582,-4059.6764L13987.3686,-4059.7574L13987.3774,-4059.8177L13987.3774,-4059.8486L13987.376,-4059.8571L13987.3693,-4059.8734L13987.3612,-4059.8881L13987.3501,-4059.9015L13987.1623,-4060.0408L13987.1559,-4060.0456L13987.1452,-4060.0541L13986.9764,-4060.1881L13986.8915,-4060.2528L13986.8199,-4060.3086L13986.811,-4060.3187L13986.7926,-4060.3451L13986.7815,-4060.3666L13986.7475,-4060.4543L13986.6958,-4060.5912L13986.6928,-4060.6013L13986.6921,-4060.6233L13986.6951,-4060.6345L13986.7335,-4060.7099L13986.7689,-4060.7831L13986.7874,-4060.8079L13986.7955,-4060.8186L13986.8344,-4060.8487L13986.8502,-4060.861L13986.879,-4060.8833L13986.9168,-4060.9127L13986.8693,-4060.943L13986.7969,-4061.0083L13986.7741,-4061.0218L13986.7386,-4061.0359L13986.7179,-4061.0415L13986.7113,-4061.0421L13986.7039,-4061.0443L13986.698,-4061.0449L13986.6477,-4061.0563L13986.5976,-4061.0669L13986.5599,-4061.0719L13986.472,-4061.0826L13986.4447,-4061.0832L13986.3959,-4061.0865L13986.3923,-4061.0877L13986.3826,-4061.0882L13986.3738,-4061.0905L13986.3642,-4061.0916L13986.3627,-4061.0927L13986.3413,-4061.1023L13986.3198,-4061.1201L13986.314,-4061.1271L13986.311,-4061.1327L13986.3007,-4061.1558L13986.2756,-4061.2464L13986.2571,-4061.301L13986.2549,-4061.3083L13986.2416,-4061.3343L13986.2409,-4061.3646L13986.2386,-4061.3765L13986.2295,-4061.3975"/>
<path content="1,弘南バス（株）,深浦町内線　121,2.0,2.0,1.0," xlink:title="1" d="M13992.1875,-4064.3712L13992.0531,-4064.3662L13991.9486,-4064.366L13991.9005,-4064.3675"/>
<path content="1,弘南バス（株）,鯵ヶ沢～深浦線　121,4.0,4.0,4.0," xlink:title="1" d="M13991.9005,-4064.3675L13991.9486,-4064.366L13992.0531,-4064.3662L13992.1875,-4064.3712"/>
</g>
</svg>
