<?xml version="1.0" encoding="UTF-8"?>
<svg  xmlns="http://www.w3.org/2000/svg" xmlns:xlink="http://www.w3.org/1999/xlink" xmlns:go="http://purl.org/svgmap/profile" property="N07_001,N07_002,N07_003,N07_004,N07_005,N07_006,N07_007" viewBox="14086.395263671875 -3834.503173828125 0.1373291015625 0.1373291015625" go:dataArea="14086.395263671875 -3834.503173828125 0.1373291015625 0.1373291015625" >
<metadata>
 <rdf:RDF xmlns:rdf="http://www.w3.org/1999/02/22-rdf-syntax-ns#" xmlns:crs="http://opengis.org/xmldtds/transformations.dtd" xmlns:svg="http://www.w3.org/svg" >
  <rdf:Description>
   <crs:CoordinateReferenceSystem rdf:resource="http://purl.org/crs/84" svg:transform="matrix(100.0,0.0,0.0,-100.0,0.0,0.0)" />
  </rdf:Description>
 </rdf:RDF>
</metadata>
<globalCoordinateSystem srsName="http://purl.org/crs/84" transform="matrix(100.0,0.0,0.0,-100.0,0.0,0.0)" />
<defs>
 <g id="p0" >
  <circle cx="0.0" cy="0.0" r="3" stroke="green" stroke-width="0.75" vector-effect="non-scaling-stroke" />
 </g>
</defs>
<g fill="none" fill-rule="evenodd" stroke="#FF00FF" stroke-width="0.75" opacity="0.5" vector-effect="non-scaling-stroke" stroke-linejoin="bevel" >
<path content="1,JRバス東北（株）,うみねこ号,1.0,1.0,1.0," xlink:title="1" d="M14086.3953,-3834.4422L14086.3958,-3834.4424L14086.4208,-3834.4506L14086.4208,-3834.4506L14086.4208,-3834.4506L14086.4208,-3834.4506L14086.4555,-3834.4616L14086.4891,-3834.47L14086.5005,-3834.4722L14086.5028,-3834.4726L14086.5029,-3834.4726L14086.503,-3834.4727L14086.5031,-3834.4727L14086.5033,-3834.4727L14086.5041,-3834.4729L14086.5042,-3834.4729L14086.5043,-3834.4729L14086.5043,-3834.4729L14086.5043,-3834.4729L14086.5044,-3834.4729L14086.5049,-3834.473L14086.506,-3834.4732L14086.506,-3834.4732L14086.506,-3834.4732L14086.506,-3834.4732L14086.506,-3834.4732L14086.5061,-3834.4732L14086.5061,-3834.4733L14086.5062,-3834.4733L14086.5062,-3834.4733L14086.5063,-3834.4733L14086.5064,-3834.4733L14086.5069,-3834.4734L14086.5075,-3834.4735L14086.5077,-3834.4735L14086.5077,-3834.4735L14086.5078,-3834.4735L14086.5078,-3834.4736L14086.5079,-3834.4736L14086.508,-3834.4736L14086.508,-3834.4736L14086.508,-3834.4736L14086.5083,-3834.4736L14086.5083,-3834.4737L14086.5299,-3834.4776L14086.5326,-3834.478"/>
<path content="1,JRバス東北（株）,けんじライナー号,1.0,1.0,1.0," xlink:title="1" d="M14086.3953,-3834.4422L14086.3958,-3834.4424L14086.4208,-3834.4506L14086.4208,-3834.4506L14086.4208,-3834.4506L14086.4208,-3834.4506L14086.4555,-3834.4616L14086.4891,-3834.47L14086.5005,-3834.4722L14086.5028,-3834.4726L14086.5029,-3834.4726L14086.503,-3834.4727L14086.5031,-3834.4727L14086.5033,-3834.4727L14086.5041,-3834.4729L14086.5042,-3834.4729L14086.5043,-3834.4729L14086.5043,-3834.4729L14086.5043,-3834.4729L14086.5044,-3834.4729L14086.5049,-3834.473L14086.506,-3834.4732L14086.506,-3834.4732L14086.506,-3834.4732L14086.506,-3834.4732L14086.506,-3834.4732L14086.5061,-3834.4732L14086.5061,-3834.4733L14086.5062,-3834.4733L14086.5062,-3834.4733L14086.5063,-3834.4733L14086.5064,-3834.4733L14086.5069,-3834.4734L14086.5075,-3834.4735L14086.5077,-3834.4735L14086.5077,-3834.4735L14086.5078,-3834.4735L14086.5078,-3834.4736L14086.5079,-3834.4736L14086.508,-3834.4736L14086.508,-3834.4736L14086.508,-3834.4736L14086.5083,-3834.4736L14086.5083,-3834.4737L14086.5299,-3834.4776L14086.5326,-3834.478"/>
<path content="1,JRバス東北（株）,アーバン号,3.2,4.0,4.0," xlink:title="1" d="M14086.3953,-3834.4422L14086.3958,-3834.4424L14086.4208,-3834.4506L14086.4208,-3834.4506L14086.4208,-3834.4506L14086.4208,-3834.4506L14086.4555,-3834.4616L14086.4891,-3834.47L14086.5005,-3834.4722L14086.5028,-3834.4726L14086.5029,-3834.4726L14086.503,-3834.4727L14086.5031,-3834.4727L14086.5033,-3834.4727L14086.5041,-3834.4729L14086.5042,-3834.4729L14086.5043,-3834.4729L14086.5043,-3834.4729L14086.5043,-3834.4729L14086.5044,-3834.4729L14086.5049,-3834.473L14086.506,-3834.4732L14086.506,-3834.4732L14086.506,-3834.4732L14086.506,-3834.4732L14086.506,-3834.4732L14086.5061,-3834.4732L14086.5061,-3834.4733L14086.5062,-3834.4733L14086.5062,-3834.4733L14086.5063,-3834.4733L14086.5064,-3834.4733L14086.5069,-3834.4734L14086.5075,-3834.4735L14086.5077,-3834.4735L14086.5077,-3834.4735L14086.5078,-3834.4735L14086.5078,-3834.4736L14086.5079,-3834.4736L14086.508,-3834.4736L14086.508,-3834.4736L14086.508,-3834.4736L14086.5083,-3834.4736L14086.5083,-3834.4737L14086.5299,-3834.4776L14086.5326,-3834.478"/>
<path content="1,JRバス東北（株）,キャッスル号,3.0,3.0,3.0," xlink:title="1" d="M14086.3953,-3834.4422L14086.3958,-3834.4424L14086.4208,-3834.4506L14086.4208,-3834.4506L14086.4208,-3834.4506L14086.4208,-3834.4506L14086.4555,-3834.4616L14086.4891,-3834.47L14086.5005,-3834.4722L14086.5028,-3834.4726L14086.5029,-3834.4726L14086.503,-3834.4727L14086.5031,-3834.4727L14086.5033,-3834.4727L14086.5041,-3834.4729L14086.5042,-3834.4729L14086.5043,-3834.4729L14086.5043,-3834.4729L14086.5043,-3834.4729L14086.5044,-3834.4729L14086.5049,-3834.473L14086.506,-3834.4732L14086.506,-3834.4732L14086.506,-3834.4732L14086.506,-3834.4732L14086.506,-3834.4732L14086.5061,-3834.4732L14086.5061,-3834.4733L14086.5062,-3834.4733L14086.5062,-3834.4733L14086.5063,-3834.4733L14086.5064,-3834.4733L14086.5069,-3834.4734L14086.5075,-3834.4735L14086.5077,-3834.4735L14086.5077,-3834.4735L14086.5078,-3834.4735L14086.5078,-3834.4736L14086.5079,-3834.4736L14086.508,-3834.4736L14086.508,-3834.4736L14086.508,-3834.4736L14086.5083,-3834.4736L14086.5083,-3834.4737L14086.5299,-3834.4776L14086.5326,-3834.478"/>
<path content="1,JRバス東北（株）,グリーンライナー号,2.0,2.0,2.0," xlink:title="1" d="M14086.3953,-3834.4422L14086.3958,-3834.4424L14086.4208,-3834.4506L14086.4208,-3834.4506L14086.4208,-3834.4506L14086.4208,-3834.4506L14086.4555,-3834.4616L14086.4891,-3834.47L14086.5005,-3834.4722L14086.5028,-3834.4726L14086.5029,-3834.4726L14086.503,-3834.4727L14086.5031,-3834.4727L14086.5033,-3834.4727L14086.5041,-3834.4729L14086.5042,-3834.4729L14086.5043,-3834.4729L14086.5043,-3834.4729L14086.5043,-3834.4729L14086.5044,-3834.4729L14086.5049,-3834.473L14086.506,-3834.4732L14086.506,-3834.4732L14086.506,-3834.4732L14086.506,-3834.4732L14086.506,-3834.4732L14086.5061,-3834.4732L14086.5061,-3834.4733L14086.5062,-3834.4733L14086.5062,-3834.4733L14086.5063,-3834.4733L14086.5064,-3834.4733L14086.5069,-3834.4734L14086.5075,-3834.4735L14086.5077,-3834.4735L14086.5077,-3834.4735L14086.5078,-3834.4735L14086.5078,-3834.4736L14086.5079,-3834.4736L14086.508,-3834.4736L14086.508,-3834.4736L14086.508,-3834.4736L14086.5083,-3834.4736L14086.5083,-3834.4737L14086.5299,-3834.4776L14086.5326,-3834.478"/>
<path content="1,JRバス東北（株）,ドリーム盛岡・らくちん号,2.2,3.0,3.0," xlink:title="1" d="M14086.3953,-3834.4425L14086.3958,-3834.4427L14086.421,-3834.4507L14086.4557,-3834.4618L14086.4893,-3834.4702L14086.5028,-3834.4726L14086.5029,-3834.4726L14086.503,-3834.4727L14086.5031,-3834.4727L14086.5033,-3834.4727L14086.5041,-3834.4729L14086.5042,-3834.4729L14086.5043,-3834.4729L14086.5043,-3834.4729L14086.5043,-3834.4729L14086.5044,-3834.4729L14086.5049,-3834.473L14086.506,-3834.4732L14086.506,-3834.4732L14086.506,-3834.4732L14086.506,-3834.4732L14086.506,-3834.4732L14086.5061,-3834.4732L14086.5061,-3834.4733L14086.5062,-3834.4733L14086.5062,-3834.4733L14086.5063,-3834.4733L14086.5064,-3834.4733L14086.5069,-3834.4734L14086.5075,-3834.4735L14086.5077,-3834.4735L14086.5077,-3834.4735L14086.5078,-3834.4735L14086.5078,-3834.4736L14086.5079,-3834.4736L14086.508,-3834.4736L14086.508,-3834.4736L14086.508,-3834.4736L14086.5083,-3834.4736L14086.5083,-3834.4737L14086.5099,-3834.474L14086.5299,-3834.4778L14086.5301,-3834.4778L14086.5326,-3834.4782"/>
<path content="1,JRバス東北（株）,ドリーム秋田・横浜号,1.0,1.0,1.0," xlink:title="1" d="M14086.5326,-3834.478L14086.5299,-3834.4776L14086.5083,-3834.4737L14086.5083,-3834.4736L14086.508,-3834.4736L14086.508,-3834.4736L14086.508,-3834.4736L14086.5079,-3834.4736L14086.5078,-3834.4736L14086.5078,-3834.4735L14086.5077,-3834.4735L14086.5077,-3834.4735L14086.5075,-3834.4735L14086.5069,-3834.4734L14086.5064,-3834.4733L14086.5063,-3834.4733L14086.5062,-3834.4733L14086.5062,-3834.4733L14086.5061,-3834.4733L14086.5061,-3834.4732L14086.506,-3834.4732L14086.506,-3834.4732L14086.506,-3834.4732L14086.506,-3834.4732L14086.506,-3834.4732L14086.5049,-3834.473L14086.5044,-3834.4729L14086.5043,-3834.4729L14086.5043,-3834.4729L14086.5043,-3834.4729L14086.5042,-3834.4729L14086.5041,-3834.4729L14086.5033,-3834.4727L14086.5031,-3834.4727L14086.503,-3834.4727L14086.5029,-3834.4726L14086.5028,-3834.4726L14086.5005,-3834.4722L14086.4891,-3834.47L14086.4555,-3834.4616L14086.4208,-3834.4506L14086.4208,-3834.4506L14086.4208,-3834.4506L14086.4208,-3834.4506L14086.3958,-3834.4424L14086.3953,-3834.4422"/>
<path content="1,JRバス東北（株）,ブルーシティ号,1.5,1.5,1.5," xlink:title="1" d="M14086.3953,-3834.4422L14086.3958,-3834.4424L14086.4208,-3834.4506L14086.4208,-3834.4506L14086.4208,-3834.4506L14086.4208,-3834.4506L14086.4555,-3834.4616L14086.4891,-3834.47L14086.5005,-3834.4722L14086.5028,-3834.4726L14086.5029,-3834.4726L14086.503,-3834.4727L14086.5031,-3834.4727L14086.5033,-3834.4727L14086.5041,-3834.4729L14086.5042,-3834.4729L14086.5043,-3834.4729L14086.5043,-3834.4729L14086.5043,-3834.4729L14086.5044,-3834.4729L14086.5049,-3834.473L14086.506,-3834.4732L14086.506,-3834.4732L14086.506,-3834.4732L14086.506,-3834.4732L14086.506,-3834.4732L14086.5061,-3834.4732L14086.5061,-3834.4733L14086.5062,-3834.4733L14086.5062,-3834.4733L14086.5063,-3834.4733L14086.5064,-3834.4733L14086.5069,-3834.4734L14086.5075,-3834.4735L14086.5077,-3834.4735L14086.5077,-3834.4735L14086.5078,-3834.4735L14086.5078,-3834.4736L14086.5079,-3834.4736L14086.508,-3834.4736L14086.508,-3834.4736L14086.508,-3834.4736L14086.5083,-3834.4736L14086.5083,-3834.4737L14086.5299,-3834.4776L14086.5326,-3834.478"/>
<path content="1,JRバス東北（株）,ラ・フォーレ号,1.0,1.0,1.0," xlink:title="1" d="M14086.3953,-3834.4425L14086.3958,-3834.4427L14086.421,-3834.4507L14086.4557,-3834.4618L14086.4893,-3834.4702L14086.5028,-3834.4726L14086.5029,-3834.4726L14086.503,-3834.4727L14086.5031,-3834.4727L14086.5033,-3834.4727L14086.5041,-3834.4729L14086.5042,-3834.4729L14086.5043,-3834.4729L14086.5043,-3834.4729L14086.5043,-3834.4729L14086.5044,-3834.4729L14086.5049,-3834.473L14086.506,-3834.4732L14086.506,-3834.4732L14086.506,-3834.4732L14086.506,-3834.4732L14086.506,-3834.4732L14086.5061,-3834.4732L14086.5061,-3834.4733L14086.5062,-3834.4733L14086.5062,-3834.4733L14086.5063,-3834.4733L14086.5064,-3834.4733L14086.5069,-3834.4734L14086.5075,-3834.4735L14086.5077,-3834.4735L14086.5077,-3834.4735L14086.5078,-3834.4735L14086.5078,-3834.4736L14086.5079,-3834.4736L14086.508,-3834.4736L14086.508,-3834.4736L14086.508,-3834.4736L14086.5083,-3834.4736L14086.5083,-3834.4737L14086.5099,-3834.474L14086.5299,-3834.4778L14086.5301,-3834.4778L14086.5326,-3834.4782"/>
<path content="1,JRバス東北（株）,仙台～大館線,1.0,1.0,1.0," xlink:title="1" d="M14086.3953,-3834.4423L14086.3958,-3834.4426L14086.4182,-3834.4498L14086.4184,-3834.4499L14086.4187,-3834.4499L14086.4208,-3834.4506L14086.4208,-3834.4506L14086.4208,-3834.4506L14086.4208,-3834.4506L14086.4209,-3834.4506L14086.4555,-3834.4616L14086.4555,-3834.4616L14086.4555,-3834.4616L14086.4556,-3834.4616L14086.4891,-3834.47L14086.4892,-3834.47L14086.4892,-3834.47L14086.4892,-3834.4701L14086.5005,-3834.4722L14086.5028,-3834.4726L14086.5029,-3834.4726L14086.503,-3834.4727L14086.5031,-3834.4727L14086.5033,-3834.4727L14086.5041,-3834.4729L14086.5042,-3834.4729L14086.5043,-3834.4729L14086.5043,-3834.4729L14086.5043,-3834.4729L14086.5044,-3834.4729L14086.5049,-3834.473L14086.506,-3834.4732L14086.506,-3834.4732L14086.506,-3834.4732L14086.506,-3834.4732L14086.506,-3834.4732L14086.5061,-3834.4732L14086.5061,-3834.4733L14086.5062,-3834.4733L14086.5062,-3834.4733L14086.5063,-3834.4733L14086.5064,-3834.4733L14086.5069,-3834.4734L14086.5075,-3834.4735L14086.5077,-3834.4735L14086.5077,-3834.4735L14086.5078,-3834.4735L14086.5078,-3834.4736L14086.5079,-3834.4736L14086.508,-3834.4736L14086.508,-3834.4736L14086.508,-3834.4736L14086.5083,-3834.4736L14086.5083,-3834.4737L14086.5099,-3834.474L14086.5298,-3834.4776L14086.5299,-3834.4776L14086.5299,-3834.4776L14086.5301,-3834.4776L14086.531,-3834.4778L14086.5326,-3834.478"/>
<path content="1,JRバス東北（株）,仙台～江刺・水沢線,2.0,2.0,2.0," xlink:title="1" d="M14086.3953,-3834.4422L14086.3958,-3834.4424L14086.4208,-3834.4506L14086.4208,-3834.4506L14086.4208,-3834.4506L14086.4208,-3834.4506L14086.4555,-3834.4616L14086.4891,-3834.47L14086.5005,-3834.4722L14086.5028,-3834.4726L14086.5029,-3834.4726L14086.503,-3834.4727L14086.5031,-3834.4727L14086.5033,-3834.4727L14086.5041,-3834.4729L14086.5042,-3834.4729L14086.5043,-3834.4729L14086.5043,-3834.4729L14086.5043,-3834.4729L14086.5044,-3834.4729L14086.5049,-3834.473L14086.506,-3834.4732L14086.506,-3834.4732L14086.506,-3834.4732L14086.506,-3834.4732L14086.506,-3834.4732L14086.5061,-3834.4732L14086.5061,-3834.4733L14086.5062,-3834.4733L14086.5062,-3834.4733L14086.5063,-3834.4733L14086.5064,-3834.4733L14086.5069,-3834.4734L14086.5075,-3834.4735L14086.5077,-3834.4735L14086.5077,-3834.4735L14086.5078,-3834.4735L14086.5078,-3834.4736L14086.5079,-3834.4736L14086.508,-3834.4736L14086.508,-3834.4736L14086.508,-3834.4736L14086.5083,-3834.4736L14086.5083,-3834.4737L14086.5299,-3834.4776L14086.5326,-3834.478"/>
<path content="1,JRバス東北（株）,仙秋号,2.0,2.0,2.0," xlink:title="1" d="M14086.3953,-3834.4422L14086.3958,-3834.4424L14086.4208,-3834.4506L14086.4208,-3834.4506L14086.4208,-3834.4506L14086.4208,-3834.4506L14086.4555,-3834.4616L14086.4891,-3834.47L14086.5005,-3834.4722L14086.5028,-3834.4726L14086.5029,-3834.4726L14086.503,-3834.4727L14086.5031,-3834.4727L14086.5033,-3834.4727L14086.5041,-3834.4729L14086.5042,-3834.4729L14086.5043,-3834.4729L14086.5043,-3834.4729L14086.5043,-3834.4729L14086.5044,-3834.4729L14086.5049,-3834.473L14086.506,-3834.4732L14086.506,-3834.4732L14086.506,-3834.4732L14086.506,-3834.4732L14086.506,-3834.4732L14086.5061,-3834.4732L14086.5061,-3834.4733L14086.5062,-3834.4733L14086.5062,-3834.4733L14086.5063,-3834.4733L14086.5064,-3834.4733L14086.5069,-3834.4734L14086.5075,-3834.4735L14086.5077,-3834.4735L14086.5077,-3834.4735L14086.5078,-3834.4735L14086.5078,-3834.4736L14086.5079,-3834.4736L14086.508,-3834.4736L14086.508,-3834.4736L14086.508,-3834.4736L14086.5083,-3834.4736L14086.5083,-3834.4737L14086.5299,-3834.4776L14086.5326,-3834.478"/>
<path content="1,JRバス関東（株）,ドリーム盛岡号,2.2,3.0,3.0," xlink:title="1" d="M14086.3953,-3834.4422L14086.3958,-3834.4424L14086.4208,-3834.4506L14086.4208,-3834.4506L14086.4208,-3834.4506L14086.4208,-3834.4506L14086.4555,-3834.4616L14086.4891,-3834.47L14086.5005,-3834.4722L14086.5028,-3834.4726L14086.5029,-3834.4726L14086.503,-3834.4727L14086.5031,-3834.4727L14086.5033,-3834.4727L14086.5041,-3834.4729L14086.5042,-3834.4729L14086.5043,-3834.4729L14086.5043,-3834.4729L14086.5043,-3834.4729L14086.5044,-3834.4729L14086.5049,-3834.473L14086.506,-3834.4732L14086.506,-3834.4732L14086.506,-3834.4732L14086.506,-3834.4732L14086.506,-3834.4732L14086.5061,-3834.4732L14086.5061,-3834.4733L14086.5062,-3834.4733L14086.5062,-3834.4733L14086.5063,-3834.4733L14086.5064,-3834.4733L14086.5069,-3834.4734L14086.5075,-3834.4735L14086.5077,-3834.4735L14086.5077,-3834.4735L14086.5078,-3834.4735L14086.5078,-3834.4736L14086.5079,-3834.4736L14086.508,-3834.4736L14086.508,-3834.4736L14086.508,-3834.4736L14086.5083,-3834.4736L14086.5083,-3834.4737L14086.5299,-3834.4776L14086.5326,-3834.478"/>
<path content="1,京浜急行バス（株）,ノクターン号,3.4,4.0,4.0," xlink:title="1" d="M14086.3953,-3834.4422L14086.3958,-3834.4424L14086.4208,-3834.4506L14086.4208,-3834.4506L14086.4208,-3834.4506L14086.4208,-3834.4506L14086.4555,-3834.4616L14086.4891,-3834.47L14086.5005,-3834.4722L14086.5028,-3834.4726L14086.5029,-3834.4726L14086.503,-3834.4727L14086.5031,-3834.4727L14086.5033,-3834.4727L14086.5041,-3834.4729L14086.5042,-3834.4729L14086.5043,-3834.4729L14086.5043,-3834.4729L14086.5043,-3834.4729L14086.5044,-3834.4729L14086.5049,-3834.473L14086.506,-3834.4732L14086.506,-3834.4732L14086.506,-3834.4732L14086.506,-3834.4732L14086.506,-3834.4732L14086.5061,-3834.4732L14086.5061,-3834.4733L14086.5062,-3834.4733L14086.5062,-3834.4733L14086.5063,-3834.4733L14086.5064,-3834.4733L14086.5069,-3834.4734L14086.5075,-3834.4735L14086.5077,-3834.4735L14086.5077,-3834.4735L14086.5078,-3834.4735L14086.5078,-3834.4736L14086.5079,-3834.4736L14086.508,-3834.4736L14086.508,-3834.4736L14086.508,-3834.4736L14086.5083,-3834.4736L14086.5083,-3834.4737L14086.5299,-3834.4776L14086.5326,-3834.478"/>
<path content="1,京浜急行バス（株）,ビーム号,1.0,1.0,1.0," xlink:title="1" d="M14086.5326,-3834.478L14086.5299,-3834.4776L14086.5083,-3834.4737L14086.5083,-3834.4736L14086.508,-3834.4736L14086.508,-3834.4736L14086.508,-3834.4736L14086.5079,-3834.4736L14086.5078,-3834.4736L14086.5078,-3834.4735L14086.5077,-3834.4735L14086.5077,-3834.4735L14086.5075,-3834.4735L14086.5069,-3834.4734L14086.5064,-3834.4733L14086.5063,-3834.4733L14086.5062,-3834.4733L14086.5062,-3834.4733L14086.5061,-3834.4733L14086.5061,-3834.4732L14086.506,-3834.4732L14086.506,-3834.4732L14086.506,-3834.4732L14086.506,-3834.4732L14086.506,-3834.4732L14086.5049,-3834.473L14086.5044,-3834.4729L14086.5043,-3834.4729L14086.5043,-3834.4729L14086.5043,-3834.4729L14086.5042,-3834.4729L14086.5041,-3834.4729L14086.5033,-3834.4727L14086.5031,-3834.4727L14086.503,-3834.4727L14086.5029,-3834.4726L14086.5028,-3834.4726L14086.5005,-3834.4722L14086.4891,-3834.47L14086.4555,-3834.4616L14086.4208,-3834.4506L14086.4208,-3834.4506L14086.4208,-3834.4506L14086.4208,-3834.4506L14086.3958,-3834.4424L14086.3953,-3834.4422"/>
<path content="1,十和田観光電鉄（株）,うみねこ号,4.0,4.0,4.0," xlink:title="1" d="M14086.5326,-3834.4781L14086.531,-3834.4778L14086.53,-3834.4777L14086.53,-3834.4776L14086.5099,-3834.474L14086.5083,-3834.4737L14086.5083,-3834.4736L14086.508,-3834.4736L14086.508,-3834.4736L14086.508,-3834.4736L14086.5079,-3834.4736L14086.5078,-3834.4736L14086.5078,-3834.4735L14086.5077,-3834.4735L14086.5077,-3834.4735L14086.5075,-3834.4735L14086.5069,-3834.4734L14086.5064,-3834.4733L14086.5063,-3834.4733L14086.5062,-3834.4733L14086.5062,-3834.4733L14086.5061,-3834.4733L14086.5061,-3834.4732L14086.506,-3834.4732L14086.506,-3834.4732L14086.506,-3834.4732L14086.506,-3834.4732L14086.506,-3834.4732L14086.5049,-3834.473L14086.5044,-3834.4729L14086.5043,-3834.4729L14086.5043,-3834.4729L14086.5043,-3834.4729L14086.5042,-3834.4729L14086.5041,-3834.4729L14086.5033,-3834.4727L14086.5031,-3834.4727L14086.503,-3834.4727L14086.5029,-3834.4726L14086.5028,-3834.4726L14086.5005,-3834.4722L14086.4892,-3834.4701L14086.4556,-3834.4616L14086.4209,-3834.4506L14086.4208,-3834.4506L14086.4208,-3834.4506L14086.4208,-3834.4506L14086.4208,-3834.4506L14086.4187,-3834.4499L14086.4184,-3834.4499L14086.4182,-3834.4498L14086.3958,-3834.4425L14086.3953,-3834.4423"/>
<path content="1,十和田観光電鉄（株）,シリウス号,1.0,1.0,1.0," xlink:title="1" d="M14086.5326,-3834.478L14086.531,-3834.4778L14086.5301,-3834.4776L14086.5299,-3834.4776L14086.5299,-3834.4776L14086.5298,-3834.4776L14086.5099,-3834.474L14086.5083,-3834.4737L14086.5083,-3834.4736L14086.508,-3834.4736L14086.508,-3834.4736L14086.508,-3834.4736L14086.5079,-3834.4736L14086.5078,-3834.4736L14086.5078,-3834.4735L14086.5077,-3834.4735L14086.5077,-3834.4735L14086.5075,-3834.4735L14086.5069,-3834.4734L14086.5064,-3834.4733L14086.5063,-3834.4733L14086.5062,-3834.4733L14086.5062,-3834.4733L14086.5061,-3834.4733L14086.5061,-3834.4732L14086.506,-3834.4732L14086.506,-3834.4732L14086.506,-3834.4732L14086.506,-3834.4732L14086.506,-3834.4732L14086.5049,-3834.473L14086.5044,-3834.4729L14086.5043,-3834.4729L14086.5043,-3834.4729L14086.5043,-3834.4729L14086.5042,-3834.4729L14086.5041,-3834.4729L14086.5033,-3834.4727L14086.5031,-3834.4727L14086.503,-3834.4727L14086.5029,-3834.4726L14086.5028,-3834.4726L14086.5005,-3834.4722L14086.4892,-3834.4701L14086.4892,-3834.47L14086.4892,-3834.47L14086.4891,-3834.47L14086.4556,-3834.4616L14086.4555,-3834.4616L14086.4555,-3834.4616L14086.4555,-3834.4616L14086.4209,-3834.4506L14086.4208,-3834.4506L14086.4208,-3834.4506L14086.4208,-3834.4506L14086.4208,-3834.4506L14086.4187,-3834.4499L14086.4184,-3834.4499L14086.4182,-3834.4498L14086.3958,-3834.4424L14086.3953,-3834.4422"/>
<path content="1,十和田観光電鉄（株）,ブルーシティー号,6.0,6.0,6.0," xlink:title="1" d="M14086.5326,-3834.4781L14086.531,-3834.4778L14086.53,-3834.4777L14086.53,-3834.4776L14086.5099,-3834.474L14086.5083,-3834.4737L14086.5083,-3834.4736L14086.508,-3834.4736L14086.508,-3834.4736L14086.508,-3834.4736L14086.5079,-3834.4736L14086.5078,-3834.4736L14086.5078,-3834.4735L14086.5077,-3834.4735L14086.5077,-3834.4735L14086.5075,-3834.4735L14086.5069,-3834.4734L14086.5064,-3834.4733L14086.5063,-3834.4733L14086.5062,-3834.4733L14086.5062,-3834.4733L14086.5061,-3834.4733L14086.5061,-3834.4732L14086.506,-3834.4732L14086.506,-3834.4732L14086.506,-3834.4732L14086.506,-3834.4732L14086.506,-3834.4732L14086.5049,-3834.473L14086.5044,-3834.4729L14086.5043,-3834.4729L14086.5043,-3834.4729L14086.5043,-3834.4729L14086.5042,-3834.4729L14086.5041,-3834.4729L14086.5033,-3834.4727L14086.5031,-3834.4727L14086.503,-3834.4727L14086.5029,-3834.4726L14086.5028,-3834.4726L14086.5005,-3834.4722L14086.4892,-3834.4701L14086.4556,-3834.4616L14086.4209,-3834.4506L14086.4208,-3834.4506L14086.4208,-3834.4506L14086.4208,-3834.4506L14086.4208,-3834.4506L14086.4187,-3834.4499L14086.4184,-3834.4499L14086.4182,-3834.4498L14086.3958,-3834.4425L14086.3953,-3834.4423"/>
<path content="1,南部バス（株）,うみねこ号　仙台→八戸,4.0,4.0,4.0," xlink:title="1" d="M14086.3953,-3834.4423L14086.3958,-3834.4425L14086.4182,-3834.4498L14086.4184,-3834.4499L14086.4187,-3834.4499L14086.4208,-3834.4506L14086.4208,-3834.4506L14086.4208,-3834.4506L14086.4208,-3834.4506L14086.4209,-3834.4506L14086.4556,-3834.4616L14086.4892,-3834.4701L14086.5005,-3834.4722L14086.5028,-3834.4726L14086.5029,-3834.4726L14086.503,-3834.4727L14086.5031,-3834.4727L14086.5033,-3834.4727L14086.5041,-3834.4729L14086.5042,-3834.4729L14086.5043,-3834.4729L14086.5043,-3834.4729L14086.5043,-3834.4729L14086.5044,-3834.4729L14086.5049,-3834.473L14086.506,-3834.4732L14086.506,-3834.4732L14086.506,-3834.4732L14086.506,-3834.4732L14086.506,-3834.4732L14086.5061,-3834.4732L14086.5061,-3834.4733L14086.5062,-3834.4733L14086.5062,-3834.4733L14086.5063,-3834.4733L14086.5064,-3834.4733L14086.5069,-3834.4734L14086.5075,-3834.4735L14086.5077,-3834.4735L14086.5077,-3834.4735L14086.5078,-3834.4735L14086.5078,-3834.4736L14086.5079,-3834.4736L14086.508,-3834.4736L14086.508,-3834.4736L14086.508,-3834.4736L14086.5083,-3834.4736L14086.5083,-3834.4737L14086.5099,-3834.474L14086.53,-3834.4776L14086.53,-3834.4777L14086.531,-3834.4778L14086.5326,-3834.4781"/>
<path content="1,南部バス（株）,うみねこ号　八戸→仙台,4.0,4.0,4.0," xlink:title="1" d="M14086.5326,-3834.478L14086.531,-3834.4778L14086.5301,-3834.4776L14086.5299,-3834.4776L14086.5299,-3834.4776L14086.5298,-3834.4776L14086.5099,-3834.474L14086.5083,-3834.4737L14086.5083,-3834.4736L14086.508,-3834.4736L14086.508,-3834.4736L14086.508,-3834.4736L14086.5079,-3834.4736L14086.5078,-3834.4736L14086.5078,-3834.4735L14086.5077,-3834.4735L14086.5077,-3834.4735L14086.5075,-3834.4735L14086.5069,-3834.4734L14086.5064,-3834.4733L14086.5063,-3834.4733L14086.5062,-3834.4733L14086.5062,-3834.4733L14086.5061,-3834.4733L14086.5061,-3834.4732L14086.506,-3834.4732L14086.506,-3834.4732L14086.506,-3834.4732L14086.506,-3834.4732L14086.506,-3834.4732L14086.5049,-3834.473L14086.5044,-3834.4729L14086.5043,-3834.4729L14086.5043,-3834.4729L14086.5043,-3834.4729L14086.5042,-3834.4729L14086.5041,-3834.4729L14086.5033,-3834.4727L14086.5031,-3834.4727L14086.503,-3834.4727L14086.5029,-3834.4726L14086.5028,-3834.4726L14086.5005,-3834.4722L14086.4892,-3834.4701L14086.4892,-3834.47L14086.4892,-3834.47L14086.4891,-3834.47L14086.4556,-3834.4616L14086.4555,-3834.4616L14086.4555,-3834.4616L14086.4555,-3834.4616L14086.4209,-3834.4506L14086.4208,-3834.4506L14086.4208,-3834.4506L14086.4208,-3834.4506L14086.4208,-3834.4506L14086.4187,-3834.4499L14086.4184,-3834.4499L14086.4182,-3834.4498L14086.3958,-3834.4424L14086.3953,-3834.4422"/>
<path content="1,国際興業（株）,けせんライナー,1.0,1.0,1.0," xlink:title="1" d="M14086.3953,-3834.4422L14086.3958,-3834.4424L14086.4208,-3834.4506L14086.4208,-3834.4506L14086.4208,-3834.4506L14086.4208,-3834.4506L14086.4555,-3834.4616L14086.4891,-3834.47L14086.5005,-3834.4722L14086.5028,-3834.4726L14086.5029,-3834.4726L14086.503,-3834.4727L14086.5031,-3834.4727L14086.5033,-3834.4727L14086.5041,-3834.4729L14086.5042,-3834.4729L14086.5043,-3834.4729L14086.5043,-3834.4729L14086.5043,-3834.4729L14086.5044,-3834.4729L14086.5049,-3834.473L14086.506,-3834.4732L14086.506,-3834.4732L14086.506,-3834.4732L14086.506,-3834.4732L14086.506,-3834.4732L14086.5061,-3834.4732L14086.5061,-3834.4733L14086.5062,-3834.4733L14086.5062,-3834.4733L14086.5063,-3834.4733L14086.5064,-3834.4733L14086.5069,-3834.4734L14086.5075,-3834.4735L14086.5077,-3834.4735L14086.5077,-3834.4735L14086.5078,-3834.4735L14086.5078,-3834.4736L14086.5079,-3834.4736L14086.508,-3834.4736L14086.508,-3834.4736L14086.508,-3834.4736L14086.5083,-3834.4736L14086.5083,-3834.4737L14086.5299,-3834.4776L14086.5326,-3834.478"/>
<path content="1,国際興業（株）,イーハトープ号,1.0,1.0,1.0," xlink:title="1" d="M14086.3953,-3834.4422L14086.3958,-3834.4424L14086.4208,-3834.4506L14086.4208,-3834.4506L14086.4208,-3834.4506L14086.4208,-3834.4506L14086.4555,-3834.4616L14086.4891,-3834.47L14086.5005,-3834.4722L14086.5028,-3834.4726L14086.5029,-3834.4726L14086.503,-3834.4727L14086.5031,-3834.4727L14086.5033,-3834.4727L14086.5041,-3834.4729L14086.5042,-3834.4729L14086.5043,-3834.4729L14086.5043,-3834.4729L14086.5043,-3834.4729L14086.5044,-3834.4729L14086.5049,-3834.473L14086.506,-3834.4732L14086.506,-3834.4732L14086.506,-3834.4732L14086.506,-3834.4732L14086.506,-3834.4732L14086.5061,-3834.4732L14086.5061,-3834.4733L14086.5062,-3834.4733L14086.5062,-3834.4733L14086.5063,-3834.4733L14086.5064,-3834.4733L14086.5069,-3834.4734L14086.5075,-3834.4735L14086.5077,-3834.4735L14086.5077,-3834.4735L14086.5078,-3834.4735L14086.5078,-3834.4736L14086.5079,-3834.4736L14086.508,-3834.4736L14086.508,-3834.4736L14086.508,-3834.4736L14086.5083,-3834.4736L14086.5083,-3834.4737L14086.5299,-3834.4776L14086.5326,-3834.478"/>
<path content="1,国際興業（株）,シリウス号,1.0,1.0,1.0," xlink:title="1" d="M14086.3953,-3834.4422L14086.3958,-3834.4424L14086.4208,-3834.4506L14086.4208,-3834.4506L14086.4208,-3834.4506L14086.4208,-3834.4506L14086.4555,-3834.4616L14086.4891,-3834.47L14086.5005,-3834.4722L14086.5028,-3834.4726L14086.5029,-3834.4726L14086.503,-3834.4727L14086.5031,-3834.4727L14086.5033,-3834.4727L14086.5041,-3834.4729L14086.5042,-3834.4729L14086.5043,-3834.4729L14086.5043,-3834.4729L14086.5043,-3834.4729L14086.5044,-3834.4729L14086.5049,-3834.473L14086.506,-3834.4732L14086.506,-3834.4732L14086.506,-3834.4732L14086.506,-3834.4732L14086.506,-3834.4732L14086.5061,-3834.4732L14086.5061,-3834.4733L14086.5062,-3834.4733L14086.5062,-3834.4733L14086.5063,-3834.4733L14086.5064,-3834.4733L14086.5069,-3834.4734L14086.5075,-3834.4735L14086.5077,-3834.4735L14086.5077,-3834.4735L14086.5078,-3834.4735L14086.5078,-3834.4736L14086.5079,-3834.4736L14086.508,-3834.4736L14086.508,-3834.4736L14086.508,-3834.4736L14086.5083,-3834.4736L14086.5083,-3834.4737L14086.5299,-3834.4776L14086.5326,-3834.478"/>
<path content="1,国際興業（株）,ジュピター号,1.0,1.0,1.0," xlink:title="1" d="M14086.3953,-3834.4422L14086.3958,-3834.4424L14086.4208,-3834.4506L14086.4208,-3834.4506L14086.4208,-3834.4506L14086.4208,-3834.4506L14086.4555,-3834.4616L14086.4891,-3834.47L14086.5005,-3834.4722L14086.5028,-3834.4726L14086.5029,-3834.4726L14086.503,-3834.4727L14086.5031,-3834.4727L14086.5033,-3834.4727L14086.5041,-3834.4729L14086.5042,-3834.4729L14086.5043,-3834.4729L14086.5043,-3834.4729L14086.5043,-3834.4729L14086.5044,-3834.4729L14086.5049,-3834.473L14086.506,-3834.4732L14086.506,-3834.4732L14086.506,-3834.4732L14086.506,-3834.4732L14086.506,-3834.4732L14086.5061,-3834.4732L14086.5061,-3834.4733L14086.5062,-3834.4733L14086.5062,-3834.4733L14086.5063,-3834.4733L14086.5064,-3834.4733L14086.5069,-3834.4734L14086.5075,-3834.4735L14086.5077,-3834.4735L14086.5077,-3834.4735L14086.5078,-3834.4735L14086.5078,-3834.4736L14086.5079,-3834.4736L14086.508,-3834.4736L14086.508,-3834.4736L14086.508,-3834.4736L14086.5083,-3834.4736L14086.5083,-3834.4737L14086.5299,-3834.4776L14086.5326,-3834.478"/>
<path content="1,国際興業（株）,ドリーム盛岡（らくちん）号,2.2,3.0,3.0," xlink:title="1" d="M14086.3953,-3834.4422L14086.3958,-3834.4424L14086.4208,-3834.4506L14086.4208,-3834.4506L14086.4208,-3834.4506L14086.4208,-3834.4506L14086.4555,-3834.4616L14086.4891,-3834.47L14086.5005,-3834.4722L14086.5028,-3834.4726L14086.5029,-3834.4726L14086.503,-3834.4727L14086.5031,-3834.4727L14086.5033,-3834.4727L14086.5041,-3834.4729L14086.5042,-3834.4729L14086.5043,-3834.4729L14086.5043,-3834.4729L14086.5043,-3834.4729L14086.5044,-3834.4729L14086.5049,-3834.473L14086.506,-3834.4732L14086.506,-3834.4732L14086.506,-3834.4732L14086.506,-3834.4732L14086.506,-3834.4732L14086.5061,-3834.4732L14086.5061,-3834.4733L14086.5062,-3834.4733L14086.5062,-3834.4733L14086.5063,-3834.4733L14086.5064,-3834.4733L14086.5069,-3834.4734L14086.5075,-3834.4735L14086.5077,-3834.4735L14086.5077,-3834.4735L14086.5078,-3834.4735L14086.5078,-3834.4736L14086.5079,-3834.4736L14086.508,-3834.4736L14086.508,-3834.4736L14086.508,-3834.4736L14086.5083,-3834.4736L14086.5083,-3834.4737L14086.5299,-3834.4776L14086.5326,-3834.478"/>
<path content="1,国際興業（株）,遠野・釜石号,1.0,1.0,1.0," xlink:title="1" d="M14086.3953,-3834.4422L14086.3958,-3834.4424L14086.4208,-3834.4506L14086.4208,-3834.4506L14086.4208,-3834.4506L14086.4208,-3834.4506L14086.4555,-3834.4616L14086.4891,-3834.47L14086.5005,-3834.4722L14086.5028,-3834.4726L14086.5029,-3834.4726L14086.503,-3834.4727L14086.5031,-3834.4727L14086.5033,-3834.4727L14086.5041,-3834.4729L14086.5042,-3834.4729L14086.5043,-3834.4729L14086.5043,-3834.4729L14086.5043,-3834.4729L14086.5044,-3834.4729L14086.5049,-3834.473L14086.506,-3834.4732L14086.506,-3834.4732L14086.506,-3834.4732L14086.506,-3834.4732L14086.506,-3834.4732L14086.5061,-3834.4732L14086.5061,-3834.4733L14086.5062,-3834.4733L14086.5062,-3834.4733L14086.5063,-3834.4733L14086.5064,-3834.4733L14086.5069,-3834.4734L14086.5075,-3834.4735L14086.5077,-3834.4735L14086.5077,-3834.4735L14086.5078,-3834.4735L14086.5078,-3834.4736L14086.5079,-3834.4736L14086.508,-3834.4736L14086.508,-3834.4736L14086.508,-3834.4736L14086.5083,-3834.4736L14086.5083,-3834.4737L14086.5299,-3834.4776L14086.5326,-3834.478"/>
<path content="1,宮城交通（株）,N21,8.0,7.0,7.0," xlink:title="1" d="M14086.5326,-3834.4409L14086.5138,-3834.4404L14086.5093,-3834.4397L14086.5035,-3834.438L14086.4951,-3834.4353L14086.456,-3834.421L14086.4753,-3834.3836L14086.4841,-3834.3658"/>
<path content="1,宮城交通（株）,うみねこ,1.0,1.0,1.0," xlink:title="1" d="M14086.3953,-3834.4422L14086.3958,-3834.4424L14086.4182,-3834.4498L14086.4184,-3834.4499L14086.4187,-3834.4499L14086.4208,-3834.4506L14086.4208,-3834.4506L14086.4208,-3834.4506L14086.4208,-3834.4506L14086.4209,-3834.4506L14086.4555,-3834.4616L14086.4555,-3834.4616L14086.4555,-3834.4616L14086.4556,-3834.4616L14086.4891,-3834.47L14086.4892,-3834.47L14086.4892,-3834.47L14086.4892,-3834.4701L14086.5005,-3834.4722L14086.5028,-3834.4726L14086.5029,-3834.4726L14086.503,-3834.4727L14086.5031,-3834.4727L14086.5033,-3834.4727L14086.5041,-3834.4729L14086.5042,-3834.4729L14086.5043,-3834.4729L14086.5043,-3834.4729L14086.5043,-3834.4729L14086.5044,-3834.4729L14086.5049,-3834.473L14086.506,-3834.4732L14086.506,-3834.4732L14086.506,-3834.4732L14086.506,-3834.4732L14086.506,-3834.4732L14086.5061,-3834.4732L14086.5061,-3834.4733L14086.5062,-3834.4733L14086.5062,-3834.4733L14086.5063,-3834.4733L14086.5064,-3834.4733L14086.5069,-3834.4734L14086.5075,-3834.4735L14086.5077,-3834.4735L14086.5077,-3834.4735L14086.5078,-3834.4735L14086.5078,-3834.4736L14086.5079,-3834.4736L14086.508,-3834.4736L14086.508,-3834.4736L14086.508,-3834.4736L14086.5083,-3834.4736L14086.5083,-3834.4737L14086.5099,-3834.474L14086.5298,-3834.4776L14086.5299,-3834.4776L14086.5299,-3834.4776L14086.5301,-3834.4776L14086.531,-3834.4778L14086.5326,-3834.478"/>
<path content="1,宮城交通（株）,アーバン,3.2,4.0,4.0," xlink:title="1" d="M14086.3953,-3834.4422L14086.3958,-3834.4424L14086.4182,-3834.4498L14086.4184,-3834.4499L14086.4187,-3834.4499L14086.4208,-3834.4506L14086.4208,-3834.4506L14086.4208,-3834.4506L14086.4208,-3834.4506L14086.4209,-3834.4506L14086.4555,-3834.4616L14086.4555,-3834.4616L14086.4555,-3834.4616L14086.4556,-3834.4616L14086.4891,-3834.47L14086.4892,-3834.47L14086.4892,-3834.47L14086.4892,-3834.4701L14086.5005,-3834.4722L14086.5028,-3834.4726L14086.5029,-3834.4726L14086.503,-3834.4727L14086.5031,-3834.4727L14086.5033,-3834.4727L14086.5041,-3834.4729L14086.5042,-3834.4729L14086.5043,-3834.4729L14086.5043,-3834.4729L14086.5043,-3834.4729L14086.5044,-3834.4729L14086.5049,-3834.473L14086.506,-3834.4732L14086.506,-3834.4732L14086.506,-3834.4732L14086.506,-3834.4732L14086.506,-3834.4732L14086.5061,-3834.4732L14086.5061,-3834.4733L14086.5062,-3834.4733L14086.5062,-3834.4733L14086.5063,-3834.4733L14086.5064,-3834.4733L14086.5069,-3834.4734L14086.5075,-3834.4735L14086.5077,-3834.4735L14086.5077,-3834.4735L14086.5078,-3834.4735L14086.5078,-3834.4736L14086.5079,-3834.4736L14086.508,-3834.4736L14086.508,-3834.4736L14086.508,-3834.4736L14086.5083,-3834.4736L14086.5083,-3834.4737L14086.5099,-3834.474L14086.5298,-3834.4776L14086.5299,-3834.4776L14086.5299,-3834.4776L14086.5301,-3834.4776L14086.531,-3834.4778L14086.5326,-3834.478"/>
<path content="1,宮城交通（株）,キャッスル,3.0,3.0,3.0," xlink:title="1" d="M14086.3953,-3834.4422L14086.3958,-3834.4424L14086.4182,-3834.4498L14086.4184,-3834.4499L14086.4187,-3834.4499L14086.4208,-3834.4506L14086.4208,-3834.4506L14086.4208,-3834.4506L14086.4208,-3834.4506L14086.4209,-3834.4506L14086.4555,-3834.4616L14086.4555,-3834.4616L14086.4555,-3834.4616L14086.4556,-3834.4616L14086.4891,-3834.47L14086.4892,-3834.47L14086.4892,-3834.47L14086.4892,-3834.4701L14086.5005,-3834.4722L14086.5028,-3834.4726L14086.5029,-3834.4726L14086.503,-3834.4727L14086.5031,-3834.4727L14086.5033,-3834.4727L14086.5041,-3834.4729L14086.5042,-3834.4729L14086.5043,-3834.4729L14086.5043,-3834.4729L14086.5043,-3834.4729L14086.5044,-3834.4729L14086.5049,-3834.473L14086.506,-3834.4732L14086.506,-3834.4732L14086.506,-3834.4732L14086.506,-3834.4732L14086.506,-3834.4732L14086.5061,-3834.4732L14086.5061,-3834.4733L14086.5062,-3834.4733L14086.5062,-3834.4733L14086.5063,-3834.4733L14086.5064,-3834.4733L14086.5069,-3834.4734L14086.5075,-3834.4735L14086.5077,-3834.4735L14086.5077,-3834.4735L14086.5078,-3834.4735L14086.5078,-3834.4736L14086.5079,-3834.4736L14086.508,-3834.4736L14086.508,-3834.4736L14086.508,-3834.4736L14086.5083,-3834.4736L14086.5083,-3834.4737L14086.5099,-3834.474L14086.5298,-3834.4776L14086.5299,-3834.4776L14086.5299,-3834.4776L14086.5301,-3834.4776L14086.531,-3834.4778L14086.5326,-3834.478"/>
<path content="1,宮城交通（株）,ブルーシティ,1.5,1.5,1.5," xlink:title="1" d="M14086.3953,-3834.4422L14086.3958,-3834.4424L14086.4182,-3834.4498L14086.4184,-3834.4499L14086.4187,-3834.4499L14086.4208,-3834.4506L14086.4208,-3834.4506L14086.4208,-3834.4506L14086.4208,-3834.4506L14086.4209,-3834.4506L14086.4555,-3834.4616L14086.4555,-3834.4616L14086.4555,-3834.4616L14086.4556,-3834.4616L14086.4891,-3834.47L14086.4892,-3834.47L14086.4892,-3834.47L14086.4892,-3834.4701L14086.5005,-3834.4722L14086.5028,-3834.4726L14086.5029,-3834.4726L14086.503,-3834.4727L14086.5031,-3834.4727L14086.5033,-3834.4727L14086.5041,-3834.4729L14086.5042,-3834.4729L14086.5043,-3834.4729L14086.5043,-3834.4729L14086.5043,-3834.4729L14086.5044,-3834.4729L14086.5049,-3834.473L14086.506,-3834.4732L14086.506,-3834.4732L14086.506,-3834.4732L14086.506,-3834.4732L14086.506,-3834.4732L14086.5061,-3834.4732L14086.5061,-3834.4733L14086.5062,-3834.4733L14086.5062,-3834.4733L14086.5063,-3834.4733L14086.5064,-3834.4733L14086.5069,-3834.4734L14086.5075,-3834.4735L14086.5077,-3834.4735L14086.5077,-3834.4735L14086.5078,-3834.4735L14086.5078,-3834.4736L14086.5079,-3834.4736L14086.508,-3834.4736L14086.508,-3834.4736L14086.508,-3834.4736L14086.5083,-3834.4736L14086.5083,-3834.4737L14086.5099,-3834.474L14086.5298,-3834.4776L14086.5299,-3834.4776L14086.5299,-3834.4776L14086.5301,-3834.4776L14086.531,-3834.4778L14086.5326,-3834.478"/>
<path content="1,宮城交通（株）,仙台～佐沼線,8.0,8.0,8.0," xlink:title="1" d="M14086.3953,-3834.4423L14086.3958,-3834.4426L14086.4182,-3834.4498L14086.4184,-3834.4499L14086.4187,-3834.4499L14086.4208,-3834.4506L14086.4208,-3834.4506L14086.4208,-3834.4506L14086.4208,-3834.4506L14086.4209,-3834.4506L14086.4555,-3834.4616L14086.4555,-3834.4616L14086.4891,-3834.47L14086.4892,-3834.47L14086.4892,-3834.47L14086.5005,-3834.4722L14086.5028,-3834.4726L14086.5029,-3834.4726L14086.503,-3834.4727L14086.5031,-3834.4727L14086.5033,-3834.4727L14086.5041,-3834.4729L14086.5042,-3834.4729L14086.5043,-3834.4729L14086.5043,-3834.4729L14086.5043,-3834.4729L14086.5044,-3834.4729L14086.5049,-3834.473L14086.506,-3834.4732L14086.506,-3834.4732L14086.506,-3834.4732L14086.506,-3834.4732L14086.506,-3834.4732L14086.5061,-3834.4732L14086.5061,-3834.4733L14086.5062,-3834.4733L14086.5062,-3834.4733L14086.5063,-3834.4733L14086.5064,-3834.4733L14086.5069,-3834.4734L14086.5075,-3834.4735L14086.5077,-3834.4735L14086.5077,-3834.4735L14086.5078,-3834.4735L14086.5078,-3834.4736L14086.5079,-3834.4736L14086.508,-3834.4736L14086.508,-3834.4736L14086.508,-3834.4736L14086.5083,-3834.4736L14086.5083,-3834.4737L14086.5099,-3834.474L14086.5299,-3834.4776L14086.531,-3834.4778L14086.5326,-3834.478"/>
<path content="1,宮城交通（株）,仙台～大船渡線,2.0,2.0,2.0," xlink:title="1" d="M14086.3953,-3834.4422L14086.3958,-3834.4424L14086.4208,-3834.4506L14086.4208,-3834.4506L14086.4208,-3834.4506L14086.4208,-3834.4506L14086.4555,-3834.4616L14086.4891,-3834.47L14086.5005,-3834.4722L14086.5028,-3834.4726L14086.5029,-3834.4726L14086.503,-3834.4727L14086.5031,-3834.4727L14086.5033,-3834.4727L14086.5041,-3834.4729L14086.5042,-3834.4729L14086.5043,-3834.4729L14086.5043,-3834.4729L14086.5043,-3834.4729L14086.5044,-3834.4729L14086.5049,-3834.473L14086.506,-3834.4732L14086.506,-3834.4732L14086.506,-3834.4732L14086.506,-3834.4732L14086.506,-3834.4732L14086.5061,-3834.4732L14086.5061,-3834.4733L14086.5062,-3834.4733L14086.5062,-3834.4733L14086.5063,-3834.4733L14086.5064,-3834.4733L14086.5069,-3834.4734L14086.5075,-3834.4735L14086.5077,-3834.4735L14086.5077,-3834.4735L14086.5078,-3834.4735L14086.5078,-3834.4736L14086.5079,-3834.4736L14086.508,-3834.4736L14086.508,-3834.4736L14086.508,-3834.4736L14086.5083,-3834.4736L14086.5083,-3834.4737L14086.5299,-3834.4776L14086.5326,-3834.478"/>
<path content="1,宮城交通（株）,仙台～大衡線,6.0,6.0,6.0," xlink:title="1" d="M14086.3953,-3834.4423L14086.3958,-3834.4426L14086.4182,-3834.4498L14086.4184,-3834.4499L14086.4187,-3834.4499L14086.4208,-3834.4506L14086.4208,-3834.4506L14086.4208,-3834.4506L14086.4208,-3834.4506L14086.4209,-3834.4506L14086.4555,-3834.4616L14086.4555,-3834.4616L14086.4555,-3834.4616L14086.4556,-3834.4616L14086.4891,-3834.47L14086.4892,-3834.47L14086.4892,-3834.47L14086.4892,-3834.4701L14086.5005,-3834.4722L14086.5028,-3834.4726L14086.5029,-3834.4726L14086.503,-3834.4727L14086.5031,-3834.4727L14086.5033,-3834.4727L14086.5041,-3834.4729L14086.5042,-3834.4729L14086.5043,-3834.4729L14086.5043,-3834.4729L14086.5043,-3834.4729L14086.5044,-3834.4729L14086.5049,-3834.473L14086.506,-3834.4732L14086.506,-3834.4732L14086.506,-3834.4732L14086.506,-3834.4732L14086.506,-3834.4732L14086.5061,-3834.4732L14086.5061,-3834.4733L14086.5062,-3834.4733L14086.5062,-3834.4733L14086.5063,-3834.4733L14086.5064,-3834.4733L14086.5069,-3834.4734L14086.5075,-3834.4735L14086.5077,-3834.4735L14086.5077,-3834.4735L14086.5078,-3834.4735L14086.5078,-3834.4736L14086.5079,-3834.4736L14086.508,-3834.4736L14086.508,-3834.4736L14086.508,-3834.4736L14086.5083,-3834.4736L14086.5083,-3834.4737L14086.5099,-3834.474L14086.5298,-3834.4776L14086.5299,-3834.4776L14086.5299,-3834.4776L14086.5301,-3834.4776L14086.531,-3834.4778L14086.5326,-3834.478"/>
<path content="1,宮城交通（株）,仙台～栗駒線,2.0,2.0,2.0," xlink:title="1" d="M14086.3953,-3834.4423L14086.3958,-3834.4426L14086.4182,-3834.4498L14086.4184,-3834.4499L14086.4187,-3834.4499L14086.4208,-3834.4506L14086.4208,-3834.4506L14086.4208,-3834.4506L14086.4208,-3834.4506L14086.4209,-3834.4506L14086.4555,-3834.4616L14086.4555,-3834.4616L14086.4555,-3834.4616L14086.4891,-3834.47L14086.4892,-3834.47L14086.4892,-3834.47L14086.5005,-3834.4722L14086.5028,-3834.4726L14086.5029,-3834.4726L14086.503,-3834.4727L14086.5031,-3834.4727L14086.5033,-3834.4727L14086.5041,-3834.4729L14086.5042,-3834.4729L14086.5043,-3834.4729L14086.5043,-3834.4729L14086.5043,-3834.4729L14086.5044,-3834.4729L14086.5049,-3834.473L14086.506,-3834.4732L14086.506,-3834.4732L14086.506,-3834.4732L14086.506,-3834.4732L14086.506,-3834.4732L14086.5061,-3834.4732L14086.5061,-3834.4733L14086.5062,-3834.4733L14086.5062,-3834.4733L14086.5063,-3834.4733L14086.5064,-3834.4733L14086.5069,-3834.4734L14086.5075,-3834.4735L14086.5077,-3834.4735L14086.5077,-3834.4735L14086.5078,-3834.4735L14086.5078,-3834.4736L14086.5079,-3834.4736L14086.508,-3834.4736L14086.508,-3834.4736L14086.508,-3834.4736L14086.5083,-3834.4736L14086.5083,-3834.4737L14086.5099,-3834.474L14086.5299,-3834.4776L14086.531,-3834.4778L14086.5326,-3834.478"/>
<path content="1,宮城交通（株）,仙台～気仙沼線,3.0,3.0,3.0," xlink:title="1" d="M14086.3953,-3834.4423L14086.3958,-3834.4426L14086.4182,-3834.4498L14086.4184,-3834.4499L14086.4187,-3834.4499L14086.4208,-3834.4506L14086.4208,-3834.4506L14086.4208,-3834.4506L14086.4208,-3834.4506L14086.4209,-3834.4506L14086.4555,-3834.4616L14086.4555,-3834.4616L14086.4555,-3834.4616L14086.4556,-3834.4616L14086.4891,-3834.47L14086.4892,-3834.47L14086.4892,-3834.47L14086.4892,-3834.4701L14086.5005,-3834.4722L14086.5028,-3834.4726L14086.5029,-3834.4726L14086.503,-3834.4727L14086.5031,-3834.4727L14086.5033,-3834.4727L14086.5041,-3834.4729L14086.5042,-3834.4729L14086.5043,-3834.4729L14086.5043,-3834.4729L14086.5043,-3834.4729L14086.5044,-3834.4729L14086.5049,-3834.473L14086.506,-3834.4732L14086.506,-3834.4732L14086.506,-3834.4732L14086.506,-3834.4732L14086.506,-3834.4732L14086.5061,-3834.4732L14086.5061,-3834.4733L14086.5062,-3834.4733L14086.5062,-3834.4733L14086.5063,-3834.4733L14086.5064,-3834.4733L14086.5069,-3834.4734L14086.5075,-3834.4735L14086.5077,-3834.4735L14086.5077,-3834.4735L14086.5078,-3834.4735L14086.5078,-3834.4736L14086.5079,-3834.4736L14086.508,-3834.4736L14086.508,-3834.4736L14086.508,-3834.4736L14086.5083,-3834.4736L14086.5083,-3834.4737L14086.5099,-3834.474L14086.5298,-3834.4776L14086.5299,-3834.4776L14086.5299,-3834.4776L14086.5301,-3834.4776L14086.531,-3834.4778L14086.5326,-3834.478"/>
<path content="1,宮城交通（株）,仙台～釜石線,1.0,1.0,1.0," xlink:title="1" d="M14086.3953,-3834.4422L14086.3958,-3834.4424L14086.4182,-3834.4498L14086.4184,-3834.4499L14086.4187,-3834.4499L14086.4208,-3834.4506L14086.4208,-3834.4506L14086.4208,-3834.4506L14086.4208,-3834.4506L14086.4209,-3834.4506L14086.4555,-3834.4616L14086.4555,-3834.4616L14086.4555,-3834.4616L14086.4556,-3834.4616L14086.4891,-3834.47L14086.4892,-3834.47L14086.4892,-3834.47L14086.4892,-3834.4701L14086.5005,-3834.4722L14086.5028,-3834.4726L14086.5029,-3834.4726L14086.503,-3834.4727L14086.5031,-3834.4727L14086.5033,-3834.4727L14086.5041,-3834.4729L14086.5042,-3834.4729L14086.5043,-3834.4729L14086.5043,-3834.4729L14086.5043,-3834.4729L14086.5044,-3834.4729L14086.5049,-3834.473L14086.506,-3834.4732L14086.506,-3834.4732L14086.506,-3834.4732L14086.506,-3834.4732L14086.506,-3834.4732L14086.5061,-3834.4732L14086.5061,-3834.4733L14086.5062,-3834.4733L14086.5062,-3834.4733L14086.5063,-3834.4733L14086.5064,-3834.4733L14086.5069,-3834.4734L14086.5075,-3834.4735L14086.5077,-3834.4735L14086.5077,-3834.4735L14086.5078,-3834.4735L14086.5078,-3834.4736L14086.5079,-3834.4736L14086.508,-3834.4736L14086.508,-3834.4736L14086.508,-3834.4736L14086.5083,-3834.4736L14086.5083,-3834.4737L14086.5099,-3834.474L14086.5298,-3834.4776L14086.5299,-3834.4776L14086.5299,-3834.4776L14086.5301,-3834.4776L14086.531,-3834.4778L14086.5326,-3834.478"/>
<path content="1,宮城交通（株）,仙台～鳴子線,3.5,3.5,3.5," xlink:title="1" d="M14086.3953,-3834.4423L14086.3958,-3834.4426L14086.4182,-3834.4498L14086.4184,-3834.4499L14086.4187,-3834.4499L14086.4208,-3834.4506L14086.4208,-3834.4506L14086.4208,-3834.4506L14086.4208,-3834.4506L14086.4209,-3834.4506L14086.4555,-3834.4616L14086.4555,-3834.4616L14086.4555,-3834.4616L14086.4556,-3834.4616L14086.4891,-3834.47L14086.4892,-3834.47L14086.4892,-3834.47L14086.4892,-3834.4701L14086.5005,-3834.4722L14086.5028,-3834.4726L14086.5029,-3834.4726L14086.503,-3834.4727L14086.5031,-3834.4727L14086.5033,-3834.4727L14086.5041,-3834.4729L14086.5042,-3834.4729L14086.5043,-3834.4729L14086.5043,-3834.4729L14086.5043,-3834.4729L14086.5044,-3834.4729L14086.5049,-3834.473L14086.506,-3834.4732L14086.506,-3834.4732L14086.506,-3834.4732L14086.506,-3834.4732L14086.506,-3834.4732L14086.5061,-3834.4732L14086.5061,-3834.4733L14086.5062,-3834.4733L14086.5062,-3834.4733L14086.5063,-3834.4733L14086.5064,-3834.4733L14086.5069,-3834.4734L14086.5075,-3834.4735L14086.5077,-3834.4735L14086.5077,-3834.4735L14086.5078,-3834.4735L14086.5078,-3834.4736L14086.5079,-3834.4736L14086.508,-3834.4736L14086.508,-3834.4736L14086.508,-3834.4736L14086.5083,-3834.4736L14086.5083,-3834.4737L14086.5099,-3834.474L14086.5298,-3834.4776L14086.5299,-3834.4776L14086.5299,-3834.4776L14086.5301,-3834.4776L14086.531,-3834.4778L14086.5326,-3834.478"/>
<path content="1,宮城交通（株）,仙秋,4.0,4.0,4.0," xlink:title="1" d="M14086.3953,-3834.4422L14086.3958,-3834.4424L14086.4182,-3834.4498L14086.4184,-3834.4499L14086.4187,-3834.4499L14086.4208,-3834.4506L14086.4208,-3834.4506L14086.4208,-3834.4506L14086.4208,-3834.4506L14086.4209,-3834.4506L14086.4555,-3834.4616L14086.4555,-3834.4616L14086.4555,-3834.4616L14086.4556,-3834.4616L14086.4891,-3834.47L14086.4892,-3834.47L14086.4892,-3834.47L14086.4892,-3834.4701L14086.5005,-3834.4722L14086.5028,-3834.4726L14086.5029,-3834.4726L14086.503,-3834.4727L14086.5031,-3834.4727L14086.5033,-3834.4727L14086.5041,-3834.4729L14086.5042,-3834.4729L14086.5043,-3834.4729L14086.5043,-3834.4729L14086.5043,-3834.4729L14086.5044,-3834.4729L14086.5049,-3834.473L14086.506,-3834.4732L14086.506,-3834.4732L14086.506,-3834.4732L14086.506,-3834.4732L14086.506,-3834.4732L14086.5061,-3834.4732L14086.5061,-3834.4733L14086.5062,-3834.4733L14086.5062,-3834.4733L14086.5063,-3834.4733L14086.5064,-3834.4733L14086.5069,-3834.4734L14086.5075,-3834.4735L14086.5077,-3834.4735L14086.5077,-3834.4735L14086.5078,-3834.4735L14086.5078,-3834.4736L14086.5079,-3834.4736L14086.508,-3834.4736L14086.508,-3834.4736L14086.508,-3834.4736L14086.5083,-3834.4736L14086.5083,-3834.4737L14086.5099,-3834.474L14086.5298,-3834.4776L14086.5299,-3834.4776L14086.5299,-3834.4776L14086.5301,-3834.4776L14086.531,-3834.4778L14086.5326,-3834.478"/>
<path content="1,宮城交通（株）,南三陸～仙台線,3.0,3.0,3.0," xlink:title="1" d="M14086.3953,-3834.4423L14086.3958,-3834.4426L14086.4182,-3834.4498L14086.4184,-3834.4499L14086.4187,-3834.4499L14086.4208,-3834.4506L14086.4208,-3834.4506L14086.4208,-3834.4506L14086.4208,-3834.4506L14086.4209,-3834.4506L14086.4555,-3834.4616L14086.4555,-3834.4616L14086.4891,-3834.47L14086.4892,-3834.47L14086.4892,-3834.47L14086.5005,-3834.4722L14086.5028,-3834.4726L14086.5029,-3834.4726L14086.503,-3834.4727L14086.5031,-3834.4727L14086.5033,-3834.4727L14086.5041,-3834.4729L14086.5042,-3834.4729L14086.5043,-3834.4729L14086.5043,-3834.4729L14086.5043,-3834.4729L14086.5044,-3834.4729L14086.5049,-3834.473L14086.506,-3834.4732L14086.506,-3834.4732L14086.506,-3834.4732L14086.506,-3834.4732L14086.506,-3834.4732L14086.5061,-3834.4732L14086.5061,-3834.4733L14086.5062,-3834.4733L14086.5062,-3834.4733L14086.5063,-3834.4733L14086.5064,-3834.4733L14086.5069,-3834.4734L14086.5075,-3834.4735L14086.5077,-3834.4735L14086.5077,-3834.4735L14086.5078,-3834.4735L14086.5078,-3834.4736L14086.5079,-3834.4736L14086.508,-3834.4736L14086.508,-3834.4736L14086.508,-3834.4736L14086.5083,-3834.4736L14086.5083,-3834.4737L14086.5099,-3834.474L14086.5299,-3834.4776L14086.531,-3834.4778L14086.5326,-3834.478"/>
<path content="1,小田急シティバス（株）,フローラ号,1.0,1.0,1.0," xlink:title="1" d="M14086.3953,-3834.4422L14086.3958,-3834.4424L14086.4208,-3834.4506L14086.4208,-3834.4506L14086.4208,-3834.4506L14086.4208,-3834.4506L14086.4555,-3834.4616L14086.4891,-3834.47L14086.5005,-3834.4722L14086.5028,-3834.4726L14086.5029,-3834.4726L14086.503,-3834.4727L14086.5031,-3834.4727L14086.5033,-3834.4727L14086.5041,-3834.4729L14086.5042,-3834.4729L14086.5043,-3834.4729L14086.5043,-3834.4729L14086.5043,-3834.4729L14086.5044,-3834.4729L14086.5049,-3834.473L14086.506,-3834.4732L14086.506,-3834.4732L14086.506,-3834.4732L14086.506,-3834.4732L14086.506,-3834.4732L14086.5061,-3834.4732L14086.5061,-3834.4733L14086.5062,-3834.4733L14086.5062,-3834.4733L14086.5063,-3834.4733L14086.5064,-3834.4733L14086.5069,-3834.4734L14086.5075,-3834.4735L14086.5077,-3834.4735L14086.5077,-3834.4735L14086.5078,-3834.4735L14086.5078,-3834.4736L14086.5079,-3834.4736L14086.508,-3834.4736L14086.508,-3834.4736L14086.508,-3834.4736L14086.5083,-3834.4736L14086.5083,-3834.4737L14086.5299,-3834.4776L14086.5326,-3834.478"/>
<path content="1,小田急バス（株）,フローラ号,1.0,1.0,1.0," xlink:title="1" d="M14086.3953,-3834.4422L14086.3958,-3834.4424L14086.4208,-3834.4506L14086.4208,-3834.4506L14086.4208,-3834.4506L14086.4208,-3834.4506L14086.4555,-3834.4616L14086.4891,-3834.47L14086.5005,-3834.4722L14086.5028,-3834.4726L14086.5029,-3834.4726L14086.503,-3834.4727L14086.5031,-3834.4727L14086.5033,-3834.4727L14086.5041,-3834.4729L14086.5042,-3834.4729L14086.5043,-3834.4729L14086.5043,-3834.4729L14086.5043,-3834.4729L14086.5044,-3834.4729L14086.5049,-3834.473L14086.506,-3834.4732L14086.506,-3834.4732L14086.506,-3834.4732L14086.506,-3834.4732L14086.506,-3834.4732L14086.5061,-3834.4732L14086.5061,-3834.4733L14086.5062,-3834.4733L14086.5062,-3834.4733L14086.5063,-3834.4733L14086.5064,-3834.4733L14086.5069,-3834.4734L14086.5075,-3834.4735L14086.5077,-3834.4735L14086.5077,-3834.4735L14086.5078,-3834.4735L14086.5078,-3834.4736L14086.5079,-3834.4736L14086.508,-3834.4736L14086.508,-3834.4736L14086.508,-3834.4736L14086.5083,-3834.4736L14086.5083,-3834.4737L14086.5299,-3834.4776L14086.5326,-3834.478"/>
<path content="1,岩手急行バス（株）,一ノ関仙台線,19.0,19.0,19.0," xlink:title="1" d="M14086.3953,-3834.4423L14086.3958,-3834.4426L14086.4182,-3834.4498L14086.4184,-3834.4499L14086.4187,-3834.4499L14086.4208,-3834.4506L14086.4208,-3834.4506L14086.4208,-3834.4506L14086.4208,-3834.4506L14086.4209,-3834.4506L14086.4555,-3834.4616L14086.4555,-3834.4616L14086.4555,-3834.4616L14086.4556,-3834.4616L14086.4891,-3834.47L14086.4892,-3834.47L14086.4892,-3834.47L14086.4892,-3834.4701L14086.5005,-3834.4722L14086.5028,-3834.4726L14086.5029,-3834.4726L14086.503,-3834.4727L14086.5031,-3834.4727L14086.5033,-3834.4727L14086.5041,-3834.4729L14086.5042,-3834.4729L14086.5043,-3834.4729L14086.5043,-3834.4729L14086.5043,-3834.4729L14086.5044,-3834.4729L14086.5049,-3834.473L14086.506,-3834.4732L14086.506,-3834.4732L14086.506,-3834.4732L14086.506,-3834.4732L14086.506,-3834.4732L14086.5061,-3834.4732L14086.5061,-3834.4733L14086.5062,-3834.4733L14086.5062,-3834.4733L14086.5063,-3834.4733L14086.5064,-3834.4733L14086.5069,-3834.4734L14086.5075,-3834.4735L14086.5077,-3834.4735L14086.5077,-3834.4735L14086.5078,-3834.4735L14086.5078,-3834.4736L14086.5079,-3834.4736L14086.508,-3834.4736L14086.508,-3834.4736L14086.508,-3834.4736L14086.5083,-3834.4736L14086.5083,-3834.4737L14086.5099,-3834.474L14086.5298,-3834.4776L14086.5299,-3834.4776L14086.5299,-3834.4776L14086.5301,-3834.4776L14086.531,-3834.4778L14086.5326,-3834.478"/>
<path content="1,岩手県交通（株）,けせんライナー,1.0,1.0,1.0," xlink:title="1" d="M14086.3953,-3834.4422L14086.3958,-3834.4424L14086.4208,-3834.4506L14086.4208,-3834.4506L14086.4208,-3834.4506L14086.4208,-3834.4506L14086.4555,-3834.4616L14086.4891,-3834.47L14086.5005,-3834.4722L14086.5028,-3834.4726L14086.5029,-3834.4726L14086.503,-3834.4727L14086.5031,-3834.4727L14086.5033,-3834.4727L14086.5041,-3834.4729L14086.5042,-3834.4729L14086.5043,-3834.4729L14086.5043,-3834.4729L14086.5043,-3834.4729L14086.5044,-3834.4729L14086.5049,-3834.473L14086.506,-3834.4732L14086.506,-3834.4732L14086.506,-3834.4732L14086.506,-3834.4732L14086.506,-3834.4732L14086.5061,-3834.4732L14086.5061,-3834.4733L14086.5062,-3834.4733L14086.5062,-3834.4733L14086.5063,-3834.4733L14086.5064,-3834.4733L14086.5069,-3834.4734L14086.5075,-3834.4735L14086.5077,-3834.4735L14086.5077,-3834.4735L14086.5078,-3834.4735L14086.5078,-3834.4736L14086.5079,-3834.4736L14086.508,-3834.4736L14086.508,-3834.4736L14086.508,-3834.4736L14086.5083,-3834.4736L14086.5083,-3834.4737L14086.5299,-3834.4776L14086.5326,-3834.478"/>
<path content="1,岩手県交通（株）,けんじライナー,2.0,2.0,2.0," xlink:title="1" d="M14086.3953,-3834.4423L14086.3958,-3834.4426L14086.4182,-3834.4498L14086.4184,-3834.4499L14086.4187,-3834.4499L14086.4208,-3834.4506L14086.4208,-3834.4506L14086.4208,-3834.4506L14086.4208,-3834.4506L14086.4209,-3834.4506L14086.4555,-3834.4616L14086.4555,-3834.4616L14086.4555,-3834.4616L14086.4556,-3834.4616L14086.4891,-3834.47L14086.4892,-3834.47L14086.4892,-3834.47L14086.4892,-3834.4701L14086.5005,-3834.4722L14086.5028,-3834.4726L14086.5029,-3834.4726L14086.503,-3834.4727L14086.5031,-3834.4727L14086.5033,-3834.4727L14086.5041,-3834.4729L14086.5042,-3834.4729L14086.5043,-3834.4729L14086.5043,-3834.4729L14086.5043,-3834.4729L14086.5044,-3834.4729L14086.5049,-3834.473L14086.506,-3834.4732L14086.506,-3834.4732L14086.506,-3834.4732L14086.506,-3834.4732L14086.506,-3834.4732L14086.5061,-3834.4732L14086.5061,-3834.4733L14086.5062,-3834.4733L14086.5062,-3834.4733L14086.5063,-3834.4733L14086.5064,-3834.4733L14086.5069,-3834.4734L14086.5075,-3834.4735L14086.5077,-3834.4735L14086.5077,-3834.4735L14086.5078,-3834.4735L14086.5078,-3834.4736L14086.5079,-3834.4736L14086.508,-3834.4736L14086.508,-3834.4736L14086.508,-3834.4736L14086.5083,-3834.4736L14086.5083,-3834.4737L14086.5099,-3834.474L14086.5298,-3834.4776L14086.5299,-3834.4776L14086.5299,-3834.4776L14086.5301,-3834.4776L14086.531,-3834.4778L14086.5326,-3834.478"/>
<path content="1,岩手県交通（株）,アーバン号,3.2,4.0,4.0," xlink:title="1" d="M14086.3953,-3834.4423L14086.3958,-3834.4426L14086.4182,-3834.4498L14086.4184,-3834.4499L14086.4187,-3834.4499L14086.4208,-3834.4506L14086.4208,-3834.4506L14086.4208,-3834.4506L14086.4208,-3834.4506L14086.4209,-3834.4506L14086.4555,-3834.4616L14086.4555,-3834.4616L14086.4555,-3834.4616L14086.4556,-3834.4616L14086.4891,-3834.47L14086.4892,-3834.47L14086.4892,-3834.47L14086.4892,-3834.4701L14086.5005,-3834.4722L14086.5028,-3834.4726L14086.5029,-3834.4726L14086.503,-3834.4727L14086.5031,-3834.4727L14086.5033,-3834.4727L14086.5041,-3834.4729L14086.5042,-3834.4729L14086.5043,-3834.4729L14086.5043,-3834.4729L14086.5043,-3834.4729L14086.5044,-3834.4729L14086.5049,-3834.473L14086.506,-3834.4732L14086.506,-3834.4732L14086.506,-3834.4732L14086.506,-3834.4732L14086.506,-3834.4732L14086.5061,-3834.4732L14086.5061,-3834.4733L14086.5062,-3834.4733L14086.5062,-3834.4733L14086.5063,-3834.4733L14086.5064,-3834.4733L14086.5069,-3834.4734L14086.5075,-3834.4735L14086.5077,-3834.4735L14086.5077,-3834.4735L14086.5078,-3834.4735L14086.5078,-3834.4736L14086.5079,-3834.4736L14086.508,-3834.4736L14086.508,-3834.4736L14086.508,-3834.4736L14086.5083,-3834.4736L14086.5083,-3834.4737L14086.5099,-3834.474L14086.5298,-3834.4776L14086.5299,-3834.4776L14086.5299,-3834.4776L14086.5301,-3834.4776L14086.531,-3834.4778L14086.5326,-3834.478"/>
<path content="1,岩手県交通（株）,イーハトーブ号,1.0,1.0,1.0," xlink:title="1" d="M14086.3953,-3834.4422L14086.3958,-3834.4424L14086.4208,-3834.4506L14086.4208,-3834.4506L14086.4208,-3834.4506L14086.4208,-3834.4506L14086.4555,-3834.4616L14086.4891,-3834.47L14086.5005,-3834.4722L14086.5028,-3834.4726L14086.5029,-3834.4726L14086.503,-3834.4727L14086.5031,-3834.4727L14086.5033,-3834.4727L14086.5041,-3834.4729L14086.5042,-3834.4729L14086.5043,-3834.4729L14086.5043,-3834.4729L14086.5043,-3834.4729L14086.5044,-3834.4729L14086.5049,-3834.473L14086.506,-3834.4732L14086.506,-3834.4732L14086.506,-3834.4732L14086.506,-3834.4732L14086.506,-3834.4732L14086.5061,-3834.4732L14086.5061,-3834.4733L14086.5062,-3834.4733L14086.5062,-3834.4733L14086.5063,-3834.4733L14086.5064,-3834.4733L14086.5069,-3834.4734L14086.5075,-3834.4735L14086.5077,-3834.4735L14086.5077,-3834.4735L14086.5078,-3834.4735L14086.5078,-3834.4736L14086.5079,-3834.4736L14086.508,-3834.4736L14086.508,-3834.4736L14086.508,-3834.4736L14086.5083,-3834.4736L14086.5083,-3834.4737L14086.5299,-3834.4776L14086.5326,-3834.478"/>
<path content="1,岩手県交通（株）,ドリーム盛岡（らくちん）号,2.3,3.0,3.0," xlink:title="1" d="M14086.3953,-3834.4422L14086.3958,-3834.4424L14086.4208,-3834.4506L14086.4208,-3834.4506L14086.4208,-3834.4506L14086.4208,-3834.4506L14086.4555,-3834.4616L14086.4891,-3834.47L14086.5005,-3834.4722L14086.5028,-3834.4726L14086.5029,-3834.4726L14086.503,-3834.4727L14086.5031,-3834.4727L14086.5033,-3834.4727L14086.5041,-3834.4729L14086.5042,-3834.4729L14086.5043,-3834.4729L14086.5043,-3834.4729L14086.5043,-3834.4729L14086.5044,-3834.4729L14086.5049,-3834.473L14086.506,-3834.4732L14086.506,-3834.4732L14086.506,-3834.4732L14086.506,-3834.4732L14086.506,-3834.4732L14086.5061,-3834.4732L14086.5061,-3834.4733L14086.5062,-3834.4733L14086.5062,-3834.4733L14086.5063,-3834.4733L14086.5064,-3834.4733L14086.5069,-3834.4734L14086.5075,-3834.4735L14086.5077,-3834.4735L14086.5077,-3834.4735L14086.5078,-3834.4735L14086.5078,-3834.4736L14086.5079,-3834.4736L14086.508,-3834.4736L14086.508,-3834.4736L14086.508,-3834.4736L14086.5083,-3834.4736L14086.5083,-3834.4737L14086.5299,-3834.4776L14086.5326,-3834.478"/>
<path content="1,岩手県交通（株）,一関・仙台線,0.5,0.5,0.5," xlink:title="1" d="M14086.5326,-3834.478L14086.531,-3834.4778L14086.5301,-3834.4776L14086.5299,-3834.4776L14086.5299,-3834.4776L14086.5298,-3834.4776L14086.5099,-3834.474L14086.5083,-3834.4737L14086.5083,-3834.4736L14086.508,-3834.4736L14086.508,-3834.4736L14086.508,-3834.4736L14086.5079,-3834.4736L14086.5078,-3834.4736L14086.5078,-3834.4735L14086.5077,-3834.4735L14086.5077,-3834.4735L14086.5075,-3834.4735L14086.5069,-3834.4734L14086.5064,-3834.4733L14086.5063,-3834.4733L14086.5062,-3834.4733L14086.5062,-3834.4733L14086.5061,-3834.4733L14086.5061,-3834.4732L14086.506,-3834.4732L14086.506,-3834.4732L14086.506,-3834.4732L14086.506,-3834.4732L14086.506,-3834.4732L14086.5049,-3834.473L14086.5044,-3834.4729L14086.5043,-3834.4729L14086.5043,-3834.4729L14086.5043,-3834.4729L14086.5042,-3834.4729L14086.5041,-3834.4729L14086.5033,-3834.4727L14086.5031,-3834.4727L14086.503,-3834.4727L14086.5029,-3834.4726L14086.5028,-3834.4726L14086.5005,-3834.4722L14086.4892,-3834.4701L14086.4892,-3834.47L14086.4892,-3834.47L14086.4891,-3834.47L14086.4556,-3834.4616L14086.4555,-3834.4616L14086.4555,-3834.4616L14086.4555,-3834.4616L14086.4209,-3834.4506L14086.4208,-3834.4506L14086.4208,-3834.4506L14086.4208,-3834.4506L14086.4208,-3834.4506L14086.4187,-3834.4499L14086.4184,-3834.4499L14086.4182,-3834.4498L14086.3958,-3834.4426L14086.3953,-3834.4423"/>
<path content="1,岩手県交通（株）,大船渡・仙台線,2.0,2.0,2.0," xlink:title="1" d="M14086.5326,-3834.478L14086.531,-3834.4778L14086.5301,-3834.4776L14086.5299,-3834.4776L14086.5299,-3834.4776L14086.5298,-3834.4776L14086.5099,-3834.474L14086.5083,-3834.4737L14086.5083,-3834.4736L14086.508,-3834.4736L14086.508,-3834.4736L14086.508,-3834.4736L14086.5079,-3834.4736L14086.5078,-3834.4736L14086.5078,-3834.4735L14086.5077,-3834.4735L14086.5077,-3834.4735L14086.5075,-3834.4735L14086.5069,-3834.4734L14086.5064,-3834.4733L14086.5063,-3834.4733L14086.5062,-3834.4733L14086.5062,-3834.4733L14086.5061,-3834.4733L14086.5061,-3834.4732L14086.506,-3834.4732L14086.506,-3834.4732L14086.506,-3834.4732L14086.506,-3834.4732L14086.506,-3834.4732L14086.5049,-3834.473L14086.5044,-3834.4729L14086.5043,-3834.4729L14086.5043,-3834.4729L14086.5043,-3834.4729L14086.5042,-3834.4729L14086.5041,-3834.4729L14086.5033,-3834.4727L14086.5031,-3834.4727L14086.503,-3834.4727L14086.5029,-3834.4726L14086.5028,-3834.4726L14086.5005,-3834.4722L14086.4892,-3834.4701L14086.4892,-3834.47L14086.4892,-3834.47L14086.4891,-3834.47L14086.4556,-3834.4616L14086.4555,-3834.4616L14086.4555,-3834.4616L14086.4555,-3834.4616L14086.4209,-3834.4506L14086.4208,-3834.4506L14086.4208,-3834.4506L14086.4208,-3834.4506L14086.4208,-3834.4506L14086.4187,-3834.4499L14086.4184,-3834.4499L14086.4182,-3834.4498L14086.3958,-3834.4426L14086.3953,-3834.4423"/>
<path content="1,岩手県交通（株）,平泉中尊寺号,0.5,0.5,0.5," xlink:title="1" d="M14086.3953,-3834.4423L14086.3958,-3834.4426L14086.4182,-3834.4498L14086.4184,-3834.4499L14086.4187,-3834.4499L14086.4208,-3834.4506L14086.4208,-3834.4506L14086.4208,-3834.4506L14086.4208,-3834.4506L14086.4209,-3834.4506L14086.4555,-3834.4616L14086.4555,-3834.4616L14086.4555,-3834.4616L14086.4556,-3834.4616L14086.4891,-3834.47L14086.4892,-3834.47L14086.4892,-3834.47L14086.4892,-3834.4701L14086.5005,-3834.4722L14086.5028,-3834.4726L14086.5029,-3834.4726L14086.503,-3834.4727L14086.5031,-3834.4727L14086.5033,-3834.4727L14086.5041,-3834.4729L14086.5042,-3834.4729L14086.5043,-3834.4729L14086.5043,-3834.4729L14086.5043,-3834.4729L14086.5044,-3834.4729L14086.5049,-3834.473L14086.506,-3834.4732L14086.506,-3834.4732L14086.506,-3834.4732L14086.506,-3834.4732L14086.506,-3834.4732L14086.5061,-3834.4732L14086.5061,-3834.4733L14086.5062,-3834.4733L14086.5062,-3834.4733L14086.5063,-3834.4733L14086.5064,-3834.4733L14086.5069,-3834.4734L14086.5075,-3834.4735L14086.5077,-3834.4735L14086.5077,-3834.4735L14086.5078,-3834.4735L14086.5078,-3834.4736L14086.5079,-3834.4736L14086.508,-3834.4736L14086.508,-3834.4736L14086.508,-3834.4736L14086.5083,-3834.4736L14086.5083,-3834.4737L14086.5099,-3834.474L14086.5298,-3834.4776L14086.5299,-3834.4776L14086.5299,-3834.4776L14086.5301,-3834.4776L14086.531,-3834.4778L14086.5326,-3834.478"/>
<path content="1,岩手県交通（株）,江刺・仙台線,2.0,2.0,2.0," xlink:title="1" d="M14086.3953,-3834.4423L14086.3958,-3834.4426L14086.4182,-3834.4498L14086.4184,-3834.4499L14086.4187,-3834.4499L14086.4208,-3834.4506L14086.4208,-3834.4506L14086.4208,-3834.4506L14086.4208,-3834.4506L14086.4209,-3834.4506L14086.4555,-3834.4616L14086.4555,-3834.4616L14086.4555,-3834.4616L14086.4556,-3834.4616L14086.4891,-3834.47L14086.4892,-3834.47L14086.4892,-3834.47L14086.4892,-3834.4701L14086.5005,-3834.4722L14086.5028,-3834.4726L14086.5029,-3834.4726L14086.503,-3834.4727L14086.5031,-3834.4727L14086.5033,-3834.4727L14086.5041,-3834.4729L14086.5042,-3834.4729L14086.5043,-3834.4729L14086.5043,-3834.4729L14086.5043,-3834.4729L14086.5044,-3834.4729L14086.5049,-3834.473L14086.506,-3834.4732L14086.506,-3834.4732L14086.506,-3834.4732L14086.506,-3834.4732L14086.506,-3834.4732L14086.5061,-3834.4732L14086.5061,-3834.4733L14086.5062,-3834.4733L14086.5062,-3834.4733L14086.5063,-3834.4733L14086.5064,-3834.4733L14086.5069,-3834.4734L14086.5075,-3834.4735L14086.5077,-3834.4735L14086.5077,-3834.4735L14086.5078,-3834.4735L14086.5078,-3834.4736L14086.5079,-3834.4736L14086.508,-3834.4736L14086.508,-3834.4736L14086.508,-3834.4736L14086.5083,-3834.4736L14086.5083,-3834.4737L14086.5099,-3834.474L14086.5298,-3834.4776L14086.5299,-3834.4776L14086.5299,-3834.4776L14086.5301,-3834.4776L14086.531,-3834.4778L14086.5326,-3834.478"/>
<path content="1,岩手県交通（株）,盛岡・横浜線,1.0,1.0,1.0," xlink:title="1" d="M14086.3953,-3834.4422L14086.3958,-3834.4424L14086.4208,-3834.4506L14086.4208,-3834.4506L14086.4208,-3834.4506L14086.4208,-3834.4506L14086.4555,-3834.4616L14086.4891,-3834.47L14086.5005,-3834.4722L14086.5028,-3834.4726L14086.5029,-3834.4726L14086.503,-3834.4727L14086.5031,-3834.4727L14086.5033,-3834.4727L14086.5041,-3834.4729L14086.5042,-3834.4729L14086.5043,-3834.4729L14086.5043,-3834.4729L14086.5043,-3834.4729L14086.5044,-3834.4729L14086.5049,-3834.473L14086.506,-3834.4732L14086.506,-3834.4732L14086.506,-3834.4732L14086.506,-3834.4732L14086.506,-3834.4732L14086.5061,-3834.4732L14086.5061,-3834.4733L14086.5062,-3834.4733L14086.5062,-3834.4733L14086.5063,-3834.4733L14086.5064,-3834.4733L14086.5069,-3834.4734L14086.5075,-3834.4735L14086.5077,-3834.4735L14086.5077,-3834.4735L14086.5078,-3834.4735L14086.5078,-3834.4736L14086.5079,-3834.4736L14086.508,-3834.4736L14086.508,-3834.4736L14086.508,-3834.4736L14086.5083,-3834.4736L14086.5083,-3834.4737L14086.5299,-3834.4776L14086.5326,-3834.478"/>
<path content="1,岩手県交通（株）,遠野・釜石号,1.0,1.0,1.0," xlink:title="1" d="M14086.3953,-3834.4422L14086.3958,-3834.4424L14086.4208,-3834.4506L14086.4208,-3834.4506L14086.4208,-3834.4506L14086.4208,-3834.4506L14086.4555,-3834.4616L14086.4891,-3834.47L14086.5005,-3834.4722L14086.5028,-3834.4726L14086.5029,-3834.4726L14086.503,-3834.4727L14086.5031,-3834.4727L14086.5033,-3834.4727L14086.5041,-3834.4729L14086.5042,-3834.4729L14086.5043,-3834.4729L14086.5043,-3834.4729L14086.5043,-3834.4729L14086.5044,-3834.4729L14086.5049,-3834.473L14086.506,-3834.4732L14086.506,-3834.4732L14086.506,-3834.4732L14086.506,-3834.4732L14086.506,-3834.4732L14086.5061,-3834.4732L14086.5061,-3834.4733L14086.5062,-3834.4733L14086.5062,-3834.4733L14086.5063,-3834.4733L14086.5064,-3834.4733L14086.5069,-3834.4734L14086.5075,-3834.4735L14086.5077,-3834.4735L14086.5077,-3834.4735L14086.5078,-3834.4735L14086.5078,-3834.4736L14086.5079,-3834.4736L14086.508,-3834.4736L14086.508,-3834.4736L14086.508,-3834.4736L14086.5083,-3834.4736L14086.5083,-3834.4737L14086.5299,-3834.4776L14086.5326,-3834.478"/>
<path content="1,岩手県交通（株）,釜石・仙台線,1.0,1.0,1.0," xlink:title="1" d="M14086.5326,-3834.478L14086.531,-3834.4778L14086.5301,-3834.4776L14086.5299,-3834.4776L14086.5299,-3834.4776L14086.5298,-3834.4776L14086.5099,-3834.474L14086.5083,-3834.4737L14086.5083,-3834.4736L14086.508,-3834.4736L14086.508,-3834.4736L14086.508,-3834.4736L14086.5079,-3834.4736L14086.5078,-3834.4736L14086.5078,-3834.4735L14086.5077,-3834.4735L14086.5077,-3834.4735L14086.5075,-3834.4735L14086.5069,-3834.4734L14086.5064,-3834.4733L14086.5063,-3834.4733L14086.5062,-3834.4733L14086.5062,-3834.4733L14086.5061,-3834.4733L14086.5061,-3834.4732L14086.506,-3834.4732L14086.506,-3834.4732L14086.506,-3834.4732L14086.506,-3834.4732L14086.506,-3834.4732L14086.5049,-3834.473L14086.5044,-3834.4729L14086.5043,-3834.4729L14086.5043,-3834.4729L14086.5043,-3834.4729L14086.5042,-3834.4729L14086.5041,-3834.4729L14086.5033,-3834.4727L14086.5031,-3834.4727L14086.503,-3834.4727L14086.5029,-3834.4726L14086.5028,-3834.4726L14086.5005,-3834.4722L14086.4892,-3834.4701L14086.4892,-3834.47L14086.4892,-3834.47L14086.4891,-3834.47L14086.4556,-3834.4616L14086.4555,-3834.4616L14086.4555,-3834.4616L14086.4555,-3834.4616L14086.4209,-3834.4506L14086.4208,-3834.4506L14086.4208,-3834.4506L14086.4208,-3834.4506L14086.4208,-3834.4506L14086.4187,-3834.4499L14086.4184,-3834.4499L14086.4182,-3834.4498L14086.3958,-3834.4426L14086.3953,-3834.4423"/>
<path content="1,岩手県北自動車（株）,BEAM-1　宮古・盛岡南⇔浜松町・品川,1.0,1.0,1.0," xlink:title="1" d="M14086.3953,-3834.4422L14086.3958,-3834.4424L14086.4208,-3834.4506L14086.4208,-3834.4506L14086.4208,-3834.4506L14086.4208,-3834.4506L14086.4555,-3834.4616L14086.4891,-3834.47L14086.5005,-3834.4722L14086.5028,-3834.4726L14086.5029,-3834.4726L14086.503,-3834.4727L14086.5031,-3834.4727L14086.5033,-3834.4727L14086.5041,-3834.4729L14086.5042,-3834.4729L14086.5043,-3834.4729L14086.5043,-3834.4729L14086.5043,-3834.4729L14086.5044,-3834.4729L14086.5049,-3834.473L14086.506,-3834.4732L14086.506,-3834.4732L14086.506,-3834.4732L14086.506,-3834.4732L14086.506,-3834.4732L14086.5061,-3834.4732L14086.5061,-3834.4733L14086.5062,-3834.4733L14086.5062,-3834.4733L14086.5063,-3834.4733L14086.5064,-3834.4733L14086.5069,-3834.4734L14086.5075,-3834.4735L14086.5077,-3834.4735L14086.5077,-3834.4735L14086.5078,-3834.4735L14086.5078,-3834.4736L14086.5079,-3834.4736L14086.508,-3834.4736L14086.508,-3834.4736L14086.508,-3834.4736L14086.5083,-3834.4736L14086.5083,-3834.4737L14086.5299,-3834.4776L14086.5326,-3834.478"/>
<path content="1,岩手県北自動車（株）,アーバン号　盛岡⇔仙台,3.2,4.0,4.0," xlink:title="1" d="M14086.3953,-3834.4423L14086.3958,-3834.4426L14086.4182,-3834.4498L14086.4184,-3834.4499L14086.4187,-3834.4499L14086.4208,-3834.4506L14086.4208,-3834.4506L14086.4208,-3834.4506L14086.4208,-3834.4506L14086.4209,-3834.4506L14086.4555,-3834.4616L14086.4555,-3834.4616L14086.4555,-3834.4616L14086.4556,-3834.4616L14086.4891,-3834.47L14086.4892,-3834.47L14086.4892,-3834.47L14086.4892,-3834.4701L14086.5005,-3834.4722L14086.5028,-3834.4726L14086.5029,-3834.4726L14086.503,-3834.4727L14086.5031,-3834.4727L14086.5033,-3834.4727L14086.5041,-3834.4729L14086.5042,-3834.4729L14086.5043,-3834.4729L14086.5043,-3834.4729L14086.5043,-3834.4729L14086.5044,-3834.4729L14086.5049,-3834.473L14086.506,-3834.4732L14086.506,-3834.4732L14086.506,-3834.4732L14086.506,-3834.4732L14086.506,-3834.4732L14086.5061,-3834.4732L14086.5061,-3834.4733L14086.5062,-3834.4733L14086.5062,-3834.4733L14086.5063,-3834.4733L14086.5064,-3834.4733L14086.5069,-3834.4734L14086.5075,-3834.4735L14086.5077,-3834.4735L14086.5077,-3834.4735L14086.5078,-3834.4735L14086.5078,-3834.4736L14086.5079,-3834.4736L14086.508,-3834.4736L14086.508,-3834.4736L14086.508,-3834.4736L14086.5083,-3834.4736L14086.5083,-3834.4737L14086.5099,-3834.474L14086.5298,-3834.4776L14086.5299,-3834.4776L14086.5299,-3834.4776L14086.5301,-3834.4776L14086.531,-3834.4778L14086.5326,-3834.478"/>
<path content="1,弘南バス（株）,アップル号,1.0,1.0,1.0," xlink:title="1" d="M14086.5326,-3834.478L14086.5299,-3834.4776L14086.5083,-3834.4737L14086.5083,-3834.4736L14086.508,-3834.4736L14086.508,-3834.4736L14086.508,-3834.4736L14086.5079,-3834.4736L14086.5078,-3834.4736L14086.5078,-3834.4735L14086.5077,-3834.4735L14086.5077,-3834.4735L14086.5075,-3834.4735L14086.5069,-3834.4734L14086.5064,-3834.4733L14086.5063,-3834.4733L14086.5062,-3834.4733L14086.5062,-3834.4733L14086.5061,-3834.4733L14086.5061,-3834.4732L14086.506,-3834.4732L14086.506,-3834.4732L14086.506,-3834.4732L14086.506,-3834.4732L14086.506,-3834.4732L14086.5049,-3834.473L14086.5044,-3834.4729L14086.5043,-3834.4729L14086.5043,-3834.4729L14086.5043,-3834.4729L14086.5042,-3834.4729L14086.5041,-3834.4729L14086.5033,-3834.4727L14086.5031,-3834.4727L14086.503,-3834.4727L14086.5029,-3834.4726L14086.5028,-3834.4726L14086.5005,-3834.4722L14086.4891,-3834.47L14086.4555,-3834.4616L14086.4208,-3834.4506L14086.4208,-3834.4506L14086.4208,-3834.4506L14086.4208,-3834.4506L14086.3958,-3834.4424L14086.3953,-3834.4422"/>
<path content="1,弘南バス（株）,キャッスル号,6.0,6.0,6.0," xlink:title="1" d="M14086.5326,-3834.478L14086.531,-3834.4778L14086.5299,-3834.4776L14086.5099,-3834.474L14086.5083,-3834.4737L14086.5083,-3834.4736L14086.508,-3834.4736L14086.508,-3834.4736L14086.508,-3834.4736L14086.5079,-3834.4736L14086.5078,-3834.4736L14086.5078,-3834.4735L14086.5077,-3834.4735L14086.5077,-3834.4735L14086.5075,-3834.4735L14086.5069,-3834.4734L14086.5064,-3834.4733L14086.5063,-3834.4733L14086.5062,-3834.4733L14086.5062,-3834.4733L14086.5061,-3834.4733L14086.5061,-3834.4732L14086.506,-3834.4732L14086.506,-3834.4732L14086.506,-3834.4732L14086.506,-3834.4732L14086.506,-3834.4732L14086.5049,-3834.473L14086.5044,-3834.4729L14086.5043,-3834.4729L14086.5043,-3834.4729L14086.5043,-3834.4729L14086.5042,-3834.4729L14086.5041,-3834.4729L14086.5033,-3834.4727L14086.5031,-3834.4727L14086.503,-3834.4727L14086.5029,-3834.4726L14086.5028,-3834.4726L14086.5005,-3834.4722L14086.4892,-3834.47L14086.4892,-3834.47L14086.4891,-3834.47L14086.4555,-3834.4616L14086.4555,-3834.4616L14086.4555,-3834.4616L14086.4209,-3834.4506L14086.4208,-3834.4506L14086.4208,-3834.4506L14086.4208,-3834.4506L14086.4208,-3834.4506L14086.4187,-3834.4499L14086.4184,-3834.4499L14086.3958,-3834.4424L14086.3953,-3834.4422"/>
<path content="1,弘南バス（株）,スカイ号,1.0,1.0,1.0," xlink:title="1" d="M14086.5326,-3834.478L14086.5299,-3834.4776L14086.5083,-3834.4737L14086.5083,-3834.4736L14086.508,-3834.4736L14086.508,-3834.4736L14086.508,-3834.4736L14086.5079,-3834.4736L14086.5078,-3834.4736L14086.5078,-3834.4735L14086.5077,-3834.4735L14086.5077,-3834.4735L14086.5075,-3834.4735L14086.5069,-3834.4734L14086.5064,-3834.4733L14086.5063,-3834.4733L14086.5062,-3834.4733L14086.5062,-3834.4733L14086.5061,-3834.4733L14086.5061,-3834.4732L14086.506,-3834.4732L14086.506,-3834.4732L14086.506,-3834.4732L14086.506,-3834.4732L14086.506,-3834.4732L14086.5049,-3834.473L14086.5044,-3834.4729L14086.5043,-3834.4729L14086.5043,-3834.4729L14086.5043,-3834.4729L14086.5042,-3834.4729L14086.5041,-3834.4729L14086.5033,-3834.4727L14086.5031,-3834.4727L14086.503,-3834.4727L14086.5029,-3834.4726L14086.5028,-3834.4726L14086.5005,-3834.4722L14086.4891,-3834.47L14086.4555,-3834.4616L14086.4208,-3834.4506L14086.4208,-3834.4506L14086.4208,-3834.4506L14086.4208,-3834.4506L14086.3958,-3834.4424L14086.3953,-3834.4422"/>
<path content="1,弘南バス（株）,ノクターン号,1.0,1.0,1.0," xlink:title="1" d="M14086.5326,-3834.478L14086.5299,-3834.4776L14086.5083,-3834.4737L14086.5083,-3834.4736L14086.508,-3834.4736L14086.508,-3834.4736L14086.508,-3834.4736L14086.5079,-3834.4736L14086.5078,-3834.4736L14086.5078,-3834.4735L14086.5077,-3834.4735L14086.5077,-3834.4735L14086.5075,-3834.4735L14086.5069,-3834.4734L14086.5064,-3834.4733L14086.5063,-3834.4733L14086.5062,-3834.4733L14086.5062,-3834.4733L14086.5061,-3834.4733L14086.5061,-3834.4732L14086.506,-3834.4732L14086.506,-3834.4732L14086.506,-3834.4732L14086.506,-3834.4732L14086.506,-3834.4732L14086.5049,-3834.473L14086.5044,-3834.4729L14086.5043,-3834.4729L14086.5043,-3834.4729L14086.5043,-3834.4729L14086.5042,-3834.4729L14086.5041,-3834.4729L14086.5033,-3834.4727L14086.5031,-3834.4727L14086.503,-3834.4727L14086.5029,-3834.4726L14086.5028,-3834.4726L14086.5005,-3834.4722L14086.4891,-3834.47L14086.4555,-3834.4616L14086.4208,-3834.4506L14086.4208,-3834.4506L14086.4208,-3834.4506L14086.4208,-3834.4506L14086.3958,-3834.4424L14086.3953,-3834.4422"/>
<path content="1,弘南バス（株）,パンダ号,3.0,3.0,3.0," xlink:title="1" d="M14086.5326,-3834.478L14086.5299,-3834.4776L14086.5083,-3834.4737L14086.5083,-3834.4736L14086.508,-3834.4736L14086.508,-3834.4736L14086.508,-3834.4736L14086.5079,-3834.4736L14086.5078,-3834.4736L14086.5078,-3834.4735L14086.5077,-3834.4735L14086.5077,-3834.4735L14086.5075,-3834.4735L14086.5069,-3834.4734L14086.5064,-3834.4733L14086.5063,-3834.4733L14086.5062,-3834.4733L14086.5062,-3834.4733L14086.5061,-3834.4733L14086.5061,-3834.4732L14086.506,-3834.4732L14086.506,-3834.4732L14086.506,-3834.4732L14086.506,-3834.4732L14086.506,-3834.4732L14086.5049,-3834.473L14086.5044,-3834.4729L14086.5043,-3834.4729L14086.5043,-3834.4729L14086.5043,-3834.4729L14086.5042,-3834.4729L14086.5041,-3834.4729L14086.5033,-3834.4727L14086.5031,-3834.4727L14086.503,-3834.4727L14086.5029,-3834.4726L14086.5028,-3834.4726L14086.5005,-3834.4722L14086.4891,-3834.47L14086.4555,-3834.4616L14086.4208,-3834.4506L14086.4208,-3834.4506L14086.4208,-3834.4506L14086.4208,-3834.4506L14086.3958,-3834.4424L14086.3953,-3834.4422"/>
<path content="1,弘南バス（株）,ブルーシティー号,4.0,4.0,4.0," xlink:title="1" d="M14086.5326,-3834.478L14086.531,-3834.4778L14086.5301,-3834.4776L14086.5299,-3834.4776L14086.5299,-3834.4776L14086.5298,-3834.4776L14086.5099,-3834.474L14086.5083,-3834.4737L14086.5083,-3834.4736L14086.508,-3834.4736L14086.508,-3834.4736L14086.508,-3834.4736L14086.5079,-3834.4736L14086.5078,-3834.4736L14086.5078,-3834.4735L14086.5077,-3834.4735L14086.5077,-3834.4735L14086.5075,-3834.4735L14086.5069,-3834.4734L14086.5064,-3834.4733L14086.5063,-3834.4733L14086.5062,-3834.4733L14086.5062,-3834.4733L14086.5061,-3834.4733L14086.5061,-3834.4732L14086.506,-3834.4732L14086.506,-3834.4732L14086.506,-3834.4732L14086.506,-3834.4732L14086.506,-3834.4732L14086.5049,-3834.473L14086.5044,-3834.4729L14086.5043,-3834.4729L14086.5043,-3834.4729L14086.5043,-3834.4729L14086.5042,-3834.4729L14086.5041,-3834.4729L14086.5033,-3834.4727L14086.5031,-3834.4727L14086.503,-3834.4727L14086.5029,-3834.4726L14086.5028,-3834.4726L14086.5005,-3834.4722L14086.4892,-3834.4701L14086.4892,-3834.47L14086.4892,-3834.47L14086.4891,-3834.47L14086.4556,-3834.4616L14086.4555,-3834.4616L14086.4555,-3834.4616L14086.4555,-3834.4616L14086.4209,-3834.4506L14086.4208,-3834.4506L14086.4208,-3834.4506L14086.4208,-3834.4506L14086.4208,-3834.4506L14086.4187,-3834.4499L14086.4184,-3834.4499L14086.4182,-3834.4498L14086.3958,-3834.4424L14086.3953,-3834.4422"/>
<path content="1,弘南バス（株）,津軽号,1.0,1.0,1.0," xlink:title="1" d="M14086.3953,-3834.4422L14086.3958,-3834.4424L14086.4208,-3834.4506L14086.4208,-3834.4506L14086.4208,-3834.4506L14086.4208,-3834.4506L14086.4555,-3834.4616L14086.4891,-3834.47L14086.5005,-3834.4722L14086.5028,-3834.4726L14086.5029,-3834.4726L14086.503,-3834.4727L14086.5031,-3834.4727L14086.5033,-3834.4727L14086.5041,-3834.4729L14086.5042,-3834.4729L14086.5043,-3834.4729L14086.5043,-3834.4729L14086.5043,-3834.4729L14086.5044,-3834.4729L14086.5049,-3834.473L14086.506,-3834.4732L14086.506,-3834.4732L14086.506,-3834.4732L14086.506,-3834.4732L14086.506,-3834.4732L14086.5061,-3834.4732L14086.5061,-3834.4733L14086.5062,-3834.4733L14086.5062,-3834.4733L14086.5063,-3834.4733L14086.5064,-3834.4733L14086.5069,-3834.4734L14086.5075,-3834.4735L14086.5077,-3834.4735L14086.5077,-3834.4735L14086.5078,-3834.4735L14086.5078,-3834.4736L14086.5079,-3834.4736L14086.508,-3834.4736L14086.508,-3834.4736L14086.508,-3834.4736L14086.5083,-3834.4736L14086.5083,-3834.4737L14086.5299,-3834.4776L14086.5326,-3834.478"/>
<path content="1,東日本急行（株）,とよま総合支所～仙台線,6.0,6.0,6.0," xlink:title="1" d="M14086.3953,-3834.4423L14086.3958,-3834.4426L14086.4182,-3834.4498L14086.4184,-3834.4499L14086.4187,-3834.4499L14086.4208,-3834.4506L14086.4208,-3834.4506L14086.4208,-3834.4506L14086.4208,-3834.4506L14086.4209,-3834.4506L14086.4555,-3834.4616L14086.4555,-3834.4616L14086.4891,-3834.47L14086.4892,-3834.47L14086.4892,-3834.47L14086.5005,-3834.4722L14086.5028,-3834.4726L14086.5029,-3834.4726L14086.503,-3834.4727L14086.5031,-3834.4727L14086.5033,-3834.4727L14086.5041,-3834.4729L14086.5042,-3834.4729L14086.5043,-3834.4729L14086.5043,-3834.4729L14086.5043,-3834.4729L14086.5044,-3834.4729L14086.5049,-3834.473L14086.506,-3834.4732L14086.506,-3834.4732L14086.506,-3834.4732L14086.506,-3834.4732L14086.506,-3834.4732L14086.5061,-3834.4732L14086.5061,-3834.4733L14086.5062,-3834.4733L14086.5062,-3834.4733L14086.5063,-3834.4733L14086.5064,-3834.4733L14086.5069,-3834.4734L14086.5075,-3834.4735L14086.5077,-3834.4735L14086.5077,-3834.4735L14086.5078,-3834.4735L14086.5078,-3834.4736L14086.5079,-3834.4736L14086.508,-3834.4736L14086.508,-3834.4736L14086.508,-3834.4736L14086.5083,-3834.4736L14086.5083,-3834.4737L14086.5099,-3834.474L14086.5299,-3834.4776L14086.531,-3834.4778L14086.5326,-3834.478"/>
<path content="1,東日本急行（株）,一ノ関～仙台線,19.0,19.0,19.0," xlink:title="1" d="M14086.3953,-3834.4422L14086.3958,-3834.4424L14086.4208,-3834.4506L14086.4208,-3834.4506L14086.4208,-3834.4506L14086.4208,-3834.4506L14086.4555,-3834.4616L14086.4891,-3834.47L14086.5005,-3834.4722L14086.5028,-3834.4726L14086.5029,-3834.4726L14086.503,-3834.4727L14086.5031,-3834.4727L14086.5033,-3834.4727L14086.5041,-3834.4729L14086.5042,-3834.4729L14086.5043,-3834.4729L14086.5043,-3834.4729L14086.5043,-3834.4729L14086.5044,-3834.4729L14086.5049,-3834.473L14086.506,-3834.4732L14086.506,-3834.4732L14086.506,-3834.4732L14086.506,-3834.4732L14086.506,-3834.4732L14086.5061,-3834.4732L14086.5061,-3834.4733L14086.5062,-3834.4733L14086.5062,-3834.4733L14086.5063,-3834.4733L14086.5064,-3834.4733L14086.5069,-3834.4734L14086.5075,-3834.4735L14086.5077,-3834.4735L14086.5077,-3834.4735L14086.5078,-3834.4735L14086.5078,-3834.4736L14086.5079,-3834.4736L14086.508,-3834.4736L14086.508,-3834.4736L14086.508,-3834.4736L14086.5083,-3834.4736L14086.5083,-3834.4737L14086.5299,-3834.4776L14086.5326,-3834.478"/>
<path content="1,東日本急行（株）,仙台～盛岡線,16.0,20.0,20.0," xlink:title="1" d="M14086.5326,-3834.478L14086.5299,-3834.4776L14086.5083,-3834.4737L14086.5083,-3834.4736L14086.508,-3834.4736L14086.508,-3834.4736L14086.508,-3834.4736L14086.5079,-3834.4736L14086.5078,-3834.4736L14086.5078,-3834.4735L14086.5077,-3834.4735L14086.5077,-3834.4735L14086.5075,-3834.4735L14086.5069,-3834.4734L14086.5064,-3834.4733L14086.5063,-3834.4733L14086.5062,-3834.4733L14086.5062,-3834.4733L14086.5061,-3834.4733L14086.5061,-3834.4732L14086.506,-3834.4732L14086.506,-3834.4732L14086.506,-3834.4732L14086.506,-3834.4732L14086.506,-3834.4732L14086.5049,-3834.473L14086.5044,-3834.4729L14086.5043,-3834.4729L14086.5043,-3834.4729L14086.5043,-3834.4729L14086.5042,-3834.4729L14086.5041,-3834.4729L14086.5033,-3834.4727L14086.5031,-3834.4727L14086.503,-3834.4727L14086.5029,-3834.4726L14086.5028,-3834.4726L14086.5005,-3834.4722L14086.4891,-3834.47L14086.4555,-3834.4616L14086.4208,-3834.4506L14086.4208,-3834.4506L14086.4208,-3834.4506L14086.4208,-3834.4506L14086.3958,-3834.4424L14086.3953,-3834.4422"/>
<path content="1,東日本急行（株）,佐野・平泉駅前・中尊寺～仙台線,1.1,1.1,1.1," xlink:title="1" d="M14086.3953,-3834.4422L14086.3958,-3834.4424L14086.4208,-3834.4506L14086.4208,-3834.4506L14086.4208,-3834.4506L14086.4208,-3834.4506L14086.4555,-3834.4616L14086.4891,-3834.47L14086.5005,-3834.4722L14086.5028,-3834.4726L14086.5029,-3834.4726L14086.503,-3834.4727L14086.5031,-3834.4727L14086.5033,-3834.4727L14086.5041,-3834.4729L14086.5042,-3834.4729L14086.5043,-3834.4729L14086.5043,-3834.4729L14086.5043,-3834.4729L14086.5044,-3834.4729L14086.5049,-3834.473L14086.506,-3834.4732L14086.506,-3834.4732L14086.506,-3834.4732L14086.506,-3834.4732L14086.506,-3834.4732L14086.5061,-3834.4732L14086.5061,-3834.4733L14086.5062,-3834.4733L14086.5062,-3834.4733L14086.5063,-3834.4733L14086.5064,-3834.4733L14086.5069,-3834.4734L14086.5075,-3834.4735L14086.5077,-3834.4735L14086.5077,-3834.4735L14086.5078,-3834.4735L14086.5078,-3834.4736L14086.5079,-3834.4736L14086.508,-3834.4736L14086.508,-3834.4736L14086.508,-3834.4736L14086.5083,-3834.4736L14086.5083,-3834.4737L14086.5299,-3834.4776L14086.5326,-3834.478"/>
<path content="1,東日本急行（株）,登米（迫）～若柳～仙台線,8.0,8.0,8.0," xlink:title="1" d="M14086.3953,-3834.4423L14086.3958,-3834.4426L14086.4182,-3834.4498L14086.4184,-3834.4499L14086.4187,-3834.4499L14086.4208,-3834.4506L14086.4208,-3834.4506L14086.4208,-3834.4506L14086.4208,-3834.4506L14086.4209,-3834.4506L14086.4555,-3834.4616L14086.4555,-3834.4616L14086.4555,-3834.4616L14086.4556,-3834.4616L14086.4891,-3834.47L14086.4892,-3834.47L14086.4892,-3834.47L14086.4892,-3834.4701L14086.5005,-3834.4722L14086.5028,-3834.4726L14086.5029,-3834.4726L14086.503,-3834.4727L14086.5031,-3834.4727L14086.5033,-3834.4727L14086.5041,-3834.4729L14086.5042,-3834.4729L14086.5043,-3834.4729L14086.5043,-3834.4729L14086.5043,-3834.4729L14086.5044,-3834.4729L14086.5049,-3834.473L14086.506,-3834.4732L14086.506,-3834.4732L14086.506,-3834.4732L14086.506,-3834.4732L14086.506,-3834.4732L14086.5061,-3834.4732L14086.5061,-3834.4733L14086.5062,-3834.4733L14086.5062,-3834.4733L14086.5063,-3834.4733L14086.5064,-3834.4733L14086.5069,-3834.4734L14086.5075,-3834.4735L14086.5077,-3834.4735L14086.5077,-3834.4735L14086.5078,-3834.4735L14086.5078,-3834.4736L14086.5079,-3834.4736L14086.508,-3834.4736L14086.508,-3834.4736L14086.508,-3834.4736L14086.5083,-3834.4736L14086.5083,-3834.4737L14086.5099,-3834.474L14086.5298,-3834.4776L14086.5299,-3834.4776L14086.5299,-3834.4776L14086.5301,-3834.4776L14086.531,-3834.4778L14086.5326,-3834.478"/>
<path content="1,江ノ電バス藤沢,レイク＆ポート号,1.0,1.0,1.0," xlink:title="1" d="M14086.3953,-3834.4422L14086.3958,-3834.4424L14086.4208,-3834.4506L14086.4208,-3834.4506L14086.4208,-3834.4506L14086.4208,-3834.4506L14086.4555,-3834.4616L14086.4891,-3834.47L14086.5005,-3834.4722L14086.5028,-3834.4726L14086.5029,-3834.4726L14086.503,-3834.4727L14086.5031,-3834.4727L14086.5033,-3834.4727L14086.5041,-3834.4729L14086.5042,-3834.4729L14086.5043,-3834.4729L14086.5043,-3834.4729L14086.5043,-3834.4729L14086.5044,-3834.4729L14086.5049,-3834.473L14086.506,-3834.4732L14086.506,-3834.4732L14086.506,-3834.4732L14086.506,-3834.4732L14086.506,-3834.4732L14086.5061,-3834.4732L14086.5061,-3834.4733L14086.5062,-3834.4733L14086.5062,-3834.4733L14086.5063,-3834.4733L14086.5064,-3834.4733L14086.5069,-3834.4734L14086.5075,-3834.4735L14086.5077,-3834.4735L14086.5077,-3834.4735L14086.5078,-3834.4735L14086.5078,-3834.4736L14086.5079,-3834.4736L14086.508,-3834.4736L14086.508,-3834.4736L14086.508,-3834.4736L14086.5083,-3834.4736L14086.5083,-3834.4737L14086.5299,-3834.4776L14086.5326,-3834.478"/>
<path content="1,秋北バス（株）,ジュピター号,1.0,1.0,1.0," xlink:title="1" d="M14086.3953,-3834.4422L14086.3958,-3834.4424L14086.4208,-3834.4506L14086.4208,-3834.4506L14086.4208,-3834.4506L14086.4208,-3834.4506L14086.4555,-3834.4616L14086.4891,-3834.47L14086.5005,-3834.4722L14086.5028,-3834.4726L14086.5029,-3834.4726L14086.503,-3834.4727L14086.5031,-3834.4727L14086.5033,-3834.4727L14086.5041,-3834.4729L14086.5042,-3834.4729L14086.5043,-3834.4729L14086.5043,-3834.4729L14086.5043,-3834.4729L14086.5044,-3834.4729L14086.5049,-3834.473L14086.506,-3834.4732L14086.506,-3834.4732L14086.506,-3834.4732L14086.506,-3834.4732L14086.506,-3834.4732L14086.5061,-3834.4732L14086.5061,-3834.4733L14086.5062,-3834.4733L14086.5062,-3834.4733L14086.5063,-3834.4733L14086.5064,-3834.4733L14086.5069,-3834.4734L14086.5075,-3834.4735L14086.5077,-3834.4735L14086.5077,-3834.4735L14086.5078,-3834.4735L14086.5078,-3834.4736L14086.5079,-3834.4736L14086.508,-3834.4736L14086.508,-3834.4736L14086.508,-3834.4736L14086.5083,-3834.4736L14086.5083,-3834.4737L14086.5299,-3834.4776L14086.5326,-3834.478"/>
<path content="1,秋北バス（株）,二ツ井・能代～仙台線,1.0,1.0,1.0," xlink:title="1" d="M14086.3953,-3834.4422L14086.3958,-3834.4424L14086.4208,-3834.4506L14086.4208,-3834.4506L14086.4208,-3834.4506L14086.4208,-3834.4506L14086.4555,-3834.4616L14086.4891,-3834.47L14086.5005,-3834.4722L14086.5028,-3834.4726L14086.5029,-3834.4726L14086.503,-3834.4727L14086.5031,-3834.4727L14086.5033,-3834.4727L14086.5041,-3834.4729L14086.5042,-3834.4729L14086.5043,-3834.4729L14086.5043,-3834.4729L14086.5043,-3834.4729L14086.5044,-3834.4729L14086.5049,-3834.473L14086.506,-3834.4732L14086.506,-3834.4732L14086.506,-3834.4732L14086.506,-3834.4732L14086.506,-3834.4732L14086.5061,-3834.4732L14086.5061,-3834.4733L14086.5062,-3834.4733L14086.5062,-3834.4733L14086.5063,-3834.4733L14086.5064,-3834.4733L14086.5069,-3834.4734L14086.5075,-3834.4735L14086.5077,-3834.4735L14086.5077,-3834.4735L14086.5078,-3834.4735L14086.5078,-3834.4736L14086.5079,-3834.4736L14086.508,-3834.4736L14086.508,-3834.4736L14086.508,-3834.4736L14086.5083,-3834.4736L14086.5083,-3834.4737L14086.5299,-3834.4776L14086.5326,-3834.478"/>
<path content="1,秋北バス（株）,大館・鹿角～仙台線,3.0,3.0,3.0," xlink:title="1" d="M14086.3953,-3834.4422L14086.3958,-3834.4424L14086.4208,-3834.4506L14086.4208,-3834.4506L14086.4208,-3834.4506L14086.4208,-3834.4506L14086.4555,-3834.4616L14086.4891,-3834.47L14086.5005,-3834.4722L14086.5028,-3834.4726L14086.5029,-3834.4726L14086.503,-3834.4727L14086.5031,-3834.4727L14086.5033,-3834.4727L14086.5041,-3834.4729L14086.5042,-3834.4729L14086.5043,-3834.4729L14086.5043,-3834.4729L14086.5043,-3834.4729L14086.5044,-3834.4729L14086.5049,-3834.473L14086.506,-3834.4732L14086.506,-3834.4732L14086.506,-3834.4732L14086.506,-3834.4732L14086.506,-3834.4732L14086.5061,-3834.4732L14086.5061,-3834.4733L14086.5062,-3834.4733L14086.5062,-3834.4733L14086.5063,-3834.4733L14086.5064,-3834.4733L14086.5069,-3834.4734L14086.5075,-3834.4735L14086.5077,-3834.4735L14086.5077,-3834.4735L14086.5078,-3834.4735L14086.5078,-3834.4736L14086.5079,-3834.4736L14086.508,-3834.4736L14086.508,-3834.4736L14086.508,-3834.4736L14086.5083,-3834.4736L14086.5083,-3834.4737L14086.5299,-3834.4776L14086.5326,-3834.478"/>
<path content="1,秋田中央交通（株）,フローラ号,1.0,1.0,1.0," xlink:title="1" d="M14086.5326,-3834.478L14086.5299,-3834.4776L14086.5083,-3834.4737L14086.5083,-3834.4736L14086.508,-3834.4736L14086.508,-3834.4736L14086.508,-3834.4736L14086.5079,-3834.4736L14086.5078,-3834.4736L14086.5078,-3834.4735L14086.5077,-3834.4735L14086.5077,-3834.4735L14086.5075,-3834.4735L14086.5069,-3834.4734L14086.5064,-3834.4733L14086.5063,-3834.4733L14086.5062,-3834.4733L14086.5062,-3834.4733L14086.5061,-3834.4733L14086.5061,-3834.4732L14086.506,-3834.4732L14086.506,-3834.4732L14086.506,-3834.4732L14086.506,-3834.4732L14086.506,-3834.4732L14086.5049,-3834.473L14086.5044,-3834.4729L14086.5043,-3834.4729L14086.5043,-3834.4729L14086.5043,-3834.4729L14086.5042,-3834.4729L14086.5041,-3834.4729L14086.5033,-3834.4727L14086.5031,-3834.4727L14086.503,-3834.4727L14086.5029,-3834.4726L14086.5028,-3834.4726L14086.5005,-3834.4722L14086.4891,-3834.47L14086.4555,-3834.4616L14086.4208,-3834.4506L14086.4208,-3834.4506L14086.4208,-3834.4506L14086.4208,-3834.4506L14086.3958,-3834.4424L14086.3953,-3834.4422"/>
<path content="1,秋田中央交通（株）,仙秋号,4.0,4.0,4.0," xlink:title="1" d="M14086.5326,-3834.478L14086.5299,-3834.4776L14086.5083,-3834.4737L14086.5083,-3834.4736L14086.508,-3834.4736L14086.508,-3834.4736L14086.508,-3834.4736L14086.5079,-3834.4736L14086.5078,-3834.4736L14086.5078,-3834.4735L14086.5077,-3834.4735L14086.5077,-3834.4735L14086.5075,-3834.4735L14086.5069,-3834.4734L14086.5064,-3834.4733L14086.5063,-3834.4733L14086.5062,-3834.4733L14086.5062,-3834.4733L14086.5061,-3834.4733L14086.5061,-3834.4732L14086.506,-3834.4732L14086.506,-3834.4732L14086.506,-3834.4732L14086.506,-3834.4732L14086.506,-3834.4732L14086.5049,-3834.473L14086.5044,-3834.4729L14086.5043,-3834.4729L14086.5043,-3834.4729L14086.5043,-3834.4729L14086.5042,-3834.4729L14086.5041,-3834.4729L14086.5033,-3834.4727L14086.5031,-3834.4727L14086.503,-3834.4727L14086.5029,-3834.4726L14086.5028,-3834.4726L14086.5005,-3834.4722L14086.4891,-3834.47L14086.4555,-3834.4616L14086.4208,-3834.4506L14086.4208,-3834.4506L14086.4208,-3834.4506L14086.4208,-3834.4506L14086.3958,-3834.4424L14086.3953,-3834.4422"/>
<path content="1,羽後交通（株）,グリーンライナー号,4.0,4.0,4.0," xlink:title="1" d="M14086.3953,-3834.4422L14086.3958,-3834.4424L14086.4208,-3834.4506L14086.4208,-3834.4506L14086.4208,-3834.4506L14086.4208,-3834.4506L14086.4555,-3834.4616L14086.4891,-3834.47L14086.5005,-3834.4722L14086.5028,-3834.4726L14086.5029,-3834.4726L14086.503,-3834.4727L14086.5031,-3834.4727L14086.5033,-3834.4727L14086.5041,-3834.4729L14086.5042,-3834.4729L14086.5043,-3834.4729L14086.5043,-3834.4729L14086.5043,-3834.4729L14086.5044,-3834.4729L14086.5049,-3834.473L14086.506,-3834.4732L14086.506,-3834.4732L14086.506,-3834.4732L14086.506,-3834.4732L14086.506,-3834.4732L14086.5061,-3834.4732L14086.5061,-3834.4733L14086.5062,-3834.4733L14086.5062,-3834.4733L14086.5063,-3834.4733L14086.5064,-3834.4733L14086.5069,-3834.4734L14086.5075,-3834.4735L14086.5077,-3834.4735L14086.5077,-3834.4735L14086.5078,-3834.4735L14086.5078,-3834.4736L14086.5079,-3834.4736L14086.508,-3834.4736L14086.508,-3834.4736L14086.508,-3834.4736L14086.5083,-3834.4736L14086.5083,-3834.4737L14086.5299,-3834.4776L14086.5326,-3834.478"/>
<path content="1,羽後交通（株）,レーク＆ポート号,1.0,1.0,1.0," xlink:title="1" d="M14086.5326,-3834.478L14086.5299,-3834.4776L14086.5083,-3834.4737L14086.5083,-3834.4736L14086.508,-3834.4736L14086.508,-3834.4736L14086.508,-3834.4736L14086.5079,-3834.4736L14086.5078,-3834.4736L14086.5078,-3834.4735L14086.5077,-3834.4735L14086.5077,-3834.4735L14086.5075,-3834.4735L14086.5069,-3834.4734L14086.5064,-3834.4733L14086.5063,-3834.4733L14086.5062,-3834.4733L14086.5062,-3834.4733L14086.5061,-3834.4733L14086.5061,-3834.4732L14086.506,-3834.4732L14086.506,-3834.4732L14086.506,-3834.4732L14086.506,-3834.4732L14086.506,-3834.4732L14086.5049,-3834.473L14086.5044,-3834.4729L14086.5043,-3834.4729L14086.5043,-3834.4729L14086.5043,-3834.4729L14086.5042,-3834.4729L14086.5041,-3834.4729L14086.5033,-3834.4727L14086.5031,-3834.4727L14086.503,-3834.4727L14086.5029,-3834.4726L14086.5028,-3834.4726L14086.5005,-3834.4722L14086.4891,-3834.47L14086.4555,-3834.4616L14086.4208,-3834.4506L14086.4208,-3834.4506L14086.4208,-3834.4506L14086.4208,-3834.4506L14086.3958,-3834.4424L14086.3953,-3834.4422"/>
</g>
</svg>
