<?xml version="1.0" encoding="UTF-8"?>
<svg  xmlns="http://www.w3.org/2000/svg" xmlns:xlink="http://www.w3.org/1999/xlink" xmlns:go="http://purl.org/svgmap/profile" property="N07_001,N07_002,N07_003,N07_004,N07_005,N07_006,N07_007" viewBox="13289.0625 -3410.15625 8.7890625 8.7890625" go:dataArea="13289.0625 -3410.15625 8.7890625 8.7890625" >
<metadata>
 <rdf:RDF xmlns:rdf="http://www.w3.org/1999/02/22-rdf-syntax-ns#" xmlns:crs="http://opengis.org/xmldtds/transformations.dtd" xmlns:svg="http://www.w3.org/svg" >
  <rdf:Description>
   <crs:CoordinateReferenceSystem rdf:resource="http://purl.org/crs/84" svg:transform="matrix(100.0,0.0,0.0,-100.0,0.0,0.0)" />
  </rdf:Description>
 </rdf:RDF>
</metadata>
<globalCoordinateSystem srsName="http://purl.org/crs/84" transform="matrix(100.0,0.0,0.0,-100.0,0.0,0.0)" />
<defs>
 <g id="p0" >
  <circle cx="0.0" cy="0.0" r="3" stroke="green" stroke-width="0.75" vector-effect="non-scaling-stroke" />
 </g>
</defs>
<g fill="none" fill-rule="evenodd" stroke="#FF00FF" stroke-width="0.75" opacity="0.5" vector-effect="non-scaling-stroke" stroke-linejoin="bevel" >
<path content="1,いずみ観光（株）,空港リムジン　西条・今冶⇔松山空港,9.0,9.0,9.0," xlink:title="1" d="M13297.8516,-3405.5871L13297.8482,-3405.5844L13297.8211,-3405.5659L13297.8097,-3405.5616L13297.7992,-3405.5571L13297.7376,-3405.5377L13297.6724,-3405.5184L13297.6522,-3405.5124L13297.6351,-3405.5268L13297.5844,-3405.5676L13297.5353,-3405.6034L13297.4909,-3405.6333L13297.4862,-3405.6363L13297.4781,-3405.6416L13297.3949,-3405.6881L13297.3763,-3405.6979L13297.3193,-3405.7264L13297.2584,-3405.7555L13297.2226,-3405.7708L13297.21,-3405.7763L13297.1834,-3405.7876L13297.1378,-3405.808L13297.1039,-3405.8226L13297.0976,-3405.8249L13296.9919,-3405.8679L13296.9033,-3405.9075L13296.8946,-3405.9114L13296.8698,-3405.9226L13296.7984,-3405.9539L13296.7946,-3405.9557L13296.781,-3405.9617L13296.7114,-3405.9926L13296.6952,-3405.9993L13296.6072,-3406.0348L13296.595,-3406.0397L13296.5913,-3406.0412L13296.5794,-3406.0461L13296.4662,-3406.0896L13296.4542,-3406.0941L13296.4397,-3406.0996L13296.3865,-3406.1175L13296.3754,-3406.121L13296.3628,-3406.1251L13296.2513,-3406.1568L13296.2473,-3406.1579L13296.2243,-3406.1641L13296.1512,-3406.1833L13296.1394,-3406.1861L13296.1346,-3406.1873L13296.1105,-3406.1936L13295.9859,-3406.2176L13295.9829,-3406.2182L13295.957,-3406.2232L13295.7909,-3406.2537L13295.7774,-3406.256L13295.7647,-3406.2586L13295.7001,-3406.2698L13295.5671,-3406.2971L13295.5506,-3406.3011L13295.5284,-3406.3084L13295.5032,-3406.3182L13295.4708,-3406.3313L13295.4343,-3406.3469L13295.4021,-3406.3639L13295.3741,-3406.3798L13295.3489,-3406.3966L13295.3266,-3406.4128L13295.3102,-3406.4255L13295.2883,-3406.4441L13295.2497,-3406.4781L13295.198,-3406.5289L13295.1895,-3406.5371L13295.1801,-3406.5469L13295.1613,-3406.5666L13295.023,-3406.7066L13294.9993,-3406.7293L13294.9855,-3406.7387L13294.9705,-3406.746L13294.8662,-3406.7797L13294.8583,-3406.7822L13294.8419,-3406.7872L13294.834,-3406.7897L13294.7885,-3406.8035L13294.7805,-3406.8063L13294.7739,-3406.8086L13294.7151,-3406.8261L13294.6657,-3406.8406L13294.6415,-3406.8465L13294.6291,-3406.8473L13294.6224,-3406.8473L13294.5472,-3406.8386L13294.5388,-3406.8377L13294.5306,-3406.8369L13294.4243,-3406.8251L13294.4119,-3406.8236L13294.4044,-3406.8227L13294.3013,-3406.8093L13294.2956,-3406.8085L13294.2836,-3406.8069L13294.272,-3406.8056L13294.2464,-3406.8024L13294.0617,-3406.7709L13293.883,-3406.7405L13293.8796,-3406.7399L13293.8122,-3406.7277L13293.707,-3406.7101L13293.6271,-3406.6966L13293.5708,-3406.6815L13293.5424,-3406.6702L13293.5015,-3406.6531L13293.4737,-3406.6396L13293.4311,-3406.6188L13293.3594,-3406.5793L13293.3439,-3406.5697L13293.3242,-3406.5574L13293.3053,-3406.5438L13293.2742,-3406.5207L13293.2566,-3406.5066L13293.2329,-3406.4903L13293.2234,-3406.4841L13293.2006,-3406.47L13293.1781,-3406.4576L13293.1301,-3406.4306L13293.0637,-3406.3973L13292.9826,-3406.3568L13292.9169,-3406.3222L13292.8604,-3406.2974L13292.812,-3406.2772L13292.7471,-3406.2571L13292.6361,-3406.2259L13292.5222,-3406.1968L13292.403,-3406.1661L13292.2783,-3406.1325L13292.1962,-3406.1107L13292.191,-3406.1089L13291.989,-3406.0567L13291.82,-3406.0138L13291.8114,-3406.011L13291.7818,-3406.0064L13291.7539,-3406.0033L13291.7272,-3406.0026L13291.7092,-3406.0041L13291.6886,-3406.0081L13291.6637,-3406.0172L13291.6295,-3406.0336L13291.6019,-3406.0532L13291.5789,-3406.0753L13291.5369,-3406.1302L13291.5204,-3406.1517L13291.4924,-3406.1871L13291.4755,-3406.2077L13291.4602,-3406.22L13291.4383,-3406.2277L13291.4085,-3406.231L13291.3787,-3406.2313L13291.3336,-3406.2281L13291.2702,-3406.2164L13291.2172,-3406.2089L13291.1944,-3406.2056L13291.1519,-3406.2042L13291.1227,-3406.2051L13291.0952,-3406.2084L13291.0694,-3406.212L13291.0396,-3406.2182L13290.9988,-3406.2284L13290.9712,-3406.2386L13290.898,-3406.2624L13290.8617,-3406.2809L13290.8562,-3406.2832L13290.8356,-3406.2913L13290.746,-3406.3264L13290.7109,-3406.341L13290.6681,-3406.3595L13290.6485,-3406.3663L13290.6039,-3406.3832L13290.5764,-3406.3921L13290.5355,-3406.404L13290.5107,-3406.4096L13290.4807,-3406.4153L13290.4373,-3406.4207L13290.384,-3406.4282L13290.3224,-3406.4338L13290.2974,-3406.4344L13290.2398,-3406.4344L13290.1858,-3406.431L13290.1457,-3406.4253L13290.1377,-3406.4243L13290.0653,-3406.4091L13290.0322,-3406.4012L13289.9858,-3406.3877L13289.9179,-3406.3676L13289.8706,-3406.3512L13289.8356,-3406.3374L13289.7714,-3406.3102L13289.5518,-3406.2101L13289.4973,-3406.1846L13289.4732,-3406.1729L13289.436,-3406.1518L13289.4117,-3406.1367L13289.3894,-3406.1194L13289.37,-3406.1031L13289.3475,-3406.0839L13289.3178,-3406.0541L13289.2792,-3406.0124L13289.2343,-3405.9616L13289.1993,-3405.9256L13289.1892,-3405.916L13289.1559,-3405.8884L13289.1263,-3405.8676L13289.0625,-3405.8297"/>
<path content="1,伊予鉄道（株）,キララエクスプレス　松山⇔新尾道・福山,4.0,4.0,4.0," xlink:title="1" d="M13289.0625,-3405.8297L13289.1263,-3405.8676L13289.1559,-3405.8884L13289.1892,-3405.916L13289.1993,-3405.9256L13289.2343,-3405.9616L13289.2792,-3406.0124L13289.3178,-3406.0541L13289.3475,-3406.0839L13289.37,-3406.1031L13289.3894,-3406.1194L13289.4117,-3406.1367L13289.436,-3406.1518L13289.4732,-3406.1729L13289.4973,-3406.1846L13289.5518,-3406.2101L13289.7714,-3406.3102L13289.8356,-3406.3374L13289.8706,-3406.3512L13289.9179,-3406.3676L13289.9858,-3406.3877L13290.0322,-3406.4012L13290.0653,-3406.4091L13290.1377,-3406.4243L13290.1457,-3406.4253L13290.1858,-3406.431L13290.2398,-3406.4344L13290.2974,-3406.4344L13290.3224,-3406.4338L13290.384,-3406.4282L13290.4373,-3406.4207L13290.4807,-3406.4153L13290.5107,-3406.4096L13290.5355,-3406.404L13290.5764,-3406.3921L13290.6039,-3406.3832L13290.6485,-3406.3663L13290.6681,-3406.3595L13290.7109,-3406.341L13290.746,-3406.3264L13290.8356,-3406.2913L13290.8562,-3406.2832L13290.8617,-3406.2809L13290.8882,-3406.269L13290.9712,-3406.2386L13290.9988,-3406.2284L13291.0396,-3406.2182L13291.0694,-3406.212L13291.0952,-3406.2084L13291.1227,-3406.2051L13291.1519,-3406.2042L13291.1944,-3406.2056L13291.2172,-3406.2089L13291.2702,-3406.2164L13291.3336,-3406.2281L13291.3787,-3406.2313L13291.4085,-3406.231L13291.4383,-3406.2277L13291.4602,-3406.22L13291.4755,-3406.2077L13291.4924,-3406.1871L13291.5204,-3406.1517L13291.5369,-3406.1302L13291.5789,-3406.0753L13291.6019,-3406.0532L13291.6295,-3406.0336L13291.6637,-3406.0172L13291.6886,-3406.0081L13291.7092,-3406.0041L13291.7272,-3406.0026L13291.7539,-3406.0033L13291.7818,-3406.0064L13291.8114,-3406.011L13291.82,-3406.0138L13291.989,-3406.0567L13292.191,-3406.1089L13292.1962,-3406.1107L13292.2783,-3406.1325L13292.403,-3406.1661L13292.5222,-3406.1968L13292.6361,-3406.2259L13292.7471,-3406.2571L13292.812,-3406.2772L13292.8604,-3406.2974L13292.9169,-3406.3222L13292.9826,-3406.3568L13293.0637,-3406.3973L13293.1301,-3406.4306L13293.1781,-3406.4576L13293.2006,-3406.47L13293.2234,-3406.4841L13293.2329,-3406.4903L13293.2566,-3406.5066L13293.2742,-3406.5207L13293.3053,-3406.5438L13293.3242,-3406.5574L13293.3439,-3406.5697L13293.3594,-3406.5793L13293.4311,-3406.6188L13293.4737,-3406.6396L13293.5015,-3406.6531L13293.5424,-3406.6702L13293.5708,-3406.6815L13293.6271,-3406.6966L13293.707,-3406.7101L13293.8796,-3406.7399L13293.883,-3406.7405L13294.0617,-3406.7709L13294.2464,-3406.8024L13294.272,-3406.8056L13294.2836,-3406.8069L13294.2956,-3406.8085L13294.3013,-3406.8093L13294.4044,-3406.8227L13294.4119,-3406.8236L13294.4243,-3406.8251L13294.5306,-3406.8369L13294.5388,-3406.8377L13294.5472,-3406.8386L13294.6224,-3406.8473L13294.6291,-3406.8473L13294.6415,-3406.8465L13294.6657,-3406.8406L13294.7151,-3406.8261L13294.7739,-3406.8086L13294.7805,-3406.8063L13294.7885,-3406.8035L13294.834,-3406.7897L13294.8419,-3406.7872L13294.8583,-3406.7822L13294.8662,-3406.7797L13294.9705,-3406.746L13294.9855,-3406.7387L13294.9993,-3406.7293L13295.023,-3406.7066L13295.1613,-3406.5666L13295.1801,-3406.5469L13295.1895,-3406.5371L13295.198,-3406.5289L13295.2497,-3406.4781L13295.2883,-3406.4441L13295.3102,-3406.4255L13295.3266,-3406.4128L13295.3489,-3406.3966L13295.3741,-3406.3798L13295.4021,-3406.3639L13295.4343,-3406.3469L13295.4708,-3406.3313L13295.5032,-3406.3182L13295.5284,-3406.3084L13295.5506,-3406.3011L13295.5671,-3406.2971L13295.7001,-3406.2698L13295.7647,-3406.2586L13295.7774,-3406.256L13295.7909,-3406.2537L13295.957,-3406.2232L13295.9829,-3406.2182L13295.9859,-3406.2176L13296.1105,-3406.1936L13296.1346,-3406.1873L13296.1394,-3406.1861L13296.1512,-3406.1833L13296.2243,-3406.1641L13296.2473,-3406.1579L13296.2513,-3406.1568L13296.3628,-3406.1251L13296.3754,-3406.121L13296.3865,-3406.1175L13296.4397,-3406.0996L13296.4542,-3406.0941L13296.4662,-3406.0896L13296.5794,-3406.0461L13296.5913,-3406.0412L13296.595,-3406.0397L13296.6072,-3406.0348L13296.6952,-3405.9993L13296.7114,-3405.9926L13296.781,-3405.9617L13296.7946,-3405.9557L13296.7984,-3405.9539L13296.8698,-3405.9226L13296.8946,-3405.9114L13296.9033,-3405.9075L13296.9919,-3405.8679L13297.0976,-3405.8249L13297.1039,-3405.8226L13297.1191,-3405.8161"/>
<path content="1,伊予鉄道（株）,キララエクスプレス　松山⇔新尾道・福山,4.0,4.0,4.0," xlink:title="1" d="M13297.1191,-3405.8161L13297.1378,-3405.808L13297.1834,-3405.7876L13297.21,-3405.7763L13297.2226,-3405.7708L13297.2584,-3405.7555L13297.3193,-3405.7264L13297.3763,-3405.6979L13297.3949,-3405.6881L13297.4781,-3405.6416L13297.4862,-3405.6363L13297.4909,-3405.6333L13297.5353,-3405.6034L13297.5844,-3405.5676L13297.6351,-3405.5268L13297.6522,-3405.5124L13297.6311,-3405.5073L13297.6004,-3405.5001L13297.5774,-3405.4952L13297.5626,-3405.4932L13297.5391,-3405.4923L13297.5202,-3405.4927L13297.5025,-3405.4952L13297.4843,-3405.4991L13297.4566,-3405.5065L13297.4301,-3405.5133L13297.413,-3405.5187L13297.39,-3405.5221L13297.3682,-3405.5212L13297.3511,-3405.5187L13297.3376,-3405.5148L13297.3256,-3405.5111L13297.3193,-3405.5076L13297.3094,-3405.5012L13297.2942,-3405.49L13297.2831,-3405.4776L13297.2334,-3405.401L13297.2026,-3405.3549L13297.1897,-3405.3339L13297.1783,-3405.3222L13297.1594,-3405.3105L13297.1432,-3405.3046L13297.1275,-3405.3028L13297.1128,-3405.3046L13297.095,-3405.3114L13297.0858,-3405.3168L13297.0777,-3405.3272L13297.0695,-3405.342L13297.0652,-3405.3591L13297.0594,-3405.4029L13297.0569,-3405.4706L13297.0582,-3405.5226L13297.0617,-3405.5751L13297.0706,-3405.6366L13297.0804,-3405.6848L13297.0888,-3405.7192L13297.1072,-3405.7831L13297.1191,-3405.8161"/>
<path content="1,伊予鉄道（株）,キララエクスプレス　松山⇔新尾道・福山,4.0,4.0,4.0," xlink:title="1" d="M13297.1191,-3405.8161L13297.1329,-3405.8545L13297.1662,-3405.9363L13297.2054,-3406.0216L13297.2571,-3406.1416L13297.272,-3406.1828L13297.2856,-3406.2342L13297.3048,-3406.3137L13297.3107,-3406.3529L13297.3204,-3406.4303L13297.3217,-3406.4478L13297.3253,-3406.497L13297.3342,-3406.5877L13297.3426,-3406.6461L13297.3508,-3406.6933L13297.3646,-3406.7638L13297.3748,-3406.803L13297.3908,-3406.8609L13297.4338,-3406.9908L13297.4906,-3407.1633L13297.5177,-3407.2507L13297.5383,-3407.3381L13297.5472,-3407.3786L13297.5529,-3407.4043L13297.5669,-3407.4746L13297.5788,-3407.5502L13297.5841,-3407.5979L13297.5868,-3407.6385L13297.604,-3407.7937L13297.6175,-3407.8779L13297.6305,-3407.9536L13297.6548,-3408.0783L13297.6878,-3408.2121L13297.723,-3408.3377L13297.782,-3408.5161L13297.8363,-3408.6624L13297.8508,-3408.7095L13297.8516,-3408.7126M13297.8516,-3409.2623L13297.8429,-3409.2944L13297.8198,-3409.3704L13297.7992,-3409.4429L13297.7939,-3409.4627L13297.7824,-3409.5114L13297.7757,-3409.5521L13297.7727,-3409.5716L13297.7669,-3409.6319L13297.7657,-3409.6821L13297.766,-3409.7L13297.7679,-3409.744"/>
<path content="1,伊予鉄道（株）,キララエクスプレス　松山⇔新尾道・福山,4.0,4.0,4.0," xlink:title="1" d="M13297.7679,-3409.744L13297.783,-3409.744L13297.7926,-3409.7439L13297.816,-3409.7451L13297.8394,-3409.7526L13297.8516,-3409.7627"/>
<path content="1,伊予鉄道（株）,キララエクスプレス　松山⇔新尾道・福山,4.0,4.0,4.0," xlink:title="1" d="M13297.7679,-3409.744L13297.7686,-3409.7621L13297.7757,-3409.8425L13297.7798,-3409.9108L13297.7807,-3409.9571L13297.7754,-3410.0354L13297.7736,-3410.0569L13297.7711,-3410.0764L13297.7679,-3410.0964L13297.7577,-3410.1421L13297.7542,-3410.1562"/>
<path content="1,伊予鉄道（株）,道後エクスプレスふくおか号　松山⇔福岡,1.0,1.0,1.0," xlink:title="1" d="M13297.8516,-3405.3212L13297.8129,-3405.3603L13297.7476,-3405.4261L13297.6698,-3405.4976L13297.6522,-3405.5124L13297.6311,-3405.5073L13297.6004,-3405.5001L13297.5774,-3405.4952L13297.5626,-3405.4932L13297.5391,-3405.4923L13297.5202,-3405.4927L13297.5025,-3405.4952L13297.4843,-3405.4991L13297.4566,-3405.5065L13297.4301,-3405.5133L13297.413,-3405.5187L13297.39,-3405.5221L13297.3682,-3405.5212L13297.3511,-3405.5187L13297.3376,-3405.5148L13297.3256,-3405.5111L13297.3193,-3405.5076L13297.3094,-3405.5012L13297.2942,-3405.49L13297.2831,-3405.4776L13297.2334,-3405.401L13297.2026,-3405.3549L13297.1897,-3405.3339L13297.1783,-3405.3222L13297.1594,-3405.3105L13297.1432,-3405.3046L13297.1275,-3405.3028L13297.1128,-3405.3046L13297.095,-3405.3114L13297.0858,-3405.3168L13297.0777,-3405.3272L13297.0695,-3405.342L13297.0652,-3405.3591L13297.0594,-3405.4029L13297.0569,-3405.4706L13297.0582,-3405.5226L13297.0617,-3405.5751L13297.0706,-3405.6366L13297.0804,-3405.6848L13297.0888,-3405.7192L13297.1072,-3405.7831L13297.1191,-3405.8161L13297.1329,-3405.8545L13297.1662,-3405.9363L13297.2054,-3406.0216L13297.2571,-3406.1416L13297.272,-3406.1828L13297.2856,-3406.2342L13297.3048,-3406.3137L13297.3107,-3406.3529L13297.3204,-3406.4303L13297.3217,-3406.4478L13297.3253,-3406.497L13297.3342,-3406.5877L13297.3426,-3406.6461L13297.3508,-3406.6933L13297.3646,-3406.7638L13297.3748,-3406.803L13297.3908,-3406.8609L13297.4338,-3406.9908L13297.4906,-3407.1633L13297.5177,-3407.2507L13297.5383,-3407.3381L13297.5472,-3407.3786L13297.5529,-3407.4043L13297.5669,-3407.4746L13297.5788,-3407.5502L13297.5841,-3407.5979L13297.5868,-3407.6385L13297.604,-3407.7937L13297.6175,-3407.8779L13297.6305,-3407.9536L13297.6548,-3408.0783L13297.6878,-3408.2121L13297.723,-3408.3377L13297.782,-3408.5161L13297.8363,-3408.6624L13297.8508,-3408.7095L13297.8516,-3408.7126M13297.8516,-3409.2623L13297.8429,-3409.2944L13297.8198,-3409.3704L13297.7992,-3409.4429L13297.7939,-3409.4627L13297.7824,-3409.5114L13297.7757,-3409.5521L13297.7727,-3409.5716L13297.7669,-3409.6319L13297.7657,-3409.6821L13297.766,-3409.7L13297.7686,-3409.7621L13297.7757,-3409.8425L13297.7798,-3409.9108L13297.7807,-3409.9571L13297.7754,-3410.0354L13297.7736,-3410.0569L13297.7711,-3410.0764L13297.7679,-3410.0964L13297.7577,-3410.1421L13297.7542,-3410.1562"/>
<path content="1,広交観光（株）,しまなみライナー　広島⇔今治,3.0,6.0,6.0," xlink:title="1" d="M13297.8516,-3405.3212L13297.8129,-3405.3603L13297.7476,-3405.4261L13297.6698,-3405.4976L13297.6522,-3405.5124L13297.6311,-3405.5073L13297.6004,-3405.5001L13297.5774,-3405.4952L13297.5626,-3405.4932L13297.5391,-3405.4923L13297.5202,-3405.4927L13297.5025,-3405.4952L13297.4843,-3405.4991L13297.4566,-3405.5065L13297.4301,-3405.5133L13297.413,-3405.5187L13297.39,-3405.5221L13297.3682,-3405.5212L13297.3511,-3405.5187L13297.3376,-3405.5148L13297.3256,-3405.5111L13297.3193,-3405.5076L13297.3094,-3405.5012L13297.2942,-3405.49L13297.2831,-3405.4776L13297.2334,-3405.401L13297.2026,-3405.3549L13297.1897,-3405.3339L13297.1783,-3405.3222L13297.1594,-3405.3105L13297.1432,-3405.3046L13297.1275,-3405.3028L13297.1128,-3405.3046L13297.095,-3405.3114L13297.0858,-3405.3168L13297.0777,-3405.3272L13297.0695,-3405.342L13297.0652,-3405.3591L13297.0594,-3405.4029L13297.0569,-3405.4706L13297.0582,-3405.5226L13297.0617,-3405.5751L13297.0706,-3405.6366L13297.0804,-3405.6848L13297.0888,-3405.7192L13297.1072,-3405.7831L13297.1329,-3405.8545L13297.1662,-3405.9363L13297.2054,-3406.0216L13297.2571,-3406.1416L13297.272,-3406.1828L13297.2856,-3406.2342L13297.3048,-3406.3137L13297.3107,-3406.3529L13297.3204,-3406.4303L13297.3217,-3406.4478L13297.3253,-3406.497L13297.3342,-3406.5877L13297.3426,-3406.6461L13297.3508,-3406.6933L13297.3646,-3406.7638L13297.3748,-3406.803L13297.3908,-3406.8609L13297.4338,-3406.9908L13297.4906,-3407.1633L13297.5177,-3407.2507L13297.5383,-3407.3381L13297.5472,-3407.3786L13297.5529,-3407.4043L13297.5669,-3407.4746L13297.5788,-3407.5502L13297.5841,-3407.5979L13297.5868,-3407.6385L13297.604,-3407.7937L13297.6175,-3407.8779L13297.6305,-3407.9536L13297.6548,-3408.0783L13297.6878,-3408.2121L13297.723,-3408.3377L13297.782,-3408.5161L13297.8363,-3408.6624L13297.8508,-3408.7095L13297.8516,-3408.7126M13297.8516,-3409.2623L13297.8429,-3409.2944L13297.8198,-3409.3704L13297.7992,-3409.4429L13297.7939,-3409.4627L13297.7824,-3409.5114L13297.7757,-3409.5521L13297.7727,-3409.5716L13297.7669,-3409.6319L13297.7657,-3409.6821L13297.766,-3409.7L13297.7686,-3409.7621L13297.7757,-3409.8425L13297.7798,-3409.9108L13297.7807,-3409.9571L13297.7754,-3410.0354L13297.7736,-3410.0569L13297.7711,-3410.0764L13297.7679,-3410.0964L13297.7577,-3410.1421L13297.7542,-3410.1562"/>
<path content="1,本四バス開発（株）,キラキラエクスプレス,4.0,4.0,4.0," xlink:title="1" d="M13297.8516,-3405.3212L13297.8129,-3405.3603L13297.7476,-3405.4261L13297.6698,-3405.4976L13297.6522,-3405.5124L13297.6311,-3405.5073L13297.6004,-3405.5001L13297.5774,-3405.4952L13297.5626,-3405.4932L13297.5391,-3405.4923L13297.5202,-3405.4927L13297.5025,-3405.4952L13297.4843,-3405.4991L13297.4566,-3405.5065L13297.4301,-3405.5133L13297.413,-3405.5187L13297.39,-3405.5221L13297.3682,-3405.5212L13297.3511,-3405.5187L13297.3376,-3405.5148L13297.3256,-3405.5111L13297.3193,-3405.5076L13297.3094,-3405.5012L13297.2942,-3405.49L13297.2831,-3405.4776L13297.2334,-3405.401L13297.2026,-3405.3549L13297.1897,-3405.3339L13297.1783,-3405.3222L13297.1594,-3405.3105L13297.1432,-3405.3046L13297.1275,-3405.3028L13297.1128,-3405.3046L13297.095,-3405.3114L13297.0858,-3405.3168L13297.0777,-3405.3272L13297.0695,-3405.342L13297.0652,-3405.3591L13297.0594,-3405.4029L13297.0569,-3405.4706L13297.0582,-3405.5226L13297.0617,-3405.5751L13297.0706,-3405.6366L13297.0804,-3405.6848L13297.0888,-3405.7192L13297.1072,-3405.7831L13297.1329,-3405.8545L13297.1662,-3405.9363L13297.2054,-3406.0216L13297.2571,-3406.1416L13297.272,-3406.1828L13297.2856,-3406.2342L13297.3048,-3406.3137L13297.3107,-3406.3529L13297.3204,-3406.4303L13297.3217,-3406.4478L13297.3253,-3406.497L13297.3342,-3406.5877L13297.3426,-3406.6461L13297.3508,-3406.6933L13297.3646,-3406.7638L13297.3748,-3406.803L13297.3908,-3406.8609L13297.4338,-3406.9908L13297.4906,-3407.1633L13297.5177,-3407.2507L13297.5383,-3407.3381L13297.5472,-3407.3786L13297.5529,-3407.4043L13297.5669,-3407.4746L13297.5788,-3407.5502L13297.5841,-3407.5979L13297.5868,-3407.6385L13297.604,-3407.7937L13297.6175,-3407.8779L13297.6305,-3407.9536L13297.6548,-3408.0783L13297.6878,-3408.2121L13297.723,-3408.3377L13297.782,-3408.5161L13297.8363,-3408.6624L13297.8508,-3408.7095L13297.8516,-3408.7126M13297.8516,-3409.2623L13297.8429,-3409.2944L13297.8198,-3409.3704L13297.7992,-3409.4429L13297.7939,-3409.4627L13297.7824,-3409.5114L13297.7757,-3409.5521L13297.7727,-3409.5716L13297.7669,-3409.6319L13297.7657,-3409.6821L13297.766,-3409.7L13297.7686,-3409.7621L13297.7757,-3409.8425L13297.7798,-3409.9108L13297.7807,-3409.9571"/>
<path content="1,本四バス開発（株）,キラキラエクスプレス,4.0,4.0,4.0," xlink:title="1" d="M13297.7807,-3409.9571L13297.8516,-3409.9673"/>
<path content="1,本四バス開発（株）,キラキラエクスプレス,4.0,4.0,4.0," xlink:title="1" d="M13297.7807,-3409.9571L13297.7754,-3410.0354L13297.7736,-3410.0569L13297.7711,-3410.0764L13297.7679,-3410.0964L13297.7577,-3410.1421L13297.7542,-3410.1562"/>
<path content="1,瀬戸内海交通（株）,大三島→今治,17.0,16.0,13.0," xlink:title="1" d="M13297.8516,-3409.2428L13297.8215,-3409.2654L13297.7628,-3409.3073L13297.7544,-3409.3136L13297.7643,-3409.3282L13297.7682,-3409.3419L13297.7673,-3409.3601L13297.7573,-3409.3824L13297.7523,-3409.396L13297.7464,-3409.415L13297.732,-3409.4952L13297.726,-3409.541L13297.7221,-3409.5873L13297.7201,-3409.7059L13297.7207,-3409.7442L13297.7217,-3409.8064L13297.7232,-3409.8173L13297.725,-3409.8238L13297.727,-3409.8284L13297.73,-3409.8352L13297.7475,-3409.8513L13297.7678,-3409.8612L13297.7771,-3409.8649L13297.7798,-3409.9108L13297.7807,-3409.9571L13297.7754,-3410.0354L13297.7736,-3410.0569L13297.7711,-3410.0764L13297.7679,-3410.0964L13297.7577,-3410.1421L13297.7542,-3410.1562"/>
<path content="1,瀬戸内運輸（株）,しまなみライナー　今治⇔広島,9.0,9.0,9.0," xlink:title="1" d="M13297.8516,-3409.2428L13297.8215,-3409.2654L13297.7628,-3409.3073L13297.7544,-3409.3136L13297.7643,-3409.3282L13297.7682,-3409.3419L13297.7673,-3409.3601L13297.7573,-3409.3824L13297.7523,-3409.396L13297.7464,-3409.415L13297.732,-3409.4952L13297.726,-3409.541L13297.7221,-3409.5873L13297.7201,-3409.7059L13297.7207,-3409.7442L13297.7217,-3409.8064L13297.7232,-3409.8173L13297.725,-3409.8238L13297.727,-3409.8284L13297.73,-3409.8352L13297.7475,-3409.8513L13297.7678,-3409.8612L13297.7771,-3409.8649L13297.7798,-3409.9108L13297.7807,-3409.9571L13297.7754,-3410.0354L13297.7736,-3410.0569L13297.7711,-3410.0764L13297.7679,-3410.0964L13297.7577,-3410.1421L13297.7542,-3410.1562"/>
<path content="1,瀬戸内運輸（株）,しまなみライナー　今治⇔福山,4.0,4.0,4.0," xlink:title="1" d="M13297.8516,-3409.2428L13297.8215,-3409.2654L13297.7628,-3409.3073L13297.7544,-3409.3136L13297.7643,-3409.3282L13297.7682,-3409.3419L13297.7673,-3409.3601L13297.7573,-3409.3824L13297.7523,-3409.396L13297.7464,-3409.415L13297.732,-3409.4952L13297.726,-3409.541L13297.7221,-3409.5873L13297.7201,-3409.7059L13297.7207,-3409.7442L13297.7217,-3409.8064L13297.7232,-3409.8173L13297.725,-3409.8238L13297.727,-3409.8284L13297.73,-3409.8352L13297.7475,-3409.8513L13297.7678,-3409.8612L13297.7771,-3409.8649L13297.7798,-3409.9108L13297.7807,-3409.9571L13297.7754,-3410.0354L13297.7736,-3410.0569L13297.7711,-3410.0764L13297.7679,-3410.0964L13297.7577,-3410.1421L13297.7542,-3410.1562"/>
<path content="1,瀬戸内運輸（株）,大三島～松山,10.0,10.0,10.0," xlink:title="1" d="M13293.8526,-3401.3672L13293.9258,-3401.4857L13293.9737,-3401.5649L13293.9785,-3401.5756L13293.9785,-3401.5761L13294.0116,-3401.637L13294.0299,-3401.686L13294.0501,-3401.755L13294.063,-3401.7919L13294.073,-3401.8153L13294.1113,-3401.8904L13294.1801,-3402.0255L13294.1891,-3402.0409L13294.2265,-3402.0893L13294.2695,-3402.1355L13294.3017,-3402.1702L13294.323,-3402.1946L13294.3593,-3402.2356L13294.3864,-3402.2586L13294.4287,-3402.2884L13294.4829,-3402.3249L13294.516,-3402.3479L13294.5527,-3402.3779L13294.585,-3402.4048L13294.6219,-3402.4398L13294.6509,-3402.4747L13294.6844,-3402.5208L13294.7011,-3402.5396L13294.7444,-3402.5755L13294.7674,-3402.5921L13294.8195,-3402.6354L13294.8374,-3402.6465L13294.8513,-3402.6521L13294.8674,-3402.6568L13294.8818,-3402.657L13294.9422,-3402.6496L13294.9643,-3402.6484L13294.9822,-3402.649L13295.005,-3402.6534L13295.0293,-3402.6612L13295.0797,-3402.6823L13295.1598,-3402.7219L13295.171,-3402.7285L13295.206,-3402.7452L13295.2253,-3402.7511L13295.2417,-3402.7535L13295.271,-3402.7535L13295.4164,-3402.7484L13295.5244,-3402.7481L13295.5602,-3402.7182L13295.5855,-3402.6927L13295.6216,-3402.6567L13295.6391,-3402.6481L13295.6524,-3402.6455L13295.6673,-3402.6472L13295.7559,-3402.6673L13295.7682,-3402.6694L13295.8181,-3402.6805L13295.8363,-3402.6861L13295.8584,-3402.6954L13295.872,-3402.6995L13295.8964,-3402.7075L13295.933,-3402.721L13295.9793,-3402.7358L13295.9757,-3402.7424L13295.9957,-3402.7454L13296.0778,-3402.7768L13296.1247,-3402.7972L13296.1779,-3402.8241L13296.2706,-3402.8728L13296.2916,-3402.8844L13296.4346,-3402.9617L13296.4642,-3402.9786L13296.5063,-3403.0057L13296.5546,-3403.0381L13296.561,-3403.0422L13296.7289,-3403.1501L13296.853,-3403.232L13296.8585,-3403.236L13296.9151,-3403.2779L13296.9304,-3403.2902L13297.0331,-3403.369L13297.0754,-3403.4143L13297.1192,-3403.4582L13297.1367,-3403.4778L13297.1498,-3403.4985L13297.2618,-3403.6754L13297.273,-3403.6907L13297.3742,-3403.8492L13297.4765,-3404.0012L13297.4911,-3404.027L13297.5137,-3404.0576L13297.517,-3404.061L13297.5689,-3404.12L13297.6237,-3404.1803L13297.6752,-3404.2377L13297.7063,-3404.2755L13297.8112,-3404.3981L13297.8516,-3404.4446"/>
<path content="1,瀬戸内運輸（株）,大三島～松山,10.0,10.0,10.0," xlink:title="1" d="M13297.8516,-3409.2428L13297.8215,-3409.2654L13297.7628,-3409.3073L13297.7544,-3409.3136L13297.7643,-3409.3282L13297.7682,-3409.3419L13297.7673,-3409.3601L13297.7573,-3409.3824L13297.7523,-3409.396L13297.7464,-3409.415L13297.732,-3409.4952L13297.726,-3409.541L13297.7221,-3409.5873L13297.7201,-3409.7059L13297.7207,-3409.7442L13297.7217,-3409.8064L13297.7232,-3409.8173L13297.725,-3409.8238L13297.727,-3409.8284L13297.73,-3409.8352L13297.7475,-3409.8513L13297.7678,-3409.8612L13297.7771,-3409.8649L13297.7798,-3409.9108L13297.7807,-3409.9571L13297.7754,-3410.0354L13297.7736,-3410.0569L13297.7711,-3410.0764L13297.7679,-3410.0964L13297.7577,-3410.1421L13297.7542,-3410.1562"/>
<path content="1,瀬戸内運輸（株）,小浦,5.0,5.0,3.0," xlink:title="1" d="M13297.3452,-3410.1562L13297.3412,-3410.1378L13297.3327,-3410.1039L13297.3262,-3410.078L13297.3166,-3410.0123L13297.3122,-3409.9711L13297.3129,-3409.9443L13297.3163,-3409.9016L13297.3231,-3409.8516L13297.3327,-3409.8168L13297.3464,-3409.7864L13297.3772,-3409.7221L13297.4131,-3409.6564L13297.4552,-3409.5895L13297.5163,-3409.5047"/>
<path content="1,瀬戸内運輸（株）,小浦,5.0,5.0,3.0," xlink:title="1" d="M13297.5163,-3409.5047L13297.5196,-3409.503L13297.5604,-3409.4784L13297.5766,-3409.4645L13297.5777,-3409.4631L13297.5958,-3409.4437L13297.6058,-3409.4327L13297.627,-3409.4098L13297.6483,-3409.3915L13297.6741,-3409.3721L13297.7449,-3409.3201L13297.7544,-3409.3136L13297.7628,-3409.3073L13297.8215,-3409.2654L13297.8516,-3409.2428"/>
<path content="1,瀬戸内運輸（株）,小浦,5.0,5.0,3.0," xlink:title="1" d="M13296.9721,-3409.9542L13297.0782,-3409.8939L13297.1552,-3409.8481L13297.1777,-3409.8322L13297.2089,-3409.8056L13297.2335,-3409.7786L13297.2547,-3409.7436L13297.268,-3409.7201L13297.3026,-3409.6491L13297.3209,-3409.6196L13297.3418,-3409.5937L13297.3563,-3409.5809L13297.4375,-3409.5421L13297.5163,-3409.5047"/>
<path content="1,瀬戸内運輸（株）,小部線,15.5,15.5,11.0," xlink:title="1" d="M13293.4754,-3410.1562L13293.4819,-3410.146L13293.4972,-3410.1247L13293.5113,-3410.1096L13293.532,-3410.0938L13293.5568,-3410.0752L13293.5861,-3410.0466L13293.6081,-3410.0198L13293.6515,-3409.961L13293.6767,-3409.9294L13293.7005,-3409.9049L13293.7301,-3409.8744L13293.7458,-3409.8671L13293.7594,-3409.8599L13293.8074,-3409.8352L13293.8549,-3409.8098L13293.8657,-3409.8032L13293.8814,-3409.7915L13293.9087,-3409.7709L13293.9285,-3409.753L13294.0005,-3409.7303L13294.0332,-3409.7179L13294.0733,-3409.7024L13294.0914,-3409.6925L13294.1146,-3409.6732L13294.1695,-3409.6246L13294.2838,-3409.6571L13294.3187,-3409.6666L13294.4061,-3409.6938L13294.4429,-3409.7048L13294.4847,-3409.7152L13294.5143,-3409.7212L13294.5439,-3409.7269L13294.6479,-3409.7471L13294.6833,-3409.7531L13294.7068,-3409.756L13294.731,-3409.7593L13294.831,-3409.7721L13294.9039,-3409.7825L13295.0448,-3409.8014L13295.1037,-3409.8096L13295.1157,-3409.811L13295.1595,-3409.8172L13295.1922,-3409.8197L13295.2168,-3409.8242L13295.2472,-3409.8387L13295.3235,-3409.8845L13295.393,-3409.9249L13295.4177,-3409.9359L13295.4325,-3409.9416L13295.4477,-3409.9466L13295.4621,-3409.9504L13295.5142,-3409.9596L13295.5794,-3409.9694L13295.5985,-3409.9738L13295.6163,-3409.983L13295.6273,-3409.9931L13295.6395,-3410.0192L13295.6687,-3410.0729L13295.6737,-3410.0792L13295.6904,-3410.0925L13295.7158,-3410.1089L13295.7204,-3410.1121L13295.7462,-3410.1298L13295.7697,-3410.155L13295.7712,-3410.1562M13296.754,-3410.1562L13296.7596,-3410.1359L13296.7673,-3410.1164L13296.7717,-3410.1058L13296.7721,-3410.1046L13296.7849,-3410.0844L13296.7861,-3410.0834L13296.8021,-3410.0677L13296.8196,-3410.0511L13296.8437,-3410.0308L13296.8704,-3410.014L13296.932,-3409.978L13296.9721,-3409.9542L13297.0782,-3409.8939L13297.1552,-3409.8481L13297.1777,-3409.8322L13297.2089,-3409.8056L13297.2335,-3409.7786L13297.2547,-3409.7436L13297.268,-3409.7201L13297.3026,-3409.6491L13297.3209,-3409.6196L13297.3418,-3409.5937L13297.3563,-3409.5809L13297.4375,-3409.5421L13297.5163,-3409.5047L13297.5196,-3409.503L13297.5604,-3409.4784L13297.5777,-3409.4631L13297.5958,-3409.4437L13297.6058,-3409.4327L13297.627,-3409.4098L13297.6483,-3409.3915L13297.6741,-3409.3721L13297.7449,-3409.3201L13297.7544,-3409.3136L13297.7628,-3409.3073L13297.8215,-3409.2654L13297.8516,-3409.2428"/>
<path content="1,瀬戸内運輸（株）,波方線,14.5,14.5,11.0," xlink:title="1" d="M13296.754,-3410.1562L13296.7596,-3410.1359L13296.7673,-3410.1164L13296.7717,-3410.1058L13296.7721,-3410.1046L13296.7849,-3410.0844L13296.7861,-3410.0834L13296.8021,-3410.0677L13296.8196,-3410.0511L13296.8437,-3410.0308L13296.8704,-3410.014L13296.932,-3409.978L13296.9721,-3409.9542L13297.0782,-3409.8939L13297.1552,-3409.8481L13297.1777,-3409.8322L13297.2089,-3409.8056L13297.2335,-3409.7786L13297.2547,-3409.7436L13297.268,-3409.7201L13297.3026,-3409.6491L13297.3209,-3409.6196L13297.3418,-3409.5937L13297.3563,-3409.5809L13297.4375,-3409.5421L13297.5163,-3409.5047L13297.5196,-3409.503L13297.5604,-3409.4784L13297.5777,-3409.4631L13297.5958,-3409.4437L13297.6058,-3409.4327L13297.627,-3409.4098L13297.6483,-3409.3915L13297.6741,-3409.3721L13297.7449,-3409.3201L13297.7544,-3409.3136L13297.7628,-3409.3073L13297.8215,-3409.2654L13297.8516,-3409.2428"/>
<path content="1,瀬戸内運輸（株）,神子森,8.0,8.0,5.0," xlink:title="1" d="M13293.8526,-3401.3672L13293.9258,-3401.4857L13293.9737,-3401.5649L13293.9785,-3401.5761L13294.0116,-3401.637L13294.0299,-3401.686L13294.0501,-3401.755L13294.063,-3401.7919L13294.073,-3401.8153L13294.1113,-3401.8904L13294.1801,-3402.0255L13294.1891,-3402.0409L13294.2265,-3402.0893L13294.2695,-3402.1355L13294.3017,-3402.1702L13294.323,-3402.1946L13294.3593,-3402.2356L13294.3864,-3402.2586L13294.4287,-3402.2884L13294.4829,-3402.3249L13294.516,-3402.3479L13294.5527,-3402.3779L13294.585,-3402.4048L13294.6219,-3402.4398L13294.6509,-3402.4747L13294.6844,-3402.5208L13294.7011,-3402.5396L13294.7674,-3402.5921L13294.8195,-3402.6354L13294.8374,-3402.6465L13294.8513,-3402.6521L13294.8674,-3402.6568L13294.8818,-3402.657L13294.9422,-3402.6496L13294.9643,-3402.6484L13294.9822,-3402.649L13295.005,-3402.6534L13295.0293,-3402.6612L13295.0797,-3402.6823L13295.1598,-3402.7219L13295.171,-3402.7285L13295.206,-3402.7452L13295.2253,-3402.7511L13295.2417,-3402.7535L13295.271,-3402.7535L13295.4164,-3402.7484L13295.5244,-3402.7481L13295.5602,-3402.7182L13295.5855,-3402.6927L13295.6216,-3402.6567L13295.6391,-3402.6481L13295.6524,-3402.6455L13295.6673,-3402.6472L13295.7559,-3402.6673L13295.7682,-3402.6694L13295.8181,-3402.6805L13295.8363,-3402.6861L13295.8584,-3402.6954L13295.872,-3402.6995L13295.8964,-3402.7075L13295.933,-3402.721L13295.9793,-3402.7358L13295.9757,-3402.7424L13295.9957,-3402.7454L13296.0778,-3402.7768L13296.1247,-3402.7972L13296.1779,-3402.8241L13296.2706,-3402.8728L13296.2916,-3402.8844L13296.4346,-3402.9617L13296.4642,-3402.9786L13296.5063,-3403.0057L13296.5546,-3403.0381L13296.561,-3403.0422L13296.7289,-3403.1501L13296.853,-3403.232L13296.8585,-3403.236L13296.9151,-3403.2779L13296.9304,-3403.2902L13297.0331,-3403.369L13297.0754,-3403.4143L13297.1192,-3403.4582L13297.1367,-3403.4778L13297.1498,-3403.4985L13297.2618,-3403.6754L13297.273,-3403.6907L13297.3742,-3403.8492L13297.4765,-3404.0012L13297.4782,-3404.0078L13297.4911,-3404.027L13297.5137,-3404.0576L13297.517,-3404.061L13297.5689,-3404.12L13297.6237,-3404.1803L13297.6752,-3404.2377L13297.7063,-3404.2755L13297.8112,-3404.3981L13297.8516,-3404.4446"/>
<path content="1,瀬戸内運輸（株）,竜岡線,6.0,6.0,4.0," xlink:title="1" d="M13293.8526,-3401.3672L13293.9258,-3401.4857L13293.9737,-3401.5649L13293.9785,-3401.5756L13293.9785,-3401.5761L13294.0116,-3401.637L13294.0299,-3401.686L13294.0501,-3401.755L13294.063,-3401.7919L13294.073,-3401.8153L13294.1113,-3401.8904L13294.1801,-3402.0255L13294.1891,-3402.0409L13294.2265,-3402.0893L13294.2695,-3402.1355L13294.3017,-3402.1702L13294.323,-3402.1946L13294.3593,-3402.2356L13294.3864,-3402.2586L13294.4287,-3402.2884L13294.4829,-3402.3249L13294.516,-3402.3479L13294.5527,-3402.3779L13294.585,-3402.4048L13294.6219,-3402.4398L13294.6509,-3402.4747L13294.6844,-3402.5208L13294.7011,-3402.5396L13294.7444,-3402.5755L13294.7674,-3402.5921L13294.8195,-3402.6354L13294.8374,-3402.6465L13294.8513,-3402.6521L13294.8674,-3402.6568L13294.8818,-3402.657L13294.9422,-3402.6496L13294.9643,-3402.6484L13294.9822,-3402.649L13295.005,-3402.6534L13295.0293,-3402.6612L13295.0797,-3402.6823L13295.1598,-3402.7219L13295.171,-3402.7285L13295.206,-3402.7452L13295.2253,-3402.7511L13295.2417,-3402.7535L13295.271,-3402.7535L13295.4164,-3402.7484L13295.5244,-3402.7481L13295.5602,-3402.7182L13295.5855,-3402.6927L13295.6216,-3402.6567L13295.6391,-3402.6481L13295.6524,-3402.6455L13295.6673,-3402.6472L13295.7559,-3402.6673L13295.7682,-3402.6694L13295.8181,-3402.6805L13295.8363,-3402.6861L13295.8584,-3402.6954L13295.872,-3402.6995L13295.8964,-3402.7075L13295.933,-3402.721L13295.9793,-3402.7358L13295.9757,-3402.7424L13295.9957,-3402.7454L13296.0778,-3402.7768L13296.1247,-3402.7972L13296.1779,-3402.8241L13296.2706,-3402.8728L13296.2916,-3402.8844L13296.4346,-3402.9617L13296.4642,-3402.9786L13296.5063,-3403.0057L13296.5546,-3403.0381L13296.561,-3403.0422L13296.7289,-3403.1501L13296.853,-3403.232L13296.8585,-3403.236L13296.9151,-3403.2779L13296.9304,-3403.2902L13297.0331,-3403.369L13297.0754,-3403.4143L13297.1192,-3403.4582L13297.1367,-3403.4778L13297.1498,-3403.4985L13297.2618,-3403.6754L13297.273,-3403.6907L13297.3742,-3403.8492L13297.4765,-3404.0012L13297.4782,-3404.0078L13297.4911,-3404.027L13297.5137,-3404.0576L13297.517,-3404.061L13297.5689,-3404.12L13297.6237,-3404.1803L13297.6752,-3404.2377L13297.7063,-3404.2755L13297.8112,-3404.3981L13297.8516,-3404.4446"/>
<path content="1,瀬戸内運輸（株）,菊間線,10.0,10.0,5.0," xlink:title="1" d="M13289.0625,-3405.8297L13289.1263,-3405.8676L13289.1559,-3405.8884L13289.1892,-3405.916L13289.1993,-3405.9256L13289.2343,-3405.9616L13289.2792,-3406.0124L13289.3178,-3406.0541L13289.3475,-3406.0839L13289.37,-3406.1031L13289.3894,-3406.1194L13289.4117,-3406.1367L13289.436,-3406.1518L13289.4732,-3406.1729L13289.4973,-3406.1846L13289.5518,-3406.2101L13289.7714,-3406.3102L13289.8356,-3406.3374L13289.8706,-3406.3512L13289.8988,-3406.3595L13289.9179,-3406.3676L13289.9858,-3406.3877L13290.0322,-3406.4012L13290.0653,-3406.4091L13290.1377,-3406.4243L13290.1457,-3406.4253L13290.1858,-3406.431L13290.2398,-3406.4344L13290.2974,-3406.4344L13290.3224,-3406.4338L13290.384,-3406.4282L13290.4373,-3406.4207L13290.4807,-3406.4153L13290.5107,-3406.4096L13290.5355,-3406.404L13290.5764,-3406.3921L13290.6039,-3406.3832L13290.6485,-3406.3663L13290.6681,-3406.3595L13290.7109,-3406.341L13290.746,-3406.3264L13290.8356,-3406.2913L13290.8562,-3406.2832L13290.8617,-3406.2809L13290.898,-3406.2624L13290.9712,-3406.2386L13290.9988,-3406.2284L13291.0396,-3406.2182L13291.0694,-3406.212L13291.0952,-3406.2084L13291.1227,-3406.2051L13291.1519,-3406.2042L13291.1944,-3406.2056L13291.2172,-3406.2089L13291.2702,-3406.2164L13291.3089,-3406.2232L13291.3336,-3406.2281L13291.3787,-3406.2313L13291.4085,-3406.231L13291.4383,-3406.2277L13291.4602,-3406.22L13291.4755,-3406.2077L13291.4924,-3406.1871L13291.5204,-3406.1517L13291.5369,-3406.1302L13291.5789,-3406.0753L13291.6019,-3406.0532L13291.6295,-3406.0336L13291.6637,-3406.0172L13291.6886,-3406.0081L13291.7092,-3406.0041L13291.7272,-3406.0026L13291.7539,-3406.0033L13291.7818,-3406.0064L13291.8114,-3406.011L13291.82,-3406.0138L13291.8772,-3406.0283L13291.989,-3406.0567L13292.191,-3406.1089L13292.1962,-3406.1107L13292.2547,-3406.1259L13292.2783,-3406.1325L13292.403,-3406.1661L13292.5222,-3406.1968L13292.5741,-3406.2094L13292.6361,-3406.2259L13292.7471,-3406.2571L13292.7913,-3406.2694L13292.812,-3406.2772L13292.8604,-3406.2974L13292.9169,-3406.3222L13292.9826,-3406.3568L13293.0637,-3406.3973L13293.1301,-3406.4306L13293.1781,-3406.4576L13293.2211,-3406.48L13293.2329,-3406.4903L13293.2566,-3406.5066L13293.2742,-3406.5207L13293.3053,-3406.5438L13293.3242,-3406.5574L13293.3439,-3406.5697L13293.3594,-3406.5793L13293.4311,-3406.6188L13293.4737,-3406.6396L13293.5015,-3406.6531L13293.5243,-3406.6626L13293.5424,-3406.6702L13293.5708,-3406.6815L13293.6271,-3406.6966L13293.707,-3406.7101L13293.8122,-3406.7277L13293.8796,-3406.7399L13293.883,-3406.7405L13294.0617,-3406.7709L13294.1969,-3406.794L13294.2464,-3406.8024L13294.272,-3406.8056L13294.2836,-3406.8069L13294.2956,-3406.8085L13294.3013,-3406.8093L13294.4044,-3406.8227L13294.4119,-3406.8236L13294.4243,-3406.8251L13294.5306,-3406.8369L13294.5388,-3406.8377L13294.5472,-3406.8386L13294.6224,-3406.8473L13294.6291,-3406.8473L13294.6415,-3406.8465L13294.6657,-3406.8406L13294.7151,-3406.8261L13294.7739,-3406.8086L13294.7805,-3406.8063L13294.8048,-3406.7978L13294.8419,-3406.7872L13294.8583,-3406.7822L13294.8662,-3406.7797L13294.9705,-3406.746L13294.9855,-3406.7387L13295.0736,-3406.7098L13295.1551,-3406.6837L13295.2357,-3406.6545L13295.2962,-3406.6298L13295.3143,-3406.6234L13295.3727,-3406.6027L13295.4296,-3406.5818L13295.4714,-3406.5671L13295.4996,-3406.5605L13295.5562,-3406.5483L13295.6523,-3406.5275L13295.7503,-3406.5044L13295.7551,-3406.5033L13295.8478,-3406.4821L13295.8654,-3406.4765L13295.9571,-3406.4527L13296.0704,-3406.4221L13296.0744,-3406.421L13296.1177,-3406.4103L13296.1942,-3406.3889L13296.1991,-3406.3874L13296.2658,-3406.3675L13296.2903,-3406.3601L13296.318,-3406.3517L13296.4221,-3406.3184L13296.4527,-3406.3089L13296.4892,-3406.2976L13296.5156,-3406.2897L13296.6168,-3406.2577L13296.6244,-3406.2571L13296.6388,-3406.2524L13296.7436,-3406.2238L13296.8052,-3406.2074L13296.8749,-3406.1894L13296.9607,-3406.1635L13297.0093,-3406.1511L13297.0325,-3406.146L13297.0806,-3406.1347L13297.1496,-3406.1217L13297.2086,-3406.1082L13297.2154,-3406.1064L13297.2631,-3406.0952L13297.3018,-3406.0834L13297.3243,-3406.0755L13297.3362,-3406.0717L13297.3467,-3406.0668L13297.3827,-3406.0539L13297.4392,-3406.0361L13297.473,-3406.0248L13297.4776,-3406.0246L13297.513,-3406.0222L13297.5305,-3406.022L13297.6144,-3406.0282L13297.6508,-3406.0356L13297.7011,-3406.0443L13297.7123,-3406.0466L13297.8438,-3406.0687L13297.8516,-3406.0701"/>
<path content="1,鞆鉄道（株）,しまなみライナー,16.0,16.0,16.0," xlink:title="1" d="M13297.8516,-3405.3212L13297.8129,-3405.3603L13297.7476,-3405.4261L13297.6698,-3405.4976L13297.6522,-3405.5124L13297.6311,-3405.5073L13297.6004,-3405.5001L13297.5774,-3405.4952L13297.5626,-3405.4932L13297.5391,-3405.4923L13297.5202,-3405.4927L13297.5025,-3405.4952L13297.4843,-3405.4991L13297.4566,-3405.5065L13297.4301,-3405.5133L13297.413,-3405.5187L13297.39,-3405.5221L13297.3682,-3405.5212L13297.3511,-3405.5187L13297.3376,-3405.5148L13297.3256,-3405.5111L13297.3193,-3405.5076L13297.3094,-3405.5012L13297.2942,-3405.49L13297.2831,-3405.4776L13297.2334,-3405.401L13297.2026,-3405.3549L13297.1897,-3405.3339L13297.1783,-3405.3222L13297.1594,-3405.3105L13297.1432,-3405.3046L13297.1275,-3405.3028L13297.1128,-3405.3046L13297.095,-3405.3114L13297.0858,-3405.3168L13297.0777,-3405.3272L13297.0695,-3405.342L13297.0652,-3405.3591L13297.0594,-3405.4029L13297.0569,-3405.4706L13297.0582,-3405.5226L13297.0617,-3405.5751L13297.0706,-3405.6366L13297.0804,-3405.6848L13297.0888,-3405.7192L13297.1072,-3405.7831L13297.1329,-3405.8545L13297.1662,-3405.9363L13297.2054,-3406.0216L13297.2571,-3406.1416L13297.272,-3406.1828L13297.2856,-3406.2342L13297.3048,-3406.3137L13297.3107,-3406.3529L13297.3204,-3406.4303L13297.3217,-3406.4478L13297.3253,-3406.497L13297.3342,-3406.5877L13297.3426,-3406.6461L13297.3508,-3406.6933L13297.3646,-3406.7638L13297.3748,-3406.803L13297.3908,-3406.8609L13297.4338,-3406.9908L13297.4906,-3407.1633L13297.5177,-3407.2507L13297.5383,-3407.3381L13297.5472,-3407.3786L13297.5529,-3407.4043L13297.5669,-3407.4746L13297.5788,-3407.5502L13297.5841,-3407.5979L13297.5868,-3407.6385L13297.604,-3407.7937L13297.6175,-3407.8779L13297.6305,-3407.9536L13297.6548,-3408.0783L13297.6878,-3408.2121L13297.723,-3408.3377L13297.782,-3408.5161L13297.8363,-3408.6624L13297.8508,-3408.7095L13297.8516,-3408.7126M13297.8516,-3409.2623L13297.8429,-3409.2944L13297.8198,-3409.3704L13297.7992,-3409.4429L13297.7939,-3409.4627L13297.7824,-3409.5114L13297.7757,-3409.5521L13297.7727,-3409.5716L13297.7669,-3409.6319L13297.7657,-3409.6821L13297.766,-3409.7L13297.7686,-3409.7621L13297.7757,-3409.8425L13297.7798,-3409.9108L13297.7807,-3409.9571L13297.7754,-3410.0354L13297.7736,-3410.0569L13297.7711,-3410.0764L13297.7679,-3410.0964L13297.7577,-3410.1421L13297.7542,-3410.1562"/>
<path content="1,（株）中国バス,山陰・四国　今冶線,16.0,16.0,16.0," xlink:title="1" d="M13297.8516,-3405.3212L13297.8129,-3405.3603L13297.7476,-3405.4261L13297.6698,-3405.4976L13297.6522,-3405.5124L13297.6311,-3405.5073L13297.6004,-3405.5001L13297.5774,-3405.4952L13297.5626,-3405.4932L13297.5391,-3405.4923L13297.5202,-3405.4927L13297.5025,-3405.4952L13297.4843,-3405.4991L13297.4566,-3405.5065L13297.4301,-3405.5133L13297.413,-3405.5187L13297.39,-3405.5221L13297.3682,-3405.5212L13297.3511,-3405.5187L13297.3376,-3405.5148L13297.3256,-3405.5111L13297.3193,-3405.5076L13297.3094,-3405.5012L13297.2942,-3405.49L13297.2831,-3405.4776L13297.2334,-3405.401L13297.2026,-3405.3549L13297.1897,-3405.3339L13297.1783,-3405.3222L13297.1594,-3405.3105L13297.1432,-3405.3046L13297.1275,-3405.3028L13297.1128,-3405.3046L13297.095,-3405.3114L13297.0858,-3405.3168L13297.0777,-3405.3272L13297.0695,-3405.342L13297.0652,-3405.3591L13297.0594,-3405.4029L13297.0569,-3405.4706L13297.0582,-3405.5226L13297.0617,-3405.5751L13297.0706,-3405.6366L13297.0804,-3405.6848L13297.0888,-3405.7192L13297.1072,-3405.7831L13297.1329,-3405.8545L13297.1662,-3405.9363L13297.2054,-3406.0216L13297.2571,-3406.1416L13297.272,-3406.1828L13297.2856,-3406.2342L13297.3048,-3406.3137L13297.3107,-3406.3529L13297.3204,-3406.4303L13297.3217,-3406.4478L13297.3253,-3406.497L13297.3342,-3406.5877L13297.3426,-3406.6461L13297.3508,-3406.6933L13297.3646,-3406.7638L13297.3748,-3406.803L13297.3908,-3406.8609L13297.4338,-3406.9908L13297.4906,-3407.1633L13297.5177,-3407.2507L13297.5383,-3407.3381L13297.5472,-3407.3786L13297.5529,-3407.4043L13297.5669,-3407.4746L13297.5788,-3407.5502L13297.5841,-3407.5979L13297.5868,-3407.6385L13297.604,-3407.7937L13297.6175,-3407.8779L13297.6305,-3407.9536L13297.6548,-3408.0783L13297.6878,-3408.2121L13297.723,-3408.3377L13297.782,-3408.5161L13297.8363,-3408.6624L13297.8508,-3408.7095L13297.8516,-3408.7126M13297.8516,-3409.2623L13297.8429,-3409.2944L13297.8198,-3409.3704L13297.7992,-3409.4429L13297.7939,-3409.4627L13297.7824,-3409.5114L13297.7757,-3409.5521L13297.7727,-3409.5716L13297.7669,-3409.6319L13297.7657,-3409.6821L13297.766,-3409.7L13297.7686,-3409.7621L13297.7757,-3409.8425L13297.7798,-3409.9108L13297.7807,-3409.9571L13297.7754,-3410.0354L13297.7736,-3410.0569L13297.7711,-3410.0764L13297.7679,-3410.0964L13297.7577,-3410.1421L13297.7542,-3410.1562"/>
<path content="1,（株）中国バス,山陰・四国　松山線,4.0,4.0,4.0," xlink:title="1" d="M13297.8516,-3405.3212L13297.8129,-3405.3603L13297.7476,-3405.4261L13297.6698,-3405.4976L13297.6522,-3405.5124L13297.6311,-3405.5073L13297.6004,-3405.5001L13297.5774,-3405.4952L13297.5626,-3405.4932L13297.5391,-3405.4923L13297.5202,-3405.4927L13297.5025,-3405.4952L13297.4843,-3405.4991L13297.4566,-3405.5065L13297.4301,-3405.5133L13297.413,-3405.5187L13297.39,-3405.5221L13297.3682,-3405.5212L13297.3511,-3405.5187L13297.3376,-3405.5148L13297.3256,-3405.5111L13297.3193,-3405.5076L13297.3094,-3405.5012L13297.2942,-3405.49L13297.2831,-3405.4776L13297.2334,-3405.401L13297.2026,-3405.3549L13297.1897,-3405.3339L13297.1783,-3405.3222L13297.1594,-3405.3105L13297.1432,-3405.3046L13297.1275,-3405.3028L13297.1128,-3405.3046L13297.095,-3405.3114L13297.0858,-3405.3168L13297.0777,-3405.3272L13297.0695,-3405.342L13297.0652,-3405.3591L13297.0594,-3405.4029L13297.0569,-3405.4706L13297.0582,-3405.5226L13297.0617,-3405.5751L13297.0706,-3405.6366L13297.0804,-3405.6848L13297.0888,-3405.7192L13297.1072,-3405.7831L13297.1329,-3405.8545L13297.1662,-3405.9363L13297.2054,-3406.0216L13297.2571,-3406.1416L13297.272,-3406.1828L13297.2856,-3406.2342L13297.3048,-3406.3137L13297.3107,-3406.3529L13297.3204,-3406.4303L13297.3217,-3406.4478L13297.3253,-3406.497L13297.3342,-3406.5877L13297.3426,-3406.6461L13297.3508,-3406.6933L13297.3646,-3406.7638L13297.3748,-3406.803L13297.3908,-3406.8609L13297.4338,-3406.9908L13297.4906,-3407.1633L13297.5177,-3407.2507L13297.5383,-3407.3381L13297.5472,-3407.3786L13297.5529,-3407.4043L13297.5669,-3407.4746L13297.5788,-3407.5502L13297.5841,-3407.5979L13297.5868,-3407.6385L13297.604,-3407.7937L13297.6175,-3407.8779L13297.6305,-3407.9536L13297.6548,-3408.0783L13297.6878,-3408.2121L13297.723,-3408.3377L13297.782,-3408.5161L13297.8363,-3408.6624L13297.8508,-3408.7095L13297.8516,-3408.7126M13297.8516,-3409.2623L13297.8429,-3409.2944L13297.8198,-3409.3704L13297.7992,-3409.4429L13297.7939,-3409.4627L13297.7824,-3409.5114L13297.7757,-3409.5521L13297.7727,-3409.5716L13297.7669,-3409.6319L13297.7657,-3409.6821L13297.766,-3409.7L13297.7686,-3409.7621L13297.7757,-3409.8425L13297.7798,-3409.9108L13297.7807,-3409.9571"/>
<path content="1,（株）中国バス,山陰・四国　松山線,4.0,4.0,4.0," xlink:title="1" d="M13297.7807,-3409.9571L13297.8516,-3409.9673"/>
<path content="1,（株）中国バス,山陰・四国　松山線,4.0,4.0,4.0," xlink:title="1" d="M13297.7807,-3409.9571L13297.7754,-3410.0354L13297.7736,-3410.0569L13297.7711,-3410.0764L13297.7679,-3410.0964L13297.7577,-3410.1421L13297.7542,-3410.1562"/>
<path content="1,（株）瀬戸内しまなみリーディングス,しまなみライナー　今治～広島,16.0,16.0,16.0," xlink:title="1" d="M13297.8516,-3409.2428L13297.8215,-3409.2654L13297.7628,-3409.3073L13297.7544,-3409.3136L13297.7643,-3409.3282L13297.7682,-3409.3419L13297.7673,-3409.3601L13297.7573,-3409.3824L13297.7523,-3409.396L13297.7464,-3409.415L13297.732,-3409.4952L13297.726,-3409.541L13297.7221,-3409.5873L13297.7201,-3409.7059L13297.7207,-3409.7442L13297.7217,-3409.8064L13297.7232,-3409.8173L13297.725,-3409.8238L13297.727,-3409.8284L13297.73,-3409.8352L13297.7475,-3409.8513L13297.7678,-3409.8612L13297.7771,-3409.8649L13297.7798,-3409.9108L13297.7807,-3409.9571L13297.7754,-3410.0354L13297.7736,-3410.0569L13297.7711,-3410.0764L13297.7679,-3410.0964L13297.7577,-3410.1421L13297.7542,-3410.1562"/>
<path content="1,（株）瀬戸内しまなみリーディングス,しまなみライナー　今治～福山,3.0,3.0,3.0," xlink:title="1" d="M13297.8516,-3409.2428L13297.8215,-3409.2654L13297.7628,-3409.3073L13297.7544,-3409.3136L13297.7643,-3409.3282L13297.7682,-3409.3419L13297.7673,-3409.3601L13297.7573,-3409.3824L13297.7523,-3409.396L13297.7464,-3409.415L13297.732,-3409.4952L13297.726,-3409.541L13297.7221,-3409.5873L13297.7201,-3409.7059L13297.7207,-3409.7442L13297.7217,-3409.8064L13297.7232,-3409.8173L13297.725,-3409.8238L13297.727,-3409.8284L13297.73,-3409.8352L13297.7475,-3409.8513L13297.7678,-3409.8612L13297.7771,-3409.8649L13297.7798,-3409.9108L13297.7807,-3409.9571L13297.7754,-3410.0354L13297.7736,-3410.0569L13297.7711,-3410.0764L13297.7679,-3410.0964L13297.7577,-3410.1421L13297.7542,-3410.1562"/>
<path content="1,（株）瀬戸内しまなみリーディングス,キララエクスプレス　松山～新尾道・福山,4.0,4.0,4.0," xlink:title="1" d="M13289.0625,-3405.8297L13289.1263,-3405.8676L13289.1559,-3405.8884L13289.1892,-3405.916L13289.1993,-3405.9256L13289.2343,-3405.9616L13289.2792,-3406.0124L13289.3178,-3406.0541L13289.3475,-3406.0839L13289.37,-3406.1031L13289.3894,-3406.1194L13289.4117,-3406.1367L13289.436,-3406.1518L13289.4732,-3406.1729L13289.4973,-3406.1846L13289.5518,-3406.2101L13289.7714,-3406.3102L13289.8356,-3406.3374L13289.8706,-3406.3512L13289.9179,-3406.3676L13289.9858,-3406.3877L13290.0322,-3406.4012L13290.0653,-3406.4091L13290.1377,-3406.4243L13290.1457,-3406.4253L13290.1858,-3406.431L13290.2398,-3406.4344L13290.2974,-3406.4344L13290.3224,-3406.4338L13290.384,-3406.4282L13290.4373,-3406.4207L13290.4807,-3406.4153L13290.5107,-3406.4096L13290.5355,-3406.404L13290.5764,-3406.3921L13290.6039,-3406.3832L13290.6485,-3406.3663L13290.6681,-3406.3595L13290.7109,-3406.341L13290.746,-3406.3264L13290.8356,-3406.2913L13290.8562,-3406.2832L13290.8617,-3406.2809L13290.8882,-3406.269L13290.9712,-3406.2386L13290.9988,-3406.2284L13291.0396,-3406.2182L13291.0694,-3406.212L13291.0952,-3406.2084L13291.1227,-3406.2051L13291.1519,-3406.2042L13291.1944,-3406.2056L13291.2172,-3406.2089L13291.2702,-3406.2164L13291.3336,-3406.2281L13291.3787,-3406.2313L13291.4085,-3406.231L13291.4383,-3406.2277L13291.4602,-3406.22L13291.4755,-3406.2077L13291.4924,-3406.1871L13291.5204,-3406.1517L13291.5369,-3406.1302L13291.5789,-3406.0753L13291.6019,-3406.0532L13291.6295,-3406.0336L13291.6637,-3406.0172L13291.6886,-3406.0081L13291.7092,-3406.0041L13291.7272,-3406.0026L13291.7539,-3406.0033L13291.7818,-3406.0064L13291.8114,-3406.011L13291.82,-3406.0138L13291.989,-3406.0567L13292.191,-3406.1089L13292.1962,-3406.1107L13292.2783,-3406.1325L13292.403,-3406.1661L13292.5222,-3406.1968L13292.6361,-3406.2259L13292.7471,-3406.2571L13292.812,-3406.2772L13292.8604,-3406.2974L13292.9169,-3406.3222L13292.9826,-3406.3568L13293.0637,-3406.3973L13293.1301,-3406.4306L13293.1781,-3406.4576L13293.2006,-3406.47L13293.2234,-3406.4841L13293.2329,-3406.4903L13293.2566,-3406.5066L13293.2742,-3406.5207L13293.3053,-3406.5438L13293.3242,-3406.5574L13293.3439,-3406.5697L13293.3594,-3406.5793L13293.4311,-3406.6188L13293.4737,-3406.6396L13293.5015,-3406.6531L13293.5424,-3406.6702L13293.5708,-3406.6815L13293.6271,-3406.6966L13293.707,-3406.7101L13293.8796,-3406.7399L13293.883,-3406.7405L13294.0617,-3406.7709L13294.2464,-3406.8024L13294.272,-3406.8056L13294.2836,-3406.8069L13294.2956,-3406.8085L13294.3013,-3406.8093L13294.4044,-3406.8227L13294.4119,-3406.8236L13294.4243,-3406.8251L13294.5306,-3406.8369L13294.5388,-3406.8377L13294.5472,-3406.8386L13294.6224,-3406.8473L13294.6291,-3406.8473L13294.6415,-3406.8465L13294.6657,-3406.8406L13294.7151,-3406.8261L13294.7739,-3406.8086L13294.7805,-3406.8063L13294.7885,-3406.8035L13294.834,-3406.7897L13294.8419,-3406.7872L13294.8583,-3406.7822L13294.8662,-3406.7797L13294.9705,-3406.746L13294.9855,-3406.7387L13294.9993,-3406.7293L13295.023,-3406.7066L13295.1613,-3406.5666L13295.1801,-3406.5469L13295.1895,-3406.5371L13295.198,-3406.5289L13295.2497,-3406.4781L13295.2883,-3406.4441L13295.3102,-3406.4255L13295.3266,-3406.4128L13295.3489,-3406.3966L13295.3741,-3406.3798L13295.4021,-3406.3639L13295.4343,-3406.3469L13295.4708,-3406.3313L13295.5032,-3406.3182L13295.5284,-3406.3084L13295.5506,-3406.3011L13295.5671,-3406.2971L13295.7001,-3406.2698L13295.7647,-3406.2586L13295.7774,-3406.256L13295.7909,-3406.2537L13295.957,-3406.2232L13295.9829,-3406.2182L13295.9859,-3406.2176L13296.1105,-3406.1936L13296.1346,-3406.1873L13296.1394,-3406.1861L13296.1512,-3406.1833L13296.2243,-3406.1641L13296.2473,-3406.1579L13296.2513,-3406.1568L13296.3628,-3406.1251L13296.3754,-3406.121L13296.3865,-3406.1175L13296.4397,-3406.0996L13296.4542,-3406.0941L13296.4662,-3406.0896L13296.5794,-3406.0461L13296.5913,-3406.0412L13296.595,-3406.0397L13296.6072,-3406.0348L13296.6952,-3405.9993L13296.7114,-3405.9926L13296.781,-3405.9617L13296.7946,-3405.9557L13296.7984,-3405.9539L13296.8698,-3405.9226L13296.8946,-3405.9114L13296.9033,-3405.9075L13296.9919,-3405.8679L13297.0976,-3405.8249L13297.1039,-3405.8226L13297.1191,-3405.8161"/>
<path content="1,（株）瀬戸内しまなみリーディングス,キララエクスプレス　松山～新尾道・福山,4.0,4.0,4.0," xlink:title="1" d="M13297.1191,-3405.8161L13297.1378,-3405.808L13297.1834,-3405.7876L13297.21,-3405.7763L13297.2226,-3405.7708L13297.2584,-3405.7555L13297.3193,-3405.7264L13297.3763,-3405.6979L13297.3949,-3405.6881L13297.4781,-3405.6416L13297.4862,-3405.6363L13297.4909,-3405.6333L13297.5353,-3405.6034L13297.5844,-3405.5676L13297.6351,-3405.5268L13297.6522,-3405.5124L13297.6311,-3405.5073L13297.6004,-3405.5001L13297.5774,-3405.4952L13297.5626,-3405.4932L13297.5391,-3405.4923L13297.5202,-3405.4927L13297.5025,-3405.4952L13297.4843,-3405.4991L13297.4566,-3405.5065L13297.4301,-3405.5133L13297.413,-3405.5187L13297.39,-3405.5221L13297.3682,-3405.5212L13297.3511,-3405.5187L13297.3376,-3405.5148L13297.3256,-3405.5111L13297.3193,-3405.5076L13297.3094,-3405.5012L13297.2942,-3405.49L13297.2831,-3405.4776L13297.2334,-3405.401L13297.2026,-3405.3549L13297.1897,-3405.3339L13297.1783,-3405.3222L13297.1594,-3405.3105L13297.1432,-3405.3046L13297.1275,-3405.3028L13297.1128,-3405.3046L13297.095,-3405.3114L13297.0858,-3405.3168L13297.0777,-3405.3272L13297.0695,-3405.342L13297.0652,-3405.3591L13297.0594,-3405.4029L13297.0569,-3405.4706L13297.0582,-3405.5226L13297.0617,-3405.5751L13297.0706,-3405.6366L13297.0804,-3405.6848L13297.0888,-3405.7192L13297.1072,-3405.7831L13297.1191,-3405.8161"/>
<path content="1,（株）瀬戸内しまなみリーディングス,キララエクスプレス　松山～新尾道・福山,4.0,4.0,4.0," xlink:title="1" d="M13297.1191,-3405.8161L13297.1329,-3405.8545L13297.1662,-3405.9363L13297.2054,-3406.0216L13297.2571,-3406.1416L13297.272,-3406.1828L13297.2856,-3406.2342L13297.3048,-3406.3137L13297.3107,-3406.3529L13297.3204,-3406.4303L13297.3217,-3406.4478L13297.3253,-3406.497L13297.3342,-3406.5877L13297.3426,-3406.6461L13297.3508,-3406.6933L13297.3646,-3406.7638L13297.3748,-3406.803L13297.3908,-3406.8609L13297.4338,-3406.9908L13297.4906,-3407.1633L13297.5177,-3407.2507L13297.5383,-3407.3381L13297.5472,-3407.3786L13297.5529,-3407.4043L13297.5669,-3407.4746L13297.5788,-3407.5502L13297.5841,-3407.5979L13297.5868,-3407.6385L13297.604,-3407.7937L13297.6175,-3407.8779L13297.6305,-3407.9536L13297.6548,-3408.0783L13297.6878,-3408.2121L13297.723,-3408.3377L13297.782,-3408.5161L13297.8363,-3408.6624L13297.8508,-3408.7095L13297.8516,-3408.7126M13297.8516,-3409.2623L13297.8429,-3409.2944L13297.8198,-3409.3704L13297.7992,-3409.4429L13297.7939,-3409.4627L13297.7824,-3409.5114L13297.7757,-3409.5521L13297.7727,-3409.5716L13297.7669,-3409.6319L13297.7657,-3409.6821L13297.766,-3409.7L13297.7679,-3409.744"/>
<path content="1,（株）瀬戸内しまなみリーディングス,キララエクスプレス　松山～新尾道・福山,4.0,4.0,4.0," xlink:title="1" d="M13297.7679,-3409.744L13297.783,-3409.744L13297.7926,-3409.7439L13297.816,-3409.7451L13297.8394,-3409.7526L13297.8516,-3409.7627"/>
<path content="1,（株）瀬戸内しまなみリーディングス,キララエクスプレス　松山～新尾道・福山,4.0,4.0,4.0," xlink:title="1" d="M13297.7679,-3409.744L13297.7686,-3409.7621L13297.7757,-3409.8425L13297.7798,-3409.9108L13297.7807,-3409.9571L13297.7754,-3410.0354L13297.7736,-3410.0569L13297.7711,-3410.0764L13297.7679,-3410.0964L13297.7577,-3410.1421L13297.7542,-3410.1562"/>
</g>
</svg>
