<?xml version="1.0" encoding="UTF-8"?>
<svg  xmlns="http://www.w3.org/2000/svg" xmlns:xlink="http://www.w3.org/1999/xlink" xmlns:go="http://purl.org/svgmap/profile" property="N07_001,N07_002,N07_003,N07_004,N07_005,N07_006,N07_007" viewBox="13860.3515625 -3665.0390625 8.7890625 8.7890625" go:dataArea="13860.3515625 -3665.0390625 8.7890625 8.7890625" >
<metadata>
 <rdf:RDF xmlns:rdf="http://www.w3.org/1999/02/22-rdf-syntax-ns#" xmlns:crs="http://opengis.org/xmldtds/transformations.dtd" xmlns:svg="http://www.w3.org/svg" >
  <rdf:Description>
   <crs:CoordinateReferenceSystem rdf:resource="http://purl.org/crs/84" svg:transform="matrix(100.0,0.0,0.0,-100.0,0.0,0.0)" />
  </rdf:Description>
 </rdf:RDF>
</metadata>
<globalCoordinateSystem srsName="http://purl.org/crs/84" transform="matrix(100.0,0.0,0.0,-100.0,0.0,0.0)" />
<defs>
 <g id="p0" >
  <circle cx="0.0" cy="0.0" r="3" stroke="green" stroke-width="0.75" vector-effect="non-scaling-stroke" />
 </g>
</defs>
<g fill="none" fill-rule="evenodd" stroke="#FF00FF" stroke-width="0.75" opacity="0.5" vector-effect="non-scaling-stroke" stroke-linejoin="bevel" >
<path content="3,草津町,草津温泉A巡回（温泉街周辺）,13.0,13.0,13.0," xlink:title="3" d="M13860.3516,-3662.241L13860.3603,-3662.2404L13860.3859,-3662.2396L13860.4005,-3662.2339L13860.4103,-3662.2278L13860.425,-3662.2126L13860.4829,-3662.2093L13860.5255,-3662.212L13860.55,-3662.2103L13860.594,-3662.2008L13860.6226,-3662.1991L13860.624,-3662.2086L13860.6241,-3662.2296L13860.617,-3662.2379L13860.5842,-3662.2638L13860.5706,-3662.2713L13860.5584,-3662.2762L13860.5421,-3662.2826L13860.5323,-3662.2856L13860.5151,-3662.2909L13860.496,-3662.2983L13860.4862,-3662.306L13860.4827,-3662.3127L13860.4806,-3662.3206L13860.4809,-3662.3233L13860.4814,-3662.3262L13860.4841,-3662.3295L13860.4882,-3662.3336L13860.4948,-3662.3377L13860.516,-3662.3496L13860.5246,-3662.3553L13860.528,-3662.3583L13860.5298,-3662.3607L13860.5312,-3662.3644L13860.5318,-3662.3712L13860.5322,-3662.3746L13860.5343,-3662.4021L13860.533,-3662.4198L13860.5309,-3662.4257L13860.5258,-3662.4317L13860.5126,-3662.4415L13860.4817,-3662.4697L13860.4376,-3662.5155L13860.4285,-3662.5256L13860.4215,-3662.5358L13860.4166,-3662.5414L13860.3936,-3662.5605L13860.3516,-3662.5845"/>
<path content="3,草津町,草津温泉C巡回（南本町・昭和区方面）,7.0,7.0,7.0," xlink:title="3" d="M13860.3516,-3661.9362L13860.3901,-3661.9524L13860.4159,-3661.949L13860.4648,-3661.9491L13860.476,-3661.9507L13860.4955,-3661.9519L13860.5123,-3661.9547L13860.5234,-3661.9558L13860.5423,-3661.9581L13860.6799,-3661.9558L13860.7232,-3661.9552L13860.9298,-3661.9457L13860.9389,-3661.9445L13860.9878,-3661.9457L13861.0032,-3661.9429L13861.0087,-3661.9389L13861.0402,-3661.9316L13861.0674,-3661.9265L13861.0884,-3661.9254L13861.0974,-3661.9248L13861.1644,-3661.9265L13861.1861,-3661.9282L13861.1908,-3661.9308L13861.1931,-3661.9329L13861.195,-3661.9357L13861.1959,-3661.9385L13861.1959,-3661.9419L13861.1943,-3661.9465L13861.1901,-3661.9514L13861.1861,-3661.9556L13861.1819,-3661.9601L13861.1784,-3661.9637L13861.1756,-3661.9665L13861.1617,-3661.9794L13861.1226,-3661.9941L13861.0842,-3662.0071L13861.0702,-3662.0149L13861.0611,-3662.0312L13861.059,-3662.0358L13861.0604,-3662.0436L13861.0534,-3662.0463L13861.0543,-3662.0598L13861.0464,-3662.0622L13861.0087,-3662.0735L13860.9836,-3662.0827L13860.9759,-3662.0848L13860.9641,-3662.0898L13860.9578,-3662.0915L13860.9759,-3662.1332L13860.9794,-3662.1388L13860.9843,-3662.1546L13860.9843,-3662.1878"/>
<path content="3,草津町,草津温泉C巡回（南本町・昭和区方面）,7.0,7.0,7.0," xlink:title="3" d="M13860.9843,-3662.1878L13860.9641,-3662.1861L13860.9138,-3662.1872L13860.8923,-3662.1901L13860.8775,-3662.1889L13860.8684,-3662.19L13860.7825,-3662.1917L13860.7448,-3662.1929L13860.721,-3662.1946L13860.6994,-3662.1946L13860.6694,-3662.1968L13860.6226,-3662.1991L13860.594,-3662.2008L13860.55,-3662.2103L13860.5255,-3662.212L13860.4829,-3662.2093L13860.425,-3662.2126L13860.3629,-3662.2137L13860.3516,-3662.2114"/>
<path content="3,草津町,草津温泉C巡回（南本町・昭和区方面）,7.0,7.0,7.0," xlink:title="3" d="M13861.199,-3662.1991L13861.1707,-3662.2002L13861.1477,-3662.1996L13861.0918,-3662.1946L13861.0394,-3662.1917L13860.9989,-3662.1889L13860.9843,-3662.1878"/>
</g>
</svg>
