<?xml version="1.0" encoding="UTF-8"?>
<svg  xmlns="http://www.w3.org/2000/svg" xmlns:xlink="http://www.w3.org/1999/xlink" xmlns:go="http://purl.org/svgmap/profile" property="N07_001,N07_002,N07_003,N07_004,N07_005,N07_006,N07_007" viewBox="14049.31640625 -4069.3359375 4.39453125 4.39453125" go:dataArea="14049.31640625 -4069.3359375 4.39453125 4.39453125" >
<metadata>
 <rdf:RDF xmlns:rdf="http://www.w3.org/1999/02/22-rdf-syntax-ns#" xmlns:crs="http://opengis.org/xmldtds/transformations.dtd" xmlns:svg="http://www.w3.org/svg" >
  <rdf:Description>
   <crs:CoordinateReferenceSystem rdf:resource="http://purl.org/crs/84" svg:transform="matrix(100.0,0.0,0.0,-100.0,0.0,0.0)" />
  </rdf:Description>
 </rdf:RDF>
</metadata>
<globalCoordinateSystem srsName="http://purl.org/crs/84" transform="matrix(100.0,0.0,0.0,-100.0,0.0,0.0)" />
<defs>
 <g id="p0" >
  <circle cx="0.0" cy="0.0" r="3" stroke="green" stroke-width="0.75" vector-effect="non-scaling-stroke" />
 </g>
</defs>
<g fill="none" fill-rule="evenodd" stroke="#FF00FF" stroke-width="0.75" opacity="0.5" vector-effect="non-scaling-stroke" stroke-linejoin="bevel" >
<path content="1,京浜急行バス（株）,ノクターン号,3.4,4.0,4.0," xlink:title="1" d="M14050.2761,-4064.9414L14050.2781,-4064.9438L14050.3165,-4064.9769L14050.3468,-4065.0029L14050.3871,-4065.0408L14050.4292,-4065.0787L14050.4445,-4065.0914L14050.4634,-4065.1071L14050.5465,-4065.1829L14050.5777,-4065.2124L14050.6094,-4065.2457L14050.6302,-4065.2922L14050.6402,-4065.3156L14050.6574,-4065.356L14050.6698,-4065.3854L14050.6754,-4065.3987L14050.7249,-4065.5192L14050.7374,-4065.5485L14050.7455,-4065.5643L14050.7729,-4065.6268L14050.8762,-4065.8647L14050.8772,-4065.8678L14050.8947,-4065.9173L14050.9043,-4065.9511L14050.9124,-4065.9905L14050.9154,-4066.0198L14050.9176,-4066.0609L14050.9177,-4066.0759L14050.9191,-4066.1893L14050.9164,-4066.2719L14050.9157,-4066.2922L14050.9139,-4066.3486L14050.9146,-4066.4579L14050.9176,-4066.4899L14050.9249,-4066.5238L14050.9367,-4066.5591L14050.9486,-4066.5947L14050.9759,-4066.6527L14051.0003,-4066.6938L14051.0269,-4066.7315L14051.0504,-4066.7618L14051.0527,-4066.7648L14051.0867,-4066.8019L14051.1037,-4066.8182L14051.1413,-4066.8486L14051.2034,-4066.8926L14051.2152,-4066.8999L14051.2166,-4066.901L14051.2725,-4066.9348L14051.4054,-4066.9906L14051.4541,-4067.0116L14051.463,-4067.0155L14051.7,-4067.1168L14051.9269,-4067.2131L14052.137,-4067.3057L14052.2476,-4067.3547L14052.2679,-4067.3637L14052.3425,-4067.3952L14052.5504,-4067.4827L14052.6774,-4067.548L14052.7959,-4067.5899L14052.9392,-4067.6531L14053.274,-4067.8096L14053.3568,-4067.8434L14053.441,-4067.8834L14053.4789,-4067.9029L14053.559,-4067.9595L14053.5923,-4067.9843L14053.6428,-4068.0228L14053.703,-4068.0833L14053.7109,-4068.0919"/>
<path content="1,弘南バス（株）,アップル号,1.0,1.0,1.0," xlink:title="1" d="M14050.2761,-4064.9414L14050.2781,-4064.9438L14050.3165,-4064.9769L14050.3468,-4065.0029L14050.3871,-4065.0408L14050.4292,-4065.0787L14050.4445,-4065.0914L14050.4634,-4065.1071L14050.5465,-4065.1829L14050.5777,-4065.2124L14050.6094,-4065.2457L14050.6302,-4065.2922L14050.6402,-4065.3156L14050.6574,-4065.356L14050.6698,-4065.3854L14050.6754,-4065.3987L14050.7249,-4065.5192L14050.7374,-4065.5485L14050.7455,-4065.5643L14050.7729,-4065.6268L14050.8762,-4065.8644L14050.8762,-4065.8647L14050.8762,-4065.8648L14050.8772,-4065.8678L14050.8947,-4065.9173L14050.9043,-4065.9511L14050.9124,-4065.9905L14050.9154,-4066.0198L14050.9397,-4066.0305L14050.9479,-4066.0389L14050.9582,-4066.062L14051.0173,-4066.1961L14051.0394,-4066.2467L14051.045,-4066.2577L14051.0498,-4066.267L14051.0513,-4066.2681L14051.0594,-4066.285L14051.0734,-4066.3087L14051.0985,-4066.3407L14051.1199,-4066.3622L14051.1849,-4066.4219L14051.1938,-4066.4292L14051.2351,-4066.4624L14051.2499,-4066.4765L14051.2586,-4066.4827L14051.2839,-4066.5046L14051.3533,-4066.5632L14051.3917,-4066.5885L14051.4183,-4066.6014L14051.422,-4066.6043L14051.4552,-4066.6195L14051.465,-4066.6283L14051.4878,-4066.6344L14051.5241,-4066.6432L14051.5446,-4066.6482L14051.5608,-4066.6522L14051.584,-4066.6588L14051.5993,-4066.6612L14051.6494,-4066.6679L14051.6539,-4066.6691L14051.6834,-4066.6736L14051.7181,-4066.6781L14051.7747,-4066.6862L14051.8282,-4066.6938L14051.8526,-4066.6972L14051.9072,-4066.7073L14051.9278,-4066.7135L14051.9707,-4066.7203L14051.9958,-4066.7271L14052.0194,-4066.7383L14052.0409,-4066.7524L14052.0741,-4066.7755L14052.0874,-4066.7868L14052.1029,-4066.7986L14052.1394,-4066.8327L14052.1487,-4066.8414L14052.1614,-4066.8553L14052.1716,-4066.8605L14052.1804,-4066.8672L14052.1989,-4066.8785L14052.2122,-4066.8847L14052.2174,-4066.8875L14052.3256,-4066.9307L14052.334,-4066.9297L14052.3447,-4066.9306L14052.387,-4066.9317L14052.4076,-4066.9348L14052.4332,-4066.9419L14052.4435,-4066.9448L14052.4609,-4066.9497L14052.4993,-4066.9629L14052.5149,-4066.9707L14052.5787,-4067.0045L14052.7152,-4067.0759L14052.7678,-4067.1024L14052.8863,-4067.1647L14052.9526,-4067.1981L14052.9979,-4067.2161L14053.0376,-4067.2426L14053.0805,-4067.2657L14053.267,-4067.366L14053.2993,-4067.3811L14053.4713,-4067.4709L14053.5308,-4067.5016L14053.6507,-4067.5625L14053.7109,-4067.5948"/>
<path content="1,弘南バス（株）,スカイ号,1.0,1.0,1.0," xlink:title="1" d="M14053.7109,-4067.5948L14053.6507,-4067.5625L14053.5308,-4067.5016L14053.4713,-4067.4709L14053.2993,-4067.3811L14053.267,-4067.366L14053.0805,-4067.2657L14053.0376,-4067.2426L14052.9979,-4067.2161L14052.9526,-4067.1981L14052.8863,-4067.1647L14052.7678,-4067.1024L14052.7152,-4067.0759L14052.5787,-4067.0045L14052.5149,-4066.9707L14052.4993,-4066.9629L14052.4609,-4066.9497L14052.4435,-4066.9448L14052.4332,-4066.9419L14052.4076,-4066.9348L14052.387,-4066.9317L14052.3447,-4066.9306L14052.334,-4066.9297L14052.3256,-4066.9307L14052.2174,-4066.8875L14052.2122,-4066.8847L14052.1989,-4066.8785L14052.1804,-4066.8672L14052.1716,-4066.8605L14052.1614,-4066.8553L14052.1487,-4066.8414L14052.1394,-4066.8327L14052.1029,-4066.7986L14052.0874,-4066.7868L14052.0741,-4066.7755L14052.0409,-4066.7524L14052.0194,-4066.7383L14051.9958,-4066.7271L14051.9707,-4066.7203L14051.9278,-4066.7135L14051.9072,-4066.7073L14051.8526,-4066.6972L14051.8282,-4066.6938L14051.7747,-4066.6862L14051.7181,-4066.6781L14051.6834,-4066.6736L14051.6539,-4066.6691L14051.6494,-4066.6679L14051.5993,-4066.6612L14051.584,-4066.6588L14051.5608,-4066.6522L14051.5446,-4066.6482L14051.5241,-4066.6432L14051.4878,-4066.6344L14051.465,-4066.6283L14051.4552,-4066.6195L14051.422,-4066.6043L14051.4183,-4066.6014L14051.3917,-4066.5885L14051.3533,-4066.5632L14051.2839,-4066.5046L14051.2586,-4066.4827L14051.2499,-4066.4765L14051.2351,-4066.4624L14051.1938,-4066.4292L14051.1849,-4066.4219L14051.1199,-4066.3622L14051.0985,-4066.3407L14051.0734,-4066.3087L14051.0594,-4066.285L14051.0513,-4066.2681L14051.0498,-4066.267L14051.045,-4066.2577L14051.0394,-4066.2467L14051.0173,-4066.1961L14050.9582,-4066.062L14050.9479,-4066.0389L14050.9397,-4066.0305L14050.9154,-4066.0198L14050.9124,-4065.9905L14050.9043,-4065.9511L14050.8947,-4065.9173L14050.8772,-4065.8678L14050.8762,-4065.8647L14050.7729,-4065.6268L14050.7455,-4065.5643L14050.7374,-4065.5485L14050.7249,-4065.5192L14050.6754,-4065.3987L14050.6698,-4065.3854L14050.6574,-4065.356L14050.6402,-4065.3156L14050.6302,-4065.2922L14050.6094,-4065.2457L14050.5777,-4065.2124L14050.5465,-4065.1829L14050.4634,-4065.1071L14050.4445,-4065.0914L14050.4292,-4065.0787L14050.3871,-4065.0408L14050.3468,-4065.0029L14050.3165,-4064.9769L14050.2781,-4064.9438L14050.2761,-4064.9414"/>
<path content="1,弘南バス（株）,ノクターン号,1.0,1.0,1.0," xlink:title="1" d="M14049.3164,-4065.2957L14049.3468,-4065.2765L14049.3992,-4065.2456L14049.4494,-4065.2129L14049.4568,-4065.2067L14049.5004,-4065.1684L14049.6503,-4065.0191L14049.6902,-4064.9725L14049.6998,-4064.9641L14049.7124,-4064.9523L14049.7153,-4064.9511L14049.7255,-4064.9414"/>
<path content="1,弘南バス（株）,パンダ号,3.0,3.0,3.0," xlink:title="1" d="M14053.7109,-4067.5948L14053.6507,-4067.5625L14053.5308,-4067.5016L14053.4713,-4067.4709L14053.2993,-4067.3811L14053.267,-4067.366L14053.0805,-4067.2657L14053.0376,-4067.2426L14052.9979,-4067.2161L14052.9526,-4067.1981L14052.8863,-4067.1647L14052.7678,-4067.1024L14052.7152,-4067.0759L14052.5787,-4067.0045L14052.5149,-4066.9707L14052.4993,-4066.9629L14052.4609,-4066.9497L14052.4435,-4066.9448L14052.4332,-4066.9419L14052.4076,-4066.9348L14052.387,-4066.9317L14052.3447,-4066.9306L14052.334,-4066.9297L14052.3256,-4066.9307L14052.2174,-4066.8875L14052.2122,-4066.8847L14052.1989,-4066.8785L14052.1804,-4066.8672L14052.1716,-4066.8605L14052.1614,-4066.8553L14052.1487,-4066.8414L14052.1394,-4066.8327L14052.1029,-4066.7986L14052.0874,-4066.7868L14052.0741,-4066.7755L14052.0409,-4066.7524L14052.0194,-4066.7383L14051.9958,-4066.7271L14051.9707,-4066.7203L14051.9278,-4066.7135L14051.9072,-4066.7073L14051.8526,-4066.6972L14051.8282,-4066.6938L14051.7747,-4066.6862L14051.7181,-4066.6781L14051.6834,-4066.6736L14051.6539,-4066.6691L14051.6494,-4066.6679L14051.5993,-4066.6612L14051.584,-4066.6588L14051.5608,-4066.6522L14051.5446,-4066.6482L14051.5241,-4066.6432L14051.4878,-4066.6344L14051.465,-4066.6283L14051.4552,-4066.6195L14051.422,-4066.6043L14051.4183,-4066.6014L14051.3917,-4066.5885L14051.3533,-4066.5632L14051.2839,-4066.5046L14051.2586,-4066.4827L14051.2499,-4066.4765L14051.2351,-4066.4624L14051.1938,-4066.4292L14051.1849,-4066.4219L14051.1199,-4066.3622L14051.0985,-4066.3407L14051.0734,-4066.3087L14051.0594,-4066.285L14051.0513,-4066.2681L14051.0498,-4066.267L14051.045,-4066.2577L14051.0394,-4066.2467L14051.0173,-4066.1961L14050.9582,-4066.062L14050.9479,-4066.0389L14050.9397,-4066.0305L14050.9154,-4066.0198L14050.9124,-4065.9905L14050.9043,-4065.9511L14050.8947,-4065.9173L14050.8772,-4065.8678L14050.8762,-4065.8647L14050.7729,-4065.6268L14050.7455,-4065.5643L14050.7374,-4065.5485L14050.7249,-4065.5192L14050.6754,-4065.3987L14050.6698,-4065.3854L14050.6574,-4065.356L14050.6402,-4065.3156L14050.6302,-4065.2922L14050.6094,-4065.2457L14050.5777,-4065.2124L14050.5465,-4065.1829L14050.4634,-4065.1071L14050.4445,-4065.0914L14050.4292,-4065.0787L14050.3871,-4065.0408L14050.3468,-4065.0029L14050.3165,-4064.9769L14050.2781,-4064.9438L14050.2761,-4064.9414"/>
<path content="1,弘南バス（株）,弘前～五所川原線　10,6.0,6.0,6.0," xlink:title="1" d="M14050.2761,-4064.9414L14050.2781,-4064.9438L14050.3165,-4064.9769L14050.3468,-4065.0029L14050.3871,-4065.0408L14050.4292,-4065.0787L14050.4445,-4065.0914L14050.4634,-4065.1071L14050.5465,-4065.1829L14050.5777,-4065.2124L14050.6094,-4065.2457L14050.6302,-4065.2922L14050.6402,-4065.3156L14050.6574,-4065.356L14050.6698,-4065.3854L14050.6488,-4065.4032L14050.586,-4065.4567L14050.4627,-4065.562L14050.4088,-4065.6071L14050.3164,-4065.6859L14050.2891,-4065.7096L14050.2367,-4065.6729L14050.1854,-4065.6397L14050.1429,-4065.6093L14050.0624,-4065.5536L14050.0196,-4065.6009L14049.9523,-4065.6864L14049.8865,-4065.7757L14049.8704,-4065.7912L14049.8423,-4065.8278L14049.8174,-4065.8084L14049.7766,-4065.7793L14049.7518,-4065.7548L14049.7326,-4065.723L14049.7159,-4065.6927L14049.6922,-4065.6671L14049.6503,-4065.635L14049.6177,-4065.6183L14049.5998,-4065.6089L14049.5579,-4065.5879L14049.5387,-4065.58L14049.5085,-4065.5716L14049.4929,-4065.5676L14049.473,-4065.5597L14049.4605,-4065.5479L14049.4169,-4065.4967L14049.3504,-4065.4167L14049.3379,-4065.401L14049.3224,-4065.3835L14049.3164,-4065.3764"/>
<path content="1,弘南バス（株）,弘前～五所川原線　10,6.0,6.0,6.0," xlink:title="1" d="M14049.3164,-4065.2957L14049.3468,-4065.2765L14049.3992,-4065.2456L14049.4494,-4065.2129L14049.4568,-4065.2067L14049.5004,-4065.1684L14049.6503,-4065.0191L14049.6902,-4064.9725L14049.6998,-4064.9641L14049.7124,-4064.9523L14049.7153,-4064.9511L14049.7255,-4064.9414"/>
<path content="1,弘南バス（株）,弘前～浪岡線　9,8.0,8.0,6.0," xlink:title="1" d="M14050.216,-4064.9414L14050.1532,-4065.0153L14050.0757,-4065.106L14050.0617,-4065.1223L14050.0528,-4065.133L14050.0337,-4065.1543L14050.0151,-4065.1763L14049.9937,-4065.2017L14049.9686,-4065.2304L14049.9413,-4065.2619L14049.8992,-4065.3109L14049.8888,-4065.3222L14049.8497,-4065.3694L14049.8342,-4065.388L14049.8312,-4065.3903L14049.8268,-4065.397L14049.8002,-4065.4274L14049.7286,-4065.4933L14049.7101,-4065.5096L14049.6761,-4065.5417L14049.6503,-4065.5637L14049.6222,-4065.5873L14049.6074,-4065.6014L14049.5998,-4065.6089L14049.6177,-4065.6183L14049.6503,-4065.635L14049.6922,-4065.6671L14049.7159,-4065.6927L14049.7326,-4065.723L14049.7518,-4065.7548L14049.7766,-4065.7793L14049.8174,-4065.8084L14049.8423,-4065.8278L14049.8704,-4065.7912L14049.8865,-4065.7757L14049.9523,-4065.6864L14050.0196,-4065.6009L14050.0624,-4065.5536L14050.1429,-4065.6093L14050.1854,-4065.6397L14050.2367,-4065.6729L14050.2891,-4065.7096L14050.2204,-4065.7675L14050.1517,-4065.8255L14049.987,-4065.9657"/>
<path content="1,弘南バス（株）,弘前～浪岡線　9,8.0,8.0,6.0," xlink:title="1" d="M14049.987,-4065.9657L14049.9427,-4065.946L14049.9228,-4065.9331L14049.9213,-4065.9331L14049.8937,-4065.9018"/>
<path content="1,弘南バス（株）,弘前～浪岡線　9,8.0,8.0,6.0," xlink:title="1" d="M14049.987,-4065.9657L14050.0092,-4065.9748L14050.0195,-4065.9781L14050.0646,-4065.9956L14050.0771,-4065.9995L14050.0934,-4066.0063L14050.1052,-4066.0102L14050.1178,-4066.0147L14050.1222,-4066.0175L14050.1634,-4066.0329L14050.1857,-4066.0412L14050.2056,-4066.0491L14050.2337,-4066.0592L14050.2854,-4066.0812L14050.3264,-4066.1001L14050.3844,-4066.1268L14050.4018,-4066.1357L14050.4043,-4066.1369L14050.4576,-4066.1612L14050.4715,-4066.1662L14050.4848,-4066.1735L14050.5011,-4066.1819L14050.5129,-4066.187L14050.5749,-4066.2152L14050.6066,-4066.2332L14050.6569,-4066.2523L14050.7086,-4066.2715L14050.8312,-4066.3176L14050.9139,-4066.3486L14050.9294,-4066.3542L14050.9442,-4066.3588L14051.0609,-4066.4038L14051.1406,-4066.4348L14051.1642,-4066.4427L14051.1687,-4066.4432L14051.2351,-4066.4624L14051.2499,-4066.4765L14051.2586,-4066.4827L14051.2839,-4066.5046L14051.3533,-4066.5632L14051.3917,-4066.5885L14051.4183,-4066.6014L14051.422,-4066.6043L14051.4552,-4066.6195L14051.465,-4066.6283L14051.4878,-4066.6344L14051.5241,-4066.6432L14051.5446,-4066.6482L14051.5608,-4066.6522L14051.584,-4066.6588L14051.5993,-4066.6612L14051.6494,-4066.6679L14051.6539,-4066.6691L14051.6834,-4066.6736L14051.7181,-4066.6781L14051.7747,-4066.6862L14051.8282,-4066.6938L14051.8526,-4066.6972L14051.9072,-4066.7073L14051.9278,-4066.7135L14051.9707,-4066.7203L14051.9958,-4066.7271L14052.0194,-4066.7383L14052.0409,-4066.7524L14052.0741,-4066.7755L14052.0874,-4066.7868L14052.1029,-4066.7986L14052.1394,-4066.8327L14052.1487,-4066.8414L14052.1614,-4066.8553L14052.1716,-4066.8605L14052.1804,-4066.8672L14052.1989,-4066.8785L14052.2122,-4066.8847L14052.2174,-4066.8875L14052.3256,-4066.9307L14052.334,-4066.9297L14052.3447,-4066.9306L14052.387,-4066.9317L14052.4076,-4066.9348L14052.4332,-4066.9419L14052.4435,-4066.9448L14052.4609,-4066.9497L14052.4993,-4066.9629L14052.5149,-4066.9707L14052.5787,-4067.0045L14052.7152,-4067.0759L14052.7678,-4067.1024L14052.8863,-4067.1647L14052.9526,-4067.1981L14052.9979,-4067.2161L14053.0376,-4067.2426L14053.0805,-4067.2657L14053.267,-4067.366L14053.2993,-4067.3811L14053.4713,-4067.4709L14053.5308,-4067.5016L14053.6507,-4067.5625L14053.7109,-4067.5948"/>
<path content="1,弘南バス（株）,特急　弘前～五所川原線　10,1.0,1.0,1.0," xlink:title="1" d="M14049.7255,-4064.9414L14049.7153,-4064.9511L14049.7124,-4064.9523L14049.6998,-4064.9641L14049.6902,-4064.9725L14049.6503,-4065.0191L14049.5004,-4065.1684L14049.4568,-4065.2067L14049.4494,-4065.2129L14049.3992,-4065.2456L14049.3468,-4065.2765L14049.3164,-4065.2957"/>
<path content="1,弘南バス（株）,青森空港線,11.0,11.0,11.0," xlink:title="1" d="M14053.7109,-4067.5948L14053.6507,-4067.5625L14053.5308,-4067.5016L14053.4713,-4067.4709L14053.2993,-4067.3811L14053.267,-4067.366L14053.0805,-4067.2657L14053.0376,-4067.2426L14052.9979,-4067.2161L14052.9526,-4067.1981L14052.8863,-4067.1647L14052.7678,-4067.1024L14052.7152,-4067.0759L14052.5787,-4067.0045L14052.5149,-4066.9707L14052.4993,-4066.9629L14052.4609,-4066.9497L14052.4435,-4066.9448L14052.4332,-4066.9419L14052.4076,-4066.9348L14052.387,-4066.9317L14052.3447,-4066.9306L14052.334,-4066.9297L14052.3256,-4066.9307L14052.2174,-4066.8875L14052.2122,-4066.8847L14052.1989,-4066.8785L14052.1804,-4066.8672L14052.1716,-4066.8605L14052.1614,-4066.8553L14052.1487,-4066.8414L14052.1394,-4066.8327L14052.1029,-4066.7986L14052.0874,-4066.7868L14052.0741,-4066.7755L14052.0409,-4066.7524L14052.0194,-4066.7383L14051.9958,-4066.7271L14051.9707,-4066.7203L14051.9278,-4066.7135L14051.9072,-4066.7073L14051.8526,-4066.6972L14051.8282,-4066.6938L14051.7747,-4066.6862L14051.7181,-4066.6781L14051.6834,-4066.6736L14051.6539,-4066.6691L14051.6494,-4066.6679L14051.5993,-4066.6612L14051.584,-4066.6588L14051.5608,-4066.6522L14051.5446,-4066.6482L14051.5241,-4066.6432L14051.4878,-4066.6344L14051.465,-4066.6283L14051.4552,-4066.6195L14051.422,-4066.6043L14051.4183,-4066.6014L14051.3917,-4066.5885L14051.3533,-4066.5632L14051.2839,-4066.5046L14051.2586,-4066.4827L14051.2499,-4066.4765L14051.2351,-4066.4624L14051.1938,-4066.4292L14051.1849,-4066.4219L14051.1199,-4066.3622L14051.0985,-4066.3407L14051.0734,-4066.3087L14051.0594,-4066.285L14051.0513,-4066.2681L14051.0498,-4066.267L14051.045,-4066.2577L14051.0394,-4066.2467L14051.0173,-4066.1961L14050.9582,-4066.062L14050.9479,-4066.0389L14050.9397,-4066.0305L14050.9154,-4066.0198L14050.9124,-4065.9905L14050.9043,-4065.9511L14050.8947,-4065.9173L14050.8772,-4065.8678L14050.8762,-4065.865L14050.8762,-4065.8648L14050.8762,-4065.8647L14050.8762,-4065.8644L14050.7729,-4065.6268L14050.7455,-4065.5643L14050.7374,-4065.5485L14050.7249,-4065.5192L14050.6754,-4065.3987L14050.6698,-4065.3854L14050.6574,-4065.356L14050.6402,-4065.3156L14050.6302,-4065.2922L14050.6094,-4065.2457L14050.5777,-4065.2124L14050.5465,-4065.1829L14050.4634,-4065.1071L14050.4445,-4065.0914L14050.4292,-4065.0787L14050.3871,-4065.0408L14050.3468,-4065.0029L14050.3165,-4064.9769L14050.2781,-4064.9438L14050.2761,-4064.9414"/>
<path content="3,藤崎町,町巡回バス,2.0,2.0,2.0," xlink:title="3" d="M14050.2761,-4064.9414L14050.2781,-4064.9438L14050.3165,-4064.9769L14050.3468,-4065.0029L14050.3871,-4065.0408L14050.4292,-4065.0787L14050.4445,-4065.0914L14050.4634,-4065.1071L14050.5465,-4065.1829L14050.5777,-4065.2124L14050.6094,-4065.2457L14050.6302,-4065.2922L14050.6402,-4065.3156L14050.6574,-4065.356L14050.6698,-4065.3854L14050.6754,-4065.3987L14050.7249,-4065.5192L14050.7374,-4065.5485L14050.7455,-4065.5643L14050.7729,-4065.6268L14050.8762,-4065.8644L14050.8762,-4065.8647L14050.8762,-4065.8648L14050.8762,-4065.865L14050.8772,-4065.8678L14050.8947,-4065.9173L14050.9043,-4065.9511L14050.9124,-4065.9905L14050.9154,-4066.0198L14050.9397,-4066.0305L14050.9479,-4066.0389L14050.9582,-4066.062L14051.0173,-4066.1961L14051.0394,-4066.2467L14051.045,-4066.2577L14051.0498,-4066.267L14051.0513,-4066.2681L14051.0594,-4066.285L14051.0734,-4066.3087L14051.0985,-4066.3407L14051.1199,-4066.3622L14051.1849,-4066.4219L14051.1938,-4066.4292L14051.2351,-4066.4624L14051.2499,-4066.4765L14051.2586,-4066.4827L14051.2839,-4066.5046L14051.3533,-4066.5632L14051.3917,-4066.5885L14051.4183,-4066.6014L14051.422,-4066.6043L14051.4552,-4066.6195L14051.465,-4066.6283L14051.4878,-4066.6344L14051.5241,-4066.6432L14051.5446,-4066.6482L14051.5608,-4066.6522L14051.584,-4066.6588L14051.5993,-4066.6612L14051.6494,-4066.6679L14051.6539,-4066.6691L14051.6834,-4066.6736L14051.7181,-4066.6781L14051.7747,-4066.6862L14051.8282,-4066.6938L14051.8526,-4066.6972L14051.9072,-4066.7073L14051.9278,-4066.7135L14051.9707,-4066.7203L14051.9958,-4066.7271L14052.0194,-4066.7383L14052.0409,-4066.7524L14052.0741,-4066.7755L14052.0874,-4066.7868L14052.1029,-4066.7986L14052.1394,-4066.8327L14052.1487,-4066.8414L14052.1614,-4066.8553L14052.1716,-4066.8605L14052.1804,-4066.8672L14052.1989,-4066.8785L14052.2122,-4066.8847L14052.2174,-4066.8875L14052.3256,-4066.9307L14052.334,-4066.9297L14052.3447,-4066.9306L14052.387,-4066.9317L14052.4076,-4066.9348L14052.4332,-4066.9419L14052.4435,-4066.9448L14052.4609,-4066.9497L14052.4993,-4066.9629L14052.5149,-4066.9707L14052.5787,-4067.0045L14052.6583,-4066.9348L14052.6819,-4066.9194L14052.7075,-4066.9073L14052.8443,-4066.8662L14052.8642,-4066.8605L14052.9538,-4066.8347L14053.0546,-4066.8021L14053.0711,-4066.7974L14053.0704,-4066.8008L14053.0733,-4066.8222L14053.077,-4066.8374L14053.0898,-4066.8526L14053.1153,-4066.8734L14053.1836,-4066.8306L14053.2076,-4066.8222L14053.239,-4066.8165L14053.2945,-4066.8149L14053.4295,-4066.8082L14053.5014,-4066.8076L14053.515,-4066.8075L14053.5678,-4066.8098L14053.5874,-4066.8083L14053.6069,-4066.8004L14053.6136,-4066.7948L14053.6459,-4066.7674L14053.6781,-4066.7439L14053.7109,-4066.7284M14052.9652,-4069.3359L14052.9634,-4069.3308L14052.8962,-4069.1477L14052.8748,-4069.0905L14052.8226,-4068.9513L14052.8209,-4068.9464L14052.8119,-4068.9216L14052.8076,-4068.9098L14052.8068,-4068.9047L14052.8028,-4068.8928L14052.793,-4068.8637L14052.791,-4068.8461L14052.7939,-4068.8363L14052.8031,-4068.8225L14052.8194,-4068.8022L14052.866,-4068.7527L14053.0329,-4068.5846L14053.1203,-4068.4959L14053.2098,-4068.4008L14053.2569,-4068.3476L14053.2653,-4068.3364L14053.2719,-4068.3225L14053.2793,-4068.2944L14053.2897,-4068.2415L14053.3103,-4068.1246L14053.3156,-4068.0889L14053.3244,-4068.045L14053.3386,-4067.9816L14053.3472,-4067.9638L14053.3568,-4067.9529L14053.3694,-4067.9455L14053.4161,-4067.9273L14053.4789,-4067.9029L14053.441,-4067.8834L14053.3568,-4067.8434L14053.274,-4067.8096L14052.9392,-4067.6531L14052.7959,-4067.5899L14052.6774,-4067.548L14052.5504,-4067.4827L14052.5932,-4067.4087L14052.6324,-4067.3428L14052.6723,-4067.2769L14052.6782,-4067.2691L14052.7026,-4067.2488L14052.7241,-4067.2375L14052.7263,-4067.2347L14052.7285,-4067.2246L14052.7359,-4067.2167L14052.7433,-4067.2156L14052.7662,-4067.2144L14052.7958,-4067.2094L14052.8061,-4067.2072L14052.8173,-4067.2038L14052.8372,-4067.1953L14052.8624,-4067.1807L14052.8863,-4067.1647L14052.9526,-4067.1981L14052.9979,-4067.2161L14053.0376,-4067.2426L14053.0805,-4067.2657L14053.267,-4067.366L14053.2993,-4067.3811L14053.4713,-4067.4709L14053.5308,-4067.5016L14053.6507,-4067.5625L14053.7109,-4067.5948"/>
</g>
</svg>
