<?xml version="1.0" encoding="UTF-8"?>
<svg  xmlns="http://www.w3.org/2000/svg" xmlns:xlink="http://www.w3.org/1999/xlink" xmlns:go="http://purl.org/svgmap/profile" property="N07_001,N07_002,N07_003,N07_004,N07_005,N07_006,N07_007" viewBox="13790.0390625 -3673.828125 8.7890625 8.7890625" go:dataArea="13790.0390625 -3673.828125 8.7890625 8.7890625" >
<metadata>
 <rdf:RDF xmlns:rdf="http://www.w3.org/1999/02/22-rdf-syntax-ns#" xmlns:crs="http://opengis.org/xmldtds/transformations.dtd" xmlns:svg="http://www.w3.org/svg" >
  <rdf:Description>
   <crs:CoordinateReferenceSystem rdf:resource="http://purl.org/crs/84" svg:transform="matrix(100.0,0.0,0.0,-100.0,0.0,0.0)" />
  </rdf:Description>
 </rdf:RDF>
</metadata>
<globalCoordinateSystem srsName="http://purl.org/crs/84" transform="matrix(100.0,0.0,0.0,-100.0,0.0,0.0)" />
<defs>
 <g id="p0" >
  <circle cx="0.0" cy="0.0" r="3" stroke="green" stroke-width="0.75" vector-effect="non-scaling-stroke" />
 </g>
</defs>
<g fill="none" fill-rule="evenodd" stroke="#FF00FF" stroke-width="0.75" opacity="0.5" vector-effect="non-scaling-stroke" stroke-linejoin="bevel" >
<path content="3,小川村,小川村_01_on,2.2,0.3,0.0," xlink:title="3" d="M13798.784,-3665.8885L13798.7537,-3665.8542L13798.7474,-3665.8424L13798.7488,-3665.8329L13798.7523,-3665.8188L13798.7635,-3665.7602L13798.7753,-3665.7017L13798.7698,-3665.6758L13798.7698,-3665.6662L13798.7684,-3665.637L13798.7656,-3665.6257L13798.7628,-3665.6206L13798.6665,-3665.5131L13798.6197,-3665.4608L13798.6113,-3665.454L13798.5848,-3665.4439L13798.5785,-3665.4394L13798.5736,-3665.4315L13798.5716,-3665.3989L13798.5639,-3665.387L13798.5429,-3665.3623L13798.5399,-3665.3557L13798.5387,-3665.3465L13798.5423,-3665.3403L13798.5583,-3665.3246L13798.5962,-3665.2843L13798.6029,-3665.2778L13798.6058,-3665.2733L13798.6086,-3665.2694L13798.6225,-3665.2362L13798.6414,-3665.2047L13798.6511,-3665.1821L13798.6532,-3665.1697L13798.6525,-3665.1574L13798.6476,-3665.1388L13798.649,-3665.123L13798.6518,-3665.1151L13798.6588,-3665.105L13798.6895,-3665.0718L13798.6944,-3665.0611L13798.6979,-3665.0476L13798.6979,-3665.0391"/>
<path content="3,長野市,南鬼無里線A経路,1.0,1.0,1.0," xlink:title="3" d="M13796.7078,-3668.5229L13796.7102,-3668.5201L13796.7456,-3668.4803L13796.7713,-3668.4534L13796.8141,-3668.4076L13796.8295,-3668.3975L13796.8351,-3668.3941L13796.8644,-3668.3846L13796.8958,-3668.375L13796.9009,-3668.3698L13796.9056,-3668.3598L13796.9336,-3668.299L13796.9392,-3668.2917L13796.9545,-3668.2827L13796.972,-3668.2849L13796.9818,-3668.2889L13796.9923,-3668.2967L13797.0056,-3668.3114L13797.0146,-3668.3232L13797.0216,-3668.33L13797.0328,-3668.3356L13797.0538,-3668.3407L13797.0706,-3668.3429L13797.0957,-3668.3322L13797.1111,-3668.3236L13797.1485,-3668.2737L13797.1789,-3668.2337L13797.204,-3668.2089L13797.2353,-3668.1839L13797.2605,-3668.1657L13797.2826,-3668.1509L13797.311,-3668.1352L13797.3273,-3668.1266L13797.3424,-3668.12L13797.3654,-3668.1116L13797.3906,-3668.1037L13797.4102,-3668.0975L13797.4549,-3668.0874L13797.4864,-3668.0812L13797.5157,-3668.0761L13797.5464,-3668.0761L13797.5629,-3668.0772L13797.5747,-3668.0802L13797.5833,-3668.085L13797.5905,-3668.093L13797.631,-3668.1515L13797.6501,-3668.1723L13797.668,-3668.1935L13797.6771,-3668.2011L13797.6862,-3668.21L13797.6932,-3668.2174L13797.7128,-3668.2287L13797.7365,-3668.2351L13797.7634,-3668.236L13797.7821,-3668.2317L13797.8025,-3668.223L13797.8407,-3668.2017L13797.9014,-3668.1626L13797.924,-3668.1474L13797.9613,-3668.1279L13797.9744,-3668.1245L13797.9874,-3668.1279L13797.9952,-3668.1392L13797.9978,-3668.1609L13798.0035,-3668.178L13798.0098,-3668.1842L13798.0237,-3668.1949L13798.0286,-3668.1976L13798.0707,-3668.2174L13798.128,-3668.2391L13798.1419,-3668.2425L13798.1809,-3668.2562L13798.2229,-3668.2692L13798.2564,-3668.281L13798.2683,-3668.2827L13798.2774,-3668.2833L13798.2942,-3668.2793L13798.3088,-3668.2743L13798.3648,-3668.2551L13798.3815,-3668.2456L13798.4095,-3668.2259L13798.4221,-3668.2141L13798.4298,-3668.2022L13798.4346,-3668.1915L13798.4374,-3668.1797L13798.436,-3668.1611L13798.4318,-3668.1414L13798.4165,-3668.0885L13798.406,-3668.0463L13798.4053,-3668.026L13798.4109,-3668.0074L13798.4207,-3667.9917L13798.4333,-3667.9771L13798.4479,-3667.9647L13798.4638,-3667.9548L13798.4808,-3667.9461L13798.4952,-3667.9405L13798.5334,-3667.9266L13798.5563,-3667.914L13798.5909,-3667.8897L13798.6227,-3667.8684L13798.6561,-3667.8555L13798.6708,-3667.8532L13798.7035,-3667.8536L13798.7526,-3667.8555L13798.7826,-3667.8588L13798.8043,-3667.8588L13798.8197,-3667.856L13798.8267,-3667.8521L13798.8281,-3667.8506"/>
<path content="3,長野市,南鬼無里線A経路,1.0,1.0,1.0," xlink:title="3" d="M13796.7078,-3668.5229L13796.7133,-3668.5259L13796.7176,-3668.5354L13796.7211,-3668.5495L13796.7271,-3668.5636L13796.7386,-3668.6041L13796.7414,-3668.6148L13796.7428,-3668.6452L13796.7295,-3668.6801L13796.7288,-3668.6886L13796.7298,-3668.6996L13796.763,-3668.7012L13796.7856,-3668.6954L13796.7988,-3668.6991L13796.8014,-3668.7144L13796.7977,-3668.7254L13796.7509,-3668.7291L13796.6914,-3668.748L13796.6472,-3668.7654L13796.603,-3668.7691L13796.5926,-3668.7724L13796.5849,-3668.7831L13796.5849,-3668.7904L13796.5835,-3668.8013L13796.5799,-3668.8084L13796.5851,-3668.8205L13796.6191,-3668.8535L13796.6275,-3668.867L13796.631,-3668.8811L13796.6303,-3668.8917L13796.6226,-3668.9295L13796.6159,-3668.9519L13796.6151,-3668.9538L13796.5848,-3668.9475L13796.5786,-3668.9469L13796.566,-3668.9526L13796.5618,-3668.9565L13796.5548,-3668.9706L13796.5436,-3668.9846L13796.5352,-3668.992L13796.5156,-3669.001L13796.5059,-3669.0038L13796.4947,-3669.0055L13796.4692,-3669.0067L13796.4366,-3668.9926L13796.4051,-3668.992L13796.3948,-3668.9959L13796.3794,-3669.0061L13796.3675,-3669.0167L13796.3605,-3669.0274L13796.3563,-3669.0477L13796.3493,-3669.0618L13796.3298,-3669.0804L13796.3004,-3669.1029L13796.2739,-3669.1197L13796.2466,-3669.1349L13796.2187,-3669.1467L13796.1802,-3669.1597L13796.1385,-3669.1721L13796.1145,-3669.1772L13796.0866,-3669.1777L13796.0543,-3669.1712L13796.0156,-3669.1583"/>
<path content="3,長野市,南鬼無里線A経路,1.0,1.0,1.0," xlink:title="3" d="M13796.1922,-3668.7503L13796.1926,-3668.7372L13796.1929,-3668.7254L13796.1949,-3668.7206L13796.2047,-3668.7116L13796.2236,-3668.7037L13796.2508,-3668.6964L13796.2634,-3668.6908L13796.2718,-3668.6846L13796.2935,-3668.6456L13796.3088,-3668.6204L13796.3179,-3668.6069L13796.3249,-3668.6002L13796.3319,-3668.5956L13796.3487,-3668.5917L13796.3743,-3668.5897L13796.4004,-3668.59L13796.4807,-3668.5985L13796.487,-3668.5996L13796.5094,-3668.6002L13796.5157,-3668.5985L13796.5359,-3668.5856L13796.5604,-3668.5658L13796.6296,-3668.5304L13796.6436,-3668.5262L13796.6923,-3668.5233L13796.7078,-3668.5229"/>
<path content="3,長野市,南鬼無里線A経路,1.0,1.0,1.0," xlink:title="3" d="M13796.1922,-3668.7503L13796.1689,-3668.7524L13796.1468,-3668.752L13796.1308,-3668.7498L13796.1225,-3668.7463L13796.1129,-3668.7394L13796.1082,-3668.7346L13796.103,-3668.7324L13796.0778,-3668.7359L13796.0513,-3668.7424L13796.0398,-3668.7465L13796.0307,-3668.7516L13796.0027,-3668.7724L13795.9929,-3668.7786L13795.9328,-3668.827L13795.9168,-3668.8411L13795.8819,-3668.867L13795.8693,-3668.8721L13795.8637,-3668.8732L13795.8476,-3668.8726L13795.8064,-3668.8659L13795.7854,-3668.8602L13795.7596,-3668.8563L13795.7258,-3668.8566L13795.6946,-3668.8561L13795.6611,-3668.8579L13795.6403,-3668.86L13795.6282,-3668.8631L13795.6004,-3668.8765L13795.5844,-3668.8817L13795.5701,-3668.8835L13795.5562,-3668.8811L13795.5192,-3668.8743L13795.4227,-3668.8569L13795.3525,-3668.8439L13795.3172,-3668.8371L13795.2956,-3668.8309L13795.2849,-3668.8266L13795.2714,-3668.8214L13795.2406,-3668.8101L13795.1928,-3668.7876L13795.1558,-3668.7713L13795.139,-3668.7668L13795.1251,-3668.7673L13795.1149,-3668.773L13795.061,-3668.8227L13795.0384,-3668.8422L13795.0171,-3668.8561L13794.9902,-3668.8709L13794.921,-3668.8946L13794.867,-3668.9042L13794.8214,-3668.9095L13794.7906,-3668.9086L13794.7684,-3668.9107L13794.7503,-3668.9126L13794.7433,-3668.9161L13794.7338,-3668.9272L13794.7173,-3668.9542L13794.7029,-3668.9724L13794.6877,-3668.9885L13794.6777,-3668.9957L13794.6617,-3669.0058L13794.6569,-3669.0071L13794.6448,-3669.0071L13794.6313,-3669.0024L13794.5681,-3668.9548L13794.5569,-3668.948L13794.5451,-3668.9446L13794.5297,-3668.9435L13794.4851,-3668.9455L13794.4672,-3668.9456L13794.4378,-3668.9451L13794.4091,-3668.9433L13794.3857,-3668.9411L13794.3717,-3668.9384L13794.3529,-3668.9373L13794.334,-3668.9322L13794.3138,-3668.9232L13794.2634,-3668.8951L13794.2481,-3668.885L13794.2397,-3668.8816L13794.1879,-3668.8501L13794.1628,-3668.8321L13794.1566,-3668.8274L13794.1547,-3668.8216L13794.1533,-3668.8176L13794.1512,-3668.8047L13794.1496,-3668.7866L13794.1507,-3668.7762L13794.1514,-3668.7684L13794.1566,-3668.7519L13794.1657,-3668.7372L13794.1796,-3668.7233L13794.1971,-3668.7099L13794.2019,-3668.7071L13794.2124,-3668.6958L13794.2152,-3668.6885L13794.2159,-3668.6772L13794.2118,-3668.6654L13794.2009,-3668.6447L13794.1865,-3668.6239L13794.157,-3668.5939L13794.134,-3668.5736L13794.1111,-3668.5568L13794.0964,-3668.5455L13794.0908,-3668.5421L13794.0419,-3668.5067L13794.0329,-3668.4988L13794.0063,-3668.4695L13793.996,-3668.4568L13793.9795,-3668.4334L13793.9458,-3668.3842L13793.8414,-3668.2297L13793.8163,-3668.1954L13793.782,-3668.1577L13793.7645,-3668.1397L13793.6912,-3668.0676L13793.6842,-3668.0592L13793.6807,-3668.0524L13793.6744,-3668.0394L13793.6213,-3667.8649L13793.6073,-3667.8295L13793.5864,-3667.7985L13793.5689,-3667.7782L13793.5472,-3667.7597L13793.52,-3667.7417L13793.4683,-3667.7129L13793.4557,-3667.7022L13793.4487,-3667.6932L13793.4452,-3667.6848L13793.4452,-3667.6685L13793.4457,-3667.6672L13793.4501,-3667.6566L13793.546,-3667.5003L13793.5465,-3667.4816L13793.5409,-3667.4731L13793.5326,-3667.4664L13793.5144,-3667.4546L13793.4963,-3667.4427L13793.4236,-3667.396L13793.4152,-3667.387L13793.3781,-3667.3121L13793.3663,-3667.2981L13793.3586,-3667.2913L13793.3509,-3667.2891L13793.3041,-3667.2885L13793.295,-3667.2868L13793.2747,-3667.2772L13793.2041,-3667.2074L13793.1902,-3667.1973L13793.1804,-3667.1922L13793.1678,-3667.1888L13793.135,-3667.1838L13793.1196,-3667.1804L13793.0895,-3667.1745L13793.063,-3667.1674L13793.0518,-3667.1624L13793.0434,-3667.1551L13792.9812,-3667.0644L13792.9784,-3667.0588L13792.9798,-3667.0459L13792.9839,-3667.0285L13792.9967,-3666.9744L13792.996,-3666.9678L13792.9933,-3666.961L13792.9891,-3666.9541L13792.9835,-3666.9479L13792.966,-3666.9332L13792.9591,-3666.9287L13792.9116,-3666.9029L13792.8915,-3666.8862L13792.8222,-3666.8274L13792.7866,-3666.7998L13792.758,-3666.7846L13792.7099,-3666.7627L13792.6743,-3666.743L13792.6226,-3666.7047L13792.6072,-3666.6912L13792.5989,-3666.6788L13792.5849,-3666.6411L13792.5751,-3666.609L13792.5695,-3666.5809L13792.5675,-3666.5572L13792.5779,-3666.5459L13792.5856,-3666.5426L13792.5926,-3666.5369L13792.5961,-3666.5257L13792.5912,-3666.5139L13792.5703,-3666.4919L13792.5586,-3666.4817L13792.553,-3666.4795L13792.5339,-3666.4834L13792.4935,-3666.4953L13792.4781,-3666.4936L13792.4586,-3666.4896L13792.4495,-3666.4851L13792.4404,-3666.4778L13792.416,-3666.4542L13792.379,-3666.4108L13792.3615,-3666.39L13792.3601,-3666.3866L13792.3601,-3666.381L13792.3671,-3666.3709L13792.3695,-3666.3685L13792.3866,-3666.3517L13792.3943,-3666.3393L13792.3887,-3666.3315L13792.3373,-3666.3192L13792.2808,-3666.2965L13792.2603,-3666.2783L13792.2519,-3666.2566L13792.2478,-3666.2403L13792.2471,-3666.2262L13792.2484,-3666.2144L13792.2484,-3666.1891L13792.2429,-3666.1721L13792.2338,-3666.1519L13792.2177,-3666.1288L13792.2094,-3666.1192L13792.1973,-3666.1122L13792.177,-3666.1062L13792.163,-3666.1007"/>
<path content="3,長野市,南鬼無里線A経路,1.0,1.0,1.0," xlink:title="3" d="M13796.0156,-3669.1583L13796.0226,-3669.1473L13796.0349,-3669.1304L13796.0509,-3669.1012L13796.0635,-3669.0899L13796.0754,-3669.0843L13796.1016,-3669.0749L13796.1103,-3669.0685L13796.1173,-3669.0606L13796.1208,-3669.055L13796.125,-3669.0387L13796.1327,-3668.943L13796.1341,-3668.8934L13796.1369,-3668.8518L13796.1404,-3668.8439L13796.1495,-3668.8321L13796.1705,-3668.8113L13796.1865,-3668.7893L13796.1911,-3668.7759L13796.1914,-3668.7632L13796.1922,-3668.7503"/>
<path content="3,長野市,南鬼無里線A経路,1.0,1.0,1.0," xlink:title="3" d="M13796.4367,-3671.6684L13796.3799,-3671.5882L13796.3485,-3671.5488L13796.3143,-3671.5111L13796.3121,-3671.5081L13796.2919,-3671.4852L13796.2779,-3671.4671L13796.2629,-3671.4413L13796.2591,-3671.4266L13796.2582,-3671.4057L13796.2621,-3671.3923L13796.2799,-3671.3749L13796.3016,-3671.3554L13796.3085,-3671.3459L13796.3077,-3671.3376L13796.2999,-3671.3289L13796.2908,-3671.3237L13796.2656,-3671.312L13796.1969,-3671.2909L13796.1605,-3671.2808L13796.1361,-3671.2718L13796.1221,-3671.2639L13796.1123,-3671.2561L13796.1025,-3671.2437L13796.0914,-3671.22L13796.0879,-3671.1857L13796.0866,-3671.1446L13796.0774,-3671.1176L13796.0683,-3671.1057L13796.0508,-3671.0917L13796.0132,-3671.0638L13795.9869,-3671.0476L13795.8649,-3670.9723L13795.8573,-3670.9661L13795.8503,-3670.9592L13795.839,-3670.9427L13795.8174,-3670.9048L13795.8014,-3670.8884L13795.7594,-3670.8547L13795.7364,-3670.8338L13795.6958,-3670.7973L13795.6867,-3670.7822L13795.6763,-3670.7641L13795.6609,-3670.728L13795.6546,-3670.7066L13795.6539,-3670.6807L13795.6576,-3670.6615L13795.655,-3670.6502L13795.6463,-3670.6334L13795.6269,-3670.6092L13795.5812,-3670.5651L13795.568,-3670.5574L13795.5281,-3670.531L13795.496,-3670.5085L13795.4758,-3670.4916L13795.4569,-3670.4719L13795.4423,-3670.461L13795.425,-3670.4497L13795.4132,-3670.4354L13795.4085,-3670.4297L13795.4068,-3670.4167L13795.4066,-3670.3683L13795.4171,-3670.3148L13795.4275,-3670.2636L13795.4261,-3670.231L13795.4248,-3670.2191L13795.4143,-3670.1826L13795.4038,-3670.1555L13795.387,-3670.1223L13795.3828,-3670.1094L13795.3807,-3670.0885L13795.3919,-3670.039L13795.3982,-3670.0204L13795.4087,-3669.9967L13795.4108,-3669.9821L13795.4101,-3669.9517L13795.4045,-3669.9185L13795.4059,-3669.8915L13795.4115,-3669.8696L13795.4164,-3669.8577L13795.4283,-3669.8408L13795.4464,-3669.8127L13795.4485,-3669.8082L13795.4506,-3669.8042L13795.4571,-3669.7839L13795.4606,-3669.7414L13795.4632,-3669.7114L13795.4667,-3669.6956L13795.4688,-3669.6765L13795.4702,-3669.659L13795.4695,-3669.6416L13795.466,-3669.6258L13795.4639,-3669.6196L13795.4611,-3669.6044L13795.4598,-3669.5774L13795.4674,-3669.5414L13795.4765,-3669.5222L13795.4947,-3669.5037L13795.5129,-3669.4902L13795.5184,-3669.4868L13795.5464,-3669.4738L13795.5541,-3669.4716L13795.5918,-3669.4659L13795.6365,-3669.4609L13795.6491,-3669.4586L13795.6596,-3669.4536L13795.6729,-3669.4406L13795.7351,-3669.3365L13795.7434,-3669.3263L13795.7511,-3669.3207L13795.7658,-3669.3173L13795.8093,-3669.3188L13795.8335,-3669.314L13795.8571,-3669.2893L13795.879,-3669.258L13795.8965,-3669.2505L13795.9147,-3669.2442L13795.937,-3669.234L13795.9566,-3669.2171L13795.9971,-3669.1727L13796.0156,-3669.1583"/>
<path content="3,長野市,南鬼無里線B経路,1.0,1.0,1.0," xlink:title="3" d="M13796.1922,-3668.7503L13796.1926,-3668.7372L13796.1929,-3668.7254L13796.1949,-3668.7206L13796.2047,-3668.7116L13796.2236,-3668.7037L13796.2508,-3668.6964L13796.2634,-3668.6908L13796.2718,-3668.6846L13796.2935,-3668.6456L13796.3088,-3668.6204L13796.3179,-3668.6069L13796.3249,-3668.6002L13796.3319,-3668.5956L13796.3487,-3668.5917L13796.3743,-3668.5897L13796.4004,-3668.59L13796.4807,-3668.5985L13796.487,-3668.5996L13796.5094,-3668.6002L13796.5157,-3668.5985L13796.5359,-3668.5856L13796.5604,-3668.5658L13796.6296,-3668.5304L13796.6436,-3668.5262L13796.6923,-3668.5233L13796.7078,-3668.5229L13796.7102,-3668.5201L13796.7456,-3668.4803L13796.7713,-3668.4534L13796.8141,-3668.4076L13796.8295,-3668.3975L13796.8351,-3668.3941L13796.8644,-3668.3846L13796.8958,-3668.375L13796.9009,-3668.3698L13796.9056,-3668.3598L13796.9336,-3668.299L13796.9392,-3668.2917L13796.9545,-3668.2827L13796.972,-3668.2849L13796.9818,-3668.2889L13796.9923,-3668.2967L13797.0056,-3668.3114L13797.0146,-3668.3232L13797.0216,-3668.33L13797.0328,-3668.3356L13797.0538,-3668.3407L13797.0706,-3668.3429L13797.0957,-3668.3322L13797.1111,-3668.3236L13797.1485,-3668.2737L13797.1789,-3668.2337L13797.204,-3668.2089L13797.2353,-3668.1839L13797.2605,-3668.1657L13797.2826,-3668.1509L13797.311,-3668.1352L13797.3273,-3668.1266L13797.3424,-3668.12L13797.3654,-3668.1116L13797.3906,-3668.1037L13797.4102,-3668.0975L13797.4549,-3668.0874L13797.4864,-3668.0812L13797.5157,-3668.0761L13797.5464,-3668.0761L13797.5629,-3668.0772L13797.5747,-3668.0802L13797.5833,-3668.085L13797.5905,-3668.093L13797.631,-3668.1515L13797.6501,-3668.1723L13797.668,-3668.1935L13797.6771,-3668.2011L13797.6862,-3668.21L13797.6932,-3668.2174L13797.7128,-3668.2287L13797.7365,-3668.2351L13797.7634,-3668.236L13797.7821,-3668.2317L13797.8025,-3668.223L13797.8407,-3668.2017L13797.9014,-3668.1626L13797.924,-3668.1474L13797.9613,-3668.1279L13797.9744,-3668.1245L13797.9874,-3668.1279L13797.9952,-3668.1392L13797.9978,-3668.1609L13798.0035,-3668.178L13798.0098,-3668.1842L13798.0237,-3668.1949L13798.0286,-3668.1976L13798.0707,-3668.2174L13798.128,-3668.2391L13798.1419,-3668.2425L13798.1809,-3668.2562L13798.2229,-3668.2692L13798.2564,-3668.281L13798.2683,-3668.2827L13798.2774,-3668.2833L13798.2942,-3668.2793L13798.3088,-3668.2743L13798.3648,-3668.2551L13798.3815,-3668.2456L13798.4095,-3668.2259L13798.4221,-3668.2141L13798.4298,-3668.2022L13798.4346,-3668.1915L13798.4374,-3668.1797L13798.436,-3668.1611L13798.4318,-3668.1414L13798.4165,-3668.0885L13798.406,-3668.0463L13798.4053,-3668.026L13798.4109,-3668.0074L13798.4207,-3667.9917L13798.4333,-3667.9771L13798.4479,-3667.9647L13798.4638,-3667.9548L13798.4808,-3667.9461L13798.4952,-3667.9405L13798.5334,-3667.9266L13798.5563,-3667.914L13798.5909,-3667.8897L13798.6227,-3667.8684L13798.6561,-3667.8555L13798.6708,-3667.8532L13798.7035,-3667.8536L13798.7526,-3667.8555L13798.7826,-3667.8588L13798.8043,-3667.8588L13798.8197,-3667.856L13798.8267,-3667.8521L13798.8281,-3667.8506"/>
<path content="3,長野市,南鬼無里線B経路,1.0,1.0,1.0," xlink:title="3" d="M13796.1922,-3668.7503L13796.1689,-3668.7524L13796.1468,-3668.752L13796.1308,-3668.7498L13796.1225,-3668.7463L13796.1129,-3668.7394L13796.1082,-3668.7346L13796.103,-3668.7324L13796.0778,-3668.7359L13796.0513,-3668.7424L13796.0398,-3668.7465L13796.0307,-3668.7516L13796.0027,-3668.7724L13795.9929,-3668.7786L13795.9328,-3668.827L13795.9168,-3668.8411L13795.8819,-3668.867L13795.8693,-3668.8721L13795.8637,-3668.8732L13795.8476,-3668.8726L13795.8064,-3668.8659L13795.7854,-3668.8602L13795.7596,-3668.8563L13795.7258,-3668.8566L13795.6946,-3668.8561L13795.6611,-3668.8579L13795.6403,-3668.86L13795.6282,-3668.8631L13795.6004,-3668.8765L13795.5844,-3668.8817L13795.5701,-3668.8835L13795.5562,-3668.8811L13795.5192,-3668.8743L13795.4227,-3668.8569L13795.3525,-3668.8439L13795.3172,-3668.8371L13795.2956,-3668.8309L13795.2849,-3668.8266L13795.2714,-3668.8214L13795.2406,-3668.8101L13795.1928,-3668.7876L13795.1558,-3668.7713L13795.139,-3668.7668L13795.1251,-3668.7673L13795.1149,-3668.773L13795.061,-3668.8227L13795.0384,-3668.8422L13795.0171,-3668.8561L13794.9902,-3668.8709L13794.921,-3668.8946L13794.867,-3668.9042L13794.8214,-3668.9095L13794.7906,-3668.9086L13794.7684,-3668.9107L13794.7503,-3668.9126L13794.7433,-3668.9161L13794.7338,-3668.9272L13794.7173,-3668.9542L13794.7029,-3668.9724L13794.6877,-3668.9885L13794.6777,-3668.9957L13794.6617,-3669.0058L13794.6569,-3669.0071L13794.6448,-3669.0071L13794.6313,-3669.0024L13794.5681,-3668.9548L13794.5569,-3668.948L13794.5451,-3668.9446L13794.5297,-3668.9435L13794.4851,-3668.9455L13794.4672,-3668.9456L13794.4378,-3668.9451L13794.4091,-3668.9433L13794.3857,-3668.9411L13794.3717,-3668.9384L13794.3529,-3668.9373L13794.334,-3668.9322L13794.3138,-3668.9232L13794.2634,-3668.8951L13794.2481,-3668.885L13794.2397,-3668.8816L13794.1879,-3668.8501L13794.1628,-3668.8321L13794.1566,-3668.8274L13794.1547,-3668.8216L13794.1533,-3668.8176L13794.1512,-3668.8047L13794.1496,-3668.7866L13794.1507,-3668.7762L13794.1514,-3668.7684L13794.1566,-3668.7519L13794.1657,-3668.7372L13794.1796,-3668.7233L13794.1971,-3668.7099L13794.2019,-3668.7071L13794.2124,-3668.6958L13794.2152,-3668.6885L13794.2159,-3668.6772L13794.2118,-3668.6654L13794.2009,-3668.6447L13794.1865,-3668.6239L13794.157,-3668.5939L13794.134,-3668.5736L13794.1111,-3668.5568L13794.0964,-3668.5455L13794.0908,-3668.5421L13794.0419,-3668.5067L13794.0329,-3668.4988L13794.0063,-3668.4695L13793.996,-3668.4568L13793.9795,-3668.4334L13793.9458,-3668.3842"/>
<path content="3,長野市,南鬼無里線B経路,1.0,1.0,1.0," xlink:title="3" d="M13796.4367,-3671.6684L13796.3799,-3671.5882L13796.3485,-3671.5488L13796.3143,-3671.5111L13796.3121,-3671.5081L13796.2919,-3671.4852L13796.2779,-3671.4671L13796.2629,-3671.4413L13796.2591,-3671.4266L13796.2582,-3671.4057L13796.2621,-3671.3923L13796.2799,-3671.3749L13796.3016,-3671.3554L13796.3085,-3671.3459L13796.3077,-3671.3376L13796.2999,-3671.3289L13796.2908,-3671.3237L13796.2656,-3671.312L13796.1969,-3671.2909L13796.1605,-3671.2808L13796.1361,-3671.2718L13796.1221,-3671.2639L13796.1123,-3671.2561L13796.1025,-3671.2437L13796.0914,-3671.22L13796.0879,-3671.1857L13796.0866,-3671.1446L13796.0774,-3671.1176L13796.0683,-3671.1057L13796.0508,-3671.0917L13796.0132,-3671.0638L13795.9869,-3671.0476L13795.8649,-3670.9723L13795.8573,-3670.9661L13795.8503,-3670.9592L13795.839,-3670.9427L13795.8174,-3670.9048L13795.8014,-3670.8884L13795.7594,-3670.8547L13795.7364,-3670.8338L13795.6958,-3670.7973L13795.6867,-3670.7822L13795.6763,-3670.7641L13795.6609,-3670.728L13795.6546,-3670.7066L13795.6539,-3670.6807L13795.6576,-3670.6615L13795.655,-3670.6502L13795.6463,-3670.6334L13795.6269,-3670.6092L13795.5812,-3670.5651L13795.568,-3670.5574L13795.5281,-3670.531L13795.496,-3670.5085L13795.4758,-3670.4916L13795.4569,-3670.4719L13795.4423,-3670.461L13795.425,-3670.4497L13795.4132,-3670.4354L13795.4085,-3670.4297L13795.4068,-3670.4167L13795.4066,-3670.3683L13795.4171,-3670.3148L13795.4275,-3670.2636L13795.4261,-3670.231L13795.4248,-3670.2191L13795.4143,-3670.1826L13795.4038,-3670.1555L13795.387,-3670.1223L13795.3828,-3670.1094L13795.3807,-3670.0885L13795.3919,-3670.039L13795.3982,-3670.0204L13795.4087,-3669.9967L13795.4108,-3669.9821L13795.4101,-3669.9517L13795.4045,-3669.9185L13795.4059,-3669.8915L13795.4115,-3669.8696L13795.4164,-3669.8577L13795.4283,-3669.8408L13795.4464,-3669.8127L13795.4485,-3669.8082L13795.4506,-3669.8042L13795.4571,-3669.7839L13795.4606,-3669.7414L13795.4632,-3669.7114L13795.4667,-3669.6956L13795.4688,-3669.6765L13795.4702,-3669.659L13795.4695,-3669.6416L13795.466,-3669.6258L13795.4639,-3669.6196L13795.4611,-3669.6044L13795.4598,-3669.5774L13795.4674,-3669.5414L13795.4765,-3669.5222L13795.4947,-3669.5037L13795.5129,-3669.4902L13795.5184,-3669.4868L13795.5464,-3669.4738L13795.5541,-3669.4716L13795.5918,-3669.4659L13795.6365,-3669.4609L13795.6491,-3669.4586L13795.6596,-3669.4536L13795.6729,-3669.4406L13795.7351,-3669.3365L13795.7434,-3669.3263L13795.7511,-3669.3207L13795.7658,-3669.3173L13795.8093,-3669.3188L13795.8335,-3669.314L13795.8571,-3669.2893L13795.879,-3669.258L13795.8965,-3669.2505L13795.9147,-3669.2442L13795.937,-3669.234L13795.9566,-3669.2171L13795.9971,-3669.1727L13796.0156,-3669.1583L13796.0226,-3669.1473L13796.0349,-3669.1304L13796.0509,-3669.1012L13796.0635,-3669.0899L13796.0754,-3669.0843L13796.1016,-3669.0749L13796.1103,-3669.0685L13796.1173,-3669.0606L13796.1208,-3669.055L13796.125,-3669.0387L13796.1327,-3668.943L13796.1341,-3668.8934L13796.1369,-3668.8518L13796.1404,-3668.8439L13796.1495,-3668.8321L13796.1705,-3668.8113L13796.1865,-3668.7893L13796.1911,-3668.7759L13796.1914,-3668.7632L13796.1922,-3668.7503"/>
<path content="3,長野市,南鬼無里線C経路,2.0,2.0,2.0," xlink:title="3" d="M13796.7078,-3668.5229L13796.7102,-3668.5201L13796.7456,-3668.4803L13796.7713,-3668.4534L13796.8141,-3668.4076L13796.8295,-3668.3975L13796.8351,-3668.3941L13796.8644,-3668.3846L13796.8958,-3668.375L13796.9009,-3668.3698L13796.9056,-3668.3598L13796.9336,-3668.299L13796.9392,-3668.2917L13796.9545,-3668.2827L13796.972,-3668.2849L13796.9818,-3668.2889L13796.9923,-3668.2967L13797.0056,-3668.3114L13797.0146,-3668.3232L13797.0216,-3668.33L13797.0328,-3668.3356L13797.0538,-3668.3407L13797.0706,-3668.3429L13797.0957,-3668.3322L13797.1111,-3668.3236L13797.1485,-3668.2737L13797.1789,-3668.2337L13797.204,-3668.2089L13797.2353,-3668.1839L13797.2605,-3668.1657L13797.2826,-3668.1509L13797.311,-3668.1352L13797.3273,-3668.1266L13797.3424,-3668.12L13797.3654,-3668.1116L13797.3906,-3668.1037L13797.4102,-3668.0975L13797.4549,-3668.0874L13797.4864,-3668.0812L13797.5157,-3668.0761L13797.5464,-3668.0761L13797.5629,-3668.0772L13797.5747,-3668.0802L13797.5833,-3668.085L13797.5905,-3668.093L13797.631,-3668.1515L13797.6501,-3668.1723L13797.668,-3668.1935L13797.6771,-3668.2011L13797.6862,-3668.21L13797.6932,-3668.2174L13797.7128,-3668.2287L13797.7365,-3668.2351L13797.7634,-3668.236L13797.7821,-3668.2317L13797.8025,-3668.223L13797.8407,-3668.2017L13797.9014,-3668.1626L13797.924,-3668.1474L13797.9613,-3668.1279L13797.9744,-3668.1245L13797.9874,-3668.1279L13797.9952,-3668.1392L13797.9978,-3668.1609L13798.0035,-3668.178L13798.0098,-3668.1842L13798.0237,-3668.1949L13798.0286,-3668.1976L13798.0707,-3668.2174L13798.128,-3668.2391L13798.1419,-3668.2425L13798.1809,-3668.2562L13798.2229,-3668.2692L13798.2564,-3668.281L13798.2683,-3668.2827L13798.2774,-3668.2833L13798.2942,-3668.2793L13798.3088,-3668.2743L13798.3648,-3668.2551L13798.3815,-3668.2456L13798.4095,-3668.2259L13798.4221,-3668.2141L13798.4298,-3668.2022L13798.4346,-3668.1915L13798.4374,-3668.1797L13798.436,-3668.1611L13798.4318,-3668.1414L13798.4165,-3668.0885L13798.406,-3668.0463L13798.4053,-3668.026L13798.4109,-3668.0074L13798.4207,-3667.9917L13798.4333,-3667.9771L13798.4479,-3667.9647L13798.4638,-3667.9548L13798.4808,-3667.9461L13798.4952,-3667.9405L13798.5334,-3667.9266L13798.5563,-3667.914L13798.5909,-3667.8897L13798.6227,-3667.8684L13798.6561,-3667.8555L13798.6708,-3667.8532L13798.7035,-3667.8536L13798.7526,-3667.8555L13798.7826,-3667.8588L13798.8043,-3667.8588L13798.8197,-3667.856L13798.8267,-3667.8521L13798.8281,-3667.8506"/>
<path content="3,長野市,南鬼無里線C経路,2.0,2.0,2.0," xlink:title="3" d="M13796.7078,-3668.5229L13796.7133,-3668.5259L13796.7176,-3668.5354L13796.7211,-3668.5495L13796.7271,-3668.5636L13796.7386,-3668.6041L13796.7414,-3668.6148L13796.7428,-3668.6452L13796.7295,-3668.6801L13796.7288,-3668.6886L13796.7298,-3668.6996L13796.763,-3668.7012L13796.7856,-3668.6954L13796.7988,-3668.6991L13796.8014,-3668.7144L13796.7977,-3668.7254L13796.7509,-3668.7291L13796.6914,-3668.748L13796.6472,-3668.7654L13796.603,-3668.7691L13796.5926,-3668.7724L13796.5849,-3668.7831L13796.5849,-3668.7904L13796.5835,-3668.8013L13796.5799,-3668.8084L13796.5851,-3668.8205L13796.6191,-3668.8535L13796.6275,-3668.867L13796.631,-3668.8811L13796.6303,-3668.8917L13796.6226,-3668.9295L13796.6159,-3668.9519L13796.6151,-3668.9538L13796.5848,-3668.9475L13796.5786,-3668.9469L13796.566,-3668.9526L13796.5618,-3668.9565L13796.5548,-3668.9706L13796.5436,-3668.9846L13796.5352,-3668.992L13796.5156,-3669.001L13796.5059,-3669.0038L13796.4947,-3669.0055L13796.4692,-3669.0067L13796.4366,-3668.9926L13796.4051,-3668.992L13796.3948,-3668.9959L13796.3794,-3669.0061L13796.3675,-3669.0167L13796.3605,-3669.0274L13796.3563,-3669.0477L13796.3493,-3669.0618L13796.3298,-3669.0804L13796.3004,-3669.1029L13796.2739,-3669.1197L13796.2466,-3669.1349L13796.2187,-3669.1467L13796.1802,-3669.1597L13796.1385,-3669.1721L13796.1145,-3669.1772L13796.0866,-3669.1777L13796.0543,-3669.1712L13796.0156,-3669.1583"/>
<path content="3,長野市,南鬼無里線C経路,2.0,2.0,2.0," xlink:title="3" d="M13796.1922,-3668.7503L13796.1926,-3668.7372L13796.1929,-3668.7254L13796.1949,-3668.7206L13796.2047,-3668.7116L13796.2236,-3668.7037L13796.2508,-3668.6964L13796.2634,-3668.6908L13796.2718,-3668.6846L13796.2935,-3668.6456L13796.3088,-3668.6204L13796.3179,-3668.6069L13796.3249,-3668.6002L13796.3319,-3668.5956L13796.3487,-3668.5917L13796.3743,-3668.5897L13796.4004,-3668.59L13796.4807,-3668.5985L13796.487,-3668.5996L13796.5094,-3668.6002L13796.5157,-3668.5985L13796.5359,-3668.5856L13796.5604,-3668.5658L13796.6296,-3668.5304L13796.6436,-3668.5262L13796.6923,-3668.5233L13796.7078,-3668.5229"/>
<path content="3,長野市,南鬼無里線C経路,2.0,2.0,2.0," xlink:title="3" d="M13796.1922,-3668.7503L13796.1689,-3668.7524L13796.1468,-3668.752L13796.1308,-3668.7498L13796.1225,-3668.7463L13796.1129,-3668.7394L13796.1082,-3668.7346L13796.103,-3668.7324L13796.0778,-3668.7359L13796.0513,-3668.7424L13796.0398,-3668.7465L13796.0307,-3668.7516L13796.0027,-3668.7724L13795.9929,-3668.7786L13795.9328,-3668.827L13795.9168,-3668.8411L13795.8819,-3668.867L13795.8693,-3668.8721L13795.8637,-3668.8732L13795.8476,-3668.8726L13795.8064,-3668.8659L13795.7854,-3668.8602L13795.7596,-3668.8563L13795.7258,-3668.8566L13795.6946,-3668.8561L13795.6611,-3668.8579L13795.6403,-3668.86L13795.6282,-3668.8631L13795.6004,-3668.8765L13795.5844,-3668.8817L13795.5701,-3668.8835L13795.5562,-3668.8811L13795.5192,-3668.8743L13795.4227,-3668.8569L13795.3525,-3668.8439L13795.3172,-3668.8371L13795.2956,-3668.8309L13795.2849,-3668.8266L13795.2714,-3668.8214L13795.2406,-3668.8101L13795.1928,-3668.7876L13795.1558,-3668.7713L13795.139,-3668.7668L13795.1251,-3668.7673L13795.1149,-3668.773L13795.061,-3668.8227L13795.0384,-3668.8422L13795.0171,-3668.8561L13794.9902,-3668.8709L13794.921,-3668.8946L13794.867,-3668.9042L13794.8214,-3668.9095L13794.7906,-3668.9086L13794.7684,-3668.9107L13794.7503,-3668.9126L13794.7433,-3668.9161L13794.7338,-3668.9272L13794.7173,-3668.9542L13794.7029,-3668.9724L13794.6877,-3668.9885L13794.6777,-3668.9957L13794.6617,-3669.0058L13794.6569,-3669.0071L13794.6448,-3669.0071L13794.6313,-3669.0024L13794.5681,-3668.9548L13794.5569,-3668.948L13794.5451,-3668.9446L13794.5297,-3668.9435L13794.4851,-3668.9455L13794.4672,-3668.9456L13794.4378,-3668.9451L13794.4091,-3668.9433L13794.3857,-3668.9411L13794.3717,-3668.9384L13794.3529,-3668.9373L13794.334,-3668.9322L13794.3138,-3668.9232L13794.2634,-3668.8951L13794.2481,-3668.885L13794.2397,-3668.8816L13794.1879,-3668.8501L13794.1628,-3668.8321L13794.1566,-3668.8274L13794.1547,-3668.8216L13794.1533,-3668.8176L13794.1512,-3668.8047L13794.1496,-3668.7866L13794.1507,-3668.7762L13794.1514,-3668.7684L13794.1566,-3668.7519L13794.1657,-3668.7372L13794.1796,-3668.7233L13794.1971,-3668.7099L13794.2019,-3668.7071L13794.2124,-3668.6958L13794.2152,-3668.6885L13794.2159,-3668.6772L13794.2118,-3668.6654L13794.2009,-3668.6447L13794.1865,-3668.6239L13794.157,-3668.5939L13794.134,-3668.5736L13794.1111,-3668.5568L13794.0964,-3668.5455L13794.0908,-3668.5421L13794.0419,-3668.5067L13794.0329,-3668.4988L13794.0063,-3668.4695L13793.996,-3668.4568L13793.9795,-3668.4334L13793.9458,-3668.3842L13793.8414,-3668.2297L13793.8163,-3668.1954L13793.782,-3668.1577L13793.7645,-3668.1397L13793.6912,-3668.0676L13793.6842,-3668.0592L13793.6807,-3668.0524L13793.6744,-3668.0394L13793.6213,-3667.8649L13793.6073,-3667.8295L13793.5864,-3667.7985L13793.5689,-3667.7782L13793.5472,-3667.7597L13793.52,-3667.7417L13793.4683,-3667.7129L13793.4557,-3667.7022L13793.4487,-3667.6932L13793.4452,-3667.6848L13793.4452,-3667.6685L13793.4457,-3667.6672L13793.4501,-3667.6566L13793.546,-3667.5003L13793.5465,-3667.4816L13793.5409,-3667.4731L13793.5326,-3667.4664L13793.5144,-3667.4546L13793.4963,-3667.4427L13793.4236,-3667.396L13793.4152,-3667.387L13793.3781,-3667.3121L13793.3663,-3667.2981L13793.3586,-3667.2913L13793.3509,-3667.2891L13793.3041,-3667.2885L13793.295,-3667.2868L13793.2747,-3667.2772L13793.2041,-3667.2074L13793.1902,-3667.1973L13793.1804,-3667.1922L13793.1678,-3667.1888L13793.135,-3667.1838L13793.1196,-3667.1804L13793.0895,-3667.1745L13793.063,-3667.1674L13793.0518,-3667.1624L13793.0434,-3667.1551L13792.9812,-3667.0644L13792.9784,-3667.0588L13792.9798,-3667.0459L13792.9839,-3667.0285L13792.9967,-3666.9744L13792.996,-3666.9678L13792.9933,-3666.961L13792.9891,-3666.9541L13792.9835,-3666.9479L13792.966,-3666.9332L13792.9591,-3666.9287L13792.9116,-3666.9029L13792.8915,-3666.8862L13792.8222,-3666.8274L13792.7866,-3666.7998L13792.758,-3666.7846L13792.7099,-3666.7627L13792.6743,-3666.743L13792.6226,-3666.7047L13792.6072,-3666.6912L13792.5989,-3666.6788L13792.5849,-3666.6411L13792.5751,-3666.609L13792.5695,-3666.5809L13792.5675,-3666.5572L13792.5779,-3666.5459L13792.5856,-3666.5426L13792.5926,-3666.5369L13792.5961,-3666.5257L13792.5912,-3666.5139L13792.5703,-3666.4919L13792.5586,-3666.4817L13792.553,-3666.4795L13792.5339,-3666.4834L13792.4935,-3666.4953L13792.4781,-3666.4936L13792.4586,-3666.4896L13792.4495,-3666.4851L13792.4404,-3666.4778L13792.416,-3666.4542L13792.379,-3666.4108L13792.3615,-3666.39L13792.3601,-3666.3866L13792.3601,-3666.381L13792.3671,-3666.3709L13792.3695,-3666.3685L13792.3866,-3666.3517L13792.3943,-3666.3393L13792.3887,-3666.3315L13792.3373,-3666.3192L13792.2808,-3666.2965L13792.2603,-3666.2783L13792.2519,-3666.2566L13792.2478,-3666.2403L13792.2471,-3666.2262L13792.2484,-3666.2144L13792.2484,-3666.1891L13792.2429,-3666.1721L13792.2338,-3666.1519L13792.2177,-3666.1288L13792.2094,-3666.1192L13792.1973,-3666.1122L13792.177,-3666.1062L13792.163,-3666.1007"/>
<path content="3,長野市,南鬼無里線C経路,2.0,2.0,2.0," xlink:title="3" d="M13796.0156,-3669.1583L13796.0226,-3669.1473L13796.0349,-3669.1304L13796.0509,-3669.1012L13796.0635,-3669.0899L13796.0754,-3669.0843L13796.1016,-3669.0749L13796.1103,-3669.0685L13796.1173,-3669.0606L13796.1208,-3669.055L13796.125,-3669.0387L13796.1327,-3668.943L13796.1341,-3668.8934L13796.1369,-3668.8518L13796.1404,-3668.8439L13796.1495,-3668.8321L13796.1705,-3668.8113L13796.1865,-3668.7893L13796.1911,-3668.7759L13796.1914,-3668.7632L13796.1922,-3668.7503"/>
<path content="3,長野市,南鬼無里線C経路,2.0,2.0,2.0," xlink:title="3" d="M13796.4367,-3671.6684L13796.3799,-3671.5882L13796.3485,-3671.5488L13796.3143,-3671.5111L13796.3121,-3671.5081L13796.2919,-3671.4852L13796.2779,-3671.4671L13796.2629,-3671.4413L13796.2591,-3671.4266L13796.2582,-3671.4057L13796.2621,-3671.3923L13796.2799,-3671.3749L13796.3016,-3671.3554L13796.3085,-3671.3459L13796.3077,-3671.3376L13796.2999,-3671.3289L13796.2908,-3671.3237L13796.2656,-3671.312L13796.1969,-3671.2909L13796.1605,-3671.2808L13796.1361,-3671.2718L13796.1221,-3671.2639L13796.1123,-3671.2561L13796.1025,-3671.2437L13796.0914,-3671.22L13796.0879,-3671.1857L13796.0866,-3671.1446L13796.0774,-3671.1176L13796.0683,-3671.1057L13796.0508,-3671.0917L13796.0132,-3671.0638L13795.9869,-3671.0476L13795.8649,-3670.9723L13795.8573,-3670.9661L13795.8503,-3670.9592L13795.839,-3670.9427L13795.8174,-3670.9048L13795.8014,-3670.8884L13795.7594,-3670.8547L13795.7364,-3670.8338L13795.6958,-3670.7973L13795.6867,-3670.7822L13795.6763,-3670.7641L13795.6609,-3670.728L13795.6546,-3670.7066L13795.6539,-3670.6807L13795.6576,-3670.6615L13795.655,-3670.6502L13795.6463,-3670.6334L13795.6269,-3670.6092L13795.5812,-3670.5651L13795.568,-3670.5574L13795.5281,-3670.531L13795.496,-3670.5085L13795.4758,-3670.4916L13795.4569,-3670.4719L13795.4423,-3670.461L13795.425,-3670.4497L13795.4132,-3670.4354L13795.4085,-3670.4297L13795.4068,-3670.4167L13795.4066,-3670.3683L13795.4171,-3670.3148L13795.4275,-3670.2636L13795.4261,-3670.231L13795.4248,-3670.2191L13795.4143,-3670.1826L13795.4038,-3670.1555L13795.387,-3670.1223L13795.3828,-3670.1094L13795.3807,-3670.0885L13795.3919,-3670.039L13795.3982,-3670.0204L13795.4087,-3669.9967L13795.4108,-3669.9821L13795.4101,-3669.9517L13795.4045,-3669.9185L13795.4059,-3669.8915L13795.4115,-3669.8696L13795.4164,-3669.8577L13795.4283,-3669.8408L13795.4464,-3669.8127L13795.4485,-3669.8082L13795.4506,-3669.8042L13795.4571,-3669.7839L13795.4606,-3669.7414L13795.4632,-3669.7114L13795.4667,-3669.6956L13795.4688,-3669.6765L13795.4702,-3669.659L13795.4695,-3669.6416L13795.466,-3669.6258L13795.4639,-3669.6196L13795.4611,-3669.6044L13795.4598,-3669.5774L13795.4674,-3669.5414L13795.4765,-3669.5222L13795.4947,-3669.5037L13795.5129,-3669.4902L13795.5184,-3669.4868L13795.5464,-3669.4738L13795.5541,-3669.4716L13795.5918,-3669.4659L13795.6365,-3669.4609L13795.6491,-3669.4586L13795.6596,-3669.4536L13795.6729,-3669.4406L13795.7351,-3669.3365L13795.7434,-3669.3263L13795.7511,-3669.3207L13795.7658,-3669.3173L13795.8093,-3669.3188L13795.8335,-3669.314L13795.8571,-3669.2893L13795.879,-3669.258L13795.8965,-3669.2505L13795.9147,-3669.2442L13795.937,-3669.234L13795.9566,-3669.2171L13795.9971,-3669.1727L13796.0156,-3669.1583"/>
<path content="3,長野市,南鬼無里線D経路,1.0,1.0,1.0," xlink:title="3" d="M13796.1922,-3668.7503L13796.1926,-3668.7372L13796.1929,-3668.7254L13796.1949,-3668.7206L13796.2047,-3668.7116L13796.2236,-3668.7037L13796.2508,-3668.6964L13796.2634,-3668.6908L13796.2718,-3668.6846L13796.2935,-3668.6456L13796.3088,-3668.6204L13796.3179,-3668.6069L13796.3249,-3668.6002L13796.3319,-3668.5956L13796.3487,-3668.5917L13796.3743,-3668.5897L13796.4004,-3668.59L13796.4807,-3668.5985L13796.487,-3668.5996L13796.5094,-3668.6002L13796.5157,-3668.5985L13796.5359,-3668.5856L13796.5604,-3668.5658L13796.6296,-3668.5304L13796.6436,-3668.5262L13796.6923,-3668.5233L13796.7078,-3668.5229L13796.7102,-3668.5201L13796.7456,-3668.4803L13796.7713,-3668.4534L13796.8141,-3668.4076L13796.8295,-3668.3975L13796.8351,-3668.3941L13796.8644,-3668.3846L13796.8958,-3668.375L13796.9009,-3668.3698L13796.9056,-3668.3598L13796.9336,-3668.299L13796.9392,-3668.2917L13796.9545,-3668.2827L13796.972,-3668.2849L13796.9818,-3668.2889L13796.9923,-3668.2967L13797.0056,-3668.3114L13797.0146,-3668.3232L13797.0216,-3668.33L13797.0328,-3668.3356L13797.0538,-3668.3407L13797.0706,-3668.3429L13797.0957,-3668.3322L13797.1111,-3668.3236L13797.1485,-3668.2737L13797.1789,-3668.2337L13797.204,-3668.2089L13797.2353,-3668.1839L13797.2605,-3668.1657L13797.2826,-3668.1509L13797.311,-3668.1352L13797.3273,-3668.1266L13797.3424,-3668.12L13797.3654,-3668.1116L13797.3906,-3668.1037L13797.4102,-3668.0975L13797.4549,-3668.0874L13797.4864,-3668.0812L13797.5157,-3668.0761L13797.5464,-3668.0761L13797.5629,-3668.0772L13797.5747,-3668.0802L13797.5833,-3668.085L13797.5905,-3668.093L13797.631,-3668.1515L13797.6501,-3668.1723L13797.668,-3668.1935L13797.6771,-3668.2011L13797.6862,-3668.21L13797.6932,-3668.2174L13797.7128,-3668.2287L13797.7365,-3668.2351L13797.7634,-3668.236L13797.7821,-3668.2317L13797.8025,-3668.223L13797.8407,-3668.2017L13797.9014,-3668.1626L13797.924,-3668.1474L13797.9613,-3668.1279L13797.9744,-3668.1245L13797.9874,-3668.1279L13797.9952,-3668.1392L13797.9978,-3668.1609L13798.0035,-3668.178L13798.0098,-3668.1842L13798.0237,-3668.1949L13798.0286,-3668.1976L13798.0707,-3668.2174L13798.128,-3668.2391L13798.1419,-3668.2425L13798.1809,-3668.2562L13798.2229,-3668.2692L13798.2564,-3668.281L13798.2683,-3668.2827L13798.2774,-3668.2833L13798.2942,-3668.2793L13798.3088,-3668.2743L13798.3648,-3668.2551L13798.3815,-3668.2456L13798.4095,-3668.2259L13798.4221,-3668.2141L13798.4298,-3668.2022L13798.4346,-3668.1915L13798.4374,-3668.1797L13798.436,-3668.1611L13798.4318,-3668.1414L13798.4165,-3668.0885L13798.406,-3668.0463L13798.4053,-3668.026L13798.4109,-3668.0074L13798.4207,-3667.9917L13798.4333,-3667.9771L13798.4479,-3667.9647L13798.4638,-3667.9548L13798.4808,-3667.9461L13798.4952,-3667.9405L13798.5334,-3667.9266L13798.5563,-3667.914L13798.5909,-3667.8897L13798.6227,-3667.8684L13798.6561,-3667.8555L13798.6708,-3667.8532L13798.7035,-3667.8536L13798.7526,-3667.8555L13798.7826,-3667.8588L13798.8043,-3667.8588L13798.8197,-3667.856L13798.8267,-3667.8521L13798.8281,-3667.8506"/>
<path content="3,長野市,南鬼無里線D経路,1.0,1.0,1.0," xlink:title="3" d="M13796.1922,-3668.7503L13796.1689,-3668.7524L13796.1468,-3668.752L13796.1308,-3668.7498L13796.1225,-3668.7463L13796.1129,-3668.7394L13796.1082,-3668.7346L13796.103,-3668.7324L13796.0778,-3668.7359L13796.0513,-3668.7424L13796.0398,-3668.7465L13796.0307,-3668.7516L13796.0027,-3668.7724L13795.9929,-3668.7786L13795.9328,-3668.827L13795.9168,-3668.8411L13795.8819,-3668.867L13795.8693,-3668.8721L13795.8637,-3668.8732L13795.8476,-3668.8726L13795.8064,-3668.8659L13795.7854,-3668.8602L13795.7596,-3668.8563L13795.7258,-3668.8566L13795.6946,-3668.8561L13795.6611,-3668.8579L13795.6403,-3668.86L13795.6282,-3668.8631L13795.6004,-3668.8765L13795.5844,-3668.8817L13795.5701,-3668.8835L13795.5562,-3668.8811L13795.5192,-3668.8743L13795.4227,-3668.8569L13795.3525,-3668.8439L13795.3172,-3668.8371L13795.2956,-3668.8309L13795.2849,-3668.8266L13795.2714,-3668.8214L13795.2406,-3668.8101L13795.1928,-3668.7876L13795.1558,-3668.7713L13795.139,-3668.7668L13795.1251,-3668.7673L13795.1149,-3668.773L13795.061,-3668.8227L13795.0384,-3668.8422L13795.0171,-3668.8561L13794.9902,-3668.8709L13794.921,-3668.8946L13794.867,-3668.9042L13794.8214,-3668.9095L13794.7906,-3668.9086L13794.7684,-3668.9107L13794.7503,-3668.9126L13794.7433,-3668.9161L13794.7338,-3668.9272L13794.7173,-3668.9542L13794.7029,-3668.9724L13794.6877,-3668.9885L13794.6777,-3668.9957L13794.6617,-3669.0058L13794.6569,-3669.0071L13794.6448,-3669.0071L13794.6313,-3669.0024L13794.5681,-3668.9548L13794.5569,-3668.948L13794.5451,-3668.9446L13794.5297,-3668.9435L13794.4851,-3668.9455L13794.4672,-3668.9456L13794.4378,-3668.9451L13794.4091,-3668.9433L13794.3857,-3668.9411L13794.3717,-3668.9384L13794.3529,-3668.9373L13794.334,-3668.9322L13794.3138,-3668.9232L13794.2634,-3668.8951L13794.2481,-3668.885L13794.2397,-3668.8816L13794.1879,-3668.8501L13794.1628,-3668.8321L13794.1566,-3668.8274L13794.1547,-3668.8216L13794.1533,-3668.8176L13794.1512,-3668.8047L13794.1496,-3668.7866L13794.1507,-3668.7762L13794.1514,-3668.7684L13794.1566,-3668.7519L13794.1657,-3668.7372L13794.1796,-3668.7233L13794.1971,-3668.7099L13794.2019,-3668.7071L13794.2124,-3668.6958L13794.2152,-3668.6885L13794.2159,-3668.6772L13794.2118,-3668.6654L13794.2009,-3668.6447L13794.1865,-3668.6239L13794.157,-3668.5939L13794.134,-3668.5736L13794.1111,-3668.5568L13794.0964,-3668.5455L13794.0908,-3668.5421L13794.0419,-3668.5067L13794.0329,-3668.4988L13794.0063,-3668.4695L13793.996,-3668.4568L13793.9795,-3668.4334L13793.9458,-3668.3842L13793.8414,-3668.2297L13793.8163,-3668.1954L13793.782,-3668.1577L13793.7645,-3668.1397L13793.6912,-3668.0676L13793.6842,-3668.0592L13793.6807,-3668.0524L13793.6744,-3668.0394L13793.6213,-3667.8649L13793.6073,-3667.8295L13793.5864,-3667.7985L13793.5689,-3667.7782L13793.5472,-3667.7597L13793.52,-3667.7417L13793.4683,-3667.7129L13793.4557,-3667.7022L13793.4487,-3667.6932L13793.4452,-3667.6848L13793.4452,-3667.6685L13793.4457,-3667.6672L13793.4501,-3667.6566L13793.546,-3667.5003L13793.5465,-3667.4816L13793.5409,-3667.4731L13793.5326,-3667.4664L13793.5144,-3667.4546L13793.4963,-3667.4427L13793.4236,-3667.396L13793.4152,-3667.387L13793.3781,-3667.3121L13793.3663,-3667.2981L13793.3586,-3667.2913L13793.3509,-3667.2891L13793.3041,-3667.2885L13793.295,-3667.2868L13793.2747,-3667.2772L13793.2041,-3667.2074L13793.1902,-3667.1973L13793.1804,-3667.1922L13793.1678,-3667.1888L13793.135,-3667.1838L13793.1196,-3667.1804L13793.0895,-3667.1745L13793.063,-3667.1674L13793.0518,-3667.1624L13793.0434,-3667.1551L13792.9812,-3667.0644L13792.9784,-3667.0588L13792.9798,-3667.0459L13792.9839,-3667.0285L13792.9967,-3666.9744L13792.996,-3666.9678L13792.9933,-3666.961L13792.9891,-3666.9541L13792.9835,-3666.9479L13792.966,-3666.9332L13792.9591,-3666.9287L13792.9116,-3666.9029L13792.8915,-3666.8862L13792.8222,-3666.8274L13792.7866,-3666.7998L13792.758,-3666.7846L13792.7099,-3666.7627L13792.6743,-3666.743L13792.6226,-3666.7047L13792.6072,-3666.6912L13792.5989,-3666.6788L13792.5849,-3666.6411L13792.5751,-3666.609L13792.5695,-3666.5809L13792.5675,-3666.5572L13792.5779,-3666.5459L13792.5856,-3666.5426L13792.5926,-3666.5369L13792.5961,-3666.5257L13792.5912,-3666.5139L13792.5703,-3666.4919L13792.5586,-3666.4817L13792.553,-3666.4795L13792.5339,-3666.4834L13792.4935,-3666.4953L13792.4781,-3666.4936L13792.4586,-3666.4896L13792.4495,-3666.4851L13792.4404,-3666.4778L13792.416,-3666.4542L13792.379,-3666.4108L13792.3615,-3666.39L13792.3601,-3666.3866L13792.3601,-3666.381L13792.3671,-3666.3709L13792.3695,-3666.3685L13792.3866,-3666.3517L13792.3943,-3666.3393L13792.3887,-3666.3315L13792.3373,-3666.3192L13792.2808,-3666.2965L13792.2603,-3666.2783L13792.2519,-3666.2566L13792.2478,-3666.2403L13792.2471,-3666.2262L13792.2484,-3666.2144L13792.2484,-3666.1891L13792.2429,-3666.1721L13792.2338,-3666.1519L13792.2177,-3666.1288L13792.2094,-3666.1192L13792.1973,-3666.1122L13792.177,-3666.1062L13792.163,-3666.1007"/>
<path content="3,長野市,南鬼無里線D経路,1.0,1.0,1.0," xlink:title="3" d="M13796.4367,-3671.6684L13796.3799,-3671.5882L13796.3485,-3671.5488L13796.3143,-3671.5111L13796.3121,-3671.5081L13796.2919,-3671.4852L13796.2779,-3671.4671L13796.2629,-3671.4413L13796.2591,-3671.4266L13796.2582,-3671.4057L13796.2621,-3671.3923L13796.2799,-3671.3749L13796.3016,-3671.3554L13796.3085,-3671.3459L13796.3077,-3671.3376L13796.2999,-3671.3289L13796.2908,-3671.3237L13796.2656,-3671.312L13796.1969,-3671.2909L13796.1605,-3671.2808L13796.1361,-3671.2718L13796.1221,-3671.2639L13796.1123,-3671.2561L13796.1025,-3671.2437L13796.0914,-3671.22L13796.0879,-3671.1857L13796.0866,-3671.1446L13796.0774,-3671.1176L13796.0683,-3671.1057L13796.0508,-3671.0917L13796.0132,-3671.0638L13795.9869,-3671.0476L13795.8649,-3670.9723L13795.8573,-3670.9661L13795.8503,-3670.9592L13795.839,-3670.9427L13795.8174,-3670.9048L13795.8014,-3670.8884L13795.7594,-3670.8547L13795.7364,-3670.8338L13795.6958,-3670.7973L13795.6867,-3670.7822L13795.6763,-3670.7641L13795.6609,-3670.728L13795.6546,-3670.7066L13795.6539,-3670.6807L13795.6576,-3670.6615L13795.655,-3670.6502L13795.6463,-3670.6334L13795.6269,-3670.6092L13795.5812,-3670.5651L13795.568,-3670.5574L13795.5281,-3670.531L13795.496,-3670.5085L13795.4758,-3670.4916L13795.4569,-3670.4719L13795.4423,-3670.461L13795.425,-3670.4497L13795.4132,-3670.4354L13795.4085,-3670.4297L13795.4068,-3670.4167L13795.4066,-3670.3683L13795.4171,-3670.3148L13795.4275,-3670.2636L13795.4261,-3670.231L13795.4248,-3670.2191L13795.4143,-3670.1826L13795.4038,-3670.1555L13795.387,-3670.1223L13795.3828,-3670.1094L13795.3807,-3670.0885L13795.3919,-3670.039L13795.3982,-3670.0204L13795.4087,-3669.9967L13795.4108,-3669.9821L13795.4101,-3669.9517L13795.4045,-3669.9185L13795.4059,-3669.8915L13795.4115,-3669.8696L13795.4164,-3669.8577L13795.4283,-3669.8408L13795.4464,-3669.8127L13795.4485,-3669.8082L13795.4506,-3669.8042L13795.4571,-3669.7839L13795.4606,-3669.7414L13795.4632,-3669.7114L13795.4667,-3669.6956L13795.4688,-3669.6765L13795.4702,-3669.659L13795.4695,-3669.6416L13795.466,-3669.6258L13795.4639,-3669.6196L13795.4611,-3669.6044L13795.4598,-3669.5774L13795.4674,-3669.5414L13795.4765,-3669.5222L13795.4947,-3669.5037L13795.5129,-3669.4902L13795.5184,-3669.4868L13795.5464,-3669.4738L13795.5541,-3669.4716L13795.5918,-3669.4659L13795.6365,-3669.4609L13795.6491,-3669.4586L13795.6596,-3669.4536L13795.6729,-3669.4406L13795.7351,-3669.3365L13795.7434,-3669.3263L13795.7511,-3669.3207L13795.7658,-3669.3173L13795.8093,-3669.3188L13795.8335,-3669.314L13795.8571,-3669.2893L13795.879,-3669.258L13795.8965,-3669.2505L13795.9147,-3669.2442L13795.937,-3669.234L13795.9566,-3669.2171L13795.9971,-3669.1727L13796.0156,-3669.1583L13796.0226,-3669.1473L13796.0349,-3669.1304L13796.0509,-3669.1012L13796.0635,-3669.0899L13796.0754,-3669.0843L13796.1016,-3669.0749L13796.1103,-3669.0685L13796.1173,-3669.0606L13796.1208,-3669.055L13796.125,-3669.0387L13796.1327,-3668.943L13796.1341,-3668.8934L13796.1369,-3668.8518L13796.1404,-3668.8439L13796.1495,-3668.8321L13796.1705,-3668.8113L13796.1865,-3668.7893L13796.1911,-3668.7759L13796.1914,-3668.7632L13796.1922,-3668.7503"/>
</g>
</svg>
