<?xml version="1.0" encoding="UTF-8"?>
<svg  xmlns="http://www.w3.org/2000/svg" xmlns:xlink="http://www.w3.org/1999/xlink" xmlns:go="http://purl.org/svgmap/profile" property="N07_001,N07_002,N07_003,N07_004,N07_005,N07_006,N07_007" viewBox="14132.8125 -4302.24609375 4.39453125 4.39453125" go:dataArea="14132.8125 -4302.24609375 4.39453125 4.39453125" >
<metadata>
 <rdf:RDF xmlns:rdf="http://www.w3.org/1999/02/22-rdf-syntax-ns#" xmlns:crs="http://opengis.org/xmldtds/transformations.dtd" xmlns:svg="http://www.w3.org/svg" >
  <rdf:Description>
   <crs:CoordinateReferenceSystem rdf:resource="http://purl.org/crs/84" svg:transform="matrix(100.0,0.0,0.0,-100.0,0.0,0.0)" />
  </rdf:Description>
 </rdf:RDF>
</metadata>
<globalCoordinateSystem srsName="http://purl.org/crs/84" transform="matrix(100.0,0.0,0.0,-100.0,0.0,0.0)" />
<defs>
 <g id="p0" >
  <circle cx="0.0" cy="0.0" r="3" stroke="green" stroke-width="0.75" vector-effect="non-scaling-stroke" />
 </g>
</defs>
<g fill="none" fill-rule="evenodd" stroke="#FF00FF" stroke-width="0.75" opacity="0.5" vector-effect="non-scaling-stroke" stroke-linejoin="bevel" >
<path content="1,ばんけい観光バス（株）,発寒南駅～真駒内駅,1.9,1.9,1.9," xlink:title="1" d="M14132.8125,-4299.9783L14132.8201,-4299.9789L14132.8651,-4299.9848L14132.9406,-4299.99L14132.9624,-4299.9919L14132.9906,-4299.9944L14133.02,-4299.9991L14133.0376,-4300.0042L14133.0484,-4300.0069L14133.064,-4300.0116L14133.0924,-4300.0202L14133.1892,-4300.0493L14133.2395,-4300.0625L14133.2624,-4300.0627L14133.2873,-4300.0605L14133.311,-4300.0571L14133.3866,-4300.043L14133.4326,-4300.0354L14133.528,-4300.018L14133.5867,-4300.0071L14133.6079,-4300.0036L14133.6353,-4299.9975L14133.6709,-4299.993L14133.7261,-4299.9823L14133.7623,-4299.9763L14133.7931,-4299.9716L14133.8152,-4299.9682L14133.8677,-4299.9614L14133.9183,-4299.9536L14133.9305,-4299.9513L14133.9535,-4299.948L14134.0614,-4299.9333L14134.1036,-4299.9271L14134.1334,-4299.9221L14134.1587,-4299.9187L14134.1881,-4299.9151L14134.2024,-4299.912L14134.2621,-4299.9041L14134.2742,-4299.9042L14134.2939,-4299.8988L14134.3027,-4299.8973L14134.3568,-4299.8883L14134.3938,-4299.8849L14134.4209,-4299.8815L14134.4423,-4299.8794L14134.4719,-4299.8742L14134.5087,-4299.8636L14134.5255,-4299.8585L14134.6396,-4299.8152L14134.6779,-4299.8062L14134.694,-4299.8039L14134.7468,-4299.8011L14134.7958,-4299.8011L14134.8188,-4299.8022L14134.8939,-4299.8028L14134.9831,-4299.8036L14135.0156,-4299.805L14135.0654,-4299.8056L14135.0815,-4299.8067L14135.1358,-4299.8078L14135.1986,-4299.8101L14135.2231,-4299.8101L14135.23,-4299.8101L14135.2754,-4299.812L14135.3234,-4299.8141L14135.3652,-4299.816L14135.3947,-4299.8174L14135.459,-4299.8203L14135.4713,-4299.8197L14135.5172,-4299.8231L14135.5869,-4299.8276L14135.6098,-4299.8287L14135.7025,-4299.8326L14135.7393,-4299.8332L14135.75,-4299.8343L14135.7913,-4299.8366L14135.8947,-4299.8405L14135.9305,-4299.8417L14136.0036,-4299.8493L14135.9856,-4299.8093L14135.9215,-4299.7122L14135.8962,-4299.6632L14135.8871,-4299.6374L14135.8809,-4299.6165L14135.8807,-4299.5377L14135.8549,-4299.4696L14135.8465,-4299.4246L14135.8404,-4299.3829L14135.8227,-4299.2771L14135.8151,-4299.2282L14135.8117,-4299.2026L14135.8095,-4299.18L14135.8101,-4299.1106"/>
<path content="1,北海道中央バス（株）,101　空沼線,2.0,2.0,2.0," xlink:title="1" d="M14134.5959,-4297.8516L14134.6029,-4297.8752L14134.6106,-4297.9084L14134.6129,-4297.9247L14134.6152,-4297.9478L14134.6159,-4297.9843L14134.6121,-4298.0294L14134.6129,-4298.0609L14134.619,-4298.0862L14134.6328,-4298.1273L14134.6497,-4298.1718L14134.6527,-4298.183L14134.6619,-4298.2078L14134.6634,-4298.2128L14134.668,-4298.2241L14134.6835,-4298.242L14134.691,-4298.286L14134.7055,-4298.3237L14134.7277,-4298.3817L14134.7438,-4298.4205L14134.7584,-4298.4599L14134.7744,-4298.4993L14134.7889,-4298.5217L14134.7951,-4298.5488L14134.8036,-4298.5708L14134.8128,-4298.5933L14134.8196,-4298.6107L14134.8342,-4298.6338L14134.8426,-4298.6462L14134.8663,-4298.6676L14134.8862,-4298.6884L14134.9353,-4298.7346L14134.9628,-4298.7571L14134.9804,-4298.7694L14135.0034,-4298.783L14135.0402,-4298.8015L14135.0709,-4298.8137L14135.1273,-4298.8259L14135.1343,-4298.8263L14135.1425,-4298.8523L14135.1466,-4298.8741L14135.1458,-4298.9085"/>
<path content="1,北海道中央バス（株）,101　空沼線,2.0,2.0,2.0," xlink:title="1" d="M14135.1458,-4298.9085L14135.2576,-4298.9136L14135.2997,-4298.9169L14135.3602,-4298.9203L14135.3935,-4298.9213L14135.4269,-4298.922L14135.4591,-4298.9215L14135.4789,-4298.9215L14135.5693,-4298.9147L14135.5892,-4298.913L14135.6918,-4298.9006L14135.6979,-4298.8995L14135.7789,-4298.8923L14135.8046,-4299.0603L14135.8101,-4299.1106L14135.7887,-4299.1134L14135.7264,-4299.1065L14135.7226,-4299.1059L14135.6884,-4299.1011L14135.6686,-4299.099L14135.6404,-4299.0902L14135.6229,-4299.0863L14135.5562,-4299.0773L14135.4468,-4299.0666L14135.3978,-4299.0627L14135.3489,-4299.0605"/>
<path content="1,北海道中央バス（株）,101　空沼線,2.0,2.0,2.0," xlink:title="1" d="M14135.3489,-4299.0605L14135.289,-4299.0582L14135.2836,-4299.0576L14135.2249,-4299.0547L14135.1604,-4299.0576L14135.1427,-4299.0576L14135.0914,-4299.061"/>
<path content="1,北海道中央バス（株）,101　空沼線,2.0,2.0,2.0," xlink:title="1" d="M14135.3489,-4299.0605L14135.3483,-4299.0763L14135.3322,-4299.143"/>
<path content="1,北海道中央バス（株）,101　空沼線,2.0,2.0,2.0," xlink:title="1" d="M14135.0914,-4299.061L14135.1228,-4298.9788L14135.1458,-4298.9085"/>
<path content="1,北海道中央バス（株）,101　空沼線,2.0,2.0,2.0," xlink:title="1" d="M14135.0914,-4299.061L14135.0815,-4299.0829L14135.0616,-4299.1257L14135.0465,-4299.1563L14135.0241,-4299.2118L14135.0149,-4299.231L14134.9881,-4299.2929L14134.9582,-4299.3559L14134.9459,-4299.3857L14134.9383,-4299.4257L14134.936,-4299.4471L14134.9329,-4299.4696L14134.9299,-4299.4944L14134.927,-4299.5677L14134.9061,-4299.7009L14134.9,-4299.7583L14134.8939,-4299.8028L14134.89,-4299.8298L14134.8854,-4299.8686L14134.8839,-4299.8788L14134.8778,-4299.9317L14134.8793,-4299.9439L14134.8739,-4299.9671L14134.8709,-4299.9874L14134.8709,-4299.9981L14134.8624,-4300.0651L14134.8571,-4300.1084L14134.8525,-4300.1484L14134.8493,-4300.1837L14134.8472,-4300.2451L14134.8424,-4300.2906L14134.8395,-4300.3157L14134.839,-4300.3195L14134.8312,-4300.3759L14134.8299,-4300.3804L14134.8174,-4300.4519L14134.8106,-4300.5067"/>
<path content="1,北海道中央バス（株）,101　空沼線,2.0,2.0,2.0," xlink:title="1" d="M14134.8106,-4300.5067L14134.8074,-4300.5262L14134.8009,-4300.5885L14134.7956,-4300.6358L14134.7917,-4300.6678L14134.7848,-4300.7027L14134.7756,-4300.7247L14134.7645,-4300.7502"/>
<path content="1,北海道中央バス（株）,101　空沼線,2.0,2.0,2.0," xlink:title="1" d="M14134.9264,-4300.5536L14134.9052,-4300.5462L14134.9029,-4300.5451L14134.8814,-4300.5361L14134.8753,-4300.5344L14134.8439,-4300.5209L14134.8106,-4300.5067"/>
<path content="1,北海道中央バス（株）,101　空沼線,2.0,2.0,2.0," xlink:title="1" d="M14134.7645,-4300.7502L14134.6984,-4300.9176L14134.739,-4300.9376L14134.7687,-4300.9532L14134.8278,-4300.9847L14134.863,-4301.0044L14134.8996,-4301.0244L14134.9265,-4301.0411L14134.9336,-4301.0455L14134.9811,-4301.0821L14135.0072,-4301.1051L14135.0164,-4301.1141L14135.0371,-4301.1367L14135.0555,-4301.1569L14135.0693,-4301.1749L14135.0938,-4301.2047L14135.1122,-4301.2329L14135.1306,-4301.2627L14135.1513,-4301.301L14135.1606,-4301.3207L14135.1705,-4301.3466L14135.1828,-4301.3939L14135.1943,-4301.4574L14135.1996,-4301.4952L14135.2004,-4301.5025L14135.205,-4301.5334L14135.2081,-4301.5627L14135.2134,-4301.6044L14135.2196,-4301.6567L14135.2212,-4301.6901L14135.2222,-4301.7063L14135.2199,-4301.7233L14135.2058,-4301.798L14135.2027,-4301.8132L14135.1958,-4301.8346L14135.1808,-4301.8961L14135.1756,-4301.9173L14135.1704,-4301.9423L14135.1652,-4301.9573L14135.1574,-4301.9736L14135.1462,-4301.992L14135.1076,-4302.0557L14135.0701,-4302.1162L14135.06,-4302.1373L14135.0569,-4302.1498L14135.0554,-4302.1559L14135.0497,-4302.1968L14135.0476,-4302.1988L14135.0637,-4302.2213L14135.0815,-4302.2461"/>
<path content="1,北海道中央バス（株）,101　空沼線,2.0,2.0,2.0," xlink:title="1" d="M14135.382,-4302.2461L14135.3761,-4302.2168L14135.3681,-4302.1804L14135.3553,-4302.1193L14135.353,-4302.0895L14135.3537,-4302.058L14135.3576,-4302.0298L14135.3653,-4301.9972L14135.3706,-4301.9781L14135.3773,-4301.9592L14135.3859,-4301.9352L14135.4189,-4301.8638L14135.4304,-4301.8385L14135.4419,-4301.8058L14135.4473,-4301.7738L14135.4473,-4301.7198L14135.445,-4301.6996L14135.4399,-4301.6746L14135.436,-4301.6624L14135.4321,-4301.6478L14135.4236,-4301.5881L14135.4228,-4301.5706L14135.4228,-4301.5565L14135.4165,-4301.509L14135.4173,-4301.4767L14135.4186,-4301.4374L14135.4201,-4301.4024L14135.4243,-4301.3511L14135.4243,-4301.2999L14135.4182,-4301.2757L14135.4098,-4301.2537L14135.3814,-4301.2042L14135.3711,-4301.191L14135.3599,-4301.1766L14135.3185,-4301.1316L14135.2809,-4301.0956L14135.25,-4301.0704L14135.1536,-4300.9965L14135.0892,-4300.9498L14135.011,-4300.898L14134.7903,-4300.7607L14134.7645,-4300.7502"/>
<path content="1,北海道中央バス（株）,102　滝野線,2.0,2.0,2.0," xlink:title="1" d="M14135.1458,-4298.9085L14135.1466,-4298.8741L14135.1425,-4298.8523L14135.1343,-4298.8263L14135.1273,-4298.8259L14135.0709,-4298.8137L14135.0402,-4298.8015L14135.0034,-4298.783L14134.9804,-4298.7694L14134.9628,-4298.7571L14134.9353,-4298.7346L14134.8862,-4298.6884L14134.8663,-4298.6676L14134.8426,-4298.6462L14134.8342,-4298.6338L14134.8196,-4298.6107L14134.8128,-4298.5933L14134.8036,-4298.5708L14134.7951,-4298.5488L14134.7889,-4298.5217L14134.7744,-4298.4993L14134.7584,-4298.4599L14134.7438,-4298.4205L14134.7277,-4298.3817L14134.7055,-4298.3237L14134.691,-4298.286L14134.6835,-4298.242L14134.668,-4298.2241L14134.6634,-4298.2128L14134.6619,-4298.2078L14134.6527,-4298.183L14134.6497,-4298.1718L14134.6328,-4298.1273L14134.619,-4298.0862L14134.6129,-4298.0609L14134.6121,-4298.0294L14134.6159,-4297.9843L14134.6152,-4297.9478L14134.6129,-4297.9247L14134.6106,-4297.9084L14134.6029,-4297.8752L14134.5959,-4297.8516"/>
<path content="1,北海道中央バス（株）,102　滝野線,2.0,2.0,2.0," xlink:title="1" d="M14135.3489,-4299.0605L14135.3978,-4299.0627L14135.4468,-4299.0666L14135.5562,-4299.0773L14135.6229,-4299.0863L14135.6404,-4299.0902L14135.6686,-4299.099L14135.6884,-4299.1011L14135.7226,-4299.1059L14135.7264,-4299.1065L14135.7887,-4299.1134L14135.8101,-4299.1106L14135.8046,-4299.0603L14135.7789,-4298.8923L14135.6979,-4298.8995L14135.6918,-4298.9006L14135.5892,-4298.913L14135.5693,-4298.9147L14135.4789,-4298.9215L14135.4591,-4298.9215L14135.4269,-4298.922L14135.3935,-4298.9213L14135.3602,-4298.9203L14135.2997,-4298.9169L14135.2576,-4298.9136L14135.1458,-4298.9085"/>
<path content="1,北海道中央バス（株）,102　滝野線,2.0,2.0,2.0," xlink:title="1" d="M14135.3489,-4299.0605L14135.3483,-4299.0763L14135.3322,-4299.143"/>
<path content="1,北海道中央バス（株）,102　滝野線,2.0,2.0,2.0," xlink:title="1" d="M14135.0914,-4299.061L14135.1228,-4298.9788L14135.1458,-4298.9085"/>
<path content="1,北海道中央バス（株）,102　滝野線,2.0,2.0,2.0," xlink:title="1" d="M14135.0914,-4299.061L14135.1427,-4299.0576L14135.1604,-4299.0576L14135.2249,-4299.0547L14135.2836,-4299.0576L14135.289,-4299.0582L14135.3489,-4299.0605"/>
<path content="1,北海道中央バス（株）,102　滝野線,2.0,2.0,2.0," xlink:title="1" d="M14134.8106,-4300.5067L14134.8174,-4300.4519L14134.8299,-4300.3804L14134.8312,-4300.3759L14134.839,-4300.3195L14134.8395,-4300.3157L14134.8424,-4300.2906L14134.8472,-4300.2451L14134.8493,-4300.1837L14134.8525,-4300.1484L14134.8571,-4300.1084L14134.8624,-4300.0651L14134.8709,-4299.9981L14134.8709,-4299.9874L14134.8739,-4299.9671L14134.8793,-4299.9439L14134.8778,-4299.9317L14134.8839,-4299.8788L14134.8854,-4299.8686L14134.89,-4299.8298L14134.8939,-4299.8028L14134.9,-4299.7583L14134.9061,-4299.7009L14134.927,-4299.5677L14134.9299,-4299.4944L14134.9329,-4299.4696L14134.936,-4299.4471L14134.9383,-4299.4257L14134.9459,-4299.3857L14134.9582,-4299.3559L14134.9881,-4299.2929L14135.0149,-4299.231L14135.0241,-4299.2118L14135.0465,-4299.1563L14135.0616,-4299.1257L14135.0815,-4299.0829L14135.0914,-4299.061"/>
<path content="1,北海道中央バス（株）,102　滝野線,2.0,2.0,2.0," xlink:title="1" d="M14134.9264,-4300.5536L14134.9052,-4300.5462L14134.9029,-4300.5451L14134.8814,-4300.5361L14134.8753,-4300.5344L14134.8439,-4300.5209L14134.8106,-4300.5067"/>
<path content="1,北海道中央バス（株）,102　滝野線,2.0,2.0,2.0," xlink:title="1" d="M14135.4399,-4301.6746L14135.436,-4301.6624L14135.4321,-4301.6478L14135.4236,-4301.5881L14135.4228,-4301.5706L14135.4228,-4301.5565L14135.4165,-4301.509L14135.4173,-4301.4767L14135.4186,-4301.4374L14135.4201,-4301.4024"/>
<path content="1,北海道中央バス（株）,102　滝野線,2.0,2.0,2.0," xlink:title="1" d="M14135.4399,-4301.6746L14135.4321,-4301.6757L14135.389,-4301.6815L14135.3484,-4301.6877L14135.3157,-4301.6926L14135.2702,-4301.6995L14135.2303,-4301.7052L14135.2222,-4301.7063"/>
<path content="1,北海道中央バス（株）,102　滝野線,2.0,2.0,2.0," xlink:title="1" d="M14135.2222,-4301.7063L14135.2212,-4301.6901L14135.2196,-4301.6567L14135.2134,-4301.6044L14135.2081,-4301.5627L14135.205,-4301.5334L14135.2004,-4301.5025L14135.1996,-4301.4952L14135.1943,-4301.4574L14135.1828,-4301.3939L14135.1705,-4301.3466L14135.1606,-4301.3207L14135.1513,-4301.301L14135.1306,-4301.2627L14135.1122,-4301.2329L14135.0938,-4301.2047L14135.0693,-4301.1749L14135.0555,-4301.1569L14135.0371,-4301.1367L14135.0164,-4301.1141L14135.0072,-4301.1051L14134.9811,-4301.0821L14134.9336,-4301.0455L14134.9265,-4301.0411L14134.8996,-4301.0244L14134.863,-4301.0044L14134.8278,-4300.9847L14134.7687,-4300.9532L14134.739,-4300.9376L14134.6984,-4300.9176L14134.7645,-4300.7502L14134.7756,-4300.7247L14134.7848,-4300.7027L14134.7917,-4300.6678L14134.7956,-4300.6358L14134.8009,-4300.5885L14134.8074,-4300.5262L14134.8106,-4300.5067"/>
<path content="1,北海道中央バス（株）,102　滝野線,2.0,2.0,2.0," xlink:title="1" d="M14135.0815,-4302.2461L14135.0637,-4302.2213L14135.0476,-4302.1988L14135.0497,-4302.1968L14135.0554,-4302.1559L14135.0569,-4302.1498L14135.06,-4302.1373L14135.0701,-4302.1162L14135.1076,-4302.0557L14135.1462,-4301.992L14135.1574,-4301.9736L14135.1652,-4301.9573L14135.1704,-4301.9423L14135.1756,-4301.9173L14135.1808,-4301.8961L14135.1958,-4301.8346L14135.2027,-4301.8132L14135.2058,-4301.798L14135.2199,-4301.7233L14135.2222,-4301.7063"/>
<path content="1,北海道中央バス（株）,102　滝野線,2.0,2.0,2.0," xlink:title="1" d="M14135.382,-4302.2461L14135.3761,-4302.2168L14135.3681,-4302.1804L14135.3553,-4302.1193L14135.353,-4302.0895L14135.3537,-4302.058L14135.3576,-4302.0298L14135.3653,-4301.9972L14135.3706,-4301.9781L14135.3773,-4301.9592L14135.3859,-4301.9352L14135.4189,-4301.8638L14135.4304,-4301.8385L14135.4419,-4301.8058L14135.4473,-4301.7738L14135.4473,-4301.7198L14135.445,-4301.6996L14135.4399,-4301.6746"/>
<path content="1,北海道中央バス（株）,103　滝野線,9.0,0.0,0.0," xlink:title="1" d="M14133.7774,-4299.9138L14133.7459,-4299.8669L14133.687,-4299.7978L14133.6341,-4299.6774L14133.6028,-4299.5973L14133.5668,-4299.4848L14133.5392,-4299.3998L14133.5058,-4299.3093L14133.4659,-4299.192L14133.4558,-4299.1516L14133.4519,-4299.1392L14133.4458,-4299.1217L14133.4374,-4299.0874L14133.4343,-4299.0734L14133.4282,-4299.0311L14133.4251,-4298.9979L14133.4236,-4298.9771L14133.4244,-4298.8983L14133.4267,-4298.8808L14133.4535,-4298.7824L14133.4665,-4298.7283L14133.4703,-4298.7182L14133.4726,-4298.6998L14133.4864,-4298.6535L14133.5161,-4298.5291L14133.5308,-4298.4627L14133.5392,-4298.4254L14133.5422,-4298.4104L14133.5469,-4298.3856L14133.5588,-4298.3386L14133.5638,-4298.3153L14133.6013,-4298.3102L14133.6426,-4298.3106L14133.6702,-4298.3074L14133.7269,-4298.3046L14133.7843,-4298.3012L14133.8371,-4298.3001L14133.8486,-4298.2995L14133.9268,-4298.2961L14133.948,-4298.2952L14134.0954,-4298.2874L14134.1556,-4298.2809L14134.1933,-4298.2726L14134.2295,-4298.2596L14134.2522,-4298.2455L14134.2691,-4298.2314L14134.2775,-4298.2218L14134.2874,-4298.2078L14134.2943,-4298.1926L14134.3012,-4298.1763L14134.3096,-4298.1498L14134.3196,-4298.1126L14134.3409,-4298.0604L14134.3541,-4297.9956L14134.3763,-4297.9264L14134.3862,-4297.8971L14134.3939,-4297.8729L14134.401,-4297.8516"/>
<path content="1,北海道中央バス（株）,キロロ線,0.3,0.3,0.3," xlink:title="1" d="M14133.6706,-4297.8516L14133.6687,-4297.8661L14133.6642,-4297.8868L14133.6595,-4297.9072L14133.6572,-4297.919L14133.6526,-4297.9382L14133.6449,-4297.9691L14133.6357,-4298.0018L14133.6343,-4298.0106L14133.6143,-4298.0958L14133.6071,-4298.1338L14133.6057,-4298.1434L14133.5982,-4298.1678L14133.5967,-4298.1723L14133.5939,-4298.1829L14133.5852,-4298.219L14133.5769,-4298.2608L14133.5693,-4298.2901L14133.5638,-4298.3153L14133.5588,-4298.3386L14133.5469,-4298.3856L14133.5422,-4298.4104L14133.5392,-4298.4254L14133.5308,-4298.4627L14133.5161,-4298.5291L14133.4864,-4298.6535L14133.4726,-4298.6998L14133.4703,-4298.7182L14133.4665,-4298.7283L14133.4535,-4298.7824L14133.4267,-4298.8808L14133.4244,-4298.8983L14133.4236,-4298.9771L14133.4251,-4298.9979L14133.4282,-4299.0311L14133.4343,-4299.0734L14133.4374,-4299.0874L14133.4458,-4299.1217L14133.4519,-4299.1392L14133.4558,-4299.1516L14133.4659,-4299.192L14133.5058,-4299.3093L14133.5392,-4299.3998L14133.5668,-4299.4848L14133.6028,-4299.5973L14133.6341,-4299.6774L14133.687,-4299.7978L14133.7459,-4299.8669L14133.7774,-4299.9138L14133.8152,-4299.9682L14133.823,-4299.9713L14133.8331,-4299.9802L14133.8769,-4300.0251L14133.9466,-4300.0864L14133.9496,-4300.092L14133.9506,-4300.0989L14133.9499,-4300.1054L14133.9455,-4300.1123L14133.9542,-4300.1193L14133.9977,-4300.1516L14134.0706,-4300.2021L14134.0792,-4300.2076L14134.098,-4300.2195L14134.142,-4300.2451L14134.1852,-4300.2795L14134.2097,-4300.2969L14134.2496,-4300.3211L14134.2711,-4300.338L14134.2818,-4300.3498L14134.2994,-4300.383L14134.3512,-4300.5181L14134.3669,-4300.5772L14134.3753,-4300.6014L14134.3991,-4300.6706L14134.4244,-4300.7432L14134.4412,-4300.7956L14134.4543,-4300.835L14134.4641,-4300.8674L14134.4677,-4300.8812L14134.4742,-4300.8997L14134.5095,-4301.0072L14134.5862,-4300.9942L14134.5989,-4300.9929L14134.613,-4300.9906L14134.6268,-4300.9864L14134.6491,-4300.9768L14134.6698,-4300.9633L14134.6836,-4300.9498L14134.6887,-4300.9411L14134.6929,-4300.9324L14134.6984,-4300.9176L14134.739,-4300.9376L14134.7687,-4300.9532L14134.8278,-4300.9847L14134.863,-4301.0044L14134.8996,-4301.0244L14134.9265,-4301.0411L14134.9336,-4301.0455L14134.9811,-4301.0821L14135.0072,-4301.1051L14135.0164,-4301.1141L14135.0371,-4301.1367L14135.0555,-4301.1569L14135.0693,-4301.1749L14135.0938,-4301.2047L14135.1122,-4301.2329L14135.1306,-4301.2627L14135.1513,-4301.301L14135.1606,-4301.3207L14135.1705,-4301.3466L14135.1828,-4301.3939L14135.1943,-4301.4574L14135.1996,-4301.4952L14135.2004,-4301.5025L14135.205,-4301.5334L14135.2081,-4301.5627L14135.2134,-4301.6044L14135.2196,-4301.6567L14135.2212,-4301.6901L14135.2222,-4301.7063L14135.2199,-4301.7233L14135.2058,-4301.798L14135.2027,-4301.8132L14135.1958,-4301.8346L14135.1808,-4301.8961L14135.1756,-4301.9173L14135.1704,-4301.9423L14135.1652,-4301.9573L14135.1574,-4301.9736L14135.1462,-4301.992L14135.1076,-4302.0557L14135.0701,-4302.1162L14135.06,-4302.1373L14135.0569,-4302.1498L14135.0554,-4302.1559L14135.0497,-4302.1968L14135.0476,-4302.1988L14135.0637,-4302.2213L14135.0815,-4302.2461"/>
<path content="1,北海道中央バス（株）,南71　下西岡線,65.5,44.5,44.5," xlink:title="1" d="M14137.207,-4301.2887L14137.1965,-4301.2937L14137.1313,-4301.3206L14137.1099,-4301.3343L14137.0853,-4301.3405L14137.0439,-4301.3585L14136.9596,-4301.3978L14136.9296,-4301.4164L14136.9174,-4301.4254L14136.8997,-4301.4429L14136.8898,-4301.4558L14136.8736,-4301.493L14136.8706,-4301.5014L14136.8631,-4301.5121L14136.8536,-4301.5211L14136.8432,-4301.5266L14136.8221,-4301.532L14136.8054,-4301.5352L14136.7479,-4301.5408L14136.7144,-4301.5469L14136.6336,-4301.5509L14136.6367,-4301.5802L14136.664,-4301.6872"/>
<path content="1,北海道中央バス（株）,南81　西岡線,31.5,25.0,25.0," xlink:title="1" d="M14136.7853,-4298.5892L14136.7792,-4298.6829L14136.7777,-4298.7054L14136.7777,-4298.7262L14136.7761,-4298.7864L14136.7739,-4298.819L14136.7608,-4298.8494L14136.7777,-4298.868L14136.7922,-4298.8866L14136.8099,-4298.908L14136.8594,-4298.9627L14136.9032,-4299.0211L14136.916,-4299.0486L14136.8808,-4299.0476L14136.8696,-4299.0475L14136.8503,-4299.0509L14136.8321,-4299.0577L14136.8137,-4299.0678L14136.8061,-4299.0738L14136.7991,-4299.0813L14136.792,-4299.0897L14136.7869,-4299.1004L14136.7837,-4299.1106L14136.7824,-4299.1194L14136.78,-4299.1337L14136.7777,-4299.1512L14136.7739,-4299.1776L14136.7685,-4299.1905L14136.7624,-4299.1989L14136.7577,-4299.2036L14136.7471,-4299.2091L14136.7279,-4299.217L14136.7126,-4299.2231L14136.7317,-4299.2597L14136.796,-4299.3926L14136.8152,-4299.4353L14136.8419,-4299.499L14136.8634,-4299.531L14136.8703,-4299.5451L14136.917,-4299.6438L14136.9193,-4299.6514L14136.9254,-4299.6689L14136.9354,-4299.7021L14136.9415,-4299.719L14136.9629,-4299.8082L14136.9905,-4299.876L14137.0012,-4299.9098L14137.0173,-4299.9621L14137.0334,-4300.015"/>
<path content="1,北海道中央バス（株）,南81　西岡線,31.5,25.0,25.0," xlink:title="1" d="M14137.0334,-4300.015L14137.0104,-4300.0139L14136.9614,-4300.0139L14136.8978,-4300.0088L14136.8919,-4300.008L14136.885,-4300.0058L14136.8412,-4299.9998L14136.7876,-4299.9869L14136.7807,-4299.9846L14136.7638,-4299.9796L14136.7187,-4299.9638L14136.6589,-4299.9379L14136.6505,-4299.9334L14136.6337,-4299.9255L14136.6184,-4299.9199L14136.6015,-4299.9115L14136.5265,-4299.8794L14136.4939,-4299.8681L14136.4363,-4299.854L14136.4105,-4299.8481L14136.3426,-4299.8404L14136.3235,-4299.8394L14136.2761,-4299.8394L14136.2056,-4299.8428L14136.1489,-4299.8461L14136.1103,-4299.8482L14136.0036,-4299.8493L14135.9856,-4299.8093L14135.9215,-4299.7122L14135.8962,-4299.6632L14135.8518,-4299.6621L14135.763,-4299.6571L14135.7546,-4299.6559L14135.7645,-4299.5428L14135.7684,-4299.509L14135.7125,-4299.5073L14135.6395,-4299.5065L14135.6091,-4299.5028L14135.5578,-4299.5L14135.5417,-4299.4989L14135.5088,-4299.4983L14135.4965,-4299.4972L14135.4268,-4299.4949L14135.3648,-4299.491L14135.3079,-4299.4889L14135.3087,-4299.4808L14135.3056,-4299.4289L14135.3276,-4299.2819L14135.3277,-4299.2777L14135.3288,-4299.2713L14135.3322,-4299.143L14135.3483,-4299.0763L14135.3489,-4299.0605L14135.289,-4299.0582L14135.2913,-4299.0222L14135.2997,-4298.9169L14135.3602,-4298.9203L14135.3935,-4298.9213L14135.4269,-4298.922L14135.4591,-4298.9215L14135.4789,-4298.9215L14135.5693,-4298.9147L14135.5892,-4298.913L14135.6918,-4298.9006L14135.6979,-4298.8995L14135.7789,-4298.8923L14135.8046,-4299.0603L14135.8101,-4299.1106"/>
<path content="1,北海道中央バス（株）,南81　西岡線,31.5,25.0,25.0," xlink:title="1" d="M14137.0334,-4300.015L14137.0533,-4300.015L14137.0947,-4300.0128L14137.1188,-4300.0118L14137.1314,-4300.0113L14137.1672,-4300.0056L14137.207,-4299.9977"/>
<path content="1,北海道中央バス（株）,南81　西岡線,31.5,25.0,25.0," xlink:title="1" d="M14136.664,-4301.6872L14136.6367,-4301.5802L14136.6336,-4301.5509L14136.7144,-4301.5469L14136.7479,-4301.5408L14136.8054,-4301.5352L14136.8221,-4301.532L14136.8432,-4301.5266L14136.8536,-4301.5211L14136.8631,-4301.5121L14136.8706,-4301.5014L14136.8736,-4301.493L14136.8898,-4301.4558L14136.8997,-4301.4429L14136.9174,-4301.4254L14136.9296,-4301.4164L14136.9596,-4301.3978L14137.0439,-4301.3585L14137.0853,-4301.3405L14137.1099,-4301.3343L14137.1313,-4301.3206L14137.1965,-4301.2937L14137.207,-4301.2887"/>
<path content="1,北海道中央バス（株）,南92　滝野線,11.5,10.5,10.5," xlink:title="1" d="M14135.8101,-4299.1106L14135.8046,-4299.0603L14135.7789,-4298.8923L14135.7744,-4298.8582L14135.757,-4298.7418L14135.7445,-4298.6603L14135.7364,-4298.5911L14135.7338,-4298.5708L14135.7255,-4298.5332L14135.7148,-4298.4992L14135.7034,-4298.47L14135.6921,-4298.4473L14135.6776,-4298.4249L14135.6611,-4298.4031L14135.6479,-4298.389L14135.6286,-4298.3705L14135.5989,-4298.3442L14135.5139,-4298.2689L14135.4471,-4298.2283L14135.3976,-4298.1914L14135.3419,-4298.1493L14135.2761,-4298.0958L14135.2646,-4298.0879L14135.312,-4298.0525L14135.1926,-4297.9579L14135.1796,-4297.9472L14135.1566,-4297.9292L14135.0628,-4297.8615L14135.0515,-4297.8516"/>
<path content="1,北海道中央バス（株）,澄73　西岡環状線,110.0,65.0,65.0," xlink:title="1" d="M14136.664,-4301.6872L14136.6367,-4301.5802L14136.6336,-4301.5509L14136.7144,-4301.5469L14136.7479,-4301.5408L14136.8054,-4301.5352L14136.8221,-4301.532L14136.8432,-4301.5266L14136.8536,-4301.5211L14136.8631,-4301.5121L14136.8706,-4301.5014L14136.8736,-4301.493L14136.8898,-4301.4558L14136.8997,-4301.4429L14136.9174,-4301.4254L14136.9296,-4301.4164L14136.9596,-4301.3978L14137.0439,-4301.3585L14137.0853,-4301.3405L14137.1099,-4301.3343L14137.1313,-4301.3206L14137.1965,-4301.2937L14137.207,-4301.2887"/>
<path content="1,北海道中央バス（株）,澄78　澄川白石線,20.0,12.0,12.0," xlink:title="1" d="M14136.664,-4301.6872L14136.6367,-4301.5802L14136.6336,-4301.5509L14136.7144,-4301.5469L14136.7479,-4301.5408L14136.8054,-4301.5352L14136.8221,-4301.532L14136.8432,-4301.5266L14136.8536,-4301.5211L14136.8631,-4301.5121L14136.8706,-4301.5014L14136.8736,-4301.493L14136.8898,-4301.4558L14136.8997,-4301.4429L14136.9174,-4301.4254L14136.9296,-4301.4164L14136.9596,-4301.3978L14137.0439,-4301.3585L14137.0853,-4301.3405L14137.1099,-4301.3343L14137.1313,-4301.3206L14137.1965,-4301.2937L14137.207,-4301.2887"/>
<path content="1,北海道中央バス（株）,真101　空沼線,10.5,9.5,9.5," xlink:title="1" d="M14135.8101,-4299.1106L14135.8046,-4299.0603L14135.7789,-4298.8923L14135.6979,-4298.8995L14135.6918,-4298.9006L14135.5892,-4298.913L14135.5693,-4298.9147L14135.4789,-4298.9215L14135.4591,-4298.9215L14135.4269,-4298.922L14135.3935,-4298.9213L14135.3602,-4298.9203L14135.2997,-4298.9169L14135.2576,-4298.9136L14135.1458,-4298.9085L14135.1466,-4298.8741L14135.1425,-4298.8523L14135.1343,-4298.8263L14135.1273,-4298.8259L14135.0709,-4298.8137L14135.0402,-4298.8015L14135.0034,-4298.783L14134.9804,-4298.7694L14134.9628,-4298.7571L14134.9353,-4298.7346L14134.8862,-4298.6884L14134.8663,-4298.6676L14134.8426,-4298.6462L14134.8342,-4298.6338L14134.8196,-4298.6107L14134.8128,-4298.5933L14134.8036,-4298.5708L14134.7951,-4298.5488L14134.7889,-4298.5217L14134.7744,-4298.4993L14134.7584,-4298.4599L14134.7438,-4298.4205L14134.7277,-4298.3817L14134.7055,-4298.3237L14134.691,-4298.286L14134.6835,-4298.242L14134.668,-4298.2241L14134.6634,-4298.2128L14134.6619,-4298.2078L14134.6527,-4298.183L14134.6497,-4298.1718L14134.6328,-4298.1273L14134.619,-4298.0862L14134.6129,-4298.0609L14134.6121,-4298.0294L14134.6159,-4297.9843L14134.6152,-4297.9478L14134.6129,-4297.9247L14134.6106,-4297.9084L14134.6029,-4297.8752L14134.5959,-4297.8516"/>
<path content="1,北海道中央バス（株）,真102　滝野線,67.5,48.0,48.0," xlink:title="1" d="M14135.8101,-4299.1106L14135.8046,-4299.0603L14135.7789,-4298.8923L14135.6979,-4298.8995L14135.6918,-4298.9006L14135.5892,-4298.913L14135.5693,-4298.9147L14135.4789,-4298.9215L14135.4591,-4298.9215L14135.4269,-4298.922L14135.3935,-4298.9213L14135.3602,-4298.9203L14135.2997,-4298.9169L14135.2576,-4298.9136L14135.1458,-4298.9085L14135.1466,-4298.8741L14135.1425,-4298.8523L14135.1343,-4298.8263L14135.1273,-4298.8259L14135.0709,-4298.8137L14135.0402,-4298.8015L14135.0034,-4298.783L14134.9804,-4298.7694L14134.9628,-4298.7571L14134.9353,-4298.7346L14134.8862,-4298.6884L14134.8663,-4298.6676L14134.8426,-4298.6462L14134.8342,-4298.6338L14134.8196,-4298.6107L14134.8128,-4298.5933L14134.8036,-4298.5708L14134.7951,-4298.5488L14134.7889,-4298.5217L14134.7744,-4298.4993L14134.7584,-4298.4599L14134.7438,-4298.4205L14134.7277,-4298.3817L14134.7055,-4298.3237L14134.691,-4298.286L14134.6835,-4298.242L14134.668,-4298.2241L14134.6634,-4298.2128L14134.6619,-4298.2078L14134.6527,-4298.183L14134.6497,-4298.1718L14134.6328,-4298.1273L14134.619,-4298.0862L14134.6129,-4298.0609L14134.6121,-4298.0294L14134.6159,-4297.9843L14134.6152,-4297.9478L14134.6129,-4297.9247L14134.6106,-4297.9084L14134.6029,-4297.8752L14134.5959,-4297.8516"/>
<path content="1,北海道中央バス（株）,真104　真駒内線,15.5,11.0,11.0," xlink:title="1" d="M14135.8101,-4299.1106L14135.8095,-4299.18L14135.8117,-4299.2026L14135.8151,-4299.2282L14135.8227,-4299.2771L14135.8404,-4299.3829L14135.8465,-4299.4246L14135.8549,-4299.4696L14135.8807,-4299.5377L14135.8809,-4299.6165L14135.8871,-4299.6374L14135.8962,-4299.6632L14135.9215,-4299.7122L14135.9856,-4299.8093L14136.0036,-4299.8493L14136.1103,-4299.8482L14136.1489,-4299.8461L14136.2056,-4299.8428L14136.2761,-4299.8394L14136.3235,-4299.8394L14136.3426,-4299.8404L14136.4105,-4299.8481L14136.4363,-4299.854L14136.4939,-4299.8681L14136.5265,-4299.8794L14136.6015,-4299.9115L14136.6184,-4299.9199L14136.6337,-4299.9255L14136.6505,-4299.9334L14136.6589,-4299.9379L14136.7187,-4299.9638L14136.7638,-4299.9796L14136.7807,-4299.9846L14136.7876,-4299.9869L14136.8412,-4299.9998L14136.885,-4300.0058L14136.8919,-4300.008L14136.8978,-4300.0088L14136.9614,-4300.0139L14137.0104,-4300.0139L14137.0334,-4300.015L14137.0533,-4300.015L14137.0947,-4300.0128L14137.1188,-4300.0118L14137.1314,-4300.0113L14137.1672,-4300.0056L14137.207,-4299.9977"/>
<path content="1,北海道中央バス（株）,真105　真駒内線,14.0,12.0,12.0," xlink:title="1" d="M14137.207,-4299.9977L14137.1672,-4300.0056L14137.1314,-4300.0113L14137.1188,-4300.0118L14137.0947,-4300.0128L14137.0533,-4300.015L14137.0334,-4300.015L14137.0104,-4300.0139L14136.9614,-4300.0139L14136.8978,-4300.0088L14136.8919,-4300.008L14136.885,-4300.0058L14136.8412,-4299.9998L14136.7876,-4299.9869L14136.7807,-4299.9846L14136.7638,-4299.9796L14136.7187,-4299.9638L14136.6589,-4299.9379L14136.6505,-4299.9334L14136.6337,-4299.9255L14136.6184,-4299.9199L14136.6015,-4299.9115L14136.5265,-4299.8794L14136.4939,-4299.8681L14136.4363,-4299.854L14136.4105,-4299.8481L14136.3426,-4299.8404L14136.3235,-4299.8394L14136.2761,-4299.8394L14136.2056,-4299.8428L14136.1489,-4299.8461L14136.1103,-4299.8482L14136.0036,-4299.8493L14135.9856,-4299.8093L14135.9215,-4299.7122L14135.8962,-4299.6632L14135.8871,-4299.6374L14135.8809,-4299.6165L14135.8807,-4299.5377L14135.8549,-4299.4696L14135.8465,-4299.4246L14135.8404,-4299.3829L14135.8227,-4299.2771L14135.8151,-4299.2282L14135.8117,-4299.2026L14135.8095,-4299.18L14135.8101,-4299.1106"/>
<path content="1,北海道中央バス（株）,福76　福住澄川線,14.0,8.5,8.5," xlink:title="1" d="M14137.207,-4301.2887L14137.1965,-4301.2937L14137.1313,-4301.3206L14137.1099,-4301.3343L14137.0853,-4301.3405L14137.0439,-4301.3585L14136.9596,-4301.3978L14136.9296,-4301.4164L14136.9174,-4301.4254L14136.8997,-4301.4429L14136.8898,-4301.4558L14136.8736,-4301.493L14136.8706,-4301.5014L14136.8631,-4301.5121L14136.8536,-4301.5211L14136.8432,-4301.5266L14136.8221,-4301.532L14136.8054,-4301.5352L14136.7479,-4301.5408L14136.7144,-4301.5469L14136.6336,-4301.5509L14136.6367,-4301.5802L14136.664,-4301.6872"/>
<path content="1,北都交通（株）,アパホテル＆リゾート＜札幌＞・地下鉄真駒内駅～新千歳空港,22.5,22.5,22.5," xlink:title="1" d="M14137.207,-4299.9977L14137.1672,-4300.0056L14137.1314,-4300.0113L14137.1188,-4300.0118L14137.0947,-4300.0128L14137.0533,-4300.015L14137.0334,-4300.015L14137.0104,-4300.0139L14136.9614,-4300.0139L14136.8978,-4300.0088L14136.8919,-4300.008L14136.885,-4300.0058L14136.8412,-4299.9998L14136.7876,-4299.9869L14136.7807,-4299.9846L14136.7638,-4299.9796L14136.7187,-4299.9638L14136.6589,-4299.9379L14136.6505,-4299.9334L14136.6337,-4299.9255L14136.6184,-4299.9199L14136.6015,-4299.9115L14136.5265,-4299.8794L14136.4939,-4299.8681L14136.4363,-4299.854L14136.4105,-4299.8481L14136.3426,-4299.8404L14136.3235,-4299.8394L14136.2761,-4299.8394L14136.2056,-4299.8428L14136.1489,-4299.8461L14136.1103,-4299.8482L14136.0036,-4299.8493L14135.9856,-4299.8093L14135.9215,-4299.7122L14135.8962,-4299.6632L14135.8871,-4299.6374L14135.8809,-4299.6165L14135.8807,-4299.5377L14135.8549,-4299.4696L14135.8465,-4299.4246L14135.8404,-4299.3829L14135.8227,-4299.2771L14135.8151,-4299.2282L14135.8117,-4299.2026L14135.8095,-4299.18L14135.8101,-4299.1106L14135.7887,-4299.1134L14135.7264,-4299.1065L14135.7226,-4299.1059L14135.6884,-4299.1011L14135.6686,-4299.099L14135.6404,-4299.0902L14135.6229,-4299.0863L14135.5562,-4299.0773L14135.4468,-4299.0666L14135.3978,-4299.0627L14135.3489,-4299.0605L14135.289,-4299.0582L14135.2836,-4299.0576L14135.2249,-4299.0547L14135.1604,-4299.0576L14135.1427,-4299.0576L14135.0914,-4299.061L14135.0815,-4299.0829L14135.0616,-4299.1257L14135.0465,-4299.1563L14135.0241,-4299.2118L14135.0149,-4299.231L14134.9881,-4299.2929L14134.9582,-4299.3559L14134.9459,-4299.3857L14134.9383,-4299.4257L14134.936,-4299.4471L14134.9329,-4299.4696L14134.9299,-4299.4944L14134.927,-4299.5677L14134.9061,-4299.7009L14134.9,-4299.7583L14134.8939,-4299.8028L14134.8188,-4299.8022L14134.7958,-4299.8011L14134.7468,-4299.8011L14134.694,-4299.8039L14134.6779,-4299.8062L14134.6396,-4299.8152L14134.5255,-4299.8585L14134.5087,-4299.8636L14134.4719,-4299.8742L14134.4423,-4299.8794L14134.4209,-4299.8815L14134.3938,-4299.8849L14134.3568,-4299.8883L14134.3027,-4299.8973L14134.2939,-4299.8988L14134.2742,-4299.9042L14134.2621,-4299.9041L14134.2024,-4299.912L14134.1881,-4299.9151L14134.1587,-4299.9187L14134.1334,-4299.9221L14134.1036,-4299.9271L14134.0614,-4299.9333L14133.9535,-4299.948L14133.9305,-4299.9513L14133.9183,-4299.9536L14133.8677,-4299.9614L14133.8152,-4299.9682L14133.7774,-4299.9138L14133.7459,-4299.8669L14133.687,-4299.7978L14133.6341,-4299.6774"/>
<path content="1,北都交通（株）,円山バスターミナル～新千歳空港,16.5,16.5,16.5," xlink:title="1" d="M14134.2729,-4302.2461L14134.3308,-4302.1311L14134.3737,-4302.0444L14134.3914,-4302.0118L14134.4144,-4301.9775L14134.4274,-4301.9617L14134.4512,-4301.9392L14134.4803,-4301.9195L14134.5217,-4301.8976L14134.5501,-4301.8869L14134.6007,-4301.8745L14134.6114,-4301.8734L14134.6321,-4301.8689L14134.6792,-4301.8577L14134.692,-4301.8565L14134.7065,-4301.8542L14134.7234,-4301.8509L14134.7426,-4301.848L14134.7658,-4301.8433L14134.7747,-4301.8416L14134.7882,-4301.838L14134.8331,-4301.8261L14134.842,-4301.8243L14134.8638,-4301.8193L14134.9205,-4301.803L14134.9327,-4301.7985L14134.9435,-4301.7957L14134.9933,-4301.7783L14135.1076,-4301.7327L14135.1252,-4301.727L14135.1551,-4301.7186L14135.2042,-4301.709L14135.2222,-4301.7063L14135.2303,-4301.7052L14135.2702,-4301.6995L14135.3157,-4301.6926L14135.3484,-4301.6877L14135.389,-4301.6815L14135.4321,-4301.6757L14135.4399,-4301.6746L14135.4493,-4301.6731L14135.6157,-4301.6491L14135.6231,-4301.6481L14135.673,-4301.6418L14135.824,-4301.624L14135.8816,-4301.6207L14135.899,-4301.619L14135.9769,-4301.612L14136.0163,-4301.6078L14136.034,-4301.6057L14136.1375,-4301.5971L14136.2737,-4301.5844L14136.2864,-4301.5837L14136.3691,-4301.5751L14136.4251,-4301.5701L14136.4772,-4301.5656L14136.5194,-4301.5611L14136.5669,-4301.5566L14136.6336,-4301.5509L14136.6367,-4301.5802L14136.664,-4301.6872L14136.6628,-4301.7479L14136.7867,-4301.7395L14136.7969,-4301.7108L14136.8177,-4301.6556L14136.8529,-4301.5616L14136.8599,-4301.5462L14136.8766,-4301.5063L14136.8706,-4301.5014L14136.8736,-4301.493L14136.8898,-4301.4558L14136.8997,-4301.4429L14136.9174,-4301.4254L14136.9296,-4301.4164L14136.9596,-4301.3978L14137.0439,-4301.3585L14137.0853,-4301.3405L14137.1099,-4301.3343L14137.1313,-4301.3206L14137.1965,-4301.2937L14137.207,-4301.2887"/>
<path content="1,北都交通（株）,定山渓温泉～新千歳空港　快適　湯ったりライナー号,1.0,1.0,1.0," xlink:title="1" d="M14134.5959,-4297.8516L14134.6029,-4297.8752L14134.6106,-4297.9084L14134.6129,-4297.9247L14134.6152,-4297.9478L14134.6159,-4297.9843L14134.6121,-4298.0294L14134.6129,-4298.0609L14134.619,-4298.0862L14134.6328,-4298.1273L14134.6497,-4298.1718L14134.6527,-4298.183L14134.6619,-4298.2078L14134.6634,-4298.2128L14134.668,-4298.2241L14134.6835,-4298.242L14134.691,-4298.286L14134.7055,-4298.3237L14134.7277,-4298.3817L14134.7438,-4298.4205L14134.7584,-4298.4599L14134.7744,-4298.4993L14134.7889,-4298.5217L14134.7951,-4298.5488L14134.8036,-4298.5708L14134.8128,-4298.5933L14134.8196,-4298.6107L14134.8342,-4298.6338L14134.8426,-4298.6462L14134.8663,-4298.6676L14134.8862,-4298.6884L14134.9353,-4298.7346L14134.9628,-4298.7571L14134.9804,-4298.7694L14135.0034,-4298.783L14135.0402,-4298.8015L14135.0709,-4298.8137L14135.1273,-4298.8259L14135.1343,-4298.8263L14135.1425,-4298.8523L14135.1466,-4298.8741L14135.1458,-4298.9085L14135.1228,-4298.9788L14135.0914,-4299.061L14135.0815,-4299.0829L14135.0616,-4299.1257L14135.0465,-4299.1563L14135.0241,-4299.2118L14135.0149,-4299.231L14134.9881,-4299.2929L14134.9582,-4299.3559L14134.9459,-4299.3857L14134.9383,-4299.4257L14134.936,-4299.4471L14134.9329,-4299.4696L14134.9299,-4299.4944L14134.927,-4299.5677L14134.9061,-4299.7009L14134.9,-4299.7583L14134.8939,-4299.8028L14134.9831,-4299.8036L14135.0156,-4299.805L14135.0654,-4299.8056L14135.0815,-4299.8067L14135.1358,-4299.8078L14135.1986,-4299.8101L14135.2231,-4299.8101L14135.23,-4299.8101L14135.2754,-4299.812L14135.3234,-4299.8141L14135.3652,-4299.816L14135.3947,-4299.8174L14135.459,-4299.8203L14135.4713,-4299.8197L14135.5172,-4299.8231L14135.5869,-4299.8276L14135.6098,-4299.8287L14135.7025,-4299.8326L14135.7393,-4299.8332L14135.75,-4299.8343L14135.7913,-4299.8366L14135.8947,-4299.8405L14135.9305,-4299.8417L14136.0036,-4299.8493L14136.1103,-4299.8482L14136.1489,-4299.8461L14136.2056,-4299.8428L14136.2761,-4299.8394L14136.3235,-4299.8394L14136.3426,-4299.8404L14136.4105,-4299.8481L14136.4363,-4299.854L14136.4939,-4299.8681L14136.5265,-4299.8794L14136.6015,-4299.9115L14136.6184,-4299.9199L14136.6337,-4299.9255L14136.6505,-4299.9334L14136.6589,-4299.9379L14136.7187,-4299.9638L14136.7638,-4299.9796L14136.7807,-4299.9846L14136.7876,-4299.9869L14136.8412,-4299.9998L14136.885,-4300.0058L14136.8919,-4300.008L14136.8978,-4300.0088L14136.9614,-4300.0139L14137.0104,-4300.0139L14137.0334,-4300.015L14137.0533,-4300.015L14137.0947,-4300.0128L14137.1188,-4300.0118L14137.1314,-4300.0113L14137.1672,-4300.0056L14137.207,-4299.9977"/>
<path content="1,道南バス（株）,札幌～定山渓～洞爺湖温泉・東浦,7.0,7.0,7.0," xlink:title="1" d="M14135.0515,-4297.8516L14135.0628,-4297.8615L14135.1566,-4297.9292L14135.1796,-4297.9472L14135.1926,-4297.9579L14135.312,-4298.0525L14135.2646,-4298.0879L14135.2761,-4298.0958L14135.3419,-4298.1493L14135.3976,-4298.1914L14135.4471,-4298.2283L14135.5139,-4298.2689L14135.5989,-4298.3442L14135.6286,-4298.3705L14135.6479,-4298.389L14135.6611,-4298.4031L14135.6776,-4298.4249L14135.6921,-4298.4473L14135.7034,-4298.47L14135.7148,-4298.4992L14135.7255,-4298.5332L14135.7338,-4298.5708L14135.7364,-4298.5911L14135.7445,-4298.6603L14135.757,-4298.7418L14135.7744,-4298.8582L14135.7789,-4298.8923L14135.8046,-4299.0603L14135.8101,-4299.1106L14135.8095,-4299.18L14135.8117,-4299.2026L14135.8151,-4299.2282L14135.8227,-4299.2771L14135.8404,-4299.3829L14135.8465,-4299.4246L14135.8549,-4299.4696L14135.8807,-4299.5377L14135.8809,-4299.6165L14135.8871,-4299.6374L14135.8962,-4299.6632L14135.9215,-4299.7122L14135.9856,-4299.8093L14136.0036,-4299.8493L14135.9305,-4299.8417L14135.8947,-4299.8405L14135.7913,-4299.8366L14135.75,-4299.8343L14135.7393,-4299.8332L14135.7025,-4299.8326L14135.6098,-4299.8287L14135.5869,-4299.8276L14135.5172,-4299.8231L14135.4713,-4299.8197L14135.459,-4299.8203L14135.3947,-4299.8174L14135.3652,-4299.816L14135.3234,-4299.8141L14135.2754,-4299.812L14135.23,-4299.8101L14135.2231,-4299.8101L14135.1986,-4299.8101L14135.1358,-4299.8078L14135.0815,-4299.8067L14135.0654,-4299.8056L14135.0156,-4299.805L14134.9831,-4299.8036L14134.8939,-4299.8028L14134.89,-4299.8298L14134.8854,-4299.8686L14134.8839,-4299.8788L14134.8778,-4299.9317L14134.8793,-4299.9439L14134.8739,-4299.9671L14134.8709,-4299.9874L14134.8709,-4299.9981L14134.8624,-4300.0651L14134.8571,-4300.1084L14134.8525,-4300.1484L14134.8493,-4300.1837L14134.8472,-4300.2451L14134.8424,-4300.2906L14134.8395,-4300.3157L14134.839,-4300.3195L14134.8312,-4300.3759L14134.8299,-4300.3804L14134.8174,-4300.4519L14134.8106,-4300.5067L14134.8074,-4300.5262L14134.8009,-4300.5885L14134.7956,-4300.6358L14134.7917,-4300.6678L14134.7848,-4300.7027L14134.7756,-4300.7247L14134.7645,-4300.7502L14134.6984,-4300.9176L14134.739,-4300.9376L14134.7687,-4300.9532L14134.8278,-4300.9847L14134.863,-4301.0044L14134.8996,-4301.0244L14134.9265,-4301.0411L14134.9336,-4301.0455L14134.9811,-4301.0821L14135.0072,-4301.1051L14135.0164,-4301.1141L14135.0371,-4301.1367L14135.0555,-4301.1569L14135.0693,-4301.1749L14135.0938,-4301.2047L14135.1122,-4301.2329L14135.1306,-4301.2627L14135.1513,-4301.301L14135.1606,-4301.3207L14135.1705,-4301.3466L14135.1828,-4301.3939L14135.1943,-4301.4574L14135.1996,-4301.4952L14135.2004,-4301.5025L14135.205,-4301.5334L14135.2081,-4301.5627L14135.2134,-4301.6044L14135.2196,-4301.6567L14135.2212,-4301.6901L14135.2222,-4301.7063L14135.2199,-4301.7233L14135.2058,-4301.798L14135.2027,-4301.8132L14135.1958,-4301.8346L14135.1808,-4301.8961L14135.1756,-4301.9173L14135.1704,-4301.9423L14135.1652,-4301.9573L14135.1574,-4301.9736L14135.1462,-4301.992L14135.1076,-4302.0557L14135.0701,-4302.1162L14135.06,-4302.1373L14135.0569,-4302.1498L14135.0554,-4302.1559L14135.0497,-4302.1968L14135.0476,-4302.1988L14135.0637,-4302.2213L14135.0815,-4302.2461"/>
<path content="1,銀嶺バス（株）,特急せたな号,0.4,0.4,0.4," xlink:title="1" d="M14134.588,-4302.2461L14134.5922,-4302.2206L14134.5961,-4302.188L14134.6007,-4302.1525L14134.6007,-4302.1435L14134.6068,-4302.0867L14134.6153,-4302.051L14134.617,-4302.0012L14134.6215,-4301.9631L14134.6321,-4301.8689L14134.6421,-4301.7844L14134.646,-4301.7597L14134.6483,-4301.7377L14134.6506,-4301.7169L14134.6598,-4301.646L14134.6667,-4301.5903L14134.6736,-4301.5424L14134.677,-4301.517L14134.6774,-4301.507L14134.6744,-4301.489L14134.6746,-4301.4828L14134.6686,-4301.4748L14134.6529,-4301.4321L14134.5916,-4301.2514L14134.5839,-4301.2179L14134.5708,-4301.1913L14134.5593,-4301.1524L14134.5095,-4301.0072L14134.4742,-4300.8997L14134.4677,-4300.8812L14134.4641,-4300.8674L14134.4543,-4300.835L14134.4412,-4300.7956L14134.4244,-4300.7432L14134.3991,-4300.6706L14134.3753,-4300.6014L14134.3669,-4300.5772L14134.3512,-4300.5181L14134.2994,-4300.383L14134.2818,-4300.3498L14134.2711,-4300.338L14134.2496,-4300.3211L14134.2097,-4300.2969L14134.1852,-4300.2795L14134.142,-4300.2451L14134.098,-4300.2195L14134.0792,-4300.2076L14134.0706,-4300.2021L14133.9977,-4300.1516L14133.9542,-4300.1193L14133.9455,-4300.1123L14133.9185,-4300.0905L14133.8915,-4300.0687L14133.8554,-4300.0351L14133.8222,-4300.001L14133.7931,-4299.9716L14133.8152,-4299.9682L14133.7774,-4299.9138L14133.7459,-4299.8669L14133.687,-4299.7978L14133.6341,-4299.6774L14133.6028,-4299.5973L14133.5668,-4299.4848L14133.5392,-4299.3998L14133.5058,-4299.3093L14133.4659,-4299.192L14133.4558,-4299.1516L14133.4519,-4299.1392L14133.4458,-4299.1217L14133.4374,-4299.0874L14133.4343,-4299.0734L14133.4282,-4299.0311L14133.4251,-4298.9979L14133.4236,-4298.9771L14133.4244,-4298.8983L14133.4267,-4298.8808L14133.4535,-4298.7824L14133.4665,-4298.7283L14133.4703,-4298.7182L14133.4726,-4298.6998L14133.4864,-4298.6535L14133.5161,-4298.5291L14133.5308,-4298.4627L14133.5392,-4298.4254L14133.5422,-4298.4104L14133.5469,-4298.3856L14133.5588,-4298.3386L14133.5638,-4298.3153L14133.5693,-4298.2901L14133.5769,-4298.2608L14133.5852,-4298.219L14133.5939,-4298.1829L14133.5967,-4298.1723L14133.5982,-4298.1678L14133.6057,-4298.1434L14133.6071,-4298.1338L14133.6143,-4298.0958L14133.6343,-4298.0106L14133.6357,-4298.0018L14133.6449,-4297.9691L14133.6526,-4297.9382L14133.6572,-4297.919L14133.6595,-4297.9072L14133.6642,-4297.8868L14133.6687,-4297.8661L14133.6706,-4297.8516"/>
<path content="1,（株）じょうてつ,12,112.5,89.5,89.5," xlink:title="1" d="M14135.8101,-4299.1106L14135.7887,-4299.1134L14135.7264,-4299.1065L14135.7226,-4299.1059L14135.6884,-4299.1011L14135.6686,-4299.099L14135.6404,-4299.0902L14135.6229,-4299.0863L14135.5562,-4299.0773L14135.4468,-4299.0666L14135.3978,-4299.0627L14135.3489,-4299.0605L14135.289,-4299.0582L14135.2836,-4299.0576L14135.2249,-4299.0547L14135.1604,-4299.0576L14135.1427,-4299.0576L14135.0914,-4299.061L14135.1228,-4298.9788L14135.1458,-4298.9085L14135.1466,-4298.8741L14135.1425,-4298.8523L14135.1343,-4298.8263L14135.1273,-4298.8259L14135.0709,-4298.8137L14135.0402,-4298.8015L14135.0034,-4298.783L14134.9804,-4298.7694L14134.9628,-4298.7571L14134.9353,-4298.7346L14134.8862,-4298.6884L14134.8663,-4298.6676L14134.8426,-4298.6462L14134.8342,-4298.6338L14134.8196,-4298.6107L14134.8128,-4298.5933L14134.8036,-4298.5708L14134.7951,-4298.5488L14134.7889,-4298.5217L14134.7744,-4298.4993L14134.7584,-4298.4599L14134.7438,-4298.4205L14134.7277,-4298.3817L14134.7055,-4298.3237L14134.691,-4298.286L14134.6835,-4298.242L14134.668,-4298.2241L14134.6634,-4298.2128L14134.6619,-4298.2078L14134.6527,-4298.183L14134.6497,-4298.1718L14134.6328,-4298.1273L14134.619,-4298.0862L14134.6129,-4298.0609L14134.6121,-4298.0294L14134.6159,-4297.9843L14134.6152,-4297.9478L14134.6129,-4297.9247L14134.6106,-4297.9084L14134.6029,-4297.8752L14134.5959,-4297.8516"/>
<path content="1,（株）じょうてつ,7,31.5,27.5,27.5," xlink:title="1" d="M14133.6706,-4297.8516L14133.6687,-4297.8661L14133.6642,-4297.8868L14133.6595,-4297.9072L14133.6572,-4297.919L14133.6526,-4297.9382L14133.6449,-4297.9691L14133.6357,-4298.0018L14133.6343,-4298.0106L14133.6143,-4298.0958L14133.6071,-4298.1338L14133.6057,-4298.1434L14133.5982,-4298.1678L14133.5967,-4298.1723L14133.5939,-4298.1829L14133.5852,-4298.219L14133.5769,-4298.2608L14133.5693,-4298.2901L14133.5638,-4298.3153L14133.5588,-4298.3386L14133.5469,-4298.3856L14133.5422,-4298.4104L14133.5392,-4298.4254L14133.5308,-4298.4627L14133.5161,-4298.5291L14133.4864,-4298.6535L14133.4726,-4298.6998L14133.4703,-4298.7182L14133.4665,-4298.7283L14133.4535,-4298.7824L14133.4267,-4298.8808L14133.4244,-4298.8983L14133.4236,-4298.9771L14133.4251,-4298.9979L14133.4282,-4299.0311L14133.4343,-4299.0734L14133.4374,-4299.0874L14133.4458,-4299.1217L14133.4519,-4299.1392L14133.4558,-4299.1516L14133.4659,-4299.192L14133.5058,-4299.3093L14133.5392,-4299.3998L14133.5668,-4299.4848L14133.6028,-4299.5973L14133.6341,-4299.6774L14133.687,-4299.7978L14133.7459,-4299.8669L14133.7774,-4299.9138L14133.8152,-4299.9682L14133.823,-4299.9713L14133.8331,-4299.9802L14133.8769,-4300.0251L14133.9466,-4300.0864L14133.9496,-4300.092L14133.9506,-4300.0989L14133.9499,-4300.1054L14133.9455,-4300.1123L14133.9542,-4300.1193L14133.9977,-4300.1516L14134.0706,-4300.2021L14134.0792,-4300.2076L14134.098,-4300.2195L14134.142,-4300.2451L14134.1852,-4300.2795L14134.2097,-4300.2969L14134.2496,-4300.3211L14134.2711,-4300.338L14134.2818,-4300.3498L14134.2994,-4300.383L14134.3512,-4300.5181L14134.3669,-4300.5772L14134.3753,-4300.6014L14134.3991,-4300.6706L14134.4244,-4300.7432L14134.4412,-4300.7956L14134.4543,-4300.835L14134.4641,-4300.8674L14134.4677,-4300.8812L14134.4742,-4300.8997L14134.5095,-4301.0072L14134.5593,-4301.1524L14134.5708,-4301.1913L14134.5839,-4301.2179L14134.5916,-4301.2514L14134.6529,-4301.4321L14134.6686,-4301.4748L14134.6746,-4301.4828L14134.6744,-4301.489L14134.6774,-4301.507L14134.677,-4301.517L14134.6736,-4301.5424L14134.6667,-4301.5903L14134.6598,-4301.646L14134.6506,-4301.7169L14134.6483,-4301.7377L14134.646,-4301.7597L14134.6421,-4301.7844L14134.6321,-4301.8689L14134.6215,-4301.9631L14134.617,-4302.0012L14134.6153,-4302.051L14134.6068,-4302.0867L14134.6007,-4302.1435L14134.6007,-4302.1525L14134.5961,-4302.188L14134.5922,-4302.2206L14134.588,-4302.2461"/>
<path content="1,（株）じょうてつ,8,49.5,42.0,42.0," xlink:title="1" d="M14134.401,-4297.8516L14134.3939,-4297.8729L14134.3862,-4297.8971L14134.3763,-4297.9264L14134.3541,-4297.9956L14134.3409,-4298.0604L14134.3196,-4298.1126L14134.3096,-4298.1498L14134.3012,-4298.1763L14134.2943,-4298.1926L14134.2874,-4298.2078L14134.2775,-4298.2218L14134.2691,-4298.2314L14134.2522,-4298.2455L14134.2295,-4298.2596L14134.1933,-4298.2726L14134.1556,-4298.2809L14134.0954,-4298.2874L14133.948,-4298.2952L14133.9268,-4298.2961L14133.8486,-4298.2995L14133.8371,-4298.3001L14133.7843,-4298.3012L14133.7269,-4298.3046L14133.6702,-4298.3074L14133.6426,-4298.3106L14133.6013,-4298.3102L14133.5638,-4298.3153L14133.5588,-4298.3386L14133.5469,-4298.3856L14133.5422,-4298.4104L14133.5392,-4298.4254L14133.5308,-4298.4627L14133.5161,-4298.5291L14133.4864,-4298.6535L14133.4726,-4298.6998L14133.4703,-4298.7182L14133.4665,-4298.7283L14133.4535,-4298.7824L14133.4267,-4298.8808L14133.4244,-4298.8983L14133.4236,-4298.9771L14133.4251,-4298.9979L14133.4282,-4299.0311L14133.4343,-4299.0734L14133.4374,-4299.0874L14133.4458,-4299.1217L14133.4519,-4299.1392L14133.4558,-4299.1516L14133.4659,-4299.192L14133.5058,-4299.3093L14133.5392,-4299.3998L14133.5668,-4299.4848L14133.6028,-4299.5973L14133.6341,-4299.6774L14133.687,-4299.7978L14133.7459,-4299.8669L14133.7774,-4299.9138L14133.8152,-4299.9682L14133.823,-4299.9713L14133.8331,-4299.9802L14133.8769,-4300.0251L14133.9466,-4300.0864L14133.9496,-4300.092L14133.9506,-4300.0989L14133.9499,-4300.1054L14133.9455,-4300.1123L14133.9542,-4300.1193L14133.9977,-4300.1516L14134.0706,-4300.2021L14134.0792,-4300.2076L14134.098,-4300.2195L14134.142,-4300.2451L14134.1852,-4300.2795L14134.2097,-4300.2969L14134.2496,-4300.3211L14134.2711,-4300.338L14134.2818,-4300.3498L14134.2994,-4300.383L14134.3512,-4300.5181L14134.3669,-4300.5772L14134.3753,-4300.6014L14134.3991,-4300.6706L14134.4244,-4300.7432L14134.4412,-4300.7956L14134.4543,-4300.835L14134.4641,-4300.8674L14134.4677,-4300.8812L14134.4742,-4300.8997L14134.5095,-4301.0072L14134.5593,-4301.1524L14134.5708,-4301.1913L14134.5839,-4301.2179L14134.5916,-4301.2514L14134.6529,-4301.4321L14134.6686,-4301.4748L14134.6746,-4301.4828L14134.6744,-4301.489L14134.6774,-4301.507L14134.677,-4301.517L14134.6736,-4301.5424L14134.6667,-4301.5903L14134.6598,-4301.646L14134.6506,-4301.7169L14134.6483,-4301.7377L14134.646,-4301.7597L14134.6421,-4301.7844L14134.6321,-4301.8689L14134.6215,-4301.9631L14134.617,-4302.0012L14134.6153,-4302.051L14134.6068,-4302.0867L14134.6007,-4302.1435L14134.6007,-4302.1525L14134.5961,-4302.188L14134.5922,-4302.2206L14134.588,-4302.2461"/>
<path content="1,（株）じょうてつ,中の島線南65,33.0,21.5,21.5," xlink:title="1" d="M14135.6752,-4302.2461L14135.6702,-4302.2328L14135.6681,-4302.2252L14135.6474,-4302.1638L14135.6398,-4302.1334L14135.6388,-4302.1288L14135.6391,-4302.1018L14135.6393,-4302.097L14135.6404,-4302.0808L14135.6451,-4302.0608L14135.6474,-4302.0468L14135.6551,-4302.0231L14135.6769,-4301.9793L14135.7383,-4301.8683L14135.755,-4301.8393L14135.7479,-4301.8205L14135.6994,-4301.7104L14135.673,-4301.6418L14135.5901,-4301.4664L14135.5751,-4301.4343L14135.5593,-4301.3978L14135.5087,-4301.2802L14135.5058,-4301.2734L14135.4872,-4301.2295L14135.4527,-4301.1491L14135.4212,-4301.0773L14135.4121,-4301.0536L14135.3854,-4300.9863L14135.3661,-4300.9492L14135.3308,-4300.8654L14135.3201,-4300.8384L14135.3024,-4300.7967L14135.2825,-4300.7523L14135.2649,-4300.7112L14135.226,-4300.6795L14135.09,-4300.6166L14135.0601,-4300.6054L14135.0187,-4300.5885L14134.9957,-4300.5806L14134.9666,-4300.5704L14134.9264,-4300.5536L14134.9052,-4300.5462L14134.9029,-4300.5451L14134.8814,-4300.5361L14134.8753,-4300.5344L14134.8439,-4300.5209L14134.8106,-4300.5067L14134.8174,-4300.4519"/>
<path content="1,（株）じょうてつ,中の沢線南90,19.5,14.5,14.5," xlink:title="1" d="M14135.2754,-4299.812L14135.3234,-4299.8141L14135.3652,-4299.816L14135.3947,-4299.8174L14135.459,-4299.8203L14135.4713,-4299.8197L14135.5172,-4299.8231L14135.5869,-4299.8276L14135.6098,-4299.8287L14135.7025,-4299.8326L14135.7393,-4299.8332L14135.75,-4299.8343L14135.7913,-4299.8366L14135.8947,-4299.8405L14135.9305,-4299.8417L14136.0036,-4299.8493L14135.9856,-4299.8093L14135.9215,-4299.7122L14135.8962,-4299.6632L14135.8871,-4299.6374L14135.8809,-4299.6165L14135.8807,-4299.5377L14135.8549,-4299.4696L14135.8465,-4299.4246L14135.8404,-4299.3829L14135.8227,-4299.2771L14135.8151,-4299.2282L14135.8117,-4299.2026L14135.8095,-4299.18L14135.8101,-4299.1106L14135.7887,-4299.1134L14135.7264,-4299.1065L14135.7226,-4299.1059L14135.6884,-4299.1011L14135.6686,-4299.099L14135.6404,-4299.0902L14135.6229,-4299.0863L14135.5562,-4299.0773L14135.4468,-4299.0666L14135.3978,-4299.0627L14135.3489,-4299.0605L14135.3483,-4299.0763L14135.3322,-4299.143L14135.3288,-4299.2713L14135.3277,-4299.2777L14135.3276,-4299.2819L14135.3056,-4299.4289L14135.3087,-4299.4808L14135.3079,-4299.4889L14135.3061,-4299.4959L14135.2981,-4299.5779L14135.2945,-4299.6123L14135.2924,-4299.6248L14135.2925,-4299.6289L14135.2927,-4299.6351L14135.2759,-4299.8039L14135.2754,-4299.812"/>
<path content="1,（株）じょうてつ,中の沢線南90,19.5,14.5,14.5," xlink:title="1" d="M14135.2754,-4299.812L14135.23,-4299.8101L14135.2231,-4299.8101L14135.1986,-4299.8101L14135.1358,-4299.8078L14135.0815,-4299.8067L14135.0654,-4299.8056L14135.0156,-4299.805L14134.9831,-4299.8036L14134.8939,-4299.8028L14134.8188,-4299.8022L14134.7958,-4299.8011L14134.7468,-4299.8011L14134.694,-4299.8039L14134.6779,-4299.8062L14134.6396,-4299.8152L14134.5255,-4299.8585L14134.5087,-4299.8636L14134.4719,-4299.8742L14134.4423,-4299.8794L14134.4209,-4299.8815L14134.3938,-4299.8849L14134.3568,-4299.8883L14134.3027,-4299.8973L14134.2939,-4299.8988L14134.2742,-4299.9042L14134.2621,-4299.9041L14134.2024,-4299.912L14134.1881,-4299.9151L14134.1587,-4299.9187L14134.1334,-4299.9221L14134.1036,-4299.9271L14134.0614,-4299.9333L14133.9535,-4299.948L14133.9305,-4299.9513L14133.9183,-4299.9536L14133.8677,-4299.9614L14133.8152,-4299.9682L14133.7931,-4299.9716L14133.7623,-4299.9763L14133.7261,-4299.9823L14133.6709,-4299.993L14133.6353,-4299.9975L14133.6079,-4300.0036L14133.5867,-4300.0071L14133.528,-4300.018L14133.4326,-4300.0354L14133.3866,-4300.043L14133.311,-4300.0571L14133.2873,-4300.0605L14133.2624,-4300.0627L14133.2395,-4300.0625L14133.1892,-4300.0493L14133.0924,-4300.0202L14133.064,-4300.0116L14133.0484,-4300.0069L14133.0376,-4300.0042L14133.02,-4299.9991L14132.9906,-4299.9944L14132.9624,-4299.9919L14132.9406,-4299.99L14132.8651,-4299.9848L14132.8201,-4299.9789L14132.8125,-4299.9783"/>
<path content="1,（株）じょうてつ,北の沢線南97,34.0,31.0,31.0," xlink:title="1" d="M14135.2754,-4299.812L14135.3234,-4299.8141L14135.3652,-4299.816L14135.3947,-4299.8174L14135.459,-4299.8203L14135.4713,-4299.8197L14135.5172,-4299.8231L14135.5869,-4299.8276L14135.6098,-4299.8287L14135.7025,-4299.8326L14135.7393,-4299.8332L14135.75,-4299.8343L14135.7913,-4299.8366L14135.8947,-4299.8405L14135.9305,-4299.8417L14136.0036,-4299.8493L14135.9856,-4299.8093L14135.9215,-4299.7122L14135.8962,-4299.6632L14135.8871,-4299.6374L14135.8809,-4299.6165L14135.8807,-4299.5377L14135.8549,-4299.4696L14135.8465,-4299.4246L14135.8404,-4299.3829L14135.8227,-4299.2771L14135.8151,-4299.2282L14135.8117,-4299.2026L14135.8095,-4299.18L14135.8101,-4299.1106L14135.7887,-4299.1134L14135.7264,-4299.1065L14135.7226,-4299.1059L14135.6884,-4299.1011L14135.6686,-4299.099L14135.6404,-4299.0902L14135.6229,-4299.0863L14135.5562,-4299.0773L14135.4468,-4299.0666L14135.3978,-4299.0627L14135.3489,-4299.0605L14135.3483,-4299.0763L14135.3322,-4299.143L14135.3288,-4299.2713L14135.3277,-4299.2777L14135.3276,-4299.2819L14135.3056,-4299.4289L14135.3087,-4299.4808L14135.3079,-4299.4889L14135.3061,-4299.4959L14135.2981,-4299.5779L14135.2945,-4299.6123L14135.2924,-4299.6248L14135.2925,-4299.6289L14135.2927,-4299.6351L14135.2759,-4299.8039L14135.2754,-4299.812"/>
<path content="1,（株）じょうてつ,北の沢線南97,34.0,31.0,31.0," xlink:title="1" d="M14135.2754,-4299.812L14135.23,-4299.8101L14135.2231,-4299.8101L14135.1986,-4299.8101L14135.1358,-4299.8078L14135.0815,-4299.8067L14135.0654,-4299.8056L14135.0156,-4299.805L14134.9831,-4299.8036L14134.8939,-4299.8028L14134.8188,-4299.8022L14134.7958,-4299.8011L14134.7468,-4299.8011L14134.694,-4299.8039L14134.6779,-4299.8062L14134.6396,-4299.8152L14134.5255,-4299.8585L14134.5087,-4299.8636L14134.4719,-4299.8742L14134.4423,-4299.8794L14134.4209,-4299.8815L14134.3938,-4299.8849L14134.3568,-4299.8883L14134.3027,-4299.8973L14134.2939,-4299.8988L14134.2742,-4299.9042L14134.2621,-4299.9041L14134.2024,-4299.912L14134.1881,-4299.9151L14134.1587,-4299.9187L14134.1334,-4299.9221L14134.1036,-4299.9271L14134.0614,-4299.9333L14133.9535,-4299.948L14133.9305,-4299.9513L14133.9183,-4299.9536L14133.8677,-4299.9614L14133.8152,-4299.9682L14133.7931,-4299.9716L14133.7623,-4299.9763L14133.7261,-4299.9823L14133.6709,-4299.993L14133.6353,-4299.9975L14133.6079,-4300.0036L14133.5867,-4300.0071L14133.528,-4300.018L14133.4326,-4300.0354L14133.3866,-4300.043L14133.311,-4300.0571L14133.2873,-4300.0605L14133.2624,-4300.0627L14133.2395,-4300.0625L14133.1892,-4300.0493L14133.0924,-4300.0202L14133.064,-4300.0116L14133.0484,-4300.0069L14133.0376,-4300.0042L14133.02,-4299.9991L14132.9906,-4299.9944L14132.9624,-4299.9919L14132.9406,-4299.99L14132.8651,-4299.9848L14132.8201,-4299.9789L14132.8125,-4299.9783"/>
<path content="1,（株）じょうてつ,南沢線南96,28.5,36.5,36.5," xlink:title="1" d="M14134.3409,-4298.0604L14134.3196,-4298.1126L14134.3096,-4298.1498L14134.3012,-4298.1763L14134.2943,-4298.1926L14134.2874,-4298.2078L14134.2775,-4298.2218L14134.2691,-4298.2314L14134.2522,-4298.2455L14134.2295,-4298.2596L14134.1933,-4298.2726L14134.1556,-4298.2809L14134.0954,-4298.2874L14133.948,-4298.2952L14133.9268,-4298.2961L14133.8486,-4298.2995L14133.8371,-4298.3001L14133.7843,-4298.3012L14133.7269,-4298.3046L14133.6702,-4298.3074L14133.6426,-4298.3106L14133.6013,-4298.3102L14133.5638,-4298.3153"/>
<path content="1,（株）じょうてつ,南沢線南96,28.5,36.5,36.5," xlink:title="1" d="M14133.5638,-4298.3153L14133.5549,-4298.3154L14133.5482,-4298.3139L14133.506,-4298.2989L14133.4658,-4298.2843L14133.4397,-4298.273L14133.4186,-4298.2629L14133.4106,-4298.2579L14133.4051,-4298.255L14133.3981,-4298.2503L14133.3882,-4298.2415L14133.3677,-4298.2235L14133.3233,-4298.1841L14133.29,-4298.1548L14133.2734,-4298.1392L14133.2512,-4298.1278L14133.1403,-4298.098L14133.029,-4298.0989L14132.9276,-4298.0981L14132.8554,-4298.1109L14132.8125,-4298.1159"/>
<path content="1,（株）じょうてつ,南沢線南96,28.5,36.5,36.5," xlink:title="1" d="M14133.5638,-4298.3153L14133.5588,-4298.3386L14133.5469,-4298.3856L14133.5422,-4298.4104L14133.5392,-4298.4254L14133.5308,-4298.4627L14133.5161,-4298.5291L14133.4864,-4298.6535L14133.4726,-4298.6998L14133.4703,-4298.7182L14133.4665,-4298.7283L14133.4535,-4298.7824L14133.4267,-4298.8808L14133.4244,-4298.8983L14133.4236,-4298.9771L14133.4251,-4298.9979L14133.4282,-4299.0311L14133.4343,-4299.0734L14133.4374,-4299.0874L14133.4458,-4299.1217L14133.4519,-4299.1392L14133.4558,-4299.1516L14133.4659,-4299.192L14133.5058,-4299.3093L14133.5392,-4299.3998L14133.5668,-4299.4848L14133.6028,-4299.5973L14133.6341,-4299.6774L14133.687,-4299.7978L14133.7459,-4299.8669L14133.7774,-4299.9138L14133.8152,-4299.9682L14133.8677,-4299.9614L14133.9183,-4299.9536L14133.9305,-4299.9513L14133.9535,-4299.948L14134.0614,-4299.9333L14134.1036,-4299.9271L14134.1334,-4299.9221L14134.1587,-4299.9187L14134.1881,-4299.9151L14134.2024,-4299.912L14134.2621,-4299.9041L14134.2742,-4299.9042L14134.2939,-4299.8988L14134.3027,-4299.8973L14134.3568,-4299.8883L14134.3938,-4299.8849L14134.4209,-4299.8815L14134.4423,-4299.8794L14134.4719,-4299.8742L14134.5087,-4299.8636L14134.5255,-4299.8585L14134.6396,-4299.8152L14134.6779,-4299.8062L14134.694,-4299.8039L14134.7468,-4299.8011L14134.7958,-4299.8011L14134.8188,-4299.8022L14134.8939,-4299.8028L14134.9831,-4299.8036L14135.0156,-4299.805L14135.0654,-4299.8056L14135.0815,-4299.8067L14135.1358,-4299.8078L14135.1986,-4299.8101L14135.2231,-4299.8101L14135.23,-4299.8101L14135.2754,-4299.812"/>
<path content="1,（株）じょうてつ,南沢線南96,28.5,36.5,36.5," xlink:title="1" d="M14135.2754,-4299.812L14135.2759,-4299.8039L14135.2927,-4299.6351L14135.2925,-4299.6289L14135.2924,-4299.6248L14135.2945,-4299.6123L14135.2981,-4299.5779L14135.3061,-4299.4959L14135.3079,-4299.4889L14135.3087,-4299.4808L14135.3056,-4299.4289L14135.3276,-4299.2819L14135.3277,-4299.2777L14135.3288,-4299.2713L14135.3322,-4299.143L14135.3483,-4299.0763L14135.3489,-4299.0605L14135.3978,-4299.0627L14135.4468,-4299.0666L14135.5562,-4299.0773L14135.6229,-4299.0863L14135.6404,-4299.0902L14135.6686,-4299.099L14135.6884,-4299.1011L14135.7226,-4299.1059L14135.7264,-4299.1065L14135.7887,-4299.1134L14135.8101,-4299.1106L14135.8095,-4299.18L14135.8117,-4299.2026L14135.8151,-4299.2282L14135.8227,-4299.2771L14135.8404,-4299.3829L14135.8465,-4299.4246L14135.8549,-4299.4696L14135.8807,-4299.5377L14135.8809,-4299.6165L14135.8871,-4299.6374L14135.8962,-4299.6632L14135.9215,-4299.7122L14135.9856,-4299.8093L14136.0036,-4299.8493L14135.9305,-4299.8417L14135.8947,-4299.8405L14135.7913,-4299.8366L14135.75,-4299.8343L14135.7393,-4299.8332L14135.7025,-4299.8326L14135.6098,-4299.8287L14135.5869,-4299.8276L14135.5172,-4299.8231L14135.4713,-4299.8197L14135.459,-4299.8203L14135.3947,-4299.8174L14135.3652,-4299.816L14135.3234,-4299.8141L14135.2754,-4299.812"/>
<path content="1,（株）じょうてつ,南沢線環96,108.4,60.0,60.0," xlink:title="1" d="M14135.2754,-4299.812L14135.3234,-4299.8141L14135.3652,-4299.816L14135.3947,-4299.8174L14135.459,-4299.8203L14135.4713,-4299.8197L14135.5172,-4299.8231L14135.5869,-4299.8276L14135.6098,-4299.8287L14135.7025,-4299.8326L14135.7393,-4299.8332L14135.75,-4299.8343L14135.7913,-4299.8366L14135.8947,-4299.8405L14135.9305,-4299.8417L14136.0036,-4299.8493L14135.9856,-4299.8093L14135.9215,-4299.7122L14135.8962,-4299.6632L14135.8871,-4299.6374L14135.8809,-4299.6165L14135.8807,-4299.5377L14135.8549,-4299.4696L14135.8465,-4299.4246L14135.8404,-4299.3829L14135.8227,-4299.2771L14135.8151,-4299.2282L14135.8117,-4299.2026L14135.8095,-4299.18L14135.8101,-4299.1106L14135.7887,-4299.1134L14135.7264,-4299.1065L14135.7226,-4299.1059L14135.6884,-4299.1011L14135.6686,-4299.099L14135.6404,-4299.0902L14135.6229,-4299.0863L14135.5562,-4299.0773L14135.4468,-4299.0666L14135.3978,-4299.0627L14135.3489,-4299.0605L14135.3483,-4299.0763L14135.3322,-4299.143L14135.3288,-4299.2713L14135.3277,-4299.2777L14135.3276,-4299.2819L14135.3056,-4299.4289L14135.3087,-4299.4808L14135.3079,-4299.4889L14135.3061,-4299.4959L14135.2981,-4299.5779L14135.2945,-4299.6123L14135.2924,-4299.6248L14135.2925,-4299.6289L14135.2927,-4299.6351L14135.2759,-4299.8039L14135.2754,-4299.812"/>
<path content="1,（株）じょうてつ,南沢線環96,108.4,60.0,60.0," xlink:title="1" d="M14135.2754,-4299.812L14135.23,-4299.8101L14135.2231,-4299.8101L14135.1986,-4299.8101L14135.1358,-4299.8078L14135.0815,-4299.8067L14135.0654,-4299.8056L14135.0156,-4299.805L14134.9831,-4299.8036L14134.8939,-4299.8028L14134.8188,-4299.8022L14134.7958,-4299.8011L14134.7468,-4299.8011L14134.694,-4299.8039L14134.6779,-4299.8062L14134.6396,-4299.8152L14134.5255,-4299.8585L14134.5087,-4299.8636L14134.4719,-4299.8742L14134.4423,-4299.8794L14134.4209,-4299.8815L14134.3938,-4299.8849L14134.3568,-4299.8883L14134.3027,-4299.8973L14134.2939,-4299.8988L14134.2742,-4299.9042L14134.2621,-4299.9041L14134.2024,-4299.912L14134.1881,-4299.9151L14134.1587,-4299.9187L14134.1334,-4299.9221L14134.1036,-4299.9271L14134.0614,-4299.9333L14133.9535,-4299.948L14133.9305,-4299.9513L14133.9183,-4299.9536L14133.8677,-4299.9614L14133.8152,-4299.9682"/>
<path content="1,（株）じょうてつ,南沢線環96,108.4,60.0,60.0," xlink:title="1" d="M14132.8125,-4299.9783L14132.8201,-4299.9789L14132.8651,-4299.9848L14132.9406,-4299.99L14132.9624,-4299.9919L14132.9906,-4299.9944L14133.02,-4299.9991L14133.0376,-4300.0042L14133.0484,-4300.0069L14133.064,-4300.0116L14133.0924,-4300.0202L14133.1892,-4300.0493L14133.2395,-4300.0625L14133.2624,-4300.0627L14133.2873,-4300.0605L14133.311,-4300.0571L14133.3866,-4300.043L14133.4326,-4300.0354L14133.528,-4300.018L14133.5867,-4300.0071L14133.6079,-4300.0036L14133.6353,-4299.9975L14133.6709,-4299.993L14133.7261,-4299.9823L14133.7623,-4299.9763L14133.7931,-4299.9716L14133.8152,-4299.9682"/>
<path content="1,（株）じょうてつ,南沢線環96,108.4,60.0,60.0," xlink:title="1" d="M14133.8152,-4299.9682L14133.7774,-4299.9138L14133.7459,-4299.8669L14133.687,-4299.7978L14133.6341,-4299.6774L14133.6028,-4299.5973L14133.5668,-4299.4848L14133.5392,-4299.3998L14133.5058,-4299.3093L14133.4659,-4299.192L14133.4558,-4299.1516L14133.4519,-4299.1392L14133.4458,-4299.1217L14133.4374,-4299.0874L14133.4343,-4299.0734L14133.4282,-4299.0311L14133.4251,-4298.9979L14133.4236,-4298.9771L14133.4244,-4298.8983L14133.4267,-4298.8808L14133.4535,-4298.7824L14133.4665,-4298.7283L14133.4703,-4298.7182L14133.4726,-4298.6998L14133.4864,-4298.6535L14133.5161,-4298.5291L14133.5308,-4298.4627L14133.5392,-4298.4254L14133.5422,-4298.4104L14133.5469,-4298.3856L14133.5588,-4298.3386L14133.5638,-4298.3153L14133.5549,-4298.3154L14133.5482,-4298.3139L14133.506,-4298.2989L14133.4658,-4298.2843L14133.4397,-4298.273L14133.4186,-4298.2629L14133.4106,-4298.2579L14133.4051,-4298.255L14133.3981,-4298.2503L14133.3882,-4298.2415L14133.3677,-4298.2235L14133.3233,-4298.1841L14133.29,-4298.1548L14133.2734,-4298.1392L14133.2512,-4298.1278L14133.1403,-4298.098L14133.029,-4298.0989L14132.9276,-4298.0981L14132.8554,-4298.1109L14132.8125,-4298.1159"/>
<path content="1,（株）じょうてつ,川添線川1,18.0,18.0,18.0," xlink:title="1" d="M14135.0007,-4297.9259L14134.9039,-4297.9861L14134.8227,-4298.0429L14134.8319,-4298.0491L14134.9185,-4298.1216L14134.9399,-4298.1403L14134.9613,-4298.1577L14134.969,-4298.1644L14134.9812,-4298.174L14135.0057,-4298.196L14135.0372,-4298.219L14135.0605,-4298.2322L14135.0787,-4298.2487L14135.0974,-4298.2639L14135.1147,-4298.2786L14135.1246,-4298.2889L14135.1343,-4298.2977L14135.1516,-4298.3151L14135.1755,-4298.3372L14135.212,-4298.3719L14135.2584,-4298.4131L14135.2818,-4298.4388L14135.2905,-4298.4492L14135.3098,-4298.4813L14135.3469,-4298.5191L14135.363,-4298.5416L14135.3687,-4298.5528L14135.3769,-4298.5646L14135.3899,-4298.5876L14135.4055,-4298.6172L14135.4233,-4298.6566L14135.4291,-4298.6732L14135.4324,-4298.6822L14135.4398,-4298.7026L14135.4502,-4298.7413L14135.4554,-4298.7699L14135.458,-4298.7942L14135.4597,-4298.8184L14135.4499,-4298.8575L14135.4595,-4298.9087L14135.4591,-4298.9215L14135.4789,-4298.9215L14135.5693,-4298.9147L14135.5892,-4298.913L14135.6918,-4298.9006L14135.6979,-4298.8995L14135.7789,-4298.8923L14135.8046,-4299.0603L14135.8101,-4299.1106L14135.7887,-4299.1134L14135.7264,-4299.1065L14135.7226,-4299.1059L14135.6884,-4299.1011L14135.6686,-4299.099L14135.6404,-4299.0902L14135.6229,-4299.0863L14135.5562,-4299.0773L14135.4468,-4299.0666L14135.3978,-4299.0627L14135.3489,-4299.0605L14135.3483,-4299.0763L14135.3322,-4299.143L14135.3288,-4299.2713L14135.3277,-4299.2777L14135.3276,-4299.2819L14135.3056,-4299.4289L14135.3087,-4299.4808L14135.3079,-4299.4889L14135.3061,-4299.4959L14135.2981,-4299.5779L14135.2945,-4299.6123L14135.2924,-4299.6248L14135.2925,-4299.6289L14135.2927,-4299.6351L14135.2759,-4299.8039L14135.2754,-4299.812"/>
<path content="1,（株）じょうてつ,川添線川1,18.0,18.0,18.0," xlink:title="1" d="M14135.2754,-4299.812L14135.3234,-4299.8141L14135.3652,-4299.816"/>
<path content="1,（株）じょうてつ,川添線川1,18.0,18.0,18.0," xlink:title="1" d="M14135.2754,-4299.812L14135.23,-4299.8101L14135.2231,-4299.8101L14135.1986,-4299.8101L14135.1358,-4299.8078L14135.0815,-4299.8067L14135.0654,-4299.8056L14135.0156,-4299.805L14134.9831,-4299.8036L14134.8939,-4299.8028L14134.8188,-4299.8022L14134.7958,-4299.8011L14134.7468,-4299.8011L14134.694,-4299.8039L14134.6779,-4299.8062L14134.6396,-4299.8152L14134.5255,-4299.8585L14134.5087,-4299.8636L14134.4719,-4299.8742L14134.4423,-4299.8794L14134.4209,-4299.8815L14134.3938,-4299.8849L14134.3568,-4299.8883L14134.3027,-4299.8973L14134.2939,-4299.8988L14134.2742,-4299.9042L14134.2621,-4299.9041L14134.2024,-4299.912L14134.1881,-4299.9151L14134.1587,-4299.9187L14134.1334,-4299.9221L14134.1036,-4299.9271L14134.0614,-4299.9333L14133.9535,-4299.948L14133.9305,-4299.9513L14133.9183,-4299.9536L14133.8677,-4299.9614L14133.8152,-4299.9682"/>
<path content="1,（株）じょうてつ,川添線川1,18.0,18.0,18.0," xlink:title="1" d="M14133.8152,-4299.9682L14133.7774,-4299.9138L14133.7459,-4299.8669L14133.687,-4299.7978"/>
<path content="1,（株）じょうてつ,川添線川1,18.0,18.0,18.0," xlink:title="1" d="M14133.8152,-4299.9682L14133.7931,-4299.9716L14133.7623,-4299.9763L14133.7261,-4299.9823L14133.6709,-4299.993L14133.6353,-4299.9975"/>
<path content="1,（株）じょうてつ,平岸線環56,117.0,65.0,65.0," xlink:title="1" d="M14134.8174,-4300.4519L14134.8106,-4300.5067L14134.8439,-4300.5209L14134.8753,-4300.5344L14134.8814,-4300.5361L14134.9029,-4300.5451L14134.9052,-4300.5462L14134.9264,-4300.5536L14134.9666,-4300.5704L14134.9957,-4300.5806L14135.0187,-4300.5885L14135.0601,-4300.6054L14135.09,-4300.6166L14135.226,-4300.6795L14135.2649,-4300.7112L14135.2825,-4300.7523L14135.3024,-4300.7967L14135.3201,-4300.8384L14135.3308,-4300.8654L14135.3661,-4300.9492L14135.3854,-4300.9863L14135.4121,-4301.0536L14135.4212,-4301.0773L14135.4527,-4301.1491L14135.4872,-4301.2295L14135.5058,-4301.2734L14135.5087,-4301.2802L14135.5593,-4301.3978L14135.5751,-4301.4343L14135.5901,-4301.4664L14135.673,-4301.6418L14135.6994,-4301.7104L14135.7479,-4301.8205L14135.755,-4301.8393"/>
<path content="1,（株）じょうてつ,平岸線環56,117.0,65.0,65.0," xlink:title="1" d="M14135.755,-4301.8393L14135.7383,-4301.8683L14135.6769,-4301.9793L14135.6551,-4302.0231L14135.6474,-4302.0468L14135.6451,-4302.0608L14135.6404,-4302.0808L14135.6393,-4302.097L14135.6391,-4302.1018L14135.6388,-4302.1288L14135.6398,-4302.1334L14135.6474,-4302.1638L14135.6681,-4302.2252L14135.6702,-4302.2328L14135.6752,-4302.2461M14136.3242,-4302.2461L14136.2801,-4302.2218L14136.2594,-4302.21L14136.2272,-4302.1914L14136.198,-4302.1768L14136.1628,-4302.1559L14136.1022,-4302.1216L14136.0669,-4302.1014L14136.0324,-4302.0817L14135.94,-4302.0259L14135.8568,-4301.9854L14135.8445,-4301.9781L14135.8361,-4301.9736L14135.8146,-4301.9573L14135.8069,-4301.9477L14135.7993,-4301.9336L14135.7832,-4301.8987L14135.7768,-4301.886L14135.755,-4301.8393"/>
<path content="1,（株）じょうてつ,真駒内線南4,79.5,53.5,53.5," xlink:title="1" d="M14135.0007,-4297.9259L14134.9039,-4297.9861L14134.8227,-4298.0429L14134.8319,-4298.0491L14134.9185,-4298.1216L14134.9399,-4298.1403L14134.9613,-4298.1577L14134.969,-4298.1644L14134.9812,-4298.174L14135.0057,-4298.196L14135.0372,-4298.219L14135.0605,-4298.2322L14135.0787,-4298.2487L14135.0974,-4298.2639L14135.1147,-4298.2786L14135.1246,-4298.2889L14135.1343,-4298.2977L14135.1516,-4298.3151L14135.1755,-4298.3372L14135.212,-4298.3719L14135.2584,-4298.4131L14135.2818,-4298.4388L14135.2905,-4298.4492L14135.3098,-4298.4813L14135.3469,-4298.5191L14135.363,-4298.5416L14135.3687,-4298.5528L14135.3769,-4298.5646L14135.3899,-4298.5876L14135.4055,-4298.6172L14135.4233,-4298.6566L14135.4291,-4298.6732L14135.4324,-4298.6822L14135.4398,-4298.7026L14135.4502,-4298.7413L14135.4554,-4298.7699L14135.458,-4298.7942L14135.4597,-4298.8184L14135.4499,-4298.8575L14135.4595,-4298.9087L14135.4591,-4298.9215L14135.4789,-4298.9215L14135.5693,-4298.9147L14135.5892,-4298.913L14135.6918,-4298.9006L14135.6979,-4298.8995L14135.7789,-4298.8923L14135.8046,-4299.0603L14135.8101,-4299.1106"/>
<path content="1,（株）じょうてつ,真駒内線南4,79.5,53.5,53.5," xlink:title="1" d="M14135.8101,-4299.1106L14135.7887,-4299.1134L14135.7264,-4299.1065L14135.7226,-4299.1059L14135.6884,-4299.1011L14135.6686,-4299.099L14135.6404,-4299.0902L14135.6229,-4299.0863L14135.5562,-4299.0773L14135.4468,-4299.0666L14135.3978,-4299.0627L14135.3489,-4299.0605L14135.3483,-4299.0763L14135.3322,-4299.143L14135.3288,-4299.2713L14135.3277,-4299.2777L14135.3276,-4299.2819L14135.3056,-4299.4289L14135.3087,-4299.4808L14135.3079,-4299.4889L14135.3061,-4299.4959L14135.2981,-4299.5779L14135.2945,-4299.6123L14135.2924,-4299.6248L14135.2925,-4299.6289L14135.2927,-4299.6351L14135.2759,-4299.8039L14135.2754,-4299.812"/>
<path content="1,（株）じょうてつ,真駒内線南4,79.5,53.5,53.5," xlink:title="1" d="M14135.8101,-4299.1106L14135.8095,-4299.18L14135.8117,-4299.2026L14135.8151,-4299.2282L14135.8227,-4299.2771L14135.8404,-4299.3829L14135.8465,-4299.4246L14135.8549,-4299.4696L14135.8807,-4299.5377L14135.8809,-4299.6165L14135.8871,-4299.6374L14135.8962,-4299.6632L14135.9215,-4299.7122L14135.9856,-4299.8093L14136.0036,-4299.8493L14135.9305,-4299.8417L14135.8947,-4299.8405L14135.7913,-4299.8366L14135.75,-4299.8343L14135.7393,-4299.8332L14135.7025,-4299.8326L14135.6098,-4299.8287L14135.5869,-4299.8276L14135.5172,-4299.8231L14135.4713,-4299.8197L14135.459,-4299.8203L14135.3947,-4299.8174L14135.3652,-4299.816L14135.3234,-4299.8141L14135.2754,-4299.812"/>
<path content="1,（株）じょうてつ,真駒内線南4,79.5,53.5,53.5," xlink:title="1" d="M14135.2754,-4299.812L14135.23,-4299.8101L14135.2231,-4299.8101L14135.1986,-4299.8101L14135.1358,-4299.8078L14135.0815,-4299.8067L14135.0654,-4299.8056L14135.0156,-4299.805L14134.9831,-4299.8036L14134.8939,-4299.8028L14134.89,-4299.8298L14134.8854,-4299.8686L14134.8839,-4299.8788L14134.8778,-4299.9317L14134.8793,-4299.9439L14134.8739,-4299.9671L14134.8709,-4299.9874L14134.8709,-4299.9981L14134.8624,-4300.0651L14134.8571,-4300.1084L14134.8525,-4300.1484L14134.8493,-4300.1837L14134.8472,-4300.2451L14134.8424,-4300.2906L14134.8395,-4300.3157L14134.839,-4300.3195L14134.8312,-4300.3759L14134.8299,-4300.3804L14134.8174,-4300.4519L14134.8106,-4300.5067L14134.8074,-4300.5262L14134.8009,-4300.5885L14134.7956,-4300.6358L14134.7917,-4300.6678L14134.7848,-4300.7027L14134.7756,-4300.7247L14134.7645,-4300.7502L14134.6984,-4300.9176L14134.6929,-4300.9324L14134.6887,-4300.9411L14134.6836,-4300.9498L14134.6698,-4300.9633L14134.6491,-4300.9768L14134.6268,-4300.9864L14134.613,-4300.9906L14134.5989,-4300.9929L14134.5862,-4300.9942L14134.5095,-4301.0072L14134.5593,-4301.1524L14134.5708,-4301.1913L14134.5839,-4301.2179L14134.5916,-4301.2514L14134.6529,-4301.4321L14134.6686,-4301.4748L14134.6746,-4301.4828L14134.6744,-4301.489L14134.6774,-4301.507L14134.677,-4301.517L14134.6736,-4301.5424L14134.6667,-4301.5903L14134.6598,-4301.646L14134.6506,-4301.7169L14134.6483,-4301.7377L14134.646,-4301.7597L14134.6421,-4301.7844L14134.6321,-4301.8689L14134.6215,-4301.9631L14134.617,-4302.0012L14134.6153,-4302.051L14134.6068,-4302.0867L14134.6007,-4302.1435L14134.6007,-4302.1525L14134.5961,-4302.188L14134.5922,-4302.2206L14134.588,-4302.2461"/>
<path content="1,（株）じょうてつ,真駒内線南54,51.0,36.0,36.0," xlink:title="1" d="M14134.588,-4302.2461L14134.5922,-4302.2206L14134.5961,-4302.188L14134.6007,-4302.1525L14134.6007,-4302.1435L14134.6068,-4302.0867L14134.6153,-4302.051L14134.617,-4302.0012L14134.6215,-4301.9631L14134.6321,-4301.8689L14134.6421,-4301.7844L14134.646,-4301.7597L14134.6483,-4301.7377L14134.6506,-4301.7169L14134.6598,-4301.646L14134.6667,-4301.5903L14134.6736,-4301.5424L14134.677,-4301.517L14134.6774,-4301.507L14134.6744,-4301.489L14134.6746,-4301.4828L14134.6686,-4301.4748L14134.6529,-4301.4321L14134.5916,-4301.2514L14134.5839,-4301.2179L14134.5708,-4301.1913L14134.5593,-4301.1524L14134.5095,-4301.0072L14134.5862,-4300.9942L14134.5989,-4300.9929L14134.613,-4300.9906L14134.6268,-4300.9864L14134.6491,-4300.9768L14134.6698,-4300.9633L14134.6836,-4300.9498L14134.6887,-4300.9411L14134.6929,-4300.9324L14134.6984,-4300.9176L14134.7645,-4300.7502L14134.7756,-4300.7247L14134.7848,-4300.7027L14134.7917,-4300.6678L14134.7956,-4300.6358L14134.8009,-4300.5885L14134.8074,-4300.5262L14134.8106,-4300.5067L14134.8174,-4300.4519"/>
<path content="1,（株）じょうてつ,真駒内線南64,10.0,9.0,9.0," xlink:title="1" d="M14134.8174,-4300.4519L14134.8106,-4300.5067L14134.8074,-4300.5262L14134.8009,-4300.5885L14134.7956,-4300.6358L14134.7917,-4300.6678L14134.7848,-4300.7027L14134.7756,-4300.7247L14134.7645,-4300.7502L14134.6984,-4300.9176L14134.6929,-4300.9324L14134.6887,-4300.9411L14134.6836,-4300.9498L14134.6698,-4300.9633L14134.6491,-4300.9768L14134.6268,-4300.9864L14134.613,-4300.9906L14134.5989,-4300.9929L14134.5862,-4300.9942L14134.5095,-4301.0072L14134.5593,-4301.1524L14134.5708,-4301.1913L14134.5839,-4301.2179L14134.5916,-4301.2514L14134.6529,-4301.4321L14134.6686,-4301.4748L14134.6746,-4301.4828L14134.6744,-4301.489L14134.6774,-4301.507L14134.677,-4301.517L14134.6736,-4301.5424L14134.6667,-4301.5903L14134.6598,-4301.646L14134.6506,-4301.7169L14134.6483,-4301.7377L14134.646,-4301.7597L14134.6421,-4301.7844L14134.6321,-4301.8689L14134.6215,-4301.9631L14134.617,-4302.0012L14134.6153,-4302.051L14134.6068,-4302.0867L14134.6007,-4302.1435L14134.6007,-4302.1525L14134.5961,-4302.188L14134.5922,-4302.2206L14134.588,-4302.2461"/>
<path content="1,（株）じょうてつ,真駒内線南74,11.0,9.0,9.0," xlink:title="1" d="M14134.6321,-4301.8689L14134.6421,-4301.7844L14134.646,-4301.7597L14134.6483,-4301.7377L14134.6506,-4301.7169L14134.6598,-4301.646L14134.6667,-4301.5903L14134.6736,-4301.5424L14134.677,-4301.517L14134.6774,-4301.507L14134.6744,-4301.489L14134.6746,-4301.4828L14134.6686,-4301.4748L14134.6529,-4301.4321L14134.5916,-4301.2514L14134.5839,-4301.2179L14134.5708,-4301.1913L14134.5593,-4301.1524L14134.5095,-4301.0072L14134.5862,-4300.9942L14134.5989,-4300.9929L14134.613,-4300.9906L14134.6268,-4300.9864L14134.6491,-4300.9768L14134.6698,-4300.9633L14134.6836,-4300.9498L14134.6887,-4300.9411L14134.6929,-4300.9324L14134.6984,-4300.9176L14134.7645,-4300.7502L14134.7756,-4300.7247L14134.7848,-4300.7027L14134.7917,-4300.6678L14134.7956,-4300.6358L14134.8009,-4300.5885L14134.8074,-4300.5262L14134.8106,-4300.5067L14134.8174,-4300.4519"/>
<path content="1,（株）じょうてつ,真駒内線南74,11.0,9.0,9.0," xlink:title="1" d="M14134.6321,-4301.8689L14134.6215,-4301.9631L14134.617,-4302.0012L14134.6153,-4302.051"/>
<path content="1,（株）じょうてつ,真駒内線南74,11.0,9.0,9.0," xlink:title="1" d="M14134.2729,-4302.2461L14134.3308,-4302.1311L14134.3737,-4302.0444L14134.3914,-4302.0118L14134.4144,-4301.9775L14134.4274,-4301.9617L14134.4512,-4301.9392L14134.4803,-4301.9195L14134.5217,-4301.8976L14134.5501,-4301.8869L14134.6007,-4301.8745L14134.6114,-4301.8734L14134.6321,-4301.8689"/>
<path content="1,（株）じょうてつ,真駒内線南84,36.5,33.5,33.5," xlink:title="1" d="M14134.1666,-4298.786L14134.181,-4298.7964L14134.2054,-4298.8105L14134.2254,-4298.8189L14134.2353,-4298.8223L14134.2568,-4298.8268L14134.3188,-4298.8415L14134.3291,-4298.8449L14134.3352,-4298.8479L14134.3548,-4298.8612L14134.4099,-4298.9141L14134.4222,-4298.9276L14134.447,-4298.9522L14134.4513,-4298.9619L14134.4834,-4299.0115L14134.4896,-4299.0238L14134.4964,-4299.0424L14134.5063,-4299.0924L14134.5101,-4299.1046L14134.5248,-4299.1369L14134.5317,-4299.146L14134.5391,-4299.154L14134.5501,-4299.1634L14134.5753,-4299.1797L14134.622,-4299.2062L14134.6772,-4299.2394L14134.6909,-4299.2518L14134.7357,-4299.3079L14134.7705,-4299.3584L14134.8043,-4299.4071L14134.8188,-4299.4285L14134.8318,-4299.442L14134.8451,-4299.4529L14134.857,-4299.4596L14134.8668,-4299.4618L14134.8831,-4299.464L14134.9329,-4299.4696L14134.9498,-4299.4713L14134.9827,-4299.473L14134.9902,-4299.4737L14135.0294,-4299.4758L14135.2293,-4299.4854L14135.3079,-4299.4889L14135.3087,-4299.4808L14135.3056,-4299.4289L14135.3276,-4299.2819L14135.3277,-4299.2777L14135.3288,-4299.2713L14135.3322,-4299.143L14135.3483,-4299.0763L14135.3489,-4299.0605L14135.3978,-4299.0627L14135.4468,-4299.0666L14135.5562,-4299.0773L14135.6229,-4299.0863L14135.6404,-4299.0902L14135.6686,-4299.099L14135.6884,-4299.1011L14135.7226,-4299.1059L14135.7264,-4299.1065L14135.7887,-4299.1134L14135.8101,-4299.1106L14135.8046,-4299.0603L14135.7789,-4298.8923L14135.6979,-4298.8995L14135.6918,-4298.9006L14135.5892,-4298.913L14135.5693,-4298.9147L14135.4789,-4298.9215L14135.4591,-4298.9215L14135.4595,-4298.9087L14135.4499,-4298.8575L14135.4597,-4298.8184L14135.458,-4298.7942L14135.4554,-4298.7699L14135.4502,-4298.7413L14135.4398,-4298.7026L14135.4324,-4298.6822L14135.4291,-4298.6732L14135.4233,-4298.6566L14135.4055,-4298.6172L14135.3899,-4298.5876L14135.3769,-4298.5646L14135.3687,-4298.5528L14135.363,-4298.5416L14135.3469,-4298.5191L14135.3098,-4298.4813L14135.2905,-4298.4492L14135.2818,-4298.4388L14135.2584,-4298.4131L14135.212,-4298.3719L14135.1755,-4298.3372L14135.1516,-4298.3151L14135.1343,-4298.2977L14135.1246,-4298.2889L14135.1147,-4298.2786L14135.0974,-4298.2639L14135.0787,-4298.2487L14135.0605,-4298.2322L14135.0372,-4298.219L14135.0057,-4298.196L14134.9812,-4298.174L14134.969,-4298.1644L14134.9613,-4298.1577L14134.9399,-4298.1403L14134.9185,-4298.1216L14134.8319,-4298.0491L14134.8227,-4298.0429L14134.9039,-4297.9861L14135.0007,-4297.9259"/>
<path content="1,（株）じょうてつ,空港連絡バス,1.0,1.0,1.0," xlink:title="1" d="M14137.207,-4299.9977L14137.1672,-4300.0056L14137.1314,-4300.0113L14137.1188,-4300.0118L14137.0947,-4300.0128L14137.0533,-4300.015L14137.0334,-4300.015L14137.0104,-4300.0139L14136.9614,-4300.0139L14136.8978,-4300.0088L14136.8919,-4300.008L14136.885,-4300.0058L14136.8412,-4299.9998L14136.7876,-4299.9869L14136.7807,-4299.9846L14136.7638,-4299.9796L14136.7187,-4299.9638L14136.6589,-4299.9379L14136.6505,-4299.9334L14136.6337,-4299.9255L14136.6184,-4299.9199L14136.6015,-4299.9115L14136.5265,-4299.8794L14136.4939,-4299.8681L14136.4363,-4299.854L14136.4105,-4299.8481L14136.3426,-4299.8404L14136.3235,-4299.8394L14136.2761,-4299.8394L14136.2056,-4299.8428L14136.1489,-4299.8461L14136.1103,-4299.8482L14136.0036,-4299.8493L14135.9305,-4299.8417L14135.8947,-4299.8405L14135.7913,-4299.8366L14135.75,-4299.8343L14135.7393,-4299.8332L14135.7025,-4299.8326L14135.6098,-4299.8287L14135.5869,-4299.8276L14135.5172,-4299.8231L14135.4713,-4299.8197L14135.459,-4299.8203L14135.3947,-4299.8174L14135.3652,-4299.816L14135.3234,-4299.8141L14135.2754,-4299.812L14135.23,-4299.8101L14135.2231,-4299.8101L14135.1986,-4299.8101L14135.1358,-4299.8078L14135.0815,-4299.8067L14135.0654,-4299.8056L14135.0156,-4299.805L14134.9831,-4299.8036L14134.8939,-4299.8028L14134.9,-4299.7583L14134.9061,-4299.7009L14134.927,-4299.5677L14134.9299,-4299.4944L14134.9329,-4299.4696L14134.936,-4299.4471L14134.9383,-4299.4257L14134.9459,-4299.3857L14134.9582,-4299.3559L14134.9881,-4299.2929L14135.0149,-4299.231L14135.0241,-4299.2118L14135.0465,-4299.1563L14135.0616,-4299.1257L14135.0815,-4299.0829L14135.0914,-4299.061L14135.1228,-4298.9788L14135.1458,-4298.9085L14135.1466,-4298.8741L14135.1425,-4298.8523L14135.1343,-4298.8263L14135.1273,-4298.8259L14135.0709,-4298.8137L14135.0402,-4298.8015L14135.0034,-4298.783L14134.9804,-4298.7694L14134.9628,-4298.7571L14134.9353,-4298.7346L14134.8862,-4298.6884L14134.8663,-4298.6676L14134.8426,-4298.6462L14134.8342,-4298.6338L14134.8196,-4298.6107L14134.8128,-4298.5933L14134.8036,-4298.5708L14134.7951,-4298.5488L14134.7889,-4298.5217L14134.7744,-4298.4993L14134.7584,-4298.4599L14134.7438,-4298.4205L14134.7277,-4298.3817L14134.7055,-4298.3237L14134.691,-4298.286L14134.6835,-4298.242L14134.668,-4298.2241L14134.6634,-4298.2128L14134.6619,-4298.2078L14134.6527,-4298.183L14134.6497,-4298.1718L14134.6328,-4298.1273L14134.619,-4298.0862L14134.6129,-4298.0609L14134.6121,-4298.0294L14134.6159,-4297.9843L14134.6152,-4297.9478L14134.6129,-4297.9247L14134.6106,-4297.9084L14134.6029,-4297.8752L14134.5959,-4297.8516"/>
<path content="1,（株）じょうてつ,藻岩山手線南98,30.0,26.0,26.0," xlink:title="1" d="M14135.2754,-4299.812L14135.3234,-4299.8141L14135.3652,-4299.816L14135.3947,-4299.8174L14135.459,-4299.8203L14135.4713,-4299.8197L14135.5172,-4299.8231L14135.5869,-4299.8276L14135.6098,-4299.8287L14135.7025,-4299.8326L14135.7393,-4299.8332L14135.75,-4299.8343L14135.7913,-4299.8366L14135.8947,-4299.8405L14135.9305,-4299.8417L14136.0036,-4299.8493L14135.9856,-4299.8093L14135.9215,-4299.7122L14135.8962,-4299.6632L14135.8871,-4299.6374L14135.8809,-4299.6165L14135.8807,-4299.5377L14135.8549,-4299.4696L14135.8465,-4299.4246L14135.8404,-4299.3829L14135.8227,-4299.2771L14135.8151,-4299.2282L14135.8117,-4299.2026L14135.8095,-4299.18L14135.8101,-4299.1106L14135.7887,-4299.1134L14135.7264,-4299.1065L14135.7226,-4299.1059L14135.6884,-4299.1011L14135.6686,-4299.099L14135.6404,-4299.0902L14135.6229,-4299.0863L14135.5562,-4299.0773L14135.4468,-4299.0666L14135.3978,-4299.0627L14135.3489,-4299.0605L14135.3483,-4299.0763L14135.3322,-4299.143L14135.3288,-4299.2713L14135.3277,-4299.2777L14135.3276,-4299.2819L14135.3056,-4299.4289L14135.3087,-4299.4808L14135.3079,-4299.4889L14135.3061,-4299.4959L14135.2981,-4299.5779L14135.2945,-4299.6123L14135.2924,-4299.6248L14135.2925,-4299.6289L14135.2927,-4299.6351L14135.2759,-4299.8039L14135.2754,-4299.812"/>
<path content="1,（株）じょうてつ,藻岩山手線南98,30.0,26.0,26.0," xlink:title="1" d="M14135.2754,-4299.812L14135.23,-4299.8101L14135.2231,-4299.8101L14135.1986,-4299.8101L14135.1358,-4299.8078L14135.0815,-4299.8067L14135.0654,-4299.8056L14135.0156,-4299.805L14134.9831,-4299.8036L14134.8939,-4299.8028L14134.8188,-4299.8022L14134.7958,-4299.8011L14134.7468,-4299.8011L14134.694,-4299.8039L14134.6779,-4299.8062L14134.6396,-4299.8152L14134.5255,-4299.8585L14134.5087,-4299.8636L14134.4719,-4299.8742L14134.4423,-4299.8794L14134.4209,-4299.8815L14134.3938,-4299.8849L14134.3568,-4299.8883L14134.3027,-4299.8973L14134.2939,-4299.8988L14134.2742,-4299.9042L14134.2621,-4299.9041L14134.2024,-4299.912L14134.1881,-4299.9151L14134.1587,-4299.9187L14134.1334,-4299.9221L14134.1036,-4299.9271L14134.0614,-4299.9333L14133.9535,-4299.948L14133.9305,-4299.9513L14133.9183,-4299.9536L14133.8677,-4299.9614L14133.8152,-4299.9682L14133.7931,-4299.9716L14133.7623,-4299.9763L14133.7261,-4299.9823L14133.6709,-4299.993L14133.6353,-4299.9975L14133.6079,-4300.0036L14133.5867,-4300.0071L14133.528,-4300.018L14133.4326,-4300.0354L14133.4879,-4300.0566L14133.5791,-4300.0934L14133.5428,-4300.1237L14133.5147,-4300.1472L14133.5017,-4300.1568L14133.493,-4300.1624L14133.4825,-4300.1674L14133.473,-4300.1712L14133.4611,-4300.1731L14133.4209,-4300.1783L14133.3863,-4300.1801L14133.3779,-4300.1792L14133.3669,-4300.1781L14133.3501,-4300.1759L14133.2748,-4300.1549L14133.2405,-4300.1468L14133.199,-4300.1371L14133.1833,-4300.1371L14133.1502,-4300.141L14133.1303,-4300.1449L14133.0591,-4300.1624L14133.0445,-4300.1663L14133.0216,-4300.1745L14133.0059,-4300.1875L14132.9756,-4300.1939L14132.9511,-4300.2046L14132.9288,-4300.2184L14132.9143,-4300.2293L14132.9022,-4300.2451L14132.9002,-4300.2516L14132.8984,-4300.2575L14132.8961,-4300.2676L14132.8938,-4300.2909L14132.8899,-4300.3056L14132.8819,-4300.3236L14132.8754,-4300.3334L14132.8616,-4300.3424L14132.8509,-4300.3462L14132.8382,-4300.3473L14132.8166,-4300.3478L14132.8125,-4300.348"/>
<path content="1,（株）じょうてつ,藻岩線南55,49.5,40.5,40.5," xlink:title="1" d="M14134.588,-4302.2461L14134.5922,-4302.2206L14134.5961,-4302.188L14134.6007,-4302.1525L14134.6007,-4302.1435L14134.6068,-4302.0867L14134.6153,-4302.051L14134.617,-4302.0012L14134.6215,-4301.9631L14134.6321,-4301.8689L14134.6421,-4301.7844L14134.646,-4301.7597L14134.6483,-4301.7377L14134.6506,-4301.7169L14134.6598,-4301.646L14134.6667,-4301.5903L14134.6736,-4301.5424L14134.677,-4301.517L14134.6774,-4301.507L14134.6744,-4301.489L14134.6746,-4301.4828L14134.6686,-4301.4748L14134.6529,-4301.4321L14134.5916,-4301.2514L14134.5839,-4301.2179L14134.5708,-4301.1913L14134.5593,-4301.1524L14134.5095,-4301.0072L14134.4742,-4300.8997L14134.4677,-4300.8812L14134.4641,-4300.8674L14134.4543,-4300.835L14134.4412,-4300.7956L14134.4244,-4300.7432L14134.3991,-4300.6706L14134.3753,-4300.6014L14134.3669,-4300.5772L14134.3512,-4300.5181L14134.2994,-4300.383L14134.2818,-4300.3498L14134.2711,-4300.338L14134.2496,-4300.3211L14134.2097,-4300.2969L14134.1852,-4300.2795L14134.142,-4300.2451L14134.098,-4300.2195L14134.0792,-4300.2076L14134.0706,-4300.2021L14133.9977,-4300.1516L14133.9542,-4300.1193L14133.9455,-4300.1123L14133.9343,-4300.1155L14133.9236,-4300.1157L14133.9121,-4300.1123L14133.8968,-4300.1033L14133.8451,-4300.0588L14133.8074,-4300.0206L14133.7863,-4299.9979L14133.7717,-4299.9799L14133.7623,-4299.9763L14133.7261,-4299.9823L14133.6709,-4299.993L14133.6353,-4299.9975L14133.6079,-4300.0036L14133.5867,-4300.0071L14133.528,-4300.018L14133.4326,-4300.0354L14133.4141,-4300.0268L14133.4005,-4300.0184L14133.3767,-4300.0039L14133.3347,-4299.9676L14133.3194,-4299.9496L14133.3018,-4299.9254L14133.292,-4299.9001L14133.265,-4299.8675L14133.2581,-4299.854L14133.2253,-4299.7886L14133.2177,-4299.7714L14133.2065,-4299.7429L14133.1928,-4299.7039L14133.1896,-4299.6917L14133.1809,-4299.662L14133.1648,-4299.6046L14133.1624,-4299.5775L14133.151,-4299.5506L14133.1472,-4299.5342L14133.1472,-4299.5202L14133.1479,-4299.5005L14133.1502,-4299.4791L14133.1541,-4299.451L14133.1556,-4299.4347L14133.1602,-4299.4059L14133.1663,-4299.3604L14133.1686,-4299.3452L14133.1829,-4299.3093L14133.1809,-4299.2731L14133.187,-4299.2129L14133.1908,-4299.1887L14133.1962,-4299.1656L14133.2039,-4299.1403L14133.2108,-4299.12L14133.2199,-4299.0998L14133.2391,-4299.066L14133.2607,-4299.0386L14133.3179,-4298.9658L14133.3218,-4298.9602L14133.3356,-4298.9444L14133.3478,-4298.927L14133.3624,-4298.9014L14133.3777,-4298.8718L14133.3999,-4298.8257L14133.4037,-4298.8167L14133.4091,-4298.8043L14133.4244,-4298.7796L14133.4665,-4298.7283L14133.4703,-4298.7182L14133.4726,-4298.6998L14133.4864,-4298.6535L14133.5161,-4298.5291L14133.5308,-4298.4627L14133.5392,-4298.4254L14133.5422,-4298.4104L14133.5469,-4298.3856L14133.5588,-4298.3386L14133.5638,-4298.3153L14133.5693,-4298.2901L14133.5769,-4298.2608L14133.5852,-4298.219L14133.5939,-4298.1829L14133.5967,-4298.1723L14133.5982,-4298.1678L14133.6057,-4298.1434L14133.6071,-4298.1338L14133.6143,-4298.0958L14133.6343,-4298.0106L14133.6357,-4298.0018L14133.6449,-4297.9691L14133.6526,-4297.9382L14133.6572,-4297.919L14133.6595,-4297.9072L14133.6642,-4297.8868L14133.6687,-4297.8661L14133.6706,-4297.8516"/>
<path content="1,（株）じょうてつ,藻岩線南95,51.5,42.5,42.5," xlink:title="1" d="M14135.2754,-4299.812L14135.3234,-4299.8141L14135.3652,-4299.816L14135.3947,-4299.8174L14135.459,-4299.8203L14135.4713,-4299.8197L14135.5172,-4299.8231L14135.5869,-4299.8276L14135.6098,-4299.8287L14135.7025,-4299.8326L14135.7393,-4299.8332L14135.75,-4299.8343L14135.7913,-4299.8366L14135.8947,-4299.8405L14135.9305,-4299.8417L14136.0036,-4299.8493L14135.9856,-4299.8093L14135.9215,-4299.7122L14135.8962,-4299.6632L14135.8871,-4299.6374L14135.8809,-4299.6165L14135.8807,-4299.5377L14135.8549,-4299.4696L14135.8465,-4299.4246L14135.8404,-4299.3829L14135.8227,-4299.2771L14135.8151,-4299.2282L14135.8117,-4299.2026L14135.8095,-4299.18L14135.8101,-4299.1106L14135.7887,-4299.1134L14135.7264,-4299.1065L14135.7226,-4299.1059L14135.6884,-4299.1011L14135.6686,-4299.099L14135.6404,-4299.0902L14135.6229,-4299.0863L14135.5562,-4299.0773L14135.4468,-4299.0666L14135.3978,-4299.0627L14135.3489,-4299.0605L14135.3483,-4299.0763L14135.3322,-4299.143L14135.3288,-4299.2713L14135.3277,-4299.2777L14135.3276,-4299.2819L14135.3056,-4299.4289L14135.3087,-4299.4808L14135.3079,-4299.4889L14135.3061,-4299.4959L14135.2981,-4299.5779L14135.2945,-4299.6123L14135.2924,-4299.6248L14135.2925,-4299.6289L14135.2927,-4299.6351L14135.2759,-4299.8039L14135.2754,-4299.812"/>
<path content="1,（株）じょうてつ,藻岩線南95,51.5,42.5,42.5," xlink:title="1" d="M14135.2754,-4299.812L14135.23,-4299.8101L14135.2231,-4299.8101L14135.1986,-4299.8101L14135.1358,-4299.8078L14135.0815,-4299.8067L14135.0654,-4299.8056L14135.0156,-4299.805L14134.9831,-4299.8036L14134.8939,-4299.8028L14134.8188,-4299.8022L14134.7958,-4299.8011L14134.7468,-4299.8011L14134.694,-4299.8039L14134.6779,-4299.8062L14134.6396,-4299.8152L14134.5255,-4299.8585L14134.5087,-4299.8636L14134.4719,-4299.8742L14134.4423,-4299.8794L14134.4209,-4299.8815L14134.3938,-4299.8849L14134.3568,-4299.8883L14134.3027,-4299.8973L14134.2939,-4299.8988L14134.2742,-4299.9042L14134.2621,-4299.9041L14134.2024,-4299.912L14134.1881,-4299.9151L14134.1587,-4299.9187L14134.1334,-4299.9221L14134.1036,-4299.9271L14134.0614,-4299.9333L14133.9535,-4299.948L14133.9305,-4299.9513L14133.9183,-4299.9536L14133.8677,-4299.9614L14133.8152,-4299.9682L14133.7931,-4299.9716L14133.7623,-4299.9763L14133.7261,-4299.9823L14133.6709,-4299.993L14133.6353,-4299.9975L14133.6079,-4300.0036L14133.5867,-4300.0071L14133.528,-4300.018L14133.4326,-4300.0354L14133.4141,-4300.0268L14133.4005,-4300.0184L14133.3767,-4300.0039L14133.3347,-4299.9676L14133.3194,-4299.9496L14133.3018,-4299.9254L14133.292,-4299.9001L14133.265,-4299.8675L14133.2581,-4299.854L14133.2253,-4299.7886L14133.2177,-4299.7714L14133.2065,-4299.7429L14133.1928,-4299.7039L14133.1896,-4299.6917L14133.1809,-4299.662L14133.1648,-4299.6046L14133.1624,-4299.5775L14133.151,-4299.5506L14133.1472,-4299.5342L14133.1472,-4299.5202L14133.1479,-4299.5005L14133.1502,-4299.4791L14133.1541,-4299.451L14133.1556,-4299.4347L14133.1602,-4299.4059L14133.1663,-4299.3604L14133.1686,-4299.3452L14133.1829,-4299.3093L14133.1809,-4299.2731L14133.187,-4299.2129L14133.1908,-4299.1887L14133.1962,-4299.1656L14133.2039,-4299.1403L14133.2108,-4299.12L14133.2199,-4299.0998L14133.2391,-4299.066L14133.2607,-4299.0386L14133.3179,-4298.9658L14133.3218,-4298.9602L14133.3356,-4298.9444L14133.3478,-4298.927L14133.3624,-4298.9014L14133.3777,-4298.8718L14133.3999,-4298.8257L14133.4037,-4298.8167L14133.4091,-4298.8043L14133.4244,-4298.7796L14133.4665,-4298.7283L14133.4703,-4298.7182L14133.4726,-4298.6998L14133.4864,-4298.6535L14133.5161,-4298.5291L14133.5308,-4298.4627L14133.5392,-4298.4254L14133.5422,-4298.4104L14133.5469,-4298.3856L14133.5588,-4298.3386L14133.5638,-4298.3153L14133.5693,-4298.2901L14133.5769,-4298.2608L14133.5852,-4298.219L14133.5939,-4298.1829L14133.5967,-4298.1723L14133.5982,-4298.1678L14133.6057,-4298.1434L14133.6071,-4298.1338L14133.6143,-4298.0958L14133.6343,-4298.0106L14133.6357,-4298.0018L14133.6449,-4297.9691L14133.6526,-4297.9382L14133.6572,-4297.919L14133.6595,-4297.9072L14133.6642,-4297.8868L14133.6687,-4297.8661L14133.6706,-4297.8516"/>
</g>
</svg>
