<?xml version="1.0" encoding="UTF-8"?>
<svg  xmlns="http://www.w3.org/2000/svg" xmlns:xlink="http://www.w3.org/1999/xlink" xmlns:go="http://purl.org/svgmap/profile" property="N07_001,N07_002,N07_003,N07_004,N07_005,N07_006,N07_007" viewBox="13977.35595703125 -3568.359375 0.274658203125 0.274658203125" go:dataArea="13977.35595703125 -3568.359375 0.274658203125 0.274658203125" >
<metadata>
 <rdf:RDF xmlns:rdf="http://www.w3.org/1999/02/22-rdf-syntax-ns#" xmlns:crs="http://opengis.org/xmldtds/transformations.dtd" xmlns:svg="http://www.w3.org/svg" >
  <rdf:Description>
   <crs:CoordinateReferenceSystem rdf:resource="http://purl.org/crs/84" svg:transform="matrix(100.0,0.0,0.0,-100.0,0.0,0.0)" />
  </rdf:Description>
 </rdf:RDF>
</metadata>
<globalCoordinateSystem srsName="http://purl.org/crs/84" transform="matrix(100.0,0.0,0.0,-100.0,0.0,0.0)" />
<defs>
 <g id="p0" >
  <circle cx="0.0" cy="0.0" r="3" stroke="green" stroke-width="0.75" vector-effect="non-scaling-stroke" />
 </g>
</defs>
<g fill="none" fill-rule="evenodd" stroke="#FF00FF" stroke-width="0.75" opacity="0.5" vector-effect="non-scaling-stroke" stroke-linejoin="bevel" >
<path content="1,JRバス東北（株）,ドリームふくしま・横浜号,1.0,1.0,1.0," xlink:title="1" d="M13977.356,-3568.2568L13977.3714,-3568.2485L13977.3741,-3568.2471L13977.3883,-3568.2419L13977.5,-3568.2014L13977.5009,-3568.2011L13977.5017,-3568.2008L13977.5108,-3568.1973L13977.5185,-3568.1942L13977.5485,-3568.1821L13977.556,-3568.1792L13977.5687,-3568.1741L13977.5972,-3568.1638L13977.6013,-3568.1621L13977.6306,-3568.1503"/>
<path content="1,JRバス東北（株）,ドリームササニシキ号,1.0,1.0,1.0," xlink:title="1" d="M13977.6306,-3568.1503L13977.6013,-3568.1621L13977.5972,-3568.1638L13977.5687,-3568.1741L13977.556,-3568.1792L13977.5485,-3568.1821L13977.5185,-3568.1942L13977.5108,-3568.1973L13977.5017,-3568.2008L13977.5009,-3568.2011L13977.5,-3568.2014L13977.3883,-3568.2419L13977.3741,-3568.2471L13977.3714,-3568.2485L13977.356,-3568.2568"/>
<path content="1,JRバス東北（株）,ドリーム盛岡・らくちん号,2.2,3.0,3.0," xlink:title="1" d="M13977.356,-3568.2568L13977.3714,-3568.2485L13977.3741,-3568.2471L13977.3883,-3568.2419L13977.5,-3568.2014L13977.5009,-3568.2011L13977.5017,-3568.2008L13977.5108,-3568.1973L13977.5185,-3568.1942L13977.5485,-3568.1821L13977.556,-3568.1792L13977.5687,-3568.1741L13977.5972,-3568.1638L13977.6013,-3568.1621L13977.6306,-3568.1503"/>
<path content="1,JRバス東北（株）,ドリーム秋田・横浜号,1.0,1.0,1.0," xlink:title="1" d="M13977.356,-3568.2568L13977.3714,-3568.2485L13977.3741,-3568.2471L13977.3883,-3568.2419L13977.5,-3568.2014L13977.5009,-3568.2011L13977.5017,-3568.2008L13977.5108,-3568.1973L13977.5185,-3568.1942L13977.5485,-3568.1821L13977.556,-3568.1792L13977.5687,-3568.1741L13977.5972,-3568.1638L13977.6013,-3568.1621L13977.6306,-3568.1503"/>
<path content="1,JRバス東北（株）,ドリーム鳥海号,1.0,1.0,1.0," xlink:title="1" d="M13977.356,-3568.2568L13977.3714,-3568.2485L13977.3741,-3568.2471L13977.3883,-3568.2419L13977.5,-3568.2014L13977.5009,-3568.2011L13977.5017,-3568.2008L13977.5108,-3568.1973L13977.5185,-3568.1942L13977.5485,-3568.1821L13977.556,-3568.1792L13977.5687,-3568.1741L13977.5972,-3568.1638L13977.6013,-3568.1621L13977.6306,-3568.1503"/>
<path content="1,JRバス東北（株）,ラ・フォーレ号,1.0,1.0,1.0," xlink:title="1" d="M13977.356,-3568.2568L13977.3714,-3568.2485L13977.3741,-3568.2471L13977.3883,-3568.2419L13977.5,-3568.2014L13977.5009,-3568.2011L13977.5017,-3568.2008L13977.5108,-3568.1973L13977.5185,-3568.1942L13977.5485,-3568.1821L13977.556,-3568.1792L13977.5687,-3568.1741L13977.5972,-3568.1638L13977.6013,-3568.1621L13977.6306,-3568.1503"/>
<path content="1,JRバス関東（株）,つくば号,22.0,19.0,19.0," xlink:title="1" d="M13977.356,-3568.2568L13977.3714,-3568.2485L13977.3741,-3568.2471L13977.3761,-3568.2507L13977.43,-3568.3471L13977.433,-3568.3561L13977.4341,-3568.3594"/>
<path content="1,JRバス関東（株）,ひたち号,10.2,11.0,11.0," xlink:title="1" d="M13977.3741,-3568.2471L13977.356,-3568.2234"/>
<path content="1,JRバス関東（株）,ひたち号,10.2,11.0,11.0," xlink:title="1" d="M13977.3741,-3568.2471L13977.3714,-3568.2485L13977.356,-3568.2568"/>
<path content="1,JRバス関東（株）,ひたち号,10.2,11.0,11.0," xlink:title="1" d="M13977.3741,-3568.2471L13977.3883,-3568.2419L13977.5,-3568.2015L13977.5108,-3568.1973L13977.5185,-3568.1942L13977.5485,-3568.1821L13977.556,-3568.1792L13977.5687,-3568.1741L13977.625,-3568.2674L13977.6306,-3568.2767"/>
<path content="1,JRバス関東（株）,プレミアム中央ドリーム号/中央ドリーム号/プレミアムドリーム号/ドリーム号/レディースドリーム号/プレミアムレディース,9.4,12.0,12.0," xlink:title="1" d="M13977.4341,-3568.3594L13977.433,-3568.3561L13977.43,-3568.3471L13977.3761,-3568.2507L13977.3741,-3568.2471L13977.356,-3568.2234"/>
<path content="1,JRバス関東（株）,夢街道会津号,6.0,6.0,6.0," xlink:title="1" d="M13977.356,-3568.2234L13977.3741,-3568.2471L13977.3714,-3568.2485L13977.356,-3568.2568"/>
<path content="1,JRバス関東（株）,房総なのはな号,23.2,25.0,25.0," xlink:title="1" d="M13977.356,-3568.2568L13977.3714,-3568.2485L13977.3741,-3568.2471L13977.356,-3568.2234"/>
<path content="1,JRバス関東（株）,新宿・東京～常陸太田・大宮・大子,2.0,2.0,2.0," xlink:title="1" d="M13977.356,-3568.2234L13977.3741,-3568.2471L13977.3761,-3568.2507L13977.43,-3568.3471L13977.433,-3568.3561L13977.4341,-3568.3594"/>
<path content="1,JRバス関東（株）,東京～吉川・松伏,0.5,0.5,0.5," xlink:title="1" d="M13977.356,-3568.2234L13977.3741,-3568.2471L13977.3761,-3568.2507L13977.43,-3568.3471L13977.433,-3568.3561L13977.4341,-3568.3594"/>
<path content="1,JRバス関東（株）,金沢エクスプレス/ドリーム金沢号/青春ドリーム金沢号,6.0,6.0,6.0," xlink:title="1" d="M13977.4341,-3568.3594L13977.433,-3568.3561L13977.43,-3568.3471L13977.3761,-3568.2507L13977.3741,-3568.2471L13977.356,-3568.2234"/>
<path content="1,JRバス関東（株）,青春中央ドリーム号/青春中央エコドリーム号/青春ドリーム号/青春レディースドリーム号/青春エコドリーム号/超得割青春号,10.0,14.0,14.0," xlink:title="1" d="M13977.4341,-3568.3594L13977.433,-3568.3561L13977.43,-3568.3471L13977.3761,-3568.2507L13977.3741,-3568.2471L13977.356,-3568.2234"/>
<path content="1,JR四国バス（株）,ドリーム徳島号　阿南・徳島⇔新宿・東京・新木場,1.0,1.0,1.0," xlink:title="1" d="M13977.6306,-3568.1502L13977.6012,-3568.162L13977.5972,-3568.1638L13977.5108,-3568.1973L13977.5016,-3568.2012L13977.3891,-3568.2454L13977.3734,-3568.2518L13977.356,-3568.2241"/>
<path content="1,JR四国バス（株）,ドリーム高松・松山号　松山・高松⇔東京・東京ディズニーランド,1.0,1.0,1.0," xlink:title="1" d="M13977.4341,-3568.3594L13977.433,-3568.3561L13977.43,-3568.3471L13977.3734,-3568.2518L13977.356,-3568.2241"/>
<path content="1,JR四国バス（株）,ドリーム高松号　観音寺・高松⇔新宿・東京・新木場,1.0,1.0,1.0," xlink:title="1" d="M13977.6306,-3568.1502L13977.6012,-3568.162L13977.5972,-3568.1638L13977.5108,-3568.1973L13977.5016,-3568.2012L13977.3891,-3568.2454L13977.3734,-3568.2518L13977.356,-3568.2241"/>
<path content="1,JR四国バス（株）,ドリーム高知号　高知・徳島⇔東京・新木場,1.0,1.0,1.0," xlink:title="1" d="M13977.6306,-3568.1502L13977.6012,-3568.162L13977.5972,-3568.1638L13977.5108,-3568.1973L13977.5016,-3568.2012L13977.3891,-3568.2454L13977.3734,-3568.2518L13977.356,-3568.2241"/>
<path content="1,ちばフラワーバス（株）,シーサイドライナー,19.0,18.0,18.0," xlink:title="1" d="M13977.6269,-3568.3594L13977.5991,-3568.3581L13977.433,-3568.3561L13977.43,-3568.3471L13977.3755,-3568.3594"/>
<path content="1,エムケイ（株）,MKナイトシャトル　京都・大阪⇔東京便,1.0,1.0,1.0," xlink:title="1" d="M13977.4341,-3568.3594L13977.433,-3568.3561L13977.43,-3568.3471L13977.3734,-3568.2518L13977.356,-3568.2241"/>
<path content="1,一畑バス（株）,東京～松江・出雲線,1.0,1.0,1.0," xlink:title="1" d="M13977.356,-3568.2544L13977.3741,-3568.2471"/>
<path content="1,京成バス（株）,千葉北IC周辺地区～東京駅・潮見駅,10.5,8.0,8.0," xlink:title="1" d="M13977.356,-3568.2568L13977.3714,-3568.2485L13977.3741,-3568.2471L13977.3883,-3568.2419L13977.5,-3568.2014L13977.5008,-3568.2011L13977.5008,-3568.2011L13977.5009,-3568.2011L13977.5017,-3568.2008L13977.5108,-3568.1973L13977.5185,-3568.1942L13977.5485,-3568.1821L13977.556,-3568.1792L13977.5687,-3568.1741L13977.5972,-3568.1638L13977.6013,-3568.1621L13977.6306,-3568.1503"/>
<path content="1,京成バス（株）,新浦安地区・東京ディズニーリゾート～東京駅・秋葉原,9.5,5.0,5.0," xlink:title="1" d="M13977.356,-3568.2234L13977.3741,-3568.2471L13977.3761,-3568.2507L13977.43,-3568.3471L13977.433,-3568.3561L13977.4341,-3568.3594"/>
<path content="1,京成バス（株）,東雲車庫・東京駅～千城台・八街・成東,8.0,6.5,6.5," xlink:title="1" d="M13977.356,-3568.2568L13977.3714,-3568.2485L13977.3741,-3568.2471L13977.3883,-3568.2419L13977.5,-3568.2014L13977.5008,-3568.2011L13977.5008,-3568.2011L13977.5009,-3568.2011L13977.5017,-3568.2008L13977.5108,-3568.1973L13977.5185,-3568.1942L13977.5485,-3568.1821L13977.556,-3568.1792L13977.5687,-3568.1741L13977.5972,-3568.1638L13977.6013,-3568.1621L13977.6306,-3568.1503"/>
<path content="1,京成バス（株）,東雲車庫・東京～志津・臼井・ユーカリが丘,3.0,2.5,2.5," xlink:title="1" d="M13977.6306,-3568.1503L13977.6013,-3568.1621L13977.5972,-3568.1638L13977.5687,-3568.1741L13977.556,-3568.1792L13977.5485,-3568.1821L13977.5185,-3568.1942L13977.5108,-3568.1973L13977.5017,-3568.2008L13977.5009,-3568.2011L13977.5008,-3568.2011L13977.5008,-3568.2011L13977.5,-3568.2014L13977.3883,-3568.2419L13977.3741,-3568.2471L13977.3714,-3568.2485L13977.356,-3568.2568"/>
<path content="1,京成バス（株）,浜松町・東京駅～勝浦・御宿・安房小湊,2.0,2.0,2.0," xlink:title="1" d="M13977.6306,-3568.1503L13977.6013,-3568.1621L13977.5972,-3568.1638L13977.5687,-3568.1741L13977.556,-3568.1792L13977.5485,-3568.1821L13977.5185,-3568.1942L13977.5108,-3568.1973L13977.5017,-3568.2008L13977.5009,-3568.2011L13977.5008,-3568.2011L13977.5008,-3568.2011L13977.5,-3568.2014L13977.3883,-3568.2419L13977.3741,-3568.2471L13977.356,-3568.2234"/>
<path content="1,京成バス（株）,浜松町・東京駅～君津駅・青堀駅,22.0,21.0,21.0," xlink:title="1" d="M13977.6306,-3568.1503L13977.6013,-3568.1621L13977.5972,-3568.1638L13977.5687,-3568.1741L13977.556,-3568.1792L13977.5485,-3568.1821L13977.5185,-3568.1942L13977.5108,-3568.1973L13977.5017,-3568.2008L13977.5009,-3568.2011L13977.5008,-3568.2011L13977.5008,-3568.2011L13977.5,-3568.2014L13977.3883,-3568.2419L13977.3741,-3568.2471L13977.3714,-3568.2485L13977.356,-3568.2568"/>
<path content="1,京成バス（株）,浜松町・東京駅～銚子・犬吠崎京成ホテル,10.0,11.0,11.0," xlink:title="1" d="M13977.356,-3568.2234L13977.3741,-3568.2471L13977.3883,-3568.2419L13977.5,-3568.2014L13977.5008,-3568.2011L13977.5008,-3568.2011L13977.5009,-3568.2011L13977.5017,-3568.2008L13977.5108,-3568.1973L13977.5185,-3568.1942L13977.5485,-3568.1821L13977.556,-3568.1792L13977.5687,-3568.1741L13977.5972,-3568.1638L13977.6013,-3568.1621L13977.6306,-3568.1503"/>
<path content="1,京成バス（株）,潮見・東京駅～木更津駅・君津製鉄所,15.0,15.0,15.0," xlink:title="1" d="M13977.6306,-3568.1503L13977.6013,-3568.1621L13977.5972,-3568.1638L13977.5687,-3568.1741L13977.556,-3568.1792L13977.5485,-3568.1821L13977.5185,-3568.1942L13977.5108,-3568.1973L13977.5017,-3568.2008L13977.5009,-3568.2011L13977.5008,-3568.2011L13977.5008,-3568.2011L13977.5,-3568.2014L13977.3883,-3568.2419L13977.3741,-3568.2471L13977.3714,-3568.2485L13977.356,-3568.2568"/>
<path content="1,京成バス（株）,白子・茂原駅・大網駅・～東京駅・潮見駅,2.5,2.5,2.5," xlink:title="1" d="M13977.356,-3568.2568L13977.3714,-3568.2485L13977.3741,-3568.2471L13977.3883,-3568.2419L13977.5,-3568.2014L13977.5008,-3568.2011L13977.5008,-3568.2011L13977.5009,-3568.2011L13977.5017,-3568.2008L13977.5108,-3568.1973L13977.5185,-3568.1942L13977.5485,-3568.1821L13977.556,-3568.1792L13977.5687,-3568.1741L13977.5972,-3568.1638L13977.6013,-3568.1621L13977.6306,-3568.1503"/>
<path content="1,京福バス（株）,東京線,3.0,3.0,3.0," xlink:title="1" d="M13977.6306,-3568.1502L13977.6012,-3568.162L13977.5972,-3568.1638L13977.5108,-3568.1973L13977.5016,-3568.2012L13977.3891,-3568.2454L13977.3734,-3568.2518L13977.356,-3568.2241"/>
<path content="1,会津乗合自動車,夢街道会津号,5.0,5.0,5.0," xlink:title="1" d="M13977.6306,-3568.1503L13977.6013,-3568.1621L13977.5972,-3568.1638L13977.5687,-3568.1741L13977.556,-3568.1792L13977.5485,-3568.1821L13977.5185,-3568.1942L13977.5108,-3568.1973L13977.5017,-3568.2008L13977.5008,-3568.2011L13977.5,-3568.2014L13977.3883,-3568.2419L13977.3741,-3568.2471L13977.3714,-3568.2485L13977.356,-3568.2568"/>
<path content="1,千葉内陸バス,東京線　み春野ルート,0.5,0.0,0.0," xlink:title="1" d="M13977.3755,-3568.3594L13977.43,-3568.3471L13977.433,-3568.3561L13977.5991,-3568.3581L13977.6269,-3568.3594"/>
<path content="1,千葉内陸バス,東京線　国立民俗博物館・川村記念美術館ルート,1.0,1.0,1.0," xlink:title="1" d="M13977.3755,-3568.3594L13977.43,-3568.3471L13977.433,-3568.3561L13977.5991,-3568.3581L13977.6269,-3568.3594"/>
<path content="1,千葉内陸バス,東京線　臼井・千代田ルート,2.5,2.5,2.5," xlink:title="1" d="M13977.3755,-3568.3594L13977.43,-3568.3471L13977.433,-3568.3561L13977.5991,-3568.3581L13977.6269,-3568.3594"/>
<path content="1,南海バス（株）,和歌山・和泉中央・堺東⇔新宿・東京,1.0,1.0,1.0," xlink:title="1" d="M13977.6306,-3568.1502L13977.6012,-3568.162L13977.5972,-3568.1638L13977.5108,-3568.1973L13977.5016,-3568.2012L13977.3891,-3568.2454L13977.3734,-3568.2518L13977.356,-3568.2241"/>
<path content="1,国際興業（株）,夕陽号,2.0,2.0,2.0," xlink:title="1" d="M13977.356,-3568.2568L13977.3714,-3568.2485L13977.3741,-3568.2471L13977.3761,-3568.2507L13977.43,-3568.3471L13977.433,-3568.3561L13977.4341,-3568.3594"/>
<path content="1,富士急行（株）,河口湖～東京・市が尾線,8.2,10.0,10.0," xlink:title="1" d="M13977.6306,-3568.1503L13977.6013,-3568.1621L13977.5972,-3568.1638L13977.5687,-3568.1741L13977.556,-3568.1792L13977.5485,-3568.1821L13977.5185,-3568.1942L13977.5108,-3568.1973L13977.5017,-3568.2008L13977.5008,-3568.2011L13977.5,-3568.2014L13977.3883,-3568.2419L13977.3741,-3568.2471L13977.3714,-3568.2485L13977.356,-3568.2568"/>
<path content="1,庄内交通（株）,高速バス　上野・秋葉原・東京,1.0,1.0,1.0," xlink:title="1" d="M13977.356,-3568.2568L13977.3714,-3568.2485L13977.3741,-3568.2471L13977.3883,-3568.2419L13977.5,-3568.2014L13977.5009,-3568.2011L13977.5017,-3568.2008L13977.5108,-3568.1973L13977.5185,-3568.1942L13977.5485,-3568.1821L13977.556,-3568.1792L13977.5687,-3568.1741L13977.5972,-3568.1638L13977.6214,-3568.2029L13977.6306,-3568.2178"/>
<path content="1,弘南バス（株）,アップル号,1.0,1.0,1.0," xlink:title="1" d="M13977.356,-3568.2568L13977.3714,-3568.2485L13977.3741,-3568.2471L13977.3761,-3568.2507L13977.43,-3568.3471L13977.433,-3568.3561L13977.5991,-3568.3581L13977.6269,-3568.3594"/>
<path content="1,日東交通,君津～東京線,23.5,24.0,24.0," xlink:title="1" d="M13977.356,-3568.2568L13977.3714,-3568.2485L13977.3741,-3568.2471L13977.3883,-3568.2419L13977.5,-3568.2014L13977.5008,-3568.2011L13977.5017,-3568.2008L13977.5108,-3568.1973L13977.5185,-3568.1942L13977.5485,-3568.1821L13977.556,-3568.1792L13977.5687,-3568.1741L13977.5972,-3568.1638L13977.6013,-3568.1621L13977.6306,-3568.1503"/>
<path content="1,日東交通,木更津～東京線,16.0,16.0,16.0," xlink:title="1" d="M13977.356,-3568.2568L13977.3714,-3568.2485L13977.3741,-3568.2471L13977.3883,-3568.2419L13977.5,-3568.2014L13977.5008,-3568.2011L13977.5017,-3568.2008L13977.5108,-3568.1973L13977.5185,-3568.1942L13977.5485,-3568.1821L13977.556,-3568.1792L13977.5687,-3568.1741L13977.5972,-3568.1638L13977.6013,-3568.1621L13977.6306,-3568.1503"/>
<path content="1,日立電鉄交通サービス（株）,国民宿舎鵜の岬～東京駅,20.4,22.0,22.0," xlink:title="1" d="M13977.4341,-3568.3594L13977.433,-3568.3561L13977.43,-3568.3471L13977.3761,-3568.2507L13977.3741,-3568.2471L13977.356,-3568.2234"/>
<path content="1,東京空港交通（株）,東京駅・日本橋エリア～成田空港線,30.0,30.0,30.0," xlink:title="1" d="M13977.6306,-3568.1503L13977.6013,-3568.1621L13977.5972,-3568.1638L13977.5687,-3568.1741L13977.556,-3568.1792L13977.5485,-3568.1821L13977.5185,-3568.1942L13977.5108,-3568.1973L13977.5017,-3568.2008L13977.5009,-3568.2011L13977.5,-3568.2014L13977.3883,-3568.2419L13977.3741,-3568.2471"/>
<path content="1,東京空港交通（株）,東京駅・日本橋エリア～成田空港線,30.0,30.0,30.0," xlink:title="1" d="M13977.3741,-3568.2471L13977.3714,-3568.2485L13977.356,-3568.2568"/>
<path content="1,東京空港交通（株）,東京駅・日本橋エリア～成田空港線,30.0,30.0,30.0," xlink:title="1" d="M13977.4341,-3568.3594L13977.433,-3568.3561L13977.43,-3568.3471L13977.3761,-3568.2507L13977.3741,-3568.2471"/>
<path content="1,東北急行バス（株）,TOKYOサンライズ号,1.0,1.0,1.0," xlink:title="1" d="M13977.356,-3568.2234L13977.3741,-3568.2471L13977.3883,-3568.2419L13977.5,-3568.2014L13977.5008,-3568.2011L13977.5008,-3568.2011L13977.5009,-3568.2011L13977.5017,-3568.2008L13977.5108,-3568.1973L13977.5185,-3568.1942L13977.5485,-3568.1821L13977.556,-3568.1792L13977.5687,-3568.1741L13977.5972,-3568.1638L13977.6013,-3568.1621L13977.6306,-3568.1503"/>
<path content="1,東北急行バス（株）,エススター号,0.1,0.5,0.0," xlink:title="1" d="M13977.6306,-3568.1503L13977.6013,-3568.1621L13977.5972,-3568.1638L13977.5687,-3568.1741L13977.556,-3568.1792L13977.5485,-3568.1821L13977.5185,-3568.1942L13977.5108,-3568.1973L13977.5017,-3568.2008L13977.5009,-3568.2011L13977.5008,-3568.2011L13977.5008,-3568.2011L13977.5,-3568.2014L13977.3883,-3568.2419L13977.3741,-3568.2471L13977.356,-3568.2234"/>
<path content="1,東北急行バス（株）,スイート号,0.2,1.0,1.0," xlink:title="1" d="M13977.356,-3568.2234L13977.3741,-3568.2471L13977.3883,-3568.2419L13977.5,-3568.2014L13977.5008,-3568.2011L13977.5008,-3568.2011L13977.5009,-3568.2011L13977.5017,-3568.2008L13977.5108,-3568.1973L13977.5185,-3568.1942L13977.5485,-3568.1821L13977.556,-3568.1792L13977.5687,-3568.1741L13977.5972,-3568.1638L13977.6013,-3568.1621L13977.6306,-3568.1503"/>
<path content="1,東北急行バス（株）,スーパーレインボー号,0.1,0.0,0.0," xlink:title="1" d="M13977.356,-3568.2234L13977.3741,-3568.2471L13977.3883,-3568.2419L13977.5,-3568.2014L13977.5008,-3568.2011L13977.5008,-3568.2011L13977.5009,-3568.2011L13977.5017,-3568.2008L13977.5108,-3568.1973L13977.5185,-3568.1942L13977.5485,-3568.1821L13977.556,-3568.1792L13977.5687,-3568.1741L13977.5972,-3568.1638L13977.6013,-3568.1621L13977.6306,-3568.1503"/>
<path content="1,東北急行バス（株）,ニュースター号,2.0,2.0,2.0," xlink:title="1" d="M13977.356,-3568.2234L13977.3741,-3568.2471L13977.3883,-3568.2419L13977.5,-3568.2014L13977.5008,-3568.2011L13977.5008,-3568.2011L13977.5009,-3568.2011L13977.5017,-3568.2008L13977.5108,-3568.1973L13977.5185,-3568.1942L13977.5485,-3568.1821L13977.556,-3568.1792L13977.5687,-3568.1741L13977.5972,-3568.1638L13977.6013,-3568.1621L13977.6306,-3568.1503"/>
<path content="1,東北急行バス（株）,フライングスニーカー京都・茨木号,1.0,1.0,1.0," xlink:title="1" d="M13977.6306,-3568.2767L13977.625,-3568.2674L13977.5687,-3568.1741L13977.556,-3568.1792L13977.5485,-3568.1821L13977.5185,-3568.1942L13977.5108,-3568.1973L13977.5017,-3568.2008L13977.5009,-3568.2011L13977.5008,-3568.2011L13977.5008,-3568.2011L13977.5,-3568.2014L13977.3883,-3568.2419L13977.3741,-3568.2471L13977.356,-3568.2234"/>
<path content="1,東北急行バス（株）,フライングスニーカー大坂号,1.0,1.0,1.0," xlink:title="1" d="M13977.356,-3568.2234L13977.3741,-3568.2471L13977.3883,-3568.2419L13977.5,-3568.2014L13977.5008,-3568.2011L13977.5008,-3568.2011L13977.5009,-3568.2011L13977.5017,-3568.2008L13977.5108,-3568.1973L13977.5185,-3568.1942L13977.5485,-3568.1821L13977.556,-3568.1792L13977.5687,-3568.1741L13977.625,-3568.2674L13977.6306,-3568.2767"/>
<path content="1,東北急行バス（株）,ホリデースター号,0.2,1.0,1.0," xlink:title="1" d="M13977.356,-3568.2234L13977.3741,-3568.2471L13977.3883,-3568.2419L13977.5,-3568.2014L13977.5008,-3568.2011L13977.5008,-3568.2011L13977.5009,-3568.2011L13977.5017,-3568.2008L13977.5108,-3568.1973L13977.5185,-3568.1942L13977.5485,-3568.1821L13977.556,-3568.1792L13977.5687,-3568.1741L13977.5972,-3568.1638L13977.6013,-3568.1621L13977.6306,-3568.1503"/>
<path content="1,東北急行バス（株）,レインボー号,1.0,1.0,1.0," xlink:title="1" d="M13977.356,-3568.2234L13977.3741,-3568.2471L13977.3761,-3568.2507L13977.43,-3568.3471L13977.433,-3568.3561L13977.4341,-3568.3594"/>
<path content="1,琴平バス（株）,愛媛・高知シャトル,2.0,2.0,2.0," xlink:title="1" d="M13977.4341,-3568.3594L13977.433,-3568.3561L13977.43,-3568.3471L13977.3734,-3568.2518L13977.356,-3568.2241"/>
<path content="1,石見交通（株）,いわみEX　東京線,1.0,1.0,1.0," xlink:title="1" d="M13977.3741,-3568.2471L13977.356,-3568.2544"/>
<path content="1,福井鉄道（株）,福井⇔東京,3.0,3.0,3.0," xlink:title="1" d="M13977.6306,-3568.1502L13977.6012,-3568.162L13977.5972,-3568.1638L13977.5108,-3568.1973L13977.5016,-3568.2012L13977.3891,-3568.2454L13977.3734,-3568.2518L13977.356,-3568.2241"/>
<path content="1,羽後交通（株）,ドリーム鳥海号,1.0,1.0,1.0," xlink:title="1" d="M13977.356,-3568.2568L13977.3714,-3568.2485L13977.3741,-3568.2471L13977.3883,-3568.2419L13977.5,-3568.2014L13977.5009,-3568.2011L13977.5017,-3568.2008L13977.5108,-3568.1973L13977.5185,-3568.1942L13977.5485,-3568.1821L13977.556,-3568.1792L13977.5687,-3568.1741L13977.5972,-3568.1638L13977.6013,-3568.1621L13977.6306,-3568.1503"/>
<path content="1,茨城交通（株）,原子力機構前～東京駅,7.0,7.0,7.0," xlink:title="1" d="M13977.356,-3568.2234L13977.3741,-3568.2471L13977.3761,-3568.2507L13977.43,-3568.3471L13977.433,-3568.3561L13977.4341,-3568.3594"/>
<path content="1,茨城交通（株）,県庁,15.0,17.0,17.0," xlink:title="1" d="M13977.356,-3568.2234L13977.3741,-3568.2471L13977.3761,-3568.2507L13977.43,-3568.3471L13977.433,-3568.3561L13977.4341,-3568.3594"/>
<path content="1,茨城交通（株）,茨城交通大子営業所～新宿駅,9.0,9.0,9.0," xlink:title="1" d="M13977.356,-3568.2568L13977.3714,-3568.2485L13977.3741,-3568.2471L13977.3761,-3568.2507L13977.43,-3568.3471L13977.433,-3568.3561L13977.4341,-3568.3594"/>
<path content="1,茨城交通（株）,茨大,10.0,10.5,10.5," xlink:title="1" d="M13977.356,-3568.2234L13977.3741,-3568.2471L13977.3761,-3568.2507L13977.43,-3568.3471L13977.433,-3568.3561L13977.4341,-3568.3594"/>
<path content="1,茨城交通（株）,赤塚,26.5,30.5,30.5," xlink:title="1" d="M13977.356,-3568.2234L13977.3741,-3568.2471L13977.3761,-3568.2507L13977.43,-3568.3471L13977.433,-3568.3561L13977.4341,-3568.3594"/>
<path content="1,関東鉄道（株）,つくば号,21.5,18.5,18.5," xlink:title="1" d="M13977.356,-3568.2568L13977.3714,-3568.2485L13977.3741,-3568.2471L13977.3761,-3568.2507L13977.43,-3568.3471L13977.433,-3568.3561L13977.4341,-3568.3594"/>
<path content="1,関東鉄道（株）,ミッドナイトつくば号,0.5,0.5,0.5," xlink:title="1" d="M13977.4341,-3568.3594L13977.433,-3568.3561L13977.43,-3568.3471L13977.3761,-3568.2507L13977.3741,-3568.2471L13977.3714,-3568.2485L13977.356,-3568.2568"/>
<path content="1,関東鉄道（株）,ミッドナイトみと号,0.5,0.5,0.5," xlink:title="1" d="M13977.356,-3568.2234L13977.3741,-3568.2471L13977.3761,-3568.2507L13977.43,-3568.3471L13977.433,-3568.3561L13977.4341,-3568.3594"/>
<path content="1,関東鉄道（株）,岩井バスターミナル～東京駅,9.0,9.0,9.0," xlink:title="1" d="M13977.4341,-3568.3594L13977.433,-3568.3561L13977.43,-3568.3471L13977.3761,-3568.2507L13977.3741,-3568.2471L13977.356,-3568.2234"/>
<path content="1,関東鉄道（株）,水戸駅～東京線（県庁）,3.0,4.0,4.0," xlink:title="1" d="M13977.356,-3568.2234L13977.3741,-3568.2471L13977.3761,-3568.2507L13977.43,-3568.3471L13977.433,-3568.3561L13977.4341,-3568.3594"/>
<path content="1,関東鉄道（株）,水戸駅～東京線（茨大）,5.0,4.5,4.5," xlink:title="1" d="M13977.356,-3568.2234L13977.3741,-3568.2471L13977.3761,-3568.2507L13977.43,-3568.3471L13977.433,-3568.3561L13977.4341,-3568.3594"/>
<path content="1,関東鉄道（株）,水戸駅～東京線（赤塚）,9.5,9.5,9.5," xlink:title="1" d="M13977.356,-3568.2234L13977.3741,-3568.2471L13977.3761,-3568.2507L13977.43,-3568.3471L13977.433,-3568.3561L13977.4341,-3568.3594"/>
<path content="1,関東鉄道（株）,茨木空港～東京駅,3.0,3.0,3.0," xlink:title="1" d="M13977.356,-3568.2568L13977.3714,-3568.2485L13977.3741,-3568.2471L13977.3761,-3568.2507L13977.43,-3568.3471L13977.433,-3568.3561L13977.4341,-3568.3594"/>
<path content="1,関東鉄道（株）,関鉄江戸崎～東京駅,4.0,4.0,4.0," xlink:title="1" d="M13977.4341,-3568.3594L13977.433,-3568.3561L13977.43,-3568.3471L13977.3761,-3568.2507L13977.3741,-3568.2471L13977.356,-3568.2234"/>
<path content="1,関鉄パープルバス（株）,300-1,2.0,2.0,3.0," xlink:title="1" d="M13977.4341,-3568.3594L13977.433,-3568.3561L13977.43,-3568.3471L13977.3761,-3568.2507L13977.3741,-3568.2471L13977.3714,-3568.2485L13977.356,-3568.2568"/>
<path content="1,関鉄パープルバス（株）,300-5,1.0,1.0,0.0," xlink:title="1" d="M13977.4341,-3568.3594L13977.433,-3568.3561L13977.43,-3568.3471L13977.3761,-3568.2507L13977.3741,-3568.2471L13977.356,-3568.2234"/>
<path content="1,関鉄パープルバス（株）,301-1,3.0,3.0,3.0," xlink:title="1" d="M13977.356,-3568.2568L13977.3714,-3568.2485L13977.3741,-3568.2471L13977.3761,-3568.2507L13977.43,-3568.3471L13977.433,-3568.3561L13977.4341,-3568.3594"/>
<path content="1,関鉄パープルバス（株）,310-1,4.0,4.0,4.0," xlink:title="1" d="M13977.356,-3568.2568L13977.3714,-3568.2485L13977.3741,-3568.2471L13977.3761,-3568.2507L13977.43,-3568.3471L13977.433,-3568.3561L13977.4341,-3568.3594"/>
<path content="1,関鉄パープルバス（株）,310-5,4.0,4.0,4.0," xlink:title="1" d="M13977.356,-3568.2568L13977.3714,-3568.2485L13977.3741,-3568.2471L13977.3761,-3568.2507L13977.43,-3568.3471L13977.433,-3568.3561L13977.4341,-3568.3594"/>
<path content="1,阪急バス（株）,東京・東京ディズニーリゾート・千葉行,1.0,1.0,1.0," xlink:title="1" d="M13977.4341,-3568.3594L13977.433,-3568.3561L13977.43,-3568.3471L13977.3734,-3568.2518L13977.356,-3568.2241"/>
<path content="1,阪神バス（株）,サラダエクスプレス　神戸・大阪⇔東京ディズニーリゾート,1.0,1.0,1.0," xlink:title="1" d="M13977.4341,-3568.3594L13977.433,-3568.3561L13977.43,-3568.3471L13977.3734,-3568.2518L13977.356,-3568.2241"/>
<path content="1,防長交通（株）,萩・山口・防府・徳山・岩国～東京,1.0,1.0,1.0," xlink:title="1" d="M13977.356,-3568.2538L13977.3741,-3568.2471"/>
<path content="2,都営バス,S-1,32.0,40.0,40.0," xlink:title="2" d="M13977.356,-3568.2568L13977.3714,-3568.2485L13977.3741,-3568.2471L13977.3761,-3568.2507L13977.43,-3568.3471L13977.433,-3568.3561L13977.4341,-3568.3594"/>
<path content="2,都営バス,東20,21.0,21.0,20.0," xlink:title="2" d="M13977.356,-3568.2568L13977.3714,-3568.2485L13977.3741,-3568.2471L13977.3883,-3568.2419L13977.5,-3568.2014L13977.5008,-3568.2011L13977.5008,-3568.2011L13977.5009,-3568.2011L13977.5017,-3568.2008L13977.5108,-3568.1973L13977.5185,-3568.1942L13977.5485,-3568.1821L13977.556,-3568.1792L13977.5687,-3568.1741L13977.5972,-3568.1638L13977.6013,-3568.1621L13977.6306,-3568.1503"/>
<path content="2,都営バス,東20乙,2.0,0.0,0.0," xlink:title="2" d="M13977.6306,-3568.1503L13977.6013,-3568.1621L13977.5972,-3568.1638L13977.5687,-3568.1741L13977.556,-3568.1792L13977.5485,-3568.1821L13977.5185,-3568.1942L13977.5108,-3568.1973L13977.5017,-3568.2008L13977.5009,-3568.2011L13977.5008,-3568.2011L13977.5008,-3568.2011L13977.5,-3568.2014L13977.3883,-3568.2419L13977.3741,-3568.2471L13977.3714,-3568.2485L13977.356,-3568.2568"/>
<path content="2,都営バス,東22,215.0,180.0,172.0," xlink:title="2" d="M13977.356,-3568.2568L13977.3714,-3568.2485L13977.3741,-3568.2471L13977.3883,-3568.2419L13977.5,-3568.2014L13977.5008,-3568.2011L13977.5008,-3568.2011L13977.5009,-3568.2011L13977.5017,-3568.2008L13977.5108,-3568.1973L13977.5185,-3568.1942L13977.5485,-3568.1821L13977.556,-3568.1792L13977.5687,-3568.1741L13977.5972,-3568.1638L13977.6013,-3568.1621L13977.6306,-3568.1503"/>
<path content="2,都営バス,東42甲,118.0,99.0,81.0," xlink:title="2" d="M13977.356,-3568.2568L13977.3714,-3568.2485L13977.3741,-3568.2471L13977.3761,-3568.2507L13977.43,-3568.3471L13977.433,-3568.3561L13977.4341,-3568.3594"/>
</g>
</svg>
