<?xml version="1.0" encoding="UTF-8"?>
<svg  xmlns="http://www.w3.org/2000/svg" xmlns:xlink="http://www.w3.org/1999/xlink" xmlns:go="http://purl.org/svgmap/profile" property="N07_001,N07_002,N07_003,N07_004,N07_005,N07_006,N07_007" viewBox="12963.8671875 -3392.578125 8.7890625 8.7890625" go:dataArea="12963.8671875 -3392.578125 8.7890625 8.7890625" >
<metadata>
 <rdf:RDF xmlns:rdf="http://www.w3.org/1999/02/22-rdf-syntax-ns#" xmlns:crs="http://opengis.org/xmldtds/transformations.dtd" xmlns:svg="http://www.w3.org/svg" >
  <rdf:Description>
   <crs:CoordinateReferenceSystem rdf:resource="http://purl.org/crs/84" svg:transform="matrix(100.0,0.0,0.0,-100.0,0.0,0.0)" />
  </rdf:Description>
 </rdf:RDF>
</metadata>
<globalCoordinateSystem srsName="http://purl.org/crs/84" transform="matrix(100.0,0.0,0.0,-100.0,0.0,0.0)" />
<defs>
 <g id="p0" >
  <circle cx="0.0" cy="0.0" r="3" stroke="green" stroke-width="0.75" vector-effect="non-scaling-stroke" />
 </g>
</defs>
<g fill="none" fill-rule="evenodd" stroke="#FF00FF" stroke-width="0.75" opacity="0.5" vector-effect="non-scaling-stroke" stroke-linejoin="bevel" >
<path content="1,壱岐交通（株）,印通寺・芦辺・瀬戸方面廻り,35.0,35.0,33.0," xlink:title="1" d="M12971.0043,-3383.7891L12970.9872,-3383.8015L12970.9594,-3383.82L12970.9251,-3383.8385L12970.8959,-3383.8468L12970.8728,-3383.846L12970.8294,-3383.8358L12970.7972,-3383.829L12970.7444,-3383.8186L12970.7318,-3383.8203L12970.7066,-3383.8291L12970.6572,-3383.8546L12970.5954,-3383.8866L12970.5513,-3383.9054L12970.4756,-3383.9361L12970.3429,-3383.9922L12970.2598,-3384.0365L12970.152,-3384.0926L12970.0474,-3384.147L12970.0209,-3384.1636L12969.9995,-3384.1835L12969.9816,-3384.2042L12969.9698,-3384.2261L12969.9658,-3384.2476L12969.9669,-3384.2627L12969.9711,-3384.2738L12969.9836,-3384.312L12969.9862,-3384.3325L12969.9823,-3384.3656L12969.9747,-3384.3908L12969.9603,-3384.4154L12969.9252,-3384.4391L12969.8954,-3384.4541L12969.8851,-3384.4638L12969.8753,-3384.4842L12969.8693,-3384.5301L12969.8625,-3384.5936L12969.8617,-3384.6185L12969.8653,-3384.6296L12969.8846,-3384.6567L12969.9126,-3384.6979L12969.9149,-3384.7111L12969.9142,-3384.7269L12969.9088,-3384.7526L12969.8965,-3384.7783L12969.8586,-3384.8201L12969.8444,-3384.8389L12969.8144,-3384.8895L12969.7894,-3384.946L12969.7785,-3384.9682L12969.7632,-3384.9812L12969.7477,-3384.9886L12969.7122,-3385.0074L12969.656,-3385.0306L12969.6464,-3385.032L12969.6381,-3385.0271L12969.6143,-3385.0135L12969.5954,-3384.985L12969.5831,-3384.972L12969.5539,-3384.9571L12969.5329,-3384.9439L12969.5273,-3384.9336L12969.5259,-3384.9097L12969.5249,-3384.8778L12969.5223,-3384.8673L12969.5146,-3384.8621L12969.5034,-3384.8596L12969.4927,-3384.862L12969.4721,-3384.8872"/>
<path content="1,壱岐交通（株）,印通寺・芦辺・瀬戸方面廻り,35.0,35.0,33.0," xlink:title="1" d="M12969.4721,-3384.8872L12969.4607,-3384.885L12969.4475,-3384.8871L12969.4344,-3384.8922L12969.4015,-3384.9235L12969.3835,-3384.9436L12969.3736,-3384.9494L12969.3592,-3384.9525L12969.3454,-3384.9505L12969.3332,-3384.9464L12969.3216,-3384.9386L12969.3074,-3384.9284L12969.2892,-3384.9113L12969.2794,-3384.9023L12969.2586,-3384.8934L12969.2285,-3384.8809L12969.216,-3384.8756L12969.2093,-3384.8711L12969.2037,-3384.8641L12969.1876,-3384.8344L12969.174,-3384.8042L12969.1719,-3384.7875L12969.1715,-3384.7747L12969.1738,-3384.7604L12969.1953,-3384.7326L12969.2191,-3384.7106L12969.2365,-3384.6968L12969.2605,-3384.6793L12969.283,-3384.6635L12969.3017,-3384.652L12969.3141,-3384.6412L12969.3294,-3384.6284L12969.3536,-3384.6063L12969.3753,-3384.5858L12969.4192,-3384.5386L12969.4395,-3384.5066L12969.4574,-3384.4798L12969.4819,-3384.4392L12969.5008,-3384.4016L12969.5212,-3384.3485L12969.5319,-3384.303L12969.5337,-3384.2608L12969.5232,-3384.2149L12969.5185,-3384.1749L12969.5219,-3384.1486L12969.5373,-3384.1179L12969.5428,-3384.1088L12969.5833,-3384.0734L12969.6727,-3384.0063L12969.7476,-3383.9533L12969.8488,-3383.8831L12969.8643,-3383.868L12969.8832,-3383.8432L12969.9037,-3383.815L12969.92,-3383.7905L12969.9211,-3383.7891"/>
<path content="1,壱岐交通（株）,印通寺・芦辺・瀬戸方面廻り,35.0,35.0,33.0," xlink:title="1" d="M12969.4721,-3384.8872L12969.4796,-3384.8935L12969.4811,-3384.9038L12969.471,-3384.9232L12969.4563,-3384.9406L12969.433,-3384.9663L12969.411,-3384.9906L12969.4017,-3385.0036L12969.3958,-3385.0141L12969.3928,-3385.0243L12969.3886,-3385.0939L12969.3881,-3385.1095L12969.3703,-3385.1103L12969.3535,-3385.1141L12969.3228,-3385.118L12969.2982,-3385.131L12969.279,-3385.153L12969.2744,-3385.1605L12969.2682,-3385.1727L12969.2639,-3385.2001L12969.2637,-3385.2208"/>
<path content="1,壱岐交通（株）,国分経由勝本瀬戸芦辺印通寺経由郷ノ浦・印通寺経由芦辺瀬戸勝本那賀郷ノ浦,1.5,1.5,1.5," xlink:title="1" d="M12971.0043,-3383.7891L12970.9872,-3383.8015L12970.9594,-3383.82L12970.9251,-3383.8385L12970.8959,-3383.8468L12970.8728,-3383.846L12970.8294,-3383.8358L12970.7972,-3383.829L12970.7444,-3383.8186L12970.7318,-3383.8203L12970.7066,-3383.8291L12970.6572,-3383.8546L12970.5954,-3383.8866L12970.5513,-3383.9054L12970.4756,-3383.9361L12970.3429,-3383.9922L12970.2598,-3384.0365L12970.152,-3384.0926L12970.0474,-3384.147L12970.0209,-3384.1636L12969.9995,-3384.1835L12969.9816,-3384.2042L12969.9698,-3384.2261L12969.9658,-3384.2476L12969.9669,-3384.2627L12969.9711,-3384.2738L12969.9836,-3384.312L12969.9862,-3384.3325L12969.9823,-3384.3656L12969.9747,-3384.3908L12969.9603,-3384.4154L12969.9252,-3384.4391L12969.8954,-3384.4541L12969.8851,-3384.4638L12969.8753,-3384.4842L12969.8693,-3384.5301L12969.8625,-3384.5936L12969.8617,-3384.6185L12969.8653,-3384.6296L12969.8846,-3384.6567L12969.9126,-3384.6979L12969.9149,-3384.7111L12969.9142,-3384.7269L12969.9088,-3384.7526L12969.8965,-3384.7783L12969.8586,-3384.8201L12969.8444,-3384.8389L12969.8144,-3384.8895L12969.7894,-3384.946L12969.7785,-3384.9682L12969.7632,-3384.9812L12969.7477,-3384.9886L12969.7122,-3385.0074L12969.656,-3385.0306L12969.6464,-3385.032L12969.6381,-3385.0271L12969.6143,-3385.0135L12969.5954,-3384.985L12969.5831,-3384.972L12969.5539,-3384.9571L12969.5329,-3384.9439L12969.5273,-3384.9336L12969.5259,-3384.9097L12969.5249,-3384.8778L12969.5223,-3384.8673L12969.5146,-3384.8621L12969.5034,-3384.8596L12969.4927,-3384.862L12969.4721,-3384.8872"/>
<path content="1,壱岐交通（株）,国分経由勝本瀬戸芦辺印通寺経由郷ノ浦・印通寺経由芦辺瀬戸勝本那賀郷ノ浦,1.5,1.5,1.5," xlink:title="1" d="M12969.4721,-3384.8872L12969.4607,-3384.885L12969.4475,-3384.8871L12969.4344,-3384.8922L12969.4015,-3384.9235L12969.3835,-3384.9436L12969.3736,-3384.9494L12969.3592,-3384.9525L12969.3454,-3384.9505L12969.3332,-3384.9464L12969.3216,-3384.9386L12969.3074,-3384.9284L12969.2892,-3384.9113L12969.2794,-3384.9023L12969.2586,-3384.8934L12969.2285,-3384.8809L12969.216,-3384.8756L12969.2093,-3384.8711L12969.2037,-3384.8641L12969.1876,-3384.8344L12969.174,-3384.8042L12969.1719,-3384.7875L12969.1715,-3384.7747L12969.1738,-3384.7604L12969.1953,-3384.7326L12969.2191,-3384.7106L12969.2365,-3384.6968L12969.2605,-3384.6793L12969.283,-3384.6635L12969.3017,-3384.652L12969.3141,-3384.6412L12969.3294,-3384.6284L12969.3536,-3384.6063L12969.3753,-3384.5858L12969.4192,-3384.5386L12969.4395,-3384.5066L12969.4574,-3384.4798L12969.4819,-3384.4392L12969.5008,-3384.4016L12969.5212,-3384.3485L12969.5319,-3384.303L12969.5337,-3384.2608L12969.5232,-3384.2149L12969.5185,-3384.1749L12969.5219,-3384.1486L12969.5373,-3384.1179L12969.5428,-3384.1088L12969.5833,-3384.0734L12969.6727,-3384.0063L12969.7476,-3383.9533L12969.8488,-3383.8831L12969.8643,-3383.868L12969.8832,-3383.8432L12969.9037,-3383.815L12969.92,-3383.7905L12969.9211,-3383.7891"/>
<path content="1,壱岐交通（株）,国分経由勝本瀬戸芦辺印通寺経由郷ノ浦・印通寺経由芦辺瀬戸勝本那賀郷ノ浦,1.5,1.5,1.5," xlink:title="1" d="M12969.4721,-3384.8872L12969.4796,-3384.8935L12969.4811,-3384.9038L12969.471,-3384.9232L12969.4563,-3384.9406L12969.433,-3384.9663L12969.411,-3384.9906L12969.4017,-3385.0036L12969.3958,-3385.0141L12969.3928,-3385.0243L12969.3886,-3385.0939L12969.3881,-3385.1095L12969.3703,-3385.1103L12969.3535,-3385.1141"/>
<path content="1,壱岐交通（株）,国分経由勝本瀬戸芦辺直行郷ノ浦・芦辺直行瀬戸勝本那賀郷ノ浦,9.0,9.0,8.5," xlink:title="1" d="M12971.0043,-3383.7891L12970.9872,-3383.8015L12970.9594,-3383.82L12970.9251,-3383.8385L12970.8959,-3383.8468L12970.8728,-3383.846L12970.8294,-3383.8358L12970.7972,-3383.829L12970.7444,-3383.8186L12970.7318,-3383.8203L12970.7066,-3383.8291L12970.6572,-3383.8546L12970.5954,-3383.8866L12970.5513,-3383.9054L12970.4756,-3383.9361L12970.3429,-3383.9922L12970.2598,-3384.0365L12970.152,-3384.0926L12970.0474,-3384.147L12970.0209,-3384.1636L12969.9995,-3384.1835L12969.9816,-3384.2042L12969.9698,-3384.2261L12969.9658,-3384.2476L12969.9669,-3384.2627L12969.9711,-3384.2738L12969.9836,-3384.312L12969.9862,-3384.3325L12969.9823,-3384.3656L12969.9747,-3384.3908L12969.9603,-3384.4154L12969.9252,-3384.4391L12969.8954,-3384.4541L12969.8851,-3384.4638L12969.8753,-3384.4842L12969.8693,-3384.5301L12969.8625,-3384.5936L12969.8617,-3384.6185L12969.8653,-3384.6296L12969.8846,-3384.6567L12969.9126,-3384.6979L12969.9149,-3384.7111L12969.9142,-3384.7269L12969.9088,-3384.7526L12969.8965,-3384.7783L12969.8586,-3384.8201L12969.8444,-3384.8389L12969.8144,-3384.8895L12969.7894,-3384.946L12969.7785,-3384.9682L12969.7632,-3384.9812L12969.7477,-3384.9886L12969.7122,-3385.0074L12969.656,-3385.0306L12969.6464,-3385.032L12969.6381,-3385.0271L12969.6143,-3385.0135L12969.5954,-3384.985L12969.5831,-3384.972L12969.5539,-3384.9571L12969.5329,-3384.9439L12969.5273,-3384.9336L12969.5259,-3384.9097L12969.5249,-3384.8778L12969.5223,-3384.8673L12969.5146,-3384.8621L12969.5034,-3384.8596L12969.4927,-3384.862L12969.4721,-3384.8872"/>
<path content="1,壱岐交通（株）,国分経由勝本瀬戸芦辺直行郷ノ浦・芦辺直行瀬戸勝本那賀郷ノ浦,9.0,9.0,8.5," xlink:title="1" d="M12969.4721,-3384.8872L12969.4607,-3384.885L12969.4475,-3384.8871L12969.4344,-3384.8922L12969.4015,-3384.9235L12969.3835,-3384.9436L12969.3736,-3384.9494L12969.3592,-3384.9525L12969.3454,-3384.9505L12969.3332,-3384.9464L12969.3216,-3384.9386L12969.3074,-3384.9284L12969.2892,-3384.9113L12969.2794,-3384.9023L12969.2586,-3384.8934L12969.2285,-3384.8809L12969.216,-3384.8756L12969.2093,-3384.8711L12969.2037,-3384.8641L12969.1876,-3384.8344L12969.174,-3384.8042L12969.1719,-3384.7875L12969.1715,-3384.7747L12969.1738,-3384.7604L12969.1953,-3384.7326L12969.2191,-3384.7106L12969.2365,-3384.6968L12969.2605,-3384.6793L12969.283,-3384.6635L12969.3017,-3384.652L12969.3141,-3384.6412L12969.3294,-3384.6284L12969.3536,-3384.6063L12969.3753,-3384.5858L12969.4192,-3384.5386L12969.4395,-3384.5066L12969.4574,-3384.4798L12969.4819,-3384.4392L12969.5008,-3384.4016L12969.5212,-3384.3485L12969.5319,-3384.303L12969.5337,-3384.2608L12969.5232,-3384.2149L12969.5185,-3384.1749L12969.5219,-3384.1486L12969.5373,-3384.1179L12969.5428,-3384.1088L12969.5833,-3384.0734L12969.6727,-3384.0063L12969.7476,-3383.9533L12969.8488,-3383.8831L12969.8643,-3383.868L12969.8832,-3383.8432L12969.9037,-3383.815L12969.92,-3383.7905L12969.9211,-3383.7891"/>
<path content="1,壱岐交通（株）,国分経由勝本瀬戸芦辺直行郷ノ浦・芦辺直行瀬戸勝本那賀郷ノ浦,9.0,9.0,8.5," xlink:title="1" d="M12969.4721,-3384.8872L12969.4796,-3384.8935L12969.4811,-3384.9038L12969.471,-3384.9232L12969.4563,-3384.9406L12969.433,-3384.9663L12969.411,-3384.9906L12969.4017,-3385.0036L12969.3958,-3385.0141L12969.3928,-3385.0243L12969.3886,-3385.0939L12969.3881,-3385.1095L12969.3703,-3385.1103L12969.3535,-3385.1141"/>
<path content="1,壱岐交通（株）,湯ノ本経由勝本折返,8.5,8.5,8.5," xlink:title="1" d="M12968.7363,-3383.7891L12968.7349,-3383.7974L12968.734,-3383.8117L12968.7367,-3383.8237L12968.7454,-3383.8352L12968.7875,-3383.8605L12968.8088,-3383.8731L12968.8626,-3383.9027L12968.889,-3383.9189L12968.9223,-3383.9415L12968.9356,-3383.9537L12968.9449,-3383.9647L12968.9511,-3383.9752L12968.9591,-3383.9971L12968.9675,-3384.0356L12968.9684,-3384.0619L12968.9644,-3384.0908L12968.9587,-3384.1086L12968.9467,-3384.1365L12968.931,-3384.1634L12968.9256,-3384.1829L12968.9227,-3384.1939L12968.9241,-3384.2087L12968.931,-3384.2274L12968.9458,-3384.2491L12968.9719,-3384.2773L12968.9769,-3384.2898L12968.9784,-3384.3083L12968.9773,-3384.3506L12968.9802,-3384.3624L12968.9956,-3384.3973L12969.0047,-3384.4207L12969.0182,-3384.4365L12969.0327,-3384.4524L12969.0581,-3384.4747L12969.084,-3384.4938L12969.108,-3384.5064L12969.1435,-3384.5183L12969.1959,-3384.5316L12969.252,-3384.5429L12969.2651,-3384.545L12969.2784,-3384.5479L12969.2917,-3384.5539L12969.3098,-3384.5679L12969.3536,-3384.6063L12969.3294,-3384.6284L12969.3141,-3384.6412L12969.3017,-3384.652L12969.283,-3384.6635L12969.2605,-3384.6793L12969.2365,-3384.6968L12969.2191,-3384.7106L12969.1953,-3384.7326L12969.1738,-3384.7604L12969.1715,-3384.7747L12969.1719,-3384.7875L12969.174,-3384.8042L12969.1876,-3384.8344L12969.2037,-3384.8641L12969.2093,-3384.8711L12969.216,-3384.8756L12969.2285,-3384.8809L12969.2586,-3384.8934L12969.2794,-3384.9023L12969.2892,-3384.9113L12969.3074,-3384.9284L12969.3216,-3384.9386L12969.3332,-3384.9464L12969.3454,-3384.9505L12969.3592,-3384.9525L12969.3736,-3384.9494L12969.3835,-3384.9436L12969.4015,-3384.9235L12969.4344,-3384.8922L12969.4475,-3384.8871L12969.4607,-3384.885L12969.4721,-3384.8872L12969.4796,-3384.8935L12969.4811,-3384.9038L12969.471,-3384.9232L12969.4563,-3384.9406L12969.433,-3384.9663L12969.411,-3384.9906L12969.4017,-3385.0036L12969.3958,-3385.0141L12969.3928,-3385.0243L12969.3886,-3385.0939L12969.3881,-3385.1095"/>
<path content="1,壱岐交通（株）,湯ノ本経由勝本折返,8.5,8.5,8.5," xlink:title="1" d="M12969.3881,-3385.1095L12969.3703,-3385.1103L12969.3535,-3385.1141L12969.3228,-3385.118L12969.2982,-3385.131L12969.279,-3385.153L12969.2744,-3385.1605L12969.2682,-3385.1727L12969.2639,-3385.2001L12969.2637,-3385.2208L12969.2607,-3385.2544L12969.2527,-3385.2778L12969.2439,-3385.2945L12969.2327,-3385.3094L12969.2294,-3385.3247L12969.2274,-3385.3463L12969.2233,-3385.3577L12969.2151,-3385.367L12969.1997,-3385.3761L12969.1759,-3385.3842L12969.1604,-3385.3882L12969.1461,-3385.3904L12969.1337,-3385.3894L12969.1083,-3385.3841L12969.0837,-3385.378L12969.0687,-3385.3727L12969.0611,-3385.3732L12969.0564,-3385.3786L12969.0641,-3385.4089L12969.0698,-3385.4202L12969.0906,-3385.4442L12969.0986,-3385.4521"/>
<path content="1,壱岐交通（株）,湯ノ本経由勝本折返,8.5,8.5,8.5," xlink:title="1" d="M12969.3881,-3385.1095L12969.4112,-3385.1187L12969.4405,-3385.1568L12969.4823,-3385.2132L12969.491,-3385.242L12969.5132,-3385.2879L12969.5403,-3385.3345L12969.566,-3385.3734L12969.6003,-3385.4231L12969.6106,-3385.4403L12969.6556,-3385.4913L12969.6735,-3385.5102L12969.6857,-3385.5179L12969.7177,-3385.514L12969.762,-3385.5025L12969.7967,-3385.4913L12969.8643,-3385.4785L12969.8861,-3385.4743L12969.9086,-3385.4772L12969.9718,-3385.5063L12969.9989,-3385.5204L12970.0487,-3385.5243L12970.0959,-3385.5201L12970.139,-3385.5019L12970.1888,-3385.4759L12970.2143,-3385.4651L12970.2292,-3385.4654L12970.248,-3385.4664L12970.2814,-3385.4647L12970.3199,-3385.4462L12970.3805,-3385.4001L12970.4049,-3385.3793L12970.4415,-3385.3982L12970.4564,-3385.4135L12970.4682,-3385.4375L12970.488,-3385.4529L12970.5171,-3385.4672"/>
<path content="1,壱岐交通（株）,湯ノ本経由商業高校廻勝本・商業高校目釣廻湯ノ本経由郷ノ浦,1.0,1.0,1.0," xlink:title="1" d="M12971.0043,-3383.7891L12970.9872,-3383.8015L12970.9594,-3383.82L12970.9251,-3383.8385L12970.8959,-3383.8468L12970.8728,-3383.846L12970.8294,-3383.8358L12970.7972,-3383.829L12970.7444,-3383.8186L12970.7318,-3383.8203L12970.7066,-3383.8291L12970.6572,-3383.8546L12970.5954,-3383.8866L12970.5513,-3383.9054L12970.4756,-3383.9361L12970.3429,-3383.9922L12970.2598,-3384.0365L12970.152,-3384.0926L12970.0474,-3384.147L12970.0209,-3384.1636L12969.9995,-3384.1835L12969.9816,-3384.2042L12969.9698,-3384.2261L12969.9658,-3384.2476L12969.9669,-3384.2627L12969.9711,-3384.2738L12969.9836,-3384.312L12969.9862,-3384.3325L12969.9823,-3384.3656L12969.9747,-3384.3908L12969.9603,-3384.4154L12969.9252,-3384.4391L12969.8954,-3384.4541L12969.8851,-3384.4638L12969.8753,-3384.4842L12969.8693,-3384.5301L12969.8625,-3384.5936L12969.8617,-3384.6185L12969.8653,-3384.6296L12969.8846,-3384.6567L12969.9126,-3384.6979L12969.9149,-3384.7111L12969.9142,-3384.7269L12969.9088,-3384.7526L12969.8965,-3384.7783L12969.8586,-3384.8201L12969.8444,-3384.8389L12969.8144,-3384.8895L12969.7894,-3384.946L12969.7785,-3384.9682L12969.7632,-3384.9812L12969.7477,-3384.9886L12969.7122,-3385.0074L12969.656,-3385.0306L12969.6464,-3385.032L12969.6381,-3385.0271L12969.6143,-3385.0135L12969.5954,-3384.985L12969.5831,-3384.972L12969.5539,-3384.9571L12969.5329,-3384.9439L12969.5273,-3384.9336L12969.5259,-3384.9097L12969.5249,-3384.8778L12969.5223,-3384.8673L12969.5146,-3384.8621L12969.5034,-3384.8596L12969.4927,-3384.862L12969.4721,-3384.8872L12969.4796,-3384.8935L12969.4811,-3384.9038L12969.471,-3384.9232L12969.4563,-3384.9406L12969.433,-3384.9663L12969.411,-3384.9906L12969.4017,-3385.0036L12969.3958,-3385.0141L12969.3928,-3385.0243L12969.3886,-3385.0939L12969.3881,-3385.1095L12969.3703,-3385.1103L12969.3535,-3385.1141L12969.3228,-3385.118L12969.2982,-3385.131L12969.279,-3385.153L12969.2744,-3385.1605L12969.2682,-3385.1727L12969.2639,-3385.2001L12969.2637,-3385.2208L12969.2607,-3385.2544L12969.2527,-3385.2778L12969.2439,-3385.2945L12969.2327,-3385.3094L12969.2294,-3385.3247L12969.2274,-3385.3463L12969.2233,-3385.3577L12969.2151,-3385.367L12969.1997,-3385.3761L12969.1759,-3385.3842L12969.1604,-3385.3882L12969.1461,-3385.3904L12969.1337,-3385.3894L12969.1083,-3385.3841L12969.0837,-3385.378L12969.0687,-3385.3727L12969.0611,-3385.3732L12969.0564,-3385.3786L12969.0641,-3385.4089L12969.0698,-3385.4202L12969.0906,-3385.4442L12969.0986,-3385.4521"/>
<path content="1,壱岐交通（株）,観光用（右廻り）,27.0,27.0,26.0," xlink:title="1" d="M12969.9211,-3383.7891L12969.92,-3383.7905L12969.9037,-3383.815L12969.8832,-3383.8432L12969.8643,-3383.868L12969.8488,-3383.8831L12969.7476,-3383.9533L12969.6727,-3384.0063L12969.5833,-3384.0734L12969.5428,-3384.1088L12969.5373,-3384.1179L12969.5219,-3384.1486L12969.5185,-3384.1749L12969.5232,-3384.2149L12969.5337,-3384.2608L12969.5319,-3384.303L12969.5212,-3384.3485L12969.5008,-3384.4016L12969.4819,-3384.4392L12969.4574,-3384.4798L12969.4395,-3384.5066L12969.4192,-3384.5386L12969.3753,-3384.5858L12969.3536,-3384.6063L12969.3294,-3384.6284L12969.3141,-3384.6412L12969.3017,-3384.652L12969.283,-3384.6635L12969.2605,-3384.6793L12969.2365,-3384.6968L12969.2191,-3384.7106L12969.1953,-3384.7326L12969.1738,-3384.7604L12969.1715,-3384.7747L12969.1719,-3384.7875L12969.174,-3384.8042L12969.1876,-3384.8344L12969.2037,-3384.8641L12969.2093,-3384.8711L12969.216,-3384.8756L12969.2285,-3384.8809L12969.2586,-3384.8934L12969.2794,-3384.9023L12969.2892,-3384.9113L12969.3074,-3384.9284L12969.3216,-3384.9386L12969.3332,-3384.9464L12969.3454,-3384.9505L12969.3592,-3384.9525L12969.3736,-3384.9494L12969.3835,-3384.9436L12969.4015,-3384.9235L12969.4344,-3384.8922L12969.4475,-3384.8871L12969.4607,-3384.885L12969.4721,-3384.8872L12969.4796,-3384.8935L12969.4811,-3384.9038L12969.471,-3384.9232L12969.4563,-3384.9406L12969.433,-3384.9663L12969.411,-3384.9906L12969.4017,-3385.0036L12969.3958,-3385.0141L12969.3928,-3385.0243L12969.3886,-3385.0939L12969.3881,-3385.1095L12969.3703,-3385.1103L12969.3535,-3385.1141"/>
<path content="1,壱岐交通（株）,観光用（左廻り）,27.0,27.0,25.0," xlink:title="1" d="M12969.9211,-3383.7891L12969.92,-3383.7905L12969.9037,-3383.815L12969.8832,-3383.8432L12969.8643,-3383.868L12969.8488,-3383.8831L12969.7476,-3383.9533L12969.6727,-3384.0063L12969.5833,-3384.0734L12969.5428,-3384.1088L12969.5373,-3384.1179L12969.5219,-3384.1486L12969.5185,-3384.1749L12969.5232,-3384.2149L12969.5337,-3384.2608L12969.5319,-3384.303L12969.5212,-3384.3485L12969.5008,-3384.4016L12969.4819,-3384.4392L12969.4574,-3384.4798L12969.4395,-3384.5066L12969.4192,-3384.5386L12969.3753,-3384.5858L12969.3536,-3384.6063L12969.3294,-3384.6284L12969.3141,-3384.6412L12969.3017,-3384.652L12969.283,-3384.6635L12969.2605,-3384.6793L12969.2365,-3384.6968L12969.2191,-3384.7106L12969.1953,-3384.7326L12969.1738,-3384.7604L12969.1715,-3384.7747L12969.1719,-3384.7875L12969.174,-3384.8042L12969.1876,-3384.8344L12969.2037,-3384.8641L12969.2093,-3384.8711L12969.216,-3384.8756L12969.2285,-3384.8809L12969.2586,-3384.8934L12969.2794,-3384.9023L12969.2892,-3384.9113L12969.3074,-3384.9284L12969.3216,-3384.9386L12969.3332,-3384.9464L12969.3454,-3384.9505L12969.3592,-3384.9525L12969.3736,-3384.9494L12969.3835,-3384.9436L12969.4015,-3384.9235L12969.4344,-3384.8922L12969.4475,-3384.8871L12969.4607,-3384.885L12969.4721,-3384.8872L12969.4796,-3384.8935L12969.4811,-3384.9038L12969.471,-3384.9232L12969.4563,-3384.9406L12969.433,-3384.9663L12969.411,-3384.9906L12969.4017,-3385.0036L12969.3958,-3385.0141L12969.3928,-3385.0243L12969.3886,-3385.0939L12969.3881,-3385.1095L12969.3703,-3385.1103L12969.3535,-3385.1141"/>
<path content="1,壱岐交通（株）,那賀・勝本・湯ノ本方面廻り,35.0,35.0,33.0," xlink:title="1" d="M12971.0043,-3383.7891L12970.9872,-3383.8015L12970.9594,-3383.82L12970.9251,-3383.8385L12970.8959,-3383.8468L12970.8728,-3383.846L12970.8294,-3383.8358L12970.7972,-3383.829L12970.7444,-3383.8186L12970.7318,-3383.8203L12970.7066,-3383.8291L12970.6572,-3383.8546L12970.5954,-3383.8866L12970.5513,-3383.9054L12970.4756,-3383.9361L12970.3429,-3383.9922L12970.2598,-3384.0365L12970.152,-3384.0926L12970.0474,-3384.147L12970.0209,-3384.1636L12969.9995,-3384.1835L12969.9816,-3384.2042L12969.9698,-3384.2261L12969.9658,-3384.2476L12969.9669,-3384.2627L12969.9711,-3384.2738L12969.9836,-3384.312L12969.9862,-3384.3325L12969.9823,-3384.3656L12969.9747,-3384.3908L12969.9603,-3384.4154L12969.9252,-3384.4391L12969.8954,-3384.4541L12969.8851,-3384.4638L12969.8753,-3384.4842L12969.8693,-3384.5301L12969.8625,-3384.5936L12969.8617,-3384.6185L12969.8653,-3384.6296L12969.8846,-3384.6567L12969.9126,-3384.6979L12969.9149,-3384.7111L12969.9142,-3384.7269L12969.9088,-3384.7526L12969.8965,-3384.7783L12969.8586,-3384.8201L12969.8444,-3384.8389L12969.8144,-3384.8895L12969.7894,-3384.946L12969.7785,-3384.9682L12969.7632,-3384.9812L12969.7477,-3384.9886L12969.7122,-3385.0074L12969.656,-3385.0306L12969.6464,-3385.032L12969.6381,-3385.0271L12969.6143,-3385.0135L12969.5954,-3384.985L12969.5831,-3384.972L12969.5539,-3384.9571L12969.5329,-3384.9439L12969.5273,-3384.9336L12969.5259,-3384.9097L12969.5249,-3384.8778L12969.5223,-3384.8673L12969.5146,-3384.8621L12969.5034,-3384.8596L12969.4927,-3384.862L12969.4721,-3384.8872"/>
<path content="1,壱岐交通（株）,那賀・勝本・湯ノ本方面廻り,35.0,35.0,33.0," xlink:title="1" d="M12969.4721,-3384.8872L12969.4607,-3384.885L12969.4475,-3384.8871L12969.4344,-3384.8922L12969.4015,-3384.9235L12969.3835,-3384.9436L12969.3736,-3384.9494L12969.3592,-3384.9525L12969.3454,-3384.9505L12969.3332,-3384.9464L12969.3216,-3384.9386L12969.3074,-3384.9284L12969.2892,-3384.9113L12969.2794,-3384.9023L12969.2586,-3384.8934L12969.2285,-3384.8809L12969.216,-3384.8756L12969.2093,-3384.8711L12969.2037,-3384.8641L12969.1876,-3384.8344L12969.174,-3384.8042L12969.1719,-3384.7875L12969.1715,-3384.7747L12969.1738,-3384.7604L12969.1953,-3384.7326L12969.2191,-3384.7106L12969.2365,-3384.6968L12969.2605,-3384.6793L12969.283,-3384.6635L12969.3017,-3384.652L12969.3141,-3384.6412L12969.3294,-3384.6284L12969.3536,-3384.6063L12969.3753,-3384.5858L12969.4192,-3384.5386L12969.4395,-3384.5066L12969.4574,-3384.4798L12969.4819,-3384.4392L12969.5008,-3384.4016L12969.5212,-3384.3485L12969.5319,-3384.303L12969.5337,-3384.2608L12969.5232,-3384.2149L12969.5185,-3384.1749L12969.5219,-3384.1486L12969.5373,-3384.1179L12969.5428,-3384.1088L12969.5833,-3384.0734L12969.6727,-3384.0063L12969.7476,-3383.9533L12969.8488,-3383.8831L12969.8643,-3383.868L12969.8832,-3383.8432L12969.9037,-3383.815L12969.92,-3383.7905L12969.9211,-3383.7891"/>
<path content="1,壱岐交通（株）,那賀・勝本・湯ノ本方面廻り,35.0,35.0,33.0," xlink:title="1" d="M12969.4721,-3384.8872L12969.4796,-3384.8935L12969.4811,-3384.9038L12969.471,-3384.9232L12969.4563,-3384.9406L12969.433,-3384.9663L12969.411,-3384.9906L12969.4017,-3385.0036L12969.3958,-3385.0141L12969.3928,-3385.0243L12969.3886,-3385.0939L12969.3881,-3385.1095L12969.3703,-3385.1103L12969.3535,-3385.1141L12969.3228,-3385.118L12969.2982,-3385.131L12969.279,-3385.153L12969.2744,-3385.1605L12969.2682,-3385.1727L12969.2639,-3385.2001L12969.2637,-3385.2208"/>
</g>
</svg>
