<?xml version="1.0" encoding="UTF-8"?>
<svg  xmlns="http://www.w3.org/2000/svg" xmlns:xlink="http://www.w3.org/1999/xlink" xmlns:go="http://purl.org/svgmap/profile" property="N07_001,N07_002,N07_003,N07_004,N07_005,N07_006,N07_007" viewBox="13851.5625 -3585.9375 8.7890625 8.7890625" go:dataArea="13851.5625 -3585.9375 8.7890625 8.7890625" >
<metadata>
 <rdf:RDF xmlns:rdf="http://www.w3.org/1999/02/22-rdf-syntax-ns#" xmlns:crs="http://opengis.org/xmldtds/transformations.dtd" xmlns:svg="http://www.w3.org/svg" >
  <rdf:Description>
   <crs:CoordinateReferenceSystem rdf:resource="http://purl.org/crs/84" svg:transform="matrix(100.0,0.0,0.0,-100.0,0.0,0.0)" />
  </rdf:Description>
 </rdf:RDF>
</metadata>
<globalCoordinateSystem srsName="http://purl.org/crs/84" transform="matrix(100.0,0.0,0.0,-100.0,0.0,0.0)" />
<defs>
 <g id="p0" >
  <circle cx="0.0" cy="0.0" r="3" stroke="green" stroke-width="0.75" vector-effect="non-scaling-stroke" />
 </g>
</defs>
<g fill="none" fill-rule="evenodd" stroke="#FF00FF" stroke-width="0.75" opacity="0.5" vector-effect="non-scaling-stroke" stroke-linejoin="bevel" >
<path content="1,山梨峡北交通（株）,茅ヶ岳みずがき田園バス　みずがきルート,0.0,4.1,4.1," xlink:title="1" d="M13851.5625,-3585.7985L13851.563,-3585.7984L13851.5886,-3585.7928L13851.6225,-3585.7827L13851.6356,-3585.7821L13851.6412,-3585.7844L13851.6419,-3585.7838L13851.6702,-3585.8007L13851.7385,-3585.8479L13851.7482,-3585.8502L13851.758,-3585.8491L13851.7657,-3585.8457L13851.8424,-3585.8108L13851.8777,-3585.8007L13851.9323,-3585.7872L13851.9676,-3585.7742L13852.0081,-3585.7557L13852.0817,-3585.7264L13852.1281,-3585.7095L13852.1765,-3585.6943L13852.2175,-3585.6796L13852.2233,-3585.6775L13852.2384,-3585.6755L13852.2511,-3585.6755L13852.2753,-3585.6774L13852.2822,-3585.6805L13852.2842,-3585.6828L13852.2841,-3585.6848L13852.2838,-3585.6908L13852.2822,-3585.6937L13852.2769,-3585.6998L13852.2366,-3585.7219L13852.1557,-3585.7658L13852.137,-3585.7782L13852.126,-3585.7872L13852.1177,-3585.7996L13852.1114,-3585.8142L13852.1087,-3585.8272L13852.1087,-3585.8604L13852.1123,-3585.8744L13852.1126,-3585.8755L13852.1185,-3585.8897L13852.1189,-3585.8907L13852.1281,-3585.9071L13852.1287,-3585.9081L13852.1446,-3585.9275L13852.1455,-3585.9284L13852.1544,-3585.9375M13856.0836,-3585.9375L13856.0902,-3585.9348L13856.111,-3585.9286L13856.1359,-3585.9241L13856.1622,-3585.9202L13856.2053,-3585.9132L13856.2346,-3585.9074L13856.2666,-3585.8978L13856.2891,-3585.8877L13856.3137,-3585.8706L13856.3319,-3585.8538L13856.3437,-3585.8391L13856.3537,-3585.8205L13856.36,-3585.8104L13856.3745,-3585.7963L13856.3832,-3585.7929L13856.3912,-3585.7884L13856.4199,-3585.7971L13856.4242,-3585.7984L13856.4595,-3585.7989L13856.4789,-3585.8017L13856.4934,-3585.8068L13856.4975,-3585.8102L13856.4996,-3585.8107L13856.5141,-3585.8237L13856.5439,-3585.8648L13856.5646,-3585.884L13856.6013,-3585.9093L13856.6144,-3585.9161L13856.6269,-3585.9206L13856.6432,-3585.9218L13856.6621,-3585.9195L13856.6732,-3585.9178L13856.6926,-3585.9168L13856.7113,-3585.9178L13856.7284,-3585.9186L13856.738,-3585.9179L13856.7432,-3585.9168L13856.7704,-3585.9111L13856.7728,-3585.9105L13856.7777,-3585.9114L13856.7882,-3585.9091L13856.8095,-3585.9234L13856.8316,-3585.9341L13856.8389,-3585.9375"/>
<path content="2,北杜市,韮崎・増富温泉郷線,9.5,7.0,7.0," xlink:title="2" d="M13851.5625,-3585.7985L13851.563,-3585.7984L13851.5886,-3585.7928L13851.6225,-3585.7827L13851.6356,-3585.7821L13851.6412,-3585.7844L13851.6419,-3585.7838L13851.6702,-3585.8007L13851.7385,-3585.8479L13851.7482,-3585.8502L13851.758,-3585.8491L13851.7657,-3585.8457L13851.8424,-3585.8108L13851.8777,-3585.8007L13851.9323,-3585.7872L13851.9676,-3585.7742L13852.0081,-3585.7557L13852.0817,-3585.7264L13852.1281,-3585.7095L13852.1765,-3585.6943L13852.2175,-3585.6796L13852.2233,-3585.6775L13852.2384,-3585.6755L13852.2511,-3585.6755L13852.2753,-3585.6774L13852.2822,-3585.6805L13852.2842,-3585.6828L13852.2841,-3585.6848L13852.2838,-3585.6908L13852.2822,-3585.6937L13852.2769,-3585.6998L13852.2366,-3585.7219L13852.1557,-3585.7658L13852.137,-3585.7782L13852.126,-3585.7872L13852.1177,-3585.7996L13852.1114,-3585.8142L13852.1087,-3585.8272L13852.1087,-3585.8604L13852.1123,-3585.8744L13852.1126,-3585.8755L13852.1185,-3585.8897L13852.1189,-3585.8907L13852.1281,-3585.9071L13852.1287,-3585.9081L13852.1446,-3585.9275L13852.1455,-3585.9284L13852.1544,-3585.9375"/>
<path content="3,甲斐市,睦沢・清川方面,0.8,0.0,0.0," xlink:title="3" d="M13853.3146,-3577.1484L13853.3128,-3577.1711L13853.3107,-3577.1784L13853.3093,-3577.1897L13853.3086,-3577.1919L13853.2941,-3577.2511L13853.2934,-3577.2606L13853.292,-3577.2685L13853.292,-3577.2905L13853.2982,-3577.3057L13853.3024,-3577.3119L13853.3335,-3577.3463L13853.3425,-3577.3569L13853.3874,-3577.4274L13853.4116,-3577.4606L13853.4364,-3577.4994L13853.4461,-3577.5107L13853.4558,-3577.527L13853.4613,-3577.54L13853.4634,-3577.5507L13853.4661,-3577.5597L13853.4751,-3577.6019L13853.4744,-3577.6284L13853.4737,-3577.6887L13853.4758,-3577.6971L13853.4799,-3577.705L13853.5124,-3577.7326L13853.5401,-3577.7624L13853.547,-3577.7731L13853.5566,-3577.7911L13853.5576,-3577.7997L13853.558,-3577.8058L13853.5573,-3577.8159L13853.5546,-3577.8244L13853.5483,-3577.8351L13853.5283,-3577.8553L13853.5244,-3577.8633L13853.5242,-3577.8681L13853.528,-3577.876L13853.5287,-3577.8865L13853.5276,-3577.8965L13853.5242,-3577.9089L13853.5138,-3577.9218L13853.4827,-3577.9522L13853.4751,-3577.9641L13853.4703,-3578.0018L13853.4634,-3578.0271L13853.4578,-3578.0513L13853.4564,-3578.0958L13853.4552,-3578.1653L13853.455,-3578.1752L13853.4537,-3578.1949L13853.4599,-3578.2484L13853.4647,-3578.2693L13853.4848,-3578.3143L13853.4882,-3578.3228L13853.5034,-3578.3537L13853.5097,-3578.3638L13853.5069,-3578.3701L13853.502,-3578.383L13853.4999,-3578.3977L13853.5103,-3578.4281L13853.511,-3578.4388L13853.5089,-3578.445L13853.4972,-3578.463L13853.482,-3578.4793L13853.4668,-3578.4923L13853.4509,-3578.5019L13853.4447,-3578.5047L13853.4191,-3578.5199L13853.4115,-3578.5261L13853.4074,-3578.5323L13853.4004,-3578.5469L13853.3804,-3578.579L13853.3569,-3578.6196L13853.3486,-3578.6432L13853.3424,-3578.6578L13853.3369,-3578.6686L13853.312,-3578.695L13853.2541,-3578.7496L13853.2591,-3578.7521L13853.268,-3578.753L13853.2795,-3578.7519L13853.3023,-3578.7451L13853.3279,-3578.7339L13853.341,-3578.7271L13853.3721,-3578.7097L13853.4004,-3578.6961L13853.4163,-3578.6888L13853.435,-3578.6798L13853.4474,-3578.677L13853.4647,-3578.6781L13853.4703,-3578.6798L13853.4813,-3578.6854L13853.4961,-3578.6991"/>
</g>
</svg>
