<?xml version="1.0" encoding="UTF-8"?>
<svg  xmlns="http://www.w3.org/2000/svg" xmlns:xlink="http://www.w3.org/1999/xlink" xmlns:go="http://purl.org/svgmap/profile" property="N07_001,N07_002,N07_003,N07_004,N07_005,N07_006,N07_007" viewBox="13971.3134765625 -3566.162109375 0.54931640625 0.54931640625" go:dataArea="13971.3134765625 -3566.162109375 0.54931640625 0.54931640625" >
<metadata>
 <rdf:RDF xmlns:rdf="http://www.w3.org/1999/02/22-rdf-syntax-ns#" xmlns:crs="http://opengis.org/xmldtds/transformations.dtd" xmlns:svg="http://www.w3.org/svg" >
  <rdf:Description>
   <crs:CoordinateReferenceSystem rdf:resource="http://purl.org/crs/84" svg:transform="matrix(100.0,0.0,0.0,-100.0,0.0,0.0)" />
  </rdf:Description>
 </rdf:RDF>
</metadata>
<globalCoordinateSystem srsName="http://purl.org/crs/84" transform="matrix(100.0,0.0,0.0,-100.0,0.0,0.0)" />
<defs>
 <g id="p0" >
  <circle cx="0.0" cy="0.0" r="3" stroke="green" stroke-width="0.75" vector-effect="non-scaling-stroke" />
 </g>
</defs>
<g fill="none" fill-rule="evenodd" stroke="#FF00FF" stroke-width="0.75" opacity="0.5" vector-effect="non-scaling-stroke" stroke-linejoin="bevel" >
<path content="1,JRバステック（株）,御殿場プレミアムアウトレット号東京号,0.7,0.0,0.0," xlink:title="1" d="M13971.3135,-3565.8788L13971.3169,-3565.8792L13971.3169,-3565.8792L13971.3343,-3565.8808L13971.3353,-3565.8809L13971.3357,-3565.8809L13971.3363,-3565.881L13971.3375,-3565.8811L13971.3396,-3565.8813L13971.3403,-3565.8814L13971.3409,-3565.8814L13971.3461,-3565.8819L13971.4182,-3565.8886L13971.4696,-3565.8934L13971.4948,-3565.8958L13971.552,-3565.9011L13971.5635,-3565.9022L13971.6535,-3565.9106L13971.7583,-3565.9204L13971.7672,-3565.9212L13971.776,-3565.922L13971.7943,-3565.9235L13971.8117,-3565.925L13971.859,-3565.9291L13971.8628,-3565.9295"/>
<path content="1,JRバス関東（株）,かぐや姫EXPRESS・ヤキソバEXPRESS,3.0,3.0,3.0," xlink:title="1" d="M13971.3135,-3565.8788L13971.3169,-3565.8792L13971.3169,-3565.8792L13971.3343,-3565.8808L13971.3353,-3565.8809L13971.3357,-3565.8809L13971.3363,-3565.881L13971.3375,-3565.8811L13971.3396,-3565.8813L13971.3403,-3565.8814L13971.3409,-3565.8814L13971.3461,-3565.8819L13971.4182,-3565.8886L13971.4696,-3565.8934L13971.4948,-3565.8958L13971.552,-3565.9011L13971.5635,-3565.9022L13971.6535,-3565.9106L13971.7583,-3565.9204L13971.7672,-3565.9212L13971.776,-3565.922L13971.7943,-3565.9235L13971.8117,-3565.925L13971.859,-3565.9291L13971.8628,-3565.9295"/>
<path content="1,JRバス関東（株）,しみずライナー,3.1,4.0,3.5," xlink:title="1" d="M13971.3135,-3565.8788L13971.3169,-3565.8792L13971.3169,-3565.8792L13971.3343,-3565.8808L13971.3353,-3565.8809L13971.3357,-3565.8809L13971.3363,-3565.881L13971.3375,-3565.8811L13971.3396,-3565.8813L13971.3403,-3565.8814L13971.3409,-3565.8814L13971.3461,-3565.8819L13971.4182,-3565.8886L13971.4696,-3565.8934L13971.4948,-3565.8958L13971.552,-3565.9011L13971.5635,-3565.9022L13971.6535,-3565.9106L13971.7583,-3565.9204L13971.7672,-3565.9212L13971.776,-3565.922L13971.7943,-3565.9235L13971.8117,-3565.925L13971.859,-3565.9291L13971.8628,-3565.9295"/>
<path content="1,JRバス関東（株）,ドリーム静岡・浜松号,2.0,2.0,2.0," xlink:title="1" d="M13971.3135,-3565.8788L13971.3169,-3565.8792L13971.3169,-3565.8792L13971.3343,-3565.8808L13971.3353,-3565.8809L13971.3357,-3565.8809L13971.3363,-3565.881L13971.3375,-3565.8811L13971.3396,-3565.8813L13971.3403,-3565.8814L13971.3409,-3565.8814L13971.3461,-3565.8819L13971.4182,-3565.8886L13971.4696,-3565.8934L13971.4948,-3565.8958L13971.552,-3565.9011L13971.5635,-3565.9022L13971.6535,-3565.9106L13971.7583,-3565.9204L13971.7672,-3565.9212L13971.776,-3565.922L13971.7943,-3565.9235L13971.8117,-3565.925L13971.859,-3565.9291L13971.8628,-3565.9295"/>
<path content="1,JRバス関東（株）,東京～山中湖畔・河口湖,4.0,5.0,5.0," xlink:title="1" d="M13971.8628,-3565.9295L13971.859,-3565.9291L13971.8117,-3565.925L13971.7943,-3565.9235L13971.776,-3565.922L13971.7672,-3565.9212L13971.7583,-3565.9204L13971.6535,-3565.9106L13971.5635,-3565.9022L13971.552,-3565.9011L13971.4948,-3565.8958L13971.4696,-3565.8934L13971.4182,-3565.8886L13971.3461,-3565.8819L13971.3409,-3565.8814L13971.3403,-3565.8814L13971.3396,-3565.8813L13971.3375,-3565.8811L13971.3363,-3565.881L13971.3357,-3565.8809L13971.3353,-3565.8809L13971.3343,-3565.8808L13971.3169,-3565.8792L13971.3169,-3565.8792L13971.3135,-3565.8788"/>
<path content="1,JR四国バス（株）,ドリーム高松・松山号　松山・高松⇔東京・東京ディズニーランド,1.0,1.0,1.0," xlink:title="1" d="M13971.8628,-3565.9295L13971.8591,-3565.9292L13971.7583,-3565.9204L13971.3171,-3565.8792L13971.3135,-3565.8789"/>
<path content="1,JR四国バス（株）,ドリーム高知号　高知・徳島⇔東京・新木場,1.0,1.0,1.0," xlink:title="1" d="M13971.8628,-3565.9295L13971.8591,-3565.9292L13971.7583,-3565.9204L13971.3171,-3565.8792L13971.3135,-3565.8789"/>
<path content="1,JR東海バス（株）,ドリームとよた号,1.0,1.0,1.0," xlink:title="1" d="M13971.3135,-3565.8789L13971.3171,-3565.8792L13971.7583,-3565.9204L13971.8591,-3565.9292L13971.8628,-3565.9295"/>
<path content="1,JR東海バス（株）,ドリームなごや号_01_on,3.0,3.0,3.0," xlink:title="1" d="M13971.3135,-3565.8789L13971.3171,-3565.8792L13971.7583,-3565.9204L13971.8591,-3565.9292L13971.8628,-3565.9295"/>
<path content="1,JR東海バス（株）,ドリームなごや号_02_on,3.0,3.0,3.0," xlink:title="1" d="M13971.3135,-3565.8789L13971.3171,-3565.8792L13971.7583,-3565.9204L13971.8591,-3565.9292L13971.8628,-3565.9295"/>
<path content="1,JR東海バス（株）,ドリーム静岡・浜松号_01_on,2.0,2.0,2.0," xlink:title="1" d="M13971.8628,-3565.9295L13971.8591,-3565.9292L13971.7583,-3565.9204L13971.3171,-3565.8792L13971.3135,-3565.8789"/>
<path content="1,JR東海バス（株）,ドリーム静岡・浜松号_02_on,2.0,2.0,2.0," xlink:title="1" d="M13971.8628,-3565.9295L13971.8591,-3565.9292L13971.7583,-3565.9204L13971.3171,-3565.8792L13971.3135,-3565.8789"/>
<path content="1,JR東海バス（株）,レディースドリームなごや号,1.0,1.0,1.0," xlink:title="1" d="M13971.3135,-3565.8789L13971.3171,-3565.8792L13971.7583,-3565.9204L13971.8591,-3565.9292L13971.8628,-3565.9295"/>
<path content="1,JR東海バス（株）,東名ハイウェイバス_01_on,37.0,37.0,37.0," xlink:title="1" d="M13971.3135,-3565.8789L13971.3171,-3565.8792L13971.7583,-3565.9204L13971.8591,-3565.9292L13971.8628,-3565.9295"/>
<path content="1,JR東海バス（株）,東名ハイウェイバス_03_on,37.0,37.0,37.0," xlink:title="1" d="M13971.3135,-3565.8789L13971.3171,-3565.8792L13971.7583,-3565.9204L13971.8591,-3565.9292L13971.8628,-3565.9295"/>
<path content="1,JR東海バス（株）,青春ドリームなごや号,1.0,1.0,1.0," xlink:title="1" d="M13971.3135,-3565.8789L13971.3171,-3565.8792L13971.7583,-3565.9204L13971.8591,-3565.9292L13971.8628,-3565.9295"/>
<path content="1,しずてつジャストライン（株）,東京清水線,5.0,5.0,5.0," xlink:title="1" d="M13971.3135,-3565.8789L13971.3171,-3565.8792L13971.7583,-3565.9204L13971.8591,-3565.9292L13971.8628,-3565.9295"/>
<path content="1,しずてつジャストライン（株）,静岡成田空港線,1.0,1.0,1.0," xlink:title="1" d="M13971.3135,-3565.8789L13971.3171,-3565.8792L13971.7583,-3565.9204L13971.8591,-3565.9292L13971.8628,-3565.9295"/>
<path content="1,一畑バス（株）,東京～松江・出雲線,1.0,1.0,1.0," xlink:title="1" d="M13971.3135,-3565.8789L13971.3171,-3565.8792L13971.7583,-3565.9204L13971.8591,-3565.9292L13971.8628,-3565.9295"/>
<path content="1,両備ホールディングス（株）,ままかりライナー　倉敷・岡山～東京駅八重洲通り線,1.0,1.0,1.0," xlink:title="1" d="M13971.3135,-3565.8789L13971.3171,-3565.8792L13971.7583,-3565.9204L13971.8591,-3565.9292L13971.8628,-3565.9295"/>
<path content="1,両備ホールディングス（株）,ルブラン　倉敷・岡山・津山～東京線,1.0,1.0,1.0," xlink:title="1" d="M13971.3135,-3565.8789L13971.3171,-3565.8792L13971.7583,-3565.9204L13971.8591,-3565.9292L13971.8628,-3565.9295"/>
<path content="1,中国JRバス（株）,広島～東京　ニューブリーズ号,2.0,2.0,2.0," xlink:title="1" d="M13971.3135,-3565.8789L13971.3171,-3565.8792L13971.7583,-3565.9204L13971.8591,-3565.9292L13971.8628,-3565.9295"/>
<path content="1,京成バス（株）,成田空港～さいたま新都心・大宮駅,3.5,3.5,3.5," xlink:title="1" d="M13971.8628,-3565.9295L13971.859,-3565.9291L13971.8117,-3565.925L13971.7943,-3565.9235L13971.776,-3565.922L13971.7672,-3565.9212L13971.7583,-3565.9204L13971.6535,-3565.9106L13971.5635,-3565.9022L13971.552,-3565.9011L13971.4948,-3565.8958L13971.4696,-3565.8934L13971.4182,-3565.8886L13971.3461,-3565.8819L13971.3409,-3565.8814L13971.3403,-3565.8814L13971.3396,-3565.8813L13971.3375,-3565.8811L13971.3363,-3565.881L13971.3357,-3565.8809L13971.3353,-3565.8809L13971.3343,-3565.8808L13971.3169,-3565.8792L13971.3169,-3565.8792L13971.3135,-3565.8788"/>
<path content="1,京成バス（株）,成田空港～たまプラーザ駅・新百合ヶ丘駅,8.0,8.0,8.0," xlink:title="1" d="M13971.3135,-3565.8788L13971.3169,-3565.8792L13971.3169,-3565.8792L13971.3343,-3565.8808L13971.3353,-3565.8809L13971.3357,-3565.8809L13971.3363,-3565.881L13971.3375,-3565.8811L13971.3396,-3565.8813L13971.3403,-3565.8814L13971.3409,-3565.8814L13971.3461,-3565.8819L13971.4182,-3565.8886L13971.4696,-3565.8934L13971.4948,-3565.8958L13971.552,-3565.9011L13971.5635,-3565.9022L13971.6535,-3565.9106L13971.7583,-3565.9204L13971.7672,-3565.9212L13971.776,-3565.922L13971.7943,-3565.9235L13971.8117,-3565.925L13971.859,-3565.9291L13971.8628,-3565.9295"/>
<path content="1,京成バス（株）,成田空港～中山駅・センター南駅,4.0,4.0,4.0," xlink:title="1" d="M13971.3135,-3565.8788L13971.3169,-3565.8792L13971.3169,-3565.8792L13971.3343,-3565.8808L13971.3353,-3565.8809L13971.3357,-3565.8809L13971.3363,-3565.881L13971.3375,-3565.8811L13971.3396,-3565.8813L13971.3403,-3565.8814L13971.3409,-3565.8814L13971.3461,-3565.8819L13971.4182,-3565.8886L13971.4696,-3565.8934L13971.4948,-3565.8958L13971.552,-3565.9011L13971.5635,-3565.9022L13971.6535,-3565.9106L13971.7583,-3565.9204L13971.7672,-3565.9212L13971.776,-3565.922L13971.7943,-3565.9235L13971.8117,-3565.925L13971.859,-3565.9291L13971.8628,-3565.9295"/>
<path content="1,京成バス（株）,成田空港～吉祥寺駅,4.0,4.0,4.0," xlink:title="1" d="M13971.8628,-3565.9295L13971.859,-3565.9291L13971.8117,-3565.925L13971.7943,-3565.9235L13971.776,-3565.922L13971.7672,-3565.9212L13971.7583,-3565.9204L13971.6535,-3565.9106L13971.5635,-3565.9022L13971.552,-3565.9011L13971.4948,-3565.8958L13971.4696,-3565.8934L13971.4182,-3565.8886L13971.3461,-3565.8819L13971.3409,-3565.8814L13971.3403,-3565.8814L13971.3396,-3565.8813L13971.3375,-3565.8811L13971.3363,-3565.881L13971.3357,-3565.8809L13971.3353,-3565.8809L13971.3343,-3565.8808L13971.3169,-3565.8792L13971.3169,-3565.8792L13971.3135,-3565.8788"/>
<path content="1,京成バス（株）,成田空港～和光市駅・大泉学園駅,2.5,2.5,2.5," xlink:title="1" d="M13971.3135,-3565.8788L13971.3169,-3565.8792L13971.3169,-3565.8792L13971.3343,-3565.8808L13971.3353,-3565.8809L13971.3357,-3565.8809L13971.3363,-3565.881L13971.3375,-3565.8811L13971.3396,-3565.8813L13971.3403,-3565.8814L13971.3409,-3565.8814L13971.3461,-3565.8819L13971.4182,-3565.8886L13971.4696,-3565.8934L13971.4948,-3565.8958L13971.552,-3565.9011L13971.5635,-3565.9022L13971.6535,-3565.9106L13971.7583,-3565.9204L13971.7672,-3565.9212L13971.776,-3565.922L13971.7943,-3565.9235L13971.8117,-3565.925L13971.859,-3565.9291L13971.8628,-3565.9295"/>
<path content="1,京成バス（株）,成田空港～新富士駅・沼津駅,2.0,2.0,2.0," xlink:title="1" d="M13971.3135,-3565.8788L13971.3169,-3565.8792L13971.3169,-3565.8792L13971.3343,-3565.8808L13971.3353,-3565.8809L13971.3357,-3565.8809L13971.3363,-3565.881L13971.3375,-3565.8811L13971.3396,-3565.8813L13971.3403,-3565.8814L13971.3409,-3565.8814L13971.3461,-3565.8819L13971.4182,-3565.8886L13971.4696,-3565.8934L13971.4948,-3565.8958L13971.552,-3565.9011L13971.5635,-3565.9022L13971.6535,-3565.9106L13971.7583,-3565.9204L13971.7672,-3565.9212L13971.776,-3565.922L13971.7943,-3565.9235L13971.8117,-3565.925L13971.859,-3565.9291L13971.8628,-3565.9295"/>
<path content="1,京成バス（株）,成田空港～本厚木駅・平塚（田村車庫）,3.5,3.5,3.5," xlink:title="1" d="M13971.3135,-3565.8788L13971.3169,-3565.8792L13971.3169,-3565.8792L13971.3343,-3565.8808L13971.3353,-3565.8809L13971.3357,-3565.8809L13971.3363,-3565.881L13971.3375,-3565.8811L13971.3396,-3565.8813L13971.3403,-3565.8814L13971.3409,-3565.8814L13971.3461,-3565.8819L13971.4182,-3565.8886L13971.4696,-3565.8934L13971.4948,-3565.8958L13971.552,-3565.9011L13971.5635,-3565.9022L13971.6535,-3565.9106L13971.7583,-3565.9204L13971.7672,-3565.9212L13971.776,-3565.922L13971.7943,-3565.9235L13971.8117,-3565.925L13971.859,-3565.9291L13971.8628,-3565.9295"/>
<path content="1,京成バス（株）,成田空港～東所沢駅・所沢駅,4.0,4.0,4.0," xlink:title="1" d="M13971.8628,-3565.9295L13971.859,-3565.9291L13971.8117,-3565.925L13971.7943,-3565.9235L13971.776,-3565.922L13971.7672,-3565.9212L13971.7583,-3565.9204L13971.6535,-3565.9106L13971.5635,-3565.9022L13971.552,-3565.9011L13971.4948,-3565.8958L13971.4696,-3565.8934L13971.4182,-3565.8886L13971.3461,-3565.8819L13971.3409,-3565.8814L13971.3403,-3565.8814L13971.3396,-3565.8813L13971.3375,-3565.8811L13971.3363,-3565.881L13971.3357,-3565.8809L13971.3353,-3565.8809L13971.3343,-3565.8808L13971.3169,-3565.8792L13971.3169,-3565.8792L13971.3135,-3565.8788"/>
<path content="1,京成バス（株）,成田空港～相模大野駅・町田駅・橋本駅,8.0,8.0,8.0," xlink:title="1" d="M13971.3135,-3565.8788L13971.3169,-3565.8792L13971.3169,-3565.8792L13971.3343,-3565.8808L13971.3353,-3565.8809L13971.3357,-3565.8809L13971.3363,-3565.881L13971.3375,-3565.8811L13971.3396,-3565.8813L13971.3403,-3565.8814L13971.3409,-3565.8814L13971.3461,-3565.8819L13971.4182,-3565.8886L13971.4696,-3565.8934L13971.4948,-3565.8958L13971.552,-3565.9011L13971.5635,-3565.9022L13971.6535,-3565.9106L13971.7583,-3565.9204L13971.7672,-3565.9212L13971.776,-3565.922L13971.7943,-3565.9235L13971.8117,-3565.925L13971.859,-3565.9291L13971.8628,-3565.9295"/>
<path content="1,京成バス（株）,東京ディズニーリゾート～たまプラーザ駅,5.0,5.0,5.0," xlink:title="1" d="M13971.3135,-3565.8788L13971.3169,-3565.8792L13971.3169,-3565.8792L13971.3343,-3565.8808L13971.3353,-3565.8809L13971.3357,-3565.8809L13971.3363,-3565.881L13971.3375,-3565.8811L13971.3396,-3565.8813L13971.3403,-3565.8814L13971.3409,-3565.8814L13971.3461,-3565.8819L13971.4182,-3565.8886L13971.4696,-3565.8934L13971.4948,-3565.8958L13971.552,-3565.9011L13971.5635,-3565.9022L13971.6535,-3565.9106L13971.7583,-3565.9204L13971.7672,-3565.9212L13971.776,-3565.922L13971.7943,-3565.9235L13971.8117,-3565.925L13971.859,-3565.9291L13971.8628,-3565.9295"/>
<path content="1,京成バス（株）,津田沼・西船橋・新浦安～富士急ハイランド・河口湖線,0.4,0.4,0.4," xlink:title="1" d="M13971.8628,-3565.9295L13971.859,-3565.9291L13971.8117,-3565.925L13971.7943,-3565.9235L13971.776,-3565.922L13971.7672,-3565.9212L13971.7583,-3565.9204L13971.6535,-3565.9106L13971.5635,-3565.9022L13971.552,-3565.9011L13971.4948,-3565.8958L13971.4696,-3565.8934L13971.4182,-3565.8886L13971.3461,-3565.8819L13971.3409,-3565.8814L13971.3403,-3565.8814L13971.3396,-3565.8813L13971.3375,-3565.8811L13971.3363,-3565.881L13971.3357,-3565.8809L13971.3353,-3565.8809L13971.3343,-3565.8808L13971.3169,-3565.8792L13971.3169,-3565.8792L13971.3135,-3565.8788"/>
<path content="1,京浜急行バス（株）,さいたま新都心駅・大宮～羽田空港線,5.0,5.0,5.0," xlink:title="1" d="M13971.8628,-3565.9295L13971.859,-3565.9291L13971.8117,-3565.925L13971.7943,-3565.9235L13971.776,-3565.922L13971.7672,-3565.9212L13971.7583,-3565.9204L13971.6535,-3565.9106L13971.5635,-3565.9022L13971.552,-3565.9011L13971.4948,-3565.8958L13971.4696,-3565.8934L13971.4182,-3565.8886L13971.3461,-3565.8819L13971.3409,-3565.8814L13971.3403,-3565.8814L13971.3396,-3565.8813L13971.3375,-3565.8811L13971.3363,-3565.881L13971.3357,-3565.8809L13971.3353,-3565.8809L13971.3343,-3565.8808L13971.3169,-3565.8792L13971.3169,-3565.8792L13971.3169,-3565.8792L13971.3169,-3565.8792L13971.3135,-3565.8788"/>
<path content="1,京浜急行バス（株）,たまプラーザ駅～羽田空港線,17.5,17.5,17.5," xlink:title="1" d="M13971.8628,-3565.9295L13971.859,-3565.9291L13971.8117,-3565.925L13971.7943,-3565.9235L13971.776,-3565.922L13971.7672,-3565.9212L13971.7583,-3565.9204L13971.6535,-3565.9106L13971.5635,-3565.9022L13971.552,-3565.9011L13971.4948,-3565.8958L13971.4696,-3565.8934L13971.4182,-3565.8886L13971.3461,-3565.8819L13971.3409,-3565.8814L13971.3403,-3565.8814L13971.3396,-3565.8813L13971.3375,-3565.8811L13971.3363,-3565.881L13971.3357,-3565.8809L13971.3353,-3565.8809L13971.3343,-3565.8808L13971.3169,-3565.8792L13971.3169,-3565.8792L13971.3169,-3565.8792L13971.3169,-3565.8792L13971.3135,-3565.8788"/>
<path content="1,京浜急行バス（株）,エディ号,2.0,2.0,2.0," xlink:title="1" d="M13971.8628,-3565.9295L13971.859,-3565.9291L13971.8117,-3565.925L13971.7943,-3565.9235L13971.776,-3565.922L13971.7672,-3565.9212L13971.7583,-3565.9204L13971.6535,-3565.9106L13971.5635,-3565.9022L13971.552,-3565.9011L13971.4948,-3565.8958L13971.4696,-3565.8934L13971.4182,-3565.8886L13971.3461,-3565.8819L13971.3409,-3565.8814L13971.3403,-3565.8814L13971.3396,-3565.8813L13971.3375,-3565.8811L13971.3363,-3565.881L13971.3357,-3565.8809L13971.3353,-3565.8809L13971.3343,-3565.8808L13971.3169,-3565.8792L13971.3169,-3565.8792L13971.3169,-3565.8792L13971.3169,-3565.8792L13971.3135,-3565.8788"/>
<path content="1,京浜急行バス（株）,キャメル号,1.0,1.0,1.0," xlink:title="1" d="M13971.8628,-3565.9295L13971.859,-3565.9291L13971.8117,-3565.925L13971.7943,-3565.9235L13971.776,-3565.922L13971.7672,-3565.9212L13971.7583,-3565.9204L13971.6535,-3565.9106L13971.5635,-3565.9022L13971.552,-3565.9011L13971.4948,-3565.8958L13971.4696,-3565.8934L13971.4182,-3565.8886L13971.3461,-3565.8819L13971.3409,-3565.8814L13971.3403,-3565.8814L13971.3396,-3565.8813L13971.3375,-3565.8811L13971.3363,-3565.881L13971.3357,-3565.8809L13971.3353,-3565.8809L13971.3343,-3565.8808L13971.3169,-3565.8792L13971.3169,-3565.8792L13971.3169,-3565.8792L13971.3169,-3565.8792L13971.3135,-3565.8788"/>
<path content="1,京浜急行バス（株）,シルフィード号,1.0,1.0,1.0," xlink:title="1" d="M13971.3135,-3565.8788L13971.3169,-3565.8792L13971.3169,-3565.8792L13971.3169,-3565.8792L13971.3169,-3565.8792L13971.3343,-3565.8808L13971.3353,-3565.8809L13971.3357,-3565.8809L13971.3363,-3565.881L13971.3375,-3565.8811L13971.3396,-3565.8813L13971.3403,-3565.8814L13971.3409,-3565.8814L13971.3461,-3565.8819L13971.4182,-3565.8886L13971.4696,-3565.8934L13971.4948,-3565.8958L13971.552,-3565.9011L13971.5635,-3565.9022L13971.6535,-3565.9106L13971.7583,-3565.9204L13971.7672,-3565.9212L13971.776,-3565.922L13971.7943,-3565.9235L13971.8117,-3565.925L13971.859,-3565.9291L13971.8628,-3565.9295"/>
<path content="1,京浜急行バス（株）,センター北駅・センター南駅～羽田空港線,8.5,8.5,8.5," xlink:title="1" d="M13971.8628,-3565.9295L13971.859,-3565.9291L13971.8117,-3565.925L13971.7943,-3565.9235L13971.776,-3565.922L13971.7672,-3565.9212L13971.7583,-3565.9204L13971.6535,-3565.9106L13971.5635,-3565.9022L13971.552,-3565.9011L13971.4948,-3565.8958L13971.4696,-3565.8934L13971.4182,-3565.8886L13971.3461,-3565.8819L13971.3409,-3565.8814L13971.3403,-3565.8814L13971.3396,-3565.8813L13971.3375,-3565.8811L13971.3363,-3565.881L13971.3357,-3565.8809L13971.3353,-3565.8809L13971.3343,-3565.8808L13971.3169,-3565.8792L13971.3169,-3565.8792L13971.3169,-3565.8792L13971.3169,-3565.8792L13971.3135,-3565.8788"/>
<path content="1,京浜急行バス（株）,パイレーツ号,1.0,1.0,1.0," xlink:title="1" d="M13971.8628,-3565.9295L13971.859,-3565.9291L13971.8117,-3565.925L13971.7943,-3565.9235L13971.776,-3565.922L13971.7672,-3565.9212L13971.7583,-3565.9204L13971.6535,-3565.9106L13971.5635,-3565.9022L13971.552,-3565.9011L13971.4948,-3565.8958L13971.4696,-3565.8934L13971.4182,-3565.8886L13971.3461,-3565.8819L13971.3409,-3565.8814L13971.3403,-3565.8814L13971.3396,-3565.8813L13971.3375,-3565.8811L13971.3363,-3565.881L13971.3357,-3565.8809L13971.3353,-3565.8809L13971.3343,-3565.8808L13971.3169,-3565.8792L13971.3169,-3565.8792L13971.3169,-3565.8792L13971.3169,-3565.8792L13971.3135,-3565.8788"/>
<path content="1,京浜急行バス（株）,ルプラン号,1.0,1.0,1.0," xlink:title="1" d="M13971.3135,-3565.8788L13971.3169,-3565.8792L13971.3169,-3565.8792L13971.3169,-3565.8792L13971.3169,-3565.8792L13971.3343,-3565.8808L13971.3353,-3565.8809L13971.3357,-3565.8809L13971.3363,-3565.881L13971.3375,-3565.8811L13971.3396,-3565.8813L13971.3403,-3565.8814L13971.3409,-3565.8814L13971.3461,-3565.8819L13971.4182,-3565.8886L13971.4696,-3565.8934L13971.4948,-3565.8958L13971.552,-3565.9011L13971.5635,-3565.9022L13971.6535,-3565.9106L13971.7583,-3565.9204L13971.7672,-3565.9212L13971.776,-3565.922L13971.7943,-3565.9235L13971.8117,-3565.925L13971.859,-3565.9291L13971.8628,-3565.9295"/>
<path content="1,京浜急行バス（株）,二子玉川駅～羽田空港線,8.5,8.5,8.5," xlink:title="1" d="M13971.8628,-3565.9295L13971.859,-3565.9291L13971.8117,-3565.925L13971.7943,-3565.9235L13971.776,-3565.922L13971.7672,-3565.9212L13971.7583,-3565.9204L13971.6535,-3565.9106L13971.5635,-3565.9022L13971.552,-3565.9011L13971.4948,-3565.8958L13971.4696,-3565.8934L13971.4182,-3565.8886L13971.3461,-3565.8819L13971.3409,-3565.8814L13971.3403,-3565.8814L13971.3396,-3565.8813L13971.3375,-3565.8811L13971.3363,-3565.881L13971.3357,-3565.8809L13971.3353,-3565.8809L13971.3343,-3565.8808L13971.3169,-3565.8792L13971.3169,-3565.8792L13971.3169,-3565.8792L13971.3169,-3565.8792L13971.3135,-3565.8788"/>
<path content="1,京浜急行バス（株）,新百合ヶ丘駅～羽田空港線,8.5,8.5,8.5," xlink:title="1" d="M13971.8628,-3565.9295L13971.859,-3565.9291L13971.8117,-3565.925L13971.7943,-3565.9235L13971.776,-3565.922L13971.7672,-3565.9212L13971.7583,-3565.9204L13971.6535,-3565.9106L13971.5635,-3565.9022L13971.552,-3565.9011L13971.4948,-3565.8958L13971.4696,-3565.8934L13971.4182,-3565.8886L13971.3461,-3565.8819L13971.3409,-3565.8814L13971.3403,-3565.8814L13971.3396,-3565.8813L13971.3375,-3565.8811L13971.3363,-3565.881L13971.3357,-3565.8809L13971.3353,-3565.8809L13971.3343,-3565.8808L13971.3169,-3565.8792L13971.3169,-3565.8792L13971.3169,-3565.8792L13971.3169,-3565.8792L13971.3135,-3565.8788"/>
<path content="1,京浜急行バス（株）,本厚木駅・田村車庫～羽田空港線,6.5,6.5,6.5," xlink:title="1" d="M13971.8628,-3565.9295L13971.859,-3565.9291L13971.8117,-3565.925L13971.7943,-3565.9235L13971.776,-3565.922L13971.7672,-3565.9212L13971.7583,-3565.9204L13971.6535,-3565.9106L13971.5635,-3565.9022L13971.552,-3565.9011L13971.4948,-3565.8958L13971.4696,-3565.8934L13971.4182,-3565.8886L13971.3461,-3565.8819L13971.3409,-3565.8814L13971.3403,-3565.8814L13971.3396,-3565.8813L13971.3375,-3565.8811L13971.3363,-3565.881L13971.3357,-3565.8809L13971.3353,-3565.8809L13971.3343,-3565.8808L13971.3169,-3565.8792L13971.3169,-3565.8792L13971.3169,-3565.8792L13971.3169,-3565.8792L13971.3135,-3565.8788"/>
<path content="1,京浜急行バス（株）,渋谷～羽田空港線,5.0,5.0,5.0," xlink:title="1" d="M13971.8628,-3565.9295L13971.859,-3565.9291L13971.8117,-3565.925L13971.7943,-3565.9235L13971.776,-3565.922L13971.7672,-3565.9212L13971.7583,-3565.9204L13971.6535,-3565.9106L13971.5635,-3565.9022L13971.552,-3565.9011L13971.4948,-3565.8958L13971.4696,-3565.8934L13971.4182,-3565.8886L13971.3461,-3565.8819L13971.3409,-3565.8814L13971.3403,-3565.8814L13971.3396,-3565.8813L13971.3375,-3565.8811L13971.3363,-3565.881L13971.3357,-3565.8809L13971.3353,-3565.8809L13971.3343,-3565.8808L13971.3169,-3565.8792L13971.3169,-3565.8792L13971.3169,-3565.8792L13971.3169,-3565.8792L13971.3135,-3565.8788"/>
<path content="1,京浜急行バス（株）,甲府駅・竜王～羽田空港線,2.0,2.0,2.0," xlink:title="1" d="M13971.8628,-3565.9295L13971.859,-3565.9291L13971.8117,-3565.925L13971.7943,-3565.9235L13971.776,-3565.922L13971.7672,-3565.9212L13971.7583,-3565.9204L13971.6535,-3565.9106L13971.5635,-3565.9022L13971.552,-3565.9011L13971.4948,-3565.8958L13971.4696,-3565.8934L13971.4182,-3565.8886L13971.3461,-3565.8819L13971.3409,-3565.8814L13971.3403,-3565.8814L13971.3396,-3565.8813L13971.3375,-3565.8811L13971.3363,-3565.881L13971.3357,-3565.8809L13971.3353,-3565.8809L13971.3343,-3565.8808L13971.3169,-3565.8792L13971.3169,-3565.8792L13971.3169,-3565.8792L13971.3169,-3565.8792L13971.3135,-3565.8788"/>
<path content="1,京浜急行バス（株）,立川・拝島～羽田空港線,10.0,10.0,10.0," xlink:title="1" d="M13971.8628,-3565.9295L13971.859,-3565.9291L13971.8117,-3565.925L13971.7943,-3565.9235L13971.776,-3565.922L13971.7672,-3565.9212L13971.7583,-3565.9204L13971.6535,-3565.9106L13971.5635,-3565.9022L13971.552,-3565.9011L13971.4948,-3565.8958L13971.4696,-3565.8934L13971.4182,-3565.8886L13971.3461,-3565.8819L13971.3409,-3565.8814L13971.3403,-3565.8814L13971.3396,-3565.8813L13971.3375,-3565.8811L13971.3363,-3565.881L13971.3357,-3565.8809L13971.3353,-3565.8809L13971.3343,-3565.8808L13971.3169,-3565.8792L13971.3169,-3565.8792L13971.3169,-3565.8792L13971.3135,-3565.8788"/>
<path content="1,京浜急行バス（株）,羽田空港～町田バスセンター・相模大野駅線,13.0,13.0,13.0," xlink:title="1" d="M13971.8628,-3565.9295L13971.859,-3565.9291L13971.8117,-3565.925L13971.7943,-3565.9235L13971.776,-3565.922L13971.7672,-3565.9212L13971.7583,-3565.9204L13971.6535,-3565.9106L13971.5635,-3565.9022L13971.552,-3565.9011L13971.4948,-3565.8958L13971.4696,-3565.8934L13971.4182,-3565.8886L13971.3461,-3565.8819L13971.3409,-3565.8814L13971.3403,-3565.8814L13971.3396,-3565.8813L13971.3375,-3565.8811L13971.3363,-3565.881L13971.3357,-3565.8809L13971.3353,-3565.8809L13971.3343,-3565.8808L13971.3169,-3565.8792L13971.3169,-3565.8792L13971.3169,-3565.8792L13971.3169,-3565.8792L13971.3135,-3565.8788"/>
<path content="1,京王バス南（株）,羽田空港～南大沢線,10.0,10.0,10.0," xlink:title="1" d="M13971.8628,-3565.9295L13971.859,-3565.9291L13971.8117,-3565.925L13971.7943,-3565.9235L13971.776,-3565.922L13971.7672,-3565.9212L13971.7583,-3565.9204L13971.6535,-3565.9106L13971.5635,-3565.9022L13971.552,-3565.9011L13971.4948,-3565.8958L13971.4696,-3565.8934L13971.4182,-3565.8886L13971.3461,-3565.8819L13971.3409,-3565.8814L13971.3403,-3565.8814L13971.3396,-3565.8813L13971.3375,-3565.8811L13971.3363,-3565.881L13971.3357,-3565.8809L13971.3353,-3565.8809L13971.3343,-3565.8808L13971.3169,-3565.8792L13971.3169,-3565.8792L13971.3169,-3565.8792L13971.3135,-3565.8788"/>
<path content="1,京王バス南（株）,羽田空港～国分寺駅南口線,12.0,12.0,12.0," xlink:title="1" d="M13971.8628,-3565.9295L13971.859,-3565.9291L13971.8117,-3565.925L13971.7943,-3565.9235L13971.776,-3565.922L13971.7672,-3565.9212L13971.7583,-3565.9204L13971.6535,-3565.9106L13971.5635,-3565.9022L13971.552,-3565.9011L13971.4948,-3565.8958L13971.4696,-3565.8934L13971.4182,-3565.8886L13971.3461,-3565.8819L13971.3409,-3565.8814L13971.3403,-3565.8814L13971.3396,-3565.8813L13971.3375,-3565.8811L13971.3363,-3565.881L13971.3357,-3565.8809L13971.3353,-3565.8809L13971.3343,-3565.8808L13971.3169,-3565.8792L13971.3169,-3565.8792L13971.3169,-3565.8792L13971.3135,-3565.8788"/>
<path content="1,京王バス南（株）,羽田空港～高尾駅南口線,3.0,3.0,3.0," xlink:title="1" d="M13971.8628,-3565.9295L13971.859,-3565.9291L13971.8117,-3565.925L13971.7943,-3565.9235L13971.776,-3565.922L13971.7672,-3565.9212L13971.7583,-3565.9204L13971.6535,-3565.9106L13971.5635,-3565.9022L13971.552,-3565.9011L13971.4948,-3565.8958L13971.4696,-3565.8934L13971.4182,-3565.8886L13971.3461,-3565.8819L13971.3409,-3565.8814L13971.3403,-3565.8814L13971.3396,-3565.8813L13971.3375,-3565.8811L13971.3363,-3565.881L13971.3357,-3565.8809L13971.3353,-3565.8809L13971.3343,-3565.8808L13971.3169,-3565.8792L13971.3169,-3565.8792L13971.3169,-3565.8792L13971.3135,-3565.8788"/>
<path content="1,京都交通（株）,舞鶴・綾部・福知山～東京,1.0,1.0,1.0," xlink:title="1" d="M13971.3135,-3565.8789L13971.3171,-3565.8792L13971.7583,-3565.9204L13971.8591,-3565.9292L13971.8628,-3565.9295"/>
<path content="1,京阪バス（株）,京都・大津⇔上野・TDR・千葉,1.0,1.0,1.0," xlink:title="1" d="M13971.3135,-3565.8789L13971.3171,-3565.8792L13971.7583,-3565.9204L13971.8591,-3565.9292L13971.8628,-3565.9295"/>
<path content="1,千葉中央バス,京都～上野・東京ディズニーリゾート,1.0,1.0,1.0," xlink:title="1" d="M13971.8628,-3565.9295L13971.859,-3565.9291L13971.8117,-3565.925L13971.7943,-3565.9235L13971.776,-3565.922L13971.7672,-3565.9212L13971.7583,-3565.9204L13971.6535,-3565.9106L13971.5635,-3565.9022L13971.552,-3565.9011L13971.4948,-3565.8958L13971.4696,-3565.8934L13971.4182,-3565.8886L13971.3461,-3565.8819L13971.3409,-3565.8814L13971.3403,-3565.8814L13971.3396,-3565.8813L13971.3375,-3565.8811L13971.3363,-3565.881L13971.3357,-3565.8809L13971.3353,-3565.8809L13971.3343,-3565.8808L13971.3169,-3565.8792L13971.3169,-3565.8792L13971.3135,-3565.8788"/>
<path content="1,千葉交通,大阪なんば・京都駅～成田・銚子線,1.0,1.0,1.0," xlink:title="1" d="M13971.3135,-3565.8788L13971.3169,-3565.8792L13971.3169,-3565.8792L13971.3343,-3565.8808L13971.3353,-3565.8809L13971.3357,-3565.8809L13971.3363,-3565.881L13971.3375,-3565.8811L13971.3396,-3565.8813L13971.3403,-3565.8814L13971.3409,-3565.8814L13971.3461,-3565.8819L13971.4182,-3565.8886L13971.4696,-3565.8934L13971.4948,-3565.8958L13971.552,-3565.9011L13971.5635,-3565.9022L13971.6535,-3565.9106L13971.7583,-3565.9204L13971.7672,-3565.9212L13971.776,-3565.922L13971.7943,-3565.9235L13971.8117,-3565.925L13971.859,-3565.9291L13971.8628,-3565.9295"/>
<path content="1,南海バス（株）,大阪（なんば）・京都⇔秋葉原・成田空港・銚子,1.0,1.0,1.0," xlink:title="1" d="M13971.3135,-3565.8789L13971.3171,-3565.8792L13971.7583,-3565.9204L13971.8591,-3565.9292L13971.8628,-3565.9295"/>
<path content="1,富士急シティバス（株）,さんさんぬまづ・東京号,3.0,3.0,3.0," xlink:title="1" d="M13971.3135,-3565.8789L13971.3171,-3565.8792L13971.7583,-3565.9204L13971.8591,-3565.9292L13971.8628,-3565.9295"/>
<path content="1,富士急湘南バス（株）,小田原～成田空港線,3.0,3.0,3.0," xlink:title="1" d="M13971.3135,-3565.8788L13971.3169,-3565.8792L13971.3169,-3565.8792L13971.3169,-3565.8792L13971.3343,-3565.8808L13971.3353,-3565.8809L13971.3357,-3565.8809L13971.3363,-3565.881L13971.3375,-3565.8811L13971.3396,-3565.8813L13971.3403,-3565.8814L13971.3409,-3565.8814L13971.3461,-3565.8819L13971.4182,-3565.8886L13971.4696,-3565.8934L13971.4948,-3565.8958L13971.552,-3565.9011L13971.5635,-3565.9022L13971.6535,-3565.9106L13971.7583,-3565.9204L13971.7672,-3565.9212L13971.776,-3565.922L13971.7943,-3565.9235L13971.8117,-3565.925L13971.859,-3565.9291L13971.8628,-3565.9295"/>
<path content="1,富士急行（株）,かぐや姫EXPRESS,3.0,3.0,3.0," xlink:title="1" d="M13971.3135,-3565.8788L13971.3169,-3565.8792L13971.3169,-3565.8792L13971.3169,-3565.8792L13971.3343,-3565.8808L13971.3353,-3565.8809L13971.3357,-3565.8809L13971.3363,-3565.881L13971.3375,-3565.8811L13971.3396,-3565.8813L13971.3403,-3565.8814L13971.3409,-3565.8814L13971.3461,-3565.8819L13971.4182,-3565.8886L13971.4696,-3565.8934L13971.4948,-3565.8958L13971.552,-3565.9011L13971.5635,-3565.9022L13971.6535,-3565.9106L13971.7583,-3565.9204L13971.7672,-3565.9212L13971.776,-3565.922L13971.7943,-3565.9235L13971.8117,-3565.925L13971.859,-3565.9291L13971.8628,-3565.9295"/>
<path content="1,富士急行（株）,ヤキソバEXPRESS,5.5,6.0,6.0," xlink:title="1" d="M13971.3135,-3565.8788L13971.3169,-3565.8792L13971.3169,-3565.8792L13971.3169,-3565.8792L13971.3343,-3565.8808L13971.3353,-3565.8809L13971.3357,-3565.8809L13971.3363,-3565.881L13971.3375,-3565.8811L13971.3396,-3565.8813L13971.3403,-3565.8814L13971.3409,-3565.8814L13971.3461,-3565.8819L13971.4182,-3565.8886L13971.4696,-3565.8934L13971.4948,-3565.8958L13971.552,-3565.9011L13971.5635,-3565.9022L13971.6535,-3565.9106L13971.7583,-3565.9204L13971.7672,-3565.9212L13971.776,-3565.922L13971.7943,-3565.9235L13971.8117,-3565.925L13971.859,-3565.9291L13971.8628,-3565.9295"/>
<path content="1,富士急行（株）,小田原～成田空港線,3.0,3.0,3.0," xlink:title="1" d="M13971.3135,-3565.8788L13971.3169,-3565.8792L13971.3169,-3565.8792L13971.3169,-3565.8792L13971.3343,-3565.8808L13971.3353,-3565.8809L13971.3357,-3565.8809L13971.3363,-3565.881L13971.3375,-3565.8811L13971.3396,-3565.8813L13971.3403,-3565.8814L13971.3409,-3565.8814L13971.3461,-3565.8819L13971.4182,-3565.8886L13971.4696,-3565.8934L13971.4948,-3565.8958L13971.552,-3565.9011L13971.5635,-3565.9022L13971.6535,-3565.9106L13971.7583,-3565.9204L13971.7672,-3565.9212L13971.776,-3565.922L13971.7943,-3565.9235L13971.8117,-3565.925L13971.859,-3565.9291L13971.8628,-3565.9295"/>
<path content="1,富士急行（株）,新富士・沼津・御殿場～成田空港線,2.0,2.0,2.0," xlink:title="1" d="M13971.3135,-3565.8788L13971.3169,-3565.8792L13971.3169,-3565.8792L13971.3169,-3565.8792L13971.3343,-3565.8808L13971.3353,-3565.8809L13971.3357,-3565.8809L13971.3363,-3565.881L13971.3375,-3565.8811L13971.3396,-3565.8813L13971.3403,-3565.8814L13971.3409,-3565.8814L13971.3461,-3565.8819L13971.4182,-3565.8886L13971.4696,-3565.8934L13971.4948,-3565.8958L13971.552,-3565.9011L13971.5635,-3565.9022L13971.6535,-3565.9106L13971.7583,-3565.9204L13971.7672,-3565.9212L13971.776,-3565.922L13971.7943,-3565.9235L13971.8117,-3565.925L13971.859,-3565.9291L13971.8628,-3565.9295"/>
<path content="1,富士急行（株）,早朝線東京ライナー,0.0,0.0,0.0," xlink:title="1" d="M13971.3135,-3565.8788L13971.3169,-3565.8792L13971.3169,-3565.8792L13971.3169,-3565.8792L13971.3343,-3565.8808L13971.3353,-3565.8809L13971.3357,-3565.8809L13971.3363,-3565.881L13971.3375,-3565.8811L13971.3396,-3565.8813L13971.3403,-3565.8814L13971.3409,-3565.8814L13971.3461,-3565.8819L13971.4182,-3565.8886L13971.4696,-3565.8934L13971.4948,-3565.8958L13971.552,-3565.9011L13971.5635,-3565.9022L13971.6535,-3565.9106L13971.7583,-3565.9204L13971.7672,-3565.9212L13971.776,-3565.922L13971.7943,-3565.9235L13971.8117,-3565.925L13971.859,-3565.9291L13971.8628,-3565.9295"/>
<path content="1,富士急行（株）,河口湖～東京・市が尾線,8.2,10.0,10.0," xlink:title="1" d="M13971.3135,-3565.8788L13971.3169,-3565.8792L13971.3169,-3565.8792L13971.3169,-3565.8792L13971.3343,-3565.8808L13971.3353,-3565.8809L13971.3357,-3565.8809L13971.3363,-3565.881L13971.3375,-3565.8811L13971.3396,-3565.8813L13971.3403,-3565.8814L13971.3409,-3565.8814L13971.3461,-3565.8819L13971.4182,-3565.8886L13971.4696,-3565.8934L13971.4948,-3565.8958L13971.552,-3565.9011L13971.5635,-3565.9022L13971.6535,-3565.9106L13971.7583,-3565.9204L13971.7672,-3565.9212L13971.776,-3565.922L13971.7943,-3565.9235L13971.8117,-3565.925L13971.859,-3565.9291L13971.8628,-3565.9295"/>
<path content="1,富士急行（株）,沼津～東京線,3.0,3.0,3.0," xlink:title="1" d="M13971.3135,-3565.8788L13971.3169,-3565.8792L13971.3169,-3565.8792L13971.3169,-3565.8792L13971.3343,-3565.8808L13971.3353,-3565.8809L13971.3357,-3565.8809L13971.3363,-3565.881L13971.3375,-3565.8811L13971.3396,-3565.8813L13971.3403,-3565.8814L13971.3409,-3565.8814L13971.3461,-3565.8819L13971.4182,-3565.8886L13971.4696,-3565.8934L13971.4948,-3565.8958L13971.552,-3565.9011L13971.5635,-3565.9022L13971.6535,-3565.9106L13971.7583,-3565.9204L13971.7672,-3565.9212L13971.776,-3565.922L13971.7943,-3565.9235L13971.8117,-3565.925L13971.859,-3565.9291L13971.8628,-3565.9295"/>
<path content="1,富士急静岡バス（株）,かぐや姫EXPRESS,2.5,1.0,1.0," xlink:title="1" d="M13971.3135,-3565.8789L13971.3171,-3565.8792L13971.7583,-3565.9204L13971.8591,-3565.9292L13971.8628,-3565.9295"/>
<path content="1,富士急静岡バス（株）,ヤキソバEXPRESS,5.5,3.0,3.0," xlink:title="1" d="M13971.3135,-3565.8789L13971.3171,-3565.8792L13971.7583,-3565.9204L13971.8591,-3565.9292L13971.8628,-3565.9295"/>
<path content="1,富士急静岡バス（株）,新富士・沼津・御殿場～成田空港線,2.0,2.0,2.0," xlink:title="1" d="M13971.3135,-3565.8789L13971.3171,-3565.8792L13971.7583,-3565.9204L13971.8591,-3565.9292L13971.8628,-3565.9295"/>
<path content="1,小田急シティバス（株）,ニューブリーズ号,2.0,2.0,2.0," xlink:title="1" d="M13971.3135,-3565.8788L13971.3169,-3565.8792L13971.3169,-3565.8792L13971.3169,-3565.8792L13971.3343,-3565.8808L13971.3353,-3565.8809L13971.3357,-3565.8809L13971.3363,-3565.881L13971.3375,-3565.8811L13971.3396,-3565.8813L13971.3403,-3565.8814L13971.3409,-3565.8814L13971.3461,-3565.8819L13971.4182,-3565.8886L13971.4696,-3565.8934L13971.4948,-3565.8958L13971.552,-3565.9011L13971.5635,-3565.9022L13971.6535,-3565.9106L13971.7583,-3565.9204L13971.7672,-3565.9212L13971.776,-3565.922L13971.7943,-3565.9235L13971.8117,-3565.925L13971.859,-3565.9291L13971.8628,-3565.9295"/>
<path content="1,小田急バス（株）,ニューブリーズ号,2.0,2.0,2.0," xlink:title="1" d="M13971.3135,-3565.8788L13971.3169,-3565.8792L13971.3169,-3565.8792L13971.3169,-3565.8792L13971.3343,-3565.8808L13971.3353,-3565.8809L13971.3357,-3565.8809L13971.3363,-3565.881L13971.3375,-3565.8811L13971.3396,-3565.8813L13971.3403,-3565.8814L13971.3409,-3565.8814L13971.3461,-3565.8819L13971.4182,-3565.8886L13971.4696,-3565.8934L13971.4948,-3565.8958L13971.552,-3565.9011L13971.5635,-3565.9022L13971.6535,-3565.9106L13971.7583,-3565.9204L13971.7672,-3565.9212L13971.776,-3565.922L13971.7943,-3565.9235L13971.8117,-3565.925L13971.859,-3565.9291L13971.8628,-3565.9295"/>
<path content="1,小田急バス（株）,新百合ヶ丘駅～たまプラーザ駅～成田空港線,8.0,8.0,8.0," xlink:title="1" d="M13971.8628,-3565.9295L13971.859,-3565.9291L13971.8117,-3565.925L13971.7943,-3565.9235L13971.776,-3565.922L13971.7672,-3565.9212L13971.7583,-3565.9204L13971.6535,-3565.9106L13971.5635,-3565.9022L13971.552,-3565.9011L13971.4948,-3565.8958L13971.4696,-3565.8934L13971.4182,-3565.8886L13971.3461,-3565.8819L13971.3409,-3565.8814L13971.3403,-3565.8814L13971.3396,-3565.8813L13971.3375,-3565.8811L13971.3363,-3565.881L13971.3357,-3565.8809L13971.3353,-3565.8809L13971.3343,-3565.8808L13971.3169,-3565.8792L13971.3169,-3565.8792L13971.3169,-3565.8792L13971.3135,-3565.8788"/>
<path content="1,小田急バス（株）,新百合ヶ丘駅～羽田空港線,10.0,10.0,10.0," xlink:title="1" d="M13971.8628,-3565.9295L13971.859,-3565.9291L13971.8117,-3565.925L13971.7943,-3565.9235L13971.776,-3565.922L13971.7672,-3565.9212L13971.7583,-3565.9204L13971.6535,-3565.9106L13971.5635,-3565.9022L13971.552,-3565.9011L13971.4948,-3565.8958L13971.4696,-3565.8934L13971.4182,-3565.8886L13971.3461,-3565.8819L13971.3409,-3565.8814L13971.3403,-3565.8814L13971.3396,-3565.8813L13971.3375,-3565.8811L13971.3363,-3565.881L13971.3357,-3565.8809L13971.3353,-3565.8809L13971.3343,-3565.8808L13971.3169,-3565.8792L13971.3169,-3565.8792L13971.3169,-3565.8792L13971.3135,-3565.8788"/>
<path content="1,山梨交通（株）,竜王・甲府～羽田空港線,2.0,2.0,2.0," xlink:title="1" d="M13971.8628,-3565.9295L13971.859,-3565.9291L13971.8117,-3565.925L13971.7943,-3565.9235L13971.776,-3565.922L13971.7672,-3565.9212L13971.7583,-3565.9204L13971.6535,-3565.9106L13971.5635,-3565.9022L13971.552,-3565.9011L13971.4948,-3565.8958L13971.4696,-3565.8934L13971.4182,-3565.8886L13971.3461,-3565.8819L13971.3409,-3565.8814L13971.3403,-3565.8814L13971.3396,-3565.8813L13971.3375,-3565.8811L13971.3363,-3565.881L13971.3357,-3565.8809L13971.3353,-3565.8809L13971.3343,-3565.8808L13971.3169,-3565.8792L13971.3169,-3565.8792L13971.3169,-3565.8792L13971.3135,-3565.8788"/>
<path content="1,川崎鶴見臨港バス,たまプラーザ～羽田空港,8.5,8.5,8.5," xlink:title="1" d="M13971.3135,-3565.8788L13971.3169,-3565.8792L13971.3169,-3565.8792L13971.3169,-3565.8792L13971.3343,-3565.8808L13971.3353,-3565.8809L13971.3357,-3565.8809L13971.3363,-3565.881L13971.3375,-3565.8811L13971.3396,-3565.8813L13971.3403,-3565.8814L13971.3409,-3565.8814L13971.3461,-3565.8819L13971.4182,-3565.8886L13971.4696,-3565.8934L13971.4948,-3565.8958L13971.552,-3565.9011L13971.5635,-3565.9022L13971.6535,-3565.9106L13971.7583,-3565.9204L13971.7672,-3565.9212L13971.776,-3565.922L13971.7943,-3565.9235L13971.8117,-3565.925L13971.859,-3565.9291L13971.8628,-3565.9295"/>
<path content="1,庄内交通（株）,高速バス　上野・秋葉原・東京,1.0,1.0,1.0," xlink:title="1" d="M13971.8628,-3565.9295L13971.859,-3565.9291L13971.8117,-3565.925L13971.7943,-3565.9235L13971.776,-3565.922L13971.7672,-3565.9212L13971.7583,-3565.9204L13971.6535,-3565.9106L13971.5635,-3565.9022L13971.552,-3565.9011L13971.4948,-3565.8958L13971.4696,-3565.8934L13971.4182,-3565.8886L13971.3461,-3565.8819L13971.3409,-3565.8814L13971.3403,-3565.8814L13971.3396,-3565.8813L13971.3375,-3565.8811L13971.3363,-3565.881L13971.3357,-3565.8809L13971.3353,-3565.8809L13971.3343,-3565.8808L13971.3169,-3565.8792L13971.3169,-3565.8792L13971.3169,-3565.8792L13971.3135,-3565.8788"/>
<path content="1,徳島バス（株）,徳島⇔東京,2.0,2.0,2.0," xlink:title="1" d="M13971.3135,-3565.8789L13971.3171,-3565.8792L13971.7583,-3565.9204L13971.8591,-3565.9292L13971.8628,-3565.9295"/>
<path content="1,成田空港交通,和歌山線,1.0,1.0,1.0," xlink:title="1" d="M13971.3135,-3565.8788L13971.3169,-3565.8792L13971.3169,-3565.8792L13971.3343,-3565.8808L13971.3353,-3565.8809L13971.3357,-3565.8809L13971.3363,-3565.881L13971.3375,-3565.8811L13971.3396,-3565.8813L13971.3403,-3565.8814L13971.3409,-3565.8814L13971.3461,-3565.8819L13971.4182,-3565.8886L13971.4696,-3565.8934L13971.4948,-3565.8958L13971.552,-3565.9011L13971.5635,-3565.9022L13971.6535,-3565.9106L13971.7583,-3565.9204L13971.7672,-3565.9212L13971.776,-3565.922L13971.7943,-3565.9235L13971.8117,-3565.925L13971.859,-3565.9291L13971.8628,-3565.9295"/>
<path content="1,成田空港交通,立川線,3.0,3.0,3.0," xlink:title="1" d="M13971.3135,-3565.8788L13971.3169,-3565.8792L13971.3169,-3565.8792L13971.3343,-3565.8808L13971.3353,-3565.8809L13971.3357,-3565.8809L13971.3363,-3565.881L13971.3375,-3565.8811L13971.3396,-3565.8813L13971.3403,-3565.8814L13971.3409,-3565.8814L13971.3461,-3565.8819L13971.4182,-3565.8886L13971.4696,-3565.8934L13971.4948,-3565.8958L13971.552,-3565.9011L13971.5635,-3565.9022L13971.6535,-3565.9106L13971.7583,-3565.9204L13971.7672,-3565.9212L13971.776,-3565.922L13971.7943,-3565.9235L13971.8117,-3565.925L13971.859,-3565.9291L13971.8628,-3565.9295"/>
<path content="1,新常磐交通（株）,シーガル号,1.0,1.0,1.0," xlink:title="1" d="M13971.3135,-3565.8788L13971.3169,-3565.8792L13971.3169,-3565.8792L13971.3169,-3565.8792L13971.3343,-3565.8808L13971.3353,-3565.8809L13971.3357,-3565.8809L13971.3363,-3565.881L13971.3375,-3565.8811L13971.3396,-3565.8813L13971.3403,-3565.8814L13971.3409,-3565.8814L13971.3461,-3565.8819L13971.4182,-3565.8886L13971.4696,-3565.8934L13971.4948,-3565.8958L13971.552,-3565.9011L13971.5635,-3565.9022L13971.6535,-3565.9106L13971.7583,-3565.9204L13971.7672,-3565.9212L13971.776,-3565.922L13971.7943,-3565.9235L13971.8117,-3565.925L13971.859,-3565.9291L13971.8628,-3565.9295"/>
<path content="1,日ノ丸自動車（株）,東京‐米子線,1.0,1.0,1.0," xlink:title="1" d="M13971.3135,-3565.8789L13971.3171,-3565.8792L13971.7583,-3565.9204L13971.8591,-3565.9292L13971.8628,-3565.9295"/>
<path content="1,日ノ丸自動車（株）,東京‐鳥取・倉吉線,1.0,1.0,1.0," xlink:title="1" d="M13971.3135,-3565.8789L13971.3171,-3565.8792L13971.7583,-3565.9204L13971.8591,-3565.9292L13971.8628,-3565.9295"/>
<path content="1,日本中央バス（株）,渋川・前橋～羽田空港線,8.0,8.0,8.0," xlink:title="1" d="M13971.8628,-3565.9295L13971.859,-3565.9291L13971.8117,-3565.925L13971.7943,-3565.9235L13971.776,-3565.922L13971.7672,-3565.9212L13971.7583,-3565.9204L13971.6535,-3565.9106L13971.5635,-3565.9022L13971.552,-3565.9011L13971.4948,-3565.8958L13971.4696,-3565.8934L13971.4182,-3565.8886L13971.3461,-3565.8819L13971.3409,-3565.8814L13971.3403,-3565.8814L13971.3396,-3565.8813L13971.3375,-3565.8811L13971.3363,-3565.881L13971.3357,-3565.8809L13971.3353,-3565.8809L13971.3343,-3565.8808L13971.3169,-3565.8792L13971.3169,-3565.8792L13971.3169,-3565.8792L13971.3135,-3565.8788"/>
<path content="1,日本交通（株）,米子～東京線,1.0,1.0,1.0," xlink:title="1" d="M13971.3135,-3565.8789L13971.3171,-3565.8792L13971.7583,-3565.9204L13971.8591,-3565.9292L13971.8628,-3565.9295"/>
<path content="1,日本交通（株）,鳥取・倉吉～東京線,1.0,1.0,1.0," xlink:title="1" d="M13971.3135,-3565.8789L13971.3171,-3565.8792L13971.7583,-3565.9204L13971.8591,-3565.9292L13971.8628,-3565.9295"/>
<path content="1,東京空港交通（株）,ふじみ野・新座・志木・朝霞台エリア～成田空港線,3.0,3.0,3.0," xlink:title="1" d="M13971.8628,-3565.9295L13971.859,-3565.9291L13971.8117,-3565.925L13971.7943,-3565.9235L13971.776,-3565.922L13971.7672,-3565.9212L13971.7583,-3565.9204L13971.6535,-3565.9106L13971.5635,-3565.9022L13971.552,-3565.9011L13971.4948,-3565.8958L13971.4696,-3565.8934L13971.4182,-3565.8886L13971.3461,-3565.8819L13971.3409,-3565.8814L13971.3403,-3565.8814L13971.3396,-3565.8813L13971.3375,-3565.8811L13971.3363,-3565.881L13971.3357,-3565.8809L13971.3353,-3565.8809L13971.3343,-3565.8808L13971.3169,-3565.8792L13971.3169,-3565.8792L13971.3135,-3565.8788"/>
<path content="1,東京空港交通（株）,前橋・伊勢崎・高崎エリア～羽田空港線,4.0,4.0,4.0," xlink:title="1" d="M13971.8628,-3565.9295L13971.859,-3565.9291L13971.8117,-3565.925L13971.7943,-3565.9235L13971.776,-3565.922L13971.7672,-3565.9212L13971.7583,-3565.9204L13971.6535,-3565.9106L13971.5635,-3565.9022L13971.552,-3565.9011L13971.4948,-3565.8958L13971.4696,-3565.8934L13971.4182,-3565.8886L13971.3461,-3565.8819L13971.3409,-3565.8814L13971.3403,-3565.8814L13971.3396,-3565.8813L13971.3375,-3565.8811L13971.3363,-3565.881L13971.3357,-3565.8809L13971.3353,-3565.8809L13971.3343,-3565.8808L13971.3169,-3565.8792L13971.3169,-3565.8792L13971.3169,-3565.8792L13971.3169,-3565.8792L13971.3135,-3565.8788"/>
<path content="1,東京空港交通（株）,南大沢駅・京王多摩センター駅・聖蹟桜ヶ丘駅～成田空港線,4.0,4.0,4.0," xlink:title="1" d="M13971.3135,-3565.8788L13971.3169,-3565.8792L13971.3169,-3565.8792L13971.3169,-3565.8792L13971.3169,-3565.8792L13971.3343,-3565.8808L13971.3353,-3565.8809L13971.3357,-3565.8809L13971.3363,-3565.881L13971.3375,-3565.8811L13971.3396,-3565.8813L13971.3403,-3565.8814L13971.3409,-3565.8814L13971.3461,-3565.8819L13971.4182,-3565.8886L13971.4696,-3565.8934L13971.4948,-3565.8958L13971.552,-3565.9011L13971.5635,-3565.9022L13971.6535,-3565.9106L13971.7583,-3565.9204L13971.7672,-3565.9212L13971.776,-3565.922L13971.7943,-3565.9235L13971.8117,-3565.925L13971.859,-3565.9291L13971.8628,-3565.9295"/>
<path content="1,東京空港交通（株）,南大沢駅・京王多摩センター駅・聖蹟桜ヶ丘駅～羽田空港線,8.5,8.5,8.5," xlink:title="1" d="M13971.8628,-3565.9295L13971.859,-3565.9291L13971.8117,-3565.925L13971.7943,-3565.9235L13971.776,-3565.922L13971.7672,-3565.9212L13971.7583,-3565.9204L13971.6535,-3565.9106L13971.5635,-3565.9022L13971.552,-3565.9011L13971.4948,-3565.8958L13971.4696,-3565.8934L13971.4182,-3565.8886L13971.3461,-3565.8819L13971.3409,-3565.8814L13971.3403,-3565.8814L13971.3396,-3565.8813L13971.3375,-3565.8811L13971.3363,-3565.881L13971.3357,-3565.8809L13971.3353,-3565.8809L13971.3343,-3565.8808L13971.3169,-3565.8792L13971.3169,-3565.8792L13971.3169,-3565.8792L13971.3169,-3565.8792L13971.3135,-3565.8788"/>
<path content="1,東京空港交通（株）,吉祥寺駅～成田空港線,2.0,2.0,2.0," xlink:title="1" d="M13971.3135,-3565.8788L13971.3169,-3565.8792L13971.3169,-3565.8792L13971.3343,-3565.8808L13971.3353,-3565.8809L13971.3357,-3565.8809L13971.3363,-3565.881L13971.3375,-3565.8811L13971.3396,-3565.8813L13971.3403,-3565.8814L13971.3409,-3565.8814L13971.3461,-3565.8819L13971.4182,-3565.8886L13971.4696,-3565.8934L13971.4948,-3565.8958L13971.552,-3565.9011L13971.5635,-3565.9022L13971.6535,-3565.9106L13971.7583,-3565.9204L13971.7672,-3565.9212L13971.776,-3565.922L13971.7943,-3565.9235L13971.8117,-3565.925L13971.859,-3565.9291L13971.8628,-3565.9295"/>
<path content="1,東京空港交通（株）,国分寺駅・府中駅・調布駅～羽田空港線,10.5,10.5,10.5," xlink:title="1" d="M13971.8628,-3565.9295L13971.859,-3565.9291L13971.8117,-3565.925L13971.7943,-3565.9235L13971.776,-3565.922L13971.7672,-3565.9212L13971.7583,-3565.9204L13971.6535,-3565.9106L13971.5635,-3565.9022L13971.552,-3565.9011L13971.4948,-3565.8958L13971.4696,-3565.8934L13971.4182,-3565.8886L13971.3461,-3565.8819L13971.3409,-3565.8814L13971.3403,-3565.8814L13971.3396,-3565.8813L13971.3375,-3565.8811L13971.3363,-3565.881L13971.3357,-3565.8809L13971.3353,-3565.8809L13971.3343,-3565.8808L13971.3169,-3565.8792L13971.3169,-3565.8792L13971.3169,-3565.8792L13971.3169,-3565.8792L13971.3135,-3565.8788"/>
<path content="1,東京空港交通（株）,大宮エリア～羽田空港線,5.0,5.0,5.0," xlink:title="1" d="M13971.8628,-3565.9295L13971.859,-3565.9291L13971.8117,-3565.925L13971.7943,-3565.9235L13971.776,-3565.922L13971.7672,-3565.9212L13971.7583,-3565.9204L13971.6535,-3565.9106L13971.5635,-3565.9022L13971.552,-3565.9011L13971.4948,-3565.8958L13971.4696,-3565.8934L13971.4182,-3565.8886L13971.3461,-3565.8819L13971.3409,-3565.8814L13971.3403,-3565.8814L13971.3396,-3565.8813L13971.3375,-3565.8811L13971.3363,-3565.881L13971.3357,-3565.8809L13971.3353,-3565.8809L13971.3343,-3565.8808L13971.3169,-3565.8792L13971.3169,-3565.8792L13971.3169,-3565.8792L13971.3169,-3565.8792L13971.3135,-3565.8788"/>
<path content="1,東京空港交通（株）,大泉学園・和光市エリア～羽田空港線,5.0,5.0,5.0," xlink:title="1" d="M13971.8628,-3565.9295L13971.859,-3565.9291L13971.8117,-3565.925L13971.7943,-3565.9235L13971.776,-3565.922L13971.7672,-3565.9212L13971.7583,-3565.9204L13971.6535,-3565.9106L13971.5635,-3565.9022L13971.552,-3565.9011L13971.4948,-3565.8958L13971.4696,-3565.8934L13971.4182,-3565.8886L13971.3461,-3565.8819L13971.3409,-3565.8814L13971.3403,-3565.8814L13971.3396,-3565.8813L13971.3375,-3565.8811L13971.3363,-3565.881L13971.3357,-3565.8809L13971.3353,-3565.8809L13971.3343,-3565.8808L13971.3169,-3565.8792L13971.3169,-3565.8792L13971.3169,-3565.8792L13971.3169,-3565.8792L13971.3135,-3565.8788"/>
<path content="1,東京空港交通（株）,所沢駅・東所沢駅～羽田空港線,9.5,9.5,9.5," xlink:title="1" d="M13971.8628,-3565.9295L13971.859,-3565.9291L13971.8117,-3565.925L13971.7943,-3565.9235L13971.776,-3565.922L13971.7672,-3565.9212L13971.7583,-3565.9204L13971.6535,-3565.9106L13971.5635,-3565.9022L13971.552,-3565.9011L13971.4948,-3565.8958L13971.4696,-3565.8934L13971.4182,-3565.8886L13971.3461,-3565.8819L13971.3409,-3565.8814L13971.3403,-3565.8814L13971.3396,-3565.8813L13971.3375,-3565.8811L13971.3363,-3565.881L13971.3357,-3565.8809L13971.3353,-3565.8809L13971.3343,-3565.8808L13971.3169,-3565.8792L13971.3169,-3565.8792L13971.3169,-3565.8792L13971.3169,-3565.8792L13971.3135,-3565.8788"/>
<path content="1,東京空港交通（株）,新宿エリア～成田空港線,49.0,49.0,49.0," xlink:title="1" d="M13971.8628,-3565.9295L13971.859,-3565.9291L13971.8117,-3565.925L13971.7943,-3565.9235L13971.776,-3565.922L13971.7672,-3565.9212L13971.7583,-3565.9204L13971.6535,-3565.9106L13971.5635,-3565.9022L13971.552,-3565.9011L13971.4948,-3565.8958L13971.4696,-3565.8934L13971.4182,-3565.8886L13971.3461,-3565.8819L13971.3409,-3565.8814L13971.3403,-3565.8814L13971.3396,-3565.8813L13971.3375,-3565.8811L13971.3363,-3565.881L13971.3357,-3565.8809L13971.3353,-3565.8809L13971.3343,-3565.8808L13971.3169,-3565.8792L13971.3169,-3565.8792L13971.3169,-3565.8792L13971.3169,-3565.8792L13971.3135,-3565.8788"/>
<path content="1,東京空港交通（株）,本川越駅・川越駅～羽田空港線,2.5,2.5,2.5," xlink:title="1" d="M13971.8628,-3565.9295L13971.859,-3565.9291L13971.8117,-3565.925L13971.7943,-3565.9235L13971.776,-3565.922L13971.7672,-3565.9212L13971.7583,-3565.9204L13971.6535,-3565.9106L13971.5635,-3565.9022L13971.552,-3565.9011L13971.4948,-3565.8958L13971.4696,-3565.8934L13971.4182,-3565.8886L13971.3461,-3565.8819L13971.3409,-3565.8814L13971.3403,-3565.8814L13971.3396,-3565.8813L13971.3375,-3565.8811L13971.3363,-3565.881L13971.3357,-3565.8809L13971.3353,-3565.8809L13971.3343,-3565.8808L13971.3169,-3565.8792L13971.3169,-3565.8792L13971.3169,-3565.8792L13971.3169,-3565.8792L13971.3135,-3565.8788"/>
<path content="1,東京空港交通（株）,本籠原駅・熊谷・森林公園駅・坂戸駅～羽田空港線,3.0,3.0,3.0," xlink:title="1" d="M13971.8628,-3565.9295L13971.859,-3565.9291L13971.8117,-3565.925L13971.7943,-3565.9235L13971.776,-3565.922L13971.7672,-3565.9212L13971.7583,-3565.9204L13971.6535,-3565.9106L13971.5635,-3565.9022L13971.552,-3565.9011L13971.4948,-3565.8958L13971.4696,-3565.8934L13971.4182,-3565.8886L13971.3461,-3565.8819L13971.3409,-3565.8814L13971.3403,-3565.8814L13971.3396,-3565.8813L13971.3375,-3565.8811L13971.3363,-3565.881L13971.3357,-3565.8809L13971.3353,-3565.8809L13971.3343,-3565.8808L13971.3169,-3565.8792L13971.3169,-3565.8792L13971.3169,-3565.8792L13971.3169,-3565.8792L13971.3135,-3565.8788"/>
<path content="1,東京空港交通（株）,深谷駅・籠原駅・熊谷駅・森林公園駅～成田空港線,1.0,1.0,1.0," xlink:title="1" d="M13971.3135,-3565.8788L13971.3169,-3565.8792L13971.3169,-3565.8792L13971.3169,-3565.8792L13971.3169,-3565.8792L13971.3343,-3565.8808L13971.3353,-3565.8809L13971.3357,-3565.8809L13971.3363,-3565.881L13971.3375,-3565.8811L13971.3396,-3565.8813L13971.3403,-3565.8814L13971.3409,-3565.8814L13971.3461,-3565.8819L13971.4182,-3565.8886L13971.4696,-3565.8934L13971.4948,-3565.8958L13971.552,-3565.9011L13971.5635,-3565.9022L13971.6535,-3565.9106L13971.7583,-3565.9204L13971.7672,-3565.9212L13971.776,-3565.922L13971.7943,-3565.9235L13971.8117,-3565.925L13971.859,-3565.9291L13971.8628,-3565.9295"/>
<path content="1,東京空港交通（株）,渋谷エリア～成田空港線,11.0,11.0,11.0," xlink:title="1" d="M13971.8628,-3565.9295L13971.859,-3565.9291L13971.8117,-3565.925L13971.7943,-3565.9235L13971.776,-3565.922L13971.7672,-3565.9212L13971.7583,-3565.9204L13971.6535,-3565.9106L13971.5635,-3565.9022L13971.552,-3565.9011L13971.4948,-3565.8958L13971.4696,-3565.8934L13971.4182,-3565.8886L13971.3461,-3565.8819L13971.3409,-3565.8814L13971.3403,-3565.8814L13971.3396,-3565.8813L13971.3375,-3565.8811L13971.3363,-3565.881L13971.3357,-3565.8809L13971.3353,-3565.8809L13971.3343,-3565.8808L13971.3169,-3565.8792L13971.3169,-3565.8792L13971.3169,-3565.8792L13971.3169,-3565.8792L13971.3135,-3565.8788"/>
<path content="1,東京空港交通（株）,渋谷エリア～羽田空港線,5.0,5.0,5.0," xlink:title="1" d="M13971.8628,-3565.9295L13971.859,-3565.9291L13971.8117,-3565.925L13971.7943,-3565.9235L13971.776,-3565.922L13971.7672,-3565.9212L13971.7583,-3565.9204L13971.6535,-3565.9106L13971.5635,-3565.9022L13971.552,-3565.9011L13971.4948,-3565.8958L13971.4696,-3565.8934L13971.4182,-3565.8886L13971.3461,-3565.8819L13971.3409,-3565.8814L13971.3403,-3565.8814L13971.3396,-3565.8813L13971.3375,-3565.8811L13971.3363,-3565.881L13971.3357,-3565.8809L13971.3353,-3565.8809L13971.3343,-3565.8808L13971.3169,-3565.8792L13971.3169,-3565.8792L13971.3169,-3565.8792L13971.3169,-3565.8792L13971.3135,-3565.8788"/>
<path content="1,東京空港交通（株）,練馬駅・野方駅・中野駅～羽田空港線,4.5,4.5,4.5," xlink:title="1" d="M13971.8628,-3565.9295L13971.859,-3565.9291L13971.8117,-3565.925L13971.7943,-3565.9235L13971.776,-3565.922L13971.7672,-3565.9212L13971.7583,-3565.9204L13971.6535,-3565.9106L13971.5635,-3565.9022L13971.552,-3565.9011L13971.4948,-3565.8958L13971.4696,-3565.8934L13971.4182,-3565.8886L13971.3461,-3565.8819L13971.3409,-3565.8814L13971.3403,-3565.8814L13971.3396,-3565.8813L13971.3375,-3565.8811L13971.3363,-3565.881L13971.3357,-3565.8809L13971.3353,-3565.8809L13971.3343,-3565.8808L13971.3169,-3565.8792L13971.3169,-3565.8792L13971.3169,-3565.8792L13971.3169,-3565.8792L13971.3135,-3565.8788"/>
<path content="1,東京空港交通（株）,調布駅～成田空港線,4.0,4.0,4.0," xlink:title="1" d="M13971.3135,-3565.8788L13971.3169,-3565.8792L13971.3169,-3565.8792L13971.3169,-3565.8792L13971.3169,-3565.8792L13971.3343,-3565.8808L13971.3353,-3565.8809L13971.3357,-3565.8809L13971.3363,-3565.881L13971.3375,-3565.8811L13971.3396,-3565.8813L13971.3403,-3565.8814L13971.3409,-3565.8814L13971.3461,-3565.8819L13971.4182,-3565.8886L13971.4696,-3565.8934L13971.4948,-3565.8958L13971.552,-3565.9011L13971.5635,-3565.9022L13971.6535,-3565.9106L13971.7583,-3565.9204L13971.7672,-3565.9212L13971.776,-3565.922L13971.7943,-3565.9235L13971.8117,-3565.925L13971.859,-3565.9291L13971.8628,-3565.9295"/>
<path content="1,東京空港交通（株）,高尾・八王子・日野エリア～羽田空港線,3.0,3.0,3.0," xlink:title="1" d="M13971.8628,-3565.9295L13971.859,-3565.9291L13971.8117,-3565.925L13971.7943,-3565.9235L13971.776,-3565.922L13971.7672,-3565.9212L13971.7583,-3565.9204L13971.6535,-3565.9106L13971.5635,-3565.9022L13971.552,-3565.9011L13971.4948,-3565.8958L13971.4696,-3565.8934L13971.4182,-3565.8886L13971.3461,-3565.8819L13971.3409,-3565.8814L13971.3403,-3565.8814L13971.3396,-3565.8813L13971.3375,-3565.8811L13971.3363,-3565.881L13971.3357,-3565.8809L13971.3353,-3565.8809L13971.3343,-3565.8808L13971.3169,-3565.8792L13971.3169,-3565.8792L13971.3169,-3565.8792L13971.3169,-3565.8792L13971.3135,-3565.8788"/>
<path content="1,東北急行バス（株）,ままかりライナー,1.0,1.0,1.0," xlink:title="1" d="M13971.3135,-3565.8788L13971.3169,-3565.8792L13971.3169,-3565.8792L13971.3343,-3565.8808L13971.3353,-3565.8809L13971.3357,-3565.8809L13971.3363,-3565.881L13971.3375,-3565.8811L13971.3396,-3565.8813L13971.3403,-3565.8814L13971.3409,-3565.8814L13971.3461,-3565.8819L13971.4182,-3565.8886L13971.4696,-3565.8934L13971.4948,-3565.8958L13971.552,-3565.9011L13971.5635,-3565.9022L13971.6535,-3565.9106L13971.7583,-3565.9204L13971.7672,-3565.9212L13971.776,-3565.922L13971.7943,-3565.9235L13971.8117,-3565.925L13971.859,-3565.9291L13971.8628,-3565.9295"/>
<path content="1,東北急行バス（株）,フライングスニーカー京都・茨木号,1.0,1.0,1.0," xlink:title="1" d="M13971.3135,-3565.8788L13971.3169,-3565.8792L13971.3169,-3565.8792L13971.3343,-3565.8808L13971.3353,-3565.8809L13971.3357,-3565.8809L13971.3363,-3565.881L13971.3375,-3565.8811L13971.3396,-3565.8813L13971.3403,-3565.8814L13971.3409,-3565.8814L13971.3461,-3565.8819L13971.4182,-3565.8886L13971.4696,-3565.8934L13971.4948,-3565.8958L13971.552,-3565.9011L13971.5635,-3565.9022L13971.6535,-3565.9106L13971.7583,-3565.9204L13971.7672,-3565.9212L13971.776,-3565.922L13971.7943,-3565.9235L13971.8117,-3565.925L13971.859,-3565.9291L13971.8628,-3565.9295"/>
<path content="1,東北急行バス（株）,フライングスニーカー大坂号,1.0,1.0,1.0," xlink:title="1" d="M13971.8628,-3565.9295L13971.859,-3565.9291L13971.8117,-3565.925L13971.7943,-3565.9235L13971.776,-3565.922L13971.7672,-3565.9212L13971.7583,-3565.9204L13971.6535,-3565.9106L13971.5635,-3565.9022L13971.552,-3565.9011L13971.4948,-3565.8958L13971.4696,-3565.8934L13971.4182,-3565.8886L13971.3461,-3565.8819L13971.3409,-3565.8814L13971.3403,-3565.8814L13971.3396,-3565.8813L13971.3375,-3565.8811L13971.3363,-3565.881L13971.3357,-3565.8809L13971.3353,-3565.8809L13971.3343,-3565.8808L13971.3169,-3565.8792L13971.3169,-3565.8792L13971.3135,-3565.8788"/>
<path content="1,東急バス（株）,たまプラーザ駅～成田空港,8.0,8.0,8.0," xlink:title="1" d="M13971.3135,-3565.8788L13971.3169,-3565.8792L13971.3169,-3565.8792L13971.3343,-3565.8808L13971.3353,-3565.8809L13971.3357,-3565.8809L13971.3363,-3565.881L13971.3375,-3565.8811L13971.3396,-3565.8813L13971.3403,-3565.8814L13971.3409,-3565.8814L13971.3461,-3565.8819L13971.4182,-3565.8886L13971.4696,-3565.8934L13971.4948,-3565.8958L13971.552,-3565.9011L13971.5635,-3565.9022L13971.6535,-3565.9106L13971.7583,-3565.9204L13971.7672,-3565.9212L13971.776,-3565.922L13971.7943,-3565.9235L13971.8117,-3565.925L13971.859,-3565.9291L13971.8628,-3565.9295"/>
<path content="1,東急バス（株）,たまプラーザ駅～東京ディズニーリゾート,5.0,5.0,5.0," xlink:title="1" d="M13971.3135,-3565.8788L13971.3169,-3565.8792L13971.3169,-3565.8792L13971.3343,-3565.8808L13971.3353,-3565.8809L13971.3357,-3565.8809L13971.3363,-3565.881L13971.3375,-3565.8811L13971.3396,-3565.8813L13971.3403,-3565.8814L13971.3409,-3565.8814L13971.3461,-3565.8819L13971.4182,-3565.8886L13971.4696,-3565.8934L13971.4948,-3565.8958L13971.552,-3565.9011L13971.5635,-3565.9022L13971.6535,-3565.9106L13971.7583,-3565.9204L13971.7672,-3565.9212L13971.776,-3565.922L13971.7943,-3565.9235L13971.8117,-3565.925L13971.859,-3565.9291L13971.8628,-3565.9295"/>
<path content="1,東急バス（株）,たまプラーザ駅～羽田空港,16.0,16.0,16.0," xlink:title="1" d="M13971.8628,-3565.9295L13971.859,-3565.9291L13971.8117,-3565.925L13971.7943,-3565.9235L13971.776,-3565.922L13971.7672,-3565.9212L13971.7583,-3565.9204L13971.6535,-3565.9106L13971.5635,-3565.9022L13971.552,-3565.9011L13971.4948,-3565.8958L13971.4696,-3565.8934L13971.4182,-3565.8886L13971.3461,-3565.8819L13971.3409,-3565.8814L13971.3403,-3565.8814L13971.3396,-3565.8813L13971.3375,-3565.8811L13971.3363,-3565.881L13971.3357,-3565.8809L13971.3353,-3565.8809L13971.3343,-3565.8808L13971.3169,-3565.8792L13971.3169,-3565.8792L13971.3135,-3565.8788"/>
<path content="1,東急バス（株）,二子玉川駅～羽田空港,8.0,8.0,8.0," xlink:title="1" d="M13971.8628,-3565.9295L13971.859,-3565.9291L13971.8117,-3565.925L13971.7943,-3565.9235L13971.776,-3565.922L13971.7672,-3565.9212L13971.7583,-3565.9204L13971.6535,-3565.9106L13971.5635,-3565.9022L13971.552,-3565.9011L13971.4948,-3565.8958L13971.4696,-3565.8934L13971.4182,-3565.8886L13971.3461,-3565.8819L13971.3409,-3565.8814L13971.3403,-3565.8814L13971.3396,-3565.8813L13971.3375,-3565.8811L13971.3363,-3565.881L13971.3357,-3565.8809L13971.3353,-3565.8809L13971.3343,-3565.8808L13971.3169,-3565.8792L13971.3169,-3565.8792L13971.3135,-3565.8788"/>
<path content="1,東急バス（株）,新百合ヶ丘駅～成田空港,8.0,8.0,8.0," xlink:title="1" d="M13971.8628,-3565.9295L13971.859,-3565.9291L13971.8117,-3565.925L13971.7943,-3565.9235L13971.776,-3565.922L13971.7672,-3565.9212L13971.7583,-3565.9204L13971.6535,-3565.9106L13971.5635,-3565.9022L13971.552,-3565.9011L13971.4948,-3565.8958L13971.4696,-3565.8934L13971.4182,-3565.8886L13971.3461,-3565.8819L13971.3409,-3565.8814L13971.3403,-3565.8814L13971.3396,-3565.8813L13971.3375,-3565.8811L13971.3363,-3565.881L13971.3357,-3565.8809L13971.3353,-3565.8809L13971.3343,-3565.8808L13971.3169,-3565.8792L13971.3169,-3565.8792L13971.3135,-3565.8788"/>
<path content="1,東急バス（株）,新百合ヶ丘駅～羽田空港,5.0,5.0,5.0," xlink:title="1" d="M13971.8628,-3565.9295L13971.859,-3565.9291L13971.8117,-3565.925L13971.7943,-3565.9235L13971.776,-3565.922L13971.7672,-3565.9212L13971.7583,-3565.9204L13971.6535,-3565.9106L13971.5635,-3565.9022L13971.552,-3565.9011L13971.4948,-3565.8958L13971.4696,-3565.8934L13971.4182,-3565.8886L13971.3461,-3565.8819L13971.3409,-3565.8814L13971.3403,-3565.8814L13971.3396,-3565.8813L13971.3375,-3565.8811L13971.3363,-3565.881L13971.3357,-3565.8809L13971.3353,-3565.8809L13971.3343,-3565.8808L13971.3169,-3565.8792L13971.3169,-3565.8792L13971.3135,-3565.8788"/>
<path content="1,東急バス（株）,渋谷駅マークシティ～羽田空港,10.0,10.0,10.0," xlink:title="1" d="M13971.8628,-3565.9295L13971.859,-3565.9291L13971.8117,-3565.925L13971.7943,-3565.9235L13971.776,-3565.922L13971.7672,-3565.9212L13971.7583,-3565.9204L13971.6535,-3565.9106L13971.5635,-3565.9022L13971.552,-3565.9011L13971.4948,-3565.8958L13971.4696,-3565.8934L13971.4182,-3565.8886L13971.3461,-3565.8819L13971.3409,-3565.8814L13971.3403,-3565.8814L13971.3396,-3565.8813L13971.3375,-3565.8811L13971.3363,-3565.881L13971.3357,-3565.8809L13971.3353,-3565.8809L13971.3343,-3565.8808L13971.3169,-3565.8792L13971.3169,-3565.8792L13971.3135,-3565.8788"/>
<path content="1,瀬戸内運輸（株）,パイレーツ　今治⇔東京,1.0,1.0,1.0," xlink:title="1" d="M13971.3135,-3565.8789L13971.3171,-3565.8792L13971.7583,-3565.9204L13971.8591,-3565.9292L13971.8628,-3565.9295"/>
<path content="1,神奈川中央交通（株）,橋本駅・相模大野・町田バスセンター～成田空港,9.0,9.0,9.0," xlink:title="1" d="M13971.8628,-3565.9295L13971.859,-3565.9291L13971.8117,-3565.925L13971.7943,-3565.9235L13971.776,-3565.922L13971.7672,-3565.9212L13971.7583,-3565.9204L13971.6535,-3565.9106L13971.5635,-3565.9022L13971.552,-3565.9011L13971.4948,-3565.8958L13971.4696,-3565.8934L13971.4182,-3565.8886L13971.3461,-3565.8819L13971.3409,-3565.8814L13971.3403,-3565.8814L13971.3396,-3565.8813L13971.3375,-3565.8811L13971.3363,-3565.881L13971.3357,-3565.8809L13971.3353,-3565.8809L13971.3343,-3565.8808L13971.3169,-3565.8792L13971.3169,-3565.8792L13971.3169,-3565.8792L13971.3135,-3565.8788"/>
<path content="1,神奈川中央交通（株）,田村車庫・本厚木駅～成田空港,4.0,4.0,4.0," xlink:title="1" d="M13971.3135,-3565.8788L13971.3169,-3565.8792L13971.3169,-3565.8792L13971.3169,-3565.8792L13971.3343,-3565.8808L13971.3353,-3565.8809L13971.3357,-3565.8809L13971.3363,-3565.881L13971.3375,-3565.8811L13971.3396,-3565.8813L13971.3403,-3565.8814L13971.3409,-3565.8814L13971.3461,-3565.8819L13971.4182,-3565.8886L13971.4696,-3565.8934L13971.4948,-3565.8958L13971.552,-3565.9011L13971.5635,-3565.9022L13971.6535,-3565.9106L13971.7583,-3565.9204L13971.7672,-3565.9212L13971.776,-3565.922L13971.7943,-3565.9235L13971.8117,-3565.925L13971.859,-3565.9291L13971.8628,-3565.9295"/>
<path content="1,神奈川中央交通（株）,田村車庫・本厚木駅～羽田空港,6.0,6.0,6.0," xlink:title="1" d="M13971.3135,-3565.8788L13971.3169,-3565.8792L13971.3169,-3565.8792L13971.3169,-3565.8792L13971.3343,-3565.8808L13971.3353,-3565.8809L13971.3357,-3565.8809L13971.3363,-3565.881L13971.3375,-3565.8811L13971.3396,-3565.8813L13971.3403,-3565.8814L13971.3409,-3565.8814L13971.3461,-3565.8819L13971.4182,-3565.8886L13971.4696,-3565.8934L13971.4948,-3565.8958L13971.552,-3565.9011L13971.5635,-3565.9022L13971.6535,-3565.9106L13971.7583,-3565.9204L13971.7672,-3565.9212L13971.776,-3565.922L13971.7943,-3565.9235L13971.8117,-3565.925L13971.859,-3565.9291L13971.8628,-3565.9295"/>
<path content="1,神奈川中央交通（株）,相模大野・町田バスセンター～羽田空港,10.0,10.0,10.0," xlink:title="1" d="M13971.8628,-3565.9295L13971.859,-3565.9291L13971.8117,-3565.925L13971.7943,-3565.9235L13971.776,-3565.922L13971.7672,-3565.9212L13971.7583,-3565.9204L13971.6535,-3565.9106L13971.5635,-3565.9022L13971.552,-3565.9011L13971.4948,-3565.8958L13971.4696,-3565.8934L13971.4182,-3565.8886L13971.3461,-3565.8819L13971.3409,-3565.8814L13971.3403,-3565.8814L13971.3396,-3565.8813L13971.3375,-3565.8811L13971.3363,-3565.881L13971.3357,-3565.8809L13971.3353,-3565.8809L13971.3343,-3565.8808L13971.3169,-3565.8792L13971.3169,-3565.8792L13971.3169,-3565.8792L13971.3135,-3565.8788"/>
<path content="1,福島交通（株）,福島高速バスターミナル～大阪あべの橋,1.0,1.0,1.0," xlink:title="1" d="M13971.3135,-3565.8788L13971.3169,-3565.8792L13971.3169,-3565.8792L13971.3169,-3565.8792L13971.3343,-3565.8808L13971.3353,-3565.8809L13971.3357,-3565.8809L13971.3363,-3565.881L13971.3375,-3565.8811L13971.3396,-3565.8813L13971.3403,-3565.8814L13971.3409,-3565.8814L13971.3461,-3565.8819L13971.4182,-3565.8886L13971.4696,-3565.8934L13971.4948,-3565.8958L13971.552,-3565.9011L13971.5635,-3565.9022L13971.6535,-3565.9106L13971.7583,-3565.9204L13971.7672,-3565.9212L13971.776,-3565.922L13971.7943,-3565.9235L13971.8117,-3565.925L13971.859,-3565.9291L13971.8628,-3565.9295"/>
<path content="1,西東京バス（株）,003,9.0,9.0,9.0," xlink:title="1" d="M13971.8628,-3565.9295L13971.859,-3565.9291L13971.8117,-3565.925L13971.7943,-3565.9235L13971.776,-3565.922L13971.7672,-3565.9212L13971.7583,-3565.9204L13971.6535,-3565.9106L13971.5635,-3565.9022L13971.552,-3565.9011L13971.4948,-3565.8958L13971.4696,-3565.8934L13971.4182,-3565.8886L13971.3461,-3565.8819L13971.3409,-3565.8814L13971.3403,-3565.8814L13971.3396,-3565.8813L13971.3375,-3565.8811L13971.3363,-3565.881L13971.3357,-3565.8809L13971.3353,-3565.8809L13971.3343,-3565.8808L13971.3169,-3565.8792L13971.3169,-3565.8792L13971.3169,-3565.8792L13971.3135,-3565.8788"/>
<path content="1,近鉄バス（株）,大日・茨木・京都⇔東京駅,1.0,1.0,1.0," xlink:title="1" d="M13971.3135,-3565.8789L13971.3171,-3565.8792L13971.7583,-3565.9204L13971.8591,-3565.9292L13971.8628,-3565.9295"/>
<path content="1,近鉄バス（株）,大阪⇔東京駅,1.0,1.0,1.0," xlink:title="1" d="M13971.3135,-3565.8789L13971.3171,-3565.8792L13971.7583,-3565.9204L13971.8591,-3565.9292L13971.8628,-3565.9295"/>
<path content="1,近鉄バス（株）,大阪・京都⇔つくば・水戸,1.0,1.0,1.0," xlink:title="1" d="M13971.3135,-3565.8789L13971.3171,-3565.8792L13971.7583,-3565.9204L13971.8591,-3565.9292L13971.8628,-3565.9295"/>
<path content="1,近鉄バス（株）,大阪・京都⇔日立・いわき,1.0,1.0,1.0," xlink:title="1" d="M13971.3135,-3565.8789L13971.3171,-3565.8792L13971.7583,-3565.9204L13971.8591,-3565.9292L13971.8628,-3565.9295"/>
<path content="1,関越交通（株）,アザレア号,14.0,14.0,14.0," xlink:title="1" d="M13971.8628,-3565.9295L13971.859,-3565.9291L13971.8117,-3565.925L13971.7943,-3565.9235L13971.776,-3565.922L13971.7672,-3565.9212L13971.7583,-3565.9204L13971.6535,-3565.9106L13971.5635,-3565.9022L13971.552,-3565.9011L13971.4948,-3565.8958L13971.4696,-3565.8934L13971.4182,-3565.8886L13971.3461,-3565.8819L13971.3409,-3565.8814L13971.3403,-3565.8814L13971.3396,-3565.8813L13971.3375,-3565.8811L13971.3363,-3565.881L13971.3357,-3565.8809L13971.3353,-3565.8809L13971.3343,-3565.8808L13971.3169,-3565.8792L13971.3169,-3565.8792L13971.3169,-3565.8792L13971.3135,-3565.8788"/>
<path content="1,阪急バス（株）,東京・東京ディズニーリゾート・千葉行,1.0,1.0,1.0," xlink:title="1" d="M13971.3135,-3565.8789L13971.3171,-3565.8792L13971.7583,-3565.9204L13971.8591,-3565.9292L13971.8628,-3565.9295"/>
<path content="1,阪神バス（株）,サラダエクスプレス　神戸・大阪⇔東京ディズニーリゾート,1.0,1.0,1.0," xlink:title="1" d="M13971.3135,-3565.8789L13971.3171,-3565.8792L13971.7583,-3565.9204L13971.8591,-3565.9292L13971.8628,-3565.9295"/>
<path content="1,防長交通（株）,萩・山口・防府・徳山・岩国～東京,1.0,1.0,1.0," xlink:title="1" d="M13971.3135,-3565.8789L13971.3171,-3565.8792L13971.7583,-3565.9204L13971.8591,-3565.9292L13971.8628,-3565.9295"/>
<path content="1,（株）シティバス立川,立川駅～羽田空港線,9.0,9.0,9.0," xlink:title="1" d="M13971.8628,-3565.9295L13971.859,-3565.9291L13971.8117,-3565.925L13971.7943,-3565.9235L13971.776,-3565.922L13971.7672,-3565.9212L13971.7583,-3565.9204L13971.6535,-3565.9106L13971.5635,-3565.9022L13971.552,-3565.9011L13971.4948,-3565.8958L13971.4696,-3565.8934L13971.4182,-3565.8886L13971.3461,-3565.8819L13971.3409,-3565.8814L13971.3403,-3565.8814L13971.3396,-3565.8813L13971.3375,-3565.8811L13971.3363,-3565.881L13971.3357,-3565.8809L13971.3353,-3565.8809L13971.3343,-3565.8808L13971.3169,-3565.8792L13971.3169,-3565.8792L13971.3169,-3565.8792L13971.3135,-3565.8788"/>
<path content="1,（株）中国バス,夜行便　東京線,1.0,1.0,1.0," xlink:title="1" d="M13971.8628,-3565.9295L13971.8591,-3565.9292L13971.7583,-3565.9204L13971.3171,-3565.8792L13971.3135,-3565.8789"/>
<path content="2,都営バス,RH01,36.0,43.0,42.0," xlink:title="2" d="M13971.8628,-3565.9295L13971.859,-3565.9291L13971.8117,-3565.925L13971.7943,-3565.9235L13971.776,-3565.922L13971.7672,-3565.9212L13971.7583,-3565.9204L13971.6535,-3565.9106L13971.5635,-3565.9022L13971.552,-3565.9011L13971.4948,-3565.8958L13971.4696,-3565.8934L13971.4182,-3565.8886L13971.3461,-3565.8819L13971.3409,-3565.8814L13971.3403,-3565.8814L13971.3396,-3565.8813L13971.3375,-3565.8811L13971.3363,-3565.881L13971.3357,-3565.8809L13971.3353,-3565.8809L13971.3343,-3565.8808L13971.3169,-3565.8792L13971.3169,-3565.8792L13971.3135,-3565.8788"/>
<path content="2,都営バス,渋88,36.0,29.0,31.0," xlink:title="2" d="M13971.8628,-3565.9532L13971.8568,-3565.955L13971.8524,-3565.9567L13971.7919,-3565.9782L13971.6979,-3566.0112L13971.6705,-3566.021L13971.637,-3566.0336L13971.6134,-3566.0424L13971.5661,-3566.062L13971.5242,-3566.081L13971.4879,-3566.0943L13971.4786,-3566.0984L13971.4096,-3566.1284L13971.3936,-3566.1373L13971.3801,-3566.145L13971.3747,-3566.1476L13971.3452,-3566.1621"/>
<path content="2,都営バス,都01,197.0,129.0,102.0," xlink:title="2" d="M13971.3409,-3565.8814L13971.3403,-3565.8814L13971.3396,-3565.8813L13971.3375,-3565.8811L13971.3363,-3565.881L13971.3357,-3565.8809L13971.3353,-3565.8809L13971.3343,-3565.8808L13971.3169,-3565.8792L13971.3169,-3565.8792L13971.3135,-3565.8788"/>
<path content="2,都営バス,都01,197.0,129.0,102.0," xlink:title="2" d="M13971.3502,-3565.8967L13971.3409,-3565.8814"/>
<path content="2,都営バス,都01,197.0,129.0,102.0," xlink:title="2" d="M13971.8628,-3565.9295L13971.859,-3565.9291L13971.8117,-3565.925L13971.7943,-3565.9235L13971.776,-3565.922L13971.7672,-3565.9212L13971.7583,-3565.9204L13971.6535,-3565.9106L13971.5635,-3565.9022L13971.552,-3565.9011L13971.4948,-3565.8958L13971.4696,-3565.8934L13971.4182,-3565.8886L13971.3461,-3565.8819L13971.3409,-3565.8814"/>
<path content="2,都営バス,都01折返,67.0,51.0,36.0," xlink:title="2" d="M13971.3409,-3565.8814L13971.3403,-3565.8814L13971.3396,-3565.8813L13971.3375,-3565.8811L13971.3363,-3565.881L13971.3357,-3565.8809L13971.3353,-3565.8809L13971.3343,-3565.8808L13971.3169,-3565.8792L13971.3169,-3565.8792L13971.3135,-3565.8788"/>
<path content="2,都営バス,都01折返,67.0,51.0,36.0," xlink:title="2" d="M13971.3409,-3565.8814L13971.3502,-3565.8967"/>
<path content="2,都営バス,都01折返,67.0,51.0,36.0," xlink:title="2" d="M13971.8628,-3565.9295L13971.859,-3565.9291L13971.8117,-3565.925L13971.7943,-3565.9235L13971.776,-3565.922L13971.7672,-3565.9212L13971.7583,-3565.9204L13971.6535,-3565.9106L13971.5635,-3565.9022L13971.552,-3565.9011L13971.4948,-3565.8958L13971.4696,-3565.8934L13971.4182,-3565.8886L13971.3461,-3565.8819L13971.3409,-3565.8814"/>
<path content="3,渋谷区,夕やけこやけルート,41.0,42.0,42.0," xlink:title="3" d="M13971.3135,-3565.6801L13971.3171,-3565.681L13971.3515,-3565.6932L13971.3661,-3565.6962L13971.4005,-3565.7043L13971.4122,-3565.7071L13971.4428,-3565.7114L13971.4461,-3565.7176L13971.4532,-3565.7283L13971.4358,-3565.7351L13971.402,-3565.7531L13971.3955,-3565.7593L13971.384,-3565.7678L13971.3668,-3565.7847L13971.3551,-3565.7926L13971.3135,-3565.8152"/>
</g>
</svg>
