<?xml version="1.0" encoding="UTF-8"?>
<svg  xmlns="http://www.w3.org/2000/svg" xmlns:xlink="http://www.w3.org/1999/xlink" xmlns:go="http://purl.org/svgmap/profile" property="N07_001,N07_002,N07_003,N07_004,N07_005,N07_006,N07_007" viewBox="14088.043212890625 -3835.3271484375 0.274658203125 0.274658203125" go:dataArea="14088.043212890625 -3835.3271484375 0.274658203125 0.274658203125" >
<metadata>
 <rdf:RDF xmlns:rdf="http://www.w3.org/1999/02/22-rdf-syntax-ns#" xmlns:crs="http://opengis.org/xmldtds/transformations.dtd" xmlns:svg="http://www.w3.org/svg" >
  <rdf:Description>
   <crs:CoordinateReferenceSystem rdf:resource="http://purl.org/crs/84" svg:transform="matrix(100.0,0.0,0.0,-100.0,0.0,0.0)" />
  </rdf:Description>
 </rdf:RDF>
</metadata>
<globalCoordinateSystem srsName="http://purl.org/crs/84" transform="matrix(100.0,0.0,0.0,-100.0,0.0,0.0)" />
<defs>
 <g id="p0" >
  <circle cx="0.0" cy="0.0" r="3" stroke="green" stroke-width="0.75" vector-effect="non-scaling-stroke" />
 </g>
</defs>
<g fill="none" fill-rule="evenodd" stroke="#FF00FF" stroke-width="0.75" opacity="0.5" vector-effect="non-scaling-stroke" stroke-linejoin="bevel" >
<path content="1,JRバス東北（株）,うみねこ号,1.0,1.0,1.0," xlink:title="1" d="M14088.0432,-3835.1378L14088.058,-3835.1579L14088.075,-3835.1853L14088.075,-3835.1854L14088.0751,-3835.1854L14088.0751,-3835.1855L14088.0846,-3835.2009L14088.0858,-3835.203L14088.0858,-3835.2031L14088.0859,-3835.2032L14088.0859,-3835.2032L14088.0859,-3835.2032L14088.0859,-3835.2033L14088.0859,-3835.2033L14088.0859,-3835.2033L14088.0862,-3835.2037L14088.0862,-3835.2038L14088.0862,-3835.2038L14088.0863,-3835.2039L14088.0863,-3835.2039L14088.0863,-3835.2039L14088.0863,-3835.204L14088.0864,-3835.2041L14088.0864,-3835.2041L14088.0864,-3835.2041L14088.0867,-3835.2048L14088.0977,-3835.2247L14088.1112,-3835.2495L14088.1202,-3835.2692L14088.1203,-3835.2694L14088.1203,-3835.2694L14088.1203,-3835.2694L14088.1203,-3835.2695L14088.1203,-3835.2695L14088.1203,-3835.2695L14088.1203,-3835.2696L14088.1203,-3835.2696L14088.1204,-3835.2696L14088.1204,-3835.2697L14088.1289,-3835.2884L14088.1441,-3835.3271"/>
<path content="1,JRバス東北（株）,けんじライナー号,1.0,1.0,1.0," xlink:title="1" d="M14088.0432,-3835.1378L14088.058,-3835.1579L14088.075,-3835.1853L14088.075,-3835.1854L14088.0751,-3835.1854L14088.0751,-3835.1855L14088.0846,-3835.2009L14088.0858,-3835.203L14088.0858,-3835.2031L14088.0859,-3835.2032L14088.0859,-3835.2032L14088.0859,-3835.2032L14088.0859,-3835.2033L14088.0859,-3835.2033L14088.0859,-3835.2033L14088.0862,-3835.2037L14088.0862,-3835.2038L14088.0862,-3835.2038L14088.0863,-3835.2039L14088.0863,-3835.2039L14088.0863,-3835.2039L14088.0863,-3835.204L14088.0864,-3835.2041L14088.0864,-3835.2041L14088.0864,-3835.2041L14088.0867,-3835.2048L14088.0977,-3835.2247L14088.1112,-3835.2495L14088.1202,-3835.2692L14088.1203,-3835.2694L14088.1203,-3835.2694L14088.1203,-3835.2694L14088.1203,-3835.2695L14088.1203,-3835.2695L14088.1203,-3835.2695L14088.1203,-3835.2696L14088.1203,-3835.2696L14088.1204,-3835.2696L14088.1204,-3835.2697L14088.1289,-3835.2884L14088.1441,-3835.3271"/>
<path content="1,JRバス東北（株）,アーバン号,3.2,4.0,4.0," xlink:title="1" d="M14088.0432,-3835.1378L14088.058,-3835.1579L14088.075,-3835.1853L14088.075,-3835.1854L14088.0751,-3835.1854L14088.0751,-3835.1855L14088.0846,-3835.2009L14088.0858,-3835.203L14088.0858,-3835.2031L14088.0859,-3835.2032L14088.0859,-3835.2032L14088.0859,-3835.2032L14088.0859,-3835.2033L14088.0859,-3835.2033L14088.0859,-3835.2033L14088.0862,-3835.2037L14088.0862,-3835.2038L14088.0862,-3835.2038L14088.0863,-3835.2039L14088.0863,-3835.2039L14088.0863,-3835.2039L14088.0863,-3835.204L14088.0864,-3835.2041L14088.0864,-3835.2041L14088.0864,-3835.2041L14088.0867,-3835.2048L14088.0977,-3835.2247L14088.1112,-3835.2495L14088.1202,-3835.2692L14088.1203,-3835.2694L14088.1203,-3835.2694L14088.1203,-3835.2694L14088.1203,-3835.2695L14088.1203,-3835.2695L14088.1203,-3835.2695L14088.1203,-3835.2696L14088.1203,-3835.2696L14088.1204,-3835.2696L14088.1204,-3835.2697L14088.1289,-3835.2884L14088.1441,-3835.3271"/>
<path content="1,JRバス東北（株）,キャッスル号,3.0,3.0,3.0," xlink:title="1" d="M14088.0432,-3835.1378L14088.058,-3835.1579L14088.075,-3835.1853L14088.075,-3835.1854L14088.0751,-3835.1854L14088.0751,-3835.1855L14088.0846,-3835.2009L14088.0858,-3835.203L14088.0858,-3835.2031L14088.0859,-3835.2032L14088.0859,-3835.2032L14088.0859,-3835.2032L14088.0859,-3835.2033L14088.0859,-3835.2033L14088.0859,-3835.2033L14088.0862,-3835.2037L14088.0862,-3835.2038L14088.0862,-3835.2038L14088.0863,-3835.2039L14088.0863,-3835.2039L14088.0863,-3835.2039L14088.0863,-3835.204L14088.0864,-3835.2041L14088.0864,-3835.2041L14088.0864,-3835.2041L14088.0867,-3835.2048L14088.0977,-3835.2247L14088.1112,-3835.2495L14088.1202,-3835.2692L14088.1203,-3835.2694L14088.1203,-3835.2694L14088.1203,-3835.2694L14088.1203,-3835.2695L14088.1203,-3835.2695L14088.1203,-3835.2695L14088.1203,-3835.2696L14088.1203,-3835.2696L14088.1204,-3835.2696L14088.1204,-3835.2697L14088.1289,-3835.2884L14088.1441,-3835.3271"/>
<path content="1,JRバス東北（株）,グリーンライナー号,2.0,2.0,2.0," xlink:title="1" d="M14088.0432,-3835.1378L14088.058,-3835.1579L14088.075,-3835.1853L14088.075,-3835.1854L14088.0751,-3835.1854L14088.0751,-3835.1855L14088.0846,-3835.2009L14088.0858,-3835.203L14088.0858,-3835.2031L14088.0859,-3835.2032L14088.0859,-3835.2032L14088.0859,-3835.2032L14088.0859,-3835.2033L14088.0859,-3835.2033L14088.0859,-3835.2033L14088.0862,-3835.2037L14088.0862,-3835.2038L14088.0862,-3835.2038L14088.0863,-3835.2039L14088.0863,-3835.2039L14088.0863,-3835.2039L14088.0863,-3835.204L14088.0864,-3835.2041L14088.0864,-3835.2041L14088.0864,-3835.2041L14088.0867,-3835.2048L14088.0977,-3835.2247L14088.1112,-3835.2495L14088.1202,-3835.2692L14088.1203,-3835.2694L14088.1203,-3835.2694L14088.1203,-3835.2694L14088.1203,-3835.2695L14088.1203,-3835.2695L14088.1203,-3835.2695L14088.1203,-3835.2696L14088.1203,-3835.2696L14088.1204,-3835.2696L14088.1204,-3835.2697L14088.1289,-3835.2884L14088.1441,-3835.3271"/>
<path content="1,JRバス東北（株）,ドリーム盛岡・らくちん号,2.2,3.0,3.0," xlink:title="1" d="M14088.0432,-3835.1376L14088.0583,-3835.158L14088.075,-3835.1853L14088.075,-3835.1854L14088.0751,-3835.1854L14088.0751,-3835.1855L14088.0846,-3835.2011L14088.0855,-3835.2025L14088.0855,-3835.2026L14088.0855,-3835.2026L14088.0855,-3835.2026L14088.0856,-3835.2027L14088.0856,-3835.2027L14088.0856,-3835.2027L14088.0856,-3835.2028L14088.0857,-3835.2029L14088.0857,-3835.203L14088.0858,-3835.203L14088.0858,-3835.203L14088.0858,-3835.203L14088.0858,-3835.2031L14088.0858,-3835.2031L14088.0858,-3835.2032L14088.0859,-3835.2032L14088.0859,-3835.2032L14088.0859,-3835.2032L14088.0859,-3835.2033L14088.0859,-3835.2033L14088.0859,-3835.2033L14088.086,-3835.2034L14088.0869,-3835.2049L14088.0977,-3835.2247L14088.1113,-3835.2495L14088.1202,-3835.2692L14088.1203,-3835.2694L14088.1203,-3835.2694L14088.1203,-3835.2694L14088.1203,-3835.2695L14088.1203,-3835.2695L14088.1203,-3835.2695L14088.1203,-3835.2696L14088.1203,-3835.2696L14088.1204,-3835.2696L14088.1204,-3835.2697L14088.1289,-3835.2884L14088.1441,-3835.3271"/>
<path content="1,JRバス東北（株）,ドリーム秋田・横浜号,1.0,1.0,1.0," xlink:title="1" d="M14088.1441,-3835.3271L14088.1289,-3835.2884L14088.1204,-3835.2697L14088.1204,-3835.2696L14088.1203,-3835.2696L14088.1203,-3835.2696L14088.1203,-3835.2695L14088.1203,-3835.2695L14088.1203,-3835.2695L14088.1203,-3835.2694L14088.1203,-3835.2694L14088.1203,-3835.2694L14088.1202,-3835.2692L14088.1112,-3835.2495L14088.0977,-3835.2247L14088.0867,-3835.2048L14088.0864,-3835.2041L14088.0864,-3835.2041L14088.0864,-3835.2041L14088.0863,-3835.204L14088.0863,-3835.2039L14088.0863,-3835.2039L14088.0863,-3835.2039L14088.0862,-3835.2038L14088.0862,-3835.2038L14088.0862,-3835.2037L14088.0859,-3835.2033L14088.0859,-3835.2033L14088.0859,-3835.2033L14088.0859,-3835.2032L14088.0859,-3835.2032L14088.0859,-3835.2032L14088.0858,-3835.2031L14088.0858,-3835.203L14088.0846,-3835.2009L14088.0751,-3835.1855L14088.0751,-3835.1854L14088.075,-3835.1854L14088.075,-3835.1853L14088.058,-3835.1579L14088.0432,-3835.1378"/>
<path content="1,JRバス東北（株）,ブルーシティ号,1.5,1.5,1.5," xlink:title="1" d="M14088.0432,-3835.1378L14088.058,-3835.1579L14088.075,-3835.1853L14088.075,-3835.1854L14088.0751,-3835.1854L14088.0751,-3835.1855L14088.0846,-3835.2009L14088.0858,-3835.203L14088.0858,-3835.2031L14088.0859,-3835.2032L14088.0859,-3835.2032L14088.0859,-3835.2032L14088.0859,-3835.2033L14088.0859,-3835.2033L14088.0859,-3835.2033L14088.0862,-3835.2037L14088.0862,-3835.2038L14088.0862,-3835.2038L14088.0863,-3835.2039L14088.0863,-3835.2039L14088.0863,-3835.2039L14088.0863,-3835.204L14088.0864,-3835.2041L14088.0864,-3835.2041L14088.0864,-3835.2041L14088.0867,-3835.2048L14088.0977,-3835.2247L14088.1112,-3835.2495L14088.1202,-3835.2692L14088.1203,-3835.2694L14088.1203,-3835.2694L14088.1203,-3835.2694L14088.1203,-3835.2695L14088.1203,-3835.2695L14088.1203,-3835.2695L14088.1203,-3835.2696L14088.1203,-3835.2696L14088.1204,-3835.2696L14088.1204,-3835.2697L14088.1289,-3835.2884L14088.1441,-3835.3271"/>
<path content="1,JRバス東北（株）,ラ・フォーレ号,1.0,1.0,1.0," xlink:title="1" d="M14088.0432,-3835.1376L14088.0583,-3835.158L14088.075,-3835.1853L14088.075,-3835.1854L14088.0751,-3835.1854L14088.0751,-3835.1855L14088.0846,-3835.2011L14088.0855,-3835.2025L14088.0855,-3835.2026L14088.0855,-3835.2026L14088.0855,-3835.2026L14088.0856,-3835.2027L14088.0856,-3835.2027L14088.0856,-3835.2027L14088.0856,-3835.2028L14088.0857,-3835.2029L14088.0857,-3835.203L14088.0858,-3835.203L14088.0858,-3835.203L14088.0858,-3835.203L14088.0858,-3835.2031L14088.0858,-3835.2031L14088.0858,-3835.2032L14088.0859,-3835.2032L14088.0859,-3835.2032L14088.0859,-3835.2032L14088.0859,-3835.2033L14088.0859,-3835.2033L14088.0859,-3835.2033L14088.086,-3835.2034L14088.0869,-3835.2049L14088.0977,-3835.2247L14088.1113,-3835.2495L14088.1202,-3835.2692L14088.1203,-3835.2694L14088.1203,-3835.2694L14088.1203,-3835.2694L14088.1203,-3835.2695L14088.1203,-3835.2695L14088.1203,-3835.2695L14088.1203,-3835.2696L14088.1203,-3835.2696L14088.1204,-3835.2696L14088.1204,-3835.2697L14088.1289,-3835.2884L14088.1441,-3835.3271"/>
<path content="1,JRバス東北（株）,仙台～古川線,31.0,25.0,25.0," xlink:title="1" d="M14088.0432,-3835.1377L14088.049,-3835.1456L14088.0581,-3835.1579L14088.0581,-3835.1579L14088.0581,-3835.1579L14088.075,-3835.1853L14088.075,-3835.1854L14088.0751,-3835.1854L14088.0751,-3835.1855L14088.0846,-3835.2009L14088.0846,-3835.2009L14088.0846,-3835.2009L14088.0855,-3835.2025L14088.0855,-3835.2026L14088.0855,-3835.2026L14088.0855,-3835.2026L14088.0856,-3835.2027L14088.0856,-3835.2027L14088.0856,-3835.2027L14088.0856,-3835.2028L14088.0857,-3835.2029L14088.0857,-3835.203L14088.0858,-3835.203L14088.0858,-3835.203L14088.0858,-3835.203L14088.0858,-3835.2031L14088.0859,-3835.2032L14088.0859,-3835.2033L14088.0859,-3835.2033L14088.0859,-3835.2033L14088.0862,-3835.2037L14088.0862,-3835.2038L14088.0862,-3835.2038L14088.0863,-3835.2039L14088.0863,-3835.2039L14088.0863,-3835.2039L14088.0863,-3835.204L14088.0864,-3835.2041L14088.0864,-3835.2041L14088.0864,-3835.2041L14088.0868,-3835.2048L14088.0977,-3835.2247L14088.1112,-3835.2495L14088.1202,-3835.2692L14088.1203,-3835.2694L14088.1203,-3835.2694L14088.1203,-3835.2694L14088.1203,-3835.2695L14088.1203,-3835.2695L14088.1203,-3835.2695L14088.1203,-3835.2696L14088.1203,-3835.2696L14088.1204,-3835.2696L14088.1204,-3835.2697L14088.1289,-3835.2884L14088.1441,-3835.3271"/>
<path content="1,JRバス東北（株）,仙台～大館線,1.0,1.0,1.0," xlink:title="1" d="M14088.0432,-3835.1377L14088.049,-3835.1456L14088.0581,-3835.1579L14088.0581,-3835.1579L14088.0581,-3835.1579L14088.0581,-3835.1579L14088.075,-3835.1853L14088.075,-3835.1854L14088.0751,-3835.1854L14088.0751,-3835.1855L14088.0846,-3835.2009L14088.0846,-3835.2009L14088.0846,-3835.2009L14088.0846,-3835.2009L14088.0855,-3835.2025L14088.0855,-3835.2026L14088.0855,-3835.2026L14088.0855,-3835.2026L14088.0856,-3835.2027L14088.0856,-3835.2027L14088.0856,-3835.2027L14088.0856,-3835.2028L14088.0857,-3835.2029L14088.0857,-3835.203L14088.0858,-3835.203L14088.0858,-3835.203L14088.0858,-3835.203L14088.0858,-3835.2031L14088.0858,-3835.2031L14088.0858,-3835.2032L14088.0859,-3835.2032L14088.0859,-3835.2032L14088.0859,-3835.2032L14088.0859,-3835.2033L14088.0859,-3835.2033L14088.0859,-3835.2033L14088.086,-3835.2034L14088.0862,-3835.2037L14088.0862,-3835.2038L14088.0862,-3835.2038L14088.0863,-3835.2039L14088.0863,-3835.2039L14088.0863,-3835.2039L14088.0863,-3835.204L14088.0864,-3835.2041L14088.0864,-3835.2041L14088.0864,-3835.2041L14088.0868,-3835.2048L14088.0868,-3835.2048L14088.0868,-3835.2048L14088.0977,-3835.2247L14088.1112,-3835.2495L14088.1202,-3835.2692L14088.1203,-3835.2694L14088.1203,-3835.2694L14088.1203,-3835.2694L14088.1203,-3835.2695L14088.1203,-3835.2695L14088.1203,-3835.2695L14088.1203,-3835.2696L14088.1203,-3835.2696L14088.1204,-3835.2696L14088.1204,-3835.2697L14088.1289,-3835.2884L14088.1441,-3835.3271"/>
<path content="1,JRバス東北（株）,仙台～江刺・水沢線,2.0,2.0,2.0," xlink:title="1" d="M14088.0432,-3835.1378L14088.058,-3835.1579L14088.075,-3835.1853L14088.075,-3835.1854L14088.0751,-3835.1854L14088.0751,-3835.1855L14088.0846,-3835.2009L14088.0858,-3835.203L14088.0858,-3835.2031L14088.0859,-3835.2032L14088.0859,-3835.2032L14088.0859,-3835.2032L14088.0859,-3835.2033L14088.0859,-3835.2033L14088.0859,-3835.2033L14088.0862,-3835.2037L14088.0862,-3835.2038L14088.0862,-3835.2038L14088.0863,-3835.2039L14088.0863,-3835.2039L14088.0863,-3835.2039L14088.0863,-3835.204L14088.0864,-3835.2041L14088.0864,-3835.2041L14088.0864,-3835.2041L14088.0867,-3835.2048L14088.0977,-3835.2247L14088.1112,-3835.2495L14088.1202,-3835.2692L14088.1203,-3835.2694L14088.1203,-3835.2694L14088.1203,-3835.2694L14088.1203,-3835.2695L14088.1203,-3835.2695L14088.1203,-3835.2695L14088.1203,-3835.2696L14088.1203,-3835.2696L14088.1204,-3835.2696L14088.1204,-3835.2697L14088.1289,-3835.2884L14088.1441,-3835.3271"/>
<path content="1,JRバス東北（株）,仙秋号,2.0,2.0,2.0," xlink:title="1" d="M14088.0432,-3835.1378L14088.058,-3835.1579L14088.075,-3835.1853L14088.075,-3835.1854L14088.0751,-3835.1854L14088.0751,-3835.1855L14088.0846,-3835.2009L14088.0858,-3835.203L14088.0858,-3835.2031L14088.0859,-3835.2032L14088.0859,-3835.2032L14088.0859,-3835.2032L14088.0859,-3835.2033L14088.0859,-3835.2033L14088.0859,-3835.2033L14088.0862,-3835.2037L14088.0862,-3835.2038L14088.0862,-3835.2038L14088.0863,-3835.2039L14088.0863,-3835.2039L14088.0863,-3835.2039L14088.0863,-3835.204L14088.0864,-3835.2041L14088.0864,-3835.2041L14088.0864,-3835.2041L14088.0867,-3835.2048L14088.0977,-3835.2247L14088.1112,-3835.2495L14088.1202,-3835.2692L14088.1203,-3835.2694L14088.1203,-3835.2694L14088.1203,-3835.2694L14088.1203,-3835.2695L14088.1203,-3835.2695L14088.1203,-3835.2695L14088.1203,-3835.2696L14088.1203,-3835.2696L14088.1204,-3835.2696L14088.1204,-3835.2697L14088.1289,-3835.2884L14088.1441,-3835.3271"/>
<path content="1,JRバス関東（株）,ドリーム盛岡号,2.2,3.0,3.0," xlink:title="1" d="M14088.0432,-3835.1378L14088.058,-3835.1579L14088.075,-3835.1853L14088.075,-3835.1854L14088.0751,-3835.1854L14088.0751,-3835.1855L14088.0846,-3835.2009L14088.0858,-3835.203L14088.0858,-3835.2031L14088.0859,-3835.2032L14088.0859,-3835.2032L14088.0859,-3835.2032L14088.0859,-3835.2033L14088.0859,-3835.2033L14088.0859,-3835.2033L14088.0862,-3835.2037L14088.0862,-3835.2038L14088.0862,-3835.2038L14088.0863,-3835.2039L14088.0863,-3835.2039L14088.0863,-3835.2039L14088.0863,-3835.204L14088.0864,-3835.2041L14088.0864,-3835.2041L14088.0864,-3835.2041L14088.0867,-3835.2048L14088.0977,-3835.2247L14088.1112,-3835.2495L14088.1202,-3835.2692L14088.1203,-3835.2694L14088.1203,-3835.2694L14088.1203,-3835.2694L14088.1203,-3835.2695L14088.1203,-3835.2695L14088.1203,-3835.2695L14088.1203,-3835.2696L14088.1203,-3835.2696L14088.1204,-3835.2696L14088.1204,-3835.2697L14088.1289,-3835.2884L14088.1441,-3835.3271"/>
<path content="1,京浜急行バス（株）,ノクターン号,3.4,4.0,4.0," xlink:title="1" d="M14088.0432,-3835.1378L14088.058,-3835.1579L14088.075,-3835.1853L14088.075,-3835.1854L14088.0751,-3835.1854L14088.0751,-3835.1855L14088.0846,-3835.2009L14088.0858,-3835.203L14088.0858,-3835.2031L14088.0859,-3835.2032L14088.0859,-3835.2032L14088.0859,-3835.2032L14088.0859,-3835.2033L14088.0859,-3835.2033L14088.0859,-3835.2033L14088.0862,-3835.2037L14088.0862,-3835.2038L14088.0862,-3835.2038L14088.0863,-3835.2039L14088.0863,-3835.2039L14088.0863,-3835.2039L14088.0863,-3835.204L14088.0864,-3835.2041L14088.0864,-3835.2041L14088.0864,-3835.2041L14088.0867,-3835.2048L14088.0977,-3835.2247L14088.1112,-3835.2495L14088.1202,-3835.2692L14088.1203,-3835.2694L14088.1203,-3835.2694L14088.1203,-3835.2694L14088.1203,-3835.2695L14088.1203,-3835.2695L14088.1203,-3835.2695L14088.1203,-3835.2696L14088.1203,-3835.2696L14088.1204,-3835.2696L14088.1204,-3835.2697L14088.1289,-3835.2884L14088.1441,-3835.3271"/>
<path content="1,京浜急行バス（株）,ビーム号,1.0,1.0,1.0," xlink:title="1" d="M14088.1441,-3835.3271L14088.1289,-3835.2884L14088.1204,-3835.2697L14088.1204,-3835.2696L14088.1203,-3835.2696L14088.1203,-3835.2696L14088.1203,-3835.2695L14088.1203,-3835.2695L14088.1203,-3835.2695L14088.1203,-3835.2694L14088.1203,-3835.2694L14088.1203,-3835.2694L14088.1202,-3835.2692L14088.1112,-3835.2495L14088.0977,-3835.2247L14088.0867,-3835.2048L14088.0864,-3835.2041L14088.0864,-3835.2041L14088.0864,-3835.2041L14088.0863,-3835.204L14088.0863,-3835.2039L14088.0863,-3835.2039L14088.0863,-3835.2039L14088.0862,-3835.2038L14088.0862,-3835.2038L14088.0862,-3835.2037L14088.0859,-3835.2033L14088.0859,-3835.2033L14088.0859,-3835.2033L14088.0859,-3835.2032L14088.0859,-3835.2032L14088.0859,-3835.2032L14088.0858,-3835.2031L14088.0858,-3835.203L14088.0846,-3835.2009L14088.0751,-3835.1855L14088.0751,-3835.1854L14088.075,-3835.1854L14088.075,-3835.1853L14088.058,-3835.1579L14088.0432,-3835.1378"/>
<path content="1,十和田観光電鉄（株）,うみねこ号,4.0,4.0,4.0," xlink:title="1" d="M14088.1441,-3835.3271L14088.1289,-3835.2884L14088.1204,-3835.2697L14088.1204,-3835.2696L14088.1203,-3835.2696L14088.1203,-3835.2696L14088.1203,-3835.2695L14088.1203,-3835.2695L14088.1203,-3835.2695L14088.1203,-3835.2694L14088.1203,-3835.2694L14088.1203,-3835.2694L14088.1202,-3835.2692L14088.1112,-3835.2495L14088.0977,-3835.2247L14088.0868,-3835.2048L14088.0868,-3835.2048L14088.0868,-3835.2048L14088.0864,-3835.2041L14088.0864,-3835.2041L14088.0864,-3835.2041L14088.0863,-3835.204L14088.0863,-3835.2039L14088.0863,-3835.2039L14088.0863,-3835.2039L14088.0862,-3835.2038L14088.0862,-3835.2038L14088.0862,-3835.2037L14088.086,-3835.2034L14088.0859,-3835.2033L14088.0859,-3835.2033L14088.0859,-3835.2033L14088.0859,-3835.2032L14088.0859,-3835.2032L14088.0859,-3835.2032L14088.0858,-3835.2032L14088.0858,-3835.2031L14088.0858,-3835.2031L14088.0858,-3835.203L14088.0858,-3835.203L14088.0858,-3835.203L14088.0857,-3835.203L14088.0857,-3835.2029L14088.0856,-3835.2028L14088.0856,-3835.2027L14088.0856,-3835.2027L14088.0856,-3835.2027L14088.0855,-3835.2026L14088.0855,-3835.2026L14088.0855,-3835.2026L14088.0855,-3835.2025L14088.0846,-3835.2009L14088.0846,-3835.2009L14088.0846,-3835.2009L14088.0846,-3835.2009L14088.0751,-3835.1855L14088.0751,-3835.1854L14088.075,-3835.1854L14088.075,-3835.1853L14088.0581,-3835.1579L14088.0581,-3835.1579L14088.0581,-3835.1579L14088.0581,-3835.1579L14088.0491,-3835.1457L14088.049,-3835.1456L14088.0432,-3835.1378"/>
<path content="1,十和田観光電鉄（株）,シリウス号,1.0,1.0,1.0," xlink:title="1" d="M14088.1441,-3835.3271L14088.1289,-3835.2884L14088.1204,-3835.2697L14088.1204,-3835.2696L14088.1203,-3835.2696L14088.1203,-3835.2696L14088.1203,-3835.2695L14088.1203,-3835.2695L14088.1203,-3835.2695L14088.1203,-3835.2694L14088.1203,-3835.2694L14088.1203,-3835.2694L14088.1202,-3835.2692L14088.1112,-3835.2495L14088.0977,-3835.2247L14088.0868,-3835.2048L14088.0868,-3835.2048L14088.0868,-3835.2048L14088.0864,-3835.2041L14088.0864,-3835.2041L14088.0864,-3835.2041L14088.0863,-3835.204L14088.0863,-3835.2039L14088.0863,-3835.2039L14088.0863,-3835.2039L14088.0862,-3835.2038L14088.0862,-3835.2038L14088.0862,-3835.2037L14088.086,-3835.2034L14088.0859,-3835.2033L14088.0859,-3835.2033L14088.0859,-3835.2033L14088.0859,-3835.2032L14088.0859,-3835.2032L14088.0859,-3835.2032L14088.0858,-3835.2032L14088.0858,-3835.2031L14088.0858,-3835.2031L14088.0858,-3835.203L14088.0858,-3835.203L14088.0858,-3835.203L14088.0857,-3835.203L14088.0857,-3835.2029L14088.0856,-3835.2028L14088.0856,-3835.2027L14088.0856,-3835.2027L14088.0856,-3835.2027L14088.0855,-3835.2026L14088.0855,-3835.2026L14088.0855,-3835.2026L14088.0855,-3835.2025L14088.0846,-3835.2009L14088.0846,-3835.2009L14088.0846,-3835.2009L14088.0846,-3835.2009L14088.0751,-3835.1855L14088.0751,-3835.1854L14088.075,-3835.1854L14088.075,-3835.1853L14088.058,-3835.1579L14088.0432,-3835.1378"/>
<path content="1,十和田観光電鉄（株）,ブルーシティー号,6.0,6.0,6.0," xlink:title="1" d="M14088.1441,-3835.3271L14088.1289,-3835.2884L14088.1204,-3835.2697L14088.1204,-3835.2696L14088.1203,-3835.2696L14088.1203,-3835.2696L14088.1203,-3835.2695L14088.1203,-3835.2695L14088.1203,-3835.2695L14088.1203,-3835.2694L14088.1203,-3835.2694L14088.1203,-3835.2694L14088.1202,-3835.2692L14088.1112,-3835.2495L14088.0977,-3835.2247L14088.0868,-3835.2048L14088.0868,-3835.2048L14088.0868,-3835.2048L14088.0864,-3835.2041L14088.0864,-3835.2041L14088.0864,-3835.2041L14088.0863,-3835.204L14088.0863,-3835.2039L14088.0863,-3835.2039L14088.0863,-3835.2039L14088.0862,-3835.2038L14088.0862,-3835.2038L14088.0862,-3835.2037L14088.086,-3835.2034L14088.0859,-3835.2033L14088.0859,-3835.2033L14088.0859,-3835.2033L14088.0859,-3835.2032L14088.0859,-3835.2032L14088.0859,-3835.2032L14088.0858,-3835.2032L14088.0858,-3835.2031L14088.0858,-3835.2031L14088.0858,-3835.203L14088.0858,-3835.203L14088.0858,-3835.203L14088.0857,-3835.203L14088.0857,-3835.2029L14088.0856,-3835.2028L14088.0856,-3835.2027L14088.0856,-3835.2027L14088.0856,-3835.2027L14088.0855,-3835.2026L14088.0855,-3835.2026L14088.0855,-3835.2026L14088.0855,-3835.2025L14088.0846,-3835.2009L14088.0846,-3835.2009L14088.0846,-3835.2009L14088.0846,-3835.2009L14088.0751,-3835.1855L14088.0751,-3835.1854L14088.075,-3835.1854L14088.075,-3835.1853L14088.0581,-3835.1579L14088.0581,-3835.1579L14088.0581,-3835.1579L14088.0581,-3835.1579L14088.0491,-3835.1457L14088.049,-3835.1456L14088.0432,-3835.1378"/>
<path content="1,南部バス（株）,うみねこ号　仙台→八戸,4.0,4.0,4.0," xlink:title="1" d="M14088.0432,-3835.1378L14088.049,-3835.1456L14088.0491,-3835.1457L14088.0581,-3835.1579L14088.0581,-3835.1579L14088.0581,-3835.1579L14088.0581,-3835.1579L14088.075,-3835.1853L14088.075,-3835.1854L14088.0751,-3835.1854L14088.0751,-3835.1855L14088.0846,-3835.2009L14088.0846,-3835.2009L14088.0846,-3835.2009L14088.0846,-3835.2009L14088.0855,-3835.2025L14088.0855,-3835.2026L14088.0855,-3835.2026L14088.0855,-3835.2026L14088.0856,-3835.2027L14088.0856,-3835.2027L14088.0856,-3835.2027L14088.0856,-3835.2028L14088.0857,-3835.2029L14088.0857,-3835.203L14088.0858,-3835.203L14088.0858,-3835.203L14088.0858,-3835.203L14088.0858,-3835.2031L14088.0858,-3835.2031L14088.0858,-3835.2032L14088.0859,-3835.2032L14088.0859,-3835.2032L14088.0859,-3835.2032L14088.0859,-3835.2033L14088.0859,-3835.2033L14088.0859,-3835.2033L14088.086,-3835.2034L14088.0862,-3835.2037L14088.0862,-3835.2038L14088.0862,-3835.2038L14088.0863,-3835.2039L14088.0863,-3835.2039L14088.0863,-3835.2039L14088.0863,-3835.204L14088.0864,-3835.2041L14088.0864,-3835.2041L14088.0864,-3835.2041L14088.0868,-3835.2048L14088.0868,-3835.2048L14088.0868,-3835.2048L14088.0977,-3835.2247L14088.1112,-3835.2495L14088.1202,-3835.2692L14088.1203,-3835.2694L14088.1203,-3835.2694L14088.1203,-3835.2694L14088.1203,-3835.2695L14088.1203,-3835.2695L14088.1203,-3835.2695L14088.1203,-3835.2696L14088.1203,-3835.2696L14088.1204,-3835.2696L14088.1204,-3835.2697L14088.1289,-3835.2884L14088.1441,-3835.3271"/>
<path content="1,南部バス（株）,うみねこ号　八戸→仙台,4.0,4.0,4.0," xlink:title="1" d="M14088.1441,-3835.3271L14088.1289,-3835.2884L14088.1204,-3835.2697L14088.1204,-3835.2696L14088.1203,-3835.2696L14088.1203,-3835.2696L14088.1203,-3835.2695L14088.1203,-3835.2695L14088.1203,-3835.2695L14088.1203,-3835.2694L14088.1203,-3835.2694L14088.1203,-3835.2694L14088.1202,-3835.2692L14088.1112,-3835.2495L14088.0977,-3835.2247L14088.0868,-3835.2048L14088.0868,-3835.2048L14088.0868,-3835.2048L14088.0864,-3835.2041L14088.0864,-3835.2041L14088.0864,-3835.2041L14088.0863,-3835.204L14088.0863,-3835.2039L14088.0863,-3835.2039L14088.0863,-3835.2039L14088.0862,-3835.2038L14088.0862,-3835.2038L14088.0862,-3835.2037L14088.086,-3835.2034L14088.0859,-3835.2033L14088.0859,-3835.2033L14088.0859,-3835.2033L14088.0859,-3835.2032L14088.0859,-3835.2032L14088.0859,-3835.2032L14088.0858,-3835.2032L14088.0858,-3835.2031L14088.0858,-3835.2031L14088.0858,-3835.203L14088.0858,-3835.203L14088.0858,-3835.203L14088.0857,-3835.203L14088.0857,-3835.2029L14088.0856,-3835.2028L14088.0856,-3835.2027L14088.0856,-3835.2027L14088.0856,-3835.2027L14088.0855,-3835.2026L14088.0855,-3835.2026L14088.0855,-3835.2026L14088.0855,-3835.2025L14088.0846,-3835.2009L14088.0846,-3835.2009L14088.0846,-3835.2009L14088.0846,-3835.2009L14088.0751,-3835.1855L14088.0751,-3835.1854L14088.075,-3835.1854L14088.075,-3835.1853L14088.058,-3835.1579L14088.0432,-3835.1378"/>
<path content="1,国際興業（株）,けせんライナー,1.0,1.0,1.0," xlink:title="1" d="M14088.0432,-3835.1378L14088.058,-3835.1579L14088.075,-3835.1853L14088.075,-3835.1854L14088.0751,-3835.1854L14088.0751,-3835.1855L14088.0846,-3835.2009L14088.0858,-3835.203L14088.0858,-3835.2031L14088.0859,-3835.2032L14088.0859,-3835.2032L14088.0859,-3835.2032L14088.0859,-3835.2033L14088.0859,-3835.2033L14088.0859,-3835.2033L14088.0862,-3835.2037L14088.0862,-3835.2038L14088.0862,-3835.2038L14088.0863,-3835.2039L14088.0863,-3835.2039L14088.0863,-3835.2039L14088.0863,-3835.204L14088.0864,-3835.2041L14088.0864,-3835.2041L14088.0864,-3835.2041L14088.0867,-3835.2048L14088.0977,-3835.2247L14088.1112,-3835.2495L14088.1202,-3835.2692L14088.1203,-3835.2694L14088.1203,-3835.2694L14088.1203,-3835.2694L14088.1203,-3835.2695L14088.1203,-3835.2695L14088.1203,-3835.2695L14088.1203,-3835.2696L14088.1203,-3835.2696L14088.1204,-3835.2696L14088.1204,-3835.2697L14088.1289,-3835.2884L14088.1441,-3835.3271"/>
<path content="1,国際興業（株）,イーハトープ号,1.0,1.0,1.0," xlink:title="1" d="M14088.0432,-3835.1378L14088.058,-3835.1579L14088.075,-3835.1853L14088.075,-3835.1854L14088.0751,-3835.1854L14088.0751,-3835.1855L14088.0846,-3835.2009L14088.0858,-3835.203L14088.0858,-3835.2031L14088.0859,-3835.2032L14088.0859,-3835.2032L14088.0859,-3835.2032L14088.0859,-3835.2033L14088.0859,-3835.2033L14088.0859,-3835.2033L14088.0862,-3835.2037L14088.0862,-3835.2038L14088.0862,-3835.2038L14088.0863,-3835.2039L14088.0863,-3835.2039L14088.0863,-3835.2039L14088.0863,-3835.204L14088.0864,-3835.2041L14088.0864,-3835.2041L14088.0864,-3835.2041L14088.0867,-3835.2048L14088.0977,-3835.2247L14088.1112,-3835.2495L14088.1202,-3835.2692L14088.1203,-3835.2694L14088.1203,-3835.2694L14088.1203,-3835.2694L14088.1203,-3835.2695L14088.1203,-3835.2695L14088.1203,-3835.2695L14088.1203,-3835.2696L14088.1203,-3835.2696L14088.1204,-3835.2696L14088.1204,-3835.2697L14088.1289,-3835.2884L14088.1441,-3835.3271"/>
<path content="1,国際興業（株）,シリウス号,1.0,1.0,1.0," xlink:title="1" d="M14088.0432,-3835.1378L14088.058,-3835.1579L14088.075,-3835.1853L14088.075,-3835.1854L14088.0751,-3835.1854L14088.0751,-3835.1855L14088.0846,-3835.2009L14088.0858,-3835.203L14088.0858,-3835.2031L14088.0859,-3835.2032L14088.0859,-3835.2032L14088.0859,-3835.2032L14088.0859,-3835.2033L14088.0859,-3835.2033L14088.0859,-3835.2033L14088.0862,-3835.2037L14088.0862,-3835.2038L14088.0862,-3835.2038L14088.0863,-3835.2039L14088.0863,-3835.2039L14088.0863,-3835.2039L14088.0863,-3835.204L14088.0864,-3835.2041L14088.0864,-3835.2041L14088.0864,-3835.2041L14088.0867,-3835.2048L14088.0977,-3835.2247L14088.1112,-3835.2495L14088.1202,-3835.2692L14088.1203,-3835.2694L14088.1203,-3835.2694L14088.1203,-3835.2694L14088.1203,-3835.2695L14088.1203,-3835.2695L14088.1203,-3835.2695L14088.1203,-3835.2696L14088.1203,-3835.2696L14088.1204,-3835.2696L14088.1204,-3835.2697L14088.1289,-3835.2884L14088.1441,-3835.3271"/>
<path content="1,国際興業（株）,ジュピター号,1.0,1.0,1.0," xlink:title="1" d="M14088.0432,-3835.1378L14088.058,-3835.1579L14088.075,-3835.1853L14088.075,-3835.1854L14088.0751,-3835.1854L14088.0751,-3835.1855L14088.0846,-3835.2009L14088.0858,-3835.203L14088.0858,-3835.2031L14088.0859,-3835.2032L14088.0859,-3835.2032L14088.0859,-3835.2032L14088.0859,-3835.2033L14088.0859,-3835.2033L14088.0859,-3835.2033L14088.0862,-3835.2037L14088.0862,-3835.2038L14088.0862,-3835.2038L14088.0863,-3835.2039L14088.0863,-3835.2039L14088.0863,-3835.2039L14088.0863,-3835.204L14088.0864,-3835.2041L14088.0864,-3835.2041L14088.0864,-3835.2041L14088.0867,-3835.2048L14088.0977,-3835.2247L14088.1112,-3835.2495L14088.1202,-3835.2692L14088.1203,-3835.2694L14088.1203,-3835.2694L14088.1203,-3835.2694L14088.1203,-3835.2695L14088.1203,-3835.2695L14088.1203,-3835.2695L14088.1203,-3835.2696L14088.1203,-3835.2696L14088.1204,-3835.2696L14088.1204,-3835.2697L14088.1289,-3835.2884L14088.1441,-3835.3271"/>
<path content="1,国際興業（株）,ドリーム盛岡（らくちん）号,2.2,3.0,3.0," xlink:title="1" d="M14088.0432,-3835.1378L14088.058,-3835.1579L14088.075,-3835.1853L14088.075,-3835.1854L14088.0751,-3835.1854L14088.0751,-3835.1855L14088.0846,-3835.2009L14088.0858,-3835.203L14088.0858,-3835.2031L14088.0859,-3835.2032L14088.0859,-3835.2032L14088.0859,-3835.2032L14088.0859,-3835.2033L14088.0859,-3835.2033L14088.0859,-3835.2033L14088.0862,-3835.2037L14088.0862,-3835.2038L14088.0862,-3835.2038L14088.0863,-3835.2039L14088.0863,-3835.2039L14088.0863,-3835.2039L14088.0863,-3835.204L14088.0864,-3835.2041L14088.0864,-3835.2041L14088.0864,-3835.2041L14088.0867,-3835.2048L14088.0977,-3835.2247L14088.1112,-3835.2495L14088.1202,-3835.2692L14088.1203,-3835.2694L14088.1203,-3835.2694L14088.1203,-3835.2694L14088.1203,-3835.2695L14088.1203,-3835.2695L14088.1203,-3835.2695L14088.1203,-3835.2696L14088.1203,-3835.2696L14088.1204,-3835.2696L14088.1204,-3835.2697L14088.1289,-3835.2884L14088.1441,-3835.3271"/>
<path content="1,国際興業（株）,遠野・釜石号,1.0,1.0,1.0," xlink:title="1" d="M14088.0432,-3835.1378L14088.058,-3835.1579L14088.075,-3835.1853L14088.075,-3835.1854L14088.0751,-3835.1854L14088.0751,-3835.1855L14088.0846,-3835.2009L14088.0858,-3835.203L14088.0858,-3835.2031L14088.0859,-3835.2032L14088.0859,-3835.2032L14088.0859,-3835.2032L14088.0859,-3835.2033L14088.0859,-3835.2033L14088.0859,-3835.2033L14088.0862,-3835.2037L14088.0862,-3835.2038L14088.0862,-3835.2038L14088.0863,-3835.2039L14088.0863,-3835.2039L14088.0863,-3835.2039L14088.0863,-3835.204L14088.0864,-3835.2041L14088.0864,-3835.2041L14088.0864,-3835.2041L14088.0867,-3835.2048L14088.0977,-3835.2247L14088.1112,-3835.2495L14088.1202,-3835.2692L14088.1203,-3835.2694L14088.1203,-3835.2694L14088.1203,-3835.2694L14088.1203,-3835.2695L14088.1203,-3835.2695L14088.1203,-3835.2695L14088.1203,-3835.2696L14088.1203,-3835.2696L14088.1204,-3835.2696L14088.1204,-3835.2697L14088.1289,-3835.2884L14088.1441,-3835.3271"/>
<path content="1,宮城交通（株）,N28,21.5,15.5,14.5," xlink:title="1" d="M14088.3179,-3835.1463L14088.3035,-3835.151L14088.2527,-3835.1684L14088.1411,-3835.2084L14088.1239,-3835.2153L14088.0977,-3835.2247L14088.0977,-3835.2247L14088.0977,-3835.2247L14088.0719,-3835.234L14088.0432,-3835.2437"/>
<path content="1,宮城交通（株）,N29,19.0,14.0,14.0," xlink:title="1" d="M14088.3179,-3835.1463L14088.3035,-3835.151L14088.2527,-3835.1684L14088.1411,-3835.2084L14088.1239,-3835.2153L14088.0977,-3835.2247L14088.0977,-3835.2247L14088.0977,-3835.2247L14088.0719,-3835.234L14088.0432,-3835.2437"/>
<path content="1,宮城交通（株）,うみねこ,1.0,1.0,1.0," xlink:title="1" d="M14088.0432,-3835.1378L14088.058,-3835.1579L14088.075,-3835.1853L14088.075,-3835.1854L14088.0751,-3835.1854L14088.0751,-3835.1855L14088.0846,-3835.2009L14088.0846,-3835.2009L14088.0846,-3835.2009L14088.0846,-3835.2009L14088.0855,-3835.2025L14088.0855,-3835.2026L14088.0855,-3835.2026L14088.0855,-3835.2026L14088.0856,-3835.2027L14088.0856,-3835.2027L14088.0856,-3835.2027L14088.0856,-3835.2028L14088.0857,-3835.2029L14088.0857,-3835.203L14088.0858,-3835.203L14088.0858,-3835.203L14088.0858,-3835.203L14088.0858,-3835.2031L14088.0858,-3835.2031L14088.0858,-3835.2032L14088.0859,-3835.2032L14088.0859,-3835.2032L14088.0859,-3835.2032L14088.0859,-3835.2033L14088.0859,-3835.2033L14088.0859,-3835.2033L14088.086,-3835.2034L14088.0862,-3835.2037L14088.0862,-3835.2038L14088.0862,-3835.2038L14088.0863,-3835.2039L14088.0863,-3835.2039L14088.0863,-3835.2039L14088.0863,-3835.204L14088.0864,-3835.2041L14088.0864,-3835.2041L14088.0864,-3835.2041L14088.0868,-3835.2048L14088.0868,-3835.2048L14088.0868,-3835.2048L14088.0977,-3835.2247L14088.1112,-3835.2495L14088.1202,-3835.2692L14088.1203,-3835.2694L14088.1203,-3835.2694L14088.1203,-3835.2694L14088.1203,-3835.2695L14088.1203,-3835.2695L14088.1203,-3835.2695L14088.1203,-3835.2696L14088.1203,-3835.2696L14088.1204,-3835.2696L14088.1204,-3835.2697L14088.1289,-3835.2884L14088.1441,-3835.3271"/>
<path content="1,宮城交通（株）,アーバン,3.2,4.0,4.0," xlink:title="1" d="M14088.0432,-3835.1378L14088.058,-3835.1579L14088.075,-3835.1853L14088.075,-3835.1854L14088.0751,-3835.1854L14088.0751,-3835.1855L14088.0846,-3835.2009L14088.0846,-3835.2009L14088.0846,-3835.2009L14088.0846,-3835.2009L14088.0855,-3835.2025L14088.0855,-3835.2026L14088.0855,-3835.2026L14088.0855,-3835.2026L14088.0856,-3835.2027L14088.0856,-3835.2027L14088.0856,-3835.2027L14088.0856,-3835.2028L14088.0857,-3835.2029L14088.0857,-3835.203L14088.0858,-3835.203L14088.0858,-3835.203L14088.0858,-3835.203L14088.0858,-3835.2031L14088.0858,-3835.2031L14088.0858,-3835.2032L14088.0859,-3835.2032L14088.0859,-3835.2032L14088.0859,-3835.2032L14088.0859,-3835.2033L14088.0859,-3835.2033L14088.0859,-3835.2033L14088.086,-3835.2034L14088.0862,-3835.2037L14088.0862,-3835.2038L14088.0862,-3835.2038L14088.0863,-3835.2039L14088.0863,-3835.2039L14088.0863,-3835.2039L14088.0863,-3835.204L14088.0864,-3835.2041L14088.0864,-3835.2041L14088.0864,-3835.2041L14088.0868,-3835.2048L14088.0868,-3835.2048L14088.0868,-3835.2048L14088.0977,-3835.2247L14088.1112,-3835.2495L14088.1202,-3835.2692L14088.1203,-3835.2694L14088.1203,-3835.2694L14088.1203,-3835.2694L14088.1203,-3835.2695L14088.1203,-3835.2695L14088.1203,-3835.2695L14088.1203,-3835.2696L14088.1203,-3835.2696L14088.1204,-3835.2696L14088.1204,-3835.2697L14088.1289,-3835.2884L14088.1441,-3835.3271"/>
<path content="1,宮城交通（株）,キャッスル,3.0,3.0,3.0," xlink:title="1" d="M14088.0432,-3835.1378L14088.058,-3835.1579L14088.075,-3835.1853L14088.075,-3835.1854L14088.0751,-3835.1854L14088.0751,-3835.1855L14088.0846,-3835.2009L14088.0846,-3835.2009L14088.0846,-3835.2009L14088.0846,-3835.2009L14088.0855,-3835.2025L14088.0855,-3835.2026L14088.0855,-3835.2026L14088.0855,-3835.2026L14088.0856,-3835.2027L14088.0856,-3835.2027L14088.0856,-3835.2027L14088.0856,-3835.2028L14088.0857,-3835.2029L14088.0857,-3835.203L14088.0858,-3835.203L14088.0858,-3835.203L14088.0858,-3835.203L14088.0858,-3835.2031L14088.0858,-3835.2031L14088.0858,-3835.2032L14088.0859,-3835.2032L14088.0859,-3835.2032L14088.0859,-3835.2032L14088.0859,-3835.2033L14088.0859,-3835.2033L14088.0859,-3835.2033L14088.086,-3835.2034L14088.0862,-3835.2037L14088.0862,-3835.2038L14088.0862,-3835.2038L14088.0863,-3835.2039L14088.0863,-3835.2039L14088.0863,-3835.2039L14088.0863,-3835.204L14088.0864,-3835.2041L14088.0864,-3835.2041L14088.0864,-3835.2041L14088.0868,-3835.2048L14088.0868,-3835.2048L14088.0868,-3835.2048L14088.0977,-3835.2247L14088.1112,-3835.2495L14088.1202,-3835.2692L14088.1203,-3835.2694L14088.1203,-3835.2694L14088.1203,-3835.2694L14088.1203,-3835.2695L14088.1203,-3835.2695L14088.1203,-3835.2695L14088.1203,-3835.2696L14088.1203,-3835.2696L14088.1204,-3835.2696L14088.1204,-3835.2697L14088.1289,-3835.2884L14088.1441,-3835.3271"/>
<path content="1,宮城交通（株）,ブルーシティ,1.5,1.5,1.5," xlink:title="1" d="M14088.0432,-3835.1378L14088.058,-3835.1579L14088.075,-3835.1853L14088.075,-3835.1854L14088.0751,-3835.1854L14088.0751,-3835.1855L14088.0846,-3835.2009L14088.0846,-3835.2009L14088.0846,-3835.2009L14088.0846,-3835.2009L14088.0855,-3835.2025L14088.0855,-3835.2026L14088.0855,-3835.2026L14088.0855,-3835.2026L14088.0856,-3835.2027L14088.0856,-3835.2027L14088.0856,-3835.2027L14088.0856,-3835.2028L14088.0857,-3835.2029L14088.0857,-3835.203L14088.0858,-3835.203L14088.0858,-3835.203L14088.0858,-3835.203L14088.0858,-3835.2031L14088.0858,-3835.2031L14088.0858,-3835.2032L14088.0859,-3835.2032L14088.0859,-3835.2032L14088.0859,-3835.2032L14088.0859,-3835.2033L14088.0859,-3835.2033L14088.0859,-3835.2033L14088.086,-3835.2034L14088.0862,-3835.2037L14088.0862,-3835.2038L14088.0862,-3835.2038L14088.0863,-3835.2039L14088.0863,-3835.2039L14088.0863,-3835.2039L14088.0863,-3835.204L14088.0864,-3835.2041L14088.0864,-3835.2041L14088.0864,-3835.2041L14088.0868,-3835.2048L14088.0868,-3835.2048L14088.0868,-3835.2048L14088.0977,-3835.2247L14088.1112,-3835.2495L14088.1202,-3835.2692L14088.1203,-3835.2694L14088.1203,-3835.2694L14088.1203,-3835.2694L14088.1203,-3835.2695L14088.1203,-3835.2695L14088.1203,-3835.2695L14088.1203,-3835.2696L14088.1203,-3835.2696L14088.1204,-3835.2696L14088.1204,-3835.2697L14088.1289,-3835.2884L14088.1441,-3835.3271"/>
<path content="1,宮城交通（株）,仙台～佐沼線,8.0,8.0,8.0," xlink:title="1" d="M14088.0432,-3835.1377L14088.049,-3835.1456L14088.0581,-3835.1579L14088.0581,-3835.1579L14088.0581,-3835.1579L14088.075,-3835.1853L14088.075,-3835.1854L14088.0751,-3835.1854L14088.0751,-3835.1855L14088.0846,-3835.2009L14088.0846,-3835.2009L14088.0846,-3835.2009L14088.0855,-3835.2025L14088.0855,-3835.2026L14088.0855,-3835.2026L14088.0855,-3835.2026L14088.0856,-3835.2027L14088.0856,-3835.2027L14088.0856,-3835.2027L14088.0856,-3835.2028L14088.0857,-3835.2029L14088.0857,-3835.203L14088.0858,-3835.203L14088.0858,-3835.203L14088.0858,-3835.203L14088.0858,-3835.2031L14088.0858,-3835.2031L14088.0858,-3835.2032L14088.0859,-3835.2032L14088.0859,-3835.2032L14088.0859,-3835.2032L14088.0859,-3835.2033L14088.0859,-3835.2033L14088.0859,-3835.2033L14088.0862,-3835.2037L14088.0862,-3835.2038L14088.0862,-3835.2038L14088.0863,-3835.2039L14088.0863,-3835.2039L14088.0863,-3835.2039L14088.0863,-3835.204L14088.0864,-3835.2041L14088.0864,-3835.2041L14088.0864,-3835.2041L14088.0868,-3835.2048L14088.0977,-3835.2247L14088.1112,-3835.2495L14088.1202,-3835.2692L14088.1203,-3835.2694L14088.1203,-3835.2694L14088.1203,-3835.2694L14088.1203,-3835.2695L14088.1203,-3835.2695L14088.1203,-3835.2695L14088.1203,-3835.2696L14088.1203,-3835.2696L14088.1204,-3835.2696L14088.1204,-3835.2697L14088.1289,-3835.2884L14088.1441,-3835.3271"/>
<path content="1,宮城交通（株）,仙台～古川線,11.5,7.5,7.5," xlink:title="1" d="M14088.0432,-3835.1377L14088.049,-3835.1456L14088.0581,-3835.1579L14088.0581,-3835.1579L14088.0581,-3835.1579L14088.075,-3835.1853L14088.075,-3835.1854L14088.0751,-3835.1854L14088.0751,-3835.1855L14088.0846,-3835.2009L14088.0846,-3835.2009L14088.0846,-3835.2009L14088.0855,-3835.2025L14088.0855,-3835.2026L14088.0855,-3835.2026L14088.0855,-3835.2026L14088.0856,-3835.2027L14088.0856,-3835.2027L14088.0856,-3835.2027L14088.0856,-3835.2028L14088.0857,-3835.2029L14088.0857,-3835.203L14088.0858,-3835.203L14088.0858,-3835.203L14088.0858,-3835.203L14088.0858,-3835.2031L14088.0859,-3835.2032L14088.0859,-3835.2033L14088.0859,-3835.2033L14088.0859,-3835.2033L14088.0862,-3835.2037L14088.0862,-3835.2038L14088.0862,-3835.2038L14088.0863,-3835.2039L14088.0863,-3835.2039L14088.0863,-3835.2039L14088.0863,-3835.204L14088.0864,-3835.2041L14088.0864,-3835.2041L14088.0864,-3835.2041L14088.0868,-3835.2048L14088.0977,-3835.2247L14088.1112,-3835.2495L14088.1202,-3835.2692L14088.1203,-3835.2694L14088.1203,-3835.2694L14088.1203,-3835.2694L14088.1203,-3835.2695L14088.1203,-3835.2695L14088.1203,-3835.2695L14088.1203,-3835.2696L14088.1203,-3835.2696L14088.1204,-3835.2696L14088.1204,-3835.2697L14088.1289,-3835.2884L14088.1441,-3835.3271"/>
<path content="1,宮城交通（株）,仙台～大船渡線,2.0,2.0,2.0," xlink:title="1" d="M14088.0432,-3835.1378L14088.058,-3835.1579L14088.075,-3835.1853L14088.075,-3835.1854L14088.0751,-3835.1854L14088.0751,-3835.1855L14088.0846,-3835.2009L14088.0858,-3835.203L14088.0858,-3835.2031L14088.0859,-3835.2032L14088.0859,-3835.2032L14088.0859,-3835.2032L14088.0859,-3835.2033L14088.0859,-3835.2033L14088.0859,-3835.2033L14088.0862,-3835.2037L14088.0862,-3835.2038L14088.0862,-3835.2038L14088.0863,-3835.2039L14088.0863,-3835.2039L14088.0863,-3835.2039L14088.0863,-3835.204L14088.0864,-3835.2041L14088.0864,-3835.2041L14088.0864,-3835.2041L14088.0867,-3835.2048L14088.0977,-3835.2247L14088.1112,-3835.2495L14088.1202,-3835.2692L14088.1203,-3835.2694L14088.1203,-3835.2694L14088.1203,-3835.2694L14088.1203,-3835.2695L14088.1203,-3835.2695L14088.1203,-3835.2695L14088.1203,-3835.2696L14088.1203,-3835.2696L14088.1204,-3835.2696L14088.1204,-3835.2697L14088.1289,-3835.2884L14088.1441,-3835.3271"/>
<path content="1,宮城交通（株）,仙台～大衡線,6.0,6.0,6.0," xlink:title="1" d="M14088.0432,-3835.1377L14088.049,-3835.1456L14088.0581,-3835.1579L14088.0581,-3835.1579L14088.0581,-3835.1579L14088.0581,-3835.1579L14088.075,-3835.1853L14088.075,-3835.1854L14088.0751,-3835.1854L14088.0751,-3835.1855L14088.0846,-3835.2009L14088.0846,-3835.2009L14088.0846,-3835.2009L14088.0846,-3835.2009L14088.0855,-3835.2025L14088.0855,-3835.2026L14088.0855,-3835.2026L14088.0855,-3835.2026L14088.0856,-3835.2027L14088.0856,-3835.2027L14088.0856,-3835.2027L14088.0856,-3835.2028L14088.0857,-3835.2029L14088.0857,-3835.203L14088.0858,-3835.203L14088.0858,-3835.203L14088.0858,-3835.203L14088.0858,-3835.2031L14088.0858,-3835.2031L14088.0858,-3835.2032L14088.0859,-3835.2032L14088.0859,-3835.2032L14088.0859,-3835.2032L14088.0859,-3835.2033L14088.0859,-3835.2033L14088.0859,-3835.2033L14088.086,-3835.2034L14088.0862,-3835.2037L14088.0862,-3835.2038L14088.0862,-3835.2038L14088.0863,-3835.2039L14088.0863,-3835.2039L14088.0863,-3835.2039L14088.0863,-3835.204L14088.0864,-3835.2041L14088.0864,-3835.2041L14088.0864,-3835.2041L14088.0868,-3835.2048L14088.0868,-3835.2048L14088.0868,-3835.2048L14088.0977,-3835.2247L14088.1112,-3835.2495L14088.1202,-3835.2692L14088.1203,-3835.2694L14088.1203,-3835.2694L14088.1203,-3835.2694L14088.1203,-3835.2695L14088.1203,-3835.2695L14088.1203,-3835.2695L14088.1203,-3835.2696L14088.1203,-3835.2696L14088.1204,-3835.2696L14088.1204,-3835.2697L14088.1289,-3835.2884L14088.1441,-3835.3271"/>
<path content="1,宮城交通（株）,仙台～栗駒線,2.0,2.0,2.0," xlink:title="1" d="M14088.0432,-3835.1377L14088.049,-3835.1456L14088.0581,-3835.1579L14088.0581,-3835.1579L14088.0581,-3835.1579L14088.075,-3835.1853L14088.075,-3835.1854L14088.0751,-3835.1854L14088.0751,-3835.1855L14088.0846,-3835.2009L14088.0846,-3835.2009L14088.0846,-3835.2009L14088.0855,-3835.2025L14088.0855,-3835.2026L14088.0855,-3835.2026L14088.0855,-3835.2026L14088.0856,-3835.2027L14088.0856,-3835.2027L14088.0856,-3835.2027L14088.0856,-3835.2028L14088.0857,-3835.2029L14088.0857,-3835.203L14088.0858,-3835.203L14088.0858,-3835.203L14088.0858,-3835.203L14088.0858,-3835.2031L14088.0859,-3835.2032L14088.0859,-3835.2033L14088.0859,-3835.2033L14088.0859,-3835.2033L14088.0862,-3835.2037L14088.0862,-3835.2038L14088.0862,-3835.2038L14088.0863,-3835.2039L14088.0863,-3835.2039L14088.0863,-3835.2039L14088.0863,-3835.204L14088.0864,-3835.2041L14088.0864,-3835.2041L14088.0864,-3835.2041L14088.0868,-3835.2048L14088.0977,-3835.2247L14088.1112,-3835.2495L14088.1202,-3835.2692L14088.1203,-3835.2694L14088.1203,-3835.2694L14088.1203,-3835.2694L14088.1203,-3835.2695L14088.1203,-3835.2695L14088.1203,-3835.2695L14088.1203,-3835.2696L14088.1203,-3835.2696L14088.1204,-3835.2696L14088.1204,-3835.2697L14088.1289,-3835.2884L14088.1441,-3835.3271"/>
<path content="1,宮城交通（株）,仙台～気仙沼線,3.0,3.0,3.0," xlink:title="1" d="M14088.0432,-3835.1377L14088.049,-3835.1456L14088.0581,-3835.1579L14088.0581,-3835.1579L14088.0581,-3835.1579L14088.0581,-3835.1579L14088.075,-3835.1853L14088.075,-3835.1854L14088.0751,-3835.1854L14088.0751,-3835.1855L14088.0846,-3835.2009L14088.0846,-3835.2009L14088.0846,-3835.2009L14088.0846,-3835.2009L14088.0855,-3835.2025L14088.0855,-3835.2026L14088.0855,-3835.2026L14088.0855,-3835.2026L14088.0856,-3835.2027L14088.0856,-3835.2027L14088.0856,-3835.2027L14088.0856,-3835.2028L14088.0857,-3835.2029L14088.0857,-3835.203L14088.0858,-3835.203L14088.0858,-3835.203L14088.0858,-3835.203L14088.0858,-3835.2031L14088.0858,-3835.2031L14088.0858,-3835.2032L14088.0859,-3835.2032L14088.0859,-3835.2032L14088.0859,-3835.2032L14088.0859,-3835.2033L14088.0859,-3835.2033L14088.0859,-3835.2033L14088.086,-3835.2034L14088.0862,-3835.2037L14088.0862,-3835.2038L14088.0862,-3835.2038L14088.0863,-3835.2039L14088.0863,-3835.2039L14088.0863,-3835.2039L14088.0863,-3835.204L14088.0864,-3835.2041L14088.0864,-3835.2041L14088.0864,-3835.2041L14088.0868,-3835.2048L14088.0868,-3835.2048L14088.0868,-3835.2048L14088.0977,-3835.2247L14088.1112,-3835.2495L14088.1202,-3835.2692L14088.1203,-3835.2694L14088.1203,-3835.2694L14088.1203,-3835.2694L14088.1203,-3835.2695L14088.1203,-3835.2695L14088.1203,-3835.2695L14088.1203,-3835.2696L14088.1203,-3835.2696L14088.1204,-3835.2696L14088.1204,-3835.2697L14088.1289,-3835.2884L14088.1441,-3835.3271"/>
<path content="1,宮城交通（株）,仙台～釜石線,1.0,1.0,1.0," xlink:title="1" d="M14088.0432,-3835.1378L14088.058,-3835.1579L14088.075,-3835.1853L14088.075,-3835.1854L14088.0751,-3835.1854L14088.0751,-3835.1855L14088.0846,-3835.2009L14088.0846,-3835.2009L14088.0846,-3835.2009L14088.0846,-3835.2009L14088.0855,-3835.2025L14088.0855,-3835.2026L14088.0855,-3835.2026L14088.0855,-3835.2026L14088.0856,-3835.2027L14088.0856,-3835.2027L14088.0856,-3835.2027L14088.0856,-3835.2028L14088.0857,-3835.2029L14088.0857,-3835.203L14088.0858,-3835.203L14088.0858,-3835.203L14088.0858,-3835.203L14088.0858,-3835.2031L14088.0858,-3835.2031L14088.0858,-3835.2032L14088.0859,-3835.2032L14088.0859,-3835.2032L14088.0859,-3835.2032L14088.0859,-3835.2033L14088.0859,-3835.2033L14088.0859,-3835.2033L14088.086,-3835.2034L14088.0862,-3835.2037L14088.0862,-3835.2038L14088.0862,-3835.2038L14088.0863,-3835.2039L14088.0863,-3835.2039L14088.0863,-3835.2039L14088.0863,-3835.204L14088.0864,-3835.2041L14088.0864,-3835.2041L14088.0864,-3835.2041L14088.0868,-3835.2048L14088.0868,-3835.2048L14088.0868,-3835.2048L14088.0977,-3835.2247L14088.1112,-3835.2495L14088.1202,-3835.2692L14088.1203,-3835.2694L14088.1203,-3835.2694L14088.1203,-3835.2694L14088.1203,-3835.2695L14088.1203,-3835.2695L14088.1203,-3835.2695L14088.1203,-3835.2696L14088.1203,-3835.2696L14088.1204,-3835.2696L14088.1204,-3835.2697L14088.1289,-3835.2884L14088.1441,-3835.3271"/>
<path content="1,宮城交通（株）,仙台～鳴子線,3.5,3.5,3.5," xlink:title="1" d="M14088.0432,-3835.1377L14088.049,-3835.1456L14088.0581,-3835.1579L14088.0581,-3835.1579L14088.0581,-3835.1579L14088.0581,-3835.1579L14088.075,-3835.1853L14088.075,-3835.1854L14088.0751,-3835.1854L14088.0751,-3835.1855L14088.0846,-3835.2009L14088.0846,-3835.2009L14088.0846,-3835.2009L14088.0846,-3835.2009L14088.0855,-3835.2025L14088.0855,-3835.2026L14088.0855,-3835.2026L14088.0855,-3835.2026L14088.0856,-3835.2027L14088.0856,-3835.2027L14088.0856,-3835.2027L14088.0856,-3835.2028L14088.0857,-3835.2029L14088.0857,-3835.203L14088.0858,-3835.203L14088.0858,-3835.203L14088.0858,-3835.203L14088.0858,-3835.2031L14088.0858,-3835.2031L14088.0858,-3835.2032L14088.0859,-3835.2032L14088.0859,-3835.2032L14088.0859,-3835.2032L14088.0859,-3835.2033L14088.0859,-3835.2033L14088.0859,-3835.2033L14088.086,-3835.2034L14088.0862,-3835.2037L14088.0862,-3835.2038L14088.0862,-3835.2038L14088.0863,-3835.2039L14088.0863,-3835.2039L14088.0863,-3835.2039L14088.0863,-3835.204L14088.0864,-3835.2041L14088.0864,-3835.2041L14088.0864,-3835.2041L14088.0868,-3835.2048L14088.0868,-3835.2048L14088.0868,-3835.2048L14088.0977,-3835.2247L14088.1112,-3835.2495L14088.1202,-3835.2692L14088.1203,-3835.2694L14088.1203,-3835.2694L14088.1203,-3835.2694L14088.1203,-3835.2695L14088.1203,-3835.2695L14088.1203,-3835.2695L14088.1203,-3835.2696L14088.1203,-3835.2696L14088.1204,-3835.2696L14088.1204,-3835.2697L14088.1289,-3835.2884L14088.1441,-3835.3271"/>
<path content="1,宮城交通（株）,仙秋,4.0,4.0,4.0," xlink:title="1" d="M14088.0432,-3835.1378L14088.058,-3835.1579L14088.075,-3835.1853L14088.075,-3835.1854L14088.0751,-3835.1854L14088.0751,-3835.1855L14088.0846,-3835.2009L14088.0846,-3835.2009L14088.0846,-3835.2009L14088.0846,-3835.2009L14088.0855,-3835.2025L14088.0855,-3835.2026L14088.0855,-3835.2026L14088.0855,-3835.2026L14088.0856,-3835.2027L14088.0856,-3835.2027L14088.0856,-3835.2027L14088.0856,-3835.2028L14088.0857,-3835.2029L14088.0857,-3835.203L14088.0858,-3835.203L14088.0858,-3835.203L14088.0858,-3835.203L14088.0858,-3835.2031L14088.0858,-3835.2031L14088.0858,-3835.2032L14088.0859,-3835.2032L14088.0859,-3835.2032L14088.0859,-3835.2032L14088.0859,-3835.2033L14088.0859,-3835.2033L14088.0859,-3835.2033L14088.086,-3835.2034L14088.0862,-3835.2037L14088.0862,-3835.2038L14088.0862,-3835.2038L14088.0863,-3835.2039L14088.0863,-3835.2039L14088.0863,-3835.2039L14088.0863,-3835.204L14088.0864,-3835.2041L14088.0864,-3835.2041L14088.0864,-3835.2041L14088.0868,-3835.2048L14088.0868,-3835.2048L14088.0868,-3835.2048L14088.0977,-3835.2247L14088.1112,-3835.2495L14088.1202,-3835.2692L14088.1203,-3835.2694L14088.1203,-3835.2694L14088.1203,-3835.2694L14088.1203,-3835.2695L14088.1203,-3835.2695L14088.1203,-3835.2695L14088.1203,-3835.2696L14088.1203,-3835.2696L14088.1204,-3835.2696L14088.1204,-3835.2697L14088.1289,-3835.2884L14088.1441,-3835.3271"/>
<path content="1,宮城交通（株）,南三陸～仙台線,3.0,3.0,3.0," xlink:title="1" d="M14088.0432,-3835.1377L14088.049,-3835.1456L14088.0581,-3835.1579L14088.0581,-3835.1579L14088.0581,-3835.1579L14088.075,-3835.1853L14088.075,-3835.1854L14088.0751,-3835.1854L14088.0751,-3835.1855L14088.0846,-3835.2009L14088.0846,-3835.2009L14088.0846,-3835.2009L14088.0855,-3835.2025L14088.0855,-3835.2026L14088.0855,-3835.2026L14088.0855,-3835.2026L14088.0856,-3835.2027L14088.0856,-3835.2027L14088.0856,-3835.2027L14088.0856,-3835.2028L14088.0857,-3835.2029L14088.0857,-3835.203L14088.0858,-3835.203L14088.0858,-3835.203L14088.0858,-3835.203L14088.0858,-3835.2031L14088.0858,-3835.2031L14088.0858,-3835.2032L14088.0859,-3835.2032L14088.0859,-3835.2032L14088.0859,-3835.2032L14088.0859,-3835.2033L14088.0859,-3835.2033L14088.0859,-3835.2033L14088.0862,-3835.2037L14088.0862,-3835.2038L14088.0862,-3835.2038L14088.0863,-3835.2039L14088.0863,-3835.2039L14088.0863,-3835.2039L14088.0863,-3835.204L14088.0864,-3835.2041L14088.0864,-3835.2041L14088.0864,-3835.2041L14088.0868,-3835.2048L14088.0977,-3835.2247L14088.1112,-3835.2495L14088.1202,-3835.2692L14088.1203,-3835.2694L14088.1203,-3835.2694L14088.1203,-3835.2694L14088.1203,-3835.2695L14088.1203,-3835.2695L14088.1203,-3835.2695L14088.1203,-3835.2696L14088.1203,-3835.2696L14088.1204,-3835.2696L14088.1204,-3835.2697L14088.1289,-3835.2884L14088.1441,-3835.3271"/>
<path content="1,小田急シティバス（株）,フローラ号,1.0,1.0,1.0," xlink:title="1" d="M14088.0432,-3835.1378L14088.058,-3835.1579L14088.075,-3835.1853L14088.075,-3835.1854L14088.0751,-3835.1854L14088.0751,-3835.1855L14088.0846,-3835.2009L14088.0858,-3835.203L14088.0858,-3835.2031L14088.0859,-3835.2032L14088.0859,-3835.2032L14088.0859,-3835.2032L14088.0859,-3835.2033L14088.0859,-3835.2033L14088.0859,-3835.2033L14088.0862,-3835.2037L14088.0862,-3835.2038L14088.0862,-3835.2038L14088.0863,-3835.2039L14088.0863,-3835.2039L14088.0863,-3835.2039L14088.0863,-3835.204L14088.0864,-3835.2041L14088.0864,-3835.2041L14088.0864,-3835.2041L14088.0867,-3835.2048L14088.0977,-3835.2247L14088.1112,-3835.2495L14088.1202,-3835.2692L14088.1203,-3835.2694L14088.1203,-3835.2694L14088.1203,-3835.2694L14088.1203,-3835.2695L14088.1203,-3835.2695L14088.1203,-3835.2695L14088.1203,-3835.2696L14088.1203,-3835.2696L14088.1204,-3835.2696L14088.1204,-3835.2697L14088.1289,-3835.2884L14088.1441,-3835.3271"/>
<path content="1,小田急バス（株）,フローラ号,1.0,1.0,1.0," xlink:title="1" d="M14088.0432,-3835.1378L14088.058,-3835.1579L14088.075,-3835.1853L14088.075,-3835.1854L14088.0751,-3835.1854L14088.0751,-3835.1855L14088.0846,-3835.2009L14088.0858,-3835.203L14088.0858,-3835.2031L14088.0859,-3835.2032L14088.0859,-3835.2032L14088.0859,-3835.2032L14088.0859,-3835.2033L14088.0859,-3835.2033L14088.0859,-3835.2033L14088.0862,-3835.2037L14088.0862,-3835.2038L14088.0862,-3835.2038L14088.0863,-3835.2039L14088.0863,-3835.2039L14088.0863,-3835.2039L14088.0863,-3835.204L14088.0864,-3835.2041L14088.0864,-3835.2041L14088.0864,-3835.2041L14088.0867,-3835.2048L14088.0977,-3835.2247L14088.1112,-3835.2495L14088.1202,-3835.2692L14088.1203,-3835.2694L14088.1203,-3835.2694L14088.1203,-3835.2694L14088.1203,-3835.2695L14088.1203,-3835.2695L14088.1203,-3835.2695L14088.1203,-3835.2696L14088.1203,-3835.2696L14088.1204,-3835.2696L14088.1204,-3835.2697L14088.1289,-3835.2884L14088.1441,-3835.3271"/>
<path content="1,岩手急行バス（株）,一ノ関仙台線,19.0,19.0,19.0," xlink:title="1" d="M14088.0432,-3835.1377L14088.049,-3835.1456L14088.0581,-3835.1579L14088.0581,-3835.1579L14088.0581,-3835.1579L14088.0581,-3835.1579L14088.075,-3835.1853L14088.075,-3835.1854L14088.0751,-3835.1854L14088.0751,-3835.1855L14088.0846,-3835.2009L14088.0846,-3835.2009L14088.0846,-3835.2009L14088.0846,-3835.2009L14088.0855,-3835.2025L14088.0855,-3835.2026L14088.0855,-3835.2026L14088.0855,-3835.2026L14088.0856,-3835.2027L14088.0856,-3835.2027L14088.0856,-3835.2027L14088.0856,-3835.2028L14088.0857,-3835.2029L14088.0857,-3835.203L14088.0858,-3835.203L14088.0858,-3835.203L14088.0858,-3835.203L14088.0858,-3835.2031L14088.0858,-3835.2031L14088.0858,-3835.2032L14088.0859,-3835.2032L14088.0859,-3835.2032L14088.0859,-3835.2032L14088.0859,-3835.2033L14088.0859,-3835.2033L14088.0859,-3835.2033L14088.086,-3835.2034L14088.0862,-3835.2037L14088.0862,-3835.2038L14088.0862,-3835.2038L14088.0863,-3835.2039L14088.0863,-3835.2039L14088.0863,-3835.2039L14088.0863,-3835.204L14088.0864,-3835.2041L14088.0864,-3835.2041L14088.0864,-3835.2041L14088.0868,-3835.2048L14088.0868,-3835.2048L14088.0868,-3835.2048L14088.0977,-3835.2247L14088.1112,-3835.2495L14088.1202,-3835.2692L14088.1203,-3835.2694L14088.1203,-3835.2694L14088.1203,-3835.2694L14088.1203,-3835.2695L14088.1203,-3835.2695L14088.1203,-3835.2695L14088.1203,-3835.2696L14088.1203,-3835.2696L14088.1204,-3835.2696L14088.1204,-3835.2697L14088.1289,-3835.2884L14088.1441,-3835.3271"/>
<path content="1,岩手県交通（株）,けせんライナー,1.0,1.0,1.0," xlink:title="1" d="M14088.0432,-3835.1378L14088.058,-3835.1579L14088.075,-3835.1853L14088.075,-3835.1854L14088.0751,-3835.1854L14088.0751,-3835.1855L14088.0846,-3835.2009L14088.0858,-3835.203L14088.0858,-3835.2031L14088.0859,-3835.2032L14088.0859,-3835.2032L14088.0859,-3835.2032L14088.0859,-3835.2033L14088.0859,-3835.2033L14088.0859,-3835.2033L14088.0862,-3835.2037L14088.0862,-3835.2038L14088.0862,-3835.2038L14088.0863,-3835.2039L14088.0863,-3835.2039L14088.0863,-3835.2039L14088.0863,-3835.204L14088.0864,-3835.2041L14088.0864,-3835.2041L14088.0864,-3835.2041L14088.0867,-3835.2048L14088.0977,-3835.2247L14088.1112,-3835.2495L14088.1202,-3835.2692L14088.1203,-3835.2694L14088.1203,-3835.2694L14088.1203,-3835.2694L14088.1203,-3835.2695L14088.1203,-3835.2695L14088.1203,-3835.2695L14088.1203,-3835.2696L14088.1203,-3835.2696L14088.1204,-3835.2696L14088.1204,-3835.2697L14088.1289,-3835.2884L14088.1441,-3835.3271"/>
<path content="1,岩手県交通（株）,けんじライナー,2.0,2.0,2.0," xlink:title="1" d="M14088.0432,-3835.1377L14088.049,-3835.1456L14088.0581,-3835.1579L14088.0581,-3835.1579L14088.0581,-3835.1579L14088.0581,-3835.1579L14088.075,-3835.1853L14088.075,-3835.1854L14088.0751,-3835.1854L14088.0751,-3835.1855L14088.0846,-3835.2009L14088.0846,-3835.2009L14088.0846,-3835.2009L14088.0846,-3835.2009L14088.0855,-3835.2025L14088.0855,-3835.2026L14088.0855,-3835.2026L14088.0855,-3835.2026L14088.0856,-3835.2027L14088.0856,-3835.2027L14088.0856,-3835.2027L14088.0856,-3835.2028L14088.0857,-3835.2029L14088.0857,-3835.203L14088.0858,-3835.203L14088.0858,-3835.203L14088.0858,-3835.203L14088.0858,-3835.2031L14088.0858,-3835.2031L14088.0858,-3835.2032L14088.0859,-3835.2032L14088.0859,-3835.2032L14088.0859,-3835.2032L14088.0859,-3835.2033L14088.0859,-3835.2033L14088.0859,-3835.2033L14088.086,-3835.2034L14088.0862,-3835.2037L14088.0862,-3835.2038L14088.0862,-3835.2038L14088.0863,-3835.2039L14088.0863,-3835.2039L14088.0863,-3835.2039L14088.0863,-3835.204L14088.0864,-3835.2041L14088.0864,-3835.2041L14088.0864,-3835.2041L14088.0868,-3835.2048L14088.0868,-3835.2048L14088.0868,-3835.2048L14088.0977,-3835.2247L14088.1112,-3835.2495L14088.1202,-3835.2692L14088.1203,-3835.2694L14088.1203,-3835.2694L14088.1203,-3835.2694L14088.1203,-3835.2695L14088.1203,-3835.2695L14088.1203,-3835.2695L14088.1203,-3835.2696L14088.1203,-3835.2696L14088.1204,-3835.2696L14088.1204,-3835.2697L14088.1289,-3835.2884L14088.1441,-3835.3271"/>
<path content="1,岩手県交通（株）,アーバン号,3.2,4.0,4.0," xlink:title="1" d="M14088.0432,-3835.1377L14088.049,-3835.1456L14088.0581,-3835.1579L14088.0581,-3835.1579L14088.0581,-3835.1579L14088.0581,-3835.1579L14088.075,-3835.1853L14088.075,-3835.1854L14088.0751,-3835.1854L14088.0751,-3835.1855L14088.0846,-3835.2009L14088.0846,-3835.2009L14088.0846,-3835.2009L14088.0846,-3835.2009L14088.0855,-3835.2025L14088.0855,-3835.2026L14088.0855,-3835.2026L14088.0855,-3835.2026L14088.0856,-3835.2027L14088.0856,-3835.2027L14088.0856,-3835.2027L14088.0856,-3835.2028L14088.0857,-3835.2029L14088.0857,-3835.203L14088.0858,-3835.203L14088.0858,-3835.203L14088.0858,-3835.203L14088.0858,-3835.2031L14088.0858,-3835.2031L14088.0858,-3835.2032L14088.0859,-3835.2032L14088.0859,-3835.2032L14088.0859,-3835.2032L14088.0859,-3835.2033L14088.0859,-3835.2033L14088.0859,-3835.2033L14088.086,-3835.2034L14088.0862,-3835.2037L14088.0862,-3835.2038L14088.0862,-3835.2038L14088.0863,-3835.2039L14088.0863,-3835.2039L14088.0863,-3835.2039L14088.0863,-3835.204L14088.0864,-3835.2041L14088.0864,-3835.2041L14088.0864,-3835.2041L14088.0868,-3835.2048L14088.0868,-3835.2048L14088.0868,-3835.2048L14088.0977,-3835.2247L14088.1112,-3835.2495L14088.1202,-3835.2692L14088.1203,-3835.2694L14088.1203,-3835.2694L14088.1203,-3835.2694L14088.1203,-3835.2695L14088.1203,-3835.2695L14088.1203,-3835.2695L14088.1203,-3835.2696L14088.1203,-3835.2696L14088.1204,-3835.2696L14088.1204,-3835.2697L14088.1289,-3835.2884L14088.1441,-3835.3271"/>
<path content="1,岩手県交通（株）,イーハトーブ号,1.0,1.0,1.0," xlink:title="1" d="M14088.0432,-3835.1378L14088.058,-3835.1579L14088.075,-3835.1853L14088.075,-3835.1854L14088.0751,-3835.1854L14088.0751,-3835.1855L14088.0846,-3835.2009L14088.0858,-3835.203L14088.0858,-3835.2031L14088.0859,-3835.2032L14088.0859,-3835.2032L14088.0859,-3835.2032L14088.0859,-3835.2033L14088.0859,-3835.2033L14088.0859,-3835.2033L14088.0862,-3835.2037L14088.0862,-3835.2038L14088.0862,-3835.2038L14088.0863,-3835.2039L14088.0863,-3835.2039L14088.0863,-3835.2039L14088.0863,-3835.204L14088.0864,-3835.2041L14088.0864,-3835.2041L14088.0864,-3835.2041L14088.0867,-3835.2048L14088.0977,-3835.2247L14088.1112,-3835.2495L14088.1202,-3835.2692L14088.1203,-3835.2694L14088.1203,-3835.2694L14088.1203,-3835.2694L14088.1203,-3835.2695L14088.1203,-3835.2695L14088.1203,-3835.2695L14088.1203,-3835.2696L14088.1203,-3835.2696L14088.1204,-3835.2696L14088.1204,-3835.2697L14088.1289,-3835.2884L14088.1441,-3835.3271"/>
<path content="1,岩手県交通（株）,ドリーム盛岡（らくちん）号,2.3,3.0,3.0," xlink:title="1" d="M14088.0432,-3835.1378L14088.058,-3835.1579L14088.075,-3835.1853L14088.075,-3835.1854L14088.0751,-3835.1854L14088.0751,-3835.1855L14088.0846,-3835.2009L14088.0858,-3835.203L14088.0858,-3835.2031L14088.0859,-3835.2032L14088.0859,-3835.2032L14088.0859,-3835.2032L14088.0859,-3835.2033L14088.0859,-3835.2033L14088.0859,-3835.2033L14088.0862,-3835.2037L14088.0862,-3835.2038L14088.0862,-3835.2038L14088.0863,-3835.2039L14088.0863,-3835.2039L14088.0863,-3835.2039L14088.0863,-3835.204L14088.0864,-3835.2041L14088.0864,-3835.2041L14088.0864,-3835.2041L14088.0867,-3835.2048L14088.0977,-3835.2247L14088.1112,-3835.2495L14088.1202,-3835.2692L14088.1203,-3835.2694L14088.1203,-3835.2694L14088.1203,-3835.2694L14088.1203,-3835.2695L14088.1203,-3835.2695L14088.1203,-3835.2695L14088.1203,-3835.2696L14088.1203,-3835.2696L14088.1204,-3835.2696L14088.1204,-3835.2697L14088.1289,-3835.2884L14088.1441,-3835.3271"/>
<path content="1,岩手県交通（株）,一関・仙台線,0.5,0.5,0.5," xlink:title="1" d="M14088.1441,-3835.3271L14088.1289,-3835.2884L14088.1204,-3835.2697L14088.1204,-3835.2696L14088.1203,-3835.2696L14088.1203,-3835.2696L14088.1203,-3835.2695L14088.1203,-3835.2695L14088.1203,-3835.2695L14088.1203,-3835.2694L14088.1203,-3835.2694L14088.1203,-3835.2694L14088.1202,-3835.2692L14088.1112,-3835.2495L14088.0977,-3835.2247L14088.0868,-3835.2048L14088.0868,-3835.2048L14088.0868,-3835.2048L14088.0864,-3835.2041L14088.0864,-3835.2041L14088.0864,-3835.2041L14088.0863,-3835.204L14088.0863,-3835.2039L14088.0863,-3835.2039L14088.0863,-3835.2039L14088.0862,-3835.2038L14088.0862,-3835.2038L14088.0862,-3835.2037L14088.086,-3835.2034L14088.0859,-3835.2033L14088.0859,-3835.2033L14088.0859,-3835.2033L14088.0859,-3835.2032L14088.0859,-3835.2032L14088.0859,-3835.2032L14088.0858,-3835.2032L14088.0858,-3835.2031L14088.0858,-3835.2031L14088.0858,-3835.203L14088.0858,-3835.203L14088.0858,-3835.203L14088.0857,-3835.203L14088.0857,-3835.2029L14088.0856,-3835.2028L14088.0856,-3835.2027L14088.0856,-3835.2027L14088.0856,-3835.2027L14088.0855,-3835.2026L14088.0855,-3835.2026L14088.0855,-3835.2026L14088.0855,-3835.2025L14088.0846,-3835.2009L14088.0846,-3835.2009L14088.0846,-3835.2009L14088.0846,-3835.2009L14088.0751,-3835.1855L14088.0751,-3835.1854L14088.075,-3835.1854L14088.075,-3835.1853L14088.0581,-3835.1579L14088.0581,-3835.1579L14088.0581,-3835.1579L14088.0581,-3835.1579L14088.049,-3835.1456L14088.0432,-3835.1377"/>
<path content="1,岩手県交通（株）,大船渡・仙台線,2.0,2.0,2.0," xlink:title="1" d="M14088.1441,-3835.3271L14088.1289,-3835.2884L14088.1204,-3835.2697L14088.1204,-3835.2696L14088.1203,-3835.2696L14088.1203,-3835.2696L14088.1203,-3835.2695L14088.1203,-3835.2695L14088.1203,-3835.2695L14088.1203,-3835.2694L14088.1203,-3835.2694L14088.1203,-3835.2694L14088.1202,-3835.2692L14088.1112,-3835.2495L14088.0977,-3835.2247L14088.0868,-3835.2048L14088.0868,-3835.2048L14088.0868,-3835.2048L14088.0864,-3835.2041L14088.0864,-3835.2041L14088.0864,-3835.2041L14088.0863,-3835.204L14088.0863,-3835.2039L14088.0863,-3835.2039L14088.0863,-3835.2039L14088.0862,-3835.2038L14088.0862,-3835.2038L14088.0862,-3835.2037L14088.086,-3835.2034L14088.0859,-3835.2033L14088.0859,-3835.2033L14088.0859,-3835.2033L14088.0859,-3835.2032L14088.0859,-3835.2032L14088.0859,-3835.2032L14088.0858,-3835.2032L14088.0858,-3835.2031L14088.0858,-3835.2031L14088.0858,-3835.203L14088.0858,-3835.203L14088.0858,-3835.203L14088.0857,-3835.203L14088.0857,-3835.2029L14088.0856,-3835.2028L14088.0856,-3835.2027L14088.0856,-3835.2027L14088.0856,-3835.2027L14088.0855,-3835.2026L14088.0855,-3835.2026L14088.0855,-3835.2026L14088.0855,-3835.2025L14088.0846,-3835.2009L14088.0846,-3835.2009L14088.0846,-3835.2009L14088.0846,-3835.2009L14088.0751,-3835.1855L14088.0751,-3835.1854L14088.075,-3835.1854L14088.075,-3835.1853L14088.0581,-3835.1579L14088.0581,-3835.1579L14088.0581,-3835.1579L14088.0581,-3835.1579L14088.049,-3835.1456L14088.0432,-3835.1377"/>
<path content="1,岩手県交通（株）,平泉中尊寺号,0.5,0.5,0.5," xlink:title="1" d="M14088.0432,-3835.1377L14088.049,-3835.1456L14088.0581,-3835.1579L14088.0581,-3835.1579L14088.0581,-3835.1579L14088.0581,-3835.1579L14088.075,-3835.1853L14088.075,-3835.1854L14088.0751,-3835.1854L14088.0751,-3835.1855L14088.0846,-3835.2009L14088.0846,-3835.2009L14088.0846,-3835.2009L14088.0846,-3835.2009L14088.0855,-3835.2025L14088.0855,-3835.2026L14088.0855,-3835.2026L14088.0855,-3835.2026L14088.0856,-3835.2027L14088.0856,-3835.2027L14088.0856,-3835.2027L14088.0856,-3835.2028L14088.0857,-3835.2029L14088.0857,-3835.203L14088.0858,-3835.203L14088.0858,-3835.203L14088.0858,-3835.203L14088.0858,-3835.2031L14088.0858,-3835.2031L14088.0858,-3835.2032L14088.0859,-3835.2032L14088.0859,-3835.2032L14088.0859,-3835.2032L14088.0859,-3835.2033L14088.0859,-3835.2033L14088.0859,-3835.2033L14088.086,-3835.2034L14088.0862,-3835.2037L14088.0862,-3835.2038L14088.0862,-3835.2038L14088.0863,-3835.2039L14088.0863,-3835.2039L14088.0863,-3835.2039L14088.0863,-3835.204L14088.0864,-3835.2041L14088.0864,-3835.2041L14088.0864,-3835.2041L14088.0868,-3835.2048L14088.0868,-3835.2048L14088.0868,-3835.2048L14088.0977,-3835.2247L14088.1112,-3835.2495L14088.1202,-3835.2692L14088.1203,-3835.2694L14088.1203,-3835.2694L14088.1203,-3835.2694L14088.1203,-3835.2695L14088.1203,-3835.2695L14088.1203,-3835.2695L14088.1203,-3835.2696L14088.1203,-3835.2696L14088.1204,-3835.2696L14088.1204,-3835.2697L14088.1289,-3835.2884L14088.1441,-3835.3271"/>
<path content="1,岩手県交通（株）,江刺・仙台線,2.0,2.0,2.0," xlink:title="1" d="M14088.0432,-3835.1377L14088.049,-3835.1456L14088.0581,-3835.1579L14088.0581,-3835.1579L14088.0581,-3835.1579L14088.0581,-3835.1579L14088.075,-3835.1853L14088.075,-3835.1854L14088.0751,-3835.1854L14088.0751,-3835.1855L14088.0846,-3835.2009L14088.0846,-3835.2009L14088.0846,-3835.2009L14088.0846,-3835.2009L14088.0855,-3835.2025L14088.0855,-3835.2026L14088.0855,-3835.2026L14088.0855,-3835.2026L14088.0856,-3835.2027L14088.0856,-3835.2027L14088.0856,-3835.2027L14088.0856,-3835.2028L14088.0857,-3835.2029L14088.0857,-3835.203L14088.0858,-3835.203L14088.0858,-3835.203L14088.0858,-3835.203L14088.0858,-3835.2031L14088.0858,-3835.2031L14088.0858,-3835.2032L14088.0859,-3835.2032L14088.0859,-3835.2032L14088.0859,-3835.2032L14088.0859,-3835.2033L14088.0859,-3835.2033L14088.0859,-3835.2033L14088.086,-3835.2034L14088.0862,-3835.2037L14088.0862,-3835.2038L14088.0862,-3835.2038L14088.0863,-3835.2039L14088.0863,-3835.2039L14088.0863,-3835.2039L14088.0863,-3835.204L14088.0864,-3835.2041L14088.0864,-3835.2041L14088.0864,-3835.2041L14088.0868,-3835.2048L14088.0868,-3835.2048L14088.0868,-3835.2048L14088.0977,-3835.2247L14088.1112,-3835.2495L14088.1202,-3835.2692L14088.1203,-3835.2694L14088.1203,-3835.2694L14088.1203,-3835.2694L14088.1203,-3835.2695L14088.1203,-3835.2695L14088.1203,-3835.2695L14088.1203,-3835.2696L14088.1203,-3835.2696L14088.1204,-3835.2696L14088.1204,-3835.2697L14088.1289,-3835.2884L14088.1441,-3835.3271"/>
<path content="1,岩手県交通（株）,盛岡・横浜線,1.0,1.0,1.0," xlink:title="1" d="M14088.0432,-3835.1378L14088.058,-3835.1579L14088.075,-3835.1853L14088.075,-3835.1854L14088.0751,-3835.1854L14088.0751,-3835.1855L14088.0846,-3835.2009L14088.0858,-3835.203L14088.0858,-3835.2031L14088.0859,-3835.2032L14088.0859,-3835.2032L14088.0859,-3835.2032L14088.0859,-3835.2033L14088.0859,-3835.2033L14088.0859,-3835.2033L14088.0862,-3835.2037L14088.0862,-3835.2038L14088.0862,-3835.2038L14088.0863,-3835.2039L14088.0863,-3835.2039L14088.0863,-3835.2039L14088.0863,-3835.204L14088.0864,-3835.2041L14088.0864,-3835.2041L14088.0864,-3835.2041L14088.0867,-3835.2048L14088.0977,-3835.2247L14088.1112,-3835.2495L14088.1202,-3835.2692L14088.1203,-3835.2694L14088.1203,-3835.2694L14088.1203,-3835.2694L14088.1203,-3835.2695L14088.1203,-3835.2695L14088.1203,-3835.2695L14088.1203,-3835.2696L14088.1203,-3835.2696L14088.1204,-3835.2696L14088.1204,-3835.2697L14088.1289,-3835.2884L14088.1441,-3835.3271"/>
<path content="1,岩手県交通（株）,遠野・釜石号,1.0,1.0,1.0," xlink:title="1" d="M14088.0432,-3835.1378L14088.058,-3835.1579L14088.075,-3835.1853L14088.075,-3835.1854L14088.0751,-3835.1854L14088.0751,-3835.1855L14088.0846,-3835.2009L14088.0858,-3835.203L14088.0858,-3835.2031L14088.0859,-3835.2032L14088.0859,-3835.2032L14088.0859,-3835.2032L14088.0859,-3835.2033L14088.0859,-3835.2033L14088.0859,-3835.2033L14088.0862,-3835.2037L14088.0862,-3835.2038L14088.0862,-3835.2038L14088.0863,-3835.2039L14088.0863,-3835.2039L14088.0863,-3835.2039L14088.0863,-3835.204L14088.0864,-3835.2041L14088.0864,-3835.2041L14088.0864,-3835.2041L14088.0867,-3835.2048L14088.0977,-3835.2247L14088.1112,-3835.2495L14088.1202,-3835.2692L14088.1203,-3835.2694L14088.1203,-3835.2694L14088.1203,-3835.2694L14088.1203,-3835.2695L14088.1203,-3835.2695L14088.1203,-3835.2695L14088.1203,-3835.2696L14088.1203,-3835.2696L14088.1204,-3835.2696L14088.1204,-3835.2697L14088.1289,-3835.2884L14088.1441,-3835.3271"/>
<path content="1,岩手県交通（株）,釜石・仙台線,1.0,1.0,1.0," xlink:title="1" d="M14088.1441,-3835.3271L14088.1289,-3835.2884L14088.1204,-3835.2697L14088.1204,-3835.2696L14088.1203,-3835.2696L14088.1203,-3835.2696L14088.1203,-3835.2695L14088.1203,-3835.2695L14088.1203,-3835.2695L14088.1203,-3835.2694L14088.1203,-3835.2694L14088.1203,-3835.2694L14088.1202,-3835.2692L14088.1112,-3835.2495L14088.0977,-3835.2247L14088.0868,-3835.2048L14088.0868,-3835.2048L14088.0868,-3835.2048L14088.0864,-3835.2041L14088.0864,-3835.2041L14088.0864,-3835.2041L14088.0863,-3835.204L14088.0863,-3835.2039L14088.0863,-3835.2039L14088.0863,-3835.2039L14088.0862,-3835.2038L14088.0862,-3835.2038L14088.0862,-3835.2037L14088.086,-3835.2034L14088.0859,-3835.2033L14088.0859,-3835.2033L14088.0859,-3835.2033L14088.0859,-3835.2032L14088.0859,-3835.2032L14088.0859,-3835.2032L14088.0858,-3835.2032L14088.0858,-3835.2031L14088.0858,-3835.2031L14088.0858,-3835.203L14088.0858,-3835.203L14088.0858,-3835.203L14088.0857,-3835.203L14088.0857,-3835.2029L14088.0856,-3835.2028L14088.0856,-3835.2027L14088.0856,-3835.2027L14088.0856,-3835.2027L14088.0855,-3835.2026L14088.0855,-3835.2026L14088.0855,-3835.2026L14088.0855,-3835.2025L14088.0846,-3835.2009L14088.0846,-3835.2009L14088.0846,-3835.2009L14088.0846,-3835.2009L14088.0751,-3835.1855L14088.0751,-3835.1854L14088.075,-3835.1854L14088.075,-3835.1853L14088.0581,-3835.1579L14088.0581,-3835.1579L14088.0581,-3835.1579L14088.0581,-3835.1579L14088.049,-3835.1456L14088.0432,-3835.1377"/>
<path content="1,岩手県北自動車（株）,BEAM-1　宮古・盛岡南⇔浜松町・品川,1.0,1.0,1.0," xlink:title="1" d="M14088.0432,-3835.1378L14088.058,-3835.1579L14088.075,-3835.1853L14088.075,-3835.1854L14088.0751,-3835.1854L14088.0751,-3835.1855L14088.0846,-3835.2009L14088.0858,-3835.203L14088.0858,-3835.2031L14088.0859,-3835.2032L14088.0859,-3835.2032L14088.0859,-3835.2032L14088.0859,-3835.2033L14088.0859,-3835.2033L14088.0859,-3835.2033L14088.0862,-3835.2037L14088.0862,-3835.2038L14088.0862,-3835.2038L14088.0863,-3835.2039L14088.0863,-3835.2039L14088.0863,-3835.2039L14088.0863,-3835.204L14088.0864,-3835.2041L14088.0864,-3835.2041L14088.0864,-3835.2041L14088.0867,-3835.2048L14088.0977,-3835.2247L14088.1112,-3835.2495L14088.1202,-3835.2692L14088.1203,-3835.2694L14088.1203,-3835.2694L14088.1203,-3835.2694L14088.1203,-3835.2695L14088.1203,-3835.2695L14088.1203,-3835.2695L14088.1203,-3835.2696L14088.1203,-3835.2696L14088.1204,-3835.2696L14088.1204,-3835.2697L14088.1289,-3835.2884L14088.1441,-3835.3271"/>
<path content="1,岩手県北自動車（株）,アーバン号　盛岡⇔仙台,3.2,4.0,4.0," xlink:title="1" d="M14088.0432,-3835.1377L14088.049,-3835.1456L14088.0581,-3835.1579L14088.0581,-3835.1579L14088.0581,-3835.1579L14088.0581,-3835.1579L14088.075,-3835.1853L14088.075,-3835.1854L14088.0751,-3835.1854L14088.0751,-3835.1855L14088.0846,-3835.2009L14088.0846,-3835.2009L14088.0846,-3835.2009L14088.0846,-3835.2009L14088.0855,-3835.2025L14088.0855,-3835.2026L14088.0855,-3835.2026L14088.0855,-3835.2026L14088.0856,-3835.2027L14088.0856,-3835.2027L14088.0856,-3835.2027L14088.0856,-3835.2028L14088.0857,-3835.2029L14088.0857,-3835.203L14088.0858,-3835.203L14088.0858,-3835.203L14088.0858,-3835.203L14088.0858,-3835.2031L14088.0858,-3835.2031L14088.0858,-3835.2032L14088.0859,-3835.2032L14088.0859,-3835.2032L14088.0859,-3835.2032L14088.0859,-3835.2033L14088.0859,-3835.2033L14088.0859,-3835.2033L14088.086,-3835.2034L14088.0862,-3835.2037L14088.0862,-3835.2038L14088.0862,-3835.2038L14088.0863,-3835.2039L14088.0863,-3835.2039L14088.0863,-3835.2039L14088.0863,-3835.204L14088.0864,-3835.2041L14088.0864,-3835.2041L14088.0864,-3835.2041L14088.0868,-3835.2048L14088.0868,-3835.2048L14088.0868,-3835.2048L14088.0977,-3835.2247L14088.1112,-3835.2495L14088.1202,-3835.2692L14088.1203,-3835.2694L14088.1203,-3835.2694L14088.1203,-3835.2694L14088.1203,-3835.2695L14088.1203,-3835.2695L14088.1203,-3835.2695L14088.1203,-3835.2696L14088.1203,-3835.2696L14088.1204,-3835.2696L14088.1204,-3835.2697L14088.1289,-3835.2884L14088.1441,-3835.3271"/>
<path content="1,弘南バス（株）,アップル号,1.0,1.0,1.0," xlink:title="1" d="M14088.1441,-3835.3271L14088.1289,-3835.2884L14088.1204,-3835.2697L14088.1204,-3835.2696L14088.1203,-3835.2696L14088.1203,-3835.2696L14088.1203,-3835.2695L14088.1203,-3835.2695L14088.1203,-3835.2695L14088.1203,-3835.2694L14088.1203,-3835.2694L14088.1203,-3835.2694L14088.1202,-3835.2692L14088.1112,-3835.2495L14088.0977,-3835.2247L14088.0867,-3835.2048L14088.0864,-3835.2041L14088.0864,-3835.2041L14088.0864,-3835.2041L14088.0863,-3835.204L14088.0863,-3835.2039L14088.0863,-3835.2039L14088.0863,-3835.2039L14088.0862,-3835.2038L14088.0862,-3835.2038L14088.0862,-3835.2037L14088.0859,-3835.2033L14088.0859,-3835.2033L14088.0859,-3835.2033L14088.0859,-3835.2032L14088.0859,-3835.2032L14088.0859,-3835.2032L14088.0858,-3835.2031L14088.0858,-3835.203L14088.0846,-3835.2009L14088.0751,-3835.1855L14088.0751,-3835.1854L14088.075,-3835.1854L14088.075,-3835.1853L14088.058,-3835.1579L14088.0432,-3835.1378"/>
<path content="1,弘南バス（株）,キャッスル号,6.0,6.0,6.0," xlink:title="1" d="M14088.1441,-3835.3271L14088.1289,-3835.2884L14088.1204,-3835.2697L14088.1204,-3835.2696L14088.1203,-3835.2696L14088.1203,-3835.2696L14088.1203,-3835.2695L14088.1203,-3835.2695L14088.1203,-3835.2695L14088.1203,-3835.2694L14088.1203,-3835.2694L14088.1203,-3835.2694L14088.1202,-3835.2692L14088.1112,-3835.2495L14088.0977,-3835.2247L14088.0868,-3835.2048L14088.0864,-3835.2041L14088.0864,-3835.2041L14088.0864,-3835.2041L14088.0863,-3835.204L14088.0863,-3835.2039L14088.0863,-3835.2039L14088.0863,-3835.2039L14088.0862,-3835.2038L14088.0862,-3835.2038L14088.0862,-3835.2037L14088.0859,-3835.2033L14088.0859,-3835.2033L14088.0859,-3835.2033L14088.0859,-3835.2032L14088.0858,-3835.2031L14088.0858,-3835.203L14088.0858,-3835.203L14088.0858,-3835.203L14088.0857,-3835.203L14088.0857,-3835.2029L14088.0856,-3835.2028L14088.0856,-3835.2027L14088.0856,-3835.2027L14088.0856,-3835.2027L14088.0855,-3835.2026L14088.0855,-3835.2026L14088.0855,-3835.2026L14088.0855,-3835.2025L14088.0846,-3835.2009L14088.0846,-3835.2009L14088.0846,-3835.2009L14088.0751,-3835.1855L14088.0751,-3835.1854L14088.075,-3835.1854L14088.075,-3835.1853L14088.058,-3835.1579L14088.0432,-3835.1378"/>
<path content="1,弘南バス（株）,スカイ号,1.0,1.0,1.0," xlink:title="1" d="M14088.1441,-3835.3271L14088.1289,-3835.2884L14088.1204,-3835.2697L14088.1204,-3835.2696L14088.1203,-3835.2696L14088.1203,-3835.2696L14088.1203,-3835.2695L14088.1203,-3835.2695L14088.1203,-3835.2695L14088.1203,-3835.2694L14088.1203,-3835.2694L14088.1203,-3835.2694L14088.1202,-3835.2692L14088.1112,-3835.2495L14088.0977,-3835.2247L14088.0867,-3835.2048L14088.0864,-3835.2041L14088.0864,-3835.2041L14088.0864,-3835.2041L14088.0863,-3835.204L14088.0863,-3835.2039L14088.0863,-3835.2039L14088.0863,-3835.2039L14088.0862,-3835.2038L14088.0862,-3835.2038L14088.0862,-3835.2037L14088.0859,-3835.2033L14088.0859,-3835.2033L14088.0859,-3835.2033L14088.0859,-3835.2032L14088.0859,-3835.2032L14088.0859,-3835.2032L14088.0858,-3835.2031L14088.0858,-3835.203L14088.0846,-3835.2009L14088.0751,-3835.1855L14088.0751,-3835.1854L14088.075,-3835.1854L14088.075,-3835.1853L14088.058,-3835.1579L14088.0432,-3835.1378"/>
<path content="1,弘南バス（株）,ノクターン号,1.0,1.0,1.0," xlink:title="1" d="M14088.1441,-3835.3271L14088.1289,-3835.2884L14088.1204,-3835.2697L14088.1204,-3835.2696L14088.1203,-3835.2696L14088.1203,-3835.2696L14088.1203,-3835.2695L14088.1203,-3835.2695L14088.1203,-3835.2695L14088.1203,-3835.2694L14088.1203,-3835.2694L14088.1203,-3835.2694L14088.1202,-3835.2692L14088.1112,-3835.2495L14088.0977,-3835.2247L14088.0867,-3835.2048L14088.0864,-3835.2041L14088.0864,-3835.2041L14088.0864,-3835.2041L14088.0863,-3835.204L14088.0863,-3835.2039L14088.0863,-3835.2039L14088.0863,-3835.2039L14088.0862,-3835.2038L14088.0862,-3835.2038L14088.0862,-3835.2037L14088.0859,-3835.2033L14088.0859,-3835.2033L14088.0859,-3835.2033L14088.0859,-3835.2032L14088.0859,-3835.2032L14088.0859,-3835.2032L14088.0858,-3835.2031L14088.0858,-3835.203L14088.0846,-3835.2009L14088.0751,-3835.1855L14088.0751,-3835.1854L14088.075,-3835.1854L14088.075,-3835.1853L14088.058,-3835.1579L14088.0432,-3835.1378"/>
<path content="1,弘南バス（株）,パンダ号,3.0,3.0,3.0," xlink:title="1" d="M14088.1441,-3835.3271L14088.1289,-3835.2884L14088.1204,-3835.2697L14088.1204,-3835.2696L14088.1203,-3835.2696L14088.1203,-3835.2696L14088.1203,-3835.2695L14088.1203,-3835.2695L14088.1203,-3835.2695L14088.1203,-3835.2694L14088.1203,-3835.2694L14088.1203,-3835.2694L14088.1202,-3835.2692L14088.1112,-3835.2495L14088.0977,-3835.2247L14088.0867,-3835.2048L14088.0864,-3835.2041L14088.0864,-3835.2041L14088.0864,-3835.2041L14088.0863,-3835.204L14088.0863,-3835.2039L14088.0863,-3835.2039L14088.0863,-3835.2039L14088.0862,-3835.2038L14088.0862,-3835.2038L14088.0862,-3835.2037L14088.0859,-3835.2033L14088.0859,-3835.2033L14088.0859,-3835.2033L14088.0859,-3835.2032L14088.0859,-3835.2032L14088.0859,-3835.2032L14088.0858,-3835.2031L14088.0858,-3835.203L14088.0846,-3835.2009L14088.0751,-3835.1855L14088.0751,-3835.1854L14088.075,-3835.1854L14088.075,-3835.1853L14088.058,-3835.1579L14088.0432,-3835.1378"/>
<path content="1,弘南バス（株）,ブルーシティー号,4.0,4.0,4.0," xlink:title="1" d="M14088.1441,-3835.3271L14088.1289,-3835.2884L14088.1204,-3835.2697L14088.1204,-3835.2696L14088.1203,-3835.2696L14088.1203,-3835.2696L14088.1203,-3835.2695L14088.1203,-3835.2695L14088.1203,-3835.2695L14088.1203,-3835.2694L14088.1203,-3835.2694L14088.1203,-3835.2694L14088.1202,-3835.2692L14088.1112,-3835.2495L14088.0977,-3835.2247L14088.0868,-3835.2048L14088.0868,-3835.2048L14088.0868,-3835.2048L14088.0864,-3835.2041L14088.0864,-3835.2041L14088.0864,-3835.2041L14088.0863,-3835.204L14088.0863,-3835.2039L14088.0863,-3835.2039L14088.0863,-3835.2039L14088.0862,-3835.2038L14088.0862,-3835.2038L14088.0862,-3835.2037L14088.086,-3835.2034L14088.0859,-3835.2033L14088.0859,-3835.2033L14088.0859,-3835.2033L14088.0859,-3835.2032L14088.0859,-3835.2032L14088.0859,-3835.2032L14088.0858,-3835.2032L14088.0858,-3835.2031L14088.0858,-3835.2031L14088.0858,-3835.203L14088.0858,-3835.203L14088.0858,-3835.203L14088.0857,-3835.203L14088.0857,-3835.2029L14088.0856,-3835.2028L14088.0856,-3835.2027L14088.0856,-3835.2027L14088.0856,-3835.2027L14088.0855,-3835.2026L14088.0855,-3835.2026L14088.0855,-3835.2026L14088.0855,-3835.2025L14088.0846,-3835.2009L14088.0846,-3835.2009L14088.0846,-3835.2009L14088.0846,-3835.2009L14088.0751,-3835.1855L14088.0751,-3835.1854L14088.075,-3835.1854L14088.075,-3835.1853L14088.058,-3835.1579L14088.0432,-3835.1378"/>
<path content="1,弘南バス（株）,津軽号,1.0,1.0,1.0," xlink:title="1" d="M14088.0432,-3835.1378L14088.058,-3835.1579L14088.075,-3835.1853L14088.075,-3835.1854L14088.0751,-3835.1854L14088.0751,-3835.1855L14088.0846,-3835.2009L14088.0858,-3835.203L14088.0858,-3835.2031L14088.0859,-3835.2032L14088.0859,-3835.2032L14088.0859,-3835.2032L14088.0859,-3835.2033L14088.0859,-3835.2033L14088.0859,-3835.2033L14088.0862,-3835.2037L14088.0862,-3835.2038L14088.0862,-3835.2038L14088.0863,-3835.2039L14088.0863,-3835.2039L14088.0863,-3835.2039L14088.0863,-3835.204L14088.0864,-3835.2041L14088.0864,-3835.2041L14088.0864,-3835.2041L14088.0867,-3835.2048L14088.0977,-3835.2247L14088.1112,-3835.2495L14088.1202,-3835.2692L14088.1203,-3835.2694L14088.1203,-3835.2694L14088.1203,-3835.2694L14088.1203,-3835.2695L14088.1203,-3835.2695L14088.1203,-3835.2695L14088.1203,-3835.2696L14088.1203,-3835.2696L14088.1204,-3835.2696L14088.1204,-3835.2697L14088.1289,-3835.2884L14088.1441,-3835.3271"/>
<path content="1,東日本急行（株）,とよま総合支所～仙台線,6.0,6.0,6.0," xlink:title="1" d="M14088.0432,-3835.1377L14088.049,-3835.1456L14088.0581,-3835.1579L14088.0581,-3835.1579L14088.0581,-3835.1579L14088.075,-3835.1853L14088.075,-3835.1854L14088.0751,-3835.1854L14088.0751,-3835.1855L14088.0846,-3835.2009L14088.0846,-3835.2009L14088.0846,-3835.2009L14088.0855,-3835.2025L14088.0855,-3835.2026L14088.0855,-3835.2026L14088.0855,-3835.2026L14088.0856,-3835.2027L14088.0856,-3835.2027L14088.0856,-3835.2027L14088.0856,-3835.2028L14088.0857,-3835.2029L14088.0857,-3835.203L14088.0858,-3835.203L14088.0858,-3835.203L14088.0858,-3835.203L14088.0858,-3835.2031L14088.0859,-3835.2032L14088.0859,-3835.2033L14088.0859,-3835.2033L14088.0859,-3835.2033L14088.0862,-3835.2037L14088.0862,-3835.2038L14088.0862,-3835.2038L14088.0863,-3835.2039L14088.0863,-3835.2039L14088.0863,-3835.2039L14088.0863,-3835.204L14088.0864,-3835.2041L14088.0864,-3835.2041L14088.0864,-3835.2041L14088.0868,-3835.2048L14088.0977,-3835.2247L14088.1112,-3835.2495L14088.1202,-3835.2692L14088.1203,-3835.2694L14088.1203,-3835.2694L14088.1203,-3835.2694L14088.1203,-3835.2695L14088.1203,-3835.2695L14088.1203,-3835.2695L14088.1203,-3835.2696L14088.1203,-3835.2696L14088.1204,-3835.2696L14088.1204,-3835.2697L14088.1289,-3835.2884L14088.1441,-3835.3271"/>
<path content="1,東日本急行（株）,一ノ関～仙台線,19.0,19.0,19.0," xlink:title="1" d="M14088.0432,-3835.1378L14088.058,-3835.1579L14088.075,-3835.1853L14088.075,-3835.1854L14088.0751,-3835.1854L14088.0751,-3835.1855L14088.0846,-3835.2009L14088.0858,-3835.203L14088.0858,-3835.2031L14088.0859,-3835.2032L14088.0859,-3835.2032L14088.0859,-3835.2032L14088.0859,-3835.2033L14088.0859,-3835.2033L14088.0859,-3835.2033L14088.0862,-3835.2037L14088.0862,-3835.2038L14088.0862,-3835.2038L14088.0863,-3835.2039L14088.0863,-3835.2039L14088.0863,-3835.2039L14088.0863,-3835.204L14088.0864,-3835.2041L14088.0864,-3835.2041L14088.0864,-3835.2041L14088.0867,-3835.2048L14088.0977,-3835.2247L14088.1112,-3835.2495L14088.1202,-3835.2692L14088.1203,-3835.2694L14088.1203,-3835.2694L14088.1203,-3835.2694L14088.1203,-3835.2695L14088.1203,-3835.2695L14088.1203,-3835.2695L14088.1203,-3835.2696L14088.1203,-3835.2696L14088.1204,-3835.2696L14088.1204,-3835.2697L14088.1289,-3835.2884L14088.1441,-3835.3271"/>
<path content="1,東日本急行（株）,仙台～盛岡線,16.0,20.0,20.0," xlink:title="1" d="M14088.1441,-3835.3271L14088.1289,-3835.2884L14088.1204,-3835.2697L14088.1204,-3835.2696L14088.1203,-3835.2696L14088.1203,-3835.2696L14088.1203,-3835.2695L14088.1203,-3835.2695L14088.1203,-3835.2695L14088.1203,-3835.2694L14088.1203,-3835.2694L14088.1203,-3835.2694L14088.1202,-3835.2692L14088.1112,-3835.2495L14088.0977,-3835.2247L14088.0867,-3835.2048L14088.0864,-3835.2041L14088.0864,-3835.2041L14088.0864,-3835.2041L14088.0863,-3835.204L14088.0863,-3835.2039L14088.0863,-3835.2039L14088.0863,-3835.2039L14088.0862,-3835.2038L14088.0862,-3835.2038L14088.0862,-3835.2037L14088.0859,-3835.2033L14088.0859,-3835.2033L14088.0859,-3835.2033L14088.0859,-3835.2032L14088.0859,-3835.2032L14088.0859,-3835.2032L14088.0858,-3835.2031L14088.0858,-3835.203L14088.0846,-3835.2009L14088.0751,-3835.1855L14088.0751,-3835.1854L14088.075,-3835.1854L14088.075,-3835.1853L14088.058,-3835.1579L14088.0432,-3835.1378"/>
<path content="1,東日本急行（株）,佐野・平泉駅前・中尊寺～仙台線,1.1,1.1,1.1," xlink:title="1" d="M14088.0432,-3835.1378L14088.058,-3835.1579L14088.075,-3835.1853L14088.075,-3835.1854L14088.0751,-3835.1854L14088.0751,-3835.1855L14088.0846,-3835.2009L14088.0858,-3835.203L14088.0858,-3835.2031L14088.0859,-3835.2032L14088.0859,-3835.2032L14088.0859,-3835.2032L14088.0859,-3835.2033L14088.0859,-3835.2033L14088.0859,-3835.2033L14088.0862,-3835.2037L14088.0862,-3835.2038L14088.0862,-3835.2038L14088.0863,-3835.2039L14088.0863,-3835.2039L14088.0863,-3835.2039L14088.0863,-3835.204L14088.0864,-3835.2041L14088.0864,-3835.2041L14088.0864,-3835.2041L14088.0867,-3835.2048L14088.0977,-3835.2247L14088.1112,-3835.2495L14088.1202,-3835.2692L14088.1203,-3835.2694L14088.1203,-3835.2694L14088.1203,-3835.2694L14088.1203,-3835.2695L14088.1203,-3835.2695L14088.1203,-3835.2695L14088.1203,-3835.2696L14088.1203,-3835.2696L14088.1204,-3835.2696L14088.1204,-3835.2697L14088.1289,-3835.2884L14088.1441,-3835.3271"/>
<path content="1,東日本急行（株）,登米（迫）～若柳～仙台線,8.0,8.0,8.0," xlink:title="1" d="M14088.0432,-3835.1377L14088.049,-3835.1456L14088.0581,-3835.1579L14088.0581,-3835.1579L14088.0581,-3835.1579L14088.0581,-3835.1579L14088.075,-3835.1853L14088.075,-3835.1854L14088.0751,-3835.1854L14088.0751,-3835.1855L14088.0846,-3835.2009L14088.0846,-3835.2009L14088.0846,-3835.2009L14088.0846,-3835.2009L14088.0855,-3835.2025L14088.0855,-3835.2026L14088.0855,-3835.2026L14088.0855,-3835.2026L14088.0856,-3835.2027L14088.0856,-3835.2027L14088.0856,-3835.2027L14088.0856,-3835.2028L14088.0857,-3835.2029L14088.0857,-3835.203L14088.0858,-3835.203L14088.0858,-3835.203L14088.0858,-3835.203L14088.0858,-3835.2031L14088.0858,-3835.2031L14088.0858,-3835.2032L14088.0859,-3835.2032L14088.0859,-3835.2032L14088.0859,-3835.2032L14088.0859,-3835.2033L14088.0859,-3835.2033L14088.0859,-3835.2033L14088.086,-3835.2034L14088.0862,-3835.2037L14088.0862,-3835.2038L14088.0862,-3835.2038L14088.0863,-3835.2039L14088.0863,-3835.2039L14088.0863,-3835.2039L14088.0863,-3835.204L14088.0864,-3835.2041L14088.0864,-3835.2041L14088.0864,-3835.2041L14088.0868,-3835.2048L14088.0868,-3835.2048L14088.0868,-3835.2048L14088.0977,-3835.2247L14088.1112,-3835.2495L14088.1202,-3835.2692L14088.1203,-3835.2694L14088.1203,-3835.2694L14088.1203,-3835.2694L14088.1203,-3835.2695L14088.1203,-3835.2695L14088.1203,-3835.2695L14088.1203,-3835.2696L14088.1203,-3835.2696L14088.1204,-3835.2696L14088.1204,-3835.2697L14088.1289,-3835.2884L14088.1441,-3835.3271"/>
<path content="1,東日本急行（株）,金成庁舎前・くりこま高原駅前・一迫総合支所前～築館～仙台線,15.0,15.0,15.0," xlink:title="1" d="M14088.1441,-3835.3271L14088.1289,-3835.2884L14088.1204,-3835.2697L14088.1204,-3835.2696L14088.1203,-3835.2696L14088.1203,-3835.2696L14088.1203,-3835.2695L14088.1203,-3835.2695L14088.1203,-3835.2695L14088.1203,-3835.2694L14088.1203,-3835.2694L14088.1203,-3835.2694L14088.1202,-3835.2692L14088.1112,-3835.2495L14088.0977,-3835.2247L14088.0868,-3835.2048L14088.0864,-3835.2041L14088.0864,-3835.2041L14088.0864,-3835.2041L14088.0863,-3835.204L14088.0863,-3835.2039L14088.0863,-3835.2039L14088.0863,-3835.2039L14088.0862,-3835.2038L14088.0862,-3835.2038L14088.0862,-3835.2037L14088.0859,-3835.2033L14088.0859,-3835.2033L14088.0859,-3835.2033L14088.0859,-3835.2032L14088.0858,-3835.2031L14088.0858,-3835.203L14088.0858,-3835.203L14088.0858,-3835.203L14088.0857,-3835.203L14088.0857,-3835.2029L14088.0856,-3835.2028L14088.0856,-3835.2027L14088.0856,-3835.2027L14088.0856,-3835.2027L14088.0855,-3835.2026L14088.0855,-3835.2026L14088.0855,-3835.2026L14088.0855,-3835.2025L14088.0846,-3835.2009L14088.0846,-3835.2009L14088.0846,-3835.2009L14088.0751,-3835.1855L14088.0751,-3835.1854L14088.075,-3835.1854L14088.075,-3835.1853L14088.0581,-3835.1579L14088.0581,-3835.1579L14088.0581,-3835.1579L14088.049,-3835.1456L14088.0432,-3835.1377"/>
<path content="1,江ノ電バス藤沢,レイク＆ポート号,1.0,1.0,1.0," xlink:title="1" d="M14088.0432,-3835.1378L14088.058,-3835.1579L14088.075,-3835.1853L14088.075,-3835.1854L14088.0751,-3835.1854L14088.0751,-3835.1855L14088.0846,-3835.2009L14088.0858,-3835.203L14088.0858,-3835.2031L14088.0859,-3835.2032L14088.0859,-3835.2032L14088.0859,-3835.2032L14088.0859,-3835.2033L14088.0859,-3835.2033L14088.0859,-3835.2033L14088.0862,-3835.2037L14088.0862,-3835.2038L14088.0862,-3835.2038L14088.0863,-3835.2039L14088.0863,-3835.2039L14088.0863,-3835.2039L14088.0863,-3835.204L14088.0864,-3835.2041L14088.0864,-3835.2041L14088.0864,-3835.2041L14088.0867,-3835.2048L14088.0977,-3835.2247L14088.1112,-3835.2495L14088.1202,-3835.2692L14088.1203,-3835.2694L14088.1203,-3835.2694L14088.1203,-3835.2694L14088.1203,-3835.2695L14088.1203,-3835.2695L14088.1203,-3835.2695L14088.1203,-3835.2696L14088.1203,-3835.2696L14088.1204,-3835.2696L14088.1204,-3835.2697L14088.1289,-3835.2884L14088.1441,-3835.3271"/>
<path content="1,秋北バス（株）,ジュピター号,1.0,1.0,1.0," xlink:title="1" d="M14088.0432,-3835.1378L14088.058,-3835.1579L14088.075,-3835.1853L14088.075,-3835.1854L14088.0751,-3835.1854L14088.0751,-3835.1855L14088.0846,-3835.2009L14088.0858,-3835.203L14088.0858,-3835.2031L14088.0859,-3835.2032L14088.0859,-3835.2032L14088.0859,-3835.2032L14088.0859,-3835.2033L14088.0859,-3835.2033L14088.0859,-3835.2033L14088.0862,-3835.2037L14088.0862,-3835.2038L14088.0862,-3835.2038L14088.0863,-3835.2039L14088.0863,-3835.2039L14088.0863,-3835.2039L14088.0863,-3835.204L14088.0864,-3835.2041L14088.0864,-3835.2041L14088.0864,-3835.2041L14088.0867,-3835.2048L14088.0977,-3835.2247L14088.1112,-3835.2495L14088.1202,-3835.2692L14088.1203,-3835.2694L14088.1203,-3835.2694L14088.1203,-3835.2694L14088.1203,-3835.2695L14088.1203,-3835.2695L14088.1203,-3835.2695L14088.1203,-3835.2696L14088.1203,-3835.2696L14088.1204,-3835.2696L14088.1204,-3835.2697L14088.1289,-3835.2884L14088.1441,-3835.3271"/>
<path content="1,秋北バス（株）,二ツ井・能代～仙台線,1.0,1.0,1.0," xlink:title="1" d="M14088.0432,-3835.1378L14088.058,-3835.1579L14088.075,-3835.1853L14088.075,-3835.1854L14088.0751,-3835.1854L14088.0751,-3835.1855L14088.0846,-3835.2009L14088.0858,-3835.203L14088.0858,-3835.2031L14088.0859,-3835.2032L14088.0859,-3835.2032L14088.0859,-3835.2032L14088.0859,-3835.2033L14088.0859,-3835.2033L14088.0859,-3835.2033L14088.0862,-3835.2037L14088.0862,-3835.2038L14088.0862,-3835.2038L14088.0863,-3835.2039L14088.0863,-3835.2039L14088.0863,-3835.2039L14088.0863,-3835.204L14088.0864,-3835.2041L14088.0864,-3835.2041L14088.0864,-3835.2041L14088.0867,-3835.2048L14088.0977,-3835.2247L14088.1112,-3835.2495L14088.1202,-3835.2692L14088.1203,-3835.2694L14088.1203,-3835.2694L14088.1203,-3835.2694L14088.1203,-3835.2695L14088.1203,-3835.2695L14088.1203,-3835.2695L14088.1203,-3835.2696L14088.1203,-3835.2696L14088.1204,-3835.2696L14088.1204,-3835.2697L14088.1289,-3835.2884L14088.1441,-3835.3271"/>
<path content="1,秋北バス（株）,大館・鹿角～仙台線,3.0,3.0,3.0," xlink:title="1" d="M14088.0432,-3835.1378L14088.058,-3835.1579L14088.075,-3835.1853L14088.075,-3835.1854L14088.0751,-3835.1854L14088.0751,-3835.1855L14088.0846,-3835.2009L14088.0858,-3835.203L14088.0858,-3835.2031L14088.0859,-3835.2032L14088.0859,-3835.2032L14088.0859,-3835.2032L14088.0859,-3835.2033L14088.0859,-3835.2033L14088.0859,-3835.2033L14088.0862,-3835.2037L14088.0862,-3835.2038L14088.0862,-3835.2038L14088.0863,-3835.2039L14088.0863,-3835.2039L14088.0863,-3835.2039L14088.0863,-3835.204L14088.0864,-3835.2041L14088.0864,-3835.2041L14088.0864,-3835.2041L14088.0867,-3835.2048L14088.0977,-3835.2247L14088.1112,-3835.2495L14088.1202,-3835.2692L14088.1203,-3835.2694L14088.1203,-3835.2694L14088.1203,-3835.2694L14088.1203,-3835.2695L14088.1203,-3835.2695L14088.1203,-3835.2695L14088.1203,-3835.2696L14088.1203,-3835.2696L14088.1204,-3835.2696L14088.1204,-3835.2697L14088.1289,-3835.2884L14088.1441,-3835.3271"/>
<path content="1,秋田中央交通（株）,フローラ号,1.0,1.0,1.0," xlink:title="1" d="M14088.1441,-3835.3271L14088.1289,-3835.2884L14088.1204,-3835.2697L14088.1204,-3835.2696L14088.1203,-3835.2696L14088.1203,-3835.2696L14088.1203,-3835.2695L14088.1203,-3835.2695L14088.1203,-3835.2695L14088.1203,-3835.2694L14088.1203,-3835.2694L14088.1203,-3835.2694L14088.1202,-3835.2692L14088.1112,-3835.2495L14088.0977,-3835.2247L14088.0867,-3835.2048L14088.0864,-3835.2041L14088.0864,-3835.2041L14088.0864,-3835.2041L14088.0863,-3835.204L14088.0863,-3835.2039L14088.0863,-3835.2039L14088.0863,-3835.2039L14088.0862,-3835.2038L14088.0862,-3835.2038L14088.0862,-3835.2037L14088.0859,-3835.2033L14088.0859,-3835.2033L14088.0859,-3835.2033L14088.0859,-3835.2032L14088.0859,-3835.2032L14088.0859,-3835.2032L14088.0858,-3835.2031L14088.0858,-3835.203L14088.0846,-3835.2009L14088.0751,-3835.1855L14088.0751,-3835.1854L14088.075,-3835.1854L14088.075,-3835.1853L14088.058,-3835.1579L14088.0432,-3835.1378"/>
<path content="1,秋田中央交通（株）,仙秋号,4.0,4.0,4.0," xlink:title="1" d="M14088.1441,-3835.3271L14088.1289,-3835.2884L14088.1204,-3835.2697L14088.1204,-3835.2696L14088.1203,-3835.2696L14088.1203,-3835.2696L14088.1203,-3835.2695L14088.1203,-3835.2695L14088.1203,-3835.2695L14088.1203,-3835.2694L14088.1203,-3835.2694L14088.1203,-3835.2694L14088.1202,-3835.2692L14088.1112,-3835.2495L14088.0977,-3835.2247L14088.0867,-3835.2048L14088.0864,-3835.2041L14088.0864,-3835.2041L14088.0864,-3835.2041L14088.0863,-3835.204L14088.0863,-3835.2039L14088.0863,-3835.2039L14088.0863,-3835.2039L14088.0862,-3835.2038L14088.0862,-3835.2038L14088.0862,-3835.2037L14088.0859,-3835.2033L14088.0859,-3835.2033L14088.0859,-3835.2033L14088.0859,-3835.2032L14088.0859,-3835.2032L14088.0859,-3835.2032L14088.0858,-3835.2031L14088.0858,-3835.203L14088.0846,-3835.2009L14088.0751,-3835.1855L14088.0751,-3835.1854L14088.075,-3835.1854L14088.075,-3835.1853L14088.058,-3835.1579L14088.0432,-3835.1378"/>
<path content="1,羽後交通（株）,グリーンライナー号,4.0,4.0,4.0," xlink:title="1" d="M14088.0432,-3835.1378L14088.058,-3835.1579L14088.075,-3835.1853L14088.075,-3835.1854L14088.0751,-3835.1854L14088.0751,-3835.1855L14088.0846,-3835.2009L14088.0858,-3835.203L14088.0858,-3835.2031L14088.0859,-3835.2032L14088.0859,-3835.2032L14088.0859,-3835.2032L14088.0859,-3835.2033L14088.0859,-3835.2033L14088.0859,-3835.2033L14088.0862,-3835.2037L14088.0862,-3835.2038L14088.0862,-3835.2038L14088.0863,-3835.2039L14088.0863,-3835.2039L14088.0863,-3835.2039L14088.0863,-3835.204L14088.0864,-3835.2041L14088.0864,-3835.2041L14088.0864,-3835.2041L14088.0867,-3835.2048L14088.0977,-3835.2247L14088.1112,-3835.2495L14088.1202,-3835.2692L14088.1203,-3835.2694L14088.1203,-3835.2694L14088.1203,-3835.2694L14088.1203,-3835.2695L14088.1203,-3835.2695L14088.1203,-3835.2695L14088.1203,-3835.2696L14088.1203,-3835.2696L14088.1204,-3835.2696L14088.1204,-3835.2697L14088.1289,-3835.2884L14088.1441,-3835.3271"/>
<path content="1,羽後交通（株）,レーク＆ポート号,1.0,1.0,1.0," xlink:title="1" d="M14088.1441,-3835.3271L14088.1289,-3835.2884L14088.1204,-3835.2697L14088.1204,-3835.2696L14088.1203,-3835.2696L14088.1203,-3835.2696L14088.1203,-3835.2695L14088.1203,-3835.2695L14088.1203,-3835.2695L14088.1203,-3835.2694L14088.1203,-3835.2694L14088.1203,-3835.2694L14088.1202,-3835.2692L14088.1112,-3835.2495L14088.0977,-3835.2247L14088.0867,-3835.2048L14088.0864,-3835.2041L14088.0864,-3835.2041L14088.0864,-3835.2041L14088.0863,-3835.204L14088.0863,-3835.2039L14088.0863,-3835.2039L14088.0863,-3835.2039L14088.0862,-3835.2038L14088.0862,-3835.2038L14088.0862,-3835.2037L14088.0859,-3835.2033L14088.0859,-3835.2033L14088.0859,-3835.2033L14088.0859,-3835.2032L14088.0859,-3835.2032L14088.0859,-3835.2032L14088.0858,-3835.2031L14088.0858,-3835.203L14088.0846,-3835.2009L14088.0751,-3835.1855L14088.0751,-3835.1854L14088.075,-3835.1854L14088.075,-3835.1853L14088.058,-3835.1579L14088.0432,-3835.1378"/>
</g>
</svg>
