<?xml version="1.0" encoding="UTF-8"?>
<svg  xmlns="http://www.w3.org/2000/svg" xmlns:xlink="http://www.w3.org/1999/xlink" xmlns:go="http://purl.org/svgmap/profile" property="N07_001,N07_002,N07_003,N07_004,N07_005,N07_006,N07_007" viewBox="13974.609375 -3682.6171875 8.7890625 8.7890625" go:dataArea="13974.609375 -3682.6171875 8.7890625 8.7890625" >
<metadata>
 <rdf:RDF xmlns:rdf="http://www.w3.org/1999/02/22-rdf-syntax-ns#" xmlns:crs="http://opengis.org/xmldtds/transformations.dtd" xmlns:svg="http://www.w3.org/svg" >
  <rdf:Description>
   <crs:CoordinateReferenceSystem rdf:resource="http://purl.org/crs/84" svg:transform="matrix(100.0,0.0,0.0,-100.0,0.0,0.0)" />
  </rdf:Description>
 </rdf:RDF>
</metadata>
<globalCoordinateSystem srsName="http://purl.org/crs/84" transform="matrix(100.0,0.0,0.0,-100.0,0.0,0.0)" />
<defs>
 <g id="p0" >
  <circle cx="0.0" cy="0.0" r="3" stroke="green" stroke-width="0.75" vector-effect="non-scaling-stroke" />
 </g>
</defs>
<g fill="none" fill-rule="evenodd" stroke="#FF00FF" stroke-width="0.75" opacity="0.5" vector-effect="non-scaling-stroke" stroke-linejoin="bevel" >
<path content="1,しおや交通（株）,氏家駅～西船生,999.9,999.9,999.9," xlink:title="1" d="M13983.3984,-3676.8769L13983.302,-3676.903L13983.2713,-3676.9125L13983.2411,-3676.9249L13983.2131,-3676.9323L13983.1613,-3676.943L13983.1417,-3676.952L13983.1123,-3676.9689L13983.0584,-3677.0004L13983.0472,-3677.0072L13983.0416,-3677.0094L13982.9982,-3677.0325L13982.9205,-3677.0669L13982.9009,-3677.0742L13982.8617,-3677.0894L13982.8202,-3677.1041L13982.5963,-3677.1829L13982.5894,-3677.1846L13982.5343,-3677.2038L13982.5158,-3677.21L13982.5025,-3677.2145L13982.4458,-3677.2381L13982.4248,-3677.2483L13982.359,-3677.2821L13982.3324,-3677.2962L13982.3254,-3677.3007L13982.3058,-3677.3108L13982.2414,-3677.3445L13982.2197,-3677.3559L13982.1987,-3677.3666L13982.1952,-3677.3694L13982.1609,-3677.3874L13982.107,-3677.4167L13982.0412,-3677.4516L13981.9977,-3677.4725L13981.9971,-3677.4736L13981.9725,-3677.4849L13981.9683,-3677.4877L13981.9199,-3677.5091L13981.8823,-3677.5254L13981.7891,-3677.5598L13981.6778,-3677.602L13981.5959,-3677.6178L13981.5777,-3677.6218L13981.5567,-3677.6296L13981.5294,-3677.6426L13981.5217,-3677.6454L13981.5084,-3677.6528L13981.4848,-3677.6645L13981.4438,-3677.6851L13981.4167,-3677.6961L13981.3929,-3677.7018L13981.3669,-3677.7029L13981.2776,-3677.6961L13981.2557,-3677.6944L13981.2374,-3677.6928L13981.2213,-3677.6922L13981.1968,-3677.6899L13981.1863,-3677.6899L13981.1135,-3677.6849L13981.0827,-3677.6832L13981.0463,-3677.6804L13980.998,-3677.6775L13980.9791,-3677.6753L13980.9749,-3677.6742L13980.9588,-3677.6702L13980.9448,-3677.6674L13980.9427,-3677.6663L13980.9021,-3677.655L13980.837,-3677.6341L13980.8159,-3677.629L13980.7377,-3677.6091L13980.6984,-3677.5975L13980.6886,-3677.5936L13980.6704,-3677.5829L13980.6459,-3677.5587L13980.634,-3677.5451L13980.6256,-3677.5333L13980.6109,-3677.517L13980.5983,-3677.5057L13980.5794,-3677.4927L13980.5633,-3677.4843L13980.5479,-3677.4792L13980.5361,-3677.476L13980.5,-3677.4706L13980.4925,-3677.4688L13980.4757,-3677.4668L13980.4702,-3677.4657L13980.4296,-3677.4544L13980.4025,-3677.4453L13980.3792,-3677.4375L13980.3582,-3677.4285L13980.3491,-3677.4246L13980.3393,-3677.4206L13980.3211,-3677.4099L13980.3098,-3677.4026L13980.2622,-3677.3688L13980.2276,-3677.3394L13980.2202,-3677.3333L13980.1908,-3677.3046L13980.1432,-3677.2516L13980.1327,-3677.2421L13980.1117,-3677.2246L13980.1061,-3677.2212L13980.076,-3677.2032L13979.9983,-3677.1564L13979.9832,-3677.1482L13979.9423,-3677.126L13979.9115,-3677.1113L13979.8891,-3677.1051L13979.8639,-3677.1029L13979.8527,-3677.1012L13979.824,-3677.0984L13979.7875,-3677.0943L13979.7743,-3677.0927L13979.6948,-3677.0851L13979.6427,-3677.0787L13979.6245,-3677.0742L13979.6105,-3677.0685L13979.5979,-3677.0617L13979.5839,-3677.0533L13979.5474,-3677.0313L13979.5096,-3677.0122L13979.4998,-3677.0088L13979.4767,-3677.0009L13979.4718,-3677.0004L13979.4599,-3676.9964L13979.4501,-3676.9947L13979.4382,-3676.9908L13979.4081,-3676.9834L13979.2849,-3676.9547L13979.2446,-3676.9451L13979.2252,-3676.9414L13979.1981,-3676.935L13979.1687,-3676.9294L13979.1142,-3676.9157L13979.1036,-3676.9153L13979.0147,-3676.8978L13978.8578,-3676.8621L13978.8424,-3676.8629L13978.792,-3676.8533L13978.7598,-3676.846L13978.7542,-3676.8437L13978.7339,-3676.8392L13978.6629,-3676.8158L13978.6569,-3676.8139L13978.61,-3676.7958L13978.575,-3676.7862L13978.5575,-3676.7823L13978.5463,-3676.7812L13978.5344,-3676.7784L13978.4826,-3676.7716L13978.4581,-3676.766L13978.3034,-3676.7547L13978.2669,-3676.7513L13978.2424,-3676.7508L13978.1897,-3676.7492L13978.108,-3676.7468L13978.0849,-3676.7468L13977.9981,-3676.7428L13977.7726,-3676.7445L13977.6721,-3676.7448L13977.6319,-3676.7434L13977.6109,-3676.7462L13977.5864,-3676.7519L13977.574,-3676.7555L13977.5311,-3676.7682L13977.4555,-3676.7936L13977.4324,-3676.7998L13977.387,-3676.8001L13977.3675,-3676.8001L13977.2875,-3676.8008L13977.111,-3676.802L13977.0886,-3676.8014L13976.957,-3676.8031L13976.9563,-3676.8031L13976.8821,-3676.8003L13976.8493,-3676.7972L13976.8289,-3676.7952L13976.7925,-3676.7907L13976.7715,-3676.7868L13976.7456,-3676.7789L13976.7161,-3676.7675L13976.7099,-3676.7648L13976.6987,-3676.758L13976.6889,-3676.749L13976.6566,-3676.7389L13976.6273,-3676.7344L13976.5495,-3676.7276L13976.5173,-3676.7259L13976.4326,-3676.7214L13976.4109,-3676.7197L13976.3808,-3676.718L13976.3346,-3676.7129L13976.2912,-3676.7118L13976.2688,-3676.7141L13976.261,-3676.7157L13976.2387,-3676.7203L13976.1344,-3676.7434L13976.0391,-3676.7664L13975.9761,-3676.7834L13975.9342,-3676.7934"/>
<path content="1,しおや交通（株）,矢板駅～西船生,999.9,999.9,999.9," xlink:title="1" d="M13983.3984,-3676.8769L13983.302,-3676.903L13983.2713,-3676.9125L13983.2411,-3676.9249L13983.2131,-3676.9323L13983.1613,-3676.943L13983.1417,-3676.952L13983.1123,-3676.9689L13983.0584,-3677.0004L13983.0472,-3677.0072L13983.0416,-3677.0094L13982.9982,-3677.0325L13982.9205,-3677.0669L13982.9009,-3677.0742L13982.8617,-3677.0894L13982.8202,-3677.1041L13982.5963,-3677.1829L13982.5894,-3677.1846L13982.5343,-3677.2038L13982.5158,-3677.21L13982.5025,-3677.2145L13982.4458,-3677.2381L13982.4248,-3677.2483L13982.359,-3677.2821L13982.3324,-3677.2962L13982.3254,-3677.3007L13982.3058,-3677.3108L13982.2414,-3677.3445L13982.2197,-3677.3559L13982.1987,-3677.3666L13982.1952,-3677.3694L13982.1609,-3677.3874L13982.107,-3677.4167L13982.0412,-3677.4516L13981.9977,-3677.4725L13981.9971,-3677.4736L13981.9725,-3677.4849L13981.9683,-3677.4877L13981.9199,-3677.5091L13981.8823,-3677.5254L13981.7891,-3677.5598L13981.6778,-3677.602L13981.5959,-3677.6178L13981.5777,-3677.6218L13981.5567,-3677.6296L13981.5294,-3677.6426L13981.5217,-3677.6454L13981.5084,-3677.6528L13981.4848,-3677.6645L13981.4438,-3677.6851L13981.4167,-3677.6961L13981.3929,-3677.7018L13981.3669,-3677.7029L13981.2776,-3677.6961L13981.2557,-3677.6944L13981.2374,-3677.6928L13981.2213,-3677.6922L13981.1968,-3677.6899L13981.1863,-3677.6899L13981.1135,-3677.6849L13981.0827,-3677.6832L13981.0463,-3677.6804L13980.998,-3677.6775L13980.9791,-3677.6753L13980.9749,-3677.6742L13980.9588,-3677.6702L13980.9448,-3677.6674L13980.9427,-3677.6663L13980.9021,-3677.655L13980.837,-3677.6341L13980.8159,-3677.629L13980.7377,-3677.6091L13980.6984,-3677.5975L13980.6886,-3677.5936L13980.6704,-3677.5829L13980.6459,-3677.5587L13980.634,-3677.5451L13980.6256,-3677.5333L13980.6109,-3677.517L13980.5983,-3677.5057L13980.5794,-3677.4927L13980.5633,-3677.4843L13980.5479,-3677.4792L13980.5361,-3677.476L13980.5,-3677.4706L13980.4925,-3677.4688L13980.4757,-3677.4668L13980.4702,-3677.4657L13980.4296,-3677.4544L13980.4025,-3677.4453L13980.3792,-3677.4375L13980.3582,-3677.4285L13980.3491,-3677.4246L13980.3393,-3677.4206L13980.3211,-3677.4099L13980.3098,-3677.4026L13980.2622,-3677.3688L13980.2276,-3677.3394L13980.2202,-3677.3333L13980.1908,-3677.3046L13980.1432,-3677.2516L13980.1327,-3677.2421L13980.1117,-3677.2246L13980.1061,-3677.2212L13980.076,-3677.2032L13979.9983,-3677.1564L13979.9832,-3677.1482L13979.9423,-3677.126L13979.9115,-3677.1113L13979.8891,-3677.1051L13979.8639,-3677.1029L13979.8527,-3677.1012L13979.824,-3677.0984L13979.7875,-3677.0943L13979.7743,-3677.0927L13979.6948,-3677.0851L13979.6427,-3677.0787L13979.6245,-3677.0742L13979.6105,-3677.0685L13979.5979,-3677.0617L13979.5839,-3677.0533L13979.5474,-3677.0313L13979.5096,-3677.0122L13979.4998,-3677.0088L13979.4767,-3677.0009L13979.4718,-3677.0004L13979.4599,-3676.9964L13979.4501,-3676.9947L13979.4382,-3676.9908L13979.4081,-3676.9834L13979.2849,-3676.9547L13979.2446,-3676.9451L13979.2252,-3676.9414L13979.1981,-3676.935L13979.1687,-3676.9294L13979.1142,-3676.9157L13979.1036,-3676.9153L13979.0147,-3676.8978L13978.8578,-3676.8621L13978.8424,-3676.8629L13978.792,-3676.8533L13978.7598,-3676.846L13978.7542,-3676.8437L13978.7339,-3676.8392L13978.6629,-3676.8158L13978.6569,-3676.8139L13978.61,-3676.7958L13978.575,-3676.7862L13978.5575,-3676.7823L13978.5463,-3676.7812L13978.5344,-3676.7784L13978.4826,-3676.7716L13978.4581,-3676.766L13978.3034,-3676.7547L13978.2669,-3676.7513L13978.2424,-3676.7508L13978.1897,-3676.7492L13978.108,-3676.7468L13978.0849,-3676.7468L13977.9981,-3676.7428L13977.7726,-3676.7445L13977.6721,-3676.7448L13977.6319,-3676.7434L13977.6109,-3676.7462L13977.5864,-3676.7519L13977.574,-3676.7555L13977.5311,-3676.7682L13977.4555,-3676.7936L13977.4324,-3676.7998L13977.387,-3676.8001L13977.3675,-3676.8001L13977.2875,-3676.8008L13977.111,-3676.802L13977.0886,-3676.8014L13976.957,-3676.8031L13976.9563,-3676.8031L13976.8821,-3676.8003L13976.8493,-3676.7972L13976.8289,-3676.7952L13976.7925,-3676.7907L13976.7715,-3676.7868L13976.7456,-3676.7789L13976.7161,-3676.7675L13976.7099,-3676.7648L13976.6987,-3676.758L13976.6889,-3676.749L13976.6566,-3676.7389L13976.6273,-3676.7344L13976.5495,-3676.7276L13976.5173,-3676.7259L13976.4326,-3676.7214L13976.4109,-3676.7197L13976.3808,-3676.718L13976.3346,-3676.7129L13976.2912,-3676.7118L13976.2688,-3676.7141L13976.261,-3676.7157L13976.2387,-3676.7203L13976.1344,-3676.7434L13976.0391,-3676.7664L13975.9761,-3676.7834L13975.9342,-3676.7934"/>
<path content="1,塩谷町,鳥羽ー東古屋,4.0,0.0,0.0," xlink:title="1" d="M13983.3984,-3680.6913L13983.3796,-3680.7061L13983.3649,-3680.7151L13983.353,-3680.7213L13983.3404,-3680.7241L13983.3215,-3680.7264L13983.2956,-3680.7269L13983.2739,-3680.7258L13983.2396,-3680.7185L13983.2172,-3680.7185L13983.2111,-3680.7202L13983.1717,-3680.7444L13983.1444,-3680.7602L13983.1044,-3680.7833L13983.0898,-3680.79L13983.0746,-3680.7973L13983.0548,-3680.8064L13983.045,-3680.8114L13983.0079,-3680.8266L13982.9596,-3680.8458L13982.9476,-3680.8504L13982.9266,-3680.8582L13982.8895,-3680.87L13982.8313,-3680.8955L13982.8177,-3680.9033L13982.8059,-3680.913L13982.7258,-3680.9759L13982.7115,-3680.9844L13982.7049,-3680.9907L13982.6921,-3681.0007L13982.6655,-3681.0255L13982.6473,-3681.0497L13982.634,-3681.0632L13982.5969,-3681.0919L13982.5626,-3681.1218L13982.5241,-3681.1714L13982.5003,-3681.19L13982.4891,-3681.1968L13982.4695,-3681.2058L13982.4379,-3681.2142L13982.3672,-3681.2373L13982.3315,-3681.2536L13982.2923,-3681.2728L13982.2756,-3681.2814L13982.256,-3681.2907L13982.2441,-3681.2954L13982.234,-3681.2982L13982.2246,-3681.2998L13982.2144,-3681.3005L13982.1915,-3681.2988L13982.1621,-3681.2996L13982.1551,-3681.2998L13982.1461,-3681.3016L13982.1316,-3681.3058L13982.0886,-3681.3252L13982.0466,-3681.3438L13982.0298,-3681.3556L13982.0018,-3681.3793L13981.9683,-3681.3966L13981.9526,-3681.4132L13981.9444,-3681.417L13981.9157,-3681.4271L13981.894,-3681.4322L13981.887,-3681.4327L13981.8597,-3681.4384L13981.8191,-3681.453L13981.8093,-3681.4587L13981.7736,-3681.4823L13981.7393,-3681.5071L13981.7168,-3681.5218L13981.6958,-3681.5308L13981.6741,-3681.5426L13981.5929,-3681.5899L13981.5439,-3681.6175L13981.5292,-3681.6243L13981.5096,-3681.6311L13981.4907,-3681.6344L13981.4419,-3681.6371L13981.4287,-3681.6374L13981.3955,-3681.6389L13981.3682,-3681.644L13981.2982,-3681.6722L13981.2681,-3681.6823L13981.2204,-3681.6975L13981.1883,-3681.7032L13981.1708,-3681.7032L13981.1519,-3681.6981L13981.1224,-3681.6829L13981.1134,-3681.6801L13981.1049,-3681.6789L13981.0811,-3681.6789L13981.0335,-3681.6874L13981.0003,-3681.6853L13980.9878,-3681.6895L13980.9834,-3681.6936L13980.9819,-3681.6983L13980.9824,-3681.7048L13980.9873,-3681.7099L13980.9922,-3681.7121L13981.0041,-3681.7121L13981.0356,-3681.7042L13981.0581,-3681.7042L13981.0706,-3681.7065L13981.0861,-3681.7121L13981.1001,-3681.7212L13981.1071,-3681.7274L13981.1169,-3681.7426L13981.1176,-3681.7527L13981.1099,-3681.7662L13981.0979,-3681.7769L13981.0948,-3681.7793L13981.0915,-3681.78L13981.0854,-3681.7803L13981.0799,-3681.7793L13981.0756,-3681.7734L13981.0734,-3681.7644L13981.0742,-3681.7524L13981.075,-3681.7459L13981.071,-3681.7383L13981.0641,-3681.7339L13981.0517,-3681.7302L13981.0401,-3681.731L13981.0238,-3681.7343L13981.0099,-3681.7393L13980.9979,-3681.7448L13980.9885,-3681.7488L13980.9779,-3681.7509L13980.9674,-3681.748L13980.9579,-3681.7462L13980.9394,-3681.7415L13980.9234,-3681.7371L13980.9178,-3681.7389L13980.9078,-3681.739L13980.8951,-3681.7437L13980.8871,-3681.7513L13980.8831,-3681.7597L13980.882,-3681.7673L13980.8816,-3681.7792L13980.8843,-3681.7911L13980.88,-3681.7989L13980.8608,-3681.8091L13980.8431,-3681.8316L13980.8347,-3681.8547L13980.8356,-3681.8894L13980.8356,-3681.9022L13980.8275,-3681.9092L13980.8147,-3681.9104L13980.8084,-3681.9099L13980.7957,-3681.9088L13980.7837,-3681.9103L13980.7768,-3681.9114L13980.7655,-3681.9161L13980.7582,-3681.9212L13980.7531,-3681.9266L13980.7485,-3681.9347L13980.7426,-3681.9437L13980.7361,-3681.9531L13980.7288,-3681.9601L13980.7172,-3681.9648L13980.7073,-3681.9666L13980.6921,-3681.9691L13980.6852,-3681.9713L13980.6812,-3681.9757L13980.679,-3681.9836L13980.6806,-3681.9949L13980.6818,-3682.0005L13980.685,-3682.0103L13980.6864,-3682.0189L13980.6841,-3682.0254L13980.6778,-3682.0318L13980.6654,-3682.0358L13980.655,-3682.0385L13980.6405,-3682.0388L13980.6263,-3682.0373L13980.6114,-3682.0328L13980.5927,-3682.0276L13980.5823,-3682.0254L13980.5721,-3682.0242L13980.5639,-3682.0262L13980.5586,-3682.0286L13980.5562,-3682.0306L13980.5543,-3682.0322L13980.5516,-3682.0371L13980.5473,-3682.0456L13980.5421,-3682.0536L13980.5404,-3682.0553L13980.5377,-3682.0582L13980.529,-3682.0661L13980.5208,-3682.0678L13980.4972,-3682.0673L13980.4612,-3682.0646L13980.4512,-3682.0649L13980.4325,-3682.0654L13980.4197,-3682.0668L13980.4009,-3682.0724L13980.3807,-3682.0841L13980.3611,-3682.0911L13980.3492,-3682.0914L13980.3235,-3682.0841L13980.31,-3682.0844L13980.295,-3682.0878L13980.2759,-3682.0946L13980.2613,-3682.0994L13980.2497,-3682.1066L13980.2388,-3682.1178L13980.2276,-3682.1256L13980.2114,-3682.1328L13980.1983,-3682.1346L13980.1923,-3682.1339L13980.1844,-3682.1313L13980.1729,-3682.1248L13980.1335,-3682.0909L13980.1295,-3682.0865L13980.1276,-3682.0778L13980.13,-3682.0645L13980.1356,-3682.0558L13980.1409,-3682.0483L13980.1472,-3682.0348L13980.1529,-3682.0169L13980.1521,-3682.0011L13980.1499,-3681.9945L13980.1449,-3681.9856L13980.1315,-3681.9722L13980.1114,-3681.9566L13980.0903,-3681.9427L13980.0802,-3681.9285L13980.0618,-3681.8992L13980.0436,-3681.8631L13980.0324,-3681.8547L13979.9936,-3681.8475L13979.9554,-3681.8423L13979.9372,-3681.8372L13979.9274,-3681.8327L13979.9022,-3681.8147L13979.8483,-3681.7927L13979.8007,-3681.7758L13979.786,-3681.7696L13979.7762,-3681.7673L13979.7566,-3681.7673L13979.7362,-3681.7724L13979.6438,-3681.8011L13979.6194,-3681.8062L13979.6018,-3681.8062L13979.5885,-3681.8034L13979.5626,-3681.7932L13979.5388,-3681.7932L13979.5129,-3681.7955L13979.4758,-3681.7966L13979.4282,-3681.7938L13979.4163,-3681.7927"/>
<path content="1,藤田合同タクシー（株）,矢板駅～新高徳駅,999.9,999.9,999.9," xlink:title="1" d="M13983.3984,-3676.8769L13983.302,-3676.903L13983.2713,-3676.9125L13983.2411,-3676.9249L13983.2131,-3676.9323L13983.1613,-3676.943L13983.1417,-3676.952L13983.1123,-3676.9689L13983.0584,-3677.0004L13983.0472,-3677.0072L13983.0416,-3677.0094L13982.9982,-3677.0325L13982.9205,-3677.0669L13982.9009,-3677.0742L13982.8617,-3677.0894L13982.8202,-3677.1041L13982.5963,-3677.1829L13982.5894,-3677.1846L13982.5343,-3677.2038L13982.5158,-3677.21L13982.5025,-3677.2145L13982.4458,-3677.2381L13982.4248,-3677.2483L13982.359,-3677.2821L13982.3324,-3677.2962L13982.3254,-3677.3007L13982.3058,-3677.3108L13982.2414,-3677.3445L13982.2197,-3677.3559L13982.1987,-3677.3666L13982.1952,-3677.3694L13982.1609,-3677.3874L13982.107,-3677.4167L13982.0412,-3677.4516L13981.9977,-3677.4725L13981.9971,-3677.4736L13981.9725,-3677.4849L13981.9683,-3677.4877L13981.9199,-3677.5091L13981.8823,-3677.5254L13981.7891,-3677.5598L13981.6778,-3677.602L13981.5959,-3677.6178L13981.5777,-3677.6218L13981.5567,-3677.6296L13981.5294,-3677.6426L13981.5217,-3677.6454L13981.5084,-3677.6528L13981.4848,-3677.6645L13981.4438,-3677.6851L13981.4167,-3677.6961L13981.3929,-3677.7018L13981.3669,-3677.7029L13981.2776,-3677.6961L13981.2557,-3677.6944L13981.2374,-3677.6928L13981.2213,-3677.6922L13981.1968,-3677.6899L13981.1863,-3677.6899L13981.1135,-3677.6849L13981.0827,-3677.6832L13981.0463,-3677.6804L13980.998,-3677.6775L13980.9791,-3677.6753L13980.9749,-3677.6742L13980.9588,-3677.6702L13980.9448,-3677.6674L13980.9427,-3677.6663L13980.9021,-3677.655L13980.837,-3677.6341L13980.8159,-3677.629L13980.7377,-3677.6091L13980.6984,-3677.5975L13980.6886,-3677.5936L13980.6704,-3677.5829L13980.6459,-3677.5587L13980.634,-3677.5451L13980.6256,-3677.5333L13980.6109,-3677.517L13980.5983,-3677.5057L13980.5794,-3677.4927L13980.5633,-3677.4843L13980.5479,-3677.4792L13980.5361,-3677.476L13980.5,-3677.4706L13980.4925,-3677.4688L13980.4757,-3677.4668L13980.4702,-3677.4657L13980.4296,-3677.4544L13980.4025,-3677.4453L13980.3792,-3677.4375L13980.3582,-3677.4285L13980.3491,-3677.4246L13980.3393,-3677.4206L13980.3211,-3677.4099L13980.3098,-3677.4026L13980.2622,-3677.3688L13980.2276,-3677.3394L13980.2202,-3677.3333L13980.1908,-3677.3046L13980.1432,-3677.2516L13980.1327,-3677.2421L13980.1117,-3677.2246L13980.1061,-3677.2212L13980.076,-3677.2032L13979.9983,-3677.1564L13979.9832,-3677.1482L13979.9423,-3677.126L13979.9115,-3677.1113L13979.8891,-3677.1051L13979.8639,-3677.1029L13979.8527,-3677.1012L13979.824,-3677.0984L13979.7875,-3677.0943L13979.7743,-3677.0927L13979.6948,-3677.0851L13979.6427,-3677.0787L13979.6245,-3677.0742L13979.6105,-3677.0685L13979.5979,-3677.0617L13979.5839,-3677.0533L13979.5474,-3677.0313L13979.5096,-3677.0122L13979.4998,-3677.0088L13979.4767,-3677.0009L13979.4718,-3677.0004L13979.4599,-3676.9964L13979.4501,-3676.9947L13979.4382,-3676.9908L13979.4081,-3676.9834L13979.2849,-3676.9547L13979.2446,-3676.9451L13979.2252,-3676.9414L13979.1981,-3676.935L13979.1687,-3676.9294L13979.1142,-3676.9157L13979.1036,-3676.9153L13979.0147,-3676.8978L13978.8578,-3676.8621L13978.8424,-3676.8629L13978.792,-3676.8533L13978.7598,-3676.846L13978.7542,-3676.8437L13978.7339,-3676.8392L13978.6629,-3676.8158L13978.6569,-3676.8139L13978.61,-3676.7958L13978.575,-3676.7862L13978.5575,-3676.7823L13978.5463,-3676.7812L13978.5344,-3676.7784L13978.4826,-3676.7716L13978.4581,-3676.766L13978.3034,-3676.7547L13978.2669,-3676.7513L13978.2424,-3676.7508L13978.1897,-3676.7492L13978.108,-3676.7468L13978.0849,-3676.7468L13977.9981,-3676.7428L13977.7726,-3676.7445L13977.6721,-3676.7448L13977.6319,-3676.7434L13977.6109,-3676.7462L13977.5864,-3676.7519L13977.574,-3676.7555L13977.5311,-3676.7682L13977.4555,-3676.7936L13977.4324,-3676.7998L13977.387,-3676.8001L13977.3675,-3676.8001L13977.2875,-3676.8008L13977.111,-3676.802L13977.0886,-3676.8014L13976.957,-3676.8031L13976.9563,-3676.8031L13976.8821,-3676.8003L13976.8493,-3676.7972L13976.8289,-3676.7952L13976.7925,-3676.7907L13976.7715,-3676.7868L13976.7456,-3676.7789L13976.7161,-3676.7675L13976.7099,-3676.7648L13976.6987,-3676.758L13976.6889,-3676.749L13976.6566,-3676.7389L13976.6273,-3676.7344L13976.5495,-3676.7276L13976.5173,-3676.7259L13976.4326,-3676.7214L13976.4109,-3676.7197L13976.3808,-3676.718L13976.3346,-3676.7129L13976.2912,-3676.7118L13976.2688,-3676.7141L13976.261,-3676.7157L13976.2387,-3676.7203L13976.1344,-3676.7434L13976.0391,-3676.7664L13975.9761,-3676.7834L13975.9342,-3676.7934L13975.9187,-3676.798L13975.8844,-3676.807L13975.8704,-3676.8098L13975.778,-3676.8335L13975.7388,-3676.8436L13975.694,-3676.8555L13975.6765,-3676.8589L13975.6072,-3676.8808L13975.5386,-3676.9084L13975.5204,-3676.9152L13975.4966,-3676.9208L13975.4832,-3676.9231L13975.4629,-3676.9242L13975.4238,-3676.9221L13975.371,-3676.9166L13975.3078,-3676.9091L13975.2984,-3676.9084L13975.233,-3676.911L13975.2261,-3676.9131L13975.2158,-3676.9152L13975.2082,-3676.9158L13975.2004,-3676.9174L13975.171,-3676.9208L13975.1668,-3676.9219L13975.1157,-3676.9253L13975.0569,-3676.9292L13975.024,-3676.9338L13974.9995,-3676.9394L13974.9939,-3676.9399L13974.9778,-3676.9422L13974.9316,-3676.9428L13974.9106,-3676.9394L13974.8882,-3676.9377L13974.8483,-3676.9336L13974.7839,-3676.927L13974.7741,-3676.9246L13974.7558,-3676.9216L13974.7481,-3676.9197L13974.7364,-3676.9174L13974.704,-3676.9112L13974.6725,-3676.9104L13974.6094,-3676.9198"/>
<path content="1,関東自動車（株）,北塩野室・船生,0.5,999.9,999.9," xlink:title="1" d="M13979.7825,-3673.8281L13979.7581,-3673.858L13979.7162,-3673.9132L13979.6981,-3673.9363L13979.6504,-3673.9972L13979.6085,-3674.0552L13979.5938,-3674.0794L13979.5875,-3674.0941L13979.5784,-3674.1245L13979.5777,-3674.1515L13979.5772,-3674.165L13979.5763,-3674.1752L13979.5756,-3674.2264L13979.5777,-3674.2614L13979.5797,-3674.2767L13979.5854,-3674.3036L13979.5994,-3674.3431L13979.6189,-3674.3921L13979.6504,-3674.4563L13979.6525,-3674.4602L13979.6595,-3674.4732L13979.6918,-3674.5237L13979.7086,-3674.5539L13979.7301,-3674.5895L13979.7378,-3674.6022L13979.7861,-3674.6788L13979.798,-3674.6918L13979.8392,-3674.729L13980.0058,-3674.8871L13980.0203,-3674.9025L13980.0507,-3674.8902L13980.066,-3674.8822L13980.0693,-3674.8777L13980.0791,-3674.8551L13980.0833,-3674.8484L13980.0924,-3674.8411L13980.1064,-3674.8371L13980.1549,-3674.841L13980.1623,-3674.8371L13980.1798,-3674.8405L13980.1959,-3674.8444L13980.2183,-3674.854L13980.249,-3674.8743L13980.2576,-3674.8803L13980.2643,-3674.8839L13980.2903,-3674.898L13980.3099,-3674.9053L13980.3315,-3674.9115L13980.4015,-3674.9244L13980.4399,-3674.9306L13980.463,-3674.9323L13980.5574,-3674.9318L13980.577,-3674.9357L13980.6001,-3674.9425L13980.6441,-3674.9599L13980.6504,-3674.9628L13980.6686,-3674.9695L13980.7022,-3674.9757L13980.7476,-3674.9735L13980.7525,-3674.9723L13980.7735,-3674.9718L13980.7883,-3674.9738L13980.7813,-3674.9943L13980.7749,-3675.0129L13980.7623,-3675.0377L13980.7574,-3675.0473L13980.7504,-3675.0569L13980.7169,-3675.0907L13980.7047,-3675.1046L13980.6973,-3675.1121L13980.6826,-3675.1329L13980.6609,-3675.1757L13980.6246,-3675.2354L13980.5652,-3675.3109L13980.5486,-3675.3244L13980.4947,-3675.3672L13980.4527,-3675.4123L13980.3729,-3675.5002L13980.3664,-3675.5065L13980.3526,-3675.5244L13980.3218,-3675.5655L13980.2994,-3675.6021L13980.2966,-3675.6055L13980.2721,-3675.6534L13980.2413,-3675.7064L13980.2139,-3675.7475L13980.1846,-3675.7824L13980.1187,-3675.8511L13980.0963,-3675.8731L13980.0599,-3675.8968L13980.048,-3675.9064L13979.9969,-3675.9588L13979.9934,-3675.961L13979.9906,-3675.9644L13979.9661,-3675.9813L13979.9423,-3675.9903L13979.9304,-3675.9953L13979.91,-3676.0076L13979.9003,-3676.0128L13979.8373,-3676.0568L13979.8114,-3676.0776L13979.7974,-3676.0917L13979.7942,-3676.0953L13979.7715,-3676.1204L13979.7505,-3676.148L13979.733,-3676.1728L13979.7239,-3676.1869L13979.6987,-3676.219L13979.6693,-3676.2511L13979.6504,-3676.268L13979.637,-3676.2812L13979.6014,-3676.3164L13979.5783,-3676.3435L13979.5566,-3676.3717L13979.5426,-3676.3902L13979.497,-3676.4612L13979.4921,-3676.4762L13979.4388,-3676.5689L13979.4256,-3676.5886L13979.3717,-3676.6725L13979.3122,-3676.7705L13979.2988,-3676.8016L13979.2965,-3676.8059L13979.2964,-3676.806L13979.2964,-3676.806L13979.2964,-3676.8061L13979.2964,-3676.8061L13979.2964,-3676.8061L13979.287,-3676.8212L13979.2394,-3676.873L13979.2254,-3676.8871L13979.217,-3676.8978L13979.21,-3676.9108L13979.2026,-3676.9256L13979.1981,-3676.935L13979.1687,-3676.9294L13979.1142,-3676.9157L13979.1036,-3676.9153L13979.0147,-3676.8978L13978.8578,-3676.8621L13978.8424,-3676.8629L13978.792,-3676.8533L13978.7598,-3676.846L13978.7542,-3676.8437L13978.7339,-3676.8392L13978.6629,-3676.8158L13978.6569,-3676.8139L13978.61,-3676.7958L13978.575,-3676.7862L13978.5575,-3676.7823L13978.5463,-3676.7812L13978.5344,-3676.7784L13978.4826,-3676.7716L13978.4581,-3676.766"/>
<path content="1,関東自動車（株）,宇都宮駅・船生,9.0,8.0,6.0," xlink:title="1" d="M13978.4581,-3676.766L13978.4826,-3676.7716L13978.5344,-3676.7784L13978.5463,-3676.7812L13978.5575,-3676.7823L13978.575,-3676.7862L13978.61,-3676.7958L13978.6569,-3676.8139L13978.6629,-3676.8158L13978.7339,-3676.8392L13978.7542,-3676.8437L13978.7598,-3676.846L13978.792,-3676.8533L13978.8424,-3676.8629L13978.8578,-3676.8621L13979.0147,-3676.8978L13979.1036,-3676.9153L13979.1142,-3676.9157L13979.1687,-3676.9294L13979.1981,-3676.935L13979.2026,-3676.9256L13979.21,-3676.9108L13979.217,-3676.8978L13979.2254,-3676.8871L13979.2394,-3676.873L13979.287,-3676.8212L13979.2964,-3676.8061L13979.2964,-3676.8061L13979.2964,-3676.8061L13979.2988,-3676.8016L13979.3122,-3676.7705L13979.3717,-3676.6725L13979.4256,-3676.5886L13979.4388,-3676.5689L13979.4921,-3676.4762L13979.497,-3676.4612L13979.5426,-3676.3902L13979.5566,-3676.3717L13979.5783,-3676.3435L13979.6014,-3676.3164L13979.637,-3676.2812L13979.6504,-3676.268L13979.6693,-3676.2511L13979.6987,-3676.219L13979.7239,-3676.1869L13979.733,-3676.1728L13979.7505,-3676.148L13979.7715,-3676.1204L13979.7942,-3676.0953L13979.7974,-3676.0917L13979.8114,-3676.0776L13979.8373,-3676.0568L13979.9003,-3676.0128L13979.91,-3676.0076L13979.9304,-3675.9953L13979.9423,-3675.9903L13979.9661,-3675.9813L13979.9906,-3675.9644L13979.9934,-3675.961L13979.9969,-3675.9588L13980.048,-3675.9064L13980.0599,-3675.8968L13980.0963,-3675.8731L13980.1187,-3675.8511L13980.1846,-3675.7824L13980.2139,-3675.7475L13980.2413,-3675.7064L13980.2721,-3675.6534L13980.2966,-3675.6055L13980.2994,-3675.6021L13980.3218,-3675.5655L13980.3526,-3675.5244L13980.3664,-3675.5065L13980.3729,-3675.5002L13980.4527,-3675.4123L13980.4947,-3675.3672L13980.5486,-3675.3244L13980.5652,-3675.3109L13980.6246,-3675.2354L13980.6609,-3675.1757L13980.6826,-3675.1329L13980.6973,-3675.1121L13980.7047,-3675.1046L13980.7169,-3675.0907L13980.7504,-3675.0569L13980.7574,-3675.0473L13980.7623,-3675.0377L13980.7749,-3675.0129L13980.7813,-3674.9943L13980.7883,-3674.9738L13980.7735,-3674.9718L13980.7525,-3674.9723L13980.7476,-3674.9735L13980.7022,-3674.9757L13980.6686,-3674.9695L13980.6504,-3674.9628L13980.6441,-3674.9599L13980.6001,-3674.9425L13980.577,-3674.9357L13980.5574,-3674.9318L13980.463,-3674.9323L13980.4399,-3674.9306L13980.4015,-3674.9244L13980.3315,-3674.9115L13980.3099,-3674.9053L13980.2903,-3674.898L13980.2643,-3674.8839L13980.2576,-3674.8803L13980.249,-3674.8743L13980.2183,-3674.854L13980.1959,-3674.8444L13980.1798,-3674.8405L13980.1623,-3674.8371L13980.1549,-3674.841L13980.1064,-3674.8371L13980.0924,-3674.8411L13980.0833,-3674.8484L13980.0791,-3674.8551L13980.0693,-3674.8777L13980.066,-3674.8822L13980.0507,-3674.8902L13980.0203,-3674.9025L13980.0058,-3674.8871L13979.8392,-3674.729L13979.798,-3674.6918L13979.7861,-3674.6788L13979.7378,-3674.6022L13979.7301,-3674.5895L13979.7086,-3674.5539L13979.6918,-3674.5237L13979.6595,-3674.4732L13979.6525,-3674.4602L13979.6504,-3674.4563L13979.6189,-3674.3921L13979.5994,-3674.3431L13979.5854,-3674.3036L13979.5797,-3674.2767L13979.5777,-3674.2614L13979.5756,-3674.2264L13979.5763,-3674.1752L13979.5772,-3674.165L13979.5777,-3674.1515L13979.5784,-3674.1245L13979.5875,-3674.0941L13979.5938,-3674.0794L13979.6085,-3674.0552L13979.6504,-3673.9972L13979.6981,-3673.9363L13979.7162,-3673.9132L13979.7581,-3673.858L13979.7825,-3673.8281"/>
<path content="3,日光市,3　大渡線,3.5,3.5,0.0," xlink:title="3" d="M13974.6094,-3675.4168L13974.6173,-3675.4246L13974.6299,-3675.4324L13974.6467,-3675.4392L13974.6726,-3675.4475L13974.7489,-3675.464L13974.7657,-3675.4713L13974.7748,-3675.4798L13974.8343,-3675.5721L13974.8434,-3675.5862L13974.8504,-3675.6042L13974.8602,-3675.6369L13974.8602,-3675.664L13974.8595,-3675.6938L13974.8637,-3675.713L13974.8861,-3675.762L13974.8952,-3675.7789L13974.9008,-3675.7879L13974.9075,-3675.7968L13974.9687,-3675.9468L13974.9911,-3675.9997L13974.9974,-3676.0127L13975.0058,-3676.0335L13975.017,-3676.0572L13975.0303,-3676.0763L13975.0429,-3676.0882L13975.108,-3676.1479L13975.1199,-3676.1541L13975.1283,-3676.1569L13975.1461,-3676.1604L13975.1587,-3676.1546L13975.1698,-3676.1488L13975.1808,-3676.1417L13975.1902,-3676.136L13975.2354,-3676.1039L13975.2585,-3676.0865L13975.2613,-3676.0854L13975.2697,-3676.0791L13975.3075,-3676.0516L13975.3467,-3676.0245L13975.3551,-3676.0178L13975.3654,-3676.0113L13975.4049,-3675.9877L13975.4076,-3675.9811L13975.4231,-3675.9716L13975.4356,-3675.9665L13975.448,-3675.9635L13975.4609,-3675.9654L13975.4821,-3675.9742L13975.4931,-3675.9817L13975.5365,-3676.02L13975.5497,-3676.0319L13975.5897,-3676.0662L13975.6625,-3676.1321L13975.701,-3676.1671L13975.7164,-3676.1817L13975.7535,-3676.2228L13975.7633,-3676.2375L13975.7721,-3676.2565L13975.7744,-3676.2628L13975.8088,-3676.3028L13975.82,-3676.3192L13975.8312,-3676.3389L13975.8424,-3676.3704L13975.8501,-3676.376"/>
<path content="3,日光市,4　温泉線,4.0,4.0,4.5," xlink:title="3" d="M13974.8004,-3673.8281L13974.8107,-3673.8623L13974.809,-3673.8742L13974.8196,-3673.9149L13974.8216,-3673.9227L13974.8286,-3673.9576L13974.8377,-3674.0387L13974.8377,-3674.0472L13974.988,-3674.0432L13975.0971,-3674.0432L13975.1566,-3674.0455L13975.2181,-3674.0494L13975.3384,-3674.0573L13975.3804,-3674.0596L13975.4321,-3674.0585L13975.5216,-3674.0511L13975.565,-3674.0444L13975.623,-3674.0286L13975.6741,-3674.0128L13975.7314,-3673.9982L13975.7444,-3673.9951L13975.7734,-3673.9914L13975.7993,-3673.9886L13975.8139,-3673.9858L13975.8244,-3673.9847L13975.993,-3673.9548L13976.0231,-3673.9475L13976.0426,-3673.9418L13976.0951,-3673.9221L13976.1734,-3673.8912L13976.207,-3673.8799L13976.2321,-3673.872L13976.4247,-3673.8281"/>
<path content="3,日光市,4　温泉線,4.0,4.0,4.5," xlink:title="3" d="M13976.5762,-3673.8281L13976.5902,-3673.8441L13976.6028,-3673.8681L13976.6588,-3673.943L13976.7007,-3674.001L13976.8126,-3674.1531L13976.8168,-3674.1588L13976.8301,-3674.1768L13976.8503,-3674.2038L13976.8895,-3674.259L13976.8916,-3674.2754L13976.8951,-3674.3036L13976.9021,-3674.3728L13976.9062,-3674.4123L13976.9104,-3674.4399L13976.9112,-3674.4596L13976.9161,-3674.4917L13976.9227,-3674.5586L13976.9307,-3674.6275L13976.937,-3674.6866L13976.9405,-3674.7148L13976.951,-3674.8106L13976.9559,-3674.8573L13976.958,-3674.8669L13976.9538,-3674.8742L13976.8964,-3674.9412L13976.8804,-3674.961L13976.865,-3674.9787L13976.8279,-3675.0241L13976.786,-3675.0736L13976.7783,-3675.0832L13976.7538,-3675.1091L13976.6986,-3675.1574L13976.5654,-3675.2615L13976.545,-3675.2741L13976.5056,-3675.2408L13976.4139,-3675.1632L13976.2887,-3675.0601L13976.1964,-3674.9852L13976.1537,-3674.9525L13976.0957,-3674.9131L13976.0719,-3674.8967L13976.0657,-3674.8934L13976.0384,-3674.8759L13975.9251,-3674.81L13975.8252,-3674.7501"/>
</g>
</svg>
