<?xml version="1.0" encoding="UTF-8"?>
<svg  xmlns="http://www.w3.org/2000/svg" xmlns:xlink="http://www.w3.org/1999/xlink" xmlns:go="http://purl.org/svgmap/profile" property="N07_001,N07_002,N07_003,N07_004,N07_005,N07_006,N07_007" viewBox="13341.796875 -3515.625 8.7890625 8.7890625" go:dataArea="13341.796875 -3515.625 8.7890625 8.7890625" >
<metadata>
 <rdf:RDF xmlns:rdf="http://www.w3.org/1999/02/22-rdf-syntax-ns#" xmlns:crs="http://opengis.org/xmldtds/transformations.dtd" xmlns:svg="http://www.w3.org/svg" >
  <rdf:Description>
   <crs:CoordinateReferenceSystem rdf:resource="http://purl.org/crs/84" svg:transform="matrix(100.0,0.0,0.0,-100.0,0.0,0.0)" />
  </rdf:Description>
 </rdf:RDF>
</metadata>
<globalCoordinateSystem srsName="http://purl.org/crs/84" transform="matrix(100.0,0.0,0.0,-100.0,0.0,0.0)" />
<defs>
 <g id="p0" >
  <circle cx="0.0" cy="0.0" r="3" stroke="green" stroke-width="0.75" vector-effect="non-scaling-stroke" />
 </g>
</defs>
<g fill="none" fill-rule="evenodd" stroke="#FF00FF" stroke-width="0.75" opacity="0.5" vector-effect="non-scaling-stroke" stroke-linejoin="bevel" >
<path content="2,新見市,大井野線,3.0,0.0,0.0," xlink:title="2" d="M13350.028,-3514.2188L13350.047,-3514.238L13350.0556,-3514.2446L13350.0663,-3514.2485L13350.0759,-3514.2497L13350.0961,-3514.2503L13350.1057,-3514.2489L13350.1208,-3514.2443L13350.1551,-3514.2303L13350.1763,-3514.223L13350.1873,-3514.2184L13350.2147,-3514.2123L13350.2463,-3514.2123L13350.2544,-3514.2139L13350.2731,-3514.2222L13350.2882,-3514.2313L13350.3073,-3514.2477"/>
<path content="2,新見市,大井野線,3.0,0.0,0.0," xlink:title="2" d="M13350.3073,-3514.2477L13350.319,-3514.2579L13350.3387,-3514.2637L13350.387,-3514.2636L13350.4047,-3514.2579L13350.4274,-3514.254L13350.4496,-3514.2491L13350.5132,-3514.2481L13350.5293,-3514.2448L13350.5488,-3514.2394L13350.5859,-3514.23"/>
<path content="2,新見市,大井野線,3.0,0.0,0.0," xlink:title="2" d="M13350.3073,-3514.2477L13350.2985,-3514.2585L13350.2992,-3514.2692L13350.3065,-3514.274L13350.3217,-3514.2781L13350.3376,-3514.29L13350.3405,-3514.3138L13350.3347,-3514.34L13350.3303,-3514.3691L13350.3412,-3514.4072L13350.3477,-3514.4214L13350.3564,-3514.4244L13350.3665,-3514.4202L13350.3788,-3514.403L13350.4013,-3514.3947L13350.4208,-3514.4024L13350.4411,-3514.4238L13350.4482,-3514.4316L13350.4556,-3514.4387L13350.4649,-3514.441L13350.478,-3514.4345L13350.4972,-3514.4323L13350.5121,-3514.4433L13350.5185,-3514.4584L13350.5257,-3514.4768L13350.5406,-3514.4912L13350.5567,-3514.4955L13350.5693,-3514.5044L13350.5732,-3514.5151L13350.5741,-3514.5518L13350.5767,-3514.5611L13350.5851,-3514.5719L13350.5859,-3514.5729"/>
<path content="2,新見市,田口線,7.0,6.0,0.0," xlink:title="2" d="M13343.5714,-3510.8284L13343.5729,-3510.8092L13343.5874,-3510.7838L13343.6579,-3510.6785L13343.6689,-3510.6594L13343.675,-3510.6475L13343.6923,-3510.6104L13343.7094,-3510.5681L13343.7169,-3510.5489L13343.7228,-3510.5339L13343.7398,-3510.4911L13343.7564,-3510.443L13343.7843,-3510.3838L13343.7912,-3510.3579L13343.8005,-3510.3066L13343.8005,-3510.2887L13343.7978,-3510.2728L13343.7881,-3510.2469L13343.7779,-3510.2312L13343.7614,-3510.2132L13343.7423,-3510.2013L13343.7117,-3510.1882L13343.7004,-3510.1833L13343.6614,-3510.1658L13343.6474,-3510.1598L13343.5723,-3510.1275L13343.5517,-3510.1179L13343.4921,-3510.0926L13343.4476,-3510.0717L13343.4009,-3510.0458L13343.3866,-3510.0373L13343.3632,-3510.0188L13343.3372,-3509.9923L13343.3131,-3509.9623L13343.2996,-3509.9345L13343.2885,-3509.9087L13343.2841,-3509.8849L13343.2821,-3509.863L13343.2847,-3509.836L13343.3002,-3509.7516L13343.3167,-3509.6482L13343.3231,-3509.6237L13343.3294,-3509.6085L13343.2101,-3509.5178L13343.1944,-3509.5071L13343.1724,-3509.497L13343.0539,-3509.4536L13342.9866,-3509.4525L13342.8969,-3509.453L13342.8859,-3509.4558L13342.8399,-3509.4773L13342.8119,-3509.4868L13342.7917,-3509.4879L13342.7338,-3509.4834L13342.709,-3509.484L13342.6714,-3509.4913L13342.6453,-3509.4941L13342.6234,-3509.4952L13342.5863,-3509.4986L13342.5103,-3509.5048L13342.4897,-3509.5111L13342.4678,-3509.524L13342.4145,-3509.5481L13342.3969,-3509.5552L13342.387,-3509.5557L13342.3699,-3509.555L13342.352,-3509.5572L13342.095,-3509.6158L13342.06,-3509.627L13342.0484,-3509.6339L13342.0347,-3509.6451L13342.0244,-3509.6564L13342.0128,-3509.6727L13341.997,-3509.6885L13341.9785,-3509.7043L13341.9415,-3509.7313L13341.9202,-3509.7499L13341.8798,-3509.791L13341.8647,-3509.7984L13341.8497,-3509.8029L13341.8235,-3509.804L13341.8133,-3509.8018L13341.8044,-3509.7989L13341.7969,-3509.7946"/>
<path content="2,新見市,菅生路線,0.4,0.0,0.0,刑部駅" xlink:title="2" d="M13347.7422,-3509.944L13347.7505,-3509.9315L13347.7519,-3509.896L13347.7574,-3509.8797L13347.7663,-3509.8707L13347.7793,-3509.8633L13347.7903,-3509.8554L13347.7958,-3509.8487L13347.8095,-3509.8194L13347.8156,-3509.8099L13347.8231,-3509.8036L13347.8341,-3509.7974L13347.8599,-3509.7882L13347.8719,-3509.7839L13347.8841,-3509.7811L13347.9006,-3509.7817L13347.915,-3509.7844L13347.937,-3509.7907L13347.9569,-3509.7905L13347.9626,-3509.781L13347.9541,-3509.7744L13347.9438,-3509.7636L13347.9288,-3509.7512L13347.9144,-3509.7349L13347.8973,-3509.7225L13347.8979,-3509.7112L13347.904,-3509.6848L13347.9095,-3509.6752L13347.9144,-3509.6718L13347.939,-3509.6662L13347.9431,-3509.6644L13347.9746,-3509.6594L13347.9864,-3509.6565L13347.9959,-3509.6487L13347.9959,-3509.6363L13347.9939,-3509.6267L13347.9931,-3509.6149L13348.0083,-3509.6076L13348.0151,-3509.5996L13348.0151,-3509.5828L13348.0301,-3509.5602L13348.0356,-3509.5496L13348.0411,-3509.5439L13348.0411,-3509.5428L13348.0528,-3509.5383L13348.0541,-3509.5366L13348.0556,-3509.5291L13348.0466,-3509.5236L13348.0391,-3509.5208L13348.0171,-3509.518L13348.0008,-3509.5168L13347.9973,-3509.5146L13347.9966,-3509.5129L13347.9953,-3509.5118L13347.9986,-3509.4977L13347.998,-3509.4831L13347.9953,-3509.4763L13347.9836,-3509.4582L13347.9824,-3509.449L13347.989,-3509.4374L13348,-3509.429L13348.0575,-3509.4271L13348.0623,-3509.4175L13348.046,-3509.3799L13348.0453,-3509.367L13348.0488,-3509.3625L13348.0618,-3509.3523L13348.0891,-3509.3377L13348.1104,-3509.3236L13348.1106,-3509.3169L13348.1049,-3509.3062L13348.094,-3509.2971L13348.0864,-3509.2881L13348.0871,-3509.283L13348.0946,-3509.2678L13348.0966,-3509.2543L13348.094,-3509.2538L13348.0891,-3509.2498L13348.0885,-3509.2503L13348.083,-3509.2493L13348.0823,-3509.2503L13348.0659,-3509.2577L13348.0566,-3509.2583L13348.048,-3509.2498L13348.0371,-3509.2382L13348.0274,-3509.2278L13348.0246,-3509.2206L13348.0288,-3509.2153L13348.0384,-3509.2103L13348.0453,-3509.2103L13348.0583,-3509.2188L13348.0686,-3509.2289L13348.0781,-3509.2267L13348.094,-3509.2199L13348.1043,-3509.2183L13348.118,-3509.2222L13348.1296,-3509.2267L13348.1324,-3509.2323L13348.1234,-3509.256L13348.1234,-3509.265L13348.1303,-3509.2842L13348.1391,-3509.2971L13348.1488,-3509.3017L13348.2077,-3509.3197L13348.2213,-3509.3191L13348.2303,-3509.3174L13348.2337,-3509.3158L13348.2488,-3509.3123L13348.2652,-3509.3123L13348.277,-3509.3146L13348.3037,-3509.3219L13348.3256,-3509.327L13348.3435,-3509.3264L13348.3585,-3509.3236L13348.3673,-3509.3231L13348.3736,-3509.3264L13348.3761,-3509.3351L13348.3743,-3509.3681L13348.377,-3509.3743L13348.3852,-3509.3817L13348.423,-3509.4076L13348.425,-3509.4098L13348.425,-3509.4149L13348.4216,-3509.4205L13348.4222,-3509.4245L13348.4263,-3509.4284L13348.4285,-3509.4301L13348.4565,-3509.4301L13348.4606,-3509.4318L13348.4702,-3509.4419L13348.4936,-3509.4718L13348.4983,-3509.4758L13348.5196,-3509.4746L13348.5676,-3509.469L13348.5745,-3509.4673L13348.5922,-3509.4476L13348.5977,-3509.4442L13348.6053,-3509.4414L13348.6471,-3509.4313L13348.6608,-3509.4313L13348.6793,-3509.4352L13348.745,-3509.4527L13348.758,-3509.4527L13348.7635,-3509.4504L13348.7753,-3509.4419L13348.7965,-3509.4217L13348.8095,-3509.4127L13348.8198,-3509.4087L13348.8257,-3509.4068L13348.8336,-3509.405L13348.8568,-3509.4021L13348.9593,-3509.3895L13349.0165,-3509.383L13349.0337,-3509.3779L13349.0665,-3509.3542L13349.083,-3509.3458L13349.0968,-3509.3424L13349.1605,-3509.3362L13349.1724,-3509.3358L13349.1803,-3509.3379L13349.1981,-3509.3503L13349.205,-3509.3508L13349.2646,-3509.3418L13349.3037,-3509.3357L13349.3249,-3509.3216L13349.3358,-3509.3171L13349.3962,-3509.3081L13349.4064,-3509.3075L13349.4119,-3509.3108L13349.4229,-3509.3216L13349.4298,-3509.3261L13349.4442,-3509.3261L13349.4558,-3509.3227L13349.4633,-3509.3159L13349.466,-3509.3103L13349.4648,-3509.3047L13349.4585,-3509.299L13349.4249,-3509.3008L13349.3975,-3509.2838L13349.368,-3509.2708L13349.3517,-3509.2675L13349.3427,-3509.2602L13349.3432,-3509.2523L13349.3513,-3509.2493L13349.3688,-3509.2506L13349.4092,-3509.2568L13349.4277,-3509.2624L13349.4339,-3509.263L13349.4544,-3509.2686L13349.4688,-3509.2686L13349.4942,-3509.2602L13349.5065,-3509.2579L13349.5258,-3509.2579L13349.5305,-3509.2596L13349.5348,-3509.2628L13349.5325,-3509.2726L13349.5292,-3509.2838L13349.5278,-3509.2913L13349.5319,-3509.2957L13349.5353,-3509.2979L13349.5795,-3509.3071L13349.5979,-3509.272L13349.5979,-3509.2665L13349.5595,-3509.209L13349.5602,-3509.2L13349.5637,-3509.1853L13349.5629,-3509.1718L13349.556,-3509.156L13349.5554,-3509.1368L13349.5725,-3509.0766L13349.5732,-3509.0709L13349.5897,-3509.0123L13349.591,-3509.0101L13349.5904,-3508.9966L13349.5375,-3508.8658L13349.5362,-3508.8579L13349.5383,-3508.836L13349.5389,-3508.8146L13349.5403,-3508.8061L13349.5403,-3508.7875L13349.5314,-3508.7718L13349.5348,-3508.7554L13349.5568,-3508.6743L13349.5808,-3508.659L13349.591,-3508.6483L13349.6055,-3508.6145L13349.6063,-3508.5999L13349.6022,-3508.5757L13349.598,-3508.5655L13349.5782,-3508.5199L13349.5741,-3508.508L13349.5748,-3508.5019L13349.5817,-3508.4884L13349.5987,-3508.4613L13349.6028,-3508.4478L13349.6038,-3508.4199L13349.6067,-3508.4115L13349.6118,-3508.4055L13349.6176,-3508.4005L13349.6247,-3508.3972L13349.6419,-3508.3948L13349.6542,-3508.3915L13349.6734,-3508.3773L13349.6829,-3508.3678L13349.6932,-3508.3537L13349.7398,-3508.2725L13349.7542,-3508.2596L13349.7658,-3508.2438L13349.7713,-3508.2348L13349.7987,-3508.2151L13349.8124,-3508.1948L13349.8309,-3508.1802L13349.8363,-3508.1706L13349.8363,-3508.1553L13349.8247,-3508.1114L13349.824,-3508.0917L13349.8398,-3508.0607L13349.8494,-3508.0331L13349.8555,-3508.0123L13349.8597,-3508.0038L13349.8918,-3507.9655L13349.9049,-3507.9441L13349.9185,-3507.9176L13349.9274,-3507.9001L13349.9322,-3507.8928L13349.939,-3507.8855L13349.9583,-3507.8725L13349.963,-3507.8703L13350.0083,-3507.8501L13350.0607,-3507.8266L13350.0859,-3507.839L13350.1112,-3507.8512L13350.2472,-3507.8496L13350.2676,-3507.8517L13350.2845,-3507.8615L13350.3043,-3507.8837L13350.3223,-3507.9047L13350.3434,-3507.9144L13350.3694,-3507.924L13350.4005,-3507.9287L13350.4359,-3507.9328L13350.455,-3507.9384L13350.478,-3507.9513L13350.5259,-3507.9849L13350.5477,-3507.9973L13350.5859,-3508.0088"/>
<path content="2,高梁市,北部地区　市役所・新見駅-上市・花見・千屋温泉,7.0,5.0,4.0," xlink:title="2" d="M13346.5624,-3506.8359L13346.526,-3506.9038L13346.4959,-3506.9568L13346.3789,-3507.1586L13346.3039,-3507.2756L13346.2514,-3507.3518L13346.2244,-3507.3836L13346.2149,-3507.3919L13346.1853,-3507.4178L13346.167,-3507.4358L13346.1532,-3507.4496L13346.1219,-3507.4744L13346.0785,-3507.5184L13346.062,-3507.5398L13346.0415,-3507.5702L13346.0298,-3507.5922L13346.0155,-3507.6254L13345.9942,-3507.6873L13345.9757,-3507.7433L13345.9606,-3507.7771L13345.9405,-3507.8183L13345.9169,-3507.8514L13345.9032,-3507.8701L13345.8922,-3507.8819L13345.8799,-3507.8932L13345.8416,-3507.923L13345.8107,-3507.9416L13345.7759,-3507.9574L13345.7395,-3507.9686L13345.7022,-3507.9766L13345.6395,-3507.985L13345.5732,-3507.9861L13345.5383,-3507.9889L13345.5082,-3507.994L13345.4527,-3508.0086L13345.4265,-3508.0188L13345.3938,-3508.0385L13345.3615,-3508.0661L13345.3212,-3508.1021L13345.3123,-3508.1089L13345.2767,-3508.1286L13345.2417,-3508.1416L13345.2109,-3508.1494L13345.1904,-3508.1517L13345.1499,-3508.1512L13345.1027,-3508.1444L13345.0665,-3508.1439L13345.0377,-3508.1478L13345.0157,-3508.1529L13344.9938,-3508.1608L13344.9671,-3508.1698L13344.937,-3508.1771L13344.9131,-3508.1799L13344.8802,-3508.1804L13344.8493,-3508.1749L13344.8247,-3508.1664L13344.7891,-3508.15L13344.7556,-3508.1337L13344.724,-3508.1247L13344.7131,-3508.1213L13344.6775,-3508.1139L13344.6474,-3508.11L13344.6214,-3508.1105L13344.6139,-3508.1106L13344.6007,-3508.1117L13344.5816,-3508.1151L13344.5597,-3508.1213L13344.4871,-3508.1451L13344.4634,-3508.1529L13344.4336,-3508.1628L13344.4261,-3508.1653L13344.3838,-3508.1799L13344.3419,-3508.1979L13344.3166,-3508.2114L13344.2653,-3508.2418L13344.2479,-3508.2536L13344.233,-3508.2659L13344.22,-3508.2823L13344.2118,-3508.2974L13344.2096,-3508.3033L13344.2035,-3508.3206L13344.2001,-3508.3398L13344.2004,-3508.3467L13344.2015,-3508.3753L13344.2049,-3508.4068L13344.2109,-3508.4405L13344.2145,-3508.4608L13344.2213,-3508.5043L13344.2295,-3508.5577L13344.2303,-3508.5769L13344.2303,-3508.6085L13344.2269,-3508.6316L13344.2246,-3508.6418L13344.2226,-3508.6513L13344.2063,-3508.6762L13344.1783,-3508.7021L13344.1439,-3508.7291L13344.1323,-3508.7366L13344.097,-3508.7595L13344.0696,-3508.7802L13344.0542,-3508.7919L13344.0483,-3508.811L13344.0507,-3508.8281L13344.0599,-3508.8457L13344.0623,-3508.8501L13344.1029,-3508.8889L13344.1343,-3508.9188L13344.1635,-3508.9458L13344.1694,-3508.9512L13344.2101,-3508.999L13344.2269,-3509.0311L13344.2303,-3509.0424L13344.231,-3509.0643L13344.2289,-3509.0705L13344.2235,-3509.0818L13344.2139,-3509.0964L13344.1995,-3509.1105L13344.1771,-3509.13L13344.1391,-3509.1629L13344.1021,-3509.1944L13344.0398,-3509.2514L13343.9876,-3509.2958L13343.9471,-3509.3331L13343.9038,-3509.3704L13343.8812,-3509.3818L13343.8614,-3509.3893L13343.8359,-3509.3965L13343.8068,-3509.4023L13343.7848,-3509.4029L13343.7509,-3509.4023L13343.7304,-3509.3995L13343.7026,-3509.3942L13343.6737,-3509.3863L13343.6482,-3509.3835L13343.6186,-3509.382L13343.5897,-3509.3842L13343.5558,-3509.392L13343.514,-3509.4066L13343.4737,-3509.4257L13343.4402,-3509.4466L13343.4113,-3509.4713L13343.3869,-3509.5026L13343.3707,-3509.5291L13343.342,-3509.5787L13343.3294,-3509.6085L13343.3231,-3509.6237L13343.3167,-3509.6482L13343.3002,-3509.7516L13343.2847,-3509.836L13343.2821,-3509.863L13343.2841,-3509.8849L13343.2885,-3509.9087L13343.2996,-3509.9345L13343.3131,-3509.9623L13343.3372,-3509.9923L13343.3632,-3510.0188L13343.3866,-3510.0373L13343.4009,-3510.0458L13343.4476,-3510.0717L13343.4921,-3510.0926L13343.5517,-3510.1179L13343.5723,-3510.1275L13343.6474,-3510.1598L13343.6614,-3510.1658L13343.7004,-3510.1833L13343.7117,-3510.1882L13343.7423,-3510.2013L13343.7614,-3510.2132L13343.7779,-3510.2312L13343.7881,-3510.2469L13343.7978,-3510.2728L13343.8005,-3510.2887L13343.8005,-3510.3066L13343.7912,-3510.3579L13343.7843,-3510.3838L13343.7564,-3510.443L13343.7398,-3510.4911L13343.7228,-3510.5339L13343.7169,-3510.5489L13343.7094,-3510.5681L13343.6923,-3510.6104L13343.675,-3510.6475L13343.6689,-3510.6594L13343.6579,-3510.6785L13343.5874,-3510.7838L13343.5729,-3510.8092L13343.5714,-3510.8284L13343.5701,-3510.8447L13343.5756,-3510.8785L13343.577,-3510.9016L13343.5831,-3510.9366L13343.5874,-3510.9507L13343.6051,-3511.0199L13343.6113,-3511.0543L13343.6113,-3511.1625L13343.6093,-3511.1783L13343.5963,-3511.225L13343.5935,-3511.2329L13343.588,-3511.2515L13343.5784,-3511.2752L13343.5626,-3511.3011L13343.5448,-3511.3309L13343.5435,-3511.3332L13343.514,-3511.3884L13343.4989,-3511.4256L13343.4925,-3511.4487L13343.4893,-3511.4605L13343.4859,-3511.4786L13343.4954,-3511.493L13343.5291,-3511.513L13343.5713,-3511.5264L13343.575,-3511.5276L13343.6716,-3511.549L13343.7018,-3511.5563L13343.7271,-3511.5614L13343.7436,-3511.5665L13343.7511,-3511.5715L13343.7614,-3511.5918L13343.7889,-3511.6476L13343.8011,-3511.678L13343.8108,-3511.7073L13343.8184,-3511.7422L13343.8176,-3511.7687L13343.7944,-3511.9152L13343.7744,-3511.9619L13343.7662,-3511.976L13343.7478,-3512.0019L13343.7108,-3512.0465L13343.6833,-3512.0758L13343.673,-3512.0864L13343.6319,-3512.1214L13343.5448,-3512.1953L13343.4914,-3512.2437L13343.4859,-3512.2567L13343.4804,-3512.2803L13343.4749,-3512.2994L13343.4523,-3512.3361L13343.4489,-3512.3496L13343.4461,-3512.4132L13343.442,-3512.4876L13343.4317,-3512.5147L13343.396,-3512.5975L13343.3789,-3512.6353L13343.3468,-3512.6753L13343.3364,-3512.6859L13343.2925,-3512.7372L13343.2836,-3512.7457L13343.2789,-3512.7564L13343.2706,-3512.8573L13343.2665,-3512.8736L13343.2569,-3512.8871L13343.2376,-3512.9004L13343.209,-3512.9203L13343.1473,-3512.9632L13343.0979,-3512.9896L13343.0478,-3513.0166L13343.0424,-3513.0195L13343.0286,-3513.0364L13343.0198,-3513.0482L13342.9533,-3513.0933L13342.9368,-3513.1091L13342.9196,-3513.1395L13342.9121,-3513.157L13342.9053,-3513.1784L13342.8915,-3513.2302L13342.884,-3513.2714L13342.8765,-3513.3367L13342.8559,-3513.3677L13342.8244,-3513.4133L13342.7825,-3513.4787L13342.7709,-3513.4961L13342.764,-3513.5181L13342.7593,-3513.5491L13342.7579,-3513.5564L13342.7571,-3513.5717L13342.7538,-3513.5948L13342.7538,-3513.6066L13342.7503,-3513.6432L13342.749,-3513.6972L13342.753,-3513.7751L13342.7524,-3513.7947L13342.7496,-3513.8088L13342.7426,-3513.8356L13342.7361,-3513.8496L13342.7279,-3513.8671L13342.7228,-3513.8783L13342.68,-3513.9701L13342.6669,-3513.9984L13342.6638,-3514.0159L13342.6675,-3514.0326L13342.6706,-3514.0464L13342.6869,-3514.0817L13342.6883,-3514.0839L13342.7101,-3514.1189L13342.7258,-3514.1457L13342.7358,-3514.1628L13342.7664,-3514.209L13342.7681,-3514.2117L13342.7695,-3514.2139L13342.8079,-3514.2556L13342.8135,-3514.2628L13342.8642,-3514.3278L13342.8701,-3514.3488L13342.8747,-3514.3755L13342.8735,-3514.3965L13342.8712,-3514.4337"/>
<path content="2,高梁市,北部地区　市役所・新見駅-上市・花見・千屋温泉,7.0,5.0,4.0," xlink:title="2" d="M13342.8712,-3514.4337L13342.91,-3514.4551L13342.913,-3514.4565L13342.9546,-3514.4761L13342.9868,-3514.4911L13342.9968,-3514.4966L13343.056,-3514.5232L13343.1067,-3514.5475L13343.1211,-3514.5638L13343.1376,-3514.5791L13343.1718,-3514.601L13343.1903,-3514.6218L13343.2246,-3514.6601L13343.2411,-3514.6776L13343.2678,-3514.7007L13343.283,-3514.7081L13343.3186,-3514.7165L13343.335,-3514.7239L13343.4248,-3514.7807L13343.4309,-3514.7836L13343.4597,-3514.787L13343.4693,-3514.7892L13343.4789,-3514.7937L13343.5283,-3514.8343L13343.5372,-3514.8399L13343.5496,-3514.8421L13343.5791,-3514.8433L13343.6106,-3514.8433L13343.6569,-3514.838L13343.664,-3514.8359L13343.7107,-3514.8292L13343.7607,-3514.8213L13343.7943,-3514.8044L13343.797,-3514.8021L13343.8114,-3514.8033L13343.8484,-3514.8241L13343.8567,-3514.8309L13343.8687,-3514.8438L13343.8744,-3514.8562L13343.8882,-3514.8731L13343.8943,-3514.8771L13343.9094,-3514.8759L13343.9539,-3514.8743L13343.9793,-3514.8664L13343.9964,-3514.8631L13344.0574,-3514.8613L13344.0711,-3514.8602L13344.0992,-3514.8461L13344.1144,-3514.8399L13344.126,-3514.8376L13344.2645,-3514.8405L13344.3097,-3514.8399L13344.3288,-3514.8386"/>
<path content="2,高梁市,北部地区　市役所・新見駅-上市・花見・千屋温泉,7.0,5.0,4.0," xlink:title="2" d="M13342.8712,-3514.4337L13342.8533,-3514.4654L13342.845,-3514.4806L13342.8424,-3514.4841L13342.8133,-3514.5215L13342.7955,-3514.5392L13342.765,-3514.5695L13342.747,-3514.5873L13342.6565,-3514.6521L13342.6121,-3514.6837L13342.5741,-3514.7109L13342.5694,-3514.7131L13342.5529,-3514.7244L13342.5454,-3514.7301L13342.5316,-3514.7407L13342.5193,-3514.7604L13342.5015,-3514.7954L13342.4966,-3514.81L13342.4858,-3514.8596L13342.4864,-3514.8731L13342.4911,-3514.8849L13342.496,-3514.8939L13342.507,-3514.9171L13342.5084,-3514.9283L13342.4963,-3515.0413L13342.4946,-3515.0563L13342.4946,-3515.063L13342.4844,-3515.1672L13342.4823,-3515.196L13342.4789,-3515.2219L13342.4775,-3515.2427L13342.4761,-3515.2501L13342.472,-3515.2968L13342.4679,-3515.3176L13342.4397,-3515.4022L13342.4336,-3515.419L13342.4322,-3515.4523L13342.4384,-3515.481L13342.4596,-3515.5583L13342.4754,-3515.5943L13342.496,-3515.625"/>
<path content="2,高梁市,北部地区　長谷川病院・新見駅-岩山駅・大畑・菅生（天原）,5.8,4.0,2.0," xlink:title="2" d="M13350.2368,-3506.8359L13350.2378,-3506.8452L13350.2366,-3506.8627L13350.2274,-3506.9122L13350.22,-3506.9543L13350.2104,-3506.9867L13350.2076,-3507.0022L13350.2058,-3507.0222L13350.2086,-3507.0553L13350.2177,-3507.1226L13350.2273,-3507.1711L13350.2417,-3507.2026L13350.2607,-3507.2462L13350.2705,-3507.2644L13350.2726,-3507.2734L13350.2685,-3507.3618L13350.2694,-3507.4137L13350.2711,-3507.4287L13350.2749,-3507.4427L13350.2808,-3507.4573L13350.2925,-3507.4777L13350.3191,-3507.5039L13350.3538,-3507.5394L13350.363,-3507.5473L13350.3726,-3507.5568L13350.3747,-3507.5647L13350.3726,-3507.5743L13350.3622,-3507.6046L13350.3445,-3507.6284L13350.3226,-3507.6791L13350.3123,-3507.6977L13350.3041,-3507.7061L13350.298,-3507.7101L13350.2877,-3507.714L13350.2812,-3507.7154L13350.248,-3507.7224L13350.2377,-3507.7259L13350.2192,-3507.7354L13350.1897,-3507.7557L13350.1514,-3507.7786L13350.0926,-3507.8113L13350.0607,-3507.8266L13350.0859,-3507.839"/>
</g>
</svg>
