<?xml version="1.0" encoding="UTF-8"?>
<svg  xmlns="http://www.w3.org/2000/svg" xmlns:xlink="http://www.w3.org/1999/xlink" xmlns:go="http://purl.org/svgmap/profile" property="N07_001,N07_002,N07_003,N07_004,N07_005,N07_006,N07_007" viewBox="14087.7685546875 -3825.98876953125 0.54931640625 0.54931640625" go:dataArea="14087.7685546875 -3825.98876953125 0.54931640625 0.54931640625" >
<metadata>
 <rdf:RDF xmlns:rdf="http://www.w3.org/1999/02/22-rdf-syntax-ns#" xmlns:crs="http://opengis.org/xmldtds/transformations.dtd" xmlns:svg="http://www.w3.org/svg" >
  <rdf:Description>
   <crs:CoordinateReferenceSystem rdf:resource="http://purl.org/crs/84" svg:transform="matrix(100.0,0.0,0.0,-100.0,0.0,0.0)" />
  </rdf:Description>
 </rdf:RDF>
</metadata>
<globalCoordinateSystem srsName="http://purl.org/crs/84" transform="matrix(100.0,0.0,0.0,-100.0,0.0,0.0)" />
<defs>
 <g id="p0" >
  <circle cx="0.0" cy="0.0" r="3" stroke="green" stroke-width="0.75" vector-effect="non-scaling-stroke" />
 </g>
</defs>
<g fill="none" fill-rule="evenodd" stroke="#FF00FF" stroke-width="0.75" opacity="0.5" vector-effect="non-scaling-stroke" stroke-linejoin="bevel" >
<path content="1,JRバス東北（株）,WEライナー号,4.0,4.0,4.0," xlink:title="1" d="M14087.9821,-3825.9888L14087.9861,-3825.9819L14087.9902,-3825.9747L14087.9978,-3825.9615L14087.9978,-3825.9615L14087.9978,-3825.9615L14088.0203,-3825.9218L14088.0369,-3825.8915L14088.0608,-3825.85L14088.0949,-3825.7894L14088.1053,-3825.7689L14088.1176,-3825.7456L14088.1239,-3825.7316L14088.1313,-3825.7159L14088.1452,-3825.6836L14088.1622,-3825.6578L14088.1682,-3825.6151L14088.1707,-3825.6064L14088.1725,-3825.5983L14088.175,-3825.5836L14088.1756,-3825.5756L14088.1762,-3825.5634L14088.1753,-3825.5469L14088.1732,-3825.5359L14088.2867,-3825.5219L14088.2955,-3825.5208L14088.2986,-3825.5204L14088.3179,-3825.5183"/>
<path content="1,JRバス東北（株）,いわき～仙台線,1.0,1.0,1.0," xlink:title="1" d="M14087.7686,-3825.9031L14087.8361,-3825.9183L14087.8748,-3825.9326L14087.948,-3825.9518L14087.9746,-3825.9588L14087.9967,-3825.9614L14087.9978,-3825.9615L14088.0203,-3825.9218L14088.0369,-3825.8915L14088.0608,-3825.85L14088.0949,-3825.7894L14088.1053,-3825.7689L14088.1176,-3825.7456L14088.1239,-3825.7316L14088.1313,-3825.7159L14088.1452,-3825.6836L14088.1622,-3825.6578L14088.1682,-3825.6151L14088.1707,-3825.6064L14088.1725,-3825.5983L14088.175,-3825.5836L14088.1756,-3825.5756L14088.1762,-3825.5634L14088.1753,-3825.5469L14088.1732,-3825.5359L14088.2867,-3825.5219L14088.2955,-3825.5208L14088.2986,-3825.5204L14088.3179,-3825.5183"/>
<path content="1,JRバス東北（株）,うみねこ号,1.0,1.0,1.0," xlink:title="1" d="M14088.0445,-3825.978L14087.9979,-3825.9616L14087.9979,-3825.9616L14087.9979,-3825.9616L14087.9979,-3825.9616L14087.9979,-3825.9616L14087.9979,-3825.9616L14087.9979,-3825.9616L14087.9978,-3825.9616L14087.9978,-3825.9615L14087.9978,-3825.9615L14087.9978,-3825.9615L14087.9902,-3825.9747L14087.9861,-3825.9819L14087.9821,-3825.9888"/>
<path content="1,JRバス東北（株）,けんじライナー号,1.0,1.0,1.0," xlink:title="1" d="M14088.3179,-3825.5183L14088.2986,-3825.5204L14088.2955,-3825.5208L14088.2867,-3825.5219L14088.1732,-3825.5359L14088.1753,-3825.5469L14088.1762,-3825.5634L14088.1756,-3825.5756L14088.175,-3825.5836L14088.1725,-3825.5983L14088.1707,-3825.6064L14088.1682,-3825.6151L14088.1622,-3825.6578L14088.1452,-3825.6836L14088.1313,-3825.7159L14088.1239,-3825.7316L14088.1176,-3825.7456L14088.1053,-3825.7689L14088.0949,-3825.7894L14088.0608,-3825.85L14088.0369,-3825.8915L14088.0203,-3825.9218L14087.9978,-3825.9615L14087.9967,-3825.9614L14087.9746,-3825.9588L14087.948,-3825.9518L14087.8748,-3825.9326L14087.8361,-3825.9183L14087.7686,-3825.9031"/>
<path content="1,JRバス東北（株）,アーバン号,3.2,4.0,4.0," xlink:title="1" d="M14088.0961,-3825.9888L14088.0857,-3825.9853L14088.0701,-3825.9811L14088.0445,-3825.978L14087.9979,-3825.9616L14087.9979,-3825.9616L14087.9979,-3825.9616L14087.9979,-3825.9616L14087.9979,-3825.9616L14087.9979,-3825.9616L14087.9979,-3825.9616L14087.9978,-3825.9616L14087.9978,-3825.9615L14087.9967,-3825.9614L14087.9746,-3825.9588L14087.948,-3825.9518L14087.8748,-3825.9326L14087.8361,-3825.9183L14087.7686,-3825.9031"/>
<path content="1,JRバス東北（株）,キャッスル号,3.0,3.0,3.0," xlink:title="1" d="M14088.0445,-3825.978L14087.9979,-3825.9616L14087.9979,-3825.9616L14087.9979,-3825.9616L14087.9979,-3825.9616L14087.9979,-3825.9616L14087.9979,-3825.9616L14087.9979,-3825.9616L14087.9978,-3825.9616L14087.9978,-3825.9615L14087.9978,-3825.9615L14087.9978,-3825.9615L14087.9902,-3825.9747L14087.9861,-3825.9819L14087.9821,-3825.9888"/>
<path content="1,JRバス東北（株）,グリーンライナー号,2.0,2.0,2.0," xlink:title="1" d="M14088.3179,-3825.5183L14088.2986,-3825.5204L14088.2955,-3825.5208L14088.2867,-3825.5219L14088.1732,-3825.5359L14088.1753,-3825.5469L14088.1762,-3825.5634L14088.1756,-3825.5756L14088.175,-3825.5836L14088.1725,-3825.5983L14088.1707,-3825.6064L14088.1682,-3825.6151L14088.1622,-3825.6578L14088.1452,-3825.6836L14088.1313,-3825.7159L14088.1239,-3825.7316L14088.1176,-3825.7456L14088.1053,-3825.7689L14088.0949,-3825.7894L14088.0608,-3825.85L14088.0369,-3825.8915L14088.0203,-3825.9218L14087.9978,-3825.9615L14087.9978,-3825.9615L14087.9978,-3825.9615L14087.9902,-3825.9747L14087.9861,-3825.9819L14087.9821,-3825.9888"/>
<path content="1,JRバス東北（株）,ドリームササニシキ号,1.0,1.0,1.0," xlink:title="1" d="M14088.1732,-3825.5359L14088.1563,-3825.4484L14088.1529,-3825.4395"/>
<path content="1,JRバス東北（株）,ドリームササニシキ号,1.0,1.0,1.0," xlink:title="1" d="M14088.1732,-3825.5359L14088.2867,-3825.5219L14088.2955,-3825.5208L14088.2986,-3825.5204L14088.3179,-3825.5183"/>
<path content="1,JRバス東北（株）,ドリームササニシキ号,1.0,1.0,1.0," xlink:title="1" d="M14087.9821,-3825.9888L14087.9902,-3825.9747L14087.9978,-3825.9615L14087.9978,-3825.9615L14087.9978,-3825.9615L14088.0203,-3825.9218L14088.0369,-3825.8915L14088.0608,-3825.85L14088.0949,-3825.7894L14088.1053,-3825.7689L14088.1176,-3825.7456L14088.1239,-3825.7316L14088.1313,-3825.7159L14088.1452,-3825.6836L14088.1622,-3825.6578L14088.1682,-3825.6151L14088.1707,-3825.6064L14088.1725,-3825.5983L14088.175,-3825.5836L14088.1756,-3825.5756L14088.1762,-3825.5634L14088.1753,-3825.5469L14088.1732,-3825.5359"/>
<path content="1,JRバス東北（株）,ドリーム政宗号,1.0,1.0,1.0," xlink:title="1" d="M14088.1529,-3825.4395L14088.1563,-3825.4484L14088.1732,-3825.5359L14088.2867,-3825.5219L14088.2955,-3825.5208L14088.2986,-3825.5204L14088.3179,-3825.5183"/>
<path content="1,JRバス東北（株）,ドリーム横浜・仙台号,1.0,1.0,1.0," xlink:title="1" d="M14088.1529,-3825.4395L14088.1563,-3825.4484L14088.1732,-3825.5359L14088.2867,-3825.5219L14088.2955,-3825.5208L14088.2986,-3825.5204L14088.3179,-3825.5183"/>
<path content="1,JRバス東北（株）,ブルーシティ号,1.5,1.5,1.5," xlink:title="1" d="M14088.0445,-3825.978L14087.9979,-3825.9616L14087.9979,-3825.9616L14087.9979,-3825.9616L14087.9979,-3825.9616L14087.9979,-3825.9616L14087.9979,-3825.9616L14087.9979,-3825.9616L14087.9978,-3825.9616L14087.9978,-3825.9615L14087.9978,-3825.9615L14087.9978,-3825.9615L14087.9902,-3825.9747L14087.9861,-3825.9819L14087.9821,-3825.9888"/>
<path content="1,JRバス東北（株）,仙台・新宿号,2.0,2.0,2.0," xlink:title="1" d="M14088.1529,-3825.4395L14088.1563,-3825.4484L14088.1732,-3825.5359L14088.2867,-3825.5219L14088.2955,-3825.5208L14088.2986,-3825.5204L14088.3179,-3825.5183"/>
<path content="1,JRバス東北（株）,仙台～会津若松線,4.0,4.0,4.0," xlink:title="1" d="M14087.7686,-3825.9031L14087.8361,-3825.9183L14087.8748,-3825.9326L14087.948,-3825.9518L14087.9746,-3825.9588L14087.9967,-3825.9614L14087.9978,-3825.9615L14087.9978,-3825.9616L14087.9979,-3825.9616"/>
<path content="1,JRバス東北（株）,仙台～会津若松線,4.0,4.0,4.0," xlink:title="1" d="M14087.9979,-3825.9616L14088.0203,-3825.9218L14088.0369,-3825.8915L14088.0608,-3825.85L14088.0949,-3825.7894L14088.1053,-3825.7689L14088.1176,-3825.7456L14088.1239,-3825.7316L14088.1313,-3825.7159L14088.1452,-3825.6836L14088.1622,-3825.6578L14088.1682,-3825.6151L14088.1707,-3825.6064L14088.1725,-3825.5983L14088.175,-3825.5836L14088.1756,-3825.5756L14088.1762,-3825.5634L14088.1753,-3825.5469L14088.1732,-3825.5359L14088.2867,-3825.5219L14088.2955,-3825.5208L14088.2986,-3825.5204L14088.3179,-3825.5183"/>
<path content="1,JRバス東北（株）,仙台～会津若松線,4.0,4.0,4.0," xlink:title="1" d="M14087.9979,-3825.9616L14087.9979,-3825.9616L14087.9979,-3825.9616L14087.9979,-3825.9616L14087.9979,-3825.9616L14087.9979,-3825.9616L14087.9979,-3825.9616L14088.0445,-3825.978L14088.0701,-3825.9811L14088.0857,-3825.9853L14088.0961,-3825.9888"/>
<path content="1,JRバス東北（株）,仙台～古川線,31.0,25.0,25.0," xlink:title="1" d="M14088.0961,-3825.9888L14088.0857,-3825.9853L14088.0701,-3825.9811L14088.0445,-3825.978L14087.9979,-3825.9616L14087.9979,-3825.9616L14087.9979,-3825.9616L14087.9979,-3825.9616L14087.9979,-3825.9616L14087.9979,-3825.9616L14087.9979,-3825.9616L14087.9978,-3825.9616L14087.9978,-3825.9615L14087.9967,-3825.9614L14087.9746,-3825.9588L14087.948,-3825.9518L14087.8748,-3825.9326L14087.8361,-3825.9183L14087.7686,-3825.9031"/>
<path content="1,JRバス東北（株）,仙台～大館線,1.0,1.0,1.0," xlink:title="1" d="M14088.3179,-3825.5183L14088.2986,-3825.5204L14088.2955,-3825.5208L14088.2867,-3825.5219L14088.1732,-3825.5359L14088.1753,-3825.5469L14088.1762,-3825.5634L14088.1756,-3825.5756L14088.175,-3825.5836L14088.1725,-3825.5983L14088.1707,-3825.6064L14088.1682,-3825.6151L14088.1622,-3825.6578L14088.1452,-3825.6836L14088.1313,-3825.7159L14088.1239,-3825.7316L14088.1176,-3825.7456L14088.1053,-3825.7689L14088.0949,-3825.7894L14088.0608,-3825.85L14088.0369,-3825.8915L14088.0203,-3825.9218L14087.9978,-3825.9615L14087.9967,-3825.9614L14087.9746,-3825.9588L14087.948,-3825.9518L14087.8748,-3825.9326L14087.8361,-3825.9183L14087.7686,-3825.9031"/>
<path content="1,JRバス東北（株）,仙台～江刺・水沢線,2.0,2.0,2.0," xlink:title="1" d="M14088.0961,-3825.9888L14088.0857,-3825.9853L14088.0701,-3825.9811L14088.0445,-3825.978L14087.9979,-3825.9616L14087.9979,-3825.9616L14087.9979,-3825.9616L14087.9979,-3825.9616L14087.9979,-3825.9616L14087.9979,-3825.9616L14087.9979,-3825.9616"/>
<path content="1,JRバス東北（株）,仙台～江刺・水沢線,2.0,2.0,2.0," xlink:title="1" d="M14087.9979,-3825.9616L14087.9978,-3825.9616L14087.9978,-3825.9615L14087.9967,-3825.9614L14087.9746,-3825.9588L14087.948,-3825.9518L14087.8748,-3825.9326L14087.8361,-3825.9183L14087.7686,-3825.9031"/>
<path content="1,JRバス東北（株）,仙台～江刺・水沢線,2.0,2.0,2.0," xlink:title="1" d="M14088.3179,-3825.5183L14088.2986,-3825.5204L14088.2955,-3825.5208L14088.2867,-3825.5219L14088.1732,-3825.5359L14088.1753,-3825.5469L14088.1762,-3825.5634L14088.1756,-3825.5756L14088.175,-3825.5836L14088.1725,-3825.5983L14088.1707,-3825.6064L14088.1682,-3825.6151L14088.1622,-3825.6578L14088.1452,-3825.6836L14088.1313,-3825.7159L14088.1239,-3825.7316L14088.1176,-3825.7456L14088.1053,-3825.7689L14088.0949,-3825.7894L14088.0608,-3825.85L14088.0369,-3825.8915L14088.0203,-3825.9218L14087.9979,-3825.9616"/>
<path content="1,JRバス東北（株）,仙台～福島線,12.0,12.0,12.0," xlink:title="1" d="M14087.7686,-3825.9031L14087.8361,-3825.9183L14087.8748,-3825.9326L14087.948,-3825.9518L14087.9746,-3825.9588L14087.9967,-3825.9614L14087.9978,-3825.9615L14087.9978,-3825.9616L14087.9979,-3825.9616L14087.9979,-3825.9616L14087.9979,-3825.9616L14087.9979,-3825.9616L14087.9979,-3825.9616L14087.9979,-3825.9616L14087.9979,-3825.9616L14088.0445,-3825.978L14088.0701,-3825.9811L14088.0857,-3825.9853L14088.0961,-3825.9888"/>
<path content="1,JRバス東北（株）,仙台～米沢線,3.0,3.0,3.0," xlink:title="1" d="M14087.7686,-3825.9031L14087.8361,-3825.9183L14087.8748,-3825.9326L14087.948,-3825.9518L14087.9746,-3825.9588L14087.9967,-3825.9614L14087.9978,-3825.9615L14088.0203,-3825.9218L14088.0369,-3825.8915L14088.0608,-3825.85L14088.0949,-3825.7894L14088.1053,-3825.7689L14088.1176,-3825.7456L14088.1239,-3825.7316L14088.1313,-3825.7159L14088.1452,-3825.6836L14088.1622,-3825.6578L14088.1682,-3825.6151L14088.1707,-3825.6064L14088.1725,-3825.5983L14088.175,-3825.5836L14088.1756,-3825.5756L14088.1762,-3825.5634L14088.1753,-3825.5469L14088.1732,-3825.5359L14088.2867,-3825.5219L14088.2955,-3825.5208L14088.2986,-3825.5204L14088.3179,-3825.5183"/>
<path content="1,JRバス東北（株）,仙台～郡山・須賀川線,8.0,8.0,8.0," xlink:title="1" d="M14087.7686,-3825.9031L14087.8361,-3825.9183L14087.8748,-3825.9326L14087.948,-3825.9518L14087.9746,-3825.9588L14087.9967,-3825.9614L14087.9978,-3825.9615L14087.9978,-3825.9616L14087.9979,-3825.9616L14087.9979,-3825.9616L14087.9979,-3825.9616L14087.9979,-3825.9616L14087.9979,-3825.9616L14087.9979,-3825.9616L14087.9979,-3825.9616L14088.0445,-3825.978L14088.0701,-3825.9811L14088.0857,-3825.9853L14088.0961,-3825.9888"/>
<path content="1,JRバス東北（株）,仙秋号,2.0,2.0,2.0," xlink:title="1" d="M14088.0445,-3825.978L14087.9979,-3825.9616L14087.9979,-3825.9616L14087.9979,-3825.9616L14087.9979,-3825.9616L14087.9979,-3825.9616L14087.9979,-3825.9616L14087.9979,-3825.9616L14087.9978,-3825.9616L14087.9978,-3825.9615L14087.9978,-3825.9615L14087.9978,-3825.9615L14087.9902,-3825.9747L14087.9861,-3825.9819L14087.9821,-3825.9888"/>
<path content="1,会津乗合自動車,仙台線,8.0,8.0,8.0," xlink:title="1" d="M14087.7686,-3825.5535L14087.7709,-3825.5494L14087.7836,-3825.5198L14087.8326,-3825.4395M14088.1529,-3825.4395L14088.1563,-3825.4484L14088.1732,-3825.5359L14088.2867,-3825.5219L14088.2955,-3825.5208L14088.2986,-3825.5204L14088.3179,-3825.5183"/>
<path content="1,南部バス（株）,うみねこ号　仙台→八戸,4.0,4.0,4.0," xlink:title="1" d="M14088.0445,-3825.978L14088.0701,-3825.9811L14088.0857,-3825.9853L14088.0961,-3825.9888"/>
<path content="1,南部バス（株）,うみねこ号　八戸→仙台,4.0,4.0,4.0," xlink:title="1" d="M14088.0961,-3825.9888L14088.0857,-3825.9853L14088.0701,-3825.9811L14088.0445,-3825.978"/>
<path content="1,宮城交通（株）,S11,16.5,12.0,11.5," xlink:title="1" d="M14087.8326,-3825.4395L14087.7836,-3825.5198L14087.7709,-3825.5494L14087.7686,-3825.5535M14087.7686,-3825.9031L14087.8361,-3825.9183L14087.8748,-3825.9326L14087.948,-3825.9518L14087.9746,-3825.9588L14087.9967,-3825.9614L14087.9978,-3825.9615L14087.9978,-3825.9616"/>
<path content="1,宮城交通（株）,S11,16.5,12.0,11.5," xlink:title="1" d="M14088.1529,-3825.4395L14088.1563,-3825.4484L14088.1732,-3825.5359L14088.1753,-3825.5469L14088.1762,-3825.5634L14088.1756,-3825.5756L14088.175,-3825.5836L14088.1725,-3825.5983L14088.1707,-3825.6064L14088.1682,-3825.6151L14088.1622,-3825.6578L14088.1452,-3825.6836L14088.1313,-3825.7159L14088.1239,-3825.7316L14088.1176,-3825.7456L14088.1053,-3825.7689L14088.0949,-3825.7894L14088.0608,-3825.85L14088.0369,-3825.8915L14088.0203,-3825.9218L14087.9978,-3825.9616"/>
<path content="1,宮城交通（株）,S11,16.5,12.0,11.5," xlink:title="1" d="M14087.9978,-3825.9616L14087.9979,-3825.9616L14087.9979,-3825.9616L14087.9979,-3825.9616L14087.9979,-3825.9616L14087.9979,-3825.9616L14087.9979,-3825.9616L14087.9979,-3825.9616"/>
<path content="1,宮城交通（株）,S11,16.5,12.0,11.5," xlink:title="1" d="M14087.9978,-3825.9616L14087.9978,-3825.9616L14087.9902,-3825.9747L14087.9861,-3825.9819L14087.9821,-3825.9888"/>
<path content="1,宮城交通（株）,S14,18.0,13.5,12.5," xlink:title="1" d="M14088.1529,-3825.4395L14088.1563,-3825.4484L14088.1732,-3825.5359L14088.1753,-3825.5469L14088.1762,-3825.5634L14088.1756,-3825.5756L14088.175,-3825.5836L14088.1725,-3825.5983L14088.1707,-3825.6064L14088.1682,-3825.6151L14088.1622,-3825.6578L14088.1452,-3825.6836L14088.1313,-3825.7159L14088.1239,-3825.7316L14088.1176,-3825.7456L14088.1053,-3825.7689L14088.0949,-3825.7894L14088.0608,-3825.85L14088.0369,-3825.8915L14088.0203,-3825.9218L14087.9978,-3825.9616L14087.9978,-3825.9616L14087.9902,-3825.9747L14087.9861,-3825.9819L14087.9821,-3825.9888"/>
<path content="1,宮城交通（株）,S14,18.0,13.5,12.5," xlink:title="1" d="M14087.7686,-3825.5535L14087.7709,-3825.5494L14087.7836,-3825.5198L14087.8326,-3825.4395"/>
<path content="1,宮城交通（株）,S16,12.5,12.5,11.0," xlink:title="1" d="M14088.1529,-3825.4395L14088.1563,-3825.4484L14088.1732,-3825.5359L14088.1753,-3825.5469L14088.1762,-3825.5634L14088.1756,-3825.5756L14088.175,-3825.5836L14088.1725,-3825.5983L14088.1707,-3825.6064L14088.1682,-3825.6151L14088.1622,-3825.6578L14088.1452,-3825.6836L14088.1313,-3825.7159L14088.1239,-3825.7316L14088.1176,-3825.7456L14088.1053,-3825.7689L14088.0949,-3825.7894L14088.0608,-3825.85L14088.0369,-3825.8915L14088.0203,-3825.9218L14087.9978,-3825.9616L14087.9978,-3825.9616L14087.9902,-3825.9747L14087.9861,-3825.9819L14087.9821,-3825.9888"/>
<path content="1,宮城交通（株）,S17,1.0,0.0,0.0," xlink:title="1" d="M14087.9821,-3825.9888L14087.9861,-3825.9819L14087.9902,-3825.9747L14087.9978,-3825.9616L14087.9978,-3825.9616L14088.0203,-3825.9218L14088.0369,-3825.8915L14088.0608,-3825.85L14088.0949,-3825.7894L14088.1053,-3825.7689L14088.1176,-3825.7456L14088.1239,-3825.7316L14088.1313,-3825.7159L14088.1452,-3825.6836L14088.1622,-3825.6578L14088.1682,-3825.6151L14088.1707,-3825.6064L14088.1725,-3825.5983L14088.175,-3825.5836L14088.1756,-3825.5756L14088.1762,-3825.5634L14088.1753,-3825.5469L14088.1732,-3825.5359L14088.1563,-3825.4484L14088.1529,-3825.4395"/>
<path content="1,宮城交通（株）,S19,15.5,13.0,12.5," xlink:title="1" d="M14087.8326,-3825.4395L14087.7836,-3825.5198L14087.7709,-3825.5494L14087.7686,-3825.5535M14087.7686,-3825.9031L14087.8361,-3825.9183L14087.8748,-3825.9326L14087.948,-3825.9518L14087.9746,-3825.9588L14087.9967,-3825.9614L14087.9978,-3825.9615L14087.9978,-3825.9616"/>
<path content="1,宮城交通（株）,S19,15.5,13.0,12.5," xlink:title="1" d="M14087.9978,-3825.9616L14088.0203,-3825.9218L14088.0369,-3825.8915L14088.0608,-3825.85L14088.0949,-3825.7894L14088.1053,-3825.7689L14088.1176,-3825.7456L14088.1239,-3825.7316L14088.1313,-3825.7159L14088.1452,-3825.6836L14088.1622,-3825.6578L14088.1682,-3825.6151L14088.1707,-3825.6064L14088.1725,-3825.5983L14088.175,-3825.5836L14088.1756,-3825.5756L14088.1762,-3825.5634L14088.1753,-3825.5469L14088.1732,-3825.5359L14088.1563,-3825.4484L14088.1529,-3825.4395"/>
<path content="1,宮城交通（株）,S19,15.5,13.0,12.5," xlink:title="1" d="M14087.9978,-3825.9616L14087.9979,-3825.9616L14087.9979,-3825.9616L14087.9979,-3825.9616L14087.9979,-3825.9616L14087.9979,-3825.9616L14087.9979,-3825.9616L14087.9979,-3825.9616"/>
<path content="1,宮城交通（株）,S19,15.5,13.0,12.5," xlink:title="1" d="M14087.9821,-3825.9888L14087.9861,-3825.9819L14087.9902,-3825.9747L14087.9978,-3825.9616L14087.9978,-3825.9616"/>
<path content="1,宮城交通（株）,S2,19.5,17.5,15.5," xlink:title="1" d="M14088.1529,-3825.4395L14088.1563,-3825.4484L14088.1732,-3825.5359L14088.1753,-3825.5469L14088.1762,-3825.5634L14088.1756,-3825.5756L14088.175,-3825.5836L14088.1725,-3825.5983L14088.1707,-3825.6064L14088.1682,-3825.6151L14088.1622,-3825.6578L14088.1452,-3825.6836L14088.1313,-3825.7159L14088.1239,-3825.7316L14088.1176,-3825.7456L14088.1053,-3825.7689L14088.0949,-3825.7894L14088.0608,-3825.85L14088.0369,-3825.8915L14088.0203,-3825.9218L14087.9978,-3825.9616L14087.9978,-3825.9616L14087.9902,-3825.9747L14087.9861,-3825.9819L14087.9821,-3825.9888"/>
<path content="1,宮城交通（株）,S27,4.0,1.0,1.0," xlink:title="1" d="M14087.8326,-3825.4395L14087.7836,-3825.5198L14087.7709,-3825.5494L14087.7686,-3825.5535M14087.7686,-3825.9031L14087.8361,-3825.9183L14087.8748,-3825.9326L14087.948,-3825.9518L14087.9746,-3825.9588L14087.9967,-3825.9614L14087.9978,-3825.9615L14087.9978,-3825.9615L14087.9978,-3825.9615L14087.9821,-3825.9888"/>
<path content="1,宮城交通（株）,S29,35.0,16.5,12.5," xlink:title="1" d="M14087.9821,-3825.9888L14087.9861,-3825.9819L14087.9902,-3825.9747L14087.9978,-3825.9616L14087.9978,-3825.9616L14088.0203,-3825.9218L14088.0369,-3825.8915L14088.0608,-3825.85L14088.0949,-3825.7894L14088.1053,-3825.7689L14088.1176,-3825.7456L14088.1239,-3825.7316L14088.1313,-3825.7159L14088.1452,-3825.6836L14088.1622,-3825.6578L14088.1682,-3825.6151L14088.1707,-3825.6064L14088.1725,-3825.5983L14088.175,-3825.5836L14088.1756,-3825.5756L14088.1762,-3825.5634L14088.1753,-3825.5469L14088.1732,-3825.5359L14088.1563,-3825.4484L14088.1529,-3825.4395"/>
<path content="1,宮城交通（株）,S3,1.0,1.0,0.0," xlink:title="1" d="M14087.9821,-3825.9888L14087.9861,-3825.9819L14087.9902,-3825.9747L14087.9978,-3825.9616L14087.9978,-3825.9616L14088.0203,-3825.9218L14088.0369,-3825.8915L14088.0608,-3825.85L14088.0949,-3825.7894L14088.1053,-3825.7689L14088.1176,-3825.7456L14088.1239,-3825.7316L14088.1313,-3825.7159L14088.1452,-3825.6836L14088.1622,-3825.6578L14088.1682,-3825.6151L14088.1707,-3825.6064L14088.1725,-3825.5983L14088.175,-3825.5836L14088.1756,-3825.5756L14088.1762,-3825.5634L14088.1753,-3825.5469L14088.1732,-3825.5359L14088.1563,-3825.4484L14088.1529,-3825.4395"/>
<path content="1,宮城交通（株）,S33,26.0,20.5,20.0," xlink:title="1" d="M14087.9821,-3825.9888L14087.9861,-3825.9819L14087.9902,-3825.9747L14087.9978,-3825.9616L14087.9978,-3825.9616L14088.0203,-3825.9218L14088.0369,-3825.8915L14088.0608,-3825.85L14088.0949,-3825.7894L14088.1053,-3825.7689L14088.1176,-3825.7456L14088.1239,-3825.7316L14088.1313,-3825.7159L14088.1452,-3825.6836L14088.1622,-3825.6578L14088.1682,-3825.6151L14088.1707,-3825.6064L14088.1725,-3825.5983L14088.175,-3825.5836L14088.1756,-3825.5756L14088.1762,-3825.5634L14088.1753,-3825.5469L14088.1732,-3825.5359L14088.1563,-3825.4484L14088.1529,-3825.4395"/>
<path content="1,宮城交通（株）,S34,1.0,0.0,0.0," xlink:title="1" d="M14087.8326,-3825.4395L14087.7836,-3825.5198L14087.7709,-3825.5494L14087.7686,-3825.5535"/>
<path content="1,宮城交通（株）,S4,4.0,3.0,2.0," xlink:title="1" d="M14087.982,-3825.9888L14087.9978,-3825.9615L14087.9978,-3825.9615L14087.9978,-3825.9615L14088.0203,-3825.9218L14088.0369,-3825.8915L14088.0608,-3825.85L14088.0949,-3825.7894L14088.1053,-3825.7689L14088.1176,-3825.7456L14088.1239,-3825.7316L14088.1313,-3825.7159L14088.1452,-3825.6836L14088.1622,-3825.6578L14088.1682,-3825.6151L14088.1707,-3825.6064L14088.1725,-3825.5983L14088.175,-3825.5836L14088.1756,-3825.5756L14088.1762,-3825.5634L14088.1753,-3825.5469L14088.1732,-3825.5359L14088.1563,-3825.4484L14088.1529,-3825.4395"/>
<path content="1,宮城交通（株）,S5,1.0,1.0,0.0," xlink:title="1" d="M14088.1529,-3825.4395L14088.1563,-3825.4484L14088.1732,-3825.5359L14088.1753,-3825.5469L14088.1762,-3825.5634L14088.1756,-3825.5756L14088.175,-3825.5836L14088.1725,-3825.5983L14088.1707,-3825.6064L14088.1682,-3825.6151L14088.1622,-3825.6578L14088.1452,-3825.6836L14088.1313,-3825.7159L14088.1239,-3825.7316L14088.1176,-3825.7456L14088.1053,-3825.7689L14088.0949,-3825.7894L14088.0608,-3825.85L14088.0369,-3825.8915L14088.0203,-3825.9218L14087.9978,-3825.9615L14087.9978,-3825.9615L14087.9978,-3825.9615L14087.9902,-3825.9747L14087.9821,-3825.9888"/>
<path content="1,宮城交通（株）,S6,0.0,1.0,0.0," xlink:title="1" d="M14088.1529,-3825.4395L14088.1563,-3825.4484L14088.1732,-3825.5359L14088.1753,-3825.5469L14088.1762,-3825.5634L14088.1756,-3825.5756L14088.175,-3825.5836L14088.1725,-3825.5983L14088.1707,-3825.6064L14088.1682,-3825.6151L14088.1622,-3825.6578L14088.1452,-3825.6836L14088.1313,-3825.7159L14088.1239,-3825.7316L14088.1176,-3825.7456L14088.1053,-3825.7689L14088.0949,-3825.7894L14088.0608,-3825.85L14088.0369,-3825.8915L14088.0203,-3825.9218L14087.9978,-3825.9616L14087.9978,-3825.9616L14087.9902,-3825.9747L14087.9861,-3825.9819L14087.9821,-3825.9888"/>
<path content="1,宮城交通（株）,S8,30.5,20.0,17.5," xlink:title="1" d="M14087.8326,-3825.4395L14087.7836,-3825.5198L14087.7709,-3825.5494L14087.7686,-3825.5535"/>
<path content="1,宮城交通（株）,S8,30.5,20.0,17.5," xlink:title="1" d="M14087.9821,-3825.9888L14087.9861,-3825.9819L14087.9902,-3825.9747L14087.9978,-3825.9616L14087.9978,-3825.9616L14088.0203,-3825.9218L14088.0369,-3825.8915L14088.0608,-3825.85L14088.0949,-3825.7894L14088.1053,-3825.7689L14088.1176,-3825.7456L14088.1239,-3825.7316L14088.1313,-3825.7159L14088.1452,-3825.6836L14088.1622,-3825.6578L14088.1682,-3825.6151L14088.1707,-3825.6064L14088.1725,-3825.5983L14088.175,-3825.5836L14088.1756,-3825.5756L14088.1762,-3825.5634L14088.1753,-3825.5469L14088.1732,-3825.5359L14088.1563,-3825.4484L14088.1529,-3825.4395"/>
<path content="1,宮城交通（株）,S9,1.0,0.0,0.0," xlink:title="1" d="M14087.7686,-3825.5535L14087.7709,-3825.5494L14087.7836,-3825.5198L14087.8326,-3825.4395"/>
<path content="1,宮城交通（株）,SSライナー・夕陽,4.0,4.0,4.0," xlink:title="1" d="M14088.0445,-3825.978L14087.9979,-3825.9616L14087.9979,-3825.9616L14087.9979,-3825.9616L14087.9979,-3825.9616L14087.9979,-3825.9616L14087.9979,-3825.9616L14087.9979,-3825.9616L14087.9978,-3825.9616L14087.9978,-3825.9615L14087.9978,-3825.9615L14087.9978,-3825.9615L14087.9902,-3825.9747L14087.9861,-3825.9819L14087.9821,-3825.9888"/>
<path content="1,宮城交通（株）,うみねこ,1.0,1.0,1.0," xlink:title="1" d="M14088.0445,-3825.978L14087.9979,-3825.9616L14087.9979,-3825.9616L14087.9979,-3825.9616L14087.9979,-3825.9616L14087.9979,-3825.9616L14087.9979,-3825.9616L14087.9979,-3825.9616L14087.9978,-3825.9616L14087.9978,-3825.9615L14087.9978,-3825.9615L14087.9978,-3825.9615L14087.9902,-3825.9747L14087.9861,-3825.9819L14087.9821,-3825.9888"/>
<path content="1,宮城交通（株）,アーバン,3.2,4.0,4.0," xlink:title="1" d="M14088.0445,-3825.978L14087.9979,-3825.9616L14087.9979,-3825.9616L14087.9979,-3825.9616L14087.9979,-3825.9616L14087.9979,-3825.9616L14087.9979,-3825.9616L14087.9979,-3825.9616L14087.9978,-3825.9616L14087.9978,-3825.9615L14087.9978,-3825.9615L14087.9978,-3825.9615L14087.9902,-3825.9747L14087.9861,-3825.9819L14087.9821,-3825.9888"/>
<path content="1,宮城交通（株）,エトアール,1.0,1.0,1.0," xlink:title="1" d="M14087.9821,-3825.9888L14087.9861,-3825.9819L14087.9902,-3825.9747L14087.9978,-3825.9615L14087.9978,-3825.9615L14087.9978,-3825.9615L14087.9978,-3825.9616L14087.9979,-3825.9616L14087.9979,-3825.9616L14087.9979,-3825.9616L14087.9979,-3825.9616L14087.9979,-3825.9616L14087.9979,-3825.9616L14087.9979,-3825.9616L14088.0445,-3825.978"/>
<path content="1,宮城交通（株）,キャッスル,3.0,3.0,3.0," xlink:title="1" d="M14088.0445,-3825.978L14087.9979,-3825.9616L14087.9979,-3825.9616L14087.9979,-3825.9616L14087.9979,-3825.9616L14087.9979,-3825.9616L14087.9979,-3825.9616L14087.9979,-3825.9616L14087.9978,-3825.9616L14087.9978,-3825.9615L14087.9978,-3825.9615L14087.9978,-3825.9615L14087.9902,-3825.9747L14087.9861,-3825.9819L14087.9821,-3825.9888"/>
<path content="1,宮城交通（株）,ブルーシティ,1.5,1.5,1.5," xlink:title="1" d="M14088.0445,-3825.978L14087.9979,-3825.9616L14087.9979,-3825.9616L14087.9979,-3825.9616L14087.9979,-3825.9616L14087.9979,-3825.9616L14087.9979,-3825.9616L14087.9979,-3825.9616L14087.9978,-3825.9616L14087.9978,-3825.9615L14087.9978,-3825.9615L14087.9978,-3825.9615L14087.9902,-3825.9747L14087.9861,-3825.9819L14087.9821,-3825.9888"/>
<path content="1,宮城交通（株）,ポーラスター,1.0,1.0,1.0," xlink:title="1" d="M14087.9979,-3825.9616L14087.9978,-3825.9616L14087.9978,-3825.9615L14087.9978,-3825.9615L14087.9978,-3825.9615L14087.9902,-3825.9747L14087.9861,-3825.9819L14087.9821,-3825.9888"/>
<path content="1,宮城交通（株）,ポーラスター,1.0,1.0,1.0," xlink:title="1" d="M14088.0445,-3825.978L14087.9979,-3825.9616L14087.9979,-3825.9616L14087.9979,-3825.9616L14087.9979,-3825.9616L14087.9979,-3825.9616L14087.9979,-3825.9616L14087.9979,-3825.9616"/>
<path content="1,宮城交通（株）,ポーラスター,1.0,1.0,1.0," xlink:title="1" d="M14088.3179,-3825.5183L14088.2986,-3825.5204L14088.2955,-3825.5208L14088.2867,-3825.5219L14088.1732,-3825.5359L14088.1753,-3825.5469L14088.1762,-3825.5634L14088.1756,-3825.5756L14088.175,-3825.5836L14088.1725,-3825.5983L14088.1707,-3825.6064L14088.1682,-3825.6151L14088.1622,-3825.6578L14088.1452,-3825.6836L14088.1313,-3825.7159L14088.1239,-3825.7316L14088.1176,-3825.7456L14088.1053,-3825.7689L14088.0949,-3825.7894L14088.0608,-3825.85L14088.0369,-3825.8915L14088.0203,-3825.9218L14087.9979,-3825.9616"/>
<path content="1,宮城交通（株）,仙台～上山線,4.0,3.0,3.0," xlink:title="1" d="M14087.9821,-3825.9888L14087.9861,-3825.9819L14087.9902,-3825.9747L14087.9978,-3825.9616L14087.9978,-3825.9616L14087.9979,-3825.9616L14087.9979,-3825.9616L14087.9979,-3825.9616L14087.9979,-3825.9616L14087.9979,-3825.9616L14087.9979,-3825.9616L14087.9979,-3825.9616L14088.0445,-3825.978L14088.0701,-3825.9811L14088.0857,-3825.9853L14088.0961,-3825.9888"/>
<path content="1,宮城交通（株）,仙台～佐沼線,8.0,8.0,8.0," xlink:title="1" d="M14088.0445,-3825.978L14087.9979,-3825.9616L14087.9979,-3825.9616L14087.9979,-3825.9616L14087.9979,-3825.9616L14087.9979,-3825.9616L14087.9979,-3825.9616L14087.9979,-3825.9616L14087.9978,-3825.9616L14087.9978,-3825.9615L14087.9967,-3825.9614L14087.9746,-3825.9588L14087.948,-3825.9518L14087.8748,-3825.9326L14087.8361,-3825.9183L14087.7686,-3825.9031"/>
<path content="1,宮城交通（株）,仙台～加美線,6.0,6.0,6.0," xlink:title="1" d="M14088.0445,-3825.978L14087.9979,-3825.9616L14087.9979,-3825.9616L14087.9979,-3825.9616L14087.9979,-3825.9616L14087.9979,-3825.9616L14087.9979,-3825.9616L14087.9979,-3825.9616L14087.9978,-3825.9616L14087.9978,-3825.9615L14087.9967,-3825.9614L14087.9746,-3825.9588L14087.948,-3825.9518L14087.8748,-3825.9326L14087.8361,-3825.9183L14087.7686,-3825.9031"/>
<path content="1,宮城交通（株）,仙台～古川線,11.5,7.5,7.5," xlink:title="1" d="M14088.0445,-3825.978L14087.9979,-3825.9616L14087.9979,-3825.9616L14087.9979,-3825.9616L14087.9979,-3825.9616L14087.9979,-3825.9616L14087.9979,-3825.9616L14087.9979,-3825.9616L14087.9978,-3825.9616L14087.9978,-3825.9615L14087.9967,-3825.9614L14087.9746,-3825.9588L14087.948,-3825.9518L14087.8748,-3825.9326L14087.8361,-3825.9183L14087.7686,-3825.9031"/>
<path content="1,宮城交通（株）,仙台～名古屋線,1.0,1.0,1.0," xlink:title="1" d="M14087.9821,-3825.9888L14087.9861,-3825.9819L14087.9902,-3825.9747L14087.9978,-3825.9615L14087.9978,-3825.9615L14087.9978,-3825.9615L14087.9978,-3825.9616L14087.9979,-3825.9616L14087.9979,-3825.9616L14087.9979,-3825.9616L14087.9979,-3825.9616L14087.9979,-3825.9616L14087.9979,-3825.9616L14087.9979,-3825.9616L14088.0445,-3825.978"/>
<path content="1,宮城交通（株）,仙台～大船渡線,2.0,2.0,2.0," xlink:title="1" d="M14088.0961,-3825.9888L14088.0857,-3825.9853L14088.0701,-3825.9811L14088.0445,-3825.978L14087.9979,-3825.9616L14087.9979,-3825.9616L14087.9979,-3825.9616L14087.9979,-3825.9616L14087.9979,-3825.9616L14087.9979,-3825.9616L14087.9979,-3825.9616L14087.9978,-3825.9616L14087.9978,-3825.9616L14087.9902,-3825.9747L14087.9861,-3825.9819L14087.9821,-3825.9888"/>
<path content="1,宮城交通（株）,仙台～大衡線,6.0,6.0,6.0," xlink:title="1" d="M14088.0445,-3825.978L14087.9979,-3825.9616L14087.9979,-3825.9616L14087.9979,-3825.9616L14087.9979,-3825.9616L14087.9979,-3825.9616L14087.9979,-3825.9616L14087.9979,-3825.9616L14087.9978,-3825.9616L14087.9978,-3825.9615L14087.9967,-3825.9614L14087.9746,-3825.9588L14087.948,-3825.9518L14087.8748,-3825.9326L14087.8361,-3825.9183L14087.7686,-3825.9031"/>
<path content="1,宮城交通（株）,仙台～大阪線,1.0,1.0,1.0," xlink:title="1" d="M14088.0445,-3825.978L14087.9979,-3825.9616L14087.9979,-3825.9616L14087.9979,-3825.9616L14087.9979,-3825.9616L14087.9979,-3825.9616L14087.9979,-3825.9616L14087.9979,-3825.9616L14087.9978,-3825.9616L14087.9978,-3825.9615L14087.9978,-3825.9615L14087.9978,-3825.9615L14087.9902,-3825.9747L14087.9861,-3825.9819L14087.9821,-3825.9888"/>
<path content="1,宮城交通（株）,仙台～富山線,1.0,1.0,1.0," xlink:title="1" d="M14087.9821,-3825.9888L14087.9861,-3825.9819L14087.9902,-3825.9747L14087.9978,-3825.9615L14087.9978,-3825.9615L14087.9978,-3825.9615L14088.0203,-3825.9218L14088.0369,-3825.8915L14088.0608,-3825.85L14088.0949,-3825.7894L14088.1053,-3825.7689L14088.1176,-3825.7456L14088.1239,-3825.7316L14088.1313,-3825.7159L14088.1452,-3825.6836L14088.1622,-3825.6578L14088.1682,-3825.6151L14088.1707,-3825.6064L14088.1725,-3825.5983L14088.175,-3825.5836L14088.1756,-3825.5756L14088.1762,-3825.5634L14088.1753,-3825.5469L14088.1732,-3825.5359L14088.2867,-3825.5219L14088.2955,-3825.5208L14088.2986,-3825.5204L14088.3179,-3825.5183"/>
<path content="1,宮城交通（株）,仙台～富山線,1.0,1.0,1.0," xlink:title="1" d="M14087.9979,-3825.9616L14087.9979,-3825.9616L14087.9979,-3825.9616L14087.9979,-3825.9616L14087.9979,-3825.9616L14087.9979,-3825.9616L14087.9979,-3825.9616L14088.0445,-3825.978"/>
<path content="1,宮城交通（株）,仙台～山形蔵王線,0.3,0.3,0.3," xlink:title="1" d="M14088.3179,-3825.5183L14088.2986,-3825.5204L14088.2955,-3825.5208L14088.2867,-3825.5219L14088.1732,-3825.5359L14088.1563,-3825.4484L14088.1529,-3825.4395"/>
<path content="1,宮城交通（株）,仙台～川崎町線,3.0,3.0,3.0," xlink:title="1" d="M14087.7686,-3825.9031L14087.8361,-3825.9183L14087.8748,-3825.9326L14087.948,-3825.9518L14087.9746,-3825.9588L14087.9967,-3825.9614L14087.9978,-3825.9615L14087.9978,-3825.9616L14087.9979,-3825.9616L14087.9979,-3825.9616L14087.9979,-3825.9616L14087.9979,-3825.9616L14087.9979,-3825.9616L14087.9979,-3825.9616L14087.9979,-3825.9616L14088.0445,-3825.978L14088.0701,-3825.9811L14088.0857,-3825.9853L14088.0961,-3825.9888"/>
<path content="1,宮城交通（株）,仙台～本荘線,1.0,1.0,1.0," xlink:title="1" d="M14088.0445,-3825.978L14087.9979,-3825.9616L14087.9979,-3825.9616L14087.9979,-3825.9616L14087.9979,-3825.9616L14087.9979,-3825.9616L14087.9979,-3825.9616L14087.9979,-3825.9616L14087.9978,-3825.9616L14087.9978,-3825.9615L14087.9978,-3825.9615L14087.9978,-3825.9615L14087.9902,-3825.9747L14087.9861,-3825.9819L14087.9821,-3825.9888"/>
<path content="1,宮城交通（株）,仙台～栗駒線,2.0,2.0,2.0," xlink:title="1" d="M14088.0445,-3825.978L14087.9979,-3825.9616L14087.9979,-3825.9616L14087.9979,-3825.9616L14087.9979,-3825.9616L14087.9979,-3825.9616L14087.9979,-3825.9616L14087.9979,-3825.9616L14087.9978,-3825.9616L14087.9978,-3825.9615L14087.9967,-3825.9614L14087.9746,-3825.9588L14087.948,-3825.9518L14087.8748,-3825.9326L14087.8361,-3825.9183L14087.7686,-3825.9031"/>
<path content="1,宮城交通（株）,仙台～気仙沼線,3.0,3.0,3.0," xlink:title="1" d="M14088.0961,-3825.9888L14088.0857,-3825.9853L14088.0701,-3825.9811L14088.0445,-3825.978L14087.9979,-3825.9616L14087.9979,-3825.9616L14087.9979,-3825.9616L14087.9979,-3825.9616L14087.9979,-3825.9616L14087.9979,-3825.9616L14087.9979,-3825.9616L14087.9978,-3825.9616L14087.9978,-3825.9615L14087.9978,-3825.9615L14087.9978,-3825.9615L14087.9902,-3825.9747L14087.9861,-3825.9819L14087.9821,-3825.9888"/>
<path content="1,宮城交通（株）,仙台～福島線,12.0,12.0,12.0," xlink:title="1" d="M14087.7686,-3825.9031L14087.8361,-3825.9183L14087.8748,-3825.9326L14087.948,-3825.9518L14087.9746,-3825.9588L14087.9967,-3825.9614L14087.9978,-3825.9615L14087.9978,-3825.9616L14087.9979,-3825.9616L14087.9979,-3825.9616L14087.9979,-3825.9616L14087.9979,-3825.9616L14087.9979,-3825.9616L14087.9979,-3825.9616L14087.9979,-3825.9616L14088.0445,-3825.978"/>
<path content="1,宮城交通（株）,仙台～蔵王町線,10.0,10.0,10.0," xlink:title="1" d="M14088.0445,-3825.978L14087.9979,-3825.9616L14087.9979,-3825.9616L14087.9979,-3825.9616L14087.9979,-3825.9616L14087.9979,-3825.9616L14087.9979,-3825.9616L14087.9979,-3825.9616L14087.9978,-3825.9616L14087.9978,-3825.9615L14087.9967,-3825.9614L14087.9746,-3825.9588L14087.948,-3825.9518L14087.8748,-3825.9326L14087.8361,-3825.9183L14087.7686,-3825.9031"/>
<path content="1,宮城交通（株）,仙台～郡山須賀川線,8.0,8.0,8.0," xlink:title="1" d="M14087.9821,-3825.9888L14087.9861,-3825.9819L14087.9902,-3825.9747L14087.9978,-3825.9615L14087.9978,-3825.9615L14087.9978,-3825.9615L14087.9978,-3825.9616L14087.9979,-3825.9616L14087.9979,-3825.9616L14087.9979,-3825.9616L14087.9979,-3825.9616L14087.9979,-3825.9616L14087.9979,-3825.9616L14087.9979,-3825.9616L14088.0445,-3825.978"/>
<path content="1,宮城交通（株）,仙台～釜石線,1.0,1.0,1.0," xlink:title="1" d="M14088.0445,-3825.978L14087.9979,-3825.9616L14087.9979,-3825.9616L14087.9979,-3825.9616L14087.9979,-3825.9616L14087.9979,-3825.9616L14087.9979,-3825.9616L14087.9979,-3825.9616L14087.9978,-3825.9616L14087.9978,-3825.9615L14087.9978,-3825.9615L14087.9978,-3825.9615L14087.9902,-3825.9747L14087.9861,-3825.9819L14087.9821,-3825.9888"/>
<path content="1,宮城交通（株）,仙台～鳴子線,3.5,3.5,3.5," xlink:title="1" d="M14088.0445,-3825.978L14087.9979,-3825.9616L14087.9979,-3825.9616L14087.9979,-3825.9616L14087.9979,-3825.9616L14087.9979,-3825.9616L14087.9979,-3825.9616L14087.9979,-3825.9616L14087.9978,-3825.9616L14087.9978,-3825.9615L14087.9967,-3825.9614L14087.9746,-3825.9588L14087.948,-3825.9518L14087.8748,-3825.9326L14087.8361,-3825.9183L14087.7686,-3825.9031"/>
<path content="1,宮城交通（株）,仙秋,4.0,4.0,4.0," xlink:title="1" d="M14088.0445,-3825.978L14087.9979,-3825.9616L14087.9979,-3825.9616L14087.9979,-3825.9616L14087.9979,-3825.9616L14087.9979,-3825.9616L14087.9979,-3825.9616L14087.9979,-3825.9616L14087.9978,-3825.9616L14087.9978,-3825.9615L14087.9978,-3825.9615L14087.9978,-3825.9615L14087.9902,-3825.9747L14087.9861,-3825.9819L14087.9821,-3825.9888"/>
<path content="1,宮城交通（株）,南三陸～仙台線,3.0,3.0,3.0," xlink:title="1" d="M14088.0961,-3825.9888L14088.0857,-3825.9853L14088.0701,-3825.9811L14088.0445,-3825.978L14087.9979,-3825.9616L14087.9979,-3825.9616L14087.9979,-3825.9616L14087.9979,-3825.9616L14087.9979,-3825.9616L14087.9979,-3825.9616L14087.9979,-3825.9616L14087.9978,-3825.9616L14087.9978,-3825.9615L14087.9967,-3825.9614L14087.9746,-3825.9588L14087.948,-3825.9518L14087.8748,-3825.9326L14087.8361,-3825.9183L14087.7686,-3825.9031"/>
<path content="1,宮城交通（株）,広瀬ライナー,1.0,1.0,1.0," xlink:title="1" d="M14087.9821,-3825.9888L14087.9861,-3825.9819L14087.9902,-3825.9747L14087.9978,-3825.9615L14087.9978,-3825.9615L14087.9978,-3825.9615L14087.9978,-3825.9616L14087.9979,-3825.9616L14087.9979,-3825.9616L14087.9979,-3825.9616L14087.9979,-3825.9616L14087.9979,-3825.9616L14087.9979,-3825.9616L14087.9979,-3825.9616L14088.0445,-3825.978L14088.0701,-3825.9811L14088.0857,-3825.9853L14088.0961,-3825.9888"/>
<path content="1,宮城交通（株）,特急仙台～山形線,38.0,33.0,33.0," xlink:title="1" d="M14087.9821,-3825.9888L14087.9861,-3825.9819L14087.9902,-3825.9747L14087.9979,-3825.9616L14087.9979,-3825.9616L14087.9979,-3825.9616L14087.9979,-3825.9616L14087.9979,-3825.9616L14087.9979,-3825.9616L14087.9979,-3825.9616L14087.9979,-3825.9616L14088.0445,-3825.978L14088.0701,-3825.9811L14088.0857,-3825.9853L14088.0961,-3825.9888"/>
<path content="1,宮城交通（株）,石巻・女川～仙台線,17.0,17.0,17.0," xlink:title="1" d="M14088.0961,-3825.9888L14088.0857,-3825.9853L14088.0701,-3825.9811L14088.0445,-3825.978L14087.9979,-3825.9616L14087.9979,-3825.9616L14087.9979,-3825.9616L14087.9979,-3825.9616L14087.9979,-3825.9616L14087.9979,-3825.9616L14087.9979,-3825.9616L14087.9978,-3825.9616L14087.9978,-3825.9615L14087.9967,-3825.9614L14087.9746,-3825.9588L14087.948,-3825.9518L14087.8748,-3825.9326L14087.8361,-3825.9183L14087.7686,-3825.9031"/>
<path content="1,富山地方鉄道（株）,仙台（高速バス）,1.0,1.0,1.0," xlink:title="1" d="M14087.7686,-3825.9042L14087.8748,-3825.9326L14087.9746,-3825.9588L14087.9978,-3825.9615L14088.0445,-3825.978L14088.0701,-3825.9811L14088.0857,-3825.9853L14088.0961,-3825.9888"/>
<path content="1,山交バス（株）,48チェリーライナー,7.0,7.0,7.0," xlink:title="1" d="M14088.0445,-3825.978L14087.9979,-3825.9616L14087.9979,-3825.9616L14087.9979,-3825.9616L14087.9979,-3825.9616L14087.9979,-3825.9616L14087.9979,-3825.9616L14087.9979,-3825.9616L14087.9978,-3825.9616L14087.9978,-3825.9615L14087.9967,-3825.9614L14087.9746,-3825.9588L14087.948,-3825.9518L14087.8748,-3825.9326L14087.8361,-3825.9183L14087.7686,-3825.9031"/>
<path content="1,山交バス（株）,48ライナー,9.5,9.0,9.0," xlink:title="1" d="M14087.7686,-3825.9031L14087.8361,-3825.9183L14087.8748,-3825.9326L14087.948,-3825.9518L14087.9746,-3825.9588L14087.9967,-3825.9614L14087.9978,-3825.9615L14087.9978,-3825.9616L14087.9979,-3825.9616L14087.9979,-3825.9616L14087.9979,-3825.9616L14087.9979,-3825.9616L14087.9979,-3825.9616L14087.9979,-3825.9616L14087.9979,-3825.9616L14088.0445,-3825.978"/>
<path content="1,山交バス（株）,上山-仙台,4.0,3.0,3.0," xlink:title="1" d="M14088.0445,-3825.978L14087.9979,-3825.9616L14087.9979,-3825.9616L14087.9979,-3825.9616L14087.9979,-3825.9616L14087.9979,-3825.9616L14087.9979,-3825.9616L14087.9979,-3825.9616L14087.9978,-3825.9616L14087.9978,-3825.9615L14087.9967,-3825.9614L14087.9746,-3825.9588L14087.948,-3825.9518L14087.8748,-3825.9326L14087.8361,-3825.9183L14087.7686,-3825.9031"/>
<path content="1,山交バス（株）,仙台-山形蔵王,1.0,1.0,1.0," xlink:title="1" d="M14088.1529,-3825.4395L14088.1563,-3825.4484L14088.1732,-3825.5359L14088.2867,-3825.5219L14088.2955,-3825.5208L14088.2986,-3825.5204L14088.3179,-3825.5183"/>
<path content="1,山交バス（株）,仙台-本荘,2.0,2.0,2.0," xlink:title="1" d="M14088.0445,-3825.978L14087.9979,-3825.9616L14087.9979,-3825.9616L14087.9979,-3825.9616L14087.9979,-3825.9616L14087.9979,-3825.9616L14087.9979,-3825.9616L14087.9979,-3825.9616L14087.9978,-3825.9616L14087.9978,-3825.9615L14087.9967,-3825.9614L14087.9746,-3825.9588L14087.948,-3825.9518L14087.8748,-3825.9326L14087.8361,-3825.9183L14087.7686,-3825.9031"/>
<path content="1,山交バス（株）,山形-仙台,76.0,66.0,66.0," xlink:title="1" d="M14087.7686,-3825.9031L14087.8361,-3825.9183L14087.8748,-3825.9326L14087.948,-3825.9518L14087.9746,-3825.9588L14087.9967,-3825.9614L14087.9978,-3825.9615L14087.9978,-3825.9616L14087.9979,-3825.9616L14087.9979,-3825.9616L14087.9979,-3825.9616L14087.9979,-3825.9616L14087.9979,-3825.9616L14087.9979,-3825.9616L14087.9979,-3825.9616L14088.0445,-3825.978"/>
<path content="1,山交バス（株）,米沢-仙台,3.0,3.0,3.0," xlink:title="1" d="M14087.7686,-3825.5535L14087.7709,-3825.5494L14087.7836,-3825.5198L14087.8326,-3825.4395M14088.1529,-3825.4395L14088.1563,-3825.4484L14088.1732,-3825.5359L14088.2867,-3825.5219L14088.2955,-3825.5208L14088.2986,-3825.5204L14088.3179,-3825.5183"/>
<path content="1,岩手急行バス（株）,一ノ関仙台線,19.0,19.0,19.0," xlink:title="1" d="M14088.0445,-3825.978L14087.9979,-3825.9616L14087.9979,-3825.9616L14087.9979,-3825.9616L14087.9979,-3825.9616L14087.9979,-3825.9616L14087.9979,-3825.9616L14087.9979,-3825.9616L14087.9978,-3825.9616L14087.9978,-3825.9615L14087.9978,-3825.9615L14087.9978,-3825.9615L14087.9902,-3825.9747L14087.9861,-3825.9819L14087.9821,-3825.9888"/>
<path content="1,岩手県交通（株）,けんじライナー,2.0,2.0,2.0," xlink:title="1" d="M14088.3179,-3825.5183L14088.2986,-3825.5204L14088.2955,-3825.5208L14088.2867,-3825.5219L14088.1732,-3825.5359L14088.1563,-3825.4484L14088.1529,-3825.4395M14087.8326,-3825.4395L14087.7836,-3825.5198L14087.7709,-3825.5494L14087.7686,-3825.5535"/>
<path content="1,岩手県交通（株）,アーバン号,3.2,4.0,4.0," xlink:title="1" d="M14088.0445,-3825.978L14087.9979,-3825.9616L14087.9979,-3825.9616L14087.9979,-3825.9616L14087.9979,-3825.9616L14087.9979,-3825.9616L14087.9979,-3825.9616L14087.9979,-3825.9616L14087.9978,-3825.9616L14087.9978,-3825.9615L14087.9978,-3825.9615L14087.9978,-3825.9615L14087.9902,-3825.9747L14087.9861,-3825.9819L14087.9821,-3825.9888"/>
<path content="1,岩手県交通（株）,一関・仙台線,0.5,0.5,0.5," xlink:title="1" d="M14087.9821,-3825.9888L14087.9861,-3825.9819L14087.9902,-3825.9747L14087.9978,-3825.9615L14087.9978,-3825.9615L14087.9978,-3825.9615L14087.9978,-3825.9616L14087.9979,-3825.9616L14087.9979,-3825.9616L14087.9979,-3825.9616L14087.9979,-3825.9616L14087.9979,-3825.9616L14087.9979,-3825.9616L14087.9979,-3825.9616L14088.0445,-3825.978"/>
<path content="1,岩手県交通（株）,大船渡・仙台線,2.0,2.0,2.0," xlink:title="1" d="M14087.9821,-3825.9888L14087.9861,-3825.9819L14087.9902,-3825.9747L14087.9978,-3825.9615L14087.9978,-3825.9615L14087.9978,-3825.9615L14087.9978,-3825.9616L14087.9979,-3825.9616L14087.9979,-3825.9616L14087.9979,-3825.9616L14087.9979,-3825.9616L14087.9979,-3825.9616L14087.9979,-3825.9616L14087.9979,-3825.9616L14088.0445,-3825.978"/>
<path content="1,岩手県交通（株）,平泉中尊寺号,0.5,0.5,0.5," xlink:title="1" d="M14088.3179,-3825.5183L14088.2986,-3825.5204L14088.2955,-3825.5208L14088.2867,-3825.5219L14088.1732,-3825.5359L14088.1563,-3825.4484L14088.1529,-3825.4395M14087.8326,-3825.4395L14087.7836,-3825.5198L14087.7709,-3825.5494L14087.7686,-3825.5535"/>
<path content="1,岩手県交通（株）,江刺・仙台線,2.0,2.0,2.0," xlink:title="1" d="M14088.3179,-3825.5183L14088.2986,-3825.5204L14088.2955,-3825.5208L14088.2867,-3825.5219L14088.1732,-3825.5359L14088.1563,-3825.4484L14088.1529,-3825.4395M14087.8326,-3825.4395L14087.7836,-3825.5198L14087.7709,-3825.5494L14087.7686,-3825.5535"/>
<path content="1,岩手県交通（株）,釜石・仙台線,1.0,1.0,1.0," xlink:title="1" d="M14087.9821,-3825.9888L14087.9861,-3825.9819L14087.9902,-3825.9747L14087.9978,-3825.9615L14087.9978,-3825.9615L14087.9978,-3825.9615L14087.9978,-3825.9616L14087.9979,-3825.9616L14087.9979,-3825.9616L14087.9979,-3825.9616L14087.9979,-3825.9616L14087.9979,-3825.9616L14087.9979,-3825.9616L14087.9979,-3825.9616L14088.0445,-3825.978"/>
<path content="1,岩手県北自動車（株）,アーバン号　盛岡⇔仙台,3.2,4.0,4.0," xlink:title="1" d="M14088.0445,-3825.978L14087.9979,-3825.9616L14087.9979,-3825.9616L14087.9979,-3825.9616L14087.9979,-3825.9616L14087.9979,-3825.9616L14087.9979,-3825.9616L14087.9979,-3825.9616L14087.9978,-3825.9616L14087.9978,-3825.9615L14087.9978,-3825.9615L14087.9978,-3825.9615L14087.9902,-3825.9747L14087.9861,-3825.9819L14087.9821,-3825.9888"/>
<path content="1,庄内交通（株）,高速バス　仙台線,5.0,5.0,5.0," xlink:title="1" d="M14088.0445,-3825.978L14087.9979,-3825.9616L14087.9979,-3825.9616L14087.9979,-3825.9616L14087.9979,-3825.9616L14087.9979,-3825.9616L14087.9979,-3825.9616L14087.9979,-3825.9616L14087.9978,-3825.9616L14087.9978,-3825.9615L14087.9967,-3825.9614L14087.9746,-3825.9588L14087.948,-3825.9518L14087.8748,-3825.9326L14087.8361,-3825.9183L14087.7686,-3825.9031"/>
<path content="1,愛子観光バス（株）,錦ケ丘・仙台駅前線,20.5,16.0,16.0," xlink:title="1" d="M14088.0445,-3825.978L14088.0701,-3825.9811L14088.0857,-3825.9853L14088.0961,-3825.9888"/>
<path content="1,成田空港交通,仙台線,1.0,1.0,1.0," xlink:title="1" d="M14087.9821,-3825.9888L14087.9861,-3825.9819L14087.9902,-3825.9747L14087.9978,-3825.9615L14087.9978,-3825.9615L14087.9978,-3825.9615L14087.9978,-3825.9616L14087.9979,-3825.9616L14087.9979,-3825.9616L14087.9979,-3825.9616L14087.9979,-3825.9616L14087.9979,-3825.9616L14087.9979,-3825.9616L14087.9979,-3825.9616L14088.0445,-3825.978L14088.0701,-3825.9811L14088.0857,-3825.9853L14088.0961,-3825.9888"/>
<path content="1,新常磐交通（株）,いわき-仙台,3.0,3.0,3.0," xlink:title="1" d="M14087.7686,-3825.5535L14087.7709,-3825.5494L14087.7836,-3825.5198L14087.8326,-3825.4395M14088.1529,-3825.4395L14088.1563,-3825.4484L14088.1732,-3825.5359L14088.2867,-3825.5219L14088.2955,-3825.5208L14088.2986,-3825.5204L14088.3179,-3825.5183"/>
<path content="1,日本中央バス（株）,ミリオンライナー,2.0,2.0,2.0," xlink:title="1" d="M14087.9821,-3825.9888L14087.9861,-3825.9819L14087.9902,-3825.9747L14087.9978,-3825.9615L14087.9978,-3825.9615L14087.9978,-3825.9615L14088.0203,-3825.9218L14088.0369,-3825.8915L14088.0608,-3825.85L14088.0949,-3825.7894L14088.1053,-3825.7689L14088.1176,-3825.7456L14088.1239,-3825.7316L14088.1313,-3825.7159L14088.1452,-3825.6836L14088.1622,-3825.6578L14088.1682,-3825.6151L14088.1707,-3825.6064L14088.1725,-3825.5983L14088.175,-3825.5836L14088.1756,-3825.5756L14088.1762,-3825.5634L14088.1753,-3825.5469L14088.1732,-3825.5359L14088.2867,-3825.5219L14088.2955,-3825.5208L14088.2986,-3825.5204L14088.3179,-3825.5183"/>
<path content="1,日本中央バス（株）,仙台ライナー,1.0,1.0,1.0," xlink:title="1" d="M14087.9821,-3825.9888L14087.9861,-3825.9819L14087.9902,-3825.9747L14087.9978,-3825.9615L14087.9978,-3825.9615L14087.9978,-3825.9615L14088.0203,-3825.9218L14088.0369,-3825.8915L14088.0608,-3825.85L14088.0949,-3825.7894L14088.1053,-3825.7689L14088.1176,-3825.7456L14088.1239,-3825.7316L14088.1313,-3825.7159L14088.1452,-3825.6836L14088.1622,-3825.6578L14088.1682,-3825.6151L14088.1707,-3825.6064L14088.1725,-3825.5983L14088.175,-3825.5836L14088.1756,-3825.5756L14088.1762,-3825.5634L14088.1753,-3825.5469L14088.1732,-3825.5359L14088.2867,-3825.5219L14088.2955,-3825.5208L14088.2986,-3825.5204L14088.3179,-3825.5183"/>
<path content="1,東北急行バス（株）,エススター号,0.1,0.5,0.0," xlink:title="1" d="M14087.9821,-3825.9888L14087.9861,-3825.9819L14087.9902,-3825.9747L14087.9978,-3825.9615L14087.9978,-3825.9615L14087.9978,-3825.9615L14087.9978,-3825.9616L14087.9979,-3825.9616L14087.9979,-3825.9616L14087.9979,-3825.9616L14087.9979,-3825.9616L14087.9979,-3825.9616L14087.9979,-3825.9616L14087.9979,-3825.9616L14088.0445,-3825.978"/>
<path content="1,東北急行バス（株）,スイート号,0.2,1.0,1.0," xlink:title="1" d="M14087.9821,-3825.9888L14087.9861,-3825.9819L14087.9902,-3825.9747L14087.9978,-3825.9615L14087.9978,-3825.9615L14087.9978,-3825.9615L14087.9978,-3825.9616L14087.9979,-3825.9616L14087.9979,-3825.9616L14087.9979,-3825.9616L14087.9979,-3825.9616L14087.9979,-3825.9616L14087.9979,-3825.9616L14087.9979,-3825.9616L14088.0445,-3825.978"/>
<path content="1,東北急行バス（株）,ニュースター号,2.0,2.0,2.0," xlink:title="1" d="M14087.9821,-3825.9888L14087.9861,-3825.9819L14087.9902,-3825.9747L14087.9978,-3825.9615L14087.9978,-3825.9615L14087.9978,-3825.9615L14087.9978,-3825.9616L14087.9979,-3825.9616L14087.9979,-3825.9616L14087.9979,-3825.9616L14087.9979,-3825.9616L14087.9979,-3825.9616L14087.9979,-3825.9616L14087.9979,-3825.9616L14088.0445,-3825.978"/>
<path content="1,東北急行バス（株）,ホリデースター号,0.2,1.0,1.0," xlink:title="1" d="M14087.9821,-3825.9888L14087.9861,-3825.9819L14087.9902,-3825.9747L14087.9978,-3825.9615L14087.9978,-3825.9615L14087.9978,-3825.9615L14087.9978,-3825.9616L14087.9979,-3825.9616L14087.9979,-3825.9616L14087.9979,-3825.9616L14087.9979,-3825.9616L14087.9979,-3825.9616L14087.9979,-3825.9616L14087.9979,-3825.9616L14088.0445,-3825.978"/>
<path content="1,東日本急行（株）,とよま総合支所～仙台線,6.0,6.0,6.0," xlink:title="1" d="M14088.0961,-3825.9888L14088.0857,-3825.9853L14088.0701,-3825.9811L14088.0445,-3825.978L14087.9979,-3825.9616L14087.9979,-3825.9616L14087.9979,-3825.9616L14087.9979,-3825.9616L14087.9979,-3825.9616L14087.9979,-3825.9616L14087.9979,-3825.9616L14087.9978,-3825.9616L14087.9978,-3825.9615L14087.9967,-3825.9614L14087.9746,-3825.9588L14087.948,-3825.9518L14087.8748,-3825.9326L14087.8361,-3825.9183L14087.7686,-3825.9031"/>
<path content="1,東日本急行（株）,一ノ関～仙台線,19.0,19.0,19.0," xlink:title="1" d="M14088.0445,-3825.978L14087.9979,-3825.9616L14087.9979,-3825.9616L14087.9979,-3825.9616L14087.9979,-3825.9616L14087.9979,-3825.9616L14087.9979,-3825.9616L14087.9979,-3825.9616L14087.9978,-3825.9616L14087.9978,-3825.9615L14087.9978,-3825.9615L14087.9978,-3825.9615L14087.9902,-3825.9747L14087.9861,-3825.9819L14087.9821,-3825.9888"/>
<path content="1,東日本急行（株）,仙台～盛岡線,16.0,20.0,20.0," xlink:title="1" d="M14087.9821,-3825.9888L14087.9861,-3825.9819L14087.9902,-3825.9747L14087.9978,-3825.9615L14087.9978,-3825.9615L14087.9978,-3825.9615L14087.9978,-3825.9616L14087.9979,-3825.9616L14087.9979,-3825.9616L14087.9979,-3825.9616L14087.9979,-3825.9616L14087.9979,-3825.9616L14087.9979,-3825.9616L14087.9979,-3825.9616L14088.0445,-3825.978"/>
<path content="1,東日本急行（株）,佐野・平泉駅前・中尊寺～仙台線,1.1,1.1,1.1," xlink:title="1" d="M14088.3179,-3825.5183L14088.2986,-3825.5204L14088.2955,-3825.5208L14088.2867,-3825.5219L14088.1732,-3825.5359L14088.1753,-3825.5469L14088.1762,-3825.5634L14088.1756,-3825.5756L14088.175,-3825.5836L14088.1725,-3825.5983L14088.1707,-3825.6064L14088.1682,-3825.6151L14088.1622,-3825.6578L14088.1452,-3825.6836L14088.1313,-3825.7159L14088.1239,-3825.7316L14088.1176,-3825.7456L14088.1053,-3825.7689L14088.0949,-3825.7894L14088.0608,-3825.85L14088.0369,-3825.8915L14088.0203,-3825.9218L14087.9978,-3825.9615L14087.9978,-3825.9615L14087.9978,-3825.9615L14087.9902,-3825.9747L14087.9861,-3825.9819L14087.9821,-3825.9888"/>
<path content="1,東日本急行（株）,登米（迫）～若柳～仙台線,8.0,8.0,8.0," xlink:title="1" d="M14088.0445,-3825.978L14087.9979,-3825.9616L14087.9979,-3825.9616L14087.9979,-3825.9616L14087.9979,-3825.9616L14087.9979,-3825.9616L14087.9979,-3825.9616L14087.9979,-3825.9616L14087.9978,-3825.9616L14087.9978,-3825.9615L14087.9967,-3825.9614L14087.9746,-3825.9588L14087.948,-3825.9518L14087.8748,-3825.9326L14087.8361,-3825.9183L14087.7686,-3825.9031"/>
<path content="1,東日本急行（株）,金成庁舎前・くりこま高原駅前・一迫総合支所前～築館～仙台線,15.0,15.0,15.0," xlink:title="1" d="M14087.7686,-3825.9031L14087.8361,-3825.9183L14087.8748,-3825.9326L14087.948,-3825.9518L14087.9746,-3825.9588L14087.9967,-3825.9614L14087.9978,-3825.9615L14087.9978,-3825.9616L14087.9979,-3825.9616L14087.9979,-3825.9616L14087.9979,-3825.9616L14087.9979,-3825.9616L14087.9979,-3825.9616L14087.9979,-3825.9616L14087.9979,-3825.9616L14088.0445,-3825.978"/>
<path content="1,福島交通（株）,福交須賀川営業所～仙台駅前,12.0,12.0,12.0," xlink:title="1" d="M14087.9821,-3825.9888L14087.9861,-3825.9819L14087.9902,-3825.9747L14087.9978,-3825.9615L14087.9978,-3825.9615L14087.9978,-3825.9615L14087.9978,-3825.9616L14087.9979,-3825.9616L14087.9979,-3825.9616L14087.9979,-3825.9616L14087.9979,-3825.9616L14087.9979,-3825.9616L14087.9979,-3825.9616L14087.9979,-3825.9616L14088.0445,-3825.978"/>
<path content="1,福島交通（株）,福島競馬場前～仙台駅前,15.0,15.0,15.0," xlink:title="1" d="M14087.9821,-3825.9888L14087.9861,-3825.9819L14087.9902,-3825.9747L14087.9978,-3825.9615L14087.9978,-3825.9615L14087.9978,-3825.9615L14087.9978,-3825.9616L14087.9979,-3825.9616L14087.9979,-3825.9616L14087.9979,-3825.9616L14087.9979,-3825.9616L14087.9979,-3825.9616L14087.9979,-3825.9616L14087.9979,-3825.9616L14088.0445,-3825.978"/>
<path content="1,秋北バス（株）,二ツ井・能代～仙台線,1.0,1.0,1.0," xlink:title="1" d="M14088.3179,-3825.5183L14088.2986,-3825.5204L14088.2955,-3825.5208L14088.2867,-3825.5219L14088.1732,-3825.5359L14088.1753,-3825.5469L14088.1762,-3825.5634L14088.1756,-3825.5756L14088.175,-3825.5836L14088.1725,-3825.5983L14088.1707,-3825.6064L14088.1682,-3825.6151L14088.1622,-3825.6578L14088.1452,-3825.6836L14088.1313,-3825.7159L14088.1239,-3825.7316L14088.1176,-3825.7456L14088.1053,-3825.7689L14088.0949,-3825.7894L14088.0608,-3825.85L14088.0369,-3825.8915L14088.0203,-3825.9218L14087.9978,-3825.9615L14087.9978,-3825.9615L14087.9978,-3825.9615L14087.9902,-3825.9747L14087.9861,-3825.9819L14087.9821,-3825.9888"/>
<path content="1,秋北バス（株）,大館・鹿角～仙台線,3.0,3.0,3.0," xlink:title="1" d="M14087.9821,-3825.9888L14087.9861,-3825.9819L14087.9902,-3825.9747L14087.9978,-3825.9615L14087.9978,-3825.9615L14087.9978,-3825.9615L14088.0203,-3825.9218L14088.0369,-3825.8915L14088.0608,-3825.85L14088.0949,-3825.7894L14088.1053,-3825.7689L14088.1176,-3825.7456L14088.1239,-3825.7316L14088.1313,-3825.7159L14088.1452,-3825.6836L14088.1622,-3825.6578L14088.1682,-3825.6151L14088.1707,-3825.6064L14088.1725,-3825.5983L14088.175,-3825.5836L14088.1756,-3825.5756L14088.1762,-3825.5634L14088.1753,-3825.5469L14088.1732,-3825.5359L14088.2867,-3825.5219L14088.2955,-3825.5208L14088.2986,-3825.5204L14088.3179,-3825.5183"/>
<path content="1,羽後交通（株）,グリーンライナー号,4.0,4.0,4.0," xlink:title="1" d="M14088.3179,-3825.5183L14088.2986,-3825.5204L14088.2955,-3825.5208L14088.2867,-3825.5219L14088.1732,-3825.5359L14088.1753,-3825.5469L14088.1762,-3825.5634L14088.1756,-3825.5756L14088.175,-3825.5836L14088.1725,-3825.5983L14088.1707,-3825.6064L14088.1682,-3825.6151L14088.1622,-3825.6578L14088.1452,-3825.6836L14088.1313,-3825.7159L14088.1239,-3825.7316L14088.1176,-3825.7456L14088.1053,-3825.7689L14088.0949,-3825.7894L14088.0608,-3825.85L14088.0369,-3825.8915L14088.0203,-3825.9218L14087.9978,-3825.9615L14087.9978,-3825.9615L14087.9978,-3825.9615L14087.9902,-3825.9747L14087.9861,-3825.9819L14087.9821,-3825.9888"/>
<path content="2,仙台市,120　仙台駅～鶴ヶ谷七丁目,33.5,29.0,27.5," xlink:title="2" d="M14088.0445,-3825.978L14088.0701,-3825.9811L14088.0857,-3825.9853L14088.0961,-3825.9888"/>
<path content="2,仙台市,140,2.0,0.0,0.0," xlink:title="2" d="M14088.0961,-3825.9888L14088.0857,-3825.9853L14088.0701,-3825.9811L14088.0445,-3825.978"/>
<path content="2,仙台市,200,12.5,13.5,13.5," xlink:title="2" d="M14087.7686,-3825.9031L14087.8361,-3825.9183L14087.8748,-3825.9326L14087.948,-3825.9518L14087.9746,-3825.9588L14087.9967,-3825.9614L14087.9978,-3825.9615L14087.9978,-3825.9616L14087.9979,-3825.9616L14087.9979,-3825.9616L14087.9979,-3825.9616L14087.9979,-3825.9616L14087.9979,-3825.9616L14087.9979,-3825.9616L14087.9979,-3825.9616L14088.0445,-3825.978L14088.0701,-3825.9811L14088.0857,-3825.9853L14088.0961,-3825.9888"/>
<path content="2,仙台市,203,2.0,0.0,0.0," xlink:title="2" d="M14087.7686,-3825.9031L14087.8361,-3825.9183L14087.8748,-3825.9326L14087.948,-3825.9518L14087.9746,-3825.9588L14087.9967,-3825.9614L14087.9978,-3825.9615L14087.9978,-3825.9616L14087.9979,-3825.9616L14087.9979,-3825.9616L14087.9979,-3825.9616L14087.9979,-3825.9616L14087.9979,-3825.9616L14087.9979,-3825.9616L14087.9979,-3825.9616L14088.0445,-3825.978L14088.0701,-3825.9811L14088.0857,-3825.9853L14088.0961,-3825.9888"/>
<path content="2,仙台市,205,14.0,11.5,11.0," xlink:title="2" d="M14087.7686,-3825.9031L14087.8361,-3825.9183L14087.8748,-3825.9326L14087.948,-3825.9518L14087.9746,-3825.9588L14087.9967,-3825.9614L14087.9978,-3825.9615L14087.9978,-3825.9616L14087.9979,-3825.9616L14087.9979,-3825.9616L14087.9979,-3825.9616L14087.9979,-3825.9616L14087.9979,-3825.9616L14087.9979,-3825.9616L14087.9979,-3825.9616L14088.0445,-3825.978L14088.0701,-3825.9811L14088.0857,-3825.9853L14088.0961,-3825.9888"/>
<path content="2,仙台市,209,2.0,0.0,0.0," xlink:title="2" d="M14088.0961,-3825.9888L14088.0857,-3825.9853L14088.0701,-3825.9811L14088.0445,-3825.978L14087.9979,-3825.9616L14088.0203,-3825.9218L14088.0369,-3825.8915L14088.0608,-3825.85L14088.0949,-3825.7894L14088.1053,-3825.7689L14088.1176,-3825.7456L14088.1239,-3825.7316L14088.1313,-3825.7159L14088.1452,-3825.6836L14088.1622,-3825.6578L14088.1682,-3825.6151L14088.1707,-3825.6064L14088.1725,-3825.5983L14088.175,-3825.5836L14088.1756,-3825.5756L14088.1762,-3825.5634L14088.1753,-3825.5469L14088.1732,-3825.5359L14088.2867,-3825.5219L14088.2955,-3825.5208L14088.2986,-3825.5204L14088.3179,-3825.5183"/>
<path content="2,仙台市,210,49.5,34.5,32.0," xlink:title="2" d="M14087.7686,-3825.9031L14087.8361,-3825.9183L14087.8748,-3825.9326L14087.948,-3825.9518L14087.9746,-3825.9588L14087.9967,-3825.9614L14087.9978,-3825.9615L14087.9978,-3825.9616L14087.9979,-3825.9616L14087.9979,-3825.9616L14087.9979,-3825.9616L14087.9979,-3825.9616L14087.9979,-3825.9616L14087.9979,-3825.9616L14087.9979,-3825.9616L14088.0445,-3825.978L14088.0701,-3825.9811L14088.0857,-3825.9853L14088.0961,-3825.9888"/>
<path content="2,仙台市,211,1.5,0.0,0.0," xlink:title="2" d="M14087.7686,-3825.9031L14087.8361,-3825.9183L14087.8748,-3825.9326L14087.948,-3825.9518L14087.9746,-3825.9588L14087.9967,-3825.9614L14087.9978,-3825.9615L14087.9978,-3825.9616L14087.9979,-3825.9616L14087.9979,-3825.9616L14087.9979,-3825.9616L14087.9979,-3825.9616L14087.9979,-3825.9616L14087.9979,-3825.9616L14087.9979,-3825.9616L14088.0445,-3825.978L14088.0701,-3825.9811L14088.0857,-3825.9853L14088.0961,-3825.9888"/>
<path content="2,仙台市,215　交通局～新田二丁目東,31.5,19.5,18.5," xlink:title="2" d="M14087.7686,-3825.9031L14087.8361,-3825.9183L14087.8748,-3825.9326L14087.948,-3825.9518L14087.9746,-3825.9588L14087.9967,-3825.9614L14087.9978,-3825.9615L14087.9978,-3825.9616L14087.9979,-3825.9616L14087.9979,-3825.9616L14087.9979,-3825.9616L14087.9979,-3825.9616L14087.9979,-3825.9616L14087.9979,-3825.9616L14087.9979,-3825.9616L14088.0445,-3825.978L14088.0701,-3825.9811L14088.0857,-3825.9853L14088.0961,-3825.9888"/>
<path content="2,仙台市,230,9.0,5.5,5.5," xlink:title="2" d="M14087.7686,-3825.9031L14087.8361,-3825.9183L14087.8748,-3825.9326L14087.948,-3825.9518L14087.9746,-3825.9588L14087.9967,-3825.9614L14087.9978,-3825.9615L14087.9978,-3825.9616L14087.9979,-3825.9616L14087.9979,-3825.9616L14087.9979,-3825.9616L14087.9979,-3825.9616L14087.9979,-3825.9616L14087.9979,-3825.9616L14087.9979,-3825.9616L14088.0445,-3825.978L14088.0701,-3825.9811L14088.0857,-3825.9853L14088.0961,-3825.9888"/>
<path content="2,仙台市,233,8.0,6.0,6.0," xlink:title="2" d="M14087.7686,-3825.9031L14087.8361,-3825.9183L14087.8748,-3825.9326L14087.948,-3825.9518L14087.9746,-3825.9588L14087.9967,-3825.9614L14087.9978,-3825.9615L14087.9978,-3825.9616L14087.9979,-3825.9616L14087.9979,-3825.9616L14087.9979,-3825.9616L14087.9979,-3825.9616L14087.9979,-3825.9616L14087.9979,-3825.9616L14087.9979,-3825.9616L14088.0445,-3825.978L14088.0701,-3825.9811L14088.0857,-3825.9853L14088.0961,-3825.9888"/>
<path content="2,仙台市,235,5.0,3.5,3.0," xlink:title="2" d="M14087.7686,-3825.9031L14087.8361,-3825.9183L14087.8748,-3825.9326L14087.948,-3825.9518L14087.9746,-3825.9588L14087.9967,-3825.9614L14087.9978,-3825.9615L14087.9978,-3825.9616L14087.9979,-3825.9616L14087.9979,-3825.9616L14087.9979,-3825.9616L14088.0445,-3825.978L14088.0701,-3825.9811L14088.0857,-3825.9853L14088.0961,-3825.9888"/>
<path content="2,仙台市,300,18.5,14.0,13.5," xlink:title="2" d="M14088.3179,-3825.5183L14088.2986,-3825.5204L14088.2955,-3825.5208L14088.2867,-3825.5219L14088.1732,-3825.5359L14088.1753,-3825.5469L14088.1762,-3825.5634L14088.1756,-3825.5756L14088.175,-3825.5836L14088.1725,-3825.5983L14088.1707,-3825.6064L14088.1682,-3825.6151L14088.1622,-3825.6578L14088.1452,-3825.6836L14088.1313,-3825.7159L14088.1239,-3825.7316L14088.1176,-3825.7456L14088.1053,-3825.7689L14088.0949,-3825.7894L14088.0608,-3825.85L14088.0369,-3825.8915L14088.0203,-3825.9218L14087.9978,-3825.9615"/>
<path content="2,仙台市,300,18.5,14.0,13.5," xlink:title="2" d="M14087.9978,-3825.9615L14087.9978,-3825.9616L14087.9979,-3825.9616L14087.9979,-3825.9616L14087.9979,-3825.9616L14087.9979,-3825.9616L14087.9979,-3825.9616L14087.9979,-3825.9616L14087.9979,-3825.9616L14088.0445,-3825.978"/>
<path content="2,仙台市,300,18.5,14.0,13.5," xlink:title="2" d="M14087.7686,-3825.9031L14087.8361,-3825.9183L14087.8748,-3825.9326L14087.948,-3825.9518L14087.9746,-3825.9588L14087.9967,-3825.9614L14087.9978,-3825.9615"/>
<path content="2,仙台市,303,5.0,5.0,1.0," xlink:title="2" d="M14087.9978,-3825.9615L14088.0203,-3825.9218L14088.0369,-3825.8915L14088.0608,-3825.85L14088.0949,-3825.7894L14088.1053,-3825.7689L14088.1176,-3825.7456L14088.1239,-3825.7316L14088.1313,-3825.7159L14088.1452,-3825.6836L14088.1622,-3825.6578L14088.1682,-3825.6151L14088.1707,-3825.6064L14088.1725,-3825.5983L14088.175,-3825.5836L14088.1756,-3825.5756L14088.1762,-3825.5634L14088.1753,-3825.5469L14088.1732,-3825.5359L14088.2867,-3825.5219L14088.2955,-3825.5208L14088.2986,-3825.5204L14088.3179,-3825.5183"/>
<path content="2,仙台市,303,5.0,5.0,1.0," xlink:title="2" d="M14088.0445,-3825.978L14087.9979,-3825.9616L14087.9979,-3825.9616L14087.9979,-3825.9616L14087.9979,-3825.9616L14087.9979,-3825.9616L14087.9979,-3825.9616L14087.9979,-3825.9616L14087.9978,-3825.9616L14087.9978,-3825.9615"/>
<path content="2,仙台市,303,5.0,5.0,1.0," xlink:title="2" d="M14087.982,-3825.9888L14087.9978,-3825.9615L14087.9978,-3825.9615L14087.9978,-3825.9615"/>
<path content="2,仙台市,305,19.0,10.0,9.0," xlink:title="2" d="M14087.9978,-3825.9615L14088.0203,-3825.9218L14088.0369,-3825.8915L14088.0608,-3825.85L14088.0949,-3825.7894L14088.1053,-3825.7689L14088.1176,-3825.7456L14088.1239,-3825.7316L14088.1313,-3825.7159L14088.1452,-3825.6836L14088.1622,-3825.6578L14088.1682,-3825.6151L14088.1707,-3825.6064L14088.1725,-3825.5983L14088.175,-3825.5836L14088.1756,-3825.5756L14088.1762,-3825.5634L14088.1753,-3825.5469L14088.1732,-3825.5359L14088.2867,-3825.5219L14088.2955,-3825.5208L14088.2986,-3825.5204L14088.3179,-3825.5183"/>
<path content="2,仙台市,305,19.0,10.0,9.0," xlink:title="2" d="M14087.9978,-3825.9615L14087.9978,-3825.9616L14087.9979,-3825.9616L14087.9979,-3825.9616L14087.9979,-3825.9616L14087.9979,-3825.9616L14087.9979,-3825.9616L14087.9979,-3825.9616L14087.9979,-3825.9616L14088.0445,-3825.978"/>
<path content="2,仙台市,305,19.0,10.0,9.0," xlink:title="2" d="M14087.9978,-3825.9615L14087.9978,-3825.9615L14087.9978,-3825.9615L14087.982,-3825.9888"/>
<path content="2,仙台市,306,2.0,2.0,2.0," xlink:title="2" d="M14087.9978,-3825.9615L14087.9978,-3825.9616L14087.9979,-3825.9616L14087.9979,-3825.9616L14087.9979,-3825.9616L14087.9979,-3825.9616L14087.9979,-3825.9616L14087.9979,-3825.9616L14087.9979,-3825.9616L14088.0445,-3825.978"/>
<path content="2,仙台市,306,2.0,2.0,2.0," xlink:title="2" d="M14087.9978,-3825.9615L14088.0203,-3825.9218L14088.0369,-3825.8915L14088.0608,-3825.85L14088.0949,-3825.7894L14088.1053,-3825.7689L14088.1176,-3825.7456L14088.1239,-3825.7316L14088.1313,-3825.7159L14088.1452,-3825.6836L14088.1622,-3825.6578L14088.1682,-3825.6151L14088.1707,-3825.6064L14088.1725,-3825.5983L14088.175,-3825.5836L14088.1756,-3825.5756L14088.1762,-3825.5634L14088.1753,-3825.5469L14088.1732,-3825.5359L14088.2867,-3825.5219L14088.2955,-3825.5208L14088.2986,-3825.5204L14088.3179,-3825.5183"/>
<path content="2,仙台市,306,2.0,2.0,2.0," xlink:title="2" d="M14087.982,-3825.9888L14087.9978,-3825.9615L14087.9978,-3825.9615L14087.9978,-3825.9615"/>
<path content="2,仙台市,308,15.0,6.5,13.5," xlink:title="2" d="M14087.9978,-3825.9615L14088.0203,-3825.9218L14088.0369,-3825.8915L14088.0608,-3825.85L14088.0949,-3825.7894L14088.1053,-3825.7689L14088.1176,-3825.7456L14088.1239,-3825.7316L14088.1313,-3825.7159L14088.1452,-3825.6836L14088.1622,-3825.6578L14088.1682,-3825.6151L14088.1707,-3825.6064L14088.1725,-3825.5983L14088.175,-3825.5836L14088.1756,-3825.5756L14088.1762,-3825.5634L14088.1753,-3825.5469L14088.1732,-3825.5359L14088.2867,-3825.5219L14088.2955,-3825.5208L14088.2986,-3825.5204L14088.3179,-3825.5183"/>
<path content="2,仙台市,308,15.0,6.5,13.5," xlink:title="2" d="M14087.9978,-3825.9615L14087.9978,-3825.9616L14087.9979,-3825.9616L14087.9979,-3825.9616L14087.9979,-3825.9616L14087.9979,-3825.9616L14087.9979,-3825.9616L14087.9979,-3825.9616L14087.9979,-3825.9616L14088.0445,-3825.978"/>
<path content="2,仙台市,308,15.0,6.5,13.5," xlink:title="2" d="M14087.982,-3825.9888L14087.9978,-3825.9615L14087.9978,-3825.9615L14087.9978,-3825.9615"/>
<path content="2,仙台市,310　交通局～狐塚,22.5,13.0,12.0," xlink:title="2" d="M14087.9978,-3825.9615L14088.0203,-3825.9218L14088.0369,-3825.8915L14088.0608,-3825.85L14088.0949,-3825.7894L14088.1053,-3825.7689L14088.1176,-3825.7456L14088.1239,-3825.7316L14088.1313,-3825.7159L14088.1452,-3825.6836L14088.1622,-3825.6578L14088.1682,-3825.6151L14088.1707,-3825.6064L14088.1725,-3825.5983L14088.175,-3825.5836L14088.1756,-3825.5756L14088.1762,-3825.5634L14088.1753,-3825.5469L14088.1732,-3825.5359L14088.2867,-3825.5219L14088.2955,-3825.5208L14088.2986,-3825.5204L14088.3179,-3825.5183"/>
<path content="2,仙台市,310　交通局～狐塚,22.5,13.0,12.0," xlink:title="2" d="M14087.9978,-3825.9615L14087.9978,-3825.9616L14087.9979,-3825.9616L14087.9979,-3825.9616L14087.9979,-3825.9616L14087.9979,-3825.9616L14087.9979,-3825.9616L14087.9979,-3825.9616L14087.9979,-3825.9616L14088.0445,-3825.978"/>
<path content="2,仙台市,310　交通局～狐塚,22.5,13.0,12.0," xlink:title="2" d="M14087.982,-3825.9888L14087.9978,-3825.9615L14087.9978,-3825.9615L14087.9978,-3825.9615"/>
<path content="2,仙台市,311　交通局～霞の目営業所,6.5,1.5,1.0," xlink:title="2" d="M14087.9978,-3825.9615L14088.0203,-3825.9218L14088.0369,-3825.8915L14088.0608,-3825.85L14088.0949,-3825.7894L14088.1053,-3825.7689L14088.1176,-3825.7456L14088.1239,-3825.7316L14088.1313,-3825.7159L14088.1452,-3825.6836L14088.1622,-3825.6578L14088.1682,-3825.6151L14088.1707,-3825.6064L14088.1725,-3825.5983L14088.175,-3825.5836L14088.1756,-3825.5756L14088.1762,-3825.5634L14088.1753,-3825.5469L14088.1732,-3825.5359L14088.2867,-3825.5219L14088.2955,-3825.5208L14088.2986,-3825.5204L14088.3179,-3825.5183"/>
<path content="2,仙台市,311　交通局～霞の目営業所,6.5,1.5,1.0," xlink:title="2" d="M14088.0445,-3825.978L14087.9979,-3825.9616L14087.9979,-3825.9616L14087.9979,-3825.9616L14087.9978,-3825.9616L14087.9978,-3825.9615"/>
<path content="2,仙台市,311　交通局～霞の目営業所,6.5,1.5,1.0," xlink:title="2" d="M14087.982,-3825.9888L14087.9978,-3825.9615L14087.9978,-3825.9615L14087.9978,-3825.9615"/>
<path content="2,仙台市,319,1.0,0.0,0.0," xlink:title="2" d="M14087.982,-3825.9888L14087.9978,-3825.9615L14087.9978,-3825.9615L14087.9978,-3825.9615L14088.0203,-3825.9218L14088.0369,-3825.8915L14088.0608,-3825.85L14088.0949,-3825.7894L14088.1053,-3825.7689L14088.1176,-3825.7456L14088.1239,-3825.7316L14088.1313,-3825.7159L14088.1452,-3825.6836L14088.1622,-3825.6578L14088.1682,-3825.6151L14088.1707,-3825.6064L14088.1725,-3825.5983L14088.175,-3825.5836L14088.1756,-3825.5756L14088.1762,-3825.5634L14088.1753,-3825.5469L14088.1732,-3825.5359L14088.2867,-3825.5219L14088.2955,-3825.5208L14088.2986,-3825.5204L14088.3179,-3825.5183"/>
<path content="2,仙台市,330,17.5,15.0,7.0," xlink:title="2" d="M14087.9978,-3825.9615L14088.0203,-3825.9218L14088.0369,-3825.8915L14088.0608,-3825.85L14088.0949,-3825.7894L14088.1053,-3825.7689L14088.1176,-3825.7456L14088.1239,-3825.7316L14088.1313,-3825.7159L14088.1452,-3825.6836L14088.1622,-3825.6578L14088.1682,-3825.6151L14088.1707,-3825.6064L14088.1725,-3825.5983L14088.175,-3825.5836L14088.1756,-3825.5756L14088.1762,-3825.5634L14088.1753,-3825.5469L14088.1732,-3825.5359L14088.2867,-3825.5219L14088.2955,-3825.5208L14088.2986,-3825.5204L14088.3179,-3825.5183"/>
<path content="2,仙台市,330,17.5,15.0,7.0," xlink:title="2" d="M14087.9978,-3825.9615L14087.9978,-3825.9615L14087.9978,-3825.9615L14087.982,-3825.9888"/>
<path content="2,仙台市,330,17.5,15.0,7.0," xlink:title="2" d="M14088.0445,-3825.978L14087.9979,-3825.9616L14087.9979,-3825.9616L14087.9979,-3825.9616L14087.9979,-3825.9616L14087.9979,-3825.9616L14087.9979,-3825.9616L14087.9979,-3825.9616L14087.9978,-3825.9616L14087.9978,-3825.9615"/>
<path content="2,仙台市,349,3.0,0.0,0.0," xlink:title="2" d="M14088.1732,-3825.5359L14088.1563,-3825.4484L14088.1529,-3825.4395M14088.3179,-3825.5183L14088.2986,-3825.5204L14088.2955,-3825.5208L14088.2867,-3825.5219L14088.1732,-3825.5359"/>
<path content="2,仙台市,349,3.0,0.0,0.0," xlink:title="2" d="M14088.1732,-3825.5359L14088.1753,-3825.5469L14088.1762,-3825.5634L14088.1756,-3825.5756L14088.175,-3825.5836L14088.1725,-3825.5983L14088.1707,-3825.6064L14088.1682,-3825.6151L14088.1622,-3825.6578L14088.1452,-3825.6836L14088.1313,-3825.7159L14088.1239,-3825.7316L14088.1176,-3825.7456L14088.1053,-3825.7689L14088.0949,-3825.7894L14088.0608,-3825.85L14088.0369,-3825.8915L14088.0203,-3825.9218L14087.9978,-3825.9615L14087.9978,-3825.9615L14087.9978,-3825.9615L14087.982,-3825.9888"/>
<path content="2,仙台市,350,69.5,55.0,53.0," xlink:title="2" d="M14087.9978,-3825.9615L14088.0203,-3825.9218L14088.0369,-3825.8915L14088.0608,-3825.85L14088.0949,-3825.7894L14088.1053,-3825.7689L14088.1176,-3825.7456L14088.1239,-3825.7316L14088.1313,-3825.7159L14088.1452,-3825.6836L14088.1622,-3825.6578L14088.1682,-3825.6151L14088.1707,-3825.6064L14088.1725,-3825.5983L14088.175,-3825.5836L14088.1756,-3825.5756L14088.1762,-3825.5634L14088.1753,-3825.5469L14088.1732,-3825.5359L14088.1563,-3825.4484L14088.1529,-3825.4395"/>
<path content="2,仙台市,350,69.5,55.0,53.0," xlink:title="2" d="M14088.0445,-3825.978L14087.9979,-3825.9616L14087.9979,-3825.9616L14087.9979,-3825.9616L14087.9978,-3825.9616L14087.9978,-3825.9615"/>
<path content="2,仙台市,350,69.5,55.0,53.0," xlink:title="2" d="M14087.982,-3825.9888L14087.9978,-3825.9615L14087.9978,-3825.9615L14087.9978,-3825.9615"/>
<path content="2,仙台市,351,1.0,0.0,0.0," xlink:title="2" d="M14087.9978,-3825.9615L14088.0203,-3825.9218L14088.0369,-3825.8915L14088.0608,-3825.85L14088.0949,-3825.7894L14088.1053,-3825.7689L14088.1176,-3825.7456L14088.1239,-3825.7316L14088.1313,-3825.7159L14088.1452,-3825.6836L14088.1622,-3825.6578L14088.1682,-3825.6151L14088.1707,-3825.6064L14088.1725,-3825.5983L14088.175,-3825.5836L14088.1756,-3825.5756L14088.1762,-3825.5634L14088.1753,-3825.5469L14088.1732,-3825.5359L14088.1563,-3825.4484L14088.1529,-3825.4395"/>
<path content="2,仙台市,351,1.0,0.0,0.0," xlink:title="2" d="M14088.0445,-3825.978L14087.9979,-3825.9616L14087.9979,-3825.9616L14087.9979,-3825.9616L14087.9978,-3825.9616L14087.9978,-3825.9615"/>
<path content="2,仙台市,351,1.0,0.0,0.0," xlink:title="2" d="M14087.982,-3825.9888L14087.9978,-3825.9615L14087.9978,-3825.9615L14087.9978,-3825.9615"/>
<path content="2,仙台市,352,4.0,0.0,0.0," xlink:title="2" d="M14087.7686,-3825.5535L14087.7709,-3825.5494L14087.7836,-3825.5198L14087.8326,-3825.4395"/>
<path content="2,仙台市,400,25.0,20.5,20.0," xlink:title="2" d="M14087.9978,-3825.9615L14088.0203,-3825.9218L14088.0369,-3825.8915L14088.0608,-3825.85L14088.0949,-3825.7894L14088.1053,-3825.7689L14088.1176,-3825.7456L14088.1239,-3825.7316L14088.1313,-3825.7159L14088.1452,-3825.6836L14088.1622,-3825.6578L14088.1682,-3825.6151L14088.1707,-3825.6064L14088.1725,-3825.5983L14088.175,-3825.5836L14088.1756,-3825.5756L14088.1762,-3825.5634L14088.1753,-3825.5469L14088.1732,-3825.5359L14088.1563,-3825.4484L14088.1529,-3825.4395"/>
<path content="2,仙台市,400,25.0,20.5,20.0," xlink:title="2" d="M14088.0445,-3825.978L14087.9979,-3825.9616L14087.9979,-3825.9616L14087.9979,-3825.9616L14087.9979,-3825.9616L14087.9979,-3825.9616L14087.9979,-3825.9616L14087.9979,-3825.9616L14087.9978,-3825.9616L14087.9978,-3825.9615"/>
<path content="2,仙台市,400,25.0,20.5,20.0," xlink:title="2" d="M14087.982,-3825.9888L14087.9978,-3825.9615L14087.9978,-3825.9615L14087.9978,-3825.9615"/>
<path content="2,仙台市,402,1.0,0.0,0.0," xlink:title="2" d="M14087.7686,-3825.5535L14087.7709,-3825.5494L14087.7836,-3825.5198L14087.8326,-3825.4395"/>
<path content="2,仙台市,403,1.0,0.0,0.0," xlink:title="2" d="M14087.9979,-3825.9616L14088.0445,-3825.978"/>
<path content="2,仙台市,403,1.0,0.0,0.0," xlink:title="2" d="M14087.9821,-3825.9888L14087.9861,-3825.9819L14087.9902,-3825.9747L14087.9978,-3825.9615L14087.9978,-3825.9615L14087.9978,-3825.9615L14088.0203,-3825.9218L14088.0369,-3825.8915L14088.0608,-3825.85L14088.0949,-3825.7894L14088.1053,-3825.7689L14088.1176,-3825.7456L14088.1239,-3825.7316L14088.1313,-3825.7159L14088.1452,-3825.6836L14088.1622,-3825.6578L14088.1682,-3825.6151L14088.1707,-3825.6064L14088.1725,-3825.5983L14088.175,-3825.5836L14088.1756,-3825.5756L14088.1762,-3825.5634L14088.1753,-3825.5469L14088.1732,-3825.5359L14088.1563,-3825.4484L14088.1529,-3825.4395"/>
<path content="2,仙台市,405,6.0,6.0,6.0," xlink:title="2" d="M14087.9978,-3825.9615L14088.0203,-3825.9218L14088.0369,-3825.8915L14088.0608,-3825.85L14088.0949,-3825.7894L14088.1053,-3825.7689L14088.1176,-3825.7456L14088.1239,-3825.7316L14088.1313,-3825.7159L14088.1452,-3825.6836L14088.1622,-3825.6578L14088.1682,-3825.6151L14088.1707,-3825.6064L14088.1725,-3825.5983L14088.175,-3825.5836L14088.1756,-3825.5756L14088.1762,-3825.5634L14088.1753,-3825.5469L14088.1732,-3825.5359L14088.1563,-3825.4484L14088.1529,-3825.4395"/>
<path content="2,仙台市,405,6.0,6.0,6.0," xlink:title="2" d="M14088.0445,-3825.978L14087.9979,-3825.9616L14087.9979,-3825.9616L14087.9979,-3825.9616L14087.9979,-3825.9616L14087.9979,-3825.9616L14087.9979,-3825.9616L14087.9979,-3825.9616L14087.9978,-3825.9616L14087.9978,-3825.9615"/>
<path content="2,仙台市,405,6.0,6.0,6.0," xlink:title="2" d="M14087.9821,-3825.9888L14087.9861,-3825.9819L14087.9902,-3825.9747L14087.9978,-3825.9615L14087.9978,-3825.9615L14087.9978,-3825.9615"/>
<path content="2,仙台市,410　交通局～霞の目,25.0,21.5,19.5," xlink:title="2" d="M14087.9978,-3825.9615L14088.0203,-3825.9218L14088.0369,-3825.8915L14088.0608,-3825.85L14088.0949,-3825.7894L14088.1053,-3825.7689L14088.1176,-3825.7456L14088.1239,-3825.7316L14088.1313,-3825.7159L14088.1452,-3825.6836L14088.1622,-3825.6578L14088.1682,-3825.6151L14088.1707,-3825.6064L14088.1725,-3825.5983L14088.175,-3825.5836L14088.1756,-3825.5756L14088.1762,-3825.5634L14088.1753,-3825.5469L14088.1732,-3825.5359L14088.1563,-3825.4484L14088.1529,-3825.4395"/>
<path content="2,仙台市,410　交通局～霞の目,25.0,21.5,19.5," xlink:title="2" d="M14088.0445,-3825.978L14087.9979,-3825.9616L14087.9979,-3825.9616L14087.9979,-3825.9616L14087.9979,-3825.9616L14087.9979,-3825.9616L14087.9979,-3825.9616L14087.9979,-3825.9616L14087.9978,-3825.9616L14087.9978,-3825.9615"/>
<path content="2,仙台市,410　交通局～霞の目,25.0,21.5,19.5," xlink:title="2" d="M14087.982,-3825.9888L14087.9978,-3825.9615L14087.9978,-3825.9615L14087.9978,-3825.9615"/>
<path content="2,仙台市,410　交通局～霞の目営業所,20.0,8.0,9.0," xlink:title="2" d="M14087.9978,-3825.9615L14088.0203,-3825.9218L14088.0369,-3825.8915L14088.0608,-3825.85L14088.0949,-3825.7894L14088.1053,-3825.7689L14088.1176,-3825.7456L14088.1239,-3825.7316L14088.1313,-3825.7159L14088.1452,-3825.6836L14088.1622,-3825.6578L14088.1682,-3825.6151L14088.1707,-3825.6064L14088.1725,-3825.5983L14088.175,-3825.5836L14088.1756,-3825.5756L14088.1762,-3825.5634L14088.1753,-3825.5469L14088.1732,-3825.5359L14088.1563,-3825.4484L14088.1529,-3825.4395"/>
<path content="2,仙台市,410　交通局～霞の目営業所,20.0,8.0,9.0," xlink:title="2" d="M14088.0445,-3825.978L14087.9979,-3825.9616L14087.9979,-3825.9616L14087.9979,-3825.9616L14087.9979,-3825.9616L14087.9979,-3825.9616L14087.9979,-3825.9616L14087.9979,-3825.9616L14087.9978,-3825.9616L14087.9978,-3825.9615"/>
<path content="2,仙台市,410　交通局～霞の目営業所,20.0,8.0,9.0," xlink:title="2" d="M14087.982,-3825.9888L14087.9978,-3825.9615L14087.9978,-3825.9615L14087.9978,-3825.9615"/>
<path content="2,仙台市,420,5.0,2.0,2.0," xlink:title="2" d="M14087.9978,-3825.9615L14088.0203,-3825.9218L14088.0369,-3825.8915L14088.0608,-3825.85L14088.0949,-3825.7894L14088.1053,-3825.7689L14088.1176,-3825.7456L14088.1239,-3825.7316L14088.1313,-3825.7159L14088.1452,-3825.6836L14088.1622,-3825.6578L14088.1682,-3825.6151L14088.1707,-3825.6064L14088.1725,-3825.5983L14088.175,-3825.5836L14088.1756,-3825.5756L14088.1762,-3825.5634L14088.1753,-3825.5469L14088.1732,-3825.5359L14088.1563,-3825.4484L14088.1529,-3825.4395"/>
<path content="2,仙台市,420,5.0,2.0,2.0," xlink:title="2" d="M14088.0445,-3825.978L14087.9979,-3825.9616L14087.9979,-3825.9616L14087.9979,-3825.9616L14087.9979,-3825.9616L14087.9979,-3825.9616L14087.9979,-3825.9616L14087.9979,-3825.9616L14087.9978,-3825.9616L14087.9978,-3825.9615"/>
<path content="2,仙台市,420,5.0,2.0,2.0," xlink:title="2" d="M14087.982,-3825.9888L14087.9978,-3825.9615L14087.9978,-3825.9615L14087.9978,-3825.9615"/>
<path content="2,仙台市,430,26.0,17.0,15.0," xlink:title="2" d="M14087.9978,-3825.9615L14088.0203,-3825.9218L14088.0369,-3825.8915L14088.0608,-3825.85L14088.0949,-3825.7894L14088.1053,-3825.7689L14088.1176,-3825.7456L14088.1239,-3825.7316L14088.1313,-3825.7159L14088.1452,-3825.6836L14088.1622,-3825.6578L14088.1682,-3825.6151L14088.1707,-3825.6064L14088.1725,-3825.5983L14088.175,-3825.5836L14088.1756,-3825.5756L14088.1762,-3825.5634L14088.1753,-3825.5469L14088.1732,-3825.5359L14088.1563,-3825.4484L14088.1529,-3825.4395"/>
<path content="2,仙台市,430,26.0,17.0,15.0," xlink:title="2" d="M14088.0445,-3825.978L14087.9979,-3825.9616L14087.9979,-3825.9616L14087.9979,-3825.9616L14087.9979,-3825.9616L14087.9979,-3825.9616L14087.9979,-3825.9616L14087.9979,-3825.9616L14087.9978,-3825.9616L14087.9978,-3825.9615"/>
<path content="2,仙台市,430,26.0,17.0,15.0," xlink:title="2" d="M14087.982,-3825.9888L14087.9978,-3825.9615L14087.9978,-3825.9615L14087.9978,-3825.9615"/>
<path content="2,仙台市,432,4.0,0.0,0.0," xlink:title="2" d="M14087.8326,-3825.4395L14087.7836,-3825.5198L14087.7709,-3825.5494L14087.7686,-3825.5535"/>
<path content="2,仙台市,435,7.0,8.5,8.0," xlink:title="2" d="M14087.9978,-3825.9615L14088.0203,-3825.9218L14088.0369,-3825.8915L14088.0608,-3825.85L14088.0949,-3825.7894L14088.1053,-3825.7689L14088.1176,-3825.7456L14088.1239,-3825.7316L14088.1313,-3825.7159L14088.1452,-3825.6836L14088.1622,-3825.6578L14088.1682,-3825.6151L14088.1707,-3825.6064L14088.1725,-3825.5983L14088.175,-3825.5836L14088.1756,-3825.5756L14088.1762,-3825.5634L14088.1753,-3825.5469L14088.1732,-3825.5359L14088.1563,-3825.4484L14088.1529,-3825.4395"/>
<path content="2,仙台市,435,7.0,8.5,8.0," xlink:title="2" d="M14088.0445,-3825.978L14087.9979,-3825.9616L14087.9979,-3825.9616L14087.9979,-3825.9616L14087.9979,-3825.9616L14087.9979,-3825.9616L14087.9979,-3825.9616L14087.9979,-3825.9616L14087.9978,-3825.9616L14087.9978,-3825.9615"/>
<path content="2,仙台市,435,7.0,8.5,8.0," xlink:title="2" d="M14087.982,-3825.9888L14087.9978,-3825.9615L14087.9978,-3825.9615L14087.9978,-3825.9615"/>
<path content="2,仙台市,436,5.5,4.0,4.0," xlink:title="2" d="M14087.9978,-3825.9615L14088.0203,-3825.9218L14088.0369,-3825.8915L14088.0608,-3825.85L14088.0949,-3825.7894L14088.1053,-3825.7689L14088.1176,-3825.7456L14088.1239,-3825.7316L14088.1313,-3825.7159L14088.1452,-3825.6836L14088.1622,-3825.6578L14088.1682,-3825.6151L14088.1707,-3825.6064L14088.1725,-3825.5983L14088.175,-3825.5836L14088.1756,-3825.5756L14088.1762,-3825.5634L14088.1753,-3825.5469L14088.1732,-3825.5359L14088.1563,-3825.4484L14088.1529,-3825.4395"/>
<path content="2,仙台市,436,5.5,4.0,4.0," xlink:title="2" d="M14088.0445,-3825.978L14087.9979,-3825.9616L14087.9979,-3825.9616L14087.9979,-3825.9616L14087.9979,-3825.9616L14087.9979,-3825.9616L14087.9979,-3825.9616L14087.9979,-3825.9616L14087.9978,-3825.9616L14087.9978,-3825.9615"/>
<path content="2,仙台市,436,5.5,4.0,4.0," xlink:title="2" d="M14087.982,-3825.9888L14087.9978,-3825.9615L14087.9978,-3825.9615L14087.9978,-3825.9615"/>
<path content="2,仙台市,440,3.5,0.0,0.0," xlink:title="2" d="M14087.982,-3825.9888L14087.9978,-3825.9615L14087.9978,-3825.9615L14087.9978,-3825.9615L14088.0203,-3825.9218L14088.0369,-3825.8915L14088.0608,-3825.85L14088.0949,-3825.7894L14088.1053,-3825.7689L14088.1176,-3825.7456L14088.1239,-3825.7316L14088.1313,-3825.7159L14088.1452,-3825.6836L14088.1622,-3825.6578L14088.1682,-3825.6151L14088.1707,-3825.6064L14088.1725,-3825.5983L14088.175,-3825.5836L14088.1756,-3825.5756L14088.1762,-3825.5634L14088.1753,-3825.5469L14088.1732,-3825.5359L14088.1563,-3825.4484L14088.1529,-3825.4395"/>
<path content="2,仙台市,449,3.0,0.0,0.0," xlink:title="2" d="M14088.1732,-3825.5359L14088.2867,-3825.5219L14088.2955,-3825.5208L14088.2986,-3825.5204L14088.3179,-3825.5183M14088.1529,-3825.4395L14088.1563,-3825.4484L14088.1732,-3825.5359"/>
<path content="2,仙台市,449,3.0,0.0,0.0," xlink:title="2" d="M14088.1732,-3825.5359L14088.1753,-3825.5469L14088.1762,-3825.5634L14088.1756,-3825.5756L14088.175,-3825.5836L14088.1725,-3825.5983L14088.1707,-3825.6064L14088.1682,-3825.6151L14088.1622,-3825.6578L14088.1452,-3825.6836L14088.1313,-3825.7159L14088.1239,-3825.7316L14088.1176,-3825.7456L14088.1053,-3825.7689L14088.0949,-3825.7894L14088.0608,-3825.85L14088.0369,-3825.8915L14088.0203,-3825.9218L14087.9978,-3825.9615L14087.9978,-3825.9615L14087.9978,-3825.9615L14087.982,-3825.9888"/>
<path content="2,仙台市,450,4.0,0.0,0.0," xlink:title="2" d="M14087.9978,-3825.9615L14088.0203,-3825.9218L14088.0369,-3825.8915L14088.0608,-3825.85L14088.0949,-3825.7894L14088.1053,-3825.7689L14088.1176,-3825.7456L14088.1239,-3825.7316L14088.1313,-3825.7159L14088.1452,-3825.6836L14088.1622,-3825.6578L14088.1682,-3825.6151L14088.1707,-3825.6064L14088.1725,-3825.5983L14088.175,-3825.5836L14088.1756,-3825.5756L14088.1762,-3825.5634L14088.1753,-3825.5469L14088.1732,-3825.5359L14088.1563,-3825.4484L14088.1529,-3825.4395"/>
<path content="2,仙台市,450,4.0,0.0,0.0," xlink:title="2" d="M14088.0445,-3825.978L14087.9979,-3825.9616L14087.9979,-3825.9616L14087.9979,-3825.9616L14087.9978,-3825.9616L14087.9978,-3825.9615"/>
<path content="2,仙台市,450,4.0,0.0,0.0," xlink:title="2" d="M14087.982,-3825.9888L14087.9978,-3825.9615L14087.9978,-3825.9615L14087.9978,-3825.9615"/>
<path content="2,仙台市,459,3.0,0.0,0.0," xlink:title="2" d="M14087.9978,-3825.9615L14088.0203,-3825.9218L14088.0369,-3825.8915L14088.0608,-3825.85L14088.0949,-3825.7894L14088.1053,-3825.7689L14088.1176,-3825.7456L14088.1239,-3825.7316L14088.1313,-3825.7159L14088.1452,-3825.6836L14088.1622,-3825.6578L14088.1682,-3825.6151L14088.1707,-3825.6064L14088.1725,-3825.5983L14088.175,-3825.5836L14088.1756,-3825.5756L14088.1762,-3825.5634L14088.1753,-3825.5469L14088.1732,-3825.5359L14088.1563,-3825.4484L14088.1529,-3825.4395"/>
<path content="2,仙台市,459,3.0,0.0,0.0," xlink:title="2" d="M14088.0445,-3825.978L14087.9979,-3825.9616L14087.9979,-3825.9616L14087.9979,-3825.9616L14087.9979,-3825.9616L14087.9979,-3825.9616L14087.9979,-3825.9616L14087.9979,-3825.9616L14087.9978,-3825.9616L14087.9978,-3825.9615"/>
<path content="2,仙台市,459,3.0,0.0,0.0," xlink:title="2" d="M14087.982,-3825.9888L14087.9978,-3825.9615L14087.9978,-3825.9615L14087.9978,-3825.9615"/>
<path content="2,仙台市,500,14.5,14.5,13.5," xlink:title="2" d="M14087.9978,-3825.9615L14088.0203,-3825.9218L14088.0369,-3825.8915L14088.0608,-3825.85L14088.0949,-3825.7894L14088.1053,-3825.7689L14088.1176,-3825.7456L14088.1239,-3825.7316L14088.1313,-3825.7159L14088.1452,-3825.6836L14088.1622,-3825.6578L14088.1682,-3825.6151L14088.1707,-3825.6064L14088.1725,-3825.5983L14088.175,-3825.5836L14088.1756,-3825.5756L14088.1762,-3825.5634L14088.1753,-3825.5469L14088.1732,-3825.5359L14088.1563,-3825.4484L14088.1529,-3825.4395"/>
<path content="2,仙台市,500,14.5,14.5,13.5," xlink:title="2" d="M14088.0445,-3825.978L14087.9979,-3825.9616L14087.9979,-3825.9616L14087.9979,-3825.9616L14087.9978,-3825.9616L14087.9978,-3825.9615"/>
<path content="2,仙台市,500,14.5,14.5,13.5," xlink:title="2" d="M14087.982,-3825.9888L14087.9978,-3825.9615L14087.9978,-3825.9615L14087.9978,-3825.9615"/>
<path content="2,仙台市,510,7.5,4.5,4.0," xlink:title="2" d="M14087.9978,-3825.9615L14088.0203,-3825.9218L14088.0369,-3825.8915L14088.0608,-3825.85L14088.0949,-3825.7894L14088.1053,-3825.7689L14088.1176,-3825.7456L14088.1239,-3825.7316L14088.1313,-3825.7159L14088.1452,-3825.6836L14088.1622,-3825.6578L14088.1682,-3825.6151L14088.1707,-3825.6064L14088.1725,-3825.5983L14088.175,-3825.5836L14088.1756,-3825.5756L14088.1762,-3825.5634L14088.1753,-3825.5469L14088.1732,-3825.5359L14088.1563,-3825.4484L14088.1529,-3825.4395"/>
<path content="2,仙台市,510,7.5,4.5,4.0," xlink:title="2" d="M14088.0445,-3825.978L14087.9979,-3825.9616L14087.9979,-3825.9616L14087.9979,-3825.9616L14087.9978,-3825.9616L14087.9978,-3825.9615"/>
<path content="2,仙台市,510,7.5,4.5,4.0," xlink:title="2" d="M14087.982,-3825.9888L14087.9978,-3825.9615L14087.9978,-3825.9615L14087.9978,-3825.9615"/>
<path content="2,仙台市,511,1.5,0.0,0.0," xlink:title="2" d="M14087.9978,-3825.9615L14088.0203,-3825.9218L14088.0369,-3825.8915L14088.0608,-3825.85L14088.0949,-3825.7894L14088.1053,-3825.7689L14088.1176,-3825.7456L14088.1239,-3825.7316L14088.1313,-3825.7159L14088.1452,-3825.6836L14088.1622,-3825.6578L14088.1682,-3825.6151L14088.1707,-3825.6064L14088.1725,-3825.5983L14088.175,-3825.5836L14088.1756,-3825.5756L14088.1762,-3825.5634L14088.1753,-3825.5469L14088.1732,-3825.5359L14088.1563,-3825.4484L14088.1529,-3825.4395"/>
<path content="2,仙台市,511,1.5,0.0,0.0," xlink:title="2" d="M14088.0445,-3825.978L14087.9979,-3825.9616L14087.9979,-3825.9616L14087.9979,-3825.9616L14087.9978,-3825.9616L14087.9978,-3825.9615"/>
<path content="2,仙台市,511,1.5,0.0,0.0," xlink:title="2" d="M14087.982,-3825.9888L14087.9978,-3825.9615L14087.9978,-3825.9615L14087.9978,-3825.9615"/>
<path content="2,仙台市,513,2.5,0.0,1.0," xlink:title="2" d="M14087.9978,-3825.9615L14088.0203,-3825.9218L14088.0369,-3825.8915L14088.0608,-3825.85L14088.0949,-3825.7894L14088.1053,-3825.7689L14088.1176,-3825.7456L14088.1239,-3825.7316L14088.1313,-3825.7159L14088.1452,-3825.6836L14088.1622,-3825.6578L14088.1682,-3825.6151L14088.1707,-3825.6064L14088.1725,-3825.5983L14088.175,-3825.5836L14088.1756,-3825.5756L14088.1762,-3825.5634L14088.1753,-3825.5469L14088.1732,-3825.5359L14088.1563,-3825.4484L14088.1529,-3825.4395"/>
<path content="2,仙台市,513,2.5,0.0,1.0," xlink:title="2" d="M14088.0445,-3825.978L14087.9979,-3825.9616L14087.9979,-3825.9616L14087.9979,-3825.9616L14087.9978,-3825.9616L14087.9978,-3825.9615"/>
<path content="2,仙台市,513,2.5,0.0,1.0," xlink:title="2" d="M14087.982,-3825.9888L14087.9978,-3825.9615L14087.9978,-3825.9615L14087.9978,-3825.9615"/>
<path content="2,仙台市,514,1.5,0.0,0.0," xlink:title="2" d="M14087.9978,-3825.9615L14088.0203,-3825.9218L14088.0369,-3825.8915L14088.0608,-3825.85L14088.0949,-3825.7894L14088.1053,-3825.7689L14088.1176,-3825.7456L14088.1239,-3825.7316L14088.1313,-3825.7159L14088.1452,-3825.6836L14088.1622,-3825.6578L14088.1682,-3825.6151L14088.1707,-3825.6064L14088.1725,-3825.5983L14088.175,-3825.5836L14088.1756,-3825.5756L14088.1762,-3825.5634L14088.1753,-3825.5469L14088.1732,-3825.5359L14088.1563,-3825.4484L14088.1529,-3825.4395"/>
<path content="2,仙台市,514,1.5,0.0,0.0," xlink:title="2" d="M14088.0445,-3825.978L14087.9979,-3825.9616L14087.9979,-3825.9616L14087.9979,-3825.9616L14087.9978,-3825.9616L14087.9978,-3825.9615"/>
<path content="2,仙台市,514,1.5,0.0,0.0," xlink:title="2" d="M14087.982,-3825.9888L14087.9978,-3825.9615L14087.9978,-3825.9615L14087.9978,-3825.9615"/>
<path content="2,仙台市,515,9.0,10.5,9.5," xlink:title="2" d="M14087.9978,-3825.9615L14088.0203,-3825.9218L14088.0369,-3825.8915L14088.0608,-3825.85L14088.0949,-3825.7894L14088.1053,-3825.7689L14088.1176,-3825.7456L14088.1239,-3825.7316L14088.1313,-3825.7159L14088.1452,-3825.6836L14088.1622,-3825.6578L14088.1682,-3825.6151L14088.1707,-3825.6064L14088.1725,-3825.5983L14088.175,-3825.5836L14088.1756,-3825.5756L14088.1762,-3825.5634L14088.1753,-3825.5469L14088.1732,-3825.5359L14088.1563,-3825.4484L14088.1529,-3825.4395"/>
<path content="2,仙台市,515,9.0,10.5,9.5," xlink:title="2" d="M14088.0445,-3825.978L14087.9979,-3825.9616L14087.9979,-3825.9616L14087.9979,-3825.9616L14087.9978,-3825.9616L14087.9978,-3825.9615"/>
<path content="2,仙台市,515,9.0,10.5,9.5," xlink:title="2" d="M14087.982,-3825.9888L14087.9978,-3825.9615L14087.9978,-3825.9615L14087.9978,-3825.9615"/>
<path content="2,仙台市,535,26.5,16.0,14.5," xlink:title="2" d="M14087.9978,-3825.9615L14088.0203,-3825.9218L14088.0369,-3825.8915L14088.0608,-3825.85L14088.0949,-3825.7894L14088.1053,-3825.7689L14088.1176,-3825.7456L14088.1239,-3825.7316L14088.1313,-3825.7159L14088.1452,-3825.6836L14088.1622,-3825.6578L14088.1682,-3825.6151L14088.1707,-3825.6064L14088.1725,-3825.5983L14088.175,-3825.5836L14088.1756,-3825.5756L14088.1762,-3825.5634L14088.1753,-3825.5469L14088.1732,-3825.5359L14088.1563,-3825.4484L14088.1529,-3825.4395"/>
<path content="2,仙台市,535,26.5,16.0,14.5," xlink:title="2" d="M14088.0445,-3825.978L14087.9979,-3825.9616L14087.9979,-3825.9616L14087.9979,-3825.9616L14087.9979,-3825.9616L14087.9979,-3825.9616L14087.9979,-3825.9616L14087.9979,-3825.9616L14087.9978,-3825.9616L14087.9978,-3825.9615"/>
<path content="2,仙台市,535,26.5,16.0,14.5," xlink:title="2" d="M14087.982,-3825.9888L14087.9978,-3825.9615L14087.9978,-3825.9615L14087.9978,-3825.9615"/>
<path content="2,仙台市,540,12.0,9.0,8.5," xlink:title="2" d="M14087.9978,-3825.9615L14088.0203,-3825.9218L14088.0369,-3825.8915L14088.0608,-3825.85L14088.0949,-3825.7894L14088.1053,-3825.7689L14088.1176,-3825.7456L14088.1239,-3825.7316L14088.1313,-3825.7159L14088.1452,-3825.6836L14088.1622,-3825.6578L14088.1682,-3825.6151L14088.1707,-3825.6064L14088.1725,-3825.5983L14088.175,-3825.5836L14088.1756,-3825.5756L14088.1762,-3825.5634L14088.1753,-3825.5469L14088.1732,-3825.5359L14088.1563,-3825.4484L14088.1529,-3825.4395"/>
<path content="2,仙台市,540,12.0,9.0,8.5," xlink:title="2" d="M14088.0445,-3825.978L14087.9979,-3825.9616L14087.9979,-3825.9616L14087.9979,-3825.9616L14087.9979,-3825.9616L14087.9979,-3825.9616L14087.9979,-3825.9616L14087.9979,-3825.9616L14087.9978,-3825.9616L14087.9978,-3825.9615"/>
<path content="2,仙台市,540,12.0,9.0,8.5," xlink:title="2" d="M14087.982,-3825.9888L14087.9978,-3825.9615L14087.9978,-3825.9615L14087.9978,-3825.9615"/>
<path content="2,仙台市,545,6.5,5.0,5.0," xlink:title="2" d="M14087.9978,-3825.9615L14088.0203,-3825.9218L14088.0369,-3825.8915L14088.0608,-3825.85L14088.0949,-3825.7894L14088.1053,-3825.7689L14088.1176,-3825.7456L14088.1239,-3825.7316L14088.1313,-3825.7159L14088.1452,-3825.6836L14088.1622,-3825.6578L14088.1682,-3825.6151L14088.1707,-3825.6064L14088.1725,-3825.5983L14088.175,-3825.5836L14088.1756,-3825.5756L14088.1762,-3825.5634L14088.1753,-3825.5469L14088.1732,-3825.5359L14088.1563,-3825.4484L14088.1529,-3825.4395"/>
<path content="2,仙台市,545,6.5,5.0,5.0," xlink:title="2" d="M14088.0445,-3825.978L14087.9979,-3825.9616L14087.9979,-3825.9616L14087.9979,-3825.9616L14087.9979,-3825.9616L14087.9979,-3825.9616L14087.9979,-3825.9616L14087.9979,-3825.9616L14087.9978,-3825.9616L14087.9978,-3825.9615"/>
<path content="2,仙台市,545,6.5,5.0,5.0," xlink:title="2" d="M14087.982,-3825.9888L14087.9978,-3825.9615L14087.9978,-3825.9615L14087.9978,-3825.9615"/>
<path content="2,仙台市,559,4.0,0.0,0.0," xlink:title="2" d="M14087.9978,-3825.9615L14088.0203,-3825.9218L14088.0369,-3825.8915L14088.0608,-3825.85L14088.0949,-3825.7894L14088.1053,-3825.7689L14088.1176,-3825.7456L14088.1239,-3825.7316L14088.1313,-3825.7159L14088.1452,-3825.6836L14088.1622,-3825.6578L14088.1682,-3825.6151L14088.1707,-3825.6064L14088.1725,-3825.5983L14088.175,-3825.5836L14088.1756,-3825.5756L14088.1762,-3825.5634L14088.1753,-3825.5469L14088.1732,-3825.5359L14088.1563,-3825.4484L14088.1529,-3825.4395"/>
<path content="2,仙台市,559,4.0,0.0,0.0," xlink:title="2" d="M14087.9979,-3825.9616L14087.9979,-3825.9616L14087.9979,-3825.9616L14087.9979,-3825.9616L14087.9979,-3825.9616L14087.9979,-3825.9616L14087.9979,-3825.9616L14087.9978,-3825.9616L14087.9978,-3825.9615"/>
<path content="2,仙台市,559,4.0,0.0,0.0," xlink:title="2" d="M14087.9821,-3825.9888L14087.9861,-3825.9819L14087.9902,-3825.9747L14087.9978,-3825.9615L14087.9978,-3825.9615L14087.9978,-3825.9615"/>
<path content="2,仙台市,605,8.5,3.5,3.5," xlink:title="2" d="M14087.9978,-3825.9615L14088.0203,-3825.9218L14088.0369,-3825.8915L14088.0608,-3825.85L14088.0949,-3825.7894L14088.1053,-3825.7689L14088.1176,-3825.7456L14088.1239,-3825.7316L14088.1313,-3825.7159L14088.1452,-3825.6836L14088.1622,-3825.6578L14088.1682,-3825.6151L14088.1707,-3825.6064L14088.1725,-3825.5983L14088.175,-3825.5836L14088.1756,-3825.5756L14088.1762,-3825.5634L14088.1753,-3825.5469L14088.1732,-3825.5359L14088.1563,-3825.4484L14088.1529,-3825.4395"/>
<path content="2,仙台市,605,8.5,3.5,3.5," xlink:title="2" d="M14087.9978,-3825.9615L14087.9978,-3825.9615L14087.9978,-3825.9615L14087.982,-3825.9888"/>
<path content="2,仙台市,605,8.5,3.5,3.5," xlink:title="2" d="M14088.0445,-3825.978L14087.9979,-3825.9616L14087.9979,-3825.9616L14087.9979,-3825.9616L14087.9979,-3825.9616L14087.9979,-3825.9616L14087.9979,-3825.9616L14087.9979,-3825.9616L14087.9978,-3825.9616L14087.9978,-3825.9615"/>
<path content="2,仙台市,609,35.0,23.0,22.0," xlink:title="2" d="M14088.1529,-3825.4395L14088.1563,-3825.4484L14088.1732,-3825.5359L14088.1753,-3825.5469L14088.1762,-3825.5634L14088.1756,-3825.5756L14088.175,-3825.5836L14088.1725,-3825.5983L14088.1707,-3825.6064L14088.1682,-3825.6151L14088.1622,-3825.6578L14088.1452,-3825.6836L14088.1313,-3825.7159L14088.1239,-3825.7316L14088.1176,-3825.7456L14088.1053,-3825.7689L14088.0949,-3825.7894L14088.0608,-3825.85L14088.0369,-3825.8915L14088.0203,-3825.9218L14087.9978,-3825.9615L14087.9978,-3825.9615L14087.9978,-3825.9615L14087.982,-3825.9888"/>
<path content="2,仙台市,610　～野草園,16.0,14.0,15.0," xlink:title="2" d="M14087.9978,-3825.9615L14088.0203,-3825.9218L14088.0369,-3825.8915L14088.0608,-3825.85L14088.0949,-3825.7894L14088.1053,-3825.7689L14088.1176,-3825.7456L14088.1239,-3825.7316L14088.1313,-3825.7159L14088.1452,-3825.6836L14088.1622,-3825.6578L14088.1682,-3825.6151L14088.1707,-3825.6064L14088.1725,-3825.5983L14088.175,-3825.5836L14088.1756,-3825.5756L14088.1762,-3825.5634L14088.1753,-3825.5469L14088.1732,-3825.5359L14088.1563,-3825.4484L14088.1529,-3825.4395"/>
<path content="2,仙台市,610　～野草園,16.0,14.0,15.0," xlink:title="2" d="M14087.9978,-3825.9615L14087.9978,-3825.9615L14087.9978,-3825.9615L14087.982,-3825.9888"/>
<path content="2,仙台市,610　～野草園,16.0,14.0,15.0," xlink:title="2" d="M14088.0445,-3825.978L14087.9979,-3825.9616L14087.9979,-3825.9616L14087.9979,-3825.9616L14087.9979,-3825.9616L14087.9979,-3825.9616L14087.9979,-3825.9616L14087.9979,-3825.9616L14087.9978,-3825.9616L14087.9978,-3825.9615"/>
<path content="2,仙台市,610　～長町営業所,8.5,3.0,0.0," xlink:title="2" d="M14087.9978,-3825.9615L14088.0203,-3825.9218L14088.0369,-3825.8915L14088.0608,-3825.85L14088.0949,-3825.7894L14088.1053,-3825.7689L14088.1176,-3825.7456L14088.1239,-3825.7316L14088.1313,-3825.7159L14088.1452,-3825.6836L14088.1622,-3825.6578L14088.1682,-3825.6151L14088.1707,-3825.6064L14088.1725,-3825.5983L14088.175,-3825.5836L14088.1756,-3825.5756L14088.1762,-3825.5634L14088.1753,-3825.5469L14088.1732,-3825.5359L14088.1563,-3825.4484L14088.1529,-3825.4395"/>
<path content="2,仙台市,610　～長町営業所,8.5,3.0,0.0," xlink:title="2" d="M14087.9978,-3825.9615L14087.9978,-3825.9615L14087.9978,-3825.9615L14087.982,-3825.9888"/>
<path content="2,仙台市,610　～長町営業所,8.5,3.0,0.0," xlink:title="2" d="M14088.0445,-3825.978L14087.9979,-3825.9616L14087.9979,-3825.9616L14087.9979,-3825.9616L14087.9979,-3825.9616L14087.9979,-3825.9616L14087.9979,-3825.9616L14087.9979,-3825.9616L14087.9978,-3825.9616L14087.9978,-3825.9615"/>
<path content="2,仙台市,620,9.5,9.0,6.5," xlink:title="2" d="M14088.1529,-3825.4395L14088.1563,-3825.4484L14088.1732,-3825.5359L14088.1753,-3825.5469L14088.1762,-3825.5634L14088.1756,-3825.5756L14088.175,-3825.5836L14088.1725,-3825.5983L14088.1707,-3825.6064L14088.1682,-3825.6151L14088.1622,-3825.6578L14088.1452,-3825.6836L14088.1313,-3825.7159L14088.1239,-3825.7316L14088.1176,-3825.7456L14088.1053,-3825.7689L14088.0949,-3825.7894L14088.0608,-3825.85L14088.0369,-3825.8915L14088.0203,-3825.9218L14087.9978,-3825.9615L14087.9978,-3825.9615L14087.9978,-3825.9615L14087.982,-3825.9888"/>
<path content="2,仙台市,628,7.5,0.0,0.0," xlink:title="2" d="M14088.1529,-3825.4395L14088.1563,-3825.4484L14088.1732,-3825.5359L14088.1753,-3825.5469L14088.1762,-3825.5634L14088.1756,-3825.5756L14088.175,-3825.5836L14088.1725,-3825.5983L14088.1707,-3825.6064L14088.1682,-3825.6151L14088.1622,-3825.6578L14088.1452,-3825.6836L14088.1313,-3825.7159L14088.1239,-3825.7316L14088.1176,-3825.7456L14088.1053,-3825.7689L14088.0949,-3825.7894L14088.0608,-3825.85L14088.0369,-3825.8915L14088.0203,-3825.9218L14087.9978,-3825.9615L14087.9978,-3825.9615L14087.9978,-3825.9615L14087.982,-3825.9888"/>
<path content="2,仙台市,700,49.0,42.5,39.5," xlink:title="2" d="M14088.0445,-3825.978L14088.0701,-3825.9811L14088.0857,-3825.9853L14088.0961,-3825.9888"/>
<path content="2,仙台市,705,41.0,36.5,35.5," xlink:title="2" d="M14087.982,-3825.9888L14087.9978,-3825.9615L14087.9978,-3825.9615L14087.9978,-3825.9615L14087.9978,-3825.9616L14087.9979,-3825.9616L14087.9979,-3825.9616L14087.9979,-3825.9616L14087.9979,-3825.9616L14087.9979,-3825.9616L14087.9979,-3825.9616L14087.9979,-3825.9616L14088.0445,-3825.978"/>
<path content="2,仙台市,707,7.5,9.0,7.5," xlink:title="2" d="M14087.982,-3825.9888L14087.9978,-3825.9615L14087.9978,-3825.9615L14087.9978,-3825.9615L14087.9978,-3825.9616L14087.9979,-3825.9616L14087.9979,-3825.9616L14087.9979,-3825.9616L14087.9979,-3825.9616L14087.9979,-3825.9616L14087.9979,-3825.9616L14087.9979,-3825.9616L14088.0445,-3825.978"/>
<path content="2,仙台市,719,31.0,14.0,14.0," xlink:title="2" d="M14088.1529,-3825.4395L14088.1563,-3825.4484L14088.1732,-3825.5359L14088.1753,-3825.5469L14088.1762,-3825.5634L14088.1756,-3825.5756L14088.175,-3825.5836L14088.1725,-3825.5983L14088.1707,-3825.6064L14088.1682,-3825.6151L14088.1622,-3825.6578L14088.1452,-3825.6836L14088.1313,-3825.7159L14088.1239,-3825.7316L14088.1176,-3825.7456L14088.1053,-3825.7689L14088.0949,-3825.7894L14088.0608,-3825.85L14088.0369,-3825.8915L14088.0203,-3825.9218L14087.9978,-3825.9615L14087.9978,-3825.9615L14087.9978,-3825.9615L14087.982,-3825.9888"/>
<path content="2,仙台市,820,17.0,9.5,9.0," xlink:title="2" d="M14088.0961,-3825.9888L14088.0857,-3825.9853L14088.0701,-3825.9811L14088.0445,-3825.978L14087.9979,-3825.9616L14087.9979,-3825.9616L14087.9979,-3825.9616L14087.9979,-3825.9616L14087.9979,-3825.9616L14087.9979,-3825.9616L14087.9979,-3825.9616L14087.9978,-3825.9616L14087.9978,-3825.9615L14087.9967,-3825.9614L14087.9746,-3825.9588L14087.948,-3825.9518L14087.8748,-3825.9326L14087.8361,-3825.9183L14087.7686,-3825.9031"/>
</g>
</svg>
