<?xml version="1.0" encoding="UTF-8"?>
<svg  xmlns="http://www.w3.org/2000/svg" xmlns:xlink="http://www.w3.org/1999/xlink" xmlns:go="http://purl.org/svgmap/profile" property="N07_001,N07_002,N07_003,N07_004,N07_005,N07_006,N07_007" viewBox="13891.11328125 -3511.23046875 4.39453125 4.39453125" go:dataArea="13891.11328125 -3511.23046875 4.39453125 4.39453125" >
<metadata>
 <rdf:RDF xmlns:rdf="http://www.w3.org/1999/02/22-rdf-syntax-ns#" xmlns:crs="http://opengis.org/xmldtds/transformations.dtd" xmlns:svg="http://www.w3.org/svg" >
  <rdf:Description>
   <crs:CoordinateReferenceSystem rdf:resource="http://purl.org/crs/84" svg:transform="matrix(100.0,0.0,0.0,-100.0,0.0,0.0)" />
  </rdf:Description>
 </rdf:RDF>
</metadata>
<globalCoordinateSystem srsName="http://purl.org/crs/84" transform="matrix(100.0,0.0,0.0,-100.0,0.0,0.0)" />
<defs>
 <g id="p0" >
  <circle cx="0.0" cy="0.0" r="3" stroke="green" stroke-width="0.75" vector-effect="non-scaling-stroke" />
 </g>
</defs>
<g fill="none" fill-rule="evenodd" stroke="#FF00FF" stroke-width="0.75" opacity="0.5" vector-effect="non-scaling-stroke" stroke-linejoin="bevel" >
<path content="1,伊豆箱根バス（株）,三島駅～新旧道・バイパス～沼津駅（BP経由）,20.0,20.0,19.0," xlink:title="1" d="M13891.1133,-3510.882L13891.1728,-3510.8984L13891.4393,-3510.9853L13891.5237,-3511.0119L13891.5933,-3511.0337L13891.6691,-3511.0588L13891.7348,-3511.078L13891.7457,-3511.2254L13891.7468,-3511.2305"/>
<path content="1,伊豆箱根バス（株）,函南駅～大場駅（錦が丘方面）,15.0,14.0,14.0," xlink:title="1" d="M13894.6879,-3510.9974L13894.701,-3510.9934L13894.7092,-3510.9895L13894.7154,-3510.9827L13894.7188,-3510.976L13894.7181,-3510.9596L13894.703,-3510.9416L13894.6617,-3510.9005L13894.6434,-3510.8892L13894.6194,-3510.8796L13894.6078,-3510.8712L13894.6029,-3510.8627L13894.6029,-3510.8458L13894.6076,-3510.8315L13894.6679,-3510.8386L13894.7188,-3510.8392L13894.7616,-3510.8406L13894.7742,-3510.8442L13894.8077,-3510.8634L13894.8257,-3510.8677L13894.8751,-3510.8732L13894.8868,-3510.8799L13894.9716,-3510.9938L13895.0042,-3511.0378L13895.092,-3511.1292L13895.1333,-3511.1288L13895.1642,-3511.121L13895.213,-3511.1007L13895.2249,-3511.0916L13895.2808,-3511.1546L13895.3308,-3511.2098L13895.3404,-3511.2047L13895.3527,-3511.1985L13895.3883,-3511.1788L13895.3541,-3511.136L13895.2794,-3511.0397L13895.2595,-3511.0104L13895.2252,-3510.9618L13895.1423,-3510.7636L13895.0997,-3510.7062L13895.0238,-3510.6109L13894.9873,-3510.5785L13894.9134,-3510.5202L13894.8696,-3510.4892L13894.8264,-3510.4414L13894.812,-3510.4301L13894.8065,-3510.4278L13894.7969,-3510.4261L13894.7777,-3510.4205L13894.7572,-3510.4092L13894.6814,-3510.344L13894.651,-3510.3129L13894.6249,-3510.2808L13894.6105,-3510.2615L13894.6024,-3510.2445L13894.554,-3509.8471L13894.5529,-3509.8104L13894.5536,-3509.7975L13894.5927,-3509.7198L13894.6145,-3509.676L13894.627,-3509.6511L13894.6783,-3509.5443L13894.6976,-3509.5125L13894.7385,-3509.5175L13894.8613,-3509.5484L13894.982,-3509.5757L13895.1295,-3509.6441L13895.1869,-3509.6684L13895.2439,-3509.7006L13895.3421,-3509.7467L13895.3654,-3509.7602L13895.3793,-3509.7728L13895.3923,-3509.7881L13895.404,-3509.8062L13895.4417,-3509.8295L13895.5078,-3509.8696"/>
<path content="1,伊豆箱根バス（株）,函南駅～大場駅（錦が丘方面）,15.0,14.0,14.0," xlink:title="1" d="M13894.6879,-3510.9974L13894.6907,-3511.0081L13894.6948,-3511.0188L13894.7276,-3511.1358L13894.7434,-3511.1771L13894.7601,-3511.2305M13894.54,-3511.2305L13894.534,-3511.2211L13894.5207,-3511.1989L13894.5228,-3511.1979L13894.5502,-3511.1856L13894.5673,-3511.1765L13894.5755,-3511.1675L13894.5776,-3511.1613L13894.5796,-3511.1131L13894.5838,-3511.0526L13894.5865,-3511.0402L13894.5913,-3511.0317L13894.5988,-3511.025L13894.6174,-3511.0148L13894.6406,-3511.0081L13894.6879,-3510.9974"/>
<path content="1,伊豆箱根バス（株）,大場駅～中郷循環,9.0,9.0,0.0," xlink:title="1" d="M13892.4592,-3509.1541L13892.4129,-3509.13L13892.3839,-3509.1858L13892.3592,-3509.2371L13892.3406,-3509.2754"/>
<path content="1,伊豆箱根バス（株）,大場駅～中郷循環,9.0,9.0,0.0," xlink:title="1" d="M13892.3406,-3509.2754L13892.1633,-3509.2107L13891.8603,-3509.1087L13891.7158,-3509.0631L13891.5396,-3509.0184L13891.4505,-3508.9892L13891.4827,-3508.9289L13891.4909,-3508.9137L13891.5019,-3508.8895L13891.5334,-3508.8275L13891.5463,-3508.8009L13891.5648,-3508.7693L13891.6026,-3508.698L13891.6386,-3508.6267L13891.6533,-3508.594L13891.7386,-3508.4518L13891.9781,-3508.5194L13892.1646,-3508.5828L13892.614,-3508.7319L13892.8791,-3508.8206L13892.9705,-3508.8512L13892.6992,-3509.3958"/>
<path content="1,伊豆箱根バス（株）,大場駅～中郷循環,9.0,9.0,0.0," xlink:title="1" d="M13892.6992,-3509.3958L13892.5682,-3509.3523L13892.3406,-3509.2754"/>
<path content="1,伊豆箱根バス（株）,大場駅～中郷循環,9.0,9.0,0.0," xlink:title="1" d="M13892.6992,-3509.3958L13892.9629,-3509.4837L13893.1893,-3509.5917L13893.3098,-3509.628"/>
<path content="1,伊豆箱根バス（株）,大場駅～中郷循環,9.0,9.0,0.0," xlink:title="1" d="M13893.3098,-3509.628L13893.294,-3509.6714L13893.2782,-3509.7294L13893.2135,-3509.9634L13893.1487,-3510.1806L13893.2063,-3510.2044L13893.2728,-3510.2275L13893.3467,-3510.2442L13893.3862,-3510.253L13893.4408,-3510.2575L13893.5088,-3510.2568L13893.516,-3510.2493L13893.5201,-3510.242L13893.5531,-3510.1213L13893.5784,-3510.0673L13893.5839,-3510.024L13893.5955,-3509.9575L13893.6003,-3509.9496L13893.6092,-3509.9417L13893.632,-3509.9177L13893.6456,-3509.9034L13893.6565,-3509.8905L13893.6634,-3509.8786L13893.6681,-3509.8638L13893.6771,-3509.8251L13893.6805,-3509.8201L13893.6846,-3509.8161L13893.6853,-3509.815L13893.686,-3509.8127L13893.6908,-3509.8054L13893.7086,-3509.7716L13893.7264,-3509.7254L13893.7415,-3509.6843L13893.7518,-3509.6618L13893.7621,-3509.6443L13893.8379,-3509.5961L13893.8471,-3509.5885L13893.856,-3509.5801L13893.8591,-3509.5721L13893.8676,-3509.5313L13893.8688,-3509.5234L13893.8711,-3509.5102L13893.8759,-3509.486L13893.8806,-3509.4579L13893.8813,-3509.4545L13893.8854,-3509.4257L13893.8868,-3509.4224L13893.8909,-3509.388L13893.8998,-3509.3397L13893.9111,-3509.2511L13893.924,-3509.207L13893.926,-3509.2006L13893.9136,-3509.1971L13893.8124,-3509.1669L13893.7751,-3509.1604L13893.7251,-3509.1745L13893.7244,-3509.1756L13893.6984,-3509.1818L13893.662,-3509.1931L13893.6408,-3509.1993L13893.6099,-3509.2089L13893.5976,-3509.2139L13893.5887,-3509.2162L13893.5209,-3509.2444L13893.51,-3509.2475L13893.5046,-3509.2495L13893.459,-3509.2784L13893.45,-3509.2842L13893.4368,-3509.299L13893.4259,-3509.3176L13893.4035,-3509.3791L13893.3239,-3509.5928L13893.3118,-3509.6223L13893.3098,-3509.628"/>
<path content="1,伊豆箱根バス（株）,大場駅～函南駅（八ッ溝経由）,14.0,13.0,12.0," xlink:title="1" d="M13893.924,-3509.207L13893.926,-3509.2006L13893.9314,-3509.1535L13893.9321,-3509.1126L13893.9793,-3509.1024L13894.0547,-3509.0877L13894.0858,-3509.0818L13894.1315,-3509.0726L13894.1491,-3509.0689L13894.1781,-3509.0635L13894.1938,-3509.0596L13894.2199,-3509.0551L13894.2487,-3509.0494L13894.2754,-3509.0444L13894.2852,-3509.0419L13894.2953,-3509.0393L13894.3193,-3509.0303L13894.3487,-3509.0157L13894.3823,-3508.9959L13894.4701,-3508.9441L13894.4908,-3508.9341L13894.5173,-3508.9216L13894.5365,-3508.9148L13894.5639,-3508.9086L13894.579,-3508.9069L13894.5852,-3508.9813L13894.5877,-3509.0083L13894.5899,-3509.015L13894.5934,-3509.0207L13894.6078,-3509.0371L13894.653,-3509.0951L13894.6791,-3509.1227L13894.7154,-3509.1576L13894.7424,-3509.1844L13894.7586,-3509.201L13894.8428,-3509.2832L13894.8502,-3509.2904L13894.9447,-3509.3826L13894.9923,-3509.4286L13895.0347,-3509.4725L13895.0389,-3509.4771L13895.0498,-3509.4866L13895.1081,-3509.5446L13895.1252,-3509.5609L13895.1478,-3509.5812L13895.2424,-3509.664L13895.2431,-3509.6714L13895.2396,-3509.6837L13895.2369,-3509.6922L13895.2355,-3509.6959"/>
<path content="1,伊豆箱根バス（株）,大場駅～函南駅（八ッ溝経由）,14.0,13.0,12.0," xlink:title="1" d="M13895.2355,-3509.6959L13895.1869,-3509.6684"/>
<path content="1,伊豆箱根バス（株）,大場駅～函南駅（八ッ溝経由）,14.0,13.0,12.0," xlink:title="1" d="M13895.2355,-3509.6959L13895.2439,-3509.7006L13895.3421,-3509.7467L13895.3654,-3509.7602L13895.3793,-3509.7728L13895.3923,-3509.7881L13895.404,-3509.8062L13895.4417,-3509.8295L13895.5078,-3509.8696"/>
<path content="1,伊豆箱根バス（株）,大場駅～函南駅（赤王口経由）,1.0,1.0,1.0," xlink:title="1" d="M13894.4908,-3508.9341L13894.4701,-3508.9441L13894.3823,-3508.9959L13894.3487,-3509.0157L13894.3193,-3509.0303L13894.2953,-3509.0393L13894.2852,-3509.0419L13894.2754,-3509.0444L13894.2487,-3509.0494L13894.2199,-3509.0551L13894.1938,-3509.0596L13894.1781,-3509.0635L13894.1491,-3509.0689L13894.1315,-3509.0726L13894.0858,-3509.0818L13894.0547,-3509.0877L13893.9793,-3509.1024L13893.9321,-3509.1126L13893.9314,-3509.1535L13893.926,-3509.2006L13893.924,-3509.207L13893.9111,-3509.2511L13893.8998,-3509.3397L13894.0399,-3509.3785L13894.0842,-3509.3874L13894.2474,-3509.4275L13894.3844,-3509.4557L13894.4622,-3509.4657L13894.5942,-3509.494L13894.6976,-3509.5125"/>
<path content="1,伊豆箱根バス（株）,大場駅～函南駅（赤王口経由）,1.0,1.0,1.0," xlink:title="1" d="M13894.6976,-3509.5125L13894.7385,-3509.5175L13894.8613,-3509.5484L13894.982,-3509.5757L13895.1295,-3509.6441L13895.1869,-3509.6684L13895.2439,-3509.7006L13895.3421,-3509.7467L13895.3654,-3509.7602L13895.3793,-3509.7728L13895.3923,-3509.7881L13895.404,-3509.8062L13895.4417,-3509.8295L13895.5078,-3509.8696"/>
<path content="1,伊豆箱根バス（株）,大場駅～函南駅（赤王口経由）,1.0,1.0,1.0," xlink:title="1" d="M13894.6783,-3509.5443L13894.6976,-3509.5125"/>
<path content="1,伊豆箱根バス（株）,大場駅～錦が丘（八ッ溝経由）,14.0,14.0,11.0," xlink:title="1" d="M13894.6879,-3510.9974L13894.701,-3510.9934L13894.7092,-3510.9895L13894.7154,-3510.9827L13894.7188,-3510.976L13894.7181,-3510.9596L13894.703,-3510.9416L13894.6617,-3510.9005L13894.6434,-3510.8892L13894.6194,-3510.8796L13894.6078,-3510.8712L13894.6029,-3510.8627L13894.6029,-3510.8458L13894.6076,-3510.8315L13894.6679,-3510.8386L13894.7188,-3510.8392L13894.7616,-3510.8406L13894.7742,-3510.8442L13894.8077,-3510.8634L13894.8257,-3510.8677L13894.8751,-3510.8732L13894.8868,-3510.8799L13894.9716,-3510.9938L13895.0042,-3511.0378L13895.092,-3511.1292L13895.1333,-3511.1288L13895.1642,-3511.121L13895.213,-3511.1007L13895.2249,-3511.0916L13895.2808,-3511.1546L13895.3308,-3511.2098L13895.3404,-3511.2047L13895.3527,-3511.1985L13895.3883,-3511.1788L13895.3541,-3511.136L13895.2794,-3511.0397L13895.2595,-3511.0104L13895.2252,-3510.9618L13895.1423,-3510.7636L13895.0997,-3510.7062L13895.0238,-3510.6109L13894.9873,-3510.5785L13894.9134,-3510.5202L13894.8696,-3510.4892L13894.8264,-3510.4414L13894.812,-3510.4301L13894.8065,-3510.4278L13894.7969,-3510.4261L13894.7777,-3510.4205L13894.7572,-3510.4092L13894.6814,-3510.344L13894.651,-3510.3129L13894.6249,-3510.2808L13894.6105,-3510.2615L13894.6024,-3510.2445L13894.554,-3509.8471L13894.5529,-3509.8104L13894.5536,-3509.7975L13894.5927,-3509.7198L13894.6145,-3509.676L13894.627,-3509.6511L13894.6783,-3509.5443L13894.6976,-3509.5125L13894.7385,-3509.5175L13894.8613,-3509.5484L13894.982,-3509.5757L13895.1295,-3509.6441L13895.1869,-3509.6684L13895.2355,-3509.6959L13895.2369,-3509.6922L13895.2396,-3509.6837L13895.2431,-3509.6714L13895.2424,-3509.664L13895.1478,-3509.5812L13895.1252,-3509.5609L13895.1081,-3509.5446L13895.0498,-3509.4866L13895.0389,-3509.4771L13895.0347,-3509.4725L13894.9923,-3509.4286L13894.9447,-3509.3826L13894.8502,-3509.2904L13894.8428,-3509.2832L13894.7586,-3509.201L13894.7424,-3509.1844L13894.7154,-3509.1576L13894.6791,-3509.1227L13894.653,-3509.0951L13894.6078,-3509.0371L13894.5934,-3509.0207L13894.5899,-3509.015L13894.5877,-3509.0083L13894.5852,-3508.9813L13894.579,-3508.9069L13894.5639,-3508.9086L13894.5365,-3508.9148L13894.5173,-3508.9216L13894.4908,-3508.9341L13894.4701,-3508.9441L13894.3823,-3508.9959L13894.3487,-3509.0157L13894.3193,-3509.0303L13894.2953,-3509.0393L13894.2852,-3509.0419L13894.2754,-3509.0444L13894.2487,-3509.0494L13894.2199,-3509.0551L13894.1938,-3509.0596L13894.1781,-3509.0635L13894.1491,-3509.0689L13894.1315,-3509.0726L13894.0858,-3509.0818L13894.0547,-3509.0877L13893.9793,-3509.1024L13893.9321,-3509.1126L13893.9314,-3509.1535L13893.926,-3509.2006L13893.924,-3509.207"/>
<path content="1,伊豆箱根バス（株）,大場駅～錦が丘（八ッ溝経由）,14.0,14.0,11.0," xlink:title="1" d="M13894.6879,-3510.9974L13894.6907,-3511.0081L13894.6948,-3511.0188L13894.7276,-3511.1358L13894.7434,-3511.1771L13894.7601,-3511.2305M13894.54,-3511.2305L13894.534,-3511.2211L13894.5207,-3511.1989L13894.5228,-3511.1979L13894.5502,-3511.1856L13894.5673,-3511.1765L13894.5755,-3511.1675L13894.5776,-3511.1613L13894.5796,-3511.1131L13894.5838,-3511.0526L13894.5865,-3511.0402L13894.5913,-3511.0317L13894.5988,-3511.025L13894.6174,-3511.0148L13894.6406,-3511.0081L13894.6879,-3510.9974"/>
<path content="1,伊豆箱根バス（株）,大場駅～錦が丘（赤王口経由）,16.0,16.0,14.0," xlink:title="1" d="M13894.6879,-3510.9974L13894.701,-3510.9934L13894.7092,-3510.9895L13894.7154,-3510.9827L13894.7188,-3510.976L13894.7181,-3510.9596L13894.703,-3510.9416L13894.6617,-3510.9005L13894.6434,-3510.8892L13894.6194,-3510.8796L13894.6078,-3510.8712L13894.6029,-3510.8627L13894.6029,-3510.8458L13894.6076,-3510.8315L13894.6679,-3510.8386L13894.7188,-3510.8392L13894.7616,-3510.8406L13894.7742,-3510.8442L13894.8077,-3510.8634L13894.8257,-3510.8677L13894.8751,-3510.8732L13894.8868,-3510.8799L13894.9716,-3510.9938L13895.0042,-3511.0378L13895.092,-3511.1292L13895.1333,-3511.1288L13895.1642,-3511.121L13895.213,-3511.1007L13895.2249,-3511.0916L13895.2808,-3511.1546L13895.3308,-3511.2098L13895.3404,-3511.2047L13895.3527,-3511.1985L13895.3883,-3511.1788L13895.3541,-3511.136L13895.2794,-3511.0397L13895.2595,-3511.0104L13895.2252,-3510.9618L13895.1423,-3510.7636L13895.0997,-3510.7062L13895.0238,-3510.6109L13894.9873,-3510.5785L13894.9134,-3510.5202L13894.8696,-3510.4892L13894.8264,-3510.4414L13894.812,-3510.4301L13894.8065,-3510.4278L13894.7969,-3510.4261L13894.7777,-3510.4205L13894.7572,-3510.4092L13894.6814,-3510.344L13894.651,-3510.3129L13894.6249,-3510.2808L13894.6105,-3510.2615L13894.6024,-3510.2445L13894.554,-3509.8471L13894.5529,-3509.8104L13894.5536,-3509.7975L13894.5927,-3509.7198L13894.6145,-3509.676L13894.627,-3509.6511L13894.6783,-3509.5443L13894.6976,-3509.5125L13894.5942,-3509.494L13894.4622,-3509.4657L13894.3844,-3509.4557L13894.2474,-3509.4275L13894.0842,-3509.3874L13894.0399,-3509.3785L13893.8998,-3509.3397L13893.9111,-3509.2511L13893.924,-3509.207"/>
<path content="1,伊豆箱根バス（株）,大場駅～錦が丘（赤王口経由）,16.0,16.0,14.0," xlink:title="1" d="M13894.6879,-3510.9974L13894.6907,-3511.0081L13894.6948,-3511.0188L13894.7276,-3511.1358L13894.7434,-3511.1771L13894.7601,-3511.2305M13894.54,-3511.2305L13894.534,-3511.2211L13894.5207,-3511.1989L13894.5228,-3511.1979L13894.5502,-3511.1856L13894.5673,-3511.1765L13894.5755,-3511.1675L13894.5776,-3511.1613L13894.5796,-3511.1131L13894.5838,-3511.0526L13894.5865,-3511.0402L13894.5913,-3511.0317L13894.5988,-3511.025L13894.6174,-3511.0148L13894.6406,-3511.0081L13894.6879,-3510.9974"/>
<path content="1,伊豆箱根バス（株）,大場～畑毛温泉（畑毛温泉方面）,13.0,13.0,12.0," xlink:title="1" d="M13895.2469,-3508.8911L13895.2661,-3508.878L13895.2931,-3508.8669L13895.3419,-3508.8518L13895.3932,-3508.8382L13895.4418,-3508.8298L13895.4491,-3508.8285L13895.4788,-3508.827L13895.5062,-3508.823L13895.5078,-3508.8227"/>
<path content="1,伊豆箱根バス（株）,大場～畑毛温泉（畑毛温泉方面）,13.0,13.0,12.0," xlink:title="1" d="M13895.2469,-3508.8911L13895.2623,-3508.8979L13895.2849,-3508.9114L13895.2954,-3508.9187"/>
<path content="1,伊豆箱根バス（株）,大場～畑毛温泉（畑毛温泉方面）,13.0,13.0,12.0," xlink:title="1" d="M13895.2469,-3508.8911L13895.228,-3508.8974L13895.2204,-3508.8996L13895.1519,-3508.9024L13895.0923,-3508.9036L13895.0491,-3508.9024L13894.9998,-3508.8962L13894.9641,-3508.8901L13894.9546,-3508.8884L13894.9162,-3508.8793L13894.8785,-3508.8709L13894.86,-3508.8675L13894.836,-3508.8681L13894.8072,-3508.8731L13894.784,-3508.8789L13894.7387,-3508.8839L13894.7085,-3508.8884L13894.7031,-3508.8889L13894.6331,-3508.8996L13894.6201,-3508.9019L13894.603,-3508.9036L13894.579,-3508.9069L13894.5639,-3508.9086L13894.5365,-3508.9148L13894.5173,-3508.9216L13894.4908,-3508.9341L13894.4701,-3508.9441L13894.3823,-3508.9959L13894.3487,-3509.0157L13894.3193,-3509.0303L13894.2953,-3509.0393L13894.2852,-3509.0419L13894.2754,-3509.0444L13894.2487,-3509.0494L13894.2199,-3509.0551L13894.1938,-3509.0596L13894.1781,-3509.0635L13894.1491,-3509.0689L13894.1315,-3509.0726L13894.0858,-3509.0818L13894.0547,-3509.0877L13893.9793,-3509.1024L13893.9321,-3509.1126L13893.9122,-3509.1187L13893.8567,-3509.1373L13893.8519,-3509.139L13893.7751,-3509.1604L13893.7251,-3509.1745L13893.7244,-3509.1756L13893.6984,-3509.1818L13893.662,-3509.1931L13893.6552,-3509.1661L13893.6552,-3509.1385L13893.6563,-3509.1291L13893.6566,-3509.1266L13893.6696,-3509.0849L13893.6723,-3509.0765L13893.6752,-3509.0675L13893.6867,-3509.0393L13893.7025,-3508.9937L13893.7107,-3508.9717L13893.7183,-3508.9481L13893.7237,-3508.9362L13893.7402,-3508.8867L13893.745,-3508.8697L13893.7511,-3508.8377L13893.7532,-3508.8168L13893.7565,-3508.7897L13893.7663,-3508.6801L13893.7671,-3508.6625L13893.77,-3508.6444L13893.7741,-3508.6208L13893.783,-3508.5814L13893.7901,-3508.5492L13893.7919,-3508.5397L13893.7957,-3508.5215L13893.8022,-3508.4867L13893.8396,-3508.4991L13893.9316,-3508.5228L13893.9651,-3508.5312L13894.016,-3508.5461L13894.033,-3508.5504L13894.0746,-3508.5609L13894.1767,-3508.5932L13894.2136,-3508.6045L13894.2657,-3508.6202L13894.283,-3508.6258L13894.2951,-3508.6292L13894.3259,-3508.6399L13894.367,-3508.6523L13894.3964,-3508.6625L13894.4409,-3508.6742L13894.4673,-3508.6788L13894.4837,-3508.6806L13894.5554,-3508.6876L13894.6153,-3508.694L13894.6654,-3508.6991L13894.6896,-3508.7012L13894.7172,-3508.7041L13894.7816,-3508.7116L13894.8113,-3508.7126L13894.8785,-3508.7267L13894.8936,-3508.7312L13894.899,-3508.7334L13894.9237,-3508.7419L13894.9429,-3508.7509L13894.9559,-3508.756L13894.9909,-3508.7723L13895.0005,-3508.7757L13895.0149,-3508.7825L13895.0197,-3508.7847L13895.0396,-3508.7932L13895.1841,-3508.8579L13895.2308,-3508.8816L13895.2469,-3508.8911"/>
<path content="1,伊豆箱根バス（株）,畑毛温泉～函南駅（大場駅前経由）,10.0,8.0,7.0," xlink:title="1" d="M13895.2469,-3508.8911L13895.2661,-3508.878L13895.2931,-3508.8669L13895.3419,-3508.8518L13895.3932,-3508.8382L13895.4418,-3508.8298L13895.4491,-3508.8285L13895.4788,-3508.827L13895.5062,-3508.823L13895.5078,-3508.8227"/>
<path content="1,伊豆箱根バス（株）,畑毛温泉～函南駅（大場駅前経由）,10.0,8.0,7.0," xlink:title="1" d="M13895.2469,-3508.8911L13895.228,-3508.8974L13895.2204,-3508.8996L13895.1519,-3508.9024L13895.0923,-3508.9036L13895.0491,-3508.9024L13894.9998,-3508.8962L13894.9641,-3508.8901L13894.9546,-3508.8884L13894.9162,-3508.8793L13894.8785,-3508.8709L13894.86,-3508.8675L13894.836,-3508.8681L13894.8072,-3508.8731L13894.784,-3508.8789L13894.7387,-3508.8839L13894.7085,-3508.8884L13894.7031,-3508.8889L13894.6331,-3508.8996L13894.6201,-3508.9019L13894.603,-3508.9036L13894.579,-3508.9069L13894.5639,-3508.9086L13894.5365,-3508.9148L13894.5173,-3508.9216L13894.4908,-3508.9341L13894.4701,-3508.9441L13894.3823,-3508.9959L13894.3487,-3509.0157L13894.3193,-3509.0303L13894.2953,-3509.0393L13894.2852,-3509.0419L13894.2754,-3509.0444L13894.2487,-3509.0494L13894.2199,-3509.0551L13894.1938,-3509.0596L13894.1781,-3509.0635L13894.1491,-3509.0689L13894.1315,-3509.0726L13894.0858,-3509.0818L13894.0547,-3509.0877L13893.9793,-3509.1024L13893.9321,-3509.1126L13893.9122,-3509.1187L13893.8567,-3509.1373L13893.8519,-3509.139L13893.7751,-3509.1604L13893.7251,-3509.1745L13893.7244,-3509.1756L13893.6984,-3509.1818L13893.662,-3509.1931L13893.6552,-3509.1661L13893.6552,-3509.1385L13893.6563,-3509.1291L13893.6566,-3509.1266L13893.6696,-3509.0849L13893.6723,-3509.0765L13893.6752,-3509.0675L13893.6867,-3509.0393L13893.7025,-3508.9937L13893.7107,-3508.9717L13893.7183,-3508.9481L13893.7237,-3508.9362L13893.7402,-3508.8867L13893.745,-3508.8697L13893.7511,-3508.8377L13893.7532,-3508.8168L13893.7565,-3508.7897L13893.7663,-3508.6801L13893.7671,-3508.6625L13893.77,-3508.6444L13893.7741,-3508.6208L13893.783,-3508.5814L13893.7901,-3508.5492L13893.7919,-3508.5397L13893.7957,-3508.5215L13893.8022,-3508.4867L13893.8396,-3508.4991L13893.9316,-3508.5228L13893.9651,-3508.5312L13894.016,-3508.5461L13894.033,-3508.5504L13894.0746,-3508.5609L13894.1767,-3508.5932L13894.2136,-3508.6045L13894.2657,-3508.6202L13894.283,-3508.6258L13894.2951,-3508.6292L13894.3259,-3508.6399L13894.367,-3508.6523L13894.3964,-3508.6625L13894.4409,-3508.6742L13894.4673,-3508.6788L13894.4837,-3508.6806L13894.5554,-3508.6876L13894.6153,-3508.694L13894.6654,-3508.6991L13894.6896,-3508.7012L13894.7172,-3508.7041L13894.7816,-3508.7116L13894.8113,-3508.7126L13894.8785,-3508.7267L13894.8936,-3508.7312L13894.899,-3508.7334L13894.9237,-3508.7419L13894.9429,-3508.7509L13894.9559,-3508.756L13894.9909,-3508.7723L13895.0005,-3508.7757L13895.0149,-3508.7825L13895.0197,-3508.7847L13895.0396,-3508.7932L13895.1841,-3508.8579L13895.2308,-3508.8816L13895.2469,-3508.8911"/>
<path content="1,伊豆箱根バス（株）,畑毛温泉～函南駅（大場駅前経由）,10.0,8.0,7.0," xlink:title="1" d="M13895.5078,-3509.1099L13895.4254,-3509.0331L13895.3616,-3508.9723L13895.3274,-3508.9413L13895.2954,-3508.9187L13895.2849,-3508.9114L13895.2623,-3508.8979L13895.2469,-3508.8911"/>
<path content="1,伊豆箱根バス（株）,畑毛温泉～大場（大場駅方面）,12.0,12.0,11.0," xlink:title="1" d="M13895.2469,-3508.8911L13895.2661,-3508.878L13895.2931,-3508.8669L13895.3419,-3508.8518L13895.3932,-3508.8382L13895.4418,-3508.8298L13895.4491,-3508.8285L13895.4788,-3508.827L13895.5062,-3508.823L13895.5078,-3508.8227"/>
<path content="1,伊豆箱根バス（株）,畑毛温泉～大場（大場駅方面）,12.0,12.0,11.0," xlink:title="1" d="M13895.2469,-3508.8911L13895.2623,-3508.8979L13895.2849,-3508.9114L13895.2954,-3508.9187"/>
<path content="1,伊豆箱根バス（株）,畑毛温泉～大場（大場駅方面）,12.0,12.0,11.0," xlink:title="1" d="M13895.2469,-3508.8911L13895.228,-3508.8974L13895.2204,-3508.8996L13895.1519,-3508.9024L13895.0923,-3508.9036L13895.0491,-3508.9024L13894.9998,-3508.8962L13894.9641,-3508.8901L13894.9546,-3508.8884L13894.9162,-3508.8793L13894.8785,-3508.8709L13894.86,-3508.8675L13894.836,-3508.8681L13894.8072,-3508.8731L13894.784,-3508.8789L13894.7387,-3508.8839L13894.7085,-3508.8884L13894.7031,-3508.8889L13894.6331,-3508.8996L13894.6201,-3508.9019L13894.603,-3508.9036L13894.579,-3508.9069L13894.5639,-3508.9086L13894.5365,-3508.9148L13894.5173,-3508.9216L13894.4908,-3508.9341L13894.4701,-3508.9441L13894.3823,-3508.9959L13894.3487,-3509.0157L13894.3193,-3509.0303L13894.2953,-3509.0393L13894.2852,-3509.0419L13894.2754,-3509.0444L13894.2487,-3509.0494L13894.2199,-3509.0551L13894.1938,-3509.0596L13894.1781,-3509.0635L13894.1491,-3509.0689L13894.1315,-3509.0726L13894.0858,-3509.0818L13894.0547,-3509.0877L13893.9793,-3509.1024L13893.9321,-3509.1126L13893.9122,-3509.1187L13893.8567,-3509.1373L13893.8519,-3509.139L13893.7751,-3509.1604L13893.7251,-3509.1745L13893.7244,-3509.1756L13893.6984,-3509.1818L13893.662,-3509.1931L13893.6552,-3509.1661L13893.6552,-3509.1385L13893.6563,-3509.1291L13893.6566,-3509.1266L13893.6696,-3509.0849L13893.6723,-3509.0765L13893.6752,-3509.0675L13893.6867,-3509.0393L13893.7025,-3508.9937L13893.7107,-3508.9717L13893.7183,-3508.9481L13893.7237,-3508.9362L13893.7402,-3508.8867L13893.745,-3508.8697L13893.7511,-3508.8377L13893.7532,-3508.8168L13893.7565,-3508.7897L13893.7663,-3508.6801L13893.7671,-3508.6625L13893.77,-3508.6444L13893.7741,-3508.6208L13893.783,-3508.5814L13893.7901,-3508.5492L13893.7919,-3508.5397L13893.7957,-3508.5215L13893.8022,-3508.4867L13893.8396,-3508.4991L13893.9316,-3508.5228L13893.9651,-3508.5312L13894.016,-3508.5461L13894.033,-3508.5504L13894.0746,-3508.5609L13894.1767,-3508.5932L13894.2136,-3508.6045L13894.2657,-3508.6202L13894.283,-3508.6258L13894.2951,-3508.6292L13894.3259,-3508.6399L13894.367,-3508.6523L13894.3964,-3508.6625L13894.4409,-3508.6742L13894.4673,-3508.6788L13894.4837,-3508.6806L13894.5554,-3508.6876L13894.6153,-3508.694L13894.6654,-3508.6991L13894.6896,-3508.7012L13894.7172,-3508.7041L13894.7816,-3508.7116L13894.8113,-3508.7126L13894.8785,-3508.7267L13894.8936,-3508.7312L13894.899,-3508.7334L13894.9237,-3508.7419L13894.9429,-3508.7509L13894.9559,-3508.756L13894.9909,-3508.7723L13895.0005,-3508.7757L13895.0149,-3508.7825L13895.0197,-3508.7847L13895.0396,-3508.7932L13895.1841,-3508.8579L13895.2308,-3508.8816L13895.2469,-3508.8911"/>
<path content="1,富士急シティバス（株）,みしまコロッケ号,1.5,1.5,1.5," xlink:title="1" d="M13891.1133,-3510.882L13891.1728,-3510.8984L13891.4393,-3510.9853L13891.4819,-3510.9991L13891.5238,-3511.0115L13891.5176,-3511.0374L13891.5039,-3511.0937L13891.4957,-3511.1292L13891.4929,-3511.136L13891.4922,-3511.1422L13891.4892,-3511.1648L13891.4854,-3511.2305"/>
<path content="1,富士急行（株）,みしまコロッケ号,1.5,1.5,1.5," xlink:title="1" d="M13891.1133,-3510.8835L13891.1728,-3510.8984L13891.1931,-3510.9078L13891.2273,-3510.9191L13891.2493,-3510.9264L13891.3459,-3510.9574L13891.3863,-3510.9698L13891.4028,-3510.9754L13891.4393,-3510.9853L13891.4569,-3510.9923L13891.4816,-3510.9991L13891.5234,-3511.0115L13891.5172,-3511.0374L13891.5035,-3511.0938L13891.4953,-3511.1292L13891.4926,-3511.136L13891.4919,-3511.1422L13891.4892,-3511.1648L13891.4829,-3511.1811L13891.4849,-3511.2305"/>
<path content="1,小田急箱根高速バス,三島エクスプレス,3.0,3.0,3.0," xlink:title="1" d="M13891.4853,-3511.2305L13891.4833,-3511.1811L13891.4892,-3511.1648L13891.4922,-3511.1422L13891.4929,-3511.136L13891.4957,-3511.1292L13891.5039,-3511.0938L13891.5176,-3511.0374L13891.5237,-3511.0115L13891.5306,-3510.9884L13891.5409,-3510.9535L13891.5471,-3510.9248L13891.5526,-3510.9124L13891.5567,-3510.8741L13891.5573,-3510.851L13891.5587,-3510.8431L13891.5631,-3510.8369L13891.5594,-3510.8273L13891.5654,-3510.7721L13891.5697,-3510.7321L13891.5717,-3510.7169L13891.5731,-3510.7079L13891.5738,-3510.6977L13891.5776,-3510.6581L13891.582,-3510.6121L13891.5854,-3510.5828L13891.5899,-3510.5604L13891.593,-3510.5434L13891.5951,-3510.5282L13891.6012,-3510.4375L13891.604,-3510.4206L13891.5999,-3510.3851L13891.58,-3510.3175L13891.5533,-3510.2245L13891.5491,-3510.2138L13891.5484,-3510.2082L13891.545,-3510.1913L13891.5352,-3510.158L13891.5286,-3510.1355L13891.5236,-3510.085L13891.5115,-3510.0629L13891.5094,-3510.0555L13891.5087,-3510.0319L13891.5087,-3510.0296L13891.5122,-3510.011L13891.519,-3509.9784L13891.5218,-3509.9614L13891.5418,-3509.8672L13891.5437,-3509.8584L13891.5499,-3509.8364L13891.5567,-3509.8083L13891.5656,-3509.7699L13891.5691,-3509.7593L13891.5847,-3509.6945L13891.5869,-3509.6877L13891.5856,-3509.6789L13891.5917,-3509.6652L13891.5951,-3509.6516L13891.6067,-3509.6021L13891.6163,-3509.5677L13891.6301,-3509.5153L13891.6342,-3509.4939L13891.635,-3509.4739L13891.6335,-3509.4406L13891.628,-3509.401L13891.6294,-3509.3942L13891.6321,-3509.3796L13891.6383,-3509.3615L13891.6472,-3509.3215L13891.652,-3509.3024L13891.6622,-3509.2709L13891.665,-3509.2652L13891.6705,-3509.2517L13891.6869,-3509.1959L13891.6979,-3509.1526L13891.7107,-3509.1106L13891.7219,-3509.0697L13891.7603,-3508.9774L13891.7651,-3508.9655L13891.7704,-3508.9548L13891.7928,-3508.904L13891.8021,-3508.8828L13891.8088,-3508.8677L13891.8363,-3508.8073L13891.8473,-3508.7859L13891.8898,-3508.6951L13891.8987,-3508.6743L13891.9044,-3508.6625L13891.9516,-3508.5701L13891.9564,-3508.5628L13891.9661,-3508.5529L13891.9741,-3508.525L13891.9817,-3508.5143L13891.9913,-3508.498L13892.0009,-3508.4721L13892.005,-3508.4518L13892.0076,-3508.3877L13892.0097,-3508.3668L13892.0111,-3508.3589L13892.0118,-3508.3427L13892.0508,-3508.2361L13892.0707,-3508.1713L13892.0878,-3508.1245L13892.0974,-3508.0958L13892.1022,-3508.0823L13892.1056,-3508.0766L13892.1221,-3508.0327L13892.1431,-3507.9688L13892.1529,-3507.9415L13892.1631,-3507.9065L13892.1631,-3507.8941L13892.1659,-3507.8789L13892.1663,-3507.7781L13892.1693,-3507.7668L13892.1701,-3507.7517L13892.1693,-3507.715L13892.1638,-3507.7015L13892.1638,-3507.7009L13892.1542,-3507.6902L13892.1453,-3507.684L13892.1337,-3507.679L13892.1166,-3507.6728L13892.1125,-3507.6705L13892.1056,-3507.6694L13892.0912,-3507.6632L13892.0473,-3507.6492L13892.0043,-3507.6384L13891.9872,-3507.6384L13891.9618,-3507.6395L13891.9564,-3507.6401L13891.9294,-3507.6414L13891.9169,-3507.6275L13891.9144,-3507.6216L13891.9045,-3507.5572L13891.891,-3507.469L13891.8835,-3507.4204L13891.8667,-3507.3004L13891.8667,-3507.2914L13891.8667,-3507.2756L13891.8715,-3507.2537L13891.8309,-3507.2722L13891.8187,-3507.2773L13891.7736,-3507.3055L13891.7489,-3507.3241L13891.7311,-3507.341L13891.6766,-3507.3923L13891.5911,-3507.3804L13891.5408,-3507.3731L13891.5127,-3507.3697L13891.5059,-3507.3674L13891.5018,-3507.3669L13891.4794,-3507.3643L13891.4593,-3507.3613L13891.3508,-3507.3131L13891.3352,-3507.3063L13891.321,-3507.3055L13891.2978,-3507.3038L13891.2594,-3507.3021L13891.2204,-3507.301L13891.1587,-3507.2987L13891.1533,-3507.2976L13891.1368,-3507.2976L13891.1133,-3507.2963"/>
<path content="1,小田急箱根高速バス,伊豆・新宿ライナー,2.0,2.0,2.0," xlink:title="1" d="M13891.1133,-3510.8834L13891.1728,-3510.8984L13891.1934,-3510.9078L13891.2277,-3510.9191L13891.2496,-3510.9264L13891.3463,-3510.9574L13891.3867,-3510.9698L13891.4031,-3510.9754L13891.4393,-3510.9853L13891.4573,-3510.9923L13891.4819,-3510.9991L13891.5237,-3511.0115L13891.5932,-3511.0338L13891.6315,-3511.046L13891.6691,-3511.0588L13891.7122,-3511.0706L13891.7348,-3511.078L13891.7622,-3511.0864L13891.7705,-3511.0892L13891.7756,-3511.0909L13891.802,-3511.0994L13891.8259,-3511.1067L13891.9183,-3511.1399L13891.9656,-3511.1564L13891.993,-3511.1653L13891.9937,-3511.1514L13891.9942,-3511.1405L13891.9973,-3511.1191L13892.0042,-3511.0104L13892.0055,-3510.9873L13892.0055,-3510.9749L13892.0117,-3510.8763L13892.0158,-3510.7929L13892.0206,-3510.7591L13892.0247,-3510.7399L13892.0384,-3510.6746L13892.0469,-3510.649L13892.0528,-3510.6307L13892.0748,-3510.5884L13892.0858,-3510.5682L13892.1275,-3510.4866L13892.1399,-3510.4622L13892.1597,-3510.4251L13892.1769,-3510.393L13892.1796,-3510.3873L13892.2228,-3510.3045L13892.2733,-3510.2073L13892.277,-3510.2003L13892.3434,-3510.0741L13892.3667,-3510.0285L13892.418,-3509.9327L13892.4634,-3509.8476L13892.4709,-3509.8342L13892.5093,-3509.7615L13892.5588,-3509.6645L13892.5936,-3509.6021L13892.6052,-3509.5784L13892.6148,-3509.5615L13892.6526,-3509.4872L13892.6936,-3509.4077L13892.7005,-3509.3931L13892.7108,-3509.3745L13892.7462,-3509.3048L13892.793,-3509.2117L13892.8383,-3509.1199L13892.8866,-3509.0225L13892.889,-3509.0174L13892.9061,-3508.9824L13892.9292,-3508.9362L13892.9657,-3508.8625L13892.9705,-3508.8512L13893.0194,-3508.7551L13893.0673,-3508.6625L13893.0922,-3508.6152L13893.097,-3508.605L13893.1072,-3508.5853L13893.1572,-3508.4833L13893.1989,-3508.3979L13893.206,-3508.3833L13893.2191,-3508.3562L13893.2243,-3508.3477L13893.3017,-3508.209L13893.3188,-3508.1831L13893.3065,-3508.1741L13893.2004,-3508.133L13893.1162,-3508.1009L13893.0669,-3508.0823L13893.0134,-3508.0581L13892.9854,-3508.044L13892.9491,-3508.0237L13892.9149,-3508.0012L13892.9109,-3507.998L13892.8923,-3507.9832L13892.8628,-3507.9567L13892.8245,-3507.9156L13892.7992,-3507.8806L13892.7868,-3507.866L13892.7669,-3507.8437L13892.7656,-3507.8423L13892.7526,-3507.8299L13892.7021,-3507.7887L13892.6807,-3507.7714L13892.6424,-3507.7443L13892.6348,-3507.7376L13892.6335,-3507.7376L13892.5896,-3507.7038L13892.552,-3507.6705L13892.5383,-3507.6508L13892.5315,-3507.6316L13892.5267,-3507.6035L13892.5294,-3507.5663L13892.5369,-3507.5297L13892.5424,-3507.4998L13892.5451,-3507.4739L13892.5472,-3507.4289L13892.5444,-3507.3923L13892.5383,-3507.3483L13892.5356,-3507.3399L13892.5342,-3507.3348L13892.5171,-3507.2785L13892.502,-3507.2097L13892.4979,-3507.1765L13892.4973,-3507.1737L13892.4952,-3507.136L13892.4959,-3507.1104L13892.4971,-3507.0624L13892.4973,-3506.9026L13892.4974,-3506.8359"/>
<path content="1,（株）中伊豆東海バス,伊豆新宿ライナー,2.0,2.0,2.0," xlink:title="1" d="M13891.1133,-3510.882L13891.1728,-3510.8984L13891.4393,-3510.9853L13891.4819,-3510.9991L13891.5238,-3511.0115L13891.5933,-3511.0337L13891.6315,-3511.046L13891.6691,-3511.0588L13891.7348,-3511.078L13891.7623,-3511.0864L13891.7705,-3511.0892L13891.7756,-3511.0909L13891.802,-3511.0994L13891.8259,-3511.1067L13891.9183,-3511.1399L13891.9656,-3511.1564L13891.993,-3511.1653L13891.9937,-3511.1514L13891.9942,-3511.1405L13891.9973,-3511.1191L13892.0042,-3511.0104L13892.0055,-3510.9873L13892.0055,-3510.9749L13892.0117,-3510.8763L13892.0158,-3510.7929L13892.0206,-3510.7591L13892.0247,-3510.7399L13892.0384,-3510.6746L13892.0469,-3510.649L13892.0528,-3510.6307L13892.0748,-3510.5884L13892.0858,-3510.5682L13892.1275,-3510.4866L13892.1399,-3510.4622L13892.1598,-3510.4251L13892.1769,-3510.393L13892.1796,-3510.3873L13892.2228,-3510.3045L13892.2733,-3510.2073L13892.277,-3510.2003L13892.3434,-3510.0741L13892.3668,-3510.0285L13892.418,-3509.9327L13892.4634,-3509.8476L13892.4709,-3509.8342L13892.5093,-3509.7615L13892.5588,-3509.6645L13892.5936,-3509.6021L13892.6052,-3509.5784L13892.6148,-3509.5615L13892.6526,-3509.4872L13892.6936,-3509.4077L13892.7005,-3509.3931L13892.9705,-3508.8512L13893.0194,-3508.7551L13893.0673,-3508.6625L13893.0922,-3508.6152L13893.097,-3508.605L13893.1073,-3508.5853L13893.1572,-3508.4833L13893.1989,-3508.3979L13893.206,-3508.3833L13893.2191,-3508.3562L13893.2243,-3508.3477L13893.3017,-3508.209L13893.3188,-3508.1831L13893.3065,-3508.1741L13893.2004,-3508.133L13893.1162,-3508.1009L13893.0669,-3508.0823L13893.0134,-3508.0581L13892.9854,-3508.044L13892.9491,-3508.0237L13892.9149,-3508.0012L13892.9109,-3507.998L13892.8923,-3507.9832L13892.8628,-3507.9567L13892.8245,-3507.9156L13892.7992,-3507.8806L13892.7868,-3507.866L13892.7669,-3507.8437L13892.7656,-3507.8423L13892.7526,-3507.8299L13892.7021,-3507.7887L13892.6807,-3507.7714L13892.6424,-3507.7443L13892.6348,-3507.7376L13892.6335,-3507.7376L13892.5896,-3507.7037L13892.552,-3507.6705L13892.5383,-3507.6508L13892.5315,-3507.6316L13892.5267,-3507.6035L13892.5294,-3507.5663L13892.5369,-3507.5297L13892.5424,-3507.4998L13892.5451,-3507.4739L13892.5472,-3507.4289L13892.5444,-3507.3923L13892.5383,-3507.3483L13892.5356,-3507.3399L13892.5342,-3507.3348L13892.5171,-3507.2785L13892.502,-3507.2097L13892.4979,-3507.1765L13892.4973,-3507.1737L13892.4952,-3507.136L13892.4959,-3507.1104L13892.4971,-3507.0624L13892.4973,-3506.9026L13892.4974,-3506.8359"/>
<path content="1,（株）沼津登山東海バス,三島エクスプレス,3.0,3.0,3.0," xlink:title="1" d="M13891.1133,-3507.2963L13891.1368,-3507.2976L13891.1533,-3507.2976L13891.1588,-3507.2987L13891.2204,-3507.301L13891.2594,-3507.3021L13891.2978,-3507.3038L13891.321,-3507.3055L13891.3352,-3507.3063L13891.3508,-3507.3131L13891.4593,-3507.3612L13891.4794,-3507.3643L13891.5018,-3507.3669L13891.5059,-3507.3674L13891.5127,-3507.3697L13891.5408,-3507.3731L13891.5911,-3507.3804L13891.6766,-3507.3923L13891.7311,-3507.341L13891.7489,-3507.3241L13891.7736,-3507.3055L13891.8309,-3507.2722L13891.8715,-3507.2537L13891.8667,-3507.2756L13891.8667,-3507.2914L13891.8667,-3507.3004L13891.8835,-3507.4204L13891.891,-3507.469L13891.9045,-3507.5572L13891.9144,-3507.6216L13891.9169,-3507.6275L13891.9283,-3507.6401L13891.9564,-3507.6401L13891.9618,-3507.6395L13891.9872,-3507.6384L13892.0043,-3507.6384L13892.0473,-3507.6492L13892.0913,-3507.6632L13892.1056,-3507.6694L13892.1125,-3507.6705L13892.1166,-3507.6728L13892.1337,-3507.679L13892.1453,-3507.684L13892.1542,-3507.6902L13892.1638,-3507.7009L13892.1638,-3507.7015L13892.1693,-3507.715L13892.1701,-3507.7517L13892.1663,-3507.7781L13892.1631,-3507.8941L13892.1631,-3507.9065L13892.1431,-3507.9688L13892.1221,-3508.0327L13892.1056,-3508.0766L13892.1022,-3508.0823L13892.0974,-3508.0958L13892.0878,-3508.1245L13892.0707,-3508.1712L13892.0508,-3508.2361L13892.0118,-3508.3427L13892.0111,-3508.3589L13892.0098,-3508.3667L13892.0076,-3508.3877L13892.005,-3508.4518L13892.0009,-3508.4721L13891.9913,-3508.498L13891.9829,-3508.5211L13891.9661,-3508.5529L13891.8898,-3508.6951L13891.8473,-3508.7859L13891.7704,-3508.9548L13891.7603,-3508.9774L13891.7219,-3509.0697L13891.7107,-3509.1106L13891.6705,-3509.2517L13891.665,-3509.2652L13891.6623,-3509.2709L13891.652,-3509.3024L13891.6472,-3509.3215L13891.6383,-3509.3615L13891.6321,-3509.3796L13891.6294,-3509.3942L13891.6335,-3509.4406L13891.635,-3509.4739L13891.6342,-3509.4939L13891.6301,-3509.5153L13891.6163,-3509.5677L13891.6068,-3509.6021L13891.5856,-3509.6789L13891.5418,-3509.8672L13891.5182,-3510.0128L13891.5173,-3510.0406L13891.5236,-3510.085L13891.5352,-3510.158L13891.545,-3510.1913L13891.5484,-3510.2082L13891.5491,-3510.2138L13891.5532,-3510.2245L13891.58,-3510.3175L13891.5999,-3510.3851L13891.604,-3510.4206L13891.6012,-3510.4375L13891.5951,-3510.5282L13891.593,-3510.5434L13891.5899,-3510.5604L13891.5631,-3510.8369L13891.5526,-3510.9124L13891.5471,-3510.9247L13891.5238,-3511.0115L13891.5176,-3511.0374L13891.5039,-3511.0937L13891.4957,-3511.1292L13891.4929,-3511.136L13891.4922,-3511.1422L13891.4892,-3511.1648L13891.4854,-3511.2305"/>
<path content="1,（株）沼津登山東海バス,三島～三島（夏梅木経由）,13.0,12.0,11.0," xlink:title="1" d="M13894.0651,-3510.829L13894.0503,-3510.9103L13894.0625,-3510.9593L13894.1053,-3511.0578L13894.1113,-3511.065L13894.1163,-3511.0685L13894.1249,-3511.0721L13894.1539,-3511.0778L13894.2058,-3511.0843L13894.2915,-3511.0843L13894.3249,-3511.0424L13894.3471,-3511.012L13894.363,-3510.9908L13894.3728,-3510.9779L13894.3838,-3510.9664"/>
<path content="1,（株）沼津登山東海バス,三島～三島（夏梅木経由）,13.0,12.0,11.0," xlink:title="1" d="M13894.2876,-3510.8681L13894.251,-3510.8689L13894.2074,-3510.8678L13894.1864,-3510.8555L13894.1613,-3510.8499L13894.1292,-3510.843L13894.0651,-3510.829"/>
<path content="1,（株）沼津登山東海バス,三島～三島（夏梅木経由）,13.0,12.0,11.0," xlink:title="1" d="M13894.309,-3510.8735L13894.309,-3510.8687L13894.2876,-3510.8681"/>
<path content="1,（株）沼津登山東海バス,三島～三島（夏梅木経由）,13.0,12.0,11.0," xlink:title="1" d="M13894.3838,-3510.9664L13894.3206,-3510.9348L13894.2987,-3510.9232L13894.2861,-3510.9146L13894.2874,-3510.8902L13894.2876,-3510.8681"/>
<path content="1,（株）沼津登山東海バス,三島～三島（夏梅木経由）,13.0,12.0,11.0," xlink:title="1" d="M13894.4069,-3510.9863L13894.3838,-3510.9664"/>
<path content="1,（株）沼津登山東海バス,三島～三島（夏梅木経由）,13.0,12.0,11.0," xlink:title="1" d="M13893.3806,-3511.2305L13893.3861,-3511.2208L13893.3914,-3511.2093L13893.4091,-3511.1777L13893.4159,-3511.163L13893.431,-3511.1247L13893.4646,-3511.0329L13893.4756,-3511.003L13893.5025,-3510.9315L13893.516,-3510.896L13893.5359,-3510.8633L13893.5674,-3510.8132L13893.5797,-3510.7856L13893.5873,-3510.7737L13893.5976,-3510.7631L13893.5896,-3510.718L13893.5873,-3510.7051L13893.5791,-3510.6712L13893.5899,-3510.6695L13893.7198,-3510.6751L13893.8475,-3510.7819L13893.8498,-3510.7788L13893.8694,-3510.7703L13893.8844,-3510.7705L13893.9032,-3510.7743L13893.982,-3510.8009L13894.0188,-3510.8116L13894.0651,-3510.829"/>
<path content="1,（株）沼津登山東海バス,三島～大平車庫,35.5,26.5,23.0," xlink:title="1" d="M13891.4854,-3511.2305L13891.4892,-3511.1648L13891.4922,-3511.1422L13891.4929,-3511.136L13891.4957,-3511.1292L13891.5039,-3511.0937L13891.5176,-3511.0374L13891.5237,-3511.0119L13891.5471,-3510.9247L13891.5526,-3510.9124L13891.5631,-3510.8369L13891.5899,-3510.5604L13891.593,-3510.5434L13891.5951,-3510.5282L13891.6012,-3510.4375L13891.604,-3510.4206L13891.5999,-3510.3851L13891.58,-3510.3175L13891.5533,-3510.2245L13891.5491,-3510.2138L13891.5484,-3510.2082L13891.545,-3510.1913L13891.5352,-3510.158L13891.5236,-3510.085L13891.5173,-3510.0406L13891.5182,-3510.0128L13891.5418,-3509.8672L13891.5856,-3509.6789L13891.6163,-3509.5677L13891.6301,-3509.5153L13891.6342,-3509.4939L13891.635,-3509.4739L13891.6335,-3509.4406L13891.6294,-3509.3942L13891.6321,-3509.3796L13891.6383,-3509.3615L13891.6472,-3509.3215L13891.652,-3509.3024L13891.6623,-3509.2709L13891.665,-3509.2652L13891.6705,-3509.2517L13891.7107,-3509.1106L13891.7236,-3509.0656L13891.7704,-3508.9548L13891.8473,-3508.7859L13891.8898,-3508.6951L13891.9661,-3508.5529L13891.9829,-3508.5211L13891.9913,-3508.498L13892.0009,-3508.4721L13892.005,-3508.4518L13892.0076,-3508.3877L13892.0098,-3508.3667L13892.0118,-3508.3427L13892.0508,-3508.2361L13892.0707,-3508.1712L13892.0878,-3508.1245L13892.0974,-3508.0958L13892.1022,-3508.0823L13892.1056,-3508.0766L13892.1221,-3508.0327L13892.1431,-3507.9688L13892.1631,-3507.9065L13892.1663,-3507.7781L13892.1701,-3507.7517L13892.1693,-3507.715L13892.1638,-3507.7015L13892.1638,-3507.7009L13892.1542,-3507.6902L13892.1453,-3507.684L13892.1337,-3507.679L13892.1166,-3507.6728L13892.1125,-3507.6705L13892.1056,-3507.6694L13892.0913,-3507.6632L13892.0473,-3507.6492L13892.0043,-3507.6384L13891.9872,-3507.6384L13891.9618,-3507.6395L13891.9294,-3507.6414L13891.9169,-3507.6275L13891.9144,-3507.6216L13891.9045,-3507.5572L13891.891,-3507.469L13891.8835,-3507.4204L13891.8667,-3507.3004L13891.8667,-3507.2914L13891.8667,-3507.2756L13891.8715,-3507.2537L13891.8309,-3507.2722L13891.7736,-3507.3055L13891.7489,-3507.3241L13891.7311,-3507.341L13891.6766,-3507.3923L13891.5911,-3507.3804L13891.5422,-3507.3733L13891.5408,-3507.3731L13891.5127,-3507.3697L13891.5059,-3507.3674L13891.5018,-3507.3669L13891.4794,-3507.3643L13891.4593,-3507.3612L13891.3508,-3507.3131L13891.3352,-3507.3063L13891.321,-3507.3055L13891.2978,-3507.3038L13891.1368,-3507.2976L13891.1133,-3507.2963"/>
<path content="1,（株）沼津登山東海バス,沼津～大平,30.5,27.5,25.0," xlink:title="1" d="M13891.1133,-3507.2963L13891.1368,-3507.2976L13891.2978,-3507.3038L13891.321,-3507.3055L13891.3352,-3507.3063L13891.3508,-3507.3131L13891.4593,-3507.3612L13891.4794,-3507.3643L13891.5018,-3507.3669L13891.5059,-3507.3674L13891.5127,-3507.3697L13891.5408,-3507.3731L13891.5422,-3507.3733L13891.5911,-3507.3804L13891.6766,-3507.3923L13891.7311,-3507.341L13891.7489,-3507.3241L13891.7736,-3507.3055L13891.8309,-3507.2722L13891.8715,-3507.2537L13891.8749,-3507.2418L13891.8749,-3507.2249L13891.8756,-3507.1726L13891.8792,-3507.153"/>
<path content="1,（株）沼津登山東海バス,沼津～遺伝研坂下,1.0,0.0,0.0," xlink:title="1" d="M13891.1133,-3510.882L13891.1728,-3510.8984L13891.4393,-3510.9853L13891.5237,-3511.0119L13891.5933,-3511.0337L13891.6691,-3511.0588L13891.7348,-3511.078L13891.7623,-3511.0864L13891.7705,-3511.0892L13891.7756,-3511.0909L13891.802,-3511.0994L13891.8259,-3511.1067L13891.9183,-3511.1399L13891.9656,-3511.1564L13891.993,-3511.1653L13892.1569,-3511.2186L13892.1956,-3511.2305"/>
<path content="3,三島市,せせらぎ号東回り,11.0,11.0,11.0," xlink:title="3" d="M13891.6094,-3511.2305L13891.7457,-3511.2254L13891.7468,-3511.2305"/>
<path content="3,三島市,せせらぎ号西回り,11.0,11.0,11.0," xlink:title="3" d="M13891.6094,-3511.2305L13891.7457,-3511.2254L13891.7468,-3511.2305"/>
<path content="3,三島市,なかざと号,9.0,9.0,9.0," xlink:title="3" d="M13892.3406,-3509.2754L13892.3592,-3509.2371L13892.3839,-3509.1858L13892.4129,-3509.13L13892.4592,-3509.1541"/>
<path content="3,三島市,なかざと号,9.0,9.0,9.0," xlink:title="3" d="M13892.3406,-3509.2754L13892.1633,-3509.2107L13891.8603,-3509.1087L13891.7158,-3509.0631L13891.5396,-3509.0184L13891.4505,-3508.9892L13891.4827,-3508.9289L13891.4909,-3508.9137L13891.5019,-3508.8895L13891.5334,-3508.8275L13891.5463,-3508.8009L13891.5648,-3508.7693L13891.6026,-3508.698L13891.6386,-3508.6267L13891.6533,-3508.594L13891.7386,-3508.4518L13891.9781,-3508.5194L13892.1646,-3508.5828L13892.614,-3508.7319L13892.8791,-3508.8206L13892.9705,-3508.8512L13892.6992,-3509.3958"/>
<path content="3,三島市,なかざと号,9.0,9.0,9.0," xlink:title="3" d="M13892.6992,-3509.3958L13892.5682,-3509.3523L13892.3406,-3509.2754"/>
<path content="3,三島市,なかざと号,9.0,9.0,9.0," xlink:title="3" d="M13893.3098,-3509.628L13893.1893,-3509.5917L13892.9629,-3509.4837L13892.6992,-3509.3958"/>
<path content="3,三島市,なかざと号,9.0,9.0,9.0," xlink:title="3" d="M13893.3098,-3509.628L13893.3118,-3509.6223L13893.3239,-3509.5928L13893.4035,-3509.3791L13893.4259,-3509.3176L13893.4368,-3509.299L13893.45,-3509.2842L13893.459,-3509.2784L13893.5046,-3509.2495L13893.51,-3509.2475L13893.5209,-3509.2444L13893.5887,-3509.2162L13893.5976,-3509.2139L13893.6099,-3509.2089L13893.6408,-3509.1993L13893.662,-3509.1931L13893.6984,-3509.1818L13893.7244,-3509.1756L13893.7251,-3509.1745L13893.7751,-3509.1604L13893.8124,-3509.1669L13893.9136,-3509.1971L13893.926,-3509.2006L13893.924,-3509.207L13893.9111,-3509.2511L13893.8998,-3509.3397L13893.8909,-3509.388L13893.8868,-3509.4224L13893.8854,-3509.4257L13893.8813,-3509.4545L13893.8806,-3509.4579L13893.8759,-3509.486L13893.8711,-3509.5102L13893.8688,-3509.5234L13893.8676,-3509.5313L13893.8591,-3509.5721L13893.856,-3509.5801L13893.8471,-3509.5885L13893.8379,-3509.5961L13893.7621,-3509.6443L13893.7518,-3509.6618L13893.7415,-3509.6843L13893.7264,-3509.7254L13893.7086,-3509.7716L13893.6908,-3509.8054L13893.686,-3509.8127L13893.6853,-3509.815L13893.6846,-3509.8161L13893.6805,-3509.8201L13893.6771,-3509.8251L13893.6681,-3509.8638L13893.6634,-3509.8786L13893.6565,-3509.8905L13893.6456,-3509.9034L13893.632,-3509.9177L13893.6092,-3509.9417L13893.6003,-3509.9496L13893.5955,-3509.9575L13893.5839,-3510.024L13893.5784,-3510.0673L13893.5531,-3510.1213L13893.5201,-3510.242L13893.516,-3510.2493L13893.5088,-3510.2568L13893.4408,-3510.2575L13893.3862,-3510.253L13893.3467,-3510.2442L13893.2728,-3510.2275L13893.2063,-3510.2044L13893.1487,-3510.1806L13893.2135,-3509.9634L13893.2782,-3509.7294L13893.294,-3509.6714L13893.3098,-3509.628"/>
<path content="3,三島市,ふれあい号,7.0,7.0,7.0," xlink:title="3" d="M13892.7121,-3510.1361L13892.7224,-3510.1282L13892.7457,-3510.1062L13892.7985,-3510.0803L13892.8028,-3510.0784L13892.806,-3510.0696L13892.8108,-3510.0572L13892.8122,-3510.0488L13892.8211,-3510.0189L13892.8225,-3510.0051L13892.8173,-3510.0025L13892.8173,-3509.9974L13892.7944,-3509.9907L13892.8012,-3509.9603L13892.8074,-3509.9429L13892.8108,-3509.9299L13892.8197,-3509.913L13892.8314,-3509.9006L13892.8417,-3509.8843L13892.8424,-3509.8787L13892.8441,-3509.8752L13892.8522,-3509.8586L13892.854,-3509.855L13892.8574,-3509.8387L13892.8609,-3509.8297L13892.8683,-3509.8187L13892.8883,-3509.8127L13892.902,-3509.8004L13892.9091,-3509.7901L13892.9109,-3509.7818L13892.9129,-3509.7795L13892.9605,-3509.6952L13892.9664,-3509.6849L13892.9856,-3509.6556L13893.0027,-3509.628L13893.0315,-3509.5818L13893.0432,-3509.5593L13893.0507,-3509.5412L13893.0534,-3509.5328L13893.055,-3509.5276L13892.9629,-3509.4837"/>
<path content="3,三島市,ふれあい号,7.0,7.0,7.0," xlink:title="3" d="M13892.7121,-3510.1361L13892.7231,-3510.1401L13892.7416,-3510.1462L13892.7964,-3510.1676L13892.8019,-3510.1688L13892.8239,-3510.1777L13892.8458,-3510.1874L13892.8574,-3510.1919L13892.9323,-3510.2168"/>
<path content="3,三島市,ふれあい号,7.0,7.0,7.0," xlink:title="3" d="M13892.7046,-3510.1423L13892.6128,-3510.1074L13892.5561,-3510.0832L13892.5141,-3510.0741L13892.4983,-3510.0696L13892.4853,-3510.0646L13892.4784,-3510.0634L13892.4421,-3510.0516L13892.3811,-3510.0319L13892.3668,-3510.0285L13892.351,-3510.0251L13892.3222,-3510.0167L13892.2374,-3509.9854"/>
<path content="3,三島市,ふれあい号,7.0,7.0,7.0," xlink:title="3" d="M13892.7046,-3510.1423L13892.7121,-3510.1361"/>
<path content="3,三島市,ふれあい号,7.0,7.0,7.0," xlink:title="3" d="M13892.3824,-3510.6487L13892.4902,-3510.6767L13892.5428,-3510.6887L13892.5593,-3510.6915L13892.5716,-3510.6949L13892.5867,-3510.6972L13892.6765,-3510.7124L13892.6806,-3510.6904L13892.6854,-3510.6684L13892.7018,-3510.6009L13892.7135,-3510.5676L13892.7306,-3510.5541L13892.7478,-3510.5394L13892.756,-3510.5271L13892.7615,-3510.5124L13892.7738,-3510.5022L13892.7875,-3510.4944L13892.8046,-3510.4814L13892.8074,-3510.4752L13892.8088,-3510.4529L13892.7985,-3510.4476L13892.7923,-3510.4454L13892.7005,-3510.4076L13892.6799,-3510.398L13892.6511,-3510.3868L13892.6148,-3510.3755L13892.6025,-3510.3765L13892.5929,-3510.371L13892.5956,-3510.3541L13892.6004,-3510.3411L13892.6141,-3510.3209L13892.6217,-3510.2972L13892.621,-3510.2566L13892.6251,-3510.2482L13892.6464,-3510.2229L13892.6724,-3510.1936L13892.6833,-3510.1789L13892.6916,-3510.1643L13892.6977,-3510.1485L13892.7046,-3510.1423"/>
<path content="3,三島市,ふれあい号,7.0,7.0,7.0," xlink:title="3" d="M13892.3713,-3510.6783L13892.3824,-3510.6487"/>
<path content="3,三島市,ふれあい号,7.0,7.0,7.0," xlink:title="3" d="M13891.7468,-3511.2305L13891.7457,-3511.2254L13891.7348,-3511.078L13891.7334,-3511.0605L13891.7225,-3511.0098L13891.7191,-3510.98L13891.7198,-3510.9591L13891.7287,-3510.9264L13891.7348,-3510.9067L13891.7499,-3510.8617L13891.7574,-3510.8369L13891.767,-3510.7901L13891.7794,-3510.7602L13891.7794,-3510.7518L13891.7732,-3510.7343L13891.7699,-3510.727L13891.7664,-3510.7214L13891.7643,-3510.7174L13891.7636,-3510.7101L13891.7561,-3510.6808L13891.7534,-3510.6724L13891.7479,-3510.6639L13891.7588,-3510.6442L13891.7636,-3510.6324L13891.7657,-3510.6206L13891.7657,-3510.5997L13891.7643,-3510.5969L13891.7623,-3510.5642L13891.7616,-3510.5456L13891.7616,-3510.5231L13891.828,-3510.5234L13891.8678,-3510.5271L13891.8979,-3510.5282L13891.911,-3510.5304L13891.9274,-3510.5344L13891.95,-3510.5439L13891.9699,-3510.5518L13891.9946,-3510.5592L13892.0108,-3510.5667L13892.0426,-3510.5777L13892.0494,-3510.5794L13892.0748,-3510.5884L13892.0858,-3510.5682L13892.128,-3510.5789L13892.1577,-3510.5846L13892.1956,-3510.5913L13892.2305,-3510.6045L13892.2598,-3510.6144L13892.266,-3510.6166L13892.3824,-3510.6487"/>
<path content="3,清水町,町内循環,8.0,7.0,6.0," xlink:title="3" d="M13891.1133,-3508.9478L13891.1181,-3508.974L13891.1243,-3508.9841L13891.1394,-3508.9948L13891.1503,-3509.0038L13891.1634,-3509.019L13891.1676,-3509.0263L13891.1716,-3509.0399L13891.1757,-3509.0652L13891.1771,-3509.1109L13891.1819,-3509.1852L13891.1824,-3509.2008L13891.1826,-3509.2258L13891.1826,-3509.3181L13891.1777,-3509.4235L13891.1743,-3509.5136L13891.175,-3509.5198L13891.1736,-3509.5322L13891.1734,-3509.6279L13891.1674,-3509.7006L13891.1661,-3509.7142L13891.1626,-3509.8054L13891.1613,-3509.8279L13891.1613,-3509.8601L13891.1585,-3509.9102L13891.1577,-3509.9353L13891.1544,-3510.0065L13891.1133,-3510.0057"/>
</g>
</svg>
