<?xml version="1.0" encoding="UTF-8"?>
<svg  xmlns="http://www.w3.org/2000/svg" xmlns:xlink="http://www.w3.org/1999/xlink" xmlns:go="http://purl.org/svgmap/profile" property="N07_001,N07_002,N07_003,N07_004,N07_005,N07_006,N07_007" viewBox="13702.1484375 -3669.43359375 4.39453125 4.39453125" go:dataArea="13702.1484375 -3669.43359375 4.39453125 4.39453125" >
<metadata>
 <rdf:RDF xmlns:rdf="http://www.w3.org/1999/02/22-rdf-syntax-ns#" xmlns:crs="http://opengis.org/xmldtds/transformations.dtd" xmlns:svg="http://www.w3.org/svg" >
  <rdf:Description>
   <crs:CoordinateReferenceSystem rdf:resource="http://purl.org/crs/84" svg:transform="matrix(100.0,0.0,0.0,-100.0,0.0,0.0)" />
  </rdf:Description>
 </rdf:RDF>
</metadata>
<globalCoordinateSystem srsName="http://purl.org/crs/84" transform="matrix(100.0,0.0,0.0,-100.0,0.0,0.0)" />
<defs>
 <g id="p0" >
  <circle cx="0.0" cy="0.0" r="3" stroke="green" stroke-width="0.75" vector-effect="non-scaling-stroke" />
 </g>
</defs>
<g fill="none" fill-rule="evenodd" stroke="#FF00FF" stroke-width="0.75" opacity="0.5" vector-effect="non-scaling-stroke" stroke-linejoin="bevel" >
<path content="1,JRバス関東（株）,金沢エクスプレス/ドリーム金沢号/青春ドリーム金沢号,6.0,6.0,6.0," xlink:title="1" d="M13706.543,-3668.9877L13706.5027,-3668.9792L13706.4294,-3668.9598L13706.348,-3668.9334L13706.2286,-3668.8886L13706.1555,-3668.8599L13706.0968,-3668.8333L13706.0028,-3668.7852L13705.9203,-3668.7405L13705.885,-3668.7201L13705.8516,-3668.6981L13705.7971,-3668.6594L13705.6963,-3668.5825L13705.6208,-3668.5218L13705.6128,-3668.5153L13705.4833,-3668.4007L13705.3689,-3668.2986L13705.3141,-3668.2542L13705.2859,-3668.2347L13705.2441,-3668.2131L13705.2065,-3668.198L13705.1809,-3668.19L13705.1488,-3668.1821L13705.0852,-3668.1697L13704.993,-3668.1601L13704.9389,-3668.1554L13704.8721,-3668.1539L13704.7711,-3668.1568L13704.6937,-3668.1597L13704.6182,-3668.1581L13704.5826,-3668.1551L13704.5684,-3668.1538L13704.5531,-3668.1514L13704.4965,-3668.1436L13704.4382,-3668.1332L13704.4035,-3668.122L13704.2559,-3668.0705L13704.2153,-3668.0547L13704.1547,-3668.0281L13704.1182,-3668.0103L13704.0745,-3667.9874L13703.9736,-3667.9291L13703.8903,-3667.8728L13703.8114,-3667.8124L13703.7214,-3667.7323L13703.6747,-3667.6873L13703.6704,-3667.6832L13703.5449,-3667.55L13703.5069,-3667.5096L13703.4112,-3667.4119L13703.4061,-3667.4049L13703.3629,-3667.3485L13703.3199,-3667.2869L13703.2902,-3667.2461L13703.2453,-3667.1766L13703.2358,-3667.1638L13703.1686,-3667.0686L13703.1243,-3667.0115L13703.1009,-3666.984L13703.0903,-3666.9718L13703.0593,-3666.9349L13703.0406,-3666.9092L13703.0344,-3666.9036L13703.0299,-3666.8984L13703.0277,-3666.8955L13703.0248,-3666.8926L13703.0123,-3666.8799L13702.9964,-3666.8617L13702.9689,-3666.8326L13702.9413,-3666.8034L13702.8327,-3666.7024L13702.6987,-3666.5869L13702.625,-3666.5305L13702.595,-3666.5075L13702.5188,-3666.4565L13702.4336,-3666.3997L13702.3446,-3666.3465L13702.245,-3666.2896L13702.1484,-3666.2409"/>
<path content="1,JR東海バス（株）,北陸ドリーム名古屋号,1.5,1.5,1.5," xlink:title="1" d="M13702.1484,-3666.2409L13702.245,-3666.2896L13702.3446,-3666.3465L13702.4336,-3666.3997L13702.5188,-3666.4565L13702.595,-3666.5075L13702.625,-3666.5305L13702.6987,-3666.5869L13702.8327,-3666.7024L13702.9413,-3666.8034L13702.9689,-3666.8326L13702.9964,-3666.8617L13703.0123,-3666.8799L13703.0248,-3666.8926L13703.0277,-3666.8955L13703.0299,-3666.8984L13703.0344,-3666.9036L13703.0406,-3666.9092L13703.0593,-3666.9349L13703.0903,-3666.9718L13703.1009,-3666.984L13703.1243,-3667.0115L13703.1686,-3667.0686L13703.2358,-3667.1638L13703.2453,-3667.1766L13703.2902,-3667.2461L13703.3199,-3667.2869L13703.3629,-3667.3485L13703.4061,-3667.4049L13703.4112,-3667.4119L13703.5069,-3667.5096L13703.5449,-3667.55L13703.6704,-3667.6832L13703.6747,-3667.6873L13703.7214,-3667.7323L13703.8114,-3667.8124L13703.8903,-3667.8728L13703.9736,-3667.9291L13704.0745,-3667.9874L13704.1182,-3668.0103L13704.1547,-3668.0281L13704.2153,-3668.0547L13704.2559,-3668.0705L13704.4035,-3668.122L13704.4382,-3668.1332L13704.4965,-3668.1436L13704.5531,-3668.1514L13704.5684,-3668.1538L13704.5826,-3668.1551L13704.6182,-3668.1581L13704.6937,-3668.1597L13704.7711,-3668.1568L13704.8721,-3668.1539L13704.9389,-3668.1554L13704.993,-3668.1601L13705.0852,-3668.1697L13705.1488,-3668.1821L13705.1809,-3668.19L13705.2065,-3668.198L13705.2441,-3668.2131L13705.2859,-3668.2347L13705.3141,-3668.2542L13705.3689,-3668.2986L13705.4833,-3668.4007L13705.6128,-3668.5153L13705.6208,-3668.5218L13705.6963,-3668.5825L13705.7971,-3668.6594L13705.8516,-3668.6981L13705.885,-3668.7201L13705.9203,-3668.7405L13706.0028,-3668.7852L13706.0968,-3668.8333L13706.1555,-3668.8599L13706.2286,-3668.8886L13706.348,-3668.9334L13706.4294,-3668.9598L13706.5027,-3668.9792L13706.543,-3668.9877"/>
<path content="1,加越能鉄道（株）,東京行き（高速バス）,2.0,2.0,2.0," xlink:title="1" d="M13702.1484,-3666.2409L13702.245,-3666.2896L13702.3446,-3666.3465L13702.4336,-3666.3997L13702.5188,-3666.4565L13702.595,-3666.5075L13702.625,-3666.5305L13702.6987,-3666.5869L13702.8327,-3666.7024L13702.9413,-3666.8034L13702.9689,-3666.8326L13702.9964,-3666.8617L13703.0123,-3666.8799L13703.0248,-3666.8926L13703.0277,-3666.8955L13703.0299,-3666.8984L13703.0344,-3666.9036L13703.0406,-3666.9092L13703.0593,-3666.9349L13703.0903,-3666.9718L13703.1009,-3666.984L13703.1243,-3667.0115L13703.1686,-3667.0686L13703.2358,-3667.1638L13703.2453,-3667.1766L13703.2902,-3667.2461L13703.3199,-3667.2869L13703.3629,-3667.3485L13703.4061,-3667.4049L13703.4112,-3667.4119L13703.5069,-3667.5096L13703.5449,-3667.55L13703.6704,-3667.6832L13703.6747,-3667.6873L13703.7214,-3667.7323L13703.8114,-3667.8124L13703.8903,-3667.8728L13703.9736,-3667.9291L13704.0745,-3667.9874L13704.1182,-3668.0103L13704.1547,-3668.0281L13704.2153,-3668.0547L13704.2559,-3668.0705L13704.4035,-3668.122L13704.4382,-3668.1332L13704.4965,-3668.1436L13704.5531,-3668.1514L13704.5684,-3668.1538L13704.5826,-3668.1551L13704.6182,-3668.1581L13704.6937,-3668.1597L13704.7711,-3668.1568L13704.8721,-3668.1539L13704.9389,-3668.1554L13704.993,-3668.1601L13705.0852,-3668.1697L13705.1488,-3668.1821L13705.1809,-3668.19L13705.2065,-3668.198L13705.2441,-3668.2131L13705.2859,-3668.2347L13705.3141,-3668.2542L13705.3689,-3668.2986L13705.4833,-3668.4007L13705.6128,-3668.5153L13705.6208,-3668.5218L13705.6963,-3668.5825L13705.7971,-3668.6594L13705.8516,-3668.6981L13705.885,-3668.7201L13705.9203,-3668.7405L13706.0028,-3668.7852L13706.0968,-3668.8333L13706.1555,-3668.8599L13706.2286,-3668.8886L13706.348,-3668.9334L13706.4294,-3668.9598L13706.5027,-3668.9792L13706.543,-3668.9877"/>
<path content="1,加越能鉄道（株）,福野・砺波～富山空港,3.0,3.0,3.0," xlink:title="1" d="M13702.4256,-3665.0391L13702.4263,-3665.0397L13702.4432,-3665.0578L13702.4514,-3665.0647L13702.4633,-3665.0711L13702.4723,-3665.0741L13702.4827,-3665.0763L13702.5042,-3665.0722L13702.5161,-3665.066L13702.5259,-3665.0564L13702.5358,-3665.0391"/>
<path content="1,北陸鉄道（株）,高速バス　金沢⇔仙台,1.0,1.0,1.0," xlink:title="1" d="M13706.543,-3668.9877L13706.5027,-3668.9792L13706.4294,-3668.9598L13706.348,-3668.9334L13706.2286,-3668.8886L13706.1555,-3668.8599L13706.0968,-3668.8333L13706.0028,-3668.7852L13705.9203,-3668.7405L13705.885,-3668.7201L13705.8516,-3668.6981L13705.7971,-3668.6594L13705.6963,-3668.5825L13705.6208,-3668.5218L13705.6128,-3668.5153L13705.4833,-3668.4007L13705.3689,-3668.2986L13705.3141,-3668.2542L13705.2859,-3668.2347L13705.2441,-3668.2131L13705.2065,-3668.198L13705.1809,-3668.19L13705.1488,-3668.1821L13705.0852,-3668.1697L13704.993,-3668.1601L13704.9389,-3668.1554L13704.8721,-3668.1539L13704.7711,-3668.1568L13704.6937,-3668.1597L13704.6182,-3668.1581L13704.5826,-3668.1551L13704.5684,-3668.1538L13704.5531,-3668.1514L13704.4965,-3668.1436L13704.4382,-3668.1332L13704.4035,-3668.122L13704.2559,-3668.0705L13704.2153,-3668.0547L13704.1547,-3668.0281L13704.1182,-3668.0103L13704.0745,-3667.9874L13703.9736,-3667.9291L13703.8903,-3667.8728L13703.8114,-3667.8124L13703.7214,-3667.7323L13703.6747,-3667.6873L13703.6704,-3667.6832L13703.5449,-3667.55L13703.5069,-3667.5096L13703.4112,-3667.4119L13703.4061,-3667.4049L13703.3629,-3667.3485L13703.3199,-3667.2869L13703.2902,-3667.2461L13703.2453,-3667.1766L13703.2358,-3667.1638L13703.1686,-3667.0686L13703.1243,-3667.0115L13703.1009,-3666.984L13703.0903,-3666.9718L13703.0593,-3666.9349L13703.0406,-3666.9092L13703.0344,-3666.9036L13703.0299,-3666.8984L13703.0277,-3666.8955L13703.0248,-3666.8926L13703.0123,-3666.8799L13702.9964,-3666.8617L13702.9689,-3666.8326L13702.9413,-3666.8034L13702.8327,-3666.7024L13702.6987,-3666.5869L13702.625,-3666.5305L13702.595,-3666.5075L13702.5188,-3666.4565L13702.4336,-3666.3997L13702.3446,-3666.3465L13702.245,-3666.2896L13702.1484,-3666.2409"/>
<path content="1,北陸鉄道（株）,高速バス　金沢⇔富山,16.0,4.0,4.0," xlink:title="1" d="M13706.543,-3668.9877L13706.5027,-3668.9792L13706.4294,-3668.9598L13706.348,-3668.9334L13706.2286,-3668.8886L13706.1555,-3668.8599L13706.0968,-3668.8333L13706.0028,-3668.7852L13705.9203,-3668.7405L13705.885,-3668.7201L13705.8516,-3668.6981L13705.7971,-3668.6594L13705.6963,-3668.5825L13705.6208,-3668.5218L13705.6128,-3668.5153L13705.4833,-3668.4007L13705.3689,-3668.2986L13705.3141,-3668.2542L13705.2859,-3668.2347L13705.2441,-3668.2131L13705.2065,-3668.198L13705.1809,-3668.19L13705.1488,-3668.1821L13705.0852,-3668.1697L13704.993,-3668.1601L13704.9389,-3668.1554L13704.8721,-3668.1539L13704.7711,-3668.1568L13704.6937,-3668.1597L13704.6182,-3668.1581L13704.5826,-3668.1551L13704.5684,-3668.1538L13704.5531,-3668.1514L13704.4965,-3668.1436L13704.4382,-3668.1332L13704.4035,-3668.122L13704.2559,-3668.0705L13704.2153,-3668.0547L13704.1547,-3668.0281L13704.1182,-3668.0103L13704.0745,-3667.9874L13703.9736,-3667.9291L13703.8903,-3667.8728L13703.8114,-3667.8124L13703.7214,-3667.7323L13703.6747,-3667.6873L13703.6704,-3667.6832L13703.5449,-3667.55L13703.5069,-3667.5096L13703.4112,-3667.4119L13703.4061,-3667.4049L13703.3629,-3667.3485L13703.3199,-3667.2869L13703.2902,-3667.2461L13703.2453,-3667.1766L13703.2358,-3667.1638L13703.1686,-3667.0686L13703.1243,-3667.0115L13703.1009,-3666.984L13703.0903,-3666.9718L13703.0593,-3666.9349L13703.0406,-3666.9092L13703.0344,-3666.9036L13703.0299,-3666.8984L13703.0277,-3666.8955L13703.0248,-3666.8926L13703.0123,-3666.8799L13702.9964,-3666.8617L13702.9689,-3666.8326L13702.9413,-3666.8034L13702.8327,-3666.7024L13702.6987,-3666.5869L13702.625,-3666.5305L13702.595,-3666.5075L13702.5188,-3666.4565L13702.4336,-3666.3997L13702.3446,-3666.3465L13702.245,-3666.2896L13702.1484,-3666.2409"/>
<path content="1,北陸鉄道（株）,高速バス　金沢⇔新潟,2.0,2.0,2.0," xlink:title="1" d="M13702.1484,-3666.2409L13702.245,-3666.2896L13702.3446,-3666.3465L13702.4336,-3666.3997L13702.5188,-3666.4565L13702.595,-3666.5075L13702.625,-3666.5305L13702.6987,-3666.5869L13702.8327,-3666.7024L13702.9413,-3666.8034L13702.9689,-3666.8326L13702.9964,-3666.8617L13703.0123,-3666.8799L13703.0248,-3666.8926L13703.0277,-3666.8955L13703.0299,-3666.8984L13703.0344,-3666.9036L13703.0406,-3666.9092L13703.0593,-3666.9349L13703.0903,-3666.9718L13703.1009,-3666.984L13703.1243,-3667.0115L13703.1686,-3667.0686L13703.2358,-3667.1638L13703.2453,-3667.1766L13703.2902,-3667.2461L13703.3199,-3667.2869L13703.3629,-3667.3485L13703.4061,-3667.4049L13703.4112,-3667.4119L13703.5069,-3667.5096L13703.5449,-3667.55L13703.6704,-3667.6832L13703.6747,-3667.6873L13703.7214,-3667.7323L13703.8114,-3667.8124L13703.8903,-3667.8728L13703.9736,-3667.9291L13704.0745,-3667.9874L13704.1182,-3668.0103L13704.1547,-3668.0281L13704.2153,-3668.0547L13704.2559,-3668.0705L13704.4035,-3668.122L13704.4382,-3668.1332L13704.4965,-3668.1436L13704.5531,-3668.1514L13704.5684,-3668.1538L13704.5826,-3668.1551L13704.6182,-3668.1581L13704.6937,-3668.1597L13704.7711,-3668.1568L13704.8721,-3668.1539L13704.9389,-3668.1554L13704.993,-3668.1601L13705.0852,-3668.1697L13705.1488,-3668.1821L13705.1809,-3668.19L13705.2065,-3668.198L13705.2441,-3668.2131L13705.2859,-3668.2347L13705.3141,-3668.2542L13705.3689,-3668.2986L13705.4833,-3668.4007L13705.6128,-3668.5153L13705.6208,-3668.5218L13705.6963,-3668.5825L13705.7971,-3668.6594L13705.8516,-3668.6981L13705.885,-3668.7201L13705.9203,-3668.7405L13706.0028,-3668.7852L13706.0968,-3668.8333L13706.1555,-3668.8599L13706.2286,-3668.8886L13706.348,-3668.9334L13706.4294,-3668.9598L13706.5027,-3668.9792L13706.543,-3668.9877"/>
<path content="1,北陸鉄道（株）,高速バス　金沢⇔渋谷八王子,2.0,2.0,2.0," xlink:title="1" d="M13702.1484,-3666.2409L13702.245,-3666.2896L13702.3446,-3666.3465L13702.4336,-3666.3997L13702.5188,-3666.4565L13702.595,-3666.5075L13702.625,-3666.5305L13702.6987,-3666.5869L13702.8327,-3666.7024L13702.9413,-3666.8034L13702.9689,-3666.8326L13702.9964,-3666.8617L13703.0123,-3666.8799L13703.0248,-3666.8926L13703.0277,-3666.8955L13703.0299,-3666.8984L13703.0344,-3666.9036L13703.0406,-3666.9092L13703.0593,-3666.9349L13703.0903,-3666.9718L13703.1009,-3666.984L13703.1243,-3667.0115L13703.1686,-3667.0686L13703.2358,-3667.1638L13703.2453,-3667.1766L13703.2902,-3667.2461L13703.3199,-3667.2869L13703.3629,-3667.3485L13703.4061,-3667.4049L13703.4112,-3667.4119L13703.5069,-3667.5096L13703.5449,-3667.55L13703.6704,-3667.6832L13703.6747,-3667.6873L13703.7214,-3667.7323L13703.8114,-3667.8124L13703.8903,-3667.8728L13703.9736,-3667.9291L13704.0745,-3667.9874L13704.1182,-3668.0103L13704.1547,-3668.0281L13704.2153,-3668.0547L13704.2559,-3668.0705L13704.4035,-3668.122L13704.4382,-3668.1332L13704.4965,-3668.1436L13704.5531,-3668.1514L13704.5684,-3668.1538L13704.5826,-3668.1551L13704.6182,-3668.1581L13704.6937,-3668.1597L13704.7711,-3668.1568L13704.8721,-3668.1539L13704.9389,-3668.1554L13704.993,-3668.1601L13705.0852,-3668.1697L13705.1488,-3668.1821L13705.1809,-3668.19L13705.2065,-3668.198L13705.2441,-3668.2131L13705.2859,-3668.2347L13705.3141,-3668.2542L13705.3689,-3668.2986L13705.4833,-3668.4007L13705.6128,-3668.5153L13705.6208,-3668.5218L13705.6963,-3668.5825L13705.7971,-3668.6594L13705.8516,-3668.6981L13705.885,-3668.7201L13705.9203,-3668.7405L13706.0028,-3668.7852L13706.0968,-3668.8333L13706.1555,-3668.8599L13706.2286,-3668.8886L13706.348,-3668.9334L13706.4294,-3668.9598L13706.5027,-3668.9792L13706.543,-3668.9877"/>
<path content="1,南海バス（株）,堺・大阪（なんば）・京都⇔柏崎・長岡・三条（新潟）,1.0,1.0,1.0," xlink:title="1" d="M13702.1484,-3666.2409L13702.245,-3666.2896L13702.3446,-3666.3465L13702.4336,-3666.3997L13702.5188,-3666.4565L13702.595,-3666.5075L13702.625,-3666.5305L13702.6987,-3666.5869L13702.8327,-3666.7024L13702.9413,-3666.8034L13702.9689,-3666.8326L13702.9964,-3666.8617L13703.0123,-3666.8799L13703.0248,-3666.8926L13703.0277,-3666.8955L13703.0299,-3666.8984L13703.0344,-3666.9036L13703.0406,-3666.9092L13703.0593,-3666.9349L13703.0903,-3666.9718L13703.1009,-3666.984L13703.1243,-3667.0115L13703.1686,-3667.0686L13703.2358,-3667.1638L13703.2453,-3667.1766L13703.2902,-3667.2461L13703.3199,-3667.2869L13703.3629,-3667.3485L13703.4061,-3667.4049L13703.4112,-3667.4119L13703.5069,-3667.5096L13703.5449,-3667.55L13703.6704,-3667.6832L13703.6747,-3667.6873L13703.7214,-3667.7323L13703.8114,-3667.8124L13703.8903,-3667.8728L13703.9736,-3667.9291L13704.0745,-3667.9874L13704.1182,-3668.0103L13704.1547,-3668.0281L13704.2153,-3668.0547L13704.2559,-3668.0705L13704.4035,-3668.122L13704.4382,-3668.1332L13704.4965,-3668.1436L13704.5531,-3668.1514L13704.5684,-3668.1538L13704.5826,-3668.1551L13704.6182,-3668.1581L13704.6937,-3668.1597L13704.7711,-3668.1568L13704.8721,-3668.1539L13704.9389,-3668.1554L13704.993,-3668.1601L13705.0852,-3668.1697L13705.1488,-3668.1821L13705.1809,-3668.19L13705.2065,-3668.198L13705.2441,-3668.2131L13705.2859,-3668.2347L13705.3141,-3668.2542L13705.3689,-3668.2986L13705.4833,-3668.4007L13705.6128,-3668.5153L13705.6208,-3668.5218L13705.6963,-3668.5825L13705.7971,-3668.6594L13705.8516,-3668.6981L13705.885,-3668.7201L13705.9203,-3668.7405L13706.0028,-3668.7852L13706.0968,-3668.8333L13706.1555,-3668.8599L13706.2286,-3668.8886L13706.348,-3668.9334L13706.4294,-3668.9598L13706.5027,-3668.9792L13706.543,-3668.9877"/>
<path content="1,名鉄バス（株）,名古屋～富山,6.0,6.0,6.0," xlink:title="1" d="M13706.543,-3668.9877L13706.5027,-3668.9792L13706.4294,-3668.9598L13706.348,-3668.9334L13706.2286,-3668.8886L13706.1555,-3668.8599L13706.0968,-3668.8333L13706.0028,-3668.7852L13705.9203,-3668.7405L13705.885,-3668.7201L13705.8516,-3668.6981L13705.7971,-3668.6594L13705.6963,-3668.5825L13705.6208,-3668.5218L13705.6128,-3668.5153L13705.4833,-3668.4007L13705.3689,-3668.2986L13705.3141,-3668.2542L13705.2859,-3668.2347L13705.2441,-3668.2131L13705.2065,-3668.198L13705.1809,-3668.19L13705.1488,-3668.1821L13705.0852,-3668.1697L13704.993,-3668.1601L13704.9389,-3668.1554L13704.8721,-3668.1539L13704.7711,-3668.1568L13704.6937,-3668.1597L13704.6182,-3668.1581L13704.5826,-3668.1551L13704.5684,-3668.1538L13704.5531,-3668.1514L13704.4965,-3668.1436L13704.4382,-3668.1332L13704.4035,-3668.122L13704.2559,-3668.0705L13704.2153,-3668.0547L13704.1547,-3668.0281L13704.1182,-3668.0103L13704.0745,-3667.9874L13703.9736,-3667.9291L13703.8903,-3667.8728L13703.8114,-3667.8124L13703.7214,-3667.7323L13703.6747,-3667.6873L13703.6704,-3667.6832L13703.5449,-3667.55L13703.5069,-3667.5096L13703.4112,-3667.4119L13703.4061,-3667.4049L13703.3629,-3667.3485L13703.3199,-3667.2869L13703.2902,-3667.2461L13703.2453,-3667.1766L13703.2358,-3667.1638L13703.1686,-3667.0686L13703.1243,-3667.0115L13703.1009,-3666.984L13703.0903,-3666.9718L13703.0593,-3666.9349L13703.0406,-3666.9092L13703.0344,-3666.9036L13703.0299,-3666.8984L13703.0277,-3666.8955L13703.0248,-3666.8926L13703.0123,-3666.8799L13702.9964,-3666.8617L13702.9689,-3666.8326L13702.9413,-3666.8034L13702.8327,-3666.7024L13702.6987,-3666.5869L13702.625,-3666.5305L13702.595,-3666.5075L13702.5188,-3666.4565L13702.4336,-3666.3997L13702.3446,-3666.3465L13702.245,-3666.2896L13702.1484,-3666.2409"/>
<path content="1,宮城交通（株）,エトアール,1.0,1.0,1.0," xlink:title="1" d="M13702.1484,-3666.2409L13702.245,-3666.2896L13702.3446,-3666.3465L13702.4336,-3666.3997L13702.5188,-3666.4565L13702.595,-3666.5075L13702.625,-3666.5305L13702.6987,-3666.5869L13702.8327,-3666.7024L13702.9413,-3666.8034L13702.9689,-3666.8326L13702.9964,-3666.8617L13703.0123,-3666.8799L13703.0248,-3666.8926L13703.0277,-3666.8955L13703.0299,-3666.8984L13703.0344,-3666.9036L13703.0406,-3666.9092L13703.0593,-3666.9349L13703.0903,-3666.9718L13703.1009,-3666.984L13703.1243,-3667.0115L13703.1686,-3667.0686L13703.2358,-3667.1638L13703.2453,-3667.1766L13703.2902,-3667.2461L13703.3199,-3667.2869L13703.3629,-3667.3485L13703.4061,-3667.4049L13703.4112,-3667.4119L13703.5069,-3667.5096L13703.5449,-3667.55L13703.6704,-3667.6832L13703.6747,-3667.6873L13703.7214,-3667.7323L13703.8114,-3667.8124L13703.8903,-3667.8728L13703.9736,-3667.9291L13704.0745,-3667.9874L13704.1182,-3668.0103L13704.1547,-3668.0281L13704.2153,-3668.0547L13704.2559,-3668.0705L13704.4035,-3668.122L13704.4382,-3668.1332L13704.4965,-3668.1436L13704.5531,-3668.1514L13704.5684,-3668.1538L13704.5826,-3668.1551L13704.6182,-3668.1581L13704.6937,-3668.1597L13704.7711,-3668.1568L13704.8721,-3668.1539L13704.9389,-3668.1554L13704.993,-3668.1601L13705.0852,-3668.1697L13705.1488,-3668.1821L13705.1809,-3668.19L13705.2065,-3668.198L13705.2441,-3668.2131L13705.2859,-3668.2347L13705.3141,-3668.2542L13705.3689,-3668.2986L13705.4833,-3668.4007L13705.6128,-3668.5153L13705.6208,-3668.5218L13705.6963,-3668.5825L13705.7971,-3668.6594L13705.8516,-3668.6981L13705.885,-3668.7201L13705.9203,-3668.7405L13706.0028,-3668.7852L13706.0968,-3668.8333L13706.1555,-3668.8599L13706.2286,-3668.8886L13706.348,-3668.9334L13706.4294,-3668.9598L13706.5027,-3668.9792L13706.543,-3668.9877"/>
<path content="1,富山地方鉄道（株）,京都・大阪（高速バス）,4.0,4.0,4.0," xlink:title="1" d="M13706.543,-3668.9877L13706.5027,-3668.9792L13706.4294,-3668.9598L13706.348,-3668.9334L13706.2286,-3668.8886L13706.1555,-3668.8599L13706.0968,-3668.8333L13706.0028,-3668.7852L13705.9203,-3668.7405L13705.885,-3668.7201L13705.8516,-3668.6981L13705.7971,-3668.6594L13705.6963,-3668.5825L13705.6208,-3668.5218L13705.6128,-3668.5153L13705.4833,-3668.4007L13705.3689,-3668.2986L13705.3141,-3668.2542L13705.2859,-3668.2347L13705.2441,-3668.2131L13705.2065,-3668.198L13705.1809,-3668.19L13705.1488,-3668.1821L13705.0852,-3668.1697L13704.993,-3668.1601L13704.9389,-3668.1554L13704.8721,-3668.1539L13704.7711,-3668.1568L13704.6937,-3668.1597L13704.6182,-3668.1581L13704.5826,-3668.1551L13704.5684,-3668.1538L13704.5531,-3668.1514L13704.4965,-3668.1436L13704.4382,-3668.1332L13704.4035,-3668.122L13704.2559,-3668.0705L13704.2153,-3668.0547L13704.1547,-3668.0281L13704.1182,-3668.0103L13704.0745,-3667.9874L13703.9736,-3667.9291L13703.8903,-3667.8728L13703.8114,-3667.8124L13703.7214,-3667.7323L13703.6747,-3667.6873L13703.6704,-3667.6832L13703.5449,-3667.55L13703.5069,-3667.5096L13703.4112,-3667.4119L13703.4061,-3667.4049L13703.3629,-3667.3485L13703.3199,-3667.2869L13703.2902,-3667.2461L13703.2453,-3667.1766L13703.2358,-3667.1638L13703.1686,-3667.0686L13703.1243,-3667.0115L13703.1009,-3666.984L13703.0903,-3666.9718L13703.0593,-3666.9349L13703.0406,-3666.9092L13703.0344,-3666.9036L13703.0299,-3666.8984L13703.0277,-3666.8955L13703.0248,-3666.8926L13703.0123,-3666.8799L13702.9964,-3666.8617L13702.9689,-3666.8326L13702.9413,-3666.8034L13702.8327,-3666.7024L13702.6987,-3666.5869L13702.625,-3666.5305L13702.595,-3666.5075L13702.5188,-3666.4565L13702.4336,-3666.3997L13702.3446,-3666.3465L13702.245,-3666.2896L13702.1484,-3666.2409"/>
<path content="1,富山地方鉄道（株）,名古屋（高速バス）,6.0,6.0,6.0," xlink:title="1" d="M13706.543,-3668.9877L13706.5027,-3668.9792L13706.4294,-3668.9598L13706.348,-3668.9334L13706.2286,-3668.8886L13706.1555,-3668.8599L13706.0968,-3668.8333L13706.0028,-3668.7852L13705.9203,-3668.7405L13705.885,-3668.7201L13705.8516,-3668.6981L13705.7971,-3668.6594L13705.6963,-3668.5825L13705.6208,-3668.5218L13705.6128,-3668.5153L13705.4833,-3668.4007L13705.3689,-3668.2986L13705.3141,-3668.2542L13705.2859,-3668.2347L13705.2441,-3668.2131L13705.2065,-3668.198L13705.1809,-3668.19L13705.1488,-3668.1821L13705.0852,-3668.1697L13704.993,-3668.1601L13704.9389,-3668.1554L13704.8721,-3668.1539L13704.7711,-3668.1568L13704.6937,-3668.1597L13704.6182,-3668.1581L13704.5826,-3668.1551L13704.5684,-3668.1538L13704.5531,-3668.1514L13704.4965,-3668.1436L13704.4382,-3668.1332L13704.4035,-3668.122L13704.2559,-3668.0705L13704.2153,-3668.0547L13704.1547,-3668.0281L13704.1182,-3668.0103L13704.0745,-3667.9874L13703.9736,-3667.9291L13703.8903,-3667.8728L13703.8114,-3667.8124L13703.7214,-3667.7323L13703.6747,-3667.6873L13703.6704,-3667.6832L13703.5449,-3667.55L13703.5069,-3667.5096L13703.4112,-3667.4119L13703.4061,-3667.4049L13703.3629,-3667.3485L13703.3199,-3667.2869L13703.2902,-3667.2461L13703.2453,-3667.1766L13703.2358,-3667.1638L13703.1686,-3667.0686L13703.1243,-3667.0115L13703.1009,-3666.984L13703.0903,-3666.9718L13703.0593,-3666.9349L13703.0406,-3666.9092L13703.0344,-3666.9036L13703.0299,-3666.8984L13703.0277,-3666.8955L13703.0248,-3666.8926L13703.0123,-3666.8799L13702.9964,-3666.8617L13702.9689,-3666.8326L13702.9413,-3666.8034L13702.8327,-3666.7024L13702.6987,-3666.5869L13702.625,-3666.5305L13702.595,-3666.5075L13702.5188,-3666.4565L13702.4336,-3666.3997L13702.3446,-3666.3465L13702.245,-3666.2896L13702.1484,-3666.2409"/>
<path content="1,富山地方鉄道（株）,県内高速（城端線）,3.0,2.0,2.0," xlink:title="1" d="M13702.1484,-3666.2409L13702.245,-3666.2896L13702.3446,-3666.3465L13702.4336,-3666.3997L13702.5188,-3666.4565L13702.595,-3666.5075L13702.625,-3666.5305L13702.6987,-3666.5869L13702.8327,-3666.7024L13702.9413,-3666.8034L13702.9689,-3666.8326L13702.9964,-3666.8617L13703.0123,-3666.8799L13703.0248,-3666.8926L13703.0277,-3666.8955L13703.0299,-3666.8984L13703.0344,-3666.9036L13703.0406,-3666.9092L13703.0593,-3666.9349L13703.0903,-3666.9718L13703.1009,-3666.984L13703.1243,-3667.0115L13703.1686,-3667.0686L13703.2358,-3667.1638L13703.2453,-3667.1766L13703.2902,-3667.2461L13703.3199,-3667.2869L13703.3629,-3667.3485L13703.4061,-3667.4049L13703.4112,-3667.4119L13703.5069,-3667.5096L13703.5449,-3667.55L13703.6704,-3667.6832L13703.6747,-3667.6873L13703.7214,-3667.7323L13703.8114,-3667.8124L13703.8903,-3667.8728L13703.9736,-3667.9291L13704.0745,-3667.9874L13704.1182,-3668.0103L13704.1547,-3668.0281L13704.2153,-3668.0547L13704.2559,-3668.0705L13704.4035,-3668.122L13704.4382,-3668.1332L13704.4965,-3668.1436L13704.5531,-3668.1514L13704.5684,-3668.1538L13704.5826,-3668.1551L13704.6182,-3668.1581L13704.6937,-3668.1597L13704.7711,-3668.1568L13704.8721,-3668.1539L13704.9389,-3668.1554L13704.993,-3668.1601L13705.0852,-3668.1697L13705.1488,-3668.1821L13705.1809,-3668.19L13705.2065,-3668.198L13705.2441,-3668.2131L13705.2859,-3668.2347L13705.3141,-3668.2542L13705.3689,-3668.2986L13705.4833,-3668.4007L13705.6128,-3668.5153L13705.6208,-3668.5218L13705.6963,-3668.5825L13705.7971,-3668.6594L13705.8516,-3668.6981L13705.885,-3668.7201L13705.9203,-3668.7405L13706.0028,-3668.7852L13706.0968,-3668.8333L13706.1555,-3668.8599L13706.2286,-3668.8886L13706.348,-3668.9334L13706.4294,-3668.9598L13706.5027,-3668.9792L13706.543,-3668.9877"/>
<path content="1,富山地方鉄道（株）,金沢（高速バス）,16.0,20.0,20.0," xlink:title="1" d="M13706.543,-3668.9877L13706.5027,-3668.9792L13706.4294,-3668.9598L13706.348,-3668.9334L13706.2286,-3668.8886L13706.1555,-3668.8599L13706.0968,-3668.8333L13706.0028,-3668.7852L13705.9203,-3668.7405L13705.885,-3668.7201L13705.8516,-3668.6981L13705.7971,-3668.6594L13705.6963,-3668.5825L13705.6208,-3668.5218L13705.6128,-3668.5153L13705.4833,-3668.4007L13705.3689,-3668.2986L13705.3141,-3668.2542L13705.2859,-3668.2347L13705.2441,-3668.2131L13705.2065,-3668.198L13705.1809,-3668.19L13705.1488,-3668.1821L13705.0852,-3668.1697L13704.993,-3668.1601L13704.9389,-3668.1554L13704.8721,-3668.1539L13704.7711,-3668.1568L13704.6937,-3668.1597L13704.6182,-3668.1581L13704.5826,-3668.1551L13704.5684,-3668.1538L13704.5531,-3668.1514L13704.4965,-3668.1436L13704.4382,-3668.1332L13704.4035,-3668.122L13704.2559,-3668.0705L13704.2153,-3668.0547L13704.1547,-3668.0281L13704.1182,-3668.0103L13704.0745,-3667.9874L13703.9736,-3667.9291L13703.8903,-3667.8728L13703.8114,-3667.8124L13703.7214,-3667.7323L13703.6747,-3667.6873L13703.6704,-3667.6832L13703.5449,-3667.55L13703.5069,-3667.5096L13703.4112,-3667.4119L13703.4061,-3667.4049L13703.3629,-3667.3485L13703.3199,-3667.2869L13703.2902,-3667.2461L13703.2453,-3667.1766L13703.2358,-3667.1638L13703.1686,-3667.0686L13703.1243,-3667.0115L13703.1009,-3666.984L13703.0903,-3666.9718L13703.0593,-3666.9349L13703.0406,-3666.9092L13703.0344,-3666.9036L13703.0299,-3666.8984L13703.0277,-3666.8955L13703.0248,-3666.8926L13703.0123,-3666.8799L13702.9964,-3666.8617L13702.9689,-3666.8326L13702.9413,-3666.8034L13702.8327,-3666.7024L13702.6987,-3666.5869L13702.625,-3666.5305L13702.595,-3666.5075L13702.5188,-3666.4565L13702.4336,-3666.3997L13702.3446,-3666.3465L13702.245,-3666.2896L13702.1484,-3666.2409"/>
<path content="1,山交バス（株）,アルカディア号,1.0,1.0,1.0," xlink:title="1" d="M13702.1484,-3666.2409L13702.245,-3666.2896L13702.3446,-3666.3465L13702.4336,-3666.3997L13702.5188,-3666.4565L13702.595,-3666.5075L13702.625,-3666.5305L13702.6987,-3666.5869L13702.8327,-3666.7024L13702.9413,-3666.8034L13702.9689,-3666.8326L13702.9964,-3666.8617L13703.0123,-3666.8799L13703.0248,-3666.8926L13703.0277,-3666.8955L13703.0299,-3666.8984L13703.0344,-3666.9036L13703.0406,-3666.9092L13703.0593,-3666.9349L13703.0903,-3666.9718L13703.1009,-3666.984L13703.1243,-3667.0115L13703.1686,-3667.0686L13703.2358,-3667.1638L13703.2453,-3667.1766L13703.2902,-3667.2461L13703.3199,-3667.2869L13703.3629,-3667.3485L13703.4061,-3667.4049L13703.4112,-3667.4119L13703.5069,-3667.5096L13703.5449,-3667.55L13703.6704,-3667.6832L13703.6747,-3667.6873L13703.7214,-3667.7323L13703.8114,-3667.8124L13703.8903,-3667.8728L13703.9736,-3667.9291L13704.0745,-3667.9874L13704.1182,-3668.0103L13704.1547,-3668.0281L13704.2153,-3668.0547L13704.2559,-3668.0705L13704.4035,-3668.122L13704.4382,-3668.1332L13704.4965,-3668.1436L13704.5531,-3668.1514L13704.5684,-3668.1538L13704.5826,-3668.1551L13704.6182,-3668.1581L13704.6937,-3668.1597L13704.7711,-3668.1568L13704.8721,-3668.1539L13704.9389,-3668.1554L13704.993,-3668.1601L13705.0852,-3668.1697L13705.1488,-3668.1821L13705.1809,-3668.19L13705.2065,-3668.198L13705.2441,-3668.2131L13705.2859,-3668.2347L13705.3141,-3668.2542L13705.3689,-3668.2986L13705.4833,-3668.4007L13705.6128,-3668.5153L13705.6208,-3668.5218L13705.6963,-3668.5825L13705.7971,-3668.6594L13705.8516,-3668.6981L13705.885,-3668.7201L13705.9203,-3668.7405L13706.0028,-3668.7852L13706.0968,-3668.8333L13706.1555,-3668.8599L13706.2286,-3668.8886L13706.348,-3668.9334L13706.4294,-3668.9598L13706.5027,-3668.9792L13706.543,-3668.9877"/>
<path content="1,新潟交通（株）・北陸鉄道（株）,金沢高速バス,2.0,2.0,2.0," xlink:title="1" d="M13702.1484,-3666.2409L13702.245,-3666.2896L13702.3446,-3666.3465L13702.4336,-3666.3997L13702.5188,-3666.4565L13702.595,-3666.5075L13702.625,-3666.5305L13702.6987,-3666.5869L13702.8327,-3666.7024L13702.9413,-3666.8034L13702.9689,-3666.8326L13702.9964,-3666.8617L13703.0123,-3666.8799L13703.0248,-3666.8926L13703.0277,-3666.8955L13703.0299,-3666.8984L13703.0344,-3666.9036L13703.0406,-3666.9092L13703.0593,-3666.9349L13703.0903,-3666.9718L13703.1009,-3666.984L13703.1243,-3667.0115L13703.1686,-3667.0686L13703.2358,-3667.1638L13703.2453,-3667.1766L13703.2902,-3667.2461L13703.3199,-3667.2869L13703.3629,-3667.3485L13703.4061,-3667.4049L13703.4112,-3667.4119L13703.5069,-3667.5096L13703.5449,-3667.55L13703.6704,-3667.6832L13703.6747,-3667.6873L13703.7214,-3667.7323L13703.8114,-3667.8124L13703.8903,-3667.8728L13703.9736,-3667.9291L13704.0745,-3667.9874L13704.1182,-3668.0103L13704.1547,-3668.0281L13704.2153,-3668.0547L13704.2559,-3668.0705L13704.4035,-3668.122L13704.4382,-3668.1332L13704.4965,-3668.1436L13704.5531,-3668.1514L13704.5684,-3668.1538L13704.5826,-3668.1551L13704.6182,-3668.1581L13704.6937,-3668.1597L13704.7711,-3668.1568L13704.8721,-3668.1539L13704.9389,-3668.1554L13704.993,-3668.1601L13705.0852,-3668.1697L13705.1488,-3668.1821L13705.1809,-3668.19L13705.2065,-3668.198L13705.2441,-3668.2131L13705.2859,-3668.2347L13705.3141,-3668.2542L13705.3689,-3668.2986L13705.4833,-3668.4007L13705.6128,-3668.5153L13705.6208,-3668.5218L13705.6963,-3668.5825L13705.7971,-3668.6594L13705.8516,-3668.6981L13705.885,-3668.7201L13705.9203,-3668.7405L13706.0028,-3668.7852L13706.0968,-3668.8333L13706.1555,-3668.8599L13706.2286,-3668.8886L13706.348,-3668.9334L13706.4294,-3668.9598L13706.5027,-3668.9792L13706.543,-3668.9877"/>
<path content="1,新潟交通（株）・阪急バス（株）,京都・大阪高速バス,1.0,1.0,1.0," xlink:title="1" d="M13702.1484,-3666.2409L13702.245,-3666.2896L13702.3446,-3666.3465L13702.4336,-3666.3997L13702.5188,-3666.4565L13702.595,-3666.5075L13702.625,-3666.5305L13702.6987,-3666.5869L13702.8327,-3666.7024L13702.9413,-3666.8034L13702.9689,-3666.8326L13702.9964,-3666.8617L13703.0123,-3666.8799L13703.0248,-3666.8926L13703.0277,-3666.8955L13703.0299,-3666.8984L13703.0344,-3666.9036L13703.0406,-3666.9092L13703.0593,-3666.9349L13703.0903,-3666.9718L13703.1009,-3666.984L13703.1243,-3667.0115L13703.1686,-3667.0686L13703.2358,-3667.1638L13703.2453,-3667.1766L13703.2902,-3667.2461L13703.3199,-3667.2869L13703.3629,-3667.3485L13703.4061,-3667.4049L13703.4112,-3667.4119L13703.5069,-3667.5096L13703.5449,-3667.55L13703.6704,-3667.6832L13703.6747,-3667.6873L13703.7214,-3667.7323L13703.8114,-3667.8124L13703.8903,-3667.8728L13703.9736,-3667.9291L13704.0745,-3667.9874L13704.1182,-3668.0103L13704.1547,-3668.0281L13704.2153,-3668.0547L13704.2559,-3668.0705L13704.4035,-3668.122L13704.4382,-3668.1332L13704.4965,-3668.1436L13704.5531,-3668.1514L13704.5684,-3668.1538L13704.5826,-3668.1551L13704.6182,-3668.1581L13704.6937,-3668.1597L13704.7711,-3668.1568L13704.8721,-3668.1539L13704.9389,-3668.1554L13704.993,-3668.1601L13705.0852,-3668.1697L13705.1488,-3668.1821L13705.1809,-3668.19L13705.2065,-3668.198L13705.2441,-3668.2131L13705.2859,-3668.2347L13705.3141,-3668.2542L13705.3689,-3668.2986L13705.4833,-3668.4007L13705.6128,-3668.5153L13705.6208,-3668.5218L13705.6963,-3668.5825L13705.7971,-3668.6594L13705.8516,-3668.6981L13705.885,-3668.7201L13705.9203,-3668.7405L13706.0028,-3668.7852L13706.0968,-3668.8333L13706.1555,-3668.8599L13706.2286,-3668.8886L13706.348,-3668.9334L13706.4294,-3668.9598L13706.5027,-3668.9792L13706.543,-3668.9877"/>
<path content="1,日本中央バス（株）,シルクライナー,5.0,5.0,5.0," xlink:title="1" d="M13706.543,-3668.9877L13706.5027,-3668.9792L13706.4294,-3668.9598L13706.348,-3668.9334L13706.2286,-3668.8886L13706.1555,-3668.8599L13706.0968,-3668.8333L13706.0028,-3668.7852L13705.9203,-3668.7405L13705.885,-3668.7201L13705.8516,-3668.6981L13705.7971,-3668.6594L13705.6963,-3668.5825L13705.6208,-3668.5218L13705.6128,-3668.5153L13705.4833,-3668.4007L13705.3689,-3668.2986L13705.3141,-3668.2542L13705.2859,-3668.2347L13705.2441,-3668.2131L13705.2065,-3668.198L13705.1809,-3668.19L13705.1488,-3668.1821L13705.0852,-3668.1697L13704.993,-3668.1601L13704.9389,-3668.1554L13704.8721,-3668.1539L13704.7711,-3668.1568L13704.6937,-3668.1597L13704.6182,-3668.1581L13704.5826,-3668.1551L13704.5684,-3668.1538L13704.5531,-3668.1514L13704.4965,-3668.1436L13704.4382,-3668.1332L13704.4035,-3668.122L13704.2559,-3668.0705L13704.2153,-3668.0547L13704.1547,-3668.0281L13704.1182,-3668.0103L13704.0745,-3667.9874L13703.9736,-3667.9291L13703.8903,-3667.8728L13703.8114,-3667.8124L13703.7214,-3667.7323L13703.6747,-3667.6873L13703.6704,-3667.6832L13703.5449,-3667.55L13703.5069,-3667.5096L13703.4112,-3667.4119L13703.4061,-3667.4049L13703.3629,-3667.3485L13703.3199,-3667.2869L13703.2902,-3667.2461L13703.2453,-3667.1766L13703.2358,-3667.1638L13703.1686,-3667.0686L13703.1243,-3667.0115L13703.1009,-3666.984L13703.0903,-3666.9718L13703.0593,-3666.9349L13703.0406,-3666.9092L13703.0344,-3666.9036L13703.0299,-3666.8984L13703.0277,-3666.8955L13703.0248,-3666.8926L13703.0123,-3666.8799L13702.9964,-3666.8617L13702.9689,-3666.8326L13702.9413,-3666.8034L13702.8327,-3666.7024L13702.6987,-3666.5869L13702.625,-3666.5305L13702.595,-3666.5075L13702.5188,-3666.4565L13702.4336,-3666.3997L13702.3446,-3666.3465L13702.245,-3666.2896L13702.1484,-3666.2409"/>
<path content="1,日本中央バス（株）,東京・さいたま～富山・金沢線,1.0,1.0,1.0," xlink:title="1" d="M13706.543,-3668.9877L13706.5027,-3668.9792L13706.4294,-3668.9598L13706.348,-3668.9334L13706.2286,-3668.8886L13706.1555,-3668.8599L13706.0968,-3668.8333L13706.0028,-3668.7852L13705.9203,-3668.7405L13705.885,-3668.7201L13705.8516,-3668.6981L13705.7971,-3668.6594L13705.6963,-3668.5825L13705.6208,-3668.5218L13705.6128,-3668.5153L13705.4833,-3668.4007L13705.3689,-3668.2986L13705.3141,-3668.2542L13705.2859,-3668.2347L13705.2441,-3668.2131L13705.2065,-3668.198L13705.1809,-3668.19L13705.1488,-3668.1821L13705.0852,-3668.1697L13704.993,-3668.1601L13704.9389,-3668.1554L13704.8721,-3668.1539L13704.7711,-3668.1568L13704.6937,-3668.1597L13704.6182,-3668.1581L13704.5826,-3668.1551L13704.5684,-3668.1538L13704.5531,-3668.1514L13704.4965,-3668.1436L13704.4382,-3668.1332L13704.4035,-3668.122L13704.2559,-3668.0705L13704.2153,-3668.0547L13704.1547,-3668.0281L13704.1182,-3668.0103L13704.0745,-3667.9874L13703.9736,-3667.9291L13703.8903,-3667.8728L13703.8114,-3667.8124L13703.7214,-3667.7323L13703.6747,-3667.6873L13703.6704,-3667.6832L13703.5449,-3667.55L13703.5069,-3667.5096L13703.4112,-3667.4119L13703.4061,-3667.4049L13703.3629,-3667.3485L13703.3199,-3667.2869L13703.2902,-3667.2461L13703.2453,-3667.1766L13703.2358,-3667.1638L13703.1686,-3667.0686L13703.1243,-3667.0115L13703.1009,-3666.984L13703.0903,-3666.9718L13703.0593,-3666.9349L13703.0406,-3666.9092L13703.0344,-3666.9036L13703.0299,-3666.8984L13703.0277,-3666.8955L13703.0248,-3666.8926L13703.0123,-3666.8799L13702.9964,-3666.8617L13702.9689,-3666.8326L13702.9413,-3666.8034L13702.8327,-3666.7024L13702.6987,-3666.5869L13702.625,-3666.5305L13702.595,-3666.5075L13702.5188,-3666.4565L13702.4336,-3666.3997L13702.3446,-3666.3465L13702.245,-3666.2896L13702.1484,-3666.2409"/>
<path content="1,西東京バス（株）,001,2.0,2.0,2.0," xlink:title="1" d="M13706.543,-3668.9877L13706.5027,-3668.9792L13706.4294,-3668.9598L13706.348,-3668.9334L13706.2286,-3668.8886L13706.1555,-3668.8599L13706.0968,-3668.8333L13706.0028,-3668.7852L13705.9203,-3668.7405L13705.885,-3668.7201L13705.8516,-3668.6981L13705.7971,-3668.6594L13705.6963,-3668.5825L13705.6208,-3668.5218L13705.6128,-3668.5153L13705.4833,-3668.4007L13705.3689,-3668.2986L13705.3141,-3668.2542L13705.2859,-3668.2347L13705.2441,-3668.2131L13705.2065,-3668.198L13705.1809,-3668.19L13705.1488,-3668.1821L13705.0852,-3668.1697L13704.993,-3668.1601L13704.9389,-3668.1554L13704.8721,-3668.1539L13704.7711,-3668.1568L13704.6937,-3668.1597L13704.6182,-3668.1581L13704.5826,-3668.1551L13704.5684,-3668.1538L13704.5531,-3668.1514L13704.4965,-3668.1436L13704.4382,-3668.1332L13704.4035,-3668.122L13704.2559,-3668.0705L13704.2153,-3668.0547L13704.1547,-3668.0281L13704.1182,-3668.0103L13704.0745,-3667.9874L13703.9736,-3667.9291L13703.8903,-3667.8728L13703.8114,-3667.8124L13703.7214,-3667.7323L13703.6747,-3667.6873L13703.6704,-3667.6832L13703.5449,-3667.55L13703.5069,-3667.5096L13703.4112,-3667.4119L13703.4061,-3667.4049L13703.3629,-3667.3485L13703.3199,-3667.2869L13703.2902,-3667.2461L13703.2453,-3667.1766L13703.2358,-3667.1638L13703.1686,-3667.0686L13703.1243,-3667.0115L13703.1009,-3666.984L13703.0903,-3666.9718L13703.0593,-3666.9349L13703.0406,-3666.9092L13703.0344,-3666.9036L13703.0299,-3666.8984L13703.0277,-3666.8955L13703.0248,-3666.8926L13703.0123,-3666.8799L13702.9964,-3666.8617L13702.9689,-3666.8326L13702.9413,-3666.8034L13702.8327,-3666.7024L13702.6987,-3666.5869L13702.625,-3666.5305L13702.595,-3666.5075L13702.5188,-3666.4565L13702.4336,-3666.3997L13702.3446,-3666.3465L13702.245,-3666.2896L13702.1484,-3666.2409"/>
<path content="1,西武バス（株）,氷見線,1.0,1.0,1.0," xlink:title="1" d="M13706.543,-3668.9877L13706.5027,-3668.9792L13706.4294,-3668.9598L13706.348,-3668.9334L13706.2286,-3668.8886L13706.1555,-3668.8599L13706.0968,-3668.8333L13706.0028,-3668.7852L13705.9203,-3668.7405L13705.885,-3668.7201L13705.8516,-3668.6981L13705.7971,-3668.6594L13705.6963,-3668.5825L13705.6208,-3668.5218L13705.6128,-3668.5153L13705.4833,-3668.4007L13705.3689,-3668.2986L13705.3141,-3668.2542L13705.2859,-3668.2347L13705.2441,-3668.2131L13705.2065,-3668.198L13705.1809,-3668.19L13705.1488,-3668.1821L13705.0852,-3668.1697L13704.993,-3668.1601L13704.9389,-3668.1554L13704.8721,-3668.1539L13704.7711,-3668.1568L13704.6937,-3668.1597L13704.6182,-3668.1581L13704.5826,-3668.1551L13704.5684,-3668.1538L13704.5531,-3668.1514L13704.4965,-3668.1436L13704.4382,-3668.1332L13704.4035,-3668.122L13704.2559,-3668.0705L13704.2153,-3668.0547L13704.1547,-3668.0281L13704.1182,-3668.0103L13704.0745,-3667.9874L13703.9736,-3667.9291L13703.8903,-3667.8728L13703.8114,-3667.8124L13703.7214,-3667.7323L13703.6747,-3667.6873L13703.6704,-3667.6832L13703.5449,-3667.55L13703.5069,-3667.5096L13703.4112,-3667.4119L13703.4061,-3667.4049L13703.3629,-3667.3485L13703.3199,-3667.2869L13703.2902,-3667.2461L13703.2453,-3667.1766L13703.2358,-3667.1638L13703.1686,-3667.0686L13703.1243,-3667.0115L13703.1009,-3666.984L13703.0903,-3666.9718L13703.0593,-3666.9349L13703.0406,-3666.9092L13703.0344,-3666.9036L13703.0299,-3666.8984L13703.0277,-3666.8955L13703.0248,-3666.8926L13703.0123,-3666.8799L13702.9964,-3666.8617L13702.9689,-3666.8326L13702.9413,-3666.8034L13702.8327,-3666.7024L13702.6987,-3666.5869L13702.625,-3666.5305L13702.595,-3666.5075L13702.5188,-3666.4565L13702.4336,-3666.3997L13702.3446,-3666.3465L13702.245,-3666.2896L13702.1484,-3666.2409"/>
<path content="1,西武バス（株）,金沢線,2.0,2.0,2.0," xlink:title="1" d="M13706.543,-3668.9877L13706.5027,-3668.9792L13706.4294,-3668.9598L13706.348,-3668.9334L13706.2286,-3668.8886L13706.1555,-3668.8599L13706.0968,-3668.8333L13706.0028,-3668.7852L13705.9203,-3668.7405L13705.885,-3668.7201L13705.8516,-3668.6981L13705.7971,-3668.6594L13705.6963,-3668.5825L13705.6208,-3668.5218L13705.6128,-3668.5153L13705.4833,-3668.4007L13705.3689,-3668.2986L13705.3141,-3668.2542L13705.2859,-3668.2347L13705.2441,-3668.2131L13705.2065,-3668.198L13705.1809,-3668.19L13705.1488,-3668.1821L13705.0852,-3668.1697L13704.993,-3668.1601L13704.9389,-3668.1554L13704.8721,-3668.1539L13704.7711,-3668.1568L13704.6937,-3668.1597L13704.6182,-3668.1581L13704.5826,-3668.1551L13704.5684,-3668.1538L13704.5531,-3668.1514L13704.4965,-3668.1436L13704.4382,-3668.1332L13704.4035,-3668.122L13704.2559,-3668.0705L13704.2153,-3668.0547L13704.1547,-3668.0281L13704.1182,-3668.0103L13704.0745,-3667.9874L13703.9736,-3667.9291L13703.8903,-3667.8728L13703.8114,-3667.8124L13703.7214,-3667.7323L13703.6747,-3667.6873L13703.6704,-3667.6832L13703.5449,-3667.55L13703.5069,-3667.5096L13703.4112,-3667.4119L13703.4061,-3667.4049L13703.3629,-3667.3485L13703.3199,-3667.2869L13703.2902,-3667.2461L13703.2453,-3667.1766L13703.2358,-3667.1638L13703.1686,-3667.0686L13703.1243,-3667.0115L13703.1009,-3666.984L13703.0903,-3666.9718L13703.0593,-3666.9349L13703.0406,-3666.9092L13703.0344,-3666.9036L13703.0299,-3666.8984L13703.0277,-3666.8955L13703.0248,-3666.8926L13703.0123,-3666.8799L13702.9964,-3666.8617L13702.9689,-3666.8326L13702.9413,-3666.8034L13702.8327,-3666.7024L13702.6987,-3666.5869L13702.625,-3666.5305L13702.595,-3666.5075L13702.5188,-3666.4565L13702.4336,-3666.3997L13702.3446,-3666.3465L13702.245,-3666.2896L13702.1484,-3666.2409"/>
<path content="1,越後交通（株）,高速バス越後（三条・長岡・柏崎～京都・大阪線）,1.0,1.0,1.0," xlink:title="1" d="M13706.543,-3668.9877L13706.5027,-3668.9792L13706.4294,-3668.9598L13706.348,-3668.9334L13706.2286,-3668.8886L13706.1555,-3668.8599L13706.0968,-3668.8333L13706.0028,-3668.7852L13705.9203,-3668.7405L13705.885,-3668.7201L13705.8516,-3668.6981L13705.7971,-3668.6594L13705.6963,-3668.5825L13705.6208,-3668.5218L13705.6128,-3668.5153L13705.4833,-3668.4007L13705.3689,-3668.2986L13705.3141,-3668.2542L13705.2859,-3668.2347L13705.2441,-3668.2131L13705.2065,-3668.198L13705.1809,-3668.19L13705.1488,-3668.1821L13705.0852,-3668.1697L13704.993,-3668.1601L13704.9389,-3668.1554L13704.8721,-3668.1539L13704.7711,-3668.1568L13704.6937,-3668.1597L13704.6182,-3668.1581L13704.5826,-3668.1551L13704.5684,-3668.1538L13704.5531,-3668.1514L13704.4965,-3668.1436L13704.4382,-3668.1332L13704.4035,-3668.122L13704.2559,-3668.0705L13704.2153,-3668.0547L13704.1547,-3668.0281L13704.1182,-3668.0103L13704.0745,-3667.9874L13703.9736,-3667.9291L13703.8903,-3667.8728L13703.8114,-3667.8124L13703.7214,-3667.7323L13703.6747,-3667.6873L13703.6704,-3667.6832L13703.5449,-3667.55L13703.5069,-3667.5096L13703.4112,-3667.4119L13703.4061,-3667.4049L13703.3629,-3667.3485L13703.3199,-3667.2869L13703.2902,-3667.2461L13703.2453,-3667.1766L13703.2358,-3667.1638L13703.1686,-3667.0686L13703.1243,-3667.0115L13703.1009,-3666.984L13703.0903,-3666.9718L13703.0593,-3666.9349L13703.0406,-3666.9092L13703.0344,-3666.9036L13703.0299,-3666.8984L13703.0277,-3666.8955L13703.0248,-3666.8926L13703.0123,-3666.8799L13702.9964,-3666.8617L13702.9689,-3666.8326L13702.9413,-3666.8034L13702.8327,-3666.7024L13702.6987,-3666.5869L13702.625,-3666.5305L13702.595,-3666.5075L13702.5188,-3666.4565L13702.4336,-3666.3997L13702.3446,-3666.3465L13702.245,-3666.2896L13702.1484,-3666.2409"/>
<path content="1,近鉄バス（株）,大阪・京都⇔山形,1.0,1.0,1.0," xlink:title="1" d="M13702.1484,-3666.2409L13702.245,-3666.2896L13702.3446,-3666.3465L13702.4336,-3666.3997L13702.5188,-3666.4565L13702.595,-3666.5075L13702.625,-3666.5305L13702.6987,-3666.5869L13702.8327,-3666.7024L13702.9413,-3666.8034L13702.9689,-3666.8326L13702.9964,-3666.8617L13703.0123,-3666.8799L13703.0248,-3666.8926L13703.0277,-3666.8955L13703.0299,-3666.8984L13703.0344,-3666.9036L13703.0406,-3666.9092L13703.0593,-3666.9349L13703.0903,-3666.9718L13703.1009,-3666.984L13703.1243,-3667.0115L13703.1686,-3667.0686L13703.2358,-3667.1638L13703.2453,-3667.1766L13703.2902,-3667.2461L13703.3199,-3667.2869L13703.3629,-3667.3485L13703.4061,-3667.4049L13703.4112,-3667.4119L13703.5069,-3667.5096L13703.5449,-3667.55L13703.6704,-3667.6832L13703.6747,-3667.6873L13703.7214,-3667.7323L13703.8114,-3667.8124L13703.8903,-3667.8728L13703.9736,-3667.9291L13704.0745,-3667.9874L13704.1182,-3668.0103L13704.1547,-3668.0281L13704.2153,-3668.0547L13704.2559,-3668.0705L13704.4035,-3668.122L13704.4382,-3668.1332L13704.4965,-3668.1436L13704.5531,-3668.1514L13704.5684,-3668.1538L13704.5826,-3668.1551L13704.6182,-3668.1581L13704.6937,-3668.1597L13704.7711,-3668.1568L13704.8721,-3668.1539L13704.9389,-3668.1554L13704.993,-3668.1601L13705.0852,-3668.1697L13705.1488,-3668.1821L13705.1809,-3668.19L13705.2065,-3668.198L13705.2441,-3668.2131L13705.2859,-3668.2347L13705.3141,-3668.2542L13705.3689,-3668.2986L13705.4833,-3668.4007L13705.6128,-3668.5153L13705.6208,-3668.5218L13705.6963,-3668.5825L13705.7971,-3668.6594L13705.8516,-3668.6981L13705.885,-3668.7201L13705.9203,-3668.7405L13706.0028,-3668.7852L13706.0968,-3668.8333L13706.1555,-3668.8599L13706.2286,-3668.8886L13706.348,-3668.9334L13706.4294,-3668.9598L13706.5027,-3668.9792L13706.543,-3668.9877"/>
<path content="1,阪急バス（株）,富山行,4.0,4.0,4.0," xlink:title="1" d="M13706.543,-3668.9877L13706.5027,-3668.9792L13706.4294,-3668.9598L13706.348,-3668.9334L13706.2286,-3668.8886L13706.1555,-3668.8599L13706.0968,-3668.8333L13706.0028,-3668.7852L13705.9203,-3668.7405L13705.885,-3668.7201L13705.8516,-3668.6981L13705.7971,-3668.6594L13705.6963,-3668.5825L13705.6208,-3668.5218L13705.6128,-3668.5153L13705.4833,-3668.4007L13705.3689,-3668.2986L13705.3141,-3668.2542L13705.2859,-3668.2347L13705.2441,-3668.2131L13705.2065,-3668.198L13705.1809,-3668.19L13705.1488,-3668.1821L13705.0852,-3668.1697L13704.993,-3668.1601L13704.9389,-3668.1554L13704.8721,-3668.1539L13704.7711,-3668.1568L13704.6937,-3668.1597L13704.6182,-3668.1581L13704.5826,-3668.1551L13704.5684,-3668.1538L13704.5531,-3668.1514L13704.4965,-3668.1436L13704.4382,-3668.1332L13704.4035,-3668.122L13704.2559,-3668.0705L13704.2153,-3668.0547L13704.1547,-3668.0281L13704.1182,-3668.0103L13704.0745,-3667.9874L13703.9736,-3667.9291L13703.8903,-3667.8728L13703.8114,-3667.8124L13703.7214,-3667.7323L13703.6747,-3667.6873L13703.6704,-3667.6832L13703.5449,-3667.55L13703.5069,-3667.5096L13703.4112,-3667.4119L13703.4061,-3667.4049L13703.3629,-3667.3485L13703.3199,-3667.2869L13703.2902,-3667.2461L13703.2453,-3667.1766L13703.2358,-3667.1638L13703.1686,-3667.0686L13703.1243,-3667.0115L13703.1009,-3666.984L13703.0903,-3666.9718L13703.0593,-3666.9349L13703.0406,-3666.9092L13703.0344,-3666.9036L13703.0299,-3666.8984L13703.0277,-3666.8955L13703.0248,-3666.8926L13703.0123,-3666.8799L13702.9964,-3666.8617L13702.9689,-3666.8326L13702.9413,-3666.8034L13702.8327,-3666.7024L13702.6987,-3666.5869L13702.625,-3666.5305L13702.595,-3666.5075L13702.5188,-3666.4565L13702.4336,-3666.3997L13702.3446,-3666.3465L13702.245,-3666.2896L13702.1484,-3666.2409"/>
<path content="1,阪急バス（株）,新潟行（おけさ号）,1.0,1.0,1.0," xlink:title="1" d="M13702.1484,-3666.2409L13702.245,-3666.2896L13702.3446,-3666.3465L13702.4336,-3666.3997L13702.5188,-3666.4565L13702.595,-3666.5075L13702.625,-3666.5305L13702.6987,-3666.5869L13702.8327,-3666.7024L13702.9413,-3666.8034L13702.9689,-3666.8326L13702.9964,-3666.8617L13703.0123,-3666.8799L13703.0248,-3666.8926L13703.0277,-3666.8955L13703.0299,-3666.8984L13703.0344,-3666.9036L13703.0406,-3666.9092L13703.0593,-3666.9349L13703.0903,-3666.9718L13703.1009,-3666.984L13703.1243,-3667.0115L13703.1686,-3667.0686L13703.2358,-3667.1638L13703.2453,-3667.1766L13703.2902,-3667.2461L13703.3199,-3667.2869L13703.3629,-3667.3485L13703.4061,-3667.4049L13703.4112,-3667.4119L13703.5069,-3667.5096L13703.5449,-3667.55L13703.6704,-3667.6832L13703.6747,-3667.6873L13703.7214,-3667.7323L13703.8114,-3667.8124L13703.8903,-3667.8728L13703.9736,-3667.9291L13704.0745,-3667.9874L13704.1182,-3668.0103L13704.1547,-3668.0281L13704.2153,-3668.0547L13704.2559,-3668.0705L13704.4035,-3668.122L13704.4382,-3668.1332L13704.4965,-3668.1436L13704.5531,-3668.1514L13704.5684,-3668.1538L13704.5826,-3668.1551L13704.6182,-3668.1581L13704.6937,-3668.1597L13704.7711,-3668.1568L13704.8721,-3668.1539L13704.9389,-3668.1554L13704.993,-3668.1601L13705.0852,-3668.1697L13705.1488,-3668.1821L13705.1809,-3668.19L13705.2065,-3668.198L13705.2441,-3668.2131L13705.2859,-3668.2347L13705.3141,-3668.2542L13705.3689,-3668.2986L13705.4833,-3668.4007L13705.6128,-3668.5153L13705.6208,-3668.5218L13705.6963,-3668.5825L13705.7971,-3668.6594L13705.8516,-3668.6981L13705.885,-3668.7201L13705.9203,-3668.7405L13706.0028,-3668.7852L13706.0968,-3668.8333L13706.1555,-3668.8599L13706.2286,-3668.8886L13706.348,-3668.9334L13706.4294,-3668.9598L13706.5027,-3668.9792L13706.543,-3668.9877"/>
<path content="2,砺波市,東般若線,4.0,4.0,0.0," xlink:title="2" d="M13702.1484,-3666.6502L13702.1486,-3666.6502L13702.2092,-3666.6497L13702.2178,-3666.6497L13702.2297,-3666.648L13702.287,-3666.6345L13702.331,-3666.6249L13702.3617,-3666.617L13702.3945,-3666.6058L13702.4511,-3666.5849L13702.4476,-3666.5759L13702.4464,-3666.5708L13702.4427,-3666.5539L13702.4399,-3666.5365L13702.4403,-3666.4469L13702.4403,-3666.4368L13702.4408,-3666.3741L13702.4409,-3666.369L13702.4413,-3666.3484L13702.4427,-3666.3067L13702.4427,-3666.2301L13702.4427,-3666.2183L13702.4448,-3666.127L13702.4433,-3666.0134L13702.4399,-3665.9986L13702.4358,-3665.9778L13702.4323,-3665.9705L13702.4239,-3665.944L13702.4148,-3665.9108L13702.4106,-3665.8989L13702.3931,-3665.8409L13702.3904,-3665.8353L13702.3841,-3665.8134L13702.375,-3665.7841L13702.3568,-3665.7255L13702.3484,-3665.6973L13702.3464,-3665.6939L13702.3296,-3665.6416L13702.2996,-3665.5464L13702.2982,-3665.5453L13702.2891,-3665.5132L13702.2848,-3665.5012L13702.2786,-3665.4816L13702.25,-3665.3915L13702.2229,-3665.3132L13702.2179,-3665.293L13702.1935,-3665.2946L13702.183,-3665.2963L13702.1606,-3665.298L13702.1484,-3665.2988"/>
<path content="3,加越能鉄道（株）,イオンモール高岡・済生会病院・泉ヶ丘方面,49.0,52.5,52.5," xlink:title="3" d="M13702.1975,-3669.2763L13702.222,-3669.2634L13702.2689,-3669.2301L13702.2786,-3669.2245L13702.2947,-3669.2132L13702.4101,-3669.1569L13702.6422,-3669.0876L13702.6694,-3669.0842L13702.6578,-3669.0121L13702.6016,-3668.6872L13702.5814,-3668.6805L13702.5576,-3668.6754L13702.5086,-3668.676L13702.5002,-3668.6758L13702.452,-3668.6748L13702.3485,-3668.6726L13702.3374,-3668.6714L13702.2744,-3668.6692L13702.2542,-3668.6681L13702.1891,-3668.6664L13702.1484,-3668.6638"/>
<path content="3,加越能鉄道（株）,イオンモール高岡・済生会病院・泉ヶ丘方面,49.0,52.5,52.5," xlink:title="3" d="M13702.1975,-3669.2763L13702.1906,-3669.2802L13702.1696,-3669.2881L13702.157,-3669.2921L13702.1542,-3669.3433L13702.1528,-3669.3484L13702.1514,-3669.3591L13702.1556,-3669.3782L13702.164,-3669.4064L13702.1675,-3669.4143L13702.1484,-3669.4212"/>
<path content="3,加越能鉄道（株）,イオンモール高岡・済生会病院・泉ヶ丘方面,49.0,52.5,52.5," xlink:title="3" d="M13702.2213,-3669.4336L13702.2122,-3669.4154L13702.1919,-3669.3709L13702.1899,-3669.3596L13702.1899,-3669.3427L13702.1913,-3669.3377L13702.1933,-3669.3202L13702.1968,-3669.3005L13702.1975,-3669.2802L13702.1975,-3669.2763"/>
<path content="3,加越能鉄道（株）,中田町各線,4.8,4.5,4.5," xlink:title="3" d="M13702.1484,-3668.6638L13702.1891,-3668.6664L13702.2542,-3668.6681L13702.2744,-3668.6692L13702.3374,-3668.6714L13702.3485,-3668.6726L13702.452,-3668.6748L13702.5002,-3668.6758L13702.5086,-3668.676L13702.5576,-3668.6754L13702.5814,-3668.6805L13702.6016,-3668.6872"/>
<path content="3,加越能鉄道（株）,中田町各線,4.8,4.5,4.5," xlink:title="3" d="M13702.6016,-3668.6872L13702.6568,-3668.7047L13702.6792,-3668.7103L13702.7128,-3668.7137L13702.7269,-3668.7137L13702.7379,-3668.7137L13702.7666,-3668.7109L13702.8058,-3668.7086L13702.817,-3668.7075L13702.8268,-3668.7071L13702.8638,-3668.7058L13702.9197,-3668.7013L13702.9666,-3668.7013L13702.9812,-3668.7019L13703.033,-3668.7047L13703.0693,-3668.7092L13703.0922,-3668.7108L13703.1204,-3668.7126L13703.1639,-3668.7199L13703.2022,-3668.7244L13703.2687,-3668.7308L13703.2874,-3668.7312L13703.307,-3668.7326L13703.3259,-3668.734L13703.4,-3668.734L13703.4663,-3668.7342L13703.5468,-3668.7346L13703.5643,-3668.7358L13703.6006,-3668.7385L13703.6405,-3668.7408L13703.6622,-3668.7436L13703.709,-3668.7453L13703.7286,-3668.7464L13703.7761,-3668.7526L13703.8146,-3668.7594L13703.8167,-3668.7633L13703.8209,-3668.7661L13703.8516,-3668.7903L13703.8754,-3668.8129L13703.8984,-3668.8337L13703.9299,-3668.8602L13703.9302,-3668.8606L13703.9352,-3668.8669L13703.9383,-3668.8709L13703.9539,-3668.8971L13703.9565,-3668.9018L13703.9789,-3668.9401L13704.0033,-3668.9756L13704.0145,-3668.9914L13704.0519,-3669.0503L13704.0946,-3669.1059L13704.1278,-3669.1513L13704.1522,-3669.1829L13704.1795,-3669.2183L13704.19,-3669.2313L13704.2075,-3669.2509L13704.2278,-3669.2775L13704.2515,-3669.3056L13704.2746,-3669.3299L13704.3137,-3669.358L13704.3249,-3669.3654L13704.3571,-3669.3901L13704.3913,-3669.4222L13704.399,-3669.429L13704.4043,-3669.4336"/>
<path content="3,加越能鉄道（株）,中田町各線,4.8,4.5,4.5," xlink:title="3" d="M13702.2947,-3669.2132L13702.4101,-3669.1569L13702.6422,-3669.0876L13702.6694,-3669.0842L13702.6578,-3669.0121L13702.6317,-3668.8624L13702.6016,-3668.6872"/>
<path content="3,加越能鉄道（株）,中田町各線,4.8,4.5,4.5," xlink:title="3" d="M13702.2947,-3669.2132L13702.3695,-3669.2752L13702.4241,-3669.3208L13702.4779,-3669.3658L13702.5009,-3669.3861L13702.5079,-3669.3906L13702.5107,-3669.3934L13702.517,-3669.3974L13702.545,-3669.421L13702.5606,-3669.4336"/>
<path content="3,加越能鉄道（株）,中田町各線,4.8,4.5,4.5," xlink:title="3" d="M13702.1975,-3669.2763L13702.222,-3669.2634L13702.2689,-3669.2301L13702.2786,-3669.2245L13702.2947,-3669.2132"/>
<path content="3,加越能鉄道（株）,中田町各線,4.8,4.5,4.5," xlink:title="3" d="M13702.1484,-3669.4212L13702.1675,-3669.4143L13702.164,-3669.4064L13702.1556,-3669.3782L13702.1514,-3669.3591L13702.1528,-3669.3484L13702.1542,-3669.3433L13702.157,-3669.2921L13702.1696,-3669.2881L13702.1906,-3669.2802L13702.1975,-3669.2763"/>
<path content="3,加越能鉄道（株）,中田町各線,4.8,4.5,4.5," xlink:title="3" d="M13702.2213,-3669.4336L13702.2122,-3669.4154L13702.1919,-3669.3709L13702.1899,-3669.3596L13702.1899,-3669.3427L13702.1913,-3669.3377L13702.1933,-3669.3202L13702.1968,-3669.3005L13702.1975,-3669.2802L13702.1975,-3669.2763"/>
<path content="3,加越能鉄道（株）,栴檀野線,4.0,3.0,3.0," xlink:title="3" d="M13702.7632,-3665.0391L13702.7836,-3665.0725L13702.8094,-3665.115L13702.8478,-3665.1775L13702.8708,-3665.2113L13702.8862,-3665.2271L13702.9081,-3665.2457L13702.9099,-3665.2473L13702.9267,-3665.2704L13702.9386,-3665.2958L13702.9462,-3665.3127L13702.9679,-3665.3606L13702.9749,-3665.3707L13702.9881,-3665.3825L13703.0419,-3665.4079L13703.0715,-3665.429L13703.0845,-3665.4417L13703.1034,-3665.4647L13703.1089,-3665.4738L13703.1355,-3665.5126L13703.1683,-3665.5599L13703.1711,-3665.5656L13703.184,-3665.5868"/>
<path content="3,加越能鉄道（株）,水戸田・太閤山経由富大付属病院線,9.5,5.5,5.5," xlink:title="3" d="M13704.2075,-3669.2509L13704.2278,-3669.2775L13704.2515,-3669.3056L13704.2746,-3669.3299L13704.3137,-3669.358L13704.3249,-3669.3654L13704.3571,-3669.3901L13704.3913,-3669.4222L13704.399,-3669.429L13704.4043,-3669.4336"/>
<path content="3,射水市,櫛田・大門経由小杉駅線,3.3,2.0,2.0," xlink:title="3" d="M13704.2515,-3669.3056L13704.2278,-3669.2775L13704.2075,-3669.2509L13704.19,-3669.2313L13704.1795,-3669.2183L13704.1522,-3669.1829L13704.1278,-3669.1513L13704.0946,-3669.1059L13704.0519,-3669.0503L13704.0033,-3668.9756L13703.9539,-3668.8971L13703.9352,-3668.8669L13703.9705,-3668.8324L13703.9731,-3668.8236L13703.9784,-3668.8057L13703.9756,-3668.782L13703.9656,-3668.7531L13703.9754,-3668.7481L13704.0089,-3668.7299L13703.9907,-3668.6597L13703.9879,-3668.6518L13703.9886,-3668.6371L13703.9977,-3668.6107L13704.0019,-3668.5972L13704.004,-3668.5791L13703.9998,-3668.5667L13703.9879,-3668.5487L13703.974,-3668.5267L13703.9675,-3668.5125L13703.9677,-3668.3826L13703.9691,-3668.3747L13703.9649,-3668.3488L13703.9544,-3668.3257L13703.9439,-3668.3111L13703.9236,-3668.3094L13703.9139,-3668.3094L13703.8957,-3668.3167L13703.8761,-3668.3178L13703.8579,-3668.3178L13703.8188,-3668.2818L13703.8118,-3668.2728L13703.8097,-3668.2705L13703.7957,-3668.2497L13703.7831,-3668.2294L13703.7608,-3668.1939L13703.7482,-3668.1613L13703.7475,-3668.1444L13703.7509,-3668.1286L13703.7502,-3668.1117L13703.744,-3668.092L13703.7342,-3668.0751L13703.7286,-3668.0678L13703.7118,-3668.052L13703.6972,-3668.0358L13703.6828,-3668.0116L13703.712,-3667.9996L13703.737,-3667.9918L13703.7743,-3667.9815L13703.7831,-3667.9788L13703.8356,-3667.9608L13703.8391,-3667.9585L13703.8614,-3667.9512L13703.8719,-3667.9473L13703.8852,-3667.9422L13703.8999,-3667.936L13703.9076,-3667.9309L13703.9928,-3667.899L13704.0705,-3667.8963L13704.1324,-3667.8774L13704.1753,-3667.8617L13704.3071,-3667.8146L13704.3207,-3667.8228L13704.3277,-3667.8532L13704.3375,-3667.8803L13704.3361,-3667.9292L13704.3368,-3667.9343L13704.3382,-3667.9749L13704.3424,-3667.9901L13704.3655,-3668.0329L13704.3823,-3668.0869L13704.3914,-3668.1459L13704.3935,-3668.1595L13704.4067,-3668.2272L13704.413,-3668.2694L13704.4195,-3668.3059L13704.4282,-3668.3726L13704.4403,-3668.4198L13704.4406,-3668.4283L13704.44,-3668.4304L13704.439,-3668.4324L13704.4377,-3668.4339L13704.4342,-3668.435L13704.4279,-3668.4367L13704.4137,-3668.4406L13704.3676,-3668.4508L13704.3592,-3668.4524L13704.3275,-3668.4593L13704.3193,-3668.4612L13704.3112,-3668.4638L13704.3069,-3668.466L13704.3033,-3668.4682L13704.2963,-3668.4761L13704.2935,-3668.484L13704.2949,-3668.4958L13704.2949,-3668.4969L13704.3074,-3668.5138L13704.3123,-3668.5279L13704.3179,-3668.5527L13704.3228,-3668.5566L13704.3564,-3668.5898L13704.4248,-3668.6572L13704.4417,-3668.6737L13704.5043,-3668.735L13704.5349,-3668.7644L13704.5534,-3668.7836L13704.5822,-3668.8591L13704.5976,-3668.8968L13704.6046,-3668.9069L13704.6206,-3668.9176L13704.6528,-3668.9339L13704.6535,-3668.9385L13704.6844,-3669.0231L13704.6415,-3669.0639L13704.6206,-3669.0838L13704.5969,-3669.0978L13704.5766,-3669.1131L13704.5696,-3669.1226L13704.5605,-3669.1451L13704.5584,-3669.1615L13704.5577,-3669.1772L13704.5563,-3669.202L13704.5535,-3669.2172L13704.5465,-3669.2279L13704.543,-3669.2324L13704.5395,-3669.2347L13704.5297,-3669.2409L13704.5116,-3669.2482L13704.4808,-3669.2544L13704.3522,-3669.2842L13704.3046,-3669.2955L13704.2669,-3669.3045L13704.2515,-3669.3056"/>
<path content="3,射水市,櫛田・大門経由小杉駅線,3.3,2.0,2.0," xlink:title="3" d="M13704.4043,-3669.4336L13704.399,-3669.429L13704.3913,-3669.4222L13704.3571,-3669.3901L13704.3249,-3669.3654L13704.3137,-3669.358L13704.2746,-3669.3299L13704.2515,-3669.3056"/>
<path content="3,射水市,浅井・大門経由小杉駅線,3.3,2.0,2.0," xlink:title="3" d="M13703.7339,-3669.4336L13703.7551,-3669.4262L13703.8034,-3669.4092L13703.8166,-3669.4042L13703.821,-3669.4028L13703.8271,-3669.4019L13703.8355,-3669.3929L13703.8782,-3669.3788L13703.9208,-3669.3647L13703.9474,-3669.3563L13703.9765,-3669.4238L13703.9803,-3669.4336"/>
</g>
</svg>
