<?xml version="1.0" encoding="UTF-8"?>
<svg  xmlns="http://www.w3.org/2000/svg" xmlns:xlink="http://www.w3.org/1999/xlink" xmlns:go="http://purl.org/svgmap/profile" property="N07_001,N07_002,N07_003,N07_004,N07_005,N07_006,N07_007" viewBox="13568.115234375 -3491.455078125 1.0986328125 1.0986328125" go:dataArea="13568.115234375 -3491.455078125 1.0986328125 1.0986328125" >
<metadata>
 <rdf:RDF xmlns:rdf="http://www.w3.org/1999/02/22-rdf-syntax-ns#" xmlns:crs="http://opengis.org/xmldtds/transformations.dtd" xmlns:svg="http://www.w3.org/svg" >
  <rdf:Description>
   <crs:CoordinateReferenceSystem rdf:resource="http://purl.org/crs/84" svg:transform="matrix(100.0,0.0,0.0,-100.0,0.0,0.0)" />
  </rdf:Description>
 </rdf:RDF>
</metadata>
<globalCoordinateSystem srsName="http://purl.org/crs/84" transform="matrix(100.0,0.0,0.0,-100.0,0.0,0.0)" />
<defs>
 <g id="p0" >
  <circle cx="0.0" cy="0.0" r="3" stroke="green" stroke-width="0.75" vector-effect="non-scaling-stroke" />
 </g>
</defs>
<g fill="none" fill-rule="evenodd" stroke="#FF00FF" stroke-width="0.75" opacity="0.5" vector-effect="non-scaling-stroke" stroke-linejoin="bevel" >
<path content="1,JRバス関東（株）,ドリーム和歌山号,1.0,1.0,1.0," xlink:title="1" d="M13569.2139,-3490.4554L13569.2025,-3490.4521L13569.1328,-3490.4329L13569.1321,-3490.4327L13569.1026,-3490.4246L13569.0203,-3490.3989L13568.8616,-3490.3564"/>
<path content="1,JRバス関東（株）,ドリーム高松号/松山号/徳島号/高知号,4.0,4.0,4.0," xlink:title="1" d="M13569.2139,-3490.4554L13569.2025,-3490.4521L13569.1328,-3490.4329L13569.1321,-3490.4327L13569.1026,-3490.4246L13569.0203,-3490.3989L13568.8616,-3490.3564"/>
<path content="1,JRバス関東（株）,東海道昼特急号/中央道昼特急号/青春昼特急号/プレミアム昼特急号,7.2,9.0,9.0," xlink:title="1" d="M13569.2139,-3490.4554L13569.2025,-3490.4521L13569.1328,-3490.4329L13569.1321,-3490.4327L13569.1026,-3490.4246L13569.0203,-3490.3989L13568.8616,-3490.3564"/>
<path content="1,JR四国バス（株）,オリーブ松山号　松山⇔名古屋,1.0,1.0,1.0," xlink:title="1" d="M13568.8616,-3490.3564L13569.0203,-3490.3989L13569.1026,-3490.4246L13569.1328,-3490.4329L13569.2025,-3490.4521L13569.2139,-3490.4554"/>
<path content="1,JR四国バス（株）,ドリーム徳島号　阿南・徳島⇔新宿・東京・新木場,1.0,1.0,1.0," xlink:title="1" d="M13568.8616,-3490.3564L13569.0203,-3490.3989L13569.1026,-3490.4246L13569.1328,-3490.4329L13569.2025,-3490.4521L13569.2139,-3490.4554"/>
<path content="1,JR四国バス（株）,ドリーム高松・松山号　松山・高松⇔東京・東京ディズニーランド,1.0,1.0,1.0," xlink:title="1" d="M13568.8616,-3490.3564L13569.0203,-3490.3989L13569.1026,-3490.4246L13569.1328,-3490.4329L13569.2025,-3490.4521L13569.2139,-3490.4554"/>
<path content="1,JR四国バス（株）,ドリーム高松号　観音寺・高松⇔新宿・東京・新木場,1.0,1.0,1.0," xlink:title="1" d="M13568.8616,-3490.3564L13569.0203,-3490.3989L13569.1026,-3490.4246L13569.1328,-3490.4329L13569.2025,-3490.4521L13569.2139,-3490.4554"/>
<path content="1,JR四国バス（株）,ドリーム高知号　高知・徳島⇔東京・新木場,1.0,1.0,1.0," xlink:title="1" d="M13569.2139,-3490.4554L13569.2025,-3490.4521L13569.1328,-3490.4329L13569.1026,-3490.4246L13569.0203,-3490.3989L13568.8616,-3490.3564"/>
<path content="1,JR四国バス（株）,松山エクスプレス大阪号　松山⇔京都,5.0,5.0,5.0," xlink:title="1" d="M13569.2139,-3490.4554L13569.2025,-3490.4521L13569.1328,-3490.4329L13569.1026,-3490.4246L13569.0203,-3490.3989L13568.8616,-3490.3564"/>
<path content="1,JR四国バス（株）,阿波エクスプレス京都号　徳島⇔京都,3.0,3.0,3.0," xlink:title="1" d="M13568.8616,-3490.3564L13569.0203,-3490.3989L13569.1026,-3490.4246L13569.1328,-3490.4329L13569.2025,-3490.4521L13569.2139,-3490.4554"/>
<path content="1,JR四国バス（株）,高松エクスプレス京都号　高松⇔京都,2.0,2.0,2.0," xlink:title="1" d="M13568.8616,-3490.3564L13569.0203,-3490.3989L13569.1026,-3490.4246L13569.1328,-3490.4329L13569.2025,-3490.4521L13569.2139,-3490.4554"/>
<path content="1,JR四国バス（株）,高知エクスプレス号　高知⇔神戸・大阪・京都,7.0,7.0,7.0," xlink:title="1" d="M13568.8616,-3490.3564L13569.0203,-3490.3989L13569.1026,-3490.4246L13569.1328,-3490.4329L13569.2025,-3490.4521L13569.2139,-3490.4554"/>
<path content="1,JR東海バス（株）,オリーブ松山号,1.0,1.0,1.0," xlink:title="1" d="M13568.8616,-3490.3564L13569.0203,-3490.3989L13569.1026,-3490.4246L13569.1328,-3490.4329L13569.2025,-3490.4521L13569.2139,-3490.4554"/>
<path content="1,JR東海バス（株）,セレナーデ号,1.0,1.0,1.0," xlink:title="1" d="M13568.8616,-3490.3564L13569.0203,-3490.3989L13569.1026,-3490.4246L13569.1328,-3490.4329L13569.2025,-3490.4521L13569.2139,-3490.4554"/>
<path content="1,JR東海バス（株）,京阪神ドリーム静岡号,1.0,1.0,1.0," xlink:title="1" d="M13568.8616,-3490.3564L13569.0203,-3490.3989L13569.1026,-3490.4246L13569.1328,-3490.4329L13569.2025,-3490.4521L13569.2139,-3490.4554"/>
<path content="1,JR東海バス（株）,名神ハイウェイバス_03_on,29.0,29.0,29.0," xlink:title="1" d="M13568.8616,-3490.3564L13569.0203,-3490.3989L13569.1026,-3490.4246L13569.1328,-3490.4329L13569.2025,-3490.4521L13569.2139,-3490.4554"/>
<path content="1,JR東海バス（株）,名神ハイウェイバス_04_on,29.0,29.0,29.0," xlink:title="1" d="M13568.8616,-3490.3564L13569.0203,-3490.3989L13569.1026,-3490.4246L13569.1328,-3490.4329L13569.2025,-3490.4521L13569.2139,-3490.4554"/>
<path content="1,JR東海バス（株）,名神ハイウェイバス_05_on,29.0,29.0,29.0," xlink:title="1" d="M13568.8616,-3490.3564L13569.0203,-3490.3989L13569.1026,-3490.4246L13569.1328,-3490.4329L13569.2025,-3490.4521L13569.2139,-3490.4554"/>
<path content="1,エムケイ（株）,MKナイトシャトル　京都・大阪⇔東京便,1.0,1.0,1.0," xlink:title="1" d="M13568.8616,-3490.3564L13569.0203,-3490.3989L13569.1026,-3490.4246L13569.1328,-3490.4329L13569.2025,-3490.4521L13569.2139,-3490.4554"/>
<path content="1,ロウズ観光（株）,岡山・倉敷～東京,1.0,1.0,1.0," xlink:title="1" d="M13568.8616,-3490.3564L13569.0203,-3490.3989L13569.1026,-3490.4246L13569.1328,-3490.4329L13569.2025,-3490.4521L13569.2139,-3490.4554"/>
<path content="1,一畑バス（株）,東京～松江・出雲線,1.0,1.0,1.0," xlink:title="1" d="M13568.8616,-3490.3564L13569.0203,-3490.3989L13569.1026,-3490.4246L13569.1328,-3490.4329L13569.2025,-3490.4521L13569.2139,-3490.4554"/>
<path content="1,三重交通（株）,四日市～大阪,3.0,3.0,3.0," xlink:title="1" d="M13568.8616,-3490.3564L13569.0203,-3490.3989L13569.1026,-3490.4246L13569.1328,-3490.4329L13569.2025,-3490.4521L13569.2139,-3490.4554"/>
<path content="1,三重交通（株）,鳥羽～福岡,1.0,1.0,1.0," xlink:title="1" d="M13568.8616,-3490.3564L13569.0203,-3490.3989L13569.1026,-3490.4246L13569.1328,-3490.4329L13569.2025,-3490.4521L13569.2139,-3490.4554"/>
<path content="1,下津井電鉄（株）,岡山～京都線,7.0,7.0,7.0," xlink:title="1" d="M13568.8616,-3490.3564L13569.0203,-3490.3989L13569.1026,-3490.4246L13569.1328,-3490.4329L13569.2025,-3490.4521L13569.2139,-3490.4554"/>
<path content="1,下津井電鉄（株）,岡山～東京線,1.0,1.0,1.0," xlink:title="1" d="M13568.8616,-3490.3564L13569.0203,-3490.3989L13569.1026,-3490.4246L13569.1328,-3490.4329L13569.2025,-3490.4521L13569.2139,-3490.4554"/>
<path content="1,両備ホールディングス（株）,ままかりライナー　倉敷・岡山～東京駅八重洲通り線,1.0,1.0,1.0," xlink:title="1" d="M13568.8616,-3490.3564L13569.0203,-3490.3989L13569.1026,-3490.4246L13569.1328,-3490.4329L13569.2025,-3490.4521L13569.2139,-3490.4554"/>
<path content="1,両備ホールディングス（株）,マスカット　倉敷～新宿線,1.0,1.0,1.0," xlink:title="1" d="M13568.8616,-3490.3564L13569.0203,-3490.3989L13569.1026,-3490.4246L13569.1328,-3490.4329L13569.2025,-3490.4521L13569.2139,-3490.4554"/>
<path content="1,両備ホールディングス（株）,リョービ・エクスプレス　倉敷・岡山～名古屋線,1.0,1.0,1.0," xlink:title="1" d="M13568.8616,-3490.3564L13569.0203,-3490.3989L13569.1026,-3490.4246L13569.1328,-3490.4329L13569.2025,-3490.4521L13569.2139,-3490.4554"/>
<path content="1,両備ホールディングス（株）,ルブラン　倉敷・岡山・津山～東京線,1.0,1.0,1.0," xlink:title="1" d="M13568.8616,-3490.3564L13569.0203,-3490.3989L13569.1026,-3490.4246L13569.1328,-3490.4329L13569.2025,-3490.4521L13569.2139,-3490.4554"/>
<path content="1,両備ホールディングス（株）,京都エクスプレス　倉敷・岡山～京都線,7.0,7.0,7.0," xlink:title="1" d="M13568.8616,-3490.3564L13569.0203,-3490.3989L13569.1026,-3490.4246L13569.1328,-3490.4329L13569.2025,-3490.4521L13569.2139,-3490.4554"/>
<path content="1,中国JRバス（株）,広島・三次～名古屋　セレナーデ号,1.0,1.0,1.0," xlink:title="1" d="M13568.8616,-3490.3564L13569.0203,-3490.3989L13569.1026,-3490.4246L13569.1328,-3490.4329L13569.2025,-3490.4521L13569.2139,-3490.4554"/>
<path content="1,中国JRバス（株）,広島・西条～大阪・京都　青春道昼特急広島号・青春ドリーム広島号,2.0,2.0,2.0," xlink:title="1" d="M13569.2139,-3490.4554L13569.2025,-3490.4521L13569.1328,-3490.4329L13569.1026,-3490.4246L13569.0203,-3490.3989L13568.8616,-3490.3564"/>
<path content="1,中国JRバス（株）,広島～大阪・京都　山陽道昼特急広島号・山陽ドリーム広島号,5.0,5.0,5.0," xlink:title="1" d="M13569.2139,-3490.4554L13569.2025,-3490.4521L13569.1328,-3490.4329L13569.1026,-3490.4246L13569.0203,-3490.3989L13568.8616,-3490.3564"/>
<path content="1,中国JRバス（株）,広島～東京　ニューブリーズ号,2.0,2.0,2.0," xlink:title="1" d="M13568.8616,-3490.3564L13569.0203,-3490.3989L13569.1026,-3490.4246L13569.1328,-3490.4329L13569.2025,-3490.4521L13569.2139,-3490.4554"/>
<path content="1,中国JRバス（株）,津和野・益田・浜田・三次～東京　いわみエクスプレス,1.0,1.0,1.0," xlink:title="1" d="M13568.8616,-3490.3564L13569.0203,-3490.3989L13569.1026,-3490.4246L13569.1328,-3490.4329L13569.2025,-3490.4521L13569.2139,-3490.4554"/>
<path content="1,九州産交バス（株）,熊本⇔名古屋,1.0,1.0,1.0," xlink:title="1" d="M13569.2139,-3490.4554L13569.2025,-3490.4521L13569.1328,-3490.4329L13569.1026,-3490.4246L13569.0203,-3490.3989L13568.8616,-3490.3564"/>
<path content="1,九州産交バス（株）,熊本⇔大阪・京都,1.0,1.0,1.0," xlink:title="1" d="M13568.8616,-3490.3564L13569.0203,-3490.3989L13569.1026,-3490.4246L13569.1328,-3490.4329L13569.2025,-3490.4521L13569.2139,-3490.4554"/>
<path content="1,亀の井バス（株）,大分⇔名古屋,1.0,1.0,1.0," xlink:title="1" d="M13568.8616,-3490.3564L13569.0203,-3490.3989L13569.1026,-3490.4246L13569.1328,-3490.4329L13569.2025,-3490.4521L13569.2139,-3490.4554"/>
<path content="1,京成バス（株）,神戸・大阪～東京ディズニーリゾート・海浜幕張・千葉中央駅,5.0,5.0,5.0," xlink:title="1" d="M13568.8616,-3490.3564L13569.0203,-3490.3989L13569.1026,-3490.4246L13569.1321,-3490.4327L13569.1328,-3490.4329L13569.2025,-3490.4521L13569.2139,-3490.4554"/>
<path content="1,京浜急行バス（株）,エディ号,2.0,2.0,2.0," xlink:title="1" d="M13569.2139,-3490.4554L13569.2025,-3490.4521L13569.1328,-3490.4329L13569.1321,-3490.4327L13569.1026,-3490.4246L13569.0203,-3490.3989L13568.8616,-3490.3564"/>
<path content="1,京浜急行バス（株）,キャメル号,1.0,1.0,1.0," xlink:title="1" d="M13569.2139,-3490.4554L13569.2025,-3490.4521L13569.1328,-3490.4329L13569.1321,-3490.4327L13569.1026,-3490.4246L13569.0203,-3490.3989L13568.8616,-3490.3564"/>
<path content="1,京浜急行バス（株）,パイレーツ号,1.0,1.0,1.0," xlink:title="1" d="M13568.8616,-3490.3564L13569.0203,-3490.3989L13569.1026,-3490.4246L13569.1321,-3490.4327L13569.1328,-3490.4329L13569.2025,-3490.4521L13569.2139,-3490.4554"/>
<path content="1,京浜急行バス（株）,ルプラン号,1.0,1.0,1.0," xlink:title="1" d="M13568.8616,-3490.3564L13569.0203,-3490.3989L13569.1026,-3490.4246L13569.1321,-3490.4327L13569.1328,-3490.4329L13569.2025,-3490.4521L13569.2139,-3490.4554"/>
<path content="1,京王バス南（株）,新宿・渋谷～大阪（阪急梅田）線,1.0,1.0,1.0," xlink:title="1" d="M13568.8616,-3490.3564L13569.0203,-3490.3989L13569.1026,-3490.4246L13569.1321,-3490.4327L13569.1328,-3490.4329L13569.2025,-3490.4521L13569.2139,-3490.4554"/>
<path content="1,京王バス南（株）,新宿・渋谷～神戸姫路線,1.0,1.0,1.0," xlink:title="1" d="M13568.8616,-3490.3564L13569.0203,-3490.3989L13569.1026,-3490.4246L13569.1321,-3490.4327L13569.1328,-3490.4329L13569.2025,-3490.4521L13569.2139,-3490.4554"/>
<path content="1,京福バス（株）,京都・大阪線,1.0,1.0,1.0," xlink:title="1" d="M13568.8616,-3490.3564L13569.0203,-3490.3989L13569.1026,-3490.4246L13569.1328,-3490.4329L13569.2025,-3490.4521L13569.2139,-3490.4554"/>
<path content="1,京阪バス（株）,京都⇔岡山・倉敷,7.0,7.0,7.0," xlink:title="1" d="M13568.8616,-3490.3564L13569.0203,-3490.3989L13569.1026,-3490.4246L13569.1328,-3490.4329L13569.2025,-3490.4521L13569.2139,-3490.4554"/>
<path content="1,京阪バス（株）,京都⇔徳島,1.0,1.0,1.0," xlink:title="1" d="M13568.8616,-3490.3564L13569.0203,-3490.3989L13569.1026,-3490.4246L13569.1328,-3490.4329L13569.2025,-3490.4521L13569.2139,-3490.4554"/>
<path content="1,京阪バス（株）,京都⇔松山,1.0,1.0,1.0," xlink:title="1" d="M13568.8616,-3490.3564L13569.0203,-3490.3989L13569.1026,-3490.4246L13569.1328,-3490.4329L13569.2025,-3490.4521L13569.2139,-3490.4554"/>
<path content="1,京阪バス（株）,京都⇔松江・出雲,1.0,1.0,1.0," xlink:title="1" d="M13569.2139,-3490.4554L13569.2025,-3490.4521L13569.1328,-3490.4329L13569.1026,-3490.4246L13569.0203,-3490.3989L13568.8616,-3490.3564"/>
<path content="1,京阪バス（株）,京都⇔福山,3.0,3.0,3.0," xlink:title="1" d="M13568.8616,-3490.3564L13569.0203,-3490.3989L13569.1026,-3490.4246L13569.1328,-3490.4329L13569.2025,-3490.4521L13569.2139,-3490.4554"/>
<path content="1,京阪バス（株）,京都⇔米子,1.0,1.0,1.0," xlink:title="1" d="M13568.8616,-3490.3564L13569.0203,-3490.3989L13569.1026,-3490.4246L13569.1328,-3490.4329L13569.2025,-3490.4521L13569.2139,-3490.4554"/>
<path content="1,京阪バス（株）,京都⇔高松,1.0,1.0,1.0," xlink:title="1" d="M13568.8616,-3490.3564L13569.0203,-3490.3989L13569.1026,-3490.4246L13569.1328,-3490.4329L13569.2025,-3490.4521L13569.2139,-3490.4554"/>
<path content="1,京阪バス（株）,京都⇔高知,1.0,1.0,1.0," xlink:title="1" d="M13568.8616,-3490.3564L13569.0203,-3490.3989L13569.1026,-3490.4246L13569.1328,-3490.4329L13569.2025,-3490.4521L13569.2139,-3490.4554"/>
<path content="1,京阪バス（株）,京都・大阪⇔小倉・福岡,1.0,1.0,1.0," xlink:title="1" d="M13568.8616,-3490.3564L13569.0203,-3490.3989L13569.1026,-3490.4246L13569.1328,-3490.4329L13569.2025,-3490.4521L13569.2139,-3490.4554"/>
<path content="1,京阪京都交通（株）,みやこライナー　京都⇔福山・尾道,3.0,3.0,3.0," xlink:title="1" d="M13568.8616,-3490.3564L13569.0203,-3490.3989L13569.1026,-3490.4246L13569.1328,-3490.4329L13569.2025,-3490.4521L13569.2139,-3490.4554"/>
<path content="1,京阪京都交通（株）,京都エクスプレス　京都⇔岡山・倉敷,7.0,7.0,7.0," xlink:title="1" d="M13568.8616,-3490.3564L13569.0203,-3490.3989L13569.1026,-3490.4246L13569.1328,-3490.4329L13569.2025,-3490.4521L13569.2139,-3490.4554"/>
<path content="1,伊予鉄道（株）,オレンジライナーえひめ　八幡浜・松山⇔名古屋,1.0,1.0,1.0," xlink:title="1" d="M13568.8616,-3490.3564L13569.0203,-3490.3989L13569.1026,-3490.4246L13569.1328,-3490.4329L13569.2025,-3490.4521L13569.2139,-3490.4554"/>
<path content="1,伊予鉄道（株）,オレンジライナーえひめ　八幡浜・松山⇔東京,1.0,1.0,1.0," xlink:title="1" d="M13568.8616,-3490.3564L13569.0203,-3490.3989L13569.1026,-3490.4246L13569.1328,-3490.4329L13569.2025,-3490.4521L13569.2139,-3490.4554"/>
<path content="1,伊予鉄道（株）,京都エクスプレス　松山⇔京都,2.0,2.0,2.0," xlink:title="1" d="M13568.8616,-3490.3564L13569.0203,-3490.3989L13569.1026,-3490.4246L13569.1328,-3490.4329L13569.2025,-3490.4521L13569.2139,-3490.4554"/>
<path content="1,伊那バス（株）,京都・大阪線,2.0,2.0,2.0," xlink:title="1" d="M13568.8616,-3490.3564L13569.0203,-3490.3989L13569.1026,-3490.4246L13569.1328,-3490.4329L13569.2025,-3490.4521L13569.2139,-3490.4554"/>
<path content="1,信南交通（株）,大阪線,2.0,2.0,2.0," xlink:title="1" d="M13568.8616,-3490.3564L13569.0203,-3490.3989L13569.1026,-3490.4246L13569.1328,-3490.4329L13569.2025,-3490.4521L13569.2139,-3490.4554"/>
<path content="1,北陸鉄道（株）,高速バス　金沢⇔大阪,2.0,2.0,2.0," xlink:title="1" d="M13569.2139,-3490.4554L13569.2025,-3490.4521L13569.1328,-3490.4329L13569.1026,-3490.4246L13569.0203,-3490.3989L13568.8616,-3490.3564"/>
<path content="1,千曲バス（株）,軽井沢・佐久・小諸・上田～京都・大阪,1.0,1.0,1.0," xlink:title="1" d="M13568.8616,-3490.3564L13569.0203,-3490.3989L13569.1026,-3490.4246L13569.1328,-3490.4329L13569.2025,-3490.4521L13569.2139,-3490.4554"/>
<path content="1,千葉交通,大阪なんば・京都駅～成田・銚子線,1.0,1.0,1.0," xlink:title="1" d="M13568.8616,-3490.3564L13569.0203,-3490.3989L13569.1026,-3490.4246L13569.1321,-3490.4327L13569.1328,-3490.4329L13569.2025,-3490.4521L13569.2139,-3490.4554"/>
<path content="1,南海バス（株）,和歌山・和泉中央・堺東⇔新宿・東京,1.0,1.0,1.0," xlink:title="1" d="M13568.8616,-3490.3564L13569.0203,-3490.3989L13569.1026,-3490.4246L13569.1328,-3490.4329L13569.2025,-3490.4521L13569.2139,-3490.4554"/>
<path content="1,南海バス（株）,堺・大阪（なんば）・京都⇔小田原・藤沢・鎌倉,1.0,1.0,1.0," xlink:title="1" d="M13568.8616,-3490.3564L13569.0203,-3490.3989L13569.1026,-3490.4246L13569.1328,-3490.4329L13569.2025,-3490.4521L13569.2139,-3490.4554"/>
<path content="1,南海バス（株）,堺・大阪（なんば）・京都⇔柏崎・長岡・三条（新潟）,1.0,1.0,1.0," xlink:title="1" d="M13568.8616,-3490.3564L13569.0203,-3490.3989L13569.1026,-3490.4246L13569.1328,-3490.4329L13569.2025,-3490.4521L13569.2139,-3490.4554"/>
<path content="1,南海バス（株）,神戸・大阪（なんば）・京都⇔立川・昭島・玉川上水（東京）,1.0,1.0,1.0," xlink:title="1" d="M13568.8616,-3490.3564L13569.0203,-3490.3989L13569.1026,-3490.4246L13569.1328,-3490.4329L13569.2025,-3490.4521L13569.2139,-3490.4554"/>
<path content="1,名鉄バス（株）,名古屋～徳島,0.5,2.0,2.0," xlink:title="1" d="M13569.2139,-3490.4554L13569.2025,-3490.4521L13569.1328,-3490.4329L13569.1026,-3490.4246L13569.0203,-3490.3989L13568.8616,-3490.3564"/>
<path content="1,名鉄バス（株）,名古屋～松山,1.0,1.0,1.0," xlink:title="1" d="M13568.8616,-3490.3564L13569.0203,-3490.3989L13569.1026,-3490.4246L13569.1328,-3490.4329L13569.2025,-3490.4521L13569.2139,-3490.4554"/>
<path content="1,名鉄バス（株）,名古屋～熊本,1.0,1.0,1.0," xlink:title="1" d="M13569.2139,-3490.4554L13569.2025,-3490.4521L13569.1328,-3490.4329L13569.1026,-3490.4246L13569.0203,-3490.3989L13568.8616,-3490.3564"/>
<path content="1,名鉄バス（株）,名古屋～福岡,1.0,1.0,1.0," xlink:title="1" d="M13568.8616,-3490.3564L13569.0203,-3490.3989L13569.1026,-3490.4246L13569.1328,-3490.4329L13569.2025,-3490.4521L13569.2139,-3490.4554"/>
<path content="1,名鉄バス（株）,名古屋～長崎,1.0,1.0,1.0," xlink:title="1" d="M13569.2139,-3490.4554L13569.2025,-3490.4521L13569.1328,-3490.4329L13569.1026,-3490.4246L13569.0203,-3490.3989L13568.8616,-3490.3564"/>
<path content="1,名鉄バス（株）,名古屋～高松,2.0,2.0,2.0," xlink:title="1" d="M13568.8616,-3490.3564L13569.0203,-3490.3989L13569.1026,-3490.4246L13569.1328,-3490.4329L13569.2025,-3490.4521L13569.2139,-3490.4554"/>
<path content="1,名阪近鉄バス（株）,名古屋～大阪,29.0,29.0,29.0," xlink:title="1" d="M13568.8616,-3490.3564L13569.0203,-3490.3989L13569.1026,-3490.4246L13569.1328,-3490.4329L13569.2025,-3490.4521L13569.2139,-3490.4554"/>
<path content="1,和歌山バス（株）,サウスウエーブ号和歌山・堺⇔横浜・上野・東京ディズニーリゾート・海浜幕張,1.0,1.0,1.0," xlink:title="1" d="M13568.8616,-3490.3564L13569.0203,-3490.3989L13569.1026,-3490.4246L13569.1328,-3490.4329L13569.2025,-3490.4521L13569.2139,-3490.4554"/>
<path content="1,四国高速バス（株）,さぬきエクスプレス名古屋　善通寺・坂出⇔名古屋,1.0,1.0,1.0," xlink:title="1" d="M13568.8616,-3490.3564L13569.0203,-3490.3989L13569.1026,-3490.4246L13569.1328,-3490.4329L13569.2025,-3490.4521L13569.2139,-3490.4554"/>
<path content="1,四国高速バス（株）,ハローブリッジ号　善通寺・坂出⇔横浜・新宿・八王子,1.0,1.0,1.0," xlink:title="1" d="M13569.2139,-3490.4554L13569.2025,-3490.4521L13569.1328,-3490.4329L13569.1026,-3490.4246L13569.0203,-3490.3989L13568.8616,-3490.3564"/>
<path content="1,四国高速バス（株）,高松エクスプレス京都　高松⇔京都,1.0,2.0,2.0," xlink:title="1" d="M13568.8616,-3490.3564L13569.0203,-3490.3989L13569.1026,-3490.4246L13569.1328,-3490.4329L13569.2025,-3490.4521L13569.2139,-3490.4554"/>
<path content="1,国際十王交通（株）,京都・大阪線,1.0,1.0,1.0," xlink:title="1" d="M13569.2139,-3490.4554L13569.2025,-3490.4521L13569.1328,-3490.4329L13569.1321,-3490.4327L13569.1026,-3490.4246L13569.0203,-3490.3989L13568.8616,-3490.3564"/>
<path content="1,土佐電気鉄道（株）,ドラゴンライナー　高知⇔名古屋線,1.0,1.0,1.0," xlink:title="1" d="M13568.8616,-3490.3564L13569.0203,-3490.3989L13569.1026,-3490.4246L13569.1328,-3490.4329L13569.2025,-3490.4521L13569.2139,-3490.4554"/>
<path content="1,土佐電気鉄道（株）,ブルーメッツ号　高知⇔東京線,1.0,1.0,1.0," xlink:title="1" d="M13568.8616,-3490.3564L13569.0203,-3490.3989L13569.1026,-3490.4246L13569.1328,-3490.4329L13569.2025,-3490.4521L13569.2139,-3490.4554"/>
<path content="1,土佐電気鉄道（株）,高知⇔京都線,2.0,2.0,2.0," xlink:title="1" d="M13568.8616,-3490.3564L13569.0203,-3490.3989L13569.1026,-3490.4246L13569.1328,-3490.4329L13569.2025,-3490.4521L13569.2139,-3490.4554"/>
<path content="1,大分バス（株）,大分⇔名古屋,1.0,1.0,1.0," xlink:title="1" d="M13568.8616,-3490.3564L13569.0203,-3490.3989L13569.1026,-3490.4246L13569.1328,-3490.4329L13569.2025,-3490.4521L13569.2139,-3490.4554"/>
<path content="1,大分交通（株）,大分⇔名古屋,1.0,1.0,1.0," xlink:title="1" d="M13568.8616,-3490.3564L13569.0203,-3490.3989L13569.1026,-3490.4246L13569.1328,-3490.4329L13569.2025,-3490.4521L13569.2139,-3490.4554"/>
<path content="1,大阪空港交通（株）,関西空港リムジンバス　京都&gt;&gt;&gt;大阪（伊丹）空港,40.0,40.0,40.0," xlink:title="1" d="M13568.8616,-3490.3564L13569.0203,-3490.3989L13569.1026,-3490.4246L13569.1328,-3490.4329L13569.2025,-3490.4521L13569.2139,-3490.4554"/>
<path content="1,宇和島自動車（株）,宇和島・松山⇔横浜・池袋・大宮,1.0,1.0,1.0," xlink:title="1" d="M13568.8616,-3490.3564L13569.0203,-3490.3989L13569.1026,-3490.4246L13569.1328,-3490.4329L13569.2025,-3490.4521L13569.2139,-3490.4554"/>
<path content="1,宮城交通（株）,仙台～大阪線,1.0,1.0,1.0," xlink:title="1" d="M13569.2139,-3490.4554L13569.2025,-3490.4521L13569.1328,-3490.4329L13569.1321,-3490.4327L13569.1026,-3490.4246L13569.0203,-3490.3989L13568.8616,-3490.3564"/>
<path content="1,富士急山梨バス（株）,FUJIYAMAライナー,1.0,1.0,1.0," xlink:title="1" d="M13568.8616,-3490.3564L13569.0203,-3490.3989L13569.1026,-3490.4246L13569.1321,-3490.4327L13569.1328,-3490.4329L13569.2025,-3490.4521L13569.2139,-3490.4554"/>
<path content="1,富士急湘南バス（株）,小田原・新松田・沼津～大坂・京都線,1.0,1.0,1.0," xlink:title="1" d="M13569.2139,-3490.4554L13569.2025,-3490.4521L13569.1328,-3490.4329L13569.1321,-3490.4327L13569.1026,-3490.4246L13569.0203,-3490.3989L13568.8616,-3490.3564"/>
<path content="1,富士急行（株）,FUJIYAMAライナー,1.0,1.0,1.0," xlink:title="1" d="M13568.8616,-3490.3564L13569.0203,-3490.3989L13569.1026,-3490.4246L13569.1321,-3490.4327L13569.1328,-3490.4329L13569.2025,-3490.4521L13569.2139,-3490.4554"/>
<path content="1,富士急行（株）,小田原・新松田・沼津～大阪・京都線,1.0,1.0,1.0," xlink:title="1" d="M13569.2139,-3490.4554L13569.2025,-3490.4521L13569.1328,-3490.4329L13569.1321,-3490.4327L13569.1026,-3490.4246L13569.0203,-3490.3989L13568.8616,-3490.3564"/>
<path content="1,富山地方鉄道（株）,京都・大阪（高速バス）,4.0,4.0,4.0," xlink:title="1" d="M13568.8616,-3490.3564L13569.0203,-3490.3989L13569.1026,-3490.4246L13569.1328,-3490.4329L13569.2025,-3490.4521L13569.2139,-3490.4554"/>
<path content="1,小田急シティバス（株）,しまんとエクスプレス号,1.0,1.0,1.0," xlink:title="1" d="M13568.8616,-3490.3564L13569.0203,-3490.3989L13569.1026,-3490.4246L13569.1321,-3490.4327L13569.1328,-3490.4329L13569.2025,-3490.4521L13569.2139,-3490.4554"/>
<path content="1,小田急シティバス（株）,エトワールセト号,1.0,1.0,1.0," xlink:title="1" d="M13568.8616,-3490.3564L13569.0203,-3490.3989L13569.1026,-3490.4246L13569.1321,-3490.4327L13569.1328,-3490.4329L13569.2025,-3490.4521L13569.2139,-3490.4554"/>
<path content="1,小田急シティバス（株）,ニューブリーズ号,2.0,2.0,2.0," xlink:title="1" d="M13568.8616,-3490.3564L13569.0203,-3490.3989L13569.1026,-3490.4246L13569.1321,-3490.4327L13569.1328,-3490.4329L13569.2025,-3490.4521L13569.2139,-3490.4554"/>
<path content="1,小田急シティバス（株）,ブルーメッツ号,1.0,1.0,1.0," xlink:title="1" d="M13568.8616,-3490.3564L13569.0203,-3490.3989L13569.1026,-3490.4246L13569.1321,-3490.4327L13569.1328,-3490.4329L13569.2025,-3490.4521L13569.2139,-3490.4554"/>
<path content="1,小田急シティバス（株）,ルミナス号,1.0,1.0,1.0," xlink:title="1" d="M13569.2139,-3490.4554L13569.2025,-3490.4521L13569.1328,-3490.4329L13569.1321,-3490.4327L13569.1026,-3490.4246L13569.0203,-3490.3989L13568.8616,-3490.3564"/>
<path content="1,小田急バス（株）,しまんとエクスプレス号,1.0,1.0,1.0," xlink:title="1" d="M13568.8616,-3490.3564L13569.0203,-3490.3989L13569.1026,-3490.4246L13569.1321,-3490.4327L13569.1328,-3490.4329L13569.2025,-3490.4521L13569.2139,-3490.4554"/>
<path content="1,小田急バス（株）,エトワールセト号,1.0,1.0,1.0," xlink:title="1" d="M13568.8616,-3490.3564L13569.0203,-3490.3989L13569.1026,-3490.4246L13569.1321,-3490.4327L13569.1328,-3490.4329L13569.2025,-3490.4521L13569.2139,-3490.4554"/>
<path content="1,小田急バス（株）,ニューブリーズ号,2.0,2.0,2.0," xlink:title="1" d="M13568.8616,-3490.3564L13569.0203,-3490.3989L13569.1026,-3490.4246L13569.1321,-3490.4327L13569.1328,-3490.4329L13569.2025,-3490.4521L13569.2139,-3490.4554"/>
<path content="1,小田急バス（株）,ブルーメッツ号,1.0,1.0,1.0," xlink:title="1" d="M13568.8616,-3490.3564L13569.0203,-3490.3989L13569.1026,-3490.4246L13569.1321,-3490.4327L13569.1328,-3490.4329L13569.2025,-3490.4521L13569.2139,-3490.4554"/>
<path content="1,小田急バス（株）,ルミナス号,1.0,1.0,1.0," xlink:title="1" d="M13569.2139,-3490.4554L13569.2025,-3490.4521L13569.1328,-3490.4329L13569.1321,-3490.4327L13569.1026,-3490.4246L13569.0203,-3490.3989L13568.8616,-3490.3564"/>
<path content="1,山交バス（株）,アルカディア号,1.0,1.0,1.0," xlink:title="1" d="M13568.8616,-3490.3564L13569.0203,-3490.3989L13569.1026,-3490.4248L13569.1314,-3490.4326L13569.1328,-3490.4329L13569.2025,-3490.4521L13569.2139,-3490.4554"/>
<path content="1,山梨交通（株）,甲府～京都・大阪線,2.0,2.0,2.0," xlink:title="1" d="M13568.8616,-3490.3564L13569.0203,-3490.3989L13569.1026,-3490.4246L13569.1321,-3490.4327L13569.1328,-3490.4329L13569.2025,-3490.4521L13569.2139,-3490.4554"/>
<path content="1,山陽電気鉄道（株）,レッツ号　神戸・大阪・京都～東京（立川）線,1.0,1.0,1.0," xlink:title="1" d="M13568.8616,-3490.3564L13569.0203,-3490.3989L13569.1026,-3490.4246L13569.1328,-3490.4329L13569.2025,-3490.4521L13569.2139,-3490.4554"/>
<path content="1,川中島バス（株）,特急長野～京都・大阪線,2.0,2.0,2.0," xlink:title="1" d="M13568.8616,-3490.3564L13569.0203,-3490.3989L13569.1026,-3490.4246L13569.1328,-3490.4329L13569.2025,-3490.4521L13569.2139,-3490.4554"/>
<path content="1,徳島バス（株）,徳島⇔京都,7.0,7.0,7.0," xlink:title="1" d="M13568.8616,-3490.3564L13569.0203,-3490.3989L13569.1026,-3490.4246L13569.1328,-3490.4329L13569.2025,-3490.4521L13569.2139,-3490.4554"/>
<path content="1,徳島バス（株）,徳島⇔名古屋,2.0,2.0,2.0," xlink:title="1" d="M13569.2139,-3490.4554L13569.2025,-3490.4521L13569.1328,-3490.4329L13569.1026,-3490.4246L13569.0203,-3490.3989L13568.8616,-3490.3564"/>
<path content="1,徳島バス（株）,徳島⇔東京,2.0,2.0,2.0," xlink:title="1" d="M13568.8616,-3490.3564L13569.0203,-3490.3989L13569.1026,-3490.4246L13569.1328,-3490.4329L13569.2025,-3490.4521L13569.2139,-3490.4554"/>
<path content="1,成田空港交通,和歌山線,1.0,1.0,1.0," xlink:title="1" d="M13568.8616,-3490.3564L13569.0203,-3490.3989L13569.1026,-3490.4246L13569.1321,-3490.4327L13569.1328,-3490.4329L13569.2025,-3490.4521L13569.2139,-3490.4554"/>
<path content="1,新常磐交通（株）,シーガル号,1.0,1.0,1.0," xlink:title="1" d="M13568.8612,-3490.3564L13569.0203,-3490.399L13569.1027,-3490.4249L13569.1314,-3490.4326L13569.1321,-3490.4327L13569.1328,-3490.4329L13569.2026,-3490.452L13569.2139,-3490.4553"/>
<path content="1,新潟交通（株）・阪急バス（株）,京都・大阪高速バス,1.0,1.0,1.0," xlink:title="1" d="M13568.8616,-3490.3564L13569.0203,-3490.3989L13569.1026,-3490.4246L13569.1328,-3490.4329L13569.2025,-3490.4521L13569.2139,-3490.4554"/>
<path content="1,日ノ丸自動車（株）,東京‐米子線,1.0,1.0,1.0," xlink:title="1" d="M13568.8616,-3490.3564L13569.0203,-3490.3989L13569.1026,-3490.4246L13569.1328,-3490.4329L13569.2025,-3490.4521L13569.2139,-3490.4554"/>
<path content="1,日ノ丸自動車（株）,東京‐鳥取・倉吉線,1.0,1.0,1.0," xlink:title="1" d="M13568.8616,-3490.3564L13569.0203,-3490.3989L13569.1026,-3490.4246L13569.1328,-3490.4329L13569.2025,-3490.4521L13569.2139,-3490.4554"/>
<path content="1,日本中央バス（株）,シルクライナー,5.0,5.0,5.0," xlink:title="1" d="M13568.8616,-3490.3564L13569.0203,-3490.3989L13569.1026,-3490.4246L13569.1321,-3490.4327L13569.1328,-3490.4329L13569.2025,-3490.4521L13569.2139,-3490.4554"/>
<path content="1,日本交通（株）,米子～京都線,3.0,3.0,3.0," xlink:title="1" d="M13568.8616,-3490.3564L13569.0203,-3490.3989L13569.1026,-3490.4246L13569.1328,-3490.4329L13569.2025,-3490.4521L13569.2139,-3490.4554"/>
<path content="1,日本交通（株）,米子～東京線,1.0,1.0,1.0," xlink:title="1" d="M13568.8616,-3490.3564L13569.0203,-3490.3989L13569.1026,-3490.4246L13569.1328,-3490.4329L13569.2025,-3490.4521L13569.2139,-3490.4554"/>
<path content="1,日本交通（株）,鳥取・倉吉～東京線,1.0,1.0,1.0," xlink:title="1" d="M13568.8616,-3490.3564L13569.0203,-3490.3989L13569.1026,-3490.4246L13569.1328,-3490.4329L13569.2025,-3490.4521L13569.2139,-3490.4554"/>
<path content="1,日本交通（株）,鳥取～京都線,3.0,3.0,3.0," xlink:title="1" d="M13568.8616,-3490.3564L13569.0203,-3490.3989L13569.1026,-3490.4246L13569.1328,-3490.4329L13569.2025,-3490.4521L13569.2139,-3490.4554"/>
<path content="1,日本交通（株）（大阪）,米子～京都線,3.0,3.0,3.0," xlink:title="1" d="M13568.8616,-3490.3564L13569.0203,-3490.3989L13569.1026,-3490.4246L13569.1328,-3490.4329L13569.2025,-3490.4521L13569.2139,-3490.4554"/>
<path content="1,日本交通（株）（大阪）,鳥取～京都線,3.0,3.0,3.0," xlink:title="1" d="M13568.8616,-3490.3564L13569.0203,-3490.3989L13569.1026,-3490.4246L13569.1328,-3490.4329L13569.2025,-3490.4521L13569.2139,-3490.4554"/>
<path content="1,本四海峡バス（株）,阿波エクスプレス号（京都）　徳島駅-京都駅,1.0,1.0,1.0," xlink:title="1" d="M13569.2139,-3490.4554L13569.2025,-3490.4521L13569.1328,-3490.4329L13569.1026,-3490.4246L13569.0203,-3490.3989L13568.8616,-3490.3564"/>
<path content="1,東北急行バス（株）,ままかりライナー,1.0,1.0,1.0," xlink:title="1" d="M13568.8616,-3490.3564L13569.0203,-3490.3989L13569.1026,-3490.4246L13569.1321,-3490.4327L13569.1328,-3490.4329L13569.2025,-3490.4521L13569.2139,-3490.4554"/>
<path content="1,東北急行バス（株）,フライングスニーカー京都・茨木号,1.0,1.0,1.0," xlink:title="1" d="M13569.2139,-3490.4554L13569.2025,-3490.4521L13569.1328,-3490.4329L13569.1321,-3490.4327L13569.1026,-3490.4246L13569.0203,-3490.3989L13568.8616,-3490.3564"/>
<path content="1,東北急行バス（株）,フライングスニーカー大坂号,1.0,1.0,1.0," xlink:title="1" d="M13569.2139,-3490.4554L13569.2025,-3490.4521L13569.1328,-3490.4329L13569.1321,-3490.4327L13569.1026,-3490.4246L13569.0203,-3490.3989L13568.8616,-3490.3564"/>
<path content="1,東北急行バス（株）,フライングライナー号,1.0,1.0,1.0," xlink:title="1" d="M13568.8616,-3490.3564L13569.0203,-3490.3989L13569.1026,-3490.4246L13569.1321,-3490.4327L13569.1328,-3490.4329L13569.2025,-3490.4521L13569.2139,-3490.4554"/>
<path content="1,松本電気鉄道（株）,特急松本大阪線,2.0,2.0,2.0," xlink:title="1" d="M13568.8616,-3490.3564L13569.0203,-3490.3989L13569.1026,-3490.4246L13569.1328,-3490.4329L13569.2025,-3490.4521L13569.2139,-3490.4554"/>
<path content="1,江ノ電バス藤沢,サザンクロス,1.0,1.0,1.0," xlink:title="1" d="M13569.2139,-3490.4554L13569.2025,-3490.4521L13569.1328,-3490.4329L13569.1321,-3490.4327L13569.1026,-3490.4246L13569.0203,-3490.3989L13568.8616,-3490.3564"/>
<path content="1,濃飛乗合自動車（株）,京都・大阪線,1.0,1.0,1.0," xlink:title="1" d="M13568.8616,-3490.3564L13569.0203,-3490.3989L13569.1026,-3490.4246L13569.1328,-3490.4329L13569.2025,-3490.4521L13569.2139,-3490.4554"/>
<path content="1,瀬戸内運輸（株）,パイレーツ　今治⇔東京,1.0,1.0,1.0," xlink:title="1" d="M13569.2139,-3490.4554L13569.2025,-3490.4521L13569.1328,-3490.4329L13569.1026,-3490.4246L13569.0203,-3490.3989L13568.8616,-3490.3564"/>
<path content="1,琴平バス（株）,愛媛・高知シャトル,2.0,2.0,2.0," xlink:title="1" d="M13568.8616,-3490.3564L13569.0203,-3490.3989L13569.1026,-3490.4246L13569.1328,-3490.4329L13569.2025,-3490.4521L13569.2139,-3490.4554"/>
<path content="1,石見交通（株）,いわみEX　東京線,1.0,1.0,1.0," xlink:title="1" d="M13568.8616,-3490.3564L13569.0203,-3490.3989L13569.1026,-3490.4246L13569.1328,-3490.4329L13569.2025,-3490.4521L13569.2139,-3490.4554"/>
<path content="1,神姫バス（株）,姫路・神戸（三ノ宮）-東京（渋谷・新宿）,1.0,1.0,1.0," xlink:title="1" d="M13569.2139,-3490.4554L13569.2025,-3490.4521L13569.1328,-3490.4329L13569.1026,-3490.4246L13569.0203,-3490.3989L13568.8616,-3490.3564"/>
<path content="1,神姫バス（株）,津山-京都,2.0,2.0,2.0," xlink:title="1" d="M13568.8616,-3490.3564L13569.0203,-3490.3989L13569.1026,-3490.4246L13569.1328,-3490.4329L13569.2025,-3490.4521L13569.2139,-3490.4554"/>
<path content="1,神姫バス（株）,津山駅・加西・西脇-大阪駅・ユニバーサル・スタジオ・ジャパン,23.0,24.0,24.0," xlink:title="1" d="M13568.8616,-3490.3564L13569.0203,-3490.3989L13569.1026,-3490.4246L13569.1328,-3490.4329L13569.2025,-3490.4521L13569.2139,-3490.4554"/>
<path content="1,福井鉄道（株）,福井⇔大阪,3.0,3.0,3.0," xlink:title="1" d="M13568.8616,-3490.3564L13569.0203,-3490.3989L13569.1026,-3490.4246L13569.1328,-3490.4329L13569.2025,-3490.4521L13569.2139,-3490.4554"/>
<path content="1,福島交通（株）,福島高速バスターミナル～大阪あべの橋,1.0,1.0,1.0," xlink:title="1" d="M13568.8612,-3490.3564L13569.0203,-3490.399L13569.1027,-3490.4249L13569.1314,-3490.4326L13569.1321,-3490.4327L13569.1328,-3490.4329L13569.2026,-3490.452L13569.2139,-3490.4553"/>
<path content="1,立川バス（株）,立川駅～京都・大阪～神戸三宮線,1.0,1.0,1.0," xlink:title="1" d="M13568.8616,-3490.3564L13569.0203,-3490.3989L13569.1026,-3490.4246L13569.1321,-3490.4327L13569.1328,-3490.4329L13569.2025,-3490.4521L13569.2139,-3490.4554"/>
<path content="1,西日本鉄道（株）,福岡　～　東京　（はかた号））,1.0,1.0,1.0," xlink:title="1" d="M13568.8616,-3490.3564L13569.0203,-3490.3989L13569.1026,-3490.4246L13569.1328,-3490.4329L13569.2025,-3490.4521L13569.2139,-3490.4554"/>
<path content="1,西日本鉄道（株）,福岡・北九州　～　名古屋,1.0,1.0,1.0," xlink:title="1" d="M13569.2139,-3490.4554L13569.2025,-3490.4521L13569.1328,-3490.4329L13569.1026,-3490.4246L13569.0203,-3490.3989L13568.8616,-3490.3564"/>
<path content="1,西日本鉄道（株）,福岡・北九州　～　大阪・京都,1.0,1.0,1.0," xlink:title="1" d="M13568.8616,-3490.3564L13569.0203,-3490.3989L13569.1026,-3490.4246L13569.1328,-3490.4329L13569.2025,-3490.4521L13569.2139,-3490.4554"/>
<path content="1,西東京バス（株）,オレンジライナー号,1.0,1.0,1.0," xlink:title="1" d="M13568.8616,-3490.3564L13569.0203,-3490.3989L13569.1026,-3490.4246L13569.1321,-3490.4327L13569.1328,-3490.4329L13569.2025,-3490.4521L13569.2139,-3490.4554"/>
<path content="1,西東京バス（株）,ツインクル号,1.0,1.0,1.0," xlink:title="1" d="M13569.2139,-3490.4554L13569.2025,-3490.4521L13569.1328,-3490.4329L13569.1321,-3490.4327L13569.1026,-3490.4246L13569.0203,-3490.3989L13568.8616,-3490.3564"/>
<path content="1,西東京バス（株）,ハローブリッジ号,1.0,1.0,1.0," xlink:title="1" d="M13568.8616,-3490.3564L13569.0203,-3490.3989L13569.1026,-3490.4246L13569.1321,-3490.4327L13569.1328,-3490.4329L13569.2025,-3490.4521L13569.2139,-3490.4554"/>
<path content="1,西武バス（株）,三都線,1.0,1.0,1.0," xlink:title="1" d="M13569.2139,-3490.4554L13569.2025,-3490.4521L13569.1328,-3490.4329L13569.1321,-3490.4327L13569.1026,-3490.4246L13569.0203,-3490.3989L13568.8616,-3490.3564"/>
<path content="1,西武観光バス,宇和島線,1.0,1.0,1.0," xlink:title="1" d="M13569.2139,-3490.4554L13569.2025,-3490.4521L13569.1328,-3490.4329L13569.1321,-3490.4327L13569.1026,-3490.4246L13569.0203,-3490.3989L13568.8616,-3490.3564"/>
<path content="1,西肥自動車（株）,ハウステンボス・佐世保～名古屋,1.0,1.0,1.0," xlink:title="1" d="M13569.2139,-3490.4554L13569.2025,-3490.4521L13569.1328,-3490.4329L13569.1026,-3490.4246L13569.0203,-3490.3989L13568.8616,-3490.3564"/>
<path content="1,西鉄高速バス（株）,福岡・北九州　～　三重,1.0,1.0,1.0," xlink:title="1" d="M13568.8616,-3490.3564L13569.0203,-3490.3989L13569.1026,-3490.4246L13569.1328,-3490.4329L13569.2025,-3490.4521L13569.2139,-3490.4554"/>
<path content="1,諏訪バス（株）,茅野・諏訪・岡谷～大阪線,2.0,2.0,2.0," xlink:title="1" d="M13568.8616,-3490.3564L13569.0203,-3490.3989L13569.1026,-3490.4246L13569.1328,-3490.4329L13569.2025,-3490.4521L13569.2139,-3490.4554"/>
<path content="1,越後交通（株）,高速バス越後（三条・長岡・柏崎～京都・大阪線）,1.0,1.0,1.0," xlink:title="1" d="M13569.2139,-3490.4554L13569.2025,-3490.4521L13569.1328,-3490.4329L13569.1026,-3490.4246L13569.0203,-3490.3989L13568.8616,-3490.3564"/>
<path content="1,近鉄バス（株）,京都⇔四日市,12.0,12.0,12.0," xlink:title="1" d="M13568.8616,-3490.3564L13569.0203,-3490.3989L13569.1026,-3490.4246L13569.1328,-3490.4329L13569.2025,-3490.4521L13569.2139,-3490.4554"/>
<path content="1,近鉄バス（株）,京都・大阪⇔熊本,1.0,1.0,1.0," xlink:title="1" d="M13568.8616,-3490.3564L13569.0203,-3490.3989L13569.1026,-3490.4246L13569.1328,-3490.4329L13569.2025,-3490.4521L13569.2139,-3490.4554"/>
<path content="1,近鉄バス（株）,京都・大阪⇔長崎,1.0,1.0,1.0," xlink:title="1" d="M13568.8616,-3490.3564L13569.0203,-3490.3989L13569.1026,-3490.4246L13569.1328,-3490.4329L13569.2025,-3490.4521L13569.2139,-3490.4554"/>
<path content="1,近鉄バス（株）,京都・大阪・神戸⇔中村・宿毛,2.0,2.0,2.0," xlink:title="1" d="M13568.8616,-3490.3564L13569.0203,-3490.3989L13569.1026,-3490.4246L13569.1328,-3490.4329L13569.2025,-3490.4521L13569.2139,-3490.4554"/>
<path content="1,近鉄バス（株）,京都・大阪・神戸⇔宮崎,1.0,1.0,1.0," xlink:title="1" d="M13568.8616,-3490.3564L13569.0203,-3490.3989L13569.1026,-3490.4246L13569.1328,-3490.4329L13569.2025,-3490.4521L13569.2139,-3490.4554"/>
<path content="1,近鉄バス（株）,大日・茨木・京都⇔東京駅,1.0,1.0,1.0," xlink:title="1" d="M13569.2139,-3490.4554L13569.2025,-3490.4521L13569.1328,-3490.4329L13569.1026,-3490.4246L13569.0203,-3490.3989L13568.8616,-3490.3564"/>
<path content="1,近鉄バス（株）,大阪⇔東京駅,1.0,1.0,1.0," xlink:title="1" d="M13569.2139,-3490.4554L13569.2025,-3490.4521L13569.1328,-3490.4329L13569.1026,-3490.4246L13569.0203,-3490.3989L13568.8616,-3490.3564"/>
<path content="1,近鉄バス（株）,大阪・京都⇔つくば・水戸,1.0,1.0,1.0," xlink:title="1" d="M13568.8616,-3490.3564L13569.0203,-3490.3989L13569.1026,-3490.4246L13569.1328,-3490.4329L13569.2025,-3490.4521L13569.2139,-3490.4554"/>
<path content="1,近鉄バス（株）,大阪・京都⇔上田・小諸・軽井沢,1.0,1.0,1.0," xlink:title="1" d="M13568.8616,-3490.3564L13569.0203,-3490.3989L13569.1026,-3490.4246L13569.1328,-3490.4329L13569.2025,-3490.4521L13569.2139,-3490.4554"/>
<path content="1,近鉄バス（株）,大阪・京都⇔久喜・栃木・宇都宮,1.0,1.0,1.0," xlink:title="1" d="M13568.8616,-3490.3564L13569.0203,-3490.3989L13569.1026,-3490.4246L13569.1328,-3490.4329L13569.2025,-3490.4521L13569.2139,-3490.4554"/>
<path content="1,近鉄バス（株）,大阪・京都⇔仙台,1.0,1.0,1.0," xlink:title="1" d="M13568.8616,-3490.3564L13569.0203,-3490.3989L13569.1026,-3490.4246L13569.1328,-3490.4329L13569.2025,-3490.4521L13569.2139,-3490.4554"/>
<path content="1,近鉄バス（株）,大阪・京都⇔山形,1.0,1.0,1.0," xlink:title="1" d="M13568.8616,-3490.3564L13569.0203,-3490.3989L13569.1026,-3490.4246L13569.1328,-3490.4329L13569.2025,-3490.4521L13569.2139,-3490.4554"/>
<path content="1,近鉄バス（株）,大阪・京都⇔川越・坂戸・熊谷,1.0,1.0,1.0," xlink:title="1" d="M13568.8616,-3490.3564L13569.0203,-3490.3989L13569.1026,-3490.4246L13569.1328,-3490.4329L13569.2025,-3490.4521L13569.2139,-3490.4554"/>
<path content="1,近鉄バス（株）,大阪・京都⇔日立・いわき,1.0,1.0,1.0," xlink:title="1" d="M13568.8616,-3490.3564L13569.0203,-3490.3989L13569.1026,-3490.4246L13569.1328,-3490.4329L13569.2025,-3490.4521L13569.2139,-3490.4554"/>
<path content="1,近鉄バス（株）,大阪・京都⇔東静岡・富士宮・富士吉田駅,1.0,1.0,1.0," xlink:title="1" d="M13568.8616,-3490.3564L13569.0203,-3490.3989L13569.1026,-3490.4246L13569.1328,-3490.4329L13569.2025,-3490.4521L13569.2139,-3490.4554"/>
<path content="1,近鉄バス（株）,大阪・京都⇔沼津・御殿場・新松田・小田原,1.0,1.0,1.0," xlink:title="1" d="M13568.8616,-3490.3564L13569.0203,-3490.3989L13569.1026,-3490.4246L13569.1328,-3490.4329L13569.2025,-3490.4521L13569.2139,-3490.4554"/>
<path content="1,近鉄バス（株）,大阪・京都⇔甲府,2.0,2.0,2.0," xlink:title="1" d="M13568.8616,-3490.3564L13569.0203,-3490.3989L13569.1026,-3490.4246L13569.1328,-3490.4329L13569.2025,-3490.4521L13569.2139,-3490.4554"/>
<path content="1,近鉄バス（株）,大阪・京都⇔郡上八幡・飛騨高山,2.0,2.0,2.0," xlink:title="1" d="M13568.8616,-3490.3564L13569.0203,-3490.3989L13569.1026,-3490.4246L13569.1328,-3490.4329L13569.2025,-3490.4521L13569.2139,-3490.4554"/>
<path content="1,近鉄バス（株）,大阪・京都⇔郡山・福島,1.0,1.0,1.0," xlink:title="1" d="M13568.8616,-3490.3564L13569.0203,-3490.3989L13569.1026,-3490.4246L13569.1328,-3490.4329L13569.2025,-3490.4521L13569.2139,-3490.4554"/>
<path content="1,近鉄バス（株）,大阪・茨木⇔新宿,1.0,1.0,1.0," xlink:title="1" d="M13569.2139,-3490.4554L13569.2025,-3490.4521L13569.1328,-3490.4329L13569.1026,-3490.4246L13569.0203,-3490.3989L13568.8616,-3490.3564"/>
<path content="1,近鉄バス（株）,大阪・茨木⇔新宿・八王子,1.0,1.0,1.0," xlink:title="1" d="M13568.8616,-3490.3564L13569.0203,-3490.3989L13569.1026,-3490.4246L13569.1328,-3490.4329L13569.2025,-3490.4521L13569.2139,-3490.4554"/>
<path content="1,近鉄バス（株）,藤井寺・大阪・京都⇔東京駅・横浜,1.0,1.0,1.0," xlink:title="1" d="M13569.2139,-3490.4554L13569.2025,-3490.4521L13569.1328,-3490.4329L13569.1026,-3490.4246L13569.0203,-3490.3989L13568.8616,-3490.3564"/>
<path content="1,長崎自動車（株）,長崎～名古屋（グラバー号）,1.0,1.0,1.0," xlink:title="1" d="M13569.2139,-3490.4554L13569.2025,-3490.4521L13569.1328,-3490.4329L13569.1026,-3490.4246L13569.0203,-3490.3989L13568.8616,-3490.3564"/>
<path content="1,関東バス（株）,マスカット号,1.0,1.0,1.0," xlink:title="1" d="M13568.8616,-3490.3564L13569.0203,-3490.3989L13569.1026,-3490.4246L13569.1321,-3490.4327L13569.1328,-3490.4329L13569.2025,-3490.4521L13569.2139,-3490.4554"/>
<path content="1,関東自動車（株）,とちの木号,1.0,1.0,1.0," xlink:title="1" d="M13569.2139,-3490.4554L13569.2025,-3490.4521L13569.1328,-3490.4329L13569.1321,-3490.4327L13569.1026,-3490.4246L13569.0203,-3490.3989L13568.8616,-3490.3564"/>
<path content="1,関東鉄道（株）,水戸駅南口～あべの橋駅（JR天王寺駅）,1.0,1.0,1.0," xlink:title="1" d="M13569.2139,-3490.4554L13569.2025,-3490.4521L13569.1328,-3490.4329L13569.1321,-3490.4327L13569.1026,-3490.4246L13569.0203,-3490.3989L13568.8616,-3490.3564"/>
<path content="1,阪急バス（株）,伊那・箕輪行（アルペン伊那号）,2.0,2.0,2.0," xlink:title="1" d="M13568.8616,-3490.3564L13569.0203,-3490.3989L13569.1026,-3490.4246L13569.1328,-3490.4329L13569.2025,-3490.4521L13569.2139,-3490.4554"/>
<path content="1,阪急バス（株）,富山行,4.0,4.0,4.0," xlink:title="1" d="M13568.8616,-3490.3564L13569.0203,-3490.3989L13569.1026,-3490.4246L13569.1328,-3490.4329L13569.2025,-3490.4521L13569.2139,-3490.4554"/>
<path content="1,阪急バス（株）,新宿・渋谷行,1.0,1.0,1.0," xlink:title="1" d="M13568.8616,-3490.3564L13569.0203,-3490.3989L13569.1026,-3490.4246L13569.1328,-3490.4329L13569.2025,-3490.4521L13569.2139,-3490.4554"/>
<path content="1,阪急バス（株）,新潟行（おけさ号）,1.0,1.0,1.0," xlink:title="1" d="M13568.8616,-3490.3564L13569.0203,-3490.3989L13569.1026,-3490.4246L13569.1328,-3490.4329L13569.2025,-3490.4521L13569.2139,-3490.4554"/>
<path content="1,阪急バス（株）,東京・東京ディズニーリゾート・千葉行,1.0,1.0,1.0," xlink:title="1" d="M13568.8616,-3490.3564L13569.0203,-3490.3989L13569.1026,-3490.4246L13569.1328,-3490.4329L13569.2025,-3490.4521L13569.2139,-3490.4554"/>
<path content="1,阪急バス（株）,松本行（アルペン松本号）,3.0,3.0,3.0," xlink:title="1" d="M13568.8616,-3490.3564L13569.0203,-3490.3989L13569.1026,-3490.4246L13569.1328,-3490.4329L13569.2025,-3490.4521L13569.2139,-3490.4554"/>
<path content="1,阪急バス（株）,横浜・品川・池袋行,1.0,1.0,1.0," xlink:title="1" d="M13568.8616,-3490.3564L13569.0203,-3490.3989L13569.1026,-3490.4246L13569.1328,-3490.4329L13569.2025,-3490.4521L13569.2139,-3490.4554"/>
<path content="1,阪急バス（株）,福井行,3.0,3.0,3.0," xlink:title="1" d="M13568.8616,-3490.3564L13569.0203,-3490.3989L13569.1026,-3490.4246L13569.1328,-3490.4329L13569.2025,-3490.4521L13569.2139,-3490.4554"/>
<path content="1,阪急バス（株）,諏訪・茅野行（アルペン諏訪号）,2.0,2.0,2.0," xlink:title="1" d="M13568.8616,-3490.3564L13569.0203,-3490.3989L13569.1026,-3490.4246L13569.1328,-3490.4329L13569.2025,-3490.4521L13569.2139,-3490.4554"/>
<path content="1,阪急バス（株）,金沢行,2.0,2.0,2.0," xlink:title="1" d="M13568.8616,-3490.3564L13569.0203,-3490.3989L13569.1026,-3490.4246L13569.1328,-3490.4329L13569.2025,-3490.4521L13569.2139,-3490.4554"/>
<path content="1,阪急バス（株）,長岡京線1,60.0,40.2,38.8," xlink:title="1" d="M13569.2139,-3491.1651L13569.2053,-3491.1661L13569.1818,-3491.166L13569.1723,-3491.1665L13569.1498,-3491.1702L13569.1162,-3491.184L13569.0869,-3491.1998L13569.0294,-3491.2342L13568.9957,-3491.2533"/>
<path content="1,阪急バス（株）,長岡京線1,60.0,40.2,38.8," xlink:title="1" d="M13568.9957,-3491.2533L13568.9734,-3491.2218L13568.9542,-3491.1874L13568.9542,-3491.2246L13568.9521,-3491.26L13568.9548,-3491.2764L13568.9957,-3491.2533"/>
<path content="1,阪急バス（株）,長岡京線1,60.0,40.2,38.8," xlink:title="1" d="M13568.9957,-3491.2533L13569.0397,-3491.3119L13569.0548,-3491.3316L13569.0903,-3491.3807L13569.0971,-3491.3908L13569.1354,-3491.4416L13569.1453,-3491.4551"/>
<path content="1,阪急バス（株）,長岡京線1,60.0,40.2,38.8," xlink:title="1" d="M13568.1152,-3491.2642L13568.1176,-3491.2646L13568.1244,-3491.2663L13568.1498,-3491.2691L13568.1853,-3491.2685L13568.2044,-3491.264L13568.2359,-3491.2488L13568.2584,-3491.242L13568.2812,-3491.2382L13568.2851,-3491.2375L13568.2967,-3491.2375L13568.3624,-3491.2443L13568.3767,-3491.2454L13568.417,-3491.2449L13568.4617,-3491.2429L13568.4776,-3491.2412L13568.4977,-3491.2392L13568.5284,-3491.2336L13568.5518,-3491.2304L13568.566,-3491.2279L13568.5688,-3491.2268L13568.6337,-3491.2184L13568.7143,-3491.211L13568.7512,-3491.2096L13568.765,-3491.2131L13568.7809,-3491.221L13568.7939,-3491.2274L13568.805,-3491.2637L13568.8217,-3491.3305L13568.8559,-3491.4551"/>
<path content="1,阪急バス（株）,長岡京線13,25.0,21.0,21.0," xlink:title="1" d="M13568.8559,-3491.4551L13568.8217,-3491.3305L13568.805,-3491.2637L13568.7939,-3491.2274L13568.7809,-3491.221L13568.765,-3491.2131L13568.7512,-3491.2096L13568.7143,-3491.211L13568.6337,-3491.2184L13568.5688,-3491.2268L13568.566,-3491.2279L13568.5518,-3491.2304L13568.5284,-3491.2336L13568.4977,-3491.2392L13568.4776,-3491.2412L13568.4724,-3491.2262L13568.4676,-3491.2144L13568.4642,-3491.1997L13568.4519,-3491.1642L13568.4471,-3491.1507L13568.4409,-3491.1316L13568.4396,-3491.1299L13568.4327,-3491.1079L13568.4292,-3491.0939L13568.4252,-3491.0887L13568.4102,-3491.0346L13568.4098,-3491.0258L13568.4013,-3490.9912L13568.3986,-3490.9817L13568.3949,-3490.9586L13568.3938,-3490.9242L13568.3938,-3490.914L13568.3893,-3490.8901L13568.3859,-3490.8737L13568.3863,-3490.8458L13568.3946,-3490.8016L13568.4517,-3490.8153L13568.5855,-3490.8433L13568.6146,-3490.8487L13568.6727,-3490.8459L13568.713,-3490.8419L13568.8128,-3490.8397L13568.8907,-3490.8368L13568.9023,-3490.8723L13568.903,-3490.8763L13568.9126,-3490.9042L13568.9175,-3490.9153L13568.9184,-3490.9185L13568.922,-3490.931L13568.9253,-3490.94L13568.9307,-3490.9549L13568.9351,-3490.9761L13568.9351,-3491.0392L13568.9331,-3491.0764L13568.9337,-3491.0879L13568.9346,-3491.1069L13568.9351,-3491.1158L13568.9412,-3491.1457L13568.9542,-3491.1874L13568.9542,-3491.2246L13568.9521,-3491.26L13568.9548,-3491.2764L13568.9957,-3491.2533L13569.0397,-3491.3119L13569.0548,-3491.3316L13569.0903,-3491.3807L13569.0971,-3491.3908L13569.1354,-3491.4416L13569.1453,-3491.4551"/>
<path content="1,阪急バス（株）,長岡京線18,999.9,999.9,999.9," xlink:title="1" d="M13568.8495,-3490.3564L13568.8627,-3490.3901L13568.8736,-3490.4254L13568.8811,-3490.4536L13568.8818,-3490.4559L13568.8866,-3490.4744L13568.8921,-3490.5156L13568.8878,-3490.5496L13568.8928,-3490.5725L13568.89,-3490.5855L13568.8859,-3490.5988L13568.8779,-3490.6591L13568.8764,-3490.6706L13568.875,-3490.6757L13568.8729,-3490.7478L13568.8743,-3490.7686L13568.8777,-3490.7951L13568.8907,-3490.8368L13568.9023,-3490.8723L13568.903,-3490.8763L13568.9126,-3490.9042L13568.9175,-3490.9153L13568.9184,-3490.9185L13568.922,-3490.931L13568.9253,-3490.94L13568.9307,-3490.9549L13568.9351,-3490.9761L13568.9351,-3491.0392L13568.9331,-3491.0764L13568.9337,-3491.0879L13568.9346,-3491.1069L13568.9351,-3491.1158L13568.9412,-3491.1457L13568.9542,-3491.1874L13568.9542,-3491.2246L13568.9521,-3491.26L13568.9548,-3491.2764L13568.9575,-3491.3575L13568.9539,-3491.3754L13568.9445,-3491.3974L13568.9365,-3491.41L13568.9242,-3491.4255L13568.8877,-3491.4551"/>
<path content="1,阪急バス（株）,長岡京線3,46.5,44.2,41.5," xlink:title="1" d="M13569.2139,-3491.1651L13569.2053,-3491.1661L13569.1818,-3491.166L13569.1723,-3491.1665L13569.1498,-3491.1702L13569.1162,-3491.184L13569.0869,-3491.1998L13569.0294,-3491.2342L13568.9957,-3491.2533"/>
<path content="1,阪急バス（株）,長岡京線3,46.5,44.2,41.5," xlink:title="1" d="M13568.9957,-3491.2533L13568.9734,-3491.2218L13568.9542,-3491.1874L13568.9542,-3491.2246L13568.9521,-3491.26L13568.9548,-3491.2764L13568.9957,-3491.2533"/>
<path content="1,阪急バス（株）,長岡京線3,46.5,44.2,41.5," xlink:title="1" d="M13568.9957,-3491.2533L13569.0397,-3491.3119L13569.0548,-3491.3316L13569.0903,-3491.3807L13569.0971,-3491.3908L13569.1354,-3491.4416L13569.1453,-3491.4551"/>
<path content="1,阪急バス（株）,長岡京線3,46.5,44.2,41.5," xlink:title="1" d="M13568.1152,-3491.2642L13568.1176,-3491.2646L13568.1244,-3491.2663L13568.1498,-3491.2691L13568.1853,-3491.2685L13568.2044,-3491.264L13568.2359,-3491.2488L13568.2584,-3491.242L13568.2812,-3491.2382L13568.2851,-3491.2375L13568.2967,-3491.2375L13568.3624,-3491.2443L13568.3767,-3491.2454L13568.417,-3491.2449L13568.4617,-3491.2429L13568.4776,-3491.2412L13568.4977,-3491.2392L13568.5284,-3491.2336L13568.5518,-3491.2304L13568.566,-3491.2279L13568.5688,-3491.2268L13568.6337,-3491.2184L13568.7143,-3491.211L13568.7512,-3491.2096L13568.765,-3491.2131L13568.7809,-3491.221L13568.7939,-3491.2274L13568.805,-3491.2637L13568.8217,-3491.3305L13568.8559,-3491.4551"/>
<path content="1,阪急バス（株）,長岡京線41,23.0,23.0,20.0," xlink:title="1" d="M13568.805,-3491.2637L13568.8217,-3491.3305L13568.8559,-3491.4551M13568.1152,-3491.2642L13568.1176,-3491.2646L13568.1244,-3491.2663L13568.1498,-3491.2691L13568.1853,-3491.2685L13568.2044,-3491.264L13568.2359,-3491.2488L13568.2584,-3491.242L13568.2812,-3491.2382L13568.2851,-3491.2375L13568.2967,-3491.2375L13568.3624,-3491.2443L13568.3767,-3491.2454L13568.417,-3491.2449L13568.4617,-3491.2429L13568.4776,-3491.2412L13568.4977,-3491.2392L13568.5284,-3491.2336L13568.5518,-3491.2304L13568.566,-3491.2279L13568.5688,-3491.2268L13568.6337,-3491.2184L13568.7143,-3491.211L13568.7512,-3491.2096L13568.765,-3491.2131L13568.7809,-3491.221L13568.7939,-3491.2274L13568.805,-3491.2637"/>
<path content="1,阪急バス（株）,長岡京線43,20.5,19.5,19.5," xlink:title="1" d="M13568.805,-3491.2637L13568.8217,-3491.3305L13568.8559,-3491.4551M13568.1152,-3491.2642L13568.1176,-3491.2646L13568.1244,-3491.2663L13568.1498,-3491.2691L13568.1853,-3491.2685L13568.2044,-3491.264L13568.2359,-3491.2488L13568.2584,-3491.242L13568.2812,-3491.2382L13568.2851,-3491.2375L13568.2967,-3491.2375L13568.3624,-3491.2443L13568.3767,-3491.2454L13568.417,-3491.2449L13568.4617,-3491.2429L13568.4776,-3491.2412L13568.4977,-3491.2392L13568.5284,-3491.2336L13568.5518,-3491.2304L13568.566,-3491.2279L13568.5688,-3491.2268L13568.6337,-3491.2184L13568.7143,-3491.211L13568.7512,-3491.2096L13568.765,-3491.2131L13568.7809,-3491.221L13568.7939,-3491.2274L13568.805,-3491.2637"/>
<path content="1,阪急バス（株）,長岡京線48,30.0,26.0,25.0," xlink:title="1" d="M13569.2139,-3491.1651L13569.2053,-3491.1661L13569.1818,-3491.166L13569.1723,-3491.1665L13569.1498,-3491.1702L13569.1162,-3491.184L13569.0869,-3491.1998L13569.0294,-3491.2342L13568.9957,-3491.2533"/>
<path content="1,阪急バス（株）,長岡京線48,30.0,26.0,25.0," xlink:title="1" d="M13568.9957,-3491.2533L13568.9548,-3491.2764L13568.9521,-3491.26L13568.9542,-3491.2246L13568.9542,-3491.1874L13568.9734,-3491.2218L13568.9957,-3491.2533"/>
<path content="1,阪急バス（株）,長岡京線48,30.0,26.0,25.0," xlink:title="1" d="M13568.9957,-3491.2533L13569.0397,-3491.3119L13569.0548,-3491.3316L13569.0903,-3491.3807L13569.0971,-3491.3908L13569.1354,-3491.4416L13569.1453,-3491.4551"/>
<path content="1,阪急バス（株）,長岡京線（菱川系統）71,8.0,8.0,8.0," xlink:title="1" d="M13568.9957,-3491.2533L13569.0294,-3491.2342L13569.0869,-3491.1998L13569.1162,-3491.184L13569.1498,-3491.1702L13569.1723,-3491.1665L13569.1818,-3491.166L13569.2053,-3491.1661L13569.2139,-3491.1651"/>
<path content="1,阪急バス（株）,長岡京線（菱川系統）71,8.0,8.0,8.0," xlink:title="1" d="M13568.9548,-3491.2764L13568.9521,-3491.26L13568.9542,-3491.2246L13568.9542,-3491.1874L13568.9734,-3491.2218L13568.9957,-3491.2533"/>
<path content="1,阪急バス（株）,長岡京線（菱川系統）71,8.0,8.0,8.0," xlink:title="1" d="M13568.9548,-3491.2764L13568.9957,-3491.2533"/>
<path content="1,阪急バス（株）,長岡京線（菱川系統）71,8.0,8.0,8.0," xlink:title="1" d="M13568.8877,-3491.4551L13568.9242,-3491.4255L13568.9365,-3491.41L13568.9445,-3491.3974L13568.9539,-3491.3754L13568.9575,-3491.3575L13568.9548,-3491.2764"/>
<path content="1,阪急バス（株）,長岡京線（菱川系統）72,8.0,8.0,8.0," xlink:title="1" d="M13568.9957,-3491.2533L13569.0294,-3491.2342L13569.0869,-3491.1998L13569.1162,-3491.184L13569.1498,-3491.1702L13569.1723,-3491.1665L13569.1818,-3491.166L13569.2053,-3491.1661L13569.2139,-3491.1651"/>
<path content="1,阪急バス（株）,長岡京線（菱川系統）72,8.0,8.0,8.0," xlink:title="1" d="M13568.9548,-3491.2764L13568.9521,-3491.26L13568.9542,-3491.2246L13568.9542,-3491.1874L13568.9734,-3491.2218L13568.9957,-3491.2533"/>
<path content="1,阪急バス（株）,長岡京線（菱川系統）72,8.0,8.0,8.0," xlink:title="1" d="M13568.9548,-3491.2764L13568.9957,-3491.2533"/>
<path content="1,阪急バス（株）,長岡京線（菱川系統）72,8.0,8.0,8.0," xlink:title="1" d="M13568.8877,-3491.4551L13568.9242,-3491.4255L13568.9365,-3491.41L13568.9445,-3491.3974L13568.9539,-3491.3754L13568.9575,-3491.3575L13568.9548,-3491.2764"/>
<path content="1,阪急バス（株）,長野行（アルペン長野号）,2.0,2.0,2.0," xlink:title="1" d="M13568.8616,-3490.3564L13569.0203,-3490.3989L13569.1026,-3490.4246L13569.1328,-3490.4329L13569.2025,-3490.4521L13569.2139,-3490.4554"/>
<path content="1,阪急観光バス（株）,北九州・福岡行（ムーンライト号）,1.0,1.0,1.0," xlink:title="1" d="M13568.8616,-3490.3564L13569.0203,-3490.3989L13569.1026,-3490.4246L13569.1328,-3490.4329L13569.2025,-3490.4521L13569.2139,-3490.4554"/>
<path content="1,阪神バス（株）,サラダエクスプレス　神戸・大阪⇔東京ディズニーリゾート,1.0,1.0,1.0," xlink:title="1" d="M13568.8616,-3490.3564L13569.0203,-3490.3989L13569.1026,-3490.4246L13569.1328,-3490.4329L13569.2025,-3490.4521L13569.2139,-3490.4554"/>
<path content="1,防長交通（株）,萩・山口・防府・徳山・岩国～東京,1.0,1.0,1.0," xlink:title="1" d="M13568.8616,-3490.3564L13569.0203,-3490.3989L13569.1026,-3490.4246L13569.1328,-3490.4329L13569.2025,-3490.4521L13569.2139,-3490.4554"/>
<path content="1,高知県交通（株）,ドラゴンライナー　高知⇔名古屋線,1.0,1.0,1.0," xlink:title="1" d="M13568.8616,-3490.3564L13569.0203,-3490.3989L13569.1026,-3490.4246L13569.1328,-3490.4329L13569.2025,-3490.4521L13569.2139,-3490.4554"/>
<path content="1,高知県交通（株）,ブルーメッツ号　高知⇔東京線,1.0,1.0,1.0," xlink:title="1" d="M13568.8616,-3490.3564L13569.0203,-3490.3989L13569.1026,-3490.4246L13569.1328,-3490.4329L13569.2025,-3490.4521L13569.2139,-3490.4554"/>
<path content="1,高知県交通（株）,高知⇔京都線,2.0,2.0,2.0," xlink:title="1" d="M13568.8616,-3490.3564L13569.0203,-3490.3989L13569.1026,-3490.4246L13569.1328,-3490.4329L13569.2025,-3490.4521L13569.2139,-3490.4554"/>
<path content="1,高知西南交通（株）,しまんとブルーライナー　京都線,1.0,1.0,1.0," xlink:title="1" d="M13568.8616,-3490.3564L13569.0203,-3490.3989L13569.1026,-3490.4246L13569.1328,-3490.4329L13569.2025,-3490.4521L13569.2139,-3490.4554"/>
<path content="1,（株）中国バス,夜行便　東京線,1.0,1.0,1.0," xlink:title="1" d="M13569.2139,-3490.4554L13569.2025,-3490.4521L13569.1328,-3490.4329L13569.1026,-3490.4246L13569.0203,-3490.3989L13568.8616,-3490.3564"/>
<path content="1,（株）中国バス,夜行便　横浜線,1.0,1.0,1.0," xlink:title="1" d="M13569.2139,-3490.4554L13569.2025,-3490.4521L13569.1328,-3490.4329L13569.1026,-3490.4246L13569.0203,-3490.3989L13568.8616,-3490.3564"/>
<path content="1,（株）中国バス,関西　京都線,3.0,3.0,3.0," xlink:title="1" d="M13568.8616,-3490.3564L13569.0203,-3490.3989L13569.1026,-3490.4246L13569.1328,-3490.4329L13569.2025,-3490.4521L13569.2139,-3490.4554"/>
</g>
</svg>
