<?xml version="1.0" encoding="UTF-8"?>
<svg  xmlns="http://www.w3.org/2000/svg" xmlns:xlink="http://www.w3.org/1999/xlink" xmlns:go="http://purl.org/svgmap/profile" property="N07_001,N07_002,N07_003,N07_004,N07_005,N07_006,N07_007" viewBox="13965.8203125 -3579.345703125 1.0986328125 1.0986328125" go:dataArea="13965.8203125 -3579.345703125 1.0986328125 1.0986328125" >
<metadata>
 <rdf:RDF xmlns:rdf="http://www.w3.org/1999/02/22-rdf-syntax-ns#" xmlns:crs="http://opengis.org/xmldtds/transformations.dtd" xmlns:svg="http://www.w3.org/svg" >
  <rdf:Description>
   <crs:CoordinateReferenceSystem rdf:resource="http://purl.org/crs/84" svg:transform="matrix(100.0,0.0,0.0,-100.0,0.0,0.0)" />
  </rdf:Description>
 </rdf:RDF>
</metadata>
<globalCoordinateSystem srsName="http://purl.org/crs/84" transform="matrix(100.0,0.0,0.0,-100.0,0.0,0.0)" />
<defs>
 <g id="p0" >
  <circle cx="0.0" cy="0.0" r="3" stroke="green" stroke-width="0.75" vector-effect="non-scaling-stroke" />
 </g>
</defs>
<g fill="none" fill-rule="evenodd" stroke="#FF00FF" stroke-width="0.75" opacity="0.5" vector-effect="non-scaling-stroke" stroke-linejoin="bevel" >
<path content="1,イーグルバス（株）,川越～羽田空港高速直結バス,2.5,2.5,2.5," xlink:title="1" d="M13966.1045,-3578.2471L13966.1021,-3578.2476L13966.1015,-3578.2477L13966.1004,-3578.2479L13966.0936,-3578.2494L13966.0815,-3578.2519L13966.0758,-3578.2531L13966.0693,-3578.2545L13966.0527,-3578.2577L13966.0401,-3578.2603L13966.0308,-3578.2621L13966,-3578.2682L13965.999,-3578.2684L13965.9696,-3578.2742L13965.9688,-3578.2744L13965.9678,-3578.2746L13965.9649,-3578.2752L13965.9549,-3578.2775L13965.9403,-3578.2807L13965.929,-3578.2832L13965.8922,-3578.2893L13965.8845,-3578.2906L13965.8635,-3578.2941L13965.8543,-3578.2956L13965.8242,-3578.3023L13965.8233,-3578.3025L13965.8223,-3578.3027L13965.8213,-3578.3029L13965.8203,-3578.3031"/>
<path content="1,三交伊勢志摩交通（株）,鳥羽・伊勢～東京・大宮,2.0,2.0,2.0," xlink:title="1" d="M13965.8203,-3578.3031L13965.8212,-3578.3029L13965.8544,-3578.2956L13965.929,-3578.2832L13965.9698,-3578.2742L13966.0693,-3578.2545L13966.1005,-3578.248L13966.1048,-3578.2471"/>
<path content="1,三重交通（株）,勝浦・南紀～横浜・東京・大宮,1.0,1.0,1.0," xlink:title="1" d="M13965.8203,-3578.3031L13965.8212,-3578.3029L13965.8544,-3578.2956L13965.929,-3578.2832L13965.9698,-3578.2742L13966.0693,-3578.2545L13966.1005,-3578.248L13966.1048,-3578.2471"/>
<path content="1,三重交通（株）,鳥羽・伊勢～東京・大宮,2.0,2.0,2.0," xlink:title="1" d="M13965.8203,-3578.3031L13965.8212,-3578.3029L13965.8544,-3578.2956L13965.929,-3578.2832L13965.9698,-3578.2742L13966.0693,-3578.2545L13966.1005,-3578.248L13966.1048,-3578.2471"/>
<path content="1,京成バス（株）,成田空港～さいたま新都心・大宮駅,3.5,3.5,3.5," xlink:title="1" d="M13966.1045,-3578.2471L13966.1021,-3578.2476L13966.1015,-3578.2477L13966.1004,-3578.2479L13966.0936,-3578.2494L13966.0815,-3578.2519L13966.0758,-3578.2531L13966.0693,-3578.2545L13966.0527,-3578.2577L13966.0401,-3578.2603L13966.0308,-3578.2621L13966,-3578.2682L13965.999,-3578.2684L13965.9696,-3578.2742L13965.9688,-3578.2744L13965.9678,-3578.2746L13965.9649,-3578.2752L13965.9549,-3578.2775L13965.9403,-3578.2807L13965.929,-3578.2832L13965.8922,-3578.2893L13965.8845,-3578.2906L13965.8635,-3578.2941L13965.8543,-3578.2956L13965.8242,-3578.3023L13965.8233,-3578.3025L13965.8223,-3578.3027L13965.8213,-3578.3029L13965.8203,-3578.3031"/>
<path content="1,京成バス（株）,成田空港～和光市駅・大泉学園駅,2.5,2.5,2.5," xlink:title="1" d="M13965.8203,-3578.3031L13965.8213,-3578.3029L13965.8223,-3578.3027L13965.8233,-3578.3025L13965.8242,-3578.3023L13965.8543,-3578.2956L13965.8635,-3578.2941L13965.8845,-3578.2906L13965.8922,-3578.2893L13965.929,-3578.2832L13965.9403,-3578.2807L13965.9549,-3578.2775L13965.9649,-3578.2752L13965.9678,-3578.2746L13965.9688,-3578.2744L13965.9696,-3578.2742L13965.999,-3578.2684L13966,-3578.2682L13966.0308,-3578.2621L13966.0401,-3578.2603L13966.0527,-3578.2577L13966.0693,-3578.2545L13966.0758,-3578.2531L13966.0815,-3578.2519L13966.0936,-3578.2494L13966.1004,-3578.2479L13966.1015,-3578.2477L13966.1021,-3578.2476L13966.1045,-3578.2471"/>
<path content="1,京成バス（株）,成田空港～東所沢駅・所沢駅,4.0,4.0,4.0," xlink:title="1" d="M13966.1045,-3578.2471L13966.1021,-3578.2476L13966.1015,-3578.2477L13966.1004,-3578.2479L13966.0936,-3578.2494L13966.0815,-3578.2519L13966.0758,-3578.2531L13966.0693,-3578.2545L13966.0527,-3578.2577L13966.0401,-3578.2603L13966.0308,-3578.2621L13966,-3578.2682L13965.999,-3578.2684L13965.9696,-3578.2742L13965.9688,-3578.2744L13965.9678,-3578.2746L13965.9649,-3578.2752L13965.9549,-3578.2775L13965.9403,-3578.2807L13965.929,-3578.2832L13965.8922,-3578.2893L13965.8845,-3578.2906L13965.8635,-3578.2941L13965.8543,-3578.2956L13965.8242,-3578.3023L13965.8233,-3578.3025L13965.8223,-3578.3027L13965.8213,-3578.3029L13965.8203,-3578.3031"/>
<path content="1,京浜急行バス（株）,さいたま新都心駅・大宮～羽田空港線,5.0,5.0,5.0," xlink:title="1" d="M13966.1045,-3578.2471L13966.1021,-3578.2476L13966.1015,-3578.2477L13966.1004,-3578.2479L13966.0936,-3578.2494L13966.0815,-3578.2519L13966.0758,-3578.2531L13966.0693,-3578.2545L13966.0527,-3578.2577L13966.0401,-3578.2603L13966.0308,-3578.2621L13966,-3578.2682L13965.999,-3578.2684L13965.9696,-3578.2742L13965.9688,-3578.2744L13965.9678,-3578.2746L13965.9649,-3578.2752L13965.9549,-3578.2775L13965.9403,-3578.2807L13965.929,-3578.2832L13965.8922,-3578.2893L13965.8845,-3578.2906L13965.8635,-3578.2941L13965.8543,-3578.2956L13965.8242,-3578.3023L13965.8233,-3578.3025L13965.8223,-3578.3027L13965.8213,-3578.3029L13965.8203,-3578.3031"/>
<path content="1,京浜急行バス（株）,ノクターン号,3.4,4.0,4.0," xlink:title="1" d="M13966.1045,-3578.2471L13966.1021,-3578.2476L13966.1015,-3578.2477L13966.1004,-3578.2479L13966.0936,-3578.2494L13966.0815,-3578.2519L13966.0758,-3578.2531L13966.0693,-3578.2545L13966.0527,-3578.2577L13966.0401,-3578.2603L13966.0308,-3578.2621L13966,-3578.2682L13965.999,-3578.2684L13965.9696,-3578.2742L13965.9688,-3578.2744L13965.9678,-3578.2746L13965.9649,-3578.2752L13965.9549,-3578.2775L13965.9403,-3578.2807L13965.929,-3578.2832L13965.8922,-3578.2893L13965.8845,-3578.2906L13965.8635,-3578.2941L13965.8543,-3578.2956L13965.8242,-3578.3023L13965.8233,-3578.3025L13965.8223,-3578.3027L13965.8213,-3578.3029L13965.8203,-3578.3031"/>
<path content="1,京浜急行バス（株）,ビーム号,1.0,1.0,1.0," xlink:title="1" d="M13965.8203,-3578.3031L13965.8213,-3578.3029L13965.8223,-3578.3027L13965.8233,-3578.3025L13965.8242,-3578.3023L13965.8543,-3578.2956L13965.8635,-3578.2941L13965.8845,-3578.2906L13965.8922,-3578.2893L13965.929,-3578.2832L13965.9403,-3578.2807L13965.9549,-3578.2775L13965.9649,-3578.2752L13965.9678,-3578.2746L13965.9688,-3578.2744L13965.9696,-3578.2742L13965.999,-3578.2684L13966,-3578.2682L13966.0308,-3578.2621L13966.0401,-3578.2603L13966.0527,-3578.2577L13966.0693,-3578.2545L13966.0758,-3578.2531L13966.0815,-3578.2519L13966.0936,-3578.2494L13966.1004,-3578.2479L13966.1015,-3578.2477L13966.1021,-3578.2476L13966.1045,-3578.2471"/>
<path content="1,京王バス南（株）,新宿～長野線,7.0,7.0,7.0," xlink:title="1" d="M13966.1045,-3578.2471L13966.1021,-3578.2476L13966.1015,-3578.2477L13966.1004,-3578.2479L13966.0936,-3578.2494L13966.0815,-3578.2519L13966.0758,-3578.2531L13966.0693,-3578.2545L13966.0527,-3578.2577L13966.0401,-3578.2603L13966.0308,-3578.2621L13966,-3578.2682L13965.999,-3578.2684L13965.9696,-3578.2742L13965.9688,-3578.2744L13965.9678,-3578.2746L13965.9649,-3578.2752L13965.9549,-3578.2775L13965.9403,-3578.2807L13965.929,-3578.2832L13965.8922,-3578.2893L13965.8845,-3578.2906L13965.8635,-3578.2941L13965.8543,-3578.2956L13965.8242,-3578.3023L13965.8233,-3578.3025L13965.8223,-3578.3027L13965.8213,-3578.3029L13965.8203,-3578.3031"/>
<path content="1,千葉交通,ONライナー,4.0,4.0,4.0," xlink:title="1" d="M13965.8203,-3578.3031L13965.8213,-3578.3029L13965.8223,-3578.3027L13965.8233,-3578.3025L13965.8242,-3578.3023L13965.8543,-3578.2956L13965.8635,-3578.2941L13965.8845,-3578.2906L13965.8922,-3578.2893L13965.929,-3578.2832L13965.9403,-3578.2807L13965.9549,-3578.2775L13965.9649,-3578.2752L13965.9678,-3578.2746L13965.9688,-3578.2744L13965.9696,-3578.2742L13965.999,-3578.2684L13966,-3578.2682L13966.0308,-3578.2621L13966.0401,-3578.2603L13966.0527,-3578.2577L13966.0693,-3578.2545L13966.0758,-3578.2531L13966.0815,-3578.2519L13966.0936,-3578.2494L13966.1004,-3578.2479L13966.1015,-3578.2477L13966.1021,-3578.2476L13966.1045,-3578.2471"/>
<path content="1,千葉交通,アザレア号,7.0,7.0,7.0," xlink:title="1" d="M13965.8203,-3578.3031L13965.8213,-3578.3029L13965.8223,-3578.3027L13965.8233,-3578.3025L13965.8242,-3578.3023L13965.8543,-3578.2956L13965.8635,-3578.2941L13965.8845,-3578.2906L13965.8922,-3578.2893L13965.929,-3578.2832L13965.9403,-3578.2807L13965.9549,-3578.2775L13965.9649,-3578.2752L13965.9678,-3578.2746L13965.9688,-3578.2744L13965.9696,-3578.2742L13965.999,-3578.2684L13966,-3578.2682L13966.0308,-3578.2621L13966.0401,-3578.2603L13966.0527,-3578.2577L13966.0693,-3578.2545L13966.0758,-3578.2531L13966.0815,-3578.2519L13966.0936,-3578.2494L13966.1004,-3578.2479L13966.1015,-3578.2477L13966.1021,-3578.2476L13966.1045,-3578.2471"/>
<path content="1,国際十王交通（株）,成田空港線,2.0,2.0,2.0," xlink:title="1" d="M13966.1045,-3578.2471L13966.1021,-3578.2476L13966.1015,-3578.2477L13966.1004,-3578.2479L13966.0936,-3578.2494L13966.0815,-3578.2519L13966.0758,-3578.2531L13966.0693,-3578.2545L13966.0527,-3578.2577L13966.0401,-3578.2603L13966.0308,-3578.2621L13966,-3578.2682L13965.999,-3578.2684L13965.9696,-3578.2742L13965.9688,-3578.2744L13965.9678,-3578.2746L13965.9649,-3578.2752L13965.9549,-3578.2775L13965.9403,-3578.2807L13965.929,-3578.2832L13965.8922,-3578.2893L13965.8845,-3578.2906L13965.8635,-3578.2941L13965.8543,-3578.2956L13965.8242,-3578.3023L13965.8233,-3578.3025L13965.8223,-3578.3027L13965.8213,-3578.3029L13965.8203,-3578.3031"/>
<path content="1,国際十王交通（株）,羽田空港線,3.0,3.0,3.0," xlink:title="1" d="M13966.1045,-3578.2471L13966.1021,-3578.2476L13966.1015,-3578.2477L13966.1004,-3578.2479L13966.0936,-3578.2494L13966.0815,-3578.2519L13966.0758,-3578.2531L13966.0693,-3578.2545L13966.0527,-3578.2577L13966.0401,-3578.2603L13966.0308,-3578.2621L13966,-3578.2682L13965.999,-3578.2684L13965.9696,-3578.2742L13965.9688,-3578.2744L13965.9678,-3578.2746L13965.9649,-3578.2752L13965.9549,-3578.2775L13965.9403,-3578.2807L13965.929,-3578.2832L13965.8922,-3578.2893L13965.8845,-3578.2906L13965.8635,-3578.2941L13965.8543,-3578.2956L13965.8242,-3578.3023L13965.8233,-3578.3025L13965.8223,-3578.3027L13965.8213,-3578.3029L13965.8203,-3578.3031"/>
<path content="1,国際興業（株）,ジュピター号,1.0,1.0,1.0," xlink:title="1" d="M13966.1045,-3578.2471L13966.1021,-3578.2476L13966.1015,-3578.2477L13966.1004,-3578.2479L13966.0936,-3578.2494L13966.0815,-3578.2519L13966.0758,-3578.2531L13966.0693,-3578.2545L13966.0527,-3578.2577L13966.0401,-3578.2603L13966.0308,-3578.2621L13966,-3578.2682L13965.999,-3578.2684L13965.9696,-3578.2742L13965.9688,-3578.2744L13965.9678,-3578.2746L13965.9649,-3578.2752L13965.9549,-3578.2775L13965.9403,-3578.2807L13965.929,-3578.2832L13965.8922,-3578.2893L13965.8845,-3578.2906L13965.8635,-3578.2941L13965.8543,-3578.2956L13965.8242,-3578.3023L13965.8233,-3578.3025L13965.8223,-3578.3027L13965.8213,-3578.3029L13965.8203,-3578.3031"/>
<path content="1,国際興業（株）,ミッドナイトアロー高島平・中浦和,1.0,0.0,0.0," xlink:title="1" d="M13965.8203,-3578.923L13965.873,-3578.9126L13965.9799,-3578.8921L13966.0051,-3578.8872L13966.0247,-3578.8838L13966.2207,-3578.8426L13966.2281,-3578.8435L13966.2899,-3578.8287L13966.3279,-3578.8202L13966.5387,-3578.7706L13966.5518,-3578.7684L13966.6707,-3578.7402L13966.679,-3578.7385L13966.7385,-3578.725L13966.7668,-3578.7182L13966.7737,-3578.7177L13966.8194,-3578.7076L13966.8747,-3578.6957L13966.9189,-3578.6859"/>
<path content="1,国際興業（株）,下赤03,30.0,25.0,25.0," xlink:title="1" d="M13966.0051,-3578.8872L13965.9919,-3578.8534L13965.9893,-3578.8439L13965.9473,-3578.7479L13965.926,-3578.6553L13965.9058,-3578.596L13965.9026,-3578.5809L13965.8986,-3578.5665L13965.881,-3578.549L13965.8622,-3578.4514L13965.8575,-3578.4366L13965.8537,-3578.425L13965.822,-3578.33L13965.8203,-3578.3266"/>
<path content="1,国際興業（株）,下赤03,30.0,25.0,25.0," xlink:title="1" d="M13966.0051,-3578.8872L13966.0242,-3578.9362"/>
<path content="1,国際興業（株）,下赤03,30.0,25.0,25.0," xlink:title="1" d="M13966.0051,-3578.8872L13966.0247,-3578.8838L13966.2207,-3578.8426L13966.2664,-3578.8895L13966.2761,-3578.925L13966.2817,-3578.9392L13966.2906,-3578.9673L13966.3023,-3579.0073L13966.3452,-3578.9982L13966.3949,-3578.9915L13966.4129,-3578.9893L13966.4516,-3578.9853L13966.4827,-3578.9836L13966.4883,-3578.9825L13966.4949,-3578.9794L13966.5491,-3578.978L13966.5767,-3578.9763L13966.5836,-3578.9752L13966.6002,-3578.9746L13966.6569,-3578.969L13966.706,-3578.9656L13966.7488,-3578.9611L13966.7516,-3578.9774L13966.7523,-3578.987L13966.7613,-3579.0327L13966.7518,-3579.0322"/>
<path content="1,国際興業（株）,増17,36.0,34.0,30.0," xlink:title="1" d="M13965.8203,-3578.596L13965.8599,-3578.5881L13965.8819,-3578.5844L13965.9026,-3578.5809L13965.9058,-3578.596L13965.926,-3578.6553L13965.9473,-3578.7479L13965.9893,-3578.8439L13965.9919,-3578.8534L13966.0051,-3578.8872"/>
<path content="1,国際興業（株）,増17,36.0,34.0,30.0," xlink:title="1" d="M13966.0051,-3578.8872L13966.0247,-3578.8838L13966.2207,-3578.8426L13966.2664,-3578.8895L13966.2761,-3578.925L13966.2817,-3578.9392L13966.2906,-3578.9673L13966.3023,-3579.0073"/>
<path content="1,国際興業（株）,増17,36.0,34.0,30.0," xlink:title="1" d="M13966.0051,-3578.8872L13966.0242,-3578.9362L13966.051,-3579.0557L13966.0688,-3579.0523L13966.1129,-3579.0439L13966.1191,-3579.0433L13966.1426,-3579.0383L13966.2055,-3579.0265L13966.2166,-3579.0242L13966.2601,-3579.0158L13966.2684,-3579.0135L13966.2739,-3579.0124L13966.3023,-3579.0073"/>
<path content="1,国際興業（株）,増17,36.0,34.0,30.0," xlink:title="1" d="M13966.3023,-3579.0073L13966.3452,-3578.9982L13966.3949,-3578.9915L13966.4129,-3578.9893L13966.4516,-3578.9853L13966.4827,-3578.9836L13966.4883,-3578.9825L13966.4949,-3578.9794L13966.5491,-3578.978L13966.5767,-3578.9763L13966.5836,-3578.9752L13966.6002,-3578.9746L13966.6569,-3578.969L13966.706,-3578.9656L13966.7488,-3578.9611L13966.7516,-3578.9774L13966.7523,-3578.987L13966.7613,-3579.0327L13966.7518,-3579.0322"/>
<path content="1,国際興業（株）,夕陽号,2.0,2.0,2.0," xlink:title="1" d="M13966.1045,-3578.2471L13966.1021,-3578.2476L13966.1015,-3578.2477L13966.1004,-3578.2479L13966.0936,-3578.2494L13966.0815,-3578.2519L13966.0758,-3578.2531L13966.0693,-3578.2545L13966.0527,-3578.2577L13966.0401,-3578.2603L13966.0308,-3578.2621L13966,-3578.2682L13965.999,-3578.2684L13965.9696,-3578.2742L13965.9688,-3578.2744L13965.9678,-3578.2746L13965.9649,-3578.2752L13965.9549,-3578.2775L13965.9403,-3578.2807L13965.929,-3578.2832L13965.8922,-3578.2893L13965.8845,-3578.2906L13965.8635,-3578.2941L13965.8543,-3578.2956L13965.8242,-3578.3023L13965.8233,-3578.3025L13965.8223,-3578.3027L13965.8213,-3578.3029L13965.8203,-3578.3031"/>
<path content="1,国際興業（株）,大宮羽田線,4.0,4.0,4.0," xlink:title="1" d="M13966.1045,-3578.2471L13966.1021,-3578.2476L13966.1015,-3578.2477L13966.1004,-3578.2479L13966.0936,-3578.2494L13966.0815,-3578.2519L13966.0758,-3578.2531L13966.0693,-3578.2545L13966.0527,-3578.2577L13966.0401,-3578.2603L13966.0308,-3578.2621L13966,-3578.2682L13965.999,-3578.2684L13965.9696,-3578.2742L13965.9688,-3578.2744L13965.9678,-3578.2746L13965.9649,-3578.2752L13965.9549,-3578.2775L13965.9403,-3578.2807L13965.929,-3578.2832L13965.8922,-3578.2893L13965.8845,-3578.2906L13965.8635,-3578.2941L13965.8543,-3578.2956L13965.8242,-3578.3023L13965.8233,-3578.3025L13965.8223,-3578.3027L13965.8213,-3578.3029L13965.8203,-3578.3031"/>
<path content="1,国際興業（株）,東練01,97.5,75.5,51.0," xlink:title="1" d="M13966.5817,-3578.2471L13966.5843,-3578.2556L13966.5931,-3578.2802L13966.5963,-3578.2898L13966.6058,-3578.321L13966.6168,-3578.3554L13966.6382,-3578.419L13966.6445,-3578.4399L13966.5664,-3578.4545L13966.5342,-3578.4608L13966.5,-3578.4669L13966.4796,-3578.4727L13966.4032,-3578.4844L13966.2574,-3578.512L13966.2346,-3578.5165L13966.2214,-3578.5187L13966.1841,-3578.5261L13966.1758,-3578.5272L13966.1498,-3578.5335L13966.1329,-3578.5357L13966.0037,-3578.561L13965.9726,-3578.5672L13965.9504,-3578.5712L13965.9232,-3578.5767L13965.9026,-3578.5809L13965.9058,-3578.596L13965.926,-3578.6553L13965.9473,-3578.7479L13965.9893,-3578.8439L13965.9919,-3578.8534L13966.0051,-3578.8872"/>
<path content="1,国際興業（株）,東練01,97.5,75.5,51.0," xlink:title="1" d="M13966.0051,-3578.8872L13966.0247,-3578.8838L13966.2207,-3578.8426L13966.2664,-3578.8895L13966.2761,-3578.925L13966.2817,-3578.9392L13966.2906,-3578.9673L13966.3023,-3579.0073"/>
<path content="1,国際興業（株）,東練01,97.5,75.5,51.0," xlink:title="1" d="M13966.0051,-3578.8872L13966.0242,-3578.9362L13966.051,-3579.0557L13966.0688,-3579.0523L13966.1129,-3579.0439L13966.1191,-3579.0433L13966.1426,-3579.0383L13966.2055,-3579.0265L13966.2166,-3579.0242L13966.2601,-3579.0158L13966.2684,-3579.0135L13966.2739,-3579.0124L13966.3023,-3579.0073"/>
<path content="1,国際興業（株）,東練01,97.5,75.5,51.0," xlink:title="1" d="M13966.3023,-3579.0073L13966.3452,-3578.9982L13966.3505,-3579.0465L13966.3521,-3579.0642L13966.354,-3579.0956L13966.3603,-3579.1324L13966.3652,-3579.169L13966.3652,-3579.1752L13966.3672,-3579.1859L13966.3707,-3579.2147L13966.3778,-3579.2696L13966.3782,-3579.2728L13966.3836,-3579.3211L13966.3842,-3579.3261L13966.3858,-3579.3457"/>
<path content="1,国際興業（株）,東練01-2,2.0,1.0,0.0," xlink:title="1" d="M13966.0242,-3578.9362L13966.0051,-3578.8872L13965.9919,-3578.8534L13965.9893,-3578.8439L13965.9473,-3578.7479L13965.926,-3578.6553L13965.9058,-3578.596L13965.9026,-3578.5809L13965.9232,-3578.5767L13965.9504,-3578.5712L13965.9726,-3578.5672L13966.0037,-3578.561L13966.1329,-3578.5357L13966.1498,-3578.5335L13966.1758,-3578.5272L13966.1841,-3578.5261L13966.2214,-3578.5187L13966.2346,-3578.5165L13966.2574,-3578.512L13966.4032,-3578.4844L13966.4796,-3578.4727L13966.5,-3578.4669L13966.5342,-3578.4608L13966.5664,-3578.4545L13966.6445,-3578.4399L13966.6382,-3578.419L13966.6168,-3578.3554L13966.6058,-3578.321L13966.5963,-3578.2898L13966.5931,-3578.2802L13966.5843,-3578.2556L13966.5817,-3578.2471"/>
<path content="1,国際興業（株）,池20,47.0,52.0,50.0," xlink:title="1" d="M13966.7518,-3579.0322L13966.7613,-3579.0327L13966.7523,-3578.987L13966.7516,-3578.9774L13966.7488,-3578.9611L13966.7737,-3578.9577L13966.8422,-3578.9498L13966.8636,-3578.9482L13966.8864,-3578.9448L13966.8933,-3578.9448L13966.9009,-3578.9436L13966.9189,-3578.9417"/>
<path content="1,国際興業（株）,池21,56.0,53.0,50.0," xlink:title="1" d="M13966.3858,-3579.3457L13966.3842,-3579.3261L13966.3836,-3579.3211L13966.3782,-3579.2728L13966.3778,-3579.2696L13966.3707,-3579.2147L13966.3672,-3579.1859L13966.3652,-3579.1752L13966.3652,-3579.169L13966.3603,-3579.1324L13966.354,-3579.0956L13966.3521,-3579.0642L13966.3505,-3579.0465L13966.3452,-3578.9982L13966.3023,-3579.0073"/>
<path content="1,国際興業（株）,池21,56.0,53.0,50.0," xlink:title="1" d="M13966.3023,-3579.0073L13966.2906,-3578.9673L13966.2817,-3578.9392L13966.2761,-3578.925L13966.2664,-3578.8895L13966.2207,-3578.8426L13966.0247,-3578.8838L13966.0051,-3578.8872L13966.0242,-3578.9362L13966.051,-3579.0557L13966.0688,-3579.0523L13966.1129,-3579.0439L13966.1191,-3579.0433L13966.1426,-3579.0383L13966.2055,-3579.0265L13966.2166,-3579.0242L13966.2601,-3579.0158L13966.2684,-3579.0135L13966.2739,-3579.0124L13966.3023,-3579.0073"/>
<path content="1,国際興業（株）,赤56,96.0,85.0,82.0," xlink:title="1" d="M13966.9189,-3578.9417L13966.9009,-3578.9436L13966.8933,-3578.9448L13966.8864,-3578.9448L13966.8636,-3578.9482L13966.8422,-3578.9498L13966.7737,-3578.9577L13966.7488,-3578.9611L13966.7516,-3578.9774L13966.7523,-3578.987L13966.7613,-3579.0327L13966.7518,-3579.0322"/>
<path content="1,国際興業（株）,赤73,1.0,0.0,0.0," xlink:title="1" d="M13966.3858,-3579.3457L13966.3842,-3579.3261L13966.3836,-3579.3211L13966.3782,-3579.2728L13966.3778,-3579.2696L13966.3707,-3579.2147L13966.3672,-3579.1859L13966.3652,-3579.1752L13966.3652,-3579.169L13966.3603,-3579.1324L13966.354,-3579.0956L13966.3521,-3579.0642L13966.3505,-3579.0465L13966.3452,-3578.9982L13966.3023,-3579.0073L13966.2906,-3578.9673L13966.2817,-3578.9392L13966.2761,-3578.925L13966.2664,-3578.8895L13966.2207,-3578.8426L13966.0247,-3578.8838L13966.0051,-3578.8872"/>
<path content="1,国際興業（株）,赤73,1.0,0.0,0.0," xlink:title="1" d="M13966.0051,-3578.8872L13966.0242,-3578.9362"/>
<path content="1,国際興業（株）,赤73,1.0,0.0,0.0," xlink:title="1" d="M13966.0051,-3578.8872L13965.9919,-3578.8534L13965.9893,-3578.8439L13965.9473,-3578.7479L13965.926,-3578.6553L13965.9058,-3578.596L13965.9026,-3578.5809L13965.8819,-3578.5844L13965.8599,-3578.5881L13965.8203,-3578.596"/>
<path content="1,国際興業（株）,高01,55.5,52.0,48.5," xlink:title="1" d="M13966.7518,-3579.0322L13966.7613,-3579.0327L13966.7523,-3578.987L13966.7516,-3578.9774L13966.7488,-3578.9611L13966.706,-3578.9656L13966.6569,-3578.969L13966.6002,-3578.9746L13966.5836,-3578.9752L13966.5767,-3578.9763L13966.5491,-3578.978L13966.4949,-3578.9794L13966.4883,-3578.9825L13966.4827,-3578.9836L13966.4516,-3578.9853L13966.4129,-3578.9893L13966.3949,-3578.9915L13966.3452,-3578.9982L13966.3023,-3579.0073L13966.2739,-3579.0124L13966.2684,-3579.0135L13966.2601,-3579.0158L13966.2166,-3579.0242L13966.2055,-3579.0265L13966.1426,-3579.0383L13966.1191,-3579.0433L13966.1129,-3579.0439L13966.0688,-3579.0523L13966.051,-3579.0557L13966.0242,-3578.9362L13966.0051,-3578.8872L13965.9919,-3578.8534L13965.9893,-3578.8439L13965.9473,-3578.7479L13965.926,-3578.6553L13965.9058,-3578.596L13965.9026,-3578.5809L13965.8819,-3578.5844L13965.8599,-3578.5881L13965.8203,-3578.596"/>
<path content="1,国際興業（株）,高02,3.0,3.0,2.0," xlink:title="1" d="M13966.3023,-3579.0073L13966.2739,-3579.0124L13966.2684,-3579.0135L13966.2601,-3579.0158L13966.2166,-3579.0242L13966.2055,-3579.0265L13966.1426,-3579.0383L13966.1191,-3579.0433L13966.1129,-3579.0439L13966.0688,-3579.0523L13966.051,-3579.0557L13966.0242,-3578.9362L13966.0051,-3578.8872L13966.0247,-3578.8838L13966.2207,-3578.8426L13966.2664,-3578.8895L13966.2761,-3578.925L13966.2817,-3578.9392L13966.2906,-3578.9673L13966.3023,-3579.0073"/>
<path content="1,国際興業（株）,高02,3.0,3.0,2.0," xlink:title="1" d="M13966.3023,-3579.0073L13966.3452,-3578.9982L13966.3505,-3579.0465L13966.3521,-3579.0642L13966.354,-3579.0956L13966.3603,-3579.1324L13966.3652,-3579.169L13966.3652,-3579.1752L13966.3672,-3579.1859L13966.3707,-3579.2147L13966.3778,-3579.2696L13966.3782,-3579.2728L13966.3836,-3579.3211L13966.3842,-3579.3261L13966.3858,-3579.3457"/>
<path content="1,宇和島自動車（株）,宇和島・松山⇔横浜・池袋・大宮,1.0,1.0,1.0," xlink:title="1" d="M13965.8203,-3578.3031L13965.8212,-3578.3029L13965.8544,-3578.2956L13965.929,-3578.2832L13965.9698,-3578.2742L13966.0693,-3578.2545L13966.1005,-3578.248L13966.1048,-3578.2471"/>
<path content="1,富士急山梨バス（株）,河口湖～大宮・川越・所沢線,0.7,0.7,0.7," xlink:title="1" d="M13966.1045,-3578.2471L13966.1021,-3578.2476L13966.1015,-3578.2477L13966.1004,-3578.2479L13966.0936,-3578.2494L13966.0815,-3578.2519L13966.0758,-3578.2531L13966.0693,-3578.2545L13966.0527,-3578.2577L13966.0401,-3578.2603L13966.0308,-3578.2621L13966,-3578.2682L13965.999,-3578.2684L13965.9696,-3578.2742L13965.9688,-3578.2744L13965.9678,-3578.2746L13965.9649,-3578.2752L13965.9549,-3578.2775L13965.9403,-3578.2807L13965.929,-3578.2832L13965.8922,-3578.2893L13965.8845,-3578.2906L13965.8635,-3578.2941L13965.8543,-3578.2956L13965.8242,-3578.3023L13965.8233,-3578.3025L13965.8223,-3578.3027L13965.8213,-3578.3029L13965.8203,-3578.3031"/>
<path content="1,富士急行（株）,河口湖～大宮・川越・所沢線,0.7,0.7,0.7," xlink:title="1" d="M13966.1045,-3578.2471L13966.1021,-3578.2476L13966.1015,-3578.2477L13966.1004,-3578.2479L13966.0936,-3578.2494L13966.0815,-3578.2519L13966.0758,-3578.2531L13966.0693,-3578.2545L13966.0527,-3578.2577L13966.0401,-3578.2603L13966.0308,-3578.2621L13966,-3578.2682L13965.999,-3578.2684L13965.9696,-3578.2742L13965.9688,-3578.2744L13965.9678,-3578.2746L13965.9649,-3578.2752L13965.9549,-3578.2775L13965.9403,-3578.2807L13965.929,-3578.2832L13965.8922,-3578.2893L13965.8845,-3578.2906L13965.8635,-3578.2941L13965.8543,-3578.2956L13965.8242,-3578.3023L13965.8233,-3578.3025L13965.8223,-3578.3027L13965.8213,-3578.3029L13965.8203,-3578.3031"/>
<path content="1,富士急行（株）,河口湖～渋川・前橋・高崎線,0.3,0.3,0.3," xlink:title="1" d="M13966.1045,-3578.2471L13966.1021,-3578.2476L13966.1015,-3578.2477L13966.1004,-3578.2479L13966.0936,-3578.2494L13966.0815,-3578.2519L13966.0758,-3578.2531L13966.0693,-3578.2545L13966.0527,-3578.2577L13966.0401,-3578.2603L13966.0308,-3578.2621L13966,-3578.2682L13965.999,-3578.2684L13965.9696,-3578.2742L13965.9688,-3578.2744L13965.9678,-3578.2746L13965.9649,-3578.2752L13965.9549,-3578.2775L13965.9403,-3578.2807L13965.929,-3578.2832L13965.8922,-3578.2893L13965.8845,-3578.2906L13965.8635,-3578.2941L13965.8543,-3578.2956L13965.8242,-3578.3023L13965.8233,-3578.3025L13965.8223,-3578.3027L13965.8213,-3578.3029L13965.8203,-3578.3031"/>
<path content="1,岩手県交通（株）,盛岡・横浜線,1.0,1.0,1.0," xlink:title="1" d="M13966.1045,-3578.2471L13966.1021,-3578.2476L13966.1015,-3578.2477L13966.1004,-3578.2479L13966.0936,-3578.2494L13966.0815,-3578.2519L13966.0758,-3578.2531L13966.0693,-3578.2545L13966.0527,-3578.2577L13966.0401,-3578.2603L13966.0308,-3578.2621L13966,-3578.2682L13965.999,-3578.2684L13965.9696,-3578.2742L13965.9688,-3578.2744L13965.9678,-3578.2746L13965.9649,-3578.2752L13965.9549,-3578.2775L13965.9403,-3578.2807L13965.929,-3578.2832L13965.8922,-3578.2893L13965.8845,-3578.2906L13965.8635,-3578.2941L13965.8543,-3578.2956L13965.8242,-3578.3023L13965.8233,-3578.3025L13965.8223,-3578.3027L13965.8213,-3578.3029L13965.8203,-3578.3031"/>
<path content="1,岩手県北自動車（株）,BEAM-1　宮古・盛岡南⇔浜松町・品川,1.0,1.0,1.0," xlink:title="1" d="M13966.1045,-3578.2471L13966.1021,-3578.2476L13966.1015,-3578.2477L13966.1004,-3578.2479L13966.0936,-3578.2494L13966.0815,-3578.2519L13966.0758,-3578.2531L13966.0693,-3578.2545L13966.0527,-3578.2577L13966.0401,-3578.2603L13966.0308,-3578.2621L13966,-3578.2682L13965.999,-3578.2684L13965.9696,-3578.2742L13965.9688,-3578.2744L13965.9678,-3578.2746L13965.9649,-3578.2752L13965.9549,-3578.2775L13965.9403,-3578.2807L13965.929,-3578.2832L13965.8922,-3578.2893L13965.8845,-3578.2906L13965.8635,-3578.2941L13965.8543,-3578.2956L13965.8242,-3578.3023L13965.8233,-3578.3025L13965.8223,-3578.3027L13965.8213,-3578.3029L13965.8203,-3578.3031"/>
<path content="1,川越観光自動車,高速バス成田線,4.0,4.0,4.0," xlink:title="1" d="M13966.1045,-3578.2471L13966.1021,-3578.2476L13966.1015,-3578.2477L13966.1004,-3578.2479L13966.0936,-3578.2494L13966.0815,-3578.2519L13966.0758,-3578.2531L13966.0693,-3578.2545L13966.0527,-3578.2577L13966.0401,-3578.2603L13966.0308,-3578.2621L13966,-3578.2682L13965.999,-3578.2684L13965.9696,-3578.2742L13965.9688,-3578.2744L13965.9678,-3578.2746L13965.9649,-3578.2752L13965.9549,-3578.2775L13965.9403,-3578.2807L13965.929,-3578.2832L13965.8922,-3578.2893L13965.8845,-3578.2906L13965.8635,-3578.2941L13965.8543,-3578.2956L13965.8242,-3578.3023L13965.8233,-3578.3025L13965.8223,-3578.3027L13965.8213,-3578.3029L13965.8203,-3578.3031"/>
<path content="1,庄内交通（株）,高速バス　酒田・鶴岡⇔大宮・池袋・渋谷,1.0,1.0,1.0," xlink:title="1" d="M13966.1045,-3578.2471L13966.1021,-3578.2476L13966.1015,-3578.2477L13966.1004,-3578.2479L13966.0936,-3578.2494L13966.0815,-3578.2519L13966.0758,-3578.2531L13966.0693,-3578.2545L13966.0527,-3578.2577L13966.0401,-3578.2603L13966.0308,-3578.2621L13966,-3578.2682L13965.999,-3578.2684L13965.9696,-3578.2742L13965.9688,-3578.2744L13965.9678,-3578.2746L13965.9649,-3578.2752L13965.9549,-3578.2775L13965.9403,-3578.2807L13965.929,-3578.2832L13965.8922,-3578.2893L13965.8845,-3578.2906L13965.8635,-3578.2941L13965.8543,-3578.2956L13965.8242,-3578.3023L13965.8233,-3578.3025L13965.8223,-3578.3027L13965.8213,-3578.3029L13965.8203,-3578.3031"/>
<path content="1,日本中央バス（株）,シルクライナー,5.0,5.0,5.0," xlink:title="1" d="M13966.1045,-3578.2471L13966.1021,-3578.2476L13966.1015,-3578.2477L13966.1004,-3578.2479L13966.0936,-3578.2494L13966.0815,-3578.2519L13966.0758,-3578.2531L13966.0693,-3578.2545L13966.0527,-3578.2577L13966.0401,-3578.2603L13966.0308,-3578.2621L13966,-3578.2682L13965.999,-3578.2684L13965.9696,-3578.2742L13965.9688,-3578.2744L13965.9678,-3578.2746L13965.9649,-3578.2752L13965.9549,-3578.2775L13965.9403,-3578.2807L13965.929,-3578.2832L13965.8922,-3578.2893L13965.8845,-3578.2906L13965.8635,-3578.2941L13965.8543,-3578.2956L13965.8242,-3578.3023L13965.8233,-3578.3025L13965.8223,-3578.3027L13965.8213,-3578.3029L13965.8203,-3578.3031"/>
<path content="1,日本中央バス（株）,東京・さいたま～富山・金沢線,1.0,1.0,1.0," xlink:title="1" d="M13966.1045,-3578.2471L13966.1021,-3578.2476L13966.1015,-3578.2477L13966.1004,-3578.2479L13966.0936,-3578.2494L13966.0815,-3578.2519L13966.0758,-3578.2531L13966.0693,-3578.2545L13966.0527,-3578.2577L13966.0401,-3578.2603L13966.0308,-3578.2621L13966,-3578.2682L13965.999,-3578.2684L13965.9696,-3578.2742L13965.9688,-3578.2744L13965.9678,-3578.2746L13965.9649,-3578.2752L13965.9549,-3578.2775L13965.9403,-3578.2807L13965.929,-3578.2832L13965.8922,-3578.2893L13965.8845,-3578.2906L13965.8635,-3578.2941L13965.8543,-3578.2956L13965.8242,-3578.3023L13965.8233,-3578.3025L13965.8223,-3578.3027L13965.8213,-3578.3029L13965.8203,-3578.3031"/>
<path content="1,日本中央バス（株）,東海ライナー,2.0,2.0,2.0," xlink:title="1" d="M13966.1045,-3578.2471L13966.1021,-3578.2476L13966.1015,-3578.2477L13966.1004,-3578.2479L13966.0936,-3578.2494L13966.0815,-3578.2519L13966.0758,-3578.2531L13966.0693,-3578.2545L13966.0527,-3578.2577L13966.0401,-3578.2603L13966.0308,-3578.2621L13966,-3578.2682L13965.999,-3578.2684L13965.9696,-3578.2742L13965.9688,-3578.2744L13965.9678,-3578.2746L13965.9649,-3578.2752L13965.9549,-3578.2775L13965.9403,-3578.2807L13965.929,-3578.2832L13965.8922,-3578.2893L13965.8845,-3578.2906L13965.8635,-3578.2941L13965.8543,-3578.2956L13965.8242,-3578.3023L13965.8233,-3578.3025L13965.8223,-3578.3027L13965.8213,-3578.3029L13965.8203,-3578.3031"/>
<path content="1,日本中央バス（株）,渋川・前橋～羽田空港線,8.0,8.0,8.0," xlink:title="1" d="M13966.1045,-3578.2471L13966.1021,-3578.2476L13966.1015,-3578.2477L13966.1004,-3578.2479L13966.0936,-3578.2494L13966.0815,-3578.2519L13966.0758,-3578.2531L13966.0693,-3578.2545L13966.0527,-3578.2577L13966.0401,-3578.2603L13966.0308,-3578.2621L13966,-3578.2682L13965.999,-3578.2684L13965.9696,-3578.2742L13965.9688,-3578.2744L13965.9678,-3578.2746L13965.9649,-3578.2752L13965.9549,-3578.2775L13965.9403,-3578.2807L13965.929,-3578.2832L13965.8922,-3578.2893L13965.8845,-3578.2906L13965.8635,-3578.2941L13965.8543,-3578.2956L13965.8242,-3578.3023L13965.8233,-3578.3025L13965.8223,-3578.3027L13965.8213,-3578.3029L13965.8203,-3578.3031"/>
<path content="1,東京ベイシティ交通,小江戸川越・大宮駅～東京ディズニーリゾート・新浦安線,2.0,2.0,2.0," xlink:title="1" d="M13966.1045,-3578.2471L13966.1021,-3578.2476L13966.1015,-3578.2477L13966.1004,-3578.2479L13966.0936,-3578.2494L13966.0815,-3578.2519L13966.0758,-3578.2531L13966.0693,-3578.2545L13966.0527,-3578.2577L13966.0401,-3578.2603L13966.0308,-3578.2621L13966,-3578.2682L13965.999,-3578.2684L13965.9696,-3578.2742L13965.9688,-3578.2744L13965.9678,-3578.2746L13965.9649,-3578.2752L13965.9549,-3578.2775L13965.9403,-3578.2807L13965.929,-3578.2832L13965.8922,-3578.2893L13965.8845,-3578.2906L13965.8635,-3578.2941L13965.8543,-3578.2956L13965.8242,-3578.3023L13965.8233,-3578.3025L13965.8223,-3578.3027L13965.8213,-3578.3029L13965.8203,-3578.3031"/>
<path content="1,東京空港交通（株）,ふじみ野・新座・志木・朝霞台エリア～成田空港線,3.0,3.0,3.0," xlink:title="1" d="M13966.1045,-3578.2471L13966.1021,-3578.2476L13966.1015,-3578.2477L13966.1004,-3578.2479L13966.0936,-3578.2494L13966.0815,-3578.2519L13966.0758,-3578.2531L13966.0693,-3578.2545L13966.0527,-3578.2577L13966.0401,-3578.2603L13966.0308,-3578.2621L13966,-3578.2682L13965.999,-3578.2684L13965.9696,-3578.2742L13965.9688,-3578.2744L13965.9678,-3578.2746L13965.9649,-3578.2752L13965.9549,-3578.2775L13965.9403,-3578.2807L13965.929,-3578.2832L13965.8922,-3578.2893L13965.8845,-3578.2906L13965.8635,-3578.2941L13965.8543,-3578.2956L13965.8242,-3578.3023L13965.8233,-3578.3025L13965.8223,-3578.3027L13965.8213,-3578.3029L13965.8203,-3578.3031"/>
<path content="1,東京空港交通（株）,前橋・伊勢崎・高崎エリア～羽田空港線,4.0,4.0,4.0," xlink:title="1" d="M13966.1045,-3578.2471L13966.1021,-3578.2476L13966.1015,-3578.2477L13966.1004,-3578.2479L13966.0936,-3578.2494L13966.0815,-3578.2519L13966.0758,-3578.2531L13966.0693,-3578.2545L13966.0527,-3578.2577L13966.0401,-3578.2603L13966.0308,-3578.2621L13966,-3578.2682L13965.999,-3578.2684L13965.9696,-3578.2742L13965.9688,-3578.2744L13965.9678,-3578.2746L13965.9649,-3578.2752L13965.9549,-3578.2775L13965.9403,-3578.2807L13965.929,-3578.2832L13965.8922,-3578.2893L13965.8845,-3578.2906L13965.8635,-3578.2941L13965.8543,-3578.2956L13965.8242,-3578.3023L13965.8233,-3578.3025L13965.8223,-3578.3027L13965.8213,-3578.3029L13965.8203,-3578.3031"/>
<path content="1,東京空港交通（株）,大宮エリア～羽田空港線,5.0,5.0,5.0," xlink:title="1" d="M13966.1045,-3578.2471L13966.1021,-3578.2476L13966.1015,-3578.2477L13966.1004,-3578.2479L13966.0936,-3578.2494L13966.0815,-3578.2519L13966.0758,-3578.2531L13966.0693,-3578.2545L13966.0527,-3578.2577L13966.0401,-3578.2603L13966.0308,-3578.2621L13966,-3578.2682L13965.999,-3578.2684L13965.9696,-3578.2742L13965.9688,-3578.2744L13965.9678,-3578.2746L13965.9649,-3578.2752L13965.9549,-3578.2775L13965.9403,-3578.2807L13965.929,-3578.2832L13965.8922,-3578.2893L13965.8845,-3578.2906L13965.8635,-3578.2941L13965.8543,-3578.2956L13965.8242,-3578.3023L13965.8233,-3578.3025L13965.8223,-3578.3027L13965.8213,-3578.3029L13965.8203,-3578.3031"/>
<path content="1,東京空港交通（株）,大泉学園・和光市エリア～羽田空港線,5.0,5.0,5.0," xlink:title="1" d="M13966.1045,-3578.2471L13966.1021,-3578.2476L13966.1015,-3578.2477L13966.1004,-3578.2479L13966.0936,-3578.2494L13966.0815,-3578.2519L13966.0758,-3578.2531L13966.0693,-3578.2545L13966.0527,-3578.2577L13966.0401,-3578.2603L13966.0308,-3578.2621L13966,-3578.2682L13965.999,-3578.2684L13965.9696,-3578.2742L13965.9688,-3578.2744L13965.9678,-3578.2746L13965.9649,-3578.2752L13965.9549,-3578.2775L13965.9403,-3578.2807L13965.929,-3578.2832L13965.8922,-3578.2893L13965.8845,-3578.2906L13965.8635,-3578.2941L13965.8543,-3578.2956L13965.8242,-3578.3023L13965.8233,-3578.3025L13965.8223,-3578.3027L13965.8213,-3578.3029L13965.8203,-3578.3031"/>
<path content="1,東京空港交通（株）,所沢駅・東所沢駅～羽田空港線,9.5,9.5,9.5," xlink:title="1" d="M13966.1045,-3578.2471L13966.1021,-3578.2476L13966.1015,-3578.2477L13966.1004,-3578.2479L13966.0936,-3578.2494L13966.0815,-3578.2519L13966.0758,-3578.2531L13966.0693,-3578.2545L13966.0527,-3578.2577L13966.0401,-3578.2603L13966.0308,-3578.2621L13966,-3578.2682L13965.999,-3578.2684L13965.9696,-3578.2742L13965.9688,-3578.2744L13965.9678,-3578.2746L13965.9649,-3578.2752L13965.9549,-3578.2775L13965.9403,-3578.2807L13965.929,-3578.2832L13965.8922,-3578.2893L13965.8845,-3578.2906L13965.8635,-3578.2941L13965.8543,-3578.2956L13965.8242,-3578.3023L13965.8233,-3578.3025L13965.8223,-3578.3027L13965.8213,-3578.3029L13965.8203,-3578.3031"/>
<path content="1,東京空港交通（株）,本川越駅・川越駅～羽田空港線,2.5,2.5,2.5," xlink:title="1" d="M13966.1045,-3578.2471L13966.1021,-3578.2476L13966.1015,-3578.2477L13966.1004,-3578.2479L13966.0936,-3578.2494L13966.0815,-3578.2519L13966.0758,-3578.2531L13966.0693,-3578.2545L13966.0527,-3578.2577L13966.0401,-3578.2603L13966.0308,-3578.2621L13966,-3578.2682L13965.999,-3578.2684L13965.9696,-3578.2742L13965.9688,-3578.2744L13965.9678,-3578.2746L13965.9649,-3578.2752L13965.9549,-3578.2775L13965.9403,-3578.2807L13965.929,-3578.2832L13965.8922,-3578.2893L13965.8845,-3578.2906L13965.8635,-3578.2941L13965.8543,-3578.2956L13965.8242,-3578.3023L13965.8233,-3578.3025L13965.8223,-3578.3027L13965.8213,-3578.3029L13965.8203,-3578.3031"/>
<path content="1,東京空港交通（株）,本籠原駅・熊谷・森林公園駅・坂戸駅～羽田空港線,3.0,3.0,3.0," xlink:title="1" d="M13966.1045,-3578.2471L13966.1021,-3578.2476L13966.1015,-3578.2477L13966.1004,-3578.2479L13966.0936,-3578.2494L13966.0815,-3578.2519L13966.0758,-3578.2531L13966.0693,-3578.2545L13966.0527,-3578.2577L13966.0401,-3578.2603L13966.0308,-3578.2621L13966,-3578.2682L13965.999,-3578.2684L13965.9696,-3578.2742L13965.9688,-3578.2744L13965.9678,-3578.2746L13965.9649,-3578.2752L13965.9549,-3578.2775L13965.9403,-3578.2807L13965.929,-3578.2832L13965.8922,-3578.2893L13965.8845,-3578.2906L13965.8635,-3578.2941L13965.8543,-3578.2956L13965.8242,-3578.3023L13965.8233,-3578.3025L13965.8223,-3578.3027L13965.8213,-3578.3029L13965.8203,-3578.3031"/>
<path content="1,東京空港交通（株）,深谷駅・籠原駅・熊谷駅・森林公園駅～成田空港線,1.0,1.0,1.0," xlink:title="1" d="M13966.1045,-3578.2471L13966.1021,-3578.2476L13966.1015,-3578.2477L13966.1004,-3578.2479L13966.0936,-3578.2494L13966.0815,-3578.2519L13966.0758,-3578.2531L13966.0693,-3578.2545L13966.0527,-3578.2577L13966.0401,-3578.2603L13966.0308,-3578.2621L13966,-3578.2682L13965.999,-3578.2684L13965.9696,-3578.2742L13965.9688,-3578.2744L13965.9678,-3578.2746L13965.9649,-3578.2752L13965.9549,-3578.2775L13965.9403,-3578.2807L13965.929,-3578.2832L13965.8922,-3578.2893L13965.8845,-3578.2906L13965.8635,-3578.2941L13965.8543,-3578.2956L13965.8242,-3578.3023L13965.8233,-3578.3025L13965.8223,-3578.3027L13965.8213,-3578.3029L13965.8203,-3578.3031"/>
<path content="1,東武バスウエスト,ONライナー,4.0,4.0,4.0," xlink:title="1" d="M13966.1045,-3578.2471L13966.1021,-3578.2476L13966.1015,-3578.2477L13966.1004,-3578.2479L13966.0936,-3578.2494L13966.0815,-3578.2519L13966.0758,-3578.2531L13966.0693,-3578.2545L13966.0527,-3578.2577L13966.0401,-3578.2603L13966.0308,-3578.2621L13966,-3578.2682L13965.999,-3578.2684L13965.9696,-3578.2742L13965.9688,-3578.2744L13965.9678,-3578.2746L13965.9649,-3578.2752L13965.9549,-3578.2775L13965.9403,-3578.2807L13965.929,-3578.2832L13965.8922,-3578.2893L13965.8845,-3578.2906L13965.8635,-3578.2941L13965.8543,-3578.2956L13965.8242,-3578.3023L13965.8233,-3578.3025L13965.8223,-3578.3027L13965.8213,-3578.3029L13965.8203,-3578.3031"/>
<path content="1,東武バスウエスト,ふじみ野駅・ふじみ野駅・新座車庫・志木駅・朝霞台駅～成田空港,3.0,3.0,3.0," xlink:title="1" d="M13966.1045,-3578.2471L13966.1021,-3578.2476L13966.1015,-3578.2477L13966.1004,-3578.2479L13966.0936,-3578.2494L13966.0815,-3578.2519L13966.0758,-3578.2531L13966.0693,-3578.2545L13966.0527,-3578.2577L13966.0401,-3578.2603L13966.0308,-3578.2621L13966,-3578.2682L13965.999,-3578.2684L13965.9696,-3578.2742L13965.9688,-3578.2744L13965.9678,-3578.2746L13965.9649,-3578.2752L13965.9549,-3578.2775L13965.9403,-3578.2807L13965.929,-3578.2832L13965.8922,-3578.2893L13965.8845,-3578.2906L13965.8635,-3578.2941L13965.8543,-3578.2956L13965.8242,-3578.3023L13965.8233,-3578.3025L13965.8223,-3578.3027L13965.8213,-3578.3029L13965.8203,-3578.3031"/>
<path content="1,東武バスウエスト,ふじみ野駅・志木駅・朝霞台駅～羽田空港,8.5,8.5,8.5," xlink:title="1" d="M13966.1045,-3578.2471L13966.1021,-3578.2476L13966.1015,-3578.2477L13966.1004,-3578.2479L13966.0936,-3578.2494L13966.0815,-3578.2519L13966.0758,-3578.2531L13966.0693,-3578.2545L13966.0527,-3578.2577L13966.0401,-3578.2603L13966.0308,-3578.2621L13966,-3578.2682L13965.999,-3578.2684L13965.9696,-3578.2742L13965.9688,-3578.2744L13965.9678,-3578.2746L13965.9649,-3578.2752L13965.9549,-3578.2775L13965.9403,-3578.2807L13965.929,-3578.2832L13965.8922,-3578.2893L13965.8845,-3578.2906L13965.8635,-3578.2941L13965.8543,-3578.2956L13965.8242,-3578.3023L13965.8233,-3578.3025L13965.8223,-3578.3027L13965.8213,-3578.3029L13965.8203,-3578.3031"/>
<path content="1,東武バスウエスト,坂戸駅南口・川越駅西口～成田空港,2.0,2.0,2.0," xlink:title="1" d="M13966.1045,-3578.2471L13966.1021,-3578.2476L13966.1015,-3578.2477L13966.1004,-3578.2479L13966.0936,-3578.2494L13966.0815,-3578.2519L13966.0758,-3578.2531L13966.0693,-3578.2545L13966.0527,-3578.2577L13966.0401,-3578.2603L13966.0308,-3578.2621L13966,-3578.2682L13965.999,-3578.2684L13965.9696,-3578.2742L13965.9688,-3578.2744L13965.9678,-3578.2746L13965.9649,-3578.2752L13965.9549,-3578.2775L13965.9403,-3578.2807L13965.929,-3578.2832L13965.8922,-3578.2893L13965.8845,-3578.2906L13965.8635,-3578.2941L13965.8543,-3578.2956L13965.8242,-3578.3023L13965.8233,-3578.3025L13965.8223,-3578.3027L13965.8213,-3578.3029L13965.8203,-3578.3031"/>
<path content="1,東武バスウエスト,東京ディズニーリゾート（東京ディズニーランド・東京ディズニーシー）・新浦安～小江戸　川越,2.0,2.0,2.0," xlink:title="1" d="M13966.1045,-3578.2471L13966.1021,-3578.2476L13966.1015,-3578.2477L13966.1004,-3578.2479L13966.0936,-3578.2494L13966.0815,-3578.2519L13966.0758,-3578.2531L13966.0693,-3578.2545L13966.0527,-3578.2577L13966.0401,-3578.2603L13966.0308,-3578.2621L13966,-3578.2682L13965.999,-3578.2684L13965.9696,-3578.2742L13965.9688,-3578.2744L13965.9678,-3578.2746L13965.9649,-3578.2752L13965.9549,-3578.2775L13965.9403,-3578.2807L13965.929,-3578.2832L13965.8922,-3578.2893L13965.8845,-3578.2906L13965.8635,-3578.2941L13965.8543,-3578.2956L13965.8242,-3578.3023L13965.8233,-3578.3025L13965.8223,-3578.3027L13965.8213,-3578.3029L13965.8203,-3578.3031"/>
<path content="1,西武バス（株）,伊勢・鳥羽線,2.0,2.0,2.0," xlink:title="1" d="M13965.8203,-3578.3031L13965.8213,-3578.3029L13965.8223,-3578.3027L13965.8233,-3578.3025L13965.8242,-3578.3023L13965.8543,-3578.2956L13965.8635,-3578.2941L13965.8845,-3578.2906L13965.8922,-3578.2893L13965.929,-3578.2832L13965.9403,-3578.2807L13965.9549,-3578.2775L13965.9649,-3578.2752L13965.9678,-3578.2746L13965.9688,-3578.2744L13965.9696,-3578.2742L13965.999,-3578.2684L13966,-3578.2682L13966.0308,-3578.2621L13966.0401,-3578.2603L13966.0527,-3578.2577L13966.0693,-3578.2545L13966.0758,-3578.2531L13966.0815,-3578.2519L13966.0936,-3578.2494L13966.1004,-3578.2479L13966.1015,-3578.2477L13966.1021,-3578.2476L13966.1045,-3578.2471"/>
<path content="1,西武バス（株）,大宮成田線,2.0,2.0,2.0," xlink:title="1" d="M13966.1045,-3578.2471L13966.1021,-3578.2476L13966.1015,-3578.2477L13966.1004,-3578.2479L13966.0936,-3578.2494L13966.0815,-3578.2519L13966.0758,-3578.2531L13966.0693,-3578.2545L13966.0527,-3578.2577L13966.0401,-3578.2603L13966.0308,-3578.2621L13966,-3578.2682L13965.999,-3578.2684L13965.9696,-3578.2742L13965.9688,-3578.2744L13965.9678,-3578.2746L13965.9649,-3578.2752L13965.9549,-3578.2775L13965.9403,-3578.2807L13965.929,-3578.2832L13965.8922,-3578.2893L13965.8845,-3578.2906L13965.8635,-3578.2941L13965.8543,-3578.2956L13965.8242,-3578.3023L13965.8233,-3578.3025L13965.8223,-3578.3027L13965.8213,-3578.3029L13965.8203,-3578.3031"/>
<path content="1,西武バス（株）,大宮羽田線,5.0,5.0,5.0," xlink:title="1" d="M13966.1045,-3578.2471L13966.1021,-3578.2476L13966.1015,-3578.2477L13966.1004,-3578.2479L13966.0936,-3578.2494L13966.0815,-3578.2519L13966.0758,-3578.2531L13966.0693,-3578.2545L13966.0527,-3578.2577L13966.0401,-3578.2603L13966.0308,-3578.2621L13966,-3578.2682L13965.999,-3578.2684L13965.9696,-3578.2742L13965.9688,-3578.2744L13965.9678,-3578.2746L13965.9649,-3578.2752L13965.9549,-3578.2775L13965.9403,-3578.2807L13965.929,-3578.2832L13965.8922,-3578.2893L13965.8845,-3578.2906L13965.8635,-3578.2941L13965.8543,-3578.2956L13965.8242,-3578.3023L13965.8233,-3578.3025L13965.8223,-3578.3027L13965.8213,-3578.3029L13965.8203,-3578.3031"/>
<path content="1,西武バス（株）,大泉学園成田線,3.0,3.0,3.0," xlink:title="1" d="M13965.8203,-3578.3031L13965.8213,-3578.3029L13965.8223,-3578.3027L13965.8233,-3578.3025L13965.8242,-3578.3023L13965.8543,-3578.2956L13965.8635,-3578.2941L13965.8845,-3578.2906L13965.8922,-3578.2893L13965.929,-3578.2832L13965.9403,-3578.2807L13965.9549,-3578.2775L13965.9649,-3578.2752L13965.9678,-3578.2746L13965.9688,-3578.2744L13965.9696,-3578.2742L13965.999,-3578.2684L13966,-3578.2682L13966.0308,-3578.2621L13966.0401,-3578.2603L13966.0527,-3578.2577L13966.0693,-3578.2545L13966.0758,-3578.2531L13966.0815,-3578.2519L13966.0936,-3578.2494L13966.1004,-3578.2479L13966.1015,-3578.2477L13966.1021,-3578.2476L13966.1045,-3578.2471"/>
<path content="1,西武バス（株）,大泉学園羽田線,5.5,5.5,5.5," xlink:title="1" d="M13966.1045,-3578.2471L13966.1021,-3578.2476L13966.1015,-3578.2477L13966.1004,-3578.2479L13966.0936,-3578.2494L13966.0815,-3578.2519L13966.0758,-3578.2531L13966.0693,-3578.2545L13966.0527,-3578.2577L13966.0401,-3578.2603L13966.0308,-3578.2621L13966,-3578.2682L13965.999,-3578.2684L13965.9696,-3578.2742L13965.9688,-3578.2744L13965.9678,-3578.2746L13965.9649,-3578.2752L13965.9549,-3578.2775L13965.9403,-3578.2807L13965.929,-3578.2832L13965.8922,-3578.2893L13965.8845,-3578.2906L13965.8635,-3578.2941L13965.8543,-3578.2956L13965.8242,-3578.3023L13965.8233,-3578.3025L13965.8223,-3578.3027L13965.8213,-3578.3029L13965.8203,-3578.3031"/>
<path content="1,西武観光バス,びわこドリーム号,1.0,1.0,1.0," xlink:title="1" d="M13966.1045,-3578.2471L13966.1021,-3578.2476L13966.1015,-3578.2477L13966.1004,-3578.2479L13966.0936,-3578.2494L13966.0815,-3578.2519L13966.0758,-3578.2531L13966.0693,-3578.2545L13966.0527,-3578.2577L13966.0401,-3578.2603L13966.0308,-3578.2621L13966,-3578.2682L13965.999,-3578.2684L13965.9696,-3578.2742L13965.9688,-3578.2744L13965.9678,-3578.2746L13965.9649,-3578.2752L13965.9549,-3578.2775L13965.9403,-3578.2807L13965.929,-3578.2832L13965.8922,-3578.2893L13965.8845,-3578.2906L13965.8635,-3578.2941L13965.8543,-3578.2956L13965.8242,-3578.3023L13965.8233,-3578.3025L13965.8223,-3578.3027L13965.8213,-3578.3029L13965.8203,-3578.3031"/>
<path content="1,西武観光バス,大宮・池袋・横浜～南紀勝浦線,1.0,1.0,1.0," xlink:title="1" d="M13966.1045,-3578.2471L13966.1021,-3578.2476L13966.1015,-3578.2477L13966.1004,-3578.2479L13966.0936,-3578.2494L13966.0815,-3578.2519L13966.0758,-3578.2531L13966.0693,-3578.2545L13966.0527,-3578.2577L13966.0401,-3578.2603L13966.0308,-3578.2621L13966,-3578.2682L13965.999,-3578.2684L13965.9696,-3578.2742L13965.9688,-3578.2744L13965.9678,-3578.2746L13965.9649,-3578.2752L13965.9549,-3578.2775L13965.9403,-3578.2807L13965.929,-3578.2832L13965.8922,-3578.2893L13965.8845,-3578.2906L13965.8635,-3578.2941L13965.8543,-3578.2956L13965.8242,-3578.3023L13965.8233,-3578.3025L13965.8223,-3578.3027L13965.8213,-3578.3029L13965.8203,-3578.3031"/>
<path content="1,西武観光バス,宇和島線,1.0,1.0,1.0," xlink:title="1" d="M13966.1045,-3578.2471L13966.1021,-3578.2476L13966.1015,-3578.2477L13966.1004,-3578.2479L13966.0936,-3578.2494L13966.0815,-3578.2519L13966.0758,-3578.2531L13966.0693,-3578.2545L13966.0527,-3578.2577L13966.0401,-3578.2603L13966.0308,-3578.2621L13966,-3578.2682L13965.999,-3578.2684L13965.9696,-3578.2742L13965.9688,-3578.2744L13965.9678,-3578.2746L13965.9649,-3578.2752L13965.9549,-3578.2775L13965.9403,-3578.2807L13965.929,-3578.2832L13965.8922,-3578.2893L13965.8845,-3578.2906L13965.8635,-3578.2941L13965.8543,-3578.2956L13965.8242,-3578.3023L13965.8233,-3578.3025L13965.8223,-3578.3027L13965.8213,-3578.3029L13965.8203,-3578.3031"/>
<path content="1,関越交通（株）,アザレア号,14.0,14.0,14.0," xlink:title="1" d="M13966.1045,-3578.2471L13966.1021,-3578.2476L13966.1015,-3578.2477L13966.1004,-3578.2479L13966.0936,-3578.2494L13966.0815,-3578.2519L13966.0758,-3578.2531L13966.0693,-3578.2545L13966.0527,-3578.2577L13966.0401,-3578.2603L13966.0308,-3578.2621L13966,-3578.2682L13965.999,-3578.2684L13965.9696,-3578.2742L13965.9688,-3578.2744L13965.9678,-3578.2746L13965.9649,-3578.2752L13965.9549,-3578.2775L13965.9403,-3578.2807L13965.929,-3578.2832L13965.8922,-3578.2893L13965.8845,-3578.2906L13965.8635,-3578.2941L13965.8543,-3578.2956L13965.8242,-3578.3023L13965.8233,-3578.3025L13965.8223,-3578.3027L13965.8213,-3578.3029L13965.8203,-3578.3031"/>
<path content="1,関越交通（株）,四万温泉号,1.4,1.4,1.4," xlink:title="1" d="M13966.1045,-3578.2471L13966.1021,-3578.2476L13966.1015,-3578.2477L13966.1004,-3578.2479L13966.0936,-3578.2494L13966.0815,-3578.2519L13966.0758,-3578.2531L13966.0693,-3578.2545L13966.0527,-3578.2577L13966.0401,-3578.2603L13966.0308,-3578.2621L13966,-3578.2682L13965.999,-3578.2684L13965.9696,-3578.2742L13965.9688,-3578.2744L13965.9678,-3578.2746L13965.9649,-3578.2752L13965.9549,-3578.2775L13965.9403,-3578.2807L13965.929,-3578.2832L13965.8922,-3578.2893L13965.8845,-3578.2906L13965.8635,-3578.2941L13965.8543,-3578.2956L13965.8242,-3578.3023L13965.8233,-3578.3025L13965.8223,-3578.3027L13965.8213,-3578.3029L13965.8203,-3578.3031"/>
<path content="1,関越交通（株）,富士急ハイランド線,999.9,999.9,999.9," xlink:title="1" d="M13966.1045,-3578.2471L13966.1021,-3578.2476L13966.1015,-3578.2477L13966.1004,-3578.2479L13966.0936,-3578.2494L13966.0815,-3578.2519L13966.0758,-3578.2531L13966.0693,-3578.2545L13966.0527,-3578.2577L13966.0401,-3578.2603L13966.0308,-3578.2621L13966,-3578.2682L13965.999,-3578.2684L13965.9696,-3578.2742L13965.9688,-3578.2744L13965.9678,-3578.2746L13965.9649,-3578.2752L13965.9549,-3578.2775L13965.9403,-3578.2807L13965.929,-3578.2832L13965.8922,-3578.2893L13965.8845,-3578.2906L13965.8635,-3578.2941L13965.8543,-3578.2956L13965.8242,-3578.3023L13965.8233,-3578.3025L13965.8223,-3578.3027L13965.8213,-3578.3029L13965.8203,-3578.3031"/>
<path content="1,関越交通（株）,尾瀬号,1.3,1.3,1.3," xlink:title="1" d="M13966.1045,-3578.2471L13966.1021,-3578.2476L13966.1015,-3578.2477L13966.1004,-3578.2479L13966.0936,-3578.2494L13966.0815,-3578.2519L13966.0758,-3578.2531L13966.0693,-3578.2545L13966.0527,-3578.2577L13966.0401,-3578.2603L13966.0308,-3578.2621L13966,-3578.2682L13965.999,-3578.2684L13965.9696,-3578.2742L13965.9688,-3578.2744L13965.9678,-3578.2746L13965.9649,-3578.2752L13965.9549,-3578.2775L13965.9403,-3578.2807L13965.929,-3578.2832L13965.8922,-3578.2893L13965.8845,-3578.2906L13965.8635,-3578.2941L13965.8543,-3578.2956L13965.8242,-3578.3023L13965.8233,-3578.3025L13965.8223,-3578.3027L13965.8213,-3578.3029L13965.8203,-3578.3031"/>
</g>
</svg>
