<?xml version="1.0" encoding="UTF-8"?>
<svg  xmlns="http://www.w3.org/2000/svg" xmlns:xlink="http://www.w3.org/1999/xlink" xmlns:go="http://purl.org/svgmap/profile" property="N07_001,N07_002,N07_003,N07_004,N07_005,N07_006,N07_007" viewBox="13978.729248046875 -3554.7637939453125 0.1373291015625 0.1373291015625" go:dataArea="13978.729248046875 -3554.7637939453125 0.1373291015625 0.1373291015625" >
<metadata>
 <rdf:RDF xmlns:rdf="http://www.w3.org/1999/02/22-rdf-syntax-ns#" xmlns:crs="http://opengis.org/xmldtds/transformations.dtd" xmlns:svg="http://www.w3.org/svg" >
  <rdf:Description>
   <crs:CoordinateReferenceSystem rdf:resource="http://purl.org/crs/84" svg:transform="matrix(100.0,0.0,0.0,-100.0,0.0,0.0)" />
  </rdf:Description>
 </rdf:RDF>
</metadata>
<globalCoordinateSystem srsName="http://purl.org/crs/84" transform="matrix(100.0,0.0,0.0,-100.0,0.0,0.0)" />
<defs>
 <g id="p0" >
  <circle cx="0.0" cy="0.0" r="3" stroke="green" stroke-width="0.75" vector-effect="non-scaling-stroke" />
 </g>
</defs>
<g fill="none" fill-rule="evenodd" stroke="#FF00FF" stroke-width="0.75" opacity="0.5" vector-effect="non-scaling-stroke" stroke-linejoin="bevel" >
<path content="1,JRバス関東（株）,房総なのはな号,23.2,25.0,25.0," xlink:title="1" d="M13978.8666,-3554.6636L13978.8644,-3554.6666L13978.8604,-3554.6722L13978.8526,-3554.6831L13978.8421,-3554.6979L13978.8415,-3554.6987L13978.8413,-3554.699L13978.8411,-3554.6994L13978.8404,-3554.7003L13978.8376,-3554.7043L13978.8362,-3554.7062L13978.8338,-3554.7096L13978.8335,-3554.7101L13978.8331,-3554.7106L13978.8329,-3554.711L13978.8325,-3554.7115L13978.8317,-3554.7126L13978.831,-3554.7136L13978.8306,-3554.7142L13978.8301,-3554.715L13978.8288,-3554.7168L13978.8216,-3554.727L13978.8198,-3554.7296L13978.8186,-3554.7312L13978.8181,-3554.732L13978.8176,-3554.7327L13978.8148,-3554.7367L13978.8142,-3554.7376L13978.8138,-3554.7381L13978.8133,-3554.7389L13978.8124,-3554.7402L13978.8122,-3554.7406L13978.7959,-3554.7638"/>
<path content="1,ちばシティバス（株）,羽田空港～幕張新都心・稲毛海岸駅・千葉中央駅,6.5,6.5,6.5," xlink:title="1" d="M13978.8666,-3554.7156L13978.8376,-3554.7043L13978.785,-3554.6808L13978.7818,-3554.6793L13978.7813,-3554.6791L13978.7802,-3554.6785L13978.7704,-3554.674L13978.7637,-3554.6709L13978.7633,-3554.6707L13978.7625,-3554.6703L13978.7614,-3554.6699L13978.7535,-3554.6662L13978.7422,-3554.6609L13978.7354,-3554.6578L13978.7317,-3554.6561L13978.7292,-3554.6553"/>
<path content="1,イーグルバス（株）,川越～羽田空港高速直結バス,2.5,2.5,2.5," xlink:title="1" d="M13978.8666,-3554.7156L13978.8376,-3554.7043L13978.785,-3554.6808L13978.7818,-3554.6793L13978.7813,-3554.6791L13978.7802,-3554.6785L13978.7704,-3554.674L13978.7637,-3554.6709L13978.7633,-3554.6707L13978.7625,-3554.6703L13978.7614,-3554.6699L13978.7535,-3554.6662L13978.7422,-3554.6609L13978.7354,-3554.6578L13978.7317,-3554.6561L13978.7292,-3554.6553"/>
<path content="1,京成バス（株）,東京ディズニーリゾート・舞浜リゾート～羽田空港,11.0,11.0,11.0," xlink:title="1" d="M13978.7292,-3554.6553L13978.7317,-3554.6561L13978.7354,-3554.6578L13978.7422,-3554.6609L13978.7535,-3554.6662L13978.7614,-3554.6699L13978.7625,-3554.6703L13978.7633,-3554.6707L13978.7637,-3554.6709L13978.7704,-3554.674L13978.7802,-3554.6785L13978.7813,-3554.6791L13978.7818,-3554.6793L13978.785,-3554.6808L13978.8376,-3554.7043L13978.8666,-3554.7156"/>
<path content="1,京成バス（株）,浜松町・東京駅～かずさアーク・安房鴨川駅,10.0,10.0,10.0," xlink:title="1" d="M13978.8666,-3554.6636L13978.8644,-3554.6666L13978.8604,-3554.6722L13978.8526,-3554.6831L13978.8421,-3554.6979L13978.8415,-3554.6987L13978.8413,-3554.699L13978.8411,-3554.6994L13978.8404,-3554.7003L13978.8376,-3554.7043L13978.8362,-3554.7062L13978.8338,-3554.7096L13978.8335,-3554.7101L13978.8331,-3554.7106L13978.8329,-3554.711L13978.8325,-3554.7115L13978.8317,-3554.7126L13978.831,-3554.7136L13978.8306,-3554.7142L13978.8301,-3554.715L13978.8288,-3554.7168L13978.8216,-3554.727L13978.8198,-3554.7296L13978.8186,-3554.7312L13978.8181,-3554.732L13978.8176,-3554.7327L13978.8148,-3554.7367L13978.8142,-3554.7376L13978.8138,-3554.7381L13978.8133,-3554.7389L13978.8124,-3554.7402L13978.8122,-3554.7406L13978.7959,-3554.7638"/>
<path content="1,京成バス（株）,浜松町・東京駅～勝浦・御宿・安房小湊,2.0,2.0,2.0," xlink:title="1" d="M13978.8666,-3554.6636L13978.8644,-3554.6666L13978.8604,-3554.6722L13978.8526,-3554.6831L13978.8421,-3554.6979L13978.8415,-3554.6987L13978.8413,-3554.699L13978.8411,-3554.6994L13978.8404,-3554.7003L13978.8376,-3554.7043L13978.8362,-3554.7062L13978.8338,-3554.7096L13978.8335,-3554.7101L13978.8331,-3554.7106L13978.8329,-3554.711L13978.8325,-3554.7115L13978.8317,-3554.7126L13978.831,-3554.7136L13978.8306,-3554.7142L13978.8301,-3554.715L13978.8288,-3554.7168L13978.8216,-3554.727L13978.8198,-3554.7296L13978.8186,-3554.7312L13978.8181,-3554.732L13978.8176,-3554.7327L13978.8148,-3554.7367L13978.8142,-3554.7376L13978.8138,-3554.7381L13978.8133,-3554.7389L13978.8124,-3554.7402L13978.8122,-3554.7406L13978.7959,-3554.7638"/>
<path content="1,京成バス（株）,浜松町・東京駅～君津駅・青堀駅,22.0,21.0,21.0," xlink:title="1" d="M13978.8666,-3554.6636L13978.8644,-3554.6666L13978.8604,-3554.6722L13978.8526,-3554.6831L13978.8421,-3554.6979L13978.8415,-3554.6987L13978.8413,-3554.699L13978.8411,-3554.6994L13978.8404,-3554.7003L13978.8376,-3554.7043L13978.8362,-3554.7062L13978.8338,-3554.7096L13978.8335,-3554.7101L13978.8331,-3554.7106L13978.8329,-3554.711L13978.8325,-3554.7115L13978.8317,-3554.7126L13978.831,-3554.7136L13978.8306,-3554.7142L13978.8301,-3554.715L13978.8288,-3554.7168L13978.8216,-3554.727L13978.8198,-3554.7296L13978.8186,-3554.7312L13978.8181,-3554.732L13978.8176,-3554.7327L13978.8148,-3554.7367L13978.8142,-3554.7376L13978.8138,-3554.7381L13978.8133,-3554.7389L13978.8124,-3554.7402L13978.8122,-3554.7406L13978.7959,-3554.7638"/>
<path content="1,京成バス（株）,潮見・東京駅～木更津駅・君津製鉄所,15.0,15.0,15.0," xlink:title="1" d="M13978.8666,-3554.6636L13978.8644,-3554.6666L13978.8604,-3554.6722L13978.8526,-3554.6831L13978.8421,-3554.6979L13978.8415,-3554.6987L13978.8413,-3554.699L13978.8411,-3554.6994L13978.8404,-3554.7003L13978.8376,-3554.7043L13978.8362,-3554.7062L13978.8338,-3554.7096L13978.8335,-3554.7101L13978.8331,-3554.7106L13978.8329,-3554.711L13978.8325,-3554.7115L13978.8317,-3554.7126L13978.831,-3554.7136L13978.8306,-3554.7142L13978.8301,-3554.715L13978.8288,-3554.7168L13978.8216,-3554.727L13978.8198,-3554.7296L13978.8186,-3554.7312L13978.8181,-3554.732L13978.8176,-3554.7327L13978.8148,-3554.7367L13978.8142,-3554.7376L13978.8138,-3554.7381L13978.8133,-3554.7389L13978.8124,-3554.7402L13978.8122,-3554.7406L13978.7959,-3554.7638"/>
<path content="1,京成バス（株）,羽田空港～市川駅・富浜（妙典駅）・行徳駅,5.5,5.5,5.5," xlink:title="1" d="M13978.7292,-3554.6553L13978.7317,-3554.6561L13978.7354,-3554.6578L13978.7422,-3554.6609L13978.7535,-3554.6662L13978.7614,-3554.6699L13978.7625,-3554.6703L13978.7633,-3554.6707L13978.7637,-3554.6709L13978.7704,-3554.674L13978.7802,-3554.6785L13978.7813,-3554.6791L13978.7818,-3554.6793L13978.785,-3554.6808L13978.8376,-3554.7043L13978.8666,-3554.7156"/>
<path content="1,京成バス（株）,羽田空港～幕張新都心・稲毛海岸駅・千葉中央駅,7.5,7.5,7.5," xlink:title="1" d="M13978.7292,-3554.6553L13978.7317,-3554.6561L13978.7354,-3554.6578L13978.7422,-3554.6609L13978.7535,-3554.6662L13978.7614,-3554.6699L13978.7625,-3554.6703L13978.7633,-3554.6707L13978.7637,-3554.6709L13978.7704,-3554.674L13978.7802,-3554.6785L13978.7813,-3554.6791L13978.7818,-3554.6793L13978.785,-3554.6808L13978.8376,-3554.7043L13978.8666,-3554.7156"/>
<path content="1,京成バス（株）,羽田空港～津田沼駅,12.0,12.0,12.0," xlink:title="1" d="M13978.7292,-3554.6553L13978.7317,-3554.6561L13978.7354,-3554.6578L13978.7422,-3554.6609L13978.7535,-3554.6662L13978.7614,-3554.6699L13978.7625,-3554.6703L13978.7633,-3554.6707L13978.7637,-3554.6709L13978.7704,-3554.674L13978.7802,-3554.6785L13978.7813,-3554.6791L13978.7818,-3554.6793L13978.785,-3554.6808L13978.8376,-3554.7043L13978.8666,-3554.7156"/>
<path content="1,京成バス（株）,羽田空港～葛西駅・一之江駅・小岩駅,23.0,23.0,23.0," xlink:title="1" d="M13978.7292,-3554.6553L13978.7317,-3554.6561L13978.7354,-3554.6578L13978.7422,-3554.6609L13978.7535,-3554.6662L13978.7614,-3554.6699L13978.7625,-3554.6703L13978.7633,-3554.6707L13978.7637,-3554.6709L13978.7704,-3554.674L13978.7802,-3554.6785L13978.7813,-3554.6791L13978.7818,-3554.6793L13978.785,-3554.6808L13978.8376,-3554.7043L13978.8666,-3554.7156"/>
<path content="1,京成バス（株）,羽田空港～西船橋駅・船橋駅,7.5,7.5,7.5," xlink:title="1" d="M13978.7292,-3554.6553L13978.7317,-3554.6561L13978.7354,-3554.6578L13978.7422,-3554.6609L13978.7535,-3554.6662L13978.7614,-3554.6699L13978.7625,-3554.6703L13978.7633,-3554.6707L13978.7637,-3554.6709L13978.7704,-3554.674L13978.7802,-3554.6785L13978.7813,-3554.6791L13978.7818,-3554.6793L13978.785,-3554.6808L13978.8376,-3554.7043L13978.8666,-3554.7156"/>
<path content="1,京浜急行バス・羽田京急バス,001,41.0,41.0,41.0," xlink:title="1" d="M13978.8666,-3554.7156L13978.8376,-3554.7043L13978.785,-3554.6808L13978.7818,-3554.6793L13978.7813,-3554.6791L13978.7802,-3554.6785L13978.7704,-3554.674L13978.7637,-3554.6709L13978.7633,-3554.6707L13978.7625,-3554.6703L13978.7614,-3554.6699L13978.7535,-3554.6662L13978.7422,-3554.6609L13978.7354,-3554.6578L13978.7317,-3554.6561L13978.7292,-3554.6553"/>
<path content="1,京浜急行バス・羽田京急バス,森21,41.5,41.5,41.5," xlink:title="1" d="M13978.8666,-3554.7156L13978.8376,-3554.7043L13978.785,-3554.6808L13978.7818,-3554.6793L13978.7813,-3554.6791L13978.7802,-3554.6785L13978.7704,-3554.674L13978.7637,-3554.6709L13978.7633,-3554.6707L13978.7625,-3554.6703L13978.7614,-3554.6699L13978.7535,-3554.6662L13978.7422,-3554.6609L13978.7354,-3554.6578L13978.7317,-3554.6561L13978.7292,-3554.6553"/>
<path content="1,京浜急行バス・羽田京急バス,空71,112.5,112.5,112.5," xlink:title="1" d="M13978.7292,-3554.6553L13978.7317,-3554.6561L13978.7354,-3554.6578L13978.7422,-3554.6609L13978.7535,-3554.6662L13978.7614,-3554.6699L13978.7625,-3554.6703L13978.7633,-3554.6707L13978.7637,-3554.6709L13978.7659,-3554.6679L13978.7961,-3554.6265"/>
<path content="1,京浜急行バス・羽田京急バス,蒲31,66.0,64.0,64.0," xlink:title="1" d="M13978.7292,-3554.6553L13978.7317,-3554.6561L13978.7354,-3554.6578L13978.7422,-3554.6609L13978.7535,-3554.6662L13978.7614,-3554.6699L13978.7625,-3554.6703L13978.7633,-3554.6707L13978.7637,-3554.6709L13978.7704,-3554.674L13978.7802,-3554.6785L13978.7813,-3554.6791L13978.7818,-3554.6793L13978.785,-3554.6808L13978.8376,-3554.7043L13978.8666,-3554.7156"/>
<path content="1,京浜急行バス・羽田京急バス,蒲41,31.5,31.5,31.5," xlink:title="1" d="M13978.8666,-3554.7156L13978.8376,-3554.7043L13978.785,-3554.6808L13978.7818,-3554.6793L13978.7813,-3554.6791L13978.7802,-3554.6785L13978.7704,-3554.674L13978.7637,-3554.6709L13978.7633,-3554.6707L13978.7625,-3554.6703L13978.7614,-3554.6699L13978.7535,-3554.6662L13978.7422,-3554.6609L13978.7354,-3554.6578L13978.7317,-3554.6561L13978.7292,-3554.6553"/>
<path content="1,京浜急行バス（株）,さいたま新都心駅・大宮～羽田空港線,5.0,5.0,5.0," xlink:title="1" d="M13978.8666,-3554.7156L13978.8376,-3554.7043L13978.8362,-3554.7062L13978.8338,-3554.7096L13978.8335,-3554.7101L13978.8331,-3554.7106L13978.8329,-3554.711L13978.8325,-3554.7115L13978.8317,-3554.7126L13978.831,-3554.7136L13978.8306,-3554.7142L13978.8301,-3554.715L13978.8288,-3554.7168L13978.8216,-3554.727L13978.8198,-3554.7296L13978.8186,-3554.7312L13978.8181,-3554.732L13978.8176,-3554.7327L13978.8148,-3554.7367L13978.8142,-3554.7376L13978.8138,-3554.7381L13978.8133,-3554.7389L13978.8124,-3554.7402L13978.8122,-3554.7406L13978.7959,-3554.7638"/>
<path content="1,京浜急行バス（株）,たまプラーザ駅～羽田空港線,17.5,17.5,17.5," xlink:title="1" d="M13978.8376,-3554.7043L13978.785,-3554.6808L13978.7818,-3554.6793L13978.7813,-3554.6791L13978.7802,-3554.6785L13978.7704,-3554.674L13978.7637,-3554.6709L13978.7633,-3554.6707L13978.7625,-3554.6703L13978.7614,-3554.6699L13978.7535,-3554.6662L13978.7422,-3554.6609L13978.7354,-3554.6578L13978.7317,-3554.6561L13978.7292,-3554.6553"/>
<path content="1,京浜急行バス（株）,たまプラーザ駅～羽田空港線,17.5,17.5,17.5," xlink:title="1" d="M13978.8376,-3554.7043L13978.8362,-3554.7062L13978.8338,-3554.7096L13978.8335,-3554.7101L13978.8331,-3554.7106L13978.8329,-3554.711L13978.8325,-3554.7115L13978.8317,-3554.7126L13978.831,-3554.7136L13978.8306,-3554.7142L13978.8301,-3554.715L13978.8288,-3554.7168L13978.8216,-3554.727L13978.8198,-3554.7296L13978.8186,-3554.7312L13978.8181,-3554.732L13978.8176,-3554.7327L13978.8148,-3554.7367L13978.8142,-3554.7376L13978.8138,-3554.7381L13978.8133,-3554.7389L13978.8124,-3554.7402L13978.8122,-3554.7406L13978.7959,-3554.7638"/>
<path content="1,京浜急行バス（株）,たまプラーザ駅～羽田空港線,17.5,17.5,17.5," xlink:title="1" d="M13978.8666,-3554.7156L13978.8376,-3554.7043"/>
<path content="1,京浜急行バス（株）,つくばセンター～羽田空港線,6.0,6.0,6.0," xlink:title="1" d="M13978.7959,-3554.7638L13978.8122,-3554.7406L13978.8124,-3554.7402L13978.8133,-3554.7389L13978.8138,-3554.7381L13978.8142,-3554.7376L13978.8148,-3554.7367L13978.8176,-3554.7327L13978.8181,-3554.732L13978.8186,-3554.7312L13978.8198,-3554.7296L13978.8216,-3554.727L13978.8288,-3554.7168L13978.8301,-3554.715L13978.8306,-3554.7142L13978.831,-3554.7136L13978.8317,-3554.7126L13978.8325,-3554.7115L13978.8329,-3554.711L13978.8331,-3554.7106L13978.8335,-3554.7101L13978.8338,-3554.7096L13978.8362,-3554.7062L13978.8376,-3554.7043L13978.785,-3554.6808L13978.7818,-3554.6793L13978.7813,-3554.6791L13978.7802,-3554.6785L13978.7704,-3554.674L13978.7637,-3554.6709L13978.7633,-3554.6707L13978.7625,-3554.6703L13978.7614,-3554.6699L13978.7535,-3554.6662L13978.7422,-3554.6609L13978.7354,-3554.6578L13978.7317,-3554.6561L13978.7292,-3554.6553"/>
<path content="1,京浜急行バス（株）,センター北駅・センター南駅～羽田空港線,8.5,8.5,8.5," xlink:title="1" d="M13978.7292,-3554.6553L13978.7317,-3554.6561L13978.7354,-3554.6578L13978.7422,-3554.6609L13978.7535,-3554.6662L13978.7614,-3554.6699L13978.7625,-3554.6703L13978.7633,-3554.6707L13978.7637,-3554.6709L13978.7704,-3554.674L13978.7802,-3554.6785L13978.7813,-3554.6791L13978.7818,-3554.6793L13978.785,-3554.6808L13978.8376,-3554.7043L13978.8362,-3554.7062L13978.8338,-3554.7096L13978.8335,-3554.7101L13978.8331,-3554.7106L13978.8329,-3554.711L13978.8325,-3554.7115L13978.8317,-3554.7126L13978.831,-3554.7136L13978.8306,-3554.7142L13978.8301,-3554.715L13978.8288,-3554.7168L13978.8216,-3554.727L13978.8198,-3554.7296L13978.8186,-3554.7312L13978.8181,-3554.732L13978.8176,-3554.7327L13978.8148,-3554.7367L13978.8142,-3554.7376L13978.8138,-3554.7381L13978.8133,-3554.7389L13978.8124,-3554.7402L13978.8122,-3554.7406L13978.7959,-3554.7638"/>
<path content="1,京浜急行バス（株）,上総牛久駅・茂原駅～羽田空港線,3.0,3.0,3.0," xlink:title="1" d="M13978.8666,-3554.6636L13978.8644,-3554.6666L13978.8604,-3554.6722L13978.8526,-3554.6831L13978.8421,-3554.6979L13978.8415,-3554.6987L13978.8413,-3554.699L13978.8411,-3554.6994L13978.8404,-3554.7003L13978.8376,-3554.7043"/>
<path content="1,京浜急行バス（株）,上総牛久駅・茂原駅～羽田空港線,3.0,3.0,3.0," xlink:title="1" d="M13978.8376,-3554.7043L13978.785,-3554.6808L13978.7818,-3554.6793L13978.7813,-3554.6791L13978.7802,-3554.6785L13978.7704,-3554.674L13978.7637,-3554.6709L13978.7633,-3554.6707L13978.7625,-3554.6703L13978.7614,-3554.6699L13978.7535,-3554.6662L13978.7422,-3554.6609L13978.7354,-3554.6578L13978.7317,-3554.6561L13978.7292,-3554.6553"/>
<path content="1,京浜急行バス（株）,上総牛久駅・茂原駅～羽田空港線,3.0,3.0,3.0," xlink:title="1" d="M13978.8376,-3554.7043L13978.8666,-3554.7156"/>
<path content="1,京浜急行バス（株）,上総牛久駅・茂原駅～羽田空港線,3.0,3.0,3.0," xlink:title="1" d="M13978.7959,-3554.7638L13978.8122,-3554.7406L13978.8124,-3554.7402L13978.8133,-3554.7389L13978.8138,-3554.7381L13978.8142,-3554.7376L13978.8148,-3554.7367L13978.8176,-3554.7327L13978.8181,-3554.732L13978.8186,-3554.7312L13978.8198,-3554.7296L13978.8216,-3554.727L13978.8288,-3554.7168L13978.8301,-3554.715L13978.8306,-3554.7142L13978.831,-3554.7136L13978.8317,-3554.7126L13978.8325,-3554.7115L13978.8329,-3554.711L13978.8331,-3554.7106L13978.8335,-3554.7101L13978.8338,-3554.7096L13978.8362,-3554.7062L13978.8376,-3554.7043"/>
<path content="1,京浜急行バス（株）,二俣川駅～羽田空港線,11.0,11.0,11.0," xlink:title="1" d="M13978.7292,-3554.6553L13978.7317,-3554.6561L13978.7354,-3554.6578L13978.7422,-3554.6609L13978.7535,-3554.6662L13978.7614,-3554.6699L13978.7625,-3554.6703L13978.7633,-3554.6707L13978.7637,-3554.6709L13978.7704,-3554.674L13978.7802,-3554.6785L13978.7813,-3554.6791L13978.7818,-3554.6793L13978.785,-3554.6808L13978.8376,-3554.7043L13978.8362,-3554.7062L13978.8338,-3554.7096L13978.8335,-3554.7101L13978.8331,-3554.7106L13978.8329,-3554.711L13978.8325,-3554.7115L13978.8317,-3554.7126L13978.831,-3554.7136L13978.8306,-3554.7142L13978.8301,-3554.715L13978.8288,-3554.7168L13978.8216,-3554.727L13978.8198,-3554.7296L13978.8186,-3554.7312L13978.8181,-3554.732L13978.8176,-3554.7327L13978.8148,-3554.7367L13978.8142,-3554.7376L13978.8138,-3554.7381L13978.8133,-3554.7389L13978.8124,-3554.7402L13978.8122,-3554.7406L13978.7959,-3554.7638"/>
<path content="1,京浜急行バス（株）,二子玉川駅～羽田空港線,8.5,8.5,8.5," xlink:title="1" d="M13978.7292,-3554.6553L13978.7317,-3554.6561L13978.7354,-3554.6578L13978.7422,-3554.6609L13978.7535,-3554.6662L13978.7614,-3554.6699L13978.7625,-3554.6703L13978.7633,-3554.6707L13978.7637,-3554.6709L13978.7704,-3554.674L13978.7802,-3554.6785L13978.7813,-3554.6791L13978.7818,-3554.6793L13978.785,-3554.6808L13978.8376,-3554.7043L13978.8666,-3554.7156"/>
<path content="1,京浜急行バス（株）,五井駅・東金駅～羽田空港線,11.0,11.0,11.0," xlink:title="1" d="M13978.8666,-3554.6636L13978.8644,-3554.6666L13978.8604,-3554.6722L13978.8526,-3554.6831L13978.8421,-3554.6979L13978.8415,-3554.6987L13978.8413,-3554.699L13978.8411,-3554.6994L13978.8404,-3554.7003L13978.8376,-3554.7043L13978.785,-3554.6808L13978.7818,-3554.6793L13978.7813,-3554.6791L13978.7802,-3554.6785L13978.7704,-3554.674L13978.7637,-3554.6709L13978.7633,-3554.6707L13978.7625,-3554.6703L13978.7614,-3554.6699L13978.7535,-3554.6662L13978.7422,-3554.6609L13978.7354,-3554.6578L13978.7317,-3554.6561L13978.7292,-3554.6553"/>
<path content="1,京浜急行バス（株）,北千住駅～羽田空港線,10.5,10.5,10.5," xlink:title="1" d="M13978.7292,-3554.6553L13978.7317,-3554.6561L13978.7354,-3554.6578L13978.7422,-3554.6609L13978.7535,-3554.6662L13978.7614,-3554.6699L13978.7625,-3554.6703L13978.7633,-3554.6707L13978.7637,-3554.6709L13978.7704,-3554.674L13978.7802,-3554.6785L13978.7813,-3554.6791L13978.7818,-3554.6793L13978.785,-3554.6808L13978.8376,-3554.7043L13978.8666,-3554.7156"/>
<path content="1,京浜急行バス（株）,吉祥寺駅～羽田空港線,6.0,6.0,6.0," xlink:title="1" d="M13978.7292,-3554.6553L13978.7317,-3554.6561L13978.7354,-3554.6578L13978.7422,-3554.6609L13978.7535,-3554.6662L13978.7614,-3554.6699L13978.7625,-3554.6703L13978.7633,-3554.6707L13978.7637,-3554.6709L13978.7704,-3554.674L13978.7802,-3554.6785L13978.7813,-3554.6791L13978.7818,-3554.6793L13978.785,-3554.6808L13978.8376,-3554.7043L13978.8666,-3554.7156"/>
<path content="1,京浜急行バス（株）,君津～羽田空港線,11.5,11.5,11.5," xlink:title="1" d="M13978.8666,-3554.6636L13978.8644,-3554.6666L13978.8604,-3554.6722L13978.8526,-3554.6831L13978.8421,-3554.6979L13978.8415,-3554.6987L13978.8413,-3554.699L13978.8411,-3554.6994L13978.8404,-3554.7003L13978.8376,-3554.7043"/>
<path content="1,京浜急行バス（株）,君津～羽田空港線,11.5,11.5,11.5," xlink:title="1" d="M13978.8376,-3554.7043L13978.8666,-3554.7156"/>
<path content="1,京浜急行バス（株）,君津～羽田空港線,11.5,11.5,11.5," xlink:title="1" d="M13978.8376,-3554.7043L13978.785,-3554.6808L13978.7818,-3554.6793L13978.7813,-3554.6791L13978.7802,-3554.6785L13978.7704,-3554.674L13978.7637,-3554.6709L13978.7633,-3554.6707L13978.7625,-3554.6703L13978.7614,-3554.6699L13978.7535,-3554.6662L13978.7422,-3554.6609L13978.7354,-3554.6578L13978.7317,-3554.6561L13978.7292,-3554.6553"/>
<path content="1,京浜急行バス（株）,君津～羽田空港線,11.5,11.5,11.5," xlink:title="1" d="M13978.7959,-3554.7638L13978.8122,-3554.7406L13978.8124,-3554.7402L13978.8133,-3554.7389L13978.8138,-3554.7381L13978.8142,-3554.7376L13978.8148,-3554.7367L13978.8176,-3554.7327L13978.8181,-3554.732L13978.8186,-3554.7312L13978.8198,-3554.7296L13978.8216,-3554.727L13978.8288,-3554.7168L13978.8301,-3554.715L13978.8306,-3554.7142L13978.831,-3554.7136L13978.8317,-3554.7126L13978.8325,-3554.7115L13978.8329,-3554.711L13978.8331,-3554.7106L13978.8335,-3554.7101L13978.8338,-3554.7096L13978.8362,-3554.7062L13978.8376,-3554.7043"/>
<path content="1,京浜急行バス（株）,品川シーサイド・大井町～羽田空港線,27.5,27.5,27.5," xlink:title="1" d="M13978.7292,-3554.6553L13978.7317,-3554.6561L13978.7354,-3554.6578L13978.7422,-3554.6609L13978.7535,-3554.6662L13978.7614,-3554.6699L13978.7625,-3554.6703L13978.7633,-3554.6707L13978.7637,-3554.6709L13978.7704,-3554.674L13978.7802,-3554.6785L13978.7813,-3554.6791L13978.7818,-3554.6793L13978.785,-3554.6808L13978.8376,-3554.7043L13978.8666,-3554.7156"/>
<path content="1,京浜急行バス（株）,大船駅・藤沢駅～羽田空港線,11.5,11.5,11.5," xlink:title="1" d="M13978.8666,-3554.6636L13978.8644,-3554.6666L13978.8604,-3554.6722L13978.8526,-3554.6831L13978.8421,-3554.6979L13978.8415,-3554.6987L13978.8413,-3554.699L13978.8411,-3554.6994L13978.8404,-3554.7003L13978.8376,-3554.7043L13978.785,-3554.6808L13978.7818,-3554.6793L13978.7813,-3554.6791L13978.7802,-3554.6785L13978.7704,-3554.674L13978.7637,-3554.6709L13978.7633,-3554.6707L13978.7625,-3554.6703L13978.7614,-3554.6699L13978.7535,-3554.6662L13978.7422,-3554.6609L13978.7354,-3554.6578L13978.7317,-3554.6561L13978.7292,-3554.6553"/>
<path content="1,京浜急行バス（株）,山下公園・みなとみらい地区・赤レンガ倉庫～羽田空港線,12.5,12.5,12.5," xlink:title="1" d="M13978.8666,-3554.6636L13978.8644,-3554.6666L13978.8604,-3554.6722L13978.8526,-3554.6831L13978.8421,-3554.6979L13978.8415,-3554.6987L13978.8413,-3554.699L13978.8411,-3554.6994L13978.8404,-3554.7003L13978.8376,-3554.7043L13978.785,-3554.6808L13978.7818,-3554.6793L13978.7813,-3554.6791L13978.7802,-3554.6785L13978.7704,-3554.674L13978.7637,-3554.6709L13978.7633,-3554.6707L13978.7625,-3554.6703L13978.7614,-3554.6699L13978.7535,-3554.6662L13978.7422,-3554.6609L13978.7354,-3554.6578L13978.7317,-3554.6561L13978.7292,-3554.6553"/>
<path content="1,京浜急行バス（株）,幕張新都心・千葉中央駅～羽田空港線,14.0,14.0,14.0," xlink:title="1" d="M13978.7292,-3554.6553L13978.7317,-3554.6561L13978.7354,-3554.6578L13978.7422,-3554.6609L13978.7535,-3554.6662L13978.7614,-3554.6699L13978.7625,-3554.6703L13978.7633,-3554.6707L13978.7637,-3554.6709L13978.7704,-3554.674L13978.7802,-3554.6785L13978.7813,-3554.6791L13978.7818,-3554.6793L13978.785,-3554.6808L13978.8376,-3554.7043L13978.8362,-3554.7062L13978.8338,-3554.7096L13978.8335,-3554.7101L13978.8331,-3554.7106L13978.8329,-3554.711L13978.8325,-3554.7115L13978.8317,-3554.7126L13978.831,-3554.7136L13978.8306,-3554.7142L13978.8301,-3554.715L13978.8288,-3554.7168L13978.8216,-3554.727L13978.8198,-3554.7296L13978.8186,-3554.7312L13978.8181,-3554.732L13978.8176,-3554.7327L13978.8148,-3554.7367L13978.8142,-3554.7376L13978.8138,-3554.7381L13978.8133,-3554.7389L13978.8124,-3554.7402L13978.8122,-3554.7406L13978.7959,-3554.7638"/>
<path content="1,京浜急行バス（株）,御殿場・箱根桃源台～羽田空港線,4.0,4.0,4.0," xlink:title="1" d="M13978.7292,-3554.6553L13978.7317,-3554.6561L13978.7354,-3554.6578L13978.7422,-3554.6609L13978.7535,-3554.6662L13978.7614,-3554.6699L13978.7625,-3554.6703L13978.7633,-3554.6707L13978.7637,-3554.6709L13978.7704,-3554.674L13978.7802,-3554.6785L13978.7813,-3554.6791L13978.7818,-3554.6793L13978.785,-3554.6808L13978.8376,-3554.7043L13978.8666,-3554.7156"/>
<path content="1,京浜急行バス（株）,新富士駅・富士宮駅～羽田空港線,2.0,2.0,2.0," xlink:title="1" d="M13978.7292,-3554.6553L13978.7317,-3554.6561L13978.7354,-3554.6578L13978.7422,-3554.6609L13978.7535,-3554.6662L13978.7614,-3554.6699L13978.7625,-3554.6703L13978.7633,-3554.6707L13978.7637,-3554.6709L13978.7704,-3554.674L13978.7802,-3554.6785L13978.7813,-3554.6791L13978.7818,-3554.6793L13978.785,-3554.6808L13978.8376,-3554.7043L13978.8666,-3554.7156"/>
<path content="1,京浜急行バス（株）,新横浜プリンスホテル・新横浜～羽田空港線,22.0,22.0,22.0," xlink:title="1" d="M13978.7292,-3554.6553L13978.7317,-3554.6561L13978.7354,-3554.6578L13978.7422,-3554.6609L13978.7535,-3554.6662L13978.7614,-3554.6699L13978.7625,-3554.6703L13978.7633,-3554.6707L13978.7637,-3554.6709L13978.7704,-3554.674L13978.7802,-3554.6785L13978.7813,-3554.6791L13978.7818,-3554.6793L13978.785,-3554.6808L13978.8376,-3554.7043L13978.8362,-3554.7062L13978.8338,-3554.7096L13978.8335,-3554.7101L13978.8331,-3554.7106L13978.8329,-3554.711L13978.8325,-3554.7115L13978.8317,-3554.7126L13978.831,-3554.7136L13978.8306,-3554.7142L13978.8301,-3554.715L13978.8288,-3554.7168L13978.8216,-3554.727L13978.8198,-3554.7296L13978.8186,-3554.7312L13978.8181,-3554.732L13978.8176,-3554.7327L13978.8148,-3554.7367L13978.8142,-3554.7376L13978.8138,-3554.7381L13978.8133,-3554.7389L13978.8124,-3554.7402L13978.8122,-3554.7406L13978.7959,-3554.7638"/>
<path content="1,京浜急行バス（株）,新百合ヶ丘駅～羽田空港線,8.5,8.5,8.5," xlink:title="1" d="M13978.7292,-3554.6553L13978.7317,-3554.6561L13978.7354,-3554.6578L13978.7422,-3554.6609L13978.7535,-3554.6662L13978.7614,-3554.6699L13978.7625,-3554.6703L13978.7633,-3554.6707L13978.7637,-3554.6709L13978.7704,-3554.674L13978.7802,-3554.6785L13978.7813,-3554.6791L13978.7818,-3554.6793L13978.785,-3554.6808L13978.8376,-3554.7043L13978.8362,-3554.7062L13978.8338,-3554.7096L13978.8335,-3554.7101L13978.8331,-3554.7106L13978.8329,-3554.711L13978.8325,-3554.7115L13978.8317,-3554.7126L13978.831,-3554.7136L13978.8306,-3554.7142L13978.8301,-3554.715L13978.8288,-3554.7168L13978.8216,-3554.727L13978.8198,-3554.7296L13978.8186,-3554.7312L13978.8181,-3554.732L13978.8176,-3554.7327L13978.8148,-3554.7367L13978.8142,-3554.7376L13978.8138,-3554.7381L13978.8133,-3554.7389L13978.8124,-3554.7402L13978.8122,-3554.7406L13978.7959,-3554.7638"/>
<path content="1,京浜急行バス（株）,朝霞台駅・志木駅・ふじみ野駅～羽田空港線,3.5,3.5,3.5," xlink:title="1" d="M13978.7292,-3554.6553L13978.7317,-3554.6561L13978.7354,-3554.6578L13978.7422,-3554.6609L13978.7535,-3554.6662L13978.7614,-3554.6699L13978.7625,-3554.6703L13978.7633,-3554.6707L13978.7637,-3554.6709L13978.7704,-3554.674L13978.7802,-3554.6785L13978.7813,-3554.6791L13978.7818,-3554.6793L13978.785,-3554.6808L13978.8376,-3554.7043L13978.8362,-3554.7062L13978.8338,-3554.7096L13978.8335,-3554.7101L13978.8331,-3554.7106L13978.8329,-3554.711L13978.8325,-3554.7115L13978.8317,-3554.7126L13978.831,-3554.7136L13978.8306,-3554.7142L13978.8301,-3554.715L13978.8288,-3554.7168L13978.8216,-3554.727L13978.8198,-3554.7296L13978.8186,-3554.7312L13978.8181,-3554.732L13978.8176,-3554.7327L13978.8148,-3554.7367L13978.8142,-3554.7376L13978.8138,-3554.7381L13978.8133,-3554.7389L13978.8124,-3554.7402L13978.8122,-3554.7406L13978.7959,-3554.7638"/>
<path content="1,京浜急行バス（株）,本厚木駅・田村車庫～羽田空港線,6.5,6.5,6.5," xlink:title="1" d="M13978.7292,-3554.6553L13978.7317,-3554.6561L13978.7354,-3554.6578L13978.7422,-3554.6609L13978.7535,-3554.6662L13978.7614,-3554.6699L13978.7625,-3554.6703L13978.7633,-3554.6707L13978.7637,-3554.6709L13978.7704,-3554.674L13978.7802,-3554.6785L13978.7813,-3554.6791L13978.7818,-3554.6793L13978.785,-3554.6808L13978.8376,-3554.7043L13978.8362,-3554.7062L13978.8338,-3554.7096L13978.8335,-3554.7101L13978.8331,-3554.7106L13978.8329,-3554.711L13978.8325,-3554.7115L13978.8317,-3554.7126L13978.831,-3554.7136L13978.8306,-3554.7142L13978.8301,-3554.715L13978.8288,-3554.7168L13978.8216,-3554.727L13978.8198,-3554.7296L13978.8186,-3554.7312L13978.8181,-3554.732L13978.8176,-3554.7327L13978.8148,-3554.7367L13978.8142,-3554.7376L13978.8138,-3554.7381L13978.8133,-3554.7389L13978.8124,-3554.7402L13978.8122,-3554.7406L13978.7959,-3554.7638"/>
<path content="1,京浜急行バス（株）,東京ディズニーリゾート（TDR）～羽田空港線,11.0,11.0,11.0," xlink:title="1" d="M13978.7959,-3554.7638L13978.8122,-3554.7406L13978.8124,-3554.7402L13978.8133,-3554.7389L13978.8138,-3554.7381L13978.8142,-3554.7376L13978.8148,-3554.7367L13978.8176,-3554.7327L13978.8181,-3554.732L13978.8186,-3554.7312L13978.8198,-3554.7296L13978.8216,-3554.727L13978.8288,-3554.7168L13978.8301,-3554.715L13978.8306,-3554.7142L13978.831,-3554.7136L13978.8317,-3554.7126L13978.8325,-3554.7115L13978.8329,-3554.711L13978.8331,-3554.7106L13978.8335,-3554.7101L13978.8338,-3554.7096L13978.8362,-3554.7062L13978.8376,-3554.7043L13978.785,-3554.6808L13978.7818,-3554.6793L13978.7813,-3554.6791L13978.7802,-3554.6785L13978.7704,-3554.674L13978.7637,-3554.6709L13978.7633,-3554.6707L13978.7625,-3554.6703L13978.7614,-3554.6699L13978.7535,-3554.6662L13978.7422,-3554.6609L13978.7354,-3554.6578L13978.7317,-3554.6561L13978.7292,-3554.6553"/>
<path content="1,京浜急行バス（株）,東京ビッグサイト（お台場）～羽田空港線,22.0,22.0,22.0," xlink:title="1" d="M13978.7292,-3554.6553L13978.7317,-3554.6561L13978.7354,-3554.6578L13978.7422,-3554.6609L13978.7535,-3554.6662L13978.7614,-3554.6699L13978.7625,-3554.6703L13978.7633,-3554.6707L13978.7637,-3554.6709L13978.7704,-3554.674L13978.7802,-3554.6785L13978.7813,-3554.6791L13978.7818,-3554.6793L13978.785,-3554.6808L13978.8376,-3554.7043L13978.8666,-3554.7156"/>
<path content="1,京浜急行バス（株）,東京駅～羽田空港線,9.5,9.5,9.5," xlink:title="1" d="M13978.7292,-3554.6553L13978.7317,-3554.6561L13978.7354,-3554.6578L13978.7422,-3554.6609L13978.7535,-3554.6662L13978.7614,-3554.6699L13978.7625,-3554.6703L13978.7633,-3554.6707L13978.7637,-3554.6709L13978.7704,-3554.674L13978.7802,-3554.6785L13978.7813,-3554.6791L13978.7818,-3554.6793L13978.785,-3554.6808L13978.8376,-3554.7043L13978.8666,-3554.7156"/>
<path content="1,京浜急行バス（株）,柏駅～羽田空港線,4.5,4.5,4.5," xlink:title="1" d="M13978.7292,-3554.6553L13978.7317,-3554.6561L13978.7354,-3554.6578L13978.7422,-3554.6609L13978.7535,-3554.6662L13978.7614,-3554.6699L13978.7625,-3554.6703L13978.7633,-3554.6707L13978.7637,-3554.6709L13978.7704,-3554.674L13978.7802,-3554.6785L13978.7813,-3554.6791L13978.7818,-3554.6793L13978.785,-3554.6808L13978.8376,-3554.7043L13978.8362,-3554.7062L13978.8338,-3554.7096L13978.8335,-3554.7101L13978.8331,-3554.7106L13978.8329,-3554.711L13978.8325,-3554.7115L13978.8317,-3554.7126L13978.831,-3554.7136L13978.8306,-3554.7142L13978.8301,-3554.715L13978.8288,-3554.7168L13978.8216,-3554.727L13978.8198,-3554.7296L13978.8186,-3554.7312L13978.8181,-3554.732L13978.8176,-3554.7327L13978.8148,-3554.7367L13978.8142,-3554.7376L13978.8138,-3554.7381L13978.8133,-3554.7389L13978.8124,-3554.7402L13978.8122,-3554.7406L13978.7959,-3554.7638"/>
<path content="1,京浜急行バス（株）,横浜駅西口（横浜ベイシェラトンホテル＆タワーズ）～羽田空港線,6.0,6.0,6.0," xlink:title="1" d="M13978.7292,-3554.6553L13978.7317,-3554.6561L13978.7354,-3554.6578L13978.7422,-3554.6609L13978.7535,-3554.6662L13978.7614,-3554.6699L13978.7625,-3554.6703L13978.7633,-3554.6707L13978.7637,-3554.6709L13978.7704,-3554.674L13978.7802,-3554.6785L13978.7813,-3554.6791L13978.7818,-3554.6793L13978.785,-3554.6808L13978.8376,-3554.7043L13978.8362,-3554.7062L13978.8338,-3554.7096L13978.8335,-3554.7101L13978.8331,-3554.7106L13978.8329,-3554.711L13978.8325,-3554.7115L13978.8317,-3554.7126L13978.831,-3554.7136L13978.8306,-3554.7142L13978.8301,-3554.715L13978.8288,-3554.7168L13978.8216,-3554.727L13978.8198,-3554.7296L13978.8186,-3554.7312L13978.8181,-3554.732L13978.8176,-3554.7327L13978.8148,-3554.7367L13978.8142,-3554.7376L13978.8138,-3554.7381L13978.8133,-3554.7389L13978.8124,-3554.7402L13978.8122,-3554.7406L13978.7959,-3554.7638"/>
<path content="1,京浜急行バス（株）,横浜駅～羽田空港線,129.0,129.0,129.0," xlink:title="1" d="M13978.7292,-3554.6553L13978.7317,-3554.6561L13978.7354,-3554.6578L13978.7422,-3554.6609L13978.7535,-3554.6662L13978.7614,-3554.6699L13978.7625,-3554.6703L13978.7633,-3554.6707L13978.7637,-3554.6709L13978.7704,-3554.674L13978.7802,-3554.6785L13978.7813,-3554.6791L13978.7818,-3554.6793L13978.785,-3554.6808L13978.8376,-3554.7043L13978.8362,-3554.7062L13978.8338,-3554.7096L13978.8335,-3554.7101L13978.8331,-3554.7106L13978.8329,-3554.711L13978.8325,-3554.7115L13978.8317,-3554.7126L13978.831,-3554.7136L13978.8306,-3554.7142L13978.8301,-3554.715L13978.8288,-3554.7168L13978.8216,-3554.727L13978.8198,-3554.7296L13978.8186,-3554.7312L13978.8181,-3554.732L13978.8176,-3554.7327L13978.8148,-3554.7367L13978.8142,-3554.7376L13978.8138,-3554.7381L13978.8133,-3554.7389L13978.8124,-3554.7402L13978.8122,-3554.7406L13978.7959,-3554.7638"/>
<path content="1,京浜急行バス（株）,水戸駅・日立駅～羽田空港線,1.0,1.0,1.0," xlink:title="1" d="M13978.7292,-3554.6553L13978.7317,-3554.6561L13978.7354,-3554.6578L13978.7422,-3554.6609L13978.7535,-3554.6662L13978.7614,-3554.6699L13978.7625,-3554.6703L13978.7633,-3554.6707L13978.7637,-3554.6709L13978.7704,-3554.674L13978.7802,-3554.6785L13978.7813,-3554.6791L13978.7818,-3554.6793L13978.785,-3554.6808L13978.8376,-3554.7043L13978.8362,-3554.7062L13978.8338,-3554.7096L13978.8335,-3554.7101L13978.8331,-3554.7106L13978.8329,-3554.711L13978.8325,-3554.7115L13978.8317,-3554.7126L13978.831,-3554.7136L13978.8306,-3554.7142L13978.8301,-3554.715L13978.8288,-3554.7168L13978.8216,-3554.727L13978.8198,-3554.7296L13978.8186,-3554.7312L13978.8181,-3554.732L13978.8176,-3554.7327L13978.8148,-3554.7367L13978.8142,-3554.7376L13978.8138,-3554.7381L13978.8133,-3554.7389L13978.8124,-3554.7402L13978.8122,-3554.7406L13978.7959,-3554.7638"/>
<path content="1,京浜急行バス（株）,渋谷～羽田空港線,5.0,5.0,5.0," xlink:title="1" d="M13978.7292,-3554.6553L13978.7317,-3554.6561L13978.7354,-3554.6578L13978.7422,-3554.6609L13978.7535,-3554.6662L13978.7614,-3554.6699L13978.7625,-3554.6703L13978.7633,-3554.6707L13978.7637,-3554.6709L13978.7704,-3554.674L13978.7802,-3554.6785L13978.7813,-3554.6791L13978.7818,-3554.6793L13978.785,-3554.6808L13978.8376,-3554.7043L13978.8666,-3554.7156"/>
<path content="1,京浜急行バス（株）,港南台駅・戸塚駅～羽田空港線,9.0,9.0,9.0," xlink:title="1" d="M13978.8666,-3554.6636L13978.8644,-3554.6666L13978.8604,-3554.6722L13978.8526,-3554.6831L13978.8421,-3554.6979L13978.8415,-3554.6987L13978.8413,-3554.699L13978.8411,-3554.6994L13978.8404,-3554.7003L13978.8376,-3554.7043L13978.785,-3554.6808L13978.7818,-3554.6793L13978.7813,-3554.6791L13978.7802,-3554.6785L13978.7704,-3554.674L13978.7637,-3554.6709L13978.7633,-3554.6707L13978.7625,-3554.6703L13978.7614,-3554.6699L13978.7535,-3554.6662L13978.7422,-3554.6609L13978.7354,-3554.6578L13978.7317,-3554.6561L13978.7292,-3554.6553"/>
<path content="1,京浜急行バス（株）,甲府駅・竜王～羽田空港線,2.0,2.0,2.0," xlink:title="1" d="M13978.7292,-3554.6553L13978.7317,-3554.6561L13978.7354,-3554.6578L13978.7422,-3554.6609L13978.7535,-3554.6662L13978.7614,-3554.6699L13978.7625,-3554.6703L13978.7633,-3554.6707L13978.7637,-3554.6709L13978.7704,-3554.674L13978.7802,-3554.6785L13978.7813,-3554.6791L13978.7818,-3554.6793L13978.785,-3554.6808L13978.8376,-3554.7043L13978.8362,-3554.7062L13978.8338,-3554.7096L13978.8335,-3554.7101L13978.8331,-3554.7106L13978.8329,-3554.711L13978.8325,-3554.7115L13978.8317,-3554.7126L13978.831,-3554.7136L13978.8306,-3554.7142L13978.8301,-3554.715L13978.8288,-3554.7168L13978.8216,-3554.727L13978.8198,-3554.7296L13978.8186,-3554.7312L13978.8181,-3554.732L13978.8176,-3554.7327L13978.8148,-3554.7367L13978.8142,-3554.7376L13978.8138,-3554.7381L13978.8133,-3554.7389L13978.8124,-3554.7402L13978.8122,-3554.7406L13978.7959,-3554.7638"/>
<path content="1,京浜急行バス（株）,立川・拝島～羽田空港線,10.0,10.0,10.0," xlink:title="1" d="M13978.7292,-3554.6553L13978.7317,-3554.6561L13978.7354,-3554.6578L13978.7422,-3554.6609L13978.7535,-3554.6662L13978.7614,-3554.6699L13978.7625,-3554.6703L13978.7633,-3554.6707L13978.7637,-3554.6709L13978.7704,-3554.674L13978.7802,-3554.6785L13978.7813,-3554.6791L13978.7818,-3554.6793L13978.785,-3554.6808L13978.8376,-3554.7043L13978.8666,-3554.7156"/>
<path content="1,京浜急行バス（株）,羽田空港～町田バスセンター・相模大野駅線,13.0,13.0,13.0," xlink:title="1" d="M13978.7292,-3554.6553L13978.7317,-3554.6561L13978.7354,-3554.6578L13978.7422,-3554.6609L13978.7535,-3554.6662L13978.7614,-3554.6699L13978.7625,-3554.6703L13978.7633,-3554.6707L13978.7637,-3554.6709L13978.7704,-3554.674L13978.7802,-3554.6785L13978.7813,-3554.6791L13978.7818,-3554.6793L13978.785,-3554.6808L13978.8376,-3554.7043L13978.8362,-3554.7062L13978.8338,-3554.7096L13978.8335,-3554.7101L13978.8331,-3554.7106L13978.8329,-3554.711L13978.8325,-3554.7115L13978.8317,-3554.7126L13978.831,-3554.7136L13978.8306,-3554.7142L13978.8301,-3554.715L13978.8288,-3554.7168L13978.8216,-3554.727L13978.8198,-3554.7296L13978.8186,-3554.7312L13978.8181,-3554.732L13978.8176,-3554.7327L13978.8148,-3554.7367L13978.8142,-3554.7376L13978.8138,-3554.7381L13978.8133,-3554.7389L13978.8124,-3554.7402L13978.8122,-3554.7406L13978.7959,-3554.7638"/>
<path content="1,京浜急行バス（株）,草加駅・新越谷駅～羽田空港線,8.0,8.0,8.0," xlink:title="1" d="M13978.7292,-3554.6553L13978.7317,-3554.6561L13978.7354,-3554.6578L13978.7422,-3554.6609L13978.7535,-3554.6662L13978.7614,-3554.6699L13978.7625,-3554.6703L13978.7633,-3554.6707L13978.7637,-3554.6709L13978.7704,-3554.674L13978.7802,-3554.6785L13978.7813,-3554.6791L13978.7818,-3554.6793L13978.785,-3554.6808L13978.8376,-3554.7043L13978.8362,-3554.7062L13978.8338,-3554.7096L13978.8335,-3554.7101L13978.8331,-3554.7106L13978.8329,-3554.711L13978.8325,-3554.7115L13978.8317,-3554.7126L13978.831,-3554.7136L13978.8306,-3554.7142L13978.8301,-3554.715L13978.8288,-3554.7168L13978.8216,-3554.727L13978.8198,-3554.7296L13978.8186,-3554.7312L13978.8181,-3554.732L13978.8176,-3554.7327L13978.8148,-3554.7367L13978.8142,-3554.7376L13978.8138,-3554.7381L13978.8133,-3554.7389L13978.8124,-3554.7402L13978.8122,-3554.7406L13978.7959,-3554.7638"/>
<path content="1,京浜急行バス（株）,蘇我駅～羽田空港線,5.0,5.0,5.0," xlink:title="1" d="M13978.8666,-3554.6636L13978.8644,-3554.6666L13978.8604,-3554.6722L13978.8526,-3554.6831L13978.8421,-3554.6979L13978.8415,-3554.6987L13978.8413,-3554.699L13978.8411,-3554.6994L13978.8404,-3554.7003L13978.8376,-3554.7043L13978.785,-3554.6808L13978.7818,-3554.6793L13978.7813,-3554.6791L13978.7802,-3554.6785L13978.7704,-3554.674L13978.7637,-3554.6709L13978.7633,-3554.6707L13978.7625,-3554.6703L13978.7614,-3554.6699L13978.7535,-3554.6662L13978.7422,-3554.6609L13978.7354,-3554.6578L13978.7317,-3554.6561L13978.7292,-3554.6553"/>
<path content="1,京浜急行バス（株）,袖ヶ浦バスターミナル・木更津駅～羽田空港線,10.0,10.0,10.0," xlink:title="1" d="M13978.7292,-3554.6553L13978.7317,-3554.6561L13978.7354,-3554.6578L13978.7422,-3554.6609L13978.7535,-3554.6662L13978.7614,-3554.6699L13978.7625,-3554.6703L13978.7633,-3554.6707L13978.7637,-3554.6709L13978.7704,-3554.674L13978.7802,-3554.6785L13978.7813,-3554.6791L13978.7818,-3554.6793L13978.785,-3554.6808L13978.8376,-3554.7043L13978.8404,-3554.7003L13978.8411,-3554.6994L13978.8413,-3554.699L13978.8415,-3554.6987L13978.8421,-3554.6979L13978.8526,-3554.6831L13978.8604,-3554.6722L13978.8644,-3554.6666L13978.8666,-3554.6636"/>
<path content="1,京浜急行バス（株）,西船橋駅・船橋駅～羽田空港線,7.5,7.5,7.5," xlink:title="1" d="M13978.7959,-3554.7638L13978.8122,-3554.7406L13978.8124,-3554.7402L13978.8133,-3554.7389L13978.8138,-3554.7381L13978.8142,-3554.7376L13978.8148,-3554.7367L13978.8176,-3554.7327L13978.8181,-3554.732L13978.8186,-3554.7312L13978.8198,-3554.7296L13978.8216,-3554.727L13978.8288,-3554.7168L13978.8301,-3554.715L13978.8306,-3554.7142L13978.831,-3554.7136L13978.8317,-3554.7126L13978.8325,-3554.7115L13978.8329,-3554.711L13978.8331,-3554.7106L13978.8335,-3554.7101L13978.8338,-3554.7096L13978.8362,-3554.7062L13978.8376,-3554.7043L13978.785,-3554.6808L13978.7818,-3554.6793L13978.7813,-3554.6791L13978.7802,-3554.6785L13978.7704,-3554.674L13978.7637,-3554.6709L13978.7633,-3554.6707L13978.7625,-3554.6703L13978.7614,-3554.6699L13978.7535,-3554.6662L13978.7422,-3554.6609L13978.7354,-3554.6578L13978.7317,-3554.6561L13978.7292,-3554.6553"/>
<path content="1,京浜急行バス（株）,鹿島神宮駅～羽田空港線,3.0,3.0,3.0," xlink:title="1" d="M13978.7292,-3554.6553L13978.7317,-3554.6561L13978.7354,-3554.6578L13978.7422,-3554.6609L13978.7535,-3554.6662L13978.7614,-3554.6699L13978.7625,-3554.6703L13978.7633,-3554.6707L13978.7637,-3554.6709L13978.7704,-3554.674L13978.7802,-3554.6785L13978.7813,-3554.6791L13978.7818,-3554.6793L13978.785,-3554.6808L13978.8376,-3554.7043L13978.8362,-3554.7062L13978.8338,-3554.7096L13978.8335,-3554.7101L13978.8331,-3554.7106L13978.8329,-3554.711L13978.8325,-3554.7115L13978.8317,-3554.7126L13978.831,-3554.7136L13978.8306,-3554.7142L13978.8301,-3554.715L13978.8288,-3554.7168L13978.8216,-3554.727L13978.8198,-3554.7296L13978.8186,-3554.7312L13978.8181,-3554.732L13978.8176,-3554.7327L13978.8148,-3554.7367L13978.8142,-3554.7376L13978.8138,-3554.7381L13978.8133,-3554.7389L13978.8124,-3554.7402L13978.8122,-3554.7406L13978.7959,-3554.7638"/>
<path content="1,京王バス南（株）,羽田空港～南大沢線,10.0,10.0,10.0," xlink:title="1" d="M13978.7292,-3554.6553L13978.7317,-3554.6561L13978.7354,-3554.6578L13978.7422,-3554.6609L13978.7535,-3554.6662L13978.7614,-3554.6699L13978.7625,-3554.6703L13978.7633,-3554.6707L13978.7637,-3554.6709L13978.7704,-3554.674L13978.7802,-3554.6785L13978.7813,-3554.6791L13978.7818,-3554.6793L13978.785,-3554.6808L13978.8376,-3554.7043L13978.8666,-3554.7156"/>
<path content="1,京王バス南（株）,羽田空港～国分寺駅南口線,12.0,12.0,12.0," xlink:title="1" d="M13978.7292,-3554.6553L13978.7317,-3554.6561L13978.7354,-3554.6578L13978.7422,-3554.6609L13978.7535,-3554.6662L13978.7614,-3554.6699L13978.7625,-3554.6703L13978.7633,-3554.6707L13978.7637,-3554.6709L13978.7704,-3554.674L13978.7802,-3554.6785L13978.7813,-3554.6791L13978.7818,-3554.6793L13978.785,-3554.6808L13978.8376,-3554.7043L13978.8666,-3554.7156"/>
<path content="1,京王バス南（株）,羽田空港～高尾駅南口線,3.0,3.0,3.0," xlink:title="1" d="M13978.7292,-3554.6553L13978.7317,-3554.6561L13978.7354,-3554.6578L13978.7422,-3554.6609L13978.7535,-3554.6662L13978.7614,-3554.6699L13978.7625,-3554.6703L13978.7633,-3554.6707L13978.7637,-3554.6709L13978.7704,-3554.674L13978.7802,-3554.6785L13978.7813,-3554.6791L13978.7818,-3554.6793L13978.785,-3554.6808L13978.8376,-3554.7043L13978.8666,-3554.7156"/>
<path content="1,千葉中央バス,羽田空港行き,7.0,7.0,7.0," xlink:title="1" d="M13978.8666,-3554.6636L13978.8644,-3554.6666L13978.8604,-3554.6722L13978.8526,-3554.6831L13978.8421,-3554.6979L13978.8415,-3554.6987L13978.8413,-3554.699L13978.8411,-3554.6994L13978.8404,-3554.7003L13978.8376,-3554.7043"/>
<path content="1,千葉中央バス,羽田空港行き,7.0,7.0,7.0," xlink:title="1" d="M13978.8376,-3554.7043L13978.785,-3554.6808L13978.7818,-3554.6793L13978.7813,-3554.6791L13978.7802,-3554.6785L13978.7704,-3554.674L13978.7637,-3554.6709L13978.7633,-3554.6707L13978.7625,-3554.6703L13978.7614,-3554.6699L13978.7535,-3554.6662L13978.7422,-3554.6609L13978.7354,-3554.6578L13978.7317,-3554.6561L13978.7292,-3554.6553"/>
<path content="1,千葉中央バス,羽田空港行き,7.0,7.0,7.0," xlink:title="1" d="M13978.8666,-3554.7156L13978.8376,-3554.7043"/>
<path content="1,千葉内陸バス,羽田線,6.0,6.0,6.0," xlink:title="1" d="M13978.8666,-3554.7156L13978.8376,-3554.7043L13978.785,-3554.6808L13978.7818,-3554.6793L13978.7813,-3554.6791L13978.7802,-3554.6785L13978.7704,-3554.674L13978.7637,-3554.6709L13978.7633,-3554.6707L13978.7625,-3554.6703L13978.7614,-3554.6699L13978.7535,-3554.6662L13978.7422,-3554.6609L13978.7354,-3554.6578L13978.7317,-3554.6561L13978.7292,-3554.6553"/>
<path content="1,国際十王交通（株）,羽田空港線,3.0,3.0,3.0," xlink:title="1" d="M13978.7292,-3554.6553L13978.7317,-3554.6561L13978.7354,-3554.6578L13978.7422,-3554.6609L13978.7535,-3554.6662L13978.7614,-3554.6699L13978.7625,-3554.6703L13978.7633,-3554.6707L13978.7637,-3554.6709L13978.7704,-3554.674L13978.7802,-3554.6785L13978.7813,-3554.6791L13978.7818,-3554.6793L13978.785,-3554.6808L13978.8376,-3554.7043L13978.8666,-3554.7156"/>
<path content="1,国際興業（株）,大宮羽田線,4.0,4.0,4.0," xlink:title="1" d="M13978.7292,-3554.6553L13978.7317,-3554.6561L13978.7354,-3554.6578L13978.7422,-3554.6609L13978.7535,-3554.6662L13978.7614,-3554.6699L13978.7625,-3554.6703L13978.7633,-3554.6707L13978.7637,-3554.6709L13978.7704,-3554.674L13978.7802,-3554.6785L13978.7813,-3554.6791L13978.7818,-3554.6793L13978.785,-3554.6808L13978.8376,-3554.7043L13978.8666,-3554.7156"/>
<path content="1,富士急行（株）,富士宮・富士・沼津～羽田空港・横浜線,2.0,2.0,2.0," xlink:title="1" d="M13978.8666,-3554.7156L13978.8376,-3554.7043L13978.785,-3554.6808L13978.7818,-3554.6793L13978.7813,-3554.6791L13978.7802,-3554.6785L13978.7704,-3554.674L13978.7637,-3554.6709L13978.7633,-3554.6707L13978.7625,-3554.6703L13978.7614,-3554.6699L13978.7535,-3554.6662L13978.7422,-3554.6609L13978.7354,-3554.6578L13978.7317,-3554.6561L13978.7292,-3554.6553"/>
<path content="1,富士急静岡バス（株）,富士宮・富士・沼津～羽田空港・横浜線,4.0,4.0,4.0," xlink:title="1" d="M13978.8666,-3554.6636L13978.8644,-3554.6666L13978.8526,-3554.6831L13978.8216,-3554.7269L13978.7961,-3554.7638"/>
<path content="1,小湊鉄道,木更津・袖ヶ浦～羽田空港線,10.0,10.0,10.0," xlink:title="1" d="M13978.8666,-3554.6636L13978.8644,-3554.6666L13978.8604,-3554.6722L13978.8526,-3554.6831L13978.8421,-3554.6979L13978.8415,-3554.6987L13978.8413,-3554.699L13978.8411,-3554.6994L13978.8404,-3554.7003L13978.8376,-3554.7043"/>
<path content="1,小湊鉄道,木更津・袖ヶ浦～羽田空港線,10.0,10.0,10.0," xlink:title="1" d="M13978.8376,-3554.7043L13978.785,-3554.6808L13978.7818,-3554.6793L13978.7813,-3554.6791L13978.7802,-3554.6785L13978.7704,-3554.674L13978.7637,-3554.6709L13978.7633,-3554.6707L13978.7625,-3554.6703L13978.7614,-3554.6699L13978.7535,-3554.6662L13978.7422,-3554.6609L13978.7354,-3554.6578L13978.7317,-3554.6561L13978.7292,-3554.6553"/>
<path content="1,小湊鉄道,木更津・袖ヶ浦～羽田空港線,10.0,10.0,10.0," xlink:title="1" d="M13978.8666,-3554.7156L13978.8376,-3554.7043"/>
<path content="1,小湊鉄道,木更津・長浦～品川線,49.5,39.0,39.0," xlink:title="1" d="M13978.8666,-3554.6636L13978.8644,-3554.6666L13978.8604,-3554.6722L13978.8526,-3554.6831L13978.8421,-3554.6979L13978.8415,-3554.6987L13978.8413,-3554.699L13978.8411,-3554.6994L13978.8404,-3554.7003L13978.8376,-3554.7043L13978.8362,-3554.7062L13978.8338,-3554.7096L13978.8335,-3554.7101L13978.8331,-3554.7106L13978.8329,-3554.711L13978.8325,-3554.7115L13978.8317,-3554.7126L13978.831,-3554.7136L13978.8306,-3554.7142L13978.8301,-3554.715L13978.8288,-3554.7168L13978.8216,-3554.727L13978.8198,-3554.7296L13978.8186,-3554.7312L13978.8181,-3554.732L13978.8176,-3554.7327L13978.8148,-3554.7367L13978.8142,-3554.7376L13978.8138,-3554.7381L13978.8133,-3554.7389L13978.8124,-3554.7402L13978.8122,-3554.7406L13978.7959,-3554.7638"/>
<path content="1,小湊鉄道,木更津駅西口～袖ヶ浦バスターミナル～新宿駅西口,19.5,19.5,19.5," xlink:title="1" d="M13978.7959,-3554.7638L13978.8122,-3554.7406L13978.8124,-3554.7402L13978.8133,-3554.7389L13978.8138,-3554.7381L13978.8142,-3554.7376L13978.8148,-3554.7367L13978.8176,-3554.7327L13978.8181,-3554.732L13978.8186,-3554.7312L13978.8198,-3554.7296L13978.8216,-3554.727L13978.8288,-3554.7168L13978.8301,-3554.715L13978.8306,-3554.7142L13978.831,-3554.7136L13978.8317,-3554.7126L13978.8325,-3554.7115L13978.8329,-3554.711L13978.8331,-3554.7106L13978.8335,-3554.7101L13978.8338,-3554.7096L13978.8362,-3554.7062L13978.8376,-3554.7043L13978.8404,-3554.7003L13978.8411,-3554.6994L13978.8413,-3554.699L13978.8415,-3554.6987L13978.8421,-3554.6979L13978.8526,-3554.6831L13978.8604,-3554.6722L13978.8644,-3554.6666L13978.8666,-3554.6636"/>
<path content="1,小湊鉄道,東金駅～五井駅～羽田空港線,23.0,23.0,23.0," xlink:title="1" d="M13978.8376,-3554.7043L13978.8404,-3554.7003L13978.8411,-3554.6994L13978.8413,-3554.699L13978.8415,-3554.6987L13978.8421,-3554.6979L13978.8526,-3554.6831L13978.8604,-3554.6722L13978.8644,-3554.6666L13978.8666,-3554.6636"/>
<path content="1,小湊鉄道,東金駅～五井駅～羽田空港線,23.0,23.0,23.0," xlink:title="1" d="M13978.8376,-3554.7043L13978.785,-3554.6808L13978.7818,-3554.6793L13978.7813,-3554.6791L13978.7802,-3554.6785L13978.7704,-3554.674L13978.7637,-3554.6709L13978.7633,-3554.6707L13978.7625,-3554.6703L13978.7614,-3554.6699L13978.7535,-3554.6662L13978.7422,-3554.6609L13978.7354,-3554.6578L13978.7317,-3554.6561L13978.7292,-3554.6553"/>
<path content="1,小湊鉄道,東金駅～五井駅～羽田空港線,23.0,23.0,23.0," xlink:title="1" d="M13978.8666,-3554.7156L13978.8376,-3554.7043"/>
<path content="1,小湊鉄道,横浜駅・羽田空港～茂原・大多喜・いすみ・御宿・松野・勝浦・小湊,12.0,12.0,12.0," xlink:title="1" d="M13978.7292,-3554.6553L13978.7317,-3554.6561L13978.7354,-3554.6578L13978.7422,-3554.6609L13978.7535,-3554.6662L13978.7614,-3554.6699L13978.7625,-3554.6703L13978.7633,-3554.6707L13978.7637,-3554.6709L13978.7704,-3554.674L13978.7802,-3554.6785L13978.7813,-3554.6791L13978.7818,-3554.6793L13978.785,-3554.6808L13978.8376,-3554.7043L13978.8666,-3554.7156"/>
<path content="1,小湊鉄道,蘇我駅～羽田空港線,11.0,11.0,11.0," xlink:title="1" d="M13978.8376,-3554.7043L13978.8404,-3554.7003L13978.8411,-3554.6994L13978.8413,-3554.699L13978.8415,-3554.6987L13978.8421,-3554.6979L13978.8526,-3554.6831L13978.8604,-3554.6722L13978.8644,-3554.6666L13978.8666,-3554.6636"/>
<path content="1,小湊鉄道,蘇我駅～羽田空港線,11.0,11.0,11.0," xlink:title="1" d="M13978.8376,-3554.7043L13978.785,-3554.6808L13978.7818,-3554.6793L13978.7813,-3554.6791L13978.7802,-3554.6785L13978.7704,-3554.674L13978.7637,-3554.6709L13978.7633,-3554.6707L13978.7625,-3554.6703L13978.7614,-3554.6699L13978.7535,-3554.6662L13978.7422,-3554.6609L13978.7354,-3554.6578L13978.7317,-3554.6561L13978.7292,-3554.6553"/>
<path content="1,小湊鉄道,蘇我駅～羽田空港線,11.0,11.0,11.0," xlink:title="1" d="M13978.8666,-3554.7156L13978.8376,-3554.7043"/>
<path content="1,小田急シティバス（株）,アクアライン高速バス,9.5,9.5,9.5," xlink:title="1" d="M13978.8666,-3554.6636L13978.8644,-3554.6666L13978.8604,-3554.6722L13978.8526,-3554.6831L13978.8421,-3554.6979L13978.8415,-3554.6987L13978.8413,-3554.699L13978.8411,-3554.6994L13978.8404,-3554.7003L13978.8376,-3554.7043L13978.8362,-3554.7062L13978.8338,-3554.7096L13978.8335,-3554.7101L13978.8331,-3554.7106L13978.8329,-3554.711L13978.8325,-3554.7115L13978.8317,-3554.7126L13978.831,-3554.7136L13978.8306,-3554.7142L13978.8301,-3554.715L13978.8288,-3554.7168L13978.8216,-3554.727L13978.8198,-3554.7296L13978.8186,-3554.7312L13978.8181,-3554.732L13978.8176,-3554.7327L13978.8148,-3554.7367L13978.8142,-3554.7376L13978.8138,-3554.7381L13978.8133,-3554.7389L13978.8124,-3554.7402L13978.8122,-3554.7406L13978.7959,-3554.7638"/>
<path content="1,小田急バス（株）,アクアライン,9.5,9.5,9.5," xlink:title="1" d="M13978.8666,-3554.6636L13978.8644,-3554.6666L13978.8604,-3554.6722L13978.8526,-3554.6831L13978.8421,-3554.6979L13978.8415,-3554.6987L13978.8413,-3554.699L13978.8411,-3554.6994L13978.8404,-3554.7003L13978.8376,-3554.7043L13978.8362,-3554.7062L13978.8338,-3554.7096L13978.8335,-3554.7101L13978.8331,-3554.7106L13978.8329,-3554.711L13978.8325,-3554.7115L13978.8317,-3554.7126L13978.831,-3554.7136L13978.8306,-3554.7142L13978.8301,-3554.715L13978.8288,-3554.7168L13978.8216,-3554.727L13978.8198,-3554.7296L13978.8186,-3554.7312L13978.8181,-3554.732L13978.8176,-3554.7327L13978.8148,-3554.7367L13978.8142,-3554.7376L13978.8138,-3554.7381L13978.8133,-3554.7389L13978.8124,-3554.7402L13978.8122,-3554.7406L13978.7959,-3554.7638"/>
<path content="1,小田急バス（株）,吉祥寺駅～羽田空港線,3.0,3.0,3.0," xlink:title="1" d="M13978.7292,-3554.6553L13978.7317,-3554.6561L13978.7354,-3554.6578L13978.7422,-3554.6609L13978.7535,-3554.6662L13978.7614,-3554.6699L13978.7625,-3554.6703L13978.7633,-3554.6707L13978.7637,-3554.6709L13978.7704,-3554.674L13978.7802,-3554.6785L13978.7813,-3554.6791L13978.7818,-3554.6793L13978.785,-3554.6808L13978.8376,-3554.7043L13978.8666,-3554.7156"/>
<path content="1,小田急バス（株）,新百合ヶ丘駅～羽田空港線,10.0,10.0,10.0," xlink:title="1" d="M13978.8666,-3554.7156L13978.8376,-3554.7043L13978.785,-3554.6808L13978.7818,-3554.6793L13978.7813,-3554.6791L13978.7802,-3554.6785L13978.7704,-3554.674L13978.7637,-3554.6709L13978.7633,-3554.6707L13978.7625,-3554.6703L13978.7614,-3554.6699L13978.7535,-3554.6662L13978.7422,-3554.6609L13978.7354,-3554.6578L13978.7317,-3554.6561L13978.7292,-3554.6553"/>
<path content="1,小田急箱根高速バス,箱根桃源台～御殿場～羽田空港,4.0,4.0,4.0," xlink:title="1" d="M13978.8666,-3554.6636L13978.8644,-3554.6666L13978.8604,-3554.6722L13978.8526,-3554.6831L13978.8421,-3554.6979L13978.8415,-3554.6987L13978.8413,-3554.699L13978.8411,-3554.6994L13978.8404,-3554.7003L13978.8376,-3554.7043L13978.785,-3554.6808L13978.7818,-3554.6793L13978.7813,-3554.6791L13978.7802,-3554.6785L13978.7704,-3554.674L13978.7637,-3554.6709L13978.7633,-3554.6707L13978.7625,-3554.6703L13978.7614,-3554.6699L13978.7535,-3554.6662L13978.7422,-3554.6609L13978.7354,-3554.6578L13978.7317,-3554.6561L13978.7292,-3554.6553"/>
<path content="1,山梨交通（株）,竜王・甲府～羽田空港線,2.0,2.0,2.0," xlink:title="1" d="M13978.7292,-3554.6553L13978.7317,-3554.6561L13978.7354,-3554.6578L13978.7422,-3554.6609L13978.7535,-3554.6662L13978.7614,-3554.6699L13978.7625,-3554.6703L13978.7633,-3554.6707L13978.7637,-3554.6709L13978.7704,-3554.674L13978.7802,-3554.6785L13978.7813,-3554.6791L13978.7818,-3554.6793L13978.785,-3554.6808L13978.8376,-3554.7043L13978.8666,-3554.7156"/>
<path content="1,川崎鶴見臨港バス,たまプラーザ～羽田空港,8.5,8.5,8.5," xlink:title="1" d="M13978.7292,-3554.6553L13978.7317,-3554.6561L13978.7354,-3554.6578L13978.7422,-3554.6609L13978.7535,-3554.6662L13978.7614,-3554.6699L13978.7625,-3554.6703L13978.7633,-3554.6707L13978.7637,-3554.6709L13978.7704,-3554.674L13978.7802,-3554.6785L13978.7813,-3554.6791L13978.7818,-3554.6793L13978.785,-3554.6808L13978.8376,-3554.7043L13978.8666,-3554.7156"/>
<path content="1,川崎鶴見臨港バス,新横浜成田空港線,10.0,10.0,10.0," xlink:title="1" d="M13978.8666,-3554.6636L13978.8644,-3554.6666L13978.8604,-3554.6722L13978.8526,-3554.6831L13978.8421,-3554.6979L13978.8415,-3554.6987L13978.8413,-3554.699L13978.8411,-3554.6994L13978.8404,-3554.7003L13978.8376,-3554.7043L13978.8362,-3554.7062L13978.8338,-3554.7096L13978.8335,-3554.7101L13978.8331,-3554.7106L13978.8329,-3554.711L13978.8325,-3554.7115L13978.8317,-3554.7126L13978.831,-3554.7136L13978.8306,-3554.7142L13978.8301,-3554.715L13978.8288,-3554.7168L13978.8216,-3554.727L13978.8198,-3554.7296L13978.8186,-3554.7312L13978.8181,-3554.732L13978.8176,-3554.7327L13978.8148,-3554.7367L13978.8142,-3554.7376L13978.8138,-3554.7381L13978.8133,-3554.7389L13978.8124,-3554.7402L13978.8122,-3554.7406L13978.7959,-3554.7638"/>
<path content="1,川崎鶴見臨港バス,新横浜駅～羽田空港,20.5,20.5,20.5," xlink:title="1" d="M13978.8666,-3554.6636L13978.8644,-3554.6666L13978.8604,-3554.6722L13978.8526,-3554.6831L13978.8421,-3554.6979L13978.8415,-3554.6987L13978.8413,-3554.699L13978.8411,-3554.6994L13978.8404,-3554.7003L13978.8376,-3554.7043"/>
<path content="1,川崎鶴見臨港バス,新横浜駅～羽田空港,20.5,20.5,20.5," xlink:title="1" d="M13978.8376,-3554.7043L13978.8666,-3554.7156"/>
<path content="1,川崎鶴見臨港バス,新横浜駅～羽田空港,20.5,20.5,20.5," xlink:title="1" d="M13978.7292,-3554.6553L13978.7317,-3554.6561L13978.7354,-3554.6578L13978.7422,-3554.6609L13978.7535,-3554.6662L13978.7614,-3554.6699L13978.7625,-3554.6703L13978.7633,-3554.6707L13978.7637,-3554.6709L13978.7704,-3554.674L13978.7802,-3554.6785L13978.7813,-3554.6791L13978.7818,-3554.6793L13978.785,-3554.6808L13978.8376,-3554.7043"/>
<path content="1,成田空港交通,和歌山線,1.0,1.0,1.0," xlink:title="1" d="M13978.8666,-3554.6636L13978.8644,-3554.6666L13978.8604,-3554.6722L13978.8526,-3554.6831L13978.8421,-3554.6979L13978.8415,-3554.6987L13978.8413,-3554.699L13978.8411,-3554.6994L13978.8404,-3554.7003L13978.8376,-3554.7043L13978.8362,-3554.7062L13978.8338,-3554.7096L13978.8335,-3554.7101L13978.8331,-3554.7106L13978.8329,-3554.711L13978.8325,-3554.7115L13978.8317,-3554.7126L13978.831,-3554.7136L13978.8306,-3554.7142L13978.8301,-3554.715L13978.8288,-3554.7168L13978.8216,-3554.727L13978.8198,-3554.7296L13978.8186,-3554.7312L13978.8181,-3554.732L13978.8176,-3554.7327L13978.8148,-3554.7367L13978.8142,-3554.7376L13978.8138,-3554.7381L13978.8133,-3554.7389L13978.8124,-3554.7402L13978.8122,-3554.7406L13978.7959,-3554.7638"/>
<path content="1,日本中央バス（株）,桐生～羽田空港線,4.0,4.0,4.0," xlink:title="1" d="M13978.8666,-3554.7156L13978.8376,-3554.7043L13978.785,-3554.6808L13978.7818,-3554.6793L13978.7813,-3554.6791L13978.7802,-3554.6785L13978.7704,-3554.674L13978.7637,-3554.6709L13978.7633,-3554.6707L13978.7625,-3554.6703L13978.7614,-3554.6699L13978.7535,-3554.6662L13978.7422,-3554.6609L13978.7354,-3554.6578L13978.7317,-3554.6561L13978.7292,-3554.6553"/>
<path content="1,日本中央バス（株）,渋川・前橋～羽田空港線,8.0,8.0,8.0," xlink:title="1" d="M13978.8666,-3554.7156L13978.8376,-3554.7043L13978.785,-3554.6808L13978.7818,-3554.6793L13978.7813,-3554.6791L13978.7802,-3554.6785L13978.7704,-3554.674L13978.7637,-3554.6709L13978.7633,-3554.6707L13978.7625,-3554.6703L13978.7614,-3554.6699L13978.7535,-3554.6662L13978.7422,-3554.6609L13978.7354,-3554.6578L13978.7317,-3554.6561L13978.7292,-3554.6553"/>
<path content="1,日東交通,アクシー号,5.0,5.0,5.0," xlink:title="1" d="M13978.8666,-3554.6636L13978.8644,-3554.6666L13978.8604,-3554.6722L13978.8526,-3554.6831L13978.8421,-3554.6979L13978.8415,-3554.6987L13978.8413,-3554.699L13978.8411,-3554.6994L13978.8404,-3554.7003L13978.8376,-3554.7043L13978.8362,-3554.7062L13978.8338,-3554.7096L13978.8335,-3554.7101L13978.8331,-3554.7106L13978.8329,-3554.711L13978.8325,-3554.7115L13978.8317,-3554.7126L13978.831,-3554.7136L13978.8306,-3554.7142L13978.8301,-3554.715L13978.8288,-3554.7168L13978.8216,-3554.727L13978.8198,-3554.7296L13978.8186,-3554.7312L13978.8181,-3554.732L13978.8176,-3554.7327L13978.8148,-3554.7367L13978.8142,-3554.7376L13978.8138,-3554.7381L13978.8133,-3554.7389L13978.8124,-3554.7402L13978.8122,-3554.7406L13978.7959,-3554.7638"/>
<path content="1,日東交通,君津～東京線,23.5,24.0,24.0," xlink:title="1" d="M13978.8666,-3554.6636L13978.8644,-3554.6666L13978.8604,-3554.6722L13978.8526,-3554.6831L13978.8421,-3554.6979L13978.8415,-3554.6987L13978.8413,-3554.699L13978.8411,-3554.6994L13978.8404,-3554.7003L13978.8376,-3554.7043L13978.8362,-3554.7062L13978.8338,-3554.7096L13978.8335,-3554.7101L13978.8331,-3554.7106L13978.8329,-3554.711L13978.8325,-3554.7115L13978.8317,-3554.7126L13978.831,-3554.7136L13978.8306,-3554.7142L13978.8301,-3554.715L13978.8288,-3554.7168L13978.8216,-3554.727L13978.8198,-3554.7296L13978.8186,-3554.7312L13978.8181,-3554.732L13978.8176,-3554.7327L13978.8148,-3554.7367L13978.8142,-3554.7376L13978.8138,-3554.7381L13978.8133,-3554.7389L13978.8124,-3554.7402L13978.8122,-3554.7406L13978.7959,-3554.7638"/>
<path content="1,日東交通,君津～羽田空港線,8.0,8.0,8.0," xlink:title="1" d="M13978.8666,-3554.6636L13978.8644,-3554.6666L13978.8604,-3554.6722L13978.8526,-3554.6831L13978.8421,-3554.6979L13978.8415,-3554.6987L13978.8413,-3554.699L13978.8411,-3554.6994L13978.8404,-3554.7003L13978.8376,-3554.7043"/>
<path content="1,日東交通,君津～羽田空港線,8.0,8.0,8.0," xlink:title="1" d="M13978.8376,-3554.7043L13978.785,-3554.6808L13978.7818,-3554.6793L13978.7813,-3554.6791L13978.7802,-3554.6785L13978.7704,-3554.674L13978.7637,-3554.6709L13978.7633,-3554.6707L13978.7625,-3554.6703L13978.7614,-3554.6699L13978.7535,-3554.6662L13978.7422,-3554.6609L13978.7354,-3554.6578L13978.7317,-3554.6561L13978.7292,-3554.6553"/>
<path content="1,日東交通,君津～羽田空港線,8.0,8.0,8.0," xlink:title="1" d="M13978.8666,-3554.7156L13978.8376,-3554.7043"/>
<path content="1,日東交通,木更津～東京線,16.0,16.0,16.0," xlink:title="1" d="M13978.8666,-3554.6636L13978.8644,-3554.6666L13978.8604,-3554.6722L13978.8526,-3554.6831L13978.8421,-3554.6979L13978.8415,-3554.6987L13978.8413,-3554.699L13978.8411,-3554.6994L13978.8404,-3554.7003L13978.8376,-3554.7043L13978.8362,-3554.7062L13978.8338,-3554.7096L13978.8335,-3554.7101L13978.8331,-3554.7106L13978.8329,-3554.711L13978.8325,-3554.7115L13978.8317,-3554.7126L13978.831,-3554.7136L13978.8306,-3554.7142L13978.8301,-3554.715L13978.8288,-3554.7168L13978.8216,-3554.727L13978.8198,-3554.7296L13978.8186,-3554.7312L13978.8181,-3554.732L13978.8176,-3554.7327L13978.8148,-3554.7367L13978.8142,-3554.7376L13978.8138,-3554.7381L13978.8133,-3554.7389L13978.8124,-3554.7402L13978.8122,-3554.7406L13978.7959,-3554.7638"/>
<path content="1,日東交通,木更津～羽田空港線,10.0,10.0,10.0," xlink:title="1" d="M13978.8376,-3554.7043L13978.8404,-3554.7003L13978.8411,-3554.6994L13978.8413,-3554.699L13978.8415,-3554.6987L13978.8421,-3554.6979L13978.8526,-3554.6831L13978.8604,-3554.6722L13978.8644,-3554.6666L13978.8666,-3554.6636"/>
<path content="1,日東交通,木更津～羽田空港線,10.0,10.0,10.0," xlink:title="1" d="M13978.8376,-3554.7043L13978.785,-3554.6808L13978.7818,-3554.6793L13978.7813,-3554.6791L13978.7802,-3554.6785L13978.7704,-3554.674L13978.7637,-3554.6709L13978.7633,-3554.6707L13978.7625,-3554.6703L13978.7614,-3554.6699L13978.7535,-3554.6662L13978.7422,-3554.6609L13978.7354,-3554.6578L13978.7317,-3554.6561L13978.7292,-3554.6553"/>
<path content="1,日東交通,木更津～羽田空港線,10.0,10.0,10.0," xlink:title="1" d="M13978.8666,-3554.7156L13978.8376,-3554.7043"/>
<path content="1,日東交通,館山～羽田空港・横浜駅線,4.0,4.0,4.0," xlink:title="1" d="M13978.8666,-3554.6636L13978.8644,-3554.6666L13978.8604,-3554.6722L13978.8526,-3554.6831L13978.8421,-3554.6979L13978.8415,-3554.6987L13978.8413,-3554.699L13978.8411,-3554.6994L13978.8404,-3554.7003L13978.8376,-3554.7043L13978.785,-3554.6808L13978.7818,-3554.6793L13978.7813,-3554.6791L13978.7802,-3554.6785L13978.7704,-3554.674L13978.7637,-3554.6709L13978.7633,-3554.6707L13978.7625,-3554.6703L13978.7614,-3554.6699L13978.7535,-3554.6662L13978.7422,-3554.6609L13978.7354,-3554.6578L13978.7317,-3554.6561L13978.7292,-3554.6553"/>
<path content="1,日立電鉄交通サービス（株）,日立駅中央口～羽田国際線ターミナル,2.0,2.0,2.0," xlink:title="1" d="M13978.8666,-3554.7156L13978.8376,-3554.7043L13978.8362,-3554.7062L13978.8338,-3554.7096L13978.8335,-3554.7101L13978.8331,-3554.7106L13978.8329,-3554.711L13978.8325,-3554.7115L13978.8317,-3554.7126L13978.831,-3554.7136L13978.8306,-3554.7142L13978.8301,-3554.715L13978.8288,-3554.7168L13978.8216,-3554.727L13978.8198,-3554.7296L13978.8186,-3554.7312L13978.8181,-3554.732L13978.8176,-3554.7327L13978.8148,-3554.7367L13978.8142,-3554.7376L13978.8138,-3554.7381L13978.8133,-3554.7389L13978.8124,-3554.7402L13978.8122,-3554.7406L13978.7959,-3554.7638"/>
<path content="1,東京ベイシティ交通,羽田空港～新浦安地区線,8.5,8.5,8.5," xlink:title="1" d="M13978.8666,-3554.7156L13978.8376,-3554.7043L13978.785,-3554.6808L13978.7818,-3554.6793L13978.7813,-3554.6791L13978.7802,-3554.6785L13978.7704,-3554.674L13978.7637,-3554.6709L13978.7633,-3554.6707L13978.7625,-3554.6703L13978.7614,-3554.6699L13978.7535,-3554.6662L13978.7422,-3554.6609L13978.7354,-3554.6578L13978.7317,-3554.6561L13978.7292,-3554.6553"/>
<path content="1,東京ベイシティ交通,羽田空港～東京ディズニーリゾート線,11.0,11.0,11.0," xlink:title="1" d="M13978.8666,-3554.7156L13978.8376,-3554.7043L13978.785,-3554.6808L13978.7818,-3554.6793L13978.7813,-3554.6791L13978.7802,-3554.6785L13978.7704,-3554.674L13978.7637,-3554.6709L13978.7633,-3554.6707L13978.7625,-3554.6703L13978.7614,-3554.6699L13978.7535,-3554.6662L13978.7422,-3554.6609L13978.7354,-3554.6578L13978.7317,-3554.6561L13978.7292,-3554.6553"/>
<path content="1,東京空港交通（株）,JR津田沼駅・京成津田沼駅～羽田空港線,10.5,10.5,10.5," xlink:title="1" d="M13978.8666,-3554.7156L13978.8376,-3554.7043L13978.785,-3554.6808L13978.7818,-3554.6793L13978.7813,-3554.6791L13978.7802,-3554.6785L13978.7704,-3554.674L13978.7637,-3554.6709L13978.7633,-3554.6707L13978.7625,-3554.6703L13978.7614,-3554.6699L13978.7535,-3554.6662L13978.7422,-3554.6609L13978.7354,-3554.6578L13978.7317,-3554.6561L13978.7292,-3554.6553"/>
<path content="1,東京空港交通（株）,お台場・有明エリア～羽田空港線,21.0,21.0,21.0," xlink:title="1" d="M13978.8666,-3554.7156L13978.8376,-3554.7043L13978.785,-3554.6808L13978.7818,-3554.6793L13978.7813,-3554.6791L13978.7802,-3554.6785L13978.7704,-3554.674L13978.7637,-3554.6709L13978.7633,-3554.6707L13978.7625,-3554.6703L13978.7614,-3554.6699L13978.7535,-3554.6662L13978.7422,-3554.6609L13978.7354,-3554.6578L13978.7317,-3554.6561L13978.7292,-3554.6553"/>
<path content="1,東京空港交通（株）,亀有駅・小岩駅・一之江駅・葛西駅～羽田空港線,22.0,22.0,22.0," xlink:title="1" d="M13978.8666,-3554.7156L13978.8376,-3554.7043L13978.785,-3554.6808L13978.7818,-3554.6793L13978.7813,-3554.6791L13978.7802,-3554.6785L13978.7704,-3554.674L13978.7637,-3554.6709L13978.7633,-3554.6707L13978.7625,-3554.6703L13978.7614,-3554.6699L13978.7535,-3554.6662L13978.7422,-3554.6609L13978.7354,-3554.6578L13978.7317,-3554.6561L13978.7292,-3554.6553"/>
<path content="1,東京空港交通（株）,六本木エリア～羽田空港線,4.0,4.0,4.0," xlink:title="1" d="M13978.7292,-3554.6553L13978.7317,-3554.6561L13978.7354,-3554.6578L13978.7422,-3554.6609L13978.7535,-3554.6662L13978.7614,-3554.6699L13978.7625,-3554.6703L13978.7633,-3554.6707L13978.7637,-3554.6709L13978.7704,-3554.674L13978.7802,-3554.6785L13978.7813,-3554.6791L13978.7818,-3554.6793L13978.785,-3554.6808L13978.8376,-3554.7043L13978.8666,-3554.7156"/>
<path content="1,東京空港交通（株）,前橋・伊勢崎・高崎エリア～羽田空港線,4.0,4.0,4.0," xlink:title="1" d="M13978.8666,-3554.7156L13978.8376,-3554.7043L13978.785,-3554.6808L13978.7818,-3554.6793L13978.7813,-3554.6791L13978.7802,-3554.6785L13978.7704,-3554.674L13978.7637,-3554.6709L13978.7633,-3554.6707L13978.7625,-3554.6703L13978.7614,-3554.6699L13978.7535,-3554.6662L13978.7422,-3554.6609L13978.7354,-3554.6578L13978.7317,-3554.6561L13978.7292,-3554.6553"/>
<path content="1,東京空港交通（株）,南大沢駅・京王多摩センター駅・聖蹟桜ヶ丘駅～羽田空港線,8.5,8.5,8.5," xlink:title="1" d="M13978.7292,-3554.6553L13978.7317,-3554.6561L13978.7354,-3554.6578L13978.7422,-3554.6609L13978.7535,-3554.6662L13978.7614,-3554.6699L13978.7625,-3554.6703L13978.7633,-3554.6707L13978.7637,-3554.6709L13978.7704,-3554.674L13978.7802,-3554.6785L13978.7813,-3554.6791L13978.7818,-3554.6793L13978.785,-3554.6808L13978.8376,-3554.7043L13978.8666,-3554.7156"/>
<path content="1,東京空港交通（株）,吉祥寺駅～羽田空港線,2.5,2.5,2.5," xlink:title="1" d="M13978.7292,-3554.6553L13978.7317,-3554.6561L13978.7354,-3554.6578L13978.7422,-3554.6609L13978.7535,-3554.6662L13978.7614,-3554.6699L13978.7625,-3554.6703L13978.7633,-3554.6707L13978.7637,-3554.6709L13978.7704,-3554.674L13978.7802,-3554.6785L13978.7813,-3554.6791L13978.7818,-3554.6793L13978.785,-3554.6808L13978.8376,-3554.7043L13978.8666,-3554.7156"/>
<path content="1,東京空港交通（株）,四街道・稲毛エリア～羽田空港線,6.0,6.0,6.0," xlink:title="1" d="M13978.8666,-3554.7156L13978.8376,-3554.7043L13978.785,-3554.6808L13978.7818,-3554.6793L13978.7813,-3554.6791L13978.7802,-3554.6785L13978.7704,-3554.674L13978.7637,-3554.6709L13978.7633,-3554.6707L13978.7625,-3554.6703L13978.7614,-3554.6699L13978.7535,-3554.6662L13978.7422,-3554.6609L13978.7354,-3554.6578L13978.7317,-3554.6561L13978.7292,-3554.6553"/>
<path content="1,東京空港交通（株）,国分寺駅・府中駅・調布駅～羽田空港線,10.5,10.5,10.5," xlink:title="1" d="M13978.8666,-3554.7156L13978.8376,-3554.7043L13978.785,-3554.6808L13978.7818,-3554.6793L13978.7813,-3554.6791L13978.7802,-3554.6785L13978.7704,-3554.674L13978.7637,-3554.6709L13978.7633,-3554.6707L13978.7625,-3554.6703L13978.7614,-3554.6699L13978.7535,-3554.6662L13978.7422,-3554.6609L13978.7354,-3554.6578L13978.7317,-3554.6561L13978.7292,-3554.6553"/>
<path content="1,東京空港交通（株）,大宮エリア～羽田空港線,5.0,5.0,5.0," xlink:title="1" d="M13978.8666,-3554.7156L13978.8376,-3554.7043L13978.785,-3554.6808L13978.7818,-3554.6793L13978.7813,-3554.6791L13978.7802,-3554.6785L13978.7704,-3554.674L13978.7637,-3554.6709L13978.7633,-3554.6707L13978.7625,-3554.6703L13978.7614,-3554.6699L13978.7535,-3554.6662L13978.7422,-3554.6609L13978.7354,-3554.6578L13978.7317,-3554.6561L13978.7292,-3554.6553"/>
<path content="1,東京空港交通（株）,大泉学園・和光市エリア～羽田空港線,5.0,5.0,5.0," xlink:title="1" d="M13978.8666,-3554.7156L13978.8376,-3554.7043L13978.785,-3554.6808L13978.7818,-3554.6793L13978.7813,-3554.6791L13978.7802,-3554.6785L13978.7704,-3554.674L13978.7637,-3554.6709L13978.7633,-3554.6707L13978.7625,-3554.6703L13978.7614,-3554.6699L13978.7535,-3554.6662L13978.7422,-3554.6609L13978.7354,-3554.6578L13978.7317,-3554.6561L13978.7292,-3554.6553"/>
<path content="1,東京空港交通（株）,大網・千葉市東南部エリア～羽田空港線,6.5,6.5,6.5," xlink:title="1" d="M13978.8666,-3554.7156L13978.8376,-3554.7043L13978.785,-3554.6808L13978.7818,-3554.6793L13978.7813,-3554.6791L13978.7802,-3554.6785L13978.7704,-3554.674L13978.7637,-3554.6709L13978.7633,-3554.6707L13978.7625,-3554.6703L13978.7614,-3554.6699L13978.7535,-3554.6662L13978.7422,-3554.6609L13978.7354,-3554.6578L13978.7317,-3554.6561L13978.7292,-3554.6553"/>
<path content="1,東京空港交通（株）,市川・行徳エリア～羽田空港線,4.0,4.0,4.0," xlink:title="1" d="M13978.8666,-3554.7156L13978.8376,-3554.7043L13978.785,-3554.6808L13978.7818,-3554.6793L13978.7813,-3554.6791L13978.7802,-3554.6785L13978.7704,-3554.674L13978.7637,-3554.6709L13978.7633,-3554.6707L13978.7625,-3554.6703L13978.7614,-3554.6699L13978.7535,-3554.6662L13978.7422,-3554.6609L13978.7354,-3554.6578L13978.7317,-3554.6561L13978.7292,-3554.6553"/>
<path content="1,東京空港交通（株）,恵比寿・品川エリア～羽田空港線,3.5,3.5,3.5," xlink:title="1" d="M13978.7292,-3554.6553L13978.7317,-3554.6561L13978.7354,-3554.6578L13978.7422,-3554.6609L13978.7535,-3554.6662L13978.7614,-3554.6699L13978.7625,-3554.6703L13978.7633,-3554.6707L13978.7637,-3554.6709L13978.7704,-3554.674L13978.7802,-3554.6785L13978.7813,-3554.6791L13978.7818,-3554.6793L13978.785,-3554.6808L13978.8376,-3554.7043L13978.8666,-3554.7156"/>
<path content="1,東京空港交通（株）,所沢駅・東所沢駅～羽田空港線,9.5,9.5,9.5," xlink:title="1" d="M13978.8666,-3554.7156L13978.8376,-3554.7043L13978.785,-3554.6808L13978.7818,-3554.6793L13978.7813,-3554.6791L13978.7802,-3554.6785L13978.7704,-3554.674L13978.7637,-3554.6709L13978.7633,-3554.6707L13978.7625,-3554.6703L13978.7614,-3554.6699L13978.7535,-3554.6662L13978.7422,-3554.6609L13978.7354,-3554.6578L13978.7317,-3554.6561L13978.7292,-3554.6553"/>
<path content="1,東京空港交通（株）,新宿エリア～羽田空港線,54.5,54.5,54.5," xlink:title="1" d="M13978.8666,-3554.7156L13978.8376,-3554.7043L13978.785,-3554.6808L13978.7818,-3554.6793L13978.7813,-3554.6791L13978.7802,-3554.6785L13978.7704,-3554.674L13978.7637,-3554.6709L13978.7633,-3554.6707L13978.7625,-3554.6703L13978.7614,-3554.6699L13978.7535,-3554.6662L13978.7422,-3554.6609L13978.7354,-3554.6578L13978.7317,-3554.6561L13978.7292,-3554.6553"/>
<path content="1,東京空港交通（株）,新浦安エリア～羽田空港線,8.0,8.0,8.0," xlink:title="1" d="M13978.8666,-3554.7156L13978.8376,-3554.7043L13978.785,-3554.6808L13978.7818,-3554.6793L13978.7813,-3554.6791L13978.7802,-3554.6785L13978.7704,-3554.674L13978.7637,-3554.6709L13978.7633,-3554.6707L13978.7625,-3554.6703L13978.7614,-3554.6699L13978.7535,-3554.6662L13978.7422,-3554.6609L13978.7354,-3554.6578L13978.7317,-3554.6561L13978.7292,-3554.6553"/>
<path content="1,東京空港交通（株）,日比谷エリア～羽田空港線,4.5,4.5,4.5," xlink:title="1" d="M13978.7292,-3554.6553L13978.7317,-3554.6561L13978.7354,-3554.6578L13978.7422,-3554.6609L13978.7535,-3554.6662L13978.7614,-3554.6699L13978.7625,-3554.6703L13978.7633,-3554.6707L13978.7637,-3554.6709L13978.7704,-3554.674L13978.7802,-3554.6785L13978.7813,-3554.6791L13978.7818,-3554.6793L13978.785,-3554.6808L13978.8376,-3554.7043L13978.8666,-3554.7156"/>
<path content="1,東京空港交通（株）,日立・水戸エリア～羽田空港線,1.0,1.0,1.0," xlink:title="1" d="M13978.8666,-3554.7156L13978.8376,-3554.7043L13978.785,-3554.6808L13978.7818,-3554.6793L13978.7813,-3554.6791L13978.7802,-3554.6785L13978.7704,-3554.674L13978.7637,-3554.6709L13978.7633,-3554.6707L13978.7625,-3554.6703L13978.7614,-3554.6699L13978.7535,-3554.6662L13978.7422,-3554.6609L13978.7354,-3554.6578L13978.7317,-3554.6561L13978.7292,-3554.6553"/>
<path content="1,東京空港交通（株）,木更津エリア～羽田空港線,7.0,7.0,7.0," xlink:title="1" d="M13978.8666,-3554.6636L13978.8644,-3554.6666L13978.8604,-3554.6722L13978.8526,-3554.6831L13978.8421,-3554.6979L13978.8415,-3554.6987L13978.8413,-3554.699L13978.8411,-3554.6994L13978.8404,-3554.7003L13978.8376,-3554.7043"/>
<path content="1,東京空港交通（株）,木更津エリア～羽田空港線,7.0,7.0,7.0," xlink:title="1" d="M13978.8376,-3554.7043L13978.785,-3554.6808L13978.7818,-3554.6793L13978.7813,-3554.6791L13978.7802,-3554.6785L13978.7704,-3554.674L13978.7637,-3554.6709L13978.7633,-3554.6707L13978.7625,-3554.6703L13978.7614,-3554.6699L13978.7535,-3554.6662L13978.7422,-3554.6609L13978.7354,-3554.6578L13978.7317,-3554.6561L13978.7292,-3554.6553"/>
<path content="1,東京空港交通（株）,木更津エリア～羽田空港線,7.0,7.0,7.0," xlink:title="1" d="M13978.8376,-3554.7043L13978.8362,-3554.7062L13978.8338,-3554.7096L13978.8335,-3554.7101L13978.8331,-3554.7106L13978.8329,-3554.711L13978.8325,-3554.7115L13978.8317,-3554.7126L13978.831,-3554.7136L13978.8306,-3554.7142L13978.8301,-3554.715L13978.8288,-3554.7168L13978.8216,-3554.727L13978.8198,-3554.7296L13978.8186,-3554.7312L13978.8181,-3554.732L13978.8176,-3554.7327L13978.8148,-3554.7367L13978.8142,-3554.7376L13978.8138,-3554.7381L13978.8133,-3554.7389L13978.8124,-3554.7402L13978.8123,-3554.7404L13978.8122,-3554.7406L13978.8121,-3554.7407L13978.7959,-3554.7638"/>
<path content="1,東京空港交通（株）,木更津エリア～羽田空港線,7.0,7.0,7.0," xlink:title="1" d="M13978.8666,-3554.7156L13978.8376,-3554.7043"/>
<path content="1,東京空港交通（株）,本川越駅・川越駅～羽田空港線,2.5,2.5,2.5," xlink:title="1" d="M13978.8666,-3554.7156L13978.8376,-3554.7043L13978.785,-3554.6808L13978.7818,-3554.6793L13978.7813,-3554.6791L13978.7802,-3554.6785L13978.7704,-3554.674L13978.7637,-3554.6709L13978.7633,-3554.6707L13978.7625,-3554.6703L13978.7614,-3554.6699L13978.7535,-3554.6662L13978.7422,-3554.6609L13978.7354,-3554.6578L13978.7317,-3554.6561L13978.7292,-3554.6553"/>
<path content="1,東京空港交通（株）,本籠原駅・熊谷・森林公園駅・坂戸駅～羽田空港線,3.0,3.0,3.0," xlink:title="1" d="M13978.8666,-3554.7156L13978.8376,-3554.7043L13978.785,-3554.6808L13978.7818,-3554.6793L13978.7813,-3554.6791L13978.7802,-3554.6785L13978.7704,-3554.674L13978.7637,-3554.6709L13978.7633,-3554.6707L13978.7625,-3554.6703L13978.7614,-3554.6699L13978.7535,-3554.6662L13978.7422,-3554.6609L13978.7354,-3554.6578L13978.7317,-3554.6561L13978.7292,-3554.6553"/>
<path content="1,東京空港交通（株）,東京シティエアターミナル～羽田空港線,27.5,27.5,27.5," xlink:title="1" d="M13978.7292,-3554.6553L13978.7317,-3554.6561L13978.7354,-3554.6578L13978.7422,-3554.6609L13978.7535,-3554.6662L13978.7614,-3554.6699L13978.7625,-3554.6703L13978.7633,-3554.6707L13978.7637,-3554.6709L13978.7704,-3554.674L13978.7802,-3554.6785L13978.7813,-3554.6791L13978.7818,-3554.6793L13978.785,-3554.6808L13978.8376,-3554.7043L13978.8666,-3554.7156"/>
<path content="1,東京空港交通（株）,東京ディズニーリゾートエリア～羽田空港線,19.0,19.0,19.0," xlink:title="1" d="M13978.8666,-3554.7156L13978.8376,-3554.7043L13978.785,-3554.6808L13978.7818,-3554.6793L13978.7813,-3554.6791L13978.7802,-3554.6785L13978.7704,-3554.674L13978.7637,-3554.6709L13978.7633,-3554.6707L13978.7625,-3554.6703L13978.7614,-3554.6699L13978.7535,-3554.6662L13978.7422,-3554.6609L13978.7354,-3554.6578L13978.7317,-3554.6561L13978.7292,-3554.6553"/>
<path content="1,東京空港交通（株）,東京駅八重洲南口～羽田空港線,9.0,9.0,9.0," xlink:title="1" d="M13978.7292,-3554.6553L13978.7317,-3554.6561L13978.7354,-3554.6578L13978.7422,-3554.6609L13978.7535,-3554.6662L13978.7614,-3554.6699L13978.7625,-3554.6703L13978.7633,-3554.6707L13978.7637,-3554.6709L13978.7704,-3554.674L13978.7802,-3554.6785L13978.7813,-3554.6791L13978.7818,-3554.6793L13978.785,-3554.6808L13978.8376,-3554.7043L13978.8666,-3554.7156"/>
<path content="1,東京空港交通（株）,桐生・太田・大泉・館林エリア～羽田空港線,1.0,1.0,1.0," xlink:title="1" d="M13978.8666,-3554.7156L13978.8376,-3554.7043L13978.785,-3554.6808L13978.7818,-3554.6793L13978.7813,-3554.6791L13978.7802,-3554.6785L13978.7704,-3554.674L13978.7637,-3554.6709L13978.7633,-3554.6707L13978.7625,-3554.6703L13978.7614,-3554.6699L13978.7535,-3554.6662L13978.7422,-3554.6609L13978.7354,-3554.6578L13978.7317,-3554.6561L13978.7292,-3554.6553"/>
<path content="1,東京空港交通（株）,池袋エリア～羽田空港線,18.0,18.0,18.0," xlink:title="1" d="M13978.7292,-3554.6553L13978.7317,-3554.6561L13978.7354,-3554.6578L13978.7422,-3554.6609L13978.7535,-3554.6662L13978.7614,-3554.6699L13978.7625,-3554.6703L13978.7633,-3554.6707L13978.7637,-3554.6709L13978.7704,-3554.674L13978.7802,-3554.6785L13978.7813,-3554.6791L13978.7818,-3554.6793L13978.785,-3554.6808L13978.8376,-3554.7043L13978.8666,-3554.7156"/>
<path content="1,東京空港交通（株）,渋谷エリア～羽田空港線,5.0,5.0,5.0," xlink:title="1" d="M13978.7292,-3554.6553L13978.7317,-3554.6561L13978.7354,-3554.6578L13978.7422,-3554.6609L13978.7535,-3554.6662L13978.7614,-3554.6699L13978.7625,-3554.6703L13978.7633,-3554.6707L13978.7637,-3554.6709L13978.7704,-3554.674L13978.7802,-3554.6785L13978.7813,-3554.6791L13978.7818,-3554.6793L13978.785,-3554.6808L13978.8376,-3554.7043L13978.8666,-3554.7156"/>
<path content="1,東京空港交通（株）,目白・九段・後楽園・秋葉原エリア～羽田空港線,5.0,5.0,5.0," xlink:title="1" d="M13978.7292,-3554.6553L13978.7317,-3554.6561L13978.7354,-3554.6578L13978.7422,-3554.6609L13978.7535,-3554.6662L13978.7614,-3554.6699L13978.7625,-3554.6703L13978.7633,-3554.6707L13978.7637,-3554.6709L13978.7704,-3554.674L13978.7802,-3554.6785L13978.7813,-3554.6791L13978.7818,-3554.6793L13978.785,-3554.6808L13978.8376,-3554.7043L13978.8666,-3554.7156"/>
<path content="1,東京空港交通（株）,練馬駅・野方駅・中野駅～羽田空港線,4.5,4.5,4.5," xlink:title="1" d="M13978.7292,-3554.6553L13978.7317,-3554.6561L13978.7354,-3554.6578L13978.7422,-3554.6609L13978.7535,-3554.6662L13978.7614,-3554.6699L13978.7625,-3554.6703L13978.7633,-3554.6707L13978.7637,-3554.6709L13978.7704,-3554.674L13978.7802,-3554.6785L13978.7813,-3554.6791L13978.7818,-3554.6793L13978.785,-3554.6808L13978.8376,-3554.7043L13978.8666,-3554.7156"/>
<path content="1,東京空港交通（株）,羽田空港～成田空港線,43.5,43.5,43.5," xlink:title="1" d="M13978.8666,-3554.7156L13978.8376,-3554.7043L13978.785,-3554.6808L13978.7818,-3554.6793L13978.7813,-3554.6791L13978.7802,-3554.6785L13978.7704,-3554.674L13978.7637,-3554.6709L13978.7633,-3554.6707L13978.7625,-3554.6703L13978.7614,-3554.6699L13978.7535,-3554.6662L13978.7422,-3554.6609L13978.7354,-3554.6578L13978.7317,-3554.6561L13978.7292,-3554.6553"/>
<path content="1,東京空港交通（株）,芝エリア～羽田空港線,2.0,2.0,2.0," xlink:title="1" d="M13978.8666,-3554.7156L13978.8376,-3554.7043L13978.785,-3554.6808L13978.7818,-3554.6793L13978.7813,-3554.6791L13978.7802,-3554.6785L13978.7704,-3554.674L13978.7637,-3554.6709L13978.7633,-3554.6707L13978.7625,-3554.6703L13978.7614,-3554.6699L13978.7535,-3554.6662L13978.7422,-3554.6609L13978.7354,-3554.6578L13978.7317,-3554.6561L13978.7292,-3554.6553"/>
<path content="1,東京空港交通（株）,豊洲・錦糸町・東陽町エリア～羽田空港線,12.0,12.0,12.0," xlink:title="1" d="M13978.8666,-3554.7156L13978.8376,-3554.7043L13978.785,-3554.6808L13978.7818,-3554.6793L13978.7813,-3554.6791L13978.7802,-3554.6785L13978.7704,-3554.674L13978.7637,-3554.6709L13978.7633,-3554.6707L13978.7625,-3554.6703L13978.7614,-3554.6699L13978.7535,-3554.6662L13978.7422,-3554.6609L13978.7354,-3554.6578L13978.7317,-3554.6561L13978.7292,-3554.6553"/>
<path content="1,東京空港交通（株）,赤坂エリア～羽田空港線,7.0,7.0,7.0," xlink:title="1" d="M13978.8666,-3554.7156L13978.8376,-3554.7043L13978.785,-3554.6808L13978.7818,-3554.6793L13978.7813,-3554.6791L13978.7802,-3554.6785L13978.7704,-3554.674L13978.7637,-3554.6709L13978.7633,-3554.6707L13978.7625,-3554.6703L13978.7614,-3554.6699L13978.7535,-3554.6662L13978.7422,-3554.6609L13978.7354,-3554.6578L13978.7317,-3554.6561L13978.7292,-3554.6553"/>
<path content="1,東京空港交通（株）,銀座・汐留エリア～羽田空港線,4.5,4.5,4.5," xlink:title="1" d="M13978.7292,-3554.6553L13978.7317,-3554.6561L13978.7354,-3554.6578L13978.7422,-3554.6609L13978.7535,-3554.6662L13978.7614,-3554.6699L13978.7625,-3554.6703L13978.7633,-3554.6707L13978.7637,-3554.6709L13978.7704,-3554.674L13978.7802,-3554.6785L13978.7813,-3554.6791L13978.7818,-3554.6793L13978.785,-3554.6808L13978.8376,-3554.7043L13978.8666,-3554.7156"/>
<path content="1,東京空港交通（株）,高尾・八王子・日野エリア～羽田空港線,3.0,3.0,3.0," xlink:title="1" d="M13978.7292,-3554.6553L13978.7317,-3554.6561L13978.7354,-3554.6578L13978.7422,-3554.6609L13978.7535,-3554.6662L13978.7614,-3554.6699L13978.7625,-3554.6703L13978.7633,-3554.6707L13978.7637,-3554.6709L13978.7704,-3554.674L13978.7802,-3554.6785L13978.7813,-3554.6791L13978.7818,-3554.6793L13978.785,-3554.6808L13978.8376,-3554.7043L13978.8666,-3554.7156"/>
<path content="1,東京空港交通（株）,黒磯・宇都宮・佐野エリア～羽田空港線,3.0,3.0,3.0," xlink:title="1" d="M13978.8666,-3554.7156L13978.8376,-3554.7043L13978.785,-3554.6808L13978.7818,-3554.6793L13978.7813,-3554.6791L13978.7802,-3554.6785L13978.7704,-3554.674L13978.7637,-3554.6709L13978.7633,-3554.6707L13978.7625,-3554.6703L13978.7614,-3554.6699L13978.7535,-3554.6662L13978.7422,-3554.6609L13978.7354,-3554.6578L13978.7317,-3554.6561L13978.7292,-3554.6553"/>
<path content="1,東急バス（株）,たまプラーザ駅～羽田空港,16.0,16.0,16.0," xlink:title="1" d="M13978.8666,-3554.7156L13978.8376,-3554.7043L13978.785,-3554.6808L13978.7818,-3554.6793L13978.7813,-3554.6791L13978.7802,-3554.6785L13978.7704,-3554.674L13978.7637,-3554.6709L13978.7633,-3554.6707L13978.7625,-3554.6703L13978.7614,-3554.6699L13978.7535,-3554.6662L13978.7422,-3554.6609L13978.7354,-3554.6578L13978.7317,-3554.6561L13978.7292,-3554.6553"/>
<path content="1,東急バス（株）,センター北駅～羽田空港,10.0,10.0,10.0," xlink:title="1" d="M13978.7961,-3554.6265L13978.7659,-3554.6679L13978.7637,-3554.6709"/>
<path content="1,東急バス（株）,センター北駅～羽田空港,10.0,10.0,10.0," xlink:title="1" d="M13978.7637,-3554.6709L13978.7633,-3554.6707L13978.7625,-3554.6703L13978.7614,-3554.6699L13978.7535,-3554.6662L13978.7422,-3554.6609L13978.7354,-3554.6578L13978.7317,-3554.6561L13978.7292,-3554.6553"/>
<path content="1,東急バス（株）,センター北駅～羽田空港,10.0,10.0,10.0," xlink:title="1" d="M13978.8666,-3554.7156L13978.8376,-3554.7043L13978.785,-3554.6808L13978.7818,-3554.6793L13978.7813,-3554.6791L13978.7802,-3554.6785L13978.7704,-3554.674L13978.7637,-3554.6709"/>
<path content="1,東急バス（株）,センター南駅～羽田空港,10.0,10.0,10.0," xlink:title="1" d="M13978.7961,-3554.6265L13978.7659,-3554.6679L13978.7637,-3554.6709"/>
<path content="1,東急バス（株）,センター南駅～羽田空港,10.0,10.0,10.0," xlink:title="1" d="M13978.7637,-3554.6709L13978.7704,-3554.674L13978.7802,-3554.6785L13978.7813,-3554.6791L13978.7818,-3554.6793L13978.785,-3554.6808L13978.8376,-3554.7043L13978.8666,-3554.7156"/>
<path content="1,東急バス（株）,センター南駅～羽田空港,10.0,10.0,10.0," xlink:title="1" d="M13978.7637,-3554.6709L13978.7633,-3554.6707L13978.7625,-3554.6703L13978.7614,-3554.6699L13978.7535,-3554.6662L13978.7422,-3554.6609L13978.7354,-3554.6578L13978.7317,-3554.6561L13978.7292,-3554.6553"/>
<path content="1,東急バス（株）,二子玉川駅～羽田空港,8.0,8.0,8.0," xlink:title="1" d="M13978.7292,-3554.6553L13978.7317,-3554.6561L13978.7354,-3554.6578L13978.7422,-3554.6609L13978.7535,-3554.6662L13978.7614,-3554.6699L13978.7625,-3554.6703L13978.7633,-3554.6707L13978.7637,-3554.6709L13978.7704,-3554.674L13978.7802,-3554.6785L13978.7813,-3554.6791L13978.7818,-3554.6793L13978.785,-3554.6808L13978.8376,-3554.7043L13978.8666,-3554.7156"/>
<path content="1,東急バス（株）,新百合ヶ丘駅～羽田空港,5.0,5.0,5.0," xlink:title="1" d="M13978.7292,-3554.6553L13978.7317,-3554.6561L13978.7354,-3554.6578L13978.7422,-3554.6609L13978.7535,-3554.6662L13978.7614,-3554.6699L13978.7625,-3554.6703L13978.7633,-3554.6707L13978.7637,-3554.6709L13978.7704,-3554.674L13978.7802,-3554.6785L13978.7813,-3554.6791L13978.7818,-3554.6793L13978.785,-3554.6808L13978.8376,-3554.7043L13978.8666,-3554.7156"/>
<path content="1,東急バス（株）,渋谷駅マークシティ～羽田空港,10.0,10.0,10.0," xlink:title="1" d="M13978.7292,-3554.6553L13978.7317,-3554.6561L13978.7354,-3554.6578L13978.7422,-3554.6609L13978.7535,-3554.6662L13978.7614,-3554.6699L13978.7625,-3554.6703L13978.7633,-3554.6707L13978.7637,-3554.6709L13978.7704,-3554.674L13978.7802,-3554.6785L13978.7813,-3554.6791L13978.7818,-3554.6793L13978.785,-3554.6808L13978.8376,-3554.7043L13978.8666,-3554.7156"/>
<path content="1,東武バスイースト,柏駅西口-羽田空港　直行バス,11.0,11.0,11.0," xlink:title="1" d="M13978.8666,-3554.7156L13978.8376,-3554.7043L13978.785,-3554.6808L13978.7818,-3554.6793L13978.7813,-3554.6791L13978.7802,-3554.6785L13978.7704,-3554.674L13978.7637,-3554.6709L13978.7633,-3554.6707L13978.7625,-3554.6703L13978.7614,-3554.6699L13978.7535,-3554.6662L13978.7422,-3554.6609L13978.7354,-3554.6578L13978.7317,-3554.6561L13978.7292,-3554.6553"/>
<path content="1,東武バスウエスト,ふじみ野駅・志木駅・朝霞台駅～羽田空港,8.5,8.5,8.5," xlink:title="1" d="M13978.8666,-3554.7156L13978.8376,-3554.7043L13978.785,-3554.6808L13978.7818,-3554.6793L13978.7813,-3554.6791L13978.7802,-3554.6785L13978.7704,-3554.674L13978.7637,-3554.6709L13978.7633,-3554.6707L13978.7625,-3554.6703L13978.7614,-3554.6699L13978.7535,-3554.6662L13978.7422,-3554.6609L13978.7354,-3554.6578L13978.7317,-3554.6561L13978.7292,-3554.6553"/>
<path content="1,東武バスセントラル（株）,北千住駅西口～羽田空港　直行バス,10.5,10.5,10.5," xlink:title="1" d="M13978.7292,-3554.6553L13978.7317,-3554.6561L13978.7354,-3554.6578L13978.7422,-3554.6609L13978.7535,-3554.6662L13978.7614,-3554.6699L13978.7625,-3554.6703L13978.7633,-3554.6707L13978.7637,-3554.6709L13978.7704,-3554.674L13978.7802,-3554.6785L13978.7813,-3554.6791L13978.7818,-3554.6793L13978.785,-3554.6808L13978.8376,-3554.7043L13978.8666,-3554.7156"/>
<path content="1,東武バスセントラル（株）,新越谷駅西口・草加駅東口・八潮駅北口～羽田空港　直行バス,9.0,9.0,9.0," xlink:title="1" d="M13978.8666,-3554.7156L13978.8376,-3554.7043L13978.785,-3554.6808L13978.7818,-3554.6793L13978.7813,-3554.6791L13978.7802,-3554.6785L13978.7704,-3554.674L13978.7637,-3554.6709L13978.7633,-3554.6707L13978.7625,-3554.6703L13978.7614,-3554.6699L13978.7535,-3554.6662L13978.7422,-3554.6609L13978.7354,-3554.6578L13978.7317,-3554.6561L13978.7292,-3554.6553"/>
<path content="1,東野交通（株）,JR黒磯駅～羽田空港,1.0,1.0,1.0," xlink:title="1" d="M13978.7292,-3554.6553L13978.7317,-3554.6561L13978.7354,-3554.6578L13978.7422,-3554.6609L13978.7535,-3554.6662L13978.7614,-3554.6699L13978.7625,-3554.6703L13978.7633,-3554.6707L13978.7637,-3554.6709L13978.7704,-3554.674L13978.7802,-3554.6785L13978.7813,-3554.6791L13978.7818,-3554.6793L13978.785,-3554.6808L13978.8376,-3554.7043L13978.8666,-3554.7156"/>
<path content="1,横浜京急バス,横浜駅・羽田空港～上総牛久駅・茂原駅,3.0,3.0,3.0," xlink:title="1" d="M13978.8666,-3554.6636L13978.8644,-3554.6666L13978.8604,-3554.6722L13978.8526,-3554.6831L13978.8421,-3554.6979L13978.8415,-3554.6987L13978.8413,-3554.699L13978.8411,-3554.6994L13978.8404,-3554.7003L13978.8376,-3554.7043"/>
<path content="1,横浜京急バス,横浜駅・羽田空港～上総牛久駅・茂原駅,3.0,3.0,3.0," xlink:title="1" d="M13978.8376,-3554.7043L13978.785,-3554.6808L13978.7818,-3554.6793L13978.7813,-3554.6791L13978.7802,-3554.6785L13978.7704,-3554.674L13978.7637,-3554.6709L13978.7633,-3554.6707L13978.7625,-3554.6703L13978.7614,-3554.6699L13978.7535,-3554.6662L13978.7422,-3554.6609L13978.7354,-3554.6578L13978.7317,-3554.6561L13978.7292,-3554.6553M13978.8666,-3554.7156L13978.8376,-3554.7043"/>
<path content="1,横浜京急バス,羽田空港～二俣川駅,11.0,11.0,11.0," xlink:title="1" d="M13978.8376,-3554.7043L13978.8404,-3554.7003L13978.8411,-3554.6994L13978.8413,-3554.699L13978.8415,-3554.6987L13978.8421,-3554.6979L13978.8526,-3554.6831L13978.8604,-3554.6722L13978.8644,-3554.6666L13978.8666,-3554.6636"/>
<path content="1,横浜京急バス,羽田空港～二俣川駅,11.0,11.0,11.0," xlink:title="1" d="M13978.8376,-3554.7043L13978.785,-3554.6808L13978.7818,-3554.6793L13978.7813,-3554.6791L13978.7802,-3554.6785L13978.7704,-3554.674L13978.7637,-3554.6709L13978.7633,-3554.6707L13978.7625,-3554.6703L13978.7614,-3554.6699L13978.7535,-3554.6662L13978.7422,-3554.6609L13978.7354,-3554.6578L13978.7317,-3554.6561L13978.7292,-3554.6553"/>
<path content="1,横浜京急バス,羽田空港～二俣川駅,11.0,11.0,11.0," xlink:title="1" d="M13978.8666,-3554.7156L13978.8376,-3554.7043"/>
<path content="1,横浜京急バス,羽田空港～山下公園・みなとみらい地区・赤レンガ倉庫,7.5,7.5,7.5," xlink:title="1" d="M13978.8666,-3554.6636L13978.8644,-3554.6666L13978.8604,-3554.6722L13978.8526,-3554.6831L13978.8421,-3554.6979L13978.8415,-3554.6987L13978.8413,-3554.699L13978.8411,-3554.6994L13978.8404,-3554.7003L13978.8376,-3554.7043"/>
<path content="1,横浜京急バス,羽田空港～山下公園・みなとみらい地区・赤レンガ倉庫,7.5,7.5,7.5," xlink:title="1" d="M13978.8376,-3554.7043L13978.785,-3554.6808L13978.7818,-3554.6793L13978.7813,-3554.6791L13978.7802,-3554.6785L13978.7704,-3554.674L13978.7637,-3554.6709L13978.7633,-3554.6707L13978.7625,-3554.6703L13978.7614,-3554.6699L13978.7535,-3554.6662L13978.7422,-3554.6609L13978.7354,-3554.6578L13978.7317,-3554.6561L13978.7292,-3554.6553"/>
<path content="1,横浜京急バス,羽田空港～山下公園・みなとみらい地区・赤レンガ倉庫,7.5,7.5,7.5," xlink:title="1" d="M13978.8666,-3554.7156L13978.8376,-3554.7043"/>
<path content="1,横浜京急バス,羽田空港～新横浜（ホテルアソシア新横浜）・新横浜プリンスホテル,21.5,21.5,21.5," xlink:title="1" d="M13978.8666,-3554.6636L13978.8644,-3554.6666L13978.8604,-3554.6722L13978.8526,-3554.6831L13978.8421,-3554.6979L13978.8415,-3554.6987L13978.8413,-3554.699L13978.8411,-3554.6994L13978.8404,-3554.7003L13978.8376,-3554.7043"/>
<path content="1,横浜京急バス,羽田空港～新横浜（ホテルアソシア新横浜）・新横浜プリンスホテル,21.5,21.5,21.5," xlink:title="1" d="M13978.8376,-3554.7043L13978.785,-3554.6808L13978.7818,-3554.6793L13978.7813,-3554.6791L13978.7802,-3554.6785L13978.7704,-3554.674L13978.7637,-3554.6709L13978.7633,-3554.6707L13978.7625,-3554.6703L13978.7614,-3554.6699L13978.7535,-3554.6662L13978.7422,-3554.6609L13978.7354,-3554.6578L13978.7317,-3554.6561L13978.7292,-3554.6553"/>
<path content="1,横浜京急バス,羽田空港～新横浜（ホテルアソシア新横浜）・新横浜プリンスホテル,21.5,21.5,21.5," xlink:title="1" d="M13978.8666,-3554.7156L13978.8376,-3554.7043"/>
<path content="1,横浜京急バス,羽田空港～港南台駅・戸塚駅,9.0,9.0,9.0," xlink:title="1" d="M13978.8666,-3554.6636L13978.8644,-3554.6666L13978.8604,-3554.6722L13978.8526,-3554.6831L13978.8421,-3554.6979L13978.8415,-3554.6987L13978.8413,-3554.699L13978.8411,-3554.6994L13978.8404,-3554.7003L13978.8376,-3554.7043"/>
<path content="1,横浜京急バス,羽田空港～港南台駅・戸塚駅,9.0,9.0,9.0," xlink:title="1" d="M13978.8376,-3554.7043L13978.785,-3554.6808L13978.7818,-3554.6793L13978.7813,-3554.6791L13978.7802,-3554.6785L13978.7704,-3554.674L13978.7637,-3554.6709L13978.7633,-3554.6707L13978.7625,-3554.6703L13978.7614,-3554.6699L13978.7535,-3554.6662L13978.7422,-3554.6609L13978.7354,-3554.6578L13978.7317,-3554.6561L13978.7292,-3554.6553"/>
<path content="1,横浜京急バス,羽田空港～港南台駅・戸塚駅,9.0,9.0,9.0," xlink:title="1" d="M13978.8666,-3554.7156L13978.8376,-3554.7043"/>
<path content="1,江ノ電バス藤沢,羽田空港行き直行バス,11.5,11.5,11.5," xlink:title="1" d="M13978.8666,-3554.6636L13978.8644,-3554.6666L13978.8604,-3554.6722L13978.8526,-3554.6831L13978.8421,-3554.6979L13978.8415,-3554.6987L13978.8413,-3554.699L13978.8411,-3554.6994L13978.8404,-3554.7003L13978.8376,-3554.7043"/>
<path content="1,江ノ電バス藤沢,羽田空港行き直行バス,11.5,11.5,11.5," xlink:title="1" d="M13978.8376,-3554.7043L13978.8666,-3554.7156"/>
<path content="1,江ノ電バス藤沢,羽田空港行き直行バス,11.5,11.5,11.5," xlink:title="1" d="M13978.7292,-3554.6553L13978.7317,-3554.6561L13978.7354,-3554.6578L13978.7422,-3554.6609L13978.7535,-3554.6662L13978.7614,-3554.6699L13978.7625,-3554.6703L13978.7633,-3554.6707L13978.7637,-3554.6709L13978.7704,-3554.674L13978.7802,-3554.6785L13978.7813,-3554.6791L13978.7818,-3554.6793L13978.785,-3554.6808L13978.8376,-3554.7043"/>
<path content="1,湘南京急バス,羽田空港～大船駅・藤沢駅,11.5,11.5,11.5," xlink:title="1" d="M13978.8666,-3554.6636L13978.8644,-3554.6666L13978.8604,-3554.6722L13978.8526,-3554.6831L13978.8421,-3554.6979L13978.8415,-3554.6987L13978.8413,-3554.699L13978.8411,-3554.6994L13978.8404,-3554.7003L13978.8376,-3554.7043"/>
<path content="1,湘南京急バス,羽田空港～大船駅・藤沢駅,11.5,11.5,11.5," xlink:title="1" d="M13978.8376,-3554.7043L13978.8666,-3554.7156"/>
<path content="1,湘南京急バス,羽田空港～大船駅・藤沢駅,11.5,11.5,11.5," xlink:title="1" d="M13978.8376,-3554.7043L13978.785,-3554.6808L13978.7818,-3554.6793L13978.7813,-3554.6791L13978.7802,-3554.6785L13978.7704,-3554.674L13978.7637,-3554.6709L13978.7633,-3554.6707L13978.7625,-3554.6703L13978.7614,-3554.6699L13978.7535,-3554.6662L13978.7422,-3554.6609L13978.7354,-3554.6578L13978.7317,-3554.6561L13978.7292,-3554.6553"/>
<path content="1,相鉄バス（株）,二俣川駅～羽田空港線,22.0,22.0,22.0," xlink:title="1" d="M13978.8666,-3554.6636L13978.8644,-3554.6666L13978.8604,-3554.6722L13978.8526,-3554.6831L13978.8421,-3554.6979L13978.8415,-3554.6987L13978.8413,-3554.699L13978.8411,-3554.6994L13978.8404,-3554.7003L13978.8376,-3554.7043"/>
<path content="1,相鉄バス（株）,二俣川駅～羽田空港線,22.0,22.0,22.0," xlink:title="1" d="M13978.8376,-3554.7043L13978.785,-3554.6808L13978.7818,-3554.6793L13978.7813,-3554.6791L13978.7802,-3554.6785L13978.7704,-3554.674L13978.7637,-3554.6709L13978.7633,-3554.6707L13978.7625,-3554.6703L13978.7614,-3554.6699L13978.7535,-3554.6662L13978.7422,-3554.6609L13978.7354,-3554.6578L13978.7317,-3554.6561L13978.7292,-3554.6553"/>
<path content="1,相鉄バス（株）,二俣川駅～羽田空港線,22.0,22.0,22.0," xlink:title="1" d="M13978.8666,-3554.7156L13978.8376,-3554.7043"/>
<path content="1,神奈川中央交通（株）,戸塚駅　・　港南台駅～羽田空港,9.0,9.0,9.0," xlink:title="1" d="M13978.8666,-3554.6636L13978.8644,-3554.6666L13978.8604,-3554.6722L13978.8526,-3554.6831L13978.8421,-3554.6979L13978.8415,-3554.6987L13978.8413,-3554.699L13978.8411,-3554.6994L13978.8404,-3554.7003L13978.8376,-3554.7043"/>
<path content="1,神奈川中央交通（株）,戸塚駅　・　港南台駅～羽田空港,9.0,9.0,9.0," xlink:title="1" d="M13978.8376,-3554.7043L13978.8666,-3554.7156"/>
<path content="1,神奈川中央交通（株）,戸塚駅　・　港南台駅～羽田空港,9.0,9.0,9.0," xlink:title="1" d="M13978.8376,-3554.7043L13978.785,-3554.6808L13978.7818,-3554.6793L13978.7813,-3554.6791L13978.7802,-3554.6785L13978.7704,-3554.674L13978.7637,-3554.6709L13978.7633,-3554.6707L13978.7625,-3554.6703L13978.7614,-3554.6699L13978.7535,-3554.6662L13978.7422,-3554.6609L13978.7354,-3554.6578L13978.7317,-3554.6561L13978.7292,-3554.6553"/>
<path content="1,神奈川中央交通（株）,田村車庫・本厚木駅～羽田空港,6.0,6.0,6.0," xlink:title="1" d="M13978.8666,-3554.7156L13978.8376,-3554.7043L13978.785,-3554.6808L13978.7818,-3554.6793L13978.7813,-3554.6791L13978.7802,-3554.6785L13978.7704,-3554.674L13978.7637,-3554.6709L13978.7633,-3554.6707L13978.7625,-3554.6703L13978.7614,-3554.6699L13978.7535,-3554.6662L13978.7422,-3554.6609L13978.7354,-3554.6578L13978.7317,-3554.6561L13978.7292,-3554.6553"/>
<path content="1,神奈川中央交通（株）,相模大野・町田バスセンター～羽田空港,10.0,10.0,10.0," xlink:title="1" d="M13978.7292,-3554.6553L13978.7317,-3554.6561L13978.7354,-3554.6578L13978.7422,-3554.6609L13978.7535,-3554.6662L13978.7614,-3554.6699L13978.7625,-3554.6703L13978.7633,-3554.6707L13978.7637,-3554.6709L13978.7704,-3554.674L13978.7802,-3554.6785L13978.7813,-3554.6791L13978.7818,-3554.6793L13978.785,-3554.6808L13978.8376,-3554.7043L13978.8666,-3554.7156"/>
<path content="1,神奈川中央交通（株）,茅ヶ崎駅・辻堂駅・藤沢駅・戸塚～成田空港,3.0,3.0,3.0," xlink:title="1" d="M13978.8666,-3554.6636L13978.8644,-3554.6666L13978.8604,-3554.6722L13978.8526,-3554.6831L13978.8421,-3554.6979L13978.8415,-3554.6987L13978.8413,-3554.699L13978.8411,-3554.6994L13978.8404,-3554.7003L13978.8376,-3554.7043L13978.8362,-3554.7062L13978.8338,-3554.7096L13978.8335,-3554.7101L13978.8331,-3554.7106L13978.8329,-3554.711L13978.8325,-3554.7115L13978.8317,-3554.7126L13978.831,-3554.7136L13978.8306,-3554.7142L13978.8301,-3554.715L13978.8288,-3554.7168L13978.8216,-3554.727L13978.8198,-3554.7296L13978.8186,-3554.7312L13978.8181,-3554.732L13978.8176,-3554.7327L13978.8148,-3554.7367L13978.8142,-3554.7376L13978.8138,-3554.7381L13978.8133,-3554.7389L13978.8124,-3554.7402L13978.8122,-3554.7406L13978.7959,-3554.7638"/>
<path content="1,羽田京急バス,空51,34.0,34.0,34.0," xlink:title="1" d="M13978.8666,-3554.7156L13978.8376,-3554.7043L13978.785,-3554.6808L13978.7818,-3554.6793L13978.7813,-3554.6791L13978.7802,-3554.6785L13978.7704,-3554.674L13978.7637,-3554.6709L13978.7633,-3554.6707L13978.7625,-3554.6703L13978.7614,-3554.6699L13978.7535,-3554.6662L13978.7422,-3554.6609L13978.7354,-3554.6578L13978.7317,-3554.6561L13978.7292,-3554.6553"/>
<path content="1,茨城交通（株）,日立駅前中央～羽田空港,1.0,1.0,1.0," xlink:title="1" d="M13978.8666,-3554.7156L13978.8376,-3554.7043L13978.8362,-3554.7062L13978.8338,-3554.7096L13978.8335,-3554.7101L13978.8331,-3554.7106L13978.8329,-3554.711L13978.8325,-3554.7115L13978.8317,-3554.7126L13978.831,-3554.7136L13978.8306,-3554.7142L13978.8301,-3554.715L13978.8288,-3554.7168L13978.8216,-3554.727L13978.8198,-3554.7296L13978.8186,-3554.7312L13978.8181,-3554.732L13978.8176,-3554.7327L13978.8148,-3554.7367L13978.8142,-3554.7376L13978.8138,-3554.7381L13978.8133,-3554.7389L13978.8124,-3554.7402L13978.8122,-3554.7406L13978.7959,-3554.7638"/>
<path content="1,西東京バス（株）,003,9.0,9.0,9.0," xlink:title="1" d="M13978.7292,-3554.6553L13978.7317,-3554.6561L13978.7354,-3554.6578L13978.7422,-3554.6609L13978.7535,-3554.6662L13978.7614,-3554.6699L13978.7625,-3554.6703L13978.7633,-3554.6707L13978.7637,-3554.6709L13978.7704,-3554.674L13978.7802,-3554.6785L13978.7813,-3554.6791L13978.7818,-3554.6793L13978.785,-3554.6808L13978.8376,-3554.7043L13978.8666,-3554.7156"/>
<path content="1,西武バス（株）,大宮羽田線,5.0,5.0,5.0," xlink:title="1" d="M13978.8666,-3554.7156L13978.8376,-3554.7043L13978.785,-3554.6808L13978.7818,-3554.6793L13978.7813,-3554.6791L13978.7802,-3554.6785L13978.7704,-3554.674L13978.7637,-3554.6709L13978.7633,-3554.6707L13978.7625,-3554.6703L13978.7614,-3554.6699L13978.7535,-3554.6662L13978.7422,-3554.6609L13978.7354,-3554.6578L13978.7317,-3554.6561L13978.7292,-3554.6553"/>
<path content="1,西武バス（株）,大泉学園羽田線,5.5,5.5,5.5," xlink:title="1" d="M13978.8666,-3554.7156L13978.8376,-3554.7043L13978.785,-3554.6808L13978.7818,-3554.6793L13978.7813,-3554.6791L13978.7802,-3554.6785L13978.7704,-3554.674L13978.7637,-3554.6709L13978.7633,-3554.6707L13978.7625,-3554.6703L13978.7614,-3554.6699L13978.7535,-3554.6662L13978.7422,-3554.6609L13978.7354,-3554.6578L13978.7317,-3554.6561L13978.7292,-3554.6553"/>
<path content="1,西武バス（株）,川越羽田線,2.0,2.0,2.0," xlink:title="1" d="M13978.8666,-3554.7156L13978.8376,-3554.7043L13978.785,-3554.6808L13978.7818,-3554.6793L13978.7813,-3554.6791L13978.7802,-3554.6785L13978.7704,-3554.674L13978.7637,-3554.6709L13978.7633,-3554.6707L13978.7625,-3554.6703L13978.7614,-3554.6699L13978.7535,-3554.6662L13978.7422,-3554.6609L13978.7354,-3554.6578L13978.7317,-3554.6561L13978.7292,-3554.6553"/>
<path content="1,西武バス（株）,所沢羽田線,10.5,10.5,10.5," xlink:title="1" d="M13978.7292,-3554.6553L13978.7317,-3554.6561L13978.7354,-3554.6578L13978.7422,-3554.6609L13978.7535,-3554.6662L13978.7614,-3554.6699L13978.7625,-3554.6703L13978.7633,-3554.6707L13978.7637,-3554.6709L13978.7704,-3554.674L13978.7802,-3554.6785L13978.7813,-3554.6791L13978.7818,-3554.6793L13978.785,-3554.6808L13978.8376,-3554.7043L13978.8666,-3554.7156"/>
<path content="1,関東バス（株）,吉祥寺・羽田空港,19.0,19.0,19.0," xlink:title="1" d="M13978.7292,-3554.6553L13978.7317,-3554.6561L13978.7354,-3554.6578L13978.7422,-3554.6609L13978.7535,-3554.6662L13978.7614,-3554.6699L13978.7625,-3554.6703L13978.7633,-3554.6707L13978.7637,-3554.6709L13978.7704,-3554.674L13978.7802,-3554.6785L13978.7813,-3554.6791L13978.7818,-3554.6793L13978.785,-3554.6808L13978.8376,-3554.7043L13978.8666,-3554.7156"/>
<path content="1,関東自動車（株）,マロニエ号　羽田空港,3.0,3.0,3.0," xlink:title="1" d="M13978.8666,-3554.7156L13978.8376,-3554.7043L13978.785,-3554.6808L13978.7818,-3554.6793L13978.7813,-3554.6791L13978.7802,-3554.6785L13978.7704,-3554.674L13978.7637,-3554.6709L13978.7633,-3554.6707L13978.7625,-3554.6703L13978.7614,-3554.6699L13978.7535,-3554.6662L13978.7422,-3554.6609L13978.7354,-3554.6578L13978.7317,-3554.6561L13978.7292,-3554.6553"/>
<path content="1,関東鉄道（株）,つくばセンター～羽田空港国際ターミナル,6.0,6.0,6.0," xlink:title="1" d="M13978.8666,-3554.7156L13978.8376,-3554.7043L13978.8362,-3554.7062L13978.8338,-3554.7096L13978.8335,-3554.7101L13978.8331,-3554.7106L13978.8329,-3554.711L13978.8325,-3554.7115L13978.8317,-3554.7126L13978.831,-3554.7136L13978.8306,-3554.7142L13978.8301,-3554.715L13978.8288,-3554.7168L13978.8216,-3554.727L13978.8198,-3554.7296L13978.8186,-3554.7312L13978.8181,-3554.732L13978.8176,-3554.7327L13978.8148,-3554.7367L13978.8142,-3554.7376L13978.8138,-3554.7381L13978.8133,-3554.7389L13978.8124,-3554.7402L13978.8122,-3554.7406L13978.7959,-3554.7638"/>
<path content="1,関東鉄道（株）,鹿島神宮駅～羽田空港国際線,3.0,3.0,3.0," xlink:title="1" d="M13978.7959,-3554.7638L13978.8122,-3554.7406L13978.8124,-3554.7402L13978.8133,-3554.7389L13978.8138,-3554.7381L13978.8142,-3554.7376L13978.8148,-3554.7367L13978.8176,-3554.7327L13978.8181,-3554.732L13978.8186,-3554.7312L13978.8198,-3554.7296L13978.8216,-3554.727L13978.8288,-3554.7168L13978.8301,-3554.715L13978.8306,-3554.7142L13978.831,-3554.7136L13978.8317,-3554.7126L13978.8325,-3554.7115L13978.8329,-3554.711L13978.8331,-3554.7106L13978.8335,-3554.7101L13978.8338,-3554.7096L13978.8362,-3554.7062L13978.8376,-3554.7043L13978.8666,-3554.7156"/>
<path content="1,鴨川日東バス,アクシー号,5.0,5.0,5.0," xlink:title="1" d="M13978.8666,-3554.6636L13978.8644,-3554.6666L13978.8604,-3554.6722L13978.8526,-3554.6831L13978.8421,-3554.6979L13978.8415,-3554.6987L13978.8413,-3554.699L13978.8411,-3554.6994L13978.8404,-3554.7003L13978.8376,-3554.7043L13978.8362,-3554.7062L13978.8338,-3554.7096L13978.8335,-3554.7101L13978.8331,-3554.7106L13978.8329,-3554.711L13978.8325,-3554.7115L13978.8317,-3554.7126L13978.831,-3554.7136L13978.8306,-3554.7142L13978.8301,-3554.715L13978.8288,-3554.7168L13978.8216,-3554.727L13978.8198,-3554.7296L13978.8186,-3554.7312L13978.8181,-3554.732L13978.8176,-3554.7327L13978.8148,-3554.7367L13978.8142,-3554.7376L13978.8138,-3554.7381L13978.8133,-3554.7389L13978.8124,-3554.7402L13978.8122,-3554.7406L13978.7959,-3554.7638"/>
<path content="1,（株）シティバス立川,立川駅～羽田空港線,9.0,9.0,9.0," xlink:title="1" d="M13978.7292,-3554.6553L13978.7317,-3554.6561L13978.7354,-3554.6578L13978.7422,-3554.6609L13978.7535,-3554.6662L13978.7614,-3554.6699L13978.7625,-3554.6703L13978.7633,-3554.6707L13978.7637,-3554.6709L13978.7704,-3554.674L13978.7802,-3554.6785L13978.7813,-3554.6791L13978.7818,-3554.6793L13978.785,-3554.6808L13978.8376,-3554.7043L13978.8666,-3554.7156"/>
</g>
</svg>
