<?xml version="1.0" encoding="UTF-8"?>
<svg  xmlns="http://www.w3.org/2000/svg" xmlns:xlink="http://www.w3.org/1999/xlink" xmlns:go="http://purl.org/svgmap/profile" property="N07_001,N07_002,N07_003,N07_004,N07_005,N07_006,N07_007" viewBox="13895.5078125 -3625.48828125 4.39453125 4.39453125" go:dataArea="13895.5078125 -3625.48828125 4.39453125 4.39453125" >
<metadata>
 <rdf:RDF xmlns:rdf="http://www.w3.org/1999/02/22-rdf-syntax-ns#" xmlns:crs="http://opengis.org/xmldtds/transformations.dtd" xmlns:svg="http://www.w3.org/svg" >
  <rdf:Description>
   <crs:CoordinateReferenceSystem rdf:resource="http://purl.org/crs/84" svg:transform="matrix(100.0,0.0,0.0,-100.0,0.0,0.0)" />
  </rdf:Description>
 </rdf:RDF>
</metadata>
<globalCoordinateSystem srsName="http://purl.org/crs/84" transform="matrix(100.0,0.0,0.0,-100.0,0.0,0.0)" />
<defs>
 <g id="p0" >
  <circle cx="0.0" cy="0.0" r="3" stroke="green" stroke-width="0.75" vector-effect="non-scaling-stroke" />
 </g>
</defs>
<g fill="none" fill-rule="evenodd" stroke="#FF00FF" stroke-width="0.75" opacity="0.5" vector-effect="non-scaling-stroke" stroke-linejoin="bevel" >
<path content="1,JRバス関東（株）,新宿～佐久・小諸,8.0,10.0,10.0," xlink:title="1" d="M13899.9023,-3624.3673L13899.8294,-3624.3713L13899.7616,-3624.3736L13899.6819,-3624.3725L13899.5847,-3624.3714L13899.5631,-3624.3692L13899.5313,-3624.3664L13899.4416,-3624.3583L13899.37,-3624.3459L13899.3481,-3624.3425L13899.2886,-3624.3335L13899.2571,-3624.3277L13899.1682,-3624.3089L13899.1507,-3624.3056L13899.0792,-3624.2891L13899.0431,-3624.2786L13898.9507,-3624.2511L13898.9276,-3624.2434L13898.919,-3624.2407L13898.8748,-3624.2266L13898.7609,-3624.1888L13898.7491,-3624.1854L13898.7096,-3624.1716L13898.6286,-3624.1494L13898.577,-3624.1359L13898.5245,-3624.1254L13898.4643,-3624.1158L13898.4093,-3624.1082L13898.3456,-3624.1026L13898.3065,-3624.1001L13898.2602,-3624.098L13898.1959,-3624.0988L13898.1294,-3624.0996L13898.0869,-3624.1011L13898.0435,-3624.1031L13897.9741,-3624.1062L13897.9041,-3624.1119L13897.8394,-3624.1172L13897.7465,-3624.1225L13897.6947,-3624.1253L13897.5714,-3624.125L13897.5142,-3624.1237L13897.4289,-3624.1204L13897.3545,-3624.1144L13897.298,-3624.1095L13897.2107,-3624.0986L13897.1005,-3624.0871L13896.9691,-3624.0719L13896.8838,-3624.064L13896.7199,-3624.0543L13896.7159,-3624.0541L13896.6659,-3624.0538L13896.5285,-3624.054L13896.5013,-3624.055L13896.4061,-3624.0619L13896.3555,-3624.0652L13896.3304,-3624.0675L13896.2816,-3624.0725L13896.2227,-3624.0809L13896.1123,-3624.0964L13896.0054,-3624.1148L13895.9597,-3624.1232L13895.8629,-3624.1415L13895.7847,-3624.157L13895.7214,-3624.1661L13895.6757,-3624.173L13895.6259,-3624.1791L13895.6033,-3624.1819L13895.5637,-3624.185L13895.5078,-3624.1862"/>
<path content="1,京王バス南（株）,新宿～長野線,7.0,7.0,7.0," xlink:title="1" d="M13899.9023,-3624.3673L13899.8294,-3624.3713L13899.7616,-3624.3736L13899.6819,-3624.3725L13899.5847,-3624.3714L13899.5631,-3624.3692L13899.5313,-3624.3664L13899.4416,-3624.3583L13899.37,-3624.3459L13899.3481,-3624.3425L13899.2886,-3624.3335L13899.2571,-3624.3277L13899.1682,-3624.3089L13899.1507,-3624.3056L13899.0792,-3624.2891L13899.0431,-3624.2786L13898.9507,-3624.2511L13898.9276,-3624.2434L13898.919,-3624.2407L13898.8748,-3624.2266L13898.7609,-3624.1888L13898.7491,-3624.1854L13898.7096,-3624.1716L13898.6286,-3624.1494L13898.577,-3624.1359L13898.5245,-3624.1254L13898.4643,-3624.1158L13898.4093,-3624.1082L13898.3456,-3624.1026L13898.3065,-3624.1001L13898.2602,-3624.098L13898.1959,-3624.0988L13898.1294,-3624.0996L13898.0869,-3624.1011L13898.0435,-3624.1031L13897.9741,-3624.1062L13897.9041,-3624.1119L13897.8394,-3624.1172L13897.7465,-3624.1225L13897.6947,-3624.1253L13897.5714,-3624.125L13897.5142,-3624.1237L13897.4289,-3624.1204L13897.3545,-3624.1144L13897.298,-3624.1095L13897.2107,-3624.0986L13897.1005,-3624.0871L13896.9691,-3624.0719L13896.8838,-3624.064L13896.7199,-3624.0543L13896.7159,-3624.0541L13896.6659,-3624.0538L13896.5285,-3624.054L13896.5013,-3624.055L13896.4061,-3624.0619L13896.3555,-3624.0652L13896.3304,-3624.0675L13896.2816,-3624.0725L13896.2227,-3624.0809L13896.1123,-3624.0964L13896.0054,-3624.1148L13895.9597,-3624.1232L13895.8629,-3624.1415L13895.7847,-3624.157L13895.7214,-3624.1661L13895.6757,-3624.173L13895.6259,-3624.1791L13895.6033,-3624.1819L13895.5637,-3624.185L13895.5078,-3624.1862"/>
<path content="1,加越能鉄道（株）,東京行き（高速バス）,2.0,2.0,2.0," xlink:title="1" d="M13899.9023,-3624.3673L13899.8294,-3624.3713L13899.7616,-3624.3736L13899.6819,-3624.3725L13899.5847,-3624.3714L13899.5631,-3624.3692L13899.5313,-3624.3664L13899.4416,-3624.3583L13899.37,-3624.3459L13899.3481,-3624.3425L13899.2886,-3624.3335L13899.2571,-3624.3277L13899.1682,-3624.3089L13899.1507,-3624.3056L13899.0792,-3624.2891L13899.0431,-3624.2786L13898.9507,-3624.2511L13898.9276,-3624.2434L13898.919,-3624.2407L13898.8748,-3624.2266L13898.7609,-3624.1888L13898.7491,-3624.1854L13898.7096,-3624.1716L13898.6286,-3624.1494L13898.577,-3624.1359L13898.5245,-3624.1254L13898.4643,-3624.1158L13898.4093,-3624.1082L13898.3456,-3624.1026L13898.3065,-3624.1001L13898.2602,-3624.098L13898.1959,-3624.0988L13898.1294,-3624.0996L13898.0869,-3624.1011L13898.0435,-3624.1031L13897.9741,-3624.1062L13897.8394,-3624.1172L13897.7465,-3624.1225L13897.6947,-3624.1253L13897.5714,-3624.125L13897.5142,-3624.1237L13897.4289,-3624.1204L13897.3545,-3624.1144L13897.298,-3624.1095L13897.2107,-3624.0986L13897.1005,-3624.0871L13896.9691,-3624.0719L13896.8838,-3624.064L13896.7199,-3624.0543L13896.7159,-3624.0541L13896.6659,-3624.0538L13896.5285,-3624.054L13896.5013,-3624.055L13896.4061,-3624.0619L13896.3555,-3624.0652L13896.3304,-3624.0675L13896.2816,-3624.0725L13896.2227,-3624.0809L13896.1123,-3624.0964L13896.0054,-3624.1148L13895.9597,-3624.1232L13895.8629,-3624.1415L13895.7847,-3624.157L13895.7214,-3624.1661L13895.6757,-3624.173L13895.6259,-3624.1791L13895.6033,-3624.1819L13895.5637,-3624.185L13895.5078,-3624.1862"/>
<path content="1,北陸鉄道（株）,高速バス　金沢⇔渋谷八王子,2.0,2.0,2.0," xlink:title="1" d="M13899.9023,-3624.3673L13899.8294,-3624.3713L13899.7616,-3624.3736L13899.6819,-3624.3725L13899.5847,-3624.3714L13899.5631,-3624.3692L13899.5313,-3624.3664L13899.4416,-3624.3583L13899.37,-3624.3459L13899.3481,-3624.3425L13899.2886,-3624.3335L13899.2571,-3624.3277L13899.1682,-3624.3089L13899.1507,-3624.3056L13899.0792,-3624.2891L13899.0431,-3624.2786L13898.9507,-3624.2511L13898.9276,-3624.2434L13898.919,-3624.2407L13898.8748,-3624.2266L13898.7609,-3624.1888L13898.7491,-3624.1854L13898.7096,-3624.1716L13898.6286,-3624.1494L13898.577,-3624.1359L13898.5245,-3624.1254L13898.4643,-3624.1158L13898.4093,-3624.1082L13898.3456,-3624.1026L13898.3065,-3624.1001L13898.2602,-3624.098L13898.1959,-3624.0988L13898.1294,-3624.0996L13898.0869,-3624.1011L13898.0435,-3624.1031L13897.9741,-3624.1062L13897.8394,-3624.1172L13897.7465,-3624.1225L13897.6947,-3624.1253L13897.5714,-3624.125L13897.5142,-3624.1237L13897.4289,-3624.1204L13897.3545,-3624.1144L13897.298,-3624.1095L13897.2107,-3624.0986L13897.1005,-3624.0871L13896.9691,-3624.0719L13896.8838,-3624.064L13896.7199,-3624.0543L13896.7159,-3624.0541L13896.6659,-3624.0538L13896.5285,-3624.054L13896.5013,-3624.055L13896.4061,-3624.0619L13896.3555,-3624.0652L13896.3304,-3624.0675L13896.2816,-3624.0725L13896.2227,-3624.0809L13896.1123,-3624.0964L13896.0054,-3624.1148L13895.9597,-3624.1232L13895.8629,-3624.1415L13895.7847,-3624.157L13895.7214,-3624.1661L13895.6757,-3624.173L13895.6259,-3624.1791L13895.6033,-3624.1819L13895.5637,-3624.185L13895.5078,-3624.1862"/>
<path content="1,千曲バス（株）,上田～池袋,5.0,5.0,5.0," xlink:title="1" d="M13895.5078,-3624.1862L13895.5637,-3624.185L13895.6033,-3624.1819L13895.6259,-3624.1791L13895.6757,-3624.173L13895.7214,-3624.1661L13895.7847,-3624.157L13895.8629,-3624.1415L13895.9597,-3624.1232L13896.0054,-3624.1148L13896.1123,-3624.0964L13896.2227,-3624.0809L13896.2816,-3624.0725L13896.3304,-3624.0675L13896.3555,-3624.0652L13896.4061,-3624.0619L13896.5013,-3624.055L13896.5285,-3624.054L13896.6659,-3624.0538L13896.7159,-3624.0541L13896.7199,-3624.0543L13896.8838,-3624.064L13896.9691,-3624.0719L13897.1005,-3624.0871L13897.2107,-3624.0986L13897.298,-3624.1095L13897.3545,-3624.1144L13897.4289,-3624.1204L13897.5142,-3624.1237L13897.5714,-3624.125L13897.6947,-3624.1253L13897.7465,-3624.1225L13897.8394,-3624.1172L13897.9741,-3624.1062L13898.0435,-3624.1031L13898.0869,-3624.1011L13898.1294,-3624.0996L13898.1959,-3624.0988L13898.2602,-3624.098L13898.3065,-3624.1001L13898.3456,-3624.1026L13898.4093,-3624.1082L13898.4643,-3624.1158L13898.5245,-3624.1254L13898.577,-3624.1359L13898.6286,-3624.1494L13898.7096,-3624.1716L13898.7491,-3624.1854L13898.7609,-3624.1888L13898.8748,-3624.2266L13898.919,-3624.2407L13898.9276,-3624.2434L13898.9507,-3624.2511L13899.0431,-3624.2786L13899.0792,-3624.2891L13899.1507,-3624.3056L13899.1682,-3624.3089L13899.2571,-3624.3277L13899.2886,-3624.3335L13899.3481,-3624.3425L13899.37,-3624.3459L13899.4416,-3624.3583L13899.5313,-3624.3664L13899.5631,-3624.3692L13899.5847,-3624.3714L13899.6819,-3624.3725L13899.7616,-3624.3736L13899.8294,-3624.3713L13899.9023,-3624.3673"/>
<path content="1,千曲バス（株）,上田～立川,1.0,1.0,1.0," xlink:title="1" d="M13899.9023,-3624.3673L13899.8294,-3624.3713L13899.7616,-3624.3736L13899.6819,-3624.3725L13899.5847,-3624.3714L13899.5631,-3624.3692L13899.5313,-3624.3664L13899.4416,-3624.3583L13899.37,-3624.3459L13899.3481,-3624.3425L13899.2886,-3624.3335L13899.2571,-3624.3277L13899.1682,-3624.3089L13899.1507,-3624.3056L13899.0792,-3624.2891L13899.0431,-3624.2786L13898.9507,-3624.2511L13898.9276,-3624.2434L13898.919,-3624.2407L13898.8748,-3624.2266L13898.7609,-3624.1888L13898.7491,-3624.1854L13898.7096,-3624.1716L13898.6286,-3624.1494L13898.577,-3624.1359L13898.5245,-3624.1254L13898.4643,-3624.1158L13898.4093,-3624.1082L13898.3456,-3624.1026L13898.3065,-3624.1001L13898.2602,-3624.098L13898.1959,-3624.0988L13898.1294,-3624.0996L13898.0869,-3624.1011L13898.0435,-3624.1031L13897.9741,-3624.1062L13897.8394,-3624.1172L13897.7465,-3624.1225L13897.6947,-3624.1253L13897.5714,-3624.125L13897.5142,-3624.1237L13897.4289,-3624.1204L13897.3545,-3624.1144L13897.298,-3624.1095L13897.2107,-3624.0986L13897.1005,-3624.0871L13896.9691,-3624.0719L13896.8838,-3624.064L13896.7199,-3624.0543L13896.7159,-3624.0541L13896.6659,-3624.0538L13896.5285,-3624.054L13896.5013,-3624.055L13896.4061,-3624.0619L13896.3555,-3624.0652L13896.3304,-3624.0675L13896.2816,-3624.0725L13896.2227,-3624.0809L13896.1123,-3624.0964L13896.0054,-3624.1148L13895.9597,-3624.1232L13895.8629,-3624.1415L13895.7847,-3624.157L13895.7214,-3624.1661L13895.6757,-3624.173L13895.6259,-3624.1791L13895.6033,-3624.1819L13895.5637,-3624.185L13895.5078,-3624.1862"/>
<path content="1,千曲バス（株）,佐久～池袋,4.0,4.0,4.0," xlink:title="1" d="M13895.5078,-3624.1862L13895.5637,-3624.185L13895.6033,-3624.1819L13895.6259,-3624.1791L13895.6757,-3624.173L13895.7214,-3624.1661L13895.7847,-3624.157L13895.8629,-3624.1415L13895.9597,-3624.1232L13896.0054,-3624.1148L13896.1123,-3624.0964L13896.2227,-3624.0809L13896.2816,-3624.0725L13896.3304,-3624.0675L13896.3555,-3624.0652L13896.4061,-3624.0619L13896.5013,-3624.055L13896.5285,-3624.054L13896.6659,-3624.0538L13896.7159,-3624.0541L13896.7199,-3624.0543L13896.8838,-3624.064L13896.9691,-3624.0719L13897.1005,-3624.0871L13897.2107,-3624.0986L13897.298,-3624.1095L13897.3545,-3624.1144L13897.4289,-3624.1204L13897.5142,-3624.1237L13897.5714,-3624.125L13897.6947,-3624.1253L13897.7465,-3624.1225L13897.8394,-3624.1172L13897.9741,-3624.1062L13898.0435,-3624.1031L13898.0869,-3624.1011L13898.1294,-3624.0996L13898.1959,-3624.0988L13898.2602,-3624.098L13898.3065,-3624.1001L13898.3456,-3624.1026L13898.4093,-3624.1082L13898.4643,-3624.1158L13898.5245,-3624.1254L13898.577,-3624.1359L13898.6286,-3624.1494L13898.7096,-3624.1716L13898.7491,-3624.1854L13898.7609,-3624.1888L13898.8748,-3624.2266L13898.919,-3624.2407L13898.9276,-3624.2434L13898.9507,-3624.2511L13899.0431,-3624.2786L13899.0792,-3624.2891L13899.1507,-3624.3056L13899.1682,-3624.3089L13899.2571,-3624.3277L13899.2886,-3624.3335L13899.3481,-3624.3425L13899.37,-3624.3459L13899.4416,-3624.3583L13899.5313,-3624.3664L13899.5631,-3624.3692L13899.5847,-3624.3714L13899.6819,-3624.3725L13899.7616,-3624.3736L13899.8294,-3624.3713L13899.9023,-3624.3673"/>
<path content="1,千曲バス（株）,小諸～池袋,3.0,3.0,3.0," xlink:title="1" d="M13895.5078,-3624.1862L13895.5637,-3624.185L13895.6033,-3624.1819L13895.6259,-3624.1791L13895.6757,-3624.173L13895.7214,-3624.1661L13895.7847,-3624.157L13895.8629,-3624.1415L13895.9597,-3624.1232L13896.0054,-3624.1148L13896.1123,-3624.0964L13896.2227,-3624.0809L13896.2816,-3624.0725L13896.3304,-3624.0675L13896.3555,-3624.0652L13896.4061,-3624.0619L13896.5013,-3624.055L13896.5285,-3624.054L13896.6659,-3624.0538L13896.7159,-3624.0541L13896.7199,-3624.0543L13896.8838,-3624.064L13896.9691,-3624.0719L13897.1005,-3624.0871L13897.2107,-3624.0986L13897.298,-3624.1095L13897.3545,-3624.1144L13897.4289,-3624.1204L13897.5142,-3624.1237L13897.5714,-3624.125L13897.6947,-3624.1253L13897.7465,-3624.1225L13897.8394,-3624.1172L13897.9741,-3624.1062L13898.0435,-3624.1031L13898.0869,-3624.1011L13898.1294,-3624.0996L13898.1959,-3624.0988L13898.2602,-3624.098L13898.3065,-3624.1001L13898.3456,-3624.1026L13898.4093,-3624.1082L13898.4643,-3624.1158L13898.5245,-3624.1254L13898.577,-3624.1359L13898.6286,-3624.1494L13898.7096,-3624.1716L13898.7491,-3624.1854L13898.7609,-3624.1888L13898.8748,-3624.2266L13898.919,-3624.2407L13898.9276,-3624.2434L13898.9507,-3624.2511L13899.0431,-3624.2786L13899.0792,-3624.2891L13899.1507,-3624.3056L13899.1682,-3624.3089L13899.2571,-3624.3277L13899.2886,-3624.3335L13899.3481,-3624.3425L13899.37,-3624.3459L13899.4416,-3624.3583L13899.5313,-3624.3664L13899.5631,-3624.3692L13899.5847,-3624.3714L13899.6819,-3624.3725L13899.7616,-3624.3736L13899.8294,-3624.3713L13899.9023,-3624.3673"/>
<path content="1,千曲バス（株）,小諸～立川,1.0,1.0,1.0," xlink:title="1" d="M13899.9023,-3624.3673L13899.8294,-3624.3713L13899.7616,-3624.3736L13899.6819,-3624.3725L13899.5847,-3624.3714L13899.5631,-3624.3692L13899.5313,-3624.3664L13899.4416,-3624.3583L13899.37,-3624.3459L13899.3481,-3624.3425L13899.2886,-3624.3335L13899.2571,-3624.3277L13899.1682,-3624.3089L13899.1507,-3624.3056L13899.0792,-3624.2891L13899.0431,-3624.2786L13898.9507,-3624.2511L13898.9276,-3624.2434L13898.919,-3624.2407L13898.8748,-3624.2266L13898.7609,-3624.1888L13898.7491,-3624.1854L13898.7096,-3624.1716L13898.6286,-3624.1494L13898.577,-3624.1359L13898.5245,-3624.1254L13898.4643,-3624.1158L13898.4093,-3624.1082L13898.3456,-3624.1026L13898.3065,-3624.1001L13898.2602,-3624.098L13898.1959,-3624.0988L13898.1294,-3624.0996L13898.0869,-3624.1011L13898.0435,-3624.1031L13897.9741,-3624.1062L13897.8394,-3624.1172L13897.7465,-3624.1225L13897.6947,-3624.1253L13897.5714,-3624.125L13897.5142,-3624.1237L13897.4289,-3624.1204L13897.3545,-3624.1144L13897.298,-3624.1095L13897.2107,-3624.0986L13897.1005,-3624.0871L13896.9691,-3624.0719L13896.8838,-3624.064L13896.7199,-3624.0543L13896.7159,-3624.0541L13896.6659,-3624.0538L13896.5285,-3624.054L13896.5013,-3624.055L13896.4061,-3624.0619L13896.3555,-3624.0652L13896.3304,-3624.0675L13896.2816,-3624.0725L13896.2227,-3624.0809L13896.1123,-3624.0964L13896.0054,-3624.1148L13895.9597,-3624.1232L13895.8629,-3624.1415L13895.7847,-3624.157L13895.7214,-3624.1661L13895.6757,-3624.173L13895.6259,-3624.1791L13895.6033,-3624.1819L13895.5637,-3624.185L13895.5078,-3624.1862"/>
<path content="1,千曲バス（株）,御代田～池袋,1.0,1.0,1.0," xlink:title="1" d="M13899.9023,-3624.3673L13899.8294,-3624.3713L13899.7616,-3624.3736L13899.6819,-3624.3725L13899.5847,-3624.3714L13899.5631,-3624.3692L13899.5313,-3624.3664L13899.4416,-3624.3583L13899.37,-3624.3459L13899.3481,-3624.3425L13899.2886,-3624.3335L13899.2571,-3624.3277L13899.1682,-3624.3089L13899.1507,-3624.3056L13899.0792,-3624.2891L13899.0431,-3624.2786L13898.9507,-3624.2511L13898.9276,-3624.2434L13898.919,-3624.2407L13898.8748,-3624.2266L13898.7609,-3624.1888L13898.7491,-3624.1854L13898.7096,-3624.1716L13898.6286,-3624.1494L13898.577,-3624.1359L13898.5245,-3624.1254L13898.4643,-3624.1158L13898.4093,-3624.1082L13898.3456,-3624.1026L13898.3065,-3624.1001L13898.2602,-3624.098L13898.1959,-3624.0988L13898.1294,-3624.0996L13898.0869,-3624.1011L13898.0435,-3624.1031L13897.9741,-3624.1062L13897.8394,-3624.1172L13897.7465,-3624.1225L13897.6947,-3624.1253L13897.5714,-3624.125L13897.5142,-3624.1237L13897.4289,-3624.1204L13897.3545,-3624.1144L13897.298,-3624.1095L13897.2107,-3624.0986L13897.1005,-3624.0871L13896.9691,-3624.0719L13896.8838,-3624.064L13896.7199,-3624.0543L13896.7159,-3624.0541L13896.6659,-3624.0538L13896.5285,-3624.054L13896.5013,-3624.055L13896.4061,-3624.0619L13896.3555,-3624.0652L13896.3304,-3624.0675L13896.2816,-3624.0725L13896.2227,-3624.0809L13896.1123,-3624.0964L13896.0054,-3624.1148L13895.9597,-3624.1232L13895.8629,-3624.1415L13895.7847,-3624.157L13895.7214,-3624.1661L13895.6757,-3624.173L13895.6259,-3624.1791L13895.6033,-3624.1819L13895.5637,-3624.185L13895.5078,-3624.1862"/>
<path content="1,富山地方鉄道（株）,東京（高速バス）,4.0,4.0,4.0," xlink:title="1" d="M13899.9023,-3624.3673L13899.8294,-3624.3713L13899.7616,-3624.3736L13899.6819,-3624.3725L13899.5847,-3624.3714L13899.5631,-3624.3692L13899.5313,-3624.3664L13899.4416,-3624.3583L13899.37,-3624.3459L13899.3481,-3624.3425L13899.2886,-3624.3335L13899.2571,-3624.3277L13899.1682,-3624.3089L13899.1507,-3624.3056L13899.0792,-3624.2891L13899.0431,-3624.2786L13898.9507,-3624.2511L13898.9276,-3624.2434L13898.919,-3624.2407L13898.8748,-3624.2266L13898.7609,-3624.1888L13898.7491,-3624.1854L13898.7096,-3624.1716L13898.6286,-3624.1494L13898.577,-3624.1359L13898.5245,-3624.1254L13898.4643,-3624.1158L13898.4093,-3624.1082L13898.3456,-3624.1026L13898.3065,-3624.1001L13898.2602,-3624.098L13898.1959,-3624.0988L13898.1294,-3624.0996L13898.0869,-3624.1011L13898.0435,-3624.1031L13897.9741,-3624.1062L13897.8394,-3624.1172L13897.7465,-3624.1225L13897.6947,-3624.1253L13897.5714,-3624.125L13897.5142,-3624.1237L13897.4289,-3624.1204L13897.3545,-3624.1144L13897.298,-3624.1095L13897.2107,-3624.0986L13897.1005,-3624.0871L13896.9691,-3624.0719L13896.8838,-3624.064L13896.7199,-3624.0543L13896.7159,-3624.0541L13896.6659,-3624.0538L13896.5285,-3624.054L13896.5013,-3624.055L13896.4061,-3624.0619L13896.3555,-3624.0652L13896.3304,-3624.0675L13896.2816,-3624.0725L13896.2227,-3624.0809L13896.1123,-3624.0964L13896.0054,-3624.1148L13895.9597,-3624.1232L13895.8629,-3624.1415L13895.7847,-3624.157L13895.7214,-3624.1661L13895.6757,-3624.173L13895.6259,-3624.1791L13895.6033,-3624.1819L13895.5637,-3624.185L13895.5078,-3624.1862"/>
<path content="1,川中島バス（株）,特急長野新宿線,8.5,8.5,8.5," xlink:title="1" d="M13899.9023,-3624.3673L13899.8294,-3624.3713L13899.7616,-3624.3736L13899.6819,-3624.3725L13899.5847,-3624.3714L13899.5631,-3624.3692L13899.5313,-3624.3664L13899.4416,-3624.3583L13899.37,-3624.3459L13899.3481,-3624.3425L13899.2886,-3624.3335L13899.2571,-3624.3277L13899.1682,-3624.3089L13899.1507,-3624.3056L13899.0792,-3624.2891L13899.0431,-3624.2786L13898.9507,-3624.2511L13898.9276,-3624.2434L13898.919,-3624.2407L13898.8748,-3624.2266L13898.7609,-3624.1888L13898.7491,-3624.1854L13898.7096,-3624.1716L13898.6286,-3624.1494L13898.577,-3624.1359L13898.5245,-3624.1254L13898.4643,-3624.1158L13898.4093,-3624.1082L13898.3456,-3624.1026L13898.3065,-3624.1001L13898.2602,-3624.098L13898.1959,-3624.0988L13898.1294,-3624.0996L13898.0869,-3624.1011L13898.0435,-3624.1031L13897.9741,-3624.1062L13897.8394,-3624.1172L13897.7465,-3624.1225L13897.6947,-3624.1253L13897.5714,-3624.125L13897.5142,-3624.1237L13897.4289,-3624.1204L13897.3545,-3624.1144L13897.298,-3624.1095L13897.2107,-3624.0986L13897.1005,-3624.0871L13896.9691,-3624.0719L13896.8838,-3624.064L13896.7199,-3624.0543L13896.7159,-3624.0541L13896.6659,-3624.0538L13896.5285,-3624.054L13896.5013,-3624.055L13896.4061,-3624.0619L13896.3555,-3624.0652L13896.3304,-3624.0675L13896.2816,-3624.0725L13896.2227,-3624.0809L13896.1123,-3624.0964L13896.0054,-3624.1148L13895.9597,-3624.1232L13895.8629,-3624.1415L13895.7847,-3624.157L13895.7214,-3624.1661L13895.6757,-3624.173L13895.6259,-3624.1791L13895.6033,-3624.1819L13895.5637,-3624.185L13895.5078,-3624.1862"/>
<path content="1,日本中央バス（株）,シルクライナー,5.0,5.0,5.0," xlink:title="1" d="M13895.5078,-3625.2418L13895.5183,-3625.2339L13895.5397,-3625.2145L13895.5529,-3625.2015L13895.5793,-3625.1751L13895.5794,-3625.175L13895.5939,-3625.1643L13895.6044,-3625.1587L13895.6071,-3625.1564L13895.6363,-3625.1424L13895.6667,-3625.1308L13895.6787,-3625.1272L13895.687,-3625.1255L13895.6967,-3625.1238L13895.7926,-3625.1188L13895.8919,-3625.1137L13895.9024,-3625.1131L13895.9954,-3625.1109L13896.1281,-3625.1058L13896.1809,-3625.1041L13896.1879,-3625.103L13896.2337,-3625.0844L13896.2622,-3625.0726L13896.2726,-3625.0675L13896.2775,-3625.0664L13896.2844,-3625.063L13896.3018,-3625.0568L13896.3462,-3625.0466L13896.3893,-3625.041L13896.4261,-3625.0376L13896.4386,-3625.0359L13896.5053,-3625.0281L13896.5491,-3625.0281L13896.5994,-3625.0297L13896.6178,-3625.0286L13896.6644,-3625.0292L13896.7505,-3625.032L13896.763,-3625.0314L13896.8999,-3625.0348L13896.9311,-3625.0365L13896.9492,-3625.0365L13897.0333,-3625.0399L13897.1319,-3625.0433L13897.1468,-3625.0439L13897.2276,-3625.0475L13897.2486,-3625.0467L13897.2986,-3625.0489L13897.3708,-3625.0512L13897.4528,-3625.0523L13897.4667,-3625.0529L13897.5362,-3625.054L13897.5827,-3625.0557L13897.6549,-3625.0568L13897.6904,-3625.0585L13897.72,-3625.0592L13897.7292,-3625.0594L13897.7329,-3625.0596L13897.7407,-3625.0603L13897.773,-3625.063L13897.8008,-3625.0692L13897.8501,-3625.0844L13897.9043,-3625.1041L13897.9338,-3625.1156L13897.9682,-3625.1283L13898.0274,-3625.1538L13898.0877,-3625.1739L13898.1342,-3625.1903L13898.1695,-3625.2019L13898.1843,-3625.2066L13898.2099,-3625.2151L13898.2245,-3625.2194L13898.2322,-3625.2218L13898.2551,-3625.2269L13898.2877,-3625.228L13898.3148,-3625.2244L13898.3522,-3625.2184L13898.3549,-3625.2178L13898.3746,-3625.2139L13898.4156,-3625.2072L13898.4336,-3625.2061L13898.4982,-3625.2061L13898.5059,-3625.2066L13898.5823,-3625.2106L13898.6962,-3625.2207L13898.742,-3625.2252L13898.7511,-3625.2252L13898.7879,-3625.2291L13898.8087,-3625.2303L13898.8254,-3625.2325L13898.8566,-3625.2353L13898.9407,-3625.2432L13898.9581,-3625.2455L13898.9712,-3625.246L13898.9907,-3625.2483L13899.0484,-3625.2539L13899.0769,-3625.2567L13899.1956,-3625.2669L13899.2213,-3625.2747L13899.2694,-3625.3023L13899.2892,-3625.3117L13899.2983,-3625.3147L13899.3092,-3625.318L13899.3194,-3625.3203L13899.3365,-3625.3225L13899.3523,-3625.3243L13899.4079,-3625.3283L13899.4489,-3625.3322L13899.4496,-3625.3322L13899.4642,-3625.335L13899.5226,-3625.3542L13899.5351,-3625.3576L13899.5817,-3625.3744L13899.5949,-3625.3795L13899.6172,-3625.3885L13899.6353,-3625.3947L13899.6582,-3625.4032L13899.6819,-3625.4118L13899.7194,-3625.422L13899.741,-3625.4263L13899.7681,-3625.433L13899.9023,-3625.4622"/>
<path content="1,西東京バス（株）,001,2.0,2.0,2.0," xlink:title="1" d="M13899.9023,-3624.3673L13899.8294,-3624.3713L13899.7616,-3624.3736L13899.6819,-3624.3725L13899.5847,-3624.3714L13899.5631,-3624.3692L13899.5313,-3624.3664L13899.4416,-3624.3583L13899.37,-3624.3459L13899.3481,-3624.3425L13899.2886,-3624.3335L13899.2571,-3624.3277L13899.1682,-3624.3089L13899.1507,-3624.3056L13899.0792,-3624.2891L13899.0431,-3624.2786L13898.9507,-3624.2511L13898.9276,-3624.2434L13898.919,-3624.2407L13898.8748,-3624.2266L13898.7609,-3624.1888L13898.7491,-3624.1854L13898.7096,-3624.1716L13898.6286,-3624.1494L13898.577,-3624.1359L13898.5245,-3624.1254L13898.4643,-3624.1158L13898.4093,-3624.1082L13898.3456,-3624.1026L13898.3065,-3624.1001L13898.2602,-3624.098L13898.1959,-3624.0988L13898.1294,-3624.0996L13898.0869,-3624.1011L13898.0435,-3624.1031L13897.9741,-3624.1062L13897.9041,-3624.1119L13897.8394,-3624.1172L13897.7465,-3624.1225L13897.6947,-3624.1253L13897.5714,-3624.125L13897.5142,-3624.1237L13897.4289,-3624.1204L13897.3545,-3624.1144L13897.298,-3624.1095L13897.2107,-3624.0986L13897.1005,-3624.0871L13896.9691,-3624.0719L13896.8838,-3624.064L13896.7199,-3624.0543L13896.7159,-3624.0541L13896.6659,-3624.0538L13896.5285,-3624.054L13896.5013,-3624.055L13896.4061,-3624.0619L13896.3555,-3624.0652L13896.3304,-3624.0675L13896.2816,-3624.0725L13896.2227,-3624.0809L13896.1123,-3624.0964L13896.0054,-3624.1148L13895.9597,-3624.1232L13895.8629,-3624.1415L13895.7847,-3624.157L13895.7214,-3624.1661L13895.6757,-3624.173L13895.6259,-3624.1791L13895.6033,-3624.1819L13895.5637,-3624.185L13895.5078,-3624.1862"/>
<path content="1,西武バス（株）,佐久・軽井沢・上田・小諸線,8.0,8.0,8.0," xlink:title="1" d="M13899.9023,-3624.3673L13899.8294,-3624.3713L13899.7616,-3624.3736L13899.6819,-3624.3725L13899.5847,-3624.3714L13899.5631,-3624.3692L13899.5313,-3624.3664L13899.4416,-3624.3583L13899.37,-3624.3459L13899.3481,-3624.3425L13899.2886,-3624.3335L13899.2571,-3624.3277L13899.1682,-3624.3089L13899.1507,-3624.3056L13899.0792,-3624.2891L13899.0431,-3624.2786L13898.9507,-3624.2511L13898.9276,-3624.2434L13898.919,-3624.2407L13898.8748,-3624.2266L13898.7609,-3624.1888L13898.7491,-3624.1854L13898.7096,-3624.1716L13898.6286,-3624.1494L13898.577,-3624.1359L13898.5245,-3624.1254L13898.4643,-3624.1158L13898.4093,-3624.1082L13898.3456,-3624.1026L13898.3065,-3624.1001L13898.2602,-3624.098L13898.1959,-3624.0988L13898.1294,-3624.0996L13898.0869,-3624.1011L13898.0435,-3624.1031L13897.9741,-3624.1062L13897.9041,-3624.1119L13897.8394,-3624.1172L13897.7465,-3624.1225L13897.6947,-3624.1253L13897.5714,-3624.125L13897.5142,-3624.1237L13897.4289,-3624.1204L13897.3545,-3624.1144L13897.298,-3624.1095L13897.2107,-3624.0986L13897.1005,-3624.0871L13896.9691,-3624.0719L13896.8838,-3624.064L13896.7199,-3624.0543L13896.7159,-3624.0541L13896.6659,-3624.0538L13896.5285,-3624.054L13896.5013,-3624.055L13896.4061,-3624.0619L13896.3555,-3624.0652L13896.3304,-3624.0675L13896.2816,-3624.0725L13896.2227,-3624.0809L13896.1123,-3624.0964L13896.0054,-3624.1148L13895.9597,-3624.1232L13895.8629,-3624.1415L13895.7847,-3624.157L13895.7214,-3624.1661L13895.6757,-3624.173L13895.6259,-3624.1791L13895.6033,-3624.1819L13895.5637,-3624.185L13895.5078,-3624.1862"/>
<path content="1,西武バス（株）,富山線,2.0,2.0,2.0," xlink:title="1" d="M13899.9023,-3624.3673L13899.8294,-3624.3713L13899.7616,-3624.3736L13899.6819,-3624.3725L13899.5847,-3624.3714L13899.5631,-3624.3692L13899.5313,-3624.3664L13899.4416,-3624.3583L13899.37,-3624.3459L13899.3481,-3624.3425L13899.2886,-3624.3335L13899.2571,-3624.3277L13899.1682,-3624.3089L13899.1507,-3624.3056L13899.0792,-3624.2891L13899.0431,-3624.2786L13898.9507,-3624.2511L13898.9276,-3624.2434L13898.919,-3624.2407L13898.8748,-3624.2266L13898.7609,-3624.1888L13898.7491,-3624.1854L13898.7096,-3624.1716L13898.6286,-3624.1494L13898.577,-3624.1359L13898.5245,-3624.1254L13898.4643,-3624.1158L13898.4093,-3624.1082L13898.3456,-3624.1026L13898.3065,-3624.1001L13898.2602,-3624.098L13898.1959,-3624.0988L13898.1294,-3624.0996L13898.0869,-3624.1011L13898.0435,-3624.1031L13897.9741,-3624.1062L13897.9041,-3624.1119L13897.8394,-3624.1172L13897.7465,-3624.1225L13897.6947,-3624.1253L13897.5714,-3624.125L13897.5142,-3624.1237L13897.4289,-3624.1204L13897.3545,-3624.1144L13897.298,-3624.1095L13897.2107,-3624.0986L13897.1005,-3624.0871L13896.9691,-3624.0719L13896.8838,-3624.064L13896.7199,-3624.0543L13896.7159,-3624.0541L13896.6659,-3624.0538L13896.5285,-3624.054L13896.5013,-3624.055L13896.4061,-3624.0619L13896.3555,-3624.0652L13896.3304,-3624.0675L13896.2816,-3624.0725L13896.2227,-3624.0809L13896.1123,-3624.0964L13896.0054,-3624.1148L13895.9597,-3624.1232L13895.8629,-3624.1415L13895.7847,-3624.157L13895.7214,-3624.1661L13895.6757,-3624.173L13895.6259,-3624.1791L13895.6033,-3624.1819L13895.5637,-3624.185L13895.5078,-3624.1862"/>
<path content="1,西武バス（株）,氷見線,1.0,1.0,1.0," xlink:title="1" d="M13899.9023,-3624.3673L13899.8294,-3624.3713L13899.7616,-3624.3736L13899.6819,-3624.3725L13899.5847,-3624.3714L13899.5631,-3624.3692L13899.5313,-3624.3664L13899.4416,-3624.3583L13899.37,-3624.3459L13899.3481,-3624.3425L13899.2886,-3624.3335L13899.2571,-3624.3277L13899.1682,-3624.3089L13899.1507,-3624.3056L13899.0792,-3624.2891L13899.0431,-3624.2786L13898.9507,-3624.2511L13898.9276,-3624.2434L13898.919,-3624.2407L13898.8748,-3624.2266L13898.7609,-3624.1888L13898.7491,-3624.1854L13898.7096,-3624.1716L13898.6286,-3624.1494L13898.577,-3624.1359L13898.5245,-3624.1254L13898.4643,-3624.1158L13898.4093,-3624.1082L13898.3456,-3624.1026L13898.3065,-3624.1001L13898.2602,-3624.098L13898.1959,-3624.0988L13898.1294,-3624.0996L13898.0869,-3624.1011L13898.0435,-3624.1031L13897.9741,-3624.1062L13897.9041,-3624.1119L13897.8394,-3624.1172L13897.7465,-3624.1225L13897.6947,-3624.1253L13897.5714,-3624.125L13897.5142,-3624.1237L13897.4289,-3624.1204L13897.3545,-3624.1144L13897.298,-3624.1095L13897.2107,-3624.0986L13897.1005,-3624.0871L13896.9691,-3624.0719L13896.8838,-3624.064L13896.7199,-3624.0543L13896.7159,-3624.0541L13896.6659,-3624.0538L13896.5285,-3624.054L13896.5013,-3624.055L13896.4061,-3624.0619L13896.3555,-3624.0652L13896.3304,-3624.0675L13896.2816,-3624.0725L13896.2227,-3624.0809L13896.1123,-3624.0964L13896.0054,-3624.1148L13895.9597,-3624.1232L13895.8629,-3624.1415L13895.7847,-3624.157L13895.7214,-3624.1661L13895.6757,-3624.173L13895.6259,-3624.1791L13895.6033,-3624.1819L13895.5637,-3624.185L13895.5078,-3624.1862"/>
<path content="1,西武バス（株）,金沢線,2.0,2.0,2.0," xlink:title="1" d="M13899.9023,-3624.3673L13899.8294,-3624.3713L13899.7616,-3624.3736L13899.6819,-3624.3725L13899.5847,-3624.3714L13899.5631,-3624.3692L13899.5313,-3624.3664L13899.4416,-3624.3583L13899.37,-3624.3459L13899.3481,-3624.3425L13899.2886,-3624.3335L13899.2571,-3624.3277L13899.1682,-3624.3089L13899.1507,-3624.3056L13899.0792,-3624.2891L13899.0431,-3624.2786L13898.9507,-3624.2511L13898.9276,-3624.2434L13898.919,-3624.2407L13898.8748,-3624.2266L13898.7609,-3624.1888L13898.7491,-3624.1854L13898.7096,-3624.1716L13898.6286,-3624.1494L13898.577,-3624.1359L13898.5245,-3624.1254L13898.4643,-3624.1158L13898.4093,-3624.1082L13898.3456,-3624.1026L13898.3065,-3624.1001L13898.2602,-3624.098L13898.1959,-3624.0988L13898.1294,-3624.0996L13898.0869,-3624.1011L13898.0435,-3624.1031L13897.9741,-3624.1062L13897.9041,-3624.1119L13897.8394,-3624.1172L13897.7465,-3624.1225L13897.6947,-3624.1253L13897.5714,-3624.125L13897.5142,-3624.1237L13897.4289,-3624.1204L13897.3545,-3624.1144L13897.298,-3624.1095L13897.2107,-3624.0986L13897.1005,-3624.0871L13896.9691,-3624.0719L13896.8838,-3624.064L13896.7199,-3624.0543L13896.7159,-3624.0541L13896.6659,-3624.0538L13896.5285,-3624.054L13896.5013,-3624.055L13896.4061,-3624.0619L13896.3555,-3624.0652L13896.3304,-3624.0675L13896.2816,-3624.0725L13896.2227,-3624.0809L13896.1123,-3624.0964L13896.0054,-3624.1148L13895.9597,-3624.1232L13895.8629,-3624.1415L13895.7847,-3624.157L13895.7214,-3624.1661L13895.6757,-3624.173L13895.6259,-3624.1791L13895.6033,-3624.1819L13895.5637,-3624.185L13895.5078,-3624.1862"/>
<path content="1,西武バス（株）,長野線,3.0,3.0,3.0," xlink:title="1" d="M13899.9023,-3624.3673L13899.8294,-3624.3713L13899.7616,-3624.3736L13899.6819,-3624.3725L13899.5847,-3624.3714L13899.5631,-3624.3692L13899.5313,-3624.3664L13899.4416,-3624.3583L13899.37,-3624.3459L13899.3481,-3624.3425L13899.2886,-3624.3335L13899.2571,-3624.3277L13899.1682,-3624.3089L13899.1507,-3624.3056L13899.0792,-3624.2891L13899.0431,-3624.2786L13898.9507,-3624.2511L13898.9276,-3624.2434L13898.919,-3624.2407L13898.8748,-3624.2266L13898.7609,-3624.1888L13898.7491,-3624.1854L13898.7096,-3624.1716L13898.6286,-3624.1494L13898.577,-3624.1359L13898.5245,-3624.1254L13898.4643,-3624.1158L13898.4093,-3624.1082L13898.3456,-3624.1026L13898.3065,-3624.1001L13898.2602,-3624.098L13898.1959,-3624.0988L13898.1294,-3624.0996L13898.0869,-3624.1011L13898.0435,-3624.1031L13897.9741,-3624.1062L13897.9041,-3624.1119L13897.8394,-3624.1172L13897.7465,-3624.1225L13897.6947,-3624.1253L13897.5714,-3624.125L13897.5142,-3624.1237L13897.4289,-3624.1204L13897.3545,-3624.1144L13897.298,-3624.1095L13897.2107,-3624.0986L13897.1005,-3624.0871L13896.9691,-3624.0719L13896.8838,-3624.064L13896.7199,-3624.0543L13896.7159,-3624.0541L13896.6659,-3624.0538L13896.5285,-3624.054L13896.5013,-3624.055L13896.4061,-3624.0619L13896.3555,-3624.0652L13896.3304,-3624.0675L13896.2816,-3624.0725L13896.2227,-3624.0809L13896.1123,-3624.0964L13896.0054,-3624.1148L13895.9597,-3624.1232L13895.8629,-3624.1415L13895.7847,-3624.157L13895.7214,-3624.1661L13895.6757,-3624.173L13895.6259,-3624.1791L13895.6033,-3624.1819L13895.5637,-3624.185L13895.5078,-3624.1862"/>
<path content="1,西武高原バス（株）,高速上田線,2.0,2.0,2.0," xlink:title="1" d="M13899.9023,-3624.3673L13899.8294,-3624.3713L13899.7616,-3624.3736L13899.6819,-3624.3725L13899.5847,-3624.3714L13899.5631,-3624.3692L13899.5313,-3624.3664L13899.4416,-3624.3583L13899.37,-3624.3459L13899.3481,-3624.3425L13899.2886,-3624.3335L13899.2571,-3624.3277L13899.1682,-3624.3089L13899.1507,-3624.3056L13899.0792,-3624.2891L13899.0431,-3624.2786L13898.9507,-3624.2511L13898.9276,-3624.2434L13898.919,-3624.2407L13898.8748,-3624.2266L13898.7609,-3624.1888L13898.7491,-3624.1854L13898.7096,-3624.1716L13898.6286,-3624.1494L13898.577,-3624.1359L13898.5245,-3624.1254L13898.4643,-3624.1158L13898.4093,-3624.1082L13898.3456,-3624.1026L13898.3065,-3624.1001L13898.2602,-3624.098L13898.1959,-3624.0988L13898.1294,-3624.0996L13898.0869,-3624.1011L13898.0435,-3624.1031L13897.9741,-3624.1062L13897.8394,-3624.1172L13897.7465,-3624.1225L13897.6947,-3624.1253L13897.5714,-3624.125L13897.5142,-3624.1237L13897.4289,-3624.1204L13897.3545,-3624.1144L13897.298,-3624.1095L13897.2107,-3624.0986L13897.1005,-3624.0871L13896.9691,-3624.0719L13896.8838,-3624.064L13896.7199,-3624.0543L13896.7159,-3624.0541L13896.6659,-3624.0538L13896.5285,-3624.054L13896.5013,-3624.055L13896.4061,-3624.0619L13896.3555,-3624.0652L13896.3304,-3624.0675L13896.2816,-3624.0725L13896.2227,-3624.0809L13896.1123,-3624.0964L13896.0054,-3624.1148L13895.9597,-3624.1232L13895.8629,-3624.1415L13895.7847,-3624.157L13895.7214,-3624.1661L13895.6757,-3624.173L13895.6259,-3624.1791L13895.6033,-3624.1819L13895.5637,-3624.185L13895.5078,-3624.1862"/>
<path content="1,西武高原バス（株）,高速佐久線,3.0,3.0,3.0," xlink:title="1" d="M13899.9023,-3624.3673L13899.8294,-3624.3713L13899.7616,-3624.3736L13899.6819,-3624.3725L13899.5847,-3624.3714L13899.5631,-3624.3692L13899.5313,-3624.3664L13899.4416,-3624.3583L13899.37,-3624.3459L13899.3481,-3624.3425L13899.2886,-3624.3335L13899.2571,-3624.3277L13899.1682,-3624.3089L13899.1507,-3624.3056L13899.0792,-3624.2891L13899.0431,-3624.2786L13898.9507,-3624.2511L13898.9276,-3624.2434L13898.919,-3624.2407L13898.8748,-3624.2266L13898.7609,-3624.1888L13898.7491,-3624.1854L13898.7096,-3624.1716L13898.6286,-3624.1494L13898.577,-3624.1359L13898.5245,-3624.1254L13898.4643,-3624.1158L13898.4093,-3624.1082L13898.3456,-3624.1026L13898.3065,-3624.1001L13898.2602,-3624.098L13898.1959,-3624.0988L13898.1294,-3624.0996L13898.0869,-3624.1011L13898.0435,-3624.1031L13897.9741,-3624.1062L13897.8394,-3624.1172L13897.7465,-3624.1225L13897.6947,-3624.1253L13897.5714,-3624.125L13897.5142,-3624.1237L13897.4289,-3624.1204L13897.3545,-3624.1144L13897.298,-3624.1095L13897.2107,-3624.0986L13897.1005,-3624.0871L13896.9691,-3624.0719L13896.8838,-3624.064L13896.7199,-3624.0543L13896.7159,-3624.0541L13896.6659,-3624.0538L13896.5285,-3624.054L13896.5013,-3624.055L13896.4061,-3624.0619L13896.3555,-3624.0652L13896.3304,-3624.0675L13896.2816,-3624.0725L13896.2227,-3624.0809L13896.1123,-3624.0964L13896.0054,-3624.1148L13895.9597,-3624.1232L13895.8629,-3624.1415L13895.7847,-3624.157L13895.7214,-3624.1661L13895.6757,-3624.173L13895.6259,-3624.1791L13895.6033,-3624.1819L13895.5637,-3624.185L13895.5078,-3624.1862"/>
<path content="1,西武高原バス（株）,高速小諸線,1.0,1.0,1.0," xlink:title="1" d="M13899.9023,-3624.3673L13899.8294,-3624.3713L13899.7616,-3624.3736L13899.6819,-3624.3725L13899.5847,-3624.3714L13899.5631,-3624.3692L13899.5313,-3624.3664L13899.4416,-3624.3583L13899.37,-3624.3459L13899.3481,-3624.3425L13899.2886,-3624.3335L13899.2571,-3624.3277L13899.1682,-3624.3089L13899.1507,-3624.3056L13899.0792,-3624.2891L13899.0431,-3624.2786L13898.9507,-3624.2511L13898.9276,-3624.2434L13898.919,-3624.2407L13898.8748,-3624.2266L13898.7609,-3624.1888L13898.7491,-3624.1854L13898.7096,-3624.1716L13898.6286,-3624.1494L13898.577,-3624.1359L13898.5245,-3624.1254L13898.4643,-3624.1158L13898.4093,-3624.1082L13898.3456,-3624.1026L13898.3065,-3624.1001L13898.2602,-3624.098L13898.1959,-3624.0988L13898.1294,-3624.0996L13898.0869,-3624.1011L13898.0435,-3624.1031L13897.9741,-3624.1062L13897.8394,-3624.1172L13897.7465,-3624.1225L13897.6947,-3624.1253L13897.5714,-3624.125L13897.5142,-3624.1237L13897.4289,-3624.1204L13897.3545,-3624.1144L13897.298,-3624.1095L13897.2107,-3624.0986L13897.1005,-3624.0871L13896.9691,-3624.0719L13896.8838,-3624.064L13896.7199,-3624.0543L13896.7159,-3624.0541L13896.6659,-3624.0538L13896.5285,-3624.054L13896.5013,-3624.055L13896.4061,-3624.0619L13896.3555,-3624.0652L13896.3304,-3624.0675L13896.2816,-3624.0725L13896.2227,-3624.0809L13896.1123,-3624.0964L13896.0054,-3624.1148L13895.9597,-3624.1232L13895.8629,-3624.1415L13895.7847,-3624.157L13895.7214,-3624.1661L13895.6757,-3624.173L13895.6259,-3624.1791L13895.6033,-3624.1819L13895.5637,-3624.185L13895.5078,-3624.1862"/>
<path content="1,西武高原バス（株）,高速軽井沢線,5.0,5.0,5.0," xlink:title="1" d="M13899.9023,-3624.3673L13899.8294,-3624.3713L13899.7616,-3624.3736L13899.6819,-3624.3725L13899.5847,-3624.3714L13899.5631,-3624.3692L13899.5313,-3624.3664L13899.4416,-3624.3583L13899.37,-3624.3459L13899.3481,-3624.3425L13899.2886,-3624.3335L13899.2571,-3624.3277L13899.1682,-3624.3089L13899.1507,-3624.3056L13899.0792,-3624.2891L13899.0431,-3624.2786L13898.9507,-3624.2511L13898.9276,-3624.2434L13898.919,-3624.2407L13898.8748,-3624.2266L13898.7609,-3624.1888L13898.7491,-3624.1854L13898.7096,-3624.1716L13898.6286,-3624.1494L13898.577,-3624.1359L13898.5245,-3624.1254L13898.4643,-3624.1158L13898.4093,-3624.1082L13898.3456,-3624.1026L13898.3065,-3624.1001L13898.2602,-3624.098L13898.1959,-3624.0988L13898.1294,-3624.0996L13898.0869,-3624.1011L13898.0435,-3624.1031L13897.9741,-3624.1062L13897.8394,-3624.1172L13897.7465,-3624.1225L13897.6947,-3624.1253L13897.5714,-3624.125L13897.5142,-3624.1237L13897.4289,-3624.1204L13897.3545,-3624.1144L13897.298,-3624.1095L13897.2107,-3624.0986L13897.1005,-3624.0871L13896.9691,-3624.0719L13896.8838,-3624.064L13896.7199,-3624.0543L13896.7159,-3624.0541L13896.6659,-3624.0538L13896.5285,-3624.054L13896.5013,-3624.055L13896.4061,-3624.0619L13896.3555,-3624.0652L13896.3304,-3624.0675L13896.2816,-3624.0725L13896.2227,-3624.0809L13896.1123,-3624.0964L13896.0054,-3624.1148L13895.9597,-3624.1232L13895.8629,-3624.1415L13895.7847,-3624.157L13895.7214,-3624.1661L13895.6757,-3624.173L13895.6259,-3624.1791L13895.6033,-3624.1819L13895.5637,-3624.185L13895.5078,-3624.1862"/>
<path content="1,長電バス（株）,長野～池袋線,6.0,6.0,6.0," xlink:title="1" d="M13895.5078,-3624.1862L13895.5637,-3624.185L13895.6033,-3624.1819L13895.6259,-3624.1791L13895.6757,-3624.173L13895.7214,-3624.1661L13895.7847,-3624.157L13895.8629,-3624.1415L13895.9597,-3624.1232L13896.0054,-3624.1148L13896.1123,-3624.0964L13896.2227,-3624.0809L13896.2816,-3624.0725L13896.3304,-3624.0675L13896.3555,-3624.0652L13896.4061,-3624.0619L13896.5013,-3624.055L13896.5285,-3624.054L13896.6659,-3624.0538L13896.7159,-3624.0541L13896.7199,-3624.0543L13896.8838,-3624.064L13896.9691,-3624.0719L13897.1005,-3624.0871L13897.2107,-3624.0986L13897.298,-3624.1095L13897.3545,-3624.1144L13897.4289,-3624.1204L13897.5142,-3624.1237L13897.5714,-3624.125L13897.6947,-3624.1253L13897.7465,-3624.1225L13897.8394,-3624.1172L13897.9741,-3624.1062L13898.0435,-3624.1031L13898.0869,-3624.1011L13898.1294,-3624.0996L13898.1959,-3624.0988L13898.2602,-3624.098L13898.3065,-3624.1001L13898.3456,-3624.1026L13898.4093,-3624.1082L13898.4643,-3624.1158L13898.5245,-3624.1254L13898.577,-3624.1359L13898.6286,-3624.1494L13898.7096,-3624.1716L13898.7491,-3624.1854L13898.7609,-3624.1888L13898.8748,-3624.2266L13898.919,-3624.2407L13898.9276,-3624.2434L13898.9507,-3624.2511L13899.0431,-3624.2786L13899.0792,-3624.2891L13899.1507,-3624.3056L13899.1682,-3624.3089L13899.2571,-3624.3277L13899.2886,-3624.3335L13899.3481,-3624.3425L13899.37,-3624.3459L13899.4416,-3624.3583L13899.5313,-3624.3664L13899.5631,-3624.3692L13899.5847,-3624.3714L13899.6819,-3624.3725L13899.7616,-3624.3736L13899.8294,-3624.3713L13899.9023,-3624.3673"/>
<path content="3,高崎市,5　よしいバス　吉井・藤岡線,6.0,6.0,0.0," xlink:title="3" d="M13899.9023,-3625.4622L13899.7681,-3625.433L13899.741,-3625.4263L13899.7194,-3625.422L13899.6819,-3625.4118L13899.6582,-3625.4032L13899.6353,-3625.3947L13899.6172,-3625.3885L13899.5949,-3625.3795L13899.5817,-3625.3744L13899.5351,-3625.3576L13899.5226,-3625.3542L13899.4642,-3625.335L13899.4496,-3625.3322L13899.4489,-3625.3322L13899.4079,-3625.3283L13899.3523,-3625.3243L13899.3365,-3625.3225L13899.3194,-3625.3203L13899.3092,-3625.318L13899.2983,-3625.3147L13899.2892,-3625.3117L13899.2694,-3625.3023L13899.2213,-3625.2747L13899.1956,-3625.2669L13899.0769,-3625.2567L13899.0484,-3625.2539L13898.9907,-3625.2483"/>
<path content="3,高崎市,5　よしいバス　吉井・藤岡線,6.0,6.0,0.0," xlink:title="3" d="M13898.9907,-3625.2483L13898.9712,-3625.246L13898.9581,-3625.2455L13898.9407,-3625.2432L13898.8566,-3625.2353L13898.8254,-3625.2325L13898.8087,-3625.2303L13898.7879,-3625.2291L13898.7511,-3625.2252L13898.742,-3625.2252L13898.6962,-3625.2207L13898.5823,-3625.2106L13898.5813,-3625.2901"/>
<path content="3,高崎市,5　よしいバス　吉井・藤岡線,6.0,6.0,0.0," xlink:title="3" d="M13898.9907,-3625.2483L13898.9944,-3625.3147L13898.9955,-3625.3271L13898.9948,-3625.3711L13898.9441,-3625.3615L13898.9054,-3625.3524L13898.853,-3625.3446L13898.8428,-3625.344L13898.8078,-3625.3367L13898.8008,-3625.3362L13898.7869,-3625.3334L13898.7706,-3625.3312L13898.7584,-3625.3288"/>
<path content="3,高崎市,5　よしいバス　吉井・藤岡線,6.0,6.0,0.0," xlink:title="3" d="M13898.5813,-3625.2901L13898.5769,-3625.3147L13898.5763,-3625.326L13898.5658,-3625.3756L13898.5616,-3625.3964L13898.5583,-3625.412L13898.5561,-3625.4201L13898.5519,-3625.4409L13898.5443,-3625.4522L13898.5234,-3625.4798L13898.5173,-3625.4883"/>
<path content="3,高崎市,5　よしいバス　吉井・藤岡線,6.0,6.0,0.0," xlink:title="3" d="M13898.7584,-3625.3288L13898.7209,-3625.3215L13898.7153,-3625.3209L13898.7005,-3625.3147L13898.6906,-3625.3057L13898.6848,-3625.3016L13898.6774,-3625.2973L13898.6729,-3625.2956L13898.6677,-3625.2945L13898.6483,-3625.2933L13898.6441,-3625.2922L13898.5813,-3625.2901"/>
<path content="3,高崎市,5　よしいバス　吉井・藤岡線,6.0,6.0,0.0," xlink:title="3" d="M13898.7093,-3625.4883L13898.7181,-3625.4431L13898.7195,-3625.4369L13898.732,-3625.411L13898.7584,-3625.3288"/>
<path content="3,高崎市,よしいバス南陽台・馬庭線,6.0,6.0,0.0," xlink:title="3" d="M13898.3719,-3623.3386L13898.3858,-3623.3352L13898.3962,-3623.3256L13898.4045,-3623.3132L13898.4141,-3623.2836"/>
<path content="3,高崎市,よしいバス南陽台・馬庭線,6.0,6.0,0.0," xlink:title="3" d="M13898.3719,-3623.3386L13898.3455,-3623.3391L13898.3371,-3623.3374L13898.3221,-3623.3343L13898.2746,-3623.3245L13898.2621,-3623.3211L13898.2399,-3623.3211L13898.1607,-3623.3321L13898.1267,-3623.3312L13898.0982,-3623.3273L13898.0683,-3623.3205L13898.0371,-3623.3115L13898.0148,-3623.3031L13897.9969,-3623.2963L13897.981,-3623.2909L13897.9693,-3623.2865L13897.9496,-3623.2798L13897.9308,-3623.2765L13897.9181,-3623.2761L13897.9026,-3623.2781L13897.8892,-3623.2819L13897.8794,-3623.2861L13897.8693,-3623.2911L13897.8599,-3623.2969L13897.8155,-3623.3284L13897.7814,-3623.356L13897.7578,-3623.3791L13897.7453,-3623.3931L13897.7356,-3623.4089L13897.7245,-3623.4269L13897.7175,-3623.4399L13897.6927,-3623.4929L13897.6821,-3623.5131L13897.6758,-3623.5227L13897.6897,-3623.5362L13897.7675,-3623.6038L13897.7724,-3623.6111L13897.78,-3623.6269L13897.7828,-3623.6409L13897.7858,-3623.6777L13897.7883,-3623.6928L13897.7973,-3623.7853L13897.8009,-3623.8296L13897.805,-3623.8623L13897.8057,-3623.8747L13897.8073,-3623.8823L13897.8189,-3623.9389L13897.8321,-3623.9913L13897.846,-3624.016L13897.8759,-3624.0653L13897.8824,-3624.0763L13897.8891,-3624.0849L13897.9041,-3624.1119L13897.9177,-3624.1363L13897.9288,-3624.1514L13897.9294,-3624.1598L13897.9412,-3624.1811L13897.9551,-3624.216L13897.9696,-3624.2537L13897.9884,-3624.3044L13897.9995,-3624.328L13898.0127,-3624.3438L13898.0218,-3624.3517L13898.0481,-3624.3787L13898.0523,-3624.3878L13898.0585,-3624.4001L13898.0634,-3624.4137L13898.0808,-3624.4728L13898.0856,-3624.493L13898.0955,-3624.5024L13898.0994,-3624.5087L13898.1072,-3624.5167L13898.1475,-3624.5511L13898.2169,-3624.6113L13898.2302,-3624.6223L13898.2509,-3624.6406L13898.2732,-3624.6682L13898.2794,-3624.6761L13898.3635,-3624.7865L13898.4065,-3624.8434L13898.4239,-3624.8608L13898.4585,-3624.8924L13898.567,-3624.9915L13898.5768,-3624.9988L13898.5844,-3625.0163L13898.5864,-3625.023L13898.5858,-3625.1159L13898.5851,-3625.1429L13898.5823,-3625.2106L13898.5813,-3625.2901"/>
<path content="3,高崎市,よしいバス南陽台・馬庭線,6.0,6.0,0.0," xlink:title="3" d="M13898.4578,-3623.3586L13898.4229,-3623.3526L13898.4047,-3623.3471L13898.3719,-3623.3386"/>
<path content="3,高崎市,よしいバス南陽台・馬庭線,6.0,6.0,0.0," xlink:title="3" d="M13898.5813,-3625.2901L13898.6441,-3625.2922L13898.6483,-3625.2933L13898.6677,-3625.2945L13898.6729,-3625.2956L13898.6774,-3625.2973L13898.6848,-3625.3016L13898.6906,-3625.3057L13898.7005,-3625.3147L13898.7153,-3625.3209L13898.7209,-3625.3215L13898.7584,-3625.3288"/>
<path content="3,高崎市,よしいバス南陽台・馬庭線,6.0,6.0,0.0," xlink:title="3" d="M13898.5813,-3625.2901L13898.5769,-3625.3147L13898.5763,-3625.326L13898.5658,-3625.3756L13898.5616,-3625.3964L13898.5583,-3625.412L13898.5561,-3625.4201L13898.5519,-3625.4409L13898.5443,-3625.4522L13898.5234,-3625.4798L13898.5173,-3625.4883"/>
<path content="3,高崎市,よしいバス南陽台・馬庭線,6.0,6.0,0.0," xlink:title="3" d="M13898.7584,-3625.3288L13898.732,-3625.411L13898.7195,-3625.4369L13898.7181,-3625.4431L13898.7093,-3625.4883"/>
<path content="3,高崎市,よしいバス南陽台・馬庭線,6.0,6.0,0.0," xlink:title="3" d="M13898.7584,-3625.3288L13898.7706,-3625.3312L13898.7869,-3625.3334L13898.8008,-3625.3362L13898.8078,-3625.3367L13898.8428,-3625.344L13898.853,-3625.3446L13898.9054,-3625.3524L13898.9441,-3625.3615L13898.9948,-3625.3711L13898.9962,-3625.4543L13898.9963,-3625.4785L13898.9962,-3625.4883"/>
<path content="3,高崎市,よしいバス吉井・藤岡線,6.0,6.0,0.0," xlink:title="3" d="M13898.3719,-3623.3386L13898.3858,-3623.3352L13898.3962,-3623.3256L13898.4045,-3623.3132L13898.4141,-3623.2836"/>
<path content="3,高崎市,よしいバス吉井・藤岡線,6.0,6.0,0.0," xlink:title="3" d="M13898.3719,-3623.3386L13898.4047,-3623.3471L13898.4229,-3623.3526L13898.4578,-3623.3586"/>
<path content="3,高崎市,よしいバス吉井・藤岡線,6.0,6.0,0.0," xlink:title="3" d="M13899.9023,-3625.4622L13899.7681,-3625.433L13899.741,-3625.4263L13899.7194,-3625.422L13899.6819,-3625.4118L13899.6582,-3625.4032L13899.6353,-3625.3947L13899.6172,-3625.3885L13899.5949,-3625.3795L13899.5817,-3625.3744L13899.5351,-3625.3576L13899.5226,-3625.3542L13899.4642,-3625.335L13899.4496,-3625.3322L13899.4489,-3625.3322L13899.4079,-3625.3283L13899.3523,-3625.3243L13899.3365,-3625.3225L13899.3194,-3625.3203L13899.3092,-3625.318L13899.2983,-3625.3147L13899.2892,-3625.3117L13899.2694,-3625.3023L13899.2213,-3625.2747L13899.1956,-3625.2669L13899.0769,-3625.2567L13899.0484,-3625.2539L13898.9907,-3625.2483L13898.9944,-3625.3147L13898.9955,-3625.3271L13898.9948,-3625.3711L13898.9441,-3625.3615L13898.9054,-3625.3524L13898.853,-3625.3446L13898.8428,-3625.344L13898.8078,-3625.3367L13898.8008,-3625.3362L13898.7869,-3625.3334L13898.7706,-3625.3312L13898.7584,-3625.3288"/>
<path content="3,高崎市,よしいバス吉井・藤岡線,6.0,6.0,0.0," xlink:title="3" d="M13898.5813,-3625.2901L13898.5823,-3625.2106L13898.5851,-3625.1429L13898.5858,-3625.1159L13898.5864,-3625.023L13898.5844,-3625.0163L13898.5768,-3624.9988L13898.567,-3624.9915L13898.4585,-3624.8924L13898.4239,-3624.8608L13898.4065,-3624.8434L13898.3635,-3624.7865L13898.2794,-3624.6761L13898.2732,-3624.6682L13898.2509,-3624.6406L13898.2302,-3624.6223L13898.2169,-3624.6113L13898.1475,-3624.5511L13898.1072,-3624.5167L13898.0994,-3624.5087L13898.0955,-3624.5024L13898.0856,-3624.493L13898.0808,-3624.4728L13898.0634,-3624.4137L13898.0585,-3624.4001L13898.0523,-3624.3878L13898.0481,-3624.3787L13898.0218,-3624.3517L13898.0127,-3624.3438L13897.9995,-3624.328L13897.9884,-3624.3044L13897.9696,-3624.2537L13897.9551,-3624.216L13897.9412,-3624.1811L13897.9294,-3624.1598L13897.9288,-3624.1514L13897.9177,-3624.1363L13897.9041,-3624.1119L13897.8891,-3624.0849L13897.8824,-3624.0763L13897.8759,-3624.0653L13897.846,-3624.016L13897.8321,-3623.9913L13897.8189,-3623.9389L13897.8073,-3623.8823L13897.8057,-3623.8747L13897.805,-3623.8623L13897.8009,-3623.8296L13897.7973,-3623.7853L13897.7883,-3623.6928L13897.7858,-3623.6777L13897.7828,-3623.6409L13897.78,-3623.6269L13897.7724,-3623.6111L13897.7675,-3623.6038L13897.6897,-3623.5362L13897.6758,-3623.5227L13897.6821,-3623.5131L13897.6927,-3623.4929L13897.7175,-3623.4399L13897.7245,-3623.4269L13897.7356,-3623.4089L13897.7453,-3623.3931L13897.7578,-3623.3791L13897.7814,-3623.356L13897.8155,-3623.3284L13897.8599,-3623.2969L13897.8693,-3623.2911L13897.8794,-3623.2861L13897.8892,-3623.2819L13897.9026,-3623.2781L13897.9181,-3623.2761L13897.9308,-3623.2765L13897.9496,-3623.2798L13897.9693,-3623.2865L13897.981,-3623.2909L13897.9969,-3623.2963L13898.0148,-3623.3031L13898.0371,-3623.3115L13898.0683,-3623.3205L13898.0982,-3623.3273L13898.1267,-3623.3312L13898.1607,-3623.3321L13898.2399,-3623.3211L13898.2621,-3623.3211L13898.2746,-3623.3245L13898.3221,-3623.3343L13898.3371,-3623.3374L13898.3455,-3623.3391L13898.3719,-3623.3386"/>
<path content="3,高崎市,よしいバス吉井・藤岡線,6.0,6.0,0.0," xlink:title="3" d="M13898.5813,-3625.2901L13898.5769,-3625.3147L13898.5763,-3625.326L13898.5658,-3625.3756L13898.5616,-3625.3964L13898.5583,-3625.412L13898.5561,-3625.4201L13898.5519,-3625.4409L13898.5443,-3625.4522"/>
<path content="3,高崎市,よしいバス吉井・藤岡線,6.0,6.0,0.0," xlink:title="3" d="M13898.7584,-3625.3288L13898.7209,-3625.3215L13898.7153,-3625.3209L13898.7005,-3625.3147L13898.6906,-3625.3057L13898.6848,-3625.3016L13898.6774,-3625.2973L13898.6729,-3625.2956L13898.6677,-3625.2945L13898.6483,-3625.2933L13898.6441,-3625.2922L13898.5813,-3625.2901"/>
<path content="3,高崎市,よしいバス吉井・藤岡線,6.0,6.0,0.0," xlink:title="3" d="M13898.7584,-3625.3288L13898.732,-3625.411L13898.7195,-3625.4369L13898.7181,-3625.4431L13898.7093,-3625.4883M13898.6914,-3625.4883L13898.6291,-3625.4781L13898.5971,-3625.4691L13898.5693,-3625.4589L13898.5443,-3625.4522"/>
<path content="3,高崎市,よしいバス吉井・藤岡線,6.0,6.0,0.0," xlink:title="3" d="M13898.5443,-3625.4522L13898.5234,-3625.4798L13898.5173,-3625.4883"/>
<path content="3,高崎市,よしいバス坂口・奥平線,6.0,6.0,0.0," xlink:title="3" d="M13898.3719,-3623.3386L13898.3858,-3623.3352L13898.3962,-3623.3256L13898.4045,-3623.3132L13898.4141,-3623.2836"/>
<path content="3,高崎市,よしいバス坂口・奥平線,6.0,6.0,0.0," xlink:title="3" d="M13898.3719,-3623.3386L13898.3455,-3623.3391L13898.3371,-3623.3374L13898.3221,-3623.3343L13898.2746,-3623.3245L13898.2621,-3623.3211L13898.2399,-3623.3211L13898.1607,-3623.3321L13898.1267,-3623.3312L13898.0982,-3623.3273L13898.0683,-3623.3205L13898.0371,-3623.3115L13898.0148,-3623.3031L13897.9969,-3623.2963L13897.981,-3623.2909L13897.9693,-3623.2865L13897.9496,-3623.2798L13897.9308,-3623.2765L13897.9181,-3623.2761L13897.9026,-3623.2781L13897.8892,-3623.2819L13897.8794,-3623.2861L13897.8693,-3623.2911L13897.8599,-3623.2969L13897.8155,-3623.3284L13897.7814,-3623.356L13897.7578,-3623.3791L13897.7453,-3623.3931L13897.7356,-3623.4089L13897.7245,-3623.4269L13897.7175,-3623.4399L13897.6927,-3623.4929L13897.6821,-3623.5131L13897.6758,-3623.5227L13897.6897,-3623.5362L13897.7675,-3623.6038L13897.7724,-3623.6111L13897.78,-3623.6269L13897.7828,-3623.6409L13897.7858,-3623.6777L13897.7883,-3623.6928L13897.7973,-3623.7853L13897.8009,-3623.8296L13897.805,-3623.8623L13897.8057,-3623.8747L13897.8073,-3623.8823L13897.8189,-3623.9389L13897.8321,-3623.9913L13897.846,-3624.016L13897.8759,-3624.0653L13897.8824,-3624.0763L13897.8891,-3624.0849L13897.9041,-3624.1119L13897.9177,-3624.1363L13897.9288,-3624.1514L13897.9294,-3624.1598L13897.9412,-3624.1811L13897.9551,-3624.216L13897.9696,-3624.2537L13897.9884,-3624.3044L13897.9995,-3624.328L13898.0127,-3624.3438L13898.0218,-3624.3517L13898.0481,-3624.3787L13898.0523,-3624.3878L13898.0585,-3624.4001L13898.0634,-3624.4137L13898.0808,-3624.4728L13898.0856,-3624.493L13898.0955,-3624.5024L13898.0994,-3624.5087L13898.1072,-3624.5167L13898.1475,-3624.5511L13898.2169,-3624.6113L13898.2302,-3624.6223L13898.2509,-3624.6406L13898.2732,-3624.6682L13898.2794,-3624.6761L13898.3635,-3624.7865L13898.4065,-3624.8434L13898.4239,-3624.8608L13898.4585,-3624.8924L13898.567,-3624.9915L13898.5768,-3624.9988L13898.5844,-3625.0163L13898.5864,-3625.023L13898.5858,-3625.1159L13898.5851,-3625.1429L13898.5823,-3625.2106L13898.5813,-3625.2901L13898.6441,-3625.2922L13898.6483,-3625.2933L13898.6677,-3625.2945L13898.6729,-3625.2956L13898.6774,-3625.2973L13898.6848,-3625.3016L13898.6906,-3625.3057L13898.7005,-3625.3147L13898.7153,-3625.3209L13898.7209,-3625.3215L13898.7584,-3625.3288"/>
<path content="3,高崎市,よしいバス坂口・奥平線,6.0,6.0,0.0," xlink:title="3" d="M13898.4578,-3623.3586L13898.4229,-3623.3526L13898.4047,-3623.3471L13898.3719,-3623.3386"/>
<path content="3,高崎市,よしいバス坂口・奥平線,6.0,6.0,0.0," xlink:title="3" d="M13898.7584,-3625.3288L13898.732,-3625.411L13898.7195,-3625.4369L13898.7181,-3625.4431L13898.7093,-3625.4883"/>
<path content="3,高崎市,よしいバス坂口・奥平線,6.0,6.0,0.0," xlink:title="3" d="M13898.7584,-3625.3288L13898.7706,-3625.3312L13898.7869,-3625.3334L13898.8008,-3625.3362L13898.8078,-3625.3367L13898.8428,-3625.344L13898.853,-3625.3446L13898.9054,-3625.3524L13898.9441,-3625.3615L13898.9948,-3625.3711L13898.9962,-3625.4543L13898.9963,-3625.4785L13898.9962,-3625.4883"/>
<path content="3,高崎市,よしいバス多比良・小串線,6.1,6.0,0.0," xlink:title="3" d="M13898.3719,-3623.3386L13898.3858,-3623.3352L13898.3962,-3623.3256L13898.4045,-3623.3132L13898.4141,-3623.2836L13898.4191,-3623.2518L13898.4233,-3623.2411L13898.4288,-3623.2349L13898.4351,-3623.2304L13898.4546,-3623.2253L13898.4969,-3623.2214L13898.5122,-3623.2208L13898.5191,-3623.2197L13898.5344,-3623.2191L13898.5705,-3623.2152L13898.6025,-3623.2135L13898.6553,-3623.2085L13898.7116,-3623.1961L13898.7366,-3623.1887L13898.7484,-3623.1842L13898.7775,-3623.1657L13898.8192,-3623.1364L13898.822,-3623.1352L13898.8269,-3623.1324L13898.8886,-3623.1093L13898.9387,-3623.0919L13898.9589,-3623.0885L13898.9894,-3623.0891L13899.004,-3623.0913L13899.0394,-3623.1009L13899.0693,-3623.1116L13899.1082,-3623.1302L13899.1589,-3623.1499L13899.1685,-3623.1516L13899.1742,-3623.1544L13899.1832,-3623.1572L13899.2291,-3623.1792L13899.2444,-3623.1893L13899.2568,-3623.2011L13899.2811,-3623.2316L13899.3062,-3623.2563L13899.3235,-3623.2682L13899.4013,-3623.2997L13899.4138,-3623.307L13899.4375,-3623.3233L13899.4638,-3623.3476L13899.4881,-3623.3656L13899.502,-3623.378L13899.5083,-3623.3853L13899.5291,-3623.4298L13899.5437,-3623.4512L13899.5673,-3623.4844L13899.5771,-3623.5036L13899.5833,-3623.5216L13899.584,-3623.5503L13899.5764,-3623.5801L13899.5673,-3623.5954L13899.5652,-3623.6066L13899.5645,-3623.6308L13899.5681,-3623.7727L13899.573,-3623.8236L13899.6044,-3623.8886L13899.7149,-3624.0178L13899.7688,-3624.0735L13899.7722,-3624.1207L13899.824,-3624.1849L13899.8402,-3624.1656L13899.8932,-3624.1383L13899.8987,-3624.1237L13899.9023,-3624.0998"/>
<path content="3,高崎市,よしいバス多比良・小串線,6.1,6.0,0.0," xlink:title="3" d="M13898.3719,-3623.3386L13898.3455,-3623.3391L13898.3371,-3623.3374L13898.3221,-3623.3343L13898.2746,-3623.3245L13898.2621,-3623.3211L13898.2399,-3623.3211L13898.1607,-3623.3321L13898.1267,-3623.3312L13898.0982,-3623.3273L13898.0683,-3623.3205L13898.0371,-3623.3115L13898.0148,-3623.3031L13897.9969,-3623.2963L13897.981,-3623.2909L13897.9693,-3623.2865L13897.9496,-3623.2798L13897.9308,-3623.2765L13897.9181,-3623.2761L13897.9026,-3623.2781L13897.8892,-3623.2819L13897.8794,-3623.2861L13897.8693,-3623.2911L13897.8599,-3623.2969L13897.8155,-3623.3284L13897.7814,-3623.356L13897.7578,-3623.3791L13897.7453,-3623.3931L13897.7356,-3623.4089L13897.7245,-3623.4269L13897.7175,-3623.4399L13897.6927,-3623.4929L13897.6821,-3623.5131L13897.6758,-3623.5227L13897.6897,-3623.5362L13897.7675,-3623.6038L13897.7724,-3623.6111L13897.78,-3623.6269L13897.7828,-3623.6409L13897.7858,-3623.6777L13897.7883,-3623.6928L13897.7973,-3623.7853L13897.8009,-3623.8296L13897.805,-3623.8623L13897.8057,-3623.8747L13897.8073,-3623.8823L13897.8189,-3623.9389L13897.8321,-3623.9913L13897.846,-3624.016L13897.8759,-3624.0653L13897.8824,-3624.0763L13897.8891,-3624.0849L13897.9041,-3624.1119L13897.9177,-3624.1363L13897.9288,-3624.1514L13897.9294,-3624.1598L13897.9412,-3624.1811L13897.9551,-3624.216L13897.9696,-3624.2537L13897.9884,-3624.3044L13897.9995,-3624.328L13898.0127,-3624.3438L13898.0218,-3624.3517L13898.0481,-3624.3787L13898.0523,-3624.3878L13898.0585,-3624.4001L13898.0634,-3624.4137L13898.0808,-3624.4728L13898.0856,-3624.493L13898.0955,-3624.5024L13898.0994,-3624.5087L13898.1072,-3624.5167L13898.1475,-3624.5511L13898.2169,-3624.6113L13898.2302,-3624.6223L13898.2509,-3624.6406L13898.2732,-3624.6682L13898.2794,-3624.6761L13898.3635,-3624.7865L13898.4065,-3624.8434L13898.4239,-3624.8608L13898.4585,-3624.8924L13898.567,-3624.9915L13898.5768,-3624.9988L13898.5844,-3625.0163L13898.5864,-3625.023L13898.5858,-3625.1159L13898.5851,-3625.1429L13898.5823,-3625.2106L13898.5813,-3625.2901L13898.6441,-3625.2922L13898.6483,-3625.2933L13898.6677,-3625.2945L13898.6729,-3625.2956L13898.6774,-3625.2973L13898.6848,-3625.3016L13898.6906,-3625.3057L13898.7005,-3625.3147L13898.7153,-3625.3209L13898.7209,-3625.3215L13898.7584,-3625.3288"/>
<path content="3,高崎市,よしいバス多比良・小串線,6.1,6.0,0.0," xlink:title="3" d="M13898.4578,-3623.3586L13898.4229,-3623.3526L13898.4047,-3623.3471L13898.3719,-3623.3386"/>
<path content="3,高崎市,よしいバス多比良・小串線,6.1,6.0,0.0," xlink:title="3" d="M13898.7584,-3625.3288L13898.7706,-3625.3312L13898.7869,-3625.3334L13898.8008,-3625.3362L13898.8078,-3625.3367L13898.8428,-3625.344L13898.853,-3625.3446L13898.9054,-3625.3524L13898.9441,-3625.3615L13898.9948,-3625.3711L13898.9955,-3625.3271L13898.9944,-3625.3147L13898.9907,-3625.2483L13899.0484,-3625.2539L13899.0769,-3625.2567L13899.1956,-3625.2669L13899.2213,-3625.2747L13899.2694,-3625.3023L13899.2892,-3625.3117L13899.2983,-3625.3147L13899.3092,-3625.318L13899.3194,-3625.3203L13899.3365,-3625.3225L13899.3523,-3625.3243L13899.4079,-3625.3283L13899.4489,-3625.3322L13899.4496,-3625.3322L13899.4642,-3625.335L13899.5226,-3625.3542L13899.5351,-3625.3576L13899.5817,-3625.3744L13899.5949,-3625.3795L13899.6172,-3625.3885L13899.6353,-3625.3947L13899.6582,-3625.4032L13899.6819,-3625.4118L13899.7194,-3625.422L13899.741,-3625.4263L13899.7681,-3625.433L13899.9023,-3625.4622"/>
<path content="3,高崎市,よしいバス多比良・小串線,6.1,6.0,0.0," xlink:title="3" d="M13898.7093,-3625.4883L13898.7181,-3625.4431L13898.7195,-3625.4369L13898.732,-3625.411L13898.7584,-3625.3288"/>
<path content="3,高崎市,よしいバス東谷・西吉井線,6.0,6.0,0.0," xlink:title="3" d="M13896.3827,-3621.8199L13896.3769,-3621.8466L13896.3686,-3621.8601L13896.3616,-3621.8691L13896.3512,-3621.8883L13896.3449,-3621.9086L13896.3449,-3621.9271L13896.3568,-3621.9699L13896.363,-3622.0054L13896.3637,-3622.0251L13896.3623,-3622.0313L13896.354,-3622.046L13896.3262,-3622.0882L13896.322,-3622.1006L13896.3206,-3622.1169L13896.3234,-3622.1327L13896.3311,-3622.1575L13896.3394,-3622.1833L13896.3422,-3622.1913L13896.354,-3622.2324L13896.363,-3622.2718L13896.3665,-3622.2949L13896.3672,-3622.3326L13896.3658,-3622.3827L13896.3616,-3622.4064L13896.3512,-3622.4526L13896.3512,-3622.4802L13896.3588,-3622.5123L13896.3672,-3622.5405L13896.3704,-3622.5529L13896.3915,-3622.6339L13896.4006,-3622.6718L13896.4186,-3622.7364L13896.4317,-3622.7703L13896.4408,-3622.7821L13896.4603,-3622.7995L13896.5068,-3622.839L13896.5804,-3622.9048L13896.6303,-3622.9493L13896.6388,-3622.9567L13896.6652,-3622.9775L13896.7659,-3623.0428L13896.7853,-3623.0575L13896.7985,-3623.0699L13896.8478,-3623.1234L13896.8673,-3623.1408L13896.884,-3623.1527L13896.9201,-3623.1724L13896.9749,-3623.2L13897.0132,-3623.2202L13897.05,-3623.2382L13897.0672,-3623.2486L13897.0875,-3623.2653L13897.1229,-3623.3053L13897.1409,-3623.3199L13897.216,-3623.3605L13897.2452,-3623.3796L13897.266,-3623.3977L13897.282,-3623.4168L13897.3035,-3623.4484L13897.308,-3623.4557L13897.3126,-3623.4609L13897.3223,-3623.4669L13897.3417,-3623.4731L13897.4046,-3623.4866L13897.4146,-3623.4889L13897.4501,-3623.4951L13897.4876,-3623.5024L13897.5272,-3623.5103L13897.5459,-3623.5141L13897.5674,-3623.5177L13897.5825,-3623.5181L13897.6067,-3623.5165L13897.6446,-3623.5139L13897.6557,-3623.5148L13897.6758,-3623.5227"/>
<path content="3,高崎市,よしいバス東谷・西吉井線,6.0,6.0,0.0," xlink:title="3" d="M13898.3719,-3623.3386L13898.3858,-3623.3352L13898.3962,-3623.3256L13898.4045,-3623.3132L13898.4141,-3623.2836"/>
<path content="3,高崎市,よしいバス東谷・西吉井線,6.0,6.0,0.0," xlink:title="3" d="M13898.3719,-3623.3386L13898.3455,-3623.3391L13898.3371,-3623.3374L13898.3221,-3623.3343L13898.2746,-3623.3245L13898.2621,-3623.3211L13898.2399,-3623.3211L13898.1607,-3623.3321L13898.1267,-3623.3312L13898.0982,-3623.3273L13898.0683,-3623.3205L13898.0371,-3623.3115L13898.0148,-3623.3031L13897.9969,-3623.2963L13897.981,-3623.2909L13897.9693,-3623.2865L13897.9496,-3623.2798L13897.9308,-3623.2765L13897.9181,-3623.2761L13897.9026,-3623.2781L13897.8892,-3623.2819L13897.8794,-3623.2861L13897.8693,-3623.2911L13897.8599,-3623.2969L13897.8155,-3623.3284L13897.7814,-3623.356L13897.7578,-3623.3791L13897.7453,-3623.3931L13897.7356,-3623.4089L13897.7245,-3623.4269L13897.7175,-3623.4399L13897.6927,-3623.4929L13897.6821,-3623.5131L13897.6758,-3623.5227"/>
<path content="3,高崎市,よしいバス東谷・西吉井線,6.0,6.0,0.0," xlink:title="3" d="M13898.4578,-3623.3586L13898.4229,-3623.3526L13898.4047,-3623.3471L13898.3719,-3623.3386"/>
<path content="3,高崎市,よしいバス東谷・西吉井線,6.0,6.0,0.0," xlink:title="3" d="M13897.6758,-3623.5227L13897.6897,-3623.5362L13897.7675,-3623.6038L13897.7724,-3623.6111L13897.78,-3623.6269L13897.7828,-3623.6409L13897.7858,-3623.6777L13897.7883,-3623.6928L13897.7973,-3623.7853L13897.8009,-3623.8296L13897.805,-3623.8623L13897.8057,-3623.8747L13897.8073,-3623.8823L13897.8189,-3623.9389L13897.8321,-3623.9913L13897.846,-3624.016L13897.8759,-3624.0653L13897.8824,-3624.0763L13897.8891,-3624.0849L13897.9041,-3624.1119L13897.9177,-3624.1363L13897.9288,-3624.1514"/>
<path content="3,高崎市,よしいバス東谷・西吉井線,6.0,6.0,0.0," xlink:title="3" d="M13897.9288,-3624.1514L13897.9294,-3624.1598"/>
<path content="3,高崎市,よしいバス東谷・西吉井線,6.0,6.0,0.0," xlink:title="3" d="M13897.9288,-3624.1514L13897.9474,-3624.1495L13898.0336,-3624.1399L13898.1002,-3624.1326L13898.1881,-3624.1291L13898.2281,-3624.1844L13898.2524,-3624.2171L13898.2698,-3624.2461L13898.2753,-3624.2532L13898.2836,-3624.2655L13898.2982,-3624.2875L13898.3121,-3624.3151L13898.3176,-3624.3337L13898.3176,-3624.3596L13898.3093,-3624.3568L13898.2572,-3624.3331L13898.1877,-3624.3049L13898.0829,-3624.2616L13898.0148,-3624.2351L13897.971,-3624.2199L13897.9551,-3624.216L13897.9696,-3624.2537L13897.9884,-3624.3044L13897.9995,-3624.328L13898.0127,-3624.3438L13898.0218,-3624.3517L13898.0481,-3624.3787L13898.0523,-3624.3878L13898.0585,-3624.4001L13898.0634,-3624.4137L13898.0808,-3624.4728L13898.0856,-3624.493L13898.0955,-3624.5024L13898.0994,-3624.5087L13898.1072,-3624.5167L13898.1475,-3624.5511L13898.2169,-3624.6113L13898.2302,-3624.6223L13898.2509,-3624.6406L13898.2732,-3624.6682L13898.2794,-3624.6761L13898.3635,-3624.7865L13898.4065,-3624.8434L13898.4239,-3624.8608L13898.4585,-3624.8924L13898.567,-3624.9915L13898.5768,-3624.9988L13898.5844,-3625.0163L13898.5864,-3625.023L13898.5858,-3625.1159L13898.5851,-3625.1429L13898.5823,-3625.2106"/>
<path content="3,高崎市,よしいバス東谷・西吉井線,6.0,6.0,0.0," xlink:title="3" d="M13896.5053,-3625.0281L13896.5081,-3625.1582L13896.5088,-3625.2038L13896.512,-3625.3147L13896.5137,-3625.3708L13896.5126,-3625.4843L13896.6025,-3625.4837L13896.6026,-3625.4883"/>
<path content="3,高崎市,よしいバス東谷・西吉井線,6.0,6.0,0.0," xlink:title="3" d="M13896.5053,-3625.0281L13896.4386,-3625.0359L13896.4261,-3625.0376L13896.3893,-3625.041L13896.3462,-3625.0466L13896.3018,-3625.0568L13896.2844,-3625.063L13896.2775,-3625.0664L13896.2726,-3625.0675L13896.2622,-3625.0726L13896.2337,-3625.0844L13896.1879,-3625.103L13896.1809,-3625.1041L13896.1281,-3625.1058L13896.1295,-3625.1182L13896.1309,-3625.1711L13896.1356,-3625.3147L13896.1356,-3625.3764L13896.1374,-3625.4773L13896.1376,-3625.4883"/>
<path content="3,高崎市,よしいバス東谷・西吉井線,6.0,6.0,0.0," xlink:title="3" d="M13898.5823,-3625.2106L13898.5059,-3625.2066L13898.4982,-3625.2061L13898.4336,-3625.2061L13898.4156,-3625.2072L13898.3746,-3625.2139L13898.3549,-3625.2178L13898.3522,-3625.2184L13898.3148,-3625.2244L13898.2877,-3625.228L13898.2551,-3625.2269L13898.2322,-3625.2218L13898.2245,-3625.2194L13898.2099,-3625.2151L13898.1843,-3625.2066L13898.1695,-3625.2019L13898.1342,-3625.1903L13898.0877,-3625.1739L13898.0274,-3625.1538L13897.9682,-3625.1283L13897.9338,-3625.1156L13897.9043,-3625.1041L13897.8501,-3625.0844L13897.8008,-3625.0692L13897.773,-3625.063L13897.7407,-3625.0603L13897.7329,-3625.0596L13897.7292,-3625.0594L13897.72,-3625.0592L13897.6904,-3625.0585L13897.6549,-3625.0568L13897.5827,-3625.0557L13897.5362,-3625.054L13897.4667,-3625.0529L13897.4528,-3625.0523L13897.3708,-3625.0512L13897.2986,-3625.0489L13897.2486,-3625.0467L13897.2276,-3625.0475L13897.1468,-3625.0439L13897.1319,-3625.0433L13897.0333,-3625.0399L13896.9492,-3625.0365L13896.9311,-3625.0365L13896.8999,-3625.0348L13896.763,-3625.0314L13896.7505,-3625.032L13896.6644,-3625.0292L13896.6178,-3625.0286L13896.5994,-3625.0297L13896.5491,-3625.0281L13896.5053,-3625.0281"/>
<path content="3,高崎市,よしいバス東谷・西吉井線,6.0,6.0,0.0," xlink:title="3" d="M13898.5823,-3625.2106L13898.5813,-3625.2901L13898.6441,-3625.2922L13898.6483,-3625.2933L13898.6677,-3625.2945L13898.6729,-3625.2956L13898.6774,-3625.2973L13898.6848,-3625.3016L13898.6906,-3625.3057L13898.7005,-3625.3147L13898.7153,-3625.3209L13898.7209,-3625.3215L13898.7584,-3625.3288"/>
<path content="3,高崎市,よしいバス東谷・西吉井線,6.0,6.0,0.0," xlink:title="3" d="M13898.7584,-3625.3288L13898.7706,-3625.3312L13898.7869,-3625.3334L13898.8008,-3625.3362L13898.8078,-3625.3367L13898.8428,-3625.344L13898.853,-3625.3446L13898.9054,-3625.3524"/>
<path content="3,高崎市,よしいバス東谷・西吉井線,6.0,6.0,0.0," xlink:title="3" d="M13898.7181,-3625.4431L13898.7195,-3625.4369L13898.732,-3625.411L13898.7584,-3625.3288"/>
<path content="3,高崎市,よしいバス東谷・西吉井線,6.0,6.0,0.0," xlink:title="3" d="M13898.7181,-3625.4431L13898.6548,-3625.4234L13898.6208,-3625.4127L13898.6117,-3625.4105L13898.5616,-3625.3964L13898.5583,-3625.412L13898.5561,-3625.4201L13898.5519,-3625.4409L13898.5443,-3625.4522L13898.5234,-3625.4798L13898.5173,-3625.4883"/>
<path content="3,高崎市,よしいバス東谷・西吉井線,6.0,6.0,0.0," xlink:title="3" d="M13898.7093,-3625.4883L13898.7181,-3625.4431"/>
</g>
</svg>
