<?xml version="1.0" encoding="UTF-8"?>
<svg  xmlns="http://www.w3.org/2000/svg" xmlns:xlink="http://www.w3.org/1999/xlink" xmlns:go="http://purl.org/svgmap/profile" property="N07_001,N07_002,N07_003,N07_004,N07_005,N07_006,N07_007" viewBox="13135.25390625 -3265.13671875 4.39453125 4.39453125" go:dataArea="13135.25390625 -3265.13671875 4.39453125 4.39453125" >
<metadata>
 <rdf:RDF xmlns:rdf="http://www.w3.org/1999/02/22-rdf-syntax-ns#" xmlns:crs="http://opengis.org/xmldtds/transformations.dtd" xmlns:svg="http://www.w3.org/svg" >
  <rdf:Description>
   <crs:CoordinateReferenceSystem rdf:resource="http://purl.org/crs/84" svg:transform="matrix(100.0,0.0,0.0,-100.0,0.0,0.0)" />
  </rdf:Description>
 </rdf:RDF>
</metadata>
<globalCoordinateSystem srsName="http://purl.org/crs/84" transform="matrix(100.0,0.0,0.0,-100.0,0.0,0.0)" />
<defs>
 <g id="p0" >
  <circle cx="0.0" cy="0.0" r="3" stroke="green" stroke-width="0.75" vector-effect="non-scaling-stroke" />
 </g>
</defs>
<g fill="none" fill-rule="evenodd" stroke="#FF00FF" stroke-width="0.75" opacity="0.5" vector-effect="non-scaling-stroke" stroke-linejoin="bevel" >
<path content="1,宮崎交通（株）,延岡-熊本,1.0,1.0,1.0," xlink:title="1" d="M13139.6484,-3263.9608L13139.6091,-3264.0001L13139.5495,-3264.0599L13139.5396,-3264.0699L13139.5069,-3264.1122L13139.489,-3264.1409L13139.4803,-3264.1624L13139.471,-3264.1843L13139.4674,-3264.211L13139.4662,-3264.2318L13139.4682,-3264.252L13139.4743,-3264.2801L13139.4825,-3264.3018L13139.5036,-3264.3443L13139.5156,-3264.3623L13139.5263,-3264.3826L13139.5369,-3264.408L13139.5462,-3264.4541L13139.5465,-3264.4682L13139.5476,-3264.4783L13139.5442,-3264.4936L13139.5306,-3264.5562L13139.5068,-3264.6656L13139.5029,-3264.6828L13139.4997,-3264.6976L13139.487,-3264.755L13139.483,-3264.7697L13139.479,-3264.7933L13139.4617,-3264.8722L13139.4498,-3264.9251L13139.4467,-3264.9395L13139.441,-3264.9635L13139.438,-3264.9769L13139.42,-3265.065L13139.4073,-3265.1192L13139.4064,-3265.1367"/>
<path content="1,宮崎交通（株）,延岡-福岡,2.0,2.0,2.0," xlink:title="1" d="M13139.6484,-3263.9608L13139.6091,-3264.0001L13139.5495,-3264.0599L13139.5396,-3264.0699L13139.5069,-3264.1122L13139.489,-3264.1409L13139.4803,-3264.1624L13139.471,-3264.1843L13139.4674,-3264.211L13139.4662,-3264.2318L13139.4682,-3264.252L13139.4743,-3264.2801L13139.4825,-3264.3018L13139.5036,-3264.3443L13139.5156,-3264.3623L13139.5263,-3264.3826L13139.5369,-3264.408L13139.5462,-3264.4541L13139.5465,-3264.4682L13139.5476,-3264.4783L13139.5442,-3264.4936L13139.5306,-3264.5562L13139.5068,-3264.6656L13139.5029,-3264.6828L13139.4997,-3264.6976L13139.487,-3264.755L13139.483,-3264.7697L13139.479,-3264.7933L13139.4617,-3264.8722L13139.4498,-3264.9251L13139.4467,-3264.9395L13139.441,-3264.9635L13139.438,-3264.9769L13139.42,-3265.065L13139.4073,-3265.1192L13139.4064,-3265.1367"/>
<path content="1,宮崎交通（株）,高千穂町（延岡線）,13.0,13.0,11.0," xlink:title="1" d="M13139.6484,-3263.3783L13139.619,-3263.3679L13139.5973,-3263.3596L13139.5845,-3263.3549L13139.5731,-3263.3524L13139.5643,-3263.3515L13139.5537,-3263.3525L13139.5419,-3263.3584L13139.5312,-3263.3648L13139.5275,-3263.3678L13139.5072,-3263.3838L13139.4994,-3263.3914L13139.4897,-3263.4069L13139.4855,-3263.4146L13139.4788,-3263.4307L13139.4731,-3263.4464L13139.4706,-3263.4585L13139.4713,-3263.4733L13139.4738,-3263.4931L13139.4759,-3263.5071L13139.4958,-3263.5528L13139.5024,-3263.5753L13139.5046,-3263.5832L13139.5269,-3263.6283L13139.5266,-3263.6412L13139.5234,-3263.6491L13139.5169,-3263.6745L13139.5164,-3263.697L13139.5203,-3263.7168L13139.5201,-3263.7443L13139.5167,-3263.7566L13139.51,-3263.7713L13139.484,-3263.8207L13139.4747,-3263.8321L13139.4674,-3263.8445L13139.4348,-3263.8997L13139.4261,-3263.9131L13139.4055,-3263.9374L13139.3935,-3263.9576L13139.3702,-3263.9864L13139.3522,-3264.0117L13139.3435,-3264.0224L13139.3169,-3264.0482L13139.295,-3264.0651L13139.2703,-3264.0831L13139.2457,-3264.1018L13139.2364,-3264.1126L13139.2331,-3264.1178L13139.2266,-3264.1333L13139.194,-3264.2108L13139.1887,-3264.2311L13139.1842,-3264.2524L13139.1843,-3264.2633L13139.1836,-3264.3021L13139.1856,-3264.3128L13139.1883,-3264.3275L13139.1909,-3264.3421L13139.1949,-3264.3607L13139.2062,-3264.4368L13139.2203,-3264.5215L13139.2215,-3264.5286L13139.2255,-3264.5602L13139.2294,-3264.599L13139.228,-3264.6255L13139.2232,-3264.6542L13139.2147,-3264.6835L13139.214,-3264.6903L13139.1933,-3264.7714L13139.1793,-3264.8283L13139.1653,-3264.8807L13139.1614,-3264.8963L13139.142,-3264.9455L13139.108,-3265.0299L13139.0827,-3265.0766L13139.06,-3265.1155L13139.0479,-3265.1367"/>
<path content="1,宮崎交通（株）,高千穂町（延岡線）,13.0,13.0,11.0," xlink:title="1" d="M13139.4064,-3265.1367L13139.4073,-3265.1192L13139.42,-3265.065L13139.438,-3264.9769L13139.441,-3264.9637L13139.4466,-3264.9398L13139.4502,-3264.9254L13139.4616,-3264.8725L13139.4789,-3264.7936L13139.4829,-3264.7699L13139.4869,-3264.7553L13139.4996,-3264.6979L13139.5029,-3264.6831L13139.5067,-3264.6658L13139.5305,-3264.5565L13139.5441,-3264.4938L13139.5475,-3264.4785L13139.547,-3264.4684L13139.5462,-3264.4545L13139.537,-3264.4084L13139.5264,-3264.383L13139.5158,-3264.3628L13139.5039,-3264.3447L13139.4827,-3264.3022L13139.4745,-3264.2805L13139.4682,-3264.252L13139.4662,-3264.2318L13139.4674,-3264.211L13139.471,-3264.1843L13139.4803,-3264.1624L13139.489,-3264.1409L13139.5069,-3264.1123L13139.5395,-3264.07L13139.5495,-3264.0599L13139.6091,-3264.0001L13139.6484,-3263.9608"/>
<path content="1,宮崎交通（株）,高千穂線_01_on,6.0,6.0,5.0," xlink:title="1" d="M13139.4064,-3265.1367L13139.4073,-3265.1192L13139.42,-3265.065L13139.438,-3264.9769L13139.441,-3264.9635L13139.4467,-3264.9395L13139.4498,-3264.9251L13139.4617,-3264.8722L13139.479,-3264.7933L13139.483,-3264.7697L13139.487,-3264.755L13139.4997,-3264.6976L13139.5029,-3264.6828L13139.5068,-3264.6656L13139.5306,-3264.5562L13139.5442,-3264.4936L13139.5476,-3264.4783L13139.5465,-3264.4682L13139.5462,-3264.4541L13139.5369,-3264.408L13139.5263,-3264.3826L13139.5156,-3264.3623L13139.5036,-3264.3443L13139.4825,-3264.3018L13139.4743,-3264.2801L13139.4682,-3264.252L13139.4662,-3264.2318L13139.4674,-3264.211L13139.471,-3264.1843L13139.4803,-3264.1624L13139.489,-3264.1409L13139.5069,-3264.1122L13139.5396,-3264.0699L13139.5495,-3264.0599L13139.6091,-3264.0001L13139.6484,-3263.9608"/>
<path content="1,宮崎交通（株）,高千穂線_02_on,7.0,7.0,6.0," xlink:title="1" d="M13139.0479,-3265.1367L13139.0603,-3265.115L13139.083,-3265.0761L13139.1083,-3265.0294L13139.1422,-3264.9449L13139.1614,-3264.8963L13139.1655,-3264.8801L13139.1795,-3264.8277L13139.1935,-3264.7708L13139.2141,-3264.6897L13139.2147,-3264.6829L13139.2234,-3264.6536L13139.2281,-3264.6249L13139.2294,-3264.5984L13139.2254,-3264.5595L13139.2214,-3264.528L13139.2202,-3264.5209L13139.2061,-3264.4361L13139.1948,-3264.3601L13139.1908,-3264.3414L13139.1881,-3264.3269L13139.1855,-3264.3121L13139.1836,-3264.3021L13139.1843,-3264.2633L13139.1842,-3264.2524L13139.1888,-3264.2305L13139.1941,-3264.2102L13139.2269,-3264.1327L13139.2334,-3264.1172L13139.2367,-3264.1121L13139.2461,-3264.1014L13139.2707,-3264.0828L13139.2953,-3264.0648L13139.3173,-3264.0479L13139.3439,-3264.022L13139.3526,-3264.0113L13139.3705,-3263.9859L13139.3938,-3263.9572L13139.4058,-3263.9369L13139.4264,-3263.9127L13139.4351,-3263.8992L13139.4677,-3263.844L13139.475,-3263.8316L13139.4843,-3263.8203L13139.5103,-3263.7707L13139.5169,-3263.7561L13139.5203,-3263.7437L13139.5203,-3263.7161L13139.5163,-3263.6964L13139.5169,-3263.6738L13139.5236,-3263.6485L13139.5269,-3263.6406L13139.5269,-3263.6276L13139.5043,-3263.5826L13139.5023,-3263.5747L13139.4956,-3263.5521L13139.4757,-3263.5065L13139.4737,-3263.4924L13139.4712,-3263.4727L13139.4705,-3263.4578L13139.4733,-3263.4458L13139.479,-3263.4301L13139.4857,-3263.4141L13139.4899,-3263.4064L13139.4997,-3263.3909L13139.5075,-3263.3834L13139.5279,-3263.3675L13139.5316,-3263.3645L13139.5422,-3263.3582L13139.554,-3263.3524L13139.5641,-3263.3515L13139.5728,-3263.3524L13139.5841,-3263.3548L13139.5969,-3263.3594L13139.6187,-3263.3678L13139.6484,-3263.3783"/>
<path content="3,日之影町,今別府・樅木尾線,0.3,0.0,0.0," xlink:title="3" d="M13139.6484,-3262.0745L13139.6414,-3262.0754L13139.6365,-3262.0787L13139.6351,-3262.0826L13139.6349,-3262.0866L13139.6367,-3262.0911L13139.6407,-3262.0968L13139.6467,-3262.1024L13139.6484,-3262.1032M13139.6484,-3262.6586L13139.6241,-3262.6591L13139.5915,-3262.6512L13139.5715,-3262.6479L13139.5489,-3262.6479L13139.5283,-3262.6507L13139.5149,-3262.6534L13139.4477,-3262.6591L13139.4331,-3262.6619L13139.423,-3262.665L13139.4171,-3262.6687L13139.4126,-3262.6729L13139.3945,-3262.694L13139.3778,-3262.7087L13139.3752,-3262.7098L13139.3539,-3262.7284L13139.3419,-3262.7402L13139.3572,-3262.734L13139.4104,-3262.7064L13139.4231,-3262.7019L13139.4358,-3262.7019L13139.4511,-3262.7059L13139.4617,-3262.7047L13139.4737,-3262.7002L13139.4857,-3262.698L13139.5149,-3262.6991L13139.5456,-3262.7059L13139.5769,-3262.716L13139.6128,-3262.7329L13139.6387,-3262.7436L13139.6484,-3262.7454M13139.6484,-3262.755L13139.6247,-3262.7521L13139.6094,-3262.7481L13139.5449,-3262.7369L13139.5109,-3262.7363L13139.5036,-3262.7374L13139.4823,-3262.7385L13139.4717,-3262.7414L13139.4604,-3262.747L13139.4464,-3262.7571L13139.4384,-3262.7673L13139.4344,-3262.7763L13139.4291,-3262.8062L13139.4258,-3262.8152L13139.4211,-3262.8225L13139.4138,-3262.8309L13139.4084,-3262.8394L13139.4075,-3262.8477L13139.4078,-3262.8501L13139.4089,-3262.8531L13139.4123,-3262.8568L13139.4161,-3262.8585L13139.4231,-3262.858L13139.4317,-3262.854L13139.4417,-3262.8467L13139.4537,-3262.8309L13139.4577,-3262.8146L13139.463,-3262.8028L13139.4697,-3262.796L13139.479,-3262.7915L13139.4917,-3262.7932L13139.507,-3262.7977L13139.5243,-3262.8056L13139.5402,-3262.8174L13139.5469,-3262.8281L13139.5522,-3262.8484L13139.5556,-3262.8569L13139.5669,-3262.8698L13139.5795,-3262.88L13139.5888,-3262.8851L13139.6301,-3262.8969L13139.6484,-3262.9065M13139.6484,-3262.9442L13139.6228,-3262.9442L13139.5988,-3262.942L13139.5722,-3262.9374L13139.5522,-3262.9352L13139.5303,-3262.9301L13139.5203,-3262.9262L13139.5103,-3262.9199L13139.505,-3262.9194L13139.5031,-3262.92L13139.5016,-3262.9216L13139.5016,-3262.9278L13139.5063,-3262.938L13139.5289,-3262.965L13139.5429,-3262.9769L13139.5662,-3262.9909L13139.6134,-3263.018L13139.6484,-3263.0426M13139.6484,-3263.075L13139.6467,-3263.0749L13139.6294,-3263.0681L13139.6134,-3263.0636L13139.5808,-3263.0602L13139.5702,-3263.058L13139.5476,-3263.0557L13139.5283,-3263.0496L13139.4983,-3263.036L13139.4857,-3263.0366L13139.4724,-3263.0451L13139.4644,-3263.0529L13139.4644,-3263.0586L13139.4684,-3263.0715L13139.4686,-3263.0887L13139.4659,-3263.0923L13139.4607,-3263.096L13139.4417,-3263.1031L13139.4364,-3263.1041L13139.4284,-3263.1031L13139.3931,-3263.0941L13139.3765,-3263.0946L13139.3679,-3263.0986L13139.3412,-3263.1256L13139.3392,-3263.1284L13139.3379,-3263.1341L13139.3375,-3263.1424L13139.3386,-3263.1566L13139.3399,-3263.1622L13139.3408,-3263.1664L13139.3399,-3263.1763L13139.3373,-3263.1884L13139.3333,-3263.1983L13139.3293,-3263.2062L13139.3193,-3263.2186L13139.292,-3263.2394L13139.2833,-3263.2451L13139.2494,-3263.2647L13139.2268,-3263.2845L13139.2214,-3263.2958L13139.2208,-3263.3098L13139.2294,-3263.3313L13139.2303,-3263.3351L13139.2306,-3263.3399L13139.2294,-3263.3448L13139.2095,-3263.3707L13139.2035,-3263.3825L13139.2023,-3263.3901L13139.2035,-3263.4073L13139.2041,-3263.422L13139.2015,-3263.4315L13139.2026,-3263.4418L13139.2039,-3263.4489L13139.2114,-3263.4563L13139.2208,-3263.467L13139.2234,-3263.4716L13139.225,-3263.4761L13139.2241,-3263.5003L13139.2225,-3263.5081L13139.2208,-3263.5104L13139.2094,-3263.5251L13139.2014,-3263.5386L13139.1789,-3263.5645L13139.1771,-3263.5686L13139.1764,-3263.5749L13139.1775,-3263.5797L13139.1795,-3263.5887L13139.1808,-3263.6107L13139.1788,-3263.6282L13139.1742,-3263.639L13139.1718,-3263.6555L13139.1702,-3263.675L13139.1775,-3263.693L13139.1788,-3263.6986L13139.1775,-3263.7093L13139.1748,-3263.7183L13139.1476,-3263.7763L13139.1416,-3263.7859L13139.1369,-3263.7893L13139.1169,-3263.7932L13139.1083,-3263.7932L13139.1059,-3263.7924L13139.0981,-3263.7891L13139.0936,-3263.7876L13139.0883,-3263.7831L13139.0577,-3263.7312L13139.0464,-3263.7166L13139.0224,-3263.6946L13139.0148,-3263.6905L13139.0118,-3263.6904L13139.0051,-3263.6929L13138.9938,-3263.6996L13138.9899,-3263.7008L13138.9832,-3263.701L13138.9794,-3263.7002L13138.96,-3263.6891L13138.9564,-3263.6882L13138.9519,-3263.6884L13138.9406,-3263.6907L13138.9101,-3263.7028L13138.9066,-3263.7036L13138.864,-3263.7048L13138.8547,-3263.7087L13138.8454,-3263.7177L13138.8308,-3263.7386L13138.8201,-3263.7482L13138.8131,-3263.7509L13138.809,-3263.7515L13138.8041,-3263.751L13138.7928,-3263.7476L13138.779,-3263.7465L13138.7761,-3263.7471L13138.7695,-3263.7499L13138.7662,-3263.7544L13138.7662,-3263.7561L13138.7672,-3263.7588L13138.7709,-3263.7622L13138.7795,-3263.7662L13138.8001,-3263.7707L13138.8141,-3263.7752L13138.8248,-3263.7752L13138.8348,-3263.7713L13138.8514,-3263.7538L13138.864,-3263.7476L13138.8675,-3263.7469L13138.874,-3263.7476L13138.884,-3263.7499L13138.8993,-3263.7493L13138.9166,-3263.7453L13138.9399,-3263.7453L13138.9466,-3263.747L13138.9592,-3263.7555L13138.9692,-3263.7639L13138.9971,-3263.791L13138.9978,-3263.7961L13138.9959,-3263.8001L13138.9925,-3263.8039L13138.9888,-3263.8055L13138.9854,-3263.8059L13138.982,-3263.8055L13138.9738,-3263.7977L13138.9599,-3263.7831L13138.9492,-3263.7769L13138.9339,-3263.7729L13138.9199,-3263.7741L13138.888,-3263.7814L13138.8773,-3263.7854L13138.8514,-3263.8006L13138.8427,-3263.8039L13138.8201,-3263.8062L13138.8048,-3263.8062L13138.7962,-3263.8073L13138.7808,-3263.8118L13138.7775,-3263.8133L13138.7743,-3263.8156L13138.7614,-3263.8312L13138.7513,-3263.8437L13138.7519,-3263.8511L13138.7715,-3263.8597L13138.7955,-3263.8693L13138.8028,-3263.8715L13138.8214,-3263.8727L13138.8301,-3263.871L13138.8427,-3263.8659L13138.8507,-3263.8614L13138.874,-3263.8507L13138.8853,-3263.8484L13138.894,-3263.8479L13138.9093,-3263.8535L13138.9286,-3263.8626L13138.9353,-3263.8699L13138.9452,-3263.8845L13138.9612,-3263.9211L13138.9692,-3263.9459L13138.9891,-3263.9927L13139.0045,-3264.0271L13139.0118,-3264.0338L13139.0264,-3264.0417L13139.0411,-3264.0479L13139.0564,-3264.0564L13139.079,-3264.0721L13139.0943,-3264.0789L13139.1083,-3264.0828L13139.1176,-3264.089L13139.1176,-3264.0981L13139.1129,-3264.1065L13139.0949,-3264.1285L13139.085,-3264.1442L13139.075,-3264.1755L13139.0674,-3264.1961L13139.0639,-3264.2016L13139.0594,-3264.2125L13139.059,-3264.2392L13139.0564,-3264.3448L13139.057,-3264.3499L13139.057,-3264.3906L13139.059,-3264.4209L13139.0617,-3264.4389L13139.0795,-3264.5079L13139.0823,-3264.5178L13139.0853,-3264.5284L13139.0868,-3264.5337L13139.0875,-3264.5361L13139.0929,-3264.5557L13139.0902,-3264.5835L13139.0945,-3264.617L13139.0893,-3264.6514L13139.0889,-3264.6612L13139.0875,-3264.6672L13139.0773,-3264.6901L13139.0706,-3264.7061L13139.0649,-3264.7218L13139.06,-3264.7385L13139.0583,-3264.746L13139.0583,-3264.7512L13139.0484,-3264.8198L13139.045,-3264.8699L13139.0397,-3264.9026L13139.0239,-3264.9563L13139.0177,-3264.9792L13139.0051,-3265.0046L13138.9881,-3265.0346L13138.9658,-3265.0677L13138.9405,-3265.1167L13138.9309,-3265.1367"/>
<path content="3,日之影町,八戸線,3.0,0.0,0.0," xlink:title="3" d="M13139.4064,-3265.1367L13139.4073,-3265.1192L13139.42,-3265.065L13139.438,-3264.9769L13139.441,-3264.9635L13139.4467,-3264.9395L13139.4499,-3264.9252L13139.4617,-3264.8722L13139.479,-3264.7933L13139.483,-3264.7696L13139.487,-3264.755L13139.4997,-3264.6976L13139.503,-3264.6828L13139.5068,-3264.6655L13139.516,-3264.6234L13139.5306,-3264.5562L13139.5422,-3264.503L13139.5442,-3264.4936L13139.5476,-3264.4783L13139.5466,-3264.4682L13139.5462,-3264.4541L13139.5369,-3264.408L13139.5263,-3264.3826L13139.5156,-3264.3624L13139.5036,-3264.3443L13139.4825,-3264.3018L13139.4743,-3264.2801L13139.4682,-3264.252L13139.4662,-3264.2318L13139.4674,-3264.211L13139.471,-3264.1843L13139.4803,-3264.1624L13139.489,-3264.1409L13139.5073,-3264.1118L13139.5399,-3264.0695L13139.5499,-3264.0595L13139.6095,-3263.9998L13139.6484,-3263.9608"/>
<path content="3,日之影町,大山線,0.3,0.0,0.0," xlink:title="3" d="M13139.4064,-3265.1367L13139.4073,-3265.1192L13139.42,-3265.065L13139.438,-3264.9769L13139.4411,-3264.9631L13139.4467,-3264.9392L13139.4501,-3264.9253L13139.4499,-3264.9252L13139.4617,-3264.8722L13139.479,-3264.7933L13139.483,-3264.7697L13139.487,-3264.755L13139.4997,-3264.6976L13139.503,-3264.6828L13139.5067,-3264.6656L13139.516,-3264.6234L13139.5306,-3264.5562L13139.5422,-3264.503L13139.5442,-3264.4936L13139.5476,-3264.4783L13139.5466,-3264.4682L13139.5462,-3264.4542L13139.5369,-3264.408L13139.5263,-3264.3827L13139.5156,-3264.3624L13139.5036,-3264.3444L13139.4825,-3264.3018L13139.4743,-3264.2801L13139.4682,-3264.252L13139.4662,-3264.2318L13139.4674,-3264.211L13139.471,-3264.1843L13139.4803,-3264.1624L13139.489,-3264.1409L13139.507,-3264.1122L13139.5396,-3264.0699L13139.5495,-3264.0599L13139.6091,-3264.0001L13139.625,-3263.9844L13139.6484,-3263.9609"/>
<path content="3,日之影町,大瀬線,0.3,0.0,0.0," xlink:title="3" d="M13137.5925,-3261.9986L13137.5943,-3261.9744L13137.6002,-3261.8561L13137.6002,-3261.8014L13137.5969,-3261.7913L13137.5882,-3261.7839L13137.5683,-3261.7811L13137.5596,-3261.7794L13137.555,-3261.7761L13137.5496,-3261.7699L13137.5445,-3261.7625L13137.537,-3261.7506L13137.5177,-3261.7186L13137.487,-3261.6807L13137.4765,-3261.6498L13137.4765,-3261.6357L13137.4818,-3261.6279L13137.5051,-3261.6115L13137.5151,-3261.6002L13137.5251,-3261.5867L13137.5377,-3261.5648L13137.5457,-3261.5473L13137.549,-3261.5366L13137.553,-3261.5304L13137.561,-3261.5219L13137.5676,-3261.5174L13137.5963,-3261.509L13137.6123,-3261.5L13137.6169,-3261.4921L13137.6162,-3261.4786L13137.6136,-3261.4656L13137.6123,-3261.4166L13137.5996,-3261.3856L13137.6002,-3261.3698L13137.6082,-3261.3524L13137.6342,-3261.3298L13137.6455,-3261.3157L13137.6562,-3261.2938L13137.6622,-3261.2786L13137.6708,-3261.2662L13137.6961,-3261.2386L13137.7161,-3261.2166L13137.7214,-3261.2087L13137.7281,-3261.1912L13137.7287,-3261.185L13137.7467,-3261.1405L13137.7633,-3261.1106L13137.772,-3261.0864L13137.7826,-3261.0431L13137.7853,-3261.0216L13137.7846,-3260.9828L13137.782,-3260.9619L13137.778,-3260.9501L13137.756,-3260.9084L13137.7467,-3260.8825L13137.742,-3260.852L13137.7341,-3260.8306L13137.7294,-3260.8216L13137.7101,-3260.794L13137.7074,-3260.7889L13137.7054,-3260.7658L13137.7081,-3260.7562L13137.7141,-3260.7422M13137.9382,-3260.7422L13137.9471,-3260.7517L13137.9564,-3260.763L13137.9589,-3260.764L13137.9624,-3260.763L13137.9635,-3260.7601L13137.9633,-3260.7561L13137.9624,-3260.7523L13137.9559,-3260.7422M13138.5106,-3260.7422L13138.5108,-3260.7462L13138.5154,-3260.7569L13138.5227,-3260.7625L13138.54,-3260.7715L13138.5534,-3260.7766L13138.5913,-3260.7811L13138.6086,-3260.785L13138.6166,-3260.7879L13138.6206,-3260.7941L13138.6199,-3260.8036L13138.6153,-3260.8171L13138.6126,-3260.8357L13138.6106,-3260.8408L13138.6006,-3260.8481L13138.5886,-3260.8549L13138.5793,-3260.8605L13138.5787,-3260.8743"/>
<path content="3,日之影町,大瀬線,0.3,0.0,0.0," xlink:title="3" d="M13137.055,-3262.1123L13137.0651,-3262.0991L13137.1071,-3262.0529L13137.1184,-3262.0444L13137.131,-3262.0405L13137.145,-3262.0399L13137.1519,-3262.0429L13137.1556,-3262.0444L13137.1629,-3262.0495L13137.1696,-3262.0608L13137.1783,-3262.0799L13137.1876,-3262.1048L13137.1962,-3262.12L13137.2036,-3262.1295L13137.2162,-3262.116L13137.2175,-3262.1064L13137.2142,-3262.0912L13137.2036,-3262.0737L13137.2036,-3262.0552L13137.2076,-3262.0371L13137.2069,-3262.0225L13137.2042,-3262.018L13137.1902,-3262.0073L13137.1769,-3262.0005L13137.1383,-3261.9904L13137.1084,-3261.9904L13137.0864,-3261.9937L13137.0698,-3261.9943L13137.0538,-3261.9915L13137.0438,-3261.9887L13137.0279,-3261.9825L13137.0159,-3261.9796L13136.9972,-3261.9796L13136.9826,-3261.9858L13136.9693,-3261.9966L13136.954,-3262.0134L13136.9447,-3262.0276L13136.9367,-3262.0343L13136.9287,-3262.0366L13136.9107,-3262.0366L13136.8808,-3262.0321L13136.8515,-3262.0309L13136.8415,-3262.0326L13136.8262,-3262.0394L13136.8129,-3262.0489L13136.7849,-3262.0737L13136.8062,-3262.0354L13136.8149,-3262.0259L13136.8268,-3262.018L13136.8488,-3262.0084L13136.8688,-3262.0028L13136.8901,-3261.9988L13136.9007,-3261.9943L13136.9074,-3261.9898L13136.9234,-3261.9757L13136.9353,-3261.9599L13136.9467,-3261.9346L13136.9566,-3261.9199L13136.9686,-3261.9064L13136.9832,-3261.8968L13136.9946,-3261.8923L13137.0139,-3261.8873L13137.0332,-3261.8844L13137.0691,-3261.885L13137.0878,-3261.8861L13137.0944,-3261.8844L13137.1177,-3261.8754L13137.1297,-3261.872L13137.1437,-3261.872L13137.1923,-3261.8918L13137.2215,-3261.8974L13137.2315,-3261.8985L13137.2548,-3261.8985L13137.2615,-3261.8975L13137.2761,-3261.8944L13137.3008,-3261.8865L13137.3234,-3261.8837L13137.3493,-3261.8859L13137.368,-3261.8853L13137.3926,-3261.8814L13137.4558,-3261.8814L13137.4578,-3261.8803L13137.4658,-3261.8735L13137.4824,-3261.8544L13137.4884,-3261.8499L13137.5024,-3261.851L13137.5091,-3261.8544L13137.5137,-3261.8594L13137.5144,-3261.8685L13137.5111,-3261.8826L13137.5097,-3261.9074L13137.5057,-3261.9153L13137.5024,-3261.9186L13137.4704,-3261.9417L13137.4605,-3261.9513L13137.4618,-3261.9569L13137.4651,-3261.9631L13137.4738,-3261.9637L13137.5004,-3261.9575L13137.5177,-3261.9569L13137.5284,-3261.9586L13137.5463,-3261.9659L13137.5576,-3261.975L13137.559,-3261.9919L13137.557,-3262.0183L13137.5536,-3262.0324L13137.5477,-3262.0443L13137.5477,-3262.0482L13137.5523,-3262.0493L13137.5663,-3262.0369L13137.5925,-3261.9986"/>
<path content="3,日之影町,大瀬線,0.3,0.0,0.0," xlink:title="3" d="M13138.6241,-3262.1761L13138.6351,-3262.1891L13138.6457,-3262.2072L13138.6537,-3262.2139L13138.6644,-3262.2201L13138.6744,-3262.2286L13138.6764,-3262.232L13138.6757,-3262.2427L13138.6631,-3262.263L13138.6631,-3262.268L13138.6617,-3262.2691L13138.6637,-3262.2697L13138.6664,-3262.2731L13138.6797,-3262.2731L13138.6884,-3262.2714L13138.7057,-3262.272L13138.7123,-3262.2737L13138.7256,-3262.2804L13138.7349,-3262.2799L13138.7522,-3262.2742L13138.7596,-3262.2804L13138.7583,-3262.29L13138.7476,-3262.3058L13138.7416,-3262.3126L13138.7243,-3262.3193L13138.7176,-3262.3261L13138.7123,-3262.3356L13138.709,-3262.3469L13138.707,-3262.3655L13138.7037,-3262.3767L13138.6904,-3262.3948L13138.6904,-3262.41L13138.7063,-3262.4461L13138.71,-3262.4584L13138.719,-3262.4883L13138.7216,-3262.5013L13138.721,-3262.5193L13138.7156,-3262.5323L13138.709,-3262.5374L13138.6844,-3262.5374L13138.6604,-3262.5441L13138.6437,-3262.5514L13138.6351,-3262.5582L13138.6298,-3262.5689L13138.6304,-3262.583L13138.6364,-3262.6021L13138.6358,-3262.6106L13138.6258,-3262.6106L13138.6012,-3262.6027L13138.5898,-3262.5999L13138.5706,-3262.5971L13138.5446,-3262.5954L13138.5127,-3262.5886L13138.4694,-3262.5869L13138.4614,-3262.5863L13138.4408,-3262.5824L13138.4275,-3262.5762L13138.4095,-3262.5672L13138.3969,-3262.5649L13138.3776,-3262.5655L13138.3696,-3262.5672L13138.3536,-3262.5739L13138.3183,-3262.5981L13138.2817,-3262.6376L13138.2644,-3262.6511L13138.2544,-3262.6568L13138.2345,-3262.6624L13138.2078,-3262.6675L13138.1945,-3262.6691L13138.1479,-3262.6686L13138.096,-3262.6635L13138.0821,-3262.6601L13138.0674,-3262.6511L13138.0561,-3262.6382L13138.0408,-3262.6151L13138.0261,-3262.5891L13138.0195,-3262.5835L13138.0115,-3262.5852L13138.0035,-3262.5903L13138.0048,-3262.6044L13138.0088,-3262.6218L13138.0088,-3262.6556L13138.0122,-3262.6629L13138.0251,-3262.678L13138.043,-3262.6974L13138.043,-3262.7099"/>
<path content="3,日之影町,大瀬線,0.3,0.0,0.0," xlink:title="3" d="M13138.043,-3262.7099L13138.0268,-3262.6928L13138.0055,-3262.6753L13137.9989,-3262.6669L13137.9949,-3262.6533L13137.9909,-3262.6257L13137.9829,-3262.5846L13137.9729,-3262.5621L13137.9643,-3262.5508L13137.9423,-3262.5311L13137.9277,-3262.517L13137.9183,-3262.5012L13137.907,-3262.4838L13137.8884,-3262.4618L13137.8758,-3262.4415L13137.8678,-3262.4207L13137.8578,-3262.3987L13137.8538,-3262.3857L13137.8524,-3262.3733L13137.8464,-3262.3508L13137.8405,-3262.3429L13137.8238,-3262.3294L13137.8118,-3262.3221L13137.7726,-3262.2984L13137.7573,-3262.2826L13137.752,-3262.2708L13137.7506,-3262.2307L13137.748,-3262.2172L13137.744,-3262.211L13137.7367,-3262.206L13137.722,-3262.1998L13137.6941,-3262.1919L13137.6688,-3262.1829L13137.6421,-3262.166L13137.6195,-3262.1536L13137.6055,-3262.1446L13137.5856,-3262.1282L13137.5823,-3262.1192L13137.5764,-3262.0919L13137.5685,-3262.0837L13137.5554,-3262.0762L13137.5549,-3262.0729L13137.561,-3262.0668L13137.5689,-3262.0589L13137.5796,-3262.0454L13137.5876,-3262.0273L13137.5916,-3262.0105L13137.5925,-3261.9986"/>
<path content="3,日之影町,大瀬線,0.3,0.0,0.0," xlink:title="3" d="M13138.3604,-3263.5768L13138.3624,-3263.6088L13138.3675,-3263.6202L13138.3795,-3263.627L13138.3955,-3263.6326L13138.4028,-3263.6388L13138.4021,-3263.6467L13138.3928,-3263.6557L13138.3769,-3263.6648L13138.3695,-3263.6664L13138.3569,-3263.6664L13138.3443,-3263.6636L13138.3342,-3263.6631L13138.3283,-3263.667L13138.3229,-3263.6766L13138.3223,-3263.685L13138.3238,-3263.687L13138.3296,-3263.6946L13138.3422,-3263.7003L13138.3529,-3263.7019L13138.3729,-3263.7019L13138.3822,-3263.7003L13138.3948,-3263.7003L13138.4048,-3263.7042L13138.4241,-3263.716L13138.4314,-3263.7205L13138.4388,-3263.7267L13138.4441,-3263.7352L13138.4474,-3263.7464L13138.4474,-3263.7628L13138.4454,-3263.7684L13138.4418,-3263.7745L13138.4314,-3263.7921L13138.4301,-3263.8051L13138.4201,-3263.8248L13138.4214,-3263.8304L13138.4254,-3263.8372L13138.4467,-3263.8467L13138.4581,-3263.8541L13138.472,-3263.867L13138.4834,-3263.8806L13138.4913,-3263.8958L13138.4973,-3263.902L13138.5146,-3263.9093L13138.5798,-3263.9296L13138.5925,-3263.9318L13138.6005,-3263.9346L13138.6291,-3263.9403L13138.6404,-3263.9454L13138.6491,-3263.9516L13138.661,-3263.9673L13138.6717,-3263.973L13138.6803,-3263.9747L13138.7309,-3263.9786L13138.7462,-3263.9814L13138.8034,-3263.9826L13138.8347,-3263.9848L13138.8427,-3263.9882L13138.8486,-3263.9944L13138.8474,-3264.0045L13138.8334,-3264.0316L13138.8247,-3264.0411L13138.8121,-3264.0473L13138.7875,-3264.0519L13138.7695,-3264.0529L13138.7303,-3264.0529L13138.7143,-3264.0546L13138.6544,-3264.0761L13138.6371,-3264.0766L13138.6204,-3264.0749L13138.5918,-3264.0749L13138.5825,-3264.0777L13138.5179,-3264.1042L13138.5039,-3264.1087L13138.4561,-3264.1273L13138.4388,-3264.1375L13138.4369,-3264.1401L13138.4373,-3264.1417L13138.4394,-3264.1431L13138.4454,-3264.1436L13138.4567,-3264.1414L13138.4868,-3264.1414L13138.5086,-3264.1313L13138.5333,-3264.1217L13138.5526,-3264.1161L13138.5785,-3264.1127L13138.5965,-3264.1132L13138.6324,-3264.1228L13138.6477,-3264.1228L13138.673,-3264.1155L13138.689,-3264.1127L13138.7163,-3264.1127L13138.7376,-3264.1161L13138.7689,-3264.1239L13138.7828,-3264.1347L13138.7961,-3264.1487L13138.8161,-3264.1747L13138.8281,-3264.1882L13138.8421,-3264.2L13138.8567,-3264.2057L13138.8813,-3264.2113L13138.9179,-3264.2175L13138.9346,-3264.2198L13138.9632,-3264.2203L13138.9769,-3264.22L13139.0639,-3264.2016"/>
<path content="3,日之影町,大瀬線,0.3,0.0,0.0," xlink:title="3" d="M13139.0639,-3264.2016L13139.0674,-3264.1961L13139.075,-3264.1755L13139.085,-3264.1442L13139.0949,-3264.1285L13139.1129,-3264.1065L13139.1176,-3264.0981L13139.1176,-3264.089L13139.1083,-3264.0828L13139.0943,-3264.0789L13139.079,-3264.0721L13139.0564,-3264.0564L13139.0411,-3264.0479L13139.0264,-3264.0417L13139.0118,-3264.0338L13139.0045,-3264.0271L13138.9891,-3263.9927L13138.9692,-3263.9459L13138.9612,-3263.9211L13138.9452,-3263.8845L13138.9353,-3263.8699L13138.9286,-3263.8626L13138.9093,-3263.8535L13138.894,-3263.8479L13138.8853,-3263.8484L13138.874,-3263.8507L13138.8507,-3263.8614L13138.8427,-3263.8659L13138.8301,-3263.871L13138.8214,-3263.8727L13138.8028,-3263.8715L13138.7955,-3263.8693L13138.7715,-3263.8597L13138.7519,-3263.8511L13138.707,-3263.836L13138.6897,-3263.827L13138.6797,-3263.8186L13138.6704,-3263.8062L13138.6497,-3263.7588L13138.6371,-3263.7273L13138.6324,-3263.7188L13138.6238,-3263.707L13138.6038,-3263.6817L13138.5765,-3263.6529L13138.5719,-3263.6501L13138.5433,-3263.636L13138.5286,-3263.6264L13138.5213,-3263.6163L13138.5113,-3263.5881L13138.5058,-3263.5765L13138.5007,-3263.5656L13138.496,-3263.5504L13138.4967,-3263.5374L13138.504,-3263.525L13138.5066,-3263.5143L13138.5046,-3263.4754L13138.5026,-3263.4676L13138.498,-3263.4366L13138.498,-3263.423L13138.5007,-3263.4151L13138.5026,-3263.4039L13138.5026,-3263.3447L13138.5013,-3263.3419L13138.5007,-3263.3346L13138.498,-3263.3256L13138.4834,-3263.303L13138.4488,-3263.2636L13138.4294,-3263.2382L13138.4221,-3263.2219L13138.4188,-3263.2101L13138.4048,-3263.1667L13138.3935,-3263.116L13138.3922,-3263.0838L13138.3889,-3263.072L13138.3815,-3263.0517L13138.3756,-3263.0438L13138.3662,-3263.0388L13138.3483,-3263.0393L13138.317,-3263.0438L13138.2924,-3263.0438L13138.2777,-3263.041L13138.2564,-3263.0359L13138.2391,-3263.0286L13138.2344,-3263.0247L13138.2058,-3262.9954L13138.1752,-3262.9689L13138.1673,-3262.9587L13138.1659,-3262.9565L13138.1533,-3262.9289L13138.1419,-3262.903L13138.1313,-3262.8748L13138.1306,-3262.859L13138.1322,-3262.8482L13138.1373,-3262.8291L13138.138,-3262.8078L13138.1393,-3262.7734L13138.134,-3262.7576L13138.1266,-3262.7474L13138.1187,-3262.7407L13138.114,-3262.7384L13138.0767,-3262.7266L13138.0707,-3262.726L13138.0581,-3262.7204L13138.043,-3262.7099"/>
<path content="3,日之影町,大瀬線,0.3,0.0,0.0," xlink:title="3" d="M13139.0639,-3264.2016L13139.0594,-3264.2125L13139.059,-3264.2392L13139.0564,-3264.3448L13139.057,-3264.3499L13139.057,-3264.3906L13139.059,-3264.4209L13139.0617,-3264.4389L13139.0795,-3264.5079L13139.0823,-3264.5178L13139.0853,-3264.5284L13139.0868,-3264.5337L13139.0875,-3264.5361L13139.0929,-3264.5557L13139.0902,-3264.5835L13139.0945,-3264.617L13139.0893,-3264.6514L13139.0889,-3264.6612L13139.0875,-3264.6672L13139.0773,-3264.6901L13139.0706,-3264.7061L13139.0649,-3264.7218L13139.06,-3264.7385L13139.0583,-3264.746L13139.0583,-3264.7512L13139.0484,-3264.8198L13139.045,-3264.8699L13139.0397,-3264.9026L13139.0239,-3264.9563L13139.0177,-3264.9792L13139.0051,-3265.0046L13138.9881,-3265.0346L13138.9658,-3265.0677L13138.9405,-3265.1167L13138.9309,-3265.1367"/>
<path content="3,日之影町,尾越線,0.3,0.0,0.0," xlink:title="3" d="M13139.4064,-3265.1367L13139.4073,-3265.1192L13139.42,-3265.065L13139.438,-3264.9769L13139.441,-3264.9635L13139.4467,-3264.9395L13139.4499,-3264.9252L13139.4617,-3264.8722L13139.479,-3264.7933L13139.483,-3264.7696L13139.487,-3264.755L13139.4997,-3264.6976L13139.503,-3264.6828L13139.5068,-3264.6655L13139.516,-3264.6234L13139.5306,-3264.5562L13139.5422,-3264.503L13139.5442,-3264.4936L13139.5476,-3264.4783L13139.5466,-3264.4682L13139.5462,-3264.4541L13139.5369,-3264.408L13139.5263,-3264.3826L13139.5156,-3264.3624L13139.5036,-3264.3443L13139.4825,-3264.3018L13139.4743,-3264.2801L13139.4682,-3264.252L13139.4662,-3264.2318L13139.4674,-3264.211L13139.471,-3264.1843L13139.4803,-3264.1624L13139.489,-3264.1409L13139.507,-3264.1121L13139.5396,-3264.0699L13139.5495,-3264.0599L13139.6091,-3264.0001L13139.625,-3263.9844L13139.6484,-3263.9609"/>
<path content="3,日之影町,循環線,7.0,0.0,0.0," xlink:title="3" d="M13139.1843,-3264.2633L13139.1836,-3264.3021L13139.1855,-3264.3121L13139.1881,-3264.3269"/>
<path content="3,日之影町,循環線,7.0,0.0,0.0," xlink:title="3" d="M13139.1881,-3264.3269L13139.1907,-3264.3411L13139.1947,-3264.3597L13139.2061,-3264.4357L13139.2202,-3264.5205L13139.2214,-3264.5276L13139.2254,-3264.5591L13139.2294,-3264.598L13139.2281,-3264.6244L13139.2235,-3264.6531L13139.2149,-3264.6824L13139.2142,-3264.6892L13139.1936,-3264.7704L13139.1796,-3264.8272L13139.1656,-3264.8796L13139.1614,-3264.8963L13139.1424,-3264.9444L13139.1085,-3265.029L13139.0832,-3265.0757L13139.0606,-3265.1146L13139.0479,-3265.1367"/>
<path content="3,日之影町,循環線,7.0,0.0,0.0," xlink:title="3" d="M13137.6392,-3265.1367L13137.6487,-3265.1347L13137.6587,-3265.1358L13137.6608,-3265.1367M13137.8244,-3265.1367L13137.8284,-3265.1347L13137.8322,-3265.1337L13137.8353,-3265.1338L13137.8381,-3265.1346L13137.8399,-3265.1367M13138.9309,-3265.1367L13138.9405,-3265.1167L13138.9658,-3265.0677L13138.9881,-3265.0346L13139.0051,-3265.0046L13139.0177,-3264.9792L13139.0239,-3264.9563L13139.0397,-3264.9026L13139.045,-3264.8699L13139.0484,-3264.8198L13139.0583,-3264.7512L13139.0583,-3264.746L13139.06,-3264.7385L13139.0649,-3264.7218L13139.0706,-3264.7061L13139.0773,-3264.6901L13139.0875,-3264.6672L13139.0889,-3264.6612L13139.0893,-3264.6514L13139.0945,-3264.617L13139.0902,-3264.5835L13139.0929,-3264.5557L13139.0875,-3264.5361L13139.0868,-3264.5337L13139.0853,-3264.5284L13139.0823,-3264.5178L13139.0795,-3264.5079L13139.0617,-3264.4389L13139.059,-3264.4209L13139.057,-3264.3906L13139.057,-3264.3499L13139.0573,-3264.3499L13139.0882,-3264.3442L13139.1792,-3264.3284L13139.1881,-3264.3269"/>
<path content="3,日之影町,畑野・末市線,0.3,0.0,0.0," xlink:title="3" d="M13136.8351,-3264.4846L13136.8159,-3264.4941L13136.7702,-3264.504L13136.7552,-3264.5064"/>
<path content="3,日之影町,畑野・末市線,0.3,0.0,0.0," xlink:title="3" d="M13136.7552,-3264.5064L13136.7382,-3264.5091L13136.7163,-3264.5108L13136.695,-3264.5091L13136.6484,-3264.4995L13136.6138,-3264.4961L13136.6018,-3264.4928L13136.5978,-3264.4905L13136.5872,-3264.4826L13136.5639,-3264.4449L13136.5519,-3264.4291L13136.5366,-3264.4133L13136.5233,-3264.4043L13136.5126,-3264.3992L13136.5013,-3264.3958L13136.4769,-3264.3922L13136.4746,-3264.3861L13136.469,-3264.3687L13136.4625,-3264.3534L13136.4553,-3264.3392L13136.4513,-3264.3323L13136.4461,-3264.3265L13136.4387,-3264.3226L13136.4241,-3264.3186L13136.3882,-3264.3186L13136.3768,-3264.3214L13136.3496,-3264.3361L13136.3303,-3264.3446L13136.3136,-3264.3496L13136.2943,-3264.3541L13136.2211,-3264.3688L13136.1186,-3264.394L13136.1066,-3264.3969L13136.0873,-3264.3992L13136.0733,-3264.3986L13136.056,-3264.3952L13136.0214,-3264.3851L13136.0014,-3264.3817L13135.9954,-3264.38L13135.9875,-3264.3738L13135.9815,-3264.3648L13135.9735,-3264.3378L13135.9715,-3264.3225L13135.9715,-3264.2859L13135.9775,-3264.2651L13135.9901,-3264.2307L13135.9961,-3264.2161L13135.9961,-3264.2093L13135.9941,-3264.1986L13135.9895,-3264.1901L13135.9628,-3264.1597L13135.9276,-3264.1202L13135.9196,-3264.1067L13135.9136,-3264.091L13135.9129,-3264.0639L13135.9156,-3264.038L13135.9243,-3263.9912L13135.9343,-3263.9614L13135.9356,-3263.9489L13135.9303,-3263.9388L13135.9136,-3263.9185L13135.887,-3263.8819L13135.8703,-3263.856L13135.8517,-3263.8188L13135.8424,-3263.8058L13135.8244,-3263.7901L13135.8098,-3263.7822L13135.7905,-3263.7754L13135.7705,-3263.7714L13135.7499,-3263.772L13135.7153,-3263.7759L13135.6747,-3263.7759L13135.6674,-3263.7748L13135.6427,-3263.7748L13135.6407,-3263.7754L13135.6054,-3263.7867L13135.5782,-3263.7929L13135.5459,-3263.7981L13135.5382,-3263.8002L13135.5216,-3263.8036L13135.5149,-3263.8058L13135.5081,-3263.8093L13135.5007,-3263.8157L13135.4912,-3263.8273L13135.4826,-3263.8389L13135.4717,-3263.851L13135.461,-3263.8611L13135.449,-3263.8656L13135.4384,-3263.8684L13135.3991,-3263.8706L13135.3805,-3263.8762L13135.3745,-3263.8808L13135.3498,-3263.9061L13135.3419,-3263.9112L13135.3279,-3263.9157L13135.3146,-3263.9174L13135.2973,-3263.9168L13135.2866,-3263.9129L13135.264,-3263.9016L13135.2539,-3263.8959"/>
<path content="3,日之影町,畑野・末市線,0.3,0.0,0.0," xlink:title="3" d="M13138.651,-3265.1367L13138.6524,-3265.1308L13138.6583,-3265.121L13138.665,-3265.11L13138.667,-3265.097L13138.6643,-3265.0699L13138.6597,-3265.0423L13138.6311,-3265.0378L13138.6111,-3265.0328L13138.6011,-3265.0311L13138.5998,-3265.0322L13138.5924,-3265.0339L13138.5658,-3265.0435L13138.5539,-3265.0412L13138.5465,-3265.0367L13138.5046,-3264.9984L13138.498,-3264.9933L13138.472,-3264.9815L13138.464,-3264.9809L13138.4434,-3264.9956L13138.4208,-3265.0068L13138.3994,-3265.0322L13138.3955,-3265.039L13138.3828,-3265.0508L13138.3735,-3265.057L13138.3642,-3265.0615L13138.3549,-3265.0621L13138.3209,-3265.0519L13138.3116,-3265.0479L13138.281,-3265.0406L13138.263,-3265.0389L13138.2337,-3265.0412L13138.1911,-3265.0406L13138.1492,-3265.0192L13138.1372,-3265.0147L13138.0773,-3265.0147L13138.0427,-3265.0107L13138.0261,-3265.0076L13138.0217,-3265.0036L13138.0148,-3264.9651L13138.0108,-3264.9572L13138.0041,-3264.9522L13137.9988,-3264.9505L13137.9928,-3264.9471L13137.9855,-3264.9459L13137.9562,-3264.9454L13137.9462,-3264.9409L13137.9296,-3264.9279L13137.9116,-3264.9127L13137.8976,-3264.9031L13137.8797,-3264.8936L13137.865,-3264.8891L13137.8257,-3264.8879L13137.7955,-3264.8817L13137.8073,-3264.8795L13137.8189,-3264.8737L13137.8242,-3264.8695L13137.8339,-3264.8619L13137.8387,-3264.853L13137.8399,-3264.8445L13137.8382,-3264.8347L13137.8334,-3264.8201L13137.8192,-3264.777L13137.8112,-3264.7611L13137.8048,-3264.7526L13137.7977,-3264.7471L13137.7917,-3264.7444L13137.7801,-3264.7432L13137.7698,-3264.744L13137.7594,-3264.7476L13137.7428,-3264.7589L13137.7169,-3264.7815L13137.7075,-3264.7859L13137.6954,-3264.7878L13137.6757,-3264.7871L13137.6682,-3264.7854L13137.6516,-3264.7748L13137.6315,-3264.7571L13137.6066,-3264.7261L13137.5962,-3264.719L13137.5789,-3264.7128L13137.5628,-3264.708L13137.5113,-3264.6927L13137.5004,-3264.6864L13137.493,-3264.6802L13137.4841,-3264.6708L13137.456,-3264.629L13137.4476,-3264.6212L13137.4354,-3264.6138L13137.4266,-3264.6109L13137.4154,-3264.6104L13137.4037,-3264.6112L13137.395,-3264.6028L13137.3876,-3264.5989L13137.3789,-3264.5958L13137.3716,-3264.5949L13137.362,-3264.5949L13137.3539,-3264.596L13137.3484,-3264.5989L13137.3461,-3264.6022L13137.3449,-3264.6066L13137.3449,-3264.6131L13137.3463,-3264.628L13137.3456,-3264.6331L13137.34,-3264.6479L13137.3393,-3264.653L13137.34,-3264.664L13137.3412,-3264.6693L13137.3446,-3264.6768L13137.3528,-3264.6966L13137.354,-3264.7024L13137.3552,-3264.7154L13137.3546,-3264.7238L13137.3518,-3264.7312L13137.3486,-3264.7348L13137.3448,-3264.7371L13137.3388,-3264.7386L13137.3331,-3264.7386L13137.3225,-3264.7362L13137.3124,-3264.7354L13137.281,-3264.7371L13137.2762,-3264.7359L13137.2731,-3264.7338L13137.2709,-3264.7307L13137.2699,-3264.7275L13137.2701,-3264.7229L13137.2723,-3264.7179L13137.2846,-3264.7004L13137.286,-3264.696L13137.2855,-3264.6927L13137.2829,-3264.6858L13137.2786,-3264.6784L13137.2614,-3264.6564L13137.2368,-3264.619L13137.2161,-3264.5705L13137.2068,-3264.5502L13137.1982,-3264.5344L13137.1912,-3264.522L13137.1869,-3264.5164L13137.1776,-3264.5085L13137.1563,-3264.4922L13137.1532,-3264.4884L13137.1443,-3264.4758L13137.1408,-3264.4728L13137.1356,-3264.4702L13137.1247,-3264.4693L13137.1103,-3264.4696L13137.0983,-3264.4725L13137.0571,-3264.486L13137.0444,-3264.4944L13137.0358,-3264.504L13137.0158,-3264.5373L13136.9972,-3264.5531L13136.9852,-3264.5592L13136.9606,-3264.566L13136.9426,-3264.5671L13136.9672,-3264.5474L13136.9832,-3264.5288L13136.9958,-3264.5113L13137.0158,-3264.4741L13137.0051,-3264.4708L13136.9898,-3264.4663L13136.9805,-3264.4657L13136.9526,-3264.4967L13136.9333,-3264.5136L13136.9206,-3264.5215L13136.9046,-3264.5282L13136.8953,-3264.5311L13136.8674,-3264.5322L13136.8447,-3264.5299L13136.7922,-3264.5164L13136.7552,-3264.5064"/>
<path content="3,日之影町,見立・仲組線,1.5,0.0,0.0," xlink:title="3" d="M13137.6392,-3265.1367L13137.6487,-3265.1347L13137.6587,-3265.1358L13137.6608,-3265.1367M13137.8246,-3265.1367L13137.8289,-3265.1346L13137.8322,-3265.1337L13137.8353,-3265.1338L13137.8381,-3265.1346L13137.8399,-3265.1367M13138.9309,-3265.1367L13138.9405,-3265.1167L13138.9658,-3265.0677L13138.9881,-3265.0346L13139.0051,-3265.0046L13139.0177,-3264.9792L13139.0239,-3264.9563L13139.0397,-3264.9026L13139.045,-3264.8699L13139.0484,-3264.8198L13139.0583,-3264.7512L13139.0583,-3264.746L13139.06,-3264.7385L13139.0649,-3264.7218L13139.0706,-3264.7061L13139.0773,-3264.6901L13139.0875,-3264.6672L13139.0889,-3264.6612L13139.0893,-3264.6514L13139.0945,-3264.617L13139.0902,-3264.5835L13139.0929,-3264.5557L13139.0875,-3264.5361L13139.0868,-3264.5337L13139.0853,-3264.5284L13139.0823,-3264.5178L13139.0795,-3264.5079L13139.0617,-3264.4389L13139.059,-3264.4209L13139.057,-3264.3906L13139.057,-3264.3495L13139.0886,-3264.3441L13139.1795,-3264.3283L13139.1881,-3264.3265L13139.1907,-3264.3411L13139.1947,-3264.3597L13139.2061,-3264.4357L13139.2202,-3264.5205L13139.2214,-3264.5276L13139.2254,-3264.5591L13139.2294,-3264.598L13139.2281,-3264.6244L13139.2235,-3264.6531L13139.2149,-3264.6824L13139.2142,-3264.6892L13139.1936,-3264.7704L13139.1796,-3264.8272L13139.1656,-3264.8796L13139.1614,-3264.8963L13139.1424,-3264.9444L13139.1085,-3265.029L13139.0832,-3265.0757L13139.0606,-3265.1146L13139.0479,-3265.1367"/>
</g>
</svg>
