<?xml version="1.0" encoding="UTF-8"?>
<svg  xmlns="http://www.w3.org/2000/svg" xmlns:xlink="http://www.w3.org/1999/xlink" xmlns:go="http://purl.org/svgmap/profile" property="N07_001,N07_002,N07_003,N07_004,N07_005,N07_006,N07_007" viewBox="13702.1484375 -3708.984375 8.7890625 8.7890625" go:dataArea="13702.1484375 -3708.984375 8.7890625 8.7890625" >
<metadata>
 <rdf:RDF xmlns:rdf="http://www.w3.org/1999/02/22-rdf-syntax-ns#" xmlns:crs="http://opengis.org/xmldtds/transformations.dtd" xmlns:svg="http://www.w3.org/svg" >
  <rdf:Description>
   <crs:CoordinateReferenceSystem rdf:resource="http://purl.org/crs/84" svg:transform="matrix(100.0,0.0,0.0,-100.0,0.0,0.0)" />
  </rdf:Description>
 </rdf:RDF>
</metadata>
<globalCoordinateSystem srsName="http://purl.org/crs/84" transform="matrix(100.0,0.0,0.0,-100.0,0.0,0.0)" />
<defs>
 <g id="p0" >
  <circle cx="0.0" cy="0.0" r="3" stroke="green" stroke-width="0.75" vector-effect="non-scaling-stroke" />
 </g>
</defs>
<g fill="none" fill-rule="evenodd" stroke="#FF00FF" stroke-width="0.75" opacity="0.5" vector-effect="non-scaling-stroke" stroke-linejoin="bevel" >
<path content="1,北鉄能登バス（株）,崎山,7.0,4.0,4.0," xlink:title="1" d="M13704.2597,-3708.9844L13704.2371,-3708.9597L13704.2232,-3708.9429L13704.2088,-3708.9238L13704.2038,-3708.9143L13704.201,-3708.9041L13704.1982,-3708.8607L13704.1982,-3708.8604L13704.1968,-3708.7971L13704.194,-3708.7814L13704.1891,-3708.7644L13704.1877,-3708.7633L13704.175,-3708.7216L13704.1701,-3708.6997L13704.1687,-3708.6862L13704.1715,-3708.6749L13704.1904,-3708.6513L13704.2033,-3708.6332L13704.2152,-3708.6101L13704.2201,-3708.5961L13704.2195,-3708.583L13704.2194,-3708.5809L13704.218,-3708.5764L13704.2131,-3708.569L13704.2047,-3708.5606L13704.1871,-3708.5487L13704.0916,-3708.4907L13704.0846,-3708.4846L13704.0783,-3708.4739L13704.0741,-3708.4654L13704.0741,-3708.4434L13704.0797,-3708.422L13704.0923,-3708.3916L13704.0944,-3708.3877L13704.0741,-3708.3449L13704.0723,-3708.3419L13704.0656,-3708.3297L13704.0474,-3708.3027L13703.9772,-3708.2165L13703.9617,-3708.2035L13703.9449,-3708.1945L13703.9392,-3708.1906L13703.8971,-3708.1698L13703.8613,-3708.1562L13703.8126,-3708.1456L13703.8093,-3708.145L13703.7848,-3708.1382L13703.7658,-3708.1303L13703.7454,-3708.114L13703.7237,-3708.0904L13703.7216,-3708.0881L13703.7012,-3708.0678L13703.5871,-3707.9759L13703.579,-3707.9698L13703.5011,-3707.9056L13703.466,-3707.8668L13703.4491,-3707.8499L13703.4365,-3707.8414L13703.4196,-3707.8352L13703.4056,-3707.8335L13703.3747,-3707.833L13703.3635,-3707.8318L13703.3396,-3707.8313L13703.2841,-3707.8239L13703.2462,-3707.8172L13703.2076,-3707.8076L13703.1921,-3707.8031L13703.1893,-3707.8009L13703.1584,-3707.7902L13703.1388,-3707.7809"/>
<path content="1,北鉄能登バス（株）,水上,9.0,7.0,7.0," xlink:title="1" d="M13702.1484,-3705.1839L13702.1769,-3705.1822L13702.2042,-3705.1788L13702.2387,-3705.1715L13702.2559,-3705.1585L13702.268,-3705.1497L13702.2958,-3705.1302L13702.3251,-3705.1073L13702.3363,-3705.0983L13702.3683,-3705.0761L13702.3877,-3705.0752L13702.4072,-3705.0743L13702.5335,-3705.0607L13702.5475,-3705.0597L13702.5745,-3705.07L13702.5905,-3705.0786L13702.5954,-3705.0808L13702.62,-3705.1011L13702.6284,-3705.1118L13702.6326,-3705.1208L13702.6354,-3705.154L13702.6354,-3705.1754L13702.6375,-3705.1901L13702.6431,-3705.2053L13702.6516,-3705.2188L13702.6838,-3705.2576L13702.7035,-3705.2644L13702.7211,-3705.2683L13702.7555,-3705.2734L13702.7836,-3705.2768L13702.8004,-3705.2768L13702.8131,-3705.2757L13702.8194,-3705.274L13702.8376,-3705.2717L13702.8692,-3705.265L13702.9128,-3705.252L13702.9366,-3705.2425L13702.9577,-3705.2306L13702.9809,-3705.2137L13702.9862,-3705.2109L13703.0886,-3705.1357L13703.2092,-3705.0471L13703.2182,-3705.0386L13703.2582,-3705.0059L13703.2765,-3704.9868L13703.2884,-3704.9704L13703.3334,-3704.8854L13703.3692,-3704.8263L13703.3854,-3704.8083L13703.3952,-3704.8015L13703.4184,-3704.7914L13703.4422,-3704.7824L13703.5574,-3704.7474L13703.5679,-3704.7452L13703.6037,-3704.7356L13703.6395,-3704.7266L13703.6824,-3704.7131L13703.7084,-3704.7058L13703.7238,-3704.7024L13703.7666,-3704.6945L13703.7856,-3704.6945L13703.8102,-3704.7007L13703.8151,-3704.703L13703.8214,-3704.7047L13703.86,-3704.7182L13703.9078,-3704.7373L13703.9148,-3704.7413L13703.9352,-3704.7492L13703.9471,-3704.7554L13703.9738,-3704.7672L13704.0251,-3704.7903L13704.0587,-3704.8066L13704.0838,-3704.8185L13704.1107,-3704.8314L13704.1261,-3704.837L13704.1514,-3704.8438L13704.183,-3704.8438L13704.2034,-3704.8421L13704.2294,-3704.8376L13704.2582,-3704.8303L13704.3207,-3704.8066L13704.3916,-3704.7756L13704.4225,-3704.7616L13704.4274,-3704.7604L13704.473,-3704.7424L13704.5025,-3704.7317L13704.5446,-3704.7199L13704.5552,-3704.7205L13704.5643,-3704.7216L13704.5868,-3704.7289L13704.6436,-3704.752L13704.6563,-3704.7559L13704.6731,-3704.7593L13704.6781,-3704.761L13704.7068,-3704.7621L13704.7146,-3704.761L13704.7272,-3704.761L13704.739,-3704.751L13704.7673,-3704.7109L13704.7673,-3704.6951L13704.7642,-3704.6807L13704.7574,-3704.6467L13704.7441,-3704.5938L13704.7293,-3704.5487L13704.7209,-3704.5251L13704.7091,-3704.4874L13704.6862,-3704.4074L13704.6631,-3704.3274L13704.6549,-3704.2994L13704.643,-3704.2576L13704.6409,-3704.2333L13704.6338,-3704.2058L13704.6338,-3704.2024L13704.6444,-3704.177L13704.6633,-3704.1449L13704.6732,-3704.1308L13704.6668,-3704.1123L13704.6661,-3704.0971L13704.6626,-3704.0717L13704.6619,-3704.0576L13704.664,-3704.0346L13704.6676,-3704.016L13704.6689,-3704.0137L13704.6689,-3703.9957L13704.6634,-3703.9687L13704.657,-3703.9428L13704.6584,-3703.9315L13704.6493,-3703.9259L13704.6142,-3703.9128L13704.603,-3703.9056L13704.6016,-3703.9039L13704.5896,-3703.8966L13704.5833,-3703.8904L13704.5735,-3703.8769L13704.5594,-3703.8498L13704.5482,-3703.8251L13704.544,-3703.8098L13704.5426,-3703.7885L13704.5471,-3703.7645L13704.5573,-3703.7248L13704.5629,-3703.6888L13704.5679,-3703.6488L13704.5749,-3703.5992L13704.5819,-3703.5536L13704.5963,-3703.5209L13704.6086,-3703.4787L13704.6353,-3703.4478L13704.6684,-3703.411L13704.7013,-3703.3711L13704.7146,-3703.3515L13704.7203,-3703.334L13704.7244,-3703.1757L13704.7231,-3703.1498L13704.7189,-3703.1358L13704.7083,-3703.1144L13704.6866,-3703.0834L13704.6585,-3703.0417L13704.6536,-3703.0316L13704.6501,-3703.0107L13704.6507,-3702.9803L13704.6557,-3702.9556L13704.6634,-3702.937L13704.6936,-3702.8885L13704.7378,-3702.8249L13704.7526,-3702.8029L13704.7688,-3702.7819L13704.7975,-3702.7455L13704.8256,-3702.7106L13704.8396,-3702.6943L13704.8719,-3702.6481L13704.8881,-3702.6306L13704.9471,-3702.5799L13704.9633,-3702.5602L13704.9759,-3702.5399L13705.0026,-3702.4848L13705.0082,-3702.4707L13705.0159,-3702.4431L13705.0222,-3702.4082L13705.0222,-3702.371L13705.0173,-3702.3367L13705.0131,-3702.3175L13705.0103,-3702.2978L13705.0089,-3702.2809L13705.0089,-3702.2505L13705.0145,-3702.2184L13705.0257,-3702.1869L13705.0304,-3702.1753L13705.0356,-3702.1677L13705.0728,-3702.1114L13705.084,-3702.0894L13705.0939,-3702.0579L13705.0953,-3702.0483L13705.096,-3702.0134L13705.0932,-3702.001L13705.0819,-3701.97L13705.0405,-3701.8749L13705.0159,-3701.8236L13705.0095,-3701.8102L13705.003,-3701.7982L13704.9447,-3701.6875L13704.9381,-3701.6729L13704.9324,-3701.6547L13704.8931,-3701.5567L13704.886,-3701.5449L13704.8748,-3701.5302L13704.8615,-3701.5173L13704.8018,-3701.466L13704.7561,-3701.4339L13704.7442,-3701.426L13704.7203,-3701.4069L13704.6719,-3701.3641L13704.655,-3701.3449L13704.6424,-3701.3264L13704.6375,-3701.3151L13704.6326,-3701.3044L13704.6199,-3701.2633L13704.6115,-3701.2379L13704.606,-3701.22L13704.6012,-3701.1956L13704.6002,-3701.1648L13704.6004,-3701.1598L13704.601,-3701.1467L13704.6101,-3701.0994L13704.6136,-3701.0763L13704.6143,-3701.0696L13704.6206,-3701.0335L13704.6227,-3701.0239L13704.6277,-3700.9918L13704.6346,-3700.9445L13704.6389,-3700.9153L13704.6473,-3700.8544L13704.6473,-3700.8477L13704.6501,-3700.8353L13704.66,-3700.7654L13704.6902,-3700.5543L13704.7042,-3700.4647L13704.7056,-3700.4585L13704.7042,-3700.4337L13704.6972,-3700.409L13704.6958,-3700.3932L13704.7,-3700.3639L13704.7023,-3700.3569L13704.7033,-3700.3484L13704.7056,-3700.3375L13704.7147,-3700.311L13704.72,-3700.3009L13704.7702,-3700.2243L13704.7856,-3700.204L13704.791,-3700.1953"/>
<path content="1,北鉄能登バス（株）,百海,5.0,3.0,3.0," xlink:title="1" d="M13702.1484,-3705.1839L13702.1769,-3705.1822L13702.2042,-3705.1788L13702.2387,-3705.1715L13702.2559,-3705.1585L13702.268,-3705.1497L13702.2958,-3705.1302L13702.3251,-3705.1073L13702.3363,-3705.0983L13702.3683,-3705.0761L13702.3877,-3705.0752L13702.4072,-3705.0743L13702.5335,-3705.0607L13702.5475,-3705.0597L13702.5745,-3705.07L13702.5905,-3705.0786L13702.5954,-3705.0808L13702.62,-3705.1011L13702.6284,-3705.1118L13702.6326,-3705.1208L13702.6354,-3705.154L13702.6354,-3705.1754L13702.6375,-3705.1901L13702.6431,-3705.2053L13702.6516,-3705.2188L13702.6838,-3705.2576L13702.7035,-3705.2644L13702.7211,-3705.2683L13702.7555,-3705.2734L13702.7836,-3705.2768L13702.8004,-3705.2768L13702.8131,-3705.2757L13702.8194,-3705.274L13702.8376,-3705.2717L13702.8692,-3705.265L13702.9128,-3705.252L13702.9366,-3705.2425L13702.9577,-3705.2306L13702.9809,-3705.2137L13702.9862,-3705.2109L13703.0886,-3705.1357L13703.2092,-3705.0471L13703.2182,-3705.0386L13703.2582,-3705.0059L13703.2765,-3704.9868L13703.2884,-3704.9704L13703.3334,-3704.8854L13703.3692,-3704.8263L13703.3854,-3704.8083L13703.3952,-3704.8015L13703.4184,-3704.7914L13703.4422,-3704.7824L13703.5574,-3704.7474L13703.5679,-3704.7452L13703.6037,-3704.7356L13703.6395,-3704.7266L13703.6824,-3704.7131L13703.7084,-3704.7058L13703.7238,-3704.7024L13703.7666,-3704.6945L13703.7856,-3704.6945L13703.8102,-3704.7007L13703.8151,-3704.703L13703.8214,-3704.7047L13703.86,-3704.7182L13703.9078,-3704.7373L13703.9148,-3704.7413L13703.9352,-3704.7492L13703.9471,-3704.7554L13703.9738,-3704.7672L13704.0251,-3704.7903L13704.0587,-3704.8066L13704.0838,-3704.8185L13704.1107,-3704.8314L13704.1261,-3704.837L13704.1514,-3704.8438L13704.183,-3704.8438L13704.2034,-3704.8421L13704.2294,-3704.8376L13704.2582,-3704.8303L13704.3207,-3704.8066L13704.3916,-3704.7756L13704.4225,-3704.7616L13704.4274,-3704.7604L13704.473,-3704.7424L13704.5025,-3704.7317L13704.5446,-3704.7199L13704.5552,-3704.7205L13704.5643,-3704.7216L13704.5868,-3704.7289L13704.6436,-3704.752L13704.6563,-3704.7559L13704.6731,-3704.7593L13704.6781,-3704.761L13704.7068,-3704.7621L13704.7146,-3704.761L13704.7272,-3704.761"/>
<path content="1,北鉄能登バス（株）,百海,5.0,3.0,3.0," xlink:title="1" d="M13704.7272,-3704.761L13704.739,-3704.751"/>
<path content="1,北鉄能登バス（株）,百海,5.0,3.0,3.0," xlink:title="1" d="M13704.7272,-3704.761L13704.7314,-3704.7723L13704.7865,-3704.8842L13704.7939,-3704.8999L13704.7995,-3704.9114L13704.8003,-3704.9395L13704.7988,-3704.9564L13704.8007,-3704.9714L13704.8079,-3704.9897L13704.8339,-3705.0437L13704.8522,-3705.0707L13704.8557,-3705.0843L13704.8543,-3705.1023L13704.8487,-3705.1361L13704.8487,-3705.1749L13704.8578,-3705.2222L13704.8634,-3705.2481L13704.8739,-3705.2842L13704.8782,-3705.2909L13704.8887,-3705.2994L13704.9049,-3705.3067L13704.9266,-3705.3191L13704.9329,-3705.3258L13704.9386,-3705.3382L13704.9456,-3705.3456L13704.9519,-3705.3501L13704.9617,-3705.3551L13704.9681,-3705.3624L13704.9723,-3705.3703L13704.9723,-3705.3929L13704.9709,-3705.4081L13704.9673,-3705.4593L13704.9666,-3705.4796L13704.9652,-3705.5235L13704.9617,-3705.6373L13704.961,-3705.644L13704.9428,-3705.6874L13704.9235,-3705.7233L13704.921,-3705.7279L13704.8964,-3705.7634L13704.8725,-3705.7944L13704.8571,-3705.8231L13704.8522,-3705.84L13704.8507,-3705.8546L13704.8494,-3705.8688L13704.8503,-3705.8767L13704.8501,-3705.889L13704.8479,-3705.9121L13704.8493,-3705.9667L13704.8514,-3705.9814L13704.8557,-3705.9904L13704.8655,-3706.0028L13704.8732,-3706.0101L13704.8936,-3706.0208L13704.9048,-3706.0326L13704.9126,-3706.045L13704.9231,-3706.0675L13704.9336,-3706.0979L13704.9399,-3706.1126L13704.9477,-3706.1221L13704.9561,-3706.1289L13704.9589,-3706.1312L13704.9715,-3706.1368L13704.9968,-3706.1419L13705.0263,-3706.1447L13705.041,-3706.1486L13705.0466,-3706.1509L13705.0558,-3706.1593L13705.1351,-3706.2489L13705.1703,-3706.3001L13705.178,-3706.3153L13705.1843,-3706.3339L13705.192,-3706.3677L13705.1962,-3706.4161L13705.1976,-3706.4814L13705.1946,-3706.5984L13705.1941,-3706.6265L13705.1934,-3706.6487L13705.1976,-3706.7101L13705.2011,-3706.7394L13705.2053,-3706.7585L13705.2131,-3706.7771L13705.2256,-3706.7972L13705.2554,-3706.8361L13705.2664,-3706.8531L13705.2814,-3706.8815L13705.2819,-3706.8824L13705.2945,-3706.9128L13705.3099,-3706.9562L13705.3247,-3707.0063L13705.3345,-3707.0435L13705.3429,-3707.0829L13705.3436,-3707.1015L13705.3352,-3707.1263L13705.3233,-3707.1477L13705.2566,-3707.2417L13705.2425,-3707.2637L13705.2299,-3707.2896L13705.2278,-3707.307L13705.2299,-3707.3194L13705.2369,-3707.3307L13705.2524,-3707.3419L13705.2713,-3707.3504L13705.3507,-3707.3797L13705.3626,-3707.3859L13705.3675,-3707.3915L13705.3935,-3707.4315L13705.4131,-3707.4687L13705.4202,-3707.4872L13705.4251,-3707.5098L13705.4244,-3707.5216L13705.4131,-3707.5424L13705.3991,-3707.565L13705.3886,-3707.5824L13705.3844,-3707.5877L13705.3815,-3707.5914L13705.3731,-3707.6016L13705.3569,-3707.6128L13705.3015,-3707.6601L13705.2615,-3707.6967L13705.232,-3707.7238L13705.2246,-3707.734"/>
<path content="1,北鉄能登バス（株）,脇,9.0,7.0,7.0," xlink:title="1" d="M13702.1484,-3705.1839L13702.1769,-3705.1822L13702.2042,-3705.1788L13702.2387,-3705.1715L13702.2559,-3705.1585L13702.268,-3705.1497L13702.2958,-3705.1302L13702.3251,-3705.1073L13702.3363,-3705.0983L13702.3683,-3705.0761L13702.3877,-3705.0752L13702.4072,-3705.0743L13702.5335,-3705.0607L13702.5475,-3705.0597L13702.5745,-3705.07L13702.5905,-3705.0786L13702.5954,-3705.0808L13702.62,-3705.1011L13702.6284,-3705.1118L13702.6326,-3705.1208L13702.6354,-3705.154L13702.6354,-3705.1754L13702.6375,-3705.1901L13702.6431,-3705.2053L13702.6516,-3705.2188L13702.6838,-3705.2576L13702.7035,-3705.2644L13702.7211,-3705.2683L13702.7555,-3705.2734L13702.7836,-3705.2768L13702.8004,-3705.2768L13702.8131,-3705.2757L13702.8194,-3705.274L13702.8376,-3705.2717L13702.8692,-3705.265L13702.9128,-3705.252L13702.9366,-3705.2425L13702.9577,-3705.2306L13702.9809,-3705.2137L13702.9862,-3705.2109L13703.0886,-3705.1357L13703.2092,-3705.0471L13703.2182,-3705.0386L13703.2582,-3705.0059L13703.2765,-3704.9868L13703.2884,-3704.9704L13703.3334,-3704.8854L13703.3692,-3704.8263L13703.3854,-3704.8083L13703.3952,-3704.8015L13703.4184,-3704.7914L13703.4422,-3704.7824L13703.5574,-3704.7474L13703.5679,-3704.7452L13703.6037,-3704.7356L13703.6395,-3704.7266L13703.6824,-3704.7131L13703.7084,-3704.7058L13703.7238,-3704.7024L13703.7666,-3704.6945L13703.7856,-3704.6945L13703.8102,-3704.7007L13703.8151,-3704.703L13703.8214,-3704.7047L13703.86,-3704.7182L13703.9078,-3704.7373L13703.9148,-3704.7413L13703.9352,-3704.7492L13703.9471,-3704.7554L13703.9738,-3704.7672L13704.0251,-3704.7903L13704.0587,-3704.8066L13704.0838,-3704.8185L13704.1107,-3704.8314L13704.1261,-3704.837L13704.1514,-3704.8438L13704.183,-3704.8438L13704.2034,-3704.8421L13704.2294,-3704.8376L13704.2582,-3704.8303L13704.3207,-3704.8066L13704.3916,-3704.7756L13704.4225,-3704.7616L13704.4274,-3704.7604L13704.473,-3704.7424L13704.5025,-3704.7317L13704.5446,-3704.7199L13704.5552,-3704.7205L13704.5643,-3704.7216L13704.5868,-3704.7289L13704.6436,-3704.752L13704.6563,-3704.7559L13704.6731,-3704.7593L13704.6781,-3704.761L13704.7068,-3704.7621L13704.7146,-3704.761L13704.7272,-3704.761L13704.739,-3704.751L13704.7673,-3704.7109L13704.7673,-3704.6951L13704.7642,-3704.6807L13704.7574,-3704.6467L13704.7441,-3704.5938L13704.7293,-3704.5487L13704.7209,-3704.5251L13704.7091,-3704.4874L13704.6862,-3704.4074L13704.6631,-3704.3274L13704.6549,-3704.2994L13704.643,-3704.2576L13704.6409,-3704.2333L13704.6338,-3704.2058L13704.6338,-3704.2024L13704.6444,-3704.177L13704.6633,-3704.1449L13704.6732,-3704.1308L13704.6668,-3704.1123L13704.6661,-3704.0971L13704.6626,-3704.0717L13704.6619,-3704.0576L13704.664,-3704.0346L13704.6676,-3704.016L13704.6689,-3704.0137L13704.6689,-3703.9957L13704.6634,-3703.9687L13704.657,-3703.9428L13704.6584,-3703.9315L13704.6493,-3703.9259L13704.6142,-3703.9128L13704.603,-3703.9056L13704.6016,-3703.9039L13704.5896,-3703.8966L13704.5833,-3703.8904L13704.5735,-3703.8769L13704.5594,-3703.8498L13704.5482,-3703.8251L13704.544,-3703.8098L13704.5426,-3703.7885L13704.5471,-3703.7645L13704.5573,-3703.7248L13704.5629,-3703.6888L13704.5679,-3703.6488L13704.5749,-3703.5992L13704.5819,-3703.5536L13704.5963,-3703.5209L13704.6086,-3703.4787L13704.6353,-3703.4478L13704.6684,-3703.411L13704.7013,-3703.3711L13704.7146,-3703.3515L13704.7203,-3703.334L13704.7244,-3703.1757L13704.7231,-3703.1498L13704.7189,-3703.1358L13704.7083,-3703.1144L13704.6866,-3703.0834L13704.6585,-3703.0417L13704.6536,-3703.0316L13704.6501,-3703.0107L13704.6507,-3702.9803L13704.6557,-3702.9556L13704.6634,-3702.937L13704.6936,-3702.8885L13704.7378,-3702.8249L13704.7526,-3702.8029L13704.7688,-3702.7819L13704.7975,-3702.7455L13704.8256,-3702.7106L13704.8396,-3702.6943L13704.8719,-3702.6481L13704.8881,-3702.6306L13704.9471,-3702.5799L13704.9633,-3702.5602L13704.9759,-3702.5399L13705.0026,-3702.4848L13705.0082,-3702.4707L13705.0159,-3702.4431L13705.0222,-3702.4082L13705.0222,-3702.371L13705.0173,-3702.3367L13705.0131,-3702.3175L13705.0103,-3702.2978L13705.0089,-3702.2809L13705.0089,-3702.2505L13705.0145,-3702.2184L13705.0257,-3702.1869L13705.0304,-3702.1753L13705.0356,-3702.1677L13705.0728,-3702.1114L13705.084,-3702.0894L13705.0939,-3702.0579L13705.0953,-3702.0483L13705.096,-3702.0134L13705.0932,-3702.001L13705.0819,-3701.97L13705.0405,-3701.8749L13705.0159,-3701.8236L13705.0095,-3701.8102L13705.003,-3701.7982L13704.9447,-3701.6875L13704.9381,-3701.6729L13704.9324,-3701.6547L13704.8931,-3701.5567L13704.886,-3701.5449L13704.8748,-3701.5302L13704.8615,-3701.5173L13704.8018,-3701.466L13704.7561,-3701.4339L13704.7442,-3701.426L13704.7203,-3701.4069L13704.6719,-3701.3641L13704.655,-3701.3449L13704.6424,-3701.3264L13704.6375,-3701.3151L13704.6326,-3701.3044L13704.6199,-3701.2633L13704.6115,-3701.2379L13704.606,-3701.22L13704.6012,-3701.1956L13704.6002,-3701.1648L13704.6004,-3701.1598L13704.601,-3701.1467L13704.6101,-3701.0994L13704.6136,-3701.0763L13704.6143,-3701.0696L13704.6206,-3701.0335L13704.6227,-3701.0239L13704.6277,-3700.9918L13704.6346,-3700.9445L13704.6389,-3700.9153L13704.6473,-3700.8544L13704.6473,-3700.8477L13704.6501,-3700.8353L13704.66,-3700.7654L13704.6902,-3700.5543L13704.7042,-3700.4647L13704.7056,-3700.4585L13704.7042,-3700.4337L13704.6972,-3700.409L13704.6958,-3700.3932L13704.7,-3700.3639L13704.7023,-3700.3569L13704.7033,-3700.3484L13704.7056,-3700.3375L13704.7147,-3700.311L13704.72,-3700.3009L13704.7702,-3700.2243L13704.7856,-3700.204L13704.791,-3700.1953"/>
</g>
</svg>
