<?xml version="1.0" encoding="UTF-8"?>
<svg  xmlns="http://www.w3.org/2000/svg" xmlns:xlink="http://www.w3.org/1999/xlink" xmlns:go="http://purl.org/svgmap/profile" property="N07_001,N07_002,N07_003,N07_004,N07_005,N07_006,N07_007" viewBox="13056.15234375 -3339.84375 4.39453125 4.39453125" go:dataArea="13056.15234375 -3339.84375 4.39453125 4.39453125" >
<metadata>
 <rdf:RDF xmlns:rdf="http://www.w3.org/1999/02/22-rdf-syntax-ns#" xmlns:crs="http://opengis.org/xmldtds/transformations.dtd" xmlns:svg="http://www.w3.org/svg" >
  <rdf:Description>
   <crs:CoordinateReferenceSystem rdf:resource="http://purl.org/crs/84" svg:transform="matrix(100.0,0.0,0.0,-100.0,0.0,0.0)" />
  </rdf:Description>
 </rdf:RDF>
</metadata>
<globalCoordinateSystem srsName="http://purl.org/crs/84" transform="matrix(100.0,0.0,0.0,-100.0,0.0,0.0)" />
<defs>
 <g id="p0" >
  <circle cx="0.0" cy="0.0" r="3" stroke="green" stroke-width="0.75" vector-effect="non-scaling-stroke" />
 </g>
</defs>
<g fill="none" fill-rule="evenodd" stroke="#FF00FF" stroke-width="0.75" opacity="0.5" vector-effect="non-scaling-stroke" stroke-linejoin="bevel" >
<path content="1,九州産交バス（株）,福岡～黒川温泉,2.0,2.0,2.0," xlink:title="1" d="M13060.2622,-3339.8438L13060.3278,-3339.8027L13060.4149,-3339.7514L13060.5318,-3339.6883L13060.5469,-3339.6809"/>
<path content="1,亀の井バス（株）,とよのくに号ノンストップ,16.0,16.0,16.0," xlink:title="1" d="M13060.5469,-3339.6809L13060.5318,-3339.6883L13060.4149,-3339.7514L13060.3278,-3339.8027L13060.2622,-3339.8438"/>
<path content="1,亀の井バス（株）,とよのくに号ノンストップ福岡空港経由,16.0,14.0,14.0," xlink:title="1" d="M13060.5469,-3339.6809L13060.5318,-3339.6883L13060.4149,-3339.7514L13060.3278,-3339.8027L13060.2622,-3339.8438"/>
<path content="1,亀の井バス（株）,長崎～大分・別府（サンライト号ノンストップ）,2.0,2.0,2.0," xlink:title="1" d="M13060.2622,-3339.8438L13060.3278,-3339.8027L13060.4149,-3339.7514L13060.5318,-3339.6883L13060.5469,-3339.6809"/>
<path content="1,亀の井バス（株）,長崎～大分・別府（サンライト号）,3.0,3.0,3.0," xlink:title="1" d="M13060.2622,-3339.8438L13060.3278,-3339.8027L13060.4149,-3339.7514L13060.5318,-3339.6883L13060.5469,-3339.6809"/>
<path content="1,大分バス（株）,長崎～大分・別府（サンライト号スーパーノンストップ）,2.0,2.0,2.0," xlink:title="1" d="M13060.2622,-3339.8438L13060.3278,-3339.8027L13060.4149,-3339.7514L13060.5318,-3339.6883L13060.5469,-3339.6809"/>
<path content="1,大分交通（株）,福岡線,68.0,68.0,68.0," xlink:title="1" d="M13060.5469,-3339.6809L13060.5318,-3339.6883L13060.4149,-3339.7514L13060.3278,-3339.8027L13060.2622,-3339.8438"/>
<path content="1,大分交通（株）,長崎～大分・別府（サンライト号ノンストップ）,2.0,2.0,2.0," xlink:title="1" d="M13060.2622,-3339.8438L13060.3278,-3339.8027L13060.4149,-3339.7514L13060.5318,-3339.6883L13060.5469,-3339.6809"/>
<path content="1,日田バス（株）,福岡・長崎～大分,8.0,8.0,8.0," xlink:title="1" d="M13060.5469,-3339.6809L13060.5318,-3339.6883L13060.4149,-3339.7514L13060.3278,-3339.8027L13060.2622,-3339.8438"/>
<path content="1,日田バス（株）,長崎～大分・別府（サンライト号）,3.0,3.0,3.0," xlink:title="1" d="M13060.2622,-3339.8438L13060.3278,-3339.8027L13060.4149,-3339.7514L13060.5318,-3339.6883L13060.5469,-3339.6809"/>
<path content="1,臼津交通（株）,津久見駅-川内,2.0,0.5,0.5," xlink:title="1" d="M13060.5469,-3339.6809L13060.5318,-3339.6883L13060.4149,-3339.7514L13060.3278,-3339.8027L13060.2622,-3339.8438"/>
<path content="1,西日本鉄道（株）,福岡・北九州　～　大阪・京都,1.0,1.0,1.0," xlink:title="1" d="M13060.2622,-3339.8438L13060.3278,-3339.8027L13060.4149,-3339.7514L13060.5318,-3339.6883L13060.5469,-3339.6809"/>
<path content="1,西日本鉄道（株）,福岡空港～日田（ひた号・福岡空港通過）,28.0,27.0,27.0," xlink:title="1" d="M13060.2622,-3339.8438L13060.3278,-3339.8027L13060.4149,-3339.7514L13060.5318,-3339.6883L13060.5469,-3339.6809"/>
<path content="1,西日本鉄道（株）,福岡～別府（ノンストップ福岡空港経由）,8.0,8.0,8.0," xlink:title="1" d="M13060.2622,-3339.8438L13060.3278,-3339.8027L13060.4149,-3339.7514L13060.5318,-3339.6883L13060.5469,-3339.6809"/>
<path content="1,西日本鉄道（株）,福岡～別府（ノンストップ）,3.0,3.0,3.0," xlink:title="1" d="M13060.2622,-3339.8438L13060.3278,-3339.8027L13060.4149,-3339.7514L13060.5318,-3339.6883L13060.5469,-3339.6809"/>
<path content="1,西日本鉄道（株）,福岡～大分（スーパーノンストップ）,40.0,40.0,40.0," xlink:title="1" d="M13060.2622,-3339.8438L13060.3278,-3339.8027L13060.4149,-3339.7514L13060.5318,-3339.6883L13060.5469,-3339.6809"/>
<path content="1,西日本鉄道（株）,福岡･福岡空港～日田（ひた号・福岡空港経由）,18.0,20.0,20.0," xlink:title="1" d="M13060.2622,-3339.8438L13060.3278,-3339.8027L13060.4149,-3339.7514L13060.5318,-3339.6883L13060.5469,-3339.6809"/>
<path content="1,西鉄バス久留米（株）,22,11.0,17.0,17.0," xlink:title="1" d="M13058.711,-3335.4492L13058.7176,-3335.6656L13058.7135,-3335.9127L13058.711,-3336.1329L13058.2345,-3336.1236"/>
<path content="1,西鉄バス北九州（株）,高速北九州-別府・大分,0.0,2.3,2.3," xlink:title="1" d="M13060.2622,-3339.8438L13060.3278,-3339.8027L13060.4149,-3339.7514L13060.5318,-3339.6883L13060.5469,-3339.6809"/>
<path content="1,西鉄観光バス（株）,福岡～大分（スーパーノンストップ）,40.0,40.0,40.0," xlink:title="1" d="M13060.2622,-3339.8438L13060.3278,-3339.8027L13060.4149,-3339.7514L13060.5318,-3339.6883L13060.5469,-3339.6809"/>
<path content="1,西鉄高速バス（株）,福岡　～　臼杵･津久見･佐伯（期間限定）,2.0,2.0,2.0," xlink:title="1" d="M13060.2622,-3339.8438L13060.3278,-3339.8027L13060.4149,-3339.7514L13060.5318,-3339.6883L13060.5469,-3339.6809"/>
<path content="1,長崎自動車（株）,長崎～大分・別府（サンライト号スーパーノンストップ）,2.0,2.0,2.0," xlink:title="1" d="M13060.2622,-3339.8438L13060.3278,-3339.8027L13060.4149,-3339.7514L13060.5318,-3339.6883L13060.5469,-3339.6809"/>
<path content="2,長崎県,長崎～大分・別府（サンライト号ノンストップ）,2.0,2.0,2.0," xlink:title="2" d="M13060.2622,-3339.8438L13060.3278,-3339.8027L13060.4149,-3339.7514L13060.5318,-3339.6883L13060.5469,-3339.6809"/>
<path content="2,長崎県,長崎～大分・別府（サンライト号）,3.0,3.0,3.0," xlink:title="2" d="M13060.2622,-3339.8438L13060.3278,-3339.8027L13060.4149,-3339.7514L13060.5318,-3339.6883L13060.5469,-3339.6809"/>
<path content="3,小郡市,①古飯・今朝丸ルート,2.0,2.0,2.0," xlink:title="3" d="M13056.1523,-3337.7729L13056.2123,-3337.772L13056.3655,-3337.7691L13056.6621,-3337.7706L13056.6831,-3337.7701L13056.8627,-3337.7725L13057.0799,-3337.777L13057.1157,-3337.7775L13057.1838,-3337.7758L13057.2772,-3337.7755L13057.3687,-3337.774L13057.3981,-3337.772L13057.4333,-3337.7676L13057.4533,-3337.7651L13057.4919,-3337.7583L13057.5366,-3337.7484L13057.5707,-3337.7415L13057.6546,-3337.7228L13057.6217,-3337.5796L13057.6159,-3337.554L13057.583,-3337.4058L13057.5695,-3337.3458L13057.5466,-3337.2267L13057.5349,-3337.1735L13057.5225,-3337.1184L13057.5196,-3337.0997L13057.5178,-3337.0323L13057.5143,-3336.9259L13057.4415,-3336.9304L13057.3562,-3336.9337L13057.2989,-3336.9318L13057.2572,-3336.9318L13057.1785,-3336.9289L13057.1327,-3336.9245L13057.104,-3336.9181L13057.04,-3336.8994L13057.0159,-3336.8935L13056.9919,-3336.8846L13056.9731,-3336.8762L13056.9649,-3336.8693L13056.9631,-3336.86L13056.9607,-3336.8275L13056.9596,-3336.8117L13056.9594,-3336.802L13056.9578,-3336.7832L13056.9566,-3336.7729L13056.9514,-3336.7615L13056.9326,-3336.7458L13056.9003,-3336.7197L13056.8844,-3336.7128L13056.8645,-3336.7069L13056.8275,-3336.6995L13056.7888,-3336.6961L13056.7653,-3336.6931L13056.7406,-3336.6872L13056.6713,-3336.6651L13056.6344,-3336.6577L13056.6003,-3336.6523L13056.5222,-3336.6434L13056.4547,-3336.6355L13056.3743,-3336.6301L13056.3238,-3336.6301L13056.1933,-3336.6327L13056.1612,-3336.6291L13056.1523,-3336.6267"/>
<path content="3,小郡市,①古飯・今朝丸ルート,2.0,2.0,2.0," xlink:title="3" d="M13056.1523,-3339.7598L13056.1753,-3339.7655L13056.2208,-3339.7755L13056.3191,-3339.7999L13056.4179,-3339.8198L13056.4146,-3339.8075L13056.4107,-3339.7905L13056.4076,-3339.77L13056.4061,-3339.75L13056.4054,-3339.7266L13056.4048,-3339.7005L13056.4038,-3339.6747"/>
<path content="3,小郡市,②端間・大原ルート,3.5,3.5,3.5," xlink:title="3" d="M13056.1523,-3339.7598L13056.1753,-3339.7655L13056.2208,-3339.7755L13056.3191,-3339.7999L13056.4179,-3339.8198L13056.4146,-3339.8075L13056.4107,-3339.7905L13056.4076,-3339.77L13056.4061,-3339.75L13056.4054,-3339.7266L13056.4048,-3339.7005L13056.4038,-3339.6747"/>
<path content="3,小郡市,③横隈・津古ルート,4.0,4.0,4.0," xlink:title="3" d="M13056.1523,-3339.7598L13056.1753,-3339.7655L13056.2208,-3339.7755L13056.3191,-3339.7999L13056.4179,-3339.8198L13056.4146,-3339.8075L13056.4107,-3339.7905L13056.4076,-3339.77L13056.4061,-3339.75L13056.4054,-3339.7266L13056.4048,-3339.7005L13056.4038,-3339.6747"/>
<path content="3,小郡市,④下岩田・乙隈ルート,2.0,2.0,2.0," xlink:title="3" d="M13056.1523,-3338.9679L13056.1626,-3338.9684L13056.2442,-3338.966L13056.324,-3338.9614L13056.3571,-3338.9585L13056.3819,-3338.955L13056.4087,-3338.9481L13056.4617,-3338.9239L13056.5925,-3338.865L13056.6628,-3338.8333L13056.7289,-3338.8033L13056.7633,-3338.7888L13056.7956,-3338.7761L13056.8142,-3338.7721L13056.8431,-3338.7681L13056.8679,-3338.7692L13056.9087,-3338.7718L13056.9335,-3338.7741L13056.9528,-3338.7761L13056.969,-3338.7796L13056.9769,-3338.7819L13056.9855,-3338.7842L13056.9927,-3338.7859L13057.0062,-3338.7868L13057.0277,-3338.7859L13057.0566,-3338.7836L13057.0889,-3338.7807L13057.122,-3338.7779L13057.1495,-3338.775L13057.1798,-3338.7715L13057.2156,-3338.7675L13057.2528,-3338.764L13057.2886,-3338.76L13057.3148,-3338.7577L13057.345,-3338.7542L13057.3767,-3338.7502L13057.4029,-3338.745L13057.4256,-3338.7415L13057.449,-3338.7369L13057.4807,-3338.7311L13057.5179,-3338.723L13057.5509,-3338.7167L13057.5681,-3338.7132L13057.5849,-3338.7111L13057.6025,-3338.7063L13057.6301,-3338.7023L13057.6299,-3338.7323L13057.6502,-3338.7334L13057.664,-3338.736L13057.6774,-3338.7409L13057.6922,-3338.7479L13057.706,-3338.7562L13057.7204,-3338.7631L13057.7339,-3338.7704L13057.7456,-3338.7761L13057.7562,-3338.7816L13057.7649,-3338.7839L13057.7886,-3338.7831L13057.8165,-3338.7796L13057.8488,-3338.7776L13057.8633,-3338.7758L13057.8754,-3338.7758L13057.8871,-3338.7793L13057.905,-3338.7865L13057.9187,-3338.7911L13057.9311,-3338.7937L13057.9442,-3338.7955L13057.9566,-3338.7978L13057.9673,-3338.8004L13057.9762,-3338.8027L13057.9865,-3338.8058L13057.9934,-3338.8093L13058,-3338.8119L13058.0099,-3338.8216L13058.0237,-3338.8286L13058.0351,-3338.839L13058.0461,-3338.8474L13058.0568,-3338.8569L13058.0654,-3338.8644L13058.076,-3338.8737L13058.0826,-3338.8786L13058.0905,-3338.8849L13058.0995,-3338.8918L13058.1084,-3338.8996L13058.117,-3338.9068L13058.1273,-3338.9161L13058.1363,-3338.9236L13058.1446,-3338.9299L13058.1532,-3338.9345L13058.1631,-3338.9394L13058.1759,-3338.9446L13058.191,-3338.9516L13058.2044,-3338.9573L13058.2196,-3338.9637L13058.2334,-3338.9697L13058.2458,-3338.9749L13058.2595,-3338.9801L13058.2736,-3338.9844L13058.2926,-3338.9914L13058.305,-3338.9957L13058.3211,-3339.002L13058.3384,-3339.0078L13058.3508,-3339.0119L13058.3652,-3339.0173L13058.3766,-3339.0217L13058.3869,-3339.0257L13058.4014,-3339.0315L13058.4127,-3339.0358L13058.4244,-3339.0401L13058.4303,-3339.0442L13058.4368,-3339.0485L13058.4461,-3339.0548L13058.4509,-3339.0603L13058.4575,-3339.0647L13058.4644,-3339.0673L13058.475,-3339.0713L13058.4881,-3339.0768L13058.5046,-3339.0825L13058.5229,-3339.0889L13058.5439,-3339.097L13058.5621,-3339.1039L13058.5776,-3339.1091L13058.5893,-3339.114L13058.6024,-3339.1189L13058.6158,-3339.1235L13058.6314,-3339.131L13058.6499,-3339.1371L13058.6623,-3339.142L13058.6754,-3339.1472L13058.6926,-3339.1532L13058.7067,-3339.159L13058.7243,-3339.1651L13058.7418,-3339.172L13058.7563,-3339.1778L13058.7676,-3339.1815L13058.7817,-3339.1864L13058.7984,-3339.1956L13058.7626,-3339.232L13058.7296,-3339.2689L13058.6972,-3339.307L13058.6662,-3339.337L13058.6511,-3339.3561L13058.6353,-3339.3774L13058.6263,-3339.3936L13058.6174,-3339.4195L13058.6076,-3339.451L13058.5967,-3339.4928L13058.5767,-3339.5667L13058.5685,-3339.6013L13058.5389,-3339.7167L13058.5267,-3339.7647L13058.5113,-3339.8166L13058.5086,-3339.8368L13058.5092,-3339.8438"/>
<path content="3,小郡市,④下岩田・乙隈ルート,2.0,2.0,2.0," xlink:title="3" d="M13056.1523,-3339.7598L13056.1753,-3339.7655L13056.2208,-3339.7755L13056.3191,-3339.7999L13056.4179,-3339.8198L13056.4146,-3339.8075L13056.4107,-3339.7905L13056.4076,-3339.77L13056.4061,-3339.75L13056.4054,-3339.7266L13056.4048,-3339.7005L13056.4038,-3339.6747"/>
<path content="3,小郡市,⑤東野・美鈴が丘,3.5,3.5,3.5," xlink:title="3" d="M13056.1523,-3339.7598L13056.1753,-3339.7655L13056.2208,-3339.7755L13056.3191,-3339.7999L13056.4179,-3339.8198L13056.4146,-3339.8075L13056.4107,-3339.7905L13056.4076,-3339.77L13056.4061,-3339.75L13056.4054,-3339.7266L13056.4048,-3339.7005L13056.4038,-3339.6747"/>
<path content="3,小郡市,⑥井上・今隈ルート,2.0,2.0,2.0," xlink:title="3" d="M13056.1523,-3339.7598L13056.1753,-3339.7655L13056.2208,-3339.7755L13056.3191,-3339.7999L13056.4179,-3339.8198"/>
<path content="3,小郡市,⑥井上・今隈ルート,2.0,2.0,2.0," xlink:title="3" d="M13056.4179,-3339.8198L13056.4146,-3339.8075L13056.4107,-3339.7905L13056.4076,-3339.77L13056.4061,-3339.75L13056.4054,-3339.7266L13056.4048,-3339.7005L13056.4038,-3339.6747"/>
<path content="3,小郡市,⑥井上・今隈ルート,2.0,2.0,2.0," xlink:title="3" d="M13056.4179,-3339.8198L13056.4737,-3339.8335L13056.4992,-3339.8393L13056.5261,-3339.8421L13056.5791,-3339.8427L13056.6335,-3339.8433L13056.6713,-3339.8438"/>
</g>
</svg>
