<?xml version="1.0" encoding="UTF-8"?>
<svg  xmlns="http://www.w3.org/2000/svg" xmlns:xlink="http://www.w3.org/1999/xlink" xmlns:go="http://purl.org/svgmap/profile" property="N07_001,N07_002,N07_003,N07_004,N07_005,N07_006,N07_007" viewBox="13640.625 -3612.3046875 8.7890625 8.7890625" go:dataArea="13640.625 -3612.3046875 8.7890625 8.7890625" >
<metadata>
 <rdf:RDF xmlns:rdf="http://www.w3.org/1999/02/22-rdf-syntax-ns#" xmlns:crs="http://opengis.org/xmldtds/transformations.dtd" xmlns:svg="http://www.w3.org/svg" >
  <rdf:Description>
   <crs:CoordinateReferenceSystem rdf:resource="http://purl.org/crs/84" svg:transform="matrix(100.0,0.0,0.0,-100.0,0.0,0.0)" />
  </rdf:Description>
 </rdf:RDF>
</metadata>
<globalCoordinateSystem srsName="http://purl.org/crs/84" transform="matrix(100.0,0.0,0.0,-100.0,0.0,0.0)" />
<defs>
 <g id="p0" >
  <circle cx="0.0" cy="0.0" r="3" stroke="green" stroke-width="0.75" vector-effect="non-scaling-stroke" />
 </g>
</defs>
<g fill="none" fill-rule="evenodd" stroke="#FF00FF" stroke-width="0.75" opacity="0.5" vector-effect="non-scaling-stroke" stroke-linejoin="bevel" >
<path content="1,京福バス（株）,勝山・大野線46,8.5,5.0,5.0," xlink:title="1" d="M13649.4141,-3605.7687L13649.196,-3605.6853L13649.2107,-3605.6455"/>
<path content="1,京福バス（株）,勝山・大野線46,8.5,5.0,5.0," xlink:title="1" d="M13649.4141,-3607.4112L13649.3172,-3607.4261L13649.2872,-3607.4303L13649.2742,-3607.4324L13649.2681,-3607.4331L13649.2621,-3607.4343L13649.2562,-3607.4352L13649.2322,-3607.4415L13649.1685,-3607.4484L13649.0688,-3607.4638L13649.0609,-3607.465L13649.053,-3607.4662L13649.0477,-3607.467L13649.0424,-3607.4678L13648.9943,-3607.4752L13648.9457,-3607.4832L13648.9384,-3607.4843L13648.9342,-3607.4851L13648.9289,-3607.4859L13648.9237,-3607.4868L13648.8974,-3607.491L13648.869,-3607.4957L13648.8429,-3607.5001L13648.8221,-3607.5034L13648.8125,-3607.505L13648.8029,-3607.5066L13648.8007,-3607.507L13648.7981,-3607.5074L13648.7789,-3607.5105L13648.7161,-3607.5205L13648.5492,-3607.5471L13648.5074,-3607.5538L13648.3395,-3607.5806L13648.3335,-3607.5814L13648.3288,-3607.5823"/>
<path content="1,京福バス（株）,勝山・大野線46,8.5,5.0,5.0," xlink:title="1" d="M13648.3288,-3607.5823L13648.3341,-3607.5954L13648.3397,-3607.6016L13648.3667,-3607.6208L13648.4208,-3607.6602L13648.4382,-3607.672L13648.4444,-3607.6776L13648.4901,-3607.7103L13648.4908,-3607.7103L13648.4964,-3607.7143L13648.5227,-3607.734L13648.6357,-3607.8151L13648.6524,-3607.8281L13648.6632,-3607.8364L13648.6794,-3607.8489L13648.7086,-3607.8759L13648.7314,-3607.8934L13648.7494,-3607.9053L13648.7508,-3607.9075L13648.755,-3607.9103L13648.7744,-3607.9413L13648.7973,-3607.9689L13648.8084,-3607.9761"/>
<path content="1,京福バス（株）,勝山・大野線46,8.5,5.0,5.0," xlink:title="1" d="M13648.3288,-3607.5823L13648.3132,-3607.5847L13648.3003,-3607.5869L13648.2537,-3607.594L13648.2475,-3607.5953L13648.1662,-3607.6083L13648.1516,-3607.6107L13648.0668,-3607.6238L13647.9683,-3607.6397L13647.9583,-3607.6415L13647.9478,-3607.643L13647.9459,-3607.6427L13647.928,-3607.646L13647.9181,-3607.6474L13647.9063,-3607.6492L13647.8647,-3607.6554L13647.8093,-3607.6636L13647.751,-3607.6744L13647.5799,-3607.7018L13647.5776,-3607.7017L13647.4241,-3607.7256L13647.2942,-3607.7461L13647.2438,-3607.7549L13647.1638,-3607.7672L13646.9694,-3607.7973L13646.8477,-3607.8167L13646.834,-3607.8189L13646.82,-3607.8211L13646.8043,-3607.8236L13646.7975,-3607.8247L13646.7449,-3607.8338L13646.6776,-3607.8514L13646.6692,-3607.8546L13646.6548,-3607.8604L13646.6408,-3607.8657L13646.6277,-3607.8708L13646.6183,-3607.8739L13646.5482,-3607.8974L13646.4874,-3607.9112L13646.4166,-3607.9169L13646.3752,-3607.9254L13646.3528,-3607.9322L13646.337,-3607.9386L13646.3215,-3607.9454L13646.2738,-3607.9684L13646.2613,-3607.9742L13646.2319,-3607.9644L13646.207,-3607.9559L13646.182,-3607.9475L13646.1189,-3607.9278L13646.1042,-3607.9241L13646.0904,-3607.9196L13646.0849,-3607.9181L13646.0781,-3607.9163L13646.0953,-3607.9373L13646.1057,-3607.9503L13646.0523,-3607.9672L13645.8969,-3607.9759L13645.7966,-3607.9815L13645.6336,-3607.9903L13645.5487,-3607.9898L13645.5393,-3607.9898L13645.3771,-3607.9903L13645.3285,-3607.99L13645.1011,-3607.9886L13645.0879,-3607.9897L13644.864,-3607.9875L13644.6088,-3607.9875L13644.4137,-3607.9876L13644.4126,-3607.9875L13644.0232,-3608.008L13644.0174,-3608.0083L13644.016,-3608.0078L13643.7093,-3608.0291L13643.7089,-3608.0292L13643.6236,-3608.0376L13643.4877,-3608.0556L13643.4267,-3608.0635L13643.3938,-3608.0698L13643.3643,-3608.0731L13643.3706,-3608.1063L13643.3817,-3608.1536L13643.3997,-3608.2094L13643.4048,-3608.2216L13643.3609,-3608.2393L13643.3469,-3608.2433L13643.3144,-3608.2573L13643.2991,-3608.2652L13643.2735,-3608.281L13643.2485,-3608.2984L13643.236,-3608.3074L13643.2312,-3608.3142L13643.2312,-3608.3157L13643.2312,-3608.3311L13643.234,-3608.3396L13643.2284,-3608.4213L13643.227,-3608.4567L13643.2256,-3608.4635L13643.2235,-3608.4934L13643.2228,-3608.5027L13643.2152,-3608.5018L13643.2078,-3608.5026L13643.1883,-3608.4996L13643.1528,-3608.4984L13643.1216,-3608.4996L13643.1043,-3608.5029L13643.0717,-3608.5147L13643.0551,-3608.5187L13643.0393,-3608.519L13643.028,-3608.5193L13642.9995,-3608.5176L13642.9989,-3608.5176L13642.9614,-3608.5154L13642.9607,-3608.5125L13642.9089,-3608.5156L13642.8963,-3608.5168L13642.8658,-3608.5181L13642.8311,-3608.5209L13642.8138,-3608.5232L13642.7867,-3608.526L13642.7763,-3608.5277L13642.7451,-3608.5344L13642.6966,-3608.5446L13642.5961,-3608.5677L13642.587,-3608.569L13642.5821,-3608.5705L13642.5794,-3608.5711L13642.5559,-3608.5756L13642.5212,-3608.5801L13642.4817,-3608.584L13642.4214,-3608.5902L13642.4026,-3608.5914L13642.3444,-3608.597L13642.2258,-3608.6083L13642.1843,-3608.6122L13642.1109,-3608.6189L13642.0457,-3608.6259L13642.036,-3608.6269L13642.0041,-3608.6309L13641.9972,-3608.6312L13641.9936,-3608.6302L13641.9686,-3608.6246L13641.934,-3608.6246L13641.8986,-3608.6285L13641.882,-3608.6285L13641.857,-3608.6285L13641.8431,-3608.6263L13641.8327,-3608.6234L13641.8241,-3608.62L13641.8216,-3608.6173L13641.8189,-3608.6105L13641.8168,-3608.5981L13641.8147,-3608.5891L13641.8085,-3608.5756L13641.8029,-3608.5682L13641.7849,-3608.5553L13641.7363,-3608.5626L13641.7225,-3608.5649L13641.6955,-3608.5699L13641.6885,-3608.5716"/>
<path content="1,京福バス（株）,勝山・大野線46,8.5,5.0,5.0," xlink:title="1" d="M13641.6885,-3608.5716L13641.6795,-3608.5558L13641.6754,-3608.5423L13641.6712,-3608.522L13641.6608,-3608.4956L13641.6504,-3608.4792L13641.6387,-3608.4716L13641.6247,-3608.4623L13641.619,-3608.4584L13641.6091,-3608.4405L13641.6074,-3608.433L13641.5914,-3608.3981L13641.5804,-3608.3823L13641.5665,-3608.3637L13641.5637,-3608.3575L13641.5513,-3608.3389L13641.5478,-3608.3344L13641.4907,-3608.2422L13641.482,-3608.2452"/>
<path content="1,京福バス（株）,勝山・大野線46,8.5,5.0,5.0," xlink:title="1" d="M13641.6885,-3608.5716L13641.6344,-3608.5846L13641.554,-3608.6004L13641.5332,-3608.6054L13641.4985,-3608.6167L13641.4729,-3608.6267L13641.4562,-3608.6324L13641.4362,-3608.6403L13641.4302,-3608.6443L13641.3976,-3608.6544L13641.3747,-3608.6595L13641.3483,-3608.6612L13641.3261,-3608.6629L13641.265,-3608.6708L13641.2497,-3608.6741L13641.2329,-3608.6797L13641.2296,-3608.6815L13641.2116,-3608.686L13641.1921,-3608.6871L13641.1803,-3608.6848L13641.1658,-3608.6792L13641.1324,-3608.6629L13641.1248,-3608.6578L13641.108,-3608.6443L13641.0985,-3608.6386L13641.0666,-3608.6234L13641.0333,-3608.5969L13641.0035,-3608.5783L13640.9661,-3608.5457L13640.9406,-3608.525"/>
<path content="1,京福バス（株）,北郷線48,1.0,1.5,1.5," xlink:title="1" d="M13649.2107,-3605.6455L13649.196,-3605.6853L13649.4141,-3605.7687"/>
<path content="1,京福バス（株）,北郷線48,1.0,1.5,1.5," xlink:title="1" d="M13649.4141,-3607.4112L13649.3172,-3607.4261L13649.2872,-3607.4303L13649.2742,-3607.4324L13649.2681,-3607.4331L13649.2621,-3607.4343L13649.2562,-3607.4352L13649.2322,-3607.4415L13649.1685,-3607.4484L13649.0688,-3607.4638L13649.0609,-3607.465L13649.053,-3607.4662L13649.0477,-3607.467L13649.0424,-3607.4678L13648.9943,-3607.4752L13648.9457,-3607.4832L13648.9384,-3607.4843L13648.9342,-3607.4851L13648.9289,-3607.4859L13648.9237,-3607.4868L13648.8974,-3607.491L13648.869,-3607.4957L13648.8429,-3607.5001L13648.8221,-3607.5034L13648.8125,-3607.505L13648.8029,-3607.5066L13648.8007,-3607.507L13648.7981,-3607.5074L13648.7789,-3607.5105L13648.7161,-3607.5205L13648.5492,-3607.5471L13648.5074,-3607.5538L13648.3395,-3607.5806L13648.3335,-3607.5814L13648.3288,-3607.5823"/>
<path content="1,京福バス（株）,北郷線48,1.0,1.5,1.5," xlink:title="1" d="M13648.3288,-3607.5823L13648.3341,-3607.5954L13648.3397,-3607.6016L13648.3667,-3607.6208L13648.4208,-3607.6602L13648.4382,-3607.672L13648.4444,-3607.6776L13648.4901,-3607.7103L13648.4908,-3607.7103L13648.4964,-3607.7143L13648.5227,-3607.734L13648.6357,-3607.8151L13648.6524,-3607.8281L13648.6632,-3607.8364L13648.6794,-3607.8489L13648.7086,-3607.8759L13648.7314,-3607.8934L13648.7494,-3607.9053L13648.7508,-3607.9075L13648.755,-3607.9103L13648.7744,-3607.9413L13648.7973,-3607.9689L13648.8084,-3607.9761"/>
<path content="1,京福バス（株）,北郷線48,1.0,1.5,1.5," xlink:title="1" d="M13648.3288,-3607.5823L13648.3132,-3607.5847L13648.3003,-3607.5869L13648.2537,-3607.594L13648.2475,-3607.5953L13648.1662,-3607.6083L13648.1516,-3607.6107L13648.0668,-3607.6238L13647.9683,-3607.6397L13647.9583,-3607.6415L13647.9478,-3607.643L13647.9459,-3607.6427L13647.928,-3607.646L13647.9181,-3607.6474L13647.9063,-3607.6492L13647.8647,-3607.6554L13647.8093,-3607.6636L13647.751,-3607.6744L13647.5799,-3607.7018L13647.5776,-3607.7017L13647.4241,-3607.7256L13647.2942,-3607.7461L13647.2438,-3607.7549L13647.1638,-3607.7672L13646.9694,-3607.7973L13646.8477,-3607.8167L13646.834,-3607.8189L13646.82,-3607.8211L13646.8043,-3607.8236L13646.7975,-3607.8247L13646.7449,-3607.8338L13646.6776,-3607.8514L13646.6692,-3607.8546L13646.6548,-3607.8604L13646.6408,-3607.8657L13646.6277,-3607.8708L13646.6183,-3607.8739L13646.5482,-3607.8974L13646.4874,-3607.9112L13646.4166,-3607.9169L13646.3752,-3607.9254L13646.3528,-3607.9322L13646.337,-3607.9386L13646.3215,-3607.9454L13646.2738,-3607.9684L13646.2613,-3607.9742L13646.2319,-3607.9644L13646.207,-3607.9559L13646.182,-3607.9475L13646.1189,-3607.9278L13646.1042,-3607.9241L13646.0904,-3607.9196L13646.0849,-3607.9181L13646.0781,-3607.9163L13646.0953,-3607.9373L13646.1057,-3607.9503L13646.0523,-3607.9672L13645.8969,-3607.9759L13645.7966,-3607.9815L13645.6336,-3607.9903L13645.5487,-3607.9898L13645.5393,-3607.9898L13645.3771,-3607.9903L13645.3285,-3607.99L13645.1011,-3607.9886L13645.0879,-3607.9897L13644.864,-3607.9875L13644.6088,-3607.9875L13644.4137,-3607.9876"/>
<path content="1,京福バス（株）,北郷線48,1.0,1.5,1.5," xlink:title="1" d="M13644.4137,-3607.9876L13644.0232,-3608.008L13644.0174,-3608.0083L13644.016,-3608.0078L13643.7093,-3608.0291L13643.7089,-3608.0292L13643.6236,-3608.0376L13643.4877,-3608.0556L13643.4267,-3608.0635L13643.3938,-3608.0698L13643.3643,-3608.0731L13643.3518,-3608.0151L13643.3449,-3607.9784L13643.3407,-3607.9424L13643.3373,-3607.9199L13643.3317,-3607.8923L13643.3317,-3607.8911L13643.3276,-3607.8719L13643.3276,-3607.8708L13643.3274,-3607.8698L13643.322,-3607.8342L13643.3179,-3607.8134L13643.3105,-3607.7744L13643.3092,-3607.7652L13643.2733,-3607.6056L13643.2684,-3607.5838L13643.2658,-3607.5728L13643.2572,-3607.5744L13643.2472,-3607.5751L13643.1896,-3607.5739L13643.0662,-3607.5677L13643.001,-3607.5666L13642.9206,-3607.5672L13642.8568,-3607.5694L13642.7889,-3607.5717L13642.7528,-3607.5745L13642.6703,-3607.5824L13642.6197,-3607.5908L13642.5892,-3607.5981L13642.5531,-3607.6066L13642.5046,-3607.6218L13642.4949,-3607.6252L13642.4569,-3607.6413L13642.4089,-3607.6618L13642.3777,-3607.6708L13642.363,-3607.6714L13642.3479,-3607.6719L13642.3043,-3607.6669L13642.2897,-3607.6635L13642.2689,-3607.6601L13642.2238,-3607.6505L13642.1799,-3607.6384L13642.1357,-3607.6263L13642.0866,-3607.6122L13642.0754,-3607.6088L13641.9521,-3607.5745L13641.9277,-3607.5666L13641.9085,-3607.5608L13641.6615,-3607.4899L13641.6179,-3607.4786L13641.6102,-3607.4764L13641.5756,-3607.4657L13641.509,-3607.4488L13641.4757,-3607.442L13641.466,-3607.4398L13641.4584,-3607.4386L13641.4521,-3607.4364L13641.4223,-3607.4308L13641.3724,-3607.4251L13641.3572,-3607.424L13641.3183,-3607.424L13641.3047,-3607.4264"/>
<path content="1,京福バス（株）,北郷線48,1.0,1.5,1.5," xlink:title="1" d="M13644.4137,-3607.9876L13644.4126,-3608.0376L13644.4084,-3608.0556L13644.3953,-3608.0928L13644.3953,-3608.1024L13644.3953,-3608.1509L13644.3981,-3608.1661L13644.3981,-3608.1841L13644.3946,-3608.1909L13644.3869,-3608.2016L13644.3752,-3608.2106L13644.353,-3608.2212L13644.3336,-3608.2269L13644.3107,-3608.2314L13644.2998,-3608.2324L13644.2982,-3608.2325L13644.276,-3608.2433L13644.2428,-3608.2748L13644.2347,-3608.2839L13644.2268,-3608.2928L13644.2116,-3608.312L13644.1928,-3608.3424L13644.1838,-3608.3717L13644.1831,-3608.3942L13644.1836,-3608.3977L13644.1873,-3608.4229L13644.1963,-3608.4607L13644.2009,-3608.4825L13644.167,-3608.4866L13644.1664,-3608.4872L13644.1498,-3608.4894L13644.0902,-3608.4951L13644.0583,-3608.4973L13644.0299,-3608.4973L13643.9689,-3608.4962L13643.9484,-3608.4946L13643.9266,-3608.4928L13643.9123,-3608.4899L13643.8947,-3608.4911L13643.8524,-3608.4979L13643.8351,-3608.5013L13643.7738,-3608.5146L13643.7628,-3608.5167L13643.7508,-3608.5169L13643.7026,-3608.5182L13643.5979,-3608.5215L13643.539,-3608.5226L13643.4094,-3608.5142L13643.4011,-3608.5136L13643.3624,-3608.5109L13643.3617,-3608.5137L13643.3476,-3608.5125L13643.2797,-3608.5074L13643.2226,-3608.5048L13643.2228,-3608.5027L13643.2152,-3608.5018L13643.2078,-3608.5026L13643.1883,-3608.4996L13643.1528,-3608.4984L13643.1216,-3608.4996L13643.1043,-3608.5029L13643.0717,-3608.5147L13643.0551,-3608.5187L13643.0393,-3608.519L13643.028,-3608.5193L13642.9995,-3608.5176L13642.9989,-3608.5176L13642.9614,-3608.5154L13642.9607,-3608.5125L13642.9089,-3608.5156L13642.8963,-3608.5168L13642.8658,-3608.5181L13642.8311,-3608.5209L13642.8138,-3608.5232L13642.7867,-3608.526L13642.7763,-3608.5277L13642.7451,-3608.5344L13642.6966,-3608.5446L13642.5961,-3608.5677L13642.587,-3608.569L13642.5821,-3608.5705L13642.5794,-3608.5711L13642.5559,-3608.5756L13642.5212,-3608.5801L13642.4817,-3608.584L13642.4214,-3608.5902L13642.4026,-3608.5914L13642.3444,-3608.597L13642.2258,-3608.6083L13642.1843,-3608.6122L13642.1109,-3608.6189L13642.0457,-3608.6259L13642.036,-3608.6269L13642.0041,-3608.6309L13641.9972,-3608.6312L13641.9936,-3608.6302L13641.9686,-3608.6246L13641.934,-3608.6246L13641.8986,-3608.6285L13641.882,-3608.6285L13641.8764,-3608.6195L13641.8667,-3608.6043L13641.8494,-3608.5812L13641.8404,-3608.5671L13641.8348,-3608.5592L13641.8244,-3608.544L13641.8189,-3608.5378L13641.8168,-3608.5339L13641.7717,-3608.4741L13641.7059,-3608.3857L13641.6539,-3608.3164L13641.6441,-3608.3057L13641.6227,-3608.3124L13641.5873,-3608.3243L13641.5513,-3608.3389"/>
<path content="1,京福バス（株）,北郷線48,1.0,1.5,1.5," xlink:title="1" d="M13641.5513,-3608.3389L13641.5478,-3608.3344L13641.4907,-3608.2422L13641.482,-3608.2452"/>
<path content="1,京福バス（株）,北郷線48,1.0,1.5,1.5," xlink:title="1" d="M13641.5513,-3608.3389L13641.5637,-3608.3575L13641.5665,-3608.3637L13641.5804,-3608.3823L13641.5914,-3608.3981L13641.6074,-3608.433L13641.6091,-3608.4405L13641.619,-3608.4584L13641.6247,-3608.4623L13641.6387,-3608.4716L13641.6504,-3608.4792L13641.6608,-3608.4956L13641.6712,-3608.522L13641.6754,-3608.5423L13641.6795,-3608.5558L13641.6885,-3608.5716L13641.6344,-3608.5846L13641.554,-3608.6004L13641.5332,-3608.6054L13641.4985,-3608.6167L13641.4729,-3608.6267L13641.4562,-3608.6324L13641.4362,-3608.6403L13641.4302,-3608.6443L13641.3976,-3608.6544L13641.3747,-3608.6595L13641.3483,-3608.6612L13641.3261,-3608.6629L13641.265,-3608.6708L13641.2497,-3608.6741L13641.2329,-3608.6797L13641.2296,-3608.6815L13641.2116,-3608.686L13641.1921,-3608.6871L13641.1803,-3608.6848L13641.1658,-3608.6792L13641.1324,-3608.6629L13641.1248,-3608.6578L13641.108,-3608.6443L13641.0985,-3608.6386L13641.0666,-3608.6234L13641.0333,-3608.5969L13641.0035,-3608.5783L13640.9661,-3608.5457L13640.9406,-3608.525"/>
<path content="3,勝山市,『ぐるりん』片瀬～平泉寺荘,5.0,5.0,5.0," xlink:title="3" d="M13649.2107,-3605.6455L13649.196,-3605.6853L13649.4141,-3605.7687"/>
<path content="3,勝山市,『ぐるりん』長尾山～水芭蕉～社会保険病院,5.0,5.0,5.0," xlink:title="3" d="M13649.2107,-3605.6455L13649.196,-3605.6853L13649.4141,-3605.7687"/>
<path content="3,勝山市,『ぐるりん』長尾山～水芭蕉～社会保険病院,5.0,5.0,5.0," xlink:title="3" d="M13649.4141,-3607.1868L13649.3957,-3607.1898L13649.3471,-3607.1971L13649.2854,-3607.2055L13649.2549,-3607.2108L13649.2355,-3607.2146L13649.1682,-3607.2253L13649.18,-3607.2512L13649.2116,-3607.3201L13649.2279,-3607.3582L13649.2619,-3607.4219L13649.2681,-3607.4331L13649.2742,-3607.4324L13649.2872,-3607.4303L13649.3172,-3607.4261L13649.4141,-3607.4112"/>
<path content="3,勝山市,ダイナゴン（平泉寺・大仏方面）,12.0,11.0,11.0," xlink:title="3" d="M13649.2107,-3605.6455L13649.196,-3605.6853L13649.4141,-3605.7687"/>
<path content="3,勝山市,ダイナゴン（恐竜博物館方面）,11.0,17.0,17.0," xlink:title="3" d="M13649.2107,-3605.6455L13649.196,-3605.6853L13649.4141,-3605.7687"/>
<path content="3,勝山市,京福バス・勝山・大野線,8.0,8.0,8.0," xlink:title="3" d="M13649.4141,-3605.7687L13649.196,-3605.6853L13649.2107,-3605.6455"/>
<path content="3,勝山市,京福バス・勝山・大野線,8.0,8.0,8.0," xlink:title="3" d="M13640.9406,-3608.525L13640.9661,-3608.5457L13641.0035,-3608.5783L13641.0333,-3608.5969L13641.0666,-3608.6234L13641.0985,-3608.6386L13641.108,-3608.6443L13641.1248,-3608.6578L13641.1324,-3608.6629L13641.1658,-3608.6792L13641.1803,-3608.6848L13641.1921,-3608.6871L13641.2116,-3608.686L13641.2329,-3608.6797L13641.2497,-3608.6741L13641.265,-3608.6708L13641.3261,-3608.6629L13641.3483,-3608.6612L13641.3747,-3608.6595L13641.3976,-3608.6544L13641.4302,-3608.6443L13641.4362,-3608.6403L13641.4562,-3608.6324L13641.4729,-3608.6267L13641.4985,-3608.6167L13641.5332,-3608.6054L13641.554,-3608.6004L13641.6344,-3608.5846L13641.6885,-3608.5716L13641.6934,-3608.5862L13641.6962,-3608.6032L13641.6981,-3608.6108L13641.7183,-3608.6353L13641.7202,-3608.6407L13641.7929,-3608.6341L13641.8446,-3608.6331L13641.882,-3608.6285L13641.8986,-3608.6285L13641.934,-3608.6246L13641.9686,-3608.6246L13641.9972,-3608.6312L13642.0041,-3608.6309L13642.036,-3608.6269L13642.0457,-3608.6259L13642.1109,-3608.6189L13642.1843,-3608.6122L13642.2258,-3608.6083L13642.3444,-3608.597L13642.4026,-3608.5914L13642.4214,-3608.5902L13642.4817,-3608.584L13642.5212,-3608.5801L13642.5559,-3608.5756L13642.587,-3608.569L13642.6966,-3608.5446L13642.7451,-3608.5344L13642.7763,-3608.5277L13642.7867,-3608.526L13642.8138,-3608.5232L13642.8311,-3608.5209L13642.8658,-3608.5181L13642.8963,-3608.5168L13642.9089,-3608.5156L13642.9607,-3608.5125L13642.9614,-3608.5154L13642.9989,-3608.5176L13642.9995,-3608.5176L13643.028,-3608.5193L13643.0393,-3608.519L13643.0551,-3608.5187L13643.0717,-3608.5147L13643.1043,-3608.5029L13643.1216,-3608.4996L13643.1528,-3608.4984L13643.1883,-3608.4996L13643.2078,-3608.5026L13643.2228,-3608.5027L13643.2235,-3608.4934L13643.2256,-3608.4635L13643.227,-3608.4567L13643.2284,-3608.4213L13643.234,-3608.3396L13643.2312,-3608.3311L13643.2312,-3608.3157L13643.2312,-3608.3142L13643.236,-3608.3074L13643.2485,-3608.2984L13643.2735,-3608.281L13643.2991,-3608.2652L13643.3144,-3608.2573L13643.3469,-3608.2433L13643.3609,-3608.2393L13643.4048,-3608.2216L13643.3997,-3608.2094L13643.3817,-3608.1536L13643.3706,-3608.1063L13643.3643,-3608.0731L13643.3938,-3608.0698L13643.4267,-3608.0635L13643.4877,-3608.0556L13643.6236,-3608.0376L13643.7089,-3608.0292L13643.7093,-3608.0291L13644.016,-3608.0078L13644.0174,-3608.0083L13644.0232,-3608.008L13644.4137,-3607.9876L13644.6088,-3607.9875L13644.864,-3607.9875L13645.0879,-3607.9897L13645.1011,-3607.9886L13645.3285,-3607.99L13645.3771,-3607.9903L13645.5393,-3607.9898L13645.5487,-3607.9898L13645.6336,-3607.9903L13645.7966,-3607.9815L13645.8969,-3607.9759L13646.0523,-3607.9672L13646.1057,-3607.9503L13646.0953,-3607.9373L13646.0781,-3607.9163L13646.0849,-3607.9181L13646.1042,-3607.9241L13646.1189,-3607.9278L13646.182,-3607.9475L13646.207,-3607.9559L13646.2319,-3607.9644L13646.2613,-3607.9742L13646.2738,-3607.9684L13646.3215,-3607.9454L13646.337,-3607.9386L13646.3528,-3607.9322L13646.3752,-3607.9254L13646.4166,-3607.9169L13646.4874,-3607.9112L13646.5482,-3607.8974L13646.6183,-3607.8739L13646.6277,-3607.8708L13646.6408,-3607.8657L13646.6548,-3607.8604L13646.6692,-3607.8546L13646.6776,-3607.8514L13646.7449,-3607.8338L13646.7975,-3607.8247L13646.8043,-3607.8236L13646.82,-3607.8211L13646.834,-3607.8189L13646.8477,-3607.8167L13646.9694,-3607.7973L13647.1638,-3607.7672L13647.2438,-3607.7549L13647.2942,-3607.7461L13647.4241,-3607.7256L13647.5776,-3607.7017L13647.5799,-3607.7018L13647.751,-3607.6744L13647.8093,-3607.6636L13647.8647,-3607.6554L13647.9063,-3607.6492L13647.9181,-3607.6474L13647.928,-3607.646L13647.9459,-3607.6427L13647.9583,-3607.6415L13647.9683,-3607.6397L13648.0668,-3607.6238L13648.1516,-3607.6107L13648.1662,-3607.6083L13648.2475,-3607.5953L13648.2537,-3607.594L13648.3003,-3607.5869L13648.3132,-3607.5847L13648.3288,-3607.5823L13648.3335,-3607.5814L13648.3395,-3607.5806L13648.5074,-3607.5538L13648.5492,-3607.5471L13648.7161,-3607.5205L13648.7789,-3607.5105L13648.7981,-3607.5074L13648.8007,-3607.507L13648.8029,-3607.5066L13648.8125,-3607.505L13648.8221,-3607.5034L13648.8429,-3607.5001L13648.869,-3607.4957L13648.8974,-3607.491L13648.9237,-3607.4868L13648.9289,-3607.4859L13648.9342,-3607.4851L13648.9384,-3607.4843L13648.9457,-3607.4832L13648.9943,-3607.4752L13649.0424,-3607.4678L13649.0477,-3607.467L13649.053,-3607.4662L13649.0609,-3607.465L13649.0688,-3607.4638L13649.1685,-3607.4484L13649.2322,-3607.4415L13649.2562,-3607.4352L13649.2621,-3607.4343L13649.2681,-3607.4331L13649.2742,-3607.4324L13649.2872,-3607.4303L13649.3172,-3607.4261L13649.4141,-3607.4112"/>
<path content="3,勝山市,京福バス・北郷線,2.0,2.0,2.0," xlink:title="3" d="M13649.4141,-3605.7687L13649.196,-3605.6853L13649.2107,-3605.6455"/>
<path content="3,勝山市,京福バス・北郷線,2.0,2.0,2.0," xlink:title="3" d="M13641.3047,-3607.4264L13641.3572,-3607.424L13641.3724,-3607.4251L13641.4223,-3607.4308L13641.4521,-3607.4364L13641.4584,-3607.4386L13641.466,-3607.4398L13641.4757,-3607.442L13641.509,-3607.4488L13641.5756,-3607.4657L13641.6102,-3607.4764L13641.6179,-3607.4786L13641.6615,-3607.4899L13641.9085,-3607.5608L13641.9277,-3607.5666L13641.9521,-3607.5745L13641.9674,-3607.5888L13641.9784,-3607.6004L13641.9936,-3607.6263L13642.0001,-3607.644L13642.0054,-3607.6584L13642.0124,-3607.6838L13642.0241,-3607.7215L13642.0291,-3607.7369L13642.062,-3607.8497L13642.1199,-3608.0484L13642.1207,-3608.0508L13642.121,-3608.0668L13642.0886,-3608.0595L13642.0609,-3608.055L13642.038,-3608.055L13642.0345,-3608.0554L13642.0324,-3608.0556L13641.9492,-3608.0584L13641.9409,-3608.0593L13641.9333,-3608.0601L13641.9014,-3608.0612L13641.8915,-3608.0625L13641.8446,-3608.0685L13641.8161,-3608.0753L13641.7697,-3608.0911L13641.7551,-3608.0961L13641.7135,-3608.1108L13641.6941,-3608.1198L13641.6823,-3608.1243L13641.6476,-3608.1418L13641.6095,-3608.1648L13641.5506,-3608.2054L13641.5194,-3608.2257L13641.4907,-3608.2422L13641.5478,-3608.3344L13641.5513,-3608.3389L13641.5637,-3608.3575L13641.5665,-3608.3637L13641.5804,-3608.3823L13641.5914,-3608.3981L13641.6074,-3608.433L13641.6091,-3608.4405L13641.619,-3608.4584L13641.6247,-3608.4623L13641.6387,-3608.4716L13641.6504,-3608.4792L13641.6608,-3608.4956L13641.6712,-3608.522L13641.6754,-3608.5423L13641.6795,-3608.5558L13641.6885,-3608.5716"/>
<path content="3,勝山市,京福バス・北郷線,2.0,2.0,2.0," xlink:title="3" d="M13644.864,-3607.9875L13645.0879,-3607.9897L13645.1011,-3607.9886L13645.3285,-3607.99L13645.3771,-3607.9903L13645.5393,-3607.9898L13645.5487,-3607.9898L13645.6336,-3607.9903L13645.7966,-3607.9815L13645.8969,-3607.9759L13646.0523,-3607.9672L13646.1057,-3607.9503L13646.0953,-3607.9373L13646.0781,-3607.9163L13646.0849,-3607.9181L13646.1042,-3607.9241L13646.1189,-3607.9278L13646.182,-3607.9475L13646.207,-3607.9559L13646.2319,-3607.9644L13646.2613,-3607.9742L13646.2738,-3607.9684L13646.3215,-3607.9454L13646.337,-3607.9386L13646.3528,-3607.9322L13646.3752,-3607.9254L13646.4166,-3607.9169L13646.4874,-3607.9112L13646.5482,-3607.8974L13646.6183,-3607.8739L13646.6277,-3607.8708L13646.6408,-3607.8657L13646.6548,-3607.8604L13646.6692,-3607.8546L13646.6776,-3607.8514L13646.7449,-3607.8338L13646.7975,-3607.8247L13646.8043,-3607.8236L13646.82,-3607.8211L13646.834,-3607.8189L13646.8477,-3607.8167L13646.9694,-3607.7973L13647.1638,-3607.7672L13647.2438,-3607.7549L13647.2942,-3607.7461L13647.4241,-3607.7256L13647.5776,-3607.7017L13647.5799,-3607.7018L13647.751,-3607.6744L13647.8093,-3607.6636L13647.8647,-3607.6554L13647.9063,-3607.6492L13647.9181,-3607.6474L13647.928,-3607.646L13647.9459,-3607.6427L13647.9583,-3607.6415L13647.9683,-3607.6397L13648.0668,-3607.6238L13648.1516,-3607.6107L13648.1662,-3607.6083L13648.2475,-3607.5953L13648.2537,-3607.594L13648.3003,-3607.5869L13648.3132,-3607.5847L13648.3288,-3607.5823L13648.3335,-3607.5814L13648.3395,-3607.5806L13648.5074,-3607.5538L13648.5492,-3607.5471L13648.7161,-3607.5205L13648.7789,-3607.5105L13648.7981,-3607.5074L13648.8007,-3607.507L13648.8029,-3607.5066L13648.8125,-3607.505L13648.8221,-3607.5034L13648.8429,-3607.5001L13648.869,-3607.4957L13648.8974,-3607.491L13648.9237,-3607.4868L13648.9289,-3607.4859L13648.9342,-3607.4851L13648.9384,-3607.4843L13648.9457,-3607.4832L13648.9943,-3607.4752L13649.0424,-3607.4678L13649.0477,-3607.467L13649.053,-3607.4662L13649.0609,-3607.465L13649.0688,-3607.4638L13649.1685,-3607.4484L13649.2322,-3607.4415L13649.2562,-3607.4352L13649.2621,-3607.4343L13649.2681,-3607.4331L13649.2742,-3607.4324L13649.2872,-3607.4303L13649.3172,-3607.4261L13649.4141,-3607.4112"/>
<path content="3,勝山市,京福バス・北郷線,2.0,2.0,2.0," xlink:title="3" d="M13644.864,-3607.9875L13644.8626,-3607.7869L13644.848,-3607.7847L13644.7967,-3607.7796L13644.7274,-3607.774L13644.6955,-3607.77L13644.6317,-3607.7706L13644.6095,-3607.7706L13644.5726,-3607.7745L13644.5219,-3607.7789L13644.4875,-3607.7813L13644.4681,-3607.7835L13644.4182,-3607.7886L13644.3322,-3607.7971L13644.2802,-3607.8027L13644.2566,-3607.8055L13644.2421,-3607.8066L13644.1887,-3607.8066L13644.1707,-3607.8049L13644.1048,-3607.7954L13644.0313,-3607.7846L13644.0209,-3607.7824L13643.9956,-3607.7793L13643.9509,-3607.7739L13643.9433,-3607.7723L13643.8996,-3607.7683L13643.7782,-3607.7587L13643.7623,-3607.7582L13643.7581,-3607.757L13643.677,-3607.7542L13643.6687,-3607.7542L13643.5716,-3607.7554L13643.5224,-3607.7576L13643.4988,-3607.7593L13643.4683,-3607.7604L13643.4156,-3607.7655L13643.3436,-3607.7717L13643.3105,-3607.7744L13643.3179,-3607.8134L13643.322,-3607.8342L13643.3274,-3607.8698L13643.3276,-3607.8708L13643.3276,-3607.8719L13643.3317,-3607.8911L13643.3317,-3607.8923L13643.3373,-3607.9199L13643.3407,-3607.9424L13643.3449,-3607.9784L13643.3518,-3608.0151L13643.3643,-3608.0731L13643.3938,-3608.0698L13643.4877,-3608.0556L13643.6236,-3608.0376L13643.7089,-3608.0292L13643.7093,-3608.0291L13644.016,-3608.0078L13644.0174,-3608.0083L13644.0232,-3608.008L13644.4137,-3607.9876L13644.6088,-3607.9875L13644.864,-3607.9875"/>
<path content="3,勝山市,京福バス・北郷線,2.0,2.0,2.0," xlink:title="3" d="M13641.6885,-3608.5716L13641.6934,-3608.5862L13641.6962,-3608.6032L13641.6981,-3608.6108L13641.7183,-3608.6353L13641.7202,-3608.6407L13641.7929,-3608.6341L13641.8446,-3608.6331L13641.882,-3608.6285L13641.8986,-3608.6285L13641.934,-3608.6246L13641.9686,-3608.6246L13641.9972,-3608.6312L13642.0041,-3608.6309L13642.036,-3608.6269L13642.0457,-3608.6259L13642.1109,-3608.6189L13642.1843,-3608.6122L13642.2258,-3608.6083L13642.3444,-3608.597L13642.4026,-3608.5914L13642.4214,-3608.5902L13642.4817,-3608.584L13642.5212,-3608.5801L13642.5559,-3608.5756L13642.587,-3608.569L13642.6966,-3608.5446L13642.7451,-3608.5344L13642.7763,-3608.5277L13642.7867,-3608.526L13642.8138,-3608.5232L13642.8311,-3608.5209L13642.8658,-3608.5181L13642.8963,-3608.5168L13642.9089,-3608.5156L13642.9607,-3608.5125L13642.9614,-3608.5154L13642.9989,-3608.5176L13642.9995,-3608.5176L13643.028,-3608.5193L13643.0393,-3608.519L13643.0551,-3608.5187L13643.0717,-3608.5147L13643.1043,-3608.5029L13643.1216,-3608.4996L13643.1528,-3608.4984L13643.1883,-3608.4996L13643.2078,-3608.5026L13643.2228,-3608.5027L13643.2226,-3608.5048L13643.2797,-3608.5074L13643.3476,-3608.5125L13643.3617,-3608.5137L13643.3624,-3608.5109L13643.4011,-3608.5136L13643.4094,-3608.5142L13643.539,-3608.5226L13643.5979,-3608.5215L13643.7026,-3608.5182L13643.7508,-3608.5169L13643.7628,-3608.5167L13643.7738,-3608.5146L13643.8351,-3608.5013L13643.8524,-3608.4979L13643.8947,-3608.4911L13643.9123,-3608.4899L13643.9484,-3608.4946L13643.9689,-3608.4962L13644.0299,-3608.4973L13644.0583,-3608.4973L13644.0902,-3608.4951L13644.1498,-3608.4894L13644.167,-3608.4866L13644.2009,-3608.4825L13644.249,-3608.4782L13644.3121,-3608.4725L13644.3447,-3608.4686L13644.3786,-3608.4658L13644.4223,-3608.4607L13644.4452,-3608.459L13644.4563,-3608.4573L13644.4674,-3608.4568L13644.4764,-3608.4551L13644.5041,-3608.4528L13644.5547,-3608.4472L13644.5901,-3608.4455L13644.6088,-3608.4427L13644.6268,-3608.4393L13644.6324,-3608.4376L13644.6435,-3608.4343L13644.6539,-3608.4303L13644.6712,-3608.4224L13644.7232,-3608.3993L13644.7863,-3608.3711L13644.8203,-3608.3571L13644.8362,-3608.3526L13644.8446,-3608.3514L13644.857,-3608.3514L13644.8674,-3608.3503L13644.8653,-3608.1976L13644.866,-3608.192L13644.864,-3608.063L13644.864,-3607.9875"/>
<path content="3,勝山市,京福バス・北郷線,2.0,2.0,2.0," xlink:title="3" d="M13641.6885,-3608.5716L13641.6344,-3608.5846L13641.554,-3608.6004L13641.5332,-3608.6054L13641.4985,-3608.6167L13641.4729,-3608.6267L13641.4562,-3608.6324L13641.4362,-3608.6403L13641.4302,-3608.6443L13641.3976,-3608.6544L13641.3747,-3608.6595L13641.3483,-3608.6612L13641.3261,-3608.6629L13641.265,-3608.6708L13641.2497,-3608.6741L13641.2329,-3608.6797L13641.2116,-3608.686L13641.1921,-3608.6871L13641.1803,-3608.6848L13641.1658,-3608.6792L13641.1324,-3608.6629L13641.1248,-3608.6578L13641.108,-3608.6443L13641.0985,-3608.6386L13641.0666,-3608.6234L13641.0333,-3608.5969L13641.0035,-3608.5783L13640.9661,-3608.5457L13640.9406,-3608.525"/>
<path content="3,勝山市,北谷線,4.0,4.0,4.0," xlink:title="3" d="M13649.4141,-3605.7687L13649.196,-3605.6853L13649.2107,-3605.6455"/>
<path content="3,勝山市,平泉寺線,4.0,4.0,4.0," xlink:title="3" d="M13649.2107,-3605.6455L13649.196,-3605.6853L13649.4141,-3605.7687"/>
<path content="3,勝山市,荒土線,3.0,3.0,3.0," xlink:title="3" d="M13649.4141,-3605.7687L13649.196,-3605.6853L13649.2107,-3605.6455"/>
<path content="3,勝山市,荒土線,3.0,3.0,3.0," xlink:title="3" d="M13648.3288,-3607.5823L13648.3335,-3607.5814L13648.3395,-3607.5806L13648.5074,-3607.5538L13648.5492,-3607.5471L13648.7161,-3607.5205L13648.7789,-3607.5105L13648.7981,-3607.5074L13648.8007,-3607.507L13648.8029,-3607.5066L13648.8125,-3607.505L13648.8221,-3607.5034L13648.8429,-3607.5001L13648.869,-3607.4957L13648.8974,-3607.491L13648.9237,-3607.4868L13648.9289,-3607.4859L13648.9342,-3607.4851L13648.9384,-3607.4843L13648.9457,-3607.4832L13648.9943,-3607.4752L13649.0424,-3607.4678L13649.0477,-3607.467L13649.053,-3607.4662L13649.0609,-3607.465L13649.0688,-3607.4638L13649.1685,-3607.4484L13649.2322,-3607.4415L13649.2562,-3607.4352L13649.2621,-3607.4343L13649.2681,-3607.4331L13649.2742,-3607.4324L13649.2872,-3607.4303L13649.3172,-3607.4261L13649.4141,-3607.4112"/>
<path content="3,勝山市,荒土線,3.0,3.0,3.0," xlink:title="3" d="M13648.3288,-3607.5823L13648.3132,-3607.5847L13648.3003,-3607.5869L13648.2537,-3607.594"/>
<path content="3,勝山市,荒土線,3.0,3.0,3.0," xlink:title="3" d="M13646.6847,-3608.0286L13646.6819,-3608.0196L13646.675,-3607.983L13646.6722,-3607.9689L13646.6673,-3607.9543L13646.6608,-3607.9347L13646.6578,-3607.9212L13646.6441,-3607.8773L13646.6433,-3607.8744L13646.6408,-3607.8657L13646.6277,-3607.8708L13646.6183,-3607.8739L13646.5482,-3607.8974"/>
<path content="3,勝山市,荒土線,3.0,3.0,3.0," xlink:title="3" d="M13646.6847,-3608.0286L13646.6965,-3608.0303L13646.7242,-3608.0281L13646.7485,-3608.0286L13646.7637,-3608.0314L13646.7818,-3608.0416L13646.8046,-3608.0579L13646.8136,-3608.0636L13646.8296,-3608.0698L13646.8531,-3608.0765L13646.8566,-3608.077L13646.8788,-3608.0799L13646.8989,-3608.0827L13646.928,-3608.0838L13646.9516,-3608.0872L13646.9738,-3608.0917L13647.0147,-3608.1058L13647.0514,-3608.1233L13647.0604,-3608.1278L13647.0792,-3608.1407L13647.0916,-3608.1509L13647.1145,-3608.1746L13647.1206,-3608.1823L13647.1284,-3608.192L13647.1499,-3608.2241L13647.1631,-3608.2382L13647.1783,-3608.2455L13647.195,-3608.2489L13647.2199,-3608.2495L13647.2442,-3608.2461L13647.252,-3608.2453L13647.2936,-3608.2401L13647.3017,-3608.2393L13647.326,-3608.2365L13647.3558,-3608.232L13647.3808,-3608.2292L13647.3909,-3608.2279L13647.4168,-3608.2247L13647.4758,-3608.2179L13647.5215,-3608.214L13647.5541,-3608.2145L13647.5666,-3608.2173L13647.5985,-3608.2196"/>
<path content="3,勝山市,荒土線,3.0,3.0,3.0," xlink:title="3" d="M13647.5985,-3608.2196L13647.6137,-3608.2207L13647.62,-3608.2213L13647.6657,-3608.2292L13647.7371,-3608.2421L13647.7387,-3608.2424L13647.7864,-3608.25L13647.8252,-3608.2568L13647.8661,-3608.2641L13647.8897,-3608.2686L13647.9091,-3608.2737L13647.9347,-3608.2816L13647.9507,-3608.2895L13647.9673,-3608.303L13647.9853,-3608.3253L13648.0693,-3608.2236L13648.1816,-3608.0883L13648.192,-3608.0754L13648.2024,-3608.0641L13648.2059,-3608.0602L13648.2884,-3608.1041L13648.339,-3608.1312L13648.357,-3608.1402L13648.3702,-3608.1481L13648.3826,-3608.1545L13648.4381,-3608.183L13648.4942,-3608.1824L13648.513,-3608.1796L13648.5262,-3608.1746L13648.5317,-3608.1701L13648.5546,-3608.1385L13648.5876,-3608.1554L13648.6024,-3608.1639L13648.6142,-3608.1695L13648.6309,-3608.1695L13648.6454,-3608.1672L13648.66,-3608.1633L13648.6627,-3608.1622L13648.6974,-3608.1486L13648.7335,-3608.1289L13648.7703,-3608.1024L13648.7765,-3608.0957L13648.7945,-3608.0726L13648.8021,-3608.0591L13648.8049,-3608.0523L13648.8195,-3608.0292L13648.8347,-3608.0128L13648.8396,-3608.0078L13648.8333,-3608.0027L13648.8293,-3607.9989L13648.8084,-3607.9761L13648.7973,-3607.9689L13648.7744,-3607.9413L13648.755,-3607.9103L13648.7508,-3607.9075L13648.7494,-3607.9053L13648.7314,-3607.8934L13648.7086,-3607.8759L13648.6794,-3607.8489L13648.6632,-3607.8364L13648.6524,-3607.8281L13648.6357,-3607.8151L13648.5227,-3607.734L13648.4964,-3607.7143L13648.4908,-3607.7103L13648.4901,-3607.7103L13648.4444,-3607.6776L13648.4382,-3607.672L13648.4208,-3607.6602L13648.3667,-3607.6208L13648.3397,-3607.6016L13648.3341,-3607.5954L13648.3288,-3607.5823"/>
<path content="3,勝山市,荒土線,3.0,3.0,3.0," xlink:title="3" d="M13647.5985,-3608.2196L13647.5737,-3608.2648L13647.568,-3608.2726L13647.5472,-3608.3013L13647.5374,-3608.3154L13647.5243,-3608.3323L13647.518,-3608.3424L13647.5076,-3608.3689L13647.5056,-3608.3819L13647.505,-3608.3928L13647.5042,-3608.4101L13647.509,-3608.4399L13647.5166,-3608.4585L13647.525,-3608.4934L13647.525,-3608.5103L13647.5206,-3608.5159L13647.5126,-3608.5261L13647.4943,-3608.5412L13647.4856,-3608.5484L13647.4784,-3608.5536L13647.4716,-3608.5667L13647.4612,-3608.583L13647.4494,-3608.6055L13647.4373,-3608.6444L13647.4095,-3608.7238L13647.3998,-3608.7486L13647.3915,-3608.7565L13647.3809,-3608.764L13647.3505,-3608.7781L13647.2804,-3608.8106L13647.2735,-3608.8146L13647.261,-3608.8258L13647.2561,-3608.8326L13647.2408,-3608.8692L13647.2339,-3608.8788L13647.2075,-3608.8968L13647.1194,-3608.9509"/>
<path content="3,勝山市,荒土線,3.0,3.0,3.0," xlink:title="3" d="M13647.1194,-3608.9509L13647.1231,-3608.9228L13647.1239,-3608.9114L13647.1249,-3608.9036L13647.1249,-3608.8833L13647.118,-3608.8759L13647.0424,-3608.8151L13647.0319,-3608.8061L13647.0201,-3608.7954L13647.0118,-3608.7858L13646.9979,-3608.7627L13646.9924,-3608.7441L13646.9861,-3608.7131L13646.9847,-3608.7019L13646.9759,-3608.6444L13646.9585,-3608.5498L13646.9554,-3608.5401L13646.9521,-3608.5339L13646.9492,-3608.528L13646.947,-3608.5238L13646.9412,-3608.5171L13646.9308,-3608.5053L13646.9294,-3608.5013L13646.9273,-3608.4613L13646.9218,-3608.45L13646.9072,-3608.4382L13646.8982,-3608.4354L13646.8802,-3608.4326L13646.8414,-3608.4252L13646.7873,-3608.4179L13646.745,-3608.4117L13646.7339,-3608.4095L13646.7311,-3608.4078L13646.727,-3608.4049L13646.725,-3608.4015L13646.7237,-3608.3959L13646.7239,-3608.3898L13646.7215,-3608.3639L13646.7227,-3608.2772L13646.7228,-3608.214L13646.7193,-3608.1903L13646.7076,-3608.13L13646.693,-3608.0658L13646.6847,-3608.0286"/>
<path content="3,勝山市,荒土線,3.0,3.0,3.0," xlink:title="3" d="M13647.4084,-3610.9156L13647.3913,-3610.8906L13647.3792,-3610.8769L13647.3684,-3610.8646L13647.34,-3610.8354L13647.3338,-3610.8326L13647.323,-3610.8306L13647.3025,-3610.8269L13647.288,-3610.823L13647.2748,-3610.814L13647.2623,-3610.7937L13647.2512,-3610.7649L13647.2435,-3610.7384L13647.2165,-3610.6962L13647.1822,-3610.6437L13647.1018,-3610.5243L13647.0888,-3610.4849L13647.0749,-3610.4359L13647.0652,-3610.4128L13646.9618,-3610.2483L13646.9604,-3610.2433L13646.9604,-3610.2184L13646.9659,-3610.1757L13646.9757,-3610.1002L13646.9937,-3609.9678L13646.9992,-3609.9368L13647.0114,-3609.8453L13647.0138,-3609.8359L13647.0201,-3609.7954L13647.0256,-3609.7689L13647.0277,-3609.7593L13647.0319,-3609.7385L13647.0378,-3609.7176L13647.0659,-3609.6179L13647.0787,-3609.5712L13647.0791,-3609.5678L13647.0728,-3609.5599L13647.0479,-3609.5205L13647.0344,-3609.5L13646.9757,-3609.4106L13646.9688,-3609.3976L13646.9632,-3609.3841L13646.9569,-3609.3599L13646.9569,-3609.3351L13646.9583,-3609.3289L13646.9681,-3609.2847L13646.9812,-3609.2247L13646.984,-3609.2038L13646.984,-3609.1807L13646.9778,-3609.1621L13646.9736,-3609.1498L13646.9604,-3609.1126L13646.9611,-3609.0928L13646.9693,-3609.0776L13646.9882,-3609.0421L13646.9951,-3609.0314L13647.0111,-3609.0157L13647.0465,-3608.9954L13647.0939,-3608.9664L13647.1194,-3608.9509"/>
<path content="3,勝山市,野向線,3.0,3.0,3.0," xlink:title="3" d="M13649.2107,-3605.6455L13649.196,-3605.6853L13649.4141,-3605.7687"/>
<path content="3,勝山市,野向線,3.0,3.0,3.0," xlink:title="3" d="M13649.4141,-3607.4112L13649.3172,-3607.4261L13649.2872,-3607.4303L13649.2742,-3607.4324L13649.2681,-3607.4331"/>
<path content="3,勝山市,野向線,3.0,3.0,3.0," xlink:title="3" d="M13649.2681,-3607.4331L13649.2621,-3607.4343L13649.2562,-3607.4352L13649.2322,-3607.4415"/>
<path content="3,勝山市,野向線,3.0,3.0,3.0," xlink:title="3" d="M13649.2681,-3607.4331L13649.3035,-3607.4968L13649.3118,-3607.5109L13649.3368,-3607.5605L13649.3693,-3607.623L13649.3915,-3607.663L13649.4141,-3607.7063M13649.4141,-3608.6371L13649.4086,-3608.6444L13649.3842,-3608.672L13649.3641,-3608.6925L13649.3571,-3608.6996L13649.3509,-3608.7064L13649.3231,-3608.7396L13649.2981,-3608.7746L13649.2801,-3608.8055L13649.2731,-3608.8213L13649.2634,-3608.8523L13649.2613,-3608.8607L13649.2564,-3608.8698L13649.2308,-3608.9171L13649.203,-3608.9633L13649.169,-3609.0067L13649.1558,-3609.0208"/>
<path content="3,勝山市,野向線,3.0,3.0,3.0," xlink:title="3" d="M13649.1558,-3609.0208L13649.159,-3609.0211L13649.1773,-3609.0258L13649.2065,-3609.0354L13649.2453,-3609.0506L13649.2571,-3609.0563L13649.2835,-3609.0681L13649.3211,-3609.0829L13649.3376,-3609.0895L13649.3578,-3609.0946L13649.3655,-3609.0966L13649.3959,-3609.1047L13649.4119,-3609.1092L13649.4141,-3609.1098"/>
<path content="3,勝山市,野向線,3.0,3.0,3.0," xlink:title="3" d="M13649.1558,-3609.0208L13649.1482,-3609.0303L13649.1412,-3609.0416L13649.1322,-3609.0608L13649.1246,-3609.0894L13649.1197,-3609.1024L13649.1136,-3609.1134L13649.1003,-3609.1373L13649.0927,-3609.1576L13649.0919,-3609.1649L13649.0905,-3609.2303L13649.0874,-3609.2441L13649.0849,-3609.25L13649.0676,-3609.281L13649.0607,-3609.2968L13649.0572,-3609.3109L13649.0572,-3609.3333L13649.0711,-3609.37L13649.0753,-3609.3836L13649.078,-3609.4016L13649.0787,-3609.4489L13649.0829,-3609.5193L13649.0878,-3609.552L13649.1111,-3609.68L13649.1356,-3609.7937L13649.1426,-3609.8348L13649.155,-3609.9148L13649.1634,-3609.9514L13649.1668,-3609.9599L13649.1731,-3609.9722L13649.1918,-3609.9909L13649.1925,-3609.9914L13649.1967,-3609.9999L13649.1967,-3610.0168L13649.1994,-3610.0297L13649.2231,-3610.0461L13649.2314,-3610.0556L13649.2369,-3610.0686L13649.2432,-3610.0934L13649.2432,-3610.1091L13649.2397,-3610.1227L13649.2364,-3610.1296L13649.2322,-3610.1383L13649.221,-3610.1591L13649.1786,-3610.2331L13649.2047,-3610.2405L13649.2522,-3610.2703L13649.2737,-3610.2832L13649.2911,-3610.2973L13649.2987,-3610.3074L13649.3264,-3610.3452L13649.3521,-3610.3649L13649.3764,-3610.3756L13649.3827,-3610.3773L13649.4028,-3610.3869L13649.4104,-3610.3948L13649.4141,-3610.3992"/>
<path content="3,勝山市,鹿谷線,4.0,4.0,4.0," xlink:title="3" d="M13646.4608,-3605.232L13646.4379,-3605.2168L13646.3984,-3605.1937L13646.3298,-3605.1509L13646.2391,-3605.0979L13646.1632,-3605.052L13646.0904,-3605.0065L13646.067,-3604.9914L13645.997,-3604.9486L13645.8773,-3604.8773L13645.8714,-3604.8735L13645.8586,-3604.869L13645.8426,-3604.8651L13645.831,-3604.8644L13645.8334,-3604.8365L13645.8278,-3604.7892L13645.823,-3604.7694L13645.8174,-3604.757L13645.8119,-3604.7491L13645.7911,-3604.7204L13645.7786,-3604.6934L13645.7661,-3604.6736L13645.7294,-3604.6291L13645.7238,-3604.6224L13645.6996,-3604.5925L13645.6899,-3604.5829L13645.6697,-3604.5599L13645.667,-3604.5559L13645.6614,-3604.5441L13645.6559,-3604.5176L13645.6496,-3604.5007L13645.6449,-3604.4955"/>
<path content="3,勝山市,鹿谷線,4.0,4.0,4.0," xlink:title="3" d="M13646.4608,-3605.232L13646.5373,-3605.1725L13646.5558,-3605.1576L13646.56,-3605.1402L13646.5607,-3605.1255L13646.5607,-3605.108L13646.5607,-3605.1013L13646.5586,-3605.0894L13646.5516,-3605.0703L13646.5482,-3605.0534L13646.5496,-3605.0331L13646.5537,-3604.9982L13646.5669,-3604.9165L13646.5675,-3604.9126L13646.5787,-3604.8433L13646.5884,-3604.7824L13646.5933,-3604.7565L13646.5967,-3604.7413L13646.597,-3604.7377L13646.5988,-3604.73L13646.5988,-3604.7159L13646.5905,-3604.6771L13646.5641,-3604.5892L13646.5628,-3604.5813L13646.5535,-3604.551L13646.5468,-3604.5289L13646.5454,-3604.5216L13646.5329,-3604.4816L13646.5281,-3604.4624L13646.5156,-3604.4235L13646.4879,-3604.3317L13646.4677,-3604.2599L13646.4601,-3604.2151L13646.4518,-3604.1818L13646.447,-3604.1644L13646.4352,-3604.1401L13646.427,-3604.1304"/>
<path content="3,勝山市,鹿谷線,4.0,4.0,4.0," xlink:title="3" d="M13649.2107,-3605.6455L13649.196,-3605.6853L13649.4141,-3605.7687"/>
<path content="3,勝山市,鹿谷線,4.0,4.0,4.0," xlink:title="3" d="M13646.094,-3606.5407L13646.089,-3606.5322"/>
<path content="3,勝山市,鹿谷線,4.0,4.0,4.0," xlink:title="3" d="M13646.094,-3606.5407L13646.0878,-3606.5419L13646.0254,-3606.5424L13646.0108,-3606.5396L13645.9928,-3606.5357L13645.9831,-3606.5351L13645.9796,-3606.5385L13645.9713,-3606.543L13645.9422,-3606.5683L13645.9297,-3606.5757L13645.9117,-3606.5836L13645.868,-3606.6077L13645.8597,-3606.6145L13645.8444,-3606.6359L13645.8312,-3606.6472L13645.8035,-3606.6585L13645.7792,-3606.6658L13645.757,-3606.6726L13645.7501,-3606.6748L13645.7245,-3606.6849L13645.7016,-3606.6968L13645.6711,-3606.7176L13645.6579,-3606.7323L13645.6214,-3606.7243L13645.6136,-3606.7233L13645.6107,-3606.6906L13645.6059,-3606.663L13645.5983,-3606.6314L13645.5941,-3606.6207L13645.5837,-3606.6072L13645.5733,-3606.5988L13645.5646,-3606.5941L13645.5705,-3606.5801L13645.5865,-3606.5565L13645.5934,-3606.5481L13645.6038,-3606.5385L13645.6177,-3606.5314L13645.6226,-3606.5289L13645.6329,-3606.5221L13645.6385,-3606.5165L13645.6572,-3606.4895L13645.6753,-3606.4709L13645.6988,-3606.454L13645.7044,-3606.45L13645.7259,-3606.4382L13645.7862,-3606.4055L13645.7917,-3606.4027L13645.8125,-3606.3897L13645.8264,-3606.379L13645.8513,-3606.3621L13645.8629,-3606.3564L13645.8666,-3606.3548L13645.9283,-3606.3289L13645.9387,-3606.3255L13645.9588,-3606.3142L13645.9678,-3606.3103L13645.9852,-3606.3013L13646.0032,-3606.2872L13646.0254,-3606.2641L13646.0594,-3606.2376L13646.0704,-3606.2314L13646.1058,-3606.2066L13646.1239,-3606.1909L13646.1336,-3606.1745L13646.1377,-3606.1565L13646.1654,-3606.1509L13646.2042,-3606.1435L13646.2389,-3606.1362L13646.2812,-3606.1289L13646.3055,-3606.1261L13646.3769,-3606.1238L13646.4338,-3606.1233L13646.4379,-3606.0759L13646.4379,-3606.0375L13646.4414,-3605.983L13646.4421,-3605.9694L13646.449,-3605.8652L13646.4566,-3605.7762L13646.4601,-3605.7345L13646.4738,-3605.6092L13646.4747,-3605.5616L13646.4802,-3605.512L13646.4816,-3605.4962L13646.4837,-3605.4782L13646.4851,-3605.4698L13646.4934,-3605.4241L13646.4941,-3605.41L13646.4899,-3605.3954L13646.4809,-3605.3582L13646.4797,-3605.3516L13646.465,-3605.2624L13646.458,-3605.2395L13646.4608,-3605.232"/>
<path content="3,勝山市,鹿谷線,4.0,4.0,4.0," xlink:title="3" d="M13649.4141,-3607.4112L13649.3172,-3607.4261L13649.2872,-3607.4303L13649.2742,-3607.4324L13649.2681,-3607.4331L13649.2621,-3607.4343L13649.2562,-3607.4352L13649.2322,-3607.4415L13649.1685,-3607.4484L13649.0688,-3607.4638L13649.0609,-3607.465L13649.053,-3607.4662L13649.0448,-3607.4562L13648.9963,-3607.3954L13648.9804,-3607.3757L13648.9679,-3607.3593L13648.9207,-3607.3013L13648.9089,-3607.285L13648.8826,-3607.2518L13648.8513,-3607.2143L13648.8077,-3607.1622L13648.7592,-3607.1019L13648.7026,-3607.0328L13648.5054,-3607.0714L13648.4638,-3607.0804L13648.4201,-3607.0895L13648.3745,-3607.0995L13648.2863,-3607.1185L13648.2537,-3607.1281L13648.1726,-3607.1441L13648.1872,-3607.1802L13648.1884,-3607.184L13648.2059,-3607.2354L13648.2204,-3607.2748L13648.2385,-3607.3306L13648.2454,-3607.3481L13648.2551,-3607.3768L13648.2669,-3607.4072L13648.2683,-3607.4129L13648.2939,-3607.485L13648.192,-3607.5024L13648.061,-3607.5238L13647.9986,-3607.5341L13647.9286,-3607.5464L13647.9133,-3607.4709L13647.8897,-3607.3638L13647.8792,-3607.3126L13647.8731,-3607.2827L13647.8599,-3607.2185L13647.8266,-3607.2269L13647.7421,-3607.2472L13647.7317,-3607.2495L13647.5596,-3607.2898L13647.5479,-3607.2945L13647.4252,-3607.325L13647.4148,-3607.3267L13647.3898,-3607.3334L13647.3815,-3607.3362L13647.3794,-3607.3362L13647.351,-3607.343L13647.3219,-3607.3526L13647.3052,-3607.3599L13647.29,-3607.3684L13647.2567,-3607.3886L13647.2304,-3607.4101L13647.0695,-3607.5556L13647.0612,-3607.5633L13647.0071,-3607.6112L13646.9892,-3607.6273L13646.9684,-3607.651L13646.8732,-3607.7244L13646.8608,-3607.7345L13646.8546,-3607.7436L13646.8456,-3607.7638L13646.8407,-3607.7723L13646.8289,-3607.8004L13646.82,-3607.8211L13646.8043,-3607.8236L13646.7975,-3607.8247L13646.7449,-3607.8338L13646.6776,-3607.8514L13646.6692,-3607.8546L13646.6548,-3607.8604L13646.6408,-3607.8657L13646.6375,-3607.8517L13646.6223,-3607.7875L13646.6184,-3607.7754L13646.6119,-3607.7345L13646.607,-3607.7075L13646.598,-3607.6433L13646.5939,-3607.6123L13646.5952,-3607.5988L13646.5966,-3607.5926L13646.5983,-3607.5862L13646.6509,-3607.387L13646.6797,-3607.2749L13646.6803,-3607.2666L13646.6816,-3607.2423L13646.6777,-3607.2365L13646.668,-3607.2307L13646.6572,-3607.2275L13646.6438,-3607.2275L13646.6216,-3607.2309L13646.6133,-3607.2337L13646.5967,-3607.2354L13646.5918,-3607.2348L13646.5842,-3607.232"/>
<path content="3,勝山市,鹿谷線,4.0,4.0,4.0," xlink:title="3" d="M13646.5842,-3607.232L13646.571,-3607.2185L13646.5585,-3607.2027L13646.5246,-3607.1644L13646.4996,-3607.1334L13646.4899,-3607.1176L13646.4857,-3607.1024L13646.4816,-3607.0692L13646.4816,-3607.0602L13646.4788,-3607.0309L13646.4769,-3607.0137L13646.4781,-3606.9836L13646.4767,-3606.9587L13646.4745,-3606.8917L13646.4739,-3606.8743L13646.476,-3606.7686L13646.4677,-3606.7345L13646.4636,-3606.7188L13646.4497,-3606.6635L13646.4483,-3606.6517L13646.4434,-3606.6207L13646.4344,-3606.5593L13646.4277,-3606.5449L13646.4275,-3606.5188L13646.4171,-3606.5199L13646.4088,-3606.5204L13646.2285,-3606.5182L13646.1918,-3606.5182L13646.1779,-3606.5199L13646.1425,-3606.5278L13646.137,-3606.5289L13646.1162,-3606.5351L13646.1093,-3606.5362L13646.094,-3606.5407"/>
<path content="3,勝山市,鹿谷線,4.0,4.0,4.0," xlink:title="3" d="M13646.5842,-3607.232L13646.5667,-3607.2629"/>
<path content="3,永平寺町,上志比地区【10】,1.0,0.0,0.0," xlink:title="3" d="M13642.1815,-3606.2485L13642.1642,-3606.2826L13642.1559,-3606.3057L13642.1538,-3606.3147L13642.1469,-3606.335L13642.124,-3606.4133L13642.124,-3606.4426L13642.1323,-3606.4696L13642.133,-3606.486L13642.1213,-3606.5175L13642.1185,-3606.5299L13642.1185,-3606.5524L13642.1261,-3606.5913L13642.1316,-3606.606L13642.1323,-3606.6218L13642.1288,-3606.6308L13642.1171,-3606.6527L13642.1157,-3606.6544L13642.0776,-3606.708L13642.0686,-3606.7249L13642.0637,-3606.7384L13642.0574,-3606.7789L13642.0519,-3606.7964L13642.045,-3606.8116L13642.0297,-3606.8308L13642.0089,-3606.8488L13641.9853,-3606.864L13641.9534,-3606.8809L13641.9277,-3606.8974L13641.9236,-3606.9001L13641.9173,-3606.9048L13641.8834,-3606.9299L13641.8557,-3606.9457L13641.83,-3606.9558L13641.8093,-3606.9631L13641.7364,-3606.9829L13641.7534,-3607.0333L13641.7766,-3607.1023L13641.7822,-3607.1254L13641.7804,-3607.146L13641.7766,-3607.157L13641.7697,-3607.1744L13641.7697,-3607.1755L13641.7662,-3607.1896L13641.7641,-3607.2144L13641.7593,-3607.2279L13641.758,-3607.2357L13641.7572,-3607.2403L13641.7579,-3607.2482L13641.7662,-3607.2719L13641.7731,-3607.2877L13641.7731,-3607.2901L13641.7731,-3607.2956L13641.769,-3607.3029L13641.7496,-3607.3277L13641.7482,-3607.3299L13641.7468,-3607.3321L13641.7357,-3607.3491L13641.7267,-3607.3654L13641.7246,-3607.3716L13641.7246,-3607.4161L13641.7196,-3607.4277L13641.7079,-3607.4344L13641.6968,-3607.4389L13641.6851,-3607.4437L13641.6463,-3607.4539L13641.6317,-3607.4646L13641.631,-3607.4651L13641.6179,-3607.4786L13641.6102,-3607.4764L13641.5756,-3607.4657L13641.509,-3607.4488L13641.4757,-3607.442L13641.466,-3607.4398L13641.4584,-3607.4386L13641.4521,-3607.4364L13641.4223,-3607.4308L13641.3724,-3607.4251L13641.3572,-3607.424L13641.3183,-3607.424L13641.3047,-3607.4264L13641.2767,-3607.4263L13641.2634,-3607.4279L13641.1672,-3607.4279L13640.9682,-3607.4287L13640.7567,-3607.4324L13640.7144,-3607.4347L13640.6839,-3607.4381L13640.6617,-3607.4409L13640.6555,-3607.4426L13640.6368,-3607.4443L13640.634,-3607.4223L13640.6326,-3607.4093L13640.6271,-3607.3744L13640.625,-3607.3638"/>
<path content="3,永平寺町,上志比地区【12】,1.0,0.0,0.0," xlink:title="3" d="M13642.1815,-3606.2485L13642.1642,-3606.2826L13642.1559,-3606.3057L13642.1538,-3606.3147L13642.1469,-3606.335L13642.124,-3606.4133L13642.124,-3606.4426L13642.1323,-3606.4696L13642.133,-3606.486L13642.1213,-3606.5175L13642.1185,-3606.5299L13642.1185,-3606.5524L13642.1261,-3606.5913L13642.1316,-3606.606L13642.1323,-3606.6218L13642.1288,-3606.6308L13642.1171,-3606.6527L13642.1157,-3606.6544L13642.0776,-3606.708L13642.0686,-3606.7249L13642.0637,-3606.7384L13642.0574,-3606.7789L13642.0519,-3606.7964L13642.045,-3606.8116L13642.0297,-3606.8308L13642.0089,-3606.8488L13641.9853,-3606.864L13641.9534,-3606.8809L13641.9277,-3606.8974L13641.9236,-3606.9001L13641.9173,-3606.9048L13641.8834,-3606.9299L13641.8557,-3606.9457L13641.83,-3606.9558L13641.8093,-3606.9631L13641.7364,-3606.9829L13641.7534,-3607.0333L13641.7766,-3607.1023L13641.7822,-3607.1254L13641.7804,-3607.146L13641.7766,-3607.157L13641.7697,-3607.1744L13641.7697,-3607.1755L13641.7662,-3607.1896L13641.7641,-3607.2144L13641.7593,-3607.2279L13641.758,-3607.2357L13641.7572,-3607.2403L13641.7579,-3607.2482L13641.7662,-3607.2719L13641.7731,-3607.2877L13641.7731,-3607.2901L13641.7731,-3607.2956L13641.769,-3607.3029L13641.7496,-3607.3277L13641.7482,-3607.3299L13641.7468,-3607.3321L13641.7357,-3607.3491L13641.7267,-3607.3654L13641.7246,-3607.3716L13641.7246,-3607.4161L13641.7218,-3607.4218L13641.7196,-3607.4277L13641.7079,-3607.4344L13641.6968,-3607.4389L13641.6851,-3607.4437L13641.6463,-3607.4539L13641.6317,-3607.4646L13641.631,-3607.4651L13641.6179,-3607.4786L13641.6102,-3607.4764L13641.5756,-3607.4657L13641.509,-3607.4488L13641.4757,-3607.442L13641.466,-3607.4398L13641.4584,-3607.4386L13641.4521,-3607.4364L13641.4223,-3607.4308L13641.3724,-3607.4251L13641.3572,-3607.424L13641.3183,-3607.424L13641.3047,-3607.4264L13641.2767,-3607.4263L13641.2634,-3607.4279L13641.1672,-3607.4279L13640.9682,-3607.4287L13640.7567,-3607.4324L13640.7144,-3607.4347L13640.6839,-3607.4381L13640.6617,-3607.4409L13640.6555,-3607.4426L13640.6368,-3607.4443L13640.634,-3607.4223L13640.6326,-3607.4093L13640.6271,-3607.3744L13640.625,-3607.3638"/>
<path content="3,永平寺町,上志比地区【13】,1.0,0.0,0.0," xlink:title="3" d="M13642.1815,-3606.2485L13642.1642,-3606.2826L13642.1559,-3606.3057L13642.1538,-3606.3147L13642.1469,-3606.335L13642.124,-3606.4133L13642.124,-3606.4426L13642.1323,-3606.4696L13642.133,-3606.486L13642.1213,-3606.5175L13642.1185,-3606.5299L13642.1185,-3606.5524L13642.1261,-3606.5913L13642.1316,-3606.606L13642.1323,-3606.6218L13642.1288,-3606.6308L13642.1171,-3606.6527L13642.1157,-3606.6544L13642.0776,-3606.708L13642.0686,-3606.7249L13642.0637,-3606.7384L13642.0574,-3606.7789L13642.0519,-3606.7964L13642.045,-3606.8116L13642.0297,-3606.8308L13642.0089,-3606.8488L13641.9853,-3606.864L13641.9534,-3606.8809L13641.9277,-3606.8974L13641.9236,-3606.9001L13641.9173,-3606.9048L13641.8834,-3606.9299L13641.8557,-3606.9457L13641.83,-3606.9558L13641.8093,-3606.9631L13641.7364,-3606.9829L13641.7534,-3607.0333L13641.7766,-3607.1023L13641.7822,-3607.1254L13641.7804,-3607.146L13641.7766,-3607.157L13641.7697,-3607.1744L13641.7697,-3607.1755L13641.7662,-3607.1896L13641.7641,-3607.2144L13641.7593,-3607.2279L13641.758,-3607.2357L13641.7572,-3607.2403L13641.7579,-3607.2482L13641.7662,-3607.2719L13641.7731,-3607.2877L13641.7731,-3607.2901L13641.7731,-3607.2956L13641.769,-3607.3029L13641.7496,-3607.3277L13641.7482,-3607.3299L13641.7468,-3607.3321L13641.7357,-3607.3491L13641.7267,-3607.3654L13641.7246,-3607.3716L13641.7246,-3607.4161L13641.7196,-3607.4277L13641.7079,-3607.4344L13641.6968,-3607.4389L13641.6851,-3607.4437L13641.6463,-3607.4539L13641.6317,-3607.4646L13641.631,-3607.4651L13641.6179,-3607.4786L13641.6102,-3607.4764L13641.5756,-3607.4657L13641.509,-3607.4488L13641.4757,-3607.442L13641.466,-3607.4398L13641.4584,-3607.4386L13641.4521,-3607.4364L13641.4223,-3607.4308L13641.3724,-3607.4251L13641.3572,-3607.424L13641.3183,-3607.424L13641.3047,-3607.4264"/>
<path content="3,永平寺町,上志比地区【14】,1.0,0.0,0.0," xlink:title="3" d="M13642.1815,-3606.2485L13642.1642,-3606.2826L13642.1559,-3606.3057L13642.1538,-3606.3147L13642.1469,-3606.335L13642.124,-3606.4133L13642.124,-3606.4426L13642.1323,-3606.4696L13642.133,-3606.486L13642.1213,-3606.5175L13642.1185,-3606.5299L13642.1185,-3606.5524L13642.1261,-3606.5913L13642.1316,-3606.606L13642.1323,-3606.6218L13642.1288,-3606.6308L13642.1171,-3606.6527L13642.1157,-3606.6544L13642.0776,-3606.708L13642.0686,-3606.7249L13642.0637,-3606.7384L13642.0574,-3606.7789L13642.0519,-3606.7964L13642.045,-3606.8116L13642.0297,-3606.8308L13642.0089,-3606.8488L13641.9853,-3606.864L13641.9534,-3606.8809L13641.9277,-3606.8974L13641.9236,-3606.9001L13641.9173,-3606.9048L13641.8834,-3606.9299L13641.8557,-3606.9457L13641.83,-3606.9558L13641.8093,-3606.9631L13641.7364,-3606.9829L13641.7534,-3607.0333L13641.7766,-3607.1023L13641.7822,-3607.1254L13641.7804,-3607.146L13641.7766,-3607.157L13641.7697,-3607.1744L13641.7697,-3607.1755L13641.7662,-3607.1896L13641.7641,-3607.2144L13641.7593,-3607.2279L13641.758,-3607.2357L13641.7572,-3607.2403L13641.7579,-3607.2482L13641.7662,-3607.2719L13641.7731,-3607.2877L13641.7731,-3607.2901L13641.7731,-3607.2956L13641.769,-3607.3029L13641.7496,-3607.3277L13641.7482,-3607.3299L13641.7468,-3607.3321L13641.7357,-3607.3491L13641.7267,-3607.3654L13641.7246,-3607.3716L13641.7246,-3607.4161L13641.7196,-3607.4277L13641.7079,-3607.4344L13641.6968,-3607.4389L13641.6851,-3607.4437L13641.6463,-3607.4539L13641.6317,-3607.4646L13641.631,-3607.4651L13641.6179,-3607.4786L13641.6102,-3607.4764L13641.5756,-3607.4657L13641.509,-3607.4488L13641.4757,-3607.442L13641.466,-3607.4398L13641.4584,-3607.4386L13641.4521,-3607.4364L13641.4223,-3607.4308L13641.3724,-3607.4251L13641.3572,-3607.424L13641.3183,-3607.424L13641.3047,-3607.4264"/>
<path content="3,永平寺町,上志比地区【1】,1.0,0.0,0.0," xlink:title="3" d="M13641.3047,-3607.4264L13641.3572,-3607.424L13641.3724,-3607.4251L13641.4223,-3607.4308L13641.4521,-3607.4364L13641.4584,-3607.4386L13641.466,-3607.4398L13641.4757,-3607.442L13641.509,-3607.4488L13641.5756,-3607.4657L13641.6102,-3607.4764L13641.6179,-3607.4786L13641.631,-3607.4651L13641.6317,-3607.4646L13641.6463,-3607.4539L13641.6851,-3607.4437L13641.6968,-3607.4389L13641.7079,-3607.4344L13641.7196,-3607.4277L13641.7246,-3607.4161L13641.7246,-3607.3716L13641.7267,-3607.3654L13641.7357,-3607.3491L13641.7468,-3607.3321L13641.7482,-3607.3299L13641.7496,-3607.3277L13641.769,-3607.3029L13641.7731,-3607.2956L13641.7731,-3607.2901L13641.7731,-3607.2877L13641.7662,-3607.2719L13641.7579,-3607.2482L13641.7572,-3607.2403L13641.758,-3607.2357L13641.7593,-3607.2279L13641.7641,-3607.2144L13641.7662,-3607.1896L13641.7697,-3607.1755L13641.7697,-3607.1744L13641.7766,-3607.157L13641.7804,-3607.146L13641.7822,-3607.1254L13641.7766,-3607.1023L13641.7534,-3607.0333L13641.7364,-3606.9829L13641.8093,-3606.9631L13641.83,-3606.9558L13641.8557,-3606.9457L13641.8834,-3606.9299L13641.9173,-3606.9048L13641.9236,-3606.9001L13641.9277,-3606.8974L13641.9534,-3606.8809L13641.9853,-3606.864L13642.0089,-3606.8488L13642.0297,-3606.8308L13642.045,-3606.8116L13642.0519,-3606.7964L13642.0574,-3606.7789L13642.0637,-3606.7384L13642.0686,-3606.7249L13642.0776,-3606.708L13642.1157,-3606.6544L13642.1171,-3606.6527L13642.1288,-3606.6308L13642.1323,-3606.6218L13642.1316,-3606.606L13642.1261,-3606.5913L13642.1185,-3606.5524L13642.1185,-3606.5299L13642.1213,-3606.5175L13642.133,-3606.486L13642.1323,-3606.4696L13642.124,-3606.4426L13642.124,-3606.4133L13642.1469,-3606.335L13642.1538,-3606.3147L13642.1559,-3606.3057L13642.1642,-3606.2826L13642.1815,-3606.2485"/>
<path content="3,永平寺町,上志比地区【2】,1.0,0.0,0.0," xlink:title="3" d="M13640.625,-3607.1741L13640.7131,-3607.1524L13640.7727,-3607.1366L13640.8462,-3607.1152L13640.8996,-3607.0977L13640.9247,-3607.0864L13640.9391,-3607.0803L13640.9474,-3607.0769L13640.9689,-3607.0696L13640.9987,-3607.0639L13641.0341,-3607.0639L13641.0639,-3607.069L13641.0906,-3607.0786L13641.1145,-3607.0826L13641.1194,-3607.0836L13641.1207,-3607.1006L13641.1173,-3607.1197L13641.1069,-3607.1513L13641.0875,-3607.1896L13641.0757,-3607.2071L13641.059,-3607.2234L13641.0576,-3607.2251L13641.05,-3607.2347L13641.041,-3607.2533L13641.0368,-3607.2831L13641.0306,-3607.3034L13641.0251,-3607.3141L13641.0202,-3607.3243L13641.0042,-3607.3569L13640.9682,-3607.4287L13641.1672,-3607.4279L13641.2634,-3607.4279L13641.2767,-3607.4263L13641.3047,-3607.4264L13641.3572,-3607.424L13641.3724,-3607.4251L13641.4223,-3607.4308L13641.4521,-3607.4364L13641.4584,-3607.4386L13641.466,-3607.4398L13641.4757,-3607.442L13641.509,-3607.4488L13641.5756,-3607.4657L13641.6102,-3607.4764L13641.6179,-3607.4786L13641.631,-3607.4651L13641.6317,-3607.4646L13641.6463,-3607.4539L13641.6851,-3607.4437L13641.6968,-3607.4389L13641.7196,-3607.4277L13641.7246,-3607.4161L13641.7246,-3607.3716L13641.7267,-3607.3654L13641.7357,-3607.3491L13641.7468,-3607.3321L13641.7482,-3607.3299L13641.7496,-3607.3277L13641.769,-3607.3029L13641.7731,-3607.2956L13641.7731,-3607.2901L13641.7731,-3607.2877L13641.7662,-3607.2719L13641.7579,-3607.2482L13641.7572,-3607.2403L13641.758,-3607.2357L13641.7593,-3607.2279L13641.7641,-3607.2144L13641.7662,-3607.1896L13641.7697,-3607.1755L13641.7697,-3607.1744L13641.7766,-3607.157L13641.7804,-3607.146L13641.7822,-3607.1254L13641.7766,-3607.1023L13641.7534,-3607.0333L13641.7364,-3606.9829L13641.8093,-3606.9631L13641.83,-3606.9558L13641.8557,-3606.9457L13641.8834,-3606.9299L13641.9173,-3606.9048L13641.9236,-3606.9001L13641.9277,-3606.8974L13641.9534,-3606.8809L13641.9853,-3606.864L13642.0089,-3606.8488L13642.0297,-3606.8308L13642.045,-3606.8116L13642.0519,-3606.7964L13642.0574,-3606.7789L13642.0637,-3606.7384L13642.0686,-3606.7249L13642.0776,-3606.708L13642.1157,-3606.6544L13642.1171,-3606.6527L13642.1288,-3606.6308L13642.1323,-3606.6218L13642.1316,-3606.606L13642.1261,-3606.5913L13642.1185,-3606.5524L13642.1185,-3606.5299L13642.1213,-3606.5175L13642.133,-3606.486L13642.1323,-3606.4696L13642.124,-3606.4426L13642.124,-3606.4133L13642.1469,-3606.335L13642.1538,-3606.3147L13642.1559,-3606.3057L13642.1642,-3606.2826L13642.1815,-3606.2485"/>
<path content="3,永平寺町,上志比地区【4】,1.0,1.0,0.0," xlink:title="3" d="M13642.1815,-3606.2485L13642.1642,-3606.2826L13642.1559,-3606.3057L13642.1538,-3606.3147L13642.1469,-3606.335L13642.124,-3606.4133L13642.124,-3606.4426L13642.1323,-3606.4696L13642.133,-3606.486L13642.1213,-3606.5175L13642.1185,-3606.5299L13642.1185,-3606.5524L13642.1261,-3606.5913L13642.1316,-3606.606L13642.1323,-3606.6218L13642.1288,-3606.6308L13642.1171,-3606.6527L13642.1157,-3606.6544L13642.0776,-3606.708L13642.0686,-3606.7249L13642.0637,-3606.7384L13642.0574,-3606.7789L13642.0519,-3606.7964L13642.045,-3606.8116L13642.0297,-3606.8308L13642.0089,-3606.8488L13641.9853,-3606.864L13641.9534,-3606.8809L13641.9277,-3606.8974L13641.9236,-3606.9001L13641.9173,-3606.9048L13641.8834,-3606.9299L13641.8557,-3606.9457L13641.83,-3606.9558L13641.8093,-3606.9631L13641.7364,-3606.9829"/>
<path content="3,永平寺町,上志比地区【4】,1.0,1.0,0.0," xlink:title="3" d="M13641.7364,-3606.9829L13641.6518,-3607.002L13641.6331,-3607.0026L13641.5964,-3606.9941L13641.5735,-3606.9907L13641.5388,-3606.9907L13641.4556,-3606.9975L13641.4362,-3607.0014L13641.4161,-3607.0082L13641.4029,-3607.0143L13641.4002,-3607.0155L13641.3821,-3607.0268L13641.3669,-3607.0369L13641.2767,-3607.0984L13641.2566,-3607.1051L13641.2275,-3607.1046L13641.1936,-3607.0995L13641.1744,-3607.0954L13641.1194,-3607.0836L13641.1145,-3607.0826L13641.0906,-3607.0786L13641.0639,-3607.069L13641.0341,-3607.0639L13640.9987,-3607.0639L13640.9689,-3607.0696L13640.9474,-3607.0769L13640.9391,-3607.0803L13640.9247,-3607.0864L13640.8996,-3607.0977L13640.8462,-3607.1152L13640.7727,-3607.1366L13640.7131,-3607.1524L13640.625,-3607.1741"/>
<path content="3,永平寺町,上志比地区【4】,1.0,1.0,0.0," xlink:title="3" d="M13640.625,-3607.6753L13640.6277,-3607.6741L13640.6444,-3607.6611L13640.6493,-3607.6544L13640.6687,-3607.6251L13640.6839,-3607.6071L13640.6923,-3607.5997L13640.7117,-3607.5828L13640.7491,-3607.5592L13640.79,-3607.54L13640.8039,-3607.5333L13640.8212,-3607.5265L13640.842,-3607.5164L13640.8462,-3607.5153L13640.8524,-3607.5119L13640.9044,-3607.482L13640.9418,-3607.4617L13640.9619,-3607.4519L13640.9853,-3607.454L13641.0112,-3607.4521L13641.0202,-3607.4544L13641.023,-3607.4561L13641.0354,-3607.4696L13641.0403,-3607.4724L13641.0597,-3607.4792L13641.0757,-3607.482L13641.0958,-3607.4876L13641.1262,-3607.4995"/>
<path content="3,永平寺町,上志比地区【4】,1.0,1.0,0.0," xlink:title="3" d="M13641.1262,-3607.4995L13641.1471,-3607.5062L13641.1692,-3607.5119L13641.1887,-3607.5153L13641.2393,-3607.5203L13641.2559,-3607.5248L13641.2663,-3607.5034L13641.2684,-3607.4995L13641.2733,-3607.4854L13641.2733,-3607.4668L13641.2634,-3607.4279L13641.2767,-3607.4263L13641.3047,-3607.4264L13641.3183,-3607.424L13641.3572,-3607.424L13641.3724,-3607.4251L13641.4223,-3607.4308L13641.4521,-3607.4364L13641.4584,-3607.4386L13641.466,-3607.4398L13641.4757,-3607.442L13641.509,-3607.4488L13641.5756,-3607.4657L13641.6102,-3607.4764L13641.6179,-3607.4786L13641.631,-3607.4651L13641.6317,-3607.4646L13641.6463,-3607.4539L13641.6851,-3607.4437L13641.6968,-3607.4389L13641.7079,-3607.4344L13641.7149,-3607.4291L13641.7196,-3607.4277L13641.7218,-3607.4218L13641.7246,-3607.4161L13641.7246,-3607.3716L13641.7267,-3607.3654L13641.7357,-3607.3491L13641.7468,-3607.3321L13641.7482,-3607.3299L13641.7496,-3607.3277L13641.769,-3607.3029L13641.7731,-3607.2956L13641.7731,-3607.2901L13641.7731,-3607.2877L13641.7662,-3607.2719L13641.7579,-3607.2482L13641.7572,-3607.2403L13641.758,-3607.2357L13641.7593,-3607.2279L13641.7641,-3607.2144L13641.7662,-3607.1896L13641.7697,-3607.1755L13641.7697,-3607.1744L13641.7766,-3607.157L13641.7804,-3607.146L13641.7822,-3607.1254L13641.7766,-3607.1023L13641.7534,-3607.0333L13641.7364,-3606.9829"/>
<path content="3,永平寺町,上志比地区【4】,1.0,1.0,0.0," xlink:title="3" d="M13641.1262,-3607.4995L13641.1207,-3607.5091L13641.1172,-3607.522L13641.1153,-3607.5465"/>
<path content="3,永平寺町,上志比地区【6】,1.0,0.0,0.0," xlink:title="3" d="M13642.1815,-3606.2485L13642.1642,-3606.2826L13642.1559,-3606.3057L13642.1538,-3606.3147L13642.1469,-3606.335L13642.124,-3606.4133L13642.124,-3606.4426L13642.1323,-3606.4696L13642.133,-3606.486L13642.1213,-3606.5175L13642.1185,-3606.5299L13642.1185,-3606.5524L13642.1261,-3606.5913L13642.1316,-3606.606L13642.1323,-3606.6218L13642.1288,-3606.6308L13642.1171,-3606.6527L13642.1157,-3606.6544L13642.0776,-3606.708L13642.0686,-3606.7249L13642.0637,-3606.7384L13642.0574,-3606.7789L13642.0519,-3606.7964L13642.045,-3606.8116L13642.0297,-3606.8308L13642.0089,-3606.8488L13641.9853,-3606.864L13641.9534,-3606.8809L13641.9277,-3606.8974L13641.9236,-3606.9001L13641.9173,-3606.9048L13641.8834,-3606.9299L13641.8557,-3606.9457L13641.83,-3606.9558L13641.8093,-3606.9631L13641.7364,-3606.9829"/>
<path content="3,永平寺町,上志比地区【6】,1.0,0.0,0.0," xlink:title="3" d="M13641.7364,-3606.9829L13641.6518,-3607.002L13641.6331,-3607.0026L13641.5964,-3606.9941L13641.5735,-3606.9907L13641.5388,-3606.9907L13641.4556,-3606.9975L13641.4362,-3607.0014L13641.4161,-3607.0082L13641.4029,-3607.0143L13641.4002,-3607.0155L13641.3821,-3607.0268L13641.3669,-3607.0369L13641.2767,-3607.0984L13641.2566,-3607.1051L13641.2275,-3607.1046L13641.1936,-3607.0995L13641.1744,-3607.0954L13641.1194,-3607.0836L13641.1145,-3607.0826L13641.0906,-3607.0786L13641.0639,-3607.069L13641.0341,-3607.0639L13640.9987,-3607.0639L13640.9689,-3607.0696L13640.9474,-3607.0769L13640.9391,-3607.0803L13640.9247,-3607.0864L13640.8996,-3607.0977L13640.8462,-3607.1152L13640.7727,-3607.1366L13640.7131,-3607.1524L13640.625,-3607.1741"/>
<path content="3,永平寺町,上志比地区【6】,1.0,0.0,0.0," xlink:title="3" d="M13640.625,-3607.6753L13640.6277,-3607.6741L13640.6444,-3607.6611L13640.6493,-3607.6544L13640.6687,-3607.6251L13640.6839,-3607.6071L13640.6923,-3607.5997L13640.7117,-3607.5828L13640.7491,-3607.5592L13640.79,-3607.54L13640.8039,-3607.5333L13640.8212,-3607.5265L13640.842,-3607.5164L13640.8462,-3607.5153L13640.8524,-3607.5119L13640.9044,-3607.482L13640.9418,-3607.4617L13640.9619,-3607.4519L13640.9853,-3607.454L13641.0112,-3607.4521L13641.0202,-3607.4544L13641.023,-3607.4561L13641.0354,-3607.4696L13641.0403,-3607.4724L13641.0597,-3607.4792L13641.0757,-3607.482L13641.0958,-3607.4876L13641.1262,-3607.4995"/>
<path content="3,永平寺町,上志比地区【6】,1.0,0.0,0.0," xlink:title="3" d="M13641.1262,-3607.4995L13641.1471,-3607.5062L13641.1692,-3607.5119L13641.1887,-3607.5153L13641.2393,-3607.5203L13641.2559,-3607.5248L13641.2663,-3607.5034L13641.2684,-3607.4995L13641.2733,-3607.4854L13641.2733,-3607.4668L13641.2634,-3607.4279L13641.2767,-3607.4263L13641.3047,-3607.4264L13641.3183,-3607.424L13641.3572,-3607.424L13641.3724,-3607.4251L13641.4223,-3607.4308L13641.4521,-3607.4364L13641.4584,-3607.4386L13641.466,-3607.4398L13641.4757,-3607.442L13641.509,-3607.4488L13641.5756,-3607.4657L13641.6102,-3607.4764L13641.6179,-3607.4786L13641.631,-3607.4651L13641.6317,-3607.4646L13641.6463,-3607.4539L13641.6851,-3607.4437L13641.6968,-3607.4389L13641.7079,-3607.4344L13641.7149,-3607.4291L13641.7196,-3607.4277L13641.7218,-3607.4218L13641.7246,-3607.4161L13641.7246,-3607.3716L13641.7267,-3607.3654L13641.7357,-3607.3491L13641.7468,-3607.3321L13641.7482,-3607.3299L13641.7496,-3607.3277L13641.769,-3607.3029L13641.7731,-3607.2956L13641.7731,-3607.2901L13641.7731,-3607.2877L13641.7662,-3607.2719L13641.7579,-3607.2482L13641.7572,-3607.2403L13641.758,-3607.2357L13641.7593,-3607.2279L13641.7641,-3607.2144L13641.7662,-3607.1896L13641.7697,-3607.1755L13641.7697,-3607.1744L13641.7766,-3607.157L13641.7804,-3607.146L13641.7822,-3607.1254L13641.7766,-3607.1023L13641.7534,-3607.0333L13641.7364,-3606.9829"/>
<path content="3,永平寺町,上志比地区【6】,1.0,0.0,0.0," xlink:title="3" d="M13641.1262,-3607.4995L13641.1207,-3607.5091L13641.1172,-3607.522L13641.1153,-3607.5465"/>
<path content="3,永平寺町,上志比地区【8】,1.0,1.0,0.0," xlink:title="3" d="M13642.1815,-3606.2485L13642.1642,-3606.2826L13642.1559,-3606.3057L13642.1538,-3606.3147L13642.1469,-3606.335L13642.124,-3606.4133L13642.124,-3606.4426L13642.1323,-3606.4696L13642.133,-3606.486L13642.1213,-3606.5175L13642.1185,-3606.5299L13642.1185,-3606.5524L13642.1261,-3606.5913L13642.1316,-3606.606L13642.1323,-3606.6218L13642.1288,-3606.6308L13642.1171,-3606.6527L13642.1157,-3606.6544L13642.0776,-3606.708L13642.0686,-3606.7249L13642.0637,-3606.7384L13642.0574,-3606.7789L13642.0519,-3606.7964L13642.045,-3606.8116L13642.0297,-3606.8308L13642.0089,-3606.8488L13641.9853,-3606.864L13641.9534,-3606.8809L13641.9277,-3606.8974L13641.9236,-3606.9001L13641.9173,-3606.9048L13641.8834,-3606.9299L13641.8557,-3606.9457L13641.83,-3606.9558L13641.8093,-3606.9631L13641.7364,-3606.9829"/>
<path content="3,永平寺町,上志比地区【8】,1.0,1.0,0.0," xlink:title="3" d="M13641.7364,-3606.9829L13641.6518,-3607.002L13641.6331,-3607.0026L13641.5964,-3606.9941L13641.5735,-3606.9907L13641.5388,-3606.9907L13641.4556,-3606.9975L13641.4362,-3607.0014L13641.4161,-3607.0082L13641.4029,-3607.0143L13641.4002,-3607.0155L13641.3821,-3607.0268L13641.3669,-3607.0369L13641.2767,-3607.0984L13641.2566,-3607.1051L13641.2275,-3607.1046L13641.1936,-3607.0995L13641.1744,-3607.0954L13641.1194,-3607.0836L13641.1145,-3607.0826L13641.0906,-3607.0786L13641.0639,-3607.069L13641.0341,-3607.0639L13640.9987,-3607.0639L13640.9689,-3607.0696L13640.9474,-3607.0769L13640.9391,-3607.0803L13640.9247,-3607.0864L13640.8996,-3607.0977L13640.8462,-3607.1152L13640.7727,-3607.1366L13640.7131,-3607.1524L13640.625,-3607.1741"/>
<path content="3,永平寺町,上志比地区【8】,1.0,1.0,0.0," xlink:title="3" d="M13640.625,-3607.6753L13640.6277,-3607.6741L13640.6444,-3607.6611L13640.6493,-3607.6544L13640.6687,-3607.6251L13640.6839,-3607.6071L13640.6923,-3607.5997L13640.7117,-3607.5828L13640.7491,-3607.5592L13640.79,-3607.54L13640.8039,-3607.5333L13640.8212,-3607.5265L13640.842,-3607.5164L13640.8462,-3607.5153L13640.8524,-3607.5119L13640.9044,-3607.482L13640.9418,-3607.4617L13640.9619,-3607.4519L13640.9853,-3607.454L13641.0112,-3607.4521L13641.0202,-3607.4544L13641.023,-3607.4561L13641.0354,-3607.4696L13641.0403,-3607.4724L13641.0597,-3607.4792L13641.0757,-3607.482L13641.0958,-3607.4876L13641.1262,-3607.4995"/>
<path content="3,永平寺町,上志比地区【8】,1.0,1.0,0.0," xlink:title="3" d="M13641.1262,-3607.4995L13641.1471,-3607.5062L13641.1692,-3607.5119L13641.1887,-3607.5153L13641.2393,-3607.5203L13641.2559,-3607.5248L13641.2663,-3607.5034L13641.2684,-3607.4995L13641.2733,-3607.4854L13641.2733,-3607.4668L13641.2634,-3607.4279L13641.2767,-3607.4263L13641.3047,-3607.4264L13641.3183,-3607.424L13641.3572,-3607.424L13641.3724,-3607.4251L13641.4223,-3607.4308L13641.4521,-3607.4364L13641.4584,-3607.4386L13641.466,-3607.4398L13641.4757,-3607.442L13641.509,-3607.4488L13641.5756,-3607.4657L13641.6102,-3607.4764L13641.6179,-3607.4786L13641.631,-3607.4651L13641.6317,-3607.4646L13641.6463,-3607.4539L13641.6851,-3607.4437L13641.6968,-3607.4389L13641.7079,-3607.4344L13641.7149,-3607.4291L13641.7196,-3607.4277L13641.7218,-3607.4218L13641.7246,-3607.4161L13641.7246,-3607.3716L13641.7267,-3607.3654L13641.7357,-3607.3491L13641.7468,-3607.3321L13641.7482,-3607.3299L13641.7496,-3607.3277L13641.769,-3607.3029L13641.7731,-3607.2956L13641.7731,-3607.2901L13641.7731,-3607.2877L13641.7662,-3607.2719L13641.7579,-3607.2482L13641.7572,-3607.2403L13641.758,-3607.2357L13641.7593,-3607.2279L13641.7641,-3607.2144L13641.7662,-3607.1896L13641.7697,-3607.1755L13641.7697,-3607.1744L13641.7766,-3607.157L13641.7804,-3607.146L13641.7822,-3607.1254L13641.7766,-3607.1023L13641.7534,-3607.0333L13641.7364,-3606.9829"/>
<path content="3,永平寺町,上志比地区【8】,1.0,1.0,0.0," xlink:title="3" d="M13641.1262,-3607.4995L13641.1207,-3607.5091L13641.1172,-3607.522L13641.1153,-3607.5465"/>
<path content="4,勝山市,市街地連絡線,5.0,1.0,1.0," xlink:title="4" d="M13649.4141,-3605.7687L13649.196,-3605.6853L13649.2107,-3605.6455"/>
<path content="4,勝山市,遅羽線,5.5,5.5,5.5," xlink:title="4" d="M13649.3417,-3603.9751L13649.3347,-3603.9718L13649.3174,-3603.9639L13649.3111,-3603.9616L13649.2814,-3603.9526L13649.2398,-3603.943L13649.2155,-3603.9407L13649.1954,-3603.9407L13649.1524,-3603.9391L13649.0261,-3603.937"/>
<path content="4,勝山市,遅羽線,5.5,5.5,5.5," xlink:title="4" d="M13649.3417,-3603.9751L13649.3328,-3603.9585"/>
<path content="4,勝山市,遅羽線,5.5,5.5,5.5," xlink:title="4" d="M13649.4141,-3604.0488L13649.4089,-3604.0433L13649.4075,-3604.0405L13649.3832,-3604.0157L13649.3583,-3603.9898L13649.3531,-3603.9839L13649.3509,-3603.9817L13649.3484,-3603.9796L13649.3459,-3603.9778L13649.3417,-3603.9751"/>
<path content="4,勝山市,遅羽線,5.5,5.5,5.5," xlink:title="4" d="M13649.4141,-3604.3855L13649.411,-3604.3943L13649.3867,-3604.4607L13649.3791,-3604.4805L13649.3611,-3604.5351L13649.3583,-3604.547L13649.3431,-3604.592L13649.3319,-3604.6281L13649.3306,-3604.6292L13649.3243,-3604.6591L13649.3243,-3604.6996L13649.3271,-3604.7154L13649.3319,-3604.7729L13649.3323,-3604.7847L13649.3313,-3604.7876L13649.3285,-3604.8033L13649.3202,-3604.8309L13649.3118,-3604.8534L13649.307,-3604.8737L13649.2994,-3604.921L13649.2987,-3604.9346L13649.2973,-3604.9644L13649.3021,-3604.9977L13649.3098,-3605.0101L13649.3337,-3605.0396L13649.359,-3605.0703L13649.3701,-3605.0867L13649.3784,-3605.107L13649.3826,-3605.1233L13649.3846,-3605.1374L13649.3846,-3605.1796L13649.3812,-3605.1943L13649.3784,-3605.2204L13649.3742,-3605.2331L13649.3671,-3605.2704L13649.3354,-3605.3194L13649.3195,-3605.3368L13649.2675,-3605.3819L13649.1905,-3605.4461L13649.1676,-3605.4658L13649.1551,-3605.4816L13649.1468,-3605.494L13649.144,-3605.4996L13649.1295,-3605.5396L13649.1288,-3605.5419L13649.1198,-3605.5616L13649.1038,-3605.5903L13649.0934,-3605.6484"/>
<path content="4,勝山市,遅羽線,5.5,5.5,5.5," xlink:title="4" d="M13649.0934,-3605.6484L13649.1184,-3605.6568L13649.1274,-3605.6608L13649.1572,-3605.6709L13649.187,-3605.6822L13649.1958,-3605.6855"/>
<path content="4,勝山市,遅羽線,5.5,5.5,5.5," xlink:title="4" d="M13649.0934,-3605.6484L13649.092,-3605.6591L13649.083,-3605.6968L13649.0726,-3605.7267L13649.0581,-3605.7627L13649.0456,-3605.7824L13649.0241,-3605.81L13648.9998,-3605.8348L13648.9651,-3605.8636L13648.9582,-3605.8692L13648.9381,-3605.8878L13648.9326,-3605.8963L13648.9221,-3605.9334L13648.9041,-3605.9977L13648.8903,-3606.0478L13648.8848,-3606.066L13648.8799,-3606.0827L13648.8715,-3606.1041L13648.8521,-3606.1458L13648.8306,-3606.183L13648.796,-3606.2219L13648.7426,-3606.2748L13648.7121,-3606.3097L13648.6996,-3606.3255L13648.6857,-3606.3486L13648.6719,-3606.3774L13648.6538,-3606.4236L13648.6365,-3606.4664L13648.6157,-3606.4991L13648.6067,-3606.512L13648.581,-3606.5413L13648.5623,-3606.5531L13648.5429,-3606.561L13648.5359,-3606.5638L13648.5082,-3606.5723L13648.4715,-3606.5779L13648.3737,-3606.5784"/>
<path content="4,勝山市,遅羽線,5.5,5.5,5.5," xlink:title="4" d="M13649.1958,-3605.6855L13649.2107,-3605.6455"/>
<path content="4,勝山市,遅羽線,5.5,5.5,5.5," xlink:title="4" d="M13649.1958,-3605.6855L13649.4141,-3605.7687"/>
</g>
</svg>
