<?xml version="1.0" encoding="UTF-8"?>
<svg  xmlns="http://www.w3.org/2000/svg" xmlns:xlink="http://www.w3.org/1999/xlink" xmlns:go="http://purl.org/svgmap/profile" property="N07_001,N07_002,N07_003,N07_004,N07_005,N07_006,N07_007" viewBox="13950.439453125 -3585.9375 2.197265625 2.197265625" go:dataArea="13950.439453125 -3585.9375 2.197265625 2.197265625" >
<metadata>
 <rdf:RDF xmlns:rdf="http://www.w3.org/1999/02/22-rdf-syntax-ns#" xmlns:crs="http://opengis.org/xmldtds/transformations.dtd" xmlns:svg="http://www.w3.org/svg" >
  <rdf:Description>
   <crs:CoordinateReferenceSystem rdf:resource="http://purl.org/crs/84" svg:transform="matrix(100.0,0.0,0.0,-100.0,0.0,0.0)" />
  </rdf:Description>
 </rdf:RDF>
</metadata>
<globalCoordinateSystem srsName="http://purl.org/crs/84" transform="matrix(100.0,0.0,0.0,-100.0,0.0,0.0)" />
<defs>
 <g id="p0" >
  <circle cx="0.0" cy="0.0" r="3" stroke="green" stroke-width="0.75" vector-effect="non-scaling-stroke" />
 </g>
</defs>
<g fill="none" fill-rule="evenodd" stroke="#FF00FF" stroke-width="0.75" opacity="0.5" vector-effect="non-scaling-stroke" stroke-linejoin="bevel" >
<path content="1,JRバス関東（株）,上州ゆめぐり号,9.0,9.0,9.0," xlink:title="1" d="M13950.4395,-3583.7723L13950.4483,-3583.7448L13950.4498,-3583.7402"/>
<path content="1,JRバス関東（株）,新宿～佐久・小諸,8.0,10.0,10.0," xlink:title="1" d="M13950.4498,-3583.7402L13950.4483,-3583.7448L13950.4395,-3583.7723"/>
<path content="1,JRバス関東（株）,新宿～本庄・伊勢崎,10.0,10.0,10.0," xlink:title="1" d="M13950.4498,-3583.7402L13950.4483,-3583.7448L13950.4395,-3583.7723"/>
<path content="1,JRバス関東（株）,金沢エクスプレス/ドリーム金沢号/青春ドリーム金沢号,6.0,6.0,6.0," xlink:title="1" d="M13950.4498,-3583.7402L13950.4483,-3583.7448L13950.4395,-3583.7723"/>
<path content="1,イーグルバス（株）,川越～羽田空港高速直結バス,2.5,2.5,2.5," xlink:title="1" d="M13950.4498,-3583.7402L13950.4483,-3583.7448L13950.4395,-3583.7723"/>
<path content="1,ライフバス,①,24.0,22.0,22.0," xlink:title="1" d="M13952.486,-3584.0196L13952.4671,-3584.0101L13952.439,-3583.996L13952.3512,-3583.9526L13952.3297,-3583.943L13952.3096,-3583.9335L13952.2356,-3583.8968L13952.2315,-3583.894L13952.2267,-3583.8904L13952.1837,-3583.8715L13952.1623,-3583.8608L13952.1083,-3583.8343L13952.0137,-3583.787L13951.999,-3583.7813L13951.9769,-3583.7706L13951.9526,-3583.7588L13951.9409,-3583.7526L13951.9149,-3583.7402M13951.4942,-3583.7402L13951.4903,-3583.75L13951.4849,-3583.756L13951.4462,-3583.8331L13951.4289,-3583.8647L13951.4143,-3583.8923L13951.404,-3583.9081L13951.3991,-3583.9148L13951.3804,-3583.9368L13951.3511,-3583.9662L13951.3313,-3583.9841L13951.2872,-3584.0302L13951.2375,-3584.0942L13951.1867,-3584.1642L13951.1521,-3584.2135L13951.1438,-3584.2252L13951.1715,-3584.2365L13951.1895,-3584.2433L13951.2663,-3584.2742L13951.2926,-3584.2844L13951.3707,-3584.3154L13951.3785,-3584.3184L13951.3866,-3584.3222L13951.4199,-3584.3346L13951.4752,-3584.3565L13951.5174,-3584.3734L13951.5963,-3584.4038L13951.622,-3584.4137L13951.6468,-3584.4228L13951.6683,-3584.3857L13951.6821,-3584.3571L13951.6883,-3584.3481L13951.7035,-3584.3193L13951.7174,-3584.2934L13951.7305,-3584.2692L13951.7472,-3584.2396L13951.7664,-3584.2075L13951.7853,-3584.1733L13951.7928,-3584.1571L13952.0051,-3584.2345L13952.209,-3584.3128L13952.231,-3584.3211L13952.231,-3584.3211L13952.231,-3584.3211L13952.2366,-3584.3147L13952.2485,-3584.3012L13952.266,-3584.2801L13952.2723,-3584.2725L13952.2724,-3584.2724L13952.321,-3584.1994L13952.3648,-3584.1624L13952.4017,-3584.1193L13952.4577,-3584.0531L13952.486,-3584.0196"/>
<path content="1,ライフバス,①,24.0,22.0,22.0," xlink:title="1" d="M13952.6367,-3583.8401L13952.5674,-3583.9224L13952.5127,-3583.9715L13952.486,-3584.0196"/>
<path content="1,ライフバス,④,23.0,19.0,19.0," xlink:title="1" d="M13950.4395,-3584.5951L13950.4501,-3584.5624L13950.4572,-3584.5381L13950.4706,-3584.4936L13950.486,-3584.44L13950.5081,-3584.3801L13950.5298,-3584.3333L13950.5545,-3584.289L13950.5743,-3584.2608L13950.6339,-3584.1649L13950.6408,-3584.1543L13950.6477,-3584.139L13950.6581,-3584.1171L13950.6675,-3584.0941L13950.6761,-3584.0731L13950.6809,-3584.0568L13950.6823,-3584.0551L13950.7024,-3583.9954L13950.7058,-3583.9875L13950.7162,-3583.9503L13950.7189,-3583.9419L13950.7231,-3583.9282L13950.7252,-3583.9216L13950.7392,-3583.8832L13950.7411,-3583.8686L13950.7619,-3583.8145L13950.7799,-3583.7734L13950.7965,-3583.7441L13950.7987,-3583.7402"/>
<path content="1,ライフバス,⑥A,10.0,9.0,9.0," xlink:title="1" d="M13950.4395,-3584.8907L13950.4683,-3584.9012L13950.579,-3584.9382L13950.6497,-3584.9672L13950.6906,-3584.9858L13950.7336,-3585.0019L13950.7704,-3585.0173L13950.7778,-3585.0263L13950.8075,-3585.0399L13950.8172,-3585.0455L13950.8386,-3585.0556L13950.8795,-3585.0748L13950.9139,-3585.0897L13950.9203,-3585.0945L13950.9687,-3585.1176L13950.9784,-3585.1216L13951.0414,-3585.152L13951.0974,-3585.1785L13951.1057,-3585.1813L13951.1119,-3585.1845L13951.1154,-3585.1864L13951.1465,-3585.1999L13951.1631,-3585.2055L13951.2158,-3585.2226L13951.233,-3585.2309L13951.2676,-3585.2431L13951.2914,-3585.251L13951.305,-3585.2579L13951.3416,-3585.2754L13951.4876,-3585.3458L13951.5737,-3585.3833L13951.5969,-3585.401L13951.597,-3585.401L13951.597,-3585.401L13951.597,-3585.401L13951.6094,-3585.4083L13951.6634,-3585.4365L13951.6987,-3585.4522L13951.7401,-3585.4748L13951.7457,-3585.4771L13951.7699,-3585.49L13951.8211,-3585.5148L13951.7858,-3585.5588L13951.7257,-3585.637L13951.6979,-3585.6731L13951.6427,-3585.7444L13951.6094,-3585.7875L13951.6094,-3585.7875L13951.6217,-3585.7921L13951.6274,-3585.7943L13951.6698,-3585.8083L13951.7623,-3585.8461L13951.7927,-3585.8578L13951.7928,-3585.8578L13951.7928,-3585.8578L13951.7928,-3585.8578L13951.7929,-3585.8578L13951.793,-3585.8579L13951.8015,-3585.8611L13951.8055,-3585.8627L13951.8632,-3585.8848L13951.9009,-3585.8992L13951.9017,-3585.8995L13951.9043,-3585.9005L13951.9256,-3585.9086L13952.0006,-3585.9375"/>
<path content="1,ライフバス,⑥B,10.0,9.0,9.0," xlink:title="1" d="M13950.7987,-3583.7402L13950.7965,-3583.7441L13950.7799,-3583.7734L13950.7619,-3583.8145L13950.7411,-3583.8686L13950.7392,-3583.8832L13950.7252,-3583.9216L13950.7231,-3583.9282L13950.7189,-3583.9419L13950.7162,-3583.9503L13950.7058,-3583.9875L13950.7024,-3583.9954L13950.6823,-3584.0551L13950.6809,-3584.0568L13950.6761,-3584.0731L13950.6675,-3584.0941L13950.6581,-3584.1171L13950.6477,-3584.139L13950.6408,-3584.1543L13950.6339,-3584.1649L13950.5743,-3584.2608L13950.5545,-3584.289L13950.5298,-3584.3333L13950.5081,-3584.3801L13950.486,-3584.44L13950.4706,-3584.4936L13950.4572,-3584.5381L13950.4501,-3584.5624L13950.4395,-3584.5951M13950.4395,-3584.8907L13950.4683,-3584.9012L13950.579,-3584.9382L13950.6497,-3584.9672L13950.6906,-3584.9858L13950.7336,-3585.0019L13950.7704,-3585.0173L13950.7778,-3585.0263L13950.8075,-3585.0399L13950.8172,-3585.0455L13950.8386,-3585.0556L13950.8795,-3585.0748L13950.9139,-3585.0897L13950.9203,-3585.0945L13950.9687,-3585.1176L13950.9784,-3585.1216L13951.0414,-3585.152L13951.0974,-3585.1785L13951.1057,-3585.1813L13951.1119,-3585.1845L13951.1154,-3585.1864L13951.1465,-3585.1999L13951.1631,-3585.2055L13951.2158,-3585.2226L13951.233,-3585.2309L13951.2676,-3585.2431L13951.2914,-3585.251L13951.305,-3585.2579L13951.3416,-3585.2754L13951.4876,-3585.3458L13951.5737,-3585.3833L13951.5969,-3585.401L13951.597,-3585.401L13951.597,-3585.401L13951.597,-3585.401L13951.6094,-3585.4083L13951.6634,-3585.4365L13951.6987,-3585.4522L13951.7401,-3585.4748L13951.7457,-3585.4771L13951.7699,-3585.49L13951.8211,-3585.5148L13951.7858,-3585.5588L13951.7257,-3585.637L13951.6979,-3585.6731L13951.6427,-3585.7444L13951.6094,-3585.7875L13951.6094,-3585.7875L13951.6217,-3585.7921L13951.6274,-3585.7943L13951.6698,-3585.8083L13951.7623,-3585.8461L13951.7927,-3585.8578L13951.7928,-3585.8578L13951.7928,-3585.8578L13951.7928,-3585.8578L13951.7929,-3585.8578L13951.793,-3585.8579L13951.8015,-3585.8611L13951.8055,-3585.8627L13951.8632,-3585.8848L13951.9009,-3585.8992L13951.9017,-3585.8995L13951.9043,-3585.9005L13951.9256,-3585.9086L13952.0006,-3585.9375"/>
<path content="1,ライフバス,⑦,12.0,10.0,10.0," xlink:title="1" d="M13952.6367,-3583.8401L13952.5674,-3583.9224L13952.5127,-3583.9715L13952.486,-3584.0196L13952.4671,-3584.0101L13952.439,-3583.996L13952.3512,-3583.9526L13952.3297,-3583.943L13952.3096,-3583.9335L13952.2356,-3583.8968L13952.2315,-3583.894L13952.2267,-3583.8904L13952.1837,-3583.8715L13952.1623,-3583.8608L13952.1083,-3583.8343L13952.0137,-3583.787L13951.999,-3583.7813L13951.9769,-3583.7706L13951.9526,-3583.7588L13951.9409,-3583.7526L13951.9149,-3583.7402M13951.4942,-3583.7402L13951.4903,-3583.75L13951.4849,-3583.756L13951.4462,-3583.8331L13951.4289,-3583.8647L13951.4143,-3583.8923L13951.404,-3583.9081L13951.3991,-3583.9148L13951.3804,-3583.9368L13951.3511,-3583.9662L13951.3313,-3583.9841L13951.2872,-3584.0302L13951.2375,-3584.0942L13951.1867,-3584.1642L13951.1521,-3584.2135L13951.1438,-3584.2252L13951.1715,-3584.2365L13951.1895,-3584.2433L13951.2663,-3584.2742L13951.2926,-3584.2844L13951.3707,-3584.3154L13951.3785,-3584.3184L13951.3866,-3584.3222L13951.4199,-3584.3346L13951.4752,-3584.3565L13951.5174,-3584.3734L13951.5963,-3584.4038L13951.622,-3584.4137L13951.6468,-3584.4228L13951.6683,-3584.3857L13951.6821,-3584.3571L13951.6883,-3584.3481L13951.7035,-3584.3193L13951.7174,-3584.2934L13951.7305,-3584.2692L13951.7472,-3584.2396L13951.7664,-3584.2075L13951.7853,-3584.1733L13951.7928,-3584.1571L13952.0051,-3584.2345L13952.209,-3584.3128L13952.231,-3584.3211L13952.231,-3584.3211L13952.231,-3584.3211L13952.2262,-3584.3266L13952.2092,-3584.3457L13952.1367,-3584.4273L13952.086,-3584.4914L13952.0637,-3584.5196L13952.0117,-3584.5771L13951.9955,-3584.6004L13951.9484,-3584.6782L13951.9481,-3584.6789L13951.9475,-3584.68L13951.9433,-3584.6883L13951.9089,-3584.7499L13951.9089,-3584.7499L13951.9089,-3584.7499L13951.9007,-3584.7646L13951.896,-3584.7731L13951.8872,-3584.7884L13951.8839,-3584.794L13951.8823,-3584.7969L13951.8627,-3584.8309L13951.857,-3584.8416L13951.8383,-3584.8832L13951.8253,-3584.903L13951.8126,-3584.9253L13951.8121,-3584.9261L13951.8121,-3584.9261L13951.8121,-3584.9261L13951.8104,-3584.9299L13951.8045,-3584.9424L13951.7961,-3584.9578L13951.7961,-3584.9578L13951.8769,-3584.9912L13951.9028,-3584.9914L13951.9154,-3584.9984L13951.9257,-3585.0041L13951.9385,-3585.0111L13951.9406,-3585.0122L13951.9934,-3585.0393L13952.0467,-3585.0681L13952.0882,-3585.0917L13952.0996,-3585.0965L13952.2162,-3585.161L13952.2625,-3585.1864L13952.2524,-3585.2155L13952.2231,-3585.294L13952.2113,-3585.3261L13952.1968,-3585.3593L13952.185,-3585.3881L13952.1629,-3585.4275L13952.1484,-3585.4495L13952.129,-3585.476L13952.1155,-3585.4981L13952.1041,-3585.5143L13952.0736,-3585.5622L13952.0653,-3585.5734L13952.0314,-3585.6207L13952.0031,-3585.6608L13951.9871,-3585.6878L13951.983,-3585.694L13951.9781,-3585.7036L13951.9657,-3585.7272L13951.9622,-3585.7368L13951.9581,-3585.7458L13951.9539,-3585.7605L13951.9518,-3585.7729L13951.9516,-3585.7736L13951.9484,-3585.7853L13951.947,-3585.7926L13951.9394,-3585.8348L13951.9346,-3585.8619L13951.9256,-3585.9086L13952.0006,-3585.9375"/>
<path content="1,京浜急行バス（株）,朝霞台駅・志木駅・ふじみ野駅～羽田空港線,3.5,3.5,3.5," xlink:title="1" d="M13952.6367,-3583.8402L13952.5674,-3583.9224L13952.5127,-3583.9715L13952.486,-3584.0196L13952.4578,-3584.0531L13952.4018,-3584.1194L13952.3648,-3584.1624L13952.321,-3584.1994L13952.2723,-3584.2725L13952.266,-3584.2801L13952.2485,-3584.3012L13952.2366,-3584.3147L13952.231,-3584.3211L13952.231,-3584.3211L13952.2262,-3584.3266L13952.2092,-3584.3457L13952.1368,-3584.4274L13952.086,-3584.4915L13952.0638,-3584.5196L13952.0117,-3584.5771L13951.9956,-3584.6005L13951.9484,-3584.6783L13951.9481,-3584.6789L13951.9475,-3584.68L13951.9432,-3584.6883L13951.9089,-3584.7499L13951.9089,-3584.7499L13951.9089,-3584.7499L13951.9007,-3584.7646L13951.896,-3584.7731L13951.8872,-3584.7884L13951.8839,-3584.794L13951.8823,-3584.7969L13951.8627,-3584.8309L13951.857,-3584.8416L13951.8383,-3584.8832L13951.8254,-3584.903L13951.8254,-3584.903L13951.8254,-3584.903L13951.8126,-3584.9253L13951.8121,-3584.9261L13951.8121,-3584.9261L13951.8121,-3584.9261L13951.8104,-3584.9299L13951.8045,-3584.9424L13951.7961,-3584.9578L13951.7961,-3584.9578L13951.7961,-3584.9578L13951.7866,-3584.9752L13951.7793,-3584.9908L13951.7571,-3585.0341L13951.7428,-3585.0618L13951.7263,-3585.0992L13951.7175,-3585.1121L13951.6842,-3585.1976L13951.6759,-3585.2197L13951.6648,-3585.2506L13951.6324,-3585.3266L13951.6205,-3585.3529L13951.597,-3585.401L13951.5921,-3585.4123L13951.5741,-3585.4439L13951.5561,-3585.4776L13951.5442,-3585.5001L13951.5414,-3585.5054L13951.5406,-3585.5068L13951.5201,-3585.5407L13951.5157,-3585.548L13951.5091,-3585.5588L13951.5077,-3585.5627L13951.4827,-3585.607L13951.4696,-3585.6303L13951.4684,-3585.6322L13951.4607,-3585.645L13951.46,-3585.6461L13951.4275,-3585.7036L13951.4205,-3585.7148L13951.4981,-3585.7447L13951.544,-3585.7624L13951.6093,-3585.7875L13951.6094,-3585.7875L13951.6094,-3585.7876L13951.6217,-3585.7921L13951.6274,-3585.7943L13951.6698,-3585.8083L13951.7623,-3585.8461L13951.7927,-3585.8578L13951.7928,-3585.8578L13951.7928,-3585.8578L13951.7928,-3585.8578L13951.7929,-3585.8578L13951.793,-3585.8579L13951.8015,-3585.8611L13951.8055,-3585.8627L13951.8184,-3585.8676L13951.8632,-3585.8847L13951.8857,-3585.8933L13951.8931,-3585.8962L13951.8955,-3585.8971L13951.9009,-3585.8992L13951.9017,-3585.8995L13951.9043,-3585.9005L13951.9255,-3585.9086L13951.9256,-3585.9086L13952.0006,-3585.9375"/>
<path content="1,京王バス南（株）,新宿～長野線,7.0,7.0,7.0," xlink:title="1" d="M13950.4498,-3583.7402L13950.4483,-3583.7448L13950.4395,-3583.7723"/>
<path content="1,加越能鉄道（株）,東京行き（高速バス）,2.0,2.0,2.0," xlink:title="1" d="M13950.4498,-3583.7402L13950.4484,-3583.7447L13950.4395,-3583.7723"/>
<path content="1,北陸鉄道（株）,高速バス　金沢⇔渋谷八王子,2.0,2.0,2.0," xlink:title="1" d="M13950.4498,-3583.7402L13950.4484,-3583.7447L13950.4395,-3583.7723"/>
<path content="1,千曲バス（株）,上田～池袋,5.0,5.0,5.0," xlink:title="1" d="M13950.4395,-3583.7723L13950.4484,-3583.7447L13950.4498,-3583.7402"/>
<path content="1,千曲バス（株）,佐久～池袋,4.0,4.0,4.0," xlink:title="1" d="M13950.4395,-3583.7723L13950.4484,-3583.7447L13950.4498,-3583.7402"/>
<path content="1,千曲バス（株）,小諸～池袋,3.0,3.0,3.0," xlink:title="1" d="M13950.4395,-3583.7723L13950.4484,-3583.7447L13950.4498,-3583.7402"/>
<path content="1,千曲バス（株）,御代田～池袋,1.0,1.0,1.0," xlink:title="1" d="M13950.4498,-3583.7402L13950.4484,-3583.7447L13950.4395,-3583.7723"/>
<path content="1,千葉交通,アザレア号,7.0,7.0,7.0," xlink:title="1" d="M13950.4395,-3583.7723L13950.4484,-3583.7447L13950.4498,-3583.7402"/>
<path content="1,千葉交通,フォレスト号,1.0,1.0,1.0," xlink:title="1" d="M13950.4498,-3583.7402L13950.4483,-3583.7448L13950.4395,-3583.7723"/>
<path content="1,千葉交通,坂戸駅南口・川越駅西口～成田空港,4.0,4.0,4.0," xlink:title="1" d="M13950.4395,-3583.7723L13950.4483,-3583.7448L13950.4498,-3583.7402"/>
<path content="1,国際十王交通（株）,成田空港線,2.0,2.0,2.0," xlink:title="1" d="M13950.4498,-3583.7402L13950.4483,-3583.7448L13950.4395,-3583.7723"/>
<path content="1,国際十王交通（株）,羽田空港線,3.0,3.0,3.0," xlink:title="1" d="M13950.4498,-3583.7402L13950.4483,-3583.7448L13950.4395,-3583.7723"/>
<path content="1,富士急山梨バス（株）,河口湖～大宮・川越・所沢線,0.7,0.7,0.7," xlink:title="1" d="M13950.4498,-3583.7402L13950.4483,-3583.7448L13950.4395,-3583.7723"/>
<path content="1,富士急行（株）,河口湖～渋川・前橋・高崎線,0.3,0.3,0.3," xlink:title="1" d="M13950.4498,-3583.7402L13950.4483,-3583.7448L13950.4395,-3583.7723"/>
<path content="1,富山地方鉄道（株）,東京（高速バス）,4.0,4.0,4.0," xlink:title="1" d="M13950.4498,-3583.7402L13950.4484,-3583.7447L13950.4395,-3583.7723"/>
<path content="1,川中島バス（株）,特急長野新宿線,8.5,8.5,8.5," xlink:title="1" d="M13950.4498,-3583.7402L13950.4484,-3583.7447L13950.4395,-3583.7723"/>
<path content="1,川越観光自動車,高速バス成田線,4.0,4.0,4.0," xlink:title="1" d="M13950.4498,-3583.7402L13950.4483,-3583.7448L13950.4395,-3583.7723"/>
<path content="1,新潟交通（株）・越後交通（株）・西部バス（株）,高速バス新潟・越後（新潟・長岡～池袋線）,16.0,16.0,16.0," xlink:title="1" d="M13950.4498,-3583.7402L13950.4484,-3583.7447L13950.4395,-3583.7723"/>
<path content="1,日本中央バス（株）,シルクライナー,5.0,5.0,5.0," xlink:title="1" d="M13950.4498,-3583.7402L13950.4483,-3583.7448L13950.4395,-3583.7723"/>
<path content="1,日本中央バス（株）,前橋・高崎～池袋・新宿・秋葉原線,6.0,6.0,6.0," xlink:title="1" d="M13950.4498,-3583.7402L13950.4483,-3583.7448L13950.4395,-3583.7723"/>
<path content="1,日本中央バス（株）,東海ライナー,2.0,2.0,2.0," xlink:title="1" d="M13950.4498,-3583.7402L13950.4483,-3583.7448L13950.4395,-3583.7731"/>
<path content="1,日本中央バス（株）,渋川・前橋～羽田空港線,8.0,8.0,8.0," xlink:title="1" d="M13950.4498,-3583.7402L13950.4483,-3583.7448L13950.4395,-3583.7723"/>
<path content="1,東京空港交通（株）,ふじみ野・新座・志木・朝霞台エリア～成田空港線,3.0,3.0,3.0," xlink:title="1" d="M13950.4498,-3583.7402L13950.4483,-3583.7448L13950.4395,-3583.7723M13950.4395,-3584.4195L13950.4602,-3584.4291L13950.486,-3584.44L13950.4706,-3584.4936L13950.4572,-3584.5381L13950.4501,-3584.5624L13950.4395,-3584.5951M13950.4395,-3584.8907L13950.4683,-3584.9012L13950.579,-3584.9382L13950.6497,-3584.9672L13950.6906,-3584.9858L13950.7336,-3585.0019L13950.7704,-3585.0173L13950.7778,-3585.0263L13950.8075,-3585.0399L13950.8172,-3585.0455L13950.8386,-3585.0556L13950.8795,-3585.0748L13950.9139,-3585.0897L13950.9203,-3585.0945L13950.9687,-3585.1176L13950.9784,-3585.1216L13951.0414,-3585.152L13951.0974,-3585.1785L13951.1057,-3585.1813L13951.1119,-3585.1845L13951.1154,-3585.1864L13951.1465,-3585.1999L13951.1631,-3585.2055L13951.2158,-3585.2226L13951.233,-3585.2309L13951.2676,-3585.2431L13951.2914,-3585.251L13951.305,-3585.2579L13951.3416,-3585.2754L13951.4876,-3585.3458L13951.5737,-3585.3833L13951.5969,-3585.401L13951.597,-3585.401L13951.597,-3585.401L13951.597,-3585.401L13951.6094,-3585.4083L13951.6634,-3585.4365L13951.6987,-3585.4522L13951.7401,-3585.4748L13951.7457,-3585.4771L13951.7699,-3585.49L13951.8211,-3585.5148L13951.7858,-3585.5588L13951.7257,-3585.637L13951.6979,-3585.6731L13951.6427,-3585.7444L13951.6094,-3585.7875L13951.6094,-3585.7875L13951.6217,-3585.7921L13951.6274,-3585.7943L13951.6698,-3585.8083L13951.7623,-3585.8461L13951.7927,-3585.8578L13951.7928,-3585.8578L13951.7928,-3585.8578L13951.7928,-3585.8578L13951.7929,-3585.8578L13951.793,-3585.8579L13951.8015,-3585.8611L13951.8055,-3585.8627L13951.8184,-3585.8676L13951.8632,-3585.8847L13951.8857,-3585.8933L13951.8931,-3585.8962L13951.8955,-3585.8971L13951.9009,-3585.8992L13951.9017,-3585.8995L13951.9043,-3585.9005L13951.9255,-3585.9086L13951.9256,-3585.9086L13952.0006,-3585.9375"/>
<path content="1,東京空港交通（株）,前橋・伊勢崎・高崎エリア～羽田空港線,4.0,4.0,4.0," xlink:title="1" d="M13950.4498,-3583.7402L13950.4483,-3583.7448L13950.4395,-3583.7723"/>
<path content="1,東京空港交通（株）,本川越駅・川越駅～羽田空港線,2.5,2.5,2.5," xlink:title="1" d="M13950.4498,-3583.7402L13950.4483,-3583.7448L13950.4395,-3583.7723"/>
<path content="1,東京空港交通（株）,本籠原駅・熊谷・森林公園駅・坂戸駅～羽田空港線,3.0,3.0,3.0," xlink:title="1" d="M13950.4498,-3583.7402L13950.4483,-3583.7448L13950.4395,-3583.7723"/>
<path content="1,東京空港交通（株）,深谷駅・籠原駅・熊谷駅・森林公園駅～成田空港線,1.0,1.0,1.0," xlink:title="1" d="M13950.4498,-3583.7402L13950.4483,-3583.7448L13950.4395,-3583.7723"/>
<path content="1,東武バスウエスト,ふじ01,63.0,54.0,54.0," xlink:title="1" d="M13950.5833,-3585.4449L13950.5753,-3585.4259L13950.5612,-3585.4061L13950.5577,-3585.4016L13950.5439,-3585.3779L13950.5362,-3585.3627L13950.5127,-3585.3249L13950.4489,-3585.2101L13950.4395,-3585.1958M13950.4395,-3584.8907L13950.4683,-3584.9012L13950.579,-3584.9382L13950.6497,-3584.9672L13950.6906,-3584.9858L13950.7336,-3585.0019L13950.7704,-3585.0173L13950.7778,-3585.0263L13950.8075,-3585.0399L13950.8172,-3585.0455L13950.8386,-3585.0556L13950.8795,-3585.0748L13950.9139,-3585.0897L13950.9203,-3585.0945L13950.9687,-3585.1176L13950.9784,-3585.1216L13951.0414,-3585.152L13951.0974,-3585.1785L13951.1057,-3585.1813L13951.1119,-3585.1845L13951.1154,-3585.1864L13951.1465,-3585.1999L13951.1631,-3585.2055L13951.2158,-3585.2226L13951.233,-3585.2309L13951.2676,-3585.2431L13951.2914,-3585.251L13951.305,-3585.2579L13951.3416,-3585.2754L13951.4876,-3585.3458L13951.5737,-3585.3833L13951.5969,-3585.401L13951.597,-3585.401L13951.597,-3585.401L13951.597,-3585.401L13951.6094,-3585.4083L13951.6634,-3585.4365L13951.6987,-3585.4522L13951.7401,-3585.4748L13951.7457,-3585.4771L13951.7699,-3585.49L13951.8211,-3585.5148"/>
<path content="1,東武バスウエスト,ふじ01,63.0,54.0,54.0," xlink:title="1" d="M13950.5833,-3585.4449L13950.4913,-3585.4821L13950.4719,-3585.4906L13950.4678,-3585.4939L13950.4664,-3585.4973L13950.4395,-3585.5396M13950.8383,-3585.9375L13950.8517,-3585.9114L13950.8628,-3585.8889L13950.8794,-3585.85L13950.888,-3585.8313L13950.8955,-3585.81L13950.8988,-3585.7988L13950.9042,-3585.7748L13950.9051,-3585.7713L13950.8211,-3585.7512L13950.8017,-3585.7444L13950.7968,-3585.7435L13950.7819,-3585.7351L13950.777,-3585.7328L13950.7673,-3585.7238L13950.7466,-3585.6928L13950.7431,-3585.6894L13950.7318,-3585.6709L13950.7231,-3585.6596L13950.7002,-3585.6252L13950.6864,-3585.6049L13950.6804,-3585.5952L13950.6227,-3585.5092L13950.6027,-3585.4765L13950.5833,-3585.4449"/>
<path content="1,東武バスウエスト,ふじ01,63.0,54.0,54.0," xlink:title="1" d="M13951.8211,-3585.5148L13951.8591,-3585.534L13951.864,-3585.5357L13951.8866,-3585.5471L13951.9,-3585.5548L13951.9802,-3585.5948L13952.0314,-3585.6207L13952.0792,-3585.6456L13952.1435,-3585.6765L13952.1717,-3585.6913L13952.1892,-3585.6996L13952.2182,-3585.7143L13952.1981,-3585.7458L13952.1643,-3585.7935L13952.1447,-3585.8258L13952.1347,-3585.8429L13952.1275,-3585.8552L13952.1151,-3585.8765L13952.1029,-3585.8981L13952.0806,-3585.9375"/>
<path content="1,東武バスウエスト,ふじ01,63.0,54.0,54.0," xlink:title="1" d="M13952.0006,-3585.9375L13951.9256,-3585.9086L13951.8955,-3585.8971L13951.8931,-3585.8962L13951.8857,-3585.8933L13951.8184,-3585.8676L13951.8055,-3585.8627L13951.8015,-3585.8611L13951.7623,-3585.8461L13951.6698,-3585.8083L13951.6274,-3585.7943L13951.6217,-3585.7921L13951.6094,-3585.7875L13951.6094,-3585.7875L13951.6427,-3585.7444L13951.6979,-3585.6731L13951.7257,-3585.637L13951.7858,-3585.5588L13951.8211,-3585.5148"/>
<path content="1,東武バスウエスト,ふじ02,2.0,2.0,2.0," xlink:title="1" d="M13950.5833,-3585.4449L13950.5753,-3585.4259L13950.5612,-3585.4061L13950.5577,-3585.4016L13950.5439,-3585.3779L13950.5362,-3585.3627L13950.5127,-3585.3249L13950.4489,-3585.2101L13950.4395,-3585.1958M13950.4395,-3584.8907L13950.4683,-3584.9012L13950.579,-3584.9382L13950.6497,-3584.9672L13950.6906,-3584.9858L13950.7336,-3585.0019L13950.7704,-3585.0173L13950.7778,-3585.0263L13950.8075,-3585.0399L13950.8172,-3585.0455L13950.8386,-3585.0556L13950.8795,-3585.0748L13950.9139,-3585.0897L13950.9203,-3585.0945L13950.9687,-3585.1176L13950.9784,-3585.1216L13951.0414,-3585.152L13951.0974,-3585.1785L13951.1057,-3585.1813L13951.1119,-3585.1845L13951.1154,-3585.1864L13951.1465,-3585.1999L13951.1631,-3585.2055L13951.2158,-3585.2226L13951.233,-3585.2309L13951.2676,-3585.2431L13951.2914,-3585.251L13951.305,-3585.2579L13951.3416,-3585.2754L13951.4876,-3585.3458L13951.5737,-3585.3833L13951.5969,-3585.401L13951.597,-3585.401L13951.597,-3585.401L13951.597,-3585.401L13951.6094,-3585.4083L13951.6634,-3585.4365L13951.6987,-3585.4522L13951.7401,-3585.4748L13951.7457,-3585.4771L13951.7699,-3585.49L13951.8211,-3585.5148L13951.8591,-3585.534L13951.864,-3585.5357L13951.8866,-3585.5471L13951.9,-3585.5548L13951.9802,-3585.5948L13952.0314,-3585.6207L13952.0792,-3585.6456L13952.1435,-3585.6765L13952.1717,-3585.6913L13952.1892,-3585.6996L13952.2182,-3585.7143L13952.1981,-3585.7458L13952.1643,-3585.7935L13952.1447,-3585.8258L13952.1347,-3585.8429L13952.1275,-3585.8552L13952.1151,-3585.8765L13952.1029,-3585.8981L13952.0806,-3585.9375"/>
<path content="1,東武バスウエスト,ふじ02,2.0,2.0,2.0," xlink:title="1" d="M13950.5833,-3585.4449L13950.4913,-3585.4821L13950.4719,-3585.4906L13950.4678,-3585.4939L13950.4664,-3585.4973L13950.4395,-3585.5396"/>
<path content="1,東武バスウエスト,ふじ02,2.0,2.0,2.0," xlink:title="1" d="M13950.8383,-3585.9375L13950.8517,-3585.9114L13950.8628,-3585.8889L13950.8794,-3585.85L13950.888,-3585.8313L13950.8955,-3585.81L13950.8988,-3585.7988L13950.9042,-3585.7748L13950.9051,-3585.7713L13950.8211,-3585.7512L13950.8017,-3585.7444L13950.7968,-3585.7435L13950.7819,-3585.7351L13950.777,-3585.7328L13950.7673,-3585.7238L13950.7466,-3585.6928L13950.7431,-3585.6894L13950.7318,-3585.6709L13950.7231,-3585.6596L13950.7002,-3585.6252L13950.6864,-3585.6049L13950.6804,-3585.5952L13950.6227,-3585.5092L13950.6027,-3585.4765L13950.5833,-3585.4449"/>
<path content="1,東武バスウエスト,ふじ03,10.0,7.0,7.0," xlink:title="1" d="M13950.8628,-3585.8889L13950.8794,-3585.85L13950.888,-3585.8313L13950.8955,-3585.81L13950.8988,-3585.7988L13950.9042,-3585.7748L13950.9051,-3585.7713L13950.8211,-3585.7512L13950.8017,-3585.7444L13950.7968,-3585.7435L13950.7819,-3585.7351L13950.777,-3585.7328L13950.7673,-3585.7238L13950.7466,-3585.6928L13950.7431,-3585.6894L13950.7318,-3585.6709L13950.7231,-3585.6596L13950.7002,-3585.6252L13950.6864,-3585.6049L13950.6804,-3585.5952L13950.6227,-3585.5092L13950.6027,-3585.4765L13950.5833,-3585.4449L13950.4913,-3585.4821L13950.4719,-3585.4906L13950.4678,-3585.4939L13950.4664,-3585.4973L13950.4395,-3585.5396M13950.8383,-3585.9375L13950.8517,-3585.9114L13950.8628,-3585.8889"/>
<path content="1,東武バスウエスト,ふじ03,10.0,7.0,7.0," xlink:title="1" d="M13952.0006,-3585.9375L13951.9256,-3585.9086L13951.9256,-3585.9086L13951.9256,-3585.9086L13951.9256,-3585.9086L13951.921,-3585.9375M13950.9834,-3585.9375L13950.959,-3585.9272L13950.9492,-3585.9218L13950.8628,-3585.8889"/>
<path content="1,東武バスウエスト,ふじみ野駅・ふじみ野駅・新座車庫・志木駅・朝霞台駅～成田空港,3.0,3.0,3.0," xlink:title="1" d="M13952.6367,-3583.8402L13952.5674,-3583.9224L13952.5127,-3583.9715L13952.486,-3584.0196L13952.4578,-3584.0531L13952.4018,-3584.1194L13952.3648,-3584.1624L13952.321,-3584.1994L13952.2723,-3584.2725L13952.266,-3584.2801L13952.2485,-3584.3012L13952.2366,-3584.3147L13952.231,-3584.3211L13952.231,-3584.3211L13952.2262,-3584.3266L13952.2092,-3584.3457L13952.1368,-3584.4274L13952.086,-3584.4915L13952.0638,-3584.5196L13952.0117,-3584.5771L13951.9956,-3584.6005L13951.9484,-3584.6783L13951.9481,-3584.6789L13951.9475,-3584.68L13951.9432,-3584.6883L13951.9089,-3584.7499L13951.9089,-3584.7499L13951.9089,-3584.7499L13951.9007,-3584.7646L13951.896,-3584.7731L13951.8872,-3584.7884L13951.8839,-3584.794L13951.8823,-3584.7969L13951.8627,-3584.8309L13951.857,-3584.8416L13951.8383,-3584.8832L13951.8254,-3584.903L13951.8254,-3584.903L13951.8254,-3584.903L13951.8126,-3584.9253L13951.8121,-3584.9261L13951.8121,-3584.9261L13951.8121,-3584.9261L13951.8104,-3584.9299L13951.8045,-3584.9424L13951.7961,-3584.9578L13951.7961,-3584.9578L13951.7961,-3584.9578L13951.7866,-3584.9752L13951.7793,-3584.9908L13951.7571,-3585.0341L13951.7428,-3585.0618L13951.7263,-3585.0992L13951.7175,-3585.1121L13951.6842,-3585.1976L13951.6759,-3585.2197L13951.6648,-3585.2506L13951.6324,-3585.3266L13951.6205,-3585.3529L13951.597,-3585.401L13951.5921,-3585.4123L13951.5741,-3585.4439L13951.5561,-3585.4776L13951.5442,-3585.5001L13951.5414,-3585.5054L13951.5406,-3585.5068L13951.5201,-3585.5407L13951.5157,-3585.548L13951.5091,-3585.5588L13951.5077,-3585.5627L13951.4827,-3585.607L13951.4696,-3585.6303L13951.4684,-3585.6322L13951.4607,-3585.645L13951.46,-3585.6461L13951.4275,-3585.7036L13951.4205,-3585.7148L13951.4981,-3585.7447L13951.544,-3585.7624L13951.6093,-3585.7875L13951.6094,-3585.7875L13951.6094,-3585.7876L13951.6217,-3585.7921L13951.6274,-3585.7943L13951.6698,-3585.8083L13951.7623,-3585.8461L13951.7927,-3585.8578L13951.7928,-3585.8578L13951.7928,-3585.8578L13951.7928,-3585.8578L13951.7929,-3585.8578L13951.793,-3585.8579L13951.8015,-3585.8611L13951.8055,-3585.8627L13951.8184,-3585.8676L13951.8632,-3585.8847L13951.8857,-3585.8933L13951.8931,-3585.8962L13951.8955,-3585.8971L13951.9009,-3585.8992L13951.9017,-3585.8995L13951.9043,-3585.9005L13951.9255,-3585.9086L13951.9256,-3585.9086L13952.0006,-3585.9375"/>
<path content="1,東武バスウエスト,ふじみ野駅・志木駅・朝霞台駅～羽田空港,8.5,8.5,8.5," xlink:title="1" d="M13952.6367,-3583.8402L13952.5674,-3583.9224L13952.5127,-3583.9715L13952.486,-3584.0196L13952.4578,-3584.0531L13952.4018,-3584.1194L13952.3648,-3584.1624L13952.321,-3584.1994L13952.2723,-3584.2725L13952.266,-3584.2801L13952.2485,-3584.3012L13952.2366,-3584.3147L13952.231,-3584.3211L13952.231,-3584.3211L13952.2262,-3584.3266L13952.2092,-3584.3457L13952.1368,-3584.4274L13952.086,-3584.4915L13952.0638,-3584.5196L13952.0117,-3584.5771L13951.9956,-3584.6005L13951.9484,-3584.6783L13951.9481,-3584.6789L13951.9475,-3584.68L13951.9432,-3584.6883L13951.9089,-3584.7499L13951.9089,-3584.7499L13951.9089,-3584.7499L13951.9007,-3584.7646L13951.896,-3584.7731L13951.8872,-3584.7884L13951.8839,-3584.794L13951.8823,-3584.7969L13951.8627,-3584.8309L13951.857,-3584.8416L13951.8383,-3584.8832L13951.8254,-3584.903L13951.8254,-3584.903L13951.8254,-3584.903L13951.8126,-3584.9253L13951.8121,-3584.9261L13951.8121,-3584.9261L13951.8121,-3584.9261L13951.8104,-3584.9299L13951.8045,-3584.9424L13951.7961,-3584.9578L13951.7961,-3584.9578L13951.7961,-3584.9578L13951.7866,-3584.9752L13951.7793,-3584.9908L13951.7571,-3585.0341L13951.7428,-3585.0618L13951.7263,-3585.0992L13951.7175,-3585.1121L13951.6842,-3585.1976L13951.6759,-3585.2197L13951.6648,-3585.2506L13951.6324,-3585.3266L13951.6205,-3585.3529L13951.597,-3585.401L13951.5921,-3585.4123L13951.5741,-3585.4439L13951.5561,-3585.4776L13951.5442,-3585.5001L13951.5414,-3585.5054L13951.5406,-3585.5068L13951.5201,-3585.5407L13951.5157,-3585.548L13951.5091,-3585.5588L13951.5077,-3585.5627L13951.4827,-3585.607L13951.4696,-3585.6303L13951.4684,-3585.6322L13951.4607,-3585.645L13951.46,-3585.6461L13951.4275,-3585.7036L13951.4205,-3585.7148L13951.4981,-3585.7447L13951.544,-3585.7624L13951.6093,-3585.7875L13951.6094,-3585.7875L13951.6094,-3585.7876L13951.6217,-3585.7921L13951.6274,-3585.7943L13951.6698,-3585.8083L13951.7623,-3585.8461L13951.7927,-3585.8578L13951.7928,-3585.8578L13951.7928,-3585.8578L13951.7928,-3585.8578L13951.7929,-3585.8578L13951.793,-3585.8579L13951.8015,-3585.8611L13951.8055,-3585.8627L13951.8184,-3585.8676L13951.8632,-3585.8847L13951.8857,-3585.8933L13951.8931,-3585.8962L13951.8955,-3585.8971L13951.9009,-3585.8992L13951.9017,-3585.8995L13951.9043,-3585.9005L13951.9255,-3585.9086L13951.9256,-3585.9086L13952.0006,-3585.9375"/>
<path content="1,東武バスウエスト,ミッドナイトアロー川越,1.0,0.0,0.0," xlink:title="1" d="M13952.6367,-3585.8814L13952.5863,-3585.8771L13952.5743,-3585.8755L13952.5469,-3585.8726L13952.5267,-3585.8692L13952.5081,-3585.8636L13952.5007,-3585.8609L13952.4918,-3585.8567L13952.4849,-3585.8527L13952.4812,-3585.8506L13952.4766,-3585.8481L13952.4677,-3585.8434L13952.4587,-3585.839L13952.4486,-3585.8335L13952.3884,-3585.8027L13952.336,-3585.7753L13952.3179,-3585.7693L13952.305,-3585.7588L13952.2397,-3585.7244L13952.2341,-3585.7227L13952.2182,-3585.7143L13952.1981,-3585.7458L13952.1643,-3585.7935L13952.1447,-3585.8258L13952.1347,-3585.8429L13952.1275,-3585.8552L13952.1151,-3585.8765L13952.1029,-3585.8981L13952.0806,-3585.9375M13952.0006,-3585.9375L13951.9256,-3585.9086L13951.9255,-3585.9086L13951.921,-3585.9375"/>
<path content="1,東武バスウエスト,上福04,6.5,4.0,4.0," xlink:title="1" d="M13950.8383,-3585.9375L13950.8517,-3585.9114L13950.8628,-3585.8889L13950.8794,-3585.85L13950.888,-3585.8313L13950.8955,-3585.81"/>
<path content="1,東武バスウエスト,坂戸駅南口・川越駅西口～成田空港,2.0,2.0,2.0," xlink:title="1" d="M13950.4498,-3583.7402L13950.4483,-3583.7448L13950.4395,-3583.7723"/>
<path content="1,東武バスウエスト,鶴01,7.0,9.0,9.0," xlink:title="1" d="M13952.0806,-3585.9375L13952.1029,-3585.8981L13952.1151,-3585.8765L13952.1275,-3585.8552L13952.1347,-3585.8429L13952.1447,-3585.8258L13952.1643,-3585.7935L13952.1981,-3585.7458L13952.2182,-3585.7143L13952.2341,-3585.7227L13952.2397,-3585.7244L13952.305,-3585.7588L13952.3179,-3585.7693L13952.336,-3585.7753L13952.3884,-3585.8027L13952.4486,-3585.8335L13952.4587,-3585.839L13952.4677,-3585.8434L13952.4766,-3585.8481L13952.4812,-3585.8506L13952.4849,-3585.8527L13952.4918,-3585.8567L13952.5007,-3585.8609L13952.5081,-3585.8636L13952.5267,-3585.8692L13952.5469,-3585.8726L13952.5743,-3585.8755L13952.5863,-3585.8771L13952.6367,-3585.8814"/>
<path content="1,西武バス（株）,上越線,2.0,2.0,2.0," xlink:title="1" d="M13950.4498,-3583.7402L13950.4483,-3583.7448L13950.4395,-3583.7723"/>
<path content="1,西武バス（株）,佐久・軽井沢・上田・小諸線,8.0,8.0,8.0," xlink:title="1" d="M13950.4498,-3583.7402L13950.4483,-3583.7448L13950.4395,-3583.7723"/>
<path content="1,西武バス（株）,富山線,2.0,2.0,2.0," xlink:title="1" d="M13950.4498,-3583.7402L13950.4483,-3583.7448L13950.4395,-3583.7723"/>
<path content="1,西武バス（株）,川越羽田線,2.0,2.0,2.0," xlink:title="1" d="M13950.4395,-3583.7723L13950.4483,-3583.7448L13950.4498,-3583.7402"/>
<path content="1,西武バス（株）,新潟線,8.0,8.0,8.0," xlink:title="1" d="M13950.4498,-3583.7402L13950.4483,-3583.7448L13950.4395,-3583.7723"/>
<path content="1,西武バス（株）,氷見線,1.0,1.0,1.0," xlink:title="1" d="M13950.4498,-3583.7402L13950.4483,-3583.7448L13950.4395,-3583.7723"/>
<path content="1,西武バス（株）,金沢線,2.0,2.0,2.0," xlink:title="1" d="M13950.4498,-3583.7402L13950.4483,-3583.7448L13950.4395,-3583.7723"/>
<path content="1,西武バス（株）,長野線,3.0,3.0,3.0," xlink:title="1" d="M13950.4498,-3583.7402L13950.4483,-3583.7448L13950.4395,-3583.7723"/>
<path content="1,西武高原バス（株）,高速上田線,2.0,2.0,2.0," xlink:title="1" d="M13950.4498,-3583.7402L13950.4484,-3583.7447L13950.4395,-3583.7723"/>
<path content="1,西武高原バス（株）,高速佐久線,3.0,3.0,3.0," xlink:title="1" d="M13950.4498,-3583.7402L13950.4484,-3583.7447L13950.4395,-3583.7723"/>
<path content="1,西武高原バス（株）,高速小諸線,1.0,1.0,1.0," xlink:title="1" d="M13950.4498,-3583.7402L13950.4484,-3583.7447L13950.4395,-3583.7723"/>
<path content="1,西武高原バス（株）,高速軽井沢線,5.0,5.0,5.0," xlink:title="1" d="M13950.4498,-3583.7402L13950.4484,-3583.7447L13950.4395,-3583.7723"/>
<path content="1,近鉄バス（株）,大阪・京都⇔川越・坂戸・熊谷,1.0,1.0,1.0," xlink:title="1" d="M13950.4498,-3583.7402L13950.4484,-3583.7447L13950.4395,-3583.7723"/>
<path content="1,長電バス（株）,長野～池袋線,6.0,6.0,6.0," xlink:title="1" d="M13950.4395,-3583.7723L13950.4484,-3583.7447L13950.4498,-3583.7402"/>
<path content="1,関越交通（株）,アザレア号,14.0,14.0,14.0," xlink:title="1" d="M13950.4498,-3583.7402L13950.4483,-3583.7448L13950.4395,-3583.7723"/>
<path content="1,関越交通（株）,四万温泉号,1.4,1.4,1.4," xlink:title="1" d="M13950.4498,-3583.7402L13950.4483,-3583.7448L13950.4395,-3583.7723"/>
<path content="1,関越交通（株）,富士急ハイランド線,999.9,999.9,999.9," xlink:title="1" d="M13950.4498,-3583.7402L13950.4483,-3583.7448L13950.4395,-3583.7723"/>
<path content="1,関越交通（株）,尾瀬号,1.3,1.3,1.3," xlink:title="1" d="M13950.4498,-3583.7402L13950.4483,-3583.7448L13950.4395,-3583.7723"/>
<path content="1,頸城自動車（株）・越後交通（株）・西部バス（株）,高速バス頸城・越後（上越・柏崎～池袋線）,3.0,3.0,3.0," xlink:title="1" d="M13950.4395,-3583.7723L13950.4484,-3583.7447L13950.4498,-3583.7402"/>
<path content="3,ふじみ野市,中央・北コース,6.0,6.0,6.0," xlink:title="3" d="M13950.7321,-3585.8365L13950.6933,-3585.8168L13950.6691,-3585.8038L13950.62,-3585.7734L13950.6092,-3585.7663L13950.5826,-3585.7469L13950.5618,-3585.7306L13950.5591,-3585.7283L13950.5079,-3585.6928L13950.4913,-3585.6804L13950.4395,-3585.6416"/>
<path content="3,ふじみ野市,中央・北コース,6.0,6.0,6.0," xlink:title="3" d="M13950.7321,-3585.8365L13950.7251,-3585.8551L13950.712,-3585.8922L13950.7097,-3585.9027"/>
<path content="3,ふじみ野市,中央・北コース,6.0,6.0,6.0," xlink:title="3" d="M13950.8628,-3585.8889L13950.7947,-3585.8619L13950.7756,-3585.8551L13950.7321,-3585.8365"/>
<path content="3,ふじみ野市,中央・北コース,6.0,6.0,6.0," xlink:title="3" d="M13950.8628,-3585.8889L13950.8794,-3585.85L13950.888,-3585.8313L13950.8955,-3585.81L13950.8988,-3585.7988L13950.9042,-3585.7748L13950.9051,-3585.7713L13950.8211,-3585.7512L13950.8017,-3585.7444L13950.7968,-3585.7435L13950.7819,-3585.7351L13950.777,-3585.7328L13950.7673,-3585.7238L13950.7466,-3585.6928L13950.7431,-3585.6894L13950.7318,-3585.6709L13950.7231,-3585.6596L13950.7002,-3585.6252L13950.6864,-3585.6049L13950.6804,-3585.5952L13950.6227,-3585.5092L13950.6027,-3585.4765L13950.5833,-3585.4449L13950.5753,-3585.4259L13950.5612,-3585.4061L13950.5577,-3585.4016L13950.5439,-3585.3779L13950.5362,-3585.3627L13950.5127,-3585.3249L13950.4489,-3585.2101L13950.4395,-3585.1958"/>
<path content="3,ふじみ野市,中央・北コース,6.0,6.0,6.0," xlink:title="3" d="M13950.8628,-3585.8889L13950.9492,-3585.9218L13950.959,-3585.9272L13950.9834,-3585.9375M13950.8383,-3585.9375L13950.8517,-3585.9114L13950.8628,-3585.8889"/>
<path content="3,ふじみ野市,南コース,5.0,5.0,5.0," xlink:title="3" d="M13951.8253,-3584.903L13951.8383,-3584.8832L13951.857,-3584.8416L13951.8627,-3584.8309L13951.8823,-3584.7969L13951.8839,-3584.794L13951.8872,-3584.7884L13951.896,-3584.7731L13951.9007,-3584.7646L13951.9089,-3584.7499L13951.9089,-3584.7499L13951.9089,-3584.7499L13951.9433,-3584.6883L13951.9475,-3584.68L13951.9481,-3584.6789L13951.9484,-3584.6782L13951.9955,-3584.6004L13952.0117,-3584.5771"/>
<path content="3,ふじみ野市,南コース,5.0,5.0,5.0," xlink:title="3" d="M13951.8253,-3584.903L13951.8126,-3584.9253L13951.8121,-3584.9261L13951.8121,-3584.9261L13951.8121,-3584.9261L13951.8104,-3584.9299L13951.8045,-3584.9424L13951.7961,-3584.9578L13951.7865,-3584.9751L13951.7793,-3584.9908L13951.7571,-3585.0341L13951.7428,-3585.0618L13951.7263,-3585.0992L13951.7173,-3585.112L13951.6841,-3585.1976L13951.6758,-3585.2196L13951.6647,-3585.2506L13951.6322,-3585.3267L13951.6205,-3585.3529L13951.597,-3585.401"/>
<path content="3,ふじみ野市,南コース,5.0,5.0,5.0," xlink:title="3" d="M13951.597,-3585.401L13951.597,-3585.401L13951.597,-3585.401L13951.6094,-3585.4083L13951.6634,-3585.4365L13951.6987,-3585.4522L13951.7401,-3585.4748L13951.7457,-3585.4771L13951.7699,-3585.49L13951.8211,-3585.5148"/>
<path content="3,ふじみ野市,南コース,5.0,5.0,5.0," xlink:title="3" d="M13952.6111,-3585.4131L13952.5824,-3585.3892L13952.5323,-3585.349L13952.5225,-3585.3419L13952.4994,-3585.3239L13952.4819,-3585.3126L13952.3974,-3585.2608L13952.331,-3585.2237L13952.3117,-3585.2134L13952.2625,-3585.1864L13952.2162,-3585.161L13952.0996,-3585.0965L13952.0882,-3585.0917L13952.0467,-3585.0681L13951.9934,-3585.0393L13951.9406,-3585.0122L13951.9385,-3585.0111L13951.9551,-3584.9878L13951.972,-3584.9667L13951.9097,-3584.9323L13951.8917,-3584.9233L13951.8702,-3584.9182L13951.8254,-3584.903L13951.8254,-3584.903L13951.8254,-3584.903L13951.8253,-3584.903"/>
<path content="3,ふじみ野市,南コース,5.0,5.0,5.0," xlink:title="3" d="M13952.6111,-3585.4131L13952.6367,-3585.4329M13952.6367,-3585.3826L13952.6334,-3585.3757L13952.6299,-3585.3656L13952.6367,-3585.3646M13952.6367,-3585.0596L13952.632,-3585.0585L13952.5823,-3585.0371L13952.5545,-3585.0292L13952.4874,-3585.0033L13952.4535,-3584.9898L13952.4382,-3584.9805L13952.4321,-3584.9791L13952.4051,-3584.9684L13952.3933,-3584.9622L13952.3622,-3584.9492L13952.3255,-3584.9334L13952.3144,-3584.9295L13952.2757,-3584.9137L13952.2646,-3584.9109L13952.2528,-3584.9023L13952.1954,-3584.8884L13952.1698,-3584.8799L13952.1608,-3584.8771L13952.1207,-3584.8613L13952.113,-3584.8545"/>
<path content="3,ふじみ野市,南コース,5.0,5.0,5.0," xlink:title="3" d="M13951.8211,-3585.5148L13951.881,-3585.4396L13951.9436,-3585.3571L13952.0224,-3585.3931L13952.0721,-3585.4109L13952.0873,-3585.4209L13952.1073,-3585.4305L13952.1484,-3585.4495L13952.1892,-3585.4681L13952.2771,-3585.5075L13952.3565,-3585.5443L13952.4742,-3585.596L13952.5063,-3585.5479L13952.5587,-3585.4833L13952.5939,-3585.4377L13952.6111,-3585.4131"/>
<path content="3,ふじみ野市,南コース,5.0,5.0,5.0," xlink:title="3" d="M13951.8211,-3585.5148L13951.8591,-3585.534L13951.864,-3585.5357L13951.8866,-3585.5471L13951.9,-3585.5548L13951.9802,-3585.5948L13952.0314,-3585.6207L13952.0792,-3585.6456L13952.1435,-3585.6765L13952.1717,-3585.6913L13952.1892,-3585.6996L13952.2182,-3585.7143L13952.1981,-3585.7458L13952.1643,-3585.7935L13952.1447,-3585.8258L13952.1347,-3585.8429L13952.1275,-3585.8552L13952.1151,-3585.8765L13952.1029,-3585.8981L13952.0806,-3585.9375M13952.0006,-3585.9375L13951.9256,-3585.9086L13951.9043,-3585.9005L13951.9017,-3585.8995L13951.9009,-3585.8992L13951.8632,-3585.8848L13951.8055,-3585.8627L13951.8015,-3585.8611L13951.793,-3585.8579L13951.7929,-3585.8578L13951.7928,-3585.8578L13951.7928,-3585.8578L13951.7928,-3585.8578L13951.7927,-3585.8578L13951.7623,-3585.8461L13951.6698,-3585.8083L13951.6274,-3585.7943L13951.6217,-3585.7921L13951.6093,-3585.7876L13951.6093,-3585.7876L13951.5678,-3585.8664L13951.5447,-3585.9118L13951.5317,-3585.9375"/>
<path content="3,ふじみ野市,南コース,5.0,5.0,5.0," xlink:title="3" d="M13950.7321,-3585.8365L13950.6933,-3585.8168L13950.6691,-3585.8038L13950.62,-3585.7734L13950.6092,-3585.7663L13950.5826,-3585.7469L13950.5618,-3585.7306L13950.5591,-3585.7283L13950.5079,-3585.6928L13950.4913,-3585.6804L13950.4395,-3585.6416"/>
<path content="3,ふじみ野市,南コース,5.0,5.0,5.0," xlink:title="3" d="M13950.7321,-3585.8365L13950.7251,-3585.8551L13950.712,-3585.8922L13950.7097,-3585.9027"/>
<path content="3,ふじみ野市,南コース,5.0,5.0,5.0," xlink:title="3" d="M13950.9834,-3585.9375L13950.959,-3585.9272L13950.9492,-3585.9218L13950.8628,-3585.8889L13950.7947,-3585.8619L13950.7756,-3585.8551L13950.7321,-3585.8365"/>
<path content="3,ふじみ野市,南コース,5.0,5.0,5.0," xlink:title="3" d="M13951.2914,-3585.9375L13951.3139,-3585.8974L13951.352,-3585.8331L13951.3637,-3585.8139L13951.3928,-3585.7633L13951.397,-3585.7537L13951.4065,-3585.7425L13951.4101,-3585.7334L13951.4205,-3585.7148L13951.4275,-3585.7036L13951.46,-3585.6461L13951.4607,-3585.645L13951.4684,-3585.6322L13951.4696,-3585.6303L13951.4827,-3585.607L13951.5077,-3585.5627L13951.5091,-3585.5588L13951.5157,-3585.548L13951.5201,-3585.5407L13951.5406,-3585.5068L13951.5414,-3585.5054L13951.5442,-3585.5001L13951.5561,-3585.4776L13951.5741,-3585.4439L13951.5921,-3585.4123L13951.597,-3585.401"/>
<path content="3,ふじみ野市,東コース,5.0,5.0,5.0," xlink:title="3" d="M13951.8211,-3585.5148L13951.7699,-3585.49L13951.7457,-3585.4771L13951.7401,-3585.4748L13951.6987,-3585.4522L13951.6634,-3585.4365L13951.6094,-3585.4083L13951.597,-3585.401L13951.597,-3585.401L13951.597,-3585.401L13951.5969,-3585.401L13951.5737,-3585.3833L13951.4876,-3585.3458L13951.3416,-3585.2754L13951.305,-3585.2579L13951.2914,-3585.251L13951.2676,-3585.2431L13951.233,-3585.2309L13951.2158,-3585.2226L13951.1631,-3585.2055L13951.1465,-3585.1999L13951.1154,-3585.1864L13951.1119,-3585.1845L13951.1057,-3585.1813L13951.0974,-3585.1785L13951.0414,-3585.152L13950.9784,-3585.1216L13950.9687,-3585.1176L13950.9203,-3585.0945L13950.9139,-3585.0897L13950.8795,-3585.0748L13950.8386,-3585.0556L13950.8172,-3585.0455L13950.8075,-3585.0399L13950.7778,-3585.0263L13950.7704,-3585.0173L13950.7336,-3585.0019L13950.7141,-3585.041L13950.6919,-3585.081L13950.6677,-3585.1261L13950.6594,-3585.1384L13950.6421,-3585.1711L13950.6283,-3585.1948L13950.6172,-3585.2179L13950.5958,-3585.2556L13950.5868,-3585.2709L13950.5792,-3585.2855L13950.5707,-3585.303"/>
<path content="3,ふじみ野市,東コース,5.0,5.0,5.0," xlink:title="3" d="M13951.8211,-3585.5148L13951.7858,-3585.5588L13951.7257,-3585.637L13951.6979,-3585.6731L13951.6427,-3585.7444L13951.6094,-3585.7875L13951.6093,-3585.7875L13951.6093,-3585.7876L13951.6093,-3585.7876L13951.5678,-3585.8664L13951.5447,-3585.9118L13951.5317,-3585.9375M13950.9834,-3585.9375L13950.959,-3585.9272L13950.9492,-3585.9218L13950.8628,-3585.8889"/>
<path content="3,ふじみ野市,東コース,5.0,5.0,5.0," xlink:title="3" d="M13952.0314,-3585.6207L13951.9802,-3585.5948L13951.9,-3585.5548L13951.8866,-3585.5471L13951.864,-3585.5357L13951.8591,-3585.534L13951.8211,-3585.5148"/>
<path content="3,ふじみ野市,東コース,5.0,5.0,5.0," xlink:title="3" d="M13952.2182,-3585.7143L13952.1892,-3585.6996L13952.1717,-3585.6913L13952.1435,-3585.6765L13952.0792,-3585.6456L13952.0314,-3585.6207"/>
<path content="3,ふじみ野市,東コース,5.0,5.0,5.0," xlink:title="3" d="M13952.2182,-3585.7143L13952.1981,-3585.7458L13952.1643,-3585.7935L13952.1447,-3585.8258L13952.1347,-3585.8429L13952.1275,-3585.8552L13952.1151,-3585.8765L13952.1029,-3585.8981L13952.0806,-3585.9375M13952.0006,-3585.9375L13951.9256,-3585.9086L13951.9346,-3585.8619L13951.9394,-3585.8348L13951.947,-3585.7926L13951.9484,-3585.7853L13951.9516,-3585.7736L13951.9518,-3585.7729L13951.9539,-3585.7605L13951.9581,-3585.7458L13951.9622,-3585.7368L13951.9657,-3585.7272L13951.9781,-3585.7036L13951.983,-3585.694L13951.9871,-3585.6878L13952.0031,-3585.6608L13952.0314,-3585.6207"/>
<path content="3,ふじみ野市,東コース,5.0,5.0,5.0," xlink:title="3" d="M13950.7321,-3585.8365L13950.6933,-3585.8168L13950.6691,-3585.8038L13950.62,-3585.7734L13950.6092,-3585.7663L13950.5826,-3585.7469L13950.5618,-3585.7306L13950.5591,-3585.7283L13950.5079,-3585.6928L13950.4913,-3585.6804L13950.4395,-3585.6416"/>
<path content="3,ふじみ野市,東コース,5.0,5.0,5.0," xlink:title="3" d="M13950.7321,-3585.8365L13950.7251,-3585.8551L13950.712,-3585.8922L13950.7097,-3585.9027"/>
<path content="3,ふじみ野市,東コース,5.0,5.0,5.0," xlink:title="3" d="M13952.6367,-3585.7244L13952.6052,-3585.7104L13952.5937,-3585.7014L13952.5483,-3585.681L13952.4895,-3585.6534L13952.4445,-3585.6343L13952.4424,-3585.6326L13952.3926,-3585.6118L13952.3234,-3585.5858L13952.304,-3585.6089L13952.2601,-3585.6619L13952.2182,-3585.7143"/>
<path content="3,ふじみ野市,東コース,5.0,5.0,5.0," xlink:title="3" d="M13952.6367,-3585.8814L13952.5863,-3585.8771L13952.5743,-3585.8755L13952.5469,-3585.8726L13952.5267,-3585.8692L13952.5081,-3585.8636L13952.5007,-3585.8609L13952.4918,-3585.8567L13952.4849,-3585.8527L13952.4812,-3585.8506L13952.4766,-3585.8481L13952.4677,-3585.8434L13952.4587,-3585.839L13952.4486,-3585.8335L13952.3884,-3585.8027L13952.336,-3585.7753L13952.3179,-3585.7693L13952.305,-3585.7588L13952.2397,-3585.7244L13952.2341,-3585.7227L13952.2182,-3585.7143"/>
<path content="3,ふじみ野市,東コース,5.0,5.0,5.0," xlink:title="3" d="M13950.8628,-3585.8889L13950.7947,-3585.8619L13950.7756,-3585.8551L13950.7321,-3585.8365"/>
<path content="3,ふじみ野市,東コース,5.0,5.0,5.0," xlink:title="3" d="M13950.8628,-3585.8889L13950.8517,-3585.9114L13950.8383,-3585.9375"/>
<path content="3,ふじみ野市,西コース,3.0,3.0,3.0," xlink:title="3" d="M13950.7321,-3585.8365L13950.7756,-3585.8551L13950.7947,-3585.8619L13950.8628,-3585.8889"/>
<path content="3,ふじみ野市,西コース,3.0,3.0,3.0," xlink:title="3" d="M13950.7321,-3585.8365L13950.7251,-3585.8551L13950.712,-3585.8922L13950.7097,-3585.9027"/>
<path content="3,ふじみ野市,西コース,3.0,3.0,3.0," xlink:title="3" d="M13950.8628,-3585.8889L13950.8794,-3585.85L13950.888,-3585.8313L13950.8955,-3585.81L13950.8988,-3585.7988L13950.9042,-3585.7748L13950.9051,-3585.7713L13950.8211,-3585.7512L13950.8017,-3585.7444L13950.7968,-3585.7435L13950.7819,-3585.7351L13950.777,-3585.7328L13950.7673,-3585.7238L13950.7466,-3585.6928L13950.7431,-3585.6894L13950.7318,-3585.6709L13950.7231,-3585.6596L13950.7002,-3585.6252L13950.6864,-3585.6049L13950.6804,-3585.5952L13950.6227,-3585.5092L13950.6027,-3585.4765L13950.5833,-3585.4449L13950.5753,-3585.4259L13950.5612,-3585.4061L13950.5577,-3585.4016L13950.5439,-3585.3779L13950.5362,-3585.3627L13950.5127,-3585.3249L13950.4489,-3585.2101L13950.4395,-3585.1958"/>
<path content="3,ふじみ野市,西コース,3.0,3.0,3.0," xlink:title="3" d="M13950.8628,-3585.8889L13950.9492,-3585.9218L13950.959,-3585.9272L13950.9834,-3585.9375"/>
<path content="3,ふじみ野市,西コース,3.0,3.0,3.0," xlink:title="3" d="M13950.4395,-3585.6416L13950.4913,-3585.6804L13950.5079,-3585.6928L13950.5591,-3585.7283L13950.5618,-3585.7306L13950.5826,-3585.7469L13950.6092,-3585.7663L13950.62,-3585.7734L13950.6691,-3585.8038L13950.6933,-3585.8168L13950.7321,-3585.8365"/>
<path content="3,ふじみ野市,西コース,3.0,3.0,3.0," xlink:title="3" d="M13951.5317,-3585.9375L13951.5447,-3585.9118L13951.5678,-3585.8664L13951.6093,-3585.7876L13951.6093,-3585.7876L13951.6093,-3585.7875L13951.6094,-3585.7875L13951.6094,-3585.7875L13951.6217,-3585.7921L13951.6274,-3585.7943L13951.6698,-3585.8083L13951.7623,-3585.8461L13951.7927,-3585.8578L13951.7928,-3585.8578L13951.7928,-3585.8578L13951.7928,-3585.8578L13951.7929,-3585.8578L13951.793,-3585.8579L13951.8015,-3585.8611L13951.8055,-3585.8627L13951.8632,-3585.8848L13951.9009,-3585.8992L13951.9017,-3585.8995L13951.9043,-3585.9005L13951.9256,-3585.9086L13952.0006,-3585.9375M13952.0806,-3585.9375L13952.1029,-3585.8981L13952.1151,-3585.8765L13952.1275,-3585.8552L13952.1347,-3585.8429L13952.1447,-3585.8258L13952.1643,-3585.7935L13952.1981,-3585.7458L13952.2182,-3585.7143L13952.1892,-3585.6996L13952.1717,-3585.6913L13952.1435,-3585.6765L13952.0792,-3585.6456L13952.0314,-3585.6207L13951.9802,-3585.5948L13951.9,-3585.5548L13951.8866,-3585.5471L13951.864,-3585.5357L13951.8591,-3585.534L13951.8211,-3585.5148L13951.7699,-3585.49L13951.7457,-3585.4771L13951.7401,-3585.4748L13951.6987,-3585.4522L13951.6634,-3585.4365L13951.6094,-3585.4083L13951.597,-3585.401L13951.597,-3585.401L13951.597,-3585.401L13951.5921,-3585.4123L13951.5741,-3585.4439L13951.5561,-3585.4776L13951.5442,-3585.5001L13951.5414,-3585.5054L13951.5406,-3585.5068L13951.5201,-3585.5407L13951.5157,-3585.548L13951.5091,-3585.5588L13951.5077,-3585.5627L13951.4364,-3585.6298L13951.4322,-3585.6337L13951.4205,-3585.6466L13951.4108,-3585.6551L13951.408,-3585.659L13951.399,-3585.6664L13951.3803,-3585.6824L13951.3776,-3585.6878L13951.3367,-3585.7289L13951.3236,-3585.7419L13951.3119,-3585.7526L13951.2392,-3585.8252L13951.2254,-3585.8382L13951.2108,-3585.8523L13951.1748,-3585.8889L13951.1569,-3585.9064L13951.1292,-3585.9368L13951.1286,-3585.9375"/>
</g>
</svg>
