<?xml version="1.0" encoding="UTF-8"?>
<svg  xmlns="http://www.w3.org/2000/svg" xmlns:xlink="http://www.w3.org/1999/xlink" xmlns:go="http://purl.org/svgmap/profile" property="N07_001,N07_002,N07_003,N07_004,N07_005,N07_006,N07_007" viewBox="13776.85546875 -3546.38671875 4.39453125 4.39453125" go:dataArea="13776.85546875 -3546.38671875 4.39453125 4.39453125" >
<metadata>
 <rdf:RDF xmlns:rdf="http://www.w3.org/1999/02/22-rdf-syntax-ns#" xmlns:crs="http://opengis.org/xmldtds/transformations.dtd" xmlns:svg="http://www.w3.org/svg" >
  <rdf:Description>
   <crs:CoordinateReferenceSystem rdf:resource="http://purl.org/crs/84" svg:transform="matrix(100.0,0.0,0.0,-100.0,0.0,0.0)" />
  </rdf:Description>
 </rdf:RDF>
</metadata>
<globalCoordinateSystem srsName="http://purl.org/crs/84" transform="matrix(100.0,0.0,0.0,-100.0,0.0,0.0)" />
<defs>
 <g id="p0" >
  <circle cx="0.0" cy="0.0" r="3" stroke="green" stroke-width="0.75" vector-effect="non-scaling-stroke" />
 </g>
</defs>
<g fill="none" fill-rule="evenodd" stroke="#FF00FF" stroke-width="0.75" opacity="0.5" vector-effect="non-scaling-stroke" stroke-linejoin="bevel" >
<path content="3,阿南町,南部公共バス阿南線_01_on,1.0,0.0,0.0," xlink:title="3" d="M13781.25,-3546.2427L13781.2191,-3546.2344L13781.1847,-3546.217L13781.1579,-3546.1984L13781.1342,-3546.1752L13781.1274,-3546.1679L13781.1109,-3546.1408L13781.103,-3546.1251L13781.1421,-3546.1213L13781.1725,-3546.101L13781.25,-3546.0271M13781.25,-3544.7235L13781.2439,-3544.7198L13781.2384,-3544.7141L13781.2233,-3544.7136L13781.202,-3544.7113L13781.1731,-3544.7124L13781.1531,-3544.7153L13781.1353,-3544.7132L13781.1544,-3544.6465L13781.2027,-3544.5253L13781.25,-3544.3943M13781.25,-3544.2064L13781.2278,-3544.1852L13781.1003,-3544.0666L13781.0853,-3544.0535L13781.0702,-3544.0403L13781.0598,-3544.0325L13781.019,-3543.9943L13781.0108,-3543.981L13781.0108,-3543.9607L13781.0135,-3543.9501L13781.0245,-3543.932L13781.0672,-3543.896L13781.0858,-3543.8774L13781.0954,-3543.8605L13781.1009,-3543.8481L13781.1036,-3543.8391L13781.103,-3543.8285L13781.1036,-3543.8104L13781.0981,-3543.7879L13781.0947,-3543.7648L13781.0878,-3543.74L13781.0798,-3543.7192L13781.0679,-3543.6961L13781.0576,-3543.6798L13781.0459,-3543.6646L13781.0218,-3543.6403L13780.9977,-3543.6223L13780.9647,-3543.5998L13780.9357,-3543.5821L13780.855,-3543.5412L13780.8161,-3543.521L13780.7831,-3543.5012L13780.7604,-3543.4874L13780.7432,-3543.4641L13780.7391,-3543.4528L13780.7345,-3543.3932L13780.7291,-3543.359L13780.7239,-3543.3269L13780.7177,-3543.314L13780.6961,-3543.2774L13780.6235,-3543.2372L13780.5699,-3543.2051L13780.5173,-3543.1715L13780.4674,-3543.1397L13780.4117,-3543.0958L13780.3559,-3543.0469L13780.3058,-3542.9973L13780.2908,-3542.9693L13780.2844,-3542.9303L13780.2865,-3542.9134L13780.2982,-3542.879L13780.3134,-3542.8425L13780.3195,-3542.8273L13780.3607,-3542.7539L13780.3876,-3542.7039L13780.4034,-3542.6752L13780.4096,-3542.6555L13780.4131,-3542.6386L13780.4144,-3542.6206L13780.4096,-3542.5998L13780.4028,-3542.5829L13780.389,-3542.5626L13780.3738,-3542.5474L13780.3621,-3542.5384L13780.3484,-3542.5282L13780.3178,-3542.5119L13780.2438,-3542.4724L13780.163,-3542.4291L13780.1615,-3542.4285L13780.1172,-3542.4154L13780.0938,-3542.4086L13780.027,-3542.3842L13780.0052,-3542.3751L13779.9811,-3542.3559L13779.9653,-3542.3396L13779.9529,-3542.3227L13779.9261,-3542.2811L13779.9068,-3542.2591L13779.8838,-3542.2376L13779.8676,-3542.2276L13779.8414,-3542.2152L13779.8353,-3542.2125L13779.816,-3542.2062L13779.8016,-3542.2017L13779.7871,-3542.1943L13779.7651,-3542.1808L13779.7459,-3542.1645L13779.6908,-3542.0981L13779.6763,-3542.0787L13779.6496,-3542.0378L13779.6211,-3541.9922"/>
<path content="3,阿南町,南部公共バス阿南線_03_on,8.0,0.0,0.0," xlink:title="3" d="M13781.25,-3546.2427L13781.2191,-3546.2344L13781.1847,-3546.217L13781.1579,-3546.1984L13781.1342,-3546.1752L13781.1274,-3546.1679L13781.1109,-3546.1408L13781.103,-3546.1251L13781.1421,-3546.1213L13781.1725,-3546.101L13781.25,-3546.0271M13781.25,-3544.7235L13781.2439,-3544.7198L13781.2384,-3544.7141L13781.2233,-3544.7136L13781.202,-3544.7113L13781.1731,-3544.7124L13781.1531,-3544.7153L13781.1353,-3544.7132L13781.1544,-3544.6465L13781.2027,-3544.5253L13781.25,-3544.3943M13781.25,-3544.2064L13781.2278,-3544.1852L13781.1003,-3544.0666L13781.0853,-3544.0535L13781.0702,-3544.0403L13781.0598,-3544.0325L13781.019,-3543.9943L13781.0108,-3543.981L13781.0108,-3543.9607L13781.0135,-3543.9501L13781.0245,-3543.932L13781.0672,-3543.896L13781.0858,-3543.8774L13781.0954,-3543.8605L13781.1009,-3543.8481L13781.1036,-3543.8391L13781.103,-3543.8285L13781.1036,-3543.8104L13781.0981,-3543.7879L13781.0947,-3543.7648L13781.0878,-3543.74L13781.0798,-3543.7192L13781.0679,-3543.6961L13781.0576,-3543.6798L13781.0459,-3543.6646L13781.0218,-3543.6403L13780.9977,-3543.6223L13780.9647,-3543.5998L13780.9357,-3543.5821L13780.855,-3543.5412L13780.8161,-3543.521L13780.7831,-3543.5012L13780.7604,-3543.4874L13780.7432,-3543.4641L13780.7391,-3543.4528L13780.7345,-3543.3932L13780.7291,-3543.359L13780.7239,-3543.3269L13780.7177,-3543.314L13780.6961,-3543.2774L13780.6235,-3543.2372L13780.5699,-3543.2051L13780.5173,-3543.1715L13780.4674,-3543.1397L13780.4117,-3543.0958L13780.3559,-3543.0469L13780.3058,-3542.9973L13780.2908,-3542.9693L13780.2844,-3542.9303L13780.2865,-3542.9134L13780.2982,-3542.879L13780.3134,-3542.8425L13780.3195,-3542.8273L13780.3607,-3542.7539L13780.3876,-3542.7039L13780.4034,-3542.6752L13780.4096,-3542.6555L13780.4131,-3542.6386L13780.4144,-3542.6206L13780.4096,-3542.5998L13780.4028,-3542.5829L13780.389,-3542.5626L13780.3738,-3542.5474L13780.3621,-3542.5384L13780.3484,-3542.5282L13780.3178,-3542.5119L13780.2438,-3542.4724L13780.163,-3542.4291L13780.1615,-3542.4285L13780.1172,-3542.4154L13780.0938,-3542.4086L13780.027,-3542.3842L13780.0052,-3542.3751L13779.9811,-3542.3559L13779.9653,-3542.3396L13779.9529,-3542.3227L13779.9261,-3542.2811L13779.9068,-3542.2591L13779.8838,-3542.2376L13779.8676,-3542.2276L13779.8414,-3542.2152L13779.8353,-3542.2125L13779.816,-3542.2062L13779.8016,-3542.2017L13779.7871,-3542.1943L13779.7651,-3542.1808L13779.7459,-3542.1645L13779.6908,-3542.0981L13779.6763,-3542.0787L13779.6496,-3542.0378L13779.6211,-3541.9922"/>
<path content="3,飯田市,乗合タクシー三穂線,2.0,1.0,0.0," xlink:title="3" d="M13778.6517,-3542.7268L13778.6494,-3542.7968L13778.5985,-3542.8982L13778.5467,-3543.0092"/>
<path content="3,飯田市,乗合タクシー三穂線,2.0,1.0,0.0," xlink:title="3" d="M13778.799,-3542.9034L13778.7986,-3542.9077L13778.7869,-3542.9308L13778.7766,-3542.9471L13778.7374,-3542.9471L13778.7202,-3542.9438L13778.7058,-3543.0012L13778.6693,-3543.0029L13778.6392,-3543.0432"/>
<path content="3,飯田市,乗合タクシー三穂線,2.0,1.0,0.0," xlink:title="3" d="M13778.3776,-3542.9443L13778.4029,-3542.8883"/>
<path content="3,飯田市,乗合タクシー三穂線,2.0,1.0,0.0," xlink:title="3" d="M13778.3776,-3542.9443L13778.3604,-3542.9347L13778.3446,-3542.9471L13778.291,-3542.9928L13778.2923,-3543.0153L13778.2876,-3543.0153L13778.2717,-3543.0153L13778.2311,-3543.0068L13778.2078,-3543.0006L13778.1906,-3542.9944L13778.15,-3542.9736L13778.0826,-3542.9494L13778.0433,-3542.9404"/>
<path content="3,飯田市,乗合タクシー三穂線,2.0,1.0,0.0," xlink:title="3" d="M13778.4265,-3542.9646L13778.3935,-3542.9522L13778.3776,-3542.9443"/>
<path content="3,飯田市,乗合タクシー三穂線,2.0,1.0,0.0," xlink:title="3" d="M13778.4265,-3542.9646L13778.3847,-3543.0551"/>
<path content="3,飯田市,乗合タクシー三穂線,2.0,1.0,0.0," xlink:title="3" d="M13778.5373,-3543.0057L13778.4479,-3542.9733L13778.4265,-3542.9646"/>
<path content="3,飯田市,乗合タクシー三穂線,2.0,1.0,0.0," xlink:title="3" d="M13778.5373,-3543.0057L13778.5338,-3543.0147L13778.5311,-3543.0215L13778.5276,-3543.0406L13778.5242,-3543.0524L13778.5118,-3543.0755L13778.4899,-3543.1157"/>
<path content="3,飯田市,乗合タクシー三穂線,2.0,1.0,0.0," xlink:title="3" d="M13778.5467,-3543.0092L13778.5373,-3543.0057"/>
<path content="3,飯田市,乗合タクシー三穂線,2.0,1.0,0.0," xlink:title="3" d="M13778.6392,-3543.0432L13778.5467,-3543.0092"/>
<path content="3,飯田市,乗合タクシー三穂線,2.0,1.0,0.0," xlink:title="3" d="M13778.9699,-3543.5581L13778.9623,-3543.5547L13778.9362,-3543.5333L13778.9224,-3543.5254L13778.9069,-3543.5213L13778.8866,-3543.5198L13778.8612,-3543.5204L13778.8282,-3543.5243L13778.8144,-3543.5311L13778.7977,-3543.55L13778.7807,-3543.5547L13778.7738,-3543.5586L13778.7546,-3543.5676L13778.7429,-3543.571L13778.7278,-3543.5733L13778.7113,-3543.5699L13778.692,-3543.562L13778.6817,-3543.5547L13778.6713,-3543.5423L13778.6658,-3543.5367L13778.639,-3543.499L13778.595,-3543.4428L13778.5935,-3543.4321L13778.6012,-3543.4134L13778.6088,-3543.401L13778.6158,-3543.3958L13778.6225,-3543.3886L13778.6597,-3543.3396L13778.6679,-3543.3261L13778.6831,-3543.2912L13778.6961,-3543.2664L13778.7284,-3543.2253L13778.7388,-3543.2101L13778.7415,-3543.2011L13778.7415,-3543.1831L13778.736,-3543.1679L13778.7181,-3543.1256L13778.6954,-3543.0857L13778.6824,-3543.0688L13778.6721,-3543.0586L13778.659,-3543.0502L13778.6517,-3543.0476L13778.6392,-3543.0432"/>
<path content="3,飯田市,乗合タクシー三穂線,2.0,1.0,0.0," xlink:title="3" d="M13778.9699,-3543.5581L13778.9238,-3543.5795L13778.9004,-3543.5964L13778.8861,-3543.6141L13778.8731,-3543.6506L13778.8575,-3543.6844L13778.8419,-3543.7079L13778.8227,-3543.7343L13778.8087,-3543.7538L13778.7931,-3543.7535L13778.7821,-3543.7586L13778.7704,-3543.7681L13778.7594,-3543.7805L13778.7401,-3543.7974L13778.7058,-3543.7974L13778.6576,-3543.7934L13778.5709,-3543.7901L13778.5626,-3543.7872L13778.5571,-3543.7811L13778.5434,-3543.7602L13778.5283,-3543.7445L13778.4939,-3543.7152L13778.4801,-3543.7006L13778.4753,-3543.6904L13778.4733,-3543.6791L13778.4721,-3543.6681"/>
<path content="3,飯田市,乗合タクシー三穂線,2.0,1.0,0.0," xlink:title="3" d="M13780.0772,-3543.734L13780.0636,-3543.7766L13780.0581,-3543.8109L13780.0539,-3543.8272L13780.0471,-3543.8436L13780.0409,-3543.8537L13780.0223,-3543.8717L13779.9246,-3543.9562L13779.9026,-3543.9799L13779.8923,-3543.995L13779.8779,-3544.0249L13779.8744,-3544.0378L13779.8627,-3544.0925L13779.8455,-3544.164L13779.8421,-3544.1848L13779.8455,-3544.209L13779.8496,-3544.2231L13779.8489,-3544.2456L13779.8441,-3544.2552L13779.829,-3544.2766L13779.8228,-3544.2839"/>
<path content="3,飯田市,乗合タクシー三穂線,2.0,1.0,0.0," xlink:title="3" d="M13779.1977,-3543.8697L13779.1852,-3543.8402L13779.1646,-3543.7895L13779.1549,-3543.7732L13779.1405,-3543.7546L13779.1013,-3543.7112L13779.0559,-3543.6724L13779.0359,-3543.6532L13778.996,-3543.6132L13778.9864,-3543.5986L13778.9782,-3543.5796L13778.9754,-3543.5654L13778.9699,-3543.5581"/>
<path content="3,飯田市,乗合タクシー三穂線,2.0,1.0,0.0," xlink:title="3" d="M13779.1977,-3543.8697L13779.0773,-3543.8803"/>
<path content="3,飯田市,乗合タクシー三穂線,2.0,1.0,0.0," xlink:title="3" d="M13779.2869,-3544.0076L13779.2836,-3543.9896L13779.2698,-3543.9618L13779.2567,-3543.9455L13779.2182,-3543.9038L13779.1977,-3543.8697"/>
<path content="3,飯田市,乗合タクシー三穂線,2.0,1.0,0.0," xlink:title="3" d="M13778.6534,-3544.0332L13778.6631,-3544.0384L13778.6727,-3544.0429L13778.7009,-3544.053L13778.7362,-3544.0627L13778.769,-3544.0693L13778.8481,-3544.0699L13778.8639,-3544.0688L13778.8743,-3544.0671L13778.8825,-3544.062L13778.9052,-3544.0423L13778.9217,-3544.0305L13778.9279,-3544.0277L13778.9368,-3544.026L13778.9513,-3544.026L13778.9692,-3544.0305L13779.0352,-3544.0604L13779.0483,-3544.066L13779.0586,-3544.0688L13779.0744,-3544.0677L13779.0896,-3544.0581L13779.1102,-3544.0412L13779.1246,-3544.0254L13779.1329,-3544.0181L13779.1405,-3544.0131L13779.1749,-3543.9866L13779.1858,-3543.981L13779.2037,-3543.9815L13779.223,-3543.9855L13779.2869,-3544.0076"/>
<path content="3,飯田市,乗合タクシー三穂線,2.0,1.0,0.0," xlink:title="3" d="M13779.8228,-3544.2839L13779.8077,-3544.2681L13779.7864,-3544.2422L13779.7761,-3544.2293L13779.7609,-3544.218L13779.7513,-3544.2152L13779.7327,-3544.2118L13779.7128,-3544.2073L13779.6729,-3544.2017L13779.6384,-3544.1955L13779.5938,-3544.1854L13779.58,-3544.1842L13779.5573,-3544.1809L13779.5423,-3544.1775L13779.5346,-3544.1741L13779.4933,-3544.1533L13779.4493,-3544.1268L13779.4266,-3544.1122L13779.4039,-3544.0942L13779.3688,-3544.0632L13779.3186,-3544.0277L13779.2869,-3544.0076"/>
<path content="3,飯田市,乗合タクシー三穂線,2.0,1.0,0.0," xlink:title="3" d="M13779.8228,-3544.2839L13779.8888,-3544.3278L13779.9012,-3544.3374L13779.9336,-3544.3092L13779.9418,-3544.2997L13779.9466,-3544.2895L13779.9549,-3544.2619L13779.9659,-3544.2383L13779.9714,-3544.2203L13779.9769,-3544.1809L13779.9796,-3544.1707L13779.9893,-3544.1493L13780.0481,-3544.0727"/>
<path content="3,飯田市,乗合タクシー三穂線,2.0,1.0,0.0," xlink:title="3" d="M13779.0611,-3544.2889L13779.0964,-3544.2946L13779.1184,-3544.2946L13779.137,-3544.2895L13779.1487,-3544.285L13779.1755,-3544.2766L13779.1962,-3544.2766L13779.2072,-3544.2805L13779.2374,-3544.2991L13779.2594,-3544.3064L13779.2773,-3544.3149L13779.2815,-3544.3199L13779.2883,-3544.3318L13779.3317,-3544.3154L13779.3674,-3544.3036L13779.3723,-3544.301L13779.3736,-3544.2974L13779.3496,-3544.2867L13779.3179,-3544.2771L13779.2918,-3544.267L13779.2753,-3544.2563L13779.2608,-3544.2355L13779.234,-3544.2135L13779.2244,-3544.2006L13779.2182,-3544.1842L13779.2182,-3544.1651L13779.2209,-3544.1555L13779.2244,-3544.1482L13779.2491,-3544.0964L13779.2649,-3544.0474L13779.2732,-3544.0294L13779.2869,-3544.0076"/>
<path content="3,飯田市,乗合タクシー三穂線,2.0,1.0,0.0," xlink:title="3" d="M13779.6468,-3544.397L13779.6453,-3544.4466L13779.6364,-3544.4624L13779.7107,-3544.4838L13779.7389,-3544.4624"/>
<path content="3,飯田市,乗合タクシー三穂線,2.0,1.0,0.0," xlink:title="3" d="M13779.7389,-3544.4624L13779.7726,-3544.3869L13779.8029,-3544.3171L13779.8159,-3544.2935L13779.8228,-3544.2839"/>
<path content="3,飯田市,乗合タクシー三穂線,2.0,1.0,0.0," xlink:title="3" d="M13779.3653,-3544.5723L13779.416,-3544.5711L13779.449,-3544.5884L13779.4795,-3544.5894L13779.5177,-3544.5894L13779.5306,-3544.5943L13779.5694,-3544.6144L13779.5788,-3544.6131L13779.5841,-3544.6088L13779.6942,-3544.6387"/>
<path content="3,飯田市,乗合タクシー三穂線,2.0,1.0,0.0," xlink:title="3" d="M13779.6942,-3544.6387L13779.6969,-3544.6285L13779.7059,-3544.5711L13779.7176,-3544.5238L13779.7265,-3544.4939L13779.7389,-3544.4624"/>
<path content="3,飯田市,乗合タクシー三穂線,2.0,1.0,0.0," xlink:title="3" d="M13778.5692,-3544.8359L13778.6032,-3544.861L13778.6204,-3544.8757L13778.6259,-3544.8847L13778.6245,-3544.9078L13778.6293,-3544.9174L13778.6321,-3544.9281L13778.6321,-3544.9477L13778.6293,-3544.9584L13778.6266,-3544.9669L13778.6231,-3544.9719L13778.6128,-3544.9815L13778.5991,-3544.9866L13778.5825,-3544.9917L13778.553,-3544.9979L13778.5379,-3545.0035L13778.5186,-3545.0142L13778.5089,-3545.0215L13778.5069,-3545.0254L13778.5069,-3545.0367L13778.5502,-3545.0542L13778.5667,-3545.0587L13778.5894,-3545.0609L13778.6211,-3545.0649L13778.6293,-3545.0671L13778.6513,-3545.0761L13778.6692,-3545.0879L13778.7133,-3545.1234L13778.7208,-3545.133L13778.7325,-3545.1617L13778.7391,-3545.1734L13778.7772,-3545.2034L13778.7971,-3545.218L13778.804,-3545.2208L13778.8171,-3545.2236L13778.8288,-3545.2226L13778.8598,-3545.2135L13778.8948,-3545.2056L13778.9079,-3545.2079L13778.9244,-3545.2332L13778.9237,-3545.2484L13778.9182,-3545.2681L13778.9182,-3545.2907L13778.9237,-3545.3047L13778.9409,-3545.3272L13778.9705,-3545.3762L13778.9867,-3545.3895L13779.0033,-3545.3908L13779.0358,-3545.3847L13779.0606,-3545.3999L13779.0744,-3545.4089L13779.0881,-3545.4146L13779.0978,-3545.4174L13779.1067,-3545.4185L13779.1253,-3545.4179L13779.1377,-3545.4123L13779.1604,-3545.3937L13779.1686,-3545.3926L13779.1872,-3545.3988L13779.2078,-3545.4157L13779.2271,-3545.4365L13779.236,-3545.4506L13779.2374,-3545.4596L13779.2305,-3545.4737L13779.2216,-3545.4861L13779.322,-3545.5227L13779.3392,-3545.5277L13779.3585,-3545.5266L13779.3736,-3545.5221L13779.3874,-3545.5137L13779.4107,-3545.5001"/>
<path content="3,飯田市,乗合タクシー三穂線,2.0,1.0,0.0," xlink:title="3" d="M13779.4107,-3545.5001L13779.4213,-3545.469L13779.4245,-3545.4596L13779.4291,-3545.447L13779.4348,-3545.4303L13779.4431,-3545.4162L13779.4678,-3545.3886L13779.4836,-3545.3628L13779.4933,-3545.3391L13779.507,-3545.3053L13779.5327,-3545.2433L13779.5579,-3545.1893L13779.5634,-3545.1736L13779.5738,-3545.1494L13779.602,-3545.0441L13779.6047,-3545.0255L13779.615,-3544.9742L13779.6157,-3544.9596L13779.6264,-3544.9018L13779.6316,-3544.8481L13779.6371,-3544.816L13779.6405,-3544.7648L13779.6426,-3544.7524L13779.6488,-3544.7293L13779.655,-3544.7141L13779.6732,-3544.6845L13779.6942,-3544.6387"/>
<path content="3,飯田市,乗合タクシー三穂線,2.0,1.0,0.0," xlink:title="3" d="M13778.7148,-3545.8679L13778.7276,-3545.8774L13778.7421,-3545.8926L13778.7421,-3545.8977L13778.7338,-3545.9191L13778.7338,-3545.9286L13778.7386,-3545.9387L13778.7497,-3545.9472L13778.7545,-3545.95L13778.7682,-3545.9545L13778.7854,-3545.9556L13778.7896,-3545.9641L13778.7914,-3545.9732L13778.7958,-3545.9872L13778.7951,-3546.0012L13778.7889,-3546.0108L13778.7841,-3546.0294L13778.7834,-3546.0351L13778.7793,-3546.0401L13778.7731,-3546.0435L13778.7552,-3546.0435L13778.7194,-3546.0384L13778.6988,-3546.0384L13778.6905,-3546.0457L13778.6774,-3546.0654L13778.6744,-3546.0775L13778.6754,-3546.0829L13778.6816,-3546.0902L13778.729,-3546.1206L13778.7373,-3546.128L13778.7421,-3546.1353L13778.7421,-3546.1432L13778.7269,-3546.1674L13778.7228,-3546.1752L13778.7221,-3546.1848L13778.7297,-3546.1932L13778.7435,-3546.2034L13778.7841,-3546.2265L13778.7944,-3546.2304L13778.8095,-3546.2299L13778.815,-3546.2214L13778.8129,-3546.2152L13778.7958,-3546.2028L13778.7909,-3546.1977L13778.7848,-3546.1826L13778.7841,-3546.1685L13778.793,-3546.1651L13778.8136,-3546.1601L13778.8418,-3546.1556L13778.8504,-3546.149L13778.8525,-3546.1323L13778.858,-3546.1222L13778.8687,-3546.1223L13778.879,-3546.1302L13778.8817,-3546.1364L13778.8838,-3546.1595L13778.8893,-3546.1831L13778.8969,-3546.1972L13778.9127,-3546.2141L13778.9271,-3546.2229L13778.9732,-3546.249L13778.987,-3546.2586L13779.0049,-3546.2794L13779.0166,-3546.2907L13779.0787,-3546.3334"/>
<path content="3,飯田市,乗合タクシー三穂線,2.0,1.0,0.0," xlink:title="3" d="M13779.1589,-3546.142L13779.1589,-3546.1268L13779.1699,-3546.1077L13779.2029,-3546.0773L13779.2181,-3546.0576L13779.225,-3546.0435L13779.2346,-3546.0148L13779.2422,-3545.9782L13779.2518,-3545.9686L13779.2807,-3545.9472L13779.2883,-3545.9376L13779.2903,-3545.9292L13779.2903,-3545.9134L13779.2546,-3545.8526L13779.1989,-3545.7704L13779.2002,-3545.7485L13779.2106,-3545.7293L13779.2897,-3545.6347L13779.3014,-3545.6246L13779.3653,-3545.5835L13779.3818,-3545.5705L13779.3908,-3545.5593L13779.4004,-3545.5351L13779.4107,-3545.5001"/>
<path content="3,飯田市,乗合タクシー三穂線,2.0,1.0,0.0," xlink:title="3" d="M13779.0787,-3546.3334L13779.0908,-3546.3245L13779.1218,-3546.298L13779.1335,-3546.2862L13779.143,-3546.2754L13779.1479,-3546.2648L13779.1562,-3546.2479L13779.1631,-3546.2248L13779.1651,-3546.2124L13779.1644,-3546.1848L13779.1589,-3546.142"/>
<path content="3,飯田市,乗合タクシー三穂線,2.0,1.0,0.0," xlink:title="3" d="M13779.3087,-3546.3371L13779.3034,-3546.3335L13779.2999,-3546.3312L13779.2738,-3546.3042L13779.2573,-3546.293L13779.2328,-3546.2838L13779.2243,-3546.2806L13779.214,-3546.2716L13779.2119,-3546.2671L13779.2133,-3546.2581L13779.216,-3546.2496L13779.2153,-3546.2361L13779.1968,-3546.1865L13779.1772,-3546.1476L13779.1589,-3546.142"/>
<path content="3,飯田市,乗合タクシー三穂線,2.0,1.0,0.0," xlink:title="3" d="M13779.0539,-3546.3867L13779.0571,-3546.3808L13779.064,-3546.3537L13779.0681,-3546.3464L13779.0787,-3546.3334"/>
<path content="3,飯田市,乗合タクシー川路線,1.0,0.0,0.0," xlink:title="3" d="M13780.3607,-3542.7539L13780.3876,-3542.7039L13780.3456,-3542.7231L13780.336,-3542.7259L13780.3181,-3542.7253L13780.3037,-3542.7219L13780.2892,-3542.7124L13780.2858,-3542.7073L13780.2872,-3542.7006L13780.2927,-3542.6938L13780.325,-3542.6735L13780.3284,-3542.6696L13780.3312,-3542.66L13780.3305,-3542.6482L13780.3229,-3542.6347L13780.2948,-3542.6076L13780.2748,-3542.593L13780.2686,-3542.5891L13780.259,-3542.5896L13780.2411,-3542.5941L13780.2218,-3542.6003L13780.1909,-3542.6121L13780.1778,-3542.624L13780.1634,-3542.6431L13780.1572,-3542.6476L13780.1462,-3542.6516L13780.1063,-3542.6521L13780.0691,-3542.6589L13780.0477,-3542.6599"/>
<path content="3,飯田市,乗合タクシー川路線,1.0,0.0,0.0," xlink:title="3" d="M13780.3607,-3542.7539L13780.3773,-3542.7484L13780.4138,-3542.736L13780.4227,-3542.7332L13780.4385,-3542.731L13780.5231,-3542.7304L13780.5321,-3542.7287L13780.5396,-3542.7264L13780.5554,-3542.7219L13780.5657,-3542.7174L13780.6256,-3542.6797L13780.6621,-3542.6594L13780.6765,-3542.6538L13780.693,-3542.6499L13780.7123,-3542.6487L13780.7322,-3542.6499L13780.748,-3542.6538L13780.7707,-3542.6617L13780.8106,-3542.6814L13780.8402,-3542.6989L13780.8697,-3542.7174"/>
<path content="3,飯田市,乗合タクシー川路線,1.0,0.0,0.0," xlink:title="3" d="M13780.3195,-3542.8273L13780.3607,-3542.7539"/>
<path content="3,飯田市,乗合タクシー川路線,1.0,0.0,0.0," xlink:title="3" d="M13780.6128,-3542.843L13780.5795,-3542.861L13780.5678,-3542.8644L13780.5204,-3542.87L13780.4976,-3542.8689L13780.4591,-3542.8576L13780.4275,-3542.8458L13780.3663,-3542.8317L13780.3339,-3542.8261L13780.3195,-3542.8273"/>
<path content="3,飯田市,乗合タクシー川路線,1.0,0.0,0.0," xlink:title="3" d="M13781.0981,-3543.7879L13781.0947,-3543.7648L13781.0878,-3543.74L13781.0798,-3543.7192L13781.0679,-3543.6961L13781.0576,-3543.6798L13781.0459,-3543.6646L13781.0218,-3543.6403L13780.9977,-3543.6223L13780.9647,-3543.5998L13780.9357,-3543.5821L13780.855,-3543.5412L13780.8161,-3543.521L13780.7831,-3543.5012L13780.7604,-3543.4874L13780.7432,-3543.4641L13780.7391,-3543.4528L13780.7345,-3543.3932L13780.7291,-3543.359L13780.7239,-3543.3269L13780.7177,-3543.314L13780.6961,-3543.2774L13780.6235,-3543.2372L13780.5699,-3543.2051L13780.5173,-3543.1715L13780.4674,-3543.1397L13780.4117,-3543.0958L13780.3559,-3543.0469L13780.3058,-3542.9973L13780.2908,-3542.9693L13780.2844,-3542.9303L13780.2865,-3542.9134L13780.2982,-3542.879L13780.3134,-3542.8425L13780.3195,-3542.8273"/>
<path content="3,飯田市,乗合タクシー川路線,1.0,0.0,0.0," xlink:title="3" d="M13781.25,-3543.8352L13781.169,-3543.8087L13781.0981,-3543.7879"/>
<path content="3,飯田市,乗合タクシー川路線,1.0,0.0,0.0," xlink:title="3" d="M13781.0853,-3544.0535L13781.0702,-3544.0403L13781.0598,-3544.0325L13781.019,-3543.9943L13781.0108,-3543.981L13781.0108,-3543.9607L13781.0135,-3543.9501L13781.0245,-3543.932L13781.0672,-3543.896L13781.0858,-3543.8774L13781.0954,-3543.8605L13781.1009,-3543.8481L13781.1036,-3543.8391L13781.103,-3543.8285L13781.1036,-3543.8104L13781.0981,-3543.7879"/>
<path content="3,飯田市,乗合タクシー川路線,1.0,0.0,0.0," xlink:title="3" d="M13780.951,-3544.0744L13781.0101,-3544.0725L13781.0667,-3544.0638L13781.0853,-3544.0535"/>
<path content="3,飯田市,乗合タクシー川路線,1.0,0.0,0.0," xlink:title="3" d="M13781.25,-3544.2064L13781.2278,-3544.1852L13781.1003,-3544.0666L13781.0853,-3544.0535"/>
<path content="3,飯田市,乗合タクシー川路線,1.0,0.0,0.0," xlink:title="3" d="M13781.2027,-3544.5253L13781.25,-3544.3943"/>
<path content="3,飯田市,乗合タクシー川路線,1.0,0.0,0.0," xlink:title="3" d="M13781.25,-3544.5438L13781.2477,-3544.5409L13781.2377,-3544.5342L13781.2027,-3544.5253"/>
<path content="3,飯田市,乗合タクシー川路線,1.0,0.0,0.0," xlink:title="3" d="M13781.1353,-3544.7132L13781.1544,-3544.6465L13781.2027,-3544.5253"/>
<path content="3,飯田市,乗合タクシー川路線,1.0,0.0,0.0," xlink:title="3" d="M13781.1353,-3544.7132L13781.1531,-3544.7153L13781.1731,-3544.7124L13781.202,-3544.7113L13781.2233,-3544.7136L13781.2384,-3544.7141L13781.2439,-3544.7198L13781.25,-3544.7235M13781.25,-3545.234L13781.2281,-3545.2378L13781.2247,-3545.2384L13781.1747,-3545.2451L13781.1504,-3545.28"/>
<path content="3,飯田市,乗合タクシー川路線,1.0,0.0,0.0," xlink:title="3" d="M13781.1001,-3545.1471L13781.0946,-3545.1145L13781.0912,-3545.0466L13781.0906,-3545.0339L13781.0896,-3545.0141L13781.0889,-3545.0009L13781.0885,-3544.9872L13781.0878,-3544.9624L13781.0886,-3544.9438L13781.0899,-3544.9236L13781.094,-3544.887L13781.1002,-3544.8127L13781.1023,-3544.7958L13781.1285,-3544.7308L13781.1353,-3544.7132"/>
<path content="3,飯田市,乗合タクシー川路線,1.0,0.0,0.0," xlink:title="3" d="M13781.1001,-3545.1471L13781.0685,-3545.1466L13781.0561,-3545.1409L13781.0451,-3545.1347L13781.0135,-3545.1443L13780.9949,-3545.1516L13780.9722,-3545.1629L13780.8247,-3545.255"/>
<path content="3,飯田市,乗合タクシー川路線,1.0,0.0,0.0," xlink:title="3" d="M13781.1504,-3545.28L13781.1351,-3545.2515L13781.127,-3545.2175L13781.1001,-3545.1471"/>
<path content="3,飯田市,乗合タクシー川路線,1.0,0.0,0.0," xlink:title="3" d="M13781.1621,-3545.3503L13781.16,-3545.3104L13781.1579,-3545.2997L13781.1504,-3545.28"/>
<path content="3,飯田市,乗合タクシー川路線,1.0,0.0,0.0," xlink:title="3" d="M13781.1621,-3545.3503L13781.178,-3545.358L13781.1839,-3545.3651L13781.1944,-3545.3983L13781.1958,-3545.4062L13781.2047,-3545.4152L13781.213,-3545.418L13781.2247,-3545.4197L13781.2446,-3545.4219L13781.25,-3545.4236"/>
<path content="3,飯田市,乗合タクシー川路線,1.0,0.0,0.0," xlink:title="3" d="M13781.1342,-3546.1752L13781.1274,-3546.1679L13781.1109,-3546.1408L13781.103,-3546.1251L13781.0898,-3546.0914L13781.085,-3546.0661L13781.085,-3546.0419L13781.085,-3546.0368L13781.0898,-3546.0193L13781.1008,-3545.9979L13781.1213,-3545.9704L13781.1613,-3545.9221L13781.1779,-3545.8977L13781.1861,-3545.8814L13781.1889,-3545.8712L13781.1909,-3545.8318L13781.1861,-3545.7644L13781.178,-3545.6124L13781.1779,-3545.592L13781.1772,-3545.5711L13781.1761,-3545.5601L13781.1735,-3545.5298L13781.1696,-3545.4546L13781.1621,-3545.3503"/>
<path content="3,飯田市,乗合タクシー川路線,1.0,0.0,0.0," xlink:title="3" d="M13781.1342,-3546.1752L13781.1221,-3546.177L13781.1139,-3546.1781L13781.1036,-3546.1838L13781.0946,-3546.1956L13781.0878,-3546.2108L13781.0809,-3546.2141L13781.0705,-3546.2164L13781.0134,-3546.2181L13781.0073,-3546.2198L13780.9846,-3546.2209L13780.9639,-3546.2243L13780.9467,-3546.2322L13780.9151,-3546.2496L13780.8999,-3546.2575L13780.8911,-3546.2628"/>
<path content="3,飯田市,乗合タクシー川路線,1.0,0.0,0.0," xlink:title="3" d="M13781.25,-3546.2427L13781.2191,-3546.2344L13781.1847,-3546.217L13781.1579,-3546.1984L13781.1342,-3546.1752"/>
<path content="3,飯田市,乗合タクシー川路線,1.0,0.0,0.0," xlink:title="3" d="M13781.1887,-3546.3674L13781.1971,-3546.3673L13781.2102,-3546.3656L13781.2233,-3546.3628L13781.2469,-3546.3547L13781.25,-3546.3529"/>
<path content="3,飯田市,市民バス三穂線,1.0,0.0,0.0," xlink:title="3" d="M13779.0539,-3546.3867L13779.0571,-3546.3808L13779.064,-3546.3537L13779.0681,-3546.3464L13779.0787,-3546.3334L13779.0908,-3546.3245L13779.1218,-3546.298L13779.1335,-3546.2862L13779.143,-3546.2754L13779.1479,-3546.2648L13779.1562,-3546.2479L13779.1631,-3546.2248L13779.1651,-3546.2124L13779.1644,-3546.1848L13779.1589,-3546.142L13779.1589,-3546.1268L13779.1699,-3546.1077L13779.2029,-3546.0773L13779.2181,-3546.0576L13779.225,-3546.0435L13779.2346,-3546.0148L13779.2422,-3545.9782L13779.2518,-3545.9686L13779.2807,-3545.9472L13779.2883,-3545.9376L13779.2903,-3545.9292L13779.2903,-3545.9134L13779.2546,-3545.8526L13779.1989,-3545.7704L13779.2002,-3545.7485L13779.2106,-3545.7293L13779.2897,-3545.6347L13779.3014,-3545.6246L13779.3653,-3545.5835L13779.3818,-3545.5705L13779.3908,-3545.5593L13779.4004,-3545.5351L13779.4107,-3545.5001L13779.4213,-3545.469L13779.4245,-3545.4596L13779.4291,-3545.447L13779.4348,-3545.4303L13779.4431,-3545.4162L13779.4678,-3545.3886L13779.4836,-3545.3628L13779.4933,-3545.3391L13779.507,-3545.3053L13779.5327,-3545.2433L13779.5579,-3545.1893L13779.5634,-3545.1736L13779.5738,-3545.1494L13779.602,-3545.0441L13779.6047,-3545.0255L13779.615,-3544.9742L13779.6157,-3544.9596L13779.6264,-3544.9018L13779.6316,-3544.8481L13779.6371,-3544.816L13779.6405,-3544.7648L13779.6426,-3544.7524L13779.6488,-3544.7293L13779.655,-3544.7141L13779.6732,-3544.6845L13779.6942,-3544.6387L13779.6969,-3544.6285L13779.7059,-3544.5711L13779.7176,-3544.5238L13779.7265,-3544.4939L13779.7389,-3544.4624L13779.7726,-3544.3869L13779.8029,-3544.3171L13779.8159,-3544.2935L13779.8228,-3544.2839L13779.8077,-3544.2681L13779.7864,-3544.2422L13779.7761,-3544.2293L13779.7609,-3544.218L13779.7513,-3544.2152L13779.7327,-3544.2118L13779.7128,-3544.2073L13779.6729,-3544.2017L13779.6384,-3544.1955L13779.5938,-3544.1854L13779.58,-3544.1842L13779.5573,-3544.1809L13779.5423,-3544.1775L13779.5346,-3544.1741L13779.4933,-3544.1533L13779.4493,-3544.1268L13779.4266,-3544.1122L13779.4039,-3544.0942L13779.3688,-3544.0632L13779.3186,-3544.0277L13779.2869,-3544.0076L13779.2836,-3543.9896L13779.2698,-3543.9618L13779.2567,-3543.9455L13779.2182,-3543.9038L13779.1977,-3543.8697L13779.1852,-3543.8402L13779.1646,-3543.7895L13779.1549,-3543.7732L13779.1405,-3543.7546L13779.1013,-3543.7112L13779.0559,-3543.6724L13779.0359,-3543.6532L13778.996,-3543.6132L13778.9864,-3543.5986L13778.9782,-3543.5796L13778.9754,-3543.5654L13778.9699,-3543.5581L13778.9623,-3543.5547L13778.9362,-3543.5333L13778.9224,-3543.5254L13778.9069,-3543.5213L13778.8866,-3543.5198L13778.8612,-3543.5204L13778.8282,-3543.5243L13778.8144,-3543.5311L13778.7977,-3543.55L13778.7807,-3543.5547L13778.7738,-3543.5586L13778.7546,-3543.5676L13778.7429,-3543.571L13778.7278,-3543.5733L13778.7113,-3543.5699L13778.692,-3543.562L13778.6817,-3543.5547L13778.6713,-3543.5423L13778.6658,-3543.5367L13778.639,-3543.499L13778.595,-3543.4428L13778.5935,-3543.4321L13778.6012,-3543.4134L13778.6088,-3543.401L13778.6158,-3543.3958L13778.6225,-3543.3886L13778.6597,-3543.3396L13778.6679,-3543.3261L13778.6831,-3543.2912L13778.6961,-3543.2664L13778.7284,-3543.2253L13778.7388,-3543.2101L13778.7415,-3543.2011L13778.7415,-3543.1831L13778.736,-3543.1679L13778.7181,-3543.1256L13778.6954,-3543.0857L13778.6824,-3543.0688L13778.6721,-3543.0586L13778.659,-3543.0502L13778.6517,-3543.0476L13778.6392,-3543.0432L13778.5467,-3543.0092L13778.5373,-3543.0057L13778.4479,-3542.9733L13778.4265,-3542.9646L13778.3935,-3542.9522L13778.3776,-3542.9443L13778.4029,-3542.8883"/>
</g>
</svg>
