<?xml version="1.0" encoding="UTF-8"?>
<svg  xmlns="http://www.w3.org/2000/svg" xmlns:xlink="http://www.w3.org/1999/xlink" xmlns:go="http://purl.org/svgmap/profile" property="N07_001,N07_002,N07_003,N07_004,N07_005,N07_006,N07_007" viewBox="13907.5927734375 -3536.4990234375 0.54931640625 0.54931640625" go:dataArea="13907.5927734375 -3536.4990234375 0.54931640625 0.54931640625" >
<metadata>
 <rdf:RDF xmlns:rdf="http://www.w3.org/1999/02/22-rdf-syntax-ns#" xmlns:crs="http://opengis.org/xmldtds/transformations.dtd" xmlns:svg="http://www.w3.org/svg" >
  <rdf:Description>
   <crs:CoordinateReferenceSystem rdf:resource="http://purl.org/crs/84" svg:transform="matrix(100.0,0.0,0.0,-100.0,0.0,0.0)" />
  </rdf:Description>
 </rdf:RDF>
</metadata>
<globalCoordinateSystem srsName="http://purl.org/crs/84" transform="matrix(100.0,0.0,0.0,-100.0,0.0,0.0)" />
<defs>
 <g id="p0" >
  <circle cx="0.0" cy="0.0" r="3" stroke="green" stroke-width="0.75" vector-effect="non-scaling-stroke" />
 </g>
</defs>
<g fill="none" fill-rule="evenodd" stroke="#FF00FF" stroke-width="0.75" opacity="0.5" vector-effect="non-scaling-stroke" stroke-linejoin="bevel" >
<path content="1,JRバステック（株）,名古屋系統（特急）,1.0,1.0,1.0," xlink:title="1" d="M13908.1421,-3536.4698L13908.1117,-3536.4671L13908.0839,-3536.464L13908.0661,-3536.4612L13908.0563,-3536.4596L13908.0272,-3536.4547L13908.0103,-3536.4514L13907.9886,-3536.4462L13907.9791,-3536.4438L13907.9645,-3536.4401L13907.9424,-3536.4329L13907.9328,-3536.4298L13907.9115,-3536.4224L13907.8786,-3536.41L13907.8583,-3536.4024L13907.8381,-3536.3948L13907.7659,-3536.3677L13907.7352,-3536.3562L13907.6905,-3536.3385L13907.6514,-3536.3267L13907.6025,-3536.3141L13907.5928,-3536.3126"/>
<path content="1,JRバステック（株）,名古屋系統（超特急）,3.0,3.0,3.0," xlink:title="1" d="M13908.1421,-3536.4698L13908.1117,-3536.4671L13908.0839,-3536.464L13908.0661,-3536.4612L13908.0563,-3536.4596L13908.0272,-3536.4547L13908.0103,-3536.4514L13907.9886,-3536.4462L13907.9791,-3536.4438L13907.9645,-3536.4401L13907.9424,-3536.4329L13907.9328,-3536.4298L13907.9115,-3536.4224L13907.8786,-3536.41L13907.8583,-3536.4024L13907.8381,-3536.3948L13907.7659,-3536.3677L13907.7352,-3536.3562L13907.6905,-3536.3385L13907.6514,-3536.3267L13907.6025,-3536.3141L13907.5928,-3536.3126"/>
<path content="1,JRバステック（株）,御殿場プレミアムアウトレット号新宿号,0.7,0.0,0.0," xlink:title="1" d="M13908.1421,-3536.4698L13908.1117,-3536.4671L13908.0839,-3536.464L13908.0661,-3536.4612L13908.0563,-3536.4596L13908.0272,-3536.4547L13908.0103,-3536.4514L13907.9886,-3536.4462L13907.9791,-3536.4438L13907.9645,-3536.4401L13907.9424,-3536.4329L13907.9328,-3536.4298L13907.9115,-3536.4224L13907.8786,-3536.41L13907.8583,-3536.4024L13907.8381,-3536.3948L13907.7659,-3536.3677L13907.7352,-3536.3562L13907.6905,-3536.3385L13907.6514,-3536.3267L13907.6025,-3536.3141L13907.5928,-3536.3126"/>
<path content="1,JRバステック（株）,御殿場プレミアムアウトレット号東京号,0.7,0.0,0.0," xlink:title="1" d="M13907.5928,-3536.3126L13907.6025,-3536.3141L13907.6514,-3536.3267L13907.6905,-3536.3385L13907.7352,-3536.3562L13907.7659,-3536.3677L13907.8381,-3536.3948L13907.8583,-3536.4024L13907.8786,-3536.41L13907.9115,-3536.4224L13907.9328,-3536.4298L13907.9424,-3536.4329L13907.9645,-3536.4401L13907.9791,-3536.4438L13907.9886,-3536.4462L13908.0103,-3536.4514L13908.0272,-3536.4547L13908.0563,-3536.4596L13908.0661,-3536.4612L13908.0839,-3536.464L13908.1117,-3536.4671L13908.1421,-3536.4698"/>
<path content="1,JRバス関東（株）,かぐや姫EXPRESS・ヤキソバEXPRESS,3.0,3.0,3.0," xlink:title="1" d="M13908.1421,-3536.4698L13908.1117,-3536.4671L13908.0839,-3536.464L13908.0661,-3536.4612L13908.0563,-3536.4596L13908.0272,-3536.4547L13908.0103,-3536.4514L13907.9886,-3536.4462L13907.9791,-3536.4438L13907.9645,-3536.4401L13907.9424,-3536.4329L13907.9328,-3536.4298L13907.9115,-3536.4224L13907.8786,-3536.41L13907.8583,-3536.4024L13907.8381,-3536.3948L13907.7659,-3536.3677L13907.7352,-3536.3562L13907.6905,-3536.3385L13907.6514,-3536.3267L13907.6025,-3536.3141L13907.5928,-3536.3126"/>
<path content="1,JRバス関東（株）,しみずライナー,3.1,4.0,3.5," xlink:title="1" d="M13908.1421,-3536.4698L13908.1117,-3536.4671L13908.0839,-3536.464L13908.0661,-3536.4612L13908.0563,-3536.4596L13908.0272,-3536.4547L13908.0103,-3536.4514L13907.9886,-3536.4462L13907.9791,-3536.4438L13907.9645,-3536.4401L13907.9424,-3536.4329L13907.9328,-3536.4298L13907.9115,-3536.4224L13907.8786,-3536.41L13907.8583,-3536.4024L13907.8381,-3536.3948L13907.7659,-3536.3677L13907.7352,-3536.3562L13907.6905,-3536.3385L13907.6514,-3536.3267L13907.6025,-3536.3141L13907.5928,-3536.3126"/>
<path content="1,JRバス関東（株）,ドリーム和歌山号,1.0,1.0,1.0," xlink:title="1" d="M13908.1421,-3536.4698L13908.1117,-3536.4671L13908.0839,-3536.464L13908.0661,-3536.4612L13908.0563,-3536.4596L13908.0272,-3536.4547L13908.0103,-3536.4514L13907.9886,-3536.4462L13907.9791,-3536.4438L13907.9645,-3536.4401L13907.9424,-3536.4329L13907.9328,-3536.4298L13907.9115,-3536.4224L13907.8786,-3536.41L13907.8583,-3536.4024L13907.8381,-3536.3948L13907.7659,-3536.3677L13907.7352,-3536.3562L13907.6905,-3536.3385L13907.6514,-3536.3267L13907.6025,-3536.3141L13907.5928,-3536.3126"/>
<path content="1,JRバス関東（株）,ドリーム福井号,2.0,2.0,2.0," xlink:title="1" d="M13907.5928,-3536.3126L13907.6025,-3536.3141L13907.6514,-3536.3267L13907.6905,-3536.3385L13907.7352,-3536.3562L13907.7659,-3536.3677L13907.8381,-3536.3948L13907.8583,-3536.4024L13907.8786,-3536.41L13907.9115,-3536.4224L13907.9328,-3536.4298L13907.9424,-3536.4329L13907.9645,-3536.4401L13907.9791,-3536.4438L13907.9886,-3536.4462L13908.0103,-3536.4514L13908.0272,-3536.4547L13908.0563,-3536.4596L13908.0661,-3536.4612L13908.0839,-3536.464L13908.1117,-3536.4671L13908.1421,-3536.4698"/>
<path content="1,JRバス関東（株）,ドリーム静岡・浜松号,2.0,2.0,2.0," xlink:title="1" d="M13907.5928,-3536.3126L13907.6025,-3536.3141L13907.6514,-3536.3267L13907.6905,-3536.3385L13907.7352,-3536.3562L13907.7659,-3536.3677L13907.8381,-3536.3948L13907.8583,-3536.4024L13907.8786,-3536.41L13907.9115,-3536.4224L13907.9328,-3536.4298L13907.9424,-3536.4329L13907.9645,-3536.4401L13907.9791,-3536.4438L13907.9886,-3536.4462L13908.0103,-3536.4514L13908.0272,-3536.4547L13908.0563,-3536.4596L13908.0661,-3536.4612L13908.0839,-3536.464L13908.1117,-3536.4671L13908.1421,-3536.4698"/>
<path content="1,JRバス関東（株）,ドリーム高松号/松山号/徳島号/高知号,4.0,4.0,4.0," xlink:title="1" d="M13907.5928,-3536.3126L13907.6025,-3536.3141L13907.6514,-3536.3267L13907.6905,-3536.3385L13907.7352,-3536.3562L13907.7659,-3536.3677L13907.8381,-3536.3948L13907.8583,-3536.4024L13907.8786,-3536.41L13907.9115,-3536.4224L13907.9328,-3536.4298L13907.9424,-3536.4329L13907.9645,-3536.4401L13907.9791,-3536.4438L13907.9886,-3536.4462L13908.0103,-3536.4514L13908.0272,-3536.4547L13908.0563,-3536.4596L13908.0661,-3536.4612L13908.0839,-3536.464L13908.1117,-3536.4671L13908.1421,-3536.4698"/>
<path content="1,JRバス関東（株）,プレミアム中央ドリーム号/中央ドリーム号/プレミアムドリーム号/ドリーム号/レディースドリーム号/プレミアムレディース,9.4,12.0,12.0," xlink:title="1" d="M13907.5928,-3536.3126L13907.6025,-3536.3141L13907.6514,-3536.3267L13907.6905,-3536.3385L13907.7352,-3536.3562L13907.7659,-3536.3677L13907.8381,-3536.3948L13907.8583,-3536.4024L13907.8786,-3536.41L13907.9115,-3536.4224L13907.9328,-3536.4298L13907.9424,-3536.4329L13907.9645,-3536.4401L13907.9791,-3536.4438L13907.9886,-3536.4462L13908.0103,-3536.4514L13908.0272,-3536.4547L13908.0563,-3536.4596L13908.0661,-3536.4612L13908.0839,-3536.464L13908.1117,-3536.4671L13908.1421,-3536.4698"/>
<path content="1,JRバス関東（株）,御殿場プレミアム・アウトレット号,2.0,3.0,3.0," xlink:title="1" d="M13908.1421,-3536.4698L13908.1117,-3536.4671L13908.0839,-3536.464L13908.0661,-3536.4612L13908.0563,-3536.4596L13908.0272,-3536.4547L13908.0103,-3536.4514L13907.9886,-3536.4462L13907.9791,-3536.4438L13907.9645,-3536.4401L13907.9424,-3536.4329L13907.9328,-3536.4298L13907.9115,-3536.4224L13907.8786,-3536.41L13907.8583,-3536.4024L13907.8381,-3536.3948L13907.7659,-3536.3677L13907.7352,-3536.3562L13907.6905,-3536.3385L13907.6514,-3536.3267L13907.6025,-3536.3141L13907.5928,-3536.3126"/>
<path content="1,JRバス関東（株）,新宿ドリーム三河・なごや号,1.0,1.0,1.0," xlink:title="1" d="M13908.1421,-3536.4698L13908.1117,-3536.4671L13908.0839,-3536.464L13908.0661,-3536.4612L13908.0563,-3536.4596L13908.0272,-3536.4547L13908.0103,-3536.4514L13907.9886,-3536.4462L13907.9791,-3536.4438L13907.9645,-3536.4401L13907.9424,-3536.4329L13907.9328,-3536.4298L13907.9115,-3536.4224L13907.8786,-3536.41L13907.8583,-3536.4024L13907.8381,-3536.3948L13907.7659,-3536.3677L13907.7352,-3536.3562L13907.6905,-3536.3385L13907.6514,-3536.3267L13907.6025,-3536.3141L13907.5928,-3536.3126"/>
<path content="1,JRバス関東（株）,新宿ライナー三河・なごや号,1.0,1.0,1.0," xlink:title="1" d="M13907.5928,-3536.3126L13907.6025,-3536.3141L13907.6514,-3536.3267L13907.6905,-3536.3385L13907.7352,-3536.3562L13907.7659,-3536.3677L13907.8381,-3536.3948L13907.8583,-3536.4024L13907.8786,-3536.41L13907.9115,-3536.4224L13907.9328,-3536.4298L13907.9424,-3536.4329L13907.9645,-3536.4401L13907.9791,-3536.4438L13907.9886,-3536.4462L13908.0103,-3536.4514L13908.0272,-3536.4547L13908.0563,-3536.4596L13908.0661,-3536.4612L13908.0839,-3536.464L13908.1117,-3536.4671L13908.1421,-3536.4698"/>
<path content="1,JRバス関東（株）,東京～山中湖畔・河口湖,4.0,5.0,5.0," xlink:title="1" d="M13908.1421,-3536.4698L13908.1117,-3536.4671L13908.0839,-3536.464L13908.0661,-3536.4612L13908.0563,-3536.4596L13908.0272,-3536.4547L13908.0103,-3536.4514L13907.9886,-3536.4462L13907.9791,-3536.4438L13907.9645,-3536.4401L13907.9424,-3536.4329L13907.9328,-3536.4298L13907.9115,-3536.4224L13907.8786,-3536.41L13907.8583,-3536.4024L13907.8381,-3536.3948L13907.7659,-3536.3677L13907.7352,-3536.3562L13907.6905,-3536.3385L13907.6514,-3536.3267L13907.6025,-3536.3141L13907.5928,-3536.3126"/>
<path content="1,JRバス関東（株）,東名ハイウェイバス,8.0,8.0,8.0," xlink:title="1" d="M13908.1421,-3536.4373L13908.1205,-3536.4357L13908.1092,-3536.4349L13908.0865,-3536.4331L13908.0547,-3536.4292L13908.0153,-3536.421L13907.9751,-3536.4105L13907.9478,-3536.4021L13907.9345,-3536.3967L13907.8955,-3536.3801L13907.869,-3536.369L13907.8549,-3536.3631L13907.8273,-3536.3508L13907.7908,-3536.3346L13907.7069,-3536.2973L13907.6215,-3536.2744L13907.5928,-3536.2683"/>
<path content="1,JRバス関東（株）,東名ハイウェイバス,8.0,8.0,8.0," xlink:title="1" d="M13908.1421,-3536.4698L13908.1117,-3536.4671L13908.0839,-3536.464L13908.0661,-3536.4612L13908.0563,-3536.4596L13908.0272,-3536.4547L13908.0103,-3536.4514L13907.9886,-3536.4462L13907.9791,-3536.4438L13907.9645,-3536.4401L13907.9424,-3536.4329L13907.9328,-3536.4298L13907.9115,-3536.4224L13907.8786,-3536.41L13907.8583,-3536.4024L13907.8381,-3536.3948L13907.7659,-3536.3677L13907.7352,-3536.3562L13907.6905,-3536.3385L13907.6514,-3536.3267L13907.6025,-3536.3141L13907.5928,-3536.3126"/>
<path content="1,JRバス関東（株）,東海道昼特急号/中央道昼特急号/青春昼特急号/プレミアム昼特急号,7.2,9.0,9.0," xlink:title="1" d="M13908.1421,-3536.4698L13908.1117,-3536.4671L13908.0839,-3536.464L13908.0661,-3536.4612L13908.0563,-3536.4596L13908.0272,-3536.4547L13908.0103,-3536.4514L13907.9886,-3536.4462L13907.9791,-3536.4438L13907.9645,-3536.4401L13907.9424,-3536.4329L13907.9328,-3536.4298L13907.9115,-3536.4224L13907.8786,-3536.41L13907.8583,-3536.4024L13907.8381,-3536.3948L13907.7659,-3536.3677L13907.7352,-3536.3562L13907.6905,-3536.3385L13907.6514,-3536.3267L13907.6025,-3536.3141L13907.5928,-3536.3126"/>
<path content="1,JRバス関東（株）,知多シーガール号,2.0,2.0,2.0," xlink:title="1" d="M13907.5928,-3536.3126L13907.6025,-3536.3141L13907.6514,-3536.3267L13907.6905,-3536.3385L13907.7352,-3536.3562L13907.7659,-3536.3677L13907.8381,-3536.3948L13907.8583,-3536.4024L13907.8786,-3536.41L13907.9115,-3536.4224L13907.9328,-3536.4298L13907.9424,-3536.4329L13907.9645,-3536.4401L13907.9791,-3536.4438L13907.9886,-3536.4462L13908.0103,-3536.4514L13908.0272,-3536.4547L13908.0563,-3536.4596L13908.0661,-3536.4612L13908.0839,-3536.464L13908.1117,-3536.4671L13908.1421,-3536.4698"/>
<path content="1,JRバス関東（株）,青春中央ドリーム号/青春中央エコドリーム号/青春ドリーム号/青春レディースドリーム号/青春エコドリーム号/超得割青春号,10.0,14.0,14.0," xlink:title="1" d="M13908.1421,-3536.4698L13908.1117,-3536.4671L13908.0839,-3536.464L13908.0661,-3536.4612L13908.0563,-3536.4596L13908.0272,-3536.4547L13908.0103,-3536.4514L13907.9886,-3536.4462L13907.9791,-3536.4438L13907.9645,-3536.4401L13907.9424,-3536.4329L13907.9328,-3536.4298L13907.9115,-3536.4224L13907.8786,-3536.41L13907.8583,-3536.4024L13907.8381,-3536.3948L13907.7659,-3536.3677L13907.7352,-3536.3562L13907.6905,-3536.3385L13907.6514,-3536.3267L13907.6025,-3536.3141L13907.5928,-3536.3126"/>
<path content="1,JRバス関東（株）,駿府ライナー,6.0,6.0,6.0," xlink:title="1" d="M13908.1421,-3536.4698L13908.1117,-3536.4671L13908.0839,-3536.464L13908.0661,-3536.4612L13908.0563,-3536.4596L13908.0272,-3536.4547L13908.0103,-3536.4514L13907.9886,-3536.4462L13907.9791,-3536.4438L13907.9645,-3536.4401L13907.9424,-3536.4329L13907.9328,-3536.4298L13907.9115,-3536.4224L13907.8786,-3536.41L13907.8583,-3536.4024L13907.8381,-3536.3948L13907.7659,-3536.3677L13907.7352,-3536.3562L13907.6905,-3536.3385L13907.6514,-3536.3267L13907.6025,-3536.3141L13907.5928,-3536.3126"/>
<path content="1,JR四国バス（株）,ドリーム徳島号　阿南・徳島⇔新宿・東京・新木場,1.0,1.0,1.0," xlink:title="1" d="M13908.1421,-3536.4373L13908.1204,-3536.4357L13908.1092,-3536.4349L13908.0865,-3536.433L13908.0547,-3536.4291L13908.0167,-3536.4212L13908.0138,-3536.4206L13907.975,-3536.4105L13907.9448,-3536.4011L13907.8955,-3536.38L13907.8549,-3536.3631L13907.7907,-3536.3345L13907.7068,-3536.2972L13907.6215,-3536.2743L13907.5928,-3536.2682"/>
<path content="1,JR四国バス（株）,ドリーム高松・松山号　松山・高松⇔東京・東京ディズニーランド,1.0,1.0,1.0," xlink:title="1" d="M13908.1421,-3536.4373L13908.1204,-3536.4357L13908.1092,-3536.4349L13908.0865,-3536.433L13908.0547,-3536.4291L13908.0167,-3536.4212L13908.0138,-3536.4206L13907.975,-3536.4105L13907.9448,-3536.4011L13907.8955,-3536.38L13907.8549,-3536.3631L13907.7907,-3536.3345L13907.7068,-3536.2972L13907.6215,-3536.2743L13907.5928,-3536.2682"/>
<path content="1,JR四国バス（株）,ドリーム高松号　観音寺・高松⇔新宿・東京・新木場,1.0,1.0,1.0," xlink:title="1" d="M13908.1421,-3536.4373L13908.1204,-3536.4357L13908.1092,-3536.4349L13908.0865,-3536.433L13908.0547,-3536.4291L13908.0167,-3536.4212L13908.0138,-3536.4206L13907.975,-3536.4105L13907.9448,-3536.4011L13907.8955,-3536.38L13907.8549,-3536.3631L13907.7907,-3536.3345L13907.7068,-3536.2972L13907.6215,-3536.2743L13907.5928,-3536.2682"/>
<path content="1,JR四国バス（株）,ドリーム高知号　高知・徳島⇔東京・新木場,1.0,1.0,1.0," xlink:title="1" d="M13908.1421,-3536.4373L13908.1204,-3536.4357L13908.1092,-3536.4349L13908.0865,-3536.433L13908.0547,-3536.4291L13908.0167,-3536.4212L13908.0138,-3536.4206L13907.975,-3536.4105L13907.9448,-3536.4011L13907.8955,-3536.38L13907.8549,-3536.3631L13907.7907,-3536.3345L13907.7068,-3536.2972L13907.6215,-3536.2743L13907.5928,-3536.2682"/>
<path content="1,JR東海バス（株）,ドリームとよた号,1.0,1.0,1.0," xlink:title="1" d="M13907.5928,-3536.2682L13907.6215,-3536.2743L13907.7068,-3536.2972L13907.7907,-3536.3345L13907.8549,-3536.3631L13907.8955,-3536.38L13907.9448,-3536.4011L13907.975,-3536.4105L13908.0138,-3536.4206L13908.0167,-3536.4212L13908.0547,-3536.4291L13908.0865,-3536.433L13908.1092,-3536.4349L13908.1204,-3536.4357L13908.1421,-3536.4373"/>
<path content="1,JR東海バス（株）,ドリームなごや号_01_on,3.0,3.0,3.0," xlink:title="1" d="M13907.5928,-3536.2682L13907.6215,-3536.2743L13907.7068,-3536.2972L13907.7907,-3536.3345L13907.8549,-3536.3631L13907.8955,-3536.38L13907.9448,-3536.4011L13907.975,-3536.4105L13908.0138,-3536.4206L13908.0167,-3536.4212L13908.0547,-3536.4291L13908.0865,-3536.433L13908.1092,-3536.4349L13908.1204,-3536.4357L13908.1421,-3536.4373"/>
<path content="1,JR東海バス（株）,ドリームなごや号_02_on,3.0,3.0,3.0," xlink:title="1" d="M13907.5928,-3536.2682L13907.6215,-3536.2743L13907.7068,-3536.2972L13907.7907,-3536.3345L13907.8549,-3536.3631L13907.8955,-3536.38L13907.9448,-3536.4011L13907.975,-3536.4105L13908.0138,-3536.4206L13908.0167,-3536.4212L13908.0547,-3536.4291L13908.0865,-3536.433L13908.1092,-3536.4349L13908.1204,-3536.4357L13908.1421,-3536.4373"/>
<path content="1,JR東海バス（株）,ドリーム静岡・浜松号_01_on,2.0,2.0,2.0," xlink:title="1" d="M13908.1421,-3536.4373L13908.1204,-3536.4357L13908.1092,-3536.4349L13908.0865,-3536.433L13908.0547,-3536.4291L13908.0167,-3536.4212L13908.0138,-3536.4206L13907.975,-3536.4105L13907.9448,-3536.4011L13907.8955,-3536.38L13907.8549,-3536.3631L13907.7907,-3536.3345L13907.7068,-3536.2972L13907.6215,-3536.2743L13907.5928,-3536.2682"/>
<path content="1,JR東海バス（株）,ドリーム静岡・浜松号_02_on,2.0,2.0,2.0," xlink:title="1" d="M13908.1421,-3536.4373L13908.1204,-3536.4357L13908.1092,-3536.4349L13908.0865,-3536.433L13908.0547,-3536.4291L13908.0167,-3536.4212L13908.0138,-3536.4206L13907.975,-3536.4105L13907.9448,-3536.4011L13907.8955,-3536.38L13907.8549,-3536.3631L13907.7907,-3536.3345L13907.7068,-3536.2972L13907.6215,-3536.2743L13907.5928,-3536.2682"/>
<path content="1,JR東海バス（株）,ファンタジア号,1.0,1.0,1.0," xlink:title="1" d="M13907.5928,-3536.2682L13907.6215,-3536.2743L13907.7068,-3536.2972L13907.7907,-3536.3345L13907.8549,-3536.3631L13907.8955,-3536.38L13907.9448,-3536.4011L13907.975,-3536.4105L13908.0138,-3536.4206L13908.0167,-3536.4212L13908.0547,-3536.4291L13908.0865,-3536.433L13908.1092,-3536.4349L13908.1204,-3536.4357L13908.1421,-3536.4373"/>
<path content="1,JR東海バス（株）,レディースドリームなごや号,1.0,1.0,1.0," xlink:title="1" d="M13907.5928,-3536.2682L13907.6215,-3536.2743L13907.7068,-3536.2972L13907.7907,-3536.3345L13907.8549,-3536.3631L13907.8955,-3536.38L13907.9448,-3536.4011L13907.975,-3536.4105L13908.0138,-3536.4206L13908.0167,-3536.4212L13908.0547,-3536.4291L13908.0865,-3536.433L13908.1092,-3536.4349L13908.1204,-3536.4357L13908.1421,-3536.4373"/>
<path content="1,JR東海バス（株）,新宿ドリーム三河・なごや号,1.0,1.0,1.0," xlink:title="1" d="M13908.1421,-3536.4373L13908.1204,-3536.4357L13908.1092,-3536.4349L13908.0865,-3536.433L13908.0547,-3536.4291L13908.0167,-3536.4212L13908.0138,-3536.4206L13907.975,-3536.4105L13907.9448,-3536.4011L13907.8955,-3536.38L13907.8549,-3536.3631L13907.7907,-3536.3345L13907.7068,-3536.2972L13907.6215,-3536.2743L13907.5928,-3536.2682"/>
<path content="1,JR東海バス（株）,新宿ライナー三河・なごや号,1.0,1.0,1.0," xlink:title="1" d="M13908.1421,-3536.4373L13908.1204,-3536.4357L13908.1092,-3536.4349L13908.0865,-3536.433L13908.0547,-3536.4291L13908.0167,-3536.4212L13908.0138,-3536.4206L13907.975,-3536.4105L13907.9448,-3536.4011L13907.8955,-3536.38L13907.8549,-3536.3631L13907.7907,-3536.3345L13907.7068,-3536.2972L13907.6215,-3536.2743L13907.5928,-3536.2682"/>
<path content="1,JR東海バス（株）,東名ハイウェイバス_01_on,37.0,37.0,37.0," xlink:title="1" d="M13907.5928,-3536.2682L13907.6215,-3536.2743L13907.7068,-3536.2972L13907.7907,-3536.3345L13907.8549,-3536.3631L13907.8955,-3536.38L13907.9448,-3536.4011L13907.975,-3536.4105L13908.0138,-3536.4206L13908.0167,-3536.4212L13908.0547,-3536.4291L13908.0865,-3536.433L13908.1092,-3536.4349L13908.1204,-3536.4357L13908.1421,-3536.4373"/>
<path content="1,JR東海バス（株）,東名ハイウェイバス_03_on,37.0,37.0,37.0," xlink:title="1" d="M13907.5928,-3536.2682L13907.6215,-3536.2743L13907.7068,-3536.2972L13907.7907,-3536.3345L13907.8549,-3536.3631L13907.8955,-3536.38L13907.9448,-3536.4011L13907.975,-3536.4105L13908.0138,-3536.4206L13908.0167,-3536.4212L13908.0547,-3536.4291L13908.0865,-3536.433L13908.1092,-3536.4349L13908.1204,-3536.4357L13908.1421,-3536.4373"/>
<path content="1,JR東海バス（株）,渋谷・新宿ライナー浜松号,4.0,4.0,4.0," xlink:title="1" d="M13907.5928,-3536.2682L13907.6215,-3536.2743L13907.7068,-3536.2972L13907.7907,-3536.3345L13907.8549,-3536.3631L13907.8955,-3536.38L13907.9448,-3536.4011L13907.975,-3536.4105L13908.0138,-3536.4206L13908.0167,-3536.4212L13908.0547,-3536.4291L13908.0865,-3536.433L13908.1092,-3536.4349L13908.1204,-3536.4357L13908.1421,-3536.4373"/>
<path content="1,JR東海バス（株）,渋谷・新宿ライナー静岡号,8.0,8.0,8.0," xlink:title="1" d="M13907.5928,-3536.2682L13907.6215,-3536.2743L13907.7068,-3536.2972L13907.7907,-3536.3345L13907.8549,-3536.3631L13907.8955,-3536.38L13907.9448,-3536.4011L13907.975,-3536.4105L13908.0138,-3536.4206L13908.0167,-3536.4212L13908.0547,-3536.4291L13908.0865,-3536.433L13908.1092,-3536.4349L13908.1204,-3536.4357L13908.1421,-3536.4373"/>
<path content="1,JR東海バス（株）,青春ドリームなごや号,1.0,1.0,1.0," xlink:title="1" d="M13907.5928,-3536.2682L13907.6215,-3536.2743L13907.7068,-3536.2972L13907.7907,-3536.3345L13907.8549,-3536.3631L13907.8955,-3536.38L13907.9448,-3536.4011L13907.975,-3536.4105L13908.0138,-3536.4206L13908.0167,-3536.4212L13908.0547,-3536.4291L13908.0865,-3536.433L13908.1092,-3536.4349L13908.1204,-3536.4357L13908.1421,-3536.4373"/>
<path content="1,しずてつジャストライン（株）,新静岡新宿線,15.0,15.0,15.0," xlink:title="1" d="M13907.5928,-3536.2682L13907.6215,-3536.2743L13907.7068,-3536.2972L13907.7907,-3536.3345L13907.8549,-3536.3631L13907.8955,-3536.38L13907.9448,-3536.4011L13907.975,-3536.4105L13908.0138,-3536.4206L13908.0167,-3536.4212L13908.0547,-3536.4291L13908.0865,-3536.433L13908.1092,-3536.4349L13908.1204,-3536.4357L13908.1421,-3536.4373"/>
<path content="1,しずてつジャストライン（株）,東京清水線,5.0,5.0,5.0," xlink:title="1" d="M13907.5928,-3536.2682L13907.6215,-3536.2743L13907.7068,-3536.2972L13907.7907,-3536.3345L13907.8549,-3536.3631L13907.8955,-3536.38L13907.9448,-3536.4011L13907.975,-3536.4105L13908.0138,-3536.4206L13908.0167,-3536.4212L13908.0547,-3536.4291L13908.0865,-3536.433L13908.1092,-3536.4349L13908.1204,-3536.4357L13908.1421,-3536.4373"/>
<path content="1,しずてつジャストライン（株）,静岡成田空港線,1.0,1.0,1.0," xlink:title="1" d="M13907.5928,-3536.2682L13907.6215,-3536.2743L13907.7068,-3536.2972L13907.7907,-3536.3345L13907.8549,-3536.3631L13907.8955,-3536.38L13907.9448,-3536.4011L13907.975,-3536.4105L13908.0138,-3536.4206L13908.0167,-3536.4212L13908.0547,-3536.4291L13908.0865,-3536.433L13908.1092,-3536.4349L13908.1204,-3536.4357L13908.1421,-3536.4373"/>
<path content="1,しずてつジャストライン（株）,静岡横浜線,3.0,3.0,3.0," xlink:title="1" d="M13907.5928,-3536.2682L13907.6215,-3536.2743L13907.7068,-3536.2972L13907.7907,-3536.3345L13907.8549,-3536.3631L13907.8955,-3536.38L13907.9448,-3536.4011L13907.975,-3536.4105L13908.0138,-3536.4206L13908.0167,-3536.4212L13908.0547,-3536.4291L13908.0865,-3536.433L13908.1092,-3536.4349L13908.1204,-3536.4357L13908.1421,-3536.4373"/>
<path content="1,エムケイ（株）,MKナイトシャトル　京都・大阪⇔東京便,1.0,1.0,1.0," xlink:title="1" d="M13907.5928,-3536.2682L13907.6215,-3536.2743L13907.7068,-3536.2972L13907.7907,-3536.3345L13907.8549,-3536.3631L13907.8955,-3536.38L13907.9448,-3536.4011L13907.975,-3536.4105L13908.0138,-3536.4206L13908.0167,-3536.4212L13908.0547,-3536.4291L13908.0865,-3536.433L13908.1092,-3536.4349L13908.1204,-3536.4357L13908.1421,-3536.4373"/>
<path content="1,エムケイ（株）,MKナイトシャトル　名古屋・豊田⇔東京便,1.0,1.0,1.0," xlink:title="1" d="M13907.5928,-3536.2682L13907.6215,-3536.2743L13907.7068,-3536.2972L13907.7907,-3536.3345L13907.8549,-3536.3631L13907.8955,-3536.38L13907.9448,-3536.4011L13907.975,-3536.4105L13908.0138,-3536.4206L13908.0167,-3536.4212L13908.0547,-3536.4291L13908.0865,-3536.433L13908.1092,-3536.4349L13908.1204,-3536.4357L13908.1421,-3536.4373"/>
<path content="1,一畑バス（株）,東京～松江・出雲線,1.0,1.0,1.0," xlink:title="1" d="M13907.5928,-3536.3125L13907.6024,-3536.314L13907.6514,-3536.3266L13907.692,-3536.3389L13907.7352,-3536.3562L13907.8354,-3536.3938L13907.8583,-3536.4024L13907.9115,-3536.4223L13907.9328,-3536.4298L13907.9645,-3536.4401L13907.9886,-3536.4462L13908.0103,-3536.4514L13908.0285,-3536.455L13908.0562,-3536.4596L13908.0839,-3536.464L13908.1117,-3536.467L13908.1421,-3536.4697"/>
<path content="1,三重交通（株）,伊賀・四日市～横浜・品川,1.0,1.0,1.0," xlink:title="1" d="M13908.1421,-3536.4373L13908.1204,-3536.4357L13908.1092,-3536.4349L13908.0865,-3536.433L13908.0547,-3536.4291L13908.0167,-3536.4212L13908.0138,-3536.4206L13907.975,-3536.4105L13907.9448,-3536.4011L13907.8955,-3536.38L13907.8549,-3536.3631L13907.7907,-3536.3345L13907.7068,-3536.2972L13907.6215,-3536.2743L13907.5928,-3536.2682"/>
<path content="1,三重交通（株）,勝浦・南紀～横浜・東京・大宮,1.0,1.0,1.0," xlink:title="1" d="M13907.5928,-3536.2682L13907.6215,-3536.2743L13907.7068,-3536.2972L13907.7907,-3536.3345L13907.8549,-3536.3631L13907.8955,-3536.38L13907.9448,-3536.4011L13907.975,-3536.4105L13908.0138,-3536.4206L13908.0167,-3536.4212L13908.0547,-3536.4291L13908.0865,-3536.433L13908.1092,-3536.4349L13908.1204,-3536.4357L13908.1421,-3536.4373"/>
<path content="1,両備ホールディングス（株）,ままかりライナー　倉敷・岡山～東京駅八重洲通り線,1.0,1.0,1.0," xlink:title="1" d="M13907.5928,-3536.3125L13907.6024,-3536.314L13907.6514,-3536.3266L13907.692,-3536.3389L13907.7352,-3536.3562L13907.8354,-3536.3938L13907.8583,-3536.4024L13907.9115,-3536.4223L13907.9328,-3536.4298L13907.9645,-3536.4401L13907.9886,-3536.4462L13908.0103,-3536.4514L13908.0285,-3536.455L13908.0562,-3536.4596L13908.0839,-3536.464L13908.1117,-3536.467L13908.1421,-3536.4697"/>
<path content="1,両備ホールディングス（株）,ルブラン　倉敷・岡山・津山～東京線,1.0,1.0,1.0," xlink:title="1" d="M13907.5928,-3536.3125L13907.6024,-3536.314L13907.6514,-3536.3266L13907.692,-3536.3389L13907.7352,-3536.3562L13907.8354,-3536.3938L13907.8583,-3536.4024L13907.9115,-3536.4223L13907.9328,-3536.4298L13907.9645,-3536.4401L13907.9886,-3536.4462L13908.0103,-3536.4514L13908.0285,-3536.455L13908.0562,-3536.4596L13908.0839,-3536.464L13908.1117,-3536.467L13908.1421,-3536.4697"/>
<path content="1,中国JRバス（株）,広島～東京　ニューブリーズ号,2.0,2.0,2.0," xlink:title="1" d="M13907.5928,-3536.3125L13907.6024,-3536.314L13907.6514,-3536.3266L13907.692,-3536.3389L13907.7352,-3536.3562L13907.8354,-3536.3938L13907.8583,-3536.4024L13907.9115,-3536.4223L13907.9328,-3536.4298L13907.9645,-3536.4401L13907.9886,-3536.4462L13908.0103,-3536.4514L13908.0285,-3536.455L13908.0562,-3536.4596L13908.0839,-3536.464L13908.1117,-3536.467L13908.1421,-3536.4697"/>
<path content="1,京成バス（株）,ファンタジアなごや号,0.5,0.5,0.5," xlink:title="1" d="M13907.5928,-3536.3126L13907.6025,-3536.3141L13907.6514,-3536.3267L13907.6905,-3536.3385L13907.7352,-3536.3562L13907.7659,-3536.3677L13907.8381,-3536.3948L13907.8583,-3536.4024L13907.8786,-3536.41L13907.9115,-3536.4224L13907.9328,-3536.4298L13907.9424,-3536.4329L13907.9645,-3536.4401L13907.9791,-3536.4438L13907.9886,-3536.4462L13908.0103,-3536.4514L13908.0272,-3536.4547L13908.0563,-3536.4596L13908.0661,-3536.4612L13908.0839,-3536.464L13908.1117,-3536.4671L13908.1421,-3536.4698"/>
<path content="1,京成バス（株）,奈良～上野・東京ディズニーリゾート,0.5,0.5,0.5," xlink:title="1" d="M13907.5928,-3536.3126L13907.6025,-3536.3141L13907.6514,-3536.3267L13907.6905,-3536.3385L13907.7352,-3536.3562L13907.7659,-3536.3677L13907.8381,-3536.3948L13907.8583,-3536.4024L13907.8786,-3536.41L13907.9115,-3536.4224L13907.9328,-3536.4298L13907.9424,-3536.4329L13907.9645,-3536.4401L13907.9791,-3536.4438L13907.9886,-3536.4462L13908.0103,-3536.4514L13908.0272,-3536.4547L13908.0563,-3536.4596L13908.0661,-3536.4612L13908.0839,-3536.464L13908.1117,-3536.4671L13908.1421,-3536.4698"/>
<path content="1,京成バス（株）,成田空港～新富士駅・沼津駅,2.0,2.0,2.0," xlink:title="1" d="M13907.5928,-3536.3126L13907.6025,-3536.3141L13907.6514,-3536.3267L13907.6905,-3536.3385L13907.7352,-3536.3562L13907.7659,-3536.3677L13907.8381,-3536.3948L13907.8583,-3536.4024L13907.8786,-3536.41L13907.9115,-3536.4224L13907.9328,-3536.4298L13907.9424,-3536.4329L13907.9645,-3536.4401L13907.9791,-3536.4438L13907.9886,-3536.4462L13908.0103,-3536.4514L13908.0272,-3536.4547L13908.0563,-3536.4596L13908.0661,-3536.4612L13908.0839,-3536.464L13908.1117,-3536.4671L13908.1421,-3536.4698"/>
<path content="1,京成バス（株）,神戸・大阪～東京ディズニーリゾート・海浜幕張・千葉中央駅,0.5,0.5,0.5," xlink:title="1" d="M13907.5928,-3536.3126L13907.6025,-3536.3141L13907.6514,-3536.3267L13907.6905,-3536.3385L13907.7352,-3536.3562L13907.7659,-3536.3677L13907.8381,-3536.3948L13907.8583,-3536.4024L13907.8786,-3536.41L13907.9115,-3536.4224L13907.9328,-3536.4298L13907.9424,-3536.4329L13907.9645,-3536.4401L13907.9791,-3536.4438L13907.9886,-3536.4462L13908.0103,-3536.4514L13908.0272,-3536.4547L13908.0563,-3536.4596L13908.0661,-3536.4612L13908.0839,-3536.464L13908.1117,-3536.4671L13908.1421,-3536.4698"/>
<path content="1,京浜急行バス（株）,エディ号,2.0,2.0,2.0," xlink:title="1" d="M13907.5928,-3536.3126L13907.6025,-3536.3141L13907.6514,-3536.3267L13907.6905,-3536.3385L13907.7352,-3536.3562L13907.7659,-3536.3677L13907.8381,-3536.3948L13907.8583,-3536.4024L13907.8786,-3536.41L13907.9115,-3536.4224L13907.9328,-3536.4298L13907.9424,-3536.4329L13907.9645,-3536.4401L13907.9791,-3536.4438L13907.9886,-3536.4462L13908.0103,-3536.4514L13908.0272,-3536.4547L13908.0563,-3536.4596L13908.0661,-3536.4612L13908.0839,-3536.464L13908.1117,-3536.4671L13908.1421,-3536.4698"/>
<path content="1,京浜急行バス（株）,キャメル号,1.0,1.0,1.0," xlink:title="1" d="M13908.1421,-3536.4698L13908.1117,-3536.4671L13908.0839,-3536.464L13908.0661,-3536.4612L13908.0563,-3536.4596L13908.0272,-3536.4547L13908.0103,-3536.4514L13907.9886,-3536.4462L13907.9791,-3536.4438L13907.9645,-3536.4401L13907.9424,-3536.4329L13907.9328,-3536.4298L13907.9115,-3536.4224L13907.8786,-3536.41L13907.8583,-3536.4024L13907.8381,-3536.3948L13907.7659,-3536.3677L13907.7352,-3536.3562L13907.6905,-3536.3385L13907.6514,-3536.3267L13907.6025,-3536.3141L13907.5928,-3536.3126"/>
<path content="1,京浜急行バス（株）,シルフィード号,1.0,1.0,1.0," xlink:title="1" d="M13907.5928,-3536.3126L13907.6025,-3536.3141L13907.6514,-3536.3267L13907.6905,-3536.3385L13907.7352,-3536.3562L13907.7659,-3536.3677L13907.8381,-3536.3948L13907.8583,-3536.4024L13907.8786,-3536.41L13907.9115,-3536.4224L13907.9328,-3536.4298L13907.9424,-3536.4329L13907.9645,-3536.4401L13907.9791,-3536.4438L13907.9886,-3536.4462L13908.0103,-3536.4514L13908.0272,-3536.4547L13908.0563,-3536.4596L13908.0661,-3536.4612L13908.0839,-3536.464L13908.1117,-3536.4671L13908.1421,-3536.4698"/>
<path content="1,京浜急行バス（株）,パイレーツ号,1.0,1.0,1.0," xlink:title="1" d="M13907.5928,-3536.3126L13907.6025,-3536.3141L13907.6514,-3536.3267L13907.6905,-3536.3385L13907.7352,-3536.3562L13907.7659,-3536.3677L13907.8381,-3536.3948L13907.8583,-3536.4024L13907.8786,-3536.41L13907.9115,-3536.4224L13907.9328,-3536.4298L13907.9424,-3536.4329L13907.9645,-3536.4401L13907.9791,-3536.4438L13907.9886,-3536.4462L13908.0103,-3536.4514L13908.0272,-3536.4547L13908.0563,-3536.4596L13908.0661,-3536.4612L13908.0839,-3536.464L13908.1117,-3536.4671L13908.1421,-3536.4698"/>
<path content="1,京浜急行バス（株）,ルプラン号,1.0,1.0,1.0," xlink:title="1" d="M13907.5928,-3536.3126L13907.6025,-3536.3141L13907.6514,-3536.3267L13907.6905,-3536.3385L13907.7352,-3536.3562L13907.7659,-3536.3677L13907.8381,-3536.3948L13907.8583,-3536.4024L13907.8786,-3536.41L13907.9115,-3536.4224L13907.9328,-3536.4298L13907.9424,-3536.4329L13907.9645,-3536.4401L13907.9791,-3536.4438L13907.9886,-3536.4462L13908.0103,-3536.4514L13908.0272,-3536.4547L13908.0563,-3536.4596L13908.0661,-3536.4612L13908.0839,-3536.464L13908.1117,-3536.4671L13908.1421,-3536.4698"/>
<path content="1,京浜急行バス（株）,小19,1.5,1.0,1.0," xlink:title="1" d="M13908.0188,-3536.0952L13908.0025,-3536.1194L13907.9956,-3536.1453L13907.9887,-3536.1701L13907.9887,-3536.1701L13907.9887,-3536.1701L13907.9979,-3536.1726L13908.0204,-3536.1769L13908.0603,-3536.1848L13908.087,-3536.1907L13908.0877,-3536.191L13908.0884,-3536.1912L13908.129,-3536.1983L13908.1379,-3536.2005L13908.1421,-3536.2012"/>
<path content="1,京浜急行バス（株）,御殿場・箱根桃源台～羽田空港線,4.0,4.0,4.0," xlink:title="1" d="M13907.5928,-3536.2683L13907.6215,-3536.2744L13907.7069,-3536.2973L13907.7908,-3536.3346L13907.8273,-3536.3508L13907.8549,-3536.3631L13907.869,-3536.369L13907.8955,-3536.3801L13907.9345,-3536.3967L13907.9478,-3536.4021L13907.9751,-3536.4105L13908.0153,-3536.421L13908.0547,-3536.4292L13908.0865,-3536.4331L13908.1092,-3536.4349L13908.1205,-3536.4357L13908.1421,-3536.4373"/>
<path content="1,京浜急行バス（株）,御殿場・箱根桃源台～羽田空港線,4.0,4.0,4.0," xlink:title="1" d="M13907.5928,-3536.3126L13907.6025,-3536.3141L13907.6514,-3536.3267L13907.6905,-3536.3385L13907.7352,-3536.3562L13907.7659,-3536.3677L13907.8381,-3536.3948L13907.8583,-3536.4024L13907.8786,-3536.41L13907.9115,-3536.4224L13907.9328,-3536.4298L13907.9424,-3536.4329L13907.9645,-3536.4401L13907.9791,-3536.4438L13907.9886,-3536.4462L13908.0103,-3536.4514L13908.0272,-3536.4547L13908.0563,-3536.4596L13908.0661,-3536.4612L13908.0839,-3536.464L13908.1117,-3536.4671L13908.1421,-3536.4698"/>
<path content="1,京浜急行バス（株）,新富士駅・富士宮駅～羽田空港線,2.0,2.0,2.0," xlink:title="1" d="M13907.5928,-3536.3126L13907.6025,-3536.3141L13907.6514,-3536.3267L13907.6905,-3536.3385L13907.7352,-3536.3562L13907.7659,-3536.3677L13907.8381,-3536.3948L13907.8583,-3536.4024L13907.8786,-3536.41L13907.9115,-3536.4224L13907.9328,-3536.4298L13907.9424,-3536.4329L13907.9645,-3536.4401L13907.9791,-3536.4438L13907.9886,-3536.4462L13908.0103,-3536.4514L13908.0272,-3536.4547L13908.0563,-3536.4596L13908.0661,-3536.4612L13908.0839,-3536.464L13908.1117,-3536.4671L13908.1421,-3536.4698"/>
<path content="1,京浜急行バス（株）,松62,7.2,9.3,11.7," xlink:title="1" d="M13908.1421,-3536.2012L13908.1379,-3536.2005L13908.129,-3536.1983L13908.0884,-3536.1912L13908.0877,-3536.191L13908.087,-3536.1907L13908.0603,-3536.1848L13908.0204,-3536.1769L13907.9979,-3536.1726L13907.9887,-3536.1701"/>
<path content="1,京浜急行バス（株）,松62,7.2,9.3,11.7," xlink:title="1" d="M13907.9887,-3536.1701L13907.9846,-3536.1693L13907.9826,-3536.1689L13907.9206,-3536.1562L13907.8966,-3536.1504L13907.8684,-3536.1447L13907.8372,-3536.1377L13907.8031,-3536.1301L13907.7897,-3536.1273L13907.7715,-3536.1234L13907.7626,-3536.1211L13907.755,-3536.12L13907.733,-3536.1143L13907.6973,-3536.1064L13907.6753,-3536.1019L13907.5928,-3536.0833"/>
<path content="1,京浜急行バス（株）,松62,7.2,9.3,11.7," xlink:title="1" d="M13907.9887,-3536.1701L13907.9887,-3536.1701L13907.9887,-3536.1701L13907.9956,-3536.1453L13908.0025,-3536.1194L13908.0188,-3536.0952"/>
<path content="1,京浜急行バス（株）,松64,1.0,0.0,0.0," xlink:title="1" d="M13908.1421,-3536.2012L13908.1379,-3536.2005L13908.129,-3536.1983L13908.0884,-3536.1912L13908.0877,-3536.191L13908.087,-3536.1907L13908.0603,-3536.1848L13908.0204,-3536.1769L13907.9979,-3536.1726L13907.9887,-3536.1701"/>
<path content="1,京浜急行バス（株）,松64,1.0,0.0,0.0," xlink:title="1" d="M13907.5928,-3536.0833L13907.6753,-3536.1019L13907.6973,-3536.1064L13907.733,-3536.1143L13907.755,-3536.12L13907.7626,-3536.1211L13907.7715,-3536.1234L13907.7897,-3536.1273L13907.8031,-3536.1301L13907.8372,-3536.1377L13907.8684,-3536.1447L13907.8966,-3536.1504L13907.9206,-3536.1562L13907.9826,-3536.1689L13907.9846,-3536.1693L13907.9887,-3536.1701"/>
<path content="1,京浜急行バス（株）,松64,1.0,0.0,0.0," xlink:title="1" d="M13907.9887,-3536.1701L13907.9887,-3536.1701L13907.9887,-3536.1701L13907.9956,-3536.1453L13908.0025,-3536.1194L13908.0188,-3536.0952"/>
<path content="1,京浜急行バス（株）,松66,14.5,8.0,5.5," xlink:title="1" d="M13908.1421,-3536.2012L13908.1379,-3536.2005L13908.129,-3536.1983L13908.0884,-3536.1912L13908.0877,-3536.191L13908.087,-3536.1907L13908.0603,-3536.1848L13908.0204,-3536.1769L13907.9979,-3536.1726L13907.9887,-3536.1701L13907.9887,-3536.1701L13907.9887,-3536.1701L13907.9956,-3536.1453L13908.0025,-3536.1194L13908.0188,-3536.0952"/>
<path content="1,京浜急行バス（株）,松75,0.0,0.0,1.2," xlink:title="1" d="M13908.1421,-3536.2012L13908.1379,-3536.2005L13908.129,-3536.1983L13908.0884,-3536.1912L13908.0877,-3536.191L13908.087,-3536.1907L13908.0603,-3536.1848L13908.0204,-3536.1769L13907.9979,-3536.1726L13907.9887,-3536.1701"/>
<path content="1,京浜急行バス（株）,松75,0.0,0.0,1.2," xlink:title="1" d="M13907.9887,-3536.1701L13907.9846,-3536.1693L13907.9826,-3536.1689L13907.9206,-3536.1562L13907.8966,-3536.1504L13907.8684,-3536.1447L13907.8372,-3536.1377L13907.8031,-3536.1301L13907.7897,-3536.1273L13907.7715,-3536.1234L13907.7626,-3536.1211L13907.755,-3536.12L13907.733,-3536.1143L13907.6973,-3536.1064L13907.6753,-3536.1019L13907.5928,-3536.0833"/>
<path content="1,京浜急行バス（株）,松75,0.0,0.0,1.2," xlink:title="1" d="M13907.9887,-3536.1701L13907.9887,-3536.1701L13907.9887,-3536.1701L13907.9956,-3536.1453L13908.0025,-3536.1194L13908.0188,-3536.0952"/>
<path content="1,京王バス南（株）,新宿・渋谷～三島・沼津線,1.0,1.0,1.0," xlink:title="1" d="M13907.5928,-3536.3126L13907.6025,-3536.3141L13907.6514,-3536.3267L13907.6905,-3536.3385L13907.7352,-3536.3562L13907.7659,-3536.3677L13907.8381,-3536.3948L13907.8583,-3536.4024L13907.8786,-3536.41L13907.9115,-3536.4224L13907.9328,-3536.4298L13907.9424,-3536.4329L13907.9645,-3536.4401L13907.9791,-3536.4438L13907.9886,-3536.4462L13908.0103,-3536.4514L13908.0272,-3536.4547L13908.0563,-3536.4596L13908.0661,-3536.4612L13908.0839,-3536.464L13908.1117,-3536.4671L13908.1421,-3536.4698"/>
<path content="1,京王バス南（株）,新宿・渋谷～浜松線,1.0,1.0,1.0," xlink:title="1" d="M13907.5928,-3536.3126L13907.6025,-3536.3141L13907.6514,-3536.3267L13907.6905,-3536.3385L13907.7352,-3536.3562L13907.7659,-3536.3677L13907.8381,-3536.3948L13907.8583,-3536.4024L13907.8786,-3536.41L13907.9115,-3536.4224L13907.9328,-3536.4298L13907.9424,-3536.4329L13907.9645,-3536.4401L13907.9791,-3536.4438L13907.9886,-3536.4462L13908.0103,-3536.4514L13908.0272,-3536.4547L13908.0563,-3536.4596L13908.0661,-3536.4612L13908.0839,-3536.464L13908.1117,-3536.4671L13908.1421,-3536.4698"/>
<path content="1,京王バス南（株）,新宿・渋谷～神戸姫路線,1.0,1.0,1.0," xlink:title="1" d="M13907.5928,-3536.3126L13907.6025,-3536.3141L13907.6514,-3536.3267L13907.6905,-3536.3385L13907.7352,-3536.3562L13907.7659,-3536.3677L13907.8381,-3536.3948L13907.8583,-3536.4024L13907.8786,-3536.41L13907.9115,-3536.4224L13907.9328,-3536.4298L13907.9424,-3536.4329L13907.9645,-3536.4401L13907.9791,-3536.4438L13907.9886,-3536.4462L13908.0103,-3536.4514L13908.0272,-3536.4547L13908.0563,-3536.4596L13908.0661,-3536.4612L13908.0839,-3536.464L13908.1117,-3536.4671L13908.1421,-3536.4698"/>
<path content="1,京王バス南（株）,新宿・渋谷～静岡線,3.0,3.0,3.0," xlink:title="1" d="M13907.5928,-3536.3126L13907.6025,-3536.3141L13907.6514,-3536.3267L13907.6905,-3536.3385L13907.7352,-3536.3562L13907.7659,-3536.3677L13907.8381,-3536.3948L13907.8583,-3536.4024L13907.8786,-3536.41L13907.9115,-3536.4224L13907.9328,-3536.4298L13907.9424,-3536.4329L13907.9645,-3536.4401L13907.9791,-3536.4438L13907.9886,-3536.4462L13908.0103,-3536.4514L13908.0272,-3536.4547L13908.0563,-3536.4596L13908.0661,-3536.4612L13908.0839,-3536.464L13908.1117,-3536.4671L13908.1421,-3536.4698"/>
<path content="1,京福バス（株）,東京線,3.0,3.0,3.0," xlink:title="1" d="M13907.5928,-3536.2682L13907.6215,-3536.2743L13907.7068,-3536.2972L13907.7907,-3536.3345L13907.8549,-3536.3631L13907.8955,-3536.38L13907.9448,-3536.4011L13907.975,-3536.4105L13908.0138,-3536.4206L13908.0167,-3536.4212L13908.0547,-3536.4291L13908.0865,-3536.433L13908.1092,-3536.4349L13908.1204,-3536.4357L13908.1421,-3536.4373"/>
<path content="1,京都交通（株）,舞鶴・綾部・福知山～東京,1.0,1.0,1.0," xlink:title="1" d="M13907.5928,-3536.2682L13907.6215,-3536.2743L13907.7068,-3536.2972L13907.7907,-3536.3345L13907.8549,-3536.3631L13907.8955,-3536.38L13907.9448,-3536.4011L13907.975,-3536.4105L13908.0138,-3536.4206L13908.0167,-3536.4212L13908.0547,-3536.4291L13908.0865,-3536.433L13908.1092,-3536.4349L13908.1204,-3536.4357L13908.1421,-3536.4373"/>
<path content="1,京阪バス（株）,京都・大津⇔上野・TDR・千葉,1.0,1.0,1.0," xlink:title="1" d="M13907.5928,-3536.2682L13907.6215,-3536.2743L13907.7068,-3536.2972L13907.7907,-3536.3345L13907.8549,-3536.3631L13907.8955,-3536.38L13907.9448,-3536.4011L13907.975,-3536.4105L13908.0138,-3536.4206L13908.0167,-3536.4212L13908.0547,-3536.4291L13908.0865,-3536.433L13908.1092,-3536.4349L13908.1204,-3536.4357L13908.1421,-3536.4373"/>
<path content="1,京阪バス（株）,枚方・京都⇔渋谷・新宿,1.0,1.0,1.0," xlink:title="1" d="M13907.5928,-3536.2682L13907.6215,-3536.2743L13907.7068,-3536.2972L13907.7907,-3536.3345L13907.8549,-3536.3631L13907.8955,-3536.38L13907.9448,-3536.4011L13907.975,-3536.4105L13908.0138,-3536.4206L13908.0167,-3536.4212L13908.0547,-3536.4291L13908.0865,-3536.433L13908.1092,-3536.4349L13908.1204,-3536.4357L13908.1421,-3536.4373"/>
<path content="1,北陸鉄道（株）,高速バス　金沢⇔横浜,1.0,1.0,1.0," xlink:title="1" d="M13908.1421,-3536.4373L13908.1204,-3536.4357L13908.1092,-3536.4349L13908.0865,-3536.433L13908.0547,-3536.4291L13908.0167,-3536.4212L13908.0138,-3536.4206L13907.975,-3536.4105L13907.9448,-3536.4011L13907.8955,-3536.38L13907.8549,-3536.3631L13907.7907,-3536.3345L13907.7068,-3536.2972L13907.6215,-3536.2743L13907.5928,-3536.2682"/>
<path content="1,千葉中央バス,京都～上野・東京ディズニーリゾート,1.0,1.0,1.0," xlink:title="1" d="M13907.5928,-3536.3126L13907.6025,-3536.3141L13907.6514,-3536.3267L13907.6905,-3536.3385L13907.7352,-3536.3562L13907.7659,-3536.3677L13907.8381,-3536.3948L13907.8583,-3536.4024L13907.8786,-3536.41L13907.9115,-3536.4224L13907.9328,-3536.4298L13907.9424,-3536.4329L13907.9645,-3536.4401L13907.9791,-3536.4438L13907.9886,-3536.4462L13908.0103,-3536.4514L13908.0272,-3536.4547L13908.0563,-3536.4596L13908.0661,-3536.4612L13908.0839,-3536.464L13908.1117,-3536.4671L13908.1421,-3536.4698"/>
<path content="1,千葉交通,大阪なんば・京都駅～成田・銚子線,1.0,1.0,1.0," xlink:title="1" d="M13907.5928,-3536.3126L13907.6025,-3536.3141L13907.6514,-3536.3267L13907.6905,-3536.3385L13907.7352,-3536.3562L13907.7659,-3536.3677L13907.8381,-3536.3948L13907.8583,-3536.4024L13907.8786,-3536.41L13907.9115,-3536.4224L13907.9328,-3536.4298L13907.9424,-3536.4329L13907.9645,-3536.4401L13907.9791,-3536.4438L13907.9886,-3536.4462L13908.0103,-3536.4514L13908.0272,-3536.4547L13908.0563,-3536.4596L13908.0661,-3536.4612L13908.0839,-3536.464L13908.1117,-3536.4671L13908.1421,-3536.4698"/>
<path content="1,南海バス（株）,和歌山・和泉中央・堺東⇔新宿・東京,1.0,1.0,1.0," xlink:title="1" d="M13907.5928,-3536.2682L13907.6215,-3536.2743L13907.7068,-3536.2972L13907.7907,-3536.3345L13907.8549,-3536.3631L13907.8955,-3536.38L13907.9448,-3536.4011L13907.975,-3536.4105L13908.0138,-3536.4206L13908.0167,-3536.4212L13908.0547,-3536.4291L13908.0865,-3536.433L13908.1092,-3536.4349L13908.1204,-3536.4357L13908.1421,-3536.4373"/>
<path content="1,南海バス（株）,堺・大阪（なんば）⇔新宿・東京,1.0,1.0,1.0," xlink:title="1" d="M13907.5928,-3536.2682L13907.6215,-3536.2743L13907.7068,-3536.2972L13907.7907,-3536.3345L13907.8549,-3536.3631L13907.8955,-3536.38L13907.9448,-3536.4011L13907.975,-3536.4105L13908.0138,-3536.4206L13908.0167,-3536.4212L13908.0547,-3536.4291L13908.0865,-3536.433L13908.1092,-3536.4349L13908.1204,-3536.4357L13908.1421,-3536.4373"/>
<path content="1,南海バス（株）,堺・大阪（なんば）・京都⇔小田原・藤沢・鎌倉,1.0,1.0,1.0," xlink:title="1" d="M13908.1421,-3536.4373L13908.1204,-3536.4357L13908.1092,-3536.4349L13908.0865,-3536.433L13908.0547,-3536.4291L13908.0167,-3536.4212L13908.0138,-3536.4206L13907.975,-3536.4105L13907.9448,-3536.4011L13907.8955,-3536.38L13907.8549,-3536.3631L13907.7907,-3536.3345L13907.7068,-3536.2972L13907.6215,-3536.2743L13907.5928,-3536.2682"/>
<path content="1,南海バス（株）,大阪（なんば）・京都⇔秋葉原・成田空港・銚子,1.0,1.0,1.0," xlink:title="1" d="M13907.5928,-3536.2682L13907.6215,-3536.2743L13907.7068,-3536.2972L13907.7907,-3536.3345L13907.8549,-3536.3631L13907.8955,-3536.38L13907.9448,-3536.4011L13907.975,-3536.4105L13908.0138,-3536.4206L13908.0167,-3536.4212L13908.0547,-3536.4291L13908.0865,-3536.433L13908.1092,-3536.4349L13908.1204,-3536.4357L13908.1421,-3536.4373"/>
<path content="1,南海バス（株）,神戸・大阪（なんば）・京都⇔立川・昭島・玉川上水（東京）,1.0,1.0,1.0," xlink:title="1" d="M13907.5928,-3536.2682L13907.6215,-3536.2743L13907.7068,-3536.2972L13907.7907,-3536.3345L13907.8549,-3536.3631L13907.8955,-3536.38L13907.9448,-3536.4011L13907.975,-3536.4105L13908.0138,-3536.4206L13908.0167,-3536.4212L13908.0547,-3536.4291L13908.0865,-3536.433L13908.1092,-3536.4349L13908.1204,-3536.4357L13908.1421,-3536.4373"/>
<path content="1,名鉄バス（株）,名古屋～仙台,1.0,1.0,1.0," xlink:title="1" d="M13908.1421,-3536.4373L13908.1204,-3536.4357L13908.1092,-3536.4349L13908.0865,-3536.433L13908.0547,-3536.4291L13908.0167,-3536.4212L13908.0138,-3536.4206L13907.975,-3536.4105L13907.9448,-3536.4011L13907.8955,-3536.38L13907.8549,-3536.3631L13907.7907,-3536.3345L13907.7068,-3536.2972L13907.6215,-3536.2743L13907.5928,-3536.2682"/>
<path content="1,和歌山バス（株）,サウスウエーブ号和歌山・堺⇔横浜・上野・東京ディズニーリゾート・海浜幕張,1.0,1.0,1.0," xlink:title="1" d="M13907.5928,-3536.2682L13907.6215,-3536.2743L13907.7068,-3536.2972L13907.7907,-3536.3345L13907.8549,-3536.3631L13907.8955,-3536.38L13907.9448,-3536.4011L13907.975,-3536.4105L13908.0138,-3536.4206L13908.0167,-3536.4212L13908.0547,-3536.4291L13908.0865,-3536.433L13908.1092,-3536.4349L13908.1204,-3536.4357L13908.1421,-3536.4373"/>
<path content="1,四国高速バス（株）,ハローブリッジ号　善通寺・坂出⇔横浜・新宿・八王子,1.0,1.0,1.0," xlink:title="1" d="M13907.5928,-3536.2682L13907.6215,-3536.2743L13907.7068,-3536.2972L13907.7907,-3536.3345L13907.8549,-3536.3631L13907.8955,-3536.38L13907.9448,-3536.4011L13907.975,-3536.4105L13908.0138,-3536.4206L13908.0167,-3536.4212L13908.0547,-3536.4291L13908.0865,-3536.433L13908.1092,-3536.4349L13908.1204,-3536.4357L13908.1421,-3536.4373"/>
<path content="1,土佐電気鉄道（株）,ブルーメッツ号　高知⇔東京線,1.0,1.0,1.0," xlink:title="1" d="M13907.5928,-3536.2682L13907.6215,-3536.2743L13907.7068,-3536.2972L13907.7907,-3536.3345L13907.8549,-3536.3631L13907.8955,-3536.38L13907.9448,-3536.4011L13907.975,-3536.4105L13908.0138,-3536.4206L13908.0167,-3536.4212L13908.0547,-3536.4291L13908.0865,-3536.433L13908.1092,-3536.4349L13908.1204,-3536.4357L13908.1421,-3536.4373"/>
<path content="1,奈良交通（株）,やまと号　五條-新宿線,1.0,1.0,1.0," xlink:title="1" d="M13907.5928,-3536.2682L13907.6215,-3536.2743L13907.7068,-3536.2972L13907.7907,-3536.3345L13907.8549,-3536.3631L13907.8955,-3536.38L13907.9448,-3536.4011L13907.975,-3536.4105L13908.0138,-3536.4206L13908.0167,-3536.4212L13908.0547,-3536.4291L13908.0865,-3536.433L13908.1092,-3536.4349L13908.1204,-3536.4357L13908.1421,-3536.4373"/>
<path content="1,奈良交通（株）,やまと号　奈良-新宿線,1.0,1.0,1.0," xlink:title="1" d="M13907.5928,-3536.2682L13907.6215,-3536.2743L13907.7068,-3536.2972L13907.7907,-3536.3345L13907.8549,-3536.3631L13907.8955,-3536.38L13907.9448,-3536.4011L13907.975,-3536.4105L13908.0138,-3536.4206L13908.0167,-3536.4212L13908.0547,-3536.4291L13908.0865,-3536.433L13908.1092,-3536.4349L13908.1204,-3536.4357L13908.1421,-3536.4373"/>
<path content="1,奈良交通（株）,やまと号　奈良-東京ディズニーリゾート・横浜線,1.0,1.0,1.0," xlink:title="1" d="M13907.5928,-3536.2682L13907.6215,-3536.2743L13907.7068,-3536.2972L13907.7907,-3536.3345L13907.8549,-3536.3631L13907.8955,-3536.38L13907.9448,-3536.4011L13907.975,-3536.4105L13908.0138,-3536.4206L13908.0167,-3536.4212L13908.0547,-3536.4291L13908.0865,-3536.433L13908.1092,-3536.4349L13908.1204,-3536.4357L13908.1421,-3536.4373"/>
<path content="1,宇和島自動車（株）,宇和島・松山⇔横浜・池袋・大宮,1.0,1.0,1.0," xlink:title="1" d="M13907.5928,-3536.2682L13907.6215,-3536.2743L13907.7068,-3536.2972L13907.7907,-3536.3345L13907.8549,-3536.3631L13907.8955,-3536.38L13907.9448,-3536.4011L13907.975,-3536.4105L13908.0138,-3536.4206L13908.0167,-3536.4212L13908.0547,-3536.4291L13908.0865,-3536.433L13908.1092,-3536.4349L13908.1204,-3536.4357L13908.1421,-3536.4373"/>
<path content="1,宮城交通（株）,仙台～名古屋線,1.0,1.0,1.0," xlink:title="1" d="M13907.5928,-3536.3126L13907.6025,-3536.3141L13907.6514,-3536.3267L13907.6905,-3536.3385L13907.7352,-3536.3562L13907.7659,-3536.3677L13907.8381,-3536.3948L13907.8583,-3536.4024L13907.8786,-3536.41L13907.9115,-3536.4224L13907.9328,-3536.4298L13907.9424,-3536.4329L13907.9645,-3536.4401L13907.9791,-3536.4438L13907.9886,-3536.4462L13908.0103,-3536.4514L13908.0272,-3536.4547L13908.0563,-3536.4596L13908.0661,-3536.4612L13908.0839,-3536.464L13908.1117,-3536.4671L13908.1421,-3536.4698"/>
<path content="1,宮城交通（株）,仙台～大阪線,1.0,1.0,1.0," xlink:title="1" d="M13908.1421,-3536.4698L13908.1117,-3536.4671L13908.0839,-3536.464L13908.0661,-3536.4612L13908.0563,-3536.4596L13908.0272,-3536.4547L13908.0103,-3536.4514L13907.9886,-3536.4462L13907.9791,-3536.4438L13907.9645,-3536.4401L13907.9424,-3536.4329L13907.9328,-3536.4298L13907.9115,-3536.4224L13907.8786,-3536.41L13907.8583,-3536.4024L13907.8381,-3536.3948L13907.7659,-3536.3677L13907.7352,-3536.3562L13907.6905,-3536.3385L13907.6514,-3536.3267L13907.6025,-3536.3141L13907.5928,-3536.3126"/>
<path content="1,富士急シティバス（株）,さんさんぬまづ・新宿号,2.5,2.5,2.5," xlink:title="1" d="M13907.5928,-3536.2682L13907.6215,-3536.2743L13907.7068,-3536.2972L13907.7907,-3536.3345L13907.8549,-3536.3631L13907.8955,-3536.38L13907.9448,-3536.4011L13907.975,-3536.4105L13908.0138,-3536.4206L13908.0167,-3536.4212L13908.0547,-3536.4291L13908.0865,-3536.433L13908.1092,-3536.4349L13908.1204,-3536.4357L13908.1421,-3536.4373"/>
<path content="1,富士急シティバス（株）,さんさんぬまづ・東京号,3.0,3.0,3.0," xlink:title="1" d="M13907.5928,-3536.2682L13907.6215,-3536.2743L13907.7068,-3536.2972L13907.7907,-3536.3345L13907.8549,-3536.3631L13907.8955,-3536.38L13907.9448,-3536.4011L13907.975,-3536.4105L13908.0138,-3536.4206L13908.0167,-3536.4212L13908.0547,-3536.4291L13908.0865,-3536.433L13908.1092,-3536.4349L13908.1204,-3536.4357L13908.1421,-3536.4373"/>
<path content="1,富士急シティバス（株）,みしまコロッケ号,1.5,1.5,1.5," xlink:title="1" d="M13907.5928,-3536.2682L13907.6215,-3536.2743L13907.7068,-3536.2972L13907.7907,-3536.3345L13907.8549,-3536.3631L13907.8955,-3536.38L13907.9448,-3536.4011L13907.975,-3536.4105L13908.0138,-3536.4206L13908.0167,-3536.4212L13908.0547,-3536.4291L13908.0865,-3536.433L13908.1092,-3536.4349L13908.1204,-3536.4357L13908.1421,-3536.4373"/>
<path content="1,富士急湘南バス（株）,小田原・新松田・沼津～大坂・京都線,1.0,1.0,1.0," xlink:title="1" d="M13908.1421,-3536.4373L13908.1205,-3536.4357L13908.1092,-3536.4349L13908.0865,-3536.4331L13908.0547,-3536.4292L13908.0153,-3536.421L13907.9751,-3536.4105L13907.9478,-3536.4021L13907.9345,-3536.3967L13907.8955,-3536.3801L13907.869,-3536.369L13907.8549,-3536.3631L13907.8273,-3536.3508L13907.7908,-3536.3346L13907.7069,-3536.2973L13907.6215,-3536.2744L13907.5928,-3536.2683"/>
<path content="1,富士急行（株）,かぐや姫EXPRESS,3.0,3.0,3.0," xlink:title="1" d="M13907.5928,-3536.3126L13907.6025,-3536.3141L13907.6514,-3536.3267L13907.6905,-3536.3385L13907.7352,-3536.3562L13907.7659,-3536.3677L13907.8381,-3536.3948L13907.8583,-3536.4024L13907.8786,-3536.41L13907.9115,-3536.4224L13907.9328,-3536.4298L13907.9424,-3536.4329L13907.9645,-3536.4401L13907.9791,-3536.4438L13907.9886,-3536.4462L13908.0103,-3536.4514L13908.0272,-3536.4547L13908.0563,-3536.4596L13908.0661,-3536.4612L13908.0839,-3536.464L13908.1117,-3536.4671L13908.1421,-3536.4698"/>
<path content="1,富士急行（株）,みしまコロッケ号,1.5,1.5,1.5," xlink:title="1" d="M13907.5928,-3536.3126L13907.6025,-3536.3141L13907.6514,-3536.3267L13907.6905,-3536.3385L13907.7352,-3536.3562L13907.7659,-3536.3677L13907.8381,-3536.3948L13907.8583,-3536.4024L13907.8786,-3536.41L13907.9115,-3536.4224L13907.9328,-3536.4298L13907.9424,-3536.4329L13907.9645,-3536.4401L13907.9791,-3536.4438L13907.9886,-3536.4462L13908.0103,-3536.4514L13908.0272,-3536.4547L13908.0563,-3536.4596L13908.0661,-3536.4612L13908.0839,-3536.464L13908.1117,-3536.4671L13908.1421,-3536.4698"/>
<path content="1,富士急行（株）,ハイランドライナー,0.2,0.5,0.5," xlink:title="1" d="M13908.1421,-3536.4698L13908.1117,-3536.4671L13908.0839,-3536.464L13908.0661,-3536.4612L13908.0563,-3536.4596L13908.0272,-3536.4547L13908.0103,-3536.4514L13907.9886,-3536.4462L13907.9791,-3536.4438L13907.9645,-3536.4401L13907.9424,-3536.4329L13907.9328,-3536.4298L13907.9115,-3536.4224L13907.8786,-3536.41L13907.8583,-3536.4024L13907.8381,-3536.3948L13907.7659,-3536.3677L13907.7352,-3536.3562L13907.6905,-3536.3385L13907.6514,-3536.3267L13907.6025,-3536.3141L13907.5928,-3536.3126"/>
<path content="1,富士急行（株）,ヤキソバEXPRESS,5.5,6.0,6.0," xlink:title="1" d="M13907.5928,-3536.3126L13907.6025,-3536.3141L13907.6514,-3536.3267L13907.6905,-3536.3385L13907.7352,-3536.3562L13907.7659,-3536.3677L13907.8381,-3536.3948L13907.8583,-3536.4024L13907.8786,-3536.41L13907.9115,-3536.4224L13907.9328,-3536.4298L13907.9424,-3536.4329L13907.9645,-3536.4401L13907.9791,-3536.4438L13907.9886,-3536.4462L13908.0103,-3536.4514L13908.0272,-3536.4547L13908.0563,-3536.4596L13908.0661,-3536.4612L13908.0839,-3536.464L13908.1117,-3536.4671L13908.1421,-3536.4698"/>
<path content="1,富士急行（株）,レイクライナー,3.2,3.2,3.2," xlink:title="1" d="M13907.5928,-3536.3126L13907.6025,-3536.3141L13907.6514,-3536.3267L13907.6905,-3536.3385L13907.7352,-3536.3562L13907.7659,-3536.3677L13907.8381,-3536.3948L13907.8583,-3536.4024L13907.8786,-3536.41L13907.9115,-3536.4224L13907.9328,-3536.4298L13907.9424,-3536.4329L13907.9645,-3536.4401L13907.9791,-3536.4438L13907.9886,-3536.4462L13908.0103,-3536.4514L13908.0272,-3536.4547L13908.0563,-3536.4596L13908.0661,-3536.4612L13908.0839,-3536.464L13908.1117,-3536.4671L13908.1421,-3536.4698"/>
<path content="1,富士急行（株）,富士宮・富士・沼津～羽田空港・横浜線,2.0,2.0,2.0," xlink:title="1" d="M13907.5928,-3536.3126L13907.6025,-3536.3141L13907.6514,-3536.3267L13907.6905,-3536.3385L13907.7352,-3536.3562L13907.7659,-3536.3677L13907.8381,-3536.3948L13907.8583,-3536.4024L13907.8786,-3536.41L13907.9115,-3536.4224L13907.9328,-3536.4298L13907.9424,-3536.4329L13907.9645,-3536.4401L13907.9791,-3536.4438L13907.9886,-3536.4462L13908.0103,-3536.4514L13908.0272,-3536.4547L13908.0563,-3536.4596L13908.0661,-3536.4612L13908.0839,-3536.464L13908.1117,-3536.4671L13908.1421,-3536.4698"/>
<path content="1,富士急行（株）,小田原・新松田・沼津～大阪・京都線,1.0,1.0,1.0," xlink:title="1" d="M13908.1421,-3536.4698L13908.1117,-3536.4671L13908.0839,-3536.464L13908.0661,-3536.4612L13908.0563,-3536.4596L13908.0272,-3536.4547L13908.0103,-3536.4514L13907.9886,-3536.4462L13907.9791,-3536.4438L13907.9645,-3536.4401L13907.9424,-3536.4329L13907.9328,-3536.4298L13907.9115,-3536.4224L13907.8786,-3536.41L13907.8583,-3536.4024L13907.8381,-3536.3948L13907.7659,-3536.3677L13907.7352,-3536.3562L13907.6905,-3536.3385L13907.6514,-3536.3267L13907.6025,-3536.3141L13907.5928,-3536.3126"/>
<path content="1,富士急行（株）,御殿場プレミアム・アウトレット～横浜線,0.0,1.0,1.0," xlink:title="1" d="M13907.5928,-3536.3126L13907.6025,-3536.3141L13907.6514,-3536.3267L13907.6905,-3536.3385L13907.7352,-3536.3562L13907.7659,-3536.3677L13907.8381,-3536.3948L13907.8583,-3536.4024L13907.8786,-3536.41L13907.9115,-3536.4224L13907.9328,-3536.4298L13907.9424,-3536.4329L13907.9645,-3536.4401L13907.9791,-3536.4438L13907.9886,-3536.4462L13908.0103,-3536.4514L13908.0272,-3536.4547L13908.0563,-3536.4596L13908.0661,-3536.4612L13908.0839,-3536.464L13908.1117,-3536.4671L13908.1421,-3536.4698"/>
<path content="1,富士急行（株）,新富士・沼津・御殿場～成田空港線,2.0,2.0,2.0," xlink:title="1" d="M13907.5928,-3536.3126L13907.6025,-3536.3141L13907.6514,-3536.3267L13907.6905,-3536.3385L13907.7352,-3536.3562L13907.7659,-3536.3677L13907.8381,-3536.3948L13907.8583,-3536.4024L13907.8786,-3536.41L13907.9115,-3536.4224L13907.9328,-3536.4298L13907.9424,-3536.4329L13907.9645,-3536.4401L13907.9791,-3536.4438L13907.9886,-3536.4462L13908.0103,-3536.4514L13908.0272,-3536.4547L13908.0563,-3536.4596L13908.0661,-3536.4612L13908.0839,-3536.464L13908.1117,-3536.4671L13908.1421,-3536.4698"/>
<path content="1,富士急行（株）,早朝線東京ライナー,0.0,0.0,0.0," xlink:title="1" d="M13907.5928,-3536.3126L13907.6025,-3536.3141L13907.6514,-3536.3267L13907.6905,-3536.3385L13907.7352,-3536.3562L13907.7659,-3536.3677L13907.8381,-3536.3948L13907.8583,-3536.4024L13907.8786,-3536.41L13907.9115,-3536.4224L13907.9328,-3536.4298L13907.9424,-3536.4329L13907.9645,-3536.4401L13907.9791,-3536.4438L13907.9886,-3536.4462L13908.0103,-3536.4514L13908.0272,-3536.4547L13908.0563,-3536.4596L13908.0661,-3536.4612L13908.0839,-3536.464L13908.1117,-3536.4671L13908.1421,-3536.4698"/>
<path content="1,富士急行（株）,河口湖～東京・市が尾線,8.2,10.0,10.0," xlink:title="1" d="M13907.5928,-3536.3126L13907.6025,-3536.3141L13907.6514,-3536.3267L13907.6905,-3536.3385L13907.7352,-3536.3562L13907.7659,-3536.3677L13907.8381,-3536.3948L13907.8583,-3536.4024L13907.8786,-3536.41L13907.9115,-3536.4224L13907.9328,-3536.4298L13907.9424,-3536.4329L13907.9645,-3536.4401L13907.9791,-3536.4438L13907.9886,-3536.4462L13908.0103,-3536.4514L13908.0272,-3536.4547L13908.0563,-3536.4596L13908.0661,-3536.4612L13908.0839,-3536.464L13908.1117,-3536.4671L13908.1421,-3536.4698"/>
<path content="1,富士急行（株）,沼津～新宿・渋谷線,2.5,2.5,2.5," xlink:title="1" d="M13907.5928,-3536.3126L13907.6025,-3536.3141L13907.6514,-3536.3267L13907.6905,-3536.3385L13907.7352,-3536.3562L13907.7659,-3536.3677L13907.8381,-3536.3948L13907.8583,-3536.4024L13907.8786,-3536.41L13907.9115,-3536.4224L13907.9328,-3536.4298L13907.9424,-3536.4329L13907.9645,-3536.4401L13907.9791,-3536.4438L13907.9886,-3536.4462L13908.0103,-3536.4514L13908.0272,-3536.4547L13908.0563,-3536.4596L13908.0661,-3536.4612L13908.0839,-3536.464L13908.1117,-3536.4671L13908.1421,-3536.4698"/>
<path content="1,富士急行（株）,沼津～東京線,3.0,3.0,3.0," xlink:title="1" d="M13907.5928,-3536.3126L13907.6025,-3536.3141L13907.6514,-3536.3267L13907.6905,-3536.3385L13907.7352,-3536.3562L13907.7659,-3536.3677L13907.8381,-3536.3948L13907.8583,-3536.4024L13907.8786,-3536.41L13907.9115,-3536.4224L13907.9328,-3536.4298L13907.9424,-3536.4329L13907.9645,-3536.4401L13907.9791,-3536.4438L13907.9886,-3536.4462L13908.0103,-3536.4514L13908.0272,-3536.4547L13908.0563,-3536.4596L13908.0661,-3536.4612L13908.0839,-3536.464L13908.1117,-3536.4671L13908.1421,-3536.4698"/>
<path content="1,富士急静岡バス（株）,かぐや姫EXPRESS,2.5,1.0,1.0," xlink:title="1" d="M13907.5928,-3536.2682L13907.6215,-3536.2743L13907.7068,-3536.2972L13907.7907,-3536.3345L13907.8549,-3536.3631L13907.8955,-3536.38L13907.9448,-3536.4011L13907.975,-3536.4105L13908.0138,-3536.4206L13908.0167,-3536.4212L13908.0547,-3536.4291L13908.0865,-3536.433L13908.1092,-3536.4349L13908.1204,-3536.4357L13908.1421,-3536.4373"/>
<path content="1,富士急静岡バス（株）,ヤキソバEXPRESS,5.5,3.0,3.0," xlink:title="1" d="M13907.5928,-3536.2682L13907.6215,-3536.2743L13907.7068,-3536.2972L13907.7907,-3536.3345L13907.8549,-3536.3631L13907.8955,-3536.38L13907.9448,-3536.4011L13907.975,-3536.4105L13908.0138,-3536.4206L13908.0167,-3536.4212L13908.0547,-3536.4291L13908.0865,-3536.433L13908.1092,-3536.4349L13908.1204,-3536.4357L13908.1421,-3536.4373"/>
<path content="1,富士急静岡バス（株）,富士宮・富士・沼津～羽田空港・横浜線,4.0,4.0,4.0," xlink:title="1" d="M13907.5928,-3536.2682L13907.6215,-3536.2743L13907.7068,-3536.2972L13907.7907,-3536.3345L13907.8549,-3536.3631L13907.8955,-3536.38L13907.9448,-3536.4011L13907.975,-3536.4105L13908.0138,-3536.4206L13908.0167,-3536.4212L13908.0547,-3536.4291L13908.0865,-3536.433L13908.1092,-3536.4349L13908.1204,-3536.4357L13908.1421,-3536.4373"/>
<path content="1,富士急静岡バス（株）,新富士・沼津・御殿場～成田空港線,2.0,2.0,2.0," xlink:title="1" d="M13907.5928,-3536.2682L13907.6215,-3536.2743L13907.7068,-3536.2972L13907.7907,-3536.3345L13907.8549,-3536.3631L13907.8955,-3536.38L13907.9448,-3536.4011L13907.975,-3536.4105L13908.0138,-3536.4206L13908.0167,-3536.4212L13908.0547,-3536.4291L13908.0865,-3536.433L13908.1092,-3536.4349L13908.1204,-3536.4357L13908.1421,-3536.4373"/>
<path content="1,小田急シティバス（株）,しまんとエクスプレス号,0.1,0.1,0.1," xlink:title="1" d="M13907.5928,-3536.3126L13907.6025,-3536.3141L13907.6514,-3536.3267L13907.6905,-3536.3385L13907.7352,-3536.3562L13907.7659,-3536.3677L13907.8381,-3536.3948L13907.8583,-3536.4024L13907.8786,-3536.41L13907.9115,-3536.4224L13907.9328,-3536.4298L13907.9424,-3536.4329L13907.9645,-3536.4401L13907.9791,-3536.4438L13907.9886,-3536.4462L13908.0103,-3536.4514L13908.0272,-3536.4547L13908.0563,-3536.4596L13908.0661,-3536.4612L13908.0839,-3536.464L13908.1117,-3536.4671L13908.1421,-3536.4698"/>
<path content="1,小田急シティバス（株）,エトワールセト号,1.0,1.0,1.0," xlink:title="1" d="M13907.5928,-3536.3126L13907.6025,-3536.3141L13907.6514,-3536.3267L13907.6905,-3536.3385L13907.7352,-3536.3562L13907.7659,-3536.3677L13907.8381,-3536.3948L13907.8583,-3536.4024L13907.8786,-3536.41L13907.9115,-3536.4224L13907.9328,-3536.4298L13907.9424,-3536.4329L13907.9645,-3536.4401L13907.9791,-3536.4438L13907.9886,-3536.4462L13908.0103,-3536.4514L13908.0272,-3536.4547L13908.0563,-3536.4596L13908.0661,-3536.4612L13908.0839,-3536.464L13908.1117,-3536.4671L13908.1421,-3536.4698"/>
<path content="1,小田急シティバス（株）,ニューブリーズ号,2.0,2.0,2.0," xlink:title="1" d="M13907.5928,-3536.3126L13907.6025,-3536.3141L13907.6514,-3536.3267L13907.6905,-3536.3385L13907.7352,-3536.3562L13907.7659,-3536.3677L13907.8381,-3536.3948L13907.8583,-3536.4024L13907.8786,-3536.41L13907.9115,-3536.4224L13907.9328,-3536.4298L13907.9424,-3536.4329L13907.9645,-3536.4401L13907.9791,-3536.4438L13907.9886,-3536.4462L13908.0103,-3536.4514L13908.0272,-3536.4547L13908.0563,-3536.4596L13908.0661,-3536.4612L13908.0839,-3536.464L13908.1117,-3536.4671L13908.1421,-3536.4698"/>
<path content="1,小田急シティバス（株）,パピヨン号,1.0,1.0,1.0," xlink:title="1" d="M13907.5928,-3536.3126L13907.6025,-3536.3141L13907.6514,-3536.3267L13907.6905,-3536.3385L13907.7352,-3536.3562L13907.7659,-3536.3677L13907.8381,-3536.3948L13907.8583,-3536.4024L13907.8786,-3536.41L13907.9115,-3536.4224L13907.9328,-3536.4298L13907.9424,-3536.4329L13907.9645,-3536.4401L13907.9791,-3536.4438L13907.9886,-3536.4462L13908.0103,-3536.4514L13908.0272,-3536.4547L13908.0563,-3536.4596L13908.0661,-3536.4612L13908.0839,-3536.464L13908.1117,-3536.4671L13908.1421,-3536.4698"/>
<path content="1,小田急シティバス（株）,ブルーメッツ号,1.0,1.0,1.0," xlink:title="1" d="M13907.5928,-3536.3126L13907.6025,-3536.3141L13907.6514,-3536.3267L13907.6905,-3536.3385L13907.7352,-3536.3562L13907.7659,-3536.3677L13907.8381,-3536.3948L13907.8583,-3536.4024L13907.8786,-3536.41L13907.9115,-3536.4224L13907.9328,-3536.4298L13907.9424,-3536.4329L13907.9645,-3536.4401L13907.9791,-3536.4438L13907.9886,-3536.4462L13908.0103,-3536.4514L13908.0272,-3536.4547L13908.0563,-3536.4596L13908.0661,-3536.4612L13908.0839,-3536.464L13908.1117,-3536.4671L13908.1421,-3536.4698"/>
<path content="1,小田急シティバス（株）,ルミナス号,1.0,1.0,1.0," xlink:title="1" d="M13908.1421,-3536.4698L13908.1117,-3536.4671L13908.0839,-3536.464L13908.0661,-3536.4612L13908.0563,-3536.4596L13908.0272,-3536.4547L13908.0103,-3536.4514L13907.9886,-3536.4462L13907.9791,-3536.4438L13907.9645,-3536.4401L13907.9424,-3536.4329L13907.9328,-3536.4298L13907.9115,-3536.4224L13907.8786,-3536.41L13907.8583,-3536.4024L13907.8381,-3536.3948L13907.7659,-3536.3677L13907.7352,-3536.3562L13907.6905,-3536.3385L13907.6514,-3536.3267L13907.6025,-3536.3141L13907.5928,-3536.3126"/>
<path content="1,小田急バス（株）,しまんとエクスプレス号,1.0,1.0,1.0," xlink:title="1" d="M13907.5928,-3536.3126L13907.6025,-3536.3141L13907.6514,-3536.3267L13907.6905,-3536.3385L13907.7352,-3536.3562L13907.7659,-3536.3677L13907.8381,-3536.3948L13907.8583,-3536.4024L13907.8786,-3536.41L13907.9115,-3536.4224L13907.9328,-3536.4298L13907.9424,-3536.4329L13907.9645,-3536.4401L13907.9791,-3536.4438L13907.9886,-3536.4462L13908.0103,-3536.4514L13908.0272,-3536.4547L13908.0563,-3536.4596L13908.0661,-3536.4612L13908.0839,-3536.464L13908.1117,-3536.4671L13908.1421,-3536.4698"/>
<path content="1,小田急バス（株）,エトワールセト号,1.0,1.0,1.0," xlink:title="1" d="M13907.5928,-3536.3126L13907.6025,-3536.3141L13907.6514,-3536.3267L13907.6905,-3536.3385L13907.7352,-3536.3562L13907.7659,-3536.3677L13907.8381,-3536.3948L13907.8583,-3536.4024L13907.8786,-3536.41L13907.9115,-3536.4224L13907.9328,-3536.4298L13907.9424,-3536.4329L13907.9645,-3536.4401L13907.9791,-3536.4438L13907.9886,-3536.4462L13908.0103,-3536.4514L13908.0272,-3536.4547L13908.0563,-3536.4596L13908.0661,-3536.4612L13908.0839,-3536.464L13908.1117,-3536.4671L13908.1421,-3536.4698"/>
<path content="1,小田急バス（株）,ニューブリーズ号,2.0,2.0,2.0," xlink:title="1" d="M13907.5928,-3536.3126L13907.6025,-3536.3141L13907.6514,-3536.3267L13907.6905,-3536.3385L13907.7352,-3536.3562L13907.7659,-3536.3677L13907.8381,-3536.3948L13907.8583,-3536.4024L13907.8786,-3536.41L13907.9115,-3536.4224L13907.9328,-3536.4298L13907.9424,-3536.4329L13907.9645,-3536.4401L13907.9791,-3536.4438L13907.9886,-3536.4462L13908.0103,-3536.4514L13908.0272,-3536.4547L13908.0563,-3536.4596L13908.0661,-3536.4612L13908.0839,-3536.464L13908.1117,-3536.4671L13908.1421,-3536.4698"/>
<path content="1,小田急バス（株）,パピヨン号,1.0,1.0,1.0," xlink:title="1" d="M13907.5928,-3536.3126L13907.6025,-3536.3141L13907.6514,-3536.3267L13907.6905,-3536.3385L13907.7352,-3536.3562L13907.7659,-3536.3677L13907.8381,-3536.3948L13907.8583,-3536.4024L13907.8786,-3536.41L13907.9115,-3536.4224L13907.9328,-3536.4298L13907.9424,-3536.4329L13907.9645,-3536.4401L13907.9791,-3536.4438L13907.9886,-3536.4462L13908.0103,-3536.4514L13908.0272,-3536.4547L13908.0563,-3536.4596L13908.0661,-3536.4612L13908.0839,-3536.464L13908.1117,-3536.4671L13908.1421,-3536.4698"/>
<path content="1,小田急バス（株）,ブルーメッツ号,1.0,1.0,1.0," xlink:title="1" d="M13907.5928,-3536.3126L13907.6025,-3536.3141L13907.6514,-3536.3267L13907.6905,-3536.3385L13907.7352,-3536.3562L13907.7659,-3536.3677L13907.8381,-3536.3948L13907.8583,-3536.4024L13907.8786,-3536.41L13907.9115,-3536.4224L13907.9328,-3536.4298L13907.9424,-3536.4329L13907.9645,-3536.4401L13907.9791,-3536.4438L13907.9886,-3536.4462L13908.0103,-3536.4514L13908.0272,-3536.4547L13908.0563,-3536.4596L13908.0661,-3536.4612L13908.0839,-3536.464L13908.1117,-3536.4671L13908.1421,-3536.4698"/>
<path content="1,小田急バス（株）,ルミナス号,1.0,1.0,1.0," xlink:title="1" d="M13908.1421,-3536.4698L13908.1117,-3536.4671L13908.0839,-3536.464L13908.0661,-3536.4612L13908.0563,-3536.4596L13908.0272,-3536.4547L13908.0103,-3536.4514L13907.9886,-3536.4462L13907.9791,-3536.4438L13907.9645,-3536.4401L13907.9424,-3536.4329L13907.9328,-3536.4298L13907.9115,-3536.4224L13907.8786,-3536.41L13907.8583,-3536.4024L13907.8381,-3536.3948L13907.7659,-3536.3677L13907.7352,-3536.3562L13907.6905,-3536.3385L13907.6514,-3536.3267L13907.6025,-3536.3141L13907.5928,-3536.3126"/>
<path content="1,小田急箱根高速バス,ふじやま号,0.2,1.1,1.0," xlink:title="1" d="M13907.5928,-3536.3126L13907.6025,-3536.3141L13907.6514,-3536.3267L13907.6905,-3536.3385L13907.7352,-3536.3562L13907.7659,-3536.3677L13907.8381,-3536.3948L13907.8583,-3536.4024L13907.8786,-3536.41L13907.9115,-3536.4224L13907.9328,-3536.4298L13907.9424,-3536.4329L13907.9645,-3536.4401L13907.9791,-3536.4438L13907.9886,-3536.4462L13908.0103,-3536.4514L13908.0272,-3536.4547L13908.0563,-3536.4596L13908.0661,-3536.4612L13908.0839,-3536.464L13908.1117,-3536.4671L13908.1421,-3536.4698"/>
<path content="1,小田急箱根高速バス,三島エクスプレス,3.0,3.0,3.0," xlink:title="1" d="M13907.5928,-3536.3126L13907.6025,-3536.3141L13907.6514,-3536.3267L13907.6905,-3536.3385L13907.7352,-3536.3562L13907.7659,-3536.3677L13907.8381,-3536.3948L13907.8583,-3536.4024L13907.8786,-3536.41L13907.9115,-3536.4224L13907.9328,-3536.4298L13907.9424,-3536.4329L13907.9645,-3536.4401L13907.9791,-3536.4438L13907.9886,-3536.4462L13908.0103,-3536.4514L13908.0272,-3536.4547L13908.0563,-3536.4596L13908.0661,-3536.4612L13908.0839,-3536.464L13908.1117,-3536.4671L13908.1421,-3536.4698"/>
<path content="1,小田急箱根高速バス,伊豆・新宿ライナー,2.0,2.0,2.0," xlink:title="1" d="M13907.5928,-3536.3126L13907.6025,-3536.3141L13907.6514,-3536.3267L13907.6905,-3536.3385L13907.7352,-3536.3562L13907.7659,-3536.3677L13907.8381,-3536.3948L13907.8583,-3536.4024L13907.8786,-3536.41L13907.9115,-3536.4224L13907.9328,-3536.4298L13907.9424,-3536.4329L13907.9645,-3536.4401L13907.9791,-3536.4438L13907.9886,-3536.4462L13908.0103,-3536.4514L13908.0272,-3536.4547L13908.0563,-3536.4596L13908.0661,-3536.4612L13908.0839,-3536.464L13908.1117,-3536.4671L13908.1421,-3536.4698"/>
<path content="1,小田急箱根高速バス,御殿場プレミアム・アウトレット・新宿駅線,1.0,1.0,1.0," xlink:title="1" d="M13908.1421,-3536.4373L13908.1205,-3536.4357L13908.1092,-3536.4349L13908.0865,-3536.4331L13908.0547,-3536.4292L13908.0153,-3536.421L13907.9751,-3536.4105L13907.9478,-3536.4021L13907.9345,-3536.3967L13907.8955,-3536.3801L13907.869,-3536.369L13907.8549,-3536.3631L13907.8273,-3536.3508L13907.7908,-3536.3346L13907.7069,-3536.2973L13907.6215,-3536.2744L13907.5928,-3536.2683"/>
<path content="1,小田急箱根高速バス,新宿・箱根線,32.9,29.0,32.5," xlink:title="1" d="M13907.5928,-3536.2683L13907.6215,-3536.2744L13907.7069,-3536.2973L13907.7908,-3536.3346L13907.8273,-3536.3508L13907.8549,-3536.3631L13907.869,-3536.369L13907.8955,-3536.3801L13907.9345,-3536.3967L13907.9478,-3536.4021L13907.9751,-3536.4105L13908.0153,-3536.421L13908.0547,-3536.4292L13908.0865,-3536.4331L13908.1092,-3536.4349L13908.1205,-3536.4357L13908.1421,-3536.4373"/>
<path content="1,小田急箱根高速バス,新宿・箱根線,32.9,29.0,32.5," xlink:title="1" d="M13907.5928,-3536.3126L13907.6025,-3536.3141L13907.6514,-3536.3267L13907.6905,-3536.3385L13907.7352,-3536.3562L13907.7659,-3536.3677L13907.8381,-3536.3948L13907.8583,-3536.4024L13907.8786,-3536.41L13907.9115,-3536.4224L13907.9328,-3536.4298L13907.9424,-3536.4329L13907.9645,-3536.4401L13907.9791,-3536.4438L13907.9886,-3536.4462L13908.0103,-3536.4514L13908.0272,-3536.4547L13908.0563,-3536.4596L13908.0661,-3536.4612L13908.0839,-3536.464L13908.1117,-3536.4671L13908.1421,-3536.4698"/>
<path content="1,小田急箱根高速バス,箱根桃源台～御殿場～羽田空港,4.0,4.0,4.0," xlink:title="1" d="M13907.5928,-3536.2683L13907.6215,-3536.2744L13907.7069,-3536.2973L13907.7908,-3536.3346L13907.8273,-3536.3508L13907.8549,-3536.3631L13907.869,-3536.369L13907.8955,-3536.3801L13907.9345,-3536.3967L13907.9478,-3536.4021L13907.9751,-3536.4105L13908.0153,-3536.421L13908.0547,-3536.4292L13908.0865,-3536.4331L13908.1092,-3536.4349L13908.1205,-3536.4357L13908.1421,-3536.4373"/>
<path content="1,小田急箱根高速バス,箱根桃源台～御殿場～羽田空港,4.0,4.0,4.0," xlink:title="1" d="M13907.5928,-3536.3126L13907.6025,-3536.3141L13907.6514,-3536.3267L13907.6905,-3536.3385L13907.7352,-3536.3562L13907.7659,-3536.3677L13907.8381,-3536.3948L13907.8583,-3536.4024L13907.8786,-3536.41L13907.9115,-3536.4224L13907.9328,-3536.4298L13907.9424,-3536.4329L13907.9645,-3536.4401L13907.9791,-3536.4438L13907.9886,-3536.4462L13908.0103,-3536.4514L13908.0272,-3536.4547L13908.0563,-3536.4596L13908.0661,-3536.4612L13908.0839,-3536.464L13908.1117,-3536.4671L13908.1421,-3536.4698"/>
<path content="1,徳島バス（株）,徳島⇔東京,2.0,2.0,2.0," xlink:title="1" d="M13907.5928,-3536.2682L13907.6215,-3536.2743L13907.7068,-3536.2972L13907.7907,-3536.3345L13907.8549,-3536.3631L13907.8955,-3536.38L13907.9448,-3536.4011L13907.975,-3536.4105L13908.0138,-3536.4206L13908.0167,-3536.4212L13908.0547,-3536.4291L13908.0865,-3536.433L13908.1092,-3536.4349L13908.1204,-3536.4357L13908.1421,-3536.4373"/>
<path content="1,成田空港交通,和歌山線,1.0,1.0,1.0," xlink:title="1" d="M13907.5928,-3536.3126L13907.6025,-3536.3141L13907.6514,-3536.3267L13907.6905,-3536.3385L13907.7352,-3536.3562L13907.7659,-3536.3677L13907.8381,-3536.3948L13907.8583,-3536.4024L13907.8786,-3536.41L13907.9115,-3536.4224L13907.9328,-3536.4298L13907.9424,-3536.4329L13907.9645,-3536.4401L13907.9791,-3536.4438L13907.9886,-3536.4462L13908.0103,-3536.4514L13908.0272,-3536.4547L13908.0563,-3536.4596L13908.0661,-3536.4612L13908.0839,-3536.464L13908.1117,-3536.4671L13908.1421,-3536.4698"/>
<path content="1,新常磐交通（株）,シーガル号,1.0,1.0,1.0," xlink:title="1" d="M13907.5928,-3536.3126L13907.6025,-3536.3141L13907.6514,-3536.3267L13907.6905,-3536.3385L13907.7352,-3536.3562L13907.7659,-3536.3677L13907.8381,-3536.3948L13907.8583,-3536.4024L13907.8786,-3536.41L13907.9115,-3536.4224L13907.9328,-3536.4298L13907.9424,-3536.4329L13907.9645,-3536.4401L13907.9791,-3536.4438L13907.9886,-3536.4462L13908.0103,-3536.4514L13908.0272,-3536.4547L13908.0563,-3536.4596L13908.0661,-3536.4612L13908.0839,-3536.464L13908.1117,-3536.4671L13908.1421,-3536.4698"/>
<path content="1,日ノ丸自動車（株）,東京‐米子線,1.0,1.0,1.0," xlink:title="1" d="M13907.5928,-3536.3125L13907.6024,-3536.314L13907.6514,-3536.3266L13907.692,-3536.3389L13907.7352,-3536.3562L13907.8354,-3536.3938L13907.8583,-3536.4024L13907.9115,-3536.4223L13907.9328,-3536.4298L13907.9645,-3536.4401L13907.9886,-3536.4462L13908.0103,-3536.4514L13908.0285,-3536.455L13908.0562,-3536.4596L13908.0839,-3536.464L13908.1117,-3536.467L13908.1421,-3536.4697"/>
<path content="1,日ノ丸自動車（株）,東京‐鳥取・倉吉線,1.0,1.0,1.0," xlink:title="1" d="M13907.5928,-3536.3125L13907.6024,-3536.314L13907.6514,-3536.3266L13907.692,-3536.3389L13907.7352,-3536.3562L13907.8354,-3536.3938L13907.8583,-3536.4024L13907.9115,-3536.4223L13907.9328,-3536.4298L13907.9645,-3536.4401L13907.9886,-3536.4462L13908.0103,-3536.4514L13908.0285,-3536.455L13908.0562,-3536.4596L13908.0839,-3536.464L13908.1117,-3536.467L13908.1421,-3536.4697"/>
<path content="1,日本中央バス（株）,シルクライナー,5.0,5.0,5.0," xlink:title="1" d="M13907.5928,-3536.3126L13907.6025,-3536.3141L13907.6514,-3536.3267L13907.6905,-3536.3385L13907.7352,-3536.3562L13907.7659,-3536.3677L13907.8381,-3536.3948L13907.8583,-3536.4024L13907.8786,-3536.41L13907.9115,-3536.4224L13907.9328,-3536.4298L13907.9424,-3536.4329L13907.9645,-3536.4401L13907.9791,-3536.4438L13907.9886,-3536.4462L13908.0103,-3536.4514L13908.0272,-3536.4547L13908.0563,-3536.4596L13908.0661,-3536.4612L13908.0839,-3536.464L13908.1117,-3536.4671L13908.1421,-3536.4698"/>
<path content="1,日本中央バス（株）,東海ライナー,2.0,2.0,2.0," xlink:title="1" d="M13907.5928,-3536.3126L13907.6025,-3536.3141L13907.6514,-3536.3267L13907.6905,-3536.3385L13907.7352,-3536.3562L13907.7659,-3536.3677L13907.8381,-3536.3948L13907.8583,-3536.4024L13907.8786,-3536.41L13907.9115,-3536.4224L13907.9328,-3536.4298L13907.9424,-3536.4329L13907.9645,-3536.4401L13907.9791,-3536.4438L13907.9886,-3536.4462L13908.0103,-3536.4514L13908.0272,-3536.4547L13908.0563,-3536.4596L13908.0661,-3536.4612L13908.0839,-3536.464L13908.1117,-3536.4671L13908.1421,-3536.4698"/>
<path content="1,日本交通（株）,米子～東京線,1.0,1.0,1.0," xlink:title="1" d="M13907.5928,-3536.3125L13907.6024,-3536.314L13907.6514,-3536.3266L13907.692,-3536.3389L13907.7352,-3536.3562L13907.8354,-3536.3938L13907.8583,-3536.4024L13907.9115,-3536.4223L13907.9328,-3536.4298L13907.9645,-3536.4401L13907.9886,-3536.4462L13908.0103,-3536.4514L13908.0285,-3536.455L13908.0562,-3536.4596L13908.0839,-3536.464L13908.1117,-3536.467L13908.1421,-3536.4697"/>
<path content="1,日本交通（株）,鳥取・倉吉～東京線,1.0,1.0,1.0," xlink:title="1" d="M13907.5928,-3536.3125L13907.6024,-3536.314L13907.6514,-3536.3266L13907.692,-3536.3389L13907.7352,-3536.3562L13907.8354,-3536.3938L13907.8583,-3536.4024L13907.9115,-3536.4223L13907.9328,-3536.4298L13907.9645,-3536.4401L13907.9886,-3536.4462L13908.0103,-3536.4514L13908.0285,-3536.455L13908.0562,-3536.4596L13908.0839,-3536.464L13908.1117,-3536.467L13908.1421,-3536.4697"/>
<path content="1,東北急行バス（株）,ままかりライナー,1.0,1.0,1.0," xlink:title="1" d="M13907.5928,-3536.3126L13907.6025,-3536.3141L13907.6514,-3536.3267L13907.6905,-3536.3385L13907.7352,-3536.3562L13907.7659,-3536.3677L13907.8381,-3536.3948L13907.8583,-3536.4024L13907.8786,-3536.41L13907.9115,-3536.4224L13907.9328,-3536.4298L13907.9424,-3536.4329L13907.9645,-3536.4401L13907.9791,-3536.4438L13907.9886,-3536.4462L13908.0103,-3536.4514L13908.0272,-3536.4547L13908.0563,-3536.4596L13908.0661,-3536.4612L13908.0839,-3536.464L13908.1117,-3536.4671L13908.1421,-3536.4698"/>
<path content="1,東北急行バス（株）,フライングスニーカー京都・茨木号,1.0,1.0,1.0," xlink:title="1" d="M13908.1421,-3536.4698L13908.1117,-3536.4671L13908.0839,-3536.464L13908.0661,-3536.4612L13908.0563,-3536.4596L13908.0272,-3536.4547L13908.0103,-3536.4514L13907.9886,-3536.4462L13907.9791,-3536.4438L13907.9645,-3536.4401L13907.9424,-3536.4329L13907.9328,-3536.4298L13907.9115,-3536.4224L13907.8786,-3536.41L13907.8583,-3536.4024L13907.8381,-3536.3948L13907.7659,-3536.3677L13907.7352,-3536.3562L13907.6905,-3536.3385L13907.6514,-3536.3267L13907.6025,-3536.3141L13907.5928,-3536.3126"/>
<path content="1,東北急行バス（株）,フライングスニーカー大坂号,1.0,1.0,1.0," xlink:title="1" d="M13908.1421,-3536.4698L13908.1117,-3536.4671L13908.0839,-3536.464L13908.0661,-3536.4612L13908.0563,-3536.4596L13908.0272,-3536.4547L13908.0103,-3536.4514L13907.9886,-3536.4462L13907.9791,-3536.4438L13907.9645,-3536.4401L13907.9424,-3536.4329L13907.9328,-3536.4298L13907.9115,-3536.4224L13907.8786,-3536.41L13907.8583,-3536.4024L13907.8381,-3536.3948L13907.7659,-3536.3677L13907.7352,-3536.3562L13907.6905,-3536.3385L13907.6514,-3536.3267L13907.6025,-3536.3141L13907.5928,-3536.3126"/>
<path content="1,東北急行バス（株）,フライングライナー号,1.0,1.0,1.0," xlink:title="1" d="M13908.1421,-3536.4698L13908.1117,-3536.4671L13908.0839,-3536.464L13908.0661,-3536.4612L13908.0563,-3536.4596L13908.0272,-3536.4547L13908.0103,-3536.4514L13907.9886,-3536.4462L13907.9791,-3536.4438L13907.9645,-3536.4401L13907.9424,-3536.4329L13907.9328,-3536.4298L13907.9115,-3536.4224L13907.8786,-3536.41L13907.8583,-3536.4024L13907.8381,-3536.3948L13907.7659,-3536.3677L13907.7352,-3536.3562L13907.6905,-3536.3385L13907.6514,-3536.3267L13907.6025,-3536.3141L13907.5928,-3536.3126"/>
<path content="1,江ノ電バス藤沢,サザンクロス,1.0,1.0,1.0," xlink:title="1" d="M13908.1421,-3536.4373L13908.1205,-3536.4357L13908.1092,-3536.4349L13908.0865,-3536.4331L13908.0547,-3536.4292L13908.0153,-3536.421L13907.9751,-3536.4105L13907.9478,-3536.4021L13907.9345,-3536.3967L13907.8955,-3536.3801L13907.869,-3536.369L13907.8549,-3536.3631L13907.8273,-3536.3508L13907.7908,-3536.3346L13907.7069,-3536.2973L13907.6215,-3536.2744L13907.5928,-3536.2683"/>
<path content="1,江ノ電バス藤沢,横浜・鎌倉・藤沢～金沢線,1.0,1.0,1.0," xlink:title="1" d="M13908.1421,-3536.4373L13908.1205,-3536.4357L13908.1092,-3536.4349L13908.0865,-3536.4331L13908.0547,-3536.4292L13908.0153,-3536.421L13907.9751,-3536.4105L13907.9478,-3536.4021L13907.9345,-3536.3967L13907.8955,-3536.3801L13907.869,-3536.369L13907.8549,-3536.3631L13907.8273,-3536.3508L13907.7908,-3536.3346L13907.7069,-3536.2973L13907.6215,-3536.2744L13907.5928,-3536.2683"/>
<path content="1,瀬戸内運輸（株）,パイレーツ　今治⇔東京,1.0,1.0,1.0," xlink:title="1" d="M13907.5928,-3536.2682L13907.6215,-3536.2743L13907.7068,-3536.2972L13907.7907,-3536.3345L13907.8549,-3536.3631L13907.8955,-3536.38L13907.9448,-3536.4011L13907.975,-3536.4105L13908.0138,-3536.4206L13908.0167,-3536.4212L13908.0547,-3536.4291L13908.0865,-3536.433L13908.1092,-3536.4349L13908.1204,-3536.4357L13908.1421,-3536.4373"/>
<path content="1,琴平バス（株）,愛媛・高知シャトル,2.0,2.0,2.0," xlink:title="1" d="M13907.5928,-3536.2682L13907.6215,-3536.2743L13907.7068,-3536.2972L13907.7907,-3536.3345L13907.8549,-3536.3631L13907.8955,-3536.38L13907.9448,-3536.4011L13907.975,-3536.4105L13908.0138,-3536.4206L13908.0167,-3536.4212L13908.0547,-3536.4291L13908.0865,-3536.433L13908.1092,-3536.4349L13908.1204,-3536.4357L13908.1421,-3536.4373"/>
<path content="1,相鉄バス（株）,横浜駅西口～河口湖駅,3.0,3.0,3.0," xlink:title="1" d="M13908.1421,-3536.4373L13908.1205,-3536.4357L13908.1092,-3536.4349L13908.0865,-3536.4331L13908.0547,-3536.4292L13908.0153,-3536.421L13907.9751,-3536.4105L13907.9478,-3536.4021L13907.9345,-3536.3967L13907.8955,-3536.3801L13907.869,-3536.369L13907.8549,-3536.3631L13907.8273,-3536.3508L13907.7908,-3536.3346L13907.7069,-3536.2973L13907.6215,-3536.2744L13907.5928,-3536.2683"/>
<path content="1,神姫バス（株）,姫路・神戸（三ノ宮）-東京（渋谷・新宿）,1.0,1.0,1.0," xlink:title="1" d="M13907.5928,-3536.2682L13907.6215,-3536.2743L13907.7068,-3536.2972L13907.7907,-3536.3345L13907.8549,-3536.3631L13907.8955,-3536.38L13907.9448,-3536.4011L13907.975,-3536.4105L13908.0138,-3536.4206L13908.0167,-3536.4212L13908.0547,-3536.4291L13908.0865,-3536.433L13908.1092,-3536.4349L13908.1204,-3536.4357L13908.1421,-3536.4373"/>
<path content="1,福井鉄道（株）,福井⇔東京,3.0,3.0,3.0," xlink:title="1" d="M13907.5928,-3536.2682L13907.6215,-3536.2743L13907.7068,-3536.2972L13907.7907,-3536.3345L13907.8549,-3536.3631L13907.8955,-3536.38L13907.9448,-3536.4011L13907.975,-3536.4105L13908.0138,-3536.4206L13908.0167,-3536.4212L13908.0547,-3536.4291L13908.0865,-3536.433L13908.1092,-3536.4349L13908.1204,-3536.4357L13908.1421,-3536.4373"/>
<path content="1,福島交通（株）,福島高速バスターミナル～大阪あべの橋,1.0,1.0,1.0," xlink:title="1" d="M13907.5928,-3536.3126L13907.6025,-3536.3141L13907.6514,-3536.3267L13907.6905,-3536.3385L13907.7352,-3536.3562L13907.7659,-3536.3677L13907.8381,-3536.3948L13907.8583,-3536.4024L13907.8786,-3536.41L13907.9115,-3536.4224L13907.9328,-3536.4298L13907.9424,-3536.4329L13907.9645,-3536.4401L13907.9791,-3536.4438L13907.9886,-3536.4462L13908.0103,-3536.4514L13908.0272,-3536.4547L13908.0563,-3536.4596L13908.0661,-3536.4612L13908.0839,-3536.464L13908.1117,-3536.4671L13908.1421,-3536.4698"/>
<path content="1,西日本鉄道（株）,福岡　～　東京　（はかた号））,1.0,1.0,1.0," xlink:title="1" d="M13907.5928,-3536.3125L13907.6024,-3536.314L13907.6514,-3536.3266L13907.692,-3536.3389L13907.7352,-3536.3562L13907.8354,-3536.3938L13907.8583,-3536.4024L13907.9115,-3536.4223L13907.9328,-3536.4298L13907.9645,-3536.4401L13907.9886,-3536.4462L13908.0103,-3536.4514L13908.0285,-3536.455L13908.0562,-3536.4596L13908.0839,-3536.464L13908.1117,-3536.467L13908.1421,-3536.4697"/>
<path content="1,西東京バス（株）,ハローブリッジ号,1.0,1.0,1.0," xlink:title="1" d="M13907.5928,-3536.3126L13907.6025,-3536.3141L13907.6514,-3536.3267L13907.6905,-3536.3385L13907.7352,-3536.3562L13907.7659,-3536.3677L13907.8381,-3536.3948L13907.8583,-3536.4024L13907.8786,-3536.41L13907.9115,-3536.4224L13907.9328,-3536.4298L13907.9424,-3536.4329L13907.9645,-3536.4401L13907.9791,-3536.4438L13907.9886,-3536.4462L13908.0103,-3536.4514L13908.0272,-3536.4547L13908.0563,-3536.4596L13908.0661,-3536.4612L13908.0839,-3536.464L13908.1117,-3536.4671L13908.1421,-3536.4698"/>
<path content="1,西武観光バス,びわこドリーム号,1.0,1.0,1.0," xlink:title="1" d="M13908.1421,-3536.4373L13908.1205,-3536.4357L13908.1092,-3536.4349L13908.0865,-3536.4331L13908.0547,-3536.4292L13908.0153,-3536.421L13907.9751,-3536.4105L13907.9478,-3536.4021L13907.9345,-3536.3967L13907.8955,-3536.3801L13907.869,-3536.369L13907.8549,-3536.3631L13907.8273,-3536.3508L13907.7908,-3536.3346L13907.7069,-3536.2973L13907.6215,-3536.2744L13907.5928,-3536.2683"/>
<path content="1,西武観光バス,大宮・池袋・横浜～南紀勝浦線,1.0,1.0,1.0," xlink:title="1" d="M13908.1421,-3536.4373L13908.1205,-3536.4357L13908.1092,-3536.4349L13908.0865,-3536.4331L13908.0547,-3536.4292L13908.0153,-3536.421L13907.9751,-3536.4105L13907.9478,-3536.4021L13907.9345,-3536.3967L13907.8955,-3536.3801L13907.869,-3536.369L13907.8549,-3536.3631L13907.8273,-3536.3508L13907.7908,-3536.3346L13907.7069,-3536.2973L13907.6215,-3536.2744L13907.5928,-3536.2683"/>
<path content="1,西武観光バス,宇和島線,1.0,1.0,1.0," xlink:title="1" d="M13908.1421,-3536.4373L13908.1205,-3536.4357L13908.1092,-3536.4349L13908.0865,-3536.4331L13908.0547,-3536.4292L13908.0153,-3536.421L13907.9751,-3536.4105L13907.9478,-3536.4021L13907.9345,-3536.3967L13907.8955,-3536.3801L13907.869,-3536.369L13907.8549,-3536.3631L13907.8273,-3536.3508L13907.7908,-3536.3346L13907.7069,-3536.2973L13907.6215,-3536.2744L13907.5928,-3536.2683"/>
<path content="1,豊鉄バス（株）,田原～練馬,1.0,1.0,1.0," xlink:title="1" d="M13907.5928,-3536.2682L13907.6215,-3536.2743L13907.7068,-3536.2972L13907.7907,-3536.3345L13907.8549,-3536.3631L13907.8955,-3536.38L13907.9448,-3536.4011L13907.975,-3536.4105L13908.0138,-3536.4206L13908.0167,-3536.4212L13908.0547,-3536.4291L13908.0865,-3536.433L13908.1092,-3536.4349L13908.1204,-3536.4357L13908.1421,-3536.4373"/>
<path content="1,近鉄バス（株）,大日・茨木・京都⇔東京駅,1.0,1.0,1.0," xlink:title="1" d="M13907.5928,-3536.2682L13907.6215,-3536.2743L13907.7068,-3536.2972L13907.7907,-3536.3345L13907.8549,-3536.3631L13907.8955,-3536.38L13907.9448,-3536.4011L13907.975,-3536.4105L13908.0138,-3536.4206L13908.0167,-3536.4212L13908.0547,-3536.4291L13908.0865,-3536.433L13908.1092,-3536.4349L13908.1204,-3536.4357L13908.1421,-3536.4373"/>
<path content="1,近鉄バス（株）,大阪⇔東京駅,1.0,1.0,1.0," xlink:title="1" d="M13907.5928,-3536.2682L13907.6215,-3536.2743L13907.7068,-3536.2972L13907.7907,-3536.3345L13907.8549,-3536.3631L13907.8955,-3536.38L13907.9448,-3536.4011L13907.975,-3536.4105L13908.0138,-3536.4206L13908.0167,-3536.4212L13908.0547,-3536.4291L13908.0865,-3536.433L13908.1092,-3536.4349L13908.1204,-3536.4357L13908.1421,-3536.4373"/>
<path content="1,近鉄バス（株）,大阪・京都⇔つくば・水戸,1.0,1.0,1.0," xlink:title="1" d="M13907.5928,-3536.2682L13907.6215,-3536.2743L13907.7068,-3536.2972L13907.7907,-3536.3345L13907.8549,-3536.3631L13907.8955,-3536.38L13907.9448,-3536.4011L13907.975,-3536.4105L13908.0138,-3536.4206L13908.0167,-3536.4212L13908.0547,-3536.4291L13908.0865,-3536.433L13908.1092,-3536.4349L13908.1204,-3536.4357L13908.1421,-3536.4373"/>
<path content="1,近鉄バス（株）,大阪・京都⇔久喜・栃木・宇都宮,1.0,1.0,1.0," xlink:title="1" d="M13907.5928,-3536.2682L13907.6215,-3536.2743L13907.7068,-3536.2972L13907.7907,-3536.3345L13907.8549,-3536.3631L13907.8955,-3536.38L13907.9448,-3536.4011L13907.975,-3536.4105L13908.0138,-3536.4206L13908.0167,-3536.4212L13908.0547,-3536.4291L13908.0865,-3536.433L13908.1092,-3536.4349L13908.1204,-3536.4357L13908.1421,-3536.4373"/>
<path content="1,近鉄バス（株）,大阪・京都⇔仙台,1.0,1.0,1.0," xlink:title="1" d="M13907.5928,-3536.2682L13907.6215,-3536.2743L13907.7068,-3536.2972L13907.7907,-3536.3345L13907.8549,-3536.3631L13907.8955,-3536.38L13907.9448,-3536.4011L13907.975,-3536.4105L13908.0138,-3536.4206L13908.0167,-3536.4212L13908.0547,-3536.4291L13908.0865,-3536.433L13908.1092,-3536.4349L13908.1204,-3536.4357L13908.1421,-3536.4373"/>
<path content="1,近鉄バス（株）,大阪・京都⇔川越・坂戸・熊谷,1.0,1.0,1.0," xlink:title="1" d="M13907.5928,-3536.2682L13907.6215,-3536.2743L13907.7068,-3536.2972L13907.7907,-3536.3345L13907.8549,-3536.3631L13907.8955,-3536.38L13907.9448,-3536.4011L13907.975,-3536.4105L13908.0138,-3536.4206L13908.0167,-3536.4212L13908.0547,-3536.4291L13908.0865,-3536.433L13908.1092,-3536.4349L13908.1204,-3536.4357L13908.1421,-3536.4373"/>
<path content="1,近鉄バス（株）,大阪・京都⇔日立・いわき,1.0,1.0,1.0," xlink:title="1" d="M13907.5928,-3536.2682L13907.6215,-3536.2743L13907.7068,-3536.2972L13907.7907,-3536.3345L13907.8549,-3536.3631L13907.8955,-3536.38L13907.9448,-3536.4011L13907.975,-3536.4105L13908.0138,-3536.4206L13908.0167,-3536.4212L13908.0547,-3536.4291L13908.0865,-3536.433L13908.1092,-3536.4349L13908.1204,-3536.4357L13908.1421,-3536.4373"/>
<path content="1,近鉄バス（株）,大阪・京都⇔沼津・御殿場・新松田・小田原,1.0,1.0,1.0," xlink:title="1" d="M13907.5928,-3536.2682L13907.6215,-3536.2743L13907.7068,-3536.2972L13907.7907,-3536.3345L13907.8549,-3536.3631L13907.8955,-3536.38L13907.9448,-3536.4011L13907.975,-3536.4105L13908.0138,-3536.4206L13908.0167,-3536.4212L13908.0547,-3536.4291L13908.0865,-3536.433L13908.1092,-3536.4349L13908.1204,-3536.4357L13908.1421,-3536.4373"/>
<path content="1,近鉄バス（株）,大阪・京都⇔郡山・福島,1.0,1.0,1.0," xlink:title="1" d="M13907.5928,-3536.2682L13907.6215,-3536.2743L13907.7068,-3536.2972L13907.7907,-3536.3345L13907.8549,-3536.3631L13907.8955,-3536.38L13907.9448,-3536.4011L13907.975,-3536.4105L13908.0138,-3536.4206L13908.0167,-3536.4212L13908.0547,-3536.4291L13908.0865,-3536.433L13908.1092,-3536.4349L13908.1204,-3536.4357L13908.1421,-3536.4373"/>
<path content="1,近鉄バス（株）,大阪・茨木⇔新宿,1.0,1.0,1.0," xlink:title="1" d="M13907.5928,-3536.2682L13907.6215,-3536.2743L13907.7068,-3536.2972L13907.7907,-3536.3345L13907.8549,-3536.3631L13907.8955,-3536.38L13907.9448,-3536.4011L13907.975,-3536.4105L13908.0138,-3536.4206L13908.0167,-3536.4212L13908.0547,-3536.4291L13908.0865,-3536.433L13908.1092,-3536.4349L13908.1204,-3536.4357L13908.1421,-3536.4373"/>
<path content="1,近鉄バス（株）,藤井寺・大阪・京都⇔東京駅・横浜,1.0,1.0,1.0," xlink:title="1" d="M13907.5928,-3536.2682L13907.6215,-3536.2743L13907.7068,-3536.2972L13907.7907,-3536.3345L13907.8549,-3536.3631L13907.8955,-3536.38L13907.9448,-3536.4011L13907.975,-3536.4105L13908.0138,-3536.4206L13908.0167,-3536.4212L13908.0547,-3536.4291L13908.0865,-3536.433L13908.1092,-3536.4349L13908.1204,-3536.4357L13908.1421,-3536.4373"/>
<path content="1,遠州鉄道（株）,イーライナー,2.0,2.0,2.0," xlink:title="1" d="M13907.5928,-3536.2682L13907.6215,-3536.2743L13907.7068,-3536.2972L13907.7907,-3536.3345L13907.8549,-3536.3631L13907.8955,-3536.38L13907.9448,-3536.4011L13907.975,-3536.4105L13908.0138,-3536.4206L13908.0167,-3536.4212L13908.0547,-3536.4291L13908.0865,-3536.433L13908.1092,-3536.4349L13908.1204,-3536.4357L13908.1421,-3536.4373"/>
<path content="1,関東バス（株）,ほの国号,1.0,1.0,1.0," xlink:title="1" d="M13907.5928,-3536.2683L13907.6215,-3536.2744L13907.7069,-3536.2973L13907.7908,-3536.3346L13907.8273,-3536.3508L13907.8549,-3536.3631L13907.869,-3536.369L13907.8955,-3536.3801L13907.9345,-3536.3967L13907.9478,-3536.4021L13907.9751,-3536.4105L13908.0153,-3536.421L13908.0547,-3536.4292L13908.0865,-3536.4331L13908.1092,-3536.4349L13908.1205,-3536.4357L13908.1421,-3536.4373"/>
<path content="1,関東バス（株）,やまと号,2.0,2.0,2.0," xlink:title="1" d="M13908.1421,-3536.4373L13908.1205,-3536.4357L13908.1092,-3536.4349L13908.0865,-3536.4331L13908.0547,-3536.4292L13908.0153,-3536.421L13907.9751,-3536.4105L13907.9478,-3536.4021L13907.9345,-3536.3967L13907.8955,-3536.3801L13907.869,-3536.369L13907.8549,-3536.3631L13907.8273,-3536.3508L13907.7908,-3536.3346L13907.7069,-3536.2973L13907.6215,-3536.2744L13907.5928,-3536.2683"/>
<path content="1,関東バス（株）,マスカット号,1.0,1.0,1.0," xlink:title="1" d="M13907.5928,-3536.2683L13907.6215,-3536.2744L13907.7069,-3536.2973L13907.7908,-3536.3346L13907.8273,-3536.3508L13907.8549,-3536.3631L13907.869,-3536.369L13907.8955,-3536.3801L13907.9345,-3536.3967L13907.9478,-3536.4021L13907.9751,-3536.4105L13908.0153,-3536.421L13908.0547,-3536.4292L13908.0865,-3536.4331L13908.1092,-3536.4349L13908.1205,-3536.4357L13908.1421,-3536.4373"/>
<path content="1,関東バス（株）,東京ミッドナイトエクスプレス京都号,1.0,1.0,1.0," xlink:title="1" d="M13908.1421,-3536.4373L13908.1205,-3536.4357L13908.1092,-3536.4349L13908.0865,-3536.4331L13908.0547,-3536.4292L13908.0153,-3536.421L13907.9751,-3536.4105L13907.9478,-3536.4021L13907.9345,-3536.3967L13907.8955,-3536.3801L13907.869,-3536.369L13907.8549,-3536.3631L13907.8273,-3536.3508L13907.7908,-3536.3346L13907.7069,-3536.2973L13907.6215,-3536.2744L13907.5928,-3536.2683"/>
<path content="1,関東自動車（株）,とちの木号,1.0,1.0,1.0," xlink:title="1" d="M13908.1421,-3536.4373L13908.1205,-3536.4357L13908.1092,-3536.4349L13908.0865,-3536.4331L13908.0547,-3536.4292L13908.0153,-3536.421L13907.9751,-3536.4105L13907.9478,-3536.4021L13907.9345,-3536.3967L13907.8955,-3536.3801L13907.869,-3536.369L13907.8549,-3536.3631L13907.8273,-3536.3508L13907.7908,-3536.3346L13907.7069,-3536.2973L13907.6215,-3536.2744L13907.5928,-3536.2683"/>
<path content="1,関東鉄道（株）,水戸駅南口～あべの橋駅（JR天王寺駅）,1.0,1.0,1.0," xlink:title="1" d="M13908.1421,-3536.4698L13908.1117,-3536.4671L13908.0839,-3536.464L13908.0661,-3536.4612L13908.0563,-3536.4596L13908.0272,-3536.4547L13908.0103,-3536.4514L13907.9886,-3536.4462L13907.9791,-3536.4438L13907.9645,-3536.4401L13907.9424,-3536.4329L13907.9328,-3536.4298L13907.9115,-3536.4224L13907.8786,-3536.41L13907.8583,-3536.4024L13907.8381,-3536.3948L13907.7659,-3536.3677L13907.7352,-3536.3562L13907.6905,-3536.3385L13907.6514,-3536.3267L13907.6025,-3536.3141L13907.5928,-3536.3126"/>
<path content="1,阪急バス（株）,東京・東京ディズニーリゾート・千葉行,1.0,1.0,1.0," xlink:title="1" d="M13907.5928,-3536.2682L13907.6215,-3536.2743L13907.7068,-3536.2972L13907.7907,-3536.3345L13907.8549,-3536.3631L13907.8955,-3536.38L13907.9448,-3536.4011L13907.975,-3536.4105L13908.0138,-3536.4206L13908.0167,-3536.4212L13908.0547,-3536.4291L13908.0865,-3536.433L13908.1092,-3536.4349L13908.1204,-3536.4357L13908.1421,-3536.4373"/>
<path content="1,阪急バス（株）,横浜・品川・池袋行,1.0,1.0,1.0," xlink:title="1" d="M13908.1421,-3536.4373L13908.1204,-3536.4357L13908.1092,-3536.4349L13908.0865,-3536.433L13908.0547,-3536.4291L13908.0167,-3536.4212L13908.0138,-3536.4206L13907.975,-3536.4105L13907.9448,-3536.4011L13907.8955,-3536.38L13907.8549,-3536.3631L13907.7907,-3536.3345L13907.7068,-3536.2972L13907.6215,-3536.2743L13907.5928,-3536.2682"/>
<path content="1,阪神バス（株）,サラダエクスプレス　神戸・大阪⇔東京ディズニーリゾート,1.0,1.0,1.0," xlink:title="1" d="M13907.5928,-3536.2682L13907.6215,-3536.2743L13907.7068,-3536.2972L13907.7907,-3536.3345L13907.8549,-3536.3631L13907.8955,-3536.38L13907.9448,-3536.4011L13907.975,-3536.4105L13908.0138,-3536.4206L13908.0167,-3536.4212L13908.0547,-3536.4291L13908.0865,-3536.433L13908.1092,-3536.4349L13908.1204,-3536.4357L13908.1421,-3536.4373"/>
<path content="1,防長交通（株）,萩・山口・防府・徳山・岩国～東京,1.0,1.0,1.0," xlink:title="1" d="M13907.5928,-3536.3125L13907.6024,-3536.314L13907.6514,-3536.3266L13907.692,-3536.3389L13907.7352,-3536.3562L13907.8354,-3536.3938L13907.8583,-3536.4024L13907.9115,-3536.4223L13907.9328,-3536.4298L13907.9645,-3536.4401L13907.9886,-3536.4462L13908.0103,-3536.4514L13908.0285,-3536.455L13908.0562,-3536.4596L13908.0839,-3536.464L13908.1117,-3536.467L13908.1421,-3536.4697"/>
<path content="1,高知県交通（株）,ブルーメッツ号　高知⇔東京線,1.0,1.0,1.0," xlink:title="1" d="M13907.5928,-3536.2682L13907.6215,-3536.2743L13907.7068,-3536.2972L13907.7907,-3536.3345L13907.8549,-3536.3631L13907.8955,-3536.38L13907.9448,-3536.4011L13907.975,-3536.4105L13908.0138,-3536.4206L13908.0167,-3536.4212L13908.0547,-3536.4291L13908.0865,-3536.433L13908.1092,-3536.4349L13908.1204,-3536.4357L13908.1421,-3536.4373"/>
<path content="1,（株）中伊豆東海バス,伊豆新宿ライナー,2.0,2.0,2.0," xlink:title="1" d="M13907.5928,-3536.2682L13907.6215,-3536.2743L13907.7068,-3536.2972L13907.7907,-3536.3345L13907.8549,-3536.3631L13907.8955,-3536.38L13907.9448,-3536.4011L13907.975,-3536.4105L13908.0138,-3536.4206L13908.0167,-3536.4212L13908.0547,-3536.4291L13908.0865,-3536.433L13908.1092,-3536.4349L13908.1204,-3536.4357L13908.1421,-3536.4373"/>
<path content="1,（株）中国バス,夜行便　東京線,1.0,1.0,1.0," xlink:title="1" d="M13908.1421,-3536.4697L13908.1117,-3536.467L13908.0839,-3536.464L13908.0562,-3536.4596L13908.0285,-3536.455L13908.0103,-3536.4514L13907.9886,-3536.4462L13907.9645,-3536.4401L13907.9328,-3536.4298L13907.9115,-3536.4223L13907.8583,-3536.4024L13907.8354,-3536.3938L13907.7352,-3536.3562L13907.692,-3536.3389L13907.6514,-3536.3266L13907.6024,-3536.314L13907.5928,-3536.3125"/>
<path content="1,（株）中国バス,夜行便　横浜線,1.0,1.0,1.0," xlink:title="1" d="M13908.1421,-3536.4697L13908.1117,-3536.467L13908.0839,-3536.464L13908.0562,-3536.4596L13908.0285,-3536.455L13908.0103,-3536.4514L13907.9886,-3536.4462L13907.9645,-3536.4401L13907.9328,-3536.4298L13907.9115,-3536.4223L13907.8583,-3536.4024L13907.8354,-3536.3938L13907.7352,-3536.3562L13907.692,-3536.3389L13907.6514,-3536.3266L13907.6024,-3536.314L13907.5928,-3536.3125"/>
<path content="1,（株）沼津登山東海バス,三島エクスプレス,3.0,3.0,3.0," xlink:title="1" d="M13907.5928,-3536.2682L13907.6215,-3536.2743L13907.7068,-3536.2972L13907.7907,-3536.3345L13907.8549,-3536.3631L13907.8955,-3536.38L13907.9448,-3536.4011L13907.975,-3536.4105L13908.0138,-3536.4206L13908.0167,-3536.4212L13908.0547,-3536.4291L13908.0865,-3536.433L13908.1092,-3536.4349L13908.1204,-3536.4357L13908.1421,-3536.4373"/>
<path content="3,山北町,南部循環線,15.0,11.0,11.0," xlink:title="3" d="M13908.1421,-3536.2012L13908.1379,-3536.2005L13908.129,-3536.1983L13908.0884,-3536.1912L13908.0877,-3536.191L13908.087,-3536.1907L13908.0603,-3536.1848L13908.0204,-3536.1769L13907.9979,-3536.1726L13907.9887,-3536.1701"/>
<path content="3,山北町,南部循環線,15.0,11.0,11.0," xlink:title="3" d="M13908.0188,-3536.0952L13908.0025,-3536.1194L13907.9956,-3536.1453L13907.9887,-3536.1701"/>
<path content="3,山北町,南部循環線,15.0,11.0,11.0," xlink:title="3" d="M13907.9887,-3536.1701L13907.9887,-3536.1701L13907.9887,-3536.1701L13907.9846,-3536.1693L13907.9826,-3536.1689L13907.9206,-3536.1562L13907.8966,-3536.1504L13907.8684,-3536.1447L13907.8372,-3536.1377L13907.8031,-3536.1301L13907.7897,-3536.1273L13907.7715,-3536.1234L13907.7626,-3536.1211L13907.755,-3536.12L13907.733,-3536.1143L13907.6973,-3536.1064L13907.6753,-3536.1019L13907.5928,-3536.0833"/>
<path content="3,山北町,東部循環,3.0,0.0,0.0," xlink:title="3" d="M13908.0188,-3536.0952L13908.0025,-3536.1194L13907.9956,-3536.1453L13907.9887,-3536.1701L13907.9887,-3536.1701L13907.9979,-3536.1726L13908.0204,-3536.1769L13908.0603,-3536.1848L13908.087,-3536.1907L13908.0877,-3536.191L13908.0884,-3536.1912L13908.129,-3536.1983L13908.1379,-3536.2005L13908.1421,-3536.2012"/>
<path content="3,山北町,西部循環線,6.0,0.0,0.0," xlink:title="3" d="M13908.1421,-3536.2012L13908.1379,-3536.2005L13908.129,-3536.1983L13908.0884,-3536.1912L13908.0877,-3536.191L13908.087,-3536.1907L13908.0603,-3536.1848L13908.0204,-3536.1769L13907.9979,-3536.1726L13907.9887,-3536.1701L13907.9956,-3536.1453L13908.0025,-3536.1194L13908.0188,-3536.0952"/>
<path content="3,山北町,西部循環線,6.0,0.0,0.0," xlink:title="3" d="M13907.9887,-3536.1701L13907.9846,-3536.1693L13907.9826,-3536.1689L13907.9206,-3536.1562L13907.8966,-3536.1504L13907.8684,-3536.1447L13907.8372,-3536.1377L13907.8031,-3536.1301L13907.7897,-3536.1273L13907.7715,-3536.1234L13907.7626,-3536.1211L13907.755,-3536.12L13907.733,-3536.1143L13907.6973,-3536.1064L13907.6753,-3536.1019L13907.5928,-3536.0833"/>
</g>
</svg>
