<?xml version="1.0" encoding="UTF-8"?>
<svg  xmlns="http://www.w3.org/2000/svg" xmlns:xlink="http://www.w3.org/1999/xlink" xmlns:go="http://purl.org/svgmap/profile" property="N07_001,N07_002,N07_003,N07_004,N07_005,N07_006,N07_007" viewBox="13959.77783203125 -3567.81005859375 0.54931640625 0.54931640625" go:dataArea="13959.77783203125 -3567.81005859375 0.54931640625 0.54931640625" >
<metadata>
 <rdf:RDF xmlns:rdf="http://www.w3.org/1999/02/22-rdf-syntax-ns#" xmlns:crs="http://opengis.org/xmldtds/transformations.dtd" xmlns:svg="http://www.w3.org/svg" >
  <rdf:Description>
   <crs:CoordinateReferenceSystem rdf:resource="http://purl.org/crs/84" svg:transform="matrix(100.0,0.0,0.0,-100.0,0.0,0.0)" />
  </rdf:Description>
 </rdf:RDF>
</metadata>
<globalCoordinateSystem srsName="http://purl.org/crs/84" transform="matrix(100.0,0.0,0.0,-100.0,0.0,0.0)" />
<defs>
 <g id="p0" >
  <circle cx="0.0" cy="0.0" r="3" stroke="green" stroke-width="0.75" vector-effect="non-scaling-stroke" />
 </g>
</defs>
<g fill="none" fill-rule="evenodd" stroke="#FF00FF" stroke-width="0.75" opacity="0.5" vector-effect="non-scaling-stroke" stroke-linejoin="bevel" >
<path content="1,JRバス関東（株）,プレミアム中央ドリーム号/中央ドリーム号/プレミアムドリーム号/ドリーム号/レディースドリーム号/プレミアムレディース,9.4,12.0,12.0," xlink:title="1" d="M13959.7778,-3567.6392L13959.7828,-3567.6416L13959.7886,-3567.6449L13959.7957,-3567.6488L13959.8014,-3567.652L13959.8214,-3567.6634L13959.8702,-3567.6958L13959.8865,-3567.7079L13959.889,-3567.7095L13959.8899,-3567.7102L13959.8916,-3567.7113L13959.8934,-3567.7125L13959.8942,-3567.7132L13959.8974,-3567.7162L13959.9141,-3567.7291L13959.9158,-3567.7304L13959.9209,-3567.7343L13959.9486,-3567.7555L13959.9577,-3567.7624L13959.9667,-3567.7694L13959.9681,-3567.7705L13959.9735,-3567.7746L13959.9747,-3567.7759L13959.9752,-3567.7764L13959.9764,-3567.7776L13959.9864,-3567.7884L13960.0106,-3567.8101"/>
<path content="1,JRバス関東（株）,中央ドリーム名古屋号,1.0,1.0,1.0," xlink:title="1" d="M13959.7778,-3567.6392L13959.7828,-3567.6416L13959.7886,-3567.6449L13959.7957,-3567.6488L13959.8014,-3567.652L13959.8214,-3567.6634L13959.8702,-3567.6958L13959.8865,-3567.7079L13959.889,-3567.7095L13959.8899,-3567.7102L13959.8916,-3567.7113L13959.8934,-3567.7125L13959.8942,-3567.7132L13959.8974,-3567.7162L13959.9141,-3567.7291L13959.9158,-3567.7304L13959.9209,-3567.7343L13959.9486,-3567.7555L13959.9577,-3567.7624L13959.9667,-3567.7694L13959.9681,-3567.7705L13959.9735,-3567.7746L13959.9747,-3567.7759L13959.9752,-3567.7764L13959.9764,-3567.7776L13959.9864,-3567.7884L13960.0106,-3567.8101"/>
<path content="1,JRバス関東（株）,中央ライナー,2.5,2.5,2.5," xlink:title="1" d="M13959.7778,-3567.6392L13959.7828,-3567.6416L13959.7886,-3567.6449L13959.7957,-3567.6488L13959.8014,-3567.652L13959.8214,-3567.6634L13959.8702,-3567.6958L13959.8865,-3567.7079L13959.889,-3567.7095L13959.8899,-3567.7102L13959.8916,-3567.7113L13959.8934,-3567.7125L13959.8942,-3567.7132L13959.8974,-3567.7162L13959.9141,-3567.7291L13959.9158,-3567.7304L13959.9209,-3567.7343L13959.9486,-3567.7555L13959.9577,-3567.7624L13959.9667,-3567.7694L13959.9681,-3567.7705L13959.9735,-3567.7746L13959.9747,-3567.7759L13959.9752,-3567.7764L13959.9764,-3567.7776L13959.9864,-3567.7884L13960.0106,-3567.8101"/>
<path content="1,JRバス関東（株）,新宿～諏訪駅・岡谷駅,2.0,2.0,2.0," xlink:title="1" d="M13959.7778,-3567.6392L13959.7828,-3567.6416L13959.7886,-3567.6449L13959.7957,-3567.6488L13959.8014,-3567.652L13959.8214,-3567.6634L13959.8702,-3567.6958L13959.8865,-3567.7079L13959.889,-3567.7095L13959.8899,-3567.7102L13959.8916,-3567.7113L13959.8934,-3567.7125L13959.8942,-3567.7132L13959.8974,-3567.7162L13959.9141,-3567.7291L13959.9158,-3567.7304L13959.9209,-3567.7343L13959.9486,-3567.7555L13959.9577,-3567.7624L13959.9667,-3567.7694L13959.9681,-3567.7705L13959.9735,-3567.7746L13959.9747,-3567.7759L13959.9752,-3567.7764L13959.9764,-3567.7776L13959.9864,-3567.7884L13960.0106,-3567.8101"/>
<path content="1,JRバス関東（株）,東海道昼特急号/中央道昼特急号/青春昼特急号/プレミアム昼特急号,7.2,9.0,9.0," xlink:title="1" d="M13959.7778,-3567.6392L13959.7828,-3567.6416L13959.7886,-3567.6449L13959.7957,-3567.6488L13959.8014,-3567.652L13959.8214,-3567.6634L13959.8702,-3567.6958L13959.8865,-3567.7079L13959.889,-3567.7095L13959.8899,-3567.7102L13959.8916,-3567.7113L13959.8934,-3567.7125L13959.8942,-3567.7132L13959.8974,-3567.7162L13959.9141,-3567.7291L13959.9158,-3567.7304L13959.9209,-3567.7343L13959.9486,-3567.7555L13959.9577,-3567.7624L13959.9667,-3567.7694L13959.9681,-3567.7705L13959.9735,-3567.7746L13959.9747,-3567.7759L13959.9752,-3567.7764L13959.9764,-3567.7776L13959.9864,-3567.7884L13960.0106,-3567.8101"/>
<path content="1,JRバス関東（株）,青春中央ドリーム号/青春中央エコドリーム号/青春ドリーム号/青春レディースドリーム号/青春エコドリーム号/超得割青春号,10.0,14.0,14.0," xlink:title="1" d="M13959.7778,-3567.6392L13959.7828,-3567.6416L13959.7886,-3567.6449L13959.7957,-3567.6488L13959.8014,-3567.652L13959.8214,-3567.6634L13959.8702,-3567.6958L13959.8865,-3567.7079L13959.889,-3567.7095L13959.8899,-3567.7102L13959.8916,-3567.7113L13959.8934,-3567.7125L13959.8942,-3567.7132L13959.8974,-3567.7162L13959.9141,-3567.7291L13959.9158,-3567.7304L13959.9209,-3567.7343L13959.9486,-3567.7555L13959.9577,-3567.7624L13959.9667,-3567.7694L13959.9681,-3567.7705L13959.9735,-3567.7746L13959.9747,-3567.7759L13959.9752,-3567.7764L13959.9764,-3567.7776L13959.9864,-3567.7884L13960.0106,-3567.8101"/>
<path content="1,JR東海バス（株）,中央ドリームなごや号,1.0,1.0,1.0," xlink:title="1" d="M13959.7778,-3567.6392L13959.7828,-3567.6416L13959.7957,-3567.6488L13959.8214,-3567.6634L13959.8702,-3567.6958L13959.8865,-3567.7079L13959.8933,-3567.7124L13959.8973,-3567.7161L13959.9209,-3567.7343L13959.9734,-3567.7745L13959.9864,-3567.7884L13960.0106,-3567.8101"/>
<path content="1,おんたけ交通（株）,木曽福島・新宿線,2.0,2.0,2.0," xlink:title="1" d="M13959.7778,-3567.6392L13959.7828,-3567.6416L13959.7957,-3567.6488L13959.8214,-3567.6634L13959.8702,-3567.6958L13959.8865,-3567.7079L13959.8933,-3567.7124L13959.8973,-3567.7161L13959.9209,-3567.7343L13959.9734,-3567.7745L13959.9864,-3567.7884L13960.0106,-3567.8101"/>
<path content="1,ロウズ観光（株）,岡山・倉敷～東京,1.0,1.0,1.0," xlink:title="1" d="M13959.7778,-3567.6392L13959.7828,-3567.6416L13959.7957,-3567.6488L13959.8214,-3567.6634L13959.8702,-3567.6958L13959.8865,-3567.7079L13959.8933,-3567.7124L13959.8973,-3567.7161L13959.9209,-3567.7343L13959.9734,-3567.7745L13959.9864,-3567.7884L13960.0106,-3567.8101"/>
<path content="1,三交伊勢志摩交通（株）,鳥羽・伊勢～東京・大宮,2.0,2.0,2.0," xlink:title="1" d="M13960.0106,-3567.8101L13959.9864,-3567.7884L13959.9734,-3567.7745L13959.9209,-3567.7343L13959.8973,-3567.7161L13959.8933,-3567.7124L13959.8865,-3567.7079L13959.8702,-3567.6958L13959.8214,-3567.6634L13959.7957,-3567.6488L13959.7828,-3567.6416L13959.7778,-3567.6392"/>
<path content="1,三重交通（株）,鳥羽・伊勢～東京・大宮,2.0,2.0,2.0," xlink:title="1" d="M13960.0106,-3567.8101L13959.9864,-3567.7884L13959.9734,-3567.7745L13959.9209,-3567.7343L13959.8973,-3567.7161L13959.8933,-3567.7124L13959.8865,-3567.7079L13959.8702,-3567.6958L13959.8214,-3567.6634L13959.7957,-3567.6488L13959.7828,-3567.6416L13959.7778,-3567.6392"/>
<path content="1,下津井電鉄（株）,岡山～東京線,1.0,1.0,1.0," xlink:title="1" d="M13959.7778,-3567.6392L13959.7828,-3567.6416L13959.7957,-3567.6488L13959.8214,-3567.6634L13959.8702,-3567.6958L13959.8865,-3567.7079L13959.8933,-3567.7124L13959.8973,-3567.7161L13959.9209,-3567.7343L13959.9734,-3567.7745L13959.9864,-3567.7884L13960.0106,-3567.8101"/>
<path content="1,両備ホールディングス（株）,マスカット　倉敷～新宿線,1.0,1.0,1.0," xlink:title="1" d="M13959.7778,-3567.6392L13959.7828,-3567.6416L13959.7957,-3567.6488L13959.8214,-3567.6634L13959.8702,-3567.6958L13959.8865,-3567.7079L13959.8933,-3567.7124L13959.8973,-3567.7161L13959.9209,-3567.7343L13959.9734,-3567.7745L13959.9864,-3567.7884L13960.0106,-3567.8101"/>
<path content="1,中国JRバス（株）,津和野・益田・浜田・三次～東京　いわみエクスプレス,1.0,1.0,1.0," xlink:title="1" d="M13959.7778,-3567.6392L13959.7828,-3567.6416L13959.7957,-3567.6488L13959.8214,-3567.6634L13959.8702,-3567.6958L13959.8865,-3567.7079L13959.8933,-3567.7124L13959.8973,-3567.7161L13959.9209,-3567.7343L13959.9734,-3567.7745L13959.9864,-3567.7884L13960.0106,-3567.8101"/>
<path content="1,京成バス（株）,津田沼・西船橋・新浦安～富士急ハイランド・河口湖線,0.4,0.4,0.4," xlink:title="1" d="M13959.7778,-3567.6392L13959.7828,-3567.6416L13959.7886,-3567.6449L13959.7957,-3567.6488L13959.8014,-3567.652L13959.8214,-3567.6634L13959.8702,-3567.6958L13959.8865,-3567.7079L13959.889,-3567.7095L13959.8899,-3567.7102L13959.8916,-3567.7113L13959.8934,-3567.7125L13959.8942,-3567.7132L13959.8974,-3567.7162L13959.9141,-3567.7291L13959.9158,-3567.7304L13959.9209,-3567.7343L13959.9486,-3567.7555L13959.9577,-3567.7624L13959.9667,-3567.7694L13959.9681,-3567.7705L13959.9735,-3567.7746L13959.9747,-3567.7759L13959.9752,-3567.7764L13959.9764,-3567.7776L13959.9864,-3567.7884L13960.0106,-3567.8101"/>
<path content="1,京浜急行バス（株）,甲府駅・竜王～羽田空港線,2.0,2.0,2.0," xlink:title="1" d="M13960.0106,-3567.8101L13959.9864,-3567.7884L13959.9764,-3567.7776L13959.9752,-3567.7764L13959.9747,-3567.7759L13959.9735,-3567.7746L13959.9681,-3567.7705L13959.9667,-3567.7694L13959.9577,-3567.7624L13959.9486,-3567.7555L13959.9209,-3567.7343L13959.9158,-3567.7304L13959.9141,-3567.7291L13959.8974,-3567.7162L13959.8942,-3567.7132L13959.8934,-3567.7125L13959.8916,-3567.7113L13959.8899,-3567.7102L13959.889,-3567.7095L13959.8865,-3567.7079L13959.8702,-3567.6958L13959.8214,-3567.6634L13959.8014,-3567.652L13959.7957,-3567.6488L13959.7886,-3567.6449L13959.7828,-3567.6416L13959.7778,-3567.6392"/>
<path content="1,京浜急行バス（株）,立川・拝島～羽田空港線,10.0,10.0,10.0," xlink:title="1" d="M13960.0106,-3567.8101L13959.9864,-3567.7884L13959.9764,-3567.7776L13959.9752,-3567.7764L13959.9747,-3567.7759L13959.9735,-3567.7746L13959.9681,-3567.7705L13959.9667,-3567.7694L13959.9577,-3567.7624L13959.9486,-3567.7555L13959.9209,-3567.7343L13959.9158,-3567.7304L13959.9141,-3567.7291L13959.8974,-3567.7162L13959.8942,-3567.7132L13959.8934,-3567.7125L13959.8916,-3567.7113L13959.8899,-3567.7102L13959.889,-3567.7095L13959.8865,-3567.7079L13959.8702,-3567.6958L13959.8214,-3567.6634L13959.8014,-3567.652L13959.7957,-3567.6488L13959.7886,-3567.6449L13959.7828,-3567.6416L13959.7778,-3567.6392"/>
<path content="1,京王バス南（株）,成田空港～南大沢線,4.0,4.0,4.0," xlink:title="1" d="M13959.7778,-3567.6392L13959.7828,-3567.6416L13959.7886,-3567.6449L13959.7957,-3567.6488L13959.8014,-3567.652L13959.8214,-3567.6634L13959.8702,-3567.6958L13959.8865,-3567.7079L13959.889,-3567.7095L13959.8899,-3567.7102L13959.8916,-3567.7113L13959.8934,-3567.7125L13959.8942,-3567.7132L13959.8974,-3567.7162L13959.9141,-3567.7291L13959.9158,-3567.7304L13959.9209,-3567.7343L13959.9486,-3567.7555L13959.9577,-3567.7624L13959.9667,-3567.7694L13959.9681,-3567.7705L13959.9735,-3567.7746L13959.9747,-3567.7759L13959.9752,-3567.7764L13959.9764,-3567.7776L13959.9864,-3567.7884L13960.0106,-3567.8101"/>
<path content="1,京王バス南（株）,成田空港～調布駅北口線,4.0,4.0,4.0," xlink:title="1" d="M13959.7778,-3567.6392L13959.7828,-3567.6416L13959.7886,-3567.6449L13959.7957,-3567.6488L13959.8014,-3567.652L13959.8214,-3567.6634L13959.8702,-3567.6958L13959.8865,-3567.7079L13959.889,-3567.7095L13959.8899,-3567.7102L13959.8916,-3567.7113L13959.8934,-3567.7125L13959.8942,-3567.7132L13959.8974,-3567.7162L13959.9141,-3567.7291L13959.9158,-3567.7304L13959.9209,-3567.7343L13959.9486,-3567.7555L13959.9577,-3567.7624L13959.9667,-3567.7694L13959.9681,-3567.7705L13959.9735,-3567.7746L13959.9747,-3567.7759L13959.9752,-3567.7764L13959.9764,-3567.7776L13959.9864,-3567.7884L13960.0106,-3567.8101"/>
<path content="1,京王バス南（株）,新宿・渋谷～大阪（阪急梅田）線,1.0,1.0,1.0," xlink:title="1" d="M13959.7778,-3567.6392L13959.7828,-3567.6416L13959.7886,-3567.6449L13959.7957,-3567.6488L13959.8014,-3567.652L13959.8214,-3567.6634L13959.8702,-3567.6958L13959.8865,-3567.7079L13959.889,-3567.7095L13959.8899,-3567.7102L13959.8916,-3567.7113L13959.8934,-3567.7125L13959.8942,-3567.7132L13959.8974,-3567.7162L13959.9141,-3567.7291L13959.9158,-3567.7304L13959.9209,-3567.7343L13959.9486,-3567.7555L13959.9577,-3567.7624L13959.9667,-3567.7694L13959.9681,-3567.7705L13959.9735,-3567.7746L13959.9747,-3567.7759L13959.9752,-3567.7764L13959.9764,-3567.7776L13959.9864,-3567.7884L13960.0106,-3567.8101"/>
<path content="1,京王バス南（株）,新宿駅西口～八王子駅北口線,0.5,0.0,0.0," xlink:title="1" d="M13960.0106,-3567.8101L13959.9864,-3567.7884L13959.9764,-3567.7776L13959.9752,-3567.7764L13959.9747,-3567.7759L13959.9735,-3567.7746L13959.9681,-3567.7705L13959.9667,-3567.7694L13959.9577,-3567.7624L13959.9486,-3567.7555L13959.9209,-3567.7343L13959.9158,-3567.7304L13959.9141,-3567.7291L13959.8974,-3567.7162L13959.8942,-3567.7132L13959.8934,-3567.7125L13959.8916,-3567.7113L13959.8899,-3567.7102L13959.889,-3567.7095L13959.8865,-3567.7079L13959.8702,-3567.6958L13959.8214,-3567.6634L13959.8014,-3567.652L13959.7957,-3567.6488L13959.7886,-3567.6449L13959.7828,-3567.6416L13959.7778,-3567.6392"/>
<path content="1,京王バス南（株）,新宿駅西口～南大沢線,0.5,0.0,0.0," xlink:title="1" d="M13959.7778,-3567.6392L13959.7828,-3567.6416L13959.7886,-3567.6449L13959.7957,-3567.6488L13959.8014,-3567.652L13959.8214,-3567.6634L13959.8702,-3567.6958L13959.8865,-3567.7079L13959.889,-3567.7095L13959.8899,-3567.7102L13959.8916,-3567.7113L13959.8934,-3567.7125L13959.8942,-3567.7132L13959.8974,-3567.7162L13959.9141,-3567.7291L13959.9158,-3567.7304L13959.9209,-3567.7343L13959.9486,-3567.7555L13959.9577,-3567.7624L13959.9667,-3567.7694L13959.9681,-3567.7705L13959.9735,-3567.7746L13959.9747,-3567.7759L13959.9752,-3567.7764L13959.9764,-3567.7776L13959.9864,-3567.7884L13960.0106,-3567.8101"/>
<path content="1,京王バス南（株）,新宿駅西口～国立線,0.5,0.0,0.0," xlink:title="1" d="M13960.0106,-3567.8101L13959.9864,-3567.7884L13959.9764,-3567.7776L13959.9752,-3567.7764L13959.9747,-3567.7759L13959.9735,-3567.7746L13959.9681,-3567.7705L13959.9667,-3567.7694L13959.9577,-3567.7624L13959.9486,-3567.7555L13959.9209,-3567.7343L13959.9158,-3567.7304L13959.9141,-3567.7291L13959.8974,-3567.7162L13959.8942,-3567.7132L13959.8934,-3567.7125L13959.8916,-3567.7113L13959.8899,-3567.7102L13959.889,-3567.7095L13959.8865,-3567.7079L13959.8702,-3567.6958L13959.8214,-3567.6634L13959.8014,-3567.652L13959.7957,-3567.6488L13959.7886,-3567.6449L13959.7828,-3567.6416L13959.7778,-3567.6392"/>
<path content="1,京王バス南（株）,新宿～伊那・飯田線,9.0,9.0,9.0," xlink:title="1" d="M13960.0106,-3567.8101L13959.9864,-3567.7884L13959.9764,-3567.7776L13959.9752,-3567.7764L13959.9747,-3567.7759L13959.9735,-3567.7746L13959.9681,-3567.7705L13959.9667,-3567.7694L13959.9577,-3567.7624L13959.9486,-3567.7555L13959.9209,-3567.7343L13959.9158,-3567.7304L13959.9141,-3567.7291L13959.8974,-3567.7162L13959.8942,-3567.7132L13959.8934,-3567.7125L13959.8916,-3567.7113L13959.8899,-3567.7102L13959.889,-3567.7095L13959.8865,-3567.7079L13959.8702,-3567.6958L13959.8214,-3567.6634L13959.8014,-3567.652L13959.7957,-3567.6488L13959.7886,-3567.6449L13959.7828,-3567.6416L13959.7778,-3567.6392"/>
<path content="1,京王バス南（株）,新宿～名古屋線,2.0,2.0,2.0," xlink:title="1" d="M13959.7778,-3567.6392L13959.7828,-3567.6416L13959.7886,-3567.6449L13959.7957,-3567.6488L13959.8014,-3567.652L13959.8214,-3567.6634L13959.8702,-3567.6958L13959.8865,-3567.7079L13959.889,-3567.7095L13959.8899,-3567.7102L13959.8916,-3567.7113L13959.8934,-3567.7125L13959.8942,-3567.7132L13959.8974,-3567.7162L13959.9141,-3567.7291L13959.9158,-3567.7304L13959.9209,-3567.7343L13959.9486,-3567.7555L13959.9577,-3567.7624L13959.9667,-3567.7694L13959.9681,-3567.7705L13959.9735,-3567.7746L13959.9747,-3567.7759L13959.9752,-3567.7764L13959.9764,-3567.7776L13959.9864,-3567.7884L13960.0106,-3567.8101"/>
<path content="1,京王バス南（株）,新宿～富士五湖線,10.0,10.0,10.0," xlink:title="1" d="M13960.0106,-3567.8101L13959.9864,-3567.7884L13959.9764,-3567.7776L13959.9752,-3567.7764L13959.9747,-3567.7759L13959.9735,-3567.7746L13959.9681,-3567.7705L13959.9667,-3567.7694L13959.9577,-3567.7624L13959.9486,-3567.7555L13959.9209,-3567.7343L13959.9158,-3567.7304L13959.9141,-3567.7291L13959.8974,-3567.7162L13959.8942,-3567.7132L13959.8934,-3567.7125L13959.8916,-3567.7113L13959.8899,-3567.7102L13959.889,-3567.7095L13959.8865,-3567.7079L13959.8702,-3567.6958L13959.8214,-3567.6634L13959.8014,-3567.652L13959.7957,-3567.6488L13959.7886,-3567.6449L13959.7828,-3567.6416L13959.7778,-3567.6392"/>
<path content="1,京王バス南（株）,新宿～富士山五合目線,0.6,0.9,0.9," xlink:title="1" d="M13960.0106,-3567.8101L13959.9864,-3567.7884L13959.9764,-3567.7776L13959.9752,-3567.7764L13959.9747,-3567.7759L13959.9735,-3567.7746L13959.9681,-3567.7705L13959.9667,-3567.7694L13959.9577,-3567.7624L13959.9486,-3567.7555L13959.9209,-3567.7343L13959.9158,-3567.7304L13959.9141,-3567.7291L13959.8974,-3567.7162L13959.8942,-3567.7132L13959.8934,-3567.7125L13959.8916,-3567.7113L13959.8899,-3567.7102L13959.889,-3567.7095L13959.8865,-3567.7079L13959.8702,-3567.6958L13959.8214,-3567.6634L13959.8014,-3567.652L13959.7957,-3567.6488L13959.7886,-3567.6449L13959.7828,-3567.6416L13959.7778,-3567.6392"/>
<path content="1,京王バス南（株）,新宿～木曽福島線,1.0,1.0,1.0," xlink:title="1" d="M13959.7778,-3567.6392L13959.7828,-3567.6416L13959.7886,-3567.6449L13959.7957,-3567.6488L13959.8014,-3567.652L13959.8214,-3567.6634L13959.8702,-3567.6958L13959.8865,-3567.7079L13959.889,-3567.7095L13959.8899,-3567.7102L13959.8916,-3567.7113L13959.8934,-3567.7125L13959.8942,-3567.7132L13959.8974,-3567.7162L13959.9141,-3567.7291L13959.9158,-3567.7304L13959.9209,-3567.7343L13959.9486,-3567.7555L13959.9577,-3567.7624L13959.9667,-3567.7694L13959.9681,-3567.7705L13959.9735,-3567.7746L13959.9747,-3567.7759L13959.9752,-3567.7764L13959.9764,-3567.7776L13959.9864,-3567.7884L13960.0106,-3567.8101"/>
<path content="1,京王バス南（株）,新宿～松本線,11.0,11.0,11.0," xlink:title="1" d="M13960.0106,-3567.8101L13959.9864,-3567.7884L13959.9764,-3567.7776L13959.9752,-3567.7764L13959.9747,-3567.7759L13959.9735,-3567.7746L13959.9681,-3567.7705L13959.9667,-3567.7694L13959.9577,-3567.7624L13959.9486,-3567.7555L13959.9209,-3567.7343L13959.9158,-3567.7304L13959.9141,-3567.7291L13959.8974,-3567.7162L13959.8942,-3567.7132L13959.8934,-3567.7125L13959.8916,-3567.7113L13959.8899,-3567.7102L13959.889,-3567.7095L13959.8865,-3567.7079L13959.8702,-3567.6958L13959.8214,-3567.6634L13959.8014,-3567.652L13959.7957,-3567.6488L13959.7886,-3567.6449L13959.7828,-3567.6416L13959.7778,-3567.6392"/>
<path content="1,京王バス南（株）,新宿～甲府線,9.0,9.0,9.0," xlink:title="1" d="M13959.7778,-3567.6392L13959.7828,-3567.6416L13959.7886,-3567.6449L13959.7957,-3567.6488L13959.8014,-3567.652L13959.8214,-3567.6634L13959.8702,-3567.6958L13959.8865,-3567.7079L13959.889,-3567.7095L13959.8899,-3567.7102L13959.8916,-3567.7113L13959.8934,-3567.7125L13959.8942,-3567.7132L13959.8974,-3567.7162L13959.9141,-3567.7291L13959.9158,-3567.7304L13959.9209,-3567.7343L13959.9486,-3567.7555L13959.9577,-3567.7624L13959.9667,-3567.7694L13959.9681,-3567.7705L13959.9735,-3567.7746L13959.9747,-3567.7759L13959.9752,-3567.7764L13959.9764,-3567.7776L13959.9864,-3567.7884L13960.0106,-3567.8101"/>
<path content="1,京王バス南（株）,新宿～白馬線,2.0,2.0,2.0," xlink:title="1" d="M13960.0106,-3567.8101L13959.9864,-3567.7884L13959.9764,-3567.7776L13959.9752,-3567.7764L13959.9747,-3567.7759L13959.9735,-3567.7746L13959.9681,-3567.7705L13959.9667,-3567.7694L13959.9577,-3567.7624L13959.9486,-3567.7555L13959.9209,-3567.7343L13959.9158,-3567.7304L13959.9141,-3567.7291L13959.8974,-3567.7162L13959.8942,-3567.7132L13959.8934,-3567.7125L13959.8916,-3567.7113L13959.8899,-3567.7102L13959.889,-3567.7095L13959.8865,-3567.7079L13959.8702,-3567.6958L13959.8214,-3567.6634L13959.8014,-3567.652L13959.7957,-3567.6488L13959.7886,-3567.6449L13959.7828,-3567.6416L13959.7778,-3567.6392"/>
<path content="1,京王バス南（株）,新宿～諏訪・岡谷・茅野線,6.0,6.0,6.0," xlink:title="1" d="M13959.7778,-3567.6392L13959.7828,-3567.6416L13959.7886,-3567.6449L13959.7957,-3567.6488L13959.8014,-3567.652L13959.8214,-3567.6634L13959.8702,-3567.6958L13959.8865,-3567.7079L13959.889,-3567.7095L13959.8899,-3567.7102L13959.8916,-3567.7113L13959.8934,-3567.7125L13959.8942,-3567.7132L13959.8974,-3567.7162L13959.9141,-3567.7291L13959.9158,-3567.7304L13959.9209,-3567.7343L13959.9486,-3567.7555L13959.9577,-3567.7624L13959.9667,-3567.7694L13959.9681,-3567.7705L13959.9735,-3567.7746L13959.9747,-3567.7759L13959.9752,-3567.7764L13959.9764,-3567.7776L13959.9864,-3567.7884L13960.0106,-3567.8101"/>
<path content="1,京王バス南（株）,新宿～身延線,2.0,2.0,2.0," xlink:title="1" d="M13959.7778,-3567.6392L13959.7828,-3567.6416L13959.7886,-3567.6449L13959.7957,-3567.6488L13959.8014,-3567.652L13959.8214,-3567.6634L13959.8702,-3567.6958L13959.8865,-3567.7079L13959.889,-3567.7095L13959.8899,-3567.7102L13959.8916,-3567.7113L13959.8934,-3567.7125L13959.8942,-3567.7132L13959.8974,-3567.7162L13959.9141,-3567.7291L13959.9158,-3567.7304L13959.9209,-3567.7343L13959.9486,-3567.7555L13959.9577,-3567.7624L13959.9667,-3567.7694L13959.9681,-3567.7705L13959.9735,-3567.7746L13959.9747,-3567.7759L13959.9752,-3567.7764L13959.9764,-3567.7776L13959.9864,-3567.7884L13960.0106,-3567.8101"/>
<path content="1,京王バス南（株）,新宿～飛騨高山線,3.0,3.0,3.0," xlink:title="1" d="M13960.0106,-3567.8101L13959.9864,-3567.7884L13959.9764,-3567.7776L13959.9752,-3567.7764L13959.9747,-3567.7759L13959.9735,-3567.7746L13959.9681,-3567.7705L13959.9667,-3567.7694L13959.9577,-3567.7624L13959.9486,-3567.7555L13959.9209,-3567.7343L13959.9158,-3567.7304L13959.9141,-3567.7291L13959.8974,-3567.7162L13959.8942,-3567.7132L13959.8934,-3567.7125L13959.8916,-3567.7113L13959.8899,-3567.7102L13959.889,-3567.7095L13959.8865,-3567.7079L13959.8702,-3567.6958L13959.8214,-3567.6634L13959.8014,-3567.652L13959.7957,-3567.6488L13959.7886,-3567.6449L13959.7828,-3567.6416L13959.7778,-3567.6392"/>
<path content="1,京王バス南（株）,羽田空港～南大沢線,10.0,10.0,10.0," xlink:title="1" d="M13960.0106,-3567.8101L13959.9864,-3567.7884L13959.9764,-3567.7776L13959.9752,-3567.7764L13959.9747,-3567.7759L13959.9735,-3567.7746L13959.9681,-3567.7705L13959.9667,-3567.7694L13959.9577,-3567.7624L13959.9486,-3567.7555L13959.9209,-3567.7343L13959.9158,-3567.7304L13959.9141,-3567.7291L13959.8974,-3567.7162L13959.8942,-3567.7132L13959.8934,-3567.7125L13959.8916,-3567.7113L13959.8899,-3567.7102L13959.889,-3567.7095L13959.8865,-3567.7079L13959.8702,-3567.6958L13959.8214,-3567.6634L13959.8014,-3567.652L13959.7957,-3567.6488L13959.7886,-3567.6449L13959.7828,-3567.6416L13959.7778,-3567.6392"/>
<path content="1,京王バス南（株）,羽田空港～国分寺駅南口線,12.0,12.0,12.0," xlink:title="1" d="M13960.0106,-3567.8101L13959.9864,-3567.7884L13959.9764,-3567.7776L13959.9752,-3567.7764L13959.9747,-3567.7759L13959.9735,-3567.7746L13959.9681,-3567.7705L13959.9667,-3567.7694L13959.9577,-3567.7624L13959.9486,-3567.7555L13959.9209,-3567.7343L13959.9158,-3567.7304L13959.9141,-3567.7291L13959.8974,-3567.7162L13959.8942,-3567.7132L13959.8934,-3567.7125L13959.8916,-3567.7113L13959.8899,-3567.7102L13959.889,-3567.7095L13959.8865,-3567.7079L13959.8702,-3567.6958L13959.8214,-3567.6634L13959.8014,-3567.652L13959.7957,-3567.6488L13959.7886,-3567.6449L13959.7828,-3567.6416L13959.7778,-3567.6392"/>
<path content="1,京王バス南（株）,羽田空港～高尾駅南口線,3.0,3.0,3.0," xlink:title="1" d="M13960.0106,-3567.8101L13959.9864,-3567.7884L13959.9764,-3567.7776L13959.9752,-3567.7764L13959.9747,-3567.7759L13959.9735,-3567.7746L13959.9681,-3567.7705L13959.9667,-3567.7694L13959.9577,-3567.7624L13959.9486,-3567.7555L13959.9209,-3567.7343L13959.9158,-3567.7304L13959.9141,-3567.7291L13959.8974,-3567.7162L13959.8942,-3567.7132L13959.8934,-3567.7125L13959.8916,-3567.7113L13959.8899,-3567.7102L13959.889,-3567.7095L13959.8865,-3567.7079L13959.8702,-3567.6958L13959.8214,-3567.6634L13959.8014,-3567.652L13959.7957,-3567.6488L13959.7886,-3567.6449L13959.7828,-3567.6416L13959.7778,-3567.6392"/>
<path content="1,伊予鉄道（株）,オレンジライナーえひめ　八幡浜・松山⇔東京,1.0,1.0,1.0," xlink:title="1" d="M13959.7778,-3567.6392L13959.7828,-3567.6416L13959.7957,-3567.6488L13959.8214,-3567.6634L13959.8702,-3567.6958L13959.8865,-3567.7079L13959.8933,-3567.7124L13959.8973,-3567.7161L13959.9209,-3567.7343L13959.9734,-3567.7745L13959.9864,-3567.7884L13960.0106,-3567.8101"/>
<path content="1,伊那バス（株）,伊那線,16.0,16.0,16.0," xlink:title="1" d="M13959.7778,-3567.6392L13959.7828,-3567.6416L13959.7957,-3567.6488L13959.8214,-3567.6634L13959.8702,-3567.6958L13959.8865,-3567.7079L13959.8933,-3567.7124L13959.8973,-3567.7161L13959.9209,-3567.7343L13959.9734,-3567.7745L13959.9864,-3567.7884L13960.0106,-3567.8101"/>
<path content="1,伊那バス（株）,横浜線,17.0,17.0,17.0," xlink:title="1" d="M13960.0106,-3567.8101L13959.9864,-3567.7884L13959.9734,-3567.7745L13959.9209,-3567.7343L13959.8973,-3567.7161L13959.8933,-3567.7124L13959.8865,-3567.7079L13959.8702,-3567.6958L13959.8214,-3567.6634L13959.7957,-3567.6488L13959.7828,-3567.6416L13959.7778,-3567.6392"/>
<path content="1,伊那バス（株）,飯田線,2.0,2.0,2.0," xlink:title="1" d="M13959.7778,-3567.6392L13959.7828,-3567.6416L13959.7957,-3567.6488L13959.8214,-3567.6634L13959.8702,-3567.6958L13959.8865,-3567.7079L13959.8933,-3567.7124L13959.8973,-3567.7161L13959.9209,-3567.7343L13959.9734,-3567.7745L13959.9864,-3567.7884L13960.0106,-3567.8101"/>
<path content="1,信南交通（株）,新宿線_01_on,5.5,5.5,5.5," xlink:title="1" d="M13959.7778,-3567.6392L13959.7828,-3567.6416L13959.7957,-3567.6488L13959.8214,-3567.6634L13959.8702,-3567.6958L13959.8865,-3567.7079L13959.8933,-3567.7124L13959.8973,-3567.7161L13959.9209,-3567.7343L13959.9734,-3567.7745L13959.9864,-3567.7884L13960.0106,-3567.8101"/>
<path content="1,信南交通（株）,新宿線_02_on,5.5,5.5,5.5," xlink:title="1" d="M13959.7778,-3567.6392L13959.7828,-3567.6416L13959.7957,-3567.6488L13959.8214,-3567.6634L13959.8702,-3567.6958L13959.8865,-3567.7079L13959.8933,-3567.7124L13959.8973,-3567.7161L13959.9209,-3567.7343L13959.9734,-3567.7745L13959.9864,-3567.7884L13960.0106,-3567.8101"/>
<path content="1,信南交通（株）,横浜線,2.0,2.0,2.0," xlink:title="1" d="M13960.0106,-3567.8101L13959.9864,-3567.7884L13959.9734,-3567.7745L13959.9209,-3567.7343L13959.8973,-3567.7161L13959.8933,-3567.7124L13959.8865,-3567.7079L13959.8702,-3567.6958L13959.8214,-3567.6634L13959.7957,-3567.6488L13959.7828,-3567.6416L13959.7778,-3567.6392"/>
<path content="1,北陸鉄道（株）,高速バス　金沢⇔渋谷八王子,2.0,2.0,2.0," xlink:title="1" d="M13959.7778,-3567.6392L13959.7828,-3567.6416L13959.7957,-3567.6488L13959.8214,-3567.6634L13959.8702,-3567.6958L13959.8865,-3567.7079L13959.8933,-3567.7124L13959.8973,-3567.7161L13959.9209,-3567.7343L13959.9734,-3567.7745L13959.9864,-3567.7884L13960.0106,-3567.8101"/>
<path content="1,千葉交通,竜王・甲府・石和・一宮・勝沼～成田空港,3.0,3.0,3.0," xlink:title="1" d="M13959.7778,-3567.6392L13959.7828,-3567.6416L13959.7886,-3567.6449L13959.7957,-3567.6488L13959.8014,-3567.652L13959.8214,-3567.6634L13959.8702,-3567.6958L13959.8865,-3567.7079L13959.889,-3567.7095L13959.8899,-3567.7102L13959.8916,-3567.7113L13959.8934,-3567.7125L13959.8942,-3567.7132L13959.8974,-3567.7162L13959.9141,-3567.7291L13959.9158,-3567.7304L13959.9209,-3567.7343L13959.9486,-3567.7555L13959.9577,-3567.7624L13959.9667,-3567.7694L13959.9681,-3567.7705L13959.9735,-3567.7746L13959.9747,-3567.7759L13959.9752,-3567.7764L13959.9764,-3567.7776L13959.9864,-3567.7884L13960.0106,-3567.8101"/>
<path content="1,名鉄バス（株）,名古屋～新宿,4.0,4.0,4.0," xlink:title="1" d="M13959.7778,-3567.6392L13959.7828,-3567.6416L13959.7957,-3567.6488L13959.8214,-3567.6634L13959.8702,-3567.6958L13959.8865,-3567.7079L13959.8933,-3567.7124L13959.8973,-3567.7161L13959.9209,-3567.7343L13959.9734,-3567.7745L13959.9864,-3567.7884L13960.0106,-3567.8101"/>
<path content="1,四国高速バス（株）,ハローブリッジ号　善通寺・坂出⇔横浜・新宿・八王子,1.0,1.0,1.0," xlink:title="1" d="M13959.7778,-3567.6392L13959.7828,-3567.6416L13959.7957,-3567.6488L13959.8214,-3567.6634L13959.8702,-3567.6958L13959.8865,-3567.7079L13959.8933,-3567.7124L13959.8973,-3567.7161L13959.9209,-3567.7343L13959.9734,-3567.7745L13959.9864,-3567.7884L13960.0106,-3567.8101"/>
<path content="1,富士急山梨バス（株）,河口湖～大宮・川越・所沢線,0.7,0.7,0.7," xlink:title="1" d="M13959.7778,-3567.6392L13959.7828,-3567.6416L13959.7886,-3567.6449L13959.7957,-3567.6488L13959.8014,-3567.652L13959.8214,-3567.6634L13959.8702,-3567.6958L13959.8865,-3567.7079L13959.889,-3567.7095L13959.8899,-3567.7102L13959.8916,-3567.7113L13959.8934,-3567.7125L13959.8942,-3567.7132L13959.8974,-3567.7162L13959.9141,-3567.7291L13959.9158,-3567.7304L13959.9209,-3567.7343L13959.9486,-3567.7555L13959.9577,-3567.7624L13959.9667,-3567.7694L13959.9681,-3567.7705L13959.9735,-3567.7746L13959.9747,-3567.7759L13959.9752,-3567.7764L13959.9764,-3567.7776L13959.9864,-3567.7884L13960.0106,-3567.8101"/>
<path content="1,富士急平和観光（株）,甲府～新宿線,27.0,27.0,27.0," xlink:title="1" d="M13959.7778,-3567.6392L13959.7828,-3567.6416L13959.7886,-3567.6449L13959.7957,-3567.6488L13959.8014,-3567.652L13959.8214,-3567.6634L13959.8702,-3567.6958L13959.8865,-3567.7079L13959.889,-3567.7095L13959.8899,-3567.7102L13959.8916,-3567.7113L13959.8934,-3567.7125L13959.8942,-3567.7132L13959.8974,-3567.7162L13959.9141,-3567.7291L13959.9158,-3567.7304L13959.9209,-3567.7343L13959.9486,-3567.7555L13959.9577,-3567.7624L13959.9667,-3567.7694L13959.9681,-3567.7705L13959.9735,-3567.7746L13959.9747,-3567.7759L13959.9752,-3567.7764L13959.9764,-3567.7776L13959.9864,-3567.7884L13960.0106,-3567.8101"/>
<path content="1,富士急行（株）,伊那・駒ヶ根～新宿線,16.0,16.0,16.0," xlink:title="1" d="M13959.7778,-3567.6392L13959.7828,-3567.6416L13959.7886,-3567.6449L13959.7957,-3567.6488L13959.8014,-3567.652L13959.8214,-3567.6634L13959.8702,-3567.6958L13959.8865,-3567.7079L13959.889,-3567.7095L13959.8899,-3567.7102L13959.8916,-3567.7113L13959.8934,-3567.7125L13959.8942,-3567.7132L13959.8974,-3567.7162L13959.9141,-3567.7291L13959.9158,-3567.7304L13959.9209,-3567.7343L13959.9486,-3567.7555L13959.9577,-3567.7624L13959.9667,-3567.7694L13959.9681,-3567.7705L13959.9735,-3567.7746L13959.9747,-3567.7759L13959.9752,-3567.7764L13959.9764,-3567.7776L13959.9864,-3567.7884L13960.0106,-3567.8101"/>
<path content="1,富士急行（株）,富士五湖～新宿線,37.4,36.0,36.0," xlink:title="1" d="M13959.7778,-3567.6392L13959.7828,-3567.6416L13959.7886,-3567.6449L13959.7957,-3567.6488L13959.8014,-3567.652L13959.8214,-3567.6634L13959.8702,-3567.6958L13959.8865,-3567.7079L13959.889,-3567.7095L13959.8899,-3567.7102L13959.8916,-3567.7113L13959.8934,-3567.7125L13959.8942,-3567.7132L13959.8974,-3567.7162L13959.9141,-3567.7291L13959.9158,-3567.7304L13959.9209,-3567.7343L13959.9486,-3567.7555L13959.9577,-3567.7624L13959.9667,-3567.7694L13959.9681,-3567.7705L13959.9735,-3567.7746L13959.9747,-3567.7759L13959.9752,-3567.7764L13959.9764,-3567.7776L13959.9864,-3567.7884L13960.0106,-3567.8101"/>
<path content="1,富士急行（株）,富士山五合目～新宿線,1.0,1.7,1.8," xlink:title="1" d="M13959.7778,-3567.6392L13959.7828,-3567.6416L13959.7886,-3567.6449L13959.7957,-3567.6488L13959.8014,-3567.652L13959.8214,-3567.6634L13959.8702,-3567.6958L13959.8865,-3567.7079L13959.889,-3567.7095L13959.8899,-3567.7102L13959.8916,-3567.7113L13959.8934,-3567.7125L13959.8942,-3567.7132L13959.8974,-3567.7162L13959.9141,-3567.7291L13959.9158,-3567.7304L13959.9209,-3567.7343L13959.9486,-3567.7555L13959.9577,-3567.7624L13959.9667,-3567.7694L13959.9681,-3567.7705L13959.9735,-3567.7746L13959.9747,-3567.7759L13959.9752,-3567.7764L13959.9764,-3567.7776L13959.9864,-3567.7884L13960.0106,-3567.8101"/>
<path content="1,富士急行（株）,河口湖～大宮・川越・所沢線,0.7,0.7,0.7," xlink:title="1" d="M13959.7778,-3567.6392L13959.7828,-3567.6416L13959.7886,-3567.6449L13959.7957,-3567.6488L13959.8014,-3567.652L13959.8214,-3567.6634L13959.8702,-3567.6958L13959.8865,-3567.7079L13959.889,-3567.7095L13959.8899,-3567.7102L13959.8916,-3567.7113L13959.8934,-3567.7125L13959.8942,-3567.7132L13959.8974,-3567.7162L13959.9141,-3567.7291L13959.9158,-3567.7304L13959.9209,-3567.7343L13959.9486,-3567.7555L13959.9577,-3567.7624L13959.9667,-3567.7694L13959.9681,-3567.7705L13959.9735,-3567.7746L13959.9747,-3567.7759L13959.9752,-3567.7764L13959.9764,-3567.7776L13959.9864,-3567.7884L13960.0106,-3567.8101"/>
<path content="1,富士急行（株）,河口湖～津田沼・西船橋・新浦安線,0.3,0.3,0.3," xlink:title="1" d="M13959.7778,-3567.6392L13959.7828,-3567.6416L13959.7886,-3567.6449L13959.7957,-3567.6488L13959.8014,-3567.652L13959.8214,-3567.6634L13959.8702,-3567.6958L13959.8865,-3567.7079L13959.889,-3567.7095L13959.8899,-3567.7102L13959.8916,-3567.7113L13959.8934,-3567.7125L13959.8942,-3567.7132L13959.8974,-3567.7162L13959.9141,-3567.7291L13959.9158,-3567.7304L13959.9209,-3567.7343L13959.9486,-3567.7555L13959.9577,-3567.7624L13959.9667,-3567.7694L13959.9681,-3567.7705L13959.9735,-3567.7746L13959.9747,-3567.7759L13959.9752,-3567.7764L13959.9764,-3567.7776L13959.9864,-3567.7884L13960.0106,-3567.8101"/>
<path content="1,富士急行（株）,河口湖～渋川・前橋・高崎線,0.3,0.3,0.3," xlink:title="1" d="M13959.7778,-3567.6392L13959.7828,-3567.6416L13959.7886,-3567.6449L13959.7957,-3567.6488L13959.8014,-3567.652L13959.8214,-3567.6634L13959.8702,-3567.6958L13959.8865,-3567.7079L13959.889,-3567.7095L13959.8899,-3567.7102L13959.8916,-3567.7113L13959.8934,-3567.7125L13959.8942,-3567.7132L13959.8974,-3567.7162L13959.9141,-3567.7291L13959.9158,-3567.7304L13959.9209,-3567.7343L13959.9486,-3567.7555L13959.9577,-3567.7624L13959.9667,-3567.7694L13959.9681,-3567.7705L13959.9735,-3567.7746L13959.9747,-3567.7759L13959.9752,-3567.7764L13959.9764,-3567.7776L13959.9864,-3567.7884L13960.0106,-3567.8101"/>
<path content="1,富士急行（株）,甲府～新宿線,27.0,27.0,27.0," xlink:title="1" d="M13960.0106,-3567.8101L13959.9864,-3567.7884L13959.9764,-3567.7776L13959.9752,-3567.7764L13959.9747,-3567.7759L13959.9735,-3567.7746L13959.9681,-3567.7705L13959.9667,-3567.7694L13959.9577,-3567.7624L13959.9486,-3567.7555L13959.9209,-3567.7343L13959.9158,-3567.7304L13959.9141,-3567.7291L13959.8974,-3567.7162L13959.8942,-3567.7132L13959.8934,-3567.7125L13959.8916,-3567.7113L13959.8899,-3567.7102L13959.889,-3567.7095L13959.8865,-3567.7079L13959.8702,-3567.6958L13959.8214,-3567.6634L13959.8014,-3567.652L13959.7957,-3567.6488L13959.7886,-3567.6449L13959.7828,-3567.6416L13959.7778,-3567.6392"/>
<path content="1,富士急行（株）,諏訪・岡谷～新宿線,15.0,15.0,15.0," xlink:title="1" d="M13959.7778,-3567.6392L13959.7828,-3567.6416L13959.7886,-3567.6449L13959.7957,-3567.6488L13959.8014,-3567.652L13959.8214,-3567.6634L13959.8702,-3567.6958L13959.8865,-3567.7079L13959.889,-3567.7095L13959.8899,-3567.7102L13959.8916,-3567.7113L13959.8934,-3567.7125L13959.8942,-3567.7132L13959.8974,-3567.7162L13959.9141,-3567.7291L13959.9158,-3567.7304L13959.9209,-3567.7343L13959.9486,-3567.7555L13959.9577,-3567.7624L13959.9667,-3567.7694L13959.9681,-3567.7705L13959.9735,-3567.7746L13959.9747,-3567.7759L13959.9752,-3567.7764L13959.9764,-3567.7776L13959.9864,-3567.7884L13960.0106,-3567.8101"/>
<path content="1,小田急シティバス（株）,002,0.0,0.0,0.9," xlink:title="1" d="M13959.7778,-3567.6392L13959.7828,-3567.6416L13959.7886,-3567.6449L13959.7957,-3567.6488L13959.8014,-3567.652L13959.8214,-3567.6634L13959.8702,-3567.6958L13959.8865,-3567.7079L13959.889,-3567.7095L13959.8899,-3567.7102L13959.8916,-3567.7113L13959.8934,-3567.7125L13959.8942,-3567.7132L13959.8974,-3567.7162L13959.9141,-3567.7291L13959.9158,-3567.7304L13959.9209,-3567.7343L13959.9486,-3567.7555L13959.9577,-3567.7624L13959.9667,-3567.7694L13959.9681,-3567.7705L13959.9735,-3567.7746L13959.9747,-3567.7759L13959.9752,-3567.7764L13959.9764,-3567.7776L13959.9864,-3567.7884L13960.0106,-3567.8101"/>
<path content="1,山梨交通（株）,北杜・白州～新宿線,1.0,1.0,1.0," xlink:title="1" d="M13960.0106,-3567.8101L13959.9864,-3567.7884L13959.9764,-3567.7776L13959.9752,-3567.7764L13959.9747,-3567.7759L13959.9735,-3567.7746L13959.9681,-3567.7705L13959.9667,-3567.7694L13959.9577,-3567.7624L13959.9486,-3567.7555L13959.9209,-3567.7343L13959.9158,-3567.7304L13959.9141,-3567.7291L13959.8974,-3567.7162L13959.8942,-3567.7132L13959.8934,-3567.7125L13959.8916,-3567.7113L13959.8899,-3567.7102L13959.889,-3567.7095L13959.8865,-3567.7079L13959.8702,-3567.6958L13959.8214,-3567.6634L13959.8014,-3567.652L13959.7957,-3567.6488L13959.7886,-3567.6449L13959.7828,-3567.6416L13959.7778,-3567.6392"/>
<path content="1,山梨交通（株）,甲府～新宿線,9.0,9.0,9.0," xlink:title="1" d="M13959.7778,-3567.6392L13959.7828,-3567.6416L13959.7886,-3567.6449L13959.7957,-3567.6488L13959.8014,-3567.652L13959.8214,-3567.6634L13959.8702,-3567.6958L13959.8865,-3567.7079L13959.889,-3567.7095L13959.8899,-3567.7102L13959.8916,-3567.7113L13959.8934,-3567.7125L13959.8942,-3567.7132L13959.8974,-3567.7162L13959.9141,-3567.7291L13959.9158,-3567.7304L13959.9209,-3567.7343L13959.9486,-3567.7555L13959.9577,-3567.7624L13959.9667,-3567.7694L13959.9681,-3567.7705L13959.9735,-3567.7746L13959.9747,-3567.7759L13959.9752,-3567.7764L13959.9764,-3567.7776L13959.9864,-3567.7884L13960.0106,-3567.8101"/>
<path content="1,山梨交通（株）,竜王・甲府～成田空港線,3.0,3.0,3.0," xlink:title="1" d="M13959.7778,-3567.6392L13959.7828,-3567.6416L13959.7886,-3567.6449L13959.7957,-3567.6488L13959.8014,-3567.652L13959.8214,-3567.6634L13959.8702,-3567.6958L13959.8865,-3567.7079L13959.889,-3567.7095L13959.8899,-3567.7102L13959.8916,-3567.7113L13959.8934,-3567.7125L13959.8942,-3567.7132L13959.8974,-3567.7162L13959.9141,-3567.7291L13959.9158,-3567.7304L13959.9209,-3567.7343L13959.9486,-3567.7555L13959.9577,-3567.7624L13959.9667,-3567.7694L13959.9681,-3567.7705L13959.9735,-3567.7746L13959.9747,-3567.7759L13959.9752,-3567.7764L13959.9764,-3567.7776L13959.9864,-3567.7884L13960.0106,-3567.8101"/>
<path content="1,山梨交通（株）,竜王・甲府～羽田空港線,2.0,2.0,2.0," xlink:title="1" d="M13960.0106,-3567.8101L13959.9864,-3567.7884L13959.9764,-3567.7776L13959.9752,-3567.7764L13959.9747,-3567.7759L13959.9735,-3567.7746L13959.9681,-3567.7705L13959.9667,-3567.7694L13959.9577,-3567.7624L13959.9486,-3567.7555L13959.9209,-3567.7343L13959.9158,-3567.7304L13959.9141,-3567.7291L13959.8974,-3567.7162L13959.8942,-3567.7132L13959.8934,-3567.7125L13959.8916,-3567.7113L13959.8899,-3567.7102L13959.889,-3567.7095L13959.8865,-3567.7079L13959.8702,-3567.6958L13959.8214,-3567.6634L13959.8014,-3567.652L13959.7957,-3567.6488L13959.7886,-3567.6449L13959.7828,-3567.6416L13959.7778,-3567.6392"/>
<path content="1,山梨交通（株）,諏訪・岡谷～新宿線,17.0,17.0,17.0," xlink:title="1" d="M13960.0106,-3567.8101L13959.9864,-3567.7884L13959.9764,-3567.7776L13959.9752,-3567.7764L13959.9747,-3567.7759L13959.9735,-3567.7746L13959.9681,-3567.7705L13959.9667,-3567.7694L13959.9577,-3567.7624L13959.9486,-3567.7555L13959.9209,-3567.7343L13959.9158,-3567.7304L13959.9141,-3567.7291L13959.8974,-3567.7162L13959.8942,-3567.7132L13959.8934,-3567.7125L13959.8916,-3567.7113L13959.8899,-3567.7102L13959.889,-3567.7095L13959.8865,-3567.7079L13959.8702,-3567.6958L13959.8214,-3567.6634L13959.8014,-3567.652L13959.7957,-3567.6488L13959.7886,-3567.6449L13959.7828,-3567.6416L13959.7778,-3567.6392"/>
<path content="1,山梨交通（株）,身延・身延山～新宿線,4.0,4.0,4.0," xlink:title="1" d="M13959.7778,-3567.6392L13959.7828,-3567.6416L13959.7886,-3567.6449L13959.7957,-3567.6488L13959.8014,-3567.652L13959.8214,-3567.6634L13959.8702,-3567.6958L13959.8865,-3567.7079L13959.889,-3567.7095L13959.8899,-3567.7102L13959.8916,-3567.7113L13959.8934,-3567.7125L13959.8942,-3567.7132L13959.8974,-3567.7162L13959.9141,-3567.7291L13959.9158,-3567.7304L13959.9209,-3567.7343L13959.9486,-3567.7555L13959.9577,-3567.7624L13959.9667,-3567.7694L13959.9681,-3567.7705L13959.9735,-3567.7746L13959.9747,-3567.7759L13959.9752,-3567.7764L13959.9764,-3567.7776L13959.9864,-3567.7884L13960.0106,-3567.8101"/>
<path content="1,山梨交通（株）,駒ヶ根～新宿,2.0,2.0,2.0," xlink:title="1" d="M13960.0106,-3567.8101L13959.9864,-3567.7884L13959.9764,-3567.7776L13959.9752,-3567.7764L13959.9747,-3567.7759L13959.9735,-3567.7746L13959.9681,-3567.7705L13959.9667,-3567.7694L13959.9577,-3567.7624L13959.9486,-3567.7555L13959.9209,-3567.7343L13959.9158,-3567.7304L13959.9141,-3567.7291L13959.8974,-3567.7162L13959.8942,-3567.7132L13959.8934,-3567.7125L13959.8916,-3567.7113L13959.8899,-3567.7102L13959.889,-3567.7095L13959.8865,-3567.7079L13959.8702,-3567.6958L13959.8214,-3567.6634L13959.8014,-3567.652L13959.7957,-3567.6488L13959.7886,-3567.6449L13959.7828,-3567.6416L13959.7778,-3567.6392"/>
<path content="1,岐阜バス観光（株）,高速新宿線,1.0,1.0,1.0," xlink:title="1" d="M13959.7778,-3567.6392L13959.7828,-3567.6416L13959.7957,-3567.6488L13959.8214,-3567.6634L13959.8702,-3567.6958L13959.8865,-3567.7079L13959.8933,-3567.7124L13959.8973,-3567.7161L13959.9209,-3567.7343L13959.9734,-3567.7745L13959.9864,-3567.7884L13960.0106,-3567.8101"/>
<path content="1,川中島バス（株）,特急白馬～新宿線,2.0,2.0,2.0," xlink:title="1" d="M13959.7778,-3567.6392L13959.7828,-3567.6416L13959.7957,-3567.6488L13959.8214,-3567.6634L13959.8702,-3567.6958L13959.8865,-3567.7079L13959.8933,-3567.7124L13959.8973,-3567.7161L13959.9209,-3567.7343L13959.9734,-3567.7745L13959.9864,-3567.7884L13960.0106,-3567.8101"/>
<path content="1,成田空港交通,立川線,3.0,3.0,3.0," xlink:title="1" d="M13959.7778,-3567.6392L13959.7828,-3567.6416L13959.7886,-3567.6449L13959.7957,-3567.6488L13959.8014,-3567.652L13959.8214,-3567.6634L13959.8702,-3567.6958L13959.8865,-3567.7079L13959.889,-3567.7095L13959.8899,-3567.7102L13959.8916,-3567.7113L13959.8934,-3567.7125L13959.8942,-3567.7132L13959.8974,-3567.7162L13959.9141,-3567.7291L13959.9158,-3567.7304L13959.9209,-3567.7343L13959.9486,-3567.7555L13959.9577,-3567.7624L13959.9667,-3567.7694L13959.9681,-3567.7705L13959.9735,-3567.7746L13959.9747,-3567.7759L13959.9752,-3567.7764L13959.9764,-3567.7776L13959.9864,-3567.7884L13960.0106,-3567.8101"/>
<path content="1,東京空港交通（株）,八王子エリア～成田空港線,3.5,3.5,3.5," xlink:title="1" d="M13959.7778,-3567.6392L13959.7828,-3567.6416L13959.7886,-3567.6449L13959.7957,-3567.6488L13959.8014,-3567.652L13959.8214,-3567.6634L13959.8702,-3567.6958L13959.8865,-3567.7079L13959.889,-3567.7095L13959.8899,-3567.7102L13959.8916,-3567.7113L13959.8934,-3567.7125L13959.8942,-3567.7132L13959.8974,-3567.7162L13959.9141,-3567.7291L13959.9158,-3567.7304L13959.9209,-3567.7343L13959.9486,-3567.7555L13959.9577,-3567.7624L13959.9667,-3567.7694L13959.9681,-3567.7705L13959.9735,-3567.7746L13959.9747,-3567.7759L13959.9752,-3567.7764L13959.9764,-3567.7776L13959.9864,-3567.7884L13960.0106,-3567.8101"/>
<path content="1,東京空港交通（株）,南大沢駅・京王多摩センター駅・聖蹟桜ヶ丘駅～成田空港線,4.0,4.0,4.0," xlink:title="1" d="M13959.7778,-3567.6392L13959.7828,-3567.6416L13959.7886,-3567.6449L13959.7957,-3567.6488L13959.8014,-3567.652L13959.8214,-3567.6634L13959.8702,-3567.6958L13959.8865,-3567.7079L13959.889,-3567.7095L13959.8899,-3567.7102L13959.8916,-3567.7113L13959.8934,-3567.7125L13959.8942,-3567.7132L13959.8974,-3567.7162L13959.9141,-3567.7291L13959.9158,-3567.7304L13959.9209,-3567.7343L13959.9486,-3567.7555L13959.9577,-3567.7624L13959.9667,-3567.7694L13959.9681,-3567.7705L13959.9735,-3567.7746L13959.9747,-3567.7759L13959.9752,-3567.7764L13959.9764,-3567.7776L13959.9864,-3567.7884L13960.0106,-3567.8101"/>
<path content="1,東京空港交通（株）,南大沢駅・京王多摩センター駅・聖蹟桜ヶ丘駅～羽田空港線,8.5,8.5,8.5," xlink:title="1" d="M13960.0106,-3567.8101L13959.9864,-3567.7884L13959.9764,-3567.7776L13959.9752,-3567.7764L13959.9747,-3567.7759L13959.9735,-3567.7746L13959.9681,-3567.7705L13959.9667,-3567.7694L13959.9577,-3567.7624L13959.9486,-3567.7555L13959.9209,-3567.7343L13959.9158,-3567.7304L13959.9141,-3567.7291L13959.8974,-3567.7162L13959.8942,-3567.7132L13959.8934,-3567.7125L13959.8916,-3567.7113L13959.8899,-3567.7102L13959.889,-3567.7095L13959.8865,-3567.7079L13959.8702,-3567.6958L13959.8214,-3567.6634L13959.8014,-3567.652L13959.7957,-3567.6488L13959.7886,-3567.6449L13959.7828,-3567.6416L13959.7778,-3567.6392"/>
<path content="1,東京空港交通（株）,国分寺駅・府中駅・調布駅～羽田空港線,10.5,10.5,10.5," xlink:title="1" d="M13960.0106,-3567.8101L13959.9864,-3567.7884L13959.9764,-3567.7776L13959.9752,-3567.7764L13959.9747,-3567.7759L13959.9735,-3567.7746L13959.9681,-3567.7705L13959.9667,-3567.7694L13959.9577,-3567.7624L13959.9486,-3567.7555L13959.9209,-3567.7343L13959.9158,-3567.7304L13959.9141,-3567.7291L13959.8974,-3567.7162L13959.8942,-3567.7132L13959.8934,-3567.7125L13959.8916,-3567.7113L13959.8899,-3567.7102L13959.889,-3567.7095L13959.8865,-3567.7079L13959.8702,-3567.6958L13959.8214,-3567.6634L13959.8014,-3567.652L13959.7957,-3567.6488L13959.7886,-3567.6449L13959.7828,-3567.6416L13959.7778,-3567.6392"/>
<path content="1,東京空港交通（株）,立川エリア～成田空港線,3.0,3.0,3.0," xlink:title="1" d="M13959.7778,-3567.6392L13959.7828,-3567.6416L13959.7886,-3567.6449L13959.7957,-3567.6488L13959.8014,-3567.652L13959.8214,-3567.6634L13959.8702,-3567.6958L13959.8865,-3567.7079L13959.889,-3567.7095L13959.8899,-3567.7102L13959.8916,-3567.7113L13959.8934,-3567.7125L13959.8942,-3567.7132L13959.8974,-3567.7162L13959.9141,-3567.7291L13959.9158,-3567.7304L13959.9209,-3567.7343L13959.9486,-3567.7555L13959.9577,-3567.7624L13959.9667,-3567.7694L13959.9681,-3567.7705L13959.9735,-3567.7746L13959.9747,-3567.7759L13959.9752,-3567.7764L13959.9764,-3567.7776L13959.9864,-3567.7884L13960.0106,-3567.8101"/>
<path content="1,東京空港交通（株）,調布駅～成田空港線,4.0,4.0,4.0," xlink:title="1" d="M13960.0106,-3567.8101L13959.9864,-3567.7884L13959.9764,-3567.7776L13959.9752,-3567.7764L13959.9747,-3567.7759L13959.9735,-3567.7746L13959.9681,-3567.7705L13959.9667,-3567.7694L13959.9577,-3567.7624L13959.9486,-3567.7555L13959.9209,-3567.7343L13959.9158,-3567.7304L13959.9141,-3567.7291L13959.8974,-3567.7162L13959.8942,-3567.7132L13959.8934,-3567.7125L13959.8916,-3567.7113L13959.8899,-3567.7102L13959.889,-3567.7095L13959.8865,-3567.7079L13959.8702,-3567.6958L13959.8214,-3567.6634L13959.8014,-3567.652L13959.7957,-3567.6488L13959.7886,-3567.6449L13959.7828,-3567.6416L13959.7778,-3567.6392"/>
<path content="1,東京空港交通（株）,高尾・八王子・日野エリア～羽田空港線,3.0,3.0,3.0," xlink:title="1" d="M13960.0106,-3567.8101L13959.9864,-3567.7884L13959.9764,-3567.7776L13959.9752,-3567.7764L13959.9747,-3567.7759L13959.9735,-3567.7746L13959.9681,-3567.7705L13959.9667,-3567.7694L13959.9577,-3567.7624L13959.9486,-3567.7555L13959.9209,-3567.7343L13959.9158,-3567.7304L13959.9141,-3567.7291L13959.8974,-3567.7162L13959.8942,-3567.7132L13959.8934,-3567.7125L13959.8916,-3567.7113L13959.8899,-3567.7102L13959.889,-3567.7095L13959.8865,-3567.7079L13959.8702,-3567.6958L13959.8214,-3567.6634L13959.8014,-3567.652L13959.7957,-3567.6488L13959.7886,-3567.6449L13959.7828,-3567.6416L13959.7778,-3567.6392"/>
<path content="1,東濃鉄道（株）,中央ライナー号,1.0,1.0,1.0," xlink:title="1" d="M13959.7778,-3567.6392L13959.7828,-3567.6416L13959.7957,-3567.6488L13959.8214,-3567.6634L13959.8702,-3567.6958L13959.8865,-3567.7079L13959.8933,-3567.7124L13959.8973,-3567.7161L13959.9209,-3567.7343L13959.9734,-3567.7745L13959.9864,-3567.7884L13960.0106,-3567.8101"/>
<path content="1,松本電気鉄道（株）,特急松本新宿線,11.0,11.0,11.0," xlink:title="1" d="M13959.7778,-3567.6392L13959.7828,-3567.6416L13959.7957,-3567.6488L13959.8214,-3567.6634L13959.8702,-3567.6958L13959.8865,-3567.7079L13959.8933,-3567.7124L13959.8973,-3567.7161L13959.9209,-3567.7343L13959.9734,-3567.7745L13959.9864,-3567.7884L13960.0106,-3567.8101"/>
<path content="1,松本電気鉄道（株）,特急白馬新宿線,4.0,4.0,4.0," xlink:title="1" d="M13959.7778,-3567.6392L13959.7828,-3567.6416L13959.7957,-3567.6488L13959.8214,-3567.6634L13959.8702,-3567.6958L13959.8865,-3567.7079L13959.8933,-3567.7124L13959.8973,-3567.7161L13959.9209,-3567.7343L13959.9734,-3567.7745L13959.9864,-3567.7884L13960.0106,-3567.8101"/>
<path content="1,濃飛乗合自動車（株）,新宿線,2.0,2.0,2.0," xlink:title="1" d="M13959.7778,-3567.6392L13959.7828,-3567.6416L13959.7957,-3567.6488L13959.8214,-3567.6634L13959.8702,-3567.6958L13959.8865,-3567.7079L13959.8933,-3567.7124L13959.8973,-3567.7161L13959.9209,-3567.7343L13959.9734,-3567.7745L13959.9864,-3567.7884L13960.0106,-3567.8101"/>
<path content="1,石見交通（株）,いわみEX　東京線,1.0,1.0,1.0," xlink:title="1" d="M13959.7778,-3567.6392L13959.7828,-3567.6416L13959.7957,-3567.6488L13959.8214,-3567.6634L13959.8702,-3567.6958L13959.8865,-3567.7079L13959.8933,-3567.7124L13959.8973,-3567.7161L13959.9209,-3567.7343L13959.9734,-3567.7745L13959.9864,-3567.7884L13960.0106,-3567.8101"/>
<path content="1,西東京バス（株）,001,2.0,2.0,2.0," xlink:title="1" d="M13960.0106,-3567.8101L13959.9864,-3567.7884L13959.9764,-3567.7776L13959.9752,-3567.7764L13959.9747,-3567.7759L13959.9735,-3567.7746L13959.9681,-3567.7705L13959.9667,-3567.7694L13959.9577,-3567.7624L13959.9486,-3567.7555L13959.9209,-3567.7343L13959.9158,-3567.7304L13959.9141,-3567.7291L13959.8974,-3567.7162L13959.8942,-3567.7132L13959.8934,-3567.7125L13959.8916,-3567.7113L13959.8899,-3567.7102L13959.889,-3567.7095L13959.8865,-3567.7079L13959.8702,-3567.6958L13959.8214,-3567.6634L13959.8014,-3567.652L13959.7957,-3567.6488L13959.7886,-3567.6449L13959.7828,-3567.6416L13959.7778,-3567.6392"/>
<path content="1,西東京バス（株）,002,2.0,2.0,2.0," xlink:title="1" d="M13959.7778,-3567.6392L13959.7828,-3567.6416L13959.7886,-3567.6449L13959.7957,-3567.6488L13959.8014,-3567.652L13959.8214,-3567.6634L13959.8702,-3567.6958L13959.8865,-3567.7079L13959.889,-3567.7095L13959.8899,-3567.7102L13959.8916,-3567.7113L13959.8934,-3567.7125L13959.8942,-3567.7132L13959.8974,-3567.7162L13959.9141,-3567.7291L13959.9158,-3567.7304L13959.9209,-3567.7343L13959.9486,-3567.7555L13959.9577,-3567.7624L13959.9667,-3567.7694L13959.9681,-3567.7705L13959.9735,-3567.7746L13959.9747,-3567.7759L13959.9752,-3567.7764L13959.9764,-3567.7776L13959.9864,-3567.7884L13960.0106,-3567.8101"/>
<path content="1,西東京バス（株）,003,9.0,9.0,9.0," xlink:title="1" d="M13960.0106,-3567.8101L13959.9864,-3567.7884L13959.9764,-3567.7776L13959.9752,-3567.7764L13959.9747,-3567.7759L13959.9735,-3567.7746L13959.9681,-3567.7705L13959.9667,-3567.7694L13959.9577,-3567.7624L13959.9486,-3567.7555L13959.9209,-3567.7343L13959.9158,-3567.7304L13959.9141,-3567.7291L13959.8974,-3567.7162L13959.8942,-3567.7132L13959.8934,-3567.7125L13959.8916,-3567.7113L13959.8899,-3567.7102L13959.889,-3567.7095L13959.8865,-3567.7079L13959.8702,-3567.6958L13959.8214,-3567.6634L13959.8014,-3567.652L13959.7957,-3567.6488L13959.7886,-3567.6449L13959.7828,-3567.6416L13959.7778,-3567.6392"/>
<path content="1,西東京バス（株）,004,1.0,0.0,0.0," xlink:title="1" d="M13960.0106,-3567.8101L13959.9864,-3567.7884L13959.9764,-3567.7776L13959.9752,-3567.7764L13959.9747,-3567.7759L13959.9735,-3567.7746L13959.9681,-3567.7705L13959.9667,-3567.7694L13959.9577,-3567.7624L13959.9486,-3567.7555L13959.9209,-3567.7343L13959.9158,-3567.7304L13959.9141,-3567.7291L13959.8974,-3567.7162L13959.8942,-3567.7132L13959.8934,-3567.7125L13959.8916,-3567.7113L13959.8899,-3567.7102L13959.889,-3567.7095L13959.8865,-3567.7079L13959.8702,-3567.6958L13959.8214,-3567.6634L13959.8014,-3567.652L13959.7957,-3567.6488L13959.7886,-3567.6449L13959.7828,-3567.6416L13959.7778,-3567.6392"/>
<path content="1,西東京バス（株）,005,1.0,0.0,0.0," xlink:title="1" d="M13960.0106,-3567.8101L13959.9864,-3567.7884L13959.9764,-3567.7776L13959.9752,-3567.7764L13959.9747,-3567.7759L13959.9735,-3567.7746L13959.9681,-3567.7705L13959.9667,-3567.7694L13959.9577,-3567.7624L13959.9486,-3567.7555L13959.9209,-3567.7343L13959.9158,-3567.7304L13959.9141,-3567.7291L13959.8974,-3567.7162L13959.8942,-3567.7132L13959.8934,-3567.7125L13959.8916,-3567.7113L13959.8899,-3567.7102L13959.889,-3567.7095L13959.8865,-3567.7079L13959.8702,-3567.6958L13959.8214,-3567.6634L13959.8014,-3567.652L13959.7957,-3567.6488L13959.7886,-3567.6449L13959.7828,-3567.6416L13959.7778,-3567.6392"/>
<path content="1,西東京バス（株）,オレンジライナー号,1.0,1.0,1.0," xlink:title="1" d="M13959.7778,-3567.6392L13959.7828,-3567.6416L13959.7886,-3567.6449L13959.7957,-3567.6488L13959.8014,-3567.652L13959.8214,-3567.6634L13959.8702,-3567.6958L13959.8865,-3567.7079L13959.889,-3567.7095L13959.8899,-3567.7102L13959.8916,-3567.7113L13959.8934,-3567.7125L13959.8942,-3567.7132L13959.8974,-3567.7162L13959.9141,-3567.7291L13959.9158,-3567.7304L13959.9209,-3567.7343L13959.9486,-3567.7555L13959.9577,-3567.7624L13959.9667,-3567.7694L13959.9681,-3567.7705L13959.9735,-3567.7746L13959.9747,-3567.7759L13959.9752,-3567.7764L13959.9764,-3567.7776L13959.9864,-3567.7884L13960.0106,-3567.8101"/>
<path content="1,西東京バス（株）,ツインクル号,1.0,1.0,1.0," xlink:title="1" d="M13959.7778,-3567.6392L13959.7828,-3567.6416L13959.7886,-3567.6449L13959.7957,-3567.6488L13959.8014,-3567.652L13959.8214,-3567.6634L13959.8702,-3567.6958L13959.8865,-3567.7079L13959.889,-3567.7095L13959.8899,-3567.7102L13959.8916,-3567.7113L13959.8934,-3567.7125L13959.8942,-3567.7132L13959.8974,-3567.7162L13959.9141,-3567.7291L13959.9158,-3567.7304L13959.9209,-3567.7343L13959.9486,-3567.7555L13959.9577,-3567.7624L13959.9667,-3567.7694L13959.9681,-3567.7705L13959.9735,-3567.7746L13959.9747,-3567.7759L13959.9752,-3567.7764L13959.9764,-3567.7776L13959.9864,-3567.7884L13960.0106,-3567.8101"/>
<path content="1,西東京バス（株）,ハローブリッジ号,1.0,1.0,1.0," xlink:title="1" d="M13959.7778,-3567.6392L13959.7828,-3567.6416L13959.7886,-3567.6449L13959.7957,-3567.6488L13959.8014,-3567.652L13959.8214,-3567.6634L13959.8702,-3567.6958L13959.8865,-3567.7079L13959.889,-3567.7095L13959.8899,-3567.7102L13959.8916,-3567.7113L13959.8934,-3567.7125L13959.8942,-3567.7132L13959.8974,-3567.7162L13959.9141,-3567.7291L13959.9158,-3567.7304L13959.9209,-3567.7343L13959.9486,-3567.7555L13959.9577,-3567.7624L13959.9667,-3567.7694L13959.9681,-3567.7705L13959.9735,-3567.7746L13959.9747,-3567.7759L13959.9752,-3567.7764L13959.9764,-3567.7776L13959.9864,-3567.7884L13960.0106,-3567.8101"/>
<path content="1,西武バス（株）,伊勢・鳥羽線,2.0,2.0,2.0," xlink:title="1" d="M13959.7778,-3567.6392L13959.7828,-3567.6416L13959.7886,-3567.6449L13959.7957,-3567.6488L13959.8014,-3567.652L13959.8214,-3567.6634L13959.8702,-3567.6958L13959.8865,-3567.7079L13959.889,-3567.7095L13959.8899,-3567.7102L13959.8916,-3567.7113L13959.8934,-3567.7125L13959.8942,-3567.7132L13959.8974,-3567.7162L13959.9141,-3567.7291L13959.9158,-3567.7304L13959.9209,-3567.7343L13959.9486,-3567.7555L13959.9577,-3567.7624L13959.9667,-3567.7694L13959.9681,-3567.7705L13959.9735,-3567.7746L13959.9747,-3567.7759L13959.9752,-3567.7764L13959.9764,-3567.7776L13959.9864,-3567.7884L13960.0106,-3567.8101"/>
<path content="1,諏訪バス（株）,岡谷・諏訪・茅野～新宿線_01_on,17.0,17.0,17.0," xlink:title="1" d="M13959.7778,-3567.6392L13959.7828,-3567.6416L13959.7957,-3567.6488L13959.8214,-3567.6634L13959.8702,-3567.6958L13959.8865,-3567.7079L13959.8933,-3567.7124L13959.8973,-3567.7161L13959.9209,-3567.7343L13959.9734,-3567.7745L13959.9864,-3567.7884L13960.0106,-3567.8101"/>
<path content="1,諏訪バス（株）,岡谷・諏訪・茅野～新宿線_02_on,17.0,17.0,17.0," xlink:title="1" d="M13959.7778,-3567.6392L13959.7828,-3567.6416L13959.7957,-3567.6488L13959.8214,-3567.6634L13959.8702,-3567.6958L13959.8865,-3567.7079L13959.8933,-3567.7124L13959.8973,-3567.7161L13959.9209,-3567.7343L13959.9734,-3567.7745L13959.9864,-3567.7884L13960.0106,-3567.8101"/>
<path content="1,諏訪バス（株）,岡谷・諏訪・茅野～新宿線_03_on,17.0,17.0,17.0," xlink:title="1" d="M13959.7778,-3567.6392L13959.7828,-3567.6416L13959.7957,-3567.6488L13959.8214,-3567.6634L13959.8702,-3567.6958L13959.8865,-3567.7079L13959.8933,-3567.7124L13959.8973,-3567.7161L13959.9209,-3567.7343L13959.9734,-3567.7745L13959.9864,-3567.7884L13960.0106,-3567.8101"/>
<path content="1,諏訪バス（株）,飯田～新宿線,12.0,12.0,12.0," xlink:title="1" d="M13959.7778,-3567.6392L13959.7828,-3567.6416L13959.7957,-3567.6488L13959.8214,-3567.6634L13959.8702,-3567.6958L13959.8865,-3567.7079L13959.8933,-3567.7124L13959.8973,-3567.7161L13959.9209,-3567.7343L13959.9734,-3567.7745L13959.9864,-3567.7884L13960.0106,-3567.8101"/>
<path content="1,諏訪バス（株）,駒ヶ根・伊那～新宿線,11.0,11.0,11.0," xlink:title="1" d="M13959.7778,-3567.6392L13959.7828,-3567.6416L13959.7957,-3567.6488L13959.8214,-3567.6634L13959.8702,-3567.6958L13959.8865,-3567.7079L13959.8933,-3567.7124L13959.8973,-3567.7161L13959.9209,-3567.7343L13959.9734,-3567.7745L13959.9864,-3567.7884L13960.0106,-3567.8101"/>
<path content="1,近鉄バス（株）,大阪・茨木⇔新宿・八王子,1.0,1.0,1.0," xlink:title="1" d="M13959.7778,-3567.6392L13959.7828,-3567.6416L13959.7957,-3567.6488L13959.8214,-3567.6634L13959.8702,-3567.6958L13959.8865,-3567.7079L13959.8933,-3567.7124L13959.8973,-3567.7161L13959.9209,-3567.7343L13959.9734,-3567.7745L13959.9864,-3567.7884L13960.0106,-3567.8101"/>
<path content="1,関東バス（株）,烏01,42.0,41.0,37.0," xlink:title="1" d="M13960.0119,-3567.2607L13960.0141,-3567.2876L13960.0168,-3567.3107L13960.0251,-3567.376L13960.0147,-3567.3912L13959.9954,-3567.4177L13959.9658,-3567.4628L13959.9602,-3567.4718L13959.942,-3567.4973L13959.9333,-3567.5067L13959.9029,-3567.5456L13959.8725,-3567.5799L13959.8638,-3567.5879L13959.8519,-3567.6033L13959.8339,-3567.6234L13959.8239,-3567.6322L13959.8014,-3567.652L13959.7827,-3567.6684L13959.7778,-3567.6726M13959.9422,-3567.8101L13959.9634,-3567.7777L13959.9681,-3567.7705L13959.9837,-3567.7467L13959.9858,-3567.7429L13959.9919,-3567.7309L13960.0141,-3567.6909L13960.0375,-3567.6544L13960.0562,-3567.6369L13960.0603,-3567.6301L13960.0693,-3567.6166L13960.0859,-3567.5856L13960.0934,-3567.5664L13960.0976,-3567.5546L13960.1079,-3567.5169L13960.112,-3567.4991L13960.1176,-3567.4819L13960.1216,-3567.4698L13960.1239,-3567.4601L13960.1239,-3567.4562L13960.1197,-3567.4408L13960.1156,-3567.4194L13960.1156,-3567.389L13960.1169,-3567.3777L13960.1186,-3567.3688L13960.1218,-3567.3603L13960.1393,-3567.3039L13960.1549,-3567.2627L13960.1556,-3567.2607"/>
<path content="1,関越交通（株）,富士急ハイランド線,999.9,999.9,999.9," xlink:title="1" d="M13959.7778,-3567.6392L13959.7828,-3567.6416L13959.7886,-3567.6449L13959.7957,-3567.6488L13959.8014,-3567.652L13959.8214,-3567.6634L13959.8702,-3567.6958L13959.8865,-3567.7079L13959.889,-3567.7095L13959.8899,-3567.7102L13959.8916,-3567.7113L13959.8934,-3567.7125L13959.8942,-3567.7132L13959.8974,-3567.7162L13959.9141,-3567.7291L13959.9158,-3567.7304L13959.9209,-3567.7343L13959.9486,-3567.7555L13959.9577,-3567.7624L13959.9667,-3567.7694L13959.9681,-3567.7705L13959.9735,-3567.7746L13959.9747,-3567.7759L13959.9752,-3567.7764L13959.9764,-3567.7776L13959.9864,-3567.7884L13960.0106,-3567.8101"/>
<path content="1,阪急バス（株）,新宿・渋谷行,1.0,1.0,1.0," xlink:title="1" d="M13959.7778,-3567.6392L13959.7828,-3567.6416L13959.7957,-3567.6488L13959.8214,-3567.6634L13959.8702,-3567.6958L13959.8865,-3567.7079L13959.8933,-3567.7124L13959.8973,-3567.7161L13959.9209,-3567.7343L13959.9734,-3567.7745L13959.9864,-3567.7884L13960.0106,-3567.8101"/>
<path content="1,（株）シティバス立川,立川駅～成田空港線,3.0,3.0,3.0," xlink:title="1" d="M13959.7778,-3567.6392L13959.7828,-3567.6416L13959.7886,-3567.6449L13959.7957,-3567.6488L13959.8014,-3567.652L13959.8214,-3567.6634L13959.8702,-3567.6958L13959.8865,-3567.7079L13959.889,-3567.7095L13959.8899,-3567.7102L13959.8916,-3567.7113L13959.8934,-3567.7125L13959.8942,-3567.7132L13959.8974,-3567.7162L13959.9141,-3567.7291L13959.9158,-3567.7304L13959.9209,-3567.7343L13959.9486,-3567.7555L13959.9577,-3567.7624L13959.9667,-3567.7694L13959.9681,-3567.7705L13959.9735,-3567.7746L13959.9747,-3567.7759L13959.9752,-3567.7764L13959.9764,-3567.7776L13959.9864,-3567.7884L13960.0106,-3567.8101"/>
<path content="1,（株）シティバス立川,立川駅～羽田空港線,9.0,9.0,9.0," xlink:title="1" d="M13960.0106,-3567.8101L13959.9864,-3567.7884L13959.9764,-3567.7776L13959.9752,-3567.7764L13959.9747,-3567.7759L13959.9735,-3567.7746L13959.9681,-3567.7705L13959.9667,-3567.7694L13959.9577,-3567.7624L13959.9486,-3567.7555L13959.9209,-3567.7343L13959.9158,-3567.7304L13959.9141,-3567.7291L13959.8974,-3567.7162L13959.8942,-3567.7132L13959.8934,-3567.7125L13959.8916,-3567.7113L13959.8899,-3567.7102L13959.889,-3567.7095L13959.8865,-3567.7079L13959.8702,-3567.6958L13959.8214,-3567.6634L13959.8014,-3567.652L13959.7957,-3567.6488L13959.7886,-3567.6449L13959.7828,-3567.6416L13959.7778,-3567.6392"/>
</g>
</svg>
