<?xml version="1.0" encoding="UTF-8"?>
<svg  xmlns="http://www.w3.org/2000/svg" xmlns:xlink="http://www.w3.org/1999/xlink" xmlns:go="http://purl.org/svgmap/profile" property="N07_001,N07_002,N07_003,N07_004,N07_005,N07_006,N07_007" viewBox="13964.17236328125 -3562.31689453125 0.54931640625 0.54931640625" go:dataArea="13964.17236328125 -3562.31689453125 0.54931640625 0.54931640625" >
<metadata>
 <rdf:RDF xmlns:rdf="http://www.w3.org/1999/02/22-rdf-syntax-ns#" xmlns:crs="http://opengis.org/xmldtds/transformations.dtd" xmlns:svg="http://www.w3.org/svg" >
  <rdf:Description>
   <crs:CoordinateReferenceSystem rdf:resource="http://purl.org/crs/84" svg:transform="matrix(100.0,0.0,0.0,-100.0,0.0,0.0)" />
  </rdf:Description>
 </rdf:RDF>
</metadata>
<globalCoordinateSystem srsName="http://purl.org/crs/84" transform="matrix(100.0,0.0,0.0,-100.0,0.0,0.0)" />
<defs>
 <g id="p0" >
  <circle cx="0.0" cy="0.0" r="3" stroke="green" stroke-width="0.75" vector-effect="non-scaling-stroke" />
 </g>
</defs>
<g fill="none" fill-rule="evenodd" stroke="#FF00FF" stroke-width="0.75" opacity="0.5" vector-effect="non-scaling-stroke" stroke-linejoin="bevel" >
<path content="1,東急バス・東急トランセ,園02,52.0,35.0,28.0," xlink:title="1" d="M13964.3357,-3561.7676L13964.326,-3561.7798L13964.2922,-3561.8192L13964.2887,-3561.822L13964.2825,-3561.8282L13964.2743,-3561.8389L13964.2508,-3561.8682L13964.2211,-3561.9032L13964.2142,-3561.9116L13964.2042,-3561.9197L13964.1928,-3561.9369L13964.1825,-3561.9499L13964.1724,-3561.9621"/>
<path content="1,東急バス・東急トランセ,恵32,68.0,59.0,55.0," xlink:title="1" d="M13964.7217,-3562.033L13964.7171,-3562.0316L13964.6984,-3562.0271L13964.6518,-3562.0178L13964.6212,-3562.0119L13964.6171,-3562.0104L13964.6136,-3562.0096L13964.5941,-3562.0054L13964.5697,-3561.9997L13964.5444,-3561.9932L13964.5094,-3561.9865L13964.4832,-3561.982L13964.4743,-3561.9809L13964.4611,-3561.9769L13964.4418,-3561.9736L13964.3915,-3561.964L13964.3466,-3561.9544L13964.3191,-3561.9471L13964.3074,-3561.9431L13964.2951,-3561.9382L13964.2832,-3561.933L13964.2211,-3561.9032L13964.2142,-3561.9116L13964.2042,-3561.9197L13964.1928,-3561.9369L13964.1825,-3561.9499L13964.1724,-3561.9621"/>
<path content="1,東急バス・東急トランセ,等12,56.0,54.0,52.0," xlink:title="1" d="M13964.7217,-3562.033L13964.7171,-3562.0316L13964.6984,-3562.0271L13964.6518,-3562.0178L13964.6212,-3562.0119L13964.6171,-3562.0104L13964.6136,-3562.0096L13964.5941,-3562.0054L13964.5697,-3561.9997L13964.5444,-3561.9932L13964.5094,-3561.9865L13964.4832,-3561.982L13964.4743,-3561.9809L13964.4611,-3561.9769L13964.4418,-3561.9736L13964.3915,-3561.964L13964.3466,-3561.9544L13964.3191,-3561.9471L13964.3074,-3561.9431L13964.2951,-3561.9382L13964.2832,-3561.933L13964.2211,-3561.9032L13964.2142,-3561.9116L13964.2042,-3561.9197L13964.1928,-3561.9369L13964.1825,-3561.9499L13964.1724,-3561.9621"/>
<path content="1,東急バス・東急トランセ,都立01,52.0,42.0,41.0," xlink:title="1" d="M13964.7217,-3562.2283L13964.6936,-3562.2164L13964.6463,-3562.1962L13964.6443,-3562.2001L13964.6432,-3562.2024L13964.6391,-3562.2102L13964.6346,-3562.2179L13964.6274,-3562.2288L13964.6205,-3562.2389L13964.5887,-3562.2942L13964.5798,-3562.3071L13964.5736,-3562.3169"/>
<path content="1,東急バス・東急トランセ,黒07,42.0,39.0,36.0," xlink:title="1" d="M13964.7217,-3562.0442L13964.7088,-3562.0891L13964.706,-3562.102L13964.7032,-3562.1105L13964.6977,-3562.1353L13964.6901,-3562.1353L13964.677,-3562.1398L13964.6715,-3562.1409L13964.666,-3562.1494L13964.6598,-3562.1679L13964.6488,-3562.191L13964.6463,-3562.1962L13964.6443,-3562.2001L13964.6432,-3562.2024L13964.6391,-3562.2102L13964.6346,-3562.2179L13964.6274,-3562.2288L13964.6205,-3562.2389L13964.5887,-3562.2942L13964.5798,-3562.3071L13964.5736,-3562.3169"/>
</g>
</svg>
