<?xml version="1.0" encoding="UTF-8"?>
<svg  xmlns="http://www.w3.org/2000/svg" xmlns:xlink="http://www.w3.org/1999/xlink" xmlns:go="http://purl.org/svgmap/profile" property="N07_001,N07_002,N07_003,N07_004,N07_005,N07_006,N07_007" viewBox="13547.2412109375 -3476.07421875 1.0986328125 1.0986328125" go:dataArea="13547.2412109375 -3476.07421875 1.0986328125 1.0986328125" >
<metadata>
 <rdf:RDF xmlns:rdf="http://www.w3.org/1999/02/22-rdf-syntax-ns#" xmlns:crs="http://opengis.org/xmldtds/transformations.dtd" xmlns:svg="http://www.w3.org/svg" >
  <rdf:Description>
   <crs:CoordinateReferenceSystem rdf:resource="http://purl.org/crs/84" svg:transform="matrix(100.0,0.0,0.0,-100.0,0.0,0.0)" />
  </rdf:Description>
 </rdf:RDF>
</metadata>
<globalCoordinateSystem srsName="http://purl.org/crs/84" transform="matrix(100.0,0.0,0.0,-100.0,0.0,0.0)" />
<defs>
 <g id="p0" >
  <circle cx="0.0" cy="0.0" r="3" stroke="green" stroke-width="0.75" vector-effect="non-scaling-stroke" />
 </g>
</defs>
<g fill="none" fill-rule="evenodd" stroke="#FF00FF" stroke-width="0.75" opacity="0.5" vector-effect="non-scaling-stroke" stroke-linejoin="bevel" >
<path content="1,JRバス関東（株）,ドリーム和歌山号,1.0,1.0,1.0," xlink:title="1" d="M13548.3398,-3475.89L13548.2692,-3475.872L13548.055,-3475.8176L13547.7656,-3475.7462L13547.6546,-3475.7188L13547.6334,-3475.7135L13547.5329,-3475.6878L13547.5329,-3475.6878L13547.3933,-3475.6521L13547.2475,-3475.6141L13547.2412,-3475.6125"/>
<path content="1,JR四国バス（株）,オリーブ松山号　松山⇔名古屋,1.0,1.0,1.0," xlink:title="1" d="M13547.2412,-3475.6125L13547.2475,-3475.6141L13547.3933,-3475.6521L13547.6334,-3475.7135L13547.7656,-3475.7462L13548.055,-3475.8176L13548.3398,-3475.89"/>
<path content="1,JR四国バス（株）,ドリーム徳島号　阿南・徳島⇔新宿・東京・新木場,1.0,1.0,1.0," xlink:title="1" d="M13547.2412,-3475.6125L13547.2475,-3475.6141L13547.3933,-3475.6521L13547.6334,-3475.7135L13547.7656,-3475.7462L13548.055,-3475.8176L13548.3398,-3475.89"/>
<path content="1,JR四国バス（株）,ドリーム高松・松山号　松山・高松⇔東京・東京ディズニーランド,1.0,1.0,1.0," xlink:title="1" d="M13547.2412,-3475.6125L13547.2475,-3475.6141L13547.3933,-3475.6521L13547.6334,-3475.7135L13547.7656,-3475.7462L13548.055,-3475.8176L13548.3398,-3475.89"/>
<path content="1,JR四国バス（株）,ドリーム高松号　観音寺・高松⇔新宿・東京・新木場,1.0,1.0,1.0," xlink:title="1" d="M13547.2412,-3475.6125L13547.2475,-3475.6141L13547.3933,-3475.6521L13547.6334,-3475.7135L13547.7656,-3475.7462L13548.055,-3475.8176L13548.3398,-3475.89"/>
<path content="1,JR四国バス（株）,ドリーム高知号　高知・徳島⇔東京・新木場,1.0,1.0,1.0," xlink:title="1" d="M13548.3398,-3475.89L13548.055,-3475.8176L13547.7656,-3475.7462L13547.6334,-3475.7135L13547.3933,-3475.6521L13547.2475,-3475.6141L13547.2412,-3475.6125"/>
<path content="1,JR四国バス（株）,松山エクスプレス大阪号　松山⇔京都,5.0,5.0,5.0," xlink:title="1" d="M13548.3398,-3475.89L13548.055,-3475.8176L13547.7656,-3475.7462L13547.6334,-3475.7135L13547.3933,-3475.6521L13547.2475,-3475.6141L13547.2412,-3475.6125"/>
<path content="1,JR四国バス（株）,阿波エクスプレス京都号　徳島⇔京都,3.0,3.0,3.0," xlink:title="1" d="M13547.2412,-3475.6125L13547.2475,-3475.6141L13547.3933,-3475.6521L13547.6334,-3475.7135L13547.7656,-3475.7462L13548.055,-3475.8176L13548.3398,-3475.89"/>
<path content="1,JR四国バス（株）,高松エクスプレス京都号　高松⇔京都,2.0,2.0,2.0," xlink:title="1" d="M13547.2412,-3475.6125L13547.2475,-3475.6141L13547.3933,-3475.6521L13547.6334,-3475.7135L13547.7656,-3475.7462L13548.055,-3475.8176L13548.3398,-3475.89"/>
<path content="1,JR四国バス（株）,高知エクスプレス号　高知⇔神戸・大阪・京都,7.0,7.0,7.0," xlink:title="1" d="M13547.2412,-3475.6125L13547.2475,-3475.6141L13547.3933,-3475.6521L13547.6334,-3475.7135L13547.7656,-3475.7462L13548.055,-3475.8176L13548.3398,-3475.89"/>
<path content="1,JR東海バス（株）,オリーブ松山号,1.0,1.0,1.0," xlink:title="1" d="M13547.2412,-3475.6125L13547.2475,-3475.6141L13547.3933,-3475.6521L13547.6334,-3475.7135L13547.7656,-3475.7462L13548.055,-3475.8176L13548.3398,-3475.89"/>
<path content="1,JR東海バス（株）,京阪神ドリーム静岡号,1.0,1.0,1.0," xlink:title="1" d="M13547.2412,-3475.6125L13547.2475,-3475.6141L13547.3933,-3475.6521L13547.6334,-3475.7135L13547.7656,-3475.7462L13548.055,-3475.8176L13548.3398,-3475.89"/>
<path content="1,JR東海バス（株）,名神ハイウェイバス_05_on,29.0,29.0,29.0," xlink:title="1" d="M13547.2412,-3475.6125L13547.2475,-3475.6141L13547.3933,-3475.6521L13547.6334,-3475.7135L13547.7656,-3475.7462L13548.055,-3475.8176L13548.3398,-3475.89"/>
<path content="1,エムケイ（株）,MKナイトシャトル　京都・大阪⇔東京便,1.0,1.0,1.0," xlink:title="1" d="M13547.2412,-3475.6125L13547.2475,-3475.6141L13547.3933,-3475.6521L13547.6334,-3475.7135L13547.7656,-3475.7462L13548.055,-3475.8176L13548.3398,-3475.89"/>
<path content="1,ロウズ観光（株）,岡山・倉敷～東京,1.0,1.0,1.0," xlink:title="1" d="M13547.2412,-3475.6125L13547.2475,-3475.6141L13547.3933,-3475.6521L13547.6334,-3475.7135L13547.7656,-3475.7462L13548.055,-3475.8176L13548.3398,-3475.89"/>
<path content="1,三重交通（株）,四日市～大阪,3.0,3.0,3.0," xlink:title="1" d="M13547.2412,-3475.6125L13547.2475,-3475.6141L13547.3933,-3475.6521L13547.6334,-3475.7135L13547.7656,-3475.7462L13548.055,-3475.8176L13548.3398,-3475.89"/>
<path content="1,京王バス南（株）,新宿・渋谷～神戸姫路線,1.0,1.0,1.0," xlink:title="1" d="M13547.2412,-3475.6125L13547.2475,-3475.6141L13547.3933,-3475.6521L13547.5329,-3475.6878L13547.5329,-3475.6878L13547.6334,-3475.7135L13547.6546,-3475.7188L13547.7656,-3475.7462L13548.055,-3475.8176L13548.2692,-3475.872L13548.3398,-3475.89"/>
<path content="1,京阪バス（株）,京都⇔徳島,1.0,1.0,1.0," xlink:title="1" d="M13547.2412,-3475.6125L13547.2475,-3475.6141L13547.3933,-3475.6521L13547.6334,-3475.7135L13547.7656,-3475.7462L13548.055,-3475.8176L13548.3398,-3475.89"/>
<path content="1,京阪バス（株）,京都⇔高松,1.0,1.0,1.0," xlink:title="1" d="M13547.2412,-3475.6125L13547.2475,-3475.6141L13547.3933,-3475.6521L13547.6334,-3475.7135L13547.7656,-3475.7462L13548.055,-3475.8176L13548.3398,-3475.89"/>
<path content="1,京阪バス（株）,京都・大阪⇔小倉・福岡,1.0,1.0,1.0," xlink:title="1" d="M13547.2412,-3475.6125L13547.2475,-3475.6141L13547.3933,-3475.6521L13547.6334,-3475.7135L13547.7656,-3475.7462L13548.055,-3475.8176L13548.3398,-3475.89"/>
<path content="1,京阪バス（株）,枚方・寝屋川⇔淡路・徳島,1.0,1.0,1.0," xlink:title="1" d="M13547.2412,-3475.6125L13547.2475,-3475.6141L13547.3933,-3475.6521L13547.6334,-3475.7135L13547.7656,-3475.7462L13548.055,-3475.8176L13548.3398,-3475.89"/>
<path content="1,千葉交通,大阪なんば・京都駅～成田・銚子線,1.0,1.0,1.0," xlink:title="1" d="M13547.2412,-3475.6125L13547.2475,-3475.6141L13547.3933,-3475.6521L13547.5329,-3475.6878L13547.5329,-3475.6878L13547.6334,-3475.7135L13547.6546,-3475.7188L13547.7656,-3475.7462L13548.055,-3475.8176L13548.2692,-3475.872L13548.3398,-3475.89"/>
<path content="1,南海バス（株）,和歌山・和泉中央・堺東⇔新宿・東京,1.0,1.0,1.0," xlink:title="1" d="M13547.2412,-3475.6125L13547.2475,-3475.6141L13547.3933,-3475.6521L13547.6334,-3475.7135L13547.7656,-3475.7462L13548.055,-3475.8176L13548.3398,-3475.89"/>
<path content="1,南海バス（株）,堺・大阪（なんば）・京都⇔小田原・藤沢・鎌倉,1.0,1.0,1.0," xlink:title="1" d="M13547.2412,-3475.6125L13547.2475,-3475.6141L13547.3933,-3475.6521L13547.6334,-3475.7135L13547.7656,-3475.7462L13548.055,-3475.8176L13548.3398,-3475.89"/>
<path content="1,南海バス（株）,堺・大阪（なんば）・京都⇔柏崎・長岡・三条（新潟）,1.0,1.0,1.0," xlink:title="1" d="M13547.2412,-3475.6125L13547.2475,-3475.6141L13547.3933,-3475.6521L13547.6334,-3475.7135L13547.7656,-3475.7462L13548.055,-3475.8176L13548.3398,-3475.89"/>
<path content="1,南海バス（株）,神戸・大阪（なんば）・京都⇔立川・昭島・玉川上水（東京）,1.0,1.0,1.0," xlink:title="1" d="M13547.2412,-3475.6125L13547.2475,-3475.6141L13547.3933,-3475.6521L13547.6334,-3475.7135L13547.7656,-3475.7462L13548.055,-3475.8176L13548.3398,-3475.89"/>
<path content="1,名鉄バス（株）,名古屋～徳島,0.5,2.0,2.0," xlink:title="1" d="M13548.3398,-3475.89L13548.055,-3475.8176L13547.7656,-3475.7462L13547.6334,-3475.7135L13547.3933,-3475.6521L13547.2475,-3475.6141L13547.2412,-3475.6125"/>
<path content="1,名鉄バス（株）,名古屋～松山,1.0,1.0,1.0," xlink:title="1" d="M13547.2412,-3475.6125L13547.2475,-3475.6141L13547.3933,-3475.6521L13547.6334,-3475.7135L13547.7656,-3475.7462L13548.055,-3475.8176L13548.3398,-3475.89"/>
<path content="1,名鉄バス（株）,名古屋～高松,2.0,2.0,2.0," xlink:title="1" d="M13547.2412,-3475.6125L13547.2475,-3475.6141L13547.3933,-3475.6521L13547.6334,-3475.7135L13547.7656,-3475.7462L13548.055,-3475.8176L13548.3398,-3475.89"/>
<path content="1,和歌山バス（株）,サウスウエーブ号和歌山・堺⇔横浜・上野・東京ディズニーリゾート・海浜幕張,1.0,1.0,1.0," xlink:title="1" d="M13547.2412,-3475.6125L13547.2475,-3475.6141L13547.3933,-3475.6521L13547.6334,-3475.7135L13547.7656,-3475.7462L13548.055,-3475.8176L13548.3398,-3475.89"/>
<path content="1,四国高速バス（株）,さぬきエクスプレス名古屋　善通寺・坂出⇔名古屋,1.0,1.0,1.0," xlink:title="1" d="M13547.2412,-3475.6125L13547.2475,-3475.6141L13547.3933,-3475.6521L13547.6334,-3475.7135L13547.7656,-3475.7462L13548.055,-3475.8176L13548.3398,-3475.89"/>
<path content="1,四国高速バス（株）,ハローブリッジ号　善通寺・坂出⇔横浜・新宿・八王子,1.0,1.0,1.0," xlink:title="1" d="M13548.3398,-3475.89L13548.055,-3475.8176L13547.7656,-3475.7462L13547.6334,-3475.7135L13547.3933,-3475.6521L13547.2475,-3475.6141L13547.2412,-3475.6125"/>
<path content="1,四国高速バス（株）,高松エクスプレス京都　高松⇔京都,1.0,2.0,2.0," xlink:title="1" d="M13547.2412,-3475.6125L13547.2475,-3475.6141L13547.3933,-3475.6521L13547.6334,-3475.7135L13547.7656,-3475.7462L13548.055,-3475.8176L13548.3398,-3475.89"/>
<path content="1,国際十王交通（株）,京都・大阪線,1.0,1.0,1.0," xlink:title="1" d="M13548.3398,-3475.89L13548.2692,-3475.872L13548.055,-3475.8176L13547.7656,-3475.7462L13547.6546,-3475.7188L13547.6334,-3475.7135L13547.5329,-3475.6878L13547.5329,-3475.6878L13547.3933,-3475.6521L13547.2475,-3475.6141L13547.2412,-3475.6125"/>
<path content="1,土佐電気鉄道（株）,ドラゴンライナー　高知⇔名古屋線,1.0,1.0,1.0," xlink:title="1" d="M13547.2412,-3475.6125L13547.2475,-3475.6141L13547.3933,-3475.6521L13547.6334,-3475.7135L13547.7656,-3475.7462L13548.055,-3475.8176L13548.3398,-3475.89"/>
<path content="1,大阪空港交通（株）,関西空港リムジンバス　京都&gt;&gt;&gt;大阪（伊丹）空港,40.0,40.0,40.0," xlink:title="1" d="M13547.2412,-3475.6125L13547.2475,-3475.6141L13547.3933,-3475.6521L13547.6334,-3475.7135L13547.7656,-3475.7462L13548.055,-3475.8176L13548.3398,-3475.89"/>
<path content="1,大阪空港交通（株）,関西空港リムジンバス　新大阪駅&gt;&gt;&gt;大阪（伊丹）空港,41.0,41.0,41.0," xlink:title="1" d="M13547.2412,-3475.776L13547.2914,-3475.7772L13547.3094,-3475.7778L13547.3435,-3475.7787L13547.4679,-3475.7811L13547.5474,-3475.7823L13547.6653,-3475.7852L13547.7771,-3475.7866L13547.8105,-3475.7866L13547.828,-3475.7887L13547.8437,-3475.7931L13547.851,-3475.7951L13547.8591,-3475.7967L13547.9004,-3475.8067L13547.9329,-3475.814L13548.0188,-3475.8367L13548.0447,-3475.8438L13548.0855,-3475.8545L13548.0963,-3475.8569L13548.1072,-3475.8569L13548.1231,-3475.8521L13548.1361,-3475.8468L13548.1766,-3475.8217L13548.2256,-3475.7918L13548.2463,-3475.7829L13548.2624,-3475.7761L13548.2856,-3475.7699L13548.3075,-3475.7665L13548.3398,-3475.7645"/>
<path content="1,宇和島自動車（株）,宇和島・松山⇔横浜・池袋・大宮,1.0,1.0,1.0," xlink:title="1" d="M13547.2412,-3475.6125L13547.2475,-3475.6141L13547.3933,-3475.6521L13547.6334,-3475.7135L13547.7656,-3475.7462L13548.055,-3475.8176L13548.3398,-3475.89"/>
<path content="1,宮城交通（株）,仙台～大阪線,1.0,1.0,1.0," xlink:title="1" d="M13548.3398,-3475.89L13548.2692,-3475.872L13548.055,-3475.8176L13547.7656,-3475.7462L13547.6546,-3475.7188L13547.6334,-3475.7135L13547.5329,-3475.6878L13547.5329,-3475.6878L13547.3933,-3475.6521L13547.2475,-3475.6141L13547.2412,-3475.6125"/>
<path content="1,富士急山梨バス（株）,FUJIYAMAライナー,1.0,1.0,1.0," xlink:title="1" d="M13547.2412,-3475.6125L13547.2475,-3475.6141L13547.3933,-3475.6521L13547.5329,-3475.6878L13547.5329,-3475.6878L13547.6334,-3475.7135L13547.6546,-3475.7188L13547.7656,-3475.7462L13548.055,-3475.8176L13548.2692,-3475.872L13548.3398,-3475.89"/>
<path content="1,富士急湘南バス（株）,小田原・新松田・沼津～大坂・京都線,1.0,1.0,1.0," xlink:title="1" d="M13548.3398,-3475.89L13548.2692,-3475.872L13548.055,-3475.8176L13547.7656,-3475.7462L13547.6546,-3475.7188L13547.6334,-3475.7135L13547.5329,-3475.6878L13547.5329,-3475.6878L13547.3933,-3475.6521L13547.2475,-3475.6141L13547.2412,-3475.6125"/>
<path content="1,富士急行（株）,FUJIYAMAライナー,1.0,1.0,1.0," xlink:title="1" d="M13547.2412,-3475.6125L13547.2475,-3475.6141L13547.3933,-3475.6521L13547.5329,-3475.6878L13547.5329,-3475.6878L13547.6334,-3475.7135L13547.6546,-3475.7188L13547.7656,-3475.7462L13548.055,-3475.8176L13548.2692,-3475.872L13548.3398,-3475.89"/>
<path content="1,富士急行（株）,小田原・新松田・沼津～大阪・京都線,1.0,1.0,1.0," xlink:title="1" d="M13548.3398,-3475.89L13548.2692,-3475.872L13548.055,-3475.8176L13547.7656,-3475.7462L13547.6546,-3475.7188L13547.6334,-3475.7135L13547.5329,-3475.6878L13547.5329,-3475.6878L13547.3933,-3475.6521L13547.2475,-3475.6141L13547.2412,-3475.6125"/>
<path content="1,山交バス（株）,アルカディア号,1.0,1.0,1.0," xlink:title="1" d="M13547.2412,-3475.6125L13547.2475,-3475.6141L13547.3933,-3475.6521L13547.5329,-3475.6878L13547.5329,-3475.6878L13547.6334,-3475.7135L13547.6546,-3475.7188L13547.7656,-3475.7462L13548.055,-3475.8176L13548.2692,-3475.872L13548.3398,-3475.89"/>
<path content="1,山梨交通（株）,甲府～京都・大阪線,2.0,2.0,2.0," xlink:title="1" d="M13547.2412,-3475.6125L13547.2475,-3475.6141L13547.3933,-3475.6521L13547.5329,-3475.6878L13547.5329,-3475.6878L13547.6334,-3475.7135L13547.6546,-3475.7188L13547.7656,-3475.7462L13548.055,-3475.8176L13548.2692,-3475.872L13548.3398,-3475.89"/>
<path content="1,山陽電気鉄道（株）,レッツ号　神戸・大阪・京都～東京（立川）線,1.0,1.0,1.0," xlink:title="1" d="M13547.2412,-3475.6125L13547.2475,-3475.6141L13547.3933,-3475.6521L13547.6334,-3475.7135L13547.7656,-3475.7462L13548.055,-3475.8176L13548.3398,-3475.89"/>
<path content="1,徳島バス（株）,徳島⇔京都,7.0,7.0,7.0," xlink:title="1" d="M13547.2412,-3475.6125L13547.2475,-3475.6141L13547.3933,-3475.6521L13547.6334,-3475.7135L13547.7656,-3475.7462L13548.055,-3475.8176L13548.3398,-3475.89"/>
<path content="1,徳島バス（株）,徳島⇔名古屋,2.0,2.0,2.0," xlink:title="1" d="M13548.3398,-3475.89L13548.055,-3475.8176L13547.7656,-3475.7462L13547.6334,-3475.7135L13547.3933,-3475.6521L13547.2475,-3475.6141L13547.2412,-3475.6125"/>
<path content="1,徳島バス（株）,徳島⇔寝屋川・枚方,2.0,2.0,2.0," xlink:title="1" d="M13547.2412,-3475.6125L13547.2475,-3475.6141L13547.3933,-3475.6521L13547.6334,-3475.7135L13547.7656,-3475.7462L13548.055,-3475.8176L13548.3398,-3475.89"/>
<path content="1,徳島バス（株）,徳島⇔東京,2.0,2.0,2.0," xlink:title="1" d="M13547.2412,-3475.6125L13547.2475,-3475.6141L13547.3933,-3475.6521L13547.6334,-3475.7135L13547.7656,-3475.7462L13548.055,-3475.8176L13548.3398,-3475.89"/>
<path content="1,成田空港交通,和歌山線,1.0,1.0,1.0," xlink:title="1" d="M13548.3398,-3475.89L13548.2692,-3475.872L13548.055,-3475.8176L13547.7656,-3475.7462L13547.6546,-3475.7188L13547.6334,-3475.7135L13547.5329,-3475.6878L13547.5329,-3475.6878L13547.3933,-3475.6521L13547.2475,-3475.6141L13547.2412,-3475.6125"/>
<path content="1,新常磐交通（株）,シーガル号,1.0,1.0,1.0," xlink:title="1" d="M13547.2412,-3475.6128L13547.2475,-3475.6144L13547.3932,-3475.6521L13547.5329,-3475.6878L13547.5329,-3475.6878L13547.6336,-3475.7135L13547.6546,-3475.7188L13547.7655,-3475.7463L13548.0551,-3475.8177L13548.2692,-3475.872L13548.3398,-3475.89"/>
<path content="1,日本中央バス（株）,シルクライナー,5.0,5.0,5.0," xlink:title="1" d="M13547.2412,-3475.6125L13547.2475,-3475.6141L13547.3933,-3475.6521L13547.5329,-3475.6878L13547.5329,-3475.6878L13547.6334,-3475.7135L13547.6546,-3475.7188L13547.7656,-3475.7462L13548.055,-3475.8176L13548.2692,-3475.872L13548.3398,-3475.89"/>
<path content="1,本四海峡バス（株）,阿波エクスプレス号（京都）　徳島駅-京都駅,1.0,1.0,1.0," xlink:title="1" d="M13548.3398,-3475.89L13548.055,-3475.8176L13547.7656,-3475.7462L13547.6334,-3475.7135L13547.3933,-3475.6521L13547.2475,-3475.6141L13547.2412,-3475.6125"/>
<path content="1,東北急行バス（株）,フライングスニーカー大坂号,1.0,1.0,1.0," xlink:title="1" d="M13548.3398,-3475.89L13548.2692,-3475.872L13548.055,-3475.8176L13547.7656,-3475.7462L13547.6546,-3475.7188L13547.6334,-3475.7135L13547.5329,-3475.6878L13547.5329,-3475.6878L13547.3933,-3475.6521L13547.2475,-3475.6141L13547.2412,-3475.6125"/>
<path content="1,東北急行バス（株）,フライングライナー号,1.0,1.0,1.0," xlink:title="1" d="M13547.2412,-3475.6125L13547.2475,-3475.6141L13547.3933,-3475.6521L13547.5329,-3475.6878L13547.5329,-3475.6878L13547.6334,-3475.7135L13547.6546,-3475.7188L13547.7656,-3475.7462L13548.055,-3475.8176L13548.2692,-3475.872L13548.3398,-3475.89"/>
<path content="1,江ノ電バス藤沢,サザンクロス,1.0,1.0,1.0," xlink:title="1" d="M13548.3398,-3475.89L13548.2692,-3475.872L13548.055,-3475.8176L13547.7656,-3475.7462L13547.6546,-3475.7188L13547.6334,-3475.7135L13547.5329,-3475.6878L13547.5329,-3475.6878L13547.3933,-3475.6521L13547.2475,-3475.6141L13547.2412,-3475.6125"/>
<path content="1,琴平バス（株）,愛媛・高知シャトル,2.0,2.0,2.0," xlink:title="1" d="M13547.2412,-3475.6125L13547.2475,-3475.6141L13547.3933,-3475.6521L13547.6334,-3475.7135L13547.7656,-3475.7462L13548.055,-3475.8176L13548.3398,-3475.89"/>
<path content="1,神姫バス（株）,姫路・神戸（三ノ宮）-東京（渋谷・新宿）,1.0,1.0,1.0," xlink:title="1" d="M13548.3398,-3475.89L13548.055,-3475.8176L13547.7656,-3475.7462L13547.6334,-3475.7135L13547.3933,-3475.6521L13547.2475,-3475.6141L13547.2412,-3475.6125"/>
<path content="1,福島交通（株）,福島高速バスターミナル～大阪あべの橋,1.0,1.0,1.0," xlink:title="1" d="M13547.2412,-3475.6128L13547.2475,-3475.6144L13547.3932,-3475.6521L13547.5329,-3475.6878L13547.5329,-3475.6878L13547.6336,-3475.7135L13547.6546,-3475.7188L13547.7655,-3475.7463L13548.0551,-3475.8177L13548.2692,-3475.872L13548.3398,-3475.89"/>
<path content="1,立川バス（株）,立川駅～京都・大阪～神戸三宮線,1.0,1.0,1.0," xlink:title="1" d="M13547.2412,-3475.6125L13547.2475,-3475.6141L13547.3933,-3475.6521L13547.5329,-3475.6878L13547.5329,-3475.6878L13547.6334,-3475.7135L13547.6546,-3475.7188L13547.7656,-3475.7462L13548.055,-3475.8176L13548.2692,-3475.872L13548.3398,-3475.89"/>
<path content="1,西東京バス（株）,ツインクル号,1.0,1.0,1.0," xlink:title="1" d="M13548.3398,-3475.89L13548.2692,-3475.872L13548.055,-3475.8176L13547.7656,-3475.7462L13547.6546,-3475.7188L13547.6334,-3475.7135L13547.5329,-3475.6878L13547.5329,-3475.6878L13547.3933,-3475.6521L13547.2475,-3475.6141L13547.2412,-3475.6125"/>
<path content="1,西武バス（株）,三都線,1.0,1.0,1.0," xlink:title="1" d="M13548.3398,-3475.89L13548.2692,-3475.872L13548.055,-3475.8176L13547.7656,-3475.7462L13547.6546,-3475.7188L13547.6334,-3475.7135L13547.5329,-3475.6878L13547.5329,-3475.6878L13547.3933,-3475.6521L13547.2475,-3475.6141L13547.2412,-3475.6125"/>
<path content="1,越後交通（株）,高速バス越後（三条・長岡・柏崎～京都・大阪線）,1.0,1.0,1.0," xlink:title="1" d="M13548.3398,-3475.89L13548.055,-3475.8176L13547.7656,-3475.7462L13547.6334,-3475.7135L13547.3933,-3475.6521L13547.2475,-3475.6141L13547.2412,-3475.6125"/>
<path content="1,近鉄バス（株）,京都⇔四日市,12.0,12.0,12.0," xlink:title="1" d="M13547.2412,-3475.6125L13547.2475,-3475.6141L13547.3933,-3475.6521L13547.6334,-3475.7135L13547.7656,-3475.7462L13548.055,-3475.8176L13548.3398,-3475.89"/>
<path content="1,近鉄バス（株）,京都・大阪⇔熊本,1.0,1.0,1.0," xlink:title="1" d="M13548.3398,-3475.89L13548.055,-3475.8176L13547.7656,-3475.7462L13547.6334,-3475.7135L13547.3933,-3475.6521L13547.2475,-3475.6141L13547.2412,-3475.6125"/>
<path content="1,近鉄バス（株）,京都・大阪⇔長崎,1.0,1.0,1.0," xlink:title="1" d="M13548.3398,-3475.89L13548.055,-3475.8176L13547.7656,-3475.7462L13547.6334,-3475.7135L13547.3933,-3475.6521L13547.2475,-3475.6141L13547.2412,-3475.6125"/>
<path content="1,近鉄バス（株）,京都・大阪・神戸⇔中村・宿毛,2.0,2.0,2.0," xlink:title="1" d="M13548.3398,-3475.89L13548.055,-3475.8176L13547.7656,-3475.7462L13547.6334,-3475.7135L13547.3933,-3475.6521L13547.2475,-3475.6141L13547.2412,-3475.6125"/>
<path content="1,近鉄バス（株）,京都・大阪・神戸⇔宮崎,1.0,1.0,1.0," xlink:title="1" d="M13547.2412,-3475.6125L13547.2475,-3475.6141L13547.3933,-3475.6521L13547.6334,-3475.7135L13547.7656,-3475.7462L13548.055,-3475.8176L13548.3398,-3475.89"/>
<path content="1,近鉄バス（株）,大阪⇔東京駅,1.0,1.0,1.0," xlink:title="1" d="M13548.3398,-3475.89L13548.055,-3475.8176L13547.7656,-3475.7462L13547.6334,-3475.7135L13547.3933,-3475.6521L13547.2475,-3475.6141L13547.2412,-3475.6125"/>
<path content="1,近鉄バス（株）,大阪・京都⇔つくば・水戸,1.0,1.0,1.0," xlink:title="1" d="M13547.2412,-3475.6125L13547.2475,-3475.6141L13547.3933,-3475.6521L13547.6334,-3475.7135L13547.7656,-3475.7462L13548.055,-3475.8176L13548.3398,-3475.89"/>
<path content="1,近鉄バス（株）,大阪・京都⇔上田・小諸・軽井沢,1.0,1.0,1.0," xlink:title="1" d="M13547.2412,-3475.6125L13547.2475,-3475.6141L13547.3933,-3475.6521L13547.6334,-3475.7135L13547.7656,-3475.7462L13548.055,-3475.8176L13548.3398,-3475.89"/>
<path content="1,近鉄バス（株）,大阪・京都⇔久喜・栃木・宇都宮,1.0,1.0,1.0," xlink:title="1" d="M13547.2412,-3475.6125L13547.2475,-3475.6141L13547.3933,-3475.6521L13547.6334,-3475.7135L13547.7656,-3475.7462L13548.055,-3475.8176L13548.3398,-3475.89"/>
<path content="1,近鉄バス（株）,大阪・京都⇔仙台,1.0,1.0,1.0," xlink:title="1" d="M13547.2412,-3475.6125L13547.2475,-3475.6141L13547.3933,-3475.6521L13547.6334,-3475.7135L13547.7656,-3475.7462L13548.055,-3475.8176L13548.3398,-3475.89"/>
<path content="1,近鉄バス（株）,大阪・京都⇔山形,1.0,1.0,1.0," xlink:title="1" d="M13547.2412,-3475.6125L13547.2475,-3475.6141L13547.3933,-3475.6521L13547.6334,-3475.7135L13547.7656,-3475.7462L13548.055,-3475.8176L13548.3398,-3475.89"/>
<path content="1,近鉄バス（株）,大阪・京都⇔川越・坂戸・熊谷,1.0,1.0,1.0," xlink:title="1" d="M13547.2412,-3475.6125L13547.2475,-3475.6141L13547.3933,-3475.6521L13547.6334,-3475.7135L13547.7656,-3475.7462L13548.055,-3475.8176L13548.3398,-3475.89"/>
<path content="1,近鉄バス（株）,大阪・京都⇔日立・いわき,1.0,1.0,1.0," xlink:title="1" d="M13547.2412,-3475.6125L13547.2475,-3475.6141L13547.3933,-3475.6521L13547.6334,-3475.7135L13547.7656,-3475.7462L13548.055,-3475.8176L13548.3398,-3475.89"/>
<path content="1,近鉄バス（株）,大阪・京都⇔東静岡・富士宮・富士吉田駅,1.0,1.0,1.0," xlink:title="1" d="M13547.2412,-3475.6125L13547.2475,-3475.6141L13547.3933,-3475.6521L13547.6334,-3475.7135L13547.7656,-3475.7462L13548.055,-3475.8176L13548.3398,-3475.89"/>
<path content="1,近鉄バス（株）,大阪・京都⇔沼津・御殿場・新松田・小田原,1.0,1.0,1.0," xlink:title="1" d="M13547.2412,-3475.6125L13547.2475,-3475.6141L13547.3933,-3475.6521L13547.6334,-3475.7135L13547.7656,-3475.7462L13548.055,-3475.8176L13548.3398,-3475.89"/>
<path content="1,近鉄バス（株）,大阪・京都⇔甲府,2.0,2.0,2.0," xlink:title="1" d="M13547.2412,-3475.6125L13547.2475,-3475.6141L13547.3933,-3475.6521L13547.6334,-3475.7135L13547.7656,-3475.7462L13548.055,-3475.8176L13548.3398,-3475.89"/>
<path content="1,近鉄バス（株）,大阪・京都⇔郡上八幡・飛騨高山,2.0,2.0,2.0," xlink:title="1" d="M13547.2412,-3475.6125L13547.2475,-3475.6141L13547.3933,-3475.6521L13547.6334,-3475.7135L13547.7656,-3475.7462L13548.055,-3475.8176L13548.3398,-3475.89"/>
<path content="1,近鉄バス（株）,大阪・京都⇔郡山・福島,1.0,1.0,1.0," xlink:title="1" d="M13547.2412,-3475.6125L13547.2475,-3475.6141L13547.3933,-3475.6521L13547.6334,-3475.7135L13547.7656,-3475.7462L13548.055,-3475.8176L13548.3398,-3475.89"/>
<path content="1,近鉄バス（株）,藤井寺・大阪・京都⇔東京駅・横浜,1.0,1.0,1.0," xlink:title="1" d="M13548.3398,-3475.89L13548.055,-3475.8176L13547.7656,-3475.7462L13547.6334,-3475.7135L13547.3933,-3475.6521L13547.2475,-3475.6141L13547.2412,-3475.6125"/>
<path content="1,関東自動車（株）,とちの木号,1.0,1.0,1.0," xlink:title="1" d="M13548.3398,-3475.89L13548.2692,-3475.872L13548.055,-3475.8176L13547.7656,-3475.7462L13547.6546,-3475.7188L13547.6334,-3475.7135L13547.5329,-3475.6878L13547.5329,-3475.6878L13547.3933,-3475.6521L13547.2475,-3475.6141L13547.2412,-3475.6125"/>
<path content="1,関東鉄道（株）,水戸駅南口～あべの橋駅（JR天王寺駅）,1.0,1.0,1.0," xlink:title="1" d="M13548.3398,-3475.89L13548.2692,-3475.872L13548.055,-3475.8176L13547.7656,-3475.7462L13547.6546,-3475.7188L13547.6334,-3475.7135L13547.5329,-3475.6878L13547.5329,-3475.6878L13547.3933,-3475.6521L13547.2475,-3475.6141L13547.2412,-3475.6125"/>
<path content="1,阪急バス（株）,豊中病院線64,7.0,0.0,0.0," xlink:title="1" d="M13548.3398,-3475.5823L13548.3355,-3475.5467L13548.3327,-3475.4942L13548.3314,-3475.4616L13548.3301,-3475.4526L13548.3301,-3475.4452L13548.3287,-3475.4385L13548.3266,-3475.399L13548.3239,-3475.3246L13548.3222,-3475.3097L13548.3224,-3475.3084L13548.3201,-3475.238L13548.3171,-3475.1589L13548.315,-3475.0992L13548.3135,-3475.0478L13548.3137,-3475.0107L13548.3132,-3474.9756"/>
<path content="1,阪急バス（株）,阪北線10,27.8,24.5,24.5," xlink:title="1" d="M13547.624,-3474.9756L13547.6242,-3475.0071L13547.6253,-3475.0113L13547.624,-3475.0947L13547.6233,-3475.1206L13547.6233,-3475.1634L13547.6229,-3475.1677L13547.6233,-3475.208L13547.6246,-3475.2638L13547.6281,-3475.2796L13547.6301,-3475.2874L13547.6326,-3475.3246L13547.6328,-3475.3308L13547.6383,-3475.4029L13547.6403,-3475.4176L13547.641,-3475.4373L13547.6424,-3475.4435L13547.6451,-3475.4881L13547.6465,-3475.4971L13547.6472,-3475.5174L13547.652,-3475.5833L13547.6581,-3475.678L13547.6594,-3475.7016L13547.6653,-3475.7852L13547.6686,-3475.8435L13547.669,-3475.8634L13547.6738,-3475.9474L13547.6758,-3475.9795L13547.6779,-3476.0116L13547.6799,-3476.0415L13547.6822,-3476.0498L13547.6815,-3476.0742"/>
<path content="1,阪急バス（株）,阪北線13,15.9,20.0,20.0," xlink:title="1" d="M13547.6815,-3476.0742L13547.6822,-3476.0498L13547.6799,-3476.0415L13547.6779,-3476.0116L13547.6758,-3475.9795L13547.6738,-3475.9474L13547.669,-3475.8634L13547.6686,-3475.8435L13547.6653,-3475.7852L13547.6594,-3475.7016L13547.6581,-3475.678L13547.652,-3475.5833L13547.6472,-3475.5174L13547.6465,-3475.4971L13547.6451,-3475.4881L13547.6424,-3475.4435L13547.641,-3475.4373L13547.6403,-3475.4176L13547.6383,-3475.4029L13547.6328,-3475.3308L13547.6326,-3475.3246L13547.6301,-3475.2874L13547.6281,-3475.2796L13547.6246,-3475.2638L13547.6233,-3475.208L13547.6229,-3475.1677L13547.6233,-3475.1634L13547.6233,-3475.1206L13547.624,-3475.0947L13547.6253,-3475.0113L13547.6242,-3475.0071L13547.624,-3474.9756"/>
<path content="1,阪急バス（株）,阪北線160,14.8,13.6,13.6," xlink:title="1" d="M13547.6815,-3476.0742L13547.6822,-3476.0498L13547.6799,-3476.0415L13547.6779,-3476.0116L13547.6758,-3475.9795L13547.6738,-3475.9474L13547.669,-3475.8634L13547.6686,-3475.8435L13547.6653,-3475.7852L13547.6594,-3475.7016L13547.6581,-3475.678L13547.652,-3475.5833L13547.6472,-3475.5174L13547.6465,-3475.4971L13547.6451,-3475.4881L13547.6424,-3475.4435L13547.641,-3475.4373L13547.6403,-3475.4176L13547.6383,-3475.4029L13547.6328,-3475.3308L13547.6326,-3475.3246L13547.6301,-3475.2874L13547.6281,-3475.2796L13547.6246,-3475.2638L13547.6233,-3475.208L13547.6229,-3475.1677L13547.6233,-3475.1634L13547.6233,-3475.1206L13547.624,-3475.0947L13547.6253,-3475.0113L13547.6242,-3475.0071L13547.624,-3474.9756"/>
<path content="1,阪急バス（株）,阪北線21,24.3,30.0,30.0," xlink:title="1" d="M13548.3398,-3475.7645L13548.3075,-3475.7665L13548.2856,-3475.7699L13548.2624,-3475.7761L13548.2463,-3475.7829L13548.2256,-3475.7918L13548.1766,-3475.8217L13548.1361,-3475.8468L13548.1231,-3475.8521L13548.1072,-3475.8569L13548.0963,-3475.8569L13548.0855,-3475.8545L13548.0447,-3475.8438L13548.0188,-3475.8367L13547.9329,-3475.814L13547.9004,-3475.8067L13547.8591,-3475.7967L13547.851,-3475.7951L13547.8437,-3475.7931L13547.828,-3475.7887L13547.8105,-3475.7866L13547.7771,-3475.7866L13547.6653,-3475.7852L13547.5474,-3475.7823L13547.4679,-3475.7811L13547.3435,-3475.7787L13547.3094,-3475.7778L13547.2914,-3475.7772L13547.2412,-3475.776M13547.624,-3474.9756L13547.6242,-3475.0071L13547.6253,-3475.0113L13547.624,-3475.0947L13547.6233,-3475.1206L13547.6233,-3475.1634L13547.6229,-3475.1677L13547.6233,-3475.208L13547.6246,-3475.2638L13547.6281,-3475.2796L13547.6601,-3475.2688L13547.6949,-3475.2604L13547.7209,-3475.2559L13547.7427,-3475.2525L13547.7631,-3475.2531L13547.7736,-3475.2529L13547.7856,-3475.2553L13547.8607,-3475.2711L13547.8791,-3475.2756L13547.9506,-3475.2906L13547.9587,-3475.2923L13547.98,-3475.2968L13547.9921,-3475.2993L13548.0026,-3475.3015L13548.0169,-3475.3055L13548.0367,-3475.3089L13548.0844,-3475.3089L13548.1581,-3475.3083L13548.2041,-3475.3076L13548.3222,-3475.3097L13548.3239,-3475.3246L13548.3266,-3475.399L13548.3287,-3475.4385L13548.3301,-3475.4452L13548.3301,-3475.4526L13548.3314,-3475.4616L13548.3327,-3475.4942L13548.3355,-3475.5467L13548.3398,-3475.5823"/>
<path content="1,阪急バス（株）,阪北線22,8.6,16.0,16.0," xlink:title="1" d="M13548.3398,-3475.7645L13548.3075,-3475.7665L13548.2856,-3475.7699L13548.2624,-3475.7761L13548.2463,-3475.7829L13548.2256,-3475.7918L13548.1766,-3475.8217L13548.1361,-3475.8468L13548.1231,-3475.8521L13548.1072,-3475.8569L13548.0963,-3475.8569L13548.0855,-3475.8545L13548.0447,-3475.8438L13548.0188,-3475.8367L13547.9329,-3475.814L13547.9004,-3475.8067L13547.8591,-3475.7967L13547.851,-3475.7951L13547.8437,-3475.7931L13547.828,-3475.7887L13547.8105,-3475.7866L13547.7771,-3475.7866L13547.6653,-3475.7852L13547.5474,-3475.7823L13547.4679,-3475.7811L13547.3435,-3475.7787L13547.3094,-3475.7778L13547.2914,-3475.7772L13547.2412,-3475.776M13547.624,-3474.9756L13547.6242,-3475.0071L13547.6253,-3475.0113L13547.624,-3475.0947L13547.6233,-3475.1206L13547.6233,-3475.1634L13547.6229,-3475.1677L13547.6233,-3475.208L13547.6246,-3475.2638L13547.6281,-3475.2796L13547.6601,-3475.2688L13547.6949,-3475.2604L13547.7209,-3475.2559L13547.7427,-3475.2525L13547.7631,-3475.2531L13547.7736,-3475.2529L13547.7856,-3475.2553L13547.8607,-3475.2711L13547.8791,-3475.2756L13547.9506,-3475.2906L13547.9587,-3475.2923L13547.98,-3475.2968L13547.9921,-3475.2993L13548.0026,-3475.3015L13548.0169,-3475.3055L13548.0367,-3475.3089L13548.0844,-3475.3089L13548.1581,-3475.3083L13548.2041,-3475.3076L13548.3222,-3475.3097L13548.3239,-3475.3246L13548.3266,-3475.399L13548.3287,-3475.4385L13548.3301,-3475.4452L13548.3301,-3475.4526L13548.3314,-3475.4616L13548.3327,-3475.4942L13548.3355,-3475.5467L13548.3398,-3475.5823"/>
<path content="1,阪急バス（株）,阪北線24,26.4,24.7,24.7," xlink:title="1" d="M13548.3398,-3475.5823L13548.3355,-3475.5467L13548.3327,-3475.4942L13548.3314,-3475.4616L13548.3301,-3475.4526L13548.3301,-3475.4452L13548.3287,-3475.4385L13548.3266,-3475.399L13548.3239,-3475.3246L13548.3222,-3475.3097L13548.3224,-3475.3084L13548.2041,-3475.3076L13548.1581,-3475.3083L13548.0844,-3475.3089L13548.0367,-3475.3089L13548.0169,-3475.3055L13548.0026,-3475.3015L13547.9921,-3475.2993L13547.98,-3475.2968L13547.9587,-3475.2923L13547.9506,-3475.2906L13547.8791,-3475.2756L13547.8607,-3475.2711L13547.7856,-3475.2553L13547.7736,-3475.2529L13547.7631,-3475.2531L13547.7427,-3475.2525L13547.7209,-3475.2559L13547.6949,-3475.2604L13547.6601,-3475.2688L13547.6281,-3475.2796L13547.6246,-3475.2638L13547.6233,-3475.208L13547.6229,-3475.1677L13547.6233,-3475.1634L13547.6233,-3475.1206L13547.624,-3475.0947L13547.6253,-3475.0113L13547.6242,-3475.0071L13547.624,-3474.9756"/>
<path content="1,阪急バス（株）,阪北線63,12.1,35.0,35.0," xlink:title="1" d="M13547.6815,-3476.0742L13547.6822,-3476.0498L13547.6799,-3476.0415L13547.6779,-3476.0116L13547.6758,-3475.9795L13547.6738,-3475.9474L13547.669,-3475.8634L13547.6686,-3475.8435L13547.6653,-3475.7852L13547.6594,-3475.7016L13547.6581,-3475.678L13547.652,-3475.5833L13547.6472,-3475.5174L13547.6465,-3475.4971L13547.6451,-3475.4881L13547.6424,-3475.4435L13547.641,-3475.4373L13547.6403,-3475.4176L13547.6383,-3475.4029L13547.6328,-3475.3308L13547.6326,-3475.3246L13547.6301,-3475.2874L13547.6281,-3475.2796L13547.6246,-3475.2638L13547.6233,-3475.208L13547.6229,-3475.1677L13547.6233,-3475.1634L13547.6233,-3475.1206L13547.624,-3475.0947L13547.6253,-3475.0113L13547.6242,-3475.0071L13547.624,-3474.9756"/>
<path content="1,阪急バス（株）,阪北線9,16.5,14.3,14.3," xlink:title="1" d="M13547.624,-3474.9756L13547.6242,-3475.0071L13547.6253,-3475.0113L13547.624,-3475.0947L13547.6233,-3475.1206L13547.6233,-3475.1634L13547.6229,-3475.1677L13547.6233,-3475.208L13547.6246,-3475.2638L13547.6281,-3475.2796L13547.6301,-3475.2874L13547.6326,-3475.3246L13547.6328,-3475.3308L13547.6383,-3475.4029L13547.6403,-3475.4176L13547.641,-3475.4373L13547.6424,-3475.4435L13547.6451,-3475.4881L13547.6465,-3475.4971L13547.6472,-3475.5174L13547.652,-3475.5833L13547.6581,-3475.678L13547.6594,-3475.7016L13547.6653,-3475.7852L13547.6686,-3475.8435L13547.669,-3475.8634L13547.6738,-3475.9474L13547.6758,-3475.9795L13547.6779,-3476.0116L13547.6799,-3476.0415L13547.6822,-3476.0498L13547.6815,-3476.0742"/>
<path content="1,高知県交通（株）,ドラゴンライナー　高知⇔名古屋線,1.0,1.0,1.0," xlink:title="1" d="M13547.2412,-3475.6125L13547.2475,-3475.6141L13547.3933,-3475.6521L13547.6334,-3475.7135L13547.7656,-3475.7462L13548.055,-3475.8176L13548.3398,-3475.89"/>
<path content="1,高知西南交通（株）,しまんとブルーライナー　京都線,1.0,1.0,1.0," xlink:title="1" d="M13547.2412,-3475.6125L13547.2475,-3475.6141L13547.3933,-3475.6521L13547.6334,-3475.7135L13547.7656,-3475.7462L13548.055,-3475.8176L13548.3398,-3475.89"/>
</g>
</svg>
