<?xml version="1.0" encoding="UTF-8"?>
<svg  xmlns="http://www.w3.org/2000/svg" xmlns:xlink="http://www.w3.org/1999/xlink" xmlns:go="http://purl.org/svgmap/profile" property="N07_001,N07_002,N07_003,N07_004,N07_005,N07_006,N07_007" viewBox="13515.380859375 -3491.455078125 2.197265625 2.197265625" go:dataArea="13515.380859375 -3491.455078125 2.197265625 2.197265625" >
<metadata>
 <rdf:RDF xmlns:rdf="http://www.w3.org/1999/02/22-rdf-syntax-ns#" xmlns:crs="http://opengis.org/xmldtds/transformations.dtd" xmlns:svg="http://www.w3.org/svg" >
  <rdf:Description>
   <crs:CoordinateReferenceSystem rdf:resource="http://purl.org/crs/84" svg:transform="matrix(100.0,0.0,0.0,-100.0,0.0,0.0)" />
  </rdf:Description>
 </rdf:RDF>
</metadata>
<globalCoordinateSystem srsName="http://purl.org/crs/84" transform="matrix(100.0,0.0,0.0,-100.0,0.0,0.0)" />
<defs>
 <g id="p0" >
  <circle cx="0.0" cy="0.0" r="3" stroke="green" stroke-width="0.75" vector-effect="non-scaling-stroke" />
 </g>
</defs>
<g fill="none" fill-rule="evenodd" stroke="#FF00FF" stroke-width="0.75" opacity="0.5" vector-effect="non-scaling-stroke" stroke-linejoin="bevel" >
<path content="1,JR東海バス（株）,セレナーデ号,1.0,1.0,1.0," xlink:title="1" d="M13515.3809,-3489.3234L13515.3866,-3489.3221L13515.4399,-3489.3101L13515.4502,-3489.3077L13515.4645,-3489.3044L13515.5147,-3489.2906L13515.5268,-3489.287L13515.5834,-3489.27L13515.602,-3489.2634L13515.6154,-3489.2578"/>
<path content="1,一畑バス（株）,京都～松江・出雲線,4.0,4.0,4.0," xlink:title="1" d="M13515.3809,-3489.3234L13515.3866,-3489.3221L13515.4399,-3489.3101L13515.4502,-3489.3077L13515.4645,-3489.3044L13515.5147,-3489.2906L13515.5268,-3489.287L13515.5834,-3489.27L13515.602,-3489.2634L13515.6154,-3489.2578"/>
<path content="1,一畑バス（株）,大阪～松江・出雲線,8.0,8.0,8.0," xlink:title="1" d="M13515.3809,-3489.3234L13515.3866,-3489.3221L13515.4399,-3489.3101L13515.4502,-3489.3077L13515.4645,-3489.3044L13515.5147,-3489.2906L13515.5268,-3489.287L13515.5834,-3489.27L13515.602,-3489.2634L13515.6154,-3489.2578"/>
<path content="1,一畑バス（株）,東京～松江・出雲線,1.0,1.0,1.0," xlink:title="1" d="M13515.3809,-3489.3234L13515.3866,-3489.3221L13515.4399,-3489.3101L13515.4502,-3489.3077L13515.4645,-3489.3044L13515.5147,-3489.2906L13515.5268,-3489.287L13515.5834,-3489.27L13515.602,-3489.2634L13515.6154,-3489.2578"/>
<path content="1,下津井電鉄（株）,岡山～東京線,1.0,1.0,1.0," xlink:title="1" d="M13515.3809,-3489.3234L13515.3866,-3489.3221L13515.4399,-3489.3101L13515.4502,-3489.3077L13515.4645,-3489.3044L13515.5147,-3489.2906L13515.5268,-3489.287L13515.5834,-3489.27L13515.602,-3489.2634L13515.6154,-3489.2578"/>
<path content="1,両備ホールディングス（株）,マスカット　倉敷～新宿線,1.0,1.0,1.0," xlink:title="1" d="M13515.3809,-3489.3234L13515.3866,-3489.3221L13515.4399,-3489.3101L13515.4502,-3489.3077L13515.4645,-3489.3044L13515.5147,-3489.2906L13515.5268,-3489.287L13515.5834,-3489.27L13515.602,-3489.2634L13515.6154,-3489.2578"/>
<path content="1,両備ホールディングス（株）,ルブラン　倉敷・岡山・津山～東京線,1.0,1.0,1.0," xlink:title="1" d="M13515.3809,-3489.3234L13515.3866,-3489.3221L13515.4399,-3489.3101L13515.4502,-3489.3077L13515.4645,-3489.3044L13515.5147,-3489.2906L13515.5268,-3489.287L13515.5834,-3489.27L13515.602,-3489.2634L13515.6154,-3489.2578"/>
<path content="1,中国JRバス（株）,広島・三次～名古屋　セレナーデ号,1.0,1.0,1.0," xlink:title="1" d="M13515.3809,-3489.3234L13515.3866,-3489.3221L13515.4399,-3489.3101L13515.4502,-3489.3077L13515.4645,-3489.3044L13515.5147,-3489.2906L13515.5268,-3489.287L13515.5834,-3489.27L13515.602,-3489.2634L13515.6154,-3489.2578"/>
<path content="1,中国JRバス（株）,江津・益田・浜田～大阪　浜田道エクスプレス,3.0,3.0,3.0," xlink:title="1" d="M13515.3809,-3489.3234L13515.3866,-3489.3221L13515.4399,-3489.3101L13515.4502,-3489.3077L13515.4645,-3489.3044L13515.5147,-3489.2906L13515.5268,-3489.287L13515.5834,-3489.27L13515.602,-3489.2634L13515.6154,-3489.2578"/>
<path content="1,中国JRバス（株）,津和野・益田・浜田・三次～東京　いわみエクスプレス,1.0,1.0,1.0," xlink:title="1" d="M13515.3809,-3489.3234L13515.3866,-3489.3221L13515.4399,-3489.3101L13515.4502,-3489.3077L13515.4645,-3489.3044L13515.5147,-3489.2906L13515.5268,-3489.287L13515.5834,-3489.27L13515.602,-3489.2634L13515.6154,-3489.2578"/>
<path content="1,丹後海陸交通（株）,大阪線（丹後～大阪）,2.0,2.0,2.0," xlink:title="1" d="M13515.6154,-3489.2578L13515.602,-3489.2634L13515.5834,-3489.27L13515.5268,-3489.287L13515.5147,-3489.2906L13515.4645,-3489.3044L13515.4502,-3489.3077L13515.4399,-3489.3101L13515.3866,-3489.3221L13515.3809,-3489.3234M13515.3809,-3489.9634L13515.3865,-3489.996L13515.3987,-3490.065L13515.4094,-3490.1174L13515.4119,-3490.1279L13515.4191,-3490.1574L13515.4204,-3490.1643L13515.4232,-3490.1788L13515.4302,-3490.1975L13515.4362,-3490.2196L13515.4485,-3490.251L13515.4531,-3490.2624L13515.4646,-3490.2876L13515.4767,-3490.309L13515.4936,-3490.3396L13515.5037,-3490.3545L13515.5209,-3490.3865L13515.5343,-3490.4128L13515.5604,-3490.4676L13515.5701,-3490.4897L13515.5803,-3490.5156L13515.5923,-3490.5556L13515.599,-3490.5789L13515.6064,-3490.6049L13515.6129,-3490.6442L13515.6161,-3490.6694L13515.6157,-3490.7041L13515.6152,-3490.7099L13515.6159,-3490.7268L13515.6122,-3490.7645L13515.6118,-3490.7664L13515.6071,-3490.8083L13515.5939,-3490.8695L13515.5889,-3490.8947L13515.5754,-3490.9377L13515.5586,-3490.9825L13515.5561,-3490.9889L13515.5451,-3491.0172L13515.5065,-3491.1142L13515.4963,-3491.1451L13515.4811,-3491.1878L13515.4667,-3491.2349L13515.4632,-3491.2463L13515.4522,-3491.2806L13515.4438,-3491.3191L13515.4306,-3491.3841L13515.4269,-3491.4146L13515.4232,-3491.4392L13515.4237,-3491.45L13515.4235,-3491.4551"/>
<path content="1,亀の井バス（株）,大分⇔名古屋,1.0,1.0,1.0," xlink:title="1" d="M13515.3809,-3489.3234L13515.3866,-3489.3221L13515.4399,-3489.3101L13515.4502,-3489.3077L13515.4645,-3489.3044L13515.5147,-3489.2906L13515.5267,-3489.287L13515.5834,-3489.27L13515.602,-3489.2634L13515.6154,-3489.2578"/>
<path content="1,京浜急行バス（株）,キャメル号,1.0,1.0,1.0," xlink:title="1" d="M13515.6154,-3489.2578L13515.602,-3489.2634L13515.5834,-3489.27L13515.5268,-3489.287L13515.5147,-3489.2906L13515.4645,-3489.3044L13515.4502,-3489.3077L13515.4399,-3489.3101L13515.3866,-3489.3221L13515.3809,-3489.3234"/>
<path content="1,京浜急行バス（株）,ルプラン号,1.0,1.0,1.0," xlink:title="1" d="M13515.3809,-3489.3234L13515.3866,-3489.3221L13515.4399,-3489.3101L13515.4502,-3489.3077L13515.4645,-3489.3044L13515.5147,-3489.2906L13515.5268,-3489.287L13515.5834,-3489.27L13515.602,-3489.2634L13515.6154,-3489.2578"/>
<path content="1,京都交通（株）,福知山～神戸（三ノ宮バスターミナル）,6.0,6.0,6.0," xlink:title="1" d="M13515.6154,-3489.2578L13515.602,-3489.2634L13515.5834,-3489.27L13515.5268,-3489.287L13515.5147,-3489.2906L13515.4645,-3489.3044L13515.4502,-3489.3077L13515.4399,-3489.3101L13515.3866,-3489.3221L13515.3809,-3489.3234M13515.3809,-3489.9634L13515.3865,-3489.996L13515.3987,-3490.065L13515.4094,-3490.1174L13515.4119,-3490.1279L13515.4191,-3490.1574L13515.4204,-3490.1643L13515.4232,-3490.1788L13515.4302,-3490.1975L13515.4362,-3490.2196L13515.4485,-3490.251L13515.4531,-3490.2624L13515.4646,-3490.2876L13515.4767,-3490.309L13515.4936,-3490.3396L13515.5037,-3490.3545L13515.5209,-3490.3865L13515.5343,-3490.4128L13515.5604,-3490.4676L13515.5701,-3490.4897L13515.5803,-3490.5156L13515.5923,-3490.5556L13515.599,-3490.5789L13515.6064,-3490.6049L13515.6129,-3490.6442L13515.6161,-3490.6694L13515.6157,-3490.7041L13515.6152,-3490.7099L13515.6159,-3490.7268L13515.6122,-3490.7645L13515.6118,-3490.7664L13515.6071,-3490.8083L13515.5939,-3490.8695L13515.5889,-3490.8947L13515.5754,-3490.9377L13515.5586,-3490.9825L13515.5561,-3490.9889L13515.5451,-3491.0172L13515.5065,-3491.1142L13515.4963,-3491.1451L13515.4811,-3491.1878L13515.4667,-3491.2349L13515.4632,-3491.2463L13515.4522,-3491.2806L13515.4438,-3491.3191L13515.4306,-3491.3841L13515.4269,-3491.4146L13515.4232,-3491.4392L13515.4237,-3491.45L13515.4235,-3491.4551"/>
<path content="1,京都交通（株）,舞鶴・綾部・福知山～大阪梅田,2.0,2.0,2.0," xlink:title="1" d="M13515.6154,-3489.2578L13515.602,-3489.2634L13515.5834,-3489.27L13515.5268,-3489.287L13515.5147,-3489.2906L13515.4645,-3489.3044L13515.4502,-3489.3077L13515.4399,-3489.3101L13515.3866,-3489.3221L13515.3809,-3489.3234M13515.3809,-3489.9634L13515.3865,-3489.996L13515.3987,-3490.065L13515.4094,-3490.1174L13515.4119,-3490.1279L13515.4191,-3490.1574L13515.4204,-3490.1643L13515.4232,-3490.1788L13515.4302,-3490.1975L13515.4362,-3490.2196L13515.4485,-3490.251L13515.4531,-3490.2624L13515.4646,-3490.2876L13515.4767,-3490.309L13515.4936,-3490.3396L13515.5037,-3490.3545L13515.5209,-3490.3865L13515.5343,-3490.4128L13515.5604,-3490.4676L13515.5701,-3490.4897L13515.5803,-3490.5156L13515.5923,-3490.5556L13515.599,-3490.5789L13515.6064,-3490.6049L13515.6129,-3490.6442L13515.6161,-3490.6694L13515.6157,-3490.7041L13515.6152,-3490.7099L13515.6159,-3490.7268L13515.6122,-3490.7645L13515.6118,-3490.7664L13515.6071,-3490.8083L13515.5939,-3490.8695L13515.5889,-3490.8947L13515.5754,-3490.9377L13515.5586,-3490.9825L13515.5561,-3490.9889L13515.5451,-3491.0172L13515.5065,-3491.1142L13515.4963,-3491.1451L13515.4811,-3491.1878L13515.4667,-3491.2349L13515.4632,-3491.2463L13515.4522,-3491.2806L13515.4438,-3491.3191L13515.4306,-3491.3841L13515.4269,-3491.4146L13515.4232,-3491.4392L13515.4237,-3491.45L13515.4235,-3491.4551"/>
<path content="1,京都交通（株）,舞鶴～なんば,5.0,5.0,5.0," xlink:title="1" d="M13515.6154,-3489.2578L13515.602,-3489.2634L13515.5834,-3489.27L13515.5268,-3489.287L13515.5147,-3489.2906L13515.4645,-3489.3044L13515.4502,-3489.3077L13515.4399,-3489.3101L13515.3866,-3489.3221L13515.3809,-3489.3234M13515.3809,-3489.9634L13515.3865,-3489.996L13515.3987,-3490.065L13515.4094,-3490.1174L13515.4119,-3490.1279L13515.4191,-3490.1574L13515.4204,-3490.1643L13515.4232,-3490.1788L13515.4302,-3490.1975L13515.4362,-3490.2196L13515.4485,-3490.251L13515.4531,-3490.2624L13515.4646,-3490.2876L13515.4767,-3490.309L13515.4936,-3490.3396L13515.5037,-3490.3545L13515.5209,-3490.3865L13515.5343,-3490.4128L13515.5604,-3490.4676L13515.5701,-3490.4897L13515.5803,-3490.5156L13515.5923,-3490.5556L13515.599,-3490.5789L13515.6064,-3490.6049L13515.6129,-3490.6442L13515.6161,-3490.6694L13515.6157,-3490.7041L13515.6152,-3490.7099L13515.6159,-3490.7268L13515.6122,-3490.7645L13515.6118,-3490.7664L13515.6071,-3490.8083L13515.5939,-3490.8695L13515.5889,-3490.8947L13515.5754,-3490.9377L13515.5586,-3490.9825L13515.5561,-3490.9889L13515.5451,-3491.0172L13515.5065,-3491.1142L13515.4963,-3491.1451L13515.4811,-3491.1878L13515.4667,-3491.2349L13515.4632,-3491.2463L13515.4522,-3491.2806L13515.4438,-3491.3191L13515.4306,-3491.3841L13515.4269,-3491.4146L13515.4232,-3491.4392L13515.4237,-3491.45L13515.4235,-3491.4551"/>
<path content="1,京都交通（株）,舞鶴～神戸（三ノ宮バスターミナル）,6.2,6.0,6.0," xlink:title="1" d="M13515.6154,-3489.2578L13515.602,-3489.2634L13515.5834,-3489.27L13515.5268,-3489.287L13515.5147,-3489.2906L13515.4645,-3489.3044L13515.4502,-3489.3077L13515.4399,-3489.3101L13515.3866,-3489.3221L13515.3809,-3489.3234M13515.3809,-3489.9634L13515.3865,-3489.996L13515.3987,-3490.065L13515.4094,-3490.1174L13515.4119,-3490.1279L13515.4191,-3490.1574L13515.4204,-3490.1643L13515.4232,-3490.1788L13515.4302,-3490.1975L13515.4362,-3490.2196L13515.4485,-3490.251L13515.4531,-3490.2624L13515.4646,-3490.2876L13515.4767,-3490.309L13515.4936,-3490.3396L13515.5037,-3490.3545L13515.5209,-3490.3865L13515.5343,-3490.4128L13515.5604,-3490.4676L13515.5701,-3490.4897L13515.5803,-3490.5156L13515.5923,-3490.5556L13515.599,-3490.5789L13515.6064,-3490.6049L13515.6129,-3490.6442L13515.6161,-3490.6694L13515.6157,-3490.7041L13515.6152,-3490.7099L13515.6159,-3490.7268L13515.6122,-3490.7645L13515.6118,-3490.7664L13515.6071,-3490.8083L13515.5939,-3490.8695L13515.5889,-3490.8947L13515.5754,-3490.9377L13515.5586,-3490.9825L13515.5561,-3490.9889L13515.5451,-3491.0172L13515.5065,-3491.1142L13515.4963,-3491.1451L13515.4811,-3491.1878L13515.4667,-3491.2349L13515.4632,-3491.2463L13515.4522,-3491.2806L13515.4438,-3491.3191L13515.4306,-3491.3841L13515.4269,-3491.4146L13515.4232,-3491.4392L13515.4237,-3491.45L13515.4235,-3491.4551"/>
<path content="1,京阪バス（株）,京都⇔松江・出雲,1.0,1.0,1.0," xlink:title="1" d="M13515.6154,-3489.2578L13515.602,-3489.2634L13515.5834,-3489.27L13515.5268,-3489.287L13515.5147,-3489.2906L13515.4645,-3489.3044L13515.4502,-3489.3077L13515.4399,-3489.3101L13515.3866,-3489.3221L13515.3809,-3489.3234"/>
<path content="1,京阪バス（株）,京都⇔米子,1.0,1.0,1.0," xlink:title="1" d="M13515.3809,-3489.3234L13515.3866,-3489.3221L13515.4399,-3489.3101L13515.4502,-3489.3077L13515.4645,-3489.3044L13515.5147,-3489.2906L13515.5268,-3489.287L13515.5834,-3489.27L13515.602,-3489.2634L13515.6154,-3489.2578"/>
<path content="1,備北バス（株）,備北高速バス　新見～大阪,4.0,4.0,4.0," xlink:title="1" d="M13515.3809,-3489.3234L13515.3866,-3489.3221L13515.4399,-3489.3101L13515.4502,-3489.3077L13515.4645,-3489.3044L13515.5147,-3489.2906L13515.5268,-3489.287L13515.5834,-3489.27L13515.602,-3489.2634L13515.6154,-3489.2578"/>
<path content="1,全但バス（株）,城崎-和田山営業所乗り継ぎ-大阪,2.0,2.2,2.0," xlink:title="1" d="M13515.4235,-3491.4551L13515.4237,-3491.45L13515.4232,-3491.4392L13515.4269,-3491.4146L13515.4306,-3491.3841L13515.4438,-3491.3191L13515.4522,-3491.2806L13515.4632,-3491.2463L13515.4667,-3491.2349L13515.4811,-3491.1878L13515.4963,-3491.1451L13515.5065,-3491.1142L13515.5451,-3491.0172L13515.5561,-3490.9889L13515.5586,-3490.9825L13515.5754,-3490.9377L13515.5889,-3490.8947L13515.5939,-3490.8695L13515.6071,-3490.8083L13515.6118,-3490.7664L13515.6122,-3490.7645L13515.6159,-3490.7268L13515.6152,-3490.7099L13515.6157,-3490.7041L13515.6161,-3490.6694L13515.6129,-3490.6442L13515.6064,-3490.6049L13515.599,-3490.5789L13515.5923,-3490.5556L13515.5803,-3490.5156L13515.5701,-3490.4897L13515.5604,-3490.4676L13515.5343,-3490.4128L13515.5209,-3490.3865L13515.5037,-3490.3545L13515.4936,-3490.3396L13515.4767,-3490.309L13515.4646,-3490.2876L13515.4531,-3490.2624L13515.4485,-3490.251L13515.4362,-3490.2196L13515.4302,-3490.1975L13515.4232,-3490.1788L13515.4204,-3490.1643L13515.4191,-3490.1574L13515.4119,-3490.1279L13515.4094,-3490.1174L13515.3987,-3490.065L13515.3865,-3489.996L13515.3809,-3489.9634M13515.3809,-3489.3234L13515.3866,-3489.3221L13515.4399,-3489.3101L13515.4502,-3489.3077L13515.4645,-3489.3044L13515.5147,-3489.2906L13515.5268,-3489.287L13515.5834,-3489.27L13515.602,-3489.2634L13515.6154,-3489.2578"/>
<path content="1,全但バス（株）,城崎-和田山営業所乗り継ぎ-神戸,3.0,3.0,3.0," xlink:title="1" d="M13515.6154,-3489.2578L13515.602,-3489.2634L13515.5834,-3489.27L13515.5268,-3489.287L13515.5147,-3489.2906L13515.4645,-3489.3044L13515.4502,-3489.3077L13515.4399,-3489.3101L13515.3866,-3489.3221L13515.3809,-3489.3234M13515.3809,-3489.9634L13515.3865,-3489.996L13515.3987,-3490.065L13515.4094,-3490.1174L13515.4119,-3490.1279L13515.4191,-3490.1574L13515.4204,-3490.1643L13515.4232,-3490.1788L13515.4302,-3490.1975L13515.4362,-3490.2196L13515.4485,-3490.251L13515.4531,-3490.2624L13515.4646,-3490.2876L13515.4767,-3490.309L13515.4936,-3490.3396L13515.5037,-3490.3545L13515.5209,-3490.3865L13515.5343,-3490.4128L13515.5604,-3490.4676L13515.5701,-3490.4897L13515.5803,-3490.5156L13515.5923,-3490.5556L13515.599,-3490.5789L13515.6064,-3490.6049L13515.6129,-3490.6442L13515.6161,-3490.6694L13515.6157,-3490.7041L13515.6152,-3490.7099L13515.6159,-3490.7268L13515.6122,-3490.7645L13515.6118,-3490.7664L13515.6071,-3490.8083L13515.5939,-3490.8695L13515.5889,-3490.8947L13515.5754,-3490.9377L13515.5586,-3490.9825L13515.5561,-3490.9889L13515.5451,-3491.0172L13515.5065,-3491.1142L13515.4963,-3491.1451L13515.4811,-3491.1878L13515.4667,-3491.2349L13515.4632,-3491.2463L13515.4522,-3491.2806L13515.4438,-3491.3191L13515.4306,-3491.3841L13515.4269,-3491.4146L13515.4232,-3491.4392L13515.4237,-3491.45L13515.4235,-3491.4551"/>
<path content="1,全但バス（株）,大阪-城崎,2.0,2.2,2.0," xlink:title="1" d="M13515.6154,-3489.2578L13515.602,-3489.2634L13515.5834,-3489.27L13515.5268,-3489.287L13515.5147,-3489.2906L13515.4645,-3489.3044L13515.4502,-3489.3077L13515.4399,-3489.3101L13515.3866,-3489.3221L13515.3809,-3489.3234M13515.3809,-3489.9634L13515.3865,-3489.996L13515.3987,-3490.065L13515.4094,-3490.1174L13515.4119,-3490.1279L13515.4191,-3490.1574L13515.4204,-3490.1643L13515.4232,-3490.1788L13515.4302,-3490.1975L13515.4362,-3490.2196L13515.4485,-3490.251L13515.4531,-3490.2624L13515.4646,-3490.2876L13515.4767,-3490.309L13515.4936,-3490.3396L13515.5037,-3490.3545L13515.5209,-3490.3865L13515.5343,-3490.4128L13515.5604,-3490.4676L13515.5701,-3490.4897L13515.5803,-3490.5156L13515.5923,-3490.5556L13515.599,-3490.5789L13515.6064,-3490.6049L13515.6129,-3490.6442L13515.6161,-3490.6694L13515.6157,-3490.7041L13515.6152,-3490.7099L13515.6159,-3490.7268L13515.6122,-3490.7645L13515.6118,-3490.7664L13515.6071,-3490.8083L13515.5939,-3490.8695L13515.5889,-3490.8947L13515.5754,-3490.9377L13515.5586,-3490.9825L13515.5561,-3490.9889L13515.5451,-3491.0172L13515.5065,-3491.1142L13515.4963,-3491.1451L13515.4811,-3491.1878L13515.4667,-3491.2349L13515.4632,-3491.2463L13515.4522,-3491.2806L13515.4438,-3491.3191L13515.4306,-3491.3841L13515.4269,-3491.4146L13515.4232,-3491.4392L13515.4237,-3491.45L13515.4235,-3491.4551"/>
<path content="1,全但バス（株）,神戸-城崎,3.0,3.0,3.0," xlink:title="1" d="M13515.6154,-3489.2578L13515.602,-3489.2634L13515.5834,-3489.27L13515.5268,-3489.287L13515.5147,-3489.2906L13515.4645,-3489.3044L13515.4502,-3489.3077L13515.4399,-3489.3101L13515.3866,-3489.3221L13515.3809,-3489.3234"/>
<path content="1,全但バス（株）,神戸-城崎,3.0,3.0,3.0," xlink:title="1" d="M13515.3809,-3489.9634L13515.3865,-3489.996L13515.3987,-3490.065L13515.4094,-3490.1174L13515.4119,-3490.1279L13515.4191,-3490.1574L13515.4204,-3490.1643L13515.4232,-3490.1788L13515.4302,-3490.1975L13515.4362,-3490.2196L13515.4485,-3490.251L13515.4531,-3490.2624L13515.4646,-3490.2876L13515.4767,-3490.309L13515.4936,-3490.3396L13515.5037,-3490.3545L13515.5209,-3490.3865L13515.5343,-3490.4128L13515.5604,-3490.4676L13515.5701,-3490.4897L13515.5803,-3490.5156L13515.5923,-3490.5556L13515.599,-3490.5789L13515.6064,-3490.6049L13515.6129,-3490.6442L13515.6161,-3490.6694L13515.6157,-3490.7041L13515.6152,-3490.7099L13515.6159,-3490.7268L13515.6122,-3490.7645L13515.6118,-3490.7664L13515.6071,-3490.8083L13515.5939,-3490.8695L13515.5889,-3490.8947L13515.5754,-3490.9377L13515.5586,-3490.9825L13515.5561,-3490.9889L13515.5451,-3491.0172L13515.5065,-3491.1142L13515.4963,-3491.1451L13515.4811,-3491.1878L13515.4667,-3491.2349L13515.4632,-3491.2463L13515.4522,-3491.2806L13515.4438,-3491.3191L13515.4306,-3491.3841L13515.4269,-3491.4146L13515.4232,-3491.4392L13515.4237,-3491.45L13515.4235,-3491.4551"/>
<path content="1,南国交通（株）,鹿児島～大阪,1.0,1.0,1.0," xlink:title="1" d="M13515.3809,-3489.3234L13515.3866,-3489.3221L13515.4399,-3489.3101L13515.4502,-3489.3077L13515.4645,-3489.3044L13515.5147,-3489.2906L13515.5267,-3489.287L13515.5421,-3489.2824L13515.5834,-3489.27L13515.602,-3489.2634L13515.6154,-3489.2578"/>
<path content="1,大分バス（株）,大分⇔名古屋,1.0,1.0,1.0," xlink:title="1" d="M13515.3809,-3489.3234L13515.3866,-3489.3221L13515.4399,-3489.3101L13515.4502,-3489.3077L13515.4645,-3489.3044L13515.5147,-3489.2906L13515.5267,-3489.287L13515.5834,-3489.27L13515.602,-3489.2634L13515.6154,-3489.2578"/>
<path content="1,大分交通（株）,大分⇔名古屋,1.0,1.0,1.0," xlink:title="1" d="M13515.3809,-3489.3234L13515.3866,-3489.3221L13515.4399,-3489.3101L13515.4502,-3489.3077L13515.4645,-3489.3044L13515.5147,-3489.2906L13515.5267,-3489.287L13515.5834,-3489.27L13515.602,-3489.2634L13515.6154,-3489.2578"/>
<path content="1,小田急シティバス（株）,ルミナス号,1.0,1.0,1.0," xlink:title="1" d="M13515.6154,-3489.2578L13515.602,-3489.2634L13515.5834,-3489.27L13515.5268,-3489.287L13515.5147,-3489.2906L13515.4645,-3489.3044L13515.4502,-3489.3077L13515.4399,-3489.3101L13515.3866,-3489.3221L13515.3809,-3489.3234"/>
<path content="1,小田急バス（株）,ルミナス号,1.0,1.0,1.0," xlink:title="1" d="M13515.6154,-3489.2578L13515.602,-3489.2634L13515.5834,-3489.27L13515.5268,-3489.287L13515.5147,-3489.2906L13515.4645,-3489.3044L13515.4502,-3489.3077L13515.4399,-3489.3101L13515.3866,-3489.3221L13515.3809,-3489.3234"/>
<path content="1,日ノ丸自動車（株）,東京‐米子線,1.0,1.0,1.0," xlink:title="1" d="M13515.3809,-3489.3234L13515.3866,-3489.3221L13515.4399,-3489.3101L13515.4502,-3489.3077L13515.4645,-3489.3044L13515.5147,-3489.2906L13515.5268,-3489.287L13515.5834,-3489.27L13515.602,-3489.2634L13515.6154,-3489.2578"/>
<path content="1,日ノ丸自動車（株）,東京‐鳥取・倉吉線,1.0,1.0,1.0," xlink:title="1" d="M13515.3809,-3489.3234L13515.3866,-3489.3221L13515.4399,-3489.3101L13515.4502,-3489.3077L13515.4645,-3489.3044L13515.5147,-3489.2906L13515.5268,-3489.287L13515.5834,-3489.27L13515.602,-3489.2634L13515.6154,-3489.2578"/>
<path content="1,日本交通（株）,倉吉～神戸・大阪線　なんば便,2.0,2.0,2.0," xlink:title="1" d="M13515.3809,-3489.3234L13515.3866,-3489.3221L13515.4399,-3489.3101L13515.4502,-3489.3077L13515.4645,-3489.3044L13515.5147,-3489.2906L13515.5268,-3489.287L13515.5834,-3489.27L13515.602,-3489.2634L13515.6154,-3489.2578"/>
<path content="1,日本交通（株）,倉吉～神戸・大阪線　夜行便,1.0,1.0,1.0," xlink:title="1" d="M13515.3809,-3489.3234L13515.3866,-3489.3221L13515.4399,-3489.3101L13515.4502,-3489.3077L13515.4645,-3489.3044L13515.5147,-3489.2906L13515.5268,-3489.287L13515.5834,-3489.27L13515.602,-3489.2634L13515.6154,-3489.2578"/>
<path content="1,日本交通（株）,倉吉～神戸・大阪線　新大阪便,3.0,3.0,3.0," xlink:title="1" d="M13515.3809,-3489.3234L13515.3866,-3489.3221L13515.4399,-3489.3101L13515.4502,-3489.3077L13515.4645,-3489.3044L13515.5147,-3489.2906L13515.5268,-3489.287L13515.5834,-3489.27L13515.602,-3489.2634L13515.6154,-3489.2578"/>
<path content="1,日本交通（株）,倉吉～神戸・大阪線　湯原経由,1.0,1.0,1.0," xlink:title="1" d="M13515.6154,-3489.2578L13515.602,-3489.2634L13515.5834,-3489.27L13515.5268,-3489.287L13515.5147,-3489.2906L13515.4645,-3489.3044L13515.4502,-3489.3077L13515.4399,-3489.3101L13515.3866,-3489.3221L13515.3809,-3489.3234"/>
<path content="1,日本交通（株）,倉吉～神戸・大阪線　神戸経由なんば便,9.0,9.0,9.0," xlink:title="1" d="M13515.3809,-3489.3234L13515.3866,-3489.3221L13515.4399,-3489.3101L13515.4502,-3489.3077L13515.4645,-3489.3044L13515.5147,-3489.2906L13515.5268,-3489.287L13515.5834,-3489.27L13515.602,-3489.2634L13515.6154,-3489.2578"/>
<path content="1,日本交通（株）,米子～京都線,3.0,3.0,3.0," xlink:title="1" d="M13515.3809,-3489.3234L13515.3866,-3489.3221L13515.4399,-3489.3101L13515.4502,-3489.3077L13515.4645,-3489.3044L13515.5147,-3489.2906L13515.5268,-3489.287L13515.5834,-3489.27L13515.602,-3489.2634L13515.6154,-3489.2578"/>
<path content="1,日本交通（株）,米子～東京線,1.0,1.0,1.0," xlink:title="1" d="M13515.3809,-3489.3234L13515.3866,-3489.3221L13515.4399,-3489.3101L13515.4502,-3489.3077L13515.4645,-3489.3044L13515.5147,-3489.2906L13515.5268,-3489.287L13515.5834,-3489.27L13515.602,-3489.2634L13515.6154,-3489.2578"/>
<path content="1,日本交通（株）,米子～神戸・大阪線　なんば便,12.0,12.0,12.0," xlink:title="1" d="M13515.3809,-3489.3234L13515.3866,-3489.3221L13515.4399,-3489.3101L13515.4502,-3489.3077L13515.4645,-3489.3044L13515.5147,-3489.2906L13515.5268,-3489.287L13515.5834,-3489.27L13515.602,-3489.2634L13515.6154,-3489.2578"/>
<path content="1,日本交通（株）,米子～神戸・大阪線　夜行便,1.0,1.0,1.0," xlink:title="1" d="M13515.3809,-3489.3234L13515.3866,-3489.3221L13515.4399,-3489.3101L13515.4502,-3489.3077L13515.4645,-3489.3044L13515.5147,-3489.2906L13515.5268,-3489.287L13515.5834,-3489.27L13515.602,-3489.2634L13515.6154,-3489.2578"/>
<path content="1,日本交通（株）,米子～神戸・大阪線　梅田便,5.0,5.0,5.0," xlink:title="1" d="M13515.3809,-3489.3234L13515.3866,-3489.3221L13515.4399,-3489.3101L13515.4502,-3489.3077L13515.4645,-3489.3044L13515.5147,-3489.2906L13515.5268,-3489.287L13515.5834,-3489.27L13515.602,-3489.2634L13515.6154,-3489.2578"/>
<path content="1,日本交通（株）,米子～神戸・大阪線　神戸便,5.0,5.0,5.0," xlink:title="1" d="M13515.3809,-3489.3234L13515.3866,-3489.3221L13515.4399,-3489.3101L13515.4502,-3489.3077L13515.4645,-3489.3044L13515.5147,-3489.2906L13515.5268,-3489.287L13515.5834,-3489.27L13515.602,-3489.2634L13515.6154,-3489.2578"/>
<path content="1,日本交通（株）,鳥取・倉吉～東京線,1.0,1.0,1.0," xlink:title="1" d="M13515.3809,-3489.3234L13515.3866,-3489.3221L13515.4399,-3489.3101L13515.4502,-3489.3077L13515.4645,-3489.3044L13515.5147,-3489.2906L13515.5268,-3489.287L13515.5834,-3489.27L13515.602,-3489.2634L13515.6154,-3489.2578"/>
<path content="1,日本交通（株）,鳥取～京都線,3.0,3.0,3.0," xlink:title="1" d="M13515.3809,-3489.3234L13515.3866,-3489.3221L13515.4399,-3489.3101L13515.4502,-3489.3077L13515.4645,-3489.3044L13515.5147,-3489.2906L13515.5268,-3489.287L13515.5834,-3489.27L13515.602,-3489.2634L13515.6154,-3489.2578"/>
<path content="1,日本交通（株）,鳥取～神戸・大阪線　なんば便,8.5,8.5,8.5," xlink:title="1" d="M13515.3809,-3489.3234L13515.3866,-3489.3221L13515.4399,-3489.3101L13515.4502,-3489.3077L13515.4645,-3489.3044L13515.5147,-3489.2906L13515.5268,-3489.287L13515.5834,-3489.27L13515.602,-3489.2634L13515.6154,-3489.2578"/>
<path content="1,日本交通（株）,鳥取～神戸・大阪線　夜行便,1.0,1.0,1.0," xlink:title="1" d="M13515.6154,-3489.2578L13515.602,-3489.2634L13515.5834,-3489.27L13515.5268,-3489.287L13515.5147,-3489.2906L13515.4645,-3489.3044L13515.4502,-3489.3077L13515.4399,-3489.3101L13515.3866,-3489.3221L13515.3809,-3489.3234"/>
<path content="1,日本交通（株）,鳥取～神戸・大阪線　梅田便,5.0,5.0,5.0," xlink:title="1" d="M13515.3809,-3489.3234L13515.3866,-3489.3221L13515.4399,-3489.3101L13515.4502,-3489.3077L13515.4645,-3489.3044L13515.5147,-3489.2906L13515.5268,-3489.287L13515.5834,-3489.27L13515.602,-3489.2634L13515.6154,-3489.2578"/>
<path content="1,日本交通（株）,鳥取～神戸・大阪線　神戸経由なんば便,6.0,6.0,6.0," xlink:title="1" d="M13515.6154,-3489.2578L13515.602,-3489.2634L13515.5834,-3489.27L13515.5268,-3489.287L13515.5147,-3489.2906L13515.4645,-3489.3044L13515.4502,-3489.3077L13515.4399,-3489.3101L13515.3866,-3489.3221L13515.3809,-3489.3234"/>
<path content="1,日本交通（株）,鳥取～神戸・大阪線　若桜経由便,3.0,3.0,3.0," xlink:title="1" d="M13515.3809,-3489.3234L13515.3866,-3489.3221L13515.4399,-3489.3101L13515.4502,-3489.3077L13515.4645,-3489.3044L13515.5147,-3489.2906L13515.5268,-3489.287L13515.5834,-3489.27L13515.602,-3489.2634L13515.6154,-3489.2578"/>
<path content="1,日本交通（株）（大阪）,倉吉～神戸・大阪線,9.0,9.0,9.0," xlink:title="1" d="M13515.6154,-3489.2578L13515.602,-3489.2634L13515.5834,-3489.27L13515.5268,-3489.287L13515.5147,-3489.2906L13515.4645,-3489.3044L13515.4502,-3489.3077L13515.4399,-3489.3101L13515.3866,-3489.3221L13515.3809,-3489.3234"/>
<path content="1,日本交通（株）（大阪）,大阪・神戸～福知山・舞鶴線,5.5,6.0,5.5," xlink:title="1" d="M13515.3809,-3489.3234L13515.3866,-3489.3221L13515.4399,-3489.3101L13515.4502,-3489.3077L13515.4645,-3489.3044L13515.5147,-3489.2906L13515.5268,-3489.287L13515.5834,-3489.27L13515.602,-3489.2634L13515.6154,-3489.2578"/>
<path content="1,日本交通（株）（大阪）,大阪・神戸～福知山・舞鶴線,5.5,6.0,5.5," xlink:title="1" d="M13515.3809,-3489.9634L13515.3865,-3489.996L13515.3987,-3490.065L13515.4094,-3490.1174L13515.4119,-3490.1279L13515.4191,-3490.1574L13515.4204,-3490.1643L13515.4232,-3490.1788L13515.4302,-3490.1975L13515.4362,-3490.2196L13515.4485,-3490.251L13515.4531,-3490.2624L13515.4646,-3490.2876L13515.4767,-3490.309L13515.4936,-3490.3396L13515.5037,-3490.3545L13515.5209,-3490.3865L13515.5343,-3490.4128L13515.5604,-3490.4676L13515.5701,-3490.4897L13515.5803,-3490.5156L13515.5923,-3490.5556L13515.599,-3490.5789L13515.6064,-3490.6049L13515.6129,-3490.6442L13515.6161,-3490.6694L13515.6157,-3490.7041L13515.6152,-3490.7099L13515.6159,-3490.7268L13515.6122,-3490.7645L13515.6118,-3490.7664L13515.6071,-3490.8083L13515.5939,-3490.8695L13515.5889,-3490.8947L13515.5754,-3490.9377L13515.5586,-3490.9825L13515.5561,-3490.9889L13515.5451,-3491.0172L13515.5065,-3491.1142L13515.4963,-3491.1451L13515.4811,-3491.1878L13515.4667,-3491.2349L13515.4632,-3491.2463L13515.4522,-3491.2806L13515.4438,-3491.3191L13515.4306,-3491.3841L13515.4269,-3491.4146L13515.4232,-3491.4392L13515.4237,-3491.45L13515.4235,-3491.4551"/>
<path content="1,日本交通（株）（大阪）,米子～京都線,3.0,3.0,3.0," xlink:title="1" d="M13515.3809,-3489.3234L13515.3866,-3489.3221L13515.4399,-3489.3101L13515.4502,-3489.3077L13515.4645,-3489.3044L13515.5147,-3489.2906L13515.5268,-3489.287L13515.5834,-3489.27L13515.602,-3489.2634L13515.6154,-3489.2578"/>
<path content="1,日本交通（株）（大阪）,米子～神戸・大阪線,23.0,23.0,23.0," xlink:title="1" d="M13515.6154,-3489.2578L13515.602,-3489.2634L13515.5834,-3489.27L13515.5268,-3489.287L13515.5147,-3489.2906L13515.4645,-3489.3044L13515.4502,-3489.3077L13515.4399,-3489.3101L13515.3866,-3489.3221L13515.3809,-3489.3234"/>
<path content="1,日本交通（株）（大阪）,鳥取～京都線,3.0,3.0,3.0," xlink:title="1" d="M13515.3809,-3489.3234L13515.3866,-3489.3221L13515.4399,-3489.3101L13515.4502,-3489.3077L13515.4645,-3489.3044L13515.5147,-3489.2906L13515.5268,-3489.287L13515.5834,-3489.27L13515.602,-3489.2634L13515.6154,-3489.2578"/>
<path content="1,日本交通（株）（大阪）,鳥取～神戸・大阪線,20.5,20.5,20.5," xlink:title="1" d="M13515.6154,-3489.2578L13515.602,-3489.2634L13515.5834,-3489.27L13515.5268,-3489.287L13515.5147,-3489.2906L13515.4645,-3489.3044L13515.4502,-3489.3077L13515.4399,-3489.3101L13515.3866,-3489.3221L13515.3809,-3489.3234"/>
<path content="1,石見交通（株）,いわみEX　東京線,1.0,1.0,1.0," xlink:title="1" d="M13515.3809,-3489.3234L13515.3866,-3489.3221L13515.4399,-3489.3101L13515.4502,-3489.3077L13515.4645,-3489.3044L13515.5147,-3489.2906L13515.5268,-3489.287L13515.5834,-3489.27L13515.602,-3489.2634L13515.6154,-3489.2578"/>
<path content="1,石見交通（株）,つわのEX　大阪線,1.0,1.0,1.0," xlink:title="1" d="M13515.3809,-3489.3234L13515.3866,-3489.3221L13515.4399,-3489.3101L13515.4502,-3489.3077L13515.4645,-3489.3044L13515.5147,-3489.2906L13515.5268,-3489.287L13515.5834,-3489.27L13515.602,-3489.2634L13515.6154,-3489.2578"/>
<path content="1,神姫バス（株）,11,6.5,6.0,6.0,三田" xlink:title="1" d="M13516.8644,-3491.4551L13516.8449,-3491.4526L13516.8406,-3491.4532L13516.8216,-3491.4492L13516.8059,-3491.4468L13516.7704,-3491.4367L13516.763,-3491.4343L13516.7483,-3491.4295L13516.7279,-3491.4228L13516.7164,-3491.4175L13516.702,-3491.4108L13516.6188,-3491.369L13516.5924,-3491.3539L13516.5744,-3491.344L13516.5561,-3491.3303L13516.5378,-3491.3134L13516.5173,-3491.2924L13516.5088,-3491.2816L13516.4916,-3491.2679L13516.4718,-3491.2515L13516.4175,-3491.1943L13516.3796,-3491.1571L13516.3707,-3491.1484L13516.3305,-3491.1075L13516.3214,-3491.0988L13516.2892,-3491.0639L13516.253,-3491.03L13516.1422,-3490.9297L13516.1279,-3490.9184L13516.1108,-3490.9072L13516.093,-3490.8976L13516.0582,-3490.8824L13516.0486,-3490.8801L13516.0452,-3490.8784L13516.0233,-3490.8733L13516.0001,-3490.8683L13515.9556,-3490.8621L13515.9228,-3490.8576L13515.8668,-3490.8503L13515.8538,-3490.8479L13515.849,-3490.8468L13515.7526,-3490.8327L13515.7116,-3490.8283L13515.6507,-3490.8216L13515.6427,-3490.8208L13515.5621,-3490.8104L13515.5277,-3490.8068L13515.3946,-3490.7943L13515.3992,-3490.7893L13515.4067,-3490.7746L13515.4115,-3490.7589L13515.4136,-3490.747L13515.4129,-3490.7222L13515.4026,-3490.6856L13515.4006,-3490.667L13515.4033,-3490.6259L13515.406,-3490.5999L13515.406,-3490.5819L13515.3964,-3490.5368L13515.3862,-3490.4974L13515.3842,-3490.4844L13515.3842,-3490.4664L13515.3882,-3490.4517L13515.4047,-3490.4224L13515.4088,-3490.4106L13515.4115,-3490.3971L13515.4136,-3490.3756L13515.4142,-3490.3311L13515.4177,-3490.3114L13515.4284,-3490.2794L13515.4621,-3490.2072L13515.464,-3490.2017L13515.4696,-3490.1908L13515.4532,-3490.1513L13515.4432,-3490.1237L13515.4416,-3490.1192L13515.4327,-3490.0775L13515.4291,-3490.0591L13515.4263,-3490.0524L13515.4094,-3489.9569L13515.4006,-3489.922L13515.3932,-3489.8957L13515.3862,-3489.8786L13515.3809,-3489.8659M13515.3809,-3489.7413L13515.3883,-3489.7146L13515.3876,-3489.6914L13515.3862,-3489.6791L13515.3809,-3489.6534"/>
<path content="1,神姫バス（株）,45,5.3,1.8,1.8,新三田" xlink:title="1" d="M13516.1631,-3490.1131L13516.1621,-3490.1311L13516.1769,-3490.1316L13516.2154,-3490.1306L13516.2154,-3490.1565L13516.2168,-3490.1717L13516.2181,-3490.2433L13516.2195,-3490.303L13516.2195,-3490.3346L13516.2209,-3490.4061L13516.227,-3490.4574L13516.227,-3490.4626L13516.2332,-3490.4839L13516.2564,-3490.5538L13516.2626,-3490.5656L13516.266,-3490.5724L13516.2708,-3490.5831L13516.2913,-3490.6287L13516.2988,-3490.6445L13516.3145,-3490.6801L13516.3535,-3490.7674L13516.3644,-3490.7933L13516.3774,-3490.8215L13516.399,-3490.8718L13516.4222,-3490.9284L13516.4259,-3490.9382L13516.4294,-3490.9478L13516.4287,-3490.9726L13516.4259,-3490.9934L13516.4218,-3491.0081L13516.4082,-3491.0289L13516.3888,-3491.0508L13516.3758,-3491.0613L13516.3617,-3491.0717L13516.3214,-3491.0988L13516.3305,-3491.1075L13516.3707,-3491.1484L13516.3796,-3491.1571L13516.4175,-3491.1943L13516.4718,-3491.2515L13516.4916,-3491.2679L13516.5088,-3491.2816L13516.5173,-3491.2924L13516.5378,-3491.3134L13516.5561,-3491.3303L13516.5744,-3491.344L13516.5924,-3491.3539L13516.6188,-3491.369L13516.702,-3491.4108L13516.7164,-3491.4175L13516.7279,-3491.4228L13516.7483,-3491.4295L13516.763,-3491.4343L13516.7704,-3491.4367L13516.8059,-3491.4468L13516.8216,-3491.4492L13516.8406,-3491.4532L13516.8449,-3491.4526L13516.8644,-3491.4551"/>
<path content="1,神姫バス（株）,46快速46,29.5,0.5,0.5," xlink:title="1" d="M13516.8644,-3491.4551L13516.8449,-3491.4526L13516.8406,-3491.4532L13516.8216,-3491.4492L13516.8059,-3491.4468L13516.7704,-3491.4367L13516.763,-3491.4343L13516.7483,-3491.4295L13516.7279,-3491.4228L13516.7164,-3491.4175L13516.702,-3491.4108L13516.6188,-3491.369L13516.5924,-3491.3539L13516.5744,-3491.344L13516.5561,-3491.3303L13516.5378,-3491.3134L13516.5173,-3491.2924L13516.5088,-3491.2816L13516.4916,-3491.2679L13516.4718,-3491.2515L13516.4175,-3491.1943L13516.3707,-3491.1484L13516.3305,-3491.1075L13516.3214,-3491.0988L13516.3617,-3491.0717L13516.3758,-3491.0613L13516.3888,-3491.0508L13516.4082,-3491.0289L13516.4218,-3491.0081L13516.4259,-3490.9934L13516.4287,-3490.9726L13516.4294,-3490.9478L13516.4259,-3490.9382L13516.4222,-3490.9284L13516.399,-3490.8718L13516.3774,-3490.8215L13516.3644,-3490.7933L13516.3535,-3490.7674L13516.3145,-3490.6801L13516.2988,-3490.6445L13516.2913,-3490.6287L13516.2708,-3490.5831L13516.266,-3490.5724L13516.2626,-3490.5656L13516.2564,-3490.5538L13516.2332,-3490.4839L13516.227,-3490.4626L13516.2209,-3490.4061L13516.2195,-3490.3346L13516.2195,-3490.303L13516.2181,-3490.2433L13516.2168,-3490.1717L13516.2154,-3490.1565L13516.2154,-3490.1306L13516.1769,-3490.1316L13516.1621,-3490.1311L13516.1631,-3490.1131"/>
<path content="1,神姫バス（株）,46急行46,8.0,0.0,0.0," xlink:title="1" d="M13516.8644,-3491.4551L13516.8449,-3491.4526L13516.8406,-3491.4532L13516.8216,-3491.4492L13516.8059,-3491.4468L13516.7704,-3491.4367L13516.763,-3491.4343L13516.7483,-3491.4295L13516.7279,-3491.4228L13516.7164,-3491.4175L13516.702,-3491.4108L13516.6188,-3491.369L13516.5924,-3491.3539L13516.5744,-3491.344L13516.5561,-3491.3303L13516.5378,-3491.3134L13516.5173,-3491.2924L13516.5088,-3491.2816L13516.4916,-3491.2679L13516.4718,-3491.2515L13516.4175,-3491.1943L13516.3707,-3491.1484L13516.3305,-3491.1075L13516.3214,-3491.0988"/>
<path content="1,神姫バス（株）,46急行46,8.0,0.0,0.0," xlink:title="1" d="M13516.3214,-3491.0988L13516.3617,-3491.0717L13516.3758,-3491.0613L13516.3888,-3491.0508L13516.4082,-3491.0289L13516.4218,-3491.0081L13516.4259,-3490.9934L13516.4287,-3490.9726L13516.4294,-3490.9478L13516.4259,-3490.9382L13516.4222,-3490.9284L13516.399,-3490.8718L13516.3774,-3490.8215L13516.3644,-3490.7933L13516.3535,-3490.7674L13516.3145,-3490.6801L13516.2988,-3490.6445L13516.2913,-3490.6287L13516.2708,-3490.5831L13516.266,-3490.5724L13516.2626,-3490.5656L13516.2564,-3490.5538L13516.2332,-3490.4839L13516.227,-3490.4626L13516.2209,-3490.4061L13516.2195,-3490.3346L13516.2195,-3490.303L13516.2181,-3490.2433L13516.2168,-3490.1717L13516.2154,-3490.1565L13516.2154,-3490.1306L13516.1769,-3490.1316L13516.1621,-3490.1311L13516.1631,-3490.1131"/>
<path content="1,神姫バス（株）,46急行46,8.0,0.0,0.0," xlink:title="1" d="M13516.1963,-3491.4449L13516.1877,-3491.4195L13516.2149,-3491.4012L13516.1566,-3491.3209L13516.1405,-3491.2979L13516.1346,-3491.2725L13516.1356,-3491.2509L13516.1429,-3491.2374L13516.1539,-3491.2188L13516.1675,-3491.2047L13516.1853,-3491.1895L13516.1935,-3491.1844L13516.1963,-3491.1826L13516.2494,-3491.1469L13516.3214,-3491.0988"/>
<path content="1,神姫バス（株）,48,18.5,25.5,25.5,新三田" xlink:title="1" d="M13516.1631,-3490.1131L13516.1621,-3490.1311L13516.1769,-3490.1316L13516.2154,-3490.1306L13516.2154,-3490.1565L13516.2168,-3490.1717L13516.2181,-3490.2433L13516.2195,-3490.303L13516.2195,-3490.3346L13516.2209,-3490.4061L13516.227,-3490.4574L13516.227,-3490.4626L13516.2332,-3490.4839L13516.2564,-3490.5538L13516.2626,-3490.5656L13516.266,-3490.5724L13516.2708,-3490.5831L13516.2913,-3490.6287L13516.2988,-3490.6445L13516.3145,-3490.6801L13516.3535,-3490.7674L13516.3644,-3490.7933L13516.3774,-3490.8215L13516.399,-3490.8718L13516.4222,-3490.9284L13516.4259,-3490.9382L13516.4294,-3490.9478L13516.4287,-3490.9726L13516.4259,-3490.9934L13516.4218,-3491.0081L13516.4082,-3491.0289L13516.3888,-3491.0508L13516.3758,-3491.0613L13516.3617,-3491.0717L13516.3214,-3491.0988L13516.3305,-3491.1075L13516.3707,-3491.1484L13516.3796,-3491.1571L13516.4175,-3491.1943L13516.4718,-3491.2515L13516.4916,-3491.2679L13516.5088,-3491.2816L13516.5173,-3491.2924L13516.5378,-3491.3134L13516.5561,-3491.3303L13516.5744,-3491.344L13516.5924,-3491.3539L13516.6188,-3491.369L13516.702,-3491.4108L13516.7164,-3491.4175L13516.7279,-3491.4228L13516.7483,-3491.4295L13516.763,-3491.4343L13516.7704,-3491.4367L13516.8059,-3491.4468L13516.8216,-3491.4492L13516.8406,-3491.4532L13516.8449,-3491.4526L13516.8644,-3491.4551"/>
<path content="1,神姫バス（株）,70,15.0,3.3,3.3,新三田" xlink:title="1" d="M13516.1963,-3491.4449L13516.1887,-3491.4217L13516.1877,-3491.4196L13516.2149,-3491.4012L13516.1566,-3491.3209L13516.1405,-3491.2979L13516.1346,-3491.2725L13516.1356,-3491.2509L13516.1429,-3491.2374L13516.1539,-3491.2188L13516.1675,-3491.2047L13516.1853,-3491.1895L13516.1935,-3491.1844L13516.1963,-3491.1826L13516.2494,-3491.1469L13516.3214,-3491.0988L13516.3305,-3491.1075L13516.3707,-3491.1484L13516.3796,-3491.1571L13516.4175,-3491.1943L13516.4718,-3491.2515L13516.4916,-3491.2679L13516.5088,-3491.2816L13516.5173,-3491.2924L13516.5378,-3491.3134L13516.5561,-3491.3303L13516.5744,-3491.344L13516.5924,-3491.3539L13516.6188,-3491.369L13516.702,-3491.4108L13516.7164,-3491.4175L13516.7279,-3491.4228L13516.7483,-3491.4295L13516.763,-3491.4343L13516.7704,-3491.4367L13516.8059,-3491.4468L13516.8216,-3491.4492L13516.8406,-3491.4532L13516.8449,-3491.4526L13516.8644,-3491.4551"/>
<path content="1,神姫バス（株）,71,2.0,0.0,0.0," xlink:title="1" d="M13516.1963,-3491.4449L13516.1877,-3491.4195L13516.2149,-3491.4012L13516.1566,-3491.3209L13516.1405,-3491.2979L13516.1346,-3491.2725L13516.1356,-3491.2509L13516.1429,-3491.2374L13516.1539,-3491.2188L13516.1675,-3491.2047L13516.1853,-3491.1895L13516.1935,-3491.1844L13516.1963,-3491.1826L13516.2494,-3491.1469L13516.3214,-3491.0988L13516.3305,-3491.1075L13516.3707,-3491.1484L13516.4175,-3491.1943L13516.4718,-3491.2515L13516.4916,-3491.2679L13516.5088,-3491.2816L13516.5173,-3491.2924L13516.5378,-3491.3134L13516.5561,-3491.3303L13516.5744,-3491.344L13516.5924,-3491.3539L13516.6188,-3491.369L13516.702,-3491.4108L13516.7164,-3491.4175L13516.7279,-3491.4228L13516.7483,-3491.4295L13516.763,-3491.4343L13516.7704,-3491.4367L13516.8059,-3491.4468L13516.8216,-3491.4492L13516.8406,-3491.4532L13516.8449,-3491.4526L13516.8644,-3491.4551"/>
<path content="1,神姫バス（株）,72,2.0,0.0,0.0," xlink:title="1" d="M13516.1963,-3491.4449L13516.1877,-3491.4195L13516.2149,-3491.4012L13516.1566,-3491.3209L13516.1405,-3491.2979L13516.1346,-3491.2725L13516.1356,-3491.2509L13516.1429,-3491.2374L13516.1539,-3491.2188L13516.1675,-3491.2047L13516.1853,-3491.1895L13516.1935,-3491.1844L13516.1963,-3491.1826L13516.2494,-3491.1469L13516.3214,-3491.0988L13516.3305,-3491.1075L13516.3707,-3491.1484L13516.4175,-3491.1943L13516.4718,-3491.2515L13516.4916,-3491.2679L13516.5088,-3491.2816L13516.5173,-3491.2924L13516.5378,-3491.3134L13516.5561,-3491.3303L13516.5744,-3491.344L13516.5924,-3491.3539L13516.6188,-3491.369L13516.702,-3491.4108L13516.7164,-3491.4175L13516.7279,-3491.4228L13516.7483,-3491.4295L13516.763,-3491.4343L13516.7704,-3491.4367L13516.8059,-3491.4468L13516.8216,-3491.4492L13516.8406,-3491.4532L13516.8449,-3491.4526L13516.8644,-3491.4551"/>
<path content="1,神姫バス（株）,73,15.0,0.0,0.0,新三田" xlink:title="1" d="M13516.1963,-3491.4449L13516.1887,-3491.4217L13516.1877,-3491.4196L13516.2149,-3491.4012L13516.1566,-3491.3209L13516.1405,-3491.2979L13516.1346,-3491.2725L13516.1356,-3491.2509L13516.1429,-3491.2374L13516.1539,-3491.2188L13516.1675,-3491.2047L13516.1853,-3491.1895L13516.1935,-3491.1844L13516.1963,-3491.1826L13516.2494,-3491.1469L13516.3214,-3491.0988L13516.3617,-3491.0717L13516.3758,-3491.0613L13516.3888,-3491.0508L13516.4082,-3491.0289L13516.4218,-3491.0081L13516.4259,-3490.9934L13516.4287,-3490.9726L13516.4294,-3490.9478L13516.4222,-3490.9284L13516.399,-3490.8718L13516.3774,-3490.8215L13516.3644,-3490.7933L13516.3535,-3490.7674L13516.3145,-3490.6801L13516.2988,-3490.6445L13516.2913,-3490.6287L13516.2708,-3490.5831L13516.266,-3490.5724L13516.2626,-3490.5656L13516.2564,-3490.5538L13516.2332,-3490.4839L13516.227,-3490.4626L13516.227,-3490.4574L13516.2209,-3490.4061L13516.2195,-3490.3346L13516.2195,-3490.303L13516.2181,-3490.2433L13516.2168,-3490.1717L13516.2154,-3490.1565L13516.2154,-3490.1306L13516.2154,-3490.0905L13516.2207,-3490.0759L13516.2304,-3490.0697L13516.2674,-3490.0342L13516.2824,-3490.0179L13516.3364,-3489.9632L13516.3603,-3489.9389L13516.3836,-3489.9113L13516.3908,-3489.9027L13516.3979,-3489.8888L13516.4198,-3489.8426L13516.4232,-3489.8279L13516.4239,-3489.7998L13516.4211,-3489.7767L13516.4184,-3489.7485L13516.4184,-3489.7146L13516.4211,-3489.7084L13516.4259,-3489.7022L13516.4485,-3489.6803L13516.4786,-3489.651L13516.4888,-3489.6352L13516.4943,-3489.6025L13516.5018,-3489.5664L13516.508,-3489.5473L13516.5196,-3489.5219L13516.5312,-3489.4982L13516.5353,-3489.4847L13516.5401,-3489.4566L13516.5421,-3489.4194L13516.5449,-3489.3974L13516.5551,-3489.3574L13516.5586,-3489.3483L13516.5695,-3489.3111L13516.5797,-3489.2694L13516.5824,-3489.2578"/>
<path content="1,神姫バス（株）,8,2.0,0.0,0.0,三田" xlink:title="1" d="M13515.3809,-3490.8222L13515.3811,-3490.8219L13515.3946,-3490.7943L13515.3992,-3490.7893L13515.4067,-3490.7746L13515.4115,-3490.7589L13515.4136,-3490.747L13515.4129,-3490.7222L13515.4026,-3490.6856L13515.4006,-3490.667L13515.4033,-3490.6259L13515.406,-3490.5999L13515.406,-3490.5819L13515.3964,-3490.5368L13515.3862,-3490.4974L13515.3842,-3490.4844L13515.3842,-3490.4664L13515.3882,-3490.4517L13515.4047,-3490.4224L13515.4088,-3490.4106L13515.4115,-3490.3971L13515.4136,-3490.3756L13515.4142,-3490.3311L13515.4177,-3490.3114L13515.4284,-3490.2794L13515.4621,-3490.2072L13515.464,-3490.2017L13515.4696,-3490.1908L13515.5004,-3490.1401L13515.5222,-3490.1085L13515.5393,-3490.0916L13515.5598,-3490.0769L13515.6173,-3490.0459L13515.7123,-3489.9952L13515.7308,-3489.984L13515.7417,-3489.9727L13515.7526,-3489.953L13515.7643,-3489.9299L13515.7848,-3489.8966L13515.7877,-3489.8934L13515.7916,-3489.8893L13515.8019,-3489.882L13515.8215,-3489.8729L13515.8511,-3489.8673L13515.8859,-3489.8639L13515.9105,-3489.8589L13515.929,-3489.8521L13515.9419,-3489.8442L13515.9474,-3489.838L13515.9522,-3489.8296L13515.9563,-3489.8217L13515.9591,-3489.8115L13515.9625,-3489.7907L13515.9625,-3489.6977L13515.9645,-3489.6842L13515.9743,-3489.6398L13515.9791,-3489.6284L13515.9814,-3489.619L13515.9837,-3489.6008L13515.9823,-3489.5697L13515.9707,-3489.5117L13515.9638,-3489.483L13515.9591,-3489.4526L13515.9591,-3489.4244L13515.9611,-3489.4137L13515.9624,-3489.406L13515.968,-3489.3928L13515.97,-3489.3889L13515.9754,-3489.3807L13515.983,-3489.3736L13515.996,-3489.3629L13516.0363,-3489.3336L13516.0589,-3489.3133L13516.0732,-3489.2976L13516.1048,-3489.2578"/>
<path content="1,神姫バス（株）,三ノ宮～フラワータウンセンター～えるむプラザ前～ゆりのき台4丁目～学園フ丁目,16.5,10.0,10.0," xlink:title="1" d="M13516.1631,-3490.1131L13516.1621,-3490.1311L13516.1769,-3490.1316L13516.2154,-3490.1306L13516.2154,-3490.1565L13516.2168,-3490.1717L13516.2181,-3490.2433L13516.2195,-3490.303L13516.2195,-3490.3346L13516.2209,-3490.4061L13516.227,-3490.4574L13516.227,-3490.4626L13516.2332,-3490.4839L13516.2564,-3490.5538L13516.2626,-3490.5656L13516.266,-3490.5724L13516.2708,-3490.5831L13516.2913,-3490.6287L13516.2988,-3490.6445L13516.3145,-3490.6801L13516.3535,-3490.7674L13516.3644,-3490.7933L13516.3774,-3490.8215L13516.399,-3490.8718L13516.4232,-3490.928L13516.4222,-3490.9284L13516.4259,-3490.9382L13516.4294,-3490.9478L13516.4287,-3490.9726L13516.4259,-3490.9934L13516.4218,-3491.0081L13516.4082,-3491.0289L13516.3888,-3491.0508L13516.3758,-3491.0613L13516.3617,-3491.0717L13516.3214,-3491.0988"/>
<path content="1,神姫バス（株）,三ノ宮～フラワータウンセンター～えるむプラザ前～ゆりのき台4丁目～学園フ丁目,16.5,10.0,10.0," xlink:title="1" d="M13516.3214,-3491.0988L13516.2494,-3491.1469L13516.1963,-3491.1826L13516.1935,-3491.1844L13516.1853,-3491.1895L13516.1675,-3491.2047L13516.1539,-3491.2188L13516.1429,-3491.2374L13516.1356,-3491.2509L13516.1346,-3491.2725L13516.1405,-3491.2979L13516.1566,-3491.3209L13516.2149,-3491.4012L13516.1877,-3491.4195L13516.1963,-3491.4449"/>
<path content="1,神姫バス（株）,三ノ宮～フラワータウンセンター～えるむプラザ前～ゆりのき台4丁目～学園フ丁目,16.5,10.0,10.0," xlink:title="1" d="M13516.3214,-3491.0988L13516.3305,-3491.1075L13516.3707,-3491.1484L13516.3796,-3491.1571L13516.4175,-3491.1943L13516.4718,-3491.2515L13516.4916,-3491.2679L13516.5088,-3491.2816L13516.5173,-3491.2924L13516.5378,-3491.3134L13516.5561,-3491.3303L13516.5744,-3491.344L13516.5924,-3491.3539L13516.6188,-3491.369L13516.702,-3491.4108L13516.7164,-3491.4175L13516.7279,-3491.4228L13516.7483,-3491.4295L13516.763,-3491.4343L13516.7704,-3491.4367L13516.8059,-3491.4468L13516.8216,-3491.4492L13516.8406,-3491.4532L13516.8449,-3491.4526L13516.8644,-3491.4551"/>
<path content="1,神姫バス（株）,三ノ宮～フラワータウンセンター～えるむプラザ前～ゆりのき台4丁目～関西学院大学キャンパス前～関西記念墓園,0.0,1.0,1.0," xlink:title="1" d="M13516.8644,-3491.4551L13516.8449,-3491.4526L13516.8406,-3491.4532L13516.8216,-3491.4492L13516.8059,-3491.4468L13516.7704,-3491.4367L13516.763,-3491.4343L13516.7483,-3491.4295L13516.7279,-3491.4228L13516.7164,-3491.4175L13516.702,-3491.4108L13516.6188,-3491.369L13516.5924,-3491.3539L13516.5744,-3491.344L13516.5561,-3491.3303L13516.5378,-3491.3134L13516.5173,-3491.2924L13516.5088,-3491.2816L13516.4916,-3491.2679L13516.4718,-3491.2515L13516.4175,-3491.1943L13516.3796,-3491.1571L13516.3707,-3491.1484L13516.3305,-3491.1075L13516.3214,-3491.0988L13516.2494,-3491.1469L13516.1963,-3491.1826L13516.1935,-3491.1844L13516.1853,-3491.1895L13516.1675,-3491.2047L13516.1539,-3491.2188L13516.1429,-3491.2374L13516.1356,-3491.2509L13516.1346,-3491.2725L13516.1405,-3491.2979L13516.1566,-3491.3209L13516.2149,-3491.4012L13516.1877,-3491.4195L13516.1963,-3491.4449L13516.2045,-3491.4551"/>
<path content="1,神姫バス（株）,北摂三田高校前～ゆりのき台中学校前～関西学院神戸三田キャンパス前～相野駅～つつじが丘北口,17.3,10.7,10.7," xlink:title="1" d="M13516.2149,-3491.4012L13516.1877,-3491.4195L13516.1963,-3491.4449"/>
<path content="1,神姫バス（株）,北摂三田高校前～ゆりのき台中学校前～関西学院神戸三田キャンパス前～相野駅～つつじが丘北口,17.3,10.7,10.7," xlink:title="1" d="M13516.2149,-3491.4012L13516.1566,-3491.3209L13516.1405,-3491.2979L13516.1346,-3491.2725L13516.1356,-3491.2509L13516.1429,-3491.2374L13516.1539,-3491.2188L13516.1675,-3491.2047L13516.1853,-3491.1895L13516.1935,-3491.1844L13516.1963,-3491.1826L13516.2494,-3491.1469L13516.3214,-3491.0988L13516.3305,-3491.1075L13516.3707,-3491.1484L13516.4175,-3491.1943L13516.4718,-3491.2515L13516.4916,-3491.2679L13516.5088,-3491.2816L13516.5173,-3491.2924L13516.5378,-3491.3134L13516.5561,-3491.3303L13516.5744,-3491.344L13516.5924,-3491.3539L13516.6188,-3491.369L13516.702,-3491.4108L13516.7164,-3491.4175L13516.7279,-3491.4228L13516.7483,-3491.4295L13516.763,-3491.4343L13516.7704,-3491.4367L13516.8059,-3491.4468L13516.8216,-3491.4492L13516.8406,-3491.4532L13516.8449,-3491.4526L13516.8644,-3491.4551"/>
<path content="1,神姫バス（株）,北摂三田高校前～ゆりのき台中学校前～関西学院神戸三田キャンパス前～相野駅～つつじが丘北口,17.3,10.7,10.7," xlink:title="1" d="M13516.2527,-3491.4551L13516.2524,-3491.4544L13516.2149,-3491.4012"/>
<path content="1,神姫バス（株）,学園フ丁目～えるむプラザ前～フラワータウンセンター～新神戸駅～三ノ宮,24.0,16.0,16.0," xlink:title="1" d="M13516.8644,-3491.4551L13516.8449,-3491.4526L13516.8406,-3491.4532L13516.8216,-3491.4492L13516.8059,-3491.4468L13516.7704,-3491.4367L13516.763,-3491.4343L13516.7483,-3491.4295L13516.7279,-3491.4228L13516.7164,-3491.4175L13516.702,-3491.4108L13516.6188,-3491.369L13516.5924,-3491.3539L13516.5744,-3491.344L13516.5561,-3491.3303L13516.5378,-3491.3134L13516.5173,-3491.2924L13516.5088,-3491.2816L13516.4916,-3491.2679L13516.4718,-3491.2515L13516.4175,-3491.1943L13516.3707,-3491.1484L13516.3305,-3491.1075L13516.3214,-3491.0988L13516.3617,-3491.0717L13516.3758,-3491.0613L13516.3888,-3491.0508L13516.4082,-3491.0289L13516.4218,-3491.0081L13516.4259,-3490.9934L13516.4287,-3490.9726L13516.4294,-3490.9478L13516.4259,-3490.9382L13516.4222,-3490.9284L13516.399,-3490.8718L13516.3774,-3490.8215L13516.3644,-3490.7933L13516.3535,-3490.7674L13516.3145,-3490.6801L13516.2988,-3490.6445L13516.2913,-3490.6287L13516.2708,-3490.5831L13516.266,-3490.5724L13516.2626,-3490.5656L13516.2564,-3490.5538L13516.2332,-3490.4839L13516.227,-3490.4626L13516.2209,-3490.4061L13516.2195,-3490.3346L13516.2195,-3490.303L13516.2181,-3490.2433L13516.2168,-3490.1717L13516.2154,-3490.1565L13516.2154,-3490.1306L13516.1769,-3490.1316L13516.1621,-3490.1311L13516.1631,-3490.1131"/>
<path content="1,神姫バス（株）,新三田駅～センチュリープラザ前～関西学院神戸三田キャンパス前～つつじが丘北口～大川瀬大滝,9.1,4.9,4.9," xlink:title="1" d="M13516.2149,-3491.4012L13516.1877,-3491.4195L13516.1963,-3491.4449"/>
<path content="1,神姫バス（株）,新三田駅～センチュリープラザ前～関西学院神戸三田キャンパス前～つつじが丘北口～大川瀬大滝,9.1,4.9,4.9," xlink:title="1" d="M13516.2149,-3491.4012L13516.1566,-3491.3209L13516.1405,-3491.2979L13516.1346,-3491.2725L13516.1356,-3491.2509L13516.1429,-3491.2374L13516.1539,-3491.2188L13516.1675,-3491.2047L13516.1853,-3491.1895L13516.1935,-3491.1844L13516.1963,-3491.1826L13516.2494,-3491.1469L13516.3214,-3491.0988L13516.3305,-3491.1075L13516.3707,-3491.1484L13516.4175,-3491.1943L13516.4718,-3491.2515L13516.4916,-3491.2679L13516.5088,-3491.2816L13516.5173,-3491.2924L13516.5378,-3491.3134L13516.5561,-3491.3303L13516.5744,-3491.344L13516.5924,-3491.3539L13516.6188,-3491.369L13516.702,-3491.4108L13516.7164,-3491.4175L13516.7279,-3491.4228L13516.7483,-3491.4295L13516.763,-3491.4343L13516.7704,-3491.4367L13516.8059,-3491.4468L13516.8216,-3491.4492L13516.8406,-3491.4532L13516.8449,-3491.4526L13516.8644,-3491.4551"/>
<path content="1,神姫バス（株）,新三田駅～センチュリープラザ前～関西学院神戸三田キャンパス前～つつじが丘北口～大川瀬大滝,9.1,4.9,4.9," xlink:title="1" d="M13516.2527,-3491.4551L13516.2524,-3491.4544L13516.2149,-3491.4012"/>
<path content="1,神姫バス（株）,津山-京都,2.0,2.0,2.0," xlink:title="1" d="M13515.3809,-3489.3234L13515.3866,-3489.3221L13515.4399,-3489.3101L13515.4502,-3489.3077L13515.4645,-3489.3044L13515.5147,-3489.2906L13515.5268,-3489.287L13515.5834,-3489.27L13515.602,-3489.2634L13515.6154,-3489.2578"/>
<path content="1,神姫バス（株）,津山駅・加西・西脇-大阪駅・ユニバーサル・スタジオ・ジャパン,23.0,24.0,24.0," xlink:title="1" d="M13515.3809,-3489.3234L13515.3866,-3489.3221L13515.4399,-3489.3101L13515.4502,-3489.3077L13515.4645,-3489.3044L13515.5147,-3489.2906L13515.5268,-3489.287L13515.5834,-3489.27L13515.602,-3489.2634L13515.6154,-3489.2578"/>
<path content="1,神姫バス（株）,関西学院神戸三田牛ャンパス前～えるむプラザ前～フラワータウンセンター～新神戸駅～三ノ宮,1.8,0.4,0.4," xlink:title="1" d="M13516.1963,-3491.4449L13516.1877,-3491.4195L13516.2149,-3491.4012L13516.1566,-3491.3209L13516.1405,-3491.2979L13516.1346,-3491.2725L13516.1356,-3491.2509L13516.1429,-3491.2374L13516.1539,-3491.2188L13516.1675,-3491.2047L13516.1853,-3491.1895L13516.1935,-3491.1844L13516.1963,-3491.1826L13516.2494,-3491.1469L13516.3214,-3491.0988L13516.3305,-3491.1075L13516.3707,-3491.1484L13516.4175,-3491.1943L13516.4718,-3491.2515L13516.4916,-3491.2679L13516.5088,-3491.2816L13516.5173,-3491.2924L13516.5378,-3491.3134L13516.5561,-3491.3303L13516.5744,-3491.344L13516.5924,-3491.3539L13516.6188,-3491.369L13516.702,-3491.4108L13516.7164,-3491.4175L13516.7279,-3491.4228L13516.7483,-3491.4295L13516.763,-3491.4343L13516.7704,-3491.4367L13516.8059,-3491.4468L13516.8216,-3491.4492L13516.8406,-3491.4532L13516.8449,-3491.4526L13516.8644,-3491.4551"/>
<path content="1,神姫バス（株）,関西記念墓園～ゆりのき台4丁目～えるむプラザ前～フラワータウンセンター～新神戸駅～三ノ宮,0.0,1.0,1.0," xlink:title="1" d="M13516.1963,-3491.4449L13516.1877,-3491.4195L13516.2149,-3491.4012L13516.1566,-3491.3209L13516.1405,-3491.2979L13516.1346,-3491.2725L13516.1356,-3491.2509L13516.1429,-3491.2374L13516.1539,-3491.2188L13516.1675,-3491.2047L13516.1853,-3491.1895L13516.1935,-3491.1844L13516.1963,-3491.1826L13516.2494,-3491.1469L13516.3214,-3491.0988L13516.3305,-3491.1075L13516.3707,-3491.1484L13516.4175,-3491.1943L13516.4718,-3491.2515L13516.4916,-3491.2679L13516.5088,-3491.2816L13516.5173,-3491.2924L13516.5378,-3491.3134L13516.5561,-3491.3303L13516.5744,-3491.344L13516.5924,-3491.3539L13516.6188,-3491.369L13516.702,-3491.4108L13516.7164,-3491.4175L13516.7279,-3491.4228L13516.7483,-3491.4295L13516.763,-3491.4343L13516.7704,-3491.4367L13516.8059,-3491.4468L13516.8216,-3491.4492L13516.8406,-3491.4532L13516.8449,-3491.4526L13516.8644,-3491.4551"/>
<path content="1,福井鉄道（株）,小浜⇔大阪,6.0,6.0,6.0," xlink:title="1" d="M13515.6154,-3489.2578L13515.602,-3489.2634L13515.5834,-3489.27L13515.5268,-3489.287L13515.5147,-3489.2906L13515.4645,-3489.3044L13515.4502,-3489.3077L13515.4399,-3489.3101L13515.3866,-3489.3221L13515.3809,-3489.3234M13515.3809,-3489.9634L13515.3865,-3489.996L13515.3987,-3490.065L13515.4094,-3490.1174L13515.4119,-3490.1279L13515.4191,-3490.1574L13515.4204,-3490.1643L13515.4232,-3490.1788L13515.4302,-3490.1975L13515.4362,-3490.2196L13515.4485,-3490.251L13515.4531,-3490.2624L13515.4646,-3490.2876L13515.4767,-3490.309L13515.4936,-3490.3396L13515.5037,-3490.3545L13515.5209,-3490.3865L13515.5343,-3490.4128L13515.5604,-3490.4676L13515.5701,-3490.4897L13515.5803,-3490.5156L13515.5923,-3490.5556L13515.599,-3490.5789L13515.6064,-3490.6049L13515.6129,-3490.6442L13515.6161,-3490.6694L13515.6157,-3490.7041L13515.6152,-3490.7099L13515.6159,-3490.7268L13515.6122,-3490.7645L13515.6118,-3490.7664L13515.6071,-3490.8083L13515.5939,-3490.8695L13515.5889,-3490.8947L13515.5754,-3490.9377L13515.5586,-3490.9825L13515.5561,-3490.9889L13515.5451,-3491.0172L13515.5065,-3491.1142L13515.4963,-3491.1451L13515.4811,-3491.1878L13515.4667,-3491.2349L13515.4632,-3491.2463L13515.4522,-3491.2806L13515.4438,-3491.3191L13515.4306,-3491.3841L13515.4269,-3491.4146L13515.4232,-3491.4392L13515.4237,-3491.45L13515.4235,-3491.4551"/>
<path content="1,近鉄バス（株）,大阪⇔小浜,6.0,6.0,6.0," xlink:title="1" d="M13515.6154,-3489.2578L13515.602,-3489.2634L13515.5834,-3489.27L13515.5268,-3489.287L13515.5147,-3489.2906L13515.4645,-3489.3044L13515.4502,-3489.3077L13515.4399,-3489.3101L13515.3866,-3489.3221L13515.3809,-3489.3234M13515.3809,-3489.9634L13515.3865,-3489.996L13515.3987,-3490.065L13515.4094,-3490.1174L13515.4119,-3490.1279L13515.4191,-3490.1574L13515.4204,-3490.1643L13515.4232,-3490.1788L13515.4302,-3490.1975L13515.4362,-3490.2196L13515.4485,-3490.251L13515.4531,-3490.2624L13515.4646,-3490.2876L13515.4767,-3490.309L13515.4936,-3490.3396L13515.5037,-3490.3545L13515.5209,-3490.3865L13515.5343,-3490.4128L13515.5604,-3490.4676L13515.5701,-3490.4897L13515.5803,-3490.5156L13515.5923,-3490.5556L13515.599,-3490.5789L13515.6064,-3490.6049L13515.6129,-3490.6442L13515.6161,-3490.6694L13515.6157,-3490.7041L13515.6152,-3490.7099L13515.6159,-3490.7268L13515.6122,-3490.7645L13515.6118,-3490.7664L13515.6071,-3490.8083L13515.5939,-3490.8695L13515.5889,-3490.8947L13515.5754,-3490.9377L13515.5586,-3490.9825L13515.5561,-3490.9889L13515.5451,-3491.0172L13515.5065,-3491.1142L13515.4963,-3491.1451L13515.4811,-3491.1878L13515.4667,-3491.2349L13515.4632,-3491.2463L13515.4522,-3491.2806L13515.4438,-3491.3191L13515.4306,-3491.3841L13515.4269,-3491.4146L13515.4232,-3491.4392L13515.4237,-3491.45L13515.4235,-3491.4551"/>
<path content="1,関東バス（株）,マスカット号,1.0,1.0,1.0," xlink:title="1" d="M13515.3809,-3489.3234L13515.3866,-3489.3221L13515.4399,-3489.3101L13515.4502,-3489.3077L13515.4645,-3489.3044L13515.5147,-3489.2906L13515.5268,-3489.287L13515.5834,-3489.27L13515.602,-3489.2634L13515.6154,-3489.2578"/>
<path content="1,阪急バス（株）,天橋立・宮津行,3.0,3.0,3.0," xlink:title="1" d="M13515.6154,-3489.2578L13515.602,-3489.2634L13515.5834,-3489.27L13515.5268,-3489.287L13515.5147,-3489.2906L13515.4645,-3489.3044L13515.4502,-3489.3077L13515.4399,-3489.3101L13515.3866,-3489.3221L13515.3809,-3489.3234M13515.3809,-3489.9634L13515.3865,-3489.996L13515.3987,-3490.065L13515.4094,-3490.1174L13515.4119,-3490.1279L13515.4191,-3490.1574L13515.4204,-3490.1643L13515.4232,-3490.1788L13515.4302,-3490.1975L13515.4362,-3490.2196L13515.4485,-3490.251L13515.4531,-3490.2624L13515.4646,-3490.2876L13515.4767,-3490.309L13515.4936,-3490.3396L13515.5037,-3490.3545L13515.5209,-3490.3865L13515.5343,-3490.4128L13515.5604,-3490.4676L13515.5701,-3490.4897L13515.5803,-3490.5156L13515.5923,-3490.5556L13515.599,-3490.5789L13515.6064,-3490.6049L13515.6129,-3490.6442L13515.6161,-3490.6694L13515.6157,-3490.7041L13515.6152,-3490.7099L13515.6159,-3490.7268L13515.6122,-3490.7645L13515.6118,-3490.7664L13515.6071,-3490.8083L13515.5939,-3490.8695L13515.5889,-3490.8947L13515.5754,-3490.9377L13515.5586,-3490.9825L13515.5561,-3490.9889L13515.5451,-3491.0172L13515.5065,-3491.1142L13515.4963,-3491.1451L13515.4811,-3491.1878L13515.4667,-3491.2349L13515.4632,-3491.2463L13515.4522,-3491.2806L13515.4438,-3491.3191L13515.4306,-3491.3841L13515.4269,-3491.4146L13515.4232,-3491.4392L13515.4237,-3491.45L13515.4235,-3491.4551"/>
<path content="1,阪急バス（株）,新見・三次行,7.0,7.0,7.0," xlink:title="1" d="M13515.3809,-3489.3234L13515.3866,-3489.3221L13515.4399,-3489.3101L13515.4502,-3489.3077L13515.4645,-3489.3044L13515.5147,-3489.2906L13515.5268,-3489.287L13515.5834,-3489.27L13515.602,-3489.2634L13515.6154,-3489.2578"/>
<path content="1,阪急バス（株）,松江・出雲行（くにびき号）,8.0,8.0,8.0," xlink:title="1" d="M13515.6154,-3489.2578L13515.602,-3489.2634L13515.5834,-3489.27L13515.5268,-3489.287L13515.5147,-3489.2906L13515.4645,-3489.3044L13515.4502,-3489.3077L13515.4399,-3489.3101L13515.3866,-3489.3221L13515.3809,-3489.3234"/>
<path content="1,阪急バス（株）,湯村温泉行（夢千代号）,4.0,4.0,4.0," xlink:title="1" d="M13515.6154,-3489.2578L13515.602,-3489.2634L13515.5834,-3489.27L13515.5268,-3489.287L13515.5147,-3489.2906L13515.4645,-3489.3044L13515.4502,-3489.3077L13515.4399,-3489.3101L13515.3866,-3489.3221L13515.3809,-3489.3234M13515.3809,-3489.9634L13515.3865,-3489.996L13515.3987,-3490.065L13515.4094,-3490.1174L13515.4119,-3490.1279L13515.4191,-3490.1574L13515.4204,-3490.1643L13515.4232,-3490.1788L13515.4302,-3490.1975L13515.4362,-3490.2196L13515.4485,-3490.251L13515.4531,-3490.2624L13515.4646,-3490.2876L13515.4767,-3490.309L13515.4936,-3490.3396L13515.5037,-3490.3545L13515.5209,-3490.3865L13515.5343,-3490.4128L13515.5604,-3490.4676L13515.5701,-3490.4897L13515.5803,-3490.5156L13515.5923,-3490.5556L13515.599,-3490.5789L13515.6064,-3490.6049L13515.6129,-3490.6442L13515.6161,-3490.6694L13515.6157,-3490.7041L13515.6152,-3490.7099L13515.6159,-3490.7268L13515.6122,-3490.7645L13515.6118,-3490.7664L13515.6071,-3490.8083L13515.5939,-3490.8695L13515.5889,-3490.8947L13515.5754,-3490.9377L13515.5586,-3490.9825L13515.5561,-3490.9889L13515.5451,-3491.0172L13515.5065,-3491.1142L13515.4963,-3491.1451L13515.4811,-3491.1878L13515.4667,-3491.2349L13515.4632,-3491.2463L13515.4522,-3491.2806L13515.4438,-3491.3191L13515.4306,-3491.3841L13515.4269,-3491.4146L13515.4232,-3491.4392L13515.4237,-3491.45L13515.4235,-3491.4551"/>
<path content="1,（株）中国バス,関西　大阪線　三次・庄原～東城・新大阪,5.0,5.0,5.0," xlink:title="1" d="M13515.3809,-3489.3234L13515.3866,-3489.3221L13515.4399,-3489.3101L13515.4502,-3489.3077L13515.4645,-3489.3044L13515.5147,-3489.2906L13515.5268,-3489.287L13515.5834,-3489.27L13515.602,-3489.2634L13515.6154,-3489.2578"/>
<path content="3,三木市,健康福祉センター～福吉・福井～健康福祉センター1,1.8,0.0,4.0," xlink:title="3" d="M13515.3809,-3490.8222L13515.3811,-3490.8219L13515.3946,-3490.7943L13515.3992,-3490.7893L13515.4067,-3490.7746L13515.4115,-3490.7589L13515.4136,-3490.747L13515.4129,-3490.7222L13515.4026,-3490.6856L13515.4006,-3490.667L13515.4033,-3490.6259L13515.406,-3490.5999L13515.406,-3490.5819L13515.3964,-3490.5368L13515.3862,-3490.4974L13515.3842,-3490.4844L13515.3842,-3490.4664L13515.3882,-3490.4517L13515.4047,-3490.4224L13515.4088,-3490.4106L13515.4115,-3490.3971L13515.4136,-3490.3756L13515.4142,-3490.3311L13515.4177,-3490.3114L13515.4284,-3490.2794L13515.4621,-3490.2072L13515.4696,-3490.1908L13515.4532,-3490.1513L13515.4432,-3490.1237L13515.4416,-3490.1192L13515.4327,-3490.0775L13515.4263,-3490.0524L13515.4091,-3489.9557L13515.4006,-3489.922L13515.3932,-3489.8957L13515.3862,-3489.8786L13515.3809,-3489.8659M13515.3809,-3489.7413L13515.3883,-3489.7146L13515.3876,-3489.6914L13515.3862,-3489.6791L13515.3809,-3489.6534"/>
</g>
</svg>
