<?xml version="1.0" encoding="UTF-8"?>
<svg  xmlns="http://www.w3.org/2000/svg" xmlns:xlink="http://www.w3.org/1999/xlink" xmlns:go="http://purl.org/svgmap/profile" property="N07_001,N07_002,N07_003,N07_004,N07_005,N07_006,N07_007" viewBox="14091.888427734375 -3843.017578125 0.274658203125 0.274658203125" go:dataArea="14091.888427734375 -3843.017578125 0.274658203125 0.274658203125" >
<metadata>
 <rdf:RDF xmlns:rdf="http://www.w3.org/1999/02/22-rdf-syntax-ns#" xmlns:crs="http://opengis.org/xmldtds/transformations.dtd" xmlns:svg="http://www.w3.org/svg" >
  <rdf:Description>
   <crs:CoordinateReferenceSystem rdf:resource="http://purl.org/crs/84" svg:transform="matrix(100.0,0.0,0.0,-100.0,0.0,0.0)" />
  </rdf:Description>
 </rdf:RDF>
</metadata>
<globalCoordinateSystem srsName="http://purl.org/crs/84" transform="matrix(100.0,0.0,0.0,-100.0,0.0,0.0)" />
<defs>
 <g id="p0" >
  <circle cx="0.0" cy="0.0" r="3" stroke="green" stroke-width="0.75" vector-effect="non-scaling-stroke" />
 </g>
</defs>
<g fill="none" fill-rule="evenodd" stroke="#FF00FF" stroke-width="0.75" opacity="0.5" vector-effect="non-scaling-stroke" stroke-linejoin="bevel" >
<path content="2,大和町,鶴巣線1・2,2.5,2.5,0.0," xlink:title="2" d="M14092.1631,-3842.9635L14092.1528,-3842.9641L14092.1397,-3842.9672L14092.0861,-3842.9798L14092.0665,-3842.9811L14092.0492,-3842.9803L14092.0343,-3842.9779L14092.0123,-3842.9736L14091.9765,-3842.9643L14091.9503,-3842.9564L14091.9564,-3842.9494L14091.9715,-3842.9379L14091.9844,-3842.9258L14091.9978,-3842.9111L14092.0064,-3842.8961L14092.0109,-3842.8846L14092.0295,-3842.8875L14092.0703,-3842.8931L14092.1018,-3842.8976L14092.1133,-3842.8999L14092.1233,-3842.9021L14092.1619,-3842.9083L14092.1631,-3842.9083"/>
<path content="2,大和町,鶴巣線1・2,2.5,2.5,0.0," xlink:title="2" d="M14092.1601,-3843.0176L14092.1631,-3842.9953"/>
<path content="2,大和町,鶴巣線3,1.0,1.0,0.0," xlink:title="2" d="M14092.1631,-3842.9083L14092.1619,-3842.9083L14092.1233,-3842.9021L14092.1133,-3842.8999L14092.1018,-3842.8976L14092.0703,-3842.8931L14092.0295,-3842.8875L14092.0109,-3842.8846L14092.0064,-3842.8961L14091.9978,-3842.9111L14091.9844,-3842.9258L14091.9715,-3842.9379L14091.9564,-3842.9494L14091.9503,-3842.9564L14091.9765,-3842.9643L14092.0123,-3842.9736L14092.0343,-3842.9779L14092.0492,-3842.9803L14092.0665,-3842.9811L14092.0861,-3842.9798L14092.1397,-3842.9672L14092.1528,-3842.9641L14092.1631,-3842.9635M14092.1631,-3842.9953L14092.1601,-3843.0176"/>
<path content="3,大郷町,黒川病院線,4.0,0.0,0.0," xlink:title="3" d="M14092.1631,-3842.9953L14092.1601,-3843.0176"/>
</g>
</svg>
