<?xml version="1.0" encoding="UTF-8"?>
<svg  xmlns="http://www.w3.org/2000/svg" xmlns:xlink="http://www.w3.org/1999/xlink" xmlns:go="http://purl.org/svgmap/profile" property="N07_001,N07_002,N07_003,N07_004,N07_005,N07_006,N07_007" viewBox="13590.087890625 -3496.9482421875 1.0986328125 1.0986328125" go:dataArea="13590.087890625 -3496.9482421875 1.0986328125 1.0986328125" >
<metadata>
 <rdf:RDF xmlns:rdf="http://www.w3.org/1999/02/22-rdf-syntax-ns#" xmlns:crs="http://opengis.org/xmldtds/transformations.dtd" xmlns:svg="http://www.w3.org/svg" >
  <rdf:Description>
   <crs:CoordinateReferenceSystem rdf:resource="http://purl.org/crs/84" svg:transform="matrix(100.0,0.0,0.0,-100.0,0.0,0.0)" />
  </rdf:Description>
 </rdf:RDF>
</metadata>
<globalCoordinateSystem srsName="http://purl.org/crs/84" transform="matrix(100.0,0.0,0.0,-100.0,0.0,0.0)" />
<defs>
 <g id="p0" >
  <circle cx="0.0" cy="0.0" r="3" stroke="green" stroke-width="0.75" vector-effect="non-scaling-stroke" />
 </g>
</defs>
<g fill="none" fill-rule="evenodd" stroke="#FF00FF" stroke-width="0.75" opacity="0.5" vector-effect="non-scaling-stroke" stroke-linejoin="bevel" >
<path content="1,JRバス関東（株）,ドリーム和歌山号,1.0,1.0,1.0," xlink:title="1" d="M13591.1865,-3496.8859L13591.1133,-3496.8916L13591.1089,-3496.8919L13591.0626,-3496.8956L13591.0589,-3496.8958L13590.9874,-3496.9014L13590.8775,-3496.9105L13590.8639,-3496.9116L13590.8572,-3496.9122L13590.6672,-3496.9279L13590.4225,-3496.9482"/>
<path content="1,JRバス関東（株）,ドリーム高松号/松山号/徳島号/高知号,4.0,4.0,4.0," xlink:title="1" d="M13591.1865,-3496.8859L13591.1133,-3496.8916L13591.1089,-3496.8919L13591.0626,-3496.8956L13591.0589,-3496.8958L13590.9874,-3496.9014L13590.8775,-3496.9105L13590.8639,-3496.9116L13590.8572,-3496.9122L13590.6672,-3496.9279L13590.4225,-3496.9482"/>
<path content="1,JRバス関東（株）,プレミアム中央ドリーム号/中央ドリーム号/プレミアムドリーム号/ドリーム号/レディースドリーム号/プレミアムレディース,9.4,12.0,12.0," xlink:title="1" d="M13591.1865,-3496.8859L13591.1133,-3496.8916L13591.1089,-3496.8919L13591.0626,-3496.8956L13591.0589,-3496.8958L13590.9874,-3496.9014L13590.8775,-3496.9105L13590.8639,-3496.9116L13590.8572,-3496.9122L13590.6672,-3496.9279L13590.4225,-3496.9482"/>
<path content="1,JRバス関東（株）,東海道昼特急号/中央道昼特急号/青春昼特急号/プレミアム昼特急号,7.2,9.0,9.0," xlink:title="1" d="M13591.1865,-3496.8859L13591.1133,-3496.8916L13591.1089,-3496.8919L13591.0626,-3496.8956L13591.0589,-3496.8958L13590.9874,-3496.9014L13590.8775,-3496.9105L13590.8639,-3496.9116L13590.8572,-3496.9122L13590.6672,-3496.9279L13590.4225,-3496.9482"/>
<path content="1,JRバス関東（株）,青春中央ドリーム号/青春中央エコドリーム号/青春ドリーム号/青春レディースドリーム号/青春エコドリーム号/超得割青春号,10.0,14.0,14.0," xlink:title="1" d="M13591.1865,-3496.8859L13591.1133,-3496.8916L13591.1089,-3496.8919L13591.0626,-3496.8956L13591.0589,-3496.8958L13590.9874,-3496.9014L13590.8775,-3496.9105L13590.8639,-3496.9116L13590.8572,-3496.9122L13590.6672,-3496.9279L13590.4225,-3496.9482"/>
<path content="1,JR四国バス（株）,オリーブ松山号　松山⇔名古屋,1.0,1.0,1.0," xlink:title="1" d="M13590.4225,-3496.9482L13590.6672,-3496.9279L13590.8572,-3496.9122L13590.8639,-3496.9116L13590.8775,-3496.9105L13590.9874,-3496.9014L13591.0589,-3496.8958L13591.0626,-3496.8956L13591.1089,-3496.8919L13591.1133,-3496.8916L13591.1865,-3496.8859"/>
<path content="1,JR四国バス（株）,ドリーム徳島号　阿南・徳島⇔新宿・東京・新木場,1.0,1.0,1.0," xlink:title="1" d="M13590.4225,-3496.9482L13590.6672,-3496.9279L13590.8572,-3496.9122L13590.8639,-3496.9116L13590.8775,-3496.9105L13590.9874,-3496.9014L13591.0589,-3496.8958L13591.0626,-3496.8956L13591.1089,-3496.8919L13591.1133,-3496.8916L13591.1865,-3496.8859"/>
<path content="1,JR四国バス（株）,ドリーム高松・松山号　松山・高松⇔東京・東京ディズニーランド,1.0,1.0,1.0," xlink:title="1" d="M13590.4225,-3496.9482L13590.6672,-3496.9279L13590.8572,-3496.9122L13590.8639,-3496.9116L13590.8775,-3496.9105L13590.9874,-3496.9014L13591.0589,-3496.8958L13591.0626,-3496.8956L13591.1089,-3496.8919L13591.1133,-3496.8916L13591.1865,-3496.8859"/>
<path content="1,JR四国バス（株）,ドリーム高松号　観音寺・高松⇔新宿・東京・新木場,1.0,1.0,1.0," xlink:title="1" d="M13590.4225,-3496.9482L13590.6672,-3496.9279L13590.8572,-3496.9122L13590.8639,-3496.9116L13590.8775,-3496.9105L13590.9874,-3496.9014L13591.0589,-3496.8958L13591.0626,-3496.8956L13591.1089,-3496.8919L13591.1133,-3496.8916L13591.1865,-3496.8859"/>
<path content="1,JR四国バス（株）,ドリーム高知号　高知・徳島⇔東京・新木場,1.0,1.0,1.0," xlink:title="1" d="M13591.1865,-3496.8859L13591.1133,-3496.8916L13591.1089,-3496.8919L13591.0626,-3496.8956L13591.0589,-3496.8958L13590.9874,-3496.9014L13590.8775,-3496.9105L13590.8639,-3496.9116L13590.8572,-3496.9122L13590.6672,-3496.9279L13590.4225,-3496.9482"/>
<path content="1,JR東海バス（株）,オリーブ松山号,1.0,1.0,1.0," xlink:title="1" d="M13590.4225,-3496.9482L13590.6672,-3496.9279L13590.8572,-3496.9122L13590.8639,-3496.9116L13590.8775,-3496.9105L13590.9874,-3496.9014L13591.0589,-3496.8958L13591.0626,-3496.8956L13591.1089,-3496.8919L13591.1133,-3496.8916L13591.1865,-3496.8859"/>
<path content="1,JR東海バス（株）,セレナーデ号,1.0,1.0,1.0," xlink:title="1" d="M13590.4225,-3496.9482L13590.6672,-3496.9279L13590.8572,-3496.9122L13590.8639,-3496.9116L13590.8775,-3496.9105L13590.9874,-3496.9014L13591.0589,-3496.8958L13591.0626,-3496.8956L13591.1089,-3496.8919L13591.1133,-3496.8916L13591.1865,-3496.8859"/>
<path content="1,JR東海バス（株）,京阪神ドリーム静岡号,1.0,1.0,1.0," xlink:title="1" d="M13590.4225,-3496.9482L13590.6672,-3496.9279L13590.8572,-3496.9122L13590.8639,-3496.9116L13590.8775,-3496.9105L13590.9874,-3496.9014L13591.0589,-3496.8958L13591.0626,-3496.8956L13591.1089,-3496.8919L13591.1133,-3496.8916L13591.1865,-3496.8859"/>
<path content="1,JR東海バス（株）,名神ハイウェイバス_01_on,29.0,29.0,29.0," xlink:title="1" d="M13591.1865,-3496.8859L13591.1133,-3496.8916L13591.1089,-3496.8919L13591.0626,-3496.8956L13591.0589,-3496.8958L13590.9874,-3496.9014L13590.8775,-3496.9105L13590.8639,-3496.9116L13590.8572,-3496.9122L13590.6672,-3496.9279L13590.4225,-3496.9482"/>
<path content="1,JR東海バス（株）,名神ハイウェイバス_02_on,29.0,29.0,29.0," xlink:title="1" d="M13590.4225,-3496.9482L13590.6672,-3496.9279L13590.8572,-3496.9122L13590.8639,-3496.9116L13590.8775,-3496.9105L13590.9874,-3496.9014L13591.0589,-3496.8958L13591.0626,-3496.8956L13591.1089,-3496.8919L13591.1133,-3496.8916L13591.1865,-3496.8859"/>
<path content="1,JR東海バス（株）,名神ハイウェイバス_03_on,29.0,29.0,29.0," xlink:title="1" d="M13590.4225,-3496.9482L13590.6672,-3496.9279L13590.8572,-3496.9122L13590.8639,-3496.9116L13590.8775,-3496.9105L13590.9874,-3496.9014L13591.0589,-3496.8958L13591.0626,-3496.8956L13591.1089,-3496.8919L13591.1133,-3496.8916L13591.1865,-3496.8859"/>
<path content="1,JR東海バス（株）,名神ハイウェイバス_04_on,29.0,29.0,29.0," xlink:title="1" d="M13590.4225,-3496.9482L13590.6672,-3496.9279L13590.8572,-3496.9122L13590.8639,-3496.9116L13590.8775,-3496.9105L13590.9874,-3496.9014L13591.0589,-3496.8958L13591.0626,-3496.8956L13591.1089,-3496.8919L13591.1133,-3496.8916L13591.1865,-3496.8859"/>
<path content="1,JR東海バス（株）,名神ハイウェイバス_05_on,29.0,29.0,29.0," xlink:title="1" d="M13590.4225,-3496.9482L13590.6672,-3496.9279L13590.8572,-3496.9122L13590.8639,-3496.9116L13590.8775,-3496.9105L13590.9874,-3496.9014L13591.0589,-3496.8958L13591.0626,-3496.8956L13591.1089,-3496.8919L13591.1133,-3496.8916L13591.1865,-3496.8859"/>
<path content="1,エムケイ（株）,MKナイトシャトル　京都・大阪⇔東京便,1.0,1.0,1.0," xlink:title="1" d="M13590.4225,-3496.9482L13590.6672,-3496.9279L13590.8572,-3496.9122L13590.8639,-3496.9116L13590.8775,-3496.9105L13590.9874,-3496.9014L13591.0589,-3496.8958L13591.0626,-3496.8956L13591.1089,-3496.8919L13591.1133,-3496.8916L13591.1865,-3496.8859"/>
<path content="1,ロウズ観光（株）,岡山・倉敷～東京,1.0,1.0,1.0," xlink:title="1" d="M13590.4225,-3496.9482L13590.6672,-3496.9279L13590.8572,-3496.9122L13590.8775,-3496.9105L13590.9874,-3496.9014L13591.0589,-3496.8958L13591.0626,-3496.8956L13591.1089,-3496.8919L13591.1133,-3496.8916L13591.1865,-3496.8859"/>
<path content="1,一畑バス（株）,東京～松江・出雲線,1.0,1.0,1.0," xlink:title="1" d="M13590.4225,-3496.9482L13590.6672,-3496.9279L13590.8572,-3496.9122L13590.8775,-3496.9105L13590.9874,-3496.9014L13591.0589,-3496.8958L13591.0626,-3496.8956L13591.1089,-3496.8919L13591.1133,-3496.8916L13591.1865,-3496.8859"/>
<path content="1,三重交通（株）,伊勢～京都,2.0,2.0,2.0," xlink:title="1" d="M13591.1865,-3496.8859L13591.1133,-3496.8916L13591.1089,-3496.8919L13591.0626,-3496.8956L13591.0589,-3496.8958L13590.9874,-3496.9014L13590.8775,-3496.9105L13590.8639,-3496.9116L13590.8572,-3496.9122L13590.6672,-3496.9279L13590.4225,-3496.9482"/>
<path content="1,三重交通（株）,四日市～京都,4.0,4.0,4.0," xlink:title="1" d="M13591.1865,-3496.8859L13591.1133,-3496.8916L13591.1089,-3496.8919L13591.0626,-3496.8956L13591.0589,-3496.8958L13590.9874,-3496.9014L13590.8775,-3496.9105L13590.8639,-3496.9116L13590.8572,-3496.9122L13590.6672,-3496.9279L13590.4225,-3496.9482"/>
<path content="1,三重交通（株）,四日市～大阪,3.0,3.0,3.0," xlink:title="1" d="M13590.4225,-3496.9482L13590.6672,-3496.9279L13590.8572,-3496.9122L13590.8639,-3496.9116L13590.8775,-3496.9105L13590.9874,-3496.9014L13591.0589,-3496.8958L13591.0626,-3496.8956L13591.1089,-3496.8919L13591.1133,-3496.8916L13591.1865,-3496.8859"/>
<path content="1,三重交通（株）,津～京都,2.0,2.0,2.0," xlink:title="1" d="M13591.1865,-3496.8859L13591.1133,-3496.8916L13591.1089,-3496.8919L13591.0626,-3496.8956L13591.0589,-3496.8958L13590.9874,-3496.9014L13590.8775,-3496.9105L13590.8639,-3496.9116L13590.8572,-3496.9122L13590.6672,-3496.9279L13590.4225,-3496.9482"/>
<path content="1,三重交通（株）,鳥羽～福岡,1.0,1.0,1.0," xlink:title="1" d="M13590.4225,-3496.9482L13590.6672,-3496.9279L13590.8572,-3496.9122L13590.8639,-3496.9116L13590.8775,-3496.9105L13590.9874,-3496.9014L13591.0589,-3496.8958L13591.0626,-3496.8956L13591.1089,-3496.8919L13591.1133,-3496.8916L13591.1865,-3496.8859"/>
<path content="1,下津井電鉄（株）,岡山～東京線,1.0,1.0,1.0," xlink:title="1" d="M13590.4225,-3496.9482L13590.6672,-3496.9279L13590.8572,-3496.9122L13590.8775,-3496.9105L13590.9874,-3496.9014L13591.0589,-3496.8958L13591.0626,-3496.8956L13591.1089,-3496.8919L13591.1133,-3496.8916L13591.1865,-3496.8859"/>
<path content="1,両備ホールディングス（株）,ままかりライナー　倉敷・岡山～東京駅八重洲通り線,1.0,1.0,1.0," xlink:title="1" d="M13590.4225,-3496.9482L13590.6672,-3496.9279L13590.8572,-3496.9122L13590.8775,-3496.9105L13590.9874,-3496.9014L13591.0589,-3496.8958L13591.0626,-3496.8956L13591.1089,-3496.8919L13591.1133,-3496.8916L13591.1865,-3496.8859"/>
<path content="1,両備ホールディングス（株）,マスカット　倉敷～新宿線,1.0,1.0,1.0," xlink:title="1" d="M13590.4225,-3496.9482L13590.6672,-3496.9279L13590.8572,-3496.9122L13590.8775,-3496.9105L13590.9874,-3496.9014L13591.0589,-3496.8958L13591.0626,-3496.8956L13591.1089,-3496.8919L13591.1133,-3496.8916L13591.1865,-3496.8859"/>
<path content="1,両備ホールディングス（株）,リョービ・エクスプレス　倉敷・岡山～名古屋線,1.0,1.0,1.0," xlink:title="1" d="M13590.4225,-3496.9482L13590.6672,-3496.9279L13590.8572,-3496.9122L13590.8775,-3496.9105L13590.9874,-3496.9014L13591.0589,-3496.8958L13591.0626,-3496.8956L13591.1089,-3496.8919L13591.1133,-3496.8916L13591.1865,-3496.8859"/>
<path content="1,両備ホールディングス（株）,ルブラン　倉敷・岡山・津山～東京線,1.0,1.0,1.0," xlink:title="1" d="M13590.4225,-3496.9482L13590.6672,-3496.9279L13590.8572,-3496.9122L13590.8775,-3496.9105L13590.9874,-3496.9014L13591.0589,-3496.8958L13591.0626,-3496.8956L13591.1089,-3496.8919L13591.1133,-3496.8916L13591.1865,-3496.8859"/>
<path content="1,中国JRバス（株）,広島・三次～名古屋　セレナーデ号,1.0,1.0,1.0," xlink:title="1" d="M13590.4225,-3496.9482L13590.6672,-3496.9279L13590.8572,-3496.9122L13590.8639,-3496.9116L13590.8775,-3496.9105L13590.9874,-3496.9014L13591.0589,-3496.8958L13591.0626,-3496.8956L13591.1089,-3496.8919L13591.1133,-3496.8916L13591.1865,-3496.8859"/>
<path content="1,中国JRバス（株）,広島～東京　ニューブリーズ号,2.0,2.0,2.0," xlink:title="1" d="M13590.4225,-3496.9482L13590.6672,-3496.9279L13590.8572,-3496.9122L13590.8639,-3496.9116L13590.8775,-3496.9105L13590.9874,-3496.9014L13591.0589,-3496.8958L13591.0626,-3496.8956L13591.1089,-3496.8919L13591.1133,-3496.8916L13591.1865,-3496.8859"/>
<path content="1,中国JRバス（株）,津和野・益田・浜田・三次～東京　いわみエクスプレス,1.0,1.0,1.0," xlink:title="1" d="M13590.4225,-3496.9482L13590.6672,-3496.9279L13590.8572,-3496.9122L13590.8639,-3496.9116L13590.8775,-3496.9105L13590.9874,-3496.9014L13591.0589,-3496.8958L13591.0626,-3496.8956L13591.1089,-3496.8919L13591.1133,-3496.8916L13591.1865,-3496.8859"/>
<path content="1,九州産交バス（株）,熊本⇔名古屋,1.0,1.0,1.0," xlink:title="1" d="M13591.1865,-3496.8859L13591.1133,-3496.8916L13591.1089,-3496.8919L13591.0626,-3496.8956L13591.0589,-3496.8958L13590.9874,-3496.9014L13590.8775,-3496.9105L13590.8639,-3496.9116L13590.8572,-3496.9122L13590.6672,-3496.9279L13590.4225,-3496.9482"/>
<path content="1,亀の井バス（株）,大分⇔名古屋,1.0,1.0,1.0," xlink:title="1" d="M13590.4224,-3496.9482L13590.6671,-3496.9279L13590.8572,-3496.9122L13590.8639,-3496.9116L13590.8774,-3496.9105L13590.9874,-3496.9014L13591.0589,-3496.8958L13591.0626,-3496.8956L13591.1089,-3496.8919L13591.1132,-3496.8916L13591.1865,-3496.8859"/>
<path content="1,京成バス（株）,神戸・大阪～東京ディズニーリゾート・海浜幕張・千葉中央駅,0.5,0.5,0.5," xlink:title="1" d="M13590.4225,-3496.9482L13590.6672,-3496.9279L13590.8572,-3496.9122L13590.8639,-3496.9116L13590.8775,-3496.9105L13590.9874,-3496.9014L13591.0589,-3496.8958L13591.0626,-3496.8956L13591.1089,-3496.8919L13591.1133,-3496.8916L13591.1865,-3496.8859"/>
<path content="1,京浜急行バス（株）,エディ号,2.0,2.0,2.0," xlink:title="1" d="M13591.1865,-3496.8859L13591.1133,-3496.8916L13591.1089,-3496.8919L13591.0626,-3496.8956L13591.0589,-3496.8958L13590.9874,-3496.9014L13590.8775,-3496.9105L13590.8639,-3496.9116L13590.8572,-3496.9122L13590.6672,-3496.9279L13590.4225,-3496.9482"/>
<path content="1,京浜急行バス（株）,キャメル号,1.0,1.0,1.0," xlink:title="1" d="M13591.1865,-3496.8859L13591.1133,-3496.8916L13591.1089,-3496.8919L13591.0626,-3496.8956L13591.0589,-3496.8958L13590.9874,-3496.9014L13590.8775,-3496.9105L13590.8639,-3496.9116L13590.8572,-3496.9122L13590.6672,-3496.9279L13590.4225,-3496.9482"/>
<path content="1,京浜急行バス（株）,シルフィード号,1.0,1.0,1.0," xlink:title="1" d="M13591.1865,-3496.8859L13591.1133,-3496.8916L13591.1089,-3496.8919L13591.0626,-3496.8956L13591.0589,-3496.8958L13590.9874,-3496.9014L13590.8775,-3496.9105L13590.8639,-3496.9116L13590.8572,-3496.9122L13590.6672,-3496.9279L13590.4225,-3496.9482"/>
<path content="1,京浜急行バス（株）,パイレーツ号,1.0,1.0,1.0," xlink:title="1" d="M13590.4225,-3496.9482L13590.6672,-3496.9279L13590.8572,-3496.9122L13590.8639,-3496.9116L13590.8775,-3496.9105L13590.9874,-3496.9014L13591.0589,-3496.8958L13591.0626,-3496.8956L13591.1089,-3496.8919L13591.1133,-3496.8916L13591.1865,-3496.8859"/>
<path content="1,京浜急行バス（株）,ルプラン号,1.0,1.0,1.0," xlink:title="1" d="M13590.4225,-3496.9482L13590.6672,-3496.9279L13590.8572,-3496.9122L13590.8639,-3496.9116L13590.8775,-3496.9105L13590.9874,-3496.9014L13591.0589,-3496.8958L13591.0626,-3496.8956L13591.1089,-3496.8919L13591.1133,-3496.8916L13591.1865,-3496.8859"/>
<path content="1,京王バス南（株）,新宿・渋谷～大阪（阪急梅田）線,1.0,1.0,1.0," xlink:title="1" d="M13590.4225,-3496.9482L13590.6672,-3496.9279L13590.8572,-3496.9122L13590.8639,-3496.9116L13590.8775,-3496.9105L13590.9874,-3496.9014L13591.0589,-3496.8958L13591.0626,-3496.8956L13591.1089,-3496.8919L13591.1133,-3496.8916L13591.1865,-3496.8859"/>
<path content="1,京王バス南（株）,新宿・渋谷～神戸姫路線,1.0,1.0,1.0," xlink:title="1" d="M13590.4225,-3496.9482L13590.6672,-3496.9279L13590.8572,-3496.9122L13590.8639,-3496.9116L13590.8775,-3496.9105L13590.9874,-3496.9014L13591.0589,-3496.8958L13591.0626,-3496.8956L13591.1089,-3496.8919L13591.1133,-3496.8916L13591.1865,-3496.8859"/>
<path content="1,京福バス（株）,京都・大阪線,1.0,1.0,1.0," xlink:title="1" d="M13590.4225,-3496.9482L13590.6672,-3496.9279L13590.8572,-3496.9122L13590.8639,-3496.9116L13590.8775,-3496.9105L13590.9874,-3496.9014L13591.0589,-3496.8958L13591.0626,-3496.8956L13591.1089,-3496.8919L13591.1133,-3496.8916L13591.1865,-3496.8859"/>
<path content="1,京都交通（株）,舞鶴・綾部・福知山～東京,1.0,1.0,1.0," xlink:title="1" d="M13591.1865,-3496.8859L13591.1133,-3496.8916L13591.1089,-3496.8919L13591.0626,-3496.8956L13591.0589,-3496.8958L13590.9874,-3496.9014L13590.8775,-3496.9105L13590.8639,-3496.9116L13590.8572,-3496.9122L13590.6672,-3496.9279L13590.4225,-3496.9482"/>
<path content="1,京阪バス（株）,京都⇔伊勢,2.0,2.0,2.0," xlink:title="1" d="M13591.1865,-3496.8859L13591.1133,-3496.8916L13591.1089,-3496.8919L13591.0626,-3496.8956L13591.0589,-3496.8958L13590.9874,-3496.9014L13590.8775,-3496.9105L13590.8639,-3496.9116L13590.8572,-3496.9122L13590.6672,-3496.9279L13590.4225,-3496.9482"/>
<path content="1,京阪バス（株）,京都⇔四日市,2.0,2.0,2.0," xlink:title="1" d="M13591.1865,-3496.8859L13591.1133,-3496.8916L13591.1089,-3496.8919L13591.0626,-3496.8956L13591.0589,-3496.8958L13590.9874,-3496.9014L13590.8775,-3496.9105L13590.8639,-3496.9116L13590.8572,-3496.9122L13590.6672,-3496.9279L13590.4225,-3496.9482"/>
<path content="1,京阪バス（株）,京都⇔金沢,1.0,1.0,1.0," xlink:title="1" d="M13590.4225,-3496.9482L13590.6672,-3496.9279L13590.8572,-3496.9122L13590.8639,-3496.9116L13590.8775,-3496.9105L13590.9874,-3496.9014L13591.0589,-3496.8958L13591.0626,-3496.8956L13591.1089,-3496.8919L13591.1133,-3496.8916L13591.1865,-3496.8859"/>
<path content="1,京阪バス（株）,京都・大津⇔上野・TDR・千葉,1.0,1.0,1.0," xlink:title="1" d="M13591.1865,-3496.8859L13591.1133,-3496.8916L13591.1089,-3496.8919L13591.0626,-3496.8956L13591.0589,-3496.8958L13590.9874,-3496.9014L13590.8775,-3496.9105L13590.8639,-3496.9116L13590.8572,-3496.9122L13590.6672,-3496.9279L13590.4225,-3496.9482"/>
<path content="1,京阪バス（株）,大津営業所1,46.0,42.0,37.0," xlink:title="1" d="M13590.3569,-3496.9482L13590.3591,-3496.9118L13590.3632,-3496.8531L13590.3707,-3496.7872L13590.3707,-3496.7776L13590.3694,-3496.7709L13590.3707,-3496.7545L13590.3773,-3496.7231L13590.3824,-3496.688L13590.3872,-3496.6796L13590.407,-3496.6446L13590.4234,-3496.6091L13590.4337,-3496.5731L13590.4405,-3496.5409L13590.4508,-3496.4846L13590.4665,-3496.4266L13590.4768,-3496.3967L13590.4829,-3496.382L13590.4884,-3496.3736L13590.5233,-3496.3386L13590.5671,-3496.3014L13590.6225,-3496.2575L13590.7309,-3496.1832L13590.8613,-3496.0946L13590.8784,-3496.0845L13590.9003,-3496.0608L13590.9154,-3496.0411L13590.9544,-3495.987L13590.9694,-3495.9549L13590.981,-3495.9143L13590.9913,-3495.8698L13590.994,-3495.854L13590.9942,-3495.8496"/>
<path content="1,京阪バス（株）,大津営業所11,1.5,0.0,0.0," xlink:title="1" d="M13590.3569,-3496.9482L13590.3591,-3496.9118L13590.3632,-3496.8531L13590.3707,-3496.7872L13590.3707,-3496.7776L13590.3694,-3496.7709L13590.3707,-3496.7545L13590.3773,-3496.7231L13590.3824,-3496.688L13590.3872,-3496.6796L13590.407,-3496.6446L13590.4234,-3496.6091L13590.4337,-3496.5731L13590.4405,-3496.5409L13590.4508,-3496.4846L13590.4665,-3496.4266L13590.4768,-3496.3967L13590.4829,-3496.382L13590.4884,-3496.3736L13590.5233,-3496.3386L13590.5671,-3496.3014L13590.6225,-3496.2575L13590.7309,-3496.1832L13590.8613,-3496.0946L13590.8784,-3496.0845L13590.9003,-3496.0608L13590.9154,-3496.0411L13590.9544,-3495.987L13590.9694,-3495.9549L13590.981,-3495.9143L13590.9913,-3495.8698L13590.994,-3495.854L13590.9942,-3495.8496"/>
<path content="1,京阪バス（株）,大津営業所14,29.7,72.0,58.0," xlink:title="1" d="M13590.3569,-3496.9482L13590.3591,-3496.9118L13590.3632,-3496.8531L13590.3707,-3496.7872L13590.3707,-3496.7776L13590.3694,-3496.7709L13590.3707,-3496.7545L13590.3773,-3496.7231L13590.3824,-3496.688L13590.3872,-3496.6796L13590.407,-3496.6446L13590.4234,-3496.6091L13590.4337,-3496.5731L13590.4405,-3496.5409L13590.4508,-3496.4846L13590.4665,-3496.4266L13590.4768,-3496.3967L13590.4829,-3496.382L13590.4884,-3496.3736L13590.5233,-3496.3386L13590.5671,-3496.3014L13590.6225,-3496.2575L13590.7309,-3496.1832L13590.8613,-3496.0946L13590.8784,-3496.0845L13590.9003,-3496.0608L13590.9154,-3496.0411L13590.9544,-3495.987L13590.9694,-3495.9549L13590.981,-3495.9143L13590.9913,-3495.8698L13590.994,-3495.854L13590.9942,-3495.8496"/>
<path content="1,京阪バス（株）,大津営業所2,33.0,37.0,31.0," xlink:title="1" d="M13590.3569,-3496.9482L13590.3591,-3496.9118L13590.3632,-3496.8531L13590.3707,-3496.7872L13590.3707,-3496.7776L13590.3694,-3496.7709L13590.3707,-3496.7545L13590.3773,-3496.7231L13590.3824,-3496.688L13590.3872,-3496.6796L13590.407,-3496.6446L13590.4234,-3496.6091L13590.4337,-3496.5731L13590.4405,-3496.5409L13590.4508,-3496.4846L13590.4665,-3496.4266L13590.4768,-3496.3967L13590.4829,-3496.382L13590.4884,-3496.3736L13590.5233,-3496.3386L13590.5671,-3496.3014L13590.6225,-3496.2575L13590.7309,-3496.1832L13590.8613,-3496.0946L13590.8784,-3496.0845L13590.9003,-3496.0608L13590.9154,-3496.0411L13590.9544,-3495.987L13590.9694,-3495.9549L13590.981,-3495.9143L13590.9913,-3495.8698L13590.994,-3495.854L13590.9942,-3495.8496"/>
<path content="1,京阪バス（株）,大津営業所4,57.0,68.0,57.3," xlink:title="1" d="M13590.3569,-3496.9482L13590.3591,-3496.9118L13590.3632,-3496.8531L13590.3707,-3496.7872L13590.3707,-3496.7776L13590.3694,-3496.7709L13590.3707,-3496.7545L13590.3773,-3496.7231L13590.3824,-3496.688L13590.3872,-3496.6796L13590.407,-3496.6446L13590.4234,-3496.6091L13590.4337,-3496.5731L13590.4405,-3496.5409L13590.4508,-3496.4846L13590.4665,-3496.4266L13590.4768,-3496.3967L13590.4829,-3496.382L13590.4884,-3496.3736L13590.5233,-3496.3386L13590.5671,-3496.3014L13590.6225,-3496.2575L13590.7309,-3496.1832L13590.8613,-3496.0946L13590.8784,-3496.0845L13590.9003,-3496.0608L13590.9154,-3496.0411L13590.9544,-3495.987L13590.9694,-3495.9549L13590.981,-3495.9143L13590.9913,-3495.8698L13590.994,-3495.854L13590.9942,-3495.8496"/>
<path content="1,京阪バス（株）,大津営業所50,1.0,1.0,0.0," xlink:title="1" d="M13590.3569,-3496.9482L13590.3591,-3496.9118L13590.3632,-3496.8531L13590.3707,-3496.7872L13590.3707,-3496.7776L13590.3694,-3496.7709L13590.3707,-3496.7545L13590.3773,-3496.7231L13590.3824,-3496.688L13590.3872,-3496.6796L13590.407,-3496.6446L13590.4234,-3496.6091L13590.4337,-3496.5731L13590.4405,-3496.5409L13590.4508,-3496.4846L13590.4665,-3496.4266L13590.4768,-3496.3967L13590.4829,-3496.382L13590.4884,-3496.3736L13590.5233,-3496.3386L13590.5671,-3496.3014L13590.6225,-3496.2575L13590.7309,-3496.1832L13590.8613,-3496.0946L13590.8784,-3496.0845L13590.9003,-3496.0608L13590.9154,-3496.0411L13590.9544,-3495.987L13590.9694,-3495.9549L13590.981,-3495.9143L13590.9913,-3495.8698L13590.994,-3495.854L13590.9942,-3495.8496"/>
<path content="1,京阪バス（株）,大津営業所52,14.7,16.0,14.3," xlink:title="1" d="M13590.3569,-3496.9482L13590.3591,-3496.9118L13590.3632,-3496.8531L13590.3707,-3496.7872L13590.3707,-3496.7776L13590.3694,-3496.7709L13590.3707,-3496.7545L13590.3773,-3496.7231L13590.3824,-3496.688L13590.3872,-3496.6796L13590.407,-3496.6446L13590.4234,-3496.6091L13590.4337,-3496.5731L13590.4405,-3496.5409L13590.4508,-3496.4846L13590.4665,-3496.4266L13590.4768,-3496.3967L13590.4829,-3496.382L13590.4884,-3496.3736L13590.5233,-3496.3386L13590.5671,-3496.3014L13590.6225,-3496.2575L13590.7309,-3496.1832L13590.8613,-3496.0946L13590.8784,-3496.0845L13590.9003,-3496.0608L13590.9154,-3496.0411L13590.9544,-3495.987L13590.9694,-3495.9549L13590.981,-3495.9143L13590.9913,-3495.8698L13590.994,-3495.854L13590.9942,-3495.8496"/>
<path content="1,京阪バス（株）,大津営業所53,4.0,4.0,4.0," xlink:title="1" d="M13590.3569,-3496.9482L13590.3591,-3496.9118L13590.3632,-3496.8531L13590.3707,-3496.7872L13590.3707,-3496.7776L13590.3694,-3496.7709L13590.3707,-3496.7545L13590.3773,-3496.7231L13590.3824,-3496.688L13590.3872,-3496.6796L13590.407,-3496.6446L13590.4234,-3496.6091L13590.4337,-3496.5731L13590.4405,-3496.5409L13590.4508,-3496.4846L13590.4665,-3496.4266L13590.4768,-3496.3967L13590.4829,-3496.382L13590.4884,-3496.3736L13590.5233,-3496.3386L13590.5671,-3496.3014L13590.6225,-3496.2575L13590.7309,-3496.1832L13590.8613,-3496.0946L13590.8784,-3496.0845L13590.9003,-3496.0608L13590.9154,-3496.0411L13590.9544,-3495.987L13590.9694,-3495.9549L13590.981,-3495.9143L13590.9913,-3495.8698L13590.994,-3495.854L13590.9942,-3495.8496"/>
<path content="1,京阪バス（株）,大津営業所54,10.3,22.0,19.0," xlink:title="1" d="M13590.3569,-3496.9482L13590.3591,-3496.9118L13590.3632,-3496.8531L13590.3707,-3496.7872L13590.3707,-3496.7776L13590.3694,-3496.7709L13590.3707,-3496.7545L13590.3773,-3496.7231L13590.3824,-3496.688L13590.3872,-3496.6796L13590.407,-3496.6446L13590.4234,-3496.6091L13590.4337,-3496.5731L13590.4405,-3496.5409L13590.4508,-3496.4846L13590.4665,-3496.4266L13590.4768,-3496.3967L13590.4829,-3496.382L13590.4884,-3496.3736L13590.5233,-3496.3386L13590.5671,-3496.3014L13590.6225,-3496.2575L13590.7309,-3496.1832L13590.8613,-3496.0946L13590.8784,-3496.0845L13590.9003,-3496.0608L13590.9154,-3496.0411L13590.9544,-3495.987L13590.9694,-3495.9549L13590.981,-3495.9143L13590.9913,-3495.8698L13590.994,-3495.854L13590.9942,-3495.8496"/>
<path content="1,京阪バス（株）,枚方・京都⇔渋谷・新宿,1.0,1.0,1.0," xlink:title="1" d="M13590.4225,-3496.9482L13590.6672,-3496.9279L13590.8572,-3496.9122L13590.8639,-3496.9116L13590.8775,-3496.9105L13590.9874,-3496.9014L13591.0589,-3496.8958L13591.0626,-3496.8956L13591.1089,-3496.8919L13591.1133,-3496.8916L13591.1865,-3496.8859"/>
<path content="1,伊予鉄道（株）,オレンジライナーえひめ　八幡浜・松山⇔名古屋,1.0,1.0,1.0," xlink:title="1" d="M13590.4225,-3496.9482L13590.6672,-3496.9279L13590.8572,-3496.9122L13590.8639,-3496.9116L13590.8775,-3496.9105L13590.9874,-3496.9014L13591.0589,-3496.8958L13591.0626,-3496.8956L13591.1089,-3496.8919L13591.1133,-3496.8916L13591.1865,-3496.8859"/>
<path content="1,伊予鉄道（株）,オレンジライナーえひめ　八幡浜・松山⇔東京,1.0,1.0,1.0," xlink:title="1" d="M13590.4225,-3496.9482L13590.6672,-3496.9279L13590.8572,-3496.9122L13590.8639,-3496.9116L13590.8775,-3496.9105L13590.9874,-3496.9014L13591.0589,-3496.8958L13591.0626,-3496.8956L13591.1089,-3496.8919L13591.1133,-3496.8916L13591.1865,-3496.8859"/>
<path content="1,伊那バス（株）,京都・大阪線,2.0,2.0,2.0," xlink:title="1" d="M13590.4225,-3496.9482L13590.6672,-3496.9279L13590.8572,-3496.9122L13590.8639,-3496.9116L13590.8775,-3496.9105L13590.9874,-3496.9014L13591.0589,-3496.8958L13591.0626,-3496.8956L13591.1089,-3496.8919L13591.1133,-3496.8916L13591.1865,-3496.8859"/>
<path content="1,信南交通（株）,大阪線,2.0,2.0,2.0," xlink:title="1" d="M13590.4225,-3496.9482L13590.6672,-3496.9279L13590.8572,-3496.9122L13590.8639,-3496.9116L13590.8775,-3496.9105L13590.9874,-3496.9014L13591.0589,-3496.8958L13591.0626,-3496.8956L13591.1089,-3496.8919L13591.1133,-3496.8916L13591.1865,-3496.8859"/>
<path content="1,北陸鉄道（株）,高速バス　金沢⇔大阪,2.0,2.0,2.0," xlink:title="1" d="M13591.1865,-3496.8859L13591.1133,-3496.8916L13591.1089,-3496.8919L13591.0626,-3496.8956L13591.0589,-3496.8958L13590.9874,-3496.9014L13590.8775,-3496.9105L13590.8639,-3496.9116L13590.8572,-3496.9122L13590.6672,-3496.9279L13590.4225,-3496.9482"/>
<path content="1,千曲バス（株）,軽井沢・佐久・小諸・上田～京都・大阪,1.0,1.0,1.0," xlink:title="1" d="M13590.4225,-3496.9482L13590.6672,-3496.9279L13590.8572,-3496.9122L13590.8639,-3496.9116L13590.8775,-3496.9105L13590.9874,-3496.9014L13591.0589,-3496.8958L13591.0626,-3496.8956L13591.1089,-3496.8919L13591.1133,-3496.8916L13591.1865,-3496.8859"/>
<path content="1,千葉中央バス,京都～上野・東京ディズニーリゾート,1.0,1.0,1.0," xlink:title="1" d="M13590.4225,-3496.9482L13590.6672,-3496.9279L13590.8572,-3496.9122L13590.8639,-3496.9116L13590.8775,-3496.9105L13590.9874,-3496.9014L13591.0589,-3496.8958L13591.0626,-3496.8956L13591.1089,-3496.8919L13591.1133,-3496.8916L13591.1865,-3496.8859"/>
<path content="1,千葉交通,大阪なんば・京都駅～成田・銚子線,1.0,1.0,1.0," xlink:title="1" d="M13590.4225,-3496.9482L13590.6672,-3496.9279L13590.8572,-3496.9122L13590.8639,-3496.9116L13590.8775,-3496.9105L13590.9874,-3496.9014L13591.0589,-3496.8958L13591.0626,-3496.8956L13591.1089,-3496.8919L13591.1133,-3496.8916L13591.1865,-3496.8859"/>
<path content="1,南海バス（株）,和歌山・和泉中央・堺東⇔新宿・東京,1.0,1.0,1.0," xlink:title="1" d="M13590.4225,-3496.9482L13590.6672,-3496.9279L13590.8572,-3496.9122L13590.8639,-3496.9116L13590.8775,-3496.9105L13590.9874,-3496.9014L13591.0589,-3496.8958L13591.0626,-3496.8956L13591.1089,-3496.8919L13591.1133,-3496.8916L13591.1865,-3496.8859"/>
<path content="1,南海バス（株）,堺・大阪（なんば）⇔新宿・東京,1.0,1.0,1.0," xlink:title="1" d="M13590.4225,-3496.9482L13590.6672,-3496.9279L13590.8572,-3496.9122L13590.8639,-3496.9116L13590.8775,-3496.9105L13590.9874,-3496.9014L13591.0589,-3496.8958L13591.0626,-3496.8956L13591.1089,-3496.8919L13591.1133,-3496.8916L13591.1865,-3496.8859"/>
<path content="1,南海バス（株）,堺・大阪（なんば）・京都⇔小田原・藤沢・鎌倉,1.0,1.0,1.0," xlink:title="1" d="M13591.1865,-3496.8859L13591.1133,-3496.8916L13591.1089,-3496.8919L13591.0626,-3496.8956L13591.0589,-3496.8958L13590.9874,-3496.9014L13590.8775,-3496.9105L13590.8639,-3496.9116L13590.8572,-3496.9122L13590.6672,-3496.9279L13590.4225,-3496.9482"/>
<path content="1,南海バス（株）,堺・大阪（なんば）・京都⇔柏崎・長岡・三条（新潟）,1.0,1.0,1.0," xlink:title="1" d="M13590.4225,-3496.9482L13590.6672,-3496.9279L13590.8572,-3496.9122L13590.8639,-3496.9116L13590.8775,-3496.9105L13590.9874,-3496.9014L13591.0589,-3496.8958L13591.0626,-3496.8956L13591.1089,-3496.8919L13591.1133,-3496.8916L13591.1865,-3496.8859"/>
<path content="1,南海バス（株）,大阪（なんば）・京都⇔秋葉原・成田空港・銚子,1.0,1.0,1.0," xlink:title="1" d="M13591.1865,-3496.8859L13591.1133,-3496.8916L13591.1089,-3496.8919L13591.0626,-3496.8956L13591.0589,-3496.8958L13590.9874,-3496.9014L13590.8775,-3496.9105L13590.8639,-3496.9116L13590.8572,-3496.9122L13590.6672,-3496.9279L13590.4225,-3496.9482"/>
<path content="1,南海バス（株）,大阪（なんば）・京都⇔長野・湯田中（志賀）,1.0,1.0,1.0," xlink:title="1" d="M13590.4225,-3496.9482L13590.6672,-3496.9279L13590.8572,-3496.9122L13590.8639,-3496.9116L13590.8775,-3496.9105L13590.9874,-3496.9014L13591.0589,-3496.8958L13591.0626,-3496.8956L13591.1089,-3496.8919L13591.1133,-3496.8916L13591.1865,-3496.8859"/>
<path content="1,南海バス（株）,神戸・大阪（なんば）・京都⇔立川・昭島・玉川上水（東京）,1.0,1.0,1.0," xlink:title="1" d="M13591.1865,-3496.8859L13591.1133,-3496.8916L13591.1089,-3496.8919L13591.0626,-3496.8956L13591.0589,-3496.8958L13590.9874,-3496.9014L13590.8775,-3496.9105L13590.8639,-3496.9116L13590.8572,-3496.9122L13590.6672,-3496.9279L13590.4225,-3496.9482"/>
<path content="1,名鉄バス（株）,名古屋～京都_01_on,16.0,16.0,16.0," xlink:title="1" d="M13591.1865,-3496.8859L13591.1133,-3496.8916L13591.1089,-3496.8919L13591.0626,-3496.8956L13591.0589,-3496.8958L13590.9874,-3496.9014L13590.8775,-3496.9105L13590.8639,-3496.9116L13590.8572,-3496.9122L13590.6672,-3496.9279L13590.4225,-3496.9482"/>
<path content="1,名鉄バス（株）,名古屋～京都_02_on,16.0,16.0,16.0," xlink:title="1" d="M13591.1865,-3496.8859L13591.1133,-3496.8916L13591.1089,-3496.8919L13591.0626,-3496.8956L13591.0589,-3496.8958L13590.9874,-3496.9014L13590.8775,-3496.9105L13590.8639,-3496.9116L13590.8572,-3496.9122L13590.6672,-3496.9279L13590.4225,-3496.9482"/>
<path content="1,名鉄バス（株）,名古屋～徳島,0.5,2.0,2.0," xlink:title="1" d="M13591.1865,-3496.8859L13591.1133,-3496.8916L13591.1089,-3496.8919L13591.0626,-3496.8956L13591.0589,-3496.8958L13590.9874,-3496.9014L13590.8775,-3496.9105L13590.8639,-3496.9116L13590.8572,-3496.9122L13590.6672,-3496.9279L13590.4225,-3496.9482"/>
<path content="1,名鉄バス（株）,名古屋～松山,1.0,1.0,1.0," xlink:title="1" d="M13590.4225,-3496.9482L13590.6672,-3496.9279L13590.8572,-3496.9122L13590.8639,-3496.9116L13590.8775,-3496.9105L13590.9874,-3496.9014L13591.0589,-3496.8958L13591.0626,-3496.8956L13591.1089,-3496.8919L13591.1133,-3496.8916L13591.1865,-3496.8859"/>
<path content="1,名鉄バス（株）,名古屋～熊本,1.0,1.0,1.0," xlink:title="1" d="M13591.1865,-3496.8859L13591.1133,-3496.8916L13591.1089,-3496.8919L13591.0626,-3496.8956L13591.0589,-3496.8958L13590.9874,-3496.9014L13590.8775,-3496.9105L13590.8639,-3496.9116L13590.8572,-3496.9122L13590.6672,-3496.9279L13590.4225,-3496.9482"/>
<path content="1,名鉄バス（株）,名古屋～福岡,1.0,1.0,1.0," xlink:title="1" d="M13590.4225,-3496.9482L13590.6672,-3496.9279L13590.8572,-3496.9122L13590.8639,-3496.9116L13590.8775,-3496.9105L13590.9874,-3496.9014L13591.0589,-3496.8958L13591.0626,-3496.8956L13591.1089,-3496.8919L13591.1133,-3496.8916L13591.1865,-3496.8859"/>
<path content="1,名鉄バス（株）,名古屋～長崎,1.0,1.0,1.0," xlink:title="1" d="M13591.1865,-3496.8859L13591.1133,-3496.8916L13591.1089,-3496.8919L13591.0626,-3496.8956L13591.0589,-3496.8958L13590.9874,-3496.9014L13590.8775,-3496.9105L13590.8639,-3496.9116L13590.8572,-3496.9122L13590.6672,-3496.9279L13590.4225,-3496.9482"/>
<path content="1,名鉄バス（株）,名古屋～高松,2.0,2.0,2.0," xlink:title="1" d="M13590.4225,-3496.9482L13590.6672,-3496.9279L13590.8572,-3496.9122L13590.8639,-3496.9116L13590.8775,-3496.9105L13590.9874,-3496.9014L13591.0589,-3496.8958L13591.0626,-3496.8956L13591.1089,-3496.8919L13591.1133,-3496.8916L13591.1865,-3496.8859"/>
<path content="1,名阪近鉄バス（株）,名古屋～京都_01_on,29.0,29.0,29.0," xlink:title="1" d="M13591.1865,-3496.8859L13591.1133,-3496.8916L13591.1089,-3496.8919L13591.0626,-3496.8956L13591.0589,-3496.8958L13590.9874,-3496.9014L13590.8775,-3496.9105L13590.8639,-3496.9116L13590.8572,-3496.9122L13590.6672,-3496.9279L13590.4225,-3496.9482"/>
<path content="1,名阪近鉄バス（株）,名古屋～京都_02_on,29.0,29.0,29.0," xlink:title="1" d="M13590.4225,-3496.9482L13590.6672,-3496.9279L13590.8572,-3496.9122L13590.8639,-3496.9116L13590.8775,-3496.9105L13590.9874,-3496.9014L13591.0589,-3496.8958L13591.0626,-3496.8956L13591.1089,-3496.8919L13591.1133,-3496.8916L13591.1865,-3496.8859"/>
<path content="1,名阪近鉄バス（株）,名古屋～大阪,29.0,29.0,29.0," xlink:title="1" d="M13590.4225,-3496.9482L13590.6672,-3496.9279L13590.8572,-3496.9122L13590.8639,-3496.9116L13590.8775,-3496.9105L13590.9874,-3496.9014L13591.0589,-3496.8958L13591.0626,-3496.8956L13591.1089,-3496.8919L13591.1133,-3496.8916L13591.1865,-3496.8859"/>
<path content="1,和歌山バス（株）,サウスウエーブ号和歌山・堺⇔横浜・上野・東京ディズニーリゾート・海浜幕張,1.0,1.0,1.0," xlink:title="1" d="M13590.4225,-3496.9482L13590.6672,-3496.9279L13590.8572,-3496.9122L13590.8639,-3496.9116L13590.8775,-3496.9105L13590.9874,-3496.9014L13591.0589,-3496.8958L13591.0626,-3496.8956L13591.1089,-3496.8919L13591.1133,-3496.8916L13591.1865,-3496.8859"/>
<path content="1,四国高速バス（株）,さぬきエクスプレス名古屋　善通寺・坂出⇔名古屋,1.0,1.0,1.0," xlink:title="1" d="M13590.4225,-3496.9482L13590.6672,-3496.9279L13590.8572,-3496.9122L13590.8639,-3496.9116L13590.8775,-3496.9105L13590.9874,-3496.9014L13591.0589,-3496.8958L13591.0626,-3496.8956L13591.1089,-3496.8919L13591.1133,-3496.8916L13591.1865,-3496.8859"/>
<path content="1,四国高速バス（株）,ハローブリッジ号　善通寺・坂出⇔横浜・新宿・八王子,1.0,1.0,1.0," xlink:title="1" d="M13591.1865,-3496.8859L13591.1133,-3496.8916L13591.1089,-3496.8919L13591.0626,-3496.8956L13591.0589,-3496.8958L13590.9874,-3496.9014L13590.8775,-3496.9105L13590.8639,-3496.9116L13590.8572,-3496.9122L13590.6672,-3496.9279L13590.4225,-3496.9482"/>
<path content="1,国際十王交通（株）,京都・大阪線,1.0,1.0,1.0," xlink:title="1" d="M13591.1865,-3496.8859L13591.1133,-3496.8916L13591.1089,-3496.8919L13591.0626,-3496.8956L13591.0589,-3496.8958L13590.9874,-3496.9014L13590.8775,-3496.9105L13590.8639,-3496.9116L13590.8572,-3496.9122L13590.6672,-3496.9279L13590.4225,-3496.9482"/>
<path content="1,土佐電気鉄道（株）,ドラゴンライナー　高知⇔名古屋線,1.0,1.0,1.0," xlink:title="1" d="M13590.4225,-3496.9482L13590.6672,-3496.9279L13590.8572,-3496.9122L13590.8639,-3496.9116L13590.8775,-3496.9105L13590.9874,-3496.9014L13591.0589,-3496.8958L13591.0626,-3496.8956L13591.1089,-3496.8919L13591.1133,-3496.8916L13591.1865,-3496.8859"/>
<path content="1,土佐電気鉄道（株）,ブルーメッツ号　高知⇔東京線,1.0,1.0,1.0," xlink:title="1" d="M13590.4225,-3496.9482L13590.6672,-3496.9279L13590.8572,-3496.9122L13590.8639,-3496.9116L13590.8775,-3496.9105L13590.9874,-3496.9014L13591.0589,-3496.8958L13591.0626,-3496.8956L13591.1089,-3496.8919L13591.1133,-3496.8916L13591.1865,-3496.8859"/>
<path content="1,大分バス（株）,大分⇔名古屋,1.0,1.0,1.0," xlink:title="1" d="M13590.4225,-3496.9482L13590.6671,-3496.9279L13590.8572,-3496.9122L13590.8639,-3496.9116L13590.8775,-3496.9105L13590.9874,-3496.9014L13591.0589,-3496.8958L13591.0626,-3496.8956L13591.1089,-3496.8919L13591.1133,-3496.8916L13591.1865,-3496.8859"/>
<path content="1,大分交通（株）,大分⇔名古屋,1.0,1.0,1.0," xlink:title="1" d="M13590.4225,-3496.9482L13590.6671,-3496.9279L13590.8572,-3496.9122L13590.8639,-3496.9116L13590.8774,-3496.9105L13590.9874,-3496.9014L13591.0589,-3496.8958L13591.0626,-3496.8956L13591.1089,-3496.8919L13591.1133,-3496.8916L13591.1865,-3496.8859"/>
<path content="1,宇和島自動車（株）,宇和島・松山⇔横浜・池袋・大宮,1.0,1.0,1.0," xlink:title="1" d="M13590.4225,-3496.9482L13590.6672,-3496.9279L13590.8572,-3496.9122L13590.8639,-3496.9116L13590.8775,-3496.9105L13590.9874,-3496.9014L13591.0589,-3496.8958L13591.0626,-3496.8956L13591.1089,-3496.8919L13591.1133,-3496.8916L13591.1865,-3496.8859"/>
<path content="1,宮城交通（株）,仙台～大阪線,1.0,1.0,1.0," xlink:title="1" d="M13591.1865,-3496.8859L13591.1133,-3496.8916L13591.1089,-3496.8919L13591.0626,-3496.8956L13591.0589,-3496.8958L13590.9874,-3496.9014L13590.8775,-3496.9105L13590.8639,-3496.9116L13590.8572,-3496.9122L13590.6672,-3496.9279L13590.4225,-3496.9482"/>
<path content="1,富士急山梨バス（株）,FUJIYAMAライナー,1.0,1.0,1.0," xlink:title="1" d="M13590.4225,-3496.9482L13590.6672,-3496.9279L13590.8572,-3496.9122L13590.8639,-3496.9116L13590.8775,-3496.9105L13590.9874,-3496.9014L13591.0589,-3496.8958L13591.0626,-3496.8956L13591.1089,-3496.8919L13591.1133,-3496.8916L13591.1865,-3496.8859"/>
<path content="1,富士急湘南バス（株）,小田原・新松田・沼津～大坂・京都線,1.0,1.0,1.0," xlink:title="1" d="M13591.1865,-3496.8859L13591.1133,-3496.8916L13591.1089,-3496.8919L13591.0626,-3496.8956L13591.0589,-3496.8958L13590.9874,-3496.9014L13590.8775,-3496.9105L13590.8639,-3496.9116L13590.8572,-3496.9122L13590.6672,-3496.9279L13590.4225,-3496.9482"/>
<path content="1,富士急行（株）,FUJIYAMAライナー,1.0,1.0,1.0," xlink:title="1" d="M13590.4225,-3496.9482L13590.6672,-3496.9279L13590.8572,-3496.9122L13590.8639,-3496.9116L13590.8775,-3496.9105L13590.9874,-3496.9014L13591.0589,-3496.8958L13591.0626,-3496.8956L13591.1089,-3496.8919L13591.1133,-3496.8916L13591.1865,-3496.8859"/>
<path content="1,富士急行（株）,小田原・新松田・沼津～大阪・京都線,1.0,1.0,1.0," xlink:title="1" d="M13591.1865,-3496.8859L13591.1133,-3496.8916L13591.1089,-3496.8919L13591.0626,-3496.8956L13591.0589,-3496.8958L13590.9874,-3496.9014L13590.8775,-3496.9105L13590.8639,-3496.9116L13590.8572,-3496.9122L13590.6672,-3496.9279L13590.4225,-3496.9482"/>
<path content="1,富山地方鉄道（株）,京都・大阪（高速バス）,4.0,4.0,4.0," xlink:title="1" d="M13590.4225,-3496.9482L13590.6672,-3496.9279L13590.8572,-3496.9122L13590.8639,-3496.9116L13590.8775,-3496.9105L13590.9874,-3496.9014L13591.0589,-3496.8958L13591.0626,-3496.8956L13591.1089,-3496.8919L13591.1133,-3496.8916L13591.1865,-3496.8859"/>
<path content="1,小田急シティバス（株）,しまんとエクスプレス号,0.1,0.1,0.1," xlink:title="1" d="M13590.4225,-3496.9482L13590.6672,-3496.9279L13590.8572,-3496.9122L13590.8639,-3496.9116L13590.8775,-3496.9105L13590.9874,-3496.9014L13591.0589,-3496.8958L13591.0626,-3496.8956L13591.1089,-3496.8919L13591.1133,-3496.8916L13591.1865,-3496.8859"/>
<path content="1,小田急シティバス（株）,エトワールセト号,1.0,1.0,1.0," xlink:title="1" d="M13590.4225,-3496.9482L13590.6672,-3496.9279L13590.8572,-3496.9122L13590.8639,-3496.9116L13590.8775,-3496.9105L13590.9874,-3496.9014L13591.0589,-3496.8958L13591.0626,-3496.8956L13591.1089,-3496.8919L13591.1133,-3496.8916L13591.1865,-3496.8859"/>
<path content="1,小田急シティバス（株）,ニューブリーズ号,2.0,2.0,2.0," xlink:title="1" d="M13590.4225,-3496.9482L13590.6672,-3496.9279L13590.8572,-3496.9122L13590.8639,-3496.9116L13590.8775,-3496.9105L13590.9874,-3496.9014L13591.0589,-3496.8958L13591.0626,-3496.8956L13591.1089,-3496.8919L13591.1133,-3496.8916L13591.1865,-3496.8859"/>
<path content="1,小田急シティバス（株）,ブルーメッツ号,1.0,1.0,1.0," xlink:title="1" d="M13590.4225,-3496.9482L13590.6672,-3496.9279L13590.8572,-3496.9122L13590.8639,-3496.9116L13590.8775,-3496.9105L13590.9874,-3496.9014L13591.0589,-3496.8958L13591.0626,-3496.8956L13591.1089,-3496.8919L13591.1133,-3496.8916L13591.1865,-3496.8859"/>
<path content="1,小田急シティバス（株）,ルミナス号,1.0,1.0,1.0," xlink:title="1" d="M13591.1865,-3496.8859L13591.1133,-3496.8916L13591.1089,-3496.8919L13591.0626,-3496.8956L13591.0589,-3496.8958L13590.9874,-3496.9014L13590.8775,-3496.9105L13590.8639,-3496.9116L13590.8572,-3496.9122L13590.6672,-3496.9279L13590.4225,-3496.9482"/>
<path content="1,小田急バス（株）,しまんとエクスプレス号,1.0,1.0,1.0," xlink:title="1" d="M13590.4225,-3496.9482L13590.6672,-3496.9279L13590.8572,-3496.9122L13590.8639,-3496.9116L13590.8775,-3496.9105L13590.9874,-3496.9014L13591.0589,-3496.8958L13591.0626,-3496.8956L13591.1089,-3496.8919L13591.1133,-3496.8916L13591.1865,-3496.8859"/>
<path content="1,小田急バス（株）,エトワールセト号,1.0,1.0,1.0," xlink:title="1" d="M13590.4225,-3496.9482L13590.6672,-3496.9279L13590.8572,-3496.9122L13590.8639,-3496.9116L13590.8775,-3496.9105L13590.9874,-3496.9014L13591.0589,-3496.8958L13591.0626,-3496.8956L13591.1089,-3496.8919L13591.1133,-3496.8916L13591.1865,-3496.8859"/>
<path content="1,小田急バス（株）,ニューブリーズ号,2.0,2.0,2.0," xlink:title="1" d="M13590.4225,-3496.9482L13590.6672,-3496.9279L13590.8572,-3496.9122L13590.8639,-3496.9116L13590.8775,-3496.9105L13590.9874,-3496.9014L13591.0589,-3496.8958L13591.0626,-3496.8956L13591.1089,-3496.8919L13591.1133,-3496.8916L13591.1865,-3496.8859"/>
<path content="1,小田急バス（株）,ブルーメッツ号,1.0,1.0,1.0," xlink:title="1" d="M13590.4225,-3496.9482L13590.6672,-3496.9279L13590.8572,-3496.9122L13590.8639,-3496.9116L13590.8775,-3496.9105L13590.9874,-3496.9014L13591.0589,-3496.8958L13591.0626,-3496.8956L13591.1089,-3496.8919L13591.1133,-3496.8916L13591.1865,-3496.8859"/>
<path content="1,小田急バス（株）,ルミナス号,1.0,1.0,1.0," xlink:title="1" d="M13591.1865,-3496.8859L13591.1133,-3496.8916L13591.1089,-3496.8919L13591.0626,-3496.8956L13591.0589,-3496.8958L13590.9874,-3496.9014L13590.8775,-3496.9105L13590.8639,-3496.9116L13590.8572,-3496.9122L13590.6672,-3496.9279L13590.4225,-3496.9482"/>
<path content="1,山交バス（株）,アルカディア号,1.0,1.0,1.0," xlink:title="1" d="M13590.4225,-3496.9482L13590.6672,-3496.9279L13590.8572,-3496.9122L13590.8639,-3496.9116L13590.8775,-3496.9105L13590.9874,-3496.9014L13591.0589,-3496.8958L13591.0626,-3496.8956L13591.1089,-3496.8919L13591.1133,-3496.8916L13591.1865,-3496.8859"/>
<path content="1,山梨交通（株）,甲府～京都・大阪線,2.0,2.0,2.0," xlink:title="1" d="M13590.4225,-3496.9482L13590.6672,-3496.9279L13590.8572,-3496.9122L13590.8639,-3496.9116L13590.8775,-3496.9105L13590.9874,-3496.9014L13591.0589,-3496.8958L13591.0626,-3496.8956L13591.1089,-3496.8919L13591.1133,-3496.8916L13591.1865,-3496.8859"/>
<path content="1,山陽電気鉄道（株）,レッツ号　神戸・大阪・京都～東京（立川）線,1.0,1.0,1.0," xlink:title="1" d="M13590.4225,-3496.9482L13590.6672,-3496.9279L13590.8572,-3496.9122L13590.8639,-3496.9116L13590.8775,-3496.9105L13590.9874,-3496.9014L13591.0589,-3496.8958L13591.0626,-3496.8956L13591.1089,-3496.8919L13591.1133,-3496.8916L13591.1865,-3496.8859"/>
<path content="1,岐阜バス観光（株）,高速京都線_01_on,2.0,2.0,2.0," xlink:title="1" d="M13590.4225,-3496.9482L13590.6672,-3496.9279L13590.8572,-3496.9122L13590.8639,-3496.9116L13590.8775,-3496.9105L13590.9874,-3496.9014L13591.0589,-3496.8958L13591.0626,-3496.8956L13591.1089,-3496.8919L13591.1133,-3496.8916L13591.1865,-3496.8859"/>
<path content="1,岐阜バス観光（株）,高速京都線_02_on,1.0,1.0,1.0," xlink:title="1" d="M13590.4225,-3496.9482L13590.6672,-3496.9279L13590.8572,-3496.9122L13590.8639,-3496.9116L13590.8775,-3496.9105L13590.9874,-3496.9014L13591.0589,-3496.8958L13591.0626,-3496.8956L13591.1089,-3496.8919L13591.1133,-3496.8916L13591.1865,-3496.8859"/>
<path content="1,川中島バス（株）,特急長野～京都・大阪線,2.0,2.0,2.0," xlink:title="1" d="M13590.4225,-3496.9482L13590.6672,-3496.9279L13590.8572,-3496.9122L13590.8639,-3496.9116L13590.8775,-3496.9105L13590.9874,-3496.9014L13591.0589,-3496.8958L13591.0626,-3496.8956L13591.1089,-3496.8919L13591.1133,-3496.8916L13591.1865,-3496.8859"/>
<path content="1,帝産湖南交通（株）,ミホミュージアム線,6.0,7.0,7.0," xlink:title="1" d="M13590.6553,-3496.9482L13590.6552,-3496.9057L13590.6512,-3496.8684L13590.6487,-3496.818L13590.6485,-3496.8035L13590.6458,-3496.7607L13590.6458,-3496.7574L13590.6465,-3496.6762L13590.6499,-3496.6457L13590.654,-3496.6294L13590.6581,-3496.608L13590.6663,-3496.5798L13590.6766,-3496.5499L13590.6944,-3496.5088L13590.7074,-3496.4846L13590.7327,-3496.448L13590.7491,-3496.4277L13590.7709,-3496.4065L13590.7963,-3496.3741L13590.8442,-3496.3257L13590.9092,-3496.2598L13590.9366,-3496.2299L13590.9475,-3496.2169L13591.0062,-3496.1464L13591.0125,-3496.1394L13591.0344,-3496.1082L13591.0446,-3496.0946L13591.0823,-3496.0315L13591.0932,-3496.0084L13591.1028,-3495.9819L13591.1124,-3495.9493L13591.1213,-3495.9104L13591.1265,-3495.8913L13591.1295,-3495.8568L13591.1303,-3495.8496"/>
<path content="1,帝産湖南交通（株）,石山・田上車庫（太子）,20.0,18.0,18.0," xlink:title="1" d="M13590.6553,-3496.9482L13590.6552,-3496.9057L13590.6512,-3496.8684L13590.6487,-3496.818L13590.6485,-3496.8035L13590.6458,-3496.7607L13590.6458,-3496.7574L13590.6465,-3496.6762L13590.6499,-3496.6457L13590.654,-3496.6294L13590.6581,-3496.608L13590.6663,-3496.5798L13590.6766,-3496.5499L13590.6944,-3496.5088L13590.7074,-3496.4846L13590.7327,-3496.448L13590.7491,-3496.4277L13590.7709,-3496.4065L13590.7963,-3496.3741L13590.8442,-3496.3257L13590.9092,-3496.2598L13590.9366,-3496.2299L13590.9475,-3496.2169L13591.0062,-3496.1464L13591.0125,-3496.1394L13591.0344,-3496.1082L13591.0446,-3496.0946L13591.0823,-3496.0315L13591.0932,-3496.0084L13591.1028,-3495.9819L13591.1124,-3495.9493L13591.1213,-3495.9104L13591.1265,-3495.8913L13591.1295,-3495.8568L13591.1303,-3495.8496"/>
<path content="1,帝産湖南交通（株）,石山・田上車庫（石居町）,13.5,10.5,10.5," xlink:title="1" d="M13590.6553,-3496.9482L13590.6552,-3496.9057L13590.6512,-3496.8684L13590.6487,-3496.818L13590.6485,-3496.8035L13590.6458,-3496.7607L13590.6458,-3496.7574L13590.6465,-3496.6762L13590.6499,-3496.6457L13590.654,-3496.6294L13590.6581,-3496.608L13590.6663,-3496.5798L13590.6766,-3496.5499L13590.6944,-3496.5088L13590.7074,-3496.4846L13590.7327,-3496.448L13590.7491,-3496.4277L13590.7709,-3496.4065L13590.7963,-3496.3741L13590.8442,-3496.3257L13590.9092,-3496.2598L13590.9366,-3496.2299L13590.9475,-3496.2169L13591.0062,-3496.1464L13591.0125,-3496.1394L13591.0344,-3496.1082L13591.0446,-3496.0946L13591.0823,-3496.0315L13591.0932,-3496.0084L13591.1028,-3495.9819L13591.1124,-3495.9493L13591.1213,-3495.9104L13591.1265,-3495.8913L13591.1295,-3495.8568L13591.1303,-3495.8496"/>
<path content="1,帝産湖南交通（株）,石山・田上車庫（里）,5.0,0.0,0.0," xlink:title="1" d="M13590.6553,-3496.9482L13590.6552,-3496.9057L13590.6512,-3496.8684L13590.6487,-3496.818L13590.6485,-3496.8035L13590.6458,-3496.7607L13590.6458,-3496.7574L13590.6465,-3496.6762L13590.6499,-3496.6457L13590.654,-3496.6294L13590.6581,-3496.608L13590.6663,-3496.5798L13590.6766,-3496.5499L13590.6944,-3496.5088L13590.7074,-3496.4846L13590.7327,-3496.448L13590.7491,-3496.4277L13590.7709,-3496.4065L13590.7963,-3496.3741L13590.8442,-3496.3257L13590.9092,-3496.2598L13590.9366,-3496.2299L13590.9475,-3496.2169L13591.0062,-3496.1464L13591.0125,-3496.1394L13591.0344,-3496.1082L13591.0446,-3496.0946L13591.0823,-3496.0315L13591.0932,-3496.0084L13591.1028,-3495.9819L13591.1124,-3495.9493L13591.1213,-3495.9104L13591.1265,-3495.8913L13591.1295,-3495.8568L13591.1303,-3495.8496"/>
<path content="1,帝産湖南交通（株）,石山・登山口,19.5,16.0,16.0," xlink:title="1" d="M13590.6553,-3496.9482L13590.6552,-3496.9057L13590.6512,-3496.8684L13590.6487,-3496.818L13590.6485,-3496.8035L13590.6458,-3496.7607L13590.6458,-3496.7574L13590.6465,-3496.6762L13590.6499,-3496.6457L13590.654,-3496.6294L13590.6581,-3496.608L13590.6663,-3496.5798L13590.6766,-3496.5499L13590.6944,-3496.5088L13590.7074,-3496.4846L13590.7327,-3496.448L13590.7491,-3496.4277L13590.7709,-3496.4065L13590.7963,-3496.3741L13590.8442,-3496.3257L13590.9092,-3496.2598L13590.9366,-3496.2299L13590.9475,-3496.2169L13591.0062,-3496.1464L13591.0125,-3496.1394L13591.0344,-3496.1082L13591.0446,-3496.0946L13591.0823,-3496.0315L13591.0932,-3496.0084L13591.1028,-3495.9819L13591.1124,-3495.9493L13591.1213,-3495.9104L13591.1265,-3495.8913L13591.1295,-3495.8568L13591.1303,-3495.8496"/>
<path content="1,帝産湖南交通（株）,石山・登山口（もみじ）,16.5,15.0,15.0," xlink:title="1" d="M13590.6553,-3496.9482L13590.6552,-3496.9057L13590.6512,-3496.8684L13590.6487,-3496.818L13590.6485,-3496.8035L13590.6458,-3496.7607L13590.6458,-3496.7574L13590.6465,-3496.6762L13590.6499,-3496.6457L13590.654,-3496.6294L13590.6581,-3496.608L13590.6663,-3496.5798L13590.6766,-3496.5499L13590.6944,-3496.5088L13590.7074,-3496.4846L13590.7327,-3496.448L13590.7491,-3496.4277L13590.7709,-3496.4065L13590.7963,-3496.3741L13590.8442,-3496.3257L13590.9092,-3496.2598L13590.9366,-3496.2299L13590.9475,-3496.2169L13591.0062,-3496.1464L13591.0125,-3496.1394L13591.0344,-3496.1082L13591.0446,-3496.0946L13591.0823,-3496.0315L13591.0932,-3496.0084L13591.1028,-3495.9819L13591.1124,-3495.9493L13591.1213,-3495.9104L13591.1265,-3495.8913L13591.1295,-3495.8568L13591.1303,-3495.8496"/>
<path content="1,徳島バス（株）,徳島⇔名古屋,2.0,2.0,2.0," xlink:title="1" d="M13591.1865,-3496.8859L13591.1133,-3496.8916L13591.1089,-3496.8919L13591.0626,-3496.8956L13591.0589,-3496.8958L13590.9874,-3496.9014L13590.8775,-3496.9105L13590.8639,-3496.9116L13590.8572,-3496.9122L13590.6672,-3496.9279L13590.4225,-3496.9482"/>
<path content="1,徳島バス（株）,徳島⇔東京,2.0,2.0,2.0," xlink:title="1" d="M13590.4225,-3496.9482L13590.6672,-3496.9279L13590.8572,-3496.9122L13590.8639,-3496.9116L13590.8775,-3496.9105L13590.9874,-3496.9014L13591.0589,-3496.8958L13591.0626,-3496.8956L13591.1089,-3496.8919L13591.1133,-3496.8916L13591.1865,-3496.8859"/>
<path content="1,成田空港交通,和歌山線,1.0,1.0,1.0," xlink:title="1" d="M13590.4225,-3496.9482L13590.6672,-3496.9279L13590.8572,-3496.9122L13590.8639,-3496.9116L13590.8775,-3496.9105L13590.9874,-3496.9014L13591.0589,-3496.8958L13591.0626,-3496.8956L13591.1089,-3496.8919L13591.1133,-3496.8916L13591.1865,-3496.8859"/>
<path content="1,新常磐交通（株）,シーガル号,1.0,1.0,1.0," xlink:title="1" d="M13590.4225,-3496.9482L13590.6672,-3496.9278L13590.8571,-3496.9122L13590.864,-3496.9118L13590.8777,-3496.9107L13590.9876,-3496.9015L13591.0589,-3496.8958L13591.0627,-3496.8958L13591.1089,-3496.892L13591.1135,-3496.8916L13591.1865,-3496.8859"/>
<path content="1,新潟交通（株）・阪急バス（株）,京都・大阪高速バス,1.0,1.0,1.0," xlink:title="1" d="M13590.4225,-3496.9482L13590.6672,-3496.9279L13590.8572,-3496.9122L13590.8639,-3496.9116L13590.8775,-3496.9105L13590.9874,-3496.9014L13591.0589,-3496.8958L13591.0626,-3496.8956L13591.1089,-3496.8919L13591.1133,-3496.8916L13591.1865,-3496.8859"/>
<path content="1,日ノ丸自動車（株）,東京‐米子線,1.0,1.0,1.0," xlink:title="1" d="M13590.4225,-3496.9482L13590.6672,-3496.9279L13590.8572,-3496.9122L13590.8639,-3496.9116L13590.8775,-3496.9105L13590.9874,-3496.9014L13591.0589,-3496.8958L13591.0626,-3496.8956L13591.1089,-3496.8919L13591.1133,-3496.8916L13591.1865,-3496.8859"/>
<path content="1,日ノ丸自動車（株）,東京‐鳥取・倉吉線,1.0,1.0,1.0," xlink:title="1" d="M13590.4225,-3496.9482L13590.6672,-3496.9279L13590.8572,-3496.9122L13590.8639,-3496.9116L13590.8775,-3496.9105L13590.9874,-3496.9014L13591.0589,-3496.8958L13591.0626,-3496.8956L13591.1089,-3496.8919L13591.1133,-3496.8916L13591.1865,-3496.8859"/>
<path content="1,日本中央バス（株）,シルクライナー,5.0,5.0,5.0," xlink:title="1" d="M13590.4225,-3496.9482L13590.6672,-3496.9279L13590.8572,-3496.9122L13590.8639,-3496.9116L13590.8775,-3496.9105L13590.9874,-3496.9014L13591.0589,-3496.8958L13591.0626,-3496.8956L13591.1089,-3496.8919L13591.1133,-3496.8916L13591.1865,-3496.8859"/>
<path content="1,日本交通（株）,米子～東京線,1.0,1.0,1.0," xlink:title="1" d="M13590.4225,-3496.9482L13590.6672,-3496.9279L13590.8572,-3496.9122L13590.8639,-3496.9116L13590.8775,-3496.9105L13590.9874,-3496.9014L13591.0589,-3496.8958L13591.0626,-3496.8956L13591.1089,-3496.8919L13591.1133,-3496.8916L13591.1865,-3496.8859"/>
<path content="1,日本交通（株）,鳥取・倉吉～東京線,1.0,1.0,1.0," xlink:title="1" d="M13590.4225,-3496.9482L13590.6672,-3496.9279L13590.8572,-3496.9122L13590.8639,-3496.9116L13590.8775,-3496.9105L13590.9874,-3496.9014L13591.0589,-3496.8958L13591.0626,-3496.8956L13591.1089,-3496.8919L13591.1133,-3496.8916L13591.1865,-3496.8859"/>
<path content="1,東北急行バス（株）,ままかりライナー,1.0,1.0,1.0," xlink:title="1" d="M13590.4225,-3496.9482L13590.6672,-3496.9279L13590.8572,-3496.9122L13590.8639,-3496.9116L13590.8775,-3496.9105L13590.9874,-3496.9014L13591.0589,-3496.8958L13591.0626,-3496.8956L13591.1089,-3496.8919L13591.1133,-3496.8916L13591.1865,-3496.8859"/>
<path content="1,東北急行バス（株）,フライングスニーカー京都・茨木号,1.0,1.0,1.0," xlink:title="1" d="M13591.1865,-3496.8859L13591.1133,-3496.8916L13591.1089,-3496.8919L13591.0626,-3496.8956L13591.0589,-3496.8958L13590.9874,-3496.9014L13590.8775,-3496.9105L13590.8639,-3496.9116L13590.8572,-3496.9122L13590.6672,-3496.9279L13590.4225,-3496.9482"/>
<path content="1,東北急行バス（株）,フライングスニーカー大坂号,1.0,1.0,1.0," xlink:title="1" d="M13591.1865,-3496.8859L13591.1133,-3496.8916L13591.1089,-3496.8919L13591.0626,-3496.8956L13591.0589,-3496.8958L13590.9874,-3496.9014L13590.8775,-3496.9105L13590.8639,-3496.9116L13590.8572,-3496.9122L13590.6672,-3496.9279L13590.4225,-3496.9482"/>
<path content="1,東北急行バス（株）,フライングライナー号,1.0,1.0,1.0," xlink:title="1" d="M13591.1865,-3496.8859L13591.1133,-3496.8916L13591.1089,-3496.8919L13591.0626,-3496.8956L13591.0589,-3496.8958L13590.9874,-3496.9014L13590.8775,-3496.9105L13590.8639,-3496.9116L13590.8572,-3496.9122L13590.6672,-3496.9279L13590.4225,-3496.9482"/>
<path content="1,松本電気鉄道（株）,特急松本大阪線,2.0,2.0,2.0," xlink:title="1" d="M13590.4225,-3496.9482L13590.6672,-3496.9279L13590.8572,-3496.9122L13590.8639,-3496.9116L13590.8775,-3496.9105L13590.9874,-3496.9014L13591.0589,-3496.8958L13591.0626,-3496.8956L13591.1089,-3496.8919L13591.1133,-3496.8916L13591.1865,-3496.8859"/>
<path content="1,江ノ電バス藤沢,サザンクロス,1.0,1.0,1.0," xlink:title="1" d="M13591.1865,-3496.8859L13591.1133,-3496.8916L13591.1089,-3496.8919L13591.0626,-3496.8956L13591.0589,-3496.8958L13590.9874,-3496.9014L13590.8775,-3496.9105L13590.8639,-3496.9116L13590.8572,-3496.9122L13590.6672,-3496.9279L13590.4225,-3496.9482"/>
<path content="1,濃飛乗合自動車（株）,京都・大阪線,1.0,1.0,1.0," xlink:title="1" d="M13590.4225,-3496.9482L13590.6672,-3496.9279L13590.8572,-3496.9122L13590.8639,-3496.9116L13590.8775,-3496.9105L13590.9874,-3496.9014L13591.0589,-3496.8958L13591.0626,-3496.8956L13591.1089,-3496.8919L13591.1133,-3496.8916L13591.1865,-3496.8859"/>
<path content="1,瀬戸内運輸（株）,パイレーツ　今治⇔東京,1.0,1.0,1.0," xlink:title="1" d="M13591.1865,-3496.8859L13591.1133,-3496.8916L13591.1089,-3496.8919L13591.0626,-3496.8956L13591.0589,-3496.8958L13590.9874,-3496.9014L13590.8775,-3496.9105L13590.8639,-3496.9116L13590.8572,-3496.9122L13590.6672,-3496.9279L13590.4225,-3496.9482"/>
<path content="1,琴平バス（株）,愛媛・高知シャトル,2.0,2.0,2.0," xlink:title="1" d="M13590.4225,-3496.9482L13590.6672,-3496.9279L13590.8572,-3496.9122L13590.8639,-3496.9116L13590.8775,-3496.9105L13590.9874,-3496.9014L13591.0589,-3496.8958L13591.0626,-3496.8956L13591.1089,-3496.8919L13591.1133,-3496.8916L13591.1865,-3496.8859"/>
<path content="1,石見交通（株）,いわみEX　東京線,1.0,1.0,1.0," xlink:title="1" d="M13590.4225,-3496.9482L13590.6672,-3496.9279L13590.8572,-3496.9122L13590.8775,-3496.9105L13590.9874,-3496.9014L13591.0589,-3496.8958L13591.0626,-3496.8956L13591.1089,-3496.8919L13591.1133,-3496.8916L13591.1865,-3496.8859"/>
<path content="1,神姫バス（株）,姫路・神戸（三ノ宮）-東京（渋谷・新宿）,1.0,1.0,1.0," xlink:title="1" d="M13591.1865,-3496.8859L13591.1133,-3496.8916L13591.1089,-3496.8919L13591.0626,-3496.8956L13591.0589,-3496.8958L13590.9874,-3496.9014L13590.8775,-3496.9105L13590.8639,-3496.9116L13590.8572,-3496.9122L13590.6672,-3496.9279L13590.4225,-3496.9482"/>
<path content="1,福井鉄道（株）,福井⇔大阪,3.0,3.0,3.0," xlink:title="1" d="M13590.4225,-3496.9482L13590.6672,-3496.9279L13590.8572,-3496.9122L13590.8639,-3496.9116L13590.8775,-3496.9105L13590.9874,-3496.9014L13591.0589,-3496.8958L13591.0626,-3496.8956L13591.1089,-3496.8919L13591.1133,-3496.8916L13591.1865,-3496.8859"/>
<path content="1,福島交通（株）,福島高速バスターミナル～大阪あべの橋,1.0,1.0,1.0," xlink:title="1" d="M13590.4225,-3496.9482L13590.6672,-3496.9278L13590.8571,-3496.9122L13590.864,-3496.9118L13590.8777,-3496.9107L13590.9876,-3496.9015L13591.0589,-3496.8958L13591.0627,-3496.8958L13591.1089,-3496.892L13591.1135,-3496.8916L13591.1865,-3496.8859"/>
<path content="1,立川バス（株）,立川駅～京都・大阪～神戸三宮線,1.0,1.0,1.0," xlink:title="1" d="M13590.4225,-3496.9482L13590.6672,-3496.9279L13590.8572,-3496.9122L13590.8639,-3496.9116L13590.8775,-3496.9105L13590.9874,-3496.9014L13591.0589,-3496.8958L13591.0626,-3496.8956L13591.1089,-3496.8919L13591.1133,-3496.8916L13591.1865,-3496.8859"/>
<path content="1,西日本鉄道（株）,福岡　～　東京　（はかた号））,1.0,1.0,1.0," xlink:title="1" d="M13590.4225,-3496.9482L13590.6672,-3496.9279L13590.8572,-3496.9122L13590.8639,-3496.9116L13590.8775,-3496.9105L13590.9874,-3496.9014L13591.0589,-3496.8958L13591.0626,-3496.8956L13591.1089,-3496.8919L13591.1133,-3496.8916L13591.1865,-3496.8859"/>
<path content="1,西日本鉄道（株）,福岡・北九州　～　名古屋,1.0,1.0,1.0," xlink:title="1" d="M13591.1865,-3496.8859L13591.1133,-3496.8916L13591.1089,-3496.8919L13591.0626,-3496.8956L13591.0589,-3496.8958L13590.9874,-3496.9014L13590.8775,-3496.9105L13590.8639,-3496.9116L13590.8572,-3496.9122L13590.6672,-3496.9279L13590.4225,-3496.9482"/>
<path content="1,西東京バス（株）,オレンジライナー号,1.0,1.0,1.0," xlink:title="1" d="M13590.4225,-3496.9482L13590.6672,-3496.9279L13590.8572,-3496.9122L13590.8639,-3496.9116L13590.8775,-3496.9105L13590.9874,-3496.9014L13591.0589,-3496.8958L13591.0626,-3496.8956L13591.1089,-3496.8919L13591.1133,-3496.8916L13591.1865,-3496.8859"/>
<path content="1,西東京バス（株）,ツインクル号,1.0,1.0,1.0," xlink:title="1" d="M13591.1865,-3496.8859L13591.1133,-3496.8916L13591.1089,-3496.8919L13591.0626,-3496.8956L13591.0589,-3496.8958L13590.9874,-3496.9014L13590.8775,-3496.9105L13590.8639,-3496.9116L13590.8572,-3496.9122L13590.6672,-3496.9279L13590.4225,-3496.9482"/>
<path content="1,西東京バス（株）,ハローブリッジ号,1.0,1.0,1.0," xlink:title="1" d="M13590.4225,-3496.9482L13590.6672,-3496.9279L13590.8572,-3496.9122L13590.8639,-3496.9116L13590.8775,-3496.9105L13590.9874,-3496.9014L13591.0589,-3496.8958L13591.0626,-3496.8956L13591.1089,-3496.8919L13591.1133,-3496.8916L13591.1865,-3496.8859"/>
<path content="1,西武バス（株）,三都線,1.0,1.0,1.0," xlink:title="1" d="M13591.1865,-3496.8859L13591.1133,-3496.8916L13591.1089,-3496.8919L13591.0626,-3496.8956L13591.0589,-3496.8958L13590.9874,-3496.9014L13590.8775,-3496.9105L13590.8639,-3496.9116L13590.8572,-3496.9122L13590.6672,-3496.9279L13590.4225,-3496.9482"/>
<path content="1,西武観光バス,宇和島線,1.0,1.0,1.0," xlink:title="1" d="M13591.1865,-3496.8859L13591.1133,-3496.8916L13591.1089,-3496.8919L13591.0626,-3496.8956L13591.0589,-3496.8958L13590.9874,-3496.9014L13590.8775,-3496.9105L13590.8639,-3496.9116L13590.8572,-3496.9122L13590.6672,-3496.9279L13590.4225,-3496.9482"/>
<path content="1,西肥自動車（株）,ハウステンボス・佐世保～名古屋,1.0,1.0,1.0," xlink:title="1" d="M13591.1865,-3496.8859L13591.1133,-3496.8916L13591.1089,-3496.8919L13591.0626,-3496.8956L13591.0589,-3496.8958L13590.9874,-3496.9014L13590.8775,-3496.9105L13590.8639,-3496.9116L13590.8572,-3496.9122L13590.6672,-3496.9279L13590.4225,-3496.9482"/>
<path content="1,西鉄高速バス（株）,福岡・北九州　～　三重,1.0,1.0,1.0," xlink:title="1" d="M13590.4225,-3496.9482L13590.6672,-3496.9279L13590.8572,-3496.9122L13590.8639,-3496.9116L13590.8775,-3496.9105L13590.9874,-3496.9014L13591.0589,-3496.8958L13591.0626,-3496.8956L13591.1089,-3496.8919L13591.1133,-3496.8916L13591.1865,-3496.8859"/>
<path content="1,諏訪バス（株）,茅野・諏訪・岡谷～大阪線,2.0,2.0,2.0," xlink:title="1" d="M13590.4225,-3496.9482L13590.6672,-3496.9279L13590.8572,-3496.9122L13590.8639,-3496.9116L13590.8775,-3496.9105L13590.9874,-3496.9014L13591.0589,-3496.8958L13591.0626,-3496.8956L13591.1089,-3496.8919L13591.1133,-3496.8916L13591.1865,-3496.8859"/>
<path content="1,豊鉄バス（株）,豊橋～京都,1.0,1.0,1.0," xlink:title="1" d="M13591.1865,-3496.8859L13591.1133,-3496.8916L13591.1089,-3496.8919L13591.0626,-3496.8956L13591.0589,-3496.8958L13590.9874,-3496.9014L13590.8775,-3496.9105L13590.8639,-3496.9116L13590.8572,-3496.9122L13590.6672,-3496.9279L13590.4225,-3496.9482"/>
<path content="1,越後交通（株）,高速バス越後（三条・長岡・柏崎～京都・大阪線）,1.0,1.0,1.0," xlink:title="1" d="M13591.1865,-3496.8859L13591.1133,-3496.8916L13591.1089,-3496.8919L13591.0626,-3496.8956L13591.0589,-3496.8958L13590.9874,-3496.9014L13590.8775,-3496.9105L13590.8639,-3496.9116L13590.8572,-3496.9122L13590.6672,-3496.9279L13590.4225,-3496.9482"/>
<path content="1,近江鉄道（株）,野郷原線,35.0,26.0,26.0," xlink:title="1" d="M13591.0775,-3496.8109L13591.0742,-3496.7983L13591.0717,-3496.7706L13591.0536,-3496.6457L13591.0544,-3496.6276L13591.0541,-3496.6236L13591.0515,-3496.5872L13591.0522,-3496.5798L13591.0563,-3496.5624L13591.0618,-3496.5534L13591.0672,-3496.5488L13591.0789,-3496.5426L13591.0953,-3496.537L13591.1582,-3496.5348L13591.1865,-3496.5307"/>
<path content="1,近江鉄道（株）,野郷原線,35.0,26.0,26.0," xlink:title="1" d="M13591.0775,-3496.8109L13591.1441,-3496.7991L13591.1548,-3496.7983L13591.1767,-3496.7968L13591.1865,-3496.7968"/>
<path content="1,近江鉄道（株）,野郷原線,35.0,26.0,26.0," xlink:title="1" d="M13591.0898,-3496.9482L13591.0907,-3496.9424L13591.0901,-3496.9285L13591.083,-3496.8644L13591.0775,-3496.8109"/>
<path content="1,近鉄バス（株）,京都⇔四日市,12.0,12.0,12.0," xlink:title="1" d="M13590.4225,-3496.9482L13590.6672,-3496.9279L13590.8572,-3496.9122L13590.8639,-3496.9116L13590.8775,-3496.9105L13590.9874,-3496.9014L13591.0589,-3496.8958L13591.0626,-3496.8956L13591.1089,-3496.8919L13591.1133,-3496.8916L13591.1865,-3496.8859"/>
<path content="1,近鉄バス（株）,京都⇔津・伊勢,6.0,6.0,6.0," xlink:title="1" d="M13591.1865,-3496.8859L13591.1133,-3496.8916L13591.1089,-3496.8919L13591.0626,-3496.8956L13591.0589,-3496.8958L13590.9874,-3496.9014L13590.8775,-3496.9105L13590.8639,-3496.9116L13590.8572,-3496.9122L13590.6672,-3496.9279L13590.4225,-3496.9482"/>
<path content="1,近鉄バス（株）,大日・茨木・京都⇔東京駅,1.0,1.0,1.0," xlink:title="1" d="M13591.1865,-3496.8859L13591.1133,-3496.8916L13591.1089,-3496.8919L13591.0626,-3496.8956L13591.0589,-3496.8958L13590.9874,-3496.9014L13590.8775,-3496.9105L13590.8639,-3496.9116L13590.8572,-3496.9122L13590.6672,-3496.9279L13590.4225,-3496.9482"/>
<path content="1,近鉄バス（株）,大阪⇔東京駅,1.0,1.0,1.0," xlink:title="1" d="M13591.1865,-3496.8859L13591.1133,-3496.8916L13591.1089,-3496.8919L13591.0626,-3496.8956L13591.0589,-3496.8958L13590.9874,-3496.9014L13590.8775,-3496.9105L13590.8639,-3496.9116L13590.8572,-3496.9122L13590.6672,-3496.9279L13590.4225,-3496.9482"/>
<path content="1,近鉄バス（株）,大阪・京都⇔つくば・水戸,1.0,1.0,1.0," xlink:title="1" d="M13591.1865,-3496.8859L13591.1133,-3496.8916L13591.1089,-3496.8919L13591.0626,-3496.8956L13591.0589,-3496.8958L13590.9874,-3496.9014L13590.8775,-3496.9105L13590.8639,-3496.9116L13590.8572,-3496.9122L13590.6672,-3496.9279L13590.4225,-3496.9482"/>
<path content="1,近鉄バス（株）,大阪・京都⇔上田・小諸・軽井沢,1.0,1.0,1.0," xlink:title="1" d="M13590.4225,-3496.9482L13590.6672,-3496.9279L13590.8572,-3496.9122L13590.8639,-3496.9116L13590.8775,-3496.9105L13590.9874,-3496.9014L13591.0589,-3496.8958L13591.0626,-3496.8956L13591.1089,-3496.8919L13591.1133,-3496.8916L13591.1865,-3496.8859"/>
<path content="1,近鉄バス（株）,大阪・京都⇔久喜・栃木・宇都宮,1.0,1.0,1.0," xlink:title="1" d="M13591.1865,-3496.8859L13591.1133,-3496.8916L13591.1089,-3496.8919L13591.0626,-3496.8956L13591.0589,-3496.8958L13590.9874,-3496.9014L13590.8775,-3496.9105L13590.8639,-3496.9116L13590.8572,-3496.9122L13590.6672,-3496.9279L13590.4225,-3496.9482"/>
<path content="1,近鉄バス（株）,大阪・京都⇔仙台,1.0,1.0,1.0," xlink:title="1" d="M13591.1865,-3496.8859L13591.1133,-3496.8916L13591.1089,-3496.8919L13591.0626,-3496.8956L13591.0589,-3496.8958L13590.9874,-3496.9014L13590.8775,-3496.9105L13590.8639,-3496.9116L13590.8572,-3496.9122L13590.6672,-3496.9279L13590.4225,-3496.9482"/>
<path content="1,近鉄バス（株）,大阪・京都⇔山形,1.0,1.0,1.0," xlink:title="1" d="M13590.4225,-3496.9482L13590.6672,-3496.9279L13590.8572,-3496.9122L13590.8639,-3496.9116L13590.8775,-3496.9105L13590.9874,-3496.9014L13591.0589,-3496.8958L13591.0626,-3496.8956L13591.1089,-3496.8919L13591.1133,-3496.8916L13591.1865,-3496.8859"/>
<path content="1,近鉄バス（株）,大阪・京都⇔川越・坂戸・熊谷,1.0,1.0,1.0," xlink:title="1" d="M13591.1865,-3496.8859L13591.1133,-3496.8916L13591.1089,-3496.8919L13591.0626,-3496.8956L13591.0589,-3496.8958L13590.9874,-3496.9014L13590.8775,-3496.9105L13590.8639,-3496.9116L13590.8572,-3496.9122L13590.6672,-3496.9279L13590.4225,-3496.9482"/>
<path content="1,近鉄バス（株）,大阪・京都⇔日立・いわき,1.0,1.0,1.0," xlink:title="1" d="M13591.1865,-3496.8859L13591.1133,-3496.8916L13591.1089,-3496.8919L13591.0626,-3496.8956L13591.0589,-3496.8958L13590.9874,-3496.9014L13590.8775,-3496.9105L13590.8639,-3496.9116L13590.8572,-3496.9122L13590.6672,-3496.9279L13590.4225,-3496.9482"/>
<path content="1,近鉄バス（株）,大阪・京都⇔東静岡・富士宮・富士吉田駅,1.0,1.0,1.0," xlink:title="1" d="M13591.1865,-3496.8859L13591.1133,-3496.8916L13591.1089,-3496.8919L13591.0626,-3496.8956L13591.0589,-3496.8958L13590.9874,-3496.9014L13590.8775,-3496.9105L13590.8639,-3496.9116L13590.8572,-3496.9122L13590.6672,-3496.9279L13590.4225,-3496.9482"/>
<path content="1,近鉄バス（株）,大阪・京都⇔沼津・御殿場・新松田・小田原,1.0,1.0,1.0," xlink:title="1" d="M13591.1865,-3496.8859L13591.1133,-3496.8916L13591.1089,-3496.8919L13591.0626,-3496.8956L13591.0589,-3496.8958L13590.9874,-3496.9014L13590.8775,-3496.9105L13590.8639,-3496.9116L13590.8572,-3496.9122L13590.6672,-3496.9279L13590.4225,-3496.9482"/>
<path content="1,近鉄バス（株）,大阪・京都⇔甲府,2.0,2.0,2.0," xlink:title="1" d="M13590.4225,-3496.9482L13590.6672,-3496.9279L13590.8572,-3496.9122L13590.8639,-3496.9116L13590.8775,-3496.9105L13590.9874,-3496.9014L13591.0589,-3496.8958L13591.0626,-3496.8956L13591.1089,-3496.8919L13591.1133,-3496.8916L13591.1865,-3496.8859"/>
<path content="1,近鉄バス（株）,大阪・京都⇔郡上八幡・飛騨高山,2.0,2.0,2.0," xlink:title="1" d="M13590.4225,-3496.9482L13590.6672,-3496.9279L13590.8572,-3496.9122L13590.8639,-3496.9116L13590.8775,-3496.9105L13590.9874,-3496.9014L13591.0589,-3496.8958L13591.0626,-3496.8956L13591.1089,-3496.8919L13591.1133,-3496.8916L13591.1865,-3496.8859"/>
<path content="1,近鉄バス（株）,大阪・京都⇔郡山・福島,1.0,1.0,1.0," xlink:title="1" d="M13591.1865,-3496.8859L13591.1133,-3496.8916L13591.1089,-3496.8919L13591.0626,-3496.8956L13591.0589,-3496.8958L13590.9874,-3496.9014L13590.8775,-3496.9105L13590.8639,-3496.9116L13590.8572,-3496.9122L13590.6672,-3496.9279L13590.4225,-3496.9482"/>
<path content="1,近鉄バス（株）,大阪・茨木⇔新宿,1.0,1.0,1.0," xlink:title="1" d="M13591.1865,-3496.8859L13591.1133,-3496.8916L13591.1089,-3496.8919L13591.0626,-3496.8956L13591.0589,-3496.8958L13590.9874,-3496.9014L13590.8775,-3496.9105L13590.8639,-3496.9116L13590.8572,-3496.9122L13590.6672,-3496.9279L13590.4225,-3496.9482"/>
<path content="1,近鉄バス（株）,大阪・茨木⇔新宿・八王子,1.0,1.0,1.0," xlink:title="1" d="M13590.4225,-3496.9482L13590.6672,-3496.9279L13590.8572,-3496.9122L13590.8639,-3496.9116L13590.8775,-3496.9105L13590.9874,-3496.9014L13591.0589,-3496.8958L13591.0626,-3496.8956L13591.1089,-3496.8919L13591.1133,-3496.8916L13591.1865,-3496.8859"/>
<path content="1,近鉄バス（株）,藤井寺・大阪・京都⇔東京駅・横浜,1.0,1.0,1.0," xlink:title="1" d="M13591.1865,-3496.8859L13591.1133,-3496.8916L13591.1089,-3496.8919L13591.0626,-3496.8956L13591.0589,-3496.8958L13590.9874,-3496.9014L13590.8775,-3496.9105L13590.8639,-3496.9116L13590.8572,-3496.9122L13590.6672,-3496.9279L13590.4225,-3496.9482"/>
<path content="1,長崎自動車（株）,長崎～名古屋（グラバー号）,1.0,1.0,1.0," xlink:title="1" d="M13591.1865,-3496.8859L13591.1133,-3496.8916L13591.1089,-3496.8919L13591.0626,-3496.8956L13591.0589,-3496.8958L13590.9874,-3496.9014L13590.8775,-3496.9105L13590.8639,-3496.9116L13590.8572,-3496.9122L13590.6672,-3496.9279L13590.4225,-3496.9482"/>
<path content="1,長電バス（株）,湯田中・長野～京都・大阪線,1.0,1.0,1.0," xlink:title="1" d="M13590.4225,-3496.9482L13590.6672,-3496.9279L13590.8572,-3496.9122L13590.8639,-3496.9116L13590.8775,-3496.9105L13590.9874,-3496.9014L13591.0589,-3496.8958L13591.0626,-3496.8956L13591.1089,-3496.8919L13591.1133,-3496.8916L13591.1865,-3496.8859"/>
<path content="1,関東バス（株）,マスカット号,1.0,1.0,1.0," xlink:title="1" d="M13590.4225,-3496.9482L13590.6672,-3496.9279L13590.8572,-3496.9122L13590.8639,-3496.9116L13590.8775,-3496.9105L13590.9874,-3496.9014L13591.0589,-3496.8958L13591.0626,-3496.8956L13591.1089,-3496.8919L13591.1133,-3496.8916L13591.1865,-3496.8859"/>
<path content="1,関東バス（株）,東京ミッドナイトエクスプレス京都号,1.0,1.0,1.0," xlink:title="1" d="M13591.1865,-3496.8859L13591.1133,-3496.8916L13591.1089,-3496.8919L13591.0626,-3496.8956L13591.0589,-3496.8958L13590.9874,-3496.9014L13590.8775,-3496.9105L13590.8639,-3496.9116L13590.8572,-3496.9122L13590.6672,-3496.9279L13590.4225,-3496.9482"/>
<path content="1,関東自動車（株）,とちの木号,1.0,1.0,1.0," xlink:title="1" d="M13591.1865,-3496.8859L13591.1133,-3496.8916L13591.1089,-3496.8919L13591.0626,-3496.8956L13591.0589,-3496.8958L13590.9874,-3496.9014L13590.8775,-3496.9105L13590.8639,-3496.9116L13590.8572,-3496.9122L13590.6672,-3496.9279L13590.4225,-3496.9482"/>
<path content="1,関東鉄道（株）,水戸駅南口～あべの橋駅（JR天王寺駅）,1.0,1.0,1.0," xlink:title="1" d="M13591.1865,-3496.8859L13591.1133,-3496.8916L13591.1089,-3496.8919L13591.0626,-3496.8956L13591.0589,-3496.8958L13590.9874,-3496.9014L13590.8775,-3496.9105L13590.8639,-3496.9116L13590.8572,-3496.9122L13590.6672,-3496.9279L13590.4225,-3496.9482"/>
<path content="1,阪急バス（株）,伊那・箕輪行（アルペン伊那号）,2.0,2.0,2.0," xlink:title="1" d="M13590.4225,-3496.9482L13590.6672,-3496.9279L13590.8572,-3496.9122L13590.8639,-3496.9116L13590.8775,-3496.9105L13590.9874,-3496.9014L13591.0589,-3496.8958L13591.0626,-3496.8956L13591.1089,-3496.8919L13591.1133,-3496.8916L13591.1865,-3496.8859"/>
<path content="1,阪急バス（株）,富山行,4.0,4.0,4.0," xlink:title="1" d="M13591.1865,-3496.8859L13591.1133,-3496.8916L13591.1089,-3496.8919L13591.0626,-3496.8956L13591.0589,-3496.8958L13590.9874,-3496.9014L13590.8775,-3496.9105L13590.8639,-3496.9116L13590.8572,-3496.9122L13590.6672,-3496.9279L13590.4225,-3496.9482"/>
<path content="1,阪急バス（株）,新宿・渋谷行,1.0,1.0,1.0," xlink:title="1" d="M13590.4225,-3496.9482L13590.6672,-3496.9279L13590.8572,-3496.9122L13590.8639,-3496.9116L13590.8775,-3496.9105L13590.9874,-3496.9014L13591.0589,-3496.8958L13591.0626,-3496.8956L13591.1089,-3496.8919L13591.1133,-3496.8916L13591.1865,-3496.8859"/>
<path content="1,阪急バス（株）,新潟行（おけさ号）,1.0,1.0,1.0," xlink:title="1" d="M13590.4225,-3496.9482L13590.6672,-3496.9279L13590.8572,-3496.9122L13590.8639,-3496.9116L13590.8775,-3496.9105L13590.9874,-3496.9014L13591.0589,-3496.8958L13591.0626,-3496.8956L13591.1089,-3496.8919L13591.1133,-3496.8916L13591.1865,-3496.8859"/>
<path content="1,阪急バス（株）,東京・東京ディズニーリゾート・千葉行,1.0,1.0,1.0," xlink:title="1" d="M13590.4225,-3496.9482L13590.6672,-3496.9279L13590.8572,-3496.9122L13590.8639,-3496.9116L13590.8775,-3496.9105L13590.9874,-3496.9014L13591.0589,-3496.8958L13591.0626,-3496.8956L13591.1089,-3496.8919L13591.1133,-3496.8916L13591.1865,-3496.8859"/>
<path content="1,阪急バス（株）,松本行（アルペン松本号）,3.0,3.0,3.0," xlink:title="1" d="M13590.4225,-3496.9482L13590.6672,-3496.9279L13590.8572,-3496.9122L13590.8639,-3496.9116L13590.8775,-3496.9105L13590.9874,-3496.9014L13591.0589,-3496.8958L13591.0626,-3496.8956L13591.1089,-3496.8919L13591.1133,-3496.8916L13591.1865,-3496.8859"/>
<path content="1,阪急バス（株）,横浜・品川・池袋行,1.0,1.0,1.0," xlink:title="1" d="M13591.1865,-3496.8859L13591.1133,-3496.8916L13591.1089,-3496.8919L13591.0626,-3496.8956L13591.0589,-3496.8958L13590.9874,-3496.9014L13590.8775,-3496.9105L13590.8639,-3496.9116L13590.8572,-3496.9122L13590.6672,-3496.9279L13590.4225,-3496.9482"/>
<path content="1,阪急バス（株）,福井行,3.0,3.0,3.0," xlink:title="1" d="M13590.4225,-3496.9482L13590.6672,-3496.9279L13590.8572,-3496.9122L13590.8639,-3496.9116L13590.8775,-3496.9105L13590.9874,-3496.9014L13591.0589,-3496.8958L13591.0626,-3496.8956L13591.1089,-3496.8919L13591.1133,-3496.8916L13591.1865,-3496.8859"/>
<path content="1,阪急バス（株）,諏訪・茅野行（アルペン諏訪号）,2.0,2.0,2.0," xlink:title="1" d="M13590.4225,-3496.9482L13590.6672,-3496.9279L13590.8572,-3496.9122L13590.8639,-3496.9116L13590.8775,-3496.9105L13590.9874,-3496.9014L13591.0589,-3496.8958L13591.0626,-3496.8956L13591.1089,-3496.8919L13591.1133,-3496.8916L13591.1865,-3496.8859"/>
<path content="1,阪急バス（株）,金沢行,2.0,2.0,2.0," xlink:title="1" d="M13590.4225,-3496.9482L13590.6672,-3496.9279L13590.8572,-3496.9122L13590.8639,-3496.9116L13590.8775,-3496.9105L13590.9874,-3496.9014L13591.0589,-3496.8958L13591.0626,-3496.8956L13591.1089,-3496.8919L13591.1133,-3496.8916L13591.1865,-3496.8859"/>
<path content="1,阪急バス（株）,長野行（アルペン長野号）,2.0,2.0,2.0," xlink:title="1" d="M13590.4225,-3496.9482L13590.6672,-3496.9279L13590.8572,-3496.9122L13590.8639,-3496.9116L13590.8775,-3496.9105L13590.9874,-3496.9014L13591.0589,-3496.8958L13591.0626,-3496.8956L13591.1089,-3496.8919L13591.1133,-3496.8916L13591.1865,-3496.8859"/>
<path content="1,阪神バス（株）,サラダエクスプレス　神戸・大阪⇔東京ディズニーリゾート,1.0,1.0,1.0," xlink:title="1" d="M13590.4225,-3496.9482L13590.6672,-3496.9279L13590.8572,-3496.9122L13590.8639,-3496.9116L13590.8775,-3496.9105L13590.9874,-3496.9014L13591.0589,-3496.8958L13591.0626,-3496.8956L13591.1089,-3496.8919L13591.1133,-3496.8916L13591.1865,-3496.8859"/>
<path content="1,防長交通（株）,萩・山口・防府・徳山・岩国～東京,1.0,1.0,1.0," xlink:title="1" d="M13590.4225,-3496.9482L13590.6672,-3496.9279L13590.8572,-3496.9122L13590.8639,-3496.9116L13590.8775,-3496.9105L13590.9874,-3496.9014L13591.0589,-3496.8958L13591.0626,-3496.8956L13591.1089,-3496.8919L13591.1133,-3496.8916L13591.1865,-3496.8859"/>
<path content="1,高知県交通（株）,ドラゴンライナー　高知⇔名古屋線,1.0,1.0,1.0," xlink:title="1" d="M13590.4225,-3496.9482L13590.6672,-3496.9279L13590.8572,-3496.9122L13590.8639,-3496.9116L13590.8775,-3496.9105L13590.9874,-3496.9014L13591.0589,-3496.8958L13591.0626,-3496.8956L13591.1089,-3496.8919L13591.1133,-3496.8916L13591.1865,-3496.8859"/>
<path content="1,高知県交通（株）,ブルーメッツ号　高知⇔東京線,1.0,1.0,1.0," xlink:title="1" d="M13590.4225,-3496.9482L13590.6672,-3496.9279L13590.8572,-3496.9122L13590.8639,-3496.9116L13590.8775,-3496.9105L13590.9874,-3496.9014L13591.0589,-3496.8958L13591.0626,-3496.8956L13591.1089,-3496.8919L13591.1133,-3496.8916L13591.1865,-3496.8859"/>
<path content="1,（株）中国バス,夜行便　東京線,1.0,1.0,1.0," xlink:title="1" d="M13591.1865,-3496.8859L13591.1133,-3496.8916L13591.1089,-3496.8919L13591.0626,-3496.8956L13591.0589,-3496.8958L13590.9874,-3496.9014L13590.8775,-3496.9105L13590.8639,-3496.9116L13590.8572,-3496.9122L13590.6672,-3496.9279L13590.4225,-3496.9482"/>
<path content="1,（株）中国バス,夜行便　横浜線,1.0,1.0,1.0," xlink:title="1" d="M13591.1865,-3496.8859L13591.1133,-3496.8916L13591.1089,-3496.8919L13591.0626,-3496.8956L13591.0589,-3496.8958L13590.9874,-3496.9014L13590.8775,-3496.9105L13590.8639,-3496.9116L13590.8572,-3496.9122L13590.6672,-3496.9279L13590.4225,-3496.9482"/>
<path content="3,甲賀市,朝宮ルート,9.0,4.0,4.0," xlink:title="3" d="M13590.3773,-3496.7231L13590.3824,-3496.688L13590.3872,-3496.6796L13590.407,-3496.6446L13590.4234,-3496.6091L13590.4337,-3496.5731L13590.4405,-3496.5409L13590.4508,-3496.4846L13590.4665,-3496.4266L13590.4768,-3496.3967L13590.4829,-3496.382L13590.4884,-3496.3736L13590.5233,-3496.3386L13590.5671,-3496.3014L13590.6225,-3496.2575L13590.7309,-3496.1832L13590.8613,-3496.0946L13590.8784,-3496.0845L13590.9003,-3496.0608L13590.9154,-3496.0411L13590.9544,-3495.987L13590.9694,-3495.9549L13590.981,-3495.9143L13590.9913,-3495.8698L13590.994,-3495.854L13590.9942,-3495.8496"/>
</g>
</svg>
