<?xml version="1.0" encoding="UTF-8"?>
<svg  xmlns="http://www.w3.org/2000/svg" xmlns:xlink="http://www.w3.org/1999/xlink" xmlns:go="http://purl.org/svgmap/profile" property="N07_001,N07_002,N07_003,N07_004,N07_005,N07_006,N07_007" viewBox="13974.609375 -3849.609375 17.578125 17.578125" go:dataArea="13974.609375 -3849.609375 17.578125 17.578125" >
<metadata>
 <rdf:RDF xmlns:rdf="http://www.w3.org/1999/02/22-rdf-syntax-ns#" xmlns:crs="http://opengis.org/xmldtds/transformations.dtd" xmlns:svg="http://www.w3.org/svg" >
  <rdf:Description>
   <crs:CoordinateReferenceSystem rdf:resource="http://purl.org/crs/84" svg:transform="matrix(100.0,0.0,0.0,-100.0,0.0,0.0)" />
  </rdf:Description>
 </rdf:RDF>
</metadata>
<globalCoordinateSystem srsName="http://purl.org/crs/84" transform="matrix(100.0,0.0,0.0,-100.0,0.0,0.0)" />
<defs>
 <g id="p0" >
  <circle cx="0.0" cy="0.0" r="3" stroke="green" stroke-width="0.75" vector-effect="non-scaling-stroke" />
 </g>
</defs>
<g fill="none" fill-rule="evenodd" stroke="#FF00FF" stroke-width="0.75" opacity="0.5" vector-effect="non-scaling-stroke" stroke-linejoin="bevel" >
<path content="1,庄内交通（株）,エスモール・鶴岡駅前-泡滝ダム,9.8,9.5,9.0," xlink:title="1" d="M13976.8087,-3849.6094L13976.7966,-3849.5907L13976.7851,-3849.5704L13976.7772,-3849.5496L13976.7765,-3849.5276L13976.7801,-3849.5192L13976.7887,-3849.5091L13976.7987,-3849.5023L13976.8259,-3849.491L13976.8431,-3849.4871L13976.8689,-3849.4826L13976.8796,-3849.4775L13976.8853,-3849.4696L13976.8862,-3849.4614L13976.879,-3849.4295L13976.8792,-3849.4246L13976.8768,-3849.426L13976.8631,-3849.4206L13976.8488,-3849.4133L13976.8388,-3849.4054L13976.8323,-3849.3953L13976.8137,-3849.3469L13976.8088,-3849.3407L13976.8073,-3849.339L13976.7851,-3849.3306L13976.7787,-3849.3244L13976.7722,-3849.3142L13976.7665,-3849.2939L13976.7622,-3849.2844L13976.7515,-3849.2697L13976.7279,-3849.2455L13976.7221,-3849.2359L13976.7221,-3849.2241L13976.725,-3849.2128L13976.725,-3849.1988L13976.7221,-3849.1914L13976.7035,-3849.1588L13976.6985,-3849.1537L13976.6842,-3849.1447L13976.6756,-3849.1379L13976.6699,-3849.1272L13976.6656,-3849.112L13976.6455,-3849.0788L13976.6348,-3849.0653L13976.6183,-3849.0484L13976.5761,-3849.0129L13976.5474,-3848.9876L13976.5202,-3848.9583L13976.5095,-3848.9431L13976.4837,-3848.9003L13976.4716,-3848.8879L13976.4544,-3848.8766L13976.4344,-3848.862L13976.4186,-3848.8434L13976.4021,-3848.8248L13976.3749,-3848.8045L13976.3639,-3848.7988L13976.3548,-3848.7944L13976.3261,-3848.7766L13976.3092,-3848.7656L13976.2914,-3848.7546L13976.2786,-3848.7444L13976.2625,-3848.7325L13976.2473,-3848.7147L13976.238,-3848.7046L13976.2236,-3848.6868L13976.2117,-3848.6732L13976.1973,-3848.6546L13976.1854,-3848.6419L13976.1753,-3848.6317L13976.1651,-3848.619L13976.1498,-3848.5978L13976.1329,-3848.5724L13976.1185,-3848.5571L13976.1126,-3848.5478L13976.099,-3848.5266L13976.0905,-3848.5122L13976.0846,-3848.5004L13976.0761,-3848.486L13976.0693,-3848.4656L13976.0685,-3848.4436L13976.0676,-3848.4307L13976.066,-3848.4191L13976.0657,-3848.3866L13976.0657,-3848.3438L13976.0607,-3848.314L13976.0607,-3848.2813L13976.0628,-3848.2566L13976.0678,-3848.2301L13976.0714,-3848.2138L13976.0728,-3848.2126L13976.0814,-3848.1896L13976.1022,-3848.1479L13976.1294,-3848.0949L13976.1666,-3848.0392L13976.1967,-3847.9716L13976.2311,-3847.9198L13976.2389,-3847.9063L13976.2332,-3847.877L13976.2261,-3847.8257L13976.2217,-3847.797L13976.2217,-3847.7858L13976.2253,-3847.7773L13976.2597,-3847.7418L13976.3069,-3847.6985L13976.3284,-3847.6771L13976.3382,-3847.6641L13976.3542,-3847.6523L13976.3306,-3847.6393L13976.2926,-3847.6208L13976.2419,-3847.598L13976.1316,-3847.5434L13976.1229,-3847.5416L13976.1129,-3847.5408L13976.0929,-3847.5397L13976.0736,-3847.5414L13976.0521,-3847.5453L13976.0163,-3847.5549L13975.9948,-3847.5549L13975.9848,-3847.5509L13975.9705,-3847.5408L13975.9633,-3847.5312L13975.9569,-3847.5154L13975.9506,-3847.4969L13975.9454,-3847.4704L13975.9383,-3847.4118L13975.9404,-3847.389L13975.9426,-3847.3729L13975.9454,-3847.3521L13975.9641,-3847.2817L13975.9834,-3847.2215L13975.9934,-3847.2018L13976.0013,-3847.1939L13976.0321,-3847.1747L13976.075,-3847.1516L13976.128,-3847.1236L13976.138,-3847.1173L13976.1423,-3847.1134L13976.148,-3847.1044L13976.1509,-3847.0925L13976.1552,-3847.061L13976.1599,-3847.0525L13976.1559,-3847.0075L13976.1538,-3846.9945L13976.1481,-3846.9838L13976.1201,-3846.9337L13976.0876,-3846.8746L13976.0808,-3846.8656L13976.0357,-3846.7856L13976.0228,-3846.7597L13976.0221,-3846.7518L13976.0271,-3846.7248L13976.0413,-3846.6796L13976.0453,-3846.6714L13976.0497,-3846.665L13976.0497,-3846.6615L13976.0487,-3846.6594L13976.0521,-3846.6557L13976.0554,-3846.6488L13976.0568,-3846.6408L13976.0558,-3846.6302L13976.0492,-3846.6064L13976.0438,-3846.5933L13976.0365,-3846.577L13976.0213,-3846.5563L13976.0135,-3846.547L13976.0084,-3846.5393L13976.0025,-3846.5277L13975.9998,-3846.5202L13975.9991,-3846.5144L13976.0005,-3846.5038L13976.0036,-3846.4953L13976.0073,-3846.4881L13976.0152,-3846.4762L13976.0226,-3846.4659L13976.0534,-3846.4383L13976.0665,-3846.4276L13976.0782,-3846.4197L13976.089,-3846.4138L13976.1007,-3846.409L13976.1102,-3846.4062L13976.1174,-3846.4046L13976.1291,-3846.4033L13976.1586,-3846.4029L13976.1659,-3846.4016L13976.1703,-3846.3974L13976.1809,-3846.3683L13976.1832,-3846.3602L13976.2003,-3846.3638L13976.2225,-3846.3717L13976.2626,-3846.3936L13976.2719,-3846.397L13976.2776,-3846.3981L13976.3206,-3846.397L13976.3521,-3846.3942L13976.3592,-3846.3925L13976.3657,-3846.388L13976.3757,-3846.3644L13976.3879,-3846.3469L13976.4029,-3846.3311L13976.4137,-3846.3238L13976.4366,-3846.3103L13976.4738,-3846.2945L13976.5125,-3846.2832L13976.5504,-3846.2748L13976.5583,-3846.2737L13976.5776,-3846.2697L13976.6492,-3846.2562L13976.6993,-3846.2489L13976.7201,-3846.2472L13976.7759,-3846.2439L13976.8181,-3846.2422L13976.8274,-3846.2377L13976.8346,-3846.2304L13976.8425,-3846.2157L13976.8511,-3846.2061L13976.8561,-3846.1977L13976.8561,-3846.1842L13976.8546,-3846.1706L13976.8546,-3846.1526L13976.8532,-3846.1419L13976.8504,-3846.1295L13976.8439,-3846.1132L13976.8274,-3846.0726L13976.8231,-3846.0552L13976.8231,-3846.0332L13976.831,-3846.0011L13976.8353,-3845.982L13976.8368,-3845.9471L13976.836,-3845.9352L13976.8303,-3845.8722L13976.8225,-3845.817L13976.816,-3845.7973L13976.806,-3845.7781L13976.7981,-3845.7663L13976.7867,-3845.755L13976.7781,-3845.7489L13976.7666,-3845.7404L13976.7224,-3845.7066L13976.7172,-3845.7021L13976.7058,-3845.6892L13976.6957,-3845.6734L13976.6903,-3845.6628L13976.6828,-3845.6468L13976.6778,-3845.6328L13976.675,-3845.6187L13976.6736,-3845.5855L13976.6721,-3845.5788L13976.665,-3845.5686L13976.6556,-3845.5609L13976.6399,-3845.5467L13976.6349,-3845.5371L13976.6356,-3845.5191L13976.6377,-3845.5123L13976.6528,-3845.4892L13976.6553,-3845.4827L13976.6578,-3845.4763L13976.6578,-3845.4346L13976.6514,-3845.4155L13976.6421,-3845.4025L13976.6271,-3845.3862L13976.607,-3845.3676L13976.5848,-3845.3501L13976.5554,-3845.3327L13976.5454,-3845.3282L13976.5032,-3845.3045L13976.4631,-3845.278L13976.4581,-3845.273L13976.4452,-3845.2527L13976.438,-3845.2386L13976.4345,-3845.2257L13976.4338,-3845.1767L13976.4359,-3845.1558L13976.4395,-3845.144L13976.4459,-3845.1271L13976.4488,-3845.1187L13976.4488,-3845.0928L13976.4488,-3845.0824L13976.4578,-3845.0736L13976.4703,-3845.0663L13976.5118,-3845.0483L13976.5204,-3845.0432L13976.5419,-3845.0252L13976.5655,-3845.0021L13976.6242,-3844.9368L13976.6414,-3844.9154L13976.6449,-3844.9126L13976.6779,-3844.8788L13976.7309,-3844.8258L13976.7366,-3844.8123L13976.738,-3844.8039L13976.7373,-3844.7768L13976.7359,-3844.7594L13976.7347,-3844.7518L13976.7323,-3844.7368L13976.7273,-3844.7126L13976.723,-3844.7031L13976.7129,-3844.6929L13976.7008,-3844.6868L13976.6464,-3844.6715L13976.6036,-3844.6546L13976.592,-3844.6479L13976.5583,-3844.6254L13976.534,-3844.6146L13976.5132,-3844.6079L13976.4896,-3844.5977L13976.4753,-3844.5887L13976.4646,-3844.5758L13976.4603,-3844.5594L13976.4596,-3844.5319L13976.4729,-3844.4815L13976.4789,-3844.462L13976.4911,-3844.4271L13976.5132,-3844.3809L13976.5483,-3844.3156L13976.5562,-3844.3038L13976.5848,-3844.2722L13976.5956,-3844.2604L13976.6135,-3844.2357L13976.6213,-3844.2221L13976.6256,-3844.2125L13976.6345,-3844.1832L13976.6378,-3844.1495L13976.6378,-3844.1343L13976.6443,-3844.1044L13976.65,-3844.0853L13976.6528,-3844.065L13976.6521,-3844.0014L13976.6521,-3843.9653L13976.6557,-3843.9563L13976.6894,-3843.8989L13976.7064,-3843.8707"/>
</g>
</svg>
