<?xml version="1.0" encoding="UTF-8"?>
<svg  xmlns="http://www.w3.org/2000/svg" xmlns:xlink="http://www.w3.org/1999/xlink" xmlns:go="http://purl.org/svgmap/profile" property="N07_001,N07_002,N07_003,N07_004,N07_005,N07_006,N07_007" viewBox="14000.9765625 -3572.75390625 4.39453125 4.39453125" go:dataArea="14000.9765625 -3572.75390625 4.39453125 4.39453125" >
<metadata>
 <rdf:RDF xmlns:rdf="http://www.w3.org/1999/02/22-rdf-syntax-ns#" xmlns:crs="http://opengis.org/xmldtds/transformations.dtd" xmlns:svg="http://www.w3.org/svg" >
  <rdf:Description>
   <crs:CoordinateReferenceSystem rdf:resource="http://purl.org/crs/84" svg:transform="matrix(100.0,0.0,0.0,-100.0,0.0,0.0)" />
  </rdf:Description>
 </rdf:RDF>
</metadata>
<globalCoordinateSystem srsName="http://purl.org/crs/84" transform="matrix(100.0,0.0,0.0,-100.0,0.0,0.0)" />
<defs>
 <g id="p0" >
  <circle cx="0.0" cy="0.0" r="3" stroke="green" stroke-width="0.75" vector-effect="non-scaling-stroke" />
 </g>
</defs>
<g fill="none" fill-rule="evenodd" stroke="#FF00FF" stroke-width="0.75" opacity="0.5" vector-effect="non-scaling-stroke" stroke-linejoin="bevel" >
<path content="1,ちばレインボーバス,神崎線,37.0,30.0,30.0," xlink:title="1" d="M14002.0998,-3569.1672L14002.1,-3569.1698L14002.1002,-3569.1719L14002.1012,-3569.1854L14002.1558,-3569.2266L14002.2398,-3569.2908L14002.2908,-3569.3336L14002.2969,-3569.3407L14002.3069,-3569.3555L14002.313,-3569.3688L14002.319,-3569.3802L14002.3254,-3569.3963L14002.3364,-3569.431L14002.3507,-3569.4834L14002.3597,-3569.5216L14002.3679,-3569.565L14002.3672,-3569.5703L14002.3479,-3569.6509L14002.3473,-3569.6816L14002.3322,-3569.7262L14002.3998,-3569.7349L14002.4556,-3569.7444L14002.4882,-3569.7593L14002.5011,-3569.7668L14002.555,-3569.8062L14002.5889,-3569.8331L14002.6966,-3569.9129L14002.7118,-3569.9287L14002.8297,-3570.0199L14002.8748,-3570.0548L14002.9651,-3570.126L14003.1443,-3570.2678L14003.1804,-3570.2978L14003.1957,-3570.3082L14003.2568,-3570.3577L14003.2704,-3570.3702L14003.2941,-3570.3921L14003.3028,-3570.4015L14003.3126,-3570.4145L14003.3265,-3570.4358L14003.3422,-3570.4612L14003.3543,-3570.4781L14003.3971,-3570.5351L14003.4052,-3570.5451L14003.4304,-3570.5726L14003.4541,-3570.5963L14003.4894,-3570.6275L14003.5444,-3570.6761L14003.5646,-3570.6912L14003.5729,-3570.7007L14003.5998,-3570.7208L14003.6419,-3570.7541L14003.6716,-3570.7774L14003.7105,-3570.8043L14003.7236,-3570.8132L14003.7361,-3570.821L14003.7561,-3570.8272L14003.7696,-3570.8346L14003.785,-3570.84L14003.8263,-3570.8513L14003.8871,-3570.8659L14003.961,-3570.8853L14003.9963,-3570.8942L14004.0258,-3570.9039L14004.1393,-3570.932L14004.2113,-3570.9519L14004.3294,-3570.9807L14004.3987,-3571.0007L14004.4234,-3571.009L14004.5006,-3571.0272L14004.5955,-3571.047L14004.6076,-3571.0499L14004.6476,-3571.0573L14004.7075,-3571.0704L14004.7194,-3571.0726L14004.8015,-3571.0893L14004.8848,-3571.1085L14004.9628,-3571.1293L14004.9963,-3571.1364L14005.0147,-3571.145L14005.1346,-3571.1811L14005.1919,-3571.2001L14005.2519,-3571.2196L14005.2759,-3571.2267L14005.3376,-3571.2491L14005.3589,-3571.2558L14005.3662,-3571.2581L14005.3711,-3571.2599"/>
<path content="1,京成バス（株）,津01,120.0,105.0,94.0," xlink:title="1" d="M14004.5905,-3568.9938L14004.6723,-3568.9814L14004.698,-3568.9775L14004.8417,-3568.9558L14004.8703,-3568.9518L14004.8933,-3568.9485L14004.9423,-3568.9414L14004.9879,-3568.9349L14004.9923,-3568.9342L14005.0832,-3568.9218L14005.1226,-3568.9156L14005.1554,-3568.9768L14005.1743,-3569.0136L14005.1961,-3569.0506L14005.2348,-3569.135"/>
<path content="1,京成バス（株）,津01,120.0,105.0,94.0," xlink:title="1" d="M14004.5905,-3568.9938L14004.6529,-3569.0669L14004.6706,-3569.1962"/>
<path content="1,京成バス（株）,津01,120.0,105.0,94.0," xlink:title="1" d="M14005.2348,-3569.135L14005.2857,-3569.4229L14005.2901,-3569.447L14005.2947,-3569.4645L14005.2981,-3569.4736L14005.3058,-3569.4906L14005.3182,-3569.5106L14005.3336,-3569.5317L14005.3403,-3569.5395L14005.369,-3569.5641L14005.3711,-3569.5657"/>
<path content="1,京成バス（株）,津01,120.0,105.0,94.0," xlink:title="1" d="M14002.0998,-3569.1672L14002.1,-3569.1698L14002.1002,-3569.1719L14002.1012,-3569.1854L14002.1558,-3569.2266L14002.2398,-3569.2908L14002.2908,-3569.3336L14002.3609,-3569.3232L14002.3888,-3569.3191L14002.5059,-3569.3013L14002.5545,-3569.294L14002.6014,-3569.2869L14002.7173,-3569.2716L14002.7634,-3569.2624L14002.8838,-3569.2478L14002.917,-3569.2428L14002.9337,-3569.2395L14002.9838,-3569.2302L14003.0169,-3569.2216L14003.0248,-3569.2201L14003.1132,-3569.1983L14003.2039,-3569.183L14003.3076,-3569.1673L14003.3132,-3569.1677L14003.3221,-3569.1646L14003.3467,-3569.1628L14003.3784,-3569.1582L14003.6612,-3569.1272L14003.7596,-3569.1158L14003.845,-3569.105L14003.8765,-3569.1013L14003.8887,-3569.1001L14003.9115,-3569.0975L14003.9414,-3569.0926L14003.9937,-3569.0864L14004.0212,-3569.082L14004.1498,-3569.0622L14004.1683,-3569.0604L14004.2389,-3569.0479L14004.2717,-3569.0429L14004.3111,-3569.0359L14004.4763,-3569.0126L14004.5858,-3568.9944L14004.5905,-3568.9938"/>
<path content="1,京成バス（株）,津01,120.0,105.0,94.0," xlink:title="1" d="M14004.6706,-3569.1962L14004.7559,-3569.187L14004.8006,-3569.1835L14004.834,-3569.1763L14004.8529,-3569.174L14004.9897,-3569.1586L14005.0127,-3569.1559L14005.1032,-3569.1455L14005.1341,-3569.1423L14005.2329,-3569.1352L14005.2348,-3569.135"/>
<path content="1,京成バス（株）,津01,120.0,105.0,94.0," xlink:title="1" d="M14004.6706,-3569.1962L14004.6731,-3569.2924"/>
<path content="1,京成バス（株）,津02,85.0,74.0,58.0," xlink:title="1" d="M14004.5905,-3568.9938L14004.6723,-3568.9814L14004.698,-3568.9775L14004.8417,-3568.9558L14004.8703,-3568.9518L14004.8933,-3568.9485L14004.9423,-3568.9414L14004.9879,-3568.9349L14004.9923,-3568.9342L14005.0832,-3568.9218L14005.1226,-3568.9156L14005.1554,-3568.9768L14005.1743,-3569.0136L14005.1961,-3569.0506L14005.2348,-3569.135"/>
<path content="1,京成バス（株）,津02,85.0,74.0,58.0," xlink:title="1" d="M14004.5905,-3568.9938L14004.6529,-3569.0669L14004.6706,-3569.1962"/>
<path content="1,京成バス（株）,津02,85.0,74.0,58.0," xlink:title="1" d="M14005.2348,-3569.135L14005.2857,-3569.4229L14005.2901,-3569.447L14005.2947,-3569.4645L14005.2981,-3569.4736L14005.3058,-3569.4906L14005.3169,-3569.625L14005.3174,-3569.6317L14005.3187,-3569.6404L14005.32,-3569.6486L14005.3234,-3569.6697L14005.3282,-3569.6918L14005.3391,-3569.7212L14005.3459,-3569.7533L14005.3704,-3569.8276L14005.3711,-3569.83M14005.3711,-3569.8724L14005.3648,-3569.8862L14005.3617,-3569.8982L14005.3534,-3569.9071L14005.3291,-3569.937L14005.3178,-3569.951L14005.312,-3569.9575L14005.2469,-3570.0162L14005.1947,-3570.068"/>
<path content="1,京成バス（株）,津02,85.0,74.0,58.0," xlink:title="1" d="M14002.0998,-3569.1672L14002.1,-3569.1698L14002.1002,-3569.1719L14002.1012,-3569.1854L14002.1558,-3569.2266L14002.2398,-3569.2908L14002.2908,-3569.3336L14002.3609,-3569.3232L14002.3888,-3569.3191L14002.5059,-3569.3013L14002.5545,-3569.294L14002.6014,-3569.2869L14002.7173,-3569.2716L14002.7634,-3569.2624L14002.8838,-3569.2478L14002.917,-3569.2428L14002.9337,-3569.2395L14002.9838,-3569.2302L14003.0169,-3569.2216L14003.0248,-3569.2201L14003.1132,-3569.1983L14003.2039,-3569.183L14003.3076,-3569.1673L14003.3132,-3569.1677L14003.3221,-3569.1646L14003.3467,-3569.1628L14003.3784,-3569.1582L14003.6612,-3569.1272L14003.7596,-3569.1158L14003.845,-3569.105L14003.8765,-3569.1013L14003.8887,-3569.1001L14003.9115,-3569.0975L14003.9414,-3569.0926L14003.9937,-3569.0864L14004.0212,-3569.082L14004.1498,-3569.0622L14004.1683,-3569.0604L14004.2389,-3569.0479L14004.2717,-3569.0429L14004.3111,-3569.0359L14004.4763,-3569.0126L14004.5858,-3568.9944L14004.5905,-3568.9938"/>
<path content="1,京成バス（株）,津02,85.0,74.0,58.0," xlink:title="1" d="M14004.6706,-3569.1962L14004.7559,-3569.187L14004.8006,-3569.1835L14004.834,-3569.1763L14004.8529,-3569.174L14004.9897,-3569.1586L14005.0127,-3569.1559L14005.1032,-3569.1455L14005.1341,-3569.1423L14005.2329,-3569.1352L14005.2348,-3569.135"/>
<path content="1,京成バス（株）,津02,85.0,74.0,58.0," xlink:title="1" d="M14004.6706,-3569.1962L14004.6731,-3569.2924"/>
<path content="1,京成バス（株）,津03,56.0,52.0,40.0," xlink:title="1" d="M14004.5905,-3568.9938L14004.6723,-3568.9814L14004.698,-3568.9775L14004.8417,-3568.9558L14004.8703,-3568.9518L14004.8933,-3568.9485L14004.9423,-3568.9414L14004.9879,-3568.9349L14004.9923,-3568.9342L14005.0832,-3568.9218L14005.1226,-3568.9156L14005.1554,-3568.9768L14005.1743,-3569.0136L14005.1961,-3569.0506L14005.2348,-3569.135"/>
<path content="1,京成バス（株）,津03,56.0,52.0,40.0," xlink:title="1" d="M14004.5905,-3568.9938L14004.6529,-3569.0669L14004.6706,-3569.1962L14004.7559,-3569.187L14004.8006,-3569.1835L14004.834,-3569.1763L14004.8529,-3569.174L14004.9897,-3569.1586L14005.0127,-3569.1559L14005.1032,-3569.1455L14005.1341,-3569.1423L14005.2329,-3569.1352L14005.2348,-3569.135"/>
<path content="1,京成バス（株）,津03,56.0,52.0,40.0," xlink:title="1" d="M14005.2348,-3569.135L14005.3711,-3569.1159"/>
<path content="1,京成バス（株）,津03,56.0,52.0,40.0," xlink:title="1" d="M14002.0998,-3569.1672L14002.1,-3569.1698L14002.1002,-3569.1719L14002.1012,-3569.1854L14002.1558,-3569.2266L14002.2398,-3569.2908L14002.2908,-3569.3336L14002.3609,-3569.3232L14002.3888,-3569.3191L14002.5059,-3569.3013L14002.5545,-3569.294L14002.6014,-3569.2869L14002.7173,-3569.2716L14002.7634,-3569.2624L14002.8838,-3569.2478L14002.917,-3569.2428L14002.9337,-3569.2395L14002.9838,-3569.2302L14003.0169,-3569.2216L14003.0248,-3569.2201L14003.1132,-3569.1983L14003.2039,-3569.183L14003.3076,-3569.1673L14003.3132,-3569.1677L14003.3221,-3569.1646L14003.3467,-3569.1628L14003.3784,-3569.1582L14003.6612,-3569.1272L14003.7596,-3569.1158L14003.845,-3569.105L14003.8765,-3569.1013L14003.8887,-3569.1001L14003.9115,-3569.0975L14003.9414,-3569.0926L14003.9937,-3569.0864L14004.0212,-3569.082L14004.1498,-3569.0622L14004.1683,-3569.0604L14004.2389,-3569.0479L14004.2717,-3569.0429L14004.3111,-3569.0359L14004.4763,-3569.0126L14004.5858,-3568.9944L14004.5905,-3568.9938"/>
<path content="1,京成バス（株）,津21,24.0,24.0,19.0," xlink:title="1" d="M14004.5905,-3568.9938L14004.6723,-3568.9814L14004.698,-3568.9775L14004.8417,-3568.9558L14004.8703,-3568.9518L14004.8933,-3568.9485L14004.9423,-3568.9414L14004.9879,-3568.9349L14004.9923,-3568.9342L14005.0832,-3568.9218L14005.1226,-3568.9156L14005.1554,-3568.9768L14005.1743,-3569.0136L14005.1961,-3569.0506L14005.2348,-3569.135"/>
<path content="1,京成バス（株）,津21,24.0,24.0,19.0," xlink:title="1" d="M14004.5905,-3568.9938L14004.6529,-3569.0669L14004.6706,-3569.1962"/>
<path content="1,京成バス（株）,津21,24.0,24.0,19.0," xlink:title="1" d="M14005.2348,-3569.135L14005.2857,-3569.4229L14005.2901,-3569.447L14005.2947,-3569.4645L14005.2981,-3569.4736L14005.3058,-3569.4906L14005.3182,-3569.5106L14005.3336,-3569.5317L14005.3403,-3569.5395L14005.369,-3569.5641L14005.3711,-3569.5657"/>
<path content="1,京成バス（株）,津21,24.0,24.0,19.0," xlink:title="1" d="M14002.0998,-3569.1672L14002.1,-3569.1698L14002.1002,-3569.1719L14002.1012,-3569.1854L14002.1558,-3569.2266L14002.2398,-3569.2908L14002.2908,-3569.3336L14002.3609,-3569.3232L14002.3888,-3569.3191L14002.5059,-3569.3013L14002.5545,-3569.294L14002.6014,-3569.2869L14002.7173,-3569.2716L14002.7634,-3569.2624L14002.8838,-3569.2478L14002.917,-3569.2428L14002.9337,-3569.2395L14002.9838,-3569.2302L14003.0169,-3569.2216L14003.0248,-3569.2201L14003.1132,-3569.1983L14003.2039,-3569.183L14003.3076,-3569.1673L14003.3132,-3569.1677L14003.3221,-3569.1646L14003.3467,-3569.1628L14003.3784,-3569.1582L14003.6612,-3569.1272L14003.7596,-3569.1158L14003.845,-3569.105L14003.8765,-3569.1013L14003.8887,-3569.1001L14003.9115,-3569.0975L14003.9414,-3569.0926L14003.9937,-3569.0864L14004.0212,-3569.082L14004.1498,-3569.0622L14004.1683,-3569.0604L14004.2389,-3569.0479L14004.2717,-3569.0429L14004.3111,-3569.0359L14004.4763,-3569.0126L14004.5858,-3568.9944L14004.5905,-3568.9938"/>
<path content="1,京成バス（株）,津21,24.0,24.0,19.0," xlink:title="1" d="M14004.6706,-3569.1962L14004.7559,-3569.187L14004.8006,-3569.1835L14004.834,-3569.1763L14004.8529,-3569.174L14004.9897,-3569.1586L14005.0127,-3569.1559L14005.1032,-3569.1455L14005.1341,-3569.1423L14005.2329,-3569.1352L14005.2348,-3569.135"/>
<path content="1,京成バス（株）,津21,24.0,24.0,19.0," xlink:title="1" d="M14004.6706,-3569.1962L14004.6731,-3569.2924"/>
<path content="1,京成バス（株）,津31,22.0,14.0,14.0," xlink:title="1" d="M14004.5905,-3568.9938L14004.6723,-3568.9814L14004.698,-3568.9775L14004.8417,-3568.9558L14004.8703,-3568.9518L14004.8933,-3568.9485L14004.9423,-3568.9414L14004.9879,-3568.9349L14004.9923,-3568.9342L14005.0832,-3568.9218L14005.1226,-3568.9156L14005.1554,-3568.9768L14005.1743,-3569.0136L14005.1961,-3569.0506L14005.2348,-3569.135"/>
<path content="1,京成バス（株）,津31,22.0,14.0,14.0," xlink:title="1" d="M14004.5905,-3568.9938L14004.6529,-3569.0669L14004.6706,-3569.1962L14004.7559,-3569.187L14004.8006,-3569.1835L14004.834,-3569.1763L14004.8529,-3569.174L14004.9897,-3569.1586L14005.0127,-3569.1559L14005.1032,-3569.1455L14005.1341,-3569.1423L14005.2329,-3569.1352L14005.2348,-3569.135"/>
<path content="1,京成バス（株）,津31,22.0,14.0,14.0," xlink:title="1" d="M14005.2348,-3569.135L14005.3711,-3569.1159"/>
<path content="1,京成バス（株）,津31,22.0,14.0,14.0," xlink:title="1" d="M14002.0998,-3569.1672L14002.1,-3569.1698L14002.1002,-3569.1719L14002.1012,-3569.1854L14002.1558,-3569.2266L14002.2398,-3569.2908L14002.2908,-3569.3336L14002.3609,-3569.3232L14002.3888,-3569.3191L14002.5059,-3569.3013L14002.5545,-3569.294L14002.6014,-3569.2869L14002.7173,-3569.2716L14002.7634,-3569.2624L14002.8838,-3569.2478L14002.917,-3569.2428L14002.9337,-3569.2395L14002.9838,-3569.2302L14003.0169,-3569.2216L14003.0248,-3569.2201L14003.1132,-3569.1983L14003.2039,-3569.183L14003.3076,-3569.1673L14003.3132,-3569.1677L14003.3221,-3569.1646L14003.3467,-3569.1628L14003.3784,-3569.1582L14003.6612,-3569.1272L14003.7596,-3569.1158L14003.845,-3569.105L14003.8765,-3569.1013L14003.8887,-3569.1001L14003.9115,-3569.0975L14003.9414,-3569.0926L14003.9937,-3569.0864L14004.0212,-3569.082L14004.1498,-3569.0622L14004.1683,-3569.0604L14004.2389,-3569.0479L14004.2717,-3569.0429L14004.3111,-3569.0359L14004.4763,-3569.0126L14004.5858,-3568.9944L14004.5905,-3568.9938"/>
<path content="1,京成バス（株）,津32,6.0,7.0,7.0," xlink:title="1" d="M14002.0998,-3569.1672L14002.0973,-3569.157L14002.0967,-3569.1524L14002.1424,-3569.1378L14002.1929,-3569.0941L14002.2709,-3569.0366L14002.289,-3569.015L14002.2962,-3569.0064L14002.3517,-3568.9634L14002.3639,-3568.9548L14002.3826,-3568.9465L14002.3969,-3568.9368L14002.4215,-3568.9283L14002.4374,-3568.9248L14002.5509,-3568.898L14002.5646,-3568.8947L14002.5792,-3568.8918L14002.6388,-3568.8801L14002.6561,-3568.8774L14002.7219,-3568.8663L14002.7545,-3568.8538L14002.7742,-3568.8443L14002.8209,-3568.8246L14002.9224,-3568.7765L14002.9457,-3568.7662L14003.0419,-3568.721L14003.0683,-3568.7096L14003.0783,-3568.7059L14003.2485,-3568.6312"/>
<path content="1,京成バス（株）,津41,104.0,102.0,101.0," xlink:title="1" d="M14001.9895,-3569.1048L14002.0299,-3569.0795L14002.0508,-3569.0631L14002.0398,-3569.0282L14002.0214,-3568.977L14001.9909,-3568.8918L14001.9864,-3568.8788L14001.9842,-3568.8724L14001.9531,-3568.7823L14001.9304,-3568.7268L14001.9284,-3568.7117L14001.9232,-3568.6969L14001.9198,-3568.6872L14001.9152,-3568.6719L14001.9101,-3568.6566L14001.8941,-3568.5881L14001.8874,-3568.5352L14001.8758,-3568.4565L14001.8708,-3568.4231L14001.8684,-3568.4071L14001.8703,-3568.3997L14001.8646,-3568.3893L14001.9029,-3568.3938L14001.9193,-3568.3951L14001.9286,-3568.3953L14001.9566,-3568.3921L14002.0279,-3568.3773L14002.0402,-3568.3754L14002.0803,-3568.365L14002.0962,-3568.3619L14002.1072,-3568.3594"/>
<path content="1,京成バス（株）,津42,3.0,0.0,0.0," xlink:title="1" d="M14001.9895,-3569.1048L14002.0299,-3569.0795L14002.0508,-3569.0631L14002.0398,-3569.0282L14002.0214,-3568.977L14001.9909,-3568.8918L14001.9864,-3568.8788L14001.9842,-3568.8724L14001.9531,-3568.7823L14001.9304,-3568.7268L14001.9284,-3568.7117L14001.9232,-3568.6969L14001.9198,-3568.6872L14001.9152,-3568.6719L14001.9101,-3568.6566L14001.8941,-3568.5881L14001.8874,-3568.5352L14001.8758,-3568.4565L14001.8708,-3568.4231L14001.8684,-3568.4071L14001.8703,-3568.3997L14001.8646,-3568.3893L14001.9029,-3568.3938L14001.9193,-3568.3951L14001.9286,-3568.3953L14001.9566,-3568.3921L14002.0279,-3568.3773L14002.0402,-3568.3754L14002.0803,-3568.365L14002.0962,-3568.3619L14002.1072,-3568.3594"/>
<path content="1,京成バス（株）,津51,76.5,66.0,66.0," xlink:title="1" d="M14001.9895,-3569.1048L14002.0299,-3569.0795L14002.0508,-3569.0631L14002.0398,-3569.0282L14002.0214,-3568.977L14001.9909,-3568.8918L14001.9864,-3568.8788L14001.9842,-3568.8724L14001.9531,-3568.7823L14001.9304,-3568.7268L14001.9284,-3568.7117L14001.9232,-3568.6969L14001.9198,-3568.6872L14001.9152,-3568.6719L14001.9101,-3568.6566L14001.8941,-3568.5881L14001.8874,-3568.5352L14001.8758,-3568.4565L14001.8708,-3568.4231L14001.8684,-3568.4071L14001.8703,-3568.3997L14001.8646,-3568.3893L14001.8567,-3568.3594"/>
<path content="1,京成バス（株）,津52,8.5,0.0,0.0," xlink:title="1" d="M14001.9895,-3569.1048L14002.0299,-3569.0795L14002.0508,-3569.0631L14002.0398,-3569.0282L14002.0214,-3568.977L14001.9909,-3568.8918L14001.9864,-3568.8788L14001.9842,-3568.8724L14001.9531,-3568.7823L14001.9304,-3568.7268L14001.9284,-3568.7117L14001.9232,-3568.6969L14001.9198,-3568.6872L14001.9152,-3568.6719L14001.9101,-3568.6566L14001.8941,-3568.5881L14001.8874,-3568.5352L14001.8758,-3568.4565L14001.8708,-3568.4231L14001.8684,-3568.4071L14001.8703,-3568.3997L14001.8646,-3568.3893L14001.9029,-3568.3938L14001.9193,-3568.3951L14001.9286,-3568.3953L14001.9566,-3568.3921L14002.0279,-3568.3773L14002.0402,-3568.3754L14002.0803,-3568.365L14002.0962,-3568.3619L14002.1072,-3568.3594"/>
<path content="1,京成バス（株）,津53,1.0,2.0,2.0," xlink:title="1" d="M14000.986,-3568.3594L14000.9909,-3568.3728L14001.0036,-3568.3821L14001.051,-3568.3594"/>
<path content="1,京成バス（株）,津61,41.0,42.0,42.0," xlink:title="1" d="M14004.9204,-3568.5108L14004.9975,-3568.5027L14005.0242,-3568.5L14005.0774,-3568.4958L14005.1426,-3568.4926L14005.1632,-3568.4881L14005.186,-3568.4876L14005.2105,-3568.4854L14005.2648,-3568.4794L14005.3305,-3568.476L14005.3711,-3568.4724"/>
<path content="1,京成バス（株）,津61,41.0,42.0,42.0," xlink:title="1" d="M14004.9204,-3568.5108L14004.9495,-3568.5653"/>
<path content="1,京成バス（株）,津61,41.0,42.0,42.0," xlink:title="1" d="M14001.9895,-3569.1048L14002.0299,-3569.0795L14002.0508,-3569.0631L14002.0398,-3569.0282L14002.0214,-3568.977L14001.9909,-3568.8918L14001.9864,-3568.8788L14001.9842,-3568.8724L14001.9531,-3568.7823L14001.9304,-3568.7268L14001.9284,-3568.7117L14001.9232,-3568.6969L14001.9198,-3568.6872L14001.9152,-3568.6719L14001.9101,-3568.6566L14001.8941,-3568.5881L14001.8874,-3568.5352L14001.8758,-3568.4565L14001.8708,-3568.4231L14001.8684,-3568.4071L14001.8703,-3568.3997L14001.8646,-3568.3893L14001.9029,-3568.3938L14001.9193,-3568.3951L14001.9286,-3568.3953L14001.9566,-3568.3921L14002.0279,-3568.3773L14002.0402,-3568.3754L14002.0803,-3568.365L14002.0962,-3568.3619L14002.1072,-3568.3594M14004.4137,-3568.3594L14004.437,-3568.3695L14004.4832,-3568.3886L14004.5046,-3568.3988L14004.5338,-3568.4175L14004.5724,-3568.4479L14004.6309,-3568.4948L14004.6578,-3568.5146L14004.6799,-3568.5293L14004.7086,-3568.5443L14004.7256,-3568.5503L14004.7451,-3568.5519L14004.7629,-3568.5511L14004.7724,-3568.5522L14004.8523,-3568.5245L14004.8864,-3568.5161L14004.9096,-3568.5118L14004.9204,-3568.5108"/>
<path content="1,京成バス（株）,津62,13.0,9.0,9.0," xlink:title="1" d="M14004.9204,-3568.5108L14004.9975,-3568.5027L14005.0242,-3568.5L14005.0774,-3568.4958L14005.1426,-3568.4926L14005.1632,-3568.4881L14005.186,-3568.4876L14005.2105,-3568.4854L14005.2648,-3568.4794L14005.3305,-3568.476L14005.3711,-3568.4724"/>
<path content="1,京成バス（株）,津62,13.0,9.0,9.0," xlink:title="1" d="M14004.9204,-3568.5108L14004.9495,-3568.5653"/>
<path content="1,京成バス（株）,津62,13.0,9.0,9.0," xlink:title="1" d="M14001.9895,-3569.1048L14002.0299,-3569.0795L14002.0508,-3569.0631L14002.0398,-3569.0282L14002.0214,-3568.977L14001.9909,-3568.8918L14001.9864,-3568.8788L14001.9842,-3568.8724L14001.9531,-3568.7823L14001.9304,-3568.7268L14001.9284,-3568.7117L14001.9232,-3568.6969L14001.9198,-3568.6872L14001.9152,-3568.6719L14001.9101,-3568.6566L14001.8941,-3568.5881L14001.8874,-3568.5352L14001.8758,-3568.4565L14001.8708,-3568.4231L14001.8684,-3568.4071L14001.8703,-3568.3997L14001.8646,-3568.3893L14001.9029,-3568.3938L14001.9193,-3568.3951L14001.9286,-3568.3953L14001.9566,-3568.3921L14002.0279,-3568.3773L14002.0402,-3568.3754L14002.0803,-3568.365L14002.0962,-3568.3619L14002.1072,-3568.3594M14004.4137,-3568.3594L14004.437,-3568.3695L14004.4832,-3568.3886L14004.5046,-3568.3988L14004.5338,-3568.4175L14004.5724,-3568.4479L14004.6309,-3568.4948L14004.6578,-3568.5146L14004.6799,-3568.5293L14004.7086,-3568.5443L14004.7256,-3568.5503L14004.7451,-3568.5519L14004.7629,-3568.5511L14004.7724,-3568.5522L14004.8523,-3568.5245L14004.8864,-3568.5161L14004.9096,-3568.5118L14004.9204,-3568.5108"/>
<path content="1,京成バス（株）,津71,57.0,44.0,43.0," xlink:title="1" d="M14000.986,-3568.3594L14000.9909,-3568.3728L14001.0036,-3568.3821L14001.0102,-3568.3882L14001.0215,-3568.3953L14001.0618,-3568.4117L14001.0705,-3568.4163L14001.0766,-3568.4198L14001.0828,-3568.4255L14001.0885,-3568.4327L14001.0925,-3568.4409L14001.0975,-3568.4512L14001.1044,-3568.4655L14001.1123,-3568.48L14001.1198,-3568.4907L14001.1314,-3568.5038L14001.1652,-3568.5328L14001.1699,-3568.5376L14001.2009,-3568.5622L14001.2173,-3568.5768L14001.2768,-3568.6204L14001.3539,-3568.6783L14001.4347,-3568.7428L14001.4802,-3568.7782L14001.5133,-3568.8054L14001.5654,-3568.8454L14001.612,-3568.8839L14001.6604,-3568.9246L14001.6758,-3568.9361L14001.6971,-3568.9504L14001.7115,-3568.9556L14001.7678,-3568.9737L14001.7928,-3568.9841L14001.8068,-3568.9898L14001.8294,-3569.0022L14001.8483,-3569.0135L14001.8658,-3569.0249L14001.8847,-3569.038L14001.9532,-3569.0865L14001.9866,-3569.1135L14001.9895,-3569.1048"/>
<path content="1,京成バス（株）,津田沼・西船橋・新浦安～富士急ハイランド・河口湖線,0.4,0.4,0.4," xlink:title="1" d="M14000.9766,-3569.3986L14000.9857,-3569.3967L14001.0253,-3569.3817L14001.0743,-3569.3586L14001.1225,-3569.3338L14001.1606,-3569.3111L14001.1889,-3569.2646L14001.2981,-3569.2451L14001.3136,-3569.2249L14001.3194,-3569.225L14001.3356,-3569.2046L14001.3489,-3569.1979L14001.3804,-3569.1934L14001.3908,-3569.1884L14001.4204,-3569.1647L14001.4307,-3569.1608L14001.4892,-3569.1469L14001.5611,-3569.1261L14001.5455,-3569.0978L14001.5844,-3569.0813L14001.6547,-3569.0515L14001.7065,-3569.0271L14001.7319,-3569.0149L14001.7928,-3568.9841L14001.8068,-3568.9898L14001.8294,-3569.0022L14001.8483,-3569.0135L14001.8658,-3569.0249L14001.8847,-3569.038L14001.9532,-3569.0865L14001.9866,-3569.1135L14001.9895,-3569.1048L14002.0299,-3569.0795L14002.0508,-3569.0631L14002.0398,-3569.0282L14002.0214,-3568.977L14001.9909,-3568.8918L14001.9864,-3568.8788L14001.9842,-3568.8724L14001.9531,-3568.7823L14001.9304,-3568.7268L14001.9284,-3568.7117L14001.9232,-3568.6969L14001.9198,-3568.6872L14001.9152,-3568.6719L14001.9101,-3568.6566L14001.8941,-3568.5881L14001.8874,-3568.5352L14001.8758,-3568.4565L14001.8708,-3568.4231L14001.8684,-3568.4071L14001.8703,-3568.3997L14001.8646,-3568.3893L14001.9029,-3568.3938L14001.9193,-3568.3951L14001.9286,-3568.3953L14001.9566,-3568.3921L14002.0279,-3568.3773L14002.0402,-3568.3754L14002.0803,-3568.365L14002.0962,-3568.3619L14002.1072,-3568.3594"/>
<path content="1,京成バス（株）,羽田空港～津田沼駅,12.0,12.0,12.0," xlink:title="1" d="M14001.9895,-3569.1048L14002.0299,-3569.0795L14002.0508,-3569.0631L14002.0398,-3569.0282L14002.0214,-3568.977L14001.9909,-3568.8918L14001.9864,-3568.8788L14001.9842,-3568.8724L14001.9531,-3568.7823L14001.9304,-3568.7268L14001.9284,-3568.7117L14001.9232,-3568.6969L14001.9198,-3568.6872L14001.9152,-3568.6719L14001.9101,-3568.6566L14001.8941,-3568.5881L14001.8874,-3568.5352L14001.8758,-3568.4565L14001.8708,-3568.4231L14001.8684,-3568.4071L14001.8703,-3568.3997L14001.8646,-3568.3893L14001.9029,-3568.3938L14001.9193,-3568.3951L14001.9286,-3568.3953L14001.9566,-3568.3921L14002.0279,-3568.3773L14002.0402,-3568.3754L14002.0803,-3568.365L14002.0962,-3568.3619L14002.1072,-3568.3594"/>
<path content="1,京成バス（株）,船41,6.0,6.0,6.0," xlink:title="1" d="M14000.9766,-3569.5481L14000.9972,-3569.5453L14001.1334,-3569.5222L14001.1463,-3569.5184L14001.2492,-3569.5017L14001.3875,-3569.4757L14001.4779,-3569.4604L14001.4807,-3569.4537L14001.4948,-3569.4429L14001.5013,-3569.4405L14001.578,-3569.4281L14001.5959,-3569.4252L14001.6122,-3569.4229L14001.6563,-3569.417L14001.6963,-3569.4115L14001.7408,-3569.4036L14001.758,-3569.4003L14001.8302,-3569.3865L14001.8484,-3569.3906L14001.8633,-3569.3959L14001.8677,-3569.4003L14001.8898,-3569.3967L14001.927,-3569.391L14001.9449,-3569.3883L14002.0246,-3569.3751L14002.0802,-3569.3664L14002.1627,-3569.3536L14002.2182,-3569.343L14002.2276,-3569.3435L14002.2908,-3569.3336L14002.2398,-3569.2908L14002.1558,-3569.2266L14002.1012,-3569.1854L14002.1002,-3569.1719L14002.1,-3569.1698L14002.0998,-3569.1672"/>
<path content="1,宮城交通（株）,ポーラスター,1.0,1.0,1.0," xlink:title="1" d="M14000.9766,-3568.395L14000.9809,-3568.3929L14001.0036,-3568.3821L14001.051,-3568.3594"/>
<path content="1,富士急行（株）,河口湖～津田沼・西船橋・新浦安線,0.3,0.3,0.3," xlink:title="1" d="M14002.1072,-3568.3594L14002.0962,-3568.3619L14002.0803,-3568.365L14002.0402,-3568.3754L14002.0279,-3568.3773L14001.9566,-3568.3921L14001.9286,-3568.3953L14001.9193,-3568.3951L14001.9029,-3568.3938L14001.8646,-3568.3893L14001.8703,-3568.3997L14001.8684,-3568.4071L14001.8708,-3568.4231L14001.8758,-3568.4565L14001.8874,-3568.5352L14001.8941,-3568.5881L14001.9101,-3568.6566L14001.9152,-3568.6719L14001.9198,-3568.6872L14001.9232,-3568.6969L14001.9284,-3568.7117L14001.9304,-3568.7268L14001.9531,-3568.7823L14001.9842,-3568.8724L14001.9864,-3568.8788L14001.9909,-3568.8918L14002.0214,-3568.977L14002.0398,-3569.0282L14002.0508,-3569.0631L14002.0299,-3569.0795L14001.9895,-3569.1048"/>
<path content="1,富士急行（株）,河口湖～津田沼・西船橋・新浦安線,0.3,0.3,0.3," xlink:title="1" d="M14000.9766,-3569.5481L14000.9972,-3569.5453L14001.1334,-3569.5222L14001.1463,-3569.5184L14001.2492,-3569.5017L14001.3875,-3569.4757L14001.4779,-3569.4604L14001.4807,-3569.4537L14001.4948,-3569.4429L14001.5013,-3569.4405L14001.578,-3569.4281L14001.5959,-3569.4252L14001.6122,-3569.4229L14001.6563,-3569.417L14001.6963,-3569.4115L14001.7408,-3569.4036L14001.758,-3569.4003L14001.8302,-3569.3865L14001.8484,-3569.3906L14001.8633,-3569.3959L14001.8677,-3569.4003L14001.8898,-3569.3967L14001.927,-3569.391L14001.9449,-3569.3883L14002.0246,-3569.3751L14002.0802,-3569.3664L14002.1627,-3569.3536L14002.2182,-3569.343L14002.2276,-3569.3435L14002.2908,-3569.3336L14002.2398,-3569.2908L14002.1558,-3569.2266L14002.1012,-3569.1854L14002.1001,-3569.1709L14002.0998,-3569.1672L14002.0973,-3569.157L14002.0967,-3569.1524L14002.1424,-3569.1378L14002.1929,-3569.0941L14002.2709,-3569.0366L14002.289,-3569.015L14002.2962,-3569.0064L14002.3517,-3568.9634L14002.3218,-3568.929L14002.3369,-3568.9174L14002.3833,-3568.89L14002.4099,-3568.8743L14002.4328,-3568.8595L14002.4487,-3568.8493L14002.4563,-3568.8411L14002.4618,-3568.834L14002.4646,-3568.8288L14002.4666,-3568.823L14002.4666,-3568.8179L14002.4651,-3568.8118L14002.4602,-3568.8077L14002.4571,-3568.8048L14002.4249,-3568.7789L14002.4213,-3568.7756L14002.4102,-3568.7849L14002.3493,-3568.8373L14002.3257,-3568.8569L14002.2722,-3568.7533L14002.2633,-3568.7289L14002.2563,-3568.7178L14002.2515,-3568.7043L14002.2374,-3568.658L14002.2126,-3568.581L14002.1853,-3568.5012L14002.1749,-3568.4728L14002.163,-3568.4459L14002.1608,-3568.4414L14002.1469,-3568.4084L14002.1452,-3568.4026L14002.1288,-3568.3604L14002.1286,-3568.3594"/>
<path content="1,成田空港交通,仙台線,1.0,1.0,1.0," xlink:title="1" d="M14001.051,-3568.3594L14001.0036,-3568.3821L14000.9809,-3568.3929L14000.9766,-3568.395"/>
<path content="1,東京空港交通（株）,JR津田沼駅・京成津田沼駅～羽田空港線,10.5,10.5,10.5," xlink:title="1" d="M14001.9895,-3569.1048L14002.0299,-3569.0795L14002.0508,-3569.0631L14002.0398,-3569.0282L14002.0214,-3568.977L14001.9909,-3568.8918L14001.9864,-3568.8788L14001.9842,-3568.8724L14001.9531,-3568.7823L14001.9304,-3568.7268L14001.9284,-3568.7117L14001.9232,-3568.6969L14001.9198,-3568.6872L14001.9152,-3568.6719L14001.9101,-3568.6566L14001.8941,-3568.5881L14001.8874,-3568.5352L14001.8758,-3568.4565L14001.8708,-3568.4231L14001.8684,-3568.4071L14001.8703,-3568.3997L14001.8646,-3568.3893L14001.9029,-3568.3938L14001.9193,-3568.3951L14001.9286,-3568.3953L14001.9566,-3568.3921L14002.0279,-3568.3773L14002.0402,-3568.3754L14002.0803,-3568.365L14002.0962,-3568.3619L14002.1072,-3568.3594"/>
<path content="1,習志野新京成バス,津04,51.0,51.0,40.0," xlink:title="1" d="M14002.0998,-3569.1672L14002.1,-3569.1698L14002.1002,-3569.1719L14002.1012,-3569.1854L14002.1558,-3569.2266L14002.2398,-3569.2908L14002.2908,-3569.3336L14002.2969,-3569.3407L14002.3069,-3569.3555L14002.313,-3569.3688L14002.319,-3569.3802L14002.3254,-3569.3963L14002.3364,-3569.431L14002.3507,-3569.4834L14002.3597,-3569.5216L14002.3679,-3569.565L14002.3672,-3569.5703L14002.3479,-3569.6509L14002.3473,-3569.6816L14002.3322,-3569.7262L14002.3998,-3569.7349L14002.4556,-3569.7444L14002.4882,-3569.7593L14002.5011,-3569.7668L14002.555,-3569.8062L14002.5889,-3569.8331L14002.6966,-3569.9129L14002.7118,-3569.9287L14002.8297,-3570.0199L14002.8748,-3570.0548L14002.9651,-3570.126L14003.1443,-3570.2678L14003.1804,-3570.2978L14003.1957,-3570.3082L14003.2568,-3570.3577L14003.2704,-3570.3702L14003.2941,-3570.3921L14003.3028,-3570.4015L14003.3126,-3570.4145L14003.3265,-3570.4358L14003.3422,-3570.4612L14003.3543,-3570.4781L14003.3971,-3570.5351L14003.4052,-3570.5451L14003.4304,-3570.5726L14003.4541,-3570.5963L14003.4894,-3570.6275L14003.5444,-3570.6761L14003.5646,-3570.6912L14003.5729,-3570.7007L14003.5998,-3570.7208L14003.6419,-3570.7541L14003.6716,-3570.7774L14003.7105,-3570.8043L14003.7236,-3570.8132L14003.7361,-3570.821L14003.7561,-3570.8272L14003.7696,-3570.8346L14003.785,-3570.84L14003.8263,-3570.8513L14003.8871,-3570.8659L14003.961,-3570.8853L14003.9963,-3570.8942L14004.0258,-3570.9039L14004.1393,-3570.932L14004.2113,-3570.9519L14004.3294,-3570.9807L14004.3987,-3571.0007L14004.4234,-3571.009L14004.5006,-3571.0272L14004.5955,-3571.047L14004.6076,-3571.0499L14004.6476,-3571.0573L14004.7075,-3571.0704L14004.7194,-3571.0726L14004.8015,-3571.0893L14004.8848,-3571.1085L14004.9628,-3571.1293L14004.9963,-3571.1364L14005.0147,-3571.145L14005.1346,-3571.1811L14005.1919,-3571.2001L14005.2519,-3571.2196L14005.2759,-3571.2267L14005.3376,-3571.2491L14005.3589,-3571.2558L14005.3662,-3571.2581L14005.3711,-3571.2599M14005.3711,-3571.9882L14005.3233,-3571.972L14005.2646,-3571.954L14005.2447,-3571.9972L14005.2449,-3572.0081L14005.2042,-3572.0798L14005.1729,-3572.1472L14005.1618,-3572.1727L14005.1465,-3572.2054L14005.1362,-3572.2264L14005.0455,-3572.4198L14004.9773,-3572.3976L14004.9523,-3572.3903L14004.8481,-3572.3574L14004.8157,-3572.3471L14004.7472,-3572.3259L14004.7311,-3572.3183L14004.6143,-3572.2834L14004.4395,-3572.2274L14004.4294,-3572.2266L14004.326,-3572.1942L14004.2805,-3572.1797L14004.2709,-3572.1763L14004.2662,-3572.1715"/>
<path content="1,習志野新京成バス,津05,3.0,3.0,0.0," xlink:title="1" d="M14002.0998,-3569.1672L14002.1,-3569.1698L14002.1002,-3569.1719L14002.1012,-3569.1854L14002.1558,-3569.2266L14002.2398,-3569.2908L14002.2908,-3569.3336L14002.2969,-3569.3407L14002.3069,-3569.3555L14002.313,-3569.3688L14002.319,-3569.3802L14002.3254,-3569.3963L14002.3364,-3569.431L14002.3507,-3569.4834L14002.3597,-3569.5216L14002.3679,-3569.565L14002.3672,-3569.5703L14002.3479,-3569.6509L14002.3473,-3569.6816L14002.3322,-3569.7262L14002.3998,-3569.7349L14002.4556,-3569.7444L14002.4882,-3569.7593L14002.5011,-3569.7668L14002.555,-3569.8062L14002.5889,-3569.8331L14002.6966,-3569.9129L14002.7118,-3569.9287L14002.8297,-3570.0199L14002.8748,-3570.0548L14002.9651,-3570.126L14003.1443,-3570.2678L14003.1804,-3570.2978L14003.1957,-3570.3082L14003.2568,-3570.3577L14003.2704,-3570.3702L14003.2941,-3570.3921L14003.3028,-3570.4015L14003.3126,-3570.4145L14003.3265,-3570.4358L14003.3422,-3570.4612L14003.3543,-3570.4781L14003.3971,-3570.5351L14003.4052,-3570.5451L14003.4304,-3570.5726L14003.4541,-3570.5963L14003.4894,-3570.6275L14003.5444,-3570.6761L14003.5646,-3570.6912L14003.5729,-3570.7007L14003.5998,-3570.7208L14003.6419,-3570.7541L14003.6716,-3570.7774L14003.7105,-3570.8043L14003.7236,-3570.8132L14003.7361,-3570.821L14003.7561,-3570.8272L14003.7696,-3570.8346L14003.785,-3570.84L14003.8263,-3570.8513L14003.8871,-3570.8659L14003.961,-3570.8853L14003.9963,-3570.8942L14004.0258,-3570.9039L14004.1393,-3570.932L14004.2113,-3570.9519L14004.3294,-3570.9807L14004.3987,-3571.0007L14004.4234,-3571.009L14004.5006,-3571.0272L14004.5955,-3571.047L14004.6076,-3571.0499L14004.6476,-3571.0573L14004.7075,-3571.0704L14004.7194,-3571.0726L14004.8015,-3571.0893L14004.8848,-3571.1085L14004.9628,-3571.1293L14004.9963,-3571.1364L14005.0147,-3571.145L14005.1346,-3571.1811L14005.1919,-3571.2001L14005.2519,-3571.2196L14005.2759,-3571.2267L14005.3376,-3571.2491L14005.3589,-3571.2558L14005.3711,-3571.2519"/>
<path content="1,習志野新京成バス,津06,15.0,0.0,0.0," xlink:title="1" d="M14002.0998,-3569.1672L14002.1,-3569.1698L14002.1002,-3569.1719L14002.1012,-3569.1854L14002.1558,-3569.2266L14002.2398,-3569.2908L14002.2908,-3569.3336L14002.2969,-3569.3407L14002.3069,-3569.3555L14002.313,-3569.3688L14002.319,-3569.3802L14002.3254,-3569.3963L14002.3364,-3569.431L14002.3507,-3569.4834L14002.3597,-3569.5216L14002.3679,-3569.565L14002.3672,-3569.5703L14002.3479,-3569.6509L14002.3473,-3569.6816L14002.3322,-3569.7262L14002.3998,-3569.7349L14002.4556,-3569.7444L14002.4882,-3569.7593L14002.5011,-3569.7668L14002.555,-3569.8062L14002.5889,-3569.8331L14002.6966,-3569.9129L14002.7118,-3569.9287L14002.8297,-3570.0199L14002.8748,-3570.0548L14002.9651,-3570.126L14003.1443,-3570.2678L14003.1804,-3570.2978L14003.1957,-3570.3082L14003.2568,-3570.3577L14003.2704,-3570.3702L14003.2941,-3570.3921L14003.3028,-3570.4015L14003.3126,-3570.4145L14003.3265,-3570.4358L14003.3422,-3570.4612L14003.3543,-3570.4781L14003.3971,-3570.5351L14003.4052,-3570.5451L14003.4304,-3570.5726L14003.4541,-3570.5963L14003.4894,-3570.6275L14003.5444,-3570.6761L14003.5646,-3570.6912L14003.5729,-3570.7007L14003.5998,-3570.7208L14003.6419,-3570.7541L14003.6716,-3570.7774L14003.7105,-3570.8043L14003.7236,-3570.8132L14003.7361,-3570.821L14003.7561,-3570.8272L14003.7696,-3570.8346L14003.785,-3570.84L14003.8263,-3570.8513L14003.8871,-3570.8659L14003.961,-3570.8853L14003.9963,-3570.8942L14004.0258,-3570.9039L14004.1393,-3570.932L14004.2113,-3570.9519L14004.3294,-3570.9807L14004.3987,-3571.0007L14004.4234,-3571.009L14004.5006,-3571.0272L14004.5955,-3571.047L14004.6076,-3571.0499L14004.6476,-3571.0573L14004.7075,-3571.0704L14004.7194,-3571.0726L14004.8015,-3571.0893L14004.8848,-3571.1085L14004.9628,-3571.1293L14004.9963,-3571.1364L14005.0147,-3571.145L14005.1346,-3571.1811L14005.1919,-3571.2001L14005.2519,-3571.2196L14005.2759,-3571.2267L14005.3376,-3571.2491L14005.3589,-3571.2558L14005.3711,-3571.2519"/>
<path content="1,習志野新京成バス,津08,40.0,35.0,28.0," xlink:title="1" d="M14002.0998,-3569.1672L14002.1,-3569.1698L14002.1002,-3569.1719L14002.1012,-3569.1854L14002.1558,-3569.2266L14002.2398,-3569.2908L14002.2908,-3569.3336L14002.2969,-3569.3407L14002.3069,-3569.3555L14002.313,-3569.3688L14002.319,-3569.3802L14002.3254,-3569.3963L14002.3364,-3569.431L14002.3507,-3569.4834L14002.3597,-3569.5216L14002.3679,-3569.565L14002.3672,-3569.5703L14002.3479,-3569.6509L14002.3473,-3569.6816L14002.3322,-3569.7262L14002.3998,-3569.7349L14002.4556,-3569.7444L14002.4882,-3569.7593L14002.5011,-3569.7668L14002.555,-3569.8062L14002.5889,-3569.8331L14002.6966,-3569.9129L14002.7118,-3569.9287L14002.8297,-3570.0199L14002.8748,-3570.0548L14002.9651,-3570.126L14003.1443,-3570.2678L14003.1804,-3570.2978L14003.1957,-3570.3082L14003.2568,-3570.3577L14003.2704,-3570.3702L14003.2941,-3570.3921L14003.3028,-3570.4015L14003.3126,-3570.4145L14003.3265,-3570.4358L14003.3422,-3570.4612L14003.3543,-3570.4781L14003.3971,-3570.5351L14003.4052,-3570.5451L14003.4304,-3570.5726L14003.4541,-3570.5963L14003.4894,-3570.6275L14003.5444,-3570.6761L14003.5646,-3570.6912L14003.5729,-3570.7007L14003.5998,-3570.7208L14003.6419,-3570.7541L14003.6716,-3570.7774L14003.7105,-3570.8043L14003.7236,-3570.8132L14003.7361,-3570.821L14003.7561,-3570.8272L14003.7696,-3570.8346L14003.785,-3570.84L14003.8263,-3570.8513L14003.8871,-3570.8659L14003.961,-3570.8853L14003.9963,-3570.8942L14004.0258,-3570.9039L14004.1393,-3570.932L14004.2113,-3570.9519L14004.3294,-3570.9807L14004.3987,-3571.0007L14004.4234,-3571.009L14004.5006,-3571.0272L14004.5955,-3571.047L14004.6076,-3571.0499L14004.6476,-3571.0573L14004.7075,-3571.0704L14004.7194,-3571.0726L14004.7453,-3570.9663L14004.7809,-3570.816L14004.7887,-3570.7904L14004.7948,-3570.7904L14004.8121,-3570.7297L14004.8171,-3570.7042L14004.8247,-3570.6659L14004.8285,-3570.6393L14004.8295,-3570.6208L14004.8295,-3570.6043L14004.8258,-3570.5952L14004.8224,-3570.5885L14004.8133,-3570.5737L14004.807,-3570.5655L14004.7937,-3570.5496L14004.7282,-3570.4647L14004.7157,-3570.4477L14004.6758,-3570.3936L14004.6058,-3570.3079L14004.5966,-3570.295L14004.5979,-3570.2851L14004.6038,-3570.2763L14004.6369,-3570.252L14004.6562,-3570.2436L14004.6713,-3570.239L14004.7281,-3570.2329L14004.7603,-3570.2303L14004.764,-3570.23L14004.8371,-3570.2251L14004.8672,-3570.2227L14004.8881,-3570.2198L14004.9093,-3570.2131L14004.9626,-3570.2013L14004.9695,-3570.1936L14004.9826,-3570.1893L14005.062,-3570.1623L14005.0921,-3570.1519L14005.12,-3570.1423L14005.1298,-3570.1361L14005.1391,-3570.1284L14005.1702,-3570.0964"/>
<path content="1,習志野新京成バス,津10,95.0,62.0,67.0," xlink:title="1" d="M14002.0998,-3569.1672L14002.1,-3569.1698L14002.1002,-3569.1719L14002.1012,-3569.1854L14002.1558,-3569.2266L14002.2398,-3569.2908L14002.2908,-3569.3336L14002.2969,-3569.3407L14002.3069,-3569.3555L14002.313,-3569.3688L14002.319,-3569.3802L14002.3254,-3569.3963L14002.3364,-3569.431L14002.3507,-3569.4834L14002.3597,-3569.5216L14002.3679,-3569.565L14002.3672,-3569.5703L14002.3479,-3569.6509L14002.3473,-3569.6816L14002.3322,-3569.7262L14002.1268,-3569.6953L14001.9441,-3569.669L14001.9407,-3569.6921L14001.9346,-3569.7393L14001.9335,-3569.7539L14001.9332,-3569.7767L14001.9352,-3569.7954L14001.9367,-3569.8017L14001.9408,-3569.8138L14001.9643,-3569.8525L14001.9677,-3569.8569L14001.9705,-3569.8623L14001.9746,-3569.8778L14001.9795,-3569.907L14001.9824,-3569.9173L14001.9847,-3569.9261L14001.987,-3569.933L14001.994,-3569.9511L14001.9963,-3569.962L14002.0021,-3569.9694L14002.0137,-3569.9916L14002.016,-3569.9953L14002.0215,-3570.0027L14002.0476,-3570.0404L14002.0655,-3570.0633L14002.1084,-3570.1141L14002.1345,-3570.1445L14002.1653,-3570.1826L14002.2074,-3570.2321L14002.2368,-3570.2651L14002.2452,-3570.2726L14002.258,-3570.2839L14002.271,-3570.2924L14002.2803,-3570.2969L14002.2906,-3570.3003L14002.3056,-3570.3038L14002.3204,-3570.3064L14002.331,-3570.3072L14002.442,-3570.3076L14002.4507,-3570.3061L14002.5881,-3570.3093L14002.5826,-3570.3844L14002.5692,-3570.4694L14002.5665,-3570.4901L14002.5583,-3570.5599L14002.5526,-3570.6104"/>
<path content="1,習志野新京成バス,津11,13.0,21.0,10.0," xlink:title="1" d="M14002.0998,-3569.1672L14002.1,-3569.1698L14002.1002,-3569.1719L14002.1012,-3569.1854L14002.1558,-3569.2266L14002.2398,-3569.2908L14002.2908,-3569.3336L14002.2969,-3569.3407L14002.3069,-3569.3555L14002.313,-3569.3688L14002.319,-3569.3802L14002.3254,-3569.3963L14002.3364,-3569.431L14002.3507,-3569.4834L14002.3597,-3569.5216L14002.3679,-3569.565L14002.3672,-3569.5703L14002.3479,-3569.6509L14002.3473,-3569.6816L14002.3322,-3569.7262L14002.1268,-3569.6953L14001.9441,-3569.669L14001.9407,-3569.6921L14001.9346,-3569.7393L14001.9335,-3569.7539L14001.9332,-3569.7767L14001.9352,-3569.7954L14001.9367,-3569.8017L14001.9408,-3569.8138L14001.9643,-3569.8525L14001.9677,-3569.8569L14001.9705,-3569.8623L14001.9746,-3569.8778L14001.9795,-3569.907L14001.9824,-3569.9173L14001.9847,-3569.9261L14001.987,-3569.933L14001.994,-3569.9511L14001.9963,-3569.962L14002.0021,-3569.9694L14002.0137,-3569.9916L14002.016,-3569.9953L14002.0215,-3570.0027L14002.0476,-3570.0404L14002.0655,-3570.0633L14002.1084,-3570.1141L14002.1345,-3570.1445L14002.1653,-3570.1826L14002.2074,-3570.2321L14002.2368,-3570.2651L14002.2452,-3570.2726L14002.258,-3570.2839L14002.271,-3570.2924L14002.2803,-3570.2969L14002.2906,-3570.3003L14002.3056,-3570.3038L14002.3204,-3570.3064L14002.331,-3570.3072L14002.442,-3570.3076L14002.4507,-3570.3061"/>
<path content="1,習志野新京成バス,津14,16.0,13.0,8.0," xlink:title="1" d="M14002.0998,-3569.1672L14002.1,-3569.1698L14002.1002,-3569.1719L14002.1012,-3569.1854L14002.1558,-3569.2266L14002.2398,-3569.2908L14002.2908,-3569.3336L14002.2969,-3569.3407L14002.3069,-3569.3555L14002.313,-3569.3688L14002.319,-3569.3802L14002.3254,-3569.3963L14002.3364,-3569.431L14002.3507,-3569.4834L14002.3597,-3569.5216L14002.3679,-3569.565L14002.3672,-3569.5703L14002.3479,-3569.6509L14002.3473,-3569.6816L14002.3322,-3569.7262L14002.1268,-3569.6953L14001.9441,-3569.669L14001.9407,-3569.6921L14001.9346,-3569.7393L14001.9335,-3569.7539L14001.9332,-3569.7767L14001.9352,-3569.7954L14001.9367,-3569.8017L14001.9408,-3569.8138L14001.9643,-3569.8525L14001.9677,-3569.8569L14001.9705,-3569.8623L14001.9746,-3569.8778L14001.9795,-3569.907L14001.9824,-3569.9173L14001.9847,-3569.9261L14001.987,-3569.933L14001.994,-3569.9511L14001.9963,-3569.962L14002.0021,-3569.9694L14002.0137,-3569.9916L14002.016,-3569.9953L14002.0215,-3570.0027L14002.0476,-3570.0404L14002.0655,-3570.0633L14002.1084,-3570.1141L14002.1345,-3570.1445L14002.1653,-3570.1826L14002.2074,-3570.2321L14002.2368,-3570.2651L14002.2452,-3570.2726L14002.258,-3570.2839L14002.271,-3570.2924L14002.2803,-3570.2969L14002.2906,-3570.3003L14002.3056,-3570.3038L14002.3204,-3570.3064L14002.331,-3570.3072L14002.442,-3570.3076L14002.4507,-3570.3061L14002.5881,-3570.3093L14002.5826,-3570.3844L14002.5692,-3570.4694L14002.5665,-3570.4901L14002.5583,-3570.5599L14002.5526,-3570.6104L14002.5441,-3570.6663L14002.5466,-3570.6928L14002.547,-3570.7069L14002.5462,-3570.7239L14002.5447,-3570.7412L14002.5428,-3570.7575L14002.5377,-3570.7844L14002.5339,-3570.8L14002.5305,-3570.81L14002.5253,-3570.8247L14002.5079,-3570.8587L14002.5056,-3570.867L14002.4769,-3570.8786L14002.4542,-3570.89L14002.4475,-3570.8956L14002.4404,-3570.9032L14002.4292,-3570.9128L14002.4118,-3570.9247L14002.3945,-3570.9371L14002.3852,-3570.9426L14002.3311,-3570.9706L14002.3021,-3570.9631L14002.2542,-3570.9476L14002.1872,-3570.9273L14002.1352,-3570.9101L14002.1284,-3570.9077L14002.0632,-3570.8814L14002.0313,-3570.868L14001.9853,-3570.8466L14001.9689,-3570.8409L14001.9607,-3570.8381L14001.9447,-3570.833L14001.9352,-3570.8338L14001.9096,-3570.8322L14001.8927,-3570.8317L14001.814,-3570.8299L14001.7875,-3570.8302L14001.75,-3570.8327L14001.7071,-3570.8357L14001.645,-3570.8422L14001.6052,-3570.8471L14001.5776,-3570.852L14001.5586,-3570.8576L14001.5516,-3570.8627L14001.5332,-3570.8691L14001.52,-3570.8751L14001.5086,-3570.8766L14001.4853,-3570.8779L14001.4462,-3570.8791L14001.3794,-3570.8812L14001.2664,-3570.8827L14001.2452,-3570.8807L14001.2313,-3570.8723L14001.222,-3570.8684L14001.2001,-3570.8555L14001.1949,-3570.8514L14001.1748,-3570.8429L14001.1345,-3570.83L14001.1111,-3570.8267L14001.0949,-3570.8262L14001.0612,-3570.8283L14001.0536,-3570.8279L14001.0154,-3570.8188L14000.9766,-3570.8109"/>
<path content="1,習志野新京成バス,津16,75.0,61.0,41.0," xlink:title="1" d="M14002.0998,-3569.1672L14002.1,-3569.1698L14002.1002,-3569.1719L14002.1012,-3569.1854L14002.1558,-3569.2266L14002.2398,-3569.2908L14002.2908,-3569.3336L14002.2969,-3569.3407L14002.3069,-3569.3555L14002.313,-3569.3688L14002.319,-3569.3802L14002.3254,-3569.3963L14002.3364,-3569.431L14002.3507,-3569.4834L14002.3597,-3569.5216L14002.3679,-3569.565L14002.3672,-3569.5703L14002.3479,-3569.6509L14002.3473,-3569.6816L14002.3322,-3569.7262L14002.3998,-3569.7349L14002.4556,-3569.7444L14002.4882,-3569.7593L14002.5011,-3569.7668L14002.555,-3569.8062L14002.5889,-3569.8331L14002.6966,-3569.9129L14002.7118,-3569.9287L14002.8297,-3570.0199L14002.8748,-3570.0548L14002.9651,-3570.126L14003.1443,-3570.2678L14003.1804,-3570.2978L14003.1957,-3570.3082L14003.2568,-3570.3577L14003.2704,-3570.3702L14003.2941,-3570.3921L14003.3028,-3570.4015L14003.3126,-3570.4145L14003.3265,-3570.4358L14003.3422,-3570.4612L14003.3543,-3570.4781L14003.3971,-3570.5351L14003.4052,-3570.5451L14003.4304,-3570.5726L14003.4541,-3570.5963L14003.4894,-3570.6275L14003.5444,-3570.6761L14003.5646,-3570.6912L14003.5729,-3570.7007L14003.5998,-3570.7208L14003.6419,-3570.7541L14003.6716,-3570.7774L14003.7105,-3570.8043L14003.7236,-3570.8132L14003.7361,-3570.821L14003.7561,-3570.8272L14003.7696,-3570.8346L14003.785,-3570.84L14003.8263,-3570.8513L14003.8871,-3570.8659L14003.961,-3570.8853L14003.9963,-3570.8942L14004.0258,-3570.9039L14004.1393,-3570.932L14004.2113,-3570.9519L14004.3294,-3570.9807L14004.3987,-3571.0007L14004.4234,-3571.009L14004.5006,-3571.0272L14004.5955,-3571.047L14004.6076,-3571.0499L14004.6476,-3571.0573L14004.7075,-3571.0704L14004.7194,-3571.0726L14004.8015,-3571.0893L14004.8848,-3571.1085L14004.9628,-3571.1293L14004.9963,-3571.1364L14005.0147,-3571.145L14005.1346,-3571.1811L14005.1919,-3571.2001L14005.2519,-3571.2196L14005.2759,-3571.2267L14005.3376,-3571.2491L14005.3589,-3571.2558L14005.3662,-3571.2581L14005.3711,-3571.2599"/>
<path content="1,習志野新京成バス,津17,54.0,34.0,32.0," xlink:title="1" d="M14002.0998,-3569.1672L14002.0973,-3569.157L14002.0967,-3569.1524L14002.1424,-3569.1378L14002.1929,-3569.0941L14002.2709,-3569.0366L14002.289,-3569.015L14002.2962,-3569.0064L14002.3517,-3568.9634L14002.3639,-3568.9548L14002.3826,-3568.9465L14002.3969,-3568.9368L14002.4215,-3568.9283L14002.4374,-3568.9248L14002.5509,-3568.898L14002.5646,-3568.8947L14002.5792,-3568.8918L14002.6388,-3568.8801L14002.6561,-3568.8774L14002.7219,-3568.8663L14002.7176,-3568.8774L14002.7106,-3568.892L14002.6813,-3568.9399L14002.6769,-3568.9488L14002.6733,-3568.9608L14002.6716,-3568.9716L14002.672,-3568.9903L14002.6742,-3569.0103L14002.6822,-3569.0363L14002.6908,-3569.0645L14002.7135,-3569.1239L14002.7254,-3569.1568L14002.7634,-3569.2624L14002.7702,-3569.2717L14002.8363,-3569.4157L14002.8462,-3569.4367L14002.87,-3569.4888L14002.8963,-3569.5495L14002.9023,-3569.557L14002.9178,-3569.5918L14002.9489,-3569.6591L14002.9659,-3569.6961L14002.9822,-3569.7309L14002.9972,-3569.7649L14003.0051,-3569.7801L14003.0552,-3569.8874L14003.0903,-3569.965L14003.0931,-3569.974L14003.0936,-3569.9796L14003.089,-3569.9989L14003.0776,-3570.0361L14003.0724,-3570.0421L14003.1157,-3570.0733L14003.1224,-3570.0772L14003.1816,-3570.1193L14003.1958,-3570.1323L14003.2184,-3570.1608L14003.222,-3570.1603L14003.2684,-3570.1358L14003.2941,-3570.123L14003.3346,-3570.1126L14003.3615,-3570.1082L14003.3954,-3570.1032L14003.4016,-3570.1021L14003.4066,-3570.1007L14003.4122,-3570.0987L14003.4421,-3570.0864L14003.4453,-3570.0852L14003.4504,-3570.084L14003.4558,-3570.0834L14003.4759,-3570.0851L14003.4822,-3570.0862L14003.4877,-3570.0879L14003.4961,-3570.0913L14003.5036,-3570.0947L14003.51,-3570.099L14003.514,-3570.1017L14003.5211,-3570.109L14003.5286,-3570.1186L14003.5614,-3570.0993L14003.5843,-3570.0849L14003.6273,-3570.0549L14003.6644,-3570.0145L14003.7814,-3569.9792L14003.8004,-3569.9984L14003.8236,-3570.0234L14003.8408,-3570.0389L14003.854,-3570.0496L14003.8795,-3570.0648L14003.9158,-3570.0923L14003.9488,-3570.1202L14003.9871,-3570.1517"/>
<path content="1,習志野新京成バス,緑03,6.0,7.0,7.0," xlink:title="1" d="M14002.0998,-3569.1672L14002.1,-3569.1698L14002.1002,-3569.1719L14002.1012,-3569.1854L14002.1558,-3569.2266L14002.2398,-3569.2908L14002.2908,-3569.3336L14002.2969,-3569.3407L14002.3069,-3569.3555L14002.313,-3569.3688L14002.319,-3569.3802L14002.3254,-3569.3963L14002.3364,-3569.431L14002.3507,-3569.4834L14002.3597,-3569.5216L14002.3679,-3569.565L14002.3672,-3569.5703L14002.3479,-3569.6509L14002.3473,-3569.6816L14002.3322,-3569.7262L14002.3998,-3569.7349L14002.4556,-3569.7444L14002.4882,-3569.7593L14002.5011,-3569.7668L14002.555,-3569.8062L14002.5889,-3569.8331L14002.6966,-3569.9129L14002.7118,-3569.9287L14002.8297,-3570.0199L14002.8748,-3570.0548L14002.9651,-3570.126L14003.1443,-3570.2678L14003.1804,-3570.2978L14003.1957,-3570.3082L14003.2568,-3570.3577L14003.2704,-3570.3702L14003.2941,-3570.3921L14003.3028,-3570.4015L14003.3126,-3570.4145L14003.3265,-3570.4358L14003.3422,-3570.4612L14003.3543,-3570.4781L14003.3971,-3570.5351L14003.4052,-3570.5451L14003.4304,-3570.5726L14003.4541,-3570.5963L14003.4894,-3570.6275L14003.5444,-3570.6761L14003.5646,-3570.6912L14003.5729,-3570.7007L14003.5998,-3570.7208L14003.6419,-3570.7541L14003.6716,-3570.7774L14003.7105,-3570.8043L14003.7236,-3570.8132L14003.7361,-3570.821L14003.7561,-3570.8272L14003.7696,-3570.8346L14003.785,-3570.84L14003.8263,-3570.8513L14003.8871,-3570.8659L14003.961,-3570.8853L14003.9963,-3570.8942L14004.0258,-3570.9039L14004.1393,-3570.932L14004.2113,-3570.9519L14004.3294,-3570.9807L14004.3987,-3571.0007L14004.4234,-3571.009L14004.5006,-3571.0272L14004.5955,-3571.047L14004.6076,-3571.0499L14004.6476,-3571.0573L14004.7075,-3571.0704L14004.7194,-3571.0726L14004.8015,-3571.0893L14004.8848,-3571.1085L14004.9628,-3571.1293L14004.9963,-3571.1364L14005.0147,-3571.145L14005.1346,-3571.1811L14005.1919,-3571.2001L14005.2519,-3571.2196L14005.2759,-3571.2267L14005.3376,-3571.2491L14005.3589,-3571.2558L14005.3662,-3571.2581L14005.3711,-3571.2599"/>
<path content="1,習志野新京成バス,習06,12.0,10.0,11.0," xlink:title="1" d="M14004.2662,-3572.1715L14004.2709,-3572.1763L14004.2805,-3572.1797L14004.326,-3572.1942L14004.4294,-3572.2266L14004.4395,-3572.2274L14004.6143,-3572.2834L14004.7311,-3572.3183L14004.7472,-3572.3259L14004.8157,-3572.3471L14004.8481,-3572.3574L14004.9523,-3572.3903L14004.9773,-3572.3976L14005.0455,-3572.4198L14005.1362,-3572.2264L14005.1465,-3572.2054L14005.1618,-3572.1727L14005.1729,-3572.1472L14005.2042,-3572.0798L14005.2449,-3572.0081L14005.2447,-3571.9972L14005.2646,-3571.954L14005.3491,-3571.7793L14005.3711,-3571.7327M14005.3711,-3571.2599L14005.3662,-3571.2581L14005.3589,-3571.2558L14005.3711,-3571.2519"/>
<path content="1,習志野新京成バス,習07,15.0,11.0,12.0," xlink:title="1" d="M14005.3711,-3571.2519L14005.3589,-3571.2558L14005.3662,-3571.2581L14005.3711,-3571.2599M14005.3711,-3571.7327L14005.3491,-3571.7793L14005.2646,-3571.954L14005.2447,-3571.9972L14005.2449,-3572.0081L14005.2042,-3572.0798L14005.1729,-3572.1472L14005.1618,-3572.1727L14005.1465,-3572.2054L14005.1362,-3572.2264L14005.0455,-3572.4198L14004.9773,-3572.3976L14004.9523,-3572.3903L14004.8481,-3572.3574L14004.8157,-3572.3471L14004.7472,-3572.3259L14004.7311,-3572.3183L14004.6143,-3572.2834L14004.4395,-3572.2274L14004.4294,-3572.2266L14004.326,-3572.1942L14004.2805,-3572.1797L14004.2709,-3572.1763L14004.2662,-3572.1715"/>
<path content="1,船橋新京成バス,セ03,24.0,16.0,16.0," xlink:title="1" d="M14004.2662,-3572.1715L14004.2709,-3572.1763L14004.2805,-3572.1797L14004.326,-3572.1942L14004.4294,-3572.2266L14004.4395,-3572.2274L14004.6143,-3572.2834L14004.7311,-3572.3183L14004.7472,-3572.3259L14004.8157,-3572.3471L14004.8481,-3572.3574L14004.9523,-3572.3903L14004.9773,-3572.3976L14005.0455,-3572.4198L14004.9909,-3572.5394L14004.9469,-3572.6294L14004.9269,-3572.6706L14004.9151,-3572.6948L14004.9065,-3572.7145L14004.8937,-3572.7446L14004.8873,-3572.7539"/>
<path content="1,船橋新京成バス,小室01,13.0,14.0,14.0," xlink:title="1" d="M14004.2662,-3572.1715L14004.2709,-3572.1763L14004.2805,-3572.1797L14004.326,-3572.1942L14004.4294,-3572.2266L14004.4395,-3572.2274L14004.6143,-3572.2834L14004.7311,-3572.3183L14004.7472,-3572.3259L14004.8157,-3572.3471L14004.8481,-3572.3574L14004.9523,-3572.3903L14004.9773,-3572.3976L14005.0455,-3572.4198L14004.9909,-3572.5394L14004.9469,-3572.6294L14004.9269,-3572.6706L14004.9151,-3572.6948L14004.9065,-3572.7145L14004.8937,-3572.7446L14004.8873,-3572.7539"/>
<path content="1,船橋新京成バス,東01,28.0,25.0,25.0," xlink:title="1" d="M14000.9766,-3570.3385L14000.9981,-3570.3398L14001.0212,-3570.342L14001.0729,-3570.3498L14001.0602,-3570.3956L14001.0328,-3570.5046L14001.0288,-3570.5232L14001.0251,-3570.5408L14001.0236,-3570.5474L14000.9996,-3570.6424L14000.9766,-3570.7405M14000.9766,-3570.8109L14001.0154,-3570.8188L14001.0536,-3570.8279L14001.0612,-3570.8283L14001.0949,-3570.8262L14001.1111,-3570.8267L14001.1345,-3570.83L14001.1748,-3570.8429L14001.1949,-3570.8514L14001.2001,-3570.8555L14001.222,-3570.8684L14001.2313,-3570.8723L14001.2452,-3570.8807L14001.2777,-3570.9019L14001.3018,-3570.9179L14001.3133,-3570.9305L14001.3192,-3570.9386L14001.3216,-3570.9478L14001.3217,-3570.9584L14001.3199,-3570.9688L14001.3164,-3570.9837L14001.3128,-3571.0081L14001.3122,-3571.018L14001.3135,-3571.0293L14001.3215,-3571.0819L14001.3241,-3571.1077L14001.3254,-3571.1407L14001.3255,-3571.1834L14001.3239,-3571.209L14001.3243,-3571.2158L14001.3277,-3571.2278L14001.3587,-3571.2742L14001.3668,-3571.2856L14001.3737,-3571.2971L14001.3794,-3571.3099L14001.3866,-3571.332L14001.3925,-3571.3536L14001.4068,-3571.4071L14001.423,-3571.4659L14001.4271,-3571.4809L14001.4318,-3571.4917L14001.4342,-3571.4995L14001.4397,-3571.506L14001.4582,-3571.5353L14001.4645,-3571.5506L14001.4671,-3571.5643L14001.4675,-3571.5767L14001.4675,-3571.5956L14001.5238,-3571.6433L14001.5731,-3571.6824L14001.6072,-3571.7107L14001.6304,-3571.7284L14001.7183,-3571.7946L14001.7393,-3571.8095L14001.7578,-3571.8217L14001.781,-3571.8377L14001.8046,-3571.8553L14001.8619,-3571.7858L14001.8725,-3571.7726L14001.9024,-3571.7366L14001.9109,-3571.7263L14001.9181,-3571.7174L14001.9455,-3571.6844L14001.9839,-3571.6396L14001.9958,-3571.6263L14002.0381,-3571.5744L14002.0431,-3571.5684L14002.0413,-3571.5671L14002.0954,-3571.5031L14002.1541,-3571.4407"/>
<path content="1,船橋新京成バス,東50,33.0,25.0,25.0," xlink:title="1" d="M14000.9766,-3570.3385L14000.9981,-3570.3398L14001.0212,-3570.342L14001.0729,-3570.3498L14001.0602,-3570.3956L14001.0328,-3570.5046L14001.0288,-3570.5232L14001.0251,-3570.5408L14001.0236,-3570.5474L14000.9996,-3570.6424L14000.9766,-3570.7405M14000.9766,-3572.5036L14000.9836,-3572.5061L14000.9766,-3572.5168M14000.9766,-3572.6387L14000.9922,-3572.6413L14001.0096,-3572.644L14001.0226,-3572.6448L14001.0531,-3572.6448L14001.0796,-3572.6458L14001.0914,-3572.647L14001.1036,-3572.649L14001.1147,-3572.6533L14001.124,-3572.6582L14001.148,-3572.6809L14001.157,-3572.6878L14001.1674,-3572.6951L14001.1878,-3572.7083L14001.2297,-3572.7326L14001.2459,-3572.7405L14001.262,-3572.7466L14001.2718,-3572.749L14001.2819,-3572.7506L14001.3102,-3572.7526L14001.3147,-3572.7539M14001.4181,-3572.7539L14001.4242,-3572.7455L14001.4292,-3572.7322L14001.4852,-3572.7539"/>
<path content="1,船橋新京成バス,習02,8.0,6.0,6.0," xlink:title="1" d="M14004.2662,-3572.1715L14004.2709,-3572.1763L14004.2805,-3572.1797L14004.326,-3572.1942L14004.4294,-3572.2266L14004.4395,-3572.2274L14004.6143,-3572.2834L14004.7311,-3572.3183L14004.7472,-3572.3259L14004.8157,-3572.3471L14004.8481,-3572.3574L14004.9523,-3572.3903L14004.9773,-3572.3976L14005.0455,-3572.4198L14004.9909,-3572.5394L14004.9469,-3572.6294L14004.9269,-3572.6706L14004.9151,-3572.6948L14004.9065,-3572.7145L14004.8937,-3572.7446L14004.8873,-3572.7539"/>
<path content="1,船橋新京成バス,習03,28.0,20.0,20.0," xlink:title="1" d="M14004.2662,-3572.1715L14004.2709,-3572.1763L14004.2805,-3572.1797L14004.326,-3572.1942L14004.4294,-3572.2266L14004.4395,-3572.2274L14004.6143,-3572.2834L14004.7311,-3572.3183L14004.7472,-3572.3259L14004.8157,-3572.3471L14004.8481,-3572.3574L14004.9523,-3572.3903L14004.9773,-3572.3976L14005.0455,-3572.4198L14004.9909,-3572.5394L14004.9469,-3572.6294L14004.9269,-3572.6706L14004.9151,-3572.6948L14004.9065,-3572.7145L14004.8937,-3572.7446L14004.8873,-3572.7539"/>
<path content="1,船橋新京成バス,習04,52.0,49.0,46.0," xlink:title="1" d="M14004.2662,-3572.1715L14004.2709,-3572.1763L14004.2805,-3572.1797L14004.326,-3572.1942L14004.4294,-3572.2266L14004.4395,-3572.2274L14004.6143,-3572.2834L14004.7311,-3572.3183L14004.7472,-3572.3259L14004.8157,-3572.3471L14004.8481,-3572.3574L14004.9523,-3572.3903L14004.9773,-3572.3976L14005.0455,-3572.4198L14004.9909,-3572.5394L14004.9469,-3572.6294L14004.9269,-3572.6706L14004.9151,-3572.6948L14004.9065,-3572.7145L14004.8937,-3572.7446L14004.8873,-3572.7539"/>
<path content="1,船橋新京成バス,船21,3.0,4.0,4.0," xlink:title="1" d="M14000.9766,-3570.3385L14000.9981,-3570.3398L14001.0212,-3570.342L14001.0729,-3570.3498L14001.0602,-3570.3956L14001.0328,-3570.5046L14001.0288,-3570.5232L14001.0251,-3570.5408L14001.0236,-3570.5474L14000.9996,-3570.6424L14000.9766,-3570.7405M14000.9766,-3570.8109L14001.0154,-3570.8188L14001.0536,-3570.8279L14001.0612,-3570.8283L14001.0949,-3570.8262L14001.1111,-3570.8267L14001.1345,-3570.83L14001.1748,-3570.8429L14001.1949,-3570.8514L14001.2001,-3570.8555L14001.222,-3570.8684L14001.2313,-3570.8723L14001.2452,-3570.8807L14001.2777,-3570.9019L14001.3018,-3570.9179L14001.3133,-3570.9305L14001.3192,-3570.9386L14001.3216,-3570.9478L14001.3217,-3570.9584L14001.3199,-3570.9688L14001.3164,-3570.9837L14001.3128,-3571.0081L14001.3122,-3571.018L14001.3135,-3571.0293L14001.3215,-3571.0819L14001.3241,-3571.1077L14001.3254,-3571.1407L14001.3255,-3571.1834L14001.3239,-3571.209L14001.3243,-3571.2158L14001.3277,-3571.2278L14001.3587,-3571.2742L14001.3668,-3571.2856L14001.3737,-3571.2971L14001.3794,-3571.3099L14001.3866,-3571.332L14001.3925,-3571.3536L14001.4068,-3571.4071L14001.423,-3571.4659L14001.4271,-3571.4809L14001.4318,-3571.4917L14001.4342,-3571.4995L14001.4397,-3571.506L14001.4582,-3571.5353L14001.4645,-3571.5506L14001.4671,-3571.5643L14001.4675,-3571.5767L14001.4675,-3571.5956L14001.5238,-3571.6433L14001.5731,-3571.6824L14001.6072,-3571.7107L14001.6304,-3571.7284L14001.7183,-3571.7946L14001.7393,-3571.8095L14001.7578,-3571.8217L14001.781,-3571.8377L14001.8046,-3571.8553L14001.8587,-3571.9062L14001.8773,-3571.925L14001.928,-3571.9885L14001.9477,-3572.0129L14001.964,-3572.0304L14001.9837,-3572.0495L14002.0286,-3572.0917L14002.054,-3572.1153L14002.1218,-3572.1707L14002.1344,-3572.1812L14002.1957,-3572.2344L14002.2166,-3572.2474L14002.2316,-3572.2519L14002.3636,-3572.284L14002.3741,-3572.2866L14002.3887,-3572.2929L14002.451,-3572.3146L14002.4952,-3572.3326L14002.5416,-3572.3539L14002.5705,-3572.3709L14002.5926,-3572.3837L14002.6474,-3572.4224L14002.7022,-3572.462L14002.7435,-3572.4925L14002.7624,-3572.5062L14002.767,-3572.509L14002.78,-3572.5215L14002.8003,-3572.534L14002.8297,-3572.5549L14002.839,-3572.5608L14002.8532,-3572.5699L14002.8732,-3572.5807L14002.8934,-3572.5888L14002.9179,-3572.5974L14002.9419,-3572.6049L14002.9591,-3572.6128L14002.9787,-3572.6143L14003.0822,-3572.6401L14003.1085,-3572.6467L14003.1361,-3572.6534L14003.2273,-3572.6752L14003.3492,-3572.708L14003.3903,-3572.7242L14003.4161,-3572.7372L14003.4492,-3572.747L14003.4685,-3572.7539"/>
<path content="1,船橋新京成バス,船22,14.0,19.0,19.0," xlink:title="1" d="M14000.9766,-3570.3385L14000.9981,-3570.3398L14001.0212,-3570.342L14001.0729,-3570.3498L14001.0602,-3570.3956L14001.0328,-3570.5046L14001.0288,-3570.5232L14001.0251,-3570.5408L14001.0236,-3570.5474L14000.9996,-3570.6424L14000.9766,-3570.7405M14000.9766,-3570.8109L14001.0154,-3570.8188L14001.0536,-3570.8279L14001.0612,-3570.8283L14001.0949,-3570.8262L14001.1111,-3570.8267L14001.1345,-3570.83L14001.1748,-3570.8429L14001.1949,-3570.8514L14001.2001,-3570.8555L14001.222,-3570.8684L14001.2313,-3570.8723L14001.2452,-3570.8807L14001.2777,-3570.9019L14001.3018,-3570.9179L14001.3133,-3570.9305L14001.3192,-3570.9386L14001.3216,-3570.9478L14001.3217,-3570.9584L14001.3199,-3570.9688L14001.3164,-3570.9837L14001.3128,-3571.0081L14001.3122,-3571.018L14001.3135,-3571.0293L14001.3215,-3571.0819L14001.3241,-3571.1077L14001.3254,-3571.1407L14001.3255,-3571.1834L14001.3239,-3571.209L14001.3243,-3571.2158L14001.3277,-3571.2278L14001.3587,-3571.2742L14001.3668,-3571.2856L14001.3737,-3571.2971L14001.3794,-3571.3099L14001.3866,-3571.332L14001.3925,-3571.3536L14001.4068,-3571.4071L14001.423,-3571.4659L14001.4271,-3571.4809L14001.4318,-3571.4917L14001.4342,-3571.4995L14001.4397,-3571.506L14001.4582,-3571.5353L14001.4645,-3571.5506L14001.4671,-3571.5643L14001.4675,-3571.5767L14001.4675,-3571.5956L14001.5238,-3571.6433L14001.5731,-3571.6824L14001.6072,-3571.7107L14001.6304,-3571.7284L14001.7183,-3571.7946L14001.7393,-3571.8095L14001.7578,-3571.8217L14001.781,-3571.8377L14001.8046,-3571.8553L14001.8587,-3571.9062L14001.8773,-3571.925L14001.928,-3571.9885L14001.9477,-3572.0129L14001.964,-3572.0304L14001.9837,-3572.0495L14002.0286,-3572.0917L14002.054,-3572.1153L14002.1218,-3572.1707L14002.1344,-3572.1812L14002.1957,-3572.2344L14002.2166,-3572.2474L14002.2316,-3572.2519L14002.3636,-3572.284L14002.3741,-3572.2866L14002.3887,-3572.2929L14002.451,-3572.3146L14002.4952,-3572.3326L14002.5416,-3572.3539L14002.5705,-3572.3709L14002.5926,-3572.3837L14002.6474,-3572.4224L14002.7022,-3572.462L14002.7435,-3572.4925L14002.7624,-3572.5062L14002.767,-3572.509L14002.78,-3572.5215L14002.8003,-3572.534L14002.8297,-3572.5549L14002.839,-3572.5608L14002.8532,-3572.5699L14002.8732,-3572.5807L14002.8934,-3572.5888L14002.9179,-3572.5974L14002.9419,-3572.6049L14002.9591,-3572.6128L14002.9787,-3572.6143L14003.0822,-3572.6401L14003.1085,-3572.6467L14003.1361,-3572.6534L14003.2273,-3572.6752L14003.3492,-3572.708L14003.3903,-3572.7242L14003.4161,-3572.7372L14003.4492,-3572.747L14003.4685,-3572.7539"/>
<path content="1,船橋新京成バス,船22A,9.0,0.0,0.0," xlink:title="1" d="M14000.9766,-3570.3385L14000.9981,-3570.3398L14001.0212,-3570.342L14001.0729,-3570.3498L14001.0602,-3570.3956L14001.0328,-3570.5046L14001.0288,-3570.5232L14001.0251,-3570.5408L14001.0236,-3570.5474L14000.9996,-3570.6424L14000.9766,-3570.7405M14000.9766,-3570.8109L14001.0154,-3570.8188L14001.0536,-3570.8279L14001.0612,-3570.8283L14001.0949,-3570.8262L14001.1111,-3570.8267L14001.1345,-3570.83L14001.1748,-3570.8429L14001.1949,-3570.8514L14001.2001,-3570.8555L14001.222,-3570.8684L14001.2313,-3570.8723L14001.2452,-3570.8807L14001.2777,-3570.9019L14001.3018,-3570.9179L14001.3133,-3570.9305L14001.3192,-3570.9386L14001.3216,-3570.9478L14001.3217,-3570.9584L14001.3199,-3570.9688L14001.3164,-3570.9837L14001.3128,-3571.0081L14001.3122,-3571.018L14001.3135,-3571.0293L14001.3215,-3571.0819L14001.3241,-3571.1077L14001.3254,-3571.1407L14001.3255,-3571.1834L14001.3239,-3571.209L14001.3243,-3571.2158L14001.3277,-3571.2278L14001.3587,-3571.2742L14001.3668,-3571.2856L14001.3737,-3571.2971L14001.3794,-3571.3099L14001.3866,-3571.332L14001.3925,-3571.3536L14001.4068,-3571.4071L14001.423,-3571.4659L14001.4271,-3571.4809L14001.4318,-3571.4917L14001.4342,-3571.4995L14001.4397,-3571.506L14001.4582,-3571.5353L14001.4645,-3571.5506L14001.4671,-3571.5643L14001.4675,-3571.5767L14001.4675,-3571.5956L14001.5238,-3571.6433L14001.5731,-3571.6824L14001.6072,-3571.7107L14001.6304,-3571.7284L14001.7183,-3571.7946L14001.7393,-3571.8095L14001.7578,-3571.8217L14001.781,-3571.8377L14001.8046,-3571.8553L14001.8587,-3571.9062L14001.8773,-3571.925L14001.928,-3571.9885L14001.9477,-3572.0129L14001.964,-3572.0304L14001.9837,-3572.0495L14002.0286,-3572.0917L14002.054,-3572.1153L14002.1218,-3572.1707L14002.1344,-3572.1812L14002.1957,-3572.2344L14002.2166,-3572.2474L14002.2316,-3572.2519L14002.3636,-3572.284L14002.3741,-3572.2866L14002.3887,-3572.2929L14002.451,-3572.3146L14002.4952,-3572.3326L14002.5416,-3572.3539L14002.5705,-3572.3709L14002.5926,-3572.3837L14002.6474,-3572.4224L14002.7022,-3572.462L14002.7435,-3572.4925L14002.7624,-3572.5062L14002.767,-3572.509L14002.78,-3572.5215L14002.8003,-3572.534L14002.8297,-3572.5549L14002.839,-3572.5608L14002.8532,-3572.5699L14002.8732,-3572.5807L14002.8934,-3572.5888L14002.9179,-3572.5974L14002.9419,-3572.6049L14002.9591,-3572.6128L14002.9787,-3572.6143L14003.0822,-3572.6401L14003.1085,-3572.6467L14003.1361,-3572.6534L14003.2273,-3572.6752L14003.3492,-3572.708L14003.3903,-3572.7242L14003.4161,-3572.7372L14003.4492,-3572.747L14003.4685,-3572.7539"/>
<path content="1,船橋新京成バス,船23,12.0,15.0,15.0," xlink:title="1" d="M14000.9766,-3570.3385L14000.9981,-3570.3398L14001.0212,-3570.342L14001.0729,-3570.3498L14001.0602,-3570.3956L14001.0328,-3570.5046L14001.0288,-3570.5232L14001.0251,-3570.5408L14001.0236,-3570.5474L14000.9996,-3570.6424L14000.9766,-3570.7405M14000.9766,-3570.8109L14001.0154,-3570.8188L14001.0536,-3570.8279L14001.0612,-3570.8283L14001.0949,-3570.8262L14001.1111,-3570.8267L14001.1345,-3570.83L14001.1748,-3570.8429L14001.1949,-3570.8514L14001.2001,-3570.8555L14001.222,-3570.8684L14001.2313,-3570.8723L14001.2452,-3570.8807L14001.2777,-3570.9019L14001.3018,-3570.9179L14001.3133,-3570.9305L14001.3192,-3570.9386L14001.3216,-3570.9478L14001.3217,-3570.9584L14001.3199,-3570.9688L14001.3164,-3570.9837L14001.3128,-3571.0081L14001.3122,-3571.018L14001.3135,-3571.0293L14001.3215,-3571.0819L14001.3241,-3571.1077L14001.3254,-3571.1407L14001.3255,-3571.1834L14001.3239,-3571.209L14001.3243,-3571.2158L14001.3277,-3571.2278L14001.3587,-3571.2742L14001.3668,-3571.2856L14001.3737,-3571.2971L14001.3794,-3571.3099L14001.3866,-3571.332L14001.3925,-3571.3536L14001.4068,-3571.4071L14001.423,-3571.4659L14001.4271,-3571.4809L14001.4318,-3571.4917L14001.4342,-3571.4995L14001.4397,-3571.506L14001.4582,-3571.5353L14001.4645,-3571.5506L14001.4671,-3571.5643L14001.4675,-3571.5767L14001.4675,-3571.5956L14001.5238,-3571.6433L14001.5731,-3571.6824L14001.6072,-3571.7107L14001.6304,-3571.7284L14001.7183,-3571.7946L14001.7393,-3571.8095L14001.7578,-3571.8217L14001.781,-3571.8377L14001.8046,-3571.8553"/>
<path content="1,船橋新京成バス,船23,12.0,15.0,15.0," xlink:title="1" d="M14001.8046,-3571.8553L14001.8619,-3571.7858L14001.8725,-3571.7726L14001.9024,-3571.7366L14001.9109,-3571.7263L14001.9181,-3571.7174L14001.9455,-3571.6844L14001.9839,-3571.6396L14001.9958,-3571.6263L14002.0381,-3571.5744L14002.0431,-3571.5684L14002.0413,-3571.5671L14002.0954,-3571.5031L14002.1541,-3571.4407"/>
<path content="1,船橋新京成バス,船23,12.0,15.0,15.0," xlink:title="1" d="M14001.8046,-3571.8553L14001.8587,-3571.9062L14001.8773,-3571.925L14001.928,-3571.9885L14001.9477,-3572.0129L14001.964,-3572.0304L14001.9837,-3572.0495L14002.0286,-3572.0917L14002.054,-3572.1153L14002.1218,-3572.1707L14002.1344,-3572.1812L14002.1957,-3572.2344L14002.2166,-3572.2474L14002.2316,-3572.2519L14002.3636,-3572.284L14002.3741,-3572.2866L14002.3887,-3572.2929L14002.451,-3572.3146L14002.4952,-3572.3326L14002.5416,-3572.3539L14002.5705,-3572.3709L14002.5926,-3572.3837L14002.6474,-3572.4224L14002.7022,-3572.462L14002.7435,-3572.4925L14002.7624,-3572.5062L14002.767,-3572.509L14002.78,-3572.5215L14002.8003,-3572.534L14002.8297,-3572.5549L14002.839,-3572.5608L14002.8532,-3572.5699L14002.8732,-3572.5807L14002.8934,-3572.5888L14002.9179,-3572.5974L14002.9419,-3572.6049L14002.9591,-3572.6128L14002.9787,-3572.6143L14003.0822,-3572.6401L14003.1085,-3572.6467L14003.1361,-3572.6534L14003.2273,-3572.6752L14003.3492,-3572.708L14003.3903,-3572.7242L14003.4161,-3572.7372L14003.4492,-3572.747L14003.4685,-3572.7539M14004.0067,-3572.7539L14004.0238,-3572.7204L14004.0343,-3572.6953L14004.0513,-3572.6597L14004.0831,-3572.5894L14004.1228,-3572.5037L14004.1921,-3572.3529L14004.1965,-3572.3437L14004.1999,-3572.3359L14004.2475,-3572.2318L14004.2666,-3572.1865L14004.2709,-3572.1763L14004.2662,-3572.1715"/>
<path content="1,船橋新京成バス,船23A,3.0,0.0,0.0," xlink:title="1" d="M14000.9766,-3570.3385L14000.9981,-3570.3398L14001.0212,-3570.342L14001.0729,-3570.3498L14001.0602,-3570.3956L14001.0328,-3570.5046L14001.0288,-3570.5232L14001.0251,-3570.5408L14001.0236,-3570.5474L14000.9996,-3570.6424L14000.9766,-3570.7405M14000.9766,-3570.8109L14001.0154,-3570.8188L14001.0536,-3570.8279L14001.0612,-3570.8283L14001.0949,-3570.8262L14001.1111,-3570.8267L14001.1345,-3570.83L14001.1748,-3570.8429L14001.1949,-3570.8514L14001.2001,-3570.8555L14001.222,-3570.8684L14001.2313,-3570.8723L14001.2452,-3570.8807L14001.2777,-3570.9019L14001.3018,-3570.9179L14001.3133,-3570.9305L14001.3192,-3570.9386L14001.3216,-3570.9478L14001.3217,-3570.9584L14001.3199,-3570.9688L14001.3164,-3570.9837L14001.3128,-3571.0081L14001.3122,-3571.018L14001.3135,-3571.0293L14001.3215,-3571.0819L14001.3241,-3571.1077L14001.3254,-3571.1407L14001.3255,-3571.1834L14001.3239,-3571.209L14001.3243,-3571.2158L14001.3277,-3571.2278L14001.3587,-3571.2742L14001.3668,-3571.2856L14001.3737,-3571.2971L14001.3794,-3571.3099L14001.3866,-3571.332L14001.3925,-3571.3536L14001.4068,-3571.4071L14001.423,-3571.4659L14001.4271,-3571.4809L14001.4318,-3571.4917L14001.4342,-3571.4995L14001.4397,-3571.506L14001.4582,-3571.5353L14001.4645,-3571.5506L14001.4671,-3571.5643L14001.4675,-3571.5767L14001.4675,-3571.5956L14001.5238,-3571.6433L14001.5731,-3571.6824L14001.6072,-3571.7107L14001.6304,-3571.7284L14001.7183,-3571.7946L14001.7393,-3571.8095L14001.7578,-3571.8217L14001.781,-3571.8377L14001.8046,-3571.8553"/>
<path content="1,船橋新京成バス,船23A,3.0,0.0,0.0," xlink:title="1" d="M14001.8046,-3571.8553L14001.8619,-3571.7858L14001.8725,-3571.7726L14001.9024,-3571.7366L14001.9109,-3571.7263L14001.9181,-3571.7174L14001.9455,-3571.6844L14001.9839,-3571.6396L14001.9958,-3571.6263L14002.0381,-3571.5744L14002.0431,-3571.5684L14002.0413,-3571.5671L14002.0954,-3571.5031L14002.1541,-3571.4407"/>
<path content="1,船橋新京成バス,船23A,3.0,0.0,0.0," xlink:title="1" d="M14001.8046,-3571.8553L14001.8587,-3571.9062L14001.8773,-3571.925L14001.928,-3571.9885L14001.9477,-3572.0129L14001.964,-3572.0304L14001.9837,-3572.0495L14002.0286,-3572.0917L14002.054,-3572.1153L14002.1218,-3572.1707L14002.1344,-3572.1812L14002.1957,-3572.2344L14002.2166,-3572.2474L14002.2316,-3572.2519L14002.3636,-3572.284L14002.3741,-3572.2866L14002.3887,-3572.2929L14002.451,-3572.3146L14002.4952,-3572.3326L14002.5416,-3572.3539L14002.5705,-3572.3709L14002.5926,-3572.3837L14002.6474,-3572.4224L14002.7022,-3572.462L14002.7435,-3572.4925L14002.7624,-3572.5062L14002.767,-3572.509L14002.78,-3572.5215L14002.8003,-3572.534L14002.8297,-3572.5549L14002.839,-3572.5608L14002.8532,-3572.5699L14002.8732,-3572.5807L14002.8934,-3572.5888L14002.9179,-3572.5974L14002.9419,-3572.6049L14002.9591,-3572.6128L14002.9787,-3572.6143L14003.0822,-3572.6401L14003.1085,-3572.6467L14003.1361,-3572.6534L14003.2273,-3572.6752L14003.3492,-3572.708L14003.3903,-3572.7242L14003.4161,-3572.7372L14003.4492,-3572.747L14003.4685,-3572.7539M14004.0067,-3572.7539L14004.0238,-3572.7204L14004.0343,-3572.6953L14004.0513,-3572.6597L14004.0831,-3572.5894L14004.1228,-3572.5037L14004.1921,-3572.3529L14004.1965,-3572.3437L14004.1999,-3572.3359L14004.2475,-3572.2318L14004.2666,-3572.1865L14004.2709,-3572.1763L14004.2662,-3572.1715"/>
<path content="1,船橋新京成バス,船28A,16.0,16.0,16.0," xlink:title="1" d="M14000.9766,-3570.3385L14000.9981,-3570.3398L14001.0212,-3570.342L14001.0729,-3570.3498L14001.0602,-3570.3956L14001.0328,-3570.5046L14001.0288,-3570.5232L14001.0251,-3570.5408L14001.0236,-3570.5474L14000.9996,-3570.6424L14000.9766,-3570.7405M14000.9766,-3570.8109L14001.0154,-3570.8188L14001.0536,-3570.8279L14001.0612,-3570.8283L14001.0949,-3570.8262L14001.1111,-3570.8267L14001.1345,-3570.83L14001.1748,-3570.8429L14001.1949,-3570.8514L14001.2001,-3570.8555L14001.222,-3570.8684L14001.2313,-3570.8723L14001.2452,-3570.8807L14001.2777,-3570.9019L14001.3018,-3570.9179L14001.3133,-3570.9305L14001.3192,-3570.9386L14001.3216,-3570.9478L14001.3217,-3570.9584L14001.3199,-3570.9688L14001.3164,-3570.9837L14001.3128,-3571.0081L14001.3122,-3571.018L14001.3135,-3571.0293L14001.3215,-3571.0819L14001.3241,-3571.1077L14001.3254,-3571.1407L14001.3255,-3571.1834L14001.3239,-3571.209L14001.3243,-3571.2158L14001.3277,-3571.2278L14001.3587,-3571.2742L14001.3668,-3571.2856L14001.3737,-3571.2971L14001.3794,-3571.3099L14001.3866,-3571.332L14001.3925,-3571.3536L14001.4068,-3571.4071L14001.423,-3571.4659L14001.4271,-3571.4809L14001.4318,-3571.4917L14001.4342,-3571.4995L14001.4397,-3571.506L14001.4582,-3571.5353L14001.4645,-3571.5506L14001.4671,-3571.5643L14001.4675,-3571.5767L14001.4675,-3571.5956L14001.5238,-3571.6433L14001.5731,-3571.6824L14001.6072,-3571.7107L14001.6304,-3571.7284L14001.7183,-3571.7946L14001.7393,-3571.8095L14001.7578,-3571.8217L14001.781,-3571.8377L14001.8046,-3571.8553L14001.8619,-3571.7858L14001.8725,-3571.7726L14001.9024,-3571.7366L14001.9109,-3571.7263L14001.9181,-3571.7174L14001.9455,-3571.6844L14001.9839,-3571.6396L14001.9958,-3571.6263L14002.0381,-3571.5744L14002.0431,-3571.5684L14002.0413,-3571.5671L14002.0954,-3571.5031L14002.1541,-3571.4407"/>
<path content="1,船橋新京成バス,船51（深夜）,4.0,2.0,2.0," xlink:title="1" d="M14000.9766,-3570.3385L14000.9981,-3570.3398L14001.0212,-3570.342L14001.0729,-3570.3498L14001.0602,-3570.3956L14001.0328,-3570.5046L14001.0288,-3570.5232L14001.0251,-3570.5408L14001.0236,-3570.5474L14000.9996,-3570.6424L14000.9766,-3570.7405M14000.9766,-3572.5036L14000.9836,-3572.5061L14000.9766,-3572.5168M14000.9766,-3572.6387L14000.9922,-3572.6413L14001.0096,-3572.644L14001.0226,-3572.6448L14001.0531,-3572.6448L14001.0796,-3572.6458L14001.0914,-3572.647L14001.1036,-3572.649L14001.1147,-3572.6533L14001.124,-3572.6582L14001.148,-3572.6809L14001.157,-3572.6878L14001.1674,-3572.6951L14001.1878,-3572.7083L14001.2297,-3572.7326L14001.2459,-3572.7405L14001.262,-3572.7466L14001.2718,-3572.749L14001.2819,-3572.7506L14001.3102,-3572.7526L14001.3147,-3572.7539M14001.4181,-3572.7539L14001.4242,-3572.7455L14001.4292,-3572.7322L14001.4852,-3572.7539"/>
<path content="1,船橋新京成バス,船53,30.0,27.0,27.0," xlink:title="1" d="M14000.9766,-3572.5036L14000.9836,-3572.5061L14000.9766,-3572.5168M14000.9766,-3572.6387L14000.9922,-3572.6413L14001.0096,-3572.644L14001.0226,-3572.6448L14001.0531,-3572.6448L14001.0796,-3572.6458L14001.0914,-3572.647L14001.1036,-3572.649L14001.1147,-3572.6533L14001.124,-3572.6582L14001.148,-3572.6809L14001.157,-3572.6878L14001.1674,-3572.6951L14001.1878,-3572.7083L14001.2297,-3572.7326L14001.2459,-3572.7405L14001.262,-3572.7466L14001.2718,-3572.749L14001.2819,-3572.7506L14001.3102,-3572.7526L14001.3147,-3572.7539M14001.4181,-3572.7539L14001.4242,-3572.7455L14001.4292,-3572.7322L14001.4852,-3572.7539"/>
<path content="3,習志野市,京成大久保駅ルート,31.0,16.0,16.0," xlink:title="3" d="M14002.2709,-3569.0366L14002.1929,-3569.0941L14002.2177,-3569.1133L14002.2288,-3569.1218L14002.2347,-3569.121L14002.2878,-3569.1134L14002.3379,-3569.1072L14002.3649,-3569.1033L14002.3863,-3569.0996L14002.4093,-3569.0983L14002.5432,-3569.0857L14002.6354,-3569.0728L14002.6908,-3569.0645L14002.6822,-3569.0363L14002.6742,-3569.0103L14002.672,-3568.9903L14002.6716,-3568.9716L14002.6733,-3568.9608L14002.6769,-3568.9488L14002.6813,-3568.9399L14002.7106,-3568.892L14002.7176,-3568.8774L14002.7219,-3568.8663L14002.7545,-3568.8538L14002.7742,-3568.8443L14002.8209,-3568.8246L14002.9224,-3568.7765L14002.9457,-3568.7662L14003.0419,-3568.721L14003.0683,-3568.7096L14003.0783,-3568.7059L14003.0726,-3568.6988L14003.0139,-3568.6254L14002.9606,-3568.5586L14002.9135,-3568.5002L14002.9763,-3568.443L14003.0065,-3568.418L14003.0758,-3568.3594M14003.7794,-3568.3594L14003.7869,-3568.3645L14003.8585,-3568.4124L14003.919,-3568.4541L14003.9838,-3568.4972L14003.9991,-3568.5092L14004.1391,-3568.6042L14004.1574,-3568.6156L14004.1764,-3568.6248L14004.1991,-3568.6355L14004.2068,-3568.6355L14004.2463,-3568.639L14004.2805,-3568.6397L14004.3966,-3568.6374L14004.4164,-3568.6344L14004.4973,-3568.6326L14004.5948,-3568.6306L14004.6843,-3568.6286L14004.8042,-3568.6272L14004.8209,-3568.6273L14004.9368,-3568.6267L14004.9726,-3568.6256L14005.0537,-3568.6236L14005.0744,-3568.6233L14005.0876,-3568.6231L14005.0728,-3568.5928L14005.0635,-3568.5747L14004.9481,-3568.5749L14004.9495,-3568.5653L14004.9204,-3568.5108L14004.9975,-3568.5027L14005.0242,-3568.5L14005.0774,-3568.4958L14005.1426,-3568.4926L14005.1632,-3568.4881L14005.186,-3568.4876L14005.2105,-3568.4854L14005.2648,-3568.4794L14005.3305,-3568.476L14005.3711,-3568.4724"/>
<path content="3,習志野市,京成津田沼駅内陸ルート,26.0,26.0,26.0," xlink:title="3" d="M14002.1286,-3568.3594L14002.1288,-3568.3604L14002.1452,-3568.4026L14002.1469,-3568.4084L14002.1608,-3568.4414L14002.163,-3568.4459L14002.1749,-3568.4728L14002.1853,-3568.5012L14002.2126,-3568.581L14002.2374,-3568.658L14002.2515,-3568.7043L14002.2563,-3568.7178L14002.2633,-3568.7289L14002.2722,-3568.7533L14002.3257,-3568.8569L14002.3493,-3568.8373L14002.4102,-3568.7849L14002.4213,-3568.7756L14002.4249,-3568.7789L14002.4571,-3568.8048L14002.4602,-3568.8077L14002.4651,-3568.8118L14002.4666,-3568.8179L14002.4666,-3568.823L14002.4646,-3568.8288L14002.4618,-3568.834L14002.4563,-3568.8411L14002.4487,-3568.8493L14002.4328,-3568.8595L14002.4099,-3568.8743L14002.3833,-3568.89L14002.3369,-3568.9174L14002.3218,-3568.929L14002.3517,-3568.9634L14002.3639,-3568.9548L14002.3826,-3568.9465L14002.3969,-3568.9368L14002.4215,-3568.9283L14002.4374,-3568.9248L14002.5509,-3568.898L14002.5646,-3568.8947L14002.5792,-3568.8918L14002.6388,-3568.8801L14002.6561,-3568.8774L14002.7219,-3568.8663L14002.7545,-3568.8538L14002.7742,-3568.8443L14002.8209,-3568.8246L14002.9224,-3568.7765L14002.9457,-3568.7662L14003.0419,-3568.721L14003.0683,-3568.7096L14003.0783,-3568.7059L14003.0822,-3568.7111L14003.1351,-3568.7829L14003.1486,-3568.8025L14003.1958,-3568.8695L14003.2485,-3568.9572L14003.2744,-3568.9907L14003.2965,-3569.026L14003.3246,-3569.0803L14003.3715,-3569.145L14003.3784,-3569.1582L14003.3855,-3569.1667L14003.4316,-3569.2103L14003.4473,-3569.2285L14003.4641,-3569.2509L14003.4899,-3569.2877"/>
<path content="3,習志野市,京成津田沼駅内陸ルート,26.0,26.0,26.0," xlink:title="3" d="M14003.4899,-3569.2877L14003.5111,-3569.2779L14003.5443,-3569.2622L14003.549,-3569.2622L14003.5599,-3569.264L14003.5981,-3569.2677L14003.6817,-3569.2806L14003.7764,-3569.2953L14003.7827,-3569.2962L14003.8016,-3569.2963L14003.8153,-3569.3003L14003.8268,-3569.3069L14003.8309,-3569.3087L14003.8461,-3569.3134L14003.8776,-3569.3232L14003.8949,-3569.3335L14003.9061,-3569.3423L14003.9209,-3569.3539L14003.9506,-3569.3767L14003.9641,-3569.3888L14003.9701,-3569.3936L14004.0039,-3569.4312L14003.944,-3569.4824L14003.9301,-3569.4921L14003.927,-3569.4887L14003.9231,-3569.4862L14003.9118,-3569.4816L14003.8932,-3569.4558L14003.8826,-3569.4441L14003.8708,-3569.4325L14003.8615,-3569.4224L14003.8501,-3569.4133L14003.832,-3569.3996L14003.8231,-3569.3933L14003.8093,-3569.3861L14003.7925,-3569.3794L14003.7719,-3569.3752L14003.7336,-3569.3719L14003.6273,-3569.3669L14003.5416,-3569.3658L14003.4899,-3569.2877"/>
</g>
</svg>
