<?xml version="1.0" encoding="UTF-8"?>
<svg  xmlns="http://www.w3.org/2000/svg" xmlns:xlink="http://www.w3.org/1999/xlink" xmlns:go="http://purl.org/svgmap/profile" property="N07_001,N07_002,N07_003,N07_004,N07_005,N07_006,N07_007" viewBox="14096.969604492188 -3864.5782470703125 0.1373291015625 0.1373291015625" go:dataArea="14096.969604492188 -3864.5782470703125 0.1373291015625 0.1373291015625" >
<metadata>
 <rdf:RDF xmlns:rdf="http://www.w3.org/1999/02/22-rdf-syntax-ns#" xmlns:crs="http://opengis.org/xmldtds/transformations.dtd" xmlns:svg="http://www.w3.org/svg" >
  <rdf:Description>
   <crs:CoordinateReferenceSystem rdf:resource="http://purl.org/crs/84" svg:transform="matrix(100.0,0.0,0.0,-100.0,0.0,0.0)" />
  </rdf:Description>
 </rdf:RDF>
</metadata>
<globalCoordinateSystem srsName="http://purl.org/crs/84" transform="matrix(100.0,0.0,0.0,-100.0,0.0,0.0)" />
<defs>
 <g id="p0" >
  <circle cx="0.0" cy="0.0" r="3" stroke="green" stroke-width="0.75" vector-effect="non-scaling-stroke" />
 </g>
</defs>
<g fill="none" fill-rule="evenodd" stroke="#FF00FF" stroke-width="0.75" opacity="0.5" vector-effect="non-scaling-stroke" stroke-linejoin="bevel" >
<path content="1,JRバス東北（株）,うみねこ号,1.0,1.0,1.0," xlink:title="1" d="M14096.9696,-3864.4887L14096.972,-3864.4937L14096.976,-3864.5023L14096.976,-3864.5023L14096.9811,-3864.5133L14096.9816,-3864.5143L14096.9831,-3864.5178L14096.9831,-3864.5178L14096.9831,-3864.5178L14096.9836,-3864.519L14096.9836,-3864.519L14096.9836,-3864.519L14096.9844,-3864.5209L14096.9844,-3864.521L14096.9849,-3864.5221L14096.9849,-3864.5221L14096.9851,-3864.5226L14096.9866,-3864.5261L14096.9866,-3864.5261L14096.9866,-3864.5261L14096.9869,-3864.5268L14096.987,-3864.527L14096.988,-3864.5293L14096.9935,-3864.5423L14096.9968,-3864.5499L14096.9968,-3864.55L14096.9969,-3864.5501L14096.9969,-3864.5502L14096.9969,-3864.5502L14096.9969,-3864.5502L14096.9969,-3864.5502L14096.9969,-3864.5502L14096.9969,-3864.5503L14096.9969,-3864.5503L14096.997,-3864.5503L14096.997,-3864.5503L14096.997,-3864.5503L14096.9971,-3864.5506L14097.0009,-3864.5594L14097.0084,-3864.5782"/>
<path content="1,JRバス東北（株）,けんじライナー号,1.0,1.0,1.0," xlink:title="1" d="M14096.9696,-3864.4887L14096.972,-3864.4937L14096.976,-3864.5023L14096.976,-3864.5023L14096.9811,-3864.5133L14096.9816,-3864.5143L14096.9831,-3864.5178L14096.9831,-3864.5178L14096.9831,-3864.5178L14096.9836,-3864.519L14096.9836,-3864.519L14096.9836,-3864.519L14096.9844,-3864.5209L14096.9844,-3864.521L14096.9849,-3864.5221L14096.9849,-3864.5221L14096.9851,-3864.5226L14096.9866,-3864.5261L14096.9866,-3864.5261L14096.9866,-3864.5261L14096.9869,-3864.5268L14096.987,-3864.527L14096.988,-3864.5293L14096.9935,-3864.5423L14096.9968,-3864.5499L14096.9968,-3864.55L14096.9969,-3864.5501L14096.9969,-3864.5502L14096.9969,-3864.5502L14096.9969,-3864.5502L14096.9969,-3864.5502L14096.9969,-3864.5502L14096.9969,-3864.5503L14096.9969,-3864.5503L14096.997,-3864.5503L14096.997,-3864.5503L14096.997,-3864.5503L14096.9971,-3864.5506L14097.0009,-3864.5594L14097.0084,-3864.5782"/>
<path content="1,JRバス東北（株）,アーバン号,3.2,4.0,4.0," xlink:title="1" d="M14096.9696,-3864.4887L14096.972,-3864.4937L14096.976,-3864.5023L14096.976,-3864.5023L14096.9811,-3864.5133L14096.9816,-3864.5143L14096.9831,-3864.5178L14096.9831,-3864.5178L14096.9831,-3864.5178L14096.9836,-3864.519L14096.9836,-3864.519L14096.9836,-3864.519L14096.9844,-3864.5209L14096.9844,-3864.521L14096.9849,-3864.5221L14096.9849,-3864.5221L14096.9851,-3864.5226L14096.9866,-3864.5261L14096.9866,-3864.5261L14096.9866,-3864.5261L14096.9869,-3864.5268L14096.987,-3864.527L14096.988,-3864.5293L14096.9935,-3864.5423L14096.9968,-3864.5499L14096.9968,-3864.55L14096.9969,-3864.5501L14096.9969,-3864.5502L14096.9969,-3864.5502L14096.9969,-3864.5502L14096.9969,-3864.5502L14096.9969,-3864.5502L14096.9969,-3864.5503L14096.9969,-3864.5503L14096.997,-3864.5503L14096.997,-3864.5503L14096.997,-3864.5503L14096.9971,-3864.5506L14097.0009,-3864.5594L14097.0084,-3864.5782"/>
<path content="1,JRバス東北（株）,キャッスル号,3.0,3.0,3.0," xlink:title="1" d="M14096.9696,-3864.4887L14096.972,-3864.4937L14096.976,-3864.5023L14096.976,-3864.5023L14096.9811,-3864.5133L14096.9816,-3864.5143L14096.9831,-3864.5178L14096.9831,-3864.5178L14096.9831,-3864.5178L14096.9836,-3864.519L14096.9836,-3864.519L14096.9836,-3864.519L14096.9844,-3864.5209L14096.9844,-3864.521L14096.9849,-3864.5221L14096.9849,-3864.5221L14096.9851,-3864.5226L14096.9866,-3864.5261L14096.9866,-3864.5261L14096.9866,-3864.5261L14096.9869,-3864.5268L14096.987,-3864.527L14096.988,-3864.5293L14096.9935,-3864.5423L14096.9968,-3864.5499L14096.9968,-3864.55L14096.9969,-3864.5501L14096.9969,-3864.5502L14096.9969,-3864.5502L14096.9969,-3864.5502L14096.9969,-3864.5502L14096.9969,-3864.5502L14096.9969,-3864.5503L14096.9969,-3864.5503L14096.997,-3864.5503L14096.997,-3864.5503L14096.997,-3864.5503L14096.9971,-3864.5506L14097.0009,-3864.5594L14097.0084,-3864.5782"/>
<path content="1,JRバス東北（株）,グリーンライナー号,2.0,2.0,2.0," xlink:title="1" d="M14096.9696,-3864.4887L14096.972,-3864.4937L14096.976,-3864.5023L14096.976,-3864.5023L14096.9811,-3864.5133L14096.9816,-3864.5143L14096.9831,-3864.5178L14096.9831,-3864.5178L14096.9831,-3864.5178L14096.9836,-3864.519L14096.9836,-3864.519L14096.9836,-3864.519L14096.9844,-3864.5209L14096.9844,-3864.521L14096.9849,-3864.5221L14096.9849,-3864.5221L14096.9851,-3864.5226L14096.9866,-3864.5261L14096.9866,-3864.5261L14096.9866,-3864.5261L14096.9869,-3864.5268L14096.987,-3864.527L14096.988,-3864.5293L14096.9935,-3864.5423L14096.9968,-3864.5499L14096.9968,-3864.55L14096.9969,-3864.5501L14096.9969,-3864.5502L14096.9969,-3864.5502L14096.9969,-3864.5502L14096.9969,-3864.5502L14096.9969,-3864.5502L14096.9969,-3864.5503L14096.9969,-3864.5503L14096.997,-3864.5503L14096.997,-3864.5503L14096.997,-3864.5503L14096.9971,-3864.5506L14097.0009,-3864.5594L14097.0084,-3864.5782"/>
<path content="1,JRバス東北（株）,ドリーム盛岡・らくちん号,2.2,3.0,3.0," xlink:title="1" d="M14096.9696,-3864.4885L14096.9721,-3864.4938L14096.9812,-3864.5132L14096.9866,-3864.5261L14096.9866,-3864.5261L14096.9866,-3864.5261L14096.9868,-3864.5266L14096.9868,-3864.5267L14096.9869,-3864.5269L14096.9869,-3864.527L14096.987,-3864.527L14096.987,-3864.5272L14096.9873,-3864.5277L14096.9873,-3864.5278L14096.9874,-3864.5279L14096.9883,-3864.5303L14096.9934,-3864.5426L14096.9968,-3864.5499L14096.9968,-3864.55L14096.9969,-3864.5501L14096.9969,-3864.5502L14096.9969,-3864.5502L14096.9969,-3864.5502L14096.9969,-3864.5502L14096.9969,-3864.5502L14096.9969,-3864.5503L14096.9969,-3864.5503L14096.997,-3864.5503L14096.997,-3864.5503L14096.997,-3864.5503L14096.9971,-3864.5506L14097.0011,-3864.5594L14097.0085,-3864.5782"/>
<path content="1,JRバス東北（株）,ドリーム秋田・横浜号,1.0,1.0,1.0," xlink:title="1" d="M14097.0084,-3864.5782L14097.0009,-3864.5594L14096.9971,-3864.5506L14096.997,-3864.5503L14096.997,-3864.5503L14096.997,-3864.5503L14096.9969,-3864.5503L14096.9969,-3864.5503L14096.9969,-3864.5502L14096.9969,-3864.5502L14096.9969,-3864.5502L14096.9969,-3864.5502L14096.9969,-3864.5502L14096.9969,-3864.5501L14096.9968,-3864.55L14096.9968,-3864.5499L14096.9935,-3864.5423L14096.988,-3864.5293L14096.987,-3864.527L14096.9869,-3864.5268L14096.9866,-3864.5261L14096.9866,-3864.5261L14096.9866,-3864.5261L14096.9851,-3864.5226L14096.9849,-3864.5221L14096.9849,-3864.5221L14096.9844,-3864.521L14096.9844,-3864.5209L14096.9836,-3864.519L14096.9836,-3864.519L14096.9836,-3864.519L14096.9831,-3864.5178L14096.9831,-3864.5178L14096.9831,-3864.5178L14096.9816,-3864.5143L14096.9811,-3864.5133L14096.976,-3864.5023L14096.976,-3864.5023L14096.972,-3864.4937L14096.9696,-3864.4887"/>
<path content="1,JRバス東北（株）,ブルーシティ号,1.5,1.5,1.5," xlink:title="1" d="M14096.9696,-3864.4887L14096.972,-3864.4937L14096.976,-3864.5023L14096.976,-3864.5023L14096.9811,-3864.5133L14096.9816,-3864.5143L14096.9831,-3864.5178L14096.9831,-3864.5178L14096.9831,-3864.5178L14096.9836,-3864.519L14096.9836,-3864.519L14096.9836,-3864.519L14096.9844,-3864.5209L14096.9844,-3864.521L14096.9849,-3864.5221L14096.9849,-3864.5221L14096.9851,-3864.5226L14096.9866,-3864.5261L14096.9866,-3864.5261L14096.9866,-3864.5261L14096.9869,-3864.5268L14096.987,-3864.527L14096.988,-3864.5293L14096.9935,-3864.5423L14096.9968,-3864.5499L14096.9968,-3864.55L14096.9969,-3864.5501L14096.9969,-3864.5502L14096.9969,-3864.5502L14096.9969,-3864.5502L14096.9969,-3864.5502L14096.9969,-3864.5502L14096.9969,-3864.5503L14096.9969,-3864.5503L14096.997,-3864.5503L14096.997,-3864.5503L14096.997,-3864.5503L14096.9971,-3864.5506L14097.0009,-3864.5594L14097.0084,-3864.5782"/>
<path content="1,JRバス東北（株）,ラ・フォーレ号,1.0,1.0,1.0," xlink:title="1" d="M14096.9696,-3864.4885L14096.9721,-3864.4938L14096.9812,-3864.5132L14096.9866,-3864.5261L14096.9866,-3864.5261L14096.9866,-3864.5261L14096.9868,-3864.5266L14096.9868,-3864.5267L14096.9869,-3864.5269L14096.9869,-3864.527L14096.987,-3864.527L14096.987,-3864.5272L14096.9873,-3864.5277L14096.9873,-3864.5278L14096.9874,-3864.5279L14096.9883,-3864.5303L14096.9934,-3864.5426L14096.9968,-3864.5499L14096.9968,-3864.55L14096.9969,-3864.5501L14096.9969,-3864.5502L14096.9969,-3864.5502L14096.9969,-3864.5502L14096.9969,-3864.5502L14096.9969,-3864.5502L14096.9969,-3864.5503L14096.9969,-3864.5503L14096.997,-3864.5503L14096.997,-3864.5503L14096.997,-3864.5503L14096.9971,-3864.5506L14097.0011,-3864.5594L14097.0085,-3864.5782"/>
<path content="1,JRバス東北（株）,仙台～大館線,1.0,1.0,1.0," xlink:title="1" d="M14096.9696,-3864.4887L14096.972,-3864.4937L14096.9811,-3864.5132L14096.9818,-3864.5149L14096.9831,-3864.5178L14096.9831,-3864.5178L14096.9831,-3864.5178L14096.9836,-3864.519L14096.9836,-3864.519L14096.9836,-3864.519L14096.9844,-3864.5209L14096.9849,-3864.5221L14096.9851,-3864.5226L14096.9855,-3864.5234L14096.9865,-3864.526L14096.9868,-3864.5266L14096.9868,-3864.5267L14096.9869,-3864.5269L14096.9869,-3864.527L14096.987,-3864.527L14096.987,-3864.5272L14096.9873,-3864.5277L14096.9873,-3864.5278L14096.9874,-3864.5279L14096.9884,-3864.5303L14096.9905,-3864.5354L14096.9935,-3864.5423L14096.9935,-3864.5424L14096.9935,-3864.5424L14096.9935,-3864.5424L14096.9968,-3864.5499L14096.9968,-3864.55L14096.9969,-3864.5501L14096.9969,-3864.5502L14096.9969,-3864.5502L14096.9969,-3864.5502L14096.9969,-3864.5502L14096.9969,-3864.5502L14096.9969,-3864.5503L14096.9969,-3864.5503L14096.997,-3864.5503L14096.997,-3864.5503L14096.997,-3864.5503L14096.9971,-3864.5506L14097.0009,-3864.5594L14097.0019,-3864.5619L14097.0025,-3864.5633L14097.0036,-3864.5662L14097.0083,-3864.5779L14097.0084,-3864.5782"/>
<path content="1,JRバス東北（株）,仙台～江刺・水沢線,2.0,2.0,2.0," xlink:title="1" d="M14096.9696,-3864.4887L14096.972,-3864.4937L14096.976,-3864.5023L14096.976,-3864.5023L14096.9811,-3864.5133L14096.9816,-3864.5143L14096.9831,-3864.5178L14096.9831,-3864.5178L14096.9831,-3864.5178L14096.9836,-3864.519L14096.9836,-3864.519L14096.9836,-3864.519L14096.9844,-3864.5209L14096.9844,-3864.521L14096.9849,-3864.5221L14096.9849,-3864.5221L14096.9851,-3864.5226L14096.9866,-3864.5261L14096.9866,-3864.5261L14096.9866,-3864.5261L14096.9869,-3864.5268L14096.987,-3864.527L14096.988,-3864.5293L14096.9935,-3864.5423L14096.9968,-3864.5499L14096.9968,-3864.55L14096.9969,-3864.5501L14096.9969,-3864.5502L14096.9969,-3864.5502L14096.9969,-3864.5502L14096.9969,-3864.5502L14096.9969,-3864.5502L14096.9969,-3864.5503L14096.9969,-3864.5503L14096.997,-3864.5503L14096.997,-3864.5503L14096.997,-3864.5503L14096.9971,-3864.5506L14097.0009,-3864.5594L14097.0084,-3864.5782"/>
<path content="1,JRバス東北（株）,仙秋号,2.0,2.0,2.0," xlink:title="1" d="M14096.9696,-3864.4887L14096.972,-3864.4937L14096.976,-3864.5023L14096.976,-3864.5023L14096.9811,-3864.5133L14096.9816,-3864.5143L14096.9831,-3864.5178L14096.9831,-3864.5178L14096.9831,-3864.5178L14096.9836,-3864.519L14096.9836,-3864.519L14096.9836,-3864.519L14096.9844,-3864.5209L14096.9844,-3864.521L14096.9849,-3864.5221L14096.9849,-3864.5221L14096.9851,-3864.5226L14096.9866,-3864.5261L14096.9866,-3864.5261L14096.9866,-3864.5261L14096.9869,-3864.5268L14096.987,-3864.527L14096.988,-3864.5293L14096.9935,-3864.5423L14096.9968,-3864.5499L14096.9968,-3864.55L14096.9969,-3864.5501L14096.9969,-3864.5502L14096.9969,-3864.5502L14096.9969,-3864.5502L14096.9969,-3864.5502L14096.9969,-3864.5502L14096.9969,-3864.5503L14096.9969,-3864.5503L14096.997,-3864.5503L14096.997,-3864.5503L14096.997,-3864.5503L14096.9971,-3864.5506L14097.0009,-3864.5594L14097.0084,-3864.5782"/>
<path content="1,JRバス関東（株）,ドリーム盛岡号,2.2,3.0,3.0," xlink:title="1" d="M14096.9696,-3864.4887L14096.972,-3864.4937L14096.976,-3864.5023L14096.976,-3864.5023L14096.9811,-3864.5133L14096.9816,-3864.5143L14096.9831,-3864.5178L14096.9831,-3864.5178L14096.9831,-3864.5178L14096.9836,-3864.519L14096.9836,-3864.519L14096.9836,-3864.519L14096.9844,-3864.5209L14096.9844,-3864.521L14096.9849,-3864.5221L14096.9849,-3864.5221L14096.9851,-3864.5226L14096.9866,-3864.5261L14096.9866,-3864.5261L14096.9866,-3864.5261L14096.9869,-3864.5268L14096.987,-3864.527L14096.988,-3864.5293L14096.9935,-3864.5423L14096.9968,-3864.5499L14096.9968,-3864.55L14096.9969,-3864.5501L14096.9969,-3864.5502L14096.9969,-3864.5502L14096.9969,-3864.5502L14096.9969,-3864.5502L14096.9969,-3864.5502L14096.9969,-3864.5503L14096.9969,-3864.5503L14096.997,-3864.5503L14096.997,-3864.5503L14096.997,-3864.5503L14096.9971,-3864.5506L14097.0009,-3864.5594L14097.0084,-3864.5782"/>
<path content="1,京浜急行バス（株）,ノクターン号,3.4,4.0,4.0," xlink:title="1" d="M14096.9696,-3864.4887L14096.972,-3864.4937L14096.976,-3864.5023L14096.976,-3864.5023L14096.9811,-3864.5133L14096.9816,-3864.5143L14096.9831,-3864.5178L14096.9831,-3864.5178L14096.9831,-3864.5178L14096.9836,-3864.519L14096.9836,-3864.519L14096.9836,-3864.519L14096.9844,-3864.5209L14096.9844,-3864.521L14096.9849,-3864.5221L14096.9849,-3864.5221L14096.9851,-3864.5226L14096.9866,-3864.5261L14096.9866,-3864.5261L14096.9866,-3864.5261L14096.9869,-3864.5268L14096.987,-3864.527L14096.988,-3864.5293L14096.9935,-3864.5423L14096.9968,-3864.5499L14096.9968,-3864.55L14096.9969,-3864.5501L14096.9969,-3864.5502L14096.9969,-3864.5502L14096.9969,-3864.5502L14096.9969,-3864.5502L14096.9969,-3864.5502L14096.9969,-3864.5503L14096.9969,-3864.5503L14096.997,-3864.5503L14096.997,-3864.5503L14096.997,-3864.5503L14096.9971,-3864.5506L14097.0009,-3864.5594L14097.0084,-3864.5782"/>
<path content="1,京浜急行バス（株）,ビーム号,1.0,1.0,1.0," xlink:title="1" d="M14097.0084,-3864.5782L14097.0009,-3864.5594L14096.9971,-3864.5506L14096.997,-3864.5503L14096.997,-3864.5503L14096.997,-3864.5503L14096.9969,-3864.5503L14096.9969,-3864.5503L14096.9969,-3864.5502L14096.9969,-3864.5502L14096.9969,-3864.5502L14096.9969,-3864.5502L14096.9969,-3864.5502L14096.9969,-3864.5501L14096.9968,-3864.55L14096.9968,-3864.5499L14096.9935,-3864.5423L14096.988,-3864.5293L14096.987,-3864.527L14096.9869,-3864.5268L14096.9866,-3864.5261L14096.9866,-3864.5261L14096.9866,-3864.5261L14096.9851,-3864.5226L14096.9849,-3864.5221L14096.9849,-3864.5221L14096.9844,-3864.521L14096.9844,-3864.5209L14096.9836,-3864.519L14096.9836,-3864.519L14096.9836,-3864.519L14096.9831,-3864.5178L14096.9831,-3864.5178L14096.9831,-3864.5178L14096.9816,-3864.5143L14096.9811,-3864.5133L14096.976,-3864.5023L14096.976,-3864.5023L14096.972,-3864.4937L14096.9696,-3864.4887"/>
<path content="1,十和田観光電鉄（株）,うみねこ号,4.0,4.0,4.0," xlink:title="1" d="M14097.0084,-3864.5782L14097.0083,-3864.5779L14097.0036,-3864.5662L14097.0025,-3864.5633L14097.0019,-3864.5619L14097.0009,-3864.5594L14096.9971,-3864.5506L14096.997,-3864.5503L14096.997,-3864.5503L14096.997,-3864.5503L14096.9969,-3864.5503L14096.9969,-3864.5503L14096.9969,-3864.5502L14096.9969,-3864.5502L14096.9969,-3864.5502L14096.9969,-3864.5502L14096.9969,-3864.5502L14096.9969,-3864.5501L14096.9968,-3864.55L14096.9968,-3864.5499L14096.9935,-3864.5424L14096.9935,-3864.5424L14096.9935,-3864.5424L14096.9935,-3864.5423L14096.9905,-3864.5354L14096.9884,-3864.5303L14096.9874,-3864.5279L14096.9873,-3864.5278L14096.9873,-3864.5277L14096.987,-3864.5272L14096.987,-3864.527L14096.987,-3864.527L14096.9869,-3864.5269L14096.9869,-3864.5268L14096.9868,-3864.5267L14096.9868,-3864.5266L14096.9866,-3864.5261L14096.9866,-3864.5261L14096.9866,-3864.5261L14096.9855,-3864.5234L14096.9851,-3864.5226L14096.9849,-3864.5221L14096.9844,-3864.5209L14096.9836,-3864.519L14096.9836,-3864.519L14096.9836,-3864.519L14096.9831,-3864.5178L14096.9831,-3864.5178L14096.9831,-3864.5178L14096.9811,-3864.5132L14096.972,-3864.4937L14096.9696,-3864.4887"/>
<path content="1,十和田観光電鉄（株）,シリウス号,1.0,1.0,1.0," xlink:title="1" d="M14097.0084,-3864.5782L14097.0009,-3864.5594L14096.9971,-3864.5506L14096.997,-3864.5503L14096.997,-3864.5503L14096.997,-3864.5503L14096.9969,-3864.5503L14096.9969,-3864.5503L14096.9969,-3864.5502L14096.9969,-3864.5502L14096.9969,-3864.5502L14096.9969,-3864.5502L14096.9969,-3864.5502L14096.9969,-3864.5501L14096.9968,-3864.55L14096.9968,-3864.5499L14096.9935,-3864.5423L14096.9884,-3864.5303L14096.988,-3864.5293L14096.9874,-3864.5279L14096.9873,-3864.5278L14096.9873,-3864.5277L14096.987,-3864.5272L14096.987,-3864.527L14096.987,-3864.527L14096.9869,-3864.5269L14096.9869,-3864.5268L14096.9868,-3864.5267L14096.9868,-3864.5266L14096.9866,-3864.5261L14096.9866,-3864.5261L14096.9866,-3864.5261L14096.9855,-3864.5234L14096.9851,-3864.5226L14096.9849,-3864.5221L14096.9844,-3864.5209L14096.9836,-3864.519L14096.9836,-3864.519L14096.9836,-3864.519L14096.9831,-3864.5178L14096.9831,-3864.5178L14096.9831,-3864.5178L14096.9818,-3864.5149L14096.9816,-3864.5143L14096.9811,-3864.5133L14096.976,-3864.5023L14096.976,-3864.5023L14096.972,-3864.4937L14096.9696,-3864.4887"/>
<path content="1,十和田観光電鉄（株）,ブルーシティー号,6.0,6.0,6.0," xlink:title="1" d="M14097.0084,-3864.5782L14097.0083,-3864.5779L14097.0036,-3864.5662L14097.0025,-3864.5633L14097.0019,-3864.5619L14097.0009,-3864.5594L14096.9971,-3864.5506L14096.997,-3864.5503L14096.997,-3864.5503L14096.997,-3864.5503L14096.9969,-3864.5503L14096.9969,-3864.5503L14096.9969,-3864.5502L14096.9969,-3864.5502L14096.9969,-3864.5502L14096.9969,-3864.5502L14096.9969,-3864.5502L14096.9969,-3864.5501L14096.9968,-3864.55L14096.9968,-3864.5499L14096.9935,-3864.5424L14096.9935,-3864.5424L14096.9935,-3864.5424L14096.9935,-3864.5423L14096.9905,-3864.5354L14096.9884,-3864.5303L14096.9874,-3864.5279L14096.9873,-3864.5278L14096.9873,-3864.5277L14096.987,-3864.5272L14096.987,-3864.527L14096.987,-3864.527L14096.9869,-3864.5269L14096.9869,-3864.5268L14096.9868,-3864.5267L14096.9868,-3864.5266L14096.9866,-3864.5261L14096.9866,-3864.5261L14096.9866,-3864.5261L14096.9855,-3864.5234L14096.9851,-3864.5226L14096.9849,-3864.5221L14096.9844,-3864.5209L14096.9836,-3864.519L14096.9836,-3864.519L14096.9836,-3864.519L14096.9831,-3864.5178L14096.9831,-3864.5178L14096.9831,-3864.5178L14096.9811,-3864.5132L14096.972,-3864.4937L14096.9696,-3864.4887"/>
<path content="1,南部バス（株）,うみねこ号　仙台→八戸,4.0,4.0,4.0," xlink:title="1" d="M14096.9696,-3864.4887L14096.972,-3864.4937L14096.9811,-3864.5132L14096.9831,-3864.5178L14096.9831,-3864.5178L14096.9831,-3864.5178L14096.9836,-3864.519L14096.9836,-3864.519L14096.9836,-3864.519L14096.9844,-3864.5209L14096.9849,-3864.5221L14096.9851,-3864.5226L14096.9855,-3864.5234L14096.9866,-3864.5261L14096.9866,-3864.5261L14096.9866,-3864.5261L14096.9868,-3864.5266L14096.9868,-3864.5267L14096.9869,-3864.5268L14096.9869,-3864.5269L14096.987,-3864.527L14096.987,-3864.527L14096.987,-3864.5272L14096.9873,-3864.5277L14096.9873,-3864.5278L14096.9874,-3864.5279L14096.9884,-3864.5303L14096.9905,-3864.5354L14096.9935,-3864.5423L14096.9935,-3864.5424L14096.9935,-3864.5424L14096.9935,-3864.5424L14096.9968,-3864.5499L14096.9968,-3864.55L14096.9969,-3864.5501L14096.9969,-3864.5502L14096.9969,-3864.5502L14096.9969,-3864.5502L14096.9969,-3864.5502L14096.9969,-3864.5502L14096.9969,-3864.5503L14096.9969,-3864.5503L14096.997,-3864.5503L14096.997,-3864.5503L14096.997,-3864.5503L14096.9971,-3864.5506L14097.0009,-3864.5594L14097.0019,-3864.5619L14097.0025,-3864.5633L14097.0036,-3864.5662L14097.0083,-3864.5779L14097.0084,-3864.5782"/>
<path content="1,南部バス（株）,うみねこ号　八戸→仙台,4.0,4.0,4.0," xlink:title="1" d="M14097.0084,-3864.5782L14097.0009,-3864.5594L14096.9971,-3864.5506L14096.997,-3864.5503L14096.997,-3864.5503L14096.997,-3864.5503L14096.9969,-3864.5503L14096.9969,-3864.5503L14096.9969,-3864.5502L14096.9969,-3864.5502L14096.9969,-3864.5502L14096.9969,-3864.5502L14096.9969,-3864.5502L14096.9969,-3864.5501L14096.9968,-3864.55L14096.9968,-3864.5499L14096.9935,-3864.5423L14096.9884,-3864.5303L14096.988,-3864.5293L14096.9874,-3864.5279L14096.9873,-3864.5278L14096.9873,-3864.5277L14096.987,-3864.5272L14096.987,-3864.527L14096.987,-3864.527L14096.9869,-3864.5269L14096.9869,-3864.5268L14096.9868,-3864.5267L14096.9868,-3864.5266L14096.9866,-3864.5261L14096.9866,-3864.5261L14096.9866,-3864.5261L14096.9855,-3864.5234L14096.9851,-3864.5226L14096.9849,-3864.5221L14096.9844,-3864.5209L14096.9836,-3864.519L14096.9836,-3864.519L14096.9836,-3864.519L14096.9831,-3864.5178L14096.9831,-3864.5178L14096.9831,-3864.5178L14096.9818,-3864.5149L14096.9816,-3864.5143L14096.9811,-3864.5133L14096.976,-3864.5023L14096.976,-3864.5023L14096.972,-3864.4937L14096.9696,-3864.4887"/>
<path content="1,国際興業（株）,けせんライナー,1.0,1.0,1.0," xlink:title="1" d="M14096.9696,-3864.4887L14096.972,-3864.4937L14096.976,-3864.5023L14096.976,-3864.5023L14096.9811,-3864.5133L14096.9816,-3864.5143L14096.9831,-3864.5178L14096.9831,-3864.5178L14096.9831,-3864.5178L14096.9836,-3864.519L14096.9836,-3864.519L14096.9836,-3864.519L14096.9844,-3864.5209L14096.9844,-3864.521L14096.9849,-3864.5221L14096.9849,-3864.5221L14096.9851,-3864.5226L14096.9866,-3864.5261L14096.9866,-3864.5261L14096.9866,-3864.5261L14096.9869,-3864.5268L14096.987,-3864.527L14096.988,-3864.5293L14096.9935,-3864.5423L14096.9968,-3864.5499L14096.9968,-3864.55L14096.9969,-3864.5501L14096.9969,-3864.5502L14096.9969,-3864.5502L14096.9969,-3864.5502L14096.9969,-3864.5502L14096.9969,-3864.5502L14096.9969,-3864.5503L14096.9969,-3864.5503L14096.997,-3864.5503L14096.997,-3864.5503L14096.997,-3864.5503L14096.9971,-3864.5506L14097.0009,-3864.5594L14097.0084,-3864.5782"/>
<path content="1,国際興業（株）,イーハトープ号,1.0,1.0,1.0," xlink:title="1" d="M14096.9696,-3864.4887L14096.972,-3864.4937L14096.976,-3864.5023L14096.976,-3864.5023L14096.9811,-3864.5133L14096.9816,-3864.5143L14096.9831,-3864.5178L14096.9831,-3864.5178L14096.9831,-3864.5178L14096.9836,-3864.519L14096.9836,-3864.519L14096.9836,-3864.519L14096.9844,-3864.5209L14096.9844,-3864.521L14096.9849,-3864.5221L14096.9849,-3864.5221L14096.9851,-3864.5226L14096.9866,-3864.5261L14096.9866,-3864.5261L14096.9866,-3864.5261L14096.9869,-3864.5268L14096.987,-3864.527L14096.988,-3864.5293L14096.9935,-3864.5423L14096.9968,-3864.5499L14096.9968,-3864.55L14096.9969,-3864.5501L14096.9969,-3864.5502L14096.9969,-3864.5502L14096.9969,-3864.5502L14096.9969,-3864.5502L14096.9969,-3864.5502L14096.9969,-3864.5503L14096.9969,-3864.5503L14096.997,-3864.5503L14096.997,-3864.5503L14096.997,-3864.5503L14096.9971,-3864.5506L14097.0009,-3864.5594L14097.0084,-3864.5782"/>
<path content="1,国際興業（株）,シリウス号,1.0,1.0,1.0," xlink:title="1" d="M14096.9696,-3864.4887L14096.972,-3864.4937L14096.976,-3864.5023L14096.976,-3864.5023L14096.9811,-3864.5133L14096.9816,-3864.5143L14096.9831,-3864.5178L14096.9831,-3864.5178L14096.9831,-3864.5178L14096.9836,-3864.519L14096.9836,-3864.519L14096.9836,-3864.519L14096.9844,-3864.5209L14096.9844,-3864.521L14096.9849,-3864.5221L14096.9849,-3864.5221L14096.9851,-3864.5226L14096.9866,-3864.5261L14096.9866,-3864.5261L14096.9866,-3864.5261L14096.9869,-3864.5268L14096.987,-3864.527L14096.988,-3864.5293L14096.9935,-3864.5423L14096.9968,-3864.5499L14096.9968,-3864.55L14096.9969,-3864.5501L14096.9969,-3864.5502L14096.9969,-3864.5502L14096.9969,-3864.5502L14096.9969,-3864.5502L14096.9969,-3864.5502L14096.9969,-3864.5503L14096.9969,-3864.5503L14096.997,-3864.5503L14096.997,-3864.5503L14096.997,-3864.5503L14096.9971,-3864.5506L14097.0009,-3864.5594L14097.0084,-3864.5782"/>
<path content="1,国際興業（株）,ジュピター号,1.0,1.0,1.0," xlink:title="1" d="M14096.9696,-3864.4887L14096.972,-3864.4937L14096.976,-3864.5023L14096.976,-3864.5023L14096.9811,-3864.5133L14096.9816,-3864.5143L14096.9831,-3864.5178L14096.9831,-3864.5178L14096.9831,-3864.5178L14096.9836,-3864.519L14096.9836,-3864.519L14096.9836,-3864.519L14096.9844,-3864.5209L14096.9844,-3864.521L14096.9849,-3864.5221L14096.9849,-3864.5221L14096.9851,-3864.5226L14096.9866,-3864.5261L14096.9866,-3864.5261L14096.9866,-3864.5261L14096.9869,-3864.5268L14096.987,-3864.527L14096.988,-3864.5293L14096.9935,-3864.5423L14096.9968,-3864.5499L14096.9968,-3864.55L14096.9969,-3864.5501L14096.9969,-3864.5502L14096.9969,-3864.5502L14096.9969,-3864.5502L14096.9969,-3864.5502L14096.9969,-3864.5502L14096.9969,-3864.5503L14096.9969,-3864.5503L14096.997,-3864.5503L14096.997,-3864.5503L14096.997,-3864.5503L14096.9971,-3864.5506L14097.0009,-3864.5594L14097.0084,-3864.5782"/>
<path content="1,国際興業（株）,ドリーム盛岡（らくちん）号,2.2,3.0,3.0," xlink:title="1" d="M14096.9696,-3864.4887L14096.972,-3864.4937L14096.976,-3864.5023L14096.976,-3864.5023L14096.9811,-3864.5133L14096.9816,-3864.5143L14096.9831,-3864.5178L14096.9831,-3864.5178L14096.9831,-3864.5178L14096.9836,-3864.519L14096.9836,-3864.519L14096.9836,-3864.519L14096.9844,-3864.5209L14096.9844,-3864.521L14096.9849,-3864.5221L14096.9849,-3864.5221L14096.9851,-3864.5226L14096.9866,-3864.5261L14096.9866,-3864.5261L14096.9866,-3864.5261L14096.9869,-3864.5268L14096.987,-3864.527L14096.988,-3864.5293L14096.9935,-3864.5423L14096.9968,-3864.5499L14096.9968,-3864.55L14096.9969,-3864.5501L14096.9969,-3864.5502L14096.9969,-3864.5502L14096.9969,-3864.5502L14096.9969,-3864.5502L14096.9969,-3864.5502L14096.9969,-3864.5503L14096.9969,-3864.5503L14096.997,-3864.5503L14096.997,-3864.5503L14096.997,-3864.5503L14096.9971,-3864.5506L14097.0009,-3864.5594L14097.0084,-3864.5782"/>
<path content="1,国際興業（株）,遠野・釜石号,1.0,1.0,1.0," xlink:title="1" d="M14096.9696,-3864.4887L14096.972,-3864.4937L14096.976,-3864.5023L14096.976,-3864.5023L14096.9811,-3864.5133L14096.9816,-3864.5143L14096.9831,-3864.5178L14096.9831,-3864.5178L14096.9831,-3864.5178L14096.9836,-3864.519L14096.9836,-3864.519L14096.9836,-3864.519L14096.9844,-3864.5209L14096.9844,-3864.521L14096.9849,-3864.5221L14096.9849,-3864.5221L14096.9851,-3864.5226L14096.9866,-3864.5261L14096.9866,-3864.5261L14096.9866,-3864.5261L14096.9869,-3864.5268L14096.987,-3864.527L14096.988,-3864.5293L14096.9935,-3864.5423L14096.9968,-3864.5499L14096.9968,-3864.55L14096.9969,-3864.5501L14096.9969,-3864.5502L14096.9969,-3864.5502L14096.9969,-3864.5502L14096.9969,-3864.5502L14096.9969,-3864.5502L14096.9969,-3864.5503L14096.9969,-3864.5503L14096.997,-3864.5503L14096.997,-3864.5503L14096.997,-3864.5503L14096.9971,-3864.5506L14097.0009,-3864.5594L14097.0084,-3864.5782"/>
<path content="1,宮城交通（株）,うみねこ,1.0,1.0,1.0," xlink:title="1" d="M14096.9696,-3864.4887L14096.972,-3864.4937L14096.976,-3864.5023L14096.976,-3864.5023L14096.9811,-3864.5133L14096.9816,-3864.5143L14096.9818,-3864.5149L14096.9831,-3864.5178L14096.9831,-3864.5178L14096.9831,-3864.5178L14096.9836,-3864.519L14096.9836,-3864.519L14096.9836,-3864.519L14096.9844,-3864.5209L14096.9849,-3864.5221L14096.9851,-3864.5226L14096.9855,-3864.5234L14096.9866,-3864.5261L14096.9866,-3864.5261L14096.9866,-3864.5261L14096.9868,-3864.5266L14096.9868,-3864.5267L14096.9869,-3864.5268L14096.9869,-3864.5269L14096.987,-3864.527L14096.987,-3864.527L14096.987,-3864.5272L14096.9873,-3864.5277L14096.9873,-3864.5278L14096.9874,-3864.5279L14096.988,-3864.5293L14096.9884,-3864.5303L14096.9935,-3864.5423L14096.9968,-3864.5499L14096.9968,-3864.55L14096.9969,-3864.5501L14096.9969,-3864.5502L14096.9969,-3864.5502L14096.9969,-3864.5502L14096.9969,-3864.5502L14096.9969,-3864.5502L14096.9969,-3864.5503L14096.9969,-3864.5503L14096.997,-3864.5503L14096.997,-3864.5503L14096.997,-3864.5503L14096.9971,-3864.5506L14097.0009,-3864.5594L14097.0084,-3864.5782"/>
<path content="1,宮城交通（株）,アーバン,3.2,4.0,4.0," xlink:title="1" d="M14096.9696,-3864.4887L14096.972,-3864.4937L14096.976,-3864.5023L14096.976,-3864.5023L14096.9811,-3864.5133L14096.9816,-3864.5143L14096.9818,-3864.5149L14096.9831,-3864.5178L14096.9831,-3864.5178L14096.9831,-3864.5178L14096.9836,-3864.519L14096.9836,-3864.519L14096.9836,-3864.519L14096.9844,-3864.5209L14096.9849,-3864.5221L14096.9851,-3864.5226L14096.9855,-3864.5234L14096.9866,-3864.5261L14096.9866,-3864.5261L14096.9866,-3864.5261L14096.9868,-3864.5266L14096.9868,-3864.5267L14096.9869,-3864.5268L14096.9869,-3864.5269L14096.987,-3864.527L14096.987,-3864.527L14096.987,-3864.5272L14096.9873,-3864.5277L14096.9873,-3864.5278L14096.9874,-3864.5279L14096.988,-3864.5293L14096.9884,-3864.5303L14096.9935,-3864.5423L14096.9968,-3864.5499L14096.9968,-3864.55L14096.9969,-3864.5501L14096.9969,-3864.5502L14096.9969,-3864.5502L14096.9969,-3864.5502L14096.9969,-3864.5502L14096.9969,-3864.5502L14096.9969,-3864.5503L14096.9969,-3864.5503L14096.997,-3864.5503L14096.997,-3864.5503L14096.997,-3864.5503L14096.9971,-3864.5506L14097.0009,-3864.5594L14097.0084,-3864.5782"/>
<path content="1,宮城交通（株）,キャッスル,3.0,3.0,3.0," xlink:title="1" d="M14096.9696,-3864.4887L14096.972,-3864.4937L14096.976,-3864.5023L14096.976,-3864.5023L14096.9811,-3864.5133L14096.9816,-3864.5143L14096.9818,-3864.5149L14096.9831,-3864.5178L14096.9831,-3864.5178L14096.9831,-3864.5178L14096.9836,-3864.519L14096.9836,-3864.519L14096.9836,-3864.519L14096.9844,-3864.5209L14096.9849,-3864.5221L14096.9851,-3864.5226L14096.9855,-3864.5234L14096.9866,-3864.5261L14096.9866,-3864.5261L14096.9866,-3864.5261L14096.9868,-3864.5266L14096.9868,-3864.5267L14096.9869,-3864.5268L14096.9869,-3864.5269L14096.987,-3864.527L14096.987,-3864.527L14096.987,-3864.5272L14096.9873,-3864.5277L14096.9873,-3864.5278L14096.9874,-3864.5279L14096.988,-3864.5293L14096.9884,-3864.5303L14096.9935,-3864.5423L14096.9968,-3864.5499L14096.9968,-3864.55L14096.9969,-3864.5501L14096.9969,-3864.5502L14096.9969,-3864.5502L14096.9969,-3864.5502L14096.9969,-3864.5502L14096.9969,-3864.5502L14096.9969,-3864.5503L14096.9969,-3864.5503L14096.997,-3864.5503L14096.997,-3864.5503L14096.997,-3864.5503L14096.9971,-3864.5506L14097.0009,-3864.5594L14097.0084,-3864.5782"/>
<path content="1,宮城交通（株）,ブルーシティ,1.5,1.5,1.5," xlink:title="1" d="M14096.9696,-3864.4887L14096.972,-3864.4937L14096.976,-3864.5023L14096.976,-3864.5023L14096.9811,-3864.5133L14096.9816,-3864.5143L14096.9818,-3864.5149L14096.9831,-3864.5178L14096.9831,-3864.5178L14096.9831,-3864.5178L14096.9836,-3864.519L14096.9836,-3864.519L14096.9836,-3864.519L14096.9844,-3864.5209L14096.9849,-3864.5221L14096.9851,-3864.5226L14096.9855,-3864.5234L14096.9866,-3864.5261L14096.9866,-3864.5261L14096.9866,-3864.5261L14096.9868,-3864.5266L14096.9868,-3864.5267L14096.9869,-3864.5268L14096.9869,-3864.5269L14096.987,-3864.527L14096.987,-3864.527L14096.987,-3864.5272L14096.9873,-3864.5277L14096.9873,-3864.5278L14096.9874,-3864.5279L14096.988,-3864.5293L14096.9884,-3864.5303L14096.9935,-3864.5423L14096.9968,-3864.5499L14096.9968,-3864.55L14096.9969,-3864.5501L14096.9969,-3864.5502L14096.9969,-3864.5502L14096.9969,-3864.5502L14096.9969,-3864.5502L14096.9969,-3864.5502L14096.9969,-3864.5503L14096.9969,-3864.5503L14096.997,-3864.5503L14096.997,-3864.5503L14096.997,-3864.5503L14096.9971,-3864.5506L14097.0009,-3864.5594L14097.0084,-3864.5782"/>
<path content="1,宮城交通（株）,仙台～佐沼線,8.0,8.0,8.0," xlink:title="1" d="M14096.9696,-3864.4887L14096.972,-3864.4937L14096.9811,-3864.5132L14096.9818,-3864.5149L14096.9831,-3864.5178L14096.9831,-3864.5178L14096.9831,-3864.5178L14096.9836,-3864.519L14096.9836,-3864.519L14096.9836,-3864.519L14096.9844,-3864.5209L14096.9849,-3864.5221L14096.9851,-3864.5226L14096.9855,-3864.5234L14096.9865,-3864.526L14096.9868,-3864.5266L14096.9868,-3864.5267L14096.9869,-3864.5268L14096.9869,-3864.5268L14096.9869,-3864.5268L14096.9869,-3864.527L14096.987,-3864.5272L14096.9873,-3864.5277L14096.9873,-3864.5278L14096.9874,-3864.5279L14096.9884,-3864.5303L14096.9905,-3864.5354L14096.9935,-3864.5423L14096.9935,-3864.5424L14096.9935,-3864.5424L14096.9935,-3864.5424L14096.9968,-3864.5499L14096.9968,-3864.55L14096.9969,-3864.5501L14096.9969,-3864.5502L14096.9969,-3864.5502L14096.9969,-3864.5502L14096.9969,-3864.5502L14096.9969,-3864.5502L14096.9969,-3864.5503L14096.9969,-3864.5503L14096.997,-3864.5503L14096.997,-3864.5503L14096.997,-3864.5503L14096.9971,-3864.5506L14097.0009,-3864.5594L14097.0019,-3864.5619L14097.0025,-3864.5633L14097.0036,-3864.5662L14097.0083,-3864.5779L14097.0084,-3864.5782"/>
<path content="1,宮城交通（株）,仙台～大船渡線,2.0,2.0,2.0," xlink:title="1" d="M14096.9696,-3864.4887L14096.972,-3864.4937L14096.976,-3864.5023L14096.976,-3864.5023L14096.9811,-3864.5133L14096.9816,-3864.5143L14096.9831,-3864.5178L14096.9831,-3864.5178L14096.9831,-3864.5178L14096.9836,-3864.519L14096.9836,-3864.519L14096.9836,-3864.519L14096.9844,-3864.5209L14096.9844,-3864.521L14096.9849,-3864.5221L14096.9849,-3864.5221L14096.9851,-3864.5226L14096.9866,-3864.5261L14096.9866,-3864.5261L14096.9866,-3864.5261L14096.9869,-3864.5268L14096.987,-3864.527L14096.988,-3864.5293L14096.9935,-3864.5423L14096.9968,-3864.5499L14096.9968,-3864.55L14096.9969,-3864.5501L14096.9969,-3864.5502L14096.9969,-3864.5502L14096.9969,-3864.5502L14096.9969,-3864.5502L14096.9969,-3864.5502L14096.9969,-3864.5503L14096.9969,-3864.5503L14096.997,-3864.5503L14096.997,-3864.5503L14096.997,-3864.5503L14096.9971,-3864.5506L14097.0009,-3864.5594L14097.0084,-3864.5782"/>
<path content="1,宮城交通（株）,仙台～栗駒線,2.0,2.0,2.0," xlink:title="1" d="M14096.9696,-3864.4887L14096.972,-3864.4937L14096.9811,-3864.5132L14096.9818,-3864.5149L14096.9831,-3864.5178L14096.9831,-3864.5178L14096.9831,-3864.5178L14096.9836,-3864.519L14096.9836,-3864.519L14096.9836,-3864.519L14096.9844,-3864.5209L14096.9849,-3864.5221L14096.9851,-3864.5226L14096.9855,-3864.5234L14096.9865,-3864.526L14096.9868,-3864.5266L14096.9868,-3864.5267L14096.9869,-3864.5268L14096.9869,-3864.5268L14096.9869,-3864.5268L14096.9869,-3864.527L14096.987,-3864.5272L14096.9873,-3864.5277L14096.9873,-3864.5278L14096.9874,-3864.5279L14096.9884,-3864.5303L14096.9905,-3864.5354L14096.9935,-3864.5423L14096.9935,-3864.5424L14096.9935,-3864.5424L14096.9935,-3864.5424L14096.9968,-3864.5499L14096.9968,-3864.55L14096.9969,-3864.5501L14096.9969,-3864.5502L14096.9969,-3864.5502L14096.9969,-3864.5502L14096.9969,-3864.5502L14096.9969,-3864.5502L14096.9969,-3864.5503L14096.9969,-3864.5503L14096.997,-3864.5503L14096.997,-3864.5503L14096.997,-3864.5503L14096.9971,-3864.5506L14097.0009,-3864.5594L14097.0019,-3864.5619L14097.0025,-3864.5633L14097.0036,-3864.5662L14097.0083,-3864.5779L14097.0084,-3864.5782"/>
<path content="1,宮城交通（株）,仙台～気仙沼線,3.0,3.0,3.0," xlink:title="1" d="M14096.9696,-3864.4887L14096.972,-3864.4937L14096.9811,-3864.5132L14096.9818,-3864.5149L14096.9831,-3864.5178L14096.9831,-3864.5178L14096.9831,-3864.5178L14096.9836,-3864.519L14096.9836,-3864.519L14096.9836,-3864.519L14096.9844,-3864.5209L14096.9849,-3864.5221L14096.9851,-3864.5226L14096.9855,-3864.5234L14096.9865,-3864.526L14096.9868,-3864.5266L14096.9868,-3864.5267L14096.9869,-3864.5269L14096.9869,-3864.527L14096.987,-3864.527L14096.987,-3864.5272L14096.9873,-3864.5277L14096.9873,-3864.5278L14096.9874,-3864.5279L14096.9884,-3864.5303L14096.9905,-3864.5354L14096.9935,-3864.5423L14096.9935,-3864.5424L14096.9935,-3864.5424L14096.9935,-3864.5424L14096.9968,-3864.5499L14096.9968,-3864.55L14096.9969,-3864.5501L14096.9969,-3864.5502L14096.9969,-3864.5502L14096.9969,-3864.5502L14096.9969,-3864.5502L14096.9969,-3864.5502L14096.9969,-3864.5503L14096.9969,-3864.5503L14096.997,-3864.5503L14096.997,-3864.5503L14096.997,-3864.5503L14096.9971,-3864.5506L14097.0009,-3864.5594L14097.0019,-3864.5619L14097.0025,-3864.5633L14097.0036,-3864.5662L14097.0083,-3864.5779L14097.0084,-3864.5782"/>
<path content="1,宮城交通（株）,仙台～釜石線,1.0,1.0,1.0," xlink:title="1" d="M14096.9696,-3864.4887L14096.972,-3864.4937L14096.976,-3864.5023L14096.976,-3864.5023L14096.9811,-3864.5133L14096.9816,-3864.5143L14096.9818,-3864.5149L14096.9831,-3864.5178L14096.9831,-3864.5178L14096.9831,-3864.5178L14096.9836,-3864.519L14096.9836,-3864.519L14096.9836,-3864.519L14096.9844,-3864.5209L14096.9849,-3864.5221L14096.9851,-3864.5226L14096.9855,-3864.5234L14096.9866,-3864.5261L14096.9866,-3864.5261L14096.9866,-3864.5261L14096.9868,-3864.5266L14096.9868,-3864.5267L14096.9869,-3864.5268L14096.9869,-3864.5269L14096.987,-3864.527L14096.987,-3864.527L14096.987,-3864.5272L14096.9873,-3864.5277L14096.9873,-3864.5278L14096.9874,-3864.5279L14096.988,-3864.5293L14096.9884,-3864.5303L14096.9935,-3864.5423L14096.9968,-3864.5499L14096.9968,-3864.55L14096.9969,-3864.5501L14096.9969,-3864.5502L14096.9969,-3864.5502L14096.9969,-3864.5502L14096.9969,-3864.5502L14096.9969,-3864.5502L14096.9969,-3864.5503L14096.9969,-3864.5503L14096.997,-3864.5503L14096.997,-3864.5503L14096.997,-3864.5503L14096.9971,-3864.5506L14097.0009,-3864.5594L14097.0084,-3864.5782"/>
<path content="1,宮城交通（株）,仙秋,4.0,4.0,4.0," xlink:title="1" d="M14096.9696,-3864.4887L14096.972,-3864.4937L14096.976,-3864.5023L14096.976,-3864.5023L14096.9811,-3864.5133L14096.9816,-3864.5143L14096.9818,-3864.5149L14096.9831,-3864.5178L14096.9831,-3864.5178L14096.9831,-3864.5178L14096.9836,-3864.519L14096.9836,-3864.519L14096.9836,-3864.519L14096.9844,-3864.5209L14096.9849,-3864.5221L14096.9851,-3864.5226L14096.9855,-3864.5234L14096.9866,-3864.5261L14096.9866,-3864.5261L14096.9866,-3864.5261L14096.9868,-3864.5266L14096.9868,-3864.5267L14096.9869,-3864.5268L14096.9869,-3864.5269L14096.987,-3864.527L14096.987,-3864.527L14096.987,-3864.5272L14096.9873,-3864.5277L14096.9873,-3864.5278L14096.9874,-3864.5279L14096.988,-3864.5293L14096.9884,-3864.5303L14096.9935,-3864.5423L14096.9968,-3864.5499L14096.9968,-3864.55L14096.9969,-3864.5501L14096.9969,-3864.5502L14096.9969,-3864.5502L14096.9969,-3864.5502L14096.9969,-3864.5502L14096.9969,-3864.5502L14096.9969,-3864.5503L14096.9969,-3864.5503L14096.997,-3864.5503L14096.997,-3864.5503L14096.997,-3864.5503L14096.9971,-3864.5506L14097.0009,-3864.5594L14097.0084,-3864.5782"/>
<path content="1,宮城交通（株）,南三陸～仙台線,3.0,3.0,3.0," xlink:title="1" d="M14096.9696,-3864.4887L14096.972,-3864.4937L14096.9811,-3864.5132L14096.9818,-3864.5149L14096.9831,-3864.5178L14096.9831,-3864.5178L14096.9831,-3864.5178L14096.9836,-3864.519L14096.9836,-3864.519L14096.9836,-3864.519L14096.9844,-3864.5209L14096.9849,-3864.5221L14096.9851,-3864.5226L14096.9855,-3864.5234L14096.9865,-3864.526L14096.9868,-3864.5266L14096.9868,-3864.5267L14096.9869,-3864.5268L14096.9869,-3864.5268L14096.9869,-3864.5268L14096.9869,-3864.527L14096.987,-3864.5272L14096.9873,-3864.5277L14096.9873,-3864.5278L14096.9874,-3864.5279L14096.9884,-3864.5303L14096.9905,-3864.5354L14096.9935,-3864.5423L14096.9935,-3864.5424L14096.9935,-3864.5424L14096.9935,-3864.5424L14096.9968,-3864.5499L14096.9968,-3864.55L14096.9969,-3864.5501L14096.9969,-3864.5502L14096.9969,-3864.5502L14096.9969,-3864.5502L14096.9969,-3864.5502L14096.9969,-3864.5502L14096.9969,-3864.5503L14096.9969,-3864.5503L14096.997,-3864.5503L14096.997,-3864.5503L14096.997,-3864.5503L14096.9971,-3864.5506L14097.0009,-3864.5594L14097.0019,-3864.5619L14097.0025,-3864.5633L14097.0036,-3864.5662L14097.0083,-3864.5779L14097.0084,-3864.5782"/>
<path content="1,小田急シティバス（株）,フローラ号,1.0,1.0,1.0," xlink:title="1" d="M14096.9696,-3864.4887L14096.972,-3864.4937L14096.976,-3864.5023L14096.976,-3864.5023L14096.9811,-3864.5133L14096.9816,-3864.5143L14096.9831,-3864.5178L14096.9831,-3864.5178L14096.9831,-3864.5178L14096.9836,-3864.519L14096.9836,-3864.519L14096.9836,-3864.519L14096.9844,-3864.5209L14096.9844,-3864.521L14096.9849,-3864.5221L14096.9849,-3864.5221L14096.9851,-3864.5226L14096.9866,-3864.5261L14096.9866,-3864.5261L14096.9866,-3864.5261L14096.9869,-3864.5268L14096.987,-3864.527L14096.988,-3864.5293L14096.9935,-3864.5423L14096.9968,-3864.5499L14096.9968,-3864.55L14096.9969,-3864.5501L14096.9969,-3864.5502L14096.9969,-3864.5502L14096.9969,-3864.5502L14096.9969,-3864.5502L14096.9969,-3864.5502L14096.9969,-3864.5503L14096.9969,-3864.5503L14096.997,-3864.5503L14096.997,-3864.5503L14096.997,-3864.5503L14096.9971,-3864.5506L14097.0009,-3864.5594L14097.0084,-3864.5782"/>
<path content="1,小田急バス（株）,フローラ号,1.0,1.0,1.0," xlink:title="1" d="M14096.9696,-3864.4887L14096.972,-3864.4937L14096.976,-3864.5023L14096.976,-3864.5023L14096.9811,-3864.5133L14096.9816,-3864.5143L14096.9831,-3864.5178L14096.9831,-3864.5178L14096.9831,-3864.5178L14096.9836,-3864.519L14096.9836,-3864.519L14096.9836,-3864.519L14096.9844,-3864.5209L14096.9844,-3864.521L14096.9849,-3864.5221L14096.9849,-3864.5221L14096.9851,-3864.5226L14096.9866,-3864.5261L14096.9866,-3864.5261L14096.9866,-3864.5261L14096.9869,-3864.5268L14096.987,-3864.527L14096.988,-3864.5293L14096.9935,-3864.5423L14096.9968,-3864.5499L14096.9968,-3864.55L14096.9969,-3864.5501L14096.9969,-3864.5502L14096.9969,-3864.5502L14096.9969,-3864.5502L14096.9969,-3864.5502L14096.9969,-3864.5502L14096.9969,-3864.5503L14096.9969,-3864.5503L14096.997,-3864.5503L14096.997,-3864.5503L14096.997,-3864.5503L14096.9971,-3864.5506L14097.0009,-3864.5594L14097.0084,-3864.5782"/>
<path content="1,岩手急行バス（株）,一ノ関仙台線,19.0,19.0,19.0," xlink:title="1" d="M14096.9696,-3864.4887L14096.972,-3864.4937L14096.9811,-3864.5132L14096.9818,-3864.5149L14096.9831,-3864.5178L14096.9831,-3864.5178L14096.9831,-3864.5178L14096.9836,-3864.519L14096.9836,-3864.519L14096.9836,-3864.519L14096.9844,-3864.5209L14096.9849,-3864.5221L14096.9851,-3864.5226L14096.9855,-3864.5234L14096.9865,-3864.526L14096.9868,-3864.5266L14096.9868,-3864.5267L14096.9869,-3864.5269L14096.9869,-3864.527L14096.987,-3864.527L14096.987,-3864.5272L14096.9873,-3864.5277L14096.9873,-3864.5278L14096.9874,-3864.5279L14096.9884,-3864.5303L14096.9905,-3864.5354L14096.9935,-3864.5423L14096.9935,-3864.5424L14096.9935,-3864.5424L14096.9935,-3864.5424L14096.9968,-3864.5499L14096.9968,-3864.55L14096.9969,-3864.5501L14096.9969,-3864.5502L14096.9969,-3864.5502L14096.9969,-3864.5502L14096.9969,-3864.5502L14096.9969,-3864.5502L14096.9969,-3864.5503L14096.9969,-3864.5503L14096.997,-3864.5503L14096.997,-3864.5503L14096.997,-3864.5503L14096.9971,-3864.5506L14097.0009,-3864.5594L14097.0019,-3864.5619L14097.0025,-3864.5633L14097.0036,-3864.5662L14097.0083,-3864.5779L14097.0084,-3864.5782"/>
<path content="1,岩手県交通（株）,けせんライナー,1.0,1.0,1.0," xlink:title="1" d="M14096.9696,-3864.4887L14096.972,-3864.4937L14096.976,-3864.5023L14096.976,-3864.5023L14096.9811,-3864.5133L14096.9816,-3864.5143L14096.9831,-3864.5178L14096.9831,-3864.5178L14096.9831,-3864.5178L14096.9836,-3864.519L14096.9836,-3864.519L14096.9836,-3864.519L14096.9844,-3864.5209L14096.9844,-3864.521L14096.9849,-3864.5221L14096.9849,-3864.5221L14096.9851,-3864.5226L14096.9866,-3864.5261L14096.9866,-3864.5261L14096.9866,-3864.5261L14096.9869,-3864.5268L14096.987,-3864.527L14096.988,-3864.5293L14096.9935,-3864.5423L14096.9968,-3864.5499L14096.9968,-3864.55L14096.9969,-3864.5501L14096.9969,-3864.5502L14096.9969,-3864.5502L14096.9969,-3864.5502L14096.9969,-3864.5502L14096.9969,-3864.5502L14096.9969,-3864.5503L14096.9969,-3864.5503L14096.997,-3864.5503L14096.997,-3864.5503L14096.997,-3864.5503L14096.9971,-3864.5506L14097.0009,-3864.5594L14097.0084,-3864.5782"/>
<path content="1,岩手県交通（株）,けんじライナー,2.0,2.0,2.0," xlink:title="1" d="M14096.9696,-3864.4887L14096.972,-3864.4937L14096.9811,-3864.5132L14096.9818,-3864.5149L14096.9831,-3864.5178L14096.9831,-3864.5178L14096.9831,-3864.5178L14096.9836,-3864.519L14096.9836,-3864.519L14096.9836,-3864.519L14096.9844,-3864.5209L14096.9849,-3864.5221L14096.9851,-3864.5226L14096.9855,-3864.5234L14096.9865,-3864.526L14096.9868,-3864.5266L14096.9868,-3864.5267L14096.9869,-3864.5269L14096.9869,-3864.527L14096.987,-3864.527L14096.987,-3864.5272L14096.9873,-3864.5277L14096.9873,-3864.5278L14096.9874,-3864.5279L14096.9884,-3864.5303L14096.9905,-3864.5354L14096.9935,-3864.5423L14096.9935,-3864.5424L14096.9935,-3864.5424L14096.9935,-3864.5424L14096.9968,-3864.5499L14096.9968,-3864.55L14096.9969,-3864.5501L14096.9969,-3864.5502L14096.9969,-3864.5502L14096.9969,-3864.5502L14096.9969,-3864.5502L14096.9969,-3864.5502L14096.9969,-3864.5503L14096.9969,-3864.5503L14096.997,-3864.5503L14096.997,-3864.5503L14096.997,-3864.5503L14096.9971,-3864.5506L14097.0009,-3864.5594L14097.0019,-3864.5619L14097.0025,-3864.5633L14097.0036,-3864.5662L14097.0083,-3864.5779L14097.0084,-3864.5782"/>
<path content="1,岩手県交通（株）,アーバン号,3.2,4.0,4.0," xlink:title="1" d="M14096.9696,-3864.4887L14096.972,-3864.4937L14096.9811,-3864.5132L14096.9818,-3864.5149L14096.9831,-3864.5178L14096.9831,-3864.5178L14096.9831,-3864.5178L14096.9836,-3864.519L14096.9836,-3864.519L14096.9836,-3864.519L14096.9844,-3864.5209L14096.9849,-3864.5221L14096.9851,-3864.5226L14096.9855,-3864.5234L14096.9865,-3864.526L14096.9868,-3864.5266L14096.9868,-3864.5267L14096.9869,-3864.5269L14096.9869,-3864.527L14096.987,-3864.527L14096.987,-3864.5272L14096.9873,-3864.5277L14096.9873,-3864.5278L14096.9874,-3864.5279L14096.9884,-3864.5303L14096.9905,-3864.5354L14096.9935,-3864.5423L14096.9935,-3864.5424L14096.9935,-3864.5424L14096.9935,-3864.5424L14096.9968,-3864.5499L14096.9968,-3864.55L14096.9969,-3864.5501L14096.9969,-3864.5502L14096.9969,-3864.5502L14096.9969,-3864.5502L14096.9969,-3864.5502L14096.9969,-3864.5502L14096.9969,-3864.5503L14096.9969,-3864.5503L14096.997,-3864.5503L14096.997,-3864.5503L14096.997,-3864.5503L14096.9971,-3864.5506L14097.0009,-3864.5594L14097.0019,-3864.5619L14097.0025,-3864.5633L14097.0036,-3864.5662L14097.0083,-3864.5779L14097.0084,-3864.5782"/>
<path content="1,岩手県交通（株）,イーハトーブ号,1.0,1.0,1.0," xlink:title="1" d="M14096.9696,-3864.4887L14096.972,-3864.4937L14096.976,-3864.5023L14096.976,-3864.5023L14096.9811,-3864.5133L14096.9816,-3864.5143L14096.9831,-3864.5178L14096.9831,-3864.5178L14096.9831,-3864.5178L14096.9836,-3864.519L14096.9836,-3864.519L14096.9836,-3864.519L14096.9844,-3864.5209L14096.9844,-3864.521L14096.9849,-3864.5221L14096.9849,-3864.5221L14096.9851,-3864.5226L14096.9866,-3864.5261L14096.9866,-3864.5261L14096.9866,-3864.5261L14096.9869,-3864.5268L14096.987,-3864.527L14096.988,-3864.5293L14096.9935,-3864.5423L14096.9968,-3864.5499L14096.9968,-3864.55L14096.9969,-3864.5501L14096.9969,-3864.5502L14096.9969,-3864.5502L14096.9969,-3864.5502L14096.9969,-3864.5502L14096.9969,-3864.5502L14096.9969,-3864.5503L14096.9969,-3864.5503L14096.997,-3864.5503L14096.997,-3864.5503L14096.997,-3864.5503L14096.9971,-3864.5506L14097.0009,-3864.5594L14097.0084,-3864.5782"/>
<path content="1,岩手県交通（株）,ドリーム盛岡（らくちん）号,2.3,3.0,3.0," xlink:title="1" d="M14096.9696,-3864.4887L14096.972,-3864.4937L14096.976,-3864.5023L14096.976,-3864.5023L14096.9811,-3864.5133L14096.9816,-3864.5143L14096.9831,-3864.5178L14096.9831,-3864.5178L14096.9831,-3864.5178L14096.9836,-3864.519L14096.9836,-3864.519L14096.9836,-3864.519L14096.9844,-3864.5209L14096.9844,-3864.521L14096.9849,-3864.5221L14096.9849,-3864.5221L14096.9851,-3864.5226L14096.9866,-3864.5261L14096.9866,-3864.5261L14096.9866,-3864.5261L14096.9869,-3864.5268L14096.987,-3864.527L14096.988,-3864.5293L14096.9935,-3864.5423L14096.9968,-3864.5499L14096.9968,-3864.55L14096.9969,-3864.5501L14096.9969,-3864.5502L14096.9969,-3864.5502L14096.9969,-3864.5502L14096.9969,-3864.5502L14096.9969,-3864.5502L14096.9969,-3864.5503L14096.9969,-3864.5503L14096.997,-3864.5503L14096.997,-3864.5503L14096.997,-3864.5503L14096.9971,-3864.5506L14097.0009,-3864.5594L14097.0084,-3864.5782"/>
<path content="1,岩手県交通（株）,一関・仙台線,0.5,0.5,0.5," xlink:title="1" d="M14097.0084,-3864.5782L14097.0083,-3864.5779L14097.0036,-3864.5662L14097.0025,-3864.5633L14097.0019,-3864.5619L14097.0009,-3864.5594L14096.9971,-3864.5506L14096.997,-3864.5503L14096.997,-3864.5503L14096.997,-3864.5503L14096.9969,-3864.5503L14096.9969,-3864.5503L14096.9969,-3864.5502L14096.9969,-3864.5502L14096.9969,-3864.5502L14096.9969,-3864.5502L14096.9969,-3864.5502L14096.9969,-3864.5501L14096.9968,-3864.55L14096.9968,-3864.5499L14096.9935,-3864.5424L14096.9935,-3864.5424L14096.9935,-3864.5424L14096.9935,-3864.5423L14096.9905,-3864.5354L14096.9884,-3864.5303L14096.9874,-3864.5279L14096.9873,-3864.5278L14096.9873,-3864.5277L14096.987,-3864.5272L14096.987,-3864.527L14096.9869,-3864.527L14096.9869,-3864.5269L14096.9868,-3864.5267L14096.9868,-3864.5266L14096.9865,-3864.526L14096.9855,-3864.5234L14096.9851,-3864.5226L14096.9849,-3864.5221L14096.9844,-3864.5209L14096.9836,-3864.519L14096.9836,-3864.519L14096.9836,-3864.519L14096.9831,-3864.5178L14096.9831,-3864.5178L14096.9831,-3864.5178L14096.9818,-3864.5149L14096.9811,-3864.5132L14096.972,-3864.4937L14096.9696,-3864.4887"/>
<path content="1,岩手県交通（株）,大船渡・仙台線,2.0,2.0,2.0," xlink:title="1" d="M14097.0084,-3864.5782L14097.0083,-3864.5779L14097.0036,-3864.5662L14097.0025,-3864.5633L14097.0019,-3864.5619L14097.0009,-3864.5594L14096.9971,-3864.5506L14096.997,-3864.5503L14096.997,-3864.5503L14096.997,-3864.5503L14096.9969,-3864.5503L14096.9969,-3864.5503L14096.9969,-3864.5502L14096.9969,-3864.5502L14096.9969,-3864.5502L14096.9969,-3864.5502L14096.9969,-3864.5502L14096.9969,-3864.5501L14096.9968,-3864.55L14096.9968,-3864.5499L14096.9935,-3864.5424L14096.9935,-3864.5424L14096.9935,-3864.5424L14096.9935,-3864.5423L14096.9905,-3864.5354L14096.9884,-3864.5303L14096.9874,-3864.5279L14096.9873,-3864.5278L14096.9873,-3864.5277L14096.987,-3864.5272L14096.987,-3864.527L14096.9869,-3864.527L14096.9869,-3864.5269L14096.9868,-3864.5267L14096.9868,-3864.5266L14096.9865,-3864.526L14096.9855,-3864.5234L14096.9851,-3864.5226L14096.9849,-3864.5221L14096.9844,-3864.5209L14096.9836,-3864.519L14096.9836,-3864.519L14096.9836,-3864.519L14096.9831,-3864.5178L14096.9831,-3864.5178L14096.9831,-3864.5178L14096.9818,-3864.5149L14096.9811,-3864.5132L14096.972,-3864.4937L14096.9696,-3864.4887"/>
<path content="1,岩手県交通（株）,平泉中尊寺号,0.5,0.5,0.5," xlink:title="1" d="M14096.9696,-3864.4887L14096.972,-3864.4937L14096.9811,-3864.5132L14096.9818,-3864.5149L14096.9831,-3864.5178L14096.9831,-3864.5178L14096.9831,-3864.5178L14096.9836,-3864.519L14096.9836,-3864.519L14096.9836,-3864.519L14096.9844,-3864.5209L14096.9849,-3864.5221L14096.9851,-3864.5226L14096.9855,-3864.5234L14096.9865,-3864.526L14096.9868,-3864.5266L14096.9868,-3864.5267L14096.9869,-3864.5269L14096.9869,-3864.527L14096.987,-3864.527L14096.987,-3864.5272L14096.9873,-3864.5277L14096.9873,-3864.5278L14096.9874,-3864.5279L14096.9884,-3864.5303L14096.9905,-3864.5354L14096.9935,-3864.5423L14096.9935,-3864.5424L14096.9935,-3864.5424L14096.9935,-3864.5424L14096.9968,-3864.5499L14096.9968,-3864.55L14096.9969,-3864.5501L14096.9969,-3864.5502L14096.9969,-3864.5502L14096.9969,-3864.5502L14096.9969,-3864.5502L14096.9969,-3864.5502L14096.9969,-3864.5503L14096.9969,-3864.5503L14096.997,-3864.5503L14096.997,-3864.5503L14096.997,-3864.5503L14096.9971,-3864.5506L14097.0009,-3864.5594L14097.0019,-3864.5619L14097.0025,-3864.5633L14097.0036,-3864.5662L14097.0083,-3864.5779L14097.0084,-3864.5782"/>
<path content="1,岩手県交通（株）,江刺・仙台線,2.0,2.0,2.0," xlink:title="1" d="M14096.9696,-3864.4887L14096.972,-3864.4937L14096.9811,-3864.5132L14096.9818,-3864.5149L14096.9831,-3864.5178L14096.9831,-3864.5178L14096.9831,-3864.5178L14096.9836,-3864.519L14096.9836,-3864.519L14096.9836,-3864.519L14096.9844,-3864.5209L14096.9849,-3864.5221L14096.9851,-3864.5226L14096.9855,-3864.5234L14096.9865,-3864.526L14096.9868,-3864.5266L14096.9868,-3864.5267L14096.9869,-3864.5269L14096.9869,-3864.527L14096.987,-3864.527L14096.987,-3864.5272L14096.9873,-3864.5277L14096.9873,-3864.5278L14096.9874,-3864.5279L14096.9884,-3864.5303L14096.9905,-3864.5354L14096.9935,-3864.5423L14096.9935,-3864.5424L14096.9935,-3864.5424L14096.9935,-3864.5424L14096.9968,-3864.5499L14096.9968,-3864.55L14096.9969,-3864.5501L14096.9969,-3864.5502L14096.9969,-3864.5502L14096.9969,-3864.5502L14096.9969,-3864.5502L14096.9969,-3864.5502L14096.9969,-3864.5503L14096.9969,-3864.5503L14096.997,-3864.5503L14096.997,-3864.5503L14096.997,-3864.5503L14096.9971,-3864.5506L14097.0009,-3864.5594L14097.0019,-3864.5619L14097.0025,-3864.5633L14097.0036,-3864.5662L14097.0083,-3864.5779L14097.0084,-3864.5782"/>
<path content="1,岩手県交通（株）,盛岡・横浜線,1.0,1.0,1.0," xlink:title="1" d="M14096.9696,-3864.4887L14096.972,-3864.4937L14096.976,-3864.5023L14096.976,-3864.5023L14096.9811,-3864.5133L14096.9816,-3864.5143L14096.9831,-3864.5178L14096.9831,-3864.5178L14096.9831,-3864.5178L14096.9836,-3864.519L14096.9836,-3864.519L14096.9836,-3864.519L14096.9844,-3864.5209L14096.9844,-3864.521L14096.9849,-3864.5221L14096.9849,-3864.5221L14096.9851,-3864.5226L14096.9866,-3864.5261L14096.9866,-3864.5261L14096.9866,-3864.5261L14096.9869,-3864.5268L14096.987,-3864.527L14096.988,-3864.5293L14096.9935,-3864.5423L14096.9968,-3864.5499L14096.9968,-3864.55L14096.9969,-3864.5501L14096.9969,-3864.5502L14096.9969,-3864.5502L14096.9969,-3864.5502L14096.9969,-3864.5502L14096.9969,-3864.5502L14096.9969,-3864.5503L14096.9969,-3864.5503L14096.997,-3864.5503L14096.997,-3864.5503L14096.997,-3864.5503L14096.9971,-3864.5506L14097.0009,-3864.5594L14097.0084,-3864.5782"/>
<path content="1,岩手県交通（株）,遠野・釜石号,1.0,1.0,1.0," xlink:title="1" d="M14096.9696,-3864.4887L14096.972,-3864.4937L14096.976,-3864.5023L14096.976,-3864.5023L14096.9811,-3864.5133L14096.9816,-3864.5143L14096.9831,-3864.5178L14096.9831,-3864.5178L14096.9831,-3864.5178L14096.9836,-3864.519L14096.9836,-3864.519L14096.9836,-3864.519L14096.9844,-3864.5209L14096.9844,-3864.521L14096.9849,-3864.5221L14096.9849,-3864.5221L14096.9851,-3864.5226L14096.9866,-3864.5261L14096.9866,-3864.5261L14096.9866,-3864.5261L14096.9869,-3864.5268L14096.987,-3864.527L14096.988,-3864.5293L14096.9935,-3864.5423L14096.9968,-3864.5499L14096.9968,-3864.55L14096.9969,-3864.5501L14096.9969,-3864.5502L14096.9969,-3864.5502L14096.9969,-3864.5502L14096.9969,-3864.5502L14096.9969,-3864.5502L14096.9969,-3864.5503L14096.9969,-3864.5503L14096.997,-3864.5503L14096.997,-3864.5503L14096.997,-3864.5503L14096.9971,-3864.5506L14097.0009,-3864.5594L14097.0084,-3864.5782"/>
<path content="1,岩手県交通（株）,釜石・仙台線,1.0,1.0,1.0," xlink:title="1" d="M14097.0084,-3864.5782L14097.0083,-3864.5779L14097.0036,-3864.5662L14097.0025,-3864.5633L14097.0019,-3864.5619L14097.0009,-3864.5594L14096.9971,-3864.5506L14096.997,-3864.5503L14096.997,-3864.5503L14096.997,-3864.5503L14096.9969,-3864.5503L14096.9969,-3864.5503L14096.9969,-3864.5502L14096.9969,-3864.5502L14096.9969,-3864.5502L14096.9969,-3864.5502L14096.9969,-3864.5502L14096.9969,-3864.5501L14096.9968,-3864.55L14096.9968,-3864.5499L14096.9935,-3864.5424L14096.9935,-3864.5424L14096.9935,-3864.5424L14096.9935,-3864.5423L14096.9905,-3864.5354L14096.9884,-3864.5303L14096.9874,-3864.5279L14096.9873,-3864.5278L14096.9873,-3864.5277L14096.987,-3864.5272L14096.987,-3864.527L14096.9869,-3864.527L14096.9869,-3864.5269L14096.9868,-3864.5267L14096.9868,-3864.5266L14096.9865,-3864.526L14096.9855,-3864.5234L14096.9851,-3864.5226L14096.9849,-3864.5221L14096.9844,-3864.5209L14096.9836,-3864.519L14096.9836,-3864.519L14096.9836,-3864.519L14096.9831,-3864.5178L14096.9831,-3864.5178L14096.9831,-3864.5178L14096.9818,-3864.5149L14096.9811,-3864.5132L14096.972,-3864.4937L14096.9696,-3864.4887"/>
<path content="1,岩手県北自動車（株）,BEAM-1　宮古・盛岡南⇔浜松町・品川,1.0,1.0,1.0," xlink:title="1" d="M14096.9696,-3864.4887L14096.972,-3864.4937L14096.976,-3864.5023L14096.976,-3864.5023L14096.9811,-3864.5133L14096.9816,-3864.5143L14096.9831,-3864.5178L14096.9831,-3864.5178L14096.9831,-3864.5178L14096.9836,-3864.519L14096.9836,-3864.519L14096.9836,-3864.519L14096.9844,-3864.5209L14096.9844,-3864.521L14096.9849,-3864.5221L14096.9849,-3864.5221L14096.9851,-3864.5226L14096.9866,-3864.5261L14096.9866,-3864.5261L14096.9866,-3864.5261L14096.9869,-3864.5268L14096.987,-3864.527L14096.988,-3864.5293L14096.9935,-3864.5423L14096.9968,-3864.5499L14096.9968,-3864.55L14096.9969,-3864.5501L14096.9969,-3864.5502L14096.9969,-3864.5502L14096.9969,-3864.5502L14096.9969,-3864.5502L14096.9969,-3864.5502L14096.9969,-3864.5503L14096.9969,-3864.5503L14096.997,-3864.5503L14096.997,-3864.5503L14096.997,-3864.5503L14096.9971,-3864.5506L14097.0009,-3864.5594L14097.0084,-3864.5782"/>
<path content="1,岩手県北自動車（株）,アーバン号　盛岡⇔仙台,3.2,4.0,4.0," xlink:title="1" d="M14096.9696,-3864.4887L14096.972,-3864.4937L14096.9811,-3864.5132L14096.9818,-3864.5149L14096.9831,-3864.5178L14096.9831,-3864.5178L14096.9831,-3864.5178L14096.9836,-3864.519L14096.9836,-3864.519L14096.9836,-3864.519L14096.9844,-3864.5209L14096.9849,-3864.5221L14096.9851,-3864.5226L14096.9855,-3864.5234L14096.9865,-3864.526L14096.9868,-3864.5266L14096.9868,-3864.5267L14096.9869,-3864.5269L14096.9869,-3864.527L14096.987,-3864.527L14096.987,-3864.5272L14096.9873,-3864.5277L14096.9873,-3864.5278L14096.9874,-3864.5279L14096.9884,-3864.5303L14096.9905,-3864.5354L14096.9935,-3864.5423L14096.9935,-3864.5424L14096.9935,-3864.5424L14096.9935,-3864.5424L14096.9968,-3864.5499L14096.9968,-3864.55L14096.9969,-3864.5501L14096.9969,-3864.5502L14096.9969,-3864.5502L14096.9969,-3864.5502L14096.9969,-3864.5502L14096.9969,-3864.5502L14096.9969,-3864.5503L14096.9969,-3864.5503L14096.997,-3864.5503L14096.997,-3864.5503L14096.997,-3864.5503L14096.9971,-3864.5506L14097.0009,-3864.5594L14097.0019,-3864.5619L14097.0025,-3864.5633L14097.0036,-3864.5662L14097.0083,-3864.5779L14097.0084,-3864.5782"/>
<path content="1,弘南バス（株）,アップル号,1.0,1.0,1.0," xlink:title="1" d="M14097.0084,-3864.5782L14097.0009,-3864.5594L14096.9971,-3864.5506L14096.997,-3864.5503L14096.997,-3864.5503L14096.997,-3864.5503L14096.9969,-3864.5503L14096.9969,-3864.5503L14096.9969,-3864.5502L14096.9969,-3864.5502L14096.9969,-3864.5502L14096.9969,-3864.5502L14096.9969,-3864.5502L14096.9969,-3864.5501L14096.9968,-3864.55L14096.9968,-3864.5499L14096.9935,-3864.5423L14096.988,-3864.5293L14096.987,-3864.527L14096.9869,-3864.5268L14096.9866,-3864.5261L14096.9866,-3864.5261L14096.9866,-3864.5261L14096.9851,-3864.5226L14096.9849,-3864.5221L14096.9849,-3864.5221L14096.9844,-3864.521L14096.9844,-3864.5209L14096.9836,-3864.519L14096.9836,-3864.519L14096.9836,-3864.519L14096.9831,-3864.5178L14096.9831,-3864.5178L14096.9831,-3864.5178L14096.9816,-3864.5143L14096.9811,-3864.5133L14096.976,-3864.5023L14096.976,-3864.5023L14096.972,-3864.4937L14096.9696,-3864.4887"/>
<path content="1,弘南バス（株）,キャッスル号,6.0,6.0,6.0," xlink:title="1" d="M14097.0084,-3864.5782L14097.0009,-3864.5594L14096.9971,-3864.5506L14096.997,-3864.5503L14096.997,-3864.5503L14096.997,-3864.5503L14096.9969,-3864.5503L14096.9969,-3864.5503L14096.9969,-3864.5502L14096.9969,-3864.5502L14096.9969,-3864.5502L14096.9969,-3864.5502L14096.9969,-3864.5502L14096.9969,-3864.5501L14096.9968,-3864.55L14096.9968,-3864.5499L14096.9935,-3864.5423L14096.9884,-3864.5303L14096.988,-3864.5293L14096.9874,-3864.5279L14096.9873,-3864.5278L14096.9873,-3864.5277L14096.987,-3864.5272L14096.987,-3864.527L14096.9869,-3864.5268L14096.9868,-3864.5267L14096.9866,-3864.5261L14096.9866,-3864.5261L14096.9866,-3864.5261L14096.9855,-3864.5234L14096.9851,-3864.5226L14096.9849,-3864.5221L14096.9844,-3864.5209L14096.9836,-3864.519L14096.9836,-3864.519L14096.9836,-3864.519L14096.9831,-3864.5178L14096.9831,-3864.5178L14096.9831,-3864.5178L14096.9818,-3864.5149L14096.9816,-3864.5143L14096.9811,-3864.5133L14096.976,-3864.5023L14096.976,-3864.5023L14096.972,-3864.4937L14096.9696,-3864.4887"/>
<path content="1,弘南バス（株）,スカイ号,1.0,1.0,1.0," xlink:title="1" d="M14097.0084,-3864.5782L14097.0009,-3864.5594L14096.9971,-3864.5506L14096.997,-3864.5503L14096.997,-3864.5503L14096.997,-3864.5503L14096.9969,-3864.5503L14096.9969,-3864.5503L14096.9969,-3864.5502L14096.9969,-3864.5502L14096.9969,-3864.5502L14096.9969,-3864.5502L14096.9969,-3864.5502L14096.9969,-3864.5501L14096.9968,-3864.55L14096.9968,-3864.5499L14096.9935,-3864.5423L14096.988,-3864.5293L14096.987,-3864.527L14096.9869,-3864.5268L14096.9866,-3864.5261L14096.9866,-3864.5261L14096.9866,-3864.5261L14096.9851,-3864.5226L14096.9849,-3864.5221L14096.9849,-3864.5221L14096.9844,-3864.521L14096.9844,-3864.5209L14096.9836,-3864.519L14096.9836,-3864.519L14096.9836,-3864.519L14096.9831,-3864.5178L14096.9831,-3864.5178L14096.9831,-3864.5178L14096.9816,-3864.5143L14096.9811,-3864.5133L14096.976,-3864.5023L14096.976,-3864.5023L14096.972,-3864.4937L14096.9696,-3864.4887"/>
<path content="1,弘南バス（株）,ノクターン号,1.0,1.0,1.0," xlink:title="1" d="M14097.0084,-3864.5782L14097.0009,-3864.5594L14096.9971,-3864.5506L14096.997,-3864.5503L14096.997,-3864.5503L14096.997,-3864.5503L14096.9969,-3864.5503L14096.9969,-3864.5503L14096.9969,-3864.5502L14096.9969,-3864.5502L14096.9969,-3864.5502L14096.9969,-3864.5502L14096.9969,-3864.5502L14096.9969,-3864.5501L14096.9968,-3864.55L14096.9968,-3864.5499L14096.9935,-3864.5423L14096.988,-3864.5293L14096.987,-3864.527L14096.9869,-3864.5268L14096.9866,-3864.5261L14096.9866,-3864.5261L14096.9866,-3864.5261L14096.9851,-3864.5226L14096.9849,-3864.5221L14096.9849,-3864.5221L14096.9844,-3864.521L14096.9844,-3864.5209L14096.9836,-3864.519L14096.9836,-3864.519L14096.9836,-3864.519L14096.9831,-3864.5178L14096.9831,-3864.5178L14096.9831,-3864.5178L14096.9816,-3864.5143L14096.9811,-3864.5133L14096.976,-3864.5023L14096.976,-3864.5023L14096.972,-3864.4937L14096.9696,-3864.4887"/>
<path content="1,弘南バス（株）,パンダ号,3.0,3.0,3.0," xlink:title="1" d="M14097.0084,-3864.5782L14097.0009,-3864.5594L14096.9971,-3864.5506L14096.997,-3864.5503L14096.997,-3864.5503L14096.997,-3864.5503L14096.9969,-3864.5503L14096.9969,-3864.5503L14096.9969,-3864.5502L14096.9969,-3864.5502L14096.9969,-3864.5502L14096.9969,-3864.5502L14096.9969,-3864.5502L14096.9969,-3864.5501L14096.9968,-3864.55L14096.9968,-3864.5499L14096.9935,-3864.5423L14096.988,-3864.5293L14096.987,-3864.527L14096.9869,-3864.5268L14096.9866,-3864.5261L14096.9866,-3864.5261L14096.9866,-3864.5261L14096.9851,-3864.5226L14096.9849,-3864.5221L14096.9849,-3864.5221L14096.9844,-3864.521L14096.9844,-3864.5209L14096.9836,-3864.519L14096.9836,-3864.519L14096.9836,-3864.519L14096.9831,-3864.5178L14096.9831,-3864.5178L14096.9831,-3864.5178L14096.9816,-3864.5143L14096.9811,-3864.5133L14096.976,-3864.5023L14096.976,-3864.5023L14096.972,-3864.4937L14096.9696,-3864.4887"/>
<path content="1,弘南バス（株）,ブルーシティー号,4.0,4.0,4.0," xlink:title="1" d="M14097.0084,-3864.5782L14097.0009,-3864.5594L14096.9971,-3864.5506L14096.997,-3864.5503L14096.997,-3864.5503L14096.997,-3864.5503L14096.9969,-3864.5503L14096.9969,-3864.5503L14096.9969,-3864.5502L14096.9969,-3864.5502L14096.9969,-3864.5502L14096.9969,-3864.5502L14096.9969,-3864.5502L14096.9969,-3864.5501L14096.9968,-3864.55L14096.9968,-3864.5499L14096.9935,-3864.5423L14096.9884,-3864.5303L14096.988,-3864.5293L14096.9874,-3864.5279L14096.9873,-3864.5278L14096.9873,-3864.5277L14096.987,-3864.5272L14096.987,-3864.527L14096.987,-3864.527L14096.9869,-3864.5269L14096.9869,-3864.5268L14096.9868,-3864.5267L14096.9868,-3864.5266L14096.9866,-3864.5261L14096.9866,-3864.5261L14096.9866,-3864.5261L14096.9855,-3864.5234L14096.9851,-3864.5226L14096.9849,-3864.5221L14096.9844,-3864.5209L14096.9836,-3864.519L14096.9836,-3864.519L14096.9836,-3864.519L14096.9831,-3864.5178L14096.9831,-3864.5178L14096.9831,-3864.5178L14096.9818,-3864.5149L14096.9816,-3864.5143L14096.9811,-3864.5133L14096.976,-3864.5023L14096.976,-3864.5023L14096.972,-3864.4937L14096.9696,-3864.4887"/>
<path content="1,弘南バス（株）,津軽号,1.0,1.0,1.0," xlink:title="1" d="M14096.9696,-3864.4887L14096.972,-3864.4937L14096.976,-3864.5023L14096.976,-3864.5023L14096.9811,-3864.5133L14096.9816,-3864.5143L14096.9831,-3864.5178L14096.9831,-3864.5178L14096.9831,-3864.5178L14096.9836,-3864.519L14096.9836,-3864.519L14096.9836,-3864.519L14096.9844,-3864.5209L14096.9844,-3864.521L14096.9849,-3864.5221L14096.9849,-3864.5221L14096.9851,-3864.5226L14096.9866,-3864.5261L14096.9866,-3864.5261L14096.9866,-3864.5261L14096.9869,-3864.5268L14096.987,-3864.527L14096.988,-3864.5293L14096.9935,-3864.5423L14096.9968,-3864.5499L14096.9968,-3864.55L14096.9969,-3864.5501L14096.9969,-3864.5502L14096.9969,-3864.5502L14096.9969,-3864.5502L14096.9969,-3864.5502L14096.9969,-3864.5502L14096.9969,-3864.5503L14096.9969,-3864.5503L14096.997,-3864.5503L14096.997,-3864.5503L14096.997,-3864.5503L14096.9971,-3864.5506L14097.0009,-3864.5594L14097.0084,-3864.5782"/>
<path content="1,東日本急行（株）,一ノ関～仙台線,19.0,19.0,19.0," xlink:title="1" d="M14096.9696,-3864.4887L14096.972,-3864.4937L14096.976,-3864.5023L14096.976,-3864.5023L14096.9811,-3864.5133L14096.9816,-3864.5143L14096.9831,-3864.5178L14096.9831,-3864.5178L14096.9831,-3864.5178L14096.9836,-3864.519L14096.9836,-3864.519L14096.9836,-3864.519L14096.9844,-3864.5209L14096.9844,-3864.521L14096.9849,-3864.5221L14096.9849,-3864.5221L14096.9851,-3864.5226L14096.9866,-3864.5261L14096.9866,-3864.5261L14096.9866,-3864.5261L14096.9869,-3864.5268L14096.987,-3864.527L14096.988,-3864.5293L14096.9935,-3864.5423L14096.9968,-3864.5499L14096.9968,-3864.55L14096.9969,-3864.5501L14096.9969,-3864.5502L14096.9969,-3864.5502L14096.9969,-3864.5502L14096.9969,-3864.5502L14096.9969,-3864.5502L14096.9969,-3864.5503L14096.9969,-3864.5503L14096.997,-3864.5503L14096.997,-3864.5503L14096.997,-3864.5503L14096.9971,-3864.5506L14097.0009,-3864.5594L14097.0084,-3864.5782"/>
<path content="1,東日本急行（株）,仙台～盛岡線,16.0,20.0,20.0," xlink:title="1" d="M14097.0084,-3864.5782L14097.0009,-3864.5594L14096.9971,-3864.5506L14096.997,-3864.5503L14096.997,-3864.5503L14096.997,-3864.5503L14096.9969,-3864.5503L14096.9969,-3864.5503L14096.9969,-3864.5502L14096.9969,-3864.5502L14096.9969,-3864.5502L14096.9969,-3864.5502L14096.9969,-3864.5502L14096.9969,-3864.5501L14096.9968,-3864.55L14096.9968,-3864.5499L14096.9935,-3864.5423L14096.988,-3864.5293L14096.987,-3864.527L14096.9869,-3864.5268L14096.9866,-3864.5261L14096.9866,-3864.5261L14096.9866,-3864.5261L14096.9851,-3864.5226L14096.9849,-3864.5221L14096.9849,-3864.5221L14096.9844,-3864.521L14096.9844,-3864.5209L14096.9836,-3864.519L14096.9836,-3864.519L14096.9836,-3864.519L14096.9831,-3864.5178L14096.9831,-3864.5178L14096.9831,-3864.5178L14096.9816,-3864.5143L14096.9811,-3864.5133L14096.976,-3864.5023L14096.976,-3864.5023L14096.972,-3864.4937L14096.9696,-3864.4887"/>
<path content="1,東日本急行（株）,佐野・平泉駅前・中尊寺～仙台線,1.1,1.1,1.1," xlink:title="1" d="M14096.9696,-3864.4887L14096.972,-3864.4937L14096.976,-3864.5023L14096.976,-3864.5023L14096.9811,-3864.5133L14096.9816,-3864.5143L14096.9831,-3864.5178L14096.9831,-3864.5178L14096.9831,-3864.5178L14096.9836,-3864.519L14096.9836,-3864.519L14096.9836,-3864.519L14096.9844,-3864.5209L14096.9844,-3864.521L14096.9849,-3864.5221L14096.9849,-3864.5221L14096.9851,-3864.5226L14096.9866,-3864.5261L14096.9866,-3864.5261L14096.9866,-3864.5261L14096.9869,-3864.5268L14096.987,-3864.527L14096.988,-3864.5293L14096.9935,-3864.5423L14096.9968,-3864.5499L14096.9968,-3864.55L14096.9969,-3864.5501L14096.9969,-3864.5502L14096.9969,-3864.5502L14096.9969,-3864.5502L14096.9969,-3864.5502L14096.9969,-3864.5502L14096.9969,-3864.5503L14096.9969,-3864.5503L14096.997,-3864.5503L14096.997,-3864.5503L14096.997,-3864.5503L14096.9971,-3864.5506L14097.0009,-3864.5594L14097.0084,-3864.5782"/>
<path content="1,東日本急行（株）,登米（迫）～若柳～仙台線,8.0,8.0,8.0," xlink:title="1" d="M14096.9696,-3864.4887L14096.972,-3864.4937L14096.9811,-3864.5132L14096.9818,-3864.5149L14096.9831,-3864.5178L14096.9831,-3864.5178L14096.9831,-3864.5178L14096.9836,-3864.519L14096.9836,-3864.519L14096.9836,-3864.519L14096.9844,-3864.5209L14096.9849,-3864.5221L14096.9851,-3864.5226L14096.9855,-3864.5234L14096.9865,-3864.526L14096.9868,-3864.5266L14096.9868,-3864.5267L14096.9869,-3864.5269L14096.9869,-3864.527L14096.987,-3864.527L14096.987,-3864.5272L14096.9873,-3864.5277L14096.9873,-3864.5278L14096.9874,-3864.5279L14096.9884,-3864.5303L14096.9905,-3864.5354L14096.9935,-3864.5423L14096.9935,-3864.5424L14096.9935,-3864.5424L14096.9935,-3864.5424L14096.9968,-3864.5499L14096.9968,-3864.55L14096.9969,-3864.5501L14096.9969,-3864.5502L14096.9969,-3864.5502L14096.9969,-3864.5502L14096.9969,-3864.5502L14096.9969,-3864.5502L14096.9969,-3864.5503L14096.9969,-3864.5503L14096.997,-3864.5503L14096.997,-3864.5503L14096.997,-3864.5503L14096.9971,-3864.5506L14097.0009,-3864.5594L14097.0019,-3864.5619L14097.0025,-3864.5633L14097.0036,-3864.5662L14097.0083,-3864.5779L14097.0084,-3864.5782"/>
<path content="1,東日本急行（株）,金成庁舎前・くりこま高原駅前・一迫総合支所前～築館～仙台線,15.0,15.0,15.0," xlink:title="1" d="M14097.0084,-3864.5782L14097.0083,-3864.5779L14097.0036,-3864.5662L14097.0025,-3864.5633L14097.0019,-3864.5619L14097.0009,-3864.5594L14096.9971,-3864.5506L14096.997,-3864.5503L14096.997,-3864.5503L14096.997,-3864.5503L14096.9969,-3864.5503L14096.9969,-3864.5503L14096.9969,-3864.5502L14096.9969,-3864.5502L14096.9969,-3864.5502L14096.9969,-3864.5502L14096.9969,-3864.5502L14096.9969,-3864.5501L14096.9968,-3864.55L14096.9968,-3864.5499L14096.9935,-3864.5424L14096.9935,-3864.5424L14096.9935,-3864.5424L14096.9935,-3864.5423L14096.9905,-3864.5354L14096.9884,-3864.5303L14096.9874,-3864.5279L14096.9873,-3864.5278L14096.9873,-3864.5277L14096.987,-3864.5272L14096.9869,-3864.527L14096.9869,-3864.5268L14096.9869,-3864.5268L14096.9869,-3864.5268L14096.9868,-3864.5267L14096.9868,-3864.5266L14096.9865,-3864.526L14096.9855,-3864.5234L14096.9851,-3864.5226L14096.9849,-3864.5221L14096.9844,-3864.5209L14096.9836,-3864.519L14096.9836,-3864.519L14096.9836,-3864.519L14096.9831,-3864.5178L14096.9831,-3864.5178L14096.9831,-3864.5178L14096.9818,-3864.5149L14096.9811,-3864.5132L14096.972,-3864.4937L14096.9696,-3864.4887"/>
<path content="1,江ノ電バス藤沢,レイク＆ポート号,1.0,1.0,1.0," xlink:title="1" d="M14096.9696,-3864.4887L14096.972,-3864.4937L14096.976,-3864.5023L14096.976,-3864.5023L14096.9811,-3864.5133L14096.9816,-3864.5143L14096.9831,-3864.5178L14096.9831,-3864.5178L14096.9831,-3864.5178L14096.9836,-3864.519L14096.9836,-3864.519L14096.9836,-3864.519L14096.9844,-3864.5209L14096.9844,-3864.521L14096.9849,-3864.5221L14096.9849,-3864.5221L14096.9851,-3864.5226L14096.9866,-3864.5261L14096.9866,-3864.5261L14096.9866,-3864.5261L14096.9869,-3864.5268L14096.987,-3864.527L14096.988,-3864.5293L14096.9935,-3864.5423L14096.9968,-3864.5499L14096.9968,-3864.55L14096.9969,-3864.5501L14096.9969,-3864.5502L14096.9969,-3864.5502L14096.9969,-3864.5502L14096.9969,-3864.5502L14096.9969,-3864.5502L14096.9969,-3864.5503L14096.9969,-3864.5503L14096.997,-3864.5503L14096.997,-3864.5503L14096.997,-3864.5503L14096.9971,-3864.5506L14097.0009,-3864.5594L14097.0084,-3864.5782"/>
<path content="1,秋北バス（株）,ジュピター号,1.0,1.0,1.0," xlink:title="1" d="M14096.9696,-3864.4887L14096.972,-3864.4937L14096.976,-3864.5023L14096.976,-3864.5023L14096.9811,-3864.5133L14096.9816,-3864.5143L14096.9831,-3864.5178L14096.9831,-3864.5178L14096.9831,-3864.5178L14096.9836,-3864.519L14096.9836,-3864.519L14096.9836,-3864.519L14096.9844,-3864.5209L14096.9844,-3864.521L14096.9849,-3864.5221L14096.9849,-3864.5221L14096.9851,-3864.5226L14096.9866,-3864.5261L14096.9866,-3864.5261L14096.9866,-3864.5261L14096.9869,-3864.5268L14096.987,-3864.527L14096.988,-3864.5293L14096.9935,-3864.5423L14096.9968,-3864.5499L14096.9968,-3864.55L14096.9969,-3864.5501L14096.9969,-3864.5502L14096.9969,-3864.5502L14096.9969,-3864.5502L14096.9969,-3864.5502L14096.9969,-3864.5502L14096.9969,-3864.5503L14096.9969,-3864.5503L14096.997,-3864.5503L14096.997,-3864.5503L14096.997,-3864.5503L14096.9971,-3864.5506L14097.0009,-3864.5594L14097.0084,-3864.5782"/>
<path content="1,秋北バス（株）,二ツ井・能代～仙台線,1.0,1.0,1.0," xlink:title="1" d="M14096.9696,-3864.4887L14096.972,-3864.4937L14096.976,-3864.5023L14096.976,-3864.5023L14096.9811,-3864.5133L14096.9816,-3864.5143L14096.9831,-3864.5178L14096.9831,-3864.5178L14096.9831,-3864.5178L14096.9836,-3864.519L14096.9836,-3864.519L14096.9836,-3864.519L14096.9844,-3864.5209L14096.9844,-3864.521L14096.9849,-3864.5221L14096.9849,-3864.5221L14096.9851,-3864.5226L14096.9866,-3864.5261L14096.9866,-3864.5261L14096.9866,-3864.5261L14096.9869,-3864.5268L14096.987,-3864.527L14096.988,-3864.5293L14096.9935,-3864.5423L14096.9968,-3864.5499L14096.9968,-3864.55L14096.9969,-3864.5501L14096.9969,-3864.5502L14096.9969,-3864.5502L14096.9969,-3864.5502L14096.9969,-3864.5502L14096.9969,-3864.5502L14096.9969,-3864.5503L14096.9969,-3864.5503L14096.997,-3864.5503L14096.997,-3864.5503L14096.997,-3864.5503L14096.9971,-3864.5506L14097.0009,-3864.5594L14097.0084,-3864.5782"/>
<path content="1,秋北バス（株）,大館・鹿角～仙台線,3.0,3.0,3.0," xlink:title="1" d="M14096.9696,-3864.4887L14096.972,-3864.4937L14096.976,-3864.5023L14096.976,-3864.5023L14096.9811,-3864.5133L14096.9816,-3864.5143L14096.9831,-3864.5178L14096.9831,-3864.5178L14096.9831,-3864.5178L14096.9836,-3864.519L14096.9836,-3864.519L14096.9836,-3864.519L14096.9844,-3864.5209L14096.9844,-3864.521L14096.9849,-3864.5221L14096.9849,-3864.5221L14096.9851,-3864.5226L14096.9866,-3864.5261L14096.9866,-3864.5261L14096.9866,-3864.5261L14096.9869,-3864.5268L14096.987,-3864.527L14096.988,-3864.5293L14096.9935,-3864.5423L14096.9968,-3864.5499L14096.9968,-3864.55L14096.9969,-3864.5501L14096.9969,-3864.5502L14096.9969,-3864.5502L14096.9969,-3864.5502L14096.9969,-3864.5502L14096.9969,-3864.5502L14096.9969,-3864.5503L14096.9969,-3864.5503L14096.997,-3864.5503L14096.997,-3864.5503L14096.997,-3864.5503L14096.9971,-3864.5506L14097.0009,-3864.5594L14097.0084,-3864.5782"/>
<path content="1,秋田中央交通（株）,フローラ号,1.0,1.0,1.0," xlink:title="1" d="M14097.0084,-3864.5782L14097.0009,-3864.5594L14096.9971,-3864.5506L14096.997,-3864.5503L14096.997,-3864.5503L14096.997,-3864.5503L14096.9969,-3864.5503L14096.9969,-3864.5503L14096.9969,-3864.5502L14096.9969,-3864.5502L14096.9969,-3864.5502L14096.9969,-3864.5502L14096.9969,-3864.5502L14096.9969,-3864.5501L14096.9968,-3864.55L14096.9968,-3864.5499L14096.9935,-3864.5423L14096.988,-3864.5293L14096.987,-3864.527L14096.9869,-3864.5268L14096.9866,-3864.5261L14096.9866,-3864.5261L14096.9866,-3864.5261L14096.9851,-3864.5226L14096.9849,-3864.5221L14096.9849,-3864.5221L14096.9844,-3864.521L14096.9844,-3864.5209L14096.9836,-3864.519L14096.9836,-3864.519L14096.9836,-3864.519L14096.9831,-3864.5178L14096.9831,-3864.5178L14096.9831,-3864.5178L14096.9816,-3864.5143L14096.9811,-3864.5133L14096.976,-3864.5023L14096.976,-3864.5023L14096.972,-3864.4937L14096.9696,-3864.4887"/>
<path content="1,秋田中央交通（株）,仙秋号,4.0,4.0,4.0," xlink:title="1" d="M14097.0084,-3864.5782L14097.0009,-3864.5594L14096.9971,-3864.5506L14096.997,-3864.5503L14096.997,-3864.5503L14096.997,-3864.5503L14096.9969,-3864.5503L14096.9969,-3864.5503L14096.9969,-3864.5502L14096.9969,-3864.5502L14096.9969,-3864.5502L14096.9969,-3864.5502L14096.9969,-3864.5502L14096.9969,-3864.5501L14096.9968,-3864.55L14096.9968,-3864.5499L14096.9935,-3864.5423L14096.988,-3864.5293L14096.987,-3864.527L14096.9869,-3864.5268L14096.9866,-3864.5261L14096.9866,-3864.5261L14096.9866,-3864.5261L14096.9851,-3864.5226L14096.9849,-3864.5221L14096.9849,-3864.5221L14096.9844,-3864.521L14096.9844,-3864.5209L14096.9836,-3864.519L14096.9836,-3864.519L14096.9836,-3864.519L14096.9831,-3864.5178L14096.9831,-3864.5178L14096.9831,-3864.5178L14096.9816,-3864.5143L14096.9811,-3864.5133L14096.976,-3864.5023L14096.976,-3864.5023L14096.972,-3864.4937L14096.9696,-3864.4887"/>
<path content="1,羽後交通（株）,グリーンライナー号,4.0,4.0,4.0," xlink:title="1" d="M14096.9696,-3864.4887L14096.972,-3864.4937L14096.976,-3864.5023L14096.976,-3864.5023L14096.9811,-3864.5133L14096.9816,-3864.5143L14096.9831,-3864.5178L14096.9831,-3864.5178L14096.9831,-3864.5178L14096.9836,-3864.519L14096.9836,-3864.519L14096.9836,-3864.519L14096.9844,-3864.5209L14096.9844,-3864.521L14096.9849,-3864.5221L14096.9849,-3864.5221L14096.9851,-3864.5226L14096.9866,-3864.5261L14096.9866,-3864.5261L14096.9866,-3864.5261L14096.9869,-3864.5268L14096.987,-3864.527L14096.988,-3864.5293L14096.9935,-3864.5423L14096.9968,-3864.5499L14096.9968,-3864.55L14096.9969,-3864.5501L14096.9969,-3864.5502L14096.9969,-3864.5502L14096.9969,-3864.5502L14096.9969,-3864.5502L14096.9969,-3864.5502L14096.9969,-3864.5503L14096.9969,-3864.5503L14096.997,-3864.5503L14096.997,-3864.5503L14096.997,-3864.5503L14096.9971,-3864.5506L14097.0009,-3864.5594L14097.0084,-3864.5782"/>
<path content="1,羽後交通（株）,レーク＆ポート号,1.0,1.0,1.0," xlink:title="1" d="M14097.0084,-3864.5782L14097.0009,-3864.5594L14096.9971,-3864.5506L14096.997,-3864.5503L14096.997,-3864.5503L14096.997,-3864.5503L14096.9969,-3864.5503L14096.9969,-3864.5503L14096.9969,-3864.5502L14096.9969,-3864.5502L14096.9969,-3864.5502L14096.9969,-3864.5502L14096.9969,-3864.5502L14096.9969,-3864.5501L14096.9968,-3864.55L14096.9968,-3864.5499L14096.9935,-3864.5423L14096.988,-3864.5293L14096.987,-3864.527L14096.9869,-3864.5268L14096.9866,-3864.5261L14096.9866,-3864.5261L14096.9866,-3864.5261L14096.9851,-3864.5226L14096.9849,-3864.5221L14096.9849,-3864.5221L14096.9844,-3864.521L14096.9844,-3864.5209L14096.9836,-3864.519L14096.9836,-3864.519L14096.9836,-3864.519L14096.9831,-3864.5178L14096.9831,-3864.5178L14096.9831,-3864.5178L14096.9816,-3864.5143L14096.9811,-3864.5133L14096.976,-3864.5023L14096.976,-3864.5023L14096.972,-3864.4937L14096.9696,-3864.4887"/>
</g>
</svg>
