<?xml version="1.0" encoding="UTF-8"?>
<svg  xmlns="http://www.w3.org/2000/svg" xmlns:xlink="http://www.w3.org/1999/xlink" xmlns:go="http://purl.org/svgmap/profile" property="N07_001,N07_002,N07_003,N07_004,N07_005,N07_006,N07_007" viewBox="13082.51953125 -3139.892578125 2.197265625 2.197265625" go:dataArea="13082.51953125 -3139.892578125 2.197265625 2.197265625" >
<metadata>
 <rdf:RDF xmlns:rdf="http://www.w3.org/1999/02/22-rdf-syntax-ns#" xmlns:crs="http://opengis.org/xmldtds/transformations.dtd" xmlns:svg="http://www.w3.org/svg" >
  <rdf:Description>
   <crs:CoordinateReferenceSystem rdf:resource="http://purl.org/crs/84" svg:transform="matrix(100.0,0.0,0.0,-100.0,0.0,0.0)" />
  </rdf:Description>
 </rdf:RDF>
</metadata>
<globalCoordinateSystem srsName="http://purl.org/crs/84" transform="matrix(100.0,0.0,0.0,-100.0,0.0,0.0)" />
<defs>
 <g id="p0" >
  <circle cx="0.0" cy="0.0" r="3" stroke="green" stroke-width="0.75" vector-effect="non-scaling-stroke" />
 </g>
</defs>
<g fill="none" fill-rule="evenodd" stroke="#FF00FF" stroke-width="0.75" opacity="0.5" vector-effect="non-scaling-stroke" stroke-linejoin="bevel" >
<path content="1,大隅交通ネットワーク（株）,252,5.0,5.0,3.0," xlink:title="1" d="M13082.5195,-3138.0984L13082.5595,-3138.1086L13082.5746,-3138.1137L13082.593,-3138.1177L13082.6377,-3138.1295L13082.6653,-3138.1363L13082.6731,-3138.1385L13082.7047,-3138.1476L13082.7644,-3138.1628L13082.7756,-3138.1662L13082.7795,-3138.1662L13082.8137,-3138.1752L13082.8695,-3138.191L13082.9285,-3138.2116L13083.037,-3138.2344L13083.1143,-3138.2558L13083.1335,-3138.2609L13083.2187,-3138.2838L13083.2293,-3138.2864L13083.246,-3138.2908L13083.2741,-3138.2975L13083.2911,-3138.3009L13083.2951,-3138.3026L13083.3279,-3138.3105L13083.3351,-3138.311L13083.4533,-3138.344L13083.5223,-3138.377L13083.5302,-3138.3826L13083.5689,-3138.408L13083.5808,-3138.4148L13083.5841,-3138.4176L13083.5959,-3138.4249L13083.5998,-3138.4283L13083.6241,-3138.4429L13083.63,-3138.448L13083.6346,-3138.4502L13083.655,-3138.4649L13083.6924,-3138.4886L13083.7305,-3138.5134L13083.7561,-3138.5309L13083.801,-3138.5638L13083.8586,-3138.598L13083.9223,-3138.6397L13083.9394,-3138.6492L13083.9459,-3138.6555L13083.9709,-3138.6707L13083.9775,-3138.6758L13084.0057,-3138.6938L13084.0392,-3138.7158L13084.0761,-3138.7406L13084.0962,-3138.7488L13084.1151,-3138.7573L13084.1299,-3138.7592L13084.2225,-3138.7626L13084.273,-3138.7648L13084.3118,-3138.7654L13084.3157,-3138.7665L13084.3273,-3138.7669L13084.3762,-3138.7688L13084.4018,-3138.7683L13084.4353,-3138.7711L13084.4712,-3138.7813L13084.5042,-3138.7863L13084.5186,-3138.7918L13084.5528,-3138.8049L13084.5693,-3138.8133L13084.5719,-3138.8139L13084.5962,-3138.8286L13084.6073,-3138.8387L13084.6342,-3138.8748L13084.6416,-3138.8815L13084.6474,-3138.8855L13084.6566,-3138.8911L13084.6762,-3138.9003L13084.7124,-3138.899L13084.7168,-3138.8981"/>
<path content="1,大隅交通ネットワーク（株）,258,4.5,4.5,3.0," xlink:title="1" d="M13082.5195,-3138.0984L13082.5595,-3138.1086L13082.5746,-3138.1137L13082.593,-3138.1177L13082.6377,-3138.1295L13082.6653,-3138.1363L13082.6731,-3138.1385L13082.7047,-3138.1476L13082.7644,-3138.1628L13082.7756,-3138.1662L13082.7795,-3138.1662L13082.8137,-3138.1752L13082.8695,-3138.191L13082.9285,-3138.2116L13083.037,-3138.2344L13083.1143,-3138.2558L13083.1335,-3138.2609L13083.2187,-3138.2838L13083.2293,-3138.2864L13083.246,-3138.2908L13083.2741,-3138.2975L13083.2911,-3138.3009L13083.2951,-3138.3026L13083.3279,-3138.3105L13083.3351,-3138.311L13083.4533,-3138.344L13083.5223,-3138.377L13083.5302,-3138.3826L13083.5689,-3138.408L13083.5808,-3138.4148L13083.5841,-3138.4176L13083.5959,-3138.4249L13083.5998,-3138.4283L13083.6241,-3138.4429L13083.63,-3138.448L13083.6346,-3138.4502L13083.655,-3138.4649L13083.6924,-3138.4886L13083.7305,-3138.5134L13083.7561,-3138.5309L13083.801,-3138.5638L13083.8586,-3138.598L13083.9223,-3138.6397L13083.9394,-3138.6492L13083.9459,-3138.6555L13083.9709,-3138.6707L13083.9775,-3138.6758L13084.0057,-3138.6938L13084.0392,-3138.7158L13084.0761,-3138.7406L13084.0962,-3138.7488L13084.1151,-3138.7573L13084.1299,-3138.7592L13084.2225,-3138.7626L13084.273,-3138.7648L13084.3118,-3138.7654L13084.3157,-3138.7665L13084.3273,-3138.7669L13084.3762,-3138.7688L13084.4018,-3138.7683L13084.4353,-3138.7711L13084.4712,-3138.7813L13084.5042,-3138.7863L13084.5186,-3138.7918L13084.5528,-3138.8049L13084.5693,-3138.8133L13084.5719,-3138.8139L13084.5962,-3138.8286L13084.6073,-3138.8387L13084.6342,-3138.8748L13084.6416,-3138.8815L13084.6474,-3138.8855L13084.6566,-3138.8911L13084.6762,-3138.9003L13084.7124,-3138.899L13084.7168,-3138.8981"/>
<path content="1,大隅交通ネットワーク（株）,289,3.0,3.0,2.0," xlink:title="1" d="M13082.5195,-3138.0984L13082.5595,-3138.1086L13082.5746,-3138.1137L13082.593,-3138.1177L13082.6377,-3138.1295L13082.6653,-3138.1363L13082.6731,-3138.1385L13082.7047,-3138.1476L13082.7644,-3138.1628L13082.7756,-3138.1662L13082.7795,-3138.1662L13082.8137,-3138.1752L13082.8695,-3138.191L13082.9285,-3138.2116L13083.037,-3138.2344L13083.1143,-3138.2558L13083.1335,-3138.2609L13083.2187,-3138.2838L13083.2293,-3138.2864L13083.246,-3138.2908L13083.2741,-3138.2975L13083.2911,-3138.3009L13083.2951,-3138.3026L13083.3279,-3138.3105L13083.3351,-3138.311L13083.4533,-3138.344L13083.5223,-3138.377L13083.5302,-3138.3826L13083.5689,-3138.408L13083.5808,-3138.4148L13083.5841,-3138.4176L13083.5959,-3138.4249L13083.5998,-3138.4283L13083.6241,-3138.4429L13083.63,-3138.448L13083.6346,-3138.4502L13083.655,-3138.4649L13083.6924,-3138.4886L13083.7305,-3138.5134L13083.7561,-3138.5309L13083.801,-3138.5638L13083.8586,-3138.598L13083.9223,-3138.6397L13083.9394,-3138.6492L13083.9459,-3138.6555L13083.9709,-3138.6707L13083.9775,-3138.6758L13084.0057,-3138.6938L13084.0392,-3138.7158L13084.0761,-3138.7406L13084.0962,-3138.7488L13084.1151,-3138.7573L13084.1299,-3138.7592L13084.2225,-3138.7626L13084.273,-3138.7648L13084.3118,-3138.7654L13084.3157,-3138.7665L13084.3273,-3138.7669L13084.3762,-3138.7688L13084.4018,-3138.7683L13084.4353,-3138.7711L13084.4712,-3138.7813L13084.5042,-3138.7863L13084.5186,-3138.7918L13084.5528,-3138.8049L13084.5693,-3138.8133L13084.5719,-3138.8139L13084.5962,-3138.8286L13084.6073,-3138.8387L13084.6342,-3138.8748L13084.6416,-3138.8815L13084.6474,-3138.8855L13084.6566,-3138.8911L13084.6762,-3138.9003L13084.7124,-3138.899L13084.7168,-3138.8981"/>
<path content="1,大隅交通ネットワーク（株）,292,5.0,5.0,3.0," xlink:title="1" d="M13082.5195,-3138.0984L13082.5595,-3138.1086L13082.5746,-3138.1137L13082.593,-3138.1177L13082.6377,-3138.1295L13082.6653,-3138.1363L13082.6731,-3138.1385L13082.7047,-3138.1476L13082.7644,-3138.1628L13082.7756,-3138.1662L13082.7795,-3138.1662L13082.8137,-3138.1752L13082.8695,-3138.191L13082.9285,-3138.2116L13083.037,-3138.2344L13083.1143,-3138.2558L13083.1335,-3138.2609L13083.2187,-3138.2838L13083.2293,-3138.2864L13083.246,-3138.2908L13083.2741,-3138.2975L13083.2911,-3138.3009L13083.2951,-3138.3026L13083.3279,-3138.3105L13083.3351,-3138.311L13083.4533,-3138.344L13083.5223,-3138.377L13083.5302,-3138.3826L13083.5689,-3138.408L13083.5808,-3138.4148L13083.5841,-3138.4176L13083.5959,-3138.4249L13083.5998,-3138.4283L13083.6241,-3138.4429L13083.63,-3138.448L13083.6346,-3138.4502L13083.655,-3138.4649L13083.6924,-3138.4886L13083.7305,-3138.5134L13083.7561,-3138.5309L13083.801,-3138.5638L13083.8586,-3138.598L13083.9223,-3138.6397L13083.9394,-3138.6492L13083.9459,-3138.6555L13083.9709,-3138.6707L13083.9775,-3138.6758L13084.0057,-3138.6938L13084.0392,-3138.7158L13084.0761,-3138.7406L13084.0962,-3138.7488L13084.1151,-3138.7573L13084.1299,-3138.7592L13084.2225,-3138.7626L13084.273,-3138.7648L13084.3118,-3138.7654L13084.3157,-3138.7665L13084.3273,-3138.7669L13084.3762,-3138.7688L13084.4018,-3138.7683L13084.4353,-3138.7711L13084.4712,-3138.7813L13084.5042,-3138.7863L13084.5186,-3138.7918L13084.5528,-3138.8049L13084.5693,-3138.8133L13084.5719,-3138.8139L13084.5962,-3138.8286L13084.6073,-3138.8387L13084.6342,-3138.8748L13084.6416,-3138.8815L13084.6474,-3138.8855L13084.6566,-3138.8911L13084.6762,-3138.9003L13084.7124,-3138.899L13084.7168,-3138.8981"/>
<path content="1,大隅交通ネットワーク（株）,295,5.5,5.5,5.5," xlink:title="1" d="M13082.5195,-3138.0984L13082.5595,-3138.1086L13082.5746,-3138.1137L13082.593,-3138.1177L13082.6377,-3138.1295L13082.6653,-3138.1363L13082.6731,-3138.1385L13082.7047,-3138.1476L13082.7644,-3138.1628L13082.7756,-3138.1662L13082.7795,-3138.1662L13082.8137,-3138.1752L13082.8695,-3138.191L13082.9285,-3138.2116L13083.037,-3138.2344L13083.1143,-3138.2558L13083.1335,-3138.2609L13083.2187,-3138.2838L13083.2293,-3138.2864L13083.246,-3138.2908L13083.2741,-3138.2975L13083.2911,-3138.3009L13083.2951,-3138.3026L13083.3279,-3138.3105L13083.3351,-3138.311L13083.4533,-3138.344L13083.5223,-3138.377L13083.5302,-3138.3826L13083.5689,-3138.408L13083.5808,-3138.4148L13083.5841,-3138.4176L13083.5959,-3138.4249L13083.5998,-3138.4283L13083.6241,-3138.4429L13083.63,-3138.448L13083.6346,-3138.4502L13083.655,-3138.4649L13083.6924,-3138.4886L13083.7305,-3138.5134L13083.7561,-3138.5309L13083.801,-3138.5638L13083.8586,-3138.598L13083.9223,-3138.6397L13083.9394,-3138.6492L13083.9459,-3138.6555L13083.9709,-3138.6707L13083.9775,-3138.6758L13084.0057,-3138.6938L13084.0392,-3138.7158L13084.0761,-3138.7406L13084.0962,-3138.7488L13084.1151,-3138.7573L13084.1299,-3138.7592L13084.2225,-3138.7626L13084.273,-3138.7648L13084.3118,-3138.7654L13084.3157,-3138.7665L13084.3273,-3138.7669L13084.3762,-3138.7688L13084.4018,-3138.7683L13084.4353,-3138.7711L13084.4712,-3138.7813L13084.5042,-3138.7863L13084.5186,-3138.7918L13084.5528,-3138.8049L13084.5693,-3138.8133L13084.5719,-3138.8139L13084.5962,-3138.8286L13084.6073,-3138.8387L13084.6342,-3138.8748L13084.6416,-3138.8815L13084.6474,-3138.8855L13084.6566,-3138.8911L13084.6762,-3138.9003L13084.7124,-3138.899L13084.7168,-3138.8981"/>
<path content="1,大隅交通ネットワーク（株）,380,3.5,3.5,3.5," xlink:title="1" d="M13082.5195,-3138.0984L13082.5595,-3138.1086L13082.5746,-3138.1137L13082.593,-3138.1177L13082.6377,-3138.1295L13082.6653,-3138.1363L13082.6731,-3138.1385L13082.7047,-3138.1476L13082.7644,-3138.1628L13082.7756,-3138.1662L13082.7795,-3138.1662L13082.8137,-3138.1752L13082.8695,-3138.191L13082.9285,-3138.2116L13083.037,-3138.2344L13083.1143,-3138.2558L13083.1335,-3138.2609L13083.2187,-3138.2838L13083.2293,-3138.2864L13083.246,-3138.2908L13083.2741,-3138.2975L13083.2911,-3138.3009L13083.2951,-3138.3026L13083.3279,-3138.3105L13083.3351,-3138.311L13083.4533,-3138.344L13083.5223,-3138.377L13083.5302,-3138.3826L13083.5689,-3138.408L13083.5808,-3138.4148L13083.5841,-3138.4176L13083.5959,-3138.4249L13083.5998,-3138.4283L13083.6241,-3138.4429L13083.63,-3138.448L13083.6346,-3138.4502L13083.655,-3138.4649L13083.6924,-3138.4886L13083.7305,-3138.5134L13083.7561,-3138.5309L13083.801,-3138.5638L13083.8586,-3138.598L13083.9223,-3138.6397L13083.9394,-3138.6492L13083.9459,-3138.6555L13083.9709,-3138.6707L13083.9775,-3138.6758L13084.0057,-3138.6938L13084.0392,-3138.7158L13084.0761,-3138.7406L13084.0962,-3138.7488L13084.1151,-3138.7573L13084.1299,-3138.7592L13084.2225,-3138.7626L13084.273,-3138.7648L13084.3118,-3138.7654L13084.3157,-3138.7665L13084.3273,-3138.7669L13084.3762,-3138.7688L13084.4018,-3138.7683L13084.4353,-3138.7711L13084.4712,-3138.7813L13084.5042,-3138.7863L13084.5186,-3138.7918L13084.5528,-3138.8049L13084.5693,-3138.8133L13084.5719,-3138.8139L13084.5962,-3138.8286L13084.6073,-3138.8387L13084.6342,-3138.8748L13084.6416,-3138.8815L13084.6474,-3138.8855L13084.6566,-3138.8911L13084.6762,-3138.9003L13084.7124,-3138.899L13084.7168,-3138.8981"/>
<path content="1,大隅交通ネットワーク（株）,530,3.0,3.0,3.0," xlink:title="1" d="M13082.5195,-3138.0984L13082.5595,-3138.1086L13082.5746,-3138.1137L13082.593,-3138.1177L13082.6377,-3138.1295L13082.6653,-3138.1363L13082.6731,-3138.1385L13082.7047,-3138.1476L13082.7644,-3138.1628L13082.7756,-3138.1662L13082.7795,-3138.1662L13082.8137,-3138.1752L13082.8695,-3138.191L13082.9285,-3138.2116L13083.037,-3138.2344L13083.1143,-3138.2558L13083.1335,-3138.2609L13083.2187,-3138.2838L13083.2293,-3138.2864L13083.246,-3138.2908L13083.2741,-3138.2975L13083.2911,-3138.3009L13083.2951,-3138.3026L13083.3279,-3138.3105L13083.3351,-3138.311L13083.4533,-3138.344L13083.5223,-3138.377L13083.5302,-3138.3826L13083.5689,-3138.408L13083.5808,-3138.4148L13083.5841,-3138.4176L13083.5959,-3138.4249L13083.5998,-3138.4283L13083.6241,-3138.4429L13083.63,-3138.448L13083.6346,-3138.4502L13083.655,-3138.4649L13083.6924,-3138.4886L13083.7305,-3138.5134L13083.7561,-3138.5309L13083.801,-3138.5638L13083.8586,-3138.598L13083.9223,-3138.6397L13083.9394,-3138.6492L13083.9459,-3138.6555L13083.9709,-3138.6707L13083.9775,-3138.6758L13084.0057,-3138.6938L13084.0392,-3138.7158L13084.0761,-3138.7406L13084.0962,-3138.7488L13084.1151,-3138.7573L13084.1299,-3138.7592L13084.2225,-3138.7626L13084.273,-3138.7648L13084.3118,-3138.7654L13084.3157,-3138.7665L13084.3273,-3138.7669L13084.3762,-3138.7688L13084.4018,-3138.7683L13084.4353,-3138.7711L13084.4712,-3138.7813L13084.5042,-3138.7863L13084.5186,-3138.7918L13084.5528,-3138.8049L13084.5693,-3138.8133L13084.5719,-3138.8139L13084.5962,-3138.8286L13084.6073,-3138.8387L13084.6342,-3138.8748L13084.6416,-3138.8815L13084.6474,-3138.8855L13084.6566,-3138.8911L13084.6762,-3138.9003L13084.7124,-3138.899L13084.7168,-3138.8981"/>
<path content="1,大隅交通ネットワーク（株）,531,3.0,3.0,3.0," xlink:title="1" d="M13082.5195,-3138.0984L13082.5595,-3138.1086L13082.5746,-3138.1137L13082.593,-3138.1177L13082.6377,-3138.1295L13082.6653,-3138.1363L13082.6731,-3138.1385L13082.7047,-3138.1476L13082.7644,-3138.1628L13082.7756,-3138.1662L13082.7795,-3138.1662L13082.8137,-3138.1752L13082.8695,-3138.191L13082.9285,-3138.2116L13083.037,-3138.2344L13083.1143,-3138.2558L13083.1335,-3138.2609L13083.2187,-3138.2838L13083.2293,-3138.2864L13083.246,-3138.2908L13083.2741,-3138.2975L13083.2911,-3138.3009L13083.2951,-3138.3026L13083.3279,-3138.3105L13083.3351,-3138.311L13083.4533,-3138.344L13083.5223,-3138.377L13083.5302,-3138.3826L13083.5689,-3138.408L13083.5808,-3138.4148L13083.5841,-3138.4176L13083.5959,-3138.4249L13083.5998,-3138.4283L13083.6241,-3138.4429L13083.63,-3138.448L13083.6346,-3138.4502L13083.655,-3138.4649L13083.6924,-3138.4886L13083.7305,-3138.5134L13083.7561,-3138.5309L13083.801,-3138.5638L13083.8586,-3138.598L13083.9223,-3138.6397L13083.9394,-3138.6492L13083.9459,-3138.6555L13083.9709,-3138.6707L13083.9775,-3138.6758L13084.0057,-3138.6938L13084.0392,-3138.7158L13084.0761,-3138.7406L13084.0962,-3138.7488L13084.1151,-3138.7573L13084.1299,-3138.7592L13084.2225,-3138.7626L13084.273,-3138.7648L13084.3118,-3138.7654L13084.3157,-3138.7665L13084.3273,-3138.7669L13084.3762,-3138.7688L13084.4018,-3138.7683L13084.4353,-3138.7711L13084.4712,-3138.7813L13084.5042,-3138.7863L13084.5186,-3138.7918L13084.5528,-3138.8049L13084.5693,-3138.8133L13084.5719,-3138.8139L13084.5962,-3138.8286L13084.6073,-3138.8387L13084.6342,-3138.8748L13084.6416,-3138.8815L13084.6474,-3138.8855L13084.6566,-3138.8911L13084.6762,-3138.9003L13084.7124,-3138.899L13084.7168,-3138.8981"/>
<path content="1,大隅交通ネットワーク（株）,鹿児島中央駅直行バス,5.0,5.0,5.0," xlink:title="1" d="M13084.7168,-3138.8981L13084.7124,-3138.899L13084.6762,-3138.9003L13084.6566,-3138.8911L13084.6474,-3138.8855L13084.6416,-3138.8815L13084.6342,-3138.8748L13084.6073,-3138.8387L13084.5962,-3138.8286L13084.5719,-3138.8139L13084.5693,-3138.8133L13084.5528,-3138.8049L13084.5186,-3138.7918L13084.5042,-3138.7863L13084.4712,-3138.7813L13084.4353,-3138.7711L13084.4018,-3138.7683L13084.3762,-3138.7688L13084.3273,-3138.7669L13084.3157,-3138.7665L13084.3118,-3138.7654L13084.273,-3138.7648L13084.2225,-3138.7626L13084.1299,-3138.7592L13084.1151,-3138.7573L13084.0962,-3138.7488L13084.0761,-3138.7406L13084.0392,-3138.7158L13084.0057,-3138.6938L13083.9775,-3138.6758L13083.9709,-3138.6707L13083.9459,-3138.6555L13083.9394,-3138.6492L13083.9223,-3138.6397L13083.8586,-3138.598L13083.801,-3138.5638L13083.7561,-3138.5309L13083.7305,-3138.5134L13083.6924,-3138.4886L13083.655,-3138.4649L13083.6346,-3138.4502L13083.63,-3138.448L13083.6241,-3138.4429L13083.5998,-3138.4283L13083.5959,-3138.4249L13083.5841,-3138.4176L13083.5808,-3138.4148L13083.5689,-3138.408L13083.5302,-3138.3826L13083.5223,-3138.377L13083.4533,-3138.344L13083.3351,-3138.311L13083.3279,-3138.3105L13083.2951,-3138.3026L13083.2911,-3138.3009L13083.2741,-3138.2975L13083.246,-3138.2908L13083.2293,-3138.2864L13083.2187,-3138.2838L13083.1335,-3138.2609L13083.1143,-3138.2558L13083.037,-3138.2344L13082.9285,-3138.2116L13082.8695,-3138.191L13082.8137,-3138.1752L13082.7795,-3138.1662L13082.7756,-3138.1662L13082.7644,-3138.1628L13082.7047,-3138.1476L13082.6731,-3138.1385L13082.6653,-3138.1363L13082.6377,-3138.1295L13082.593,-3138.1177L13082.5746,-3138.1137L13082.5595,-3138.1086L13082.5195,-3138.0984"/>
<path content="2,南大隅町,290,0.5,0.5,0.5," xlink:title="2" d="M13084.7168,-3138.8981L13084.7124,-3138.899L13084.6762,-3138.9003L13084.6566,-3138.8911L13084.6474,-3138.8855L13084.6416,-3138.8815L13084.6342,-3138.8748L13084.6073,-3138.8387L13084.5962,-3138.8286L13084.5719,-3138.8139L13084.5693,-3138.8133L13084.5528,-3138.8049L13084.5186,-3138.7918L13084.5042,-3138.7863L13084.4712,-3138.7813L13084.4353,-3138.7711L13084.4018,-3138.7683L13084.3762,-3138.7688L13084.3273,-3138.7669L13084.3157,-3138.7665L13084.3118,-3138.7654L13084.273,-3138.7648L13084.2225,-3138.7626L13084.1299,-3138.7592L13084.1151,-3138.7573L13084.0962,-3138.7488L13084.0761,-3138.7406L13084.0392,-3138.7158L13084.0057,-3138.6938L13083.9775,-3138.6758L13083.9709,-3138.6707L13083.9459,-3138.6555L13083.9394,-3138.6492L13083.9223,-3138.6397L13083.8586,-3138.598L13083.801,-3138.5638L13083.7561,-3138.5309L13083.7305,-3138.5134L13083.6924,-3138.4886L13083.655,-3138.4649L13083.6346,-3138.4502L13083.63,-3138.448L13083.6241,-3138.4429L13083.5998,-3138.4283L13083.5959,-3138.4249L13083.5841,-3138.4176L13083.5808,-3138.4148L13083.5689,-3138.408L13083.5302,-3138.3826L13083.5223,-3138.377L13083.4533,-3138.344L13083.3351,-3138.311L13083.3279,-3138.3105L13083.2951,-3138.3026L13083.2911,-3138.3009L13083.2741,-3138.2975L13083.246,-3138.2908L13083.2293,-3138.2864L13083.2187,-3138.2838L13083.1335,-3138.2609L13083.1143,-3138.2558L13083.037,-3138.2344L13082.9285,-3138.2116L13082.8695,-3138.191L13082.8137,-3138.1752L13082.7795,-3138.1662L13082.7756,-3138.1662L13082.7644,-3138.1628L13082.7047,-3138.1476L13082.6731,-3138.1385L13082.6653,-3138.1363L13082.6377,-3138.1295L13082.593,-3138.1177L13082.5746,-3138.1137L13082.5595,-3138.1086L13082.5195,-3138.0984"/>
<path content="2,南大隅町,576,0.5,0.5,0.5," xlink:title="2" d="M13082.5195,-3138.0984L13082.5595,-3138.1086L13082.5746,-3138.1137L13082.593,-3138.1177L13082.6377,-3138.1295L13082.6653,-3138.1363L13082.6731,-3138.1385L13082.7047,-3138.1476L13082.7644,-3138.1628L13082.7756,-3138.1662L13082.7795,-3138.1662L13082.8137,-3138.1752L13082.8695,-3138.191L13082.9285,-3138.2116L13083.037,-3138.2344L13083.1143,-3138.2558L13083.1335,-3138.2609L13083.2187,-3138.2838L13083.2293,-3138.2864L13083.246,-3138.2908L13083.2741,-3138.2975L13083.2911,-3138.3009L13083.2951,-3138.3026L13083.3279,-3138.3105L13083.3351,-3138.311L13083.4533,-3138.344L13083.5223,-3138.377L13083.5302,-3138.3826L13083.5689,-3138.408L13083.5808,-3138.4148L13083.5841,-3138.4176L13083.5959,-3138.4249L13083.5998,-3138.4283L13083.6241,-3138.4429L13083.63,-3138.448L13083.6346,-3138.4502L13083.655,-3138.4649L13083.6924,-3138.4886L13083.7305,-3138.5134L13083.7561,-3138.5309L13083.801,-3138.5638L13083.8586,-3138.598L13083.9223,-3138.6397L13083.9394,-3138.6492L13083.9459,-3138.6555L13083.9709,-3138.6707L13083.9775,-3138.6758L13084.0057,-3138.6938L13084.0392,-3138.7158L13084.0761,-3138.7406L13084.0962,-3138.7488L13084.1151,-3138.7573L13084.1299,-3138.7592L13084.2225,-3138.7626L13084.273,-3138.7648L13084.3118,-3138.7654L13084.3157,-3138.7665L13084.3273,-3138.7669L13084.3762,-3138.7688L13084.4018,-3138.7683L13084.4353,-3138.7711L13084.4712,-3138.7813L13084.5042,-3138.7863L13084.5186,-3138.7918L13084.5528,-3138.8049L13084.5693,-3138.8133L13084.5719,-3138.8139L13084.5962,-3138.8286L13084.6073,-3138.8387L13084.6342,-3138.8748L13084.6416,-3138.8815L13084.6474,-3138.8855L13084.6566,-3138.8911L13084.6762,-3138.9003L13084.7124,-3138.899L13084.7168,-3138.8981"/>
<path content="2,垂水市,296,0.5,0.5,0.5," xlink:title="2" d="M13084.7168,-3138.8981L13084.7124,-3138.899L13084.6762,-3138.9003L13084.6566,-3138.8911L13084.6474,-3138.8855L13084.6416,-3138.8815L13084.6342,-3138.8748L13084.6073,-3138.8387L13084.5962,-3138.8286L13084.5719,-3138.8139L13084.5693,-3138.8133L13084.5528,-3138.8049L13084.5186,-3138.7918L13084.5042,-3138.7863L13084.4712,-3138.7813L13084.4353,-3138.7711L13084.4018,-3138.7683L13084.3762,-3138.7688L13084.3273,-3138.7669L13084.3157,-3138.7665L13084.3118,-3138.7654L13084.273,-3138.7648L13084.2225,-3138.7626L13084.1299,-3138.7592L13084.1151,-3138.7573L13084.0962,-3138.7488L13084.0761,-3138.7406L13084.0392,-3138.7158L13084.0057,-3138.6938L13083.9775,-3138.6758L13083.9709,-3138.6707L13083.9459,-3138.6555L13083.9394,-3138.6492L13083.9223,-3138.6397L13083.8586,-3138.598L13083.801,-3138.5638L13083.7561,-3138.5309L13083.7305,-3138.5134L13083.6924,-3138.4886L13083.655,-3138.4649L13083.6346,-3138.4502L13083.63,-3138.448L13083.6241,-3138.4429L13083.5998,-3138.4283L13083.5959,-3138.4249L13083.5841,-3138.4176L13083.5808,-3138.4148L13083.5689,-3138.408L13083.5302,-3138.3826L13083.5223,-3138.377L13083.4533,-3138.344L13083.3351,-3138.311L13083.3279,-3138.3105L13083.2951,-3138.3026L13083.2911,-3138.3009L13083.2741,-3138.2975L13083.246,-3138.2908L13083.2293,-3138.2864L13083.2187,-3138.2838L13083.1335,-3138.2609L13083.1143,-3138.2558L13083.037,-3138.2344L13082.9285,-3138.2116L13082.8695,-3138.191L13082.8137,-3138.1752L13082.7795,-3138.1662L13082.7756,-3138.1662L13082.7644,-3138.1628L13082.7047,-3138.1476L13082.6731,-3138.1385L13082.6653,-3138.1363L13082.6377,-3138.1295L13082.593,-3138.1177L13082.5746,-3138.1137L13082.5595,-3138.1086L13082.5195,-3138.0984"/>
<path content="2,垂水市,348,0.5,0.5,0.5," xlink:title="2" d="M13082.7791,-3137.6953L13082.8189,-3137.7569L13082.8357,-3137.7815L13082.8983,-3137.8849L13082.9227,-3137.9199L13082.9332,-3137.9362L13082.9753,-3138.0038L13082.9779,-3138.0061L13083.0009,-3138.0421L13083.0101,-3138.0568L13083.0118,-3138.0595L13083.0367,-3138.1036L13083.0908,-3138.1853L13083.0994,-3138.1961L13083.1112,-3138.2068L13083.1585,-3138.2456L13083.1874,-3138.2661L13083.2187,-3138.2838L13083.2293,-3138.2864L13083.246,-3138.2908L13083.2741,-3138.2975L13083.2911,-3138.3009L13083.2951,-3138.3026L13083.3279,-3138.3105L13083.3351,-3138.311L13083.4533,-3138.344L13083.5223,-3138.377L13083.5302,-3138.3826L13083.5689,-3138.408L13083.5808,-3138.4148L13083.5841,-3138.4176L13083.5959,-3138.4249L13083.5998,-3138.4283L13083.6241,-3138.4429L13083.63,-3138.448L13083.6346,-3138.4502L13083.655,-3138.4649L13083.6924,-3138.4886L13083.7305,-3138.5134L13083.7561,-3138.5309L13083.801,-3138.5638L13083.8586,-3138.598L13083.9223,-3138.6397L13083.9394,-3138.6492L13083.9459,-3138.6555L13083.9709,-3138.6707L13083.9775,-3138.6758L13084.0057,-3138.6938L13084.0392,-3138.7158L13084.0761,-3138.7406L13084.0962,-3138.7488L13084.1151,-3138.7573L13084.1299,-3138.7592L13084.2225,-3138.7626L13084.273,-3138.7648L13084.3118,-3138.7654L13084.3157,-3138.7665L13084.3273,-3138.7669L13084.3762,-3138.7688L13084.4018,-3138.7683L13084.4353,-3138.7711L13084.4712,-3138.7813L13084.5042,-3138.7863L13084.5186,-3138.7918L13084.5528,-3138.8049L13084.5693,-3138.8133L13084.5719,-3138.8139L13084.5962,-3138.8286L13084.6073,-3138.8387L13084.6342,-3138.8748L13084.6416,-3138.8815L13084.6474,-3138.8855L13084.6566,-3138.8911L13084.6762,-3138.9003L13084.7124,-3138.899L13084.7168,-3138.8981"/>
<path content="2,垂水市,349,1.5,1.5,1.5," xlink:title="2" d="M13082.7791,-3137.6953L13082.8189,-3137.7569L13082.8357,-3137.7815L13082.8983,-3137.8849L13082.9227,-3137.9199L13082.9332,-3137.9362L13082.9753,-3138.0038L13082.9779,-3138.0061L13083.0009,-3138.0421L13083.0101,-3138.0568L13083.0118,-3138.0595L13083.0367,-3138.1036L13083.0908,-3138.1853L13083.0994,-3138.1961L13083.1112,-3138.2068L13083.1585,-3138.2456L13083.1874,-3138.2661L13083.2187,-3138.2838L13083.2293,-3138.2864L13083.246,-3138.2908L13083.2741,-3138.2975L13083.2911,-3138.3009L13083.2951,-3138.3026L13083.3279,-3138.3105L13083.3351,-3138.311L13083.4533,-3138.344L13083.5223,-3138.377L13083.5302,-3138.3826L13083.5689,-3138.408L13083.5808,-3138.4148L13083.5841,-3138.4176L13083.5959,-3138.4249L13083.5998,-3138.4283L13083.6241,-3138.4429L13083.63,-3138.448L13083.6346,-3138.4502L13083.655,-3138.4649L13083.6924,-3138.4886L13083.7305,-3138.5134L13083.7561,-3138.5309L13083.801,-3138.5638L13083.8586,-3138.598L13083.9223,-3138.6397L13083.9394,-3138.6492L13083.9459,-3138.6555L13083.9709,-3138.6707L13083.9775,-3138.6758L13084.0057,-3138.6938L13084.0392,-3138.7158L13084.0761,-3138.7406L13084.0962,-3138.7488L13084.1151,-3138.7573L13084.1299,-3138.7592L13084.2225,-3138.7626L13084.273,-3138.7648L13084.3118,-3138.7654L13084.3157,-3138.7665L13084.3273,-3138.7669L13084.3762,-3138.7688L13084.4018,-3138.7683L13084.4353,-3138.7711L13084.4712,-3138.7813L13084.5042,-3138.7863L13084.5186,-3138.7918L13084.5528,-3138.8049L13084.5693,-3138.8133L13084.5719,-3138.8139L13084.5962,-3138.8286L13084.6073,-3138.8387L13084.6342,-3138.8748L13084.6416,-3138.8815L13084.6474,-3138.8855L13084.6566,-3138.8911L13084.6762,-3138.9003L13084.7124,-3138.899L13084.7168,-3138.8981"/>
<path content="2,垂水市,367,0.5,0.0,0.0," xlink:title="2" d="M13082.5195,-3138.0984L13082.5595,-3138.1086L13082.5746,-3138.1137L13082.593,-3138.1177L13082.6377,-3138.1295L13082.6653,-3138.1363L13082.6731,-3138.1385L13082.7047,-3138.1476L13082.7644,-3138.1628L13082.7756,-3138.1662L13082.7795,-3138.1662L13082.8137,-3138.1752L13082.8695,-3138.191L13082.9285,-3138.2116L13083.037,-3138.2344L13083.1143,-3138.2558L13083.1335,-3138.2609L13083.2187,-3138.2838L13083.2293,-3138.2864L13083.246,-3138.2908L13083.2741,-3138.2975L13083.2911,-3138.3009L13083.2951,-3138.3026L13083.3279,-3138.3105L13083.3351,-3138.311L13083.4533,-3138.344L13083.6031,-3138.3742L13083.7049,-3138.3973L13083.7134,-3138.3984L13083.7804,-3138.4136L13083.8028,-3138.4181L13083.8711,-3138.4334L13083.8818,-3138.4354L13083.8921,-3138.4373L13083.968,-3138.4515L13083.9886,-3138.4554L13083.9959,-3138.4565L13084.0221,-3138.4604L13084.0248,-3138.4616L13084.1174,-3138.4768L13084.1226,-3138.4785L13084.1692,-3138.4864L13084.1929,-3138.4881L13084.2251,-3138.4875L13084.2816,-3138.4768L13084.3138,-3138.4723L13084.3709,-3138.4667L13084.4044,-3138.4655L13084.4491,-3138.4655L13084.4701,-3138.4672L13084.5056,-3138.4717L13084.5187,-3138.4492L13084.5798,-3138.3376L13084.5831,-3138.3312L13084.5874,-3138.3235L13084.6024,-3138.2966L13084.6106,-3138.275L13084.6166,-3138.2575L13084.6185,-3138.2542L13084.6343,-3138.2006L13084.6376,-3138.1865L13084.6415,-3138.173L13084.654,-3138.1301L13084.6737,-3138.0602L13084.6868,-3138.0315L13084.6927,-3138.0225L13084.6983,-3138.0154L13084.7002,-3138.0139L13084.7072,-3138.0078L13084.7168,-3137.9997"/>
<path content="2,志布志市,351,0.5,0.5,0.0," xlink:title="2" d="M13082.7791,-3137.6953L13082.8189,-3137.7569L13082.8357,-3137.7815L13082.8983,-3137.8849L13082.9227,-3137.9199L13082.9332,-3137.9362L13082.9753,-3138.0038L13082.9779,-3138.0061L13083.0009,-3138.0421L13083.0101,-3138.0568L13083.0118,-3138.0595L13083.0367,-3138.1036L13083.0908,-3138.1853L13083.0994,-3138.1961L13083.1112,-3138.2068L13083.1585,-3138.2456L13083.1874,-3138.2661L13083.2187,-3138.2838L13083.2293,-3138.2864L13083.246,-3138.2908L13083.2741,-3138.2975L13083.2911,-3138.3009L13083.2951,-3138.3026L13083.3279,-3138.3105L13083.3351,-3138.311L13083.4533,-3138.344L13083.5223,-3138.377L13083.5302,-3138.3826L13083.5689,-3138.408L13083.5808,-3138.4148L13083.5841,-3138.4176L13083.5959,-3138.4249L13083.5998,-3138.4283L13083.6241,-3138.4429L13083.63,-3138.448L13083.6346,-3138.4502L13083.655,-3138.4649L13083.6924,-3138.4886L13083.7305,-3138.5134L13083.7561,-3138.5309L13083.801,-3138.5638L13083.8586,-3138.598L13083.9223,-3138.6397L13083.9394,-3138.6492L13083.9459,-3138.6555L13083.9709,-3138.6707L13083.9775,-3138.6758L13084.0057,-3138.6938L13084.0392,-3138.7158L13084.0761,-3138.7406L13084.0962,-3138.7488L13084.1151,-3138.7573L13084.1299,-3138.7592L13084.2225,-3138.7626L13084.273,-3138.7648L13084.3118,-3138.7654L13084.3157,-3138.7665L13084.3273,-3138.7669L13084.3762,-3138.7688L13084.4018,-3138.7683L13084.4353,-3138.7711L13084.4712,-3138.7813L13084.5042,-3138.7863L13084.5186,-3138.7918L13084.5528,-3138.8049L13084.5693,-3138.8133L13084.5719,-3138.8139L13084.5962,-3138.8286L13084.6073,-3138.8387L13084.6342,-3138.8748L13084.6416,-3138.8815L13084.6474,-3138.8855L13084.6566,-3138.8911L13084.6762,-3138.9003L13084.7124,-3138.899L13084.7168,-3138.8981"/>
<path content="2,志布志市,379,0.5,0.5,0.5," xlink:title="2" d="M13082.5195,-3138.0984L13082.5595,-3138.1086L13082.5746,-3138.1137L13082.593,-3138.1177L13082.6377,-3138.1295L13082.6653,-3138.1363L13082.6731,-3138.1385L13082.7047,-3138.1476L13082.7644,-3138.1628L13082.7756,-3138.1662L13082.7795,-3138.1662L13082.8137,-3138.1752L13082.8695,-3138.191L13082.9285,-3138.2116L13083.037,-3138.2344L13083.1143,-3138.2558L13083.1335,-3138.2609L13083.2187,-3138.2838L13083.2293,-3138.2864L13083.246,-3138.2908L13083.2741,-3138.2975L13083.2911,-3138.3009L13083.2951,-3138.3026L13083.3279,-3138.3105L13083.3351,-3138.311L13083.4533,-3138.344L13083.5223,-3138.377L13083.5302,-3138.3826L13083.5689,-3138.408L13083.5808,-3138.4148L13083.5841,-3138.4176L13083.5959,-3138.4249L13083.5998,-3138.4283L13083.6241,-3138.4429L13083.63,-3138.448L13083.6346,-3138.4502L13083.655,-3138.4649L13083.6924,-3138.4886L13083.7305,-3138.5134L13083.7561,-3138.5309L13083.801,-3138.5638L13083.8586,-3138.598L13083.9223,-3138.6397L13083.9394,-3138.6492L13083.9459,-3138.6555L13083.9709,-3138.6707L13083.9775,-3138.6758L13084.0057,-3138.6938L13084.0392,-3138.7158L13084.0761,-3138.7406L13084.0962,-3138.7488L13084.1151,-3138.7573L13084.1299,-3138.7592L13084.2225,-3138.7626L13084.273,-3138.7648L13084.3118,-3138.7654L13084.3157,-3138.7665L13084.3273,-3138.7669L13084.3762,-3138.7688L13084.4018,-3138.7683L13084.4353,-3138.7711L13084.4712,-3138.7813L13084.5042,-3138.7863L13084.5186,-3138.7918L13084.5528,-3138.8049L13084.5693,-3138.8133L13084.5719,-3138.8139L13084.5962,-3138.8286L13084.6073,-3138.8387L13084.6342,-3138.8748L13084.6416,-3138.8815L13084.6474,-3138.8855L13084.6566,-3138.8911L13084.6762,-3138.9003L13084.7124,-3138.899L13084.7168,-3138.8981"/>
<path content="2,志布志市,503,1.0,1.0,0.5," xlink:title="2" d="M13083.801,-3138.5638L13083.8586,-3138.598L13083.9223,-3138.6397L13083.9394,-3138.6492L13083.9459,-3138.6555L13083.9709,-3138.6707L13083.9775,-3138.6758L13084.0057,-3138.6938L13084.0392,-3138.7158L13084.0761,-3138.7406L13084.0962,-3138.7488L13084.1151,-3138.7573L13084.1299,-3138.7592L13084.2225,-3138.7626L13084.273,-3138.7648L13084.3118,-3138.7654L13084.3157,-3138.7665L13084.3273,-3138.7669L13084.3762,-3138.7688L13084.4018,-3138.7683L13084.4353,-3138.7711L13084.4712,-3138.7813L13084.5042,-3138.7863L13084.5186,-3138.7918L13084.5528,-3138.8049L13084.5693,-3138.8133L13084.5719,-3138.8139L13084.5962,-3138.8286L13084.6073,-3138.8387L13084.6342,-3138.8748L13084.6416,-3138.8815L13084.6474,-3138.8855L13084.6566,-3138.8911L13084.6762,-3138.9003L13084.7124,-3138.899L13084.7168,-3138.8981"/>
<path content="2,志布志市,507,0.5,0.5,0.0," xlink:title="2" d="M13082.7791,-3137.6953L13082.8189,-3137.7569L13082.8357,-3137.7815L13082.8983,-3137.8849L13082.9227,-3137.9199L13082.9332,-3137.9362L13082.9753,-3138.0038L13082.9779,-3138.0061L13083.0009,-3138.0421L13083.0101,-3138.0568L13083.0118,-3138.0595L13083.0367,-3138.1036L13083.0908,-3138.1853L13083.0994,-3138.1961L13083.1112,-3138.2068L13083.1585,-3138.2456L13083.1874,-3138.2661L13083.2187,-3138.2838L13083.2293,-3138.2864L13083.246,-3138.2908L13083.2741,-3138.2975L13083.2911,-3138.3009L13083.2951,-3138.3026L13083.3279,-3138.3105L13083.3351,-3138.311L13083.4533,-3138.344L13083.5223,-3138.377L13083.5302,-3138.3826L13083.5689,-3138.408L13083.5808,-3138.4148L13083.5841,-3138.4176L13083.5959,-3138.4249L13083.5998,-3138.4283L13083.6241,-3138.4429L13083.63,-3138.448L13083.6346,-3138.4502L13083.655,-3138.4649L13083.6924,-3138.4886L13083.7305,-3138.5134L13083.7561,-3138.5309L13083.801,-3138.5638L13083.8586,-3138.598L13083.9223,-3138.6397L13083.9394,-3138.6492L13083.9459,-3138.6555L13083.9709,-3138.6707L13083.9775,-3138.6758L13084.0057,-3138.6938L13084.0392,-3138.7158L13084.0761,-3138.7406L13084.0962,-3138.7488L13084.1151,-3138.7573L13084.1299,-3138.7592L13084.2225,-3138.7626L13084.273,-3138.7648L13084.3118,-3138.7654L13084.3157,-3138.7665L13084.3273,-3138.7669L13084.3762,-3138.7688L13084.4018,-3138.7683L13084.4353,-3138.7711L13084.4712,-3138.7813L13084.5042,-3138.7863L13084.5186,-3138.7918L13084.5528,-3138.8049L13084.5693,-3138.8133L13084.5719,-3138.8139L13084.5962,-3138.8286L13084.6073,-3138.8387L13084.6342,-3138.8748L13084.6416,-3138.8815L13084.6474,-3138.8855L13084.6566,-3138.8911L13084.6762,-3138.9003L13084.7124,-3138.899L13084.7168,-3138.8981"/>
<path content="2,志布志市,512,2.0,2.0,0.0," xlink:title="2" d="M13082.5195,-3138.0984L13082.5595,-3138.1086L13082.5746,-3138.1137L13082.593,-3138.1177L13082.6377,-3138.1295L13082.6653,-3138.1363L13082.6731,-3138.1385L13082.7047,-3138.1476L13082.7644,-3138.1628L13082.7756,-3138.1662L13082.7795,-3138.1662L13082.8137,-3138.1752L13082.8695,-3138.191L13082.9285,-3138.2116L13083.037,-3138.2344L13083.1143,-3138.2558L13083.1335,-3138.2609L13083.2187,-3138.2838L13083.2293,-3138.2864L13083.246,-3138.2908L13083.2741,-3138.2975L13083.2911,-3138.3009L13083.2951,-3138.3026L13083.3279,-3138.3105L13083.3351,-3138.311L13083.4533,-3138.344L13083.5223,-3138.377L13083.5302,-3138.3826L13083.5689,-3138.408L13083.5808,-3138.4148L13083.5841,-3138.4176L13083.5959,-3138.4249L13083.5998,-3138.4283L13083.6241,-3138.4429L13083.63,-3138.448L13083.6346,-3138.4502L13083.655,-3138.4649L13083.6924,-3138.4886L13083.7305,-3138.5134L13083.7561,-3138.5309L13083.801,-3138.5638L13083.8586,-3138.598L13083.9223,-3138.6397L13083.9394,-3138.6492L13083.9459,-3138.6555L13083.9709,-3138.6707L13083.9775,-3138.6758L13084.0057,-3138.6938L13084.0392,-3138.7158L13084.0761,-3138.7406L13084.0962,-3138.7488L13084.1151,-3138.7573L13084.1299,-3138.7592L13084.2225,-3138.7626L13084.273,-3138.7648L13084.3118,-3138.7654L13084.3157,-3138.7665L13084.3273,-3138.7669L13084.3762,-3138.7688L13084.4018,-3138.7683L13084.4353,-3138.7711L13084.4712,-3138.7813L13084.5042,-3138.7863L13084.5186,-3138.7918L13084.5528,-3138.8049L13084.5693,-3138.8133L13084.5719,-3138.8139L13084.5962,-3138.8286L13084.6073,-3138.8387L13084.6342,-3138.8748L13084.6416,-3138.8815L13084.6474,-3138.8855L13084.6566,-3138.8911L13084.6762,-3138.9003L13084.7124,-3138.899L13084.7168,-3138.8981"/>
<path content="2,曽於市,260,0.5,0.5,0.5," xlink:title="2" d="M13084.7168,-3138.8981L13084.7124,-3138.899L13084.6762,-3138.9003L13084.6566,-3138.8911L13084.6474,-3138.8855L13084.6416,-3138.8815L13084.6342,-3138.8748L13084.6073,-3138.8387L13084.5962,-3138.8286L13084.5719,-3138.8139L13084.5693,-3138.8133L13084.5528,-3138.8049L13084.5186,-3138.7918L13084.5042,-3138.7863L13084.4712,-3138.7813L13084.4353,-3138.7711L13084.4018,-3138.7683L13084.3762,-3138.7688L13084.3273,-3138.7669L13084.3157,-3138.7665L13084.3118,-3138.7654L13084.273,-3138.7648L13084.2225,-3138.7626L13084.1299,-3138.7592L13084.1151,-3138.7573L13084.0962,-3138.7488L13084.0761,-3138.7406L13084.0392,-3138.7158L13084.0057,-3138.6938L13083.9775,-3138.6758L13083.9709,-3138.6707L13083.9459,-3138.6555L13083.9394,-3138.6492L13083.9223,-3138.6397L13083.8586,-3138.598L13083.801,-3138.5638"/>
<path content="2,鹿屋市,288,0.5,0.5,0.5," xlink:title="2" d="M13082.5195,-3138.0984L13082.5595,-3138.1086L13082.5746,-3138.1137L13082.593,-3138.1177L13082.6377,-3138.1295L13082.6653,-3138.1363L13082.6731,-3138.1385L13082.7047,-3138.1476L13082.7644,-3138.1628L13082.7756,-3138.1662L13082.7795,-3138.1662L13082.8137,-3138.1752L13082.8695,-3138.191L13082.9285,-3138.2116L13083.037,-3138.2344L13083.1143,-3138.2558L13083.1335,-3138.2609L13083.2187,-3138.2838L13083.2293,-3138.2864L13083.246,-3138.2908L13083.2741,-3138.2975L13083.2911,-3138.3009L13083.2951,-3138.3026L13083.3279,-3138.3105L13083.3351,-3138.311L13083.4533,-3138.344L13083.5223,-3138.377L13083.5302,-3138.3826L13083.5689,-3138.408L13083.5808,-3138.4148L13083.5841,-3138.4176L13083.5959,-3138.4249L13083.5998,-3138.4283L13083.6241,-3138.4429L13083.63,-3138.448L13083.6346,-3138.4502L13083.655,-3138.4649L13083.6924,-3138.4886L13083.7305,-3138.5134L13083.7561,-3138.5309L13083.801,-3138.5638L13083.8586,-3138.598L13083.9223,-3138.6397L13083.9394,-3138.6492L13083.9459,-3138.6555L13083.9709,-3138.6707L13083.9775,-3138.6758L13084.0057,-3138.6938L13084.0392,-3138.7158L13084.0761,-3138.7406L13084.0962,-3138.7488L13084.1151,-3138.7573L13084.1299,-3138.7592L13084.2225,-3138.7626L13084.273,-3138.7648L13084.3118,-3138.7654L13084.3157,-3138.7665L13084.3273,-3138.7669L13084.3762,-3138.7688L13084.4018,-3138.7683L13084.4353,-3138.7711L13084.4712,-3138.7813L13084.5042,-3138.7863L13084.5186,-3138.7918L13084.5528,-3138.8049L13084.5693,-3138.8133L13084.5719,-3138.8139L13084.5962,-3138.8286L13084.6073,-3138.8387L13084.6342,-3138.8748L13084.6416,-3138.8815L13084.6474,-3138.8855L13084.6566,-3138.8911L13084.6762,-3138.9003L13084.7124,-3138.899L13084.7168,-3138.8981"/>
<path content="2,鹿屋市,321,4.5,4.5,4.5," xlink:title="2" d="M13082.5195,-3138.0984L13082.5595,-3138.1086L13082.5746,-3138.1137L13082.593,-3138.1177L13082.6377,-3138.1295L13082.6653,-3138.1363L13082.6731,-3138.1385L13082.7047,-3138.1476L13082.7644,-3138.1628L13082.7756,-3138.1662L13082.7795,-3138.1662L13082.8137,-3138.1752L13082.8695,-3138.191L13082.9285,-3138.2116L13083.037,-3138.2344L13083.1143,-3138.2558L13083.1335,-3138.2609L13083.2187,-3138.2838L13083.2293,-3138.2864L13083.246,-3138.2908L13083.2741,-3138.2975L13083.2911,-3138.3009L13083.2951,-3138.3026L13083.3279,-3138.3105L13083.3351,-3138.311L13083.4533,-3138.344L13083.5223,-3138.377L13083.5302,-3138.3826L13083.5689,-3138.408L13083.5808,-3138.4148L13083.5841,-3138.4176L13083.5959,-3138.4249L13083.5998,-3138.4283L13083.6241,-3138.4429L13083.63,-3138.448L13083.6346,-3138.4502L13083.655,-3138.4649L13083.6924,-3138.4886L13083.7305,-3138.5134L13083.7561,-3138.5309L13083.801,-3138.5638L13083.8586,-3138.598L13083.9223,-3138.6397L13083.9394,-3138.6492L13083.9459,-3138.6555L13083.9709,-3138.6707L13083.9775,-3138.6758L13084.0057,-3138.6938L13084.0392,-3138.7158L13084.0761,-3138.7406L13084.0962,-3138.7488L13084.1151,-3138.7573L13084.1299,-3138.7592L13084.2225,-3138.7626L13084.273,-3138.7648L13084.3118,-3138.7654L13084.3157,-3138.7665L13084.3273,-3138.7669L13084.3762,-3138.7688L13084.4018,-3138.7683L13084.4353,-3138.7711L13084.4712,-3138.7813L13084.5042,-3138.7863L13084.5186,-3138.7918L13084.5528,-3138.8049L13084.5693,-3138.8133L13084.5719,-3138.8139L13084.5962,-3138.8286L13084.6073,-3138.8387L13084.6342,-3138.8748L13084.6416,-3138.8815L13084.6474,-3138.8855L13084.6566,-3138.8911L13084.6762,-3138.9003L13084.7124,-3138.899L13084.7168,-3138.8981"/>
<path content="2,鹿屋市,322,1.0,1.0,1.0," xlink:title="2" d="M13082.5195,-3138.0984L13082.5595,-3138.1086L13082.5746,-3138.1137L13082.593,-3138.1177L13082.6377,-3138.1295L13082.6653,-3138.1363L13082.6731,-3138.1385L13082.7047,-3138.1476L13082.7644,-3138.1628L13082.7756,-3138.1662L13082.7795,-3138.1662L13082.8137,-3138.1752L13082.8695,-3138.191L13082.9285,-3138.2116L13083.037,-3138.2344L13083.1143,-3138.2558L13083.1335,-3138.2609L13083.2187,-3138.2838L13083.2293,-3138.2864L13083.246,-3138.2908L13083.2741,-3138.2975L13083.2911,-3138.3009L13083.2951,-3138.3026L13083.3279,-3138.3105L13083.3351,-3138.311L13083.4533,-3138.344L13083.5223,-3138.377L13083.5302,-3138.3826L13083.5689,-3138.408L13083.5808,-3138.4148L13083.5841,-3138.4176L13083.5959,-3138.4249L13083.5998,-3138.4283L13083.6241,-3138.4429L13083.63,-3138.448L13083.6346,-3138.4502L13083.655,-3138.4649L13083.6924,-3138.4886L13083.7305,-3138.5134L13083.7561,-3138.5309L13083.801,-3138.5638L13083.8586,-3138.598L13083.9223,-3138.6397L13083.9394,-3138.6492L13083.9459,-3138.6555L13083.9709,-3138.6707L13083.9775,-3138.6758L13084.0057,-3138.6938L13084.0392,-3138.7158L13084.0761,-3138.7406L13084.0962,-3138.7488L13084.1151,-3138.7573L13084.1299,-3138.7592L13084.2225,-3138.7626L13084.273,-3138.7648L13084.3118,-3138.7654L13084.3157,-3138.7665L13084.3273,-3138.7669L13084.3762,-3138.7688L13084.4018,-3138.7683L13084.4353,-3138.7711L13084.4712,-3138.7813L13084.5042,-3138.7863L13084.5186,-3138.7918L13084.5528,-3138.8049L13084.5693,-3138.8133L13084.5719,-3138.8139L13084.5962,-3138.8286L13084.6073,-3138.8387L13084.6342,-3138.8748L13084.6416,-3138.8815L13084.6474,-3138.8855L13084.6566,-3138.8911L13084.6762,-3138.9003L13084.7124,-3138.899L13084.7168,-3138.8981"/>
<path content="3,鹿屋市,かのやくるりんバス（西原方面）,3.0,3.0,3.0," xlink:title="3" d="M13083.1143,-3138.2558L13083.1335,-3138.2609L13083.2187,-3138.2838"/>
<path content="3,鹿屋市,かのやくるりんバス（西原方面）,3.0,3.0,3.0," xlink:title="3" d="M13083.2187,-3138.2838L13083.1874,-3138.2661L13083.1585,-3138.2456L13083.1112,-3138.2068L13083.0994,-3138.1961L13083.0908,-3138.1853L13083.0367,-3138.1036L13083.0118,-3138.0595L13083.0101,-3138.0568L13082.9956,-3138.0613L13082.924,-3138.0951L13082.8443,-3138.1352L13082.7795,-3138.1662L13082.8137,-3138.1752L13082.8695,-3138.191L13082.9285,-3138.2116L13083.037,-3138.2344L13083.1143,-3138.2558"/>
<path content="3,鹿屋市,かのやくるりんバス（西原方面）,3.0,3.0,3.0," xlink:title="3" d="M13083.2187,-3138.2838L13083.2293,-3138.2864L13083.246,-3138.2908L13083.2741,-3138.2975L13083.2911,-3138.3009L13083.2951,-3138.3026L13083.3279,-3138.3105L13083.3351,-3138.311L13083.4533,-3138.344L13083.5223,-3138.377L13083.5302,-3138.3826L13083.5689,-3138.408L13083.5808,-3138.4148L13083.5841,-3138.4176L13083.5959,-3138.4249L13083.5998,-3138.4283L13083.6241,-3138.4429L13083.63,-3138.448L13083.6346,-3138.4502L13083.655,-3138.4649L13083.6924,-3138.4886L13083.7305,-3138.5134L13083.7561,-3138.5309L13083.801,-3138.5638L13083.8586,-3138.598L13083.9223,-3138.6397L13083.9394,-3138.6492L13083.9459,-3138.6555L13083.9709,-3138.6707L13083.9775,-3138.6758L13084.0057,-3138.6938L13084.0392,-3138.7158L13084.0761,-3138.7406L13084.0962,-3138.7488L13084.1151,-3138.7573"/>
<path content="3,鹿屋市,かのやくるりんバス（西原方面）,3.0,3.0,3.0," xlink:title="3" d="M13084.1151,-3138.7573L13084.0996,-3138.7558L13084.0119,-3138.7535L13083.965,-3138.7502L13083.9525,-3138.7519L13083.9197,-3138.7553L13083.8862,-3138.762L13083.8625,-3138.7688L13083.8382,-3138.7772L13083.7986,-3138.793L13083.7108,-3138.8144L13083.6793,-3138.8201L13083.6314,-3138.8037L13083.6064,-3138.7958L13083.5676,-3138.7845L13083.5309,-3138.7721L13083.5197,-3138.7693L13083.4619,-3138.7507L13083.4363,-3138.7417L13083.3483,-3138.7152L13083.3423,-3138.7124L13083.3174,-3138.7056L13083.2388,-3138.6851L13083.2044,-3138.6707L13083.1716,-3138.6599L13083.1368,-3138.6492L13083.1236,-3138.647L13083.1144,-3138.647L13083.1121,-3138.647L13083.1026,-3138.647L13083.0816,-3138.6504L13083.0514,-3138.6588L13083.0107,-3138.6757L13082.9765,-3138.6932L13082.9844,-3138.6707L13082.9946,-3138.6358L13083.0113,-3138.5833L13083.0186,-3138.5624L13083.0205,-3138.5534L13083.0245,-3138.5416L13083.0363,-3138.5044L13083.0422,-3138.4869L13083.0751,-3138.3837L13083.0915,-3138.3319L13083.0941,-3138.3251L13083.1143,-3138.2558"/>
<path content="3,鹿屋市,かのやくるりんバス（西原方面）,3.0,3.0,3.0," xlink:title="3" d="M13084.7168,-3138.8981L13084.7124,-3138.899L13084.6762,-3138.9003L13084.6566,-3138.8911L13084.6474,-3138.8855L13084.6416,-3138.8815L13084.6342,-3138.8748L13084.6073,-3138.8387L13084.5962,-3138.8286L13084.5719,-3138.8139L13084.5693,-3138.8133L13084.5528,-3138.8049L13084.5042,-3138.7863L13084.4712,-3138.7813L13084.4353,-3138.7711L13084.4018,-3138.7683L13084.3762,-3138.7688L13084.3273,-3138.7669L13084.3157,-3138.7665L13084.3118,-3138.7654L13084.273,-3138.7648L13084.2225,-3138.7626L13084.1299,-3138.7592L13084.1151,-3138.7573"/>
<path content="3,鹿屋市,大須～鹿屋（大浦、郷之原経由）,3.0,3.0,3.0," xlink:title="3" d="M13082.6175,-3139.8926L13082.6126,-3139.8865L13082.6061,-3139.8792L13082.5568,-3139.8228L13082.5279,-3139.7941L13082.5195,-3139.7865M13082.5195,-3139.0315L13082.5207,-3139.0303L13082.5858,-3138.9525L13082.6002,-3138.9378L13082.6258,-3138.9395L13082.6422,-3138.9395L13082.6974,-3138.9446L13082.7046,-3138.9446L13082.7204,-3138.9463L13082.7277,-3138.9466L13082.7473,-3138.9474L13082.7709,-3138.9497L13082.8215,-3138.9536L13082.836,-3138.9553L13082.8596,-3138.9564L13082.8701,-3138.9581L13082.878,-3138.9593L13082.8911,-3138.9587L13082.903,-3138.9593L13082.9082,-3138.9604L13082.9522,-3138.9632L13082.9667,-3138.9649L13082.9713,-3138.9655L13083.0232,-3138.9689L13083.0409,-3138.9694L13083.0691,-3138.9722L13083.1061,-3138.9749L13083.1361,-3138.9773L13083.1998,-3138.9773L13083.2169,-3138.9762L13083.2235,-3138.9756L13083.2412,-3138.9728L13083.2511,-3138.9722L13083.2812,-3138.9649L13083.3318,-3138.9486L13083.3417,-3138.9441L13083.3574,-3138.9395L13083.41,-3138.917L13083.4238,-3138.9114L13083.4507,-3138.9006L13083.5295,-3138.8674L13083.5768,-3138.8477L13083.6024,-3138.8381L13083.6438,-3138.8291L13083.6793,-3138.8201L13083.7108,-3138.8144L13083.7986,-3138.793L13083.8382,-3138.7772L13083.8625,-3138.7688L13083.8862,-3138.762L13083.9197,-3138.7553L13083.9525,-3138.7519L13083.965,-3138.7502L13084.0119,-3138.7535L13084.0996,-3138.7558L13084.1151,-3138.7573L13084.1299,-3138.7592L13084.2225,-3138.7626L13084.273,-3138.7648L13084.3118,-3138.7654L13084.3157,-3138.7665L13084.3273,-3138.7669L13084.3762,-3138.7688L13084.4018,-3138.7683L13084.4353,-3138.7711L13084.4712,-3138.7813L13084.5042,-3138.7863L13084.5528,-3138.8049L13084.5693,-3138.8133L13084.5719,-3138.8139L13084.5962,-3138.8286L13084.6073,-3138.8387L13084.6342,-3138.8748L13084.6416,-3138.8815L13084.6474,-3138.8855L13084.6566,-3138.8911L13084.6762,-3138.9003L13084.7124,-3138.899L13084.7168,-3138.8981"/>
<path content="3,鹿屋市,小薄～鹿屋（花里、根木原、花岡、小野原経由）,3.0,3.0,3.0," xlink:title="3" d="M13082.5195,-3138.0984L13082.5595,-3138.1086L13082.5746,-3138.1137L13082.593,-3138.1177L13082.6377,-3138.1295L13082.6653,-3138.1363L13082.6731,-3138.1385L13082.7047,-3138.1476L13082.7644,-3138.1628L13082.7756,-3138.1662L13082.7795,-3138.1662L13082.8443,-3138.1352L13082.924,-3138.0951L13082.9956,-3138.0613L13083.0101,-3138.0568L13083.0118,-3138.0595L13083.0367,-3138.1036L13083.0908,-3138.1853L13083.0994,-3138.1961L13083.1112,-3138.2068L13083.1585,-3138.2456L13083.1874,-3138.2661L13083.2187,-3138.2838L13083.2293,-3138.2864L13083.246,-3138.2908L13083.2741,-3138.2975L13083.2911,-3138.3009L13083.2951,-3138.3026L13083.3279,-3138.3105L13083.3351,-3138.311L13083.4533,-3138.344L13083.5223,-3138.377L13083.5302,-3138.3826L13083.5689,-3138.408L13083.5808,-3138.4148L13083.5841,-3138.4176L13083.5959,-3138.4249L13083.5998,-3138.4283L13083.6241,-3138.4429L13083.63,-3138.448L13083.6346,-3138.4502L13083.655,-3138.4649L13083.6924,-3138.4886L13083.7305,-3138.5134L13083.7561,-3138.5309L13083.801,-3138.5638L13083.8586,-3138.598L13083.9223,-3138.6397L13083.9394,-3138.6492L13083.9459,-3138.6555L13083.9709,-3138.6707L13083.9775,-3138.6758L13084.0057,-3138.6938L13084.0392,-3138.7158L13084.0761,-3138.7406L13084.0962,-3138.7488L13084.1151,-3138.7573L13084.1299,-3138.7592L13084.2225,-3138.7626L13084.273,-3138.7648L13084.3118,-3138.7654L13084.3157,-3138.7665L13084.3273,-3138.7669L13084.3762,-3138.7688L13084.4018,-3138.7683L13084.4353,-3138.7711L13084.4712,-3138.7813L13084.5042,-3138.7863L13084.5528,-3138.8049L13084.5693,-3138.8133L13084.5719,-3138.8139L13084.5962,-3138.8286L13084.6073,-3138.8387L13084.6342,-3138.8748L13084.6416,-3138.8815L13084.6474,-3138.8855L13084.6566,-3138.8911L13084.6762,-3138.9003L13084.7124,-3138.899L13084.7168,-3138.8981"/>
<path content="3,鹿屋市,浜田～鹿屋（高須経由）,1.0,1.0,0.0," xlink:title="3" d="M13082.7791,-3137.6953L13082.8189,-3137.7569L13082.8357,-3137.7815L13082.8983,-3137.8849L13082.9227,-3137.9199L13082.9332,-3137.9362L13082.9753,-3138.0038L13082.9779,-3138.0061L13083.0009,-3138.0421L13083.0101,-3138.0568L13083.0118,-3138.0595L13083.0367,-3138.1036L13083.0908,-3138.1853L13083.0994,-3138.1961L13083.1112,-3138.2068L13083.1585,-3138.2456L13083.1874,-3138.2661L13083.2187,-3138.2838L13083.2293,-3138.2864L13083.246,-3138.2908L13083.2741,-3138.2975L13083.2911,-3138.3009L13083.2951,-3138.3026L13083.3279,-3138.3105L13083.3351,-3138.311L13083.4533,-3138.344L13083.5223,-3138.377L13083.5302,-3138.3826L13083.5689,-3138.408L13083.5808,-3138.4148L13083.5841,-3138.4176L13083.5959,-3138.4249L13083.5998,-3138.4283L13083.6241,-3138.4429L13083.63,-3138.448L13083.6346,-3138.4502L13083.655,-3138.4649L13083.6924,-3138.4886L13083.7305,-3138.5134L13083.7561,-3138.5309L13083.768,-3138.5388L13083.801,-3138.5638L13083.8586,-3138.598L13083.9223,-3138.6397L13083.9394,-3138.6492L13083.9459,-3138.6555L13083.9709,-3138.6707L13083.9775,-3138.6758L13084.0057,-3138.6938L13084.0392,-3138.7158L13084.0761,-3138.7406L13084.0962,-3138.7488L13084.1151,-3138.7573L13084.1299,-3138.7592L13084.2225,-3138.7626L13084.273,-3138.7648L13084.3118,-3138.7654L13084.3157,-3138.7665L13084.3273,-3138.7669L13084.3762,-3138.7688L13084.4018,-3138.7683L13084.4353,-3138.7711L13084.4712,-3138.7813L13084.5042,-3138.7863L13084.5528,-3138.8049L13084.5693,-3138.8133L13084.5719,-3138.8139L13084.5962,-3138.8286L13084.6073,-3138.8387L13084.6342,-3138.8748L13084.6416,-3138.8815L13084.6474,-3138.8855L13084.6566,-3138.8911L13084.6762,-3138.9003L13084.7124,-3138.899L13084.7168,-3138.8981"/>
<path content="3,鹿屋市,鹿児島中央駅～鹿屋間直行バス,6.0,6.0,6.0," xlink:title="3" d="M13084.7168,-3138.8982L13084.713,-3138.8991L13084.6762,-3138.9003L13084.6566,-3138.8911L13084.6474,-3138.8855L13084.6416,-3138.8815L13084.6342,-3138.8748L13084.6073,-3138.8387L13084.5962,-3138.8286L13084.5719,-3138.8139L13084.5693,-3138.8133L13084.5528,-3138.8049L13084.5042,-3138.7863L13084.4712,-3138.7813L13084.4353,-3138.7711L13084.4018,-3138.7683L13084.4129,-3138.7096L13084.4228,-3138.6684L13084.4261,-3138.6544L13084.432,-3138.6329L13084.4458,-3138.5907L13084.4648,-3138.5461L13084.5056,-3138.4717L13084.4701,-3138.4672L13084.4491,-3138.4655L13084.4044,-3138.4655L13084.3709,-3138.4667L13084.3138,-3138.4723L13084.2816,-3138.4768L13084.2251,-3138.4875L13084.1929,-3138.4881L13084.1692,-3138.4864L13084.1226,-3138.4785L13084.1174,-3138.4768L13084.0248,-3138.4616L13084.0221,-3138.4604L13083.9959,-3138.4565L13083.9886,-3138.4554L13083.968,-3138.4515L13083.8921,-3138.4373L13083.8818,-3138.4354L13083.8711,-3138.4334L13083.8028,-3138.4181L13083.7804,-3138.4136L13083.7134,-3138.3984L13083.7049,-3138.3973L13083.6031,-3138.3742L13083.5578,-3138.3652L13083.4533,-3138.344L13083.3351,-3138.311L13083.3279,-3138.3105L13083.2951,-3138.3026L13083.2911,-3138.3009L13083.2741,-3138.2975L13083.246,-3138.2908L13083.2293,-3138.2864L13083.2187,-3138.2838L13083.1335,-3138.2609L13083.1143,-3138.2558L13083.037,-3138.2344L13082.9285,-3138.2116L13082.8695,-3138.191L13082.8137,-3138.1752L13082.7795,-3138.1662L13082.7756,-3138.1662L13082.7644,-3138.1628L13082.7047,-3138.1476L13082.6731,-3138.1385L13082.6653,-3138.1363L13082.6377,-3138.1295L13082.593,-3138.1177L13082.5746,-3138.1137L13082.5595,-3138.1086L13082.5195,-3138.0984"/>
<path content="3,鹿屋市,鹿屋～かのやばら園,0.0,0.0,3.0," xlink:title="3" d="M13084.7168,-3138.8981L13084.7124,-3138.899L13084.6762,-3138.9003L13084.6566,-3138.8911L13084.6474,-3138.8855L13084.6416,-3138.8815L13084.6342,-3138.8748L13084.6073,-3138.8387L13084.5962,-3138.8286L13084.5719,-3138.8139L13084.5693,-3138.8133L13084.5528,-3138.8049L13084.5042,-3138.7863L13084.4712,-3138.7813L13084.4353,-3138.7711L13084.4018,-3138.7683L13084.3762,-3138.7688L13084.3273,-3138.7669L13084.3157,-3138.7665L13084.3118,-3138.7654L13084.273,-3138.7648L13084.2225,-3138.7626L13084.1299,-3138.7592L13084.1151,-3138.7573L13084.0996,-3138.7558L13084.0119,-3138.7535L13083.965,-3138.7502L13083.9525,-3138.7519L13083.9216,-3138.7378L13083.9124,-3138.7355L13083.9019,-3138.7304L13083.8941,-3138.7276L13083.8606,-3138.7192L13083.8277,-3138.7096L13083.8093,-3138.7051L13083.8034,-3138.7028L13083.7594,-3138.6904L13083.7686,-3138.6746L13083.7797,-3138.6509L13083.785,-3138.6425L13083.8189,-3138.5744L13083.801,-3138.5638L13083.7561,-3138.5309L13083.7305,-3138.5134L13083.6924,-3138.4886L13083.655,-3138.4649L13083.6346,-3138.4502L13083.63,-3138.448L13083.6241,-3138.4429L13083.5998,-3138.4283L13083.5959,-3138.4249L13083.5841,-3138.4176L13083.5808,-3138.4148L13083.5689,-3138.408L13083.5302,-3138.3826L13083.5223,-3138.377L13083.4533,-3138.344L13083.3351,-3138.311L13083.3279,-3138.3105L13083.2951,-3138.3026L13083.2911,-3138.3009L13083.2741,-3138.2975L13083.246,-3138.2908L13083.2293,-3138.2864L13083.2187,-3138.2838L13083.1874,-3138.2661L13083.1585,-3138.2456L13083.1112,-3138.2068L13083.0994,-3138.1961L13083.0908,-3138.1853L13083.0367,-3138.1036L13083.0118,-3138.0595L13083.0101,-3138.0568L13083.0009,-3138.0421L13082.9779,-3138.0061L13082.9753,-3138.0038L13082.9332,-3137.9362L13082.9227,-3137.9199L13082.9096,-3137.8995L13082.8983,-3137.8849L13082.8357,-3137.7815L13082.8189,-3137.7569L13082.7791,-3137.6953"/>
<path content="3,鹿屋市,鹿屋～小薄,3.0,3.0,3.0," xlink:title="3" d="M13084.7168,-3138.8981L13084.7124,-3138.899L13084.6762,-3138.9003L13084.6566,-3138.8911L13084.6474,-3138.8855L13084.6416,-3138.8815L13084.6342,-3138.8748L13084.6073,-3138.8387L13084.5962,-3138.8286L13084.5719,-3138.8139L13084.5693,-3138.8133L13084.5528,-3138.8049L13084.5186,-3138.7918L13084.5042,-3138.7863L13084.4712,-3138.7813L13084.4353,-3138.7711L13084.4018,-3138.7683L13084.3762,-3138.7688L13084.3273,-3138.7669L13084.3157,-3138.7665L13084.3118,-3138.7654L13084.273,-3138.7648L13084.2225,-3138.7626L13084.1299,-3138.7592L13084.1151,-3138.7573L13084.0962,-3138.7488L13084.0761,-3138.7406L13084.0392,-3138.7158L13084.0057,-3138.6938L13083.9775,-3138.6758L13083.9709,-3138.6707L13083.9459,-3138.6555L13083.9394,-3138.6492L13083.9223,-3138.6397L13083.8586,-3138.598L13083.801,-3138.5638L13083.7561,-3138.5309L13083.7305,-3138.5134L13083.6924,-3138.4886L13083.655,-3138.4649L13083.6346,-3138.4502L13083.63,-3138.448L13083.6241,-3138.4429L13083.5998,-3138.4283L13083.5959,-3138.4249L13083.5841,-3138.4176L13083.5808,-3138.4148L13083.5689,-3138.408L13083.5302,-3138.3826L13083.5223,-3138.377L13083.4533,-3138.344L13083.3351,-3138.311L13083.3279,-3138.3105L13083.2951,-3138.3026L13083.2911,-3138.3009L13083.2741,-3138.2975L13083.246,-3138.2908L13083.2293,-3138.2864L13083.2187,-3138.2838L13083.1874,-3138.2661L13083.1585,-3138.2456L13083.1112,-3138.2068L13083.0994,-3138.1961L13083.0908,-3138.1853L13083.0367,-3138.1036L13083.0118,-3138.0595L13083.0101,-3138.0568L13082.9956,-3138.0613L13082.924,-3138.0951L13082.8443,-3138.1352L13082.7795,-3138.1662L13082.7756,-3138.1662L13082.7644,-3138.1628L13082.7047,-3138.1476L13082.6731,-3138.1385L13082.6653,-3138.1363L13082.6377,-3138.1295L13082.593,-3138.1177L13082.5746,-3138.1137L13082.5595,-3138.1086L13082.5195,-3138.0984"/>
<path content="3,鹿屋市,鹿屋～高須～浜田,1.0,1.0,0.0," xlink:title="3" d="M13084.7168,-3138.8981L13084.7124,-3138.899L13084.6762,-3138.9003L13084.6566,-3138.8911L13084.6474,-3138.8855L13084.6416,-3138.8815L13084.6342,-3138.8748L13084.6073,-3138.8387L13084.5962,-3138.8286L13084.5719,-3138.8139L13084.5693,-3138.8133L13084.5528,-3138.8049L13084.5186,-3138.7918L13084.5042,-3138.7863L13084.4712,-3138.7813L13084.4353,-3138.7711L13084.4018,-3138.7683L13084.3762,-3138.7688L13084.3273,-3138.7669L13084.3157,-3138.7665L13084.3118,-3138.7654L13084.273,-3138.7648L13084.2225,-3138.7626L13084.1299,-3138.7592L13084.1151,-3138.7573L13084.0962,-3138.7488L13084.0761,-3138.7406L13084.0392,-3138.7158L13084.0057,-3138.6938L13083.9775,-3138.6758L13083.9709,-3138.6707L13083.9459,-3138.6555L13083.9394,-3138.6492L13083.9223,-3138.6397L13083.8586,-3138.598L13083.801,-3138.5638L13083.7561,-3138.5309L13083.7305,-3138.5134L13083.6924,-3138.4886L13083.655,-3138.4649L13083.6346,-3138.4502L13083.63,-3138.448L13083.6241,-3138.4429L13083.5998,-3138.4283L13083.5959,-3138.4249L13083.5841,-3138.4176L13083.5808,-3138.4148L13083.5689,-3138.408L13083.5302,-3138.3826L13083.5223,-3138.377L13083.4533,-3138.344L13083.3351,-3138.311L13083.3279,-3138.3105L13083.2951,-3138.3026L13083.2911,-3138.3009L13083.2741,-3138.2975L13083.246,-3138.2908L13083.2293,-3138.2864L13083.2187,-3138.2838L13083.1874,-3138.2661L13083.1585,-3138.2456L13083.1112,-3138.2068L13083.0994,-3138.1961L13083.0908,-3138.1853L13083.0367,-3138.1036L13083.0118,-3138.0595L13083.0101,-3138.0568L13083.0009,-3138.0421L13082.9779,-3138.0061L13082.9753,-3138.0038L13082.9332,-3137.9362L13082.9227,-3137.9199L13082.8983,-3137.8849L13082.8357,-3137.7815L13082.8189,-3137.7569L13082.7791,-3137.6953"/>
</g>
</svg>
