<?xml version="1.0" encoding="UTF-8"?>
<svg  xmlns="http://www.w3.org/2000/svg" xmlns:xlink="http://www.w3.org/1999/xlink" xmlns:go="http://purl.org/svgmap/profile" property="N07_001,N07_002,N07_003,N07_004,N07_005,N07_006,N07_007" viewBox="13174.8046875 -3260.7421875 8.7890625 8.7890625" go:dataArea="13174.8046875 -3260.7421875 8.7890625 8.7890625" >
<metadata>
 <rdf:RDF xmlns:rdf="http://www.w3.org/1999/02/22-rdf-syntax-ns#" xmlns:crs="http://opengis.org/xmldtds/transformations.dtd" xmlns:svg="http://www.w3.org/svg" >
  <rdf:Description>
   <crs:CoordinateReferenceSystem rdf:resource="http://purl.org/crs/84" svg:transform="matrix(100.0,0.0,0.0,-100.0,0.0,0.0)" />
  </rdf:Description>
 </rdf:RDF>
</metadata>
<globalCoordinateSystem srsName="http://purl.org/crs/84" transform="matrix(100.0,0.0,0.0,-100.0,0.0,0.0)" />
<defs>
 <g id="p0" >
  <circle cx="0.0" cy="0.0" r="3" stroke="green" stroke-width="0.75" vector-effect="non-scaling-stroke" />
 </g>
</defs>
<g fill="none" fill-rule="evenodd" stroke="#FF00FF" stroke-width="0.75" opacity="0.5" vector-effect="non-scaling-stroke" stroke-linejoin="bevel" >
<path content="3,延岡市,安井・神戸～レーヨン線,0.4,0.0,0.0," xlink:title="3" d="M13175.3371,-3260.7422L13175.3441,-3260.7411L13175.3576,-3260.7396L13175.3617,-3260.7422M13175.3936,-3260.7422L13175.3936,-3260.7422L13175.4011,-3260.7364L13175.41,-3260.7235L13175.4119,-3260.7182L13175.4112,-3260.7122L13175.406,-3260.7056L13175.3894,-3260.6908L13175.3462,-3260.6561L13175.343,-3260.6505L13175.3428,-3260.6428L13175.3457,-3260.6374L13175.3516,-3260.6336L13175.358,-3260.6284L13175.415,-3260.6317L13175.4225,-3260.6321L13175.4287,-3260.6321L13175.4403,-3260.6303L13175.4457,-3260.6249L13175.4411,-3260.5856L13175.4427,-3260.5064L13175.439,-3260.4994L13175.4312,-3260.4915L13175.3897,-3260.4675L13175.3839,-3260.4604L13175.3852,-3260.4519L13175.3886,-3260.4452L13175.3961,-3260.4349L13175.4264,-3260.4006L13175.4327,-3260.3977L13175.4396,-3260.3936L13175.4826,-3260.396L13175.4886,-3260.3895L13175.4908,-3260.3828L13175.4937,-3260.371L13175.4974,-3260.3592L13175.4921,-3260.3495L13175.4577,-3260.3104L13175.4508,-3260.3006L13175.4012,-3260.2586L13175.3926,-3260.2397L13175.3852,-3260.2293L13175.3658,-3260.2114L13175.3535,-3260.2001L13175.3388,-3260.195L13175.3179,-3260.191L13175.2844,-3260.1839L13175.2682,-3260.1769L13175.2185,-3260.1768L13175.1531,-3260.1608L13175.1411,-3260.1574L13175.1293,-3260.1631L13175.1223,-3260.1748L13175.1232,-3260.1935L13175.1274,-3260.212L13175.1329,-3260.2477L13175.1392,-3260.2682L13175.1486,-3260.301L13175.1489,-3260.3136L13175.1421,-3260.326L13175.1298,-3260.3337L13175.1105,-3260.3335L13175.0996,-3260.3206L13175.0846,-3260.2944L13175.0616,-3260.2685L13175.0542,-3260.255L13175.0444,-3260.2318L13175.0294,-3260.1914L13175.0116,-3260.1782L13174.9914,-3260.1646L13174.9748,-3260.1619L13174.9546,-3260.1787L13174.9274,-3260.198L13174.9075,-3260.2023L13174.8769,-3260.2277L13174.8476,-3260.232L13174.8221,-3260.2233L13174.8047,-3260.2211"/>
</g>
</svg>
