<?xml version="1.0" encoding="UTF-8"?>
<svg  xmlns="http://www.w3.org/2000/svg" xmlns:xlink="http://www.w3.org/1999/xlink" xmlns:go="http://purl.org/svgmap/profile" property="N07_001,N07_002,N07_003,N07_004,N07_005,N07_006,N07_007" viewBox="14449.21875 -4359.375 35.15625 35.15625" go:dataArea="14449.21875 -4359.375 35.15625 35.15625" >
<metadata>
 <rdf:RDF xmlns:rdf="http://www.w3.org/1999/02/22-rdf-syntax-ns#" xmlns:crs="http://opengis.org/xmldtds/transformations.dtd" xmlns:svg="http://www.w3.org/svg" >
  <rdf:Description>
   <crs:CoordinateReferenceSystem rdf:resource="http://purl.org/crs/84" svg:transform="matrix(100.0,0.0,0.0,-100.0,0.0,0.0)" />
  </rdf:Description>
 </rdf:RDF>
</metadata>
<globalCoordinateSystem srsName="http://purl.org/crs/84" transform="matrix(100.0,0.0,0.0,-100.0,0.0,0.0)" />
<defs>
 <g id="p0" >
  <circle cx="0.0" cy="0.0" r="3" stroke="green" stroke-width="0.75" vector-effect="non-scaling-stroke" />
 </g>
</defs>
<g fill="none" fill-rule="evenodd" stroke="#FF00FF" stroke-width="0.75" opacity="0.5" vector-effect="non-scaling-stroke" stroke-linejoin="bevel" >
<path content="1,北都交通（株）,札幌～根室　オーロラ号,2.0,2.0,2.0," xlink:title="1" d="M14449.2188,-4348.1333L14449.4533,-4348.2216L14449.6015,-4348.2753L14449.6025,-4348.2896L14449.6246,-4348.2923L14449.6685,-4348.2987L14449.7141,-4348.3021L14449.8199,-4348.301L14449.9001,-4348.2998L14450.1015,-4348.2942L14450.2782,-4348.2908L14450.3948,-4348.2892L14450.5221,-4348.2869L14450.573,-4348.2841L14450.5939,-4348.2824L14450.6378,-4348.2773L14450.715,-4348.2593L14450.7474,-4348.2503L14450.7605,-4348.2475L14450.7891,-4348.2391L14450.8315,-4348.2211L14450.9118,-4348.18L14451.0831,-4348.094L14451.1279,-4348.0709L14451.1973,-4348.0344L14451.2251,-4348.0197L14451.2536,-4348.0062L14451.2845,-4347.995L14451.3053,-4347.9894L14451.3509,-4347.9804L14451.3833,-4347.9776L14451.435,-4347.9776L14451.4512,-4347.9793L14451.4789,-4347.9849L14451.5052,-4347.9927L14451.5306,-4348.0034L14451.5762,-4348.0287L14451.6402,-4348.0681L14451.7133,-4348.117L14451.7463,-4348.139L14451.8431,-4348.2065L14451.9636,-4348.2886L14452.1495,-4348.4169L14452.222,-4348.4669L14452.2637,-4348.49L14452.2977,-4348.5046L14452.3385,-4348.5136L14452.3882,-4348.5177L14452.4342,-4348.5164L14452.4651,-4348.5131L14452.5122,-4348.5052L14452.5446,-4348.4984L14452.6429,-4348.4756L14452.6758,-4348.468L14452.7437,-4348.4517L14452.8471,-4348.4275L14452.9065,-4348.4169L14452.9489,-4348.4113L14452.9837,-4348.4084L14453.0593,-4348.4051L14453.1449,-4348.4006L14453.2105,-4348.3961L14453.2807,-4348.3938L14453.3888,-4348.3888L14453.4721,-4348.3826L14453.5053,-4348.3775L14453.5485,-4348.3679L14453.5877,-4348.3564L14453.6264,-4348.3449L14453.6504,-4348.3359L14453.7529,-4348.2964L14453.9019,-4348.2391L14453.9312,-4348.229L14453.9729,-4348.2189L14454.0154,-4348.211L14454.0617,-4348.2065L14454.1496,-4348.2065L14454.2183,-4348.2116L14454.2651,-4348.2181L14454.2768,-4348.2193L14454.489,-4348.2527L14454.5963,-4348.2657L14454.6468,-4348.2691L14454.75,-4348.2661L14454.7901,-4348.2628L14454.9713,-4348.2449L14455.1968,-4348.2126L14455.2551,-4348.2038L14455.348,-4348.1841L14455.3781,-4348.1745L14455.4144,-4348.1593L14455.4723,-4348.1312L14455.5585,-4348.0848L14455.7995,-4347.9535L14455.9237,-4347.8854L14455.9878,-4347.85L14456.041,-4347.8219L14456.0789,-4347.8033L14456.1181,-4347.7872L14456.1923,-4347.7667L14456.2224,-4347.7611L14456.2401,-4347.7589L14456.2787,-4347.7572L14456.3204,-4347.7583L14456.3582,-4347.7611L14456.9964,-4347.8039L14457.2182,-4347.8187L14457.3433,-4347.8271L14457.5617,-4347.8419L14457.6444,-4347.8453L14457.7573,-4347.85L14458.4202,-4347.8782L14458.4819,-4347.8793L14458.5434,-4347.8763L14458.6012,-4347.8674L14458.6439,-4347.8579L14458.6849,-4347.8478L14458.7389,-4347.8332L14458.7829,-4347.8191L14458.8423,-4347.8006L14458.8493,-4347.7984L14458.9881,-4347.7544L14459.1652,-4347.6965L14459.4288,-4347.6139L14459.6711,-4347.5402L14459.8756,-4347.4764L14460.0114,-4347.4378L14460.1349,-4347.4001L14460.1781,-4347.3894L14460.2522,-4347.3714L14460.2931,-4347.363L14460.3394,-4347.3546L14460.3811,-4347.349L14460.4837,-4347.345L14460.5948,-4347.3439L14460.7384,-4347.3439L14460.9592,-4347.343L14461.2986,-4347.3417L14461.554,-4347.3406L14461.7616,-4347.3406L14461.848,-4347.34L14462.1004,-4347.3392L14462.1444,-4347.3391L14462.2509,-4347.3391L14462.3543,-4347.3334L14462.4042,-4347.328L14462.4493,-4347.3224L14462.4932,-4347.316L14462.5409,-4347.3068L14462.5894,-4347.2959L14462.7541,-4347.2581L14463.3351,-4347.1276L14463.5343,-4347.0814L14463.963,-4346.9853L14464.509,-4346.861L14464.6827,-4346.8226L14465.5084,-4346.636L14465.7272,-4346.5876L14465.7736,-4346.5771L14466.3858,-4346.4386L14466.7987,-4346.3463L14466.8209,-4346.3419L14466.8326,-4346.3401L14466.8425,-4346.3387L14466.8711,-4346.3383L14466.9114,-4346.3394L14466.933,-4346.3419L14466.9542,-4346.346L14466.9648,-4346.3493L14466.974,-4346.3539L14467.0449,-4346.4414L14467.0589,-4346.4558L14467.0754,-4346.4702L14467.0951,-4346.4841L14467.1146,-4346.4946L14467.1359,-4346.5008L14467.1885,-4346.5076L14467.4284,-4346.5337L14467.577,-4346.5498L14467.601,-4346.5524L14467.6229,-4346.556L14467.6414,-4346.5612L14467.7132,-4346.5944L14467.7834,-4346.6276L14467.9061,-4346.6839L14467.9486,-4346.7042L14468.0077,-4346.7327L14468.0844,-4346.6715L14468.3159,-4346.4859L14468.7019,-4346.1764L14469.0792,-4345.8733L14469.1896,-4345.7833L14469.2046,-4345.7697L14469.2139,-4345.7577L14469.2202,-4345.7437L14469.222,-4345.7282L14469.228,-4345.6437L14469.2332,-4345.589L14469.2398,-4345.5043L14469.2498,-4345.3938L14469.253,-4345.3818L14469.2602,-4345.3687L14469.2686,-4345.3568L14469.2801,-4345.3453L14469.4315,-4345.2249L14469.5045,-4345.1668L14469.9189,-4344.836L14470.4244,-4344.4344L14470.7095,-4344.2042L14470.8334,-4344.1042L14471.0619,-4343.9214L14471.6228,-4343.4713L14471.7588,-4343.3622L14471.9332,-4343.2227L14472.228,-4342.9881L14472.6942,-4342.6131L14473.4219,-4342.0527L14473.5964,-4341.9182L14473.8082,-4341.7551L14473.9122,-4341.6747L14474.0371,-4341.5779L14474.1465,-4341.4935L14474.2043,-4341.4474L14474.2464,-4341.4177L14474.275,-4341.4032L14474.3084,-4341.3927L14474.4193,-4341.3754L14474.4495,-4341.3705L14474.4817,-4341.3653L14474.5996,-4341.3474L14474.7263,-4341.3289L14474.8169,-4341.3146L14474.8304,-4341.3128L14474.8846,-4341.304L14474.971,-4341.2964L14475.2662,-4341.2861L14475.6436,-4341.2735L14475.7661,-4341.2698L14475.7725,-4341.2696L14476.1299,-4341.2572L14476.1627,-4341.256L14476.167,-4341.2556L14476.1796,-4341.2551L14476.2114,-4341.2548L14476.2382,-4341.2566L14476.2718,-4341.2626L14476.514,-4341.3037L14476.6017,-4341.3126L14476.6153,-4341.3061L14476.6674,-4341.2793L14476.7183,-4341.2545L14476.7453,-4341.2404L14476.9403,-4341.1465L14477.3341,-4340.9519L14477.6455,-4340.7983L14477.6516,-4340.7953L14477.925,-4340.6611L14478.3304,-4340.4621L14478.3756,-4340.4399L14479.3246,-4339.9742L14479.9422,-4339.6711L14480.2728,-4339.5074L14480.2961,-4339.4937L14480.3081,-4339.4872L14480.3191,-4339.4799L14480.3308,-4339.4708L14480.3657,-4339.4442L14480.3864,-4339.4264L14480.5927,-4339.2627L14480.6678,-4339.202L14480.7437,-4339.1416L14480.7941,-4339.0986L14480.8069,-4339.0895L14480.8138,-4339.0858L14480.8219,-4339.0825L14480.8324,-4339.0802L14480.8426,-4339.0785L14480.8551,-4339.0766L14481.0505,-4339.0576L14481.2078,-4339.0435L14481.2288,-4339.0406L14481.8512,-4338.9348L14481.8734,-4338.9301L14481.8913,-4338.9263L14481.9111,-4338.9219L14481.9377,-4338.9136L14481.9661,-4338.9033L14482.1657,-4338.8189L14482.865,-4338.5291L14483.3734,-4338.3172L14484.3599,-4337.9062L14484.375,-4337.8999"/>
<path content="1,根室交通（株）,オーロラ号,2.0,2.0,2.0," xlink:title="1" d="M14449.2188,-4348.1333L14449.4533,-4348.2216L14449.6015,-4348.2753L14449.6025,-4348.2896L14449.6246,-4348.2923L14449.6685,-4348.2987L14449.7141,-4348.3021L14449.8199,-4348.301L14449.9001,-4348.2998L14450.1015,-4348.2942L14450.2782,-4348.2908L14450.3948,-4348.2892L14450.5221,-4348.2869L14450.573,-4348.2841L14450.5939,-4348.2824L14450.6378,-4348.2773L14450.715,-4348.2593L14450.7474,-4348.2503L14450.7605,-4348.2475L14450.7891,-4348.2391L14450.8315,-4348.2211L14450.9118,-4348.18L14451.0831,-4348.094L14451.1279,-4348.0709L14451.1973,-4348.0344L14451.2251,-4348.0197L14451.2536,-4348.0062L14451.2845,-4347.995L14451.3053,-4347.9894L14451.3509,-4347.9804L14451.3833,-4347.9776L14451.435,-4347.9776L14451.4512,-4347.9793L14451.4789,-4347.9849L14451.5052,-4347.9927L14451.5306,-4348.0034L14451.5762,-4348.0287L14451.6402,-4348.0681L14451.7133,-4348.117L14451.7463,-4348.139L14451.8431,-4348.2065L14451.9636,-4348.2886L14452.1495,-4348.4169L14452.222,-4348.4669L14452.2637,-4348.49L14452.2977,-4348.5046L14452.3385,-4348.5136L14452.3882,-4348.5177L14452.4342,-4348.5164L14452.4651,-4348.5131L14452.5122,-4348.5052L14452.5446,-4348.4984L14452.6429,-4348.4756L14452.6758,-4348.468L14452.7437,-4348.4517L14452.8471,-4348.4275L14452.9065,-4348.4169L14452.9489,-4348.4113L14452.9837,-4348.4084L14453.0593,-4348.4051L14453.1449,-4348.4006L14453.2105,-4348.3961L14453.2807,-4348.3938L14453.3888,-4348.3888L14453.4721,-4348.3826L14453.5053,-4348.3775L14453.5485,-4348.3679L14453.5877,-4348.3564L14453.6264,-4348.3449L14453.6504,-4348.3359L14453.7529,-4348.2964L14453.9019,-4348.2391L14453.9312,-4348.229L14453.9729,-4348.2189L14454.0154,-4348.211L14454.0617,-4348.2065L14454.1496,-4348.2065L14454.2183,-4348.2116L14454.2651,-4348.2181L14454.2768,-4348.2193L14454.489,-4348.2527L14454.5963,-4348.2657L14454.6468,-4348.2691L14454.75,-4348.2661L14454.7901,-4348.2628L14454.9713,-4348.2449L14455.1968,-4348.2126L14455.2551,-4348.2038L14455.348,-4348.1841L14455.3781,-4348.1745L14455.4144,-4348.1593L14455.4723,-4348.1312L14455.5585,-4348.0848L14455.7995,-4347.9535L14455.9237,-4347.8854L14455.9878,-4347.85L14456.041,-4347.8219L14456.0789,-4347.8033L14456.1181,-4347.7872L14456.1923,-4347.7667L14456.2224,-4347.7611L14456.2401,-4347.7589L14456.2787,-4347.7572L14456.3204,-4347.7583L14456.3582,-4347.7611L14456.9964,-4347.8039L14457.2182,-4347.8187L14457.3433,-4347.8271L14457.5617,-4347.8419L14457.6444,-4347.8453L14457.7573,-4347.85L14458.4202,-4347.8782L14458.4819,-4347.8793L14458.5434,-4347.8763L14458.6012,-4347.8674L14458.6439,-4347.8579L14458.6849,-4347.8478L14458.7389,-4347.8332L14458.7829,-4347.8191L14458.8423,-4347.8006L14458.8493,-4347.7984L14458.9881,-4347.7544L14459.1652,-4347.6965L14459.4288,-4347.6139L14459.6711,-4347.5402L14459.8756,-4347.4764L14460.0114,-4347.4378L14460.1349,-4347.4001L14460.1781,-4347.3894L14460.2522,-4347.3714L14460.2931,-4347.363L14460.3394,-4347.3546L14460.3811,-4347.349L14460.4837,-4347.345L14460.5948,-4347.3439L14460.7384,-4347.3439L14460.9592,-4347.343L14461.2986,-4347.3417L14461.554,-4347.3406L14461.7616,-4347.3406L14461.848,-4347.34L14462.1004,-4347.3392L14462.1444,-4347.3391L14462.2509,-4347.3391L14462.3543,-4347.3334L14462.4042,-4347.328L14462.4493,-4347.3224L14462.4932,-4347.316L14462.5409,-4347.3068L14462.5894,-4347.2959L14462.7541,-4347.2581L14463.3351,-4347.1276L14463.5343,-4347.0814L14463.963,-4346.9853L14464.509,-4346.861L14464.6827,-4346.8226L14465.5084,-4346.636L14465.7272,-4346.5876L14465.7736,-4346.5771L14466.3858,-4346.4386L14466.7987,-4346.3463L14466.8209,-4346.3419L14466.8326,-4346.3401L14466.8425,-4346.3387L14466.8711,-4346.3383L14466.9114,-4346.3394L14466.933,-4346.3419L14466.9542,-4346.346L14466.9648,-4346.3493L14466.974,-4346.3539L14467.0449,-4346.4414L14467.0589,-4346.4558L14467.0754,-4346.4702L14467.0951,-4346.4841L14467.1146,-4346.4946L14467.1359,-4346.5008L14467.1885,-4346.5076L14467.4284,-4346.5337L14467.577,-4346.5498L14467.601,-4346.5524L14467.6229,-4346.556L14467.6414,-4346.5612L14467.7132,-4346.5944L14467.7834,-4346.6276L14467.9061,-4346.6839L14467.9486,-4346.7042L14468.0077,-4346.7327L14468.0036,-4346.7359L14468.0412,-4346.7385L14468.7319,-4346.7404L14469.3934,-4346.7417L14469.7498,-4346.7425L14470.3193,-4346.7436L14470.7507,-4346.7459L14471.2539,-4346.7492L14471.6506,-4346.751L14471.6626,-4346.7506L14471.6772,-4346.7489L14471.6913,-4346.7465L14471.7188,-4346.7412L14472.0466,-4346.6778L14472.2502,-4346.6385L14472.3282,-4346.6227L14472.359,-4346.6199L14472.3902,-4346.6192L14472.9068,-4346.6067L14472.9276,-4346.6067L14472.95,-4346.6088L14473.1416,-4346.6435L14473.1719,-4346.6494L14473.1992,-4346.6541L14473.231,-4346.6583L14473.2376,-4346.6472L14473.2444,-4346.6389L14473.2513,-4346.6321L14473.2608,-4346.6254L14473.2715,-4346.6208L14473.2859,-4346.6171L14473.3966,-4346.5989L14473.4209,-4346.5935L14473.4437,-4346.588L14473.469,-4346.5804L14473.4989,-4346.5693L14473.5388,-4346.5518L14473.7377,-4346.6888L14474.3648,-4346.7257L14474.4798,-4346.733L14474.5041,-4346.7351L14474.59,-4346.7476L14474.5994,-4346.7495L14474.631,-4346.7558L14474.6612,-4346.7629L14474.6904,-4346.7714L14474.8711,-4346.8306L14475.0474,-4346.8873L14475.5363,-4347.0444L14476.0773,-4347.2204L14476.1933,-4347.2579L14476.6716,-4347.4139L14476.8592,-4347.4745L14476.9473,-4347.5029L14476.9816,-4347.5154L14477.0128,-4347.5269L14477.1022,-4347.5653L14477.2635,-4347.6339L14477.4573,-4347.7166L14477.5391,-4347.7526L14477.7837,-4347.8572L14478.0419,-4347.9733L14478.0803,-4347.9861L14478.4655,-4348.1531L14478.5989,-4348.2109L14478.6345,-4348.2263L14478.8333,-4348.3123L14478.8822,-4348.3331L14478.8999,-4348.3409L14478.9241,-4348.3503L14478.958,-4348.3633L14478.991,-4348.3742L14479.0139,-4348.3815L14479.0384,-4348.3883L14479.0622,-4348.3935L14479.0929,-4348.4005L14479.1176,-4348.406L14479.1436,-4348.4113L14479.1702,-4348.4159L14479.3181,-4348.4377L14479.3381,-4348.4445L14479.3651,-4348.4451L14479.6576,-4348.4907L14479.9818,-4348.5404L14479.9956,-4348.5428L14480.0063,-4348.5454L14480.0979,-4348.5675L14480.1156,-4348.5785L14480.2672,-4348.6173L14480.6255,-4348.7277L14480.7079,-4348.7534L14480.7635,-4348.7703L14480.8308,-4348.7954L14480.8839,-4348.8086L14480.904,-4348.8136L14481.046,-4348.8575L14481.259,-4348.9233L14481.3608,-4348.9548L14481.4102,-4348.97L14481.4612,-4348.9862L14481.5034,-4349.0033L14481.5693,-4349.0194L14481.7931,-4349.0881L14481.871,-4349.1123L14481.9458,-4349.1419L14482.1488,-4349.1984L14482.3899,-4349.2727L14482.4466,-4349.2904L14482.5112,-4349.3096L14482.5805,-4349.3289L14482.6857,-4349.357L14482.8284,-4349.3912L14482.9376,-4349.4194L14483.1104,-4349.4615L14483.2656,-4349.5048L14483.4114,-4349.5479L14483.489,-4349.5724L14483.5272,-4349.5843L14483.5596,-4349.595L14483.6252,-4349.6146L14483.7416,-4349.6493L14483.7999,-4349.6701L14483.8314,-4349.6813L14483.8611,-4349.6928L14483.8961,-4349.7086L14483.927,-4349.7238L14483.9896,-4349.756L14484.375,-4349.9496"/>
<path content="1,阿寒バス（株）,JR標津代替線,11.3,6.0,6.0," xlink:title="1" d="M14476.4639,-4341.6207L14476.4185,-4341.5375L14476.3793,-4341.4637L14476.3615,-4341.4306L14476.2718,-4341.2626L14476.2642,-4341.2464L14476.2512,-4341.2189L14476.2088,-4341.1279L14476.2041,-4341.1162L14476.2025,-4341.1053L14476.2014,-4341.0917L14476.2012,-4341.0782L14476.2424,-4340.6267L14476.2669,-4340.3559L14476.2676,-4340.3475L14476.2687,-4340.335L14476.2698,-4340.3231L14476.2676,-4340.3077L14476.257,-4340.2666L14476.2231,-4340.1736L14476.2203,-4340.1634L14476.2203,-4340.1536L14476.2229,-4340.1418L14476.2403,-4340.0752L14476.2638,-4339.9882L14476.2674,-4339.9718L14476.2692,-4339.9554L14476.2684,-4339.94L14476.2656,-4339.9281L14476.2604,-4339.9148L14476.2517,-4339.9002L14476.2146,-4339.8505L14476.1144,-4339.7158L14475.9402,-4339.4785L14475.8182,-4339.3121L14475.7408,-4339.2075L14475.5947,-4339.01L14475.5654,-4338.9723L14475.5462,-4338.9493L14475.5253,-4338.9273L14475.2964,-4338.713L14475.2217,-4338.6331L14475.0837,-4338.484L14474.9926,-4338.3866L14474.7277,-4338.1021L14474.7007,-4338.0706L14474.6884,-4338.0531L14474.6363,-4337.9661L14474.5998,-4337.8956L14474.5851,-4337.8672L14474.572,-4337.8432L14474.5616,-4337.8167L14474.5548,-4337.7896L14474.5512,-4337.7609L14474.5423,-4337.6599L14474.5166,-4337.3646L14474.5122,-4337.3329L14474.5049,-4337.3079L14474.4929,-4337.2881L14474.4767,-4337.2724L14474.452,-4337.2555L14474.4377,-4337.2477L14474.4106,-4337.2352L14474.383,-4337.2264L14474.3509,-4337.2217L14474.3208,-4337.2206L14474.199,-4337.2267L14474.1403,-4337.235L14474.0928,-4337.2356L14474.0195,-4337.2408L14473.9339,-4337.2442L14473.9,-4337.2453L14473.8622,-4337.2453L14473.8315,-4337.2429L14473.8014,-4337.2381L14473.7716,-4337.2315L14473.7416,-4337.2204L14473.7136,-4337.207L14473.6819,-4337.1896L14473.5448,-4337.0979L14473.3591,-4336.9713L14473.1581,-4336.8353L14473.1356,-4336.82L14472.8589,-4336.6321L14472.7695,-4336.5719L14472.7274,-4336.5444L14472.6784,-4336.5105L14472.6311,-4336.4772L14472.5691,-4336.4358L14472.516,-4336.4033L14472.4582,-4336.3699L14472.3941,-4336.3371L14472.3196,-4336.3022L14472.2362,-4336.2636L14472.0883,-4336.1944L14472.0089,-4336.1573L14471.903,-4336.1064L14471.846,-4336.0777L14471.8409,-4336.0752L14471.8249,-4336.0658L14471.7931,-4336.0465L14471.7654,-4336.0268L14471.6953,-4335.9772L14471.6637,-4335.9548L14471.5457,-4335.87L14471.4931,-4335.8299L14471.4723,-4335.8168L14471.451,-4335.8054L14471.3431,-4335.7562L14471.2259,-4335.7028L14471.1713,-4335.6778L14471.1406,-4335.6638L14471.1218,-4335.6497L14471.1052,-4335.6283L14471.0906,-4335.6044L14471.0526,-4335.5227L14471.0016,-4335.4109L14470.993,-4335.3921L14470.9851,-4335.3776L14470.9737,-4335.363L14470.9612,-4335.3499L14470.8368,-4335.2482L14470.7466,-4335.1721L14470.7172,-4335.1474L14470.7008,-4335.1341L14470.693,-4335.1242L14470.6901,-4335.1141L14470.6906,-4335.1018L14470.695,-4335.0806L14470.7104,-4335.0328L14470.7351,-4334.9636L14470.7425,-4334.9378L14470.7464,-4334.9143L14470.7459,-4334.8956L14470.7425,-4334.8799L14470.7347,-4334.8672L14470.7266,-4334.8596L14470.7146,-4334.8513L14470.7021,-4334.844L14470.6855,-4334.8362L14470.6076,-4334.8057L14470.5568,-4334.7857L14470.5162,-4334.768L14470.4844,-4334.7503L14470.4207,-4334.711L14470.3606,-4334.6744L14470.2604,-4334.6131L14469.9631,-4334.4281L14469.953,-4334.4214L14469.9444,-4334.4169L14469.9356,-4334.4136L14469.9199,-4334.4138L14469.8921,-4334.4175L14469.8595,-4334.4238L14469.8262,-4334.4326L14469.7877,-4334.4472L14469.7726,-4334.4552L14469.7557,-4334.4668L14469.7326,-4334.4848L14469.7071,-4334.5124L14469.6,-4334.6654L14469.5106,-4334.8023L14469.4913,-4334.8221L14469.4651,-4334.8533L14469.5537,-4334.8966L14469.5986,-4334.9232L14469.6225,-4334.9419L14469.6423,-4334.9637L14469.6517,-4334.9841L14469.6553,-4335.0101L14469.6539,-4335.0361L14469.6485,-4335.0614L14469.6393,-4335.0839L14469.6231,-4335.1133L14469.5991,-4335.1512L14469.5949,-4335.1606L14469.5918,-4335.176L14469.5939,-4335.1895L14469.5999,-4335.2038L14469.6115,-4335.2206L14469.6809,-4335.2926L14469.824,-4335.4445L14469.843,-4335.4642L14469.8675,-4335.4905L14469.8781,-4335.5024L14469.9128,-4335.5446L14469.9212,-4335.5561L14469.9274,-4335.5676L14469.9342,-4335.5843L14469.943,-4335.6074L14469.9566,-4335.6361L14469.9719,-4335.6616L14470.033,-4335.7539L14470.0662,-4335.8105L14470.0803,-4335.8434L14470.0945,-4335.8911L14470.0948,-4335.8923L14470.1339,-4336.0251L14470.1391,-4336.0486L14470.1401,-4336.0694L14470.1216,-4336.1634L14470.1136,-4336.2027L14470.1115,-4336.2222L14470.1146,-4336.2363L14470.1219,-4336.2503L14470.1378,-4336.2664L14470.2711,-4336.3688L14470.3428,-4336.425L14470.3994,-4336.4662L14470.4153,-4336.4816L14470.4252,-4336.4977L14470.4278,-4336.5115L14470.4263,-4336.5284L14470.4213,-4336.5438L14470.4138,-4336.5566L14470.4013,-4336.5704L14470.3802,-4336.5868L14470.3034,-4336.6405L14470.2156,-4336.7012L14469.8472,-4336.9606L14469.464,-4337.2291L14469.4611,-4337.2311L14469.0373,-4337.5298L14468.6246,-4337.8179L14468.3829,-4337.9866L14468.1327,-4338.1633L14468.0023,-4338.2537L14467.5846,-4338.5446L14467.3954,-4338.6778L14467.3738,-4338.701L14466.9773,-4338.9726L14466.5556,-4339.2661L14466.402,-4339.373L14466.0695,-4339.6066L14465.762,-4339.8209L14465.5618,-4339.9609L14465.4129,-4340.065L14465.2418,-4340.1854L14465.0607,-4340.3131L14464.9181,-4340.4121L14464.4275,-4340.7531L14464.4003,-4340.7721L14464.3706,-4340.7434L14464.3144,-4340.6842L14464.2868,-4340.6587L14464.2649,-4340.6405L14464.2391,-4340.6228L14464.1899,-4340.5977L14464.008,-4340.5054L14463.83,-4340.4149L14463.7175,-4340.3598L14463.6389,-4340.3204L14463.6098,-4340.304L14463.5822,-4340.2843L14463.5626,-4340.2652L14463.5418,-4340.2371L14463.527,-4340.2072L14463.5171,-4340.1797L14463.5108,-4340.1546L14463.5093,-4340.1254L14463.5125,-4340.0959L14463.5212,-4340.0728L14463.5333,-4340.0515L14463.5452,-4340.0364L14463.5657,-4340.0104L14463.6636,-4339.9035L14463.6813,-4339.8782L14463.6916,-4339.8578L14463.6978,-4339.8322L14463.6999,-4339.8067L14463.6994,-4339.7818L14463.6968,-4339.7593L14463.6926,-4339.7374L14463.6807,-4339.713L14463.6609,-4339.6859L14463.5102,-4339.512L14463.4896,-4339.4911L14463.4694,-4339.4766L14463.4494,-4339.4642L14463.4263,-4339.4529L14463.4021,-4339.4427L14463.3718,-4339.4312L14463.2667,-4339.3911L14463.2396,-4339.3776L14463.2135,-4339.3614L14463.2072,-4339.3567L14463.1875,-4339.3422L14463.1651,-4339.3208L14463.1417,-4339.2943L14463.118,-4339.2622L14463.0926,-4339.2212L14463.0664,-4339.1745L14462.93,-4338.9359L14462.8183,-4338.7424L14462.752,-4338.6305L14462.7287,-4338.5886L14462.7084,-4338.5475L14462.6959,-4338.5173L14462.6876,-4338.4814L14462.6816,-4338.4523L14462.6808,-4338.3928L14462.6798,-4338.3085L14462.6767,-4338.2616L14462.6697,-4338.2298L14462.6696,-4338.2199L14462.6579,-4338.1824L14462.635,-4338.1116L14462.6017,-4338.0123L14462.5809,-4337.9523L14462.5706,-4337.9128L14462.5601,-4337.8773L14462.5501,-4337.825L14462.5309,-4337.6905L14462.4986,-4337.4607L14462.4754,-4337.2236L14462.4638,-4337.1112L14462.4601,-4337.0745L14462.4331,-4336.8524L14462.4102,-4336.6878L14462.3961,-4336.6003L14462.3838,-4336.5401L14462.3638,-4336.4358L14462.3477,-4336.3759L14462.3279,-4336.3176L14462.3096,-4336.2733L14462.2919,-4336.2395L14462.2753,-4336.2067L14462.2664,-4336.176L14462.2644,-4336.1499L14462.2618,-4336.126L14462.2728,-4336.0851L14462.2867,-4336.0434L14462.3553,-4335.8645L14462.3977,-4335.7546L14462.4262,-4335.68L14462.4462,-4335.6384L14462.4696,-4335.5994L14462.5094,-4335.5417L14462.568,-4335.4494L14462.6081,-4335.3819L14462.635,-4335.3329L14462.6614,-4335.2831L14462.6651,-4335.2761L14462.6944,-4335.2142L14462.7129,-4335.1704L14462.73,-4335.1204L14462.743,-4335.0629L14462.8601,-4334.6045L14462.8886,-4334.4751L14462.905,-4334.3881L14462.9108,-4334.3587L14462.9144,-4334.3246L14462.9136,-4334.2978L14462.9108,-4334.2741L14462.9035,-4334.2449L14462.8925,-4334.2184L14462.8831,-4334.1983L14462.8768,-4334.1866L14462.8681,-4334.1756L14462.8572,-4334.1643L14462.8477,-4334.1543L14462.8274,-4334.1356L14462.8076,-4334.121L14462.6968,-4334.0515L14462.4463,-4333.8956L14462.3276,-4333.8203L14462.2317,-4333.759L14462.2077,-4333.7408L14462.1874,-4333.7184L14462.1572,-4333.6846L14462.1011,-4333.6262L14462.0702,-4333.5968L14462.0581,-4333.5857L14462.008,-4333.5152L14461.9923,-4333.4965L14461.9791,-4333.4848L14461.9595,-4333.4686L14461.9226,-4333.4445L14461.8694,-4333.4169L14461.8192,-4333.3954L14461.7955,-4333.3866L14461.7694,-4333.3814L14461.5685,-4333.3679L14461.5439,-4333.3642L14461.5267,-4333.3595L14461.5119,-4333.3525L14461.4954,-4333.3432L14461.4293,-4333.2926L14461.1873,-4333.0981L14461.0887,-4333.0101L14460.856,-4332.8323L14460.8247,-4332.8046L14460.7753,-4332.7655L14460.7636,-4332.7538L14460.7528,-4332.7408L14460.7425,-4332.7265L14460.7305,-4332.7053L14460.7245,-4332.6926L14460.7198,-4332.6801L14460.7157,-4332.664L14460.7141,-4332.6499L14460.7158,-4332.6321L14460.7187,-4332.6214L14460.7226,-4332.6104L14460.7288,-4332.5971L14460.7359,-4332.5875L14460.7527,-4332.5643L14460.7723,-4332.5373L14460.8659,-4332.4027L14461.1784,-4331.9555L14461.1952,-4331.9256L14461.2109,-4331.8943L14461.2251,-4331.8638L14461.2392,-4331.8289L14461.2501,-4331.8016L14461.2586,-4331.7743L14461.2639,-4331.7513L14461.2666,-4331.7352L14461.2716,-4331.7063L14461.2846,-4331.5887L14461.3008,-4331.4436L14461.3131,-4331.3401L14461.3255,-4331.2282L14461.3256,-4331.1897L14461.3241,-4331.16L14461.3208,-4331.1371L14461.3131,-4331.1118L14461.1777,-4330.7827L14461.1631,-4330.745L14461.1246,-4330.6926L14461.0761,-4330.6269L14461.0215,-4330.547L14460.9407,-4330.4178L14460.8953,-4330.3462L14460.8714,-4330.2995L14460.8529,-4330.2674L14460.8314,-4330.2263L14460.7979,-4330.1581L14460.7937,-4330.1498L14460.7537,-4330.0677L14460.7267,-4330.0047L14460.7155,-4329.9767L14460.6735,-4329.8768L14460.7286,-4329.8656L14460.7475,-4329.8616L14460.7229,-4329.808"/>
<path content="1,阿寒バス（株）,JR標津代替線,11.3,6.0,6.0," xlink:title="1" d="M14476.4639,-4341.6207L14476.5211,-4341.6022L14476.578,-4341.5864L14476.6335,-4341.5696L14476.6874,-4341.5539L14476.7422,-4341.5375L14476.7977,-4341.5212L14476.823,-4341.5144L14476.8658,-4341.501L14476.8701,-4341.4998L14476.915,-4341.4864L14476.9518,-4341.4756L14477.0543,-4341.4453L14477.0565,-4341.4447L14477.2871,-4341.3772L14477.2986,-4341.3738L14477.3212,-4341.3673L14477.3449,-4341.3626L14477.3694,-4341.3589L14477.3996,-4341.3569L14477.4266,-4341.3575L14477.4551,-4341.3589L14477.4874,-4341.3626L14477.5337,-4341.3671L14477.5559,-4341.3678L14477.5806,-4341.366L14477.6012,-4341.3631L14477.6246,-4341.3581L14478.057,-4341.2433L14478.121,-4341.227L14478.1595,-4341.2197L14478.2088,-4341.2141L14478.4863,-4341.2118L14478.5364,-4341.2073L14478.5673,-4341.2035L14478.615,-4341.1961L14478.6851,-4341.1854L14478.7053,-4341.1845L14478.7273,-4341.1861L14478.7407,-4341.1881L14478.7542,-4341.1918L14478.8153,-4341.2213L14478.8775,-4341.2496L14478.9603,-4341.2894L14478.9667,-4341.2932L14478.9726,-4341.2974L14478.978,-4341.3024L14478.9849,-4341.3097L14479.0404,-4341.393L14479.0448,-4341.3991L14479.0503,-4341.4038L14479.0828,-4341.4239L14479.4498,-4341.6642L14479.8111,-4341.9032L14479.8339,-4341.9184L14480.3834,-4342.2829L14480.4675,-4342.3386L14480.4392,-4342.3678L14480.1086,-4342.6288L14479.9985,-4342.7174L14479.9956,-4342.7192L14479.5329,-4343.091L14479.5296,-4343.0936L14479.0674,-4343.4636L14478.7757,-4343.6964L14478.5977,-4343.84L14478.1428,-4344.206L14477.838,-4344.4506L14477.8338,-4344.4542L14477.5408,-4344.6897L14477.2217,-4344.9457L14476.7512,-4345.3209L14476.5996,-4345.4426L14475.8111,-4346.0763L14475.7776,-4346.1055L14475.3672,-4346.4303L14475.0061,-4346.7214L14474.8711,-4346.8306L14475.0474,-4346.8873L14475.5363,-4347.0444L14476.0773,-4347.2204L14476.1933,-4347.2579L14476.6716,-4347.4139L14476.8592,-4347.4745L14476.9473,-4347.5029L14476.9816,-4347.5154L14477.0128,-4347.5269L14477.1022,-4347.5653L14477.2635,-4347.6339L14477.4573,-4347.7166L14477.5391,-4347.7526L14477.7837,-4347.8572L14478.0419,-4347.9733L14478.0803,-4347.9861L14478.4655,-4348.1531L14478.5989,-4348.2109L14478.6345,-4348.2263L14478.8333,-4348.3123L14478.8822,-4348.3331L14478.8999,-4348.3409L14478.9241,-4348.3503L14478.958,-4348.3633L14478.991,-4348.3742L14479.0139,-4348.3815L14479.0384,-4348.3883L14479.0622,-4348.3935L14479.0929,-4348.4005L14479.1176,-4348.406L14479.1436,-4348.4113L14479.1702,-4348.4159L14479.3181,-4348.4377L14479.3381,-4348.4445L14479.3651,-4348.4451L14479.6576,-4348.4907L14479.9818,-4348.5404L14479.9956,-4348.5428L14480.0063,-4348.5454L14480.0979,-4348.5675L14480.1156,-4348.5785L14480.2672,-4348.6173L14480.6255,-4348.7277L14480.7079,-4348.7534L14480.7635,-4348.7703L14480.8308,-4348.7954L14480.8839,-4348.8086L14480.904,-4348.8136L14481.046,-4348.8575L14481.259,-4348.9233L14481.3608,-4348.9548L14481.4102,-4348.97L14481.4612,-4348.9862L14481.5034,-4349.0033L14481.5693,-4349.0194L14481.7931,-4349.0881L14481.871,-4349.1123L14481.9458,-4349.1419L14482.1488,-4349.1984L14482.3899,-4349.2727L14482.4466,-4349.2904L14482.5112,-4349.3096L14482.5805,-4349.3289L14482.6857,-4349.357L14482.8284,-4349.3912L14482.9376,-4349.4194L14483.1104,-4349.4615L14483.2656,-4349.5048L14483.4114,-4349.5479L14483.489,-4349.5724L14483.5272,-4349.5843L14483.5596,-4349.595L14483.6252,-4349.6146L14483.7416,-4349.6493L14483.7999,-4349.6701L14483.8314,-4349.6813L14483.8611,-4349.6928L14483.8961,-4349.7086L14483.927,-4349.7238L14483.9896,-4349.756L14484.375,-4349.9496"/>
<path content="1,阿寒バス（株）,JR標津代替線,11.3,6.0,6.0," xlink:title="1" d="M14476.3668,-4341.6517L14476.4087,-4341.6359L14476.4639,-4341.6207"/>
<path content="1,阿寒バス（株）,俣落線,3.0,3.0,0.0," xlink:title="1" d="M14484.375,-4357.5996L14484.186,-4357.6522L14483.9649,-4357.7084L14483.4483,-4357.8493L14483.4343,-4357.8513L14483.4282,-4357.8508L14483.4187,-4357.8484L14483.4096,-4357.844L14483.3989,-4357.8373L14483.3526,-4357.8061L14483.1928,-4357.6994L14482.9109,-4357.5123L14482.719,-4357.3857L14482.573,-4357.2893L14482.4235,-4357.1926L14482.4038,-4357.1779L14482.5406,-4357.0672L14482.5413,-4357.0666L14482.6889,-4356.9491L14482.774,-4356.8821L14482.9404,-4356.7497L14483.0785,-4356.6403L14483.3088,-4356.4563L14483.333,-4356.4368L14483.4332,-4356.3573L14483.6194,-4356.2088L14483.7462,-4356.1081L14483.7951,-4356.0686L14483.9321,-4355.9599L14484.1226,-4355.8089L14484.3127,-4355.6582L14484.375,-4355.6083M14484.375,-4355.0987L14484.3042,-4355.0518L14484.2417,-4355.0108L14484.1371,-4354.9416L14483.9894,-4354.844L14483.9296,-4354.8041L14483.8614,-4354.7593L14483.8096,-4354.7249L14483.7382,-4354.6781L14483.6915,-4354.6521L14483.5557,-4354.7632L14483.2316,-4355.0231L14482.9224,-4355.2711L14482.7665,-4355.3962L14482.461,-4355.6396L14482.3122,-4355.766L14482.2508,-4355.8117L14482.2037,-4355.8516L14482.1766,-4355.8781L14482.1742,-4355.8809L14482.1581,-4355.9L14482.1279,-4355.9456L14482.1117,-4355.9669L14482.097,-4355.9838L14482.0823,-4355.9962L14482.0576,-4356.0102L14481.9842,-4356.044L14481.9548,-4356.0581L14481.927,-4356.0744L14481.8698,-4356.116L14481.4447,-4356.4563L14481.3853,-4356.5043L14481.2124,-4356.6436L14481.1939,-4356.6567L14481.1393,-4356.7009L14481.0977,-4356.7336L14480.7901,-4356.9799L14480.5266,-4357.1914L14480.3493,-4357.3333L14480.2236,-4357.4338L14479.9052,-4357.6898L14479.8712,-4357.7179L14479.8279,-4357.7607L14479.8109,-4357.7837L14479.7961,-4357.8154L14479.7476,-4357.9491L14479.682,-4358.1262L14479.6529,-4358.2002L14479.5835,-4358.3491L14479.5761,-4358.3732L14479.8648,-4358.4272L14479.9227,-4358.4382L14479.9914,-4358.4528L14480.0794,-4358.4705L14480.1741,-4358.4896L14480.2377,-4358.5023L14480.3017,-4358.5152L14480.3302,-4358.5225L14480.3591,-4358.5308L14480.4049,-4358.5455L14480.457,-4358.5645L14480.5034,-4358.583L14480.9329,-4358.7515L14481.1421,-4358.8351L14481.4106,-4358.9402L14481.5902,-4359.0111L14481.8478,-4359.1128L14481.8529,-4359.115L14482.0646,-4359.2176L14482.2936,-4359.3323L14482.3806,-4359.375M14482.6982,-4359.375L14482.7216,-4359.3661L14482.939,-4359.2801L14482.9762,-4359.266L14483.0001,-4359.2587L14483.0254,-4359.2531L14483.0497,-4359.2497L14483.2365,-4359.2417L14483.2703,-4359.2401L14483.298,-4359.2386L14483.4521,-4359.2311L14483.5177,-4359.2263L14483.5427,-4359.2215L14483.5688,-4359.2133L14483.5959,-4359.1998L14483.6175,-4359.1855L14483.7717,-4359.077L14483.7911,-4359.0652L14483.8128,-4359.0539L14483.8321,-4359.0471L14483.8677,-4359.0398L14483.9033,-4359.0359L14484.2475,-4358.9901L14484.375,-4358.9736"/>
<path content="1,阿寒バス（株）,釧路標津線,1.0,0.0,0.0," xlink:title="1" d="M14472.0275,-4324.2188L14472.031,-4324.2338L14472.0395,-4324.2652L14472.0656,-4324.3226L14472.1184,-4324.4072L14472.2816,-4324.6757L14472.3023,-4324.7097L14472.3177,-4324.7389L14472.327,-4324.7609L14472.3364,-4324.7885L14472.3385,-4324.813L14472.338,-4324.838L14472.3226,-4325.036L14472.3209,-4325.0652L14472.3077,-4325.2536L14472.2893,-4325.5169L14472.2854,-4325.5956L14472.2839,-4325.6342L14472.2878,-4325.6642L14472.3183,-4325.805L14472.3672,-4325.9997L14472.3787,-4326.0393L14472.3943,-4326.0685L14472.4141,-4326.0998L14472.4349,-4326.1289L14472.4617,-4326.1581L14472.5071,-4326.2048L14472.5394,-4326.2363L14472.5578,-4326.2612L14472.5717,-4326.2926L14472.584,-4326.3331L14472.5894,-4326.3625L14472.5932,-4326.3831L14472.5986,-4326.4557L14472.6156,-4326.6852L14472.6171,-4326.7364L14472.614,-4326.7871L14472.6109,-4326.8153L14472.6026,-4326.8434L14472.5921,-4326.8663L14472.5755,-4326.895L14472.5505,-4326.9283L14472.5232,-4326.9552L14472.4828,-4326.9918L14472.4172,-4327.0444L14472.3708,-4327.0756L14472.3354,-4327.0981L14472.3089,-4327.1147L14472.2693,-4327.1418L14472.2359,-4327.1689L14472.2161,-4327.1875L14472.2,-4327.2066L14472.1853,-4327.2314L14472.1746,-4327.2533L14472.1653,-4327.2831L14472.1594,-4327.311L14472.1345,-4327.4867L14472.1214,-4327.6116L14472.1161,-4327.6386L14472.1076,-4327.6673L14472.0958,-4327.6912L14472.0786,-4327.724L14471.9309,-4327.9822L14471.8893,-4328.055L14471.8829,-4328.0656L14471.8683,-4328.09L14471.7974,-4328.1898L14471.7512,-4328.2427L14471.6419,-4328.3763L14471.6218,-4328.3989L14471.6092,-4328.4175L14471.5967,-4328.4397L14471.5896,-4328.4613L14471.5831,-4328.5091L14471.5526,-4328.7849L14471.5526,-4328.8457L14471.5565,-4328.8704L14471.5657,-4328.9031L14471.5735,-4328.9183L14471.578,-4328.9273L14471.598,-4328.9582L14471.6434,-4329.0133L14471.8682,-4329.2727L14471.8941,-4329.2993L14471.9275,-4329.3253L14472.1858,-4329.4956L14472.3353,-4329.595L14472.3738,-4329.6186L14472.4261,-4329.6496L14472.4699,-4329.6726L14472.5134,-4329.6923L14472.5566,-4329.7042L14472.5925,-4329.7126L14472.6285,-4329.7173L14472.6585,-4329.7193L14472.6933,-4329.7201L14473.1607,-4329.7087L14473.2024,-4329.7113L14473.2461,-4329.7186L14473.293,-4329.73L14473.3373,-4329.7446L14473.3796,-4329.7632L14473.406,-4329.7811L14473.544,-4329.8988L14473.5496,-4329.9041L14473.5727,-4329.9243L14473.866,-4330.1812L14473.9091,-4330.2222L14473.9406,-4330.2582L14473.9637,-4330.2909L14473.9837,-4330.3177L14473.9978,-4330.3516L14474.0061,-4330.3826L14474.0122,-4330.4176L14474.0133,-4330.4504L14474.013,-4330.489L14473.9792,-4330.7002L14473.9768,-4330.7201L14473.9538,-4330.9023L14473.9522,-4330.9336L14473.9529,-4330.9647L14473.9575,-4330.994L14473.9653,-4331.0179L14473.976,-4331.0378L14473.9875,-4331.0558L14474.0043,-4331.0747L14474.022,-4331.0888L14474.0406,-4331.0986L14474.066,-4331.1087L14474.0976,-4331.1189L14474.2338,-4331.1521L14474.4654,-4331.2106L14474.6001,-4331.2442L14474.6601,-4331.2592L14474.764,-4331.2839L14474.8698,-4331.3102L14474.8923,-4331.3139L14474.8964,-4331.3149L14474.9318,-4331.3233L14475.0134,-4331.343L14475.0465,-4331.3509L14475.4228,-4331.4409L14475.666,-4331.4983L14475.8054,-4331.5312L14475.9639,-4331.5687L14476.1163,-4331.6047L14476.2636,-4331.6393L14476.322,-4331.6539L14476.3741,-4331.6682L14476.428,-4331.6846L14476.4896,-4331.7044L14476.5519,-4331.7245L14476.6481,-4331.7594L14476.737,-4331.795L14476.8359,-4331.8354L14476.8441,-4331.8391L14476.9047,-4331.8664L14476.9559,-4331.8933L14477.0059,-4331.9209L14477.1214,-4331.9912L14477.313,-4332.115L14477.48,-4332.2269L14477.6571,-4332.3456L14477.7216,-4332.3879L14477.7533,-4332.4103L14477.9061,-4332.5127L14477.9387,-4332.5347L14478.0349,-4332.5994L14478.0526,-4332.6118L14478.2804,-4332.7647L14478.4821,-4332.9004L14478.7746,-4333.0961L14478.8933,-4333.1762L14478.9219,-4333.1999L14479.0615,-4333.2887L14479.1863,-4333.3729L14479.3687,-4333.4944L14479.5004,-4333.5862L14479.6464,-4333.6818L14479.8036,-4333.7876L14480.1744,-4334.0356L14480.1782,-4334.0373L14480.2993,-4334.1193L14480.3283,-4334.1391L14480.3705,-4334.1663L14480.6059,-4334.3214L14480.6449,-4334.3515L14480.6882,-4334.3756L14481.1808,-4334.6961L14481.4178,-4334.8495L14481.6594,-4335.0246L14481.8856,-4335.1939L14482.0116,-4335.2828L14482.0456,-4335.3047L14482.4424,-4335.5438L14482.4879,-4335.5753L14482.6867,-4335.6923L14482.7694,-4335.7466L14482.9781,-4335.8836L14483.6253,-4336.3194L14483.6287,-4336.3218L14483.6711,-4336.3504L14483.9684,-4336.5508L14484.375,-4336.817"/>
<path content="1,阿寒バス（株）,釧路羅臼線,5.5,2.0,2.0," xlink:title="1" d="M14472.0275,-4324.2188L14472.031,-4324.2338L14472.0395,-4324.2652L14472.0656,-4324.3226L14472.1184,-4324.4072L14472.2816,-4324.6757L14472.3023,-4324.7097L14472.3177,-4324.7389L14472.327,-4324.7609L14472.3364,-4324.7885L14472.3385,-4324.813L14472.338,-4324.838L14472.3226,-4325.036L14472.3209,-4325.0652L14472.3077,-4325.2536L14472.2893,-4325.5169L14472.2854,-4325.5956L14472.2839,-4325.6342L14472.2878,-4325.6642L14472.3183,-4325.805L14472.3672,-4325.9997L14472.3787,-4326.0393L14472.3943,-4326.0685L14472.4141,-4326.0998L14472.4349,-4326.1289L14472.4617,-4326.1581L14472.5071,-4326.2048L14472.5394,-4326.2363L14472.5578,-4326.2612L14472.5717,-4326.2926L14472.584,-4326.3331L14472.5894,-4326.3625L14472.5932,-4326.3831L14472.5986,-4326.4557L14472.6156,-4326.6852L14472.6171,-4326.7364L14472.614,-4326.7871L14472.6109,-4326.8153L14472.6026,-4326.8434L14472.5921,-4326.8663L14472.5755,-4326.895L14472.5505,-4326.9283L14472.5232,-4326.9552L14472.4828,-4326.9918L14472.4172,-4327.0444L14472.3708,-4327.0756L14472.3354,-4327.0981L14472.3089,-4327.1147L14472.2693,-4327.1418L14472.2359,-4327.1689L14472.2161,-4327.1875L14472.2,-4327.2066L14472.1853,-4327.2314L14472.1746,-4327.2533L14472.1653,-4327.2831L14472.1594,-4327.311L14472.1345,-4327.4867L14472.1214,-4327.6116L14472.1161,-4327.6386L14472.1076,-4327.6673L14472.0958,-4327.6912L14472.0786,-4327.724L14471.9309,-4327.9822L14471.8893,-4328.055L14471.8829,-4328.0656L14471.8683,-4328.09L14471.7974,-4328.1898L14471.7512,-4328.2427L14471.6419,-4328.3763L14471.6218,-4328.3989L14471.6092,-4328.4175L14471.5967,-4328.4397L14471.5896,-4328.4613L14471.5831,-4328.5091L14471.5526,-4328.7849L14471.5526,-4328.8457L14471.5565,-4328.8704L14471.5657,-4328.9031L14471.5735,-4328.9183L14471.578,-4328.9273L14471.598,-4328.9582L14471.6434,-4329.0133L14471.8682,-4329.2727L14471.8941,-4329.2993L14471.9275,-4329.3253L14472.1858,-4329.4956L14472.3353,-4329.595L14472.3738,-4329.6186L14472.4261,-4329.6496L14472.4699,-4329.6726L14472.5134,-4329.6923L14472.5566,-4329.7042L14472.5925,-4329.7126L14472.6285,-4329.7173L14472.6585,-4329.7193L14472.6933,-4329.7201L14473.1607,-4329.7087L14473.2024,-4329.7113L14473.2461,-4329.7186L14473.293,-4329.73L14473.3373,-4329.7446L14473.3796,-4329.7632L14473.406,-4329.7811L14473.544,-4329.8988L14473.5496,-4329.9041L14473.5727,-4329.9243L14473.866,-4330.1812L14473.9091,-4330.2222L14473.9406,-4330.2582L14473.9637,-4330.2909L14473.9837,-4330.3177L14473.9978,-4330.3516L14474.0061,-4330.3826L14474.0122,-4330.4176L14474.0133,-4330.4504L14474.013,-4330.489L14473.9792,-4330.7002L14473.9768,-4330.7201L14473.9538,-4330.9023L14473.9522,-4330.9336L14473.9529,-4330.9647L14473.9575,-4330.994L14473.9653,-4331.0179L14473.976,-4331.0378L14473.9875,-4331.0558L14474.0043,-4331.0747L14474.022,-4331.0888L14474.0406,-4331.0986L14474.066,-4331.1087L14474.0976,-4331.1189L14474.2338,-4331.1521L14474.4654,-4331.2106L14474.6001,-4331.2442L14474.6601,-4331.2592L14474.764,-4331.2839L14474.8698,-4331.3102L14474.8923,-4331.3139L14474.8964,-4331.3149L14474.9318,-4331.3233L14475.0134,-4331.343L14475.0465,-4331.3509L14475.4228,-4331.4409L14475.666,-4331.4983L14475.8054,-4331.5312L14475.9639,-4331.5687L14476.1163,-4331.6047L14476.2636,-4331.6393L14476.322,-4331.6539L14476.3741,-4331.6682L14476.428,-4331.6846L14476.4896,-4331.7044L14476.5519,-4331.7245L14476.6481,-4331.7594L14476.737,-4331.795L14476.8359,-4331.8354L14476.8441,-4331.8391L14476.9047,-4331.8664L14476.9559,-4331.8933L14477.0059,-4331.9209L14477.1214,-4331.9912L14477.313,-4332.115L14477.48,-4332.2269L14477.6571,-4332.3456L14477.7216,-4332.3879L14477.7533,-4332.4103L14477.9061,-4332.5127L14477.9387,-4332.5347L14478.0349,-4332.5994L14478.0526,-4332.6118L14478.2804,-4332.7647L14478.4821,-4332.9004L14478.7746,-4333.0961L14478.8933,-4333.1762L14478.9219,-4333.1999L14479.0615,-4333.2887L14479.1863,-4333.3729L14479.3687,-4333.4944L14479.5004,-4333.5862L14479.6464,-4333.6818L14479.8036,-4333.7876L14480.1744,-4334.0356L14480.1782,-4334.0373L14480.2993,-4334.1193L14480.3283,-4334.1391L14480.3705,-4334.1663L14480.6059,-4334.3214L14480.6449,-4334.3515L14480.6882,-4334.3756L14481.1808,-4334.6961L14481.4178,-4334.8495L14481.6594,-4335.0246L14481.8856,-4335.1939L14482.0116,-4335.2828L14482.0456,-4335.3047L14482.4424,-4335.5438L14482.4879,-4335.5753L14482.6867,-4335.6923L14482.7694,-4335.7466L14482.9781,-4335.8836L14483.6253,-4336.3194L14483.6287,-4336.3218L14483.6711,-4336.3504L14483.9684,-4336.5508L14484.375,-4336.817"/>
<path content="1,阿寒バス（株）,養老牛線,3.0,0.0,0.0," xlink:title="1" d="M14481.6433,-4348.8956L14481.6094,-4348.8839L14481.4836,-4348.8451L14481.4102,-4348.97"/>
<path content="1,阿寒バス（株）,養老牛線,3.0,0.0,0.0," xlink:title="1" d="M14481.4102,-4348.97L14481.4612,-4348.9862L14481.5034,-4349.0033L14481.5693,-4349.0194L14481.7931,-4349.0881L14481.7678,-4349.126L14481.6587,-4349.2808L14481.6095,-4349.3489L14481.5946,-4349.3729L14481.5855,-4349.3903L14481.5811,-4349.4034L14481.5782,-4349.4148L14481.5774,-4349.4265L14481.5788,-4349.4396L14481.5821,-4349.4471L14481.5857,-4349.4549L14481.5909,-4349.4609L14481.5988,-4349.4679L14481.7178,-4349.5541L14481.7058,-4349.5575L14481.6959,-4349.5606L14481.687,-4349.5653L14481.6771,-4349.5718L14481.651,-4349.5932L14481.604,-4349.6312L14481.5719,-4349.6575L14481.4334,-4349.769L14480.9741,-4350.1377L14481.1326,-4350.2346L14481.1586,-4350.2508L14481.1868,-4350.2684L14481.3236,-4350.3571L14481.4125,-4350.4184L14481.4978,-4350.483L14481.5462,-4350.5248L14481.5826,-4350.5564L14481.6018,-4350.5776L14481.6111,-4350.5911L14481.6165,-4350.6085L14481.6165,-4350.6344L14481.6096,-4350.6626L14481.5964,-4350.7036L14481.5754,-4350.7658L14481.5001,-4350.9756L14481.4542,-4351.1058L14481.4336,-4351.1626L14481.429,-4351.1866L14481.4287,-4351.2071L14481.4315,-4351.2254L14481.407,-4351.229L14481.3452,-4351.2307L14481.3042,-4351.2313L14481.2641,-4351.2335L14481.2548,-4351.2374L14481.2502,-4351.2436L14481.2378,-4351.274L14481.222,-4351.3199L14481.1566,-4351.3325L14481.0724,-4351.3494L14481.0608,-4351.3509L14481.05,-4351.3499L14481.0376,-4351.3462L14481.0253,-4351.3387L14480.9812,-4351.3066L14480.9665,-4351.2988L14480.9526,-4351.2948L14480.9395,-4351.2959L14480.9105,-4351.3001L14480.8947,-4351.3032L14480.8764,-4351.3043L14480.7416,-4351.3044L14480.6752,-4351.3077L14480.5551,-4351.3162L14480.5384,-4351.3184L14480.526,-4351.3241L14480.4912,-4351.3539L14480.4733,-4351.3688L14480.4549,-4351.3803L14480.3764,-4351.4211L14480.3683,-4351.4253L14480.3243,-4351.4495L14480.2887,-4351.4731L14480.2756,-4351.4855L14480.2687,-4351.4979L14480.2632,-4351.5164L14480.254,-4351.5682L14480.254,-4351.589L14480.2601,-4351.6025L14480.2934,-4351.6475L14480.3042,-4351.6649L14480.315,-4351.6852L14480.3227,-4351.7105L14480.3227,-4351.7352L14480.3189,-4351.7487L14480.3137,-4351.7586L14480.305,-4351.7707L14480.2818,-4351.7937L14480.2184,-4351.8472L14479.8823,-4352.1253L14479.9101,-4352.1419"/>
<path content="1,阿寒バス（株）,養老牛線,3.0,0.0,0.0," xlink:title="1" d="M14481.4102,-4348.97L14481.3608,-4348.9548L14481.259,-4348.9233L14481.046,-4348.8575L14480.904,-4348.8136L14480.8839,-4348.8086L14480.8308,-4348.7954L14480.7635,-4348.7703L14480.7079,-4348.7534L14480.6255,-4348.7277L14480.2672,-4348.6173L14480.1156,-4348.5785L14480.0979,-4348.5675L14480.0063,-4348.5454L14479.9956,-4348.5428L14479.9818,-4348.5404L14479.6576,-4348.4907L14479.3651,-4348.4451L14479.2308,-4348.5536L14478.9295,-4348.7945L14478.7934,-4348.9032L14478.3833,-4349.2309L14478.0036,-4349.5358L14478.0009,-4349.5374L14477.6424,-4349.8243L14477.5408,-4349.9048L14477.1094,-4350.2507L14477.0821,-4350.2784L14477.0418,-4350.2507L14476.8096,-4350.1005L14476.5652,-4349.9426L14476.2119,-4350.2223L14476.1799,-4350.2506L14476.1601,-4350.2682L14476.1512,-4350.2752L14475.6981,-4350.632L14475.6727,-4350.6539L14475.3565,-4350.9037L14475.1795,-4351.046L14475.0087,-4351.1849L14474.9091,-4351.2676L14474.8455,-4351.3201L14474.7449,-4351.3961L14474.7405,-4351.4021L14474.6733,-4351.4532L14474.5991,-4351.5111L14474.5761,-4351.5291L14474.4152,-4351.6547L14474.0457,-4351.9478L14473.7818,-4352.1604L14474.0078,-4352.3055L14474.2188,-4352.4417L14474.2987,-4352.5006L14474.1655,-4352.6043L14474.1638,-4352.6056L14474.0016,-4352.7353L14473.6283,-4353.0335L14473.3733,-4353.2374L14473.1847,-4353.3879L14472.9152,-4353.6044L14472.7055,-4353.7687L14472.4458,-4353.9742L14472.3021,-4354.0893L14471.9862,-4354.3449L14472.6927,-4354.8106L14472.7704,-4354.8639L14473.0062,-4355.0181L14473.0548,-4355.0512L14473.2851,-4355.2031L14473.3385,-4355.2307L14473.3508,-4355.2363L14473.4389,-4355.2791L14473.4953,-4355.3072L14473.5517,-4355.3308L14473.5912,-4355.346L14473.6059,-4355.3511L14473.6283,-4355.3634L14473.6584,-4355.3923L14473.7697,-4355.4771L14473.8794,-4355.5643L14473.9012,-4355.5816L14473.928,-4355.6016L14474.0232,-4355.6779L14474.1179,-4355.7479L14474.1593,-4355.7829L14474.2717,-4355.8671L14474.3191,-4355.9013L14474.3702,-4355.9396L14474.4327,-4355.9828L14474.5194,-4356.0435L14474.599,-4356.0988L14474.6285,-4356.1193L14474.754,-4356.207L14474.8645,-4356.2836L14474.922,-4356.3228L14475.0145,-4356.3862"/>
<path content="1,阿寒バス（株）,養老牛線,3.0,0.0,0.0," xlink:title="1" d="M14479.9101,-4352.1419L14479.8505,-4352.1892L14479.8382,-4352.2021L14479.8297,-4352.2134L14479.7168,-4352.4501L14479.6171,-4352.6598L14479.5978,-4352.6999L14479.5893,-4352.7168L14479.5692,-4352.7432L14479.546,-4352.7652L14479.4571,-4352.8366L14479.3673,-4352.9086L14479.2132,-4353.0321L14479.1364,-4353.0948L14479.0934,-4353.1353L14478.7453,-4353.405L14478.4297,-4353.6575L14478.2754,-4353.781L14478.1216,-4353.9041L14477.9926,-4354.0071L14477.8202,-4354.1449L14477.6309,-4354.2962L14477.2954,-4354.5651L14477.0899,-4354.7265L14477.0283,-4354.7756L14476.8845,-4354.9022L14476.7547,-4354.9953L14476.6942,-4355.0443L14476.2189,-4355.4228L14475.9632,-4355.6319L14475.7351,-4355.8115L14475.5812,-4355.9352L14475.3772,-4356.0961L14475.2172,-4356.2243L14475.1735,-4356.2591L14475.1253,-4356.2974L14475.027,-4356.39L14475.0145,-4356.3862"/>
<path content="1,阿寒バス（株）,養老牛線,3.0,0.0,0.0," xlink:title="1" d="M14475.0145,-4356.3862L14474.9614,-4356.4279L14474.6863,-4356.6496L14474.6215,-4356.7028L14474.599,-4356.7208L14474.5008,-4356.7991L14474.4459,-4356.8429L14474.3858,-4356.8903L14474.3785,-4356.8955L14474.3704,-4356.9004L14474.3606,-4356.9054L14473.7337,-4357.2212L14473.7159,-4357.2301L14473.4745,-4357.3498L14473.3549,-4357.4126L14473.3429,-4357.4194L14473.3333,-4357.4267L14473.3239,-4357.4347L14473.2449,-4357.5095L14473.1993,-4357.5539L14472.9451,-4357.7992L14472.9097,-4357.8336L14472.8539,-4357.8881L14472.4613,-4358.2655L14472.42,-4358.3061L14472.4109,-4358.3168L14472.4054,-4358.3269L14472.402,-4358.3345L14472.3994,-4358.342L14472.384,-4358.4472L14472.3804,-4358.4847L14472.3762,-4358.5096L14472.3565,-4358.5828L14472.3505,-4358.6058L14472.3419,-4358.6339L14472.3314,-4358.6683L14472.3252,-4358.6915L14472.3203,-4358.7131L14472.3171,-4358.7344L14472.3156,-4358.7659L14472.3157,-4358.779L14472.3217,-4358.8123L14472.327,-4358.8365"/>
<path content="1,阿寒バス（株）,養老牛線,3.0,0.0,0.0," xlink:title="1" d="M14481.3853,-4356.5043L14481.4447,-4356.4563L14481.8698,-4356.116L14481.927,-4356.0744L14481.9548,-4356.0581L14481.9842,-4356.044L14482.0576,-4356.0102L14482.0823,-4355.9962L14482.097,-4355.9838L14482.1117,-4355.9669L14482.1279,-4355.9456L14482.1581,-4355.9L14482.1742,-4355.8809L14482.1766,-4355.8781L14482.2037,-4355.8516L14482.2508,-4355.8117L14482.3122,-4355.766L14482.461,-4355.6396L14482.7665,-4355.3962L14482.9224,-4355.2711L14483.2316,-4355.0231L14483.5557,-4354.7632L14483.6915,-4354.6521L14483.5384,-4354.5641L14483.487,-4354.5362L14483.4325,-4354.5124L14483.2584,-4354.4524L14483.1996,-4354.4315L14483.1079,-4354.401L14482.9772,-4354.356L14482.8553,-4354.3076L14482.7735,-4354.2711L14482.7192,-4354.2474L14482.3792,-4354.0995L14482.3066,-4354.0681L14482.2926,-4354.0608L14482.2751,-4354.0483L14482.2626,-4354.0404L14482.2502,-4354.0336L14482.2366,-4354.0267L14482.2226,-4354.0206L14482.2096,-4354.0162L14482.1958,-4354.0131L14482.1869,-4354.012L14482.1764,-4354.012L14482.1497,-4354.0144L14482.1164,-4354.0196L14482.0802,-4354.0279L14482.0411,-4354.0383L14482.0129,-4354.0456L14482.0017,-4354.0469L14481.9927,-4354.047L14481.9801,-4354.0462L14481.9702,-4354.0447L14481.9604,-4354.0421L14481.9489,-4354.0375L14481.9394,-4354.0334L14481.9288,-4354.0271L14481.8907,-4354.0033L14481.881,-4353.996L14481.8731,-4353.9894L14481.8674,-4353.9831L14481.8632,-4353.9774L14481.859,-4353.9687L14481.8575,-4353.9617L14481.8568,-4353.9536L14481.8575,-4353.9409L14481.8581,-4353.914L14481.8624,-4353.7358L14481.8624,-4353.7235L14481.8619,-4353.7147L14481.8602,-4353.7046L14481.8565,-4353.694L14481.8531,-4353.6856L14481.8479,-4353.6769L14481.8197,-4353.636L14481.7658,-4353.5546L14481.7577,-4353.5452L14481.7501,-4353.5381L14481.7414,-4353.5334L14481.7315,-4353.5291L14481.7076,-4353.5218L14481.6883,-4353.5156L14481.6805,-4353.5127L14481.6721,-4353.5083L14481.6647,-4353.5043L14481.6515,-4353.4967L14481.6373,-4353.4875L14481.5793,-4353.4475L14481.4703,-4353.3682L14481.4562,-4353.3571L14481.4484,-4353.3478L14481.4443,-4353.3387L14481.4435,-4353.3267L14481.4464,-4353.3173L14481.4533,-4353.308L14481.5268,-4353.2411L14481.5329,-4353.2345L14481.5358,-4353.2252L14481.5376,-4353.218L14481.534,-4353.2116L14481.5283,-4353.2056L14481.5205,-4353.1991L14481.5137,-4353.1949L14481.5074,-4353.191L14481.4572,-4353.1663L14481.438,-4353.1569L14481.4232,-4353.1488L14481.4114,-4353.1415L14481.1521,-4352.9684L14480.9626,-4352.8406L14480.7895,-4352.7258L14480.7238,-4352.6915L14480.6355,-4352.6492L14480.6238,-4352.645L14480.5978,-4352.6358L14480.5779,-4352.6307L14480.5535,-4352.626L14480.466,-4352.6109L14480.4379,-4352.6057L14480.4147,-4352.5981L14480.3978,-4352.5885L14480.3842,-4352.576L14480.3675,-4352.5565L14480.3042,-4352.4541L14480.29,-4352.4281L14480.2712,-4352.4015L14480.2489,-4352.3776L14480.2254,-4352.3557L14480.1952,-4352.3326L14479.9101,-4352.1419"/>
<path content="2,羅臼町,釧路羅臼線,4.0,2.0,2.0," xlink:title="2" d="M14484.375,-4336.817L14483.9684,-4336.5508L14483.6711,-4336.3504L14483.6287,-4336.3218L14483.6253,-4336.3194L14482.9781,-4335.8836L14482.7694,-4335.7466L14482.6867,-4335.6923L14482.4879,-4335.5753L14482.4424,-4335.5438L14482.0456,-4335.3047L14482.0116,-4335.2828L14481.8856,-4335.1939L14481.6594,-4335.0246L14481.4178,-4334.8495L14481.1808,-4334.6961L14480.6882,-4334.3756L14480.6449,-4334.3515L14480.6059,-4334.3214L14480.3705,-4334.1663L14480.3283,-4334.1391L14480.2993,-4334.1193L14480.1782,-4334.0373L14480.1744,-4334.0356L14479.8036,-4333.7876L14479.6464,-4333.6818L14479.5004,-4333.5862L14479.3687,-4333.4944L14479.1863,-4333.3729L14479.0615,-4333.2887L14478.9219,-4333.1999L14478.8933,-4333.1762L14478.7746,-4333.0961L14478.4821,-4332.9004L14478.2804,-4332.7647L14478.0526,-4332.6118L14478.0349,-4332.5994L14477.9387,-4332.5347L14477.9061,-4332.5127L14477.7533,-4332.4103L14477.7216,-4332.3879L14477.6571,-4332.3456L14477.48,-4332.2269L14477.313,-4332.115L14477.1214,-4331.9912L14477.0059,-4331.9209L14476.9559,-4331.8933L14476.9047,-4331.8664L14476.8441,-4331.8391L14476.8359,-4331.8354L14476.737,-4331.795L14476.6481,-4331.7594L14476.5519,-4331.7245L14476.4896,-4331.7044L14476.428,-4331.6846L14476.3741,-4331.6682L14476.322,-4331.6539L14476.2636,-4331.6393L14476.1163,-4331.6047L14475.9639,-4331.5687L14475.8054,-4331.5312L14475.666,-4331.4983L14475.4228,-4331.4409L14475.0465,-4331.3509L14475.0134,-4331.343L14474.9318,-4331.3233L14474.8964,-4331.3149L14474.8923,-4331.3139L14474.8698,-4331.3102L14474.764,-4331.2839L14474.6601,-4331.2592L14474.6001,-4331.2442L14474.4654,-4331.2106L14474.2338,-4331.1521L14474.0976,-4331.1189L14474.066,-4331.1087L14474.0406,-4331.0986L14474.022,-4331.0888L14474.0043,-4331.0747L14473.9875,-4331.0558L14473.976,-4331.0378L14473.9653,-4331.0179L14473.9575,-4330.994L14473.9529,-4330.9647L14473.9522,-4330.9336L14473.9538,-4330.9023L14473.9768,-4330.7201L14473.9792,-4330.7002L14474.013,-4330.489L14474.0133,-4330.4504L14474.0122,-4330.4176L14474.0061,-4330.3826L14473.9978,-4330.3516L14473.9837,-4330.3177L14473.9637,-4330.2909L14473.9406,-4330.2582L14473.9091,-4330.2222L14473.866,-4330.1812L14473.5727,-4329.9243L14473.5496,-4329.9041L14473.544,-4329.8988L14473.406,-4329.7811L14473.3796,-4329.7632L14473.3373,-4329.7446L14473.293,-4329.73L14473.2461,-4329.7186L14473.2024,-4329.7113L14473.1607,-4329.7087L14472.6933,-4329.7201L14472.6585,-4329.7193L14472.6285,-4329.7173L14472.5925,-4329.7126L14472.5566,-4329.7042L14472.5134,-4329.6923L14472.4699,-4329.6726L14472.4261,-4329.6496L14472.3738,-4329.6186L14472.3353,-4329.595L14472.1858,-4329.4956L14471.9275,-4329.3253L14471.8941,-4329.2993L14471.8682,-4329.2727L14471.6434,-4329.0133L14471.598,-4328.9582L14471.578,-4328.9273L14471.5735,-4328.9183L14471.5657,-4328.9031L14471.5565,-4328.8704L14471.5526,-4328.8457L14471.5526,-4328.7849L14471.5831,-4328.5091L14471.5896,-4328.4613L14471.5967,-4328.4397L14471.6092,-4328.4175L14471.6218,-4328.3989L14471.6419,-4328.3763L14471.7512,-4328.2427L14471.7974,-4328.1898L14471.8683,-4328.09L14471.8829,-4328.0656L14471.8893,-4328.055L14471.9309,-4327.9822L14472.0786,-4327.724L14472.0958,-4327.6912L14472.1076,-4327.6673L14472.1161,-4327.6386L14472.1214,-4327.6116L14472.1345,-4327.4867L14472.1594,-4327.311L14472.1653,-4327.2831L14472.1746,-4327.2533L14472.1853,-4327.2314L14472.2,-4327.2066L14472.2161,-4327.1875L14472.2359,-4327.1689L14472.2693,-4327.1418L14472.3089,-4327.1147L14472.3354,-4327.0981L14472.3708,-4327.0756L14472.4172,-4327.0444L14472.4828,-4326.9918L14472.5232,-4326.9552L14472.5505,-4326.9283L14472.5755,-4326.895L14472.5921,-4326.8663L14472.6026,-4326.8434L14472.6109,-4326.8153L14472.614,-4326.7871L14472.6171,-4326.7364L14472.6156,-4326.6852L14472.5986,-4326.4557L14472.5932,-4326.3831L14472.5894,-4326.3625L14472.584,-4326.3331L14472.5717,-4326.2926L14472.5578,-4326.2612L14472.5394,-4326.2363L14472.5071,-4326.2048L14472.4617,-4326.1581L14472.4349,-4326.1289L14472.4141,-4326.0998L14472.3943,-4326.0685L14472.3787,-4326.0393L14472.3672,-4325.9997L14472.3183,-4325.805L14472.2878,-4325.6642L14472.2839,-4325.6342L14472.2854,-4325.5956L14472.2893,-4325.5169L14472.3077,-4325.2536L14472.3209,-4325.0652L14472.3226,-4325.036L14472.338,-4324.838L14472.3385,-4324.813L14472.3364,-4324.7885L14472.327,-4324.7609L14472.3177,-4324.7389L14472.3023,-4324.7097L14472.2816,-4324.6757L14472.1184,-4324.4072L14472.0656,-4324.3226L14472.0395,-4324.2652L14472.031,-4324.2338L14472.0275,-4324.2188"/>
</g>
</svg>
