<?xml version="1.0" encoding="UTF-8"?>
<svg  xmlns="http://www.w3.org/2000/svg" xmlns:xlink="http://www.w3.org/1999/xlink" xmlns:go="http://purl.org/svgmap/profile" property="N07_001,N07_002,N07_003,N07_004,N07_005,N07_006,N07_007" viewBox="13069.3359375 -3279.4189453125 1.0986328125 1.0986328125" go:dataArea="13069.3359375 -3279.4189453125 1.0986328125 1.0986328125" >
<metadata>
 <rdf:RDF xmlns:rdf="http://www.w3.org/1999/02/22-rdf-syntax-ns#" xmlns:crs="http://opengis.org/xmldtds/transformations.dtd" xmlns:svg="http://www.w3.org/svg" >
  <rdf:Description>
   <crs:CoordinateReferenceSystem rdf:resource="http://purl.org/crs/84" svg:transform="matrix(100.0,0.0,0.0,-100.0,0.0,0.0)" />
  </rdf:Description>
 </rdf:RDF>
</metadata>
<globalCoordinateSystem srsName="http://purl.org/crs/84" transform="matrix(100.0,0.0,0.0,-100.0,0.0,0.0)" />
<defs>
 <g id="p0" >
  <circle cx="0.0" cy="0.0" r="3" stroke="green" stroke-width="0.75" vector-effect="non-scaling-stroke" />
 </g>
</defs>
<g fill="none" fill-rule="evenodd" stroke="#FF00FF" stroke-width="0.75" opacity="0.5" vector-effect="non-scaling-stroke" stroke-linejoin="bevel" >
<path content="1,九州産交バス（株）,九州横断バス,5.0,5.0,5.0," xlink:title="1" d="M13069.3359,-3279.2512L13069.3388,-3279.2509L13069.347,-3279.2514L13069.3581,-3279.252L13069.3723,-3279.251L13069.3848,-3279.2509L13069.3999,-3279.2515L13069.4113,-3279.2538L13069.4258,-3279.2653L13069.4394,-3279.2723L13069.453,-3279.2756L13069.4783,-3279.2814L13069.4888,-3279.2836L13069.5263,-3279.2959L13069.5406,-3279.306L13069.5508,-3279.3115L13069.5587,-3279.315L13069.566,-3279.3175L13069.5807,-3279.3195L13069.5862,-3279.328L13069.5879,-3279.3348L13069.5991,-3279.352L13069.6037,-3279.3627L13069.6093,-3279.3739L13069.6142,-3279.3831L13069.6336,-3279.4189"/>
<path content="1,九州産交バス（株）,交通センター～宇土本町線（野5）,3.0,3.0,1.0," xlink:title="1" d="M13069.6336,-3279.4189L13069.6142,-3279.3831L13069.6093,-3279.3739L13069.6037,-3279.3627L13069.5991,-3279.352L13069.5879,-3279.3348L13069.5862,-3279.328L13069.5807,-3279.3195L13069.566,-3279.3175L13069.5587,-3279.315L13069.5508,-3279.3115L13069.5406,-3279.306L13069.5263,-3279.2959L13069.4888,-3279.2836L13069.4783,-3279.2814L13069.453,-3279.2756L13069.4394,-3279.2723L13069.4258,-3279.2653L13069.4113,-3279.2538L13069.3999,-3279.2515L13069.3848,-3279.2509L13069.3723,-3279.251L13069.3581,-3279.252L13069.347,-3279.2514L13069.3388,-3279.2509L13069.3359,-3279.2512"/>
<path content="1,九州産交バス（株）,交通センター～宇土線（川9）,4.0,4.0,4.0," xlink:title="1" d="M13070.1633,-3279.4189L13070.236,-3279.354L13070.2621,-3279.3048L13070.274,-3279.2763L13070.294,-3279.2342L13070.3009,-3279.2147L13070.3178,-3279.1792L13070.2419,-3279.0696L13070.1372,-3278.9074L13070.05,-3278.7713L13069.9835,-3278.6635L13069.9589,-3278.629L13069.9399,-3278.5965L13069.8377,-3278.4346L13069.8175,-3278.4046L13069.8043,-3278.3818L13069.79,-3278.3545L13069.7805,-3278.3322L13069.776,-3278.3203"/>
<path content="1,九州産交バス（株）,京3,18.0,15.0,13.0," xlink:title="1" d="M13069.3359,-3279.2512L13069.3388,-3279.2509L13069.347,-3279.2514L13069.3581,-3279.252L13069.3723,-3279.251L13069.3848,-3279.2509L13069.3999,-3279.2515L13069.4113,-3279.2538L13069.4258,-3279.2653L13069.4394,-3279.2723L13069.453,-3279.2756L13069.4783,-3279.2814L13069.4888,-3279.2836L13069.5263,-3279.2959L13069.5406,-3279.306L13069.5508,-3279.3115L13069.5587,-3279.315L13069.566,-3279.3175L13069.5807,-3279.3195L13069.5862,-3279.328L13069.5879,-3279.3348L13069.5991,-3279.352L13069.6037,-3279.3627L13069.6093,-3279.3739L13069.6142,-3279.3831L13069.6336,-3279.4189"/>
<path content="1,九州産交バス（株）,京4_02_on,14.0,9.0,12.0," xlink:title="1" d="M13069.3359,-3279.2512L13069.3388,-3279.2509L13069.347,-3279.2514L13069.3581,-3279.252L13069.3723,-3279.251L13069.3848,-3279.2509L13069.3999,-3279.2515L13069.4113,-3279.2538L13069.4258,-3279.2653L13069.4394,-3279.2723L13069.453,-3279.2756L13069.4783,-3279.2814L13069.4888,-3279.2836L13069.5263,-3279.2959L13069.5406,-3279.306L13069.5508,-3279.3115L13069.5587,-3279.315L13069.566,-3279.3175L13069.5807,-3279.3195L13069.5862,-3279.328L13069.5879,-3279.3348L13069.5991,-3279.352L13069.6037,-3279.3627L13069.6093,-3279.3739L13069.6142,-3279.3831L13069.6336,-3279.4189"/>
<path content="1,九州産交バス（株）,京5,15.0,13.0,10.0," xlink:title="1" d="M13069.3359,-3279.2512L13069.3388,-3279.2509L13069.347,-3279.2514L13069.3581,-3279.252L13069.3723,-3279.251L13069.3848,-3279.2509L13069.3999,-3279.2515L13069.4113,-3279.2538L13069.4258,-3279.2653L13069.4394,-3279.2723L13069.453,-3279.2756L13069.4783,-3279.2814L13069.4888,-3279.2836L13069.5263,-3279.2959L13069.5406,-3279.306L13069.5508,-3279.3115L13069.5587,-3279.315L13069.566,-3279.3175L13069.5807,-3279.3195L13069.5862,-3279.328L13069.5879,-3279.3348L13069.5991,-3279.352L13069.6037,-3279.3627L13069.6093,-3279.3739L13069.6142,-3279.3831L13069.6336,-3279.4189"/>
<path content="1,九州産交バス（株）,京6,15.0,12.0,11.0," xlink:title="1" d="M13069.3359,-3279.2512L13069.3388,-3279.2509L13069.347,-3279.2514L13069.3581,-3279.252L13069.3723,-3279.251L13069.3848,-3279.2509L13069.3999,-3279.2515L13069.4113,-3279.2538L13069.4258,-3279.2653L13069.4394,-3279.2723L13069.453,-3279.2756L13069.4783,-3279.2814L13069.4888,-3279.2836L13069.5263,-3279.2959L13069.5406,-3279.306L13069.5508,-3279.3115L13069.5587,-3279.315L13069.566,-3279.3175L13069.5807,-3279.3195L13069.5862,-3279.328L13069.5879,-3279.3348L13069.5991,-3279.352L13069.6037,-3279.3627L13069.6093,-3279.3739L13069.6142,-3279.3831L13069.6336,-3279.4189"/>
<path content="1,九州産交バス（株）,京7,16.0,15.0,11.0," xlink:title="1" d="M13069.3359,-3279.2512L13069.3388,-3279.2509L13069.347,-3279.2514L13069.3581,-3279.252L13069.3723,-3279.251L13069.3848,-3279.2509L13069.3999,-3279.2515L13069.4113,-3279.2538L13069.4258,-3279.2653L13069.4394,-3279.2723L13069.453,-3279.2756L13069.4783,-3279.2814L13069.4888,-3279.2836L13069.5263,-3279.2959L13069.5406,-3279.306L13069.5508,-3279.3115L13069.5587,-3279.315L13069.566,-3279.3175L13069.5807,-3279.3195L13069.5862,-3279.328L13069.5879,-3279.3348L13069.5991,-3279.352L13069.6037,-3279.3627L13069.6093,-3279.3739L13069.6142,-3279.3831L13069.6336,-3279.4189"/>
<path content="1,九州産交バス（株）,京8,13.0,11.0,10.0," xlink:title="1" d="M13069.3359,-3279.2512L13069.3388,-3279.2509L13069.347,-3279.2514L13069.3581,-3279.252L13069.3723,-3279.251L13069.3848,-3279.2509L13069.3999,-3279.2515L13069.4113,-3279.2538L13069.4258,-3279.2653L13069.4394,-3279.2723L13069.453,-3279.2756L13069.4783,-3279.2814L13069.4888,-3279.2836L13069.5263,-3279.2959L13069.5406,-3279.306L13069.5508,-3279.3115L13069.5587,-3279.315L13069.566,-3279.3175L13069.5807,-3279.3195L13069.5862,-3279.328L13069.5879,-3279.3348L13069.5991,-3279.352L13069.6037,-3279.3627L13069.6093,-3279.3739L13069.6142,-3279.3831L13069.6336,-3279.4189"/>
<path content="1,九州産交バス（株）,子1,14.0,10.0,12.0," xlink:title="1" d="M13069.3359,-3279.2512L13069.3388,-3279.2509L13069.347,-3279.2514L13069.3581,-3279.252L13069.3723,-3279.251L13069.3848,-3279.2509L13069.3999,-3279.2515L13069.4113,-3279.2538L13069.4258,-3279.2653L13069.4394,-3279.2723L13069.453,-3279.2756L13069.4783,-3279.2814L13069.4888,-3279.2836L13069.5263,-3279.2959L13069.5406,-3279.306L13069.5508,-3279.3115L13069.5587,-3279.315L13069.566,-3279.3175L13069.5807,-3279.3195L13069.5862,-3279.328L13069.5879,-3279.3348L13069.5991,-3279.352L13069.6037,-3279.3627L13069.6093,-3279.3739L13069.6142,-3279.3831L13069.6336,-3279.4189"/>
<path content="1,九州産交バス（株）,子14,9.0,4.0,9.0," xlink:title="1" d="M13069.6336,-3279.4189L13069.6142,-3279.3831L13069.6093,-3279.3739L13069.6037,-3279.3627L13069.5991,-3279.352L13069.5879,-3279.3348L13069.5862,-3279.328L13069.5807,-3279.3195L13069.566,-3279.3175L13069.5587,-3279.315L13069.5508,-3279.3115L13069.5406,-3279.306L13069.5263,-3279.2959L13069.4888,-3279.2836L13069.4783,-3279.2814L13069.453,-3279.2756L13069.4394,-3279.2723L13069.4258,-3279.2653L13069.4113,-3279.2538L13069.3999,-3279.2515L13069.3848,-3279.2509L13069.3723,-3279.251L13069.3581,-3279.252L13069.347,-3279.2514L13069.3388,-3279.2509L13069.3359,-3279.2512"/>
<path content="1,九州産交バス（株）,子7,71.0,68.0,56.0," xlink:title="1" d="M13069.3359,-3279.2512L13069.3388,-3279.2509L13069.347,-3279.2514L13069.3581,-3279.252L13069.3723,-3279.251L13069.3848,-3279.2509L13069.3999,-3279.2515L13069.4113,-3279.2538L13069.4258,-3279.2653L13069.4394,-3279.2723L13069.453,-3279.2756L13069.4783,-3279.2814L13069.4888,-3279.2836L13069.5263,-3279.2959L13069.5406,-3279.306L13069.5508,-3279.3115L13069.5587,-3279.315L13069.566,-3279.3175L13069.5807,-3279.3195L13069.5862,-3279.328L13069.5879,-3279.3348L13069.5991,-3279.352L13069.6037,-3279.3627L13069.6093,-3279.3739L13069.6142,-3279.3831L13069.6336,-3279.4189"/>
<path content="1,九州産交バス（株）,川1,29.0,15.0,10.0," xlink:title="1" d="M13069.776,-3278.3203L13069.7805,-3278.3322L13069.79,-3278.3545L13069.8043,-3278.3818L13069.8175,-3278.4046L13069.8377,-3278.4346L13069.9399,-3278.5965L13069.9589,-3278.629L13069.9835,-3278.6635L13070.05,-3278.7713L13070.1372,-3278.9074L13070.2419,-3279.0696L13070.3178,-3279.1792L13070.3009,-3279.2147L13070.294,-3279.2342L13070.274,-3279.2763L13070.2621,-3279.3048L13070.236,-3279.354L13070.1633,-3279.4189"/>
<path content="1,九州産交バス（株）,川10,3.0,4.0,4.0," xlink:title="1" d="M13069.776,-3278.3203L13069.7805,-3278.3322L13069.79,-3278.3545L13069.8043,-3278.3818L13069.8175,-3278.4046L13069.8377,-3278.4346L13069.9399,-3278.5965L13069.9589,-3278.629L13069.9835,-3278.6635L13070.05,-3278.7713L13070.1372,-3278.9074L13070.2419,-3279.0696L13070.3178,-3279.1792L13070.3009,-3279.2147L13070.294,-3279.2342L13070.274,-3279.2763L13070.2621,-3279.3048L13070.236,-3279.354L13070.1633,-3279.4189"/>
<path content="1,九州産交バス（株）,川11,66.2,59.0,58.0," xlink:title="1" d="M13070.1633,-3279.4189L13070.236,-3279.354L13070.2621,-3279.3048L13070.274,-3279.2763L13070.294,-3279.2342L13070.3009,-3279.2147L13070.3178,-3279.1792L13070.2419,-3279.0696L13070.1372,-3278.9074L13070.05,-3278.7713L13069.9835,-3278.6635L13069.9589,-3278.629L13069.9399,-3278.5965L13069.8377,-3278.4346L13069.8175,-3278.4046L13069.8043,-3278.3818L13069.79,-3278.3545L13069.7805,-3278.3322L13069.776,-3278.3203"/>
<path content="1,九州産交バス（株）,川6,22.0,19.0,17.0," xlink:title="1" d="M13069.776,-3278.3203L13069.7805,-3278.3322L13069.79,-3278.3545L13069.8043,-3278.3818L13069.8175,-3278.4046L13069.8377,-3278.4346L13069.9399,-3278.5965L13069.9589,-3278.629L13069.9835,-3278.6635L13070.05,-3278.7713L13070.1372,-3278.9074L13070.2419,-3279.0696L13070.3178,-3279.1792L13070.3009,-3279.2147L13070.294,-3279.2342L13070.274,-3279.2763L13070.2621,-3279.3048L13070.236,-3279.354L13070.1633,-3279.4189"/>
<path content="1,九州産交バス（株）,川8,15.0,14.0,15.0," xlink:title="1" d="M13070.1633,-3279.4189L13070.236,-3279.354L13070.2621,-3279.3048L13070.274,-3279.2763L13070.294,-3279.2342L13070.3009,-3279.2147L13070.3178,-3279.1792L13070.2419,-3279.0696L13070.1372,-3278.9074L13070.05,-3278.7713L13069.9835,-3278.6635L13069.9589,-3278.629L13069.9399,-3278.5965L13069.8377,-3278.4346L13069.8175,-3278.4046L13069.8043,-3278.3818L13069.79,-3278.3545L13069.7805,-3278.3322L13069.776,-3278.3203"/>
<path content="1,九州産交バス（株）,川9,4.0,4.0,4.0," xlink:title="1" d="M13069.776,-3278.3203L13069.7805,-3278.3322L13069.79,-3278.3545L13069.8043,-3278.3818L13069.8175,-3278.4046L13069.8377,-3278.4346L13069.9399,-3278.5965L13069.9589,-3278.629L13069.9835,-3278.6635L13070.05,-3278.7713L13070.1372,-3278.9074L13070.2419,-3279.0696L13070.3178,-3279.1792L13070.3009,-3279.2147L13070.294,-3279.2342L13070.274,-3279.2763L13070.2621,-3279.3048L13070.236,-3279.354L13070.1633,-3279.4189"/>
<path content="1,九州産交バス（株）,川尻バイパス線（川8）,5.0,4.0,2.0," xlink:title="1" d="M13069.776,-3278.3203L13069.7805,-3278.3322L13069.79,-3278.3545L13069.8043,-3278.3818L13069.8175,-3278.4046L13069.8377,-3278.4346L13069.9399,-3278.5965L13069.9589,-3278.629L13069.9835,-3278.6635L13070.05,-3278.7713L13070.1372,-3278.9074L13070.2419,-3279.0696L13070.3178,-3279.1792L13070.3009,-3279.2147L13070.294,-3279.2342L13070.274,-3279.2763L13070.2621,-3279.3048L13070.236,-3279.354L13070.1633,-3279.4189"/>
<path content="1,九州産交バス（株）,新道経由（産交）,9.0,8.0,10.0," xlink:title="1" d="M13069.6336,-3279.4189L13069.6142,-3279.3831L13069.6093,-3279.3739L13069.6037,-3279.3627L13069.5991,-3279.352L13069.5879,-3279.3348L13069.5862,-3279.328L13069.5807,-3279.3195L13069.566,-3279.3175L13069.5587,-3279.315L13069.5508,-3279.3115L13069.5406,-3279.306L13069.5263,-3279.2959L13069.4888,-3279.2836L13069.4783,-3279.2814L13069.453,-3279.2756L13069.4394,-3279.2723L13069.4258,-3279.2653L13069.4113,-3279.2538L13069.3999,-3279.2515L13069.3848,-3279.2509L13069.3723,-3279.251L13069.3581,-3279.252L13069.347,-3279.2514L13069.3388,-3279.2509L13069.3359,-3279.2512"/>
<path content="1,九州産交バス（株）,日置経由（産交）,10.0,9.0,5.0," xlink:title="1" d="M13069.6336,-3279.4189L13069.6142,-3279.3831L13069.6093,-3279.3739L13069.6037,-3279.3627L13069.5991,-3279.352L13069.5879,-3279.3348L13069.5862,-3279.328L13069.5807,-3279.3195L13069.566,-3279.3175L13069.5587,-3279.315L13069.5508,-3279.3115L13069.5406,-3279.306L13069.5263,-3279.2959L13069.4888,-3279.2836L13069.4783,-3279.2814L13069.453,-3279.2756L13069.4394,-3279.2723L13069.4258,-3279.2653L13069.4113,-3279.2538L13069.3999,-3279.2515L13069.3848,-3279.2509L13069.3723,-3279.251L13069.3581,-3279.252L13069.347,-3279.2514L13069.3388,-3279.2509L13069.3359,-3279.2512"/>
<path content="1,九州産交バス（株）,来民バイパス経由（産交）,8.0,1.0,4.0," xlink:title="1" d="M13069.3359,-3279.2512L13069.3388,-3279.2509L13069.347,-3279.2514L13069.3581,-3279.252L13069.3723,-3279.251L13069.3848,-3279.2509L13069.3999,-3279.2515L13069.4113,-3279.2538L13069.4258,-3279.2653L13069.4394,-3279.2723L13069.453,-3279.2756L13069.4783,-3279.2814L13069.4888,-3279.2836L13069.5263,-3279.2959L13069.5406,-3279.306L13069.5508,-3279.3115L13069.5587,-3279.315L13069.566,-3279.3175L13069.5807,-3279.3195L13069.5862,-3279.328L13069.5879,-3279.3348L13069.5991,-3279.352L13069.6037,-3279.3627L13069.6093,-3279.3739L13069.6142,-3279.3831L13069.6336,-3279.4189"/>
<path content="1,九州産交バス（株）,来民中町経由（産交）,6.0,6.0,2.0," xlink:title="1" d="M13069.3359,-3279.2512L13069.3388,-3279.2509L13069.347,-3279.2514L13069.3581,-3279.252L13069.3723,-3279.251L13069.3848,-3279.2509L13069.3999,-3279.2515L13069.4113,-3279.2538L13069.4258,-3279.2653L13069.4394,-3279.2723L13069.453,-3279.2756L13069.4783,-3279.2814L13069.4888,-3279.2836L13069.5263,-3279.2959L13069.5406,-3279.306L13069.5508,-3279.3115L13069.5587,-3279.315L13069.566,-3279.3175L13069.5807,-3279.3195L13069.5862,-3279.328L13069.5879,-3279.3348L13069.5991,-3279.352L13069.6037,-3279.3627L13069.6093,-3279.3739L13069.6142,-3279.3831L13069.6336,-3279.4189"/>
<path content="1,九州産交バス（株）,東4,15.0,8.0,10.0," xlink:title="1" d="M13069.3359,-3279.2512L13069.3388,-3279.2509L13069.347,-3279.2514L13069.3581,-3279.252L13069.3723,-3279.251L13069.3848,-3279.2509L13069.3999,-3279.2515L13069.4113,-3279.2538L13069.4258,-3279.2653L13069.4394,-3279.2723L13069.453,-3279.2756L13069.4783,-3279.2814L13069.4888,-3279.2836L13069.5263,-3279.2959L13069.5406,-3279.306L13069.5508,-3279.3115L13069.5587,-3279.315L13069.566,-3279.3175L13069.5807,-3279.3195L13069.5862,-3279.328L13069.5879,-3279.3348L13069.5991,-3279.352L13069.6037,-3279.3627L13069.6093,-3279.3739L13069.6142,-3279.3831L13069.6336,-3279.4189"/>
<path content="1,九州産交バス（株）,東5,39.5,23.5,18.0," xlink:title="1" d="M13069.3359,-3279.2512L13069.3388,-3279.2509L13069.347,-3279.2514L13069.3581,-3279.252L13069.3723,-3279.251L13069.3848,-3279.2509L13069.3999,-3279.2515L13069.4113,-3279.2538L13069.4258,-3279.2653L13069.4394,-3279.2723L13069.453,-3279.2756L13069.4783,-3279.2814L13069.4888,-3279.2836L13069.5263,-3279.2959L13069.5406,-3279.306L13069.5508,-3279.3115L13069.5587,-3279.315L13069.566,-3279.3175L13069.5807,-3279.3195L13069.5862,-3279.328L13069.5879,-3279.3348L13069.5991,-3279.352L13069.6037,-3279.3627L13069.6093,-3279.3739L13069.6142,-3279.3831L13069.6336,-3279.4189"/>
<path content="1,九州産交バス（株）,東6,15.0,13.0,12.0," xlink:title="1" d="M13069.3359,-3279.2512L13069.3388,-3279.2509L13069.347,-3279.2514L13069.3581,-3279.252L13069.3723,-3279.251L13069.3848,-3279.2509L13069.3999,-3279.2515L13069.4113,-3279.2538L13069.4258,-3279.2653L13069.4394,-3279.2723L13069.453,-3279.2756L13069.4783,-3279.2814L13069.4888,-3279.2836L13069.5263,-3279.2959L13069.5406,-3279.306L13069.5508,-3279.3115L13069.5587,-3279.315L13069.566,-3279.3175L13069.5807,-3279.3195L13069.5862,-3279.328L13069.5879,-3279.3348L13069.5991,-3279.352L13069.6037,-3279.3627L13069.6093,-3279.3739L13069.6142,-3279.3831L13069.6336,-3279.4189"/>
<path content="1,九州産交バス（株）,水道町～国町線,19.0,22.0,18.0," xlink:title="1" d="M13070.1633,-3279.4189L13070.236,-3279.354L13070.2621,-3279.3048L13070.274,-3279.2763L13070.294,-3279.2342L13070.3009,-3279.2147L13070.3178,-3279.1792L13070.2419,-3279.0696L13070.1372,-3278.9074L13070.05,-3278.7713L13069.9835,-3278.6635L13069.9589,-3278.629L13069.9399,-3278.5965L13069.8377,-3278.4346L13069.8175,-3278.4046L13069.8043,-3278.3818L13069.79,-3278.3545L13069.7805,-3278.3322L13069.776,-3278.3203"/>
<path content="1,九州産交バス（株）,水道町～松橋線,19.0,11.0,14.0," xlink:title="1" d="M13070.1633,-3279.4189L13070.236,-3279.354L13070.2621,-3279.3048L13070.274,-3279.2763L13070.294,-3279.2342L13070.3009,-3279.2147L13070.3178,-3279.1792L13070.2419,-3279.0696L13070.1372,-3278.9074L13070.05,-3278.7713L13069.9835,-3278.6635L13069.9589,-3278.629L13069.9399,-3278.5965L13069.8377,-3278.4346L13069.8175,-3278.4046L13069.8043,-3278.3818L13069.79,-3278.3545L13069.7805,-3278.3322L13069.776,-3278.3203"/>
<path content="1,九州産交バス（株）,熊本⇔大分,10.0,10.0,10.0," xlink:title="1" d="M13069.3359,-3278.9737L13069.4162,-3278.9751L13069.5057,-3278.9811L13069.5827,-3278.989L13069.5997,-3278.9907L13069.6645,-3278.9975L13069.7064,-3279.0056L13069.7677,-3279.0172L13069.7966,-3279.0235L13069.8908,-3279.0408L13069.9403,-3279.0544L13069.9833,-3279.0642L13070.01,-3279.0702L13070.0417,-3279.0794L13070.0952,-3279.0964L13070.1622,-3279.1192L13070.204,-3279.1354L13070.3178,-3279.1792L13070.3009,-3279.2147L13070.294,-3279.2342L13070.274,-3279.2763L13070.2621,-3279.3048L13070.236,-3279.354L13070.1633,-3279.4189"/>
<path content="1,九州産交バス（株）,熊本⇔延岡,2.0,2.0,2.0," xlink:title="1" d="M13069.3359,-3278.9737L13069.4162,-3278.9751L13069.5057,-3278.9811L13069.5827,-3278.989L13069.5997,-3278.9907L13069.6645,-3278.9975L13069.7064,-3279.0056L13069.7677,-3279.0172L13069.7966,-3279.0235L13069.8908,-3279.0408L13069.9403,-3279.0544L13069.9833,-3279.0642L13070.01,-3279.0702L13070.0417,-3279.0794L13070.0952,-3279.0964L13070.1622,-3279.1192L13070.204,-3279.1354L13070.3178,-3279.1792L13070.3009,-3279.2147L13070.294,-3279.2342L13070.274,-3279.2763L13070.2621,-3279.3048L13070.236,-3279.354L13070.1633,-3279.4189"/>
<path content="1,九州産交バス（株）,熊本～天草（あまくさ号）《三角駅前経由》天草産交車庫前　⇒　熊本交通センター,20.0,20.0,20.0," xlink:title="1" d="M13069.776,-3278.3203L13069.7805,-3278.3322L13069.79,-3278.3545L13069.8043,-3278.3818L13069.8175,-3278.4046L13069.8096,-3278.4058L13069.7393,-3278.4048L13069.6624,-3278.411L13069.4275,-3278.4198L13069.3359,-3278.4229M13069.3359,-3278.9737L13069.4162,-3278.9751L13069.5057,-3278.9811L13069.5827,-3278.989L13069.5997,-3278.9907L13069.6645,-3278.9975L13069.7064,-3279.0056L13069.7677,-3279.0172L13069.7966,-3279.0235L13069.8908,-3279.0408L13069.9403,-3279.0544L13069.9833,-3279.0642L13070.01,-3279.0702L13070.0417,-3279.0794L13070.0952,-3279.0964L13070.1622,-3279.1192L13070.204,-3279.1354L13070.3178,-3279.1792L13070.3009,-3279.2147L13070.294,-3279.2342L13070.274,-3279.2763L13070.2621,-3279.3048L13070.236,-3279.354L13070.1633,-3279.4189"/>
<path content="1,九州産交バス（株）,熊本～天草（あまくさ号）《三角駅前経由》天草産交車庫前　⇒　阿蘇くまもと空港,1.5,1.5,1.5," xlink:title="1" d="M13069.776,-3278.3203L13069.7805,-3278.3322L13069.79,-3278.3545L13069.8043,-3278.3818L13069.8175,-3278.4046L13069.8096,-3278.4058L13069.7393,-3278.4048L13069.6624,-3278.411L13069.4275,-3278.4198L13069.3359,-3278.4229M13069.3359,-3279.2512L13069.3388,-3279.2509L13069.347,-3279.2514L13069.3581,-3279.252L13069.3723,-3279.251L13069.3848,-3279.2509L13069.3999,-3279.2515L13069.4113,-3279.2538L13069.4258,-3279.2653L13069.4394,-3279.2723L13069.453,-3279.2756L13069.4783,-3279.2814L13069.4888,-3279.2836L13069.5263,-3279.2959L13069.5406,-3279.306L13069.5508,-3279.3115L13069.5587,-3279.315L13069.566,-3279.3175L13069.5807,-3279.3195L13069.5862,-3279.328L13069.5879,-3279.3348L13069.5991,-3279.352L13069.6037,-3279.3627L13069.6093,-3279.3739L13069.6142,-3279.3831L13069.6336,-3279.4189"/>
<path content="1,九州産交バス（株）,熊本～天草（あまくさ号）《三角駅前経由》熊本交通センター　⇔　天草アレグリアガーデンズ,20.0,20.0,20.0," xlink:title="1" d="M13069.776,-3278.3203L13069.7805,-3278.3322L13069.79,-3278.3545L13069.8043,-3278.3818L13069.8175,-3278.4046L13069.8096,-3278.4058L13069.7393,-3278.4048L13069.6624,-3278.411L13069.4275,-3278.4198L13069.3359,-3278.4229M13069.3359,-3278.9737L13069.4162,-3278.9751L13069.5057,-3278.9811L13069.5827,-3278.989L13069.5997,-3278.9907L13069.6645,-3278.9975L13069.7064,-3279.0056L13069.7677,-3279.0172L13069.7966,-3279.0235L13069.8908,-3279.0408L13069.9403,-3279.0544L13069.9833,-3279.0642L13070.01,-3279.0702L13070.0417,-3279.0794L13070.0952,-3279.0964L13070.1622,-3279.1192L13070.204,-3279.1354L13070.3178,-3279.1792L13070.3009,-3279.2147L13070.294,-3279.2342L13070.274,-3279.2763L13070.2621,-3279.3048L13070.236,-3279.354L13070.1633,-3279.4189"/>
<path content="1,九州産交バス（株）,熊本～天草（あまくさ号）《三角駅前経由》阿蘇くまもと空港　⇔　天草アレグリアガーデンズ,2.0,2.0,2.0," xlink:title="1" d="M13069.776,-3278.3203L13069.7805,-3278.3322L13069.79,-3278.3545L13069.8043,-3278.3818L13069.8175,-3278.4046L13069.8096,-3278.4058L13069.7393,-3278.4048L13069.6624,-3278.411L13069.4275,-3278.4198L13069.3359,-3278.4229M13069.3359,-3279.2512L13069.3388,-3279.2509L13069.347,-3279.2514L13069.3581,-3279.252L13069.3723,-3279.251L13069.3848,-3279.2509L13069.3999,-3279.2515L13069.4113,-3279.2538L13069.4258,-3279.2653L13069.4394,-3279.2723L13069.453,-3279.2756L13069.4783,-3279.2814L13069.4888,-3279.2836L13069.5263,-3279.2959L13069.5406,-3279.306L13069.5508,-3279.3115L13069.5587,-3279.315L13069.566,-3279.3175L13069.5807,-3279.3195L13069.5862,-3279.328L13069.5879,-3279.3348L13069.5991,-3279.352L13069.6037,-3279.3627L13069.6093,-3279.3739L13069.6142,-3279.3831L13069.6336,-3279.4189"/>
<path content="1,九州産交バス（株）,熊本～天草（あまくさ号）《高規格道路経由》天草産交車庫　⇒　熊本交通センター,20.0,20.0,20.0," xlink:title="1" d="M13069.776,-3278.3203L13069.7805,-3278.3322L13069.79,-3278.3545L13069.8043,-3278.3818L13069.8175,-3278.4046L13069.8096,-3278.4058L13069.7393,-3278.4048L13069.6624,-3278.411L13069.4275,-3278.4198L13069.3359,-3278.4229M13069.3359,-3278.9737L13069.4162,-3278.9751L13069.5057,-3278.9811L13069.5827,-3278.989L13069.5997,-3278.9907L13069.6645,-3278.9975L13069.7064,-3279.0056L13069.7677,-3279.0172L13069.7966,-3279.0235L13069.8908,-3279.0408L13069.9403,-3279.0544L13069.9833,-3279.0642L13070.01,-3279.0702L13070.0417,-3279.0794L13070.0952,-3279.0964L13070.1622,-3279.1192L13070.204,-3279.1354L13070.3178,-3279.1792L13070.3009,-3279.2147L13070.294,-3279.2342L13070.274,-3279.2763L13070.2621,-3279.3048L13070.236,-3279.354L13070.1633,-3279.4189"/>
<path content="1,九州産交バス（株）,熊本～天草（あまくさ号）《高規格道路経由》熊本交通センター　⇔　天草アレグリアガーデンズ,20.0,20.0,20.0," xlink:title="1" d="M13069.776,-3278.3203L13069.7805,-3278.3322L13069.79,-3278.3545L13069.8043,-3278.3818L13069.8175,-3278.4046L13069.8096,-3278.4058L13069.7393,-3278.4048L13069.6624,-3278.411L13069.4275,-3278.4198L13069.3359,-3278.4229M13069.3359,-3278.9737L13069.4162,-3278.9751L13069.5057,-3278.9811L13069.5827,-3278.989L13069.5997,-3278.9907L13069.6645,-3278.9975L13069.7064,-3279.0056L13069.7677,-3279.0172L13069.7966,-3279.0235L13069.8908,-3279.0408L13069.9403,-3279.0544L13069.9833,-3279.0642L13070.01,-3279.0702L13070.0417,-3279.0794L13070.0952,-3279.0964L13070.1622,-3279.1192L13070.204,-3279.1354L13070.3178,-3279.1792L13070.3009,-3279.2147L13070.294,-3279.2342L13070.274,-3279.2763L13070.2621,-3279.3048L13070.236,-3279.354L13070.1633,-3279.4189"/>
<path content="1,九州産交バス（株）,熊本～天草（あまくさ号）天草産交車庫　⇒　熊本交通センター,20.0,20.0,20.0," xlink:title="1" d="M13069.776,-3278.3203L13069.7805,-3278.3322L13069.79,-3278.3545L13069.8043,-3278.3818L13069.8175,-3278.4046L13069.8096,-3278.4058L13069.7393,-3278.4048L13069.6624,-3278.411L13069.4275,-3278.4198L13069.3359,-3278.4229M13069.3359,-3278.9737L13069.4162,-3278.9751L13069.5057,-3278.9811L13069.5827,-3278.989L13069.5997,-3278.9907L13069.6645,-3278.9975L13069.7064,-3279.0056L13069.7677,-3279.0172L13069.7966,-3279.0235L13069.8908,-3279.0408L13069.9403,-3279.0544L13069.9833,-3279.0642L13070.01,-3279.0702L13070.0417,-3279.0794L13070.0952,-3279.0964L13070.1622,-3279.1192L13070.204,-3279.1354L13070.3178,-3279.1792L13070.3009,-3279.2147L13070.294,-3279.2342L13070.274,-3279.2763L13070.2621,-3279.3048L13070.236,-3279.354L13070.1633,-3279.4189"/>
<path content="1,九州産交バス（株）,熊本～天草（あまくさ号）天草産交車庫　⇒　阿蘇くまもと空港,1.0,1.0,1.0," xlink:title="1" d="M13069.776,-3278.3203L13069.7805,-3278.3322L13069.79,-3278.3545L13069.8043,-3278.3818L13069.8175,-3278.4046L13069.8096,-3278.4058L13069.7393,-3278.4048L13069.6624,-3278.411L13069.4275,-3278.4198L13069.3359,-3278.4229M13069.3359,-3279.2512L13069.3388,-3279.2509L13069.347,-3279.2514L13069.3581,-3279.252L13069.3723,-3279.251L13069.3848,-3279.2509L13069.3999,-3279.2515L13069.4113,-3279.2538L13069.4258,-3279.2653L13069.4394,-3279.2723L13069.453,-3279.2756L13069.4783,-3279.2814L13069.4888,-3279.2836L13069.5263,-3279.2959L13069.5406,-3279.306L13069.5508,-3279.3115L13069.5587,-3279.315L13069.566,-3279.3175L13069.5807,-3279.3195L13069.5862,-3279.328L13069.5879,-3279.3348L13069.5991,-3279.352L13069.6037,-3279.3627L13069.6093,-3279.3739L13069.6142,-3279.3831L13069.6336,-3279.4189"/>
<path content="1,九州産交バス（株）,熊本～天草（あまくさ号）熊本交通センター　⇔　天草アレグリアガーデンズ,20.0,20.0,20.0," xlink:title="1" d="M13069.776,-3278.3203L13069.7805,-3278.3322L13069.79,-3278.3545L13069.8043,-3278.3818L13069.8175,-3278.4046L13069.8096,-3278.4058L13069.7393,-3278.4048L13069.6624,-3278.411L13069.4275,-3278.4198L13069.3359,-3278.4229M13069.3359,-3278.9737L13069.4162,-3278.9751L13069.5057,-3278.9811L13069.5827,-3278.989L13069.5997,-3278.9907L13069.6645,-3278.9975L13069.7064,-3279.0056L13069.7677,-3279.0172L13069.7966,-3279.0235L13069.8908,-3279.0408L13069.9403,-3279.0544L13069.9833,-3279.0642L13070.01,-3279.0702L13070.0417,-3279.0794L13070.0952,-3279.0964L13070.1622,-3279.1192L13070.204,-3279.1354L13070.3178,-3279.1792L13070.3009,-3279.2147L13070.294,-3279.2342L13070.274,-3279.2763L13070.2621,-3279.3048L13070.236,-3279.354L13070.1633,-3279.4189"/>
<path content="1,九州産交バス（株）,熊本～天草（あまくさ号）阿蘇くまもと空港　⇔　天草アレグリアガーデンズ,3.5,3.5,3.5," xlink:title="1" d="M13069.776,-3278.3203L13069.7805,-3278.3322L13069.79,-3278.3545L13069.8043,-3278.3818L13069.8175,-3278.4046L13069.8096,-3278.4058L13069.7393,-3278.4048L13069.6624,-3278.411L13069.4275,-3278.4198L13069.3359,-3278.4229M13069.3359,-3279.2512L13069.3388,-3279.2509L13069.347,-3279.2514L13069.3581,-3279.252L13069.3723,-3279.251L13069.3848,-3279.2509L13069.3999,-3279.2515L13069.4113,-3279.2538L13069.4258,-3279.2653L13069.4394,-3279.2723L13069.453,-3279.2756L13069.4783,-3279.2814L13069.4888,-3279.2836L13069.5263,-3279.2959L13069.5406,-3279.306L13069.5508,-3279.3115L13069.5587,-3279.315L13069.566,-3279.3175L13069.5807,-3279.3195L13069.5862,-3279.328L13069.5879,-3279.3348L13069.5991,-3279.352L13069.6037,-3279.3627L13069.6093,-3279.3739L13069.6142,-3279.3831L13069.6336,-3279.4189"/>
<path content="1,九州産交バス（株）,熊本～宮崎（なんぷう号ノンストップ）,10.0,10.0,10.0," xlink:title="1" d="M13069.3359,-3278.9737L13069.4162,-3278.9751L13069.5057,-3278.9811L13069.5827,-3278.989L13069.5997,-3278.9907L13069.6645,-3278.9975L13069.7064,-3279.0056L13069.7677,-3279.0172L13069.7966,-3279.0235L13069.8908,-3279.0408L13069.9403,-3279.0544L13069.9833,-3279.0642L13070.01,-3279.0702L13070.0417,-3279.0794L13070.0952,-3279.0964L13070.1622,-3279.1192L13070.204,-3279.1354L13070.3178,-3279.1792L13070.3009,-3279.2147L13070.294,-3279.2342L13070.274,-3279.2763L13070.2621,-3279.3048L13070.236,-3279.354L13070.1633,-3279.4189"/>
<path content="1,九州産交バス（株）,熊本～宮崎（なんぷう号各停）,4.0,4.0,4.0," xlink:title="1" d="M13069.3359,-3278.9737L13069.4162,-3278.9751L13069.5057,-3278.9811L13069.5827,-3278.989L13069.5997,-3278.9907L13069.6645,-3278.9975L13069.7064,-3279.0056L13069.7677,-3279.0172L13069.7966,-3279.0235L13069.8908,-3279.0408L13069.9403,-3279.0544L13069.9833,-3279.0642L13070.01,-3279.0702L13070.0417,-3279.0794L13070.0952,-3279.0964L13070.1622,-3279.1192L13070.204,-3279.1354L13070.3178,-3279.1792L13070.3009,-3279.2147L13070.294,-3279.2342L13070.274,-3279.2763L13070.2621,-3279.3048L13070.236,-3279.354L13070.1633,-3279.4189"/>
<path content="1,九州産交バス（株）,熊本～松橋線（大慈禅寺経由）,19.0,11.0,14.0," xlink:title="1" d="M13069.776,-3278.3203L13069.7805,-3278.3322L13069.79,-3278.3545L13069.8043,-3278.3818L13069.8175,-3278.4046L13069.8377,-3278.4346L13069.9399,-3278.5965L13069.9589,-3278.629L13069.9835,-3278.6635L13070.05,-3278.7713L13070.1372,-3278.9074L13070.2419,-3279.0696L13070.3178,-3279.1792L13070.3009,-3279.2147L13070.294,-3279.2342L13070.274,-3279.2763L13070.2621,-3279.3048L13070.236,-3279.354L13070.1633,-3279.4189"/>
<path content="1,九州産交バス（株）,熊本～松橋線（宇土駅東口経由）,15.0,14.0,15.0," xlink:title="1" d="M13069.776,-3278.3203L13069.7805,-3278.3322L13069.79,-3278.3545L13069.8043,-3278.3818L13069.8175,-3278.4046L13069.8377,-3278.4346L13069.9399,-3278.5965L13069.9589,-3278.629L13069.9835,-3278.6635L13070.05,-3278.7713L13070.1372,-3278.9074L13070.2419,-3279.0696L13070.3178,-3279.1792L13070.3009,-3279.2147L13070.294,-3279.2342L13070.274,-3279.2763L13070.2621,-3279.3048L13070.236,-3279.354L13070.1633,-3279.4189"/>
<path content="1,九州産交バス（株）,熊本～松橋線（川6）,22.0,19.0,17.0," xlink:title="1" d="M13069.776,-3278.3203L13069.7805,-3278.3322L13069.79,-3278.3545L13069.8043,-3278.3818L13069.8175,-3278.4046L13069.8377,-3278.4346L13069.9399,-3278.5965L13069.9589,-3278.629L13069.9835,-3278.6635L13070.05,-3278.7713L13070.1372,-3278.9074L13070.2419,-3279.0696L13070.3178,-3279.1792L13070.3009,-3279.2147L13070.294,-3279.2342L13070.274,-3279.2763L13070.2621,-3279.3048L13070.236,-3279.354L13070.1633,-3279.4189"/>
<path content="1,九州産交バス（株）,熊本～長崎　（りんどう号）,8.0,8.0,8.0," xlink:title="1" d="M13069.3359,-3278.9737L13069.4162,-3278.9751L13069.5057,-3278.9811L13069.5827,-3278.989L13069.5997,-3278.9907L13069.6645,-3278.9975L13069.7064,-3279.0056L13069.7677,-3279.0172L13069.7966,-3279.0235L13069.8908,-3279.0408L13069.9403,-3279.0544L13069.9833,-3279.0642L13070.01,-3279.0702L13070.0417,-3279.0794L13070.0952,-3279.0964L13070.1622,-3279.1192L13070.204,-3279.1354L13070.3178,-3279.1792L13070.3009,-3279.2147L13070.294,-3279.2342L13070.274,-3279.2763L13070.2621,-3279.3048L13070.236,-3279.354L13070.1633,-3279.4189"/>
<path content="1,九州産交バス（株）,産交バス_02_nu,999.9,999.9,999.9," xlink:title="1" d="M13069.776,-3278.3203L13069.7805,-3278.3322L13069.79,-3278.3545L13069.8043,-3278.3818L13069.8175,-3278.4046L13069.864,-3278.4147L13070.1086,-3278.4659L13070.1614,-3278.4783L13070.3031,-3278.5091L13070.3484,-3278.5197L13070.3751,-3278.5275L13070.4346,-3278.5391"/>
<path content="1,九州産交バス（株）,県14,29.0,20.0,18.0," xlink:title="1" d="M13069.3359,-3279.2512L13069.3388,-3279.2509L13069.347,-3279.2514L13069.3581,-3279.252L13069.3723,-3279.251L13069.3848,-3279.2509L13069.3999,-3279.2515L13069.4113,-3279.2538L13069.4258,-3279.2653L13069.4394,-3279.2723L13069.453,-3279.2756L13069.4783,-3279.2814L13069.4888,-3279.2836L13069.5263,-3279.2959L13069.5406,-3279.306L13069.5508,-3279.3115L13069.5587,-3279.315L13069.566,-3279.3175L13069.5807,-3279.3195L13069.5862,-3279.328L13069.5879,-3279.3348L13069.5991,-3279.352L13069.6037,-3279.3627L13069.6093,-3279.3739L13069.6142,-3279.3831L13069.6336,-3279.4189"/>
<path content="1,九州産交バス（株）,県15,30.0,26.0,19.0," xlink:title="1" d="M13069.3359,-3279.2512L13069.3388,-3279.2509L13069.347,-3279.2514L13069.3581,-3279.252L13069.3723,-3279.251L13069.3848,-3279.2509L13069.3999,-3279.2515L13069.4113,-3279.2538L13069.4258,-3279.2653L13069.4394,-3279.2723L13069.453,-3279.2756L13069.4783,-3279.2814L13069.4888,-3279.2836L13069.5263,-3279.2959L13069.5406,-3279.306L13069.5508,-3279.3115L13069.5587,-3279.315L13069.566,-3279.3175L13069.5807,-3279.3195L13069.5862,-3279.328L13069.5879,-3279.3348L13069.5991,-3279.352L13069.6037,-3279.3627L13069.6093,-3279.3739L13069.6142,-3279.3831L13069.6336,-3279.4189"/>
<path content="1,九州産交バス（株）,県16,2.0,0.0,0.0," xlink:title="1" d="M13069.3359,-3279.2512L13069.3388,-3279.2509L13069.347,-3279.2514L13069.3581,-3279.252L13069.3723,-3279.251L13069.3848,-3279.2509L13069.3999,-3279.2515L13069.4113,-3279.2538L13069.4258,-3279.2653L13069.4394,-3279.2723L13069.453,-3279.2756L13069.4783,-3279.2814L13069.4888,-3279.2836L13069.5263,-3279.2959L13069.5406,-3279.306L13069.5508,-3279.3115L13069.5587,-3279.315L13069.566,-3279.3175L13069.5807,-3279.3195L13069.5862,-3279.328L13069.5879,-3279.3348L13069.5991,-3279.352L13069.6037,-3279.3627L13069.6093,-3279.3739L13069.6142,-3279.3831L13069.6336,-3279.4189"/>
<path content="1,九州産交バス（株）,県18,9.0,11.0,5.0," xlink:title="1" d="M13069.3359,-3279.2512L13069.3388,-3279.2509L13069.347,-3279.2514L13069.3581,-3279.252L13069.3723,-3279.251L13069.3848,-3279.2509L13069.3999,-3279.2515L13069.4113,-3279.2538L13069.4258,-3279.2653L13069.4394,-3279.2723L13069.453,-3279.2756L13069.4783,-3279.2814L13069.4888,-3279.2836L13069.5263,-3279.2959L13069.5406,-3279.306L13069.5508,-3279.3115L13069.5587,-3279.315L13069.566,-3279.3175L13069.5807,-3279.3195L13069.5862,-3279.328L13069.5879,-3279.3348L13069.5991,-3279.352L13069.6037,-3279.3627L13069.6093,-3279.3739L13069.6142,-3279.3831L13069.6336,-3279.4189"/>
<path content="1,九州産交バス（株）,県20,15.0,10.0,16.0," xlink:title="1" d="M13070.1633,-3279.4189L13070.236,-3279.354L13070.2621,-3279.3048L13070.274,-3279.2763L13070.294,-3279.2342L13070.3009,-3279.2147L13070.3178,-3279.1792L13070.2419,-3279.0696L13070.1372,-3278.9074L13070.05,-3278.7713L13069.9835,-3278.6635L13069.9589,-3278.629L13069.9399,-3278.5965L13069.8377,-3278.4346L13069.8175,-3278.4046L13069.8043,-3278.3818L13069.79,-3278.3545L13069.7805,-3278.3322L13069.776,-3278.3203"/>
<path content="1,九州産交バス（株）,県会議事堂～国町線,17.0,17.0,15.0," xlink:title="1" d="M13070.1633,-3279.4189L13070.236,-3279.354L13070.2621,-3279.3048L13070.274,-3279.2763L13070.294,-3279.2342L13070.3009,-3279.2147L13070.3178,-3279.1792L13070.2419,-3279.0696L13070.1372,-3278.9074L13070.05,-3278.7713L13069.9835,-3278.6635L13069.9589,-3278.629L13069.9399,-3278.5965L13069.8377,-3278.4346L13069.8175,-3278.4046L13069.8043,-3278.3818L13069.79,-3278.3545L13069.7805,-3278.3322L13069.776,-3278.3203"/>
<path content="1,九州産交バス（株）,県会議事堂～松橋線,12.0,9.0,10.0," xlink:title="1" d="M13069.776,-3278.3203L13069.7805,-3278.3322L13069.79,-3278.3545L13069.8043,-3278.3818L13069.8175,-3278.4046L13069.8377,-3278.4346L13069.9399,-3278.5965L13069.9589,-3278.629L13069.9835,-3278.6635L13070.05,-3278.7713L13070.1372,-3278.9074L13070.2419,-3279.0696L13070.3178,-3279.1792L13070.3009,-3279.2147L13070.294,-3279.2342L13070.274,-3279.2763L13070.2621,-3279.3048L13070.236,-3279.354L13070.1633,-3279.4189"/>
<path content="1,九州産交バス（株）,西10,5.0,4.0,5.0," xlink:title="1" d="M13069.3359,-3279.2512L13069.3388,-3279.2509L13069.347,-3279.2514L13069.3581,-3279.252L13069.3723,-3279.251L13069.3848,-3279.2509L13069.3999,-3279.2515L13069.4113,-3279.2538L13069.4258,-3279.2653L13069.4394,-3279.2723L13069.453,-3279.2756L13069.4783,-3279.2814L13069.4888,-3279.2836L13069.5263,-3279.2959L13069.5406,-3279.306L13069.5508,-3279.3115L13069.5587,-3279.315L13069.566,-3279.3175L13069.5807,-3279.3195L13069.5862,-3279.328L13069.5879,-3279.3348L13069.5991,-3279.352L13069.6037,-3279.3627L13069.6093,-3279.3739L13069.6142,-3279.3831L13069.6336,-3279.4189"/>
<path content="1,九州産交バス（株）,西11,23.0,9.0,6.0," xlink:title="1" d="M13069.3359,-3279.2512L13069.3388,-3279.2509L13069.347,-3279.2514L13069.3581,-3279.252L13069.3723,-3279.251L13069.3848,-3279.2509L13069.3999,-3279.2515L13069.4113,-3279.2538L13069.4258,-3279.2653L13069.4394,-3279.2723L13069.453,-3279.2756L13069.4783,-3279.2814L13069.4888,-3279.2836L13069.5263,-3279.2959L13069.5406,-3279.306L13069.5508,-3279.3115L13069.5587,-3279.315L13069.566,-3279.3175L13069.5807,-3279.3195L13069.5862,-3279.328L13069.5879,-3279.3348L13069.5991,-3279.352L13069.6037,-3279.3627L13069.6093,-3279.3739L13069.6142,-3279.3831L13069.6336,-3279.4189"/>
<path content="1,九州産交バス（株）,西12,8.0,7.0,5.0," xlink:title="1" d="M13069.3359,-3279.2512L13069.3388,-3279.2509L13069.347,-3279.2514L13069.3581,-3279.252L13069.3723,-3279.251L13069.3848,-3279.2509L13069.3999,-3279.2515L13069.4113,-3279.2538L13069.4258,-3279.2653L13069.4394,-3279.2723L13069.453,-3279.2756L13069.4783,-3279.2814L13069.4888,-3279.2836L13069.5263,-3279.2959L13069.5406,-3279.306L13069.5508,-3279.3115L13069.5587,-3279.315L13069.566,-3279.3175L13069.5807,-3279.3195L13069.5862,-3279.328L13069.5879,-3279.3348L13069.5991,-3279.352L13069.6037,-3279.3627L13069.6093,-3279.3739L13069.6142,-3279.3831L13069.6336,-3279.4189"/>
<path content="1,九州産交バス（株）,西13,3.0,3.0,3.0," xlink:title="1" d="M13069.3359,-3279.2512L13069.3388,-3279.2509L13069.347,-3279.2514L13069.3581,-3279.252L13069.3723,-3279.251L13069.3848,-3279.2509L13069.3999,-3279.2515L13069.4113,-3279.2538L13069.4258,-3279.2653L13069.4394,-3279.2723L13069.453,-3279.2756L13069.4783,-3279.2814L13069.4888,-3279.2836L13069.5263,-3279.2959L13069.5406,-3279.306L13069.5508,-3279.3115L13069.5587,-3279.315L13069.566,-3279.3175L13069.5807,-3279.3195L13069.5862,-3279.328L13069.5879,-3279.3348L13069.5991,-3279.352L13069.6037,-3279.3627L13069.6093,-3279.3739L13069.6142,-3279.3831L13069.6336,-3279.4189"/>
<path content="1,九州産交バス（株）,西14,23.0,13.0,10.0," xlink:title="1" d="M13069.3359,-3279.2512L13069.3388,-3279.2509L13069.347,-3279.2514L13069.3581,-3279.252L13069.3723,-3279.251L13069.3848,-3279.2509L13069.3999,-3279.2515L13069.4113,-3279.2538L13069.4258,-3279.2653L13069.4394,-3279.2723L13069.453,-3279.2756L13069.4783,-3279.2814L13069.4888,-3279.2836L13069.5263,-3279.2959L13069.5406,-3279.306L13069.5508,-3279.3115L13069.5587,-3279.315L13069.566,-3279.3175L13069.5807,-3279.3195L13069.5862,-3279.328L13069.5879,-3279.3348L13069.5991,-3279.352L13069.6037,-3279.3627L13069.6093,-3279.3739L13069.6142,-3279.3831L13069.6336,-3279.4189"/>
<path content="1,九州産交バス（株）,西15,1.0,2.0,3.0," xlink:title="1" d="M13069.3359,-3279.2512L13069.3388,-3279.2509L13069.347,-3279.2514L13069.3581,-3279.252L13069.3723,-3279.251L13069.3848,-3279.2509L13069.3999,-3279.2515L13069.4113,-3279.2538L13069.4258,-3279.2653L13069.4394,-3279.2723L13069.453,-3279.2756L13069.4783,-3279.2814L13069.4888,-3279.2836L13069.5263,-3279.2959L13069.5406,-3279.306L13069.5508,-3279.3115L13069.5587,-3279.315L13069.566,-3279.3175L13069.5807,-3279.3195L13069.5862,-3279.328L13069.5879,-3279.3348L13069.5991,-3279.352L13069.6037,-3279.3627L13069.6093,-3279.3739L13069.6142,-3279.3831L13069.6336,-3279.4189"/>
<path content="1,九州産交バス（株）,西16,4.0,7.0,5.0," xlink:title="1" d="M13069.3359,-3279.2512L13069.3388,-3279.2509L13069.347,-3279.2514L13069.3581,-3279.252L13069.3723,-3279.251L13069.3848,-3279.2509L13069.3999,-3279.2515L13069.4113,-3279.2538L13069.4258,-3279.2653L13069.4394,-3279.2723L13069.453,-3279.2756L13069.4783,-3279.2814L13069.4888,-3279.2836L13069.5263,-3279.2959L13069.5406,-3279.306L13069.5508,-3279.3115L13069.5587,-3279.315L13069.566,-3279.3175L13069.5807,-3279.3195L13069.5862,-3279.328L13069.5879,-3279.3348L13069.5991,-3279.352L13069.6037,-3279.3627L13069.6093,-3279.3739L13069.6142,-3279.3831L13069.6336,-3279.4189"/>
<path content="1,九州産交バス（株）,西17_01_on,4.0,4.0,4.0," xlink:title="1" d="M13069.3359,-3279.2512L13069.3388,-3279.2509L13069.347,-3279.2514L13069.3581,-3279.252L13069.3723,-3279.251L13069.3848,-3279.2509L13069.3999,-3279.2515L13069.4113,-3279.2538L13069.4258,-3279.2653L13069.4394,-3279.2723L13069.453,-3279.2756L13069.4783,-3279.2814L13069.4888,-3279.2836L13069.5263,-3279.2959L13069.5406,-3279.306L13069.5508,-3279.3115L13069.5587,-3279.315L13069.566,-3279.3175L13069.5807,-3279.3195L13069.5862,-3279.328L13069.5879,-3279.3348L13069.5991,-3279.352L13069.6037,-3279.3627L13069.6093,-3279.3739L13069.6142,-3279.3831L13069.6336,-3279.4189"/>
<path content="1,九州産交バス（株）,西17_02_on,6.0,3.0,2.0," xlink:title="1" d="M13069.3359,-3279.2512L13069.3388,-3279.2509L13069.347,-3279.2514L13069.3581,-3279.252L13069.3723,-3279.251L13069.3848,-3279.2509L13069.3999,-3279.2515L13069.4113,-3279.2538L13069.4258,-3279.2653L13069.4394,-3279.2723L13069.453,-3279.2756L13069.4783,-3279.2814L13069.4888,-3279.2836L13069.5263,-3279.2959L13069.5406,-3279.306L13069.5508,-3279.3115L13069.5587,-3279.315L13069.566,-3279.3175L13069.5807,-3279.3195L13069.5862,-3279.328L13069.5879,-3279.3348L13069.5991,-3279.352L13069.6037,-3279.3627L13069.6093,-3279.3739L13069.6142,-3279.3831L13069.6336,-3279.4189"/>
<path content="1,九州産交バス（株）,西17_03_on,3.0,2.0,3.0," xlink:title="1" d="M13069.3359,-3279.2512L13069.3388,-3279.2509L13069.347,-3279.2514L13069.3581,-3279.252L13069.3723,-3279.251L13069.3848,-3279.2509L13069.3999,-3279.2515L13069.4113,-3279.2538L13069.4258,-3279.2653L13069.4394,-3279.2723L13069.453,-3279.2756L13069.4783,-3279.2814L13069.4888,-3279.2836L13069.5263,-3279.2959L13069.5406,-3279.306L13069.5508,-3279.3115L13069.5587,-3279.315L13069.566,-3279.3175L13069.5807,-3279.3195L13069.5862,-3279.328L13069.5879,-3279.3348L13069.5991,-3279.352L13069.6037,-3279.3627L13069.6093,-3279.3739L13069.6142,-3279.3831L13069.6336,-3279.4189"/>
<path content="1,九州産交バス（株）,西18,13.0,12.0,8.0," xlink:title="1" d="M13069.3359,-3279.2512L13069.3388,-3279.2509L13069.347,-3279.2514L13069.3581,-3279.252L13069.3723,-3279.251L13069.3848,-3279.2509L13069.3999,-3279.2515L13069.4113,-3279.2538L13069.4258,-3279.2653L13069.4394,-3279.2723L13069.453,-3279.2756L13069.4783,-3279.2814L13069.4888,-3279.2836L13069.5263,-3279.2959L13069.5406,-3279.306L13069.5508,-3279.3115L13069.5587,-3279.315L13069.566,-3279.3175L13069.5807,-3279.3195L13069.5862,-3279.328L13069.5879,-3279.3348L13069.5991,-3279.352L13069.6037,-3279.3627L13069.6093,-3279.3739L13069.6142,-3279.3831L13069.6336,-3279.4189"/>
<path content="1,九州産交バス（株）,西4,5.0,5.0,5.0," xlink:title="1" d="M13069.3359,-3279.2512L13069.3388,-3279.2509L13069.347,-3279.2514L13069.3581,-3279.252L13069.3723,-3279.251L13069.3848,-3279.2509L13069.3999,-3279.2515L13069.4113,-3279.2538L13069.4258,-3279.2653L13069.4394,-3279.2723L13069.453,-3279.2756L13069.4783,-3279.2814L13069.4888,-3279.2836L13069.5263,-3279.2959L13069.5406,-3279.306L13069.5508,-3279.3115L13069.5587,-3279.315L13069.566,-3279.3175L13069.5807,-3279.3195L13069.5862,-3279.328L13069.5879,-3279.3348L13069.5991,-3279.352L13069.6037,-3279.3627L13069.6093,-3279.3739L13069.6142,-3279.3831L13069.6336,-3279.4189"/>
<path content="1,九州産交バス（株）,西6,6.0,5.0,5.0," xlink:title="1" d="M13069.6336,-3279.4189L13069.6142,-3279.3831L13069.6093,-3279.3739L13069.6037,-3279.3627L13069.5991,-3279.352L13069.5879,-3279.3348L13069.5862,-3279.328L13069.5807,-3279.3195L13069.566,-3279.3175L13069.5587,-3279.315L13069.5508,-3279.3115L13069.5406,-3279.306L13069.5263,-3279.2959L13069.4888,-3279.2836L13069.4783,-3279.2814L13069.453,-3279.2756L13069.4394,-3279.2723L13069.4258,-3279.2653L13069.4113,-3279.2538L13069.3999,-3279.2515L13069.3848,-3279.2509L13069.3723,-3279.251L13069.3581,-3279.252L13069.347,-3279.2514L13069.3388,-3279.2509L13069.3359,-3279.2512"/>
<path content="1,九州産交バス（株）,西7_01_on,16.0,13.0,12.0," xlink:title="1" d="M13069.6336,-3279.4189L13069.6142,-3279.3831L13069.6093,-3279.3739L13069.6037,-3279.3627L13069.5991,-3279.352L13069.5879,-3279.3348L13069.5862,-3279.328L13069.5807,-3279.3195L13069.566,-3279.3175L13069.5587,-3279.315L13069.5508,-3279.3115L13069.5406,-3279.306L13069.5263,-3279.2959L13069.4888,-3279.2836L13069.4783,-3279.2814L13069.453,-3279.2756L13069.4394,-3279.2723L13069.4258,-3279.2653L13069.4113,-3279.2538L13069.3999,-3279.2515L13069.3848,-3279.2509L13069.3723,-3279.251L13069.3581,-3279.252L13069.347,-3279.2514L13069.3388,-3279.2509L13069.3359,-3279.2512"/>
<path content="1,九州産交バス（株）,西7_02_on,17.0,14.0,13.0," xlink:title="1" d="M13069.6336,-3279.4189L13069.6142,-3279.3831L13069.6093,-3279.3739L13069.6037,-3279.3627L13069.5991,-3279.352L13069.5879,-3279.3348L13069.5862,-3279.328L13069.5807,-3279.3195L13069.566,-3279.3175L13069.5587,-3279.315L13069.5508,-3279.3115L13069.5406,-3279.306L13069.5263,-3279.2959L13069.4888,-3279.2836L13069.4783,-3279.2814L13069.453,-3279.2756L13069.4394,-3279.2723L13069.4258,-3279.2653L13069.4113,-3279.2538L13069.3999,-3279.2515L13069.3848,-3279.2509L13069.3723,-3279.251L13069.3581,-3279.252L13069.347,-3279.2514L13069.3388,-3279.2509L13069.3359,-3279.2512"/>
<path content="1,九州産交バス（株）,西8,1.0,0.0,0.0," xlink:title="1" d="M13069.6336,-3279.4189L13069.6142,-3279.3831L13069.6093,-3279.3739L13069.6037,-3279.3627L13069.5991,-3279.352L13069.5879,-3279.3348L13069.5862,-3279.328L13069.5807,-3279.3195L13069.566,-3279.3175L13069.5587,-3279.315L13069.5508,-3279.3115L13069.5406,-3279.306L13069.5263,-3279.2959L13069.4888,-3279.2836L13069.4783,-3279.2814L13069.453,-3279.2756L13069.4394,-3279.2723L13069.4258,-3279.2653L13069.4113,-3279.2538L13069.3999,-3279.2515L13069.3848,-3279.2509L13069.3723,-3279.251L13069.3581,-3279.252L13069.347,-3279.2514L13069.3388,-3279.2509L13069.3359,-3279.2512"/>
<path content="1,九州産交バス（株）,西9,7.0,6.0,6.0," xlink:title="1" d="M13069.6336,-3279.4189L13069.6142,-3279.3831L13069.6093,-3279.3739L13069.6037,-3279.3627L13069.5991,-3279.352L13069.5879,-3279.3348L13069.5862,-3279.328L13069.5807,-3279.3195L13069.566,-3279.3175L13069.5587,-3279.315L13069.5508,-3279.3115L13069.5406,-3279.306L13069.5263,-3279.2959L13069.4888,-3279.2836L13069.4783,-3279.2814L13069.453,-3279.2756L13069.4394,-3279.2723L13069.4258,-3279.2653L13069.4113,-3279.2538L13069.3999,-3279.2515L13069.3848,-3279.2509L13069.3723,-3279.251L13069.3581,-3279.252L13069.347,-3279.2514L13069.3388,-3279.2509L13069.3359,-3279.2512"/>
<path content="1,九州産交バス（株）,野1,1.0,4.0,4.0," xlink:title="1" d="M13069.3359,-3279.2512L13069.3388,-3279.2509L13069.347,-3279.2514L13069.3581,-3279.252L13069.3723,-3279.251L13069.3848,-3279.2509L13069.3999,-3279.2515L13069.4113,-3279.2538L13069.4258,-3279.2653L13069.4394,-3279.2723L13069.453,-3279.2756L13069.4783,-3279.2814L13069.4888,-3279.2836L13069.5263,-3279.2959L13069.5406,-3279.306L13069.5508,-3279.3115L13069.5587,-3279.315L13069.566,-3279.3175L13069.5807,-3279.3195L13069.5862,-3279.328L13069.5879,-3279.3348L13069.5991,-3279.352L13069.6037,-3279.3627L13069.6093,-3279.3739L13069.6142,-3279.3831L13069.6336,-3279.4189"/>
<path content="1,九州産交バス（株）,野10,10.0,7.0,7.0," xlink:title="1" d="M13069.6336,-3279.4189L13069.6142,-3279.3831L13069.6093,-3279.3739L13069.6037,-3279.3627L13069.5991,-3279.352L13069.5879,-3279.3348L13069.5862,-3279.328L13069.5807,-3279.3195L13069.566,-3279.3175L13069.5587,-3279.315L13069.5508,-3279.3115L13069.5406,-3279.306L13069.5263,-3279.2959L13069.4888,-3279.2836L13069.4783,-3279.2814L13069.453,-3279.2756L13069.4394,-3279.2723L13069.4258,-3279.2653L13069.4113,-3279.2538L13069.3999,-3279.2515L13069.3848,-3279.2509L13069.3723,-3279.251L13069.3581,-3279.252L13069.347,-3279.2514L13069.3388,-3279.2509L13069.3359,-3279.2512"/>
<path content="1,九州産交バス（株）,野3,9.0,12.0,6.0," xlink:title="1" d="M13069.3359,-3279.2512L13069.3388,-3279.2509L13069.347,-3279.2514L13069.3581,-3279.252L13069.3723,-3279.251L13069.3848,-3279.2509L13069.3999,-3279.2515L13069.435,-3279.3263L13069.4386,-3279.3345L13069.4745,-3279.4189"/>
<path content="1,九州産交バス（株）,野4,3.0,4.0,2.0," xlink:title="1" d="M13069.3359,-3279.2512L13069.3388,-3279.2509L13069.347,-3279.2514L13069.3581,-3279.252L13069.3723,-3279.251L13069.3848,-3279.2509L13069.3999,-3279.2515L13069.4113,-3279.2538L13069.4258,-3279.2653L13069.4394,-3279.2723L13069.453,-3279.2756L13069.4783,-3279.2814L13069.4888,-3279.2836L13069.5263,-3279.2959L13069.5406,-3279.306L13069.5508,-3279.3115L13069.5587,-3279.315L13069.566,-3279.3175L13069.5807,-3279.3195L13069.5862,-3279.328L13069.5879,-3279.3348L13069.5991,-3279.352L13069.6037,-3279.3627L13069.6093,-3279.3739L13069.6142,-3279.3831L13069.6336,-3279.4189"/>
<path content="1,九州産交バス（株）,野5,3.0,3.0,1.0," xlink:title="1" d="M13069.6336,-3279.4189L13069.6142,-3279.3831L13069.6093,-3279.3739L13069.6037,-3279.3627L13069.5991,-3279.352L13069.5879,-3279.3348L13069.5862,-3279.328L13069.5807,-3279.3195L13069.566,-3279.3175L13069.5587,-3279.315L13069.5508,-3279.3115L13069.5406,-3279.306L13069.5263,-3279.2959L13069.4888,-3279.2836L13069.4783,-3279.2814L13069.453,-3279.2756L13069.4394,-3279.2723L13069.4258,-3279.2653L13069.4113,-3279.2538L13069.3999,-3279.2515L13069.3848,-3279.2509L13069.3723,-3279.251L13069.3581,-3279.252L13069.347,-3279.2514L13069.3388,-3279.2509L13069.3359,-3279.2512"/>
<path content="1,九州産交バス（株）,野6,4.0,2.0,2.0," xlink:title="1" d="M13069.6336,-3279.4189L13069.6142,-3279.3831L13069.6093,-3279.3739L13069.6037,-3279.3627L13069.5991,-3279.352L13069.5879,-3279.3348L13069.5862,-3279.328L13069.5807,-3279.3195L13069.566,-3279.3175L13069.5587,-3279.315L13069.5508,-3279.3115L13069.5406,-3279.306L13069.5263,-3279.2959L13069.4888,-3279.2836L13069.4783,-3279.2814L13069.453,-3279.2756L13069.4394,-3279.2723L13069.4258,-3279.2653L13069.4113,-3279.2538L13069.3999,-3279.2515L13069.3848,-3279.2509L13069.3723,-3279.251L13069.3581,-3279.252L13069.347,-3279.2514L13069.3388,-3279.2509L13069.3359,-3279.2512"/>
<path content="1,九州産交バス（株）,野7,4.0,3.0,3.0," xlink:title="1" d="M13069.6336,-3279.4189L13069.6142,-3279.3831L13069.6093,-3279.3739L13069.6037,-3279.3627L13069.5991,-3279.352L13069.5879,-3279.3348L13069.5862,-3279.328L13069.5807,-3279.3195L13069.566,-3279.3175L13069.5587,-3279.315L13069.5508,-3279.3115L13069.5406,-3279.306L13069.5263,-3279.2959L13069.4888,-3279.2836L13069.4783,-3279.2814L13069.453,-3279.2756L13069.4394,-3279.2723L13069.4258,-3279.2653L13069.4113,-3279.2538L13069.3999,-3279.2515L13069.3848,-3279.2509L13069.3723,-3279.251L13069.3581,-3279.252L13069.347,-3279.2514L13069.3388,-3279.2509L13069.3359,-3279.2512"/>
<path content="1,九州産交バス（株）,野9_01_on,7.0,8.0,7.0," xlink:title="1" d="M13069.6336,-3279.4189L13069.6142,-3279.3831L13069.6093,-3279.3739L13069.6037,-3279.3627L13069.5991,-3279.352L13069.5879,-3279.3348L13069.5862,-3279.328L13069.5807,-3279.3195L13069.566,-3279.3175L13069.5587,-3279.315L13069.5508,-3279.3115L13069.5406,-3279.306L13069.5263,-3279.2959L13069.4888,-3279.2836L13069.4783,-3279.2814L13069.453,-3279.2756L13069.4394,-3279.2723L13069.4258,-3279.2653L13069.4113,-3279.2538L13069.3999,-3279.2515L13069.3848,-3279.2509L13069.3723,-3279.251L13069.3581,-3279.252L13069.347,-3279.2514L13069.3388,-3279.2509L13069.3359,-3279.2512"/>
<path content="1,九州産交バス（株）,野9_02_on,2.0,4.0,4.0," xlink:title="1" d="M13069.6336,-3279.4189L13069.6142,-3279.3831L13069.6093,-3279.3739L13069.6037,-3279.3627L13069.5991,-3279.352L13069.5879,-3279.3348L13069.5862,-3279.328L13069.5807,-3279.3195L13069.566,-3279.3175L13069.5587,-3279.315L13069.5508,-3279.3115L13069.5406,-3279.306L13069.5263,-3279.2959L13069.4888,-3279.2836L13069.4783,-3279.2814L13069.453,-3279.2756L13069.4394,-3279.2723L13069.4258,-3279.2653L13069.4113,-3279.2538L13069.3999,-3279.2515L13069.3848,-3279.2509L13069.3723,-3279.251L13069.3581,-3279.252L13069.347,-3279.2514L13069.3388,-3279.2509L13069.3359,-3279.2512"/>
<path content="1,九州産交バス（株）,野9_03_on,2.0,15.0,14.0," xlink:title="1" d="M13069.3359,-3279.2512L13069.3388,-3279.2509L13069.347,-3279.2514L13069.3581,-3279.252L13069.3723,-3279.251L13069.3848,-3279.2509L13069.3999,-3279.2515L13069.4113,-3279.2538L13069.4258,-3279.2653L13069.4394,-3279.2723L13069.453,-3279.2756L13069.4783,-3279.2814L13069.4888,-3279.2836L13069.5263,-3279.2959L13069.5406,-3279.306L13069.5508,-3279.3115L13069.5587,-3279.315L13069.566,-3279.3175L13069.5807,-3279.3195L13069.5862,-3279.328L13069.5879,-3279.3348L13069.5991,-3279.352L13069.6037,-3279.3627L13069.6093,-3279.3739L13069.6142,-3279.3831L13069.6336,-3279.4189"/>
<path content="1,九州産交バス（株）,鹿4_01_on,17.0,19.0,11.0," xlink:title="1" d="M13069.6336,-3279.4189L13069.6142,-3279.3831L13069.6093,-3279.3739L13069.6037,-3279.3627L13069.5991,-3279.352L13069.5879,-3279.3348L13069.5862,-3279.328L13069.5807,-3279.3195L13069.566,-3279.3175L13069.5587,-3279.315L13069.5508,-3279.3115L13069.5406,-3279.306L13069.5263,-3279.2959L13069.4888,-3279.2836L13069.4783,-3279.2814L13069.453,-3279.2756L13069.4394,-3279.2723L13069.4258,-3279.2653L13069.4113,-3279.2538L13069.3999,-3279.2515L13069.3848,-3279.2509L13069.3723,-3279.251L13069.3581,-3279.252L13069.347,-3279.2514L13069.3388,-3279.2509L13069.3359,-3279.2512"/>
<path content="1,九州産交バス（株）,鹿4_03_on,17.0,19.0,11.0," xlink:title="1" d="M13069.6336,-3279.4189L13069.6142,-3279.3831L13069.6093,-3279.3739L13069.6037,-3279.3627L13069.5991,-3279.352L13069.5879,-3279.3348L13069.5862,-3279.328L13069.5807,-3279.3195L13069.566,-3279.3175L13069.5587,-3279.315L13069.5508,-3279.3115L13069.5406,-3279.306L13069.5263,-3279.2959L13069.4888,-3279.2836L13069.4783,-3279.2814L13069.453,-3279.2756L13069.4394,-3279.2723L13069.4258,-3279.2653L13069.4113,-3279.2538L13069.3999,-3279.2515L13069.3848,-3279.2509L13069.3723,-3279.251L13069.3581,-3279.252L13069.347,-3279.2514L13069.3388,-3279.2509L13069.3359,-3279.2512"/>
<path content="1,九州産交バス（株）,鹿5_01_on,6.0,4.0,4.0," xlink:title="1" d="M13069.6336,-3279.4189L13069.6142,-3279.3831L13069.6093,-3279.3739L13069.6037,-3279.3627L13069.5991,-3279.352L13069.5879,-3279.3348L13069.5862,-3279.328L13069.5807,-3279.3195L13069.566,-3279.3175L13069.5587,-3279.315L13069.5508,-3279.3115L13069.5406,-3279.306L13069.5263,-3279.2959L13069.4888,-3279.2836L13069.4783,-3279.2814L13069.453,-3279.2756L13069.4394,-3279.2723L13069.4258,-3279.2653L13069.4113,-3279.2538L13069.3999,-3279.2515L13069.3848,-3279.2509L13069.3723,-3279.251L13069.3581,-3279.252L13069.347,-3279.2514L13069.3388,-3279.2509L13069.3359,-3279.2512"/>
<path content="1,九州産交バス（株）,鹿6_01_on,3.0,6.0,4.0," xlink:title="1" d="M13069.3359,-3279.2512L13069.3388,-3279.2509L13069.347,-3279.2514L13069.3581,-3279.252L13069.3723,-3279.251L13069.3848,-3279.2509L13069.3999,-3279.2515L13069.4113,-3279.2538L13069.4258,-3279.2653L13069.4394,-3279.2723L13069.453,-3279.2756L13069.4783,-3279.2814L13069.4888,-3279.2836L13069.5263,-3279.2959L13069.5406,-3279.306L13069.5508,-3279.3115L13069.5587,-3279.315L13069.566,-3279.3175L13069.5807,-3279.3195L13069.5862,-3279.328L13069.5879,-3279.3348L13069.5991,-3279.352L13069.6037,-3279.3627L13069.6093,-3279.3739L13069.6142,-3279.3831L13069.6336,-3279.4189"/>
<path content="1,九州産交バス（株）,鹿7_01_on,7.0,0.0,0.0," xlink:title="1" d="M13069.776,-3278.3203L13069.7805,-3278.3322L13069.79,-3278.3545L13069.8043,-3278.3818L13069.8175,-3278.4046L13069.8377,-3278.4346L13069.9399,-3278.5965L13069.9589,-3278.629L13069.9835,-3278.6635L13070.05,-3278.7713L13070.1372,-3278.9074L13070.2419,-3279.0696L13070.3178,-3279.1792L13070.3009,-3279.2147L13070.294,-3279.2342L13070.274,-3279.2763L13070.2621,-3279.3048L13070.236,-3279.354L13070.1633,-3279.4189"/>
<path content="1,九州産交バス（株）,鹿8_01_on,9.0,3.0,4.0," xlink:title="1" d="M13069.3359,-3279.2512L13069.3388,-3279.2509L13069.347,-3279.2514L13069.3581,-3279.252L13069.3723,-3279.251L13069.3848,-3279.2509L13069.3999,-3279.2515L13069.4113,-3279.2538L13069.4258,-3279.2653L13069.4394,-3279.2723L13069.453,-3279.2756L13069.4783,-3279.2814L13069.4888,-3279.2836L13069.5263,-3279.2959L13069.5406,-3279.306L13069.5508,-3279.3115L13069.5587,-3279.315L13069.566,-3279.3175L13069.5807,-3279.3195L13069.5862,-3279.328L13069.5879,-3279.3348L13069.5991,-3279.352L13069.6037,-3279.3627L13069.6093,-3279.3739L13069.6142,-3279.3831L13069.6336,-3279.4189"/>
<path content="1,名鉄バス（株）,名古屋～熊本,1.0,1.0,1.0," xlink:title="1" d="M13070.1606,-3279.4189L13070.2303,-3279.355L13070.2431,-3279.3374L13070.2671,-3279.2856L13070.3151,-3279.179L13070.2706,-3279.1601L13070.2018,-3279.1351L13070.1457,-3279.1154L13070.1023,-3279.0996L13070.0374,-3279.08L13069.9723,-3279.0624L13069.9376,-3279.0539L13069.8829,-3279.041L13069.8522,-3279.0342L13069.7857,-3279.0207L13069.7331,-3279.0112L13069.7062,-3279.0066L13069.6408,-3278.9959L13069.5653,-3278.9861L13069.4757,-3278.978L13069.4147,-3278.9758L13069.4101,-3278.9756L13069.3359,-3278.9711"/>
<path content="1,大分バス（株）,熊本特急（やまびこ号）,10.0,10.0,10.0," xlink:title="1" d="M13069.3359,-3279.2512L13069.3388,-3279.2509L13069.347,-3279.2514L13069.3581,-3279.252L13069.3723,-3279.251L13069.3848,-3279.2509L13069.3999,-3279.2515L13069.4113,-3279.2538L13069.4258,-3279.2653L13069.4394,-3279.2723L13069.453,-3279.2756L13069.4783,-3279.2814L13069.4888,-3279.2836L13069.5263,-3279.2959L13069.5406,-3279.306L13069.5508,-3279.3115L13069.5587,-3279.315L13069.566,-3279.3175L13069.5807,-3279.3195L13069.6119,-3279.3065L13069.644,-3279.3031L13069.7249,-3279.3008L13069.7281,-3279.3126L13069.7427,-3279.3478L13069.7729,-3279.4174L13069.7735,-3279.4189"/>
<path content="1,宮崎交通（株）,宮崎～熊本（なんぷう号ノンストップ）,4.0,4.0,4.0," xlink:title="1" d="M13070.1231,-3279.4189L13070.1192,-3279.4147L13070.0552,-3279.3733L13070.0296,-3279.3605L13069.9529,-3279.3312L13069.9169,-3279.3216L13069.8908,-3279.3177L13069.8782,-3279.3149L13069.8389,-3279.3087L13069.7989,-3279.3047L13069.7249,-3279.3008L13069.644,-3279.3031L13069.6119,-3279.3065L13069.5807,-3279.3195L13069.566,-3279.3175L13069.5587,-3279.315L13069.5508,-3279.3115L13069.5406,-3279.306L13069.5263,-3279.2959L13069.4888,-3279.2836L13069.4783,-3279.2814L13069.453,-3279.2756L13069.4394,-3279.2723L13069.4258,-3279.2653L13069.4113,-3279.2538L13069.3999,-3279.2515L13069.3848,-3279.2509L13069.3723,-3279.251L13069.3581,-3279.252L13069.347,-3279.2514L13069.3388,-3279.2509L13069.3359,-3279.2512"/>
<path content="1,宮崎交通（株）,延岡-熊本,1.0,1.0,1.0," xlink:title="1" d="M13070.1231,-3279.4189L13070.1192,-3279.4147L13070.0552,-3279.3733L13070.0296,-3279.3605L13069.9529,-3279.3312L13069.9169,-3279.3216L13069.8908,-3279.3177L13069.8782,-3279.3149L13069.8389,-3279.3087L13069.7989,-3279.3047L13069.7249,-3279.3008L13069.644,-3279.3031L13069.6119,-3279.3065L13069.5807,-3279.3195L13069.566,-3279.3175L13069.5587,-3279.315L13069.5508,-3279.3115L13069.5406,-3279.306L13069.5263,-3279.2959L13069.4888,-3279.2836L13069.4783,-3279.2814L13069.453,-3279.2756L13069.4394,-3279.2723L13069.4258,-3279.2653L13069.4113,-3279.2538L13069.3999,-3279.2515L13069.3848,-3279.2509L13069.3723,-3279.251L13069.3581,-3279.252L13069.347,-3279.2514L13069.3388,-3279.2509L13069.3359,-3279.2512"/>
<path content="1,熊本バス（株）,南11,8.0,5.0,5.0," xlink:title="1" d="M13070.324,-3278.3203L13070.3232,-3278.3244L13070.3184,-3278.3489L13070.3127,-3278.3755L13070.3091,-3278.4373L13070.3031,-3278.5091L13070.3484,-3278.5197L13070.3751,-3278.5275L13070.4346,-3278.5391"/>
<path content="1,熊本バス（株）,南12,2.0,2.0,2.0," xlink:title="1" d="M13070.324,-3278.3203L13070.3232,-3278.3244L13070.3184,-3278.3489L13070.3127,-3278.3755L13070.3091,-3278.4373L13070.3031,-3278.5091L13070.3484,-3278.5197L13070.3751,-3278.5275L13070.4346,-3278.5391"/>
<path content="1,熊本バス（株）,南14,28.5,32.5,22.0," xlink:title="1" d="M13069.6336,-3279.4189L13069.6142,-3279.3831L13069.6093,-3279.3739L13069.6037,-3279.3627L13069.5991,-3279.352L13069.5879,-3279.3348L13069.5862,-3279.328L13069.5807,-3279.3195L13069.566,-3279.3175L13069.5587,-3279.315L13069.5508,-3279.3115L13069.5406,-3279.306L13069.5263,-3279.2959L13069.4888,-3279.2836L13069.4783,-3279.2814L13069.453,-3279.2756L13069.4394,-3279.2723L13069.4258,-3279.2653L13069.4113,-3279.2538L13069.3999,-3279.2515L13069.3848,-3279.2509L13069.3723,-3279.251L13069.3581,-3279.252L13069.347,-3279.2514L13069.3388,-3279.2509L13069.3359,-3279.2512"/>
<path content="1,熊本バス（株）,南9,16.5,10.5,13.5," xlink:title="1" d="M13069.6336,-3279.4189L13069.6142,-3279.3831L13069.6093,-3279.3739L13069.6037,-3279.3627L13069.5991,-3279.352L13069.5879,-3279.3348L13069.5862,-3279.328L13069.5807,-3279.3195L13069.566,-3279.3175L13069.5587,-3279.315L13069.5508,-3279.3115L13069.5406,-3279.306L13069.5263,-3279.2959L13069.4888,-3279.2836L13069.4783,-3279.2814L13069.453,-3279.2756L13069.4394,-3279.2723L13069.4258,-3279.2653L13069.4113,-3279.2538L13069.3999,-3279.2515L13069.3848,-3279.2509L13069.3723,-3279.251L13069.3581,-3279.252L13069.347,-3279.2514L13069.3388,-3279.2509L13069.3359,-3279.2512"/>
<path content="1,熊本バス（株）,川1,13.5,13.0,12.5," xlink:title="1" d="M13070.1633,-3279.4189L13070.236,-3279.354L13070.2621,-3279.3048L13070.274,-3279.2763L13070.294,-3279.2342L13070.3009,-3279.2147L13070.3178,-3279.1792L13070.2419,-3279.0696L13070.1372,-3278.9074L13070.05,-3278.7713L13069.9835,-3278.6635L13069.9589,-3278.629L13069.9399,-3278.5965L13069.8377,-3278.4346L13069.8175,-3278.4046L13069.8043,-3278.3818L13069.79,-3278.3545L13069.7805,-3278.3322L13069.776,-3278.3203"/>
<path content="1,熊本バス（株）,川13,2.0,1.0,1.0," xlink:title="1" d="M13070.1633,-3279.4189L13070.236,-3279.354L13070.2621,-3279.3048L13070.274,-3279.2763L13070.294,-3279.2342L13070.3009,-3279.2147L13070.3178,-3279.1792L13070.2419,-3279.0696L13070.1372,-3278.9074L13070.05,-3278.7713L13069.9835,-3278.6635L13069.9589,-3278.629L13069.9399,-3278.5965L13069.8377,-3278.4346L13069.8175,-3278.4046L13069.8043,-3278.3818L13069.79,-3278.3545L13069.7805,-3278.3322L13069.776,-3278.3203"/>
<path content="1,熊本バス（株）,川尻城南線（交通センター～城南）,2.0,1.0,1.0," xlink:title="1" d="M13070.1633,-3279.4189L13070.236,-3279.354L13070.2621,-3279.3048L13070.274,-3279.2763L13070.294,-3279.2342L13070.3009,-3279.2147L13070.3178,-3279.1792L13070.2419,-3279.0696L13070.1372,-3278.9074L13070.05,-3278.7713L13069.9835,-3278.6635L13069.9589,-3278.629L13069.9399,-3278.5965L13069.8377,-3278.4346L13069.8175,-3278.4046L13069.8043,-3278.3818L13069.79,-3278.3545L13069.7805,-3278.3322L13069.776,-3278.3203"/>
<path content="1,熊本バス（株）,川尻線（交通センター～川尻）,13.5,13.0,12.5," xlink:title="1" d="M13070.1633,-3279.4189L13070.236,-3279.354L13070.2621,-3279.3048L13070.274,-3279.2763L13070.294,-3279.2342L13070.3009,-3279.2147L13070.3178,-3279.1792L13070.2419,-3279.0696L13070.1372,-3278.9074L13070.05,-3278.7713L13069.9835,-3278.6635L13069.9589,-3278.629L13069.9399,-3278.5965L13069.8377,-3278.4346L13069.8175,-3278.4046L13069.8043,-3278.3818L13069.79,-3278.3545L13069.7805,-3278.3322L13069.776,-3278.3203"/>
<path content="1,熊本バス（株）,東11,5.5,6.0,6.0," xlink:title="1" d="M13069.6336,-3279.4189L13069.6142,-3279.3831L13069.6093,-3279.3739L13069.6037,-3279.3627L13069.5991,-3279.352L13069.5879,-3279.3348L13069.5862,-3279.328L13069.5807,-3279.3195L13069.566,-3279.3175L13069.5587,-3279.315L13069.5508,-3279.3115L13069.5406,-3279.306L13069.5263,-3279.2959L13069.4888,-3279.2836L13069.4783,-3279.2814L13069.453,-3279.2756L13069.4394,-3279.2723L13069.4258,-3279.2653L13069.4113,-3279.2538L13069.3999,-3279.2515L13069.3848,-3279.2509L13069.3723,-3279.251L13069.3581,-3279.252L13069.347,-3279.2514L13069.3388,-3279.2509L13069.3359,-3279.2512"/>
<path content="1,熊本バス（株）,流通団地線（交通センター～御幸病院・下近見・東バイパス環状）,10.0,7.0,7.0," xlink:title="1" d="M13070.324,-3278.3203L13070.3232,-3278.3244L13070.3184,-3278.3489L13070.3127,-3278.3755L13070.3091,-3278.4373L13070.3031,-3278.5091L13070.3484,-3278.5197L13070.3751,-3278.5275L13070.4346,-3278.5391"/>
<path content="1,熊本都市バス（株）,アクアドーム線,9.0,8.0,8.0," xlink:title="1" d="M13069.3359,-3279.2512L13069.3388,-3279.2509L13069.347,-3279.2514L13069.3581,-3279.252L13069.3723,-3279.251L13069.3848,-3279.2509L13069.3999,-3279.2515L13069.4113,-3279.2538L13069.4258,-3279.2653L13069.4394,-3279.2723L13069.453,-3279.2756L13069.4783,-3279.2814L13069.4888,-3279.2836L13069.5263,-3279.2959L13069.5406,-3279.306L13069.5508,-3279.3115L13069.5587,-3279.315L13069.566,-3279.3175L13069.5807,-3279.3195L13069.5862,-3279.328L13069.5879,-3279.3348L13069.5991,-3279.352L13069.6037,-3279.3627L13069.6093,-3279.3739L13069.6142,-3279.3831L13069.6336,-3279.4189"/>
<path content="1,熊本都市バス（株）,中央環状線,29.0,23.0,22.0," xlink:title="1" d="M13070.4346,-3278.5391L13070.3751,-3278.5275L13070.3484,-3278.5197L13070.3031,-3278.5091L13070.1614,-3278.4783L13070.1086,-3278.4659L13069.864,-3278.4147L13069.8175,-3278.4046L13069.8096,-3278.4058L13069.7393,-3278.4048L13069.6624,-3278.411L13069.4275,-3278.4198L13069.3359,-3278.4229M13069.3359,-3278.9737L13069.4162,-3278.9751L13069.5057,-3278.9811L13069.5827,-3278.989L13069.5997,-3278.9907L13069.6645,-3278.9975L13069.7064,-3279.0056L13069.7677,-3279.0172L13069.7966,-3279.0235L13069.8908,-3279.0408L13069.9403,-3279.0544L13069.9833,-3279.0642L13070.01,-3279.0702L13070.0417,-3279.0794L13070.0952,-3279.0964L13070.1622,-3279.1192L13070.204,-3279.1354L13070.3178,-3279.1792L13070.3499,-3279.1898L13070.4346,-3279.217"/>
<path content="1,熊本都市バス（株）,本山車庫線,20.0,15.0,12.0," xlink:title="1" d="M13069.6336,-3279.4189L13069.6142,-3279.3831L13069.6093,-3279.3739L13069.6037,-3279.3627L13069.5991,-3279.352L13069.5879,-3279.3348L13069.5862,-3279.328L13069.5807,-3279.3195L13069.566,-3279.3175L13069.5587,-3279.315L13069.5508,-3279.3115L13069.5406,-3279.306L13069.5263,-3279.2959L13069.4888,-3279.2836L13069.4783,-3279.2814L13069.453,-3279.2756L13069.4394,-3279.2723L13069.4258,-3279.2653L13069.4113,-3279.2538L13069.3999,-3279.2515L13069.3848,-3279.2509L13069.3723,-3279.251L13069.3581,-3279.252L13069.347,-3279.2514L13069.3388,-3279.2509L13069.3359,-3279.2512M13069.3359,-3278.9737L13069.4162,-3278.9751L13069.5057,-3278.9811L13069.5827,-3278.989L13069.5997,-3278.9907L13069.6645,-3278.9975L13069.7064,-3279.0056L13069.7677,-3279.0172L13069.7966,-3279.0235L13069.8908,-3279.0408L13069.9403,-3279.0544L13069.9833,-3279.0642L13070.01,-3279.0702L13070.0417,-3279.0794L13070.0952,-3279.0964L13070.1622,-3279.1192L13070.204,-3279.1354L13070.3178,-3279.1792L13070.3009,-3279.2147L13070.294,-3279.2342L13070.274,-3279.2763L13070.2621,-3279.3048L13070.236,-3279.354L13070.1633,-3279.4189"/>
<path content="1,熊本都市バス（株）,流通団地線,36.0,21.0,22.0," xlink:title="1" d="M13069.3359,-3279.2512L13069.3388,-3279.2509L13069.347,-3279.2514L13069.3581,-3279.252L13069.3723,-3279.251L13069.3848,-3279.2509L13069.3999,-3279.2515L13069.4113,-3279.2538L13069.4258,-3279.2653L13069.4394,-3279.2723L13069.453,-3279.2756L13069.4783,-3279.2814L13069.4888,-3279.2836L13069.5263,-3279.2959L13069.5406,-3279.306L13069.5508,-3279.3115L13069.5587,-3279.315L13069.566,-3279.3175L13069.5807,-3279.3195L13069.5862,-3279.328L13069.5879,-3279.3348L13069.5991,-3279.352L13069.6037,-3279.3627L13069.6093,-3279.3739L13069.6142,-3279.3831L13069.6336,-3279.4189"/>
<path content="1,熊本都市バス（株）,流通団地線,36.0,21.0,22.0," xlink:title="1" d="M13070.4346,-3278.5391L13070.3751,-3278.5275L13070.3484,-3278.5197L13070.3031,-3278.5091L13070.3091,-3278.4373L13070.3127,-3278.3755L13070.3184,-3278.3489L13070.3232,-3278.3244L13070.324,-3278.3203"/>
<path content="1,熊本都市バス（株）,第一環状線,124.0,97.0,81.0," xlink:title="1" d="M13069.4745,-3279.4189L13069.4386,-3279.3345L13069.435,-3279.3263L13069.3999,-3279.2515L13069.3848,-3279.2509L13069.3723,-3279.251L13069.3581,-3279.252L13069.347,-3279.2514L13069.3388,-3279.2509L13069.3359,-3279.2512M13069.3359,-3278.9737L13069.4162,-3278.9751L13069.5057,-3278.9811L13069.5827,-3278.989L13069.5997,-3278.9907L13069.6645,-3278.9975L13069.7064,-3279.0056L13069.7677,-3279.0172L13069.7966,-3279.0235L13069.8908,-3279.0408L13069.9403,-3279.0544L13069.9833,-3279.0642L13070.01,-3279.0702L13070.0417,-3279.0794L13070.0952,-3279.0964L13070.1622,-3279.1192L13070.204,-3279.1354L13070.3178,-3279.1792L13070.3499,-3279.1898L13070.4346,-3279.217"/>
<path content="1,熊本電気鉄道（株）,北1,77.2,38.0,30.0," xlink:title="1" d="M13069.3359,-3279.2512L13069.3388,-3279.2509L13069.347,-3279.2514L13069.3581,-3279.252L13069.3723,-3279.251L13069.3848,-3279.2509L13069.3999,-3279.2515L13069.4113,-3279.2538L13069.4258,-3279.2653L13069.4394,-3279.2723L13069.453,-3279.2756L13069.4783,-3279.2814L13069.4888,-3279.2836L13069.5263,-3279.2959L13069.5406,-3279.306L13069.5508,-3279.3115L13069.5587,-3279.315L13069.566,-3279.3175L13069.5807,-3279.3195L13069.5862,-3279.328L13069.5879,-3279.3348L13069.5991,-3279.352L13069.6037,-3279.3627L13069.6093,-3279.3739L13069.6142,-3279.3831L13069.6336,-3279.4189"/>
<path content="1,熊本電気鉄道（株）,北3,12.0,14.0,14.0," xlink:title="1" d="M13069.3359,-3279.2512L13069.3388,-3279.2509L13069.347,-3279.2514L13069.3581,-3279.252L13069.3723,-3279.251L13069.3848,-3279.2509L13069.3999,-3279.2515L13069.4113,-3279.2538L13069.4258,-3279.2653L13069.4394,-3279.2723L13069.453,-3279.2756L13069.4783,-3279.2814L13069.4888,-3279.2836L13069.5263,-3279.2959L13069.5406,-3279.306L13069.5508,-3279.3115L13069.5587,-3279.315L13069.566,-3279.3175L13069.5807,-3279.3195L13069.5862,-3279.328L13069.5879,-3279.3348L13069.5991,-3279.352L13069.6037,-3279.3627L13069.6093,-3279.3739L13069.6142,-3279.3831L13069.6336,-3279.4189"/>
<path content="1,熊本電気鉄道（株）,北5,82.0,65.0,65.0," xlink:title="1" d="M13069.3359,-3279.2512L13069.3388,-3279.2509L13069.347,-3279.2514L13069.3581,-3279.252L13069.3723,-3279.251L13069.3848,-3279.2509L13069.3999,-3279.2515L13069.4113,-3279.2538L13069.4258,-3279.2653L13069.4394,-3279.2723L13069.453,-3279.2756L13069.4783,-3279.2814L13069.4888,-3279.2836L13069.5263,-3279.2959L13069.5406,-3279.306L13069.5508,-3279.3115L13069.5587,-3279.315L13069.566,-3279.3175L13069.5807,-3279.3195L13069.5862,-3279.328L13069.5879,-3279.3348L13069.5991,-3279.352L13069.6037,-3279.3627L13069.6093,-3279.3739L13069.6142,-3279.3831L13069.6336,-3279.4189"/>
<path content="1,熊本電気鉄道（株）,北9,46.2,64.0,54.0," xlink:title="1" d="M13069.3359,-3279.2512L13069.3388,-3279.2509L13069.347,-3279.2514L13069.3581,-3279.252L13069.3723,-3279.251L13069.3848,-3279.2509L13069.3999,-3279.2515L13069.4113,-3279.2538L13069.4258,-3279.2653L13069.4394,-3279.2723L13069.453,-3279.2756L13069.4783,-3279.2814L13069.4888,-3279.2836L13069.5263,-3279.2959L13069.5406,-3279.306L13069.5508,-3279.3115L13069.5587,-3279.315L13069.566,-3279.3175L13069.5807,-3279.3195L13069.5862,-3279.328L13069.5879,-3279.3348L13069.5991,-3279.352L13069.6037,-3279.3627L13069.6093,-3279.3739L13069.6142,-3279.3831L13069.6336,-3279.4189"/>
<path content="1,熊本電気鉄道（株）,新地団地線,82.0,65.0,65.0," xlink:title="1" d="M13069.3359,-3279.2512L13069.3388,-3279.2509L13069.347,-3279.2514L13069.3581,-3279.252L13069.3723,-3279.251L13069.3848,-3279.2509L13069.3999,-3279.2515L13069.4113,-3279.2538L13069.4258,-3279.2653L13069.4394,-3279.2723L13069.453,-3279.2756L13069.4783,-3279.2814L13069.4888,-3279.2836L13069.5263,-3279.2959L13069.5406,-3279.306L13069.5508,-3279.3115L13069.5587,-3279.315L13069.566,-3279.3175L13069.5807,-3279.3195L13069.5862,-3279.328L13069.5879,-3279.3348L13069.5991,-3279.352L13069.6037,-3279.3627L13069.6093,-3279.3739L13069.6142,-3279.3831L13069.6336,-3279.4189"/>
<path content="1,熊本電気鉄道（株）,清水ヶ丘線,46.2,64.0,54.0," xlink:title="1" d="M13069.3359,-3279.2512L13069.3388,-3279.2509L13069.347,-3279.2514L13069.3581,-3279.252L13069.3723,-3279.251L13069.3848,-3279.2509L13069.3999,-3279.2515L13069.4113,-3279.2538L13069.4258,-3279.2653L13069.4394,-3279.2723L13069.453,-3279.2756L13069.4783,-3279.2814L13069.4888,-3279.2836L13069.5263,-3279.2959L13069.5406,-3279.306L13069.5508,-3279.3115L13069.5587,-3279.315L13069.566,-3279.3175L13069.5807,-3279.3195L13069.5862,-3279.328L13069.5879,-3279.3348L13069.5991,-3279.352L13069.6037,-3279.3627L13069.6093,-3279.3739L13069.6142,-3279.3831L13069.6336,-3279.4189"/>
<path content="1,熊本電気鉄道（株）,菊池線,77.2,38.0,30.0," xlink:title="1" d="M13069.3359,-3279.2512L13069.3388,-3279.2509L13069.347,-3279.2514L13069.3581,-3279.252L13069.3723,-3279.251L13069.3848,-3279.2509L13069.3999,-3279.2515L13069.4113,-3279.2538L13069.4258,-3279.2653L13069.4394,-3279.2723L13069.453,-3279.2756L13069.4783,-3279.2814L13069.4888,-3279.2836L13069.5263,-3279.2959L13069.5406,-3279.306L13069.5508,-3279.3115L13069.5587,-3279.315L13069.566,-3279.3175L13069.5807,-3279.3195L13069.5862,-3279.328L13069.5879,-3279.3348L13069.5991,-3279.352L13069.6037,-3279.3627L13069.6093,-3279.3739L13069.6142,-3279.3831L13069.6336,-3279.4189"/>
<path content="1,産交バス（株）,熊本～宮崎（なんぷう号ノンストップ）,7.5,7.5,7.5," xlink:title="1" d="M13069.3359,-3278.9737L13069.4162,-3278.9751L13069.5057,-3278.9811L13069.5827,-3278.989L13069.5997,-3278.9907L13069.6645,-3278.9975L13069.7064,-3279.0056L13069.7677,-3279.0172L13069.7966,-3279.0235L13069.8908,-3279.0408L13069.9403,-3279.0544L13069.9833,-3279.0642L13070.01,-3279.0702L13070.0417,-3279.0794L13070.0952,-3279.0964L13070.1622,-3279.1192L13070.204,-3279.1354L13070.3178,-3279.1792L13070.3009,-3279.2147L13070.294,-3279.2342L13070.274,-3279.2763L13070.2621,-3279.3048L13070.236,-3279.354L13070.1633,-3279.4189"/>
<path content="1,産交バス（株）,熊本～宮崎（なんぷう号各停）,6.5,6.5,6.5," xlink:title="1" d="M13069.3359,-3278.9737L13069.4162,-3278.9751L13069.5057,-3278.9811L13069.5827,-3278.989L13069.5997,-3278.9907L13069.6645,-3278.9975L13069.7064,-3279.0056L13069.7677,-3279.0172L13069.7966,-3279.0235L13069.8908,-3279.0408L13069.9403,-3279.0544L13069.9833,-3279.0642L13070.01,-3279.0702L13070.0417,-3279.0794L13070.0952,-3279.0964L13070.1622,-3279.1192L13070.204,-3279.1354L13070.3178,-3279.1792L13070.3009,-3279.2147L13070.294,-3279.2342L13070.274,-3279.2763L13070.2621,-3279.3048L13070.236,-3279.354L13070.1633,-3279.4189"/>
<path content="2,熊本市,小峯京塚線,224.0,193.5,175.0," xlink:title="2" d="M13069.3359,-3279.2512L13069.3388,-3279.2509L13069.347,-3279.2514L13069.3581,-3279.252L13069.3723,-3279.251L13069.3848,-3279.2509L13069.3999,-3279.2515L13069.4113,-3279.2538L13069.4258,-3279.2653L13069.4394,-3279.2723L13069.453,-3279.2756L13069.4783,-3279.2814L13069.4888,-3279.2836L13069.5263,-3279.2959L13069.5406,-3279.306L13069.5508,-3279.3115L13069.5587,-3279.315L13069.566,-3279.3175L13069.5807,-3279.3195L13069.5862,-3279.328L13069.5879,-3279.3348L13069.5991,-3279.352L13069.6037,-3279.3627L13069.6093,-3279.3739L13069.6142,-3279.3831L13069.6336,-3279.4189"/>
<path content="2,熊本市,熊本駅県庁線,6.0,0.0,0.0," xlink:title="2" d="M13070.4346,-3279.217L13070.3499,-3279.1898L13070.3178,-3279.1792L13070.204,-3279.1354L13070.1622,-3279.1192L13070.0952,-3279.0964L13070.0417,-3279.0794L13070.01,-3279.0702L13069.9833,-3279.0642L13069.9403,-3279.0544L13069.8908,-3279.0408L13069.7966,-3279.0235L13069.7677,-3279.0172L13069.7064,-3279.0056L13069.6645,-3278.9975L13069.5997,-3278.9907L13069.5827,-3278.989L13069.5057,-3278.9811L13069.4162,-3278.9751L13069.3359,-3278.9737"/>
<path content="2,熊本市,熊本駅長嶺線,1.0,0.0,0.0," xlink:title="2" d="M13070.4346,-3279.217L13070.3499,-3279.1898L13070.3178,-3279.1792L13070.204,-3279.1354L13070.1622,-3279.1192L13070.0952,-3279.0964L13070.0417,-3279.0794L13070.01,-3279.0702L13069.9833,-3279.0642L13069.9403,-3279.0544L13069.8908,-3279.0408L13069.7966,-3279.0235L13069.7677,-3279.0172L13069.7064,-3279.0056L13069.6645,-3278.9975L13069.5997,-3278.9907L13069.5827,-3278.989L13069.5057,-3278.9811L13069.4162,-3278.9751L13069.3359,-3278.9737"/>
<path content="2,長崎県,高速バス長崎～熊本（りんどう号）,8.0,8.0,8.0," xlink:title="2" d="M13069.3359,-3278.9737L13069.4162,-3278.9751L13069.5057,-3278.9811L13069.5827,-3278.989L13069.5997,-3278.9907L13069.6645,-3278.9975L13069.7064,-3279.0056L13069.7677,-3279.0172L13069.7966,-3279.0235L13069.8908,-3279.0408L13069.9403,-3279.0544L13069.9833,-3279.0642L13070.01,-3279.0702L13070.0417,-3279.0794L13070.0952,-3279.0964L13070.1622,-3279.1192L13070.204,-3279.1354L13070.3178,-3279.1792L13070.3009,-3279.2147L13070.294,-3279.2342L13070.274,-3279.2763L13070.2621,-3279.3048L13070.236,-3279.354L13070.1633,-3279.4189"/>
</g>
</svg>
