<?xml version="1.0" encoding="UTF-8"?>
<svg  xmlns="http://www.w3.org/2000/svg" xmlns:xlink="http://www.w3.org/1999/xlink" xmlns:go="http://purl.org/svgmap/profile" property="N07_001,N07_002,N07_003,N07_004,N07_005,N07_006,N07_007" viewBox="13754.8828125 -3489.2578125 4.39453125 4.39453125" go:dataArea="13754.8828125 -3489.2578125 4.39453125 4.39453125" >
<metadata>
 <rdf:RDF xmlns:rdf="http://www.w3.org/1999/02/22-rdf-syntax-ns#" xmlns:crs="http://opengis.org/xmldtds/transformations.dtd" xmlns:svg="http://www.w3.org/svg" >
  <rdf:Description>
   <crs:CoordinateReferenceSystem rdf:resource="http://purl.org/crs/84" svg:transform="matrix(100.0,0.0,0.0,-100.0,0.0,0.0)" />
  </rdf:Description>
 </rdf:RDF>
</metadata>
<globalCoordinateSystem srsName="http://purl.org/crs/84" transform="matrix(100.0,0.0,0.0,-100.0,0.0,0.0)" />
<defs>
 <g id="p0" >
  <circle cx="0.0" cy="0.0" r="3" stroke="green" stroke-width="0.75" vector-effect="non-scaling-stroke" />
 </g>
</defs>
<g fill="none" fill-rule="evenodd" stroke="#FF00FF" stroke-width="0.75" opacity="0.5" vector-effect="non-scaling-stroke" stroke-linejoin="bevel" >
<path content="3,新城市,吉川市川線_01_on,4.0,4.0,4.0," xlink:title="3" d="M13754.8828,-3488.3051L13754.8919,-3488.3011L13754.9247,-3488.2786L13754.9302,-3488.2757L13754.9404,-3488.2701L13754.9582,-3488.269L13754.9985,-3488.2735L13755.0251,-3488.2747L13755.0809,-3488.2727"/>
<path content="3,新城市,吉川市川線_02_on,4.0,4.0,4.0," xlink:title="3" d="M13754.8828,-3488.3051L13754.8919,-3488.3011L13754.9247,-3488.2786L13754.9302,-3488.2757L13754.9404,-3488.2701L13754.9582,-3488.269L13754.9985,-3488.2735L13755.0251,-3488.2747L13755.0809,-3488.2727L13755.1583,-3488.2493L13755.1734,-3488.2493L13755.1959,-3488.2549L13755.269,-3488.2713L13755.2949,-3488.2713L13755.3079,-3488.2679L13755.3571,-3488.2516L13755.3626,-3488.251L13755.3646,-3488.2499L13755.4924,-3488.2274L13755.504,-3488.2251L13755.5143,-3488.224L13755.536,-3488.2166"/>
<path content="3,新城市,長篠山吉田線,6.0,0.0,0.0," xlink:title="3" d="M13758.3859,-3489.2578L13758.3696,-3489.2395L13758.3641,-3489.2316L13758.3628,-3489.2187L13758.3546,-3489.119L13758.3505,-3489.0711L13758.3491,-3489.048L13758.3471,-3489.0401L13758.3453,-3489.0372L13758.3436,-3489.0345L13758.3409,-3489.03L13758.3279,-3489.0199L13758.2651,-3488.9849L13758.2296,-3488.9647L13758.2268,-3488.9641L13758.207,-3488.9528L13758.1872,-3488.9387L13758.1483,-3488.9014L13758.1209,-3488.8751L13758.1114,-3488.865L13758.1074,-3488.8607L13758.1018,-3488.8548L13758.0929,-3488.8436L13758.0909,-3488.8385L13758.082,-3488.8199L13758.0783,-3488.7987L13758.0759,-3488.7878L13758.0766,-3488.7715L13758.0813,-3488.7563L13758.0888,-3488.7462L13758.1168,-3488.7186L13758.1196,-3488.7107L13758.1203,-3488.6904L13758.1175,-3488.6808L13758.1271,-3488.6774L13758.1612,-3488.6701L13758.1927,-3488.6645L13758.2664,-3488.6639L13758.2821,-3488.6594L13758.3143,-3488.6459L13758.3639,-3488.6244L13758.4003,-3488.6183L13758.455,-3488.6177L13758.4775,-3488.6155L13758.5083,-3488.6082L13758.5588,-3488.5958L13758.6169,-3488.5868L13758.6463,-3488.5811L13758.6681,-3488.5761L13758.6852,-3488.5721L13758.7105,-3488.5716L13758.7412,-3488.5693L13758.7815,-3488.5671L13758.7883,-3488.5648L13758.8027,-3488.5558L13758.8471,-3488.5304L13758.8799,-3488.5192L13758.9127,-3488.5119L13758.9332,-3488.5091L13758.9537,-3488.504L13758.9666,-3488.4978L13758.9844,-3488.4832L13758.9899,-3488.4753L13759.0042,-3488.4612L13759.0411,-3488.419L13759.1087,-3488.3294L13759.1121,-3488.3199L13759.1128,-3488.3097L13759.1074,-3488.2928L13759.0958,-3488.2703L13759.0834,-3488.2534L13759.0664,-3488.2326L13759.0409,-3488.1946L13759.0336,-3488.1836L13759.024,-3488.1633L13759.0195,-3488.1338L13758.9715,-3488.1096L13758.914,-3488.081L13758.9011,-3488.076L13758.8881,-3488.0771L13758.873,-3488.0799L13758.871,-3488.0805L13758.8239,-3488.0895L13758.8123,-3488.0901L13758.7918,-3488.0889L13758.7808,-3488.0861L13758.7276,-3488.0754L13758.6654,-3488.0636L13758.5854,-3488.0506L13758.5288,-3488.0427L13758.4741,-3488.0343L13758.4523,-3488.0287L13758.4331,-3488.0219L13758.414,-3488.0123L13758.3634,-3487.9858L13758.3095,-3487.9532L13758.2781,-3487.9318L13758.2487,-3487.9076L13758.1947,-3487.8546L13758.192,-3487.8507L13758.1845,-3487.8439L13758.1496,-3487.8067L13758.1374,-3487.791L13758.1244,-3487.7707L13758.1025,-3487.7279L13758.095,-3487.7166L13758.0786,-3487.6981L13758.0404,-3487.6626L13757.957,-3487.5871L13757.9413,-3487.5685L13757.901,-3487.5054L13757.8908,-3487.4857L13757.888,-3487.4705L13757.8887,-3487.4334L13757.8971,-3487.3801L13757.9036,-3487.3476L13757.9051,-3487.3376L13757.9051,-3487.337L13757.9063,-3487.2819L13757.9072,-3487.2402L13757.8969,-3487.1822L13757.8942,-3487.1461L13757.8942,-3487.1202L13757.9017,-3487.0937L13757.908,-3487.0734L13757.9125,-3487.0588L13757.9194,-3487.0413L13757.931,-3487.0114L13757.9369,-3486.9942L13757.9397,-3486.9846L13757.9372,-3486.9783L13757.9174,-3486.9462L13757.9017,-3486.9039L13757.8942,-3486.8887L13757.8853,-3486.8769L13757.8662,-3486.8516L13757.8573,-3486.8431L13757.8382,-3486.8285L13757.8273,-3486.8155L13757.7897,-3486.7479L13757.72,-3486.6342L13757.7141,-3486.6263L13757.7098,-3486.6207L13757.7016,-3486.6083L13757.6811,-3486.5881L13757.623,-3486.5272L13757.6319,-3486.5216L13757.7043,-3486.4771L13757.7064,-3486.4759L13757.7064,-3486.4748L13757.7002,-3486.441L13757.6934,-3486.4264L13757.6661,-3486.3976L13757.6435,-3486.3689L13757.6264,-3486.3368L13757.6169,-3486.3143L13757.6121,-3486.3086L13757.5487,-3486.2711"/>
</g>
</svg>
