<?xml version="1.0" encoding="UTF-8"?>
<svg  xmlns="http://www.w3.org/2000/svg" xmlns:xlink="http://www.w3.org/1999/xlink" xmlns:go="http://purl.org/svgmap/profile" property="N07_001,N07_002,N07_003,N07_004,N07_005,N07_006,N07_007" viewBox="13271.484375 -3304.6875 8.7890625 8.7890625" go:dataArea="13271.484375 -3304.6875 8.7890625 8.7890625" >
<metadata>
 <rdf:RDF xmlns:rdf="http://www.w3.org/1999/02/22-rdf-syntax-ns#" xmlns:crs="http://opengis.org/xmldtds/transformations.dtd" xmlns:svg="http://www.w3.org/svg" >
  <rdf:Description>
   <crs:CoordinateReferenceSystem rdf:resource="http://purl.org/crs/84" svg:transform="matrix(100.0,0.0,0.0,-100.0,0.0,0.0)" />
  </rdf:Description>
 </rdf:RDF>
</metadata>
<globalCoordinateSystem srsName="http://purl.org/crs/84" transform="matrix(100.0,0.0,0.0,-100.0,0.0,0.0)" />
<defs>
 <g id="p0" >
  <circle cx="0.0" cy="0.0" r="3" stroke="green" stroke-width="0.75" vector-effect="non-scaling-stroke" />
 </g>
</defs>
<g fill="none" fill-rule="evenodd" stroke="#FF00FF" stroke-width="0.75" opacity="0.5" vector-effect="non-scaling-stroke" stroke-linejoin="bevel" >
<path content="1,小田急シティバス（株）,しまんとエクスプレス号,0.1,0.1,0.1," xlink:title="1" d="M13279.7172,-3295.8984L13279.7731,-3295.9698L13279.8123,-3296.0149L13279.9272,-3296.1598L13279.9341,-3296.1666L13279.9358,-3296.1682L13279.9612,-3296.1964L13279.9993,-3296.2285L13280.0421,-3296.2556L13280.0637,-3296.2689L13280.0701,-3296.2696L13280.0848,-3296.2758L13280.0995,-3296.2787L13280.1035,-3296.2803L13280.1196,-3296.2826L13280.1553,-3296.2852L13280.1872,-3296.2816L13280.2203,-3296.2778L13280.2726,-3296.2731L13280.2734,-3296.2729"/>
<path content="1,小田急バス（株）,しまんとエクスプレス号,1.0,1.0,1.0," xlink:title="1" d="M13279.7172,-3295.8984L13279.7731,-3295.9698L13279.8123,-3296.0149L13279.9272,-3296.1598L13279.9341,-3296.1666L13279.9358,-3296.1682L13279.9612,-3296.1964L13279.9993,-3296.2285L13280.0421,-3296.2556L13280.0637,-3296.2689L13280.0701,-3296.2696L13280.0848,-3296.2758L13280.0995,-3296.2787L13280.1035,-3296.2803L13280.1196,-3296.2826L13280.1553,-3296.2852L13280.1872,-3296.2816L13280.2203,-3296.2778L13280.2726,-3296.2731L13280.2734,-3296.2729"/>
<path content="1,近鉄バス（株）,京都・大阪・神戸⇔中村・宿毛,2.0,2.0,2.0," xlink:title="1" d="M13279.7172,-3295.8984L13279.7731,-3295.9698L13279.8123,-3296.0149L13279.9272,-3296.1598L13279.9341,-3296.1666L13279.9358,-3296.1682L13279.9612,-3296.1964L13279.9993,-3296.2285L13280.0421,-3296.2556L13280.0637,-3296.2689L13280.0848,-3296.2758L13280.0995,-3296.2787L13280.1035,-3296.2803L13280.1196,-3296.2826L13280.1553,-3296.2852L13280.1872,-3296.2816L13280.2203,-3296.2778L13280.2726,-3296.2731L13280.2734,-3296.2729"/>
<path content="1,高知西南交通（株）,しまんとブルーライナー　京都線,1.0,1.0,1.0," xlink:title="1" d="M13279.7172,-3295.8984L13279.7731,-3295.9698L13279.8123,-3296.0149L13279.9272,-3296.1598L13279.9341,-3296.1666L13279.9358,-3296.1682L13279.9612,-3296.1964L13279.9993,-3296.2285L13280.0421,-3296.2556L13280.0637,-3296.2689L13280.0848,-3296.2758L13280.0995,-3296.2787L13280.1035,-3296.2803L13280.1196,-3296.2826L13280.1553,-3296.2852L13280.1872,-3296.2816L13280.2203,-3296.2778L13280.2726,-3296.2731L13280.2734,-3296.2729"/>
<path content="1,高知西南交通（株）,しまんとブルーライナー　大阪線,1.0,1.0,1.0," xlink:title="1" d="M13279.7172,-3295.8984L13279.7731,-3295.9698L13279.8123,-3296.0149L13279.9272,-3296.1598L13279.9341,-3296.1666L13279.9358,-3296.1682L13279.9612,-3296.1964L13279.9993,-3296.2285L13280.0421,-3296.2556L13280.0637,-3296.2689L13280.0848,-3296.2758L13280.0995,-3296.2787L13280.1035,-3296.2803L13280.1196,-3296.2826L13280.1553,-3296.2852L13280.1872,-3296.2816L13280.2203,-3296.2778L13280.2726,-3296.2731L13280.2734,-3296.2729"/>
<path content="1,高知西南交通（株）,大月町内線（柏島・一切・安満地・西泊・春遠・小才角→ふれあい大月行）,14.0,8.0,4.0," xlink:title="1" d="M13279.7172,-3295.8984L13279.7731,-3295.9698L13279.8123,-3296.0149L13279.9272,-3296.1598L13279.9341,-3296.1666L13279.9358,-3296.1682L13279.9612,-3296.1964L13279.9993,-3296.2285L13280.0421,-3296.2556L13280.0637,-3296.2689L13280.0848,-3296.2758L13280.0995,-3296.2787L13280.1035,-3296.2803L13280.1196,-3296.2826L13280.1553,-3296.2852L13280.1872,-3296.2816L13280.2203,-3296.2778L13280.2726,-3296.2731L13280.2734,-3296.2729"/>
<path content="1,高知西南交通（株）,東回り,25.0,22.0,18.0," xlink:title="1" d="M13279.7172,-3295.8984L13279.7731,-3295.9698L13279.8123,-3296.0149L13279.9272,-3296.1598L13279.9341,-3296.1666L13279.9358,-3296.1682L13279.9612,-3296.1964L13279.9993,-3296.2285L13280.0421,-3296.2556L13280.0637,-3296.2689L13280.0848,-3296.2758L13280.0995,-3296.2787L13280.1035,-3296.2803L13280.1196,-3296.2826L13280.1553,-3296.2852L13280.1872,-3296.2816L13280.2203,-3296.2778L13280.2726,-3296.2731L13280.2734,-3296.2729"/>
<path content="1,高知西南交通（株）,西回り,25.0,23.0,20.0," xlink:title="1" d="M13279.7172,-3295.8984L13279.7731,-3295.9698L13279.8123,-3296.0149L13279.9272,-3296.1598L13279.9341,-3296.1666L13279.9358,-3296.1682L13279.9612,-3296.1964L13279.9993,-3296.2285L13280.0421,-3296.2556L13280.0637,-3296.2689L13280.0848,-3296.2758L13280.0995,-3296.2787L13280.1035,-3296.2803L13280.1196,-3296.2826L13280.1553,-3296.2852L13280.1872,-3296.2816L13280.2203,-3296.2778L13280.2726,-3296.2731L13280.2734,-3296.2729"/>
<path content="3,三原村,南便,5.0,0.0,1.0," xlink:title="3" d="M13279.7731,-3295.9698L13279.7172,-3295.8984"/>
<path content="3,三原村,東便,5.0,0.0,1.0," xlink:title="3" d="M13279.7731,-3295.9698L13279.7172,-3295.8984"/>
<path content="3,三原村,西便,5.0,0.0,1.0," xlink:title="3" d="M13279.7731,-3295.9698L13279.7172,-3295.8984"/>
</g>
</svg>
