<?xml version="1.0" encoding="UTF-8"?>
<svg  xmlns="http://www.w3.org/2000/svg" xmlns:xlink="http://www.w3.org/1999/xlink" xmlns:go="http://purl.org/svgmap/profile" property="N07_001,N07_002,N07_003,N07_004,N07_005,N07_006,N07_007" viewBox="14010.8642578125 -3971.5576171875 1.0986328125 1.0986328125" go:dataArea="14010.8642578125 -3971.5576171875 1.0986328125 1.0986328125" >
<metadata>
 <rdf:RDF xmlns:rdf="http://www.w3.org/1999/02/22-rdf-syntax-ns#" xmlns:crs="http://opengis.org/xmldtds/transformations.dtd" xmlns:svg="http://www.w3.org/svg" >
  <rdf:Description>
   <crs:CoordinateReferenceSystem rdf:resource="http://purl.org/crs/84" svg:transform="matrix(100.0,0.0,0.0,-100.0,0.0,0.0)" />
  </rdf:Description>
 </rdf:RDF>
</metadata>
<globalCoordinateSystem srsName="http://purl.org/crs/84" transform="matrix(100.0,0.0,0.0,-100.0,0.0,0.0)" />
<defs>
 <g id="p0" >
  <circle cx="0.0" cy="0.0" r="3" stroke="green" stroke-width="0.75" vector-effect="non-scaling-stroke" />
 </g>
</defs>
<g fill="none" fill-rule="evenodd" stroke="#FF00FF" stroke-width="0.75" opacity="0.5" vector-effect="non-scaling-stroke" stroke-linejoin="bevel" >
<path content="1,JRバス東北（株）,仙秋号,2.0,2.0,2.0," xlink:title="1" d="M14010.8643,-3971.266L14010.9412,-3971.2689L14010.9611,-3971.2681L14010.986,-3971.2681L14011.0617,-3971.2493L14011.0945,-3971.2408L14011.0973,-3971.2477L14011.1052,-3971.2679L14011.1337,-3971.3485L14011.1359,-3971.353L14011.1695,-3971.3468L14011.2423,-3971.3311L14011.3021,-3971.3187L14011.3523,-3971.3079L14011.3728,-3971.3046L14011.3961,-3971.2995L14011.4638,-3971.286L14011.5411,-3971.2714L14011.6001,-3971.2624L14011.6118,-3971.2604L14011.65,-3971.2549L14011.6679,-3971.2523L14011.7208,-3971.2405L14011.7838,-3971.2266L14011.7917,-3971.2246L14011.8704,-3971.2066L14011.8988,-3971.1993L14011.92,-3971.1942L14011.9629,-3971.1844"/>
<path content="1,宮城交通（株）,仙秋,4.0,4.0,4.0," xlink:title="1" d="M14011.9629,-3971.1844L14011.92,-3971.1942L14011.8988,-3971.1993L14011.8704,-3971.2066L14011.7917,-3971.2246L14011.7838,-3971.2266L14011.7208,-3971.2405L14011.6679,-3971.2523L14011.65,-3971.2549L14011.6118,-3971.2604L14011.6001,-3971.2624L14011.5411,-3971.2714L14011.4638,-3971.286L14011.3961,-3971.2995L14011.3728,-3971.3046L14011.3523,-3971.3079L14011.3021,-3971.3187L14011.2423,-3971.3311L14011.1695,-3971.3468L14011.1359,-3971.353L14011.1337,-3971.3485L14011.1052,-3971.2679L14011.0973,-3971.2477L14011.0945,-3971.2408L14011.0617,-3971.2493L14010.986,-3971.2681L14010.9611,-3971.2681L14010.9412,-3971.2689L14010.8643,-3971.266M14010.8643,-3971.5325L14010.9321,-3971.5319"/>
<path content="1,小田急シティバス（株）,フローラ号,1.0,1.0,1.0," xlink:title="1" d="M14011.9629,-3971.1844L14011.92,-3971.1942L14011.8988,-3971.1993L14011.8704,-3971.2066L14011.7917,-3971.2246L14011.7838,-3971.2266L14011.7208,-3971.2405L14011.6679,-3971.2523L14011.65,-3971.2549L14011.6118,-3971.2604L14011.6001,-3971.2624L14011.5411,-3971.2714L14011.4638,-3971.286L14011.3961,-3971.2995L14011.3728,-3971.3046L14011.3523,-3971.3079L14011.3021,-3971.3187L14011.2423,-3971.3311L14011.1695,-3971.3468L14011.1359,-3971.353L14011.1337,-3971.3485L14011.1052,-3971.2679L14011.0973,-3971.2477L14011.0945,-3971.2408L14011.0617,-3971.2493L14010.986,-3971.2681L14010.9611,-3971.2681L14010.9412,-3971.2689L14010.8643,-3971.266"/>
<path content="1,小田急バス（株）,フローラ号,1.0,1.0,1.0," xlink:title="1" d="M14011.9629,-3971.1844L14011.92,-3971.1942L14011.8988,-3971.1993L14011.8704,-3971.2066L14011.7917,-3971.2246L14011.7838,-3971.2266L14011.7208,-3971.2405L14011.6679,-3971.2523L14011.65,-3971.2549L14011.6118,-3971.2604L14011.6001,-3971.2624L14011.5411,-3971.2714L14011.4638,-3971.286L14011.3961,-3971.2995L14011.3728,-3971.3046L14011.3523,-3971.3079L14011.3021,-3971.3187L14011.2423,-3971.3311L14011.1695,-3971.3468L14011.1359,-3971.353L14011.1337,-3971.3485L14011.1052,-3971.2679L14011.0973,-3971.2477L14011.0945,-3971.2408L14011.0617,-3971.2493L14010.986,-3971.2681L14010.9611,-3971.2681L14010.9412,-3971.2689L14010.8643,-3971.266"/>
<path content="1,秋田中央交通（株）,フローラ号,1.0,1.0,1.0," xlink:title="1" d="M14010.8643,-3971.266L14010.9412,-3971.2689L14010.9611,-3971.2681L14010.986,-3971.2681L14011.0617,-3971.2493L14011.0945,-3971.2408L14011.0973,-3971.2477L14011.1052,-3971.2679L14011.1337,-3971.3485L14011.1359,-3971.353L14011.1695,-3971.3468L14011.2423,-3971.3311L14011.3021,-3971.3187L14011.3523,-3971.3079L14011.3728,-3971.3046L14011.3961,-3971.2995L14011.4638,-3971.286L14011.5411,-3971.2714L14011.6001,-3971.2624L14011.6118,-3971.2604L14011.65,-3971.2549L14011.6679,-3971.2523L14011.7208,-3971.2405L14011.7838,-3971.2266L14011.7917,-3971.2246L14011.8704,-3971.2066L14011.8988,-3971.1993L14011.92,-3971.1942L14011.9629,-3971.1844"/>
<path content="1,秋田中央交通（株）,リムジンバス,18.0,18.0,18.0," xlink:title="1" d="M14011.7497,-3971.5576L14011.7487,-3971.5552L14011.7167,-3971.4736L14011.7149,-3971.469L14011.711,-3971.4616L14011.7057,-3971.4437L14011.6986,-3971.4282L14011.6904,-3971.3997L14011.6831,-3971.3755L14011.6693,-3971.3282L14011.665,-3971.2978L14011.6592,-3971.2684L14011.6679,-3971.2523L14011.6795,-3971.2083L14011.681,-3971.1993L14011.681,-3971.1723L14011.6781,-3971.1587L14011.6613,-3971.1244L14011.6565,-3971.1136L14011.6132,-3971.0444L14011.5884,-3971.0067L14011.5812,-3970.9994L14011.5695,-3970.9898L14011.5411,-3970.9639L14011.4267,-3970.8586L14011.4107,-3970.8384L14011.407,-3970.8321L14011.3956,-3970.8092L14011.3728,-3970.7601L14011.3487,-3970.7167L14011.3451,-3970.7094L14011.3327,-3970.6908L14011.3254,-3970.6813L14011.3167,-3970.6706L14011.3043,-3970.6587L14011.2795,-3970.6464L14011.2599,-3970.6385L14011.2409,-3970.6249L14011.1877,-3970.5439L14011.1797,-3970.5316L14011.1695,-3970.5146L14011.1349,-3970.459"/>
<path content="1,秋田中央交通（株）,二ツ屋福島線,8.5,7.0,7.0," xlink:title="1" d="M14011.4932,-3970.459L14011.4933,-3970.466L14011.4799,-3970.5602L14011.4777,-3970.5805L14011.4784,-3970.6156L14011.4726,-3970.6334L14011.4566,-3970.6396L14011.4253,-3970.6509L14011.3429,-3970.6767L14011.3254,-3970.6813L14011.3327,-3970.6908L14011.3451,-3970.7094L14011.3487,-3970.7167L14011.3728,-3970.7601L14011.3956,-3970.8092L14011.407,-3970.8321L14011.4107,-3970.8384L14011.4267,-3970.8586L14011.5411,-3970.9639L14011.5695,-3970.9898L14011.5812,-3970.9994"/>
<path content="1,秋田中央交通（株）,二ツ屋福島線,8.5,7.0,7.0," xlink:title="1" d="M14011.7656,-3970.459L14011.7692,-3970.4656L14011.7961,-3970.5197L14011.8264,-3970.5722L14011.8319,-3970.5827L14011.8435,-3970.6024L14011.869,-3970.6469L14011.9003,-3970.7044L14011.8785,-3970.7117L14011.9214,-3970.7646L14011.9629,-3970.8144M14011.9629,-3970.8667L14011.9047,-3970.8806L14011.8945,-3970.8857L14011.8792,-3970.8935L14011.8668,-3970.8998L14011.826,-3970.9104L14011.8005,-3970.9183L14011.7852,-3970.9228L14011.7509,-3970.9324L14011.7269,-3970.9408L14011.5812,-3970.9994"/>
<path content="1,秋田中央交通（株）,二ツ屋福島線,8.5,7.0,7.0," xlink:title="1" d="M14011.5812,-3970.9994L14011.5884,-3971.0067L14011.6132,-3971.0444L14011.6565,-3971.1136L14011.6613,-3971.1244L14011.6781,-3971.1587L14011.681,-3971.1723L14011.681,-3971.1993L14011.6795,-3971.2083L14011.6679,-3971.2523L14011.6592,-3971.2684L14011.665,-3971.2978L14011.6693,-3971.3282L14011.6831,-3971.3755L14011.6904,-3971.3997L14011.6986,-3971.4282L14011.7057,-3971.4437L14011.711,-3971.4616L14011.7149,-3971.469L14011.7167,-3971.4736L14011.7487,-3971.5552L14011.7497,-3971.5576"/>
<path content="1,秋田中央交通（株）,仁井田御所野線,19.0,16.0,16.0," xlink:title="1" d="M14011.4932,-3970.459L14011.4933,-3970.466L14011.4799,-3970.5602L14011.4777,-3970.5805L14011.4784,-3970.6156L14011.4726,-3970.6334L14011.4566,-3970.6396L14011.4253,-3970.6509L14011.3429,-3970.6767L14011.3254,-3970.6813L14011.3327,-3970.6908L14011.3451,-3970.7094L14011.3487,-3970.7167L14011.3728,-3970.7601L14011.3956,-3970.8092L14011.407,-3970.8321L14011.4107,-3970.8384L14011.4267,-3970.8586L14011.5411,-3970.9639L14011.5695,-3970.9898L14011.5812,-3970.9994"/>
<path content="1,秋田中央交通（株）,仁井田御所野線,19.0,16.0,16.0," xlink:title="1" d="M14011.7656,-3970.459L14011.7692,-3970.4656L14011.7961,-3970.5197L14011.8264,-3970.5722L14011.8319,-3970.5827L14011.8435,-3970.6024L14011.869,-3970.6469L14011.9003,-3970.7044L14011.8785,-3970.7117L14011.9214,-3970.7646L14011.9629,-3970.8144M14011.9629,-3970.8667L14011.9047,-3970.8806L14011.8945,-3970.8857L14011.8792,-3970.8935L14011.8668,-3970.8998L14011.826,-3970.9104L14011.8005,-3970.9183L14011.7852,-3970.9228L14011.7509,-3970.9324L14011.7269,-3970.9408L14011.5812,-3970.9994"/>
<path content="1,秋田中央交通（株）,仁井田御所野線,19.0,16.0,16.0," xlink:title="1" d="M14011.5812,-3970.9994L14011.5884,-3971.0067L14011.6132,-3971.0444L14011.6565,-3971.1136L14011.6613,-3971.1244L14011.6781,-3971.1587L14011.681,-3971.1723L14011.681,-3971.1993L14011.6795,-3971.2083L14011.6679,-3971.2523L14011.6592,-3971.2684L14011.665,-3971.2978L14011.6693,-3971.3282L14011.6831,-3971.3755L14011.6904,-3971.3997L14011.6986,-3971.4282L14011.7057,-3971.4437L14011.711,-3971.4616L14011.7149,-3971.469L14011.7167,-3971.4736L14011.7487,-3971.5552L14011.7497,-3971.5576"/>
<path content="1,秋田中央交通（株）,仁井田旧道・四ツ小屋経由御所野線,6.0,10.5,10.5," xlink:title="1" d="M14011.4932,-3970.459L14011.4933,-3970.466L14011.4799,-3970.5602L14011.4777,-3970.5805L14011.4784,-3970.6156L14011.4726,-3970.6334L14011.4566,-3970.6396L14011.4253,-3970.6509L14011.3429,-3970.6767L14011.3254,-3970.6813L14011.3327,-3970.6908L14011.3451,-3970.7094L14011.3487,-3970.7167L14011.3728,-3970.7601L14011.3956,-3970.8092L14011.407,-3970.8321L14011.4107,-3970.8384L14011.4267,-3970.8586L14011.5411,-3970.9639L14011.5695,-3970.9898L14011.5812,-3970.9994"/>
<path content="1,秋田中央交通（株）,仁井田旧道・四ツ小屋経由御所野線,6.0,10.5,10.5," xlink:title="1" d="M14011.5812,-3970.9994L14011.7269,-3970.9408L14011.7509,-3970.9324L14011.7852,-3970.9228L14011.8005,-3970.9183L14011.826,-3970.9104L14011.8668,-3970.8998L14011.8792,-3970.8935L14011.8945,-3970.8857L14011.9047,-3970.8806L14011.9629,-3970.8667M14011.9629,-3970.8144L14011.9214,-3970.7646L14011.8785,-3970.7117L14011.9003,-3970.7044L14011.869,-3970.6469L14011.8435,-3970.6024L14011.8319,-3970.5827L14011.8264,-3970.5722L14011.7961,-3970.5197L14011.7692,-3970.4656L14011.7656,-3970.459"/>
<path content="1,秋田中央交通（株）,仁井田旧道・四ツ小屋経由御所野線,6.0,10.5,10.5," xlink:title="1" d="M14011.7497,-3971.5576L14011.7487,-3971.5552L14011.7167,-3971.4736L14011.7149,-3971.469L14011.711,-3971.4616L14011.7057,-3971.4437L14011.6986,-3971.4282L14011.6904,-3971.3997L14011.6831,-3971.3755L14011.6693,-3971.3282L14011.665,-3971.2978L14011.6592,-3971.2684L14011.6679,-3971.2523L14011.6795,-3971.2083L14011.681,-3971.1993L14011.681,-3971.1723L14011.6781,-3971.1587L14011.6613,-3971.1244L14011.6565,-3971.1136L14011.6132,-3971.0444L14011.5884,-3971.0067L14011.5812,-3970.9994"/>
<path content="1,秋田中央交通（株）,仙秋号,4.0,4.0,4.0," xlink:title="1" d="M14010.8643,-3971.266L14010.9412,-3971.2689L14010.9611,-3971.2681L14010.986,-3971.2681L14011.0617,-3971.2493L14011.0945,-3971.2408L14011.0973,-3971.2477L14011.1052,-3971.2679L14011.1337,-3971.3485L14011.1359,-3971.353L14011.1695,-3971.3468L14011.2423,-3971.3311L14011.3021,-3971.3187L14011.3523,-3971.3079L14011.3728,-3971.3046L14011.3961,-3971.2995L14011.4638,-3971.286L14011.5411,-3971.2714L14011.6001,-3971.2624L14011.6118,-3971.2604L14011.65,-3971.2549L14011.6679,-3971.2523L14011.7208,-3971.2405L14011.7838,-3971.2266L14011.7917,-3971.2246L14011.8704,-3971.2066L14011.8988,-3971.1993L14011.92,-3971.1942L14011.9629,-3971.1844"/>
<path content="1,秋田中央交通（株）,南通り経由大川反車庫行き,2.0,0.0,0.0," xlink:title="1" d="M14011.9629,-3971.1844L14011.92,-3971.1942L14011.8988,-3971.1993L14011.8704,-3971.2066L14011.7917,-3971.2246L14011.7838,-3971.2266L14011.7208,-3971.2405L14011.6679,-3971.2523L14011.6592,-3971.2684L14011.665,-3971.2978L14011.6693,-3971.3282L14011.6831,-3971.3755L14011.6904,-3971.3997L14011.6986,-3971.4282L14011.7057,-3971.4437L14011.711,-3971.4616L14011.7149,-3971.469L14011.7167,-3971.4736L14011.7487,-3971.5552L14011.7497,-3971.5576"/>
<path content="1,秋田中央交通（株）,大住みなみ野団地線,21.5,15.5,15.5," xlink:title="1" d="M14011.4932,-3970.459L14011.4933,-3970.466L14011.4799,-3970.5602L14011.4777,-3970.5805L14011.4784,-3970.6156L14011.4726,-3970.6334L14011.4566,-3970.6396L14011.4253,-3970.6509L14011.3429,-3970.6767L14011.3254,-3970.6813L14011.3327,-3970.6908L14011.3451,-3970.7094L14011.3487,-3970.7167L14011.3728,-3970.7601L14011.3956,-3970.8092L14011.407,-3970.8321L14011.4107,-3970.8384L14011.4267,-3970.8586L14011.5411,-3970.9639L14011.5695,-3970.9898L14011.5812,-3970.9994"/>
<path content="1,秋田中央交通（株）,大住みなみ野団地線,21.5,15.5,15.5," xlink:title="1" d="M14011.5812,-3970.9994L14011.7269,-3970.9408L14011.7509,-3970.9324L14011.7852,-3970.9228L14011.8005,-3970.9183L14011.826,-3970.9104L14011.8668,-3970.8998L14011.8792,-3970.8935L14011.8945,-3970.8857L14011.9047,-3970.8806L14011.9629,-3970.8667M14011.9629,-3970.8144L14011.9214,-3970.7646L14011.8785,-3970.7117L14011.9003,-3970.7044L14011.869,-3970.6469L14011.8435,-3970.6024L14011.8319,-3970.5827L14011.8264,-3970.5722L14011.7961,-3970.5197L14011.7692,-3970.4656L14011.7656,-3970.459"/>
<path content="1,秋田中央交通（株）,大住みなみ野団地線,21.5,15.5,15.5," xlink:title="1" d="M14011.7497,-3971.5576L14011.7487,-3971.5552L14011.7167,-3971.4736L14011.7149,-3971.469L14011.711,-3971.4616L14011.7057,-3971.4437L14011.6986,-3971.4282L14011.6904,-3971.3997L14011.6831,-3971.3755L14011.6693,-3971.3282L14011.665,-3971.2978L14011.6592,-3971.2684L14011.6679,-3971.2523L14011.6795,-3971.2083L14011.681,-3971.1993L14011.681,-3971.1723L14011.6781,-3971.1587L14011.6613,-3971.1244L14011.6565,-3971.1136L14011.6132,-3971.0444L14011.5884,-3971.0067L14011.5812,-3970.9994"/>
<path content="1,秋田中央交通（株）,大野線,5.5,4.0,4.0," xlink:title="1" d="M14011.4932,-3970.459L14011.4933,-3970.466L14011.4799,-3970.5602L14011.4777,-3970.5805L14011.4784,-3970.6156L14011.4726,-3970.6334L14011.4566,-3970.6396L14011.4253,-3970.6509L14011.3429,-3970.6767L14011.3254,-3970.6813L14011.3327,-3970.6908L14011.3451,-3970.7094L14011.3487,-3970.7167L14011.3728,-3970.7601L14011.3956,-3970.8092L14011.407,-3970.8321L14011.4107,-3970.8384L14011.4267,-3970.8586L14011.5411,-3970.9639L14011.5695,-3970.9898L14011.5812,-3970.9994"/>
<path content="1,秋田中央交通（株）,大野線,5.5,4.0,4.0," xlink:title="1" d="M14011.7656,-3970.459L14011.7692,-3970.4656L14011.7961,-3970.5197L14011.8264,-3970.5722L14011.8319,-3970.5827L14011.8435,-3970.6024L14011.869,-3970.6469L14011.9003,-3970.7044L14011.8785,-3970.7117L14011.9214,-3970.7646L14011.9629,-3970.8144M14011.9629,-3970.8667L14011.9047,-3970.8806L14011.8945,-3970.8857L14011.8792,-3970.8935L14011.8668,-3970.8998L14011.826,-3970.9104L14011.8005,-3970.9183L14011.7852,-3970.9228L14011.7509,-3970.9324L14011.7269,-3970.9408L14011.5812,-3970.9994"/>
<path content="1,秋田中央交通（株）,大野線,5.5,4.0,4.0," xlink:title="1" d="M14011.5812,-3970.9994L14011.5884,-3971.0067L14011.6132,-3971.0444L14011.6565,-3971.1136L14011.6613,-3971.1244L14011.6781,-3971.1587L14011.681,-3971.1723L14011.681,-3971.1993L14011.6795,-3971.2083L14011.6679,-3971.2523L14011.6592,-3971.2684L14011.665,-3971.2978L14011.6693,-3971.3282L14011.6831,-3971.3755L14011.6904,-3971.3997L14011.6986,-3971.4282L14011.7057,-3971.4437L14011.711,-3971.4616L14011.7149,-3971.469L14011.7167,-3971.4736L14011.7487,-3971.5552L14011.7497,-3971.5576"/>
<path content="1,秋田中央交通（株）,川尻割山線,42.0,34.0,34.0," xlink:title="1" d="M14010.8643,-3971.266L14010.9412,-3971.2689L14010.9611,-3971.2681L14010.986,-3971.2681L14011.0617,-3971.2493L14011.0945,-3971.2408L14011.0973,-3971.2477L14011.1052,-3971.2679L14011.1337,-3971.3485L14011.1359,-3971.353L14011.1695,-3971.3468L14011.2423,-3971.3311L14011.3021,-3971.3187L14011.3523,-3971.3079L14011.3728,-3971.3046L14011.3961,-3971.2995L14011.4638,-3971.286L14011.4744,-3971.3106L14011.4952,-3971.3688L14011.5083,-3971.4088L14011.5381,-3971.4876L14011.5403,-3971.496"/>
<path content="1,秋田中央交通（株）,川尻割山線,42.0,34.0,34.0," xlink:title="1" d="M14011.5403,-3971.496L14011.544,-3971.5045L14011.5605,-3971.5476L14011.5636,-3971.5576"/>
<path content="1,秋田中央交通（株）,川尻割山線,42.0,34.0,34.0," xlink:title="1" d="M14011.2556,-3971.5576L14011.2867,-3971.5506L14011.3072,-3971.5467L14011.3217,-3971.5433L14011.3698,-3971.5337L14011.4318,-3971.5202L14011.4449,-3971.5169L14011.4587,-3971.514L14011.4682,-3971.5124L14011.5119,-3971.501L14011.5403,-3971.496"/>
<path content="1,秋田中央交通（株）,新屋線,36.5,33.5,33.5," xlink:title="1" d="M14011.1349,-3970.459L14011.1695,-3970.5146L14011.1797,-3970.5316L14011.1877,-3970.5439L14011.2409,-3970.6249L14011.2599,-3970.6385L14011.2795,-3970.6464L14011.3043,-3970.6587L14011.3167,-3970.6706L14011.3254,-3970.6813L14011.3327,-3970.6908L14011.3451,-3970.7094L14011.3487,-3970.7167L14011.3728,-3970.7601L14011.3956,-3970.8092L14011.407,-3970.8321L14011.4107,-3970.8384L14011.4267,-3970.8586L14011.5411,-3970.9639L14011.5695,-3970.9898L14011.5812,-3970.9994L14011.5884,-3971.0067L14011.6132,-3971.0444L14011.6565,-3971.1136L14011.6613,-3971.1244L14011.6781,-3971.1587L14011.681,-3971.1723L14011.681,-3971.1993L14011.6795,-3971.2083L14011.6679,-3971.2523L14011.6592,-3971.2684L14011.665,-3971.2978L14011.6693,-3971.3282L14011.6831,-3971.3755L14011.6904,-3971.3997L14011.6986,-3971.4282L14011.7057,-3971.4437L14011.711,-3971.4616L14011.7149,-3971.469L14011.7167,-3971.4736L14011.7487,-3971.5552L14011.7497,-3971.5576"/>
<path content="1,秋田中央交通（株）,新屋線,36.5,33.5,33.5," xlink:title="1" d="M14010.8643,-3970.7649L14010.8686,-3970.768L14010.8861,-3970.7747L14010.9021,-3970.7781L14010.9334,-3970.7781L14010.9524,-3970.7758L14010.9903,-3970.768L14011.0055,-3970.7629L14011.0158,-3970.7606L14011.0514,-3970.7499L14011.0755,-3970.7466L14011.0901,-3970.7646L14011.0952,-3970.7708L14011.1019,-3970.783L14011.1119,-3970.8017"/>
<path content="1,秋田中央交通（株）,新屋線,36.5,33.5,33.5," xlink:title="1" d="M14010.8643,-3970.8906L14010.8671,-3970.8896L14010.8751,-3970.8856L14010.9031,-3970.8729L14010.9473,-3970.8609L14011.0481,-3970.826L14011.0598,-3970.8207L14011.1119,-3970.8017"/>
<path content="1,秋田中央交通（株）,新屋線,36.5,33.5,33.5," xlink:title="1" d="M14011.1119,-3970.8017L14011.1593,-3970.7854L14011.2234,-3970.8491L14011.23,-3970.8564L14011.2416,-3970.8693L14011.3028,-3970.9419L14011.3451,-3970.9983L14011.3626,-3971.0298L14011.3844,-3971.076L14011.4041,-3971.1261L14011.4085,-3971.1413L14011.4228,-3971.1702L14011.4267,-3971.1886L14011.4339,-3971.2061L14011.4544,-3971.2612L14011.4595,-3971.2759L14011.4638,-3971.286"/>
<path content="1,秋田中央交通（株）,新屋線,36.5,33.5,33.5," xlink:title="1" d="M14011.1119,-3970.8017L14011.1207,-3970.8164L14011.1571,-3970.8806L14011.1804,-3970.9194L14011.2118,-3970.9735L14011.238,-3971.0225L14011.2649,-3971.0689L14011.2817,-3971.1114L14011.2861,-3971.1227L14011.2883,-3971.1306L14011.2984,-3971.1576L14011.3101,-3971.1914L14011.3225,-3971.2235L14011.3342,-3971.2573L14011.3458,-3971.2866L14011.3523,-3971.3079L14011.3728,-3971.3046L14011.3961,-3971.2995L14011.4638,-3971.286"/>
<path content="1,秋田中央交通（株）,新屋線,36.5,33.5,33.5," xlink:title="1" d="M14011.4638,-3971.286L14011.4744,-3971.3106L14011.4952,-3971.3688L14011.5083,-3971.4088L14011.5381,-3971.4876L14011.5403,-3971.496L14011.544,-3971.5045L14011.5605,-3971.5476L14011.5636,-3971.5576"/>
<path content="1,秋田中央交通（株）,柳原経由御野場団地線,8.0,4.0,4.0," xlink:title="1" d="M14011.1349,-3970.459L14011.1695,-3970.5146L14011.1797,-3970.5316L14011.1877,-3970.5439L14011.2409,-3970.6249L14011.2599,-3970.6385L14011.2795,-3970.6464L14011.3043,-3970.6587L14011.3167,-3970.6706L14011.3254,-3970.6813L14011.3327,-3970.6908L14011.3451,-3970.7094L14011.3487,-3970.7167L14011.3728,-3970.7601L14011.3956,-3970.8092L14011.407,-3970.8321L14011.4107,-3970.8384L14011.4267,-3970.8586L14011.5411,-3970.9639L14011.5695,-3970.9898L14011.5812,-3970.9994L14011.5884,-3971.0067L14011.6132,-3971.0444L14011.6565,-3971.1136L14011.6613,-3971.1244L14011.6781,-3971.1587L14011.681,-3971.1723L14011.681,-3971.1993L14011.6795,-3971.2083L14011.6679,-3971.2523L14011.6592,-3971.2684L14011.665,-3971.2978L14011.6693,-3971.3282L14011.6831,-3971.3755L14011.6904,-3971.3997L14011.6986,-3971.4282L14011.7057,-3971.4437L14011.711,-3971.4616L14011.7149,-3971.469L14011.7167,-3971.4736L14011.7487,-3971.5552L14011.7497,-3971.5576"/>
<path content="1,秋田中央交通（株）,楢山大回り線,1.0,0.0,0.0," xlink:title="1" d="M14011.4638,-3971.286L14011.4595,-3971.2759L14011.4544,-3971.2612L14011.4339,-3971.2061L14011.4267,-3971.1886L14011.4228,-3971.1702L14011.4085,-3971.1413L14011.4041,-3971.1261L14011.3844,-3971.076L14011.3706,-3971.0805L14011.2817,-3971.1114L14011.2649,-3971.0689L14011.238,-3971.0225L14011.2118,-3970.9735L14011.1804,-3970.9194L14011.1571,-3970.8806L14011.1207,-3970.8164L14011.1119,-3970.8017L14011.1593,-3970.7854L14011.1891,-3970.7763L14011.2295,-3970.7603L14011.2365,-3970.7576L14011.2862,-3970.7392L14011.3313,-3970.7218L14011.3487,-3970.7167L14011.3451,-3970.7094L14011.3327,-3970.6908L14011.3254,-3970.6813L14011.3429,-3970.6767L14011.4253,-3970.6509L14011.4566,-3970.6396L14011.4726,-3970.6334L14011.4784,-3970.6156L14011.4777,-3970.5805L14011.4799,-3970.5602L14011.4933,-3970.466L14011.4932,-3970.459M14011.7656,-3970.459L14011.7692,-3970.4656L14011.7961,-3970.5197L14011.8264,-3970.5722L14011.8319,-3970.5827L14011.8435,-3970.6024L14011.869,-3970.6469L14011.9003,-3970.7044L14011.8785,-3970.7117L14011.9214,-3970.7646L14011.9629,-3970.8144"/>
<path content="1,秋田中央交通（株）,楢山大回り線,1.0,0.0,0.0," xlink:title="1" d="M14011.4638,-3971.286L14011.4744,-3971.3106"/>
<path content="1,秋田中央交通（株）,楢山大回り線,1.0,0.0,0.0," xlink:title="1" d="M14011.3268,-3971.5576L14011.3247,-3971.5534L14011.3217,-3971.5433L14011.3152,-3971.527L14011.2802,-3971.4324L14011.2669,-3971.3901L14011.2613,-3971.3817L14011.2584,-3971.3716L14011.2423,-3971.3311L14011.3021,-3971.3187L14011.3523,-3971.3079L14011.3728,-3971.3046L14011.3961,-3971.2995L14011.4638,-3971.286"/>
<path content="1,秋田中央交通（株）,横山経由御所野線,4.0,3.0,3.0," xlink:title="1" d="M14011.4932,-3970.459L14011.4933,-3970.466L14011.4799,-3970.5602L14011.4777,-3970.5805L14011.4784,-3970.6156L14011.4726,-3970.6334L14011.4566,-3970.6396L14011.4253,-3970.6509L14011.3429,-3970.6767L14011.3254,-3970.6813L14011.3327,-3970.6908L14011.3451,-3970.7094L14011.3487,-3970.7167L14011.3728,-3970.7601L14011.3956,-3970.8092L14011.407,-3970.8321L14011.4107,-3970.8384L14011.4267,-3970.8586L14011.5411,-3970.9639L14011.5695,-3970.9898L14011.5812,-3970.9994"/>
<path content="1,秋田中央交通（株）,横山経由御所野線,4.0,3.0,3.0," xlink:title="1" d="M14011.5812,-3970.9994L14011.7269,-3970.9408L14011.7509,-3970.9324L14011.7852,-3970.9228L14011.8005,-3970.9183L14011.826,-3970.9104L14011.8668,-3970.8998L14011.8792,-3970.8935L14011.8945,-3970.8857L14011.9047,-3970.8806L14011.9629,-3970.8667M14011.9629,-3970.8144L14011.9214,-3970.7646L14011.8785,-3970.7117L14011.9003,-3970.7044L14011.869,-3970.6469L14011.8435,-3970.6024L14011.8319,-3970.5827L14011.8264,-3970.5722L14011.7961,-3970.5197L14011.7692,-3970.4656L14011.7656,-3970.459"/>
<path content="1,秋田中央交通（株）,横山経由御所野線,4.0,3.0,3.0," xlink:title="1" d="M14011.7497,-3971.5576L14011.7487,-3971.5552L14011.7167,-3971.4736L14011.7149,-3971.469L14011.711,-3971.4616L14011.7057,-3971.4437L14011.6986,-3971.4282L14011.6904,-3971.3997L14011.6831,-3971.3755L14011.6693,-3971.3282L14011.665,-3971.2978L14011.6592,-3971.2684L14011.6679,-3971.2523L14011.6795,-3971.2083L14011.681,-3971.1993L14011.681,-3971.1723L14011.6781,-3971.1587L14011.6613,-3971.1244L14011.6565,-3971.1136L14011.6132,-3971.0444L14011.5884,-3971.0067L14011.5812,-3970.9994"/>
<path content="1,秋田中央交通（株）,牛島経由御野場団地線,17.5,15.5,15.5," xlink:title="1" d="M14011.4932,-3970.459L14011.4933,-3970.466L14011.4799,-3970.5602L14011.4777,-3970.5805L14011.4784,-3970.6156L14011.4726,-3970.6334L14011.4566,-3970.6396L14011.4253,-3970.6509L14011.3429,-3970.6767L14011.3254,-3970.6813L14011.3327,-3970.6908L14011.3451,-3970.7094L14011.3487,-3970.7167L14011.3728,-3970.7601L14011.3956,-3970.8092L14011.407,-3970.8321L14011.4107,-3970.8384L14011.4267,-3970.8586L14011.5411,-3970.9639L14011.5695,-3970.9898L14011.5812,-3970.9994"/>
<path content="1,秋田中央交通（株）,牛島経由御野場団地線,17.5,15.5,15.5," xlink:title="1" d="M14011.7656,-3970.459L14011.7692,-3970.4656L14011.7961,-3970.5197L14011.8264,-3970.5722L14011.8319,-3970.5827L14011.8435,-3970.6024L14011.869,-3970.6469L14011.9003,-3970.7044L14011.8785,-3970.7117L14011.9214,-3970.7646L14011.9629,-3970.8144M14011.9629,-3970.8667L14011.9047,-3970.8806L14011.8945,-3970.8857L14011.8792,-3970.8935L14011.8668,-3970.8998L14011.826,-3970.9104L14011.8005,-3970.9183L14011.7852,-3970.9228L14011.7509,-3970.9324L14011.7269,-3970.9408L14011.5812,-3970.9994"/>
<path content="1,秋田中央交通（株）,牛島経由御野場団地線,17.5,15.5,15.5," xlink:title="1" d="M14011.5812,-3970.9994L14011.5884,-3971.0067L14011.6132,-3971.0444L14011.6565,-3971.1136L14011.6613,-3971.1244L14011.6781,-3971.1587L14011.681,-3971.1723L14011.681,-3971.1993L14011.6795,-3971.2083L14011.6679,-3971.2523L14011.6592,-3971.2684L14011.665,-3971.2978L14011.6693,-3971.3282L14011.6831,-3971.3755L14011.6904,-3971.3997L14011.6986,-3971.4282L14011.7057,-3971.4437L14011.711,-3971.4616L14011.7149,-3971.469L14011.7167,-3971.4736L14011.7487,-3971.5552L14011.7497,-3971.5576"/>
<path content="1,秋田中央交通（株）,牛島経由日赤病院線,8.0,4.0,4.0," xlink:title="1" d="M14011.4932,-3970.459L14011.4933,-3970.466L14011.4799,-3970.5602L14011.4777,-3970.5805L14011.4784,-3970.6156L14011.4726,-3970.6334L14011.4566,-3970.6396L14011.4253,-3970.6509L14011.3429,-3970.6767L14011.3254,-3970.6813L14011.3327,-3970.6908L14011.3451,-3970.7094L14011.3487,-3970.7167L14011.3728,-3970.7601L14011.3956,-3970.8092L14011.407,-3970.8321L14011.4107,-3970.8384L14011.4267,-3970.8586L14011.5411,-3970.9639L14011.5695,-3970.9898L14011.5812,-3970.9994"/>
<path content="1,秋田中央交通（株）,牛島経由日赤病院線,8.0,4.0,4.0," xlink:title="1" d="M14011.5812,-3970.9994L14011.7269,-3970.9408L14011.7509,-3970.9324L14011.7852,-3970.9228L14011.8005,-3970.9183L14011.826,-3970.9104L14011.8668,-3970.8998L14011.8792,-3970.8935L14011.8945,-3970.8857L14011.9047,-3970.8806L14011.9629,-3970.8667M14011.9629,-3970.8144L14011.9214,-3970.7646L14011.8785,-3970.7117L14011.9003,-3970.7044L14011.869,-3970.6469L14011.8435,-3970.6024L14011.8319,-3970.5827L14011.8264,-3970.5722L14011.7961,-3970.5197L14011.7692,-3970.4656L14011.7656,-3970.459"/>
<path content="1,秋田中央交通（株）,牛島経由日赤病院線,8.0,4.0,4.0," xlink:title="1" d="M14011.7497,-3971.5576L14011.7487,-3971.5552L14011.7167,-3971.4736L14011.7149,-3971.469L14011.711,-3971.4616L14011.7057,-3971.4437L14011.6986,-3971.4282L14011.6904,-3971.3997L14011.6831,-3971.3755L14011.6693,-3971.3282L14011.665,-3971.2978L14011.6592,-3971.2684L14011.6679,-3971.2523L14011.6795,-3971.2083L14011.681,-3971.1993L14011.681,-3971.1723L14011.6781,-3971.1587L14011.6613,-3971.1244L14011.6565,-3971.1136L14011.6132,-3971.0444L14011.5884,-3971.0067L14011.5812,-3970.9994"/>
<path content="1,秋田中央交通（株）,茨島牛島環状線（大橋回り）,2.0,2.0,2.0," xlink:title="1" d="M14010.8643,-3970.7649L14010.8686,-3970.768L14010.8861,-3970.7747L14010.9021,-3970.7781L14010.9334,-3970.7781L14010.9524,-3970.7758L14010.9903,-3970.768L14011.0055,-3970.7629L14011.0158,-3970.7606L14011.0514,-3970.7499L14011.0755,-3970.7466L14011.0901,-3970.7646L14011.0952,-3970.7708L14011.1019,-3970.783L14011.1119,-3970.8017L14011.1207,-3970.8164L14011.1571,-3970.8806L14011.1804,-3970.9194L14011.2118,-3970.9735L14011.238,-3971.0225L14011.2649,-3971.0689L14011.2817,-3971.1114L14011.3706,-3971.0805L14011.3844,-3971.076L14011.4041,-3971.1261L14011.4085,-3971.1413L14011.4228,-3971.1702L14011.4267,-3971.1886L14011.4339,-3971.2061L14011.4544,-3971.2612L14011.4595,-3971.2759L14011.4638,-3971.286L14011.4744,-3971.3106L14011.4952,-3971.3688L14011.5083,-3971.4088L14011.5381,-3971.4876L14011.5403,-3971.496L14011.544,-3971.5045L14011.5605,-3971.5476L14011.5636,-3971.5576"/>
<path content="1,秋田中央交通（株）,茨島牛島環状線（大橋回り）,2.0,2.0,2.0," xlink:title="1" d="M14011.7497,-3971.5576L14011.7487,-3971.5552L14011.7167,-3971.4736L14011.7149,-3971.469L14011.711,-3971.4616L14011.7057,-3971.4437L14011.6986,-3971.4282L14011.6904,-3971.3997L14011.6831,-3971.3755L14011.6693,-3971.3282L14011.665,-3971.2978L14011.6592,-3971.2684L14011.6679,-3971.2523L14011.6795,-3971.2083L14011.681,-3971.1993L14011.681,-3971.1723L14011.6781,-3971.1587L14011.6613,-3971.1244L14011.6565,-3971.1136L14011.6132,-3971.0444L14011.5884,-3971.0067L14011.5812,-3970.9994L14011.5695,-3970.9898L14011.5411,-3970.9639L14011.4267,-3970.8586L14011.4107,-3970.8384L14011.407,-3970.8321L14011.3956,-3970.8092L14011.3728,-3970.7601L14011.3487,-3970.7167L14011.3451,-3970.7094L14011.3327,-3970.6908L14011.3254,-3970.6813L14011.3429,-3970.6767L14011.4253,-3970.6509L14011.4566,-3970.6396L14011.4726,-3970.6334L14011.4784,-3970.6156L14011.4777,-3970.5805L14011.4799,-3970.5602L14011.4933,-3970.466L14011.4932,-3970.459"/>
<path content="1,秋田中央交通（株）,茨島牛島環状線（牛島回り）,3.0,2.0,2.0," xlink:title="1" d="M14010.8643,-3970.8906L14010.8671,-3970.8896L14010.8751,-3970.8856L14010.9031,-3970.8729L14010.9473,-3970.8609L14011.0481,-3970.826L14011.0598,-3970.8207L14011.1119,-3970.8017"/>
<path content="1,秋田中央交通（株）,茨島牛島環状線（牛島回り）,3.0,2.0,2.0," xlink:title="1" d="M14011.1019,-3970.783L14011.1119,-3970.8017"/>
<path content="1,秋田中央交通（株）,茨島牛島環状線（牛島回り）,3.0,2.0,2.0," xlink:title="1" d="M14011.1119,-3970.8017L14011.1207,-3970.8164L14011.1571,-3970.8806L14011.1804,-3970.9194L14011.2118,-3970.9735L14011.238,-3971.0225L14011.2649,-3971.0689L14011.2817,-3971.1114L14011.3706,-3971.0805L14011.3844,-3971.076L14011.4041,-3971.1261L14011.4085,-3971.1413L14011.4228,-3971.1702L14011.4267,-3971.1886L14011.4339,-3971.2061L14011.4544,-3971.2612L14011.4595,-3971.2759L14011.4638,-3971.286L14011.4744,-3971.3106L14011.4952,-3971.3688L14011.5083,-3971.4088L14011.5381,-3971.4876L14011.5403,-3971.496L14011.544,-3971.5045L14011.5605,-3971.5476L14011.5636,-3971.5576"/>
<path content="1,秋田中央交通（株）,茨島牛島環状線（牛島回り）,3.0,2.0,2.0," xlink:title="1" d="M14011.7497,-3971.5576L14011.7487,-3971.5552L14011.7167,-3971.4736L14011.7149,-3971.469L14011.711,-3971.4616L14011.7057,-3971.4437L14011.6986,-3971.4282L14011.6904,-3971.3997L14011.6831,-3971.3755L14011.6693,-3971.3282L14011.665,-3971.2978L14011.6592,-3971.2684L14011.6679,-3971.2523L14011.6795,-3971.2083L14011.681,-3971.1993L14011.681,-3971.1723L14011.6781,-3971.1587L14011.6613,-3971.1244L14011.6565,-3971.1136L14011.6132,-3971.0444L14011.5884,-3971.0067L14011.5812,-3970.9994L14011.7269,-3970.9408L14011.7509,-3970.9324L14011.7852,-3970.9228L14011.8005,-3970.9183L14011.826,-3970.9104L14011.8668,-3970.8998L14011.8792,-3970.8935L14011.8945,-3970.8857L14011.9047,-3970.8806L14011.9629,-3970.8667M14011.9629,-3970.8144L14011.9214,-3970.7646L14011.8785,-3970.7117L14011.9003,-3970.7044L14011.869,-3970.6469L14011.8435,-3970.6024L14011.8319,-3970.5827L14011.8264,-3970.5722L14011.7961,-3970.5197L14011.7692,-3970.4656L14011.7656,-3970.459"/>
<path content="1,秋田中央交通（株）,駅東線,6.0,3.5,3.5," xlink:title="1" d="M14011.9629,-3971.1844L14011.92,-3971.1942L14011.8988,-3971.1993L14011.8704,-3971.2066L14011.7917,-3971.2246L14011.7838,-3971.2266L14011.7208,-3971.2405L14011.6679,-3971.2523L14011.6592,-3971.2684L14011.665,-3971.2978L14011.6693,-3971.3282L14011.6831,-3971.3755L14011.6904,-3971.3997L14011.6986,-3971.4282L14011.7057,-3971.4437L14011.711,-3971.4616L14011.7149,-3971.469L14011.7167,-3971.4736L14011.7487,-3971.5552L14011.7497,-3971.5576"/>
</g>
</svg>
