<?xml version="1.0" encoding="UTF-8"?>
<svg  xmlns="http://www.w3.org/2000/svg" xmlns:xlink="http://www.w3.org/1999/xlink" xmlns:go="http://purl.org/svgmap/profile" property="N07_001,N07_002,N07_003,N07_004,N07_005,N07_006,N07_007" viewBox="14137.20703125 -4306.640625 2.197265625 2.197265625" go:dataArea="14137.20703125 -4306.640625 2.197265625 2.197265625" >
<metadata>
 <rdf:RDF xmlns:rdf="http://www.w3.org/1999/02/22-rdf-syntax-ns#" xmlns:crs="http://opengis.org/xmldtds/transformations.dtd" xmlns:svg="http://www.w3.org/svg" >
  <rdf:Description>
   <crs:CoordinateReferenceSystem rdf:resource="http://purl.org/crs/84" svg:transform="matrix(100.0,0.0,0.0,-100.0,0.0,0.0)" />
  </rdf:Description>
 </rdf:RDF>
</metadata>
<globalCoordinateSystem srsName="http://purl.org/crs/84" transform="matrix(100.0,0.0,0.0,-100.0,0.0,0.0)" />
<defs>
 <g id="p0" >
  <circle cx="0.0" cy="0.0" r="3" stroke="green" stroke-width="0.75" vector-effect="non-scaling-stroke" />
 </g>
</defs>
<g fill="none" fill-rule="evenodd" stroke="#FF00FF" stroke-width="0.75" opacity="0.5" vector-effect="non-scaling-stroke" stroke-linejoin="bevel" >
<path content="1,JR北海道バス（株）,1-3新札幌,4.5,3.0,3.0," xlink:title="1" d="M14139.4043,-4305.7381L14139.3222,-4305.7831L14139.3099,-4305.7894"/>
<path content="1,JR北海道バス（株）,1-3新札幌,4.5,3.0,3.0," xlink:title="1" d="M14139.3099,-4305.7894L14139.2468,-4305.7476L14139.2337,-4305.7395L14139.1562,-4305.6883L14139.0887,-4305.6431L14139.0412,-4305.6134L14138.9783,-4305.6158L14138.9271,-4305.6153L14138.8378,-4305.6063L14138.8063,-4305.6006"/>
<path content="1,JR北海道バス（株）,1-3新札幌,4.5,3.0,3.0," xlink:title="1" d="M14139.3099,-4305.7894L14139.2258,-4305.8326L14139.1981,-4305.848L14139.1878,-4305.8529L14139.175,-4305.8615L14139.0306,-4305.9333L14138.9952,-4305.9518L14138.9208,-4305.9905L14138.848,-4306.0276L14138.8334,-4306.036L14138.8226,-4306.0433L14138.7805,-4306.0636L14138.769,-4306.0693L14138.7475,-4306.0811L14138.7398,-4306.0844L14138.7138,-4306.0991L14138.6447,-4306.1357L14138.6171,-4306.1492L14138.5573,-4306.1813L14138.5259,-4306.1959L14138.5044,-4306.2066L14138.4597,-4306.2331L14138.3925,-4306.2651L14138.3687,-4306.2769L14138.3572,-4306.2831L14138.3058,-4306.3096L14138.2667,-4306.3298L14138.2192,-4306.3546L14138.1968,-4306.3695L14138.1586,-4306.3866L14138.131,-4306.4007L14138.1164,-4306.4111L14138.1026,-4306.4165L14138.0827,-4306.4317L14138.0666,-4306.4474L14138.0597,-4306.4559L14138.0509,-4306.4679L14138.0436,-4306.4762L14138.0313,-4306.4922L14138.0052,-4306.5262L14137.9808,-4306.558L14137.9707,-4306.5699L14137.9587,-4306.5809L14137.9587,-4306.5809L14137.9316,-4306.5813L14137.9223,-4306.5821L14137.8534,-4306.5724L14137.6978,-4306.5516L14137.6096,-4306.5403L14137.4914,-4306.524L14137.4155,-4306.5133L14137.4025,-4306.5116L14137.3151,-4306.4998L14137.2796,-4306.495L14137.2407,-4306.4885L14137.2083,-4306.4805L14137.207,-4306.4805"/>
<path content="1,JR北海道バス（株）,13上野幌,4.5,1.0,1.0," xlink:title="1" d="M14139.4043,-4305.7381L14139.3222,-4305.7831L14139.3099,-4305.7894L14139.2258,-4305.8326L14139.1981,-4305.848L14139.1878,-4305.8529L14139.175,-4305.8615L14139.0306,-4305.9333L14138.9952,-4305.9518L14138.9208,-4305.9905L14138.848,-4306.0276L14138.8334,-4306.036L14138.8226,-4306.0433L14138.7805,-4306.0636L14138.769,-4306.0693L14138.7475,-4306.0811L14138.7398,-4306.0844L14138.7138,-4306.0991L14138.6447,-4306.1357L14138.6171,-4306.1492L14138.5573,-4306.1813L14138.5259,-4306.1959L14138.5044,-4306.2066L14138.4597,-4306.2331L14138.3925,-4306.2651L14138.3687,-4306.2769L14138.3572,-4306.2831L14138.3058,-4306.3096L14138.2667,-4306.3298L14138.2192,-4306.3546L14138.1968,-4306.3695L14138.1586,-4306.3866L14138.131,-4306.4007L14138.1164,-4306.4111L14138.1026,-4306.4165L14138.0827,-4306.4317L14138.0666,-4306.4474L14138.0597,-4306.4559L14138.0509,-4306.4679L14138.0436,-4306.4762L14138.0313,-4306.4922L14138.0052,-4306.5262L14137.9808,-4306.558L14137.9707,-4306.5699L14137.9587,-4306.5809L14137.9587,-4306.5809L14137.9587,-4306.5809L14137.9587,-4306.5809L14137.9316,-4306.5813L14137.9223,-4306.5821L14137.8534,-4306.5724L14137.6978,-4306.5516L14137.6096,-4306.5403L14137.4914,-4306.524L14137.4155,-4306.5133L14137.4025,-4306.5116L14137.3151,-4306.4998L14137.2796,-4306.495L14137.2407,-4306.4885L14137.2083,-4306.4805L14137.207,-4306.4805"/>
<path content="1,JR北海道バス（株）,14もみじ台団地,2.0,1.0,1.0," xlink:title="1" d="M14137.207,-4306.4805L14137.2083,-4306.4805L14137.2407,-4306.4885L14137.2796,-4306.495L14137.3151,-4306.4998L14137.4025,-4306.5116L14137.4155,-4306.5133L14137.4914,-4306.524L14137.6096,-4306.5403L14137.6978,-4306.5516L14137.8534,-4306.5724L14137.9223,-4306.5821L14137.9316,-4306.5813L14137.9587,-4306.5809L14137.9587,-4306.5809L14137.9587,-4306.5809L14137.9587,-4306.5809L14137.9707,-4306.5699L14137.9808,-4306.558L14138.0052,-4306.5262L14138.0313,-4306.4922L14138.0436,-4306.4762L14138.0509,-4306.4679L14138.0597,-4306.4559L14138.0666,-4306.4474L14138.0827,-4306.4317L14138.1026,-4306.4165L14138.1164,-4306.4111L14138.131,-4306.4007L14138.1586,-4306.3866L14138.1968,-4306.3695L14138.2192,-4306.3546L14138.2667,-4306.3298L14138.3058,-4306.3096L14138.3572,-4306.2831L14138.3687,-4306.2769L14138.3925,-4306.2651L14138.4597,-4306.2331L14138.5044,-4306.2066L14138.5259,-4306.1959L14138.5573,-4306.1813L14138.6171,-4306.1492L14138.6447,-4306.1357L14138.7138,-4306.0991L14138.7398,-4306.0844L14138.7475,-4306.0811L14138.769,-4306.0693L14138.7805,-4306.0636L14138.8226,-4306.0433L14138.8334,-4306.036L14138.848,-4306.0276L14138.9208,-4305.9905L14138.9952,-4305.9518L14139.0306,-4305.9333L14139.175,-4305.8615L14139.1878,-4305.8529L14139.1981,-4305.848L14139.2258,-4305.8326L14139.3099,-4305.7894L14139.3222,-4305.7831L14139.4043,-4305.7381"/>
<path content="1,JR北海道バス（株）,1新札幌,49.5,47.5,47.5," xlink:title="1" d="M14139.4043,-4305.7381L14139.3222,-4305.7831L14139.3099,-4305.7894L14139.2258,-4305.8326L14139.1981,-4305.848L14139.1878,-4305.8529L14139.175,-4305.8615L14139.0306,-4305.9333L14138.9952,-4305.9518L14138.9208,-4305.9905L14138.848,-4306.0276L14138.8334,-4306.036L14138.8226,-4306.0433L14138.7805,-4306.0636L14138.769,-4306.0693L14138.7475,-4306.0811L14138.7398,-4306.0844L14138.7138,-4306.0991L14138.6447,-4306.1357L14138.6171,-4306.1492L14138.5573,-4306.1813L14138.5259,-4306.1959L14138.5044,-4306.2066L14138.4597,-4306.2331L14138.3925,-4306.2651L14138.3687,-4306.2769L14138.3572,-4306.2831L14138.3058,-4306.3096L14138.2667,-4306.3298L14138.2192,-4306.3546L14138.1968,-4306.3695L14138.1586,-4306.3866L14138.131,-4306.4007L14138.1164,-4306.4111L14138.1026,-4306.4165L14138.0827,-4306.4317L14138.0666,-4306.4474L14138.0597,-4306.4559L14138.0509,-4306.4679L14138.0436,-4306.4762L14138.0313,-4306.4922L14138.0052,-4306.5262L14137.9808,-4306.558L14137.9707,-4306.5699L14137.9587,-4306.5809L14137.9587,-4306.5809L14137.9587,-4306.5809L14137.9587,-4306.5809L14137.9316,-4306.5813L14137.9223,-4306.5821L14137.8534,-4306.5724L14137.6978,-4306.5516L14137.6096,-4306.5403L14137.4914,-4306.524L14137.4155,-4306.5133L14137.4025,-4306.5116L14137.3151,-4306.4998L14137.2796,-4306.495L14137.2407,-4306.4885L14137.2083,-4306.4805L14137.207,-4306.4805"/>
<path content="1,JR北海道バス（株）,22開拓の村,4.5,4.0,4.0," xlink:title="1" d="M14137.207,-4306.4805L14137.2083,-4306.4805L14137.2407,-4306.4885L14137.2796,-4306.495L14137.3151,-4306.4998L14137.4025,-4306.5116L14137.4155,-4306.5133L14137.4914,-4306.524L14137.6096,-4306.5403L14137.6978,-4306.5516L14137.8534,-4306.5724L14137.9223,-4306.5821L14137.9316,-4306.5813L14137.9587,-4306.5809L14137.9587,-4306.5809L14137.9587,-4306.5809L14137.9587,-4306.5809L14137.9707,-4306.5699L14137.9808,-4306.558L14138.0052,-4306.5262L14138.0313,-4306.4922L14138.0436,-4306.4762L14138.0509,-4306.4679L14138.0597,-4306.4559L14138.0666,-4306.4474L14138.0827,-4306.4317L14138.1026,-4306.4165L14138.1164,-4306.4111L14138.131,-4306.4007L14138.1586,-4306.3866L14138.1968,-4306.3695L14138.2192,-4306.3546L14138.2667,-4306.3298L14138.3058,-4306.3096L14138.3572,-4306.2831L14138.3687,-4306.2769L14138.3925,-4306.2651L14138.4597,-4306.2331L14138.5044,-4306.2066L14138.5259,-4306.1959L14138.5573,-4306.1813L14138.6171,-4306.1492L14138.6447,-4306.1357L14138.7138,-4306.0991L14138.7398,-4306.0844L14138.7475,-4306.0811L14138.769,-4306.0693L14138.7805,-4306.0636L14138.8226,-4306.0433L14138.8334,-4306.036L14138.848,-4306.0276L14138.9208,-4305.9905L14138.9952,-4305.9518L14139.0306,-4305.9333L14139.175,-4305.8615L14139.1878,-4305.8529L14139.1981,-4305.848L14139.2258,-4305.8326L14139.3099,-4305.7894L14139.3222,-4305.7831L14139.4043,-4305.7381"/>
<path content="1,JR北海道バス（株）,24大麻団地,4.0,0.5,0.5," xlink:title="1" d="M14139.4043,-4305.7381L14139.3222,-4305.7831L14139.3099,-4305.7894L14139.2258,-4305.8326L14139.1981,-4305.848L14139.1878,-4305.8529L14139.175,-4305.8615L14139.0306,-4305.9333L14138.9952,-4305.9518L14138.9208,-4305.9905L14138.848,-4306.0276L14138.8334,-4306.036L14138.8226,-4306.0433L14138.7805,-4306.0636L14138.769,-4306.0693L14138.7475,-4306.0811L14138.7398,-4306.0844L14138.7138,-4306.0991L14138.6447,-4306.1357L14138.6171,-4306.1492L14138.5573,-4306.1813L14138.5259,-4306.1959L14138.5044,-4306.2066L14138.4597,-4306.2331L14138.3925,-4306.2651L14138.3687,-4306.2769L14138.3572,-4306.2831L14138.3058,-4306.3096L14138.2667,-4306.3298L14138.2192,-4306.3546L14138.1968,-4306.3695L14138.1586,-4306.3866L14138.131,-4306.4007L14138.1164,-4306.4111L14138.1026,-4306.4165L14138.0827,-4306.4317L14138.0666,-4306.4474L14138.0597,-4306.4559L14138.0509,-4306.4679L14138.0436,-4306.4762L14138.0313,-4306.4922L14138.0052,-4306.5262L14137.9808,-4306.558L14137.9707,-4306.5699L14137.9587,-4306.5809L14137.9587,-4306.5809L14137.9587,-4306.5809L14137.9587,-4306.5809L14137.9316,-4306.5813L14137.9223,-4306.5821L14137.8534,-4306.5724L14137.6978,-4306.5516L14137.6096,-4306.5403L14137.4914,-4306.524L14137.4155,-4306.5133L14137.4025,-4306.5116L14137.3151,-4306.4998L14137.2796,-4306.495L14137.2407,-4306.4885L14137.2083,-4306.4805L14137.207,-4306.4805"/>
<path content="1,JR北海道バス（株）,26江別,5.5,1.0,1.0," xlink:title="1" d="M14139.4043,-4305.7381L14139.3222,-4305.7831L14139.3099,-4305.7894L14139.2258,-4305.8326L14139.1981,-4305.848L14139.1878,-4305.8529L14139.175,-4305.8615L14139.0306,-4305.9333L14138.9952,-4305.9518L14138.9208,-4305.9905L14138.848,-4306.0276L14138.8334,-4306.036L14138.8226,-4306.0433L14138.7805,-4306.0636L14138.769,-4306.0693L14138.7475,-4306.0811L14138.7398,-4306.0844L14138.7138,-4306.0991L14138.6447,-4306.1357L14138.6171,-4306.1492L14138.5573,-4306.1813L14138.5259,-4306.1959L14138.5044,-4306.2066L14138.4597,-4306.2331L14138.3925,-4306.2651L14138.3687,-4306.2769L14138.3572,-4306.2831L14138.3058,-4306.3096L14138.2667,-4306.3298L14138.2192,-4306.3546L14138.1968,-4306.3695L14138.1586,-4306.3866L14138.131,-4306.4007L14138.1164,-4306.4111L14138.1026,-4306.4165L14138.0827,-4306.4317L14138.0666,-4306.4474L14138.0597,-4306.4559L14138.0509,-4306.4679L14138.0436,-4306.4762L14138.0313,-4306.4922L14138.0052,-4306.5262L14137.9808,-4306.558L14137.9707,-4306.5699L14137.9587,-4306.5809L14137.9587,-4306.5809L14137.9587,-4306.5809L14137.9587,-4306.5809L14137.9316,-4306.5813L14137.9223,-4306.5821L14137.8534,-4306.5724L14137.6978,-4306.5516L14137.6096,-4306.5403L14137.4914,-4306.524L14137.4155,-4306.5133L14137.4025,-4306.5116L14137.3151,-4306.4998L14137.2796,-4306.495L14137.2407,-4306.4885L14137.2083,-4306.4805L14137.207,-4306.4805"/>
<path content="1,JR北海道バス（株）,2北郷,16.0,14.5,14.5," xlink:title="1" d="M14139.4043,-4306.5165L14139.3315,-4306.4887L14139.2387,-4306.4527L14139.2311,-4306.4494L14139.2128,-4306.447L14139.1278,-4306.4126L14139.0373,-4306.3822L14138.9835,-4306.3617L14138.9722,-4306.3574"/>
<path content="1,JR北海道バス（株）,2北郷,16.0,14.5,14.5," xlink:title="1" d="M14138.9722,-4306.3574L14138.8995,-4306.4119"/>
<path content="1,JR北海道バス（株）,2北郷,16.0,14.5,14.5," xlink:title="1" d="M14138.9722,-4306.3574L14138.9338,-4306.3428L14138.9263,-4306.34L14138.8824,-4306.3236L14138.8676,-4306.3182L14138.782,-4306.2871L14138.7291,-4306.2679L14138.7114,-4306.2637L14138.6562,-4306.2426L14138.5556,-4306.2049L14138.5259,-4306.1959L14138.5044,-4306.2066L14138.4597,-4306.2331L14138.3925,-4306.2651L14138.3687,-4306.2769L14138.3572,-4306.2831L14138.3058,-4306.3096L14138.2667,-4306.3298L14138.2192,-4306.3546L14138.1968,-4306.3695L14138.1586,-4306.3866L14138.131,-4306.4007L14138.1164,-4306.4111L14138.1026,-4306.4165L14138.0827,-4306.4317L14138.0666,-4306.4474L14138.0597,-4306.4559L14138.0509,-4306.4679L14138.0436,-4306.4762L14138.0313,-4306.4922L14138.0052,-4306.5262L14137.9808,-4306.558L14137.9707,-4306.5699L14137.9587,-4306.5809L14137.9587,-4306.5809L14137.9316,-4306.5813L14137.9223,-4306.5821L14137.8534,-4306.5724L14137.6978,-4306.5516L14137.6096,-4306.5403L14137.4914,-4306.524L14137.4155,-4306.5133L14137.4025,-4306.5116L14137.3151,-4306.4998L14137.2796,-4306.495L14137.2407,-4306.4885L14137.2083,-4306.4805L14137.207,-4306.4805"/>
<path content="1,JR北海道バス（株）,33北広島,6.0,2.0,2.0," xlink:title="1" d="M14139.4043,-4305.7381L14139.3222,-4305.7831L14139.3099,-4305.7894L14139.2258,-4305.8326L14139.1981,-4305.848L14139.1878,-4305.8529L14139.175,-4305.8615L14139.0306,-4305.9333L14138.9952,-4305.9518L14138.9208,-4305.9905L14138.848,-4306.0276L14138.8334,-4306.036L14138.8226,-4306.0433L14138.7805,-4306.0636L14138.769,-4306.0693L14138.7475,-4306.0811L14138.7398,-4306.0844L14138.7138,-4306.0991L14138.6447,-4306.1357L14138.6171,-4306.1492L14138.5573,-4306.1813L14138.5259,-4306.1959L14138.5044,-4306.2066L14138.4597,-4306.2331L14138.3925,-4306.2651L14138.3687,-4306.2769L14138.3572,-4306.2831L14138.3058,-4306.3096L14138.2667,-4306.3298L14138.2192,-4306.3546L14138.1968,-4306.3695L14138.1586,-4306.3866L14138.131,-4306.4007L14138.1164,-4306.4111L14138.1026,-4306.4165L14138.0827,-4306.4317L14138.0666,-4306.4474L14138.0597,-4306.4559L14138.0509,-4306.4679L14138.0436,-4306.4762L14138.0313,-4306.4922L14138.0052,-4306.5262L14137.9808,-4306.558L14137.9707,-4306.5699L14137.9587,-4306.5809L14137.9587,-4306.5809L14137.9587,-4306.5809L14137.9587,-4306.5809L14137.9316,-4306.5813L14137.9223,-4306.5821L14137.8534,-4306.5724L14137.6978,-4306.5516L14137.6096,-4306.5403L14137.4914,-4306.524L14137.4155,-4306.5133L14137.4025,-4306.5116L14137.3151,-4306.4998L14137.2796,-4306.495L14137.2407,-4306.4885L14137.2083,-4306.4805L14137.207,-4306.4805"/>
<path content="1,JR北海道バス（株）,5米里,11.5,10.5,10.5," xlink:title="1" d="M14137.207,-4305.7815L14137.2294,-4305.765L14137.2492,-4305.7483L14137.255,-4305.7437L14137.2862,-4305.7155L14137.3524,-4305.6593L14137.365,-4305.6461L14137.424,-4305.6651L14137.5051,-4305.694L14137.5329,-4305.7045L14137.6142,-4305.7355L14137.6962,-4305.7653L14137.7208,-4305.7738L14137.7744,-4305.794L14137.8342,-4305.8165L14137.8611,-4305.8271L14137.8749,-4305.8315L14137.9054,-4305.8426L14137.9355,-4305.8514L14138.0045,-4305.8796L14138.0307,-4305.8909L14138.0451,-4305.8964L14138.0689,-4305.9071L14138.0842,-4305.9156L14138.0885,-4305.9187L14138.0973,-4305.9251L14138.1022,-4305.9295L14138.175,-4305.9688L14138.2123,-4306L14138.2552,-4306.0282L14138.3135,-4306.0648L14138.3327,-4306.0783L14138.3357,-4306.0794L14138.3794,-4306.1092L14138.4101,-4306.1278L14138.45,-4306.1537L14138.4577,-4306.1576L14138.4906,-4306.1801L14138.5259,-4306.1959L14138.5556,-4306.2049L14138.6562,-4306.2426L14138.7114,-4306.2637L14138.7291,-4306.2679L14138.782,-4306.2871L14138.8676,-4306.3182L14138.8824,-4306.3236L14138.9263,-4306.34L14138.9338,-4306.3428L14138.9722,-4306.3574L14138.9835,-4306.3617L14139.0373,-4306.3822L14139.1278,-4306.4126L14139.2128,-4306.447L14139.2311,-4306.4494L14139.2387,-4306.4527L14139.3315,-4306.4887L14139.4043,-4306.5165"/>
<path content="1,JR北海道バス（株）,7米里,11.5,11.5,11.5," xlink:title="1" d="M14137.7744,-4305.794L14137.8342,-4305.8165L14137.8611,-4305.8271L14137.8749,-4305.8315L14137.9054,-4305.8426L14137.9355,-4305.8514L14138.0045,-4305.8796L14138.0307,-4305.8909L14138.0451,-4305.8964L14138.0689,-4305.9071L14138.0842,-4305.9156L14138.0885,-4305.9187L14138.0973,-4305.9251L14138.1022,-4305.9295L14138.175,-4305.9688L14138.2123,-4306L14138.2552,-4306.0282L14138.3135,-4306.0648L14138.3327,-4306.0783L14138.3357,-4306.0794L14138.3794,-4306.1092L14138.4101,-4306.1278L14138.45,-4306.1537L14138.4577,-4306.1576L14138.4906,-4306.1801L14138.5259,-4306.1959L14138.5556,-4306.2049L14138.6562,-4306.2426L14138.7114,-4306.2637L14138.7291,-4306.2679L14138.782,-4306.2871L14138.8676,-4306.3182L14138.8824,-4306.3236L14138.9263,-4306.34L14138.9338,-4306.3428L14138.9722,-4306.3574L14138.9835,-4306.3617L14139.0373,-4306.3822L14139.1278,-4306.4126L14139.2128,-4306.447L14139.2311,-4306.4494L14139.2387,-4306.4527L14139.3315,-4306.4887L14139.4043,-4306.5165"/>
<path content="1,JR北海道バス（株）,7米里,11.5,11.5,11.5," xlink:title="1" d="M14137.5498,-4306.081L14137.5298,-4306.0658L14137.4958,-4306.0312L14137.4071,-4305.9752L14137.3803,-4305.9544L14137.346,-4305.9212L14137.2906,-4305.8885L14137.207,-4305.8269M14137.207,-4305.7815L14137.2294,-4305.765L14137.2492,-4305.7483L14137.255,-4305.7437L14137.2862,-4305.7155L14137.3524,-4305.6593L14137.365,-4305.6461L14137.424,-4305.6651L14137.5051,-4305.694L14137.5329,-4305.7045L14137.6142,-4305.7355L14137.6962,-4305.7653L14137.7208,-4305.7738L14137.7744,-4305.794"/>
<path content="1,JR北海道バス（株）,7米里,11.5,11.5,11.5," xlink:title="1" d="M14137.5498,-4306.081L14137.5567,-4306.0709L14137.5919,-4306.0264L14137.6042,-4306.0113L14137.618,-4305.9949L14137.6203,-4305.9916L14137.6924,-4305.8987L14137.7093,-4305.8768L14137.7208,-4305.8627L14137.7744,-4305.794"/>
<path content="1,JR北海道バス（株）,7米里,11.5,11.5,11.5," xlink:title="1" d="M14137.207,-4306.4805L14137.2083,-4306.4805L14137.2407,-4306.4885L14137.2796,-4306.495L14137.2855,-4306.4882L14137.2898,-4306.457L14137.2994,-4306.4241L14137.3089,-4306.3982L14137.3135,-4306.3874L14137.3565,-4306.3326L14137.3951,-4306.2833L14137.3978,-4306.2799L14137.4079,-4306.2651L14137.4976,-4306.1491L14137.5053,-4306.1379L14137.5498,-4306.081"/>
<path content="1,JR北海道バス（株）,8米里,5.0,4.0,4.0," xlink:title="1" d="M14139.4043,-4306.5165L14139.3315,-4306.4887L14139.2387,-4306.4527L14139.2311,-4306.4494L14139.2128,-4306.447L14139.1278,-4306.4126L14139.0373,-4306.3822L14138.9835,-4306.3617L14138.9722,-4306.3574L14138.9338,-4306.3428L14138.9263,-4306.34L14138.8824,-4306.3236L14138.8676,-4306.3182L14138.782,-4306.2871L14138.7291,-4306.2679L14138.7114,-4306.2637L14138.6562,-4306.2426L14138.5556,-4306.2049L14138.5259,-4306.1959L14138.5044,-4306.2066L14138.4597,-4306.2331L14138.3925,-4306.2651L14138.3687,-4306.2769L14138.3572,-4306.2831L14138.3058,-4306.3096L14138.2667,-4306.3298L14138.2192,-4306.3546L14138.1968,-4306.3695L14138.1586,-4306.3866L14138.131,-4306.4007L14138.1164,-4306.4111L14138.1026,-4306.4165L14138.0827,-4306.4317L14138.0666,-4306.4474L14138.0597,-4306.4559L14138.0509,-4306.4679L14138.0436,-4306.4762L14138.0313,-4306.4922L14138.0052,-4306.5262L14137.9808,-4306.558L14137.9707,-4306.5699L14137.9587,-4306.5809L14137.9587,-4306.5809L14137.9316,-4306.5813L14137.9223,-4306.5821L14137.8534,-4306.5724L14137.6978,-4306.5516L14137.6096,-4306.5403L14137.4914,-4306.524L14137.4155,-4306.5133L14137.4025,-4306.5116L14137.3151,-4306.4998L14137.2796,-4306.495L14137.2407,-4306.4885L14137.2083,-4306.4805L14137.207,-4306.4805"/>
<path content="1,JR北海道バス（株）,バ5米里,4.5,2.0,2.0," xlink:title="1" d="M14137.207,-4305.7815L14137.2294,-4305.765L14137.2492,-4305.7483L14137.255,-4305.7437L14137.2862,-4305.7155L14137.3524,-4305.6593L14137.365,-4305.6461L14137.424,-4305.6651L14137.5051,-4305.694L14137.5329,-4305.7045L14137.6142,-4305.7355L14137.6962,-4305.7653L14137.7208,-4305.7738L14137.7744,-4305.794L14137.8342,-4305.8165L14137.8611,-4305.8271L14137.8749,-4305.8315L14137.9054,-4305.8426L14137.9355,-4305.8514L14138.0045,-4305.8796L14138.0307,-4305.8909L14138.0451,-4305.8964L14138.0689,-4305.9071L14138.0842,-4305.9156L14138.0885,-4305.9187L14138.0973,-4305.9251L14138.1022,-4305.9295L14138.175,-4305.9688L14138.2123,-4306L14138.2552,-4306.0282L14138.3135,-4306.0648L14138.3327,-4306.0783L14138.3357,-4306.0794L14138.3794,-4306.1092L14138.4101,-4306.1278L14138.45,-4306.1537L14138.4577,-4306.1576L14138.4906,-4306.1801L14138.5259,-4306.1959L14138.5556,-4306.2049L14138.6562,-4306.2426L14138.7114,-4306.2637L14138.7291,-4306.2679L14138.782,-4306.2871L14138.8676,-4306.3182L14138.8824,-4306.3236L14138.9263,-4306.34L14138.9338,-4306.3428L14138.9722,-4306.3574L14138.9835,-4306.3617L14139.0373,-4306.3822L14139.1278,-4306.4126L14139.2128,-4306.447L14139.2311,-4306.4494L14139.2387,-4306.4527L14139.3315,-4306.4887L14139.4043,-4306.5165"/>
<path content="1,JR北海道バス（株）,流氷もんべつ号,4.2,4.2,4.2," xlink:title="1" d="M14137.207,-4305.7815L14137.2294,-4305.765L14137.2492,-4305.7483L14137.255,-4305.7437L14137.2862,-4305.7155L14137.3524,-4305.6593L14137.365,-4305.6461L14137.424,-4305.6651L14137.5051,-4305.694L14137.5329,-4305.7045L14137.6142,-4305.7355L14137.6962,-4305.7653L14137.7208,-4305.7738L14137.7744,-4305.794L14137.8342,-4305.8165L14137.8611,-4305.8271L14137.8749,-4305.8315L14137.9054,-4305.8426L14137.9355,-4305.8514L14138.0045,-4305.8796L14138.0307,-4305.8909L14138.0451,-4305.8964L14138.0689,-4305.9071L14138.0842,-4305.9156L14138.0885,-4305.9187L14138.0973,-4305.9251L14138.1022,-4305.9295L14138.175,-4305.9688L14138.2123,-4306L14138.2552,-4306.0282L14138.3135,-4306.0648L14138.3327,-4306.0783L14138.3357,-4306.0794L14138.3794,-4306.1092L14138.4101,-4306.1278L14138.45,-4306.1537L14138.4577,-4306.1576L14138.4906,-4306.1801L14138.5259,-4306.1959L14138.5556,-4306.2049L14138.6562,-4306.2426L14138.7114,-4306.2637L14138.7291,-4306.2679L14138.782,-4306.2871L14138.8676,-4306.3182L14138.8824,-4306.3236L14138.9263,-4306.34L14138.9338,-4306.3428L14138.9722,-4306.3574L14138.9835,-4306.3617L14139.0373,-4306.3822L14139.1278,-4306.4126L14139.2128,-4306.447L14139.2311,-4306.4494L14139.2387,-4306.4527L14139.3315,-4306.4887L14139.4043,-4306.5165"/>
<path content="1,JR北海道バス（株）,菊7-1米里,1.8,1.1,1.1," xlink:title="1" d="M14137.207,-4305.7815L14137.2294,-4305.765L14137.2492,-4305.7483L14137.255,-4305.7437L14137.2862,-4305.7155L14137.3524,-4305.6593L14137.365,-4305.6461L14137.424,-4305.6651L14137.5051,-4305.694L14137.5329,-4305.7045L14137.6142,-4305.7355L14137.6962,-4305.7653L14137.7208,-4305.7738L14137.7744,-4305.794L14137.8342,-4305.8165L14137.8611,-4305.8271L14137.8749,-4305.8315L14137.9054,-4305.8426L14137.9355,-4305.8514L14138.0045,-4305.8796L14138.0307,-4305.8909L14138.0451,-4305.8964L14138.0689,-4305.9071L14138.0842,-4305.9156L14138.0885,-4305.9187L14138.0973,-4305.9251L14138.1022,-4305.9295L14138.175,-4305.9688L14138.2123,-4306L14138.2552,-4306.0282L14138.3135,-4306.0648L14138.3327,-4306.0783L14138.3357,-4306.0794L14138.3794,-4306.1092L14138.4101,-4306.1278L14138.45,-4306.1537L14138.4577,-4306.1576L14138.4906,-4306.1801L14138.5259,-4306.1959L14138.5556,-4306.2049L14138.6562,-4306.2426L14138.7114,-4306.2637L14138.7291,-4306.2679L14138.782,-4306.2871L14138.8676,-4306.3182L14138.8824,-4306.3236L14138.9263,-4306.34L14138.9338,-4306.3428L14138.9722,-4306.3574L14138.9835,-4306.3617L14139.0373,-4306.3822L14139.1278,-4306.4126L14139.2128,-4306.447L14139.2311,-4306.4494L14139.2387,-4306.4527L14139.3315,-4306.4887L14139.4043,-4306.5165"/>
<path content="1,JR北海道バス（株）,菊7米里,19.3,7.4,7.4," xlink:title="1" d="M14137.207,-4305.7815L14137.2294,-4305.765L14137.2492,-4305.7483L14137.255,-4305.7437L14137.2862,-4305.7155L14137.3524,-4305.6593L14137.365,-4305.6461L14137.424,-4305.6651L14137.5051,-4305.694L14137.5329,-4305.7045L14137.6142,-4305.7355L14137.6962,-4305.7653L14137.7208,-4305.7738L14137.7744,-4305.794L14137.8342,-4305.8165L14137.8611,-4305.8271L14137.8749,-4305.8315L14137.9054,-4305.8426L14137.9355,-4305.8514L14138.0045,-4305.8796L14138.0307,-4305.8909L14138.0451,-4305.8964L14138.0689,-4305.9071L14138.0842,-4305.9156L14138.0885,-4305.9187L14138.0973,-4305.9251L14138.1022,-4305.9295L14138.175,-4305.9688L14138.2123,-4306L14138.2552,-4306.0282L14138.3135,-4306.0648L14138.3327,-4306.0783L14138.3357,-4306.0794L14138.3794,-4306.1092L14138.4101,-4306.1278L14138.45,-4306.1537L14138.4577,-4306.1576L14138.4906,-4306.1801L14138.5259,-4306.1959L14138.5556,-4306.2049L14138.6562,-4306.2426L14138.7114,-4306.2637L14138.7291,-4306.2679L14138.782,-4306.2871L14138.8676,-4306.3182L14138.8824,-4306.3236L14138.9263,-4306.34L14138.9338,-4306.3428L14138.9722,-4306.3574L14138.9835,-4306.3617L14139.0373,-4306.3822L14139.1278,-4306.4126L14139.2128,-4306.447L14139.2311,-4306.4494L14139.2387,-4306.4527L14139.3315,-4306.4887L14139.4043,-4306.5165"/>
<path content="1,JR北海道バス（株）,高速あさひかわ号,4.5,4.5,4.5," xlink:title="1" d="M14137.207,-4305.7815L14137.2294,-4305.765L14137.2492,-4305.7483L14137.255,-4305.7437L14137.2862,-4305.7155L14137.3524,-4305.6593L14137.365,-4305.6461L14137.424,-4305.6651L14137.5051,-4305.694L14137.5329,-4305.7045L14137.6142,-4305.7355L14137.6962,-4305.7653L14137.7208,-4305.7738L14137.7744,-4305.794L14137.8342,-4305.8165L14137.8611,-4305.8271L14137.8749,-4305.8315L14137.9054,-4305.8426L14137.9355,-4305.8514L14138.0045,-4305.8796L14138.0307,-4305.8909L14138.0451,-4305.8964L14138.0689,-4305.9071L14138.0842,-4305.9156L14138.0885,-4305.9187L14138.0973,-4305.9251L14138.1022,-4305.9295L14138.175,-4305.9688L14138.2123,-4306L14138.2552,-4306.0282L14138.3135,-4306.0648L14138.3327,-4306.0783L14138.3357,-4306.0794L14138.3794,-4306.1092L14138.4101,-4306.1278L14138.45,-4306.1537L14138.4577,-4306.1576L14138.4906,-4306.1801L14138.5259,-4306.1959L14138.5556,-4306.2049L14138.6562,-4306.2426L14138.7114,-4306.2637L14138.7291,-4306.2679L14138.782,-4306.2871L14138.8676,-4306.3182L14138.8824,-4306.3236L14138.9263,-4306.34L14138.9338,-4306.3428L14138.9722,-4306.3574L14138.9835,-4306.3617L14139.0373,-4306.3822L14139.1278,-4306.4126L14139.2128,-4306.447L14139.2311,-4306.4494L14139.2387,-4306.4527L14139.3315,-4306.4887L14139.4043,-4306.5165"/>
<path content="1,JR北海道バス（株）,高速えりも号,1.0,1.0,1.0," xlink:title="1" d="M14137.207,-4306.4805L14137.2083,-4306.4805L14137.2407,-4306.4885L14137.2796,-4306.495L14137.3151,-4306.4998L14137.4025,-4306.5116L14137.4155,-4306.5133L14137.4914,-4306.524L14137.6096,-4306.5403L14137.6978,-4306.5516L14137.8534,-4306.5724L14137.9223,-4306.5821L14137.9316,-4306.5813L14137.9587,-4306.5809L14137.9587,-4306.5809L14137.9587,-4306.5809L14137.9587,-4306.5809L14137.9707,-4306.5699L14137.9808,-4306.558L14138.0052,-4306.5262L14138.0313,-4306.4922L14138.0436,-4306.4762L14138.0509,-4306.4679L14138.0597,-4306.4559L14138.0666,-4306.4474L14138.0827,-4306.4317L14138.1026,-4306.4165L14138.1164,-4306.4111L14138.131,-4306.4007L14138.1586,-4306.3866L14138.1968,-4306.3695L14138.2192,-4306.3546L14138.2667,-4306.3298L14138.3058,-4306.3096L14138.3572,-4306.2831L14138.3687,-4306.2769L14138.3925,-4306.2651L14138.4597,-4306.2331L14138.5044,-4306.2066L14138.5259,-4306.1959L14138.5573,-4306.1813L14138.6171,-4306.1492L14138.6447,-4306.1357L14138.7138,-4306.0991L14138.7398,-4306.0844L14138.7475,-4306.0811L14138.769,-4306.0693L14138.7805,-4306.0636L14138.8226,-4306.0433L14138.8334,-4306.036L14138.848,-4306.0276L14138.9208,-4305.9905L14138.9952,-4305.9518L14139.0306,-4305.9333L14139.175,-4305.8615L14139.1878,-4305.8529L14139.1981,-4305.848L14139.2258,-4305.8326L14139.3099,-4305.7894L14139.3222,-4305.7831L14139.4043,-4305.7381"/>
<path content="1,JR北海道バス（株）,高速ポテトライナー,7.0,7.0,7.0," xlink:title="1" d="M14138.257,-4304.4434L14138.2377,-4304.4554L14138.2147,-4304.4697L14138.208,-4304.4737L14138.0962,-4304.5424L14138.0711,-4304.5619L14138.0057,-4304.5962L14137.9286,-4304.6457L14137.8422,-4304.6968L14137.8363,-4304.7004L14137.7062,-4304.7881L14137.6033,-4304.8408L14137.5334,-4304.8837L14137.4321,-4304.9459L14137.4148,-4304.9561L14137.3067,-4305.0229L14137.207,-4305.0852"/>
<path content="1,くしろバス（株）,スターライト釧路号,2.0,2.0,2.0," xlink:title="1" d="M14139.4043,-4305.7381L14139.3222,-4305.7831L14139.3099,-4305.7894L14139.2258,-4305.8326L14139.1981,-4305.848L14139.1878,-4305.8529L14139.175,-4305.8615L14139.0306,-4305.9333L14138.9952,-4305.9518L14138.9208,-4305.9905L14138.848,-4306.0276L14138.8334,-4306.036L14138.8226,-4306.0433L14138.7805,-4306.0636L14138.769,-4306.0693L14138.7475,-4306.0811L14138.7398,-4306.0844L14138.7138,-4306.0991L14138.6447,-4306.1357L14138.6171,-4306.1492L14138.5573,-4306.1813L14138.5259,-4306.1959L14138.5044,-4306.2066L14138.4597,-4306.2331L14138.3925,-4306.2651L14138.3687,-4306.2769L14138.3572,-4306.2831L14138.3058,-4306.3096L14138.2667,-4306.3298L14138.2192,-4306.3546L14138.1968,-4306.3695L14138.1586,-4306.3866L14138.131,-4306.4007L14138.1164,-4306.4111L14138.1026,-4306.4165L14138.0827,-4306.4317L14138.0666,-4306.4474L14138.0597,-4306.4559L14138.0509,-4306.4679L14138.0436,-4306.4762L14138.0313,-4306.4922L14138.0052,-4306.5262L14137.9808,-4306.558L14137.9707,-4306.5699L14137.9587,-4306.5809L14137.9587,-4306.5809L14137.9587,-4306.5809L14137.9587,-4306.5809L14137.9316,-4306.5813L14137.9223,-4306.5821L14137.8534,-4306.5724L14137.6978,-4306.5516L14137.6096,-4306.5403L14137.4914,-4306.524L14137.4155,-4306.5133L14137.4025,-4306.5116L14137.3151,-4306.4998L14137.2796,-4306.495L14137.2407,-4306.4885L14137.2083,-4306.4805L14137.207,-4306.4805"/>
<path content="1,北海道中央バス（株）,113　大曲光線,12.0,10.5,10.5," xlink:title="1" d="M14138.257,-4304.4434L14138.2377,-4304.4554L14138.2147,-4304.4697L14138.208,-4304.4737L14138.0962,-4304.5424L14138.0711,-4304.5619L14138.0057,-4304.5962L14137.9286,-4304.6457L14137.8422,-4304.6968L14137.837,-4304.7L14137.8363,-4304.7004L14137.8357,-4304.7008L14137.7062,-4304.7881L14137.6033,-4304.8408L14137.5334,-4304.8837L14137.4321,-4304.9459L14137.4148,-4304.9561L14137.3067,-4305.0229L14137.207,-4305.0852"/>
<path content="1,北海道中央バス（株）,50　雁来線,5.0,0.0,0.0," xlink:title="1" d="M14137.207,-4306.4805L14137.2083,-4306.4805L14137.2407,-4306.4885L14137.2796,-4306.495L14137.3151,-4306.4998L14137.4025,-4306.5116L14137.4155,-4306.5133L14137.4914,-4306.524L14137.6096,-4306.5403L14137.6978,-4306.5516L14137.8534,-4306.5724L14137.9223,-4306.5821L14137.9316,-4306.5813L14137.9587,-4306.5809L14137.9587,-4306.5809L14137.9587,-4306.5809L14137.9587,-4306.5809L14137.9587,-4306.5809L14137.9587,-4306.5809L14137.9587,-4306.5809L14137.9587,-4306.5809L14137.9587,-4306.5809L14137.9588,-4306.5809L14137.9792,-4306.5821L14138.0535,-4306.6106L14138.1463,-4306.6377L14138.1561,-4306.6406"/>
<path content="1,北海道中央バス（株）,55　白石本線,23.5,23.0,23.0," xlink:title="1" d="M14138.9722,-4306.3574L14138.8995,-4306.4119"/>
<path content="1,北海道中央バス（株）,55　白石本線,23.5,23.0,23.0," xlink:title="1" d="M14138.9722,-4306.3574L14139.0021,-4306.317L14139.0443,-4306.2995L14139.1025,-4306.268L14139.1217,-4306.2606L14139.16,-4306.2415L14139.1823,-4306.2297L14139.2436,-4306.1993L14139.2521,-4306.1959L14139.2689,-4306.1863L14139.2812,-4306.1807L14139.2873,-4306.1768L14139.3579,-4306.1413L14139.4008,-4306.1194L14139.4043,-4306.1176"/>
<path content="1,北海道中央バス（株）,55　白石本線,23.5,23.0,23.0," xlink:title="1" d="M14137.207,-4306.4805L14137.2083,-4306.4805L14137.2407,-4306.4885L14137.2796,-4306.495L14137.3151,-4306.4998L14137.4025,-4306.5116L14137.4155,-4306.5133L14137.4914,-4306.524L14137.6096,-4306.5403L14137.6978,-4306.5516L14137.8534,-4306.5724L14137.9223,-4306.5821L14137.9316,-4306.5813L14137.9587,-4306.5809"/>
<path content="1,北海道中央バス（株）,55　白石本線,23.5,23.0,23.0," xlink:title="1" d="M14137.9587,-4306.5809L14137.9587,-4306.5809L14137.9707,-4306.5699L14137.9808,-4306.558L14138.0052,-4306.5262L14138.0313,-4306.4922L14138.0436,-4306.4762L14138.0509,-4306.4679L14138.0597,-4306.4559L14138.0666,-4306.4474L14138.0827,-4306.4317L14138.1026,-4306.4165L14138.1164,-4306.4111L14138.131,-4306.4007L14138.1586,-4306.3866L14138.1968,-4306.3695L14138.2192,-4306.3546L14138.2667,-4306.3298L14138.3058,-4306.3096L14138.3572,-4306.2831L14138.3687,-4306.2769L14138.3925,-4306.2651L14138.4597,-4306.2331L14138.5044,-4306.2066L14138.5259,-4306.1959L14138.5556,-4306.2049L14138.6562,-4306.2426L14138.7114,-4306.2637L14138.7291,-4306.2679L14138.782,-4306.2871L14138.8676,-4306.3182L14138.8824,-4306.3236L14138.9263,-4306.34L14138.9338,-4306.3428L14138.9722,-4306.3574"/>
<path content="1,北海道中央バス（株）,55　白石本線,23.5,23.0,23.0," xlink:title="1" d="M14137.9587,-4306.5809L14137.9587,-4306.5809L14137.9587,-4306.5809L14137.9587,-4306.5809L14137.9587,-4306.5809L14137.9587,-4306.5809L14137.9587,-4306.5809L14137.9587,-4306.5809L14137.9587,-4306.5809L14137.9588,-4306.5809L14137.9792,-4306.5821"/>
<path content="1,北海道中央バス（株）,57　北郷本線,13.5,13.0,13.0," xlink:title="1" d="M14138.9722,-4306.3574L14139.0021,-4306.317L14139.0443,-4306.2995L14139.1025,-4306.268L14139.1217,-4306.2606L14139.16,-4306.2415L14139.1823,-4306.2297L14139.2436,-4306.1993L14139.2521,-4306.1959L14139.2689,-4306.1863L14139.2812,-4306.1807L14139.2873,-4306.1768L14139.3579,-4306.1413L14139.4008,-4306.1194L14139.4043,-4306.1176"/>
<path content="1,北海道中央バス（株）,57　北郷本線,13.5,13.0,13.0," xlink:title="1" d="M14138.9722,-4306.3574L14138.9338,-4306.3428L14138.9263,-4306.34L14138.8824,-4306.3236L14138.8676,-4306.3182L14138.782,-4306.2871L14138.7291,-4306.2679L14138.7114,-4306.2637L14138.6562,-4306.2426L14138.5556,-4306.2049L14138.5259,-4306.1959L14138.5044,-4306.2066L14138.4597,-4306.2331L14138.3925,-4306.2651L14138.3687,-4306.2769L14138.3572,-4306.2831L14138.3058,-4306.3096L14138.2667,-4306.3298L14138.2192,-4306.3546L14138.1968,-4306.3695L14138.1586,-4306.3866L14138.131,-4306.4007L14138.1164,-4306.4111L14138.1026,-4306.4165L14138.0827,-4306.4317L14138.0666,-4306.4474L14138.0597,-4306.4559L14138.0509,-4306.4679L14138.0436,-4306.4762L14138.0313,-4306.4922L14138.0052,-4306.5262L14137.9808,-4306.558L14137.9707,-4306.5699L14137.9587,-4306.5809L14137.9587,-4306.5809"/>
<path content="1,北海道中央バス（株）,57　北郷本線,13.5,13.0,13.0," xlink:title="1" d="M14138.8995,-4306.4119L14138.9722,-4306.3574"/>
<path content="1,北海道中央バス（株）,57　北郷本線,13.5,13.0,13.0," xlink:title="1" d="M14137.207,-4306.4805L14137.2083,-4306.4805L14137.2407,-4306.4885L14137.2796,-4306.495L14137.3151,-4306.4998L14137.4025,-4306.5116L14137.4155,-4306.5133L14137.4914,-4306.524L14137.6096,-4306.5403L14137.6978,-4306.5516L14137.8534,-4306.5724L14137.9223,-4306.5821L14137.9316,-4306.5813L14137.9587,-4306.5809"/>
<path content="1,北海道中央バス（株）,57　北郷本線,13.5,13.0,13.0," xlink:title="1" d="M14137.9587,-4306.5809L14137.9587,-4306.5809L14137.9587,-4306.5809L14137.9587,-4306.5809L14137.9587,-4306.5809L14137.9587,-4306.5809L14137.9587,-4306.5809L14137.9587,-4306.5809L14137.9587,-4306.5809L14137.9588,-4306.5809L14137.9792,-4306.5821"/>
<path content="1,北海道中央バス（株）,61　月寒東線,48.0,31.0,31.0," xlink:title="1" d="M14138.257,-4304.4434L14138.2377,-4304.4554L14138.2147,-4304.4697L14138.208,-4304.4737L14138.0962,-4304.5424L14138.0711,-4304.5619L14138.0057,-4304.5962L14137.9286,-4304.6457L14137.8422,-4304.6968L14137.837,-4304.7L14137.8363,-4304.7004L14137.8357,-4304.7008L14137.7062,-4304.7881L14137.6033,-4304.8408L14137.5334,-4304.8837L14137.4321,-4304.9459L14137.4148,-4304.9561L14137.3067,-4305.0229L14137.207,-4305.0852"/>
<path content="1,北海道中央バス（株）,64　北野中央線,8.0,10.0,10.0," xlink:title="1" d="M14137.207,-4305.0852L14137.3067,-4305.0229L14137.4148,-4304.9561L14137.4321,-4304.9459L14137.5334,-4304.8837L14137.6033,-4304.8408L14137.7062,-4304.7881L14137.8357,-4304.7008L14137.8363,-4304.7004L14137.837,-4304.7L14137.8422,-4304.6968L14137.9286,-4304.6457L14138.0057,-4304.5962L14138.0711,-4304.5619L14138.0962,-4304.5424L14138.208,-4304.4737L14138.2147,-4304.4697L14138.2377,-4304.4554L14138.257,-4304.4434"/>
<path content="1,北海道中央バス（株）,72　南郷線,14.0,11.5,11.5," xlink:title="1" d="M14139.4043,-4304.6912L14139.4031,-4304.6917L14139.2975,-4304.7431L14139.2878,-4304.7478L14139.2851,-4304.7492L14139.2848,-4304.7493L14139.2844,-4304.7495L14139.1955,-4304.7869L14139.1687,-4304.806L14139.1587,-4304.8107L14139.1418,-4304.8193L14139.0646,-4304.8587L14139.0476,-4304.8672L14139.0369,-4304.8725L14138.9356,-4304.924L14138.916,-4304.9355L14138.908,-4304.9391L14138.8616,-4304.9627L14138.8475,-4304.9715L14138.8097,-4304.9402L14138.7989,-4304.9324L14138.7782,-4304.9161L14138.7598,-4304.9014L14138.7434,-4304.888L14138.7169,-4304.8682L14138.6395,-4304.8069L14138.5827,-4304.7624L14138.5382,-4304.7275L14138.529,-4304.7202L14138.4633,-4304.6695L14138.4501,-4304.6594L14138.4439,-4304.6554L14138.4135,-4304.632L14138.3726,-4304.5986L14138.3174,-4304.553L14138.266,-4304.5119L14138.2545,-4304.5018L14138.2147,-4304.4697L14138.208,-4304.4737L14138.0962,-4304.5424L14138.0711,-4304.5619L14138.0057,-4304.5962L14137.9286,-4304.6457L14137.8422,-4304.6968L14137.837,-4304.7L14137.8363,-4304.7004L14137.8357,-4304.7008L14137.7062,-4304.7881L14137.6033,-4304.8408L14137.5334,-4304.8837L14137.4321,-4304.9459L14137.4148,-4304.9561L14137.3067,-4305.0229L14137.207,-4305.0852"/>
<path content="1,北海道中央バス（株）,74　月寒本線,1.0,0.0,0.0," xlink:title="1" d="M14138.257,-4304.4434L14138.2377,-4304.4554L14138.2147,-4304.4697L14138.208,-4304.4737L14138.0962,-4304.5424L14138.0711,-4304.5619L14138.0057,-4304.5962L14137.9286,-4304.6457L14137.8422,-4304.6968L14137.837,-4304.7L14137.8363,-4304.7004L14137.8357,-4304.7008L14137.7062,-4304.7881L14137.6033,-4304.8408L14137.5334,-4304.8837L14137.4321,-4304.9459L14137.4148,-4304.9561L14137.3067,-4305.0229L14137.207,-4305.0852"/>
<path content="1,北海道中央バス（株）,75　白石線,11.5,11.5,11.5," xlink:title="1" d="M14138.257,-4304.4434L14138.2377,-4304.4554L14138.2147,-4304.4697L14138.208,-4304.4737L14138.0962,-4304.5424L14138.0711,-4304.5619L14138.0057,-4304.5962L14137.9286,-4304.6457L14137.8422,-4304.6968L14137.837,-4304.7L14137.8363,-4304.7004L14137.8357,-4304.7008L14137.7062,-4304.7881L14137.6033,-4304.8408L14137.5334,-4304.8837L14137.4321,-4304.9459L14137.4148,-4304.9561L14137.3067,-4305.0229L14137.207,-4305.0852"/>
<path content="1,北海道中央バス（株）,80　月寒本線,29.0,24.5,24.5," xlink:title="1" d="M14138.257,-4304.4434L14138.2377,-4304.4554L14138.2147,-4304.4697L14138.208,-4304.4737L14138.0962,-4304.5424L14138.0711,-4304.5619L14138.0057,-4304.5962L14137.9286,-4304.6457L14137.8422,-4304.6968L14137.837,-4304.7L14137.8363,-4304.7004L14137.8357,-4304.7008L14137.7062,-4304.7881L14137.6033,-4304.8408L14137.5334,-4304.8837L14137.4321,-4304.9459L14137.4148,-4304.9561L14137.3067,-4305.0229L14137.207,-4305.0852"/>
<path content="1,北海道中央バス（株）,83　西岡美園線,26.0,18.0,18.0," xlink:title="1" d="M14138.257,-4304.4434L14138.2377,-4304.4554L14138.2147,-4304.4697L14138.208,-4304.4737L14138.0962,-4304.5424L14138.0711,-4304.5619L14138.0057,-4304.5962L14137.9286,-4304.6457L14137.8422,-4304.6968L14137.837,-4304.7L14137.8363,-4304.7004L14137.8357,-4304.7008L14137.7062,-4304.7881L14137.6033,-4304.8408L14137.5334,-4304.8837L14137.4321,-4304.9459L14137.4148,-4304.9561L14137.3067,-4305.0229L14137.207,-4305.0852"/>
<path content="1,北海道中央バス（株）,85　清田団地線,17.0,16.0,16.0," xlink:title="1" d="M14138.257,-4304.4434L14138.2377,-4304.4554L14138.2147,-4304.4697L14138.208,-4304.4737L14138.0962,-4304.5424L14138.0711,-4304.5619L14138.0057,-4304.5962L14137.9286,-4304.6457L14137.8422,-4304.6968L14137.837,-4304.7L14137.8363,-4304.7004L14137.8357,-4304.7008L14137.7062,-4304.7881L14137.6033,-4304.8408L14137.5334,-4304.8837L14137.4321,-4304.9459L14137.4148,-4304.9561L14137.3067,-4305.0229L14137.207,-4305.0852"/>
<path content="1,北海道中央バス（株）,86　清田団地線,13.0,12.0,12.0," xlink:title="1" d="M14137.207,-4305.0852L14137.3067,-4305.0229L14137.4148,-4304.9561L14137.4321,-4304.9459L14137.5334,-4304.8837L14137.6033,-4304.8408L14137.7062,-4304.7881L14137.8357,-4304.7008L14137.8363,-4304.7004L14137.837,-4304.7L14137.8422,-4304.6968L14137.9286,-4304.6457L14138.0057,-4304.5962L14138.0711,-4304.5619L14138.0962,-4304.5424L14138.208,-4304.4737L14138.2147,-4304.4697L14138.2377,-4304.4554L14138.257,-4304.4434"/>
<path content="1,北海道中央バス（株）,88　真栄団地線,6.5,6.5,6.5," xlink:title="1" d="M14138.257,-4304.4434L14138.2377,-4304.4554L14138.2147,-4304.4697L14138.208,-4304.4737L14138.0962,-4304.5424L14138.0711,-4304.5619L14138.0057,-4304.5962L14137.9286,-4304.6457L14137.8422,-4304.6968L14137.837,-4304.7L14137.8363,-4304.7004L14137.8357,-4304.7008L14137.7062,-4304.7881L14137.6033,-4304.8408L14137.5334,-4304.8837L14137.4321,-4304.9459L14137.4148,-4304.9561L14137.3067,-4305.0229L14137.207,-4305.0852"/>
<path content="1,北海道中央バス（株）,90　札江線,11.0,9.5,9.5," xlink:title="1" d="M14137.207,-4306.4805L14137.2083,-4306.4805L14137.2407,-4306.4885L14137.2796,-4306.495L14137.3151,-4306.4998L14137.4025,-4306.5116L14137.4155,-4306.5133L14137.4914,-4306.524L14137.6096,-4306.5403L14137.6978,-4306.5516L14137.8534,-4306.5724L14137.9223,-4306.5821L14137.9316,-4306.5813L14137.9587,-4306.5809L14137.9587,-4306.5809L14137.9587,-4306.5809L14137.9587,-4306.5809L14137.9587,-4306.5809L14137.9587,-4306.5809L14137.9587,-4306.5809L14137.9587,-4306.5809L14137.9587,-4306.5809L14137.9588,-4306.5809L14137.9792,-4306.5821L14138.0535,-4306.6106L14138.1463,-4306.6377L14138.1561,-4306.6406"/>
<path content="1,北海道中央バス（株）,96　柏葉台団地線,17.5,9.5,9.5," xlink:title="1" d="M14138.257,-4304.4434L14138.2377,-4304.4554L14138.2147,-4304.4697L14138.208,-4304.4737L14138.0962,-4304.5424L14138.0711,-4304.5619L14138.0057,-4304.5962L14137.9286,-4304.6457L14137.8422,-4304.6968L14137.837,-4304.7L14137.8363,-4304.7004L14137.8357,-4304.7008L14137.7062,-4304.7881L14137.6033,-4304.8408L14137.5334,-4304.8837L14137.4321,-4304.9459L14137.4148,-4304.9561L14137.3067,-4305.0229L14137.207,-4305.0852"/>
<path content="1,北海道中央バス（株）,イーグルライナー,2.0,2.0,2.0," xlink:title="1" d="M14137.207,-4306.4805L14137.2083,-4306.4805L14137.2407,-4306.4885L14137.2796,-4306.495L14137.3151,-4306.4998L14137.4025,-4306.5116L14137.4155,-4306.5133L14137.4914,-4306.524L14137.6096,-4306.5403L14137.6978,-4306.5516L14137.8534,-4306.5724L14137.9223,-4306.5821L14137.9316,-4306.5813L14137.9587,-4306.5809L14137.9587,-4306.5809L14137.9587,-4306.5809L14137.9587,-4306.5809L14137.9587,-4306.5809L14137.9587,-4306.5809L14137.9587,-4306.5809L14137.9587,-4306.5809L14137.9587,-4306.5809L14137.9588,-4306.5809L14137.9792,-4306.5821L14138.0535,-4306.6106L14138.1463,-4306.6377L14138.1561,-4306.6406"/>
<path content="1,北海道中央バス（株）,スターライト釧路号,2.0,2.0,2.0," xlink:title="1" d="M14137.207,-4305.7815L14137.2294,-4305.765L14137.2492,-4305.7483L14137.255,-4305.7437L14137.2862,-4305.7155L14137.3524,-4305.6593L14137.365,-4305.6461L14137.424,-4305.6651L14137.5051,-4305.694L14137.5329,-4305.7045L14137.6142,-4305.7355L14137.6962,-4305.7653L14137.7208,-4305.7738L14137.7744,-4305.794L14137.8342,-4305.8165L14137.8611,-4305.8271L14137.8749,-4305.8315L14137.9054,-4305.8426L14137.9355,-4305.8514L14138.0045,-4305.8796L14138.0307,-4305.8909L14138.0451,-4305.8964L14138.0689,-4305.9071L14138.0842,-4305.9156L14138.0885,-4305.9187L14138.0973,-4305.9251L14138.1022,-4305.9295L14138.175,-4305.9688L14138.2123,-4306L14138.2552,-4306.0282L14138.3135,-4306.0648L14138.3327,-4306.0783L14138.3357,-4306.0794L14138.3794,-4306.1092L14138.4101,-4306.1278L14138.45,-4306.1537L14138.4577,-4306.1576L14138.4906,-4306.1801L14138.5259,-4306.1959L14138.5556,-4306.2049L14138.6562,-4306.2426L14138.7114,-4306.2637L14138.7291,-4306.2679L14138.782,-4306.2871L14138.8676,-4306.3182L14138.8824,-4306.3236L14138.9263,-4306.34L14138.9338,-4306.3428L14138.9722,-4306.3574L14138.9835,-4306.3617L14139.0373,-4306.3822L14139.1278,-4306.4126L14139.2128,-4306.447L14139.2311,-4306.4494L14139.2387,-4306.4527L14139.3315,-4306.4887L14139.4043,-4306.5165"/>
<path content="1,北海道中央バス（株）,ドリーミントオホーツク号,10.0,10.0,10.0," xlink:title="1" d="M14137.207,-4305.7815L14137.2294,-4305.765L14137.2492,-4305.7483L14137.255,-4305.7437L14137.2862,-4305.7155L14137.3524,-4305.6593L14137.365,-4305.6461L14137.424,-4305.6651L14137.5051,-4305.694L14137.5329,-4305.7045L14137.6142,-4305.7355L14137.6962,-4305.7653L14137.7208,-4305.7738L14137.7744,-4305.794L14137.8342,-4305.8165L14137.8611,-4305.8271L14137.8749,-4305.8315L14137.9054,-4305.8426L14137.9355,-4305.8514L14138.0045,-4305.8796L14138.0307,-4305.8909L14138.0451,-4305.8964L14138.0689,-4305.9071L14138.0842,-4305.9156L14138.0885,-4305.9187L14138.0973,-4305.9251L14138.1022,-4305.9295L14138.175,-4305.9688L14138.2123,-4306L14138.2552,-4306.0282L14138.3135,-4306.0648L14138.3327,-4306.0783L14138.3357,-4306.0794L14138.3794,-4306.1092L14138.4101,-4306.1278L14138.45,-4306.1537L14138.4577,-4306.1576L14138.4906,-4306.1801L14138.5259,-4306.1959L14138.5556,-4306.2049L14138.6562,-4306.2426L14138.7114,-4306.2637L14138.7291,-4306.2679L14138.782,-4306.2871L14138.8676,-4306.3182L14138.8824,-4306.3236L14138.9263,-4306.34L14138.9338,-4306.3428L14138.9722,-4306.3574L14138.9835,-4306.3617L14139.0373,-4306.3822L14139.1278,-4306.4126L14139.2128,-4306.447L14139.2311,-4306.4494L14139.2387,-4306.4527L14139.3315,-4306.4887L14139.4043,-4306.5165"/>
<path content="1,北海道中央バス（株）,ポテトライナー,7.0,7.0,7.0," xlink:title="1" d="M14139.4043,-4305.7381L14139.3222,-4305.7831L14139.3099,-4305.7894L14139.2258,-4305.8326L14139.1981,-4305.848L14139.1878,-4305.8529L14139.175,-4305.8615L14139.0306,-4305.9333L14138.9952,-4305.9518L14138.9208,-4305.9905L14138.848,-4306.0276L14138.8334,-4306.036L14138.8226,-4306.0433L14138.7805,-4306.0636L14138.769,-4306.0693L14138.7475,-4306.0811L14138.7398,-4306.0844L14138.7138,-4306.0991L14138.6447,-4306.1357L14138.6171,-4306.1492L14138.5573,-4306.1813L14138.5259,-4306.1959L14138.5044,-4306.2066L14138.4597,-4306.2331L14138.3925,-4306.2651L14138.3687,-4306.2769L14138.3572,-4306.2831L14138.3058,-4306.3096L14138.2667,-4306.3298L14138.2192,-4306.3546L14138.1968,-4306.3695L14138.1586,-4306.3866L14138.131,-4306.4007L14138.1164,-4306.4111L14138.1026,-4306.4165L14138.0827,-4306.4317L14138.0666,-4306.4474L14138.0597,-4306.4559L14138.0509,-4306.4679L14138.0436,-4306.4762L14138.0313,-4306.4922L14138.0052,-4306.5262L14137.9808,-4306.558L14137.9707,-4306.5699L14137.9587,-4306.5809L14137.942,-4306.6025L14137.9125,-4306.6406"/>
<path content="1,北海道中央バス（株）,千歳線　急行,16.5,16.0,16.0," xlink:title="1" d="M14138.257,-4304.4434L14138.2377,-4304.4554L14138.2147,-4304.4697L14138.208,-4304.4737L14138.0962,-4304.5424L14138.0711,-4304.5619L14138.0057,-4304.5962L14137.9286,-4304.6457L14137.8422,-4304.6968L14137.837,-4304.7L14137.8363,-4304.7004L14137.8357,-4304.7008L14137.7062,-4304.7881L14137.6033,-4304.8408L14137.5334,-4304.8837L14137.4321,-4304.9459L14137.4148,-4304.9561L14137.3067,-4305.0229L14137.207,-4305.0852"/>
<path content="1,北海道中央バス（株）,広島線,28.5,21.5,21.5," xlink:title="1" d="M14137.207,-4305.0852L14137.3067,-4305.0229L14137.4148,-4304.9561L14137.4321,-4304.9459L14137.5334,-4304.8837L14137.6033,-4304.8408L14137.7062,-4304.7881L14137.8357,-4304.7008L14137.8363,-4304.7004L14137.837,-4304.7L14137.8422,-4304.6968L14137.9286,-4304.6457L14138.0057,-4304.5962L14138.0711,-4304.5619L14138.0962,-4304.5424L14138.208,-4304.4737L14138.2147,-4304.4697L14138.2377,-4304.4554L14138.257,-4304.4434"/>
<path content="1,北海道中央バス（株）,新千歳空港連絡バス（札幌市中心部）,25.0,25.0,25.0," xlink:title="1" d="M14138.257,-4304.4434L14138.2377,-4304.4554L14138.2147,-4304.4697L14138.208,-4304.4737L14138.0962,-4304.5424L14138.0711,-4304.5619L14138.0057,-4304.5962L14137.9286,-4304.6457L14137.8422,-4304.6968L14137.837,-4304.7L14137.8363,-4304.7004L14137.8357,-4304.7008L14137.7062,-4304.7881L14137.6033,-4304.8408L14137.5334,-4304.8837L14137.4321,-4304.9459L14137.4148,-4304.9561L14137.3067,-4305.0229L14137.207,-4305.0852"/>
<path content="1,北海道中央バス（株）,新千歳空港連絡バス（麻生）,20.5,20.5,20.5," xlink:title="1" d="M14138.257,-4304.4434L14138.2377,-4304.4554L14138.2147,-4304.4697L14138.208,-4304.4737L14138.0962,-4304.5424L14138.0711,-4304.5619L14138.0057,-4304.5962L14137.9286,-4304.6457L14137.8422,-4304.6968L14137.8363,-4304.7004L14137.7062,-4304.7881L14137.6033,-4304.8408L14137.5334,-4304.8837L14137.4321,-4304.9459L14137.4148,-4304.9561L14137.3067,-4305.0229L14137.207,-4305.0852"/>
<path content="1,北海道中央バス（株）,東6　札苗線,36.5,29.0,29.0," xlink:title="1" d="M14137.9125,-4306.6406L14137.942,-4306.6025L14137.9587,-4306.5809L14137.9587,-4306.5809L14137.9587,-4306.5809L14137.9587,-4306.5809L14137.9587,-4306.5809L14137.9587,-4306.5809L14137.9588,-4306.5809L14137.9792,-4306.5821L14138.0535,-4306.6106L14138.1463,-4306.6377L14138.1561,-4306.6406"/>
<path content="1,北海道中央バス（株）,流氷もんべつ号,7.0,7.0,7.0," xlink:title="1" d="M14137.207,-4306.4805L14137.2083,-4306.4805L14137.2407,-4306.4885L14137.2796,-4306.495L14137.3151,-4306.4998L14137.4025,-4306.5116L14137.4155,-4306.5133L14137.4914,-4306.524L14137.6096,-4306.5403L14137.6978,-4306.5516L14137.8534,-4306.5724L14137.9223,-4306.5821L14137.9316,-4306.5813L14137.9587,-4306.5809L14137.9587,-4306.5809L14137.9587,-4306.5809L14137.9587,-4306.5809L14137.9587,-4306.5809L14137.9587,-4306.5809L14137.9587,-4306.5809L14137.9587,-4306.5809L14137.9587,-4306.5809L14137.9588,-4306.5809L14137.9792,-4306.5821L14138.0535,-4306.6106L14138.1463,-4306.6377L14138.1561,-4306.6406"/>
<path content="1,北海道中央バス（株）,白22　川下線,14.5,10.0,10.0," xlink:title="1" d="M14139.4043,-4305.3494L14139.3686,-4305.3759L14139.3725,-4305.3804L14139.4043,-4305.4047"/>
<path content="1,北海道中央バス（株）,高速あさひかわ号,37.0,37.0,37.0," xlink:title="1" d="M14137.207,-4305.7815L14137.2294,-4305.765L14137.2492,-4305.7483L14137.255,-4305.7437L14137.2862,-4305.7155L14137.3524,-4305.6593L14137.365,-4305.6461L14137.424,-4305.6651L14137.5051,-4305.694L14137.5329,-4305.7045L14137.6142,-4305.7355L14137.6962,-4305.7653L14137.7208,-4305.7738L14137.7744,-4305.794L14137.8342,-4305.8165L14137.8611,-4305.8271L14137.8749,-4305.8315L14137.9054,-4305.8426L14137.9355,-4305.8514L14138.0045,-4305.8796L14138.0307,-4305.8909L14138.0451,-4305.8964L14138.0689,-4305.9071L14138.0842,-4305.9156L14138.0885,-4305.9187L14138.0973,-4305.9251L14138.1022,-4305.9295L14138.175,-4305.9688L14138.2123,-4306L14138.2552,-4306.0282L14138.3135,-4306.0648L14138.3327,-4306.0783L14138.3357,-4306.0794L14138.3794,-4306.1092L14138.4101,-4306.1278L14138.45,-4306.1537L14138.4577,-4306.1576L14138.4906,-4306.1801L14138.5259,-4306.1959L14138.5556,-4306.2049L14138.6562,-4306.2426L14138.7114,-4306.2637L14138.7291,-4306.2679L14138.782,-4306.2871L14138.8676,-4306.3182L14138.8824,-4306.3236L14138.9263,-4306.34L14138.9338,-4306.3428L14138.9722,-4306.3574L14138.9835,-4306.3617L14139.0373,-4306.3822L14139.1278,-4306.4126L14139.2128,-4306.447L14139.2311,-4306.4494L14139.2387,-4306.4527L14139.3315,-4306.4887L14139.4043,-4306.5165"/>
<path content="1,北海道中央バス（株）,高速いわみざわ号,55.0,54.5,54.5," xlink:title="1" d="M14137.207,-4306.4805L14137.2083,-4306.4805L14137.2407,-4306.4885L14137.2796,-4306.495L14137.3151,-4306.4998L14137.4025,-4306.5116L14137.4155,-4306.5133L14137.4914,-4306.524L14137.6096,-4306.5403L14137.6978,-4306.5516L14137.8534,-4306.5724L14137.9223,-4306.5821L14137.9316,-4306.5813L14137.9587,-4306.5809L14137.9587,-4306.5809L14137.9587,-4306.5809L14137.9587,-4306.5809L14137.9587,-4306.5809L14137.9587,-4306.5809L14137.9587,-4306.5809L14137.9587,-4306.5809L14137.9587,-4306.5809L14137.9587,-4306.5809L14137.9588,-4306.5809L14137.9792,-4306.5821L14138.0535,-4306.6106L14138.1463,-4306.6377L14138.1561,-4306.6406"/>
<path content="1,北海道中央バス（株）,高速えんがる号,4.0,4.0,4.0," xlink:title="1" d="M14139.4043,-4306.5165L14139.3315,-4306.4887L14139.2387,-4306.4527L14139.2311,-4306.4494L14139.2128,-4306.447L14139.1278,-4306.4126L14139.0373,-4306.3822L14138.9835,-4306.3617L14138.9722,-4306.3574L14138.9338,-4306.3428L14138.9263,-4306.34L14138.8824,-4306.3236L14138.8676,-4306.3182L14138.782,-4306.2871L14138.7291,-4306.2679L14138.7114,-4306.2637L14138.6562,-4306.2426L14138.5556,-4306.2049L14138.5259,-4306.1959L14138.4906,-4306.1801L14138.4577,-4306.1576L14138.45,-4306.1537L14138.4101,-4306.1278L14138.3794,-4306.1092L14138.3357,-4306.0794L14138.3327,-4306.0783L14138.3135,-4306.0648L14138.2552,-4306.0282L14138.2123,-4306L14138.175,-4305.9688L14138.1022,-4305.9295L14138.0973,-4305.9251L14138.0885,-4305.9187L14138.0842,-4305.9156L14138.0689,-4305.9071L14138.0451,-4305.8964L14138.0307,-4305.8909L14138.0045,-4305.8796L14137.9355,-4305.8514L14137.9054,-4305.8426L14137.8749,-4305.8315L14137.8611,-4305.8271L14137.8342,-4305.8165L14137.7744,-4305.794L14137.7208,-4305.7738L14137.6962,-4305.7653L14137.6142,-4305.7355L14137.5329,-4305.7045L14137.5051,-4305.694L14137.424,-4305.6651L14137.365,-4305.6461L14137.3524,-4305.6593L14137.2862,-4305.7155L14137.255,-4305.7437L14137.2492,-4305.7483L14137.2294,-4305.765L14137.207,-4305.7815"/>
<path content="1,北海道中央バス（株）,高速くりやま号,6.0,6.0,6.0," xlink:title="1" d="M14138.1561,-4306.6406L14138.1463,-4306.6377L14138.0535,-4306.6106L14137.9792,-4306.5821L14137.9588,-4306.5809L14137.9587,-4306.5809L14137.9587,-4306.5809L14137.9587,-4306.5809L14137.9587,-4306.5809L14137.9587,-4306.5809L14137.9587,-4306.5809L14137.9587,-4306.5809L14137.9587,-4306.5809L14137.9587,-4306.5809L14137.9316,-4306.5813L14137.9223,-4306.5821L14137.8534,-4306.5724L14137.6978,-4306.5516L14137.6096,-4306.5403L14137.4914,-4306.524L14137.4155,-4306.5133L14137.4025,-4306.5116L14137.3151,-4306.4998L14137.2796,-4306.495L14137.2407,-4306.4885L14137.2083,-4306.4805L14137.207,-4306.4805"/>
<path content="1,北海道中央バス（株）,高速しんとつかわ号,1.0,1.0,1.0," xlink:title="1" d="M14137.9125,-4306.6406L14137.942,-4306.6025L14137.9587,-4306.5809L14137.9707,-4306.5699L14137.9808,-4306.558L14138.0052,-4306.5262L14138.0313,-4306.4922L14138.0436,-4306.4762L14138.0509,-4306.4679L14138.0597,-4306.4559L14138.0666,-4306.4474L14138.0827,-4306.4317L14138.1026,-4306.4165L14138.1164,-4306.4111L14138.131,-4306.4007L14138.1586,-4306.3866L14138.1968,-4306.3695L14138.2192,-4306.3546L14138.2667,-4306.3298L14138.3058,-4306.3096L14138.3572,-4306.2831L14138.3687,-4306.2769L14138.3925,-4306.2651L14138.4597,-4306.2331L14138.5044,-4306.2066L14138.5259,-4306.1959L14138.5556,-4306.2049L14138.6562,-4306.2426L14138.7114,-4306.2637L14138.7291,-4306.2679L14138.782,-4306.2871L14138.8676,-4306.3182L14138.8824,-4306.3236L14138.9263,-4306.34L14138.9338,-4306.3428L14138.9722,-4306.3574L14138.9835,-4306.3617L14139.0373,-4306.3822L14139.1278,-4306.4126L14139.2128,-4306.447L14139.2311,-4306.4494L14139.2387,-4306.4527L14139.3315,-4306.4887L14139.4043,-4306.5165"/>
<path content="1,北海道中央バス（株）,高速たきかわ号,22.0,22.0,22.0," xlink:title="1" d="M14137.9125,-4306.6406L14137.942,-4306.6025L14137.9587,-4306.5809L14137.9707,-4306.5699L14137.9808,-4306.558L14138.0052,-4306.5262L14138.0313,-4306.4922L14138.0436,-4306.4762L14138.0509,-4306.4679L14138.0597,-4306.4559L14138.0666,-4306.4474L14138.0827,-4306.4317L14138.1026,-4306.4165L14138.1164,-4306.4111L14138.131,-4306.4007L14138.1586,-4306.3866L14138.1968,-4306.3695L14138.2192,-4306.3546L14138.2667,-4306.3298L14138.3058,-4306.3096L14138.3572,-4306.2831L14138.3687,-4306.2769L14138.3925,-4306.2651L14138.4597,-4306.2331L14138.5044,-4306.2066L14138.5259,-4306.1959L14138.5556,-4306.2049L14138.6562,-4306.2426L14138.7114,-4306.2637L14138.7291,-4306.2679L14138.782,-4306.2871L14138.8676,-4306.3182L14138.8824,-4306.3236L14138.9263,-4306.34L14138.9338,-4306.3428L14138.9722,-4306.3574L14138.9835,-4306.3617L14139.0373,-4306.3822L14139.1278,-4306.4126L14139.2128,-4306.447L14139.2311,-4306.4494L14139.2387,-4306.4527L14139.3315,-4306.4887L14139.4043,-4306.5165"/>
<path content="1,北海道中央バス（株）,高速とまこまい号,14.0,14.0,14.0," xlink:title="1" d="M14139.4043,-4305.7381L14139.3222,-4305.7831L14139.3099,-4305.7894L14139.2258,-4305.8326L14139.1981,-4305.848L14139.1878,-4305.8529L14139.175,-4305.8615L14139.0306,-4305.9333L14138.9952,-4305.9518L14138.9208,-4305.9905L14138.848,-4306.0276L14138.8334,-4306.036L14138.8226,-4306.0433L14138.7805,-4306.0636L14138.769,-4306.0693L14138.7475,-4306.0811L14138.7398,-4306.0844L14138.7138,-4306.0991L14138.6447,-4306.1357L14138.6171,-4306.1492L14138.5573,-4306.1813L14138.5259,-4306.1959L14138.5044,-4306.2066L14138.4597,-4306.2331L14138.3925,-4306.2651L14138.3687,-4306.2769L14138.3572,-4306.2831L14138.3058,-4306.3096L14138.2667,-4306.3298L14138.2192,-4306.3546L14138.1968,-4306.3695L14138.1586,-4306.3866L14138.131,-4306.4007L14138.1164,-4306.4111L14138.1026,-4306.4165L14138.0827,-4306.4317L14138.0666,-4306.4474L14138.0597,-4306.4559L14138.0509,-4306.4679L14138.0436,-4306.4762L14138.0313,-4306.4922L14138.0052,-4306.5262L14137.9808,-4306.558L14137.9707,-4306.5699L14137.9587,-4306.5809L14137.942,-4306.6025L14137.9125,-4306.6406"/>
<path content="1,北海道中央バス（株）,高速なよろ号,4.0,5.0,5.0," xlink:title="1" d="M14137.207,-4305.7815L14137.2294,-4305.765L14137.2492,-4305.7483L14137.255,-4305.7437L14137.2862,-4305.7155L14137.3524,-4305.6593L14137.365,-4305.6461L14137.424,-4305.6651L14137.5051,-4305.694L14137.5329,-4305.7045L14137.6142,-4305.7355L14137.6962,-4305.7653L14137.7208,-4305.7738L14137.7744,-4305.794L14137.8342,-4305.8165L14137.8611,-4305.8271L14137.8749,-4305.8315L14137.9054,-4305.8426L14137.9355,-4305.8514L14138.0045,-4305.8796L14138.0307,-4305.8909L14138.0451,-4305.8964L14138.0689,-4305.9071L14138.0842,-4305.9156L14138.0885,-4305.9187L14138.0973,-4305.9251L14138.1022,-4305.9295L14138.175,-4305.9688L14138.2123,-4306L14138.2552,-4306.0282L14138.3135,-4306.0648L14138.3327,-4306.0783L14138.3357,-4306.0794L14138.3794,-4306.1092L14138.4101,-4306.1278L14138.45,-4306.1537L14138.4577,-4306.1576L14138.4906,-4306.1801L14138.5259,-4306.1959L14138.5556,-4306.2049L14138.6562,-4306.2426L14138.7114,-4306.2637L14138.7291,-4306.2679L14138.782,-4306.2871L14138.8676,-4306.3182L14138.8824,-4306.3236L14138.9263,-4306.34L14138.9338,-4306.3428L14138.9722,-4306.3574L14138.9835,-4306.3617L14139.0373,-4306.3822L14139.1278,-4306.4126L14139.2128,-4306.447L14139.2311,-4306.4494L14139.2387,-4306.4527L14139.3315,-4306.4887L14139.4043,-4306.5165"/>
<path content="1,北海道中央バス（株）,高速はこだて号,8.0,8.0,8.0," xlink:title="1" d="M14138.257,-4304.4434L14138.2377,-4304.4554L14138.2147,-4304.4697L14138.208,-4304.4737L14138.0962,-4304.5424L14138.0711,-4304.5619L14138.0057,-4304.5962L14137.9286,-4304.6457L14137.8422,-4304.6968L14137.8363,-4304.7004L14137.7062,-4304.7881L14137.6033,-4304.8408L14137.5334,-4304.8837L14137.4321,-4304.9459L14137.4148,-4304.9561L14137.3067,-4305.0229L14137.207,-4305.0852"/>
<path content="1,北海道中央バス（株）,高速びばい号,2.0,2.0,2.0," xlink:title="1" d="M14137.207,-4306.4805L14137.2083,-4306.4805L14137.2407,-4306.4885L14137.2796,-4306.495L14137.3151,-4306.4998L14137.4025,-4306.5116L14137.4155,-4306.5133L14137.4914,-4306.524L14137.6096,-4306.5403L14137.6978,-4306.5516L14137.8534,-4306.5724L14137.9223,-4306.5821L14137.9316,-4306.5813L14137.9587,-4306.5809L14137.9587,-4306.5809L14137.9587,-4306.5809L14137.9587,-4306.5809L14137.9587,-4306.5809L14137.9587,-4306.5809L14137.9587,-4306.5809L14137.9587,-4306.5809L14137.9587,-4306.5809L14137.9588,-4306.5809L14137.9792,-4306.5821L14138.0535,-4306.6106L14138.1463,-4306.6377L14138.1561,-4306.6406"/>
<path content="1,北海道中央バス（株）,高速ふらの号,11.0,11.0,11.0," xlink:title="1" d="M14137.207,-4306.4805L14137.2083,-4306.4805L14137.2407,-4306.4885L14137.2796,-4306.495L14137.3151,-4306.4998L14137.4025,-4306.5116L14137.4155,-4306.5133L14137.4914,-4306.524L14137.6096,-4306.5403L14137.6978,-4306.5516L14137.8534,-4306.5724L14137.9223,-4306.5821L14137.9316,-4306.5813L14137.9587,-4306.5809L14137.9587,-4306.5809L14137.9587,-4306.5809L14137.9587,-4306.5809L14137.9587,-4306.5809L14137.9587,-4306.5809L14137.9587,-4306.5809L14137.9587,-4306.5809L14137.9587,-4306.5809L14137.9588,-4306.5809L14137.9792,-4306.5821L14138.0535,-4306.6106L14138.1463,-4306.6377L14138.1561,-4306.6406"/>
<path content="1,北海道中央バス（株）,高速みかさ号,2.0,2.0,2.0," xlink:title="1" d="M14138.1561,-4306.6406L14138.1463,-4306.6377L14138.0535,-4306.6106L14137.9792,-4306.5821L14137.9588,-4306.5809L14137.9587,-4306.5809L14137.9587,-4306.5809L14137.9587,-4306.5809L14137.9587,-4306.5809L14137.9587,-4306.5809L14137.9587,-4306.5809L14137.9587,-4306.5809L14137.9587,-4306.5809L14137.9587,-4306.5809L14137.9316,-4306.5813L14137.9223,-4306.5821L14137.8534,-4306.5724L14137.6978,-4306.5516L14137.6096,-4306.5403L14137.4914,-4306.524L14137.4155,-4306.5133L14137.4025,-4306.5116L14137.3151,-4306.4998L14137.2796,-4306.495L14137.2407,-4306.4885L14137.2083,-4306.4805L14137.207,-4306.4805"/>
<path content="1,北海道中央バス（株）,高速むろらん号,8.0,8.0,8.0," xlink:title="1" d="M14139.4043,-4305.7381L14139.3222,-4305.7831L14139.3099,-4305.7894L14139.2258,-4305.8326L14139.1981,-4305.848L14139.1878,-4305.8529L14139.175,-4305.8615L14139.0306,-4305.9333L14138.9952,-4305.9518L14138.9208,-4305.9905L14138.848,-4306.0276L14138.8334,-4306.036L14138.8226,-4306.0433L14138.7805,-4306.0636L14138.769,-4306.0693L14138.7475,-4306.0811L14138.7398,-4306.0844L14138.7138,-4306.0991L14138.6447,-4306.1357L14138.6171,-4306.1492L14138.5573,-4306.1813L14138.5259,-4306.1959L14138.5044,-4306.2066L14138.4597,-4306.2331L14138.3925,-4306.2651L14138.3687,-4306.2769L14138.3572,-4306.2831L14138.3058,-4306.3096L14138.2667,-4306.3298L14138.2192,-4306.3546L14138.1968,-4306.3695L14138.1586,-4306.3866L14138.131,-4306.4007L14138.1164,-4306.4111L14138.1026,-4306.4165L14138.0827,-4306.4317L14138.0666,-4306.4474L14138.0597,-4306.4559L14138.0509,-4306.4679L14138.0436,-4306.4762L14138.0313,-4306.4922L14138.0052,-4306.5262L14137.9808,-4306.558L14137.9707,-4306.5699L14137.9587,-4306.5809L14137.942,-4306.6025L14137.9125,-4306.6406"/>
<path content="1,北海道中央バス（株）,高速ゆうばり号,3.0,3.0,3.0," xlink:title="1" d="M14138.1561,-4306.6406L14138.1463,-4306.6377L14138.0535,-4306.6106L14137.9792,-4306.5821L14137.9588,-4306.5809L14137.9587,-4306.5809L14137.9587,-4306.5809L14137.9587,-4306.5809L14137.9587,-4306.5809L14137.9587,-4306.5809L14137.9587,-4306.5809L14137.9587,-4306.5809L14137.9587,-4306.5809L14137.9587,-4306.5809L14137.9316,-4306.5813L14137.9223,-4306.5821L14137.8534,-4306.5724L14137.6978,-4306.5516L14137.6096,-4306.5403L14137.4914,-4306.524L14137.4155,-4306.5133L14137.4025,-4306.5116L14137.3151,-4306.4998L14137.2796,-4306.495L14137.2407,-4306.4885L14137.2083,-4306.4805L14137.207,-4306.4805"/>
<path content="1,北海道中央バス（株）,高速るもい号,11.0,11.0,11.0," xlink:title="1" d="M14137.9125,-4306.6406L14137.942,-4306.6025L14137.9587,-4306.5809L14137.9587,-4306.5809L14137.9587,-4306.5809L14137.9587,-4306.5809L14137.9587,-4306.5809L14137.9587,-4306.5809L14137.9588,-4306.5809L14137.9792,-4306.5821L14138.0535,-4306.6106L14138.1463,-4306.6377L14138.1561,-4306.6406"/>
<path content="1,北海道北見バス（株）,えんがる号,3.5,3.5,3.5," xlink:title="1" d="M14139.4043,-4306.5165L14139.3315,-4306.4887L14139.2387,-4306.4527L14139.2311,-4306.4494L14139.2128,-4306.447L14139.1278,-4306.4126L14139.0373,-4306.3822L14138.9835,-4306.3617L14138.9722,-4306.3574L14138.9338,-4306.3428L14138.9263,-4306.34L14138.8824,-4306.3236L14138.8676,-4306.3182L14138.782,-4306.2871L14138.7291,-4306.2679L14138.7114,-4306.2637L14138.6562,-4306.2426L14138.5556,-4306.2049L14138.5259,-4306.1959L14138.4906,-4306.1801L14138.4577,-4306.1576L14138.45,-4306.1537L14138.4101,-4306.1278L14138.3794,-4306.1092L14138.3357,-4306.0794L14138.3327,-4306.0783L14138.3135,-4306.0648L14138.2552,-4306.0282L14138.2123,-4306L14138.175,-4305.9688L14138.1022,-4305.9295L14138.0973,-4305.9251L14138.0885,-4305.9187L14138.0842,-4305.9156L14138.0689,-4305.9071L14138.0451,-4305.8964L14138.0307,-4305.8909L14138.0045,-4305.8796L14137.9355,-4305.8514L14137.9054,-4305.8426L14137.8749,-4305.8315L14137.8611,-4305.8271L14137.8342,-4305.8165L14137.7744,-4305.794L14137.7208,-4305.7738L14137.6962,-4305.7653L14137.6142,-4305.7355L14137.5329,-4305.7045L14137.5051,-4305.694L14137.424,-4305.6651L14137.365,-4305.6461L14137.3524,-4305.6593L14137.2862,-4305.7155L14137.255,-4305.7437L14137.2492,-4305.7483L14137.2294,-4305.765L14137.207,-4305.7815"/>
<path content="1,北海道北見バス（株）,ドリーミントオホーツク号,5.0,5.0,5.0," xlink:title="1" d="M14137.207,-4305.7815L14137.2294,-4305.765L14137.2492,-4305.7483L14137.255,-4305.7437L14137.2862,-4305.7155L14137.3524,-4305.6593L14137.365,-4305.6461L14137.424,-4305.6651L14137.5051,-4305.694L14137.5329,-4305.7045L14137.6142,-4305.7355L14137.6962,-4305.7653L14137.7208,-4305.7738L14137.7744,-4305.794L14137.8342,-4305.8165L14137.8611,-4305.8271L14137.8749,-4305.8315L14137.9054,-4305.8426L14137.9355,-4305.8514L14138.0045,-4305.8796L14138.0307,-4305.8909L14138.0451,-4305.8964L14138.0689,-4305.9071L14138.0842,-4305.9156L14138.0885,-4305.9187L14138.0973,-4305.9251L14138.1022,-4305.9295L14138.175,-4305.9688L14138.2123,-4306L14138.2552,-4306.0282L14138.3135,-4306.0648L14138.3327,-4306.0783L14138.3357,-4306.0794L14138.3794,-4306.1092L14138.4101,-4306.1278L14138.45,-4306.1537L14138.4577,-4306.1576L14138.4906,-4306.1801L14138.5259,-4306.1959L14138.5556,-4306.2049L14138.6562,-4306.2426L14138.7114,-4306.2637L14138.7291,-4306.2679L14138.782,-4306.2871L14138.8676,-4306.3182L14138.8824,-4306.3236L14138.9263,-4306.34L14138.9338,-4306.3428L14138.9722,-4306.3574L14138.9835,-4306.3617L14139.0373,-4306.3822L14139.1278,-4306.4126L14139.2128,-4306.447L14139.2311,-4306.4494L14139.2387,-4306.4527L14139.3315,-4306.4887L14139.4043,-4306.5165"/>
<path content="1,北海道北見バス（株）,高速えんがる号,3.0,3.0,3.0," xlink:title="1" d="M14137.207,-4305.7815L14137.2294,-4305.765L14137.2492,-4305.7483L14137.255,-4305.7437L14137.2862,-4305.7155L14137.3524,-4305.6593L14137.365,-4305.6461L14137.424,-4305.6651L14137.5051,-4305.694L14137.5329,-4305.7045L14137.6142,-4305.7355L14137.6962,-4305.7653L14137.7208,-4305.7738L14137.7744,-4305.794L14137.8342,-4305.8165L14137.8611,-4305.8271L14137.8749,-4305.8315L14137.9054,-4305.8426L14137.9355,-4305.8514L14138.0045,-4305.8796L14138.0307,-4305.8909L14138.0451,-4305.8964L14138.0689,-4305.9071L14138.0842,-4305.9156L14138.0885,-4305.9187L14138.0973,-4305.9251L14138.1022,-4305.9295L14138.175,-4305.9688L14138.2123,-4306L14138.2552,-4306.0282L14138.3135,-4306.0648L14138.3327,-4306.0783L14138.3357,-4306.0794L14138.3794,-4306.1092L14138.4101,-4306.1278L14138.45,-4306.1537L14138.4577,-4306.1576L14138.4906,-4306.1801L14138.5259,-4306.1959L14138.5556,-4306.2049L14138.6562,-4306.2426L14138.7114,-4306.2637L14138.7291,-4306.2679L14138.782,-4306.2871L14138.8676,-4306.3182L14138.8824,-4306.3236L14138.9263,-4306.34L14138.9338,-4306.3428L14138.9722,-4306.3574L14138.9835,-4306.3617L14139.0373,-4306.3822L14139.1278,-4306.4126L14139.2128,-4306.447L14139.2311,-4306.4494L14139.2387,-4306.4527L14139.3315,-4306.4887L14139.4043,-4306.5165"/>
<path content="1,北海道拓殖バス（株）,ポテトライナー,7.0,7.0,7.0," xlink:title="1" d="M14139.4043,-4305.7381L14139.3222,-4305.7831L14139.3099,-4305.7894L14139.2258,-4305.8326L14139.1981,-4305.848L14139.1878,-4305.8529L14139.175,-4305.8615L14139.0306,-4305.9333L14138.9952,-4305.9518L14138.9208,-4305.9905L14138.848,-4306.0276L14138.8334,-4306.036L14138.8226,-4306.0433L14138.7805,-4306.0636L14138.769,-4306.0693L14138.7475,-4306.0811L14138.7398,-4306.0844L14138.7138,-4306.0991L14138.6447,-4306.1357L14138.6171,-4306.1492L14138.5573,-4306.1813L14138.5259,-4306.1959L14138.5044,-4306.2066L14138.4597,-4306.2331L14138.3925,-4306.2651L14138.3687,-4306.2769L14138.3572,-4306.2831L14138.3058,-4306.3096L14138.2667,-4306.3298L14138.2192,-4306.3546L14138.1968,-4306.3695L14138.1586,-4306.3866L14138.131,-4306.4007L14138.1164,-4306.4111L14138.1026,-4306.4165L14138.0827,-4306.4317L14138.0666,-4306.4474L14138.0597,-4306.4559L14138.0509,-4306.4679L14138.0436,-4306.4762L14138.0313,-4306.4922L14138.0052,-4306.5262L14137.9808,-4306.558L14137.9707,-4306.5699L14137.9587,-4306.5809L14137.942,-4306.6025L14137.9125,-4306.6406"/>
<path content="1,北紋バス（株）,流氷もんべつ号,2.1,2.1,2.1," xlink:title="1" d="M14137.207,-4306.4805L14137.2083,-4306.4805L14137.2407,-4306.4885L14137.2796,-4306.495L14137.3151,-4306.4998L14137.4025,-4306.5116L14137.4155,-4306.5133L14137.4914,-4306.524L14137.6096,-4306.5403L14137.6978,-4306.5516L14137.8534,-4306.5724L14137.9223,-4306.5821L14137.9316,-4306.5813L14137.9587,-4306.5809L14137.9587,-4306.5809L14137.9587,-4306.5809L14137.9587,-4306.5809L14137.9587,-4306.5809L14137.9587,-4306.5809L14137.9587,-4306.5809L14137.9587,-4306.5809L14137.9587,-4306.5809L14137.9588,-4306.5809L14137.9792,-4306.5821L14138.0535,-4306.6106L14138.1463,-4306.6377L14138.1561,-4306.6406"/>
<path content="1,北都交通（株）,札幌都心～新千歳空港,24.5,24.5,24.5," xlink:title="1" d="M14138.257,-4304.4434L14138.2377,-4304.4554L14138.2147,-4304.4697L14138.208,-4304.4737L14138.0962,-4304.5424L14138.0711,-4304.5619L14138.0057,-4304.5962L14137.9286,-4304.6457L14137.8422,-4304.6968L14137.8363,-4304.7004L14137.7062,-4304.7881L14137.6033,-4304.8408L14137.5334,-4304.8837L14137.4321,-4304.9459L14137.4148,-4304.9561L14137.3067,-4305.0229L14137.207,-4305.0852"/>
<path content="1,北都交通（株）,札幌～函館　高速はこだて号,7.0,7.0,7.0," xlink:title="1" d="M14139.4043,-4305.7381L14139.3222,-4305.7831L14139.3099,-4305.7894L14139.2258,-4305.8326L14139.1981,-4305.848L14139.1878,-4305.8529L14139.175,-4305.8615L14139.0306,-4305.9333L14138.9952,-4305.9518L14138.9208,-4305.9905L14138.848,-4306.0276L14138.8334,-4306.036L14138.8226,-4306.0433L14138.7805,-4306.0636L14138.769,-4306.0693L14138.7475,-4306.0811L14138.7398,-4306.0844L14138.7138,-4306.0991L14138.6447,-4306.1357L14138.6171,-4306.1492L14138.5573,-4306.1813L14138.5259,-4306.1959L14138.5044,-4306.2066L14138.4597,-4306.2331L14138.3925,-4306.2651L14138.3687,-4306.2769L14138.3572,-4306.2831L14138.3058,-4306.3096L14138.2667,-4306.3298L14138.2192,-4306.3546L14138.1968,-4306.3695L14138.1586,-4306.3866L14138.131,-4306.4007L14138.1164,-4306.4111L14138.1026,-4306.4165L14138.0827,-4306.4317L14138.0666,-4306.4474L14138.0597,-4306.4559L14138.0509,-4306.4679L14138.0436,-4306.4762L14138.0313,-4306.4922L14138.0052,-4306.5262L14137.9808,-4306.558L14137.9707,-4306.5699L14137.9587,-4306.5809L14137.942,-4306.6025L14137.9125,-4306.6406"/>
<path content="1,北都交通（株）,札幌～帯広　ポテトライナー,7.0,7.0,7.0," xlink:title="1" d="M14139.4043,-4305.7381L14139.3222,-4305.7831L14139.3099,-4305.7894L14139.2258,-4305.8326L14139.1981,-4305.848L14139.1878,-4305.8529L14139.175,-4305.8615L14139.0306,-4305.9333L14138.9952,-4305.9518L14138.9208,-4305.9905L14138.848,-4306.0276L14138.8334,-4306.036L14138.8226,-4306.0433L14138.7805,-4306.0636L14138.769,-4306.0693L14138.7475,-4306.0811L14138.7398,-4306.0844L14138.7138,-4306.0991L14138.6447,-4306.1357L14138.6171,-4306.1492L14138.5573,-4306.1813L14138.5259,-4306.1959L14138.5044,-4306.2066L14138.4597,-4306.2331L14138.3925,-4306.2651L14138.3687,-4306.2769L14138.3572,-4306.2831L14138.3058,-4306.3096L14138.2667,-4306.3298L14138.2192,-4306.3546L14138.1968,-4306.3695L14138.1586,-4306.3866L14138.131,-4306.4007L14138.1164,-4306.4111L14138.1026,-4306.4165L14138.0827,-4306.4317L14138.0666,-4306.4474L14138.0597,-4306.4559L14138.0509,-4306.4679L14138.0436,-4306.4762L14138.0313,-4306.4922L14138.0052,-4306.5262L14137.9808,-4306.558L14137.9707,-4306.5699L14137.9587,-4306.5809L14137.9587,-4306.5809L14137.9587,-4306.5809L14137.9587,-4306.5809L14137.9316,-4306.5813L14137.9223,-4306.5821L14137.8534,-4306.5724L14137.6978,-4306.5516L14137.6096,-4306.5403L14137.4914,-4306.524L14137.4155,-4306.5133L14137.4025,-4306.5116L14137.3151,-4306.4998L14137.2796,-4306.495L14137.2407,-4306.4885L14137.2083,-4306.4805L14137.207,-4306.4805"/>
<path content="1,北都交通（株）,札幌～根室　オーロラ号,2.0,2.0,2.0," xlink:title="1" d="M14137.207,-4305.7815L14137.2294,-4305.765L14137.2492,-4305.7483L14137.255,-4305.7437L14137.2862,-4305.7155L14137.3524,-4305.6593L14137.365,-4305.6461L14137.424,-4305.6651L14137.5051,-4305.694L14137.5329,-4305.7045L14137.6142,-4305.7355L14137.6962,-4305.7653L14137.7208,-4305.7738L14137.7744,-4305.794L14137.8342,-4305.8165L14137.8611,-4305.8271L14137.8749,-4305.8315L14137.9054,-4305.8426L14137.9355,-4305.8514L14138.0045,-4305.8796L14138.0307,-4305.8909L14138.0451,-4305.8964L14138.0689,-4305.9071L14138.0842,-4305.9156L14138.0885,-4305.9187L14138.0973,-4305.9251L14138.1022,-4305.9295L14138.175,-4305.9688L14138.2123,-4306L14138.2552,-4306.0282L14138.3135,-4306.0648L14138.3327,-4306.0783L14138.3357,-4306.0794L14138.3794,-4306.1092L14138.4101,-4306.1278L14138.45,-4306.1537L14138.4577,-4306.1576L14138.4906,-4306.1801L14138.5259,-4306.1959L14138.5573,-4306.1813L14138.6171,-4306.1492L14138.6447,-4306.1357L14138.7138,-4306.0991L14138.7398,-4306.0844L14138.7475,-4306.0811L14138.769,-4306.0693L14138.7805,-4306.0636L14138.8226,-4306.0433L14138.8334,-4306.036L14138.848,-4306.0276L14138.9208,-4305.9905L14138.9952,-4305.9518L14139.0306,-4305.9333L14139.175,-4305.8615L14139.1878,-4305.8529L14139.1981,-4305.848L14139.2258,-4305.8326L14139.3099,-4305.7894L14139.3222,-4305.7831L14139.4043,-4305.7381"/>
<path content="1,十勝バス（株）,都市間バスポテトライナー号（十勝川温泉発）,1.0,1.0,1.0," xlink:title="1" d="M14138.257,-4304.4434L14138.2377,-4304.4554L14138.2147,-4304.4697L14138.208,-4304.4737L14138.0962,-4304.5424L14138.0711,-4304.5619L14138.0057,-4304.5962L14137.9286,-4304.6457L14137.8422,-4304.6968L14137.8363,-4304.7004L14137.7062,-4304.7881L14137.6033,-4304.8408L14137.5334,-4304.8837L14137.4321,-4304.9459L14137.4148,-4304.9561L14137.3067,-4305.0229L14137.207,-4305.0852"/>
<path content="1,十勝バス（株）,都市間バスポテトライナー号（帯広バスターミナル発、芽室経由,4.0,4.0,4.0," xlink:title="1" d="M14138.257,-4304.4434L14138.2377,-4304.4554L14138.2147,-4304.4697L14138.208,-4304.4737L14138.0962,-4304.5424L14138.0711,-4304.5619L14138.0057,-4304.5962L14137.9286,-4304.6457L14137.8422,-4304.6968L14137.8363,-4304.7004L14137.7062,-4304.7881L14137.6033,-4304.8408L14137.5334,-4304.8837L14137.4321,-4304.9459L14137.4148,-4304.9561L14137.3067,-4305.0229L14137.207,-4305.0852"/>
<path content="1,十勝バス（株）,都市間バスポテトライナー号（帯広バスターミナル発、音更経由,3.0,3.0,3.0," xlink:title="1" d="M14138.257,-4304.4434L14138.2377,-4304.4554L14138.2147,-4304.4697L14138.208,-4304.4737L14138.0962,-4304.5424L14138.0711,-4304.5619L14138.0057,-4304.5962L14137.9286,-4304.6457L14137.8422,-4304.6968L14137.8363,-4304.7004L14137.7062,-4304.7881L14137.6033,-4304.8408L14137.5334,-4304.8837L14137.4321,-4304.9459L14137.4148,-4304.9561L14137.3067,-4305.0229L14137.207,-4305.0852"/>
<path content="1,夕張鉄道（株）,南部～札幌大通,44.5,38.8,33.0," xlink:title="1" d="M14137.207,-4306.4805L14137.2083,-4306.4805L14137.2407,-4306.4885L14137.2796,-4306.495L14137.3151,-4306.4998L14137.4025,-4306.5116L14137.4155,-4306.5133L14137.4914,-4306.524L14137.6096,-4306.5403L14137.6978,-4306.5516L14137.8534,-4306.5724L14137.9223,-4306.5821L14137.9316,-4306.5813L14137.9587,-4306.5809L14137.9587,-4306.5809"/>
<path content="1,夕張鉄道（株）,南部～札幌大通,44.5,38.8,33.0," xlink:title="1" d="M14137.9587,-4306.5809L14137.9587,-4306.5809"/>
<path content="1,夕張鉄道（株）,南部～札幌大通,44.5,38.8,33.0," xlink:title="1" d="M14137.9587,-4306.5809L14137.9587,-4306.5809L14137.9587,-4306.5809"/>
<path content="1,夕張鉄道（株）,南部～札幌大通,44.5,38.8,33.0," xlink:title="1" d="M14137.9587,-4306.5809L14137.9707,-4306.5699L14137.9808,-4306.558L14138.0052,-4306.5262L14138.0313,-4306.4922L14138.0436,-4306.4762L14138.0509,-4306.4679L14138.0597,-4306.4559L14138.0666,-4306.4474L14138.0827,-4306.4317L14138.1026,-4306.4165L14138.1164,-4306.4111L14138.131,-4306.4007L14138.1586,-4306.3866L14138.1968,-4306.3695L14138.2192,-4306.3546L14138.2667,-4306.3298L14138.3058,-4306.3096L14138.3572,-4306.2831L14138.3687,-4306.2769L14138.3925,-4306.2651L14138.4597,-4306.2331L14138.5044,-4306.2066L14138.5259,-4306.1959L14138.5573,-4306.1813L14138.6171,-4306.1492L14138.6447,-4306.1357L14138.7138,-4306.0991L14138.7398,-4306.0844L14138.7475,-4306.0811L14138.769,-4306.0693L14138.7805,-4306.0636L14138.8226,-4306.0433L14138.8334,-4306.036L14138.848,-4306.0276L14138.9208,-4305.9905L14138.9952,-4305.9518L14139.0306,-4305.9333L14139.175,-4305.8615L14139.1878,-4305.8529L14139.1981,-4305.848L14139.2258,-4305.8326L14139.3099,-4305.7894L14139.3222,-4305.7831L14139.4043,-4305.7381"/>
<path content="1,夕張鉄道（株）,南部～札幌大通,44.5,38.8,33.0," xlink:title="1" d="M14137.9587,-4306.5809L14137.9587,-4306.5809L14137.9587,-4306.5809L14137.9587,-4306.5809L14137.9587,-4306.5809L14137.9587,-4306.5809L14137.9588,-4306.5809L14137.9792,-4306.5821"/>
<path content="1,宗谷バス（株）,特急えさし号,2.0,2.0,2.0," xlink:title="1" d="M14139.4043,-4306.5165L14139.3315,-4306.4887L14139.2387,-4306.4527L14139.2311,-4306.4494L14139.2128,-4306.447L14139.1278,-4306.4126L14139.0373,-4306.3822L14138.9835,-4306.3617L14138.9722,-4306.3574L14138.9338,-4306.3428L14138.9263,-4306.34L14138.8824,-4306.3236L14138.8676,-4306.3182L14138.782,-4306.2871L14138.7291,-4306.2679L14138.7114,-4306.2637L14138.6562,-4306.2426L14138.5556,-4306.2049L14138.5259,-4306.1959L14138.5044,-4306.2066L14138.4597,-4306.2331L14138.3925,-4306.2651L14138.3687,-4306.2769L14138.3572,-4306.2831L14138.3058,-4306.3096L14138.2667,-4306.3298L14138.2192,-4306.3546L14138.1968,-4306.3695L14138.1586,-4306.3866L14138.131,-4306.4007L14138.1164,-4306.4111L14138.1026,-4306.4165L14138.0827,-4306.4317L14138.0666,-4306.4474L14138.0597,-4306.4559L14138.0509,-4306.4679L14138.0436,-4306.4762L14138.0313,-4306.4922L14138.0052,-4306.5262L14137.9808,-4306.558L14137.9707,-4306.5699L14137.9587,-4306.5809L14137.9587,-4306.5809L14137.9587,-4306.5809L14137.9587,-4306.5809L14137.9587,-4306.5809L14137.9587,-4306.5809L14137.9316,-4306.5813L14137.9223,-4306.5821L14137.8534,-4306.5724L14137.6978,-4306.5516L14137.6096,-4306.5403L14137.4914,-4306.524L14137.4155,-4306.5133L14137.4025,-4306.5116L14137.3151,-4306.4998L14137.2796,-4306.495L14137.2407,-4306.4885L14137.2083,-4306.4805L14137.207,-4306.4805"/>
<path content="1,宗谷バス（株）,特急はまなす号,2.3,2.3,2.3," xlink:title="1" d="M14139.4043,-4306.5165L14139.3315,-4306.4887L14139.2387,-4306.4527L14139.2311,-4306.4494L14139.2128,-4306.447L14139.1278,-4306.4126L14139.0373,-4306.3822L14138.9835,-4306.3617L14138.9722,-4306.3574L14138.9338,-4306.3428L14138.9263,-4306.34L14138.8824,-4306.3236L14138.8676,-4306.3182L14138.782,-4306.2871L14138.7291,-4306.2679L14138.7114,-4306.2637L14138.6562,-4306.2426L14138.5556,-4306.2049L14138.5259,-4306.1959L14138.4906,-4306.1801L14138.4577,-4306.1576L14138.45,-4306.1537L14138.4101,-4306.1278L14138.3794,-4306.1092L14138.3357,-4306.0794L14138.3327,-4306.0783L14138.3135,-4306.0648L14138.2552,-4306.0282L14138.2123,-4306L14138.175,-4305.9688L14138.1022,-4305.9295L14138.0973,-4305.9251L14138.0885,-4305.9187L14138.0842,-4305.9156L14138.0689,-4305.9071L14138.0451,-4305.8964L14138.0307,-4305.8909L14138.0045,-4305.8796L14137.9355,-4305.8514L14137.9054,-4305.8426L14137.8749,-4305.8315L14137.8611,-4305.8271L14137.8342,-4305.8165L14137.7744,-4305.794L14137.7208,-4305.7738L14137.6962,-4305.7653L14137.6142,-4305.7355L14137.5329,-4305.7045L14137.5051,-4305.694L14137.424,-4305.6651L14137.365,-4305.6461L14137.3524,-4305.6593L14137.2862,-4305.7155L14137.255,-4305.7437L14137.2492,-4305.7483L14137.2294,-4305.765L14137.207,-4305.7815"/>
<path content="1,宗谷バス（株）,都市間バス,3.0,3.0,3.0," xlink:title="1" d="M14137.207,-4305.7815L14137.2294,-4305.765L14137.2492,-4305.7483L14137.255,-4305.7437L14137.2862,-4305.7155L14137.3524,-4305.6593L14137.365,-4305.6461L14137.424,-4305.6651L14137.5051,-4305.694L14137.5329,-4305.7045L14137.6142,-4305.7355L14137.6962,-4305.7653L14137.7208,-4305.7738L14137.7744,-4305.794L14137.8342,-4305.8165L14137.8611,-4305.8271L14137.8749,-4305.8315L14137.9054,-4305.8426L14137.9355,-4305.8514L14138.0045,-4305.8796L14138.0307,-4305.8909L14138.0451,-4305.8964L14138.0689,-4305.9071L14138.0842,-4305.9156L14138.0885,-4305.9187L14138.0973,-4305.9251L14138.1022,-4305.9295L14138.175,-4305.9688L14138.2123,-4306L14138.2552,-4306.0282L14138.3135,-4306.0648L14138.3327,-4306.0783L14138.3357,-4306.0794L14138.3794,-4306.1092L14138.4101,-4306.1278L14138.45,-4306.1537L14138.4577,-4306.1576L14138.4906,-4306.1801L14138.5259,-4306.1959L14138.5556,-4306.2049L14138.6562,-4306.2426L14138.7114,-4306.2637L14138.7291,-4306.2679L14138.782,-4306.2871L14138.8676,-4306.3182L14138.8824,-4306.3236L14138.9263,-4306.34L14138.9338,-4306.3428L14138.9722,-4306.3574L14138.9835,-4306.3617L14139.0373,-4306.3822L14139.1278,-4306.4126L14139.2128,-4306.447L14139.2311,-4306.4494L14139.2387,-4306.4527L14139.3315,-4306.4887L14139.4043,-4306.5165"/>
<path content="1,宗谷バス（株）,鬼志別～音威子府～旭川・札幌,1.0,1.0,1.0," xlink:title="1" d="M14137.207,-4305.7815L14137.2294,-4305.765L14137.2492,-4305.7483L14137.255,-4305.7437L14137.2862,-4305.7155L14137.3524,-4305.6593L14137.365,-4305.6461L14137.424,-4305.6651L14137.5051,-4305.694L14137.5329,-4305.7045L14137.6142,-4305.7355L14137.6962,-4305.7653L14137.7208,-4305.7738L14137.7744,-4305.794L14137.8342,-4305.8165L14137.8611,-4305.8271L14137.8749,-4305.8315L14137.9054,-4305.8426L14137.9355,-4305.8514L14138.0045,-4305.8796L14138.0307,-4305.8909L14138.0451,-4305.8964L14138.0689,-4305.9071L14138.0842,-4305.9156L14138.0885,-4305.9187L14138.0973,-4305.9251L14138.1022,-4305.9295L14138.175,-4305.9688L14138.2123,-4306L14138.2552,-4306.0282L14138.3135,-4306.0648L14138.3327,-4306.0783L14138.3357,-4306.0794L14138.3794,-4306.1092L14138.4101,-4306.1278L14138.45,-4306.1537L14138.4577,-4306.1576L14138.4906,-4306.1801L14138.5259,-4306.1959L14138.5556,-4306.2049L14138.6562,-4306.2426L14138.7114,-4306.2637L14138.7291,-4306.2679L14138.782,-4306.2871L14138.8676,-4306.3182L14138.8824,-4306.3236L14138.9263,-4306.34L14138.9338,-4306.3428L14138.9722,-4306.3574L14138.9835,-4306.3617L14139.0373,-4306.3822L14139.1278,-4306.4126L14139.2128,-4306.447L14139.2311,-4306.4494L14139.2387,-4306.4527L14139.3315,-4306.4887L14139.4043,-4306.5165"/>
<path content="1,斜里バス（株）,高速バス　イーグルライナー,2.0,2.0,2.0," xlink:title="1" d="M14139.4043,-4306.5165L14139.3315,-4306.4887L14139.2387,-4306.4527L14139.2311,-4306.4494L14139.2128,-4306.447L14139.1278,-4306.4126L14139.0373,-4306.3822L14138.9835,-4306.3617L14138.9722,-4306.3574L14138.9338,-4306.3428L14138.9263,-4306.34L14138.8824,-4306.3236L14138.8676,-4306.3182L14138.782,-4306.2871L14138.7291,-4306.2679L14138.7114,-4306.2637L14138.6562,-4306.2426L14138.5556,-4306.2049L14138.5259,-4306.1959L14138.4906,-4306.1801L14138.4577,-4306.1576L14138.45,-4306.1537L14138.4101,-4306.1278L14138.3794,-4306.1092L14138.3357,-4306.0794L14138.3327,-4306.0783L14138.3135,-4306.0648L14138.2552,-4306.0282L14138.2123,-4306L14138.175,-4305.9688L14138.1022,-4305.9295L14138.0973,-4305.9251L14138.0885,-4305.9187L14138.0842,-4305.9156L14138.0689,-4305.9071L14138.0451,-4305.8964L14138.0307,-4305.8909L14138.0045,-4305.8796L14137.9355,-4305.8514L14137.9054,-4305.8426L14137.8749,-4305.8315L14137.8611,-4305.8271L14137.8342,-4305.8165L14137.7744,-4305.794L14137.7208,-4305.7738L14137.6962,-4305.7653L14137.6142,-4305.7355L14137.5329,-4305.7045L14137.5051,-4305.694L14137.424,-4305.6651L14137.365,-4305.6461L14137.3524,-4305.6593L14137.2862,-4305.7155L14137.255,-4305.7437L14137.2492,-4305.7483L14137.2294,-4305.765L14137.207,-4305.7815"/>
<path content="1,根室交通（株）,オーロラ号,2.0,2.0,2.0," xlink:title="1" d="M14137.207,-4305.7815L14137.2294,-4305.765L14137.2492,-4305.7483L14137.255,-4305.7437L14137.2862,-4305.7155L14137.3524,-4305.6593L14137.365,-4305.6461L14137.424,-4305.6651L14137.5051,-4305.694L14137.5329,-4305.7045L14137.6142,-4305.7355L14137.6962,-4305.7653L14137.7208,-4305.7738L14137.7744,-4305.794L14137.8342,-4305.8165L14137.8611,-4305.8271L14137.8749,-4305.8315L14137.9054,-4305.8426L14137.9355,-4305.8514L14138.0045,-4305.8796L14138.0307,-4305.8909L14138.0451,-4305.8964L14138.0689,-4305.9071L14138.0842,-4305.9156L14138.0885,-4305.9187L14138.0973,-4305.9251L14138.1022,-4305.9295L14138.175,-4305.9688L14138.2123,-4306L14138.2552,-4306.0282L14138.3135,-4306.0648L14138.3327,-4306.0783L14138.3357,-4306.0794L14138.3794,-4306.1092L14138.4101,-4306.1278L14138.45,-4306.1537L14138.4577,-4306.1576L14138.4906,-4306.1801L14138.5259,-4306.1959L14138.5573,-4306.1813L14138.6171,-4306.1492L14138.6447,-4306.1357L14138.7138,-4306.0991L14138.7398,-4306.0844L14138.7475,-4306.0811L14138.769,-4306.0693L14138.7805,-4306.0636L14138.8226,-4306.0433L14138.8334,-4306.036L14138.848,-4306.0276L14138.9208,-4305.9905L14138.9952,-4305.9518L14139.0306,-4305.9333L14139.175,-4305.8615L14139.1878,-4305.8529L14139.1981,-4305.848L14139.2258,-4305.8326L14139.3099,-4305.7894L14139.3222,-4305.7831L14139.4043,-4305.7381"/>
<path content="1,沿岸バス（株）,札幌線・特急はぼろ号,6.0,6.0,6.0," xlink:title="1" d="M14137.9125,-4306.6406L14137.942,-4306.6025L14137.9587,-4306.5809L14137.9707,-4306.5699L14137.9808,-4306.558L14138.0052,-4306.5262L14138.0313,-4306.4922L14138.0436,-4306.4762L14138.0509,-4306.4679L14138.0597,-4306.4559L14138.0666,-4306.4474L14138.0827,-4306.4317L14138.1026,-4306.4165L14138.1164,-4306.4111L14138.131,-4306.4007L14138.1586,-4306.3866L14138.1968,-4306.3695L14138.2192,-4306.3546L14138.2667,-4306.3298L14138.3058,-4306.3096L14138.3572,-4306.2831L14138.3687,-4306.2769L14138.3925,-4306.2651L14138.4597,-4306.2331L14138.5044,-4306.2066L14138.5259,-4306.1959L14138.5556,-4306.2049L14138.6562,-4306.2426L14138.7114,-4306.2637L14138.7291,-4306.2679L14138.782,-4306.2871L14138.8676,-4306.3182L14138.8824,-4306.3236L14138.9263,-4306.34L14138.9338,-4306.3428L14138.9722,-4306.3574L14138.9835,-4306.3617L14139.0373,-4306.3822L14139.1278,-4306.4126L14139.2128,-4306.447L14139.2311,-4306.4494L14139.2387,-4306.4527L14139.3315,-4306.4887L14139.4043,-4306.5165"/>
<path content="1,網走バス（株）,ドリーミントオホーツク号,10.0,10.0,10.0," xlink:title="1" d="M14137.207,-4305.7815L14137.2294,-4305.765L14137.2492,-4305.7483L14137.255,-4305.7437L14137.2862,-4305.7155L14137.3524,-4305.6593L14137.365,-4305.6461L14137.424,-4305.6651L14137.5051,-4305.694L14137.5329,-4305.7045L14137.6142,-4305.7355L14137.6962,-4305.7653L14137.7208,-4305.7738L14137.7744,-4305.794L14137.8342,-4305.8165L14137.8611,-4305.8271L14137.8749,-4305.8315L14137.9054,-4305.8426L14137.9355,-4305.8514L14138.0045,-4305.8796L14138.0307,-4305.8909L14138.0451,-4305.8964L14138.0689,-4305.9071L14138.0842,-4305.9156L14138.0885,-4305.9187L14138.0973,-4305.9251L14138.1022,-4305.9295L14138.175,-4305.9688L14138.2123,-4306L14138.2552,-4306.0282L14138.3135,-4306.0648L14138.3327,-4306.0783L14138.3357,-4306.0794L14138.3794,-4306.1092L14138.4101,-4306.1278L14138.45,-4306.1537L14138.4577,-4306.1576L14138.4906,-4306.1801L14138.5259,-4306.1959L14138.5556,-4306.2049L14138.6562,-4306.2426L14138.7114,-4306.2637L14138.7291,-4306.2679L14138.782,-4306.2871L14138.8676,-4306.3182L14138.8824,-4306.3236L14138.9263,-4306.34L14138.9338,-4306.3428L14138.9722,-4306.3574L14138.9835,-4306.3617L14139.0373,-4306.3822L14139.1278,-4306.4126L14139.2128,-4306.447L14139.2311,-4306.4494L14139.2387,-4306.4527L14139.3315,-4306.4887L14139.4043,-4306.5165"/>
<path content="1,道北バス（株）,旭川・枝幸線,1.0,1.0,1.0," xlink:title="1" d="M14137.207,-4306.4805L14137.2083,-4306.4805L14137.2407,-4306.4885L14137.2796,-4306.495L14137.3151,-4306.4998L14137.4025,-4306.5116L14137.4155,-4306.5133L14137.4914,-4306.524L14137.6096,-4306.5403L14137.6978,-4306.5516L14137.8534,-4306.5724L14137.9223,-4306.5821L14137.9316,-4306.5813L14137.9587,-4306.5809L14137.9587,-4306.5809L14137.9587,-4306.5809L14137.9587,-4306.5809L14137.9587,-4306.5809L14137.9587,-4306.5809L14137.9587,-4306.5809L14137.9587,-4306.5809L14137.9587,-4306.5809L14137.9588,-4306.5809L14137.9792,-4306.5821L14138.0535,-4306.6106L14138.1463,-4306.6377L14138.1561,-4306.6406"/>
<path content="1,道北バス（株）,流氷もんべつ号,4.0,4.0,4.0," xlink:title="1" d="M14137.207,-4305.7815L14137.2294,-4305.765L14137.2492,-4305.7483L14137.255,-4305.7437L14137.2862,-4305.7155L14137.3524,-4305.6593L14137.365,-4305.6461L14137.424,-4305.6651L14137.5051,-4305.694L14137.5329,-4305.7045L14137.6142,-4305.7355L14137.6962,-4305.7653L14137.7208,-4305.7738L14137.7744,-4305.794L14137.8342,-4305.8165L14137.8611,-4305.8271L14137.8749,-4305.8315L14137.9054,-4305.8426L14137.9355,-4305.8514L14138.0045,-4305.8796L14138.0307,-4305.8909L14138.0451,-4305.8964L14138.0689,-4305.9071L14138.0842,-4305.9156L14138.0885,-4305.9187L14138.0973,-4305.9251L14138.1022,-4305.9295L14138.175,-4305.9688L14138.2123,-4306L14138.2552,-4306.0282L14138.3135,-4306.0648L14138.3327,-4306.0783L14138.3357,-4306.0794L14138.3794,-4306.1092L14138.4101,-4306.1278L14138.45,-4306.1537L14138.4577,-4306.1576L14138.4906,-4306.1801L14138.5259,-4306.1959L14138.5556,-4306.2049L14138.6562,-4306.2426L14138.7114,-4306.2637L14138.7291,-4306.2679L14138.782,-4306.2871L14138.8676,-4306.3182L14138.8824,-4306.3236L14138.9263,-4306.34L14138.9338,-4306.3428L14138.9722,-4306.3574L14138.9835,-4306.3617L14139.0373,-4306.3822L14139.1278,-4306.4126L14139.2128,-4306.447L14139.2311,-4306.4494L14139.2387,-4306.4527L14139.3315,-4306.4887L14139.4043,-4306.5165"/>
<path content="1,道北バス（株）,高速あさひかわ号,3.0,3.0,3.0," xlink:title="1" d="M14137.207,-4305.7815L14137.2294,-4305.765L14137.2492,-4305.7483L14137.255,-4305.7437L14137.2862,-4305.7155L14137.3524,-4305.6593L14137.365,-4305.6461L14137.424,-4305.6651L14137.5051,-4305.694L14137.5329,-4305.7045L14137.6142,-4305.7355L14137.6962,-4305.7653L14137.7208,-4305.7738L14137.7744,-4305.794L14137.8342,-4305.8165L14137.8611,-4305.8271L14137.8749,-4305.8315L14137.9054,-4305.8426L14137.9355,-4305.8514L14138.0045,-4305.8796L14138.0307,-4305.8909L14138.0451,-4305.8964L14138.0689,-4305.9071L14138.0842,-4305.9156L14138.0885,-4305.9187L14138.0973,-4305.9251L14138.1022,-4305.9295L14138.175,-4305.9688L14138.2123,-4306L14138.2552,-4306.0282L14138.3135,-4306.0648L14138.3327,-4306.0783L14138.3357,-4306.0794L14138.3794,-4306.1092L14138.4101,-4306.1278L14138.45,-4306.1537L14138.4577,-4306.1576L14138.4906,-4306.1801L14138.5259,-4306.1959L14138.5556,-4306.2049L14138.6562,-4306.2426L14138.7114,-4306.2637L14138.7291,-4306.2679L14138.782,-4306.2871L14138.8676,-4306.3182L14138.8824,-4306.3236L14138.9263,-4306.34L14138.9338,-4306.3428L14138.9722,-4306.3574L14138.9835,-4306.3617L14139.0373,-4306.3822L14139.1278,-4306.4126L14139.2128,-4306.447L14139.2311,-4306.4494L14139.2387,-4306.4527L14139.3315,-4306.4887L14139.4043,-4306.5165"/>
<path content="1,道北バス（株）,高速えんがる号,3.5,3.5,3.5," xlink:title="1" d="M14137.207,-4305.7815L14137.2294,-4305.765L14137.2492,-4305.7483L14137.255,-4305.7437L14137.2862,-4305.7155L14137.3524,-4305.6593L14137.365,-4305.6461L14137.424,-4305.6651L14137.5051,-4305.694L14137.5329,-4305.7045L14137.6142,-4305.7355L14137.6962,-4305.7653L14137.7208,-4305.7738L14137.7744,-4305.794L14137.8342,-4305.8165L14137.8611,-4305.8271L14137.8749,-4305.8315L14137.9054,-4305.8426L14137.9355,-4305.8514L14138.0045,-4305.8796L14138.0307,-4305.8909L14138.0451,-4305.8964L14138.0689,-4305.9071L14138.0842,-4305.9156L14138.0885,-4305.9187L14138.0973,-4305.9251L14138.1022,-4305.9295L14138.175,-4305.9688L14138.2123,-4306L14138.2552,-4306.0282L14138.3135,-4306.0648L14138.3327,-4306.0783L14138.3357,-4306.0794L14138.3794,-4306.1092L14138.4101,-4306.1278L14138.45,-4306.1537L14138.4577,-4306.1576L14138.4906,-4306.1801L14138.5259,-4306.1959L14138.5556,-4306.2049L14138.6562,-4306.2426L14138.7114,-4306.2637L14138.7291,-4306.2679L14138.782,-4306.2871L14138.8676,-4306.3182L14138.8824,-4306.3236L14138.9263,-4306.34L14138.9338,-4306.3428L14138.9722,-4306.3574L14138.9835,-4306.3617L14139.0373,-4306.3822L14139.1278,-4306.4126L14139.2128,-4306.447L14139.2311,-4306.4494L14139.2387,-4306.4527L14139.3315,-4306.4887L14139.4043,-4306.5165"/>
<path content="1,道北バス（株）,高速なよろ号,4.0,5.0,5.0," xlink:title="1" d="M14138.1561,-4306.6406L14138.1463,-4306.6377L14138.0535,-4306.6106L14137.9792,-4306.5821L14137.9588,-4306.5809L14137.9587,-4306.5809L14137.9587,-4306.5809L14137.9587,-4306.5809L14137.9587,-4306.5809L14137.9587,-4306.5809L14137.9587,-4306.5809L14137.9587,-4306.5809L14137.9587,-4306.5809L14137.9587,-4306.5809L14137.9316,-4306.5813L14137.9223,-4306.5821L14137.8534,-4306.5724L14137.6978,-4306.5516L14137.6096,-4306.5403L14137.4914,-4306.524L14137.4155,-4306.5133L14137.4025,-4306.5116L14137.3151,-4306.4998L14137.2796,-4306.495L14137.2407,-4306.4885L14137.2083,-4306.4805L14137.207,-4306.4805"/>
<path content="1,道南バス（株）,高速おんせん号,1.0,1.0,1.0," xlink:title="1" d="M14138.1561,-4306.6406L14138.1463,-4306.6377L14138.0535,-4306.6106L14137.9792,-4306.5821L14137.9588,-4306.5809L14137.9587,-4306.5809L14137.9587,-4306.5809L14137.9587,-4306.5809L14137.9587,-4306.5809L14137.9587,-4306.5809L14137.9587,-4306.5809L14137.9587,-4306.5809L14137.9587,-4306.5809L14137.9307,-4306.5728L14137.6203,-4306.485L14137.6111,-4306.4823L14137.6034,-4306.4812L14137.5858,-4306.4761L14137.5597,-4306.4682L14137.4999,-4306.4514L14137.4395,-4306.4335L14137.3089,-4306.3982L14137.2599,-4306.3861L14137.207,-4306.3704"/>
<path content="1,道南バス（株）,高速はこだて号,8.0,8.0,8.0," xlink:title="1" d="M14139.4043,-4305.7381L14139.3222,-4305.7831L14139.3099,-4305.7894L14139.2258,-4305.8326L14139.1981,-4305.848L14139.1878,-4305.8529L14139.175,-4305.8615L14139.0306,-4305.9333L14138.9952,-4305.9518L14138.9208,-4305.9905L14138.848,-4306.0276L14138.8334,-4306.036L14138.8226,-4306.0433L14138.7805,-4306.0636L14138.769,-4306.0693L14138.7475,-4306.0811L14138.7398,-4306.0844L14138.7138,-4306.0991L14138.6447,-4306.1357L14138.6171,-4306.1492L14138.5573,-4306.1813L14138.5259,-4306.1959L14138.5044,-4306.2066L14138.4597,-4306.2331L14138.3925,-4306.2651L14138.3687,-4306.2769L14138.3572,-4306.2831L14138.3058,-4306.3096L14138.2667,-4306.3298L14138.2192,-4306.3546L14138.1968,-4306.3695L14138.1586,-4306.3866L14138.131,-4306.4007L14138.1164,-4306.4111L14138.1026,-4306.4165L14138.0827,-4306.4317L14138.0666,-4306.4474L14138.0597,-4306.4559L14138.0509,-4306.4679L14138.0436,-4306.4762L14138.0313,-4306.4922L14138.0052,-4306.5262L14137.9808,-4306.558L14137.9707,-4306.5699L14137.9587,-4306.5809L14137.9587,-4306.5809L14137.9587,-4306.5809L14137.9587,-4306.5809L14137.9316,-4306.5813L14137.9223,-4306.5821L14137.8534,-4306.5724L14137.6978,-4306.5516L14137.6096,-4306.5403L14137.4914,-4306.524L14137.4155,-4306.5133L14137.4025,-4306.5116L14137.3151,-4306.4998L14137.2796,-4306.495L14137.2407,-4306.4885L14137.2083,-4306.4805L14137.207,-4306.4805"/>
<path content="1,道南バス（株）,高速ひだか号,1.0,1.0,1.0," xlink:title="1" d="M14139.4043,-4304.6912L14139.4031,-4304.6917L14139.2975,-4304.7431L14139.2878,-4304.7478L14139.2848,-4304.7493L14139.1955,-4304.7869L14139.1687,-4304.806L14139.0904,-4304.7383L14139.0212,-4304.6674L14138.9575,-4304.5996L14138.8732,-4304.5145L14138.8007,-4304.4434M14138.257,-4304.4434L14138.2377,-4304.4554L14138.2147,-4304.4697L14138.208,-4304.4737L14138.0962,-4304.5424L14138.0711,-4304.5619L14138.0057,-4304.5962L14137.9286,-4304.6457L14137.8422,-4304.6968L14137.8363,-4304.7004L14137.7062,-4304.7881L14137.6033,-4304.8408L14137.5334,-4304.8837L14137.4321,-4304.9459L14137.4148,-4304.9561L14137.3067,-4305.0229L14137.207,-4305.0852"/>
<path content="1,道南バス（株）,高速ハスカップ号,14.0,14.0,14.0," xlink:title="1" d="M14137.207,-4305.0852L14137.3067,-4305.0229L14137.4148,-4304.9561L14137.4321,-4304.9459L14137.5334,-4304.8837L14137.6033,-4304.8408L14137.7062,-4304.7881L14137.8363,-4304.7004L14137.8422,-4304.6968L14137.9286,-4304.6457L14138.0057,-4304.5962L14138.0711,-4304.5619L14138.0962,-4304.5424L14138.208,-4304.4737L14138.2147,-4304.4697L14138.2377,-4304.4554L14138.257,-4304.4434"/>
<path content="1,道南バス（株）,高速ペガサス号,7.0,7.0,7.0," xlink:title="1" d="M14138.257,-4304.4434L14138.2377,-4304.4554L14138.2147,-4304.4697L14138.208,-4304.4737L14138.0962,-4304.5424L14138.0711,-4304.5619L14138.0057,-4304.5962L14137.9286,-4304.6457L14137.8422,-4304.6968L14137.8363,-4304.7004L14137.7062,-4304.7881L14137.6033,-4304.8408L14137.5334,-4304.8837L14137.4321,-4304.9459L14137.4148,-4304.9561L14137.3067,-4305.0229L14137.207,-4305.0852"/>
<path content="1,道南バス（株）,高速伊達ライナー号,1.0,1.0,1.0," xlink:title="1" d="M14137.207,-4306.4805L14137.2083,-4306.4805L14137.2407,-4306.4885L14137.2796,-4306.495L14137.3151,-4306.4998L14137.4025,-4306.5116L14137.4155,-4306.5133L14137.4914,-4306.524L14137.6096,-4306.5403L14137.6978,-4306.5516L14137.8534,-4306.5724L14137.9223,-4306.5821L14137.9316,-4306.5813L14137.9587,-4306.5809L14137.9587,-4306.5809L14137.9587,-4306.5809L14137.9587,-4306.5809L14137.9707,-4306.5699L14137.9808,-4306.558L14138.0052,-4306.5262L14138.0313,-4306.4922L14138.0436,-4306.4762L14138.0509,-4306.4679L14138.0597,-4306.4559L14138.0666,-4306.4474L14138.0827,-4306.4317L14138.1026,-4306.4165L14138.1164,-4306.4111L14138.131,-4306.4007L14138.1586,-4306.3866L14138.1968,-4306.3695L14138.2192,-4306.3546L14138.2667,-4306.3298L14138.3058,-4306.3096L14138.3572,-4306.2831L14138.3687,-4306.2769L14138.3925,-4306.2651L14138.4597,-4306.2331L14138.5044,-4306.2066L14138.5259,-4306.1959L14138.5573,-4306.1813L14138.6171,-4306.1492L14138.6447,-4306.1357L14138.7138,-4306.0991L14138.7398,-4306.0844L14138.7475,-4306.0811L14138.769,-4306.0693L14138.7805,-4306.0636L14138.8226,-4306.0433L14138.8334,-4306.036L14138.848,-4306.0276L14138.9208,-4305.9905L14138.9952,-4305.9518L14139.0306,-4305.9333L14139.175,-4305.8615L14139.1878,-4305.8529L14139.1981,-4305.848L14139.2258,-4305.8326L14139.3099,-4305.7894L14139.3222,-4305.7831L14139.4043,-4305.7381"/>
<path content="1,道南バス（株）,高速室蘭サッカー号,1.0,1.0,1.0," xlink:title="1" d="M14139.4043,-4305.7381L14139.3222,-4305.7831L14139.3099,-4305.7894L14139.2258,-4305.8326L14139.1981,-4305.848L14139.1878,-4305.8529L14139.175,-4305.8615L14139.0306,-4305.9333L14138.9952,-4305.9518L14138.9208,-4305.9905L14138.848,-4306.0276L14138.8334,-4306.036L14138.8226,-4306.0433L14138.7805,-4306.0636L14138.769,-4306.0693L14138.7475,-4306.0811L14138.7398,-4306.0844L14138.7138,-4306.0991L14138.6447,-4306.1357L14138.6171,-4306.1492L14138.5573,-4306.1813L14138.5259,-4306.1959L14138.5044,-4306.2066L14138.4597,-4306.2331L14138.3925,-4306.2651L14138.3687,-4306.2769L14138.3572,-4306.2831L14138.3058,-4306.3096L14138.2667,-4306.3298L14138.2192,-4306.3546L14138.1968,-4306.3695L14138.1586,-4306.3866L14138.131,-4306.4007L14138.1164,-4306.4111L14138.1026,-4306.4165L14138.0827,-4306.4317L14138.0666,-4306.4474L14138.0597,-4306.4559L14138.0509,-4306.4679L14138.0436,-4306.4762L14138.0313,-4306.4922L14138.0052,-4306.5262L14137.9808,-4306.558L14137.9707,-4306.5699L14137.9587,-4306.5809L14137.942,-4306.6025L14137.9125,-4306.6406"/>
<path content="1,道南バス（株）,高速白鳥号,7.0,7.0,7.0," xlink:title="1" d="M14139.4043,-4305.7381L14139.3222,-4305.7831L14139.3099,-4305.7894L14139.2258,-4305.8326L14139.1981,-4305.848L14139.1878,-4305.8529L14139.175,-4305.8615L14139.0306,-4305.9333L14138.9952,-4305.9518L14138.9208,-4305.9905L14138.848,-4306.0276L14138.8334,-4306.036L14138.8226,-4306.0433L14138.7805,-4306.0636L14138.769,-4306.0693L14138.7475,-4306.0811L14138.7398,-4306.0844L14138.7138,-4306.0991L14138.6447,-4306.1357L14138.6171,-4306.1492L14138.5573,-4306.1813L14138.5259,-4306.1959L14138.5044,-4306.2066L14138.4597,-4306.2331L14138.3925,-4306.2651L14138.3687,-4306.2769L14138.3572,-4306.2831L14138.3058,-4306.3096L14138.2667,-4306.3298L14138.2192,-4306.3546L14138.1968,-4306.3695L14138.1586,-4306.3866L14138.131,-4306.4007L14138.1164,-4306.4111L14138.1026,-4306.4165L14138.0827,-4306.4317L14138.0666,-4306.4474L14138.0597,-4306.4559L14138.0509,-4306.4679L14138.0436,-4306.4762L14138.0313,-4306.4922L14138.0052,-4306.5262L14137.9808,-4306.558L14137.9707,-4306.5699L14137.9587,-4306.5809L14137.942,-4306.6025L14137.9125,-4306.6406"/>
<path content="1,銀嶺バス（株）,特急はまなす号,3.7,3.7,3.7," xlink:title="1" d="M14139.4043,-4306.5165L14139.3315,-4306.4887L14139.2387,-4306.4527L14139.2311,-4306.4494L14139.2128,-4306.447L14139.1278,-4306.4126L14139.0373,-4306.3822L14138.9835,-4306.3617L14138.9722,-4306.3574L14138.9338,-4306.3428L14138.9263,-4306.34L14138.8824,-4306.3236L14138.8676,-4306.3182L14138.782,-4306.2871L14138.7291,-4306.2679L14138.7114,-4306.2637L14138.6562,-4306.2426L14138.5556,-4306.2049L14138.5259,-4306.1959L14138.4906,-4306.1801L14138.4577,-4306.1576L14138.45,-4306.1537L14138.4101,-4306.1278L14138.3794,-4306.1092L14138.3357,-4306.0794L14138.3327,-4306.0783L14138.3135,-4306.0648L14138.2552,-4306.0282L14138.2123,-4306L14138.175,-4305.9688L14138.1022,-4305.9295L14138.0973,-4305.9251L14138.0885,-4305.9187L14138.0842,-4305.9156L14138.0689,-4305.9071L14138.0451,-4305.8964L14138.0307,-4305.8909L14138.0045,-4305.8796L14137.9355,-4305.8514L14137.9054,-4305.8426L14137.8749,-4305.8315L14137.8611,-4305.8271L14137.8342,-4305.8165L14137.7744,-4305.794L14137.7208,-4305.7738L14137.6962,-4305.7653L14137.6142,-4305.7355L14137.5329,-4305.7045L14137.5051,-4305.694L14137.424,-4305.6651L14137.365,-4305.6461L14137.3524,-4305.6593L14137.2862,-4305.7155L14137.255,-4305.7437L14137.2492,-4305.7483L14137.2294,-4305.765L14137.207,-4305.7815"/>
<path content="1,阿寒バス（株）,スターライト釧路号,2.0,2.0,2.0," xlink:title="1" d="M14138.257,-4304.4434L14138.2377,-4304.4554L14138.2147,-4304.4697L14138.208,-4304.4737L14138.0962,-4304.5424L14138.0711,-4304.5619L14138.0057,-4304.5962L14137.9286,-4304.6457L14137.8422,-4304.6968L14137.8363,-4304.7004L14137.7062,-4304.7881L14137.6033,-4304.8408L14137.5334,-4304.8837L14137.4321,-4304.9459L14137.4148,-4304.9561L14137.3067,-4305.0229L14137.207,-4305.0852"/>
</g>
</svg>
