<?xml version="1.0" encoding="UTF-8"?>
<svg  xmlns="http://www.w3.org/2000/svg" xmlns:xlink="http://www.w3.org/1999/xlink" xmlns:go="http://purl.org/svgmap/profile" property="N07_001,N07_002,N07_003,N07_004,N07_005,N07_006,N07_007" viewBox="14137.20703125 -3889.16015625 4.39453125 4.39453125" go:dataArea="14137.20703125 -3889.16015625 4.39453125 4.39453125" >
<metadata>
 <rdf:RDF xmlns:rdf="http://www.w3.org/1999/02/22-rdf-syntax-ns#" xmlns:crs="http://opengis.org/xmldtds/transformations.dtd" xmlns:svg="http://www.w3.org/svg" >
  <rdf:Description>
   <crs:CoordinateReferenceSystem rdf:resource="http://purl.org/crs/84" svg:transform="matrix(100.0,0.0,0.0,-100.0,0.0,0.0)" />
  </rdf:Description>
 </rdf:RDF>
</metadata>
<globalCoordinateSystem srsName="http://purl.org/crs/84" transform="matrix(100.0,0.0,0.0,-100.0,0.0,0.0)" />
<defs>
 <g id="p0" >
  <circle cx="0.0" cy="0.0" r="3" stroke="green" stroke-width="0.75" vector-effect="non-scaling-stroke" />
 </g>
</defs>
<g fill="none" fill-rule="evenodd" stroke="#FF00FF" stroke-width="0.75" opacity="0.5" vector-effect="non-scaling-stroke" stroke-linejoin="bevel" >
<path content="2,一関市,一関市営バス（千厩）　南小梨線,5.0,3.8,3.0," xlink:title="2" d="M14137.207,-3889.0537L14137.2874,-3889.0292L14137.3241,-3889.0202L14137.3803,-3889.0089L14137.4429,-3889.0022L14137.5156,-3889.0022L14137.5718,-3889.0101L14137.5819,-3889.0117L14137.6143,-3889.0219L14137.6524,-3889.0337L14137.682,-3889.0307L14137.6913,-3889.0303L14137.7151,-3889.0196L14137.7252,-3889.0134L14137.7374,-3889.0067L14137.7634,-3888.9869L14137.7809,-3888.9744L14137.8087,-3888.9543L14137.8368,-3888.9334L14137.8596,-3888.9183L14137.8721,-3888.9092L14137.8959,-3888.8906L14137.8964,-3888.89L14137.9016,-3888.8839L14137.9052,-3888.8754L14137.9052,-3888.8597L14137.898,-3888.8343L14137.8937,-3888.8118L14137.8894,-3888.7943L14137.8894,-3888.7589L14137.893,-3888.738L14137.8973,-3888.7267L14137.9016,-3888.7189L14137.9153,-3888.7025L14137.9304,-3888.6901L14137.9614,-3888.6721L14137.9697,-3888.667L14138.0089,-3888.6456L14138.0399,-3888.6265L14138.2077,-3888.4891L14138.2149,-3888.4851L14138.2775,-3888.4654L14138.3013,-3888.457L14138.3251,-3888.4485L14138.371,-3888.4248L14138.4091,-3888.4048L14138.4581,-3888.3748L14138.4813,-3888.3612L14138.4958,-3888.3506L14138.5267,-3888.3275L14138.5505,-3888.3044L14138.5627,-3888.292L14138.5728,-3888.2728L14138.5822,-3888.2368L14138.5944,-3888.2177L14138.6434,-3888.1647L14138.6599,-3888.1478L14138.7174,-3888.0899L14138.827,-3887.9794L14138.8393,-3887.9603L14138.8796,-3887.8781L14138.9041,-3887.8307L14138.9178,-3887.8166L14138.9369,-3887.8026L14138.9667,-3887.7806L14139.0042,-3887.7547L14139.0088,-3887.7802L14139.0136,-3887.7891L14139.0179,-3887.8076L14139.0179,-3887.8437L14139.0106,-3887.9028L14139.0106,-3887.9738L14139.0135,-3887.9828L14139.0214,-3887.9952L14139.0431,-3888.0127L14139.0574,-3888.0211L14139.1309,-3888.0572L14139.1893,-3888.0904L14139.2418,-3888.1247L14139.2684,-3888.145L14139.29,-3888.1647L14139.3066,-3888.1844L14139.3149,-3888.1983L14139.3246,-3888.2261L14139.3304,-3888.2559L14139.3354,-3888.3038L14139.3355,-3888.3214L14139.3376,-3888.354L14139.3318,-3888.3804L14139.3195,-3888.421L14139.3167,-3888.4373L14139.3174,-3888.4553L14139.3217,-3888.4671L14139.3361,-3888.488L14139.4002,-3888.5708L14139.4312,-3888.6063L14139.4571,-3888.6327L14139.5226,-3888.6919L14139.5629,-3888.7341L14139.5831,-3888.7561L14139.6169,-3888.7932L14139.6414,-3888.8225L14139.6594,-3888.8406L14139.6826,-3888.8587L14139.6983,-3888.8699L14139.7789,-3888.9194L14139.8077,-3888.9385L14139.8301,-3888.9571L14139.8603,-3888.9887L14139.8963,-3889.0281L14139.9064,-3889.0439L14139.9136,-3889.0647L14139.9146,-3889.0752"/>
</g>
</svg>
