<?xml version="1.0" encoding="UTF-8"?>
<svg  xmlns="http://www.w3.org/2000/svg" xmlns:xlink="http://www.w3.org/1999/xlink" xmlns:go="http://purl.org/svgmap/profile" property="N07_001,N07_002,N07_003,N07_004,N07_005,N07_006,N07_007" viewBox="13816.40625 -3726.5625 8.7890625 8.7890625" go:dataArea="13816.40625 -3726.5625 8.7890625 8.7890625" >
<metadata>
 <rdf:RDF xmlns:rdf="http://www.w3.org/1999/02/22-rdf-syntax-ns#" xmlns:crs="http://opengis.org/xmldtds/transformations.dtd" xmlns:svg="http://www.w3.org/svg" >
  <rdf:Description>
   <crs:CoordinateReferenceSystem rdf:resource="http://purl.org/crs/84" svg:transform="matrix(100.0,0.0,0.0,-100.0,0.0,0.0)" />
  </rdf:Description>
 </rdf:RDF>
</metadata>
<globalCoordinateSystem srsName="http://purl.org/crs/84" transform="matrix(100.0,0.0,0.0,-100.0,0.0,0.0)" />
<defs>
 <g id="p0" >
  <circle cx="0.0" cy="0.0" r="3" stroke="green" stroke-width="0.75" vector-effect="non-scaling-stroke" />
 </g>
</defs>
<g fill="none" fill-rule="evenodd" stroke="#FF00FF" stroke-width="0.75" opacity="0.5" vector-effect="non-scaling-stroke" stroke-linejoin="bevel" >
<path content="1,頸北観光バス（株）,南川線,10.5,5.0,5.0," xlink:title="1" d="M13825.0884,-3717.7734L13825.0834,-3717.8266L13825.0784,-3717.9033L13825.0771,-3717.9276L13825.1531,-3717.9311L13825.1669,-3717.9323L13825.1953,-3717.9341"/>
<path content="1,頸城自動車（株）,上越大通り線（直江津港～本町五丁目～南本町一丁目）,13.0,12.5,12.5," xlink:title="1" d="M13825.1398,-3718.1877L13825.1149,-3718.1663L13825.1034,-3718.1606L13825.0905,-3718.1553L13825.0714,-3718.1492L13825.0614,-3718.1469L13825.0644,-3718.1117L13825.0703,-3718.0259L13825.0707,-3718.0082L13825.0735,-3717.9766L13825.0771,-3717.9276L13825.1531,-3717.9311L13825.1669,-3717.9323L13825.1953,-3717.9341"/>
<path content="1,頸城自動車（株）,上越大通り線（直江津港～西城町十字路～中央病院）,5.0,3.5,3.5," xlink:title="1" d="M13825.1398,-3718.1877L13825.1347,-3718.1793L13825.1149,-3718.1663L13825.1034,-3718.1606L13825.0905,-3718.1553L13825.0714,-3718.1492L13825.0614,-3718.1469L13825.0644,-3718.1117L13825.0703,-3718.0259L13825.0707,-3718.0082L13825.0735,-3717.9766L13825.0771,-3717.9276L13825.1531,-3717.9311L13825.1669,-3717.9323L13825.1953,-3717.9341"/>
<path content="1,頸城自動車（株）,上越大通り線（直江津港～西城町十字路～南本町一丁目（今泉老人ホーム前））,3.5,4.5,4.5," xlink:title="1" d="M13825.1398,-3718.1877L13825.1347,-3718.1793L13825.1149,-3718.1663L13825.1034,-3718.1606L13825.0905,-3718.1553L13825.0714,-3718.1492L13825.0614,-3718.1469L13825.0644,-3718.1117L13825.0703,-3718.0259L13825.0707,-3718.0082L13825.0735,-3717.9766L13825.0771,-3717.9276L13825.1531,-3717.9311L13825.1669,-3717.9323L13825.1953,-3717.9341"/>
<path content="1,頸城自動車（株）,上越大通り線（鵜の浜～直江津駅前～南本町一丁目（今泉老人ホーム前））,8.0,6.0,6.0," xlink:title="1" d="M13825.1953,-3718.2276L13825.185,-3718.2185L13825.1762,-3718.2097L13825.1398,-3718.1877L13825.1149,-3718.1663L13825.1034,-3718.1606L13825.0905,-3718.1553L13825.0714,-3718.1492L13825.0614,-3718.1469L13825.0644,-3718.1117L13825.0703,-3718.0259L13825.0707,-3718.0082L13825.0735,-3717.9766L13825.0771,-3717.9276L13825.1531,-3717.9311L13825.1669,-3717.9323L13825.1953,-3717.9341"/>
<path content="1,頸城自動車（株）,佐渡汽船連絡バス,1.2,1.2,1.2," xlink:title="1" d="M13825.0884,-3717.7734L13825.0834,-3717.8266L13825.0784,-3717.9033L13825.0771,-3717.9276L13825.0735,-3717.9766L13825.0707,-3718.0082L13825.0703,-3718.0259L13825.0644,-3718.1117L13825.0614,-3718.1469L13825.0714,-3718.1492L13825.0905,-3718.1553L13825.1034,-3718.1606L13825.1149,-3718.1663L13825.1347,-3718.1793L13825.1398,-3718.1877"/>
<path content="1,頸城自動車（株）,浜線（大潟区・柿崎区方面）,16.0,12.0,12.0," xlink:title="1" d="M13825.0884,-3717.7734L13825.0834,-3717.8266L13825.0784,-3717.9033L13825.0771,-3717.9276L13825.0735,-3717.9766L13825.0707,-3718.0082L13825.0703,-3718.0259L13825.0644,-3718.1117L13825.0614,-3718.1469L13825.0714,-3718.1492L13825.0905,-3718.1553L13825.1034,-3718.1606L13825.1149,-3718.1663L13825.1398,-3718.1877L13825.1762,-3718.2097L13825.185,-3718.2185L13825.1953,-3718.2276"/>
<path content="1,頸城自動車（株）,直江津・百間町線（島田経由）,5.5,3.0,3.0," xlink:title="1" d="M13825.0884,-3717.7734L13825.0834,-3717.8266L13825.0784,-3717.9033L13825.0771,-3717.9276L13825.1531,-3717.9311L13825.1669,-3717.9323L13825.1953,-3717.9341"/>
<path content="1,頸城自動車（株）,直江津・百間町線（市村経由）,5.0,2.0,2.0," xlink:title="1" d="M13825.0884,-3717.7734L13825.0834,-3717.8266L13825.0784,-3717.9033L13825.0771,-3717.9276L13825.1531,-3717.9311L13825.1669,-3717.9323L13825.1953,-3717.9341"/>
</g>
</svg>
