<?xml version="1.0" encoding="UTF-8"?>
<svg  xmlns="http://www.w3.org/2000/svg" xmlns:xlink="http://www.w3.org/1999/xlink" xmlns:go="http://purl.org/svgmap/profile" property="N07_001,N07_002,N07_003,N07_004,N07_005,N07_006,N07_007" viewBox="14092.71240234375 -3852.35595703125 0.274658203125 0.274658203125" go:dataArea="14092.71240234375 -3852.35595703125 0.274658203125 0.274658203125" >
<metadata>
 <rdf:RDF xmlns:rdf="http://www.w3.org/1999/02/22-rdf-syntax-ns#" xmlns:crs="http://opengis.org/xmldtds/transformations.dtd" xmlns:svg="http://www.w3.org/svg" >
  <rdf:Description>
   <crs:CoordinateReferenceSystem rdf:resource="http://purl.org/crs/84" svg:transform="matrix(100.0,0.0,0.0,-100.0,0.0,0.0)" />
  </rdf:Description>
 </rdf:RDF>
</metadata>
<globalCoordinateSystem srsName="http://purl.org/crs/84" transform="matrix(100.0,0.0,0.0,-100.0,0.0,0.0)" />
<defs>
 <g id="p0" >
  <circle cx="0.0" cy="0.0" r="3" stroke="green" stroke-width="0.75" vector-effect="non-scaling-stroke" />
 </g>
</defs>
<g fill="none" fill-rule="evenodd" stroke="#FF00FF" stroke-width="0.75" opacity="0.5" vector-effect="non-scaling-stroke" stroke-linejoin="bevel" >
<path content="1,JRバス東北（株）,うみねこ号,1.0,1.0,1.0," xlink:title="1" d="M14092.8798,-3852.0813L14092.8772,-3852.093L14092.8727,-3852.1154L14092.8727,-3852.1154L14092.8727,-3852.1154L14092.8647,-3852.1552L14092.8497,-3852.2538L14092.8495,-3852.2549L14092.8495,-3852.255L14092.8495,-3852.2551L14092.8495,-3852.2551L14092.8495,-3852.2551L14092.8495,-3852.2551L14092.8495,-3852.2553L14092.8493,-3852.2562L14092.8439,-3852.2919L14092.8419,-3852.3081L14092.8418,-3852.3088L14092.8418,-3852.3089L14092.8418,-3852.3091L14092.8418,-3852.3091L14092.8418,-3852.3091L14092.8418,-3852.3091L14092.8418,-3852.3091L14092.8418,-3852.3092L14092.8418,-3852.3092L14092.8417,-3852.3092L14092.8417,-3852.3093L14092.8372,-3852.3458L14092.8362,-3852.3544L14092.8362,-3852.3544L14092.836,-3852.356"/>
<path content="1,JRバス東北（株）,けんじライナー号,1.0,1.0,1.0," xlink:title="1" d="M14092.8798,-3852.0813L14092.8772,-3852.093L14092.8727,-3852.1154L14092.8727,-3852.1154L14092.8727,-3852.1154L14092.8647,-3852.1552L14092.8497,-3852.2538L14092.8495,-3852.2549L14092.8495,-3852.255L14092.8495,-3852.2551L14092.8495,-3852.2551L14092.8495,-3852.2551L14092.8495,-3852.2551L14092.8495,-3852.2553L14092.8493,-3852.2562L14092.8439,-3852.2919L14092.8419,-3852.3081L14092.8418,-3852.3088L14092.8418,-3852.3089L14092.8418,-3852.3091L14092.8418,-3852.3091L14092.8418,-3852.3091L14092.8418,-3852.3091L14092.8418,-3852.3091L14092.8418,-3852.3092L14092.8418,-3852.3092L14092.8417,-3852.3092L14092.8417,-3852.3093L14092.8372,-3852.3458L14092.8362,-3852.3544L14092.8362,-3852.3544L14092.836,-3852.356"/>
<path content="1,JRバス東北（株）,アーバン号,3.2,4.0,4.0," xlink:title="1" d="M14092.8798,-3852.0813L14092.8772,-3852.093L14092.8727,-3852.1154L14092.8727,-3852.1154L14092.8727,-3852.1154L14092.8647,-3852.1552L14092.8497,-3852.2538L14092.8495,-3852.2549L14092.8495,-3852.255L14092.8495,-3852.2551L14092.8495,-3852.2551L14092.8495,-3852.2551L14092.8495,-3852.2551L14092.8495,-3852.2553L14092.8493,-3852.2562L14092.8439,-3852.2919L14092.8419,-3852.3081L14092.8418,-3852.3088L14092.8418,-3852.3089L14092.8418,-3852.3091L14092.8418,-3852.3091L14092.8418,-3852.3091L14092.8418,-3852.3091L14092.8418,-3852.3091L14092.8418,-3852.3092L14092.8418,-3852.3092L14092.8417,-3852.3092L14092.8417,-3852.3093L14092.8372,-3852.3458L14092.8362,-3852.3544L14092.8362,-3852.3544L14092.836,-3852.356"/>
<path content="1,JRバス東北（株）,キャッスル号,3.0,3.0,3.0," xlink:title="1" d="M14092.8798,-3852.0813L14092.8772,-3852.093L14092.8727,-3852.1154L14092.8727,-3852.1154L14092.8727,-3852.1154L14092.8647,-3852.1552L14092.8497,-3852.2538L14092.8495,-3852.2549L14092.8495,-3852.255L14092.8495,-3852.2551L14092.8495,-3852.2551L14092.8495,-3852.2551L14092.8495,-3852.2551L14092.8495,-3852.2553L14092.8493,-3852.2562L14092.8439,-3852.2919L14092.8419,-3852.3081L14092.8418,-3852.3088L14092.8418,-3852.3089L14092.8418,-3852.3091L14092.8418,-3852.3091L14092.8418,-3852.3091L14092.8418,-3852.3091L14092.8418,-3852.3091L14092.8418,-3852.3092L14092.8418,-3852.3092L14092.8417,-3852.3092L14092.8417,-3852.3093L14092.8372,-3852.3458L14092.8362,-3852.3544L14092.8362,-3852.3544L14092.836,-3852.356"/>
<path content="1,JRバス東北（株）,グリーンライナー号,2.0,2.0,2.0," xlink:title="1" d="M14092.8798,-3852.0813L14092.8772,-3852.093L14092.8727,-3852.1154L14092.8727,-3852.1154L14092.8727,-3852.1154L14092.8647,-3852.1552L14092.8497,-3852.2538L14092.8495,-3852.2549L14092.8495,-3852.255L14092.8495,-3852.2551L14092.8495,-3852.2551L14092.8495,-3852.2551L14092.8495,-3852.2551L14092.8495,-3852.2553L14092.8493,-3852.2562L14092.8439,-3852.2919L14092.8419,-3852.3081L14092.8418,-3852.3088L14092.8418,-3852.3089L14092.8418,-3852.3091L14092.8418,-3852.3091L14092.8418,-3852.3091L14092.8418,-3852.3091L14092.8418,-3852.3091L14092.8418,-3852.3092L14092.8418,-3852.3092L14092.8417,-3852.3092L14092.8417,-3852.3093L14092.8372,-3852.3458L14092.8362,-3852.3544L14092.8362,-3852.3544L14092.836,-3852.356"/>
<path content="1,JRバス東北（株）,ドリームササニシキ号,1.0,1.0,1.0," xlink:title="1" d="M14092.9871,-3852.0982L14092.9667,-3852.1008L14092.9483,-3852.1036L14092.9218,-3852.1076L14092.9023,-3852.1107L14092.8729,-3852.1154L14092.8727,-3852.1154L14092.8727,-3852.1154L14092.8727,-3852.1154L14092.8727,-3852.1154L14092.8345,-3852.1214L14092.813,-3852.124L14092.7929,-3852.1268L14092.7798,-3852.1286L14092.7617,-3852.131L14092.7295,-3852.1349L14092.7133,-3852.137L14092.7124,-3852.1371"/>
<path content="1,JRバス東北（株）,ドリーム盛岡・らくちん号,2.2,3.0,3.0," xlink:title="1" d="M14092.8801,-3852.0813L14092.8774,-3852.0929L14092.8729,-3852.1154L14092.8729,-3852.1154L14092.8729,-3852.1154L14092.8648,-3852.1555L14092.8497,-3852.2538L14092.8495,-3852.2549L14092.8495,-3852.255L14092.8495,-3852.2551L14092.8495,-3852.2551L14092.8495,-3852.2551L14092.8495,-3852.2551L14092.8495,-3852.2553L14092.8493,-3852.2562L14092.8438,-3852.2921L14092.8418,-3852.3088L14092.8418,-3852.3089L14092.8418,-3852.3091L14092.8418,-3852.3091L14092.8418,-3852.3091L14092.8418,-3852.3091L14092.8418,-3852.3091L14092.8418,-3852.3092L14092.8418,-3852.3092L14092.8417,-3852.3092L14092.8417,-3852.3093L14092.8373,-3852.3458L14092.8362,-3852.3546L14092.836,-3852.356"/>
<path content="1,JRバス東北（株）,ドリーム秋田・横浜号,1.0,1.0,1.0," xlink:title="1" d="M14092.836,-3852.356L14092.8362,-3852.3544L14092.8362,-3852.3544L14092.8372,-3852.3458L14092.8417,-3852.3093L14092.8417,-3852.3092L14092.8418,-3852.3092L14092.8418,-3852.3092L14092.8418,-3852.3091L14092.8418,-3852.3091L14092.8418,-3852.3091L14092.8418,-3852.3091L14092.8418,-3852.3091L14092.8418,-3852.3089L14092.8418,-3852.3088L14092.8419,-3852.3081L14092.8439,-3852.2919L14092.8493,-3852.2562L14092.8495,-3852.2553L14092.8495,-3852.2551L14092.8495,-3852.2551L14092.8495,-3852.2551L14092.8495,-3852.2551L14092.8495,-3852.255L14092.8495,-3852.2549L14092.8497,-3852.2538L14092.8647,-3852.1552L14092.8727,-3852.1154L14092.8727,-3852.1154L14092.8727,-3852.1154L14092.8772,-3852.093L14092.8798,-3852.0813"/>
<path content="1,JRバス東北（株）,ブルーシティ号,1.5,1.5,1.5," xlink:title="1" d="M14092.8798,-3852.0813L14092.8772,-3852.093L14092.8727,-3852.1154L14092.8727,-3852.1154L14092.8727,-3852.1154L14092.8647,-3852.1552L14092.8497,-3852.2538L14092.8495,-3852.2549L14092.8495,-3852.255L14092.8495,-3852.2551L14092.8495,-3852.2551L14092.8495,-3852.2551L14092.8495,-3852.2551L14092.8495,-3852.2553L14092.8493,-3852.2562L14092.8439,-3852.2919L14092.8419,-3852.3081L14092.8418,-3852.3088L14092.8418,-3852.3089L14092.8418,-3852.3091L14092.8418,-3852.3091L14092.8418,-3852.3091L14092.8418,-3852.3091L14092.8418,-3852.3091L14092.8418,-3852.3092L14092.8418,-3852.3092L14092.8417,-3852.3092L14092.8417,-3852.3093L14092.8372,-3852.3458L14092.8362,-3852.3544L14092.8362,-3852.3544L14092.836,-3852.356"/>
<path content="1,JRバス東北（株）,ラ・フォーレ号,1.0,1.0,1.0," xlink:title="1" d="M14092.8801,-3852.0813L14092.8774,-3852.0929L14092.8729,-3852.1154L14092.8729,-3852.1154L14092.8729,-3852.1154L14092.8648,-3852.1555L14092.8497,-3852.2538L14092.8495,-3852.2549L14092.8495,-3852.255L14092.8495,-3852.2551L14092.8495,-3852.2551L14092.8495,-3852.2551L14092.8495,-3852.2551L14092.8495,-3852.2553L14092.8493,-3852.2562L14092.8438,-3852.2921L14092.8418,-3852.3088L14092.8418,-3852.3089L14092.8418,-3852.3091L14092.8418,-3852.3091L14092.8418,-3852.3091L14092.8418,-3852.3091L14092.8418,-3852.3091L14092.8418,-3852.3092L14092.8418,-3852.3092L14092.8417,-3852.3092L14092.8417,-3852.3093L14092.8373,-3852.3458L14092.8362,-3852.3546L14092.836,-3852.356"/>
<path content="1,JRバス東北（株）,仙台～古川線,31.0,25.0,25.0," xlink:title="1" d="M14092.8799,-3852.0813L14092.8798,-3852.0819L14092.8787,-3852.0867L14092.8776,-3852.0917L14092.8773,-3852.093L14092.874,-3852.109L14092.874,-3852.1092L14092.8739,-3852.1094L14092.8739,-3852.1097L14092.8738,-3852.1099L14092.8738,-3852.11L14092.8738,-3852.11L14092.8738,-3852.11L14092.8737,-3852.1109L14092.8734,-3852.1122L14092.873,-3852.1142L14092.8727,-3852.1154L14092.8727,-3852.1154L14092.8647,-3852.1553L14092.8647,-3852.1553L14092.8647,-3852.1553L14092.8497,-3852.2538L14092.8495,-3852.2549L14092.8495,-3852.255L14092.8495,-3852.2551L14092.8495,-3852.2551L14092.8495,-3852.2551L14092.8495,-3852.2551L14092.8495,-3852.2553L14092.8493,-3852.2562L14092.8439,-3852.2919L14092.8439,-3852.292L14092.8439,-3852.292L14092.8419,-3852.3081L14092.8418,-3852.3088L14092.8418,-3852.3089L14092.8418,-3852.3091L14092.8418,-3852.3091L14092.8418,-3852.3091L14092.8418,-3852.3091L14092.8418,-3852.3091L14092.8418,-3852.3092L14092.8418,-3852.3092L14092.8417,-3852.3092L14092.8417,-3852.3093L14092.8372,-3852.3458L14092.8362,-3852.3544L14092.8362,-3852.3544L14092.8362,-3852.3544L14092.8362,-3852.3544L14092.8362,-3852.3545L14092.836,-3852.356"/>
<path content="1,JRバス東北（株）,仙台～大館線,1.0,1.0,1.0," xlink:title="1" d="M14092.8799,-3852.0813L14092.8798,-3852.0819L14092.8787,-3852.0867L14092.8776,-3852.0917L14092.8773,-3852.093L14092.874,-3852.109L14092.874,-3852.1092L14092.8739,-3852.1094L14092.8739,-3852.1097L14092.8738,-3852.1099L14092.8738,-3852.11L14092.8738,-3852.11L14092.8738,-3852.11L14092.8737,-3852.1109L14092.8734,-3852.1122L14092.873,-3852.1142L14092.8727,-3852.1154L14092.8727,-3852.1154L14092.8651,-3852.1535L14092.8647,-3852.1553L14092.8647,-3852.1553L14092.8647,-3852.1553L14092.8647,-3852.1553L14092.8497,-3852.2538L14092.8495,-3852.2549L14092.8495,-3852.255L14092.8495,-3852.2551L14092.8495,-3852.2551L14092.8495,-3852.2551L14092.8495,-3852.2551L14092.8495,-3852.2553L14092.8493,-3852.2562L14092.8439,-3852.2919L14092.8439,-3852.292L14092.8439,-3852.292L14092.8419,-3852.3081L14092.8418,-3852.3088L14092.8418,-3852.3089L14092.8418,-3852.3091L14092.8418,-3852.3091L14092.8418,-3852.3091L14092.8418,-3852.3091L14092.8418,-3852.3091L14092.8418,-3852.3092L14092.8418,-3852.3092L14092.8417,-3852.3092L14092.8417,-3852.3093L14092.8372,-3852.3458L14092.8362,-3852.3544L14092.8362,-3852.3544L14092.8362,-3852.3544L14092.8362,-3852.3544L14092.8362,-3852.3545L14092.836,-3852.356"/>
<path content="1,JRバス東北（株）,仙台～江刺・水沢線,2.0,2.0,2.0," xlink:title="1" d="M14092.8798,-3852.0813L14092.8772,-3852.093L14092.8727,-3852.1154L14092.8727,-3852.1154L14092.8727,-3852.1154L14092.8647,-3852.1552L14092.8497,-3852.2538L14092.8495,-3852.2549L14092.8495,-3852.255L14092.8495,-3852.2551L14092.8495,-3852.2551L14092.8495,-3852.2551L14092.8495,-3852.2551L14092.8495,-3852.2553L14092.8493,-3852.2562L14092.8439,-3852.2919L14092.8419,-3852.3081L14092.8418,-3852.3088L14092.8418,-3852.3089L14092.8418,-3852.3091L14092.8418,-3852.3091L14092.8418,-3852.3091L14092.8418,-3852.3091L14092.8418,-3852.3091L14092.8418,-3852.3092L14092.8418,-3852.3092L14092.8417,-3852.3092L14092.8417,-3852.3093L14092.8372,-3852.3458L14092.8362,-3852.3544L14092.8362,-3852.3544L14092.836,-3852.356"/>
<path content="1,JRバス東北（株）,仙秋号,2.0,2.0,2.0," xlink:title="1" d="M14092.8798,-3852.0813L14092.8772,-3852.093L14092.8727,-3852.1154L14092.8727,-3852.1154L14092.8727,-3852.1154L14092.8647,-3852.1552L14092.8497,-3852.2538L14092.8495,-3852.2549L14092.8495,-3852.255L14092.8495,-3852.2551L14092.8495,-3852.2551L14092.8495,-3852.2551L14092.8495,-3852.2551L14092.8495,-3852.2553L14092.8493,-3852.2562L14092.8439,-3852.2919L14092.8419,-3852.3081L14092.8418,-3852.3088L14092.8418,-3852.3089L14092.8418,-3852.3091L14092.8418,-3852.3091L14092.8418,-3852.3091L14092.8418,-3852.3091L14092.8418,-3852.3091L14092.8418,-3852.3092L14092.8418,-3852.3092L14092.8417,-3852.3092L14092.8417,-3852.3093L14092.8372,-3852.3458L14092.8362,-3852.3544L14092.8362,-3852.3544L14092.836,-3852.356"/>
<path content="1,JRバス関東（株）,ドリーム盛岡号,2.2,3.0,3.0," xlink:title="1" d="M14092.8798,-3852.0813L14092.8772,-3852.093L14092.8727,-3852.1154L14092.8727,-3852.1154L14092.8727,-3852.1154L14092.8647,-3852.1552L14092.8497,-3852.2538L14092.8495,-3852.2549L14092.8495,-3852.255L14092.8495,-3852.2551L14092.8495,-3852.2551L14092.8495,-3852.2551L14092.8495,-3852.2551L14092.8495,-3852.2553L14092.8493,-3852.2562L14092.8439,-3852.2919L14092.8419,-3852.3081L14092.8418,-3852.3088L14092.8418,-3852.3089L14092.8418,-3852.3091L14092.8418,-3852.3091L14092.8418,-3852.3091L14092.8418,-3852.3091L14092.8418,-3852.3091L14092.8418,-3852.3092L14092.8418,-3852.3092L14092.8417,-3852.3092L14092.8417,-3852.3093L14092.8372,-3852.3458L14092.8362,-3852.3544L14092.8362,-3852.3544L14092.836,-3852.356"/>
<path content="1,京浜急行バス（株）,ノクターン号,3.4,4.0,4.0," xlink:title="1" d="M14092.8798,-3852.0813L14092.8772,-3852.093L14092.8727,-3852.1154L14092.8727,-3852.1154L14092.8727,-3852.1154L14092.8647,-3852.1552L14092.8497,-3852.2538L14092.8495,-3852.2549L14092.8495,-3852.255L14092.8495,-3852.2551L14092.8495,-3852.2551L14092.8495,-3852.2551L14092.8495,-3852.2551L14092.8495,-3852.2553L14092.8493,-3852.2562L14092.8439,-3852.2919L14092.8419,-3852.3081L14092.8418,-3852.3088L14092.8418,-3852.3089L14092.8418,-3852.3091L14092.8418,-3852.3091L14092.8418,-3852.3091L14092.8418,-3852.3091L14092.8418,-3852.3091L14092.8418,-3852.3092L14092.8418,-3852.3092L14092.8417,-3852.3092L14092.8417,-3852.3093L14092.8372,-3852.3458L14092.8362,-3852.3544L14092.8362,-3852.3544L14092.836,-3852.356"/>
<path content="1,京浜急行バス（株）,ビーム号,1.0,1.0,1.0," xlink:title="1" d="M14092.836,-3852.356L14092.8362,-3852.3544L14092.8362,-3852.3544L14092.8372,-3852.3458L14092.8417,-3852.3093L14092.8417,-3852.3092L14092.8418,-3852.3092L14092.8418,-3852.3092L14092.8418,-3852.3091L14092.8418,-3852.3091L14092.8418,-3852.3091L14092.8418,-3852.3091L14092.8418,-3852.3091L14092.8418,-3852.3089L14092.8418,-3852.3088L14092.8419,-3852.3081L14092.8439,-3852.2919L14092.8493,-3852.2562L14092.8495,-3852.2553L14092.8495,-3852.2551L14092.8495,-3852.2551L14092.8495,-3852.2551L14092.8495,-3852.2551L14092.8495,-3852.255L14092.8495,-3852.2549L14092.8497,-3852.2538L14092.8647,-3852.1552L14092.8727,-3852.1154L14092.8727,-3852.1154L14092.8727,-3852.1154L14092.8772,-3852.093L14092.8798,-3852.0813"/>
<path content="1,十和田観光電鉄（株）,うみねこ号,4.0,4.0,4.0," xlink:title="1" d="M14092.836,-3852.356L14092.8362,-3852.3545L14092.8362,-3852.3544L14092.8362,-3852.3544L14092.8362,-3852.3544L14092.8362,-3852.3544L14092.8373,-3852.3458L14092.8417,-3852.3093L14092.8417,-3852.3092L14092.8418,-3852.3092L14092.8418,-3852.3092L14092.8418,-3852.3091L14092.8418,-3852.3091L14092.8418,-3852.3091L14092.8418,-3852.3091L14092.8418,-3852.3091L14092.8418,-3852.3089L14092.8418,-3852.3088L14092.8419,-3852.3081L14092.8439,-3852.292L14092.8439,-3852.292L14092.8439,-3852.2919L14092.8493,-3852.2562L14092.8495,-3852.2553L14092.8495,-3852.2551L14092.8495,-3852.2551L14092.8495,-3852.2551L14092.8495,-3852.2551L14092.8495,-3852.255L14092.8495,-3852.2549L14092.8497,-3852.2538L14092.8647,-3852.1553L14092.8727,-3852.1154L14092.8727,-3852.1154L14092.873,-3852.1142L14092.8734,-3852.1122L14092.8737,-3852.1109L14092.8738,-3852.11L14092.8738,-3852.11L14092.8738,-3852.11L14092.8738,-3852.1099L14092.8739,-3852.1097L14092.8739,-3852.1094L14092.874,-3852.1092L14092.874,-3852.109L14092.8772,-3852.093L14092.8787,-3852.0867L14092.8798,-3852.0819L14092.8799,-3852.0813"/>
<path content="1,十和田観光電鉄（株）,シリウス号,1.0,1.0,1.0," xlink:title="1" d="M14092.836,-3852.356L14092.8362,-3852.3545L14092.8362,-3852.3544L14092.8362,-3852.3544L14092.8362,-3852.3544L14092.8362,-3852.3544L14092.8372,-3852.3458L14092.8417,-3852.3093L14092.8417,-3852.3092L14092.8418,-3852.3092L14092.8418,-3852.3092L14092.8418,-3852.3091L14092.8418,-3852.3091L14092.8418,-3852.3091L14092.8418,-3852.3091L14092.8418,-3852.3091L14092.8418,-3852.3089L14092.8418,-3852.3088L14092.8419,-3852.3081L14092.8439,-3852.292L14092.8439,-3852.292L14092.8439,-3852.2919L14092.8493,-3852.2562L14092.8495,-3852.2553L14092.8495,-3852.2551L14092.8495,-3852.2551L14092.8495,-3852.2551L14092.8495,-3852.2551L14092.8495,-3852.255L14092.8495,-3852.2549L14092.8497,-3852.2538L14092.8647,-3852.1553L14092.8647,-3852.1553L14092.8647,-3852.1553L14092.8647,-3852.1553L14092.8727,-3852.1154L14092.8727,-3852.1154L14092.8727,-3852.1154L14092.8772,-3852.093L14092.8798,-3852.0813"/>
<path content="1,十和田観光電鉄（株）,ブルーシティー号,6.0,6.0,6.0," xlink:title="1" d="M14092.836,-3852.356L14092.8362,-3852.3545L14092.8362,-3852.3544L14092.8362,-3852.3544L14092.8362,-3852.3544L14092.8362,-3852.3544L14092.8373,-3852.3458L14092.8417,-3852.3093L14092.8417,-3852.3092L14092.8418,-3852.3092L14092.8418,-3852.3092L14092.8418,-3852.3091L14092.8418,-3852.3091L14092.8418,-3852.3091L14092.8418,-3852.3091L14092.8418,-3852.3091L14092.8418,-3852.3089L14092.8418,-3852.3088L14092.8419,-3852.3081L14092.8439,-3852.292L14092.8439,-3852.292L14092.8439,-3852.2919L14092.8493,-3852.2562L14092.8495,-3852.2553L14092.8495,-3852.2551L14092.8495,-3852.2551L14092.8495,-3852.2551L14092.8495,-3852.2551L14092.8495,-3852.255L14092.8495,-3852.2549L14092.8497,-3852.2538L14092.8647,-3852.1553L14092.8727,-3852.1154L14092.8727,-3852.1154L14092.873,-3852.1142L14092.8734,-3852.1122L14092.8737,-3852.1109L14092.8738,-3852.11L14092.8738,-3852.11L14092.8738,-3852.11L14092.8738,-3852.1099L14092.8739,-3852.1097L14092.8739,-3852.1094L14092.874,-3852.1092L14092.874,-3852.109L14092.8772,-3852.093L14092.8787,-3852.0867L14092.8798,-3852.0819L14092.8799,-3852.0813"/>
<path content="1,南部バス（株）,うみねこ号　仙台→八戸,4.0,4.0,4.0," xlink:title="1" d="M14092.8799,-3852.0813L14092.8798,-3852.0819L14092.8787,-3852.0867L14092.8772,-3852.093L14092.874,-3852.109L14092.874,-3852.1092L14092.8739,-3852.1094L14092.8739,-3852.1097L14092.8738,-3852.1099L14092.8738,-3852.11L14092.8738,-3852.11L14092.8738,-3852.11L14092.8737,-3852.1109L14092.8734,-3852.1122L14092.873,-3852.1142L14092.8727,-3852.1154L14092.8727,-3852.1154L14092.8647,-3852.1553L14092.8497,-3852.2538L14092.8495,-3852.2549L14092.8495,-3852.255L14092.8495,-3852.2551L14092.8495,-3852.2551L14092.8495,-3852.2551L14092.8495,-3852.2551L14092.8495,-3852.2553L14092.8493,-3852.2562L14092.8439,-3852.2919L14092.8439,-3852.292L14092.8439,-3852.292L14092.8419,-3852.3081L14092.8418,-3852.3088L14092.8418,-3852.3089L14092.8418,-3852.3091L14092.8418,-3852.3091L14092.8418,-3852.3091L14092.8418,-3852.3091L14092.8418,-3852.3091L14092.8418,-3852.3092L14092.8418,-3852.3092L14092.8417,-3852.3092L14092.8417,-3852.3093L14092.8373,-3852.3458L14092.8362,-3852.3544L14092.8362,-3852.3544L14092.8362,-3852.3544L14092.8362,-3852.3544L14092.8362,-3852.3545L14092.836,-3852.356"/>
<path content="1,南部バス（株）,うみねこ号　八戸→仙台,4.0,4.0,4.0," xlink:title="1" d="M14092.836,-3852.356L14092.8362,-3852.3545L14092.8362,-3852.3544L14092.8362,-3852.3544L14092.8362,-3852.3544L14092.8362,-3852.3544L14092.8372,-3852.3458L14092.8417,-3852.3093L14092.8417,-3852.3092L14092.8418,-3852.3092L14092.8418,-3852.3092L14092.8418,-3852.3091L14092.8418,-3852.3091L14092.8418,-3852.3091L14092.8418,-3852.3091L14092.8418,-3852.3091L14092.8418,-3852.3089L14092.8418,-3852.3088L14092.8419,-3852.3081L14092.8439,-3852.292L14092.8439,-3852.292L14092.8439,-3852.2919L14092.8493,-3852.2562L14092.8495,-3852.2553L14092.8495,-3852.2551L14092.8495,-3852.2551L14092.8495,-3852.2551L14092.8495,-3852.2551L14092.8495,-3852.255L14092.8495,-3852.2549L14092.8497,-3852.2538L14092.8647,-3852.1553L14092.8647,-3852.1553L14092.8647,-3852.1553L14092.8647,-3852.1553L14092.8727,-3852.1154L14092.8727,-3852.1154L14092.8727,-3852.1154L14092.8772,-3852.093L14092.8798,-3852.0813"/>
<path content="1,国際興業（株）,けせんライナー,1.0,1.0,1.0," xlink:title="1" d="M14092.8798,-3852.0813L14092.8772,-3852.093L14092.8727,-3852.1154L14092.8727,-3852.1154L14092.8727,-3852.1154L14092.8647,-3852.1552L14092.8497,-3852.2538L14092.8495,-3852.2549L14092.8495,-3852.255L14092.8495,-3852.2551L14092.8495,-3852.2551L14092.8495,-3852.2551L14092.8495,-3852.2551L14092.8495,-3852.2553L14092.8493,-3852.2562L14092.8439,-3852.2919L14092.8419,-3852.3081L14092.8418,-3852.3088L14092.8418,-3852.3089L14092.8418,-3852.3091L14092.8418,-3852.3091L14092.8418,-3852.3091L14092.8418,-3852.3091L14092.8418,-3852.3091L14092.8418,-3852.3092L14092.8418,-3852.3092L14092.8417,-3852.3092L14092.8417,-3852.3093L14092.8372,-3852.3458L14092.8362,-3852.3544L14092.8362,-3852.3544L14092.836,-3852.356"/>
<path content="1,国際興業（株）,イーハトープ号,1.0,1.0,1.0," xlink:title="1" d="M14092.8798,-3852.0813L14092.8772,-3852.093L14092.8727,-3852.1154L14092.8727,-3852.1154L14092.8727,-3852.1154L14092.8647,-3852.1552L14092.8497,-3852.2538L14092.8495,-3852.2549L14092.8495,-3852.255L14092.8495,-3852.2551L14092.8495,-3852.2551L14092.8495,-3852.2551L14092.8495,-3852.2551L14092.8495,-3852.2553L14092.8493,-3852.2562L14092.8439,-3852.2919L14092.8419,-3852.3081L14092.8418,-3852.3088L14092.8418,-3852.3089L14092.8418,-3852.3091L14092.8418,-3852.3091L14092.8418,-3852.3091L14092.8418,-3852.3091L14092.8418,-3852.3091L14092.8418,-3852.3092L14092.8418,-3852.3092L14092.8417,-3852.3092L14092.8417,-3852.3093L14092.8372,-3852.3458L14092.8362,-3852.3544L14092.8362,-3852.3544L14092.836,-3852.356"/>
<path content="1,国際興業（株）,シリウス号,1.0,1.0,1.0," xlink:title="1" d="M14092.8798,-3852.0813L14092.8772,-3852.093L14092.8727,-3852.1154L14092.8727,-3852.1154L14092.8727,-3852.1154L14092.8647,-3852.1552L14092.8497,-3852.2538L14092.8495,-3852.2549L14092.8495,-3852.255L14092.8495,-3852.2551L14092.8495,-3852.2551L14092.8495,-3852.2551L14092.8495,-3852.2551L14092.8495,-3852.2553L14092.8493,-3852.2562L14092.8439,-3852.2919L14092.8419,-3852.3081L14092.8418,-3852.3088L14092.8418,-3852.3089L14092.8418,-3852.3091L14092.8418,-3852.3091L14092.8418,-3852.3091L14092.8418,-3852.3091L14092.8418,-3852.3091L14092.8418,-3852.3092L14092.8418,-3852.3092L14092.8417,-3852.3092L14092.8417,-3852.3093L14092.8372,-3852.3458L14092.8362,-3852.3544L14092.8362,-3852.3544L14092.836,-3852.356"/>
<path content="1,国際興業（株）,ジュピター号,1.0,1.0,1.0," xlink:title="1" d="M14092.8798,-3852.0813L14092.8772,-3852.093L14092.8727,-3852.1154L14092.8727,-3852.1154L14092.8727,-3852.1154L14092.8647,-3852.1552L14092.8497,-3852.2538L14092.8495,-3852.2549L14092.8495,-3852.255L14092.8495,-3852.2551L14092.8495,-3852.2551L14092.8495,-3852.2551L14092.8495,-3852.2551L14092.8495,-3852.2553L14092.8493,-3852.2562L14092.8439,-3852.2919L14092.8419,-3852.3081L14092.8418,-3852.3088L14092.8418,-3852.3089L14092.8418,-3852.3091L14092.8418,-3852.3091L14092.8418,-3852.3091L14092.8418,-3852.3091L14092.8418,-3852.3091L14092.8418,-3852.3092L14092.8418,-3852.3092L14092.8417,-3852.3092L14092.8417,-3852.3093L14092.8372,-3852.3458L14092.8362,-3852.3544L14092.8362,-3852.3544L14092.836,-3852.356"/>
<path content="1,国際興業（株）,ドリーム盛岡（らくちん）号,2.2,3.0,3.0," xlink:title="1" d="M14092.8798,-3852.0813L14092.8772,-3852.093L14092.8727,-3852.1154L14092.8727,-3852.1154L14092.8727,-3852.1154L14092.8647,-3852.1552L14092.8497,-3852.2538L14092.8495,-3852.2549L14092.8495,-3852.255L14092.8495,-3852.2551L14092.8495,-3852.2551L14092.8495,-3852.2551L14092.8495,-3852.2551L14092.8495,-3852.2553L14092.8493,-3852.2562L14092.8439,-3852.2919L14092.8419,-3852.3081L14092.8418,-3852.3088L14092.8418,-3852.3089L14092.8418,-3852.3091L14092.8418,-3852.3091L14092.8418,-3852.3091L14092.8418,-3852.3091L14092.8418,-3852.3091L14092.8418,-3852.3092L14092.8418,-3852.3092L14092.8417,-3852.3092L14092.8417,-3852.3093L14092.8372,-3852.3458L14092.8362,-3852.3544L14092.8362,-3852.3544L14092.836,-3852.356"/>
<path content="1,国際興業（株）,遠野・釜石号,1.0,1.0,1.0," xlink:title="1" d="M14092.8798,-3852.0813L14092.8772,-3852.093L14092.8727,-3852.1154L14092.8727,-3852.1154L14092.8727,-3852.1154L14092.8647,-3852.1552L14092.8497,-3852.2538L14092.8495,-3852.2549L14092.8495,-3852.255L14092.8495,-3852.2551L14092.8495,-3852.2551L14092.8495,-3852.2551L14092.8495,-3852.2551L14092.8495,-3852.2553L14092.8493,-3852.2562L14092.8439,-3852.2919L14092.8419,-3852.3081L14092.8418,-3852.3088L14092.8418,-3852.3089L14092.8418,-3852.3091L14092.8418,-3852.3091L14092.8418,-3852.3091L14092.8418,-3852.3091L14092.8418,-3852.3091L14092.8418,-3852.3092L14092.8418,-3852.3092L14092.8417,-3852.3092L14092.8417,-3852.3093L14092.8372,-3852.3458L14092.8362,-3852.3544L14092.8362,-3852.3544L14092.836,-3852.356"/>
<path content="1,宮城交通（株）,うみねこ,1.0,1.0,1.0," xlink:title="1" d="M14092.8798,-3852.0813L14092.8772,-3852.093L14092.8727,-3852.1154L14092.8727,-3852.1154L14092.8727,-3852.1154L14092.8647,-3852.1553L14092.8647,-3852.1553L14092.8647,-3852.1553L14092.8647,-3852.1553L14092.8497,-3852.2538L14092.8495,-3852.2549L14092.8495,-3852.255L14092.8495,-3852.2551L14092.8495,-3852.2551L14092.8495,-3852.2551L14092.8495,-3852.2551L14092.8495,-3852.2553L14092.8493,-3852.2562L14092.8439,-3852.2919L14092.8439,-3852.292L14092.8439,-3852.292L14092.8419,-3852.3081L14092.8418,-3852.3088L14092.8418,-3852.3089L14092.8418,-3852.3091L14092.8418,-3852.3091L14092.8418,-3852.3091L14092.8418,-3852.3091L14092.8418,-3852.3091L14092.8418,-3852.3092L14092.8418,-3852.3092L14092.8417,-3852.3092L14092.8417,-3852.3093L14092.8372,-3852.3458L14092.8362,-3852.3544L14092.8362,-3852.3544L14092.8362,-3852.3544L14092.8362,-3852.3544L14092.8362,-3852.3545L14092.836,-3852.356"/>
<path content="1,宮城交通（株）,アーバン,3.2,4.0,4.0," xlink:title="1" d="M14092.8798,-3852.0813L14092.8772,-3852.093L14092.8727,-3852.1154L14092.8727,-3852.1154L14092.8727,-3852.1154L14092.8647,-3852.1553L14092.8647,-3852.1553L14092.8647,-3852.1553L14092.8647,-3852.1553L14092.8497,-3852.2538L14092.8495,-3852.2549L14092.8495,-3852.255L14092.8495,-3852.2551L14092.8495,-3852.2551L14092.8495,-3852.2551L14092.8495,-3852.2551L14092.8495,-3852.2553L14092.8493,-3852.2562L14092.8439,-3852.2919L14092.8439,-3852.292L14092.8439,-3852.292L14092.8419,-3852.3081L14092.8418,-3852.3088L14092.8418,-3852.3089L14092.8418,-3852.3091L14092.8418,-3852.3091L14092.8418,-3852.3091L14092.8418,-3852.3091L14092.8418,-3852.3091L14092.8418,-3852.3092L14092.8418,-3852.3092L14092.8417,-3852.3092L14092.8417,-3852.3093L14092.8372,-3852.3458L14092.8362,-3852.3544L14092.8362,-3852.3544L14092.8362,-3852.3544L14092.8362,-3852.3544L14092.8362,-3852.3545L14092.836,-3852.356"/>
<path content="1,宮城交通（株）,キャッスル,3.0,3.0,3.0," xlink:title="1" d="M14092.8798,-3852.0813L14092.8772,-3852.093L14092.8727,-3852.1154L14092.8727,-3852.1154L14092.8727,-3852.1154L14092.8647,-3852.1553L14092.8647,-3852.1553L14092.8647,-3852.1553L14092.8647,-3852.1553L14092.8497,-3852.2538L14092.8495,-3852.2549L14092.8495,-3852.255L14092.8495,-3852.2551L14092.8495,-3852.2551L14092.8495,-3852.2551L14092.8495,-3852.2551L14092.8495,-3852.2553L14092.8493,-3852.2562L14092.8439,-3852.2919L14092.8439,-3852.292L14092.8439,-3852.292L14092.8419,-3852.3081L14092.8418,-3852.3088L14092.8418,-3852.3089L14092.8418,-3852.3091L14092.8418,-3852.3091L14092.8418,-3852.3091L14092.8418,-3852.3091L14092.8418,-3852.3091L14092.8418,-3852.3092L14092.8418,-3852.3092L14092.8417,-3852.3092L14092.8417,-3852.3093L14092.8372,-3852.3458L14092.8362,-3852.3544L14092.8362,-3852.3544L14092.8362,-3852.3544L14092.8362,-3852.3544L14092.8362,-3852.3545L14092.836,-3852.356"/>
<path content="1,宮城交通（株）,ブルーシティ,1.5,1.5,1.5," xlink:title="1" d="M14092.8798,-3852.0813L14092.8772,-3852.093L14092.8727,-3852.1154L14092.8727,-3852.1154L14092.8727,-3852.1154L14092.8647,-3852.1553L14092.8647,-3852.1553L14092.8647,-3852.1553L14092.8647,-3852.1553L14092.8497,-3852.2538L14092.8495,-3852.2549L14092.8495,-3852.255L14092.8495,-3852.2551L14092.8495,-3852.2551L14092.8495,-3852.2551L14092.8495,-3852.2551L14092.8495,-3852.2553L14092.8493,-3852.2562L14092.8439,-3852.2919L14092.8439,-3852.292L14092.8439,-3852.292L14092.8419,-3852.3081L14092.8418,-3852.3088L14092.8418,-3852.3089L14092.8418,-3852.3091L14092.8418,-3852.3091L14092.8418,-3852.3091L14092.8418,-3852.3091L14092.8418,-3852.3091L14092.8418,-3852.3092L14092.8418,-3852.3092L14092.8417,-3852.3092L14092.8417,-3852.3093L14092.8372,-3852.3458L14092.8362,-3852.3544L14092.8362,-3852.3544L14092.8362,-3852.3544L14092.8362,-3852.3544L14092.8362,-3852.3545L14092.836,-3852.356"/>
<path content="1,宮城交通（株）,仙台～佐沼線,8.0,8.0,8.0," xlink:title="1" d="M14092.8799,-3852.0813L14092.8798,-3852.0819L14092.8787,-3852.0867L14092.8776,-3852.0917L14092.8773,-3852.093L14092.874,-3852.109L14092.874,-3852.1092L14092.8739,-3852.1094L14092.8739,-3852.1097L14092.8738,-3852.1099L14092.8738,-3852.11L14092.8738,-3852.11L14092.8738,-3852.11L14092.8737,-3852.1109L14092.8734,-3852.1122L14092.873,-3852.1142L14092.8727,-3852.1154L14092.8727,-3852.1154L14092.8647,-3852.1553L14092.8647,-3852.1553L14092.8647,-3852.1553L14092.8497,-3852.2538L14092.8495,-3852.2549L14092.8495,-3852.255L14092.8495,-3852.2551L14092.8495,-3852.2551L14092.8495,-3852.2551L14092.8495,-3852.2551L14092.8495,-3852.2553L14092.8493,-3852.2562L14092.8439,-3852.2919L14092.8439,-3852.292L14092.8439,-3852.292L14092.8419,-3852.3081L14092.8418,-3852.3088L14092.8418,-3852.3089L14092.8418,-3852.3091L14092.8418,-3852.3091L14092.8418,-3852.3091L14092.8418,-3852.3091L14092.8418,-3852.3091L14092.8418,-3852.3092L14092.8418,-3852.3092L14092.8417,-3852.3092L14092.8417,-3852.3093L14092.8372,-3852.3458L14092.8362,-3852.3544L14092.8362,-3852.3544L14092.8362,-3852.3544L14092.8362,-3852.3544L14092.8362,-3852.3545L14092.836,-3852.356"/>
<path content="1,宮城交通（株）,仙台～古川線,11.5,7.5,7.5," xlink:title="1" d="M14092.8799,-3852.0813L14092.8798,-3852.0819L14092.8787,-3852.0867L14092.8776,-3852.0917L14092.8773,-3852.093L14092.874,-3852.109L14092.874,-3852.1092L14092.8739,-3852.1094L14092.8739,-3852.1097L14092.8738,-3852.1099L14092.8738,-3852.11L14092.8738,-3852.11L14092.8738,-3852.11L14092.8737,-3852.1109L14092.8734,-3852.1122L14092.873,-3852.1142L14092.8727,-3852.1154L14092.8727,-3852.1154L14092.8647,-3852.1553L14092.8647,-3852.1553L14092.8647,-3852.1553L14092.8497,-3852.2538L14092.8495,-3852.2549L14092.8495,-3852.255L14092.8495,-3852.2551L14092.8495,-3852.2551L14092.8495,-3852.2551L14092.8495,-3852.2551L14092.8495,-3852.2553L14092.8493,-3852.2562L14092.8439,-3852.2919L14092.8439,-3852.292L14092.8439,-3852.292L14092.8419,-3852.3081L14092.8418,-3852.3088L14092.8418,-3852.3089L14092.8418,-3852.3091L14092.8418,-3852.3091L14092.8418,-3852.3091L14092.8418,-3852.3091L14092.8418,-3852.3091L14092.8418,-3852.3092L14092.8418,-3852.3092L14092.8417,-3852.3092L14092.8417,-3852.3093L14092.8372,-3852.3458L14092.8362,-3852.3544L14092.8362,-3852.3544L14092.8362,-3852.3544L14092.8362,-3852.3544L14092.8362,-3852.3545L14092.836,-3852.356"/>
<path content="1,宮城交通（株）,仙台～大船渡線,2.0,2.0,2.0," xlink:title="1" d="M14092.8798,-3852.0813L14092.8772,-3852.093L14092.8727,-3852.1154L14092.8727,-3852.1154L14092.8727,-3852.1154L14092.8647,-3852.1552L14092.8497,-3852.2538L14092.8495,-3852.2549L14092.8495,-3852.255L14092.8495,-3852.2551L14092.8495,-3852.2551L14092.8495,-3852.2551L14092.8495,-3852.2551L14092.8495,-3852.2553L14092.8493,-3852.2562L14092.8439,-3852.2919L14092.8419,-3852.3081L14092.8418,-3852.3088L14092.8418,-3852.3089L14092.8418,-3852.3091L14092.8418,-3852.3091L14092.8418,-3852.3091L14092.8418,-3852.3091L14092.8418,-3852.3091L14092.8418,-3852.3092L14092.8418,-3852.3092L14092.8417,-3852.3092L14092.8417,-3852.3093L14092.8372,-3852.3458L14092.8362,-3852.3544L14092.8362,-3852.3544L14092.836,-3852.356"/>
<path content="1,宮城交通（株）,仙台～栗駒線,2.0,2.0,2.0," xlink:title="1" d="M14092.8799,-3852.0813L14092.8798,-3852.0819L14092.8787,-3852.0867L14092.8776,-3852.0917L14092.8773,-3852.093L14092.874,-3852.109L14092.874,-3852.1092L14092.8739,-3852.1094L14092.8739,-3852.1097L14092.8738,-3852.1099L14092.8738,-3852.11L14092.8738,-3852.11L14092.8738,-3852.11L14092.8737,-3852.1109L14092.8734,-3852.1122L14092.873,-3852.1142L14092.8727,-3852.1154L14092.8727,-3852.1154L14092.8647,-3852.1553L14092.8647,-3852.1553L14092.8647,-3852.1553L14092.8497,-3852.2538L14092.8495,-3852.2549L14092.8495,-3852.255L14092.8495,-3852.2551L14092.8495,-3852.2551L14092.8495,-3852.2551L14092.8495,-3852.2551L14092.8495,-3852.2553L14092.8493,-3852.2562L14092.8439,-3852.2919L14092.8439,-3852.292L14092.8439,-3852.292L14092.8419,-3852.3081L14092.8418,-3852.3088L14092.8418,-3852.3089L14092.8418,-3852.3091L14092.8418,-3852.3091L14092.8418,-3852.3091L14092.8418,-3852.3091L14092.8418,-3852.3091L14092.8418,-3852.3092L14092.8418,-3852.3092L14092.8417,-3852.3092L14092.8417,-3852.3093L14092.8372,-3852.3458L14092.8362,-3852.3544L14092.8362,-3852.3544L14092.8362,-3852.3544L14092.8362,-3852.3544L14092.8362,-3852.3545L14092.836,-3852.356"/>
<path content="1,宮城交通（株）,仙台～気仙沼線,3.0,3.0,3.0," xlink:title="1" d="M14092.8799,-3852.0813L14092.8798,-3852.0819L14092.8787,-3852.0867L14092.8776,-3852.0917L14092.8773,-3852.093L14092.874,-3852.109L14092.874,-3852.1092L14092.8739,-3852.1094L14092.8739,-3852.1097L14092.8738,-3852.1099L14092.8738,-3852.11L14092.8738,-3852.11L14092.8738,-3852.11L14092.8737,-3852.1109L14092.8734,-3852.1122L14092.873,-3852.1142L14092.8727,-3852.1154L14092.8727,-3852.1154L14092.8651,-3852.1535L14092.8647,-3852.1553L14092.8647,-3852.1553L14092.8647,-3852.1553L14092.8647,-3852.1553L14092.8497,-3852.2538L14092.8495,-3852.2549L14092.8495,-3852.255L14092.8495,-3852.2551L14092.8495,-3852.2551L14092.8495,-3852.2551L14092.8495,-3852.2551L14092.8495,-3852.2553L14092.8493,-3852.2562L14092.8439,-3852.2919L14092.8439,-3852.292L14092.8439,-3852.292L14092.8419,-3852.3081L14092.8418,-3852.3088L14092.8418,-3852.3089L14092.8418,-3852.3091L14092.8418,-3852.3091L14092.8418,-3852.3091L14092.8418,-3852.3091L14092.8418,-3852.3091L14092.8418,-3852.3092L14092.8418,-3852.3092L14092.8417,-3852.3092L14092.8417,-3852.3093L14092.8372,-3852.3458L14092.8362,-3852.3544L14092.8362,-3852.3544L14092.8362,-3852.3544L14092.8362,-3852.3544L14092.8362,-3852.3545L14092.836,-3852.356"/>
<path content="1,宮城交通（株）,仙台～釜石線,1.0,1.0,1.0," xlink:title="1" d="M14092.8798,-3852.0813L14092.8772,-3852.093L14092.8727,-3852.1154L14092.8727,-3852.1154L14092.8727,-3852.1154L14092.8647,-3852.1553L14092.8647,-3852.1553L14092.8647,-3852.1553L14092.8647,-3852.1553L14092.8497,-3852.2538L14092.8495,-3852.2549L14092.8495,-3852.255L14092.8495,-3852.2551L14092.8495,-3852.2551L14092.8495,-3852.2551L14092.8495,-3852.2551L14092.8495,-3852.2553L14092.8493,-3852.2562L14092.8439,-3852.2919L14092.8439,-3852.292L14092.8439,-3852.292L14092.8419,-3852.3081L14092.8418,-3852.3088L14092.8418,-3852.3089L14092.8418,-3852.3091L14092.8418,-3852.3091L14092.8418,-3852.3091L14092.8418,-3852.3091L14092.8418,-3852.3091L14092.8418,-3852.3092L14092.8418,-3852.3092L14092.8417,-3852.3092L14092.8417,-3852.3093L14092.8372,-3852.3458L14092.8362,-3852.3544L14092.8362,-3852.3544L14092.8362,-3852.3544L14092.8362,-3852.3544L14092.8362,-3852.3545L14092.836,-3852.356"/>
<path content="1,宮城交通（株）,仙台～鳴子線,3.5,3.5,3.5," xlink:title="1" d="M14092.8799,-3852.0813L14092.8798,-3852.0819L14092.8787,-3852.0867L14092.8776,-3852.0917L14092.8773,-3852.093L14092.874,-3852.109L14092.874,-3852.1092L14092.8739,-3852.1094L14092.8739,-3852.1097L14092.8738,-3852.1099L14092.8738,-3852.11L14092.8738,-3852.11L14092.8738,-3852.11L14092.8737,-3852.1109L14092.8734,-3852.1122L14092.873,-3852.1142L14092.8727,-3852.1154L14092.8727,-3852.1154L14092.8651,-3852.1535L14092.8647,-3852.1553L14092.8647,-3852.1553L14092.8647,-3852.1553L14092.8647,-3852.1553L14092.8497,-3852.2538L14092.8495,-3852.2549L14092.8495,-3852.255L14092.8495,-3852.2551L14092.8495,-3852.2551L14092.8495,-3852.2551L14092.8495,-3852.2551L14092.8495,-3852.2553L14092.8493,-3852.2562L14092.8439,-3852.2919L14092.8439,-3852.292L14092.8439,-3852.292L14092.8419,-3852.3081L14092.8418,-3852.3088L14092.8418,-3852.3089L14092.8418,-3852.3091L14092.8418,-3852.3091L14092.8418,-3852.3091L14092.8418,-3852.3091L14092.8418,-3852.3091L14092.8418,-3852.3092L14092.8418,-3852.3092L14092.8417,-3852.3092L14092.8417,-3852.3093L14092.8372,-3852.3458L14092.8362,-3852.3544L14092.8362,-3852.3544L14092.8362,-3852.3544L14092.8362,-3852.3544L14092.8362,-3852.3545L14092.836,-3852.356"/>
<path content="1,宮城交通（株）,仙秋,4.0,4.0,4.0," xlink:title="1" d="M14092.8798,-3852.0813L14092.8772,-3852.093L14092.8727,-3852.1154L14092.8727,-3852.1154L14092.8727,-3852.1154L14092.8647,-3852.1553L14092.8647,-3852.1553L14092.8647,-3852.1553L14092.8647,-3852.1553L14092.8497,-3852.2538L14092.8495,-3852.2549L14092.8495,-3852.255L14092.8495,-3852.2551L14092.8495,-3852.2551L14092.8495,-3852.2551L14092.8495,-3852.2551L14092.8495,-3852.2553L14092.8493,-3852.2562L14092.8439,-3852.2919L14092.8439,-3852.292L14092.8439,-3852.292L14092.8419,-3852.3081L14092.8418,-3852.3088L14092.8418,-3852.3089L14092.8418,-3852.3091L14092.8418,-3852.3091L14092.8418,-3852.3091L14092.8418,-3852.3091L14092.8418,-3852.3091L14092.8418,-3852.3092L14092.8418,-3852.3092L14092.8417,-3852.3092L14092.8417,-3852.3093L14092.8372,-3852.3458L14092.8362,-3852.3544L14092.8362,-3852.3544L14092.8362,-3852.3544L14092.8362,-3852.3544L14092.8362,-3852.3545L14092.836,-3852.356"/>
<path content="1,宮城交通（株）,南三陸～仙台線,3.0,3.0,3.0," xlink:title="1" d="M14092.8799,-3852.0813L14092.8798,-3852.0819L14092.8787,-3852.0867L14092.8776,-3852.0917L14092.8773,-3852.093L14092.874,-3852.109L14092.874,-3852.1092L14092.8739,-3852.1094L14092.8739,-3852.1097L14092.8738,-3852.1099L14092.8738,-3852.11L14092.8738,-3852.11L14092.8738,-3852.11L14092.8737,-3852.1109L14092.8734,-3852.1122L14092.873,-3852.1142L14092.8727,-3852.1154L14092.8727,-3852.1154L14092.8647,-3852.1553L14092.8647,-3852.1553L14092.8647,-3852.1553L14092.8497,-3852.2538L14092.8495,-3852.2549L14092.8495,-3852.255L14092.8495,-3852.2551L14092.8495,-3852.2551L14092.8495,-3852.2551L14092.8495,-3852.2551L14092.8495,-3852.2553L14092.8493,-3852.2562L14092.8439,-3852.2919L14092.8439,-3852.292L14092.8439,-3852.292L14092.8419,-3852.3081L14092.8418,-3852.3088L14092.8418,-3852.3089L14092.8418,-3852.3091L14092.8418,-3852.3091L14092.8418,-3852.3091L14092.8418,-3852.3091L14092.8418,-3852.3091L14092.8418,-3852.3092L14092.8418,-3852.3092L14092.8417,-3852.3092L14092.8417,-3852.3093L14092.8372,-3852.3458L14092.8362,-3852.3544L14092.8362,-3852.3544L14092.8362,-3852.3544L14092.8362,-3852.3544L14092.8362,-3852.3545L14092.836,-3852.356"/>
<path content="1,小田急シティバス（株）,フローラ号,1.0,1.0,1.0," xlink:title="1" d="M14092.8798,-3852.0813L14092.8772,-3852.093L14092.8727,-3852.1154L14092.8727,-3852.1154L14092.8727,-3852.1154L14092.8647,-3852.1552L14092.8497,-3852.2538L14092.8495,-3852.2549L14092.8495,-3852.255L14092.8495,-3852.2551L14092.8495,-3852.2551L14092.8495,-3852.2551L14092.8495,-3852.2551L14092.8495,-3852.2553L14092.8493,-3852.2562L14092.8439,-3852.2919L14092.8419,-3852.3081L14092.8418,-3852.3088L14092.8418,-3852.3089L14092.8418,-3852.3091L14092.8418,-3852.3091L14092.8418,-3852.3091L14092.8418,-3852.3091L14092.8418,-3852.3091L14092.8418,-3852.3092L14092.8418,-3852.3092L14092.8417,-3852.3092L14092.8417,-3852.3093L14092.8372,-3852.3458L14092.8362,-3852.3544L14092.8362,-3852.3544L14092.836,-3852.356"/>
<path content="1,小田急バス（株）,フローラ号,1.0,1.0,1.0," xlink:title="1" d="M14092.8798,-3852.0813L14092.8772,-3852.093L14092.8727,-3852.1154L14092.8727,-3852.1154L14092.8727,-3852.1154L14092.8647,-3852.1552L14092.8497,-3852.2538L14092.8495,-3852.2549L14092.8495,-3852.255L14092.8495,-3852.2551L14092.8495,-3852.2551L14092.8495,-3852.2551L14092.8495,-3852.2551L14092.8495,-3852.2553L14092.8493,-3852.2562L14092.8439,-3852.2919L14092.8419,-3852.3081L14092.8418,-3852.3088L14092.8418,-3852.3089L14092.8418,-3852.3091L14092.8418,-3852.3091L14092.8418,-3852.3091L14092.8418,-3852.3091L14092.8418,-3852.3091L14092.8418,-3852.3092L14092.8418,-3852.3092L14092.8417,-3852.3092L14092.8417,-3852.3093L14092.8372,-3852.3458L14092.8362,-3852.3544L14092.8362,-3852.3544L14092.836,-3852.356"/>
<path content="1,岩手急行バス（株）,一ノ関仙台線,19.0,19.0,19.0," xlink:title="1" d="M14092.8799,-3852.0813L14092.8798,-3852.0819L14092.8787,-3852.0867L14092.8776,-3852.0917L14092.8773,-3852.093L14092.874,-3852.109L14092.874,-3852.1092L14092.8739,-3852.1094L14092.8739,-3852.1097L14092.8738,-3852.1099L14092.8738,-3852.11L14092.8738,-3852.11L14092.8738,-3852.11L14092.8737,-3852.1109L14092.8734,-3852.1122L14092.873,-3852.1142L14092.8727,-3852.1154L14092.8727,-3852.1154L14092.8651,-3852.1535L14092.8647,-3852.1553L14092.8647,-3852.1553L14092.8647,-3852.1553L14092.8647,-3852.1553L14092.8497,-3852.2538L14092.8495,-3852.2549L14092.8495,-3852.255L14092.8495,-3852.2551L14092.8495,-3852.2551L14092.8495,-3852.2551L14092.8495,-3852.2551L14092.8495,-3852.2553L14092.8493,-3852.2562L14092.8439,-3852.2919L14092.8439,-3852.292L14092.8439,-3852.292L14092.8419,-3852.3081L14092.8418,-3852.3088L14092.8418,-3852.3089L14092.8418,-3852.3091L14092.8418,-3852.3091L14092.8418,-3852.3091L14092.8418,-3852.3091L14092.8418,-3852.3091L14092.8418,-3852.3092L14092.8418,-3852.3092L14092.8417,-3852.3092L14092.8417,-3852.3093L14092.8372,-3852.3458L14092.8362,-3852.3544L14092.8362,-3852.3544L14092.8362,-3852.3544L14092.8362,-3852.3544L14092.8362,-3852.3545L14092.836,-3852.356"/>
<path content="1,岩手県交通（株）,けせんライナー,1.0,1.0,1.0," xlink:title="1" d="M14092.8798,-3852.0813L14092.8772,-3852.093L14092.8727,-3852.1154L14092.8727,-3852.1154L14092.8727,-3852.1154L14092.8647,-3852.1552L14092.8497,-3852.2538L14092.8495,-3852.2549L14092.8495,-3852.255L14092.8495,-3852.2551L14092.8495,-3852.2551L14092.8495,-3852.2551L14092.8495,-3852.2551L14092.8495,-3852.2553L14092.8493,-3852.2562L14092.8439,-3852.2919L14092.8419,-3852.3081L14092.8418,-3852.3088L14092.8418,-3852.3089L14092.8418,-3852.3091L14092.8418,-3852.3091L14092.8418,-3852.3091L14092.8418,-3852.3091L14092.8418,-3852.3091L14092.8418,-3852.3092L14092.8418,-3852.3092L14092.8417,-3852.3092L14092.8417,-3852.3093L14092.8372,-3852.3458L14092.8362,-3852.3544L14092.8362,-3852.3544L14092.836,-3852.356"/>
<path content="1,岩手県交通（株）,けんじライナー,2.0,2.0,2.0," xlink:title="1" d="M14092.8799,-3852.0813L14092.8798,-3852.0819L14092.8787,-3852.0867L14092.8776,-3852.0917L14092.8773,-3852.093L14092.874,-3852.109L14092.874,-3852.1092L14092.8739,-3852.1094L14092.8739,-3852.1097L14092.8738,-3852.1099L14092.8738,-3852.11L14092.8738,-3852.11L14092.8738,-3852.11L14092.8737,-3852.1109L14092.8734,-3852.1122L14092.873,-3852.1142L14092.8727,-3852.1154L14092.8727,-3852.1154L14092.8651,-3852.1535L14092.8647,-3852.1553L14092.8647,-3852.1553L14092.8647,-3852.1553L14092.8647,-3852.1553L14092.8497,-3852.2538L14092.8495,-3852.2549L14092.8495,-3852.255L14092.8495,-3852.2551L14092.8495,-3852.2551L14092.8495,-3852.2551L14092.8495,-3852.2551L14092.8495,-3852.2553L14092.8493,-3852.2562L14092.8439,-3852.2919L14092.8439,-3852.292L14092.8439,-3852.292L14092.8419,-3852.3081L14092.8418,-3852.3088L14092.8418,-3852.3089L14092.8418,-3852.3091L14092.8418,-3852.3091L14092.8418,-3852.3091L14092.8418,-3852.3091L14092.8418,-3852.3091L14092.8418,-3852.3092L14092.8418,-3852.3092L14092.8417,-3852.3092L14092.8417,-3852.3093L14092.8372,-3852.3458L14092.8362,-3852.3544L14092.8362,-3852.3544L14092.8362,-3852.3544L14092.8362,-3852.3544L14092.8362,-3852.3545L14092.836,-3852.356"/>
<path content="1,岩手県交通（株）,アーバン号,3.2,4.0,4.0," xlink:title="1" d="M14092.8799,-3852.0813L14092.8798,-3852.0819L14092.8787,-3852.0867L14092.8776,-3852.0917L14092.8773,-3852.093L14092.874,-3852.109L14092.874,-3852.1092L14092.8739,-3852.1094L14092.8739,-3852.1097L14092.8738,-3852.1099L14092.8738,-3852.11L14092.8738,-3852.11L14092.8738,-3852.11L14092.8737,-3852.1109L14092.8734,-3852.1122L14092.873,-3852.1142L14092.8727,-3852.1154L14092.8727,-3852.1154L14092.8651,-3852.1535L14092.8647,-3852.1553L14092.8647,-3852.1553L14092.8647,-3852.1553L14092.8647,-3852.1553L14092.8497,-3852.2538L14092.8495,-3852.2549L14092.8495,-3852.255L14092.8495,-3852.2551L14092.8495,-3852.2551L14092.8495,-3852.2551L14092.8495,-3852.2551L14092.8495,-3852.2553L14092.8493,-3852.2562L14092.8439,-3852.2919L14092.8439,-3852.292L14092.8439,-3852.292L14092.8419,-3852.3081L14092.8418,-3852.3088L14092.8418,-3852.3089L14092.8418,-3852.3091L14092.8418,-3852.3091L14092.8418,-3852.3091L14092.8418,-3852.3091L14092.8418,-3852.3091L14092.8418,-3852.3092L14092.8418,-3852.3092L14092.8417,-3852.3092L14092.8417,-3852.3093L14092.8372,-3852.3458L14092.8362,-3852.3544L14092.8362,-3852.3544L14092.8362,-3852.3544L14092.8362,-3852.3544L14092.8362,-3852.3545L14092.836,-3852.356"/>
<path content="1,岩手県交通（株）,イーハトーブ号,1.0,1.0,1.0," xlink:title="1" d="M14092.8798,-3852.0813L14092.8772,-3852.093L14092.8727,-3852.1154L14092.8727,-3852.1154L14092.8727,-3852.1154L14092.8647,-3852.1552L14092.8497,-3852.2538L14092.8495,-3852.2549L14092.8495,-3852.255L14092.8495,-3852.2551L14092.8495,-3852.2551L14092.8495,-3852.2551L14092.8495,-3852.2551L14092.8495,-3852.2553L14092.8493,-3852.2562L14092.8439,-3852.2919L14092.8419,-3852.3081L14092.8418,-3852.3088L14092.8418,-3852.3089L14092.8418,-3852.3091L14092.8418,-3852.3091L14092.8418,-3852.3091L14092.8418,-3852.3091L14092.8418,-3852.3091L14092.8418,-3852.3092L14092.8418,-3852.3092L14092.8417,-3852.3092L14092.8417,-3852.3093L14092.8372,-3852.3458L14092.8362,-3852.3544L14092.8362,-3852.3544L14092.836,-3852.356"/>
<path content="1,岩手県交通（株）,ドリーム盛岡（らくちん）号,2.3,3.0,3.0," xlink:title="1" d="M14092.8798,-3852.0813L14092.8772,-3852.093L14092.8727,-3852.1154L14092.8727,-3852.1154L14092.8727,-3852.1154L14092.8647,-3852.1552L14092.8497,-3852.2538L14092.8495,-3852.2549L14092.8495,-3852.255L14092.8495,-3852.2551L14092.8495,-3852.2551L14092.8495,-3852.2551L14092.8495,-3852.2551L14092.8495,-3852.2553L14092.8493,-3852.2562L14092.8439,-3852.2919L14092.8419,-3852.3081L14092.8418,-3852.3088L14092.8418,-3852.3089L14092.8418,-3852.3091L14092.8418,-3852.3091L14092.8418,-3852.3091L14092.8418,-3852.3091L14092.8418,-3852.3091L14092.8418,-3852.3092L14092.8418,-3852.3092L14092.8417,-3852.3092L14092.8417,-3852.3093L14092.8372,-3852.3458L14092.8362,-3852.3544L14092.8362,-3852.3544L14092.836,-3852.356"/>
<path content="1,岩手県交通（株）,一関・仙台線,0.5,0.5,0.5," xlink:title="1" d="M14092.836,-3852.356L14092.8362,-3852.3545L14092.8362,-3852.3544L14092.8362,-3852.3544L14092.8362,-3852.3544L14092.8362,-3852.3544L14092.8372,-3852.3458L14092.8417,-3852.3093L14092.8417,-3852.3092L14092.8418,-3852.3092L14092.8418,-3852.3092L14092.8418,-3852.3091L14092.8418,-3852.3091L14092.8418,-3852.3091L14092.8418,-3852.3091L14092.8418,-3852.3091L14092.8418,-3852.3089L14092.8418,-3852.3088L14092.8419,-3852.3081L14092.8439,-3852.292L14092.8439,-3852.292L14092.8439,-3852.2919L14092.8493,-3852.2562L14092.8495,-3852.2553L14092.8495,-3852.2551L14092.8495,-3852.2551L14092.8495,-3852.2551L14092.8495,-3852.2551L14092.8495,-3852.255L14092.8495,-3852.2549L14092.8497,-3852.2538L14092.8647,-3852.1553L14092.8647,-3852.1553L14092.8647,-3852.1553L14092.8647,-3852.1553L14092.8651,-3852.1535L14092.8727,-3852.1154L14092.8727,-3852.1154L14092.873,-3852.1142L14092.8734,-3852.1122L14092.8737,-3852.1109L14092.8738,-3852.11L14092.8738,-3852.11L14092.8738,-3852.11L14092.8738,-3852.1099L14092.8739,-3852.1097L14092.8739,-3852.1094L14092.874,-3852.1092L14092.874,-3852.109L14092.8773,-3852.093L14092.8776,-3852.0917L14092.8787,-3852.0867L14092.8798,-3852.0819L14092.8799,-3852.0813"/>
<path content="1,岩手県交通（株）,大船渡・仙台線,2.0,2.0,2.0," xlink:title="1" d="M14092.836,-3852.356L14092.8362,-3852.3545L14092.8362,-3852.3544L14092.8362,-3852.3544L14092.8362,-3852.3544L14092.8362,-3852.3544L14092.8372,-3852.3458L14092.8417,-3852.3093L14092.8417,-3852.3092L14092.8418,-3852.3092L14092.8418,-3852.3092L14092.8418,-3852.3091L14092.8418,-3852.3091L14092.8418,-3852.3091L14092.8418,-3852.3091L14092.8418,-3852.3091L14092.8418,-3852.3089L14092.8418,-3852.3088L14092.8419,-3852.3081L14092.8439,-3852.292L14092.8439,-3852.292L14092.8439,-3852.2919L14092.8493,-3852.2562L14092.8495,-3852.2553L14092.8495,-3852.2551L14092.8495,-3852.2551L14092.8495,-3852.2551L14092.8495,-3852.2551L14092.8495,-3852.255L14092.8495,-3852.2549L14092.8497,-3852.2538L14092.8647,-3852.1553L14092.8647,-3852.1553L14092.8647,-3852.1553L14092.8647,-3852.1553L14092.8651,-3852.1535L14092.8727,-3852.1154L14092.8727,-3852.1154L14092.873,-3852.1142L14092.8734,-3852.1122L14092.8737,-3852.1109L14092.8738,-3852.11L14092.8738,-3852.11L14092.8738,-3852.11L14092.8738,-3852.1099L14092.8739,-3852.1097L14092.8739,-3852.1094L14092.874,-3852.1092L14092.874,-3852.109L14092.8773,-3852.093L14092.8776,-3852.0917L14092.8787,-3852.0867L14092.8798,-3852.0819L14092.8799,-3852.0813"/>
<path content="1,岩手県交通（株）,平泉中尊寺号,0.5,0.5,0.5," xlink:title="1" d="M14092.8799,-3852.0813L14092.8798,-3852.0819L14092.8787,-3852.0867L14092.8776,-3852.0917L14092.8773,-3852.093L14092.874,-3852.109L14092.874,-3852.1092L14092.8739,-3852.1094L14092.8739,-3852.1097L14092.8738,-3852.1099L14092.8738,-3852.11L14092.8738,-3852.11L14092.8738,-3852.11L14092.8737,-3852.1109L14092.8734,-3852.1122L14092.873,-3852.1142L14092.8727,-3852.1154L14092.8727,-3852.1154L14092.8651,-3852.1535L14092.8647,-3852.1553L14092.8647,-3852.1553L14092.8647,-3852.1553L14092.8647,-3852.1553L14092.8497,-3852.2538L14092.8495,-3852.2549L14092.8495,-3852.255L14092.8495,-3852.2551L14092.8495,-3852.2551L14092.8495,-3852.2551L14092.8495,-3852.2551L14092.8495,-3852.2553L14092.8493,-3852.2562L14092.8439,-3852.2919L14092.8439,-3852.292L14092.8439,-3852.292L14092.8419,-3852.3081L14092.8418,-3852.3088L14092.8418,-3852.3089L14092.8418,-3852.3091L14092.8418,-3852.3091L14092.8418,-3852.3091L14092.8418,-3852.3091L14092.8418,-3852.3091L14092.8418,-3852.3092L14092.8418,-3852.3092L14092.8417,-3852.3092L14092.8417,-3852.3093L14092.8372,-3852.3458L14092.8362,-3852.3544L14092.8362,-3852.3544L14092.8362,-3852.3544L14092.8362,-3852.3544L14092.8362,-3852.3545L14092.836,-3852.356"/>
<path content="1,岩手県交通（株）,江刺・仙台線,2.0,2.0,2.0," xlink:title="1" d="M14092.8799,-3852.0813L14092.8798,-3852.0819L14092.8787,-3852.0867L14092.8776,-3852.0917L14092.8773,-3852.093L14092.874,-3852.109L14092.874,-3852.1092L14092.8739,-3852.1094L14092.8739,-3852.1097L14092.8738,-3852.1099L14092.8738,-3852.11L14092.8738,-3852.11L14092.8738,-3852.11L14092.8737,-3852.1109L14092.8734,-3852.1122L14092.873,-3852.1142L14092.8727,-3852.1154L14092.8727,-3852.1154L14092.8651,-3852.1535L14092.8647,-3852.1553L14092.8647,-3852.1553L14092.8647,-3852.1553L14092.8647,-3852.1553L14092.8497,-3852.2538L14092.8495,-3852.2549L14092.8495,-3852.255L14092.8495,-3852.2551L14092.8495,-3852.2551L14092.8495,-3852.2551L14092.8495,-3852.2551L14092.8495,-3852.2553L14092.8493,-3852.2562L14092.8439,-3852.2919L14092.8439,-3852.292L14092.8439,-3852.292L14092.8419,-3852.3081L14092.8418,-3852.3088L14092.8418,-3852.3089L14092.8418,-3852.3091L14092.8418,-3852.3091L14092.8418,-3852.3091L14092.8418,-3852.3091L14092.8418,-3852.3091L14092.8418,-3852.3092L14092.8418,-3852.3092L14092.8417,-3852.3092L14092.8417,-3852.3093L14092.8372,-3852.3458L14092.8362,-3852.3544L14092.8362,-3852.3544L14092.8362,-3852.3544L14092.8362,-3852.3544L14092.8362,-3852.3545L14092.836,-3852.356"/>
<path content="1,岩手県交通（株）,盛岡・横浜線,1.0,1.0,1.0," xlink:title="1" d="M14092.8798,-3852.0813L14092.8772,-3852.093L14092.8727,-3852.1154L14092.8727,-3852.1154L14092.8727,-3852.1154L14092.8647,-3852.1552L14092.8497,-3852.2538L14092.8495,-3852.2549L14092.8495,-3852.255L14092.8495,-3852.2551L14092.8495,-3852.2551L14092.8495,-3852.2551L14092.8495,-3852.2551L14092.8495,-3852.2553L14092.8493,-3852.2562L14092.8439,-3852.2919L14092.8419,-3852.3081L14092.8418,-3852.3088L14092.8418,-3852.3089L14092.8418,-3852.3091L14092.8418,-3852.3091L14092.8418,-3852.3091L14092.8418,-3852.3091L14092.8418,-3852.3091L14092.8418,-3852.3092L14092.8418,-3852.3092L14092.8417,-3852.3092L14092.8417,-3852.3093L14092.8372,-3852.3458L14092.8362,-3852.3544L14092.8362,-3852.3544L14092.836,-3852.356"/>
<path content="1,岩手県交通（株）,遠野・釜石号,1.0,1.0,1.0," xlink:title="1" d="M14092.8798,-3852.0813L14092.8772,-3852.093L14092.8727,-3852.1154L14092.8727,-3852.1154L14092.8727,-3852.1154L14092.8647,-3852.1552L14092.8497,-3852.2538L14092.8495,-3852.2549L14092.8495,-3852.255L14092.8495,-3852.2551L14092.8495,-3852.2551L14092.8495,-3852.2551L14092.8495,-3852.2551L14092.8495,-3852.2553L14092.8493,-3852.2562L14092.8439,-3852.2919L14092.8419,-3852.3081L14092.8418,-3852.3088L14092.8418,-3852.3089L14092.8418,-3852.3091L14092.8418,-3852.3091L14092.8418,-3852.3091L14092.8418,-3852.3091L14092.8418,-3852.3091L14092.8418,-3852.3092L14092.8418,-3852.3092L14092.8417,-3852.3092L14092.8417,-3852.3093L14092.8372,-3852.3458L14092.8362,-3852.3544L14092.8362,-3852.3544L14092.836,-3852.356"/>
<path content="1,岩手県交通（株）,釜石・仙台線,1.0,1.0,1.0," xlink:title="1" d="M14092.836,-3852.356L14092.8362,-3852.3545L14092.8362,-3852.3544L14092.8362,-3852.3544L14092.8362,-3852.3544L14092.8362,-3852.3544L14092.8372,-3852.3458L14092.8417,-3852.3093L14092.8417,-3852.3092L14092.8418,-3852.3092L14092.8418,-3852.3092L14092.8418,-3852.3091L14092.8418,-3852.3091L14092.8418,-3852.3091L14092.8418,-3852.3091L14092.8418,-3852.3091L14092.8418,-3852.3089L14092.8418,-3852.3088L14092.8419,-3852.3081L14092.8439,-3852.292L14092.8439,-3852.292L14092.8439,-3852.2919L14092.8493,-3852.2562L14092.8495,-3852.2553L14092.8495,-3852.2551L14092.8495,-3852.2551L14092.8495,-3852.2551L14092.8495,-3852.2551L14092.8495,-3852.255L14092.8495,-3852.2549L14092.8497,-3852.2538L14092.8647,-3852.1553L14092.8647,-3852.1553L14092.8647,-3852.1553L14092.8647,-3852.1553L14092.8651,-3852.1535L14092.8727,-3852.1154L14092.8727,-3852.1154L14092.873,-3852.1142L14092.8734,-3852.1122L14092.8737,-3852.1109L14092.8738,-3852.11L14092.8738,-3852.11L14092.8738,-3852.11L14092.8738,-3852.1099L14092.8739,-3852.1097L14092.8739,-3852.1094L14092.874,-3852.1092L14092.874,-3852.109L14092.8773,-3852.093L14092.8776,-3852.0917L14092.8787,-3852.0867L14092.8798,-3852.0819L14092.8799,-3852.0813"/>
<path content="1,岩手県北自動車（株）,BEAM-1　宮古・盛岡南⇔浜松町・品川,1.0,1.0,1.0," xlink:title="1" d="M14092.8798,-3852.0813L14092.8772,-3852.093L14092.8727,-3852.1154L14092.8727,-3852.1154L14092.8727,-3852.1154L14092.8647,-3852.1552L14092.8497,-3852.2538L14092.8495,-3852.2549L14092.8495,-3852.255L14092.8495,-3852.2551L14092.8495,-3852.2551L14092.8495,-3852.2551L14092.8495,-3852.2551L14092.8495,-3852.2553L14092.8493,-3852.2562L14092.8439,-3852.2919L14092.8419,-3852.3081L14092.8418,-3852.3088L14092.8418,-3852.3089L14092.8418,-3852.3091L14092.8418,-3852.3091L14092.8418,-3852.3091L14092.8418,-3852.3091L14092.8418,-3852.3091L14092.8418,-3852.3092L14092.8418,-3852.3092L14092.8417,-3852.3092L14092.8417,-3852.3093L14092.8372,-3852.3458L14092.8362,-3852.3544L14092.8362,-3852.3544L14092.836,-3852.356"/>
<path content="1,岩手県北自動車（株）,アーバン号　盛岡⇔仙台,3.2,4.0,4.0," xlink:title="1" d="M14092.8799,-3852.0813L14092.8798,-3852.0819L14092.8787,-3852.0867L14092.8776,-3852.0917L14092.8773,-3852.093L14092.874,-3852.109L14092.874,-3852.1092L14092.8739,-3852.1094L14092.8739,-3852.1097L14092.8738,-3852.1099L14092.8738,-3852.11L14092.8738,-3852.11L14092.8738,-3852.11L14092.8737,-3852.1109L14092.8734,-3852.1122L14092.873,-3852.1142L14092.8727,-3852.1154L14092.8727,-3852.1154L14092.8651,-3852.1535L14092.8647,-3852.1553L14092.8647,-3852.1553L14092.8647,-3852.1553L14092.8647,-3852.1553L14092.8497,-3852.2538L14092.8495,-3852.2549L14092.8495,-3852.255L14092.8495,-3852.2551L14092.8495,-3852.2551L14092.8495,-3852.2551L14092.8495,-3852.2551L14092.8495,-3852.2553L14092.8493,-3852.2562L14092.8439,-3852.2919L14092.8439,-3852.292L14092.8439,-3852.292L14092.8419,-3852.3081L14092.8418,-3852.3088L14092.8418,-3852.3089L14092.8418,-3852.3091L14092.8418,-3852.3091L14092.8418,-3852.3091L14092.8418,-3852.3091L14092.8418,-3852.3091L14092.8418,-3852.3092L14092.8418,-3852.3092L14092.8417,-3852.3092L14092.8417,-3852.3093L14092.8372,-3852.3458L14092.8362,-3852.3544L14092.8362,-3852.3544L14092.8362,-3852.3544L14092.8362,-3852.3544L14092.8362,-3852.3545L14092.836,-3852.356"/>
<path content="1,弘南バス（株）,アップル号,1.0,1.0,1.0," xlink:title="1" d="M14092.836,-3852.356L14092.8362,-3852.3544L14092.8362,-3852.3544L14092.8372,-3852.3458L14092.8417,-3852.3093L14092.8417,-3852.3092L14092.8418,-3852.3092L14092.8418,-3852.3092L14092.8418,-3852.3091L14092.8418,-3852.3091L14092.8418,-3852.3091L14092.8418,-3852.3091L14092.8418,-3852.3091L14092.8418,-3852.3089L14092.8418,-3852.3088L14092.8419,-3852.3081L14092.8439,-3852.2919L14092.8493,-3852.2562L14092.8495,-3852.2553L14092.8495,-3852.2551L14092.8495,-3852.2551L14092.8495,-3852.2551L14092.8495,-3852.2551L14092.8495,-3852.255L14092.8495,-3852.2549L14092.8497,-3852.2538L14092.8647,-3852.1552L14092.8727,-3852.1154L14092.8727,-3852.1154L14092.8727,-3852.1154L14092.8772,-3852.093L14092.8798,-3852.0813"/>
<path content="1,弘南バス（株）,キャッスル号,6.0,6.0,6.0," xlink:title="1" d="M14092.836,-3852.356L14092.8362,-3852.3545L14092.8362,-3852.3544L14092.8362,-3852.3544L14092.8362,-3852.3544L14092.8362,-3852.3544L14092.8372,-3852.3458L14092.8417,-3852.3093L14092.8417,-3852.3092L14092.8418,-3852.3092L14092.8418,-3852.3092L14092.8418,-3852.3091L14092.8418,-3852.3091L14092.8418,-3852.3091L14092.8418,-3852.3091L14092.8418,-3852.3091L14092.8418,-3852.3089L14092.8418,-3852.3088L14092.8419,-3852.3081L14092.8439,-3852.292L14092.8439,-3852.292L14092.8439,-3852.2919L14092.8493,-3852.2562L14092.8495,-3852.2553L14092.8495,-3852.2551L14092.8495,-3852.2551L14092.8495,-3852.2551L14092.8495,-3852.2551L14092.8495,-3852.255L14092.8495,-3852.2549L14092.8497,-3852.2538L14092.8647,-3852.1553L14092.8647,-3852.1553L14092.8647,-3852.1553L14092.8651,-3852.1535L14092.8727,-3852.1154L14092.8727,-3852.1154L14092.8727,-3852.1154L14092.8772,-3852.093L14092.8798,-3852.0813"/>
<path content="1,弘南バス（株）,スカイ号,1.0,1.0,1.0," xlink:title="1" d="M14092.836,-3852.356L14092.8362,-3852.3544L14092.8362,-3852.3544L14092.8372,-3852.3458L14092.8417,-3852.3093L14092.8417,-3852.3092L14092.8418,-3852.3092L14092.8418,-3852.3092L14092.8418,-3852.3091L14092.8418,-3852.3091L14092.8418,-3852.3091L14092.8418,-3852.3091L14092.8418,-3852.3091L14092.8418,-3852.3089L14092.8418,-3852.3088L14092.8419,-3852.3081L14092.8439,-3852.2919L14092.8493,-3852.2562L14092.8495,-3852.2553L14092.8495,-3852.2551L14092.8495,-3852.2551L14092.8495,-3852.2551L14092.8495,-3852.2551L14092.8495,-3852.255L14092.8495,-3852.2549L14092.8497,-3852.2538L14092.8647,-3852.1552L14092.8727,-3852.1154L14092.8727,-3852.1154L14092.8727,-3852.1154L14092.8772,-3852.093L14092.8798,-3852.0813"/>
<path content="1,弘南バス（株）,ノクターン号,1.0,1.0,1.0," xlink:title="1" d="M14092.836,-3852.356L14092.8362,-3852.3544L14092.8362,-3852.3544L14092.8372,-3852.3458L14092.8417,-3852.3093L14092.8417,-3852.3092L14092.8418,-3852.3092L14092.8418,-3852.3092L14092.8418,-3852.3091L14092.8418,-3852.3091L14092.8418,-3852.3091L14092.8418,-3852.3091L14092.8418,-3852.3091L14092.8418,-3852.3089L14092.8418,-3852.3088L14092.8419,-3852.3081L14092.8439,-3852.2919L14092.8493,-3852.2562L14092.8495,-3852.2553L14092.8495,-3852.2551L14092.8495,-3852.2551L14092.8495,-3852.2551L14092.8495,-3852.2551L14092.8495,-3852.255L14092.8495,-3852.2549L14092.8497,-3852.2538L14092.8647,-3852.1552L14092.8727,-3852.1154L14092.8727,-3852.1154L14092.8727,-3852.1154L14092.8772,-3852.093L14092.8798,-3852.0813"/>
<path content="1,弘南バス（株）,パンダ号,3.0,3.0,3.0," xlink:title="1" d="M14092.836,-3852.356L14092.8362,-3852.3544L14092.8362,-3852.3544L14092.8372,-3852.3458L14092.8417,-3852.3093L14092.8417,-3852.3092L14092.8418,-3852.3092L14092.8418,-3852.3092L14092.8418,-3852.3091L14092.8418,-3852.3091L14092.8418,-3852.3091L14092.8418,-3852.3091L14092.8418,-3852.3091L14092.8418,-3852.3089L14092.8418,-3852.3088L14092.8419,-3852.3081L14092.8439,-3852.2919L14092.8493,-3852.2562L14092.8495,-3852.2553L14092.8495,-3852.2551L14092.8495,-3852.2551L14092.8495,-3852.2551L14092.8495,-3852.2551L14092.8495,-3852.255L14092.8495,-3852.2549L14092.8497,-3852.2538L14092.8647,-3852.1552L14092.8727,-3852.1154L14092.8727,-3852.1154L14092.8727,-3852.1154L14092.8772,-3852.093L14092.8798,-3852.0813"/>
<path content="1,弘南バス（株）,ブルーシティー号,4.0,4.0,4.0," xlink:title="1" d="M14092.836,-3852.356L14092.8362,-3852.3545L14092.8362,-3852.3544L14092.8362,-3852.3544L14092.8362,-3852.3544L14092.8362,-3852.3544L14092.8372,-3852.3458L14092.8417,-3852.3093L14092.8417,-3852.3092L14092.8418,-3852.3092L14092.8418,-3852.3092L14092.8418,-3852.3091L14092.8418,-3852.3091L14092.8418,-3852.3091L14092.8418,-3852.3091L14092.8418,-3852.3091L14092.8418,-3852.3089L14092.8418,-3852.3088L14092.8419,-3852.3081L14092.8439,-3852.292L14092.8439,-3852.292L14092.8439,-3852.2919L14092.8493,-3852.2562L14092.8495,-3852.2553L14092.8495,-3852.2551L14092.8495,-3852.2551L14092.8495,-3852.2551L14092.8495,-3852.2551L14092.8495,-3852.255L14092.8495,-3852.2549L14092.8497,-3852.2538L14092.8647,-3852.1553L14092.8647,-3852.1553L14092.8647,-3852.1553L14092.8647,-3852.1553L14092.8727,-3852.1154L14092.8727,-3852.1154L14092.8727,-3852.1154L14092.8772,-3852.093L14092.8798,-3852.0813"/>
<path content="1,弘南バス（株）,津軽号,1.0,1.0,1.0," xlink:title="1" d="M14092.8798,-3852.0813L14092.8772,-3852.093L14092.8727,-3852.1154L14092.8727,-3852.1154L14092.8727,-3852.1154L14092.8647,-3852.1552L14092.8497,-3852.2538L14092.8495,-3852.2549L14092.8495,-3852.255L14092.8495,-3852.2551L14092.8495,-3852.2551L14092.8495,-3852.2551L14092.8495,-3852.2551L14092.8495,-3852.2553L14092.8493,-3852.2562L14092.8439,-3852.2919L14092.8419,-3852.3081L14092.8418,-3852.3088L14092.8418,-3852.3089L14092.8418,-3852.3091L14092.8418,-3852.3091L14092.8418,-3852.3091L14092.8418,-3852.3091L14092.8418,-3852.3091L14092.8418,-3852.3092L14092.8418,-3852.3092L14092.8417,-3852.3092L14092.8417,-3852.3093L14092.8372,-3852.3458L14092.8362,-3852.3544L14092.8362,-3852.3544L14092.836,-3852.356"/>
<path content="1,東日本急行（株）,一ノ関～仙台線,19.0,19.0,19.0," xlink:title="1" d="M14092.8798,-3852.0813L14092.8772,-3852.093L14092.8727,-3852.1154L14092.8727,-3852.1154L14092.8727,-3852.1154L14092.8647,-3852.1552L14092.8497,-3852.2538L14092.8495,-3852.2549L14092.8495,-3852.255L14092.8495,-3852.2551L14092.8495,-3852.2551L14092.8495,-3852.2551L14092.8495,-3852.2551L14092.8495,-3852.2553L14092.8493,-3852.2562L14092.8439,-3852.2919L14092.8419,-3852.3081L14092.8418,-3852.3088L14092.8418,-3852.3089L14092.8418,-3852.3091L14092.8418,-3852.3091L14092.8418,-3852.3091L14092.8418,-3852.3091L14092.8418,-3852.3091L14092.8418,-3852.3092L14092.8418,-3852.3092L14092.8417,-3852.3092L14092.8417,-3852.3093L14092.8372,-3852.3458L14092.8362,-3852.3544L14092.8362,-3852.3544L14092.836,-3852.356"/>
<path content="1,東日本急行（株）,仙台～盛岡線,16.0,20.0,20.0," xlink:title="1" d="M14092.836,-3852.356L14092.8362,-3852.3544L14092.8362,-3852.3544L14092.8372,-3852.3458L14092.8417,-3852.3093L14092.8417,-3852.3092L14092.8418,-3852.3092L14092.8418,-3852.3092L14092.8418,-3852.3091L14092.8418,-3852.3091L14092.8418,-3852.3091L14092.8418,-3852.3091L14092.8418,-3852.3091L14092.8418,-3852.3089L14092.8418,-3852.3088L14092.8419,-3852.3081L14092.8439,-3852.2919L14092.8493,-3852.2562L14092.8495,-3852.2553L14092.8495,-3852.2551L14092.8495,-3852.2551L14092.8495,-3852.2551L14092.8495,-3852.2551L14092.8495,-3852.255L14092.8495,-3852.2549L14092.8497,-3852.2538L14092.8647,-3852.1552L14092.8727,-3852.1154L14092.8727,-3852.1154L14092.8727,-3852.1154L14092.8772,-3852.093L14092.8798,-3852.0813"/>
<path content="1,東日本急行（株）,佐野・平泉駅前・中尊寺～仙台線,1.1,1.1,1.1," xlink:title="1" d="M14092.8798,-3852.0813L14092.8772,-3852.093L14092.8727,-3852.1154L14092.8727,-3852.1154L14092.8727,-3852.1154L14092.8647,-3852.1552L14092.8497,-3852.2538L14092.8495,-3852.2549L14092.8495,-3852.255L14092.8495,-3852.2551L14092.8495,-3852.2551L14092.8495,-3852.2551L14092.8495,-3852.2551L14092.8495,-3852.2553L14092.8493,-3852.2562L14092.8439,-3852.2919L14092.8419,-3852.3081L14092.8418,-3852.3088L14092.8418,-3852.3089L14092.8418,-3852.3091L14092.8418,-3852.3091L14092.8418,-3852.3091L14092.8418,-3852.3091L14092.8418,-3852.3091L14092.8418,-3852.3092L14092.8418,-3852.3092L14092.8417,-3852.3092L14092.8417,-3852.3093L14092.8372,-3852.3458L14092.8362,-3852.3544L14092.8362,-3852.3544L14092.836,-3852.356"/>
<path content="1,東日本急行（株）,登米（迫）～若柳～仙台線,8.0,8.0,8.0," xlink:title="1" d="M14092.8799,-3852.0813L14092.8798,-3852.0819L14092.8787,-3852.0867L14092.8776,-3852.0917L14092.8773,-3852.093L14092.874,-3852.109L14092.874,-3852.1092L14092.8739,-3852.1094L14092.8739,-3852.1097L14092.8738,-3852.1099L14092.8738,-3852.11L14092.8738,-3852.11L14092.8738,-3852.11L14092.8737,-3852.1109L14092.8734,-3852.1122L14092.873,-3852.1142L14092.8727,-3852.1154L14092.8727,-3852.1154L14092.8651,-3852.1535L14092.8647,-3852.1553L14092.8647,-3852.1553L14092.8647,-3852.1553L14092.8647,-3852.1553L14092.8497,-3852.2538L14092.8495,-3852.2549L14092.8495,-3852.255L14092.8495,-3852.2551L14092.8495,-3852.2551L14092.8495,-3852.2551L14092.8495,-3852.2551L14092.8495,-3852.2553L14092.8493,-3852.2562L14092.8439,-3852.2919L14092.8439,-3852.292L14092.8439,-3852.292L14092.8419,-3852.3081L14092.8418,-3852.3088L14092.8418,-3852.3089L14092.8418,-3852.3091L14092.8418,-3852.3091L14092.8418,-3852.3091L14092.8418,-3852.3091L14092.8418,-3852.3091L14092.8418,-3852.3092L14092.8418,-3852.3092L14092.8417,-3852.3092L14092.8417,-3852.3093L14092.8372,-3852.3458L14092.8362,-3852.3544L14092.8362,-3852.3544L14092.8362,-3852.3544L14092.8362,-3852.3544L14092.8362,-3852.3545L14092.836,-3852.356"/>
<path content="1,東日本急行（株）,金成庁舎前・くりこま高原駅前・一迫総合支所前～築館～仙台線,15.0,15.0,15.0," xlink:title="1" d="M14092.836,-3852.356L14092.8362,-3852.3545L14092.8362,-3852.3544L14092.8362,-3852.3544L14092.8362,-3852.3544L14092.8362,-3852.3544L14092.8372,-3852.3458L14092.8417,-3852.3093L14092.8417,-3852.3092L14092.8418,-3852.3092L14092.8418,-3852.3092L14092.8418,-3852.3091L14092.8418,-3852.3091L14092.8418,-3852.3091L14092.8418,-3852.3091L14092.8418,-3852.3091L14092.8418,-3852.3089L14092.8418,-3852.3088L14092.8419,-3852.3081L14092.8439,-3852.292L14092.8439,-3852.292L14092.8439,-3852.2919L14092.8493,-3852.2562L14092.8495,-3852.2553L14092.8495,-3852.2551L14092.8495,-3852.2551L14092.8495,-3852.2551L14092.8495,-3852.2551L14092.8495,-3852.255L14092.8495,-3852.2549L14092.8497,-3852.2538L14092.8647,-3852.1553L14092.8647,-3852.1553L14092.8647,-3852.1553L14092.8727,-3852.1154L14092.8727,-3852.1154L14092.873,-3852.1142L14092.8734,-3852.1122L14092.8737,-3852.1109L14092.8738,-3852.11L14092.8738,-3852.11L14092.8738,-3852.11L14092.8738,-3852.1099L14092.8739,-3852.1097L14092.8739,-3852.1094L14092.874,-3852.1092L14092.874,-3852.109L14092.8773,-3852.093L14092.8776,-3852.0917L14092.8787,-3852.0867L14092.8798,-3852.0819L14092.8799,-3852.0813"/>
<path content="1,江ノ電バス藤沢,レイク＆ポート号,1.0,1.0,1.0," xlink:title="1" d="M14092.8798,-3852.0813L14092.8772,-3852.093L14092.8727,-3852.1154L14092.8727,-3852.1154L14092.8727,-3852.1154L14092.8647,-3852.1552L14092.8497,-3852.2538L14092.8495,-3852.2549L14092.8495,-3852.255L14092.8495,-3852.2551L14092.8495,-3852.2551L14092.8495,-3852.2551L14092.8495,-3852.2551L14092.8495,-3852.2553L14092.8493,-3852.2562L14092.8439,-3852.2919L14092.8419,-3852.3081L14092.8418,-3852.3088L14092.8418,-3852.3089L14092.8418,-3852.3091L14092.8418,-3852.3091L14092.8418,-3852.3091L14092.8418,-3852.3091L14092.8418,-3852.3091L14092.8418,-3852.3092L14092.8418,-3852.3092L14092.8417,-3852.3092L14092.8417,-3852.3093L14092.8372,-3852.3458L14092.8362,-3852.3544L14092.8362,-3852.3544L14092.836,-3852.356"/>
<path content="1,秋北バス（株）,ジュピター号,1.0,1.0,1.0," xlink:title="1" d="M14092.8798,-3852.0813L14092.8772,-3852.093L14092.8727,-3852.1154L14092.8727,-3852.1154L14092.8727,-3852.1154L14092.8647,-3852.1552L14092.8497,-3852.2538L14092.8495,-3852.2549L14092.8495,-3852.255L14092.8495,-3852.2551L14092.8495,-3852.2551L14092.8495,-3852.2551L14092.8495,-3852.2551L14092.8495,-3852.2553L14092.8493,-3852.2562L14092.8439,-3852.2919L14092.8419,-3852.3081L14092.8418,-3852.3088L14092.8418,-3852.3089L14092.8418,-3852.3091L14092.8418,-3852.3091L14092.8418,-3852.3091L14092.8418,-3852.3091L14092.8418,-3852.3091L14092.8418,-3852.3092L14092.8418,-3852.3092L14092.8417,-3852.3092L14092.8417,-3852.3093L14092.8372,-3852.3458L14092.8362,-3852.3544L14092.8362,-3852.3544L14092.836,-3852.356"/>
<path content="1,秋北バス（株）,二ツ井・能代～仙台線,1.0,1.0,1.0," xlink:title="1" d="M14092.8798,-3852.0813L14092.8772,-3852.093L14092.8727,-3852.1154L14092.8727,-3852.1154L14092.8727,-3852.1154L14092.8647,-3852.1552L14092.8497,-3852.2538L14092.8495,-3852.2549L14092.8495,-3852.255L14092.8495,-3852.2551L14092.8495,-3852.2551L14092.8495,-3852.2551L14092.8495,-3852.2551L14092.8495,-3852.2553L14092.8493,-3852.2562L14092.8439,-3852.2919L14092.8419,-3852.3081L14092.8418,-3852.3088L14092.8418,-3852.3089L14092.8418,-3852.3091L14092.8418,-3852.3091L14092.8418,-3852.3091L14092.8418,-3852.3091L14092.8418,-3852.3091L14092.8418,-3852.3092L14092.8418,-3852.3092L14092.8417,-3852.3092L14092.8417,-3852.3093L14092.8372,-3852.3458L14092.8362,-3852.3544L14092.8362,-3852.3544L14092.836,-3852.356"/>
<path content="1,秋北バス（株）,大館・鹿角～仙台線,3.0,3.0,3.0," xlink:title="1" d="M14092.8798,-3852.0813L14092.8772,-3852.093L14092.8727,-3852.1154L14092.8727,-3852.1154L14092.8727,-3852.1154L14092.8647,-3852.1552L14092.8497,-3852.2538L14092.8495,-3852.2549L14092.8495,-3852.255L14092.8495,-3852.2551L14092.8495,-3852.2551L14092.8495,-3852.2551L14092.8495,-3852.2551L14092.8495,-3852.2553L14092.8493,-3852.2562L14092.8439,-3852.2919L14092.8419,-3852.3081L14092.8418,-3852.3088L14092.8418,-3852.3089L14092.8418,-3852.3091L14092.8418,-3852.3091L14092.8418,-3852.3091L14092.8418,-3852.3091L14092.8418,-3852.3091L14092.8418,-3852.3092L14092.8418,-3852.3092L14092.8417,-3852.3092L14092.8417,-3852.3093L14092.8372,-3852.3458L14092.8362,-3852.3544L14092.8362,-3852.3544L14092.836,-3852.356"/>
<path content="1,秋田中央交通（株）,フローラ号,1.0,1.0,1.0," xlink:title="1" d="M14092.836,-3852.356L14092.8362,-3852.3544L14092.8362,-3852.3544L14092.8372,-3852.3458L14092.8417,-3852.3093L14092.8417,-3852.3092L14092.8418,-3852.3092L14092.8418,-3852.3092L14092.8418,-3852.3091L14092.8418,-3852.3091L14092.8418,-3852.3091L14092.8418,-3852.3091L14092.8418,-3852.3091L14092.8418,-3852.3089L14092.8418,-3852.3088L14092.8419,-3852.3081L14092.8439,-3852.2919L14092.8493,-3852.2562L14092.8495,-3852.2553L14092.8495,-3852.2551L14092.8495,-3852.2551L14092.8495,-3852.2551L14092.8495,-3852.2551L14092.8495,-3852.255L14092.8495,-3852.2549L14092.8497,-3852.2538L14092.8647,-3852.1552L14092.8727,-3852.1154L14092.8727,-3852.1154L14092.8727,-3852.1154L14092.8772,-3852.093L14092.8798,-3852.0813"/>
<path content="1,秋田中央交通（株）,仙秋号,4.0,4.0,4.0," xlink:title="1" d="M14092.836,-3852.356L14092.8362,-3852.3544L14092.8362,-3852.3544L14092.8372,-3852.3458L14092.8417,-3852.3093L14092.8417,-3852.3092L14092.8418,-3852.3092L14092.8418,-3852.3092L14092.8418,-3852.3091L14092.8418,-3852.3091L14092.8418,-3852.3091L14092.8418,-3852.3091L14092.8418,-3852.3091L14092.8418,-3852.3089L14092.8418,-3852.3088L14092.8419,-3852.3081L14092.8439,-3852.2919L14092.8493,-3852.2562L14092.8495,-3852.2553L14092.8495,-3852.2551L14092.8495,-3852.2551L14092.8495,-3852.2551L14092.8495,-3852.2551L14092.8495,-3852.255L14092.8495,-3852.2549L14092.8497,-3852.2538L14092.8647,-3852.1552L14092.8727,-3852.1154L14092.8727,-3852.1154L14092.8727,-3852.1154L14092.8772,-3852.093L14092.8798,-3852.0813"/>
<path content="1,羽後交通（株）,グリーンライナー号,4.0,4.0,4.0," xlink:title="1" d="M14092.8798,-3852.0813L14092.8772,-3852.093L14092.8727,-3852.1154L14092.8727,-3852.1154L14092.8727,-3852.1154L14092.8647,-3852.1552L14092.8497,-3852.2538L14092.8495,-3852.2549L14092.8495,-3852.255L14092.8495,-3852.2551L14092.8495,-3852.2551L14092.8495,-3852.2551L14092.8495,-3852.2551L14092.8495,-3852.2553L14092.8493,-3852.2562L14092.8439,-3852.2919L14092.8419,-3852.3081L14092.8418,-3852.3088L14092.8418,-3852.3089L14092.8418,-3852.3091L14092.8418,-3852.3091L14092.8418,-3852.3091L14092.8418,-3852.3091L14092.8418,-3852.3091L14092.8418,-3852.3092L14092.8418,-3852.3092L14092.8417,-3852.3092L14092.8417,-3852.3093L14092.8372,-3852.3458L14092.8362,-3852.3544L14092.8362,-3852.3544L14092.836,-3852.356"/>
<path content="1,羽後交通（株）,レーク＆ポート号,1.0,1.0,1.0," xlink:title="1" d="M14092.836,-3852.356L14092.8362,-3852.3544L14092.8362,-3852.3544L14092.8372,-3852.3458L14092.8417,-3852.3093L14092.8417,-3852.3092L14092.8418,-3852.3092L14092.8418,-3852.3092L14092.8418,-3852.3091L14092.8418,-3852.3091L14092.8418,-3852.3091L14092.8418,-3852.3091L14092.8418,-3852.3091L14092.8418,-3852.3089L14092.8418,-3852.3088L14092.8419,-3852.3081L14092.8439,-3852.2919L14092.8493,-3852.2562L14092.8495,-3852.2553L14092.8495,-3852.2551L14092.8495,-3852.2551L14092.8495,-3852.2551L14092.8495,-3852.2551L14092.8495,-3852.255L14092.8495,-3852.2549L14092.8497,-3852.2538L14092.8647,-3852.1552L14092.8727,-3852.1154L14092.8727,-3852.1154L14092.8727,-3852.1154L14092.8772,-3852.093L14092.8798,-3852.0813"/>
<path content="3,大崎市,三本木線,7.0,4.5,4.5," xlink:title="3" d="M14092.7124,-3852.1371L14092.7133,-3852.137L14092.7295,-3852.1349L14092.7617,-3852.131L14092.7798,-3852.1286L14092.7929,-3852.1268L14092.813,-3852.124L14092.8345,-3852.1214L14092.8727,-3852.1154L14092.8727,-3852.1154L14092.8727,-3852.1154L14092.8727,-3852.1154L14092.8729,-3852.1154L14092.9023,-3852.1107L14092.9218,-3852.1076L14092.9483,-3852.1036L14092.9667,-3852.1008L14092.9871,-3852.0982"/>
</g>
</svg>
