<?xml version="1.0" encoding="UTF-8"?>
<svg  xmlns="http://www.w3.org/2000/svg" xmlns:xlink="http://www.w3.org/1999/xlink" xmlns:go="http://purl.org/svgmap/profile" property="N07_001,N07_002,N07_003,N07_004,N07_005,N07_006,N07_007" viewBox="14110.29052734375 -3894.10400390625 0.54931640625 0.54931640625" go:dataArea="14110.29052734375 -3894.10400390625 0.54931640625 0.54931640625" >
<metadata>
 <rdf:RDF xmlns:rdf="http://www.w3.org/1999/02/22-rdf-syntax-ns#" xmlns:crs="http://opengis.org/xmldtds/transformations.dtd" xmlns:svg="http://www.w3.org/svg" >
  <rdf:Description>
   <crs:CoordinateReferenceSystem rdf:resource="http://purl.org/crs/84" svg:transform="matrix(100.0,0.0,0.0,-100.0,0.0,0.0)" />
  </rdf:Description>
 </rdf:RDF>
</metadata>
<globalCoordinateSystem srsName="http://purl.org/crs/84" transform="matrix(100.0,0.0,0.0,-100.0,0.0,0.0)" />
<defs>
 <g id="p0" >
  <circle cx="0.0" cy="0.0" r="3" stroke="green" stroke-width="0.75" vector-effect="non-scaling-stroke" />
 </g>
</defs>
<g fill="none" fill-rule="evenodd" stroke="#FF00FF" stroke-width="0.75" opacity="0.5" vector-effect="non-scaling-stroke" stroke-linejoin="bevel" >
<path content="1,国際興業（株）,けせんライナー,1.0,1.0,1.0," xlink:title="1" d="M14110.2905,-3893.7343L14110.2939,-3893.7349L14110.3199,-3893.7416L14110.3264,-3893.7444L14110.3437,-3893.7529L14110.3567,-3893.7619L14110.3905,-3893.7906L14110.3966,-3893.7962L14110.4098,-3893.8083L14110.4287,-3893.8261L14110.4367,-3893.834L14110.4617,-3893.8587L14110.4691,-3893.8705L14110.484,-3893.8692L14110.5614,-3893.8613L14110.5798,-3893.8594L14110.5907,-3893.8584L14110.6048,-3893.857L14110.6955,-3893.8479L14110.8359,-3893.8339L14110.8398,-3893.8335"/>
<path content="1,宮城交通（株）,仙台～大船渡線,2.0,2.0,2.0," xlink:title="1" d="M14110.2905,-3893.7343L14110.2939,-3893.7349L14110.3199,-3893.7416L14110.3264,-3893.7444L14110.3437,-3893.7529L14110.3567,-3893.7619L14110.3905,-3893.7906L14110.3966,-3893.7962L14110.4098,-3893.8083L14110.4287,-3893.8261L14110.4367,-3893.834L14110.4617,-3893.8587L14110.4691,-3893.8705L14110.484,-3893.8692L14110.5614,-3893.8613L14110.5798,-3893.8594L14110.5907,-3893.8584L14110.6048,-3893.857L14110.6955,-3893.8479L14110.8359,-3893.8339L14110.8398,-3893.8335"/>
<path content="1,岩手急行バス（株）,一ノ関仙台線,19.0,19.0,19.0," xlink:title="1" d="M14110.2905,-3893.7343L14110.2939,-3893.7349L14110.3199,-3893.7416L14110.3264,-3893.7444L14110.3437,-3893.7529L14110.3567,-3893.7619L14110.3905,-3893.7906L14110.3966,-3893.7962L14110.4098,-3893.8083L14110.4287,-3893.8261L14110.4367,-3893.834L14110.4617,-3893.8587L14110.4691,-3893.8705L14110.484,-3893.8692L14110.5614,-3893.8613L14110.5798,-3893.8594L14110.5907,-3893.8584L14110.6048,-3893.857L14110.6955,-3893.8479L14110.8359,-3893.8339L14110.8398,-3893.8335"/>
<path content="1,岩手県交通（株）,けせんライナー,1.0,1.0,1.0," xlink:title="1" d="M14110.2905,-3893.7343L14110.2939,-3893.7349L14110.3199,-3893.7416L14110.3264,-3893.7444L14110.3437,-3893.7529L14110.3567,-3893.7619L14110.3905,-3893.7906L14110.3966,-3893.7962L14110.4098,-3893.8083L14110.4287,-3893.8261L14110.4367,-3893.834L14110.4617,-3893.8587L14110.4691,-3893.8705L14110.484,-3893.8692L14110.5614,-3893.8613L14110.5798,-3893.8594L14110.5907,-3893.8584L14110.6048,-3893.857L14110.6955,-3893.8479L14110.8359,-3893.8339L14110.8398,-3893.8335"/>
<path content="1,岩手県交通（株）,一関・仙台線,0.5,0.5,0.5," xlink:title="1" d="M14110.8398,-3893.8335L14110.8359,-3893.8339L14110.6955,-3893.8479L14110.6048,-3893.857L14110.5907,-3893.8584L14110.5798,-3893.8594L14110.5614,-3893.8613L14110.484,-3893.8692L14110.4691,-3893.8705L14110.4617,-3893.8587L14110.4367,-3893.834L14110.4287,-3893.8261L14110.4098,-3893.8083L14110.3966,-3893.7962L14110.3905,-3893.7906L14110.3567,-3893.7619L14110.3437,-3893.7529L14110.3264,-3893.7444L14110.3199,-3893.7416L14110.2939,-3893.7349L14110.2905,-3893.7343"/>
<path content="1,岩手県交通（株）,厳美渓・瑞山線　10,12.5,14.0,14.0," xlink:title="1" d="M14110.8398,-3893.8335L14110.8359,-3893.8339L14110.6955,-3893.8479L14110.6048,-3893.857L14110.5907,-3893.8584L14110.5798,-3893.8594L14110.5614,-3893.8613L14110.484,-3893.8692L14110.4691,-3893.8705L14110.4424,-3893.8733L14110.3459,-3893.8832L14110.3333,-3893.8845L14110.3298,-3893.8848L14110.3235,-3893.8856L14110.2919,-3893.8893L14110.2905,-3893.8895"/>
<path content="1,岩手県交通（株）,厳美渓・瑞山線　11,5.5,3.0,3.0," xlink:title="1" d="M14110.8398,-3893.8335L14110.8359,-3893.8339L14110.6955,-3893.8479L14110.6048,-3893.857L14110.5907,-3893.8584L14110.5798,-3893.8594L14110.5614,-3893.8613L14110.484,-3893.8692L14110.4691,-3893.8705L14110.4424,-3893.8733L14110.3459,-3893.8832L14110.3333,-3893.8845L14110.3298,-3893.8848L14110.3235,-3893.8856L14110.2919,-3893.8893L14110.2905,-3893.8895"/>
<path content="1,岩手県交通（株）,大船渡・仙台線,2.0,2.0,2.0," xlink:title="1" d="M14110.8398,-3893.8335L14110.8359,-3893.8339L14110.6955,-3893.8479L14110.6048,-3893.857L14110.5907,-3893.8584L14110.5798,-3893.8594L14110.5614,-3893.8613L14110.484,-3893.8692L14110.4691,-3893.8705L14110.4617,-3893.8587L14110.4367,-3893.834L14110.4287,-3893.8261L14110.4098,-3893.8083L14110.3966,-3893.7962L14110.3905,-3893.7906L14110.3567,-3893.7619L14110.3437,-3893.7529L14110.3264,-3893.7444L14110.3199,-3893.7416L14110.2939,-3893.7349L14110.2905,-3893.7343"/>
<path content="1,岩手県交通（株）,平泉中尊寺号,0.5,0.5,0.5," xlink:title="1" d="M14110.2905,-3893.7343L14110.2939,-3893.7349L14110.3199,-3893.7416L14110.3264,-3893.7444L14110.3437,-3893.7529L14110.3567,-3893.7619L14110.3905,-3893.7906L14110.3966,-3893.7962L14110.4098,-3893.8083L14110.4287,-3893.8261L14110.4367,-3893.834L14110.4617,-3893.8587L14110.4691,-3893.8705L14110.484,-3893.8692L14110.5614,-3893.8613L14110.5798,-3893.8594L14110.5907,-3893.8584L14110.6048,-3893.857L14110.6955,-3893.8479L14110.8359,-3893.8339L14110.8398,-3893.8335"/>
<path content="1,岩手県交通（株）,須川温泉線　12,0.9,0.9,0.9," xlink:title="1" d="M14110.8398,-3893.8335L14110.8359,-3893.8339L14110.6955,-3893.8479L14110.6048,-3893.857L14110.5907,-3893.8584L14110.5798,-3893.8594L14110.5614,-3893.8613L14110.484,-3893.8692L14110.4691,-3893.8705L14110.4424,-3893.8733L14110.3459,-3893.8832L14110.3333,-3893.8845L14110.3298,-3893.8848L14110.3235,-3893.8856L14110.2919,-3893.8893L14110.2905,-3893.8895"/>
<path content="1,東日本急行（株）,一ノ関～仙台線,19.0,19.0,19.0," xlink:title="1" d="M14110.2905,-3893.7343L14110.2939,-3893.7349L14110.3199,-3893.7416L14110.3264,-3893.7444L14110.3437,-3893.7529L14110.3567,-3893.7619L14110.3905,-3893.7906L14110.3966,-3893.7962L14110.4098,-3893.8083L14110.4287,-3893.8261L14110.4367,-3893.834L14110.4617,-3893.8587L14110.4691,-3893.8705L14110.484,-3893.8692L14110.5614,-3893.8613L14110.5798,-3893.8594L14110.5907,-3893.8584L14110.6048,-3893.857L14110.6955,-3893.8479L14110.8359,-3893.8339L14110.8398,-3893.8335"/>
<path content="1,東日本急行（株）,佐野・平泉駅前・中尊寺～仙台線,1.1,1.1,1.1," xlink:title="1" d="M14110.2905,-3893.7343L14110.2939,-3893.7349L14110.3199,-3893.7416L14110.3264,-3893.7444L14110.3437,-3893.7529L14110.3567,-3893.7619L14110.3905,-3893.7906L14110.3966,-3893.7962L14110.4098,-3893.8083L14110.4287,-3893.8261L14110.4367,-3893.834L14110.4617,-3893.8587L14110.4691,-3893.8705L14110.484,-3893.8692L14110.5614,-3893.8613L14110.5798,-3893.8594L14110.5907,-3893.8584L14110.6048,-3893.857L14110.6955,-3893.8479L14110.8359,-3893.8339L14110.8398,-3893.8335"/>
<path content="2,一関市,なの花バス　小猪岡・山谷コース　冬期,0.3,0.0,0.0," xlink:title="2" d="M14110.8398,-3894.0037L14110.7171,-3894.0497L14110.707,-3894.0542L14110.6209,-3894.0863L14110.6147,-3894.0886L14110.6057,-3894.0922L14110.5974,-3894.0953L14110.572,-3894.104"/>
<path content="2,一関市,なの花バス　小猪岡・山谷コース　夏期,0.5,0.0,0.0," xlink:title="2" d="M14110.8398,-3894.0037L14110.7171,-3894.0497L14110.707,-3894.0542L14110.6209,-3894.0863L14110.6147,-3894.0886L14110.6057,-3894.0922L14110.5974,-3894.0953L14110.572,-3894.104"/>
</g>
</svg>
