<?xml version="1.0" encoding="UTF-8"?>
<svg  xmlns="http://www.w3.org/2000/svg" xmlns:xlink="http://www.w3.org/1999/xlink" xmlns:go="http://purl.org/svgmap/profile" property="N07_001,N07_002,N07_003,N07_004,N07_005,N07_006,N07_007" viewBox="13897.705078125 -3535.400390625 0.54931640625 0.54931640625" go:dataArea="13897.705078125 -3535.400390625 0.54931640625 0.54931640625" >
<metadata>
 <rdf:RDF xmlns:rdf="http://www.w3.org/1999/02/22-rdf-syntax-ns#" xmlns:crs="http://opengis.org/xmldtds/transformations.dtd" xmlns:svg="http://www.w3.org/svg" >
  <rdf:Description>
   <crs:CoordinateReferenceSystem rdf:resource="http://purl.org/crs/84" svg:transform="matrix(100.0,0.0,0.0,-100.0,0.0,0.0)" />
  </rdf:Description>
 </rdf:RDF>
</metadata>
<globalCoordinateSystem srsName="http://purl.org/crs/84" transform="matrix(100.0,0.0,0.0,-100.0,0.0,0.0)" />
<defs>
 <g id="p0" >
  <circle cx="0.0" cy="0.0" r="3" stroke="green" stroke-width="0.75" vector-effect="non-scaling-stroke" />
 </g>
</defs>
<g fill="none" fill-rule="evenodd" stroke="#FF00FF" stroke-width="0.75" opacity="0.5" vector-effect="non-scaling-stroke" stroke-linejoin="bevel" >
<path content="1,JRバス関東（株）,東名ハイウェイバス,8.0,8.0,8.0," xlink:title="1" d="M13898.2544,-3534.9584L13898.2484,-3534.9329L13898.2438,-3534.9193L13898.2287,-3534.8754L13898.2184,-3534.8517L13898.2182,-3534.8511"/>
<path content="1,JR四国バス（株）,ドリーム徳島号　阿南・徳島⇔新宿・東京・新木場,1.0,1.0,1.0," xlink:title="1" d="M13898.2544,-3534.9584L13898.2484,-3534.9329L13898.2287,-3534.8754L13898.2182,-3534.8511"/>
<path content="1,JR四国バス（株）,ドリーム高松・松山号　松山・高松⇔東京・東京ディズニーランド,1.0,1.0,1.0," xlink:title="1" d="M13898.2544,-3534.9584L13898.2484,-3534.9329L13898.2287,-3534.8754L13898.2182,-3534.8511"/>
<path content="1,JR四国バス（株）,ドリーム高松号　観音寺・高松⇔新宿・東京・新木場,1.0,1.0,1.0," xlink:title="1" d="M13898.2544,-3534.9584L13898.2484,-3534.9329L13898.2287,-3534.8754L13898.2182,-3534.8511"/>
<path content="1,JR四国バス（株）,ドリーム高知号　高知・徳島⇔東京・新木場,1.0,1.0,1.0," xlink:title="1" d="M13898.2544,-3534.9584L13898.2484,-3534.9329L13898.2287,-3534.8754L13898.2182,-3534.8511"/>
<path content="1,JR東海バス（株）,ドリームとよた号,1.0,1.0,1.0," xlink:title="1" d="M13898.2182,-3534.8511L13898.2287,-3534.8754L13898.2484,-3534.9329L13898.2544,-3534.9584"/>
<path content="1,JR東海バス（株）,ドリームなごや号_01_on,3.0,3.0,3.0," xlink:title="1" d="M13898.2182,-3534.8511L13898.2287,-3534.8754L13898.2484,-3534.9329L13898.2544,-3534.9584"/>
<path content="1,JR東海バス（株）,ドリームなごや号_02_on,3.0,3.0,3.0," xlink:title="1" d="M13898.2182,-3534.8511L13898.2287,-3534.8754L13898.2484,-3534.9329L13898.2544,-3534.9584"/>
<path content="1,JR東海バス（株）,ドリーム静岡・浜松号_01_on,2.0,2.0,2.0," xlink:title="1" d="M13898.2544,-3534.9584L13898.2484,-3534.9329L13898.2287,-3534.8754L13898.2182,-3534.8511"/>
<path content="1,JR東海バス（株）,ドリーム静岡・浜松号_02_on,2.0,2.0,2.0," xlink:title="1" d="M13898.2182,-3534.8511L13898.2287,-3534.8754L13898.2484,-3534.9329L13898.2544,-3534.9584"/>
<path content="1,JR東海バス（株）,ファンタジア号,1.0,1.0,1.0," xlink:title="1" d="M13898.2182,-3534.8511L13898.2287,-3534.8754L13898.2484,-3534.9329L13898.2544,-3534.9584"/>
<path content="1,JR東海バス（株）,レディースドリームなごや号,1.0,1.0,1.0," xlink:title="1" d="M13898.2182,-3534.8511L13898.2287,-3534.8754L13898.2484,-3534.9329L13898.2544,-3534.9584"/>
<path content="1,JR東海バス（株）,新宿ドリーム三河・なごや号,1.0,1.0,1.0," xlink:title="1" d="M13898.2182,-3534.8511L13898.2287,-3534.8754L13898.2484,-3534.9329L13898.2544,-3534.9584"/>
<path content="1,JR東海バス（株）,新宿ライナー三河・なごや号,1.0,1.0,1.0," xlink:title="1" d="M13898.2182,-3534.8511L13898.2287,-3534.8754L13898.2484,-3534.9329L13898.2544,-3534.9584"/>
<path content="1,JR東海バス（株）,東名ハイウェイバス_01_on,37.0,37.0,37.0," xlink:title="1" d="M13898.2182,-3534.8511L13898.2287,-3534.8754L13898.2484,-3534.9329L13898.2544,-3534.9584"/>
<path content="1,JR東海バス（株）,東名ハイウェイバス_03_on,37.0,37.0,37.0," xlink:title="1" d="M13898.2182,-3534.8511L13898.2287,-3534.8754L13898.2484,-3534.9329L13898.2544,-3534.9584"/>
<path content="1,JR東海バス（株）,渋谷・新宿ライナー浜松号,4.0,4.0,4.0," xlink:title="1" d="M13898.2544,-3534.9584L13898.2484,-3534.9329L13898.2287,-3534.8754L13898.2182,-3534.8511"/>
<path content="1,JR東海バス（株）,渋谷・新宿ライナー静岡号,8.0,8.0,8.0," xlink:title="1" d="M13898.2182,-3534.8511L13898.2287,-3534.8754L13898.2484,-3534.9329L13898.2544,-3534.9584"/>
<path content="1,JR東海バス（株）,青春ドリームなごや号,1.0,1.0,1.0," xlink:title="1" d="M13898.2182,-3534.8511L13898.2287,-3534.8754L13898.2484,-3534.9329L13898.2544,-3534.9584"/>
<path content="1,しずてつジャストライン（株）,新静岡新宿線,15.0,15.0,15.0," xlink:title="1" d="M13898.2544,-3534.9584L13898.2484,-3534.9329L13898.2287,-3534.8754L13898.2182,-3534.8511"/>
<path content="1,しずてつジャストライン（株）,東京清水線,5.0,5.0,5.0," xlink:title="1" d="M13898.2182,-3534.8511L13898.2287,-3534.8754L13898.2484,-3534.9329L13898.2544,-3534.9584"/>
<path content="1,しずてつジャストライン（株）,静岡成田空港線,1.0,1.0,1.0," xlink:title="1" d="M13898.2544,-3534.9584L13898.2484,-3534.9329L13898.2287,-3534.8754L13898.2182,-3534.8511"/>
<path content="1,しずてつジャストライン（株）,静岡横浜線,3.0,3.0,3.0," xlink:title="1" d="M13898.2544,-3534.9584L13898.2484,-3534.9329L13898.2287,-3534.8754L13898.2182,-3534.8511"/>
<path content="1,エムケイ（株）,MKナイトシャトル　京都・大阪⇔東京便,1.0,1.0,1.0," xlink:title="1" d="M13898.2544,-3534.9584L13898.2484,-3534.9329L13898.2287,-3534.8754L13898.2182,-3534.8511"/>
<path content="1,エムケイ（株）,MKナイトシャトル　名古屋・豊田⇔東京便,1.0,1.0,1.0," xlink:title="1" d="M13898.2544,-3534.9584L13898.2484,-3534.9329L13898.2287,-3534.8754L13898.2182,-3534.8511"/>
<path content="1,三重交通（株）,伊賀・四日市～横浜・品川,1.0,1.0,1.0," xlink:title="1" d="M13898.2544,-3534.9584L13898.2484,-3534.9329L13898.2287,-3534.8754L13898.2182,-3534.8511"/>
<path content="1,三重交通（株）,勝浦・南紀～横浜・東京・大宮,1.0,1.0,1.0," xlink:title="1" d="M13898.2544,-3534.9584L13898.2484,-3534.9329L13898.2287,-3534.8754L13898.2182,-3534.8511"/>
<path content="1,京浜急行バス（株）,御殿場・箱根桃源台～羽田空港線,4.0,4.0,4.0," xlink:title="1" d="M13898.2182,-3534.8511L13898.2184,-3534.8517L13898.2287,-3534.8754L13898.2438,-3534.9193L13898.2484,-3534.9329L13898.2544,-3534.9584"/>
<path content="1,京福バス（株）,東京線,3.0,3.0,3.0," xlink:title="1" d="M13898.2182,-3534.8511L13898.2287,-3534.8754L13898.2484,-3534.9329L13898.2544,-3534.9584"/>
<path content="1,京都交通（株）,舞鶴・綾部・福知山～東京,1.0,1.0,1.0," xlink:title="1" d="M13898.2182,-3534.8511L13898.2287,-3534.8754L13898.2484,-3534.9329L13898.2544,-3534.9584"/>
<path content="1,京阪バス（株）,京都・大津⇔上野・TDR・千葉,1.0,1.0,1.0," xlink:title="1" d="M13898.2544,-3534.9584L13898.2484,-3534.9329L13898.2287,-3534.8754L13898.2182,-3534.8511"/>
<path content="1,京阪バス（株）,枚方・京都⇔渋谷・新宿,1.0,1.0,1.0," xlink:title="1" d="M13898.2544,-3534.9584L13898.2484,-3534.9329L13898.2287,-3534.8754L13898.2182,-3534.8511"/>
<path content="1,北陸鉄道（株）,高速バス　金沢⇔横浜,1.0,1.0,1.0," xlink:title="1" d="M13898.2182,-3534.8511L13898.2287,-3534.8754L13898.2484,-3534.9329L13898.2544,-3534.9584"/>
<path content="1,南海バス（株）,和歌山・和泉中央・堺東⇔新宿・東京,1.0,1.0,1.0," xlink:title="1" d="M13898.2544,-3534.9584L13898.2484,-3534.9329L13898.2287,-3534.8754L13898.2182,-3534.8511"/>
<path content="1,南海バス（株）,堺・大阪（なんば）⇔新宿・東京,1.0,1.0,1.0," xlink:title="1" d="M13898.2544,-3534.9584L13898.2484,-3534.9329L13898.2287,-3534.8754L13898.2182,-3534.8511"/>
<path content="1,南海バス（株）,堺・大阪（なんば）・京都⇔小田原・藤沢・鎌倉,1.0,1.0,1.0," xlink:title="1" d="M13898.2182,-3534.8511L13898.2287,-3534.8754L13898.2484,-3534.9329L13898.2544,-3534.9584"/>
<path content="1,南海バス（株）,大阪（なんば）・京都⇔秋葉原・成田空港・銚子,1.0,1.0,1.0," xlink:title="1" d="M13898.2544,-3534.9584L13898.2484,-3534.9329L13898.2287,-3534.8754L13898.2182,-3534.8511"/>
<path content="1,南海バス（株）,神戸・大阪（なんば）・京都⇔立川・昭島・玉川上水（東京）,1.0,1.0,1.0," xlink:title="1" d="M13898.2544,-3534.9584L13898.2484,-3534.9329L13898.2287,-3534.8754L13898.2182,-3534.8511"/>
<path content="1,名鉄バス（株）,名古屋～仙台,1.0,1.0,1.0," xlink:title="1" d="M13898.2182,-3534.8511L13898.2287,-3534.8754L13898.2484,-3534.9329L13898.2544,-3534.9584"/>
<path content="1,和歌山バス（株）,サウスウエーブ号和歌山・堺⇔横浜・上野・東京ディズニーリゾート・海浜幕張,1.0,1.0,1.0," xlink:title="1" d="M13898.2544,-3534.9584L13898.2484,-3534.9329L13898.2287,-3534.8754L13898.2182,-3534.8511"/>
<path content="1,四国高速バス（株）,ハローブリッジ号　善通寺・坂出⇔横浜・新宿・八王子,1.0,1.0,1.0," xlink:title="1" d="M13898.2544,-3534.9584L13898.2484,-3534.9329L13898.2287,-3534.8754L13898.2182,-3534.8511"/>
<path content="1,土佐電気鉄道（株）,ブルーメッツ号　高知⇔東京線,1.0,1.0,1.0," xlink:title="1" d="M13898.2544,-3534.9584L13898.2484,-3534.9329L13898.2287,-3534.8754L13898.2182,-3534.8511"/>
<path content="1,奈良交通（株）,やまと号　五條-新宿線,1.0,1.0,1.0," xlink:title="1" d="M13898.2182,-3534.8511L13898.2287,-3534.8754L13898.2484,-3534.9329L13898.2544,-3534.9584"/>
<path content="1,奈良交通（株）,やまと号　奈良-新宿線,1.0,1.0,1.0," xlink:title="1" d="M13898.2182,-3534.8511L13898.2287,-3534.8754L13898.2484,-3534.9329L13898.2544,-3534.9584"/>
<path content="1,奈良交通（株）,やまと号　奈良-東京ディズニーリゾート・横浜線,1.0,1.0,1.0," xlink:title="1" d="M13898.2182,-3534.8511L13898.2287,-3534.8754L13898.2484,-3534.9329L13898.2544,-3534.9584"/>
<path content="1,宇和島自動車（株）,宇和島・松山⇔横浜・池袋・大宮,1.0,1.0,1.0," xlink:title="1" d="M13898.2544,-3534.9584L13898.2484,-3534.9329L13898.2287,-3534.8754L13898.2182,-3534.8511"/>
<path content="1,富士急シティバス（株）,さんさんぬまづ・新宿号,2.5,2.5,2.5," xlink:title="1" d="M13898.2182,-3534.8511L13898.2287,-3534.8754L13898.2484,-3534.9329L13898.2544,-3534.9584"/>
<path content="1,富士急シティバス（株）,さんさんぬまづ・東京号,3.0,3.0,3.0," xlink:title="1" d="M13898.2182,-3534.8511L13898.2287,-3534.8754L13898.2484,-3534.9329L13898.2544,-3534.9584"/>
<path content="1,富士急シティバス（株）,みしまコロッケ号,1.5,1.5,1.5," xlink:title="1" d="M13898.2182,-3534.8511L13898.2287,-3534.8754L13898.2484,-3534.9329L13898.2544,-3534.9584"/>
<path content="1,富士急湘南バス（株）,小田原・新松田・沼津～大坂・京都線,1.0,1.0,1.0," xlink:title="1" d="M13898.2544,-3534.9584L13898.2484,-3534.9329L13898.2438,-3534.9193L13898.2287,-3534.8754L13898.2184,-3534.8517L13898.2182,-3534.8511"/>
<path content="1,富士急行（株）,富士急行（株）No.017,1.0,0.0,0.0," xlink:title="1" d="M13898.2544,-3535.2221L13898.2284,-3535.1681L13898.203,-3535.1236L13898.181,-3535.0898L13898.1755,-3535.0757L13898.1755,-3535.0633L13898.1735,-3535.0261L13898.1694,-3535.0126L13898.1639,-3535.0024L13898.1446,-3534.9737L13898.1329,-3534.9608L13898.1199,-3534.9484L13898.1087,-3534.9367L13898.104,-3534.9298L13898.0903,-3534.9078L13898.0807,-3534.8858L13898.0759,-3534.8656L13898.0737,-3534.8511"/>
<path content="1,富士急行（株）,富士急行（株）No.021,1.0,0.0,0.0," xlink:title="1" d="M13898.0737,-3534.8511L13898.0759,-3534.8656L13898.0807,-3534.8858L13898.0903,-3534.9078L13898.104,-3534.9298L13898.1087,-3534.9367L13898.1199,-3534.9484L13898.1329,-3534.9608L13898.1446,-3534.9737L13898.1639,-3535.0024L13898.1694,-3535.0126L13898.1735,-3535.0261L13898.1755,-3535.0633L13898.1755,-3535.0757L13898.181,-3535.0898L13898.203,-3535.1236L13898.2284,-3535.1681L13898.2544,-3535.2221"/>
<path content="1,富士急静岡バス（株）,かぐや姫EXPRESS,2.5,1.0,1.0," xlink:title="1" d="M13898.2182,-3534.8511L13898.2287,-3534.8754L13898.2484,-3534.9329L13898.2544,-3534.9584"/>
<path content="1,富士急静岡バス（株）,ヤキソバEXPRESS,5.5,3.0,3.0," xlink:title="1" d="M13898.2182,-3534.8511L13898.2287,-3534.8754L13898.2484,-3534.9329L13898.2544,-3534.9584"/>
<path content="1,富士急静岡バス（株）,富士宮・富士・沼津～羽田空港・横浜線,4.0,4.0,4.0," xlink:title="1" d="M13898.2182,-3534.8511L13898.2287,-3534.8754L13898.2484,-3534.9329L13898.2544,-3534.9584"/>
<path content="1,富士急静岡バス（株）,新富士・沼津・御殿場～成田空港線,2.0,2.0,2.0," xlink:title="1" d="M13898.2544,-3534.9584L13898.2484,-3534.9329L13898.2287,-3534.8754L13898.2182,-3534.8511"/>
<path content="1,小田急箱根高速バス,新宿・箱根線,32.9,29.0,32.5," xlink:title="1" d="M13898.2544,-3534.9584L13898.2484,-3534.9329L13898.2438,-3534.9193L13898.2287,-3534.8754L13898.2184,-3534.8517L13898.2182,-3534.8511"/>
<path content="1,小田急箱根高速バス,箱根桃源台～御殿場～羽田空港,4.0,4.0,4.0," xlink:title="1" d="M13898.2544,-3534.9584L13898.2484,-3534.9329L13898.2438,-3534.9193L13898.2287,-3534.8754L13898.2184,-3534.8517L13898.2182,-3534.8511"/>
<path content="1,徳島バス（株）,徳島⇔東京,2.0,2.0,2.0," xlink:title="1" d="M13898.2544,-3534.9584L13898.2484,-3534.9329L13898.2287,-3534.8754L13898.2182,-3534.8511"/>
<path content="1,東北急行バス（株）,フライングスニーカー京都・茨木号,1.0,1.0,1.0," xlink:title="1" d="M13898.2544,-3534.9584L13898.2484,-3534.9329L13898.2438,-3534.9193L13898.2287,-3534.8754L13898.2184,-3534.8517L13898.2182,-3534.8511"/>
<path content="1,東北急行バス（株）,フライングスニーカー大坂号,1.0,1.0,1.0," xlink:title="1" d="M13898.2544,-3534.9584L13898.2484,-3534.9329L13898.2438,-3534.9193L13898.2287,-3534.8754L13898.2184,-3534.8517L13898.2182,-3534.8511"/>
<path content="1,東北急行バス（株）,フライングライナー号,1.0,1.0,1.0," xlink:title="1" d="M13898.2544,-3534.9584L13898.2484,-3534.9329L13898.2438,-3534.9193L13898.2287,-3534.8754L13898.2184,-3534.8517L13898.2182,-3534.8511"/>
<path content="1,江ノ電バス藤沢,サザンクロス,1.0,1.0,1.0," xlink:title="1" d="M13898.2544,-3534.9584L13898.2484,-3534.9329L13898.2438,-3534.9193L13898.2287,-3534.8754L13898.2184,-3534.8517L13898.2182,-3534.8511"/>
<path content="1,江ノ電バス藤沢,横浜・鎌倉・藤沢～金沢線,1.0,1.0,1.0," xlink:title="1" d="M13898.2544,-3534.9584L13898.2484,-3534.9329L13898.2438,-3534.9193L13898.2287,-3534.8754L13898.2184,-3534.8517L13898.2182,-3534.8511"/>
<path content="1,瀬戸内運輸（株）,パイレーツ　今治⇔東京,1.0,1.0,1.0," xlink:title="1" d="M13898.2544,-3534.9584L13898.2484,-3534.9329L13898.2287,-3534.8754L13898.2182,-3534.8511"/>
<path content="1,琴平バス（株）,愛媛・高知シャトル,2.0,2.0,2.0," xlink:title="1" d="M13898.2544,-3534.9584L13898.2484,-3534.9329L13898.2287,-3534.8754L13898.2182,-3534.8511"/>
<path content="1,相鉄バス（株）,横浜駅西口～河口湖駅,3.0,3.0,3.0," xlink:title="1" d="M13898.2544,-3534.9582L13898.2485,-3534.9329L13898.2438,-3534.9193L13898.2286,-3534.8757L13898.2184,-3534.8517L13898.2182,-3534.8511"/>
<path content="1,神姫バス（株）,姫路・神戸（三ノ宮）-東京（渋谷・新宿）,1.0,1.0,1.0," xlink:title="1" d="M13898.2544,-3534.9584L13898.2484,-3534.9329L13898.2287,-3534.8754L13898.2182,-3534.8511"/>
<path content="1,福井鉄道（株）,福井⇔東京,3.0,3.0,3.0," xlink:title="1" d="M13898.2182,-3534.8511L13898.2287,-3534.8754L13898.2484,-3534.9329L13898.2544,-3534.9584"/>
<path content="1,西武観光バス,びわこドリーム号,1.0,1.0,1.0," xlink:title="1" d="M13898.2544,-3534.9584L13898.2484,-3534.9329L13898.2438,-3534.9193L13898.2287,-3534.8754L13898.2184,-3534.8517L13898.2182,-3534.8511"/>
<path content="1,西武観光バス,大宮・池袋・横浜～南紀勝浦線,1.0,1.0,1.0," xlink:title="1" d="M13898.2544,-3534.9584L13898.2484,-3534.9329L13898.2438,-3534.9193L13898.2287,-3534.8754L13898.2184,-3534.8517L13898.2182,-3534.8511"/>
<path content="1,西武観光バス,宇和島線,1.0,1.0,1.0," xlink:title="1" d="M13898.2544,-3534.9584L13898.2484,-3534.9329L13898.2438,-3534.9193L13898.2287,-3534.8754L13898.2184,-3534.8517L13898.2182,-3534.8511"/>
<path content="1,豊鉄バス（株）,田原～練馬,1.0,1.0,1.0," xlink:title="1" d="M13898.2182,-3534.8511L13898.2287,-3534.8754L13898.2484,-3534.9329L13898.2544,-3534.9584"/>
<path content="1,近鉄バス（株）,大日・茨木・京都⇔東京駅,1.0,1.0,1.0," xlink:title="1" d="M13898.2544,-3534.9584L13898.2484,-3534.9329L13898.2287,-3534.8754L13898.2182,-3534.8511"/>
<path content="1,近鉄バス（株）,大阪⇔東京駅,1.0,1.0,1.0," xlink:title="1" d="M13898.2544,-3534.9584L13898.2484,-3534.9329L13898.2287,-3534.8754L13898.2182,-3534.8511"/>
<path content="1,近鉄バス（株）,大阪・京都⇔つくば・水戸,1.0,1.0,1.0," xlink:title="1" d="M13898.2544,-3534.9584L13898.2484,-3534.9329L13898.2287,-3534.8754L13898.2182,-3534.8511"/>
<path content="1,近鉄バス（株）,大阪・京都⇔久喜・栃木・宇都宮,1.0,1.0,1.0," xlink:title="1" d="M13898.2544,-3534.9584L13898.2484,-3534.9329L13898.2287,-3534.8754L13898.2182,-3534.8511"/>
<path content="1,近鉄バス（株）,大阪・京都⇔仙台,1.0,1.0,1.0," xlink:title="1" d="M13898.2544,-3534.9584L13898.2484,-3534.9329L13898.2287,-3534.8754L13898.2182,-3534.8511"/>
<path content="1,近鉄バス（株）,大阪・京都⇔川越・坂戸・熊谷,1.0,1.0,1.0," xlink:title="1" d="M13898.2544,-3534.9584L13898.2484,-3534.9329L13898.2287,-3534.8754L13898.2182,-3534.8511"/>
<path content="1,近鉄バス（株）,大阪・京都⇔日立・いわき,1.0,1.0,1.0," xlink:title="1" d="M13898.2544,-3534.9584L13898.2484,-3534.9329L13898.2287,-3534.8754L13898.2182,-3534.8511"/>
<path content="1,近鉄バス（株）,大阪・京都⇔沼津・御殿場・新松田・小田原,1.0,1.0,1.0," xlink:title="1" d="M13898.2182,-3534.8511L13898.2287,-3534.8754L13898.2484,-3534.9329L13898.2544,-3534.9584"/>
<path content="1,近鉄バス（株）,大阪・京都⇔郡山・福島,1.0,1.0,1.0," xlink:title="1" d="M13898.2544,-3534.9584L13898.2484,-3534.9329L13898.2287,-3534.8754L13898.2182,-3534.8511"/>
<path content="1,近鉄バス（株）,大阪・茨木⇔新宿,1.0,1.0,1.0," xlink:title="1" d="M13898.2544,-3534.9584L13898.2484,-3534.9329L13898.2287,-3534.8754L13898.2182,-3534.8511"/>
<path content="1,近鉄バス（株）,藤井寺・大阪・京都⇔東京駅・横浜,1.0,1.0,1.0," xlink:title="1" d="M13898.2544,-3534.9584L13898.2484,-3534.9329L13898.2287,-3534.8754L13898.2182,-3534.8511"/>
<path content="1,遠州鉄道（株）,イーライナー,2.0,2.0,2.0," xlink:title="1" d="M13898.2544,-3534.9584L13898.2484,-3534.9329L13898.2287,-3534.8754L13898.2182,-3534.8511"/>
<path content="1,関東バス（株）,ほの国号,1.0,1.0,1.0," xlink:title="1" d="M13898.2182,-3534.8511L13898.2184,-3534.8517L13898.2287,-3534.8754L13898.2438,-3534.9193L13898.2484,-3534.9329L13898.2544,-3534.9584"/>
<path content="1,関東バス（株）,やまと号,2.0,2.0,2.0," xlink:title="1" d="M13898.2544,-3534.9584L13898.2484,-3534.9329L13898.2438,-3534.9193L13898.2287,-3534.8754L13898.2184,-3534.8517L13898.2182,-3534.8511"/>
<path content="1,関東バス（株）,マスカット号,1.0,1.0,1.0," xlink:title="1" d="M13898.2182,-3534.8511L13898.2184,-3534.8517L13898.2287,-3534.8754L13898.2438,-3534.9193L13898.2484,-3534.9329L13898.2544,-3534.9584"/>
<path content="1,関東バス（株）,東京ミッドナイトエクスプレス京都号,1.0,1.0,1.0," xlink:title="1" d="M13898.2544,-3534.9584L13898.2484,-3534.9329L13898.2438,-3534.9193L13898.2287,-3534.8754L13898.2184,-3534.8517L13898.2182,-3534.8511"/>
<path content="1,関東自動車（株）,とちの木号,1.0,1.0,1.0," xlink:title="1" d="M13898.2544,-3534.9584L13898.2484,-3534.9329L13898.2438,-3534.9193L13898.2287,-3534.8754L13898.2184,-3534.8517L13898.2182,-3534.8511"/>
<path content="1,阪急バス（株）,東京・東京ディズニーリゾート・千葉行,1.0,1.0,1.0," xlink:title="1" d="M13898.2544,-3534.9584L13898.2484,-3534.9329L13898.2287,-3534.8754L13898.2182,-3534.8511"/>
<path content="1,阪急バス（株）,横浜・品川・池袋行,1.0,1.0,1.0," xlink:title="1" d="M13898.2544,-3534.9584L13898.2484,-3534.9329L13898.2287,-3534.8754L13898.2182,-3534.8511"/>
<path content="1,阪神バス（株）,サラダエクスプレス　神戸・大阪⇔東京ディズニーリゾート,1.0,1.0,1.0," xlink:title="1" d="M13898.2544,-3534.9584L13898.2484,-3534.9329L13898.2287,-3534.8754L13898.2182,-3534.8511"/>
<path content="1,高知県交通（株）,ブルーメッツ号　高知⇔東京線,1.0,1.0,1.0," xlink:title="1" d="M13898.2544,-3534.9584L13898.2484,-3534.9329L13898.2287,-3534.8754L13898.2182,-3534.8511"/>
<path content="1,（株）中伊豆東海バス,伊豆新宿ライナー,2.0,2.0,2.0," xlink:title="1" d="M13898.2544,-3534.9584L13898.2484,-3534.9329L13898.2287,-3534.8754L13898.2182,-3534.8511"/>
<path content="1,（株）沼津登山東海バス,三島エクスプレス,3.0,3.0,3.0," xlink:title="1" d="M13898.2182,-3534.8511L13898.2287,-3534.8754L13898.2484,-3534.9329L13898.2544,-3534.9584"/>
<path content="3,小山町,役場ルート_01_on,7.0,7.0,7.0," xlink:title="3" d="M13897.745,-3535.4004L13897.7706,-3535.39L13897.8394,-3535.3669L13897.8562,-3535.4004"/>
<path content="3,小山町,足柄ルート_01_on,4.0,4.0,4.0," xlink:title="3" d="M13897.745,-3535.4004L13897.7706,-3535.39L13897.8394,-3535.3669L13897.8125,-3535.3134L13897.794,-3535.2745L13897.7803,-3535.2481L13897.7693,-3535.2238L13897.7528,-3535.1912L13897.7521,-3535.19L13897.751,-3535.1875L13897.7546,-3535.1861L13897.7562,-3535.1855L13897.7984,-3535.1725L13897.8259,-3535.1629L13897.8302,-3535.1616L13897.8359,-3535.1596L13897.8476,-3535.1675L13897.8531,-3535.1731L13897.8744,-3535.1991L13897.882,-3535.2047L13897.893,-3535.2058L13897.8985,-3535.2002L13897.9019,-3535.1923L13897.8985,-3535.1726L13897.8882,-3535.1472L13897.8848,-3535.1421L13897.8834,-3535.1365L13897.8793,-3535.1191L13897.8813,-3535.1089L13897.8916,-3535.0977L13897.9061,-3535.0903L13897.9233,-3535.0779L13897.9281,-3535.0712L13897.9281,-3535.0492L13897.9267,-3535.0008L13897.9233,-3534.9709L13897.9123,-3534.9523L13897.9026,-3534.9343L13897.8841,-3534.9072L13897.8717,-3534.892L13897.8407,-3534.8511M13898.0737,-3534.8511L13898.0759,-3534.8656L13898.0807,-3534.8858L13898.0903,-3534.9078L13898.104,-3534.9298L13898.1087,-3534.9367L13898.1483,-3534.9955L13898.1572,-3535.0188L13898.1593,-3535.0451L13898.1708,-3535.0816L13898.1795,-3535.097L13898.203,-3535.1236L13898.2284,-3535.1681L13898.2544,-3535.2222"/>
<path content="3,小山町,足柄ルート_02_on,3.0,3.0,3.0," xlink:title="3" d="M13898.0737,-3534.8511L13898.0759,-3534.8656L13898.0807,-3534.8858L13898.0903,-3534.9078L13898.104,-3534.9298L13898.1087,-3534.9367L13898.1483,-3534.9955L13898.1572,-3535.0188L13898.1593,-3535.0451L13898.1708,-3535.0816L13898.1795,-3535.097L13898.203,-3535.1236L13898.2284,-3535.1681L13898.2544,-3535.2222"/>
</g>
</svg>
