<?xml version="1.0" encoding="UTF-8"?>
<svg  xmlns="http://www.w3.org/2000/svg" xmlns:xlink="http://www.w3.org/1999/xlink" xmlns:go="http://purl.org/svgmap/profile" property="N07_001,N07_002,N07_003,N07_004,N07_005,N07_006,N07_007" viewBox="13954.833984375 -3558.4716796875 1.0986328125 1.0986328125" go:dataArea="13954.833984375 -3558.4716796875 1.0986328125 1.0986328125" >
<metadata>
 <rdf:RDF xmlns:rdf="http://www.w3.org/1999/02/22-rdf-syntax-ns#" xmlns:crs="http://opengis.org/xmldtds/transformations.dtd" xmlns:svg="http://www.w3.org/svg" >
  <rdf:Description>
   <crs:CoordinateReferenceSystem rdf:resource="http://purl.org/crs/84" svg:transform="matrix(100.0,0.0,0.0,-100.0,0.0,0.0)" />
  </rdf:Description>
 </rdf:RDF>
</metadata>
<globalCoordinateSystem srsName="http://purl.org/crs/84" transform="matrix(100.0,0.0,0.0,-100.0,0.0,0.0)" />
<defs>
 <g id="p0" >
  <circle cx="0.0" cy="0.0" r="3" stroke="green" stroke-width="0.75" vector-effect="non-scaling-stroke" />
 </g>
</defs>
<g fill="none" fill-rule="evenodd" stroke="#FF00FF" stroke-width="0.75" opacity="0.5" vector-effect="non-scaling-stroke" stroke-linejoin="bevel" >
<path content="1,京成バス（株）,成田空港～たまプラーザ駅・新百合ヶ丘駅,8.0,8.0,8.0," xlink:title="1" d="M13955.1516,-3558.4717L13955.1566,-3558.4698L13955.215,-3558.4495L13955.2476,-3558.4377L13955.2599,-3558.4346L13955.4802,-3558.3571L13955.5399,-3558.3366L13955.5556,-3558.3295L13955.5659,-3558.3262L13955.5976,-3558.3143L13955.6148,-3558.3081L13955.6383,-3558.2653L13955.6443,-3558.2542L13955.69,-3558.1786L13955.7439,-3558.0803L13955.7699,-3558.0344L13955.8264,-3557.9352L13955.8326,-3557.9251L13955.8443,-3557.9025L13955.8615,-3557.8743L13955.875,-3557.85L13955.883,-3557.837L13955.8971,-3557.8435L13955.9326,-3557.8576"/>
<path content="1,京成バス（株）,東京ディズニーリゾート～たまプラーザ駅,5.0,5.0,5.0," xlink:title="1" d="M13955.883,-3557.837L13955.8971,-3557.8435L13955.9326,-3557.8576"/>
<path content="1,京浜急行バス（株）,たまプラーザ駅～羽田空港線,17.5,17.5,17.5," xlink:title="1" d="M13955.9326,-3557.6778L13955.916,-3557.6704L13955.8896,-3557.6623L13955.8694,-3557.7099"/>
<path content="1,小田急バス（株）,向11,55.0,49.0,49.0," xlink:title="1" d="M13954.9998,-3557.373L13954.9951,-3557.3835L13954.9741,-3557.3977L13954.9438,-3557.4389L13954.9203,-3557.4794L13954.8983,-3557.5307L13954.8927,-3557.5442L13954.8831,-3557.5701L13954.8673,-3557.6135L13954.8537,-3557.6507L13954.8576,-3557.6792L13954.834,-3557.7038"/>
<path content="1,小田急バス（株）,新25,15.0,12.5,12.5," xlink:title="1" d="M13955.883,-3557.837L13955.8114,-3557.811L13955.7443,-3557.7858L13955.6858,-3557.7617L13955.6569,-3557.7493L13955.6024,-3557.7538L13955.5783,-3557.7555L13955.5671,-3557.7578L13955.4693,-3557.7644L13955.4535,-3557.7691L13955.446,-3557.7716L13955.4373,-3557.7775L13955.3895,-3557.8462L13955.3564,-3557.8321L13955.3172,-3557.8141L13955.2655,-3557.7944L13955.1925,-3557.7757L13955.0941,-3557.7473L13955.0829,-3557.7453L13955.0113,-3557.7251L13955.0036,-3557.7227L13954.992,-3557.72L13954.9603,-3557.7115L13954.9196,-3557.6991L13954.8742,-3557.6866L13954.8576,-3557.6792L13954.834,-3557.7038"/>
<path content="1,小田急バス（株）,新百合ヶ丘駅～たまプラーザ駅～成田空港線,8.0,8.0,8.0," xlink:title="1" d="M13955.1516,-3558.4717L13955.1566,-3558.4698L13955.215,-3558.4495L13955.2476,-3558.4377L13955.2599,-3558.4346L13955.4802,-3558.3571L13955.5399,-3558.3366L13955.5556,-3558.3295L13955.5659,-3558.3262L13955.5976,-3558.3143L13955.6148,-3558.3081L13955.6383,-3558.2653L13955.6443,-3558.2542L13955.69,-3558.1786L13955.7439,-3558.0803L13955.7699,-3558.0344L13955.8264,-3557.9352L13955.8326,-3557.9251L13955.8443,-3557.9025L13955.8615,-3557.8743L13955.875,-3557.85L13955.883,-3557.837L13955.8971,-3557.8435L13955.9326,-3557.8576"/>
<path content="1,小田急バス（株）,新百合ヶ丘駅～羽田空港線,10.0,10.0,10.0," xlink:title="1" d="M13955.1516,-3558.4717L13955.1566,-3558.4698L13955.215,-3558.4495L13955.2476,-3558.4377L13955.2599,-3558.4346L13955.4802,-3558.3571L13955.5399,-3558.3366L13955.5556,-3558.3295L13955.5659,-3558.3262L13955.5976,-3558.3143L13955.6148,-3558.3081L13955.6383,-3558.2653L13955.6443,-3558.2542L13955.69,-3558.1786L13955.7439,-3558.0803L13955.7699,-3558.0344L13955.8264,-3557.9352L13955.8326,-3557.9251L13955.8443,-3557.9025L13955.8615,-3557.8743L13955.875,-3557.85L13955.883,-3557.837L13955.8971,-3557.8435L13955.9326,-3557.8576"/>
<path content="1,小田急バス（株）,生田営業所～あざみ野駅,1.0,1.0,1.0," xlink:title="1" d="M13954.834,-3557.7038L13954.8576,-3557.6792L13954.8537,-3557.6507L13954.8673,-3557.6135L13954.8831,-3557.5701L13954.8927,-3557.5442L13954.8983,-3557.5307L13954.9203,-3557.4794L13954.9438,-3557.4389L13954.9741,-3557.3977L13954.9951,-3557.3835L13954.9998,-3557.373"/>
<path content="1,川崎鶴見臨港バス,たまプラーザ～羽田空港,8.5,8.5,8.5," xlink:title="1" d="M13955.9326,-3557.6778L13955.916,-3557.6704L13955.8896,-3557.6623L13955.8694,-3557.7099"/>
<path content="1,東急バス（株）,た26,22.0,22.0,22.0," xlink:title="1" d="M13955.9326,-3557.5659L13955.8896,-3557.6623L13955.8694,-3557.7099"/>
<path content="1,東急バス（株）,た31,21.0,14.0,5.0," xlink:title="1" d="M13955.883,-3557.837L13955.875,-3557.85L13955.8615,-3557.8743L13955.8443,-3557.9025L13955.8326,-3557.9251L13955.8264,-3557.9352L13955.7699,-3558.0344L13955.7439,-3558.0803L13955.69,-3558.1786L13955.6443,-3558.2542L13955.6383,-3558.2653L13955.6148,-3558.3081L13955.5976,-3558.3143L13955.5659,-3558.3262L13955.5556,-3558.3295L13955.5399,-3558.3366L13955.4815,-3558.3566L13955.4802,-3558.3571L13955.4789,-3558.3575L13955.2599,-3558.4346L13955.2476,-3558.4377L13955.215,-3558.4495L13955.1566,-3558.4698L13955.1516,-3558.4717"/>
<path content="1,東急バス（株）,た41,168.0,137.0,104.0," xlink:title="1" d="M13955.883,-3557.837L13955.875,-3557.85L13955.8615,-3557.8743L13955.8443,-3557.9025L13955.8326,-3557.9251L13955.8264,-3557.9352L13955.7699,-3558.0344L13955.7439,-3558.0803L13955.69,-3558.1786L13955.6443,-3558.2542L13955.6383,-3558.2653L13955.6148,-3558.3081L13955.5976,-3558.3143L13955.5659,-3558.3262L13955.5556,-3558.3295L13955.5399,-3558.3366L13955.4815,-3558.3566L13955.4802,-3558.3571L13955.4789,-3558.3575L13955.2599,-3558.4346L13955.2476,-3558.4377L13955.215,-3558.4495L13955.1566,-3558.4698L13955.1516,-3558.4717"/>
<path content="1,東急バス（株）,た51,17.0,15.0,15.0," xlink:title="1" d="M13954.9998,-3557.373L13954.9951,-3557.3835L13954.9741,-3557.3977L13954.9438,-3557.4389L13954.9203,-3557.4794L13954.8983,-3557.5307L13954.8927,-3557.5442L13954.8831,-3557.5701L13954.8673,-3557.6135L13954.8537,-3557.6507L13954.8576,-3557.6792L13954.834,-3557.7038M13955.1516,-3558.4717L13955.1566,-3558.4698L13955.215,-3558.4495L13955.2476,-3558.4377L13955.2599,-3558.4346L13955.4789,-3558.3575L13955.4802,-3558.3571L13955.4815,-3558.3566L13955.5399,-3558.3366L13955.5556,-3558.3295L13955.5659,-3558.3262L13955.5976,-3558.3143L13955.6148,-3558.3081L13955.6383,-3558.2653L13955.6443,-3558.2542L13955.69,-3558.1786L13955.7439,-3558.0803L13955.7699,-3558.0344L13955.8264,-3557.9352L13955.8326,-3557.9251L13955.8443,-3557.9025L13955.8615,-3557.8743L13955.875,-3557.85L13955.883,-3557.837"/>
<path content="1,東急バス（株）,た61,37.0,35.0,33.0," xlink:title="1" d="M13955.883,-3557.837L13955.8114,-3557.811L13955.7443,-3557.7858L13955.6858,-3557.7617L13955.6569,-3557.7493L13955.6024,-3557.7538L13955.5783,-3557.7555L13955.5671,-3557.7578L13955.4693,-3557.7644L13955.4535,-3557.7691L13955.446,-3557.7716L13955.4373,-3557.7775L13955.3895,-3557.8462L13955.3564,-3557.8321L13955.3172,-3557.8141L13955.2655,-3557.7944L13955.1925,-3557.7757L13955.0941,-3557.7473L13955.0829,-3557.7453L13955.0113,-3557.7251L13955.0036,-3557.7227L13954.992,-3557.72L13954.9603,-3557.7115L13954.9196,-3557.6991L13954.8742,-3557.6866L13954.8576,-3557.6792L13954.8439,-3557.6764L13954.834,-3557.6735"/>
<path content="1,東急バス（株）,た62,20.0,18.0,18.0," xlink:title="1" d="M13955.883,-3557.837L13955.8114,-3557.811L13955.7443,-3557.7858L13955.6858,-3557.7617L13955.6569,-3557.7493L13955.6024,-3557.7538L13955.5783,-3557.7555L13955.5671,-3557.7578L13955.4693,-3557.7644L13955.4535,-3557.7691L13955.446,-3557.7716L13955.4373,-3557.7775L13955.3895,-3557.8462L13955.3564,-3557.8321L13955.3172,-3557.8141L13955.2655,-3557.7944L13955.1925,-3557.7757L13955.0941,-3557.7473L13955.0829,-3557.7453L13955.0113,-3557.7251L13955.0036,-3557.7227L13954.992,-3557.72L13954.9603,-3557.7115L13954.9196,-3557.6991L13954.8742,-3557.6866L13954.8576,-3557.6792L13954.8439,-3557.6764L13954.834,-3557.6735"/>
<path content="1,東急バス（株）,た63,38.0,31.0,31.0," xlink:title="1" d="M13955.883,-3557.837L13955.8114,-3557.811L13955.7443,-3557.7858L13955.6858,-3557.7617L13955.6569,-3557.7493L13955.6024,-3557.7538L13955.5783,-3557.7555L13955.5671,-3557.7578L13955.4693,-3557.7644L13955.4535,-3557.7691L13955.446,-3557.7716L13955.4373,-3557.7775L13955.3895,-3557.8462L13955.3564,-3557.8321L13955.3172,-3557.8141L13955.2655,-3557.7944L13955.1925,-3557.7757L13955.0941,-3557.7473L13955.0829,-3557.7453L13955.0113,-3557.7251L13955.0036,-3557.7227L13954.992,-3557.72L13954.9603,-3557.7115L13954.9196,-3557.6991L13954.8742,-3557.6866L13954.8576,-3557.6792L13954.8439,-3557.6764L13954.834,-3557.6735"/>
<path content="1,東急バス（株）,た71,47.0,26.0,26.0," xlink:title="1" d="M13955.883,-3557.837L13955.875,-3557.85L13955.8615,-3557.8743L13955.8443,-3557.9025L13955.8326,-3557.9251L13955.8264,-3557.9352L13955.7699,-3558.0344L13955.7439,-3558.0803L13955.69,-3558.1786L13955.6443,-3558.2542L13955.6383,-3558.2653L13955.6148,-3558.3081L13955.5976,-3558.3143L13955.5659,-3558.3262L13955.5556,-3558.3295L13955.5399,-3558.3366L13955.4815,-3558.3566L13955.4802,-3558.3571L13955.4789,-3558.3575L13955.2599,-3558.4346L13955.2476,-3558.4377L13955.215,-3558.4495L13955.1566,-3558.4698L13955.1516,-3558.4717"/>
<path content="1,東急バス（株）,た81,29.0,24.0,24.0," xlink:title="1" d="M13955.883,-3557.837L13955.875,-3557.85L13955.8615,-3557.8743L13955.8443,-3557.9025L13955.8326,-3557.9251L13955.8264,-3557.9352L13955.7699,-3558.0344L13955.7439,-3558.0803L13955.8326,-3558.1155L13955.9311,-3558.156L13955.9326,-3558.1567"/>
<path content="1,東急バス（株）,た82,47.0,44.0,44.0," xlink:title="1" d="M13955.883,-3557.837L13955.875,-3557.85L13955.8615,-3557.8743L13955.8443,-3557.9025L13955.8326,-3557.9251L13955.8264,-3557.9352L13955.7699,-3558.0344L13955.7439,-3558.0803L13955.8326,-3558.1155L13955.9311,-3558.156L13955.9326,-3558.1567"/>
<path content="1,東急バス（株）,た91,42.0,27.0,20.0," xlink:title="1" d="M13955.8694,-3557.7099L13955.8896,-3557.6623L13955.9326,-3557.5659"/>
<path content="1,東急バス（株）,た92,23.0,22.0,21.0," xlink:title="1" d="M13955.8694,-3557.7099L13955.8896,-3557.6623L13955.9326,-3557.5659"/>
<path content="1,東急バス（株）,た93,2.0,2.0,3.0," xlink:title="1" d="M13955.9326,-3557.5659L13955.8896,-3557.6623L13955.8694,-3557.7099"/>
<path content="1,東急バス（株）,たまプラーザ駅～成田空港,8.0,8.0,8.0," xlink:title="1" d="M13955.883,-3557.837L13955.8971,-3557.8435L13955.9326,-3557.8576"/>
<path content="1,東急バス（株）,たまプラーザ駅～東京ディズニーリゾート,5.0,5.0,5.0," xlink:title="1" d="M13955.883,-3557.837L13955.8971,-3557.8435L13955.9326,-3557.8576"/>
<path content="1,東急バス（株）,たまプラーザ駅～羽田空港,16.0,16.0,16.0," xlink:title="1" d="M13955.8896,-3557.6623L13955.916,-3557.6704L13955.9326,-3557.6778"/>
<path content="1,東急バス（株）,新25,15.0,13.0,13.0," xlink:title="1" d="M13954.834,-3557.7038L13954.8576,-3557.6792L13954.8742,-3557.6866L13954.9196,-3557.6991L13954.9603,-3557.7115L13954.992,-3557.72L13955.0036,-3557.7227L13955.0113,-3557.7251L13955.0829,-3557.7453L13955.0941,-3557.7473L13955.1925,-3557.7757L13955.2655,-3557.7944L13955.3172,-3557.8141L13955.3564,-3557.8321L13955.3895,-3557.8462L13955.4373,-3557.7775L13955.446,-3557.7716L13955.4535,-3557.7691L13955.4693,-3557.7644L13955.5671,-3557.7578L13955.5783,-3557.7555L13955.6024,-3557.7538L13955.6569,-3557.7493L13955.6858,-3557.7617L13955.7443,-3557.7858L13955.8114,-3557.811L13955.883,-3557.837"/>
<path content="1,東急バス（株）,柿01,46.5,43.5,40.5," xlink:title="1" d="M13955.883,-3557.837L13955.875,-3557.85L13955.8615,-3557.8743L13955.8443,-3557.9025L13955.8326,-3557.9251L13955.8264,-3557.9352L13955.7699,-3558.0344L13955.7439,-3558.0803L13955.69,-3558.1786L13955.6443,-3558.2542L13955.6383,-3558.2653L13955.6148,-3558.3081L13955.5976,-3558.3143L13955.5659,-3558.3262L13955.5556,-3558.3295L13955.5399,-3558.3366L13955.4815,-3558.3566L13955.4802,-3558.3571L13955.4789,-3558.3575L13955.2599,-3558.4346L13955.2476,-3558.4377L13955.215,-3558.4495L13955.1566,-3558.4698L13955.1516,-3558.4717"/>
<path content="1,東急バス（株）,高速青葉台線,2.4,0.0,0.0," xlink:title="1" d="M13955.8896,-3557.6623L13955.9326,-3557.5659"/>
<path content="1,東急バス（株）,高速青葉台線,2.4,0.0,0.0," xlink:title="1" d="M13955.8694,-3557.7099L13955.8896,-3557.6623"/>
<path content="1,東急バス（株）,高速青葉台線,2.4,0.0,0.0," xlink:title="1" d="M13955.9326,-3557.6778L13955.916,-3557.6704L13955.8896,-3557.6623"/>
<path content="1,東急バス（株）,鷺21,1.0,0.0,0.0," xlink:title="1" d="M13955.9326,-3557.8576L13955.8971,-3557.8435L13955.883,-3557.837L13955.8114,-3557.811L13955.7443,-3557.7858L13955.6858,-3557.7617L13955.6569,-3557.7493L13955.6024,-3557.7538L13955.5783,-3557.7555L13955.577,-3557.7425L13955.5735,-3557.7228L13955.5701,-3557.6935L13955.5659,-3557.6699L13955.5646,-3557.6513L13955.5604,-3557.6141L13955.5542,-3557.569L13955.5542,-3557.5577L13955.5391,-3557.4242L13955.5292,-3557.373"/>
<path content="1,東急バス（株）,鷺22,1.0,0.0,0.0," xlink:title="1" d="M13955.9326,-3557.8576L13955.8971,-3557.8435L13955.883,-3557.837L13955.8114,-3557.811L13955.7443,-3557.7858L13955.6858,-3557.7617L13955.6569,-3557.7493L13955.6024,-3557.7538L13955.5783,-3557.7555L13955.577,-3557.7425L13955.5735,-3557.7228L13955.5701,-3557.6935L13955.5659,-3557.6699L13955.5646,-3557.6513L13955.5604,-3557.6141L13955.5542,-3557.569L13955.5542,-3557.5577L13955.5391,-3557.4242L13955.5292,-3557.373"/>
</g>
</svg>
