<?xml version="1.0" encoding="UTF-8"?>
<svg  xmlns="http://www.w3.org/2000/svg" xmlns:xlink="http://www.w3.org/1999/xlink" xmlns:go="http://purl.org/svgmap/profile" property="N07_001,N07_002,N07_003,N07_004,N07_005,N07_006,N07_007" viewBox="13741.69921875 -3476.07421875 4.39453125 4.39453125" go:dataArea="13741.69921875 -3476.07421875 4.39453125 4.39453125" >
<metadata>
 <rdf:RDF xmlns:rdf="http://www.w3.org/1999/02/22-rdf-syntax-ns#" xmlns:crs="http://opengis.org/xmldtds/transformations.dtd" xmlns:svg="http://www.w3.org/svg" >
  <rdf:Description>
   <crs:CoordinateReferenceSystem rdf:resource="http://purl.org/crs/84" svg:transform="matrix(100.0,0.0,0.0,-100.0,0.0,0.0)" />
  </rdf:Description>
 </rdf:RDF>
</metadata>
<globalCoordinateSystem srsName="http://purl.org/crs/84" transform="matrix(100.0,0.0,0.0,-100.0,0.0,0.0)" />
<defs>
 <g id="p0" >
  <circle cx="0.0" cy="0.0" r="3" stroke="green" stroke-width="0.75" vector-effect="non-scaling-stroke" />
 </g>
</defs>
<g fill="none" fill-rule="evenodd" stroke="#FF00FF" stroke-width="0.75" opacity="0.5" vector-effect="non-scaling-stroke" stroke-linejoin="bevel" >
<path content="1,豊鉄バス（株）,二川線_01_on,17.0,16.5,16.5," xlink:title="1" d="M13741.6992,-3474.2977L13741.7088,-3474.2908L13741.7546,-3474.255L13741.7784,-3474.2371L13741.8237,-3474.2028L13741.8805,-3474.1637L13742.0075,-3474.0688L13742.0568,-3474.0322L13742.0913,-3474.0071L13742.1017,-3473.9987L13742.1157,-3473.9883L13742.1309,-3473.977L13742.1437,-3473.9675L13742.2492,-3473.8901L13742.252,-3473.888L13742.3547,-3473.8131L13742.3703,-3473.7971L13742.3818,-3473.784L13742.3868,-3473.7782L13742.3964,-3473.767L13742.3988,-3473.7638L13742.4103,-3473.7488L13742.4218,-3473.7324L13742.4273,-3473.7229L13742.4301,-3473.7182L13742.4338,-3473.7092L13742.4377,-3473.6982L13742.4394,-3473.6867L13742.4404,-3473.6715L13742.4416,-3473.6532L13742.4466,-3473.5264L13742.4476,-3473.5127L13742.4481,-3473.5088L13742.4487,-3473.4979L13742.449,-3473.4942L13742.4581,-3473.3689L13742.4669,-3473.2004L13742.4723,-3473.1198L13742.4748,-3473.0888L13742.4793,-3473.0588L13742.4863,-3473.0285L13742.4893,-3473.0196L13742.4914,-3473.0133L13742.5144,-3472.9983L13742.5457,-3472.9824L13742.5709,-3472.9717L13742.5962,-3472.9655L13742.6411,-3472.9571L13742.7052,-3472.9497L13742.7768,-3472.9503L13742.8354,-3472.9509L13742.9016,-3472.9486L13742.9282,-3472.9452L13742.9534,-3472.9391L13743.0182,-3472.9131L13743.0218,-3472.9112L13743.0379,-3472.9007L13743.0652,-3472.8878L13743.0829,-3472.8816L13743.0979,-3472.8782L13743.1157,-3472.8765L13743.2125,-3472.876L13743.2377,-3472.8726L13743.2554,-3472.8686L13743.327,-3472.8416L13743.3536,-3472.8326L13743.4191,-3472.814L13743.4423,-3472.8056L13743.4504,-3472.8033L13743.4873,-3472.7887L13743.5534,-3472.7239L13743.5704,-3472.7087L13743.5766,-3472.7042L13743.5916,-3472.6946L13743.6309,-3472.6718L13743.6389,-3472.6676L13743.6488,-3472.6636L13743.6884,-3472.6535L13743.7018,-3472.6501L13743.9025,-3472.6164"/>
<path content="1,豊鉄バス（株）,二川線_02_on,17.0,16.5,16.5," xlink:title="1" d="M13745.9277,-3472.0387L13745.8812,-3472.0484L13745.9173,-3472.0217L13745.9384,-3472.001L13745.9728,-3472.0103L13746.0139,-3472.0179L13745.9703,-3472.0293L13745.9277,-3472.0387"/>
<path content="1,豊鉄バス（株）,二川線_02_on,17.0,16.5,16.5," xlink:title="1" d="M13741.6992,-3474.2977L13741.7088,-3474.2908L13741.7546,-3474.255L13741.7784,-3474.2371L13741.8237,-3474.2028L13741.8805,-3474.1637L13742.0075,-3474.0688L13742.0568,-3474.0322L13742.0913,-3474.0071L13742.1017,-3473.9987L13742.1157,-3473.9883L13742.1309,-3473.977L13742.1437,-3473.9675L13742.2492,-3473.8901L13742.252,-3473.888L13742.3547,-3473.8131L13742.3703,-3473.7971L13742.3818,-3473.784L13742.3868,-3473.7782L13742.3964,-3473.767L13742.3988,-3473.7638L13742.4103,-3473.7488L13742.4218,-3473.7324L13742.4273,-3473.7229L13742.4301,-3473.7182L13742.4338,-3473.7092L13742.4377,-3473.6982L13742.4394,-3473.6867L13742.4404,-3473.6715L13742.4416,-3473.6532L13742.4466,-3473.5264L13742.4476,-3473.5127L13742.4481,-3473.5088L13742.4487,-3473.4979L13742.449,-3473.4942L13742.4581,-3473.3689L13742.4669,-3473.2004L13742.4723,-3473.1198L13742.4748,-3473.0888L13742.4793,-3473.0588L13742.4863,-3473.0285L13742.4893,-3473.0196L13742.4914,-3473.0133L13742.5144,-3472.9983L13742.5457,-3472.9824L13742.5709,-3472.9717L13742.5962,-3472.9655L13742.6411,-3472.9571L13742.7052,-3472.9497L13742.7768,-3472.9503L13742.8354,-3472.9509L13742.9016,-3472.9486L13742.9282,-3472.9452L13742.9534,-3472.9391L13743.0182,-3472.9131L13743.0218,-3472.9112L13743.0379,-3472.9007L13743.0652,-3472.8878L13743.0829,-3472.8816L13743.0979,-3472.8782L13743.1157,-3472.8765L13743.2125,-3472.876L13743.2377,-3472.8726L13743.2554,-3472.8686L13743.327,-3472.8416L13743.3536,-3472.8326L13743.4191,-3472.814L13743.4423,-3472.8056L13743.4504,-3472.8033L13743.4873,-3472.7887L13743.5534,-3472.7239L13743.5704,-3472.7087L13743.5766,-3472.7042L13743.5916,-3472.6946L13743.6309,-3472.6718L13743.6389,-3472.6676L13743.6488,-3472.6636L13743.6884,-3472.6535L13743.7018,-3472.6501L13743.9025,-3472.6164L13743.9406,-3472.6101L13743.9468,-3472.6468L13743.9516,-3472.6828L13743.9706,-3472.6839L13744.0408,-3472.6879L13744.1384,-3472.6918L13744.2127,-3472.6938L13744.2802,-3472.6941L13744.3939,-3472.6903L13744.4186,-3472.6901L13744.4476,-3472.6886L13744.4499,-3472.6884L13744.4636,-3472.6884L13744.5304,-3472.6851L13744.5965,-3472.6851L13744.632,-3472.6879L13744.7193,-3472.7054L13744.8079,-3472.7267L13744.8522,-3472.738L13744.8699,-3472.742L13744.9317,-3472.7572L13744.9619,-3472.7651L13745.0015,-3472.7712L13745.041,-3472.7741L13745.0588,-3472.7735L13745.0608,-3472.7735L13745.0888,-3472.7712L13745.1344,-3472.7634L13745.1396,-3472.7628L13745.1692,-3472.7577L13745.206,-3472.751L13745.2531,-3472.7426L13745.3117,-3472.7324L13745.3792,-3472.72L13745.3839,-3472.7193L13745.4092,-3472.7144L13745.4753,-3472.7031L13745.6035,-3472.6799L13745.6384,-3472.6745L13745.7494,-3472.6541L13745.7488,-3472.6452L13745.7518,-3472.6157L13745.766,-3472.5142L13745.7668,-3472.5011L13745.7651,-3472.4925L13745.7589,-3472.4767L13745.7453,-3472.4499L13745.7327,-3472.4291L13745.7194,-3472.4102L13745.6822,-3472.3587L13745.6783,-3472.3517L13745.6768,-3472.3483L13745.6767,-3472.3449L13745.6821,-3472.3294L13745.6865,-3472.3152L13745.6949,-3472.288L13745.6958,-3472.2795L13745.6949,-3472.2694L13745.691,-3472.23L13745.6911,-3472.2113L13745.6944,-3472.202L13745.7035,-3472.1953L13745.7153,-3472.1911L13745.778,-3472.1832L13745.8094,-3472.1799L13745.8353,-3472.1753L13745.839,-3472.1725L13745.872,-3472.1483L13745.9024,-3472.126L13745.9458,-3472.0942L13745.9277,-3472.0387"/>
<path content="1,豊鉄バス（株）,二川線_03_on,1.5,0.0,0.0," xlink:title="1" d="M13746.0139,-3472.0179L13746.0401,-3472.011L13746.0718,-3472.0007L13746.0938,-3471.9933"/>
<path content="1,豊鉄バス（株）,二川線_03_on,1.5,0.0,0.0," xlink:title="1" d="M13745.9277,-3472.0387L13745.9703,-3472.0293L13746.0139,-3472.0179"/>
<path content="1,豊鉄バス（株）,二川線_03_on,1.5,0.0,0.0," xlink:title="1" d="M13745.9277,-3472.0387L13745.8812,-3472.0484L13745.9173,-3472.0217L13745.9384,-3472.001L13745.9728,-3472.0103L13746.0139,-3472.0179"/>
<path content="1,豊鉄バス（株）,二川線_03_on,1.5,0.0,0.0," xlink:title="1" d="M13741.6992,-3474.2977L13741.7088,-3474.2908L13741.7546,-3474.255L13741.7784,-3474.2371L13741.8237,-3474.2028L13741.8805,-3474.1637L13742.0075,-3474.0688L13742.0568,-3474.0322L13742.0913,-3474.0071L13742.1017,-3473.9987L13742.1157,-3473.9883L13742.1309,-3473.977L13742.1437,-3473.9675L13742.2492,-3473.8901L13742.252,-3473.888L13742.3547,-3473.8131L13742.3703,-3473.7971L13742.3818,-3473.784L13742.3868,-3473.7782L13742.3964,-3473.767L13742.3988,-3473.7638L13742.4103,-3473.7488L13742.4218,-3473.7324L13742.4273,-3473.7229L13742.4301,-3473.7182L13742.4338,-3473.7092L13742.4377,-3473.6982L13742.4394,-3473.6867L13742.4404,-3473.6715L13742.4416,-3473.6532L13742.4466,-3473.5264L13742.4476,-3473.5127L13742.4481,-3473.5088L13742.4487,-3473.4979L13742.449,-3473.4942L13742.4581,-3473.3689L13742.4669,-3473.2004L13742.4723,-3473.1198L13742.4748,-3473.0888L13742.4793,-3473.0588L13742.4863,-3473.0285L13742.4893,-3473.0196L13742.4914,-3473.0133L13742.5144,-3472.9983L13742.5457,-3472.9824L13742.5709,-3472.9717L13742.5962,-3472.9655L13742.6411,-3472.9571L13742.7052,-3472.9497L13742.7768,-3472.9503L13742.8354,-3472.9509L13742.9016,-3472.9486L13742.9282,-3472.9452L13742.9534,-3472.9391L13743.0182,-3472.9131L13743.0218,-3472.9112L13743.0379,-3472.9007L13743.0652,-3472.8878L13743.0829,-3472.8816L13743.0979,-3472.8782L13743.1157,-3472.8765L13743.2125,-3472.876L13743.2377,-3472.8726L13743.2554,-3472.8686L13743.327,-3472.8416L13743.3536,-3472.8326L13743.4191,-3472.814L13743.4423,-3472.8056L13743.4504,-3472.8033L13743.4873,-3472.7887L13743.5534,-3472.7239L13743.5704,-3472.7087L13743.5766,-3472.7042L13743.5916,-3472.6946L13743.6309,-3472.6718L13743.6389,-3472.6676L13743.6488,-3472.6636L13743.6884,-3472.6535L13743.7018,-3472.6501L13743.9025,-3472.6164L13743.9406,-3472.6101L13743.9468,-3472.6468L13743.9516,-3472.6828L13743.9706,-3472.6839L13744.0408,-3472.6879L13744.1384,-3472.6918L13744.2127,-3472.6938L13744.2802,-3472.6941L13744.3939,-3472.6903L13744.4186,-3472.6901L13744.4476,-3472.6886L13744.4499,-3472.6884L13744.4636,-3472.6884L13744.5304,-3472.6851L13744.5965,-3472.6851L13744.632,-3472.6879L13744.7193,-3472.7054L13744.8079,-3472.7267L13744.8522,-3472.738L13744.8699,-3472.742L13744.9317,-3472.7572L13744.9619,-3472.7651L13745.0015,-3472.7712L13745.041,-3472.7741L13745.0588,-3472.7735L13745.0608,-3472.7735L13745.0888,-3472.7712L13745.1344,-3472.7634L13745.1396,-3472.7628L13745.1692,-3472.7577L13745.206,-3472.751L13745.2531,-3472.7426L13745.3117,-3472.7324L13745.3792,-3472.72L13745.3839,-3472.7193L13745.4092,-3472.7144L13745.4753,-3472.7031L13745.6035,-3472.6799L13745.6384,-3472.6745L13745.7494,-3472.6541L13745.7488,-3472.6452L13745.7518,-3472.6157L13745.766,-3472.5142L13745.7668,-3472.5011L13745.7651,-3472.4925L13745.7589,-3472.4767L13745.7453,-3472.4499L13745.7327,-3472.4291L13745.7194,-3472.4102L13745.6822,-3472.3587L13745.6783,-3472.3517L13745.6768,-3472.3483L13745.6767,-3472.3449L13745.6821,-3472.3294L13745.6865,-3472.3152L13745.6949,-3472.288L13745.6958,-3472.2795L13745.6949,-3472.2694L13745.691,-3472.23L13745.6911,-3472.2113L13745.6944,-3472.202L13745.7035,-3472.1953L13745.7153,-3472.1911L13745.778,-3472.1832L13745.8094,-3472.1799L13745.8353,-3472.1753L13745.839,-3472.1725L13745.872,-3472.1483L13745.9024,-3472.126L13745.9458,-3472.0942L13745.9277,-3472.0387"/>
<path content="1,豊鉄バス（株）,二川線_04_on,17.0,16.5,16.5," xlink:title="1" d="M13741.6992,-3474.2977L13741.7088,-3474.2908L13741.7546,-3474.255L13741.7784,-3474.2371L13741.8237,-3474.2028L13741.8805,-3474.1637L13742.0075,-3474.0688L13742.0568,-3474.0322L13742.0913,-3474.0071L13742.1017,-3473.9987L13742.1157,-3473.9883L13742.1309,-3473.977L13742.1437,-3473.9675L13742.2492,-3473.8901L13742.252,-3473.888L13742.3547,-3473.8131L13742.3703,-3473.7971L13742.3818,-3473.784L13742.3868,-3473.7782L13742.3964,-3473.767L13742.3988,-3473.7638L13742.4103,-3473.7488L13742.4218,-3473.7324L13742.4273,-3473.7229L13742.4301,-3473.7182L13742.4338,-3473.7092L13742.4377,-3473.6982L13742.4394,-3473.6867L13742.4404,-3473.6715L13742.4416,-3473.6532L13742.4466,-3473.5264L13742.4476,-3473.5127L13742.4481,-3473.5088L13742.4487,-3473.4979L13742.449,-3473.4942L13742.4581,-3473.3689L13742.4669,-3473.2004L13742.4723,-3473.1198L13742.4748,-3473.0888L13742.4793,-3473.0588L13742.4863,-3473.0285L13742.4893,-3473.0196L13742.4914,-3473.0133L13742.5144,-3472.9983L13742.5457,-3472.9824L13742.5709,-3472.9717L13742.5962,-3472.9655L13742.6411,-3472.9571L13742.7052,-3472.9497L13742.7768,-3472.9503L13742.8354,-3472.9509L13742.9016,-3472.9486L13742.9282,-3472.9452L13742.9534,-3472.9391L13743.0182,-3472.9131L13743.0218,-3472.9112L13743.0379,-3472.9007L13743.0652,-3472.8878L13743.0829,-3472.8816L13743.0979,-3472.8782L13743.1157,-3472.8765L13743.2125,-3472.876L13743.2377,-3472.8726L13743.2554,-3472.8686L13743.327,-3472.8416L13743.3536,-3472.8326L13743.4191,-3472.814L13743.4423,-3472.8056L13743.4504,-3472.8033L13743.4873,-3472.7887L13743.5534,-3472.7239L13743.5704,-3472.7087L13743.5766,-3472.7042L13743.5916,-3472.6946L13743.6309,-3472.6718L13743.6389,-3472.6676L13743.6488,-3472.6636L13743.6884,-3472.6535L13743.7018,-3472.6501L13743.9025,-3472.6164L13743.9406,-3472.6101L13743.9468,-3472.6468L13743.9516,-3472.6828L13743.9706,-3472.6839L13744.0408,-3472.6879L13744.1384,-3472.6918L13744.2127,-3472.6938L13744.2802,-3472.6941L13744.3939,-3472.6903L13744.4186,-3472.6901L13744.4476,-3472.6886L13744.4499,-3472.6884L13744.4636,-3472.6884L13744.5304,-3472.6851L13744.5965,-3472.6851L13744.632,-3472.6879L13744.7193,-3472.7054L13744.8079,-3472.7267L13744.8522,-3472.738L13744.8699,-3472.742L13744.9317,-3472.7572L13744.9619,-3472.7651L13745.0015,-3472.7712L13745.041,-3472.7741L13745.0588,-3472.7735L13745.0608,-3472.7735L13745.0888,-3472.7712L13745.1344,-3472.7634L13745.1396,-3472.7628L13745.1692,-3472.7577L13745.206,-3472.751L13745.2531,-3472.7426L13745.3117,-3472.7324L13745.3792,-3472.72L13745.3839,-3472.7193L13745.4092,-3472.7144L13745.4753,-3472.7031L13745.6035,-3472.6799L13745.6384,-3472.6745L13745.7494,-3472.6541L13745.9219,-3472.6232L13746.0617,-3472.5978L13746.0938,-3472.592"/>
<path content="1,豊鉄バス（株）,岩田団地線,60.5,32.5,32.5," xlink:title="1" d="M13742.2582,-3475.3909L13742.2724,-3475.3922L13742.3291,-3475.3936L13742.3946,-3475.3958L13742.4616,-3475.3987L13742.4903,-3475.3992L13742.6921,-3475.4071L13742.8944,-3475.418L13742.9249,-3475.4201L13742.9241,-3475.4129L13742.9249,-3475.3682L13742.9247,-3475.3294L13742.924,-3475.3158L13742.9254,-3475.2623L13742.9265,-3475.2281L13742.9274,-3475.2139L13742.9288,-3475.1553L13742.9309,-3475.1131L13742.9329,-3475.0703L13742.8039,-3475.0665L13742.7843,-3475.0658L13742.7577,-3475.0652L13742.7031,-3475.0635L13742.6459,-3475.0624L13742.4673,-3475.0573L13742.4304,-3475.0567L13742.3411,-3475.0534L13742.2934,-3475.0517L13742.2647,-3475.0506L13742.2641,-3475.1018L13742.2613,-3475.1401L13742.2572,-3475.2336L13742.2566,-3475.2421L13742.2594,-3475.3294L13742.2589,-3475.3853L13742.2582,-3475.3909"/>
<path content="1,豊鉄バス（株）,岩田団地線,60.5,32.5,32.5," xlink:title="1" d="M13741.6992,-3475.4315L13741.7763,-3475.411L13741.7954,-3475.4054L13741.8043,-3475.4031L13741.8875,-3475.3817L13741.9094,-3475.3801L13741.9434,-3475.3818L13742.0814,-3475.3857L13742.1967,-3475.3891L13742.2497,-3475.3902L13742.2582,-3475.3909"/>
<path content="1,豊鉄バス（株）,岩田団地豊橋市民病院線,4.0,0.0,0.0," xlink:title="1" d="M13742.2582,-3475.3909L13742.2724,-3475.3922L13742.3291,-3475.3936L13742.3946,-3475.3958L13742.4616,-3475.3987L13742.4903,-3475.3992L13742.6921,-3475.4071L13742.8944,-3475.418L13742.9249,-3475.4201L13742.9241,-3475.4129L13742.9249,-3475.3682L13742.9247,-3475.3294L13742.924,-3475.3158L13742.9254,-3475.2623L13742.9265,-3475.2281L13742.9274,-3475.2139L13742.9288,-3475.1553L13742.9309,-3475.1131L13742.9329,-3475.0703L13742.8039,-3475.0665L13742.7843,-3475.0658L13742.7577,-3475.0652L13742.7031,-3475.0635L13742.6459,-3475.0624L13742.4673,-3475.0573L13742.4304,-3475.0567L13742.3411,-3475.0534L13742.2934,-3475.0517L13742.2647,-3475.0506L13742.2641,-3475.1018L13742.2613,-3475.1401L13742.2572,-3475.2336L13742.2566,-3475.2421L13742.2594,-3475.3294L13742.2589,-3475.3853L13742.2582,-3475.3909"/>
<path content="1,豊鉄バス（株）,岩田団地豊橋市民病院線,4.0,0.0,0.0," xlink:title="1" d="M13741.6992,-3475.4315L13741.7763,-3475.411L13741.7954,-3475.4054L13741.8043,-3475.4031L13741.8875,-3475.3817L13741.9094,-3475.3801L13741.9434,-3475.3818L13742.0814,-3475.3857L13742.1967,-3475.3891L13742.2497,-3475.3902L13742.2582,-3475.3909"/>
<path content="1,豊鉄バス（株）,飯村岩崎線_01_on,4.5,0.0,0.0," xlink:title="1" d="M13741.6992,-3474.6982L13741.7643,-3474.6986L13741.8596,-3474.6983L13741.9546,-3474.6997L13742.0732,-3474.7002L13742.0814,-3474.7008L13742.1331,-3474.7009L13742.2218,-3474.7008L13742.2934,-3474.7019L13742.305,-3474.6552L13742.3115,-3474.6372L13742.3207,-3474.618L13742.3391,-3474.5825L13742.3602,-3474.5482L13742.3834,-3474.5149L13742.4127,-3474.4789L13742.4144,-3474.4769L13742.4477,-3474.4379L13742.4776,-3474.4085L13742.5369,-3474.3591L13742.5655,-3474.379L13742.7076,-3474.4574L13742.86,-3474.5412L13742.9307,-3474.5711L13742.9697,-3474.5905L13743.0265,-3474.6243L13743.0844,-3474.6702L13743.1221,-3474.7052L13743.1318,-3474.7172L13743.1655,-3474.7066L13743.244,-3474.6877L13743.2886,-3474.6787L13743.3296,-3474.6671L13743.3718,-3474.6629L13743.4075,-3474.6575"/>
<path content="1,豊鉄バス（株）,飯村岩崎線_02_on,30.0,28.0,28.0," xlink:title="1" d="M13741.6992,-3474.6982L13741.7643,-3474.6986L13741.8596,-3474.6983L13741.9546,-3474.6997L13742.0732,-3474.7002L13742.0814,-3474.7008L13742.1331,-3474.7009L13742.2218,-3474.7008L13742.2934,-3474.7019L13742.305,-3474.6552L13742.3115,-3474.6372L13742.3207,-3474.618L13742.3391,-3474.5825L13742.3602,-3474.5482L13742.3834,-3474.5149L13742.4127,-3474.4789L13742.4144,-3474.4769L13742.4477,-3474.4379L13742.4776,-3474.4085L13742.5369,-3474.3591L13742.5655,-3474.379L13742.7076,-3474.4574L13742.86,-3474.5412L13742.9307,-3474.5711L13742.9697,-3474.5905L13743.0265,-3474.6243L13743.0844,-3474.6702L13743.1221,-3474.7052L13743.1318,-3474.7172L13743.1655,-3474.7066L13743.244,-3474.6877L13743.2886,-3474.6787L13743.3296,-3474.6671L13743.3718,-3474.6629L13743.4075,-3474.6575L13743.4703,-3474.653L13743.5069,-3474.649L13743.5618,-3474.6392L13743.6366,-3474.6243L13743.6803,-3474.6161L13743.7125,-3474.6115L13743.7465,-3474.6084L13743.7707,-3474.6084L13743.7794,-3474.6092L13743.8206,-3474.6159L13743.8431,-3474.6221L13743.8542,-3474.6268L13743.8658,-3474.637L13743.9768,-3474.753L13743.9954,-3474.7663L13744.0161,-3474.7801L13744.0325,-3474.7875L13744.0463,-3474.7923L13744.0675,-3474.796L13744.1696,-3474.8034L13744.3711,-3474.8147L13744.3805,-3474.8517L13744.3892,-3474.885L13744.3929,-3474.9059L13744.3946,-3474.9142L13744.3946,-3474.9227L13744.3824,-3474.9676L13744.3681,-3475.0249L13744.3537,-3475.076L13744.3544,-3475.0861L13744.3585,-3475.0968L13744.3609,-3475.1009L13744.3653,-3475.1075L13744.4538,-3475.2466L13744.5077,-3475.3294L13744.56,-3475.4088L13744.5668,-3475.4241L13744.5682,-3475.4313L13744.5675,-3475.4544L13744.5614,-3475.5158L13744.6835,-3475.5226L13744.7982,-3475.5292L13744.7996,-3475.606L13744.8026,-3475.6343L13744.805,-3475.6527L13744.8098,-3475.6679L13744.8166,-3475.6842L13744.8207,-3475.6916L13744.8666,-3475.7597L13744.8735,-3475.7708L13744.8838,-3475.7862L13744.9012,-3475.8155L13744.9019,-3475.8532L13744.8555,-3475.8515L13744.8398,-3475.851L13744.8398,-3475.8667L13744.8391,-3475.8938L13744.8379,-3475.9403L13744.8371,-3475.9546L13744.8364,-3476.0076L13744.8336,-3476.0458L13744.833,-3476.0742"/>
</g>
</svg>
