<?xml version="1.0" encoding="UTF-8"?>
<svg  xmlns="http://www.w3.org/2000/svg" xmlns:xlink="http://www.w3.org/1999/xlink" xmlns:go="http://purl.org/svgmap/profile" property="N07_001,N07_002,N07_003,N07_004,N07_005,N07_006,N07_007" viewBox="14097.65625 -4078.125 17.578125 17.578125" go:dataArea="14097.65625 -4078.125 17.578125 17.578125" >
<metadata>
 <rdf:RDF xmlns:rdf="http://www.w3.org/1999/02/22-rdf-syntax-ns#" xmlns:crs="http://opengis.org/xmldtds/transformations.dtd" xmlns:svg="http://www.w3.org/svg" >
  <rdf:Description>
   <crs:CoordinateReferenceSystem rdf:resource="http://purl.org/crs/84" svg:transform="matrix(100.0,0.0,0.0,-100.0,0.0,0.0)" />
  </rdf:Description>
 </rdf:RDF>
</metadata>
<globalCoordinateSystem srsName="http://purl.org/crs/84" transform="matrix(100.0,0.0,0.0,-100.0,0.0,0.0)" />
<defs>
 <g id="p0" >
  <circle cx="0.0" cy="0.0" r="3" stroke="green" stroke-width="0.75" vector-effect="non-scaling-stroke" />
 </g>
</defs>
<g fill="none" fill-rule="evenodd" stroke="#FF00FF" stroke-width="0.75" opacity="0.5" vector-effect="non-scaling-stroke" stroke-linejoin="bevel" >
<path content="1,十和田観光電鉄（株）,七戸町～　水喰（東北町）行き,14.0,14.0,12.5," xlink:title="1" d="M14115.2344,-4069.7568L14115.1872,-4069.7473L14115.1671,-4069.7451L14115.1446,-4069.7461L14115.1517,-4069.7895L14115.1561,-4069.8132L14115.1606,-4069.8289L14115.1657,-4069.8616L14115.1827,-4069.9404L14115.1835,-4069.9478L14115.1872,-4069.9607L14115.1895,-4069.9764L14115.185,-4069.9787L14115.151,-4069.9888L14115.1185,-4069.9978L14115.1015,-4070.0046L14115.0785,-4070.0203L14115.0541,-4070.0417L14115.0171,-4070.0801L14115.009,-4070.0913L14115.0038,-4070.1048L14114.9971,-4070.1296L14114.992,-4070.1375L14114.9506,-4070.1797L14114.9461,-4070.1865L14114.9395,-4070.2096L14114.9387,-4070.2174L14114.9365,-4070.2259L14114.8981,-4070.2917L14114.8973,-4070.2934L14114.8892,-4070.3086L14114.8832,-4070.3221L14114.8796,-4070.3391L14114.8781,-4070.3711L14114.8736,-4070.3801L14114.8988,-4070.3836L14114.904,-4070.3852L14114.9187,-4070.3869L14114.9384,-4070.3923L14114.9557,-4070.3936L14115.0201,-4070.4038L14115.0726,-4070.4122L14115.0985,-4070.4162L14115.1731,-4070.4286L14115.2316,-4070.4381L14115.2344,-4070.4386"/>
<path content="1,十和田観光電鉄（株）,十和田市～　野辺地・まかど温泉行き,14.0,14.0,10.0," xlink:title="1" d="M14115.2344,-4075.6074L14115.173,-4075.6018L14115.1336,-4075.5984L14115.1271,-4075.5978L14115.0064,-4075.5877L14114.9526,-4075.5834L14114.9324,-4075.6141L14114.8405,-4075.7656L14114.8265,-4075.7887L14114.8227,-4075.7971L14114.7569,-4075.9216L14114.7441,-4075.9469L14114.7399,-4075.9553L14114.6733,-4076.0825L14114.6533,-4076.118L14114.648,-4076.127L14114.6229,-4076.1693L14114.5466,-4076.2875L14114.5384,-4076.3016L14114.5288,-4076.3166L14114.4659,-4076.4119L14114.4592,-4076.4243L14114.4585,-4076.426L14114.4365,-4076.4597L14114.3934,-4076.5256L14114.3548,-4076.5887L14114.3341,-4076.6326L14114.3276,-4076.6566L14114.3273,-4076.6833L14114.3271,-4076.6887L14114.3271,-4076.6915L14114.3271,-4076.6944L14114.3333,-4076.7741L14114.334,-4076.7799L14114.3356,-4076.7958L14114.3451,-4076.8279L14114.3658,-4076.8787L14114.384,-4076.9242L14114.3918,-4076.9406L14114.3933,-4076.9418L14114.42,-4077.0093L14114.4276,-4077.0279L14114.4303,-4077.038L14114.4365,-4077.0554L14114.4503,-4077.0949L14114.4806,-4077.1821L14114.5183,-4077.4327L14114.5241,-4077.469L14114.5281,-4077.494L14114.5383,-4077.5588L14114.5397,-4077.5846L14114.545,-4077.6022L14114.5739,-4077.7913L14114.579,-4077.8234L14114.5961,-4077.9355L14114.6013,-4077.9687L14114.6124,-4078.0476L14114.6139,-4078.0549L14114.6197,-4078.0999L14114.6197,-4078.1018L14114.6235,-4078.125"/>
<path content="1,十和田観光電鉄（株）,十和田市～　青森市行き,5.0,5.0,4.0," xlink:title="1" d="M14115.2344,-4075.0353L14115.221,-4075.0624L14115.2055,-4075.0984L14115.1985,-4075.1127L14115.1789,-4075.1563L14115.1596,-4075.1986L14115.1556,-4075.208L14115.1292,-4075.269L14115.1204,-4075.2839L14115.1182,-4075.2876L14115.1182,-4075.2893L14115.1082,-4075.3088L14115.0694,-4075.3861L14115.0598,-4075.4052L14115.0213,-4075.4722L14114.9877,-4075.532L14114.9526,-4075.5834L14114.9324,-4075.6141L14114.8405,-4075.7656L14114.8265,-4075.7887L14114.8227,-4075.7971L14114.7569,-4075.9216L14114.7441,-4075.9469L14114.7399,-4075.9553L14114.6733,-4076.0825L14114.6533,-4076.118L14114.648,-4076.127L14114.6229,-4076.1693L14114.5466,-4076.2875L14114.5384,-4076.3016L14114.5288,-4076.3166L14114.4659,-4076.4119L14114.4592,-4076.4243L14114.4585,-4076.426L14114.4365,-4076.4597L14114.3934,-4076.5256L14114.3548,-4076.5887L14114.3341,-4076.6326L14114.3276,-4076.6566L14114.3273,-4076.6833L14114.3271,-4076.6887L14114.2734,-4076.6906L14114.2666,-4076.6893L14114.2622,-4076.6884L14114.2437,-4076.6804L14114.2319,-4076.6777L14114.2149,-4076.6794L14114.1741,-4076.69L14114.1445,-4076.7019L14114.1334,-4076.7114L14114.1201,-4076.7306L14114.1031,-4076.7503L14114.0652,-4076.7846L14114.0112,-4076.8336L14113.9994,-4076.8454L14113.9772,-4076.8758L14113.9713,-4076.8888L14113.9639,-4076.9102L14113.9561,-4076.941L14113.9543,-4076.9513L14113.9483,-4076.9681L14113.935,-4076.9924L14113.895,-4077.0768L14113.8803,-4077.1033L14113.8713,-4077.1129L14113.8514,-4077.1236L14113.8422,-4077.1277L14113.8284,-4077.1303L14113.8069,-4077.1303L14113.7988,-4077.1281L14113.781,-4077.1213L14113.761,-4077.1112L14113.7373,-4077.1016L14113.7151,-4077.0966L14113.6936,-4077.0943L14113.6625,-4077.0921L14113.6418,-4077.0892L14113.6114,-4077.0796L14113.5714,-4077.06L14113.5485,-4077.0526L14113.5344,-4077.0498L14113.5234,-4077.0498L14113.5174,-4077.051L14113.507,-4077.0577L14113.4804,-4077.0898L14113.4768,-4077.0942L14113.3945,-4077.1968L14113.3781,-4077.2131L14113.3515,-4077.2334L14113.3005,-4077.2603L14113.1553,-4077.3273L14113.1139,-4077.3459L14113.1094,-4077.3488L14113.0702,-4077.3663L14113.0813,-4077.3781L14113.1109,-4077.4202L14112.9399,-4077.5031L14112.9349,-4077.5055L14112.9029,-4077.5211L14112.8067,-4077.5683L14112.7541,-4077.5936L14112.6504,-4077.6444L14112.6422,-4077.6477L14112.6289,-4077.655L14112.5646,-4077.686L14112.5342,-4077.7018L14112.4564,-4077.7395L14112.4038,-4077.7653L14112.3957,-4077.7699L14112.3016,-4077.8154L14112.2949,-4077.8183L14112.2676,-4077.8312L14112.2728,-4077.8414L14112.2721,-4077.8566L14112.2736,-4077.8768L14112.2713,-4077.8842L14112.2653,-4077.8927L14112.2379,-4077.9135L14112.2209,-4077.9315L14112.2098,-4077.9489L14112.1743,-4077.9354L14112.1654,-4077.9324L14112.1596,-4077.9314L14112.1447,-4077.9319L14112.1396,-4077.9323L14112.1342,-4077.9314L14112.1287,-4077.9296L14112.1009,-4077.9146L14112.0899,-4077.9117L14112.0624,-4077.9123L14112.0418,-4077.9146L14112.0328,-4077.9151L14112.0003,-4077.9225L14111.9862,-4077.9253L14111.9166,-4077.9444L14111.8966,-4077.9472L14111.8692,-4077.9551L14111.8492,-4077.9636L14111.7982,-4077.9799L14111.7501,-4077.9917L14111.7301,-4077.9991L14111.7005,-4078.0136L14111.6767,-4078.0244L14111.5835,-4078.0587L14111.5316,-4078.0807L14111.5265,-4078.0818L14111.4889,-4078.0972L14111.4635,-4078.1077L14111.4376,-4078.1161L14111.4166,-4078.125M14104.4804,-4078.125L14104.4618,-4078.1115L14104.4314,-4078.0946L14104.4048,-4078.0806L14104.3714,-4078.067L14104.3323,-4078.0535L14104.2829,-4078.0395L14104.2146,-4078.0281L14104.1642,-4078.0276L14104.1212,-4078.031L14104.088,-4078.0361L14104.0446,-4078.0433L14103.9925,-4078.0569L14103.9857,-4078.0586L14103.9576,-4078.0687L14103.8932,-4078.1014L14103.8521,-4078.125M14103.221,-4078.125L14103.2142,-4078.1216L14103.1831,-4078.1024L14103.1499,-4078.0765L14103.1254,-4078.0512L14103.0729,-4077.9989L14103.041,-4077.9713L14103.0114,-4077.9493L14102.961,-4077.9184L14102.9478,-4077.9121L14102.9388,-4077.9071L14102.8782,-4077.8806L14102.8352,-4077.8666L14102.7974,-4077.8581L14102.7123,-4077.8401L14102.6976,-4077.8367L14102.6708,-4077.8294L14102.6434,-4077.8198L14102.5998,-4077.8012L14102.5554,-4077.7808L14102.5166,-4077.757L14102.4902,-4077.7379L14102.4636,-4077.7173L14102.4287,-4077.6875L14102.3606,-4077.6391L14102.3177,-4077.6137L14102.2917,-4077.6019L14102.2474,-4077.5856L14102.1985,-4077.5704L14102.1785,-4077.5647L14102.1259,-4077.5551L14102.1075,-4077.5535L14102.0779,-4077.5512L14102.0245,-4077.5512L14101.9622,-4077.5568L14101.9216,-4077.5625L14101.9039,-4077.5641L14101.889,-4077.567L14101.8624,-4077.5704L14101.8535,-4077.5709L14101.7801,-4077.5799L14101.7712,-4077.5799L14101.7054,-4077.5861L14101.6699,-4077.5878L14101.6454,-4077.589L14101.5706,-4077.589L14101.4352,-4077.5839L14101.4152,-4077.5827L14101.3529,-4077.5811L14101.2655,-4077.5782L14101.2478,-4077.5766L14101.1279,-4077.5765L14101.0709,-4077.5816L14101.0257,-4077.5934L14100.9894,-4077.6064L14100.9806,-4077.6108L14100.9783,-4077.6119L14100.9554,-4077.6259L14100.8859,-4077.6685L14100.8568,-4077.6883L14100.8242,-4077.7064L14100.7714,-4077.7293L14100.7318,-4077.7364L14100.7029,-4077.7415L14100.6688,-4077.7448L14100.6214,-4077.7448L14100.5926,-4077.7432L14100.5718,-4077.7403L14100.5571,-4077.7364L14100.5363,-4077.7313L14100.4956,-4077.7167L14100.4656,-4077.7023L14100.4416,-4077.6908L14100.3823,-4077.657L14100.3761,-4077.6542L14100.341,-4077.6359L14100.297,-4077.6168L14100.2745,-4077.611L14100.2267,-4077.5996L14100.164,-4077.5891L14099.9981,-4077.5664L14099.9659,-4077.5605L14099.9119,-4077.5539L14099.868,-4077.5491L14099.8316,-4077.5491L14099.7876,-4077.5529L14099.6456,-4077.5915L14099.6101,-4077.5923L14099.5457,-4077.5923L14099.4783,-4077.5861L14099.4117,-4077.5765L14099.3073,-4077.5534L14099.2673,-4077.5449L14099.2184,-4077.5314L14099.1859,-4077.5208L14099.1333,-4077.5016L14099.1066,-4077.4898L14099.0614,-4077.4667L14099.0222,-4077.4447L14098.9652,-4077.4138L14098.8623,-4077.3592L14098.8156,-4077.3366L14098.7868,-4077.3254L14098.7705,-4077.3214L14098.7461,-4077.3169L14098.712,-4077.3113L14098.612,-4077.2979L14098.6048,-4077.2957L14098.5631,-4077.2869L14098.4955,-4077.2815L14098.4326,-4077.282L14098.3656,-4077.2881L14098.2966,-4077.3001L14097.9835,-4077.3712L14097.8413,-4077.4034L14097.6562,-4077.4453"/>
<path content="1,東北町,野辺地線6,7.5,7.5,7.5," xlink:title="1" d="M14115.2344,-4075.0353L14115.221,-4075.0624L14115.2055,-4075.0984L14115.1985,-4075.1127L14115.1789,-4075.1563L14115.1596,-4075.1986L14115.1556,-4075.208L14115.1292,-4075.269L14115.1204,-4075.2839L14115.1182,-4075.2876L14115.1182,-4075.2893L14115.1082,-4075.3088L14115.0694,-4075.3861L14115.0598,-4075.4052L14115.0213,-4075.4722L14114.9877,-4075.532L14114.9526,-4075.5834L14114.9324,-4075.6141L14114.8405,-4075.7656L14114.8265,-4075.7887L14114.8227,-4075.7971L14114.7569,-4075.9216L14114.7441,-4075.9469L14114.7399,-4075.9553L14114.6733,-4076.0825L14114.6533,-4076.118L14114.648,-4076.127L14114.6229,-4076.1693L14114.5466,-4076.2875L14114.5384,-4076.3016L14114.5288,-4076.3166L14114.4659,-4076.4119L14114.4592,-4076.4243L14114.4585,-4076.426L14114.4365,-4076.4597L14114.3934,-4076.5256L14114.3548,-4076.5887L14114.3341,-4076.6326L14114.3276,-4076.6566L14114.3273,-4076.6833L14114.3271,-4076.6887L14114.3271,-4076.6915L14114.3271,-4076.6944L14114.3333,-4076.7741L14114.334,-4076.7799L14114.3356,-4076.7958L14114.3451,-4076.8279L14114.3658,-4076.8787L14114.384,-4076.9242L14114.3918,-4076.9406L14114.3933,-4076.9418L14114.42,-4077.0093L14114.4276,-4077.0279L14114.4303,-4077.038L14114.4365,-4077.0554L14114.4503,-4077.0949L14114.4806,-4077.1821L14114.5183,-4077.4327L14114.5241,-4077.469L14114.5281,-4077.494L14114.5383,-4077.5588L14114.5397,-4077.5846L14114.545,-4077.6022L14114.5739,-4077.7913L14114.579,-4077.8234L14114.5961,-4077.9355L14114.6013,-4077.9687L14114.6124,-4078.0476L14114.6139,-4078.0549L14114.6197,-4078.0999L14114.6197,-4078.1018L14114.6235,-4078.125"/>
<path content="1,東北町,野辺地線7,3.0,3.0,3.0," xlink:title="1" d="M14115.1731,-4070.4286L14115.0985,-4070.4162L14115.0726,-4070.4122L14115.0201,-4070.4038L14114.9557,-4070.3936L14114.9384,-4070.3923"/>
<path content="1,東北町,野辺地線7,3.0,3.0,3.0," xlink:title="1" d="M14115.1731,-4070.4286L14115.2316,-4070.4381L14115.2344,-4070.4386"/>
<path content="1,東北町,野辺地線7,3.0,3.0,3.0," xlink:title="1" d="M14115.2344,-4071.2053L14115.1953,-4071.1853L14115.2344,-4071.1428M14115.2344,-4070.9293L14115.2161,-4070.9133L14115.2012,-4070.901L14115.1902,-4070.8897L14115.1672,-4070.8621L14115.1479,-4070.83L14115.1177,-4070.7636L14115.1066,-4070.723L14115.1072,-4070.714L14115.1066,-4070.7009L14115.1066,-4070.6724L14115.1109,-4070.6481L14115.1132,-4070.6437L14115.1228,-4070.6088L14115.1273,-4070.5913L14115.1369,-4070.5586L14115.1406,-4070.549L14115.1561,-4070.4916L14115.1598,-4070.482L14115.1664,-4070.4579L14115.1731,-4070.4286"/>
<path content="3,七戸町,倉岡・蛇坂線,0.6,0.0,0.0," xlink:title="3" d="M14108.6718,-4071.9817L14108.7627,-4071.9814L14108.8277,-4071.9824L14108.8345,-4071.9836L14108.85,-4071.9949L14108.8632,-4071.9994L14108.8921,-4072.0044L14108.8995,-4072.005L14108.9491,-4072.0134L14108.9579,-4072.0157L14109.0001,-4072.0224L14109.0207,-4072.0258L14109.0386,-4072.0258L14109.1014,-4072.0208L14109.1827,-4072.0145L14109.2071,-4072.0145L14109.2337,-4072.0168L14109.2359,-4072.0179L14109.3298,-4072.0292L14109.3521,-4072.0292L14109.3706,-4072.0241L14109.3846,-4072.0235L14109.4104,-4072.0286L14109.4304,-4072.0314"/>
<path content="3,七戸町,倉岡・蛇坂線,0.6,0.0,0.0," xlink:title="3" d="M14109.4304,-4072.0314L14109.4259,-4072.0416L14109.4149,-4072.0545L14109.3964,-4072.0669L14109.3343,-4072.0911L14109.3181,-4072.0996L14109.3099,-4072.1074L14109.3003,-4072.1215L14109.2752,-4072.1733L14109.2418,-4072.2465L14109.2403,-4072.2601L14109.2418,-4072.2673L14109.2442,-4072.2799L14109.2596,-4072.2877L14109.2759,-4072.2955L14109.2869,-4072.2994L14109.3262,-4072.3096L14109.3676,-4072.3259L14109.3802,-4072.3316L14109.4289,-4072.3631L14109.4659,-4072.3884L14109.4703,-4072.3907L14109.5399,-4072.438L14109.5509,-4072.4458L14109.5732,-4072.4594L14109.5983,-4072.4791L14109.7025,-4072.5354L14109.7233,-4072.5477L14109.7854,-4072.5709L14109.8001,-4072.5781L14109.8075,-4072.5844L14109.8156,-4072.5945L14109.8223,-4072.6136L14109.826,-4072.6238L14109.8386,-4072.6328L14109.8541,-4072.6384L14109.8638,-4072.6384L14109.8749,-4072.6328L14109.894,-4072.6097L14109.9178,-4072.6153L14109.9315,-4072.6194L14109.9399,-4072.6198L14109.9429,-4072.6192L14109.9525,-4072.6226L14109.9621,-4072.6351L14109.968,-4072.6451L14109.9703,-4072.666L14109.9761,-4072.6761L14109.9776,-4072.679L14110.016,-4072.6981L14110.0265,-4072.7071L14110.0301,-4072.7127L14110.0294,-4072.719L14110.0265,-4072.724L14110.0139,-4072.7358L14110.002,-4072.7482L14109.9969,-4072.756L14109.9903,-4072.7854L14109.976,-4072.827L14110.0136,-4072.8506L14110.0486,-4072.8653L14110.0538,-4072.8687L14110.0738,-4072.8771L14110.1336,-4072.9036L14110.1625,-4072.9138L14110.1854,-4072.9233L14110.2778,-4072.9588L14110.343,-4072.9824L14110.3643,-4072.9898L14110.374,-4072.9943L14110.4065,-4073.0061L14110.4153,-4073.01L14110.4553,-4073.0241L14110.4665,-4073.0292L14110.5454,-4073.0627L14110.587,-4073.0782L14110.5906,-4073.081L14110.6128,-4073.0922L14110.6402,-4073.1091L14110.6986,-4073.1536L14110.7489,-4073.1874L14110.7866,-4073.2105L14110.7984,-4073.2167L14110.8058,-4073.2222L14110.8169,-4073.2285L14110.8997,-4073.2814L14110.9995,-4073.3631L14111.0543,-4073.4019L14111.0817,-4073.389L14111.0964,-4073.3845L14111.106,-4073.3827L14111.1363,-4073.3833L14111.2257,-4073.3845L14111.2384,-4073.3833L14111.268,-4073.3783L14111.3086,-4073.3721L14111.3086,-4073.3648L14111.3071,-4073.3614L14111.3049,-4073.3547L14111.3057,-4073.3007L14111.3071,-4073.2358L14111.3138,-4073.1795L14111.313,-4073.1744L14111.313,-4073.1683L14111.3124,-4073.1395L14111.3087,-4073.0613L14111.3087,-4073.059L14111.3049,-4073.0224L14111.3005,-4072.979L14111.296,-4072.9336L14111.2953,-4072.9261L14111.2938,-4072.9081L14111.2924,-4072.9014L14111.2938,-4072.7629L14111.2909,-4072.7466L14111.2702,-4072.6896L14111.2643,-4072.6621L14111.2636,-4072.6427"/>
<path content="3,七戸町,倉岡・蛇坂線,0.6,0.0,0.0," xlink:title="3" d="M14109.4304,-4072.0314L14109.4319,-4072.0269L14109.4371,-4072.0179L14109.4533,-4071.9757L14109.4608,-4071.9526L14109.4629,-4071.9408L14109.4682,-4071.9144L14109.4689,-4071.893L14109.4711,-4071.8744L14109.4726,-4071.8721L14109.4933,-4071.6936L14109.4948,-4071.6902L14109.4948,-4071.6818L14109.4984,-4071.6581L14109.5007,-4071.6339L14109.5022,-4071.6261L14109.5126,-4071.5382L14109.5154,-4071.5146L14109.5222,-4071.4532L14109.5236,-4071.4459L14109.5258,-4071.4206L14109.5288,-4071.3958L14109.5303,-4071.3902L14109.5362,-4071.3361L14109.5436,-4071.2769L14109.5509,-4071.2156L14109.5554,-4071.1756L14109.5577,-4071.1677L14109.5609,-4071.1394L14109.5658,-4071.0979L14109.5673,-4071.0956L14109.5679,-4071.0805L14109.5768,-4071.009L14109.5797,-4070.9782L14109.5838,-4070.959L14109.5857,-4070.9481L14109.5917,-4070.9402L14109.6027,-4070.9312L14109.6531,-4070.8981L14109.6886,-4070.8738L14109.7596,-4070.8277L14109.7921,-4070.8085L14109.8231,-4070.7905L14109.9201,-4070.7347L14109.9422,-4070.7196L14109.9776,-4070.7018L14110.1167,-4070.6058L14110.1788,-4070.5653L14110.1892,-4070.5557L14110.1914,-4070.5495L14110.1936,-4070.5259L14110.1992,-4070.4583L14110.2006,-4070.4423L14110.2029,-4070.4133L14110.2047,-4070.3924L14110.2062,-4070.3744L14110.2121,-4070.3536L14110.2366,-4070.3035L14110.2536,-4070.2675L14110.2661,-4070.2765L14110.2977,-4070.3171L14110.3053,-4070.3243L14110.3094,-4070.3298L14110.3303,-4070.3571L14110.3337,-4070.3615L14110.3674,-4070.3496L14110.3763,-4070.348L14110.4399,-4070.3294L14110.4753,-4070.3282L14110.5211,-4070.3255L14110.5374,-4070.3255L14110.5426,-4070.3266L14110.5419,-4070.326L14110.5508,-4070.3311L14110.5566,-4070.3367L14110.5848,-4070.3727L14110.5989,-4070.3795L14110.6106,-4070.3812L14110.6491,-4070.3817L14110.6809,-4070.3784L14110.7098,-4070.3778L14110.7341,-4070.3817L14110.7645,-4070.3908L14110.8384,-4070.3716L14110.8843,-4070.3586L14110.9154,-4070.3531L14110.9479,-4070.3502L14110.9811,-4070.3496L14110.9952,-4070.3508L14110.9974,-4070.3525L14111.0093,-4070.357L14111.0189,-4070.3631L14111.0344,-4070.3857L14111.041,-4070.3998L14111.044,-4070.4172L14111.0425,-4070.4487L14111.0395,-4070.4949L14111.0395,-4070.523L14111.0447,-4070.5344L14111.0572,-4070.5489L14111.0625,-4070.5495L14111.0661,-4070.5518L14111.0765,-4070.554L14111.1017,-4070.554L14111.1091,-4070.5529L14111.1261,-4070.5512L14111.1408,-4070.5479L14111.1541,-4070.5456L14111.1586,-4070.5439L14111.2162,-4070.5321L14111.2318,-4070.5287L14111.2488,-4070.5259L14111.2732,-4070.5203L14111.3035,-4070.514L14111.311,-4070.5135L14111.3975,-4070.495L14111.4477,-4070.4854L14111.4788,-4070.4786L14111.4981,-4070.4758L14111.501,-4070.4746L14111.5395,-4070.4701L14111.6363,-4070.4673L14111.6614,-4070.4662L14111.7013,-4070.4651L14111.7124,-4070.4651L14111.8209,-4070.4641L14111.8678,-4070.4606L14111.9358,-4070.4583L14111.9691,-4070.4578L14112.0525,-4070.455L14112.145,-4070.4525L14112.3269,-4070.4476L14112.4579,-4070.4431L14112.4844,-4070.4398L14112.551,-4070.4246L14112.565,-4070.4207L14112.642,-4070.4026L14112.7019,-4070.3891L14112.7691,-4070.3727L14112.8157,-4070.3615L14112.8246,-4070.3598L14112.8713,-4070.348L14112.8994,-4070.3423L14112.9392,-4070.3328L14113.0309,-4070.3119L14113.1086,-4070.2934L14113.1286,-4070.2894L14113.1337,-4070.2878L14113.1456,-4070.2855L14113.3164,-4070.2455L14113.3224,-4070.2444L14113.3784,-4070.2314L14113.3896,-4070.2281L14113.3969,-4070.2269L14113.4302,-4070.2202L14113.4362,-4070.2253L14113.4479,-4070.2404L14113.4524,-4070.25L14113.4538,-4070.2585L14113.4534,-4070.3465L14113.5305,-4070.3382L14113.5869,-4070.3334L14113.7363,-4070.3204L14113.7652,-4070.3159L14113.7674,-4070.3148L14113.8096,-4070.3058L14113.8443,-4070.2984L14113.8451,-4070.2974L14113.8976,-4070.2861L14114.0248,-4070.2579L14114.0507,-4070.2489L14114.1128,-4070.2163L14114.1254,-4070.2109L14114.1409,-4070.2L14114.1948,-4070.169L14114.2895,-4070.1144L14114.3073,-4070.1048L14114.3058,-4070.1222L14114.3035,-4070.2056L14114.2931,-4070.2236L14114.2725,-4070.2506L14114.2688,-4070.2608L14114.2688,-4070.2613L14114.2695,-4070.2968L14114.271,-4070.3154L14114.2776,-4070.3863L14114.2806,-4070.4144L14114.3035,-4070.4147L14114.3146,-4070.4128L14114.3789,-4070.4089L14114.3996,-4070.4083L14114.4757,-4070.4038L14114.4825,-4070.4026L14114.5475,-4070.3987L14114.549,-4070.3987L14114.6156,-4070.3948L14114.62,-4070.3936L14114.6377,-4070.393L14114.6704,-4070.3919L14114.6791,-4070.3914L14114.7415,-4070.386L14114.7509,-4070.3863L14114.8537,-4070.3796L14114.8736,-4070.3801L14114.8677,-4070.3914L14114.8647,-4070.4038L14114.8603,-4070.4325L14114.8566,-4070.4702L14114.8545,-4070.4927L14114.8485,-4070.5468L14114.8403,-4070.6397L14114.839,-4070.6566L14114.8375,-4070.6656L14114.8381,-4070.6858L14114.8463,-4070.7123L14114.85,-4070.7202L14114.8847,-4070.7675L14114.8885,-4070.7737L14114.8958,-4070.7957L14114.8958,-4070.8216L14114.8936,-4070.8357L14114.8832,-4070.8661L14114.8736,-4070.8897L14114.8433,-4070.937L14114.8307,-4070.9539L14114.8078,-4070.9848L14114.8345,-4070.9989L14114.8699,-4071.0164L14114.9513,-4071.0597L14114.9683,-4071.0676L14114.9949,-4071.0822L14115.0356,-4071.1026L14115.0504,-4071.1099L14115.0614,-4071.1161L14115.1539,-4071.1645L14115.1953,-4071.1853L14115.2344,-4071.1428M14115.2344,-4070.9293L14115.2161,-4070.9133L14115.2012,-4070.901L14115.1902,-4070.8897L14115.1672,-4070.8621L14115.1479,-4070.83L14115.1177,-4070.7636L14115.1066,-4070.723L14115.1072,-4070.714L14115.1066,-4070.7009L14115.1066,-4070.6724L14115.1109,-4070.6481L14115.1132,-4070.6437L14115.1228,-4070.6088L14115.1273,-4070.5913L14115.1369,-4070.5586L14115.1406,-4070.549L14115.1561,-4070.4916L14115.1598,-4070.482L14115.1664,-4070.4579L14115.1731,-4070.4286L14115.1806,-4070.3875L14115.1857,-4070.3661L14115.1923,-4070.3306L14115.1917,-4070.3097L14115.1887,-4070.303L14115.1525,-4070.1859L14115.1495,-4070.1696L14115.1495,-4070.1442L14115.1561,-4070.1307L14115.1665,-4070.1194L14115.2087,-4070.0868L14115.2242,-4070.0716L14115.2344,-4070.0584M14115.2344,-4069.7568L14115.1872,-4069.7473L14115.1671,-4069.7451L14115.1635,-4069.7274L14115.1646,-4069.6913L14115.2344,-4069.7012"/>
<path content="3,七戸町,向原子・小又線,0.6,0.0,0.0," xlink:title="3" d="M14115.2344,-4069.7568L14115.1872,-4069.7473L14115.1671,-4069.7451L14115.1635,-4069.7274"/>
<path content="3,七戸町,向原子・小又線,0.6,0.0,0.0," xlink:title="3" d="M14115.2344,-4075.6074L14115.173,-4075.6018L14115.1336,-4075.5984L14115.1271,-4075.5978L14115.0064,-4075.5877L14114.9526,-4075.5834L14114.9877,-4075.532L14115.0213,-4075.4722L14115.0598,-4075.4052L14115.0694,-4075.3861L14115.1082,-4075.3088L14115.1182,-4075.2893L14115.1182,-4075.2876L14115.1204,-4075.2839L14115.1292,-4075.269L14115.1556,-4075.208L14115.1596,-4075.1986L14115.1789,-4075.1563"/>
<path content="3,七戸町,向原子・小又線,0.6,0.0,0.0," xlink:title="3" d="M14115.1789,-4075.1563L14115.1985,-4075.1127L14115.2055,-4075.0984L14115.221,-4075.0624L14115.2344,-4075.0353"/>
<path content="3,七戸町,向原子・小又線,0.6,0.0,0.0," xlink:title="3" d="M14115.1789,-4075.1563L14115.1596,-4075.1547L14115.1464,-4075.153L14115.1094,-4075.1496L14114.9933,-4075.1401L14114.9621,-4075.1373L14114.8911,-4075.1305L14114.8454,-4075.1271L14114.7589,-4075.1193L14114.6487,-4075.1097L14114.6302,-4075.108L14114.5696,-4075.1068L14114.3773,-4075.1005L14114.3041,-4075.0973L14114.2622,-4075.0956L14114.2042,-4075.0933L14114.1599,-4075.0922L14114.0652,-4075.0877L14114.009,-4075.086L14113.9632,-4075.0838L14113.9136,-4075.0832L14113.8989,-4075.0832L14113.8101,-4075.0819L14113.7797,-4075.0787L14113.6689,-4075.0748L14113.6082,-4075.1479L14113.5758,-4075.1941L14113.5616,-4075.2161L14113.5328,-4075.2689L14113.5028,-4075.3343L14113.4456,-4075.4615L14113.4109,-4075.5432L14113.3946,-4075.5736L14113.3812,-4075.5922L14113.3405,-4075.6394L14113.306,-4075.674L14113.2539,-4075.7301L14113.2487,-4075.7346L14113.1991,-4075.7897L14113.1895,-4075.8066L14113.1865,-4075.8139L14113.185,-4075.8168L14113.1702,-4075.9164L14113.1376,-4076.1428L14113.1206,-4076.265L14113.1924,-4076.2706L14113.2087,-4076.2711L14113.2309,-4076.2734L14113.3649,-4076.2836L14113.3678,-4076.2837L14113.4397,-4076.2886L14113.4604,-4076.2908L14113.4716,-4076.2914L14113.4812,-4076.2926L14113.5797,-4076.2993L14113.6256,-4076.3026L14113.6722,-4076.3061L14113.7529,-4076.3122L14113.7796,-4076.3134L14113.7811,-4076.3134L14113.7736,-4076.3596L14113.7683,-4076.3949L14113.7592,-4076.4486L14113.855,-4076.4466L14113.9358,-4076.444L14114.103,-4076.4376L14114.3651,-4076.4288L14114.423,-4076.4272L14114.4585,-4076.426L14114.4365,-4076.4597L14114.3934,-4076.5256L14114.3548,-4076.5887L14114.3341,-4076.6326L14114.3276,-4076.6566L14114.3273,-4076.6833L14114.3271,-4076.6887L14114.2734,-4076.6906L14114.2666,-4076.6893L14114.2622,-4076.6884L14114.2437,-4076.6804L14114.2319,-4076.6777L14114.2149,-4076.6794L14114.1741,-4076.69L14114.1445,-4076.7019L14114.1334,-4076.7114L14114.1201,-4076.7306L14114.1031,-4076.7503L14114.0652,-4076.7846L14114.0112,-4076.8336L14113.9994,-4076.8454L14113.9772,-4076.8758L14113.9713,-4076.8888L14113.9639,-4076.9102L14113.9561,-4076.941L14113.9543,-4076.9513L14113.9483,-4076.9681L14113.935,-4076.9924L14113.895,-4077.0768L14113.8803,-4077.1033L14113.8713,-4077.1129L14113.8514,-4077.1236L14113.8422,-4077.1277L14113.8284,-4077.1303L14113.8069,-4077.1303L14113.7988,-4077.1281L14113.781,-4077.1213L14113.761,-4077.1112L14113.7373,-4077.1016L14113.7151,-4077.0966L14113.6936,-4077.0943L14113.6625,-4077.0921L14113.6418,-4077.0892L14113.6114,-4077.0796L14113.5714,-4077.06L14113.5485,-4077.0526L14113.5344,-4077.0498L14113.5234,-4077.0498L14113.5174,-4077.051L14113.507,-4077.0577L14113.4804,-4077.0898L14113.4768,-4077.0942L14113.3945,-4077.1968L14113.3781,-4077.2131L14113.3515,-4077.2334L14113.3005,-4077.2603L14113.1553,-4077.3273L14113.1139,-4077.3459L14113.1094,-4077.3488L14113.0702,-4077.3663L14113.0813,-4077.3781L14113.1109,-4077.4202L14112.9399,-4077.5031L14112.9349,-4077.5055L14112.9029,-4077.5211L14112.8067,-4077.5683L14112.7541,-4077.5936L14112.6504,-4077.6444L14112.6422,-4077.6477L14112.6289,-4077.655L14112.5646,-4077.686L14112.5342,-4077.7018L14112.4564,-4077.7395L14112.4038,-4077.7653L14112.3957,-4077.7699L14112.3016,-4077.8154L14112.2949,-4077.8183L14112.2676,-4077.8312L14112.2728,-4077.8414L14112.2721,-4077.8566L14112.2736,-4077.8768L14112.2713,-4077.8842L14112.2653,-4077.8927L14112.2379,-4077.9135L14112.2209,-4077.9315L14112.2098,-4077.9489L14112.1951,-4077.9697L14112.1824,-4077.9838L14112.1654,-4077.9934L14112.1447,-4078.0016L14112.1252,-4078.0079L14112.1126,-4078.0166L14112.1074,-4078.0282L14112.0899,-4078.0931L14112.0886,-4078.1005L14112.0841,-4078.125"/>
<path content="3,七戸町,寺沢・底田・鳥谷部線,0.6,0.0,0.0," xlink:title="3" d="M14115.1635,-4069.7274L14115.1671,-4069.7451L14115.1872,-4069.7473L14115.2344,-4069.7568"/>
<path content="3,七戸町,寺沢・底田・鳥谷部線,0.6,0.0,0.0," xlink:title="3" d="M14113.4982,-4073.1373L14113.459,-4073.1317L14113.4537,-4073.13L14113.4494,-4073.1232L14113.4479,-4073.1226L14113.428,-4073.0917L14113.428,-4073.063L14113.4324,-4072.9966L14113.4341,-4072.9853"/>
<path content="3,七戸町,寺沢・底田・鳥谷部線,0.6,0.0,0.0," xlink:title="3" d="M14113.4982,-4073.1373L14113.506,-4073.1293L14113.51,-4073.0146L14113.51,-4072.9752L14113.584,-4072.9893L14113.5928,-4072.9915L14113.6393,-4073.0005L14113.6646,-4073.0062L14113.7096,-4073.0146L14113.7392,-4073.0207L14113.7415,-4073.0219L14113.7577,-4073.0242L14113.76,-4073.0253L14113.7902,-4073.0297L14113.7962,-4073.0309L14113.8235,-4073.0337L14113.8982,-4073.0388L14113.9042,-4073.0399L14113.9781,-4073.045L14114.1437,-4073.0568L14114.1518,-4073.0585L14114.1674,-4073.0591L14114.1771,-4073.0597L14114.1733,-4073.0867L14114.1696,-4073.1204L14114.1667,-4073.134L14114.1644,-4073.1418L14114.1452,-4073.1824L14114.1408,-4073.1914L14114.1326,-4073.2032L14114.1289,-4073.2061L14114.1334,-4073.2708L14114.1378,-4073.2876L14114.1548,-4073.3423L14114.1607,-4073.3693L14114.16,-4073.3716L14114.1622,-4073.3946L14114.16,-4073.4132L14114.1518,-4073.4419L14114.1518,-4073.465L14114.1522,-4073.4711L14114.1533,-4073.4909L14114.151,-4073.5151L14114.1495,-4073.581L14114.1482,-4073.5844L14114.1325,-4073.6074L14114.1289,-4073.617L14114.1261,-4073.6406L14114.1252,-4073.6846L14114.12,-4073.697L14114.1799,-4073.6953L14114.1954,-4073.6964L14114.2376,-4073.7048L14114.2531,-4073.7071L14114.2805,-4073.7139L14114.4106,-4073.7139L14114.4639,-4073.7122L14114.492,-4073.7089L14114.5207,-4073.7027L14114.5415,-4073.6954L14114.5704,-4073.6813L14114.6081,-4073.6627L14114.6191,-4073.6587L14114.6287,-4073.6559L14114.7094,-4073.6474L14114.7656,-4073.648L14114.8107,-4073.6525L14114.8514,-4073.6599L14114.9008,-4073.6699L14114.9164,-4073.6705L14114.9378,-4073.6672L14114.9578,-4073.6627L14114.9718,-4073.6604L14114.9948,-4073.6554L14115.0169,-4073.6514L14115.0384,-4073.6469L14115.0754,-4073.6413L14115.1434,-4073.6424L14115.1641,-4073.6446L14115.2016,-4073.6466L14115.2086,-4073.6469L14115.2239,-4073.6451L14115.2344,-4073.6439"/>
<path content="3,七戸町,寺沢・底田・鳥谷部線,0.6,0.0,0.0," xlink:title="3" d="M14110.015,-4073.3585L14110.0275,-4073.3871L14110.0345,-4073.4053L14110.0398,-4073.4306L14110.0413,-4073.47L14110.0538,-4073.5066L14110.059,-4073.5246L14110.0626,-4073.5472L14110.0635,-4073.5718L14110.0648,-4073.6069L14110.0678,-4073.6198L14110.0775,-4073.6373L14110.1396,-4073.7009L14110.1706,-4073.7347L14110.1787,-4073.7488L14110.1817,-4073.7578L14110.184,-4073.7758L14110.1876,-4073.8388L14110.1942,-4073.8579L14110.1942,-4073.8607L14110.1972,-4073.8613L14110.2106,-4073.8681L14110.2727,-4073.8771L14110.2778,-4073.8787L14110.3169,-4073.8838L14110.3296,-4073.8861L14110.3702,-4073.8895L14110.5167,-4073.8906L14110.5314,-4073.8928L14110.5441,-4073.8962L14110.5469,-4073.8962L14110.5951,-4073.9238L14110.6076,-4073.9277L14110.714,-4073.9537L14110.7282,-4073.9565L14110.7385,-4073.961L14110.7304,-4073.9779L14110.7304,-4074.0066L14110.734,-4074.0246"/>
<path content="3,七戸町,寺沢・底田・鳥谷部線,0.6,0.0,0.0," xlink:title="3" d="M14110.734,-4074.0246L14110.7784,-4074.0094L14110.788,-4074.0111L14110.8154,-4074.0055L14110.9064,-4074.0055L14110.9351,-4074.0032L14110.9936,-4073.9987L14111.0069,-4073.9998L14111.032,-4074.0055L14111.1126,-4074.0212L14111.1356,-4074.0308L14111.1453,-4074.037L14111.1666,-4074.0505L14111.191,-4074.0691L14111.214,-4074.0888L14111.214,-4074.1823L14111.214,-4074.184L14111.2147,-4074.1964L14111.2161,-4074.2009L14111.2244,-4074.2667L14111.2331,-4074.3371L14111.2361,-4074.358L14111.2369,-4074.367L14111.2399,-4074.3816L14111.2435,-4074.4007L14111.2524,-4074.4255L14111.3278,-4074.5539L14111.3707,-4074.6276L14111.3736,-4074.6333L14111.4166,-4074.7065L14111.4277,-4074.7262L14111.4409,-4074.7425L14111.4557,-4074.7566L14111.4787,-4074.7718L14111.4986,-4074.7813L14111.5571,-4074.8101L14111.6103,-4074.836L14111.6406,-4074.8551L14111.7323,-4074.9176L14111.7411,-4074.9291L14111.7538,-4074.9441L14111.7781,-4075.0032L14111.8225,-4075.1101L14111.8276,-4075.1259L14111.8299,-4075.1715L14111.8299,-4075.1822L14111.8276,-4075.1929L14111.821,-4075.256L14111.8198,-4075.2689L14111.8169,-4075.3517L14111.9385,-4075.3452L14111.9471,-4075.3416L14111.9798,-4075.3393L14112.0279,-4075.3371L14112.0538,-4075.3365L14112.1448,-4075.3284L14112.2116,-4075.3167L14112.2482,-4075.3083L14112.3035,-4075.2893L14112.3246,-4075.2809L14112.3533,-4075.2689L14112.4051,-4075.2408L14112.4281,-4075.2279L14112.488,-4075.185L14112.6277,-4075.0826L14112.7121,-4075.0223L14112.7238,-4075.0133L14112.8184,-4074.9463L14112.8296,-4074.9402L14112.8688,-4074.9261L14112.8888,-4074.9222L14112.8902,-4074.921L14112.9021,-4074.9193L14112.9619,-4074.9058L14112.9849,-4074.8996L14112.9997,-4074.8951L14113.0233,-4074.8917L14113.0248,-4074.8917L14113.0492,-4074.8867L14113.0788,-4074.8816L14113.1046,-4074.8759L14113.1379,-4074.8562L14113.1498,-4074.8512L14113.1587,-4074.8489L14113.1698,-4074.8478L14113.2157,-4074.8557L14113.2444,-4074.8602L14113.3058,-4074.8698L14113.3088,-4074.8709L14113.3917,-4074.8838L14113.4353,-4074.8923L14113.4374,-4074.8957L14113.4463,-4074.9041L14113.4551,-4074.9193L14113.4559,-4074.9328L14113.4337,-4074.9835L14113.427,-4074.997L14113.4241,-4075.0055L14113.4074,-4075.0396L14113.4023,-4075.0537"/>
<path content="3,七戸町,寺沢・底田・鳥谷部線,0.6,0.0,0.0," xlink:title="3" d="M14110.734,-4074.0246L14110.7289,-4074.0319L14110.6927,-4074.0472L14110.6919,-4074.0494L14110.6853,-4074.0527L14110.6808,-4074.0617L14110.6757,-4074.0747L14110.6645,-4074.0978L14110.6483,-4074.1203L14110.6409,-4074.1266L14110.5359,-4074.1671L14110.5322,-4074.1693L14110.4886,-4074.1856L14110.4664,-4074.1991L14110.4642,-4074.2009L14110.4546,-4074.2093L14110.4316,-4074.2363L14110.4308,-4074.2397L14110.4234,-4074.252L14110.4072,-4074.2869L14110.3932,-4074.3214L14110.3851,-4074.3506L14110.3791,-4074.3889L14110.3783,-4074.4311L14110.3821,-4074.4587L14110.3843,-4074.4654L14110.3917,-4074.4942L14110.399,-4074.5201L14110.402,-4074.5364L14110.4087,-4074.5595L14110.4168,-4074.5944L14110.4398,-4074.6603L14110.4404,-4074.6659L14110.4494,-4074.6907L14110.4685,-4074.7476L14110.473,-4074.7582L14110.4819,-4074.7717L14110.5122,-4074.8011L14110.5455,-4074.8348L14110.6556,-4074.9666L14110.6934,-4075.0133L14110.7081,-4075.0353L14110.7755,-4075.1631L14110.7495,-4075.1704L14110.72,-4075.1766L14110.7185,-4075.1777L14110.6897,-4075.1846L14110.6594,-4075.1929L14110.6394,-4075.1969L14110.6282,-4075.2042L14110.6239,-4075.2053L14110.6239,-4075.2059L14110.6254,-4075.2087L14110.626,-4075.2166L14110.6592,-4075.2689L14110.6685,-4075.2881L14110.6685,-4075.3022L14110.6611,-4075.3157L14110.65,-4075.3326L14110.6464,-4075.3427L14110.6441,-4075.3674L14110.6431,-4075.3883L14110.6449,-4075.3939L14110.6471,-4075.399L14110.6404,-4075.4092L14110.636,-4075.4159L14110.6279,-4075.4367L14110.6249,-4075.4513L14110.6271,-4075.4576L14110.6345,-4075.4739L14110.6545,-4075.4986L14110.6722,-4075.5111L14110.7137,-4075.5296L14110.7856,-4075.5651L14110.7929,-4075.5691L14110.8077,-4075.5769L14110.8403,-4075.5971L14110.8854,-4075.6326L14110.8958,-4075.6416L14110.9209,-4075.6602L14110.9284,-4075.6692L14110.9402,-4075.6884L14110.9602,-4075.7149L14110.9639,-4075.7233L14110.9662,-4075.7402L14110.9639,-4075.7627L14110.9654,-4075.7694L14110.9928,-4075.8162L14111.0698,-4075.9367L14111.0949,-4075.989L14111.0986,-4076.0008L14111.1075,-4076.0211L14111.1438,-4076.096L14111.1534,-4076.1168L14111.1541,-4076.1321L14111.1505,-4076.1495L14111.146,-4076.1613L14111.1445,-4076.1754L14111.1564,-4076.1951L14111.1586,-4076.2086L14111.1556,-4076.2142L14111.1328,-4076.2356L14111.1283,-4076.2413L14111.1298,-4076.2576L14111.1349,-4076.2717L14111.143,-4076.2998L14111.1467,-4076.315L14111.166,-4076.3792L14111.1905,-4076.4293L14111.1979,-4076.4502L14111.1956,-4076.4535L14111.1697,-4076.4772L14111.1734,-4076.4918L14111.1926,-4076.5093L14111.2141,-4076.5233L14111.2378,-4076.5368L14111.2741,-4076.5554L14111.2771,-4076.5582L14111.3045,-4076.5734L14111.3118,-4076.5768L14111.3452,-4076.5987L14111.3673,-4076.6111L14111.381,-4076.6155L14111.3955,-4076.6117L14111.4518,-4076.5796L14111.4792,-4076.5656L14111.5096,-4076.5509L14111.5276,-4076.5383L14111.5673,-4076.5172L14111.5886,-4076.5078L14111.5939,-4076.5053L14111.6191,-4076.4986L14111.6398,-4076.4923L14111.6413,-4076.4913L14111.7198,-4076.4665L14111.7768,-4076.4445L14111.7872,-4076.4406L14111.8412,-4076.4198L14111.8774,-4076.4068L14111.9078,-4076.3949L14111.9204,-4076.3894L14111.9819,-4076.3499L14111.9989,-4076.3375L14112.0085,-4076.3302L14112.0085,-4076.3032L14112.0027,-4076.2739L14111.993,-4076.2221L14111.9804,-4076.1506L14111.9731,-4076.1168L14111.9671,-4076.0808L14111.9627,-4076.0583L14111.9531,-4076.011L14112.1448,-4075.8949L14112.4003,-4075.7402L14112.492,-4075.6856L14112.5017,-4075.68L14112.526,-4075.6653L14112.6157,-4075.6118L14112.6734,-4075.5775L14112.7208,-4075.5487L14112.7345,-4075.5406L14112.8845,-4075.4513L14112.8867,-4075.4508L14112.8889,-4075.4485L14113.0008,-4075.3799L14113.0674,-4075.3382L14113.0873,-4075.3231L14113.1103,-4075.3055L14113.131,-4075.2866L14113.1452,-4075.2741L14113.1511,-4075.2689L14113.2393,-4075.1941L14113.3169,-4075.1293L14113.3871,-4075.0702L14113.3909,-4075.0657L14113.6689,-4075.0748L14113.7797,-4075.0787L14113.8101,-4075.0819L14113.8989,-4075.0832L14113.9136,-4075.0832"/>
<path content="3,七戸町,寺沢・底田・鳥谷部線,0.6,0.0,0.0," xlink:title="3" d="M14113.9136,-4075.0832L14113.9144,-4075.0725L14113.9174,-4075.0127L14113.9196,-4074.9953L14113.9225,-4074.93L14113.9255,-4074.8906L14113.9394,-4074.6967L14113.927,-4074.6688L14113.8974,-4074.6136L14113.8937,-4074.5449L14113.8937,-4074.5022L14113.9062,-4074.4836L14113.9425,-4074.4453L14113.9795,-4074.4092L14114.0209,-4074.3743L14114.0254,-4074.367L14114.0254,-4074.3523L14114.0239,-4074.3327L14114.0246,-4074.3147L14114.0283,-4074.3045L14114.0305,-4074.2679L14114.0409,-4074.2544L14114.0637,-4074.2296L14114.0749,-4074.2212L14114.1119,-4074.2026L14114.1193,-4074.1974L14114.118,-4074.1899L14114.1223,-4074.162L14114.128,-4074.1566L14114.153,-4074.1337L14114.1731,-4074.1023L14114.1731,-4074.0899L14114.1666,-4074.0793L14114.1562,-4074.0658L14114.1408,-4074.0517L14114.1007,-4074.0292L14114.0868,-4074.023L14114.0371,-4074.0021L14114.0202,-4073.996L14114.0024,-4073.9881L14113.9633,-4073.9633L14113.9595,-4073.9605L14113.9537,-4073.9526L14113.9507,-4073.9436L14113.9507,-4073.9149L14113.9514,-4073.8884L14113.9529,-4073.8834L14113.9544,-4073.8586L14113.8959,-4073.8586L14113.8494,-4073.858L14113.8419,-4073.8546L14113.8345,-4073.8501L14113.8278,-4073.8296L14113.8168,-4073.8085L14113.8043,-4073.7854L14113.7983,-4073.7787L14113.7666,-4073.7538L14113.7466,-4073.7364L14113.7214,-4073.7212L14113.6829,-4073.6981L14113.6549,-4073.675L14113.6431,-4073.6688L14113.6297,-4073.6649L14113.6127,-4073.6621L14113.5684,-4073.6508L14113.5824,-4073.6396L14113.5943,-4073.621L14113.5972,-4073.6086L14113.6017,-4073.5793L14113.6046,-4073.5737L14113.6142,-4073.5618L14113.6209,-4073.5573L14113.6274,-4073.5526L14113.6253,-4073.5343L14113.6217,-4073.4847L14113.6142,-4073.4498L14113.6127,-4073.4369L14113.615,-4073.4154L14113.6187,-4073.4036L14113.6187,-4073.385L14113.6127,-4073.3664L14113.6076,-4073.3603L14113.598,-4073.3535L14113.5825,-4073.3423L14113.5795,-4073.3384L14113.5551,-4073.2939L14113.5455,-4073.2679L14113.524,-4073.2004L14113.4982,-4073.1373"/>
<path content="3,七戸町,寺沢・底田・鳥谷部線,0.6,0.0,0.0," xlink:title="3" d="M14113.9136,-4075.0832L14113.9632,-4075.0838L14114.009,-4075.086L14114.0652,-4075.0877L14114.1599,-4075.0922L14114.2042,-4075.0933L14114.2622,-4075.0956L14114.3041,-4075.0973L14114.3773,-4075.1005L14114.5696,-4075.1068L14114.6302,-4075.108L14114.6487,-4075.1097L14114.7589,-4075.1193L14114.8454,-4075.1271L14114.8911,-4075.1305L14114.9621,-4075.1373L14114.9933,-4075.1401L14115.1094,-4075.1496L14115.1464,-4075.153L14115.1596,-4075.1547L14115.1789,-4075.1563L14115.1985,-4075.1127L14115.2055,-4075.0984L14115.221,-4075.0624L14115.2344,-4075.0353"/>
<path content="3,七戸町,柳平・坪線,0.6,0.0,0.0," xlink:title="3" d="M14115.2344,-4069.7568L14115.1872,-4069.7473L14115.1671,-4069.7451L14115.1635,-4069.7274"/>
<path content="3,七戸町,柳平・坪線,0.6,0.0,0.0," xlink:title="3" d="M14113.8615,-4078.0779L14113.8491,-4078.101L14113.8388,-4078.125M14115.2344,-4077.8438L14115.1921,-4077.8224L14115.1277,-4077.7914L14115.0943,-4077.779L14115.0743,-4077.7745L14115.0566,-4077.7723L14115.0262,-4077.7717L14114.9907,-4077.7739L14114.9596,-4077.7801L14114.9181,-4077.7868L14114.8841,-4077.7908L14114.8589,-4077.7913L14114.8249,-4077.7903L14114.8211,-4077.7891L14114.7841,-4077.7846L14114.7456,-4077.7778L14114.7411,-4077.7772L14114.7234,-4077.7756L14114.6865,-4077.7751L14114.6642,-4077.7762L14114.5739,-4077.7913L14114.545,-4077.6022L14114.5397,-4077.5846L14114.5383,-4077.5588L14114.5281,-4077.494L14114.5241,-4077.469L14114.5183,-4077.4327L14114.4806,-4077.1821L14114.4503,-4077.0949L14114.4365,-4077.0554L14114.4303,-4077.038L14114.4276,-4077.0279L14114.42,-4077.0093L14114.3933,-4076.9418L14114.3918,-4076.9406L14114.384,-4076.9242L14114.3658,-4076.8787L14114.3451,-4076.8279L14114.3356,-4076.7958L14114.334,-4076.7799L14114.3333,-4076.7741L14114.3271,-4076.6944L14114.3271,-4076.6915L14114.3271,-4076.6887L14114.3273,-4076.6833L14114.3276,-4076.6566L14114.3341,-4076.6326L14114.3548,-4076.5887L14114.3934,-4076.5256L14114.4365,-4076.4597L14114.4585,-4076.426L14114.4592,-4076.4243L14114.4659,-4076.4119L14114.5288,-4076.3166L14114.5384,-4076.3016L14114.5466,-4076.2875L14114.6229,-4076.1693L14114.648,-4076.127L14114.6533,-4076.118L14114.6733,-4076.0825L14114.7399,-4075.9553L14114.7441,-4075.9469L14114.7569,-4075.9216L14114.8227,-4075.7971L14114.8265,-4075.7887L14114.8405,-4075.7656L14114.9324,-4075.6141L14114.9526,-4075.5834L14114.9877,-4075.532L14115.0213,-4075.4722L14115.0598,-4075.4052L14115.0694,-4075.3861L14115.1082,-4075.3088L14115.1182,-4075.2893L14115.1182,-4075.2876L14115.1204,-4075.2839L14115.1292,-4075.269L14115.1556,-4075.208L14115.1596,-4075.1986L14115.1789,-4075.1563L14115.1985,-4075.1127L14115.2055,-4075.0984L14115.221,-4075.0624L14115.2344,-4075.0353"/>
<path content="3,七戸町,榎林・荒熊内線,0.6,0.0,0.0," xlink:title="3" d="M14115.2344,-4069.7568L14115.1872,-4069.7473L14115.1671,-4069.7451L14115.1635,-4069.7274"/>
<path content="3,七戸町,榎林・荒熊内線,0.6,0.0,0.0," xlink:title="3" d="M14115.2344,-4072.285L14115.2093,-4072.2788L14115.1938,-4072.2793L14115.1737,-4072.2832L14115.1701,-4072.2855L14115.145,-4072.295L14115.1324,-4072.2968L14115.0007,-4072.3046L14114.9896,-4072.308L14114.969,-4072.3187L14114.9556,-4072.335L14114.9424,-4072.3491L14114.9084,-4072.3889L14114.8788,-4072.42L14114.7804,-4072.3311L14114.7553,-4072.3091L14114.7294,-4072.2855L14114.7198,-4072.2731L14114.7058,-4072.2427L14114.6975,-4072.2303L14114.685,-4072.2179L14114.6703,-4072.2072L14114.6399,-4072.1954L14114.6096,-4072.1853L14114.5401,-4072.1627L14114.3959,-4072.1154L14114.3442,-4072.0979L14114.319,-4072.0895L14114.3108,-4072.0873L14114.2621,-4072.0715L14114.2591,-4072.0699L14114.2132,-4072.0552L14114.1977,-4072.0524L14114.1977,-4072.0513L14114.1985,-4072.0473L14114.2043,-4072.0327L14114.2169,-4072.0001L14114.2236,-4071.9719L14114.2295,-4071.9561L14114.2377,-4071.9302L14114.2502,-4071.8919L14114.2806,-4071.799L14114.2953,-4071.7534L14114.3493,-4071.5868L14114.3575,-4071.5653L14114.3671,-4071.5366L14114.3722,-4071.5226L14114.4455,-4071.5293L14114.4567,-4071.5299L14114.515,-4071.5343L14114.5261,-4071.5361L14114.5741,-4071.54L14114.6156,-4071.5428L14114.6326,-4071.5457L14114.6443,-4071.5462L14114.6526,-4071.5473L14114.6784,-4071.5496L14114.9009,-4071.5688L14114.9113,-4071.5693L14114.9151,-4071.5698L14114.9209,-4071.571L14115.0104,-4071.5783L14115.0563,-4071.5828L14115.0991,-4071.5848L14115.145,-4071.5896L14115.1532,-4071.5913L14115.173,-4071.5929L14115.2344,-4071.5977"/>
<path content="3,七戸町,西野・上屋田線,0.6,0.0,0.0," xlink:title="3" d="M14112.3819,-4067.1581L14112.2857,-4067.2575L14112.2671,-4067.2727L14112.1452,-4067.3569L14112.0816,-4067.3751L14111.9581,-4067.4089L14111.9122,-4067.4224L14111.8908,-4067.4309L14111.8612,-4067.4466L14111.8153,-4067.4742L14111.7784,-4067.4984L14111.7144,-4067.5426L14111.5987,-4067.6257L14111.5809,-4067.6375L14111.5617,-4067.6527L14111.5588,-4067.6538L14111.3288,-4067.8289L14111.1734,-4067.9466L14111.1409,-4067.9741"/>
<path content="3,七戸町,西野・上屋田線,0.6,0.0,0.0," xlink:title="3" d="M14111.1409,-4067.9741L14111.2518,-4067.9657L14111.2939,-4067.9624L14111.3029,-4067.9612L14111.3258,-4067.9596L14111.3983,-4067.9697L14111.4027,-4067.9714L14111.4856,-4067.9871L14111.5041,-4067.9916L14111.5203,-4067.9978L14111.5883,-4068.035L14111.6121,-4068.0485L14111.6312,-4068.0586L14111.6482,-4068.0631L14111.6646,-4068.0654L14111.7171,-4068.0671L14111.7259,-4068.0688L14111.7311,-4068.0721L14111.7342,-4068.076L14111.7362,-4068.0784L14111.7377,-4068.0851L14111.7362,-4068.0952L14111.7274,-4068.115L14111.7022,-4068.1577L14111.6999,-4068.1695L14111.6963,-4068.2185L14111.6963,-4068.2236L14111.6918,-4068.2343L14111.6874,-4068.2416L14111.6659,-4068.2647L14111.6638,-4068.2714L14111.6557,-4068.3165L14111.6519,-4068.3278L14111.6527,-4068.3362L14111.6653,-4068.3514L14111.6704,-4068.3633L14111.6763,-4068.379L14111.6859,-4068.3959L14111.6894,-4068.3989L14111.6904,-4068.401L14111.6948,-4068.4089L14111.7348,-4068.4184L14111.7458,-4068.4218L14111.762,-4068.4286L14111.7724,-4068.4348L14111.7843,-4068.4454L14111.786,-4068.4473L14111.799,-4068.4612L14111.81,-4068.471L14111.8205,-4068.4798L14111.8345,-4068.4871L14111.8553,-4068.4922L14111.8671,-4068.4972L14111.904,-4068.5254L14111.9233,-4068.5383L14111.9344,-4068.5428L14111.9425,-4068.5446L14111.9742,-4068.5434L14112.0269,-4068.5367L14112.0904,-4068.5293L14112.1059,-4068.5271L14112.1451,-4068.5212L14112.1829,-4068.5271L14112.2116,-4068.5372L14112.2331,-4068.5468L14112.2412,-4068.5513L14112.2694,-4068.5609L14112.2894,-4068.5659L14112.333,-4068.5727L14112.3721,-4068.5817L14112.3957,-4068.5879L14112.4542,-4068.6076L14112.4823,-4068.6141L14112.4948,-4068.6167L14112.4963,-4068.6177L14112.506,-4068.6189L14112.5313,-4068.6298L14112.5548,-4068.6837L14112.5637,-4068.7077L14112.5773,-4068.7199L14112.5827,-4068.7214L14112.5908,-4068.7238L14112.6032,-4068.7229L14112.6378,-4068.7202L14112.6744,-4068.7184L14112.6873,-4068.7177L14112.6945,-4068.7187L14112.6992,-4068.7189L14112.7044,-4068.7208L14112.7064,-4068.7238L14112.7096,-4068.7311L14112.71,-4068.7432"/>
<path content="3,七戸町,西野・上屋田線,0.6,0.0,0.0," xlink:title="3" d="M14111.1409,-4067.9741L14111.1273,-4067.9894L14111.1113,-4068.0108L14111.0966,-4068.0367L14111.0877,-4068.0598L14111.0796,-4068.0941L14111.0677,-4068.1583L14111.0448,-4068.3086L14111.0441,-4068.3221L14111.0352,-4068.3807L14111.0167,-4068.4877L14111.0131,-4068.4997L14111.0078,-4068.5237L14110.9989,-4068.5473L14110.9849,-4068.5755L14110.9649,-4068.6071L14110.9421,-4068.6391L14110.9109,-4068.6763L14110.8504,-4068.7441L14110.8001,-4068.7911L14110.7748,-4068.8103L14110.7542,-4068.8227L14110.7246,-4068.8373L14110.6898,-4068.8514L14110.6596,-4068.8609L14110.6351,-4068.866L14110.5871,-4068.8739L14110.5701,-4068.8773L14110.5531,-4068.8829L14110.5368,-4068.8903L14110.5234,-4068.8987L14110.5079,-4068.9105L14110.4968,-4068.9234L14110.4902,-4068.9359L14110.4872,-4068.9477L14110.4872,-4068.9955"/>
<path content="3,七戸町,西野・上屋田線,0.6,0.0,0.0," xlink:title="3" d="M14112.71,-4068.7432L14112.7529,-4068.745L14112.7759,-4068.7467L14112.8646,-4068.7507L14112.9489,-4068.7552L14112.9907,-4068.7574L14113.0154,-4068.758L14113.1553,-4068.7636"/>
<path content="3,七戸町,西野・上屋田線,0.6,0.0,0.0," xlink:title="3" d="M14113.1553,-4068.7636L14113.1079,-4068.8093L14113.045,-4068.8722L14113.0377,-4068.8785L14112.9888,-4068.9263L14112.9652,-4068.9522L14112.9555,-4068.9708L14112.9518,-4068.9978L14112.9518,-4069.0012L14112.9459,-4069.0946L14112.9459,-4069.0964L14112.9408,-4069.1616L14112.9378,-4069.2022L14112.9297,-4069.3306L14112.9274,-4069.3396L14112.9236,-4069.4192L14112.9208,-4069.4387L14112.9178,-4069.4454L14112.917,-4069.4607L14112.9127,-4069.4707L14112.8964,-4069.4832L14112.8912,-4069.4854L14112.8424,-4069.5113L14112.8232,-4069.5254L14112.818,-4069.5344L14112.815,-4069.5547L14112.8165,-4069.5659L14112.8217,-4069.5834L14112.8298,-4069.5963L14112.8528,-4069.6363L14112.8652,-4069.6566L14112.8756,-4069.6729L14112.8809,-4069.6831L14112.8904,-4069.6972L14112.9045,-4069.7197L14112.9185,-4069.7293L14112.923,-4069.7309L14112.9555,-4069.7501L14113.0073,-4069.7832L14113.0331,-4069.8024L14113.0529,-4069.8186"/>
<path content="3,七戸町,西野・上屋田線,0.6,0.0,0.0," xlink:title="3" d="M14113.1553,-4068.7636L14113.1825,-4068.7377L14113.1863,-4068.7309L14113.2329,-4068.7303L14113.2588,-4068.7321L14113.2883,-4068.7366L14113.3047,-4068.7412L14113.3179,-4068.745L14113.357,-4068.7574L14113.3836,-4068.7697L14113.4029,-4068.7816L14113.4295,-4068.7957L14113.4643,-4068.8126L14113.4799,-4068.8183L14113.519,-4068.8272L14113.5205,-4068.8283L14113.5826,-4068.8385L14113.6136,-4068.8413L14113.6321,-4068.8441L14113.7726,-4068.861L14113.8177,-4068.8672L14113.84,-4068.8677L14113.8681,-4068.8718L14113.8976,-4068.879L14113.9635,-4068.8982L14113.9724,-4068.9004L14113.9937,-4068.9055L14114.0441,-4068.9123L14114.0558,-4068.9145L14114.0817,-4068.9213L14114.0898,-4068.9232L14114.1423,-4068.9443L14114.1638,-4068.9533L14114.1912,-4068.9641L14114.2023,-4068.9691L14114.2214,-4068.9759L14114.2326,-4068.9809L14114.2496,-4068.9888L14114.2658,-4069.0029L14114.2814,-4069.0226L14114.2999,-4069.0497L14114.3347,-4069.0789L14114.3857,-4069.124L14114.4042,-4069.1347L14114.4138,-4069.1381L14114.4648,-4069.1499L14114.5454,-4069.169L14114.5587,-4069.1741L14114.5735,-4069.1853L14114.5949,-4069.2147L14114.6068,-4069.2378L14114.6096,-4069.2439L14114.6208,-4069.2597L14114.626,-4069.2647L14114.6681,-4069.3064L14114.677,-4069.316L14114.6895,-4069.3289L14114.6955,-4069.3345L14114.7428,-4069.3875L14114.8425,-4069.4925L14114.8714,-4069.5229L14114.8759,-4069.5277L14114.8996,-4069.5435L14114.921,-4069.5536L14114.9344,-4069.5586L14114.9461,-4069.5649L14114.9831,-4069.579L14115.0016,-4069.5835L14115.0245,-4069.5902L14115.0371,-4069.5931L14115.0724,-4069.6014L14115.1608,-4069.6226L14115.1633,-4069.6694L14115.1646,-4069.6913L14115.1635,-4069.7274L14115.1671,-4069.7451L14115.1872,-4069.7473L14115.2344,-4069.7568"/>
<path content="3,七戸町,西野・上屋田線,0.6,0.0,0.0," xlink:title="3" d="M14110.4872,-4068.9955L14110.5161,-4068.9916L14110.5567,-4068.9843L14110.5686,-4068.9809L14110.6269,-4068.9578L14110.6462,-4068.9504L14110.6677,-4068.9449L14110.6987,-4068.9364L14110.7216,-4068.933L14110.7512,-4068.9319L14110.7844,-4068.933L14110.8118,-4068.9359L14110.8607,-4068.9465L14110.8799,-4068.9465L14110.9206,-4068.9347L14110.9346,-4068.9347L14110.9464,-4068.9369L14110.9576,-4068.9414L14110.9664,-4068.946L14110.9774,-4068.9533L14110.9863,-4068.9572L14110.9916,-4068.9612L14111.0063,-4068.9669L14111.0129,-4068.9685L14111.0307,-4068.9679L14111.0567,-4068.9657L14111.0869,-4068.9724L14111.0996,-4068.9759L14111.1521,-4068.9967L14111.2829,-4069.0569L14111.2961,-4069.0609L14111.3065,-4069.0625L14111.3443,-4069.0625L14111.399,-4069.0637L14111.41,-4069.067L14111.4189,-4069.0744L14111.4285,-4069.08L14111.5291,-4069.0333L14111.6098,-4068.9955L14111.6238,-4068.9916L14111.6371,-4068.9899L14111.6496,-4068.9871L14111.6623,-4068.9826L14111.7059,-4068.9618L14111.7391,-4068.9437L14111.7444,-4068.9415L14111.7813,-4068.9224L14111.7873,-4068.9201L14111.836,-4068.8942L14111.856,-4068.8841L14111.8616,-4068.8806L14111.9314,-4068.8373L14111.9462,-4068.8295L14111.9654,-4068.8221L14112.0201,-4068.8058L14112.1,-4068.7821L14112.1451,-4068.7695L14112.1614,-4068.7675L14112.1644,-4068.7664L14112.1886,-4068.7653L14112.2168,-4068.7703L14112.2567,-4068.7692L14112.3226,-4068.7636L14112.3685,-4068.758L14112.3758,-4068.7562L14112.384,-4068.7557L14112.4253,-4068.7478L14112.5045,-4068.7303L14112.523,-4068.7309L14112.5452,-4068.7349L14112.5697,-4068.7384L14112.5777,-4068.7411L14112.6013,-4068.7439L14112.6776,-4068.7422L14112.71,-4068.7432"/>
<path content="3,七戸町,西野・上屋田線,0.6,0.0,0.0," xlink:title="3" d="M14110.4872,-4068.9955L14110.4597,-4068.9998L14110.4516,-4069.0014L14110.4422,-4069.004L14110.3607,-4069.0353L14110.321,-4069.0477L14110.3039,-4069.0519L14110.276,-4069.0582L14110.2046,-4069.0678L14110.1412,-4069.073L14110.0772,-4069.0763L14110.0451,-4069.0793L14110.0112,-4069.0829L14109.9752,-4069.0884L14109.8674,-4069.1061L14109.8308,-4069.1131L14109.8076,-4069.1192L14109.7882,-4069.1264L14109.7814,-4069.1292L14109.7699,-4069.1346L14109.7558,-4069.1424L14109.7464,-4069.1482L14109.7395,-4069.1535L14109.7356,-4069.1578L14109.733,-4069.1628L14109.7307,-4069.1703L14109.7277,-4069.1797L14109.7751,-4069.196L14109.8926,-4069.2466L14109.9164,-4069.2551L14109.9296,-4069.2601L14109.9629,-4069.2697L14110.014,-4069.2804L14110.0502,-4069.2855L14110.082,-4069.2877L14110.2321,-4069.2894L14110.2617,-4069.2894L14110.5531,-4069.29L14110.5523,-4069.2686L14110.5501,-4069.2573L14110.5463,-4069.2461L14110.5442,-4069.2326L14110.5361,-4069.2011L14110.5278,-4069.174L14110.5249,-4069.1611L14110.5183,-4069.1407L14110.5176,-4069.1346L14110.4998,-4069.071L14110.4938,-4069.0439L14110.4909,-4069.0164L14110.4872,-4068.9955"/>
<path content="3,七戸町,野々上・舘野,0.6,0.0,0.0," xlink:title="3" d="M14113.154,-4064.6921L14113.1654,-4064.7035L14113.211,-4064.7452L14113.2258,-4064.7587L14113.2775,-4064.8015L14113.2893,-4064.8139"/>
<path content="3,七戸町,野々上・舘野,0.6,0.0,0.0," xlink:title="3" d="M14113.2893,-4064.8139L14113.3041,-4064.8302L14113.3336,-4064.8674L14113.3572,-4064.8983L14113.3653,-4064.9084L14113.3993,-4064.9501L14113.4163,-4064.9704L14113.4222,-4064.9828L14113.4224,-4064.9944L14113.4229,-4065.0138L14113.4281,-4065.0306L14113.4291,-4065.0409L14113.4576,-4065.0757L14113.4665,-4065.0858L14113.4931,-4065.1201L14113.5049,-4065.1371L14113.5426,-4065.1956L14113.5751,-4065.2508L14113.5832,-4065.2682L14113.5891,-4065.2772L14113.5965,-4065.284L14113.6201,-4065.3003L14113.6423,-4065.3133L14113.6829,-4065.3336L14113.6962,-4065.3426L14113.7161,-4065.3606L14113.7527,-4065.3994L14113.7619,-4065.4079"/>
<path content="3,七戸町,野々上・舘野,0.6,0.0,0.0," xlink:title="3" d="M14113.2893,-4064.8139L14113.2974,-4064.8065L14113.3166,-4064.7891L14113.3971,-4064.7153L14113.4436,-4064.6996L14113.4554,-4064.6951L14113.4709,-4064.69L14113.4769,-4064.69L14113.5027,-4064.717L14113.5212,-4064.7356L14113.5512,-4064.7669L14113.5514,-4064.7671L14113.5973,-4064.815L14113.6009,-4064.8167L14113.7863,-4064.8865L14113.9443,-4064.947L14113.9185,-4064.9771L14113.9109,-4064.9898L14113.8911,-4065.0267L14113.8647,-4065.1026L14113.8365,-4065.1866L14113.8062,-4065.2767L14113.8047,-4065.2834L14113.7988,-4065.2987L14113.7804,-4065.3544L14113.7744,-4065.3696L14113.7619,-4065.4079"/>
<path content="3,七戸町,野々上・舘野,0.6,0.0,0.0," xlink:title="3" d="M14113.7619,-4065.4079L14113.7649,-4065.4169L14113.9805,-4065.6956L14113.9805,-4065.6962L14113.9856,-4065.704L14114.091,-4065.8544L14114.1075,-4065.8758L14114.1171,-4065.8938"/>
<path content="3,七戸町,野々上・舘野,0.6,0.0,0.0," xlink:title="3" d="M14114.1171,-4065.8938L14114.1522,-4065.9625L14114.1805,-4066.0182L14114.2069,-4066.0699L14114.2316,-4066.1184L14114.4753,-4066.0486L14114.5709,-4066.0234L14114.6119,-4066.0092L14114.6186,-4066.0076L14114.6297,-4066.0149L14114.7035,-4066.0565L14114.6984,-4066.0616L14114.671,-4066.0898L14114.6651,-4066.0942L14114.6415,-4066.1066L14114.6068,-4066.1213L14114.5994,-4066.1241L14114.5876,-4066.1613L14114.5661,-4066.2131L14114.5506,-4066.2418L14114.5373,-4066.2603L14114.5144,-4066.2829L14114.342,-4066.3318L14114.3461,-4066.3392L14114.4221,-4066.4416L14114.4386,-4066.4693L14114.5491,-4066.6151L14114.6311,-4066.7311L14114.6407,-4066.7265L14114.743,-4066.6824L14114.7596,-4066.6736L14114.7892,-4066.6483L14114.8231,-4066.6201L14114.8549,-4066.6033L14114.9191,-4066.5807L14114.9383,-4066.5751L14114.9553,-4066.5757L14114.9819,-4066.5824L14115.0351,-4066.5954L14115.0609,-4066.6004L14115.1223,-4066.6848L14115.151,-4066.7193L14115.1592,-4066.7271L14115.2256,-4066.7654L14115.2344,-4066.7705M14115.2344,-4066.9348L14115.2324,-4066.9366L14115.1681,-4066.9979L14115.1526,-4067.0115L14115.1311,-4067.0317L14115.1222,-4067.0452L14115.1207,-4067.0554L14115.1222,-4067.065L14115.1384,-4067.0951L14115.1347,-4067.1008L14115.1259,-4067.1046L14115.0653,-4067.0931L14115.0483,-4067.0954L14115.0327,-4067.1049L14114.9358,-4067.1719L14114.9458,-4067.1883L14114.9891,-4067.253L14114.9958,-4067.2592L14115.0128,-4067.2766L14115.0194,-4067.2829L14115.0742,-4067.3307L14115.1599,-4067.4089L14115.1792,-4067.4263L14115.2221,-4067.4647L14115.2344,-4067.4742"/>
<path content="3,七戸町,野々上・舘野,0.6,0.0,0.0," xlink:title="3" d="M14114.1171,-4065.8938L14114.0507,-4065.9456L14114.0403,-4065.9574L14114.0233,-4065.9856L14114.01,-4066.0137L14113.9924,-4066.0452L14113.9938,-4066.052L14113.9894,-4066.0649L14113.9871,-4066.0768L14113.9879,-4066.1111L14113.9989,-4066.1579L14114.0019,-4066.1663L14114.0048,-4066.1753L14114.0137,-4066.2181L14114.0233,-4066.2682L14114.0233,-4066.2997L14114.0056,-4066.3724L14113.9923,-4066.4107L14113.979,-4066.4439L14113.9775,-4066.4473L14113.9738,-4066.4523L14113.9531,-4066.5109L14113.945,-4066.5379L14113.9327,-4066.5856L14113.9333,-4066.5925L14113.9192,-4066.6578L14113.9177,-4066.6708L14113.9184,-4066.7153L14113.9297,-4066.891L14113.9324,-4066.9151L14113.9125,-4066.9157L14113.8601,-4066.9219L14113.8424,-4066.9264L14113.8394,-4066.9275L14113.8219,-4066.9366L14113.7749,-4066.9681L14113.7653,-4066.9782L14113.7283,-4067.0323L14113.7181,-4067.057L14113.7136,-4067.0717L14113.7128,-4067.106L14113.7158,-4067.1483L14113.7177,-4067.1543L14113.7194,-4067.1601L14113.7261,-4067.1701L14113.7358,-4067.1832L14113.7691,-4067.2114L14113.7786,-4067.2214L14113.7823,-4067.2254L14113.7897,-4067.2367L14113.7912,-4067.2462L14113.7883,-4067.2558L14113.7787,-4067.2682L14113.7668,-4067.2772L14113.7262,-4067.2992L14113.7069,-4067.3082L14113.6907,-4067.3178L14113.6656,-4067.338L14113.6492,-4067.3538L14113.6372,-4067.3618L14113.6278,-4067.3718L14113.5338,-4067.4597L14113.5117,-4067.4782L14113.4947,-4067.4951L14113.4902,-4067.499L14113.4724,-4067.5142L14113.3849,-4067.5941L14113.3342,-4067.6404L14113.3549,-4067.6606L14113.4437,-4067.7091L14113.4792,-4067.7282L14113.59,-4067.7879L14113.644,-4067.8166L14113.7942,-4067.8977L14113.817,-4067.9145L14113.8266,-4067.9253L14113.9014,-4067.9962L14113.9243,-4068.0154L14113.9909,-4068.0542L14114.0019,-4068.0609L14114.0141,-4068.0681L14114.0359,-4068.0807L14114.1002,-4068.1184L14114.118,-4068.1285L14114.1469,-4068.1448L14114.1491,-4068.1471L14114.2126,-4068.1843L14114.2371,-4068.1989L14114.2689,-4068.2169L14114.3206,-4068.2473L14114.348,-4068.2637L14114.3554,-4068.2676L14114.3639,-4068.2748L14114.4286,-4068.3352L14114.5024,-4068.4016L14114.5528,-4068.4478L14114.6571,-4068.5339L14114.7836,-4068.6307L14114.7951,-4068.6406L14114.9381,-4068.7494L14115.0619,-4068.8446L14115.1348,-4068.9145L14115.2344,-4069.0084"/>
<path content="3,七戸町,野々上・舘野,0.6,0.0,0.0," xlink:title="3" d="M14115.2344,-4069.7012L14115.1646,-4069.6913L14115.1635,-4069.7274L14115.1671,-4069.7451L14115.1872,-4069.7473L14115.2344,-4069.7568"/>
</g>
</svg>
