<?xml version="1.0" encoding="UTF-8"?>
<svg  xmlns="http://www.w3.org/2000/svg" xmlns:xlink="http://www.w3.org/1999/xlink" xmlns:go="http://purl.org/svgmap/profile" property="N07_001,N07_002,N07_003,N07_004,N07_005,N07_006,N07_007" viewBox="14098.20556640625 -3867.73681640625 0.54931640625 0.54931640625" go:dataArea="14098.20556640625 -3867.73681640625 0.54931640625 0.54931640625" >
<metadata>
 <rdf:RDF xmlns:rdf="http://www.w3.org/1999/02/22-rdf-syntax-ns#" xmlns:crs="http://opengis.org/xmldtds/transformations.dtd" xmlns:svg="http://www.w3.org/svg" >
  <rdf:Description>
   <crs:CoordinateReferenceSystem rdf:resource="http://purl.org/crs/84" svg:transform="matrix(100.0,0.0,0.0,-100.0,0.0,0.0)" />
  </rdf:Description>
 </rdf:RDF>
</metadata>
<globalCoordinateSystem srsName="http://purl.org/crs/84" transform="matrix(100.0,0.0,0.0,-100.0,0.0,0.0)" />
<defs>
 <g id="p0" >
  <circle cx="0.0" cy="0.0" r="3" stroke="green" stroke-width="0.75" vector-effect="non-scaling-stroke" />
 </g>
</defs>
<g fill="none" fill-rule="evenodd" stroke="#FF00FF" stroke-width="0.75" opacity="0.5" vector-effect="non-scaling-stroke" stroke-linejoin="bevel" >
<path content="1,JRバス東北（株）,うみねこ号,1.0,1.0,1.0," xlink:title="1" d="M14098.2056,-3867.5002L14098.2062,-3867.5061L14098.2062,-3867.5061L14098.2062,-3867.5062L14098.2062,-3867.5062L14098.2062,-3867.5062L14098.2062,-3867.5062L14098.2087,-3867.5302L14098.211,-3867.5666L14098.212,-3867.6002L14098.2126,-3867.6882L14098.2123,-3867.6991L14098.2123,-3867.6992L14098.2123,-3867.6993L14098.2123,-3867.6993L14098.2123,-3867.6994L14098.2123,-3867.6994L14098.2123,-3867.6994L14098.2123,-3867.6994L14098.2123,-3867.6995L14098.2123,-3867.6995L14098.2123,-3867.6996L14098.2123,-3867.6997L14098.2123,-3867.6997L14098.2123,-3867.7001L14098.2123,-3867.7001L14098.2123,-3867.7001L14098.2123,-3867.7002L14098.2123,-3867.7002L14098.2123,-3867.7002L14098.2123,-3867.7003L14098.2122,-3867.7003L14098.2122,-3867.7003L14098.2122,-3867.7003L14098.2122,-3867.7003L14098.2122,-3867.7004L14098.212,-3867.7122L14098.2118,-3867.7182L14098.2115,-3867.7313L14098.2113,-3867.733L14098.211,-3867.7368"/>
<path content="1,JRバス東北（株）,けんじライナー号,1.0,1.0,1.0," xlink:title="1" d="M14098.2056,-3867.5002L14098.2062,-3867.5061L14098.2062,-3867.5061L14098.2062,-3867.5062L14098.2062,-3867.5062L14098.2062,-3867.5062L14098.2062,-3867.5062L14098.2087,-3867.5302L14098.211,-3867.5666L14098.212,-3867.6002L14098.2126,-3867.6882L14098.2123,-3867.6991L14098.2123,-3867.6992L14098.2123,-3867.6993L14098.2123,-3867.6993L14098.2123,-3867.6994L14098.2123,-3867.6994L14098.2123,-3867.6994L14098.2123,-3867.6994L14098.2123,-3867.6995L14098.2123,-3867.6995L14098.2123,-3867.6996L14098.2123,-3867.6997L14098.2123,-3867.6997L14098.2123,-3867.7001L14098.2123,-3867.7001L14098.2123,-3867.7001L14098.2123,-3867.7002L14098.2123,-3867.7002L14098.2123,-3867.7002L14098.2123,-3867.7003L14098.2122,-3867.7003L14098.2122,-3867.7003L14098.2122,-3867.7003L14098.2122,-3867.7003L14098.2122,-3867.7004L14098.212,-3867.7122L14098.2118,-3867.7182L14098.2115,-3867.7313L14098.2113,-3867.733L14098.211,-3867.7368"/>
<path content="1,JRバス東北（株）,アーバン号,3.2,4.0,4.0," xlink:title="1" d="M14098.2056,-3867.5002L14098.2062,-3867.5061L14098.2062,-3867.5061L14098.2062,-3867.5062L14098.2062,-3867.5062L14098.2062,-3867.5062L14098.2062,-3867.5062L14098.2087,-3867.5302L14098.211,-3867.5666L14098.212,-3867.6002L14098.2126,-3867.6882L14098.2123,-3867.6991L14098.2123,-3867.6992L14098.2123,-3867.6993L14098.2123,-3867.6993L14098.2123,-3867.6994L14098.2123,-3867.6994L14098.2123,-3867.6994L14098.2123,-3867.6994L14098.2123,-3867.6995L14098.2123,-3867.6995L14098.2123,-3867.6996L14098.2123,-3867.6997L14098.2123,-3867.6997L14098.2123,-3867.7001L14098.2123,-3867.7001L14098.2123,-3867.7001L14098.2123,-3867.7002L14098.2123,-3867.7002L14098.2123,-3867.7002L14098.2123,-3867.7003L14098.2122,-3867.7003L14098.2122,-3867.7003L14098.2122,-3867.7003L14098.2122,-3867.7003L14098.2122,-3867.7004L14098.212,-3867.7122L14098.2118,-3867.7182L14098.2115,-3867.7313L14098.2113,-3867.733L14098.211,-3867.7368"/>
<path content="1,JRバス東北（株）,キャッスル号,3.0,3.0,3.0," xlink:title="1" d="M14098.2056,-3867.5002L14098.2062,-3867.5061L14098.2062,-3867.5061L14098.2062,-3867.5062L14098.2062,-3867.5062L14098.2062,-3867.5062L14098.2062,-3867.5062L14098.2087,-3867.5302L14098.211,-3867.5666L14098.212,-3867.6002L14098.2126,-3867.6882L14098.2123,-3867.6991L14098.2123,-3867.6992L14098.2123,-3867.6993L14098.2123,-3867.6993L14098.2123,-3867.6994L14098.2123,-3867.6994L14098.2123,-3867.6994L14098.2123,-3867.6994L14098.2123,-3867.6995L14098.2123,-3867.6995L14098.2123,-3867.6996L14098.2123,-3867.6997L14098.2123,-3867.6997L14098.2123,-3867.7001L14098.2123,-3867.7001L14098.2123,-3867.7001L14098.2123,-3867.7002L14098.2123,-3867.7002L14098.2123,-3867.7002L14098.2123,-3867.7003L14098.2122,-3867.7003L14098.2122,-3867.7003L14098.2122,-3867.7003L14098.2122,-3867.7003L14098.2122,-3867.7004L14098.212,-3867.7122L14098.2118,-3867.7182L14098.2115,-3867.7313L14098.2113,-3867.733L14098.211,-3867.7368"/>
<path content="1,JRバス東北（株）,グリーンライナー号,2.0,2.0,2.0," xlink:title="1" d="M14098.2056,-3867.5002L14098.2062,-3867.5061L14098.2062,-3867.5061L14098.2062,-3867.5062L14098.2062,-3867.5062L14098.2062,-3867.5062L14098.2062,-3867.5062L14098.2087,-3867.5302L14098.211,-3867.5666L14098.212,-3867.6002L14098.2126,-3867.6882L14098.2123,-3867.6991L14098.2123,-3867.6992L14098.2123,-3867.6993L14098.2123,-3867.6993L14098.2123,-3867.6994L14098.2123,-3867.6994L14098.2123,-3867.6994L14098.2123,-3867.6994L14098.2123,-3867.6995L14098.2123,-3867.6995L14098.2123,-3867.6996L14098.2123,-3867.6997L14098.2123,-3867.6997L14098.2123,-3867.7001L14098.2123,-3867.7001L14098.2123,-3867.7001L14098.2123,-3867.7002L14098.2123,-3867.7002L14098.2123,-3867.7002L14098.2123,-3867.7003L14098.2122,-3867.7003L14098.2122,-3867.7003L14098.2122,-3867.7003L14098.2122,-3867.7003L14098.2122,-3867.7004L14098.212,-3867.7122L14098.2118,-3867.7182L14098.2115,-3867.7313L14098.2113,-3867.733L14098.211,-3867.7368"/>
<path content="1,JRバス東北（株）,ドリーム盛岡・らくちん号,2.2,3.0,3.0," xlink:title="1" d="M14098.2056,-3867.5004L14098.2062,-3867.5061L14098.2062,-3867.5061L14098.2062,-3867.5062L14098.2062,-3867.5062L14098.2062,-3867.5062L14098.2062,-3867.5062L14098.2088,-3867.5303L14098.2111,-3867.5669L14098.2122,-3867.6004L14098.2126,-3867.6882L14098.2123,-3867.6991L14098.2123,-3867.6992L14098.2123,-3867.6993L14098.2123,-3867.6993L14098.2123,-3867.6994L14098.2123,-3867.6994L14098.2123,-3867.6994L14098.2123,-3867.6994L14098.2123,-3867.6995L14098.2123,-3867.6995L14098.2123,-3867.6996L14098.2123,-3867.6997L14098.2123,-3867.6997L14098.2123,-3867.7001L14098.2123,-3867.7001L14098.2123,-3867.7001L14098.2123,-3867.7002L14098.2123,-3867.7002L14098.2123,-3867.7002L14098.2123,-3867.7003L14098.2122,-3867.7003L14098.2122,-3867.7003L14098.2122,-3867.7003L14098.2122,-3867.7003L14098.2122,-3867.7004L14098.212,-3867.7122L14098.2118,-3867.7182L14098.2115,-3867.7313L14098.2113,-3867.733L14098.211,-3867.7368"/>
<path content="1,JRバス東北（株）,ドリーム秋田・横浜号,1.0,1.0,1.0," xlink:title="1" d="M14098.211,-3867.7368L14098.2113,-3867.733L14098.2115,-3867.7313L14098.2118,-3867.7182L14098.212,-3867.7122L14098.2122,-3867.7004L14098.2122,-3867.7003L14098.2122,-3867.7003L14098.2122,-3867.7003L14098.2122,-3867.7003L14098.2123,-3867.7003L14098.2123,-3867.7002L14098.2123,-3867.7002L14098.2123,-3867.7002L14098.2123,-3867.7001L14098.2123,-3867.7001L14098.2123,-3867.7001L14098.2123,-3867.6997L14098.2123,-3867.6997L14098.2123,-3867.6996L14098.2123,-3867.6995L14098.2123,-3867.6995L14098.2123,-3867.6994L14098.2123,-3867.6994L14098.2123,-3867.6994L14098.2123,-3867.6994L14098.2123,-3867.6993L14098.2123,-3867.6993L14098.2123,-3867.6992L14098.2123,-3867.6991L14098.2126,-3867.6882L14098.212,-3867.6002L14098.211,-3867.5666L14098.2087,-3867.5302L14098.2062,-3867.5062L14098.2062,-3867.5062L14098.2062,-3867.5062L14098.2062,-3867.5062L14098.2062,-3867.5061L14098.2062,-3867.5061L14098.2056,-3867.5002"/>
<path content="1,JRバス東北（株）,ブルーシティ号,1.5,1.5,1.5," xlink:title="1" d="M14098.2056,-3867.5002L14098.2062,-3867.5061L14098.2062,-3867.5061L14098.2062,-3867.5062L14098.2062,-3867.5062L14098.2062,-3867.5062L14098.2062,-3867.5062L14098.2087,-3867.5302L14098.211,-3867.5666L14098.212,-3867.6002L14098.2126,-3867.6882L14098.2123,-3867.6991L14098.2123,-3867.6992L14098.2123,-3867.6993L14098.2123,-3867.6993L14098.2123,-3867.6994L14098.2123,-3867.6994L14098.2123,-3867.6994L14098.2123,-3867.6994L14098.2123,-3867.6995L14098.2123,-3867.6995L14098.2123,-3867.6996L14098.2123,-3867.6997L14098.2123,-3867.6997L14098.2123,-3867.7001L14098.2123,-3867.7001L14098.2123,-3867.7001L14098.2123,-3867.7002L14098.2123,-3867.7002L14098.2123,-3867.7002L14098.2123,-3867.7003L14098.2122,-3867.7003L14098.2122,-3867.7003L14098.2122,-3867.7003L14098.2122,-3867.7003L14098.2122,-3867.7004L14098.212,-3867.7122L14098.2118,-3867.7182L14098.2115,-3867.7313L14098.2113,-3867.733L14098.211,-3867.7368"/>
<path content="1,JRバス東北（株）,ラ・フォーレ号,1.0,1.0,1.0," xlink:title="1" d="M14098.2056,-3867.5004L14098.2062,-3867.5061L14098.2062,-3867.5061L14098.2062,-3867.5062L14098.2062,-3867.5062L14098.2062,-3867.5062L14098.2062,-3867.5062L14098.2088,-3867.5303L14098.2111,-3867.5669L14098.2122,-3867.6004L14098.2126,-3867.6882L14098.2123,-3867.6991L14098.2123,-3867.6992L14098.2123,-3867.6993L14098.2123,-3867.6993L14098.2123,-3867.6994L14098.2123,-3867.6994L14098.2123,-3867.6994L14098.2123,-3867.6994L14098.2123,-3867.6995L14098.2123,-3867.6995L14098.2123,-3867.6996L14098.2123,-3867.6997L14098.2123,-3867.6997L14098.2123,-3867.7001L14098.2123,-3867.7001L14098.2123,-3867.7001L14098.2123,-3867.7002L14098.2123,-3867.7002L14098.2123,-3867.7002L14098.2123,-3867.7003L14098.2122,-3867.7003L14098.2122,-3867.7003L14098.2122,-3867.7003L14098.2122,-3867.7003L14098.2122,-3867.7004L14098.212,-3867.7122L14098.2118,-3867.7182L14098.2115,-3867.7313L14098.2113,-3867.733L14098.211,-3867.7368"/>
<path content="1,JRバス東北（株）,仙台～大館線,1.0,1.0,1.0," xlink:title="1" d="M14098.2056,-3867.5002L14098.2062,-3867.5061L14098.2062,-3867.5061L14098.2062,-3867.5062L14098.2062,-3867.5062L14098.2062,-3867.5062L14098.2062,-3867.5062L14098.2087,-3867.5302L14098.211,-3867.5666L14098.211,-3867.5667L14098.211,-3867.5667L14098.211,-3867.5667L14098.2113,-3867.5789L14098.2115,-3867.5842L14098.2115,-3867.5844L14098.2116,-3867.5846L14098.2116,-3867.5867L14098.2121,-3867.6004L14098.2123,-3867.6486L14098.2124,-3867.6551L14098.2124,-3867.6627L14098.2126,-3867.6882L14098.2123,-3867.6991L14098.2123,-3867.6992L14098.2123,-3867.6993L14098.2123,-3867.6993L14098.2123,-3867.6994L14098.2123,-3867.6994L14098.2123,-3867.6994L14098.2123,-3867.6994L14098.2123,-3867.6995L14098.2123,-3867.6995L14098.2123,-3867.6996L14098.2123,-3867.6997L14098.2123,-3867.6997L14098.2123,-3867.7001L14098.2123,-3867.7001L14098.2123,-3867.7001L14098.2123,-3867.7002L14098.2123,-3867.7002L14098.2123,-3867.7002L14098.2123,-3867.7003L14098.2122,-3867.7003L14098.2122,-3867.7003L14098.2122,-3867.7003L14098.2122,-3867.7003L14098.2122,-3867.7004L14098.212,-3867.7122L14098.2118,-3867.7182L14098.2115,-3867.7313L14098.2113,-3867.733L14098.211,-3867.7368"/>
<path content="1,JRバス東北（株）,仙台～江刺・水沢線,2.0,2.0,2.0," xlink:title="1" d="M14098.2056,-3867.5002L14098.2062,-3867.5061L14098.2062,-3867.5061L14098.2062,-3867.5062L14098.2062,-3867.5062L14098.2062,-3867.5062L14098.2062,-3867.5062L14098.2087,-3867.5302L14098.211,-3867.5666L14098.212,-3867.6002L14098.2126,-3867.6882L14098.2123,-3867.6991L14098.2123,-3867.6992L14098.2123,-3867.6993L14098.2123,-3867.6993L14098.2123,-3867.6994L14098.2123,-3867.6994L14098.2123,-3867.6994L14098.2123,-3867.6994L14098.2123,-3867.6995L14098.2123,-3867.6995L14098.2123,-3867.6996L14098.2123,-3867.6997L14098.2123,-3867.6997L14098.2123,-3867.7001L14098.2123,-3867.7001L14098.2123,-3867.7001L14098.2123,-3867.7002L14098.2123,-3867.7002L14098.2123,-3867.7002L14098.2123,-3867.7003L14098.2122,-3867.7003L14098.2122,-3867.7003L14098.2122,-3867.7003L14098.2122,-3867.7003L14098.2122,-3867.7004L14098.212,-3867.7122L14098.2118,-3867.7182L14098.2115,-3867.7313L14098.2113,-3867.733L14098.211,-3867.7368"/>
<path content="1,JRバス東北（株）,仙秋号,2.0,2.0,2.0," xlink:title="1" d="M14098.2056,-3867.5002L14098.2062,-3867.5061L14098.2062,-3867.5061L14098.2062,-3867.5062L14098.2062,-3867.5062L14098.2062,-3867.5062L14098.2062,-3867.5062L14098.2087,-3867.5302L14098.211,-3867.5666L14098.212,-3867.6002L14098.2126,-3867.6882L14098.2123,-3867.6991L14098.2123,-3867.6992L14098.2123,-3867.6993L14098.2123,-3867.6993L14098.2123,-3867.6994L14098.2123,-3867.6994L14098.2123,-3867.6994L14098.2123,-3867.6994L14098.2123,-3867.6995L14098.2123,-3867.6995L14098.2123,-3867.6996L14098.2123,-3867.6997L14098.2123,-3867.6997L14098.2123,-3867.7001L14098.2123,-3867.7001L14098.2123,-3867.7001L14098.2123,-3867.7002L14098.2123,-3867.7002L14098.2123,-3867.7002L14098.2123,-3867.7003L14098.2122,-3867.7003L14098.2122,-3867.7003L14098.2122,-3867.7003L14098.2122,-3867.7003L14098.2122,-3867.7004L14098.212,-3867.7122L14098.2118,-3867.7182L14098.2115,-3867.7313L14098.2113,-3867.733L14098.211,-3867.7368"/>
<path content="1,JRバス関東（株）,ドリーム盛岡号,2.2,3.0,3.0," xlink:title="1" d="M14098.2056,-3867.5002L14098.2062,-3867.5061L14098.2062,-3867.5061L14098.2062,-3867.5062L14098.2062,-3867.5062L14098.2062,-3867.5062L14098.2062,-3867.5062L14098.2087,-3867.5302L14098.211,-3867.5666L14098.212,-3867.6002L14098.2126,-3867.6882L14098.2123,-3867.6991L14098.2123,-3867.6992L14098.2123,-3867.6993L14098.2123,-3867.6993L14098.2123,-3867.6994L14098.2123,-3867.6994L14098.2123,-3867.6994L14098.2123,-3867.6994L14098.2123,-3867.6995L14098.2123,-3867.6995L14098.2123,-3867.6996L14098.2123,-3867.6997L14098.2123,-3867.6997L14098.2123,-3867.7001L14098.2123,-3867.7001L14098.2123,-3867.7001L14098.2123,-3867.7002L14098.2123,-3867.7002L14098.2123,-3867.7002L14098.2123,-3867.7003L14098.2122,-3867.7003L14098.2122,-3867.7003L14098.2122,-3867.7003L14098.2122,-3867.7003L14098.2122,-3867.7004L14098.212,-3867.7122L14098.2118,-3867.7182L14098.2115,-3867.7313L14098.2113,-3867.733L14098.211,-3867.7368"/>
<path content="1,京浜急行バス（株）,ノクターン号,3.4,4.0,4.0," xlink:title="1" d="M14098.2056,-3867.5002L14098.2062,-3867.5061L14098.2062,-3867.5061L14098.2062,-3867.5062L14098.2062,-3867.5062L14098.2062,-3867.5062L14098.2062,-3867.5062L14098.2087,-3867.5302L14098.211,-3867.5666L14098.212,-3867.6002L14098.2126,-3867.6882L14098.2123,-3867.6991L14098.2123,-3867.6992L14098.2123,-3867.6993L14098.2123,-3867.6993L14098.2123,-3867.6994L14098.2123,-3867.6994L14098.2123,-3867.6994L14098.2123,-3867.6994L14098.2123,-3867.6995L14098.2123,-3867.6995L14098.2123,-3867.6996L14098.2123,-3867.6997L14098.2123,-3867.6997L14098.2123,-3867.7001L14098.2123,-3867.7001L14098.2123,-3867.7001L14098.2123,-3867.7002L14098.2123,-3867.7002L14098.2123,-3867.7002L14098.2123,-3867.7003L14098.2122,-3867.7003L14098.2122,-3867.7003L14098.2122,-3867.7003L14098.2122,-3867.7003L14098.2122,-3867.7004L14098.212,-3867.7122L14098.2118,-3867.7182L14098.2115,-3867.7313L14098.2113,-3867.733L14098.211,-3867.7368"/>
<path content="1,京浜急行バス（株）,ビーム号,1.0,1.0,1.0," xlink:title="1" d="M14098.211,-3867.7368L14098.2113,-3867.733L14098.2115,-3867.7313L14098.2118,-3867.7182L14098.212,-3867.7122L14098.2122,-3867.7004L14098.2122,-3867.7003L14098.2122,-3867.7003L14098.2122,-3867.7003L14098.2122,-3867.7003L14098.2123,-3867.7003L14098.2123,-3867.7002L14098.2123,-3867.7002L14098.2123,-3867.7002L14098.2123,-3867.7001L14098.2123,-3867.7001L14098.2123,-3867.7001L14098.2123,-3867.6997L14098.2123,-3867.6997L14098.2123,-3867.6996L14098.2123,-3867.6995L14098.2123,-3867.6995L14098.2123,-3867.6994L14098.2123,-3867.6994L14098.2123,-3867.6994L14098.2123,-3867.6994L14098.2123,-3867.6993L14098.2123,-3867.6993L14098.2123,-3867.6992L14098.2123,-3867.6991L14098.2126,-3867.6882L14098.212,-3867.6002L14098.211,-3867.5666L14098.2087,-3867.5302L14098.2062,-3867.5062L14098.2062,-3867.5062L14098.2062,-3867.5062L14098.2062,-3867.5062L14098.2062,-3867.5061L14098.2062,-3867.5061L14098.2056,-3867.5002"/>
<path content="1,十和田観光電鉄（株）,うみねこ号,4.0,4.0,4.0," xlink:title="1" d="M14098.211,-3867.7368L14098.2113,-3867.733L14098.2115,-3867.7313L14098.2118,-3867.7182L14098.212,-3867.7122L14098.2122,-3867.7004L14098.2122,-3867.7003L14098.2122,-3867.7003L14098.2122,-3867.7003L14098.2122,-3867.7003L14098.2123,-3867.7003L14098.2123,-3867.7002L14098.2123,-3867.7002L14098.2123,-3867.7002L14098.2123,-3867.7001L14098.2123,-3867.7001L14098.2123,-3867.7001L14098.2123,-3867.6997L14098.2123,-3867.6997L14098.2123,-3867.6996L14098.2123,-3867.6995L14098.2123,-3867.6995L14098.2123,-3867.6994L14098.2123,-3867.6994L14098.2123,-3867.6994L14098.2123,-3867.6994L14098.2123,-3867.6993L14098.2123,-3867.6993L14098.2123,-3867.6992L14098.2123,-3867.6991L14098.2126,-3867.6882L14098.2124,-3867.6627L14098.2124,-3867.6551L14098.2123,-3867.6486L14098.212,-3867.6003L14098.2116,-3867.5867L14098.2116,-3867.5846L14098.2115,-3867.5844L14098.2115,-3867.5842L14098.211,-3867.5667L14098.2087,-3867.5302L14098.2062,-3867.5062L14098.2062,-3867.5062L14098.2062,-3867.5062L14098.2062,-3867.5062L14098.2062,-3867.5061L14098.2062,-3867.5061L14098.2056,-3867.5002"/>
<path content="1,十和田観光電鉄（株）,シリウス号,1.0,1.0,1.0," xlink:title="1" d="M14098.211,-3867.7368L14098.2113,-3867.733L14098.2115,-3867.7313L14098.2118,-3867.7182L14098.212,-3867.7122L14098.2122,-3867.7004L14098.2122,-3867.7003L14098.2122,-3867.7003L14098.2122,-3867.7003L14098.2122,-3867.7003L14098.2123,-3867.7003L14098.2123,-3867.7002L14098.2123,-3867.7002L14098.2123,-3867.7002L14098.2123,-3867.7001L14098.2123,-3867.7001L14098.2123,-3867.7001L14098.2123,-3867.6997L14098.2123,-3867.6997L14098.2123,-3867.6996L14098.2123,-3867.6995L14098.2123,-3867.6995L14098.2123,-3867.6994L14098.2123,-3867.6994L14098.2123,-3867.6994L14098.2123,-3867.6994L14098.2123,-3867.6993L14098.2123,-3867.6993L14098.2123,-3867.6992L14098.2123,-3867.6991L14098.2126,-3867.6882L14098.212,-3867.6002L14098.2113,-3867.5789L14098.211,-3867.5667L14098.211,-3867.5667L14098.211,-3867.5667L14098.211,-3867.5666L14098.2087,-3867.5302L14098.2062,-3867.5062L14098.2062,-3867.5062L14098.2062,-3867.5062L14098.2062,-3867.5062L14098.2062,-3867.5061L14098.2062,-3867.5061L14098.2056,-3867.5002"/>
<path content="1,十和田観光電鉄（株）,ブルーシティー号,6.0,6.0,6.0," xlink:title="1" d="M14098.211,-3867.7368L14098.2113,-3867.733L14098.2115,-3867.7313L14098.2118,-3867.7182L14098.212,-3867.7122L14098.2122,-3867.7004L14098.2122,-3867.7003L14098.2122,-3867.7003L14098.2122,-3867.7003L14098.2122,-3867.7003L14098.2123,-3867.7003L14098.2123,-3867.7002L14098.2123,-3867.7002L14098.2123,-3867.7002L14098.2123,-3867.7001L14098.2123,-3867.7001L14098.2123,-3867.7001L14098.2123,-3867.6997L14098.2123,-3867.6997L14098.2123,-3867.6996L14098.2123,-3867.6995L14098.2123,-3867.6995L14098.2123,-3867.6994L14098.2123,-3867.6994L14098.2123,-3867.6994L14098.2123,-3867.6994L14098.2123,-3867.6993L14098.2123,-3867.6993L14098.2123,-3867.6992L14098.2123,-3867.6991L14098.2126,-3867.6882L14098.2124,-3867.6627L14098.2124,-3867.6551L14098.2123,-3867.6486L14098.212,-3867.6003L14098.2116,-3867.5867L14098.2116,-3867.5846L14098.2115,-3867.5844L14098.2115,-3867.5842L14098.211,-3867.5667L14098.2087,-3867.5302L14098.2062,-3867.5062L14098.2062,-3867.5062L14098.2062,-3867.5062L14098.2062,-3867.5062L14098.2062,-3867.5061L14098.2062,-3867.5061L14098.2056,-3867.5002"/>
<path content="1,南部バス（株）,うみねこ号　仙台→八戸,4.0,4.0,4.0," xlink:title="1" d="M14098.2056,-3867.5002L14098.2062,-3867.5061L14098.2062,-3867.5061L14098.2062,-3867.5062L14098.2062,-3867.5062L14098.2062,-3867.5062L14098.2062,-3867.5062L14098.2087,-3867.5302L14098.211,-3867.5667L14098.2115,-3867.5842L14098.2115,-3867.5844L14098.2116,-3867.5846L14098.2116,-3867.5867L14098.212,-3867.6003L14098.2123,-3867.6486L14098.2124,-3867.6551L14098.2124,-3867.6627L14098.2126,-3867.6882L14098.2123,-3867.6991L14098.2123,-3867.6992L14098.2123,-3867.6993L14098.2123,-3867.6993L14098.2123,-3867.6994L14098.2123,-3867.6994L14098.2123,-3867.6994L14098.2123,-3867.6994L14098.2123,-3867.6995L14098.2123,-3867.6995L14098.2123,-3867.6996L14098.2123,-3867.6997L14098.2123,-3867.6997L14098.2123,-3867.7001L14098.2123,-3867.7001L14098.2123,-3867.7001L14098.2123,-3867.7002L14098.2123,-3867.7002L14098.2123,-3867.7002L14098.2123,-3867.7003L14098.2122,-3867.7003L14098.2122,-3867.7003L14098.2122,-3867.7003L14098.2122,-3867.7003L14098.2122,-3867.7004L14098.212,-3867.7122L14098.2118,-3867.7182L14098.2115,-3867.7313L14098.2113,-3867.733L14098.211,-3867.7368"/>
<path content="1,南部バス（株）,うみねこ号　八戸→仙台,4.0,4.0,4.0," xlink:title="1" d="M14098.211,-3867.7368L14098.2113,-3867.733L14098.2115,-3867.7313L14098.2118,-3867.7182L14098.212,-3867.7122L14098.2122,-3867.7004L14098.2122,-3867.7003L14098.2122,-3867.7003L14098.2122,-3867.7003L14098.2122,-3867.7003L14098.2123,-3867.7003L14098.2123,-3867.7002L14098.2123,-3867.7002L14098.2123,-3867.7002L14098.2123,-3867.7001L14098.2123,-3867.7001L14098.2123,-3867.7001L14098.2123,-3867.6997L14098.2123,-3867.6997L14098.2123,-3867.6996L14098.2123,-3867.6995L14098.2123,-3867.6995L14098.2123,-3867.6994L14098.2123,-3867.6994L14098.2123,-3867.6994L14098.2123,-3867.6994L14098.2123,-3867.6993L14098.2123,-3867.6993L14098.2123,-3867.6992L14098.2123,-3867.6991L14098.2126,-3867.6882L14098.212,-3867.6002L14098.2113,-3867.5789L14098.211,-3867.5667L14098.211,-3867.5667L14098.211,-3867.5667L14098.211,-3867.5666L14098.2087,-3867.5302L14098.2062,-3867.5062L14098.2062,-3867.5062L14098.2062,-3867.5062L14098.2062,-3867.5062L14098.2062,-3867.5061L14098.2062,-3867.5061L14098.2056,-3867.5002"/>
<path content="1,国際興業（株）,けせんライナー,1.0,1.0,1.0," xlink:title="1" d="M14098.2056,-3867.5002L14098.2062,-3867.5061L14098.2062,-3867.5061L14098.2062,-3867.5062L14098.2062,-3867.5062L14098.2062,-3867.5062L14098.2062,-3867.5062L14098.2087,-3867.5302L14098.211,-3867.5666L14098.212,-3867.6002L14098.2126,-3867.6882L14098.2123,-3867.6991L14098.2123,-3867.6992L14098.2123,-3867.6993L14098.2123,-3867.6993L14098.2123,-3867.6994L14098.2123,-3867.6994L14098.2123,-3867.6994L14098.2123,-3867.6994L14098.2123,-3867.6995L14098.2123,-3867.6995L14098.2123,-3867.6996L14098.2123,-3867.6997L14098.2123,-3867.6997L14098.2123,-3867.7001L14098.2123,-3867.7001L14098.2123,-3867.7001L14098.2123,-3867.7002L14098.2123,-3867.7002L14098.2123,-3867.7002L14098.2123,-3867.7003L14098.2122,-3867.7003L14098.2122,-3867.7003L14098.2122,-3867.7003L14098.2122,-3867.7003L14098.2122,-3867.7004L14098.212,-3867.7122L14098.2118,-3867.7182L14098.2115,-3867.7313L14098.2113,-3867.733L14098.211,-3867.7368"/>
<path content="1,国際興業（株）,イーハトープ号,1.0,1.0,1.0," xlink:title="1" d="M14098.2056,-3867.5002L14098.2062,-3867.5061L14098.2062,-3867.5061L14098.2062,-3867.5062L14098.2062,-3867.5062L14098.2062,-3867.5062L14098.2062,-3867.5062L14098.2087,-3867.5302L14098.211,-3867.5666L14098.212,-3867.6002L14098.2126,-3867.6882L14098.2123,-3867.6991L14098.2123,-3867.6992L14098.2123,-3867.6993L14098.2123,-3867.6993L14098.2123,-3867.6994L14098.2123,-3867.6994L14098.2123,-3867.6994L14098.2123,-3867.6994L14098.2123,-3867.6995L14098.2123,-3867.6995L14098.2123,-3867.6996L14098.2123,-3867.6997L14098.2123,-3867.6997L14098.2123,-3867.7001L14098.2123,-3867.7001L14098.2123,-3867.7001L14098.2123,-3867.7002L14098.2123,-3867.7002L14098.2123,-3867.7002L14098.2123,-3867.7003L14098.2122,-3867.7003L14098.2122,-3867.7003L14098.2122,-3867.7003L14098.2122,-3867.7003L14098.2122,-3867.7004L14098.212,-3867.7122L14098.2118,-3867.7182L14098.2115,-3867.7313L14098.2113,-3867.733L14098.211,-3867.7368"/>
<path content="1,国際興業（株）,シリウス号,1.0,1.0,1.0," xlink:title="1" d="M14098.2056,-3867.5002L14098.2062,-3867.5061L14098.2062,-3867.5061L14098.2062,-3867.5062L14098.2062,-3867.5062L14098.2062,-3867.5062L14098.2062,-3867.5062L14098.2087,-3867.5302L14098.211,-3867.5666L14098.212,-3867.6002L14098.2126,-3867.6882L14098.2123,-3867.6991L14098.2123,-3867.6992L14098.2123,-3867.6993L14098.2123,-3867.6993L14098.2123,-3867.6994L14098.2123,-3867.6994L14098.2123,-3867.6994L14098.2123,-3867.6994L14098.2123,-3867.6995L14098.2123,-3867.6995L14098.2123,-3867.6996L14098.2123,-3867.6997L14098.2123,-3867.6997L14098.2123,-3867.7001L14098.2123,-3867.7001L14098.2123,-3867.7001L14098.2123,-3867.7002L14098.2123,-3867.7002L14098.2123,-3867.7002L14098.2123,-3867.7003L14098.2122,-3867.7003L14098.2122,-3867.7003L14098.2122,-3867.7003L14098.2122,-3867.7003L14098.2122,-3867.7004L14098.212,-3867.7122L14098.2118,-3867.7182L14098.2115,-3867.7313L14098.2113,-3867.733L14098.211,-3867.7368"/>
<path content="1,国際興業（株）,ジュピター号,1.0,1.0,1.0," xlink:title="1" d="M14098.2056,-3867.5002L14098.2062,-3867.5061L14098.2062,-3867.5061L14098.2062,-3867.5062L14098.2062,-3867.5062L14098.2062,-3867.5062L14098.2062,-3867.5062L14098.2087,-3867.5302L14098.211,-3867.5666L14098.212,-3867.6002L14098.2126,-3867.6882L14098.2123,-3867.6991L14098.2123,-3867.6992L14098.2123,-3867.6993L14098.2123,-3867.6993L14098.2123,-3867.6994L14098.2123,-3867.6994L14098.2123,-3867.6994L14098.2123,-3867.6994L14098.2123,-3867.6995L14098.2123,-3867.6995L14098.2123,-3867.6996L14098.2123,-3867.6997L14098.2123,-3867.6997L14098.2123,-3867.7001L14098.2123,-3867.7001L14098.2123,-3867.7001L14098.2123,-3867.7002L14098.2123,-3867.7002L14098.2123,-3867.7002L14098.2123,-3867.7003L14098.2122,-3867.7003L14098.2122,-3867.7003L14098.2122,-3867.7003L14098.2122,-3867.7003L14098.2122,-3867.7004L14098.212,-3867.7122L14098.2118,-3867.7182L14098.2115,-3867.7313L14098.2113,-3867.733L14098.211,-3867.7368"/>
<path content="1,国際興業（株）,ドリーム盛岡（らくちん）号,2.2,3.0,3.0," xlink:title="1" d="M14098.2056,-3867.5002L14098.2062,-3867.5061L14098.2062,-3867.5061L14098.2062,-3867.5062L14098.2062,-3867.5062L14098.2062,-3867.5062L14098.2062,-3867.5062L14098.2087,-3867.5302L14098.211,-3867.5666L14098.212,-3867.6002L14098.2126,-3867.6882L14098.2123,-3867.6991L14098.2123,-3867.6992L14098.2123,-3867.6993L14098.2123,-3867.6993L14098.2123,-3867.6994L14098.2123,-3867.6994L14098.2123,-3867.6994L14098.2123,-3867.6994L14098.2123,-3867.6995L14098.2123,-3867.6995L14098.2123,-3867.6996L14098.2123,-3867.6997L14098.2123,-3867.6997L14098.2123,-3867.7001L14098.2123,-3867.7001L14098.2123,-3867.7001L14098.2123,-3867.7002L14098.2123,-3867.7002L14098.2123,-3867.7002L14098.2123,-3867.7003L14098.2122,-3867.7003L14098.2122,-3867.7003L14098.2122,-3867.7003L14098.2122,-3867.7003L14098.2122,-3867.7004L14098.212,-3867.7122L14098.2118,-3867.7182L14098.2115,-3867.7313L14098.2113,-3867.733L14098.211,-3867.7368"/>
<path content="1,国際興業（株）,遠野・釜石号,1.0,1.0,1.0," xlink:title="1" d="M14098.2056,-3867.5002L14098.2062,-3867.5061L14098.2062,-3867.5061L14098.2062,-3867.5062L14098.2062,-3867.5062L14098.2062,-3867.5062L14098.2062,-3867.5062L14098.2087,-3867.5302L14098.211,-3867.5666L14098.212,-3867.6002L14098.2126,-3867.6882L14098.2123,-3867.6991L14098.2123,-3867.6992L14098.2123,-3867.6993L14098.2123,-3867.6993L14098.2123,-3867.6994L14098.2123,-3867.6994L14098.2123,-3867.6994L14098.2123,-3867.6994L14098.2123,-3867.6995L14098.2123,-3867.6995L14098.2123,-3867.6996L14098.2123,-3867.6997L14098.2123,-3867.6997L14098.2123,-3867.7001L14098.2123,-3867.7001L14098.2123,-3867.7001L14098.2123,-3867.7002L14098.2123,-3867.7002L14098.2123,-3867.7002L14098.2123,-3867.7003L14098.2122,-3867.7003L14098.2122,-3867.7003L14098.2122,-3867.7003L14098.2122,-3867.7003L14098.2122,-3867.7004L14098.212,-3867.7122L14098.2118,-3867.7182L14098.2115,-3867.7313L14098.2113,-3867.733L14098.211,-3867.7368"/>
<path content="1,宮城交通（株）,うみねこ,1.0,1.0,1.0," xlink:title="1" d="M14098.2056,-3867.5002L14098.2062,-3867.5061L14098.2062,-3867.5061L14098.2062,-3867.5062L14098.2062,-3867.5062L14098.2062,-3867.5062L14098.2062,-3867.5062L14098.2087,-3867.5302L14098.211,-3867.5666L14098.211,-3867.5667L14098.211,-3867.5667L14098.211,-3867.5667L14098.2113,-3867.5789L14098.212,-3867.6002L14098.2126,-3867.6882L14098.2123,-3867.6991L14098.2123,-3867.6992L14098.2123,-3867.6993L14098.2123,-3867.6993L14098.2123,-3867.6994L14098.2123,-3867.6994L14098.2123,-3867.6994L14098.2123,-3867.6994L14098.2123,-3867.6995L14098.2123,-3867.6995L14098.2123,-3867.6996L14098.2123,-3867.6997L14098.2123,-3867.6997L14098.2123,-3867.7001L14098.2123,-3867.7001L14098.2123,-3867.7001L14098.2123,-3867.7002L14098.2123,-3867.7002L14098.2123,-3867.7002L14098.2123,-3867.7003L14098.2122,-3867.7003L14098.2122,-3867.7003L14098.2122,-3867.7003L14098.2122,-3867.7003L14098.2122,-3867.7004L14098.212,-3867.7122L14098.2118,-3867.7182L14098.2115,-3867.7313L14098.2113,-3867.733L14098.211,-3867.7368"/>
<path content="1,宮城交通（株）,アーバン,3.2,4.0,4.0," xlink:title="1" d="M14098.2056,-3867.5002L14098.2062,-3867.5061L14098.2062,-3867.5061L14098.2062,-3867.5062L14098.2062,-3867.5062L14098.2062,-3867.5062L14098.2062,-3867.5062L14098.2087,-3867.5302L14098.211,-3867.5666L14098.211,-3867.5667L14098.211,-3867.5667L14098.211,-3867.5667L14098.2113,-3867.5789L14098.212,-3867.6002L14098.2126,-3867.6882L14098.2123,-3867.6991L14098.2123,-3867.6992L14098.2123,-3867.6993L14098.2123,-3867.6993L14098.2123,-3867.6994L14098.2123,-3867.6994L14098.2123,-3867.6994L14098.2123,-3867.6994L14098.2123,-3867.6995L14098.2123,-3867.6995L14098.2123,-3867.6996L14098.2123,-3867.6997L14098.2123,-3867.6997L14098.2123,-3867.7001L14098.2123,-3867.7001L14098.2123,-3867.7001L14098.2123,-3867.7002L14098.2123,-3867.7002L14098.2123,-3867.7002L14098.2123,-3867.7003L14098.2122,-3867.7003L14098.2122,-3867.7003L14098.2122,-3867.7003L14098.2122,-3867.7003L14098.2122,-3867.7004L14098.212,-3867.7122L14098.2118,-3867.7182L14098.2115,-3867.7313L14098.2113,-3867.733L14098.211,-3867.7368"/>
<path content="1,宮城交通（株）,キャッスル,3.0,3.0,3.0," xlink:title="1" d="M14098.2056,-3867.5002L14098.2062,-3867.5061L14098.2062,-3867.5061L14098.2062,-3867.5062L14098.2062,-3867.5062L14098.2062,-3867.5062L14098.2062,-3867.5062L14098.2087,-3867.5302L14098.211,-3867.5666L14098.211,-3867.5667L14098.211,-3867.5667L14098.211,-3867.5667L14098.2113,-3867.5789L14098.212,-3867.6002L14098.2126,-3867.6882L14098.2123,-3867.6991L14098.2123,-3867.6992L14098.2123,-3867.6993L14098.2123,-3867.6993L14098.2123,-3867.6994L14098.2123,-3867.6994L14098.2123,-3867.6994L14098.2123,-3867.6994L14098.2123,-3867.6995L14098.2123,-3867.6995L14098.2123,-3867.6996L14098.2123,-3867.6997L14098.2123,-3867.6997L14098.2123,-3867.7001L14098.2123,-3867.7001L14098.2123,-3867.7001L14098.2123,-3867.7002L14098.2123,-3867.7002L14098.2123,-3867.7002L14098.2123,-3867.7003L14098.2122,-3867.7003L14098.2122,-3867.7003L14098.2122,-3867.7003L14098.2122,-3867.7003L14098.2122,-3867.7004L14098.212,-3867.7122L14098.2118,-3867.7182L14098.2115,-3867.7313L14098.2113,-3867.733L14098.211,-3867.7368"/>
<path content="1,宮城交通（株）,ブルーシティ,1.5,1.5,1.5," xlink:title="1" d="M14098.2056,-3867.5002L14098.2062,-3867.5061L14098.2062,-3867.5061L14098.2062,-3867.5062L14098.2062,-3867.5062L14098.2062,-3867.5062L14098.2062,-3867.5062L14098.2087,-3867.5302L14098.211,-3867.5666L14098.211,-3867.5667L14098.211,-3867.5667L14098.211,-3867.5667L14098.2113,-3867.5789L14098.212,-3867.6002L14098.2126,-3867.6882L14098.2123,-3867.6991L14098.2123,-3867.6992L14098.2123,-3867.6993L14098.2123,-3867.6993L14098.2123,-3867.6994L14098.2123,-3867.6994L14098.2123,-3867.6994L14098.2123,-3867.6994L14098.2123,-3867.6995L14098.2123,-3867.6995L14098.2123,-3867.6996L14098.2123,-3867.6997L14098.2123,-3867.6997L14098.2123,-3867.7001L14098.2123,-3867.7001L14098.2123,-3867.7001L14098.2123,-3867.7002L14098.2123,-3867.7002L14098.2123,-3867.7002L14098.2123,-3867.7003L14098.2122,-3867.7003L14098.2122,-3867.7003L14098.2122,-3867.7003L14098.2122,-3867.7003L14098.2122,-3867.7004L14098.212,-3867.7122L14098.2118,-3867.7182L14098.2115,-3867.7313L14098.2113,-3867.733L14098.211,-3867.7368"/>
<path content="1,宮城交通（株）,仙台～佐沼線,8.0,8.0,8.0," xlink:title="1" d="M14098.2056,-3867.5002L14098.2062,-3867.5061L14098.2062,-3867.5061L14098.2062,-3867.5062L14098.2062,-3867.5062L14098.2062,-3867.5062L14098.2062,-3867.5062L14098.2087,-3867.5302L14098.211,-3867.5666L14098.211,-3867.5667L14098.211,-3867.5667L14098.211,-3867.5667L14098.2113,-3867.5789L14098.2115,-3867.5842L14098.2115,-3867.5844L14098.2116,-3867.5846L14098.2116,-3867.5867L14098.2121,-3867.6004L14098.2123,-3867.6486L14098.2124,-3867.6551L14098.2124,-3867.6627L14098.2126,-3867.6882L14098.2123,-3867.6991L14098.2123,-3867.6992L14098.2123,-3867.6993L14098.2123,-3867.6993L14098.2123,-3867.6994L14098.2123,-3867.6994L14098.2123,-3867.6994L14098.2123,-3867.6994L14098.2123,-3867.6995L14098.2123,-3867.6995L14098.2123,-3867.6996L14098.2123,-3867.6997L14098.2123,-3867.6997L14098.2123,-3867.7001L14098.2123,-3867.7001L14098.2123,-3867.7001L14098.2123,-3867.7002L14098.2123,-3867.7002L14098.2123,-3867.7002L14098.2123,-3867.7003L14098.2122,-3867.7003L14098.2122,-3867.7003L14098.2122,-3867.7003L14098.2122,-3867.7003L14098.2122,-3867.7004L14098.212,-3867.7122L14098.2118,-3867.7182L14098.2115,-3867.7313L14098.2113,-3867.733L14098.211,-3867.7368"/>
<path content="1,宮城交通（株）,仙台～大船渡線,2.0,2.0,2.0," xlink:title="1" d="M14098.2056,-3867.5002L14098.2062,-3867.5061L14098.2062,-3867.5061L14098.2062,-3867.5062L14098.2062,-3867.5062L14098.2062,-3867.5062L14098.2062,-3867.5062L14098.2087,-3867.5302L14098.211,-3867.5666L14098.212,-3867.6002L14098.2126,-3867.6882L14098.2123,-3867.6991L14098.2123,-3867.6992L14098.2123,-3867.6993L14098.2123,-3867.6993L14098.2123,-3867.6994L14098.2123,-3867.6994L14098.2123,-3867.6994L14098.2123,-3867.6994L14098.2123,-3867.6995L14098.2123,-3867.6995L14098.2123,-3867.6996L14098.2123,-3867.6997L14098.2123,-3867.6997L14098.2123,-3867.7001L14098.2123,-3867.7001L14098.2123,-3867.7001L14098.2123,-3867.7002L14098.2123,-3867.7002L14098.2123,-3867.7002L14098.2123,-3867.7003L14098.2122,-3867.7003L14098.2122,-3867.7003L14098.2122,-3867.7003L14098.2122,-3867.7003L14098.2122,-3867.7004L14098.212,-3867.7122L14098.2118,-3867.7182L14098.2115,-3867.7313L14098.2113,-3867.733L14098.211,-3867.7368"/>
<path content="1,宮城交通（株）,仙台～栗駒線,2.0,2.0,2.0," xlink:title="1" d="M14098.2056,-3867.5002L14098.2062,-3867.5061L14098.2062,-3867.5061L14098.2062,-3867.5062L14098.2062,-3867.5062L14098.2062,-3867.5062L14098.2062,-3867.5062L14098.2087,-3867.5302L14098.211,-3867.5666L14098.211,-3867.5667L14098.211,-3867.5667L14098.211,-3867.5667L14098.2113,-3867.5789L14098.2115,-3867.5842L14098.2115,-3867.5844L14098.2116,-3867.5846L14098.2116,-3867.5867L14098.2121,-3867.6004L14098.2123,-3867.6486L14098.2124,-3867.6551L14098.2124,-3867.6627L14098.2126,-3867.6882L14098.2123,-3867.6991L14098.2123,-3867.6992L14098.2123,-3867.6993L14098.2123,-3867.6993L14098.2123,-3867.6994L14098.2123,-3867.6994L14098.2123,-3867.6994L14098.2123,-3867.6994L14098.2123,-3867.6995L14098.2123,-3867.6995L14098.2123,-3867.6996L14098.2123,-3867.6997L14098.2123,-3867.6997L14098.2123,-3867.7001L14098.2123,-3867.7001L14098.2123,-3867.7001L14098.2123,-3867.7002L14098.2123,-3867.7002L14098.2123,-3867.7002L14098.2123,-3867.7003L14098.2122,-3867.7003L14098.2122,-3867.7003L14098.2122,-3867.7003L14098.2122,-3867.7003L14098.2122,-3867.7004L14098.212,-3867.7122L14098.2118,-3867.7182L14098.2115,-3867.7313L14098.2113,-3867.733L14098.211,-3867.7368"/>
<path content="1,宮城交通（株）,仙台～気仙沼線,3.0,3.0,3.0," xlink:title="1" d="M14098.2056,-3867.5002L14098.2062,-3867.5061L14098.2062,-3867.5061L14098.2062,-3867.5062L14098.2062,-3867.5062L14098.2062,-3867.5062L14098.2062,-3867.5062L14098.2087,-3867.5302L14098.211,-3867.5666L14098.211,-3867.5667L14098.211,-3867.5667L14098.211,-3867.5667L14098.2113,-3867.5789L14098.2115,-3867.5842L14098.2115,-3867.5844L14098.2116,-3867.5846L14098.2116,-3867.5867L14098.2121,-3867.6004L14098.2123,-3867.6486L14098.2124,-3867.6551L14098.2124,-3867.6627L14098.2126,-3867.6882L14098.2123,-3867.6991L14098.2123,-3867.6992L14098.2123,-3867.6993L14098.2123,-3867.6993L14098.2123,-3867.6994L14098.2123,-3867.6994L14098.2123,-3867.6994L14098.2123,-3867.6994L14098.2123,-3867.6995L14098.2123,-3867.6995L14098.2123,-3867.6996L14098.2123,-3867.6997L14098.2123,-3867.6997L14098.2123,-3867.7001L14098.2123,-3867.7001L14098.2123,-3867.7001L14098.2123,-3867.7002L14098.2123,-3867.7002L14098.2123,-3867.7002L14098.2123,-3867.7003L14098.2122,-3867.7003L14098.2122,-3867.7003L14098.2122,-3867.7003L14098.2122,-3867.7003L14098.2122,-3867.7004L14098.212,-3867.7122L14098.2118,-3867.7182L14098.2115,-3867.7313L14098.2113,-3867.733L14098.211,-3867.7368"/>
<path content="1,宮城交通（株）,仙台～釜石線,1.0,1.0,1.0," xlink:title="1" d="M14098.2056,-3867.5002L14098.2062,-3867.5061L14098.2062,-3867.5061L14098.2062,-3867.5062L14098.2062,-3867.5062L14098.2062,-3867.5062L14098.2062,-3867.5062L14098.2087,-3867.5302L14098.211,-3867.5666L14098.211,-3867.5667L14098.211,-3867.5667L14098.211,-3867.5667L14098.2113,-3867.5789L14098.212,-3867.6002L14098.2126,-3867.6882L14098.2123,-3867.6991L14098.2123,-3867.6992L14098.2123,-3867.6993L14098.2123,-3867.6993L14098.2123,-3867.6994L14098.2123,-3867.6994L14098.2123,-3867.6994L14098.2123,-3867.6994L14098.2123,-3867.6995L14098.2123,-3867.6995L14098.2123,-3867.6996L14098.2123,-3867.6997L14098.2123,-3867.6997L14098.2123,-3867.7001L14098.2123,-3867.7001L14098.2123,-3867.7001L14098.2123,-3867.7002L14098.2123,-3867.7002L14098.2123,-3867.7002L14098.2123,-3867.7003L14098.2122,-3867.7003L14098.2122,-3867.7003L14098.2122,-3867.7003L14098.2122,-3867.7003L14098.2122,-3867.7004L14098.212,-3867.7122L14098.2118,-3867.7182L14098.2115,-3867.7313L14098.2113,-3867.733L14098.211,-3867.7368"/>
<path content="1,宮城交通（株）,仙秋,4.0,4.0,4.0," xlink:title="1" d="M14098.2056,-3867.5002L14098.2062,-3867.5061L14098.2062,-3867.5061L14098.2062,-3867.5062L14098.2062,-3867.5062L14098.2062,-3867.5062L14098.2062,-3867.5062L14098.2087,-3867.5302L14098.211,-3867.5666L14098.211,-3867.5667L14098.211,-3867.5667L14098.211,-3867.5667L14098.2113,-3867.5789L14098.212,-3867.6002L14098.2126,-3867.6882L14098.2123,-3867.6991L14098.2123,-3867.6992L14098.2123,-3867.6993L14098.2123,-3867.6993L14098.2123,-3867.6994L14098.2123,-3867.6994L14098.2123,-3867.6994L14098.2123,-3867.6994L14098.2123,-3867.6995L14098.2123,-3867.6995L14098.2123,-3867.6996L14098.2123,-3867.6997L14098.2123,-3867.6997L14098.2123,-3867.7001L14098.2123,-3867.7001L14098.2123,-3867.7001L14098.2123,-3867.7002L14098.2123,-3867.7002L14098.2123,-3867.7002L14098.2123,-3867.7003L14098.2122,-3867.7003L14098.2122,-3867.7003L14098.2122,-3867.7003L14098.2122,-3867.7003L14098.2122,-3867.7004L14098.212,-3867.7122L14098.2118,-3867.7182L14098.2115,-3867.7313L14098.2113,-3867.733L14098.211,-3867.7368"/>
<path content="1,宮城交通（株）,南三陸～仙台線,3.0,3.0,3.0," xlink:title="1" d="M14098.2056,-3867.5002L14098.2062,-3867.5061L14098.2062,-3867.5061L14098.2062,-3867.5062L14098.2062,-3867.5062L14098.2062,-3867.5062L14098.2062,-3867.5062L14098.2087,-3867.5302L14098.211,-3867.5666L14098.211,-3867.5667L14098.211,-3867.5667L14098.211,-3867.5667L14098.2113,-3867.5789L14098.2115,-3867.5842L14098.2115,-3867.5844L14098.2116,-3867.5846L14098.2116,-3867.5867L14098.2121,-3867.6004L14098.2123,-3867.6486L14098.2124,-3867.6551L14098.2124,-3867.6627L14098.2126,-3867.6882L14098.2123,-3867.6991L14098.2123,-3867.6992L14098.2123,-3867.6993L14098.2123,-3867.6993L14098.2123,-3867.6994L14098.2123,-3867.6994L14098.2123,-3867.6994L14098.2123,-3867.6994L14098.2123,-3867.6995L14098.2123,-3867.6995L14098.2123,-3867.6996L14098.2123,-3867.6997L14098.2123,-3867.6997L14098.2123,-3867.7001L14098.2123,-3867.7001L14098.2123,-3867.7001L14098.2123,-3867.7002L14098.2123,-3867.7002L14098.2123,-3867.7002L14098.2123,-3867.7003L14098.2122,-3867.7003L14098.2122,-3867.7003L14098.2122,-3867.7003L14098.2122,-3867.7003L14098.2122,-3867.7004L14098.212,-3867.7122L14098.2118,-3867.7182L14098.2115,-3867.7313L14098.2113,-3867.733L14098.211,-3867.7368"/>
<path content="1,小田急シティバス（株）,フローラ号,1.0,1.0,1.0," xlink:title="1" d="M14098.2056,-3867.5002L14098.2062,-3867.5061L14098.2062,-3867.5061L14098.2062,-3867.5062L14098.2062,-3867.5062L14098.2062,-3867.5062L14098.2062,-3867.5062L14098.2087,-3867.5302L14098.211,-3867.5666L14098.212,-3867.6002L14098.2126,-3867.6882L14098.2123,-3867.6991L14098.2123,-3867.6992L14098.2123,-3867.6993L14098.2123,-3867.6993L14098.2123,-3867.6994L14098.2123,-3867.6994L14098.2123,-3867.6994L14098.2123,-3867.6994L14098.2123,-3867.6995L14098.2123,-3867.6995L14098.2123,-3867.6996L14098.2123,-3867.6997L14098.2123,-3867.6997L14098.2123,-3867.7001L14098.2123,-3867.7001L14098.2123,-3867.7001L14098.2123,-3867.7002L14098.2123,-3867.7002L14098.2123,-3867.7002L14098.2123,-3867.7003L14098.2122,-3867.7003L14098.2122,-3867.7003L14098.2122,-3867.7003L14098.2122,-3867.7003L14098.2122,-3867.7004L14098.212,-3867.7122L14098.2118,-3867.7182L14098.2115,-3867.7313L14098.2113,-3867.733L14098.211,-3867.7368"/>
<path content="1,小田急バス（株）,フローラ号,1.0,1.0,1.0," xlink:title="1" d="M14098.2056,-3867.5002L14098.2062,-3867.5061L14098.2062,-3867.5061L14098.2062,-3867.5062L14098.2062,-3867.5062L14098.2062,-3867.5062L14098.2062,-3867.5062L14098.2087,-3867.5302L14098.211,-3867.5666L14098.212,-3867.6002L14098.2126,-3867.6882L14098.2123,-3867.6991L14098.2123,-3867.6992L14098.2123,-3867.6993L14098.2123,-3867.6993L14098.2123,-3867.6994L14098.2123,-3867.6994L14098.2123,-3867.6994L14098.2123,-3867.6994L14098.2123,-3867.6995L14098.2123,-3867.6995L14098.2123,-3867.6996L14098.2123,-3867.6997L14098.2123,-3867.6997L14098.2123,-3867.7001L14098.2123,-3867.7001L14098.2123,-3867.7001L14098.2123,-3867.7002L14098.2123,-3867.7002L14098.2123,-3867.7002L14098.2123,-3867.7003L14098.2122,-3867.7003L14098.2122,-3867.7003L14098.2122,-3867.7003L14098.2122,-3867.7003L14098.2122,-3867.7004L14098.212,-3867.7122L14098.2118,-3867.7182L14098.2115,-3867.7313L14098.2113,-3867.733L14098.211,-3867.7368"/>
<path content="1,岩手急行バス（株）,一ノ関仙台線,19.0,19.0,19.0," xlink:title="1" d="M14098.2056,-3867.5002L14098.2062,-3867.5061L14098.2062,-3867.5061L14098.2062,-3867.5062L14098.2062,-3867.5062L14098.2062,-3867.5062L14098.2062,-3867.5062L14098.2087,-3867.5302L14098.211,-3867.5666L14098.211,-3867.5667L14098.211,-3867.5667L14098.211,-3867.5667L14098.2113,-3867.5789L14098.2115,-3867.5842L14098.2115,-3867.5844L14098.2116,-3867.5846L14098.2116,-3867.5867L14098.2121,-3867.6004L14098.2123,-3867.6486L14098.2124,-3867.6551L14098.2124,-3867.6627L14098.2126,-3867.6882L14098.2123,-3867.6991L14098.2123,-3867.6992L14098.2123,-3867.6993L14098.2123,-3867.6993L14098.2123,-3867.6994L14098.2123,-3867.6994L14098.2123,-3867.6994L14098.2123,-3867.6994L14098.2123,-3867.6995L14098.2123,-3867.6995L14098.2123,-3867.6996L14098.2123,-3867.6997L14098.2123,-3867.6997L14098.2123,-3867.7001L14098.2123,-3867.7001L14098.2123,-3867.7001L14098.2123,-3867.7002L14098.2123,-3867.7002L14098.2123,-3867.7002L14098.2123,-3867.7003L14098.2122,-3867.7003L14098.2122,-3867.7003L14098.2122,-3867.7003L14098.2122,-3867.7003L14098.2122,-3867.7004L14098.212,-3867.7122L14098.2118,-3867.7182L14098.2115,-3867.7313L14098.2113,-3867.733L14098.211,-3867.7368"/>
<path content="1,岩手県交通（株）,けせんライナー,1.0,1.0,1.0," xlink:title="1" d="M14098.2056,-3867.5002L14098.2062,-3867.5061L14098.2062,-3867.5061L14098.2062,-3867.5062L14098.2062,-3867.5062L14098.2062,-3867.5062L14098.2062,-3867.5062L14098.2087,-3867.5302L14098.211,-3867.5666L14098.212,-3867.6002L14098.2126,-3867.6882L14098.2123,-3867.6991L14098.2123,-3867.6992L14098.2123,-3867.6993L14098.2123,-3867.6993L14098.2123,-3867.6994L14098.2123,-3867.6994L14098.2123,-3867.6994L14098.2123,-3867.6994L14098.2123,-3867.6995L14098.2123,-3867.6995L14098.2123,-3867.6996L14098.2123,-3867.6997L14098.2123,-3867.6997L14098.2123,-3867.7001L14098.2123,-3867.7001L14098.2123,-3867.7001L14098.2123,-3867.7002L14098.2123,-3867.7002L14098.2123,-3867.7002L14098.2123,-3867.7003L14098.2122,-3867.7003L14098.2122,-3867.7003L14098.2122,-3867.7003L14098.2122,-3867.7003L14098.2122,-3867.7004L14098.212,-3867.7122L14098.2118,-3867.7182L14098.2115,-3867.7313L14098.2113,-3867.733L14098.211,-3867.7368"/>
<path content="1,岩手県交通（株）,けんじライナー,2.0,2.0,2.0," xlink:title="1" d="M14098.2056,-3867.5002L14098.2062,-3867.5061L14098.2062,-3867.5061L14098.2062,-3867.5062L14098.2062,-3867.5062L14098.2062,-3867.5062L14098.2062,-3867.5062L14098.2087,-3867.5302L14098.211,-3867.5666L14098.211,-3867.5667L14098.211,-3867.5667L14098.211,-3867.5667L14098.2113,-3867.5789L14098.2115,-3867.5842L14098.2115,-3867.5844L14098.2116,-3867.5846L14098.2116,-3867.5867L14098.2121,-3867.6004L14098.2123,-3867.6486L14098.2124,-3867.6551L14098.2124,-3867.6627L14098.2126,-3867.6882L14098.2123,-3867.6991L14098.2123,-3867.6992L14098.2123,-3867.6993L14098.2123,-3867.6993L14098.2123,-3867.6994L14098.2123,-3867.6994L14098.2123,-3867.6994L14098.2123,-3867.6994L14098.2123,-3867.6995L14098.2123,-3867.6995L14098.2123,-3867.6996L14098.2123,-3867.6997L14098.2123,-3867.6997L14098.2123,-3867.7001L14098.2123,-3867.7001L14098.2123,-3867.7001L14098.2123,-3867.7002L14098.2123,-3867.7002L14098.2123,-3867.7002L14098.2123,-3867.7003L14098.2122,-3867.7003L14098.2122,-3867.7003L14098.2122,-3867.7003L14098.2122,-3867.7003L14098.2122,-3867.7004L14098.212,-3867.7122L14098.2118,-3867.7182L14098.2115,-3867.7313L14098.2113,-3867.733L14098.211,-3867.7368"/>
<path content="1,岩手県交通（株）,アーバン号,3.2,4.0,4.0," xlink:title="1" d="M14098.2056,-3867.5002L14098.2062,-3867.5061L14098.2062,-3867.5061L14098.2062,-3867.5062L14098.2062,-3867.5062L14098.2062,-3867.5062L14098.2062,-3867.5062L14098.2087,-3867.5302L14098.211,-3867.5666L14098.211,-3867.5667L14098.211,-3867.5667L14098.211,-3867.5667L14098.2113,-3867.5789L14098.2115,-3867.5842L14098.2115,-3867.5844L14098.2116,-3867.5846L14098.2116,-3867.5867L14098.2121,-3867.6004L14098.2123,-3867.6486L14098.2124,-3867.6551L14098.2124,-3867.6627L14098.2126,-3867.6882L14098.2123,-3867.6991L14098.2123,-3867.6992L14098.2123,-3867.6993L14098.2123,-3867.6993L14098.2123,-3867.6994L14098.2123,-3867.6994L14098.2123,-3867.6994L14098.2123,-3867.6994L14098.2123,-3867.6995L14098.2123,-3867.6995L14098.2123,-3867.6996L14098.2123,-3867.6997L14098.2123,-3867.6997L14098.2123,-3867.7001L14098.2123,-3867.7001L14098.2123,-3867.7001L14098.2123,-3867.7002L14098.2123,-3867.7002L14098.2123,-3867.7002L14098.2123,-3867.7003L14098.2122,-3867.7003L14098.2122,-3867.7003L14098.2122,-3867.7003L14098.2122,-3867.7003L14098.2122,-3867.7004L14098.212,-3867.7122L14098.2118,-3867.7182L14098.2115,-3867.7313L14098.2113,-3867.733L14098.211,-3867.7368"/>
<path content="1,岩手県交通（株）,イーハトーブ号,1.0,1.0,1.0," xlink:title="1" d="M14098.2056,-3867.5002L14098.2062,-3867.5061L14098.2062,-3867.5061L14098.2062,-3867.5062L14098.2062,-3867.5062L14098.2062,-3867.5062L14098.2062,-3867.5062L14098.2087,-3867.5302L14098.211,-3867.5666L14098.212,-3867.6002L14098.2126,-3867.6882L14098.2123,-3867.6991L14098.2123,-3867.6992L14098.2123,-3867.6993L14098.2123,-3867.6993L14098.2123,-3867.6994L14098.2123,-3867.6994L14098.2123,-3867.6994L14098.2123,-3867.6994L14098.2123,-3867.6995L14098.2123,-3867.6995L14098.2123,-3867.6996L14098.2123,-3867.6997L14098.2123,-3867.6997L14098.2123,-3867.7001L14098.2123,-3867.7001L14098.2123,-3867.7001L14098.2123,-3867.7002L14098.2123,-3867.7002L14098.2123,-3867.7002L14098.2123,-3867.7003L14098.2122,-3867.7003L14098.2122,-3867.7003L14098.2122,-3867.7003L14098.2122,-3867.7003L14098.2122,-3867.7004L14098.212,-3867.7122L14098.2118,-3867.7182L14098.2115,-3867.7313L14098.2113,-3867.733L14098.211,-3867.7368"/>
<path content="1,岩手県交通（株）,ドリーム盛岡（らくちん）号,2.3,3.0,3.0," xlink:title="1" d="M14098.2056,-3867.5002L14098.2062,-3867.5061L14098.2062,-3867.5061L14098.2062,-3867.5062L14098.2062,-3867.5062L14098.2062,-3867.5062L14098.2062,-3867.5062L14098.2087,-3867.5302L14098.211,-3867.5666L14098.212,-3867.6002L14098.2126,-3867.6882L14098.2123,-3867.6991L14098.2123,-3867.6992L14098.2123,-3867.6993L14098.2123,-3867.6993L14098.2123,-3867.6994L14098.2123,-3867.6994L14098.2123,-3867.6994L14098.2123,-3867.6994L14098.2123,-3867.6995L14098.2123,-3867.6995L14098.2123,-3867.6996L14098.2123,-3867.6997L14098.2123,-3867.6997L14098.2123,-3867.7001L14098.2123,-3867.7001L14098.2123,-3867.7001L14098.2123,-3867.7002L14098.2123,-3867.7002L14098.2123,-3867.7002L14098.2123,-3867.7003L14098.2122,-3867.7003L14098.2122,-3867.7003L14098.2122,-3867.7003L14098.2122,-3867.7003L14098.2122,-3867.7004L14098.212,-3867.7122L14098.2118,-3867.7182L14098.2115,-3867.7313L14098.2113,-3867.733L14098.211,-3867.7368"/>
<path content="1,岩手県交通（株）,一関・仙台線,0.5,0.5,0.5," xlink:title="1" d="M14098.211,-3867.7368L14098.2113,-3867.733L14098.2115,-3867.7313L14098.2118,-3867.7182L14098.212,-3867.7122L14098.2122,-3867.7004L14098.2122,-3867.7003L14098.2122,-3867.7003L14098.2122,-3867.7003L14098.2122,-3867.7003L14098.2123,-3867.7003L14098.2123,-3867.7002L14098.2123,-3867.7002L14098.2123,-3867.7002L14098.2123,-3867.7001L14098.2123,-3867.7001L14098.2123,-3867.7001L14098.2123,-3867.6997L14098.2123,-3867.6997L14098.2123,-3867.6996L14098.2123,-3867.6995L14098.2123,-3867.6995L14098.2123,-3867.6994L14098.2123,-3867.6994L14098.2123,-3867.6994L14098.2123,-3867.6994L14098.2123,-3867.6993L14098.2123,-3867.6993L14098.2123,-3867.6992L14098.2123,-3867.6991L14098.2126,-3867.6882L14098.2124,-3867.6627L14098.2124,-3867.6551L14098.2123,-3867.6486L14098.2121,-3867.6004L14098.2116,-3867.5867L14098.2116,-3867.5846L14098.2115,-3867.5844L14098.2115,-3867.5842L14098.2113,-3867.5789L14098.211,-3867.5667L14098.211,-3867.5667L14098.211,-3867.5667L14098.211,-3867.5666L14098.2087,-3867.5302L14098.2062,-3867.5062L14098.2062,-3867.5062L14098.2062,-3867.5062L14098.2062,-3867.5062L14098.2062,-3867.5061L14098.2062,-3867.5061L14098.2056,-3867.5002"/>
<path content="1,岩手県交通（株）,大船渡・仙台線,2.0,2.0,2.0," xlink:title="1" d="M14098.211,-3867.7368L14098.2113,-3867.733L14098.2115,-3867.7313L14098.2118,-3867.7182L14098.212,-3867.7122L14098.2122,-3867.7004L14098.2122,-3867.7003L14098.2122,-3867.7003L14098.2122,-3867.7003L14098.2122,-3867.7003L14098.2123,-3867.7003L14098.2123,-3867.7002L14098.2123,-3867.7002L14098.2123,-3867.7002L14098.2123,-3867.7001L14098.2123,-3867.7001L14098.2123,-3867.7001L14098.2123,-3867.6997L14098.2123,-3867.6997L14098.2123,-3867.6996L14098.2123,-3867.6995L14098.2123,-3867.6995L14098.2123,-3867.6994L14098.2123,-3867.6994L14098.2123,-3867.6994L14098.2123,-3867.6994L14098.2123,-3867.6993L14098.2123,-3867.6993L14098.2123,-3867.6992L14098.2123,-3867.6991L14098.2126,-3867.6882L14098.2124,-3867.6627L14098.2124,-3867.6551L14098.2123,-3867.6486L14098.2121,-3867.6004L14098.2116,-3867.5867L14098.2116,-3867.5846L14098.2115,-3867.5844L14098.2115,-3867.5842L14098.2113,-3867.5789L14098.211,-3867.5667L14098.211,-3867.5667L14098.211,-3867.5667L14098.211,-3867.5666L14098.2087,-3867.5302L14098.2062,-3867.5062L14098.2062,-3867.5062L14098.2062,-3867.5062L14098.2062,-3867.5062L14098.2062,-3867.5061L14098.2062,-3867.5061L14098.2056,-3867.5002"/>
<path content="1,岩手県交通（株）,平泉中尊寺号,0.5,0.5,0.5," xlink:title="1" d="M14098.2056,-3867.5002L14098.2062,-3867.5061L14098.2062,-3867.5061L14098.2062,-3867.5062L14098.2062,-3867.5062L14098.2062,-3867.5062L14098.2062,-3867.5062L14098.2087,-3867.5302L14098.211,-3867.5666L14098.211,-3867.5667L14098.211,-3867.5667L14098.211,-3867.5667L14098.2113,-3867.5789L14098.2115,-3867.5842L14098.2115,-3867.5844L14098.2116,-3867.5846L14098.2116,-3867.5867L14098.2121,-3867.6004L14098.2123,-3867.6486L14098.2124,-3867.6551L14098.2124,-3867.6627L14098.2126,-3867.6882L14098.2123,-3867.6991L14098.2123,-3867.6992L14098.2123,-3867.6993L14098.2123,-3867.6993L14098.2123,-3867.6994L14098.2123,-3867.6994L14098.2123,-3867.6994L14098.2123,-3867.6994L14098.2123,-3867.6995L14098.2123,-3867.6995L14098.2123,-3867.6996L14098.2123,-3867.6997L14098.2123,-3867.6997L14098.2123,-3867.7001L14098.2123,-3867.7001L14098.2123,-3867.7001L14098.2123,-3867.7002L14098.2123,-3867.7002L14098.2123,-3867.7002L14098.2123,-3867.7003L14098.2122,-3867.7003L14098.2122,-3867.7003L14098.2122,-3867.7003L14098.2122,-3867.7003L14098.2122,-3867.7004L14098.212,-3867.7122L14098.2118,-3867.7182L14098.2115,-3867.7313L14098.2113,-3867.733L14098.211,-3867.7368"/>
<path content="1,岩手県交通（株）,江刺・仙台線,2.0,2.0,2.0," xlink:title="1" d="M14098.2056,-3867.5002L14098.2062,-3867.5061L14098.2062,-3867.5061L14098.2062,-3867.5062L14098.2062,-3867.5062L14098.2062,-3867.5062L14098.2062,-3867.5062L14098.2087,-3867.5302L14098.211,-3867.5666L14098.211,-3867.5667L14098.211,-3867.5667L14098.211,-3867.5667L14098.2113,-3867.5789L14098.2115,-3867.5842L14098.2115,-3867.5844L14098.2116,-3867.5846L14098.2116,-3867.5867L14098.2121,-3867.6004L14098.2123,-3867.6486L14098.2124,-3867.6551L14098.2124,-3867.6627L14098.2126,-3867.6882L14098.2123,-3867.6991L14098.2123,-3867.6992L14098.2123,-3867.6993L14098.2123,-3867.6993L14098.2123,-3867.6994L14098.2123,-3867.6994L14098.2123,-3867.6994L14098.2123,-3867.6994L14098.2123,-3867.6995L14098.2123,-3867.6995L14098.2123,-3867.6996L14098.2123,-3867.6997L14098.2123,-3867.6997L14098.2123,-3867.7001L14098.2123,-3867.7001L14098.2123,-3867.7001L14098.2123,-3867.7002L14098.2123,-3867.7002L14098.2123,-3867.7002L14098.2123,-3867.7003L14098.2122,-3867.7003L14098.2122,-3867.7003L14098.2122,-3867.7003L14098.2122,-3867.7003L14098.2122,-3867.7004L14098.212,-3867.7122L14098.2118,-3867.7182L14098.2115,-3867.7313L14098.2113,-3867.733L14098.211,-3867.7368"/>
<path content="1,岩手県交通（株）,盛岡・横浜線,1.0,1.0,1.0," xlink:title="1" d="M14098.2056,-3867.5002L14098.2062,-3867.5061L14098.2062,-3867.5061L14098.2062,-3867.5062L14098.2062,-3867.5062L14098.2062,-3867.5062L14098.2062,-3867.5062L14098.2087,-3867.5302L14098.211,-3867.5666L14098.212,-3867.6002L14098.2126,-3867.6882L14098.2123,-3867.6991L14098.2123,-3867.6992L14098.2123,-3867.6993L14098.2123,-3867.6993L14098.2123,-3867.6994L14098.2123,-3867.6994L14098.2123,-3867.6994L14098.2123,-3867.6994L14098.2123,-3867.6995L14098.2123,-3867.6995L14098.2123,-3867.6996L14098.2123,-3867.6997L14098.2123,-3867.6997L14098.2123,-3867.7001L14098.2123,-3867.7001L14098.2123,-3867.7001L14098.2123,-3867.7002L14098.2123,-3867.7002L14098.2123,-3867.7002L14098.2123,-3867.7003L14098.2122,-3867.7003L14098.2122,-3867.7003L14098.2122,-3867.7003L14098.2122,-3867.7003L14098.2122,-3867.7004L14098.212,-3867.7122L14098.2118,-3867.7182L14098.2115,-3867.7313L14098.2113,-3867.733L14098.211,-3867.7368"/>
<path content="1,岩手県交通（株）,遠野・釜石号,1.0,1.0,1.0," xlink:title="1" d="M14098.2056,-3867.5002L14098.2062,-3867.5061L14098.2062,-3867.5061L14098.2062,-3867.5062L14098.2062,-3867.5062L14098.2062,-3867.5062L14098.2062,-3867.5062L14098.2087,-3867.5302L14098.211,-3867.5666L14098.212,-3867.6002L14098.2126,-3867.6882L14098.2123,-3867.6991L14098.2123,-3867.6992L14098.2123,-3867.6993L14098.2123,-3867.6993L14098.2123,-3867.6994L14098.2123,-3867.6994L14098.2123,-3867.6994L14098.2123,-3867.6994L14098.2123,-3867.6995L14098.2123,-3867.6995L14098.2123,-3867.6996L14098.2123,-3867.6997L14098.2123,-3867.6997L14098.2123,-3867.7001L14098.2123,-3867.7001L14098.2123,-3867.7001L14098.2123,-3867.7002L14098.2123,-3867.7002L14098.2123,-3867.7002L14098.2123,-3867.7003L14098.2122,-3867.7003L14098.2122,-3867.7003L14098.2122,-3867.7003L14098.2122,-3867.7003L14098.2122,-3867.7004L14098.212,-3867.7122L14098.2118,-3867.7182L14098.2115,-3867.7313L14098.2113,-3867.733L14098.211,-3867.7368"/>
<path content="1,岩手県交通（株）,釜石・仙台線,1.0,1.0,1.0," xlink:title="1" d="M14098.211,-3867.7368L14098.2113,-3867.733L14098.2115,-3867.7313L14098.2118,-3867.7182L14098.212,-3867.7122L14098.2122,-3867.7004L14098.2122,-3867.7003L14098.2122,-3867.7003L14098.2122,-3867.7003L14098.2122,-3867.7003L14098.2123,-3867.7003L14098.2123,-3867.7002L14098.2123,-3867.7002L14098.2123,-3867.7002L14098.2123,-3867.7001L14098.2123,-3867.7001L14098.2123,-3867.7001L14098.2123,-3867.6997L14098.2123,-3867.6997L14098.2123,-3867.6996L14098.2123,-3867.6995L14098.2123,-3867.6995L14098.2123,-3867.6994L14098.2123,-3867.6994L14098.2123,-3867.6994L14098.2123,-3867.6994L14098.2123,-3867.6993L14098.2123,-3867.6993L14098.2123,-3867.6992L14098.2123,-3867.6991L14098.2126,-3867.6882L14098.2124,-3867.6627L14098.2124,-3867.6551L14098.2123,-3867.6486L14098.2121,-3867.6004L14098.2116,-3867.5867L14098.2116,-3867.5846L14098.2115,-3867.5844L14098.2115,-3867.5842L14098.2113,-3867.5789L14098.211,-3867.5667L14098.211,-3867.5667L14098.211,-3867.5667L14098.211,-3867.5666L14098.2087,-3867.5302L14098.2062,-3867.5062L14098.2062,-3867.5062L14098.2062,-3867.5062L14098.2062,-3867.5062L14098.2062,-3867.5061L14098.2062,-3867.5061L14098.2056,-3867.5002"/>
<path content="1,岩手県北自動車（株）,BEAM-1　宮古・盛岡南⇔浜松町・品川,1.0,1.0,1.0," xlink:title="1" d="M14098.2056,-3867.5002L14098.2062,-3867.5061L14098.2062,-3867.5061L14098.2062,-3867.5062L14098.2062,-3867.5062L14098.2062,-3867.5062L14098.2062,-3867.5062L14098.2087,-3867.5302L14098.211,-3867.5666L14098.212,-3867.6002L14098.2126,-3867.6882L14098.2123,-3867.6991L14098.2123,-3867.6992L14098.2123,-3867.6993L14098.2123,-3867.6993L14098.2123,-3867.6994L14098.2123,-3867.6994L14098.2123,-3867.6994L14098.2123,-3867.6994L14098.2123,-3867.6995L14098.2123,-3867.6995L14098.2123,-3867.6996L14098.2123,-3867.6997L14098.2123,-3867.6997L14098.2123,-3867.7001L14098.2123,-3867.7001L14098.2123,-3867.7001L14098.2123,-3867.7002L14098.2123,-3867.7002L14098.2123,-3867.7002L14098.2123,-3867.7003L14098.2122,-3867.7003L14098.2122,-3867.7003L14098.2122,-3867.7003L14098.2122,-3867.7003L14098.2122,-3867.7004L14098.212,-3867.7122L14098.2118,-3867.7182L14098.2115,-3867.7313L14098.2113,-3867.733L14098.211,-3867.7368"/>
<path content="1,岩手県北自動車（株）,アーバン号　盛岡⇔仙台,3.2,4.0,4.0," xlink:title="1" d="M14098.2056,-3867.5002L14098.2062,-3867.5061L14098.2062,-3867.5061L14098.2062,-3867.5062L14098.2062,-3867.5062L14098.2062,-3867.5062L14098.2062,-3867.5062L14098.2087,-3867.5302L14098.211,-3867.5666L14098.211,-3867.5667L14098.211,-3867.5667L14098.211,-3867.5667L14098.2113,-3867.5789L14098.2115,-3867.5842L14098.2115,-3867.5844L14098.2116,-3867.5846L14098.2116,-3867.5867L14098.2121,-3867.6004L14098.2123,-3867.6486L14098.2124,-3867.6551L14098.2124,-3867.6627L14098.2126,-3867.6882L14098.2123,-3867.6991L14098.2123,-3867.6992L14098.2123,-3867.6993L14098.2123,-3867.6993L14098.2123,-3867.6994L14098.2123,-3867.6994L14098.2123,-3867.6994L14098.2123,-3867.6994L14098.2123,-3867.6995L14098.2123,-3867.6995L14098.2123,-3867.6996L14098.2123,-3867.6997L14098.2123,-3867.6997L14098.2123,-3867.7001L14098.2123,-3867.7001L14098.2123,-3867.7001L14098.2123,-3867.7002L14098.2123,-3867.7002L14098.2123,-3867.7002L14098.2123,-3867.7003L14098.2122,-3867.7003L14098.2122,-3867.7003L14098.2122,-3867.7003L14098.2122,-3867.7003L14098.2122,-3867.7004L14098.212,-3867.7122L14098.2118,-3867.7182L14098.2115,-3867.7313L14098.2113,-3867.733L14098.211,-3867.7368"/>
<path content="1,弘南バス（株）,アップル号,1.0,1.0,1.0," xlink:title="1" d="M14098.211,-3867.7368L14098.2113,-3867.733L14098.2115,-3867.7313L14098.2118,-3867.7182L14098.212,-3867.7122L14098.2122,-3867.7004L14098.2122,-3867.7003L14098.2122,-3867.7003L14098.2122,-3867.7003L14098.2122,-3867.7003L14098.2123,-3867.7003L14098.2123,-3867.7002L14098.2123,-3867.7002L14098.2123,-3867.7002L14098.2123,-3867.7001L14098.2123,-3867.7001L14098.2123,-3867.7001L14098.2123,-3867.6997L14098.2123,-3867.6997L14098.2123,-3867.6996L14098.2123,-3867.6995L14098.2123,-3867.6995L14098.2123,-3867.6994L14098.2123,-3867.6994L14098.2123,-3867.6994L14098.2123,-3867.6994L14098.2123,-3867.6993L14098.2123,-3867.6993L14098.2123,-3867.6992L14098.2123,-3867.6991L14098.2126,-3867.6882L14098.212,-3867.6002L14098.211,-3867.5666L14098.2087,-3867.5302L14098.2062,-3867.5062L14098.2062,-3867.5062L14098.2062,-3867.5062L14098.2062,-3867.5062L14098.2062,-3867.5061L14098.2062,-3867.5061L14098.2056,-3867.5002"/>
<path content="1,弘南バス（株）,キャッスル号,6.0,6.0,6.0," xlink:title="1" d="M14098.211,-3867.7368L14098.2113,-3867.733L14098.2115,-3867.7313L14098.2118,-3867.7182L14098.212,-3867.7122L14098.2122,-3867.7004L14098.2122,-3867.7003L14098.2122,-3867.7003L14098.2122,-3867.7003L14098.2122,-3867.7003L14098.2123,-3867.7003L14098.2123,-3867.7002L14098.2123,-3867.7002L14098.2123,-3867.7002L14098.2123,-3867.7001L14098.2123,-3867.7001L14098.2123,-3867.7001L14098.2123,-3867.6997L14098.2123,-3867.6997L14098.2123,-3867.6996L14098.2123,-3867.6995L14098.2123,-3867.6995L14098.2123,-3867.6994L14098.2123,-3867.6994L14098.2123,-3867.6994L14098.2123,-3867.6994L14098.2123,-3867.6993L14098.2123,-3867.6993L14098.2123,-3867.6992L14098.2123,-3867.6991L14098.2126,-3867.6882L14098.212,-3867.6002L14098.2113,-3867.5789L14098.211,-3867.5667L14098.211,-3867.5667L14098.211,-3867.5667L14098.211,-3867.5666L14098.2087,-3867.5302L14098.2062,-3867.5062L14098.2062,-3867.5062L14098.2062,-3867.5062L14098.2062,-3867.5062L14098.2062,-3867.5061L14098.2062,-3867.5061L14098.2056,-3867.5002"/>
<path content="1,弘南バス（株）,スカイ号,1.0,1.0,1.0," xlink:title="1" d="M14098.211,-3867.7368L14098.2113,-3867.733L14098.2115,-3867.7313L14098.2118,-3867.7182L14098.212,-3867.7122L14098.2122,-3867.7004L14098.2122,-3867.7003L14098.2122,-3867.7003L14098.2122,-3867.7003L14098.2122,-3867.7003L14098.2123,-3867.7003L14098.2123,-3867.7002L14098.2123,-3867.7002L14098.2123,-3867.7002L14098.2123,-3867.7001L14098.2123,-3867.7001L14098.2123,-3867.7001L14098.2123,-3867.6997L14098.2123,-3867.6997L14098.2123,-3867.6996L14098.2123,-3867.6995L14098.2123,-3867.6995L14098.2123,-3867.6994L14098.2123,-3867.6994L14098.2123,-3867.6994L14098.2123,-3867.6994L14098.2123,-3867.6993L14098.2123,-3867.6993L14098.2123,-3867.6992L14098.2123,-3867.6991L14098.2126,-3867.6882L14098.212,-3867.6002L14098.211,-3867.5666L14098.2087,-3867.5302L14098.2062,-3867.5062L14098.2062,-3867.5062L14098.2062,-3867.5062L14098.2062,-3867.5062L14098.2062,-3867.5061L14098.2062,-3867.5061L14098.2056,-3867.5002"/>
<path content="1,弘南バス（株）,ノクターン号,1.0,1.0,1.0," xlink:title="1" d="M14098.211,-3867.7368L14098.2113,-3867.733L14098.2115,-3867.7313L14098.2118,-3867.7182L14098.212,-3867.7122L14098.2122,-3867.7004L14098.2122,-3867.7003L14098.2122,-3867.7003L14098.2122,-3867.7003L14098.2122,-3867.7003L14098.2123,-3867.7003L14098.2123,-3867.7002L14098.2123,-3867.7002L14098.2123,-3867.7002L14098.2123,-3867.7001L14098.2123,-3867.7001L14098.2123,-3867.7001L14098.2123,-3867.6997L14098.2123,-3867.6997L14098.2123,-3867.6996L14098.2123,-3867.6995L14098.2123,-3867.6995L14098.2123,-3867.6994L14098.2123,-3867.6994L14098.2123,-3867.6994L14098.2123,-3867.6994L14098.2123,-3867.6993L14098.2123,-3867.6993L14098.2123,-3867.6992L14098.2123,-3867.6991L14098.2126,-3867.6882L14098.212,-3867.6002L14098.211,-3867.5666L14098.2087,-3867.5302L14098.2062,-3867.5062L14098.2062,-3867.5062L14098.2062,-3867.5062L14098.2062,-3867.5062L14098.2062,-3867.5061L14098.2062,-3867.5061L14098.2056,-3867.5002"/>
<path content="1,弘南バス（株）,パンダ号,3.0,3.0,3.0," xlink:title="1" d="M14098.211,-3867.7368L14098.2113,-3867.733L14098.2115,-3867.7313L14098.2118,-3867.7182L14098.212,-3867.7122L14098.2122,-3867.7004L14098.2122,-3867.7003L14098.2122,-3867.7003L14098.2122,-3867.7003L14098.2122,-3867.7003L14098.2123,-3867.7003L14098.2123,-3867.7002L14098.2123,-3867.7002L14098.2123,-3867.7002L14098.2123,-3867.7001L14098.2123,-3867.7001L14098.2123,-3867.7001L14098.2123,-3867.6997L14098.2123,-3867.6997L14098.2123,-3867.6996L14098.2123,-3867.6995L14098.2123,-3867.6995L14098.2123,-3867.6994L14098.2123,-3867.6994L14098.2123,-3867.6994L14098.2123,-3867.6994L14098.2123,-3867.6993L14098.2123,-3867.6993L14098.2123,-3867.6992L14098.2123,-3867.6991L14098.2126,-3867.6882L14098.212,-3867.6002L14098.211,-3867.5666L14098.2087,-3867.5302L14098.2062,-3867.5062L14098.2062,-3867.5062L14098.2062,-3867.5062L14098.2062,-3867.5062L14098.2062,-3867.5061L14098.2062,-3867.5061L14098.2056,-3867.5002"/>
<path content="1,弘南バス（株）,ブルーシティー号,4.0,4.0,4.0," xlink:title="1" d="M14098.211,-3867.7368L14098.2113,-3867.733L14098.2115,-3867.7313L14098.2118,-3867.7182L14098.212,-3867.7122L14098.2122,-3867.7004L14098.2122,-3867.7003L14098.2122,-3867.7003L14098.2122,-3867.7003L14098.2122,-3867.7003L14098.2123,-3867.7003L14098.2123,-3867.7002L14098.2123,-3867.7002L14098.2123,-3867.7002L14098.2123,-3867.7001L14098.2123,-3867.7001L14098.2123,-3867.7001L14098.2123,-3867.6997L14098.2123,-3867.6997L14098.2123,-3867.6996L14098.2123,-3867.6995L14098.2123,-3867.6995L14098.2123,-3867.6994L14098.2123,-3867.6994L14098.2123,-3867.6994L14098.2123,-3867.6994L14098.2123,-3867.6993L14098.2123,-3867.6993L14098.2123,-3867.6992L14098.2123,-3867.6991L14098.2126,-3867.6882L14098.212,-3867.6002L14098.2113,-3867.5789L14098.211,-3867.5667L14098.211,-3867.5667L14098.211,-3867.5667L14098.211,-3867.5666L14098.2087,-3867.5302L14098.2062,-3867.5062L14098.2062,-3867.5062L14098.2062,-3867.5062L14098.2062,-3867.5062L14098.2062,-3867.5061L14098.2062,-3867.5061L14098.2056,-3867.5002"/>
<path content="1,弘南バス（株）,津軽号,1.0,1.0,1.0," xlink:title="1" d="M14098.2056,-3867.5002L14098.2062,-3867.5061L14098.2062,-3867.5061L14098.2062,-3867.5062L14098.2062,-3867.5062L14098.2062,-3867.5062L14098.2062,-3867.5062L14098.2087,-3867.5302L14098.211,-3867.5666L14098.212,-3867.6002L14098.2126,-3867.6882L14098.2123,-3867.6991L14098.2123,-3867.6992L14098.2123,-3867.6993L14098.2123,-3867.6993L14098.2123,-3867.6994L14098.2123,-3867.6994L14098.2123,-3867.6994L14098.2123,-3867.6994L14098.2123,-3867.6995L14098.2123,-3867.6995L14098.2123,-3867.6996L14098.2123,-3867.6997L14098.2123,-3867.6997L14098.2123,-3867.7001L14098.2123,-3867.7001L14098.2123,-3867.7001L14098.2123,-3867.7002L14098.2123,-3867.7002L14098.2123,-3867.7002L14098.2123,-3867.7003L14098.2122,-3867.7003L14098.2122,-3867.7003L14098.2122,-3867.7003L14098.2122,-3867.7003L14098.2122,-3867.7004L14098.212,-3867.7122L14098.2118,-3867.7182L14098.2115,-3867.7313L14098.2113,-3867.733L14098.211,-3867.7368"/>
<path content="1,東日本急行（株）,一ノ関～仙台線,19.0,19.0,19.0," xlink:title="1" d="M14098.2056,-3867.5002L14098.2062,-3867.5061L14098.2062,-3867.5061L14098.2062,-3867.5062L14098.2062,-3867.5062L14098.2062,-3867.5062L14098.2062,-3867.5062L14098.2087,-3867.5302L14098.211,-3867.5666L14098.212,-3867.6002L14098.2126,-3867.6882L14098.2123,-3867.6991L14098.2123,-3867.6992L14098.2123,-3867.6993L14098.2123,-3867.6993L14098.2123,-3867.6994L14098.2123,-3867.6994L14098.2123,-3867.6994L14098.2123,-3867.6994L14098.2123,-3867.6995L14098.2123,-3867.6995L14098.2123,-3867.6996L14098.2123,-3867.6997L14098.2123,-3867.6997L14098.2123,-3867.7001L14098.2123,-3867.7001L14098.2123,-3867.7001L14098.2123,-3867.7002L14098.2123,-3867.7002L14098.2123,-3867.7002L14098.2123,-3867.7003L14098.2122,-3867.7003L14098.2122,-3867.7003L14098.2122,-3867.7003L14098.2122,-3867.7003L14098.2122,-3867.7004L14098.212,-3867.7122L14098.2118,-3867.7182L14098.2115,-3867.7313L14098.2113,-3867.733L14098.211,-3867.7368"/>
<path content="1,東日本急行（株）,仙台～盛岡線,16.0,20.0,20.0," xlink:title="1" d="M14098.211,-3867.7368L14098.2113,-3867.733L14098.2115,-3867.7313L14098.2118,-3867.7182L14098.212,-3867.7122L14098.2122,-3867.7004L14098.2122,-3867.7003L14098.2122,-3867.7003L14098.2122,-3867.7003L14098.2122,-3867.7003L14098.2123,-3867.7003L14098.2123,-3867.7002L14098.2123,-3867.7002L14098.2123,-3867.7002L14098.2123,-3867.7001L14098.2123,-3867.7001L14098.2123,-3867.7001L14098.2123,-3867.6997L14098.2123,-3867.6997L14098.2123,-3867.6996L14098.2123,-3867.6995L14098.2123,-3867.6995L14098.2123,-3867.6994L14098.2123,-3867.6994L14098.2123,-3867.6994L14098.2123,-3867.6994L14098.2123,-3867.6993L14098.2123,-3867.6993L14098.2123,-3867.6992L14098.2123,-3867.6991L14098.2126,-3867.6882L14098.212,-3867.6002L14098.211,-3867.5666L14098.2087,-3867.5302L14098.2062,-3867.5062L14098.2062,-3867.5062L14098.2062,-3867.5062L14098.2062,-3867.5062L14098.2062,-3867.5061L14098.2062,-3867.5061L14098.2056,-3867.5002"/>
<path content="1,東日本急行（株）,佐野・平泉駅前・中尊寺～仙台線,1.1,1.1,1.1," xlink:title="1" d="M14098.2056,-3867.5002L14098.2062,-3867.5061L14098.2062,-3867.5061L14098.2062,-3867.5062L14098.2062,-3867.5062L14098.2062,-3867.5062L14098.2062,-3867.5062L14098.2087,-3867.5302L14098.211,-3867.5666L14098.212,-3867.6002L14098.2126,-3867.6882L14098.2123,-3867.6991L14098.2123,-3867.6992L14098.2123,-3867.6993L14098.2123,-3867.6993L14098.2123,-3867.6994L14098.2123,-3867.6994L14098.2123,-3867.6994L14098.2123,-3867.6994L14098.2123,-3867.6995L14098.2123,-3867.6995L14098.2123,-3867.6996L14098.2123,-3867.6997L14098.2123,-3867.6997L14098.2123,-3867.7001L14098.2123,-3867.7001L14098.2123,-3867.7001L14098.2123,-3867.7002L14098.2123,-3867.7002L14098.2123,-3867.7002L14098.2123,-3867.7003L14098.2122,-3867.7003L14098.2122,-3867.7003L14098.2122,-3867.7003L14098.2122,-3867.7003L14098.2122,-3867.7004L14098.212,-3867.7122L14098.2118,-3867.7182L14098.2115,-3867.7313L14098.2113,-3867.733L14098.211,-3867.7368"/>
<path content="1,東日本急行（株）,登米（迫）～若柳～仙台線,8.0,8.0,8.0," xlink:title="1" d="M14098.2056,-3867.5002L14098.2062,-3867.5061L14098.2062,-3867.5061L14098.2062,-3867.5062L14098.2062,-3867.5062L14098.2062,-3867.5062L14098.2062,-3867.5062L14098.2087,-3867.5302L14098.211,-3867.5666L14098.211,-3867.5667L14098.211,-3867.5667L14098.211,-3867.5667L14098.2113,-3867.5789L14098.2115,-3867.5842L14098.2115,-3867.5844L14098.2116,-3867.5846L14098.2116,-3867.5867L14098.2121,-3867.6004L14098.2123,-3867.6486L14098.2124,-3867.6551L14098.2124,-3867.6627L14098.2126,-3867.6882L14098.2123,-3867.6991L14098.2123,-3867.6992L14098.2123,-3867.6993L14098.2123,-3867.6993L14098.2123,-3867.6994L14098.2123,-3867.6994L14098.2123,-3867.6994L14098.2123,-3867.6994L14098.2123,-3867.6995L14098.2123,-3867.6995L14098.2123,-3867.6996L14098.2123,-3867.6997L14098.2123,-3867.6997L14098.2123,-3867.7001L14098.2123,-3867.7001L14098.2123,-3867.7001L14098.2123,-3867.7002L14098.2123,-3867.7002L14098.2123,-3867.7002L14098.2123,-3867.7003L14098.2122,-3867.7003L14098.2122,-3867.7003L14098.2122,-3867.7003L14098.2122,-3867.7003L14098.2122,-3867.7004L14098.212,-3867.7122L14098.2118,-3867.7182L14098.2115,-3867.7313L14098.2113,-3867.733L14098.211,-3867.7368"/>
<path content="1,東日本急行（株）,金成庁舎前・くりこま高原駅前・一迫総合支所前～築館～仙台線,15.0,15.0,15.0," xlink:title="1" d="M14098.211,-3867.7368L14098.2113,-3867.733L14098.2115,-3867.7313L14098.2118,-3867.7182L14098.212,-3867.7122L14098.2122,-3867.7004L14098.2122,-3867.7003L14098.2122,-3867.7003L14098.2122,-3867.7003L14098.2122,-3867.7003L14098.2123,-3867.7003L14098.2123,-3867.7002L14098.2123,-3867.7002L14098.2123,-3867.7002L14098.2123,-3867.7001L14098.2123,-3867.7001L14098.2123,-3867.7001L14098.2123,-3867.6997L14098.2123,-3867.6997L14098.2123,-3867.6996L14098.2123,-3867.6995L14098.2123,-3867.6995L14098.2123,-3867.6994L14098.2123,-3867.6994L14098.2123,-3867.6994L14098.2123,-3867.6994L14098.2123,-3867.6993L14098.2123,-3867.6993L14098.2123,-3867.6992L14098.2123,-3867.6991L14098.2126,-3867.6882L14098.2124,-3867.6627L14098.2124,-3867.6551L14098.2123,-3867.6486L14098.2121,-3867.6004L14098.2116,-3867.5867L14098.2116,-3867.5846L14098.2115,-3867.5844L14098.2115,-3867.5842L14098.2113,-3867.5789L14098.211,-3867.5667L14098.211,-3867.5667L14098.211,-3867.5667L14098.211,-3867.5666L14098.2087,-3867.5302L14098.2062,-3867.5062L14098.2062,-3867.5062L14098.2062,-3867.5062L14098.2062,-3867.5062L14098.2062,-3867.5061L14098.2062,-3867.5061L14098.2056,-3867.5002"/>
<path content="1,江ノ電バス藤沢,レイク＆ポート号,1.0,1.0,1.0," xlink:title="1" d="M14098.2056,-3867.5002L14098.2062,-3867.5061L14098.2062,-3867.5061L14098.2062,-3867.5062L14098.2062,-3867.5062L14098.2062,-3867.5062L14098.2062,-3867.5062L14098.2087,-3867.5302L14098.211,-3867.5666L14098.212,-3867.6002L14098.2126,-3867.6882L14098.2123,-3867.6991L14098.2123,-3867.6992L14098.2123,-3867.6993L14098.2123,-3867.6993L14098.2123,-3867.6994L14098.2123,-3867.6994L14098.2123,-3867.6994L14098.2123,-3867.6994L14098.2123,-3867.6995L14098.2123,-3867.6995L14098.2123,-3867.6996L14098.2123,-3867.6997L14098.2123,-3867.6997L14098.2123,-3867.7001L14098.2123,-3867.7001L14098.2123,-3867.7001L14098.2123,-3867.7002L14098.2123,-3867.7002L14098.2123,-3867.7002L14098.2123,-3867.7003L14098.2122,-3867.7003L14098.2122,-3867.7003L14098.2122,-3867.7003L14098.2122,-3867.7003L14098.2122,-3867.7004L14098.212,-3867.7122L14098.2118,-3867.7182L14098.2115,-3867.7313L14098.2113,-3867.733L14098.211,-3867.7368"/>
<path content="1,秋北バス（株）,ジュピター号,1.0,1.0,1.0," xlink:title="1" d="M14098.2056,-3867.5002L14098.2062,-3867.5061L14098.2062,-3867.5061L14098.2062,-3867.5062L14098.2062,-3867.5062L14098.2062,-3867.5062L14098.2062,-3867.5062L14098.2087,-3867.5302L14098.211,-3867.5666L14098.212,-3867.6002L14098.2126,-3867.6882L14098.2123,-3867.6991L14098.2123,-3867.6992L14098.2123,-3867.6993L14098.2123,-3867.6993L14098.2123,-3867.6994L14098.2123,-3867.6994L14098.2123,-3867.6994L14098.2123,-3867.6994L14098.2123,-3867.6995L14098.2123,-3867.6995L14098.2123,-3867.6996L14098.2123,-3867.6997L14098.2123,-3867.6997L14098.2123,-3867.7001L14098.2123,-3867.7001L14098.2123,-3867.7001L14098.2123,-3867.7002L14098.2123,-3867.7002L14098.2123,-3867.7002L14098.2123,-3867.7003L14098.2122,-3867.7003L14098.2122,-3867.7003L14098.2122,-3867.7003L14098.2122,-3867.7003L14098.2122,-3867.7004L14098.212,-3867.7122L14098.2118,-3867.7182L14098.2115,-3867.7313L14098.2113,-3867.733L14098.211,-3867.7368"/>
<path content="1,秋北バス（株）,二ツ井・能代～仙台線,1.0,1.0,1.0," xlink:title="1" d="M14098.2056,-3867.5002L14098.2062,-3867.5061L14098.2062,-3867.5061L14098.2062,-3867.5062L14098.2062,-3867.5062L14098.2062,-3867.5062L14098.2062,-3867.5062L14098.2087,-3867.5302L14098.211,-3867.5666L14098.212,-3867.6002L14098.2126,-3867.6882L14098.2123,-3867.6991L14098.2123,-3867.6992L14098.2123,-3867.6993L14098.2123,-3867.6993L14098.2123,-3867.6994L14098.2123,-3867.6994L14098.2123,-3867.6994L14098.2123,-3867.6994L14098.2123,-3867.6995L14098.2123,-3867.6995L14098.2123,-3867.6996L14098.2123,-3867.6997L14098.2123,-3867.6997L14098.2123,-3867.7001L14098.2123,-3867.7001L14098.2123,-3867.7001L14098.2123,-3867.7002L14098.2123,-3867.7002L14098.2123,-3867.7002L14098.2123,-3867.7003L14098.2122,-3867.7003L14098.2122,-3867.7003L14098.2122,-3867.7003L14098.2122,-3867.7003L14098.2122,-3867.7004L14098.212,-3867.7122L14098.2118,-3867.7182L14098.2115,-3867.7313L14098.2113,-3867.733L14098.211,-3867.7368"/>
<path content="1,秋北バス（株）,大館・鹿角～仙台線,3.0,3.0,3.0," xlink:title="1" d="M14098.2056,-3867.5002L14098.2062,-3867.5061L14098.2062,-3867.5061L14098.2062,-3867.5062L14098.2062,-3867.5062L14098.2062,-3867.5062L14098.2062,-3867.5062L14098.2087,-3867.5302L14098.211,-3867.5666L14098.212,-3867.6002L14098.2126,-3867.6882L14098.2123,-3867.6991L14098.2123,-3867.6992L14098.2123,-3867.6993L14098.2123,-3867.6993L14098.2123,-3867.6994L14098.2123,-3867.6994L14098.2123,-3867.6994L14098.2123,-3867.6994L14098.2123,-3867.6995L14098.2123,-3867.6995L14098.2123,-3867.6996L14098.2123,-3867.6997L14098.2123,-3867.6997L14098.2123,-3867.7001L14098.2123,-3867.7001L14098.2123,-3867.7001L14098.2123,-3867.7002L14098.2123,-3867.7002L14098.2123,-3867.7002L14098.2123,-3867.7003L14098.2122,-3867.7003L14098.2122,-3867.7003L14098.2122,-3867.7003L14098.2122,-3867.7003L14098.2122,-3867.7004L14098.212,-3867.7122L14098.2118,-3867.7182L14098.2115,-3867.7313L14098.2113,-3867.733L14098.211,-3867.7368"/>
<path content="1,秋田中央交通（株）,フローラ号,1.0,1.0,1.0," xlink:title="1" d="M14098.211,-3867.7368L14098.2113,-3867.733L14098.2115,-3867.7313L14098.2118,-3867.7182L14098.212,-3867.7122L14098.2122,-3867.7004L14098.2122,-3867.7003L14098.2122,-3867.7003L14098.2122,-3867.7003L14098.2122,-3867.7003L14098.2123,-3867.7003L14098.2123,-3867.7002L14098.2123,-3867.7002L14098.2123,-3867.7002L14098.2123,-3867.7001L14098.2123,-3867.7001L14098.2123,-3867.7001L14098.2123,-3867.6997L14098.2123,-3867.6997L14098.2123,-3867.6996L14098.2123,-3867.6995L14098.2123,-3867.6995L14098.2123,-3867.6994L14098.2123,-3867.6994L14098.2123,-3867.6994L14098.2123,-3867.6994L14098.2123,-3867.6993L14098.2123,-3867.6993L14098.2123,-3867.6992L14098.2123,-3867.6991L14098.2126,-3867.6882L14098.212,-3867.6002L14098.211,-3867.5666L14098.2087,-3867.5302L14098.2062,-3867.5062L14098.2062,-3867.5062L14098.2062,-3867.5062L14098.2062,-3867.5062L14098.2062,-3867.5061L14098.2062,-3867.5061L14098.2056,-3867.5002"/>
<path content="1,秋田中央交通（株）,仙秋号,4.0,4.0,4.0," xlink:title="1" d="M14098.211,-3867.7368L14098.2113,-3867.733L14098.2115,-3867.7313L14098.2118,-3867.7182L14098.212,-3867.7122L14098.2122,-3867.7004L14098.2122,-3867.7003L14098.2122,-3867.7003L14098.2122,-3867.7003L14098.2122,-3867.7003L14098.2123,-3867.7003L14098.2123,-3867.7002L14098.2123,-3867.7002L14098.2123,-3867.7002L14098.2123,-3867.7001L14098.2123,-3867.7001L14098.2123,-3867.7001L14098.2123,-3867.6997L14098.2123,-3867.6997L14098.2123,-3867.6996L14098.2123,-3867.6995L14098.2123,-3867.6995L14098.2123,-3867.6994L14098.2123,-3867.6994L14098.2123,-3867.6994L14098.2123,-3867.6994L14098.2123,-3867.6993L14098.2123,-3867.6993L14098.2123,-3867.6992L14098.2123,-3867.6991L14098.2126,-3867.6882L14098.212,-3867.6002L14098.211,-3867.5666L14098.2087,-3867.5302L14098.2062,-3867.5062L14098.2062,-3867.5062L14098.2062,-3867.5062L14098.2062,-3867.5062L14098.2062,-3867.5061L14098.2062,-3867.5061L14098.2056,-3867.5002"/>
<path content="1,羽後交通（株）,グリーンライナー号,4.0,4.0,4.0," xlink:title="1" d="M14098.2056,-3867.5002L14098.2062,-3867.5061L14098.2062,-3867.5061L14098.2062,-3867.5062L14098.2062,-3867.5062L14098.2062,-3867.5062L14098.2062,-3867.5062L14098.2087,-3867.5302L14098.211,-3867.5666L14098.212,-3867.6002L14098.2126,-3867.6882L14098.2123,-3867.6991L14098.2123,-3867.6992L14098.2123,-3867.6993L14098.2123,-3867.6993L14098.2123,-3867.6994L14098.2123,-3867.6994L14098.2123,-3867.6994L14098.2123,-3867.6994L14098.2123,-3867.6995L14098.2123,-3867.6995L14098.2123,-3867.6996L14098.2123,-3867.6997L14098.2123,-3867.6997L14098.2123,-3867.7001L14098.2123,-3867.7001L14098.2123,-3867.7001L14098.2123,-3867.7002L14098.2123,-3867.7002L14098.2123,-3867.7002L14098.2123,-3867.7003L14098.2122,-3867.7003L14098.2122,-3867.7003L14098.2122,-3867.7003L14098.2122,-3867.7003L14098.2122,-3867.7004L14098.212,-3867.7122L14098.2118,-3867.7182L14098.2115,-3867.7313L14098.2113,-3867.733L14098.211,-3867.7368"/>
<path content="1,羽後交通（株）,レーク＆ポート号,1.0,1.0,1.0," xlink:title="1" d="M14098.211,-3867.7368L14098.2113,-3867.733L14098.2115,-3867.7313L14098.2118,-3867.7182L14098.212,-3867.7122L14098.2122,-3867.7004L14098.2122,-3867.7003L14098.2122,-3867.7003L14098.2122,-3867.7003L14098.2122,-3867.7003L14098.2123,-3867.7003L14098.2123,-3867.7002L14098.2123,-3867.7002L14098.2123,-3867.7002L14098.2123,-3867.7001L14098.2123,-3867.7001L14098.2123,-3867.7001L14098.2123,-3867.6997L14098.2123,-3867.6997L14098.2123,-3867.6996L14098.2123,-3867.6995L14098.2123,-3867.6995L14098.2123,-3867.6994L14098.2123,-3867.6994L14098.2123,-3867.6994L14098.2123,-3867.6994L14098.2123,-3867.6993L14098.2123,-3867.6993L14098.2123,-3867.6992L14098.2123,-3867.6991L14098.2126,-3867.6882L14098.212,-3867.6002L14098.211,-3867.5666L14098.2087,-3867.5302L14098.2062,-3867.5062L14098.2062,-3867.5062L14098.2062,-3867.5062L14098.2062,-3867.5062L14098.2062,-3867.5061L14098.2062,-3867.5061L14098.2056,-3867.5002"/>
<path content="3,栗原市,高清水地区市民バス（あやめ）,3.0,3.0,3.0," xlink:title="3" d="M14098.2056,-3867.7235L14098.2118,-3867.7182L14098.2118,-3867.7182L14098.2461,-3867.6892L14098.2548,-3867.681L14098.2692,-3867.6655L14098.3044,-3867.6275L14098.3487,-3867.5745L14098.3827,-3867.5374L14098.4007,-3867.5143L14098.4301,-3867.472L14098.4374,-3867.462L14098.4833,-3867.3983L14098.4977,-3867.3802L14098.5059,-3867.3715L14098.5171,-3867.3605L14098.5238,-3867.3543L14098.5343,-3867.3459L14098.5536,-3867.3328L14098.5731,-3867.3205L14098.5792,-3867.3169L14098.6234,-3867.2922L14098.6471,-3867.2788L14098.7247,-3867.2369L14098.7456,-3867.2299L14098.7549,-3867.2255"/>
<path content="3,栗原市,高清水地区市民バス（やまぶき）,3.0,3.0,3.0," xlink:title="3" d="M14098.7549,-3867.2255L14098.7456,-3867.2299L14098.7247,-3867.2369L14098.6471,-3867.2788L14098.6234,-3867.2922L14098.5792,-3867.3169L14098.5731,-3867.3205L14098.5536,-3867.3328L14098.5343,-3867.3459L14098.5238,-3867.3543L14098.5171,-3867.3605L14098.5059,-3867.3715L14098.4977,-3867.3802L14098.4833,-3867.3983L14098.4374,-3867.462L14098.4301,-3867.472L14098.4007,-3867.5143L14098.3827,-3867.5374L14098.3487,-3867.5745L14098.3044,-3867.6275L14098.2692,-3867.6655L14098.2548,-3867.681L14098.2461,-3867.6892L14098.2118,-3867.7182L14098.2118,-3867.7182L14098.2056,-3867.7235"/>
</g>
</svg>
