<?xml version="1.0" encoding="UTF-8"?>
<svg  xmlns="http://www.w3.org/2000/svg" xmlns:xlink="http://www.w3.org/1999/xlink" xmlns:go="http://purl.org/svgmap/profile" property="N07_001,N07_002,N07_003,N07_004,N07_005,N07_006,N07_007" viewBox="14062.5 -3656.25 35.15625 35.15625" go:dataArea="14062.5 -3656.25 35.15625 35.15625" >
<metadata>
 <rdf:RDF xmlns:rdf="http://www.w3.org/1999/02/22-rdf-syntax-ns#" xmlns:crs="http://opengis.org/xmldtds/transformations.dtd" xmlns:svg="http://www.w3.org/svg" >
  <rdf:Description>
   <crs:CoordinateReferenceSystem rdf:resource="http://purl.org/crs/84" svg:transform="matrix(100.0,0.0,0.0,-100.0,0.0,0.0)" />
  </rdf:Description>
 </rdf:RDF>
</metadata>
<globalCoordinateSystem srsName="http://purl.org/crs/84" transform="matrix(100.0,0.0,0.0,-100.0,0.0,0.0)" />
<defs>
 <g id="p0" >
  <circle cx="0.0" cy="0.0" r="3" stroke="green" stroke-width="0.75" vector-effect="non-scaling-stroke" />
 </g>
</defs>
<g fill="none" fill-rule="evenodd" stroke="#FF00FF" stroke-width="0.75" opacity="0.5" vector-effect="non-scaling-stroke" stroke-linejoin="bevel" >
<path content="1,JRバス関東（株）,ひたち号,10.2,11.0,11.0," xlink:title="1" d="M14062.5,-3655.4042L14062.5093,-3655.4114L14062.5164,-3655.4186L14062.6041,-3655.4831L14062.6116,-3655.4879L14062.6375,-3655.5079L14062.6673,-3655.5292L14062.6767,-3655.5351L14062.6861,-3655.5419L14062.7068,-3655.5576L14062.7561,-3655.5946L14062.7635,-3655.6002L14062.7692,-3655.6041L14062.7881,-3655.617"/>
<path content="1,JRバス関東（株）,ひたち号,10.2,11.0,11.0," xlink:title="1" d="M14062.7881,-3655.617L14062.8018,-3655.6039L14062.8289,-3655.5804L14062.9167,-3655.5031L14062.9188,-3655.5013L14062.95,-3655.4758L14062.9821,-3655.4474L14062.9909,-3655.4387L14063.0451,-3655.3922L14063.0605,-3655.3791L14063.0835,-3655.3603L14063.085,-3655.3582L14063.0891,-3655.3528L14063.1002,-3655.3427L14063.1292,-3655.3163L14063.1626,-3655.2867L14063.1646,-3655.2849L14063.1708,-3655.2796L14063.1447,-3655.2323L14063.154,-3655.2312L14063.1943,-3655.2139L14063.2058,-3655.2171L14063.2098,-3655.2316"/>
<path content="1,JRバス関東（株）,ひたち号,10.2,11.0,11.0," xlink:title="1" d="M14063.6471,-3656.25L14063.5751,-3656.1963L14063.4898,-3656.1338L14063.4341,-3656.0942L14063.4196,-3656.0831L14063.397,-3656.0663L14063.3702,-3656.0476L14063.3449,-3656.0267L14063.31,-3656.0018L14063.2609,-3655.9665L14063.2384,-3655.9507L14063.2231,-3655.9394L14063.1662,-3655.8958L14063.1131,-3655.8567L14063.0541,-3655.8157L14062.9939,-3655.7707L14062.957,-3655.7431L14062.8919,-3655.6943L14062.8872,-3655.6908L14062.8401,-3655.6554L14062.8073,-3655.6308L14062.7881,-3655.617"/>
<path content="1,京浜急行バス（株）,水戸駅・日立駅～羽田空港線,1.0,1.0,1.0," xlink:title="1" d="M14062.5,-3655.4042L14062.5093,-3655.4114L14062.5164,-3655.4186L14062.6041,-3655.4831L14062.6116,-3655.4879L14062.6375,-3655.5079L14062.6673,-3655.5292L14062.6767,-3655.5351L14062.6861,-3655.5419L14062.7068,-3655.5576L14062.7561,-3655.5946L14062.7635,-3655.6002L14062.7692,-3655.6041L14062.7881,-3655.617L14062.8073,-3655.6308L14062.8401,-3655.6554L14062.8872,-3655.6908L14062.8919,-3655.6943L14062.957,-3655.7431L14062.9939,-3655.7707L14063.0541,-3655.8157L14063.1131,-3655.8567L14063.1662,-3655.8958L14063.2231,-3655.9394L14063.2384,-3655.9507L14063.2609,-3655.9665L14063.31,-3656.0018L14063.3449,-3656.0267L14063.3702,-3656.0476L14063.397,-3656.0663L14063.4196,-3656.0831L14063.4341,-3656.0942L14063.4898,-3656.1338L14063.5751,-3656.1963L14063.6471,-3656.25"/>
<path content="1,新常磐交通（株）,いわき駅～東京ディズニシー,1.0,1.0,1.0," xlink:title="1" d="M14063.6471,-3656.25L14063.5751,-3656.1963L14063.4898,-3656.1338L14063.4341,-3656.0942L14063.4196,-3656.0831L14063.397,-3656.0663L14063.3702,-3656.0476L14063.3449,-3656.0267L14063.31,-3656.0018L14063.2609,-3655.9665L14063.2384,-3655.9507L14063.2231,-3655.9394L14063.1662,-3655.8958L14063.1131,-3655.8567L14063.0541,-3655.8157L14062.9939,-3655.7707L14062.957,-3655.7431L14062.8919,-3655.6943L14062.8872,-3655.6908L14062.8401,-3655.6554L14062.8073,-3655.6308L14062.7881,-3655.617L14062.7692,-3655.6041L14062.7635,-3655.6002L14062.7561,-3655.5946L14062.7068,-3655.5576L14062.6861,-3655.5419L14062.6767,-3655.5351L14062.6673,-3655.5292L14062.6375,-3655.5079L14062.6116,-3655.4879L14062.6041,-3655.4831L14062.5164,-3655.4186L14062.5093,-3655.4114L14062.5,-3655.4042"/>
<path content="1,日立電鉄交通サービス（株）,10　多賀総合病院～下台原,3.5,0.0,0.0," xlink:title="1" d="M14063.2098,-3655.2316L14063.1708,-3655.2796"/>
<path content="1,日立電鉄交通サービス（株）,10　多賀総合病院～下台原,3.5,0.0,0.0," xlink:title="1" d="M14063.1708,-3655.2796L14063.1646,-3655.2849L14063.1626,-3655.2867L14063.1292,-3655.3163L14063.1002,-3655.3427L14063.0891,-3655.3528L14063.085,-3655.3582L14063.0835,-3655.3603L14063.0605,-3655.3791L14063.0451,-3655.3922L14062.9909,-3655.4387L14062.9821,-3655.4474L14062.95,-3655.4758L14062.9188,-3655.5013L14062.9167,-3655.5031L14062.8289,-3655.5804L14062.8018,-3655.6039L14062.7881,-3655.617L14062.7692,-3655.6041L14062.7635,-3655.6002L14062.7561,-3655.5946L14062.7068,-3655.5576L14062.6861,-3655.5419L14062.6767,-3655.5351L14062.6673,-3655.5292L14062.6375,-3655.5079L14062.6116,-3655.4879L14062.6041,-3655.4831L14062.5164,-3655.4186L14062.5093,-3655.4114L14062.5,-3655.4042"/>
<path content="1,日立電鉄交通サービス（株）,10　多賀総合病院～下台原,3.5,0.0,0.0," xlink:title="1" d="M14064.2769,-3655.3541L14064.2706,-3655.3438L14064.2628,-3655.3373L14064.2575,-3655.3337L14064.2522,-3655.3306L14064.2458,-3655.3285L14064.239,-3655.3273L14064.2336,-3655.3271L14064.2119,-3655.3277L14064.1584,-3655.3693L14064.1364,-3655.3877L14064.1113,-3655.4112L14064.0887,-3655.4311L14064.0684,-3655.4498L14064.0099,-3655.5075L14063.994,-3655.5226L14063.9855,-3655.5301L14063.9788,-3655.5371L14063.9626,-3655.5571L14063.9192,-3655.5982L14063.8917,-3655.6292L14063.8741,-3655.6469L14063.865,-3655.658L14063.8499,-3655.6739L14063.8274,-3655.6983L14063.8242,-3655.7017L14063.8136,-3655.7151L14063.8007,-3655.7283L14063.7896,-3655.7403L14063.7585,-3655.7734L14063.7512,-3655.7825L14063.737,-3655.7654L14063.7136,-3655.7361L14063.6787,-3655.6928L14063.6246,-3655.6183L14063.6097,-3655.5995L14063.6007,-3655.5879L14063.5716,-3655.5539L14063.5556,-3655.5379L14063.5439,-3655.5267L14063.5212,-3655.5074L14063.4905,-3655.4821L14063.4731,-3655.4677L14063.3747,-3655.3969L14063.3644,-3655.3893L14063.3428,-3655.3726L14063.3041,-3655.3458L14063.3004,-3655.3432L14063.2557,-3655.3108L14063.2201,-3655.283L14063.216,-3655.2803L14063.212,-3655.2791L14063.2103,-3655.2791L14063.1708,-3655.2796"/>
<path content="1,日立電鉄交通サービス（株）,18,1.0,0.0,0.0," xlink:title="1" d="M14063.6471,-3656.25L14063.5751,-3656.1963L14063.4898,-3656.1338L14063.4341,-3656.0942L14063.4196,-3656.0831L14063.397,-3656.0663L14063.3702,-3656.0476L14063.3449,-3656.0267L14063.31,-3656.0018L14063.2609,-3655.9665L14063.2384,-3655.9507L14063.2231,-3655.9394L14063.1662,-3655.8958L14063.1131,-3655.8567L14063.0541,-3655.8157L14062.9939,-3655.7707L14062.957,-3655.7431L14062.8919,-3655.6943L14062.8872,-3655.6908L14062.8401,-3655.6554L14062.8073,-3655.6308L14062.7881,-3655.617L14062.7692,-3655.6041L14062.7635,-3655.6002L14062.7561,-3655.5946L14062.7068,-3655.5576L14062.6861,-3655.5419L14062.6767,-3655.5351L14062.6673,-3655.5292L14062.6375,-3655.5079L14062.6116,-3655.4879L14062.6041,-3655.4831L14062.5164,-3655.4186L14062.5093,-3655.4114L14062.5,-3655.4042"/>
<path content="1,日立電鉄交通サービス（株）,19　多賀総合病院～下台原,27.0,23.0,23.0," xlink:title="1" d="M14062.5,-3655.4042L14062.5093,-3655.4114L14062.5164,-3655.4186L14062.6041,-3655.4831L14062.6116,-3655.4879L14062.6375,-3655.5079L14062.6673,-3655.5292L14062.6767,-3655.5351L14062.6861,-3655.5419L14062.7068,-3655.5576L14062.7561,-3655.5946L14062.7635,-3655.6002L14062.7692,-3655.6041L14062.7881,-3655.617L14062.8018,-3655.6039L14062.8289,-3655.5804L14062.9167,-3655.5031L14062.9188,-3655.5013L14062.95,-3655.4758L14062.9821,-3655.4474L14062.9909,-3655.4387L14063.0451,-3655.3922L14063.0605,-3655.3791L14063.0835,-3655.3603L14063.085,-3655.3582L14063.0891,-3655.3528L14063.1002,-3655.3427L14063.1292,-3655.3163L14063.1626,-3655.2867L14063.1646,-3655.2849L14063.1708,-3655.2796"/>
<path content="1,日立電鉄交通サービス（株）,19　多賀総合病院～下台原,27.0,23.0,23.0," xlink:title="1" d="M14063.2098,-3655.2316L14063.1708,-3655.2796"/>
<path content="1,日立電鉄交通サービス（株）,19　多賀総合病院～下台原,27.0,23.0,23.0," xlink:title="1" d="M14063.1708,-3655.2796L14063.2103,-3655.2791L14063.212,-3655.2791L14063.216,-3655.2803L14063.2201,-3655.283L14063.2557,-3655.3108L14063.3004,-3655.3432L14063.3041,-3655.3458L14063.3428,-3655.3726L14063.3644,-3655.3893L14063.3747,-3655.3969L14063.4731,-3655.4677L14063.4905,-3655.4821L14063.5212,-3655.5074L14063.5439,-3655.5267L14063.5556,-3655.5379L14063.5716,-3655.5539L14063.6007,-3655.5879L14063.6097,-3655.5995L14063.6246,-3655.6183L14063.6787,-3655.6928L14063.7136,-3655.7361L14063.737,-3655.7654L14063.7512,-3655.7825L14063.7585,-3655.7734L14063.7896,-3655.7403L14063.8007,-3655.7283L14063.8136,-3655.7151L14063.8242,-3655.7017L14063.8274,-3655.6983L14063.8499,-3655.6739L14063.865,-3655.658L14063.8741,-3655.6469L14063.8917,-3655.6292L14063.9192,-3655.5982L14063.9626,-3655.5571L14063.9788,-3655.5371L14063.9855,-3655.5301L14063.994,-3655.5226L14064.0099,-3655.5075L14064.0684,-3655.4498L14064.0887,-3655.4311L14064.1113,-3655.4112L14064.1364,-3655.3877L14064.1584,-3655.3693L14064.2119,-3655.3277L14064.2336,-3655.3271L14064.239,-3655.3273L14064.2458,-3655.3285L14064.2522,-3655.3306L14064.2575,-3655.3337L14064.2628,-3655.3373L14064.2706,-3655.3438L14064.2769,-3655.3541"/>
<path content="1,日立電鉄交通サービス（株）,1　市内国道線,2.0,0.0,0.0," xlink:title="1" d="M14063.6471,-3656.25L14063.5751,-3656.1963L14063.4898,-3656.1338L14063.4341,-3656.0942L14063.4196,-3656.0831L14063.397,-3656.0663L14063.3702,-3656.0476L14063.3449,-3656.0267L14063.31,-3656.0018L14063.2609,-3655.9665L14063.2384,-3655.9507L14063.2231,-3655.9394L14063.1662,-3655.8958L14063.1131,-3655.8567L14063.0541,-3655.8157L14062.9939,-3655.7707L14062.957,-3655.7431L14062.8919,-3655.6943L14062.8872,-3655.6908L14062.8401,-3655.6554L14062.8073,-3655.6308L14062.7881,-3655.617L14062.8018,-3655.6039L14062.8289,-3655.5804L14062.9167,-3655.5031L14062.9188,-3655.5013L14062.95,-3655.4758L14062.9821,-3655.4474L14062.9909,-3655.4387L14063.0451,-3655.3922L14063.0605,-3655.3791L14063.0835,-3655.3603L14063.085,-3655.3582L14063.0891,-3655.3528L14063.1002,-3655.3427L14063.1292,-3655.3163L14063.1626,-3655.2867L14063.1646,-3655.2849L14063.1708,-3655.2796L14063.2098,-3655.2316"/>
<path content="1,日立電鉄交通サービス（株）,1　市内国道線（河原子・多賀駅前～）,2.5,0.0,0.0," xlink:title="1" d="M14063.1943,-3655.2139L14063.1827,-3655.2076L14063.1387,-3655.1729L14063.1239,-3655.1605L14063.1189,-3655.1552L14063.1127,-3655.1471L14063.1043,-3655.1331L14063.0915,-3655.1159L14063.0816,-3655.1068L14062.9469,-3655.0107L14062.9823,-3654.9794L14063.0641,-3654.91L14063.0789,-3654.9033L14063.1348,-3654.8829L14063.1584,-3654.8744L14063.1943,-3654.8615L14063.2689,-3654.8352L14063.3919,-3654.7895L14063.4249,-3654.779L14063.4374,-3654.7752L14063.4429,-3654.7733L14063.4557,-3654.7656L14063.5085,-3654.7362L14063.5238,-3654.7277L14063.5621,-3654.7064L14063.6163,-3654.6773L14063.6601,-3654.6533L14063.6781,-3654.6426L14063.6878,-3654.6375L14063.7857,-3654.5822L14063.8004,-3654.5748L14063.8114,-3654.5686L14063.8249,-3654.5609L14063.8356,-3654.5546L14063.9329,-3654.4992"/>
<path content="1,日立電鉄交通サービス（株）,1　市内国道線（河原子・多賀駅前～）,2.5,0.0,0.0," xlink:title="1" d="M14063.1943,-3655.2139L14063.2058,-3655.2171L14063.2098,-3655.2316"/>
<path content="1,日立電鉄交通サービス（株）,1　市内国道線（河原子・多賀駅前～）,2.5,0.0,0.0," xlink:title="1" d="M14063.6471,-3656.25L14063.5751,-3656.1963L14063.4898,-3656.1338L14063.4341,-3656.0942L14063.4196,-3656.0831L14063.397,-3656.0663L14063.3702,-3656.0476L14063.3449,-3656.0267L14063.31,-3656.0018L14063.2609,-3655.9665L14063.2384,-3655.9507L14063.2231,-3655.9394L14063.1662,-3655.8958L14063.1131,-3655.8567L14063.0541,-3655.8157L14062.9939,-3655.7707L14062.957,-3655.7431L14062.8919,-3655.6943L14062.8872,-3655.6908L14062.8401,-3655.6554L14062.8073,-3655.6308L14062.7881,-3655.617L14062.8018,-3655.6039L14062.8289,-3655.5804L14062.9167,-3655.5031L14062.9188,-3655.5013L14062.95,-3655.4758L14062.9821,-3655.4474L14062.9909,-3655.4387L14063.0451,-3655.3922L14063.0605,-3655.3791L14063.0835,-3655.3603L14063.085,-3655.3582L14063.0891,-3655.3528L14063.1002,-3655.3427L14063.1292,-3655.3163L14063.1626,-3655.2867L14063.1646,-3655.2849L14063.1708,-3655.2796L14063.1447,-3655.2323L14063.154,-3655.2312L14063.1943,-3655.2139"/>
<path content="1,日立電鉄交通サービス（株）,21,6.5,7.5,7.5," xlink:title="1" d="M14062.5,-3655.4042L14062.5093,-3655.4114L14062.5164,-3655.4186L14062.6041,-3655.4831L14062.6116,-3655.4879L14062.6375,-3655.5079L14062.6673,-3655.5292L14062.6767,-3655.5351L14062.6861,-3655.5419L14062.7068,-3655.5576L14062.7561,-3655.5946L14062.7635,-3655.6002L14062.7692,-3655.6041L14062.7881,-3655.617L14062.8018,-3655.6039L14062.8289,-3655.5804L14062.9167,-3655.5031L14062.9188,-3655.5013L14062.95,-3655.4758L14062.9821,-3655.4474L14062.9909,-3655.4387L14063.0451,-3655.3922L14063.0605,-3655.3791L14063.0835,-3655.3603L14063.085,-3655.3582L14063.0891,-3655.3528L14063.1002,-3655.3427L14063.1292,-3655.3163L14063.1626,-3655.2867L14063.1646,-3655.2849L14063.1708,-3655.2796"/>
<path content="1,日立電鉄交通サービス（株）,21,6.5,7.5,7.5," xlink:title="1" d="M14063.1708,-3655.2796L14063.2098,-3655.2316"/>
<path content="1,日立電鉄交通サービス（株）,21,6.5,7.5,7.5," xlink:title="1" d="M14063.1708,-3655.2796L14063.2103,-3655.2791L14063.212,-3655.2791L14063.216,-3655.2803L14063.2201,-3655.283L14063.2557,-3655.3108L14063.3004,-3655.3432L14063.3041,-3655.3458L14063.3428,-3655.3726L14063.3644,-3655.3893L14063.3747,-3655.3969L14063.4731,-3655.4677L14063.4905,-3655.4821L14063.5212,-3655.5074L14063.5439,-3655.5267L14063.5556,-3655.5379L14063.5716,-3655.5539L14063.6007,-3655.5879L14063.6097,-3655.5995L14063.6246,-3655.6183L14063.6787,-3655.6928L14063.7136,-3655.7361L14063.737,-3655.7654L14063.7512,-3655.7825L14063.7477,-3655.7888L14063.7422,-3655.8066L14063.7362,-3655.8347L14063.7318,-3655.8631L14063.7312,-3655.8729L14063.7301,-3655.8821L14063.7201,-3655.9495L14063.7143,-3655.9764L14063.7127,-3655.9837L14063.696,-3656.099L14063.6904,-3656.1101L14063.6874,-3656.1288L14063.6665,-3656.25"/>
<path content="1,日立電鉄交通サービス（株）,22,10.5,0.0,0.0," xlink:title="1" d="M14062.5,-3655.4042L14062.5093,-3655.4114L14062.5164,-3655.4186L14062.6041,-3655.4831L14062.6116,-3655.4879L14062.6375,-3655.5079L14062.6673,-3655.5292L14062.6767,-3655.5351L14062.6861,-3655.5419L14062.7068,-3655.5576L14062.7561,-3655.5946L14062.7635,-3655.6002L14062.7692,-3655.6041L14062.7881,-3655.617L14062.8018,-3655.6039L14062.8289,-3655.5804L14062.9167,-3655.5031L14062.9188,-3655.5013L14062.95,-3655.4758L14062.9821,-3655.4474L14062.9909,-3655.4387L14063.0451,-3655.3922L14063.0605,-3655.3791L14063.0835,-3655.3603L14063.085,-3655.3582L14063.0891,-3655.3528L14063.1002,-3655.3427L14063.1292,-3655.3163L14063.1626,-3655.2867L14063.1646,-3655.2849L14063.1708,-3655.2796"/>
<path content="1,日立電鉄交通サービス（株）,22,10.5,0.0,0.0," xlink:title="1" d="M14063.1708,-3655.2796L14063.2098,-3655.2316"/>
<path content="1,日立電鉄交通サービス（株）,22,10.5,0.0,0.0," xlink:title="1" d="M14063.1708,-3655.2796L14063.2103,-3655.2791L14063.212,-3655.2791L14063.216,-3655.2803L14063.2201,-3655.283L14063.2557,-3655.3108L14063.3004,-3655.3432L14063.3041,-3655.3458L14063.3428,-3655.3726L14063.3644,-3655.3893L14063.3747,-3655.3969L14063.4731,-3655.4677L14063.4905,-3655.4821L14063.5212,-3655.5074L14063.5439,-3655.5267L14063.5556,-3655.5379L14063.5716,-3655.5539L14063.6007,-3655.5879L14063.6097,-3655.5995L14063.6246,-3655.6183L14063.6787,-3655.6928L14063.7136,-3655.7361L14063.737,-3655.7654L14063.7512,-3655.7825L14063.7477,-3655.7888L14063.7422,-3655.8066L14063.7362,-3655.8347L14063.7318,-3655.8631L14063.7312,-3655.8729L14063.7301,-3655.8821L14063.7201,-3655.9495L14063.7143,-3655.9764L14063.7127,-3655.9837L14063.696,-3656.099L14063.6904,-3656.1101L14063.6874,-3656.1288L14063.6665,-3656.25"/>
<path content="1,日立電鉄交通サービス（株）,26,15.5,8.0,8.0," xlink:title="1" d="M14062.5,-3655.4042L14062.5093,-3655.4114L14062.5164,-3655.4186L14062.6041,-3655.4831L14062.6116,-3655.4879L14062.6375,-3655.5079L14062.6673,-3655.5292L14062.6767,-3655.5351L14062.6861,-3655.5419L14062.7068,-3655.5576L14062.7561,-3655.5946L14062.7635,-3655.6002L14062.7692,-3655.6041L14062.7881,-3655.617L14062.8018,-3655.6039L14062.8289,-3655.5804L14062.9167,-3655.5031L14062.9188,-3655.5013L14062.95,-3655.4758L14062.9821,-3655.4474L14062.9909,-3655.4387L14063.0451,-3655.3922L14063.0605,-3655.3791L14063.0835,-3655.3603L14063.085,-3655.3582L14063.0891,-3655.3528L14063.1002,-3655.3427L14063.1292,-3655.3163L14063.1626,-3655.2867L14063.1646,-3655.2849L14063.1708,-3655.2796"/>
<path content="1,日立電鉄交通サービス（株）,26,15.5,8.0,8.0," xlink:title="1" d="M14063.1708,-3655.2796L14063.2098,-3655.2316"/>
<path content="1,日立電鉄交通サービス（株）,26,15.5,8.0,8.0," xlink:title="1" d="M14063.1708,-3655.2796L14063.2103,-3655.2791L14063.212,-3655.2791L14063.216,-3655.2803L14063.2201,-3655.283L14063.2557,-3655.3108L14063.3004,-3655.3432L14063.3041,-3655.3458L14063.3428,-3655.3726L14063.3644,-3655.3893L14063.3747,-3655.3969L14063.4731,-3655.4677L14063.4905,-3655.4821L14063.5212,-3655.5074L14063.5439,-3655.5267L14063.5556,-3655.5379L14063.5716,-3655.5539L14063.6007,-3655.5879L14063.6097,-3655.5995L14063.6246,-3655.6183L14063.6787,-3655.6928L14063.7136,-3655.7361L14063.737,-3655.7654L14063.7512,-3655.7825L14063.7477,-3655.7888L14063.7422,-3655.8066L14063.7362,-3655.8347L14063.7318,-3655.8631L14063.7312,-3655.8729L14063.7301,-3655.8821L14063.7201,-3655.9495L14063.7143,-3655.9764L14063.7127,-3655.9837L14063.696,-3656.099L14063.6904,-3656.1101L14063.6874,-3656.1288L14063.6665,-3656.25"/>
<path content="1,日立電鉄交通サービス（株）,28,9.5,6.5,6.5," xlink:title="1" d="M14062.5,-3656.1788L14062.5119,-3656.1913L14062.5494,-3656.1658L14062.5652,-3656.1585L14062.612,-3656.1368L14062.617,-3656.1334L14062.6262,-3656.1292L14062.6333,-3656.126L14062.6431,-3656.1212L14062.65,-3656.1187L14062.6628,-3656.1126L14062.6694,-3656.1107L14062.68,-3656.1092L14062.6889,-3656.1085L14062.7021,-3656.1076L14062.7072,-3656.1072L14062.7258,-3656.1073L14062.7295,-3656.1075L14062.7349,-3656.1086L14062.7466,-3656.1095L14062.7447,-3656.0276L14062.7402,-3655.9457L14062.7378,-3655.8834L14062.7367,-3655.8731L14062.7363,-3655.854L14062.7365,-3655.828L14062.7376,-3655.7987L14062.7385,-3655.7551L14062.7389,-3655.7309L14062.7393,-3655.7032L14062.7392,-3655.6759L14062.7395,-3655.6601L14062.7438,-3655.6589L14062.7486,-3655.6552L14062.7716,-3655.6336L14062.7881,-3655.617L14062.8018,-3655.6039L14062.8289,-3655.5804L14062.9167,-3655.5031L14062.9188,-3655.5013L14062.95,-3655.4758L14062.9821,-3655.4474L14062.9909,-3655.4387L14063.0451,-3655.3922L14063.0605,-3655.3791L14063.0835,-3655.3603L14063.085,-3655.3582L14063.0891,-3655.3528L14063.1002,-3655.3427L14063.1292,-3655.3163L14063.1626,-3655.2867L14063.1708,-3655.2796L14063.2098,-3655.2316"/>
<path content="1,日立電鉄交通サービス（株）,2　市内海岸線　（多賀駅前～上田沢アパート前）,2.5,0.0,0.0," xlink:title="1" d="M14063.2098,-3655.2316L14063.2058,-3655.2171L14063.1943,-3655.2139L14063.1827,-3655.2076L14063.1387,-3655.1729L14063.1239,-3655.1605L14063.1189,-3655.1552L14063.1127,-3655.1471L14063.1043,-3655.1331L14063.0915,-3655.1159L14063.0816,-3655.1068L14062.9469,-3655.0107L14062.9823,-3654.9794L14063.0641,-3654.91L14063.0789,-3654.9033L14063.1348,-3654.8829L14063.1584,-3654.8744L14063.1943,-3654.8615L14063.2689,-3654.8352L14063.3919,-3654.7895L14063.4249,-3654.779L14063.4374,-3654.7752L14063.4429,-3654.7733L14063.4557,-3654.7656L14063.5085,-3654.7362L14063.5238,-3654.7277L14063.5621,-3654.7064L14063.6163,-3654.6773L14063.6601,-3654.6533L14063.6781,-3654.6426L14063.6878,-3654.6375L14063.7857,-3654.5822L14063.8004,-3654.5748L14063.8114,-3654.5686L14063.8249,-3654.5609L14063.8356,-3654.5546L14063.9329,-3654.4992L14064.0002,-3654.4595L14064.0094,-3654.4777L14064.0157,-3654.4952L14064.0171,-3654.5024L14064.0173,-3654.5124L14064.0155,-3654.5219L14064.0122,-3654.5329L14064.0096,-3654.5466L14064.0085,-3654.5646L14064.0092,-3654.5872L14064.0119,-3654.6036L14064.0156,-3654.6209L14064.0237,-3654.6479L14064.0292,-3654.6624L14064.0304,-3654.665L14064.0425,-3654.6909L14064.0539,-3654.7107L14064.0574,-3654.7166L14064.0879,-3654.7662L14064.1071,-3654.7976L14064.1148,-3654.809L14064.123,-3654.8234L14064.1379,-3654.8476L14064.1565,-3654.8771L14064.1756,-3654.9084L14064.1849,-3654.9258L14064.1904,-3654.9373L14064.1949,-3654.9518L14064.1998,-3654.9702L14064.2042,-3654.99L14064.206,-3655.0035L14064.2096,-3655.0281L14064.2128,-3655.0687L14064.2129,-3655.0794L14064.2118,-3655.096L14064.2094,-3655.1178L14064.2036,-3655.1581L14064.198,-3655.2066L14064.1982,-3655.2224L14064.1999,-3655.2305L14064.2021,-3655.2397L14064.206,-3655.2497L14064.2111,-3655.2599L14064.2181,-3655.2716L14064.2212,-3655.277L14064.2432,-3655.3079L14064.2706,-3655.3438L14064.2769,-3655.3541L14064.2822,-3655.3586L14064.3158,-3655.4084L14064.3764,-3655.4972L14064.4221,-3655.5721L14064.4387,-3655.6052L14064.4562,-3655.6399L14064.5066,-3655.751L14064.5511,-3655.876L14064.5571,-3655.8929L14064.5643,-3655.9261L14064.5738,-3655.9733L14064.5829,-3656.0674L14064.5864,-3656.1027L14064.5874,-3656.1129L14064.5979,-3656.25"/>
<path content="1,日立電鉄交通サービス（株）,2　市内海岸線（多賀駅前～神峰営業所前）,6.0,4.5,4.5," xlink:title="1" d="M14063.2098,-3655.2316L14063.2058,-3655.2171L14063.1943,-3655.2139L14063.1827,-3655.2076L14063.1387,-3655.1729L14063.1239,-3655.1605L14063.1189,-3655.1552L14063.1127,-3655.1471L14063.1043,-3655.1331L14063.0915,-3655.1159L14063.0816,-3655.1068L14062.9469,-3655.0107L14062.9823,-3654.9794L14063.0641,-3654.91L14063.0789,-3654.9033L14063.1348,-3654.8829L14063.1584,-3654.8744L14063.1943,-3654.8615L14063.2689,-3654.8352L14063.3919,-3654.7895L14063.4249,-3654.779L14063.4374,-3654.7752L14063.4429,-3654.7733L14063.4557,-3654.7656L14063.5085,-3654.7362L14063.5238,-3654.7277L14063.5621,-3654.7064L14063.6163,-3654.6773L14063.6601,-3654.6533L14063.6781,-3654.6426L14063.6878,-3654.6375L14063.7857,-3654.5822L14063.8004,-3654.5748L14063.8114,-3654.5686L14063.8249,-3654.5609L14063.8356,-3654.5546L14063.9329,-3654.4992L14064.0002,-3654.4595L14064.0094,-3654.4777L14064.0157,-3654.4952L14064.0171,-3654.5024L14064.0173,-3654.5124L14064.0155,-3654.5219L14064.0122,-3654.5329L14064.0096,-3654.5466L14064.0085,-3654.5646L14064.0092,-3654.5872L14064.0119,-3654.6036L14064.0156,-3654.6209L14064.0237,-3654.6479L14064.0292,-3654.6624L14064.0304,-3654.665L14064.0425,-3654.6909L14064.0539,-3654.7107L14064.0574,-3654.7166L14064.0879,-3654.7662L14064.1071,-3654.7976L14064.1148,-3654.809L14064.123,-3654.8234L14064.1379,-3654.8476L14064.1565,-3654.8771L14064.1756,-3654.9084L14064.1849,-3654.9258L14064.1904,-3654.9373L14064.1949,-3654.9518L14064.1998,-3654.9702L14064.2042,-3654.99L14064.206,-3655.0035L14064.2096,-3655.0281L14064.2128,-3655.0687L14064.2129,-3655.0794L14064.2118,-3655.096L14064.2094,-3655.1178L14064.2036,-3655.1581L14064.198,-3655.2066L14064.1982,-3655.2224L14064.1999,-3655.2305L14064.2021,-3655.2397L14064.206,-3655.2497L14064.2111,-3655.2599L14064.2181,-3655.2716L14064.2212,-3655.277L14064.2432,-3655.3079L14064.2706,-3655.3438L14064.2769,-3655.3541L14064.2822,-3655.3586L14064.3158,-3655.4084L14064.3764,-3655.4972L14064.4221,-3655.5721L14064.4387,-3655.6052L14064.4562,-3655.6399L14064.5066,-3655.751L14064.5511,-3655.876L14064.5571,-3655.8929L14064.5643,-3655.9261L14064.5738,-3655.9733L14064.5829,-3656.0674L14064.5864,-3656.1027L14064.5874,-3656.1129L14064.5979,-3656.25"/>
<path content="1,日立電鉄交通サービス（株）,30,27.0,16.0,16.0," xlink:title="1" d="M14062.8017,-3650.6081L14062.7573,-3650.6217L14062.7209,-3650.6347L14062.6755,-3650.6518L14062.6208,-3650.6719L14062.5759,-3650.689L14062.5,-3650.7166"/>
<path content="1,日立電鉄交通サービス（株）,30,27.0,16.0,16.0," xlink:title="1" d="M14062.5,-3651.2003L14062.5024,-3651.2001L14062.5668,-3651.1955L14062.5784,-3651.1938L14062.5857,-3651.1916L14062.6117,-3651.1886L14062.6749,-3651.1844L14062.716,-3651.1822L14062.7458,-3651.1802L14062.7709,-3651.1787L14062.7801,-3651.1781L14062.8922,-3651.1701L14062.9464,-3651.1664L14063.0001,-3651.1633L14063.0237,-3651.1618L14063.0442,-3651.1601L14063.0642,-3651.1573L14063.0715,-3651.1848L14063.0766,-3651.2018L14063.0795,-3651.2113L14063.0825,-3651.2218L14063.0978,-3651.2649L14063.1013,-3651.2881L14063.1064,-3651.3099L14063.1092,-3651.3294L14063.1132,-3651.3703L14063.1134,-3651.3842L14063.1135,-3651.3942L14063.1134,-3651.4121L14063.1112,-3651.4422L14063.1101,-3651.4546L14063.102,-3651.5083L14063.0994,-3651.5166L14063.0962,-3651.524L14063.0915,-3651.5335L14063.0804,-3651.5559L14063.0631,-3651.5826L14063.0494,-3651.6004L14063.0082,-3651.6454L14063.0013,-3651.6528L14062.987,-3651.6708L14062.978,-3651.6803L14062.9599,-3651.6994L14062.901,-3651.7643L14062.8179,-3651.8557L14062.8088,-3651.8658L14062.7823,-3651.8962L14062.7642,-3651.9199L14062.7586,-3651.9298L14062.7501,-3651.9473L14062.7454,-3651.9628L14062.7421,-3651.9795L14062.7399,-3652.0096L14062.7396,-3652.026L14062.7415,-3652.0499L14062.7452,-3652.0674L14062.7509,-3652.0885L14062.7583,-3652.1042L14062.7651,-3652.1186L14062.7804,-3652.1418L14062.7895,-3652.1521L14062.801,-3652.1642L14062.8127,-3652.1751L14062.8411,-3652.1988L14062.8605,-3652.2143L14062.8696,-3652.2227L14062.879,-3652.2308L14062.9247,-3652.2689L14063.0177,-3652.3469L14063.0014,-3652.3548L14062.9853,-3652.3622L14062.9718,-3652.3672L14062.9507,-3652.3732L14062.8283,-3652.4069L14062.8069,-3652.4118L14062.7779,-3652.4204L14062.7399,-3652.4322L14062.7032,-3652.4468L14062.6479,-3652.4671L14062.6266,-3652.4759L14062.6104,-3652.4821L14062.6045,-3652.4849L14062.614,-3652.5034L14062.6162,-3652.5059L14062.6238,-3652.5151L14062.627,-3652.5191L14062.6252,-3652.5202L14062.6326,-3652.5333L14062.6674,-3652.6061L14062.702,-3652.676L14062.7117,-3652.6964L14062.7479,-3652.774L14062.7776,-3652.8354L14062.7921,-3652.866L14062.8552,-3652.9991L14062.8784,-3653.0445L14062.8976,-3653.0673L14062.9035,-3653.0959L14062.97,-3653.2337L14062.9946,-3653.2836L14062.9947,-3653.3318L14062.9946,-3653.3383L14062.9938,-3653.3441L14062.9925,-3653.3476L14062.9898,-3653.3514L14062.9836,-3653.3561L14062.964,-3653.3666L14062.9586,-3653.3687L14062.8705,-3653.4188L14062.8559,-3653.4249L14062.8476,-3653.4298L14062.8329,-3653.4376L14062.8048,-3653.4558L14062.7556,-3653.4955L14062.7501,-3653.5013L14062.7425,-3653.5082L14062.7319,-3653.5185L14062.7211,-3653.5275L14062.7148,-3653.5319L14062.7087,-3653.535L14062.7016,-3653.5377L14062.6944,-3653.5402L14062.685,-3653.5423L14062.6758,-3653.544L14062.6631,-3653.5477L14062.563,-3653.5663L14062.5559,-3653.5985L14062.5522,-3653.6151L14062.5423,-3653.6661L14062.5318,-3653.7182L14062.5313,-3653.7277L14062.532,-3653.7473L14062.5351,-3653.7686L14062.5387,-3653.7814L14062.5525,-3653.8346L14062.5604,-3653.8632L14062.5858,-3653.9474L14062.6047,-3654.0127L14062.6207,-3654.0725L14062.6323,-3654.1063L14062.6427,-3654.1429L14062.6633,-3654.2159L14062.6826,-3654.2802L14062.6866,-3654.2937L14062.6908,-3654.3073L14062.6954,-3654.3234L14062.7192,-3654.403L14062.7377,-3654.465L14062.7445,-3654.4919L14062.764,-3654.563L14062.7668,-3654.571L14062.7503,-3654.5794L14062.6968,-3654.6106L14062.6732,-3654.6221L14062.6197,-3654.6436L14062.5675,-3654.6636L14062.5179,-3654.6803L14062.5019,-3654.684L14062.5,-3654.6842"/>
<path content="1,日立電鉄交通サービス（株）,30,27.0,16.0,16.0," xlink:title="1" d="M14062.5,-3655.4042L14062.5093,-3655.4114L14062.5164,-3655.4186L14062.6041,-3655.4831L14062.6116,-3655.4879L14062.6375,-3655.5079L14062.6673,-3655.5292L14062.6767,-3655.5351L14062.6861,-3655.5419L14062.7068,-3655.5576L14062.7561,-3655.5946L14062.7635,-3655.6002L14062.7692,-3655.6041L14062.7881,-3655.617L14062.8018,-3655.6039L14062.8289,-3655.5804L14062.9167,-3655.5031L14062.9188,-3655.5013L14062.95,-3655.4758L14062.9821,-3655.4474L14062.9909,-3655.4387L14063.0451,-3655.3922L14063.0605,-3655.3791L14063.0835,-3655.3603L14063.085,-3655.3582L14063.0891,-3655.3528L14063.1002,-3655.3427L14063.1292,-3655.3163L14063.1626,-3655.2867L14063.1646,-3655.2849L14063.1708,-3655.2796"/>
<path content="1,日立電鉄交通サービス（株）,30,27.0,16.0,16.0," xlink:title="1" d="M14063.1708,-3655.2796L14063.2098,-3655.2316"/>
<path content="1,日立電鉄交通サービス（株）,30,27.0,16.0,16.0," xlink:title="1" d="M14063.1708,-3655.2796L14063.2103,-3655.2791L14063.212,-3655.2791L14063.216,-3655.2803L14063.2201,-3655.283L14063.2557,-3655.3108L14063.3004,-3655.3432L14063.3041,-3655.3458L14063.3428,-3655.3726L14063.3644,-3655.3893L14063.3747,-3655.3969L14063.4731,-3655.4677L14063.4905,-3655.4821L14063.5212,-3655.5074L14063.5439,-3655.5267L14063.5556,-3655.5379L14063.5716,-3655.5539L14063.6007,-3655.5879L14063.6097,-3655.5995L14063.6246,-3655.6183L14063.6787,-3655.6928L14063.7136,-3655.7361L14063.737,-3655.7654L14063.7512,-3655.7825L14063.7477,-3655.7888L14063.7422,-3655.8066L14063.7362,-3655.8347L14063.7318,-3655.8631L14063.7312,-3655.8729L14063.7301,-3655.8821L14063.7201,-3655.9495L14063.7143,-3655.9764L14063.7127,-3655.9837L14063.696,-3656.099L14063.6904,-3656.1101L14063.6874,-3656.1288L14063.6665,-3656.25"/>
<path content="1,日立電鉄交通サービス（株）,31,11.5,6.5,6.5," xlink:title="1" d="M14062.5,-3655.4042L14062.5093,-3655.4114L14062.5164,-3655.4186L14062.6041,-3655.4831L14062.6116,-3655.4879L14062.6375,-3655.5079L14062.6673,-3655.5292L14062.6767,-3655.5351L14062.6861,-3655.5419L14062.7068,-3655.5576L14062.7561,-3655.5946L14062.7635,-3655.6002L14062.7692,-3655.6041L14062.7881,-3655.617L14062.8018,-3655.6039L14062.8289,-3655.5804L14062.9167,-3655.5031L14062.9188,-3655.5013L14062.95,-3655.4758L14062.9821,-3655.4474L14062.9909,-3655.4387L14063.0451,-3655.3922L14063.0605,-3655.3791L14063.0835,-3655.3603L14063.085,-3655.3582L14063.0891,-3655.3528L14063.1002,-3655.3427L14063.1292,-3655.3163L14063.1626,-3655.2867L14063.1646,-3655.2849L14063.1708,-3655.2796"/>
<path content="1,日立電鉄交通サービス（株）,31,11.5,6.5,6.5," xlink:title="1" d="M14063.1708,-3655.2796L14063.2098,-3655.2316"/>
<path content="1,日立電鉄交通サービス（株）,31,11.5,6.5,6.5," xlink:title="1" d="M14063.1708,-3655.2796L14063.2103,-3655.2791L14063.212,-3655.2791L14063.216,-3655.2803L14063.2201,-3655.283L14063.2557,-3655.3108L14063.3004,-3655.3432L14063.3041,-3655.3458L14063.3428,-3655.3726L14063.3644,-3655.3893L14063.3747,-3655.3969L14063.4731,-3655.4677L14063.4905,-3655.4821L14063.5212,-3655.5074L14063.5439,-3655.5267L14063.5556,-3655.5379L14063.5716,-3655.5539L14063.6007,-3655.5879L14063.6097,-3655.5995L14063.6246,-3655.6183L14063.6787,-3655.6928L14063.7136,-3655.7361L14063.737,-3655.7654L14063.7512,-3655.7825L14063.7585,-3655.7734L14063.7896,-3655.7403L14063.8007,-3655.7283L14063.8136,-3655.7151L14063.8242,-3655.7017L14063.8274,-3655.6983L14063.8499,-3655.6739L14063.865,-3655.658L14063.8741,-3655.6469L14063.8917,-3655.6292L14063.9192,-3655.5982L14063.9626,-3655.5571L14063.9788,-3655.5371L14063.9855,-3655.5301L14063.994,-3655.5226L14064.0099,-3655.5075L14064.0684,-3655.4498L14064.0887,-3655.4311L14064.1113,-3655.4112L14064.1364,-3655.3877L14064.1584,-3655.3693L14064.2119,-3655.3277L14064.2336,-3655.3271L14064.239,-3655.3273L14064.2458,-3655.3285L14064.2522,-3655.3306L14064.2575,-3655.3337L14064.2628,-3655.3373L14064.2706,-3655.3438L14064.2769,-3655.3541"/>
<path content="1,日立電鉄交通サービス（株）,34,9.5,0.0,0.0," xlink:title="1" d="M14063.6665,-3656.25L14063.6874,-3656.1288L14063.6904,-3656.1101L14063.696,-3656.099L14063.7127,-3655.9837L14063.7143,-3655.9764L14063.7201,-3655.9495L14063.7301,-3655.8821L14063.7312,-3655.8729L14063.7318,-3655.8631L14063.7362,-3655.8347L14063.7422,-3655.8066L14063.7477,-3655.7888L14063.7512,-3655.7825L14063.737,-3655.7654L14063.7136,-3655.7361L14063.6787,-3655.6928L14063.6246,-3655.6183L14063.6097,-3655.5995L14063.6007,-3655.5879L14063.5716,-3655.5539L14063.5556,-3655.5379L14063.5439,-3655.5267L14063.5212,-3655.5074L14063.4905,-3655.4821L14063.4731,-3655.4677L14063.3747,-3655.3969L14063.3644,-3655.3893L14063.3428,-3655.3726L14063.3041,-3655.3458L14063.3004,-3655.3432L14063.2557,-3655.3108L14063.2201,-3655.283L14063.216,-3655.2803L14063.212,-3655.2791L14063.2103,-3655.2791L14063.1708,-3655.2796L14063.2098,-3655.2316"/>
<path content="1,日立電鉄交通サービス（株）,35　堂平団地～臨海工場前,1.0,1.0,1.0," xlink:title="1" d="M14062.5,-3650.7166L14062.5759,-3650.689L14062.6208,-3650.6719L14062.6755,-3650.6518L14062.7209,-3650.6347L14062.7573,-3650.6217L14062.8017,-3650.6081L14062.8214,-3650.5979L14062.8502,-3650.5855L14062.8618,-3650.5816L14062.8814,-3650.5776L14062.9002,-3650.6374L14062.9048,-3650.6515L14062.9213,-3650.7016L14062.9594,-3650.8172L14062.9651,-3650.8326L14062.9707,-3650.8502L14062.9883,-3650.9031L14063.0147,-3650.9878L14063.0237,-3651.0082L14063.0312,-3651.0439L14063.0391,-3651.0695L14063.05,-3651.1043L14063.0616,-3651.1417L14063.0642,-3651.1573L14063.0715,-3651.1848L14063.0766,-3651.2018L14063.0795,-3651.2113L14063.0825,-3651.2218L14063.0978,-3651.2649L14063.1013,-3651.2881L14063.1064,-3651.3099L14063.1092,-3651.3294L14063.1132,-3651.3703L14063.1134,-3651.3842L14063.1135,-3651.3942L14063.1134,-3651.4121L14063.1112,-3651.4422L14063.1101,-3651.4546L14063.102,-3651.5083L14063.0994,-3651.5166L14063.0962,-3651.524L14063.0915,-3651.5335L14063.0804,-3651.5559L14063.0631,-3651.5826L14063.0494,-3651.6004L14063.0082,-3651.6454L14063.0013,-3651.6528L14062.987,-3651.6708L14062.978,-3651.6803L14062.9599,-3651.6994L14062.901,-3651.7643L14062.8179,-3651.8557L14062.8088,-3651.8658L14062.7823,-3651.8962L14062.7642,-3651.9199L14062.7586,-3651.9298L14062.7501,-3651.9473L14062.7454,-3651.9628L14062.7421,-3651.9795L14062.7399,-3652.0096L14062.7396,-3652.026L14062.7415,-3652.0499L14062.7452,-3652.0674L14062.7509,-3652.0885L14062.7583,-3652.1042L14062.7651,-3652.1186L14062.7804,-3652.1418L14062.7895,-3652.1521L14062.801,-3652.1642L14062.8127,-3652.1751L14062.8411,-3652.1988L14062.8605,-3652.2143L14062.8696,-3652.2227L14062.879,-3652.2308L14062.9247,-3652.2689L14063.0177,-3652.3469L14063.0483,-3652.3728L14063.0821,-3652.4016L14063.1116,-3652.4273L14063.1168,-3652.4311L14063.1696,-3652.4753L14063.1825,-3652.4862L14063.2075,-3652.5073L14063.237,-3652.5321L14063.353,-3652.6341L14063.3913,-3652.6689L14063.4114,-3652.6985L14063.421,-3652.7131L14063.4265,-3652.7226L14063.4338,-3652.7355L14063.4435,-3652.7563L14063.4524,-3652.7753L14063.4925,-3652.8577L14063.5073,-3652.8884L14063.519,-3652.9139L14063.5446,-3652.9664L14063.5631,-3653.0071L14063.5721,-3653.0296L14063.5825,-3653.0601L14063.5894,-3653.0842L14063.5933,-3653.1092L14063.6008,-3653.1396L14063.6083,-3653.1788L14063.6133,-3653.2168L14063.6169,-3653.2587L14063.6219,-3653.3L14063.6266,-3653.3502L14063.6285,-3653.3765L14063.631,-3653.4024L14063.6327,-3653.4169L14063.6364,-3653.4411L14063.6411,-3653.4716L14063.6444,-3653.4921L14063.6468,-3653.5093L14063.651,-3653.5292L14063.6538,-3653.5494L14063.6573,-3653.575L14063.6597,-3653.5949L14063.6602,-3653.6228L14063.6609,-3653.7089L14063.6617,-3653.7841L14063.663,-3653.8357L14063.6742,-3653.8641L14063.708,-3653.924L14063.7225,-3653.9489L14063.7826,-3654.0528L14063.8279,-3654.1299L14063.8434,-3654.1566L14063.8558,-3654.174L14063.8649,-3654.1889L14063.8899,-3654.2411L14063.8999,-3654.258L14063.9417,-3654.3407L14063.9539,-3654.3642L14063.9581,-3654.375L14064.0002,-3654.4595L14063.9329,-3654.4992L14063.8356,-3654.5546L14063.8249,-3654.5609L14063.8114,-3654.5686L14063.8004,-3654.5748L14063.7857,-3654.5822L14063.6878,-3654.6375L14063.6781,-3654.6426L14063.6601,-3654.6533L14063.6163,-3654.6773L14063.5621,-3654.7064L14063.5238,-3654.7277L14063.5085,-3654.7362L14063.4557,-3654.7656L14063.4429,-3654.7733L14063.4374,-3654.7752L14063.4249,-3654.779L14063.3919,-3654.7895L14063.2689,-3654.8352L14063.1943,-3654.8615L14063.1584,-3654.8744L14063.1348,-3654.8829L14063.0789,-3654.9033L14063.0641,-3654.91L14062.9823,-3654.9794L14062.9469,-3655.0107L14063.0816,-3655.1068L14063.0915,-3655.1159L14063.1043,-3655.1331L14063.1127,-3655.1471L14063.1189,-3655.1552L14063.1239,-3655.1605L14063.1387,-3655.1729L14063.1827,-3655.2076L14063.1943,-3655.2139"/>
<path content="1,日立電鉄交通サービス（株）,35　堂平団地～臨海工場前,1.0,1.0,1.0," xlink:title="1" d="M14063.1943,-3655.2139L14063.2058,-3655.2171L14063.2098,-3655.2316"/>
<path content="1,日立電鉄交通サービス（株）,35　堂平団地～臨海工場前,1.0,1.0,1.0," xlink:title="1" d="M14063.1943,-3655.2139L14063.154,-3655.2312L14063.1447,-3655.2323L14063.1708,-3655.2796L14063.2103,-3655.2791L14063.212,-3655.2791L14063.216,-3655.2803L14063.2201,-3655.283L14063.2557,-3655.3108L14063.3004,-3655.3432L14063.3041,-3655.3458L14063.3428,-3655.3726L14063.3644,-3655.3893L14063.3747,-3655.3969L14063.4731,-3655.4677L14063.4905,-3655.4821L14063.5212,-3655.5074L14063.5439,-3655.5267L14063.5556,-3655.5379L14063.5716,-3655.5539L14063.6007,-3655.5879L14063.6097,-3655.5995L14063.6246,-3655.6183L14063.6787,-3655.6928L14063.7136,-3655.7361L14063.737,-3655.7654L14063.7512,-3655.7825L14063.7477,-3655.7888L14063.7422,-3655.8066L14063.7362,-3655.8347L14063.7318,-3655.8631L14063.7312,-3655.8729L14063.7301,-3655.8821L14063.7201,-3655.9495L14063.7143,-3655.9764L14063.7127,-3655.9837L14063.696,-3656.099L14063.6904,-3656.1101L14063.6874,-3656.1288L14063.6665,-3656.25"/>
<path content="1,日立電鉄交通サービス（株）,35　平和台～臨海工場前,1.0,1.0,1.0," xlink:title="1" d="M14062.5,-3650.7166L14062.5759,-3650.689L14062.6208,-3650.6719L14062.6755,-3650.6518L14062.7209,-3650.6347L14062.7573,-3650.6217L14062.8017,-3650.6081L14062.8214,-3650.5979L14062.8502,-3650.5855L14062.8618,-3650.5816L14062.8814,-3650.5776L14062.9002,-3650.6374L14062.9048,-3650.6515L14062.9213,-3650.7016L14062.9594,-3650.8172L14062.9651,-3650.8326L14062.9707,-3650.8502L14062.9883,-3650.9031L14063.0147,-3650.9878L14063.0237,-3651.0082L14063.0312,-3651.0439L14063.0391,-3651.0695L14063.05,-3651.1043L14063.0616,-3651.1417L14063.0642,-3651.1573L14063.0715,-3651.1848L14063.0766,-3651.2018L14063.0795,-3651.2113L14063.0825,-3651.2218L14063.0978,-3651.2649L14063.1013,-3651.2881L14063.1064,-3651.3099L14063.1092,-3651.3294L14063.1132,-3651.3703L14063.1134,-3651.3842L14063.1135,-3651.3942L14063.1134,-3651.4121L14063.1112,-3651.4422L14063.1101,-3651.4546L14063.102,-3651.5083L14063.0994,-3651.5166L14063.0962,-3651.524L14063.0915,-3651.5335L14063.0804,-3651.5559L14063.0631,-3651.5826L14063.0494,-3651.6004L14063.0082,-3651.6454L14063.0013,-3651.6528L14062.987,-3651.6708L14062.978,-3651.6803L14062.9599,-3651.6994L14062.901,-3651.7643L14062.8179,-3651.8557L14062.8088,-3651.8658L14062.7823,-3651.8962L14062.7642,-3651.9199L14062.7586,-3651.9298L14062.7501,-3651.9473L14062.7454,-3651.9628L14062.7421,-3651.9795L14062.7399,-3652.0096L14062.7396,-3652.026L14062.7415,-3652.0499L14062.7452,-3652.0674L14062.7509,-3652.0885L14062.7583,-3652.1042L14062.7651,-3652.1186L14062.7804,-3652.1418L14062.7895,-3652.1521L14062.801,-3652.1642L14062.8127,-3652.1751L14062.8411,-3652.1988L14062.8605,-3652.2143L14062.8696,-3652.2227L14062.879,-3652.2308L14062.9247,-3652.2689L14063.0177,-3652.3469L14063.0483,-3652.3728L14063.0821,-3652.4016L14063.1116,-3652.4273L14063.1168,-3652.4311L14063.1696,-3652.4753L14063.1825,-3652.4862L14063.2075,-3652.5073L14063.237,-3652.5321L14063.353,-3652.6341L14063.3913,-3652.6689L14063.4114,-3652.6985L14063.421,-3652.7131L14063.4265,-3652.7226L14063.4338,-3652.7355L14063.4435,-3652.7563L14063.4524,-3652.7753L14063.4925,-3652.8577L14063.5073,-3652.8884L14063.519,-3652.9139L14063.5446,-3652.9664L14063.5631,-3653.0071L14063.5721,-3653.0296L14063.5825,-3653.0601L14063.5894,-3653.0842L14063.5933,-3653.1092L14063.6008,-3653.1396L14063.6083,-3653.1788L14063.6133,-3653.2168L14063.6169,-3653.2587L14063.6219,-3653.3L14063.6266,-3653.3502L14063.6285,-3653.3765L14063.631,-3653.4024L14063.6327,-3653.4169L14063.6364,-3653.4411L14063.6411,-3653.4716L14063.6444,-3653.4921L14063.6468,-3653.5093L14063.651,-3653.5292L14063.6538,-3653.5494L14063.6573,-3653.575L14063.6597,-3653.5949L14063.6602,-3653.6228L14063.6609,-3653.7089L14063.6617,-3653.7841L14063.663,-3653.8357L14063.6742,-3653.8641L14063.708,-3653.924L14063.7225,-3653.9489L14063.7826,-3654.0528L14063.8279,-3654.1299L14063.8434,-3654.1566L14063.8558,-3654.174L14063.8649,-3654.1889L14063.8899,-3654.2411L14063.8999,-3654.258L14063.9417,-3654.3407L14063.9539,-3654.3642L14063.9581,-3654.375L14064.0002,-3654.4595L14063.9329,-3654.4992L14063.8356,-3654.5546L14063.8249,-3654.5609L14063.8114,-3654.5686L14063.8004,-3654.5748L14063.7857,-3654.5822L14063.6878,-3654.6375L14063.6781,-3654.6426L14063.6601,-3654.6533L14063.6163,-3654.6773L14063.5621,-3654.7064L14063.5238,-3654.7277L14063.5085,-3654.7362L14063.4557,-3654.7656L14063.4429,-3654.7733L14063.4374,-3654.7752L14063.4249,-3654.779L14063.3919,-3654.7895L14063.2689,-3654.8352L14063.1943,-3654.8615L14063.1584,-3654.8744L14063.1348,-3654.8829L14063.0789,-3654.9033L14063.0641,-3654.91L14062.9823,-3654.9794L14062.9469,-3655.0107L14063.0816,-3655.1068L14063.0915,-3655.1159L14063.1043,-3655.1331L14063.1127,-3655.1471L14063.1189,-3655.1552L14063.1239,-3655.1605L14063.1387,-3655.1729L14063.1827,-3655.2076L14063.1943,-3655.2139"/>
<path content="1,日立電鉄交通サービス（株）,35　平和台～臨海工場前,1.0,1.0,1.0," xlink:title="1" d="M14063.1943,-3655.2139L14063.2058,-3655.2171L14063.2098,-3655.2316"/>
<path content="1,日立電鉄交通サービス（株）,35　平和台～臨海工場前,1.0,1.0,1.0," xlink:title="1" d="M14063.1943,-3655.2139L14063.154,-3655.2312L14063.1447,-3655.2323L14063.1708,-3655.2796L14063.1646,-3655.2849L14063.1626,-3655.2867L14063.1292,-3655.3163L14063.1002,-3655.3427L14063.0891,-3655.3528L14063.085,-3655.3582L14063.0835,-3655.3603L14063.0605,-3655.3791L14063.0451,-3655.3922L14062.9909,-3655.4387L14062.9821,-3655.4474L14062.95,-3655.4758L14062.9188,-3655.5013L14062.9167,-3655.5031L14062.8289,-3655.5804L14062.8018,-3655.6039L14062.7881,-3655.617L14062.7716,-3655.6336L14062.7486,-3655.6552L14062.7438,-3655.6589L14062.7395,-3655.6601L14062.7392,-3655.6759L14062.7393,-3655.7032L14062.7389,-3655.7309L14062.7385,-3655.7551L14062.7376,-3655.7987L14062.7365,-3655.828L14062.7363,-3655.854L14062.7367,-3655.8731L14062.7378,-3655.8834L14062.7402,-3655.9457L14062.7447,-3656.0276L14062.7466,-3656.1095L14062.7468,-3656.1179L14062.7472,-3656.1427L14062.7491,-3656.2419L14062.7493,-3656.25"/>
<path content="1,日立電鉄交通サービス（株）,3・4　中央線,39.4,27.0,27.0," xlink:title="1" d="M14063.1708,-3655.2796L14063.2098,-3655.2316"/>
<path content="1,日立電鉄交通サービス（株）,3・4　中央線,39.4,27.0,27.0," xlink:title="1" d="M14063.1708,-3655.2796L14063.1646,-3655.2849L14063.1626,-3655.2867L14063.1292,-3655.3163L14063.1002,-3655.3427L14063.0891,-3655.3528L14063.085,-3655.3582L14063.0835,-3655.3603L14063.0605,-3655.3791L14063.0451,-3655.3922L14062.9909,-3655.4387L14062.9821,-3655.4474L14062.95,-3655.4758L14062.9188,-3655.5013L14062.9167,-3655.5031L14062.8289,-3655.5804L14062.8018,-3655.6039L14062.7881,-3655.617L14062.7716,-3655.6336L14062.7486,-3655.6552L14062.7438,-3655.6589L14062.7395,-3655.6601L14062.7392,-3655.6759L14062.7393,-3655.7032L14062.7389,-3655.7309L14062.7385,-3655.7551L14062.7376,-3655.7987L14062.7365,-3655.828L14062.7363,-3655.854L14062.7367,-3655.8731L14062.7378,-3655.8834L14062.7402,-3655.9457L14062.7447,-3656.0276L14062.7466,-3656.1095L14062.7468,-3656.1179L14062.7472,-3656.1427L14062.7491,-3656.2419L14062.7493,-3656.25"/>
<path content="1,日立電鉄交通サービス（株）,3・4　中央線,39.4,27.0,27.0," xlink:title="1" d="M14063.7512,-3655.7825L14063.737,-3655.7654L14063.7136,-3655.7361L14063.6787,-3655.6928L14063.6246,-3655.6183L14063.6097,-3655.5995L14063.6007,-3655.5879L14063.5716,-3655.5539L14063.5556,-3655.5379L14063.5439,-3655.5267L14063.5212,-3655.5074L14063.4905,-3655.4821L14063.4731,-3655.4677L14063.3747,-3655.3969L14063.3644,-3655.3893L14063.3428,-3655.3726L14063.3041,-3655.3458L14063.3004,-3655.3432L14063.2557,-3655.3108L14063.2201,-3655.283L14063.216,-3655.2803L14063.212,-3655.2791L14063.2103,-3655.2791L14063.1708,-3655.2796"/>
<path content="1,日立電鉄交通サービス（株）,3・4　中央線,39.4,27.0,27.0," xlink:title="1" d="M14063.6665,-3656.25L14063.6874,-3656.1288L14063.6904,-3656.1101L14063.696,-3656.099L14063.7127,-3655.9837L14063.7143,-3655.9764L14063.7201,-3655.9495L14063.7301,-3655.8821L14063.7312,-3655.8729L14063.7318,-3655.8631L14063.7362,-3655.8347L14063.7422,-3655.8066L14063.7477,-3655.7888L14063.7512,-3655.7825"/>
<path content="1,日立電鉄交通サービス（株）,3・4　中央線,39.4,27.0,27.0," xlink:title="1" d="M14063.976,-3656.25L14063.9553,-3656.2326L14063.9336,-3656.2176L14063.9218,-3656.2089L14063.9136,-3656.2002L14063.9078,-3656.1929L14063.9042,-3656.1864L14063.9016,-3656.1785L14063.9007,-3656.1639L14063.9014,-3656.1542L14063.9046,-3656.1408L14063.9229,-3656.0789L14063.9236,-3656.0704L14063.9227,-3656.0599L14063.9207,-3656.0548L14063.9133,-3656.0456L14063.8776,-3656.0113L14063.869,-3656.0006L14063.8615,-3655.9882L14063.8584,-3655.9776L14063.8548,-3655.9583L14063.8517,-3655.9448L14063.847,-3655.9321L14063.8395,-3655.9176L14063.8223,-3655.8903L14063.8081,-3655.8673L14063.7597,-3655.7912L14063.7512,-3655.7825"/>
<path content="1,日立電鉄交通サービス（株）,41省　多賀市民プラザ経由,1.0,0.0,0.0," xlink:title="1" d="M14063.2098,-3655.2316L14063.1708,-3655.2796L14063.1626,-3655.2867L14063.1292,-3655.3163L14063.1002,-3655.3427L14063.0891,-3655.3528L14063.085,-3655.3582L14063.0835,-3655.3603L14063.0605,-3655.3791L14063.0451,-3655.3922L14062.9909,-3655.4387L14062.9821,-3655.4474L14062.95,-3655.4758L14062.9188,-3655.5013L14062.9167,-3655.5031L14062.8289,-3655.5804L14062.8018,-3655.6039L14062.7881,-3655.617L14062.8073,-3655.6308L14062.8401,-3655.6554L14062.8872,-3655.6908L14062.8919,-3655.6943L14062.957,-3655.7431L14062.9939,-3655.7707L14063.0541,-3655.8157L14063.1131,-3655.8567L14063.1662,-3655.8958L14063.2231,-3655.9394L14063.2384,-3655.9507L14063.2609,-3655.9665L14063.31,-3656.0018L14063.3449,-3656.0267L14063.3702,-3656.0476L14063.397,-3656.0663L14063.4196,-3656.0831L14063.4341,-3656.0942L14063.4898,-3656.1338L14063.5751,-3656.1963L14063.6471,-3656.25"/>
<path content="1,日立電鉄交通サービス（株）,4省,999.9,999.9,999.9," xlink:title="1" d="M14063.1708,-3655.2796L14063.2098,-3655.2316"/>
<path content="1,日立電鉄交通サービス（株）,4省,999.9,999.9,999.9," xlink:title="1" d="M14063.1708,-3655.2796L14063.2103,-3655.2791L14063.212,-3655.2791L14063.216,-3655.2803L14063.2201,-3655.283L14063.2557,-3655.3108L14063.3004,-3655.3432L14063.3041,-3655.3458L14063.3428,-3655.3726L14063.3644,-3655.3893L14063.3747,-3655.3969L14063.4731,-3655.4677L14063.4905,-3655.4821L14063.5212,-3655.5074L14063.5439,-3655.5267L14063.5556,-3655.5379L14063.5716,-3655.5539L14063.6007,-3655.5879L14063.6097,-3655.5995L14063.6246,-3655.6183L14063.6787,-3655.6928L14063.7136,-3655.7361L14063.737,-3655.7654L14063.7512,-3655.7825L14063.7477,-3655.7888L14063.7422,-3655.8066L14063.7362,-3655.8347L14063.7318,-3655.8631L14063.7312,-3655.8729L14063.7301,-3655.8821L14063.7201,-3655.9495L14063.7143,-3655.9764L14063.7127,-3655.9837L14063.696,-3656.099L14063.6904,-3656.1101L14063.6874,-3656.1288L14063.6665,-3656.25"/>
<path content="1,日立電鉄交通サービス（株）,4省,999.9,999.9,999.9," xlink:title="1" d="M14062.7493,-3656.25L14062.7491,-3656.2419L14062.7472,-3656.1427L14062.7468,-3656.1179L14062.7466,-3656.1095L14062.7447,-3656.0276L14062.7402,-3655.9457L14062.7378,-3655.8834L14062.7367,-3655.8731L14062.7363,-3655.854L14062.7365,-3655.828L14062.7376,-3655.7987L14062.7385,-3655.7551L14062.7389,-3655.7309L14062.7393,-3655.7032L14062.7392,-3655.6759L14062.7395,-3655.6601L14062.7438,-3655.6589L14062.7486,-3655.6552L14062.7716,-3655.6336L14062.7881,-3655.617L14062.8018,-3655.6039L14062.8289,-3655.5804L14062.9167,-3655.5031L14062.9188,-3655.5013L14062.95,-3655.4758L14062.9821,-3655.4474L14062.9909,-3655.4387L14063.0451,-3655.3922L14063.0605,-3655.3791L14063.0835,-3655.3603L14063.085,-3655.3582L14063.0891,-3655.3528L14063.1002,-3655.3427L14063.1292,-3655.3163L14063.1626,-3655.2867L14063.1646,-3655.2849L14063.1708,-3655.2796"/>
<path content="1,日立電鉄交通サービス（株）,5,2.0,0.0,0.0," xlink:title="1" d="M14063.2098,-3655.2316L14063.1708,-3655.2796L14063.2103,-3655.2791L14063.212,-3655.2791L14063.216,-3655.2803L14063.2201,-3655.283L14063.2557,-3655.3108L14063.3004,-3655.3432L14063.3041,-3655.3458L14063.3428,-3655.3726L14063.3644,-3655.3893L14063.3747,-3655.3969L14063.4731,-3655.4677L14063.4905,-3655.4821L14063.5212,-3655.5074L14063.5439,-3655.5267L14063.5556,-3655.5379L14063.5716,-3655.5539L14063.6007,-3655.5879L14063.6097,-3655.5995L14063.6246,-3655.6183L14063.6787,-3655.6928L14063.7136,-3655.7361L14063.737,-3655.7654L14063.7512,-3655.7825L14063.7477,-3655.7888L14063.7422,-3655.8066L14063.7362,-3655.8347L14063.7318,-3655.8631L14063.7312,-3655.8729L14063.7301,-3655.8821L14063.7201,-3655.9495L14063.7143,-3655.9764L14063.7127,-3655.9837L14063.696,-3656.099L14063.6904,-3656.1101L14063.6874,-3656.1288L14063.6665,-3656.25"/>
<path content="1,日立電鉄交通サービス（株）,54,2.0,0.0,0.0," xlink:title="1" d="M14063.2098,-3655.2316L14063.1708,-3655.2796L14063.1626,-3655.2867L14063.1292,-3655.3163L14063.1002,-3655.3427L14063.0891,-3655.3528L14063.085,-3655.3582L14063.0835,-3655.3603L14063.0605,-3655.3791L14063.0451,-3655.3922L14062.9909,-3655.4387L14062.9821,-3655.4474L14062.95,-3655.4758L14062.9188,-3655.5013L14062.9167,-3655.5031L14062.8289,-3655.5804L14062.8018,-3655.6039L14062.7881,-3655.617L14062.8073,-3655.6308L14062.8401,-3655.6554L14062.8872,-3655.6908L14062.8919,-3655.6943L14062.957,-3655.7431L14062.9939,-3655.7707L14063.0541,-3655.8157L14063.1131,-3655.8567L14063.1662,-3655.8958L14063.2231,-3655.9394L14063.2384,-3655.9507L14063.2609,-3655.9665L14063.31,-3656.0018L14063.3449,-3656.0267L14063.3702,-3656.0476L14063.397,-3656.0663L14063.4196,-3656.0831L14063.4341,-3656.0942L14063.4898,-3656.1338L14063.5751,-3656.1963L14063.6471,-3656.25"/>
<path content="1,日立電鉄交通サービス（株）,56,10.5,0.0,0.0," xlink:title="1" d="M14062.5,-3650.7166L14062.5759,-3650.689L14062.6208,-3650.6719L14062.6755,-3650.6518L14062.7209,-3650.6347L14062.7573,-3650.6217L14062.8017,-3650.6081"/>
<path content="1,日立電鉄交通サービス（株）,59,1.0,0.0,0.0," xlink:title="1" d="M14062.5,-3651.2003L14062.5024,-3651.2001L14062.5668,-3651.1955L14062.5784,-3651.1938L14062.5857,-3651.1916L14062.6117,-3651.1886L14062.6749,-3651.1844L14062.716,-3651.1822L14062.7458,-3651.1802L14062.7709,-3651.1787L14062.7801,-3651.1781L14062.8922,-3651.1701L14062.9464,-3651.1664L14063.0001,-3651.1633L14063.0237,-3651.1618L14063.0442,-3651.1601L14063.0642,-3651.1573L14063.0616,-3651.1417L14063.05,-3651.1043L14063.0391,-3651.0695L14063.0312,-3651.0439L14063.0237,-3651.0082L14063.0147,-3650.9878L14062.9883,-3650.9031L14062.9707,-3650.8502L14062.9651,-3650.8326L14062.9594,-3650.8172L14062.9213,-3650.7016L14062.9048,-3650.6515L14062.9002,-3650.6374L14062.8814,-3650.5776L14062.8618,-3650.5816L14062.8502,-3650.5855L14062.8214,-3650.5979L14062.8017,-3650.6081L14062.7573,-3650.6217L14062.7209,-3650.6347L14062.6755,-3650.6518L14062.6208,-3650.6719L14062.5759,-3650.689L14062.5,-3650.7166"/>
<path content="1,日立電鉄交通サービス（株）,69　久慈コミセン前～日立駅中央口,7.0,2.0,2.0," xlink:title="1" d="M14062.5,-3651.2003L14062.5024,-3651.2001L14062.5668,-3651.1955L14062.5784,-3651.1938L14062.5857,-3651.1916L14062.6117,-3651.1886L14062.6749,-3651.1844L14062.716,-3651.1822L14062.7458,-3651.1802L14062.7709,-3651.1787L14062.7801,-3651.1781L14062.8922,-3651.1701L14062.9464,-3651.1664L14063.0001,-3651.1633L14063.0237,-3651.1618L14063.0442,-3651.1601L14063.0642,-3651.1573L14063.0715,-3651.1848L14063.0766,-3651.2018L14063.0795,-3651.2113L14063.0825,-3651.2218L14063.0978,-3651.2649L14063.1013,-3651.2881L14063.1064,-3651.3099L14063.1092,-3651.3294L14063.1132,-3651.3703L14063.1134,-3651.3842L14063.1135,-3651.3942L14063.1134,-3651.4121L14063.1112,-3651.4422L14063.1101,-3651.4546L14063.102,-3651.5083L14063.0994,-3651.5166L14063.0962,-3651.524L14063.0915,-3651.5335L14063.0804,-3651.5559L14063.0631,-3651.5826L14063.0494,-3651.6004L14063.0082,-3651.6454L14063.0013,-3651.6528L14062.987,-3651.6708L14062.978,-3651.6803L14062.9599,-3651.6994L14062.901,-3651.7643L14062.8179,-3651.8557L14062.8088,-3651.8658L14062.7823,-3651.8962L14062.7642,-3651.9199L14062.7586,-3651.9298L14062.7501,-3651.9473L14062.7454,-3651.9628L14062.7421,-3651.9795L14062.7399,-3652.0096L14062.7396,-3652.026L14062.7415,-3652.0499L14062.7452,-3652.0674L14062.7509,-3652.0885L14062.7583,-3652.1042L14062.7651,-3652.1186L14062.7804,-3652.1418L14062.7895,-3652.1521L14062.801,-3652.1642L14062.8127,-3652.1751L14062.8411,-3652.1988L14062.8605,-3652.2143L14062.8696,-3652.2227L14062.879,-3652.2308L14062.9247,-3652.2689L14063.0177,-3652.3469L14063.0483,-3652.3728L14063.0821,-3652.4016L14063.1116,-3652.4273L14063.1168,-3652.4311L14063.1696,-3652.4753L14063.1825,-3652.4862L14063.2075,-3652.5073L14063.237,-3652.5321L14063.353,-3652.6341L14063.3913,-3652.6689L14063.4114,-3652.6985L14063.421,-3652.7131L14063.4265,-3652.7226L14063.4338,-3652.7355L14063.4435,-3652.7563L14063.4524,-3652.7753L14063.4925,-3652.8577L14063.5073,-3652.8884L14063.519,-3652.9139L14063.5446,-3652.9664L14063.5631,-3653.0071L14063.5721,-3653.0296L14063.5825,-3653.0601L14063.5894,-3653.0842L14063.5933,-3653.1092L14063.6008,-3653.1396L14063.6083,-3653.1788L14063.6133,-3653.2168L14063.6169,-3653.2587L14063.6219,-3653.3L14063.6266,-3653.3502L14063.6285,-3653.3765L14063.631,-3653.4024L14063.6327,-3653.4169L14063.6364,-3653.4411L14063.6411,-3653.4716L14063.6444,-3653.4921L14063.6468,-3653.5093L14063.651,-3653.5292L14063.6538,-3653.5494L14063.6573,-3653.575L14063.6597,-3653.5949L14063.6602,-3653.6228L14063.6609,-3653.7089L14063.6617,-3653.7841L14063.663,-3653.8357L14063.6548,-3653.8355L14063.645,-3653.8381L14063.5993,-3653.8539L14063.5934,-3653.8557L14063.5754,-3653.8611L14063.5638,-3653.8632L14063.5516,-3653.8644L14063.5232,-3653.8649L14063.4566,-3653.8651L14063.4254,-3653.8646L14063.4097,-3653.8659L14063.3929,-3653.8659L14063.3567,-3653.8694L14063.2917,-3653.8771L14063.2821,-3653.8784L14063.2461,-3653.8835L14063.2265,-3653.8849L14063.1823,-3653.8888L14063.0902,-3653.8967L14063.022,-3653.9031L14063.0159,-3653.9035L14062.9599,-3653.9094L14062.9964,-3653.9839L14063.0653,-3654.1164L14063.085,-3654.1579L14063.0992,-3654.1873L14063.1061,-3654.2014L14063.1472,-3654.2788L14063.1694,-3654.3092L14063.2147,-3654.3743L14063.2277,-3654.3928L14063.2311,-3654.3973L14063.2342,-3654.4017L14063.2455,-3654.4171L14063.2544,-3654.4206L14063.2688,-3654.4256L14063.3165,-3654.4419L14063.3432,-3654.4504L14063.3559,-3654.454L14063.3604,-3654.4562L14063.3661,-3654.4608L14063.3805,-3654.4742L14063.3872,-3654.4813L14063.4019,-3654.4979L14063.4385,-3654.5514L14063.5049,-3654.6308L14063.518,-3654.6463L14063.5557,-3654.6968L14063.5621,-3654.7064L14063.5238,-3654.7277L14063.5085,-3654.7362L14063.4557,-3654.7656L14063.4429,-3654.7733L14063.4374,-3654.7752L14063.4249,-3654.779L14063.3919,-3654.7895L14063.2689,-3654.8352L14063.1943,-3654.8615L14063.1584,-3654.8744L14063.1348,-3654.8829L14063.0789,-3654.9033L14063.0641,-3654.91L14062.9823,-3654.9794L14062.9469,-3655.0107L14063.0816,-3655.1068L14063.0915,-3655.1159L14063.1043,-3655.1331L14063.1127,-3655.1471L14063.1189,-3655.1552L14063.1239,-3655.1605L14063.1387,-3655.1729L14063.1827,-3655.2076L14063.1943,-3655.2139"/>
<path content="1,日立電鉄交通サービス（株）,69　久慈コミセン前～日立駅中央口,7.0,2.0,2.0," xlink:title="1" d="M14063.1943,-3655.2139L14063.2058,-3655.2171L14063.2098,-3655.2316"/>
<path content="1,日立電鉄交通サービス（株）,69　久慈コミセン前～日立駅中央口,7.0,2.0,2.0," xlink:title="1" d="M14063.1943,-3655.2139L14063.154,-3655.2312L14063.1447,-3655.2323L14063.1708,-3655.2796L14063.2103,-3655.2791L14063.212,-3655.2791L14063.216,-3655.2803L14063.2201,-3655.283L14063.2557,-3655.3108L14063.3004,-3655.3432L14063.3041,-3655.3458L14063.3428,-3655.3726L14063.3644,-3655.3893L14063.3747,-3655.3969L14063.4731,-3655.4677L14063.4905,-3655.4821L14063.5212,-3655.5074L14063.5439,-3655.5267L14063.5556,-3655.5379L14063.5716,-3655.5539L14063.6007,-3655.5879L14063.6097,-3655.5995L14063.6246,-3655.6183L14063.6787,-3655.6928L14063.7136,-3655.7361L14063.737,-3655.7654L14063.7512,-3655.7825L14063.7585,-3655.7734L14063.7896,-3655.7403L14063.8007,-3655.7283L14063.8136,-3655.7151L14063.8242,-3655.7017L14063.8274,-3655.6983L14063.8499,-3655.6739L14063.865,-3655.658L14063.8741,-3655.6469L14063.8917,-3655.6292L14063.9192,-3655.5982L14063.9626,-3655.5571L14063.9788,-3655.5371L14063.9855,-3655.5301L14063.994,-3655.5226L14064.0099,-3655.5075L14064.0684,-3655.4498L14064.0887,-3655.4311L14064.1113,-3655.4112L14064.1364,-3655.3877L14064.1584,-3655.3693L14064.2119,-3655.3277L14064.2336,-3655.3271L14064.239,-3655.3273L14064.2458,-3655.3285L14064.2522,-3655.3306L14064.2575,-3655.3337L14064.2628,-3655.3373L14064.2706,-3655.3438L14064.2769,-3655.3541L14064.2822,-3655.3586L14064.3158,-3655.4084L14064.3764,-3655.4972L14064.4221,-3655.5721L14064.4387,-3655.6052L14064.4562,-3655.6399L14064.5066,-3655.751L14064.5511,-3655.876L14064.5571,-3655.8929L14064.5643,-3655.9261L14064.5738,-3655.9733L14064.5829,-3656.0674L14064.5864,-3656.1027L14064.5874,-3656.1129L14064.5979,-3656.25"/>
<path content="1,日立電鉄交通サービス（株）,6　日立駅～多賀駅,1.5,2.0,2.0," xlink:title="1" d="M14063.2098,-3655.2316L14063.1708,-3655.2796L14063.2103,-3655.2791L14063.212,-3655.2791L14063.216,-3655.2803L14063.2201,-3655.283L14063.2557,-3655.3108L14063.3004,-3655.3432L14063.3041,-3655.3458L14063.3428,-3655.3726L14063.3644,-3655.3893L14063.3747,-3655.3969L14063.4731,-3655.4677L14063.4905,-3655.4821L14063.5212,-3655.5074L14063.5439,-3655.5267L14063.5556,-3655.5379L14063.5716,-3655.5539L14063.6007,-3655.5879L14063.6097,-3655.5995L14063.6246,-3655.6183L14063.6787,-3655.6928L14063.7136,-3655.7361L14063.737,-3655.7654L14063.7512,-3655.7825L14063.7477,-3655.7888L14063.7422,-3655.8066L14063.7362,-3655.8347L14063.7318,-3655.8631L14063.7312,-3655.8729L14063.7301,-3655.8821L14063.7201,-3655.9495L14063.7143,-3655.9764L14063.7127,-3655.9837L14063.696,-3656.099L14063.6904,-3656.1101L14063.6874,-3656.1288L14063.6665,-3656.25"/>
<path content="1,日立電鉄交通サービス（株）,8　馬場八幡前～多賀駅前,20.5,11.5,11.5," xlink:title="1" d="M14062.5,-3651.2003L14062.5024,-3651.2001L14062.5668,-3651.1955L14062.5784,-3651.1938L14062.5857,-3651.1916L14062.6117,-3651.1886L14062.6749,-3651.1844L14062.716,-3651.1822L14062.7458,-3651.1802L14062.7709,-3651.1787L14062.7801,-3651.1781L14062.8922,-3651.1701L14062.9464,-3651.1664L14063.0001,-3651.1633L14063.0237,-3651.1618L14063.0442,-3651.1601L14063.0642,-3651.1573L14063.0715,-3651.1848L14063.0766,-3651.2018L14063.0795,-3651.2113L14063.0825,-3651.2218L14063.0978,-3651.2649L14063.1013,-3651.2881L14063.1064,-3651.3099L14063.1092,-3651.3294L14063.1132,-3651.3703L14063.1134,-3651.3842L14063.1135,-3651.3942L14063.1134,-3651.4121L14063.1112,-3651.4422L14063.1101,-3651.4546L14063.102,-3651.5083L14063.0994,-3651.5166L14063.0962,-3651.524L14063.0915,-3651.5335L14063.0804,-3651.5559L14063.0631,-3651.5826L14063.0494,-3651.6004L14063.0082,-3651.6454L14063.0013,-3651.6528L14062.987,-3651.6708L14062.978,-3651.6803L14062.9599,-3651.6994L14062.901,-3651.7643L14062.8179,-3651.8557L14062.8088,-3651.8658L14062.7823,-3651.8962L14062.7642,-3651.9199L14062.7586,-3651.9298L14062.7501,-3651.9473L14062.7454,-3651.9628L14062.7421,-3651.9795L14062.7399,-3652.0096L14062.7396,-3652.026L14062.7415,-3652.0499L14062.7452,-3652.0674L14062.7509,-3652.0885L14062.7583,-3652.1042L14062.7651,-3652.1186L14062.7804,-3652.1418L14062.7895,-3652.1521L14062.801,-3652.1642L14062.8127,-3652.1751L14062.8411,-3652.1988L14062.8605,-3652.2143L14062.8696,-3652.2227L14062.879,-3652.2308L14062.9247,-3652.2689L14063.0177,-3652.3469L14063.0014,-3652.3548L14062.9853,-3652.3622L14062.9718,-3652.3672L14062.9507,-3652.3732L14062.8283,-3652.4069L14062.8069,-3652.4118L14062.7779,-3652.4204L14062.7399,-3652.4322L14062.7032,-3652.4468L14062.6479,-3652.4671L14062.6266,-3652.4759L14062.6104,-3652.4821L14062.6045,-3652.4849L14062.614,-3652.5034L14062.6162,-3652.5059L14062.6238,-3652.5151L14062.627,-3652.5191L14062.6252,-3652.5202L14062.6326,-3652.5333L14062.6674,-3652.6061L14062.702,-3652.676L14062.7117,-3652.6964L14062.7479,-3652.774L14062.7776,-3652.8354L14062.7921,-3652.866L14062.8552,-3652.9991L14062.8784,-3653.0445L14062.8976,-3653.0673L14062.9035,-3653.0959L14062.97,-3653.2337L14062.9946,-3653.2836L14062.9947,-3653.3318L14062.9946,-3653.3383L14062.9938,-3653.3441L14062.9925,-3653.3476L14062.9898,-3653.3514L14062.9836,-3653.3561L14062.964,-3653.3666L14062.9586,-3653.3687L14062.8705,-3653.4188L14062.8559,-3653.4249L14062.8476,-3653.4298L14062.8329,-3653.4376L14062.8048,-3653.4558L14062.7556,-3653.4955L14062.7501,-3653.5013L14062.7425,-3653.5082L14062.7319,-3653.5185L14062.7211,-3653.5275L14062.7148,-3653.5319L14062.7087,-3653.535L14062.7016,-3653.5377L14062.6944,-3653.5402L14062.685,-3653.5423L14062.6758,-3653.544L14062.6631,-3653.5477L14062.563,-3653.5663L14062.5559,-3653.5985L14062.5522,-3653.6151L14062.5423,-3653.6661L14062.5318,-3653.7182L14062.5313,-3653.7277L14062.532,-3653.7473L14062.5351,-3653.7686L14062.5387,-3653.7814L14062.5525,-3653.8346L14062.5604,-3653.8632L14062.5858,-3653.9474L14062.6047,-3654.0127L14062.6207,-3654.0725L14062.6323,-3654.1063L14062.6427,-3654.1429L14062.6633,-3654.2159L14062.6826,-3654.2802L14062.6866,-3654.2937L14062.6908,-3654.3073L14062.6954,-3654.3234L14062.7192,-3654.403L14062.7377,-3654.465L14062.7445,-3654.4919L14062.764,-3654.563L14062.7668,-3654.571L14062.7503,-3654.5794L14062.6968,-3654.6106L14062.6732,-3654.6221L14062.6197,-3654.6436L14062.5675,-3654.6636L14062.5179,-3654.6803L14062.5019,-3654.684L14062.5,-3654.6842"/>
<path content="1,日立電鉄交通サービス（株）,8　馬場八幡前～多賀駅前,20.5,11.5,11.5," xlink:title="1" d="M14062.5,-3655.4042L14062.5093,-3655.4114L14062.5164,-3655.4186L14062.6041,-3655.4831L14062.6116,-3655.4879L14062.6375,-3655.5079L14062.6673,-3655.5292L14062.6767,-3655.5351L14062.6861,-3655.5419L14062.7068,-3655.5576L14062.7561,-3655.5946L14062.7635,-3655.6002L14062.7692,-3655.6041L14062.7881,-3655.617L14062.8018,-3655.6039L14062.8289,-3655.5804L14062.9167,-3655.5031L14062.9188,-3655.5013L14062.95,-3655.4758L14062.9821,-3655.4474L14062.9909,-3655.4387L14063.0451,-3655.3922L14063.0605,-3655.3791L14063.0835,-3655.3603L14063.085,-3655.3582L14063.0891,-3655.3528L14063.1002,-3655.3427L14063.1292,-3655.3163L14063.1626,-3655.2867L14063.1646,-3655.2849L14063.1708,-3655.2796L14063.2098,-3655.2316"/>
<path content="1,日立電鉄交通サービス（株）,94　真弓ヶ丘～大甕工場前,28.0,21.5,21.5," xlink:title="1" d="M14063.0642,-3651.1573L14063.0616,-3651.1417L14063.05,-3651.1043L14063.0391,-3651.0695L14063.0312,-3651.0439L14063.0237,-3651.0082L14063.0147,-3650.9878L14062.9883,-3650.9031L14062.9707,-3650.8502L14062.9651,-3650.8326L14062.9594,-3650.8172L14062.9213,-3650.7016L14062.9048,-3650.6515L14062.9002,-3650.6374L14062.8814,-3650.5776L14062.8618,-3650.5816L14062.8502,-3650.5855L14062.8214,-3650.5979L14062.8017,-3650.6081"/>
<path content="1,日立電鉄交通サービス（株）,94　真弓ヶ丘～大甕工場前,28.0,21.5,21.5," xlink:title="1" d="M14063.0642,-3651.1573L14063.0442,-3651.1601L14063.0237,-3651.1618L14063.0001,-3651.1633L14062.9464,-3651.1664L14062.8922,-3651.1701L14062.7801,-3651.1781L14062.7709,-3651.1787L14062.7458,-3651.1802L14062.716,-3651.1822L14062.6749,-3651.1844L14062.6117,-3651.1886L14062.5857,-3651.1916L14062.5784,-3651.1938L14062.5668,-3651.1955L14062.5024,-3651.2001L14062.5,-3651.2003"/>
<path content="1,日立電鉄交通サービス（株）,94　真弓ヶ丘～大甕工場前,28.0,21.5,21.5," xlink:title="1" d="M14063.0978,-3651.2649L14063.0825,-3651.2218L14063.0795,-3651.2113L14063.0766,-3651.2018L14063.0715,-3651.1848L14063.0642,-3651.1573"/>
<path content="1,日立電鉄交通サービス（株）,96,3.5,0.0,0.0," xlink:title="1" d="M14062.8017,-3650.6081L14062.7573,-3650.6217L14062.7209,-3650.6347L14062.6755,-3650.6518L14062.6208,-3650.6719L14062.5759,-3650.689L14062.5,-3650.7166"/>
<path content="1,日立電鉄交通サービス（株）,99（139）,3.0,2.0,2.0," xlink:title="1" d="M14062.5784,-3651.1938L14062.5857,-3651.1916L14062.6117,-3651.1886L14062.6749,-3651.1844L14062.716,-3651.1822L14062.7458,-3651.1802L14062.7709,-3651.1787"/>
<path content="1,日立電鉄交通サービス（株）,99（139）,3.0,2.0,2.0," xlink:title="1" d="M14062.5784,-3651.1938L14062.5811,-3651.2228L14062.5836,-3651.2543L14062.5942,-3651.3537L14062.6015,-3651.3708L14062.6401,-3651.4512L14062.6454,-3651.4639L14062.6745,-3651.5133L14062.6743,-3651.5197L14062.704,-3651.5693L14062.7173,-3651.5952L14062.6571,-3651.5843L14062.5411,-3651.5625L14062.5136,-3651.5568L14062.5,-3651.554"/>
<path content="1,日立電鉄交通サービス（株）,99（139）,3.0,2.0,2.0," xlink:title="1" d="M14062.5,-3651.2003L14062.5024,-3651.2001L14062.5668,-3651.1955L14062.5784,-3651.1938"/>
<path content="1,日立電鉄交通サービス（株）,99（140）,3.0,2.0,2.0," xlink:title="1" d="M14062.5784,-3651.1938L14062.5857,-3651.1916L14062.6117,-3651.1886L14062.6749,-3651.1844L14062.716,-3651.1822L14062.7458,-3651.1802L14062.7709,-3651.1787"/>
<path content="1,日立電鉄交通サービス（株）,99（140）,3.0,2.0,2.0," xlink:title="1" d="M14062.5784,-3651.1938L14062.5668,-3651.1955L14062.5024,-3651.2001L14062.5,-3651.2003"/>
<path content="1,日立電鉄交通サービス（株）,99（140）,3.0,2.0,2.0," xlink:title="1" d="M14062.5,-3651.554L14062.5136,-3651.5568L14062.5411,-3651.5625L14062.6571,-3651.5843L14062.7173,-3651.5952L14062.704,-3651.5693L14062.6743,-3651.5197L14062.6745,-3651.5133L14062.6454,-3651.4639L14062.6401,-3651.4512L14062.6015,-3651.3708L14062.5942,-3651.3537L14062.5836,-3651.2543L14062.5811,-3651.2228L14062.5784,-3651.1938"/>
<path content="1,日立電鉄交通サービス（株）,いわき駅発～東京ディズニーシー,1.0,1.0,1.0," xlink:title="1" d="M14063.6471,-3656.25L14063.5751,-3656.1963L14063.4898,-3656.1338L14063.4341,-3656.0942L14063.4196,-3656.0831L14063.397,-3656.0663L14063.3702,-3656.0476L14063.3449,-3656.0267L14063.31,-3656.0018L14063.2609,-3655.9665L14063.2384,-3655.9507L14063.2231,-3655.9394L14063.1662,-3655.8958L14063.1131,-3655.8567L14063.0541,-3655.8157L14062.9939,-3655.7707L14062.957,-3655.7431L14062.8919,-3655.6943L14062.8872,-3655.6908L14062.8401,-3655.6554L14062.8073,-3655.6308L14062.7881,-3655.617L14062.7692,-3655.6041L14062.7635,-3655.6002L14062.7561,-3655.5946L14062.7068,-3655.5576L14062.6861,-3655.5419L14062.6767,-3655.5351L14062.6673,-3655.5292L14062.6375,-3655.5079L14062.6116,-3655.4879L14062.6041,-3655.4831L14062.5164,-3655.4186L14062.5093,-3655.4114L14062.5,-3655.4042"/>
<path content="1,日立電鉄交通サービス（株）,国民宿舎鵜の岬～東京駅,20.4,22.0,22.0," xlink:title="1" d="M14062.7881,-3655.617L14062.7692,-3655.6041L14062.7635,-3655.6002L14062.7561,-3655.5946L14062.7068,-3655.5576L14062.6861,-3655.5419L14062.6767,-3655.5351L14062.6673,-3655.5292L14062.6375,-3655.5079L14062.6116,-3655.4879L14062.6041,-3655.4831L14062.5164,-3655.4186L14062.5093,-3655.4114L14062.5,-3655.4042"/>
<path content="1,日立電鉄交通サービス（株）,国民宿舎鵜の岬～東京駅,20.4,22.0,22.0," xlink:title="1" d="M14062.7881,-3655.617L14062.8018,-3655.6039L14062.8289,-3655.5804L14062.9167,-3655.5031L14062.9188,-3655.5013L14062.95,-3655.4758L14062.9821,-3655.4474L14062.9909,-3655.4387L14063.0451,-3655.3922L14063.0605,-3655.3791L14063.0835,-3655.3603L14063.085,-3655.3582L14063.0891,-3655.3528L14063.1002,-3655.3427L14063.1292,-3655.3163L14063.1626,-3655.2867L14063.1646,-3655.2849L14063.1708,-3655.2796L14063.1447,-3655.2323L14063.154,-3655.2312"/>
<path content="1,日立電鉄交通サービス（株）,国民宿舎鵜の岬～東京駅,20.4,22.0,22.0," xlink:title="1" d="M14063.6471,-3656.25L14063.5751,-3656.1963L14063.4898,-3656.1338L14063.4341,-3656.0942L14063.4196,-3656.0831L14063.397,-3656.0663L14063.3702,-3656.0476L14063.3449,-3656.0267L14063.31,-3656.0018L14063.2609,-3655.9665L14063.2384,-3655.9507L14063.2231,-3655.9394L14063.1662,-3655.8958L14063.1131,-3655.8567L14063.0541,-3655.8157L14062.9939,-3655.7707L14062.957,-3655.7431L14062.8919,-3655.6943L14062.8872,-3655.6908L14062.8401,-3655.6554L14062.8073,-3655.6308L14062.7881,-3655.617"/>
<path content="1,日立電鉄交通サービス（株）,日立駅中央口～成田空港第1ターミナル,3.0,3.0,3.0," xlink:title="1" d="M14062.5,-3655.4042L14062.5093,-3655.4114L14062.5164,-3655.4186L14062.6041,-3655.4831L14062.6116,-3655.4879L14062.6375,-3655.5079L14062.6673,-3655.5292L14062.6767,-3655.5351L14062.6861,-3655.5419L14062.7068,-3655.5576L14062.7561,-3655.5946L14062.7635,-3655.6002L14062.7692,-3655.6041L14062.7881,-3655.617L14062.8073,-3655.6308L14062.8401,-3655.6554L14062.8872,-3655.6908L14062.8919,-3655.6943L14062.957,-3655.7431L14062.9939,-3655.7707L14063.0541,-3655.8157L14063.1131,-3655.8567L14063.1662,-3655.8958L14063.2231,-3655.9394L14063.2384,-3655.9507L14063.2609,-3655.9665L14063.31,-3656.0018L14063.3449,-3656.0267L14063.3702,-3656.0476L14063.397,-3656.0663L14063.4196,-3656.0831L14063.4341,-3656.0942L14063.4898,-3656.1338L14063.5751,-3656.1963L14063.6471,-3656.25"/>
<path content="1,日立電鉄交通サービス（株）,日立駅中央口～羽田国際線ターミナル,2.0,2.0,2.0," xlink:title="1" d="M14063.6471,-3656.25L14063.5751,-3656.1963L14063.4898,-3656.1338L14063.4341,-3656.0942L14063.4196,-3656.0831L14063.397,-3656.0663L14063.3702,-3656.0476L14063.3449,-3656.0267L14063.31,-3656.0018L14063.2609,-3655.9665L14063.2384,-3655.9507L14063.2231,-3655.9394L14063.1662,-3655.8958L14063.1131,-3655.8567L14063.0541,-3655.8157L14062.9939,-3655.7707L14062.957,-3655.7431L14062.8919,-3655.6943L14062.8872,-3655.6908L14062.8401,-3655.6554L14062.8073,-3655.6308L14062.7881,-3655.617L14062.7692,-3655.6041L14062.7635,-3655.6002L14062.7561,-3655.5946L14062.7068,-3655.5576L14062.6861,-3655.5419L14062.6767,-3655.5351L14062.6673,-3655.5292L14062.6375,-3655.5079L14062.6116,-3655.4879L14062.6041,-3655.4831L14062.5164,-3655.4186L14062.5093,-3655.4114L14062.5,-3655.4042"/>
<path content="1,日立電鉄交通サービス（株）,環1　市内環状線,5.0,0.0,0.0," xlink:title="1" d="M14063.1943,-3655.2139L14063.2058,-3655.2171L14063.2098,-3655.2316"/>
<path content="1,日立電鉄交通サービス（株）,環1　市内環状線,5.0,0.0,0.0," xlink:title="1" d="M14063.1943,-3655.2139L14063.1827,-3655.2076L14063.1387,-3655.1729L14063.1239,-3655.1605L14063.1189,-3655.1552L14063.1127,-3655.1471L14063.1043,-3655.1331L14063.0915,-3655.1159L14063.0816,-3655.1068L14062.9469,-3655.0107L14062.9823,-3654.9794L14063.0641,-3654.91L14063.0789,-3654.9033L14063.1348,-3654.8829L14063.1584,-3654.8744L14063.1943,-3654.8615L14063.2689,-3654.8352L14063.3919,-3654.7895L14063.4249,-3654.779L14063.4374,-3654.7752L14063.4429,-3654.7733L14063.4557,-3654.7656L14063.5085,-3654.7362L14063.5238,-3654.7277L14063.5621,-3654.7064L14063.6163,-3654.6773L14063.6601,-3654.6533L14063.6781,-3654.6426L14063.6878,-3654.6375L14063.7857,-3654.5822L14063.8004,-3654.5748L14063.8114,-3654.5686L14063.8249,-3654.5609L14063.8356,-3654.5546L14063.9329,-3654.4992L14064.0002,-3654.4595L14064.0094,-3654.4777L14064.0157,-3654.4952L14064.0171,-3654.5024L14064.0173,-3654.5124L14064.0155,-3654.5219L14064.0122,-3654.5329L14064.0096,-3654.5466L14064.0085,-3654.5646L14064.0092,-3654.5872L14064.0119,-3654.6036L14064.0156,-3654.6209L14064.0237,-3654.6479L14064.0292,-3654.6624L14064.0304,-3654.665L14064.0425,-3654.6909L14064.0539,-3654.7107L14064.0574,-3654.7166L14064.0879,-3654.7662L14064.1071,-3654.7976L14064.1148,-3654.809L14064.123,-3654.8234L14064.1379,-3654.8476L14064.1565,-3654.8771L14064.1756,-3654.9084L14064.1849,-3654.9258L14064.1904,-3654.9373L14064.1949,-3654.9518L14064.1998,-3654.9702L14064.2042,-3654.99L14064.206,-3655.0035L14064.2096,-3655.0281L14064.2128,-3655.0687L14064.2129,-3655.0794L14064.2118,-3655.096L14064.2094,-3655.1178L14064.2036,-3655.1581L14064.198,-3655.2066L14064.1982,-3655.2224L14064.1999,-3655.2305L14064.2021,-3655.2397L14064.206,-3655.2497L14064.2111,-3655.2599L14064.2181,-3655.2716L14064.2212,-3655.277L14064.2432,-3655.3079L14064.2706,-3655.3438L14064.2769,-3655.3541L14064.2822,-3655.3586L14064.3158,-3655.4084L14064.3764,-3655.4972L14064.4221,-3655.5721L14064.4387,-3655.6052L14064.4562,-3655.6399L14064.5066,-3655.751L14064.5511,-3655.876L14064.5571,-3655.8929L14064.5643,-3655.9261L14064.5738,-3655.9733L14064.5829,-3656.0674L14064.5864,-3656.1027L14064.5874,-3656.1129L14064.5979,-3656.25"/>
<path content="1,日立電鉄交通サービス（株）,環1　市内環状線,5.0,0.0,0.0," xlink:title="1" d="M14063.6471,-3656.25L14063.5751,-3656.1963L14063.4898,-3656.1338L14063.4341,-3656.0942L14063.4196,-3656.0831L14063.397,-3656.0663L14063.3702,-3656.0476L14063.3449,-3656.0267L14063.31,-3656.0018L14063.2609,-3655.9665L14063.2384,-3655.9507L14063.2231,-3655.9394L14063.1662,-3655.8958L14063.1131,-3655.8567L14063.0541,-3655.8157L14062.9939,-3655.7707L14062.957,-3655.7431L14062.8919,-3655.6943L14062.8872,-3655.6908L14062.8401,-3655.6554L14062.8073,-3655.6308L14062.7881,-3655.617L14062.8018,-3655.6039L14062.8289,-3655.5804L14062.9167,-3655.5031L14062.9188,-3655.5013L14062.95,-3655.4758L14062.9821,-3655.4474L14062.9909,-3655.4387L14063.0451,-3655.3922L14063.0605,-3655.3791L14063.0835,-3655.3603L14063.085,-3655.3582L14063.0891,-3655.3528L14063.1002,-3655.3427L14063.1292,-3655.3163L14063.1626,-3655.2867L14063.1646,-3655.2849L14063.1708,-3655.2796L14063.1447,-3655.2323L14063.154,-3655.2312L14063.1943,-3655.2139"/>
<path content="1,日立電鉄交通サービス（株）,環2　市内環状線,6.0,0.0,0.0," xlink:title="1" d="M14063.1943,-3655.2139L14063.2058,-3655.2171L14063.2098,-3655.2316"/>
<path content="1,日立電鉄交通サービス（株）,環2　市内環状線,6.0,0.0,0.0," xlink:title="1" d="M14063.1943,-3655.2139L14063.154,-3655.2312L14063.1447,-3655.2323L14063.1708,-3655.2796L14063.1646,-3655.2849L14063.1626,-3655.2867L14063.1292,-3655.3163L14063.1002,-3655.3427L14063.0891,-3655.3528L14063.085,-3655.3582L14063.0835,-3655.3603L14063.0605,-3655.3791L14063.0451,-3655.3922L14062.9909,-3655.4387L14062.9821,-3655.4474L14062.95,-3655.4758L14062.9188,-3655.5013L14062.9167,-3655.5031L14062.8289,-3655.5804L14062.8018,-3655.6039L14062.7881,-3655.617L14062.8073,-3655.6308L14062.8401,-3655.6554L14062.8872,-3655.6908L14062.8919,-3655.6943L14062.957,-3655.7431L14062.9939,-3655.7707L14063.0541,-3655.8157L14063.1131,-3655.8567L14063.1662,-3655.8958L14063.2231,-3655.9394L14063.2384,-3655.9507L14063.2609,-3655.9665L14063.31,-3656.0018L14063.3449,-3656.0267L14063.3702,-3656.0476L14063.397,-3656.0663L14063.4196,-3656.0831L14063.4341,-3656.0942L14063.4898,-3656.1338L14063.5751,-3656.1963L14063.6471,-3656.25"/>
<path content="1,日立電鉄交通サービス（株）,環2　市内環状線,6.0,0.0,0.0," xlink:title="1" d="M14064.5979,-3656.25L14064.5874,-3656.1129L14064.5864,-3656.1027L14064.5829,-3656.0674L14064.5738,-3655.9733L14064.5643,-3655.9261L14064.5571,-3655.8929L14064.5511,-3655.876L14064.5066,-3655.751L14064.4562,-3655.6399L14064.4387,-3655.6052L14064.4221,-3655.5721L14064.3764,-3655.4972L14064.3158,-3655.4084L14064.2822,-3655.3586L14064.2769,-3655.3541L14064.2706,-3655.3438L14064.2432,-3655.3079L14064.2212,-3655.277L14064.2181,-3655.2716L14064.2111,-3655.2599L14064.206,-3655.2497L14064.2021,-3655.2397L14064.1999,-3655.2305L14064.1982,-3655.2224L14064.198,-3655.2066L14064.2036,-3655.1581L14064.2094,-3655.1178L14064.2118,-3655.096L14064.2129,-3655.0794L14064.2128,-3655.0687L14064.2096,-3655.0281L14064.206,-3655.0035L14064.2042,-3654.99L14064.1998,-3654.9702L14064.1949,-3654.9518L14064.1904,-3654.9373L14064.1849,-3654.9258L14064.1756,-3654.9084L14064.1565,-3654.8771L14064.1379,-3654.8476L14064.123,-3654.8234L14064.1148,-3654.809L14064.1071,-3654.7976L14064.0879,-3654.7662L14064.0574,-3654.7166L14064.0539,-3654.7107L14064.0425,-3654.6909L14064.0304,-3654.665L14064.0292,-3654.6624L14064.0237,-3654.6479L14064.0156,-3654.6209L14064.0119,-3654.6036L14064.0092,-3654.5872L14064.0085,-3654.5646L14064.0096,-3654.5466L14064.0122,-3654.5329L14064.0155,-3654.5219L14064.0173,-3654.5124L14064.0171,-3654.5024L14064.0157,-3654.4952L14064.0094,-3654.4777L14064.0002,-3654.4595L14063.9329,-3654.4992L14063.8356,-3654.5546L14063.8249,-3654.5609L14063.8114,-3654.5686L14063.8004,-3654.5748L14063.7857,-3654.5822L14063.6878,-3654.6375L14063.6781,-3654.6426L14063.6601,-3654.6533L14063.6163,-3654.6773L14063.5621,-3654.7064L14063.5238,-3654.7277L14063.5085,-3654.7362L14063.4557,-3654.7656L14063.4429,-3654.7733L14063.4374,-3654.7752L14063.4249,-3654.779L14063.3919,-3654.7895L14063.2689,-3654.8352L14063.1943,-3654.8615L14063.1584,-3654.8744L14063.1348,-3654.8829L14063.0789,-3654.9033L14063.0641,-3654.91L14062.9823,-3654.9794L14062.9469,-3655.0107L14063.0816,-3655.1068L14063.0915,-3655.1159L14063.1043,-3655.1331L14063.1127,-3655.1471L14063.1189,-3655.1552L14063.1239,-3655.1605L14063.1387,-3655.1729L14063.1827,-3655.2076L14063.1943,-3655.2139"/>
<path content="1,東京ベイシティ交通,いわき・日立～東京ディズニーリゾート線,1.0,1.0,1.0," xlink:title="1" d="M14062.5,-3655.4042L14062.5093,-3655.4114L14062.5164,-3655.4186L14062.6041,-3655.4831L14062.6116,-3655.4879L14062.6375,-3655.5079L14062.6673,-3655.5292L14062.6767,-3655.5351L14062.6861,-3655.5419L14062.7068,-3655.5576L14062.7561,-3655.5946L14062.7635,-3655.6002L14062.7692,-3655.6041L14062.7881,-3655.617L14062.8073,-3655.6308L14062.8401,-3655.6554L14062.8872,-3655.6908L14062.8919,-3655.6943L14062.957,-3655.7431L14062.9939,-3655.7707L14063.0541,-3655.8157L14063.1131,-3655.8567L14063.1662,-3655.8958L14063.2231,-3655.9394L14063.2384,-3655.9507L14063.2609,-3655.9665L14063.31,-3656.0018L14063.3449,-3656.0267L14063.3702,-3656.0476L14063.397,-3656.0663L14063.4196,-3656.0831L14063.4341,-3656.0942L14063.4898,-3656.1338L14063.5751,-3656.1963L14063.6471,-3656.25"/>
<path content="1,東京空港交通（株）,日立・水戸エリア～羽田空港線,1.0,1.0,1.0," xlink:title="1" d="M14063.6471,-3656.25L14063.5751,-3656.1963L14063.4898,-3656.1338L14063.4341,-3656.0942L14063.4196,-3656.0831L14063.397,-3656.0663L14063.3702,-3656.0476L14063.3449,-3656.0267L14063.31,-3656.0018L14063.2609,-3655.9665L14063.2384,-3655.9507L14063.2231,-3655.9394L14063.1662,-3655.8958L14063.1131,-3655.8567L14063.0541,-3655.8157L14062.9939,-3655.7707L14062.957,-3655.7431L14062.8919,-3655.6943L14062.8872,-3655.6908L14062.8401,-3655.6554L14062.8073,-3655.6308L14062.7881,-3655.617L14062.7692,-3655.6041L14062.7635,-3655.6002L14062.7561,-3655.5946L14062.7068,-3655.5576L14062.6861,-3655.5419L14062.6767,-3655.5351L14062.6673,-3655.5292L14062.6375,-3655.5079L14062.6116,-3655.4879L14062.6041,-3655.4831L14062.5164,-3655.4186L14062.5093,-3655.4114L14062.5,-3655.4042"/>
<path content="1,茨城交通（株）,28,21.0,15.0,10.5," xlink:title="1" d="M14062.5,-3637.5499L14062.5207,-3637.5715L14062.5552,-3637.6068L14062.581,-3637.6366L14062.6142,-3637.6872L14062.6254,-3637.71L14062.6333,-3637.7274L14062.6381,-3637.7418L14062.6413,-3637.7527L14062.647,-3637.7886L14062.6479,-3637.8001L14062.6477,-3637.8767L14062.6477,-3637.8886L14062.6497,-3637.9814L14062.6498,-3638.0564L14062.6488,-3638.1004L14062.6477,-3638.1083L14062.6437,-3638.1205L14062.6368,-3638.134L14062.63,-3638.1447L14062.6233,-3638.1535L14062.6119,-3638.1666L14062.5864,-3638.1947L14062.5734,-3638.2083L14062.5678,-3638.2143L14062.5614,-3638.2265L14062.5549,-3638.241L14062.5474,-3638.2592L14062.5395,-3638.2789L14062.5353,-3638.2906L14062.5291,-3638.3002L14062.5214,-3638.3082L14062.5005,-3638.3233L14062.5,-3638.3236"/>
<path content="1,茨城交通（株）,日立駅前中央～成田空港,3.0,3.0,3.0," xlink:title="1" d="M14063.6471,-3656.25L14063.5751,-3656.1963L14063.4898,-3656.1338L14063.4341,-3656.0942L14063.4196,-3656.0831L14063.397,-3656.0663L14063.3702,-3656.0476L14063.3449,-3656.0267L14063.31,-3656.0018L14063.2609,-3655.9665L14063.2384,-3655.9507L14063.2231,-3655.9394L14063.1662,-3655.8958L14063.1131,-3655.8567L14063.0541,-3655.8157L14062.9939,-3655.7707L14062.957,-3655.7431L14062.8919,-3655.6943L14062.8872,-3655.6908L14062.8401,-3655.6554L14062.8073,-3655.6308L14062.7881,-3655.617L14062.7692,-3655.6041L14062.7635,-3655.6002L14062.7561,-3655.5946L14062.7068,-3655.5576L14062.6861,-3655.5419L14062.6767,-3655.5351L14062.6673,-3655.5292L14062.6375,-3655.5079L14062.6116,-3655.4879L14062.6041,-3655.4831L14062.5164,-3655.4186L14062.5093,-3655.4114L14062.5,-3655.4042"/>
<path content="1,茨城交通（株）,日立駅前中央～羽田空港,1.0,1.0,1.0," xlink:title="1" d="M14063.6471,-3656.25L14063.5751,-3656.1963L14063.4898,-3656.1338L14063.4341,-3656.0942L14063.4196,-3656.0831L14063.397,-3656.0663L14063.3702,-3656.0476L14063.3449,-3656.0267L14063.31,-3656.0018L14063.2609,-3655.9665L14063.2384,-3655.9507L14063.2231,-3655.9394L14063.1662,-3655.8958L14063.1131,-3655.8567L14063.0541,-3655.8157L14062.9939,-3655.7707L14062.957,-3655.7431L14062.8919,-3655.6943L14062.8872,-3655.6908L14062.8401,-3655.6554L14062.8073,-3655.6308L14062.7881,-3655.617L14062.7692,-3655.6041L14062.7635,-3655.6002L14062.7561,-3655.5946L14062.7068,-3655.5576L14062.6861,-3655.5419L14062.6767,-3655.5351L14062.6673,-3655.5292L14062.6375,-3655.5079L14062.6116,-3655.4879L14062.6041,-3655.4831L14062.5164,-3655.4186L14062.5093,-3655.4114L14062.5,-3655.4042"/>
<path content="1,近鉄バス（株）,大阪・京都⇔日立・いわき,1.0,1.0,1.0," xlink:title="1" d="M14062.5,-3655.4042L14062.5093,-3655.4114L14062.5164,-3655.4186L14062.6041,-3655.4831L14062.6116,-3655.4879L14062.6375,-3655.5079L14062.6673,-3655.5292L14062.6767,-3655.5351L14062.6861,-3655.5419L14062.7068,-3655.5576L14062.7561,-3655.5946L14062.7635,-3655.6002L14062.7692,-3655.6041L14062.7881,-3655.617L14062.8073,-3655.6308L14062.8872,-3655.6908L14062.8919,-3655.6943L14062.957,-3655.7431L14062.9939,-3655.7707L14063.0541,-3655.8157L14063.1131,-3655.8567L14063.1662,-3655.8958L14063.2231,-3655.9394L14063.2384,-3655.9507L14063.2609,-3655.9665L14063.31,-3656.0018L14063.3702,-3656.0476L14063.397,-3656.0663L14063.4196,-3656.0831L14063.4341,-3656.0942L14063.4898,-3656.1338L14063.5751,-3656.1963L14063.6471,-3656.25"/>
</g>
</svg>
