<?xml version="1.0" encoding="UTF-8"?>
<svg  xmlns="http://www.w3.org/2000/svg" xmlns:xlink="http://www.w3.org/1999/xlink" xmlns:go="http://purl.org/svgmap/profile" property="N07_001,N07_002,N07_003,N07_004,N07_005,N07_006,N07_007" viewBox="13324.21875 -3339.84375 35.15625 35.15625" go:dataArea="13324.21875 -3339.84375 35.15625 35.15625" >
<metadata>
 <rdf:RDF xmlns:rdf="http://www.w3.org/1999/02/22-rdf-syntax-ns#" xmlns:crs="http://opengis.org/xmldtds/transformations.dtd" xmlns:svg="http://www.w3.org/svg" >
  <rdf:Description>
   <crs:CoordinateReferenceSystem rdf:resource="http://purl.org/crs/84" svg:transform="matrix(100.0,0.0,0.0,-100.0,0.0,0.0)" />
  </rdf:Description>
 </rdf:RDF>
</metadata>
<globalCoordinateSystem srsName="http://purl.org/crs/84" transform="matrix(100.0,0.0,0.0,-100.0,0.0,0.0)" />
<defs>
 <g id="p0" >
  <circle cx="0.0" cy="0.0" r="3" stroke="green" stroke-width="0.75" vector-effect="non-scaling-stroke" />
 </g>
</defs>
<g fill="none" fill-rule="evenodd" stroke="#FF00FF" stroke-width="0.75" opacity="0.5" vector-effect="non-scaling-stroke" stroke-linejoin="bevel" >
<path content="1,JR四国バス（株）,高知エクスプレス号　高知⇔神戸・大阪・京都,7.0,7.0,7.0," xlink:title="1" d="M13329.2645,-3339.2411L13329.224,-3339.2315L13329.2357,-3339.1875L13329.2411,-3339.1611L13329.2412,-3339.1599L13329.2418,-3339.1554L13329.2471,-3339.0821L13329.0918,-3339.0821L13329.0901,-3339.0821L13329.0883,-3339.0821L13329.0182,-3339.0821L13328.9554,-3339.0835L13328.863,-3339.0844L13328.8272,-3339.0847L13328.802,-3339.0849L13328.7812,-3339.0844L13328.6896,-3339.0849L13328.6711,-3339.0849L13328.6006,-3339.0861L13328.5361,-3339.0917L13328.5099,-3339.0951L13328.4844,-3339.1041L13328.4703,-3339.1103L13328.4522,-3339.1199L13328.4374,-3339.1272L13328.4132,-3339.1436L13328.3898,-3339.1633L13328.373,-3339.1762L13328.3475,-3339.1988L13328.3226,-3339.2208L13328.2676,-3339.2676L13328.1225,-3339.3887L13328.1124,-3339.3966L13328.0822,-3339.4214L13328.1296,-3339.4601L13328.2709,-3339.5736L13328.3354,-3339.6215L13328.3568,-3339.6389L13328.3589,-3339.641L13328.3763,-3339.6581L13328.3836,-3339.6678L13328.3966,-3339.6854L13328.4199,-3339.7221L13328.4397,-3339.7562L13328.4742,-3339.8137L13328.4831,-3339.8293L13328.4914,-3339.8438"/>
<path content="1,小田急シティバス（株）,しまんとエクスプレス号,0.1,0.1,0.1," xlink:title="1" d="M13324.2188,-3335.3651L13324.229,-3335.3669L13324.2399,-3335.3706L13324.249,-3335.3736L13324.269,-3335.3835L13324.4006,-3335.4342L13324.4767,-3335.4638L13324.515,-3335.4804L13324.5962,-3335.5114L13324.6332,-3335.5269L13324.7103,-3335.555L13324.7421,-3335.5671L13324.7533,-3335.5717L13324.9692,-3335.6611L13325.2002,-3335.757L13325.2611,-3335.7812L13325.2906,-3335.7959L13325.3383,-3335.8269L13325.3699,-3335.8539L13325.4041,-3335.89L13325.433,-3335.9221L13325.4773,-3335.9632L13325.5001,-3335.9807L13325.523,-3335.9931L13325.5626,-3336.0106L13325.576,-3336.0174L13325.5928,-3336.0303L13325.6049,-3336.0438L13325.6156,-3336.0608L13325.616,-3336.0614L13325.6237,-3336.076L13325.6331,-3336.0918L13325.6828,-3336.2141L13325.6894,-3336.2294L13325.6918,-3336.2356L13325.6943,-3336.2417L13325.6962,-3336.2461L13325.6981,-3336.2506L13325.7291,-3336.3273L13325.7549,-3336.3906L13325.7809,-3336.4572L13325.7913,-3336.4872L13325.8076,-3336.5314L13325.8177,-3336.5629L13325.8197,-3336.5697L13325.8204,-3336.5815L13325.8174,-3336.5948L13325.8037,-3336.6564L13325.8021,-3336.6623L13325.7969,-3336.6869L13325.7774,-3336.7489L13325.7727,-3336.7692L13325.7707,-3336.79L13325.7721,-3336.8092L13325.7768,-3336.8222L13325.7948,-3336.8432L13325.8119,-3336.8563L13326.0006,-3337.0012L13326.0116,-3337.0099L13326.0138,-3337.0115L13326.0386,-3337.0296L13326.0594,-3337.0386L13326.0762,-3337.0425L13326.0903,-3337.0436L13326.1125,-3337.0431L13326.1346,-3337.0386L13326.1635,-3337.0301L13326.2467,-3337.0012L13326.2702,-3336.9946L13326.3024,-3336.9901L13326.3186,-3336.9896L13326.3285,-3336.9927L13326.3333,-3336.9986L13326.3381,-3337.0059L13326.3407,-3337.0121L13326.3424,-3337.0305L13326.334,-3337.0758L13326.3333,-3337.1017L13326.3347,-3337.1028L13326.3394,-3337.113L13326.3448,-3337.118L13326.3528,-3337.1231L13326.3521,-3337.1226L13326.3797,-3337.1344L13326.3911,-3337.1423L13326.3985,-3337.1536L13326.3985,-3337.1744L13326.3864,-3337.2184L13326.3864,-3337.2381L13326.3898,-3337.2482L13326.3965,-3337.2601L13326.4086,-3337.2697L13326.4092,-3337.2697L13326.4166,-3337.2736L13326.4274,-3337.277L13326.5173,-3337.2894L13326.5294,-3337.2911L13326.5953,-3337.3017L13326.6081,-3337.3025L13326.6343,-3337.3063L13326.7805,-3337.3295L13326.8016,-3337.3317L13326.8229,-3337.3339L13326.8503,-3337.3379L13326.8792,-3337.3452L13326.8933,-3337.3491L13326.9161,-3337.3604L13326.9309,-3337.3734L13326.9363,-3337.3805L13326.9667,-3337.4201L13327.0143,-3337.4821L13327.1644,-3337.686L13327.1824,-3337.7105L13327.19,-3337.7188L13327.2055,-3337.738L13327.2699,-3337.8231L13327.3028,-3337.8648L13327.3096,-3337.8777L13327.3149,-3337.8981L13327.3163,-3337.9229L13327.3143,-3337.9403L13327.3022,-3337.9724L13327.2847,-3338.004L13327.2733,-3338.0282L13327.2686,-3338.0468L13327.2686,-3338.0733L13327.2779,-3338.106L13327.2867,-3338.1263L13327.2934,-3338.1381L13327.3055,-3338.1646L13327.3095,-3338.1889L13327.3082,-3338.2035L13327.2988,-3338.2221L13327.2565,-3338.2931L13327.2001,-3338.3895L13327.192,-3338.4143L13327.1897,-3338.4237L13327.1894,-3338.4319L13327.1914,-3338.4476L13327.1946,-3338.4566L13327.2034,-3338.4768L13327.2377,-3338.5287L13327.26,-3338.5598L13327.2692,-3338.5727L13327.2706,-3338.5744L13327.3041,-3338.6182L13327.3065,-3338.6216L13327.3827,-3338.7226L13327.3968,-3338.7427L13327.4026,-3338.7511L13327.4689,-3338.8437L13327.4878,-3338.8454L13327.5101,-3338.8434L13327.5339,-3338.8407L13327.5598,-3338.8354L13327.5801,-3338.8313L13327.6036,-3338.8268L13327.6445,-3338.8189L13327.7406,-3338.8003L13327.7546,-3338.7987L13327.7834,-3338.7912L13327.8097,-3338.7874L13327.8198,-3338.7846L13327.8708,-3338.775L13327.8909,-3338.7693L13327.9669,-3338.8739L13328.0403,-3338.9766L13328.0756,-3339.0246L13328.0829,-3339.0342L13328.0917,-3339.0472L13328.1158,-3339.0776L13328.1425,-3339.1084L13328.1598,-3339.1357L13328.1702,-3339.1503L13328.1937,-3339.1813L13328.2261,-3339.2194L13328.2373,-3339.2326L13328.2676,-3339.2676L13328.2756,-3339.2771L13328.3025,-3339.3076L13328.3401,-3339.3504L13328.3515,-3339.3622L13328.3629,-3339.3803L13328.3646,-3339.3886L13328.3716,-3339.4045L13328.3723,-3339.4445L13328.3696,-3339.5014L13328.3656,-3339.5516L13328.3636,-3339.5702L13328.3609,-3339.6102L13328.3589,-3339.641L13328.3574,-3339.6788L13328.3562,-3339.6846L13328.3535,-3339.7556L13328.3481,-3339.8438"/>
<path content="1,小田急バス（株）,しまんとエクスプレス号,1.0,1.0,1.0," xlink:title="1" d="M13324.2188,-3335.3651L13324.229,-3335.3669L13324.2399,-3335.3706L13324.249,-3335.3736L13324.269,-3335.3835L13324.4006,-3335.4342L13324.4767,-3335.4638L13324.515,-3335.4804L13324.5962,-3335.5114L13324.6332,-3335.5269L13324.7103,-3335.555L13324.7421,-3335.5671L13324.7533,-3335.5717L13324.9692,-3335.6611L13325.2002,-3335.757L13325.2611,-3335.7812L13325.2906,-3335.7959L13325.3383,-3335.8269L13325.3699,-3335.8539L13325.4041,-3335.89L13325.433,-3335.9221L13325.4773,-3335.9632L13325.5001,-3335.9807L13325.523,-3335.9931L13325.5626,-3336.0106L13325.576,-3336.0174L13325.5928,-3336.0303L13325.6049,-3336.0438L13325.6156,-3336.0608L13325.616,-3336.0614L13325.6237,-3336.076L13325.6331,-3336.0918L13325.6828,-3336.2141L13325.6894,-3336.2294L13325.6918,-3336.2356L13325.6943,-3336.2417L13325.6962,-3336.2461L13325.6981,-3336.2506L13325.7291,-3336.3273L13325.7549,-3336.3906L13325.7809,-3336.4572L13325.7913,-3336.4872L13325.8076,-3336.5314L13325.8177,-3336.5629L13325.8197,-3336.5697L13325.8204,-3336.5815L13325.8174,-3336.5948L13325.8037,-3336.6564L13325.8021,-3336.6623L13325.7969,-3336.6869L13325.7774,-3336.7489L13325.7727,-3336.7692L13325.7707,-3336.79L13325.7721,-3336.8092L13325.7768,-3336.8222L13325.7948,-3336.8432L13325.8119,-3336.8563L13326.0006,-3337.0012L13326.0116,-3337.0099L13326.0138,-3337.0115L13326.0386,-3337.0296L13326.0594,-3337.0386L13326.0762,-3337.0425L13326.0903,-3337.0436L13326.1125,-3337.0431L13326.1346,-3337.0386L13326.1635,-3337.0301L13326.2467,-3337.0012L13326.2702,-3336.9946L13326.3024,-3336.9901L13326.3186,-3336.9896L13326.3285,-3336.9927L13326.3333,-3336.9986L13326.3381,-3337.0059L13326.3407,-3337.0121L13326.3424,-3337.0305L13326.334,-3337.0758L13326.3333,-3337.1017L13326.3347,-3337.1028L13326.3394,-3337.113L13326.3448,-3337.118L13326.3528,-3337.1231L13326.3521,-3337.1226L13326.3797,-3337.1344L13326.3911,-3337.1423L13326.3985,-3337.1536L13326.3985,-3337.1744L13326.3864,-3337.2184L13326.3864,-3337.2381L13326.3898,-3337.2482L13326.3965,-3337.2601L13326.4086,-3337.2697L13326.4092,-3337.2697L13326.4166,-3337.2736L13326.4274,-3337.277L13326.5173,-3337.2894L13326.5294,-3337.2911L13326.5953,-3337.3017L13326.6081,-3337.3025L13326.6343,-3337.3063L13326.7805,-3337.3295L13326.8016,-3337.3317L13326.8229,-3337.3339L13326.8503,-3337.3379L13326.8792,-3337.3452L13326.8933,-3337.3491L13326.9161,-3337.3604L13326.9309,-3337.3734L13326.9363,-3337.3805L13326.9667,-3337.4201L13327.0143,-3337.4821L13327.1644,-3337.686L13327.1824,-3337.7105L13327.19,-3337.7188L13327.2055,-3337.738L13327.2699,-3337.8231L13327.3028,-3337.8648L13327.3096,-3337.8777L13327.3149,-3337.8981L13327.3163,-3337.9229L13327.3143,-3337.9403L13327.3022,-3337.9724L13327.2847,-3338.004L13327.2733,-3338.0282L13327.2686,-3338.0468L13327.2686,-3338.0733L13327.2779,-3338.106L13327.2867,-3338.1263L13327.2934,-3338.1381L13327.3055,-3338.1646L13327.3095,-3338.1889L13327.3082,-3338.2035L13327.2988,-3338.2221L13327.2565,-3338.2931L13327.2001,-3338.3895L13327.192,-3338.4143L13327.1897,-3338.4237L13327.1894,-3338.4319L13327.1914,-3338.4476L13327.1946,-3338.4566L13327.2034,-3338.4768L13327.2377,-3338.5287L13327.26,-3338.5598L13327.2692,-3338.5727L13327.2706,-3338.5744L13327.3041,-3338.6182L13327.3065,-3338.6216L13327.3827,-3338.7226L13327.3968,-3338.7427L13327.4026,-3338.7511L13327.4689,-3338.8437L13327.4878,-3338.8454L13327.5101,-3338.8434L13327.5339,-3338.8407L13327.5598,-3338.8354L13327.5801,-3338.8313L13327.6036,-3338.8268L13327.6445,-3338.8189L13327.7406,-3338.8003L13327.7546,-3338.7987L13327.7834,-3338.7912L13327.8097,-3338.7874L13327.8198,-3338.7846L13327.8708,-3338.775L13327.8909,-3338.7693L13327.9669,-3338.8739L13328.0403,-3338.9766L13328.0756,-3339.0246L13328.0829,-3339.0342L13328.0917,-3339.0472L13328.1158,-3339.0776L13328.1425,-3339.1084L13328.1598,-3339.1357L13328.1702,-3339.1503L13328.1937,-3339.1813L13328.2261,-3339.2194L13328.2373,-3339.2326L13328.2676,-3339.2676L13328.2756,-3339.2771L13328.3025,-3339.3076L13328.3401,-3339.3504L13328.3515,-3339.3622L13328.3629,-3339.3803L13328.3646,-3339.3886L13328.3716,-3339.4045L13328.3723,-3339.4445L13328.3696,-3339.5014L13328.3656,-3339.5516L13328.3636,-3339.5702L13328.3609,-3339.6102L13328.3589,-3339.641L13328.3574,-3339.6788L13328.3562,-3339.6846L13328.3535,-3339.7556L13328.3481,-3339.8438"/>
<path content="1,近鉄バス（株）,京都・大阪・神戸⇔中村・宿毛,2.0,2.0,2.0," xlink:title="1" d="M13324.2188,-3335.3651L13324.229,-3335.3669L13324.2399,-3335.3706L13324.249,-3335.3736L13324.269,-3335.3835L13324.4006,-3335.4342L13324.4767,-3335.4638L13324.515,-3335.4804L13324.5962,-3335.5114L13324.6332,-3335.5269L13324.7103,-3335.555L13324.7421,-3335.5671L13324.7533,-3335.5717L13324.9692,-3335.6611L13325.2002,-3335.757L13325.2611,-3335.7812L13325.2906,-3335.7959L13325.3383,-3335.8269L13325.3699,-3335.8539L13325.4041,-3335.89L13325.433,-3335.9221L13325.4773,-3335.9632L13325.5001,-3335.9807L13325.523,-3335.9931L13325.5626,-3336.0106L13325.576,-3336.0174L13325.5928,-3336.0303L13325.6049,-3336.0438L13325.6156,-3336.0608L13325.616,-3336.0614L13325.6237,-3336.076L13325.6331,-3336.0918L13325.6828,-3336.2141L13325.6894,-3336.2294L13325.6918,-3336.2356L13325.6943,-3336.2417L13325.6962,-3336.2461L13325.6981,-3336.2506L13325.7291,-3336.3273L13325.7532,-3336.3871L13325.7809,-3336.4572L13325.7913,-3336.4872L13325.8076,-3336.5314L13325.8177,-3336.5629L13325.8197,-3336.5697L13325.8204,-3336.5815L13325.8174,-3336.5948L13325.8037,-3336.6564L13325.7969,-3336.6869L13325.7774,-3336.7489L13325.7727,-3336.7692L13325.7707,-3336.79L13325.7721,-3336.8092L13325.7768,-3336.8222L13325.7948,-3336.8432L13325.8119,-3336.8563L13326.0006,-3337.0012L13326.0116,-3337.0099L13326.0138,-3337.0115L13326.0386,-3337.0296L13326.0594,-3337.0386L13326.0762,-3337.0425L13326.0903,-3337.0436L13326.1125,-3337.0431L13326.1346,-3337.0386L13326.1635,-3337.0301L13326.244,-3337.0019L13326.2702,-3336.9946L13326.3024,-3336.9901L13326.3186,-3336.9896L13326.3285,-3336.9927L13326.3333,-3336.9986L13326.3381,-3337.0059L13326.3407,-3337.0121L13326.3424,-3337.0305L13326.334,-3337.0758L13326.3333,-3337.1017L13326.3347,-3337.1028L13326.3394,-3337.113L13326.3448,-3337.118L13326.3528,-3337.1231L13326.3797,-3337.1344L13326.3911,-3337.1423L13326.3985,-3337.1536L13326.3985,-3337.1744L13326.3864,-3337.2184L13326.3864,-3337.2381L13326.3898,-3337.2482L13326.3965,-3337.2601L13326.4086,-3337.2697L13326.4092,-3337.2697L13326.4166,-3337.2736L13326.4274,-3337.277L13326.5173,-3337.2894L13326.5294,-3337.2911L13326.6081,-3337.3025L13326.6343,-3337.3063L13326.7805,-3337.3295L13326.8016,-3337.3317L13326.8229,-3337.3339L13326.8503,-3337.3379L13326.8792,-3337.3452L13326.8933,-3337.3491L13326.9161,-3337.3604L13326.9309,-3337.3734L13326.9363,-3337.3805L13326.9667,-3337.4201L13327.0143,-3337.4821L13327.1644,-3337.686L13327.1824,-3337.7105L13327.19,-3337.7188L13327.2055,-3337.738L13327.2699,-3337.8231L13327.3028,-3337.8648L13327.3096,-3337.8777L13327.3149,-3337.8981L13327.3163,-3337.9229L13327.3143,-3337.9403L13327.3022,-3337.9724L13327.2847,-3338.004L13327.2733,-3338.0282L13327.2686,-3338.0468L13327.2686,-3338.0733L13327.2779,-3338.106L13327.2867,-3338.1263L13327.2934,-3338.1381L13327.3055,-3338.1646L13327.3095,-3338.1889L13327.3082,-3338.2035L13327.2988,-3338.2221L13327.2565,-3338.2931L13327.2001,-3338.3895L13327.192,-3338.4143L13327.1897,-3338.4237L13327.1894,-3338.4319L13327.1914,-3338.4476L13327.1954,-3338.4606L13327.2034,-3338.4768L13327.2377,-3338.5287L13327.26,-3338.5598L13327.2692,-3338.5727L13327.2706,-3338.5744L13327.3041,-3338.6182L13327.3065,-3338.6216L13327.3827,-3338.7226L13327.3968,-3338.7427L13327.4026,-3338.7511L13327.4712,-3338.8459L13327.4878,-3338.8454L13327.5101,-3338.8434L13327.5339,-3338.8407L13327.5598,-3338.8354L13327.5801,-3338.8313L13327.6036,-3338.8268L13327.6445,-3338.8189L13327.7406,-3338.8003L13327.7546,-3338.7987L13327.7815,-3338.7924L13327.8097,-3338.7874L13327.8198,-3338.7846L13327.8708,-3338.775L13327.8909,-3338.7693L13327.9669,-3338.8739L13328.0403,-3338.9766L13328.0756,-3339.0246L13328.0829,-3339.0342L13328.0917,-3339.0472L13328.1158,-3339.0776L13328.1598,-3339.1357L13328.1702,-3339.1503L13328.1937,-3339.1813L13328.2261,-3339.2194L13328.2373,-3339.2326L13328.2676,-3339.2676L13328.2756,-3339.2771L13328.3025,-3339.3076L13328.3401,-3339.3504L13328.3515,-3339.3622L13328.3629,-3339.3803L13328.3716,-3339.4045L13328.3723,-3339.4445L13328.3696,-3339.5014L13328.3656,-3339.5516L13328.3636,-3339.5702L13328.3609,-3339.6102L13328.3589,-3339.641L13328.3562,-3339.6846L13328.3535,-3339.7556L13328.3481,-3339.8438"/>
<path content="1,高知県交通（株）,須崎,2.9,2.6,2.6," xlink:title="1" d="M13329.2471,-3339.0821L13329.2861,-3339.081L13329.3271,-3339.081L13329.3271,-3339.0907L13329.3566,-3339.0918L13329.3581,-3339.0847L13329.3559,-3339.0524L13329.3535,-3339.0351L13329.3499,-3339.0089L13329.3481,-3338.9926L13329.345,-3338.9835L13329.3402,-3338.9785L13329.3361,-3338.9762L13329.3284,-3338.974L13329.3271,-3338.9424L13329.3043,-3338.917"/>
<path content="1,高知県交通（株）,須崎,2.9,2.6,2.6," xlink:title="1" d="M13328.3483,-3339.8438L13328.3535,-3339.7556L13328.3574,-3339.6788L13328.3589,-3339.641L13328.3609,-3339.6102L13328.3636,-3339.5702L13328.3656,-3339.5516L13328.3696,-3339.5014L13328.3723,-3339.4445L13328.3716,-3339.4045L13328.3646,-3339.3886L13328.3629,-3339.3803L13328.3515,-3339.3622L13328.3401,-3339.3504L13328.3025,-3339.3076L13328.2756,-3339.2771L13328.2676,-3339.2676L13328.3226,-3339.2208L13328.3475,-3339.1988L13328.373,-3339.1762L13328.3898,-3339.1633L13328.4159,-3339.1407L13328.4522,-3339.1199L13328.477,-3339.1066L13328.5099,-3339.0951L13328.5361,-3339.0917L13328.6006,-3339.0861L13328.6711,-3339.0849L13328.6896,-3339.0849L13328.7723,-3339.0856L13328.8272,-3339.0847L13328.863,-3339.0844L13328.9554,-3339.0835L13329.065,-3339.0821L13329.0883,-3339.0821L13329.0901,-3339.0821L13329.0918,-3339.0821L13329.1109,-3339.0829L13329.2471,-3339.0821"/>
<path content="1,高知県交通（株）,須崎,2.9,2.6,2.6," xlink:title="1" d="M13328.8971,-3339.8438L13328.8993,-3339.8413L13328.9168,-3339.8249L13328.9463,-3339.8001L13328.9584,-3339.7872L13328.9792,-3339.7568L13329.041,-3339.6592L13329.133,-3339.5161L13329.1498,-3339.4879L13329.1699,-3339.4327L13329.1719,-3339.4254L13329.1768,-3339.4106L13329.1928,-3339.3487L13329.1948,-3339.3448L13329.1954,-3339.3374L13329.2055,-3339.3008L13329.224,-3339.2315L13329.2357,-3339.1875L13329.2411,-3339.1611L13329.2412,-3339.1599L13329.2418,-3339.1554L13329.2471,-3339.0821"/>
<path content="1,高知西南交通（株）,しまんとブルーライナー　京都線,1.0,1.0,1.0," xlink:title="1" d="M13324.2188,-3335.3651L13324.229,-3335.3669L13324.2399,-3335.3706L13324.249,-3335.3736L13324.269,-3335.3835L13324.4006,-3335.4342L13324.4767,-3335.4638L13324.515,-3335.4804L13324.5962,-3335.5114L13324.6332,-3335.5269L13324.7103,-3335.555L13324.7421,-3335.5671L13324.7533,-3335.5717L13324.9692,-3335.6611L13325.2002,-3335.757L13325.2611,-3335.7812L13325.2906,-3335.7959L13325.3383,-3335.8269L13325.3699,-3335.8539L13325.4041,-3335.89L13325.433,-3335.9221L13325.4773,-3335.9632L13325.5001,-3335.9807L13325.523,-3335.9931L13325.5626,-3336.0106L13325.576,-3336.0174L13325.5928,-3336.0303L13325.6049,-3336.0438L13325.6156,-3336.0608L13325.616,-3336.0614L13325.6237,-3336.076L13325.6331,-3336.0918L13325.6828,-3336.2141L13325.6894,-3336.2294L13325.6918,-3336.2356L13325.6943,-3336.2417L13325.6962,-3336.2461L13325.6981,-3336.2506L13325.7291,-3336.3273L13325.7532,-3336.3871L13325.7809,-3336.4572L13325.7913,-3336.4872L13325.8076,-3336.5314L13325.8177,-3336.5629L13325.8197,-3336.5697L13325.8204,-3336.5815L13325.8174,-3336.5948L13325.8037,-3336.6564L13325.7969,-3336.6869L13325.7774,-3336.7489L13325.7727,-3336.7692L13325.7707,-3336.79L13325.7721,-3336.8092L13325.7768,-3336.8222L13325.7948,-3336.8432L13325.8119,-3336.8563L13326.0006,-3337.0012L13326.0116,-3337.0099L13326.0138,-3337.0115L13326.0386,-3337.0296L13326.0594,-3337.0386L13326.0762,-3337.0425L13326.0903,-3337.0436L13326.1125,-3337.0431L13326.1346,-3337.0386L13326.1635,-3337.0301L13326.244,-3337.0019L13326.2702,-3336.9946L13326.3024,-3336.9901L13326.3186,-3336.9896L13326.3285,-3336.9927L13326.3333,-3336.9986L13326.3381,-3337.0059L13326.3407,-3337.0121L13326.3424,-3337.0305L13326.334,-3337.0758L13326.3333,-3337.1017L13326.3347,-3337.1028L13326.3394,-3337.113L13326.3448,-3337.118L13326.3521,-3337.1226L13326.3797,-3337.1344L13326.3911,-3337.1423L13326.3985,-3337.1536L13326.3985,-3337.1744L13326.3864,-3337.2184L13326.3864,-3337.2381L13326.3898,-3337.2482L13326.3965,-3337.2601L13326.4086,-3337.2697L13326.4092,-3337.2697L13326.4166,-3337.2736L13326.4274,-3337.277L13326.5173,-3337.2894L13326.5294,-3337.2911L13326.6081,-3337.3025L13326.6343,-3337.3063L13326.7805,-3337.3295L13326.8016,-3337.3317L13326.8229,-3337.3339L13326.8503,-3337.3379L13326.8792,-3337.3452L13326.8933,-3337.3491L13326.9161,-3337.3604L13326.9309,-3337.3734L13326.9363,-3337.3805L13326.9667,-3337.4201L13327.0143,-3337.4821L13327.1644,-3337.686L13327.1824,-3337.7105L13327.19,-3337.7188L13327.2055,-3337.738L13327.2699,-3337.8231L13327.3028,-3337.8648L13327.3096,-3337.8777L13327.3149,-3337.8981L13327.3163,-3337.9229L13327.3143,-3337.9403L13327.3022,-3337.9724L13327.2847,-3338.004L13327.2733,-3338.0282L13327.2686,-3338.0468L13327.2686,-3338.0733L13327.2779,-3338.106L13327.2867,-3338.1263L13327.2934,-3338.1381L13327.3055,-3338.1646L13327.3095,-3338.1889L13327.3082,-3338.2035L13327.2988,-3338.2221L13327.2565,-3338.2931L13327.2001,-3338.3895L13327.192,-3338.4143L13327.1897,-3338.4237L13327.1894,-3338.4319L13327.1914,-3338.4476L13327.1954,-3338.4606L13327.2034,-3338.4768L13327.2377,-3338.5287L13327.26,-3338.5598L13327.2692,-3338.5727L13327.2706,-3338.5744L13327.3041,-3338.6182L13327.3065,-3338.6216L13327.3827,-3338.7226L13327.3968,-3338.7427L13327.4026,-3338.7511L13327.4712,-3338.8459L13327.4878,-3338.8454L13327.5101,-3338.8434L13327.5339,-3338.8407L13327.5598,-3338.8354L13327.5801,-3338.8313L13327.6036,-3338.8268L13327.6445,-3338.8189L13327.7406,-3338.8003L13327.7546,-3338.7987L13327.7815,-3338.7924L13327.8097,-3338.7874L13327.8198,-3338.7846L13327.8708,-3338.775L13327.8909,-3338.7693L13327.9669,-3338.8739L13328.0403,-3338.9766L13328.0756,-3339.0246L13328.0829,-3339.0342L13328.0917,-3339.0472L13328.1158,-3339.0776L13328.1598,-3339.1357L13328.1702,-3339.1503L13328.1937,-3339.1813L13328.2261,-3339.2194L13328.2373,-3339.2326L13328.2676,-3339.2676L13328.2756,-3339.2771L13328.3025,-3339.3076L13328.3401,-3339.3504L13328.3515,-3339.3622L13328.3629,-3339.3803L13328.3716,-3339.4045L13328.3723,-3339.4445L13328.3696,-3339.5014L13328.3656,-3339.5516L13328.3636,-3339.5702L13328.3609,-3339.6102L13328.3589,-3339.641L13328.3562,-3339.6846L13328.3535,-3339.7556L13328.3481,-3339.8438"/>
<path content="1,高知西南交通（株）,しまんとブルーライナー　大阪線,1.0,1.0,1.0," xlink:title="1" d="M13324.2188,-3335.3651L13324.229,-3335.3669L13324.2399,-3335.3706L13324.249,-3335.3736L13324.269,-3335.3835L13324.4006,-3335.4342L13324.4767,-3335.4638L13324.515,-3335.4804L13324.5962,-3335.5114L13324.6332,-3335.5269L13324.7103,-3335.555L13324.7421,-3335.5671L13324.7533,-3335.5717L13324.9692,-3335.6611L13325.2002,-3335.757L13325.2611,-3335.7812L13325.2906,-3335.7959L13325.3383,-3335.8269L13325.3699,-3335.8539L13325.4041,-3335.89L13325.433,-3335.9221L13325.4773,-3335.9632L13325.5001,-3335.9807L13325.523,-3335.9931L13325.5626,-3336.0106L13325.576,-3336.0174L13325.5928,-3336.0303L13325.6049,-3336.0438L13325.6156,-3336.0608L13325.616,-3336.0614L13325.6237,-3336.076L13325.6331,-3336.0918L13325.6828,-3336.2141L13325.6894,-3336.2294L13325.6918,-3336.2356L13325.6943,-3336.2417L13325.6962,-3336.2461L13325.6981,-3336.2506L13325.7291,-3336.3273L13325.7532,-3336.3871L13325.7809,-3336.4572L13325.7913,-3336.4872L13325.8076,-3336.5314L13325.8177,-3336.5629L13325.8197,-3336.5697L13325.8204,-3336.5815L13325.8174,-3336.5948L13325.8037,-3336.6564L13325.7969,-3336.6869L13325.7774,-3336.7489L13325.7727,-3336.7692L13325.7707,-3336.79L13325.7721,-3336.8092L13325.7768,-3336.8222L13325.7948,-3336.8432L13325.8119,-3336.8563L13326.0006,-3337.0012L13326.0116,-3337.0099L13326.0138,-3337.0115L13326.0386,-3337.0296L13326.0594,-3337.0386L13326.0762,-3337.0425L13326.0903,-3337.0436L13326.1125,-3337.0431L13326.1346,-3337.0386L13326.1635,-3337.0301L13326.244,-3337.0019L13326.2702,-3336.9946L13326.3024,-3336.9901L13326.3186,-3336.9896L13326.3285,-3336.9927L13326.3333,-3336.9986L13326.3381,-3337.0059L13326.3407,-3337.0121L13326.3424,-3337.0305L13326.334,-3337.0758L13326.3333,-3337.1017L13326.3347,-3337.1028L13326.3394,-3337.113L13326.3448,-3337.118L13326.3521,-3337.1226L13326.3797,-3337.1344L13326.3911,-3337.1423L13326.3985,-3337.1536L13326.3985,-3337.1744L13326.3864,-3337.2184L13326.3864,-3337.2381L13326.3898,-3337.2482L13326.3965,-3337.2601L13326.4086,-3337.2697L13326.4092,-3337.2697L13326.4166,-3337.2736L13326.4274,-3337.277L13326.5173,-3337.2894L13326.5294,-3337.2911L13326.6081,-3337.3025L13326.6343,-3337.3063L13326.7805,-3337.3295L13326.8016,-3337.3317L13326.8229,-3337.3339L13326.8503,-3337.3379L13326.8792,-3337.3452L13326.8933,-3337.3491L13326.9161,-3337.3604L13326.9309,-3337.3734L13326.9363,-3337.3805L13326.9667,-3337.4201L13327.0143,-3337.4821L13327.1644,-3337.686L13327.1824,-3337.7105L13327.19,-3337.7188L13327.2055,-3337.738L13327.2699,-3337.8231L13327.3028,-3337.8648L13327.3096,-3337.8777L13327.3149,-3337.8981L13327.3163,-3337.9229L13327.3143,-3337.9403L13327.3022,-3337.9724L13327.2847,-3338.004L13327.2733,-3338.0282L13327.2686,-3338.0468L13327.2686,-3338.0733L13327.2779,-3338.106L13327.2867,-3338.1263L13327.2934,-3338.1381L13327.3055,-3338.1646L13327.3095,-3338.1889L13327.3082,-3338.2035L13327.2988,-3338.2221L13327.2565,-3338.2931L13327.2001,-3338.3895L13327.192,-3338.4143L13327.1897,-3338.4237L13327.1894,-3338.4319L13327.1914,-3338.4476L13327.1954,-3338.4606L13327.2034,-3338.4768L13327.2377,-3338.5287L13327.26,-3338.5598L13327.2692,-3338.5727L13327.2706,-3338.5744L13327.3041,-3338.6182L13327.3065,-3338.6216L13327.3827,-3338.7226L13327.3968,-3338.7427L13327.4026,-3338.7511L13327.4712,-3338.8459L13327.4878,-3338.8454L13327.5101,-3338.8434L13327.5339,-3338.8407L13327.5598,-3338.8354L13327.5801,-3338.8313L13327.6036,-3338.8268L13327.6445,-3338.8189L13327.7406,-3338.8003L13327.7546,-3338.7987L13327.7815,-3338.7924L13327.8097,-3338.7874L13327.8198,-3338.7846L13327.8708,-3338.775L13327.8909,-3338.7693L13327.9669,-3338.8739L13328.0403,-3338.9766L13328.0756,-3339.0246L13328.0829,-3339.0342L13328.0917,-3339.0472L13328.1158,-3339.0776L13328.1598,-3339.1357L13328.1702,-3339.1503L13328.1937,-3339.1813L13328.2261,-3339.2194L13328.2373,-3339.2326L13328.2676,-3339.2676L13328.2756,-3339.2771L13328.3025,-3339.3076L13328.3401,-3339.3504L13328.3515,-3339.3622L13328.3629,-3339.3803L13328.3716,-3339.4045L13328.3723,-3339.4445L13328.3696,-3339.5014L13328.3656,-3339.5516L13328.3636,-3339.5702L13328.3609,-3339.6102L13328.3589,-3339.641L13328.3562,-3339.6846L13328.3535,-3339.7556L13328.3481,-3339.8438"/>
<path content="1,高知高陵交通（株）,矢井賀～久礼～須崎線,10.0,10.0,10.0," xlink:title="1" d="M13329.2471,-3339.0821L13329.2861,-3339.081L13329.3271,-3339.081L13329.3271,-3339.0907L13329.3566,-3339.0918"/>
<path content="1,高知高陵交通（株）,矢井賀～久礼～須崎線,10.0,10.0,10.0," xlink:title="1" d="M13329.2471,-3339.0821L13329.1109,-3339.0829L13329.0918,-3339.0821L13329.0901,-3339.0821L13329.0883,-3339.0821L13329.0182,-3339.0821L13328.9554,-3339.0835L13328.863,-3339.0844L13328.8272,-3339.0847L13328.802,-3339.0849L13328.7812,-3339.0844L13328.7723,-3339.0856L13328.6896,-3339.0849L13328.6711,-3339.0849L13328.6006,-3339.0861L13328.5361,-3339.0917L13328.5099,-3339.0951L13328.4844,-3339.1041L13328.477,-3339.1066L13328.4703,-3339.1103L13328.4522,-3339.1199L13328.4374,-3339.1272L13328.4132,-3339.1436L13328.3898,-3339.1633L13328.373,-3339.1762L13328.3475,-3339.1988L13328.3226,-3339.2208L13328.2676,-3339.2676L13328.2373,-3339.2326L13328.2261,-3339.2194L13328.1937,-3339.1813L13328.1702,-3339.1503L13328.1598,-3339.1357L13328.1425,-3339.1084L13328.1158,-3339.0776L13328.0917,-3339.0472L13328.0829,-3339.0342L13328.0756,-3339.0246L13328.0403,-3338.9766L13327.9669,-3338.8739L13327.8909,-3338.7693L13327.8708,-3338.775L13327.8198,-3338.7846L13327.8097,-3338.7874L13327.7834,-3338.7912L13327.7546,-3338.7987L13327.7406,-3338.8003L13327.6445,-3338.8189L13327.6036,-3338.8268L13327.5801,-3338.8313L13327.5598,-3338.8354L13327.5339,-3338.8407L13327.5101,-3338.8434L13327.4878,-3338.8454L13327.4689,-3338.8437L13327.4026,-3338.7511L13327.3968,-3338.7427L13327.3827,-3338.7226L13327.3065,-3338.6216L13327.3041,-3338.6182L13327.2706,-3338.5744L13327.2692,-3338.5727L13327.26,-3338.5598L13327.2377,-3338.5287L13327.2034,-3338.4768L13327.1954,-3338.4606L13327.1946,-3338.4566L13327.1914,-3338.4476L13327.1894,-3338.4319L13327.1897,-3338.4237L13327.192,-3338.4143L13327.2001,-3338.3895L13327.2565,-3338.2931L13327.2988,-3338.2221L13327.3082,-3338.2035L13327.3095,-3338.1889L13327.3055,-3338.1646L13327.2934,-3338.1381L13327.2867,-3338.1263L13327.2779,-3338.106L13327.2686,-3338.0733L13327.2686,-3338.0468L13327.2733,-3338.0282L13327.2847,-3338.004L13327.3022,-3337.9724L13327.3143,-3337.9403L13327.3163,-3337.9229L13327.3149,-3337.8981L13327.3096,-3337.8777L13327.3028,-3337.8648L13327.2699,-3337.8231L13327.2055,-3337.738L13327.19,-3337.7188L13327.1824,-3337.7105L13327.1644,-3337.686L13327.0143,-3337.4821L13326.9667,-3337.4201L13326.9363,-3337.3805L13326.9309,-3337.3734L13326.9161,-3337.3604L13326.8933,-3337.3491L13326.8792,-3337.3452L13326.8503,-3337.3379L13326.8229,-3337.3339L13326.8016,-3337.3317L13326.7805,-3337.3295L13326.6343,-3337.3063L13326.6081,-3337.3025L13326.5953,-3337.3017L13326.5294,-3337.2911L13326.5173,-3337.2894L13326.4274,-3337.277L13326.4166,-3337.2736L13326.4092,-3337.2697L13326.4086,-3337.2697L13326.3965,-3337.2601L13326.3898,-3337.2482L13326.3864,-3337.2381L13326.3864,-3337.2184L13326.3985,-3337.1744L13326.3985,-3337.1536L13326.3911,-3337.1423L13326.3797,-3337.1344L13326.3528,-3337.1231L13326.3448,-3337.118L13326.3394,-3337.113L13326.3347,-3337.1028L13326.3333,-3337.1017L13326.334,-3337.0758L13326.3424,-3337.0305L13326.3407,-3337.0121L13326.3381,-3337.0059L13326.3333,-3336.9986L13326.3285,-3336.9927L13326.3186,-3336.9896L13326.3024,-3336.9901L13326.2702,-3336.9946L13326.2467,-3337.0012L13326.244,-3337.0019L13326.1635,-3337.0301L13326.1346,-3337.0386L13326.1125,-3337.0431L13326.0903,-3337.0436L13326.0762,-3337.0425L13326.0594,-3337.0386L13326.0386,-3337.0296L13326.0138,-3337.0115L13326.0116,-3337.0099L13326.0006,-3337.0012L13325.8119,-3336.8563L13325.7948,-3336.8432L13325.7768,-3336.8222L13325.7721,-3336.8092L13325.7707,-3336.79L13325.7727,-3336.7692L13325.7774,-3336.7489L13325.7969,-3336.6869L13325.8021,-3336.6623L13325.8037,-3336.6564L13325.8174,-3336.5948L13325.8204,-3336.5815L13325.8197,-3336.5697L13325.8177,-3336.5629L13325.8076,-3336.5314L13325.7913,-3336.4872L13325.7809,-3336.4572L13325.7549,-3336.3906L13325.7532,-3336.3871L13325.7291,-3336.3273L13325.6981,-3336.2506L13325.6962,-3336.2461L13325.6943,-3336.2417L13325.6918,-3336.2356L13325.6894,-3336.2294L13325.6828,-3336.2141L13325.6331,-3336.0918L13325.6237,-3336.076L13325.616,-3336.0614L13325.6156,-3336.0608L13325.6049,-3336.0438L13325.5928,-3336.0303L13325.576,-3336.0174L13325.5626,-3336.0106L13325.523,-3335.9931L13325.5001,-3335.9807L13325.4773,-3335.9632L13325.433,-3335.9221L13325.4041,-3335.89L13325.3699,-3335.8539L13325.3383,-3335.8269L13325.2906,-3335.7959L13325.2611,-3335.7812L13325.2002,-3335.757L13324.9692,-3335.6611L13324.7533,-3335.5717L13324.7421,-3335.5671L13324.7103,-3335.555L13324.6332,-3335.5269L13324.5962,-3335.5114L13324.515,-3335.4804L13324.4767,-3335.4638L13324.4006,-3335.4342L13324.269,-3335.3835L13324.249,-3335.3736L13324.2399,-3335.3706L13324.229,-3335.3669L13324.2188,-3335.3651M13324.2187,-3325.2681L13324.2425,-3325.2554L13324.284,-3325.2329L13324.3261,-3325.2092L13324.3511,-3325.1957L13324.4087,-3325.1636L13324.4341,-3325.1489L13324.4562,-3325.1376L13324.5286,-3325.0971L13324.5367,-3325.092L13324.5394,-3325.0897L13324.6091,-3325.0289L13324.6345,-3325.0081L13324.6814,-3324.9641L13324.6921,-3324.95L13324.6951,-3324.9444L13324.6975,-3324.9348L13324.6975,-3324.9077L13324.7002,-3324.8689L13324.7022,-3324.8565L13324.7029,-3324.8339L13324.6935,-3324.7967L13324.6901,-3324.7866L13324.6892,-3324.778L13324.6888,-3324.7736L13324.6888,-3324.755L13324.6955,-3324.7409L13324.7136,-3324.7116L13324.7256,-3324.6891L13324.7424,-3324.6545L13324.7463,-3324.6455L13324.7456,-3324.634L13324.7424,-3324.6259L13324.7256,-3324.6091L13324.6948,-3324.573L13324.6881,-3324.5651L13324.6841,-3324.5623L13324.6767,-3324.5516L13324.6714,-3324.5358L13324.6707,-3324.4879L13324.6754,-3324.4389L13324.6754,-3324.4379L13324.6779,-3324.3965"/>
<path content="1,高知高陵交通（株）,矢井賀～久礼～須崎線,10.0,10.0,10.0," xlink:title="1" d="M13329.3566,-3339.0918L13329.3581,-3339.0847L13329.3559,-3339.0524L13329.3535,-3339.0351L13329.3499,-3339.0089L13329.3481,-3338.9926L13329.345,-3338.9835L13329.3402,-3338.9785L13329.3361,-3338.9762L13329.3284,-3338.974L13329.3271,-3338.9424L13329.3043,-3338.917"/>
<path content="1,高知高陵交通（株）,矢井賀～久礼～須崎線,10.0,10.0,10.0," xlink:title="1" d="M13329.224,-3339.2315L13329.2357,-3339.1875L13329.2411,-3339.1611L13329.2412,-3339.1599L13329.2418,-3339.1554L13329.2471,-3339.0821"/>
<path content="1,高知高陵交通（株）,矢井賀～久礼～須崎線,10.0,10.0,10.0," xlink:title="1" d="M13329.224,-3339.2315L13329.2645,-3339.2411L13329.2948,-3339.2467L13329.3069,-3339.2298L13329.321,-3339.2101L13329.3452,-3339.1734L13329.3492,-3339.1639L13329.3506,-3339.1605L13329.3546,-3339.1464L13329.3566,-3339.0918"/>
<path content="1,高知高陵交通（株）,矢井賀～久礼～須崎線,10.0,10.0,10.0," xlink:title="1" d="M13328.8971,-3339.8438L13328.8993,-3339.8413L13328.9168,-3339.8249L13328.9463,-3339.8001L13328.9584,-3339.7872L13328.9792,-3339.7568L13329.041,-3339.6592L13329.133,-3339.5161L13329.1498,-3339.4879L13329.1699,-3339.4327L13329.1719,-3339.4254L13329.1768,-3339.4106L13329.1928,-3339.3487L13329.1948,-3339.3448L13329.1954,-3339.3374L13329.2055,-3339.3008L13329.224,-3339.2315"/>
<path content="1,高知高陵交通（株）,須崎～杉の川～新田～梼原線,12.9,10.9,10.9," xlink:title="1" d="M13324.6754,-3339.8438L13324.683,-3339.8359L13324.7108,-3339.807L13324.7139,-3339.8038L13324.7204,-3339.7983L13324.7327,-3339.788L13324.7421,-3339.7824L13324.7529,-3339.7714L13324.7998,-3339.7336L13324.8388,-3339.7071L13324.869,-3339.6891L13324.8931,-3339.6767L13324.8974,-3339.6746L13324.9354,-3339.6586L13324.9905,-3339.6406L13325.0375,-3339.6254L13325.0726,-3339.6116L13325.0959,-3339.6051L13325.1129,-3339.5996L13325.1865,-3339.5758L13325.206,-3339.5696L13325.2141,-3339.5668L13325.2965,-3339.5404L13325.3671,-3339.5178L13325.3806,-3339.5127L13325.5791,-3339.449L13325.6841,-3339.4124L13325.7128,-3339.4041L13325.7244,-3339.4002L13325.7429,-3339.394L13325.751,-3339.3913L13325.7649,-3339.3866L13325.8507,-3339.3597L13325.9121,-3339.3404L13325.9503,-3339.3267L13325.988,-3339.3118L13326.0792,-3339.2676L13326.1034,-3339.255L13326.1171,-3339.2478L13326.1345,-3339.2405L13326.15,-3339.236L13326.1733,-3339.2294L13326.1943,-3339.2245L13326.2334,-3339.2191L13326.2339,-3339.2191L13326.2507,-3339.2174L13326.3293,-3339.2151L13326.3716,-3339.2129L13326.4159,-3339.2112L13326.4442,-3339.2102L13326.4682,-3339.2094L13326.4813,-3339.2083L13326.4931,-3339.2056L13326.527,-3339.1961L13326.5475,-3339.1903L13326.571,-3339.183L13326.5936,-3339.1765L13326.6153,-3339.1712L13326.6406,-3339.165L13326.6898,-3339.1531L13326.724,-3339.1441L13326.7442,-3339.1396L13326.7663,-3339.1345L13326.7939,-3339.1266L13326.8496,-3339.1069L13326.8872,-3339.0911L13326.9174,-3339.0754L13326.9413,-3339.0638L13326.9657,-3339.0461L13327.0342,-3338.9998L13327.096,-3338.9525L13327.1188,-3338.9339L13327.1277,-3338.9293L13327.1349,-3338.9254L13327.1779,-3338.9108L13327.2276,-3338.8967L13327.2471,-3338.8899L13327.2549,-3338.8882L13327.2766,-3338.8758L13327.2813,-3338.8731L13327.3142,-3338.8601L13327.337,-3338.8528L13327.3693,-3338.8483L13327.4183,-3338.8466L13327.4478,-3338.8466L13327.4689,-3338.8437L13327.4878,-3338.8454L13327.5101,-3338.8434L13327.5339,-3338.8407L13327.5598,-3338.8354L13327.5801,-3338.8313L13327.6036,-3338.8268L13327.6445,-3338.8189L13327.7406,-3338.8003L13327.7546,-3338.7987L13327.7834,-3338.7912L13327.8097,-3338.7874L13327.8198,-3338.7846L13327.8708,-3338.775L13327.8909,-3338.7693L13327.9669,-3338.8739L13328.0403,-3338.9766L13328.0756,-3339.0246L13328.0829,-3339.0342L13328.0917,-3339.0472L13328.1158,-3339.0776L13328.1425,-3339.1084L13328.1598,-3339.1357L13328.1702,-3339.1503L13328.1937,-3339.1813L13328.2261,-3339.2194L13328.2373,-3339.2326L13328.2676,-3339.2676L13328.3226,-3339.2208L13328.3475,-3339.1988L13328.373,-3339.1762L13328.3898,-3339.1633L13328.4132,-3339.1436L13328.4159,-3339.1407L13328.4374,-3339.1272L13328.4522,-3339.1199L13328.4703,-3339.1103L13328.477,-3339.1066L13328.4844,-3339.1041L13328.5099,-3339.0951L13328.5361,-3339.0917L13328.6006,-3339.0861L13328.6711,-3339.0849L13328.6896,-3339.0849L13328.7723,-3339.0856L13328.7812,-3339.0844L13328.802,-3339.0849L13328.8272,-3339.0847L13328.863,-3339.0844L13328.9554,-3339.0835L13329.065,-3339.0821L13329.0883,-3339.0821L13329.0901,-3339.0821L13329.0918,-3339.0821L13329.1109,-3339.0829L13329.2471,-3339.0821L13329.2418,-3339.1554L13329.2412,-3339.1599L13329.2411,-3339.1611L13329.2357,-3339.1875L13329.224,-3339.2315L13329.2645,-3339.2411L13329.2948,-3339.2467L13329.3069,-3339.2298L13329.321,-3339.2101L13329.3452,-3339.1734L13329.3492,-3339.1639L13329.3506,-3339.1605L13329.3546,-3339.1464L13329.3566,-3339.0918L13329.3581,-3339.0847L13329.3559,-3339.0524L13329.3535,-3339.0351L13329.3499,-3339.0089L13329.3481,-3338.9926L13329.345,-3338.9835L13329.3402,-3338.9785L13329.3361,-3338.9762L13329.3284,-3338.974L13329.3271,-3338.9424L13329.3043,-3338.917"/>
<path content="1,（有）高南観光自動車,久礼駅前～大野線,1.0,1.0,1.0," xlink:title="1" d="M13325.056,-3333.4509L13325.0259,-3333.434L13324.9829,-3333.4104L13324.9461,-3333.3906L13324.9394,-3333.3864L13324.9313,-3333.363L13324.9179,-3333.3326L13324.9152,-3333.323L13324.9072,-3333.3039L13324.9065,-3333.2469L13324.8998,-3333.2109L13324.8951,-3333.1951L13324.8884,-3333.181L13324.8857,-3333.1776L13324.873,-3333.1551L13324.8669,-3333.1404L13324.8626,-3333.1131L13324.8596,-3333.1044L13324.8491,-3333.1027L13324.8381,-3333.1027L13324.8241,-3333.1062L13324.7898,-3333.1179L13324.765,-3333.128L13324.7422,-3333.1401L13324.7181,-3333.1517L13324.6751,-3333.1681L13324.657,-3333.172L13324.6402,-3333.1742L13324.6188,-3333.1754L13324.6027,-3333.1776L13324.5832,-3333.1827L13324.5671,-3333.1895L13324.5598,-3333.1934L13324.4947,-3333.2294L13324.4631,-3333.2424L13324.4462,-3333.2527L13324.4358,-3333.2622L13324.4259,-3333.2734L13324.4154,-3333.2894L13324.4076,-3333.3053L13324.403,-3333.3213L13324.3981,-3333.3427L13324.3968,-3333.367L13324.4035,-3333.4098L13324.4088,-3333.4447L13324.4081,-3333.4678L13324.4028,-3333.4836L13324.3928,-3333.4949L13324.3787,-3333.505L13324.3632,-3333.5118L13324.3491,-3333.5152L13324.3411,-3333.5163L13324.3042,-3333.5169L13324.2787,-3333.5135L13324.2438,-3333.5067L13324.2385,-3333.5056L13324.2188,-3333.5002"/>
<path content="1,（有）高南観光自動車,窪川～志和線,3.0,3.0,3.0," xlink:title="1" d="M13324.2188,-3322.8644L13324.2257,-3322.866L13324.2323,-3322.8681L13324.2793,-3322.8812L13324.3008,-3322.8908L13324.325,-3322.9024L13324.3463,-3322.9156L13324.3644,-3322.9241L13324.4033,-3322.9331L13324.4649,-3322.9461L13324.4743,-3322.95L13324.5494,-3322.9788L13324.5983,-3323.0002L13324.6553,-3323.0289L13324.67,-3323.0346L13324.6967,-3323.0353L13324.7424,-3323.0378L13324.7759,-3323.0419L13324.8015,-3323.0482L13324.8288,-3323.0554L13324.8322,-3323.0571L13324.8449,-3323.0605L13324.9047,-3323.0814L13324.9151,-3323.0848"/>
<path content="3,須崎市,市営バス,8.0,8.0,8.0," xlink:title="3" d="M13331.0061,-3335.7694L13331.0154,-3335.7618L13331.0252,-3335.7563L13331.0345,-3335.7527L13331.0458,-3335.7503L13331.1064,-3335.743L13331.1352,-3335.7402L13331.1898,-3335.7342L13331.2554,-3335.7278L13331.2762,-3335.7283L13331.2943,-3335.734L13331.3084,-3335.7424L13331.3386,-3335.7644L13331.3467,-3335.7672L13331.3635,-3335.7695L13331.3897,-3335.7695L13331.4024,-3335.7678L13331.4071,-3335.7672L13331.4145,-3335.7639L13331.4231,-3335.7576L13331.4488,-3335.7391L13331.4568,-3335.7351L13331.4615,-3335.7334L13331.4864,-3335.7348L13331.5024,-3335.7357L13331.5555,-3335.7424L13331.5837,-3335.7458L13331.6129,-3335.7523L13331.6193,-3335.7537L13331.6663,-3335.7672L13331.7046,-3335.7802L13331.7106,-3335.7841L13331.7187,-3335.7909L13331.7234,-3335.7991L13331.7247,-3335.8011L13331.7287,-3335.8196L13331.7294,-3335.8631L13331.7314,-3335.8676L13331.7569,-3335.8867L13331.7623,-3335.8963L13331.7737,-3335.9273L13331.7743,-3335.9432L13331.7744,-3335.9453L13331.7703,-3335.987L13331.767,-3336.0039L13331.7616,-3336.018L13331.7462,-3336.0372L13331.7381,-3336.049L13331.7375,-3336.0541L13331.7442,-3336.0772L13331.7449,-3336.0992L13331.7348,-3336.1279L13331.7334,-3336.1364L13331.7315,-3336.166L13331.7227,-3336.1905L13331.7216,-3336.1923L13331.7113,-3336.2113L13331.6938,-3336.2361L13331.6831,-3336.2564L13331.6797,-3336.2677L13331.6804,-3336.2784L13331.6864,-3336.2885L13331.6958,-3336.2959L13331.7079,-3336.2981L13331.7187,-3336.2976L13331.7449,-3336.2908L13331.763,-3336.284L13331.7663,-3336.2818L13331.8147,-3336.2637L13331.8415,-3336.2536L13331.8522,-3336.2485L13331.8858,-3336.2226L13331.8966,-3336.2158L13331.9026,-3336.2136L13331.9114,-3336.2119L13331.9201,-3336.2085L13331.9254,-3336.2034L13331.9295,-3336.195L13331.9335,-3336.1764L13331.9362,-3336.1724L13331.9423,-3336.1685L13331.9906,-3336.1505L13332.0027,-3336.1493L13332.0101,-3336.1516L13332.0188,-3336.1584L13332.0309,-3336.173L13332.0416,-3336.1809L13332.0483,-3336.1837L13332.0725,-3336.1843L13332.0812,-3336.1882L13332.0873,-3336.195L13332.1101,-3336.2316L13332.1188,-3336.2418L13332.1389,-3336.2587L13332.1584,-3336.2688L13332.1766,-3336.2744L13332.1839,-3336.2761L13332.188,-3336.2778L13332.2088,-3336.2835L13332.2329,-3336.2908L13332.2484,-3336.2976L13332.2544,-3336.3032L13332.2578,-3336.3099L13332.2591,-3336.319L13332.2538,-3336.3494L13332.2544,-3336.3596L13332.2598,-3336.3641L13332.2686,-3336.3646L13332.2766,-3336.3601L13332.3166,-3336.3213L13332.3257,-3336.3185L13332.3332,-3336.3185L13332.3444,-3336.3257L13332.3538,-3336.3359L13332.3622,-3336.3486L13332.3639,-3336.3511L13332.3639,-3336.3669L13332.3619,-3336.3804L13332.3619,-3336.4001L13332.3679,-3336.4125L13332.3739,-3336.4182L13332.3788,-3336.4192L13332.3847,-3336.4182L13332.3907,-3336.4131L13332.4062,-3336.3934L13332.4115,-3336.3877L13332.4169,-3336.3849L13332.4238,-3336.3843L13332.4464,-3336.3911L13332.4606,-3336.3934L13332.4767,-3336.3945L13332.4821,-3336.3962L13332.4868,-3336.4024L13332.4914,-3336.4148L13332.4975,-3336.4334L13332.5029,-3336.4424L13332.5062,-3336.4458L13332.5138,-3336.4501L13332.5191,-3336.4524L13332.5243,-3336.4537L13332.5613,-3336.4542L13332.5713,-3336.4571L13332.6009,-3336.4779L13332.615,-3336.4937L13332.6251,-3336.5084L13332.6277,-3336.5168L13332.6277,-3336.5365L13332.6123,-3336.576L13332.6063,-3336.5833L13332.5666,-3336.6075L13332.5626,-3336.612L13332.5599,-3336.6233L13332.5586,-3336.6385L13332.5458,-3336.6537L13332.5391,-3336.6656L13332.5351,-3336.6831L13332.5284,-3336.6921L13332.5049,-3336.7028L13332.4941,-3336.7107L13332.48,-3336.7253L13332.4787,-3336.7304L13332.4787,-3336.7309L13332.4821,-3336.7382L13332.4847,-3336.7411L13332.5042,-3336.754L13332.5122,-3336.767L13332.5149,-3336.7845L13332.5136,-3336.7901L13332.5029,-3336.8138L13332.5015,-3336.8189L13332.5042,-3336.8318L13332.5149,-3336.8403L13332.5284,-3336.8465L13332.5458,-3336.8561L13332.5626,-3336.8696L13332.572,-3336.8854L13332.5774,-3336.8944L13332.6002,-3336.9107L13332.6063,-3336.9158L13332.6116,-3336.9259L13332.6116,-3336.9423L13332.6083,-3336.9513L13332.5821,-3336.9812L13332.5646,-3337.0037L13332.5646,-3337.011L13332.57,-3337.0172L13332.6096,-3337.0465L13332.6163,-3337.0561L13332.6163,-3337.0651L13332.615,-3337.0674L13332.6103,-3337.0736L13332.5996,-3337.0798L13332.5841,-3337.0854L13332.5532,-3337.0922L13332.5357,-3337.0984L13332.5297,-3337.1018L13332.5223,-3337.1085L13332.5203,-3337.1119L13332.5203,-3337.1232L13332.5223,-3337.1288L13332.5291,-3337.1356L13332.5485,-3337.1424L13332.5774,-3337.1514L13332.5901,-3337.1564L13332.5989,-3337.1615L13332.6103,-3337.1717L13332.6089,-3337.2049L13332.615,-3337.2224L13332.6163,-3337.2319L13332.615,-3337.2359L13332.5955,-3337.2517L13332.5767,-3337.2618L13332.5754,-3337.2618L13332.5687,-3337.2674L13332.5619,-3337.2753L13332.564,-3337.2889L13332.572,-3337.3148L13332.5734,-3337.3278L13332.5713,-3337.3362L13332.564,-3337.3447L13332.5552,-3337.3497L13332.5351,-3337.3571L13332.5237,-3337.3599L13332.5096,-3337.3593L13332.4841,-3337.3531L13332.4633,-3337.3526L13332.4529,-3337.3546L13332.4491,-3337.3554L13332.4344,-3337.3604L13332.4189,-3337.3678L13332.4129,-3337.3723L13332.4087,-3337.3765L13332.4068,-3337.379L13332.3981,-3337.3897L13332.3941,-3337.392L13332.3672,-3337.3999L13332.3625,-3337.4027L13332.3531,-3337.4123L13332.3497,-3337.4196L13332.3471,-3337.4376L13332.3437,-3337.4455L13332.3363,-3337.4518L13332.3242,-3337.4574L13332.3001,-3337.4641L13332.28,-3337.4669L13332.2383,-3337.4703L13332.2343,-3337.4732L13332.2303,-3337.4788L13332.2256,-3337.4946L13332.2215,-3337.503L13332.2021,-3337.5239L13332.198,-3337.5329L13332.1984,-3337.5398L13332.2027,-3337.5482L13332.2074,-3337.5538L13332.2182,-3337.5583L13332.2813,-3337.5645L13332.2921,-3337.5667L13332.3034,-3337.5729L13332.3108,-3337.5813L13332.3189,-3337.6056L13332.3283,-3337.6309L13332.3343,-3337.6377L13332.3457,-3337.6383L13332.3558,-3337.636L13332.3854,-3337.6208L13332.3934,-3337.618L13332.4075,-3337.6169L13332.4317,-3337.6281L13332.4444,-3337.6354L13332.472,-3337.6563L13332.4868,-3337.671L13332.4975,-3337.6834L13332.5022,-3337.6918L13332.5096,-3337.7027L13332.5122,-3337.7121L13332.5169,-3337.733L13332.519,-3337.7702L13332.5176,-3337.7871L13332.5069,-3337.8406L13332.5049,-3337.8738L13332.5042,-3337.8761L13332.4995,-3337.8857L13332.4841,-3337.8986L13332.4515,-3337.9225L13332.4277,-3337.9494L13332.4035,-3337.9826L13332.3981,-3337.9882L13332.3854,-3337.9973L13332.3706,-3338.0024L13332.3027,-3338.0159L13332.2868,-3338.0213L13332.2766,-3338.0266L13332.2531,-3338.0418L13332.2242,-3338.0677L13332.2068,-3338.0908L13332.2014,-3338.1026L13332.198,-3338.1269L13332.194,-3338.1861L13332.1907,-3338.2052L13332.1772,-3338.23L13332.1678,-3338.2419L13332.1484,-3338.2644L13332.1369,-3338.275L13332.1215,-3338.2892L13332.0913,-3338.3117L13332.0819,-3338.3174L13332.0772,-3338.3204L13332.0371,-3338.3328L13332.0309,-3338.3341L13332.0205,-3338.3361L13332.0087,-3338.3377L13331.9771,-3338.3388L13331.9261,-3338.3371L13331.8751,-3338.3371L13331.8677,-3338.3365L13331.8413,-3338.3352L13331.7938,-3338.336L13331.7817,-3338.332L13331.767,-3338.3191L13331.7616,-3338.3067L13331.7616,-3338.2999L13331.7589,-3338.2757L13331.7522,-3338.2509L13331.7455,-3338.2379L13331.7421,-3338.2244L13331.7388,-3338.19L13331.7381,-3338.1872L13331.7354,-3338.1754L13331.7321,-3338.1703L13331.724,-3338.1579L13331.7079,-3338.1523L13331.6804,-3338.1523L13331.6676,-3338.1534L13331.626,-3338.1539L13331.6005,-3338.1466L13331.5964,-3338.1449L13331.5897,-3338.1421L13331.577,-3338.1376L13331.5602,-3338.1314L13331.5132,-3338.1145L13331.449,-3338.0897L13331.44,-3338.088L13331.4172,-3338.079L13331.4064,-3338.0711L13331.3923,-3338.0514L13331.3876,-3338.0418L13331.3849,-3338.0339L13331.3843,-3338.0221L13331.389,-3338.0051"/>
<path content="3,須崎市,市営バス,8.0,8.0,8.0," xlink:title="3" d="M13331.389,-3338.0051L13331.3937,-3337.9961L13331.401,-3337.9875L13331.4111,-3337.9809L13331.4615,-3337.9511L13331.4884,-3337.937L13331.5524,-3337.9087L13331.5528,-3337.8998L13331.5495,-3337.8738L13331.5434,-3337.8558L13331.536,-3337.8451L13331.5206,-3337.8344L13331.5031,-3337.8242L13331.4911,-3337.8192L13331.4769,-3337.8152L13331.4733,-3337.8143L13331.4527,-3337.8089L13331.4427,-3337.8068L13331.436,-3337.8045L13331.4272,-3337.7988"/>
<path content="3,須崎市,市営バス,8.0,8.0,8.0," xlink:title="3" d="M13331.389,-3338.0051L13331.3782,-3338.004L13331.3621,-3338.0046L13331.3474,-3338.0079L13331.3386,-3338.0102L13331.3185,-3338.0153L13331.2936,-3338.0226L13331.2856,-3338.0252L13331.2816,-3338.0237L13331.2775,-3338.0215L13331.2735,-3338.0136L13331.2688,-3337.9894L13331.2695,-3337.9753L13331.2735,-3337.9691L13331.2809,-3337.964L13331.2869,-3337.9623L13331.3074,-3337.9641L13331.3138,-3337.9646L13331.3265,-3337.9674L13331.3349,-3337.9685L13331.342,-3337.9674L13331.3456,-3337.9642L13331.3474,-3337.9601L13331.3507,-3337.9409L13331.3641,-3337.9105L13331.3648,-3337.9037L13331.3636,-3337.8968L13331.3594,-3337.8902L13331.3507,-3337.8874L13331.3353,-3337.8834L13331.3185,-3337.871L13331.3111,-3337.8693L13331.2936,-3337.8671L13331.2943,-3337.8676L13331.2863,-3337.8631L13331.2823,-3337.8597L13331.2695,-3337.8411L13331.2648,-3337.8366L13331.2594,-3337.8332L13331.252,-3337.8321L13331.2319,-3337.8338L13331.2164,-3337.8372L13331.2037,-3337.8372L13331.1963,-3337.8316L13331.1856,-3337.8085L13331.1782,-3337.7865L13331.1721,-3337.7752L13331.1668,-3337.7701L13331.1614,-3337.7679L13331.1372,-3337.7679L13331.1285,-3337.7724L13331.121,-3337.7803L13331.1157,-3337.8L13331.1144,-3337.8158L13331.1137,-3337.8485L13331.111,-3337.8671L13331.1063,-3337.8829L13331.0956,-3337.8998L13331.0875,-3337.906L13331.0848,-3337.9077L13331.0701,-3337.9077L13331.0586,-3337.9043L13331.0432,-3337.902L13331.0251,-3337.9031L13331.0123,-3337.9088L13331.0056,-3337.9127L13330.9902,-3337.9268L13330.9808,-3337.9409L13330.9741,-3337.9561L13330.972,-3337.9708L13330.97,-3338.0181L13330.9653,-3338.0277L13330.9579,-3338.0344L13330.9364,-3338.044L13330.9284,-3338.0519L13330.9237,-3338.0604L13330.9176,-3338.0779L13330.9143,-3338.0824L13330.9083,-3338.0869L13330.8888,-3338.0936L13330.872,-3338.0936L13330.8425,-3338.088L13330.8331,-3338.0886L13330.8264,-3338.0908L13330.8142,-3338.0987L13330.8096,-3338.1032L13330.7921,-3338.1289L13330.7874,-3338.1359L13330.772,-3338.1641L13330.7518,-3338.1804L13330.7451,-3338.1844L13330.7317,-3338.1935L13330.7188,-3338.2023L13330.6753,-3338.23L13330.6717,-3338.2317L13330.6675,-3338.232L13330.6624,-3338.2299L13330.6518,-3338.2227L13330.6457,-3338.2154L13330.6401,-3338.2077L13330.6323,-3338.1962L13330.6236,-3338.1866L13330.6068,-3338.1737L13330.5853,-3338.163L13330.5631,-3338.1556L13330.5477,-3338.1556L13330.5309,-3338.1618L13330.5148,-3338.1692L13330.5061,-3338.1692L13330.4974,-3338.1641L13330.494,-3338.1556L13330.496,-3338.1241L13330.4881,-3338.1159L13330.4779,-3338.1145L13330.4618,-3338.1156L13330.4443,-3338.1241L13330.4436,-3338.1241L13330.4329,-3338.1314L13330.4222,-3338.141L13330.4087,-3338.1596L13330.402,-3338.1759L13330.4,-3338.1866L13330.3993,-3338.2216L13330.3919,-3338.2464L13330.3886,-3338.2661L13330.3839,-3338.301L13330.3792,-3338.331L13330.3631,-3338.3562L13330.3483,-3338.3901L13330.3382,-3338.4143L13330.3288,-3338.4323L13330.3194,-3338.443L13330.265,-3338.4926L13330.2529,-3338.5078L13330.2429,-3338.5231L13330.2402,-3338.5287L13330.2396,-3338.5354L13330.2409,-3338.54L13330.2583,-3338.5597L13330.2617,-3338.5693L13330.261,-3338.5783L13330.2422,-3338.6268L13330.2382,-3338.6499L13330.2388,-3338.6763L13330.2409,-3338.6859L13330.2409,-3338.7023L13330.2335,-3338.7141L13330.2281,-3338.7203L13330.214,-3338.7395L13330.2066,-3338.7462L13330.1831,-3338.7502L13330.1609,-3338.7519L13330.1536,-3338.7547L13330.1368,-3338.7677L13330.1314,-3338.7739L13330.1254,-3338.7846L13330.126,-3338.797L13330.1281,-3338.8094L13330.1267,-3338.8223L13330.1207,-3338.8319L13330.0945,-3338.8629L13330.075,-3338.8888L13330.0656,-3338.9142L13330.0669,-3338.9367L13330.0716,-3338.9536L13330.0757,-3338.9638L13330.0784,-3338.9683L13330.0784,-3338.9824L13330.0737,-3338.9998L13330.0743,-3339.0128L13330.0831,-3339.0246L13330.0871,-3339.028L13330.0962,-3339.029L13330.1046,-3339.0275L13330.1207,-3339.0179L13330.1442,-3339.0049L13330.1603,-3338.9982L13330.1777,-3338.9982L13330.2308,-3339.0094L13330.2556,-3339.0134L13330.2711,-3339.0145L13330.2966,-3339.0184L13330.3241,-3339.0241L13330.3395,-3339.0314L13330.363,-3339.032L13330.3765,-3339.0337L13330.3886,-3339.0382L13330.4047,-3339.0472L13330.4421,-3339.0722L13330.451,-3339.0731L13330.4604,-3339.081L13330.4811,-3339.097L13330.4935,-3339.1074L13330.5007,-3339.1154L13330.5114,-3339.1323L13330.5114,-3339.143L13330.5114,-3339.1464L13330.5047,-3339.1667L13330.498,-3339.1819L13330.4705,-3339.2315L13330.4651,-3339.2422L13330.4503,-3339.2613L13330.4389,-3339.2704L13330.4329,-3339.2738L13330.4053,-3339.2839L13330.3933,-3339.2895L13330.3879,-3339.2957L13330.3684,-3339.3222L13330.3556,-3339.3329L13330.3503,-3339.3352L13330.3335,-3339.3408L13330.314,-3339.3431L13330.218,-3339.3442L13330.2079,-3339.3453L13330.2014,-3339.3464L13330.1972,-3339.3481L13330.1871,-3339.3735L13330.1784,-3339.3876L13330.1576,-3339.4135L13330.122,-3339.4564L13330.1146,-3339.4665L13330.0975,-3339.4869L13330.0307,-3339.5668L13330.0186,-3339.5786L13330.0051,-3339.5837L13329.9642,-3339.586L13329.9481,-3339.5877L13329.9298,-3339.5908L13329.9253,-3339.5916L13329.9064,-3339.5984L13329.8749,-3339.6158L13329.8695,-3339.6215L13329.8669,-3339.6277L13329.8668,-3339.6378L13329.8776,-3339.675L13329.8769,-3339.6807L13329.8722,-3339.6931L13329.8461,-3339.7391L13329.8379,-3339.736L13329.8205,-3339.7387L13329.7909,-3339.7905L13329.7604,-3339.8438M13328.3483,-3339.8438L13328.3535,-3339.7556L13328.3574,-3339.6788L13328.3589,-3339.641L13328.3609,-3339.6102L13328.3636,-3339.5702L13328.3656,-3339.5516L13328.3696,-3339.5014L13328.3723,-3339.4445L13328.3716,-3339.4045L13328.3646,-3339.3886L13328.3629,-3339.3803L13328.3515,-3339.3622L13328.3401,-3339.3504L13328.3025,-3339.3076L13328.2756,-3339.2771L13328.2676,-3339.2676L13328.3226,-3339.2208L13328.3475,-3339.1988L13328.373,-3339.1762L13328.3898,-3339.1633L13328.4132,-3339.1436L13328.4159,-3339.1407L13328.4374,-3339.1272L13328.4522,-3339.1199L13328.4703,-3339.1103L13328.477,-3339.1066L13328.4844,-3339.1041L13328.5099,-3339.0951L13328.5361,-3339.0917L13328.6006,-3339.0861L13328.6711,-3339.0849L13328.6896,-3339.0849L13328.7723,-3339.0856L13328.7812,-3339.0844L13328.802,-3339.0849L13328.8272,-3339.0847L13328.863,-3339.0844L13328.9554,-3339.0835L13329.065,-3339.0821L13329.0883,-3339.0821L13329.0901,-3339.0821L13329.0918,-3339.0821L13329.1109,-3339.0829L13329.2471,-3339.0821"/>
<path content="3,須崎市,市営バス,8.0,8.0,8.0," xlink:title="3" d="M13329.2471,-3339.0821L13329.2512,-3338.9694L13329.27,-3338.9706L13329.3284,-3338.974L13329.3361,-3338.9762L13329.3402,-3338.9785L13329.345,-3338.9835L13329.3481,-3338.9926L13329.3499,-3339.0089L13329.3535,-3339.0351L13329.3559,-3339.0524L13329.3581,-3339.0847L13329.3566,-3339.0918L13329.3546,-3339.1464L13329.3506,-3339.1605L13329.3492,-3339.1639L13329.3452,-3339.1734L13329.321,-3339.2101L13329.3069,-3339.2298L13329.2948,-3339.2467L13329.2645,-3339.2411L13329.224,-3339.2315L13329.2357,-3339.1875L13329.2411,-3339.1611L13329.2412,-3339.1599L13329.2418,-3339.1554L13329.2471,-3339.0821"/>
</g>
</svg>
