<?xml version="1.0" encoding="UTF-8"?>
<svg  xmlns="http://www.w3.org/2000/svg" xmlns:xlink="http://www.w3.org/1999/xlink" xmlns:go="http://purl.org/svgmap/profile" property="N07_001,N07_002,N07_003,N07_004,N07_005,N07_006,N07_007" viewBox="13289.0625 -3656.25 35.15625 35.15625" go:dataArea="13289.0625 -3656.25 35.15625 35.15625" >
<metadata>
 <rdf:RDF xmlns:rdf="http://www.w3.org/1999/02/22-rdf-syntax-ns#" xmlns:crs="http://opengis.org/xmldtds/transformations.dtd" xmlns:svg="http://www.w3.org/svg" >
  <rdf:Description>
   <crs:CoordinateReferenceSystem rdf:resource="http://purl.org/crs/84" svg:transform="matrix(100.0,0.0,0.0,-100.0,0.0,0.0)" />
  </rdf:Description>
 </rdf:RDF>
</metadata>
<globalCoordinateSystem srsName="http://purl.org/crs/84" transform="matrix(100.0,0.0,0.0,-100.0,0.0,0.0)" />
<defs>
 <g id="p0" >
  <circle cx="0.0" cy="0.0" r="3" stroke="green" stroke-width="0.75" vector-effect="non-scaling-stroke" />
 </g>
</defs>
<g fill="none" fill-rule="evenodd" stroke="#FF00FF" stroke-width="0.75" opacity="0.5" vector-effect="non-scaling-stroke" stroke-linejoin="bevel" >
<path content="1,隠岐一畑交通（株）,五箇線,6.0,6.0,6.0," xlink:title="1" d="M13324.2188,-3628.2984L13324.1721,-3628.2984L13324.0834,-3628.3127L13323.8968,-3628.3492L13323.8178,-3628.3662L13323.7384,-3628.3784L13323.7076,-3628.3779L13323.6769,-3628.3742L13323.6289,-3628.3683L13323.5823,-3628.3572L13323.559,-3628.3494L13323.5416,-3628.3402L13323.4735,-3628.295L13323.4236,-3628.258L13323.3976,-3628.2328L13323.3638,-3628.1964L13323.3312,-3628.1796L13323.3066,-3628.1773L13323.2827,-3628.1828L13323.264,-3628.1906L13323.2494,-3628.2029L13323.2416,-3628.214L13323.2403,-3628.2288L13323.2462,-3628.2495L13323.2924,-3628.3422L13323.3048,-3628.3795L13323.3093,-3628.3968L13323.3102,-3628.4175L13323.3079,-3628.4357L13323.2983,-3628.4675L13323.2708,-3628.5416L13323.2436,-3628.5805L13323.2068,-3628.6211L13323.1519,-3628.6656L13323.1266,-3628.6853L13323.0916,-3628.695L13323.0353,-3628.7065L13322.9918,-3628.7198L13322.9737,-3628.7314L13322.9617,-3628.742L13322.9522,-3628.754L13322.9458,-3628.7677L13322.9284,-3628.8196L13322.9133,-3628.8543L13322.9028,-3628.8717L13322.8887,-3628.8887L13322.8793,-3628.9L13322.8688,-3628.9092L13322.8476,-3628.9239L13322.8251,-3628.9391L13322.7901,-3628.966L13322.7564,-3628.9994L13322.7465,-3629.0046L13322.7349,-3629.0061L13322.6637,-3629.0047L13322.5276,-3629.0062L13322.5062,-3628.997L13322.4904,-3628.9809L13322.4805,-3628.9819L13322.4509,-3628.9947L13322.4247,-3629.0023L13322.3667,-3629.0012L13322.0658,-3628.9962L13321.8373,-3628.9908L13321.7889,-3628.9757L13321.6176,-3628.9176L13321.5965,-3628.9075L13321.5513,-3628.8637L13321.4981,-3628.8124L13321.4325,-3628.7456L13321.3877,-3628.6986L13321.3677,-3628.6839L13321.3478,-3628.6735L13321.3256,-3628.6656L13321.2294,-3628.6638L13321.1487,-3628.6659L13321.0778,-3628.6652L13321.0543,-3628.662L13321.0308,-3628.6487L13321.0104,-3628.625L13320.9519,-3628.5407L13320.814,-3628.3368L13320.6455,-3628.0902L13320.5954,-3628.0093L13320.5754,-3627.9836L13320.5579,-3627.9658L13320.5392,-3627.9539L13320.5214,-3627.9466L13320.5003,-3627.9417L13320.4774,-3627.9414L13320.4459,-3627.9451L13320.4075,-3627.9532L13320.3727,-3627.9617L13320.3508,-3627.9697L13320.3316,-3627.9786L13320.3029,-3627.9954L13320.2924,-3627.9993L13320.2807,-3628.0004L13320.2194,-3628.0015L13320.1802,-3628.0098L13320.1615,-3628.0126L13320.135,-3628.0121L13320.1099,-3628.0066L13320.0929,-3627.9985L13320.0783,-3627.986L13320.0589,-3627.9671L13319.9915,-3627.9455L13319.931,-3627.9286L13319.9114,-3627.9249L13319.8641,-3627.9278"/>
<path content="2,隠岐の島町,蔵田線,3.0,3.0,3.0," xlink:title="2" d="M13322.6675,-3621.0938L13322.6209,-3621.1506L13322.5977,-3621.1781L13322.5939,-3621.1943L13322.5939,-3621.2056L13322.603,-3621.2136L13322.6223,-3621.2206L13322.6457,-3621.2229L13322.6622,-3621.2221L13322.7018,-3621.2107L13322.7354,-3621.1965L13322.7687,-3621.196L13322.7894,-3621.2011L13322.8122,-3621.2104L13322.8223,-3621.2215L13322.8192,-3621.2782L13322.822,-3621.3151L13322.8248,-3621.3386L13322.8245,-3621.3565L13322.8209,-3621.3653L13322.8132,-3621.3755L13322.8027,-3621.3829L13322.7838,-3621.3866L13322.7659,-3621.3857L13322.7486,-3621.3805L13322.7323,-3621.3758L13322.7165,-3621.3759L13322.7023,-3621.3844L13322.6363,-3621.4274L13322.5802,-3621.4711L13322.5645,-3621.4858L13322.5508,-3621.498L13322.5291,-3621.515L13322.5178,-3621.5298L13322.5129,-3621.5471L13322.515,-3621.5848L13322.5157,-3621.6552L13322.5259,-3621.7028L13322.5322,-3621.7292L13322.5301,-3621.7479L13322.5207,-3621.7587L13322.4951,-3621.7641L13322.4748,-3621.7625L13322.462,-3621.7587L13322.4397,-3621.748L13322.4175,-3621.7324L13322.4076,-3621.7217L13322.4003,-3621.7079L13322.396,-3621.6924L13322.3892,-3621.6787L13322.3796,-3621.6721L13322.3695,-3621.6651L13322.3532,-3621.6636L13322.3416,-3621.6671L13322.3337,-3621.6739L13322.3217,-3621.6873L13322.3128,-3621.7085L13322.3,-3621.7441L13322.2933,-3621.7679L13322.2861,-3621.7838L13322.2736,-3621.7932L13322.2572,-3621.7947L13322.2442,-3621.7924L13322.2332,-3621.7866L13322.2212,-3621.7683L13322.2159,-3621.7543L13322.2125,-3621.7297L13322.2149,-3621.7017L13322.2296,-3621.6638L13322.2505,-3621.6291L13322.2649,-3621.6137L13322.2808,-3621.5991L13322.2892,-3621.5888L13322.2935,-3621.5742L13322.2947,-3621.5532L13322.2904,-3621.5408L13322.2765,-3621.526L13322.2635,-3621.5197L13322.2481,-3621.5151L13322.2202,-3621.5147L13322.1981,-3621.5178L13322.1711,-3621.526L13322.1394,-3621.5462L13322.1139,-3621.5587L13322.0995,-3621.5637L13322.0637,-3621.5707L13322.0488,-3621.575L13322.0396,-3621.5818L13322.0329,-3621.5914L13322.017,-3621.6274L13322.004,-3621.6519L13321.9889,-3621.669L13321.9718,-3621.6791L13321.9552,-3621.6824L13321.9379,-3621.6809L13321.9204,-3621.6766L13321.8934,-3621.6604L13321.8749,-3621.6466L13321.8713,-3621.6363L13321.8682,-3621.6122L13321.8648,-3621.5986L13321.8583,-3621.5929L13321.7658,-3621.5719L13321.7506,-3621.5725L13321.7405,-3621.5762L13321.7266,-3621.5847L13321.7143,-3621.6005L13321.6953,-3621.635L13321.6828,-3621.662L13321.6706,-3621.6696L13321.6429,-3621.6731L13321.6124,-3621.6729L13321.6023,-3621.6719"/>
<path content="2,隠岐の島町,蔵田線,3.0,3.0,3.0," xlink:title="2" d="M13320.8954,-3621.0938L13320.8955,-3621.0943L13320.9051,-3621.1184L13320.9248,-3621.1398L13320.9488,-3621.153L13321.0026,-3621.1634L13321.0175,-3621.1699L13321.0301,-3621.2001L13321.0302,-3621.2315L13321.0836,-3621.2576L13321.1299,-3621.2879L13321.2042,-3621.3305L13321.2704,-3621.3429L13321.3225,-3621.331L13321.3492,-3621.3377L13321.3665,-3621.3426L13321.3855,-3621.3584L13321.4001,-3621.3829L13321.4136,-3621.4142L13321.4273,-3621.4251L13321.4545,-3621.4432L13321.4663,-3621.466L13321.4648,-3621.488L13321.4655,-3621.5388L13321.4612,-3621.5582L13321.4511,-3621.5759L13321.4456,-3621.5878L13321.4492,-3621.5995L13321.4535,-3621.6043L13321.4691,-3621.6051L13321.5127,-3621.6003L13321.5742,-3621.5925L13321.587,-3621.5948L13321.5961,-3621.6006L13321.6127,-3621.6201L13321.6197,-3621.6343L13321.616,-3621.6456L13321.6023,-3621.6719"/>
<path content="2,隠岐の島町,蔵田線,3.0,3.0,3.0," xlink:title="2" d="M13321.6023,-3621.6719L13321.5756,-3621.6663L13321.5241,-3621.6509L13321.4962,-3621.6488L13321.4102,-3621.6571L13321.3544,-3621.6638L13321.2991,-3621.6665L13321.2765,-3621.6616L13321.2373,-3621.6425L13321.1988,-3621.6223L13321.1166,-3621.59L13321.1079,-3621.5832L13321.1051,-3621.5727L13321.1043,-3621.5439L13321.0993,-3621.5318L13321.0846,-3621.5182L13321.076,-3621.5092L13321.0606,-3621.4964L13321.0317,-3621.4816L13321.0089,-3621.4703L13320.9901,-3621.4575L13320.9808,-3621.4449L13320.9741,-3621.435L13320.9711,-3621.4207L13320.9666,-3621.365L13320.9601,-3621.3479L13320.9444,-3621.3249L13320.8374,-3621.324L13320.7886,-3621.3232L13320.7776,-3621.3212L13320.7526,-3621.3146L13320.7175,-3621.3012L13320.683,-3621.3023L13320.6677,-3621.3084L13320.6583,-3621.3185L13320.6465,-3621.346L13320.6398,-3621.3903L13320.6338,-3621.4006L13320.6239,-3621.411L13320.5795,-3621.4392L13320.5698,-3621.4553L13320.5775,-3621.4719L13320.5927,-3621.4905L13320.6143,-3621.5131L13320.6287,-3621.5404L13320.6328,-3621.5583L13320.6321,-3621.5746L13320.6268,-3621.5896L13320.5992,-3621.6394L13320.5905,-3621.655L13320.5929,-3621.6764L13320.6218,-3621.7144L13320.6321,-3621.7385L13320.6482,-3621.7599L13320.6605,-3621.765L13320.7018,-3621.7661L13320.7372,-3621.7599L13320.7627,-3621.7599L13320.7812,-3621.7665L13320.7903,-3621.7805L13320.7879,-3621.7905L13320.7757,-3621.8157L13320.7677,-3621.8253L13320.7617,-3621.8303L13320.6112,-3621.8451L13320.5975,-3621.8426L13320.5867,-3621.8368L13320.5593,-3621.8026L13320.5287,-3621.7716L13320.4653,-3621.7068L13320.3902,-3621.6379L13320.3474,-3621.5972L13320.3248,-3621.5842L13320.2558,-3621.5577L13320.2416,-3621.555L13320.1914,-3621.5548L13320.1039,-3621.5803L13320.0351,-3621.6019L13320.0072,-3621.6058L13319.9707,-3621.605L13319.9442,-3621.6015L13319.8675,-3621.5869L13319.7343,-3621.5629L13319.6485,-3621.5448L13319.6488,-3621.5726L13319.6384,-3621.6188L13319.6345,-3621.6523L13319.6422,-3621.6717L13319.662,-3621.6877L13319.6971,-3621.697L13319.7793,-3621.7037L13319.9582,-3621.7107L13320.0096,-3621.7223L13320.0515,-3621.7395L13320.0789,-3621.7566L13320.0846,-3621.7667L13320.0832,-3621.7815L13320.0736,-3621.794L13320.0529,-3621.8068L13320.0255,-3621.8183L13319.9962,-3621.8257L13319.962,-3621.8305L13319.9274,-3621.8325L13319.9077,-3621.8395L13319.8908,-3621.8518L13319.8608,-3621.8815L13319.8444,-3621.908L13319.8264,-3621.9438L13319.8129,-3621.9767L13319.8055,-3622.0045L13319.799,-3622.0462L13319.7966,-3622.1046L13319.7988,-3622.1308L13319.805,-3622.1452L13319.8161,-3622.1754L13319.8553,-3622.2523L13319.8779,-3622.2994L13319.9058,-3622.3445L13319.9606,-3622.4218L13319.999,-3622.4673L13320.0507,-3622.5251L13320.0606,-3622.5405L13320.0738,-3622.5749L13320.0808,-3622.6076L13320.0784,-3622.6308L13320.0707,-3622.6571L13320.0623,-3622.675L13320.0462,-3622.6999L13320.0284,-3622.738L13320.0108,-3622.7822L13319.9861,-3622.8324L13319.9608,-3622.8842L13319.931,-3622.9342L13319.8961,-3622.9908L13319.8557,-3623.0492L13319.8471,-3623.0698L13319.8375,-3623.1097L13319.8387,-3623.1354L13319.8476,-3623.1578L13319.8661,-3623.1928L13319.8781,-3623.2306L13319.8925,-3623.2921L13319.9046,-3623.346L13319.9031,-3623.3742L13319.8976,-3623.4028L13319.8836,-3623.462L13319.8721,-3623.5032L13319.8567,-3623.5402L13319.8377,-3623.5922L13319.8209,-3623.6294L13319.7971,-3623.6556L13319.767,-3623.6761L13319.7463,-3623.6879L13319.7136,-3623.6992L13319.6874,-3623.7066L13319.6612,-3623.7097L13319.617,-3623.7109L13319.5966,-3623.7058L13319.4773,-3623.6687L13319.453,-3623.6648L13319.4208,-3623.6626L13319.3751,-3623.6656L13319.3479,-3623.6733L13319.3241,-3623.6837L13319.2857,-3623.7107L13319.2272,-3623.7597L13319.1856,-3623.7919L13319.1811,-3623.8018L13319.1798,-3623.8579L13319.1835,-3623.8897L13319.1931,-3623.9291L13319.2027,-3623.9723L13319.2092,-3624.018L13319.2181,-3624.0565L13319.2316,-3624.0951L13319.2535,-3624.1698L13319.2734,-3624.2387L13319.2895,-3624.2831L13319.3042,-3624.32L13319.3176,-3624.3644L13319.3294,-3624.4166L13319.3001,-3624.4257L13319.2893,-3624.4321L13319.2828,-3624.4395L13319.2806,-3624.4512L13319.2943,-3624.4895L13319.2979,-3624.5096L13319.2953,-3624.5269L13319.2806,-3624.5612L13319.2628,-3624.581L13319.2251,-3624.6071L13319.1905,-3624.6182L13319.1416,-3624.6273L13319.1222,-3624.6326L13319.0912,-3624.6484L13319.0365,-3624.6765L13319.0274,-3624.6852L13319.0232,-3624.6946L13319.0164,-3624.7165L13318.9983,-3624.7852L13318.9863,-3624.8363L13318.9774,-3624.8535L13318.9594,-3624.875"/>
</g>
</svg>
