<?xml version="1.0" encoding="UTF-8"?>
<svg  xmlns="http://www.w3.org/2000/svg" xmlns:xlink="http://www.w3.org/1999/xlink" xmlns:go="http://purl.org/svgmap/profile" property="N07_001,N07_002,N07_003,N07_004,N07_005,N07_006,N07_007" viewBox="12779.296875 -2627.9296875 8.7890625 8.7890625" go:dataArea="12779.296875 -2627.9296875 8.7890625 8.7890625" >
<metadata>
 <rdf:RDF xmlns:rdf="http://www.w3.org/1999/02/22-rdf-syntax-ns#" xmlns:crs="http://opengis.org/xmldtds/transformations.dtd" xmlns:svg="http://www.w3.org/svg" >
  <rdf:Description>
   <crs:CoordinateReferenceSystem rdf:resource="http://purl.org/crs/84" svg:transform="matrix(100.0,0.0,0.0,-100.0,0.0,0.0)" />
  </rdf:Description>
 </rdf:RDF>
</metadata>
<globalCoordinateSystem srsName="http://purl.org/crs/84" transform="matrix(100.0,0.0,0.0,-100.0,0.0,0.0)" />
<defs>
 <g id="p0" >
  <circle cx="0.0" cy="0.0" r="3" stroke="green" stroke-width="0.75" vector-effect="non-scaling-stroke" />
 </g>
</defs>
<g fill="none" fill-rule="evenodd" stroke="#FF00FF" stroke-width="0.75" opacity="0.5" vector-effect="non-scaling-stroke" stroke-linejoin="bevel" >
<path content="1,東陽バス（株）,泡瀬東線&#32;知花経由,1.0,0.0,0.0," xlink:title="1" d="M12779.2969,-2627.1515L12779.3604,-2627.1768L12779.56,-2627.25L12779.5887,-2627.2588L12779.6149,-2627.2708L12779.6432,-2627.2895L12779.6598,-2627.3011L12779.6833,-2627.3248L12779.7159,-2627.3628L12779.79,-2627.45L12779.8494,-2627.5153L12779.8902,-2627.5644L12779.9193,-2627.5938L12779.94,-2627.62L12779.9709,-2627.6443L12779.9975,-2627.6631L12780.042,-2627.6929L12780.1272,-2627.7421L12780.237,-2627.8032L12780.2653,-2627.8171L12780.294,-2627.8264L12780.3181,-2627.8317L12780.3497,-2627.8343L12780.3783,-2627.8323L12780.403,-2627.8296L12780.4317,-2627.8246L12780.459,-2627.8186L12780.4836,-2627.8117L12780.5238,-2627.7961L12780.5344,-2627.7901L12780.5627,-2627.774L12780.6126,-2627.7433L12780.64,-2627.73L12780.6683,-2627.7188L12780.6895,-2627.7169L12780.7153,-2627.7195L12780.7423,-2627.7251L12780.7689,-2627.733L12780.7897,-2627.7412L12780.8511,-2627.7669L12780.9894,-2627.8239L12781.086,-2627.8648L12781.1251,-2627.8824L12781.1426,-2627.8899L12781.19,-2627.91L12781.2056,-2627.9196L12781.2239,-2627.9297"/>
<path content="1,東陽バス（株）,泡瀬東線&#32;美里高校経由,51.0,38.0,38.0," xlink:title="1" d="M12779.2969,-2627.1515L12779.3604,-2627.1768L12779.56,-2627.25L12779.5887,-2627.2588L12779.6149,-2627.2708L12779.6432,-2627.2895L12779.6598,-2627.3011L12779.6833,-2627.3248L12779.7159,-2627.3628L12779.79,-2627.45L12779.8494,-2627.5153L12779.8902,-2627.5644L12779.9193,-2627.5938L12779.94,-2627.62L12779.9709,-2627.6443L12779.9975,-2627.6631L12780.042,-2627.6929L12780.1272,-2627.7421L12780.237,-2627.8032L12780.2653,-2627.8171L12780.294,-2627.8264L12780.3181,-2627.8317L12780.3497,-2627.8343L12780.3783,-2627.8323L12780.403,-2627.8296L12780.4317,-2627.8246L12780.459,-2627.8186L12780.4836,-2627.8117L12780.5238,-2627.7961L12780.5344,-2627.7901L12780.5627,-2627.774L12780.6126,-2627.7433L12780.64,-2627.73L12780.6683,-2627.7188L12780.6895,-2627.7169L12780.7153,-2627.7195L12780.7423,-2627.7251L12780.7689,-2627.733L12780.7897,-2627.7412L12780.8511,-2627.7669L12780.9894,-2627.8239L12781.086,-2627.8648L12781.1251,-2627.8824L12781.1426,-2627.8899L12781.19,-2627.91L12781.2056,-2627.9196L12781.2239,-2627.9297"/>
</g>
</svg>
