<?xml version="1.0" encoding="UTF-8"?>
<svg  xmlns="http://www.w3.org/2000/svg" xmlns:xlink="http://www.w3.org/1999/xlink" xmlns:go="http://purl.org/svgmap/profile" property="N07_001,N07_002,N07_003,N07_004,N07_005,N07_006,N07_007" viewBox="13961.42578125 -3603.515625 4.39453125 4.39453125" go:dataArea="13961.42578125 -3603.515625 4.39453125 4.39453125" >
<metadata>
 <rdf:RDF xmlns:rdf="http://www.w3.org/1999/02/22-rdf-syntax-ns#" xmlns:crs="http://opengis.org/xmldtds/transformations.dtd" xmlns:svg="http://www.w3.org/svg" >
  <rdf:Description>
   <crs:CoordinateReferenceSystem rdf:resource="http://purl.org/crs/84" svg:transform="matrix(100.0,0.0,0.0,-100.0,0.0,0.0)" />
  </rdf:Description>
 </rdf:RDF>
</metadata>
<globalCoordinateSystem srsName="http://purl.org/crs/84" transform="matrix(100.0,0.0,0.0,-100.0,0.0,0.0)" />
<defs>
 <g id="p0" >
  <circle cx="0.0" cy="0.0" r="3" stroke="green" stroke-width="0.75" vector-effect="non-scaling-stroke" />
 </g>
</defs>
<g fill="none" fill-rule="evenodd" stroke="#FF00FF" stroke-width="0.75" opacity="0.5" vector-effect="non-scaling-stroke" stroke-linejoin="bevel" >
<path content="1,丸建自動車,⑦,35.5,17.0,17.0," xlink:title="1" d="M13962.0516,-3599.1211L13962.062,-3599.1309L13962.1056,-3599.1614L13962.116,-3599.167L13962.1291,-3599.1755L13962.1382,-3599.1795L13962.1575,-3599.1936L13962.2081,-3599.2318L13962.249,-3599.256L13962.2601,-3599.2617L13962.2815,-3599.2696L13962.3549,-3599.3006L13962.3715,-3599.3084L13962.5055,-3599.365L13962.5732,-3599.3892L13962.5925,-3599.4026L13962.6306,-3599.4189L13962.7151,-3599.4538L13962.7331,-3599.4623L13962.7763,-3599.4781L13962.8017,-3599.4927L13962.8481,-3599.513L13962.8751,-3599.4826L13962.9062,-3599.4477L13962.9341,-3599.4153L13962.9381,-3599.4093L13962.9536,-3599.3885L13962.9797,-3599.3553L13962.9866,-3599.344L13962.9916,-3599.3386L13963.0171,-3599.2972L13963.0565,-3599.2402L13963.0669,-3599.224L13963.087,-3599.1958L13963.1009,-3599.1756L13963.1285,-3599.1339L13963.1361,-3599.1211"/>
<path content="1,国際興業（株）,ミッドナイトアロー蓮田・久喜,1.0,0.0,0.0," xlink:title="1" d="M13965.1043,-3599.1211L13965.1025,-3599.1256L13965.0894,-3599.1695L13965.0827,-3599.1926L13965.0891,-3599.201L13965.1822,-3599.3217L13965.1956,-3599.3398L13965.2107,-3599.3603L13965.2167,-3599.3685L13965.2267,-3599.3817L13965.2445,-3599.4039L13965.2749,-3599.4434L13965.2848,-3599.457L13965.3338,-3599.5188L13965.3401,-3599.528L13965.3539,-3599.5448L13965.4038,-3599.6101L13965.4107,-3599.6186L13965.4211,-3599.6332L13965.4384,-3599.6541L13965.4481,-3599.6676L13965.5028,-3599.7392L13965.518,-3599.7611L13965.5298,-3599.7814L13965.5395,-3599.8068L13965.5492,-3599.8389L13965.5548,-3599.8591L13965.5582,-3599.8687L13965.5636,-3599.8876L13965.5669,-3599.9105L13965.568,-3599.9297L13965.5683,-3599.9415L13965.5671,-3599.9542L13965.5631,-3599.9845L13965.5627,-3599.9877L13965.5608,-3600.0069L13965.5585,-3600.0364L13965.5741,-3600.0484L13965.5901,-3600.0744L13965.6039,-3600.1087L13965.6129,-3600.1245L13965.6344,-3600.1527L13965.6267,-3600.209L13965.6191,-3600.2614L13965.6118,-3600.3194L13965.6096,-3600.3414L13965.6068,-3600.3589L13965.6061,-3600.3684L13965.5999,-3600.4214L13965.5915,-3600.4879L13965.586,-3600.5256L13965.5811,-3600.569L13965.5797,-3600.5776L13965.5742,-3600.6112L13965.5728,-3600.6219L13965.58,-3600.6221L13965.6144,-3600.6259L13965.6296,-3600.627L13965.6435,-3600.6293L13965.6616,-3600.6332L13965.699,-3600.6467L13965.717,-3600.6541L13965.7198,-3600.6563L13965.7538,-3600.6682L13965.7739,-3600.6732L13965.8016,-3600.6789L13965.819,-3600.6851L13965.8203,-3600.6858"/>
<path content="1,朝日自動車（株）,005,32.0,28.0,28.0," xlink:title="1" d="M13963.1361,-3599.1211L13963.1285,-3599.1339L13963.1009,-3599.1756L13963.087,-3599.1958L13963.0669,-3599.224L13963.0565,-3599.2402L13963.0171,-3599.2972L13962.9916,-3599.3386L13962.9866,-3599.344L13962.9797,-3599.3553L13962.9536,-3599.3885L13962.9381,-3599.4093L13962.9341,-3599.4153L13962.9062,-3599.4477L13962.8751,-3599.4826L13962.8481,-3599.513L13962.8252,-3599.5383L13962.7997,-3599.5584L13962.7913,-3599.5688L13962.7878,-3599.5733L13962.7712,-3599.5896L13962.7649,-3599.5964L13962.7431,-3599.6189L13962.7289,-3599.6302L13962.6804,-3599.6673L13962.6721,-3599.6724L13962.6313,-3599.6972L13962.5835,-3599.7242L13962.5669,-3599.7333L13962.5544,-3599.7417L13962.5489,-3599.744L13962.53,-3599.7508L13962.5087,-3599.7637L13962.445,-3599.7896"/>
<path content="1,朝日自動車（株）,005,32.0,28.0,28.0," xlink:title="1" d="M13962.445,-3599.7896L13962.4713,-3599.8234L13962.5149,-3599.8735L13962.5357,-3599.9045L13962.5405,-3599.9102L13962.5274,-3599.9164L13962.5045,-3599.9265L13962.4955,-3599.929L13962.4387,-3599.9569L13962.4032,-3599.9284L13962.3535,-3599.8927L13962.3314,-3599.8752L13962.3286,-3599.8741L13962.3009,-3599.8521L13962.3341,-3599.833L13962.3535,-3599.8234L13962.3785,-3599.8127L13962.4006,-3599.8065L13962.4062,-3599.8037L13962.438,-3599.7918L13962.445,-3599.7896"/>
<path content="1,朝日自動車（株）,095,23.5,16.5,16.5," xlink:title="1" d="M13965.4171,-3603.5156L13965.4215,-3603.5115L13965.4333,-3603.5002L13965.4375,-3603.494L13965.443,-3603.4833L13965.4465,-3603.4653L13965.4486,-3603.4501L13965.4541,-3603.4185L13965.4555,-3603.414L13965.459,-3603.3808L13965.4618,-3603.3673L13965.4611,-3603.3628L13965.5637,-3603.2974L13965.5873,-3603.2839L13965.6081,-3603.2693L13965.6157,-3603.2591L13965.6223,-3603.2409L13965.624,-3603.2343L13965.6363,-3603.2023L13965.6454,-3603.172L13965.6552,-3603.1447L13965.6656,-3603.1121L13965.6732,-3603.0923L13965.7058,-3602.9943L13965.7372,-3602.9077L13965.7419,-3602.8912L13965.7523,-3602.8659L13965.8071,-3602.7481L13965.8161,-3602.7267L13965.8203,-3602.7179"/>
<path content="1,朝日自動車（株）,115,3.5,1.5,1.5," xlink:title="1" d="M13965.0827,-3599.1926L13965.0735,-3599.1817L13965.0266,-3599.1211M13965.1043,-3599.1211L13965.1025,-3599.1256L13965.0894,-3599.1695L13965.0827,-3599.1926"/>
<path content="1,朝日自動車（株）,115,3.5,1.5,1.5," xlink:title="1" d="M13965.0827,-3599.1926L13965.072,-3599.2067L13965.0118,-3599.2704L13965.0062,-3599.2749L13965.0014,-3599.2805L13964.9605,-3599.3199L13964.9243,-3599.3567L13964.9146,-3599.3615L13964.8912,-3599.3836L13964.8874,-3599.3869L13964.8834,-3599.3903L13964.876,-3599.3983L13964.8601,-3599.4236L13964.8407,-3599.4603L13964.8289,-3599.4862L13964.8171,-3599.5132L13964.8026,-3599.5442L13964.7747,-3599.6055L13964.7478,-3599.6591L13964.7222,-3599.7138L13964.7194,-3599.7222L13964.7125,-3599.7341L13964.6914,-3599.7812L13964.6597,-3599.856L13964.6515,-3599.8636L13964.6411,-3599.8794L13964.6086,-3599.9233L13964.5878,-3599.956L13964.5788,-3599.9763L13964.5643,-3600.0118L13964.5587,-3600.0293L13964.5483,-3600.0569L13964.5366,-3600.0884L13964.5222,-3600.125L13964.5123,-3600.1492L13964.5038,-3600.1712L13964.4995,-3600.1839L13964.4832,-3600.2281L13964.4631,-3600.2749L13964.4392,-3600.3194L13964.3971,-3600.3764L13964.3608,-3600.4264L13964.3525,-3600.4383L13964.3476,-3600.4445L13964.3421,-3600.4524L13964.3199,-3600.4844L13964.2658,-3600.5656L13964.2563,-3600.5824L13964.2436,-3600.6016L13964.2339,-3600.6152L13964.2089,-3600.6543L13964.2055,-3600.6597L13964.1858,-3600.6892L13964.1711,-3600.7102L13964.1486,-3600.7431L13964.1158,-3600.7845L13964.1119,-3600.792L13964.1001,-3600.8067L13964.0634,-3600.8568L13964.0523,-3600.8709L13964.0217,-3600.9109L13964.0127,-3600.9261L13963.9878,-3600.9802L13963.98,-3600.9963L13963.9767,-3601.0011L13963.9717,-3601.012L13963.9667,-3601.0219L13963.9377,-3601.0831L13963.9155,-3601.1199L13963.9102,-3601.149L13963.8871,-3601.1721L13963.8711,-3601.1943L13963.8448,-3601.2311L13963.8193,-3601.2596L13963.7916,-3601.2872L13963.7562,-3601.3278L13963.7006,-3601.3893L13963.6716,-3601.4219L13963.6411,-3601.4546L13963.5967,-3601.5098L13963.578,-3601.5323L13963.5375,-3601.588L13963.4913,-3601.6399L13963.474,-3601.6613L13963.4615,-3601.6748L13963.4476,-3601.6923L13963.4226,-3601.7194L13963.4009,-3601.7423L13963.3824,-3601.7628L13963.3429,-3601.8028L13963.3221,-3601.8213L13963.311,-3601.832L13963.2514,-3601.885L13963.2188,-3601.9092L13963.1779,-3601.9351L13963.1487,-3601.9526L13963.0995,-3601.9819L13963.0905,-3601.9858L13963.0739,-3601.9949L13963.042,-3602.0084L13963.0343,-3602.0117L13962.9803,-3602.0287L13962.9227,-3602.0439L13962.911,-3602.0447L13962.9054,-3602.0478L13962.8852,-3602.054L13962.8513,-3602.063L13962.8291,-3602.0732L13962.818,-3602.0799L13962.793,-3602.0979L13962.7889,-3602.1008L13962.7674,-3602.1171L13962.7355,-3602.1318L13962.7058,-3602.1421L13962.6717,-3602.1543L13962.6405,-3602.1633L13962.619,-3602.1706L13962.6003,-3602.1768L13962.5926,-3602.1498L13962.5767,-3602.1131L13962.5691,-3602.0985L13962.5511,-3602.0709L13962.5379,-3602.054L13962.479,-3601.992L13962.4658,-3601.9796L13962.4346,-3601.9548L13962.3674,-3601.9081L13962.3147,-3601.8726L13962.3047,-3601.8656L13962.2828,-3601.8501L13962.2502,-3601.8261L13962.246,-3601.8227L13962.2203,-3601.8017L13962.2155,-3601.7986L13962.1767,-3601.7603L13962.1469,-3601.726L13962.1157,-3601.695L13962.0748,-3601.6595L13962.063,-3601.6488L13962.0471,-3601.6364L13961.9389,-3601.5434L13961.9105,-3601.5175L13961.8966,-3601.5017L13961.8634,-3601.4674L13961.8453,-3601.4544L13961.8315,-3601.4477L13961.7879,-3601.4311L13961.7765,-3601.4271L13961.7584,-3601.4209L13961.6817,-3601.3958L13961.6443,-3601.3834L13961.5749,-3601.3603L13961.473,-3601.3232L13961.4467,-3601.3147L13961.4258,-3601.3074"/>
<path content="1,朝日自動車（株）,116,12.0,11.0,12.0," xlink:title="1" d="M13965.0827,-3599.1926L13965.0735,-3599.1817L13965.0266,-3599.1211M13965.1043,-3599.1211L13965.1025,-3599.1256L13965.0894,-3599.1695L13965.0827,-3599.1926"/>
<path content="1,朝日自動車（株）,116,12.0,11.0,12.0," xlink:title="1" d="M13965.0827,-3599.1926L13965.072,-3599.2067L13965.0118,-3599.2704L13965.0062,-3599.2749L13965.0014,-3599.2805L13964.9605,-3599.3199L13964.9243,-3599.3567L13964.9146,-3599.3615L13964.8912,-3599.3836L13964.8874,-3599.3869L13964.8834,-3599.3903L13964.876,-3599.3983L13964.8601,-3599.4236L13964.8407,-3599.4603L13964.8289,-3599.4862L13964.8171,-3599.5132L13964.8026,-3599.5442L13964.7747,-3599.6055L13964.7478,-3599.6591L13964.7222,-3599.7138L13964.7194,-3599.7222L13964.7125,-3599.7341L13964.6914,-3599.7812L13964.6597,-3599.856L13964.6515,-3599.8636L13964.6411,-3599.8794L13964.6086,-3599.9233L13964.5878,-3599.956L13964.5788,-3599.9763L13964.5643,-3600.0118L13964.5587,-3600.0293L13964.5483,-3600.0569L13964.5366,-3600.0884L13964.5222,-3600.125L13964.5123,-3600.1492L13964.5038,-3600.1712L13964.4995,-3600.1839L13964.4832,-3600.2281L13964.4631,-3600.2749L13964.4392,-3600.3194L13964.3971,-3600.3764L13964.3608,-3600.4264L13964.3525,-3600.4383L13964.3476,-3600.4445L13964.3421,-3600.4524L13964.3199,-3600.4844L13964.2658,-3600.5656L13964.2563,-3600.5824L13964.2436,-3600.6016L13964.2339,-3600.6152L13964.2089,-3600.6543L13964.2055,-3600.6597L13964.1858,-3600.6892L13964.1711,-3600.7102L13964.1486,-3600.7431L13964.1158,-3600.7845L13964.1119,-3600.792L13964.1001,-3600.8067L13964.0634,-3600.8568L13964.0523,-3600.8709L13964.0217,-3600.9109L13964.0127,-3600.9261L13963.9878,-3600.9802L13963.98,-3600.9963L13963.9767,-3601.0011L13963.9717,-3601.012L13963.9667,-3601.0219L13963.9377,-3601.0831L13963.9155,-3601.1199L13963.9102,-3601.149L13963.8871,-3601.1721L13963.8711,-3601.1943L13963.8448,-3601.2311L13963.8193,-3601.2596L13963.7916,-3601.2872L13963.7562,-3601.3278L13963.7006,-3601.3893L13963.6716,-3601.4219L13963.6411,-3601.4546L13963.5967,-3601.5098L13963.578,-3601.5323L13963.5375,-3601.588L13963.4913,-3601.6399L13963.474,-3601.6613L13963.4615,-3601.6748L13963.4476,-3601.6923L13963.4226,-3601.7194L13963.4009,-3601.7423L13963.3824,-3601.7628L13963.3429,-3601.8028L13963.3221,-3601.8213L13963.311,-3601.832L13963.2514,-3601.885L13963.2188,-3601.9092L13963.1779,-3601.9351L13963.1487,-3601.9526L13963.0995,-3601.9819L13963.0905,-3601.9858L13963.0739,-3601.9949L13963.042,-3602.0084L13963.0343,-3602.0117L13962.9803,-3602.0287L13962.9227,-3602.0439L13962.911,-3602.0447L13962.9054,-3602.0478L13962.8852,-3602.054L13962.8513,-3602.063L13962.8291,-3602.0732L13962.818,-3602.0799L13962.793,-3602.0979L13962.7889,-3602.1008L13962.7674,-3602.1171L13962.7355,-3602.1318L13962.7058,-3602.1421L13962.6717,-3602.1543L13962.6405,-3602.1633L13962.619,-3602.1706L13962.6003,-3602.1768L13962.5697,-3602.2017L13962.5546,-3602.2119L13962.5247,-3602.2349L13962.5136,-3602.2422L13962.5088,-3602.2472L13962.466,-3602.2803L13962.4214,-3602.3149L13962.3112,-3602.4044L13962.3021,-3602.4073L13962.273,-3602.4264L13962.2224,-3602.4563L13962.189,-3602.4772L13962.1766,-3602.4851L13962.0754,-3602.5254L13962.0622,-3602.5316L13962.0476,-3602.5367L13962.0314,-3602.541L13962.0095,-3602.544L13962.0005,-3602.5463L13961.9617,-3602.5536L13961.945,-3602.5564L13961.9236,-3602.5609L13961.9062,-3602.5632L13961.875,-3602.5699L13961.8674,-3602.5705L13961.8584,-3602.5727L13961.8452,-3602.5739L13961.8327,-3602.5739L13961.8174,-3602.5739L13961.7724,-3602.5648L13961.71,-3602.5524L13961.6652,-3602.5431L13961.6196,-3602.5352L13961.5717,-3602.5261L13961.563,-3602.5243L13961.5132,-3602.5131L13961.4979,-3602.5102L13961.4791,-3602.5074L13961.475,-3602.5074L13961.4632,-3602.5079L13961.4431,-3602.5113L13961.4258,-3602.5152"/>
<path content="1,朝日自動車（株）,117,6.0,5.0,4.0," xlink:title="1" d="M13965.0827,-3599.1926L13965.0735,-3599.1817L13965.0266,-3599.1211M13965.1043,-3599.1211L13965.1025,-3599.1256L13965.0894,-3599.1695L13965.0827,-3599.1926"/>
<path content="1,朝日自動車（株）,117,6.0,5.0,4.0," xlink:title="1" d="M13965.0827,-3599.1926L13965.072,-3599.2067L13965.0118,-3599.2704L13965.0062,-3599.2749L13965.0014,-3599.2805L13964.9605,-3599.3199L13964.9243,-3599.3567L13964.9146,-3599.3615L13964.8912,-3599.3836L13964.8874,-3599.3869L13964.8834,-3599.3903L13964.876,-3599.3983L13964.8601,-3599.4236L13964.8407,-3599.4603L13964.8289,-3599.4862L13964.8171,-3599.5132L13964.8026,-3599.5442L13964.7747,-3599.6055L13964.7478,-3599.6591L13964.7222,-3599.7138L13964.7194,-3599.7222L13964.7125,-3599.7341L13964.6914,-3599.7812L13964.6597,-3599.856L13964.6515,-3599.8636L13964.6411,-3599.8794L13964.6086,-3599.9233L13964.5878,-3599.956L13964.5788,-3599.9763L13964.5643,-3600.0118L13964.5587,-3600.0293L13964.5483,-3600.0569L13964.5366,-3600.0884L13964.5222,-3600.125L13964.5123,-3600.1492L13964.5038,-3600.1712L13964.4995,-3600.1839L13964.4832,-3600.2281L13964.4631,-3600.2749L13964.4392,-3600.3194L13964.3971,-3600.3764L13964.3608,-3600.4264L13964.3525,-3600.4383L13964.3476,-3600.4445L13964.3421,-3600.4524L13964.3199,-3600.4844L13964.2658,-3600.5656L13964.2563,-3600.5824L13964.2436,-3600.6016L13964.2339,-3600.6152L13964.2089,-3600.6543L13964.2055,-3600.6597L13964.1858,-3600.6892L13964.1711,-3600.7102L13964.1486,-3600.7431L13964.1158,-3600.7845L13964.1119,-3600.792L13964.1001,-3600.8067L13964.0634,-3600.8568L13964.0523,-3600.8709L13964.0217,-3600.9109L13964.0127,-3600.9261L13963.9878,-3600.9802L13963.98,-3600.9963L13963.9767,-3601.0011L13963.9717,-3601.012L13963.9667,-3601.0219L13963.9377,-3601.0831L13963.9155,-3601.1199L13963.9102,-3601.149L13963.8871,-3601.1721L13963.8711,-3601.1943L13963.8448,-3601.2311L13963.8193,-3601.2596L13963.7916,-3601.2872L13963.7562,-3601.3278L13963.7006,-3601.3893L13963.6716,-3601.4219L13963.6411,-3601.4546L13963.5967,-3601.5098L13963.578,-3601.5323L13963.5375,-3601.588L13963.4913,-3601.6399L13963.474,-3601.6613L13963.4615,-3601.6748L13963.4476,-3601.6923L13963.4226,-3601.7194L13963.4009,-3601.7423L13963.3824,-3601.7628L13963.3429,-3601.8028L13963.3221,-3601.8213L13963.311,-3601.832L13963.2514,-3601.885L13963.2188,-3601.9092L13963.1779,-3601.9351L13963.1487,-3601.9526L13963.0995,-3601.9819L13963.0905,-3601.9858L13963.0739,-3601.9949L13963.042,-3602.0084L13963.0343,-3602.0117L13962.9803,-3602.0287L13962.9227,-3602.0439L13962.911,-3602.0447L13962.9054,-3602.0478L13962.8852,-3602.054L13962.8513,-3602.063L13962.8291,-3602.0732L13962.818,-3602.0799L13962.793,-3602.0979L13962.7889,-3602.1008L13962.7674,-3602.1171L13962.7355,-3602.1318L13962.7058,-3602.1421L13962.6717,-3602.1543L13962.6405,-3602.1633L13962.619,-3602.1706L13962.6003,-3602.1768L13962.5697,-3602.2017L13962.5546,-3602.2119L13962.5247,-3602.2349L13962.5136,-3602.2422L13962.5088,-3602.2472L13962.466,-3602.2803L13962.4214,-3602.3149L13962.3112,-3602.4044L13962.3021,-3602.4073L13962.273,-3602.4264L13962.2224,-3602.4563L13962.189,-3602.4772L13962.1766,-3602.4851L13962.0754,-3602.5254L13962.0622,-3602.5316L13962.0476,-3602.5367L13962.0314,-3602.541L13962.0095,-3602.544L13962.0005,-3602.5463L13961.9617,-3602.5536L13961.945,-3602.5564L13961.9236,-3602.5609L13961.9062,-3602.5632L13961.875,-3602.5699L13961.8674,-3602.5705L13961.8584,-3602.5727L13961.8452,-3602.5739L13961.8327,-3602.5739L13961.8174,-3602.5739L13961.7724,-3602.5648L13961.71,-3602.5524L13961.6652,-3602.5431L13961.6196,-3602.5352L13961.5717,-3602.5261L13961.563,-3602.5243L13961.5132,-3602.5131L13961.4979,-3602.5102L13961.4791,-3602.5074L13961.475,-3602.5074L13961.4632,-3602.5079L13961.4431,-3602.5113L13961.4258,-3602.5152"/>
<path content="1,朝日自動車（株）,118,18.0,24.0,15.0," xlink:title="1" d="M13965.0827,-3599.1926L13965.0735,-3599.1817L13965.0266,-3599.1211M13965.1043,-3599.1211L13965.1025,-3599.1256L13965.0894,-3599.1695L13965.0827,-3599.1926"/>
<path content="1,朝日自動車（株）,118,18.0,24.0,15.0," xlink:title="1" d="M13965.0827,-3599.1926L13965.072,-3599.2067L13965.0118,-3599.2704L13965.0062,-3599.2749L13965.0014,-3599.2805L13964.9605,-3599.3199L13964.9243,-3599.3567L13964.9146,-3599.3615L13964.8912,-3599.3836L13964.8874,-3599.3869L13964.8834,-3599.3903L13964.876,-3599.3983L13964.8601,-3599.4236L13964.8407,-3599.4603L13964.8289,-3599.4862L13964.8171,-3599.5132L13964.8026,-3599.5442L13964.7747,-3599.6055L13964.7478,-3599.6591L13964.7222,-3599.7138L13964.7194,-3599.7222L13964.7125,-3599.7341L13964.6914,-3599.7812L13964.6597,-3599.856L13964.6515,-3599.8636L13964.6411,-3599.8794L13964.6086,-3599.9233L13964.5878,-3599.956L13964.5788,-3599.9763L13964.5643,-3600.0118L13964.5587,-3600.0293L13964.5483,-3600.0569L13964.5366,-3600.0884L13964.5222,-3600.125L13964.5123,-3600.1492L13964.5038,-3600.1712L13964.4995,-3600.1839L13964.4832,-3600.2281L13964.4631,-3600.2749L13964.4392,-3600.3194L13964.3971,-3600.3764L13964.3608,-3600.4264L13964.3525,-3600.4383L13964.3476,-3600.4445L13964.3421,-3600.4524L13964.3199,-3600.4844L13964.2658,-3600.5656L13964.2563,-3600.5824L13964.2436,-3600.6016L13964.2339,-3600.6152L13964.2089,-3600.6543L13964.2055,-3600.6597L13964.1858,-3600.6892L13964.1711,-3600.7102L13964.1486,-3600.7431L13964.1158,-3600.7845L13964.1119,-3600.792L13964.1001,-3600.8067L13964.0634,-3600.8568L13964.0523,-3600.8709L13964.0217,-3600.9109L13964.0127,-3600.9261L13963.9878,-3600.9802L13963.98,-3600.9963L13963.9767,-3601.0011L13963.9717,-3601.012L13963.9667,-3601.0219L13963.9377,-3601.0831L13963.9155,-3601.1199L13963.9102,-3601.149L13963.8871,-3601.1721L13963.8711,-3601.1943L13963.8448,-3601.2311L13963.8193,-3601.2596L13963.7916,-3601.2872L13963.7562,-3601.3278L13963.7006,-3601.3893L13963.6716,-3601.4219L13963.6411,-3601.4546L13963.5967,-3601.5098L13963.578,-3601.5323L13963.5375,-3601.588L13963.4913,-3601.6399L13963.474,-3601.6613L13963.4615,-3601.6748L13963.4476,-3601.6923L13963.4226,-3601.7194L13963.4009,-3601.7423L13963.3824,-3601.7628L13963.3429,-3601.8028L13963.3221,-3601.8213L13963.311,-3601.832L13963.2514,-3601.885L13963.2188,-3601.9092L13963.1779,-3601.9351L13963.1487,-3601.9526L13963.0995,-3601.9819L13963.0905,-3601.9858L13963.0739,-3601.9949L13963.042,-3602.0084L13963.0343,-3602.0117L13962.9803,-3602.0287L13962.9227,-3602.0439L13962.911,-3602.0447L13962.9054,-3602.0478L13962.8852,-3602.054L13962.8513,-3602.063L13962.8291,-3602.0732L13962.818,-3602.0799L13962.793,-3602.0979L13962.7889,-3602.1008L13962.7674,-3602.1171L13962.7355,-3602.1318L13962.7058,-3602.1421L13962.6717,-3602.1543L13962.6405,-3602.1633L13962.619,-3602.1706L13962.6003,-3602.1768L13962.5697,-3602.2017L13962.5546,-3602.2119L13962.5247,-3602.2349L13962.5136,-3602.2422L13962.5088,-3602.2472L13962.466,-3602.2803L13962.4214,-3602.3149L13962.3112,-3602.4044L13962.3021,-3602.4073L13962.273,-3602.4264L13962.2224,-3602.4563L13962.189,-3602.4772L13962.1766,-3602.4851L13962.0754,-3602.5254L13962.0622,-3602.5316L13962.0476,-3602.5367L13962.0314,-3602.541L13962.0095,-3602.544L13962.0005,-3602.5463L13961.9617,-3602.5536L13961.945,-3602.5564L13961.9236,-3602.5609L13961.9062,-3602.5632L13961.875,-3602.5699L13961.8674,-3602.5705L13961.8584,-3602.5727L13961.8452,-3602.5739L13961.8327,-3602.5739L13961.8174,-3602.5739L13961.7724,-3602.5648L13961.71,-3602.5524L13961.6652,-3602.5431L13961.6196,-3602.5352L13961.5717,-3602.5261L13961.563,-3602.5243L13961.5132,-3602.5131L13961.4979,-3602.5102L13961.4791,-3602.5074L13961.475,-3602.5074L13961.4632,-3602.5079L13961.4431,-3602.5113L13961.4258,-3602.5152"/>
<path content="1,朝日自動車（株）,120,5.0,6.0,6.0," xlink:title="1" d="M13963.7793,-3603.5156L13963.8024,-3603.5053L13963.8149,-3603.4985L13963.8283,-3603.4841L13963.8398,-3603.4828L13963.8468,-3603.4822L13963.8634,-3603.458L13963.9214,-3603.39L13963.9226,-3603.3506L13963.9274,-3603.3162L13963.9331,-3603.2661L13963.9392,-3603.2345L13963.9442,-3603.2086L13963.9453,-3603.1832L13963.9321,-3603.1317L13963.9183,-3603.0929L13963.9099,-3603.067L13963.9079,-3603.0619L13963.8968,-3603.0439L13963.885,-3603.0332L13963.8593,-3603.0186L13963.8059,-3602.9876L13963.6908,-3602.9194L13963.677,-3602.9138L13963.7073,-3602.8771L13963.7311,-3602.8456L13963.7424,-3602.8314L13963.765,-3602.8033L13963.7706,-3602.7983L13963.7911,-3602.7719L13963.8052,-3602.7538L13963.837,-3602.7146L13963.8539,-3602.6936L13963.9245,-3602.6073L13963.9767,-3602.542L13963.9843,-3602.5339L13963.9863,-3602.4844L13963.9863,-3602.2376L13963.9863,-3602.2298L13963.9856,-3602.2135L13963.9857,-3602.1742L13963.9842,-3602.1644L13963.9821,-3602.1492L13963.9814,-3602.1442L13963.9787,-3602.1301L13963.9738,-3602.0963L13963.9683,-3602.0399L13963.969,-3602.0106L13963.9706,-3602.0044L13963.9745,-3601.9892L13963.9799,-3601.9778L13964.0043,-3601.9188L13964.0106,-3601.9036L13964.0154,-3601.8901L13964.0238,-3601.8653L13964.0327,-3601.8372L13964.0487,-3601.7864L13964.0522,-3601.778L13964.0566,-3601.7629L13964.0617,-3601.7494L13964.0633,-3601.7402L13964.0709,-3601.7177L13964.0813,-3601.6856L13964.0848,-3601.6715L13964.0848,-3601.6366L13964.0715,-3601.5761L13964.0647,-3601.5526L13964.0594,-3601.5375L13964.0349,-3601.4985L13963.9891,-3601.4501L13963.942,-3601.4011L13963.8629,-3601.325L13963.8394,-3601.2962L13963.8193,-3601.2596L13963.8448,-3601.2311L13963.8711,-3601.1943L13963.8871,-3601.1721L13963.9102,-3601.149L13963.9334,-3601.1291L13963.9472,-3601.1173L13964.0433,-3601.0346L13964.0471,-3601.0215L13964.0938,-3600.9897L13964.2276,-3600.8708L13964.2314,-3600.8675L13964.2344,-3600.8647L13964.2725,-3600.8229L13964.3389,-3600.7686L13964.4011,-3600.7113L13964.4644,-3600.6621L13964.4647,-3600.6527L13964.4844,-3600.632L13964.4986,-3600.6189L13964.5308,-3600.5884L13964.5927,-3600.5254L13964.6623,-3600.4577L13964.6707,-3600.4484L13964.6818,-3600.4386L13964.6916,-3600.4382L13964.7441,-3600.3666L13964.7646,-3600.3356L13964.7722,-3600.3194L13964.7884,-3600.2832L13964.8002,-3600.2488L13964.8106,-3600.2105L13964.8217,-3600.1548L13964.8258,-3600.1306L13964.8298,-3600.1046L13964.8319,-3600.0927L13964.9221,-3600.1119L13965.0078,-3600.1295L13965.0144,-3600.1307L13965.0704,-3600.1376L13965.1169,-3600.1532L13965.1308,-3600.1566L13965.2243,-3600.178L13965.2776,-3600.1831L13965.3157,-3600.1853L13965.3303,-3600.187L13965.3552,-3600.1887L13965.4328,-3600.1938L13965.4459,-3600.1919L13965.4654,-3600.1961L13965.4778,-3600.1978L13965.5249,-3600.2006L13965.5384,-3600.2012L13965.5393,-3600.1892L13965.5453,-3600.1425L13965.5502,-3600.1066L13965.5585,-3600.0364L13965.5608,-3600.0071L13965.5608,-3600.0069L13965.5608,-3600.0068L13965.5627,-3599.9877L13965.563,-3599.9848L13965.5631,-3599.9845L13965.5631,-3599.9843L13965.5671,-3599.9542L13965.5683,-3599.9415L13965.568,-3599.9297L13965.5669,-3599.9105L13965.5636,-3599.8876L13965.5582,-3599.8687L13965.5548,-3599.8591L13965.5492,-3599.8389L13965.5395,-3599.8068L13965.5298,-3599.7814L13965.5437,-3599.778L13965.5471,-3599.7763L13965.5575,-3599.7718L13965.6096,-3599.747L13965.6172,-3599.7454L13965.66,-3599.7245L13965.6937,-3599.7115L13965.7009,-3599.7076L13965.7708,-3599.68L13965.793,-3599.6715L13965.7999,-3599.6699L13965.8203,-3599.6616"/>
<path content="1,朝日自動車（株）,124,24.0,17.0,16.0," xlink:title="1" d="M13963.7793,-3603.5156L13963.8024,-3603.5053L13963.8149,-3603.4985L13963.8283,-3603.4841L13963.8398,-3603.4828L13963.8468,-3603.4822L13963.8634,-3603.458L13963.9214,-3603.39L13963.9226,-3603.3506L13963.9274,-3603.3162L13963.9331,-3603.2661L13963.9392,-3603.2345L13963.9442,-3603.2086L13963.9453,-3603.1832L13963.9321,-3603.1317L13963.9183,-3603.0929L13963.9099,-3603.067L13963.9079,-3603.0619L13963.8968,-3603.0439L13963.885,-3603.0332L13963.8593,-3603.0186L13963.8059,-3602.9876L13963.6908,-3602.9194L13963.677,-3602.9138L13963.7073,-3602.8771L13963.7311,-3602.8456L13963.7424,-3602.8314L13963.765,-3602.8033L13963.7706,-3602.7983L13963.7911,-3602.7719L13963.8052,-3602.7538L13963.837,-3602.7146L13963.8539,-3602.6936L13963.9245,-3602.6073L13963.9767,-3602.542L13963.9843,-3602.5339L13963.9863,-3602.4844L13963.9863,-3602.2376L13963.9863,-3602.2298L13963.9856,-3602.2135L13963.9857,-3602.1742L13963.9842,-3602.1644L13963.9821,-3602.1492L13963.9814,-3602.1442L13963.9787,-3602.1301L13963.9738,-3602.0963L13963.9683,-3602.0399L13963.969,-3602.0106L13963.9706,-3602.0044L13963.9745,-3601.9892L13963.9799,-3601.9778L13964.0043,-3601.9188L13964.0106,-3601.9036L13964.0154,-3601.8901L13964.0238,-3601.8653L13964.0327,-3601.8372L13964.0487,-3601.7864L13964.0522,-3601.778L13964.0566,-3601.7629L13964.0617,-3601.7494L13964.0633,-3601.7402L13964.0709,-3601.7177L13964.0813,-3601.6856L13964.0848,-3601.6715L13964.0848,-3601.6366L13964.0715,-3601.5761L13964.0647,-3601.5526L13964.0594,-3601.5375L13964.0349,-3601.4985L13963.9891,-3601.4501L13963.942,-3601.4011L13963.8629,-3601.325L13963.8394,-3601.2962L13963.8193,-3601.2596L13963.8448,-3601.2311L13963.8711,-3601.1943L13963.8871,-3601.1721L13963.9102,-3601.149L13963.9334,-3601.1291L13963.9472,-3601.1173L13964.0433,-3601.0346L13964.0471,-3601.0215L13964.0938,-3600.9897L13964.2276,-3600.8708L13964.2314,-3600.8675L13964.2344,-3600.8647L13964.2725,-3600.8229L13964.3389,-3600.7686L13964.4011,-3600.7113L13964.4644,-3600.6621L13964.4647,-3600.6527L13964.4844,-3600.632L13964.4986,-3600.6189L13964.5308,-3600.5884L13964.5927,-3600.5254L13964.6623,-3600.4577L13964.6707,-3600.4484L13964.6818,-3600.4386L13964.6916,-3600.4382L13964.7441,-3600.3666L13964.7646,-3600.3356L13964.7722,-3600.3194L13964.7884,-3600.2832L13964.8002,-3600.2488L13964.8106,-3600.2105L13964.8217,-3600.1548L13964.8258,-3600.1306L13964.8298,-3600.1046L13964.8319,-3600.0927L13964.9221,-3600.1119L13965.0078,-3600.1295L13965.0144,-3600.1307L13965.0704,-3600.1376L13965.1169,-3600.1532L13965.1308,-3600.1566L13965.2243,-3600.178L13965.2776,-3600.1831L13965.3157,-3600.1853L13965.3303,-3600.187L13965.3552,-3600.1887L13965.4328,-3600.1938L13965.4459,-3600.1919L13965.4654,-3600.1961L13965.4778,-3600.1978L13965.5249,-3600.2006L13965.5384,-3600.2012L13965.5393,-3600.1892L13965.5453,-3600.1425L13965.5502,-3600.1066L13965.5585,-3600.0364L13965.5608,-3600.0071L13965.5608,-3600.0069L13965.5608,-3600.0068L13965.5627,-3599.9877L13965.563,-3599.9848L13965.5631,-3599.9845L13965.5631,-3599.9843L13965.5671,-3599.9542L13965.5683,-3599.9415L13965.568,-3599.9297L13965.5669,-3599.9105L13965.5636,-3599.8876L13965.5582,-3599.8687L13965.5548,-3599.8591L13965.5492,-3599.8389L13965.5395,-3599.8068L13965.5298,-3599.7814L13965.5437,-3599.778L13965.5471,-3599.7763L13965.5575,-3599.7718L13965.6096,-3599.747L13965.6172,-3599.7454L13965.66,-3599.7245L13965.6937,-3599.7115L13965.7009,-3599.7076L13965.7708,-3599.68L13965.793,-3599.6715L13965.7999,-3599.6699L13965.8203,-3599.6616"/>
<path content="1,朝日自動車（株）,126,18.0,19.0,14.5," xlink:title="1" d="M13965.8203,-3599.6616L13965.7999,-3599.6699L13965.793,-3599.6715L13965.7708,-3599.68L13965.7009,-3599.7076L13965.6937,-3599.7115L13965.66,-3599.7245L13965.6172,-3599.7454L13965.6096,-3599.747L13965.5575,-3599.7718L13965.5471,-3599.7763L13965.5437,-3599.778L13965.5298,-3599.7814L13965.5395,-3599.8068L13965.5492,-3599.8389L13965.5548,-3599.8591L13965.5582,-3599.8687L13965.5636,-3599.8876L13965.5669,-3599.9105L13965.568,-3599.9297L13965.5683,-3599.9415L13965.5671,-3599.9542L13965.5631,-3599.9842L13965.5631,-3599.9843L13965.5631,-3599.9845L13965.563,-3599.9848L13965.5627,-3599.9877L13965.5608,-3600.0067L13965.5608,-3600.0068L13965.5608,-3600.0069L13965.5608,-3600.0071L13965.5585,-3600.0364L13965.5502,-3600.1066L13965.5453,-3600.1425L13965.5393,-3600.1892L13965.5384,-3600.2012L13965.5249,-3600.2006L13965.4778,-3600.1978L13965.4654,-3600.1961L13965.4459,-3600.1919L13965.4328,-3600.1938L13965.3552,-3600.1887L13965.3303,-3600.187L13965.3157,-3600.1853L13965.2776,-3600.1831L13965.2243,-3600.178L13965.1308,-3600.1566L13965.1169,-3600.1532L13965.0704,-3600.1376L13965.0144,-3600.1307L13965.0078,-3600.1295L13964.9221,-3600.1119L13964.8319,-3600.0927L13964.8298,-3600.1046L13964.8258,-3600.1306L13964.8217,-3600.1548L13964.8106,-3600.2105L13964.8002,-3600.2488L13964.7884,-3600.2832L13964.7722,-3600.3194L13964.7646,-3600.3356L13964.7441,-3600.3666L13964.6916,-3600.4382L13964.6818,-3600.4386L13964.6707,-3600.4484L13964.703,-3600.4786L13964.7456,-3600.5262L13964.7515,-3600.5292L13964.7525,-3600.5374L13964.7546,-3600.5617L13964.763,-3600.629L13964.7657,-3600.6507L13964.7719,-3600.698L13964.8149,-3600.707L13964.9037,-3600.7217L13964.9099,-3600.7279L13964.912,-3600.7301L13964.9168,-3600.7515L13964.9175,-3600.7938L13964.9162,-3600.8253L13964.9113,-3600.8558L13964.9064,-3600.8614L13964.8933,-3600.8687L13964.8698,-3600.8811L13964.8522,-3600.8938L13964.8473,-3600.9061L13964.8454,-3600.9263L13964.8476,-3600.9496"/>
<path content="1,朝日自動車（株）,127,1.0,4.0,0.0," xlink:title="1" d="M13963.7073,-3602.8771L13963.7311,-3602.8456L13963.7424,-3602.8314L13963.765,-3602.8033L13963.7706,-3602.7983L13963.7911,-3602.7719L13963.8052,-3602.7538L13963.837,-3602.7146L13963.8539,-3602.6936L13963.9245,-3602.6073L13963.9767,-3602.542L13963.9843,-3602.5339L13963.9863,-3602.4844L13963.9863,-3602.2376L13963.9863,-3602.2298L13963.9856,-3602.2135L13963.9857,-3602.1742L13963.9842,-3602.1644L13963.9821,-3602.1492L13963.9814,-3602.1442L13963.9787,-3602.1301L13963.9738,-3602.0963L13963.9683,-3602.0399L13963.969,-3602.0106L13963.9706,-3602.0044L13963.9745,-3601.9892L13963.9799,-3601.9778L13964.0043,-3601.9188L13964.0106,-3601.9036L13964.0154,-3601.8901L13964.0238,-3601.8653L13964.0327,-3601.8372L13964.0487,-3601.7864L13964.0522,-3601.778L13964.0566,-3601.7629L13964.0617,-3601.7494L13964.0633,-3601.7402L13964.0709,-3601.7177L13964.0813,-3601.6856L13964.0848,-3601.6715L13964.0848,-3601.6366L13964.0715,-3601.5761L13964.0647,-3601.5526L13964.0594,-3601.5375L13964.0349,-3601.4985L13963.9891,-3601.4501L13963.942,-3601.4011L13963.8629,-3601.325L13963.8394,-3601.2962L13963.8193,-3601.2596L13963.8448,-3601.2311L13963.8711,-3601.1943L13963.8871,-3601.1721L13963.9102,-3601.149L13963.9334,-3601.1291L13963.9472,-3601.1173L13964.0433,-3601.0346L13964.0471,-3601.0215L13964.0938,-3600.9897L13964.2276,-3600.8708L13964.2314,-3600.8675L13964.2344,-3600.8647L13964.2725,-3600.8229L13964.3389,-3600.7686L13964.4011,-3600.7113L13964.4644,-3600.6621L13964.4647,-3600.6527L13964.4844,-3600.632L13964.4986,-3600.6189L13964.5308,-3600.5884L13964.5927,-3600.5254L13964.6623,-3600.4577L13964.6707,-3600.4484L13964.6818,-3600.4386L13964.6916,-3600.4382L13964.7441,-3600.3666L13964.7646,-3600.3356L13964.7722,-3600.3194L13964.7884,-3600.2832L13964.8002,-3600.2488L13964.8106,-3600.2105L13964.8217,-3600.1548L13964.8258,-3600.1306L13964.8298,-3600.1046L13964.8319,-3600.0927L13964.9221,-3600.1119L13965.0078,-3600.1295L13965.0144,-3600.1307L13965.0704,-3600.1376L13965.1169,-3600.1532L13965.1308,-3600.1566L13965.2243,-3600.178L13965.2776,-3600.1831L13965.3157,-3600.1853L13965.3303,-3600.187L13965.3552,-3600.1887L13965.4328,-3600.1938L13965.4459,-3600.1919L13965.4654,-3600.1961L13965.4778,-3600.1978L13965.5249,-3600.2006L13965.5384,-3600.2012L13965.5393,-3600.1892L13965.5453,-3600.1425L13965.5502,-3600.1066L13965.5585,-3600.0364L13965.5608,-3600.0071L13965.5608,-3600.0069L13965.5608,-3600.0068L13965.5608,-3600.0067L13965.5627,-3599.9877L13965.563,-3599.9848L13965.5631,-3599.9845L13965.5631,-3599.9843L13965.5631,-3599.9842L13965.5671,-3599.9542L13965.5683,-3599.9415L13965.568,-3599.9297L13965.5669,-3599.9105L13965.5636,-3599.8876L13965.5582,-3599.8687L13965.5548,-3599.8591L13965.5492,-3599.8389L13965.5395,-3599.8068L13965.5298,-3599.7814L13965.5437,-3599.778L13965.5471,-3599.7763L13965.5575,-3599.7718L13965.6096,-3599.747L13965.6172,-3599.7454L13965.66,-3599.7245L13965.6937,-3599.7115L13965.7009,-3599.7076L13965.7708,-3599.68L13965.793,-3599.6715L13965.7999,-3599.6699L13965.8203,-3599.6616"/>
<path content="1,朝日自動車（株）,128,12.0,5.0,4.0," xlink:title="1" d="M13965.8203,-3599.6616L13965.7999,-3599.6699L13965.793,-3599.6715L13965.7708,-3599.68L13965.7009,-3599.7076L13965.6937,-3599.7115L13965.66,-3599.7245L13965.6172,-3599.7454L13965.6096,-3599.747L13965.5575,-3599.7718L13965.5471,-3599.7763L13965.5437,-3599.778L13965.5298,-3599.7814L13965.5395,-3599.8068L13965.5492,-3599.8389L13965.5548,-3599.8591L13965.5582,-3599.8687L13965.5636,-3599.8876L13965.5669,-3599.9105L13965.568,-3599.9297L13965.5683,-3599.9415L13965.5671,-3599.9542L13965.5631,-3599.9842L13965.5631,-3599.9843L13965.5631,-3599.9845L13965.563,-3599.9848L13965.5627,-3599.9877L13965.5608,-3600.0067L13965.5608,-3600.0068L13965.5608,-3600.0069L13965.5608,-3600.0071L13965.5585,-3600.0364L13965.5502,-3600.1066L13965.5453,-3600.1425L13965.5393,-3600.1892L13965.5384,-3600.2012L13965.5249,-3600.2006L13965.4778,-3600.1978L13965.4654,-3600.1961L13965.4459,-3600.1919L13965.4328,-3600.1938L13965.3552,-3600.1887L13965.3303,-3600.187L13965.3157,-3600.1853L13965.2776,-3600.1831L13965.2243,-3600.178L13965.1308,-3600.1566L13965.1169,-3600.1532L13965.0704,-3600.1376L13965.0144,-3600.1307L13965.0078,-3600.1295L13964.9221,-3600.1119L13964.8319,-3600.0927L13964.8298,-3600.1046L13964.8258,-3600.1306L13964.8217,-3600.1548L13964.8106,-3600.2105L13964.8002,-3600.2488L13964.7884,-3600.2832L13964.7722,-3600.3194L13964.7646,-3600.3356L13964.7441,-3600.3666L13964.6916,-3600.4382L13964.6818,-3600.4386L13964.6707,-3600.4484L13964.6623,-3600.4577L13964.5927,-3600.5254L13964.5308,-3600.5884L13964.4986,-3600.6189L13964.4844,-3600.632L13964.4647,-3600.6527L13964.4644,-3600.6621L13964.4011,-3600.7113L13964.3389,-3600.7686L13964.2725,-3600.8229L13964.2344,-3600.8647L13964.2314,-3600.8675L13964.2276,-3600.8708L13964.0938,-3600.9897L13964.0471,-3601.0215L13964.0433,-3601.0346L13963.9472,-3601.1173L13963.9334,-3601.1291L13963.9102,-3601.149"/>
<path content="1,朝日自動車（株）,128,12.0,5.0,4.0," xlink:title="1" d="M13965.0827,-3599.1926L13965.0735,-3599.1817L13965.0266,-3599.1211M13965.1043,-3599.1211L13965.1025,-3599.1256L13965.0894,-3599.1695L13965.0827,-3599.1926"/>
<path content="1,朝日自動車（株）,128,12.0,5.0,4.0," xlink:title="1" d="M13963.9102,-3601.149L13963.9155,-3601.1199L13963.9377,-3601.0831L13963.9667,-3601.0219L13963.9717,-3601.012L13963.9767,-3601.0011L13963.98,-3600.9963L13963.9878,-3600.9802L13964.0127,-3600.9261L13964.0217,-3600.9109L13964.0523,-3600.8709L13964.0634,-3600.8568L13964.1001,-3600.8067L13964.1119,-3600.792L13964.1158,-3600.7845L13964.1486,-3600.7431L13964.1711,-3600.7102L13964.1858,-3600.6892L13964.2055,-3600.6597L13964.2089,-3600.6543L13964.2339,-3600.6152L13964.2436,-3600.6016L13964.2563,-3600.5824L13964.2658,-3600.5656L13964.3199,-3600.4844L13964.3421,-3600.4524L13964.3476,-3600.4445L13964.3525,-3600.4383L13964.3608,-3600.4264L13964.3971,-3600.3764L13964.4392,-3600.3194L13964.4631,-3600.2749L13964.4832,-3600.2281L13964.4995,-3600.1839L13964.5038,-3600.1712L13964.5123,-3600.1492L13964.5222,-3600.125L13964.5366,-3600.0884L13964.5483,-3600.0569L13964.5587,-3600.0293L13964.5643,-3600.0118L13964.5788,-3599.9763L13964.5878,-3599.956L13964.6086,-3599.9233L13964.6411,-3599.8794L13964.6515,-3599.8636L13964.6597,-3599.856L13964.6914,-3599.7812L13964.7125,-3599.7341L13964.7194,-3599.7222L13964.7222,-3599.7138L13964.7478,-3599.6591L13964.7747,-3599.6055L13964.8026,-3599.5442L13964.8171,-3599.5132L13964.8289,-3599.4862L13964.8407,-3599.4603L13964.8601,-3599.4236L13964.876,-3599.3983L13964.8834,-3599.3903L13964.8874,-3599.3869L13964.8912,-3599.3836L13964.9146,-3599.3615L13964.9243,-3599.3567L13964.9605,-3599.3199L13965.0014,-3599.2805L13965.0062,-3599.2749L13965.0118,-3599.2704L13965.072,-3599.2067L13965.0827,-3599.1926"/>
<path content="1,朝日自動車（株）,128,12.0,5.0,4.0," xlink:title="1" d="M13963.9102,-3601.149L13963.8871,-3601.1721L13963.8711,-3601.1943L13963.8448,-3601.2311L13963.8193,-3601.2596"/>
<path content="1,朝日自動車（株）,128,12.0,5.0,4.0," xlink:title="1" d="M13963.8193,-3601.2596L13963.8394,-3601.2962L13963.8629,-3601.325L13963.942,-3601.4011L13963.9891,-3601.4501L13964.0349,-3601.4985L13964.0594,-3601.5375L13964.0647,-3601.5526L13964.0715,-3601.5761L13964.0848,-3601.6366L13964.0848,-3601.6715L13964.0813,-3601.6856L13964.0709,-3601.7177L13964.0633,-3601.7402L13964.0617,-3601.7494L13964.0566,-3601.7629L13964.0522,-3601.778L13964.0487,-3601.7864L13964.0327,-3601.8372L13964.0238,-3601.8653L13964.0154,-3601.8901L13964.0106,-3601.9036L13964.0043,-3601.9188L13963.9799,-3601.9778L13963.9745,-3601.9892L13963.9706,-3602.0044L13963.969,-3602.0106L13963.9683,-3602.0399L13963.9738,-3602.0963L13963.9787,-3602.1301L13963.9814,-3602.1442L13963.9821,-3602.1492L13963.9842,-3602.1644L13963.9857,-3602.1742L13963.9856,-3602.2135L13963.9863,-3602.2298L13963.9863,-3602.2376L13963.9863,-3602.4844L13963.9843,-3602.5339L13963.9767,-3602.542L13963.9245,-3602.6073L13963.8539,-3602.6936L13963.837,-3602.7146L13963.8052,-3602.7538L13963.7911,-3602.7719L13963.7706,-3602.7983L13963.765,-3602.8033L13963.7424,-3602.8314L13963.7311,-3602.8456L13963.7073,-3602.8771L13963.677,-3602.9138L13963.6624,-3602.9087L13963.6118,-3602.8918L13963.591,-3602.8833L13963.5896,-3602.8822L13963.5633,-3602.8677L13963.5549,-3602.8636L13963.5196,-3602.8416L13963.4693,-3602.8104L13963.4107,-3602.774L13963.3893,-3602.7605L13963.3809,-3602.756L13963.3431,-3602.7298L13963.2573,-3602.6785L13963.2215,-3602.6561L13963.1979,-3602.6416L13963.1459,-3602.6056L13963.1431,-3602.6044L13963.0627,-3602.5487L13963.0556,-3602.5438L13963.0405,-3602.5335L13963.0211,-3602.525L13962.9746,-3602.516L13962.955,-3602.5122L13962.9448,-3602.5121L13962.9067,-3602.5053L13962.8901,-3602.5019L13962.7891,-3602.4863L13962.7743,-3602.4839L13962.7556,-3602.4783L13962.7396,-3602.4681L13962.7246,-3602.4446L13962.7132,-3602.4399L13962.707,-3602.4298L13962.6793,-3602.3847L13962.6703,-3602.3718L13962.6335,-3602.3098L13962.6238,-3602.2906L13962.6141,-3602.2382L13962.6044,-3602.196L13962.6044,-3602.192L13962.6003,-3602.1768L13962.619,-3602.1706L13962.6405,-3602.1633L13962.6717,-3602.1543L13962.7058,-3602.1421L13962.7355,-3602.1318L13962.7674,-3602.1171L13962.7889,-3602.1008L13962.793,-3602.0979L13962.818,-3602.0799L13962.8291,-3602.0732L13962.8513,-3602.063L13962.8852,-3602.054L13962.9054,-3602.0478L13962.911,-3602.0447L13962.9227,-3602.0439L13962.9803,-3602.0287L13963.0343,-3602.0117L13963.042,-3602.0084L13963.0739,-3601.9949L13963.0905,-3601.9858L13963.0995,-3601.9819L13963.1487,-3601.9526L13963.1779,-3601.9351L13963.2188,-3601.9092L13963.2514,-3601.885L13963.311,-3601.832L13963.3221,-3601.8213L13963.3429,-3601.8028L13963.3824,-3601.7628L13963.4009,-3601.7423L13963.4226,-3601.7194L13963.4476,-3601.6923L13963.4615,-3601.6748L13963.474,-3601.6613L13963.4913,-3601.6399L13963.5375,-3601.588L13963.578,-3601.5323L13963.5967,-3601.5098L13963.6411,-3601.4546L13963.6716,-3601.4219L13963.7006,-3601.3893L13963.7562,-3601.3278L13963.7916,-3601.2872L13963.8193,-3601.2596"/>
<path content="1,朝日自動車（株）,129,999.9,999.9,999.9," xlink:title="1" d="M13965.8203,-3599.6616L13965.7999,-3599.6699L13965.793,-3599.6715L13965.7708,-3599.68L13965.7009,-3599.7076L13965.6937,-3599.7115L13965.66,-3599.7245L13965.6172,-3599.7454L13965.6096,-3599.747L13965.5575,-3599.7718L13965.5471,-3599.7763L13965.5437,-3599.778L13965.5298,-3599.7814L13965.5395,-3599.8068L13965.5492,-3599.8389L13965.5548,-3599.8591L13965.5582,-3599.8687L13965.5636,-3599.8876L13965.5669,-3599.9105L13965.568,-3599.9297L13965.5683,-3599.9415L13965.5671,-3599.9542L13965.5631,-3599.9843L13965.5631,-3599.9845L13965.563,-3599.9848L13965.5627,-3599.9877L13965.5608,-3600.0068L13965.5608,-3600.0069L13965.5608,-3600.0071L13965.5585,-3600.0364L13965.5502,-3600.1066L13965.5453,-3600.1425L13965.5393,-3600.1892L13965.5384,-3600.2012L13965.5249,-3600.2006L13965.4778,-3600.1978L13965.4654,-3600.1961L13965.4459,-3600.1919L13965.4328,-3600.1938L13965.3552,-3600.1887L13965.3303,-3600.187L13965.3157,-3600.1853L13965.2776,-3600.1831L13965.2243,-3600.178L13965.1308,-3600.1566L13965.1169,-3600.1532L13965.0704,-3600.1376L13965.0144,-3600.1307L13965.0078,-3600.1295L13964.9221,-3600.1119L13964.8319,-3600.0927L13964.8298,-3600.1046L13964.8258,-3600.1306L13964.8217,-3600.1548L13964.8106,-3600.2105L13964.8002,-3600.2488L13964.7884,-3600.2832L13964.7722,-3600.3194L13964.7646,-3600.3356L13964.7441,-3600.3666L13964.6916,-3600.4382L13964.6818,-3600.4386L13964.6707,-3600.4484L13964.6623,-3600.4577L13964.5927,-3600.5254L13964.5308,-3600.5884L13964.4986,-3600.6189L13964.4844,-3600.632L13964.4647,-3600.6527L13964.4644,-3600.6621L13964.4011,-3600.7113L13964.3389,-3600.7686L13964.2725,-3600.8229L13964.2344,-3600.8647L13964.2314,-3600.8675L13964.2276,-3600.8708L13964.0938,-3600.9897L13964.0471,-3601.0215L13964.0433,-3601.0346L13963.9472,-3601.1173L13963.9334,-3601.1291L13963.9102,-3601.149L13963.8871,-3601.1721L13963.8711,-3601.1943L13963.8448,-3601.2311L13963.8193,-3601.2596L13963.8394,-3601.2962L13963.8629,-3601.325L13963.942,-3601.4011L13963.9891,-3601.4501L13964.0349,-3601.4985L13964.0594,-3601.5375L13964.0647,-3601.5526L13964.0715,-3601.5761L13964.0848,-3601.6366L13964.0848,-3601.6715L13964.0813,-3601.6856L13964.0709,-3601.7177L13964.0633,-3601.7402L13964.0617,-3601.7494L13964.0566,-3601.7629L13964.0522,-3601.778L13964.0487,-3601.7864L13964.0327,-3601.8372L13964.0238,-3601.8653L13964.0154,-3601.8901L13964.0106,-3601.9036L13964.0043,-3601.9188L13963.9799,-3601.9778L13963.9745,-3601.9892L13963.9706,-3602.0044L13963.969,-3602.0106L13963.9683,-3602.0399L13963.9738,-3602.0963L13963.9787,-3602.1301L13963.9814,-3602.1442L13963.9821,-3602.1492L13963.9842,-3602.1644L13963.9857,-3602.1742L13963.9856,-3602.2135L13963.9863,-3602.2298L13963.9863,-3602.2376L13963.9863,-3602.4844L13963.9843,-3602.5339L13963.9767,-3602.542L13963.9245,-3602.6073L13963.8539,-3602.6936L13963.837,-3602.7146L13963.8052,-3602.7538L13963.7911,-3602.7719L13963.7706,-3602.7983L13963.765,-3602.8033L13963.7424,-3602.8314L13963.7311,-3602.8456L13963.7073,-3602.8771L13963.677,-3602.9138L13963.6908,-3602.9194L13963.8059,-3602.9876L13963.8593,-3603.0186L13963.885,-3603.0332L13963.8968,-3603.0439L13963.9079,-3603.0619L13963.9099,-3603.067L13963.9183,-3603.0929L13963.9321,-3603.1317L13963.9453,-3603.1832L13963.9442,-3603.2086L13963.9392,-3603.2345L13963.9331,-3603.2661L13963.9274,-3603.3162L13963.9226,-3603.3506L13963.9214,-3603.39L13963.8634,-3603.458L13963.8468,-3603.4822L13963.8398,-3603.4828L13963.8283,-3603.4841L13963.8149,-3603.4985L13963.8024,-3603.5053L13963.7793,-3603.5156"/>
<path content="1,東武バスウエスト,深夜急行（大宮駅東口～内宿）,1.0,0.0,0.0," xlink:title="1" d="M13962.4059,-3599.1211L13962.3826,-3599.1434L13962.3625,-3599.1614L13962.2746,-3599.2476L13962.2601,-3599.2617L13962.1769,-3599.3357L13962.1399,-3599.3666L13962.0018,-3599.4939L13961.8921,-3599.5734L13961.8683,-3599.5942L13961.8375,-3599.6211L13961.8126,-3599.6397L13961.7738,-3599.6746L13961.6983,-3599.7507L13961.6803,-3599.7698L13961.6464,-3599.8008L13961.6131,-3599.8262L13961.5231,-3599.8899L13961.5155,-3599.8955L13961.4981,-3599.9073L13961.4781,-3599.9214"/>
<path content="1,東武バスウエスト,深夜急行（大宮駅東口～内宿）,1.0,0.0,0.0," xlink:title="1" d="M13961.4781,-3599.9214L13961.4531,-3599.9394L13961.4282,-3599.9563L13961.4258,-3599.9577"/>
<path content="1,東武バスウエスト,深夜急行（大宮駅東口～内宿）,1.0,0.0,0.0," xlink:title="1" d="M13961.7106,-3599.9973L13961.6777,-3600.0379L13961.5813,-3599.9671L13961.5692,-3599.9603L13961.5224,-3599.9406L13961.5127,-3599.9355L13961.4781,-3599.9214"/>
<path content="3,伊奈町,北循環，総合センター,5.0,5.0,5.0," xlink:title="3" d="M13962.2241,-3599.8063L13962.2102,-3599.8296L13962.2025,-3599.8426"/>
<path content="3,伊奈町,北循環，総合センター,5.0,5.0,5.0," xlink:title="3" d="M13962.2241,-3599.8063L13962.1314,-3599.748L13962.1139,-3599.7332L13962.0821,-3599.7186L13962.0439,-3599.7L13961.9715,-3599.6655L13961.9648,-3599.6623L13961.9406,-3599.6965L13961.8727,-3599.7914L13961.811,-3599.8755L13961.758,-3599.9425L13961.7166,-3599.9917L13961.7106,-3599.9973L13961.6777,-3600.0379L13961.5813,-3599.9671L13961.5692,-3599.9603L13961.5224,-3599.9406L13961.5127,-3599.9355L13961.4781,-3599.9214L13961.449,-3599.9051L13961.4258,-3599.8883M13961.4258,-3599.8142L13961.4324,-3599.8081L13961.4864,-3599.758L13961.4912,-3599.7541L13961.5279,-3599.7191L13961.5549,-3599.6881L13961.5598,-3599.678L13961.5626,-3599.6614L13961.5633,-3599.6532L13961.512,-3599.6532L13961.4258,-3599.6532M13961.4258,-3601.052L13961.4342,-3601.0476L13961.4564,-3601.0409L13961.4258,-3600.9854M13961.4258,-3600.5459L13961.4274,-3600.5458L13961.4537,-3600.5462L13961.4738,-3600.5462L13961.5119,-3600.5552L13961.5216,-3600.5592L13961.5702,-3600.58L13961.5757,-3600.5834L13961.5944,-3600.5907L13961.6236,-3600.5986L13961.6756,-3600.6093L13961.6777,-3600.6093L13961.7068,-3600.6138L13961.738,-3600.6155L13961.7586,-3600.6131L13961.7768,-3600.6121L13961.7914,-3600.6071L13961.8039,-3600.5885L13961.8073,-3600.5857L13961.824,-3600.5727L13961.8482,-3600.562L13961.8656,-3600.5586L13961.885,-3600.5558L13961.9231,-3600.5558L13961.9467,-3600.5575L13961.9634,-3600.5603L13961.98,-3600.5648L13961.9973,-3600.5721L13962.0167,-3600.5834L13962.0299,-3600.5811L13962.127,-3600.5834L13962.1769,-3600.5843L13962.2143,-3600.584L13962.2238,-3600.583L13962.2559,-3600.5823L13962.2552,-3600.5772L13962.2539,-3600.5152L13962.2559,-3600.5012L13962.2649,-3600.4549L13962.267,-3600.4443L13962.2736,-3600.4303L13962.2761,-3600.4132L13962.2885,-3600.3862L13962.3093,-3600.3462L13962.3251,-3600.3192L13962.3369,-3600.2983L13962.3519,-3600.2723L13962.3653,-3600.2465L13962.3722,-3600.2307L13962.3743,-3600.2223L13962.3889,-3600.1879L13962.3944,-3600.1772L13962.4166,-3600.1486L13962.4256,-3600.14L13962.4934,-3600.0814L13962.5011,-3600.0719L13962.5059,-3600.0612L13962.5101,-3600.0443L13962.5156,-3600.0324L13962.5204,-3600.0257L13962.5693,-3599.989L13962.589,-3599.971L13962.5773,-3599.9586L13962.5652,-3599.9414L13962.5546,-3599.9277L13962.5405,-3599.9102L13962.5274,-3599.9164L13962.5045,-3599.9265L13962.4955,-3599.929L13962.4387,-3599.9569L13962.4032,-3599.9284L13962.3535,-3599.8927L13962.3314,-3599.8752L13962.3286,-3599.8741L13962.3009,-3599.8521L13962.2241,-3599.8063"/>
<path content="3,伊奈町,南循環，総合センター,5.0,5.0,5.0," xlink:title="3" d="M13962.1922,-3599.1211L13962.1769,-3599.1589L13962.1747,-3599.1629L13962.1575,-3599.1936L13962.0018,-3599.4939L13961.8921,-3599.5734L13961.8683,-3599.5942L13961.8375,-3599.6211L13961.886,-3599.6352L13961.8992,-3599.6397L13961.9648,-3599.6623L13961.9715,-3599.6655L13962.0439,-3599.7L13962.0821,-3599.7186L13962.1139,-3599.7332L13962.1314,-3599.748L13962.2241,-3599.8063"/>
<path content="3,伊奈町,南循環，総合センター,5.0,5.0,5.0," xlink:title="3" d="M13963.506,-3599.1211L13963.4991,-3599.1322L13963.4971,-3599.1361L13963.4825,-3599.1559L13963.4624,-3599.1812L13963.4292,-3599.2234L13963.4222,-3599.2347L13963.4174,-3599.242L13963.407,-3599.2623L13963.399,-3599.2773L13963.392,-3599.3016L13963.3778,-3599.3437L13963.3754,-3599.3511L13963.3661,-3599.3801L13963.3647,-3599.388L13963.3544,-3599.4246L13963.3398,-3599.468L13963.3294,-3599.5012L13963.328,-3599.5029L13963.3246,-3599.5153L13963.3176,-3599.5328L13963.3066,-3599.5699L13963.2962,-3599.605L13963.2879,-3599.6274L13963.2782,-3599.6556L13963.2754,-3599.6634L13963.265,-3599.6995L13963.2504,-3599.7435L13963.2442,-3599.7643L13963.1867,-3599.7581L13963.1743,-3599.7559L13963.1673,-3599.7553L13963.1292,-3599.7474L13963.0953,-3599.7359L13963.0828,-3599.7333L13963.0441,-3599.7192L13963.0364,-3599.7164L13963.0066,-3599.7068L13962.9513,-3599.6831L13962.9443,-3599.6798L13962.9097,-3599.6646L13962.8695,-3599.6443L13962.8107,-3599.6178L13962.7989,-3599.6122L13962.7649,-3599.5964L13962.7431,-3599.6189L13962.7289,-3599.6302L13962.6804,-3599.6673L13962.6721,-3599.6724L13962.6313,-3599.6972L13962.5835,-3599.7242L13962.5669,-3599.7333L13962.5544,-3599.7417L13962.5489,-3599.744L13962.53,-3599.7508L13962.5087,-3599.7637L13962.445,-3599.7896L13962.4713,-3599.8234L13962.5149,-3599.8735L13962.5357,-3599.9045L13962.5405,-3599.9102L13962.5274,-3599.9164L13962.5045,-3599.9265L13962.4955,-3599.929L13962.4387,-3599.9569L13962.4032,-3599.9284L13962.3535,-3599.8927L13962.3314,-3599.8752L13962.3286,-3599.8741L13962.3009,-3599.8521L13962.2241,-3599.8063"/>
<path content="3,伊奈町,南循環，総合センター,5.0,5.0,5.0," xlink:title="3" d="M13962.2241,-3599.8063L13962.2102,-3599.8296L13962.2025,-3599.8426"/>
</g>
</svg>
