<?xml version="1.0" encoding="UTF-8"?>
<svg  xmlns="http://www.w3.org/2000/svg" xmlns:xlink="http://www.w3.org/1999/xlink" xmlns:go="http://purl.org/svgmap/profile" property="N07_001,N07_002,N07_003,N07_004,N07_005,N07_006,N07_007" viewBox="13148.4375 -3199.21875 35.15625 35.15625" go:dataArea="13148.4375 -3199.21875 35.15625 35.15625" >
<metadata>
 <rdf:RDF xmlns:rdf="http://www.w3.org/1999/02/22-rdf-syntax-ns#" xmlns:crs="http://opengis.org/xmldtds/transformations.dtd" xmlns:svg="http://www.w3.org/svg" >
  <rdf:Description>
   <crs:CoordinateReferenceSystem rdf:resource="http://purl.org/crs/84" svg:transform="matrix(100.0,0.0,0.0,-100.0,0.0,0.0)" />
  </rdf:Description>
 </rdf:RDF>
</metadata>
<globalCoordinateSystem srsName="http://purl.org/crs/84" transform="matrix(100.0,0.0,0.0,-100.0,0.0,0.0)" />
<defs>
 <g id="p0" >
  <circle cx="0.0" cy="0.0" r="3" stroke="green" stroke-width="0.75" vector-effect="non-scaling-stroke" />
 </g>
</defs>
<g fill="none" fill-rule="evenodd" stroke="#FF00FF" stroke-width="0.75" opacity="0.5" vector-effect="non-scaling-stroke" stroke-linejoin="bevel" >
<path content="1,宮崎交通（株）,東宮団地二丁目線,2.5,4.0,3.0," xlink:title="1" d="M13148.4375,-3178.5161L13148.5501,-3178.5161L13148.5685,-3178.5189L13148.5856,-3178.5233L13148.6126,-3178.534L13148.6587,-3178.5548L13148.664,-3178.5568L13148.6851,-3178.5655L13148.6877,-3178.5665L13148.7042,-3178.5723L13148.7241,-3178.5758L13148.746,-3178.5764L13148.7663,-3178.574L13148.7766,-3178.5718L13148.7971,-3178.5627L13148.8107,-3178.5524L13148.8201,-3178.5371L13148.8273,-3178.5196L13148.8326,-3178.501L13148.8345,-3178.4846L13148.835,-3178.453L13148.8252,-3178.404L13148.8245,-3178.4003L13148.8041,-3178.3476L13148.7975,-3178.3333L13148.785,-3178.3064L13148.7692,-3178.2766L13148.7428,-3178.2523L13148.7171,-3178.2354L13148.7085,-3178.2276L13148.6973,-3178.2106L13148.6808,-3178.1915L13148.6769,-3178.1887L13148.632,-3178.1385L13148.609,-3178.1143L13148.5951,-3178.1041L13148.5589,-3178.0833L13148.5496,-3178.0765L13148.5379,-3178.058L13148.5234,-3178.0308L13148.4799,-3177.935L13148.4478,-3177.8675L13148.4375,-3177.8528"/>
<path content="1,宮崎交通（株）,青島サンクマール線,3.0,3.0,3.0," xlink:title="1" d="M13148.7663,-3178.574L13148.7461,-3178.5764L13148.7243,-3178.5758L13148.7046,-3178.5724L13148.6881,-3178.5666L13148.6854,-3178.5656L13148.6643,-3178.5569L13148.6591,-3178.5549L13148.6129,-3178.5341L13148.5858,-3178.5234L13148.5687,-3178.5189L13148.5503,-3178.5161L13148.4375,-3178.5161"/>
</g>
</svg>
