<?xml version="1.0" encoding="UTF-8"?>
<svg  xmlns="http://www.w3.org/2000/svg" xmlns:xlink="http://www.w3.org/1999/xlink" xmlns:go="http://purl.org/svgmap/profile" property="N07_001,N07_002,N07_003,N07_004,N07_005,N07_006,N07_007" viewBox="13697.75390625 -3520.01953125 2.197265625 2.197265625" go:dataArea="13697.75390625 -3520.01953125 2.197265625 2.197265625" >
<metadata>
 <rdf:RDF xmlns:rdf="http://www.w3.org/1999/02/22-rdf-syntax-ns#" xmlns:crs="http://opengis.org/xmldtds/transformations.dtd" xmlns:svg="http://www.w3.org/svg" >
  <rdf:Description>
   <crs:CoordinateReferenceSystem rdf:resource="http://purl.org/crs/84" svg:transform="matrix(100.0,0.0,0.0,-100.0,0.0,0.0)" />
  </rdf:Description>
 </rdf:RDF>
</metadata>
<globalCoordinateSystem srsName="http://purl.org/crs/84" transform="matrix(100.0,0.0,0.0,-100.0,0.0,0.0)" />
<defs>
 <g id="p0" >
  <circle cx="0.0" cy="0.0" r="3" stroke="green" stroke-width="0.75" vector-effect="non-scaling-stroke" />
 </g>
</defs>
<g fill="none" fill-rule="evenodd" stroke="#FF00FF" stroke-width="0.75" opacity="0.5" vector-effect="non-scaling-stroke" stroke-linejoin="bevel" >
<path content="1,JR東海バス（株）,ドリームとよた号,1.0,1.0,1.0," xlink:title="1" d="M13699.3588,-3520.0195L13699.6271,-3519.5486L13699.7343,-3519.3555L13699.8338,-3519.1752L13699.8107,-3519.1737L13699.6842,-3519.1725L13699.5503,-3519.1596L13699.5,-3519.1566L13699.4659,-3519.156L13699.3664,-3519.1611L13699.3531,-3519.1617L13699.3053,-3519.1638L13699.2501,-3519.1652L13699.238,-3519.1651L13699.112,-3519.1467L13698.8813,-3519.1066L13698.8736,-3519.1049L13698.7517,-3519.0784L13698.7149,-3519.0702L13698.7137,-3519.0699L13698.6931,-3519.0654L13698.6443,-3519.0546L13698.5527,-3519.034L13698.4574,-3519.014L13698.4461,-3519.0119L13698.4389,-3519.0106L13698.4225,-3519.0077L13698.3338,-3518.9897L13698.2746,-3518.9749L13698.2316,-3518.9641L13698.2106,-3518.9588L13698.1887,-3518.953L13698.1745,-3518.9481L13698.1367,-3518.9366L13698.0428,-3518.8828L13697.985,-3518.8505L13697.9778,-3518.8471L13697.9693,-3518.8438L13697.9583,-3518.8366L13697.9233,-3518.817L13697.9152,-3518.8117L13697.9111,-3518.8095L13697.9043,-3518.8059L13697.8936,-3518.8002L13697.876,-3518.7907L13697.83,-3518.7649L13697.8186,-3518.7591L13697.7539,-3518.7274"/>
<path content="1,名鉄バス（株）,基幹バス本地ヶ原線_01_on,36.5,33.0,33.0," xlink:title="1" d="M13697.7539,-3518.7274L13697.8186,-3518.7591L13697.83,-3518.7649L13697.876,-3518.7907L13697.8936,-3518.8002L13697.9043,-3518.8059L13697.9111,-3518.8095L13697.9152,-3518.8117L13697.9233,-3518.817L13697.9583,-3518.8366L13697.9693,-3518.8438L13697.9778,-3518.8471L13697.985,-3518.8505L13698.0428,-3518.8828L13698.1367,-3518.9366L13698.1745,-3518.9481L13698.1887,-3518.953L13698.2106,-3518.9588L13698.2316,-3518.9641L13698.2746,-3518.9749L13698.3338,-3518.9897L13698.4225,-3519.0077L13698.4389,-3519.0106L13698.4461,-3519.0119L13698.4574,-3519.014L13698.5527,-3519.034L13698.6443,-3519.0546L13698.6931,-3519.0654L13698.7137,-3519.0699L13698.7149,-3519.0702L13698.7517,-3519.0784L13698.8736,-3519.1049L13698.8813,-3519.1066L13699.112,-3519.1467L13699.238,-3519.1651L13699.2501,-3519.1652L13699.3053,-3519.1638L13699.3531,-3519.1617L13699.3664,-3519.1611L13699.4659,-3519.156L13699.5,-3519.1566L13699.5503,-3519.1596L13699.6842,-3519.1725L13699.8107,-3519.1737L13699.8569,-3519.1766L13699.886,-3519.1758L13699.9384,-3519.1774L13699.9512,-3519.1782"/>
<path content="1,名鉄バス（株）,基幹バス本地ヶ原線_02_on,36.5,33.0,33.0," xlink:title="1" d="M13697.7539,-3518.7274L13697.8186,-3518.7591L13697.83,-3518.7649L13697.876,-3518.7907L13697.8936,-3518.8002L13697.9043,-3518.8059L13697.9111,-3518.8095L13697.9152,-3518.8117L13697.9233,-3518.817L13697.9583,-3518.8366L13697.9693,-3518.8438L13697.9778,-3518.8471L13697.985,-3518.8505L13698.0428,-3518.8828L13698.1367,-3518.9366L13698.1745,-3518.9481L13698.1887,-3518.953L13698.2106,-3518.9588L13698.2316,-3518.9641L13698.2746,-3518.9749L13698.3338,-3518.9897L13698.4225,-3519.0077L13698.4389,-3519.0106L13698.4461,-3519.0119L13698.4574,-3519.014L13698.5527,-3519.034L13698.6443,-3519.0546L13698.6931,-3519.0654L13698.7137,-3519.0699L13698.7149,-3519.0702L13698.7517,-3519.0784L13698.8736,-3519.1049L13698.8813,-3519.1066L13699.112,-3519.1467L13699.238,-3519.1651L13699.2501,-3519.1652L13699.3053,-3519.1638L13699.3531,-3519.1617L13699.3664,-3519.1611L13699.4659,-3519.156L13699.5,-3519.1566L13699.5503,-3519.1596L13699.6842,-3519.1725L13699.8107,-3519.1737L13699.8569,-3519.1766L13699.886,-3519.1758L13699.9384,-3519.1774L13699.9512,-3519.1782"/>
<path content="1,名鉄バス（株）,基幹バス本地ヶ原線_03_on,36.5,33.0,33.0," xlink:title="1" d="M13697.7539,-3518.7274L13697.8186,-3518.7591L13697.83,-3518.7649L13697.876,-3518.7907L13697.8936,-3518.8002L13697.9043,-3518.8059L13697.9111,-3518.8095L13697.9152,-3518.8117L13697.9233,-3518.817L13697.9583,-3518.8366L13697.9693,-3518.8438L13697.9778,-3518.8471L13697.985,-3518.8505L13698.0428,-3518.8828L13698.1367,-3518.9366L13698.1745,-3518.9481L13698.1887,-3518.953L13698.2106,-3518.9588L13698.2316,-3518.9641L13698.2746,-3518.9749L13698.3338,-3518.9897L13698.4225,-3519.0077L13698.4389,-3519.0106L13698.4461,-3519.0119L13698.4574,-3519.014L13698.5527,-3519.034L13698.6443,-3519.0546L13698.6931,-3519.0654L13698.7137,-3519.0699L13698.7149,-3519.0702L13698.7517,-3519.0784L13698.8736,-3519.1049L13698.8813,-3519.1066L13699.112,-3519.1467L13699.238,-3519.1651L13699.2501,-3519.1652L13699.3053,-3519.1638L13699.3531,-3519.1617L13699.3664,-3519.1611L13699.4659,-3519.156L13699.5,-3519.1566L13699.5503,-3519.1596L13699.6842,-3519.1725L13699.8107,-3519.1737L13699.8569,-3519.1766L13699.886,-3519.1758L13699.9384,-3519.1774L13699.9512,-3519.1782"/>
<path content="1,名鉄バス（株）,基幹バス本地ヶ原線_04_on,36.5,33.0,33.0," xlink:title="1" d="M13697.7539,-3518.7274L13697.8186,-3518.7591L13697.83,-3518.7649L13697.876,-3518.7907L13697.8936,-3518.8002L13697.9043,-3518.8059L13697.9111,-3518.8095L13697.9152,-3518.8117L13697.9233,-3518.817L13697.9583,-3518.8366L13697.9693,-3518.8438L13697.9778,-3518.8471L13697.985,-3518.8505L13698.0428,-3518.8828L13698.1367,-3518.9366L13698.1745,-3518.9481L13698.1887,-3518.953L13698.2106,-3518.9588L13698.2316,-3518.9641L13698.2746,-3518.9749L13698.3338,-3518.9897L13698.4225,-3519.0077L13698.4389,-3519.0106L13698.4461,-3519.0119L13698.4574,-3519.014L13698.5527,-3519.034L13698.6443,-3519.0546L13698.6931,-3519.0654L13698.7137,-3519.0699L13698.7149,-3519.0702L13698.7517,-3519.0784L13698.8736,-3519.1049L13698.8813,-3519.1066L13699.112,-3519.1467L13699.238,-3519.1651L13699.2501,-3519.1652L13699.3053,-3519.1638L13699.3531,-3519.1617L13699.3664,-3519.1611L13699.4659,-3519.156L13699.5,-3519.1566L13699.5503,-3519.1596L13699.6842,-3519.1725L13699.8107,-3519.1737L13699.8569,-3519.1766L13699.886,-3519.1758L13699.9384,-3519.1774L13699.9512,-3519.1782"/>
<path content="1,名鉄バス（株）,基幹バス本地ヶ原線_05_on,36.5,33.0,33.0," xlink:title="1" d="M13697.7539,-3518.7274L13697.8186,-3518.7591L13697.83,-3518.7649L13697.876,-3518.7907L13697.8936,-3518.8002L13697.9043,-3518.8059L13697.9111,-3518.8095L13697.9152,-3518.8117L13697.9233,-3518.817L13697.9583,-3518.8366L13697.9693,-3518.8438L13697.9778,-3518.8471L13697.985,-3518.8505L13698.0428,-3518.8828L13698.1367,-3518.9366L13698.1745,-3518.9481L13698.1887,-3518.953L13698.2106,-3518.9588L13698.2316,-3518.9641L13698.2746,-3518.9749L13698.3338,-3518.9897L13698.4225,-3519.0077L13698.4389,-3519.0106L13698.4461,-3519.0119L13698.4574,-3519.014L13698.5527,-3519.034L13698.6443,-3519.0546L13698.6931,-3519.0654L13698.7137,-3519.0699L13698.7149,-3519.0702L13698.7517,-3519.0784L13698.8736,-3519.1049L13698.8813,-3519.1066L13699.112,-3519.1467L13699.238,-3519.1651L13699.2501,-3519.1652L13699.3053,-3519.1638L13699.3531,-3519.1617L13699.3664,-3519.1611L13699.4659,-3519.156L13699.5,-3519.1566L13699.5503,-3519.1596L13699.6842,-3519.1725L13699.8107,-3519.1737L13699.8569,-3519.1766L13699.886,-3519.1758L13699.9384,-3519.1774L13699.9512,-3519.1782"/>
<path content="1,名鉄バス（株）,基幹バス本地ヶ原線_06_on,36.5,33.0,33.0," xlink:title="1" d="M13697.7539,-3518.7274L13697.8186,-3518.7591L13697.83,-3518.7649L13697.876,-3518.7907L13697.8936,-3518.8002L13697.9043,-3518.8059L13697.9111,-3518.8095L13697.9152,-3518.8117L13697.9233,-3518.817L13697.9583,-3518.8366L13697.9693,-3518.8438L13697.9778,-3518.8471L13697.985,-3518.8505L13698.0428,-3518.8828L13698.1367,-3518.9366L13698.1745,-3518.9481L13698.1887,-3518.953L13698.2106,-3518.9588L13698.2316,-3518.9641L13698.2746,-3518.9749L13698.3338,-3518.9897L13698.4225,-3519.0077L13698.4389,-3519.0106L13698.4461,-3519.0119L13698.4574,-3519.014L13698.5527,-3519.034L13698.6443,-3519.0546L13698.6931,-3519.0654L13698.7137,-3519.0699L13698.7149,-3519.0702L13698.7517,-3519.0784L13698.8736,-3519.1049L13698.8813,-3519.1066L13699.112,-3519.1467L13699.238,-3519.1651L13699.2501,-3519.1652L13699.3053,-3519.1638L13699.3531,-3519.1617L13699.3664,-3519.1611L13699.4659,-3519.156L13699.5,-3519.1566L13699.5503,-3519.1596L13699.6842,-3519.1725L13699.8107,-3519.1737L13699.8569,-3519.1766L13699.886,-3519.1758L13699.9384,-3519.1774L13699.9512,-3519.1782"/>
<path content="1,名鉄バス（株）,基幹バス本地ヶ原線_07_on,36.5,33.0,33.0," xlink:title="1" d="M13697.7539,-3518.7274L13697.8186,-3518.7591L13697.83,-3518.7649L13697.876,-3518.7907L13697.8936,-3518.8002L13697.9043,-3518.8059L13697.9111,-3518.8095L13697.9152,-3518.8117L13697.9233,-3518.817L13697.9583,-3518.8366L13697.9693,-3518.8438L13697.9778,-3518.8471L13697.985,-3518.8505L13698.0428,-3518.8828L13698.1367,-3518.9366L13698.1745,-3518.9481L13698.1887,-3518.953L13698.2106,-3518.9588L13698.2316,-3518.9641L13698.2746,-3518.9749L13698.3338,-3518.9897L13698.4225,-3519.0077L13698.4389,-3519.0106L13698.4461,-3519.0119L13698.4574,-3519.014L13698.5527,-3519.034L13698.6443,-3519.0546L13698.6931,-3519.0654L13698.7137,-3519.0699L13698.7149,-3519.0702L13698.7517,-3519.0784L13698.8736,-3519.1049L13698.8813,-3519.1066L13699.112,-3519.1467L13699.238,-3519.1651L13699.2501,-3519.1652L13699.3053,-3519.1638L13699.3531,-3519.1617L13699.3664,-3519.1611L13699.4659,-3519.156L13699.5,-3519.1566L13699.5503,-3519.1596L13699.6842,-3519.1725L13699.8107,-3519.1737L13699.8569,-3519.1766L13699.886,-3519.1758L13699.9384,-3519.1774L13699.9512,-3519.1782"/>
<path content="3,名古屋市,上社11号（右回り）,47.0,43.0,43.0," xlink:title="3" d="M13699.2521,-3517.8223L13699.1988,-3517.8652L13699.1706,-3517.8911L13699.15,-3517.9136L13699.113,-3517.9553L13699.1267,-3517.9587L13699.1816,-3517.9795L13699.2249,-3517.9971L13699.2694,-3518.0133L13699.2873,-3518.0195L13699.2941,-3518.0223L13699.3085,-3518.028L13699.4286,-3518.0764L13699.432,-3518.0787L13699.454,-3518.0877L13699.472,-3518.0916L13699.5507,-3518.1271L13699.5562,-3518.1305L13699.5719,-3518.1361L13699.5838,-3518.1397L13699.5987,-3518.1429L13699.6262,-3518.1491L13699.6598,-3518.1536L13699.7037,-3518.155L13699.7133,-3518.1552L13699.7152,-3518.1507L13699.7185,-3518.1434L13699.7218,-3518.1388L13699.7295,-3518.128L13699.7428,-3518.1103L13699.7647,-3518.1259L13699.7932,-3518.1382L13699.8128,-3518.1439L13699.8368,-3518.1501L13699.8526,-3518.1535L13699.8887,-3518.1518L13699.9218,-3518.1665L13699.9342,-3518.1676L13699.9512,-3518.1681"/>
<path content="3,名古屋市,上社11号（左回り）,42.0,36.0,36.0," xlink:title="3" d="M13699.2521,-3517.8223L13699.1988,-3517.8652L13699.1706,-3517.8911L13699.15,-3517.9136L13699.113,-3517.9553L13699.1267,-3517.9587L13699.1816,-3517.9795L13699.2249,-3517.9971L13699.2694,-3518.0133L13699.2873,-3518.0195L13699.2941,-3518.0223L13699.3085,-3518.028L13699.4286,-3518.0764L13699.432,-3518.0787L13699.454,-3518.0877L13699.472,-3518.0916L13699.5507,-3518.1271L13699.5562,-3518.1305L13699.5719,-3518.1361L13699.5838,-3518.1397L13699.5987,-3518.1429L13699.6262,-3518.1491L13699.6598,-3518.1536L13699.7037,-3518.155L13699.7133,-3518.1552L13699.7152,-3518.1507L13699.7185,-3518.1434L13699.7218,-3518.1388L13699.7295,-3518.128L13699.7428,-3518.1103L13699.7647,-3518.1259L13699.7932,-3518.1382L13699.8128,-3518.1439L13699.8368,-3518.1501L13699.8526,-3518.1535L13699.8887,-3518.1518L13699.9218,-3518.1665L13699.9342,-3518.1676L13699.9512,-3518.1681"/>
<path content="3,名古屋市,上社12号_01_on,21.0,15.0,15.0," xlink:title="3" d="M13699.9512,-3518.9666L13699.8338,-3519.1752"/>
<path content="3,名古屋市,上社12号_01_on,21.0,15.0,15.0," xlink:title="3" d="M13699.8338,-3519.1752L13699.8107,-3519.1737L13699.6842,-3519.1725"/>
<path content="3,名古屋市,上社12号_01_on,21.0,15.0,15.0," xlink:title="3" d="M13699.8338,-3519.1752L13699.7343,-3519.3555L13699.6271,-3519.5486L13699.3588,-3520.0195"/>
<path content="3,名古屋市,上社12号_02_on,21.0,15.0,15.0," xlink:title="3" d="M13699.9512,-3518.9666L13699.8338,-3519.1752"/>
<path content="3,名古屋市,上社12号_02_on,21.0,15.0,15.0," xlink:title="3" d="M13699.8338,-3519.1752L13699.8107,-3519.1737L13699.6842,-3519.1725"/>
<path content="3,名古屋市,上社12号_02_on,21.0,15.0,15.0," xlink:title="3" d="M13699.8338,-3519.1752L13699.7343,-3519.3555L13699.6271,-3519.5486L13699.3588,-3520.0195"/>
<path content="3,名古屋市,出入庫_08_on,9.5,7.5,7.5," xlink:title="3" d="M13698.4641,-3517.8223L13698.464,-3517.8246L13698.4613,-3517.8651L13698.4554,-3517.9541"/>
<path content="3,名古屋市,出入庫_09_on,9.5,7.5,7.5," xlink:title="3" d="M13697.7539,-3517.926L13697.7655,-3517.9275L13697.796,-3517.9312L13697.8286,-3517.9351L13697.8459,-3517.9372L13697.8589,-3517.9389L13697.9165,-3517.9468L13697.9913,-3517.9569L13698.0674,-3517.9665L13698.0832,-3517.9688L13698.1052,-3517.9688L13698.1182,-3517.9671L13698.1422,-3517.962L13698.204,-3517.9446L13698.2246,-3517.9395L13698.2637,-3517.9412L13698.2733,-3517.9412L13698.3535,-3517.9507L13698.3818,-3517.9522L13698.3911,-3517.9527L13698.418,-3517.9536L13698.4554,-3517.9541"/>
<path content="3,名古屋市,出入庫_13_on,9.5,7.5,7.5," xlink:title="3" d="M13697.7539,-3519.6325L13697.7628,-3519.6351L13697.779,-3519.6396L13697.885,-3519.6676L13698.0006,-3519.6982L13698.0036,-3519.6989L13698.1344,-3519.7336L13698.1595,-3519.7444L13698.1919,-3519.7481L13698.2185,-3519.7552L13698.3512,-3519.7909L13698.3718,-3519.7957L13698.3943,-3519.8008L13698.6006,-3519.8546L13698.6194,-3519.8592L13698.631,-3519.8623L13698.8994,-3519.9318L13698.916,-3519.936L13698.9679,-3519.9554L13699.0824,-3519.9805L13699.0949,-3519.9839L13699.1133,-3519.9883L13699.1197,-3519.9897L13699.1462,-3519.9977L13699.2259,-3520.0195"/>
<path content="3,名古屋市,名東巡回,8.0,8.0,8.0," xlink:title="3" d="M13699.9512,-3518.1681L13699.9342,-3518.1676L13699.9218,-3518.1665L13699.8887,-3518.1518L13699.8526,-3518.1535L13699.8368,-3518.1501L13699.8128,-3518.1439L13699.7932,-3518.1382L13699.7647,-3518.1259L13699.7428,-3518.1103L13699.7295,-3518.128L13699.7218,-3518.1388L13699.7185,-3518.1434L13699.7152,-3518.1507L13699.7133,-3518.1552L13699.7091,-3518.165L13699.7037,-3518.1795L13699.6936,-3518.2171L13699.6848,-3518.2611L13699.6817,-3518.2809L13699.6738,-3518.3153L13699.6732,-3518.3196L13699.6639,-3518.3682L13699.6621,-3518.3771L13699.6604,-3518.384L13699.6598,-3518.3947L13699.6563,-3518.4167L13699.6543,-3518.4538L13699.6536,-3518.473L13699.6549,-3518.5164L13699.6556,-3518.5778L13699.657,-3518.5829L13699.6563,-3518.6302L13699.6556,-3518.6392L13699.5137,-3518.6381L13699.4505,-3518.6319L13699.349,-3518.6324L13699.2423,-3518.6374L13699.0924,-3518.6341L13699.0272,-3518.6352L13698.9428,-3518.6364L13698.8722,-3518.6381L13698.8022,-3518.6375L13698.728,-3518.6374L13698.726,-3518.5783L13698.7254,-3518.5411L13698.7233,-3518.4837L13698.7226,-3518.4532L13698.7192,-3518.4409L13698.7803,-3518.3648L13698.7892,-3518.3539L13698.7956,-3518.3455L13698.8008,-3518.3384L13698.8077,-3518.3316L13698.8468,-3518.2831L13698.8877,-3518.2419L13698.9353,-3518.1722L13698.96,-3518.1417L13698.984,-3518.1136L13699.0018,-3518.091L13699.0643,-3518.0144L13699.0986,-3517.9716L13699.113,-3517.9553L13699.0512,-3517.957L13699.0396,-3517.9564L13699.0361,-3517.9564L13698.9781,-3517.9544L13698.9127,-3517.9553L13698.8049,-3517.9542L13698.7803,-3517.9553L13698.6698,-3517.9547L13698.5251,-3517.9547L13698.4674,-3517.9536L13698.4554,-3517.9541"/>
<path content="3,名古屋市,基幹2号_01_on,53.5,41.0,41.0," xlink:title="3" d="M13697.7539,-3517.926L13697.7655,-3517.9275L13697.796,-3517.9312L13697.8286,-3517.9351L13697.8459,-3517.9372L13697.8589,-3517.9389L13697.9165,-3517.9468L13697.9913,-3517.9569L13698.0674,-3517.9665L13698.0832,-3517.9688L13698.1052,-3517.9688L13698.1182,-3517.9671L13698.1422,-3517.962L13698.204,-3517.9446L13698.2246,-3517.9395L13698.2637,-3517.9412L13698.2733,-3517.9412L13698.3535,-3517.9507L13698.3818,-3517.9522L13698.3911,-3517.9527L13698.418,-3517.9536L13698.4554,-3517.9541"/>
<path content="3,名古屋市,基幹2号_02_on,53.5,41.0,41.0," xlink:title="3" d="M13697.7539,-3518.7274L13697.8186,-3518.7591L13697.83,-3518.7649L13697.876,-3518.7907L13697.8936,-3518.8002L13697.9043,-3518.8059L13697.9111,-3518.8095L13697.9152,-3518.8117L13697.9233,-3518.817L13697.9583,-3518.8366L13697.9693,-3518.8438L13697.9778,-3518.8471L13697.985,-3518.8505L13698.0428,-3518.8828L13698.1367,-3518.9366L13698.1745,-3518.9481L13698.1887,-3518.953L13698.2106,-3518.9588L13698.2316,-3518.9641L13698.2746,-3518.9749L13698.3338,-3518.9897L13698.4225,-3519.0077L13698.4389,-3519.0106L13698.4461,-3519.0119L13698.4574,-3519.014L13698.5527,-3519.034L13698.6443,-3519.0546L13698.6931,-3519.0654L13698.7137,-3519.0699L13698.7149,-3519.0702L13698.7517,-3519.0784L13698.8736,-3519.1049L13698.8813,-3519.1066L13699.112,-3519.1467L13699.238,-3519.1651L13699.2501,-3519.1652L13699.3053,-3519.1638L13699.3531,-3519.1617L13699.3664,-3519.1611L13699.4659,-3519.156L13699.5,-3519.1566L13699.5503,-3519.1596L13699.6842,-3519.1725L13699.8107,-3519.1737L13699.8569,-3519.1766L13699.886,-3519.1758L13699.9384,-3519.1774L13699.9512,-3519.1782"/>
<path content="3,名古屋市,小幡11号_02_on,18.0,17.5,13.5," xlink:title="3" d="M13697.7539,-3519.6325L13697.7628,-3519.6351L13697.779,-3519.6396L13697.885,-3519.6676L13698.0006,-3519.6982L13698.0036,-3519.6989L13698.1344,-3519.7336L13698.1595,-3519.7444L13698.1919,-3519.7481L13698.2185,-3519.7552L13698.3512,-3519.7909L13698.3718,-3519.7957L13698.3943,-3519.8008L13698.6006,-3519.8546L13698.6194,-3519.8592L13698.631,-3519.8623L13698.8994,-3519.9318L13698.916,-3519.936L13698.9679,-3519.9554L13699.0824,-3519.9805L13699.0949,-3519.9839L13699.1133,-3519.9883L13699.1197,-3519.9897L13699.1462,-3519.9977L13699.2259,-3520.0195"/>
<path content="3,名古屋市,小幡11号_03_on,18.0,17.5,13.5," xlink:title="3" d="M13697.7539,-3519.6325L13697.7628,-3519.6351L13697.779,-3519.6396L13697.885,-3519.6676L13698.0006,-3519.6982L13698.0036,-3519.6989L13698.1344,-3519.7336L13698.1595,-3519.7444L13698.1919,-3519.7481L13698.2185,-3519.7552L13698.3512,-3519.7909L13698.3718,-3519.7957L13698.3943,-3519.8008L13698.6006,-3519.8546L13698.6194,-3519.8592L13698.631,-3519.8623L13698.8994,-3519.9318L13698.916,-3519.936L13698.9679,-3519.9554L13699.0824,-3519.9805L13699.0949,-3519.9839L13699.1133,-3519.9883L13699.1197,-3519.9897L13699.1462,-3519.9977L13699.2259,-3520.0195"/>
<path content="3,名古屋市,幹一社1号,54.0,44.0,44.0," xlink:title="3" d="M13698.4641,-3517.8223L13698.464,-3517.8246L13698.4613,-3517.8651L13698.4554,-3517.9541L13698.4578,-3518.0201L13698.4599,-3518.064L13698.4702,-3518.1311L13698.4667,-3518.1829L13698.4729,-3518.2172L13698.4804,-3518.2352L13698.4935,-3518.2561L13698.5154,-3518.2786L13698.523,-3518.2865L13698.5834,-3518.3355L13698.5909,-3518.3412L13698.6478,-3518.3879L13698.6561,-3518.3958L13698.6806,-3518.4106L13698.7192,-3518.4409L13698.7226,-3518.4532L13698.7233,-3518.4837L13698.7254,-3518.5411L13698.726,-3518.5783L13698.728,-3518.6374L13698.8022,-3518.6375L13698.8722,-3518.6381L13698.9428,-3518.6364L13699.0272,-3518.6352L13699.0924,-3518.6341L13699.2423,-3518.6374L13699.349,-3518.6324L13699.4505,-3518.6319L13699.5137,-3518.6381L13699.6556,-3518.6392L13699.7037,-3518.6389L13699.825,-3518.6364L13699.9191,-3518.6397L13699.9376,-3518.6419L13699.9512,-3518.645M13699.9512,-3519.1782L13699.9384,-3519.1774L13699.886,-3519.1758L13699.8569,-3519.1766L13699.8107,-3519.1737L13699.6842,-3519.1725"/>
<path content="3,名古屋市,幹一社1号（左大回り）,34.0,15.0,15.0," xlink:title="3" d="M13698.4641,-3517.8223L13698.464,-3517.8246L13698.4613,-3517.8651L13698.4554,-3517.9541L13698.4578,-3518.0201L13698.4599,-3518.064L13698.4702,-3518.1311L13698.4667,-3518.1829L13698.4729,-3518.2172L13698.4804,-3518.2352L13698.4935,-3518.2561L13698.5154,-3518.2786L13698.523,-3518.2865L13698.5834,-3518.3355L13698.5909,-3518.3412L13698.6478,-3518.3879L13698.6561,-3518.3958L13698.6806,-3518.4106L13698.7192,-3518.4409L13698.7226,-3518.4532L13698.7233,-3518.4837L13698.7254,-3518.5411L13698.726,-3518.5783L13698.728,-3518.6374L13698.8022,-3518.6375L13698.8722,-3518.6381L13698.9428,-3518.6364L13699.0272,-3518.6352L13699.0924,-3518.6341L13699.2423,-3518.6374L13699.2419,-3518.6882L13699.2433,-3518.7406L13699.2474,-3518.7845L13699.2502,-3518.802L13699.2529,-3518.8161L13699.2591,-3518.8335L13699.2714,-3518.8594L13699.2735,-3518.8662L13699.2838,-3518.8958L13699.2772,-3518.9406L13699.2625,-3518.9755L13699.2598,-3518.9845L13699.255,-3518.9918L13699.2433,-3519.0076L13699.2275,-3519.0211L13699.222,-3519.0245L13699.1994,-3519.0357L13699.172,-3519.047L13699.1617,-3519.0527L13699.15,-3519.0628L13699.1397,-3519.0831L13699.1384,-3519.0904L13699.1363,-3519.0944L13699.112,-3519.1467L13698.8813,-3519.1066L13698.8736,-3519.1049L13698.7517,-3519.0784L13698.7149,-3519.0702L13698.7137,-3519.0699L13698.6988,-3519.1208L13698.6953,-3519.1289L13698.6855,-3519.158L13698.6698,-3519.1879L13698.6794,-3519.198L13698.7706,-3519.26L13698.7782,-3519.2662L13698.8056,-3519.2824L13698.8289,-3519.3022L13698.8694,-3519.3157L13698.9593,-3519.3445L13699.0341,-3519.3687L13699.1184,-3519.3957L13699.3105,-3519.4554L13699.4488,-3519.4985L13699.4738,-3519.5056L13699.5192,-3519.5169L13699.5369,-3519.5214L13699.5431,-3519.5231L13699.6069,-3519.5377L13699.6271,-3519.5486L13699.7343,-3519.3555L13699.8338,-3519.1752L13699.8107,-3519.1737L13699.6842,-3519.1725"/>
<path content="3,名古屋市,幹一社1号（左小回り）,46.0,40.0,40.0," xlink:title="3" d="M13698.7137,-3519.0699L13698.7149,-3519.0702L13698.7517,-3519.0784L13698.8736,-3519.1049L13698.8813,-3519.1066L13699.112,-3519.1467L13699.1363,-3519.0944L13699.1384,-3519.0904L13699.1397,-3519.0831L13699.15,-3519.0628L13699.1617,-3519.0527L13699.172,-3519.047L13699.1994,-3519.0357L13699.222,-3519.0245L13699.2275,-3519.0211L13699.2433,-3519.0076L13699.255,-3518.9918L13699.2598,-3518.9845L13699.2625,-3518.9755L13699.2772,-3518.9406L13699.2838,-3518.8958L13699.2735,-3518.8662L13699.2714,-3518.8594L13699.2591,-3518.8335L13699.2529,-3518.8161L13699.2502,-3518.802L13699.2474,-3518.7845L13699.2433,-3518.7406L13699.2419,-3518.6882L13699.2423,-3518.6374L13699.0924,-3518.6341L13699.0272,-3518.6352L13698.9428,-3518.6364L13698.8722,-3518.6381L13698.8022,-3518.6375L13698.728,-3518.6374L13698.726,-3518.5783L13698.7254,-3518.5411L13698.7233,-3518.4837L13698.7226,-3518.4532L13698.7192,-3518.4409L13698.6806,-3518.4106L13698.6561,-3518.3958L13698.6478,-3518.3879L13698.5909,-3518.3412L13698.5834,-3518.3355L13698.523,-3518.2865L13698.5154,-3518.2786L13698.4935,-3518.2561L13698.4804,-3518.2352L13698.4729,-3518.2172L13698.4667,-3518.1829L13698.4702,-3518.1311L13698.4599,-3518.064L13698.4578,-3518.0201L13698.4554,-3517.9541L13698.4613,-3517.8651L13698.464,-3517.8246L13698.4641,-3517.8223"/>
<path content="3,名古屋市,幹砂田1号_01_on,50.0,43.5,43.5," xlink:title="3" d="M13697.7539,-3519.6325L13697.7628,-3519.6351L13697.779,-3519.6396L13697.885,-3519.6676L13698.0006,-3519.6982L13698.0036,-3519.6989L13698.1344,-3519.7336L13698.1595,-3519.7444L13698.1919,-3519.7481L13698.2185,-3519.7552L13698.3512,-3519.7909L13698.3718,-3519.7957L13698.3943,-3519.8008L13698.6006,-3519.8546L13698.6194,-3519.8592L13698.631,-3519.8623L13698.8994,-3519.9318L13698.916,-3519.936L13698.9679,-3519.9554L13699.0824,-3519.9805L13699.0949,-3519.9839L13699.1133,-3519.9883L13699.1197,-3519.9897L13699.1462,-3519.9977L13699.2259,-3520.0195"/>
<path content="3,名古屋市,幹砂田1号_02_on,50.0,43.5,43.5," xlink:title="3" d="M13697.7539,-3519.6325L13697.7628,-3519.6351L13697.779,-3519.6396L13697.885,-3519.6676L13698.0006,-3519.6982L13698.0036,-3519.6989L13698.1344,-3519.7336L13698.1595,-3519.7444L13698.1919,-3519.7481L13698.2185,-3519.7552L13698.3512,-3519.7909L13698.3718,-3519.7957L13698.3943,-3519.8008L13698.6006,-3519.8546L13698.6194,-3519.8592L13698.631,-3519.8623L13698.8994,-3519.9318L13698.916,-3519.936L13698.9679,-3519.9554L13699.0824,-3519.9805L13699.0949,-3519.9839L13699.1133,-3519.9883L13699.1197,-3519.9897L13699.1462,-3519.9977L13699.2259,-3520.0195"/>
<path content="3,名古屋市,星丘11号_01_on,38.5,30.5,30.5," xlink:title="3" d="M13697.8568,-3517.8223L13697.8548,-3517.8405L13697.8526,-3517.8576L13697.8477,-3517.8695L13697.8438,-3517.8805L13697.84,-3517.8894L13697.834,-3517.8983L13697.8296,-3517.9039L13697.8239,-3517.9089L13697.8136,-3517.9164L13697.796,-3517.9312L13697.7655,-3517.9275L13697.7539,-3517.926"/>
<path content="3,名古屋市,星丘11号_02_on,38.5,30.5,30.5," xlink:title="3" d="M13697.7539,-3517.926L13697.7655,-3517.9275L13697.796,-3517.9312L13697.8286,-3517.9351L13697.8459,-3517.9372L13697.8589,-3517.9389L13697.9165,-3517.9468L13697.9913,-3517.9569L13698.0674,-3517.9665L13698.0832,-3517.9688L13698.1052,-3517.9688L13698.1182,-3517.9671L13698.1422,-3517.962L13698.204,-3517.9446L13698.2246,-3517.9395L13698.2637,-3517.9412L13698.2733,-3517.9412L13698.3535,-3517.9507L13698.3818,-3517.9522L13698.3911,-3517.9527L13698.418,-3517.9536L13698.4554,-3517.9541"/>
<path content="3,名古屋市,本郷11号,16.0,13.0,13.0," xlink:title="3" d="M13699.9512,-3519.1782L13699.9384,-3519.1774L13699.886,-3519.1758L13699.8569,-3519.1766L13699.8107,-3519.1737L13699.6842,-3519.1725"/>
<path content="3,名古屋市,池下11号_01_on,15.0,15.0,15.0," xlink:title="3" d="M13697.7539,-3517.926L13697.7655,-3517.9275L13697.796,-3517.9312L13697.8286,-3517.9351L13697.8459,-3517.9372L13697.8589,-3517.9389L13697.9165,-3517.9468L13697.9913,-3517.9569L13698.0674,-3517.9665L13698.0832,-3517.9688L13698.1052,-3517.9688L13698.1182,-3517.9671L13698.1422,-3517.962L13698.204,-3517.9446L13698.2246,-3517.9395L13698.2637,-3517.9412L13698.2733,-3517.9412L13698.3535,-3517.9507L13698.3818,-3517.9522L13698.3911,-3517.9527L13698.418,-3517.9536L13698.4554,-3517.9541"/>
<path content="3,名古屋市,池下11号_02_on,15.0,15.0,15.0," xlink:title="3" d="M13698.4554,-3517.9541L13698.4613,-3517.8651L13698.464,-3517.8246L13698.4641,-3517.8223"/>
<path content="3,名古屋市,茶屋12号_02_on,30.0,21.0,21.0," xlink:title="3" d="M13697.7539,-3518.7274L13697.8186,-3518.7591L13697.83,-3518.7649L13697.8456,-3518.7611L13697.9116,-3518.7457L13697.9549,-3518.7406L13698.0455,-3518.7242L13698.1196,-3518.7113L13698.1436,-3518.7073L13698.1875,-3518.6989L13698.1957,-3518.6977L13698.2938,-3518.6797L13698.3076,-3518.678L13698.313,-3518.6763L13698.3219,-3518.6752L13698.3308,-3518.6734L13698.3652,-3518.6667L13698.4146,-3518.6583L13698.4228,-3518.6561L13698.4324,-3518.6549L13698.4667,-3518.6482L13698.477,-3518.647L13698.5086,-3518.6425L13698.5312,-3518.6408L13698.5655,-3518.6403L13698.5784,-3518.6399L13698.6091,-3518.6399L13698.6118,-3518.64L13698.6279,-3518.6397L13698.6629,-3518.6397L13698.728,-3518.6374L13698.8022,-3518.6375L13698.8722,-3518.6381L13698.9428,-3518.6364L13699.0272,-3518.6352L13699.0924,-3518.6341L13699.2423,-3518.6374L13699.349,-3518.6324L13699.4505,-3518.6319L13699.5137,-3518.6381L13699.6556,-3518.6392L13699.7037,-3518.6389L13699.825,-3518.6364"/>
<path content="3,名古屋市,藤丘11号_02_on,28.5,24.5,24.5," xlink:title="3" d="M13699.6842,-3519.1725L13699.8107,-3519.1737L13699.8569,-3519.1766L13699.886,-3519.1758L13699.9384,-3519.1774L13699.9512,-3519.1782"/>
</g>
</svg>
