<?xml version="1.0" encoding="UTF-8"?>
<svg  xmlns="http://www.w3.org/2000/svg" xmlns:xlink="http://www.w3.org/1999/xlink" xmlns:go="http://purl.org/svgmap/profile" property="N07_001,N07_002,N07_003,N07_004,N07_005,N07_006,N07_007" viewBox="13614.2578125 -3555.17578125 4.39453125 4.39453125" go:dataArea="13614.2578125 -3555.17578125 4.39453125 4.39453125" >
<metadata>
 <rdf:RDF xmlns:rdf="http://www.w3.org/1999/02/22-rdf-syntax-ns#" xmlns:crs="http://opengis.org/xmldtds/transformations.dtd" xmlns:svg="http://www.w3.org/svg" >
  <rdf:Description>
   <crs:CoordinateReferenceSystem rdf:resource="http://purl.org/crs/84" svg:transform="matrix(100.0,0.0,0.0,-100.0,0.0,0.0)" />
  </rdf:Description>
 </rdf:RDF>
</metadata>
<globalCoordinateSystem srsName="http://purl.org/crs/84" transform="matrix(100.0,0.0,0.0,-100.0,0.0,0.0)" />
<defs>
 <g id="p0" >
  <circle cx="0.0" cy="0.0" r="3" stroke="green" stroke-width="0.75" vector-effect="non-scaling-stroke" />
 </g>
</defs>
<g fill="none" fill-rule="evenodd" stroke="#FF00FF" stroke-width="0.75" opacity="0.5" vector-effect="non-scaling-stroke" stroke-linejoin="bevel" >
<path content="3,長浜市,おでかけワゴン,6.4,8.0,8.0," xlink:title="3" d="M13616.2755,-3550.7812L13616.2657,-3550.8077L13616.2612,-3550.8209L13616.2543,-3550.837L13616.2526,-3550.8412L13616.2391,-3550.8624L13616.2276,-3550.8861L13616.2178,-3550.9052L13616.2081,-3550.934L13616.2065,-3550.9383L13616.1992,-3550.9531L13616.1914,-3550.9645L13616.1826,-3550.9757L13616.1619,-3550.9982L13616.1268,-3551.0427L13616.1089,-3551.072L13616.0854,-3551.1081L13616.0744,-3551.1221L13616.0407,-3551.1706L13616.0152,-3551.2073L13616.0021,-3551.2213L13615.9897,-3551.2301L13615.9745,-3551.2388L13615.9686,-3551.2409L13615.9601,-3551.2428L13615.9264,-3551.2474L13615.9091,-3551.2506L13615.876,-3551.2568L13615.8676,-3551.2584L13615.8486,-3551.264L13615.8434,-3551.2664L13615.836,-3551.2704L13615.8314,-3551.2735L13615.8291,-3551.276L13615.8091,-3551.3092L13615.7988,-3551.3238L13615.797,-3551.3257L13615.794,-3551.3278L13615.7897,-3551.3294L13615.7843,-3551.3307L13615.7182,-3551.338L13615.6424,-3551.3459L13615.6134,-3551.3509L13615.599,-3551.3554L13615.5879,-3551.3611L13615.5783,-3551.3667L13615.5672,-3551.3753L13615.5628,-3551.3801L13615.5473,-3551.4016L13615.5128,-3551.4631L13615.5004,-3551.4828L13615.488,-3551.4974L13615.4667,-3551.5149"/>
<path content="3,長浜市,おでかけワゴン,6.4,8.0,8.0," xlink:title="3" d="M13614.3825,-3550.7812L13614.5377,-3550.9259L13614.8519,-3551.2186L13614.9247,-3551.2894L13614.9505,-3551.3196L13614.9823,-3551.3622L13614.9878,-3551.3695L13615.0036,-3551.3988L13615.0284,-3551.4611L13615.0326,-3551.4709L13615.0369,-3551.4858L13615.0459,-3551.5063L13615.0464,-3551.5076L13615.0615,-3551.5408L13615.0682,-3551.555L13615.088,-3551.5821L13615.1058,-3551.6076L13615.123,-3551.63L13615.1475,-3551.6584L13615.1748,-3551.6905L13615.2386,-3551.7611L13615.3323,-3551.8732L13615.3761,-3551.9205L13615.377,-3551.9215L13615.3885,-3551.934L13615.4171,-3551.9611"/>
<path content="3,長浜市,おでかけワゴン,6.4,8.0,8.0," xlink:title="3" d="M13615.4667,-3551.5149L13615.435,-3551.5358L13615.4198,-3551.5419L13615.415,-3551.5431L13615.4019,-3551.5431L13615.3943,-3551.5408L13615.3874,-3551.5352L13615.3778,-3551.5211L13615.3702,-3551.5143L13615.3458,-3551.5052L13615.3482,-3551.5408"/>
<path content="3,長浜市,おでかけワゴン,6.4,8.0,8.0," xlink:title="3" d="M13615.4667,-3551.5149L13615.4894,-3551.5217L13615.5328,-3551.5363L13615.5886,-3551.5543L13615.6148,-3551.5628L13615.6362,-3551.5701L13615.7016,-3551.591L13615.7354,-3551.6011L13615.8705,-3551.6451L13615.896,-3551.653"/>
<path content="3,長浜市,おでかけワゴン,6.4,8.0,8.0," xlink:title="3" d="M13615.3482,-3551.5408L13615.313,-3551.5419L13615.293,-3551.5464L13615.2634,-3551.5606L13615.2551,-3551.5617L13615.2376,-3551.5606L13615.2294,-3551.5553L13615.2299,-3551.5542"/>
<path content="3,長浜市,おでかけワゴン,6.4,8.0,8.0," xlink:title="3" d="M13615.896,-3551.653L13615.9304,-3551.6637L13615.9807,-3551.6794L13616.0593,-3551.7048L13616.0697,-3551.7084L13616.091,-3551.7144L13616.1895,-3551.7459L13616.2136,-3551.7544L13616.2896,-3551.7779L13616.3243,-3551.7889L13616.3762,-3551.8056L13616.39,-3551.8096L13616.4075,-3551.8144"/>
<path content="3,長浜市,おでかけワゴン,6.4,8.0,8.0," xlink:title="3" d="M13616.4075,-3551.8144L13616.4094,-3551.8096L13616.421,-3551.8118L13616.5368,-3551.8243L13616.5513,-3551.8254L13616.614,-3551.8321L13616.6161,-3551.8271L13616.6174,-3551.8158L13616.6133,-3551.7899L13616.5988,-3551.7476L13616.5967,-3551.7391L13616.5899,-3551.7223L13616.5837,-3551.6947L13616.5837,-3551.671L13616.5933,-3551.6327L13616.6119,-3551.5696L13616.6198,-3551.5324L13616.6278,-3551.4952L13616.6306,-3551.4833L13616.643,-3551.4856"/>
<path content="3,長浜市,おでかけワゴン,6.4,8.0,8.0," xlink:title="3" d="M13616.4075,-3551.8144L13616.3686,-3551.9567L13616.3542,-3552.0079L13616.3149,-3552.1461L13616.3039,-3552.1939L13616.3019,-3552.2035L13616.2956,-3552.2249L13616.2882,-3552.2441L13616.2763,-3552.266L13616.2757,-3552.267L13616.2734,-3552.2701L13616.266,-3552.2812L13616.2599,-3552.2898L13616.2522,-3552.2976L13616.226,-3552.3195L13616.2143,-3552.328"/>
<path content="3,長浜市,おでかけワゴン,6.4,8.0,8.0," xlink:title="3" d="M13615.4171,-3551.9611L13615.4157,-3551.917L13615.4143,-3551.8699L13615.4122,-3551.8434L13615.4053,-3551.8124L13615.3881,-3551.7583L13615.3833,-3551.7431L13615.3526,-3551.6682L13615.3482,-3551.6557L13615.3471,-3551.6485L13615.3468,-3551.6261L13615.3482,-3551.605L13615.3505,-3551.5952L13615.3509,-3551.5889L13615.3502,-3551.5577L13615.3482,-3551.5408"/>
<path content="3,長浜市,おでかけワゴン,6.4,8.0,8.0," xlink:title="3" d="M13615.4171,-3551.9611L13615.4329,-3551.9719L13615.5011,-3552.0209L13615.5149,-3552.0299L13615.5714,-3552.071L13615.6596,-3552.1432"/>
<path content="3,長浜市,おでかけワゴン,6.4,8.0,8.0," xlink:title="3" d="M13615.6596,-3552.1432L13615.7002,-3552.0575L13615.7207,-3552.015L13615.7788,-3551.8941L13615.8068,-3551.8363L13615.8705,-3551.7048L13615.8801,-3551.6845L13615.896,-3551.653"/>
<path content="3,長浜市,おでかけワゴン,6.4,8.0,8.0," xlink:title="3" d="M13615.6596,-3552.1432L13615.6948,-3552.173L13615.754,-3552.2226L13615.7671,-3552.2305L13615.7905,-3552.2401L13615.8039,-3552.2443L13615.8719,-3552.2683L13615.9204,-3552.2847L13616.1544,-3552.3725"/>
<path content="3,長浜市,おでかけワゴン,6.4,8.0,8.0," xlink:title="3" d="M13616.2143,-3552.328L13616.1771,-3552.355L13616.1544,-3552.3725"/>
<path content="3,長浜市,おでかけワゴン,6.4,8.0,8.0," xlink:title="3" d="M13616.2143,-3552.328L13616.3316,-3552.3977L13616.3859,-3552.43L13616.4314,-3552.457L13616.4429,-3552.4618L13616.4631,-3552.466L13616.4954,-3552.4711L13616.5099,-3552.4745L13616.5269,-3552.4816L13616.5478,-3552.4942L13616.5554,-3552.501L13616.5726,-3552.5252L13616.5781,-3552.5342L13616.5906,-3552.5686L13616.6064,-3552.6216L13616.6133,-3552.6356L13616.5732,-3552.6775L13616.5313,-3552.7241L13616.5127,-3552.7494L13616.4954,-3552.7793L13616.4927,-3552.7837L13616.4906,-3552.7861L13616.4887,-3552.7869L13616.488,-3552.7873L13616.4861,-3552.7879L13616.4796,-3552.7895L13616.4714,-3552.7909L13616.4527,-3552.7934L13616.4396,-3552.7975L13616.4317,-3552.8023L13616.4286,-3552.8092L13616.4086,-3552.8565L13616.4011,-3552.8711L13616.3983,-3552.8762L13616.3935,-3552.8819L13616.3878,-3552.8863L13616.3824,-3552.8898L13616.371,-3552.8964L13616.3631,-3552.8999L13616.3507,-3552.9038L13616.3376,-3552.9061L13616.2943,-3552.9037L13616.1908,-3552.8996L13616.1567,-3552.8986L13616.1403,-3552.8972L13616.0158,-3552.8892L13616.0076,-3552.8875L13615.9979,-3552.8824L13615.9232,-3552.8331L13615.8024,-3552.7534L13615.8133,-3552.719"/>
<path content="3,長浜市,おでかけワゴン,6.4,8.0,8.0," xlink:title="3" d="M13616.1544,-3552.3725L13616.0727,-3552.4535L13615.9966,-3552.532L13615.9228,-3552.6063L13615.8567,-3552.6751L13615.8332,-3552.6993L13615.8133,-3552.719"/>
<path content="3,長浜市,おでかけワゴン,6.4,8.0,8.0," xlink:title="3" d="M13615.4676,-3552.5432L13615.4832,-3552.519L13615.5066,-3552.4689L13615.5128,-3552.4559L13615.5776,-3552.3189L13615.5893,-3552.2942L13615.631,-3552.2075L13615.6596,-3552.1432"/>
<path content="3,長浜市,おでかけワゴン,6.4,8.0,8.0," xlink:title="3" d="M13615.4676,-3552.5432L13615.4711,-3552.6402L13615.4766,-3552.7596L13615.4813,-3552.8278L13615.486,-3552.9186L13615.4876,-3552.984L13615.4865,-3553.0102L13615.4839,-3553.0636L13615.4846,-3553.0813L13615.4871,-3553.0818L13615.4883,-3553.0801L13615.5162,-3553.0911L13615.5301,-3553.0957"/>
<path content="3,長浜市,おでかけワゴン,6.4,8.0,8.0," xlink:title="3" d="M13615.8133,-3552.719L13615.7719,-3552.7613L13615.7533,-3552.785L13615.7389,-3552.8053L13615.7046,-3552.8531L13615.6818,-3552.8854L13615.5564,-3553.0631L13615.5301,-3553.0957"/>
<path content="3,長浜市,おでかけワゴン,6.4,8.0,8.0," xlink:title="3" d="M13614.4861,-3553.065L13614.4889,-3553.0684L13614.5233,-3553.0982L13614.5853,-3553.1444L13614.6294,-3553.176L13614.6729,-3553.2036L13614.7032,-3553.2227L13614.7666,-3553.2678L13614.7907,-3553.2858L13614.8182,-3553.3039L13614.8375,-3553.3123L13614.8479,-3553.3157L13614.8734,-3553.3253L13614.9188,-3553.3354L13614.9271,-3553.3371L13614.9816,-3553.3557L13615.0115,-3553.3691"/>
<path content="3,長浜市,おでかけワゴン,6.4,8.0,8.0," xlink:title="3" d="M13615.5301,-3553.0957L13615.5233,-3553.1047L13615.5197,-3553.1095L13615.5115,-3553.1213L13615.4853,-3553.1568L13615.3703,-3553.3117L13615.3247,-3553.3743L13615.2951,-3553.4222L13615.2648,-3553.4797L13615.257,-3553.5001"/>
<path content="3,長浜市,おでかけワゴン,6.4,8.0,8.0," xlink:title="3" d="M13615.0115,-3553.3691L13615.0504,-3553.3374L13615.0602,-3553.3294L13615.0732,-3553.3168L13615.0939,-3553.2949L13615.1249,-3553.2571L13615.1387,-3553.2374L13615.1511,-3553.2166L13615.1814,-3553.1546L13615.2117,-3553.0915L13615.2282,-3553.0559L13615.2621,-3552.9876L13615.2648,-3552.9822L13615.3273,-3552.8473L13615.3316,-3552.8379L13615.3371,-3552.8255L13615.3854,-3552.7224L13615.4676,-3552.5432"/>
<path content="3,長浜市,おでかけワゴン,6.4,8.0,8.0," xlink:title="3" d="M13615.0115,-3553.3691L13615.0181,-3553.3733L13615.0457,-3553.391L13615.0519,-3553.395L13615.1069,-3553.4532L13615.118,-3553.4634L13615.1259,-3553.4676L13615.1366,-3553.4712L13615.257,-3553.5001"/>
<path content="3,長浜市,おでかけワゴン,6.4,8.0,8.0," xlink:title="3" d="M13615.257,-3553.5001L13615.2542,-3553.5028L13615.1912,-3553.666L13615.1461,-3553.7747L13615.1297,-3553.8166L13615.0911,-3553.9074L13615.0753,-3553.9471L13615.0614,-3553.9785L13614.9822,-3554.1733L13614.9457,-3554.264L13614.9388,-3554.295L13614.9381,-3554.304L13614.9388,-3554.3474L13614.9409,-3554.366L13614.9416,-3554.4145L13614.9388,-3554.4477L13614.9305,-3554.4826L13614.9221,-3554.5094L13614.9112,-3554.5318L13614.8961,-3554.5564L13614.8782,-3554.5824L13614.823,-3554.6455L13614.8065,-3554.6624L13614.8003,-3554.6708L13614.7934,-3554.6849L13614.7872,-3554.7046L13614.781,-3554.7356L13614.7769,-3554.7762L13614.7762,-3554.8849L13614.7734,-3554.9109L13614.7666,-3554.9443L13614.7522,-3554.9742L13614.7425,-3554.9923L13614.7103,-3555.0348L13614.6969,-3555.0472L13614.6714,-3555.0703L13614.6494,-3555.0878L13614.6301,-3555.0996L13614.6025,-3555.1131L13614.5695,-3555.1272L13614.5384,-3555.1385L13614.5189,-3555.1447L13614.4964,-3555.1515L13614.4715,-3555.1592L13614.425,-3555.1735L13614.4177,-3555.1758"/>
<path content="3,長浜市,柳ヶ瀬線,9.5,8.5,8.5," xlink:title="3" d="M13618.6523,-3554.7476L13618.6301,-3554.6821L13618.6108,-3554.6275L13618.6033,-3554.6027L13618.5909,-3554.5863L13618.5674,-3554.5677L13618.5116,-3554.5373L13618.4717,-3554.5097L13618.4558,-3554.4973L13618.44,-3554.4844L13618.4207,-3554.4635L13618.3711,-3554.4004L13618.3277,-3554.3435L13618.3235,-3554.3379L13618.3022,-3554.3198L13618.2944,-3554.3149L13618.2557,-3554.288L13618.2505,-3554.2843L13618.2415,-3554.2736L13618.2374,-3554.2635L13618.2339,-3554.2263L13618.2326,-3554.1998L13618.2326,-3554.1964L13618.2284,-3554.1852L13618.1947,-3554.1485L13618.163,-3554.1187L13618.1554,-3554.1125L13618.1464,-3554.108L13618.1347,-3554.1057L13618.101,-3554.1001L13618.0727,-3554.0787L13618.0555,-3554.0691L13618.0479,-3554.0651L13618.0389,-3554.0578L13618.0169,-3554.0302L13617.9997,-3554.0073L13617.8784,-3553.8505L13617.8212,-3553.7778L13617.7854,-3553.7312"/>
<path content="3,長浜市,深坂線,8.0,8.0,7.0," xlink:title="3" d="M13618.0366,-3550.7812L13618.0254,-3550.7926L13617.9438,-3550.8609L13617.8707,-3550.914L13617.8618,-3550.9204L13617.8312,-3550.9426L13617.7255,-3551.0193L13617.608,-3551.1066L13617.4933,-3551.1889L13617.4459,-3551.2241L13617.2858,-3551.3408L13617.2672,-3551.3571L13617.2465,-3551.3797L13617.219,-3551.4203L13617.2093,-3551.4321L13617.206,-3551.4344L13617.1921,-3551.4444L13617.139,-3551.4771L13617.1115,-3551.4907L13617.1004,-3551.4952L13617.0498,-3551.5086L13616.9771,-3551.5239L13616.9519,-3551.5289L13616.9271,-3551.5314L13616.895,-3551.5313L13616.8779,-3551.5301L13616.8676,-3551.5285L13616.8544,-3551.5262L13616.8236,-3551.5204L13616.8147,-3551.5186L13616.7814,-3551.5114L13616.7537,-3551.5047L13616.7205,-3551.4973L13616.6971,-3551.4921L13616.6843,-3551.4902L13616.6698,-3551.4879L13616.643,-3551.4856L13616.6306,-3551.4833L13616.6209,-3551.4822L13616.5871,-3551.4805L13616.5699,-3551.4822L13616.5492,-3551.4879L13616.523,-3551.5019L13616.5079,-3551.5132L13616.5009,-3551.5213L13616.4968,-3551.5262L13616.4837,-3551.551L13616.4727,-3551.5853L13616.4689,-3551.6L13616.4673,-3551.6064L13616.4617,-3551.6251L13616.4562,-3551.6438L13616.4537,-3551.6533L13616.417,-3551.7908L13616.4094,-3551.8096L13616.4075,-3551.8144L13616.3686,-3551.9567L13616.3542,-3552.0079L13616.3149,-3552.1461L13616.3039,-3552.1939L13616.3019,-3552.2035L13616.2956,-3552.2249L13616.2882,-3552.2441L13616.2763,-3552.266L13616.2734,-3552.2701L13616.266,-3552.2812L13616.2599,-3552.2898L13616.2522,-3552.2976L13616.226,-3552.3195L13616.2143,-3552.328L13616.1771,-3552.355L13616.1544,-3552.3725L13616.0727,-3552.4535L13615.9966,-3552.532L13615.9228,-3552.6063L13615.8567,-3552.6751L13615.8332,-3552.6993L13615.8133,-3552.719L13615.7719,-3552.7613L13615.7533,-3552.785L13615.7389,-3552.8053L13615.7046,-3552.8531L13615.6818,-3552.8854L13615.5564,-3553.0631L13615.5301,-3553.0957L13615.5233,-3553.1047L13615.5197,-3553.1095L13615.5115,-3553.1213L13615.4853,-3553.1568L13615.3703,-3553.3117L13615.3247,-3553.3743L13615.2951,-3553.4222L13615.2648,-3553.4797L13615.257,-3553.5001L13615.2542,-3553.5028L13615.1912,-3553.666L13615.1461,-3553.7747L13615.1297,-3553.8166L13615.0911,-3553.9074L13615.0753,-3553.9471L13615.0614,-3553.9785L13614.9822,-3554.1733L13614.9457,-3554.264L13614.9388,-3554.295L13614.9381,-3554.304L13614.9388,-3554.3474L13614.9409,-3554.366L13614.9416,-3554.4145L13614.9388,-3554.4477L13614.9305,-3554.4826L13614.9221,-3554.5094L13614.9112,-3554.5318L13614.8961,-3554.5564L13614.8782,-3554.5824L13614.823,-3554.6455L13614.8065,-3554.6624L13614.8003,-3554.6708L13614.7934,-3554.6849L13614.7872,-3554.7046L13614.781,-3554.7356L13614.7769,-3554.7762L13614.7762,-3554.8849L13614.7734,-3554.9109L13614.7666,-3554.9443L13614.7522,-3554.9742L13614.7425,-3554.9923L13614.7214,-3555.021L13614.7103,-3555.0348L13614.6969,-3555.0472L13614.6714,-3555.0703L13614.6494,-3555.0878L13614.6301,-3555.0996L13614.6025,-3555.1131L13614.5695,-3555.1272L13614.5384,-3555.1385L13614.5189,-3555.1447L13614.4964,-3555.1515L13614.4715,-3555.1592L13614.425,-3555.1735L13614.4177,-3555.1758"/>
<path content="3,長浜市,菅浦線,6.0,6.0,6.0," xlink:title="3" d="M13614.3825,-3550.7812L13614.5377,-3550.9259L13614.8519,-3551.2186L13614.9247,-3551.2894L13614.9505,-3551.3196L13614.9823,-3551.3622L13614.9878,-3551.3695L13615.0036,-3551.3988L13615.0284,-3551.4611L13615.0326,-3551.4709L13615.0369,-3551.4858L13615.0464,-3551.5076L13615.0615,-3551.5408L13615.0682,-3551.555L13615.088,-3551.5821L13615.1058,-3551.6076L13615.123,-3551.63L13615.1475,-3551.6584L13615.1748,-3551.6905L13615.2386,-3551.7611L13615.3323,-3551.8732L13615.3761,-3551.9205L13615.3885,-3551.934L13615.4171,-3551.9611L13615.4329,-3551.9719L13615.5011,-3552.0209L13615.5149,-3552.0299L13615.5714,-3552.071L13615.6596,-3552.1432L13615.6948,-3552.173L13615.754,-3552.2226L13615.7671,-3552.2305L13615.7905,-3552.2401L13615.8039,-3552.2443L13615.8719,-3552.2683L13615.9204,-3552.2847L13616.1544,-3552.3725L13616.1771,-3552.355L13616.2143,-3552.328L13616.226,-3552.3195L13616.2522,-3552.2976L13616.2599,-3552.2898L13616.266,-3552.2812L13616.2734,-3552.2701L13616.2763,-3552.266L13616.2882,-3552.2441L13616.2956,-3552.2249L13616.3019,-3552.2035L13616.3039,-3552.1939L13616.3149,-3552.1461L13616.3542,-3552.0079L13616.3686,-3551.9567L13616.4075,-3551.8144L13616.4094,-3551.8096L13616.417,-3551.7908L13616.4537,-3551.6533L13616.4562,-3551.6438L13616.4617,-3551.6251L13616.4673,-3551.6064L13616.4689,-3551.6L13616.4727,-3551.5853L13616.4837,-3551.551L13616.4968,-3551.5262L13616.5009,-3551.5213L13616.5079,-3551.5132L13616.523,-3551.5019L13616.5492,-3551.4879L13616.5699,-3551.4822L13616.5871,-3551.4805L13616.6209,-3551.4822L13616.6306,-3551.4833L13616.643,-3551.4856L13616.6698,-3551.4879L13616.6843,-3551.4902L13616.6971,-3551.4921L13616.7205,-3551.4973L13616.7537,-3551.5047L13616.7814,-3551.5114L13616.8147,-3551.5186L13616.8236,-3551.5204L13616.8544,-3551.5262L13616.8676,-3551.5285L13616.8779,-3551.5301L13616.895,-3551.5313L13616.9271,-3551.5314L13616.9519,-3551.5289L13616.9771,-3551.5239L13617.0498,-3551.5086L13617.1004,-3551.4952L13617.1115,-3551.4907L13617.139,-3551.4771L13617.1921,-3551.4444L13617.206,-3551.4344L13617.2093,-3551.4321L13617.219,-3551.4203L13617.2465,-3551.3797L13617.2672,-3551.3571L13617.2858,-3551.3408L13617.4459,-3551.2241L13617.4933,-3551.1889L13617.608,-3551.1066L13617.7255,-3551.0193L13617.8312,-3550.9426L13617.8618,-3550.9204L13617.8707,-3550.914L13617.9438,-3550.8609L13618.0254,-3550.7926L13618.0366,-3550.7812"/>
<path content="4,長浜市,片岡西デマンド線アジサイ号,999.9,0.0,0.0," xlink:title="4" d="M13618.6523,-3554.7476L13618.6301,-3554.6821L13618.6108,-3554.6275L13618.6033,-3554.6027L13618.5909,-3554.5863L13618.5674,-3554.5677L13618.5116,-3554.5373L13618.4717,-3554.5097L13618.4558,-3554.4973L13618.44,-3554.4844L13618.4207,-3554.4635L13618.3711,-3554.4004L13618.3277,-3554.3435L13618.3235,-3554.3379L13618.3022,-3554.3198L13618.2944,-3554.3149L13618.2557,-3554.288L13618.2505,-3554.2843L13618.2415,-3554.2736L13618.2374,-3554.2635L13618.2339,-3554.2263L13618.2326,-3554.1998L13618.2326,-3554.1964L13618.2284,-3554.1852L13618.1947,-3554.1485L13618.163,-3554.1187L13618.1554,-3554.1125L13618.1464,-3554.108L13618.1347,-3554.1057L13618.101,-3554.1001L13618.0727,-3554.0787L13618.0555,-3554.0691L13618.0479,-3554.0651L13618.0389,-3554.0578L13618.0169,-3554.0302L13617.9997,-3554.0073L13617.8784,-3553.8505L13617.8212,-3553.7778L13617.7854,-3553.7312"/>
</g>
</svg>
