<?xml version="1.0" encoding="UTF-8"?>
<svg  xmlns="http://www.w3.org/2000/svg" xmlns:xlink="http://www.w3.org/1999/xlink" xmlns:go="http://purl.org/svgmap/profile" property="N07_001,N07_002,N07_003,N07_004,N07_005,N07_006,N07_007" viewBox="13816.40625 -3717.7734375 4.39453125 4.39453125" go:dataArea="13816.40625 -3717.7734375 4.39453125 4.39453125" >
<metadata>
 <rdf:RDF xmlns:rdf="http://www.w3.org/1999/02/22-rdf-syntax-ns#" xmlns:crs="http://opengis.org/xmldtds/transformations.dtd" xmlns:svg="http://www.w3.org/svg" >
  <rdf:Description>
   <crs:CoordinateReferenceSystem rdf:resource="http://purl.org/crs/84" svg:transform="matrix(100.0,0.0,0.0,-100.0,0.0,0.0)" />
  </rdf:Description>
 </rdf:RDF>
</metadata>
<globalCoordinateSystem srsName="http://purl.org/crs/84" transform="matrix(100.0,0.0,0.0,-100.0,0.0,0.0)" />
<defs>
 <g id="p0" >
  <circle cx="0.0" cy="0.0" r="3" stroke="green" stroke-width="0.75" vector-effect="non-scaling-stroke" />
 </g>
</defs>
<g fill="none" fill-rule="evenodd" stroke="#FF00FF" stroke-width="0.75" opacity="0.5" vector-effect="non-scaling-stroke" stroke-linejoin="bevel" >
<path content="1,JRバス関東（株）,金沢エクスプレス/ドリーム金沢号/青春ドリーム金沢号,6.0,6.0,6.0," xlink:title="1" d="M13820.8008,-3714.1757L13820.5147,-3714.2844L13820.2077,-3714.3997L13819.916,-3714.5037L13819.7823,-3714.5465L13819.6406,-3714.5853L13819.4978,-3714.6179L13819.3713,-3714.6394L13819.204,-3714.6598L13819.0398,-3714.674L13818.8082,-3714.6893L13818.132,-3714.7271L13817.418,-3714.7689L13816.9681,-3714.7924L13816.6009,-3714.8128L13816.4062,-3714.822"/>
<path content="1,くびき野バス（株）,正善寺線,4.0,0.0,0.0," xlink:title="1" d="M13820.4339,-3713.3789L13820.4306,-3713.3884L13820.4193,-3713.4088L13820.4097,-3713.4255L13820.4023,-3713.4438L13820.4014,-3713.4626L13820.411,-3713.4756L13820.4225,-3713.4932L13820.4344,-3713.5119L13820.4337,-3713.5303L13820.4292,-3713.5435L13820.4212,-3713.5577L13820.4138,-3713.5658L13820.4058,-3713.5725L13820.3933,-3713.5823L13820.3699,-3713.594L13820.349,-3713.6077L13820.3347,-3713.6195L13820.3202,-3713.6292L13820.3047,-3713.6555L13820.2977,-3713.6821L13820.2964,-3713.6892L13820.291,-3713.7117L13820.2843,-3713.7192L13820.2722,-3713.7259L13820.2526,-3713.7303L13820.2289,-3713.7359L13820.2002,-3713.7409L13820.1623,-3713.7467L13820.1439,-3713.7542L13820.1314,-3713.7629L13820.1019,-3713.7925L13820.0839,-3713.8046L13820.0685,-3713.81L13820.0547,-3713.8149L13820.0384,-3713.8211L13820.0264,-3713.8304L13820.0148,-3713.8409L13820.0098,-3713.8454L13820.0064,-3713.8579L13820.0114,-3713.8838L13820.0194,-3713.9263L13820.0264,-3713.9592L13820.0319,-3713.9896L13820.0385,-3714.025L13820.0423,-3714.0429L13820.0519,-3714.0929L13820.0544,-3714.1125L13820.0514,-3714.1329L13820.0419,-3714.1546L13820.0177,-3714.1921L13819.9956,-3714.22L13819.9785,-3714.2429L13819.9689,-3714.2591L13819.9646,-3714.2713L13819.9618,-3714.2926L13819.9583,-3714.3135L13819.9547,-3714.3214L13819.9513,-3714.3259L13819.9414,-3714.3349L13819.9365,-3714.3366L13819.9161,-3714.3416L13819.8936,-3714.3456L13819.8346,-3714.3551L13819.8212,-3714.3585L13819.8114,-3714.3621L13819.8016,-3714.3658L13819.7798,-3714.3805L13819.7512,-3714.3935L13819.7095,-3714.4142L13819.6772,-3714.4193L13819.6491,-3714.4249L13819.6406,-3714.4294L13819.6238,-3714.4401L13819.6034,-3714.4491L13819.5943,-3714.4508L13819.5795,-3714.4514L13819.5725,-3714.4503L13819.5584,-3714.4452L13819.5416,-3714.4396L13819.5099,-3714.426L13819.4846,-3714.4136L13819.4544,-3714.3946"/>
<path content="1,加越能鉄道（株）,東京行き（高速バス）,2.0,2.0,2.0," xlink:title="1" d="M13816.4062,-3714.822L13816.6009,-3714.8128L13816.9681,-3714.7924L13817.418,-3714.7689L13818.132,-3714.7271L13818.8082,-3714.6893L13819.0398,-3714.674L13819.204,-3714.6598L13819.3713,-3714.6394L13819.4978,-3714.6179L13819.6406,-3714.5853L13819.7823,-3714.5465L13819.916,-3714.5037L13820.2077,-3714.3997L13820.5147,-3714.2844L13820.8008,-3714.1757"/>
<path content="1,北陸鉄道（株）,高速バス　金沢⇔仙台,1.0,1.0,1.0," xlink:title="1" d="M13820.8008,-3714.1757L13820.5147,-3714.2844L13820.2077,-3714.3997L13819.916,-3714.5037L13819.7823,-3714.5465L13819.6406,-3714.5853L13819.4978,-3714.6179L13819.3713,-3714.6394L13819.204,-3714.6598L13819.0398,-3714.674L13818.8082,-3714.6893L13818.132,-3714.7271L13817.418,-3714.7689L13816.9681,-3714.7924L13816.6009,-3714.8128L13816.4062,-3714.822"/>
<path content="1,北陸鉄道（株）,高速バス　金沢⇔新潟,2.0,2.0,2.0," xlink:title="1" d="M13816.4062,-3714.822L13816.6009,-3714.8128L13816.9681,-3714.7924L13817.418,-3714.7689L13818.132,-3714.7271L13818.8082,-3714.6893L13819.0398,-3714.674L13819.204,-3714.6598L13819.3713,-3714.6394L13819.4978,-3714.6179L13819.6406,-3714.5853L13819.7823,-3714.5465L13819.916,-3714.5037L13820.2077,-3714.3997L13820.5147,-3714.2844L13820.8008,-3714.1757"/>
<path content="1,北陸鉄道（株）,高速バス　金沢⇔渋谷八王子,2.0,2.0,2.0," xlink:title="1" d="M13816.4062,-3714.822L13816.6009,-3714.8128L13816.9681,-3714.7924L13817.418,-3714.7689L13818.132,-3714.7271L13818.8082,-3714.6893L13819.0398,-3714.674L13819.204,-3714.6598L13819.3713,-3714.6394L13819.4978,-3714.6179L13819.6406,-3714.5853L13819.7823,-3714.5465L13819.916,-3714.5037L13820.2077,-3714.3997L13820.5147,-3714.2844L13820.8008,-3714.1757"/>
<path content="1,南海バス（株）,堺・大阪（なんば）・京都⇔柏崎・長岡・三条（新潟）,1.0,1.0,1.0," xlink:title="1" d="M13816.4062,-3714.822L13816.6009,-3714.8128L13816.9681,-3714.7924L13817.418,-3714.7689L13818.132,-3714.7271L13818.8082,-3714.6893L13819.0398,-3714.674L13819.204,-3714.6598L13819.3713,-3714.6394L13819.4978,-3714.6179L13819.6406,-3714.5853L13819.7823,-3714.5465L13819.916,-3714.5037L13820.2077,-3714.3997L13820.5147,-3714.2844L13820.8008,-3714.1757"/>
<path content="1,宮城交通（株）,エトアール,1.0,1.0,1.0," xlink:title="1" d="M13816.4062,-3714.822L13816.6009,-3714.8128L13816.9681,-3714.7924L13817.418,-3714.7689L13818.132,-3714.7271L13818.8082,-3714.6893L13819.0398,-3714.674L13819.204,-3714.6598L13819.3713,-3714.6394L13819.4978,-3714.6179L13819.6406,-3714.5853L13819.7823,-3714.5465L13819.916,-3714.5037L13820.2077,-3714.3997L13820.5147,-3714.2844L13820.8008,-3714.1757"/>
<path content="1,宮城交通（株）,仙台～富山線,1.0,1.0,1.0," xlink:title="1" d="M13816.4062,-3714.822L13816.6009,-3714.8128L13816.9681,-3714.7924L13817.418,-3714.7689L13818.132,-3714.7271L13818.8082,-3714.6893L13819.0398,-3714.674L13819.204,-3714.6598L13819.3713,-3714.6394L13819.4978,-3714.6179L13819.6406,-3714.5853L13819.7823,-3714.5465L13819.916,-3714.5037L13820.2077,-3714.3997L13820.5147,-3714.2844L13820.8008,-3714.1757"/>
<path content="1,富山地方鉄道（株）,仙台（高速バス）,1.0,1.0,1.0," xlink:title="1" d="M13816.4062,-3714.822L13816.6009,-3714.8128L13816.9681,-3714.7924L13817.418,-3714.7689L13818.132,-3714.7271L13818.8082,-3714.6893L13819.0398,-3714.674L13819.204,-3714.6598L13819.3713,-3714.6394L13819.4978,-3714.6179L13819.6406,-3714.5853L13819.7823,-3714.5465L13819.916,-3714.5037L13820.2077,-3714.3997L13820.5147,-3714.2844L13820.8008,-3714.1757"/>
<path content="1,富山地方鉄道（株）,新潟（高速バス）,2.0,2.0,2.0," xlink:title="1" d="M13816.4062,-3714.822L13816.6009,-3714.8128L13816.9681,-3714.7924L13817.418,-3714.7689L13818.132,-3714.7271L13818.8082,-3714.6893L13819.0398,-3714.674L13819.204,-3714.6598L13819.3713,-3714.6394L13819.4978,-3714.6179L13819.6406,-3714.5853L13819.7823,-3714.5465L13819.916,-3714.5037L13820.2077,-3714.3997L13820.5147,-3714.2844L13820.8008,-3714.1757"/>
<path content="1,富山地方鉄道（株）,東京（高速バス）,4.0,4.0,4.0," xlink:title="1" d="M13816.4062,-3714.822L13816.6009,-3714.8128L13816.9681,-3714.7924L13817.418,-3714.7689L13818.132,-3714.7271L13818.8082,-3714.6893L13819.0398,-3714.674L13819.204,-3714.6598L13819.3713,-3714.6394L13819.4978,-3714.6179L13819.6406,-3714.5853L13819.7823,-3714.5465L13819.916,-3714.5037L13820.2077,-3714.3997L13820.5147,-3714.2844L13820.8008,-3714.1757"/>
<path content="1,山交バス（株）,アルカディア号,1.0,1.0,1.0," xlink:title="1" d="M13816.4062,-3714.822L13816.6009,-3714.8128L13816.9681,-3714.7924L13817.418,-3714.7689L13818.132,-3714.7271L13818.8082,-3714.6893L13819.0398,-3714.674L13819.204,-3714.6598L13819.3713,-3714.6394L13819.4978,-3714.6179L13819.6406,-3714.5853L13819.7823,-3714.5465L13819.916,-3714.5037L13820.2077,-3714.3997L13820.5147,-3714.2844L13820.8008,-3714.1757"/>
<path content="1,新潟交通（株）・北陸鉄道（株）,金沢高速バス,2.0,2.0,2.0," xlink:title="1" d="M13816.4062,-3714.822L13816.6009,-3714.8128L13816.9681,-3714.7924L13817.418,-3714.7689L13818.132,-3714.7271L13818.8082,-3714.6893L13819.0398,-3714.674L13819.204,-3714.6598L13819.3713,-3714.6394L13819.4978,-3714.6179L13819.6406,-3714.5853L13819.7823,-3714.5465L13819.916,-3714.5037L13820.2077,-3714.3997L13820.5147,-3714.2844L13820.8008,-3714.1757"/>
<path content="1,新潟交通（株）・富山地方鉄道（株）,富山高速バス,2.0,2.0,2.0," xlink:title="1" d="M13816.4062,-3714.822L13816.6009,-3714.8128L13816.9681,-3714.7924L13817.418,-3714.7689L13818.132,-3714.7271L13818.8082,-3714.6893L13819.0398,-3714.674L13819.204,-3714.6598L13819.3713,-3714.6394L13819.4978,-3714.6179L13819.6406,-3714.5853L13819.7823,-3714.5465L13819.916,-3714.5037L13820.2077,-3714.3997L13820.5147,-3714.2844L13820.8008,-3714.1757"/>
<path content="1,新潟交通（株）・阪急バス（株）,京都・大阪高速バス,1.0,1.0,1.0," xlink:title="1" d="M13816.4062,-3714.822L13816.6009,-3714.8128L13816.9681,-3714.7924L13817.418,-3714.7689L13818.132,-3714.7271L13818.8082,-3714.6893L13819.0398,-3714.674L13819.204,-3714.6598L13819.3713,-3714.6394L13819.4978,-3714.6179L13819.6406,-3714.5853L13819.7823,-3714.5465L13819.916,-3714.5037L13820.2077,-3714.3997L13820.5147,-3714.2844L13820.8008,-3714.1757"/>
<path content="1,新潟交通（株）・頸城自動車（株）,糸魚川線,2.0,2.0,2.0," xlink:title="1" d="M13816.4062,-3714.822L13816.6009,-3714.8128L13816.9681,-3714.7924L13817.418,-3714.7689L13818.132,-3714.7271L13818.8082,-3714.6893L13819.0398,-3714.674L13819.204,-3714.6598L13819.3713,-3714.6394L13819.4978,-3714.6179L13819.6406,-3714.5853L13819.7823,-3714.5465L13819.916,-3714.5037L13820.2077,-3714.3997L13820.5147,-3714.2844L13820.8008,-3714.1757"/>
<path content="1,日本中央バス（株）,シルクライナー,5.0,5.0,5.0," xlink:title="1" d="M13820.8008,-3714.1757L13820.5147,-3714.2844L13820.2077,-3714.3997L13819.916,-3714.5037L13819.7823,-3714.5465L13819.6406,-3714.5853L13819.4978,-3714.6179L13819.3713,-3714.6394L13819.204,-3714.6598L13819.0398,-3714.674L13818.8082,-3714.6893L13818.132,-3714.7271L13817.418,-3714.7689L13816.9681,-3714.7924L13816.6009,-3714.8128L13816.4062,-3714.822"/>
<path content="1,日本中央バス（株）,東京・さいたま～富山・金沢線,1.0,1.0,1.0," xlink:title="1" d="M13820.8008,-3714.1757L13820.5147,-3714.2844L13820.2077,-3714.3997L13819.916,-3714.5037L13819.7823,-3714.5465L13819.6406,-3714.5853L13819.4978,-3714.6179L13819.3713,-3714.6394L13819.204,-3714.6598L13819.0398,-3714.674L13818.8082,-3714.6893L13818.132,-3714.7271L13817.418,-3714.7689L13816.9681,-3714.7924L13816.6009,-3714.8128L13816.4062,-3714.822"/>
<path content="1,西東京バス（株）,001,2.0,2.0,2.0," xlink:title="1" d="M13820.8008,-3714.1757L13820.5147,-3714.2844L13820.2077,-3714.3997L13819.916,-3714.5037L13819.7823,-3714.5465L13819.6406,-3714.5853L13819.4978,-3714.6179L13819.3713,-3714.6394L13819.204,-3714.6598L13819.0398,-3714.674L13818.8082,-3714.6893L13818.132,-3714.7271L13817.418,-3714.7689L13816.9681,-3714.7924L13816.6009,-3714.8128L13816.4062,-3714.822"/>
<path content="1,西武バス（株）,富山線,2.0,2.0,2.0," xlink:title="1" d="M13820.8008,-3714.1757L13820.5147,-3714.2844L13820.2077,-3714.3997L13819.916,-3714.5037L13819.7823,-3714.5465L13819.6406,-3714.5853L13819.4978,-3714.6179L13819.3713,-3714.6394L13819.204,-3714.6598L13819.0398,-3714.674L13818.8082,-3714.6893L13818.132,-3714.7271L13817.418,-3714.7689L13816.9681,-3714.7924L13816.6009,-3714.8128L13816.4062,-3714.822"/>
<path content="1,西武バス（株）,氷見線,1.0,1.0,1.0," xlink:title="1" d="M13820.8008,-3714.1757L13820.5147,-3714.2844L13820.2077,-3714.3997L13819.916,-3714.5037L13819.7823,-3714.5465L13819.6406,-3714.5853L13819.4978,-3714.6179L13819.3713,-3714.6394L13819.204,-3714.6598L13819.0398,-3714.674L13818.8082,-3714.6893L13818.132,-3714.7271L13817.418,-3714.7689L13816.9681,-3714.7924L13816.6009,-3714.8128L13816.4062,-3714.822"/>
<path content="1,西武バス（株）,金沢線,2.0,2.0,2.0," xlink:title="1" d="M13820.8008,-3714.1757L13820.5147,-3714.2844L13820.2077,-3714.3997L13819.916,-3714.5037L13819.7823,-3714.5465L13819.6406,-3714.5853L13819.4978,-3714.6179L13819.3713,-3714.6394L13819.204,-3714.6598L13819.0398,-3714.674L13818.8082,-3714.6893L13818.132,-3714.7271L13817.418,-3714.7689L13816.9681,-3714.7924L13816.6009,-3714.8128L13816.4062,-3714.822"/>
<path content="1,越後交通（株）,高速バス越後（三条・長岡・柏崎～京都・大阪線）,1.0,1.0,1.0," xlink:title="1" d="M13820.8008,-3714.1757L13820.5147,-3714.2844L13820.2077,-3714.3997L13819.916,-3714.5037L13819.7823,-3714.5465L13819.6406,-3714.5853L13819.4978,-3714.6179L13819.3713,-3714.6394L13819.204,-3714.6598L13819.0398,-3714.674L13818.8082,-3714.6893L13818.132,-3714.7271L13817.418,-3714.7689L13816.9681,-3714.7924L13816.6009,-3714.8128L13816.4062,-3714.822"/>
<path content="1,近鉄バス（株）,大阪・京都⇔山形,1.0,1.0,1.0," xlink:title="1" d="M13816.4062,-3714.822L13816.6009,-3714.8128L13816.9681,-3714.7924L13817.418,-3714.7689L13818.132,-3714.7271L13818.8082,-3714.6893L13819.0398,-3714.674L13819.204,-3714.6598L13819.3713,-3714.6394L13819.4978,-3714.6179L13819.6406,-3714.5853L13819.7823,-3714.5465L13819.916,-3714.5037L13820.2077,-3714.3997L13820.5147,-3714.2844L13820.8008,-3714.1757"/>
<path content="1,阪急バス（株）,新潟行（おけさ号）,1.0,1.0,1.0," xlink:title="1" d="M13816.4062,-3714.822L13816.6009,-3714.8128L13816.9681,-3714.7924L13817.418,-3714.7689L13818.132,-3714.7271L13818.8082,-3714.6893L13819.0398,-3714.674L13819.204,-3714.6598L13819.3713,-3714.6394L13819.4978,-3714.6179L13819.6406,-3714.5853L13819.7823,-3714.5465L13819.916,-3714.5037L13820.2077,-3714.3997L13820.5147,-3714.2844L13820.8008,-3714.1757"/>
<path content="1,頸城自動車（株）,名立線,6.0,4.0,4.0," xlink:title="1" d="M13820.8008,-3716.7464L13820.7958,-3716.7464L13820.7438,-3716.7504L13820.7125,-3716.7558L13820.6868,-3716.765L13820.6742,-3716.7712L13820.6623,-3716.7757L13820.6391,-3716.7869L13820.6025,-3716.8078L13820.5765,-3716.8269L13820.566,-3716.8376L13820.557,-3716.851L13820.5491,-3716.8607L13820.5357,-3716.8849L13820.5247,-3716.8984L13820.5097,-3716.9102L13820.4873,-3716.9215L13820.4486,-3716.9311L13820.4374,-3716.9339L13820.4121,-3716.9378L13820.3931,-3716.9423L13820.3228,-3716.9536L13820.3053,-3716.9558L13820.2907,-3716.9559L13820.2536,-3716.9566L13820.2239,-3716.9566L13820.1838,-3716.957L13820.1494,-3716.9586L13820.1225,-3716.9587L13820.0991,-3716.9586L13820.0733,-3716.9543L13820.0356,-3716.9578L13819.987,-3716.9617L13819.9099,-3716.9693L13819.8923,-3716.9699L13819.8436,-3716.9714L13819.7749,-3716.9753L13819.7284,-3716.9776L13819.6958,-3716.9785L13819.6698,-3716.979L13819.6298,-3716.979L13819.607,-3716.9773L13819.5887,-3716.9749L13819.5754,-3716.9715L13819.5515,-3716.9655L13819.5363,-3716.9602L13819.4976,-3716.9452L13819.4707,-3716.934L13819.3747,-3716.8922L13819.346,-3716.8793L13819.276,-3716.8463L13819.2575,-3716.8371L13819.2077,-3716.8155L13819.1728,-3716.8044L13819.1433,-3716.7968L13819.0778,-3716.7777L13819.0149,-3716.7637L13818.948,-3716.7477L13818.8738,-3716.7291L13818.7425,-3716.6974L13818.6807,-3716.6816L13818.6757,-3716.6799L13818.6174,-3716.6602L13818.5774,-3716.6461L13818.4551,-3716.5961L13818.4059,-3716.5707L13818.3898,-3716.5611L13818.3799,-3716.5538L13818.3619,-3716.5344L13818.3448,-3716.5088L13818.3224,-3716.4738L13818.3101,-3716.4536L13818.3073,-3716.4499L13818.2935,-3716.4271L13818.2766,-3716.4057L13818.2605,-3716.3894L13818.2513,-3716.3832L13818.2373,-3716.3754L13818.2113,-3716.3658L13818.1979,-3716.3624L13818.1698,-3716.3596L13818.115,-3716.3556L13818.0089,-3716.3551L13817.9941,-3716.354L13817.9709,-3716.35L13817.9428,-3716.3444L13817.9111,-3716.3376L13817.8769,-3716.3284L13817.8695,-3716.325L13817.8494,-3716.3201L13817.8207,-3716.3101L13817.7967,-3716.2999L13817.7833,-3716.2915L13817.7011,-3716.2492L13817.6842,-3716.2447L13817.6667,-3716.2414L13817.55,-3716.2138L13817.5395,-3716.2104L13817.5058,-3716.2036L13817.4868,-3716.1997L13817.4278,-3716.1851L13817.3772,-3716.1744L13817.361,-3716.1721L13817.3477,-3716.1693L13817.2704,-3716.158L13817.2507,-3716.1552L13817.231,-3716.1524L13817.2078,-3716.1502L13817.1741,-3716.1468L13817.1546,-3716.1457L13817.0912,-3716.1392L13817.0604,-3716.1371L13817.0346,-3716.1379L13817.0229,-3716.1426L13816.9819,-3716.1682L13816.9542,-3716.1604L13816.8881,-3716.1615L13816.8586,-3716.162L13816.8414,-3716.16L13816.756,-3716.1648L13816.6822,-3716.1671L13816.4964,-3716.1711L13816.4854,-3716.171L13816.4062,-3716.174"/>
<path content="1,頸城自動車（株）,桑取線,5.0,4.0,4.0," xlink:title="1" d="M13820.8008,-3716.7464L13820.7958,-3716.7464L13820.7438,-3716.7504L13820.7125,-3716.7558L13820.6868,-3716.765L13820.6742,-3716.7712L13820.6623,-3716.7757L13820.6391,-3716.7869L13820.6025,-3716.8078L13820.5765,-3716.8269L13820.566,-3716.8376L13820.557,-3716.851L13820.5491,-3716.8607L13820.5357,-3716.8849L13820.5247,-3716.8984L13820.5097,-3716.9102L13820.4873,-3716.9215L13820.4486,-3716.9311L13820.4374,-3716.9339L13820.4121,-3716.9378L13820.3931,-3716.9423L13820.3228,-3716.9536L13820.3053,-3716.9558L13820.2907,-3716.9559L13820.2536,-3716.9566L13820.2239,-3716.9566L13820.1838,-3716.957L13820.1494,-3716.9586L13820.1225,-3716.9587L13820.0991,-3716.9586L13820.0733,-3716.9543L13820.0356,-3716.9578L13819.987,-3716.9617L13819.9099,-3716.9693L13819.8923,-3716.9699L13819.8436,-3716.9714L13819.7749,-3716.9753L13819.7284,-3716.9776L13819.6958,-3716.9785L13819.6698,-3716.979L13819.6298,-3716.979L13819.607,-3716.9773L13819.5887,-3716.9749L13819.5754,-3716.9715L13819.5515,-3716.9655L13819.5363,-3716.9602L13819.4976,-3716.9452L13819.4707,-3716.934L13819.3747,-3716.8922L13819.346,-3716.8793L13819.276,-3716.8463L13819.2575,-3716.8371L13819.2077,-3716.8155L13819.1728,-3716.8044L13819.1433,-3716.7968L13819.0778,-3716.7777L13819.0149,-3716.7637L13818.948,-3716.7477L13818.8738,-3716.7291L13818.7425,-3716.6974L13818.6807,-3716.6816L13818.6757,-3716.6799L13818.6174,-3716.6602L13818.5774,-3716.6461L13818.4551,-3716.5961L13818.4059,-3716.5707L13818.3898,-3716.5611L13818.3799,-3716.5538L13818.3619,-3716.5344L13818.3448,-3716.5088L13818.3224,-3716.4738L13818.3073,-3716.4499L13818.2935,-3716.4271L13818.2766,-3716.4057L13818.2605,-3716.3894L13818.2513,-3716.3832L13818.2373,-3716.3754L13818.2113,-3716.3658L13818.1979,-3716.3624L13818.1698,-3716.3596L13818.115,-3716.3556L13818.0089,-3716.3551L13817.9941,-3716.354L13817.9709,-3716.35L13817.9428,-3716.3444L13817.9111,-3716.3376L13817.8769,-3716.3284L13817.8695,-3716.325L13817.8494,-3716.3201L13817.8207,-3716.3101L13817.7967,-3716.2999L13817.7833,-3716.2915L13817.7011,-3716.2492L13817.6842,-3716.2447L13817.6667,-3716.2414L13817.55,-3716.2138L13817.5395,-3716.2104L13817.5058,-3716.2036L13817.4868,-3716.1997L13817.4278,-3716.1851L13817.3772,-3716.1744L13817.361,-3716.1721L13817.3477,-3716.1693L13817.2704,-3716.158L13817.2507,-3716.1552L13817.231,-3716.1524L13817.2078,-3716.1502L13817.1741,-3716.1468L13817.1546,-3716.1457L13817.0912,-3716.1392L13817.0604,-3716.1371L13817.0346,-3716.1379L13817.0229,-3716.1426L13816.9819,-3716.1682L13816.9542,-3716.1604L13816.8881,-3716.1615L13816.8586,-3716.162L13816.8414,-3716.16L13816.756,-3716.1648L13816.6822,-3716.1671L13816.4964,-3716.1711L13816.4854,-3716.171L13816.4062,-3716.174"/>
<path content="1,頸城自動車（株）,能生線（名立区・能生方面）,2.0,2.0,2.0," xlink:title="1" d="M13816.4062,-3716.174L13816.4854,-3716.171L13816.4964,-3716.1711L13816.6822,-3716.1671L13816.756,-3716.1648L13816.8414,-3716.16L13816.8586,-3716.162L13816.8881,-3716.1615L13816.9542,-3716.1604L13816.9819,-3716.1682L13817.0229,-3716.1426L13817.0346,-3716.1379L13817.0604,-3716.1371L13817.0912,-3716.1392L13817.1546,-3716.1457L13817.1741,-3716.1468L13817.2078,-3716.1502L13817.231,-3716.1524L13817.2507,-3716.1552L13817.2704,-3716.158L13817.3477,-3716.1693L13817.361,-3716.1721L13817.3772,-3716.1744L13817.4278,-3716.1851L13817.4868,-3716.1997L13817.5058,-3716.2036L13817.5395,-3716.2104L13817.55,-3716.2138L13817.6667,-3716.2414L13817.6842,-3716.2447L13817.7011,-3716.2492L13817.7833,-3716.2915L13817.7967,-3716.2999L13817.8207,-3716.3101L13817.8494,-3716.3201L13817.8695,-3716.325L13817.8769,-3716.3284L13817.9111,-3716.3376L13817.9428,-3716.3444L13817.9709,-3716.35L13817.9941,-3716.354L13818.0089,-3716.3551L13818.115,-3716.3556L13818.1698,-3716.3596L13818.1979,-3716.3624L13818.2113,-3716.3658L13818.2373,-3716.3754L13818.2513,-3716.3832L13818.2605,-3716.3894L13818.2766,-3716.4057L13818.2935,-3716.4271L13818.3073,-3716.4499L13818.3101,-3716.4536L13818.3224,-3716.4738L13818.3448,-3716.5088L13818.3619,-3716.5344L13818.3799,-3716.5538L13818.3898,-3716.5611L13818.4059,-3716.5707L13818.4551,-3716.5961L13818.5774,-3716.6461L13818.6174,-3716.6602L13818.6757,-3716.6799L13818.6807,-3716.6816L13818.7425,-3716.6974L13818.8738,-3716.7291L13818.948,-3716.7477L13819.0149,-3716.7637L13819.0778,-3716.7777L13819.1433,-3716.7968L13819.1728,-3716.8044L13819.2077,-3716.8155L13819.2575,-3716.8371L13819.276,-3716.8463L13819.346,-3716.8793L13819.3747,-3716.8922L13819.4707,-3716.934L13819.4976,-3716.9452L13819.5363,-3716.9602L13819.5515,-3716.9655L13819.5754,-3716.9715L13819.5887,-3716.9749L13819.607,-3716.9773L13819.6298,-3716.979L13819.6698,-3716.979L13819.6958,-3716.9785L13819.7284,-3716.9776L13819.7749,-3716.9753L13819.8436,-3716.9714L13819.8923,-3716.9699L13819.9099,-3716.9693L13819.987,-3716.9617L13820.0356,-3716.9578L13820.0733,-3716.9543L13820.0991,-3716.9586L13820.1225,-3716.9587L13820.1494,-3716.9586L13820.1838,-3716.957L13820.2239,-3716.9566L13820.2536,-3716.9566L13820.2907,-3716.9559L13820.3053,-3716.9558L13820.3228,-3716.9536L13820.3931,-3716.9423L13820.4121,-3716.9378L13820.4374,-3716.9339L13820.4486,-3716.9311L13820.4873,-3716.9215L13820.5097,-3716.9102L13820.5247,-3716.8984L13820.5357,-3716.8849L13820.5491,-3716.8607L13820.557,-3716.851L13820.566,-3716.8376L13820.5765,-3716.8269L13820.6025,-3716.8078L13820.6391,-3716.7869L13820.6623,-3716.7757L13820.6742,-3716.7712L13820.6868,-3716.765L13820.7125,-3716.7558L13820.7438,-3716.7504L13820.7958,-3716.7464L13820.8008,-3716.7464"/>
</g>
</svg>
