<?xml version="1.0" encoding="UTF-8"?>
<svg  xmlns="http://www.w3.org/2000/svg" xmlns:xlink="http://www.w3.org/1999/xlink" xmlns:go="http://purl.org/svgmap/profile" property="N07_001,N07_002,N07_003,N07_004,N07_005,N07_006,N07_007" viewBox="14062.5 -2812.5 562.5 562.5" go:dataArea="14062.5 -2812.5 562.5 562.5" >
<metadata>
 <rdf:RDF xmlns:rdf="http://www.w3.org/1999/02/22-rdf-syntax-ns#" xmlns:crs="http://opengis.org/xmldtds/transformations.dtd" xmlns:svg="http://www.w3.org/svg" >
  <rdf:Description>
   <crs:CoordinateReferenceSystem rdf:resource="http://purl.org/crs/84" svg:transform="matrix(100.0,0.0,0.0,-100.0,0.0,0.0)" />
  </rdf:Description>
 </rdf:RDF>
</metadata>
<globalCoordinateSystem srsName="http://purl.org/crs/84" transform="matrix(100.0,0.0,0.0,-100.0,0.0,0.0)" />
<defs>
 <g id="p0" >
  <circle cx="0.0" cy="0.0" r="3" stroke="green" stroke-width="0.75" vector-effect="non-scaling-stroke" />
 </g>
</defs>
<g fill="none" fill-rule="evenodd" stroke="#FF00FF" stroke-width="0.75" opacity="0.5" vector-effect="non-scaling-stroke" stroke-linejoin="bevel" >
<path content="3,小笠原村,ブルーライン（大村～奥村循環線）,3.5,2.0,2.0," xlink:title="3" d="M14219.2051,-2709.4107L14219.2148,-2709.4256L14219.228,-2709.4448L14219.3118,-2709.4612L14219.3704,-2709.4713L14219.4277,-2709.4824L14219.4366,-2709.4841L14219.4545,-2709.4897L14219.5103,-2709.4979L14219.557,-2709.5061L14219.5756,-2709.5094L14219.5878,-2709.5127L14219.5983,-2709.5162L14219.6064,-2709.5208L14219.7025,-2709.5886L14219.7579,-2709.622L14219.7665,-2709.6294L14219.7768,-2709.6395L14219.8203,-2709.675L14219.8243,-2709.6811L14219.8246,-2709.6883L14219.8215,-2709.7015L14219.8183,-2709.7092L14219.8124,-2709.7193L14219.773,-2709.7704L14219.7568,-2709.7944"/>
<path content="3,小笠原村,ブルーライン（大村～奥村循環線）,3.5,2.0,2.0," xlink:title="3" d="M14219.7568,-2709.7944L14219.7125,-2709.868L14219.6314,-2709.9053L14219.5733,-2709.9295L14219.5638,-2709.9323L14219.5569,-2709.9323L14219.5493,-2709.9306L14219.5374,-2709.9216L14219.526,-2709.9109L14219.4931,-2709.8588L14219.4873,-2709.852L14219.4813,-2709.8458L14219.4734,-2709.8409L14219.4652,-2709.836L14219.4284,-2709.82L14219.3817,-2709.8025"/>
<path content="3,小笠原村,ブルーライン（大村～奥村循環線）,3.5,2.0,2.0," xlink:title="3" d="M14219.7568,-2709.7944L14219.7601,-2709.8208L14219.7627,-2709.8329L14219.7656,-2709.8426L14219.7691,-2709.8509L14219.7733,-2709.8556L14219.7787,-2709.8607L14219.8152,-2709.8838L14219.8255,-2709.894L14219.9154,-2709.934L14219.9257,-2709.9408L14219.9427,-2709.954L14219.9722,-2709.9756L14219.9816,-2709.978L14220.0159,-2709.9991L14220.0389,-2710.0107L14220.1231,-2709.9717L14220.2806,-2709.8989L14220.3187,-2709.8814L14220.3546,-2709.8663L14220.3593,-2709.8679L14220.3642,-2709.8742L14220.3792,-2709.8981L14220.3984,-2709.9325L14220.4034,-2709.9412L14220.3876,-2709.9502L14220.376,-2709.9568L14220.347,-2709.969L14220.3086,-2709.9842L14220.2944,-2709.9922"/>
<path content="3,小笠原村,ブルーライン（大村～奥村循環線）,3.5,2.0,2.0," xlink:title="3" d="M14219.3817,-2709.8025L14219.3774,-2709.8008L14219.3244,-2709.7788L14219.3035,-2709.7721L14219.2925,-2709.7705L14219.283,-2709.7721L14219.2765,-2709.7743L14219.2683,-2709.7771L14219.2513,-2709.7867L14219.2331,-2709.7946L14219.227,-2709.7957L14219.2204,-2709.7946L14219.2154,-2709.7918L14219.206,-2709.7833L14219.1946,-2709.7647L14219.1936,-2709.7595L14219.1941,-2709.7377L14219.194,-2709.7286L14219.1915,-2709.7186L14219.1852,-2709.7136L14219.1657,-2709.6942L14219.143,-2709.6781L14219.1197,-2709.6626L14219.102,-2709.6581L14219.0844,-2709.6581L14219.0693,-2709.6626L14219.0491,-2709.6739L14219.0396,-2709.6739L14219.0314,-2709.6711L14219.0256,-2709.6684L14219.022,-2709.6649L14219.0162,-2709.6504L14219.0118,-2709.6434L14219.0039,-2709.6382L14218.993,-2709.6349L14218.9748,-2709.6316L14218.964,-2709.6282L14218.9546,-2709.6203L14218.9502,-2709.6129L14218.9483,-2709.6045L14218.9502,-2709.5859L14218.9527,-2709.5785L14218.9603,-2709.5661L14218.9659,-2709.5599L14218.9772,-2709.5514L14218.9949,-2709.5379L14219.0144,-2709.5166L14219.0195,-2709.5101L14219.0228,-2709.5031L14219.0228,-2709.495L14219.0201,-2709.4883L14219.0157,-2709.4813L14219.01,-2709.4759L14218.9974,-2709.4674L14218.9853,-2709.4635L14218.9539,-2709.4533L14218.9427,-2709.4485L14218.9316,-2709.4466L14218.925,-2709.4459L14218.8788,-2709.4459L14218.8746,-2709.4454L14218.8696,-2709.4408L14218.8679,-2709.4361L14218.8672,-2709.4273L14218.8683,-2709.4166L14218.8708,-2709.4093L14218.8738,-2709.4035L14218.8784,-2709.398L14218.8853,-2709.3918L14218.9042,-2709.3799L14218.9092,-2709.376L14218.9152,-2709.3718L14218.9322,-2709.3687L14218.9379,-2709.3659L14218.9439,-2709.3596L14218.9464,-2709.3546L14218.9502,-2709.3387L14218.9508,-2709.319L14218.9533,-2709.3094L14218.9573,-2709.3025L14218.964,-2709.2953L14218.9703,-2709.2919L14218.9828,-2709.2853L14218.9968,-2709.2801L14219.0132,-2709.2756L14219.0245,-2709.2744L14219.0339,-2709.2776L14219.0423,-2709.2801L14219.0966,-2709.2567L14219.1238,-2709.2948L14219.1308,-2709.3106"/>
<path content="3,小笠原村,ブルーライン（大村～奥村循環線）,3.5,2.0,2.0," xlink:title="3" d="M14219.3817,-2709.8025L14219.3965,-2709.8404L14219.4011,-2709.8512L14219.4064,-2709.8686L14219.4076,-2709.8787L14219.4101,-2709.8861L14219.4108,-2709.899L14219.4089,-2709.9294L14219.4062,-2709.9499L14219.4013,-2709.9729L14219.3969,-2709.9836L14219.3887,-2709.9955L14219.4005,-2709.9932L14219.4145,-2709.991L14219.4265,-2709.987L14219.4366,-2709.9853L14219.4523,-2709.9853L14219.4882,-2709.9938L14219.5134,-2710.0017L14219.5229,-2710.0051L14219.5323,-2710.0101L14219.5391,-2710.0151L14219.543,-2710.0203L14219.5424,-2710.0299L14219.538,-2710.0406L14219.5251,-2710.0576L14219.5109,-2710.0688L14219.5046,-2710.079L14219.5059,-2710.0852L14219.509,-2710.089L14219.5216,-2710.097L14219.5399,-2710.1044L14219.5613,-2710.1077L14219.5783,-2710.1066L14219.5859,-2710.1027L14219.6098,-2710.0869L14219.6287,-2710.0784L14219.6382,-2710.0756L14219.6474,-2710.0752L14219.6571,-2710.0756L14219.6741,-2710.079L14219.7062,-2710.0829L14219.7182,-2710.0824L14219.7296,-2710.0779L14219.7459,-2710.0683L14219.7781,-2710.0434L14219.7843,-2710.0389L14219.7702,-2710.0279"/>
<path content="3,小笠原村,扇浦線,12.0,8.0,8.0," xlink:title="3" d="M14219.2051,-2709.4107L14219.2148,-2709.4256L14219.228,-2709.4448L14219.3118,-2709.4612L14219.3704,-2709.4713L14219.4277,-2709.4824L14219.4366,-2709.4841L14219.4545,-2709.4897L14219.5103,-2709.4979L14219.557,-2709.5061L14219.5756,-2709.5094L14219.5878,-2709.5127L14219.5983,-2709.5162L14219.6064,-2709.5208L14219.7025,-2709.5886L14219.7579,-2709.622L14219.7665,-2709.6294L14219.7768,-2709.6395L14219.8203,-2709.675L14219.8243,-2709.6811L14219.8246,-2709.6883L14219.8215,-2709.7015L14219.8183,-2709.7092L14219.8124,-2709.7193L14219.773,-2709.7704L14219.7568,-2709.7944L14219.7601,-2709.8208L14219.7627,-2709.8329L14219.7656,-2709.8426L14219.7691,-2709.8509L14219.7733,-2709.8556L14219.7787,-2709.8607L14219.8152,-2709.8838L14219.8255,-2709.894L14219.9154,-2709.934L14219.9257,-2709.9408L14219.9427,-2709.954L14219.9722,-2709.9756L14219.9816,-2709.978L14220.0159,-2709.9991L14220.0389,-2710.0107L14220.0566,-2710.0186L14220.0893,-2710.0271L14220.1158,-2710.0309L14220.1315,-2710.0311L14220.1507,-2710.0293L14220.2329,-2710.0091L14220.2651,-2709.9994L14220.2944,-2709.9922L14220.3086,-2709.9842L14220.347,-2709.969L14220.376,-2709.9568L14220.3876,-2709.9502L14220.4034,-2709.9412L14220.4194,-2709.9291L14220.4321,-2709.9165L14220.4519,-2709.8965L14220.4573,-2709.8911L14220.4686,-2709.8776L14220.4724,-2709.8714L14220.4768,-2709.8618L14220.4799,-2709.8494L14220.48,-2709.833L14220.4749,-2709.8206L14220.4668,-2709.8048L14220.4547,-2709.7867L14220.4314,-2709.7569L14220.422,-2709.7433L14220.4018,-2709.7106L14220.3955,-2709.6965L14220.3898,-2709.6812L14220.3854,-2709.6649L14220.3841,-2709.6538L14220.3854,-2709.6406L14220.3886,-2709.6276L14220.3999,-2709.6056L14220.4209,-2709.5656L14220.4239,-2709.5589L14220.4267,-2709.5503L14220.4715,-2709.3548L14220.4759,-2709.3324L14220.476,-2709.3257L14220.4715,-2709.32L14220.4552,-2709.3098L14220.4314,-2709.3004L14220.4144,-2709.2914L14220.4062,-2709.2846L14220.3987,-2709.2739L14220.3987,-2709.2586L14220.4037,-2709.2355L14220.4274,-2709.1184L14220.4428,-2709.0457L14220.4502,-2709.0164L14220.4715,-2708.9484L14220.5013,-2708.8739L14220.5295,-2708.8135L14220.5587,-2708.7556L14220.5998,-2708.6843L14220.611,-2708.6702L14220.6243,-2708.6634L14220.6375,-2708.664L14220.6463,-2708.6657L14220.6652,-2708.6748L14220.7079,-2708.6999L14220.7135,-2708.7033L14220.7509,-2708.7227L14220.7577,-2708.7259L14220.7636,-2708.7268L14220.7723,-2708.7221L14220.8189,-2708.69L14220.829,-2708.6847L14220.8423,-2708.6719L14220.8561,-2708.6556L14220.8656,-2708.6347L14220.8694,-2708.6194L14220.8712,-2708.6048L14220.8807,-2708.4175L14220.8851,-2708.4028L14220.8908,-2708.3898L14220.9021,-2708.3763L14220.9708,-2708.3142L14220.9916,-2708.295L14221.0326,-2708.2561L14221.0464,-2708.2414L14221.0521,-2708.2302L14221.0514,-2708.2132L14221.0477,-2708.2031L14221.0187,-2708.1523L14221.009,-2708.1375L14220.9991,-2708.1259L14220.9872,-2708.1173L14220.9512,-2708.101L14220.9281,-2708.0893L14220.8616,-2708.0573L14220.7906,-2708.0254L14220.7818,-2708.0197L14220.7803,-2708.0147L14220.778,-2707.9943L14220.7761,-2707.9531L14220.756,-2707.811L14220.7516,-2707.7895L14220.7408,-2707.7478L14220.7295,-2707.7274L14220.7169,-2707.719L14220.7005,-2707.7122L14220.6728,-2707.7071L14220.6514,-2707.7009L14220.6375,-2707.6942L14220.6306,-2707.6885L14220.6256,-2707.6761L14220.6211,-2707.6473L14220.6214,-2707.6279L14220.6267,-2707.6141L14220.6438,-2707.5808L14220.6507,-2707.5571L14220.6501,-2707.5368L14220.6432,-2707.5198L14220.6249,-2707.4967L14220.5279,-2707.3929L14220.5052,-2707.3692L14220.4844,-2707.3449L14220.47,-2707.3311L14220.4544,-2707.3193L14220.4403,-2707.3103L14220.3792,-2707.2772L14220.3616,-2707.2643L14220.341,-2707.2547L14220.3288,-2707.2507L14220.3124,-2707.2479L14220.3509,-2707.1841L14220.3993,-2707.1013L14220.417,-2707.0758L14220.4321,-2707.0516L14220.4429,-2707.0312L14220.4445,-2707.0205L14220.4413,-2707.0136L14220.3912,-2706.9461L14220.3817,-2706.9308L14220.3786,-2706.9207L14220.3782,-2706.9114L14220.3802,-2706.9054L14220.3959,-2706.8768L14220.4441,-2706.7864L14220.4838,-2706.7119L14220.4974,-2706.6833L14220.5027,-2706.6675L14220.5057,-2706.6589L14220.5166,-2706.6205L14220.5266,-2706.5816L14220.5299,-2706.5571L14220.5311,-2706.5314L14220.5311,-2706.5026L14220.5298,-2706.4885L14220.5278,-2706.4729L14220.5236,-2706.4598L14220.5146,-2706.4454L14220.5073,-2706.4382L14220.4988,-2706.4334L14220.4749,-2706.4259L14220.4204,-2706.4108L14220.3449,-2706.3923L14220.3315,-2706.3875L14220.3269,-2706.3831L14220.3248,-2706.3762L14220.3245,-2706.3699L14220.3245,-2706.3615L14220.3276,-2706.3495L14220.3336,-2706.3351L14220.3521,-2706.2312L14220.3647,-2706.1635L14220.3736,-2706.1347L14220.3811,-2706.1201L14220.3874,-2706.111L14220.3969,-2706.0998L14220.4126,-2706.0851L14220.4267,-2706.0714L14220.4309,-2706.0659L14220.4324,-2706.0619L14220.4315,-2706.0558L14220.4306,-2706.0501L14220.428,-2706.0439L14220.4202,-2706.036L14220.4144,-2706.0324L14220.4011,-2706.026L14220.3477,-2706.0106L14220.3418,-2706.0089L14220.335,-2706.0039L14220.3295,-2705.9976L14220.3068,-2705.9576L14220.2986,-2705.9474L14220.2929,-2705.9452L14220.2824,-2705.9438L14220.2696,-2705.9446L14220.2614,-2705.9463L14220.245,-2705.9531L14220.224,-2705.9594L14220.2185,-2705.9619L14220.2148,-2705.9644L14220.2104,-2705.9694L14220.1995,-2705.9876L14220.1959,-2705.992L14220.1864,-2705.9982L14220.172,-2706.0039L14220.1619,-2706.0061L14220.1543,-2706.0078L14220.1377,-2706.0108L14220.1222,-2706.0101L14220.1134,-2706.0078L14220.0806,-2705.992L14219.9988,-2705.9546L14219.9804,-2705.9457L14219.9672,-2705.9401L14219.959,-2705.9384L14219.9457,-2705.9384L14219.93,-2705.9412L14219.9181,-2705.9447L14219.9079,-2705.9491L14219.8752,-2705.9745L14219.8462,-2706.0004L14219.8241,-2706.0185L14219.8178,-2706.0253L14219.7977,-2706.0399L14219.7794,-2706.0495L14219.7681,-2706.0524L14219.7605,-2706.0524L14219.7485,-2706.0503L14219.736,-2706.0461L14219.7095,-2706.0298L14219.6786,-2706.0129L14219.6671,-2706.011"/>
</g>
</svg>
