<?xml version="1.0" encoding="UTF-8"?>
<svg  xmlns="http://www.w3.org/2000/svg" xmlns:xlink="http://www.w3.org/1999/xlink" xmlns:go="http://purl.org/svgmap/profile" property="N07_001,N07_002,N07_003,N07_004,N07_005,N07_006,N07_007" viewBox="14027.34375 -4060.546875 17.578125 17.578125" go:dataArea="14027.34375 -4060.546875 17.578125 17.578125" >
<metadata>
 <rdf:RDF xmlns:rdf="http://www.w3.org/1999/02/22-rdf-syntax-ns#" xmlns:crs="http://opengis.org/xmldtds/transformations.dtd" xmlns:svg="http://www.w3.org/svg" >
  <rdf:Description>
   <crs:CoordinateReferenceSystem rdf:resource="http://purl.org/crs/84" svg:transform="matrix(100.0,0.0,0.0,-100.0,0.0,0.0)" />
  </rdf:Description>
 </rdf:RDF>
</metadata>
<globalCoordinateSystem srsName="http://purl.org/crs/84" transform="matrix(100.0,0.0,0.0,-100.0,0.0,0.0)" />
<defs>
 <g id="p0" >
  <circle cx="0.0" cy="0.0" r="3" stroke="green" stroke-width="0.75" vector-effect="non-scaling-stroke" />
 </g>
</defs>
<g fill="none" fill-rule="evenodd" stroke="#FF00FF" stroke-width="0.75" opacity="0.5" vector-effect="non-scaling-stroke" stroke-linejoin="bevel" >
<path content="1,弘南バス（株）,ためのぶ号　69,2.7,2.7,2.7," xlink:title="1" d="M14044.2419,-4058.9933L14044.2452,-4059.0087L14044.2726,-4059.0954L14044.2799,-4059.1157L14044.2895,-4059.1461L14044.291,-4059.1523L14044.3626,-4059.1698L14044.3759,-4059.2131L14044.3899,-4059.2897L14044.3959,-4059.328L14044.401,-4059.386L14044.4276,-4059.3843L14044.4469,-4059.3771L14044.4985,-4059.373L14044.5074,-4059.3713L14044.5354,-4059.3696L14044.5443,-4059.3685L14044.5625,-4059.3699L14044.5946,-4059.3686L14044.6285,-4059.3708L14044.6508,-4059.3767L14044.692,-4059.3877L14044.7156,-4059.3961L14044.7769,-4059.413L14044.8139,-4059.4226L14044.8442,-4059.431L14044.8574,-4059.4338L14044.8833,-4059.4395L14044.9091,-4059.444L14044.9219,-4059.446"/>
<path content="1,弘南バス（株）,ミニバス緑ヶ丘線　77,5.5,5.5,5.5," xlink:title="1" d="M14044.9219,-4057.7567L14044.9099,-4057.7385L14044.8893,-4057.7132L14044.8834,-4057.7059L14044.8738,-4057.6912L14044.8664,-4057.6777L14044.8554,-4057.6597L14044.8274,-4057.6107L14044.8111,-4057.5826L14044.8006,-4057.5669L14044.7872,-4057.5266L14044.834,-4057.5116L14044.8864,-4057.497L14044.9041,-4057.4919L14044.9219,-4057.4908"/>
<path content="1,弘南バス（株）,久渡寺線　55,7.5,7.5,6.0," xlink:title="1" d="M14044.8864,-4057.497L14044.9041,-4057.4919L14044.9219,-4057.4908M14044.9219,-4057.1691L14044.8562,-4057.1783L14044.8149,-4057.1845L14044.778,-4057.189L14044.7942,-4057.2493L14044.8133,-4057.3123L14044.8221,-4057.3369L14044.8251,-4057.3456L14044.8384,-4057.3833L14044.8429,-4057.3934L14044.8709,-4057.4649L14044.8864,-4057.497"/>
<path content="1,弘南バス（株）,久渡寺線　55,7.5,7.5,6.0," xlink:title="1" d="M14044.7872,-4057.5266L14044.7838,-4057.5167L14044.7772,-4057.4987L14044.7713,-4057.4897L14044.7624,-4057.4733L14044.7543,-4057.4609L14044.7049,-4057.3821L14044.6909,-4057.3664L14044.6688,-4057.3247L14044.6503,-4057.2887L14044.6348,-4057.2643L14044.6208,-4057.2318L14044.6142,-4057.2143L14044.6083,-4057.2008L14044.5936,-4057.1676L14044.5856,-4057.148L14044.5758,-4057.1237L14044.5677,-4057.0905L14044.5574,-4057.0668L14044.5501,-4057.0561L14044.5294,-4057.0325L14044.494,-4056.9998L14044.446,-4056.9446L14044.4357,-4056.9322L14044.3882,-4056.8755L14044.3354,-4056.8123L14044.3229,-4056.7966L14044.3081,-4056.778L14044.2941,-4056.7509L14044.2852,-4056.7397L14044.2786,-4056.7239L14044.2432,-4056.678L14044.2226,-4056.6541L14044.2085,-4056.6344L14044.1989,-4056.6096L14044.196,-4056.5849L14044.1931,-4056.5584L14044.1877,-4056.554L14044.1864,-4056.5443L14044.1724,-4056.5178L14044.154,-4056.4886L14044.1009,-4056.4114L14044.0876,-4056.3834L14044.0573,-4056.3428L14044.0323,-4056.3044L14044.0094,-4056.2724L14043.9969,-4056.2549L14043.9858,-4056.2408L14043.9718,-4056.2251L14043.9298,-4056.1727L14043.9194,-4056.1564L14043.8809,-4056.1052L14043.8759,-4056.0978L14043.8493,-4056.0624L14043.8265,-4056.0314L14043.8209,-4056.0219L14043.7999,-4055.997L14043.7741,-4055.9633L14043.7638,-4055.948L14043.7431,-4055.9159L14043.7306,-4055.8957L14043.7107,-4055.8563L14043.6989,-4055.8394L14043.69,-4055.8293L14043.6797,-4055.8186L14043.6539,-4055.796L14043.6303,-4055.7763L14043.6082,-4055.7561L14043.589,-4055.7347L14043.5654,-4055.7037L14043.5542,-4055.6894L14043.5469,-4055.68L14043.5307,-4055.6558L14043.4916,-4055.6136L14043.471,-4055.5928L14043.4629,-4055.5832L14043.44,-4055.5584L14043.4186,-4055.5348L14043.3817,-4055.4971L14043.3389,-4055.4514L14043.32,-4055.4296L14043.3057,-4055.4131L14043.2822,-4055.3872L14043.2431,-4055.3489L14043.2114,-4055.3157L14043.1929,-4055.2921L14043.1677,-4055.2632L14043.1604,-4055.2504L14043.1523,-4055.2347L14043.1472,-4055.22L14043.1391,-4055.1924L14043.1332,-4055.1429L14043.1302,-4055.1176L14043.1273,-4055.0984L14043.1214,-4055.0567L14043.1206,-4055.0427L14043.1148,-4055.0117L14043.1104,-4054.9959L14043.1,-4054.9577L14043.0978,-4054.9351L14043.097,-4054.8997L14043.1,-4054.8906L14043.1052,-4054.8814L14043.1133,-4054.8709L14043.1317,-4054.8507L14043.1612,-4054.8231L14043.2003,-4054.7933L14043.2062,-4054.7888L14043.218,-4054.7786L14043.2276,-4054.7685L14043.2343,-4054.7567L14043.2483,-4054.702L14043.2556,-4054.6542L14043.2564,-4054.5934L14043.2475,-4054.5101L14043.2453,-4054.4509L14043.2439,-4054.438L14043.2402,-4054.407L14043.2394,-4054.3879L14043.2372,-4054.3609L14043.2291,-4054.3096L14043.221,-4054.2713L14043.2114,-4054.2285L14043.204,-4054.1987L14043.1967,-4054.1407L14043.1937,-4054.1159L14043.19,-4054.0861L14043.1899,-4054.0527"/>
<path content="1,弘南バス（株）,久渡寺線　55,7.5,7.5,6.0," xlink:title="1" d="M14044.7872,-4057.5266L14044.834,-4057.5116L14044.8864,-4057.497"/>
<path content="1,弘南バス（株）,久渡寺線　55,7.5,7.5,6.0," xlink:title="1" d="M14044.9219,-4057.7567L14044.9099,-4057.7385L14044.8893,-4057.7132L14044.8834,-4057.7059L14044.8738,-4057.6912L14044.8664,-4057.6777L14044.8554,-4057.6597L14044.8274,-4057.6107L14044.8111,-4057.5826L14044.8006,-4057.5669L14044.7872,-4057.5266"/>
<path content="1,弘南バス（株）,南高校・桜ヶ丘線　58・59,3.5,3.5,1.5," xlink:title="1" d="M14044.8864,-4057.497L14044.9041,-4057.4919L14044.9219,-4057.4908"/>
<path content="1,弘南バス（株）,南高校・桜ヶ丘線　58・59,3.5,3.5,1.5," xlink:title="1" d="M14044.8864,-4057.497L14044.834,-4057.5116L14044.7872,-4057.5266L14044.8006,-4057.5669L14044.8111,-4057.5826L14044.8274,-4057.6107L14044.8185,-4057.6169L14044.6879,-4057.6659L14044.6724,-4057.6749L14044.6481,-4057.6924L14044.5891,-4057.7329L14044.5743,-4057.7233L14044.5662,-4057.7194L14044.5434,-4057.7053L14044.5349,-4057.7043L14044.4932,-4057.6777L14044.4084,-4057.6282L14044.3442,-4057.6603L14044.2254,-4057.7216L14044.1738,-4057.7515L14044.1365,-4057.7721L14044.1045,-4057.7976L14044.0809,-4057.8168L14044.0609,-4057.8393L14044.0454,-4057.8629L14044.0304,-4057.8963L14044.0248,-4057.9187L14044.0218,-4057.9395L14044.0159,-4057.9756L14044.0145,-4057.9879L14044.1212,-4058.0364L14044.1701,-4058.051L14044.1081,-4058.1489L14044.1743,-4058.1829L14044.2203,-4058.1968L14044.2335,-4058.1929L14044.356,-4058.1693L14044.4084,-4058.1581L14044.4224,-4058.1552L14044.4253,-4058.1541L14044.4489,-4058.1496L14044.4711,-4058.1467L14044.5124,-4058.1462L14044.5185,-4058.1459L14044.5249,-4058.1456L14044.5537,-4058.1445L14044.5654,-4058.1411L14044.5743,-4058.131L14044.5846,-4058.1017L14044.6009,-4058.0679L14044.6109,-4058.0558L14044.6141,-4058.0493L14044.6267,-4058.0364L14044.6385,-4058.024L14044.668,-4058.0189L14044.6968,-4058.0161L14044.7248,-4058.0178L14044.7587,-4058.0257L14044.7779,-4058.0268L14044.8111,-4058.0257L14044.8347,-4058.0218L14044.848,-4058.0201L14044.8797,-4058.0156L14044.89,-4058.0144L14044.9092,-4058.0144L14044.9219,-4058.0156"/>
<path content="1,弘南バス（株）,南高校・桜ヶ丘線　58・59,3.5,3.5,1.5," xlink:title="1" d="M14044.9219,-4057.1691L14044.8562,-4057.1783L14044.8149,-4057.1845L14044.778,-4057.189L14044.7942,-4057.2493L14044.8133,-4057.3123L14044.8221,-4057.3369L14044.8251,-4057.3456L14044.8384,-4057.3833L14044.8429,-4057.3934L14044.8709,-4057.4649L14044.8864,-4057.497"/>
<path content="1,弘南バス（株）,宮園～南高校線　80,1.0,1.0,0.0," xlink:title="1" d="M14044.9219,-4058.0156L14044.9092,-4058.0144L14044.89,-4058.0144L14044.8797,-4058.0156L14044.848,-4058.0201L14044.8347,-4058.0218L14044.8111,-4058.0257L14044.7779,-4058.0268L14044.7587,-4058.0257L14044.7248,-4058.0178L14044.6968,-4058.0161L14044.668,-4058.0189L14044.6385,-4058.024L14044.6267,-4058.0364L14044.6141,-4058.0493L14044.6109,-4058.0558"/>
<path content="1,弘南バス（株）,座頭石線　44,5.5,5.5,5.0," xlink:title="1" d="M14044.9219,-4053.7301L14044.8829,-4053.687L14044.8733,-4053.6796L14044.863,-4053.6695L14044.8549,-4053.656L14044.83,-4053.5927L14044.8274,-4053.5773L14044.8357,-4053.5603L14044.8512,-4053.531L14044.8567,-4053.5186L14044.8644,-4053.4949L14044.8644,-4053.4781L14044.8615,-4053.4651L14044.8563,-4053.4528L14044.8401,-4053.4234L14044.8062,-4053.3716L14044.7722,-4053.33L14044.7361,-4053.2917L14044.7145,-4053.2704"/>
<path content="1,弘南バス（株）,弘前～ロマントピア・相馬・藍内線　27・28・29,12.5,12.5,10.0," xlink:title="1" d="M14038.5768,-4057.2299L14038.5731,-4057.1995L14038.5738,-4057.1798L14038.5753,-4057.1708L14038.5761,-4057.1505L14038.5664,-4057.1139L14038.5657,-4057.0982L14038.5694,-4057.074L14038.5701,-4057.0616L14038.562,-4057.0436L14038.5576,-4057.0363L14038.5363,-4057.016L14038.5303,-4057.0131L14038.5045,-4057.0126L14038.4873,-4057.0218L14038.4772,-4057.0272L14038.4669,-4057.034L14038.447,-4057.0441L14038.4241,-4057.0453L14038.4108,-4057.0408L14038.3827,-4057.0287"/>
<path content="1,弘南バス（株）,弘前～ロマントピア・相馬・藍内線　27・28・29,12.5,12.5,10.0," xlink:title="1" d="M14038.5768,-4057.2299L14038.6041,-4057.2192L14038.6114,-4057.2119L14038.6388,-4057.1708L14038.6476,-4057.1534L14038.6675,-4057.1061L14038.6749,-4057.0948L14038.6874,-4057.0847L14038.7346,-4057.0571L14038.7501,-4057.0526L14038.8025,-4057.043L14038.8269,-4057.0363L14038.8667,-4057.0222L14038.8896,-4057.0205L14038.9087,-4057.0205L14038.9279,-4057.0244L14038.9552,-4057.034L14038.9633,-4057.0391L14038.964,-4057.0408L14038.9648,-4057.0492L14038.9633,-4057.0526L14038.9581,-4057.0565L14038.9537,-4057.0582L14038.9117,-4057.0565L14038.9043,-4057.0616L14038.8981,-4057.076L14038.9021,-4057.0852L14038.9137,-4057.0904L14038.9072,-4057.0954L14038.8954,-4057.101L14038.9269,-4057.1818"/>
<path content="1,弘南バス（株）,弘前～ロマントピア・相馬・藍内線　27・28・29,12.5,12.5,10.0," xlink:title="1" d="M14039.661,-4058.463L14039.6426,-4058.4562L14039.6072,-4058.4512L14039.5894,-4058.4478L14039.5216,-4058.4365L14039.4788,-4058.4298L14039.4611,-4058.4241L14039.4508,-4058.4236L14039.4272,-4058.4067L14039.3979,-4058.3799L14039.3195,-4058.3081L14039.3078,-4058.2964L14039.276,-4058.2642L14039.2679,-4058.2592L14039.2226,-4058.2631L14039.1381,-4058.2729L14039.1101,-4058.2801L14039.0761,-4058.2834L14039.0606,-4058.2856L14039.0236,-4058.2904L14038.9913,-4058.2924L14038.9588,-4058.2834L14038.9374,-4058.2755L14038.8992,-4058.2614L14038.8646,-4058.2496L14038.8231,-4058.2372L14038.7847,-4058.2259L14038.7362,-4058.2202L14038.7058,-4058.2085L14038.6822,-4058.2045L14038.6379,-4058.195L14038.5996,-4058.1859L14038.573,-4058.1798L14038.5612,-4058.1775L14038.5207,-4058.1668L14038.5,-4058.146L14038.4882,-4058.1364L14038.4764,-4058.1291L14038.4697,-4058.1229L14038.4624,-4058.1094L14038.4602,-4058.1021L14038.4557,-4058.0936L14038.4439,-4058.0609L14038.4344,-4058.0463L14038.4292,-4058.0412L14038.4063,-4058.0311L14038.3894,-4058.0221L14038.3746,-4058.0114L14038.3702,-4058.0058L14038.351,-4057.9692L14038.3408,-4057.9563L14038.3341,-4057.9393L14038.3127,-4057.9016L14038.2979,-4057.8734L14038.2898,-4057.8605L14038.2758,-4057.8357L14038.2699,-4057.8267L14038.2632,-4057.8014L14038.2618,-4057.7941L14038.2603,-4057.7918L14038.2588,-4057.7828L14038.2529,-4057.7653L14038.2455,-4057.7501L14038.2116,-4057.7057L14038.202,-4057.6978L14038.1843,-4057.686L14038.1497,-4057.6657L14038.0686,-4057.6167L14038.0434,-4057.6015L14037.9808,-4057.5666L14037.9491,-4057.5452L14037.907,-4057.5131L14037.8981,-4057.5052L14037.8635,-4057.4844L14037.8377,-4057.4675L14037.7963,-4057.4421L14037.7897,-4057.4359L14037.7885,-4057.4268L14037.7801,-4057.414L14037.7728,-4057.3695L14037.7646,-4057.3352L14037.7573,-4057.3183L14037.7543,-4057.3076L14037.7492,-4057.2862L14037.7477,-4057.2738L14037.7418,-4057.2524L14037.7374,-4057.2299L14037.7359,-4057.2231L14037.7337,-4057.1928L14037.7271,-4057.1772L14037.7241,-4057.1663L14037.7155,-4057.1536L14037.7057,-4057.137L14037.6872,-4057.1179L14037.657,-4057.0903L14037.6341,-4057.0649L14037.6112,-4057.0294L14037.5913,-4056.9974L14037.5788,-4056.9782L14037.5707,-4056.9686L14037.5493,-4056.9444L14037.5316,-4056.9354L14037.4962,-4056.9242L14037.4733,-4056.9214L14037.4283,-4056.9219L14037.4202,-4056.9231L14037.3996,-4056.9219L14037.3877,-4056.918L14037.3738,-4056.9095L14037.3641,-4056.8983L14037.3531,-4056.8859L14037.3147,-4056.8561L14037.3068,-4056.8541L14037.3007,-4056.8476L14037.2756,-4056.833L14037.2461,-4056.8239L14037.2358,-4056.8206L14037.2166,-4056.8104L14037.1982,-4056.7986L14037.1805,-4056.7817L14037.1731,-4056.7727L14037.1604,-4056.7583L14037.1518,-4056.7485L14037.1488,-4056.747L14037.1362,-4056.7406L14037.123,-4056.7305L14037.0861,-4056.6989L14037.061,-4056.6719L14037.0264,-4056.6314L14037.0057,-4056.6049L14036.9969,-4056.5909L14036.9902,-4056.5762L14036.988,-4056.5751L14036.9762,-4056.5492L14036.9681,-4056.5244L14036.96,-4056.5126L14036.9541,-4056.5064L14036.8988,-4056.4619L14036.8722,-4056.436L14036.8612,-4056.4208L14036.8429,-4056.4001L14036.8354,-4056.3938L14036.8007,-4056.3707L14036.7845,-4056.3566L14036.7749,-4056.3437L14036.7646,-4056.3262L14036.7616,-4056.3195L14036.746,-4056.2947L14036.7329,-4056.2643L14036.7292,-4056.2547L14036.7188,-4056.2288L14036.7152,-4056.2181L14036.7393,-4056.2082L14036.7373,-4056.2013L14036.7269,-4056.1579L14036.7247,-4056.1421L14036.7211,-4056.128L14036.71,-4056.0971L14036.6886,-4056.0616L14036.6834,-4056.0543L14036.6783,-4056.0419L14036.6783,-4056.0149L14036.6805,-4056.0025L14036.6798,-4055.9783L14036.6754,-4055.9642L14036.6569,-4055.9428L14036.6119,-4055.8954L14036.6068,-4055.8887L14036.5898,-4055.8628L14036.5854,-4055.8527L14036.5721,-4055.8274L14036.5647,-4055.8139L14036.5426,-4055.7756L14036.5345,-4055.7632L14036.533,-4055.7441L14036.5419,-4055.7148L14036.5433,-4055.6962L14036.5463,-4055.6579L14036.5448,-4055.6423L14036.5463,-4055.5808L14036.5374,-4055.5312L14036.533,-4055.511L14036.5319,-4055.5026L14036.5245,-4055.4528L14036.5234,-4055.4338L14036.5146,-4055.3871L14036.5124,-4055.3803L14036.508,-4055.3612L14036.5028,-4055.3471L14036.4994,-4055.3404L14036.4903,-4055.3194L14036.4949,-4055.2793L14036.4946,-4055.2725L14036.4858,-4055.2672L14036.474,-4055.2599L14036.4254,-4055.2244L14036.4018,-4055.2035L14036.3806,-4055.1806L14036.3774,-4055.1771L14036.3671,-4055.1585L14036.3563,-4055.1298L14036.3568,-4055.123L14036.3472,-4055.1022L14036.3361,-4055.0915L14036.314,-4055.0746L14036.297,-4055.0515L14036.2889,-4055.0369L14036.2897,-4055.0318L14036.2919,-4055.0155L14036.3,-4054.9958L14036.3022,-4054.9851L14036.3022,-4054.9654L14036.2985,-4054.9507L14036.2963,-4054.9361L14036.2801,-4054.8674L14036.2801,-4054.8623L14036.2749,-4054.8404L14036.2631,-4054.7931L14036.2506,-4054.7413L14036.2236,-4054.6865L14036.2226,-4054.6789L14036.2226,-4054.6655L14036.2294,-4054.63L14036.2329,-4054.6219L14036.2499,-4054.5617L14036.2629,-4054.5042L14036.2646,-4054.4964L14036.2646,-4054.4789L14036.2587,-4054.4569L14036.2587,-4054.444L14036.2609,-4054.4372L14036.2749,-4054.4057L14036.2831,-4054.3838L14036.2853,-4054.3742L14036.2875,-4054.3252L14036.2915,-4054.3097L14036.2963,-4054.2931L14036.3081,-4054.2779L14036.317,-4054.2717L14036.3339,-4054.2622L14036.348,-4054.2531L14036.3745,-4054.2312L14036.3959,-4054.2103L14036.4048,-4054.1974L14036.4306,-4054.1552L14036.4346,-4054.1496L14036.4747,-4054.1342L14036.4841,-4054.1261L14036.4962,-4054.1169L14036.5058,-4054.109L14036.525,-4054.0961L14036.57,-4054.0696L14036.5899,-4054.0594L14036.6076,-4054.0521L14036.6275,-4054.0403L14036.6563,-4054.015L14036.6674,-4054.0093L14036.6991,-4054.0054L14036.7219,-4054.0031L14036.75,-4053.9981L14036.7603,-4053.9947L14036.7795,-4053.9823L14036.7928,-4053.9682L14036.8046,-4053.9542L14036.82,-4053.9288L14036.8378,-4053.8945L14036.8481,-4053.8658L14036.8555,-4053.8303L14036.8717,-4053.792L14036.8806,-4053.7751L14036.8975,-4053.7374L14036.9182,-4053.6946L14036.93,-4053.6732L14036.9469,-4053.6496L14036.9565,-4053.6293L14036.9639,-4053.604L14036.9742,-4053.5753L14036.9801,-4053.5657L14036.9978,-4053.5466L14037.0192,-4053.5268L14037.0443,-4053.5054L14037.076,-4053.4812L14037.0871,-4053.4711L14037.0966,-4053.4649L14037.1033,-4053.4621L14037.1251,-4053.4559L14037.1269,-4053.4553L14037.152,-4053.4458L14037.1763,-4053.4407L14037.1852,-4053.4362L14037.1873,-4053.4261L14037.1771,-4053.3799L14037.1689,-4053.3501L14037.1686,-4053.3443L14037.1682,-4053.3382L14037.1726,-4053.3287L14037.1807,-4053.3146L14037.1926,-4053.3011L14037.2058,-4053.2786L14037.211,-4053.2459L14037.211,-4053.2335L14037.2103,-4053.2082L14037.2065,-4053.2028"/>
<path content="1,弘南バス（株）,弘前～ロマントピア・相馬・藍内線　27・28・29,12.5,12.5,10.0," xlink:title="1" d="M14039.661,-4058.463L14039.6544,-4058.4444L14039.6536,-4058.4382L14039.6529,-4058.4343L14039.6315,-4058.3921L14039.6108,-4058.3616L14039.6064,-4058.3515L14039.5998,-4058.3222L14039.5976,-4058.3183L14039.5865,-4058.2783L14039.5838,-4058.272L14039.5769,-4058.2553L14039.5585,-4058.2164L14039.5386,-4058.182L14039.5364,-4058.1736L14039.5371,-4058.155L14039.5401,-4058.1404L14039.5393,-4058.1308L14039.5327,-4058.1212L14039.5231,-4058.115L14039.5106,-4058.1088L14039.5024,-4058.1043L14039.4596,-4058.0824L14039.4501,-4058.0779L14039.4397,-4058.0711L14039.4375,-4058.0706L14039.425,-4058.061L14039.4132,-4058.0458L14039.4073,-4058.0345L14039.394,-4057.9979L14039.3682,-4057.9129L14039.3645,-4057.9039L14039.3572,-4057.8914L14039.352,-4057.8825L14039.3453,-4057.8696L14039.3379,-4057.8577L14039.3262,-4057.8403L14039.3121,-4057.8256L14039.2539,-4057.7851L14039.2273,-4057.7688L14039.2015,-4057.7507L14039.1949,-4057.7474L14039.1827,-4057.741L14039.1676,-4057.7282L14039.1514,-4057.7147L14039.127,-4057.6793L14039.1115,-4057.6635L14039.1101,-4057.6635L14039.0983,-4057.6533L14039.0923,-4057.6466L14039.0864,-4057.6426L14039.085,-4057.6404L14039.0407,-4057.606L14039.0311,-4057.5965L14039.0186,-4057.5869L14038.9979,-4057.5779L14038.9603,-4057.5627L14038.9441,-4057.5554L14038.9249,-4057.5464L14038.9124,-4057.5368L14038.9087,-4057.5289L14038.9013,-4057.5109L14038.8947,-4057.5019L14038.8835,-4057.4928L14038.8401,-4057.4546L14038.7981,-4057.4174L14038.7804,-4057.4056L14038.7457,-4057.3898L14038.7228,-4057.3763L14038.6815,-4057.3471L14038.635,-4057.32L14038.6269,-4057.3133L14038.6181,-4057.3003L14038.6166,-4057.2975L14038.607,-4057.2845L14038.5901,-4057.2693L14038.5812,-4057.2564L14038.5768,-4057.2299"/>
<path content="1,弘南バス（株）,弘前～ロマントピア・相馬・藍内線　27・28・29,12.5,12.5,10.0," xlink:title="1" d="M14039.661,-4058.463L14039.6758,-4058.4686L14039.6893,-4058.4824L14039.7355,-4058.5109L14039.7539,-4058.5227L14039.7709,-4058.5351L14039.7834,-4058.5452L14039.8011,-4058.5599L14039.8564,-4058.6021L14039.8894,-4058.6392L14039.9566,-4058.7057L14039.9624,-4058.7107L14039.9783,-4058.7311L14039.9855,-4058.7402L14040.009,-4058.7654L14040.0191,-4058.7745L14040.023,-4058.7782L14040.0265,-4058.7815L14040.0326,-4058.7868L14040.0866,-4058.8143L14040.1331,-4058.838L14040.17,-4058.8577L14040.1744,-4058.8594L14040.1808,-4058.8628L14040.1863,-4058.8658L14040.2342,-4058.8915L14040.2483,-4058.9036L14040.2571,-4058.9112L14040.2859,-4058.9343L14040.3037,-4058.9422L14040.3221,-4058.9495L14040.4233,-4058.9827L14040.4484,-4058.9867L14040.4639,-4058.9889L14040.4839,-4058.9895L14040.5924,-4058.9805L14040.6079,-4058.9799L14040.6737,-4058.9743L14040.7048,-4058.9745L14040.718,-4058.9703L14040.7778,-4058.9653L14040.8376,-4058.9608L14040.8834,-4058.9585L14040.9181,-4058.9563L14040.9432,-4058.9534L14040.9621,-4058.9527L14040.9868,-4058.9518L14041.0084,-4058.9472L14041.0215,-4058.9444L14041.0865,-4058.9248L14041.1072,-4058.9186L14041.1751,-4058.8938L14041.1862,-4058.8904L14041.2357,-4058.8831L14041.2586,-4058.8814L14041.2681,-4058.881L14041.2726,-4058.8808L14041.3162,-4058.8791L14041.3487,-4058.8803L14041.3856,-4058.8819L14041.4089,-4058.8827L14041.4226,-4058.8819L14041.4467,-4058.8846L14041.4575,-4058.8864L14041.4836,-4058.8908L14041.4998,-4058.8942L14041.5096,-4058.8961L14041.523,-4058.8988L14041.5644,-4058.8971L14041.5769,-4058.8943L14041.6028,-4058.8842L14041.6257,-4058.8741L14041.6699,-4058.8476L14041.6788,-4058.8448L14041.6844,-4058.8434L14041.701,-4058.8392L14041.71,-4058.8397L14041.7534,-4058.8206L14041.8029,-4058.8133L14041.8491,-4058.8058L14041.8694,-4058.8026L14041.9226,-4058.7992L14041.9676,-4058.7913L14041.9772,-4058.7885L14042.0051,-4058.7861L14042.057,-4058.771L14042.0766,-4058.7672L14042.0943,-4058.755L14042.1323,-4058.7823L14042.136,-4058.7847L14042.167,-4058.8048L14042.1921,-4058.8189L14042.2202,-4058.8364L14042.2372,-4058.8459L14042.2844,-4058.8707L14042.3036,-4058.8808L14042.3199,-4058.8899L14042.3273,-4058.8944L14042.3553,-4058.9186L14042.3793,-4058.9424L14042.3952,-4058.9563L14042.4203,-4058.9777L14042.472,-4059.016L14042.4824,-4059.0222L14042.5163,-4059.0481L14042.5215,-4059.0537L14042.5267,-4059.0587L14042.5421,-4059.0813L14042.5495,-4059.0926L14042.5739,-4059.1314L14042.6034,-4059.1804L14042.6108,-4059.1894L14042.684,-4059.2446L14042.7231,-4059.2716"/>
<path content="1,弘南バス（株）,弘前～ロマントピア・相馬・藍内線　27・28・29,12.5,12.5,10.0," xlink:title="1" d="M14042.7231,-4059.2716L14042.7364,-4059.2705L14042.7437,-4059.2688L14042.7866,-4059.2671L14042.8383,-4059.2677L14042.9055,-4059.2727L14042.9306,-4059.2727L14042.967,-4059.2687L14042.9912,-4059.266L14043.0791,-4059.2655L14043.1123,-4059.2654L14043.1389,-4059.2671L14043.1847,-4059.2711L14043.1956,-4059.2733L14043.2179,-4059.2778L14043.2278,-4059.2803L14043.2356,-4059.2823L14043.2674,-4059.293L14043.291,-4059.3009L14043.3161,-4059.3083L14043.3649,-4059.3161L14043.4084,-4059.3229L14043.4217,-4059.3251L14043.4321,-4059.3279L14043.4491,-4059.3308L14043.4587,-4059.3324L14043.4911,-4059.3401L14043.5081,-4059.3454L14043.5754,-4059.3736L14043.6056,-4059.3837L14043.6758,-4059.4011L14043.7851,-4059.4288L14043.8043,-4059.4344L14043.8324,-4059.4394L14043.8774,-4059.44L14043.9062,-4059.4372L14043.9542,-4059.431L14043.9601,-4059.4293L14043.9719,-4059.4282L14044.0281,-4059.4186L14044.0872,-4059.4017L14044.1036,-4059.3981L14044.1148,-4059.3956L14044.1256,-4059.3933L14044.1403,-4059.3916L14044.1795,-4059.3888L14044.2366,-4059.3859L14044.2733,-4059.3876L14044.2852,-4059.3874L14044.401,-4059.386L14044.4276,-4059.3843L14044.4469,-4059.3771L14044.4985,-4059.373L14044.5074,-4059.3713L14044.5354,-4059.3696L14044.5443,-4059.3685L14044.5625,-4059.3699L14044.5946,-4059.3686L14044.6285,-4059.3708L14044.6508,-4059.3767L14044.692,-4059.3877L14044.7156,-4059.3961L14044.7769,-4059.413L14044.8139,-4059.4226L14044.8442,-4059.431L14044.8574,-4059.4338L14044.8833,-4059.4395L14044.9091,-4059.444L14044.9219,-4059.446"/>
<path content="1,弘南バス（株）,弘前～ロマントピア・相馬・藍内線　27・28・29,12.5,12.5,10.0," xlink:title="1" d="M14042.6516,-4059.2983L14042.6847,-4059.2846L14042.7069,-4059.2761L14042.7231,-4059.2716"/>
<path content="1,弘南バス（株）,弘前～大秋・川原平線　21・22・23,15.0,15.0,12.0," xlink:title="1" d="M14029.918,-4057.5757L14029.8918,-4057.5585L14029.8697,-4057.5422L14029.8527,-4057.5247L14029.838,-4057.5044L14029.824,-4057.4825L14029.8178,-4057.474L14029.8129,-4057.4673L14029.8048,-4057.4605L14029.7944,-4057.4566L14029.7797,-4057.4527L14029.7716,-4057.4521L14029.7567,-4057.4532L14029.7278,-4057.4542L14029.7127,-4057.4532L14029.6786,-4057.4498L14029.6418,-4057.4431L14029.6005,-4057.4324L14029.5872,-4057.4284L14029.5733,-4057.4251L14029.5636,-4057.4116L14029.5319,-4057.3614L14029.5238,-4057.3474L14029.5186,-4057.3378L14029.513,-4057.3312L14029.5068,-4057.3175L14029.4869,-4057.2871L14029.4825,-4057.2798L14029.4832,-4057.2663L14029.4876,-4057.2494L14029.4994,-4057.2049L14029.5039,-4057.1936L14029.5193,-4057.1362L14029.526,-4057.1165L14029.5348,-4057.0929L14029.5489,-4057.0506L14029.5577,-4057.0225L14029.5607,-4057.0101L14029.5607,-4056.9904L14029.4973,-4056.9453L14029.4751,-4056.8643L14029.4692,-4056.8367L14029.4508,-4056.7793L14029.4473,-4056.7678L14029.4414,-4056.752L14029.4063,-4056.6898L14029.3806,-4056.6504L14029.358,-4056.6273L14029.3361,-4056.6143L14029.3284,-4056.6047L14029.3158,-4056.5991L14029.273,-4056.5861L14029.2406,-4056.5709L14029.1823,-4056.5366L14029.1462,-4056.5112L14029.1366,-4056.5011L14029.1196,-4056.5056L14029.1056,-4056.5112L14029.0798,-4056.5169L14029.0348,-4056.5326L14028.9566,-4056.5607L14028.933,-4056.5669L14028.8991,-4056.5698L14028.8342,-4056.5692L14028.8201,-4056.5692L14028.7966,-4056.5675L14028.7837,-4056.5682L14028.7663,-4056.5646L14028.7494,-4056.563L14028.7221,-4056.5602L14028.6734,-4056.5456L14028.6387,-4056.5309L14028.6085,-4056.5174L14028.5679,-4056.4961L14028.5303,-4056.4707L14028.5074,-4056.4543L14028.4898,-4056.4476L14028.4543,-4056.4459L14028.4042,-4056.4464L14028.3882,-4056.4388L14028.3806,-4056.4318L14028.3651,-4056.4149L14028.3584,-4056.402L14028.3562,-4056.3935L14028.3562,-4056.3789L14028.3592,-4056.371L14028.3658,-4056.331L14028.371,-4056.317L14028.3865,-4056.2911L14028.3931,-4056.268L14028.399,-4056.2274L14028.4042,-4056.1925L14028.4093,-4056.1644L14028.4076,-4056.1538L14028.364,-4056.1098L14028.3614,-4056.1019L14028.3614,-4056.0878L14028.374,-4056.045L14028.3762,-4056.0315L14028.3762,-4056.0203L14028.3708,-4056.0041L14028.3666,-4055.9381L14028.3577,-4055.9043L14028.3496,-4055.8868L14028.3349,-4055.8654L14028.3192,-4055.8527L14028.2847,-4055.8316L14028.2559,-4055.8164L14028.2117,-4055.7922L14028.2058,-4055.7843L14028.2014,-4055.7764L14028.1999,-4055.7567L14028.2043,-4055.7398L14028.2316,-4055.6796L14028.2361,-4055.665L14028.2361,-4055.6458L14028.2301,-4055.6205L14028.222,-4055.5951L14028.2124,-4055.5704L14028.2058,-4055.5563L14028.1815,-4055.5158L14028.1742,-4055.5034L14028.1681,-4055.495L14028.1409,-4055.4386L14028.1394,-4055.4324L14028.1299,-4055.4156L14028.1173,-4055.3981L14028.0391,-4055.3198L14027.9699,-4055.2591L14027.9632,-4055.2472L14027.9093,-4055.1988L14027.8747,-4055.1695L14027.8466,-4055.1481L14027.7987,-4055.1121L14027.7191,-4055.0559L14027.5678,-4054.9414L14027.5591,-4054.9349L14027.396,-4054.8136L14027.3864,-4054.8041L14027.379,-4054.799L14027.3702,-4054.7917L14027.3606,-4054.7861L14027.3438,-4054.7736"/>
<path content="1,弘南バス（株）,弘前～大秋・川原平線　21・22・23,15.0,15.0,12.0," xlink:title="1" d="M14029.918,-4057.5757L14029.9052,-4057.5916L14029.8497,-4057.6233L14029.8394,-4057.6289L14029.8215,-4057.636L14029.7974,-4057.6525L14029.7701,-4057.6723L14029.7568,-4057.6841L14029.7502,-4057.6886L14029.7107,-4057.7111L14029.6875,-4057.7206L14029.6417,-4057.7425L14029.6123,-4057.7578L14029.5901,-4057.7696L14029.5724,-4057.7792L14029.4898,-4057.8181L14029.4775,-4057.8259L14029.4574,-4057.8316L14029.4301,-4057.8327L14029.3025,-4057.8327L14029.2892,-4057.8417L14029.2744,-4057.8552L14029.2663,-4057.8653L14029.2619,-4057.8738L14029.2486,-4057.9115L14029.2464,-4057.9239L14029.2427,-4057.934L14029.2361,-4057.9385L14029.225,-4057.9402L14029.2007,-4057.9425L14029.1741,-4057.9481L14029.152,-4057.956L14029.1404,-4057.9611L14029.1249,-4057.9691L14029.0977,-4057.9894L14029.0717,-4058.0083L14029.0501,-4058.0201L14029.0278,-4058.0286L14029.0055,-4058.0373L14028.989,-4058.0433L14028.9706,-4058.0573L14028.9551,-4058.0753L14028.9492,-4058.086L14028.9492,-4058.0967L14028.9542,-4058.1026L14028.9602,-4058.1046L14028.9823,-4058.1052L14028.989,-4058.1035L14029.0045,-4058.1035L14029.0111,-4058.1119L14029.0133,-4058.1184L14029.0067,-4058.1254L14028.9853,-4058.1356L14028.9801,-4058.139L14028.9735,-4058.148L14028.972,-4058.1485L14028.9727,-4058.1564L14028.9779,-4058.1694L14028.9794,-4058.1992L14028.9846,-4058.2065L14028.9993,-4058.2178L14029.0067,-4058.2257L14029.0096,-4058.2369L14029.0059,-4058.2499L14028.9986,-4058.2634L14028.9816,-4058.2808L14028.9757,-4058.2893L14028.9779,-4058.3433L14028.9794,-4058.3524L14028.9757,-4058.367L14028.9691,-4058.3782L14028.9418,-4058.4188L14028.9211,-4058.4441L14028.9138,-4058.4509L14028.9042,-4058.4565L14028.8983,-4058.4576L14028.882,-4058.4582L14028.8688,-4058.456L14028.8569,-4058.443L14028.8549,-4058.4276L14028.8533,-4058.4058L14028.8519,-4058.4003L14028.8472,-4058.3951L14028.8419,-4058.3925L14028.8354,-4058.3896L14028.8157,-4058.3892L14028.8042,-4058.3875L14028.7891,-4058.3833L14028.7779,-4058.3774L14028.7606,-4058.3726L14028.7371,-4058.371L14028.7207,-4058.3703L14028.6932,-4058.3665L14028.6808,-4058.3609L14028.6712,-4058.3474L14028.6652,-4058.3253L14028.6593,-4058.3101L14028.6504,-4058.3045L14028.6298,-4058.3056L14028.6077,-4058.3141L14028.5494,-4058.3405L14028.5317,-4058.3462L14028.4424,-4058.3681L14028.4137,-4058.3754L14028.376,-4058.3856L14028.3318,-4058.3962L14028.2897,-4058.4058L14028.1422,-4058.4402L14028.0921,-4058.452"/>
<path content="1,弘南バス（株）,弘前～大秋・川原平線　21・22・23,15.0,15.0,12.0," xlink:title="1" d="M14027.3438,-4058.075L14027.3582,-4058.0793L14027.4091,-4058.0883L14027.4209,-4058.0899L14027.4533,-4058.0894L14027.4725,-4058.0916L14027.5094,-4058.1057L14027.5272,-4058.1126L14027.5529,-4058.1226L14027.5684,-4058.126L14027.6326,-4058.1328L14027.6658,-4058.1378L14027.682,-4058.1389L14027.7093,-4058.1378L14027.7461,-4058.1266L14027.769,-4058.1288L14027.7867,-4058.135L14027.7904,-4058.1446L14027.7978,-4058.1569L14027.8046,-4058.1807L14027.8162,-4058.1986L14027.828,-4058.2183L14027.8435,-4058.2403L14027.8922,-4058.296L14027.9025,-4058.305L14027.9158,-4058.314L14027.946,-4058.3321L14027.9932,-4058.3675L14028.0095,-4058.3754L14028.0331,-4058.3844L14028.0397,-4058.3878L14028.0456,-4058.3895L14028.0552,-4058.3957L14028.0677,-4058.4092L14028.0921,-4058.452"/>
<path content="1,弘南バス（株）,弘前～大秋・川原平線　21・22・23,15.0,15.0,12.0," xlink:title="1" d="M14028.0921,-4058.452L14028.1032,-4058.4744L14028.1363,-4058.5167L14028.1599,-4058.5618L14028.1651,-4058.5747L14028.1741,-4058.6018L14028.1812,-4058.6338L14028.1798,-4058.6755L14028.1768,-4058.6997L14028.1768,-4058.7026L14028.1812,-4058.7116L14028.2093,-4058.747L14028.2499,-4058.8033L14028.3031,-4058.8839L14028.326,-4058.9244L14028.3393,-4058.9537L14028.3555,-4059.0015L14028.3733,-4059.0398L14028.3775,-4059.0529"/>
<path content="1,弘南バス（株）,弘前～大秋・川原平線　21・22・23,15.0,15.0,12.0," xlink:title="1" d="M14035.6546,-4059.5807L14035.6295,-4059.6165L14035.6236,-4059.6334"/>
<path content="1,弘南バス（株）,弘前～大秋・川原平線　21・22・23,15.0,15.0,12.0," xlink:title="1" d="M14035.6236,-4059.6334L14035.597,-4059.6272L14035.5483,-4059.6137L14035.5129,-4059.6013L14035.5062,-4059.5996L14035.4575,-4059.5828L14035.3519,-4059.5478L14035.3267,-4059.5388L14035.2448,-4059.5124L14035.1934,-4059.4958L14035.1658,-4059.4853L14035.1481,-4059.4791L14035.0978,-4059.4623L14035.022,-4059.4368L14034.9945,-4059.4279L14034.9169,-4059.3981L14034.8859,-4059.3891L14034.8807,-4059.3874L14034.8128,-4059.3733L14034.7456,-4059.3603L14034.7198,-4059.3541L14034.6666,-4059.344L14034.6511,-4059.339L14034.6245,-4059.3333L14034.6015,-4059.3294L14034.5706,-4059.3243L14034.5175,-4059.3204L14034.4864,-4059.317L14034.4756,-4059.3142L14034.4706,-4059.313L14034.4231,-4059.2979L14034.3877,-4059.2841L14034.3542,-4059.2708L14034.3247,-4059.2578L14034.3075,-4059.2492L14034.2669,-4059.2305L14034.2336,-4059.2128L14034.1821,-4059.1897L14034.1629,-4059.1801L14034.1349,-4059.1694L14034.1231,-4059.1661L14034.1061,-4059.1633L14034.0766,-4059.148L14034.0551,-4059.1346L14034.0293,-4059.1216L14034.0117,-4059.1125L14033.9864,-4059.1008L14033.9813,-4059.0979L14033.9702,-4059.0934L14033.9355,-4059.0771L14033.8747,-4059.0606L14033.8284,-4059.0394L14033.7861,-4059.0253L14033.7191,-4059.0124L14033.6807,-4059.0039L14033.6505,-4058.9972L14033.6128,-4058.9917L14033.601,-4058.9904L14033.5899,-4058.9887L14033.5537,-4058.9848L14033.5146,-4058.9808L14033.443,-4058.9718L14033.33,-4058.9588L14033.2724,-4058.9583L14033.2469,-4058.9623L14033.2184,-4058.9673L14033.1948,-4058.969L14033.1631,-4058.9673L14033.0988,-4058.9622L14033.0905,-4058.9616L14033.0767,-4058.96L14033.0641,-4058.9569L14033.0501,-4058.9504L14033.039,-4058.9442L14033.0242,-4058.9346L14033.0109,-4058.9228L14032.9855,-4058.908L14032.9209,-4058.8665L14032.9113,-4058.8592L14032.8891,-4058.8451L14032.8684,-4058.8282L14032.85,-4058.8057L14032.8418,-4058.7922L14032.8367,-4058.7776L14032.8293,-4058.764L14032.8154,-4058.7481L14032.7998,-4058.7353L14032.734,-4058.6874L14032.7157,-4058.6772L14032.7023,-4058.6683L14032.6853,-4058.6587L14032.6262,-4058.6233L14032.5993,-4058.6019L14032.5654,-4058.5821L14032.5388,-4058.5693L14032.5146,-4058.5574L14032.4467,-4058.5219L14032.4017,-4058.4954L14032.3973,-4058.4943L14032.3811,-4058.4876L14032.3759,-4058.4859L14032.37,-4058.4853L14032.3545,-4058.4814L14032.3346,-4058.4791L14032.3066,-4058.4825L14032.3029,-4058.4836L14032.2557,-4058.4909L14032.2195,-4058.4971L14032.1591,-4058.5039L14032.1052,-4058.5078L14032.0975,-4058.5111L14032.089,-4058.5101L14032.0506,-4058.5129L14032.0056,-4058.518L14031.9924,-4058.5185L14031.9887,-4058.5196L14031.9621,-4058.5208L14031.8456,-4058.5202L14031.8308,-4058.5236L14031.8043,-4058.5326L14031.7652,-4058.5478L14031.7423,-4058.5574L14031.7121,-4058.572L14031.6789,-4058.5849L14031.6701,-4058.5866L14031.5916,-4058.5925L14031.5823,-4058.5866L14031.5646,-4058.5861L14031.5454,-4058.5844L14031.5233,-4058.5816L14031.4414,-4058.5675L14031.4089,-4058.5619L14031.3609,-4058.555L14031.3116,-4058.5292L14031.2688,-4058.5174L14031.2223,-4058.5056L14031.2083,-4058.5005L14031.1989,-4058.4942L14031.1811,-4058.4824L14031.1567,-4058.465L14031.1434,-4058.4538L14031.122,-4058.4414L14031.094,-4058.4313L14031.0461,-4058.4217L14031.0268,-4058.4133L14031.0254,-4058.4127L14031.0158,-4058.4082L14031.004,-4058.4008L14030.9967,-4058.3955L14030.962,-4058.3721L14030.9554,-4058.3671L14030.9273,-4058.3473L14030.8867,-4058.3119L14030.8757,-4058.3L14030.872,-4058.2955L14030.8469,-4058.2724L14030.7983,-4058.2477L14030.7894,-4058.242L14030.7813,-4058.2353L14030.7697,-4058.2244L14030.7474,-4058.1919L14030.7289,-4058.1626L14030.7216,-4058.1536L14030.709,-4058.1339L14030.7053,-4058.1306L14030.6898,-4058.1238L14030.6411,-4058.0969L14030.6226,-4058.0785L14030.619,-4058.0748L14030.5888,-4058.0377L14030.5556,-4057.996L14030.5372,-4057.9785L14030.5187,-4057.9639L14030.4811,-4057.9273L14030.456,-4057.9036L14030.416,-4057.8682L14030.386,-4057.8417L14030.3756,-4057.8316L14030.369,-4057.8265L14030.3122,-4057.7781L14030.2908,-4057.7606L14030.2658,-4057.737L14030.2399,-4057.7128L14030.2178,-4057.6976L14030.206,-4057.6931L14030.1691,-4057.6818L14030.1433,-4057.6756L14030.0875,-4057.6643L14030.0415,-4057.6446L14030.0128,-4057.6306L14029.9427,-4057.5861L14029.918,-4057.5757"/>
<path content="1,弘南バス（株）,弘前～大秋・川原平線　21・22・23,15.0,15.0,12.0," xlink:title="1" d="M14035.6236,-4059.6334L14035.6583,-4059.6419L14035.727,-4059.6565L14035.7625,-4059.6638L14035.7773,-4059.6667L14035.7787,-4059.6678L14035.8429,-4059.683L14035.8836,-4059.6926L14035.9264,-4059.7004L14035.9345,-4059.7016L14035.9537,-4059.7061L14035.9914,-4059.7123L14036.0062,-4059.7134L14036.0306,-4059.7123L14036.0394,-4059.7083L14036.063,-4059.6948L14036.1132,-4059.6548L14036.1391,-4059.6391L14036.1694,-4059.625L14036.2026,-4059.6143L14036.2159,-4059.612L14036.2528,-4059.603L14036.3119,-4059.5845L14036.3208,-4059.5822L14036.34,-4059.5755L14036.3593,-4059.5701L14036.4138,-4059.5507L14036.4618,-4059.5304L14036.4862,-4059.5214L14036.4921,-4059.5203L14036.4972,-4059.5186L14036.5054,-4059.5175L14036.5608,-4059.5175L14036.6169,-4059.5242L14036.6553,-4059.5248L14036.673,-4059.5237L14036.7432,-4059.5146L14036.7808,-4059.5101L14036.8311,-4059.5051L14036.8828,-4059.5L14036.9005,-4059.4995L14036.9219,-4059.4972L14036.9639,-4059.4902L14036.9773,-4059.4865L14037.0275,-4059.4589L14037.0526,-4059.4426L14037.0652,-4059.4325L14037.0836,-4059.4178L14037.1007,-4059.4006L14037.1516,-4059.3232L14037.1678,-4059.2996L14037.1781,-4059.2742L14037.2099,-4059.2067L14037.2424,-4059.1453L14037.2934,-4059.0614L14037.3,-4059.0507L14037.3089,-4059.0423L14037.3178,-4059.0361L14037.3281,-4059.031L14037.3401,-4059.0266L14037.3554,-4059.0246L14037.374,-4059.0235L14037.4091,-4059.0242L14037.4526,-4059.0273L14037.4918,-4059.0327L14037.5221,-4059.0387L14037.5324,-4059.0421L14037.546,-4059.0462L14037.6117,-4059.0721L14037.673,-4059.0947L14037.7018,-4059.1031L14037.7188,-4059.1065L14037.7528,-4059.1121L14037.8,-4059.1132L14037.8502,-4059.1121L14037.8923,-4059.1127L14037.9337,-4059.1138L14037.9566,-4059.1138L14037.9669,-4059.1138L14038.0075,-4059.1116L14038.0674,-4059.1132L14038.1324,-4059.1116L14038.1861,-4059.1111L14038.2447,-4059.1107L14038.2801,-4059.1087L14038.3068,-4059.1049L14038.4041,-4059.0559L14038.475,-4058.9961L14038.4964,-4058.9821L14038.5171,-4058.9809L14038.5245,-4058.9838L14038.5319,-4058.9854L14038.6272,-4059.0142L14038.6899,-4059.035L14038.7184,-4059.0325L14038.7535,-4059.0204L14038.8177,-4059.0063L14038.8369,-4058.9996L14038.8569,-4058.9939L14038.8687,-4058.9889L14038.9041,-4058.9703L14038.927,-4058.9601L14038.9706,-4058.9433L14038.9906,-4058.9455L14039.0157,-4058.9551L14039.0371,-4058.9658L14039.0533,-4058.9776L14039.0821,-4058.9962L14039.1493,-4059.0311L14039.1641,-4059.0367L14039.2128,-4059.0463L14039.2357,-4059.0485L14039.2468,-4059.0508L14039.297,-4059.0677L14039.3295,-4059.0778L14039.3642,-4059.0851L14039.3753,-4059.0896L14039.3953,-4059.0987L14039.4292,-4059.1206L14039.4654,-4059.1482L14039.4861,-4059.1595L14039.5134,-4059.1679L14039.5688,-4059.182L14039.5777,-4059.1831L14039.6611,-4059.2039L14039.7032,-4059.2147L14039.7899,-4059.2363L14039.8893,-4059.2597L14039.9108,-4059.2648L14039.9728,-4059.2805L14040.1035,-4059.3143L14040.1101,-4059.3154L14040.2069,-4059.3385L14040.2482,-4059.3492L14040.2838,-4059.3573L14040.2896,-4059.3588L14040.3494,-4059.3616L14040.3576,-4059.3639L14040.3856,-4059.3768L14040.4011,-4059.3858L14040.4137,-4059.3881L14040.427,-4059.3891L14040.4454,-4059.3886L14040.4964,-4059.3909L14040.537,-4059.3954L14040.5555,-4059.3977L14040.5821,-4059.3999L14040.5998,-4059.4006L14040.6574,-4059.4027L14040.78,-4059.4095L14040.8154,-4059.4106L14040.8635,-4059.414L14040.8959,-4059.4139L14040.9454,-4059.4151L14041.0355,-4059.4095L14041.0887,-4059.4044L14041.1308,-4059.3999L14041.1833,-4059.3938L14041.1899,-4059.3926L14041.238,-4059.3919L14041.2556,-4059.3876L14041.263,-4059.3864L14041.3191,-4059.3836L14041.3405,-4059.3836L14041.3501,-4059.3464L14041.3509,-4059.3432L14041.3518,-4059.3388L14041.3624,-4059.2915L14041.3694,-4059.2564L14041.3827,-4059.2074L14041.3935,-4059.1677L14041.3975,-4059.1612L14041.3984,-4059.161L14041.427,-4059.1539L14041.4447,-4059.155L14041.4705,-4059.1601L14041.5076,-4059.162L14041.5237,-4059.168L14041.5518,-4059.1714L14041.5968,-4059.1736L14041.6064,-4059.1747L14041.6773,-4059.1787L14041.701,-4059.1815L14041.7246,-4059.1826L14041.7505,-4059.1871L14041.8597,-4059.2051L14041.8886,-4059.2102L14041.9151,-4059.2141L14041.9351,-4059.2175L14041.9447,-4059.2186L14041.9875,-4059.2294L14042.0592,-4059.2603L14042.1684,-4059.311L14042.2209,-4059.3363L14042.2379,-4059.3454L14042.2549,-4059.3532L14042.3081,-4059.3803L14042.3287,-4059.3853L14042.3516,-4059.3881L14042.3893,-4059.3915L14042.4077,-4059.3926L14042.4358,-4059.396L14042.4448,-4059.396L14042.4498,-4059.396L14042.4661,-4059.3977L14042.5037,-4059.3707L14042.5229,-4059.3555L14042.5739,-4059.3313L14042.6131,-4059.3127L14042.6516,-4059.2983L14042.6847,-4059.2846L14042.7069,-4059.2761L14042.7231,-4059.2716L14042.7364,-4059.2705L14042.7437,-4059.2688L14042.7866,-4059.2671L14042.8383,-4059.2677L14042.9055,-4059.2727L14042.9306,-4059.2727L14042.967,-4059.2687L14042.9912,-4059.266L14043.0791,-4059.2655L14043.1123,-4059.2654L14043.1389,-4059.2671L14043.1847,-4059.2711L14043.1956,-4059.2733L14043.2179,-4059.2778L14043.2278,-4059.2803L14043.2356,-4059.2823L14043.2674,-4059.293L14043.291,-4059.3009L14043.3161,-4059.3083L14043.3649,-4059.3161L14043.4084,-4059.3229L14043.4217,-4059.3251L14043.4321,-4059.3279L14043.4491,-4059.3308L14043.4587,-4059.3324L14043.4911,-4059.3401L14043.5081,-4059.3454L14043.5754,-4059.3736L14043.6056,-4059.3837L14043.6758,-4059.4011L14043.7851,-4059.4288L14043.8043,-4059.4344L14043.8324,-4059.4394L14043.8774,-4059.44L14043.9062,-4059.4372L14043.9542,-4059.431L14043.9601,-4059.4293L14043.9719,-4059.4282L14044.0281,-4059.4186L14044.0872,-4059.4017L14044.1036,-4059.3981L14044.1148,-4059.3956L14044.1256,-4059.3933L14044.1403,-4059.3916L14044.1795,-4059.3888L14044.2366,-4059.3859L14044.2733,-4059.3876L14044.2852,-4059.3874L14044.401,-4059.386L14044.4276,-4059.3843L14044.4469,-4059.3771L14044.4985,-4059.373L14044.5074,-4059.3713L14044.5354,-4059.3696L14044.5443,-4059.3685L14044.5625,-4059.3699L14044.5946,-4059.3686L14044.6285,-4059.3708L14044.6508,-4059.3767L14044.692,-4059.3877L14044.7156,-4059.3961L14044.7769,-4059.413L14044.8139,-4059.4226L14044.8442,-4059.431L14044.8574,-4059.4338L14044.8833,-4059.4395L14044.9091,-4059.444L14044.9219,-4059.446"/>
<path content="1,弘南バス（株）,弘前～賀田線　30,2.0,2.0,2.0," xlink:title="1" d="M14044.1684,-4060.5469L14044.1631,-4060.5329L14044.1499,-4060.5019L14044.1351,-4060.4754L14044.1255,-4060.4597L14044.1174,-4060.4496L14044.1122,-4060.4411L14044.0649,-4060.3798L14044.0288,-4060.3358L14044.0154,-4060.3223L14043.9896,-4060.3043L14043.9202,-4060.2564L14043.8722,-4060.226L14043.8641,-4060.2209L14043.8234,-4060.1962L14043.7998,-4060.1866L14043.754,-4060.1736L14043.7304,-4060.1646L14043.6994,-4060.1461L14043.6698,-4060.1319L14043.6551,-4060.1263L14043.6285,-4060.119L14043.6056,-4060.1111L14043.5628,-4060.0976L14043.5214,-4060.0875L14043.4431,-4060.0734L14043.4188,-4060.07L14043.387,-4060.0644L14043.3541,-4060.0604L14043.3264,-4060.0571L14043.2599,-4060.0548L14043.2304,-4060.0559L14043.2046,-4060.0559L14043.1876,-4060.052L14043.099,-4060.0385L14043.0746,-4060.0346L14043.0547,-4060.0305L14043.014,-4060.0222L14043.0044,-4060.0211L14042.9835,-4060.0166L14042.952,-4060.007L14042.9058,-4059.9902L14042.8789,-4059.9805L14042.8043,-4059.958L14042.7578,-4059.9405L14042.7253,-4059.9248L14042.6566,-4059.8865L14042.6278,-4059.8696L14042.5488,-4059.8262L14042.511,-4059.8017L14042.4786,-4059.7699L14042.4683,-4059.7603L14042.4351,-4059.7294L14042.4144,-4059.7091L14042.3952,-4059.6916L14042.3782,-4059.6747L14042.3701,-4059.6669L14042.3368,-4059.6387L14042.3065,-4059.619L14042.2519,-4059.5886L14042.2451,-4059.587L14042.2135,-4059.5678L14042.2076,-4059.5627L14042.1633,-4059.5193L14042.0997,-4059.4608L14042.0894,-4059.4535L14042.0614,-4059.4405L14042.0252,-4059.4293L14041.998,-4059.421L14041.9469,-4059.4124L14041.9144,-4059.4062L14041.8797,-4059.3988L14041.8413,-4059.3836L14041.8169,-4059.3774L14041.7814,-4059.3758L14041.7593,-4059.3735L14041.7504,-4059.3696L14041.7127,-4059.3476L14041.7039,-4059.3437L14041.6803,-4059.338L14041.6567,-4059.3352L14041.636,-4059.3318L14041.5791,-4059.3245L14041.5488,-4059.3245L14041.5089,-4059.3335L14041.4837,-4059.3453L14041.4624,-4059.3481L14041.441,-4059.3521L14041.4004,-4059.3521L14041.39,-4059.3485L14041.3587,-4059.3436L14041.3518,-4059.3388L14041.3509,-4059.3432L14041.3501,-4059.3464L14041.3405,-4059.3836L14041.3191,-4059.3836L14041.263,-4059.3864L14041.2556,-4059.3876L14041.238,-4059.3919L14041.1899,-4059.3926L14041.1833,-4059.3938L14041.1308,-4059.3999L14041.0887,-4059.4044L14041.0355,-4059.4095L14040.9454,-4059.4151L14040.8959,-4059.4139L14040.8635,-4059.414L14040.8664,-4059.4286L14040.8694,-4059.441L14040.8768,-4059.4658L14040.8834,-4059.481L14040.8893,-4059.4906L14040.9048,-4059.5046L14040.9329,-4059.5238L14040.9742,-4059.5452L14040.9846,-4059.5519L14040.9986,-4059.5655L14041.006,-4059.5773L14041.0233,-4059.6115L14041.0473,-4059.6589L14041.0578,-4059.6741L14041.0747,-4059.6989L14041.1293,-4059.7744L14041.1456,-4059.7974L14041.1684,-4059.8391L14041.1795,-4059.8661L14041.1891,-4059.8982L14041.1936,-4059.9202L14041.2002,-4059.9472L14041.2061,-4059.9562L14041.2091,-4059.9602L14041.2881,-4060.0238L14041.3036,-4060.0401L14041.3235,-4060.0643L14041.3302,-4060.0722L14041.3368,-4060.0801L14041.3538,-4060.1082L14041.373,-4060.142L14041.387,-4060.167L14041.4107,-4060.2107L14041.4144,-4060.2164L14041.4225,-4060.2372L14041.4232,-4060.2406L14041.3878,-4060.2496L14041.3442,-4060.2642L14041.3168,-4060.2758L14041.2943,-4060.289L14041.2836,-4060.2946L14041.2519,-4060.3149L14041.2319,-4060.3261L14041.226,-4060.3306L14041.2179,-4060.3357L14041.2076,-4060.3402L14041.1492,-4060.3532L14041.0766,-4060.3676L14041.0554,-4060.3718L14041.042,-4060.3744L14041.051,-4060.3999L14041.0561,-4060.4191L14041.0731,-4060.4748L14041.0739,-4060.4804L14041.0839,-4060.5138L14041.0908,-4060.5469M14041.2821,-4060.5469L14041.3102,-4060.53L14041.3266,-4060.5221L14041.387,-4060.4849L14041.4276,-4060.459L14041.4601,-4060.4388L14041.4675,-4060.4326L14041.4734,-4060.4241L14041.4838,-4060.4072L14041.4882,-4060.392L14041.4912,-4060.3689L14041.4912,-4060.3487L14041.5237,-4060.3633L14041.5525,-4060.3723L14041.5586,-4060.3748L14041.5783,-4060.3746L14041.5997,-4060.3718L14041.6248,-4060.3718L14041.6381,-4060.3746L14041.6869,-4060.3932L14041.7231,-4060.4106L14041.7607,-4060.4343L14041.7792,-4060.4472L14041.8028,-4060.4669L14041.8169,-4060.4827L14041.8331,-4060.5086L14041.8434,-4060.5384L14041.846,-4060.5469"/>
<path content="1,弘南バス（株）,金属団地・桜ヶ丘線　56,31.0,31.0,28.0," xlink:title="1" d="M14044.5349,-4057.7043L14044.4932,-4057.6777L14044.4084,-4057.6282L14044.3442,-4057.6603L14044.2254,-4057.7216L14044.1738,-4057.7515L14044.1365,-4057.7721L14044.1045,-4057.7976L14044.0809,-4057.8168L14044.0609,-4057.8393L14044.0454,-4057.8629L14044.0304,-4057.8963L14044.0248,-4057.9187L14044.0218,-4057.9395L14044.0159,-4057.9756L14044.0145,-4057.9879L14044.1212,-4058.0364L14044.1701,-4058.051L14044.1081,-4058.1489L14044.1743,-4058.1829L14044.2203,-4058.1968L14044.2335,-4058.1929L14044.356,-4058.1693L14044.4084,-4058.1581L14044.4224,-4058.1552L14044.4253,-4058.1541L14044.4489,-4058.1496L14044.4711,-4058.1467L14044.5124,-4058.1462L14044.5185,-4058.1459L14044.5249,-4058.1456L14044.5537,-4058.1445L14044.5654,-4058.1411L14044.5743,-4058.131L14044.5846,-4058.1017L14044.6009,-4058.0679L14044.6109,-4058.0558L14044.6141,-4058.0493L14044.6267,-4058.0364L14044.6385,-4058.024L14044.668,-4058.0189L14044.6968,-4058.0161L14044.7248,-4058.0178L14044.7587,-4058.0257L14044.7779,-4058.0268L14044.8111,-4058.0257L14044.8347,-4058.0218L14044.848,-4058.0201L14044.8797,-4058.0156L14044.89,-4058.0144L14044.9092,-4058.0144L14044.9219,-4058.0156"/>
<path content="1,弘南バス（株）,金属団地・桜ヶ丘線　56,31.0,31.0,28.0," xlink:title="1" d="M14044.9219,-4057.7567L14044.9099,-4057.7385L14044.8893,-4057.7132L14044.8834,-4057.7059L14044.8738,-4057.6912L14044.8664,-4057.6777L14044.8554,-4057.6597L14044.8274,-4057.6107L14044.8111,-4057.5826L14044.8006,-4057.5669L14044.7872,-4057.5266L14044.834,-4057.5116L14044.8864,-4057.497L14044.9041,-4057.4919L14044.9219,-4057.4908"/>
<path content="1,弘南バス（株）,駒越線　1・2,27.0,27.0,25.5," xlink:title="1" d="M14044.9219,-4060.3692L14044.9216,-4060.3685L14044.8966,-4060.2886L14044.8854,-4060.2648L14044.8655,-4060.1714L14044.8803,-4060.1714L14044.9219,-4060.1732"/>
<path content="1,弘南バス（株）,駒越～小栗山線　6,2.5,2.5,1.0," xlink:title="1" d="M14044.9219,-4060.3692L14044.9216,-4060.3685L14044.8966,-4060.2886L14044.8854,-4060.2648L14044.8655,-4060.1714L14044.8803,-4060.1714L14044.9219,-4060.1732"/>
<path content="1,第一観光バス（株）,白神山地横断線（秋田～青森）,0.5,0.5,0.5," xlink:title="1" d="M14032.5106,-4042.9688L14032.5122,-4042.9732L14032.5115,-4042.9974L14032.5064,-4043.0329L14032.5064,-4043.052L14032.5101,-4043.0599L14032.5218,-4043.0689L14032.527,-4043.0751L14032.5366,-4043.0999L14032.5388,-4043.1123L14032.5388,-4043.1224L14032.5307,-4043.1365L14032.5277,-4043.1398L14032.5241,-4043.1472L14032.5093,-4043.1686L14032.5005,-4043.1854L14032.4975,-4043.1973L14032.4975,-4043.2074L14032.5049,-4043.2305L14032.513,-4043.2592L14032.5115,-4043.3324L14032.513,-4043.3476L14032.5189,-4043.3712L14032.5314,-4043.4039L14032.5491,-4043.4439L14032.5594,-4043.4692L14032.5763,-4043.5064L14032.6036,-4043.5424L14032.6043,-4043.5582L14032.5999,-4043.5649L14032.5859,-4043.5717L14032.5792,-4043.5732L14032.5719,-4043.5722L14032.5642,-4043.5696L14032.5203,-4043.5497L14032.5203,-4043.5677L14032.5181,-4043.5841L14032.513,-4043.6077L14032.5158,-4043.6269L14032.5332,-4043.6505L14032.5467,-4043.6748L14032.5496,-4043.6881L14032.5409,-4043.7213L14032.5385,-4043.7527L14032.5327,-4043.7785L14032.5202,-4043.7999L14032.5192,-4043.8154L14032.5347,-4043.8383L14032.5704,-4043.859L14032.5916,-4043.8789L14032.6013,-4043.9055L14032.6026,-4043.9261L14032.6036,-4043.9411L14032.6058,-4043.9838L14032.6037,-4044.004L14032.596,-4044.0158L14032.5815,-4044.018L14032.5371,-4044.0158L14032.5081,-4044.0188L14032.4656,-4044.0261L14032.4037,-4044.0476L14032.3767,-4044.0616L14032.3506,-4044.0793L14032.3448,-4044.0978L14032.3371,-4044.1206L14032.3264,-4044.1332L14032.3061,-4044.1435L14032.2801,-4044.1501L14032.2486,-4044.1653L14032.2245,-4044.1845L14032.2013,-4044.2088L14032.1839,-4044.228L14032.1684,-4044.2516L14032.1394,-4044.2826L14032.1124,-4044.3077L14032.0911,-4044.3262L14032.0717,-4044.3318L14032.0437,-4044.3318L14031.9796,-4044.3244L14031.9391,-4044.3216L14031.8964,-4044.3222L14031.8868,-4044.3233L14031.8549,-4044.3228L14031.8172,-4044.3317L14031.7828,-4044.3486L14031.7766,-4044.3516L14031.7612,-4044.3708L14031.7457,-4044.3944L14031.7274,-4044.4085L14031.7003,-4044.4254L14031.6834,-4044.4391L14031.6728,-4044.4524L14031.6622,-4044.4878L14031.6535,-4044.5099L14031.6351,-4044.5409L14031.6313,-4044.5587L14031.6206,-4044.5756L14031.6071,-4044.583L14031.6013,-4044.5919L14031.6032,-4044.6096L14031.6098,-4044.6189L14031.612,-4044.6273L14031.6135,-4044.6504L14031.6168,-4044.6657L14031.6303,-4044.6708L14031.6486,-4044.6804L14031.681,-4044.7066L14031.7023,-4044.7288L14031.7051,-4044.745L14031.7013,-4044.7672L14031.6916,-4044.793L14031.6887,-4044.8152L14031.6897,-4044.8358L14031.7061,-4044.8676L14031.7158,-4044.8904L14031.7328,-4044.919L14031.7336,-4044.9213L14031.7343,-4044.9404L14031.7328,-4044.9477L14031.7321,-4044.9776L14031.7328,-4044.9928L14031.7372,-4045.0232L14031.7365,-4045.0496L14031.7066,-4045.0864L14031.696,-4045.1049L14031.6931,-4045.1255L14031.6939,-4045.1473L14031.694,-4045.1499L14031.6967,-4045.2022L14031.7004,-4045.2326L14031.7151,-4045.2748L14031.7195,-4045.3092L14031.7317,-4045.3352L14031.7346,-4045.3536L14031.7249,-4045.3772L14031.7095,-4045.3964L14031.7066,-4045.409L14031.7066,-4045.4237L14031.722,-4045.4444L14031.7384,-4045.4614L14031.7413,-4045.482L14031.7365,-4045.5049L14031.7201,-4045.5285L14031.6988,-4045.5514L14031.6737,-4045.5654L14031.6157,-4045.5817L14031.5906,-4045.5876L14031.5655,-4045.595L14031.5466,-4045.6064L14031.5351,-4045.6234L14031.5273,-4045.6514L14031.5186,-4045.6713L14031.5002,-4045.6883L14031.4751,-4045.7046L14031.4481,-4045.7186L14031.4278,-4045.726L14031.4123,-4045.74L14031.4035,-4045.7675L14031.4027,-4045.7731L14031.3991,-4045.7973L14031.3896,-4045.8142L14031.3519,-4045.837L14031.3423,-4045.854L14031.3248,-4045.8658L14031.3181,-4045.8702L14031.3055,-4045.8778L14031.2908,-4045.8812L14031.2716,-4045.8823L14031.2525,-4045.8852L14031.2444,-4045.8919L14031.2348,-4045.9026L14031.2164,-4045.9291L14031.2053,-4045.942L14031.1942,-4045.9505L14031.1648,-4045.9618L14031.1368,-4045.9668L14031.1007,-4045.9696L14031.0823,-4045.9747L14031.0727,-4045.9797L14031.0639,-4045.9871L14031.0565,-4045.9955L14031.041,-4046.0192L14031.0307,-4046.0287L14031.0256,-4046.031L14031.0064,-4046.0434L14030.999,-4046.0501L14030.9873,-4046.0676L14030.971,-4046.1008L14030.9534,-4046.1244L14030.9386,-4046.1368L14030.9231,-4046.1419L14030.8996,-4046.1464L14030.8694,-4046.1487L14030.8229,-4046.1549L14030.7972,-4046.1633L14030.7898,-4046.1667L14030.7655,-4046.1824L14030.753,-4046.196L14030.7272,-4046.2354L14030.7073,-4046.2748L14030.6948,-4046.2939L14030.6705,-4046.3125L14030.6557,-4046.3193L14030.6442,-4046.3238L14030.6109,-4046.3264L14030.5872,-4046.3221L14030.5659,-4046.3131L14030.5364,-4046.2967L14030.5062,-4046.2849L14030.4922,-4046.281L14030.4701,-4046.2815L14030.4458,-4046.2815L14030.4207,-4046.2765L14030.3817,-4046.2686L14030.367,-4046.2691L14030.3567,-4046.2714L14030.3434,-4046.2759L14030.336,-4046.2793L14030.3058,-4046.29L14030.2845,-4046.2945L14030.2727,-4046.2939L14030.2358,-4046.2849L14030.2078,-4046.2855L14030.1909,-4046.2894L14030.1541,-4046.3029L14030.1401,-4046.3046L14030.0708,-4046.3035L14030.0163,-4046.3085L14030.0068,-4046.3097L14029.9876,-4046.3097L14029.9463,-4046.3029L14029.9279,-4046.3035L14029.9139,-4046.3063L14029.9014,-4046.3159L14029.8962,-4046.326L14029.8955,-4046.3344L14029.894,-4046.3367L14029.9191,-4046.3727L14029.9272,-4046.3941L14029.9272,-4046.4189L14029.922,-4046.4403L14029.9183,-4046.4673L14029.9191,-4046.487L14029.9294,-4046.5056L14029.9515,-4046.5354L14029.9603,-4046.5523L14029.9633,-4046.5647L14029.9633,-4046.5794L14029.9537,-4046.6002L14029.9367,-4046.6345L14029.9367,-4046.6492L14029.9441,-4046.6768L14029.95,-4046.697L14029.9507,-4046.7089L14029.9441,-4046.7139L14029.9353,-4046.7162L14029.9043,-4046.7179L14029.8829,-4046.7213L14029.8734,-4046.7252L14029.8734,-4046.7263L14029.8653,-4046.7342L14029.8601,-4046.7443L14029.8579,-4046.7539L14029.8601,-4046.768L14029.8601,-4046.7882L14029.8572,-4046.7933L14029.8513,-4046.8001L14029.8424,-4046.8046L14029.8255,-4046.8102L14029.7975,-4046.8136L14029.7835,-4046.8169L14029.729,-4046.8361L14029.6922,-4046.8519L14029.6597,-4046.8609L14029.6273,-4046.8676L14029.6067,-4046.8721L14029.5927,-4046.8738L14029.5249,-4046.8738L14029.4682,-4046.8671L14029.4579,-4046.8659L14029.4365,-4046.8609L14029.4019,-4046.8558L14029.3739,-4046.8564L14029.2944,-4046.8733L14029.2612,-4046.8732L14029.2421,-4046.8704L14029.2347,-4046.8676L14029.2266,-4046.8659L14029.2023,-4046.8575L14029.1816,-4046.853L14029.1687,-4046.8545L14029.1613,-4046.8591L14029.1525,-4046.87L14029.1525,-4046.8942L14029.1513,-4046.922L14029.136,-4046.931L14029.1184,-4046.9382L14029.1021,-4046.9404L14029.0663,-4046.9504L14029.0403,-4046.9608L14029.0161,-4046.9726L14028.99,-4046.9918L14028.9614,-4047.014L14028.9474,-4047.0281L14028.9415,-4047.0348L14028.9253,-4047.0737L14028.9253,-4047.0917L14028.9275,-4047.0979L14028.9304,-4047.112L14028.9407,-4047.1373L14028.9422,-4047.1446L14028.9415,-4047.175L14028.9392,-4047.1846L14028.9363,-4047.2094L14028.9363,-4047.2409L14028.9429,-4047.2657L14028.9592,-4047.3022L14028.9598,-4047.3256L14028.9602,-4047.3381L14028.9494,-4047.356L14028.9341,-4047.3713L14028.9142,-4047.3829L14028.8966,-4047.391L14028.8789,-4047.3946L14028.8663,-4047.3957L14028.8402,-4047.3937L14028.8103,-4047.3843L14028.7919,-4047.3704L14028.7455,-4047.3366L14028.7344,-4047.3377L14028.73,-4047.3394L14028.7227,-4047.3434L14028.716,-4047.3524L14028.6821,-4047.3952L14028.6718,-4047.4019L14028.6512,-4047.4092L14028.6453,-4047.4154L14028.6394,-4047.4306L14028.6306,-4047.4577L14028.6173,-4047.4937L14028.5937,-4047.5506L14028.5827,-4047.5753L14028.5783,-4047.5844L14028.5628,-4047.6024L14028.5518,-4047.608L14028.5414,-4047.6108L14028.5215,-4047.6108L14028.5053,-4047.6058L14028.4913,-4047.5996L14028.4803,-4047.5956L14028.4626,-4047.5951L14028.4626,-4047.5962L14028.4531,-4047.599L14028.4464,-4047.6142L14028.4442,-4047.6412L14028.4398,-4047.6581L14028.4317,-4047.6711L14028.4184,-4047.6823L14028.3941,-4047.6958L14028.3868,-4047.7032L14028.3536,-4047.7414L14028.33,-4047.7606L14028.3131,-4047.7718L14028.274,-4047.7938L14028.2541,-4047.8043L14028.2369,-4047.8157L14028.2228,-4047.8292L14028.2138,-4047.843L14028.1997,-4047.8558L14028.1764,-4047.8643L14028.1576,-4047.8724L14028.1428,-4047.8864L14028.1273,-4047.9083L14028.1005,-4047.9478L14028.0921,-4047.9593L14028.0869,-4047.9633L14028.0744,-4047.9762L14028.0596,-4047.9869L14028.0501,-4047.9909L14028.0405,-4047.9937L14028.028,-4047.9982L14028.0176,-4048.0049L14028,-4048.0201L14027.9963,-4048.0258L14027.9779,-4048.0443L14027.958,-4048.0573L14027.9454,-4048.0601L14027.9278,-4048.0606L14027.9057,-4048.0595L14027.8969,-4048.0606L14027.888,-4048.0674L14027.8821,-4048.0764L14027.874,-4048.1051L14027.8652,-4048.1277L14027.8586,-4048.1384L14027.8482,-4048.1479L14027.8239,-4048.1631L14027.8111,-4048.1729L14027.8003,-4048.1811L14027.7944,-4048.1902L14027.7811,-4048.2369L14027.7706,-4048.2739L14027.7657,-4048.2839L14027.7538,-4048.2936L14027.7382,-4048.3026L14027.7284,-4048.3089L14027.7123,-4048.3137L14027.6788,-4048.3218L14027.6538,-4048.3287L14027.6456,-4048.3349L14027.6416,-4048.3424L14027.6424,-4048.3512L14027.6477,-4048.3603L14027.6568,-4048.3686L14027.6858,-4048.3952L14027.7101,-4048.421L14027.7204,-4048.4472L14027.7222,-4048.4638L14027.7151,-4048.4822L14027.7052,-4048.4988L14027.6864,-4048.5131L14027.6541,-4048.5243L14027.6271,-4048.5293L14027.6048,-4048.531L14027.5666,-4048.5337L14027.5561,-4048.5321L14027.5204,-4048.5201L14027.4894,-4048.5071L14027.4762,-4048.5077L14027.4622,-4048.5127L14027.4349,-4048.5285L14027.4217,-4048.5336L14027.3996,-4048.5404L14027.3951,-4048.5421L14027.3811,-4048.5516L14027.348,-4048.5865L14027.3438,-4048.5898"/>
</g>
</svg>
