<?xml version="1.0" encoding="UTF-8"?>
<svg  xmlns="http://www.w3.org/2000/svg" xmlns:xlink="http://www.w3.org/1999/xlink" xmlns:go="http://purl.org/svgmap/profile" property="N07_001,N07_002,N07_003,N07_004,N07_005,N07_006,N07_007" viewBox="14086.669921875 -3838.623046875 1.0986328125 1.0986328125" go:dataArea="14086.669921875 -3838.623046875 1.0986328125 1.0986328125" >
<metadata>
 <rdf:RDF xmlns:rdf="http://www.w3.org/1999/02/22-rdf-syntax-ns#" xmlns:crs="http://opengis.org/xmldtds/transformations.dtd" xmlns:svg="http://www.w3.org/svg" >
  <rdf:Description>
   <crs:CoordinateReferenceSystem rdf:resource="http://purl.org/crs/84" svg:transform="matrix(100.0,0.0,0.0,-100.0,0.0,0.0)" />
  </rdf:Description>
 </rdf:RDF>
</metadata>
<globalCoordinateSystem srsName="http://purl.org/crs/84" transform="matrix(100.0,0.0,0.0,-100.0,0.0,0.0)" />
<defs>
 <g id="p0" >
  <circle cx="0.0" cy="0.0" r="3" stroke="green" stroke-width="0.75" vector-effect="non-scaling-stroke" />
 </g>
</defs>
<g fill="none" fill-rule="evenodd" stroke="#FF00FF" stroke-width="0.75" opacity="0.5" vector-effect="non-scaling-stroke" stroke-linejoin="bevel" >
<path content="1,JRバス東北（株）,ドリームササニシキ号,1.0,1.0,1.0," xlink:title="1" d="M14087.6712,-3838.623L14087.6231,-3838.5656L14087.5938,-3838.53L14087.5664,-3838.4979L14087.4859,-3838.402L14087.4794,-3838.3943L14087.4715,-3838.3849L14087.3772,-3838.2734L14087.3465,-3838.2353L14087.3337,-3838.2193L14087.3214,-3838.2034L14087.3083,-3838.184L14087.2949,-3838.1607L14087.2916,-3838.1544L14087.2829,-3838.1381L14087.2716,-3838.1121L14087.2617,-3838.0866L14087.2564,-3838.0707L14087.2518,-3838.0516L14087.247,-3838.0279L14087.2437,-3838.0005L14087.2437,-3837.9769L14087.244,-3837.9547L14087.2454,-3837.9303L14087.2486,-3837.9027L14087.252,-3837.8798L14087.2566,-3837.8607L14087.2638,-3837.8266L14087.2744,-3837.7905L14087.2822,-3837.7647L14087.2836,-3837.7606L14087.2872,-3837.7502L14087.2946,-3837.7347L14087.3045,-3837.7163L14087.3183,-3837.6884L14087.3384,-3837.6471L14087.3571,-3837.6098L14087.3812,-3837.5596L14087.3909,-3837.535L14087.3941,-3837.5244"/>
<path content="1,宮城交通（株）,N22,11.0,12.0,12.0," xlink:title="1" d="M14087.4899,-3837.5244L14087.4909,-3837.5318L14087.4919,-3837.549L14087.4916,-3837.572L14087.4845,-3837.6525L14087.4817,-3837.6823L14087.4808,-3837.7075L14087.4822,-3837.7174L14087.4863,-3837.7247L14087.4911,-3837.7319L14087.4967,-3837.7368L14087.5024,-3837.7398L14087.5203,-3837.7465L14087.5411,-3837.7544L14087.5207,-3837.7884L14087.4824,-3837.8541L14087.4638,-3837.8862L14087.4538,-3837.9037L14087.4068,-3837.9875L14087.3844,-3838.0219L14087.3794,-3838.0304L14087.3644,-3838.0569L14087.3558,-3838.0743L14087.3531,-3838.0824L14087.3522,-3838.0886L14087.3524,-3838.0967L14087.3537,-3838.1046L14087.3565,-3838.1137L14087.3637,-3838.1284L14087.3864,-3838.1591L14087.4662,-3838.2529L14087.517,-3838.3193L14087.5272,-3838.3324L14087.5318,-3838.3387L14087.5333,-3838.3455L14087.5324,-3838.3514L14087.5292,-3838.3573L14087.5231,-3838.3633L14087.501,-3838.3796L14087.4794,-3838.3943L14087.4859,-3838.402L14087.5664,-3838.4979L14087.5938,-3838.53L14087.6231,-3838.5656L14087.6712,-3838.623"/>
<path content="1,宮城交通（株）,N23,35.0,29.5,28.0," xlink:title="1" d="M14086.6699,-3838.5868L14086.7413,-3838.5881L14086.7856,-3838.5888L14086.8515,-3838.5892L14086.8919,-3838.5881L14086.9713,-3838.5896L14086.9968,-3838.5897L14087.0352,-3838.589L14087.0547,-3838.588L14087.0777,-3838.5866L14087.1019,-3838.5841L14087.1319,-3838.5809L14087.1563,-3838.5778L14087.1779,-3838.5748L14087.2056,-3838.5683L14087.2392,-3838.5576L14087.2628,-3838.549L14087.2864,-3838.537L14087.2956,-3838.5303L14087.3111,-3838.5211L14087.3493,-3838.4914L14087.4235,-3838.4344L14087.4451,-3838.4178L14087.4794,-3838.3943L14087.4859,-3838.402L14087.5664,-3838.4979L14087.5938,-3838.53L14087.6231,-3838.5656L14087.6712,-3838.623"/>
<path content="1,宮城交通（株）,N24,19.5,12.5,12.5," xlink:title="1" d="M14087.4899,-3837.5244L14087.4909,-3837.5318L14087.4919,-3837.549L14087.4916,-3837.572L14087.4845,-3837.6525L14087.4817,-3837.6823L14087.4808,-3837.7075L14087.4822,-3837.7174L14087.4863,-3837.7247L14087.4911,-3837.7319L14087.4967,-3837.7368L14087.5024,-3837.7398L14087.5203,-3837.7465L14087.5411,-3837.7544L14087.5207,-3837.7884L14087.4824,-3837.8541L14087.4638,-3837.8862L14087.4538,-3837.9037L14087.4068,-3837.9875L14087.3844,-3838.0219L14087.3794,-3838.0304L14087.3644,-3838.0569L14087.3558,-3838.0743L14087.3531,-3838.0824L14087.3522,-3838.0886L14087.3524,-3838.0967L14087.3537,-3838.1046L14087.3565,-3838.1137L14087.3637,-3838.1284L14087.3864,-3838.1591L14087.4662,-3838.2529L14087.517,-3838.3193L14087.5272,-3838.3324L14087.5318,-3838.3387L14087.5333,-3838.3455L14087.5324,-3838.3514L14087.5292,-3838.3573L14087.5231,-3838.3633L14087.501,-3838.3796L14087.4794,-3838.3943L14087.4859,-3838.402L14087.5664,-3838.4979L14087.5938,-3838.53L14087.6231,-3838.5656L14087.6712,-3838.623"/>
<path content="1,宮城交通（株）,N27,6.5,6.0,4.0," xlink:title="1" d="M14087.4899,-3837.5244L14087.4909,-3837.5318L14087.4919,-3837.549L14087.4916,-3837.572L14087.4845,-3837.6525L14087.4817,-3837.6823L14087.4808,-3837.7075L14087.4822,-3837.7174L14087.4863,-3837.7247L14087.4911,-3837.7319L14087.4967,-3837.7368L14087.5024,-3837.7398L14087.5203,-3837.7465L14087.5411,-3837.7544L14087.5207,-3837.7884L14087.4824,-3837.8541L14087.4638,-3837.8862L14087.4538,-3837.9037L14087.4068,-3837.9875L14087.3844,-3838.0219L14087.3794,-3838.0304L14087.3644,-3838.0569L14087.3558,-3838.0743L14087.3531,-3838.0824L14087.3522,-3838.0886L14087.3524,-3838.0967L14087.3537,-3838.1046L14087.3565,-3838.1137L14087.3637,-3838.1284L14087.3864,-3838.1591L14087.4662,-3838.2529L14087.517,-3838.3193L14087.5272,-3838.3324L14087.5318,-3838.3387L14087.5333,-3838.3455L14087.5324,-3838.3514L14087.5292,-3838.3573L14087.5231,-3838.3633L14087.501,-3838.3796L14087.4794,-3838.3943L14087.4859,-3838.402L14087.5664,-3838.4979L14087.5938,-3838.53L14087.6231,-3838.5656L14087.6712,-3838.623"/>
<path content="1,宮城交通（株）,N41,0.9,0.0,0.0," xlink:title="1" d="M14087.6712,-3838.623L14087.6231,-3838.5656L14087.5938,-3838.53L14087.5664,-3838.4979L14087.4859,-3838.402L14087.4794,-3838.3943L14087.501,-3838.3796L14087.5231,-3838.3633L14087.5292,-3838.3573L14087.5324,-3838.3514L14087.5333,-3838.3455L14087.5318,-3838.3387L14087.5272,-3838.3324L14087.517,-3838.3193L14087.4662,-3838.2529L14087.3864,-3838.1591L14087.3637,-3838.1284L14087.3565,-3838.1137L14087.3537,-3838.1046L14087.3524,-3838.0967L14087.3522,-3838.0886L14087.3531,-3838.0824L14087.3558,-3838.0743L14087.3644,-3838.0569L14087.3794,-3838.0304L14087.3844,-3838.0219L14087.4068,-3837.9875L14087.4538,-3837.9037L14087.4638,-3837.8862L14087.4824,-3837.8541L14087.5207,-3837.7884L14087.5411,-3837.7544L14087.5203,-3837.7465L14087.5024,-3837.7398L14087.4967,-3837.7368L14087.4911,-3837.7319L14087.4863,-3837.7247L14087.4822,-3837.7174L14087.4808,-3837.7075L14087.4817,-3837.6823L14087.4845,-3837.6525L14087.4916,-3837.572L14087.4919,-3837.549L14087.4909,-3837.5318L14087.4899,-3837.5244"/>
<path content="1,宮城交通（株）,N46,2.5,0.0,0.0," xlink:title="1" d="M14087.6712,-3838.623L14087.6231,-3838.5656L14087.5938,-3838.53L14087.5664,-3838.4979L14087.4859,-3838.402L14087.4794,-3838.3943L14087.501,-3838.3796L14087.5231,-3838.3633L14087.5292,-3838.3573L14087.5324,-3838.3514L14087.5333,-3838.3455L14087.5318,-3838.3387L14087.5272,-3838.3324L14087.517,-3838.3193L14087.4662,-3838.2529L14087.3864,-3838.1591L14087.3637,-3838.1284L14087.3565,-3838.1137L14087.3537,-3838.1046L14087.3524,-3838.0967L14087.3522,-3838.0886L14087.3531,-3838.0824L14087.3558,-3838.0743L14087.3644,-3838.0569L14087.3794,-3838.0304L14087.3844,-3838.0219L14087.4068,-3837.9875L14087.4538,-3837.9037L14087.4638,-3837.8862L14087.4824,-3837.8541L14087.5207,-3837.7884L14087.5411,-3837.7544L14087.5203,-3837.7465L14087.5024,-3837.7398L14087.4967,-3837.7368L14087.4911,-3837.7319L14087.4863,-3837.7247L14087.4822,-3837.7174L14087.4808,-3837.7075L14087.4817,-3837.6823L14087.4845,-3837.6525L14087.4916,-3837.572L14087.4919,-3837.549L14087.4909,-3837.5318L14087.4899,-3837.5244"/>
<path content="1,宮城交通（株）,仙台～加美線,6.0,6.0,6.0," xlink:title="1" d="M14086.6699,-3838.2007L14086.673,-3838.2031L14086.6988,-3838.2248L14086.6946,-3838.2279L14086.8209,-3838.3267L14086.8881,-3838.3813L14086.9117,-3838.401L14086.9246,-3838.4134L14086.9349,-3838.4249L14086.9432,-3838.4349L14086.9546,-3838.4489L14086.9653,-3838.4647L14086.9739,-3838.4793L14086.9776,-3838.493L14086.9832,-3838.5012L14086.9875,-3838.5159L14086.9907,-3838.5278L14086.9932,-3838.5407L14086.9961,-3838.5615L14086.9963,-3838.5663L14086.9965,-3838.5712L14086.9968,-3838.5897L14087.0352,-3838.589L14087.0547,-3838.588L14087.0777,-3838.5866L14087.1019,-3838.5841L14087.1319,-3838.5809L14087.1563,-3838.5778L14087.1779,-3838.5748L14087.2056,-3838.5683L14087.2392,-3838.5576L14087.2628,-3838.549L14087.2864,-3838.537L14087.2956,-3838.5303L14087.3111,-3838.5211L14087.3493,-3838.4914L14087.4235,-3838.4344L14087.4451,-3838.4178L14087.4794,-3838.3943L14087.4859,-3838.402L14087.5664,-3838.4979L14087.5938,-3838.53L14087.6231,-3838.5656L14087.6712,-3838.623"/>
<path content="2,大和町,宮床線,2.0,2.0,0.0," xlink:title="2" d="M14086.6699,-3838.2007L14086.673,-3838.2031L14086.6988,-3838.2248L14086.6946,-3838.2279L14086.8209,-3838.3267L14086.8881,-3838.3813L14086.9117,-3838.401L14086.9246,-3838.4134L14086.9349,-3838.4249L14086.9432,-3838.4349L14086.9546,-3838.4489L14086.9653,-3838.4647L14086.9739,-3838.4793L14086.9776,-3838.493L14086.9832,-3838.5012L14086.9875,-3838.5159L14086.9907,-3838.5278L14086.9932,-3838.5407L14086.9961,-3838.5615L14086.9963,-3838.5663L14086.9965,-3838.5712L14086.9968,-3838.5897L14086.9713,-3838.5896L14086.8919,-3838.5881L14086.8515,-3838.5892L14086.7856,-3838.5888L14086.7413,-3838.5881L14086.6699,-3838.5868"/>
<path content="3,富谷町,西部循環線,6.8,0.0,0.0," xlink:title="3" d="M14087.4899,-3837.5244L14087.4909,-3837.5318L14087.4919,-3837.549L14087.4916,-3837.572L14087.4845,-3837.6525L14087.4817,-3837.6823L14087.4808,-3837.7075L14087.4822,-3837.7174L14087.4863,-3837.7247L14087.4911,-3837.7319L14087.4967,-3837.7368L14087.5024,-3837.7398L14087.5203,-3837.7465L14087.5411,-3837.7544"/>
<path content="3,富谷町,西部循環線,6.8,0.0,0.0," xlink:title="3" d="M14087.5411,-3837.7544L14087.5323,-3837.7692L14087.5207,-3837.7884L14087.4824,-3837.8541L14087.4638,-3837.8862L14087.4538,-3837.9037L14087.4068,-3837.9875L14087.3844,-3838.0219"/>
<path content="3,富谷町,西部循環線,6.8,0.0,0.0," xlink:title="3" d="M14087.5411,-3837.7544L14087.5968,-3837.6603L14087.624,-3837.6147L14087.6583,-3837.555L14087.6782,-3837.5244M14087.7686,-3837.9088L14087.7463,-3837.9465L14087.7262,-3837.9808L14087.658,-3838.0969L14087.6461,-3838.1171L14087.5825,-3838.0952L14087.5732,-3838.0918L14087.5112,-3838.069L14087.4634,-3838.0513L14087.4209,-3838.0354L14087.3844,-3838.0219"/>
<path content="3,富谷町,西部循環線,6.8,0.0,0.0," xlink:title="3" d="M14087.3844,-3838.0219L14087.3794,-3838.0304L14087.3644,-3838.0569L14087.3558,-3838.0743L14087.3531,-3838.0824L14087.3522,-3838.0886L14087.3524,-3838.0967L14087.3537,-3838.1046L14087.3565,-3838.1137L14087.3637,-3838.1284L14087.3864,-3838.1591L14087.4662,-3838.2529L14087.517,-3838.3193L14087.5272,-3838.3324L14087.5318,-3838.3387L14087.5333,-3838.3455L14087.5324,-3838.3514L14087.5292,-3838.3573L14087.5231,-3838.3633L14087.501,-3838.3796L14087.4794,-3838.3943"/>
<path content="3,富谷町,西部循環線,6.8,0.0,0.0," xlink:title="3" d="M14087.4794,-3838.3943L14087.4451,-3838.4178L14087.4235,-3838.4344L14087.3493,-3838.4914L14087.3111,-3838.5211L14087.2956,-3838.5303L14087.2807,-3838.4925L14087.2666,-3838.4692L14087.2606,-3838.4589L14087.2499,-3838.4421L14087.2408,-3838.4301L14087.2255,-3838.4158L14087.2164,-3838.4033L14087.185,-3838.3722L14087.1652,-3838.3541L14087.1563,-3838.3477L14087.1236,-3838.3208L14087.1004,-3838.3021L14087.0867,-3838.2914L14087.0728,-3838.2802L14087.0619,-3838.2719L14087.0405,-3838.2548L14087.0352,-3838.2507L14087.0081,-3838.2296L14086.9972,-3838.2209L14086.9787,-3838.2063L14086.8956,-3838.2673L14086.8561,-3838.3L14086.8516,-3838.3035L14086.8444,-3838.3087L14086.8372,-3838.3144L14086.8345,-3838.3166L14086.8277,-3838.321L14086.8209,-3838.3267L14086.6946,-3838.2279L14086.6988,-3838.2248L14086.673,-3838.2031L14086.6699,-3838.2007M14086.6699,-3837.8258L14086.68,-3837.8186L14086.7131,-3837.7956L14086.7194,-3837.7916L14086.7293,-3837.7877L14086.7458,-3837.7814L14086.8344,-3837.755L14086.8159,-3837.7161L14086.8052,-3837.6916L14086.8009,-3837.6817L14086.7873,-3837.6513L14086.7806,-3837.6368L14086.7762,-3837.6293L14086.7726,-3837.6246L14086.7681,-3837.6201L14086.7609,-3837.6131L14086.7051,-3837.5702L14086.6831,-3837.5546L14086.6699,-3837.5443"/>
<path content="3,富谷町,西部循環線,6.8,0.0,0.0," xlink:title="3" d="M14087.6712,-3838.623L14087.6231,-3838.5656L14087.5938,-3838.53L14087.5664,-3838.4979L14087.4859,-3838.402L14087.4794,-3838.3943"/>
</g>
</svg>
