<?xml version="1.0" encoding="UTF-8"?>
<svg  xmlns="http://www.w3.org/2000/svg" xmlns:xlink="http://www.w3.org/1999/xlink" xmlns:go="http://purl.org/svgmap/profile" property="N07_001,N07_002,N07_003,N07_004,N07_005,N07_006,N07_007" viewBox="13693.359375 -3502.44140625 4.39453125 4.39453125" go:dataArea="13693.359375 -3502.44140625 4.39453125 4.39453125" >
<metadata>
 <rdf:RDF xmlns:rdf="http://www.w3.org/1999/02/22-rdf-syntax-ns#" xmlns:crs="http://opengis.org/xmldtds/transformations.dtd" xmlns:svg="http://www.w3.org/svg" >
  <rdf:Description>
   <crs:CoordinateReferenceSystem rdf:resource="http://purl.org/crs/84" svg:transform="matrix(100.0,0.0,0.0,-100.0,0.0,0.0)" />
  </rdf:Description>
 </rdf:RDF>
</metadata>
<globalCoordinateSystem srsName="http://purl.org/crs/84" transform="matrix(100.0,0.0,0.0,-100.0,0.0,0.0)" />
<defs>
 <g id="p0" >
  <circle cx="0.0" cy="0.0" r="3" stroke="green" stroke-width="0.75" vector-effect="non-scaling-stroke" />
 </g>
</defs>
<g fill="none" fill-rule="evenodd" stroke="#FF00FF" stroke-width="0.75" opacity="0.5" vector-effect="non-scaling-stroke" stroke-linejoin="bevel" >
<path content="1,JRバス関東（株）,知多シーガール号,2.0,2.0,2.0," xlink:title="1" d="M13697.7539,-3498.361L13697.69,-3498.3607L13697.5736,-3498.3617L13697.5745,-3498.3519L13697.5853,-3498.2336L13697.6004,-3498.0681L13697.5666,-3498.0832L13697.529,-3498.0968L13697.4756,-3498.1193L13697.4695,-3498.1216L13697.4414,-3498.134L13697.3046,-3498.1908L13697.3224,-3498.0472L13697.3224,-3498.0469"/>
<path content="1,知多乗合（株）,上野台線_01_on,76.0,76.0,76.0," xlink:title="1" d="M13693.8518,-3502.4414L13693.7836,-3502.3774L13693.7568,-3502.3534L13693.7461,-3502.3446L13693.6925,-3502.2958L13693.6837,-3502.2866L13693.6523,-3502.262L13693.6246,-3502.2459L13693.5917,-3502.2321L13693.4913,-3502.2047L13693.4357,-3502.1889L13693.4249,-3502.1856L13693.3923,-3502.1764L13693.3617,-3502.1677L13693.3594,-3502.1671"/>
<path content="1,知多乗合（株）,上野台線_02_on,76.0,76.0,76.0," xlink:title="1" d="M13693.3594,-3501.1592L13693.3768,-3501.1517L13693.3875,-3501.147L13693.3998,-3501.142L13693.4106,-3501.1413L13693.4218,-3501.1434L13693.4427,-3501.1501L13693.4537,-3501.1551L13693.4633,-3501.1609L13693.4508,-3501.1725L13693.4361,-3501.1877L13693.4259,-3501.198L13693.3861,-3501.2415L13693.3727,-3501.2554L13693.3594,-3501.27"/>
<path content="1,知多乗合（株）,刈谷・中部空港線,13.5,13.5,13.5," xlink:title="1" d="M13697.3224,-3498.0469L13697.3224,-3498.0472L13697.3072,-3498.1703L13697.2568,-3498.1697"/>
<path content="1,知多乗合（株）,刈谷・中部空港線,13.5,13.5,13.5," xlink:title="1" d="M13697.2169,-3498.1576L13697.2568,-3498.1697"/>
<path content="1,知多乗合（株）,刈谷・中部空港線,13.5,13.5,13.5," xlink:title="1" d="M13697.2568,-3498.1697L13697.2548,-3498.2342L13697.2014,-3498.2332L13697.2026,-3498.2829L13697.2184,-3498.3007L13697.2417,-3498.3294L13697.2547,-3498.3491L13697.2636,-3498.3638L13697.3771,-3498.3632L13697.5562,-3498.3618L13697.5736,-3498.3617L13697.69,-3498.3607L13697.7539,-3498.3611"/>
<path content="1,知多乗合（株）,大府循環線_01_on,25.0,25.0,25.0," xlink:title="1" d="M13694.3037,-3499.3492L13694.3964,-3499.3502L13694.6201,-3499.3502L13694.6536,-3499.349L13694.6755,-3499.3445L13694.6933,-3499.3372L13694.7056,-3499.3293L13694.7199,-3499.3175L13694.7241,-3499.3132L13694.761,-3499.2747L13694.7774,-3499.2594L13694.7876,-3499.2532L13694.8358,-3499.2387L13694.8417,-3499.2369L13694.8861,-3499.2285L13694.9121,-3499.2245L13694.9607,-3499.2212L13694.9976,-3499.2144L13695.0332,-3499.2042L13695.0464,-3499.1996L13695.0879,-3499.1919L13695.1002,-3499.1919L13695.1064,-3499.1936L13695.1556,-3499.2189L13695.1515,-3499.2296L13695.1214,-3499.331L13695.1077,-3499.3704L13695.0942,-3499.4019L13695.0845,-3499.4245"/>
<path content="1,知多乗合（株）,大府循環線_01_on,25.0,25.0,25.0," xlink:title="1" d="M13695.0056,-3499.4068L13695.0845,-3499.4245"/>
<path content="1,知多乗合（株）,大府循環線_01_on,25.0,25.0,25.0," xlink:title="1" d="M13695.0845,-3499.4245L13695.0674,-3499.46L13695.0373,-3499.5152L13694.9826,-3499.6099L13694.9654,-3499.6442L13694.9579,-3499.6674L13694.9552,-3499.6826L13694.9552,-3499.7287L13694.9566,-3499.7456L13694.9637,-3499.8499L13694.973,-3499.9137"/>
<path content="1,知多乗合（株）,大府循環線_01_on,25.0,25.0,25.0," xlink:title="1" d="M13695.2117,-3499.74L13695.2164,-3499.731L13695.2274,-3499.6899L13695.229,-3499.6768L13695.2189,-3499.6578"/>
<path content="1,知多乗合（株）,大府循環線_01_on,25.0,25.0,25.0," xlink:title="1" d="M13695.2117,-3499.74L13695.2417,-3499.7454L13695.2601,-3499.7527L13695.3611,-3499.813"/>
<path content="1,知多乗合（株）,大府循環線_01_on,25.0,25.0,25.0," xlink:title="1" d="M13694.973,-3499.9137L13694.9888,-3499.9131L13694.9949,-3499.9119L13695.0048,-3499.9082L13695.0195,-3499.9028L13695.0455,-3499.8899L13695.0566,-3499.885L13695.0595,-3499.8838L13695.0701,-3499.8792L13695.0947,-3499.8628L13695.1264,-3499.8289L13695.1522,-3499.811L13695.1994,-3499.7569L13695.2117,-3499.74"/>
<path content="1,知多乗合（株）,大府循環線_01_on,25.0,25.0,25.0," xlink:title="1" d="M13694.973,-3499.9137L13694.9696,-3499.9244L13694.9635,-3499.9369L13694.9262,-3500.0017L13694.9053,-3500.0386L13694.9011,-3500.0572L13694.9011,-3500.0893L13694.9018,-3500.0949L13694.9148,-3500.1338L13694.9445,-3500.1982L13694.9978,-3500.2599L13695.0338,-3500.3011L13695.0547,-3500.3248L13695.0732,-3500.3442L13695.0894,-3500.3553L13695.1086,-3500.3641L13695.1322,-3500.3722L13695.1587,-3500.3855L13695.1899,-3500.4042L13695.2143,-3500.428L13695.2349,-3500.5039L13695.2426,-3500.5223L13695.2496,-3500.5312L13695.2671,-3500.5446L13695.2767,-3500.5536L13695.2848,-3500.5663L13695.2879,-3500.573L13695.3004,-3500.5696L13695.3371,-3500.5647L13695.3464,-3500.5645L13695.3869,-3500.5634L13695.389,-3500.5633L13695.4021,-3500.5625L13695.4196,-3500.5604L13695.4514,-3500.5529L13695.4748,-3500.5454L13695.5156,-3500.5302L13695.5432,-3500.5206L13695.5476,-3500.5192L13695.5492,-3500.5188L13695.6457,-3500.4888L13695.7019,-3500.4872L13695.7563,-3500.4872L13695.7714,-3500.4878L13695.7397,-3500.5416L13695.7283,-3500.5611L13695.6822,-3500.6409L13695.6809,-3500.6431L13695.6375,-3500.7213L13695.6247,-3500.7438L13695.6411,-3500.7463L13695.7062,-3500.7589L13695.7369,-3500.7635L13695.7617,-3500.7672L13695.768,-3500.7684L13695.8691,-3500.7873L13695.894,-3500.7916L13695.9189,-3500.796L13695.9326,-3500.7974L13695.9735,-3500.8064L13695.9836,-3500.809L13695.9927,-3500.8117L13696.042,-3500.807"/>
<path content="1,知多乗合（株）,大府循環線_02_on,25.0,25.0,25.0," xlink:title="1" d="M13695.0056,-3499.4068L13695.0845,-3499.4245"/>
<path content="1,知多乗合（株）,大府循環線_02_on,25.0,25.0,25.0," xlink:title="1" d="M13695.0845,-3499.4245L13695.0942,-3499.4019L13695.1077,-3499.3704L13695.1214,-3499.331L13695.1515,-3499.2296L13695.1556,-3499.2189L13695.1761,-3499.2279L13695.1891,-3499.233L13695.2295,-3499.2482L13695.2322,-3499.2488L13695.2479,-3499.2538L13695.2705,-3499.2595L13695.2999,-3499.264L13695.3539,-3499.2646L13695.3799,-3499.2629L13695.4032,-3499.2578L13695.4107,-3499.255L13695.4264,-3499.2516L13695.4381,-3499.2629L13695.4942,-3499.3306L13695.5241,-3499.3794L13695.5694,-3499.4172L13695.5954,-3499.4403L13695.6098,-3499.4487L13695.6446,-3499.4612L13695.6775,-3499.4713L13695.6802,-3499.473L13695.7096,-3499.4814L13695.7759,-3499.5034L13695.7971,-3499.513L13695.8162,-3499.5441L13695.8403,-3499.5659L13695.8437,-3499.5992L13695.8437,-3499.6494L13695.845,-3499.6786L13695.8572,-3499.732L13695.9421,-3499.8674L13695.9647,-3499.9091L13695.9928,-3499.9637L13696.0307,-3500.0304L13696.1692,-3500.1558L13696.1364,-3500.1817L13696.1337,-3500.1829L13696.0537,-3500.2444L13696.0266,-3500.2672L13696.026,-3500.2678L13696.0239,-3500.2695L13695.9581,-3500.3248L13695.946,-3500.3349L13695.8879,-3500.3753L13695.8466,-3500.4147L13695.8256,-3500.4313L13695.8006,-3500.4527L13695.7777,-3500.477L13695.7714,-3500.4878"/>
<path content="1,知多乗合（株）,大府循環線_02_on,25.0,25.0,25.0," xlink:title="1" d="M13695.2117,-3499.74L13695.2164,-3499.731L13695.2274,-3499.6899L13695.229,-3499.6768L13695.2189,-3499.6578"/>
<path content="1,知多乗合（株）,大府循環線_02_on,25.0,25.0,25.0," xlink:title="1" d="M13695.2117,-3499.74L13695.2417,-3499.7454L13695.2601,-3499.7527L13695.3611,-3499.813"/>
<path content="1,知多乗合（株）,大府循環線_02_on,25.0,25.0,25.0," xlink:title="1" d="M13694.973,-3499.9137L13694.9637,-3499.8499L13694.9566,-3499.7456L13694.9552,-3499.7287L13694.9552,-3499.6826L13694.9579,-3499.6674L13694.9654,-3499.6442L13694.9826,-3499.6099L13695.0373,-3499.5152L13695.0674,-3499.46L13695.0845,-3499.4245"/>
<path content="1,知多乗合（株）,大府循環線_02_on,25.0,25.0,25.0," xlink:title="1" d="M13694.973,-3499.9137L13694.9888,-3499.9131L13694.9949,-3499.9119L13695.0048,-3499.9082L13695.0195,-3499.9028L13695.0455,-3499.8899L13695.0566,-3499.885L13695.0595,-3499.8838L13695.0701,-3499.8792L13695.0947,-3499.8628L13695.1264,-3499.8289L13695.1522,-3499.811L13695.1994,-3499.7569L13695.2117,-3499.74"/>
<path content="1,知多乗合（株）,大府循環線_02_on,25.0,25.0,25.0," xlink:title="1" d="M13695.7714,-3500.4878L13695.7563,-3500.4872L13695.7019,-3500.4872L13695.6457,-3500.4888L13695.5492,-3500.5188L13695.5476,-3500.5192L13695.5432,-3500.5206L13695.5156,-3500.5302L13695.4748,-3500.5454L13695.4514,-3500.5529L13695.4196,-3500.5604L13695.4021,-3500.5625L13695.389,-3500.5633L13695.3869,-3500.5634L13695.3464,-3500.5645L13695.3371,-3500.5647L13695.3004,-3500.5696L13695.2879,-3500.573L13695.2848,-3500.5663L13695.2767,-3500.5536L13695.2671,-3500.5446L13695.2496,-3500.5312L13695.2426,-3500.5223L13695.2349,-3500.5039L13695.2143,-3500.428L13695.1899,-3500.4042L13695.1587,-3500.3855L13695.1322,-3500.3722L13695.1086,-3500.3641L13695.0894,-3500.3553L13695.0732,-3500.3442L13695.0547,-3500.3248L13695.0338,-3500.3011L13694.9978,-3500.2599L13694.9445,-3500.1982L13694.9148,-3500.1338L13694.9018,-3500.0949L13694.9011,-3500.0893L13694.9011,-3500.0572L13694.9053,-3500.0386L13694.9262,-3500.0017L13694.9635,-3499.9369L13694.9696,-3499.9244L13694.973,-3499.9137"/>
<path content="1,知多乗合（株）,大府循環線_02_on,25.0,25.0,25.0," xlink:title="1" d="M13696.042,-3500.807L13695.9927,-3500.8117L13695.9836,-3500.809L13695.9735,-3500.8064L13695.9326,-3500.7974L13695.9189,-3500.796L13695.894,-3500.7916L13695.8691,-3500.7873L13695.768,-3500.7684L13695.7617,-3500.7672L13695.7369,-3500.7635L13695.7062,-3500.7589L13695.6411,-3500.7463L13695.6247,-3500.7438L13695.6375,-3500.7213L13695.6809,-3500.6431L13695.6822,-3500.6409L13695.7283,-3500.5611L13695.7397,-3500.5416L13695.7714,-3500.4878"/>
<path content="1,知多乗合（株）,横須賀線,18.0,14.0,14.0," xlink:title="1" d="M13693.3594,-3500.2854L13693.3602,-3500.2853L13693.3653,-3500.2846L13693.3719,-3500.2837L13693.4691,-3500.2868L13693.6146,-3500.2893L13693.6276,-3500.2915L13693.6386,-3500.2955L13693.6591,-3500.3067L13693.7011,-3500.3248L13693.717,-3500.3316L13693.7294,-3500.3362L13693.7448,-3500.3424L13693.761,-3500.349L13693.781,-3500.3565L13693.8426,-3500.377L13693.9158,-3500.4015L13694.001,-3500.4376L13694.0102,-3500.4417L13694.0104,-3500.4418L13694.0487,-3500.459L13694.115,-3500.4859L13694.1319,-3500.4931L13694.1765,-3500.5122L13694.2742,-3500.5571L13694.4919,-3500.6491L13694.5973,-3500.6976L13694.6245,-3500.7071L13694.6517,-3500.7155L13694.6838,-3500.7214L13694.7202,-3500.7242L13694.7636,-3500.7238L13694.8081,-3500.719L13694.8471,-3500.7121L13694.8509,-3500.7114L13694.902,-3500.6977L13695.009,-3500.6602L13695.0542,-3500.647L13695.0778,-3500.6402L13695.1429,-3500.6188L13695.1579,-3500.6139L13695.2334,-3500.5896L13695.2879,-3500.573L13695.3004,-3500.5696L13695.3371,-3500.5647L13695.3464,-3500.5645L13695.3869,-3500.5634L13695.389,-3500.5633L13695.4021,-3500.5625L13695.4196,-3500.5604L13695.4514,-3500.5529L13695.4748,-3500.5454L13695.5156,-3500.5302L13695.5432,-3500.5206L13695.5476,-3500.5192L13695.5492,-3500.5188L13695.6457,-3500.4888L13695.7019,-3500.4872L13695.7563,-3500.4872L13695.7714,-3500.4878L13695.7397,-3500.5416L13695.7283,-3500.5611L13695.6822,-3500.6409L13695.6809,-3500.6431L13695.6375,-3500.7213L13695.6247,-3500.7438L13695.6411,-3500.7463L13695.7062,-3500.7589L13695.7369,-3500.7635L13695.7617,-3500.7672L13695.768,-3500.7684L13695.8691,-3500.7873L13695.894,-3500.7916L13695.9189,-3500.796L13695.9326,-3500.7974L13695.9735,-3500.8064L13695.9836,-3500.809L13695.9927,-3500.8117L13696.042,-3500.807"/>
<path content="3,大府市,中央東コース右まわり,3.0,3.0,3.0," xlink:title="3" d="M13696.5666,-3501.0967L13696.5718,-3501.1007L13696.6021,-3501.1407L13696.6388,-3501.1869L13696.6462,-3501.1962L13696.6855,-3501.2498L13696.7093,-3501.287L13696.7328,-3501.3283L13696.741,-3501.3516L13696.7566,-3501.4082L13696.7652,-3501.439L13696.7704,-3501.458L13696.7768,-3501.4898L13696.7887,-3501.5428L13696.8031,-3501.5972L13696.8027,-3501.6972L13696.8043,-3501.7338L13696.8049,-3501.7473L13696.807,-3501.7919L13696.8109,-3501.8255L13696.8131,-3501.8831L13696.8515,-3501.8676L13696.8881,-3501.8539L13696.9238,-3501.8411L13696.9645,-3501.8296L13696.9759,-3501.8274L13697.0373,-3501.8155L13697.0782,-3501.8098L13697.1425,-3501.8072L13697.1791,-3501.8054L13697.1976,-3501.8061L13697.2071,-3501.8064L13697.2303,-3501.8072L13697.2527,-3501.8091L13697.2654,-3501.8101L13697.2659,-3501.8102L13697.2951,-3501.8172L13697.3213,-3501.8267L13697.359,-3501.8444L13697.3971,-3501.8669L13697.4232,-3501.8805L13697.4767,-3501.9226L13697.5429,-3501.9722L13697.5802,-3501.996L13697.5414,-3502.0705L13697.5338,-3502.0856L13697.5033,-3502.1459L13697.4515,-3502.2462L13697.4211,-3502.3056L13697.4171,-3502.3131L13697.3879,-3502.3672L13697.3588,-3502.4232L13697.3565,-3502.4279L13697.3499,-3502.4414"/>
<path content="3,大府市,中央東コース右まわり,3.0,3.0,3.0," xlink:title="3" d="M13696.2889,-3501.1943L13696.2306,-3501.2312L13696.2093,-3501.2138L13696.1787,-3501.1908L13696.1949,-3501.1611L13696.2034,-3501.1454L13696.2253,-3501.1055L13696.2388,-3501.0803L13696.2128,-3501.0696L13696.1915,-3501.0606L13696.145,-3501.0403L13696.1635,-3501.0121L13696.1792,-3500.9834L13696.1936,-3500.9428L13696.1993,-3500.9247L13696.2107,-3500.9061L13696.2404,-3500.8915L13696.2566,-3500.8965L13696.2651,-3500.8992L13696.2939,-3500.9087L13696.3305,-3500.9253L13696.3424,-3500.9335L13696.3908,-3500.9713L13696.4238,-3500.9965L13696.4509,-3501.0133L13696.5106,-3501.0555L13696.5326,-3501.0705L13696.5666,-3501.0967"/>
<path content="3,大府市,中央東コース右まわり,3.0,3.0,3.0," xlink:title="3" d="M13695.814,-3502.4414L13695.8153,-3502.4335L13695.8241,-3502.3899L13695.8547,-3502.2553L13695.8579,-3502.2193L13695.9012,-3502.2143L13695.9122,-3502.212L13695.9361,-3502.2058L13695.9758,-3502.1917L13695.9909,-3502.185L13696.0245,-3502.1692L13696.0313,-3502.1669L13696.0683,-3502.1495L13696.091,-3502.1388L13696.1669,-3502.1371L13696.1573,-3502.1078L13696.1525,-3502.087L13696.1477,-3502.0611L13696.1464,-3502.0436L13696.1532,-3502.0363L13696.1635,-3502.0233L13696.1884,-3501.9861L13696.2073,-3501.9579L13696.2121,-3501.9512L13696.2189,-3501.9224L13696.2216,-3501.9106L13696.2251,-3501.8802L13696.1833,-3501.8819L13696.1402,-3501.872L13696.0936,-3501.8734L13695.9923,-3501.8627L13695.93,-3501.8565L13695.9566,-3501.7702L13695.964,-3501.6955L13695.9709,-3501.6712L13695.9852,-3501.6316L13695.9969,-3501.5994L13695.9988,-3501.5945L13696.0798,-3501.5263L13696.1662,-3501.4487L13696.2053,-3501.4137L13696.2854,-3501.3445L13696.3257,-3501.3073L13696.3644,-3501.2734L13696.4593,-3501.1901L13696.462,-3501.1878L13696.4791,-3501.1732L13696.5065,-3501.1479L13696.5154,-3501.1406L13696.5666,-3501.0967"/>
<path content="3,大府市,中央東コース左まわり,4.0,4.0,4.0," xlink:title="3" d="M13696.5666,-3501.0967L13696.5718,-3501.1007L13696.6021,-3501.1407L13696.6388,-3501.1869L13696.6462,-3501.1962L13696.6855,-3501.2498L13696.7093,-3501.287L13696.7328,-3501.3283L13696.741,-3501.3516L13696.7566,-3501.4082L13696.7652,-3501.439L13696.7704,-3501.458L13696.7768,-3501.4898L13696.7887,-3501.5428L13696.8031,-3501.5972L13696.8027,-3501.6972L13696.8043,-3501.7338L13696.8049,-3501.7473L13696.807,-3501.7919L13696.8109,-3501.8255L13696.8131,-3501.8831L13696.8515,-3501.8676L13696.8881,-3501.8539L13696.9238,-3501.8411L13696.9645,-3501.8296L13696.9759,-3501.8274L13697.0373,-3501.8155L13697.0782,-3501.8098L13697.1425,-3501.8072L13697.1791,-3501.8054L13697.1976,-3501.8061L13697.2071,-3501.8064L13697.2303,-3501.8072L13697.2527,-3501.8091L13697.2654,-3501.8101L13697.2659,-3501.8102L13697.2951,-3501.8172L13697.3213,-3501.8267L13697.359,-3501.8444L13697.3971,-3501.8669L13697.4232,-3501.8805L13697.4767,-3501.9226L13697.5429,-3501.9722L13697.5802,-3501.996L13697.5414,-3502.0705L13697.5338,-3502.0856L13697.5033,-3502.1459L13697.4515,-3502.2462L13697.4211,-3502.3056L13697.4171,-3502.3131L13697.3879,-3502.3672L13697.3588,-3502.4232L13697.3565,-3502.4279L13697.3499,-3502.4414"/>
<path content="3,大府市,中央東コース左まわり,4.0,4.0,4.0," xlink:title="3" d="M13696.2889,-3501.1943L13696.2306,-3501.2312L13696.2093,-3501.2138L13696.1787,-3501.1908L13696.1949,-3501.1611L13696.2034,-3501.1454L13696.2253,-3501.1055L13696.2388,-3501.0803L13696.2128,-3501.0696L13696.1915,-3501.0606L13696.145,-3501.0403L13696.1635,-3501.0121L13696.1792,-3500.9834L13696.1936,-3500.9428L13696.1993,-3500.9247L13696.2107,-3500.9061L13696.2404,-3500.8915L13696.2566,-3500.8965L13696.2651,-3500.8992L13696.2939,-3500.9087L13696.3305,-3500.9253L13696.3424,-3500.9335L13696.3908,-3500.9713L13696.4238,-3500.9965L13696.4509,-3501.0133L13696.5106,-3501.0555L13696.5326,-3501.0705L13696.5666,-3501.0967"/>
<path content="3,大府市,中央東コース左まわり,4.0,4.0,4.0," xlink:title="3" d="M13695.814,-3502.4414L13695.8153,-3502.4335L13695.8241,-3502.3899L13695.8547,-3502.2553L13695.8579,-3502.2193L13695.9012,-3502.2143L13695.9122,-3502.212L13695.9361,-3502.2058L13695.9758,-3502.1917L13695.9909,-3502.185L13696.0245,-3502.1692L13696.0313,-3502.1669L13696.0683,-3502.1495L13696.091,-3502.1388L13696.1669,-3502.1371L13696.1573,-3502.1078L13696.1525,-3502.087L13696.1477,-3502.0611L13696.1464,-3502.0436L13696.1532,-3502.0363L13696.1635,-3502.0233L13696.1884,-3501.9861L13696.2073,-3501.9579L13696.2121,-3501.9512L13696.2189,-3501.9224L13696.2216,-3501.9106L13696.2251,-3501.8802L13696.1833,-3501.8819L13696.1402,-3501.872L13696.0936,-3501.8734L13695.9923,-3501.8627L13695.93,-3501.8565L13695.9566,-3501.7702L13695.964,-3501.6955L13695.9709,-3501.6712L13695.9852,-3501.6316L13695.9969,-3501.5994L13695.9988,-3501.5945L13696.0798,-3501.5263L13696.1662,-3501.4487L13696.2053,-3501.4137L13696.2854,-3501.3445L13696.3257,-3501.3073L13696.3644,-3501.2734L13696.4593,-3501.1901L13696.462,-3501.1878L13696.4791,-3501.1732L13696.5065,-3501.1479L13696.5154,-3501.1406L13696.5666,-3501.0967"/>
<path content="3,大府市,中央西コース右まわり,3.0,3.0,3.0," xlink:title="3" d="M13694.3964,-3499.3502L13694.3037,-3499.3492"/>
<path content="3,大府市,中央西コース右まわり,3.0,3.0,3.0," xlink:title="3" d="M13694.3964,-3499.3502L13694.3937,-3499.3687L13694.3934,-3499.3795L13694.3932,-3499.395L13694.392,-3499.5006L13694.3909,-3499.602L13694.3903,-3499.6177L13694.3903,-3499.6386L13694.3895,-3499.7674L13694.3892,-3499.9643L13694.3887,-3500.0082L13694.3889,-3500.0848L13694.3882,-3500.1017L13694.3888,-3500.1189L13694.3888,-3500.1815L13694.3888,-3500.2607L13694.3888,-3500.2679L13694.38,-3500.391L13694.387,-3500.5007L13694.3869,-3500.5067L13694.3868,-3500.5145L13694.3868,-3500.5402L13694.3876,-3500.5561L13694.2742,-3500.5571L13694.1926,-3500.5565L13694.1952,-3500.5632L13694.2041,-3500.5883L13694.2122,-3500.6119L13694.2178,-3500.6352L13694.217,-3500.6468L13694.215,-3500.6552L13694.2096,-3500.6665L13694.2015,-3500.6762L13694.1935,-3500.683L13694.1538,-3500.7093L13694.145,-3500.7152L13694.1369,-3500.7231L13694.1358,-3500.7846L13694.1709,-3500.8586L13694.2076,-3500.9653L13694.2235,-3501.0172L13694.2564,-3501.0127L13694.2896,-3501.0097L13694.3101,-3501.0097L13694.3139,-3501.0097L13694.3621,-3501.0126L13694.3879,-3501.0186L13694.4077,-3501.0271L13694.4087,-3501.0237L13694.4285,-3501.0267L13694.4839,-3501.0346L13694.5278,-3501.0425L13694.5661,-3501.0492L13694.6223,-3501.0594L13694.7564,-3501.0819L13694.8194,-3501.0898L13694.9721,-3501.1084L13694.9888,-3501.1104L13695.0057,-3501.1123L13695.0188,-3501.1138L13695.0354,-3501.1159L13695.0495,-3501.1174L13695.0632,-3501.1197L13695.0762,-3501.1202L13695.0777,-3501.1203L13695.0665,-3501.1521L13695.0363,-3501.2376L13695.0761,-3501.2486L13695.0801,-3501.2499L13695.1225,-3501.2633L13695.1705,-3501.2796L13695.1899,-3501.2862"/>
<path content="3,大府市,中央西コース右まわり,3.0,3.0,3.0," xlink:title="3" d="M13695.0845,-3499.4245L13695.0056,-3499.4068"/>
<path content="3,大府市,中央西コース右まわり,3.0,3.0,3.0," xlink:title="3" d="M13695.0845,-3499.4245L13695.1077,-3499.3704L13695.1214,-3499.331L13695.1515,-3499.2296L13695.1556,-3499.2189L13695.1064,-3499.1936L13695.1002,-3499.1919L13695.0879,-3499.1919L13695.0464,-3499.1996L13695.0332,-3499.2042L13694.9976,-3499.2144L13694.9607,-3499.2212L13694.9121,-3499.2245L13694.8861,-3499.2285L13694.8417,-3499.2369L13694.8358,-3499.2387L13694.7876,-3499.2532L13694.7774,-3499.2594L13694.761,-3499.2747L13694.7241,-3499.3132L13694.7199,-3499.3175L13694.7056,-3499.3293L13694.6933,-3499.3372L13694.6755,-3499.3445L13694.6536,-3499.349L13694.6201,-3499.3502L13694.3964,-3499.3502"/>
<path content="3,大府市,中央西コース右まわり,3.0,3.0,3.0," xlink:title="3" d="M13695.2117,-3499.74L13695.2164,-3499.731L13695.2274,-3499.6899L13695.229,-3499.6768L13695.2189,-3499.6578"/>
<path content="3,大府市,中央西コース右まわり,3.0,3.0,3.0," xlink:title="3" d="M13695.2117,-3499.74L13695.2417,-3499.7454L13695.2601,-3499.7527L13695.3611,-3499.813"/>
<path content="3,大府市,中央西コース右まわり,3.0,3.0,3.0," xlink:title="3" d="M13694.973,-3499.9137L13694.9637,-3499.8499L13694.9566,-3499.7456L13694.9552,-3499.7287L13694.9552,-3499.6826L13694.9579,-3499.6674L13694.9654,-3499.6442L13694.9826,-3499.6099L13695.0373,-3499.5152L13695.0674,-3499.46L13695.0845,-3499.4245"/>
<path content="3,大府市,中央西コース右まわり,3.0,3.0,3.0," xlink:title="3" d="M13694.973,-3499.9137L13694.9888,-3499.9131L13694.9949,-3499.9119L13695.0048,-3499.9082L13695.0195,-3499.9028L13695.0455,-3499.8899L13695.0566,-3499.885L13695.0595,-3499.8838L13695.0701,-3499.8792L13695.0947,-3499.8628L13695.1264,-3499.8289L13695.1522,-3499.811L13695.1994,-3499.7569L13695.2117,-3499.74"/>
<path content="3,大府市,中央西コース右まわり,3.0,3.0,3.0," xlink:title="3" d="M13695.1899,-3501.2862L13695.209,-3501.2306"/>
<path content="3,大府市,中央西コース右まわり,3.0,3.0,3.0," xlink:title="3" d="M13695.1899,-3501.2862L13695.2008,-3501.2899L13695.2474,-3501.3054L13695.2583,-3501.309L13695.2946,-3501.3213L13695.324,-3501.3312L13695.3446,-3501.3366"/>
<path content="3,大府市,中央西コース右まわり,3.0,3.0,3.0," xlink:title="3" d="M13695.3446,-3501.3366L13695.3528,-3501.3159L13695.3871,-3501.2369L13695.4027,-3501.1974L13695.4105,-3501.1782L13695.4283,-3501.1342L13695.4542,-3501.0597L13695.4828,-3500.9988L13695.4872,-3500.9883L13695.5321,-3500.9057L13695.5596,-3500.8572L13695.5837,-3500.8156L13695.5968,-3500.7926L13695.6247,-3500.7438L13695.5512,-3500.7323L13695.5178,-3500.7279L13695.4977,-3500.7252L13695.4796,-3500.7238L13695.4441,-3500.7271L13695.4294,-3500.7309L13695.4166,-3500.7352L13695.4021,-3500.7407L13695.388,-3500.7464L13695.3784,-3500.7514L13695.3694,-3500.7579L13695.3585,-3500.7668L13695.3458,-3500.7779L13695.2873,-3500.8221L13695.2607,-3500.8516L13695.2397,-3500.8747L13695.2355,-3500.8802L13695.2106,-3500.8654L13695.1964,-3500.8576L13695.1681,-3500.842L13695.1452,-3500.8285L13695.1213,-3500.8114L13695.1191,-3500.81L13695.1108,-3500.8L13695.108,-3500.7967L13695.0968,-3500.7745L13695.0905,-3500.7569L13695.0856,-3500.7441L13695.0542,-3500.647L13695.0778,-3500.6402L13695.1429,-3500.6188L13695.1579,-3500.6139L13695.2334,-3500.5896L13695.2879,-3500.573L13695.2848,-3500.5663L13695.2767,-3500.5536L13695.2671,-3500.5446L13695.2496,-3500.5312L13695.2426,-3500.5223L13695.2349,-3500.5039L13695.2143,-3500.428L13695.1899,-3500.4042L13695.1587,-3500.3855L13695.1322,-3500.3722L13695.1086,-3500.3641L13695.0894,-3500.3553L13695.0732,-3500.3442L13695.0547,-3500.3248L13695.0338,-3500.3011L13694.9978,-3500.2599L13694.9445,-3500.1982L13694.9148,-3500.1338L13694.9018,-3500.0949L13694.9011,-3500.0893L13694.9011,-3500.0572L13694.9053,-3500.0386L13694.9262,-3500.0017L13694.9635,-3499.9369L13694.9696,-3499.9244L13694.973,-3499.9137"/>
<path content="3,大府市,中央西コース右まわり,3.0,3.0,3.0," xlink:title="3" d="M13695.3446,-3501.3366L13695.3712,-3501.3437L13695.4376,-3501.3622L13695.4463,-3501.3651L13695.5118,-3501.3877L13695.5156,-3501.389L13695.5776,-3501.4114L13695.6241,-3501.4277L13695.6517,-3501.4367L13695.6708,-3501.4411L13695.6959,-3501.4389L13695.7026,-3501.4374L13695.7081,-3501.4362L13695.7103,-3501.4358L13695.732,-3501.4316L13695.7582,-3501.4271"/>
<path content="3,大府市,中央西コース右まわり,3.0,3.0,3.0," xlink:title="3" d="M13695.7582,-3501.4271L13695.7427,-3501.5382L13695.7143,-3501.6304L13695.6386,-3501.7051"/>
<path content="3,大府市,中央西コース右まわり,3.0,3.0,3.0," xlink:title="3" d="M13695.7582,-3501.4271L13695.7939,-3501.419L13695.8686,-3501.4035L13695.884,-3501.4006L13695.9283,-3501.3976L13695.9953,-3501.3903L13695.9982,-3501.39L13696.0679,-3501.3821L13696.0839,-3501.3807L13696.0974,-3501.3516L13696.1336,-3501.2785L13696.1685,-3501.2094L13696.1787,-3501.1908L13696.2093,-3501.2138L13696.2306,-3501.2312L13696.2889,-3501.1943L13696.3901,-3501.1197L13696.3969,-3501.1254L13696.4298,-3501.1558L13696.4517,-3501.1794L13696.4517,-3501.1806L13696.4593,-3501.1901L13696.3644,-3501.2734L13696.3257,-3501.3073L13696.2854,-3501.3445L13696.2053,-3501.4137L13696.1662,-3501.4487L13696.0798,-3501.5263L13695.9988,-3501.5945L13695.9969,-3501.5994L13695.9852,-3501.6316L13695.9709,-3501.6712L13695.964,-3501.6955L13695.9635,-3501.6954L13695.9451,-3501.7084L13695.9153,-3501.7288L13695.8841,-3501.7501L13695.7924,-3501.8114L13695.7794,-3501.8199L13695.7184,-3501.8605L13695.652,-3501.9056L13695.6427,-3501.9103L13695.6116,-3501.9328L13695.5995,-3501.9408L13695.5759,-3501.9591L13695.5521,-3501.9724L13695.4962,-3502.0106L13695.4264,-3502.0474L13695.3553,-3502.0884L13695.2793,-3502.1211L13695.2759,-3502.252L13695.2739,-3502.3301L13695.2729,-3502.3649L13695.2717,-3502.4159L13695.2711,-3502.4414"/>
<path content="3,大府市,中央西コース右まわり,3.0,3.0,3.0," xlink:title="3" d="M13694.6846,-3502.0892L13694.7071,-3502.0804L13694.7215,-3502.0739L13694.7311,-3502.0672L13694.7407,-3502.0582L13694.7462,-3502.0486L13694.7517,-3502.0277L13694.753,-3502.003L13694.7578,-3501.9906L13694.7791,-3501.9675L13694.7907,-3501.9585L13694.8044,-3501.95L13694.8144,-3501.8877L13694.8459,-3501.8074"/>
<path content="3,大府市,中央西コース右まわり,3.0,3.0,3.0," xlink:title="3" d="M13694.6846,-3502.0892L13694.6847,-3502.0897L13694.6894,-3502.1077L13694.7304,-3502.1089L13694.7489,-3502.1111L13694.7564,-3502.1134L13694.7818,-3502.1179L13694.7968,-3502.1196L13694.8098,-3502.1196L13694.8181,-3502.1179L13694.8269,-3502.1145L13694.8461,-3502.101L13694.8537,-3502.0942L13694.8776,-3502.0728L13694.8838,-3502.0711L13695.0146,-3502.0391L13695.0221,-3502.0368L13695.0372,-3502.0351L13695.1136,-3502.0385L13695.2815,-3502.0381L13695.2869,-3501.9311L13695.2884,-3501.8289L13695.2892,-3501.8027L13695.2905,-3501.7765L13695.2929,-3501.7436L13695.2952,-3501.6994L13695.3023,-3501.6399L13695.3056,-3501.6109L13695.3186,-3501.5413L13695.3269,-3501.4498L13695.3299,-3501.4222L13695.3378,-3501.367L13695.3411,-3501.3454L13695.3446,-3501.3366"/>
<path content="3,大府市,中央西コース右まわり,3.0,3.0,3.0," xlink:title="3" d="M13694.2344,-3502.4414L13694.2315,-3502.4351L13694.2224,-3502.4191L13694.207,-3502.3895L13694.2054,-3502.3828L13694.204,-3502.3737L13694.2041,-3502.3607L13694.2142,-3502.221L13694.2153,-3502.1177L13694.567,-3502.1009L13694.6846,-3502.0892"/>
<path content="3,大府市,中央西コース左まわり,4.0,4.0,4.0," xlink:title="3" d="M13694.3964,-3499.3502L13694.3037,-3499.3492"/>
<path content="3,大府市,中央西コース左まわり,4.0,4.0,4.0," xlink:title="3" d="M13694.3964,-3499.3502L13694.3937,-3499.3687L13694.3934,-3499.3795L13694.3932,-3499.395L13694.392,-3499.5006L13694.3909,-3499.602L13694.3903,-3499.6177L13694.3903,-3499.6386L13694.3895,-3499.7674L13694.3892,-3499.9643L13694.3887,-3500.0082L13694.3889,-3500.0848L13694.3882,-3500.1017L13694.3888,-3500.1189L13694.3888,-3500.1815L13694.3888,-3500.2607L13694.3888,-3500.2679L13694.38,-3500.391L13694.387,-3500.5007L13694.3869,-3500.5067L13694.3868,-3500.5145L13694.3868,-3500.5402L13694.3876,-3500.5561L13694.2742,-3500.5571L13694.1926,-3500.5565L13694.1952,-3500.5632L13694.2041,-3500.5883L13694.2122,-3500.6119L13694.2178,-3500.6352L13694.217,-3500.6468L13694.215,-3500.6552L13694.2096,-3500.6665L13694.2015,-3500.6762L13694.1935,-3500.683L13694.1538,-3500.7093L13694.145,-3500.7152L13694.1369,-3500.7231L13694.1358,-3500.7846L13694.1709,-3500.8586L13694.2076,-3500.9653L13694.2235,-3501.0172L13694.2564,-3501.0127L13694.2896,-3501.0097L13694.3101,-3501.0097L13694.3139,-3501.0097L13694.3621,-3501.0126L13694.3879,-3501.0186L13694.4077,-3501.0271L13694.4087,-3501.0237L13694.4285,-3501.0267L13694.4839,-3501.0346L13694.5278,-3501.0425L13694.5661,-3501.0492L13694.6223,-3501.0594L13694.7564,-3501.0819L13694.8194,-3501.0898L13694.9721,-3501.1084L13694.9888,-3501.1104L13695.0057,-3501.1123L13695.0188,-3501.1138L13695.0354,-3501.1159L13695.0495,-3501.1174L13695.0632,-3501.1197L13695.0762,-3501.1202L13695.0777,-3501.1203L13695.0665,-3501.1521L13695.0363,-3501.2376L13695.0761,-3501.2486L13695.0801,-3501.2499L13695.1225,-3501.2633L13695.1705,-3501.2796L13695.1899,-3501.2862"/>
<path content="3,大府市,中央西コース左まわり,4.0,4.0,4.0," xlink:title="3" d="M13695.0845,-3499.4245L13695.0056,-3499.4068"/>
<path content="3,大府市,中央西コース左まわり,4.0,4.0,4.0," xlink:title="3" d="M13695.0845,-3499.4245L13695.1077,-3499.3704L13695.1214,-3499.331L13695.1515,-3499.2296L13695.1556,-3499.2189L13695.1064,-3499.1936L13695.1002,-3499.1919L13695.0879,-3499.1919L13695.0464,-3499.1996L13695.0332,-3499.2042L13694.9976,-3499.2144L13694.9607,-3499.2212L13694.9121,-3499.2245L13694.8861,-3499.2285L13694.8417,-3499.2369L13694.8358,-3499.2387L13694.7876,-3499.2532L13694.7774,-3499.2594L13694.761,-3499.2747L13694.7241,-3499.3132L13694.7199,-3499.3175L13694.7056,-3499.3293L13694.6933,-3499.3372L13694.6755,-3499.3445L13694.6536,-3499.349L13694.6201,-3499.3502L13694.3964,-3499.3502"/>
<path content="3,大府市,中央西コース左まわり,4.0,4.0,4.0," xlink:title="3" d="M13695.2117,-3499.74L13695.2164,-3499.731L13695.2274,-3499.6899L13695.229,-3499.6768L13695.2189,-3499.6578"/>
<path content="3,大府市,中央西コース左まわり,4.0,4.0,4.0," xlink:title="3" d="M13695.2117,-3499.74L13695.2417,-3499.7454L13695.2601,-3499.7527L13695.3611,-3499.813"/>
<path content="3,大府市,中央西コース左まわり,4.0,4.0,4.0," xlink:title="3" d="M13694.973,-3499.9137L13694.9637,-3499.8499L13694.9566,-3499.7456L13694.9552,-3499.7287L13694.9552,-3499.6826L13694.9579,-3499.6674L13694.9654,-3499.6442L13694.9826,-3499.6099L13695.0373,-3499.5152L13695.0674,-3499.46L13695.0845,-3499.4245"/>
<path content="3,大府市,中央西コース左まわり,4.0,4.0,4.0," xlink:title="3" d="M13694.973,-3499.9137L13694.9888,-3499.9131L13694.9949,-3499.9119L13695.0048,-3499.9082L13695.0195,-3499.9028L13695.0455,-3499.8899L13695.0566,-3499.885L13695.0595,-3499.8838L13695.0701,-3499.8792L13695.0947,-3499.8628L13695.1264,-3499.8289L13695.1522,-3499.811L13695.1994,-3499.7569L13695.2117,-3499.74"/>
<path content="3,大府市,中央西コース左まわり,4.0,4.0,4.0," xlink:title="3" d="M13695.1899,-3501.2862L13695.209,-3501.2306"/>
<path content="3,大府市,中央西コース左まわり,4.0,4.0,4.0," xlink:title="3" d="M13695.1899,-3501.2862L13695.2008,-3501.2899L13695.2474,-3501.3054L13695.2583,-3501.309L13695.2946,-3501.3213L13695.324,-3501.3312L13695.3446,-3501.3366"/>
<path content="3,大府市,中央西コース左まわり,4.0,4.0,4.0," xlink:title="3" d="M13695.3446,-3501.3366L13695.3528,-3501.3159L13695.3871,-3501.2369L13695.4027,-3501.1974L13695.4105,-3501.1782L13695.4283,-3501.1342L13695.4542,-3501.0597L13695.4828,-3500.9988L13695.4872,-3500.9883L13695.5321,-3500.9057L13695.5596,-3500.8572L13695.5837,-3500.8156L13695.5968,-3500.7926L13695.6247,-3500.7438L13695.5512,-3500.7323L13695.5178,-3500.7279L13695.4977,-3500.7252L13695.4796,-3500.7238L13695.4441,-3500.7271L13695.4294,-3500.7309L13695.4166,-3500.7352L13695.4021,-3500.7407L13695.388,-3500.7464L13695.3784,-3500.7514L13695.3694,-3500.7579L13695.3585,-3500.7668L13695.3458,-3500.7779L13695.2873,-3500.8221L13695.2607,-3500.8516L13695.2397,-3500.8747L13695.2355,-3500.8802L13695.2106,-3500.8654L13695.1964,-3500.8576L13695.1681,-3500.842L13695.1452,-3500.8285L13695.1213,-3500.8114L13695.1191,-3500.81L13695.1108,-3500.8L13695.108,-3500.7967L13695.0968,-3500.7745L13695.0905,-3500.7569L13695.0856,-3500.7441L13695.0542,-3500.647L13695.0778,-3500.6402L13695.1429,-3500.6188L13695.1579,-3500.6139L13695.2334,-3500.5896L13695.2879,-3500.573L13695.2848,-3500.5663L13695.2767,-3500.5536L13695.2671,-3500.5446L13695.2496,-3500.5312L13695.2426,-3500.5223L13695.2349,-3500.5039L13695.2143,-3500.428L13695.1899,-3500.4042L13695.1587,-3500.3855L13695.1322,-3500.3722L13695.1086,-3500.3641L13695.0894,-3500.3553L13695.0732,-3500.3442L13695.0547,-3500.3248L13695.0338,-3500.3011L13694.9978,-3500.2599L13694.9445,-3500.1982L13694.9148,-3500.1338L13694.9018,-3500.0949L13694.9011,-3500.0893L13694.9011,-3500.0572L13694.9053,-3500.0386L13694.9262,-3500.0017L13694.9635,-3499.9369L13694.9696,-3499.9244L13694.973,-3499.9137"/>
<path content="3,大府市,中央西コース左まわり,4.0,4.0,4.0," xlink:title="3" d="M13695.3446,-3501.3366L13695.3712,-3501.3437L13695.4376,-3501.3622L13695.4463,-3501.3651L13695.5118,-3501.3877L13695.5156,-3501.389L13695.5776,-3501.4114L13695.6241,-3501.4277L13695.6517,-3501.4367L13695.6708,-3501.4411L13695.6959,-3501.4389L13695.7026,-3501.4374L13695.7081,-3501.4362L13695.7103,-3501.4358L13695.732,-3501.4316L13695.7582,-3501.4271"/>
<path content="3,大府市,中央西コース左まわり,4.0,4.0,4.0," xlink:title="3" d="M13695.7582,-3501.4271L13695.7939,-3501.419L13695.8686,-3501.4035L13695.884,-3501.4006L13695.9283,-3501.3976L13695.9953,-3501.3903L13695.9982,-3501.39L13696.0679,-3501.3821L13696.0839,-3501.3807L13696.0974,-3501.3516L13696.1336,-3501.2785L13696.1685,-3501.2094L13696.1787,-3501.1908L13696.2093,-3501.2138L13696.2306,-3501.2312L13696.2889,-3501.1943L13696.3901,-3501.1197L13696.3969,-3501.1254L13696.4298,-3501.1558L13696.4517,-3501.1794L13696.4517,-3501.1806L13696.4593,-3501.1901L13696.3644,-3501.2734L13696.3257,-3501.3073L13696.2854,-3501.3445L13696.2053,-3501.4137L13696.1662,-3501.4487L13696.0798,-3501.5263L13695.9988,-3501.5945L13695.9969,-3501.5994L13695.9852,-3501.6316L13695.9709,-3501.6712L13695.964,-3501.6955L13695.9635,-3501.6954L13695.9451,-3501.7084L13695.9153,-3501.7288L13695.8841,-3501.7501L13695.7924,-3501.8114L13695.7794,-3501.8199L13695.7184,-3501.8605L13695.652,-3501.9056L13695.6427,-3501.9103L13695.6116,-3501.9328L13695.5995,-3501.9408L13695.5759,-3501.9591L13695.5521,-3501.9724L13695.4962,-3502.0106L13695.4264,-3502.0474L13695.3553,-3502.0884L13695.2793,-3502.1211L13695.2759,-3502.252L13695.2739,-3502.3301L13695.2729,-3502.3649L13695.2717,-3502.4159L13695.2711,-3502.4414"/>
<path content="3,大府市,中央西コース左まわり,4.0,4.0,4.0," xlink:title="3" d="M13695.6386,-3501.7051L13695.7143,-3501.6304L13695.7427,-3501.5382L13695.7582,-3501.4271"/>
<path content="3,大府市,中央西コース左まわり,4.0,4.0,4.0," xlink:title="3" d="M13694.6846,-3502.0892L13694.7071,-3502.0804L13694.7215,-3502.0739L13694.7311,-3502.0672L13694.7407,-3502.0582L13694.7462,-3502.0486L13694.7517,-3502.0277L13694.753,-3502.003L13694.7578,-3501.9906L13694.7791,-3501.9675L13694.7907,-3501.9585L13694.8044,-3501.95L13694.8144,-3501.8877L13694.8459,-3501.8074"/>
<path content="3,大府市,中央西コース左まわり,4.0,4.0,4.0," xlink:title="3" d="M13694.6846,-3502.0892L13694.6847,-3502.0897L13694.6894,-3502.1077L13694.7304,-3502.1089L13694.7489,-3502.1111L13694.7564,-3502.1134L13694.7818,-3502.1179L13694.7968,-3502.1196L13694.8098,-3502.1196L13694.8181,-3502.1179L13694.8269,-3502.1145L13694.8461,-3502.101L13694.8537,-3502.0942L13694.8776,-3502.0728L13694.8838,-3502.0711L13695.0146,-3502.0391L13695.0221,-3502.0368L13695.0372,-3502.0351L13695.1136,-3502.0385L13695.2815,-3502.0381L13695.2869,-3501.9311L13695.2884,-3501.8289L13695.2892,-3501.8027L13695.2905,-3501.7765L13695.2929,-3501.7436L13695.2952,-3501.6994L13695.3023,-3501.6399L13695.3056,-3501.6109L13695.3186,-3501.5413L13695.3269,-3501.4498L13695.3299,-3501.4222L13695.3378,-3501.367L13695.3411,-3501.3454L13695.3446,-3501.3366"/>
<path content="3,大府市,中央西コース左まわり,4.0,4.0,4.0," xlink:title="3" d="M13694.2344,-3502.4414L13694.2315,-3502.4351L13694.2224,-3502.4191L13694.207,-3502.3895L13694.2054,-3502.3828L13694.204,-3502.3737L13694.2041,-3502.3607L13694.2142,-3502.221L13694.2153,-3502.1177L13694.567,-3502.1009L13694.6846,-3502.0892"/>
<path content="3,大府市,東コース右まわり,3.0,3.0,3.0," xlink:title="3" d="M13697.6468,-3500.4372L13697.7389,-3500.3592L13697.6989,-3500.3279"/>
<path content="3,大府市,東コース右まわり,3.0,3.0,3.0," xlink:title="3" d="M13697.6468,-3500.4372L13697.6397,-3500.4432L13697.5363,-3500.535L13697.499,-3500.5848L13697.476,-3500.6156L13697.4219,-3500.6522L13697.3856,-3500.624L13697.3069,-3500.5621L13697.2398,-3500.6189L13697.1745,-3500.6738L13697.1455,-3500.6324L13697.1255,-3500.6036L13697.1254,-3500.6037L13697.1172,-3500.6144L13697.0494,-3500.6724L13696.9798,-3500.7247L13696.9488,-3500.762L13696.8263,-3500.8679L13696.8256,-3500.8685L13696.8167,-3500.8769L13696.7879,-3500.9023L13696.7386,-3500.9462L13696.7281,-3500.9543L13696.7216,-3500.9601L13696.6235,-3501.0474L13696.5666,-3501.0967"/>
<path content="3,大府市,東コース右まわり,3.0,3.0,3.0," xlink:title="3" d="M13696.5666,-3501.0967L13696.5718,-3501.1007L13696.6021,-3501.1407L13696.6388,-3501.1869L13696.6462,-3501.1962L13696.6855,-3501.2498L13696.7093,-3501.287L13696.7328,-3501.3283L13696.741,-3501.3516L13696.7566,-3501.4082L13696.7652,-3501.439L13696.7704,-3501.458L13696.7768,-3501.4898L13696.7887,-3501.5428L13696.8031,-3501.5972L13696.8027,-3501.6972L13696.8043,-3501.7338L13696.8049,-3501.7473L13696.807,-3501.7919L13696.8109,-3501.8255L13696.8131,-3501.8831L13696.8142,-3501.8939L13696.8244,-3501.9894L13696.8246,-3501.9921L13696.8301,-3502.0435L13696.8434,-3502.1782L13696.8557,-3502.2682L13696.8683,-3502.3337L13696.9173,-3502.4132L13696.9341,-3502.4414"/>
<path content="3,大府市,東コース右まわり,3.0,3.0,3.0," xlink:title="3" d="M13697.5577,-3501.1099L13697.5153,-3501.105L13697.4817,-3501.0993"/>
<path content="3,大府市,東コース右まわり,3.0,3.0,3.0," xlink:title="3" d="M13697.5577,-3501.1099L13697.5634,-3501.0706L13697.5637,-3501.0685L13697.5691,-3501.0369L13697.576,-3500.9986L13697.5888,-3500.9585L13697.5932,-3500.9446L13697.5993,-3500.9254L13697.6294,-3500.8426L13697.6691,-3500.7435L13697.6732,-3500.735L13697.6896,-3500.7181L13697.7024,-3500.7062L13697.6998,-3500.7059L13697.691,-3500.7052L13697.6728,-3500.7052L13697.6678,-3500.7063L13697.6626,-3500.7109L13697.6607,-3500.7094L13697.6909,-3500.6636L13697.7206,-3500.6224L13697.7539,-3500.5964M13697.7539,-3500.5254L13697.7177,-3500.4953L13697.6468,-3500.4372"/>
<path content="3,大府市,東コース右まわり,3.0,3.0,3.0," xlink:title="3" d="M13696.2889,-3501.1943L13696.2306,-3501.2312L13696.2093,-3501.2138L13696.1787,-3501.1908L13696.1949,-3501.1611L13696.2034,-3501.1454L13696.2253,-3501.1055L13696.2388,-3501.0803L13696.2128,-3501.0696L13696.1915,-3501.0606L13696.145,-3501.0403L13696.1635,-3501.0121L13696.1792,-3500.9834L13696.1936,-3500.9428L13696.1993,-3500.9247L13696.2107,-3500.9061L13696.2404,-3500.8915L13696.2566,-3500.8965L13696.2651,-3500.8992L13696.2939,-3500.9087L13696.3305,-3500.9253L13696.3424,-3500.9335L13696.3908,-3500.9713L13696.4238,-3500.9965L13696.4509,-3501.0133L13696.5106,-3501.0555L13696.5326,-3501.0705L13696.5666,-3501.0967"/>
<path content="3,大府市,東コース右まわり,3.0,3.0,3.0," xlink:title="3" d="M13697.6636,-3501.2685L13697.6554,-3501.2657L13697.576,-3501.2572L13697.5657,-3501.2561L13697.5712,-3501.2121L13697.5773,-3501.1122L13697.5577,-3501.1099"/>
<path content="3,大府市,東コース右まわり,3.0,3.0,3.0," xlink:title="3" d="M13697.6636,-3501.2685L13697.6585,-3501.2949"/>
<path content="3,大府市,東コース右まわり,3.0,3.0,3.0," xlink:title="3" d="M13697.7539,-3502.1351L13697.7504,-3502.1324L13697.6706,-3502.0763L13697.5802,-3501.996L13697.5944,-3501.9684L13697.6272,-3501.9033L13697.6304,-3501.8974L13697.6366,-3501.8857L13697.6922,-3501.7878L13697.7301,-3501.7079L13697.7399,-3501.6957L13697.7539,-3501.6765M13697.7539,-3501.2795L13697.6934,-3501.2726L13697.6636,-3501.2685"/>
<path content="3,大府市,東コース左まわり,4.0,4.0,4.0," xlink:title="3" d="M13697.6468,-3500.4372L13697.7389,-3500.3592L13697.6989,-3500.3279"/>
<path content="3,大府市,東コース左まわり,4.0,4.0,4.0," xlink:title="3" d="M13697.6468,-3500.4372L13697.6397,-3500.4432L13697.5363,-3500.535L13697.499,-3500.5848L13697.476,-3500.6156L13697.4219,-3500.6522L13697.3856,-3500.624L13697.3069,-3500.5621L13697.2398,-3500.6189L13697.1745,-3500.6738L13697.1455,-3500.6324L13697.1255,-3500.6036L13697.1254,-3500.6037L13697.1172,-3500.6144L13697.0494,-3500.6724L13696.9798,-3500.7247L13696.9488,-3500.762L13696.8263,-3500.8679L13696.8256,-3500.8685L13696.8167,-3500.8769L13696.7879,-3500.9023L13696.7386,-3500.9462L13696.7281,-3500.9543L13696.7216,-3500.9601L13696.6235,-3501.0474L13696.5666,-3501.0967"/>
<path content="3,大府市,東コース左まわり,4.0,4.0,4.0," xlink:title="3" d="M13696.5666,-3501.0967L13696.5718,-3501.1007L13696.6021,-3501.1407L13696.6388,-3501.1869L13696.6462,-3501.1962L13696.6855,-3501.2498L13696.7093,-3501.287L13696.7328,-3501.3283L13696.741,-3501.3516L13696.7566,-3501.4082L13696.7652,-3501.439L13696.7704,-3501.458L13696.7768,-3501.4898L13696.7887,-3501.5428L13696.8031,-3501.5972L13696.8027,-3501.6972L13696.8043,-3501.7338L13696.8049,-3501.7473L13696.807,-3501.7919L13696.8109,-3501.8255L13696.8131,-3501.8831L13696.8142,-3501.8939L13696.8244,-3501.9894L13696.8246,-3501.9921L13696.8301,-3502.0435L13696.8434,-3502.1782L13696.8557,-3502.2682L13696.8683,-3502.3337L13696.9173,-3502.4132L13696.9341,-3502.4414"/>
<path content="3,大府市,東コース左まわり,4.0,4.0,4.0," xlink:title="3" d="M13697.5577,-3501.1099L13697.5153,-3501.105L13697.4817,-3501.0993"/>
<path content="3,大府市,東コース左まわり,4.0,4.0,4.0," xlink:title="3" d="M13697.5577,-3501.1099L13697.5634,-3501.0706L13697.5637,-3501.0685L13697.5691,-3501.0369L13697.576,-3500.9986L13697.5888,-3500.9585L13697.5932,-3500.9446L13697.5993,-3500.9254L13697.6294,-3500.8426L13697.6691,-3500.7435L13697.6732,-3500.735L13697.6896,-3500.7181L13697.7024,-3500.7062L13697.6998,-3500.7059L13697.691,-3500.7052L13697.6728,-3500.7052L13697.6678,-3500.7063L13697.6626,-3500.7109L13697.6607,-3500.7094L13697.6909,-3500.6636L13697.7206,-3500.6224L13697.7539,-3500.5964M13697.7539,-3500.5254L13697.7177,-3500.4953L13697.6468,-3500.4372"/>
<path content="3,大府市,東コース左まわり,4.0,4.0,4.0," xlink:title="3" d="M13696.2889,-3501.1943L13696.2306,-3501.2312L13696.2093,-3501.2138L13696.1787,-3501.1908L13696.1949,-3501.1611L13696.2034,-3501.1454L13696.2253,-3501.1055L13696.2388,-3501.0803L13696.2128,-3501.0696L13696.1915,-3501.0606L13696.145,-3501.0403L13696.1635,-3501.0121L13696.1792,-3500.9834L13696.1936,-3500.9428L13696.1993,-3500.9247L13696.2107,-3500.9061L13696.2404,-3500.8915L13696.2566,-3500.8965L13696.2651,-3500.8992L13696.2939,-3500.9087L13696.3305,-3500.9253L13696.3424,-3500.9335L13696.3908,-3500.9713L13696.4238,-3500.9965L13696.4509,-3501.0133L13696.5106,-3501.0555L13696.5326,-3501.0705L13696.5666,-3501.0967"/>
<path content="3,大府市,東コース左まわり,4.0,4.0,4.0," xlink:title="3" d="M13697.6636,-3501.2685L13697.6554,-3501.2657L13697.576,-3501.2572L13697.5657,-3501.2561L13697.5712,-3501.2121L13697.5773,-3501.1122L13697.5577,-3501.1099"/>
<path content="3,大府市,東コース左まわり,4.0,4.0,4.0," xlink:title="3" d="M13697.6636,-3501.2685L13697.6585,-3501.2949"/>
<path content="3,大府市,東コース左まわり,4.0,4.0,4.0," xlink:title="3" d="M13697.7539,-3502.1351L13697.7504,-3502.1324L13697.6706,-3502.0763L13697.5802,-3501.996L13697.5944,-3501.9684L13697.6272,-3501.9033L13697.6304,-3501.8974L13697.6366,-3501.8857L13697.6922,-3501.7878L13697.7301,-3501.7079L13697.7399,-3501.6957L13697.7539,-3501.6765M13697.7539,-3501.2795L13697.6934,-3501.2726L13697.6636,-3501.2685"/>
<path content="3,大府市,西コース右まわり,3.0,3.0,3.0," xlink:title="3" d="M13693.3594,-3499.9308L13693.3883,-3499.9113L13693.4165,-3499.8865L13693.5579,-3499.8239L13693.5825,-3499.8144L13693.614,-3499.8036L13693.6338,-3499.7986L13693.6625,-3499.7896L13693.673,-3499.7882L13693.681,-3499.789L13693.7063,-3499.7986L13693.7229,-3499.8034L13693.7313,-3499.8032L13693.7439,-3499.8025L13693.7747,-3499.7957L13693.8191,-3499.7834L13693.8239,-3499.7828L13693.852,-3499.7744L13693.8561,-3499.7828L13693.8848,-3499.8301L13693.893,-3499.8403L13693.9129,-3499.8566L13693.9241,-3499.8642L13693.9444,-3499.8893L13693.9546,-3499.8927L13693.9929,-3499.8735L13694.0024,-3499.8679L13694.0312,-3499.851L13694.0619,-3499.8335L13694.0715,-3499.8267L13694.0838,-3499.8189L13694.1782,-3499.7648L13694.2206,-3499.7355L13694.2453,-3499.7128L13694.2593,-3499.6919L13694.3171,-3499.6228L13694.3219,-3499.6177L13694.3903,-3499.6177"/>
<path content="3,大府市,西コース右まわり,3.0,3.0,3.0," xlink:title="3" d="M13694.3903,-3499.6177L13694.3909,-3499.602L13694.392,-3499.5006L13694.3932,-3499.395L13694.3934,-3499.3795L13694.3937,-3499.3687L13694.3964,-3499.3502L13694.3037,-3499.3492"/>
<path content="3,大府市,西コース右まわり,3.0,3.0,3.0," xlink:title="3" d="M13694.3903,-3499.6177L13694.3903,-3499.6386L13694.3895,-3499.7674L13694.3892,-3499.9643L13694.3887,-3500.0082L13694.3889,-3500.0848L13694.3882,-3500.1017L13694.4723,-3500.1186L13694.5045,-3500.1253L13694.5489,-3500.1338L13694.5818,-3500.1422L13694.6061,-3500.1477L13694.6529,-3500.1535L13694.7014,-3500.1586L13694.7206,-3500.1648L13694.7363,-3500.1721L13694.7555,-3500.1839L13694.7872,-3500.2125L13694.8478,-3500.242L13694.9566,-3500.3034L13694.9677,-3500.3072"/>
<path content="3,大府市,西コース右まわり,3.0,3.0,3.0," xlink:title="3" d="M13695.2117,-3499.74L13695.2164,-3499.731L13695.2274,-3499.6899L13695.229,-3499.6768L13695.2189,-3499.6578"/>
<path content="3,大府市,西コース右まわり,3.0,3.0,3.0," xlink:title="3" d="M13695.2117,-3499.74L13695.2417,-3499.7454L13695.2601,-3499.7527L13695.3611,-3499.813"/>
<path content="3,大府市,西コース右まわり,3.0,3.0,3.0," xlink:title="3" d="M13695.1522,-3499.811L13695.1994,-3499.7569L13695.2117,-3499.74"/>
<path content="3,大府市,西コース右まわり,3.0,3.0,3.0," xlink:title="3" d="M13695.1522,-3499.811L13695.1264,-3499.8289L13695.0947,-3499.8628L13695.0701,-3499.8792L13695.0595,-3499.8838L13695.0566,-3499.885L13695.0455,-3499.8899L13695.0195,-3499.9028L13695.0048,-3499.9082L13694.9949,-3499.9119L13694.9888,-3499.9131L13694.973,-3499.9137L13694.9696,-3499.9244L13694.9635,-3499.9369L13694.9262,-3500.0017L13694.9053,-3500.0386L13694.9011,-3500.0572L13694.9011,-3500.0893L13694.9018,-3500.0949L13694.9148,-3500.1338L13694.9237,-3500.1535L13694.9445,-3500.1982L13694.9978,-3500.2599L13695.0338,-3500.3011"/>
<path content="3,大府市,西コース右まわり,3.0,3.0,3.0," xlink:title="3" d="M13695.0338,-3500.3011L13695.0547,-3500.3248L13695.0732,-3500.3442L13695.0894,-3500.3553L13695.1086,-3500.3641L13695.1322,-3500.3722L13695.1587,-3500.3855L13695.1899,-3500.4042L13695.2143,-3500.428L13695.2349,-3500.5039L13695.2426,-3500.5223L13695.2538,-3500.504L13695.2767,-3500.4628L13695.2896,-3500.4379L13695.298,-3500.4216L13695.312,-3500.3973L13695.3249,-3500.3765L13695.3566,-3500.3248L13695.3579,-3500.3221L13695.3644,-3500.2951L13695.3738,-3500.2341L13695.3573,-3500.1868L13695.3409,-3500.1485L13695.2637,-3499.9789L13695.2534,-3499.9519L13695.2507,-3499.9389L13695.2513,-3499.9226L13695.2548,-3499.9107L13695.2585,-3499.8961L13695.2578,-3499.8849L13695.2548,-3499.8775L13695.2478,-3499.869L13695.2358,-3499.8614L13695.2162,-3499.8522L13695.1774,-3499.8293L13695.1522,-3499.811"/>
<path content="3,大府市,西コース右まわり,3.0,3.0,3.0," xlink:title="3" d="M13694.9677,-3500.3072L13694.9778,-3500.3107L13694.986,-3500.3124L13695.001,-3500.3124L13695.0174,-3500.3073L13695.0243,-3500.3034L13695.0338,-3500.3011"/>
<path content="3,大府市,西コース右まわり,3.0,3.0,3.0," xlink:title="3" d="M13694.9677,-3500.3072L13694.9329,-3500.3346L13694.8902,-3500.3557L13694.9126,-3500.4025L13694.9756,-3500.4972L13694.9742,-3500.5062"/>
<path content="3,大府市,西コース右まわり,3.0,3.0,3.0," xlink:title="3" d="M13694.9742,-3500.5062L13695.0158,-3500.5099"/>
<path content="3,大府市,西コース右まわり,3.0,3.0,3.0," xlink:title="3" d="M13694.9742,-3500.5062L13694.9694,-3500.5316L13694.9468,-3500.558L13694.9366,-3500.571L13694.9256,-3500.5822L13694.9253,-3500.5833L13694.9411,-3500.5843L13694.9938,-3500.5866L13695.0219,-3500.5876L13695.0298,-3500.5887L13695.0368,-3500.6019L13695.0542,-3500.647L13695.0778,-3500.6402L13695.1429,-3500.6188L13695.1579,-3500.6139L13695.2334,-3500.5896L13695.2879,-3500.573L13695.3004,-3500.5696L13695.3371,-3500.5647L13695.3464,-3500.5645L13695.3869,-3500.5634L13695.389,-3500.5633L13695.4021,-3500.5625L13695.4196,-3500.5604L13695.4514,-3500.5529L13695.4748,-3500.5454L13695.5156,-3500.5302L13695.5432,-3500.5206L13695.5476,-3500.5192L13695.6457,-3500.4888L13695.7019,-3500.4872L13695.7563,-3500.4872L13695.7714,-3500.4878L13695.7938,-3500.4886L13695.8401,-3500.4921L13695.8801,-3500.499L13695.9657,-3500.5185L13695.9709,-3500.5197L13695.9736,-3500.5203L13695.9958,-3500.5252L13696.0126,-3500.5292L13696.0213,-3500.5308L13696.0331,-3500.5328L13696.0465,-3500.5346L13696.0895,-3500.542L13696.1574,-3500.5433L13696.2038,-3500.5454L13696.2298,-3500.5476L13696.2556,-3500.5523L13696.3026,-3500.5668L13696.3436,-3500.5835L13696.4117,-3500.6099L13696.4384,-3500.6204L13696.4802,-3500.6369L13696.54,-3500.6616L13696.5924,-3500.6858L13696.5802,-3500.6959L13696.5121,-3500.7639L13696.4661,-3500.8138L13696.4334,-3500.8427L13696.3959,-3500.8802L13696.3768,-3500.8992L13696.3516,-3500.9244L13696.3424,-3500.9335L13696.3286,-3500.9528L13696.3012,-3500.9884L13696.2703,-3501.0335L13696.2388,-3501.0803"/>
<path content="3,大府市,西コース右まわり,3.0,3.0,3.0," xlink:title="3" d="M13696.2388,-3501.0803L13696.2253,-3501.1055L13696.2034,-3501.1454L13696.1949,-3501.1611L13696.1787,-3501.1908L13696.2093,-3501.2138L13696.2306,-3501.2312L13696.2889,-3501.1943"/>
<path content="3,大府市,西コース右まわり,3.0,3.0,3.0," xlink:title="3" d="M13696.2388,-3501.0803L13696.2128,-3501.0696L13696.1915,-3501.0606L13696.145,-3501.0403L13696.1635,-3501.0121L13696.1792,-3500.9834L13696.1936,-3500.9428L13696.1993,-3500.9247L13696.2107,-3500.9061L13696.2404,-3500.8915L13696.0794,-3500.8392L13696.0391,-3500.8253L13695.9927,-3500.8117L13695.9836,-3500.809L13695.9735,-3500.8064L13695.9326,-3500.7974L13695.8786,-3500.9709L13695.8292,-3501.0734L13695.7881,-3501.2424L13695.7582,-3501.4271L13695.732,-3501.4316L13695.7103,-3501.4358L13695.7081,-3501.4362L13695.7026,-3501.4374L13695.6959,-3501.4389L13695.6708,-3501.4411L13695.6517,-3501.4367L13695.6241,-3501.4277L13695.5776,-3501.4114L13695.5253,-3501.3924L13695.5156,-3501.389L13695.5118,-3501.3877L13695.4463,-3501.3651L13695.4376,-3501.3622L13695.3712,-3501.3437L13695.3446,-3501.3366L13695.324,-3501.3312L13695.2946,-3501.3213L13695.2583,-3501.309L13695.2474,-3501.3054L13695.2008,-3501.2899L13695.1899,-3501.2862"/>
<path content="3,大府市,西コース右まわり,3.0,3.0,3.0," xlink:title="3" d="M13695.1899,-3501.2862L13695.1705,-3501.2796L13695.1225,-3501.2633L13695.0801,-3501.2499L13695.0761,-3501.2486L13695.0363,-3501.2376L13695.0665,-3501.1521L13695.0777,-3501.1203L13695.0762,-3501.1202L13695.0632,-3501.1197L13695.0495,-3501.1174L13695.0354,-3501.1159L13695.0188,-3501.1138L13695.0057,-3501.1123L13694.9888,-3501.1104L13694.9721,-3501.1084L13694.8194,-3501.0898L13694.7564,-3501.0819L13694.6223,-3501.0594L13694.5661,-3501.0492L13694.5278,-3501.0425L13694.4839,-3501.0346L13694.4285,-3501.0267L13694.4087,-3501.0237L13694.4077,-3501.0271L13694.3879,-3501.0186L13694.3621,-3501.0126L13694.3139,-3501.0097L13694.3101,-3501.0097L13694.2896,-3501.0097L13694.2564,-3501.0127L13694.2235,-3501.0172L13694.2074,-3501.0182L13694.156,-3501.007L13694.0615,-3500.9918L13694.0397,-3500.9873L13694.0202,-3500.983L13694.0054,-3500.9788L13693.9869,-3500.9726L13693.9294,-3500.9512L13693.8288,-3500.9106L13693.7897,-3500.8926L13693.7651,-3500.9212L13693.757,-3500.9293L13693.7481,-3500.9352L13693.7378,-3500.9366L13693.7275,-3500.9337L13693.7064,-3500.9261L13693.641,-3500.8999L13693.6366,-3500.8984L13693.6322,-3500.8999L13693.6277,-3500.9065L13693.6086,-3500.9374L13693.5994,-3500.9516L13693.5951,-3500.9584L13693.5754,-3500.989L13693.5654,-3501.0046L13693.5486,-3501.0361L13693.5219,-3501.0736L13693.4962,-3501.1161L13693.4943,-3501.1192L13693.4847,-3501.1352L13693.4776,-3501.1451L13693.4734,-3501.1508L13693.4633,-3501.1609L13693.4537,-3501.1551L13693.4427,-3501.1501L13693.4218,-3501.1434L13693.4106,-3501.1413L13693.3998,-3501.142L13693.3875,-3501.147L13693.3768,-3501.1517L13693.3594,-3501.1592"/>
<path content="3,大府市,西コース右まわり,3.0,3.0,3.0," xlink:title="3" d="M13695.1899,-3501.2862L13695.209,-3501.2306"/>
<path content="3,大府市,西コース左まわり,4.0,4.0,4.0," xlink:title="3" d="M13693.3594,-3499.9308L13693.3883,-3499.9113L13693.4165,-3499.8865L13693.5579,-3499.8239L13693.5825,-3499.8144L13693.614,-3499.8036L13693.6338,-3499.7986L13693.6625,-3499.7896L13693.673,-3499.7882L13693.681,-3499.789L13693.7063,-3499.7986L13693.7229,-3499.8034L13693.7313,-3499.8032L13693.7439,-3499.8025L13693.7747,-3499.7957L13693.8191,-3499.7834L13693.8239,-3499.7828L13693.852,-3499.7744L13693.8561,-3499.7828L13693.8848,-3499.8301L13693.893,-3499.8403L13693.9129,-3499.8566L13693.9241,-3499.8642L13693.9444,-3499.8893L13693.9546,-3499.8927L13693.9929,-3499.8735L13694.0024,-3499.8679L13694.0312,-3499.851L13694.0619,-3499.8335L13694.0715,-3499.8267L13694.0838,-3499.8189L13694.1782,-3499.7648L13694.2206,-3499.7355L13694.2453,-3499.7128L13694.2593,-3499.6919L13694.3171,-3499.6228L13694.3219,-3499.6177L13694.3903,-3499.6177"/>
<path content="3,大府市,西コース左まわり,4.0,4.0,4.0," xlink:title="3" d="M13694.3903,-3499.6177L13694.3909,-3499.602L13694.392,-3499.5006L13694.3932,-3499.395L13694.3934,-3499.3795L13694.3937,-3499.3687L13694.3964,-3499.3502L13694.3037,-3499.3492"/>
<path content="3,大府市,西コース左まわり,4.0,4.0,4.0," xlink:title="3" d="M13694.3903,-3499.6177L13694.3903,-3499.6386L13694.3895,-3499.7674L13694.3892,-3499.9643L13694.3887,-3500.0082L13694.3889,-3500.0848L13694.3882,-3500.1017L13694.4723,-3500.1186L13694.5045,-3500.1253L13694.5489,-3500.1338L13694.5818,-3500.1422L13694.6061,-3500.1477L13694.6529,-3500.1535L13694.7014,-3500.1586L13694.7206,-3500.1648L13694.7363,-3500.1721L13694.7555,-3500.1839L13694.7872,-3500.2125L13694.8478,-3500.242L13694.9566,-3500.3034L13694.9677,-3500.3072"/>
<path content="3,大府市,西コース左まわり,4.0,4.0,4.0," xlink:title="3" d="M13695.2117,-3499.74L13695.2164,-3499.731L13695.2274,-3499.6899L13695.229,-3499.6768L13695.2189,-3499.6578"/>
<path content="3,大府市,西コース左まわり,4.0,4.0,4.0," xlink:title="3" d="M13695.2117,-3499.74L13695.2417,-3499.7454L13695.2601,-3499.7527L13695.3611,-3499.813"/>
<path content="3,大府市,西コース左まわり,4.0,4.0,4.0," xlink:title="3" d="M13695.1522,-3499.811L13695.1994,-3499.7569L13695.2117,-3499.74"/>
<path content="3,大府市,西コース左まわり,4.0,4.0,4.0," xlink:title="3" d="M13695.1522,-3499.811L13695.1264,-3499.8289L13695.0947,-3499.8628L13695.0701,-3499.8792L13695.0595,-3499.8838L13695.0566,-3499.885L13695.0455,-3499.8899L13695.0195,-3499.9028L13695.0048,-3499.9082L13694.9949,-3499.9119L13694.9888,-3499.9131L13694.973,-3499.9137L13694.9696,-3499.9244L13694.9635,-3499.9369L13694.9262,-3500.0017L13694.9053,-3500.0386L13694.9011,-3500.0572L13694.9011,-3500.0893L13694.9018,-3500.0949L13694.9148,-3500.1338L13694.9237,-3500.1535L13694.9445,-3500.1982L13694.9978,-3500.2599L13695.0338,-3500.3011"/>
<path content="3,大府市,西コース左まわり,4.0,4.0,4.0," xlink:title="3" d="M13695.0338,-3500.3011L13695.0547,-3500.3248L13695.0732,-3500.3442L13695.0894,-3500.3553L13695.1086,-3500.3641L13695.1322,-3500.3722L13695.1587,-3500.3855L13695.1899,-3500.4042L13695.2143,-3500.428L13695.2349,-3500.5039L13695.2426,-3500.5223L13695.2538,-3500.504L13695.2767,-3500.4628L13695.2896,-3500.4379L13695.298,-3500.4216L13695.312,-3500.3973L13695.3249,-3500.3765L13695.3566,-3500.3248L13695.3579,-3500.3221L13695.3644,-3500.2951L13695.3738,-3500.2341L13695.3573,-3500.1868L13695.3409,-3500.1485L13695.2637,-3499.9789L13695.2534,-3499.9519L13695.2507,-3499.9389L13695.2513,-3499.9226L13695.2548,-3499.9107L13695.2585,-3499.8961L13695.2578,-3499.8849L13695.2548,-3499.8775L13695.2478,-3499.869L13695.2358,-3499.8614L13695.2162,-3499.8522L13695.1774,-3499.8293L13695.1522,-3499.811"/>
<path content="3,大府市,西コース左まわり,4.0,4.0,4.0," xlink:title="3" d="M13694.9677,-3500.3072L13694.9778,-3500.3107L13694.986,-3500.3124L13695.001,-3500.3124L13695.0174,-3500.3073L13695.0243,-3500.3034L13695.0338,-3500.3011"/>
<path content="3,大府市,西コース左まわり,4.0,4.0,4.0," xlink:title="3" d="M13694.9677,-3500.3072L13694.9329,-3500.3346L13694.8902,-3500.3557L13694.9126,-3500.4025L13694.9756,-3500.4972L13694.9742,-3500.5062"/>
<path content="3,大府市,西コース左まわり,4.0,4.0,4.0," xlink:title="3" d="M13694.9742,-3500.5062L13695.0158,-3500.5099"/>
<path content="3,大府市,西コース左まわり,4.0,4.0,4.0," xlink:title="3" d="M13694.9742,-3500.5062L13694.9694,-3500.5316L13694.9468,-3500.558L13694.9366,-3500.571L13694.9256,-3500.5822L13694.9253,-3500.5833L13694.9411,-3500.5843L13694.9938,-3500.5866L13695.0219,-3500.5876L13695.0298,-3500.5887L13695.0368,-3500.6019L13695.0542,-3500.647L13695.0778,-3500.6402L13695.1429,-3500.6188L13695.1579,-3500.6139L13695.2334,-3500.5896L13695.2879,-3500.573L13695.3004,-3500.5696L13695.3371,-3500.5647L13695.3464,-3500.5645L13695.3869,-3500.5634L13695.389,-3500.5633L13695.4021,-3500.5625L13695.4196,-3500.5604L13695.4514,-3500.5529L13695.4748,-3500.5454L13695.5156,-3500.5302L13695.5432,-3500.5206L13695.5476,-3500.5192L13695.6457,-3500.4888L13695.7019,-3500.4872L13695.7563,-3500.4872L13695.7714,-3500.4878L13695.7938,-3500.4886L13695.8401,-3500.4921L13695.8801,-3500.499L13695.9657,-3500.5185L13695.9709,-3500.5197L13695.9736,-3500.5203L13695.9958,-3500.5252L13696.0126,-3500.5292L13696.0213,-3500.5308L13696.0331,-3500.5328L13696.0465,-3500.5346L13696.0895,-3500.542L13696.1574,-3500.5433L13696.2038,-3500.5454L13696.2298,-3500.5476L13696.2556,-3500.5523L13696.3026,-3500.5668L13696.3436,-3500.5835L13696.4117,-3500.6099L13696.4384,-3500.6204L13696.4802,-3500.6369L13696.54,-3500.6616L13696.5924,-3500.6858L13696.5802,-3500.6959L13696.5121,-3500.7639L13696.4661,-3500.8138L13696.4334,-3500.8427L13696.3959,-3500.8802L13696.3768,-3500.8992L13696.3516,-3500.9244L13696.3424,-3500.9335L13696.3286,-3500.9528L13696.3012,-3500.9884L13696.2703,-3501.0335L13696.2388,-3501.0803"/>
<path content="3,大府市,西コース左まわり,4.0,4.0,4.0," xlink:title="3" d="M13696.2388,-3501.0803L13696.2253,-3501.1055L13696.2034,-3501.1454L13696.1949,-3501.1611L13696.1787,-3501.1908L13696.2093,-3501.2138L13696.2306,-3501.2312L13696.2889,-3501.1943"/>
<path content="3,大府市,西コース左まわり,4.0,4.0,4.0," xlink:title="3" d="M13696.2388,-3501.0803L13696.2128,-3501.0696L13696.1915,-3501.0606L13696.145,-3501.0403L13696.1635,-3501.0121L13696.1792,-3500.9834L13696.1936,-3500.9428L13696.1993,-3500.9247L13696.2107,-3500.9061L13696.2404,-3500.8915L13696.0794,-3500.8392L13696.0391,-3500.8253L13695.9927,-3500.8117L13695.9836,-3500.809L13695.9735,-3500.8064L13695.9326,-3500.7974L13695.8786,-3500.9709L13695.8292,-3501.0734L13695.7881,-3501.2424L13695.7582,-3501.4271L13695.732,-3501.4316L13695.7103,-3501.4358L13695.7081,-3501.4362L13695.7026,-3501.4374L13695.6959,-3501.4389L13695.6708,-3501.4411L13695.6517,-3501.4367L13695.6241,-3501.4277L13695.5776,-3501.4114L13695.5253,-3501.3924L13695.5156,-3501.389L13695.5118,-3501.3877L13695.4463,-3501.3651L13695.4376,-3501.3622L13695.3712,-3501.3437L13695.3446,-3501.3366L13695.324,-3501.3312L13695.2946,-3501.3213L13695.2583,-3501.309L13695.2474,-3501.3054L13695.2008,-3501.2899L13695.1899,-3501.2862"/>
<path content="3,大府市,西コース左まわり,4.0,4.0,4.0," xlink:title="3" d="M13695.1899,-3501.2862L13695.1705,-3501.2796L13695.1225,-3501.2633L13695.0801,-3501.2499L13695.0761,-3501.2486L13695.0363,-3501.2376L13695.0665,-3501.1521L13695.0777,-3501.1203L13695.0762,-3501.1202L13695.0632,-3501.1197L13695.0495,-3501.1174L13695.0354,-3501.1159L13695.0188,-3501.1138L13695.0057,-3501.1123L13694.9888,-3501.1104L13694.9721,-3501.1084L13694.8194,-3501.0898L13694.7564,-3501.0819L13694.6223,-3501.0594L13694.5661,-3501.0492L13694.5278,-3501.0425L13694.4839,-3501.0346L13694.4285,-3501.0267L13694.4087,-3501.0237L13694.4077,-3501.0271L13694.3879,-3501.0186L13694.3621,-3501.0126L13694.3139,-3501.0097L13694.3101,-3501.0097L13694.2896,-3501.0097L13694.2564,-3501.0127L13694.2235,-3501.0172L13694.2074,-3501.0182L13694.156,-3501.007L13694.0615,-3500.9918L13694.0397,-3500.9873L13694.0202,-3500.983L13694.0054,-3500.9788L13693.9869,-3500.9726L13693.9294,-3500.9512L13693.8288,-3500.9106L13693.7897,-3500.8926L13693.7651,-3500.9212L13693.757,-3500.9293L13693.7481,-3500.9352L13693.7378,-3500.9366L13693.7275,-3500.9337L13693.7064,-3500.9261L13693.641,-3500.8999L13693.6366,-3500.8984L13693.6322,-3500.8999L13693.6277,-3500.9065L13693.6086,-3500.9374L13693.5994,-3500.9516L13693.5951,-3500.9584L13693.5754,-3500.989L13693.5654,-3501.0046L13693.5486,-3501.0361L13693.5219,-3501.0736L13693.4962,-3501.1161L13693.4943,-3501.1192L13693.4847,-3501.1352L13693.4776,-3501.1451L13693.4734,-3501.1508L13693.4633,-3501.1609L13693.4537,-3501.1551L13693.4427,-3501.1501L13693.4218,-3501.1434L13693.4106,-3501.1413L13693.3998,-3501.142L13693.3875,-3501.147L13693.3768,-3501.1517L13693.3594,-3501.1592"/>
<path content="3,大府市,西コース左まわり,4.0,4.0,4.0," xlink:title="3" d="M13695.1899,-3501.2862L13695.209,-3501.2306"/>
<path content="3,東浦町,刈谷線,14.0,14.0,14.0," xlink:title="3" d="M13697.3224,-3498.0469L13697.3224,-3498.0472L13697.3072,-3498.1703L13697.2568,-3498.1697L13697.2169,-3498.1576"/>
<path content="3,東浦町,平池台線ふじが丘経由,13.0,13.0,13.0," xlink:title="3" d="M13697.2169,-3498.1576L13697.2568,-3498.1697L13697.3072,-3498.1703L13697.3213,-3498.0469"/>
<path content="3,東浦町,平池台線体育館経由,13.0,13.0,13.0," xlink:title="3" d="M13697.2169,-3498.1576L13697.2568,-3498.1697L13697.3072,-3498.1703L13697.3213,-3498.0469"/>
<path content="3,東浦町,東ヶ丘線,13.0,13.0,13.0," xlink:title="3" d="M13697.2169,-3498.1576L13697.2568,-3498.1697L13697.3072,-3498.1703L13697.3224,-3498.0472L13697.3224,-3498.0469M13696.0721,-3498.0469L13696.0626,-3498.0471L13696.061,-3498.0469"/>
<path content="3,東浦町,長寿線半ノ木経由,13.0,13.0,13.0," xlink:title="3" d="M13697.2169,-3498.1576L13697.2568,-3498.1697L13697.2548,-3498.2342L13697.2179,-3498.2335L13697.2014,-3498.2332L13697.2026,-3498.2829L13697.1901,-3498.2712L13697.1617,-3498.2485L13697.0967,-3498.2579L13697.0605,-3498.2629L13697.0614,-3498.3138L13697.0855,-3498.4171L13697.0864,-3498.4398L13697.0851,-3498.4911L13697.0796,-3498.5328L13697.0749,-3498.5554L13697.0737,-3498.5631L13697.0504,-3498.6422L13697.0358,-3498.7694L13697.0153,-3498.8849L13697.0146,-3498.8871L13697.0133,-3498.8905L13697.0037,-3498.9424L13696.9982,-3498.9756L13696.9975,-3498.9778L13696.9941,-3498.9959L13696.9831,-3499.0573L13696.9715,-3499.117L13696.9526,-3499.1807L13696.9394,-3499.2933L13696.9278,-3499.3581L13696.9202,-3499.4037L13696.9044,-3499.4548L13696.8922,-3499.4939L13696.8758,-3499.5254L13696.8566,-3499.5558L13696.852,-3499.5611L13696.8375,-3499.5817L13696.7922,-3499.6364L13696.7333,-3499.698L13696.6719,-3499.7772L13696.6412,-3499.8144L13696.625,-3499.8324L13696.6219,-3499.8366L13696.6166,-3499.8434L13696.5936,-3499.8631L13696.5324,-3499.9062L13696.5208,-3499.9136L13696.4756,-3499.9446L13696.4407,-3499.9684L13696.4109,-3499.9883L13696.3676,-3500.0184L13696.3571,-3500.0257L13696.2848,-3500.0758L13696.2636,-3500.0899L13696.1692,-3500.1558L13696.0307,-3500.0304L13695.9928,-3499.9637L13695.9647,-3499.9091L13695.9421,-3499.8674L13695.8572,-3499.732L13695.845,-3499.6786L13695.8437,-3499.6494L13695.8437,-3499.5992L13695.8403,-3499.5659L13695.8162,-3499.5441L13695.7971,-3499.513L13695.7759,-3499.5034L13695.7096,-3499.4814L13695.6802,-3499.473L13695.6775,-3499.4713L13695.6446,-3499.4612L13695.6098,-3499.4487L13695.5954,-3499.4403L13695.5694,-3499.4172L13695.5241,-3499.3794L13695.4942,-3499.3306L13695.4381,-3499.2629L13695.4264,-3499.2516L13695.4107,-3499.255L13695.4032,-3499.2578L13695.3799,-3499.2629L13695.3539,-3499.2646L13695.2999,-3499.264L13695.2705,-3499.2595L13695.2479,-3499.2538L13695.2322,-3499.2488L13695.2295,-3499.2482L13695.1891,-3499.233L13695.1761,-3499.2279L13695.1556,-3499.2189"/>
<path content="3,東浦町,長寿線半ノ木経由,13.0,13.0,13.0," xlink:title="3" d="M13695.1556,-3499.2189L13695.1064,-3499.1936L13695.1002,-3499.1919L13695.0879,-3499.1919L13695.0464,-3499.1996L13695.0332,-3499.2042L13694.9976,-3499.2144L13694.9607,-3499.2212L13694.9121,-3499.2245L13694.8861,-3499.2285L13694.8417,-3499.2369L13694.8358,-3499.2387L13694.7876,-3499.2532L13694.7774,-3499.2594L13694.761,-3499.2747L13694.7241,-3499.3132L13694.7199,-3499.3175L13694.7056,-3499.3293L13694.6933,-3499.3372L13694.6755,-3499.3445L13694.6536,-3499.349L13694.6201,-3499.3502L13694.3964,-3499.3502L13694.3037,-3499.3492"/>
<path content="3,東浦町,長寿線半ノ木経由,13.0,13.0,13.0," xlink:title="3" d="M13695.1556,-3499.2189L13695.1515,-3499.2296L13695.1214,-3499.331L13695.1077,-3499.3704L13695.0942,-3499.4019L13695.0845,-3499.4245"/>
<path content="3,東浦町,長寿線半ノ木経由,13.0,13.0,13.0," xlink:title="3" d="M13695.0845,-3499.4245L13695.0056,-3499.4068"/>
<path content="3,東浦町,長寿線半ノ木経由,13.0,13.0,13.0," xlink:title="3" d="M13695.0845,-3499.4245L13695.0674,-3499.46L13695.0373,-3499.5152L13694.9826,-3499.6099L13694.9654,-3499.6442L13694.9579,-3499.6674L13694.9552,-3499.6826L13694.9552,-3499.7287L13694.9566,-3499.7456L13694.9637,-3499.8499L13694.973,-3499.9137L13694.9888,-3499.9131L13694.9949,-3499.9119L13695.0048,-3499.9082L13695.0195,-3499.9028L13695.0455,-3499.8899L13695.0566,-3499.885L13695.0595,-3499.8838L13695.0701,-3499.8792L13695.0947,-3499.8628L13695.1264,-3499.8289L13695.1522,-3499.811L13695.1994,-3499.7569L13695.2117,-3499.74L13695.2164,-3499.731L13695.2274,-3499.6899L13695.229,-3499.6768L13695.2189,-3499.6578"/>
<path content="3,東浦町,長寿線森岡中町経由,13.0,13.0,13.0," xlink:title="3" d="M13695.1556,-3499.2189L13695.1064,-3499.1936L13695.1002,-3499.1919L13695.0879,-3499.1919L13695.0464,-3499.1996L13695.0332,-3499.2042L13694.9976,-3499.2144L13694.9607,-3499.2212L13694.9121,-3499.2245L13694.8861,-3499.2285L13694.8417,-3499.2369L13694.8358,-3499.2387L13694.7876,-3499.2532L13694.7774,-3499.2594L13694.761,-3499.2747L13694.7241,-3499.3132L13694.7199,-3499.3175L13694.7056,-3499.3293L13694.6933,-3499.3372L13694.6755,-3499.3445L13694.6536,-3499.349L13694.6201,-3499.3502L13694.3964,-3499.3502L13694.3037,-3499.3492"/>
<path content="3,東浦町,長寿線森岡中町経由,13.0,13.0,13.0," xlink:title="3" d="M13695.1556,-3499.2189L13695.1761,-3499.2279L13695.1891,-3499.233L13695.2295,-3499.2482L13695.2322,-3499.2488L13695.2479,-3499.2538L13695.2705,-3499.2595L13695.2999,-3499.264L13695.3539,-3499.2646L13695.3799,-3499.2629L13695.4032,-3499.2578L13695.4107,-3499.255L13695.4264,-3499.2516L13695.4381,-3499.2629L13695.4942,-3499.3306L13695.5241,-3499.3794L13695.5694,-3499.4172L13695.5954,-3499.4403L13695.6098,-3499.4487L13695.6446,-3499.4612L13695.6775,-3499.4713L13695.6802,-3499.473L13695.7096,-3499.4814L13695.7759,-3499.5034L13695.7971,-3499.513L13695.8162,-3499.5441L13695.8403,-3499.5659L13695.8519,-3499.5648L13695.8847,-3499.5643L13695.9633,-3499.5609L13695.9832,-3499.5581L13695.9893,-3499.5569L13695.9975,-3499.5552L13696.0146,-3499.5502L13696.0325,-3499.5291L13696.0701,-3499.4409L13696.0844,-3499.4065L13696.1018,-3499.3592L13696.1248,-3499.3592L13696.143,-3499.3581L13696.159,-3499.3558L13696.2205,-3499.3491L13696.3099,-3499.3489L13696.4209,-3499.3468L13696.4284,-3499.3446L13696.5502,-3499.3119L13696.5628,-3499.3139L13696.6494,-3499.3096L13696.6603,-3499.3125L13696.6706,-3499.3142L13696.7054,-3499.3237L13696.7225,-3499.3237L13696.7294,-3499.3237L13696.767,-3499.3192L13696.8225,-3499.312L13696.8361,-3499.3102L13696.8769,-3499.3049L13696.9394,-3499.2933L13696.9526,-3499.1807L13696.9715,-3499.117L13696.9831,-3499.0573L13696.9941,-3498.9959L13696.9975,-3498.9778L13696.9982,-3498.9756L13697.0037,-3498.9424L13697.0133,-3498.8905L13697.0146,-3498.8871L13697.0153,-3498.8849L13697.0297,-3498.8037L13697.0358,-3498.7694L13697.0504,-3498.6422L13697.0737,-3498.5631L13697.0749,-3498.5554L13697.0796,-3498.5328L13697.0851,-3498.4911L13697.0864,-3498.4398L13697.0855,-3498.4171L13697.0614,-3498.3138L13697.0605,-3498.2629L13697.1617,-3498.2485L13697.1901,-3498.2712L13697.2026,-3498.2829L13697.2014,-3498.2332L13697.2548,-3498.2342L13697.2568,-3498.1697L13697.2169,-3498.1576"/>
<path content="3,東浦町,長寿線森岡中町経由,13.0,13.0,13.0," xlink:title="3" d="M13695.0845,-3499.4245L13695.0056,-3499.4068"/>
<path content="3,東浦町,長寿線森岡中町経由,13.0,13.0,13.0," xlink:title="3" d="M13695.0845,-3499.4245L13695.0942,-3499.4019L13695.1077,-3499.3704L13695.1214,-3499.331L13695.1515,-3499.2296L13695.1556,-3499.2189"/>
<path content="3,東浦町,長寿線森岡中町経由,13.0,13.0,13.0," xlink:title="3" d="M13695.2189,-3499.6578L13695.229,-3499.6768L13695.2274,-3499.6899L13695.2164,-3499.731L13695.2117,-3499.74L13695.1994,-3499.7569L13695.1522,-3499.811L13695.1264,-3499.8289L13695.0947,-3499.8628L13695.0701,-3499.8792L13695.0595,-3499.8838L13695.0566,-3499.885L13695.0455,-3499.8899L13695.0195,-3499.9028L13695.0048,-3499.9082L13694.9949,-3499.9119L13694.9888,-3499.9131L13694.973,-3499.9137L13694.9637,-3499.8499L13694.9566,-3499.7456L13694.9552,-3499.7287L13694.9552,-3499.6826L13694.9579,-3499.6674L13694.9654,-3499.6442L13694.9826,-3499.6099L13695.0373,-3499.5152L13695.0674,-3499.46L13695.0845,-3499.4245"/>
</g>
</svg>
