<?xml version="1.0" encoding="UTF-8"?>
<svg  xmlns="http://www.w3.org/2000/svg" xmlns:xlink="http://www.w3.org/1999/xlink" xmlns:go="http://purl.org/svgmap/profile" property="N07_001,N07_002,N07_003,N07_004,N07_005,N07_006,N07_007" viewBox="14194.3359375 -4297.8515625 8.7890625 8.7890625" go:dataArea="14194.3359375 -4297.8515625 8.7890625 8.7890625" >
<metadata>
 <rdf:RDF xmlns:rdf="http://www.w3.org/1999/02/22-rdf-syntax-ns#" xmlns:crs="http://opengis.org/xmldtds/transformations.dtd" xmlns:svg="http://www.w3.org/svg" >
  <rdf:Description>
   <crs:CoordinateReferenceSystem rdf:resource="http://purl.org/crs/84" svg:transform="matrix(100.0,0.0,0.0,-100.0,0.0,0.0)" />
  </rdf:Description>
 </rdf:RDF>
</metadata>
<globalCoordinateSystem srsName="http://purl.org/crs/84" transform="matrix(100.0,0.0,0.0,-100.0,0.0,0.0)" />
<defs>
 <g id="p0" >
  <circle cx="0.0" cy="0.0" r="3" stroke="green" stroke-width="0.75" vector-effect="non-scaling-stroke" />
 </g>
</defs>
<g fill="none" fill-rule="evenodd" stroke="#FF00FF" stroke-width="0.75" opacity="0.5" vector-effect="non-scaling-stroke" stroke-linejoin="bevel" >
<path content="1,JR北海道バス（株）,高速ポテトライナー,7.0,7.0,7.0," xlink:title="1" d="M14203.125,-4291.6187L14203.1011,-4291.6144L14203.0308,-4291.6059L14202.9765,-4291.602L14202.9344,-4291.6009L14202.7417,-4291.6042L14202.6739,-4291.6038L14202.6416,-4291.6037L14202.6041,-4291.6014L14202.5603,-4291.5958L14202.5558,-4291.5953L14202.5162,-4291.5891L14202.4488,-4291.5744L14202.3869,-4291.5581L14202.3334,-4291.5412L14202.2883,-4291.5254L14202.2393,-4291.5063L14202.1904,-4291.4838L14202.0566,-4291.4191L14202.0138,-4291.3943L14201.9273,-4291.3414L14201.8624,-4291.2952L14201.7951,-4291.2429L14201.6513,-4291.1253L14201.545,-4291.0397L14201.434,-4290.9581L14201.4288,-4290.9542L14201.3569,-4290.9041L14201.2095,-4290.8088L14201.0635,-4290.7398L14200.91,-4290.6694L14200.7589,-4290.6047L14200.7107,-4290.5861L14200.6718,-4290.5732L14200.6404,-4290.5653L14200.5762,-4290.5518L14200.5303,-4290.5456L14200.5012,-4290.5428L14200.453,-4290.5394L14200.3536,-4290.5406L14200.3261,-4290.5423L14200.2856,-4290.5462L14200.2412,-4290.5524L14200.1984,-4290.5603L14200.1219,-4290.5783L14200.0446,-4290.601L14199.9637,-4290.6306L14199.952,-4290.635L14199.8115,-4290.6886L14199.7442,-4290.7105L14199.6478,-4290.7358L14199.6264,-4290.742L14199.5674,-4290.755L14199.4992,-4290.7696L14199.4461,-4290.7769L14199.3794,-4290.7868L14199.3201,-4290.7909L14199.1987,-4290.7904L14199.0763,-4290.792L14198.9545,-4290.794L14198.8321,-4290.8034L14198.7076,-4290.8138L14198.6216,-4290.8241L14198.5948,-4290.8286L14198.5756,-4290.832L14198.5245,-4290.841L14198.4977,-4290.8467L14198.4449,-4290.8562L14198.3975,-4290.8658L14198.3577,-4290.8759L14198.3364,-4290.881L14198.3035,-4290.8906L14198.2275,-4290.9179L14198.1814,-4290.937L14198.1674,-4290.9429L14198.0626,-4291.0014L14198.0297,-4291.0222L14197.9433,-4291.0841L14197.8668,-4291.1342L14197.736,-4291.204L14197.6198,-4291.2619L14197.4952,-4291.3165L14197.4141,-4291.3492L14197.3032,-4291.3925L14197.2573,-4291.4088L14197.1984,-4291.4268L14197.1587,-4291.4392L14197.0952,-4291.4567L14197.0471,-4291.4685L14196.8979,-4291.5023L14196.8898,-4291.5038L14196.852,-4291.5112L14196.7671,-4291.5292L14196.6985,-4291.5407L14196.6762,-4291.5444L14196.6271,-4291.5511L14196.6096,-4291.5534L14196.5813,-4291.5562L14196.5314,-4291.5626L14196.4804,-4291.5709L14196.4131,-4291.5838L14196.3565,-4291.5979L14196.3076,-4291.6114L14196.2671,-4291.6238L14196.2303,-4291.639L14196.1034,-4291.6941L14196.0208,-4291.7273L14195.9351,-4291.7594L14195.8801,-4291.7768L14195.7959,-4291.7988L14195.6882,-4291.8224L14195.6423,-4291.8303L14195.5849,-4291.8365L14195.5023,-4291.8404L14195.4195,-4291.841L14195.3364,-4291.8358L14195.2701,-4291.8316L14195.1216,-4291.8118L14195.0336,-4291.7927L14194.9185,-4291.7611L14194.7655,-4291.7011L14194.6897,-4291.6681L14194.3529,-4291.5131L14194.3359,-4291.5053"/>
<path content="1,くしろバス（株）,スターライト釧路号,2.0,2.0,2.0," xlink:title="1" d="M14203.125,-4291.6187L14203.1011,-4291.6144L14203.0308,-4291.6059L14202.9765,-4291.602L14202.9344,-4291.6009L14202.7417,-4291.6042L14202.6739,-4291.6038L14202.6416,-4291.6037L14202.6041,-4291.6014L14202.5603,-4291.5958L14202.5558,-4291.5953L14202.5162,-4291.5891L14202.4488,-4291.5744L14202.3869,-4291.5581L14202.3334,-4291.5412L14202.2883,-4291.5254L14202.2393,-4291.5063L14202.1904,-4291.4838L14202.0566,-4291.4191L14202.0138,-4291.3943L14201.9273,-4291.3414L14201.8624,-4291.2952L14201.7951,-4291.2429L14201.6513,-4291.1253L14201.545,-4291.0397L14201.434,-4290.9581L14201.4288,-4290.9542L14201.3569,-4290.9041L14201.2095,-4290.8088L14201.0635,-4290.7398L14200.91,-4290.6694L14200.7589,-4290.6047L14200.7107,-4290.5861L14200.6718,-4290.5732L14200.6404,-4290.5653L14200.5762,-4290.5518L14200.5303,-4290.5456L14200.5012,-4290.5428L14200.453,-4290.5394L14200.3536,-4290.5406L14200.3261,-4290.5423L14200.2856,-4290.5462L14200.2412,-4290.5524L14200.1984,-4290.5603L14200.1219,-4290.5783L14200.0446,-4290.601L14199.9637,-4290.6306L14199.952,-4290.635L14199.8115,-4290.6886L14199.7442,-4290.7105L14199.6478,-4290.7358L14199.6264,-4290.742L14199.5674,-4290.755L14199.4992,-4290.7696L14199.4461,-4290.7769L14199.3794,-4290.7868L14199.3201,-4290.7909L14199.1987,-4290.7904L14199.0763,-4290.792L14198.9545,-4290.794L14198.8321,-4290.8034L14198.7076,-4290.8138L14198.6216,-4290.8241L14198.5948,-4290.8286L14198.5756,-4290.832L14198.5245,-4290.841L14198.4977,-4290.8467L14198.4449,-4290.8562L14198.3975,-4290.8658L14198.3577,-4290.8759L14198.3364,-4290.881L14198.3035,-4290.8906L14198.2275,-4290.9179L14198.1814,-4290.937L14198.1674,-4290.9429L14198.0626,-4291.0014L14198.0297,-4291.0222L14197.9433,-4291.0841L14197.8668,-4291.1342L14197.736,-4291.204L14197.6198,-4291.2619L14197.4952,-4291.3165L14197.4141,-4291.3492L14197.3032,-4291.3925L14197.2573,-4291.4088L14197.1984,-4291.4268L14197.1587,-4291.4392L14197.0952,-4291.4567L14197.0471,-4291.4685L14196.8979,-4291.5023L14196.8898,-4291.5038L14196.852,-4291.5112L14196.7671,-4291.5292L14196.6985,-4291.5407L14196.6762,-4291.5444L14196.6271,-4291.5511L14196.6096,-4291.5534L14196.5813,-4291.5562L14196.5314,-4291.5626L14196.4804,-4291.5709L14196.4131,-4291.5838L14196.3565,-4291.5979L14196.3076,-4291.6114L14196.2671,-4291.6238L14196.2303,-4291.639L14196.1034,-4291.6941L14196.0208,-4291.7273L14195.9351,-4291.7594L14195.8801,-4291.7768L14195.7959,-4291.7988L14195.6882,-4291.8224L14195.6423,-4291.8303L14195.5849,-4291.8365L14195.5023,-4291.8404L14195.4195,-4291.841L14195.3364,-4291.8358L14195.2701,-4291.8316L14195.1216,-4291.8118L14195.0336,-4291.7927L14194.9185,-4291.7611L14194.7655,-4291.7011L14194.6897,-4291.6681L14194.3529,-4291.5131L14194.3359,-4291.5053"/>
<path content="1,北海道中央バス（株）,スターライト釧路号,2.0,2.0,2.0," xlink:title="1" d="M14194.3359,-4289.3954L14194.3388,-4289.3938L14194.3506,-4289.3923L14194.3617,-4289.3931L14194.4112,-4289.3951L14194.4445,-4289.4006L14194.4461,-4289.4064L14194.4385,-4289.4373L14194.4286,-4289.4694L14194.4255,-4289.4858L14194.4286,-4289.4881L14194.4401,-4289.4842L14194.4573,-4289.4722L14194.4693,-4289.4537L14194.481,-4289.4331L14194.4914,-4289.4232L14194.5073,-4289.411L14194.5354,-4289.3991L14194.5591,-4289.3923L14194.5794,-4289.3878L14194.6065,-4289.3868L14194.6204,-4289.3905L14194.6406,-4289.3954L14194.6505,-4289.4006L14194.6557,-4289.4076L14194.6557,-4289.4191L14194.6521,-4289.4337L14194.6479,-4289.4444L14194.6451,-4289.454L14194.6497,-4289.461L14194.664,-4289.472L14194.6789,-4289.48L14194.7008,-4289.4866L14194.7273,-4289.4913L14194.7611,-4289.4954L14194.8114,-4289.4985L14194.8401,-4289.4959L14194.8809,-4289.4915L14194.9028,-4289.4876L14194.9184,-4289.4831L14194.9385,-4289.4699L14194.9622,-4289.4522L14194.977,-4289.442L14194.9924,-4289.436L14195.0109,-4289.4295L14195.0296,-4289.4183L14195.0439,-4289.4061L14195.059,-4289.3923L14195.0669,-4289.3861L14195.0765,-4289.3832L14195.0913,-4289.3834L14195.1239,-4289.3858L14195.151,-4289.3803L14195.2491,-4289.3517L14195.2645,-4289.3462L14195.2715,-4289.3408L14195.2819,-4289.3246L14195.2911,-4289.3168L14195.302,-4289.3113L14195.3169,-4289.3093L14195.3322,-4289.3108L14195.3473,-4289.3202L14195.3708,-4289.3399L14195.3827,-4289.3501L14195.3903,-4289.354L14195.4116,-4289.3551L14195.4421,-4289.3527L14195.4728,-4289.3493L14195.5035,-4289.3384L14195.5418,-4289.3186L14195.5835,-4289.2918L14195.6166,-4289.2705L14195.634,-4289.2606L14195.6551,-4289.2546L14195.6876,-4289.2475L14195.7103,-4289.2403L14195.7332,-4289.2278L14195.7517,-4289.2111L14195.7606,-4289.1981L14195.7624,-4289.1726L14195.7626,-4289.152L14195.7645,-4289.1408L14195.7684,-4289.1281L14195.7767,-4289.1187L14195.7869,-4289.1143L14195.7999,-4289.114L14195.8124,-4289.1169L14195.8208,-4289.1247L14195.8275,-4289.1364L14195.8329,-4289.1473L14195.84,-4289.1598L14195.8476,-4289.1654L14195.8879,-4289.1746L14195.9079,-4289.177L14195.9241,-4289.1778L14195.9384,-4289.1764L14195.9556,-4289.1734L14196.0171,-4289.1531L14196.0337,-4289.1466L14196.0411,-4289.1325L14196.0434,-4289.1218L14196.0423,-4289.1131L14196.0423,-4289.1041L14196.045,-4289.0989L14196.0478,-4289.096L14196.0715,-4289.0877L14196.097,-4289.0739L14196.1032,-4289.0625"/>
<path content="1,北海道中央バス（株）,ポテトライナー,7.0,7.0,7.0," xlink:title="1" d="M14203.125,-4291.6187L14203.1011,-4291.6144L14203.0308,-4291.6059L14202.9765,-4291.602L14202.9344,-4291.6009L14202.7417,-4291.6042L14202.6739,-4291.6038L14202.6416,-4291.6037L14202.6041,-4291.6014L14202.5603,-4291.5958L14202.5558,-4291.5953L14202.5162,-4291.5891L14202.4488,-4291.5744L14202.3869,-4291.5581L14202.3334,-4291.5412L14202.2883,-4291.5254L14202.2393,-4291.5063L14202.1904,-4291.4838L14202.0566,-4291.4191L14202.0138,-4291.3943L14201.9273,-4291.3414L14201.8624,-4291.2952L14201.7951,-4291.2429L14201.6513,-4291.1253L14201.545,-4291.0397L14201.434,-4290.9581L14201.4288,-4290.9542L14201.3569,-4290.9041L14201.2095,-4290.8088L14201.0635,-4290.7398L14200.91,-4290.6694L14200.7589,-4290.6047L14200.7107,-4290.5861L14200.6718,-4290.5732L14200.6404,-4290.5653L14200.5762,-4290.5518L14200.5303,-4290.5456L14200.5012,-4290.5428L14200.453,-4290.5394L14200.3536,-4290.5406L14200.3261,-4290.5423L14200.2856,-4290.5462L14200.2412,-4290.5524L14200.1984,-4290.5603L14200.1219,-4290.5783L14200.0446,-4290.601L14199.9637,-4290.6306L14199.952,-4290.635L14199.8115,-4290.6886L14199.7442,-4290.7105L14199.6478,-4290.7358L14199.6264,-4290.742L14199.5674,-4290.755L14199.4992,-4290.7696L14199.4461,-4290.7769L14199.3794,-4290.7868L14199.3201,-4290.7909L14199.1987,-4290.7904L14199.0763,-4290.792L14198.9545,-4290.794L14198.8321,-4290.8034L14198.7076,-4290.8138L14198.6216,-4290.8241L14198.5948,-4290.8286L14198.5756,-4290.832L14198.5245,-4290.841L14198.4977,-4290.8467L14198.4449,-4290.8562L14198.3975,-4290.8658L14198.3577,-4290.8759L14198.3364,-4290.881L14198.3035,-4290.8906L14198.2275,-4290.9179L14198.1814,-4290.937L14198.1674,-4290.9429L14198.0626,-4291.0014L14198.0297,-4291.0222L14197.9433,-4291.0841L14197.8668,-4291.1342L14197.736,-4291.204L14197.6198,-4291.2619L14197.4952,-4291.3165L14197.4141,-4291.3492L14197.3032,-4291.3925L14197.2573,-4291.4088L14197.1984,-4291.4268L14197.1587,-4291.4392L14197.0952,-4291.4567L14197.0471,-4291.4685L14196.8979,-4291.5023L14196.8898,-4291.5038L14196.852,-4291.5112L14196.7671,-4291.5292L14196.6985,-4291.5407L14196.6762,-4291.5444L14196.6271,-4291.5511L14196.6096,-4291.5534L14196.5813,-4291.5562L14196.5314,-4291.5626L14196.4804,-4291.5709L14196.4131,-4291.5838L14196.3565,-4291.5979L14196.3076,-4291.6114L14196.2671,-4291.6238L14196.2303,-4291.639L14196.1034,-4291.6941L14196.0208,-4291.7273L14195.9351,-4291.7594L14195.8801,-4291.7768L14195.7959,-4291.7988L14195.6882,-4291.8224L14195.6423,-4291.8303L14195.5849,-4291.8365L14195.5023,-4291.8404L14195.4195,-4291.841L14195.3364,-4291.8358L14195.2701,-4291.8316L14195.1216,-4291.8118L14195.0336,-4291.7927L14194.9185,-4291.7611L14194.7655,-4291.7011L14194.6897,-4291.6681L14194.3529,-4291.5131L14194.3359,-4291.5053"/>
<path content="1,北海道拓殖バス（株）,ポテトライナー,7.0,7.0,7.0," xlink:title="1" d="M14203.125,-4291.6187L14203.1011,-4291.6144L14203.0308,-4291.6059L14202.9765,-4291.602L14202.9344,-4291.6009L14202.7417,-4291.6042L14202.6739,-4291.6038L14202.6416,-4291.6037L14202.6041,-4291.6014L14202.5603,-4291.5958L14202.5558,-4291.5953L14202.5162,-4291.5891L14202.4488,-4291.5744L14202.3869,-4291.5581L14202.3334,-4291.5412L14202.2883,-4291.5254L14202.2393,-4291.5063L14202.1904,-4291.4838L14202.0566,-4291.4191L14202.0138,-4291.3943L14201.9273,-4291.3414L14201.8624,-4291.2952L14201.7951,-4291.2429L14201.6513,-4291.1253L14201.545,-4291.0397L14201.434,-4290.9581L14201.4288,-4290.9542L14201.3569,-4290.9041L14201.2095,-4290.8088L14201.0635,-4290.7398L14200.91,-4290.6694L14200.7589,-4290.6047L14200.7107,-4290.5861L14200.6718,-4290.5732L14200.6404,-4290.5653L14200.5762,-4290.5518L14200.5303,-4290.5456L14200.5012,-4290.5428L14200.453,-4290.5394L14200.3536,-4290.5406L14200.3261,-4290.5423L14200.2856,-4290.5462L14200.2412,-4290.5524L14200.1984,-4290.5603L14200.1219,-4290.5783L14200.0446,-4290.601L14199.9637,-4290.6306L14199.952,-4290.635L14199.8115,-4290.6886L14199.7442,-4290.7105L14199.6478,-4290.7358L14199.6264,-4290.742L14199.5674,-4290.755L14199.4992,-4290.7696L14199.4461,-4290.7769L14199.3794,-4290.7868L14199.3201,-4290.7909L14199.1987,-4290.7904L14199.0763,-4290.792L14198.9545,-4290.794L14198.8321,-4290.8034L14198.7076,-4290.8138L14198.6216,-4290.8241L14198.5948,-4290.8286L14198.5756,-4290.832L14198.5245,-4290.841L14198.4977,-4290.8467L14198.4449,-4290.8562L14198.3975,-4290.8658L14198.3577,-4290.8759L14198.3364,-4290.881L14198.3035,-4290.8906L14198.2275,-4290.9179L14198.1814,-4290.937L14198.1674,-4290.9429L14198.0626,-4291.0014L14198.0297,-4291.0222L14197.9433,-4291.0841L14197.8668,-4291.1342L14197.736,-4291.204L14197.6198,-4291.2619L14197.4952,-4291.3165L14197.4141,-4291.3492L14197.3032,-4291.3925L14197.2573,-4291.4088L14197.1984,-4291.4268L14197.1587,-4291.4392L14197.0952,-4291.4567L14197.0471,-4291.4685L14196.8979,-4291.5023L14196.8898,-4291.5038L14196.852,-4291.5112L14196.7671,-4291.5292L14196.6985,-4291.5407L14196.6762,-4291.5444L14196.6271,-4291.5511L14196.6096,-4291.5534L14196.5813,-4291.5562L14196.5314,-4291.5626L14196.4804,-4291.5709L14196.4131,-4291.5838L14196.3565,-4291.5979L14196.3076,-4291.6114L14196.2671,-4291.6238L14196.2303,-4291.639L14196.1034,-4291.6941L14196.0208,-4291.7273L14195.9351,-4291.7594L14195.8801,-4291.7768L14195.7959,-4291.7988L14195.6882,-4291.8224L14195.6423,-4291.8303L14195.5849,-4291.8365L14195.5023,-4291.8404L14195.4195,-4291.841L14195.3364,-4291.8358L14195.2701,-4291.8316L14195.1216,-4291.8118L14195.0336,-4291.7927L14194.9185,-4291.7611L14194.7655,-4291.7011L14194.6897,-4291.6681L14194.3529,-4291.5131L14194.3359,-4291.5053"/>
<path content="1,北都交通（株）,帯広～新千歳空港　とかちミルキーライナー,3.0,3.0,3.0," xlink:title="1" d="M14203.125,-4291.6187L14203.1011,-4291.6144L14203.0308,-4291.6059L14202.9765,-4291.602L14202.9344,-4291.6009L14202.7417,-4291.6042L14202.6739,-4291.6038L14202.6416,-4291.6037L14202.6041,-4291.6014L14202.5603,-4291.5958L14202.5558,-4291.5953L14202.5162,-4291.5891L14202.4488,-4291.5744L14202.3869,-4291.5581L14202.3334,-4291.5412L14202.2883,-4291.5254L14202.2393,-4291.5063L14202.1904,-4291.4838L14202.0566,-4291.4191L14202.0138,-4291.3943L14201.9273,-4291.3414L14201.8624,-4291.2952L14201.7951,-4291.2429L14201.6513,-4291.1253L14201.545,-4291.0397L14201.434,-4290.9581L14201.4288,-4290.9542L14201.3569,-4290.9041L14201.2095,-4290.8088L14201.0635,-4290.7398L14200.91,-4290.6694L14200.7589,-4290.6047L14200.7107,-4290.5861L14200.6718,-4290.5732L14200.6404,-4290.5653L14200.5762,-4290.5518L14200.5303,-4290.5456L14200.5012,-4290.5428L14200.453,-4290.5394L14200.3536,-4290.5406L14200.3261,-4290.5423L14200.2856,-4290.5462L14200.2412,-4290.5524L14200.1984,-4290.5603L14200.1219,-4290.5783L14200.0446,-4290.601L14199.9637,-4290.6306L14199.952,-4290.635L14199.8115,-4290.6886L14199.7442,-4290.7105L14199.6478,-4290.7358L14199.6264,-4290.742L14199.5674,-4290.755L14199.4992,-4290.7696L14199.4461,-4290.7769L14199.3794,-4290.7868L14199.3201,-4290.7909L14199.1987,-4290.7904L14199.0763,-4290.792L14198.9545,-4290.794L14198.8321,-4290.8034L14198.7076,-4290.8138L14198.6216,-4290.8241L14198.5948,-4290.8286L14198.5756,-4290.832L14198.5245,-4290.841L14198.4977,-4290.8467L14198.4449,-4290.8562L14198.3975,-4290.8658L14198.3577,-4290.8759L14198.3364,-4290.881L14198.3035,-4290.8906L14198.2275,-4290.9179L14198.1814,-4290.937L14198.1674,-4290.9429L14198.0626,-4291.0014L14198.0297,-4291.0222L14197.9433,-4291.0841L14197.8668,-4291.1342L14197.736,-4291.204L14197.6198,-4291.2619L14197.4952,-4291.3165L14197.4141,-4291.3492L14197.3032,-4291.3925L14197.2573,-4291.4088L14197.1984,-4291.4268L14197.1587,-4291.4392L14197.0952,-4291.4567L14197.0471,-4291.4685L14196.8979,-4291.5023L14196.8898,-4291.5038L14196.852,-4291.5112L14196.7671,-4291.5292L14196.6985,-4291.5407L14196.6762,-4291.5444L14196.6271,-4291.5511L14196.6096,-4291.5534L14196.5813,-4291.5562L14196.5314,-4291.5626L14196.4804,-4291.5709L14196.4131,-4291.5838L14196.3565,-4291.5979L14196.3076,-4291.6114L14196.2671,-4291.6238L14196.2303,-4291.639L14196.1034,-4291.6941L14196.0208,-4291.7273L14195.9351,-4291.7594L14195.8801,-4291.7768L14195.7959,-4291.7988L14195.6882,-4291.8224L14195.6423,-4291.8303L14195.5849,-4291.8365L14195.5023,-4291.8404L14195.4195,-4291.841L14195.3364,-4291.8358L14195.2701,-4291.8316L14195.1216,-4291.8118L14195.0336,-4291.7927L14194.9185,-4291.7611L14194.7655,-4291.7011L14194.6897,-4291.6681L14194.3529,-4291.5131L14194.3359,-4291.5053"/>
<path content="1,北都交通（株）,札幌～帯広　ポテトライナー,7.0,7.0,7.0," xlink:title="1" d="M14203.125,-4291.6187L14203.1011,-4291.6144L14203.0308,-4291.6059L14202.9765,-4291.602L14202.9344,-4291.6009L14202.7417,-4291.6042L14202.6739,-4291.6038L14202.6416,-4291.6037L14202.6041,-4291.6014L14202.5603,-4291.5958L14202.5558,-4291.5953L14202.5162,-4291.5891L14202.4488,-4291.5744L14202.3869,-4291.5581L14202.3334,-4291.5412L14202.2883,-4291.5254L14202.2393,-4291.5063L14202.1904,-4291.4838L14202.0566,-4291.4191L14202.0138,-4291.3943L14201.9273,-4291.3414L14201.8624,-4291.2952L14201.7951,-4291.2429L14201.6513,-4291.1253L14201.545,-4291.0397L14201.434,-4290.9581L14201.4288,-4290.9542L14201.3569,-4290.9041L14201.2095,-4290.8088L14201.0635,-4290.7398L14200.91,-4290.6694L14200.7589,-4290.6047L14200.7107,-4290.5861L14200.6718,-4290.5732L14200.6404,-4290.5653L14200.5762,-4290.5518L14200.5303,-4290.5456L14200.5012,-4290.5428L14200.453,-4290.5394L14200.3536,-4290.5406L14200.3261,-4290.5423L14200.2856,-4290.5462L14200.2412,-4290.5524L14200.1984,-4290.5603L14200.1219,-4290.5783L14200.0446,-4290.601L14199.9637,-4290.6306L14199.952,-4290.635L14199.8115,-4290.6886L14199.7442,-4290.7105L14199.6478,-4290.7358L14199.6264,-4290.742L14199.5674,-4290.755L14199.4992,-4290.7696L14199.4461,-4290.7769L14199.3794,-4290.7868L14199.3201,-4290.7909L14199.1987,-4290.7904L14199.0763,-4290.792L14198.9545,-4290.794L14198.8321,-4290.8034L14198.7076,-4290.8138L14198.6216,-4290.8241L14198.5948,-4290.8286L14198.5756,-4290.832L14198.5245,-4290.841L14198.4977,-4290.8467L14198.4449,-4290.8562L14198.3975,-4290.8658L14198.3577,-4290.8759L14198.3364,-4290.881L14198.3035,-4290.8906L14198.2275,-4290.9179L14198.1814,-4290.937L14198.1674,-4290.9429L14198.0626,-4291.0014L14198.0297,-4291.0222L14197.9433,-4291.0841L14197.8668,-4291.1342L14197.736,-4291.204L14197.6198,-4291.2619L14197.4952,-4291.3165L14197.4141,-4291.3492L14197.3032,-4291.3925L14197.2573,-4291.4088L14197.1984,-4291.4268L14197.1587,-4291.4392L14197.0952,-4291.4567L14197.0471,-4291.4685L14196.8979,-4291.5023L14196.8898,-4291.5038L14196.852,-4291.5112L14196.7671,-4291.5292L14196.6985,-4291.5407L14196.6762,-4291.5444L14196.6271,-4291.5511L14196.6096,-4291.5534L14196.5813,-4291.5562L14196.5314,-4291.5626L14196.4804,-4291.5709L14196.4131,-4291.5838L14196.3565,-4291.5979L14196.3076,-4291.6114L14196.2671,-4291.6238L14196.2303,-4291.639L14196.1034,-4291.6941L14196.0208,-4291.7273L14195.9351,-4291.7594L14195.8801,-4291.7768L14195.7959,-4291.7988L14195.6882,-4291.8224L14195.6423,-4291.8303L14195.5849,-4291.8365L14195.5023,-4291.8404L14195.4195,-4291.841L14195.3364,-4291.8358L14195.2701,-4291.8316L14195.1216,-4291.8118L14195.0336,-4291.7927L14194.9185,-4291.7611L14194.7655,-4291.7011L14194.6897,-4291.6681L14194.3529,-4291.5131L14194.3359,-4291.5053"/>
<path content="1,北都交通（株）,札幌～根室　オーロラ号,2.0,2.0,2.0," xlink:title="1" d="M14194.3359,-4291.5053L14194.3529,-4291.5131L14194.6897,-4291.6681L14194.7655,-4291.7011L14194.9185,-4291.7611L14195.0336,-4291.7927L14195.1216,-4291.8118L14195.2701,-4291.8316L14195.3364,-4291.8358L14195.4195,-4291.841L14195.5023,-4291.8404L14195.5849,-4291.8365L14195.6423,-4291.8303L14195.6882,-4291.8224L14195.7959,-4291.7988L14195.8801,-4291.7768L14195.9351,-4291.7594L14196.0208,-4291.7273L14196.1034,-4291.6941L14196.2303,-4291.639L14196.2671,-4291.6238L14196.3076,-4291.6114L14196.3565,-4291.5979L14196.4131,-4291.5838L14196.4804,-4291.5709L14196.5314,-4291.5626L14196.5813,-4291.5562L14196.6096,-4291.5534L14196.6271,-4291.5511L14196.6762,-4291.5444L14196.6985,-4291.5407L14196.7671,-4291.5292L14196.852,-4291.5112L14196.8898,-4291.5038L14196.8979,-4291.5023L14197.0471,-4291.4685L14197.0952,-4291.4567L14197.1587,-4291.4392L14197.1984,-4291.4268L14197.2573,-4291.4088L14197.3032,-4291.3925L14197.4141,-4291.3492L14197.4952,-4291.3165L14197.6198,-4291.2619L14197.736,-4291.204L14197.8668,-4291.1342L14197.9433,-4291.0841L14198.0297,-4291.0222L14198.0626,-4291.0014L14198.1674,-4290.9429L14198.1814,-4290.937L14198.2275,-4290.9179L14198.3035,-4290.8906L14198.3364,-4290.881L14198.3577,-4290.8759L14198.3975,-4290.8658L14198.4449,-4290.8562L14198.4977,-4290.8467L14198.5245,-4290.841L14198.5756,-4290.832L14198.5948,-4290.8286L14198.6216,-4290.8241L14198.7076,-4290.8138L14198.8321,-4290.8034L14198.9545,-4290.794L14199.0763,-4290.792L14199.1987,-4290.7904L14199.3201,-4290.7909L14199.3794,-4290.7868L14199.4461,-4290.7769L14199.4992,-4290.7696L14199.5674,-4290.755L14199.6264,-4290.742L14199.6478,-4290.7358L14199.7442,-4290.7105L14199.8115,-4290.6886L14199.952,-4290.635L14199.9637,-4290.6306L14200.0446,-4290.601L14200.1219,-4290.5783L14200.1984,-4290.5603L14200.2412,-4290.5524L14200.2856,-4290.5462L14200.3261,-4290.5423L14200.3536,-4290.5406L14200.453,-4290.5394L14200.5012,-4290.5428L14200.5303,-4290.5456L14200.5762,-4290.5518L14200.6404,-4290.5653L14200.6718,-4290.5732L14200.7107,-4290.5861L14200.7589,-4290.6047L14200.91,-4290.6694L14201.0635,-4290.7398L14201.2095,-4290.8088L14201.3569,-4290.9041L14201.4288,-4290.9542L14201.434,-4290.9581L14201.545,-4291.0397L14201.6513,-4291.1253L14201.7951,-4291.2429L14201.8624,-4291.2952L14201.9273,-4291.3414L14202.0138,-4291.3943L14202.0566,-4291.4191L14202.1904,-4291.4838L14202.2393,-4291.5063L14202.2883,-4291.5254L14202.3334,-4291.5412L14202.3869,-4291.5581L14202.4488,-4291.5744L14202.5162,-4291.5891L14202.5558,-4291.5953L14202.5603,-4291.5958L14202.6041,-4291.6014L14202.6416,-4291.6037L14202.6739,-4291.6038L14202.7417,-4291.6042L14202.9344,-4291.6009L14202.9765,-4291.602L14203.0308,-4291.6059L14203.1011,-4291.6144L14203.125,-4291.6187"/>
<path content="1,十勝バス（株）,都市間バスポテトライナー号（十勝川温泉発）,1.0,1.0,1.0," xlink:title="1" d="M14194.3359,-4291.5053L14194.3529,-4291.5131L14194.6897,-4291.6681L14194.7655,-4291.7011L14194.9185,-4291.7611L14195.0336,-4291.7927L14195.1216,-4291.8118L14195.2701,-4291.8316L14195.3364,-4291.8358L14195.4195,-4291.841L14195.5023,-4291.8404L14195.5849,-4291.8365L14195.6423,-4291.8303L14195.6882,-4291.8224L14195.7959,-4291.7988L14195.8801,-4291.7768L14195.9351,-4291.7594L14196.0208,-4291.7273L14196.1034,-4291.6941L14196.2303,-4291.639L14196.2671,-4291.6238L14196.3076,-4291.6114L14196.3565,-4291.5979L14196.4131,-4291.5838L14196.4804,-4291.5709L14196.5314,-4291.5626L14196.5813,-4291.5562L14196.6096,-4291.5534L14196.6271,-4291.5511L14196.6762,-4291.5444L14196.6985,-4291.5407L14196.7671,-4291.5292L14196.852,-4291.5112L14196.8898,-4291.5038L14196.8979,-4291.5023L14197.0471,-4291.4685L14197.0952,-4291.4567L14197.1587,-4291.4392L14197.1984,-4291.4268L14197.2573,-4291.4088L14197.3032,-4291.3925L14197.4141,-4291.3492L14197.4952,-4291.3165L14197.6198,-4291.2619L14197.736,-4291.204L14197.8668,-4291.1342L14197.9433,-4291.0841L14198.0297,-4291.0222L14198.0626,-4291.0014L14198.1674,-4290.9429L14198.1814,-4290.937L14198.2275,-4290.9179L14198.3035,-4290.8906L14198.3364,-4290.881L14198.3577,-4290.8759L14198.3975,-4290.8658L14198.4449,-4290.8562L14198.4977,-4290.8467L14198.5245,-4290.841L14198.5756,-4290.832L14198.5948,-4290.8286L14198.6216,-4290.8241L14198.7076,-4290.8138L14198.8321,-4290.8034L14198.9545,-4290.794L14199.0763,-4290.792L14199.1987,-4290.7904L14199.3201,-4290.7909L14199.3794,-4290.7868L14199.4461,-4290.7769L14199.4992,-4290.7696L14199.5674,-4290.755L14199.6264,-4290.742L14199.6478,-4290.7358L14199.7442,-4290.7105L14199.8115,-4290.6886L14199.952,-4290.635L14199.9637,-4290.6306L14200.0446,-4290.601L14200.1219,-4290.5783L14200.1984,-4290.5603L14200.2412,-4290.5524L14200.2856,-4290.5462L14200.3261,-4290.5423L14200.3536,-4290.5406L14200.453,-4290.5394L14200.5012,-4290.5428L14200.5303,-4290.5456L14200.5762,-4290.5518L14200.6404,-4290.5653L14200.6718,-4290.5732L14200.7107,-4290.5861L14200.7589,-4290.6047L14200.91,-4290.6694L14201.0635,-4290.7398L14201.2095,-4290.8088L14201.3569,-4290.9041L14201.4288,-4290.9542L14201.434,-4290.9581L14201.545,-4291.0397L14201.6513,-4291.1253L14201.7951,-4291.2429L14201.8624,-4291.2952L14201.9273,-4291.3414L14202.0138,-4291.3943L14202.0566,-4291.4191L14202.1904,-4291.4838L14202.2393,-4291.5063L14202.2883,-4291.5254L14202.3334,-4291.5412L14202.3869,-4291.5581L14202.4488,-4291.5744L14202.5162,-4291.5891L14202.5558,-4291.5953L14202.5603,-4291.5958L14202.6041,-4291.6014L14202.6416,-4291.6037L14202.6739,-4291.6038L14202.7417,-4291.6042L14202.9344,-4291.6009L14202.9765,-4291.602L14203.0308,-4291.6059L14203.1011,-4291.6144L14203.125,-4291.6187"/>
<path content="1,十勝バス（株）,都市間バスポテトライナー号（帯広バスターミナル発、芽室経由,4.0,4.0,4.0," xlink:title="1" d="M14203.125,-4291.6187L14203.1011,-4291.6144L14203.0308,-4291.6059L14202.9765,-4291.602L14202.9344,-4291.6009L14202.7417,-4291.6042L14202.6739,-4291.6038L14202.6416,-4291.6037L14202.6041,-4291.6014L14202.5603,-4291.5958L14202.5558,-4291.5953L14202.5162,-4291.5891L14202.4488,-4291.5744L14202.3869,-4291.5581L14202.3334,-4291.5412L14202.2883,-4291.5254L14202.2393,-4291.5063L14202.1904,-4291.4838L14202.0566,-4291.4191L14202.0138,-4291.3943L14201.9273,-4291.3414L14201.8624,-4291.2952L14201.7951,-4291.2429L14201.6513,-4291.1253L14201.545,-4291.0397L14201.434,-4290.9581L14201.4288,-4290.9542L14201.3569,-4290.9041L14201.2095,-4290.8088L14201.0635,-4290.7398L14200.91,-4290.6694L14200.7589,-4290.6047L14200.7107,-4290.5861L14200.6718,-4290.5732L14200.6404,-4290.5653L14200.5762,-4290.5518L14200.5303,-4290.5456L14200.5012,-4290.5428L14200.453,-4290.5394L14200.3536,-4290.5406L14200.3261,-4290.5423L14200.2856,-4290.5462L14200.2412,-4290.5524L14200.1984,-4290.5603L14200.1219,-4290.5783L14200.0446,-4290.601L14199.9637,-4290.6306L14199.952,-4290.635L14199.8115,-4290.6886L14199.7442,-4290.7105L14199.6478,-4290.7358L14199.6264,-4290.742L14199.5674,-4290.755L14199.4992,-4290.7696L14199.4461,-4290.7769L14199.3794,-4290.7868L14199.3201,-4290.7909L14199.1987,-4290.7904L14199.0763,-4290.792L14198.9545,-4290.794L14198.8321,-4290.8034L14198.7076,-4290.8138L14198.6216,-4290.8241L14198.5948,-4290.8286L14198.5756,-4290.832L14198.5245,-4290.841L14198.4977,-4290.8467L14198.4449,-4290.8562L14198.3975,-4290.8658L14198.3577,-4290.8759L14198.3364,-4290.881L14198.3035,-4290.8906L14198.2275,-4290.9179L14198.1814,-4290.937L14198.1674,-4290.9429L14198.0626,-4291.0014L14198.0297,-4291.0222L14197.9433,-4291.0841L14197.8668,-4291.1342L14197.736,-4291.204L14197.6198,-4291.2619L14197.4952,-4291.3165L14197.4141,-4291.3492L14197.3032,-4291.3925L14197.2573,-4291.4088L14197.1984,-4291.4268L14197.1587,-4291.4392L14197.0952,-4291.4567L14197.0471,-4291.4685L14196.8979,-4291.5023L14196.8898,-4291.5038L14196.852,-4291.5112L14196.7671,-4291.5292L14196.6985,-4291.5407L14196.6762,-4291.5444L14196.6271,-4291.5511L14196.6096,-4291.5534L14196.5813,-4291.5562L14196.5314,-4291.5626L14196.4804,-4291.5709L14196.4131,-4291.5838L14196.3565,-4291.5979L14196.3076,-4291.6114L14196.2671,-4291.6238L14196.2303,-4291.639L14196.1034,-4291.6941L14196.0208,-4291.7273L14195.9351,-4291.7594L14195.8801,-4291.7768L14195.7959,-4291.7988L14195.6882,-4291.8224L14195.6423,-4291.8303L14195.5849,-4291.8365L14195.5023,-4291.8404L14195.4195,-4291.841L14195.3364,-4291.8358L14195.2701,-4291.8316L14195.1216,-4291.8118L14195.0336,-4291.7927L14194.9185,-4291.7611L14194.7655,-4291.7011L14194.6897,-4291.6681L14194.3529,-4291.5131L14194.3359,-4291.5053"/>
<path content="1,十勝バス（株）,都市間バスポテトライナー号（帯広バスターミナル発、音更経由,3.0,3.0,3.0," xlink:title="1" d="M14203.125,-4291.6187L14203.1011,-4291.6144L14203.0308,-4291.6059L14202.9765,-4291.602L14202.9344,-4291.6009L14202.7417,-4291.6042L14202.6739,-4291.6038L14202.6416,-4291.6037L14202.6041,-4291.6014L14202.5603,-4291.5958L14202.5558,-4291.5953L14202.5162,-4291.5891L14202.4488,-4291.5744L14202.3869,-4291.5581L14202.3334,-4291.5412L14202.2883,-4291.5254L14202.2393,-4291.5063L14202.1904,-4291.4838L14202.0566,-4291.4191L14202.0138,-4291.3943L14201.9273,-4291.3414L14201.8624,-4291.2952L14201.7951,-4291.2429L14201.6513,-4291.1253L14201.545,-4291.0397L14201.434,-4290.9581L14201.4288,-4290.9542L14201.3569,-4290.9041L14201.2095,-4290.8088L14201.0635,-4290.7398L14200.91,-4290.6694L14200.7589,-4290.6047L14200.7107,-4290.5861L14200.6718,-4290.5732L14200.6404,-4290.5653L14200.5762,-4290.5518L14200.5303,-4290.5456L14200.5012,-4290.5428L14200.453,-4290.5394L14200.3536,-4290.5406L14200.3261,-4290.5423L14200.2856,-4290.5462L14200.2412,-4290.5524L14200.1984,-4290.5603L14200.1219,-4290.5783L14200.0446,-4290.601L14199.9637,-4290.6306L14199.952,-4290.635L14199.8115,-4290.6886L14199.7442,-4290.7105L14199.6478,-4290.7358L14199.6264,-4290.742L14199.5674,-4290.755L14199.4992,-4290.7696L14199.4461,-4290.7769L14199.3794,-4290.7868L14199.3201,-4290.7909L14199.1987,-4290.7904L14199.0763,-4290.792L14198.9545,-4290.794L14198.8321,-4290.8034L14198.7076,-4290.8138L14198.6216,-4290.8241L14198.5948,-4290.8286L14198.5756,-4290.832L14198.5245,-4290.841L14198.4977,-4290.8467L14198.4449,-4290.8562L14198.3975,-4290.8658L14198.3577,-4290.8759L14198.3364,-4290.881L14198.3035,-4290.8906L14198.2275,-4290.9179L14198.1814,-4290.937L14198.1674,-4290.9429L14198.0626,-4291.0014L14198.0297,-4291.0222L14197.9433,-4291.0841L14197.8668,-4291.1342L14197.736,-4291.204L14197.6198,-4291.2619L14197.4952,-4291.3165L14197.4141,-4291.3492L14197.3032,-4291.3925L14197.2573,-4291.4088L14197.1984,-4291.4268L14197.1587,-4291.4392L14197.0952,-4291.4567L14197.0471,-4291.4685L14196.8979,-4291.5023L14196.8898,-4291.5038L14196.852,-4291.5112L14196.7671,-4291.5292L14196.6985,-4291.5407L14196.6762,-4291.5444L14196.6271,-4291.5511L14196.6096,-4291.5534L14196.5813,-4291.5562L14196.5314,-4291.5626L14196.4804,-4291.5709L14196.4131,-4291.5838L14196.3565,-4291.5979L14196.3076,-4291.6114L14196.2671,-4291.6238L14196.2303,-4291.639L14196.1034,-4291.6941L14196.0208,-4291.7273L14195.9351,-4291.7594L14195.8801,-4291.7768L14195.7959,-4291.7988L14195.6882,-4291.8224L14195.6423,-4291.8303L14195.5849,-4291.8365L14195.5023,-4291.8404L14195.4195,-4291.841L14195.3364,-4291.8358L14195.2701,-4291.8316L14195.1216,-4291.8118L14195.0336,-4291.7927L14194.9185,-4291.7611L14194.7655,-4291.7011L14194.6897,-4291.6681L14194.3529,-4291.5131L14194.3359,-4291.5053"/>
<path content="1,夕張鉄道（株）,オソウシ入口～中学校前,2.0,2.0,2.0," xlink:title="1" d="M14197.5929,-4291.073L14197.7039,-4291.016L14197.7636,-4290.9896L14197.837,-4290.9564L14197.8745,-4290.9384L14197.941,-4290.9091L14198.0098,-4290.8781L14198.0825,-4290.8455L14198.1345,-4290.8213L14198.1515,-4290.8142L14198.2255,-4290.7808L14198.2568,-4290.7667L14198.3058,-4290.7453L14198.328,-4290.7403L14198.3586,-4290.7369L14198.393,-4290.7375L14198.4518,-4290.7448L14198.4716,-4290.7489L14198.5811,-4290.7634L14198.6231,-4290.7684L14198.6346,-4290.7696L14198.6675,-4290.7729L14198.7233,-4290.7741L14198.7761,-4290.7696L14198.7893,-4290.7666L14198.8001,-4290.7624L14198.8793,-4290.7254L14198.9351,-4290.7003L14198.9474,-4290.6953L14199.0062,-4290.6778L14199.0407,-4290.6688L14199.0511,-4290.6667L14199.137,-4290.6474L14199.2242,-4290.6233L14199.3114,-4290.6008L14199.3756,-4290.5833L14199.5423,-4290.5371L14199.6264,-4290.5154L14199.657,-4290.5113L14199.7128,-4290.4967L14200.0605,-4290.406L14200.095,-4290.3934L14200.1296,-4290.3846L14200.1569,-4290.3792L14200.1801,-4290.3763L14200.1999,-4290.3751L14200.2925,-4290.3746L14200.3582,-4290.3746L14200.3926,-4290.3763L14200.4439,-4290.3841L14200.4768,-4290.3931L14200.528,-4290.4117L14200.5861,-4290.4376L14200.619,-4290.4522L14200.8537,-4290.558L14200.8943,-4290.5758L14200.9227,-4290.5883L14200.9474,-4290.5979L14200.9769,-4290.6092L14201.0044,-4290.6182L14201.0777,-4290.6415L14201.178,-4290.6734L14201.2319,-4290.6902L14201.256,-4290.6987L14201.2777,-4290.7079L14201.3329,-4290.7365L14201.7316,-4290.9886L14202.0222,-4291.1748L14202.2362,-4291.3147L14202.3961,-4291.4202L14202.4248,-4291.4346L14202.4786,-4291.4739L14202.6205,-4291.5673L14202.6408,-4291.5828L14202.6739,-4291.6038L14202.7087,-4291.626L14202.796,-4291.6729L14202.8329,-4291.6903L14202.8595,-4291.7032L14202.9077,-4291.7224L14202.9834,-4291.7505L14203.0384,-4291.7686L14203.0858,-4291.7843L14203.125,-4291.7981M14203.125,-4295.6926L14203.1231,-4295.6942L14203.1063,-4295.7077L14203.0703,-4295.7347L14203.0572,-4295.7431L14203.0311,-4295.7679L14202.9922,-4295.7836L14202.9501,-4295.8067L14202.9125,-4295.8258L14202.8811,-4295.8393L14202.8712,-4295.8444L14202.8482,-4295.854L14202.7249,-4295.9006L14202.6658,-4295.9239L14202.619,-4295.9399L14202.5243,-4295.9738L14202.4921,-4295.9856L14202.1797,-4296.1027L14202.1116,-4296.1338L14202.038,-4296.1623L14202.0219,-4296.1696L14201.9928,-4296.1831L14201.9369,-4296.2113L14201.904,-4296.2304L14201.8917,-4296.2388L14201.8718,-4296.2512L14201.8274,-4296.285L14201.6621,-4296.4217L14201.6016,-4296.4729L14201.4384,-4296.6097L14201.479,-4296.6344L14201.4943,-4296.6434L14201.5012,-4296.6474L14201.5326,-4296.6659L14201.6352,-4296.7194L14201.6812,-4296.7487L14201.708,-4296.765L14201.7271,-4296.7774L14201.7539,-4296.7931L14201.7746,-4296.8061L14201.8619,-4296.8607L14201.8657,-4296.8629L14201.8917,-4296.8657L14201.904,-4296.8646L14201.9591,-4296.8489L14201.9805,-4296.8494L14201.9966,-4296.8522L14202.0035,-4296.8562L14202.0142,-4296.8669L14202.0234,-4296.8821L14202.0295,-4296.9057L14202.0326,-4296.9276L14202.0311,-4296.9479L14202.0273,-4296.962L14202.0234,-4296.9682L14202.0181,-4296.9772L14202.0081,-4296.989L14201.9353,-4297.0492L14201.9039,-4297.0739L14201.8641,-4297.1066L14201.8036,-4297.155L14201.7217,-4297.236L14201.6421,-4297.3165L14201.6237,-4297.3323L14201.6196,-4297.338L14201.6166,-4297.3438L14201.615,-4297.3513L14201.616,-4297.3604L14201.6234,-4297.3711L14201.7002,-4297.4229L14201.7339,-4297.4454L14201.7378,-4297.4465L14201.7776,-4297.4729L14201.8258,-4297.5044L14201.9054,-4297.5574L14202.0239,-4297.6379L14201.995,-4297.6592L14201.9215,-4297.7194L14201.897,-4297.7436L14201.8916,-4297.7532L14201.8909,-4297.7599L14201.8924,-4297.7779L14201.9016,-4297.7993L14201.9131,-4297.8168L14201.9261,-4297.8387L14201.9269,-4297.8489L14201.9253,-4297.8516M14201.8299,-4297.8516L14201.7929,-4297.8438L14201.7684,-4297.8393L14201.7477,-4297.8359L14201.7056,-4297.8353L14201.6977,-4297.8383L14201.691,-4297.8409L14201.6826,-4297.8466L14201.6789,-4297.8494L14201.677,-4297.8516"/>
<path content="1,夕張鉄道（株）,中学校前～オソウシ入口,2.5,0.0,0.0," xlink:title="1" d="M14197.5929,-4291.073L14197.7039,-4291.016L14197.7636,-4290.9896L14197.837,-4290.9564L14197.8745,-4290.9384L14197.941,-4290.9091L14198.0098,-4290.8781L14198.0825,-4290.8455L14198.1345,-4290.8213L14198.1515,-4290.8142L14198.2255,-4290.7808L14198.2568,-4290.7667L14198.3058,-4290.7453L14198.328,-4290.7403L14198.3586,-4290.7369L14198.393,-4290.7375L14198.4518,-4290.7448L14198.4716,-4290.7489L14198.5811,-4290.7634L14198.6231,-4290.7684L14198.6346,-4290.7696L14198.6675,-4290.7729L14198.7233,-4290.7741L14198.7761,-4290.7696L14198.7893,-4290.7666L14198.8001,-4290.7624L14198.8793,-4290.7254L14198.9351,-4290.7003L14198.9474,-4290.6953L14199.0062,-4290.6778L14199.0407,-4290.6688L14199.0511,-4290.6667L14199.137,-4290.6474L14199.2242,-4290.6233L14199.3114,-4290.6008L14199.3756,-4290.5833L14199.5423,-4290.5371L14199.6264,-4290.5154L14199.657,-4290.5113L14199.7128,-4290.4967L14200.0605,-4290.406L14200.095,-4290.3934L14200.1296,-4290.3846L14200.1569,-4290.3792L14200.1801,-4290.3763L14200.1999,-4290.3751L14200.2925,-4290.3746L14200.3582,-4290.3746L14200.3926,-4290.3763L14200.4439,-4290.3841L14200.4768,-4290.3931L14200.528,-4290.4117L14200.5861,-4290.4376L14200.619,-4290.4522L14200.8537,-4290.558L14200.8943,-4290.5758L14200.9227,-4290.5883L14200.9474,-4290.5979L14200.9769,-4290.6092L14201.0044,-4290.6182L14201.0777,-4290.6415L14201.178,-4290.6734L14201.2319,-4290.6902L14201.256,-4290.6987L14201.2777,-4290.7079L14201.3329,-4290.7365L14201.7316,-4290.9886L14202.0222,-4291.1748L14202.2362,-4291.3147L14202.3961,-4291.4202L14202.4248,-4291.4346L14202.4786,-4291.4739L14202.6205,-4291.5673L14202.6408,-4291.5828L14202.6739,-4291.6038L14202.7087,-4291.626L14202.796,-4291.6729L14202.8329,-4291.6903L14202.8595,-4291.7032L14202.9077,-4291.7224L14202.9834,-4291.7505L14203.0384,-4291.7686L14203.0858,-4291.7843L14203.125,-4291.7981M14203.125,-4295.6926L14203.1231,-4295.6942L14203.1063,-4295.7077L14203.0703,-4295.7347L14203.0572,-4295.7431L14203.0311,-4295.7679L14202.9922,-4295.7836L14202.9501,-4295.8067L14202.9125,-4295.8258L14202.8811,-4295.8393L14202.8712,-4295.8444L14202.8482,-4295.854L14202.7249,-4295.9006L14202.6658,-4295.9239L14202.619,-4295.9399L14202.5243,-4295.9738L14202.4921,-4295.9856L14202.1797,-4296.1027L14202.1116,-4296.1338L14202.038,-4296.1623L14202.0219,-4296.1696L14201.9928,-4296.1831L14201.9369,-4296.2113L14201.904,-4296.2304L14201.8917,-4296.2388L14201.8718,-4296.2512L14201.8274,-4296.285L14201.6621,-4296.4217L14201.6016,-4296.4729L14201.4384,-4296.6097L14201.479,-4296.6344L14201.4943,-4296.6434L14201.5012,-4296.6474L14201.5326,-4296.6659L14201.6352,-4296.7194L14201.6812,-4296.7487L14201.708,-4296.765L14201.7271,-4296.7774L14201.7539,-4296.7931L14201.7746,-4296.8061L14201.8619,-4296.8607L14201.8657,-4296.8629L14201.8917,-4296.8657L14201.904,-4296.8646L14201.9591,-4296.8489L14201.9805,-4296.8494L14201.9966,-4296.8522L14202.0035,-4296.8562L14202.0142,-4296.8669L14202.0234,-4296.8821L14202.0295,-4296.9057L14202.0326,-4296.9276L14202.0311,-4296.9479L14202.0273,-4296.962L14202.0234,-4296.9682L14202.0181,-4296.9772L14202.0081,-4296.989L14201.9353,-4297.0492L14201.9039,-4297.0739L14201.8641,-4297.1066L14201.8036,-4297.155L14201.7217,-4297.236L14201.6421,-4297.3165L14201.6237,-4297.3323L14201.6196,-4297.338L14201.6166,-4297.3438L14201.615,-4297.3513L14201.616,-4297.3604L14201.6234,-4297.3711L14201.7002,-4297.4229L14201.7339,-4297.4454L14201.7378,-4297.4465L14201.7776,-4297.4729L14201.8258,-4297.5044L14201.9054,-4297.5574L14202.0239,-4297.6379L14201.995,-4297.6592L14201.9215,-4297.7194L14201.897,-4297.7436L14201.8916,-4297.7532L14201.8909,-4297.7599L14201.8924,-4297.7779L14201.9016,-4297.7993L14201.9131,-4297.8168L14201.9261,-4297.8387L14201.9269,-4297.8489L14201.9253,-4297.8516M14201.8299,-4297.8516L14201.7929,-4297.8438L14201.7684,-4297.8393L14201.7477,-4297.8359L14201.7056,-4297.8353L14201.6977,-4297.8383L14201.691,-4297.8409L14201.6826,-4297.8466L14201.6789,-4297.8494L14201.677,-4297.8516"/>
<path content="1,夕張鉄道（株）,中学校前～夕鉄バスターミナル,2.0,1.5,1.0," xlink:title="1" d="M14200.734,-4297.8516L14200.7502,-4297.8403L14200.7544,-4297.8379L14200.7597,-4297.8355L14200.769,-4297.8327L14200.7762,-4297.8313L14200.7902,-4297.8297L14200.8242,-4297.8274L14200.9153,-4297.8235L14200.9584,-4297.8219L14200.9873,-4297.8201L14201.1665,-4297.8139L14201.1864,-4297.8156L14201.2033,-4297.8201L14201.2155,-4297.8246L14201.2201,-4297.8257L14201.2301,-4297.8302L14201.2756,-4297.8516"/>
<path content="1,夕張鉄道（株）,新さっぽろ駅前線,3.5,3.3,3.0," xlink:title="1" d="M14201.2756,-4297.8516L14201.2301,-4297.8302L14201.2201,-4297.8257L14201.2155,-4297.8246L14201.2033,-4297.8201L14201.1864,-4297.8156L14201.1665,-4297.8139L14200.9873,-4297.8201L14200.9584,-4297.8219L14200.9153,-4297.8235L14200.8242,-4297.8274L14200.7902,-4297.8297L14200.7762,-4297.8313L14200.769,-4297.8327L14200.7597,-4297.8355L14200.7544,-4297.8379L14200.7502,-4297.8403L14200.734,-4297.8516"/>
<path content="1,夕張鉄道（株）,滝ノ上駅前,22.5,17.5,12.5," xlink:title="1" d="M14197.5929,-4291.073L14197.7039,-4291.016L14197.7636,-4290.9896L14197.837,-4290.9564L14197.8745,-4290.9384L14197.941,-4290.9091L14198.0098,-4290.8781L14198.0825,-4290.8455L14198.1345,-4290.8213L14198.1515,-4290.8142L14198.2255,-4290.7808L14198.2568,-4290.7667L14198.3058,-4290.7453L14198.328,-4290.7403L14198.3586,-4290.7369L14198.393,-4290.7375L14198.4518,-4290.7448L14198.4716,-4290.7489L14198.5811,-4290.7634L14198.6231,-4290.7684L14198.6346,-4290.7696L14198.6675,-4290.7729L14198.7233,-4290.7741L14198.7761,-4290.7696L14198.7893,-4290.7666L14198.8001,-4290.7624L14198.8793,-4290.7254L14198.9351,-4290.7003L14198.9474,-4290.6953L14199.0062,-4290.6778L14199.0407,-4290.6688L14199.0511,-4290.6667L14199.137,-4290.6474L14199.2242,-4290.6233L14199.3114,-4290.6008L14199.3756,-4290.5833L14199.5423,-4290.5371L14199.6264,-4290.5154L14199.657,-4290.5113L14199.7128,-4290.4967L14200.0605,-4290.406L14200.095,-4290.3934L14200.1296,-4290.3846L14200.1569,-4290.3792L14200.1801,-4290.3763L14200.1999,-4290.3751L14200.2925,-4290.3746L14200.3582,-4290.3746L14200.3926,-4290.3763L14200.4439,-4290.3841L14200.4768,-4290.3931L14200.528,-4290.4117L14200.5861,-4290.4376L14200.619,-4290.4522L14200.8537,-4290.558L14200.8943,-4290.5758L14200.9227,-4290.5883L14200.9474,-4290.5979L14200.9769,-4290.6092L14201.0044,-4290.6182L14201.0777,-4290.6415L14201.178,-4290.6734L14201.2319,-4290.6902L14201.256,-4290.6987L14201.2777,-4290.7079L14201.3329,-4290.7365L14201.7316,-4290.9886L14202.0222,-4291.1748L14202.2362,-4291.3147L14202.3961,-4291.4202L14202.4248,-4291.4346L14202.4786,-4291.4739L14202.6205,-4291.5673L14202.6408,-4291.5828L14202.6739,-4291.6038L14202.7087,-4291.626L14202.796,-4291.6729L14202.8329,-4291.6903L14202.8595,-4291.7032L14202.9077,-4291.7224L14202.9834,-4291.7505L14203.0384,-4291.7686L14203.0858,-4291.7843L14203.125,-4291.7981"/>
<path content="1,夕張鉄道（株）,滝ノ上駅前,22.5,17.5,12.5," xlink:title="1" d="M14203.125,-4295.6926L14203.1231,-4295.6942L14203.1063,-4295.7077L14203.0703,-4295.7347L14203.0572,-4295.7431L14203.0311,-4295.7679L14202.9922,-4295.7836L14202.9501,-4295.8067L14202.9125,-4295.8258L14202.8811,-4295.8393L14202.8712,-4295.8444L14202.8482,-4295.854L14202.7249,-4295.9006L14202.6658,-4295.9239"/>
<path content="1,夕張鉄道（株）,滝ノ上駅前,22.5,17.5,12.5," xlink:title="1" d="M14202.6658,-4295.9239L14202.619,-4295.9399L14202.5243,-4295.9738L14202.4921,-4295.9856L14202.1797,-4296.1027L14202.1116,-4296.1338L14202.038,-4296.1623L14202.0219,-4296.1696L14201.9928,-4296.1831L14201.9369,-4296.2113L14201.904,-4296.2304L14201.8917,-4296.2388L14201.8718,-4296.2512L14201.8274,-4296.285L14201.6621,-4296.4217L14201.6016,-4296.4729L14201.4384,-4296.6097L14201.4186,-4296.6249L14201.2437,-4296.7718L14201.0238,-4296.9579L14201.0188,-4296.9614L14201.005,-4296.9721L14201.0027,-4296.9749L14200.9391,-4297.028L14200.9299,-4297.0356L14200.8526,-4297.0998L14200.8243,-4297.1223L14200.7952,-4297.1465L14200.7555,-4297.1839L14200.7442,-4297.1976L14200.7374,-4297.2078L14200.7253,-4297.2291L14200.7201,-4297.2394L14200.7151,-4297.2522L14200.711,-4297.2647L14200.6081,-4297.6844L14200.5992,-4297.7255L14200.6008,-4297.7373L14200.6027,-4297.7473L14200.607,-4297.7613L14200.6115,-4297.7733L14200.6166,-4297.783L14200.6218,-4297.7911L14200.6261,-4297.7956L14200.6768,-4297.8276L14200.7146,-4297.8516"/>
<path content="1,夕張鉄道（株）,滝ノ上駅前,22.5,17.5,12.5," xlink:title="1" d="M14202.6658,-4295.9239L14202.6703,-4295.9304L14202.7111,-4295.989L14202.741,-4296.0369L14202.7444,-4296.0432L14202.7471,-4296.0498L14202.7486,-4296.0566L14202.7494,-4296.0646L14202.7479,-4296.0729L14202.7456,-4296.0818L14202.7417,-4296.0914L14202.7203,-4296.1393L14202.7065,-4296.1781L14202.7027,-4296.1902L14202.6996,-4296.2057L14202.6969,-4296.2215L14202.6958,-4296.2378L14202.6944,-4296.2561L14202.6958,-4296.2743L14202.7006,-4296.3006L14202.705,-4296.316L14202.7339,-4296.3975L14202.7374,-4296.4086L14202.7397,-4296.4188L14202.7402,-4296.4276L14202.7385,-4296.4359L14202.7337,-4296.4459L14202.7211,-4296.4567L14202.7042,-4296.4684L14202.6843,-4296.478L14202.6651,-4296.4853L14202.6452,-4296.4904L14202.6269,-4296.4932L14202.5174,-4296.4932L14202.4959,-4296.4972L14202.4821,-4296.5017L14202.4653,-4296.5112L14202.4063,-4296.5591L14202.2562,-4296.6857L14202.0885,-4296.8292L14202.0786,-4296.8399L14202.0737,-4296.8508L14202.0732,-4296.8674L14202.0778,-4296.8832L14202.0793,-4296.9136L14202.0793,-4296.9226L14202.0739,-4296.9479L14202.0694,-4296.9603L14202.0533,-4296.9873L14202.0234,-4296.9682L14202.0181,-4296.9772L14202.0081,-4296.989L14201.9353,-4297.0492L14201.9039,-4297.0739L14201.8641,-4297.1066L14201.8036,-4297.155L14201.7217,-4297.236L14201.6421,-4297.3165L14201.6237,-4297.3323L14201.6196,-4297.338L14201.6166,-4297.3438L14201.615,-4297.3513L14201.616,-4297.3604L14201.6234,-4297.3711L14201.7002,-4297.4229L14201.7339,-4297.4454L14201.7378,-4297.4465L14201.7776,-4297.4729L14201.8258,-4297.5044L14201.9054,-4297.5574L14202.0239,-4297.6379L14201.995,-4297.6592L14201.9215,-4297.7194L14201.897,-4297.7436L14201.8916,-4297.7532L14201.8909,-4297.7599L14201.8924,-4297.7779L14201.9016,-4297.7993L14201.9131,-4297.8168L14201.9261,-4297.8387L14201.9269,-4297.8489L14201.9253,-4297.8516M14201.8299,-4297.8516L14201.7929,-4297.8438L14201.7684,-4297.8393L14201.7477,-4297.8359L14201.7056,-4297.8353L14201.6977,-4297.8383L14201.691,-4297.8409L14201.6826,-4297.8466L14201.6789,-4297.8494L14201.677,-4297.8516"/>
<path content="1,夕張鉄道（株）,滝ノ上駅前,22.5,17.5,12.5," xlink:title="1" d="M14201.2756,-4297.8516L14201.2301,-4297.8302L14201.2201,-4297.8257L14201.2155,-4297.8246L14201.2033,-4297.8201L14201.1864,-4297.8156L14201.1665,-4297.8139L14200.9873,-4297.8201L14200.9584,-4297.8219L14200.9153,-4297.8235L14200.8242,-4297.8274L14200.7902,-4297.8297L14200.7762,-4297.8313L14200.769,-4297.8327L14200.7597,-4297.8355L14200.7544,-4297.8379L14200.7502,-4297.8403L14200.734,-4297.8516"/>
<path content="1,夕張鉄道（株）,登川～清陵町,4.0,3.3,2.5," xlink:title="1" d="M14200.7146,-4297.8516L14200.6768,-4297.8276L14200.6261,-4297.7956L14200.6218,-4297.7911L14200.6166,-4297.783L14200.6115,-4297.7733L14200.607,-4297.7613L14200.6027,-4297.7473L14200.6008,-4297.7373L14200.5992,-4297.7255L14200.6081,-4297.6844L14200.711,-4297.2647L14200.7151,-4297.2522L14200.7201,-4297.2394L14200.7253,-4297.2291L14200.7374,-4297.2078L14200.7442,-4297.1976L14200.7555,-4297.1839L14200.7952,-4297.1465L14200.8243,-4297.1223L14200.8526,-4297.0998L14200.9299,-4297.0356L14200.9391,-4297.028L14201.0027,-4296.9749L14201.005,-4296.9721L14201.0188,-4296.9614L14201.0238,-4296.9579L14201.2437,-4296.7718L14201.4186,-4296.6249L14201.4384,-4296.6097L14201.6016,-4296.4729L14201.6621,-4296.4217L14201.8274,-4296.285L14201.8718,-4296.2512L14201.8917,-4296.2388L14201.904,-4296.2304L14201.9369,-4296.2113L14201.9928,-4296.1831L14202.0219,-4296.1696L14202.038,-4296.1623L14202.1116,-4296.1338L14202.1797,-4296.1027L14202.4921,-4295.9856L14202.5243,-4295.9738L14202.619,-4295.9399L14202.6658,-4295.9239L14202.7249,-4295.9006L14202.8482,-4295.854L14202.8712,-4295.8444L14202.8811,-4295.8393L14202.9125,-4295.8258L14202.9501,-4295.8067L14202.9922,-4295.7836L14203.0311,-4295.7679L14203.0572,-4295.7431L14203.0703,-4295.7347L14203.1063,-4295.7077L14203.1231,-4295.6942L14203.125,-4295.6926"/>
<path content="1,夕張鉄道（株）,社光～社光,12.0,12.0,12.0," xlink:title="1" d="M14201.2756,-4297.8516L14201.2301,-4297.8302L14201.2201,-4297.8257L14201.2155,-4297.8246L14201.2033,-4297.8201L14201.1864,-4297.8156L14201.1665,-4297.8139L14200.9873,-4297.8201L14200.9584,-4297.8219L14200.9153,-4297.8235L14200.8242,-4297.8274L14200.7902,-4297.8297L14200.7762,-4297.8313L14200.769,-4297.8327L14200.7597,-4297.8355L14200.7544,-4297.8379L14200.7502,-4297.8403L14200.734,-4297.8516"/>
<path content="1,帯運観光（株）,とかちミルキーライナー,3.0,3.0,3.0," xlink:title="1" d="M14194.3359,-4291.5053L14194.3529,-4291.5131L14194.6897,-4291.6681L14194.7655,-4291.7011L14194.9185,-4291.7611L14195.0336,-4291.7927L14195.1216,-4291.8118L14195.2701,-4291.8316L14195.3364,-4291.8358L14195.4195,-4291.841L14195.5023,-4291.8404L14195.5849,-4291.8365L14195.6423,-4291.8303L14195.6882,-4291.8224L14195.7959,-4291.7988L14195.8801,-4291.7768L14195.9351,-4291.7594L14196.0208,-4291.7273L14196.1034,-4291.6941L14196.2303,-4291.639L14196.2671,-4291.6238L14196.3076,-4291.6114L14196.3565,-4291.5979L14196.4131,-4291.5838L14196.4804,-4291.5709L14196.5314,-4291.5626L14196.5813,-4291.5562L14196.6096,-4291.5534L14196.6271,-4291.5511L14196.6762,-4291.5444L14196.6985,-4291.5407L14196.7671,-4291.5292L14196.852,-4291.5112L14196.8898,-4291.5038L14196.8979,-4291.5023L14197.0471,-4291.4685L14197.0952,-4291.4567L14197.1587,-4291.4392L14197.1984,-4291.4268L14197.2573,-4291.4088L14197.3032,-4291.3925L14197.4141,-4291.3492L14197.4952,-4291.3165L14197.6198,-4291.2619L14197.736,-4291.204L14197.8668,-4291.1342L14197.9433,-4291.0841L14198.0297,-4291.0222L14198.0626,-4291.0014L14198.1674,-4290.9429L14198.1814,-4290.937L14198.2275,-4290.9179L14198.3035,-4290.8906L14198.3364,-4290.881L14198.3577,-4290.8759L14198.3975,-4290.8658L14198.4449,-4290.8562L14198.4977,-4290.8467L14198.5245,-4290.841L14198.5756,-4290.832L14198.5948,-4290.8286L14198.6216,-4290.8241L14198.7076,-4290.8138L14198.8321,-4290.8034L14198.9545,-4290.794L14199.0763,-4290.792L14199.1987,-4290.7904L14199.3201,-4290.7909L14199.3794,-4290.7868L14199.4461,-4290.7769L14199.4992,-4290.7696L14199.5674,-4290.755L14199.6264,-4290.742L14199.6478,-4290.7358L14199.7442,-4290.7105L14199.8115,-4290.6886L14199.952,-4290.635L14199.9637,-4290.6306L14200.0446,-4290.601L14200.1219,-4290.5783L14200.1984,-4290.5603L14200.2412,-4290.5524L14200.2856,-4290.5462L14200.3261,-4290.5423L14200.3536,-4290.5406L14200.453,-4290.5394L14200.5012,-4290.5428L14200.5303,-4290.5456L14200.5762,-4290.5518L14200.6404,-4290.5653L14200.6718,-4290.5732L14200.7107,-4290.5861L14200.7589,-4290.6047L14200.91,-4290.6694L14201.0635,-4290.7398L14201.2095,-4290.8088L14201.3569,-4290.9041L14201.4288,-4290.9542L14201.434,-4290.9581L14201.545,-4291.0397L14201.6513,-4291.1253L14201.7951,-4291.2429L14201.8624,-4291.2952L14201.9273,-4291.3414L14202.0138,-4291.3943L14202.0566,-4291.4191L14202.1904,-4291.4838L14202.2393,-4291.5063L14202.2883,-4291.5254L14202.3334,-4291.5412L14202.3869,-4291.5581L14202.4488,-4291.5744L14202.5162,-4291.5891L14202.5558,-4291.5953L14202.5603,-4291.5958L14202.6041,-4291.6014L14202.6416,-4291.6037L14202.6739,-4291.6038L14202.7417,-4291.6042L14202.9344,-4291.6009L14202.9765,-4291.602L14203.0308,-4291.6059L14203.1011,-4291.6144L14203.125,-4291.6187"/>
<path content="1,根室交通（株）,オーロラ号,2.0,2.0,2.0," xlink:title="1" d="M14194.3359,-4291.5053L14194.3529,-4291.5131L14194.6897,-4291.6681L14194.7655,-4291.7011L14194.9185,-4291.7611L14195.0336,-4291.7927L14195.1216,-4291.8118L14195.2701,-4291.8316L14195.3364,-4291.8358L14195.4195,-4291.841L14195.5023,-4291.8404L14195.5849,-4291.8365L14195.6423,-4291.8303L14195.6882,-4291.8224L14195.7959,-4291.7988L14195.8801,-4291.7768L14195.9351,-4291.7594L14196.0208,-4291.7273L14196.1034,-4291.6941L14196.2303,-4291.639L14196.2671,-4291.6238L14196.3076,-4291.6114L14196.3565,-4291.5979L14196.4131,-4291.5838L14196.4804,-4291.5709L14196.5314,-4291.5626L14196.5813,-4291.5562L14196.6096,-4291.5534L14196.6271,-4291.5511L14196.6762,-4291.5444L14196.6985,-4291.5407L14196.7671,-4291.5292L14196.852,-4291.5112L14196.8898,-4291.5038L14196.8979,-4291.5023L14197.0471,-4291.4685L14197.0952,-4291.4567L14197.1587,-4291.4392L14197.1984,-4291.4268L14197.2573,-4291.4088L14197.3032,-4291.3925L14197.4141,-4291.3492L14197.4952,-4291.3165L14197.6198,-4291.2619L14197.736,-4291.204L14197.8668,-4291.1342L14197.9433,-4291.0841L14198.0297,-4291.0222L14198.0626,-4291.0014L14198.1674,-4290.9429L14198.1814,-4290.937L14198.2275,-4290.9179L14198.3035,-4290.8906L14198.3364,-4290.881L14198.3577,-4290.8759L14198.3975,-4290.8658L14198.4449,-4290.8562L14198.4977,-4290.8467L14198.5245,-4290.841L14198.5756,-4290.832L14198.5948,-4290.8286L14198.6216,-4290.8241L14198.7076,-4290.8138L14198.8321,-4290.8034L14198.9545,-4290.794L14199.0763,-4290.792L14199.1987,-4290.7904L14199.3201,-4290.7909L14199.3794,-4290.7868L14199.4461,-4290.7769L14199.4992,-4290.7696L14199.5674,-4290.755L14199.6264,-4290.742L14199.6478,-4290.7358L14199.7442,-4290.7105L14199.8115,-4290.6886L14199.952,-4290.635L14199.9637,-4290.6306L14200.0446,-4290.601L14200.1219,-4290.5783L14200.1984,-4290.5603L14200.2412,-4290.5524L14200.2856,-4290.5462L14200.3261,-4290.5423L14200.3536,-4290.5406L14200.453,-4290.5394L14200.5012,-4290.5428L14200.5303,-4290.5456L14200.5762,-4290.5518L14200.6404,-4290.5653L14200.6718,-4290.5732L14200.7107,-4290.5861L14200.7589,-4290.6047L14200.91,-4290.6694L14201.0635,-4290.7398L14201.2095,-4290.8088L14201.3569,-4290.9041L14201.4288,-4290.9542L14201.434,-4290.9581L14201.545,-4291.0397L14201.6513,-4291.1253L14201.7951,-4291.2429L14201.8624,-4291.2952L14201.9273,-4291.3414L14202.0138,-4291.3943L14202.0566,-4291.4191L14202.1904,-4291.4838L14202.2393,-4291.5063L14202.2883,-4291.5254L14202.3334,-4291.5412L14202.3869,-4291.5581L14202.4488,-4291.5744L14202.5162,-4291.5891L14202.5558,-4291.5953L14202.5603,-4291.5958L14202.6041,-4291.6014L14202.6416,-4291.6037L14202.6739,-4291.6038L14202.7417,-4291.6042L14202.9344,-4291.6009L14202.9765,-4291.602L14203.0308,-4291.6059L14203.1011,-4291.6144L14203.125,-4291.6187"/>
<path content="1,阿寒バス（株）,スターライト釧路号,2.0,2.0,2.0," xlink:title="1" d="M14203.125,-4291.6187L14203.1011,-4291.6144L14203.0308,-4291.6059L14202.9765,-4291.602L14202.9344,-4291.6009L14202.7417,-4291.6042L14202.6739,-4291.6038L14202.6416,-4291.6037L14202.6041,-4291.6014L14202.5603,-4291.5958L14202.5558,-4291.5953L14202.5162,-4291.5891L14202.4488,-4291.5744L14202.3869,-4291.5581L14202.3334,-4291.5412L14202.2883,-4291.5254L14202.2393,-4291.5063L14202.1904,-4291.4838L14202.0566,-4291.4191L14202.0138,-4291.3943L14201.9273,-4291.3414L14201.8624,-4291.2952L14201.7951,-4291.2429L14201.6513,-4291.1253L14201.545,-4291.0397L14201.434,-4290.9581L14201.4288,-4290.9542L14201.3569,-4290.9041L14201.2095,-4290.8088L14201.0635,-4290.7398L14200.91,-4290.6694L14200.7589,-4290.6047L14200.7107,-4290.5861L14200.6718,-4290.5732L14200.6404,-4290.5653L14200.5762,-4290.5518L14200.5303,-4290.5456L14200.5012,-4290.5428L14200.453,-4290.5394L14200.3536,-4290.5406L14200.3261,-4290.5423L14200.2856,-4290.5462L14200.2412,-4290.5524L14200.1984,-4290.5603L14200.1219,-4290.5783L14200.0446,-4290.601L14199.9637,-4290.6306L14199.952,-4290.635L14199.8115,-4290.6886L14199.7442,-4290.7105L14199.6478,-4290.7358L14199.6264,-4290.742L14199.5674,-4290.755L14199.4992,-4290.7696L14199.4461,-4290.7769L14199.3794,-4290.7868L14199.3201,-4290.7909L14199.1987,-4290.7904L14199.0763,-4290.792L14198.9545,-4290.794L14198.8321,-4290.8034L14198.7076,-4290.8138L14198.6216,-4290.8241L14198.5948,-4290.8286L14198.5756,-4290.832L14198.5245,-4290.841L14198.4977,-4290.8467L14198.4449,-4290.8562L14198.3975,-4290.8658L14198.3577,-4290.8759L14198.3364,-4290.881L14198.3035,-4290.8906L14198.2275,-4290.9179L14198.1814,-4290.937L14198.1674,-4290.9429L14198.0626,-4291.0014L14198.0297,-4291.0222L14197.9433,-4291.0841L14197.8668,-4291.1342L14197.736,-4291.204L14197.6198,-4291.2619L14197.4952,-4291.3165L14197.4141,-4291.3492L14197.3032,-4291.3925L14197.2573,-4291.4088L14197.1984,-4291.4268L14197.1587,-4291.4392L14197.0952,-4291.4567L14197.0471,-4291.4685L14196.8979,-4291.5023L14196.8898,-4291.5038L14196.852,-4291.5112L14196.7671,-4291.5292L14196.6985,-4291.5407L14196.6762,-4291.5444L14196.6271,-4291.5511L14196.6096,-4291.5534L14196.5813,-4291.5562L14196.5314,-4291.5626L14196.4804,-4291.5709L14196.4131,-4291.5838L14196.3565,-4291.5979L14196.3076,-4291.6114L14196.2671,-4291.6238L14196.2303,-4291.639L14196.1034,-4291.6941L14196.0208,-4291.7273L14195.9351,-4291.7594L14195.8801,-4291.7768L14195.7959,-4291.7988L14195.6882,-4291.8224L14195.6423,-4291.8303L14195.5849,-4291.8365L14195.5023,-4291.8404L14195.4195,-4291.841L14195.3364,-4291.8358L14195.2701,-4291.8316L14195.1216,-4291.8118L14195.0336,-4291.7927L14194.9185,-4291.7611L14194.7655,-4291.7011L14194.6897,-4291.6681L14194.3529,-4291.5131L14194.3359,-4291.5053"/>
</g>
</svg>
