<?xml version="1.0" encoding="UTF-8"?>
<svg  xmlns="http://www.w3.org/2000/svg" xmlns:xlink="http://www.w3.org/1999/xlink" xmlns:go="http://purl.org/svgmap/profile" property="N07_001,N07_002,N07_003,N07_004,N07_005,N07_006,N07_007" viewBox="13095.703125 -3357.421875 8.7890625 8.7890625" go:dataArea="13095.703125 -3357.421875 8.7890625 8.7890625" >
<metadata>
 <rdf:RDF xmlns:rdf="http://www.w3.org/1999/02/22-rdf-syntax-ns#" xmlns:crs="http://opengis.org/xmldtds/transformations.dtd" xmlns:svg="http://www.w3.org/svg" >
  <rdf:Description>
   <crs:CoordinateReferenceSystem rdf:resource="http://purl.org/crs/84" svg:transform="matrix(100.0,0.0,0.0,-100.0,0.0,0.0)" />
  </rdf:Description>
 </rdf:RDF>
</metadata>
<globalCoordinateSystem srsName="http://purl.org/crs/84" transform="matrix(100.0,0.0,0.0,-100.0,0.0,0.0)" />
<defs>
 <g id="p0" >
  <circle cx="0.0" cy="0.0" r="3" stroke="green" stroke-width="0.75" vector-effect="non-scaling-stroke" />
 </g>
</defs>
<g fill="none" fill-rule="evenodd" stroke="#FF00FF" stroke-width="0.75" opacity="0.5" vector-effect="non-scaling-stroke" stroke-linejoin="bevel" >
<path content="1,大交北部バス（株）,柿坂～相の原,3.5,3.0,3.0," xlink:title="1" d="M13104.4922,-3349.9232L13104.4896,-3349.9248L13104.4768,-3349.9502L13104.4714,-3349.9569L13104.4587,-3349.9665L13104.4372,-3349.9795L13104.4271,-3349.98L13104.3893,-3349.9708L13104.3795,-3349.9683L13104.3633,-3349.9671L13104.3357,-3349.9699L13104.3229,-3349.9693L13104.3122,-3349.9659L13104.2846,-3349.9547L13104.2598,-3349.9445L13104.241,-3349.9406L13104.2215,-3349.9395L13104.2081,-3349.9395L13104.1711,-3349.944L13104.1294,-3349.9518L13104.1146,-3349.9569L13104.0965,-3349.9665L13104.0913,-3349.9697L13104.0784,-3349.9785L13104.0649,-3349.9868L13104.0495,-3350.0031L13104.0306,-3350.0161L13104.0138,-3350.0245L13104.0085,-3350.0257L13103.9788,-3350.0287L13103.9742,-3350.0275L13103.9701,-3350.025L13103.9669,-3350.0211L13103.9648,-3350.0144L13103.9628,-3350.0042L13103.9581,-3349.989L13103.9507,-3349.9839L13103.9319,-3349.9755L13103.9235,-3349.9724L13103.9047,-3349.9674L13103.8906,-3349.9614L13103.8799,-3349.9575L13103.8667,-3349.9546L13103.8378,-3349.9496L13103.817,-3349.949L13103.7847,-3349.958L13103.7719,-3349.9586L13103.7572,-3349.9558L13103.7229,-3349.9468L13103.6248,-3349.9231L13103.5986,-3349.918L13103.5804,-3349.918L13103.5374,-3349.9186L13103.5119,-3349.9242L13103.4904,-3349.9248L13103.477,-3349.922L13103.4581,-3349.9208L13103.4461,-3349.922L13103.4239,-3349.931L13103.4111,-3349.9349L13103.3923,-3349.9349L13103.3728,-3349.9304L13103.3553,-3349.9231L13103.3117,-3349.8989L13103.2774,-3349.8746L13103.2499,-3349.8498L13103.2391,-3349.8425L13103.2015,-3349.8273L13103.1759,-3349.8126L13103.1632,-3349.807L13103.1564,-3349.8064L13103.1343,-3349.8076L13103.1141,-3349.8042L13103.0892,-3349.8042L13103.0536,-3349.8177L13103.0422,-3349.8231L13103.0214,-3349.8329L13103.0116,-3349.8366L13102.9804,-3349.8481L13102.9636,-3349.8566L13102.9467,-3349.8738L13102.9404,-3349.8777L13102.9357,-3349.8791L13102.9301,-3349.8799L13102.8982,-3349.8766L13102.8823,-3349.8746L13102.8574,-3349.8746L13102.8426,-3349.878L13102.8184,-3349.8921L13102.8003,-3349.9115"/>
<path content="1,太陽交通（株）,寒田線,6.0,4.0,4.0," xlink:title="1" d="M13098.8557,-3354.9731L13098.8604,-3354.9778L13098.8814,-3355.001L13098.9132,-3355.044L13098.9333,-3355.0736L13098.9465,-3355.1078L13098.9542,-3355.1306L13098.9574,-3355.1428L13098.9715,-3355.1803L13098.9814,-3355.2076L13099.002,-3355.2611L13099.0245,-3355.3283L13099.0307,-3355.3527L13099.0332,-3355.3612L13099.033,-3355.3656L13099.031,-3355.3688L13099.0169,-3355.3755L13099.0035,-3355.3895L13099.0047,-3355.4033L13099.0099,-3355.4441L13099.0166,-3355.4795L13099.0236,-3355.4953L13099.0345,-3355.5102L13099.055,-3355.5305L13099.0902,-3355.5601L13099.1336,-3355.5918L13099.1657,-3355.6119L13099.1851,-3355.6265L13099.2235,-3355.6519L13099.2332,-3355.6592L13099.2421,-3355.672L13099.2696,-3355.7108L13099.2976,-3355.7601L13099.3001,-3355.7717L13099.3021,-3355.7883L13099.3073,-3355.8094L13099.313,-3355.826L13099.3248,-3355.8573L13099.3321,-3355.8697L13099.3489,-3355.9033L13099.3649,-3355.9319L13099.3857,-3355.9721L13099.4125,-3356.0131L13099.4283,-3356.0426L13099.4363,-3356.0579L13099.4298,-3356.0828L13099.4254,-3356.1126L13099.4249,-3356.1325L13099.4303,-3356.1503L13099.4467,-3356.1893L13099.4645,-3356.2274L13099.4785,-3356.264L13099.4758,-3356.2754L13099.4705,-3356.3095L13099.4611,-3356.3522L13099.4581,-3356.3717L13099.4635,-3356.382L13099.4754,-3356.394L13099.5017,-3356.4177L13099.5156,-3356.4479L13099.5202,-3356.478L13099.5265,-3356.4948L13099.5339,-3356.5254L13099.5458,-3356.5602L13099.5552,-3356.6236L13099.5631,-3356.6937L13099.5656,-3356.7339L13099.5651,-3356.7737L13099.5726,-3356.8081L13099.5978,-3356.8777L13099.6187,-3356.9279L13099.6444,-3356.9817L13099.6618,-3357.0211L13099.6712,-3357.0592L13099.6722,-3357.1073L13099.6682,-3357.1475L13099.6568,-3357.1939L13099.6519,-3357.2321L13099.6538,-3357.2677L13099.6697,-3357.2947L13099.688,-3357.3179L13099.7217,-3357.3361L13099.7579,-3357.3535L13099.78,-3357.3705L13099.7963,-3357.3983L13099.8054,-3357.4219"/>
<path content="3,中津市,槻木線,0.4,2.0,0.0," xlink:title="3" d="M13099.1829,-3348.6328L13099.1772,-3348.6378L13099.1557,-3348.653L13099.112,-3348.6756L13099.0219,-3348.7178L13098.9386,-3348.7589L13098.905,-3348.7747L13098.8459,-3348.7989L13098.8371,-3348.804L13098.8296,-3348.8092L13098.823,-3348.8147L13098.7966,-3348.8489"/>
<path content="3,中津市,槻木線,0.4,2.0,0.0," xlink:title="3" d="M13098.7966,-3348.8489L13098.8125,-3348.8489L13098.8352,-3348.8492L13098.8528,-3348.8502L13098.8609,-3348.8527L13098.8728,-3348.8578L13098.8799,-3348.8652L13098.8989,-3348.8893L13098.9144,-3348.9092L13098.9372,-3348.9286L13098.9475,-3348.9392L13098.9567,-3348.9556L13098.9644,-3348.9726L13098.9737,-3348.986L13098.9826,-3348.994L13098.9978,-3348.9991L13099.0144,-3349.0064L13099.0274,-3349.0142L13099.0379,-3349.0222L13099.0478,-3349.0331L13099.062,-3349.0428L13099.0899,-3349.0559"/>
<path content="3,中津市,槻木線,0.4,2.0,0.0," xlink:title="3" d="M13098.7966,-3348.8489L13098.7605,-3348.892L13098.7521,-3348.8991L13098.743,-3348.904L13098.7251,-3348.9133L13098.672,-3348.9341L13098.6486,-3348.943L13098.6291,-3348.95L13098.6223,-3348.9539L13098.615,-3348.9591L13098.603,-3348.9711L13098.5918,-3348.9857L13098.58,-3349.0068L13098.571,-3349.028L13098.5647,-3349.0451L13098.5627,-3349.0615L13098.5622,-3349.0905L13098.5599,-3349.11L13098.5564,-3349.1146L13098.5493,-3349.1203L13098.5418,-3349.1238L13098.5336,-3349.125L13098.5254,-3349.1238L13098.5156,-3349.1217L13098.5105,-3349.1201L13098.5052,-3349.1174L13098.4834,-3349.1028L13098.4809,-3349.1131L13098.4803,-3349.1271L13098.4816,-3349.1354L13098.4879,-3349.1484L13098.511,-3349.1816L13098.535,-3349.2111L13098.5481,-3349.2311L13098.5534,-3349.2486L13098.5546,-3349.257L13098.5546,-3349.2574L13098.5554,-3349.2658"/>
<path content="3,中津市,毛谷村線,1.0,0.0,0.0," xlink:title="3" d="M13098.7966,-3348.8489L13098.823,-3348.8147L13098.8296,-3348.8092L13098.8371,-3348.804L13098.8459,-3348.7989L13098.905,-3348.7747L13098.9386,-3348.7589L13099.0219,-3348.7178L13099.112,-3348.6756L13099.1557,-3348.653L13099.1772,-3348.6378L13099.1829,-3348.6328"/>
<path content="3,中津市,毛谷村線,1.0,0.0,0.0," xlink:title="3" d="M13098.7966,-3348.8489L13098.8125,-3348.8489L13098.8352,-3348.8492L13098.8528,-3348.8502L13098.8609,-3348.8527L13098.8728,-3348.8578L13098.8799,-3348.8652L13098.8989,-3348.8893L13098.9144,-3348.9092L13098.9372,-3348.9286L13098.9475,-3348.9392L13098.9567,-3348.9556L13098.9644,-3348.9726L13098.9737,-3348.986L13098.9826,-3348.994L13098.9978,-3348.9991L13099.0144,-3349.0064L13099.0274,-3349.0142L13099.0379,-3349.0222L13099.0478,-3349.0331L13099.062,-3349.0428L13099.0899,-3349.0559"/>
<path content="3,中津市,毛谷村線,1.0,0.0,0.0," xlink:title="3" d="M13098.5554,-3349.2658L13098.5546,-3349.2574L13098.5546,-3349.257L13098.5534,-3349.2486L13098.5481,-3349.2311L13098.535,-3349.2111L13098.511,-3349.1816L13098.4879,-3349.1484L13098.4816,-3349.1354L13098.4803,-3349.1271L13098.4809,-3349.1131L13098.4834,-3349.1028L13098.5052,-3349.1174L13098.5105,-3349.1201L13098.5156,-3349.1217L13098.5254,-3349.1238L13098.5336,-3349.125L13098.5418,-3349.1238L13098.5493,-3349.1203L13098.5564,-3349.1146L13098.5599,-3349.11L13098.5622,-3349.0905L13098.5627,-3349.0615L13098.5647,-3349.0451L13098.571,-3349.028L13098.58,-3349.0068L13098.5918,-3348.9857L13098.603,-3348.9711L13098.615,-3348.9591L13098.6223,-3348.9539L13098.6291,-3348.95L13098.6486,-3348.943L13098.672,-3348.9341L13098.7251,-3348.9133L13098.743,-3348.904L13098.7521,-3348.8991L13098.7605,-3348.892L13098.7966,-3348.8489"/>
<path content="3,豊前市,岩屋線,16.5,12.0,5.0," xlink:title="3" d="M13101.7299,-3353.7154L13101.734,-3353.7084L13101.7588,-3353.7188L13101.7788,-3353.7324L13101.8269,-3353.7761L13101.8927,-3353.8402L13101.9505,-3353.9043L13101.9807,-3353.9454L13101.9947,-3353.968L13102.0104,-3354L13102.0255,-3354.0483L13102.0439,-3354.145L13102.0525,-3354.1991L13102.0612,-3354.2258L13102.0682,-3354.242L13102.0752,-3354.2556L13102.0854,-3354.2686L13102.0979,-3354.2831L13102.1162,-3354.3007L13102.1437,-3354.3242L13102.2156,-3354.3783L13102.2409,-3354.4009L13102.255,-3354.419L13102.2636,-3354.4348L13102.2782,-3354.4659L13102.3079,-3354.5409L13102.3268,-3354.5986L13102.3408,-3354.6338L13102.3602,-3354.6663L13102.3754,-3354.6898L13102.3953,-3354.7174L13102.415,-3354.7413L13102.4318,-3354.7598L13102.4512,-3354.7778L13102.4755,-3354.7968L13102.5333,-3354.8388L13102.5646,-3354.8591L13102.5921,-3354.8839L13102.6061,-3354.902L13102.6186,-3354.92L13102.6342,-3354.9643L13102.652,-3355.0139L13102.6763,-3355.0812L13102.686,-3355.1042L13102.6985,-3355.125L13102.7118,-3355.1434L13102.7422,-3355.1719L13102.7573,-3355.1841L13102.8345,-3355.2406L13102.9027,-3355.2943L13103.0137,-3355.3742L13103.1082,-3355.4437L13103.1617,-3355.4852L13103.22,-3355.5286L13103.2464,-3355.5471L13103.2745,-3355.5642L13103.2993,-3355.576L13103.3538,-3355.5994L13103.385,-3355.6228L13103.4111,-3355.6301L13103.4337,-3355.6392L13103.4575,-3355.6455L13103.4931,-3355.6495L13103.5644,-3355.6504L13103.6216,-3355.6473L13103.6545,-3355.6432L13103.6918,-3355.6351L13103.7317,-3355.6283L13103.7647,-3355.6243L13103.7955,-3355.6229L13103.9677,-3355.627L13104.0824,-3355.6316L13104.1728,-3355.6297L13104.2878,-3355.6247L13104.3175,-3355.6193L13104.3326,-3355.6134L13104.3569,-3355.5981L13104.3904,-3355.5845L13104.4185,-3355.5778L13104.4832,-3355.5629L13104.4922,-3355.5602"/>
</g>
</svg>
