<?xml version="1.0" encoding="UTF-8"?>
<svg  xmlns="http://www.w3.org/2000/svg" xmlns:xlink="http://www.w3.org/1999/xlink" xmlns:go="http://purl.org/svgmap/profile" property="N07_001,N07_002,N07_003,N07_004,N07_005,N07_006,N07_007" viewBox="14167.96875 -3902.34375 35.15625 35.15625" go:dataArea="14167.96875 -3902.34375 35.15625 35.15625" >
<metadata>
 <rdf:RDF xmlns:rdf="http://www.w3.org/1999/02/22-rdf-syntax-ns#" xmlns:crs="http://opengis.org/xmldtds/transformations.dtd" xmlns:svg="http://www.w3.org/svg" >
  <rdf:Description>
   <crs:CoordinateReferenceSystem rdf:resource="http://purl.org/crs/84" svg:transform="matrix(100.0,0.0,0.0,-100.0,0.0,0.0)" />
  </rdf:Description>
 </rdf:RDF>
</metadata>
<globalCoordinateSystem srsName="http://purl.org/crs/84" transform="matrix(100.0,0.0,0.0,-100.0,0.0,0.0)" />
<defs>
 <g id="p0" >
  <circle cx="0.0" cy="0.0" r="3" stroke="green" stroke-width="0.75" vector-effect="non-scaling-stroke" />
 </g>
</defs>
<g fill="none" fill-rule="evenodd" stroke="#FF00FF" stroke-width="0.75" opacity="0.5" vector-effect="non-scaling-stroke" stroke-linejoin="bevel" >
<path content="1,岩手県交通（株）,広田線,6.0,3.5,3.5," xlink:title="1" d="M14167.9688,-3899.9768L14167.9993,-3899.9556L14168.0095,-3899.9491L14168.0543,-3899.917L14168.1436,-3899.855L14168.2114,-3899.8094L14168.2337,-3899.7959L14168.2496,-3899.7903L14168.2648,-3899.7835L14168.2815,-3899.7742L14168.2957,-3899.7672L14168.3116,-3899.7565L14168.3339,-3899.7441L14168.3649,-3899.7306L14168.4053,-3899.7261L14168.419,-3899.7249L14168.4327,-3899.7238L14168.4904,-3899.7171L14168.5344,-3899.7086L14168.5553,-3899.7035L14168.6551,-3899.6678L14168.6694,-3899.6638L14168.6929,-3899.6551L14168.7059,-3899.6519L14168.7192,-3899.6499L14168.7485,-3899.6461L14168.7614,-3899.6444L14168.7651,-3899.6444L14168.7981,-3899.6476L14168.8108,-3899.6455L14168.8249,-3899.5639L14168.8328,-3899.552L14168.8674,-3899.5211L14168.8948,-3899.5002L14168.9306,-3899.4766L14168.9382,-3899.4716L14168.9435,-3899.4678L14168.9698,-3899.4484L14169.026,-3899.4068L14169.075,-3899.3775L14169.0774,-3899.3763L14169.1493,-3899.3408L14169.1745,-3899.3307L14169.2293,-3899.3172L14169.2553,-3899.3099L14169.2637,-3899.3069L14169.274,-3899.302L14169.3194,-3899.2761L14169.367,-3899.2451L14169.3967,-3899.2218L14169.4059,-3899.213L14169.4282,-3899.1839L14169.4326,-3899.1781L14169.4571,-3899.1527L14169.4824,-3899.1319L14169.5047,-3899.1206L14169.641,-3899.0593L14169.6691,-3899.0463L14169.7231,-3899.0221L14169.7412,-3899.0125L14169.7507,-3899.0058L14169.7938,-3898.9754L14169.8269,-3898.9489L14169.8558,-3898.9207L14169.8981,-3898.8854L14169.9134,-3898.8712L14169.9394,-3898.8509L14169.956,-3898.8419L14169.9856,-3898.8278L14170.023,-3898.8115L14170.0382,-3898.8019L14170.0896,-3898.7513L14170.1065,-3898.7316L14170.1194,-3898.7124L14170.1672,-3898.642L14170.1845,-3898.6082L14170.1925,-3898.5839L14170.1954,-3898.571L14170.2004,-3898.5158L14170.2026,-3898.4865L14170.2083,-3898.4443L14170.2122,-3898.438L14170.2237,-3898.4232L14170.2249,-3898.4217L14170.2415,-3898.4077L14170.284,-3898.3812L14170.3085,-3898.3637L14170.3359,-3898.3412L14170.364,-3898.3148L14170.3702,-3898.3056L14170.3741,-3898.2961L14170.377,-3898.2872L14170.3782,-3898.2798L14170.3777,-3898.2731L14170.3768,-3898.2671L14170.3754,-3898.264L14170.3734,-3898.2607L14170.3633,-3898.2483L14170.3201,-3898.2156L14170.3093,-3898.2049L14170.3056,-3898.1994L14170.3028,-3898.1914L14170.3006,-3898.1633L14170.297,-3898.1458L14170.2927,-3898.1345L14170.2843,-3898.1218L14170.2768,-3898.1098L14170.253,-3898.0726L14170.2422,-3898.0585L14170.2235,-3898.0433L14170.1989,-3898.0314L14170.1427,-3898.0112L14170.1327,-3898.0078L14170.0829,-3897.9881L14170.0447,-3897.9701L14170.0216,-3897.9616L14170.0101,-3897.9571L14169.9813,-3897.9498L14169.9661,-3897.9481L14169.8933,-3897.9481L14169.8724,-3897.9464L14169.7989,-3897.9346L14169.7781,-3897.9306L14169.7563,-3897.9261L14169.7138,-3897.9149L14169.7023,-3897.9104L14169.6907,-3897.9057L14169.6769,-3897.8996L14169.6628,-3897.8902L14169.6542,-3897.8822L14169.6476,-3897.8748L14169.6415,-3897.866L14169.6338,-3897.8535L14169.627,-3897.8388L14169.6201,-3897.8214L14169.6158,-3897.8022L14169.6143,-3897.7819L14169.6187,-3897.7515L14169.6216,-3897.6986L14169.6201,-3897.5978L14169.6196,-3897.5875L14169.6187,-3897.5792L14169.6129,-3897.5459L14169.6014,-3897.5172L14169.5985,-3897.5099L14169.5862,-3897.4812L14169.5841,-3897.475L14169.5832,-3897.4679L14169.5819,-3897.4603L14169.5813,-3897.4452L14169.5826,-3897.4294L14169.5883,-3897.4116L14169.5913,-3897.4057L14169.5963,-3897.3956L14169.6014,-3897.39L14169.6259,-3897.3691L14169.6482,-3897.3539L14169.6792,-3897.3376L14169.6936,-3897.3274L14169.7064,-3897.3162L14169.7123,-3897.3084L14169.7146,-3897.3015L14169.7146,-3897.2942L14169.7124,-3897.288L14169.7088,-3897.2818L14169.6951,-3897.27L14169.6763,-3897.2627L14169.6699,-3897.261L14169.6416,-3897.2507L14169.6331,-3897.2463L14169.6172,-3897.2401L14169.6079,-3897.2351L14169.5524,-3897.1923L14169.5459,-3897.1855L14169.5084,-3897.1556L14169.5004,-3897.1472L14169.4954,-3897.1371L14169.4954,-3897.1286L14169.4983,-3897.1185L14169.5033,-3897.1084L14169.5098,-3897.0999L14169.5243,-3897.0892L14169.5653,-3897.0622L14169.5776,-3897.0532L14169.5868,-3897.0437L14169.5902,-3897.0397L14169.592,-3897.0357L14169.5956,-3897.0222L14169.602,-3896.9977L14169.6129,-3896.9467L14169.6273,-3896.8977L14169.6342,-3896.8794L14169.6432,-3896.8555L14169.6511,-3896.8307L14169.6591,-3896.8088L14169.6656,-3896.7823L14169.6692,-3896.7648L14169.6699,-3896.7502L14169.667,-3896.7355L14169.6583,-3896.7141L14169.6548,-3896.6995L14169.654,-3896.6848L14169.6562,-3896.6752L14169.6702,-3896.6437L14169.6728,-3896.6364L14169.673,-3896.6258L14169.6713,-3896.6144L14169.667,-3896.6082L14169.6648,-3896.6048L14169.6619,-3896.5974L14169.6571,-3896.5823L14169.6562,-3896.5772L14169.6558,-3896.5715L14169.6558,-3896.5657L14169.6561,-3896.5292L14169.6555,-3896.5226L14169.6533,-3896.5176L14169.6432,-3896.508L14169.6021,-3896.4748L14169.5966,-3896.4678L14169.5906,-3896.4584L14169.5769,-3896.4303L14169.5706,-3896.4193L14169.5646,-3896.41L14169.5574,-3896.3976L14169.5509,-3896.3807L14169.5387,-3896.3368L14169.5351,-3896.3193L14169.5315,-3896.312L14169.5268,-3896.3075L14169.5221,-3896.3047L14169.4745,-3896.2861L14169.4421,-3896.2726L14169.4327,-3896.2664L14169.4241,-3896.2585L14169.4082,-3896.2348L14169.383,-3896.2157L14169.3635,-3896.2027L14169.3498,-3896.1898L14169.334,-3896.1706L14169.3325,-3896.1667L14169.334,-3896.1543L14169.3383,-3896.1374L14169.3385,-3896.1138L14169.3369,-3896.0963L14169.3332,-3896.0484L14169.3318,-3896.0388L14169.3304,-3896.0118L14169.3332,-3895.9971L14169.3398,-3895.9808L14169.3616,-3895.945L14169.3628,-3895.9423L14169.3626,-3895.9405L14169.3606,-3895.9369L14169.3578,-3895.9329L14169.3491,-3895.9262L14169.3203,-3895.9076L14169.303,-3895.8969L14169.2792,-3895.8828L14169.2718,-3895.8774L14169.2633,-3895.871L14169.2341,-3895.8402L14169.2208,-3895.8218L14169.2057,-3895.7972L14169.1732,-3895.751L14169.1595,-3895.7347L14169.1565,-3895.7313L14169.1514,-3895.7219L14169.1473,-3895.7189L14169.1473,-3895.6995L14169.1473,-3895.6812L14169.153,-3895.6541L14169.1552,-3895.6339L14169.1703,-3895.6305L14169.1949,-3895.6266L14169.2215,-3895.6198L14169.2432,-3895.6103L14169.2504,-3895.6035L14169.2612,-3895.5917L14169.272,-3895.5753L14169.2907,-3895.5336L14169.3001,-3895.5044L14169.3044,-3895.4863L14169.3125,-3895.4435"/>
<path content="1,岩手県交通（株）,矢ノ浦線,3.0,2.0,2.0," xlink:title="1" d="M14169.5574,-3896.3976L14169.5646,-3896.41L14169.5706,-3896.4193"/>
<path content="1,岩手県交通（株）,矢ノ浦線,3.0,2.0,2.0," xlink:title="1" d="M14169.5574,-3896.3976L14169.5819,-3896.3948L14169.6317,-3896.3818L14169.6519,-3896.3807L14169.6857,-3896.3824L14169.7139,-3896.3858L14169.7211,-3896.3897L14169.7535,-3896.4032L14169.8011,-3896.4331L14169.8256,-3896.4494L14169.8386,-3896.4579L14169.8492,-3896.463L14169.8581,-3896.4696L14169.8739,-3896.4809L14169.9337,-3896.519L14169.9582,-3896.5024L14169.9712,-3896.4966L14169.9878,-3896.4888L14170.0726,-3896.4502L14170.1118,-3896.4139L14170.1226,-3896.406L14170.1579,-3896.3819L14170.2279,-3896.3362L14170.2328,-3896.3321L14170.2384,-3896.3273L14170.2459,-3896.321L14170.2733,-3896.2996L14170.3132,-3896.2671L14170.3273,-3896.2596L14170.341,-3896.2563L14170.3562,-3896.2557L14170.3728,-3896.2568L14170.4276,-3896.2788L14170.4391,-3896.2821L14170.4564,-3896.2855L14170.4715,-3896.2872L14170.4823,-3896.29L14170.5112,-3896.2962L14170.522,-3896.2979L14170.5768,-3896.2985L14170.5898,-3896.2996L14170.5995,-3896.2996L14170.6099,-3896.2996L14170.6179,-3896.2979L14170.6517,-3896.2855L14170.6784,-3896.2788L14170.739,-3896.263L14170.7541,-3896.2568L14170.7599,-3896.2534L14170.77,-3896.2428L14170.8024,-3896.1994L14170.8233,-3896.1831L14170.881,-3896.1487L14170.9243,-3896.1222L14170.9286,-3896.1194L14170.9704,-3896.1295L14170.9913,-3896.1357L14170.9999,-3896.1374L14171.1304,-3896.1301L14171.134,-3896.1301L14171.1708,-3896.1273L14171.1852,-3896.1216L14171.2018,-3896.1121L14171.204,-3896.1109L14171.2109,-3896.1046L14171.2206,-3896.0862L14171.2421,-3896.0338L14171.2472,-3896.0226L14171.2775,-3895.9504L14171.3099,-3895.8699L14171.3124,-3895.8628L14171.3135,-3895.8551L14171.3137,-3895.8486L14171.3128,-3895.8446L14171.3092,-3895.8384L14171.2881,-3895.8037L14171.2393,-3895.7235L14171.2105,-3895.6762L14171.2094,-3895.6728L14171.2096,-3895.6673L14171.2119,-3895.6565L14171.2128,-3895.6485L14171.2119,-3895.6384L14171.2077,-3895.6275L14171.2018,-3895.6182L14171.1824,-3895.6001L14171.1615,-3895.5821L14171.1554,-3895.5754L14171.1514,-3895.568L14171.1497,-3895.5625L14171.1499,-3895.5568L14171.1593,-3895.5371L14171.1658,-3895.5224L14171.1675,-3895.5174L14171.1694,-3895.5066L14171.1702,-3895.4977L14171.1694,-3895.4898L14171.1679,-3895.4751L14171.1675,-3895.4659L14171.1679,-3895.4594L14171.1701,-3895.4532L14171.1838,-3895.4379L14171.1997,-3895.4137L14171.2098,-3895.4008L14171.2142,-3895.3969L14171.2195,-3895.3937L14171.2257,-3895.3918L14171.2324,-3895.3902L14171.2537,-3895.3861L14171.2639,-3895.3822L14171.2706,-3895.378L14171.2752,-3895.3722L14171.2773,-3895.3678L14171.2782,-3895.3625L14171.2781,-3895.3579L14171.2768,-3895.3489L14171.2739,-3895.3405L14171.2711,-3895.3343L14171.2646,-3895.3214L14171.2566,-3895.3067L14171.2487,-3895.2983L14171.2415,-3895.2954L14171.2299,-3895.2932L14171.1946,-3895.2898L14171.1756,-3895.289L14171.1658,-3895.2898L14171.1298,-3895.2999L14171.1199,-3895.3007L14171.1117,-3895.2999L14171.1032,-3895.2973L14171.098,-3895.2954L14171.0908,-3895.2921L14171.0721,-3895.2802L14171.0469,-3895.2588L14171.0396,-3895.2515L14171.0339,-3895.2363L14171.0339,-3895.2284L14171.0368,-3895.2149L14171.0404,-3895.2064L14171.0514,-3895.1816L14171.0522,-3895.1777L14171.0528,-3895.1739L14171.0526,-3895.1693L14171.0519,-3895.1651L14171.0498,-3895.161L14171.0476,-3895.1569L14171.0432,-3895.1524L14171.0332,-3895.1451L14171.0051,-3895.1332L14170.9502,-3895.1172L14170.9301,-3895.1113L14170.9056,-3895.1045L14170.8782,-3895.0961L14170.8507,-3895.0848L14170.8363,-3895.0769L14170.827,-3895.0685L14170.8238,-3895.0647L14170.8214,-3895.061L14170.8201,-3895.0568L14170.8204,-3895.0519L14170.8216,-3895.0464L14170.8226,-3895.0409L14170.8232,-3895.0343L14170.8219,-3895.0285L14170.8169,-3895.0222L14170.8111,-3895.0184L14170.7549,-3895.0002L14170.7513,-3894.9986L14170.7451,-3894.9943L14170.7405,-3894.9902L14170.7389,-3894.9871L14170.7268,-3894.9564L14170.7145,-3894.9226L14170.708,-3894.8973L14170.7059,-3894.8578L14170.7059,-3894.8297L14170.7106,-3894.8081L14170.7132,-3894.7993L14170.7153,-3894.7897L14170.7164,-3894.7807L14170.7166,-3894.7673L14170.7161,-3894.7634L14170.7153,-3894.7604L14170.7143,-3894.757L14170.7124,-3894.7548L14170.7091,-3894.752L14170.7008,-3894.7463L14170.6956,-3894.7436L14170.6935,-3894.7427L14170.6684,-3894.7328L14170.6583,-3894.7283L14170.628,-3894.7058L14170.5783,-3894.6703L14170.5466,-3894.6494L14170.5408,-3894.6464L14170.5208,-3894.6352L14170.5141,-3894.6326L14170.5055,-3894.6269L14170.4846,-3894.6168L14170.4766,-3894.6134L14170.4593,-3894.6061L14170.4464,-3894.6038L14170.4327,-3894.5999L14170.4017,-3894.5869L14170.3865,-3894.5796L14170.3771,-3894.5706L14170.3707,-3894.5621L14170.3675,-3894.5558L14170.3642,-3894.5481L14170.3606,-3894.5273L14170.3586,-3894.5227L14170.3519,-3894.5115L14170.3361,-3894.4889L14170.3332,-3894.4794L14170.3296,-3894.454L14170.3281,-3894.4484L14170.3238,-3894.4428L14170.3181,-3894.4388L14170.31,-3894.4364L14170.295,-3894.4371L14170.2791,-3894.4399L14170.2532,-3894.4473L14170.2409,-3894.4489L14170.2179,-3894.4489L14170.2092,-3894.4484L14170.189,-3894.4439L14170.1867,-3894.443L14170.1775,-3894.4394L14170.1573,-3894.4298L14170.1381,-3894.4236L14170.1234,-3894.4191L14170.1059,-3894.4156L14170.1031,-3894.4154L14170.0962,-3894.4166L14170.0881,-3894.4197L14170.0564,-3894.4366L14170.0376,-3894.4512L14169.9958,-3894.4917L14169.9691,-3894.5109L14169.9244,-3894.5346L14169.9114,-3894.5447L14169.905,-3894.5554L14169.9006,-3894.5695L14169.9003,-3894.5816L14169.9014,-3894.5931L14169.9028,-3894.5971L14169.9079,-3894.6038L14169.9179,-3894.6162L14169.933,-3894.6306L14169.941,-3894.6421L14169.9434,-3894.6468L14169.9446,-3894.6517L14169.9441,-3894.6559L14169.9425,-3894.6607L14169.9367,-3894.6675L14169.9244,-3894.6754L14169.9114,-3894.6804L14169.8934,-3894.6844L14169.8596,-3894.6889L14169.8307,-3894.6945L14169.7997,-3894.6973L14169.7858,-3894.7006L14169.7774,-3894.7041L14169.7601,-3894.7114L14169.757,-3894.7123L14169.7522,-3894.7131L14169.7331,-3894.7161L14169.7301,-3894.7168L14169.7229,-3894.7199L14169.7183,-3894.7256L14169.7168,-3894.73L14169.7161,-3894.7345L14169.7161,-3894.7367L14169.7159,-3894.7636L14169.7154,-3894.7688L14169.7117,-3894.7784L14169.7046,-3894.7852L14169.6944,-3894.7902L14169.6656,-3894.8004L14169.6557,-3894.8054L14169.6504,-3894.8096L14169.6489,-3894.8121L14169.6404,-3894.8308L14169.6332,-3894.8618L14169.6312,-3894.8684L14169.6281,-3894.8736L14169.6216,-3894.8785L14169.6087,-3894.8883L14169.582,-3894.9034L14169.5741,-3894.9057L14169.5553,-3894.9062L14169.5005,-3894.8927L14169.4919,-3894.8888L14169.4839,-3894.8814L14169.4746,-3894.8707L14169.4708,-3894.8658L14169.4662,-3894.8616L14169.4609,-3894.8578L14169.4429,-3894.8516L14169.4219,-3894.8466L14169.4104,-3894.8443L14169.3722,-3894.8342L14169.3578,-3894.8314L14169.3239,-3894.8229L14169.3164,-3894.8209L14169.3095,-3894.8195L14169.2905,-3894.8172L14169.2836,-3894.8178L14169.267,-3894.8223L14169.2577,-3894.8258L14169.2489,-3894.8308L14169.2324,-3894.8437L14169.2257,-3894.8512L14169.2233,-3894.8556L14169.223,-3894.8601L14169.2238,-3894.8621L14169.2266,-3894.8674L14169.2497,-3894.904L14169.2547,-3894.9158L14169.2569,-3894.9271L14169.2598,-3894.9344L14169.2626,-3894.9479L14169.2648,-3894.9688L14169.272,-3895.0009L14169.29,-3895.0347L14169.2972,-3895.06L14169.2987,-3895.1017L14169.303,-3895.1281L14169.3055,-3895.1549L14169.3062,-3895.1657L14169.3066,-3895.1895L14169.3071,-3895.196L14169.3087,-3895.2171L14169.3102,-3895.2487L14169.3145,-3895.2965L14169.3174,-3895.3635L14169.316,-3895.3849L14169.3145,-3895.4148L14169.3124,-3895.4328L14169.3125,-3895.4435"/>
<path content="1,岩手県交通（株）,矢ノ浦線,3.0,2.0,2.0," xlink:title="1" d="M14167.9688,-3899.9768L14167.9993,-3899.9556L14168.0095,-3899.9491L14168.0543,-3899.917L14168.1436,-3899.855L14168.2114,-3899.8094L14168.2337,-3899.7959L14168.2496,-3899.7903L14168.2648,-3899.7835L14168.2815,-3899.7742L14168.2957,-3899.7672L14168.3116,-3899.7565L14168.3339,-3899.7441L14168.3649,-3899.7306L14168.4053,-3899.7261L14168.419,-3899.7249L14168.4327,-3899.7238L14168.4904,-3899.7171L14168.5344,-3899.7086L14168.5553,-3899.7035L14168.6551,-3899.6678L14168.6694,-3899.6638L14168.6929,-3899.6551L14168.7059,-3899.6519L14168.7192,-3899.6499L14168.7485,-3899.6461L14168.7614,-3899.6444L14168.7651,-3899.6444L14168.7981,-3899.6476L14168.8108,-3899.6455L14168.8249,-3899.5639L14168.8328,-3899.552L14168.8674,-3899.5211L14168.8948,-3899.5002L14168.9306,-3899.4766L14168.9382,-3899.4716L14168.9435,-3899.4678L14168.9698,-3899.4484L14168.9626,-3899.3972L14168.9601,-3899.365L14168.9595,-3899.3633L14168.9591,-3899.363L14168.9388,-3899.3555L14168.8847,-3899.3403L14168.8717,-3899.3356L14168.866,-3899.3341L14168.84,-3899.3239L14168.8004,-3899.3065L14168.76,-3899.2902L14168.7117,-3899.2693L14168.68,-3899.2564L14168.6601,-3899.2478L14168.6474,-3899.2424L14168.6309,-3899.2376L14168.6267,-3899.2372L14168.5971,-3899.2417L14168.5553,-3899.2479L14168.5172,-3899.2539L14168.493,-3899.2584L14168.4902,-3899.2607L14168.4529,-3899.2873L14168.4457,-3899.2901L14168.4018,-3899.3008L14168.3686,-3899.3138L14168.3383,-3899.3296L14168.3275,-3899.3358L14168.2986,-3899.3588L14168.2922,-3899.3634L14168.277,-3899.3707L14168.2576,-3899.3769L14168.1328,-3899.4011L14168.0752,-3899.4152L14168.0197,-3899.4174L14167.9914,-3899.4169L14167.9688,-3899.4158M14167.9688,-3897.3792L14167.9895,-3897.3803L14167.9996,-3897.3809L14168.0219,-3897.3803L14168.0313,-3897.3775L14168.0342,-3897.3764L14168.0406,-3897.3724L14168.0439,-3897.3687L14168.0464,-3897.364L14168.049,-3897.3584L14168.0522,-3897.3488L14168.0551,-3897.3307L14168.0558,-3897.3105L14168.0515,-3897.2975L14168.0471,-3897.2908L14168.0306,-3897.2761L14168.0197,-3897.2688L14167.9909,-3897.2547L14167.9869,-3897.2521L14167.9835,-3897.2489L14167.9808,-3897.2446L14167.9807,-3897.2398L14167.9815,-3897.2356L14167.9909,-3897.2232L14168.0349,-3897.1827L14168.0414,-3897.1731L14168.0423,-3897.1651L14168.0414,-3897.1596L14168.0371,-3897.1511L14168.0262,-3897.141L14168.0176,-3897.1382L14167.9931,-3897.1325L14167.9823,-3897.1269L14167.9751,-3897.1196L14167.9688,-3897.1026M14167.9688,-3897.0971L14167.9895,-3897.0863L14168.0039,-3897.0768L14168.0205,-3897.0633L14168.0306,-3897.052L14168.0421,-3897.0294L14168.0493,-3897.0227L14168.0587,-3897.0165L14168.0702,-3897.0114L14168.076,-3897.0092L14168.0976,-3897.005L14168.1091,-3897.0024L14168.1481,-3896.9912L14168.1632,-3896.9889L14168.1834,-3896.9895L14168.205,-3896.9951L14168.2302,-3897.0058L14168.2548,-3897.0222L14168.2764,-3897.039L14168.3016,-3897.0661L14168.3102,-3897.0734L14168.3204,-3897.079L14168.3362,-3897.0841L14168.3643,-3897.0892L14168.3814,-3897.0892L14168.3903,-3897.088L14168.3997,-3897.0807L14168.4069,-3897.07L14168.4126,-3897.0565L14168.4199,-3897.0267L14168.422,-3897.0069L14168.4213,-3896.9912L14168.4184,-3896.9777L14168.4184,-3896.9624L14168.4213,-3896.954L14168.435,-3896.9394L14168.4768,-3896.8954L14168.502,-3896.8684L14168.5186,-3896.8543L14168.5345,-3896.8459L14168.5496,-3896.8436L14168.5835,-3896.8436L14168.5892,-3896.8442L14168.6318,-3896.8476L14168.6584,-3896.8476L14168.6736,-3896.8442L14168.701,-3896.8313L14168.7125,-3896.8251L14168.7198,-3896.8222L14168.7644,-3896.8228L14168.8091,-3896.8251L14168.8358,-3896.8245L14168.8509,-3896.8205L14168.8726,-3896.8115L14168.8884,-3896.7997L14168.8999,-3896.7845L14168.9079,-3896.771L14168.9209,-3896.7332L14168.9259,-3896.7135L14168.9281,-3896.709L14168.9331,-3896.7062L14168.9598,-3896.6994L14168.9908,-3896.6927L14169.0831,-3896.6674L14169.1314,-3896.6505L14169.1956,-3896.6268L14169.202,-3896.6246L14169.2066,-3896.623L14169.2538,-3896.6071L14169.3224,-3896.5784L14169.3736,-3896.5558L14169.4017,-3896.5418L14169.4306,-3896.5266L14169.4471,-3896.5153L14169.4522,-3896.5103L14169.4579,-3896.5007L14169.4616,-3896.4894L14169.463,-3896.4731L14169.4611,-3896.4189L14169.4613,-3896.4149L14169.4621,-3896.4108L14169.4637,-3896.4072L14169.4652,-3896.4046L14169.4662,-3896.4032L14169.4703,-3896.401L14169.4756,-3896.3996L14169.4853,-3896.397L14169.5509,-3896.3807L14169.5574,-3896.3976"/>
<path content="1,岩手県交通（株）,碁石線,7.0,7.0,7.0," xlink:title="1" d="M14170.9881,-3902.3438L14170.9939,-3902.3386L14171.0141,-3902.3257L14171.0884,-3902.2778L14171.1108,-3902.2621L14171.1599,-3902.2271L14171.1866,-3902.2142L14171.1917,-3902.2123L14171.2335,-3902.1973L14171.2552,-3902.1888L14171.2681,-3902.1821L14171.3288,-3902.1331L14171.3584,-3902.1145L14171.3858,-3902.0999L14171.4587,-3902.0644L14171.4717,-3902.0582L14171.5092,-3902.0396L14171.5352,-3902.021L14171.5367,-3902.021L14171.5504,-3902.0092L14171.5569,-3901.9996L14171.5583,-3901.985L14171.5504,-3901.9641L14171.5446,-3901.9529L14171.5432,-3901.9461L14171.5244,-3901.8994L14171.5183,-3901.8816L14171.5092,-3901.8555L14171.4991,-3901.8251L14171.497,-3901.8211L14171.4934,-3901.8099L14171.4702,-3901.7451L14171.4594,-3901.7113L14171.4587,-3901.7023L14171.4965,-3901.6181L14171.5004,-3901.6072L14171.5172,-3901.5806L14171.5229,-3901.5559L14171.5194,-3901.5323L14171.5172,-3901.526L14171.5042,-3901.5001L14171.5006,-3901.4889L14171.4902,-3901.4603L14171.51,-3901.4449L14171.5251,-3901.4314L14171.5474,-3901.4094L14171.5612,-3901.3954L14171.5915,-3901.3616L14171.6045,-3901.3436L14171.6348,-3901.2979L14171.6493,-3901.2692L14171.663,-3901.2304L14171.6659,-3901.2214L14171.6753,-3901.1819L14171.6774,-3901.1561L14171.676,-3901.1369L14171.6724,-3901.12L14171.6681,-3901.1042L14171.6623,-3901.0896L14171.6559,-3901.0729L14171.6368,-3901.0398L14171.636,-3901.0337L14171.6356,-3901.0181L14171.6341,-3900.9352L14171.6341,-3900.9043L14171.6247,-3900.8847L14171.6168,-3900.8705L14171.5916,-3900.8334L14171.5634,-3900.7911L14171.554,-3900.7697L14171.5533,-3900.7511L14171.5504,-3900.7196L14171.549,-3900.6762L14171.5396,-3900.6357L14171.5309,-3900.6109L14171.5187,-3900.5861L14171.5151,-3900.5777L14171.5086,-3900.5568L14171.5057,-3900.5287L14171.5078,-3900.4926L14171.5165,-3900.4594L14171.5237,-3900.4408L14171.536,-3900.4228L14171.5244,-3900.407L14171.523,-3900.3924L14171.5215,-3900.3687L14171.5195,-3900.3559L14171.5114,-3900.3496L14171.4999,-3900.3468L14171.4746,-3900.3474L14171.4386,-3900.3468L14171.4133,-3900.3462L14171.383,-3900.3412L14171.3664,-3900.3361L14171.3476,-3900.3248L14171.3088,-3900.291L14171.3064,-3900.2887L14171.299,-3900.2814L14171.2967,-3900.2784L14171.2939,-3900.2736L14171.2918,-3900.2685L14171.2897,-3900.265L14171.2856,-3900.2614L14171.2983,-3900.2319L14171.3011,-3900.2263L14171.2918,-3900.2184L14171.2557,-3900.1919L14171.2449,-3900.1812L14171.2416,-3900.1778L14171.2341,-3900.1677L14171.2319,-3900.1632L14171.2298,-3900.1566L14171.2283,-3900.148L14171.2285,-3900.1408L14171.2298,-3900.1339L14171.2343,-3900.1224L14171.2406,-3900.1097L14171.2543,-3900.0871L14171.2807,-3900.0491L14171.291,-3900.0348L14171.2968,-3900.0286L14171.3221,-3899.9954L14171.3347,-3899.9787L14171.3408,-3899.97L14171.3552,-3899.9509L14171.3761,-3899.9272L14171.3856,-3899.9204L14171.3927,-3899.9165L14171.404,-3899.9144L14171.4143,-3899.9131L14171.4388,-3899.912L14171.4459,-3899.8602L14171.4467,-3899.855L14171.459,-3899.8607L14171.4683,-3899.8647L14171.4744,-3899.8666L14171.4794,-3899.8669L14171.4851,-3899.8671L14171.4929,-3899.8664L14171.5946,-3899.8523L14171.6162,-3899.8495L14171.6479,-3899.845L14171.6681,-3899.8405L14171.689,-3899.836L14171.7257,-3899.827L14171.7481,-3899.8236L14171.8094,-3899.8179L14171.8725,-3899.8098L14171.88,-3899.8089L14171.9108,-3899.8074L14171.9615,-3899.8067L14172.0033,-3899.805L14172.0127,-3899.8027L14172.0429,-3899.7881L14172.0667,-3899.7791L14172.0783,-3899.7717L14172.0862,-3899.7639L14172.0978,-3899.7481L14172.1086,-3899.7374L14172.1237,-3899.72L14172.1367,-3899.7087L14172.154,-3899.6991L14172.1648,-3899.689L14172.1886,-3899.6586L14172.2037,-3899.6259L14172.2116,-3899.6135L14172.2196,-3899.6056L14172.2578,-3899.578L14172.3065,-3899.5499L14172.3162,-3899.5465L14172.3281,-3899.5428L14172.3349,-3899.5409L14172.358,-3899.5369L14172.3818,-3899.5335L14172.3955,-3899.5296L14172.4243,-3899.5161L14172.4344,-3899.5121L14172.4488,-3899.5048L14172.4712,-3899.4981L14172.4856,-3899.4958L14172.5051,-3899.4964L14172.5447,-3899.5031L14172.5555,-3899.5043L14172.5786,-3899.502L14172.6046,-3899.4952L14172.6161,-3899.4902L14172.6262,-3899.4812L14172.6356,-3899.4688L14172.6404,-3899.4587L14172.6435,-3899.4485L14172.6441,-3899.4314L14172.6384,-3899.4297L14172.6213,-3899.4164L14172.6125,-3899.4096L14172.6071,-3899.4068L14172.6003,-3899.4018L14172.5975,-3899.3989L14172.5944,-3899.3922L14172.5894,-3899.3725L14172.5876,-3899.3631L14172.5865,-3899.3505L14172.5873,-3899.3449L14172.5909,-3899.3336L14172.6046,-3899.3178L14172.6485,-3899.2829L14172.6514,-3899.2818L14172.6759,-3899.2627L14172.6983,-3899.2407L14172.7156,-3899.2289L14172.7257,-3899.2266L14172.7603,-3899.2272L14172.7704,-3899.2272L14172.7833,-3899.2306L14172.7898,-3899.2328L14172.7992,-3899.2334L14172.805,-3899.23L14172.8374,-3899.208L14172.8504,-3899.2013L14172.8604,-3899.1971L14172.8713,-3899.1945L14172.8893,-3899.1894L14172.9001,-3899.1849L14172.9419,-3899.1618L14172.9513,-3899.1562L14172.9614,-3899.1551L14173.0148,-3899.1568L14173.0299,-3899.1523L14173.0839,-3899.1298L14173.1012,-3899.1219L14173.1149,-3899.1179L14173.1272,-3899.1168L14173.1589,-3899.1185L14173.1647,-3899.1173L14173.2152,-3899.0976L14173.2397,-3899.0853L14173.2564,-3899.0757L14173.2642,-3899.0712L14173.2707,-3899.0689L14173.288,-3899.0661L14173.3211,-3899.0577L14173.3435,-3899.0481L14173.3557,-3899.0447L14173.4062,-3899.043L14173.4192,-3899.0408L14173.43,-3899.0351L14173.443,-3899.0261L14173.4531,-3899.0166L14173.4675,-3898.9968L14173.4899,-3898.976L14173.5028,-3898.9681L14173.5316,-3898.9602L14173.5583,-3898.9546L14173.5778,-3898.9523L14173.6001,-3898.9535L14173.616,-3898.9563L14173.6326,-3898.9557L14173.6535,-3898.9501L14173.6694,-3898.9478L14173.7018,-3898.9512L14173.722,-3898.949L14173.7321,-3898.9473L14173.7485,-3898.9438L14173.7587,-3898.9416L14173.7692,-3898.9391L14173.7861,-3898.9354L14173.8121,-3898.9276L14173.8171,-3898.927L14173.8388,-3898.9197L14173.8828,-3898.8983L14173.8907,-3898.8944L14173.8986,-3898.8932L14173.9238,-3898.8932L14173.9404,-3898.8944L14173.9549,-3898.8921L14173.9858,-3898.8825L14174.0017,-3898.878L14174.011,-3898.8768L14174.0197,-3898.8774L14174.0247,-3898.8782L14174.0514,-3898.8825L14174.0723,-3898.887L14174.0947,-3898.8944L14174.1141,-3898.9045L14174.1408,-3898.9298L14174.1646,-3898.9602L14174.174,-3898.978L14174.1764,-3898.983L14174.1776,-3898.9878L14174.1769,-3899.0036L14174.1747,-3899.0199L14174.1733,-3899.0261L14174.1726,-3899.0278L14174.1706,-3899.0633"/>
<path content="1,岩手県交通（株）,長崎線,8.5,8.5,6.5,大船渡管内" xlink:title="1" d="M14174.8596,-3902.3437L14174.8597,-3902.3433L14174.8597,-3902.3309L14174.8496,-3902.2999L14174.8424,-3902.2627L14174.8424,-3902.2419L14174.8467,-3902.2323L14174.8554,-3902.2216L14174.8677,-3902.2126L14174.8934,-3902.1987L14174.9082,-3902.1896L14174.9175,-3902.1794L14174.9528,-3902.1276L14174.9666,-3902.1118L14174.9788,-3902.1006L14174.9851,-3902.098L14174.9886,-3902.0972L14174.9961,-3902.0977L14175.0026,-3902.1006L14175.012,-3902.1118L14175.0171,-3902.1236L14175.0192,-3902.1332L14175.02,-3902.1902L14175.0249,-3902.1985L14175.0302,-3902.2047L14175.0349,-3902.2072L14175.0385,-3902.2073L14175.0489,-3902.2077L14175.1037,-3902.1941L14175.1376,-3902.1845L14175.1484,-3902.1788L14175.1557,-3902.1738L14175.1679,-3902.1608L14175.1816,-3902.1421L14175.1939,-3902.1253L14175.2017,-3902.1178L14175.208,-3902.1138L14175.2106,-3902.1135L14175.248,-3902.1146L14175.2831,-3902.1184L14175.2949,-3902.1197L14175.3296,-3902.1225L14175.3498,-3902.1225L14175.4282,-3902.1116L14175.481,-3902.1054L14175.4872,-3902.1039L14175.5194,-3902.0946L14175.5346,-3902.09L14175.5547,-3902.0825L14175.567,-3902.0774L14175.575,-3902.073L14175.5916,-3902.0606L14175.6068,-3902.0488L14175.6474,-3902.0114L14175.6587,-3902.0009L14175.6676,-3901.9922L14175.6731,-3901.9875L14175.6869,-3901.9818L14175.697,-3901.9806L14175.7101,-3901.9807L14175.7208,-3901.9812L14175.7576,-3901.9863L14175.7807,-3901.9896L14175.7952,-3901.9913L14175.8196,-3901.9949L14175.8262,-3901.9958L14175.8594,-3902.0009L14175.8637,-3902.0014L14175.8774,-3902.0054L14175.8907,-3902.0103L14175.9037,-3902.0129L14175.9179,-3902.0184L14175.9309,-3902.0234L14175.9482,-3902.0324L14175.9612,-3902.042L14175.9749,-3902.0566L14175.9785,-3902.0662L14175.9777,-3902.0748L14175.9805,-3902.0879L14175.9799,-3902.1287L14175.9727,-3902.162L14175.9727,-3902.1822L14175.9785,-3902.1941L14176.086,-3902.3011L14176.0983,-3902.3179L14176.1037,-3902.3276L14176.1091,-3902.3427L14176.1093,-3902.3438"/>
<path content="1,岩手県交通（株）,高田線,11.0,8.0,8.0," xlink:title="1" d="M14167.9688,-3899.9768L14167.9993,-3899.9556L14168.0095,-3899.9491L14168.0543,-3899.917L14168.1436,-3899.855L14168.2114,-3899.8094L14168.2337,-3899.7959L14168.2496,-3899.7903L14168.2648,-3899.7835L14168.2815,-3899.7742L14168.2957,-3899.7672L14168.3116,-3899.7565L14168.3339,-3899.7441L14168.3649,-3899.7306L14168.4053,-3899.7261L14168.419,-3899.7249L14168.4327,-3899.7238L14168.4904,-3899.7171L14168.5344,-3899.7086L14168.5553,-3899.7035L14168.6551,-3899.6678L14168.6694,-3899.6638L14168.6929,-3899.6551L14168.7059,-3899.6519L14168.7192,-3899.6499L14168.7485,-3899.6461L14168.7614,-3899.6444L14168.7651,-3899.6444L14168.7981,-3899.6476L14168.8108,-3899.6455L14168.9002,-3899.6497L14168.9193,-3899.6506L14168.9662,-3899.6523L14168.9719,-3899.6523L14169.1046,-3899.6557L14169.1277,-3899.6568L14169.1417,-3899.6568L14169.1637,-3899.6568L14169.2034,-3899.6585L14169.2473,-3899.6596L14169.3627,-3899.6624L14169.522,-3899.6641L14169.5984,-3899.6653L14169.6611,-3899.6653L14169.6741,-3899.6613L14169.6899,-3899.654L14169.7051,-3899.6495L14169.7203,-3899.6489L14169.7521,-3899.6529L14169.7692,-3899.6551L14169.7808,-3899.6557L14169.7981,-3899.6591L14169.8896,-3899.6732L14169.9026,-3899.6749L14169.917,-3899.6776L14169.9351,-3899.6794L14169.9495,-3899.6822L14169.9694,-3899.6845L14169.9884,-3899.6872L14170.0012,-3899.6876L14170.0173,-3899.6856L14170.1268,-3899.6551L14170.1715,-3899.6428L14170.2321,-3899.6135L14170.2955,-3899.5819L14170.3135,-3899.5729L14170.3416,-3899.5606L14170.3611,-3899.5459L14170.3698,-3899.5374L14170.3741,-3899.5307L14170.3799,-3899.5172L14170.3842,-3899.4879L14170.3885,-3899.4693L14170.3914,-3899.4637L14170.3953,-3899.4592L14170.4001,-3899.4559L14170.4071,-3899.4537L14170.4166,-3899.4524L14170.4415,-3899.4524L14170.4476,-3899.4518L14170.4568,-3899.4497L14170.4664,-3899.4462L14170.4736,-3899.4434L14170.4858,-3899.4383L14170.506,-3899.4293L14170.5237,-3899.4194L14170.5291,-3899.4158L14170.5358,-3899.4101L14170.5431,-3899.4026L14170.5673,-3899.3741L14170.5868,-3899.3573L14170.6069,-3899.3437L14170.6264,-3899.333L14170.6397,-3899.3282L14170.6473,-3899.3263L14170.6586,-3899.3255L14170.6689,-3899.3257L14170.6778,-3899.3263L14170.6853,-3899.3277L14170.6952,-3899.3323L14170.7086,-3899.3397L14170.7195,-3899.3468L14170.7252,-3899.3505L14170.7318,-3899.3562L14170.7363,-3899.3613L14170.7368,-3899.3622L14170.7425,-3899.3719L14170.7497,-3899.3877L14170.7535,-3899.4027L14170.7546,-3899.4102L14170.7546,-3899.419L14170.7541,-3899.427L14170.7511,-3899.4446L14170.7461,-3899.462L14170.7374,-3899.4879L14170.7288,-3899.507L14170.7208,-3899.5324L14170.7144,-3899.5639L14170.7144,-3899.6129L14170.7389,-3899.6974L14170.7518,-3899.7301L14170.7597,-3899.7481L14170.7684,-3899.7616L14170.7785,-3899.7717L14170.7871,-3899.7779L14170.8282,-3899.7982L14170.8376,-3899.805L14170.8448,-3899.814L14170.8462,-3899.8177L14170.8462,-3899.8215L14170.8456,-3899.8262L14170.8437,-3899.8332L14170.8391,-3899.8545L14170.838,-3899.8684L14170.8383,-3899.8855L14170.8405,-3899.8979L14170.8441,-3899.9109L14170.8449,-3899.9181L14170.844,-3899.9243L14170.842,-3899.9275L14170.8376,-3899.9306L14170.7896,-3899.9522L14170.7841,-3899.9561L14170.7823,-3899.9579L14170.7805,-3899.9604L14170.7785,-3899.9644L14170.7773,-3899.9727L14170.7778,-3899.9891L14170.7792,-3900.0021L14170.7835,-3900.0195L14170.7886,-3900.0319L14170.7951,-3900.0421L14170.8095,-3900.0545L14170.8441,-3900.0798L14170.86,-3900.099L14170.8708,-3900.1192L14170.8756,-3900.1319L14170.8758,-3900.1378L14170.8754,-3900.1409L14170.8737,-3900.1451L14170.8701,-3900.1508L14170.8621,-3900.1564L14170.8549,-3900.1598L14170.8217,-3900.1784L14170.8135,-3900.1841L14170.8102,-3900.1893L14170.8096,-3900.1968L14170.8066,-3900.2437L14170.8018,-3900.2804L14170.8003,-3900.291L14170.7967,-3900.3028L14170.7953,-3900.3089L14170.794,-3900.3173L14170.7951,-3900.3299L14170.7991,-3900.3406L14170.8048,-3900.349L14170.8178,-3900.3575L14170.846,-3900.3687L14170.864,-3900.3828L14170.8712,-3900.3929L14170.8849,-3900.4132L14170.8951,-3900.4357L14170.9109,-3900.478L14170.9145,-3900.4921L14170.9073,-3900.5095L14170.9109,-3900.5303L14170.9239,-3900.5551L14170.9261,-3900.5574L14170.9355,-3900.5743L14170.9449,-3900.5912L14170.9485,-3900.603L14170.9492,-3900.6227L14170.9607,-3900.6374L14170.9701,-3900.6458L14170.9817,-3900.6543L14170.9882,-3900.6604L14170.9968,-3900.6717L14170.9983,-3900.6807L14171.0004,-3900.7033L14171.0055,-3900.7207L14171.0134,-3900.7359L14171.0257,-3900.7506L14171.0473,-3900.7686L14171.0488,-3900.7691L14171.0964,-3900.7956L14171.1549,-3900.8257L14171.1852,-3900.8474L14171.204,-3900.8654L14171.2393,-3900.8975L14171.2473,-3900.9049L14171.2623,-3900.9147L14171.2841,-3900.9234L14171.3151,-3900.9302L14171.3324,-3900.9324L14171.3801,-3900.9364L14171.4147,-3900.9386L14171.4392,-3900.946L14171.4624,-3900.9567L14171.4797,-3900.9685L14171.4956,-3900.9848L14171.5064,-3901.0029L14171.5107,-3901.0124L14171.5143,-3901.0265L14171.5158,-3901.0428L14171.5129,-3901.0676L14171.5114,-3901.0772L14171.5057,-3901.0975L14171.4956,-3901.12L14171.4801,-3901.1439L14171.4737,-3901.1501L14171.4602,-3901.1628L14171.4595,-3901.1633L14171.4407,-3901.1707L14171.4241,-3901.1752L14171.3967,-3901.1786L14171.3851,-3901.1819L14171.3808,-3901.1842L14171.3714,-3901.1915L14171.3541,-3901.2067L14171.3483,-3901.2191L14171.3497,-3901.2304L14171.362,-3901.2512L14171.3952,-3901.2934L14171.4183,-3901.3227L14171.4421,-3901.352L14171.4487,-3901.3592L14171.4587,-3901.3791L14171.4902,-3901.4603L14171.5006,-3901.4889L14171.5042,-3901.5001L14171.5172,-3901.526L14171.5194,-3901.5323L14171.5229,-3901.5559L14171.5172,-3901.5806L14171.5004,-3901.6072L14171.4965,-3901.6181L14171.4587,-3901.7023L14171.4594,-3901.7113L14171.4702,-3901.7451L14171.4934,-3901.8099L14171.497,-3901.8211L14171.4991,-3901.8251L14171.5092,-3901.8555L14171.5183,-3901.8816L14171.5244,-3901.8994L14171.5432,-3901.9461L14171.5446,-3901.9529L14171.5504,-3901.9641L14171.5583,-3901.985L14171.5569,-3901.9996L14171.5504,-3902.0092L14171.5367,-3902.021L14171.5352,-3902.021L14171.5092,-3902.0396L14171.4717,-3902.0582L14171.4587,-3902.0644L14171.3858,-3902.0999L14171.3584,-3902.1145L14171.3288,-3902.1331L14171.2681,-3902.1821L14171.2552,-3902.1888L14171.2335,-3902.1973L14171.1917,-3902.2123L14171.1866,-3902.2142L14171.1599,-3902.2271L14171.1108,-3902.2621L14171.0884,-3902.2778L14171.0141,-3902.3257L14170.9939,-3902.3386L14170.9881,-3902.3438"/>
</g>
</svg>
