<?xml version="1.0" encoding="UTF-8"?>
<svg  xmlns="http://www.w3.org/2000/svg" xmlns:xlink="http://www.w3.org/1999/xlink" xmlns:go="http://purl.org/svgmap/profile" property="N07_001,N07_002,N07_003,N07_004,N07_005,N07_006,N07_007" viewBox="13977.218627929688 -3568.4967041015625 0.1373291015625 0.1373291015625" go:dataArea="13977.218627929688 -3568.4967041015625 0.1373291015625 0.1373291015625" >
<metadata>
 <rdf:RDF xmlns:rdf="http://www.w3.org/1999/02/22-rdf-syntax-ns#" xmlns:crs="http://opengis.org/xmldtds/transformations.dtd" xmlns:svg="http://www.w3.org/svg" >
  <rdf:Description>
   <crs:CoordinateReferenceSystem rdf:resource="http://purl.org/crs/84" svg:transform="matrix(100.0,0.0,0.0,-100.0,0.0,0.0)" />
  </rdf:Description>
 </rdf:RDF>
</metadata>
<globalCoordinateSystem srsName="http://purl.org/crs/84" transform="matrix(100.0,0.0,0.0,-100.0,0.0,0.0)" />
<defs>
 <g id="p0" >
  <circle cx="0.0" cy="0.0" r="3" stroke="green" stroke-width="0.75" vector-effect="non-scaling-stroke" />
 </g>
</defs>
<g fill="none" fill-rule="evenodd" stroke="#FF00FF" stroke-width="0.75" opacity="0.5" vector-effect="non-scaling-stroke" stroke-linejoin="bevel" >
<path content="1,JRバス東北（株）,ドリーム横浜・仙台号,1.0,1.0,1.0," xlink:title="1" d="M13977.2186,-3568.4433L13977.245,-3568.4376L13977.2585,-3568.435L13977.2613,-3568.4344L13977.2627,-3568.4342L13977.2637,-3568.434L13977.2704,-3568.4327L13977.2711,-3568.4325L13977.2718,-3568.4324L13977.2755,-3568.4317L13977.2759,-3568.4316L13977.2764,-3568.4315L13977.3017,-3568.4266L13977.3091,-3568.4252L13977.3146,-3568.4241L13977.3291,-3568.4213L13977.3364,-3568.4199L13977.3552,-3568.4162L13977.356,-3568.4161"/>
<path content="1,JRバス東北（株）,ドリーム盛岡・らくちん号,2.2,3.0,3.0," xlink:title="1" d="M13977.356,-3568.4161L13977.3552,-3568.4162L13977.3364,-3568.4199L13977.3291,-3568.4213L13977.3146,-3568.4241L13977.3091,-3568.4252L13977.3017,-3568.4266L13977.2764,-3568.4315L13977.2759,-3568.4316L13977.2755,-3568.4317L13977.2718,-3568.4324L13977.2711,-3568.4325L13977.2704,-3568.4327L13977.2637,-3568.434L13977.2627,-3568.4342L13977.2613,-3568.4344L13977.2585,-3568.435L13977.245,-3568.4376L13977.2186,-3568.4433"/>
<path content="1,JRバス東北（株）,ラ・フォーレ号,1.0,1.0,1.0," xlink:title="1" d="M13977.356,-3568.4161L13977.3552,-3568.4162L13977.3364,-3568.4199L13977.3291,-3568.4213L13977.3146,-3568.4241L13977.3091,-3568.4252L13977.3017,-3568.4266L13977.2764,-3568.4315L13977.2759,-3568.4316L13977.2755,-3568.4317L13977.2718,-3568.4324L13977.2711,-3568.4325L13977.2704,-3568.4327L13977.2637,-3568.434L13977.2627,-3568.4342L13977.2613,-3568.4344L13977.2585,-3568.435L13977.245,-3568.4376L13977.2186,-3568.4433"/>
<path content="1,JRバス関東（株）,はさき号,4.0,4.0,4.0," xlink:title="1" d="M13977.356,-3568.4161L13977.3552,-3568.4162L13977.3364,-3568.4199L13977.3291,-3568.4213L13977.3146,-3568.4241L13977.3091,-3568.4252L13977.3017,-3568.4266L13977.2764,-3568.4315L13977.2759,-3568.4316L13977.2755,-3568.4317L13977.2718,-3568.4324L13977.2711,-3568.4325L13977.2704,-3568.4327L13977.2637,-3568.434L13977.2627,-3568.4342L13977.2613,-3568.4344L13977.2585,-3568.435L13977.245,-3568.4376L13977.2186,-3568.4433"/>
<path content="1,JRバス関東（株）,ドリーム高松号/松山号/徳島号/高知号,4.0,4.0,4.0," xlink:title="1" d="M13977.356,-3568.4161L13977.3552,-3568.4162L13977.3364,-3568.4199L13977.3291,-3568.4213L13977.3146,-3568.4241L13977.3091,-3568.4252L13977.3017,-3568.4266L13977.2764,-3568.4315L13977.2759,-3568.4316L13977.2755,-3568.4317L13977.2718,-3568.4324L13977.2711,-3568.4325L13977.2704,-3568.4327L13977.2637,-3568.434L13977.2627,-3568.4342L13977.2613,-3568.4344L13977.2585,-3568.435L13977.245,-3568.4376L13977.2186,-3568.4433"/>
<path content="1,JRバス関東（株）,房総なのはな号,23.2,25.0,25.0," xlink:title="1" d="M13977.356,-3568.4161L13977.3552,-3568.4162L13977.3364,-3568.4199L13977.3291,-3568.4213L13977.3146,-3568.4241L13977.3091,-3568.4252L13977.3017,-3568.4266L13977.2764,-3568.4315L13977.2759,-3568.4316L13977.2755,-3568.4317L13977.2718,-3568.4324L13977.2711,-3568.4325L13977.2704,-3568.4327L13977.2637,-3568.434L13977.2627,-3568.4342L13977.2613,-3568.4344L13977.2585,-3568.435L13977.245,-3568.4376L13977.2186,-3568.4433"/>
<path content="1,JRバス関東（株）,東京～富里・多古・八日市場駅・匝瑳市役所,9.0,9.0,9.0," xlink:title="1" d="M13977.2186,-3568.4433L13977.245,-3568.4376L13977.2585,-3568.435L13977.2613,-3568.4344L13977.2627,-3568.4342L13977.2637,-3568.434L13977.2704,-3568.4327L13977.2711,-3568.4325L13977.2718,-3568.4324L13977.2755,-3568.4317L13977.2759,-3568.4316L13977.2764,-3568.4315L13977.3017,-3568.4266L13977.3091,-3568.4252L13977.3146,-3568.4241L13977.3291,-3568.4213L13977.3364,-3568.4199L13977.3552,-3568.4162L13977.356,-3568.4161"/>
<path content="1,JRバス関東（株）,東京～水郷潮来・鹿島神宮,29.0,9.0,29.0," xlink:title="1" d="M13977.2186,-3568.4433L13977.245,-3568.4376L13977.2585,-3568.435L13977.2613,-3568.4344L13977.2627,-3568.4342L13977.2637,-3568.434L13977.2704,-3568.4327L13977.2711,-3568.4325L13977.2718,-3568.4324L13977.2755,-3568.4317L13977.2759,-3568.4316L13977.2764,-3568.4315L13977.3017,-3568.4266L13977.3091,-3568.4252L13977.3146,-3568.4241L13977.3291,-3568.4213L13977.3364,-3568.4199L13977.3552,-3568.4162L13977.356,-3568.4161"/>
<path content="1,JR東海バス（株）,ドリーム静岡・浜松号_01_on,2.0,2.0,2.0," xlink:title="1" d="M13977.2186,-3568.4433L13977.245,-3568.4376L13977.356,-3568.4161"/>
<path content="1,JR東海バス（株）,ドリーム静岡・浜松号_02_on,2.0,2.0,2.0," xlink:title="1" d="M13977.2186,-3568.4433L13977.245,-3568.4376L13977.356,-3568.4161"/>
<path content="1,ちばフラワーバス（株）,シーサイドライナー,19.0,18.0,18.0," xlink:title="1" d="M13977.356,-3568.3638L13977.2821,-3568.3805L13977.2186,-3568.3932"/>
<path content="1,イーグルバス（株）,川越～羽田空港高速直結バス,2.5,2.5,2.5," xlink:title="1" d="M13977.356,-3568.4161L13977.3552,-3568.4162L13977.3364,-3568.4199L13977.3291,-3568.4213L13977.3146,-3568.4241L13977.3091,-3568.4252L13977.3017,-3568.4266L13977.2764,-3568.4315L13977.2759,-3568.4316L13977.2755,-3568.4317L13977.2718,-3568.4324L13977.2711,-3568.4325L13977.2704,-3568.4327L13977.2637,-3568.434L13977.2627,-3568.4342L13977.2613,-3568.4344L13977.2585,-3568.435L13977.245,-3568.4376L13977.2186,-3568.4433"/>
<path content="1,京成バス（株）,東京ディズニーリゾート～新宿駅新南口,3.0,3.0,3.0," xlink:title="1" d="M13977.356,-3568.4161L13977.3552,-3568.4162L13977.3364,-3568.4199L13977.3291,-3568.4213L13977.3146,-3568.4241L13977.3091,-3568.4252L13977.3017,-3568.4266L13977.2764,-3568.4315L13977.2759,-3568.4316L13977.2755,-3568.4317L13977.2718,-3568.4324L13977.2711,-3568.4325L13977.2704,-3568.4327L13977.2637,-3568.434L13977.2627,-3568.4342L13977.2613,-3568.4344L13977.2585,-3568.435L13977.245,-3568.4376L13977.2186,-3568.4433"/>
<path content="1,京成バス（株）,浜松町・東京駅～かずさアーク・安房鴨川駅,10.0,10.0,10.0," xlink:title="1" d="M13977.2186,-3568.4433L13977.245,-3568.4376L13977.2585,-3568.435L13977.2613,-3568.4344L13977.2627,-3568.4342L13977.2637,-3568.434L13977.2704,-3568.4327L13977.2711,-3568.4325L13977.2718,-3568.4324L13977.2755,-3568.4317L13977.2759,-3568.4316L13977.2764,-3568.4315L13977.3017,-3568.4266L13977.3091,-3568.4252L13977.3146,-3568.4241L13977.3291,-3568.4213L13977.3364,-3568.4199L13977.3552,-3568.4162L13977.356,-3568.4161"/>
<path content="1,京成バス（株）,浜松町・東京駅～勝浦・御宿・安房小湊,2.0,2.0,2.0," xlink:title="1" d="M13977.2186,-3568.4433L13977.245,-3568.4376L13977.2585,-3568.435L13977.2613,-3568.4344L13977.2627,-3568.4342L13977.2637,-3568.434L13977.2704,-3568.4327L13977.2711,-3568.4325L13977.2718,-3568.4324L13977.2755,-3568.4317L13977.2759,-3568.4316L13977.2764,-3568.4315L13977.3017,-3568.4266L13977.3091,-3568.4252L13977.3146,-3568.4241L13977.3291,-3568.4213L13977.3364,-3568.4199L13977.3552,-3568.4162L13977.356,-3568.4161"/>
<path content="1,京成バス（株）,浜松町・東京駅～君津駅・青堀駅,22.0,21.0,21.0," xlink:title="1" d="M13977.2186,-3568.4433L13977.245,-3568.4376L13977.2585,-3568.435L13977.2613,-3568.4344L13977.2627,-3568.4342L13977.2637,-3568.434L13977.2704,-3568.4327L13977.2711,-3568.4325L13977.2718,-3568.4324L13977.2755,-3568.4317L13977.2759,-3568.4316L13977.2764,-3568.4315L13977.3017,-3568.4266L13977.3091,-3568.4252L13977.3146,-3568.4241L13977.3291,-3568.4213L13977.3364,-3568.4199L13977.3552,-3568.4162L13977.356,-3568.4161"/>
<path content="1,京成バス（株）,潮見・東京駅～木更津駅・君津製鉄所,15.0,15.0,15.0," xlink:title="1" d="M13977.2186,-3568.4433L13977.245,-3568.4376L13977.2585,-3568.435L13977.2613,-3568.4344L13977.2627,-3568.4342L13977.2637,-3568.434L13977.2704,-3568.4327L13977.2711,-3568.4325L13977.2718,-3568.4324L13977.2755,-3568.4317L13977.2759,-3568.4316L13977.2764,-3568.4315L13977.3017,-3568.4266L13977.3091,-3568.4252L13977.3146,-3568.4241L13977.3291,-3568.4213L13977.3364,-3568.4199L13977.3552,-3568.4162L13977.356,-3568.4161"/>
<path content="1,京成バス（株）,神戸・大阪～東京ディズニーリゾート・海浜幕張・千葉中央駅,0.5,0.5,0.5," xlink:title="1" d="M13977.356,-3568.4161L13977.3552,-3568.4162L13977.3364,-3568.4199L13977.3291,-3568.4213L13977.3146,-3568.4241L13977.3091,-3568.4252L13977.3017,-3568.4266L13977.2764,-3568.4315L13977.2759,-3568.4316L13977.2755,-3568.4317L13977.2718,-3568.4324L13977.2711,-3568.4325L13977.2704,-3568.4327L13977.2637,-3568.434L13977.2627,-3568.4342L13977.2613,-3568.4344L13977.2585,-3568.435L13977.245,-3568.4376L13977.2186,-3568.4433"/>
<path content="1,京浜急行バス（株）,ノクターン号,3.4,4.0,4.0," xlink:title="1" d="M13977.356,-3568.4161L13977.3552,-3568.4162L13977.3364,-3568.4199L13977.3291,-3568.4213L13977.3146,-3568.4241L13977.3091,-3568.4252L13977.3017,-3568.4266L13977.2764,-3568.4315L13977.2759,-3568.4316L13977.2755,-3568.4317L13977.2718,-3568.4324L13977.2711,-3568.4325L13977.2704,-3568.4327L13977.2637,-3568.434L13977.2627,-3568.4342L13977.2613,-3568.4344L13977.2585,-3568.435L13977.245,-3568.4376L13977.2186,-3568.4433"/>
<path content="1,京浜急行バス（株）,ビーム号,1.0,1.0,1.0," xlink:title="1" d="M13977.2186,-3568.4433L13977.245,-3568.4376L13977.2585,-3568.435L13977.2613,-3568.4344L13977.2627,-3568.4342L13977.2637,-3568.434L13977.2704,-3568.4327L13977.2711,-3568.4325L13977.2718,-3568.4324L13977.2755,-3568.4317L13977.2759,-3568.4316L13977.2764,-3568.4315L13977.3017,-3568.4266L13977.3091,-3568.4252L13977.3146,-3568.4241L13977.3291,-3568.4213L13977.3364,-3568.4199L13977.3552,-3568.4162L13977.356,-3568.4161"/>
<path content="1,京浜急行バス（株）,新百合ヶ丘駅～羽田空港線,8.5,8.5,8.5," xlink:title="1" d="M13977.356,-3568.4161L13977.3552,-3568.4162L13977.3364,-3568.4199L13977.3291,-3568.4213L13977.3146,-3568.4241L13977.3091,-3568.4252L13977.3017,-3568.4266L13977.2764,-3568.4315L13977.2759,-3568.4316L13977.2755,-3568.4317L13977.2718,-3568.4324L13977.2711,-3568.4325L13977.2704,-3568.4327L13977.2637,-3568.434L13977.2627,-3568.4342L13977.2613,-3568.4344L13977.2585,-3568.435L13977.245,-3568.4376L13977.2186,-3568.4433"/>
<path content="1,京王バス南（株）,成田空港～南大沢線,4.0,4.0,4.0," xlink:title="1" d="M13977.2186,-3568.4433L13977.245,-3568.4376L13977.2585,-3568.435L13977.2613,-3568.4344L13977.2627,-3568.4342L13977.2637,-3568.434L13977.2704,-3568.4327L13977.2711,-3568.4325L13977.2718,-3568.4324L13977.2755,-3568.4317L13977.2759,-3568.4316L13977.2764,-3568.4315L13977.3017,-3568.4266L13977.3091,-3568.4252L13977.3146,-3568.4241L13977.3291,-3568.4213L13977.3364,-3568.4199L13977.3552,-3568.4162L13977.356,-3568.4161"/>
<path content="1,京王バス南（株）,成田空港～調布駅北口線,4.0,4.0,4.0," xlink:title="1" d="M13977.2186,-3568.4433L13977.245,-3568.4376L13977.2585,-3568.435L13977.2613,-3568.4344L13977.2627,-3568.4342L13977.2637,-3568.434L13977.2704,-3568.4327L13977.2711,-3568.4325L13977.2718,-3568.4324L13977.2755,-3568.4317L13977.2759,-3568.4316L13977.2764,-3568.4315L13977.3017,-3568.4266L13977.3091,-3568.4252L13977.3146,-3568.4241L13977.3291,-3568.4213L13977.3364,-3568.4199L13977.3552,-3568.4162L13977.356,-3568.4161"/>
<path content="1,京阪バス（株）,京都・大津⇔上野・TDR・千葉,1.0,1.0,1.0," xlink:title="1" d="M13977.2186,-3568.4433L13977.245,-3568.4376L13977.356,-3568.4161"/>
<path content="1,千葉中央バス,京都～上野・東京ディズニーリゾート,1.0,1.0,1.0," xlink:title="1" d="M13977.356,-3568.4161L13977.3552,-3568.4162L13977.3364,-3568.4199L13977.3291,-3568.4213L13977.3146,-3568.4241L13977.3091,-3568.4252L13977.3017,-3568.4266L13977.2764,-3568.4315L13977.2759,-3568.4316L13977.2755,-3568.4317L13977.2718,-3568.4324L13977.2711,-3568.4325L13977.2704,-3568.4327L13977.2637,-3568.434L13977.2627,-3568.4342L13977.2613,-3568.4344L13977.2585,-3568.435L13977.245,-3568.4376L13977.2186,-3568.4433"/>
<path content="1,千葉交通,ONライナー,4.0,4.0,4.0," xlink:title="1" d="M13977.2186,-3568.4433L13977.245,-3568.4376L13977.2585,-3568.435L13977.2613,-3568.4344L13977.2627,-3568.4342L13977.2637,-3568.434L13977.2704,-3568.4327L13977.2711,-3568.4325L13977.2718,-3568.4324L13977.2755,-3568.4317L13977.2759,-3568.4316L13977.2764,-3568.4315L13977.3017,-3568.4266L13977.3091,-3568.4252L13977.3146,-3568.4241L13977.3291,-3568.4213L13977.3364,-3568.4199L13977.3552,-3568.4162L13977.356,-3568.4161"/>
<path content="1,千葉交通,アザレア号,7.0,7.0,7.0," xlink:title="1" d="M13977.2186,-3568.4433L13977.245,-3568.4376L13977.2585,-3568.435L13977.2613,-3568.4344L13977.2627,-3568.4342L13977.2637,-3568.434L13977.2704,-3568.4327L13977.2711,-3568.4325L13977.2718,-3568.4324L13977.2755,-3568.4317L13977.2759,-3568.4316L13977.2764,-3568.4315L13977.3017,-3568.4266L13977.3091,-3568.4252L13977.3146,-3568.4241L13977.3291,-3568.4213L13977.3364,-3568.4199L13977.3552,-3568.4162L13977.356,-3568.4161"/>
<path content="1,千葉交通,八日市場～東京線,7.0,7.0,7.0," xlink:title="1" d="M13977.2186,-3568.4433L13977.245,-3568.4376L13977.2585,-3568.435L13977.2613,-3568.4344L13977.2627,-3568.4342L13977.2637,-3568.434L13977.2704,-3568.4327L13977.2711,-3568.4325L13977.2718,-3568.4324L13977.2755,-3568.4317L13977.2759,-3568.4316L13977.2764,-3568.4315L13977.3017,-3568.4266L13977.3091,-3568.4252L13977.3146,-3568.4241L13977.3291,-3568.4213L13977.3364,-3568.4199L13977.3552,-3568.4162L13977.356,-3568.4161"/>
<path content="1,千葉交通,成田・佐倉～東京駅・浜松町線,0.0,0.5,0.5," xlink:title="1" d="M13977.356,-3568.4161L13977.3552,-3568.4162L13977.3364,-3568.4199L13977.3291,-3568.4213L13977.3146,-3568.4241L13977.3091,-3568.4252L13977.3017,-3568.4266L13977.2764,-3568.4315L13977.2759,-3568.4316L13977.2755,-3568.4317L13977.2718,-3568.4324L13977.2711,-3568.4325L13977.2704,-3568.4327L13977.2637,-3568.434L13977.2627,-3568.4342L13977.2613,-3568.4344L13977.2585,-3568.435L13977.245,-3568.4376L13977.2186,-3568.4433"/>
<path content="1,千葉交通,竜王・甲府・石和・一宮・勝沼～成田空港,3.0,3.0,3.0," xlink:title="1" d="M13977.2186,-3568.4433L13977.245,-3568.4376L13977.2585,-3568.435L13977.2613,-3568.4344L13977.2627,-3568.4342L13977.2637,-3568.434L13977.2704,-3568.4327L13977.2711,-3568.4325L13977.2718,-3568.4324L13977.2755,-3568.4317L13977.2759,-3568.4316L13977.2764,-3568.4315L13977.3017,-3568.4266L13977.3091,-3568.4252L13977.3146,-3568.4241L13977.3291,-3568.4213L13977.3364,-3568.4199L13977.3552,-3568.4162L13977.356,-3568.4161"/>
<path content="1,千葉交通,銚子～東京駅・浜松町線,32.0,31.0,31.0," xlink:title="1" d="M13977.356,-3568.4161L13977.3552,-3568.4162L13977.3364,-3568.4199L13977.3291,-3568.4213L13977.3146,-3568.4241L13977.3091,-3568.4252L13977.3017,-3568.4266L13977.2764,-3568.4315L13977.2759,-3568.4316L13977.2755,-3568.4317L13977.2718,-3568.4324L13977.2711,-3568.4325L13977.2704,-3568.4327L13977.2637,-3568.434L13977.2627,-3568.4342L13977.2613,-3568.4344L13977.2585,-3568.435L13977.245,-3568.4376L13977.2186,-3568.4433"/>
<path content="1,千葉内陸バス,東京線　み春野ルート,0.5,0.0,0.0," xlink:title="1" d="M13977.2186,-3568.3932L13977.2821,-3568.3805L13977.356,-3568.3638"/>
<path content="1,千葉内陸バス,東京線　国立民俗博物館・川村記念美術館ルート,1.0,1.0,1.0," xlink:title="1" d="M13977.2186,-3568.3932L13977.2821,-3568.3805L13977.356,-3568.3638"/>
<path content="1,千葉内陸バス,東京線　臼井・千代田ルート,2.5,2.5,2.5," xlink:title="1" d="M13977.2186,-3568.3932L13977.2821,-3568.3805L13977.356,-3568.3638"/>
<path content="1,南海バス（株）,大阪（なんば）・京都⇔秋葉原・成田空港・銚子,1.0,1.0,1.0," xlink:title="1" d="M13977.2186,-3568.4433L13977.245,-3568.4376L13977.356,-3568.4161"/>
<path content="1,国際十王交通（株）,成田空港線,2.0,2.0,2.0," xlink:title="1" d="M13977.356,-3568.4161L13977.3552,-3568.4162L13977.3364,-3568.4199L13977.3291,-3568.4213L13977.3146,-3568.4241L13977.3091,-3568.4252L13977.3017,-3568.4266L13977.2764,-3568.4315L13977.2759,-3568.4316L13977.2755,-3568.4317L13977.2718,-3568.4324L13977.2711,-3568.4325L13977.2704,-3568.4327L13977.2637,-3568.434L13977.2627,-3568.4342L13977.2613,-3568.4344L13977.2585,-3568.435L13977.245,-3568.4376L13977.2186,-3568.4433"/>
<path content="1,国際十王交通（株）,羽田空港線,3.0,3.0,3.0," xlink:title="1" d="M13977.356,-3568.4161L13977.3552,-3568.4162L13977.3364,-3568.4199L13977.3291,-3568.4213L13977.3146,-3568.4241L13977.3091,-3568.4252L13977.3017,-3568.4266L13977.2764,-3568.4315L13977.2759,-3568.4316L13977.2755,-3568.4317L13977.2718,-3568.4324L13977.2711,-3568.4325L13977.2704,-3568.4327L13977.2637,-3568.434L13977.2627,-3568.4342L13977.2613,-3568.4344L13977.2585,-3568.435L13977.245,-3568.4376L13977.2186,-3568.4433"/>
<path content="1,国際興業（株）,大宮羽田線,4.0,4.0,4.0," xlink:title="1" d="M13977.356,-3568.4161L13977.3552,-3568.4162L13977.3364,-3568.4199L13977.3291,-3568.4213L13977.3146,-3568.4241L13977.3091,-3568.4252L13977.3017,-3568.4266L13977.2764,-3568.4315L13977.2759,-3568.4316L13977.2755,-3568.4317L13977.2718,-3568.4324L13977.2711,-3568.4325L13977.2704,-3568.4327L13977.2637,-3568.434L13977.2627,-3568.4342L13977.2613,-3568.4344L13977.2585,-3568.435L13977.245,-3568.4376L13977.2186,-3568.4433"/>
<path content="1,富士急行（株）,河口湖～津田沼・西船橋・新浦安線,0.3,0.3,0.3," xlink:title="1" d="M13977.2186,-3568.4433L13977.245,-3568.4376L13977.2585,-3568.435L13977.2613,-3568.4344L13977.2627,-3568.4342L13977.2637,-3568.434L13977.2704,-3568.4327L13977.2711,-3568.4325L13977.2718,-3568.4324L13977.2755,-3568.4317L13977.2759,-3568.4316L13977.2764,-3568.4315L13977.3017,-3568.4266L13977.3091,-3568.4252L13977.3146,-3568.4241L13977.3291,-3568.4213L13977.3364,-3568.4199L13977.3552,-3568.4162L13977.356,-3568.4161"/>
<path content="1,小湊鉄道,五井～新宿,7.0,7.0,7.0," xlink:title="1" d="M13977.356,-3568.4161L13977.3552,-3568.4162L13977.3364,-3568.4199L13977.3291,-3568.4213L13977.3146,-3568.4241L13977.3091,-3568.4252L13977.3017,-3568.4266L13977.2764,-3568.4315L13977.2759,-3568.4316L13977.2755,-3568.4317L13977.2718,-3568.4324L13977.2711,-3568.4325L13977.2704,-3568.4327L13977.2637,-3568.434L13977.2627,-3568.4342L13977.2613,-3568.4344L13977.2585,-3568.435L13977.245,-3568.4376L13977.2186,-3568.4433"/>
<path content="1,小湊鉄道,白子・茂原～東京線,6.0,6.0,6.0," xlink:title="1" d="M13977.356,-3568.4161L13977.3552,-3568.4162L13977.3364,-3568.4199L13977.3291,-3568.4213L13977.3146,-3568.4241L13977.3091,-3568.4252L13977.3017,-3568.4266L13977.2764,-3568.4315L13977.2759,-3568.4316L13977.2755,-3568.4317L13977.2718,-3568.4324L13977.2711,-3568.4325L13977.2704,-3568.4327L13977.2637,-3568.434L13977.2627,-3568.4342L13977.2613,-3568.4344L13977.2585,-3568.435L13977.245,-3568.4376L13977.2186,-3568.4433"/>
<path content="1,小田急バス（株）,吉祥寺駅～成田空港線,3.5,3.5,3.5," xlink:title="1" d="M13977.2186,-3568.4433L13977.245,-3568.4376L13977.2585,-3568.435L13977.2613,-3568.4344L13977.2627,-3568.4342L13977.2637,-3568.434L13977.2704,-3568.4327L13977.2711,-3568.4325L13977.2718,-3568.4324L13977.2755,-3568.4317L13977.2759,-3568.4316L13977.2764,-3568.4315L13977.3017,-3568.4266L13977.3091,-3568.4252L13977.3146,-3568.4241L13977.3291,-3568.4213L13977.3364,-3568.4199L13977.3552,-3568.4162L13977.356,-3568.4161"/>
<path content="1,小田急バス（株）,新宿～五井線,3.5,3.0,3.0," xlink:title="1" d="M13977.356,-3568.4161L13977.3552,-3568.4162L13977.3364,-3568.4199L13977.3291,-3568.4213L13977.3146,-3568.4241L13977.3091,-3568.4252L13977.3017,-3568.4266L13977.2764,-3568.4315L13977.2759,-3568.4316L13977.2755,-3568.4317L13977.2718,-3568.4324L13977.2711,-3568.4325L13977.2704,-3568.4327L13977.2637,-3568.434L13977.2627,-3568.4342L13977.2613,-3568.4344L13977.2585,-3568.435L13977.245,-3568.4376L13977.2186,-3568.4433"/>
<path content="1,山交バス（株）,TOKYOサンライズ,1.0,1.0,1.0," xlink:title="1" d="M13977.2186,-3568.4433L13977.245,-3568.4376L13977.2585,-3568.435L13977.2613,-3568.4344L13977.2627,-3568.4342L13977.2637,-3568.434L13977.2704,-3568.4327L13977.2711,-3568.4325L13977.2718,-3568.4324L13977.2755,-3568.4317L13977.2759,-3568.4316L13977.2764,-3568.4315L13977.3017,-3568.4266L13977.3091,-3568.4252L13977.3146,-3568.4241L13977.3291,-3568.4213L13977.3364,-3568.4199L13977.3552,-3568.4162L13977.356,-3568.4161"/>
<path content="1,山梨交通（株）,竜王・甲府～成田空港線,3.0,3.0,3.0," xlink:title="1" d="M13977.2186,-3568.4433L13977.245,-3568.4376L13977.2585,-3568.435L13977.2613,-3568.4344L13977.2627,-3568.4342L13977.2637,-3568.434L13977.2704,-3568.4327L13977.2711,-3568.4325L13977.2718,-3568.4324L13977.2755,-3568.4317L13977.2759,-3568.4316L13977.2764,-3568.4315L13977.3017,-3568.4266L13977.3091,-3568.4252L13977.3146,-3568.4241L13977.3291,-3568.4213L13977.3364,-3568.4199L13977.3552,-3568.4162L13977.356,-3568.4161"/>
<path content="1,岩手県交通（株）,盛岡・横浜線,1.0,1.0,1.0," xlink:title="1" d="M13977.356,-3568.4161L13977.3552,-3568.4162L13977.3364,-3568.4199L13977.3291,-3568.4213L13977.3146,-3568.4241L13977.3091,-3568.4252L13977.3017,-3568.4266L13977.2764,-3568.4315L13977.2759,-3568.4316L13977.2755,-3568.4317L13977.2718,-3568.4324L13977.2711,-3568.4325L13977.2704,-3568.4327L13977.2637,-3568.434L13977.2627,-3568.4342L13977.2613,-3568.4344L13977.2585,-3568.435L13977.245,-3568.4376L13977.2186,-3568.4433"/>
<path content="1,岩手県交通（株）,遠野・釜石号,1.0,1.0,1.0," xlink:title="1" d="M13977.356,-3568.4161L13977.3552,-3568.4162L13977.3364,-3568.4199L13977.3291,-3568.4213L13977.3146,-3568.4241L13977.3091,-3568.4252L13977.3017,-3568.4266L13977.2764,-3568.4315L13977.2759,-3568.4316L13977.2755,-3568.4317L13977.2718,-3568.4324L13977.2711,-3568.4325L13977.2704,-3568.4327L13977.2637,-3568.434L13977.2627,-3568.4342L13977.2613,-3568.4344L13977.2585,-3568.435L13977.245,-3568.4376L13977.2186,-3568.4433"/>
<path content="1,岩手県北自動車（株）,BEAM-1　宮古・盛岡南⇔浜松町・品川,1.0,1.0,1.0," xlink:title="1" d="M13977.356,-3568.4161L13977.3552,-3568.4162L13977.3364,-3568.4199L13977.3291,-3568.4213L13977.3146,-3568.4241L13977.3091,-3568.4252L13977.3017,-3568.4266L13977.2764,-3568.4315L13977.2759,-3568.4316L13977.2755,-3568.4317L13977.2718,-3568.4324L13977.2711,-3568.4325L13977.2704,-3568.4327L13977.2637,-3568.434L13977.2627,-3568.4342L13977.2613,-3568.4344L13977.2585,-3568.435L13977.245,-3568.4376L13977.2186,-3568.4433"/>
<path content="1,川越観光自動車,高速バス成田線,4.0,4.0,4.0," xlink:title="1" d="M13977.356,-3568.4161L13977.3552,-3568.4162L13977.3364,-3568.4199L13977.3291,-3568.4213L13977.3146,-3568.4241L13977.3091,-3568.4252L13977.3017,-3568.4266L13977.2764,-3568.4315L13977.2759,-3568.4316L13977.2755,-3568.4317L13977.2718,-3568.4324L13977.2711,-3568.4325L13977.2704,-3568.4327L13977.2637,-3568.434L13977.2627,-3568.4342L13977.2613,-3568.4344L13977.2585,-3568.435L13977.245,-3568.4376L13977.2186,-3568.4433"/>
<path content="1,弘南バス（株）,ノクターン号,1.0,1.0,1.0," xlink:title="1" d="M13977.2186,-3568.4433L13977.245,-3568.4376L13977.2585,-3568.435L13977.2613,-3568.4344L13977.2627,-3568.4342L13977.2637,-3568.434L13977.2704,-3568.4327L13977.2711,-3568.4325L13977.2718,-3568.4324L13977.2755,-3568.4317L13977.2759,-3568.4316L13977.2764,-3568.4315L13977.3017,-3568.4266L13977.3091,-3568.4252L13977.3146,-3568.4241L13977.3291,-3568.4213L13977.3364,-3568.4199L13977.3552,-3568.4162L13977.356,-3568.4161"/>
<path content="1,成田空港交通,有楽町千葉ニュータウン線,1.0,0.0,0.0," xlink:title="1" d="M13977.2186,-3568.4433L13977.245,-3568.4376L13977.2585,-3568.435L13977.2613,-3568.4344L13977.2627,-3568.4342L13977.2637,-3568.434L13977.2704,-3568.4327L13977.2711,-3568.4325L13977.2718,-3568.4324L13977.2755,-3568.4317L13977.2759,-3568.4316L13977.2764,-3568.4315L13977.3017,-3568.4266L13977.3091,-3568.4252L13977.3146,-3568.4241L13977.3291,-3568.4213L13977.3364,-3568.4199L13977.3552,-3568.4162L13977.356,-3568.4161"/>
<path content="1,新常磐交通（株）,シーガル号,1.0,1.0,1.0," xlink:title="1" d="M13977.2186,-3568.4433L13977.245,-3568.4376L13977.2585,-3568.435L13977.2613,-3568.4344L13977.2627,-3568.4342L13977.2637,-3568.434L13977.2704,-3568.4327L13977.2711,-3568.4325L13977.2718,-3568.4324L13977.2755,-3568.4317L13977.2759,-3568.4316L13977.2764,-3568.4315L13977.3017,-3568.4266L13977.3091,-3568.4252L13977.3146,-3568.4241L13977.3291,-3568.4213L13977.3364,-3568.4199L13977.3552,-3568.4162L13977.356,-3568.4161"/>
<path content="1,東京空港交通（株）,八王子エリア～成田空港線,3.5,3.5,3.5," xlink:title="1" d="M13977.2186,-3568.4433L13977.245,-3568.4376L13977.2585,-3568.435L13977.2613,-3568.4344L13977.2627,-3568.4342L13977.2637,-3568.434L13977.2704,-3568.4327L13977.2711,-3568.4325L13977.2718,-3568.4324L13977.2755,-3568.4317L13977.2759,-3568.4316L13977.2764,-3568.4315L13977.3017,-3568.4266L13977.3091,-3568.4252L13977.3146,-3568.4241L13977.3291,-3568.4213L13977.3364,-3568.4199L13977.3552,-3568.4162L13977.356,-3568.4161"/>
<path content="1,東京空港交通（株）,恵比寿・品川エリア～成田空港線,41.0,41.0,41.0," xlink:title="1" d="M13977.2186,-3568.4433L13977.245,-3568.4376L13977.2585,-3568.435L13977.2613,-3568.4344L13977.2627,-3568.4342L13977.2637,-3568.434L13977.2704,-3568.4327L13977.2711,-3568.4325L13977.2718,-3568.4324L13977.2755,-3568.4317L13977.2759,-3568.4316L13977.2764,-3568.4315L13977.3017,-3568.4266L13977.3091,-3568.4252L13977.3146,-3568.4241L13977.3291,-3568.4213L13977.3364,-3568.4199L13977.3552,-3568.4162L13977.356,-3568.4161"/>
<path content="1,東京空港交通（株）,日比谷エリア～成田空港線,14.5,14.5,14.5," xlink:title="1" d="M13977.2186,-3568.4433L13977.245,-3568.4376L13977.2585,-3568.435L13977.2613,-3568.4344L13977.2627,-3568.4342L13977.2637,-3568.434L13977.2704,-3568.4327L13977.2711,-3568.4325L13977.2718,-3568.4324L13977.2755,-3568.4317L13977.2759,-3568.4316L13977.2764,-3568.4315L13977.3017,-3568.4266L13977.3091,-3568.4252L13977.3146,-3568.4241L13977.3291,-3568.4213L13977.3364,-3568.4199L13977.3552,-3568.4162L13977.356,-3568.4161"/>
<path content="1,東京空港交通（株）,池袋エリア～成田空港線,15.0,15.0,15.0," xlink:title="1" d="M13977.2186,-3568.4433L13977.245,-3568.4376L13977.2585,-3568.435L13977.2613,-3568.4344L13977.2627,-3568.4342L13977.2637,-3568.434L13977.2704,-3568.4327L13977.2711,-3568.4325L13977.2718,-3568.4324L13977.2755,-3568.4317L13977.2759,-3568.4316L13977.2764,-3568.4315L13977.3017,-3568.4266L13977.3091,-3568.4252L13977.3146,-3568.4241L13977.3291,-3568.4213L13977.3364,-3568.4199L13977.3552,-3568.4162L13977.356,-3568.4161"/>
<path content="1,東京空港交通（株）,池袋エリア～羽田空港線,18.0,18.0,18.0," xlink:title="1" d="M13977.356,-3568.4161L13977.3552,-3568.4162L13977.3364,-3568.4199L13977.3291,-3568.4213L13977.3146,-3568.4241L13977.3091,-3568.4252L13977.3017,-3568.4266L13977.2764,-3568.4315L13977.2759,-3568.4316L13977.2755,-3568.4317L13977.2718,-3568.4324L13977.2711,-3568.4325L13977.2704,-3568.4327L13977.2637,-3568.434L13977.2627,-3568.4342L13977.2613,-3568.4344L13977.2585,-3568.435L13977.245,-3568.4376L13977.2186,-3568.4433"/>
<path content="1,東京空港交通（株）,目白・九段・後楽園エリア～成田空港線,8.5,8.5,8.5," xlink:title="1" d="M13977.2186,-3568.4433L13977.245,-3568.4376L13977.2585,-3568.435L13977.2613,-3568.4344L13977.2627,-3568.4342L13977.2637,-3568.434L13977.2704,-3568.4327L13977.2711,-3568.4325L13977.2718,-3568.4324L13977.2755,-3568.4317L13977.2759,-3568.4316L13977.2764,-3568.4315L13977.3017,-3568.4266L13977.3091,-3568.4252L13977.3146,-3568.4241L13977.3291,-3568.4213L13977.3364,-3568.4199L13977.3552,-3568.4162L13977.356,-3568.4161"/>
<path content="1,東京空港交通（株）,立川エリア～成田空港線,3.0,3.0,3.0," xlink:title="1" d="M13977.2186,-3568.4433L13977.245,-3568.4376L13977.2585,-3568.435L13977.2613,-3568.4344L13977.2627,-3568.4342L13977.2637,-3568.434L13977.2704,-3568.4327L13977.2711,-3568.4325L13977.2718,-3568.4324L13977.2755,-3568.4317L13977.2759,-3568.4316L13977.2764,-3568.4315L13977.3017,-3568.4266L13977.3091,-3568.4252L13977.3146,-3568.4241L13977.3291,-3568.4213L13977.3364,-3568.4199L13977.3552,-3568.4162L13977.356,-3568.4161"/>
<path content="1,東北急行バス（株）,ままかりライナー,1.0,1.0,1.0," xlink:title="1" d="M13977.2186,-3568.4433L13977.245,-3568.4376L13977.2585,-3568.435L13977.2613,-3568.4344L13977.2627,-3568.4342L13977.2637,-3568.434L13977.2704,-3568.4327L13977.2711,-3568.4325L13977.2718,-3568.4324L13977.2755,-3568.4317L13977.2759,-3568.4316L13977.2764,-3568.4315L13977.3017,-3568.4266L13977.3091,-3568.4252L13977.3146,-3568.4241L13977.3291,-3568.4213L13977.3364,-3568.4199L13977.3552,-3568.4162L13977.356,-3568.4161"/>
<path content="1,東北急行バス（株）,フライングスニーカー京都・茨木号,1.0,1.0,1.0," xlink:title="1" d="M13977.2186,-3568.4433L13977.245,-3568.4376L13977.2585,-3568.435L13977.2613,-3568.4344L13977.2627,-3568.4342L13977.2637,-3568.434L13977.2704,-3568.4327L13977.2711,-3568.4325L13977.2718,-3568.4324L13977.2755,-3568.4317L13977.2759,-3568.4316L13977.2764,-3568.4315L13977.3017,-3568.4266L13977.3091,-3568.4252L13977.3146,-3568.4241L13977.3291,-3568.4213L13977.3364,-3568.4199L13977.3552,-3568.4162L13977.356,-3568.4161"/>
<path content="1,東北急行バス（株）,フライングスニーカー大坂号,1.0,1.0,1.0," xlink:title="1" d="M13977.356,-3568.4161L13977.3552,-3568.4162L13977.3364,-3568.4199L13977.3291,-3568.4213L13977.3146,-3568.4241L13977.3091,-3568.4252L13977.3017,-3568.4266L13977.2764,-3568.4315L13977.2759,-3568.4316L13977.2755,-3568.4317L13977.2718,-3568.4324L13977.2711,-3568.4325L13977.2704,-3568.4327L13977.2637,-3568.434L13977.2627,-3568.4342L13977.2613,-3568.4344L13977.2585,-3568.435L13977.245,-3568.4376L13977.2186,-3568.4433"/>
<path content="1,東武バスイースト,ミッドナイトアロー柏・我孫子,0.5,0.0,0.0," xlink:title="1" d="M13977.356,-3568.4161L13977.3552,-3568.4162L13977.3364,-3568.4199L13977.3291,-3568.4213L13977.3146,-3568.4241L13977.3091,-3568.4252L13977.3017,-3568.4266L13977.2764,-3568.4315L13977.2759,-3568.4316L13977.2755,-3568.4317L13977.2718,-3568.4324L13977.2711,-3568.4325L13977.2704,-3568.4327L13977.2637,-3568.434L13977.2627,-3568.4342L13977.2613,-3568.4344L13977.2585,-3568.435L13977.245,-3568.4376L13977.2186,-3568.4433"/>
<path content="1,東武バスウエスト,ONライナー,4.0,4.0,4.0," xlink:title="1" d="M13977.356,-3568.4161L13977.3552,-3568.4162L13977.3364,-3568.4199L13977.3291,-3568.4213L13977.3146,-3568.4241L13977.3091,-3568.4252L13977.3017,-3568.4266L13977.2764,-3568.4315L13977.2759,-3568.4316L13977.2755,-3568.4317L13977.2718,-3568.4324L13977.2711,-3568.4325L13977.2704,-3568.4327L13977.2637,-3568.434L13977.2627,-3568.4342L13977.2613,-3568.4344L13977.2585,-3568.435L13977.245,-3568.4376L13977.2186,-3568.4433"/>
<path content="1,東武バスウエスト,ふじみ野駅・ふじみ野駅・新座車庫・志木駅・朝霞台駅～成田空港,3.0,3.0,3.0," xlink:title="1" d="M13977.356,-3568.4161L13977.3552,-3568.4162L13977.3364,-3568.4199L13977.3291,-3568.4213L13977.3146,-3568.4241L13977.3091,-3568.4252L13977.3017,-3568.4266L13977.2764,-3568.4315L13977.2759,-3568.4316L13977.2755,-3568.4317L13977.2718,-3568.4324L13977.2711,-3568.4325L13977.2704,-3568.4327L13977.2637,-3568.434L13977.2627,-3568.4342L13977.2613,-3568.4344L13977.2585,-3568.435L13977.245,-3568.4376L13977.2186,-3568.4433"/>
<path content="1,東武バスウエスト,ふじみ野駅・志木駅・朝霞台駅～羽田空港,8.5,8.5,8.5," xlink:title="1" d="M13977.356,-3568.4161L13977.3552,-3568.4162L13977.3364,-3568.4199L13977.3291,-3568.4213L13977.3146,-3568.4241L13977.3091,-3568.4252L13977.3017,-3568.4266L13977.2764,-3568.4315L13977.2759,-3568.4316L13977.2755,-3568.4317L13977.2718,-3568.4324L13977.2711,-3568.4325L13977.2704,-3568.4327L13977.2637,-3568.434L13977.2627,-3568.4342L13977.2613,-3568.4344L13977.2585,-3568.435L13977.245,-3568.4376L13977.2186,-3568.4433"/>
<path content="1,東武バスウエスト,坂戸駅南口・川越駅西口～成田空港,2.0,2.0,2.0," xlink:title="1" d="M13977.356,-3568.4161L13977.3552,-3568.4162L13977.3364,-3568.4199L13977.3291,-3568.4213L13977.3146,-3568.4241L13977.3091,-3568.4252L13977.3017,-3568.4266L13977.2764,-3568.4315L13977.2759,-3568.4316L13977.2755,-3568.4317L13977.2718,-3568.4324L13977.2711,-3568.4325L13977.2704,-3568.4327L13977.2637,-3568.434L13977.2627,-3568.4342L13977.2613,-3568.4344L13977.2585,-3568.435L13977.245,-3568.4376L13977.2186,-3568.4433"/>
<path content="1,東武バスウエスト,東京ディズニーリゾート（東京ディズニーランド・東京ディズニーシー）・新浦安～小江戸　川越,2.0,2.0,2.0," xlink:title="1" d="M13977.356,-3568.4161L13977.3552,-3568.4162L13977.3364,-3568.4199L13977.3291,-3568.4213L13977.3146,-3568.4241L13977.3091,-3568.4252L13977.3017,-3568.4266L13977.2764,-3568.4315L13977.2759,-3568.4316L13977.2755,-3568.4317L13977.2718,-3568.4324L13977.2711,-3568.4325L13977.2704,-3568.4327L13977.2637,-3568.434L13977.2627,-3568.4342L13977.2613,-3568.4344L13977.2585,-3568.435L13977.245,-3568.4376L13977.2186,-3568.4433"/>
<path content="1,福島交通（株）,福島高速バスターミナル～大阪あべの橋,1.0,1.0,1.0," xlink:title="1" d="M13977.2186,-3568.4433L13977.245,-3568.4376L13977.2585,-3568.435L13977.2613,-3568.4344L13977.2627,-3568.4342L13977.2637,-3568.434L13977.2704,-3568.4327L13977.2711,-3568.4325L13977.2718,-3568.4324L13977.2755,-3568.4317L13977.2759,-3568.4316L13977.2764,-3568.4315L13977.3017,-3568.4266L13977.3091,-3568.4252L13977.3146,-3568.4241L13977.3291,-3568.4213L13977.3364,-3568.4199L13977.3552,-3568.4162L13977.356,-3568.4161"/>
<path content="1,西東京バス（株）,002,2.0,2.0,2.0," xlink:title="1" d="M13977.2186,-3568.4433L13977.245,-3568.4376L13977.2585,-3568.435L13977.2613,-3568.4344L13977.2627,-3568.4342L13977.2637,-3568.434L13977.2704,-3568.4327L13977.2711,-3568.4325L13977.2718,-3568.4324L13977.2755,-3568.4317L13977.2759,-3568.4316L13977.2764,-3568.4315L13977.3017,-3568.4266L13977.3091,-3568.4252L13977.3146,-3568.4241L13977.3291,-3568.4213L13977.3364,-3568.4199L13977.3552,-3568.4162L13977.356,-3568.4161"/>
<path content="1,西武バス（株）,大宮成田線,2.0,2.0,2.0," xlink:title="1" d="M13977.356,-3568.4161L13977.3552,-3568.4162L13977.3364,-3568.4199L13977.3291,-3568.4213L13977.3146,-3568.4241L13977.3091,-3568.4252L13977.3017,-3568.4266L13977.2764,-3568.4315L13977.2759,-3568.4316L13977.2755,-3568.4317L13977.2718,-3568.4324L13977.2711,-3568.4325L13977.2704,-3568.4327L13977.2637,-3568.434L13977.2627,-3568.4342L13977.2613,-3568.4344L13977.2585,-3568.435L13977.245,-3568.4376L13977.2186,-3568.4433"/>
<path content="1,西武バス（株）,大宮羽田線,5.0,5.0,5.0," xlink:title="1" d="M13977.356,-3568.4161L13977.3552,-3568.4162L13977.3364,-3568.4199L13977.3291,-3568.4213L13977.3146,-3568.4241L13977.3091,-3568.4252L13977.3017,-3568.4266L13977.2764,-3568.4315L13977.2759,-3568.4316L13977.2755,-3568.4317L13977.2718,-3568.4324L13977.2711,-3568.4325L13977.2704,-3568.4327L13977.2637,-3568.434L13977.2627,-3568.4342L13977.2613,-3568.4344L13977.2585,-3568.435L13977.245,-3568.4376L13977.2186,-3568.4433"/>
<path content="1,西武バス（株）,大泉学園成田線,3.0,3.0,3.0," xlink:title="1" d="M13977.2186,-3568.4433L13977.245,-3568.4376L13977.2585,-3568.435L13977.2613,-3568.4344L13977.2627,-3568.4342L13977.2637,-3568.434L13977.2704,-3568.4327L13977.2711,-3568.4325L13977.2718,-3568.4324L13977.2755,-3568.4317L13977.2759,-3568.4316L13977.2764,-3568.4315L13977.3017,-3568.4266L13977.3091,-3568.4252L13977.3146,-3568.4241L13977.3291,-3568.4213L13977.3364,-3568.4199L13977.3552,-3568.4162L13977.356,-3568.4161"/>
<path content="1,西武バス（株）,大泉学園羽田線,5.5,5.5,5.5," xlink:title="1" d="M13977.356,-3568.4161L13977.3552,-3568.4162L13977.3364,-3568.4199L13977.3291,-3568.4213L13977.3146,-3568.4241L13977.3091,-3568.4252L13977.3017,-3568.4266L13977.2764,-3568.4315L13977.2759,-3568.4316L13977.2755,-3568.4317L13977.2718,-3568.4324L13977.2711,-3568.4325L13977.2704,-3568.4327L13977.2637,-3568.434L13977.2627,-3568.4342L13977.2613,-3568.4344L13977.2585,-3568.435L13977.245,-3568.4376L13977.2186,-3568.4433"/>
<path content="1,西武バス（株）,川越羽田線,2.0,2.0,2.0," xlink:title="1" d="M13977.2186,-3568.4433L13977.245,-3568.4376L13977.2585,-3568.435L13977.2613,-3568.4344L13977.2627,-3568.4342L13977.2637,-3568.434L13977.2704,-3568.4327L13977.2711,-3568.4325L13977.2718,-3568.4324L13977.2755,-3568.4317L13977.2759,-3568.4316L13977.2764,-3568.4315L13977.3017,-3568.4266L13977.3091,-3568.4252L13977.3146,-3568.4241L13977.3291,-3568.4213L13977.3364,-3568.4199L13977.3552,-3568.4162L13977.356,-3568.4161"/>
<path content="1,西武バス（株）,所沢成田線,4.0,4.0,4.0," xlink:title="1" d="M13977.2186,-3568.4433L13977.245,-3568.4376L13977.2585,-3568.435L13977.2613,-3568.4344L13977.2627,-3568.4342L13977.2637,-3568.434L13977.2704,-3568.4327L13977.2711,-3568.4325L13977.2718,-3568.4324L13977.2755,-3568.4317L13977.2759,-3568.4316L13977.2764,-3568.4315L13977.3017,-3568.4266L13977.3091,-3568.4252L13977.3146,-3568.4241L13977.3291,-3568.4213L13977.3364,-3568.4199L13977.3552,-3568.4162L13977.356,-3568.4161"/>
<path content="1,西武バス（株）,所沢羽田線,10.5,10.5,10.5," xlink:title="1" d="M13977.356,-3568.4161L13977.3552,-3568.4162L13977.3364,-3568.4199L13977.3291,-3568.4213L13977.3146,-3568.4241L13977.3091,-3568.4252L13977.3017,-3568.4266L13977.2764,-3568.4315L13977.2759,-3568.4316L13977.2755,-3568.4317L13977.2718,-3568.4324L13977.2711,-3568.4325L13977.2704,-3568.4327L13977.2637,-3568.434L13977.2627,-3568.4342L13977.2613,-3568.4344L13977.2585,-3568.435L13977.245,-3568.4376L13977.2186,-3568.4433"/>
<path content="1,西武観光バス,びわこドリーム号,1.0,1.0,1.0," xlink:title="1" d="M13977.356,-3568.4161L13977.3552,-3568.4162L13977.3364,-3568.4199L13977.3291,-3568.4213L13977.3146,-3568.4241L13977.3091,-3568.4252L13977.3017,-3568.4266L13977.2764,-3568.4315L13977.2759,-3568.4316L13977.2755,-3568.4317L13977.2718,-3568.4324L13977.2711,-3568.4325L13977.2704,-3568.4327L13977.2637,-3568.434L13977.2627,-3568.4342L13977.2613,-3568.4344L13977.2585,-3568.435L13977.245,-3568.4376L13977.2186,-3568.4433"/>
<path content="1,西武観光バス,大宮・池袋・横浜～南紀勝浦線,1.0,1.0,1.0," xlink:title="1" d="M13977.356,-3568.4161L13977.3552,-3568.4162L13977.3364,-3568.4199L13977.3291,-3568.4213L13977.3146,-3568.4241L13977.3091,-3568.4252L13977.3017,-3568.4266L13977.2764,-3568.4315L13977.2759,-3568.4316L13977.2755,-3568.4317L13977.2718,-3568.4324L13977.2711,-3568.4325L13977.2704,-3568.4327L13977.2637,-3568.434L13977.2627,-3568.4342L13977.2613,-3568.4344L13977.2585,-3568.435L13977.245,-3568.4376L13977.2186,-3568.4433"/>
<path content="1,西武観光バス,宇和島線,1.0,1.0,1.0," xlink:title="1" d="M13977.356,-3568.4161L13977.3552,-3568.4162L13977.3364,-3568.4199L13977.3291,-3568.4213L13977.3146,-3568.4241L13977.3091,-3568.4252L13977.3017,-3568.4266L13977.2764,-3568.4315L13977.2759,-3568.4316L13977.2755,-3568.4317L13977.2718,-3568.4324L13977.2711,-3568.4325L13977.2704,-3568.4327L13977.2637,-3568.434L13977.2627,-3568.4342L13977.2613,-3568.4344L13977.2585,-3568.435L13977.245,-3568.4376L13977.2186,-3568.4433"/>
<path content="1,近鉄バス（株）,大阪・京都⇔つくば・水戸,1.0,1.0,1.0," xlink:title="1" d="M13977.2186,-3568.4433L13977.245,-3568.4376L13977.356,-3568.4161"/>
<path content="1,近鉄バス（株）,大阪・京都⇔日立・いわき,1.0,1.0,1.0," xlink:title="1" d="M13977.2186,-3568.4433L13977.245,-3568.4376L13977.356,-3568.4161"/>
<path content="1,関東バス（株）,吉祥寺・成田空港,12.0,12.0,12.0," xlink:title="1" d="M13977.2186,-3568.4433L13977.245,-3568.4376L13977.2585,-3568.435L13977.2613,-3568.4344L13977.2627,-3568.4342L13977.2637,-3568.434L13977.2704,-3568.4327L13977.2711,-3568.4325L13977.2718,-3568.4324L13977.2755,-3568.4317L13977.2759,-3568.4316L13977.2764,-3568.4315L13977.3017,-3568.4266L13977.3091,-3568.4252L13977.3146,-3568.4241L13977.3291,-3568.4213L13977.3364,-3568.4199L13977.3552,-3568.4162L13977.356,-3568.4161"/>
<path content="1,関東鉄道（株）,カシマサッカースタジアム～鹿島神宮駅～鹿島セントラルホテル～東京駅線,29.0,29.0,29.0," xlink:title="1" d="M13977.2186,-3568.4433L13977.245,-3568.4376L13977.2585,-3568.435L13977.2613,-3568.4344L13977.2627,-3568.4342L13977.2637,-3568.434L13977.2704,-3568.4327L13977.2711,-3568.4325L13977.2718,-3568.4324L13977.2755,-3568.4317L13977.2759,-3568.4316L13977.2764,-3568.4315L13977.3017,-3568.4266L13977.3091,-3568.4252L13977.3146,-3568.4241L13977.3291,-3568.4213L13977.3364,-3568.4199L13977.3552,-3568.4162L13977.356,-3568.4161"/>
<path content="1,関東鉄道（株）,波崎～東京駅,4.0,4.0,4.0," xlink:title="1" d="M13977.2186,-3568.4433L13977.245,-3568.4376L13977.2585,-3568.435L13977.2613,-3568.4344L13977.2627,-3568.4342L13977.2637,-3568.434L13977.2704,-3568.4327L13977.2711,-3568.4325L13977.2718,-3568.4324L13977.2755,-3568.4317L13977.2759,-3568.4316L13977.2764,-3568.4315L13977.3017,-3568.4266L13977.3091,-3568.4252L13977.3146,-3568.4241L13977.3291,-3568.4213L13977.3364,-3568.4199L13977.3552,-3568.4162L13977.356,-3568.4161"/>
<path content="1,関越交通（株）,四万温泉号,1.4,1.4,1.4," xlink:title="1" d="M13977.356,-3568.4161L13977.3552,-3568.4162L13977.3364,-3568.4199L13977.3291,-3568.4213L13977.3146,-3568.4241L13977.3091,-3568.4252L13977.3017,-3568.4266L13977.2764,-3568.4315L13977.2759,-3568.4316L13977.2755,-3568.4317L13977.2718,-3568.4324L13977.2711,-3568.4325L13977.2704,-3568.4327L13977.2637,-3568.434L13977.2627,-3568.4342L13977.2613,-3568.4344L13977.2585,-3568.435L13977.245,-3568.4376L13977.2186,-3568.4433"/>
<path content="1,関鉄グリーンバス（株）,800-1,6.0,6.0,6.0," xlink:title="1" d="M13977.2186,-3568.4433L13977.245,-3568.4376L13977.2585,-3568.435L13977.2613,-3568.4344L13977.2627,-3568.4342L13977.2637,-3568.434L13977.2704,-3568.4327L13977.2711,-3568.4325L13977.2718,-3568.4324L13977.2755,-3568.4317L13977.2759,-3568.4316L13977.2764,-3568.4315L13977.3017,-3568.4266L13977.3091,-3568.4252L13977.3146,-3568.4241L13977.3291,-3568.4213L13977.3364,-3568.4199L13977.3552,-3568.4162L13977.356,-3568.4161"/>
<path content="1,（株）シティバス立川,立川駅～成田空港線,3.0,3.0,3.0," xlink:title="1" d="M13977.2186,-3568.4433L13977.245,-3568.4376L13977.2585,-3568.435L13977.2613,-3568.4344L13977.2627,-3568.4342L13977.2637,-3568.434L13977.2704,-3568.4327L13977.2711,-3568.4325L13977.2718,-3568.4324L13977.2755,-3568.4317L13977.2759,-3568.4316L13977.2764,-3568.4315L13977.3017,-3568.4266L13977.3091,-3568.4252L13977.3146,-3568.4241L13977.3291,-3568.4213L13977.3364,-3568.4199L13977.3552,-3568.4162L13977.356,-3568.4161"/>
<path content="3,中央区,北循環,36.0,36.0,33.0," xlink:title="3" d="M13977.2689,-3568.3594L13977.2806,-3568.378L13977.2821,-3568.3805L13977.2986,-3568.4103L13977.3017,-3568.4266L13977.3027,-3568.4318L13977.3069,-3568.4537L13977.2989,-3568.4948L13977.2984,-3568.4967"/>
</g>
</svg>
