<?xml version="1.0" encoding="UTF-8"?>
<svg  xmlns="http://www.w3.org/2000/svg" xmlns:xlink="http://www.w3.org/1999/xlink" xmlns:go="http://purl.org/svgmap/profile" property="N07_001,N07_002,N07_003,N07_004,N07_005,N07_006,N07_007" viewBox="14062.5 -4148.4375 35.15625 35.15625" go:dataArea="14062.5 -4148.4375 35.15625 35.15625" >
<metadata>
 <rdf:RDF xmlns:rdf="http://www.w3.org/1999/02/22-rdf-syntax-ns#" xmlns:crs="http://opengis.org/xmldtds/transformations.dtd" xmlns:svg="http://www.w3.org/svg" >
  <rdf:Description>
   <crs:CoordinateReferenceSystem rdf:resource="http://purl.org/crs/84" svg:transform="matrix(100.0,0.0,0.0,-100.0,0.0,0.0)" />
  </rdf:Description>
 </rdf:RDF>
</metadata>
<globalCoordinateSystem srsName="http://purl.org/crs/84" transform="matrix(100.0,0.0,0.0,-100.0,0.0,0.0)" />
<defs>
 <g id="p0" >
  <circle cx="0.0" cy="0.0" r="3" stroke="green" stroke-width="0.75" vector-effect="non-scaling-stroke" />
 </g>
</defs>
<g fill="none" fill-rule="evenodd" stroke="#FF00FF" stroke-width="0.75" opacity="0.5" vector-effect="non-scaling-stroke" stroke-linejoin="bevel" >
<path content="1,JRバス東北（株）,田名部ー脇野沢,4.0,3.0,3.0," xlink:title="1" d="M14097.6562,-4119.7726L14097.656,-4119.7721L14097.6545,-4119.7653L14097.6509,-4119.7575L14097.6396,-4119.7422L14097.63,-4119.7361L14097.5385,-4119.7068L14097.5221,-4119.6975L14097.5205,-4119.6978L14097.5085,-4119.6854L14097.4772,-4119.6567L14097.4541,-4119.6426L14097.4451,-4119.6403L14097.4295,-4119.6342L14097.3633,-4119.6268L14097.3565,-4119.6252L14097.2888,-4119.6167L14097.2619,-4119.6088L14097.2277,-4119.5959L14097.1982,-4119.584L14097.1412,-4119.5548L14097.131,-4119.5497L14097.0347,-4119.5012L14096.9267,-4119.4473L14096.9036,-4119.436L14096.8503,-4119.4095L14096.8424,-4119.4056L14096.8193,-4119.3937L14096.7803,-4119.3678L14096.7441,-4119.3437L14096.7061,-4119.3166L14096.6331,-4119.2704L14096.5473,-4119.2209L14096.5065,-4119.1978L14096.4416,-4119.1634L14096.432,-4119.1589L14096.397,-4119.1409L14096.3887,-4119.1348L14096.3668,-4119.1097L14096.3641,-4119.1072L14096.3022,-4119.0372L14096.2933,-4119.0272L14096.2843,-4119.0204L14096.2747,-4119.0159L14096.2367,-4119.0047L14096.2277,-4119.0035L14096.2083,-4118.999L14096.1972,-4118.9951L14096.1766,-4118.9834L14096.1553,-4118.9718L14096.1311,-4118.9594L14096.1033,-4118.9452L14096.0937,-4118.9403L14096.0532,-4118.9243L14096.0251,-4118.9124L14095.9789,-4118.8836L14095.8918,-4118.8268L14095.8888,-4118.8256L14095.8157,-4118.7772L14095.8001,-4118.7626L14095.6689,-4118.6167L14095.6593,-4118.605L14095.6444,-4118.5785L14095.6425,-4118.5718L14095.6391,-4118.5599L14095.6384,-4118.5436L14095.6526,-4118.4106L14095.6526,-4118.3853L14095.6481,-4118.3696L14095.6303,-4118.3319L14095.6205,-4118.3178L14095.5923,-4118.2846L14095.4864,-4118.1917L14095.3837,-4118.1005L14095.3299,-4118.0583L14095.3136,-4118.0481L14095.1922,-4117.9614L14095.1751,-4117.9456L14095.1698,-4117.9372L14095.1467,-4117.8809L14095.1281,-4117.8375L14095.1199,-4117.8229L14095.1102,-4117.8116L14095.0848,-4117.7897L14095.0543,-4117.7711L14095.0064,-4117.7452L14094.9939,-4117.7384L14094.9612,-4117.7215L14094.9306,-4117.7164L14094.8286,-4117.7058L14094.8166,-4117.7052L14094.8114,-4117.7041L14094.6975,-4117.6939L14094.5871,-4117.6827L14094.3971,-4117.6653L14094.345,-4117.6596L14094.2043,-4117.6365L14094.1148,-4117.6214L14094.0053,-4117.6033L14093.9971,-4117.6028L14093.9639,-4117.6041L14093.8958,-4117.6185L14093.8846,-4117.6224L14093.8533,-4117.6292L14093.8279,-4117.6331L14093.8063,-4117.6337L14093.7877,-4117.6326L14093.7296,-4117.6281L14093.7051,-4117.6253L14093.6,-4117.6163L14093.5171,-4117.6093L14093.4666,-4117.605L14093.4249,-4117.6005L14093.3765,-4117.5965L14093.3682,-4117.5949L14093.3391,-4117.592L14093.2603,-4117.5865L14093.2516,-4117.5838L14093.2454,-4117.5802L14093.2416,-4117.5769L14093.0904,-4117.4625L14093.08,-4117.4546L14093.0255,-4117.413L14093.0136,-4117.4012L14093.004,-4117.3894L14092.9988,-4117.3747L14092.9943,-4117.3691L14092.9809,-4117.3612L14092.9749,-4117.36L14092.948,-4117.3612L14092.9339,-4117.3657L14092.8952,-4117.3831L14092.8743,-4117.3921L14092.7581,-4117.4439L14092.7157,-4117.458L14092.6709,-4117.4724L14092.6054,-4117.4935L14092.5643,-4117.5058L14092.4913,-4117.5295L14092.4608,-4117.5391L14092.4467,-4117.5425L14092.4266,-4117.5487L14092.3796,-4117.5583L14092.3201,-4117.5683L14092.2761,-4117.574L14092.2567,-4117.5757L14092.2074,-4117.5802L14092.139,-4117.5847L14092.1219,-4117.5858L14092.0295,-4117.5926L14091.9631,-4117.5965L14091.8886,-4117.6016L14091.8647,-4117.6089L14091.8521,-4117.6117L14091.8372,-4117.6134L14091.6561,-4117.6179L14091.6294,-4117.6145L14091.6271,-4117.6134L14091.6136,-4117.6117L14091.5295,-4117.5948L14091.4893,-4117.5852L14091.3149,-4117.5498L14091.2099,-4117.5284L14091.1793,-4117.5182L14091.1694,-4117.5142L14090.9774,-4117.4361L14090.9476,-4117.4242L14090.9214,-4117.4124L14090.9103,-4117.4073L14090.8866,-4117.3944L14090.8343,-4117.3606L14090.8149,-4117.3465L14090.8121,-4117.3454L14090.7912,-4117.3307L14090.6861,-4117.2603L14090.6831,-4117.2592L14090.675,-4117.2531L14090.6242,-4117.2187L14090.5885,-4117.1849L14090.5758,-4117.172L14090.5132,-4117.11L14090.4976,-4117.0959L14090.485,-4117.0796L14090.4745,-4117.0611L14090.4664,-4117.0419L14090.4626,-4117.025L14090.4604,-4117.0031L14090.4559,-4116.9862L14090.4514,-4116.9778L14090.4365,-4116.9592L14090.3985,-4116.9304L14090.3593,-4116.8954L14090.3434,-4116.8798L14090.3338,-4116.8714L14090.3173,-4116.8601L14090.3009,-4116.8544L14090.2301,-4116.8381L14090.207,-4116.833L14090.095,-4116.8056L14090.0818,-4116.8243L14090.0141,-4116.8066L14089.9903,-4116.7998L14089.9642,-4116.7929L14089.8583,-4116.7649L14089.7816,-4116.7441L14089.6743,-4116.7159L14089.6557,-4116.7069L14089.6416,-4116.698L14089.6199,-4116.6822L14089.6008,-4116.668L14089.5913,-4116.6617L14089.5844,-4116.6574L14089.5646,-4116.6475L14089.5462,-4116.6394L14089.4478,-4116.5949L14089.4217,-4116.5819L14089.4061,-4116.5701L14089.3689,-4116.5256L14089.3532,-4116.5076L14089.3286,-4116.489L14089.2921,-4116.4733L14089.2616,-4116.4648L14089.2475,-4116.4631L14089.2229,-4116.4637L14089.2005,-4116.4676L14089.1804,-4116.4693L14089.1454,-4116.4688L14089.0895,-4116.4688L14088.9486,-4116.4778L14088.8376,-4116.4839L14088.8131,-4116.4873L14088.7549,-4116.5098L14088.74,-4116.5166L14088.6841,-4116.5397L14088.6469,-4116.552L14088.6267,-4116.5571L14088.5947,-4116.5616L14088.5838,-4116.5626L14088.5256,-4116.5681L14088.4465,-4116.5756L14088.3824,-4116.5819L14088.3533,-4116.5846L14088.3094,-4116.5891L14088.3023,-4116.5901L14088.2662,-4116.5948L14088.2498,-4116.5999L14088.2289,-4116.605L14088.179,-4116.623L14088.1579,-4116.6319L14088.1552,-4116.6331L14088.1209,-4116.6489L14088.0829,-4116.6635L14088.0568,-4116.6691L14087.9257,-4116.686L14087.8818,-4116.6916L14087.8192,-4116.6995L14087.7402,-4116.7085L14087.6977,-4116.713L14087.6552,-4116.7124L14087.6463,-4116.7114L14087.6061,-4116.7091L14087.5688,-4116.7046L14087.4746,-4116.6928L14087.4235,-4116.6849L14087.4061,-4116.6822L14087.3942,-4116.6794L14087.3872,-4116.6779L14087.3701,-4116.6754L14087.3431,-4116.6646L14087.3036,-4116.646L14087.285,-4116.6393L14087.2521,-4116.6319L14087.2276,-4116.6297L14087.1449,-4116.6257L14087.098,-4116.6263L14087.0585,-4116.6258L14087.0414,-4116.6229L14087.034,-4116.6211L14087.0273,-4116.6195L14087.0146,-4116.6139L14086.9871,-4116.597L14086.9804,-4116.5819L14086.9723,-4116.5774L14086.967,-4116.5762L14086.9551,-4116.5705L14086.9135,-4116.548L14086.8309,-4116.5019L14086.8026,-4116.4878L14086.7811,-4116.4794L14086.7609,-4116.4737L14086.7334,-4116.4749L14086.6954,-4116.4754L14086.6531,-4116.4698L14086.6262,-4116.463L14086.6017,-4116.4569L14086.5964,-4116.4546L14086.5912,-4116.4524L14086.5712,-4116.4422L14086.5027,-4116.3932L14086.4797,-4116.3791L14086.4469,-4116.3622L14086.3523,-4116.3201L14086.3107,-4116.3003L14086.2572,-4116.2586L14086.243,-4116.2502L14086.1902,-4116.2266L14086.1434,-4116.2108L14086.106,-4116.2003L14086.089,-4116.1956L14086.0487,-4116.1871L14086.0079,-4116.1821L14085.9529,-4116.1787L14085.9074,-4116.177L14085.894,-4116.1759L14085.8635,-4116.1753L14085.8441,-4116.1765L14085.8207,-4116.1765L14085.7274,-4116.1765L14085.702,-4116.1781L14085.673,-4116.1776L14085.6559,-4116.1759L14085.6365,-4116.1753L14085.5957,-4116.172L14085.5318,-4116.1646L14085.5072,-4116.1618L14085.4558,-4116.1522L14085.3941,-4116.1359L14085.3732,-4116.1286L14085.3591,-4116.1224L14085.3367,-4116.1066L14085.3296,-4116.0978L14085.3263,-4116.0937L14085.3024,-4116.0576L14085.2996,-4116.0548L14085.2913,-4116.0425L14085.2772,-4116.0261L14085.2661,-4116.0171L14085.2377,-4116.0002L14085.2183,-4115.9935L14085.1968,-4115.9901L14085.1588,-4115.9878L14085.1417,-4115.9856L14085.0918,-4115.9653L14085.0681,-4115.9546L14085.0257,-4115.931L14085.0071,-4115.922L14084.9572,-4115.9028L14084.9282,-4115.8949L14084.9148,-4115.8921L14084.8708,-4115.8775L14084.8545,-4115.8707L14084.7965,-4115.8274L14084.6536,-4115.7159L14084.6134,-4115.6821L14084.6053,-4115.6692L14084.6008,-4115.6598L14084.5992,-4115.6568L14084.5948,-4115.6348L14084.5934,-4115.5983L14084.5919,-4115.5903L14084.5866,-4115.5808L14084.5732,-4115.5616L14084.5405,-4115.5262L14084.4959,-4115.4856L14084.481,-4115.4755L14084.4683,-4115.4694L14084.4669,-4115.4688L14084.4438,-4115.4619L14084.382,-4115.4541L14084.3448,-4115.4479L14084.3046,-4115.4388L14084.2749,-4115.4383L14084.2636,-4115.4355L14084.257,-4115.4321L14084.2503,-4115.4265L14084.2346,-4115.4006L14084.225,-4115.3893L14084.1996,-4115.3724L14084.1699,-4115.3567L14084.1446,-4115.3415L14084.1304,-4115.3234L14084.1185,-4115.3144L14084.0866,-4115.306L14084.0658,-4115.3015L14084.0374,-4115.2942L14084.0152,-4115.2834L14084.0099,-4115.2604L14084.0069,-4115.2542L14083.9951,-4115.2401L14083.9794,-4115.2317L14083.9676,-4115.2266L14083.9542,-4115.2249L14083.9311,-4115.2193L14083.9073,-4115.2119L14083.8827,-4115.1884L14083.8611,-4115.1692L14083.8373,-4115.1523L14083.8247,-4115.1484L14083.7681,-4115.1354L14083.6884,-4115.1219L14083.6594,-4115.1151L14083.6491,-4115.1112L14083.5992,-4115.083L14083.5879,-4115.0785L14083.5382,-4115.0656L14083.5189,-4115.0605L14083.4891,-4115.0532L14083.4131,-4115.0334L14083.3715,-4115.0205L14083.3551,-4115.016L14083.2992,-4114.9946L14083.2911,-4114.9907L14083.2695,-4114.9823L14083.1959,-4114.9524L14083.1795,-4114.9417L14083.1155,-4114.8849L14083.1014,-4114.8651L14083.088,-4114.837L14083.0783,-4114.8077L14083.0687,-4114.7791L14083.0619,-4114.7773L14083.047,-4114.7706L14083.0113,-4114.7632L14083.0024,-4114.7621L14082.9712,-4114.7548L14082.96,-4114.7497L14082.948,-4114.7424L14082.922,-4114.7227L14082.9124,-4114.7166L14082.8812,-4114.6901L14082.8351,-4114.6529L14082.8313,-4114.6472L14082.7628,-4114.6225L14082.7271,-4114.6096L14082.7056,-4114.6039L14082.6944,-4114.6022L14082.6348,-4114.6028L14082.5961,-4114.6L14082.5426,-4114.5938L14082.4987,-4114.5865L14082.4078,-4114.5718L14082.393,-4114.5606L14082.3521,-4114.5093L14082.3454,-4114.5009L14082.3201,-4114.4677L14082.3179,-4114.4666L14082.3104,-4114.4564L14082.3104,-4114.4536L14082.2934,-4114.4339L14082.265,-4114.3984"/>
<path content="1,下北交通（株）,路線バス　むつ線,18.5,18.0,14.5," xlink:title="1" d="M14085.369,-4142.7649L14085.3602,-4142.7758L14085.4065,-4142.8129L14085.4259,-4142.8309L14085.4416,-4142.8467L14085.4619,-4142.8771L14085.5239,-4142.9486L14085.5561,-4142.9818L14085.577,-4142.9953L14085.592,-4143.0009L14085.6391,-4143.0133L14085.6832,-4143.028L14085.7379,-4143.0443L14085.7632,-4143.0533L14085.7684,-4143.0546L14085.7797,-4143.0572L14085.7886,-4143.0612L14085.862,-4143.1028L14085.8844,-4143.1118L14085.9009,-4143.1164L14085.9256,-4143.1214L14085.9711,-4143.1322L14085.9944,-4143.1394L14086.0272,-4143.1563L14086.0437,-4143.1613L14086.0465,-4143.1623L14086.0839,-4143.1728L14086.1014,-4143.1772L14086.2412,-4143.1986L14086.2309,-4143.2415L14086.2818,-4143.2687L14086.3124,-4143.286L14086.3573,-4143.3114L14086.3727,-4143.3089L14086.4842,-4143.2628L14086.4894,-4143.2617L14086.5051,-4143.2612L14086.5456,-4143.2799L14086.5488,-4143.281L14086.5786,-4143.2977L14086.5846,-4143.3018L14086.5819,-4143.3078L14086.5672,-4143.3258L14086.5261,-4143.3765L14086.5268,-4143.3867L14086.5463,-4143.4368L14086.5505,-4143.4492L14086.5658,-4143.4891L14086.5777,-4143.5184L14086.5874,-4143.5229L14086.6293,-4143.5358L14086.6428,-4143.5476L14086.7489,-4143.6558L14086.7652,-4143.6681L14086.7928,-4143.6829L14086.8471,-4143.7121L14086.8694,-4143.7239L14086.8896,-4143.7346L14086.9331,-4143.7566L14086.9367,-4143.7582L14086.9457,-4143.7684L14086.9532,-4143.7931L14086.9637,-4143.8416L14086.9637,-4143.8421L14086.9652,-4143.8461L14086.9764,-4143.9052L14086.9858,-4143.9457L14087.0116,-4144.0617L14087.0153,-4144.0707L14087.0279,-4144.1107L14087.0715,-4144.1882L14087.0796,-4144.2306L14087.0976,-4144.261L14087.1133,-4144.2875L14087.1439,-4144.3344L14087.1482,-4144.3409L14087.1541,-4144.3498L14087.1656,-4144.3703L14087.1896,-4144.4153L14087.2083,-4144.4513L14087.2419,-4144.5177L14087.2643,-4144.5628L14087.2658,-4144.5639L14087.2714,-4144.5763L14087.3048,-4144.6399L14087.3144,-4144.6585L14087.3159,-4144.6596L14087.3432,-4144.7111L14087.3826,-4144.7807L14087.4167,-4144.8431L14087.4349,-4144.8764L14087.4783,-4144.9541L14087.4909,-4144.9732L14087.5344,-4145.0256L14087.5605,-4145.0605L14087.5713,-4145.0747L14087.5884,-4145.1032L14087.6114,-4145.1275L14087.6196,-4145.1365L14087.654,-4145.1607L14087.672,-4145.1708L14087.6854,-4145.1742L14087.7639,-4145.1843L14087.7909,-4145.1911L14087.8006,-4145.195L14087.8193,-4145.2074L14087.8518,-4145.2355L14087.8799,-4145.2598L14087.9233,-4145.2974L14087.933,-4145.3077L14087.9443,-4145.3218L14087.9576,-4145.3522L14087.9747,-4145.3952L14087.9786,-4145.4L14087.9988,-4145.4355L14088.0093,-4145.4568L14088.0115,-4145.467L14088.0115,-4145.5055L14088.0115,-4145.5621L14088.0143,-4145.616L14088.0145,-4145.6201L14088.016,-4145.6286L14088.0205,-4145.6798L14088.0265,-4145.7181L14088.0333,-4145.7316L14088.0601,-4145.7699L14088.1088,-4145.8307L14088.1679,-4145.8932L14088.1724,-4145.896L14088.1799,-4145.9034L14088.2008,-4145.9208L14088.2516,-4145.9518L14088.298,-4145.9692L14088.3172,-4145.977L14088.3623,-4145.9866L14088.3825,-4145.9951L14088.399,-4146.0035L14088.423,-4146.0199L14088.485,-4146.0621L14088.5156,-4146.0852L14088.5276,-4146.1009L14088.5389,-4146.1173L14088.5496,-4146.1338L14088.5758,-4146.1519L14088.5859,-4146.1669L14088.591,-4146.1849L14088.5997,-4146.2181L14088.6525,-4146.4106L14088.6921,-4146.5559L14088.6929,-4146.562L14088.7094,-4146.62L14088.7259,-4146.6791L14088.7347,-4146.7011L14088.752,-4146.7281L14088.7648,-4146.7416L14088.7954,-4146.7687L14088.8141,-4146.7827L14088.8283,-4146.79L14088.8448,-4146.7973L14088.8471,-4146.7979L14088.8896,-4146.8092L14088.9338,-4146.8148L14088.9914,-4146.821L14089.0085,-4146.8255L14089.0363,-4146.8384L14089.0706,-4146.8587L14089.099,-4146.8688L14089.1499,-4146.8902L14089.1746,-4146.9049L14089.1866,-4146.915L14089.191,-4146.9235L14089.1983,-4146.9393L14089.1985,-4146.957L14089.208,-4146.9848L14089.216,-4147.0236L14089.221,-4147.0456L14089.2225,-4147.0558L14089.2373,-4147.1194L14089.2433,-4147.1396L14089.2468,-4147.154L14089.2553,-4147.192L14089.2658,-4147.21L14089.2792,-4147.2229L14089.3697,-4147.2973L14089.3751,-4147.3044L14089.4573,-4147.3733L14089.4662,-4147.3818L14089.485,-4147.411L14089.5103,-4147.4684L14089.5151,-4147.4768L14089.5292,-4147.4881L14089.5442,-4147.4934L14089.6218,-4147.5093L14089.6517,-4147.5123L14089.6802,-4147.5186L14089.6974,-4147.527L14089.7078,-4147.5338L14089.7722,-4147.5873L14089.7893,-4147.5968L14089.8321,-4147.6137L14089.8499,-4147.6183L14089.8739,-4147.6222L14089.9346,-4147.6278L14089.9532,-4147.6295L14089.9667,-4147.6334L14089.9778,-4147.6373L14089.9921,-4147.6486L14090.0041,-4147.6633L14090.0705,-4147.8057L14090.0915,-4147.862L14090.0998,-4147.8755L14090.1573,-4147.9509L14090.2057,-4148.0189L14090.2089,-4148.0281L14090.2209,-4148.0484L14090.2307,-4148.068L14090.2389,-4148.0815L14090.2545,-4148.1154L14090.2658,-4148.1435L14090.271,-4148.1734L14090.2808,-4148.2043L14090.3227,-4148.2994L14090.3324,-4148.3237L14090.3353,-4148.3383L14090.339,-4148.4109L14090.3427,-4148.4374L14090.3428,-4148.4375"/>
<path content="1,下北交通（株）,路線バス　佐井線,10.5,10.5,9.0," xlink:title="1" d="M14084.8055,-4142.0377L14084.7892,-4142.0508"/>
<path content="1,下北交通（株）,路線バス　佐井線,10.5,10.5,9.0," xlink:title="1" d="M14084.7892,-4142.0508L14084.7759,-4142.0343L14084.7543,-4142.0134L14084.7393,-4142.0032L14084.7288,-4141.9987L14084.6989,-4141.9915L14084.6698,-4142.0016L14084.6458,-4142.0055L14084.6189,-4142.0061L14084.5934,-4142.0028L14084.5493,-4141.9983L14084.5224,-4141.9932L14084.4791,-4141.9762L14084.4245,-4141.9532L14084.4057,-4141.9493L14084.3871,-4141.947L14084.3527,-4141.9419L14084.3179,-4141.9278L14084.2917,-4141.9168L14084.2803,-4141.9141L14084.2707,-4141.9121L14084.2566,-4141.9103L14084.2147,-4141.91L14084.103,-4141.9189L14084.0711,-4141.9216L14084.0251,-4141.9278L14083.9722,-4141.9386L14083.9082,-4141.9568L14083.9008,-4141.9532L14083.8784,-4141.9629L14083.8536,-4141.9646L14083.838,-4141.9629L14083.8276,-4141.9565L14083.8229,-4141.9451L14083.8243,-4141.9278L14083.8266,-4141.9182L14083.8392,-4141.8974L14083.8423,-4141.8935L14083.8881,-4141.8381L14083.8955,-4141.8265L14083.8986,-4141.8155L14083.8995,-4141.8066L14083.8982,-4141.7916L14083.8976,-4141.7713L14083.8998,-4141.7589L14083.9102,-4141.7375L14083.905,-4141.7257L14083.8871,-4141.7077L14083.8826,-4141.6998L14083.8789,-4141.6958L14083.8796,-4141.6919L14083.8781,-4141.6857L14083.8789,-4141.6733L14083.8826,-4141.6542L14083.8729,-4141.648L14083.843,-4141.6367L14083.8319,-4141.6288L14083.8341,-4141.6058L14083.8385,-4141.5985L14083.849,-4141.5861L14083.8676,-4141.5641L14083.8804,-4141.5323L14083.8879,-4141.5174L14083.8886,-4141.478L14083.8916,-4141.4684L14083.896,-4141.4594L14083.902,-4141.4532L14083.914,-4141.4442L14083.9536,-4141.4268L14083.9581,-4141.4217L14083.9607,-4141.4126L14083.9611,-4141.411L14083.9611,-4141.3812L14083.9566,-4141.3559L14083.9521,-4141.3355L14083.9461,-4141.322L14083.9349,-4141.3051L14083.9072,-4141.2736L14083.8684,-4141.2359L14083.8482,-4141.2151L14083.8378,-4141.2004L14083.8071,-4141.165L14083.7885,-4141.1498L14083.7235,-4141.1155L14083.7108,-4141.1047L14083.6921,-4141.0839L14083.6861,-4141.0704L14083.6831,-4141.0485L14083.6794,-4141.0197L14083.6743,-4141.0017L14083.669,-4140.9916L14083.6585,-4140.9809L14083.6309,-4140.9629L14083.6166,-4140.9516L14083.6108,-4140.9426L14083.6093,-4140.9381L14083.6093,-4140.9217L14083.613,-4140.9105L14083.6204,-4140.8976L14083.6391,-4140.8784L14083.6421,-4140.8706L14083.6465,-4140.8424L14083.6518,-4140.821L14083.6615,-4140.7968L14083.6608,-4140.7873L14083.6563,-4140.7799L14083.6354,-4140.7517L14083.6286,-4140.7388L14083.6279,-4140.7247L14083.6309,-4140.7117L14083.6376,-4140.6994L14083.6533,-4140.6786L14083.657,-4140.6718L14083.6518,-4140.6427L14083.6421,-4140.6257L14083.6361,-4140.62L14083.6166,-4140.6053L14083.6053,-4140.5988L14083.5943,-4140.5924L14083.5561,-4140.5778L14083.5189,-4140.5677L14083.5088,-4140.5655L14083.4896,-4140.5614L14083.4367,-4140.5497L14083.3852,-4140.5356L14083.3822,-4140.5238L14083.3814,-4140.4781L14083.3724,-4140.446L14083.3666,-4140.4337L14083.3546,-4140.4084L14083.3396,-4140.3847L14083.3299,-4140.374L14083.3299,-4140.3729L14083.3157,-4140.3577L14083.3104,-4140.3453L14083.3104,-4140.3391L14083.3104,-4140.3363L14083.3149,-4140.3267L14083.3254,-4140.3104L14083.3336,-4140.3002L14083.3349,-4140.2983L14083.3411,-4140.2895L14083.3568,-4140.2715L14083.3613,-4140.2631L14083.3619,-4140.2439L14083.3576,-4140.2248L14083.3576,-4140.1939L14083.3702,-4140.1381L14083.3792,-4140.1133L14083.4053,-4140.0689L14083.4136,-4140.0503L14083.4166,-4140.0396L14083.4166,-4140.0346L14083.4166,-4140.0261L14083.4106,-4140.0097L14083.3993,-4139.9895L14083.3649,-4139.949L14083.3502,-4139.9359L14083.3426,-4139.9231L14083.3254,-4139.9045L14083.3082,-4139.8836L14083.2866,-4139.8611L14083.2787,-4139.8558L14083.2603,-4139.8469L14083.2507,-4139.8369L14083.2171,-4139.8189L14083.1723,-4139.7941L14083.1626,-4139.7851L14083.1506,-4139.7772L14083.1543,-4139.7711L14083.1528,-4139.766L14083.1521,-4139.7575L14083.1536,-4139.757L14083.1611,-4139.748L14083.1752,-4139.7314L14083.1887,-4139.7243L14083.2133,-4139.6894L14083.2208,-4139.6703L14083.2216,-4139.6365L14083.2171,-4139.6213L14083.2059,-4139.5977L14083.1789,-4139.5638L14083.1618,-4139.5374L14083.1513,-4139.5154L14083.1476,-4139.4743L14083.1476,-4139.4698L14083.1438,-4139.4073L14083.1387,-4139.3899L14083.1154,-4139.3567L14083.0878,-4139.3207L14083.0587,-4139.2728L14083.0482,-4139.2509L14083.0296,-4139.1968L14083.0169,-4139.1523L14083.0161,-4139.1473L14083.0004,-4139.0915L14082.9892,-4139.0538L14082.9661,-4138.9721L14082.9616,-4138.9576L14082.9415,-4138.9119L14082.9362,-4138.9035L14082.9154,-4138.868L14082.8922,-4138.8354L14082.8496,-4138.7695L14082.8429,-4138.7594L14082.8227,-4138.7261L14082.8152,-4138.7087L14082.8137,-4138.7076L14082.8107,-4138.6992L14082.8047,-4138.6743L14082.8047,-4138.6417L14082.8083,-4138.625L14082.8122,-4138.6068L14082.8287,-4138.5561L14082.8317,-4138.5403L14082.8346,-4138.5038L14082.8331,-4138.4852L14082.8331,-4138.4453L14082.8361,-4138.4345L14082.8414,-4138.4267L14082.8534,-4138.4188L14082.8705,-4138.4114L14082.9079,-4138.4019L14082.9415,-4138.3861L14082.9475,-4138.3844L14082.9751,-4138.3828L14082.9796,-4138.3833L14083.0072,-4138.3822L14083.0229,-4138.3799L14083.0379,-4138.3771L14083.061,-4138.3692L14083.0775,-4138.3602L14083.0909,-4138.3461L14083.0946,-4138.3377L14083.0931,-4138.3275L14083.0939,-4138.3253L14083.0924,-4138.3253L14083.0841,-4138.3174L14083.0782,-4138.314L14083.0617,-4138.3112L14082.9907,-4138.3112L14082.9811,-4138.3101L14082.9751,-4138.3089L14082.9571,-4138.3089L14082.9407,-4138.3112L14082.9169,-4138.3179L14082.9101,-4138.3191L14082.8892,-4138.3191L14082.8787,-4138.3169L14082.875,-4138.3169L14082.875,-4138.3152L14082.869,-4138.3101L14082.86,-4138.2989L14082.8615,-4138.2977L14082.8624,-4138.2899L14082.869,-4138.2797L14082.887,-4138.2617L14082.8914,-4138.2544L14082.8951,-4138.2419L14082.8959,-4138.2189L14082.8892,-4138.1935L14082.8825,-4138.1739L14082.8802,-4138.1632L14082.8802,-4138.1524L14082.8832,-4138.1434L14082.8989,-4138.1181L14082.9342,-4138.0752L14082.9415,-4138.0663L14082.9482,-4138.0489L14082.9482,-4138.0315L14082.9422,-4138.0044L14082.9422,-4137.9808L14082.9437,-4137.9802L14082.9556,-4137.9622L14082.9624,-4137.9571L14082.971,-4137.9521L14082.9855,-4137.9459L14083.0364,-4137.9312L14083.0511,-4137.9261L14083.0569,-4137.9218L14083.0602,-4137.9132L14083.0625,-4137.9065L14083.0617,-4137.8986L14083.0602,-4137.8946L14083.052,-4137.8321L14083.0497,-4137.8191L14083.0446,-4137.7775L14083.0409,-4137.7482L14083.0319,-4137.737L14082.996,-4137.7342L14082.9834,-4137.7314L14082.9706,-4137.7274L14082.9609,-4137.7212L14082.9505,-4137.7128L14082.9437,-4137.7049L14082.934,-4137.6739L14082.934,-4137.6457L14082.9452,-4137.6109L14082.9452,-4137.5923L14082.9415,-4137.5789L14082.937,-4137.5693L14082.9199,-4137.5473L14082.8951,-4137.5209L14082.881,-4137.5005L14082.8773,-4137.4921L14082.8787,-4137.469L14082.8989,-4137.4308L14082.9086,-4137.4037L14082.9086,-4137.3789L14082.9026,-4137.3665L14082.8884,-4137.3441L14082.8713,-4137.321L14082.8692,-4137.3168L14082.8615,-4137.3013L14082.8519,-4137.2754L14082.8324,-4137.2146L14082.8324,-4137.1786L14082.8376,-4137.1481L14082.8459,-4137.1183L14082.8504,-4137.0936L14082.8489,-4137.0581L14082.8466,-4137.0407L14082.8444,-4137.0271L14082.8451,-4137.0125L14082.8481,-4137.0035L14082.8541,-4136.9911L14082.869,-4136.9742L14082.9131,-4136.937L14082.9303,-4136.9196L14082.9393,-4136.9061L14082.9475,-4136.8886L14082.9504,-4136.8701"/>
<path content="1,下北交通（株）,路線バス　佐井線,10.5,10.5,9.0," xlink:title="1" d="M14084.7892,-4142.0508L14084.7939,-4142.0568L14084.8044,-4142.0731L14084.8097,-4142.0838L14084.8157,-4142.1091L14084.8247,-4142.1226L14084.8351,-4142.1322L14084.8456,-4142.1384L14084.8732,-4142.1502L14084.8829,-4142.1558L14084.9195,-4142.1862L14084.9488,-4142.2211L14084.9689,-4142.2493L14084.9975,-4142.2841"/>
<path content="1,下北交通（株）,路線バス　佐井線,10.5,10.5,9.0," xlink:title="1" d="M14084.9975,-4142.2841L14085.0074,-4142.2767"/>
<path content="1,下北交通（株）,路線バス　佐井線,10.5,10.5,9.0," xlink:title="1" d="M14085.0843,-4142.5479L14085.0617,-4142.5263L14085.0512,-4142.5083L14085.0483,-4142.5004L14085.0408,-4142.4638L14085.0325,-4142.3963L14085.031,-4142.3845L14085.0295,-4142.3619L14085.0273,-4142.3535L14085.0258,-4142.3388L14085.0145,-4142.3067L14084.9975,-4142.2841"/>
<path content="1,下北交通（株）,路線バス　佐井線,10.5,10.5,9.0," xlink:title="1" d="M14085.0843,-4142.5479L14085.0914,-4142.5392"/>
<path content="1,下北交通（株）,路線バス　佐井線,10.5,10.5,9.0," xlink:title="1" d="M14085.369,-4142.7649L14085.3602,-4142.7758"/>
<path content="1,下北交通（株）,路線バス　佐井線,10.5,10.5,9.0," xlink:title="1" d="M14085.3602,-4142.7758L14085.3489,-4142.7668L14085.2875,-4142.7205L14085.2068,-4142.6665L14085.1882,-4142.6536L14085.1724,-4142.6373L14085.1305,-4142.5888L14085.105,-4142.5629L14085.0983,-4142.5584L14085.0843,-4142.5479"/>
<path content="1,下北交通（株）,路線バス　佐井線,10.5,10.5,9.0," xlink:title="1" d="M14085.7715,-4143.0417L14085.7632,-4143.0533"/>
<path content="1,下北交通（株）,路線バス　佐井線,10.5,10.5,9.0," xlink:title="1" d="M14085.7632,-4143.0533L14085.7379,-4143.0443L14085.6832,-4143.028L14085.6391,-4143.0133L14085.592,-4143.0009L14085.577,-4142.9953L14085.5561,-4142.9818L14085.5239,-4142.9486L14085.4619,-4142.8771L14085.4416,-4142.8467L14085.4259,-4142.8309L14085.4065,-4142.8129L14085.3602,-4142.7758"/>
<path content="1,下北交通（株）,路線バス　佐井線,10.5,10.5,9.0," xlink:title="1" d="M14086.8994,-4143.7233L14086.8896,-4143.7346"/>
<path content="1,下北交通（株）,路線バス　佐井線,10.5,10.5,9.0," xlink:title="1" d="M14086.8896,-4143.7346L14086.8694,-4143.7239L14086.8471,-4143.7121L14086.7928,-4143.6829L14086.7652,-4143.6681L14086.7489,-4143.6558L14086.6428,-4143.5476L14086.6293,-4143.5358L14086.5874,-4143.5229L14086.5777,-4143.5184L14086.5658,-4143.4891L14086.5505,-4143.4492L14086.5463,-4143.4368L14086.5268,-4143.3867L14086.5261,-4143.3765L14086.5672,-4143.3258L14086.5819,-4143.3078L14086.5846,-4143.3018L14086.5786,-4143.2977L14086.5488,-4143.281L14086.5456,-4143.2799L14086.5051,-4143.2612L14086.4894,-4143.2617L14086.4842,-4143.2628L14086.3727,-4143.3089L14086.3573,-4143.3114L14086.3124,-4143.286L14086.2818,-4143.2687L14086.2831,-4143.2158L14086.2808,-4143.2092L14086.2761,-4143.2023L14086.2412,-4143.1986L14086.1014,-4143.1772L14086.0839,-4143.1728L14086.0465,-4143.1623L14086.0437,-4143.1613L14086.0272,-4143.1563L14085.9944,-4143.1394L14085.9711,-4143.1322L14085.9256,-4143.1214L14085.9009,-4143.1164L14085.8844,-4143.1118L14085.862,-4143.1028L14085.7886,-4143.0612L14085.7797,-4143.0572L14085.7684,-4143.0546L14085.7632,-4143.0533"/>
<path content="1,下北交通（株）,路線バス　佐井線,10.5,10.5,9.0," xlink:title="1" d="M14090.3428,-4148.4375L14090.3427,-4148.4374L14090.339,-4148.4109L14090.3353,-4148.3383L14090.3324,-4148.3237L14090.3227,-4148.2994L14090.2808,-4148.2043L14090.271,-4148.1734L14090.2658,-4148.1435L14090.2545,-4148.1154L14090.2389,-4148.0815L14090.2307,-4148.068L14090.2209,-4148.0484L14090.2089,-4148.0281L14090.2057,-4148.0189L14090.1573,-4147.9509L14090.0998,-4147.8755L14090.0915,-4147.862L14090.0705,-4147.8057L14090.0041,-4147.6633L14089.9921,-4147.6486L14089.9778,-4147.6373L14089.9667,-4147.6334L14089.9532,-4147.6295L14089.9346,-4147.6278L14089.8739,-4147.6222L14089.8499,-4147.6183L14089.8321,-4147.6137L14089.7893,-4147.5968L14089.7722,-4147.5873L14089.7078,-4147.5338L14089.6974,-4147.527L14089.6802,-4147.5186L14089.6517,-4147.5123L14089.6218,-4147.5093L14089.5442,-4147.4934L14089.5292,-4147.4881L14089.5151,-4147.4768L14089.5103,-4147.4684L14089.485,-4147.411L14089.4662,-4147.3818L14089.4573,-4147.3733L14089.3751,-4147.3044L14089.3697,-4147.2973L14089.2792,-4147.2229L14089.2658,-4147.21L14089.2553,-4147.192L14089.2468,-4147.154L14089.2433,-4147.1396L14089.2373,-4147.1194L14089.2225,-4147.0558L14089.221,-4147.0456L14089.216,-4147.0236L14089.208,-4146.9848L14089.1985,-4146.957L14089.1983,-4146.9393L14089.191,-4146.9235L14089.1866,-4146.915L14089.1746,-4146.9049L14089.1499,-4146.8902L14089.099,-4146.8688L14089.0706,-4146.8587L14089.0363,-4146.8384L14089.0085,-4146.8255L14088.9914,-4146.821L14088.9338,-4146.8148L14088.8896,-4146.8092L14088.8471,-4146.7979L14088.8448,-4146.7973L14088.8283,-4146.79L14088.8141,-4146.7827L14088.7954,-4146.7687L14088.7648,-4146.7416L14088.752,-4146.7281L14088.7347,-4146.7011L14088.7259,-4146.6791L14088.7094,-4146.62L14088.6929,-4146.562L14088.6921,-4146.5559L14088.6525,-4146.4106L14088.5997,-4146.2181L14088.591,-4146.1849L14088.5859,-4146.1669L14088.5758,-4146.1519L14088.5496,-4146.1338L14088.5389,-4146.1173L14088.5276,-4146.1009L14088.5156,-4146.0852L14088.485,-4146.0621L14088.423,-4146.0199L14088.399,-4146.0035L14088.3825,-4145.9951L14088.3623,-4145.9866L14088.3172,-4145.977L14088.298,-4145.9692L14088.2516,-4145.9518L14088.2008,-4145.9208L14088.1799,-4145.9034L14088.1724,-4145.896L14088.1679,-4145.8932L14088.1088,-4145.8307L14088.0601,-4145.7699L14088.0333,-4145.7316L14088.0265,-4145.7181L14088.0205,-4145.6798L14088.016,-4145.6286L14088.0145,-4145.6201L14088.0143,-4145.616L14088.0115,-4145.5621L14088.0115,-4145.5055L14088.0115,-4145.467L14088.0093,-4145.4568L14087.9988,-4145.4355L14087.9786,-4145.4L14087.9747,-4145.3952L14087.9576,-4145.3522L14087.9443,-4145.3218L14087.933,-4145.3077L14087.9233,-4145.2974L14087.8799,-4145.2598L14087.8518,-4145.2355L14087.8193,-4145.2074L14087.8006,-4145.195L14087.7909,-4145.1911L14087.7639,-4145.1843L14087.6854,-4145.1742L14087.672,-4145.1708L14087.654,-4145.1607L14087.6196,-4145.1365L14087.6114,-4145.1275L14087.5884,-4145.1032L14087.5713,-4145.0747L14087.5605,-4145.0605L14087.5344,-4145.0256L14087.4909,-4144.9732L14087.4783,-4144.9541L14087.4349,-4144.8764L14087.4167,-4144.8431L14087.3826,-4144.7807L14087.3432,-4144.7111L14087.3159,-4144.6596L14087.3144,-4144.6585L14087.3048,-4144.6399L14087.2714,-4144.5763L14087.2658,-4144.5639L14087.2643,-4144.5628L14087.2419,-4144.5177L14087.2083,-4144.4513L14087.1896,-4144.4153L14087.1656,-4144.3703L14087.1541,-4144.3498L14087.1482,-4144.3409L14087.1439,-4144.3344L14087.1133,-4144.2875L14087.0976,-4144.261L14087.0796,-4144.2306L14087.0715,-4144.1882L14087.0279,-4144.1107L14087.0153,-4144.0707L14087.0116,-4144.0617L14086.9858,-4143.9457L14086.9764,-4143.9052L14086.9652,-4143.8461L14086.9637,-4143.8421L14086.9637,-4143.8416L14086.9532,-4143.7931L14086.9457,-4143.7684L14086.9367,-4143.7582L14086.9331,-4143.7566L14086.8896,-4143.7346"/>
<path content="1,（有）川内交通,（有）川内交通001,3.0,3.0,3.0," xlink:title="1" d="M14097.6562,-4128.1177L14097.6487,-4128.1263L14097.6336,-4128.1461L14097.6225,-4128.164L14097.6222,-4128.165L14097.621,-4128.1691L14097.6133,-4128.1858L14097.5949,-4128.2259L14097.5836,-4128.248L14097.5817,-4128.2516L14097.5672,-4128.2789L14097.5549,-4128.2943L14097.5389,-4128.3144L14097.521,-4128.3353L14097.4904,-4128.3719L14097.4897,-4128.3746L14097.4839,-4128.3865L14097.4778,-4128.396L14097.4763,-4128.4012L14097.4546,-4128.4429L14097.4508,-4128.4513L14097.4345,-4128.4817L14097.4114,-4128.5256L14097.3912,-4128.5547L14097.3501,-4128.605L14097.333,-4128.6275L14097.3299,-4128.6298L14097.3122,-4128.655L14097.3107,-4128.6596L14097.3069,-4128.6634L14097.3062,-4128.6673L14097.3001,-4128.6771L14097.2958,-4128.6882L14097.2792,-4128.7221L14097.2741,-4128.7423L14097.2726,-4128.7557L14097.2753,-4128.7661L14097.278,-4128.7706L14097.2807,-4128.7751L14097.2901,-4128.782L14097.2917,-4128.7831L14097.2951,-4128.7855L14097.3129,-4128.7914L14097.3471,-4128.8025L14097.3508,-4128.8052L14097.3577,-4128.8098L14097.3637,-4128.8137L14097.3673,-4128.821L14097.3773,-4128.8437L14097.3806,-4128.8693L14097.3807,-4128.8701L14097.3815,-4128.8808L14097.3845,-4128.8931L14097.3847,-4128.8949L14097.3881,-4128.9201L14097.3881,-4128.9258L14097.3904,-4128.9314L14097.395,-4128.9543L14097.3963,-4128.9606L14097.3987,-4128.9753L14097.4023,-4128.9984L14097.4061,-4129.0266L14097.4084,-4129.0491L14097.4084,-4129.0846L14097.4054,-4129.1245L14097.397,-4129.1589L14097.3903,-4129.1751L14097.371,-4129.1971L14097.3427,-4129.2196L14097.3322,-4129.2264L14097.3106,-4129.2371L14097.3023,-4129.24L14097.2941,-4129.2444L14097.2457,-4129.2602L14097.2188,-4129.2692L14097.1777,-4129.2821L14097.151,-4129.2912L14097.1457,-4129.294L14097.1242,-4129.3019L14097.0792,-4129.3149L14097.0591,-4129.3187L14097.057,-4129.3199L14097.0353,-4129.3233L14097.0242,-4129.3249L14096.9079,-4129.3413L14096.8995,-4129.3436L14096.8496,-4129.3504L14096.8368,-4129.3525L14096.816,-4129.3554L14096.7668,-4129.3645L14096.739,-4129.3722L14096.7369,-4129.3738L14096.7358,-4129.3741L14096.7302,-4129.3756L14096.5482,-4129.4443L14096.4884,-4129.4668L14096.4607,-4129.4764L14096.3617,-4129.4966L14096.3407,-4129.5011L14096.1938,-4129.5298L14096.1806,-4129.5323L14096.0818,-4129.5512L14096.0805,-4129.5517L14096.0789,-4129.5523L14096.0646,-4129.5545L14096.0461,-4129.5614L14096.0328,-4129.5686L14096.0118,-4129.5855L14095.9975,-4129.6002L14095.9588,-4129.6464L14095.9518,-4129.6533L14095.9498,-4129.6553L14095.934,-4129.675L14095.9251,-4129.6879L14095.9138,-4129.7038L14095.8975,-4129.7228L14095.8475,-4129.7898L14095.8043,-4129.8478L14095.7983,-4129.8535L14095.7983,-4129.8546L14095.7005,-4129.9824L14095.6916,-4129.992L14095.6789,-4130.0066L14095.6723,-4130.0177L14095.6505,-4130.0336L14095.6424,-4130.0404L14095.6148,-4130.0645L14095.608,-4130.0714L14095.5073,-4130.1625L14095.4969,-4130.1732L14095.4901,-4130.1822L14095.4731,-4130.2027L14095.4595,-4130.2227L14095.435,-4130.2706L14095.4328,-4130.2807L14095.4386,-4130.3061L14095.4446,-4130.3212L14095.4663,-4130.3562L14095.511,-4130.4147L14095.5275,-4130.4339L14095.5341,-4130.4434L14095.5476,-4130.4587L14095.5693,-4130.4801L14095.5856,-4130.493L14095.6035,-4130.5032L14095.646,-4130.5347L14095.6543,-4130.5476L14095.6566,-4130.5588L14095.6575,-4130.6002L14095.6583,-4130.6051L14095.6589,-4130.6065L14095.664,-4130.6194L14095.67,-4130.6263L14095.6766,-4130.6311L14095.6955,-4130.6392L14095.7416,-4130.6546L14095.7826,-4130.6715L14095.8289,-4130.6917L14095.8595,-4130.7069L14095.8811,-4130.7216L14095.8982,-4130.7367L14095.9214,-4130.761L14095.9601,-4130.8128L14095.9736,-4130.8325L14096.0027,-4130.8764L14096.0191,-4130.9113L14096.0303,-4130.9361L14096.0362,-4130.9591L14096.0355,-4130.9771L14096.0317,-4130.9935L14096.0296,-4130.9974L14096.0273,-4131.0069L14096.0183,-4131.0345L14096.0131,-4131.0487L14096.0101,-4131.0627L14096.0078,-4131.0667L14096.0048,-4131.0853L14096.0042,-4131.0965L14096.0043,-4131.1046L14096.0046,-4131.1069L14096.0126,-4131.1324L14096.0192,-4131.1547L14096.018,-4131.1671L14096.0123,-4131.1781L14096.0012,-4131.1899L14095.9578,-4131.2305L14095.8937,-4131.2873L14095.855,-4131.3211L14095.8445,-4131.3318L14095.8371,-4131.3425L14095.8303,-4131.3515L14095.8296,-4131.3549L14095.8251,-4131.3617L14095.8168,-4131.3819L14095.811,-4131.4039L14095.8102,-4131.4208L14095.8117,-4131.4478L14095.8161,-4131.4636L14095.826,-4131.483L14095.8281,-4131.4873L14095.8437,-4131.5053L14095.8462,-4131.5072L14095.8565,-4131.5148L14095.8886,-4131.53L14095.9668,-4131.5598L14095.9986,-4131.5722"/>
<path content="1,（有）脇野沢交通,脇野沢交通　九艘泊沢線,3.5,3.5,3.5," xlink:title="1" d="M14077.3904,-4114.2174L14077.3986,-4114.2125L14077.4029,-4114.2052L14077.4082,-4114.177L14077.4133,-4114.1499L14077.4138,-4114.1356L14077.4103,-4114.1242L14077.4056,-4114.1076L14077.4053,-4114.1065L14077.4003,-4114.0918L14077.3958,-4114.0804L14077.3933,-4114.0676L14077.3928,-4114.0551L14077.3941,-4114.0408L14077.3986,-4114.0273L14077.4105,-4114.0109L14077.4447,-4113.9873L14077.4641,-4113.9704L14077.502,-4113.9203L14077.5087,-4113.9124L14077.5153,-4113.9068L14077.5369,-4113.8978L14077.6233,-4113.8798L14077.6471,-4113.8792L14077.6561,-4113.8815L14077.6939,-4113.9006L14077.7073,-4113.9051L14077.7237,-4113.9057L14077.7647,-4113.8961L14077.7929,-4113.8911L14077.8056,-4113.8877L14077.8398,-4113.8804L14077.8599,-4113.8798L14077.871,-4113.8809L14077.8969,-4113.8821L14077.9149,-4113.8708L14077.947,-4113.8623L14077.9529,-4113.8584L14077.9544,-4113.8533L14077.9567,-4113.8494L14077.9582,-4113.8416L14077.9582,-4113.8206L14077.9582,-4113.8184L14077.9551,-4113.8006L14077.9529,-4113.792L14077.9454,-4113.7807L14077.935,-4113.7722L14077.9113,-4113.7661L14077.8897,-4113.7587L14077.8778,-4113.7526L14077.8481,-4113.7289L14077.8369,-4113.7181L14077.8086,-4113.6907L14077.7959,-4113.6754L14077.7937,-4113.6394L14077.7869,-4113.6298L14077.7513,-4113.596L14077.7521,-4113.5949L14077.7498,-4113.587L14077.7513,-4113.5853L14077.7536,-4113.578L14077.7594,-4113.5673L14077.7736,-4113.5465L14077.8138,-4113.5003L14077.8532,-4113.4609L14077.8904,-4113.4311L14077.9038,-4113.4227L14078.0058,-4113.3641L14078.0333,-4113.3433L14078.0519,-4113.3258L14078.0683,-4113.3134L14078.0779,-4113.3095L14078.1404,-4113.2892L14078.1611,-4113.2812M14078.9408,-4113.2812L14078.9441,-4113.2847L14078.9612,-4113.2988L14078.9627,-4113.2988L14078.9844,-4113.3112L14079.0564,-4113.3444L14079.0751,-4113.3501L14079.0982,-4113.354L14079.1361,-4113.3551L14079.154,-4113.354L14079.1666,-4113.3534L14079.1927,-4113.3484L14079.2656,-4113.3253L14079.3354,-4113.3022L14079.3772,-4113.2864L14079.3871,-4113.2812M14081.0034,-4113.2812L14081.0224,-4113.2904L14081.0484,-4113.3017L14081.0775,-4113.3113L14081.1363,-4113.3225L14081.2084,-4113.3371L14081.2136,-4113.3377L14081.2338,-4113.3422L14081.2575,-4113.3461L14081.2739,-4113.3501L14081.3008,-4113.3546L14081.3215,-4113.3597L14081.3424,-4113.3659L14081.3768,-4113.3798L14081.4079,-4113.3979L14081.5001,-4113.4469L14081.5314,-4113.4689L14081.5507,-4113.4864L14081.5752,-4113.5129L14081.5872,-4113.5303L14081.6512,-4113.6767L14081.6571,-4113.6873L14081.6661,-4113.6963L14081.6921,-4113.7172L14081.6981,-4113.72L14081.7003,-4113.7234L14081.7196,-4113.7408L14081.7389,-4113.7628L14081.7442,-4113.7696L14081.7576,-4113.7977L14081.7613,-4113.8033L14081.7694,-4113.8236L14081.7769,-4113.8354L14081.7873,-4113.8472L14081.8059,-4113.8596L14081.8334,-4113.8799L14081.8536,-4113.9001L14081.8578,-4113.908L14081.8729,-4113.93L14081.8878,-4113.9418L14081.9228,-4113.9626L14081.9377,-4113.9734L14081.9533,-4113.988L14081.9786,-4114.0021L14082.0002,-4114.0173L14082.0188,-4114.0398L14082.0478,-4114.0736L14082.0523,-4114.0775L14082.0641,-4114.0893L14082.0753,-4114.1001L14082.0841,-4114.1039L14082.073,-4114.1113L14082.041,-4114.1242L14082.0068,-4114.1338L14081.9853,-4114.1378L14081.9793,-4114.1394L14081.9042,-4114.1495L14081.8752,-4114.1539L14081.8549,-4114.1561L14081.8263,-4114.1554L14081.7988,-4114.1562L14081.7829,-4114.1568L14081.7888,-4114.1783L14081.7938,-4114.1832L14081.8097,-4114.185L14081.8297,-4114.1839L14081.8402,-4114.185L14081.8491,-4114.1901L14081.8528,-4114.198L14081.8528,-4114.2081L14081.8498,-4114.2143L14081.8417,-4114.2216L14081.8283,-4114.2357L14081.8007,-4114.2571L14081.7948,-4114.2655L14081.7752,-4114.3065L14081.7316,-4114.4057L14081.7211,-4114.4203L14081.7129,-4114.4277L14081.7024,-4114.4367L14081.581,-4114.5187L14081.5591,-4114.5479"/>
<path content="1,（有）脇野沢交通,脇野沢交通　九艘泊沢線,3.5,3.5,3.5," xlink:title="1" d="M14081.5591,-4114.5479L14081.6074,-4114.589L14081.6193,-4114.5945L14081.6308,-4114.5941L14081.6421,-4114.5915L14081.6504,-4114.587L14081.6742,-4114.5763L14081.6876,-4114.5696L14081.7538,-4114.5408L14081.7754,-4114.5341L14081.7895,-4114.5341L14081.8201,-4114.5393L14081.8263,-4114.5404L14081.8636,-4114.5457L14081.8725,-4114.5472L14081.8788,-4114.5498L14081.8885,-4114.5521L14081.9071,-4114.5639L14081.9309,-4114.5369L14081.9405,-4114.5257L14081.9696,-4114.4936L14081.9971,-4114.4722L14082.0224,-4114.4558L14082.0333,-4114.4521L14082.0373,-4114.4507L14082.0641,-4114.4446L14082.0679,-4114.4438L14082.1229,-4114.4322L14082.1385,-4114.4277L14082.146,-4114.4254L14082.1556,-4114.4254L14082.2033,-4114.4153L14082.2151,-4114.4131L14082.2204,-4114.4108L14082.2458,-4114.4057L14082.265,-4114.3984"/>
<path content="1,（有）脇野沢交通,脇野沢交通　九艘泊沢線,3.5,3.5,3.5," xlink:title="1" d="M14081.5591,-4114.5479L14081.5401,-4114.5824L14081.5327,-4114.6273"/>
<path content="1,（有）脇野沢交通,脇野沢交通　源籐城線,3.5,3.5,3.5," xlink:title="1" d="M14081.5591,-4114.5479L14081.581,-4114.5187L14081.7024,-4114.4367L14081.7129,-4114.4277L14081.7211,-4114.4203L14081.7316,-4114.4057L14081.7752,-4114.3065L14081.7948,-4114.2655L14081.8007,-4114.2571L14081.8283,-4114.2357L14081.8417,-4114.2216L14081.8498,-4114.2143L14081.8528,-4114.2081L14081.8528,-4114.198L14081.8491,-4114.1901L14081.8402,-4114.185L14081.8297,-4114.1839L14081.8097,-4114.185L14081.7938,-4114.1832L14081.7888,-4114.1783L14081.7829,-4114.1568L14081.7988,-4114.1562L14081.8263,-4114.1554L14081.8549,-4114.1561L14081.8752,-4114.1539L14081.9042,-4114.1495L14081.9793,-4114.1394L14081.9853,-4114.1378L14082.0068,-4114.1338L14082.041,-4114.1242L14082.073,-4114.1113L14082.0841,-4114.1039L14082.0916,-4114.1056L14082.14,-4114.1074L14082.1511,-4114.1107L14082.1549,-4114.1372L14082.1556,-4114.1541L14082.1556,-4114.1601L14082.1556,-4114.1805L14082.1534,-4114.1873L14082.1504,-4114.1934L14082.1385,-4114.2093L14082.1274,-4114.2291L14082.1236,-4114.2357L14082.1088,-4114.2628L14082.1133,-4114.2644L14082.1576,-4114.2789L14082.1765,-4114.2909L14082.2166,-4114.3365L14082.265,-4114.3984"/>
<path content="1,（有）脇野沢交通,脇野沢交通　源籐城線,3.5,3.5,3.5," xlink:title="1" d="M14081.5591,-4114.5479L14081.5401,-4114.5824L14081.5327,-4114.6273"/>
<path content="1,（有）脇野沢交通,脇野沢交通　源籐城線,3.5,3.5,3.5," xlink:title="1" d="M14079.945,-4118.0442L14079.9432,-4118.0201L14079.9454,-4118.0111L14079.9573,-4117.9874L14079.9686,-4117.9508L14079.9686,-4117.9266L14079.9633,-4117.9165L14079.9484,-4117.8991L14079.9246,-4117.8883L14079.9171,-4117.8861L14079.9029,-4117.8782L14079.9044,-4117.876L14079.9067,-4117.8579L14079.9119,-4117.8376L14079.9171,-4117.8253L14079.9298,-4117.805L14079.9931,-4117.7212L14080.0006,-4117.7042L14080.0021,-4117.6957L14080.0021,-4117.6732L14079.9998,-4117.6581L14079.9678,-4117.5646L14079.9507,-4117.5196L14079.9663,-4117.474L14079.9686,-4117.4673L14079.9766,-4117.4479L14079.9804,-4117.4369L14079.9902,-4117.4042L14079.9908,-4117.3834L14079.9879,-4117.3563L14079.9767,-4117.3299L14079.9759,-4117.3129L14079.9938,-4117.2359L14080.0028,-4117.2077L14080.0079,-4117.1992L14080.0341,-4117.1808L14080.1004,-4117.1216L14080.1347,-4117.0917L14080.1392,-4117.0844L14080.1482,-4117.0681L14080.1451,-4117.008L14080.1694,-4116.9856L14080.1816,-4116.9741L14080.1898,-4116.9639L14080.2069,-4116.9499L14080.2354,-4116.9347L14080.2903,-4116.9032L14080.3553,-4116.8678L14080.4059,-4116.831L14080.423,-4116.8094L14080.433,-4116.7974L14080.4398,-4116.7883L14080.445,-4116.776L14080.4539,-4116.7495L14080.4597,-4116.6791L14080.4598,-4116.6431L14080.4612,-4116.566L14080.4627,-4116.5518L14080.4724,-4116.5311L14080.4738,-4116.5282L14080.4798,-4116.5215L14080.4977,-4116.5056L14080.5491,-4116.4713L14080.5706,-4116.4601L14080.6026,-4116.4398L14080.6071,-4116.4359L14080.6133,-4116.4268L14080.6242,-4116.4111L14080.6487,-4116.3621L14080.6627,-4116.3345L14080.6757,-4116.3091L14080.6834,-4116.294L14080.7061,-4116.2529L14080.7373,-4116.2214L14080.7559,-4116.196L14080.8094,-4116.1155L14080.8124,-4116.1065L14080.8184,-4116.0795L14080.8192,-4116.0165L14080.8177,-4116.0108L14080.8192,-4115.9742L14080.8192,-4115.9646L14080.8229,-4115.9354L14080.8303,-4115.8921L14080.8422,-4115.856L14080.8502,-4115.8404L14080.8514,-4115.8381L14080.8551,-4115.8316L14080.8836,-4115.8002L14080.8859,-4115.7985L14080.9024,-4115.7868L14080.9218,-4115.7778L14080.9532,-4115.7695L14080.9709,-4115.7648L14080.9837,-4115.7603L14080.9978,-4115.7541L14081.0127,-4115.7423L14081.0253,-4115.7265L14081.0342,-4115.7175L14081.0439,-4115.7136L14081.0931,-4115.7001L14081.1324,-4115.6854L14081.1377,-4115.6843L14081.1541,-4115.6781L14081.2277,-4115.6516L14081.2307,-4115.6505L14081.2433,-4115.6409L14081.2604,-4115.615L14081.2671,-4115.5948L14081.268,-4115.5858L14081.2694,-4115.5717L14081.2746,-4115.5323L14081.2776,-4115.5002L14081.2999,-4115.4354L14081.3051,-4115.4039L14081.3051,-4115.3701L14081.2992,-4115.3352L14081.2894,-4115.3093L14081.2881,-4115.2992L14081.2881,-4115.284L14081.2947,-4115.2716L14081.3393,-4115.2255L14081.3594,-4115.2063L14081.3736,-4115.1906L14081.3914,-4115.1675L14081.4033,-4115.1489L14081.4279,-4115.1173L14081.4919,-4115.065L14081.506,-4115.0515L14081.5098,-4115.0458L14081.4592,-4115.0318L14081.4472,-4115.0239L14081.4383,-4115.0166L14081.4361,-4115.0132L14081.4144,-4114.9923L14081.4077,-4114.9855L14081.3922,-4114.9688L14081.3922,-4114.9541L14081.3967,-4114.9423L14081.3996,-4114.9299L14081.3996,-4114.9102L14081.3973,-4114.8972L14081.3706,-4114.8224L14081.3654,-4114.7998L14081.3654,-4114.7694L14081.3728,-4114.7379L14081.3796,-4114.7215L14081.3937,-4114.6968L14081.4167,-4114.6647L14081.4595,-4114.6035L14081.4724,-4114.5851L14081.4837,-4114.569L14081.4919,-4114.56L14081.5296,-4114.5423L14081.5591,-4114.5479"/>
<path content="3,下北交通（株）,大間病院ルート,2.0,0.0,0.0," xlink:title="3" d="M14080.9651,-4132.8389L14080.9452,-4132.8362L14080.858,-4132.8329L14080.8124,-4132.8301L14080.8012,-4132.8301L14080.799,-4132.8323L14080.793,-4132.8346L14080.7804,-4132.8436L14080.7736,-4132.8509L14080.7631,-4132.8639L14080.7565,-4132.8757L14080.752,-4132.8887L14080.752,-4132.8954L14080.7572,-4132.9213L14080.7684,-4132.95L14080.7804,-4132.9743L14080.7834,-4132.9788L14080.7862,-4132.9861L14080.811,-4133.0254L14080.814,-4133.0278L14080.8169,-4133.0323L14080.8385,-4133.0542L14080.8892,-4133.0913L14080.9012,-4133.102L14080.9101,-4133.1122L14080.9251,-4133.133L14080.9347,-4133.1522L14080.9482,-4133.1713L14080.9669,-4133.1792L14080.9779,-4133.182L14080.9959,-4133.1853L14081.0518,-4133.1972L14081.1018,-4133.2039L14081.116,-4133.207L14081.1176,-4133.2073L14081.1234,-4133.2096L14081.1399,-4133.2135L14081.1563,-4133.2203L14081.1764,-4133.227L14081.1988,-4133.2304L14081.2264,-4133.231L14081.2734,-4133.2349L14081.2907,-4133.2388L14081.3204,-4133.2574L14081.3406,-4133.2749L14081.3428,-4133.2783L14081.3541,-4133.2895L14081.3637,-4133.3019L14081.3682,-4133.3115L14081.3697,-4133.3306L14081.3719,-4133.3379L14081.3817,-4133.3543L14081.4092,-4133.3813L14081.4376,-4133.3908L14081.4853,-4133.4021L14081.5033,-4133.4072L14081.5353,-4133.4224L14081.5719,-4133.4331L14081.5868,-4133.4353L14081.5951,-4133.4376L14081.6099,-4133.4416L14081.6323,-4133.4618L14081.6592,-4133.4872L14081.6786,-4133.5153L14081.6898,-4133.5305L14081.6972,-4133.5384L14081.7002,-4133.5429L14081.7069,-4133.5491L14081.7301,-4133.566L14081.7492,-4133.5952L14081.7651,-4133.6228L14081.7756,-4133.6357L14081.7815,-4133.6408L14081.7941,-4133.6465L14081.8091,-4133.6453L14081.8166,-4133.6369L14081.8278,-4133.6093L14081.8315,-4133.6043L14081.8358,-4133.5998L14081.8449,-4133.5952L14081.8496,-4133.5937L14081.8548,-4133.5934L14081.8583,-4133.5938L14081.8615,-4133.5952L14081.8816,-4133.6032L14081.9429,-4133.6245L14081.9548,-4133.6308L14081.9608,-4133.6352L14081.9846,-4133.6712L14081.9846,-4133.6752L14081.9788,-4133.6825L14081.9683,-4133.6859L14081.9578,-4133.6853L14081.9489,-4133.6819L14081.9279,-4133.6611L14081.9093,-4133.6471L14081.8988,-4133.6482L14081.8883,-4133.6533L14081.8824,-4133.6594L14081.8809,-4133.6701L14081.8801,-4133.7472L14081.8779,-4133.7557L14081.8704,-4133.7754L14081.8629,-4133.7878L14081.8368,-4133.821L14081.83,-4133.8362L14081.83,-4133.8536L14081.8353,-4133.8643L14081.8465,-4133.8806L14081.8518,-4133.8875L14081.8651,-4133.8936L14081.8995,-4133.9026L14081.916,-4133.9077L14081.9294,-4133.9229L14081.9444,-4133.9499L14081.9585,-4133.9792L14081.9623,-4133.9826L14081.9698,-4133.9911L14081.9801,-4133.9984L14082.0108,-4134.0096L14082.04,-4134.0158L14082.0729,-4134.0203L14082.078,-4134.022L14082.0951,-4134.0284L14082.1076,-4134.0369L14082.1194,-4134.0483L14082.128,-4134.0607L14082.1334,-4134.0731L14082.1354,-4134.0806L14082.1355,-4134.0901L14082.1349,-4134.1126L14082.1281,-4134.1616L14082.1266,-4134.1853L14082.1244,-4134.2174L14082.1221,-4134.2505L14082.1244,-4134.2776L14082.1296,-4134.2984L14082.1378,-4134.3136L14082.1513,-4134.3271L14082.1663,-4134.3379L14082.2215,-4134.3704L14082.2305,-4134.3794L14082.2356,-4134.3896L14082.2596,-4134.4566L14082.2692,-4134.4729L14082.279,-4134.4864L14082.2872,-4134.4949L14082.3017,-4134.5075L14082.3092,-4134.5169L14082.3257,-4134.5417L14082.3395,-4134.5681L14082.347,-4134.5804L14082.3806,-4134.6447L14082.4037,-4134.6953L14082.4448,-4134.7775L14082.4507,-4134.7967L14082.4507,-4134.8147L14082.4478,-4134.8277L14082.4388,-4134.8422L14082.4157,-4134.8642L14082.403,-4134.88L14082.3888,-4134.9014L14082.3858,-4134.9104L14082.3866,-4134.9307L14082.3895,-4134.9397L14082.3983,-4134.9518L14082.4222,-4134.9798L14082.4453,-4135.009L14082.4481,-4135.0141L14082.4507,-4135.0191L14082.4589,-4135.0371L14082.4597,-4135.0545L14082.4463,-4135.099L14082.4463,-4135.1294L14082.4523,-4135.1418L14082.4822,-4135.1772L14082.4941,-4135.1958L14082.4986,-4135.2111L14082.5001,-4135.2583L14082.5053,-4135.2679L14082.5106,-4135.2746L14082.5374,-4135.2989L14082.5591,-4135.3129L14082.6928,-4135.4047L14082.7159,-4135.4233L14082.7302,-4135.4384L14082.736,-4135.4492L14082.7488,-4135.4807L14082.745,-4135.4919L14082.7287,-4135.5116L14082.7054,-4135.5319L14082.6733,-4135.5623L14082.6599,-4135.5826L14082.6562,-4135.5932L14082.6554,-4135.6028L14082.6592,-4135.613L14082.686,-4135.64L14082.6935,-4135.6507L14082.6943,-4135.6688L14082.692,-4135.6772L14082.692,-4135.7047L14082.6958,-4135.7138L14082.7077,-4135.7317L14082.7377,-4135.7695L14082.7403,-4135.7716L14082.7413,-4135.7723L14082.7473,-4135.7796L14082.7757,-4135.8106L14082.7907,-4135.8302L14082.7973,-4135.8426L14082.7973,-4135.8556L14082.7943,-4135.8629L14082.7877,-4135.8714L14082.739,-4135.9158L14082.7398,-4135.9176L14082.7383,-4135.9248L14082.7383,-4135.9339L14082.7533,-4136.0172L14082.765,-4136.0717L14082.7733,-4136.0823L14082.7832,-4136.0891L14082.8005,-4136.0916L14082.8212,-4136.0909L14082.8368,-4136.0854L14082.8475,-4136.0767L14082.8599,-4136.0611L14082.8698,-4136.0329L14082.8758,-4136.0116L14082.8803,-4136.0036L14082.8937,-4135.9964L14082.9087,-4135.9964L14082.934,-4136.0116L14082.9505,-4136.042L14082.9586,-4136.0622L14082.9624,-4136.0791L14082.9661,-4136.1044L14082.9688,-4136.1159L14082.9762,-4136.1357L14082.9852,-4136.1475L14082.9894,-4136.1513L14082.996,-4136.1529L14083.0087,-4136.1529L14083.0379,-4136.1444L14083.055,-4136.1455L14083.0826,-4136.1539L14083.0954,-4136.1568L14083.1223,-4136.1653L14083.1372,-4136.172L14083.1447,-4136.1788L14083.1476,-4136.186L14083.147,-4136.1935L14083.138,-4136.1962L14083.132,-4136.1979L14083.1155,-4136.1979L14083.0849,-4136.1872L14083.0737,-4136.1839L14083.0476,-4136.1839L14082.9968,-4136.1934L14082.9819,-4136.1945L14082.9706,-4136.1929L14082.9624,-4136.1894L14082.943,-4136.1765L14082.9325,-4136.1658L14082.9273,-4136.1584L14082.9199,-4136.1376L14082.9169,-4136.1337L14082.9079,-4136.1292L14082.8966,-4136.1298L14082.8855,-4136.1337L14082.8825,-4136.1359L14082.869,-4136.1467L14082.8624,-4136.1562L14082.8564,-4136.1675L14082.8534,-4136.177L14082.8519,-4136.1788L14082.8541,-4136.186L14082.8735,-4136.2204L14082.8743,-4136.2621L14082.8795,-4136.2688L14082.9004,-4136.2863L14082.9139,-4136.3083L14082.9213,-4136.3251L14082.9265,-4136.3459L14082.9265,-4136.3651L14082.9243,-4136.3685L14082.9202,-4136.3754L14082.9189,-4136.3777L14082.8974,-4136.3949L14082.8959,-4136.3972L14082.881,-4136.4078L14082.8697,-4136.4174L14082.8519,-4136.4378L14082.8519,-4136.4535L14082.8571,-4136.4613L14082.8645,-4136.4642L14082.8795,-4136.4642L14082.8914,-4136.4563L14082.9213,-4136.4264L14082.934,-4136.4264L14082.9415,-4136.4288L14082.9536,-4136.4388L14082.9528,-4136.4507L14082.9415,-4136.4585L14082.9199,-4136.4743L14082.9131,-4136.4844L14082.9146,-4136.4866L14082.9154,-4136.4974L14082.9235,-4136.5019L14082.9325,-4136.5047L14082.949,-4136.5041L14082.9841,-4136.4918L14083.0005,-4136.4838L14083.005,-4136.4799L14083.0154,-4136.4687L14083.017,-4136.4625L14083.0154,-4136.4253L14083.01,-4136.3883L14083.0158,-4136.3802L14083.0257,-4136.3764L14083.0349,-4136.3758L14083.0431,-4136.3803L14083.0482,-4136.3825L14083.064,-4136.4L14083.07,-4136.4169L14083.0723,-4136.4439L14083.0737,-4136.4507L14083.0786,-4136.4838L14083.0837,-4136.5181L14083.0805,-4136.5334L14083.0745,-4136.5469L14083.0685,-4136.5559L14083.0527,-4136.5672L14083.0408,-4136.5737L14082.999,-4136.5965L14082.9885,-4136.6077L14082.9786,-4136.6232L14082.9753,-4136.6332L14082.9741,-4136.6445L14082.9746,-4136.6536L14082.9786,-4136.6757L14082.9844,-4136.7L14082.985,-4136.7126L14082.9827,-4136.7324L14082.9661,-4136.807L14082.9586,-4136.8453L14082.9556,-4136.8622L14082.9504,-4136.8701L14082.9475,-4136.8886L14082.9393,-4136.9061L14082.9303,-4136.9196L14082.9131,-4136.937L14082.869,-4136.9742L14082.8541,-4136.9911L14082.8481,-4137.0035L14082.8451,-4137.0125L14082.8444,-4137.0271L14082.8466,-4137.0407L14082.8489,-4137.0581L14082.8504,-4137.0936L14082.8459,-4137.1183L14082.8376,-4137.1481L14082.8324,-4137.1786L14082.8324,-4137.2146L14082.8519,-4137.2754L14082.8615,-4137.3013L14082.8692,-4137.3168L14082.8713,-4137.321L14082.8884,-4137.3441L14082.9026,-4137.3665L14082.9086,-4137.3789L14082.9086,-4137.4037L14082.8989,-4137.4308L14082.8787,-4137.469L14082.8773,-4137.4921L14082.881,-4137.5005L14082.8951,-4137.5209L14082.9199,-4137.5473L14082.937,-4137.5693L14082.9415,-4137.5789L14082.9452,-4137.5923L14082.9452,-4137.6109L14082.934,-4137.6457L14082.934,-4137.6739L14082.9437,-4137.7049L14082.9505,-4137.7128L14082.9609,-4137.7212L14082.9706,-4137.7274L14082.9834,-4137.7314L14082.996,-4137.7342L14083.0319,-4137.737L14083.0409,-4137.7482L14083.0446,-4137.7775L14083.0497,-4137.8191L14083.052,-4137.8321L14083.0602,-4137.8946L14083.0617,-4137.8986L14083.0625,-4137.9065L14083.0602,-4137.9132L14083.0569,-4137.9218L14083.0511,-4137.9261L14083.0364,-4137.9312L14082.9855,-4137.9459L14082.971,-4137.9521L14082.9624,-4137.9571L14082.9556,-4137.9622L14082.9437,-4137.9802L14082.9422,-4137.9808L14082.9422,-4138.0044L14082.9482,-4138.0315L14082.9482,-4138.0489L14082.9415,-4138.0663L14082.9342,-4138.0752L14082.8989,-4138.1181L14082.8832,-4138.1434L14082.8802,-4138.1524L14082.8802,-4138.1632L14082.8825,-4138.1739L14082.8892,-4138.1935L14082.8959,-4138.2189L14082.8951,-4138.2419L14082.8914,-4138.2544L14082.887,-4138.2617L14082.869,-4138.2797L14082.8624,-4138.2899L14082.8615,-4138.2977L14082.86,-4138.2989L14082.869,-4138.3101L14082.875,-4138.3152L14082.875,-4138.3169L14082.8787,-4138.3169L14082.8892,-4138.3191L14082.9101,-4138.3191L14082.9169,-4138.3179L14082.9407,-4138.3112L14082.9571,-4138.3089L14082.9751,-4138.3089L14082.9811,-4138.3101L14082.9907,-4138.3112L14083.0617,-4138.3112L14083.0782,-4138.314L14083.0841,-4138.3174L14083.0924,-4138.3253L14083.0939,-4138.3253L14083.0931,-4138.3275L14083.0946,-4138.3377L14083.0909,-4138.3461L14083.0775,-4138.3602L14083.061,-4138.3692L14083.0379,-4138.3771L14083.0229,-4138.3799L14083.0072,-4138.3822L14082.9796,-4138.3833L14082.9751,-4138.3828L14082.9475,-4138.3844L14082.9415,-4138.3861L14082.9079,-4138.4019L14082.8705,-4138.4114L14082.8534,-4138.4188L14082.8414,-4138.4267L14082.8361,-4138.4345L14082.8331,-4138.4453L14082.8331,-4138.4852L14082.8346,-4138.5038L14082.8317,-4138.5403L14082.8287,-4138.5561L14082.8122,-4138.6068L14082.8083,-4138.625L14082.8047,-4138.6417L14082.8047,-4138.6743L14082.8107,-4138.6992L14082.8137,-4138.7076L14082.8152,-4138.7087L14082.8227,-4138.7261L14082.8429,-4138.7594L14082.8496,-4138.7695L14082.8922,-4138.8354L14082.9154,-4138.868L14082.9362,-4138.9035L14082.9415,-4138.9119L14082.9616,-4138.9576L14082.9661,-4138.9721L14082.9892,-4139.0538L14083.0004,-4139.0915L14083.0161,-4139.1473L14083.0169,-4139.1523L14083.0296,-4139.1968L14083.0482,-4139.2509L14083.0587,-4139.2728L14083.0878,-4139.3207L14083.1154,-4139.3567L14083.1387,-4139.3899L14083.1438,-4139.4073L14083.1476,-4139.4698L14083.1476,-4139.4743L14083.1513,-4139.5154L14083.1618,-4139.5374L14083.1789,-4139.5638L14083.2059,-4139.5977L14083.2171,-4139.6213L14083.2216,-4139.6365L14083.2208,-4139.6703L14083.2133,-4139.6894L14083.1887,-4139.7243L14083.1752,-4139.7314L14083.1611,-4139.748L14083.1536,-4139.757L14083.1521,-4139.7575L14083.1528,-4139.766L14083.1543,-4139.7711L14083.1506,-4139.7772L14083.1626,-4139.7851L14083.1723,-4139.7941L14083.2171,-4139.8189L14083.2507,-4139.8369L14083.2603,-4139.8469L14083.2787,-4139.8558L14083.2866,-4139.8611L14083.3082,-4139.8836L14083.3254,-4139.9045L14083.3426,-4139.9231L14083.3502,-4139.9359L14083.3649,-4139.949L14083.3993,-4139.9895L14083.4106,-4140.0097L14083.4166,-4140.0261L14083.4166,-4140.0346L14083.4166,-4140.0396L14083.4136,-4140.0503L14083.4053,-4140.0689L14083.3792,-4140.1133L14083.3702,-4140.1381L14083.3576,-4140.1939L14083.3576,-4140.2248L14083.3619,-4140.2439L14083.3613,-4140.2631L14083.3568,-4140.2715L14083.3411,-4140.2895L14083.3349,-4140.2983L14083.3336,-4140.3002L14083.3254,-4140.3104L14083.3149,-4140.3267L14083.3104,-4140.3363L14083.3104,-4140.3391L14083.3104,-4140.3453L14083.3157,-4140.3577L14083.3299,-4140.3729L14083.3299,-4140.374L14083.3396,-4140.3847L14083.3546,-4140.4084L14083.3666,-4140.4337L14083.3724,-4140.446L14083.3814,-4140.4781L14083.3822,-4140.5238L14083.3852,-4140.5356L14083.4367,-4140.5497L14083.4896,-4140.5614L14083.5088,-4140.5655L14083.5189,-4140.5677L14083.5561,-4140.5778L14083.5943,-4140.5924L14083.6053,-4140.5988L14083.6166,-4140.6053L14083.6361,-4140.62L14083.6421,-4140.6257L14083.6518,-4140.6427L14083.657,-4140.6718L14083.6533,-4140.6786L14083.6376,-4140.6994L14083.6309,-4140.7117L14083.6279,-4140.7247L14083.6286,-4140.7388L14083.6354,-4140.7517L14083.6563,-4140.7799L14083.6608,-4140.7873L14083.6615,-4140.7968L14083.6518,-4140.821L14083.6465,-4140.8424L14083.6421,-4140.8706L14083.6391,-4140.8784L14083.6204,-4140.8976L14083.613,-4140.9105L14083.6093,-4140.9217L14083.6093,-4140.9381L14083.6108,-4140.9426L14083.6166,-4140.9516L14083.6309,-4140.9629L14083.6585,-4140.9809L14083.669,-4140.9916L14083.6743,-4141.0017L14083.6794,-4141.0197L14083.6831,-4141.0485L14083.6861,-4141.0704L14083.6921,-4141.0839L14083.7108,-4141.1047L14083.7235,-4141.1155L14083.7885,-4141.1498L14083.8071,-4141.165L14083.8378,-4141.2004L14083.8482,-4141.2151L14083.8684,-4141.2359L14083.9072,-4141.2736L14083.9349,-4141.3051L14083.9461,-4141.322L14083.9521,-4141.3355L14083.9566,-4141.3559L14083.9611,-4141.3812L14083.9611,-4141.411L14083.9607,-4141.4126L14083.9581,-4141.4217L14083.9536,-4141.4268L14083.914,-4141.4442L14083.902,-4141.4532L14083.896,-4141.4594L14083.8916,-4141.4684L14083.8886,-4141.478L14083.8879,-4141.5174L14083.8804,-4141.5323L14083.8676,-4141.5641L14083.849,-4141.5861L14083.8385,-4141.5985L14083.8341,-4141.6058L14083.8319,-4141.6288L14083.843,-4141.6367L14083.8729,-4141.648L14083.8826,-4141.6542L14083.8789,-4141.6733L14083.8781,-4141.6857L14083.8796,-4141.6919L14083.8789,-4141.6958L14083.8826,-4141.6998L14083.8871,-4141.7077L14083.905,-4141.7257L14083.9102,-4141.7375L14083.8998,-4141.7589L14083.8976,-4141.7713L14083.8982,-4141.7916L14083.8995,-4141.8066L14083.8986,-4141.8155L14083.8955,-4141.8265L14083.8881,-4141.8381L14083.8423,-4141.8935L14083.8392,-4141.8974L14083.8266,-4141.9182L14083.8243,-4141.9278L14083.8229,-4141.9451L14083.8276,-4141.9565L14083.838,-4141.9629L14083.8536,-4141.9646L14083.8784,-4141.9629L14083.9008,-4141.9532L14083.9082,-4141.9568L14083.9722,-4141.9386L14084.0251,-4141.9278L14084.0711,-4141.9216L14084.103,-4141.9189L14084.2147,-4141.91L14084.2566,-4141.9103L14084.2707,-4141.9121L14084.2803,-4141.9141L14084.2917,-4141.9168L14084.3179,-4141.9278L14084.3527,-4141.9419L14084.3871,-4141.947L14084.4057,-4141.9493L14084.4245,-4141.9532L14084.4791,-4141.9762L14084.5224,-4141.9932L14084.5493,-4141.9983L14084.5934,-4142.0028L14084.6189,-4142.0061L14084.6458,-4142.0055L14084.6698,-4142.0016L14084.6989,-4141.9915L14084.7288,-4141.9987L14084.7393,-4142.0032L14084.7543,-4142.0134L14084.7759,-4142.0343L14084.7892,-4142.0508"/>
<path content="3,下北交通（株）,大間病院ルート,2.0,0.0,0.0," xlink:title="3" d="M14084.8055,-4142.0377L14084.7892,-4142.0508"/>
<path content="3,下北交通（株）,大間病院ルート,2.0,0.0,0.0," xlink:title="3" d="M14084.7892,-4142.0508L14084.7939,-4142.0568L14084.8044,-4142.0731L14084.8097,-4142.0838L14084.8157,-4142.1091L14084.8247,-4142.1226L14084.8351,-4142.1322L14084.8456,-4142.1384L14084.8732,-4142.1502L14084.8829,-4142.1558L14084.9195,-4142.1862L14084.9488,-4142.2211L14084.9689,-4142.2493L14084.9975,-4142.2841"/>
<path content="3,下北交通（株）,大間病院ルート,2.0,0.0,0.0," xlink:title="3" d="M14085.0074,-4142.2767L14084.9975,-4142.2841"/>
<path content="3,下北交通（株）,大間病院ルート,2.0,0.0,0.0," xlink:title="3" d="M14084.9975,-4142.2841L14085.0145,-4142.3067L14085.0258,-4142.3388L14085.0273,-4142.3535L14085.0295,-4142.3619L14085.031,-4142.3845L14085.0325,-4142.3963L14085.0408,-4142.4638L14085.0483,-4142.5004L14085.0512,-4142.5083L14085.0617,-4142.5263L14085.0843,-4142.5479"/>
<path content="3,下北交通（株）,大間病院ルート,2.0,0.0,0.0," xlink:title="3" d="M14085.0914,-4142.5392L14085.0843,-4142.5479"/>
<path content="3,下北交通（株）,大間病院ルート,2.0,0.0,0.0," xlink:title="3" d="M14085.0843,-4142.5479L14085.0983,-4142.5584L14085.105,-4142.5629L14085.1305,-4142.5888L14085.1724,-4142.6373L14085.1882,-4142.6536L14085.2068,-4142.6665L14085.2875,-4142.7205L14085.3489,-4142.7668L14085.3602,-4142.7758"/>
<path content="3,下北交通（株）,大間病院ルート,2.0,0.0,0.0," xlink:title="3" d="M14085.3602,-4142.7758L14085.369,-4142.7649"/>
<path content="3,下北交通（株）,大間病院ルート,2.0,0.0,0.0," xlink:title="3" d="M14085.3602,-4142.7758L14085.4065,-4142.8129L14085.4259,-4142.8309L14085.4416,-4142.8467L14085.4619,-4142.8771L14085.5239,-4142.9486L14085.5561,-4142.9818L14085.577,-4142.9953L14085.592,-4143.0009L14085.6391,-4143.0133L14085.6832,-4143.028L14085.7379,-4143.0443L14085.7632,-4143.0533"/>
<path content="3,下北交通（株）,大間病院ルート,2.0,0.0,0.0," xlink:title="3" d="M14085.7632,-4143.0533L14085.7715,-4143.0417"/>
<path content="3,下北交通（株）,大間病院ルート,2.0,0.0,0.0," xlink:title="3" d="M14085.7632,-4143.0533L14085.7684,-4143.0546L14085.7797,-4143.0572L14085.7886,-4143.0612L14085.862,-4143.1028L14085.8844,-4143.1118L14085.9009,-4143.1164L14085.9256,-4143.1214L14085.9711,-4143.1322L14085.9944,-4143.1394L14086.0272,-4143.1563L14086.0437,-4143.1613L14086.0465,-4143.1623L14086.0839,-4143.1728L14086.1014,-4143.1772"/>
<path content="3,下北交通（株）,大間病院ルート,2.0,0.0,0.0," xlink:title="3" d="M14086.1014,-4143.1772L14086.1095,-4143.1383L14086.1387,-4143.1445L14086.1394,-4143.1323L14086.1571,-4143.0739"/>
<path content="3,下北交通（株）,大間病院ルート,2.0,0.0,0.0," xlink:title="3" d="M14086.1014,-4143.1772L14086.2412,-4143.1986L14086.2761,-4143.2023L14086.2808,-4143.2092L14086.2831,-4143.2158L14086.2818,-4143.2687L14086.3124,-4143.286L14086.3573,-4143.3114"/>
<path content="3,下北交通（株）,大間病院ルート,2.0,0.0,0.0," xlink:title="3" d="M14086.5488,-4143.281L14086.5822,-4143.238L14086.5844,-4143.2352L14086.5912,-4143.238L14086.6002,-4143.2425L14086.6092,-4143.2453L14086.6256,-4143.2538L14086.6922,-4143.283L14086.7213,-4143.2972L14086.7296,-4143.3005L14086.7423,-4143.2813L14086.7643,-4143.2568"/>
<path content="3,下北交通（株）,大間病院ルート,2.0,0.0,0.0," xlink:title="3" d="M14086.5488,-4143.281L14086.5786,-4143.2977L14086.5846,-4143.3018L14086.5819,-4143.3078L14086.5672,-4143.3258L14086.5261,-4143.3765L14086.5268,-4143.3867L14086.5463,-4143.4368L14086.5505,-4143.4492L14086.5658,-4143.4891L14086.5777,-4143.5184L14086.5874,-4143.5229L14086.6293,-4143.5358L14086.6428,-4143.5476L14086.7489,-4143.6558L14086.7652,-4143.6681L14086.7928,-4143.6829L14086.8471,-4143.7121L14086.8694,-4143.7239L14086.8896,-4143.7346"/>
<path content="3,下北交通（株）,大間病院ルート,2.0,0.0,0.0," xlink:title="3" d="M14086.3573,-4143.3114L14086.3727,-4143.3089L14086.4842,-4143.2628L14086.4894,-4143.2617L14086.5051,-4143.2612L14086.5456,-4143.2799L14086.5488,-4143.281"/>
<path content="3,下北交通（株）,大間病院ルート,2.0,0.0,0.0," xlink:title="3" d="M14086.3573,-4143.3114L14086.3433,-4143.3159L14086.3259,-4143.3174L14086.3054,-4143.3134L14086.2696,-4143.3005L14086.2262,-4143.283L14086.1969,-4143.274L14086.1693,-4143.2723L14086.1528,-4143.2729L14086.1312,-4143.2757L14086.1141,-4143.2793L14086.1232,-4143.3232"/>
<path content="3,下北交通（株）,大間病院ルート,2.0,0.0,0.0," xlink:title="3" d="M14086.8896,-4143.7346L14086.8994,-4143.7233"/>
<path content="3,下北交通（株）,大間病院ルート,2.0,0.0,0.0," xlink:title="3" d="M14086.8896,-4143.7346L14086.9331,-4143.7566L14086.9367,-4143.7582L14086.9457,-4143.7684L14086.9532,-4143.7931L14086.9637,-4143.8416L14086.9637,-4143.8421L14086.9652,-4143.8461L14086.9764,-4143.9052L14086.9858,-4143.9457L14087.0116,-4144.0617L14087.0153,-4144.0707L14087.0279,-4144.1107L14087.0715,-4144.1882L14087.0796,-4144.2306L14087.0976,-4144.261L14087.1133,-4144.2875L14087.1439,-4144.3344L14087.1482,-4144.3409L14087.1541,-4144.3498L14087.1656,-4144.3703L14087.1896,-4144.4153L14087.2083,-4144.4513L14087.2419,-4144.5177L14087.2643,-4144.5628L14087.2658,-4144.5639L14087.2714,-4144.5763L14087.3048,-4144.6399L14087.3144,-4144.6585L14087.3159,-4144.6596L14087.3432,-4144.7111L14087.3826,-4144.7807L14087.4167,-4144.8431L14087.4349,-4144.8764L14087.4783,-4144.9541L14087.4909,-4144.9732L14087.5344,-4145.0256L14087.5605,-4145.0605L14087.5713,-4145.0747L14087.5884,-4145.1032L14087.6114,-4145.1275L14087.6196,-4145.1365L14087.654,-4145.1607L14087.672,-4145.1708L14087.6854,-4145.1742L14087.7639,-4145.1843L14087.7909,-4145.1911L14087.8006,-4145.195L14087.8193,-4145.2074L14087.8518,-4145.2355L14087.8799,-4145.2598L14087.9233,-4145.2974L14087.933,-4145.3077L14087.9443,-4145.3218L14087.9576,-4145.3522L14087.9747,-4145.3952L14087.9786,-4145.4L14087.9988,-4145.4355L14088.0093,-4145.4568L14088.0115,-4145.467L14088.0115,-4145.5055L14088.0115,-4145.5621L14088.0143,-4145.616L14088.0145,-4145.6201L14088.016,-4145.6286L14088.0205,-4145.6798L14088.0265,-4145.7181L14088.0333,-4145.7316L14088.0601,-4145.7699L14088.1088,-4145.8307L14088.1679,-4145.8932L14088.1724,-4145.896L14088.1799,-4145.9034L14088.2008,-4145.9208L14088.2516,-4145.9518L14088.298,-4145.9692L14088.3172,-4145.977L14088.3623,-4145.9866L14088.3825,-4145.9951L14088.399,-4146.0035L14088.423,-4146.0199L14088.485,-4146.0621L14088.5156,-4146.0852L14088.5276,-4146.1009L14088.5389,-4146.1173L14088.5496,-4146.1338L14088.5758,-4146.1519L14088.5859,-4146.1669L14088.591,-4146.1849L14088.5997,-4146.2181L14088.6525,-4146.4106L14088.6921,-4146.5559L14088.6929,-4146.562L14088.7094,-4146.62L14088.7259,-4146.6791L14088.7347,-4146.7011L14088.752,-4146.7281L14088.7648,-4146.7416L14088.7954,-4146.7687L14088.8141,-4146.7827L14088.8283,-4146.79L14088.8448,-4146.7973L14088.8471,-4146.7979L14088.8896,-4146.8092L14088.9338,-4146.8148L14088.9914,-4146.821L14089.0085,-4146.8255L14089.0363,-4146.8384L14089.0706,-4146.8587L14089.099,-4146.8688L14089.1499,-4146.8902L14089.1746,-4146.9049L14089.1866,-4146.915L14089.191,-4146.9235L14089.1983,-4146.9393L14089.1985,-4146.957L14089.208,-4146.9848L14089.216,-4147.0236L14089.221,-4147.0456L14089.2225,-4147.0558L14089.2373,-4147.1194L14089.2433,-4147.1396L14089.2468,-4147.154L14089.2553,-4147.192L14089.2658,-4147.21L14089.2792,-4147.2229L14089.3697,-4147.2973L14089.3751,-4147.3044L14089.4573,-4147.3733L14089.4662,-4147.3818L14089.485,-4147.411L14089.5103,-4147.4684L14089.5151,-4147.4768L14089.5292,-4147.4881L14089.5442,-4147.4934L14089.6218,-4147.5093L14089.6517,-4147.5123L14089.6802,-4147.5186L14089.6974,-4147.527L14089.7078,-4147.5338L14089.7722,-4147.5873L14089.7893,-4147.5968L14089.8321,-4147.6137L14089.8499,-4147.6183L14089.8739,-4147.6222L14089.9346,-4147.6278L14089.9532,-4147.6295L14089.9667,-4147.6334L14089.9778,-4147.6373L14089.9921,-4147.6486L14090.0041,-4147.6633L14090.0705,-4147.8057L14090.0915,-4147.862L14090.0998,-4147.8755L14090.1573,-4147.9509L14090.2057,-4148.0189L14090.2089,-4148.0281L14090.2209,-4148.0484L14090.2307,-4148.068L14090.2389,-4148.0815L14090.2545,-4148.1154L14090.2658,-4148.1435L14090.271,-4148.1734L14090.2808,-4148.2043L14090.3227,-4148.2994L14090.3324,-4148.3237L14090.3353,-4148.3383L14090.339,-4148.4109L14090.3427,-4148.4374L14090.3428,-4148.4375"/>
<path content="3,下北交通（株）,川内病院ルート,2.0,0.0,0.0," xlink:title="3" d="M14097.6562,-4128.1177L14097.6487,-4128.1263L14097.6336,-4128.1461L14097.6225,-4128.164L14097.6222,-4128.165L14097.621,-4128.1691L14097.6133,-4128.1858L14097.5949,-4128.2259L14097.5836,-4128.248L14097.5817,-4128.2516L14097.5672,-4128.2789L14097.5549,-4128.2943L14097.5389,-4128.3144L14097.521,-4128.3353L14097.4904,-4128.3719L14097.4897,-4128.3746L14097.4839,-4128.3865L14097.4778,-4128.396L14097.4763,-4128.4012L14097.4546,-4128.4429L14097.4508,-4128.4513L14097.4345,-4128.4817L14097.4114,-4128.5256L14097.3912,-4128.5547L14097.3501,-4128.605L14097.333,-4128.6275L14097.3299,-4128.6298L14097.3122,-4128.655L14097.3107,-4128.6596L14097.3069,-4128.6634L14097.3062,-4128.6673L14097.3001,-4128.6771L14097.2958,-4128.6882L14097.2792,-4128.7221L14097.2741,-4128.7423L14097.2726,-4128.7557L14097.2753,-4128.7661L14097.278,-4128.7706L14097.2807,-4128.7751L14097.2901,-4128.782L14097.2917,-4128.7831L14097.2951,-4128.7855L14097.3129,-4128.7914L14097.3471,-4128.8025L14097.3508,-4128.8052L14097.3577,-4128.8098L14097.3637,-4128.8137L14097.3673,-4128.821L14097.3773,-4128.8437L14097.3806,-4128.8693L14097.3807,-4128.8701L14097.3815,-4128.8808L14097.3845,-4128.8931L14097.3847,-4128.8949L14097.3881,-4128.9201L14097.3881,-4128.9258L14097.3904,-4128.9314L14097.395,-4128.9543L14097.3963,-4128.9606L14097.3987,-4128.9753L14097.4023,-4128.9984L14097.4061,-4129.0266L14097.4084,-4129.0491L14097.4084,-4129.0846L14097.4054,-4129.1245L14097.397,-4129.1589L14097.3903,-4129.1751L14097.371,-4129.1971L14097.3427,-4129.2196L14097.3322,-4129.2264L14097.3106,-4129.2371L14097.3023,-4129.24L14097.2941,-4129.2444L14097.2457,-4129.2602L14097.2188,-4129.2692L14097.1777,-4129.2821L14097.151,-4129.2912L14097.1457,-4129.294L14097.1242,-4129.3019L14097.0792,-4129.3149L14097.0591,-4129.3187L14097.057,-4129.3199L14097.0353,-4129.3233L14097.0242,-4129.3249L14096.9079,-4129.3413L14096.8995,-4129.3436L14096.8496,-4129.3504L14096.8368,-4129.3525L14096.816,-4129.3554L14096.7668,-4129.3645L14096.739,-4129.3722L14096.7369,-4129.3738L14096.7358,-4129.3741L14096.7302,-4129.3756L14096.5482,-4129.4443L14096.4884,-4129.4668L14096.4607,-4129.4764L14096.3617,-4129.4966L14096.3407,-4129.5011L14096.1938,-4129.5298L14096.1806,-4129.5323L14096.0818,-4129.5512L14096.0805,-4129.5517L14096.0789,-4129.5523L14096.0646,-4129.5545L14096.0461,-4129.5614L14096.0328,-4129.5686L14096.0118,-4129.5855L14095.9975,-4129.6002L14095.9588,-4129.6464L14095.9518,-4129.6533L14095.9498,-4129.6553L14095.9289,-4129.6525L14095.902,-4129.6519L14095.8995,-4129.6518L14095.8383,-4129.6496L14095.7625,-4129.6468L14095.749,-4129.6458L14095.6909,-4129.6429L14095.6246,-4129.644L14095.5962,-4129.6474L14095.5857,-4129.6497L14095.5648,-4129.6536L14095.4821,-4129.6772L14095.4402,-4129.6874L14095.4238,-4129.6907L14095.3924,-4129.6964L14095.3663,-4129.6981L14095.3276,-4129.6936L14095.2962,-4129.6846L14095.2753,-4129.6761L14095.2522,-4129.6626L14095.2396,-4129.6547L14095.2172,-4129.6367L14095.2007,-4129.6192L14095.1454,-4129.5506L14095.1074,-4129.5095L14095.0776,-4129.4891L14095.0537,-4129.4756L14095.0127,-4129.4576L14094.9575,-4129.4402L14094.9202,-4129.429L14094.8723,-4129.4162L14094.8695,-4129.4155L14094.8456,-4129.4098L14094.83,-4129.4064L14094.7979,-4129.4025L14094.7375,-4129.4013L14094.7084,-4129.4031L14094.6599,-4129.4076L14094.5965,-4129.4143L14094.5659,-4129.4155L14094.5619,-4129.4157L14094.514,-4129.4185L14094.5091,-4129.4189L14094.4521,-4129.4195L14094.4431,-4129.4194L14094.4181,-4129.4188L14094.3875,-4129.4154L14094.3547,-4129.4092L14094.3346,-4129.403L14094.3256,-4129.4013L14094.3077,-4129.3957L14094.2704,-4129.3822L14094.2362,-4129.3664L14094.2145,-4129.3557L14094.2093,-4129.354L14094.1063,-4129.3062L14094.0995,-4129.3039L14094.0922,-4129.2994L14094.0742,-4129.2921L14094.0474,-4129.2791L14094.0422,-4129.2774L14093.9593,-4129.2398L14093.9079,-4129.2155L14093.8683,-4129.1998L14093.8362,-4129.1908L14093.8146,-4129.1874L14093.8123,-4129.1863L14093.7796,-4129.1818L14093.7617,-4129.1795L14093.7191,-4129.1755L14093.6967,-4129.1739L14093.6944,-4129.1727L14093.6602,-4129.1699L14093.6236,-4129.1659L14093.6012,-4129.162L14093.5811,-4129.1559L14093.5483,-4129.1418L14093.4498,-4129.0956L14093.4438,-4129.0939L14093.4294,-4129.0874L14093.3901,-4129.0697L14093.326,-4129.0399L14093.2797,-4129.0219L14093.2551,-4129.0156L14093.238,-4129.0117L14093.2193,-4129.0089L14093.2134,-4129.0089L14093.1835,-4129.0049L14093.1529,-4129.0033L14093.044,-4129.001L14093.0104,-4129.001L14092.9559,-4128.9998L14092.9373,-4128.9998L14092.8963,-4128.9982L14092.8776,-4128.9948L14092.8553,-4128.9863L14092.7925,-4128.9492L14092.7546,-4128.9261L14092.7456,-4128.9216L14092.6068,-4128.84L14092.5709,-4128.8248L14092.5419,-4128.8164L14092.5158,-4128.8084L14092.4987,-4128.8045L14092.4821,-4128.7983L14092.4673,-4128.7927L14092.4472,-4128.7837L14092.4218,-4128.7674L14092.3889,-4128.7414L14092.3606,-4128.72L14092.3397,-4128.7077L14092.3121,-4128.6947L14092.2726,-4128.6807L14092.2457,-4128.6705L14092.2136,-4128.6598L14092.1756,-4128.6424L14092.1562,-4128.6299L14092.1391,-4128.617L14092.1204,-4128.6013L14092.1134,-4128.5944L14092.101,-4128.5821L14092.0756,-4128.5495L14092.0532,-4128.5253L14092.0472,-4128.5174L14092.0384,-4128.5005L14092.0339,-4128.4841L14092.0301,-4128.4769L14092.0212,-4128.4661L14091.9869,-4128.4391L14091.966,-4128.4177L14091.9474,-4128.393L14091.925,-4128.357L14091.9137,-4128.3361L14091.8974,-4128.3091L14091.8847,-4128.29L14091.857,-4128.2438L14091.8527,-4128.2353L14091.8295,-4128.1886L14091.8145,-4128.1487L14091.8085,-4128.1334L14091.7937,-4128.098L14091.7869,-4128.08L14091.7803,-4128.0664L14091.7713,-4128.0433L14091.7661,-4128.031L14091.7534,-4127.9848L14091.7444,-4127.9561L14091.7437,-4127.9493L14091.7392,-4127.9381L14091.7296,-4127.9015L14091.7198,-4127.8779L14091.7124,-4127.8638L14091.6989,-4127.8474L14091.6848,-4127.8368L14091.6713,-4127.83L14091.6572,-4127.8255L14091.6549,-4127.8255L14091.6203,-4127.819L14091.6191,-4127.8188L14091.5893,-4127.8119L14091.5781,-4127.808L14091.5743,-4127.8058L14091.558,-4127.7917L14091.5378,-4127.7675L14091.5273,-4127.7596L14091.5102,-4127.7494L14091.4878,-4127.7427L14091.4655,-4127.7394L14091.4341,-4127.7394L14091.4117,-4127.745L14091.3767,-4127.7602L14091.3566,-4127.772L14091.32,-4127.7996L14091.2148,-4127.8812L14091.1858,-4127.8981L14091.167,-4127.9054L14091.1461,-4127.9111L14091.1275,-4127.9111L14091.114,-4127.9099L14091.0857,-4127.8958L14091.0551,-4127.8762L14091.0418,-4127.8694L14091.02,-4127.8615L14090.9991,-4127.8576L14090.9664,-4127.8576L14090.9425,-4127.8615L14090.9179,-4127.8677L14090.9074,-4127.8717L14090.8843,-4127.8778L14090.8551,-4127.8756L14090.8373,-4127.8615L14090.8239,-4127.8514L14090.8231,-4127.8497L14090.8081,-4127.8362L14090.7843,-4127.8108L14090.7671,-4127.79L14090.7277,-4127.7399L14090.7046,-4127.714L14090.6747,-4127.6875L14090.6717,-4127.6864L14090.6508,-4127.6724L14090.6307,-4127.6628L14090.6187,-4127.6594L14090.6031,-4127.6566L14090.5664,-4127.6521L14090.5367,-4127.6442L14090.5262,-4127.6425L14090.5083,-4127.638L14090.4777,-4127.6313L14090.4397,-4127.6245L14090.4076,-4127.6239L14090.3807,-4127.625L14090.3673,-4127.6273L14090.3561,-4127.6295L14090.3442,-4127.6307L14090.3204,-4127.6347L14090.3002,-4127.6374L14090.2848,-4127.6386L14090.2339,-4127.6424L14090.2246,-4127.6432L14090.1735,-4127.6449L14090.1697,-4127.645L14090.1077,-4127.6446L14090.1029,-4127.6439L14090.0965,-4127.6429L14090.0702,-4127.6389L14090.0346,-4127.6329L14089.9835,-4127.6216L14089.9466,-4127.6115L14089.9205,-4127.6059L14089.8966,-4127.6031L14089.8794,-4127.6031L14089.8585,-4127.6099L14089.8084,-4127.6423L14089.7829,-4127.6538L14089.7746,-4127.6574L14089.7445,-4127.6659L14089.7051,-4127.6705L14089.6935,-4127.6715L14089.6795,-4127.6685L14089.6751,-4127.6682L14089.5978,-4127.6524L14089.5893,-4127.6509L14089.5549,-4127.6448L14089.516,-4127.6319L14089.5012,-4127.6239L14089.4729,-4127.6048L14089.4325,-4127.5665L14089.4094,-4127.5429L14089.3818,-4127.5108L14089.3609,-4127.4809L14089.3453,-4127.4511L14089.3296,-4127.4117L14089.3281,-4127.4038L14089.3267,-4127.3909L14089.3279,-4127.3726L14089.3306,-4127.3262L14089.3311,-4127.312L14089.3289,-4127.3036L14089.3229,-4127.2929L14089.3094,-4127.2828L14089.2863,-4127.2692L14089.2639,-4127.2585L14089.2386,-4127.2495L14089.2289,-4127.2458L14089.2262,-4127.2447L14089.1903,-4127.2344L14089.178,-4127.2314L14089.1656,-4127.2287L14089.1088,-4127.2287L14089.0618,-4127.227L14089.0483,-4127.2248L14089.0416,-4127.2248L14089.0372,-4127.2236L14089.0237,-4127.223L14088.9872,-4127.2158L14088.9528,-4127.2079L14088.9403,-4127.2044L14088.9227,-4127.1983L14088.9054,-4127.1921L14088.8857,-4127.1864L14088.8745,-4127.1819L14088.8463,-4127.1684L14088.8261,-4127.1544L14088.8015,-4127.1347L14088.7903,-4127.1211L14088.7785,-4127.1039L14088.7735,-4127.0899L14088.7701,-4127.0761L14088.7671,-4127.0637L14088.7694,-4127.0193L14088.7724,-4127.0012L14088.7739,-4126.9967L14088.7769,-4126.9709L14088.7769,-4126.9596L14088.7769,-4126.9421L14088.7739,-4126.9168L14088.7656,-4126.8994L14088.7589,-4126.8914L14088.7581,-4126.888L14088.753,-4126.8813L14088.7045,-4126.8374L14088.688,-4126.8188L14088.6754,-4126.7952L14088.6724,-4126.7935L14088.6716,-4126.789L14088.6626,-4126.7693L14088.6553,-4126.7558L14088.6395,-4126.7321L14088.6261,-4126.7164L14088.6156,-4126.704L14088.6096,-4126.6984L14088.5851,-4126.6691L14088.5626,-4126.6482L14088.5396,-4126.6313L14088.5143,-4126.6173L14088.494,-4126.61L14088.4679,-4126.6043L14088.4239,-4126.6037L14088.3829,-4126.6083L14088.3501,-4126.6156L14088.3158,-4126.6269L14088.2643,-4126.6499L14088.2322,-4126.6634L14088.1957,-4126.6792L14088.1502,-4126.6933L14088.1427,-4126.6938L14088.1412,-4126.6955L14088.1374,-4126.6955L14088.1203,-4126.6994L14088.0874,-4126.7051L14088.0278,-4126.7084L14087.9763,-4126.7074L14087.9487,-4126.7036L14087.9277,-4126.6995L14087.9147,-4126.6946L14087.9071,-4126.6905L14087.8948,-4126.6824L14087.8926,-4126.6804L14087.8509,-4126.6449L14087.8421,-4126.6375L14087.8129,-4126.6133L14087.7928,-4126.5998L14087.7868,-4126.5975L14087.7749,-4126.5897L14087.7606,-4126.5853L14087.7546,-4126.5839L14087.6259,-4126.5421L14087.572,-4126.5254L14087.5459,-4126.5227L14087.5265,-4126.5209L14087.4914,-4126.5209L14087.4712,-4126.5232L14087.437,-4126.5328L14087.4197,-4126.5395L14087.3728,-4126.5603L14087.3109,-4126.5913L14087.2669,-4126.6144L14087.2609,-4126.6183L14087.2482,-4126.6234L14087.2214,-4126.6381L14087.2056,-4126.6454L14087.1862,-4126.6555L14087.1445,-4126.6764L14087.1176,-4126.6853L14087.1012,-4126.687L14087.0796,-4126.6876L14087.0422,-4126.6802L14086.999,-4126.6661L14086.9185,-4126.6251L14086.8708,-4126.602L14086.8618,-4126.5969L14086.849,-4126.5907L14086.8379,-4126.5851L14086.8364,-4126.5851L14086.8312,-4126.5817L14086.7648,-4126.5525L14086.7424,-4126.5446L14086.705,-4126.539L14086.6775,-4126.5378L14086.6477,-4126.5395L14086.6362,-4126.5419L14086.626,-4126.544L14086.6148,-4126.5468L14086.5424,-4126.5631L14086.5379,-4126.5648L14086.5261,-4126.5666L14086.5193,-4126.5688L14086.4909,-4126.5744L14086.4888,-4126.5756L14086.4783,-4126.5772L14086.4693,-4126.5801L14086.4619,-4126.5811L14086.4604,-4126.5823L14086.4358,-4126.5879L14086.4186,-4126.5907L14086.4112,-4126.5936L14086.3932,-4126.5969L14086.3723,-4126.602L14086.3657,-4126.6031L14086.3328,-4126.6104L14086.3142,-4126.6166L14086.2597,-4126.6273L14086.2358,-4126.6307L14086.2313,-4126.6301L14086.2276,-4126.6312L14086.1777,-4126.6329L14086.1131,-4126.6288L14086.0884,-4126.6275L14086.0111,-4126.6236L14085.9852,-4126.6228L14085.8225,-4126.616L14085.7531,-4126.6121L14085.7524,-4126.6127L14085.7136,-4126.6109L14085.5965,-4126.6053L14085.548,-4126.6047L14085.5264,-4126.6076L14085.5085,-4126.6137L14085.4592,-4126.6385L14085.4473,-4126.6442L14085.4398,-4126.6481L14085.4145,-4126.6605L14085.4032,-4126.6667L14085.3645,-4126.6858L14085.3384,-4126.6999L14085.3249,-4126.7055L14085.31,-4126.7134L14085.2728,-4126.732L14085.2048,-4126.7663L14085.1989,-4126.7702L14085.169,-4126.7843L14085.1474,-4126.7961L14085.116,-4126.8102L14085.0466,-4126.8463L14084.9728,-4126.8834L14084.963,-4126.8879L14084.9333,-4126.9009L14084.9191,-4126.9039L14084.9011,-4126.9076L14084.8691,-4126.9104L14084.8489,-4126.9093L14084.8422,-4126.9076L14084.8303,-4126.9064L14084.8043,-4126.9014L14084.7833,-4126.8974L14084.7064,-4126.8749L14084.6788,-4126.8648L14084.6289,-4126.8463L14084.5946,-4126.8355L14084.5707,-4126.831L14084.5371,-4126.831L14084.5282,-4126.8333L14084.5208,-4126.834L14084.5134,-4126.8353L14084.5127,-4126.8353L14084.4923,-4126.8423L14084.4662,-4126.853L14084.3902,-4126.8873L14084.3722,-4126.8946L14084.3671,-4126.8957L14084.3626,-4126.8986L14084.3513,-4126.9014L14084.3312,-4126.9082L14084.2998,-4126.9217L14084.2872,-4126.9284L14084.2364,-4126.9543L14084.2289,-4126.9571L14084.1984,-4126.9729L14084.1924,-4126.9768L14084.1744,-4126.9852L14084.1469,-4126.9987L14084.1208,-4127.0117L14084.0588,-4127.0432L14084.0558,-4127.0438L14084.0349,-4127.0556L14084.0238,-4127.0607L14084.0022,-4127.072L14083.9635,-4127.0906L14083.9067,-4127.1198L14083.8652,-4127.1402L14083.8597,-4127.1429L14083.8485,-4127.1496L14083.8209,-4127.1625L14083.8195,-4127.1643L14083.7836,-4127.1806L14083.7784,-4127.1845L14083.7687,-4127.1884L14083.765,-4127.1913L14083.7575,-4127.1947L14083.7366,-4127.2059L14083.7291,-4127.2087L14083.7261,-4127.211L14083.7105,-4127.2178L14083.6687,-4127.2403L14083.6657,-4127.2409L14083.6456,-4127.2509L14083.6396,-4127.2543L14083.6127,-4127.2678L14083.6112,-4127.2695L14083.603,-4127.2723L14083.5904,-4127.2791L14083.5389,-4127.3044L14083.5001,-4127.3236L14083.4785,-4127.3348L14083.4657,-4127.3432L14083.4539,-4127.3545L14083.4479,-4127.3624L14083.4322,-4127.3922L14083.4247,-4127.4187L14083.4099,-4127.4846L14083.4095,-4127.5412L14083.4091,-4127.5871L14083.4053,-4127.6152L14083.4016,-4127.6287L14083.3933,-4127.6512L14083.3829,-4127.6686L14083.3717,-4127.6822L14083.3508,-4127.7002L14083.3299,-4127.7114L14083.3121,-4127.7182L14083.2882,-4127.7255L14083.2493,-4127.7396L14083.2322,-4127.7474L14083.2106,-4127.7599L14083.1739,-4127.788L14083.1479,-4127.8144L14083.1412,-4127.8234L14083.1322,-4127.842L14083.1292,-4127.8567L14083.1307,-4127.8696L14083.1307,-4127.8983L14083.1292,-4127.9108L14083.1241,-4127.931L14083.1188,-4127.9388L14083.0994,-4127.9529L14083.0874,-4127.9569L14083.0688,-4127.9574L14083.0524,-4127.9529L14083.0442,-4127.9496L14083.0338,-4127.9396L14083.0216,-4127.9154L14083.0171,-4127.9064L14083.0141,-4127.9027L14083.0066,-4127.8934L14082.9964,-4127.8866L14082.9832,-4127.8816L14082.9688,-4127.8803L14082.9583,-4127.8808L14082.9464,-4127.8826L14082.9322,-4127.8877L14082.9121,-4127.8927L14082.8562,-4127.9079L14082.8039,-4127.9186L14082.7912,-4127.9203L14082.7599,-4127.9203L14082.7517,-4127.9186L14082.7502,-4127.9175L14082.7391,-4127.9147L14082.7279,-4127.9062L14082.7212,-4127.8927L14082.7196,-4127.8916L14082.7196,-4127.8837L14082.7252,-4127.8752L14082.7334,-4127.8628L14082.7875,-4127.8178L14082.795,-4127.8099L14082.8047,-4127.8009L14082.8249,-4127.7818L14082.8465,-4127.7554L14082.8532,-4127.7429L14082.8577,-4127.7244L14082.8577,-4127.7069L14082.8457,-4127.6923L14082.8369,-4127.6894L14082.8301,-4127.6894L14082.81,-4127.6929L14082.7905,-4127.7075L14082.7741,-4127.7255L14082.7535,-4127.7495L14082.7241,-4127.7717L14082.7025,-4127.779L14082.6899,-4127.7823L14082.6794,-4127.7858L14082.669,-4127.7874L14082.6459,-4127.7886L14082.5871,-4127.7933L14082.554,-4127.7958L14082.5306,-4127.7909L14082.5176,-4127.7848L14082.512,-4127.7745L14082.5112,-4127.7501L14082.5112,-4127.7458L14082.5346,-4127.6899L14082.5444,-4127.6734L14082.5596,-4127.638L14082.5651,-4127.6218L14082.5669,-4127.6094L14082.5661,-4127.5942L14082.5637,-4127.5802L14082.5564,-4127.5644L14082.5444,-4127.5425L14082.5406,-4127.5335L14082.5399,-4127.5284L14082.5384,-4127.5245L14082.5369,-4127.5178L14082.5406,-4127.4902L14082.5466,-4127.457L14082.5489,-4127.435L14082.5474,-4127.4181L14082.5436,-4127.4125L14082.5429,-4127.4086L14082.5346,-4127.4018L14082.5286,-4127.3967L14082.507,-4127.3883L14082.4966,-4127.3855L14082.4869,-4127.3821L14082.4713,-4127.3793L14082.4482,-4127.3771L14082.4153,-4127.3776L14082.4145,-4127.3798L14082.4004,-4127.3906L14082.4004,-4127.4041L14082.419,-4127.4322L14082.422,-4127.4361L14082.4361,-4127.4564L14082.4713,-4127.5059L14082.4839,-4127.5335L14082.4816,-4127.5521L14082.4713,-4127.5944L14082.4675,-4127.6202L14082.463,-4127.654L14082.4594,-4127.6726L14082.4571,-4127.6771L14082.4571,-4127.6804L14082.4474,-4127.7075L14082.4346,-4127.7306L14082.4197,-4127.7503L14082.3876,-4127.7829L14082.3757,-4127.7936L14082.3594,-4127.8105L14082.3489,-4127.8274L14082.3451,-4127.8381L14082.3406,-4127.8578L14082.3414,-4127.8826L14082.3444,-4127.9023L14082.3459,-4127.9135L14082.3444,-4127.9333L14082.3421,-4127.9423L14082.3287,-4127.9574L14082.3212,-4127.9625L14082.3154,-4127.9653L14082.2415,-4127.9906L14082.1989,-4128.007L14082.1489,-4128.0295L14082.1422,-4128.0323L14082.1097,-4128.0511L14082.0699,-4128.0756L14082.043,-4128.0971L14082.0236,-4128.1156L14082.0116,-4128.1297L14081.9826,-4128.1669L14081.9759,-4128.1764L14081.94,-4128.2181L14081.9199,-4128.2361L14081.905,-4128.2496L14081.8781,-4128.271L14081.8251,-4128.3144L14081.8065,-4128.3313L14081.7967,-4128.338L14081.7945,-4128.3414L14081.7602,-4128.3679L14081.7374,-4128.3873L14081.7019,-4128.4086L14081.672,-4128.422L14081.6319,-4128.4303L14081.5969,-4128.4359L14081.5931,-4128.4377L14081.5625,-4128.4422L14081.5469,-4128.4455L14081.5394,-4128.4467L14081.514,-4128.4557L14081.474,-4128.4787L14081.432,-4128.4584L14081.4184,-4128.4567L14081.4046,-4128.4579L14081.3752,-4128.4725L14081.3341,-4128.5035L14081.326,-4128.5063L14081.3119,-4128.5091L14081.3044,-4128.5103L14081.2342,-4128.5277L14081.1969,-4128.539L14081.1566,-4128.5463L14081.1387,-4128.5474L14081.1222,-4128.5513L14081.1104,-4128.5564L14081.0872,-4128.5778L14081.0731,-4128.5874L14081.0051,-4128.6212L14080.9739,-4128.6364L14080.9477,-4128.6516L14080.9126,-4128.6797L14080.7626,-4128.7625L14080.5904,-4128.856L14080.568,-4128.8689L14080.5456,-4128.8841L14080.5434,-4128.8869L14080.5379,-4128.8911L14080.518,-4128.9066L14080.5105,-4128.9111L14080.4829,-4128.9392L14080.4725,-4128.9482L14080.4688,-4128.95L14080.4643,-4128.955L14080.4479,-4128.9674L14080.4344,-4128.9804L14080.4165,-4128.9956L14080.3851,-4129.0254L14080.3851,-4129.0266L14080.3815,-4129.0293L14080.3501,-4129.0581L14080.3441,-4129.0637L14080.3278,-4129.0789L14080.3203,-4129.0879L14080.2979,-4129.12L14080.2814,-4129.1528"/>
<path content="3,下北交通（株）,川目・アルサスルート,1.0,0.0,0.0," xlink:title="3" d="M14085.7712,-4140.388L14085.8136,-4140.4134L14085.827,-4140.4241L14085.8456,-4140.4472L14085.9367,-4140.5831L14085.9502,-4140.6031L14086.0092,-4140.6932L14086.0137,-4140.6977L14086.0481,-4140.7479L14086.0645,-4140.7777L14086.075,-4140.8024L14086.0825,-4140.8261L14086.0855,-4140.8408L14086.0855,-4140.8756L14086.0757,-4140.9505L14086.0735,-4140.9736L14086.0682,-4141.0237L14086.0654,-4141.0383L14086.0667,-4141.0625L14086.0705,-4141.0794L14086.0825,-4141.1076L14086.0892,-4141.1172L14086.1019,-4141.1318L14086.1279,-4141.1605L14086.1369,-4141.1713L14086.1422,-4141.1757L14086.2872,-4141.3412L14086.3021,-4141.3592L14086.3284,-4141.3893L14086.3834,-4141.4521L14086.4037,-4141.4797L14086.4089,-4141.4893L14086.4133,-4141.5034L14086.4231,-4141.5247L14086.4379,-4141.5698L14086.4507,-4141.6216L14086.4582,-4141.6464L14086.4664,-4141.6807L14086.4776,-4141.724L14086.4986,-4141.8039L14086.5286,-4141.9279L14086.5411,-4141.992L14086.5433,-4142.0022L14086.5433,-4142.0179L14086.5351,-4142.0371L14086.5164,-4142.0686L14086.4566,-4142.1756L14086.4318,-4142.2189L14086.4244,-4142.2319L14086.4079,-4142.2634L14086.4049,-4142.2713L14086.4042,-4142.2808L14086.4117,-4142.3163L14086.4169,-4142.3361L14086.4154,-4142.3479L14086.4117,-4142.3563L14086.4019,-4142.371L14086.3989,-4142.3817L14086.4124,-4142.393L14086.3989,-4142.4092L14086.4034,-4142.4458L14086.4139,-4142.4976L14086.4288,-4142.559L14086.4281,-4142.599L14086.4214,-4142.6441L14086.4222,-4142.6637L14086.4304,-4142.6925L14086.4356,-4142.7156L14086.4408,-4142.7307L14086.4408,-4142.7527L14086.4371,-4142.7645L14086.4303,-4142.7796L14086.4258,-4142.793L14086.4184,-4142.8146L14086.4124,-4142.8371L14086.4094,-4142.854L14086.4034,-4142.8726L14086.3989,-4142.881L14086.3811,-4142.8968L14086.3287,-4142.9379L14086.3152,-4142.9498L14086.3077,-4142.9638L14086.2703,-4143.0803L14086.2599,-4143.1215L14086.2501,-4143.1608L14086.2412,-4143.1986L14086.2309,-4143.2415L14086.2818,-4143.2687L14086.3124,-4143.286L14086.3573,-4143.3114L14086.3433,-4143.3159L14086.3259,-4143.3174L14086.3054,-4143.3134L14086.2696,-4143.3005L14086.2262,-4143.283L14086.1969,-4143.274L14086.1693,-4143.2723L14086.1528,-4143.2729L14086.1312,-4143.2757L14086.1141,-4143.2793L14086.1232,-4143.3232"/>
<path content="3,外ケ浜町,平舘地区路線バス,6.0,6.0,6.0," xlink:title="3" d="M14063.3488,-4113.2812L14063.3588,-4113.3129L14063.3719,-4113.3519L14063.4115,-4113.4803L14063.4308,-4113.5424L14063.4481,-4113.5923L14063.4852,-4113.7067L14063.5057,-4113.7717L14063.5171,-4113.7973L14063.5298,-4113.8249L14063.5631,-4113.9248L14063.5752,-4113.9645L14063.5886,-4114.0022L14063.6086,-4114.0608L14063.6356,-4114.1456L14063.66,-4114.2274L14063.6659,-4114.2494L14063.6778,-4114.2865L14063.6987,-4114.3468L14063.7195,-4114.398L14063.7463,-4114.4594L14063.7597,-4114.4881L14063.7831,-4114.5366L14063.7913,-4114.5534L14063.7973,-4114.5677L14063.8028,-4114.5872L14063.8117,-4114.6412L14063.8177,-4114.6778L14063.8199,-4114.7032L14063.8288,-4114.7595L14063.8393,-4114.8264L14063.8432,-4114.847L14063.8474,-4114.8788L14063.8533,-4114.9153L14063.8593,-4114.9413L14063.8619,-4114.9984L14063.8682,-4115.0156L14063.8721,-4115.0316L14063.8727,-4115.0568L14063.8734,-4115.0862L14063.8756,-4115.1207L14063.8768,-4115.1614L14063.8753,-4115.1709L14063.8704,-4115.1807L14063.8632,-4115.1898L14063.8471,-4115.2056L14063.8357,-4115.2205L14063.8246,-4115.2377L14063.8179,-4115.2525L14063.812,-4115.2751L14063.8008,-4115.3153L14063.7991,-4115.3277L14063.7924,-4115.3823L14063.7914,-4115.4404L14063.7938,-4115.4683L14063.7968,-4115.4908L14063.8072,-4115.5606L14063.8122,-4115.5894L14063.8172,-4115.6086L14063.834,-4115.6738L14063.8523,-4115.7391L14063.8801,-4115.8382L14063.9037,-4115.9127L14063.9225,-4115.975L14063.9411,-4116.0341L14063.9768,-4116.1478L14063.9969,-4116.2159L14064.0438,-4116.3686L14064.0631,-4116.4288L14064.1022,-4116.5504L14064.1182,-4116.5999L14064.1338,-4116.6534L14064.1606,-4116.7334L14064.1833,-4116.8034L14064.2037,-4116.8696L14064.2233,-4116.9299L14064.2526,-4116.9968L14064.272,-4117.0734L14064.2742,-4117.0859L14064.2802,-4117.1235L14064.2817,-4117.1511L14064.2809,-4117.222L14064.2787,-4117.2446L14064.2749,-4117.2733L14064.2667,-4117.3071L14064.2489,-4117.3696L14064.2399,-4117.3988L14064.2377,-4117.4124L14064.2377,-4117.4225L14064.2414,-4117.4383L14064.2504,-4117.4665L14064.2532,-4117.4836L14064.2533,-4117.499L14064.2473,-4117.5125L14064.2443,-4117.5426L14064.2364,-4117.5771L14064.2324,-4117.6038L14064.2316,-4117.6287L14064.231,-4117.6477L14064.2287,-4117.6747L14064.2205,-4117.7046L14064.2012,-4117.7558L14064.1883,-4117.7874L14064.1788,-4117.8076L14064.1646,-4117.8453L14064.1365,-4117.9072L14064.1266,-4117.9258L14064.117,-4117.9466L14064.0886,-4118.0108L14064.0656,-4118.0547L14064.0536,-4118.075L14064.0141,-4118.1386L14063.9864,-4118.1763L14063.9694,-4118.1979L14063.9456,-4118.2281L14063.9158,-4118.2636L14063.8793,-4118.3053L14063.7996,-4118.3908L14063.7636,-4118.429L14063.7467,-4118.4444L14063.6714,-4118.5102L14063.6438,-4118.5372L14063.6215,-4118.5643L14063.6036,-4118.5884L14063.5849,-4118.6199L14063.5671,-4118.6453L14063.5469,-4118.6689L14063.5164,-4118.6993L14063.494,-4118.7189L14063.4449,-4118.7624L14063.4248,-4118.7827L14063.4062,-4118.8058L14063.3793,-4118.8435L14063.3644,-4118.8716L14063.3354,-4118.9392L14063.3294,-4118.9532L14063.3205,-4118.9696L14063.3093,-4118.9831L14063.2989,-4118.9932L14063.2713,-4119.0112L14063.2393,-4119.0315L14063.1981,-4119.0581L14063.1327,-4119.1013L14063.0992,-4119.125L14063.0783,-4119.1379L14063.0641,-4119.1447L14063.047,-4119.1497L14063.0306,-4119.1537L14062.9373,-4119.1911L14062.86,-4119.1925L14062.749,-4119.2173L14062.6842,-4119.2319L14062.6328,-4119.2466L14062.6052,-4119.2567L14062.5935,-4119.2626L14062.5702,-4119.2803L14062.5471,-4119.3034L14062.524,-4119.3288L14062.5083,-4119.3412L14062.5,-4119.3441"/>
</g>
</svg>
