<?xml version="1.0" encoding="UTF-8"?>
<svg  xmlns="http://www.w3.org/2000/svg" xmlns:xlink="http://www.w3.org/1999/xlink" xmlns:go="http://purl.org/svgmap/profile" property="N07_001,N07_002,N07_003,N07_004,N07_005,N07_006,N07_007" viewBox="13941.650390625 -3546.38671875 1.0986328125 1.0986328125" go:dataArea="13941.650390625 -3546.38671875 1.0986328125 1.0986328125" >
<metadata>
 <rdf:RDF xmlns:rdf="http://www.w3.org/1999/02/22-rdf-syntax-ns#" xmlns:crs="http://opengis.org/xmldtds/transformations.dtd" xmlns:svg="http://www.w3.org/svg" >
  <rdf:Description>
   <crs:CoordinateReferenceSystem rdf:resource="http://purl.org/crs/84" svg:transform="matrix(100.0,0.0,0.0,-100.0,0.0,0.0)" />
  </rdf:Description>
 </rdf:RDF>
</metadata>
<globalCoordinateSystem srsName="http://purl.org/crs/84" transform="matrix(100.0,0.0,0.0,-100.0,0.0,0.0)" />
<defs>
 <g id="p0" >
  <circle cx="0.0" cy="0.0" r="3" stroke="green" stroke-width="0.75" vector-effect="non-scaling-stroke" />
 </g>
</defs>
<g fill="none" fill-rule="evenodd" stroke="#FF00FF" stroke-width="0.75" opacity="0.5" vector-effect="non-scaling-stroke" stroke-linejoin="bevel" >
<path content="1,JRバステック（株）,名古屋系統（特急）,1.0,1.0,1.0," xlink:title="1" d="M13942.749,-3545.4726L13942.6812,-3545.3936L13942.6332,-3545.3425L13942.599,-3545.3056L13942.5976,-3545.304L13942.5817,-3545.2881"/>
<path content="1,JRバステック（株）,名古屋系統（超特急）,3.0,3.0,3.0," xlink:title="1" d="M13942.749,-3545.4726L13942.6812,-3545.3936L13942.6332,-3545.3425L13942.599,-3545.3056L13942.5976,-3545.304L13942.5817,-3545.2881"/>
<path content="1,JRバステック（株）,御殿場プレミアムアウトレット号新宿号,0.7,0.0,0.0," xlink:title="1" d="M13942.749,-3545.4726L13942.6812,-3545.3936L13942.6332,-3545.3425L13942.599,-3545.3056L13942.5976,-3545.304L13942.5817,-3545.2881"/>
<path content="1,JRバステック（株）,御殿場プレミアムアウトレット号東京号,0.7,0.0,0.0," xlink:title="1" d="M13942.5817,-3545.2881L13942.5976,-3545.304L13942.599,-3545.3056L13942.6332,-3545.3425L13942.6812,-3545.3936L13942.749,-3545.4726"/>
<path content="1,JRバス関東（株）,かぐや姫EXPRESS・ヤキソバEXPRESS,3.0,3.0,3.0," xlink:title="1" d="M13942.749,-3545.4726L13942.6812,-3545.3936L13942.6332,-3545.3425L13942.599,-3545.3056L13942.5976,-3545.304L13942.5817,-3545.2881"/>
<path content="1,JRバス関東（株）,しみずライナー,3.1,4.0,3.5," xlink:title="1" d="M13942.749,-3545.4726L13942.6812,-3545.3936L13942.6332,-3545.3425L13942.599,-3545.3056L13942.5976,-3545.304L13942.5817,-3545.2881"/>
<path content="1,JRバス関東（株）,ドリーム和歌山号,1.0,1.0,1.0," xlink:title="1" d="M13942.749,-3545.4726L13942.6812,-3545.3936L13942.6332,-3545.3425L13942.599,-3545.3056L13942.5976,-3545.304L13942.5817,-3545.2881"/>
<path content="1,JRバス関東（株）,ドリーム福井号,2.0,2.0,2.0," xlink:title="1" d="M13942.5817,-3545.2881L13942.5976,-3545.304L13942.599,-3545.3056L13942.6332,-3545.3425L13942.6812,-3545.3936L13942.749,-3545.4726"/>
<path content="1,JRバス関東（株）,ドリーム静岡・浜松号,2.0,2.0,2.0," xlink:title="1" d="M13942.5817,-3545.2881L13942.5976,-3545.304L13942.599,-3545.3056L13942.6332,-3545.3425L13942.6812,-3545.3936L13942.749,-3545.4726"/>
<path content="1,JRバス関東（株）,ドリーム高松号/松山号/徳島号/高知号,4.0,4.0,4.0," xlink:title="1" d="M13942.5817,-3545.2881L13942.5976,-3545.304L13942.599,-3545.3056L13942.6332,-3545.3425L13942.6812,-3545.3936L13942.749,-3545.4726"/>
<path content="1,JRバス関東（株）,プレミアム中央ドリーム号/中央ドリーム号/プレミアムドリーム号/ドリーム号/レディースドリーム号/プレミアムレディース,9.4,12.0,12.0," xlink:title="1" d="M13942.5817,-3545.2881L13942.5976,-3545.304L13942.599,-3545.3056L13942.6332,-3545.3425L13942.6812,-3545.3936L13942.749,-3545.4726"/>
<path content="1,JRバス関東（株）,御殿場プレミアム・アウトレット号,2.0,3.0,3.0," xlink:title="1" d="M13942.749,-3545.4726L13942.6812,-3545.3936L13942.6332,-3545.3425L13942.599,-3545.3056L13942.5976,-3545.304L13942.5817,-3545.2881"/>
<path content="1,JRバス関東（株）,新宿ドリーム三河・なごや号,1.0,1.0,1.0," xlink:title="1" d="M13942.749,-3545.4726L13942.6812,-3545.3936L13942.6332,-3545.3425L13942.599,-3545.3056L13942.5976,-3545.304L13942.5817,-3545.2881"/>
<path content="1,JRバス関東（株）,新宿ライナー三河・なごや号,1.0,1.0,1.0," xlink:title="1" d="M13942.5817,-3545.2881L13942.5976,-3545.304L13942.599,-3545.3056L13942.6332,-3545.3425L13942.6812,-3545.3936L13942.749,-3545.4726"/>
<path content="1,JRバス関東（株）,東京～山中湖畔・河口湖,4.0,5.0,5.0," xlink:title="1" d="M13942.749,-3545.4726L13942.6812,-3545.3936L13942.6332,-3545.3425L13942.599,-3545.3056L13942.5976,-3545.304L13942.5817,-3545.2881"/>
<path content="1,JRバス関東（株）,東名ハイウェイバス,8.0,8.0,8.0," xlink:title="1" d="M13942.749,-3545.4726L13942.6812,-3545.3936L13942.6332,-3545.3425L13942.599,-3545.3056L13942.5976,-3545.304L13942.5817,-3545.2881"/>
<path content="1,JRバス関東（株）,東海道昼特急号/中央道昼特急号/青春昼特急号/プレミアム昼特急号,7.2,9.0,9.0," xlink:title="1" d="M13942.749,-3545.4726L13942.6812,-3545.3936L13942.6332,-3545.3425L13942.599,-3545.3056L13942.5976,-3545.304L13942.5817,-3545.2881"/>
<path content="1,JRバス関東（株）,知多シーガール号,2.0,2.0,2.0," xlink:title="1" d="M13942.5817,-3545.2881L13942.5976,-3545.304L13942.599,-3545.3056L13942.6332,-3545.3425L13942.6812,-3545.3936L13942.749,-3545.4726"/>
<path content="1,JRバス関東（株）,青春中央ドリーム号/青春中央エコドリーム号/青春ドリーム号/青春レディースドリーム号/青春エコドリーム号/超得割青春号,10.0,14.0,14.0," xlink:title="1" d="M13942.749,-3545.4726L13942.6812,-3545.3936L13942.6332,-3545.3425L13942.599,-3545.3056L13942.5976,-3545.304L13942.5817,-3545.2881"/>
<path content="1,JRバス関東（株）,駿府ライナー,6.0,6.0,6.0," xlink:title="1" d="M13942.749,-3545.4726L13942.6812,-3545.3936L13942.6332,-3545.3425L13942.599,-3545.3056L13942.5976,-3545.304L13942.5817,-3545.2881"/>
<path content="1,JR四国バス（株）,ドリーム徳島号　阿南・徳島⇔新宿・東京・新木場,1.0,1.0,1.0," xlink:title="1" d="M13942.749,-3545.4726L13942.6811,-3545.3936L13942.6331,-3545.3425L13942.5961,-3545.3024L13942.5818,-3545.2881"/>
<path content="1,JR四国バス（株）,ドリーム高松・松山号　松山・高松⇔東京・東京ディズニーランド,1.0,1.0,1.0," xlink:title="1" d="M13942.749,-3545.4726L13942.6811,-3545.3936L13942.6331,-3545.3425L13942.5961,-3545.3024L13942.5818,-3545.2881"/>
<path content="1,JR四国バス（株）,ドリーム高松号　観音寺・高松⇔新宿・東京・新木場,1.0,1.0,1.0," xlink:title="1" d="M13942.749,-3545.4726L13942.6811,-3545.3936L13942.6331,-3545.3425L13942.5961,-3545.3024L13942.5818,-3545.2881"/>
<path content="1,JR四国バス（株）,ドリーム高知号　高知・徳島⇔東京・新木場,1.0,1.0,1.0," xlink:title="1" d="M13942.749,-3545.4726L13942.6811,-3545.3936L13942.6331,-3545.3425L13942.5961,-3545.3024L13942.5818,-3545.2881"/>
<path content="1,JR東海バス（株）,ドリームとよた号,1.0,1.0,1.0," xlink:title="1" d="M13942.5818,-3545.2881L13942.5961,-3545.3024L13942.6331,-3545.3425L13942.6811,-3545.3936L13942.749,-3545.4726"/>
<path content="1,JR東海バス（株）,ドリームなごや号_01_on,3.0,3.0,3.0," xlink:title="1" d="M13942.5818,-3545.2881L13942.5961,-3545.3024L13942.6331,-3545.3425L13942.6811,-3545.3936L13942.749,-3545.4726"/>
<path content="1,JR東海バス（株）,ドリームなごや号_02_on,3.0,3.0,3.0," xlink:title="1" d="M13942.5818,-3545.2881L13942.5961,-3545.3024L13942.6331,-3545.3425L13942.6811,-3545.3936L13942.749,-3545.4726"/>
<path content="1,JR東海バス（株）,ドリーム静岡・浜松号_01_on,2.0,2.0,2.0," xlink:title="1" d="M13942.749,-3545.4726L13942.6811,-3545.3936L13942.6331,-3545.3425L13942.5961,-3545.3024L13942.5818,-3545.2881"/>
<path content="1,JR東海バス（株）,ドリーム静岡・浜松号_02_on,2.0,2.0,2.0," xlink:title="1" d="M13942.749,-3545.4726L13942.6811,-3545.3936L13942.6331,-3545.3425L13942.5961,-3545.3024L13942.5818,-3545.2881"/>
<path content="1,JR東海バス（株）,ファンタジア号,1.0,1.0,1.0," xlink:title="1" d="M13942.5818,-3545.2881L13942.5961,-3545.3024L13942.6331,-3545.3425L13942.6811,-3545.3936L13942.749,-3545.4726"/>
<path content="1,JR東海バス（株）,レディースドリームなごや号,1.0,1.0,1.0," xlink:title="1" d="M13942.5818,-3545.2881L13942.5961,-3545.3024L13942.6331,-3545.3425L13942.6811,-3545.3936L13942.749,-3545.4726"/>
<path content="1,JR東海バス（株）,新宿ドリーム三河・なごや号,1.0,1.0,1.0," xlink:title="1" d="M13942.749,-3545.4726L13942.6811,-3545.3936L13942.6331,-3545.3425L13942.5961,-3545.3024L13942.5818,-3545.2881"/>
<path content="1,JR東海バス（株）,新宿ライナー三河・なごや号,1.0,1.0,1.0," xlink:title="1" d="M13942.749,-3545.4726L13942.6811,-3545.3936L13942.6331,-3545.3425L13942.5961,-3545.3024L13942.5818,-3545.2881"/>
<path content="1,JR東海バス（株）,東名ハイウェイバス_01_on,37.0,37.0,37.0," xlink:title="1" d="M13942.5818,-3545.2881L13942.5961,-3545.3024L13942.6331,-3545.3425L13942.6811,-3545.3936L13942.749,-3545.4726"/>
<path content="1,JR東海バス（株）,東名ハイウェイバス_03_on,37.0,37.0,37.0," xlink:title="1" d="M13942.5818,-3545.2881L13942.5961,-3545.3024L13942.6331,-3545.3425L13942.6811,-3545.3936L13942.749,-3545.4726"/>
<path content="1,JR東海バス（株）,渋谷・新宿ライナー浜松号,4.0,4.0,4.0," xlink:title="1" d="M13942.5818,-3545.2881L13942.5961,-3545.3024L13942.6331,-3545.3425L13942.6811,-3545.3936L13942.749,-3545.4726"/>
<path content="1,JR東海バス（株）,渋谷・新宿ライナー静岡号,8.0,8.0,8.0," xlink:title="1" d="M13942.5818,-3545.2881L13942.5961,-3545.3024L13942.6331,-3545.3425L13942.6811,-3545.3936L13942.749,-3545.4726"/>
<path content="1,JR東海バス（株）,青春ドリームなごや号,1.0,1.0,1.0," xlink:title="1" d="M13942.5818,-3545.2881L13942.5961,-3545.3024L13942.6331,-3545.3425L13942.6811,-3545.3936L13942.749,-3545.4726"/>
<path content="1,しずてつジャストライン（株）,新静岡新宿線,15.0,15.0,15.0," xlink:title="1" d="M13942.5818,-3545.2881L13942.5961,-3545.3024L13942.6331,-3545.3425L13942.6811,-3545.3936L13942.749,-3545.4726"/>
<path content="1,しずてつジャストライン（株）,東京清水線,5.0,5.0,5.0," xlink:title="1" d="M13942.5818,-3545.2881L13942.5961,-3545.3024L13942.6331,-3545.3425L13942.6811,-3545.3936L13942.749,-3545.4726"/>
<path content="1,しずてつジャストライン（株）,静岡成田空港線,1.0,1.0,1.0," xlink:title="1" d="M13942.5818,-3545.2881L13942.5961,-3545.3024L13942.6331,-3545.3425L13942.6811,-3545.3936L13942.749,-3545.4726"/>
<path content="1,しずてつジャストライン（株）,静岡横浜線,3.0,3.0,3.0," xlink:title="1" d="M13942.5818,-3545.2881L13942.5961,-3545.3024L13942.6331,-3545.3425L13942.6811,-3545.3936L13942.749,-3545.4726"/>
<path content="1,エムケイ（株）,MKナイトシャトル　京都・大阪⇔東京便,1.0,1.0,1.0," xlink:title="1" d="M13942.5818,-3545.2881L13942.5961,-3545.3024L13942.6331,-3545.3425L13942.6811,-3545.3936L13942.749,-3545.4726"/>
<path content="1,エムケイ（株）,MKナイトシャトル　名古屋・豊田⇔東京便,1.0,1.0,1.0," xlink:title="1" d="M13942.5818,-3545.2881L13942.5961,-3545.3024L13942.6331,-3545.3425L13942.6811,-3545.3936L13942.749,-3545.4726"/>
<path content="1,一畑バス（株）,東京～松江・出雲線,1.0,1.0,1.0," xlink:title="1" d="M13942.5818,-3545.2881L13942.5961,-3545.3024L13942.6331,-3545.3425L13942.6811,-3545.3936L13942.749,-3545.4726"/>
<path content="1,三重交通（株）,伊賀・四日市～横浜・品川,1.0,1.0,1.0," xlink:title="1" d="M13942.749,-3545.4726L13942.6811,-3545.3936L13942.6331,-3545.3425L13942.5961,-3545.3024L13942.5818,-3545.2881"/>
<path content="1,三重交通（株）,勝浦・南紀～横浜・東京・大宮,1.0,1.0,1.0," xlink:title="1" d="M13942.5818,-3545.2881L13942.5961,-3545.3024L13942.6331,-3545.3425L13942.6811,-3545.3936L13942.749,-3545.4726"/>
<path content="1,両備ホールディングス（株）,ままかりライナー　倉敷・岡山～東京駅八重洲通り線,1.0,1.0,1.0," xlink:title="1" d="M13942.5818,-3545.2881L13942.5961,-3545.3024L13942.6331,-3545.3425L13942.6811,-3545.3936L13942.749,-3545.4726"/>
<path content="1,両備ホールディングス（株）,ルブラン　倉敷・岡山・津山～東京線,1.0,1.0,1.0," xlink:title="1" d="M13942.5818,-3545.2881L13942.5961,-3545.3024L13942.6331,-3545.3425L13942.6811,-3545.3936L13942.749,-3545.4726"/>
<path content="1,中国JRバス（株）,広島～東京　ニューブリーズ号,2.0,2.0,2.0," xlink:title="1" d="M13942.5818,-3545.2881L13942.5961,-3545.3024L13942.6331,-3545.3425L13942.6811,-3545.3936L13942.749,-3545.4726"/>
<path content="1,京成バス（株）,ファンタジアなごや号,0.5,0.5,0.5," xlink:title="1" d="M13942.5817,-3545.2881L13942.5976,-3545.304L13942.599,-3545.3056L13942.6332,-3545.3425L13942.6812,-3545.3936L13942.749,-3545.4726"/>
<path content="1,京成バス（株）,奈良～上野・東京ディズニーリゾート,0.5,0.5,0.5," xlink:title="1" d="M13942.5817,-3545.2881L13942.5976,-3545.304L13942.599,-3545.3056L13942.6332,-3545.3425L13942.6812,-3545.3936L13942.749,-3545.4726"/>
<path content="1,京成バス（株）,成田空港～新富士駅・沼津駅,2.0,2.0,2.0," xlink:title="1" d="M13942.5817,-3545.2881L13942.5976,-3545.304L13942.599,-3545.3056L13942.6332,-3545.3425L13942.6812,-3545.3936L13942.749,-3545.4726"/>
<path content="1,京成バス（株）,成田空港～本厚木駅・平塚（田村車庫）,3.5,3.5,3.5," xlink:title="1" d="M13942.5817,-3545.2881L13942.5976,-3545.304L13942.599,-3545.3056L13942.6332,-3545.3425L13942.6812,-3545.3936L13942.749,-3545.4726"/>
<path content="1,京成バス（株）,神戸・大阪～東京ディズニーリゾート・海浜幕張・千葉中央駅,0.5,0.5,0.5," xlink:title="1" d="M13942.5817,-3545.2881L13942.5976,-3545.304L13942.599,-3545.3056L13942.6332,-3545.3425L13942.6812,-3545.3936L13942.749,-3545.4726"/>
<path content="1,京浜急行バス（株）,エディ号,2.0,2.0,2.0," xlink:title="1" d="M13942.5817,-3545.2881L13942.5976,-3545.304L13942.599,-3545.3056L13942.6332,-3545.3425L13942.6812,-3545.3936L13942.749,-3545.4726"/>
<path content="1,京浜急行バス（株）,キャメル号,1.0,1.0,1.0," xlink:title="1" d="M13942.749,-3545.4726L13942.6812,-3545.3936L13942.6332,-3545.3425L13942.599,-3545.3056L13942.5976,-3545.304L13942.5817,-3545.2881"/>
<path content="1,京浜急行バス（株）,シルフィード号,1.0,1.0,1.0," xlink:title="1" d="M13942.5817,-3545.2881L13942.5976,-3545.304L13942.599,-3545.3056L13942.6332,-3545.3425L13942.6812,-3545.3936L13942.749,-3545.4726"/>
<path content="1,京浜急行バス（株）,パイレーツ号,1.0,1.0,1.0," xlink:title="1" d="M13942.5817,-3545.2881L13942.5976,-3545.304L13942.599,-3545.3056L13942.6332,-3545.3425L13942.6812,-3545.3936L13942.749,-3545.4726"/>
<path content="1,京浜急行バス（株）,ルプラン号,1.0,1.0,1.0," xlink:title="1" d="M13942.5817,-3545.2881L13942.5976,-3545.304L13942.599,-3545.3056L13942.6332,-3545.3425L13942.6812,-3545.3936L13942.749,-3545.4726"/>
<path content="1,京浜急行バス（株）,御殿場・箱根桃源台～羽田空港線,4.0,4.0,4.0," xlink:title="1" d="M13942.5817,-3545.2881L13942.5976,-3545.304L13942.599,-3545.3056L13942.6332,-3545.3425L13942.6812,-3545.3936L13942.749,-3545.4726"/>
<path content="1,京浜急行バス（株）,新富士駅・富士宮駅～羽田空港線,2.0,2.0,2.0," xlink:title="1" d="M13942.5817,-3545.2881L13942.5976,-3545.304L13942.599,-3545.3056L13942.6332,-3545.3425L13942.6812,-3545.3936L13942.749,-3545.4726"/>
<path content="1,京浜急行バス（株）,本厚木駅・田村車庫～羽田空港線,6.5,6.5,6.5," xlink:title="1" d="M13942.749,-3545.4726L13942.6812,-3545.3936L13942.6332,-3545.3425L13942.599,-3545.3056L13942.5976,-3545.304L13942.5817,-3545.2881"/>
<path content="1,京王バス南（株）,新宿・渋谷～三島・沼津線,1.0,1.0,1.0," xlink:title="1" d="M13942.5817,-3545.2881L13942.5976,-3545.304L13942.599,-3545.3056L13942.6332,-3545.3425L13942.6812,-3545.3936L13942.749,-3545.4726"/>
<path content="1,京王バス南（株）,新宿・渋谷～浜松線,1.0,1.0,1.0," xlink:title="1" d="M13942.5817,-3545.2881L13942.5976,-3545.304L13942.599,-3545.3056L13942.6332,-3545.3425L13942.6812,-3545.3936L13942.749,-3545.4726"/>
<path content="1,京王バス南（株）,新宿・渋谷～神戸姫路線,1.0,1.0,1.0," xlink:title="1" d="M13942.5817,-3545.2881L13942.5976,-3545.304L13942.599,-3545.3056L13942.6332,-3545.3425L13942.6812,-3545.3936L13942.749,-3545.4726"/>
<path content="1,京王バス南（株）,新宿・渋谷～静岡線,3.0,3.0,3.0," xlink:title="1" d="M13942.5817,-3545.2881L13942.5976,-3545.304L13942.599,-3545.3056L13942.6332,-3545.3425L13942.6812,-3545.3936L13942.749,-3545.4726"/>
<path content="1,京福バス（株）,東京線,3.0,3.0,3.0," xlink:title="1" d="M13942.5818,-3545.2881L13942.5961,-3545.3024L13942.6331,-3545.3425L13942.6811,-3545.3936L13942.749,-3545.4726"/>
<path content="1,京都交通（株）,舞鶴・綾部・福知山～東京,1.0,1.0,1.0," xlink:title="1" d="M13942.5818,-3545.2881L13942.5961,-3545.3024L13942.6331,-3545.3425L13942.6811,-3545.3936L13942.749,-3545.4726"/>
<path content="1,京阪バス（株）,京都・大津⇔上野・TDR・千葉,1.0,1.0,1.0," xlink:title="1" d="M13942.5818,-3545.2881L13942.5961,-3545.3024L13942.6331,-3545.3425L13942.6811,-3545.3936L13942.749,-3545.4726"/>
<path content="1,京阪バス（株）,枚方・京都⇔渋谷・新宿,1.0,1.0,1.0," xlink:title="1" d="M13942.5818,-3545.2881L13942.5961,-3545.3024L13942.6331,-3545.3425L13942.6811,-3545.3936L13942.749,-3545.4726"/>
<path content="1,北陸鉄道（株）,高速バス　金沢⇔横浜,1.0,1.0,1.0," xlink:title="1" d="M13942.749,-3545.4726L13942.6811,-3545.3936L13942.6331,-3545.3425L13942.5961,-3545.3024L13942.5818,-3545.2881"/>
<path content="1,千葉中央バス,京都～上野・東京ディズニーリゾート,1.0,1.0,1.0," xlink:title="1" d="M13942.5817,-3545.2881L13942.5976,-3545.304L13942.599,-3545.3056L13942.6332,-3545.3425L13942.6812,-3545.3936L13942.749,-3545.4726"/>
<path content="1,千葉交通,大阪なんば・京都駅～成田・銚子線,1.0,1.0,1.0," xlink:title="1" d="M13942.5817,-3545.2881L13942.5976,-3545.304L13942.599,-3545.3056L13942.6332,-3545.3425L13942.6812,-3545.3936L13942.749,-3545.4726"/>
<path content="1,南海バス（株）,和歌山・和泉中央・堺東⇔新宿・東京,1.0,1.0,1.0," xlink:title="1" d="M13942.5818,-3545.2881L13942.5961,-3545.3024L13942.6331,-3545.3425L13942.6811,-3545.3936L13942.749,-3545.4726"/>
<path content="1,南海バス（株）,堺・大阪（なんば）⇔新宿・東京,1.0,1.0,1.0," xlink:title="1" d="M13942.5818,-3545.2881L13942.5961,-3545.3024L13942.6331,-3545.3425L13942.6811,-3545.3936L13942.749,-3545.4726"/>
<path content="1,南海バス（株）,大阪（なんば）・京都⇔秋葉原・成田空港・銚子,1.0,1.0,1.0," xlink:title="1" d="M13942.5818,-3545.2881L13942.5961,-3545.3024L13942.6331,-3545.3425L13942.6811,-3545.3936L13942.749,-3545.4726"/>
<path content="1,名鉄バス（株）,名古屋～仙台,1.0,1.0,1.0," xlink:title="1" d="M13942.749,-3545.4726L13942.6811,-3545.3936L13942.6331,-3545.3425L13942.5961,-3545.3024L13942.5818,-3545.2881"/>
<path content="1,和歌山バス（株）,サウスウエーブ号和歌山・堺⇔横浜・上野・東京ディズニーリゾート・海浜幕張,1.0,1.0,1.0," xlink:title="1" d="M13942.5818,-3545.2881L13942.5961,-3545.3024L13942.6331,-3545.3425L13942.6811,-3545.3936L13942.749,-3545.4726"/>
<path content="1,四国高速バス（株）,ハローブリッジ号　善通寺・坂出⇔横浜・新宿・八王子,1.0,1.0,1.0," xlink:title="1" d="M13942.5818,-3545.2881L13942.5961,-3545.3024L13942.6331,-3545.3425L13942.6811,-3545.3936L13942.749,-3545.4726"/>
<path content="1,土佐電気鉄道（株）,ブルーメッツ号　高知⇔東京線,1.0,1.0,1.0," xlink:title="1" d="M13942.5818,-3545.2881L13942.5961,-3545.3024L13942.6331,-3545.3425L13942.6811,-3545.3936L13942.749,-3545.4726"/>
<path content="1,奈良交通（株）,やまと号　五條-新宿線,1.0,1.0,1.0," xlink:title="1" d="M13942.5818,-3545.2881L13942.5961,-3545.3024L13942.6331,-3545.3425L13942.6811,-3545.3936L13942.749,-3545.4726"/>
<path content="1,奈良交通（株）,やまと号　奈良-新宿線,1.0,1.0,1.0," xlink:title="1" d="M13942.5818,-3545.2881L13942.5961,-3545.3024L13942.6331,-3545.3425L13942.6811,-3545.3936L13942.749,-3545.4726"/>
<path content="1,奈良交通（株）,やまと号　奈良-東京ディズニーリゾート・横浜線,1.0,1.0,1.0," xlink:title="1" d="M13942.5818,-3545.2881L13942.5961,-3545.3024L13942.6331,-3545.3425L13942.6811,-3545.3936L13942.749,-3545.4726"/>
<path content="1,宇和島自動車（株）,宇和島・松山⇔横浜・池袋・大宮,1.0,1.0,1.0," xlink:title="1" d="M13942.5818,-3545.2881L13942.5961,-3545.3024L13942.6331,-3545.3425L13942.6811,-3545.3936L13942.749,-3545.4726"/>
<path content="1,宮城交通（株）,仙台～名古屋線,1.0,1.0,1.0," xlink:title="1" d="M13942.5817,-3545.2881L13942.5976,-3545.304L13942.599,-3545.3056L13942.6332,-3545.3425L13942.6812,-3545.3936L13942.749,-3545.4726"/>
<path content="1,宮城交通（株）,仙台～大阪線,1.0,1.0,1.0," xlink:title="1" d="M13942.749,-3545.4726L13942.6812,-3545.3936L13942.6332,-3545.3425L13942.599,-3545.3056L13942.5976,-3545.304L13942.5817,-3545.2881"/>
<path content="1,富士急シティバス（株）,さんさんぬまづ・新宿号,2.5,2.5,2.5," xlink:title="1" d="M13942.5818,-3545.2881L13942.5961,-3545.3024L13942.6331,-3545.3425L13942.6811,-3545.3936L13942.749,-3545.4726"/>
<path content="1,富士急シティバス（株）,さんさんぬまづ・東京号,3.0,3.0,3.0," xlink:title="1" d="M13942.5818,-3545.2881L13942.5961,-3545.3024L13942.6331,-3545.3425L13942.6811,-3545.3936L13942.749,-3545.4726"/>
<path content="1,富士急シティバス（株）,みしまコロッケ号,1.5,1.5,1.5," xlink:title="1" d="M13942.5818,-3545.2881L13942.5961,-3545.3024L13942.6331,-3545.3425L13942.6811,-3545.3936L13942.749,-3545.4726"/>
<path content="1,富士急湘南バス（株）,小田原～成田空港線,3.0,3.0,3.0," xlink:title="1" d="M13942.5817,-3545.2881L13942.5976,-3545.304L13942.599,-3545.3056L13942.6332,-3545.3425L13942.6812,-3545.3936L13942.749,-3545.4726"/>
<path content="1,富士急行（株）,かぐや姫EXPRESS,3.0,3.0,3.0," xlink:title="1" d="M13942.5817,-3545.2881L13942.5976,-3545.304L13942.599,-3545.3056L13942.6332,-3545.3425L13942.6812,-3545.3936L13942.749,-3545.4726"/>
<path content="1,富士急行（株）,みしまコロッケ号,1.5,1.5,1.5," xlink:title="1" d="M13942.5817,-3545.2881L13942.5976,-3545.304L13942.599,-3545.3056L13942.6332,-3545.3425L13942.6812,-3545.3936L13942.749,-3545.4726"/>
<path content="1,富士急行（株）,ヤキソバEXPRESS,5.5,6.0,6.0," xlink:title="1" d="M13942.5817,-3545.2881L13942.5976,-3545.304L13942.599,-3545.3056L13942.6332,-3545.3425L13942.6812,-3545.3936L13942.749,-3545.4726"/>
<path content="1,富士急行（株）,レイクライナー,3.2,3.2,3.2," xlink:title="1" d="M13942.5817,-3545.2881L13942.5976,-3545.304L13942.599,-3545.3056L13942.6332,-3545.3425L13942.6812,-3545.3936L13942.749,-3545.4726"/>
<path content="1,富士急行（株）,富士宮・富士・沼津～羽田空港・横浜線,2.0,2.0,2.0," xlink:title="1" d="M13942.5817,-3545.2881L13942.5976,-3545.304L13942.599,-3545.3056L13942.6332,-3545.3425L13942.6812,-3545.3936L13942.749,-3545.4726"/>
<path content="1,富士急行（株）,小田原～成田空港線,3.0,3.0,3.0," xlink:title="1" d="M13942.5818,-3545.2881L13942.5961,-3545.3024L13942.5976,-3545.304L13942.599,-3545.3056L13942.6332,-3545.3425L13942.6812,-3545.3936L13942.749,-3545.4726"/>
<path content="1,富士急行（株）,御殿場プレミアム・アウトレット～横浜線,0.0,1.0,1.0," xlink:title="1" d="M13942.5817,-3545.2881L13942.5976,-3545.304L13942.599,-3545.3056L13942.6332,-3545.3425L13942.6812,-3545.3936L13942.749,-3545.4726"/>
<path content="1,富士急行（株）,新富士・沼津・御殿場～成田空港線,2.0,2.0,2.0," xlink:title="1" d="M13942.5817,-3545.2881L13942.5976,-3545.304L13942.599,-3545.3056L13942.6332,-3545.3425L13942.6812,-3545.3936L13942.749,-3545.4726"/>
<path content="1,富士急行（株）,早朝線東京ライナー,0.0,0.0,0.0," xlink:title="1" d="M13942.5817,-3545.2881L13942.5976,-3545.304L13942.599,-3545.3056L13942.6332,-3545.3425L13942.6812,-3545.3936L13942.749,-3545.4726"/>
<path content="1,富士急行（株）,河口湖～東京・市が尾線,8.2,10.0,10.0," xlink:title="1" d="M13942.5817,-3545.2881L13942.5976,-3545.304L13942.599,-3545.3056L13942.6332,-3545.3425L13942.6812,-3545.3936L13942.749,-3545.4726"/>
<path content="1,富士急行（株）,沼津～新宿・渋谷線,2.5,2.5,2.5," xlink:title="1" d="M13942.5817,-3545.2881L13942.5976,-3545.304L13942.599,-3545.3056L13942.6332,-3545.3425L13942.6812,-3545.3936L13942.749,-3545.4726"/>
<path content="1,富士急行（株）,沼津～東京線,3.0,3.0,3.0," xlink:title="1" d="M13942.5817,-3545.2881L13942.5976,-3545.304L13942.599,-3545.3056L13942.6332,-3545.3425L13942.6812,-3545.3936L13942.749,-3545.4726"/>
<path content="1,富士急静岡バス（株）,かぐや姫EXPRESS,2.5,1.0,1.0," xlink:title="1" d="M13942.5818,-3545.2881L13942.5961,-3545.3024L13942.6331,-3545.3425L13942.6811,-3545.3936L13942.749,-3545.4726"/>
<path content="1,富士急静岡バス（株）,ヤキソバEXPRESS,5.5,3.0,3.0," xlink:title="1" d="M13942.5818,-3545.2881L13942.5961,-3545.3024L13942.6331,-3545.3425L13942.6811,-3545.3936L13942.749,-3545.4726"/>
<path content="1,富士急静岡バス（株）,富士宮・富士・沼津～羽田空港・横浜線,4.0,4.0,4.0," xlink:title="1" d="M13942.5818,-3545.2881L13942.5961,-3545.3024L13942.6331,-3545.3425L13942.6811,-3545.3936L13942.749,-3545.4726"/>
<path content="1,富士急静岡バス（株）,新富士・沼津・御殿場～成田空港線,2.0,2.0,2.0," xlink:title="1" d="M13942.5818,-3545.2881L13942.5961,-3545.3024L13942.6331,-3545.3425L13942.6811,-3545.3936L13942.749,-3545.4726"/>
<path content="1,小田急シティバス（株）,しまんとエクスプレス号,0.1,0.1,0.1," xlink:title="1" d="M13942.5817,-3545.2881L13942.5976,-3545.304L13942.599,-3545.3056L13942.6332,-3545.3425L13942.6812,-3545.3936L13942.749,-3545.4726"/>
<path content="1,小田急シティバス（株）,エトワールセト号,1.0,1.0,1.0," xlink:title="1" d="M13942.5817,-3545.2881L13942.5976,-3545.304L13942.599,-3545.3056L13942.6332,-3545.3425L13942.6812,-3545.3936L13942.749,-3545.4726"/>
<path content="1,小田急シティバス（株）,ニューブリーズ号,2.0,2.0,2.0," xlink:title="1" d="M13942.5817,-3545.2881L13942.5976,-3545.304L13942.599,-3545.3056L13942.6332,-3545.3425L13942.6812,-3545.3936L13942.749,-3545.4726"/>
<path content="1,小田急シティバス（株）,パピヨン号,1.0,1.0,1.0," xlink:title="1" d="M13942.5817,-3545.2881L13942.5976,-3545.304L13942.599,-3545.3056L13942.6332,-3545.3425L13942.6812,-3545.3936L13942.749,-3545.4726"/>
<path content="1,小田急シティバス（株）,ブルーメッツ号,1.0,1.0,1.0," xlink:title="1" d="M13942.5817,-3545.2881L13942.5976,-3545.304L13942.599,-3545.3056L13942.6332,-3545.3425L13942.6812,-3545.3936L13942.749,-3545.4726"/>
<path content="1,小田急シティバス（株）,ルミナス号,1.0,1.0,1.0," xlink:title="1" d="M13942.749,-3545.4726L13942.6812,-3545.3936L13942.6332,-3545.3425L13942.599,-3545.3056L13942.5976,-3545.304L13942.5817,-3545.2881"/>
<path content="1,小田急バス（株）,しまんとエクスプレス号,1.0,1.0,1.0," xlink:title="1" d="M13942.5817,-3545.2881L13942.5976,-3545.304L13942.599,-3545.3056L13942.6332,-3545.3425L13942.6812,-3545.3936L13942.749,-3545.4726"/>
<path content="1,小田急バス（株）,エトワールセト号,1.0,1.0,1.0," xlink:title="1" d="M13942.5817,-3545.2881L13942.5976,-3545.304L13942.599,-3545.3056L13942.6332,-3545.3425L13942.6812,-3545.3936L13942.749,-3545.4726"/>
<path content="1,小田急バス（株）,ニューブリーズ号,2.0,2.0,2.0," xlink:title="1" d="M13942.5817,-3545.2881L13942.5976,-3545.304L13942.599,-3545.3056L13942.6332,-3545.3425L13942.6812,-3545.3936L13942.749,-3545.4726"/>
<path content="1,小田急バス（株）,パピヨン号,1.0,1.0,1.0," xlink:title="1" d="M13942.5817,-3545.2881L13942.5976,-3545.304L13942.599,-3545.3056L13942.6332,-3545.3425L13942.6812,-3545.3936L13942.749,-3545.4726"/>
<path content="1,小田急バス（株）,ブルーメッツ号,1.0,1.0,1.0," xlink:title="1" d="M13942.5817,-3545.2881L13942.5976,-3545.304L13942.599,-3545.3056L13942.6332,-3545.3425L13942.6812,-3545.3936L13942.749,-3545.4726"/>
<path content="1,小田急バス（株）,ルミナス号,1.0,1.0,1.0," xlink:title="1" d="M13942.749,-3545.4726L13942.6812,-3545.3936L13942.6332,-3545.3425L13942.599,-3545.3056L13942.5976,-3545.304L13942.5817,-3545.2881"/>
<path content="1,小田急箱根高速バス,ふじやま号,0.2,1.1,1.0," xlink:title="1" d="M13942.5817,-3545.2881L13942.5976,-3545.304L13942.599,-3545.3056L13942.6332,-3545.3425L13942.6812,-3545.3936L13942.749,-3545.4726"/>
<path content="1,小田急箱根高速バス,三島エクスプレス,3.0,3.0,3.0," xlink:title="1" d="M13942.5817,-3545.2881L13942.5976,-3545.304L13942.599,-3545.3056L13942.6332,-3545.3425L13942.6812,-3545.3936L13942.749,-3545.4726"/>
<path content="1,小田急箱根高速バス,伊豆・新宿ライナー,2.0,2.0,2.0," xlink:title="1" d="M13942.5817,-3545.2881L13942.5976,-3545.304L13942.599,-3545.3056L13942.6332,-3545.3425L13942.6812,-3545.3936L13942.749,-3545.4726"/>
<path content="1,小田急箱根高速バス,御殿場プレミアム・アウトレット・新宿駅線,1.0,1.0,1.0," xlink:title="1" d="M13942.749,-3545.4726L13942.6812,-3545.3936L13942.6332,-3545.3425L13942.599,-3545.3056L13942.5976,-3545.304L13942.5817,-3545.2881"/>
<path content="1,小田急箱根高速バス,新宿・箱根線,32.9,29.0,32.5," xlink:title="1" d="M13942.5817,-3545.2881L13942.5976,-3545.304L13942.599,-3545.3056L13942.6332,-3545.3425L13942.6812,-3545.3936L13942.749,-3545.4726"/>
<path content="1,小田急箱根高速バス,箱根桃源台～御殿場～羽田空港,4.0,4.0,4.0," xlink:title="1" d="M13942.5817,-3545.2881L13942.5976,-3545.304L13942.599,-3545.3056L13942.6332,-3545.3425L13942.6812,-3545.3936L13942.749,-3545.4726"/>
<path content="1,徳島バス（株）,徳島⇔東京,2.0,2.0,2.0," xlink:title="1" d="M13942.5818,-3545.2881L13942.5961,-3545.3024L13942.6331,-3545.3425L13942.6811,-3545.3936L13942.749,-3545.4726"/>
<path content="1,成田空港交通,和歌山線,1.0,1.0,1.0," xlink:title="1" d="M13942.5817,-3545.2881L13942.5976,-3545.304L13942.599,-3545.3056L13942.6332,-3545.3425L13942.6812,-3545.3936L13942.749,-3545.4726"/>
<path content="1,新常磐交通（株）,シーガル号,1.0,1.0,1.0," xlink:title="1" d="M13942.5817,-3545.2881L13942.5976,-3545.304L13942.599,-3545.3056L13942.6332,-3545.3425L13942.6812,-3545.3936L13942.749,-3545.4726"/>
<path content="1,日ノ丸自動車（株）,東京‐米子線,1.0,1.0,1.0," xlink:title="1" d="M13942.5818,-3545.2881L13942.5961,-3545.3024L13942.6331,-3545.3425L13942.6811,-3545.3936L13942.749,-3545.4726"/>
<path content="1,日ノ丸自動車（株）,東京‐鳥取・倉吉線,1.0,1.0,1.0," xlink:title="1" d="M13942.5818,-3545.2881L13942.5961,-3545.3024L13942.6331,-3545.3425L13942.6811,-3545.3936L13942.749,-3545.4726"/>
<path content="1,日本中央バス（株）,シルクライナー,5.0,5.0,5.0," xlink:title="1" d="M13942.5817,-3545.2881L13942.5976,-3545.304L13942.599,-3545.3056L13942.6332,-3545.3425L13942.6812,-3545.3936L13942.749,-3545.4726"/>
<path content="1,日本中央バス（株）,東海ライナー,2.0,2.0,2.0," xlink:title="1" d="M13942.5817,-3545.2881L13942.5976,-3545.304L13942.599,-3545.3056L13942.6332,-3545.3425L13942.6812,-3545.3936L13942.749,-3545.4726"/>
<path content="1,日本交通（株）,米子～東京線,1.0,1.0,1.0," xlink:title="1" d="M13942.5818,-3545.2881L13942.5961,-3545.3024L13942.6331,-3545.3425L13942.6811,-3545.3936L13942.749,-3545.4726"/>
<path content="1,日本交通（株）,鳥取・倉吉～東京線,1.0,1.0,1.0," xlink:title="1" d="M13942.5818,-3545.2881L13942.5961,-3545.3024L13942.6331,-3545.3425L13942.6811,-3545.3936L13942.749,-3545.4726"/>
<path content="1,東北急行バス（株）,ままかりライナー,1.0,1.0,1.0," xlink:title="1" d="M13942.5817,-3545.2881L13942.5976,-3545.304L13942.599,-3545.3056L13942.6332,-3545.3425L13942.6812,-3545.3936L13942.749,-3545.4726"/>
<path content="1,東北急行バス（株）,フライングスニーカー京都・茨木号,1.0,1.0,1.0," xlink:title="1" d="M13942.749,-3545.4726L13942.6812,-3545.3936L13942.6332,-3545.3425L13942.599,-3545.3056L13942.5976,-3545.304L13942.5817,-3545.2881"/>
<path content="1,東北急行バス（株）,フライングスニーカー大坂号,1.0,1.0,1.0," xlink:title="1" d="M13942.749,-3545.4726L13942.6812,-3545.3936L13942.6332,-3545.3425L13942.599,-3545.3056L13942.5976,-3545.304L13942.5817,-3545.2881"/>
<path content="1,東北急行バス（株）,フライングライナー号,1.0,1.0,1.0," xlink:title="1" d="M13942.749,-3545.4726L13942.6812,-3545.3936L13942.6332,-3545.3425L13942.599,-3545.3056L13942.5976,-3545.304L13942.5817,-3545.2881"/>
<path content="1,江ノ電バス藤沢,横浜・鎌倉・藤沢～金沢線,1.0,1.0,1.0," xlink:title="1" d="M13942.749,-3545.4726L13942.6812,-3545.3936L13942.6332,-3545.3425L13942.599,-3545.3056L13942.5976,-3545.304L13942.5817,-3545.2881"/>
<path content="1,瀬戸内運輸（株）,パイレーツ　今治⇔東京,1.0,1.0,1.0," xlink:title="1" d="M13942.5818,-3545.2881L13942.5961,-3545.3024L13942.6331,-3545.3425L13942.6811,-3545.3936L13942.749,-3545.4726"/>
<path content="1,琴平バス（株）,愛媛・高知シャトル,2.0,2.0,2.0," xlink:title="1" d="M13942.5818,-3545.2881L13942.5961,-3545.3024L13942.6331,-3545.3425L13942.6811,-3545.3936L13942.749,-3545.4726"/>
<path content="1,相鉄バス（株）,横浜駅西口～河口湖駅,3.0,3.0,3.0," xlink:title="1" d="M13942.749,-3545.4726L13942.6812,-3545.3936L13942.6332,-3545.3425L13942.599,-3545.3056L13942.5976,-3545.304L13942.5817,-3545.2881"/>
<path content="1,相鉄バス（株）,横浜駅西口～海老名駅線,2.0,0.0,0.0," xlink:title="1" d="M13942.298,-3546.3867L13942.3001,-3546.3857L13942.3193,-3546.3738L13942.342,-3546.3473L13942.3503,-3546.3254L13942.3758,-3546.2665L13942.3813,-3546.2538L13942.4136,-3546.1766L13942.4226,-3546.1558L13942.437,-3546.1231L13942.4701,-3546.0606L13942.5066,-3546.0054L13942.5127,-3545.9963L13942.5524,-3545.9519L13942.5678,-3545.9321L13942.5843,-3545.9051L13942.5926,-3545.8876L13942.6008,-3545.8639L13942.6167,-3545.8205L13942.627,-3545.7946L13942.6309,-3545.7819L13942.6366,-3545.7636L13942.6414,-3545.7524L13942.6545,-3545.7321L13942.6759,-3545.7039L13942.6847,-3545.6939L13942.6366,-3545.6819L13942.6252,-3545.6796L13942.6034,-3545.6758L13942.5884,-3545.6724L13942.5767,-3545.6704L13942.5631,-3545.6683L13942.5219,-3545.6616L13942.4673,-3545.6526L13942.3868,-3545.6419L13942.3737,-3545.6397L13942.3103,-3545.6307L13942.298,-3545.6284L13942.2278,-3545.6188L13942.2139,-3545.6176L13942.1777,-3545.6116L13942.1569,-3545.6081L13942.1354,-3545.6046L13942.1056,-3545.5986L13942.0743,-3545.5918L13942.0385,-3545.5839L13941.9669,-3545.5704L13941.9188,-3545.5602L13941.8999,-3545.5568L13941.8631,-3545.5501L13941.8486,-3545.5484L13941.8113,-3545.5427L13941.7687,-3545.5332L13941.7543,-3545.5298L13941.7221,-3545.5218L13941.6531,-3545.5106L13941.6504,-3545.5099"/>
<path content="1,相鉄バス（株）,綾51,49.0,46.0,30.5," xlink:title="1" d="M13941.6504,-3545.5099L13941.6531,-3545.5106L13941.7221,-3545.5218L13941.7543,-3545.5298L13941.7687,-3545.5332L13941.8113,-3545.5427L13941.8486,-3545.5484L13941.8631,-3545.5501L13941.8999,-3545.5568L13941.9188,-3545.5602L13941.9752,-3545.5264L13941.9924,-3545.5157L13942.0096,-3545.5016L13942.0509,-3545.4521L13942.0681,-3545.4284L13942.1005,-3545.3856L13942.1246,-3545.354L13942.157,-3545.3112L13942.1673,-3545.2977L13942.1735,-3545.2881"/>
<path content="1,相鉄バス（株）,綾52,33.5,26.5,18.0," xlink:title="1" d="M13941.6504,-3545.5099L13941.6531,-3545.5106L13941.7221,-3545.5218L13941.7543,-3545.5298L13941.7687,-3545.5332L13941.8113,-3545.5427L13941.8486,-3545.5484L13941.8631,-3545.5501L13941.8999,-3545.5568L13941.9188,-3545.5602L13941.9669,-3545.5704L13942.0385,-3545.5839L13942.0743,-3545.5918L13942.1056,-3545.5986L13942.1354,-3545.6046L13942.1569,-3545.6081L13942.1777,-3545.6116L13942.2139,-3545.6176L13942.2278,-3545.6188L13942.298,-3545.6284L13942.3103,-3545.6307L13942.3737,-3545.6397L13942.3868,-3545.6419L13942.4673,-3545.6526L13942.5219,-3545.6616L13942.5631,-3545.6683L13942.5767,-3545.6704L13942.5884,-3545.6724L13942.6034,-3545.6758L13942.6252,-3545.6796L13942.6366,-3545.6819L13942.6847,-3545.6939L13942.7151,-3545.7011L13942.7454,-3545.7107L13942.749,-3545.7121"/>
<path content="1,相鉄バス（株）,綾53,18.5,15.0,13.0," xlink:title="1" d="M13941.6504,-3545.5099L13941.6531,-3545.5106L13941.7221,-3545.5218L13941.7474,-3545.416L13941.7794,-3545.3025L13941.7852,-3545.2881"/>
<path content="1,相鉄バス（株）,綾72,18.0,15.5,13.5," xlink:title="1" d="M13942.749,-3545.7121L13942.7454,-3545.7107L13942.7151,-3545.7011L13942.6847,-3545.6939L13942.6366,-3545.6819L13942.6252,-3545.6796L13942.6034,-3545.6758L13942.5884,-3545.6724L13942.5767,-3545.6704L13942.5631,-3545.6683L13942.5219,-3545.6616L13942.4673,-3545.6526L13942.3868,-3545.6419L13942.3737,-3545.6397L13942.3103,-3545.6307L13942.298,-3545.6284L13942.2278,-3545.6188L13942.2139,-3545.6176L13942.1777,-3545.6116L13942.1569,-3545.6081L13942.1354,-3545.6046L13942.1056,-3545.5986L13942.0743,-3545.5918L13942.0385,-3545.5839L13941.9669,-3545.5704L13941.9188,-3545.5602L13941.8999,-3545.5568L13941.8631,-3545.5501L13941.8486,-3545.5484L13941.8113,-3545.5427L13941.7687,-3545.5332L13941.7543,-3545.5298L13941.7221,-3545.5218L13941.7474,-3545.416L13941.7794,-3545.3025L13941.7852,-3545.2881"/>
<path content="1,神奈川中央交通（株）,さ02,12.5,7.0,6.0," xlink:title="1" d="M13942.749,-3545.6122L13942.7389,-3545.627L13942.6896,-3545.6819L13942.6847,-3545.6939L13942.6759,-3545.7039L13942.6545,-3545.7321L13942.6414,-3545.7524L13942.6366,-3545.7636L13942.6309,-3545.7819L13942.627,-3545.7946L13942.6167,-3545.8205L13942.6008,-3545.8639L13942.5926,-3545.8876L13942.5843,-3545.9051L13942.5678,-3545.9321L13942.5524,-3545.9519L13942.5127,-3545.9963L13942.5066,-3546.0054L13942.4701,-3546.0606L13942.437,-3546.1231L13942.4226,-3546.1558L13942.4136,-3546.1766L13942.3813,-3546.2538L13942.3758,-3546.2665L13942.3503,-3546.3254L13942.342,-3546.3473L13942.3193,-3546.3738L13942.3001,-3546.3857L13942.298,-3546.3867"/>
<path content="1,神奈川中央交通（株）,さ03,5.5,6.0,7.0," xlink:title="1" d="M13942.298,-3546.3867L13942.3001,-3546.3857L13942.3193,-3546.3738L13942.342,-3546.3473L13942.3503,-3546.3254L13942.3758,-3546.2665L13942.3813,-3546.2538L13942.4136,-3546.1766L13942.4226,-3546.1558L13942.437,-3546.1231L13942.4701,-3546.0606L13942.5066,-3546.0054L13942.5127,-3545.9963L13942.5524,-3545.9519L13942.5678,-3545.9321L13942.5843,-3545.9051L13942.5926,-3545.8876L13942.6008,-3545.8639L13942.6167,-3545.8205L13942.627,-3545.7946L13942.6309,-3545.7819L13942.6366,-3545.7636L13942.6414,-3545.7524L13942.6545,-3545.7321L13942.6759,-3545.7039L13942.6847,-3545.6939L13942.6896,-3545.6819L13942.7389,-3545.627L13942.749,-3545.6122"/>
<path content="1,神奈川中央交通（株）,長24,58.0,51.0,47.0," xlink:title="1" d="M13942.298,-3546.3867L13942.3001,-3546.3857L13942.3193,-3546.3738L13942.342,-3546.3473L13942.3503,-3546.3254L13942.3758,-3546.2665L13942.3813,-3546.2538L13942.4136,-3546.1766L13942.4226,-3546.1558L13942.437,-3546.1231L13942.4701,-3546.0606L13942.5066,-3546.0054L13942.5127,-3545.9963L13942.5524,-3545.9519L13942.5678,-3545.9321L13942.5843,-3545.9051L13942.5926,-3545.8876L13942.6008,-3545.8639L13942.6167,-3545.8205L13942.627,-3545.7946L13942.6309,-3545.7819L13942.6366,-3545.7636L13942.6414,-3545.7524L13942.6545,-3545.7321L13942.6759,-3545.7039L13942.6847,-3545.6939L13942.6896,-3545.6819L13942.7389,-3545.627L13942.749,-3545.6122"/>
<path content="1,神姫バス（株）,姫路・神戸（三ノ宮）-東京（渋谷・新宿）,1.0,1.0,1.0," xlink:title="1" d="M13942.5818,-3545.2881L13942.5961,-3545.3024L13942.6331,-3545.3425L13942.6811,-3545.3936L13942.749,-3545.4726"/>
<path content="1,福井鉄道（株）,福井⇔東京,3.0,3.0,3.0," xlink:title="1" d="M13942.5818,-3545.2881L13942.5961,-3545.3024L13942.6331,-3545.3425L13942.6811,-3545.3936L13942.749,-3545.4726"/>
<path content="1,福島交通（株）,福島高速バスターミナル～大阪あべの橋,1.0,1.0,1.0," xlink:title="1" d="M13942.5817,-3545.2881L13942.5976,-3545.304L13942.599,-3545.3056L13942.6332,-3545.3425L13942.6812,-3545.3936L13942.749,-3545.4726"/>
<path content="1,西日本鉄道（株）,福岡　～　東京　（はかた号））,1.0,1.0,1.0," xlink:title="1" d="M13942.5818,-3545.2881L13942.5961,-3545.3024L13942.6331,-3545.3425L13942.6811,-3545.3936L13942.749,-3545.4726"/>
<path content="1,西東京バス（株）,ハローブリッジ号,1.0,1.0,1.0," xlink:title="1" d="M13942.5817,-3545.2881L13942.5976,-3545.304L13942.599,-3545.3056L13942.6332,-3545.3425L13942.6812,-3545.3936L13942.749,-3545.4726"/>
<path content="1,西武観光バス,びわこドリーム号,1.0,1.0,1.0," xlink:title="1" d="M13942.749,-3545.4726L13942.6812,-3545.3936L13942.6332,-3545.3425L13942.599,-3545.3056L13942.5976,-3545.304L13942.5817,-3545.2881"/>
<path content="1,西武観光バス,大宮・池袋・横浜～南紀勝浦線,1.0,1.0,1.0," xlink:title="1" d="M13942.749,-3545.4726L13942.6812,-3545.3936L13942.6332,-3545.3425L13942.599,-3545.3056L13942.5976,-3545.304L13942.5817,-3545.2881"/>
<path content="1,西武観光バス,宇和島線,1.0,1.0,1.0," xlink:title="1" d="M13942.749,-3545.4726L13942.6812,-3545.3936L13942.6332,-3545.3425L13942.599,-3545.3056L13942.5976,-3545.304L13942.5817,-3545.2881"/>
<path content="1,豊鉄バス（株）,田原～練馬,1.0,1.0,1.0," xlink:title="1" d="M13942.5818,-3545.2881L13942.5961,-3545.3024L13942.6331,-3545.3425L13942.6811,-3545.3936L13942.749,-3545.4726"/>
<path content="1,近鉄バス（株）,大日・茨木・京都⇔東京駅,1.0,1.0,1.0," xlink:title="1" d="M13942.5818,-3545.2881L13942.5961,-3545.3024L13942.6331,-3545.3425L13942.6811,-3545.3936L13942.749,-3545.4726"/>
<path content="1,近鉄バス（株）,大阪⇔東京駅,1.0,1.0,1.0," xlink:title="1" d="M13942.5818,-3545.2881L13942.5961,-3545.3024L13942.6331,-3545.3425L13942.6811,-3545.3936L13942.749,-3545.4726"/>
<path content="1,近鉄バス（株）,大阪・京都⇔つくば・水戸,1.0,1.0,1.0," xlink:title="1" d="M13942.5818,-3545.2881L13942.5961,-3545.3024L13942.6331,-3545.3425L13942.6811,-3545.3936L13942.749,-3545.4726"/>
<path content="1,近鉄バス（株）,大阪・京都⇔久喜・栃木・宇都宮,1.0,1.0,1.0," xlink:title="1" d="M13942.5818,-3545.2881L13942.5961,-3545.3024L13942.6331,-3545.3425L13942.6811,-3545.3936L13942.749,-3545.4726"/>
<path content="1,近鉄バス（株）,大阪・京都⇔仙台,1.0,1.0,1.0," xlink:title="1" d="M13942.5818,-3545.2881L13942.5961,-3545.3024L13942.6331,-3545.3425L13942.6811,-3545.3936L13942.749,-3545.4726"/>
<path content="1,近鉄バス（株）,大阪・京都⇔川越・坂戸・熊谷,1.0,1.0,1.0," xlink:title="1" d="M13942.5818,-3545.2881L13942.5961,-3545.3024L13942.6331,-3545.3425L13942.6811,-3545.3936L13942.749,-3545.4726"/>
<path content="1,近鉄バス（株）,大阪・京都⇔日立・いわき,1.0,1.0,1.0," xlink:title="1" d="M13942.5818,-3545.2881L13942.5961,-3545.3024L13942.6331,-3545.3425L13942.6811,-3545.3936L13942.749,-3545.4726"/>
<path content="1,近鉄バス（株）,大阪・京都⇔郡山・福島,1.0,1.0,1.0," xlink:title="1" d="M13942.5818,-3545.2881L13942.5961,-3545.3024L13942.6331,-3545.3425L13942.6811,-3545.3936L13942.749,-3545.4726"/>
<path content="1,近鉄バス（株）,大阪・茨木⇔新宿,1.0,1.0,1.0," xlink:title="1" d="M13942.5818,-3545.2881L13942.5961,-3545.3024L13942.6331,-3545.3425L13942.6811,-3545.3936L13942.749,-3545.4726"/>
<path content="1,近鉄バス（株）,藤井寺・大阪・京都⇔東京駅・横浜,1.0,1.0,1.0," xlink:title="1" d="M13942.5818,-3545.2881L13942.5961,-3545.3024L13942.6331,-3545.3425L13942.6811,-3545.3936L13942.749,-3545.4726"/>
<path content="1,遠州鉄道（株）,イーライナー,2.0,2.0,2.0," xlink:title="1" d="M13942.5818,-3545.2881L13942.5961,-3545.3024L13942.6331,-3545.3425L13942.6811,-3545.3936L13942.749,-3545.4726"/>
<path content="1,関東バス（株）,ほの国号,1.0,1.0,1.0," xlink:title="1" d="M13942.5817,-3545.2881L13942.5976,-3545.304L13942.599,-3545.3056L13942.6332,-3545.3425L13942.6812,-3545.3936L13942.749,-3545.4726"/>
<path content="1,関東バス（株）,やまと号,2.0,2.0,2.0," xlink:title="1" d="M13942.749,-3545.4726L13942.6812,-3545.3936L13942.6332,-3545.3425L13942.599,-3545.3056L13942.5976,-3545.304L13942.5817,-3545.2881"/>
<path content="1,関東バス（株）,マスカット号,1.0,1.0,1.0," xlink:title="1" d="M13942.5817,-3545.2881L13942.5976,-3545.304L13942.599,-3545.3056L13942.6332,-3545.3425L13942.6812,-3545.3936L13942.749,-3545.4726"/>
<path content="1,関東バス（株）,東京ミッドナイトエクスプレス京都号,1.0,1.0,1.0," xlink:title="1" d="M13942.749,-3545.4726L13942.6812,-3545.3936L13942.6332,-3545.3425L13942.599,-3545.3056L13942.5976,-3545.304L13942.5817,-3545.2881"/>
<path content="1,関東自動車（株）,とちの木号,1.0,1.0,1.0," xlink:title="1" d="M13942.749,-3545.4726L13942.6812,-3545.3936L13942.6332,-3545.3425L13942.599,-3545.3056L13942.5976,-3545.304L13942.5817,-3545.2881"/>
<path content="1,関東鉄道（株）,水戸駅南口～あべの橋駅（JR天王寺駅）,1.0,1.0,1.0," xlink:title="1" d="M13942.749,-3545.4726L13942.6812,-3545.3936L13942.6332,-3545.3425L13942.599,-3545.3056L13942.5976,-3545.304L13942.5817,-3545.2881"/>
<path content="1,阪急バス（株）,東京・東京ディズニーリゾート・千葉行,1.0,1.0,1.0," xlink:title="1" d="M13942.5818,-3545.2881L13942.5961,-3545.3024L13942.6331,-3545.3425L13942.6811,-3545.3936L13942.749,-3545.4726"/>
<path content="1,阪急バス（株）,横浜・品川・池袋行,1.0,1.0,1.0," xlink:title="1" d="M13942.749,-3545.4726L13942.6811,-3545.3936L13942.6331,-3545.3425L13942.5961,-3545.3024L13942.5818,-3545.2881"/>
<path content="1,阪神バス（株）,サラダエクスプレス　神戸・大阪⇔東京ディズニーリゾート,1.0,1.0,1.0," xlink:title="1" d="M13942.5818,-3545.2881L13942.5961,-3545.3024L13942.6331,-3545.3425L13942.6811,-3545.3936L13942.749,-3545.4726"/>
<path content="1,防長交通（株）,萩・山口・防府・徳山・岩国～東京,1.0,1.0,1.0," xlink:title="1" d="M13942.5818,-3545.2881L13942.5961,-3545.3024L13942.6331,-3545.3425L13942.6811,-3545.3936L13942.749,-3545.4726"/>
<path content="1,高知県交通（株）,ブルーメッツ号　高知⇔東京線,1.0,1.0,1.0," xlink:title="1" d="M13942.5818,-3545.2881L13942.5961,-3545.3024L13942.6331,-3545.3425L13942.6811,-3545.3936L13942.749,-3545.4726"/>
<path content="1,（株）中伊豆東海バス,伊豆新宿ライナー,2.0,2.0,2.0," xlink:title="1" d="M13942.5818,-3545.2881L13942.5961,-3545.3024L13942.6331,-3545.3425L13942.6811,-3545.3936L13942.749,-3545.4726"/>
<path content="1,（株）中国バス,夜行便　東京線,1.0,1.0,1.0," xlink:title="1" d="M13942.749,-3545.4726L13942.6811,-3545.3936L13942.6331,-3545.3425L13942.5961,-3545.3024L13942.5818,-3545.2881"/>
<path content="1,（株）中国バス,夜行便　横浜線,1.0,1.0,1.0," xlink:title="1" d="M13942.749,-3545.4726L13942.6811,-3545.3936L13942.6331,-3545.3425L13942.5961,-3545.3024L13942.5818,-3545.2881"/>
<path content="1,（株）沼津登山東海バス,三島エクスプレス,3.0,3.0,3.0," xlink:title="1" d="M13942.5818,-3545.2881L13942.5961,-3545.3024L13942.6331,-3545.3425L13942.6811,-3545.3936L13942.749,-3545.4726"/>
<path content="3,綾瀬市,1号車,10.0,10.0,10.0," xlink:title="3" d="M13942.0395,-3545.2881L13942.022,-3545.3027L13942.0096,-3545.3151L13941.9979,-3545.327L13941.9835,-3545.3478L13941.9477,-3545.4143L13941.9431,-3545.4224L13941.9387,-3545.4295L13941.9333,-3545.4402L13941.9257,-3545.4509L13941.9202,-3545.4594L13941.8954,-3545.4791L13941.8892,-3545.4864L13941.8816,-3545.5022L13941.8809,-3545.5135L13941.8823,-3545.5225L13941.8871,-3545.5343L13941.8999,-3545.5568"/>
<path content="3,綾瀬市,1号車,10.0,10.0,10.0," xlink:title="3" d="M13941.8999,-3545.5568L13941.9188,-3545.5602L13941.9669,-3545.5704L13942.0385,-3545.5839L13942.0743,-3545.5918L13942.1056,-3545.5986L13942.1354,-3545.6046L13942.1569,-3545.6081L13942.1777,-3545.6116L13942.2139,-3545.6176L13942.2278,-3545.6188L13942.298,-3545.6284L13942.3103,-3545.6307L13942.3737,-3545.6397L13942.3675,-3545.6521L13942.3613,-3545.6611L13942.3531,-3545.6713L13942.3317,-3545.6904L13942.3097,-3545.7068L13942.2987,-3545.7118L13942.2911,-3545.7129L13942.2781,-3545.7135L13942.2643,-3545.718L13942.2443,-3545.7327L13942.2299,-3545.7558L13942.2154,-3545.7913L13942.212,-3545.811L13942.2023,-3545.8335L13942.1954,-3545.847L13942.1583,-3545.8961L13942.1475,-3545.919L13942.1314,-3545.9355L13942.0909,-3545.9682L13942.0847,-3545.9789L13942.084,-3545.9947L13942.0867,-3546.02L13942.042,-3546.1958L13942.0365,-3546.247L13942.0339,-3546.2563L13942.0317,-3546.2831L13942.0282,-3546.3068L13942.0296,-3546.318L13942.0447,-3546.3378L13942.0495,-3546.3423L13942.0537,-3546.349L13942.0537,-3546.3592L13942.0447,-3546.3789L13942.0399,-3546.3867"/>
<path content="3,綾瀬市,1号車,10.0,10.0,10.0," xlink:title="3" d="M13941.6504,-3546.0617L13941.6662,-3545.998L13941.671,-3545.9839L13941.6751,-3545.9597L13941.6746,-3545.947L13941.6751,-3545.9355L13941.6731,-3545.8932L13941.6731,-3545.8786L13941.671,-3545.8582L13941.6683,-3545.8459L13941.6634,-3545.7709L13941.6607,-3545.7343L13941.6569,-3545.7006L13941.6559,-3545.6791L13941.6566,-3545.6526L13941.6593,-3545.644L13941.6648,-3545.6374L13941.6999,-3545.5997L13941.7055,-3545.5921L13941.7086,-3545.585L13941.7168,-3545.5564L13941.7227,-3545.5334L13941.7221,-3545.5218L13941.7543,-3545.5298L13941.7687,-3545.5332L13941.8113,-3545.5427L13941.8486,-3545.5484L13941.8631,-3545.5501L13941.8999,-3545.5568"/>
<path content="3,綾瀬市,2号車,7.0,7.0,7.0," xlink:title="3" d="M13942.6146,-3545.2881L13942.599,-3545.3056L13942.576,-3545.3315L13942.569,-3545.3386L13942.5231,-3545.3867L13942.5017,-3545.4059L13942.4935,-3545.4132L13942.4818,-3545.4207L13942.4648,-3545.4333L13942.4412,-3545.4448L13942.3985,-3545.4605L13942.3861,-3545.4673L13942.3668,-3545.4853L13942.3159,-3545.5236L13942.2941,-3545.5408L13942.2877,-3545.5461L13942.2374,-3545.585L13942.2209,-3545.6031L13942.2139,-3545.6176L13942.2278,-3545.6188L13942.298,-3545.6284L13942.3103,-3545.6307L13942.3737,-3545.6397L13942.3868,-3545.6419L13942.4673,-3545.6526L13942.5219,-3545.6616L13942.5631,-3545.6683L13942.5767,-3545.6704L13942.5884,-3545.6724L13942.6034,-3545.6758L13942.6252,-3545.6796L13942.6366,-3545.6819L13942.6847,-3545.6939L13942.6759,-3545.7039L13942.6545,-3545.7321L13942.6414,-3545.7524L13942.6366,-3545.7636L13942.6309,-3545.7819L13942.627,-3545.7946L13942.6167,-3545.8205L13942.6008,-3545.8639L13942.5926,-3545.8876L13942.5843,-3545.9051L13942.5678,-3545.9321L13942.5524,-3545.9519L13942.5127,-3545.9963L13942.5066,-3546.0054L13942.4701,-3546.0606L13942.437,-3546.1231L13942.4226,-3546.1558L13942.4446,-3546.162L13942.5162,-3546.1828L13942.5953,-3546.2071L13942.616,-3546.2127L13942.6394,-3546.2189L13942.7206,-3546.2437L13942.7291,-3546.2195L13942.7357,-3546.1958L13942.7378,-3546.1873L13942.7419,-3546.1761L13942.749,-3546.1556"/>
</g>
</svg>
