<?xml version="1.0" encoding="UTF-8"?>
<svg  xmlns="http://www.w3.org/2000/svg" xmlns:xlink="http://www.w3.org/1999/xlink" xmlns:go="http://purl.org/svgmap/profile" property="N07_001,N07_002,N07_003,N07_004,N07_005,N07_006,N07_007" viewBox="13781.25 -3726.5625 17.578125 17.578125" go:dataArea="13781.25 -3726.5625 17.578125 17.578125" >
<metadata>
 <rdf:RDF xmlns:rdf="http://www.w3.org/1999/02/22-rdf-syntax-ns#" xmlns:crs="http://opengis.org/xmldtds/transformations.dtd" xmlns:svg="http://www.w3.org/svg" >
  <rdf:Description>
   <crs:CoordinateReferenceSystem rdf:resource="http://purl.org/crs/84" svg:transform="matrix(100.0,0.0,0.0,-100.0,0.0,0.0)" />
  </rdf:Description>
 </rdf:RDF>
</metadata>
<globalCoordinateSystem srsName="http://purl.org/crs/84" transform="matrix(100.0,0.0,0.0,-100.0,0.0,0.0)" />
<defs>
 <g id="p0" >
  <circle cx="0.0" cy="0.0" r="3" stroke="green" stroke-width="0.75" vector-effect="non-scaling-stroke" />
 </g>
</defs>
<g fill="none" fill-rule="evenodd" stroke="#FF00FF" stroke-width="0.75" opacity="0.5" vector-effect="non-scaling-stroke" stroke-linejoin="bevel" >
<path content="1,JRバス関東（株）,金沢エクスプレス/ドリーム金沢号/青春ドリーム金沢号,6.0,6.0,6.0," xlink:title="1" d="M13798.8281,-3709.1351L13798.8029,-3709.1241L13798.7279,-3709.091L13798.7029,-3709.0784L13798.6796,-3709.0697L13798.5698,-3709.026L13798.5023,-3709.0007L13798.4615,-3708.9844"/>
<path content="1,加越能鉄道（株）,東京行き（高速バス）,2.0,2.0,2.0," xlink:title="1" d="M13798.4615,-3708.9844L13798.5023,-3709.0007L13798.5698,-3709.026L13798.6796,-3709.0697L13798.7029,-3709.0784L13798.7279,-3709.091L13798.8029,-3709.1241L13798.8281,-3709.1351"/>
<path content="1,北陸鉄道（株）,高速バス　金沢⇔仙台,1.0,1.0,1.0," xlink:title="1" d="M13798.8281,-3709.1351L13798.8029,-3709.1241L13798.7279,-3709.091L13798.7029,-3709.0784L13798.6796,-3709.0697L13798.5698,-3709.026L13798.5023,-3709.0007L13798.4615,-3708.9844"/>
<path content="1,北陸鉄道（株）,高速バス　金沢⇔新潟,2.0,2.0,2.0," xlink:title="1" d="M13798.4615,-3708.9844L13798.5023,-3709.0007L13798.5698,-3709.026L13798.6796,-3709.0697L13798.7029,-3709.0784L13798.7279,-3709.091L13798.8029,-3709.1241L13798.8281,-3709.1351"/>
<path content="1,北陸鉄道（株）,高速バス　金沢⇔渋谷八王子,2.0,2.0,2.0," xlink:title="1" d="M13798.4615,-3708.9844L13798.5023,-3709.0007L13798.5698,-3709.026L13798.6796,-3709.0697L13798.7029,-3709.0784L13798.7279,-3709.091L13798.8029,-3709.1241L13798.8281,-3709.1351"/>
<path content="1,南海バス（株）,堺・大阪（なんば）・京都⇔柏崎・長岡・三条（新潟）,1.0,1.0,1.0," xlink:title="1" d="M13798.4615,-3708.9844L13798.5023,-3709.0007L13798.5698,-3709.026L13798.6796,-3709.0697L13798.7029,-3709.0784L13798.7279,-3709.091L13798.8029,-3709.1241L13798.8281,-3709.1351"/>
<path content="1,宮城交通（株）,エトアール,1.0,1.0,1.0," xlink:title="1" d="M13798.4615,-3708.9844L13798.5023,-3709.0007L13798.5698,-3709.026L13798.6796,-3709.0697L13798.7029,-3709.0784L13798.7279,-3709.091L13798.8029,-3709.1241L13798.8281,-3709.1351"/>
<path content="1,宮城交通（株）,仙台～富山線,1.0,1.0,1.0," xlink:title="1" d="M13798.4615,-3708.9844L13798.5023,-3709.0007L13798.5698,-3709.026L13798.6796,-3709.0697L13798.7029,-3709.0784L13798.7279,-3709.091L13798.8029,-3709.1241L13798.8281,-3709.1351"/>
<path content="1,富山地方鉄道（株）,仙台（高速バス）,1.0,1.0,1.0," xlink:title="1" d="M13798.4615,-3708.9844L13798.5023,-3709.0007L13798.5698,-3709.026L13798.6796,-3709.0697L13798.7029,-3709.0784L13798.7279,-3709.091L13798.8029,-3709.1241L13798.8281,-3709.1351"/>
<path content="1,富山地方鉄道（株）,新潟（高速バス）,2.0,2.0,2.0," xlink:title="1" d="M13798.4615,-3708.9844L13798.5023,-3709.0007L13798.5698,-3709.026L13798.6796,-3709.0697L13798.7029,-3709.0784L13798.7279,-3709.091L13798.8029,-3709.1241L13798.8281,-3709.1351"/>
<path content="1,富山地方鉄道（株）,東京（高速バス）,4.0,4.0,4.0," xlink:title="1" d="M13798.4615,-3708.9844L13798.5023,-3709.0007L13798.5698,-3709.026L13798.6796,-3709.0697L13798.7029,-3709.0784L13798.7279,-3709.091L13798.8029,-3709.1241L13798.8281,-3709.1351"/>
<path content="1,山交バス（株）,アルカディア号,1.0,1.0,1.0," xlink:title="1" d="M13798.4615,-3708.9844L13798.5023,-3709.0007L13798.5698,-3709.026L13798.6796,-3709.0697L13798.7029,-3709.0784L13798.7279,-3709.091L13798.8029,-3709.1241L13798.8281,-3709.1351"/>
<path content="1,新潟交通（株）・北陸鉄道（株）,金沢高速バス,2.0,2.0,2.0," xlink:title="1" d="M13798.4615,-3708.9844L13798.5023,-3709.0007L13798.5698,-3709.026L13798.6796,-3709.0697L13798.7029,-3709.0784L13798.7279,-3709.091L13798.8029,-3709.1241L13798.8281,-3709.1351"/>
<path content="1,新潟交通（株）・富山地方鉄道（株）,富山高速バス,2.0,2.0,2.0," xlink:title="1" d="M13798.4615,-3708.9844L13798.5023,-3709.0007L13798.5698,-3709.026L13798.6796,-3709.0697L13798.7029,-3709.0784L13798.7279,-3709.091L13798.8029,-3709.1241L13798.8281,-3709.1351"/>
<path content="1,新潟交通（株）・阪急バス（株）,京都・大阪高速バス,1.0,1.0,1.0," xlink:title="1" d="M13798.4615,-3708.9844L13798.5023,-3709.0007L13798.5698,-3709.026L13798.6796,-3709.0697L13798.7029,-3709.0784L13798.7279,-3709.091L13798.8029,-3709.1241L13798.8281,-3709.1351"/>
<path content="1,新潟交通（株）・頸城自動車（株）,糸魚川線,2.0,2.0,2.0," xlink:title="1" d="M13798.4615,-3708.9844L13798.5023,-3709.0007L13798.5698,-3709.026L13798.6796,-3709.0697L13798.7029,-3709.0784L13798.7279,-3709.091L13798.8029,-3709.1241L13798.8281,-3709.1351"/>
<path content="1,日本中央バス（株）,シルクライナー,5.0,5.0,5.0," xlink:title="1" d="M13798.8281,-3709.1351L13798.8029,-3709.1241L13798.7279,-3709.091L13798.7029,-3709.0784L13798.6796,-3709.0697L13798.5698,-3709.026L13798.5023,-3709.0007L13798.4615,-3708.9844"/>
<path content="1,日本中央バス（株）,東京・さいたま～富山・金沢線,1.0,1.0,1.0," xlink:title="1" d="M13798.8281,-3709.1351L13798.8029,-3709.1241L13798.7279,-3709.091L13798.7029,-3709.0784L13798.6796,-3709.0697L13798.5698,-3709.026L13798.5023,-3709.0007L13798.4615,-3708.9844"/>
<path content="1,糸魚川バス（株）,56木浦線,3.5,3.5,0.0," xlink:title="1" d="M13796.7783,-3708.9844L13796.7786,-3708.9941L13796.7784,-3709.0173L13796.7783,-3709.0431L13796.7798,-3709.0499L13796.7796,-3709.1238L13796.8289,-3709.1345L13796.8832,-3709.1476L13796.9037,-3709.1544L13796.9395,-3709.1641L13796.9712,-3709.1744L13797.0042,-3709.1872L13797.0331,-3709.1985L13797.0399,-3709.2016L13797.0728,-3709.2154L13797.1045,-3709.2284L13797.1315,-3709.24L13797.1591,-3709.2516L13797.2118,-3709.2798L13797.2329,-3709.2944L13797.2532,-3709.3101L13797.2856,-3709.3434L13797.3165,-3709.3811L13797.3335,-3709.4001L13797.3486,-3709.4251L13797.3603,-3709.4499L13797.3705,-3709.4737L13797.378,-3709.4914L13797.3865,-3709.5136L13797.4011,-3709.5568L13797.4145,-3709.6017L13797.4218,-3709.629L13797.4306,-3709.6567L13797.443,-3709.6916L13797.4513,-3709.7122L13797.4625,-3709.7315L13797.4768,-3709.7507L13797.4904,-3709.7651L13797.5066,-3709.7829L13797.5233,-3709.7985L13797.5393,-3709.8132L13797.5631,-3709.8306L13797.5833,-3709.8438L13797.6048,-3709.8574L13797.6268,-3709.8701L13797.6519,-3709.8826L13797.6838,-3709.8987L13797.7142,-3709.9141L13797.7271,-3709.9207L13797.8048,-3709.9547L13797.8392,-3709.9682L13797.8947,-3709.9884L13797.9418,-3710.0036L13797.9574,-3710.009L13797.9709,-3710.0121L13798.0997,-3710.0574L13798.1254,-3710.0677L13798.1596,-3710.0813L13798.1843,-3710.0914L13798.1969,-3710.0993L13798.2124,-3710.1078L13798.2278,-3710.119L13798.2376,-3710.1252L13798.2622,-3710.1472L13798.2672,-3710.1523L13798.2824,-3710.1661L13798.2951,-3710.1746L13798.3206,-3710.1899L13798.3341,-3710.1974L13798.3529,-3710.2063L13798.3646,-3710.2118L13798.3697,-3710.2136L13798.3833,-3710.2187L13798.4262,-3710.2349L13798.4547,-3710.2457L13798.5201,-3710.2688L13798.5651,-3710.2851L13798.5798,-3710.2401L13798.5861,-3710.2213L13798.5904,-3710.199L13798.5953,-3710.1804L13798.6066,-3710.1432L13798.6129,-3710.1196L13798.6178,-3710.1067L13798.6234,-3710.092L13798.6383,-3710.0625L13798.6529,-3710.0436L13798.6789,-3710.0031L13798.7134,-3709.9558L13798.7543,-3709.9014L13798.7619,-3709.8899L13798.7675,-3709.8826L13798.7836,-3709.8607L13798.8281,-3709.8006"/>
<path content="1,糸魚川バス（株）,57a槙線,3.5,3.5,0.0," xlink:title="1" d="M13798.5861,-3710.2213L13798.5904,-3710.199L13798.5953,-3710.1804L13798.6066,-3710.1432L13798.6129,-3710.1196L13798.6178,-3710.1067L13798.6234,-3710.092L13798.6298,-3710.0819L13798.6383,-3710.0625L13798.6529,-3710.0436L13798.6789,-3710.0031L13798.7134,-3709.9558L13798.7543,-3709.9014L13798.7619,-3709.8899L13798.7675,-3709.8826L13798.7836,-3709.8607L13798.8281,-3709.8006"/>
<path content="1,糸魚川バス（株）,57a能生～東廻り-島道線,3.0,3.0,0.0," xlink:title="1" d="M13798.5861,-3710.2213L13798.5904,-3710.199L13798.5953,-3710.1804L13798.6066,-3710.1432L13798.6129,-3710.1196L13798.6178,-3710.1067L13798.6234,-3710.092L13798.6298,-3710.0819L13798.6383,-3710.0625L13798.6529,-3710.0436L13798.6789,-3710.0031L13798.7134,-3709.9558L13798.7543,-3709.9014L13798.7619,-3709.8899L13798.7675,-3709.8826L13798.7836,-3709.8607L13798.8281,-3709.8006"/>
<path content="1,糸魚川バス（株）,57a西飛山線（東廻り）,1.0,1.0,0.0," xlink:title="1" d="M13796.3795,-3708.9844L13796.3949,-3708.9926L13796.4095,-3708.9992L13796.4262,-3709.0085L13796.4574,-3709.0245L13796.4806,-3709.0363L13796.5072,-3709.0495L13796.5312,-3709.0617L13796.5452,-3709.0701L13796.5592,-3709.0798L13796.5762,-3709.0892L13796.5906,-3709.0945L13796.6006,-3709.0979L13796.6266,-3709.1041L13796.6483,-3709.1084L13796.6716,-3709.1104L13796.7066,-3709.1135L13796.7536,-3709.1198L13796.7796,-3709.1238L13796.8289,-3709.1345L13796.8832,-3709.1476L13796.9037,-3709.1544L13796.9395,-3709.1641L13796.9712,-3709.1744L13797.0042,-3709.1872L13797.0331,-3709.1985L13797.0399,-3709.2016L13797.0728,-3709.2154L13797.1045,-3709.2284L13797.1315,-3709.24L13797.1591,-3709.2516L13797.2118,-3709.2798L13797.2329,-3709.2944L13797.2532,-3709.3101L13797.2856,-3709.3434L13797.3165,-3709.3811L13797.3335,-3709.4001L13797.3486,-3709.4251L13797.3603,-3709.4499L13797.3705,-3709.4737L13797.378,-3709.4914L13797.3865,-3709.5136L13797.4011,-3709.5568L13797.4145,-3709.6017L13797.4218,-3709.629L13797.4306,-3709.6567L13797.443,-3709.6916L13797.4513,-3709.7122L13797.4625,-3709.7315L13797.4768,-3709.7507L13797.4904,-3709.7651L13797.5066,-3709.7829L13797.5233,-3709.7985L13797.5393,-3709.8132L13797.5631,-3709.8306L13797.5833,-3709.8438L13797.6048,-3709.8574L13797.6268,-3709.8701L13797.6519,-3709.8826L13797.6838,-3709.8987L13797.7142,-3709.9141L13797.7271,-3709.9207L13797.8048,-3709.9547L13797.8392,-3709.9682L13797.8947,-3709.9884L13797.9418,-3710.0036L13797.9574,-3710.009L13797.9709,-3710.0121L13798.0997,-3710.0574L13798.1254,-3710.0677L13798.1596,-3710.0813L13798.1843,-3710.0914L13798.1969,-3710.0993L13798.2124,-3710.1078L13798.2278,-3710.119L13798.2376,-3710.1252L13798.2622,-3710.1472L13798.2672,-3710.1523L13798.2824,-3710.1661L13798.2951,-3710.1746L13798.3206,-3710.1899L13798.3341,-3710.1974L13798.3529,-3710.2063L13798.3646,-3710.2118L13798.3697,-3710.2136L13798.3833,-3710.2187L13798.4262,-3710.2349L13798.4547,-3710.2457L13798.5201,-3710.2688L13798.5651,-3710.2851L13798.5798,-3710.2401L13798.5861,-3710.2213L13798.5904,-3710.199L13798.5953,-3710.1804L13798.6066,-3710.1432L13798.6129,-3710.1196L13798.6178,-3710.1067L13798.6234,-3710.092L13798.6298,-3710.0819L13798.6383,-3710.0625L13798.6529,-3710.0436L13798.6789,-3710.0031L13798.7134,-3709.9558L13798.7543,-3709.9014L13798.7619,-3709.8899L13798.7675,-3709.8826L13798.7836,-3709.8607L13798.8281,-3709.8006"/>
<path content="1,糸魚川バス（株）,57b能生谷線（西廻り）,9.0,9.0,6.0," xlink:title="1" d="M13796.3795,-3708.9844L13796.3949,-3708.9926L13796.4095,-3708.9992L13796.4262,-3709.0085L13796.4574,-3709.0245L13796.4806,-3709.0363L13796.5072,-3709.0495L13796.5312,-3709.0617L13796.5452,-3709.0701L13796.5592,-3709.0798L13796.5762,-3709.0892L13796.5906,-3709.0945L13796.6006,-3709.0979L13796.6266,-3709.1041L13796.6483,-3709.1084L13796.6716,-3709.1104L13796.7066,-3709.1135L13796.7536,-3709.1198L13796.7796,-3709.1238L13796.8289,-3709.1345L13796.8832,-3709.1476L13796.9037,-3709.1544L13796.9395,-3709.1641L13796.9712,-3709.1744L13797.0042,-3709.1872L13797.0331,-3709.1985L13797.0399,-3709.2016L13797.0728,-3709.2154L13797.1045,-3709.2284L13797.1315,-3709.24L13797.1591,-3709.2516L13797.2118,-3709.2798L13797.2329,-3709.2944L13797.2532,-3709.3101L13797.2856,-3709.3434L13797.3165,-3709.3811L13797.3335,-3709.4001L13797.3486,-3709.4251L13797.3603,-3709.4499L13797.3705,-3709.4737L13797.378,-3709.4914L13797.3865,-3709.5136L13797.4011,-3709.5568L13797.4145,-3709.6017L13797.4218,-3709.629L13797.4306,-3709.6567L13797.443,-3709.6916L13797.4513,-3709.7122L13797.4625,-3709.7315L13797.4768,-3709.7507L13797.4904,-3709.7651L13797.5066,-3709.7829L13797.5233,-3709.7985L13797.5393,-3709.8132L13797.5631,-3709.8306L13797.5833,-3709.8438L13797.6048,-3709.8574L13797.6268,-3709.8701L13797.6519,-3709.8826L13797.6838,-3709.8987L13797.7142,-3709.9141L13797.7271,-3709.9207L13797.8048,-3709.9547L13797.8392,-3709.9682L13797.8947,-3709.9884L13797.9418,-3710.0036L13797.9574,-3710.009L13797.9709,-3710.0121L13798.0997,-3710.0574L13798.1254,-3710.0677L13798.1596,-3710.0813L13798.1843,-3710.0914L13798.1969,-3710.0993L13798.2124,-3710.1078L13798.2278,-3710.119L13798.2376,-3710.1252L13798.2622,-3710.1472L13798.2672,-3710.1523L13798.2824,-3710.1661L13798.2951,-3710.1746L13798.3206,-3710.1899L13798.3341,-3710.1974L13798.3529,-3710.2063L13798.3646,-3710.2118L13798.3697,-3710.2136L13798.3833,-3710.2187L13798.4262,-3710.2349L13798.4547,-3710.2457L13798.5201,-3710.2688L13798.5651,-3710.2851L13798.5798,-3710.2401L13798.5861,-3710.2213L13798.5904,-3710.199L13798.5953,-3710.1804L13798.6066,-3710.1432L13798.6129,-3710.1196L13798.6178,-3710.1067L13798.6234,-3710.092L13798.6298,-3710.0819L13798.6383,-3710.0625L13798.6529,-3710.0436L13798.6789,-3710.0031L13798.7134,-3709.9558L13798.7543,-3709.9014L13798.7619,-3709.8899L13798.7675,-3709.8826L13798.7836,-3709.8607L13798.8281,-3709.8006"/>
<path content="1,糸魚川バス（株）,58能生徳合線,6.0,6.0,0.0," xlink:title="1" d="M13798.8281,-3709.8006L13798.7836,-3709.8607L13798.7675,-3709.8826L13798.7619,-3709.8899L13798.7543,-3709.9014L13798.7134,-3709.9558L13798.6789,-3710.0031L13798.6529,-3710.0436L13798.6501,-3710.0493L13798.6383,-3710.0625L13798.6298,-3710.0819L13798.6234,-3710.092L13798.6178,-3710.1067L13798.6129,-3710.1196L13798.6066,-3710.1432L13798.5953,-3710.1804L13798.5904,-3710.199L13798.5861,-3710.2213L13798.5798,-3710.2401L13798.5651,-3710.2851L13798.596,-3710.2964L13798.6087,-3710.3009L13798.6396,-3710.3133L13798.6501,-3710.3166L13798.6663,-3710.3223L13798.7485,-3710.3577L13798.7775,-3710.3708L13798.8281,-3710.4006"/>
<path content="1,糸魚川バス（株）,59能生～横町五丁目線,1.0,1.0,0.0," xlink:title="1" d="M13796.3795,-3708.9844L13796.3949,-3708.9926L13796.4095,-3708.9992L13796.4262,-3709.0085L13796.4574,-3709.0245L13796.4806,-3709.0363L13796.5072,-3709.0495L13796.5312,-3709.0617L13796.5452,-3709.0701L13796.5592,-3709.0798L13796.5762,-3709.0892L13796.5906,-3709.0945L13796.6006,-3709.0979L13796.6266,-3709.1041L13796.6483,-3709.1084L13796.6716,-3709.1104L13796.7066,-3709.1135L13796.7536,-3709.1198L13796.7796,-3709.1238L13796.8289,-3709.1345L13796.8832,-3709.1476L13796.9037,-3709.1544L13796.9395,-3709.1641L13796.9712,-3709.1744L13797.0042,-3709.1872L13797.0331,-3709.1985L13797.0399,-3709.2016L13797.0728,-3709.2154L13797.1045,-3709.2284L13797.1315,-3709.24L13797.1591,-3709.2516L13797.2118,-3709.2798L13797.2329,-3709.2944L13797.2532,-3709.3101L13797.2856,-3709.3434L13797.3165,-3709.3811L13797.3335,-3709.4001L13797.3486,-3709.4251L13797.3603,-3709.4499L13797.3705,-3709.4737L13797.378,-3709.4914L13797.3865,-3709.5136L13797.4011,-3709.5568L13797.4145,-3709.6017L13797.4218,-3709.629L13797.4306,-3709.6567L13797.443,-3709.6916L13797.4513,-3709.7122L13797.4625,-3709.7315L13797.4768,-3709.7507L13797.4904,-3709.7651L13797.5066,-3709.7829L13797.5233,-3709.7985L13797.5393,-3709.8132L13797.5631,-3709.8306L13797.5833,-3709.8438L13797.6048,-3709.8574L13797.6268,-3709.8701L13797.6519,-3709.8826L13797.6838,-3709.8987L13797.7142,-3709.9141L13797.7271,-3709.9207L13797.8048,-3709.9547L13797.8392,-3709.9682L13797.8947,-3709.9884L13797.9418,-3710.0036L13797.9574,-3710.009L13797.9709,-3710.0121L13798.0997,-3710.0574L13798.1254,-3710.0677L13798.1596,-3710.0813L13798.1843,-3710.0914L13798.1969,-3710.0993L13798.2124,-3710.1078L13798.2278,-3710.119L13798.2376,-3710.1252L13798.2622,-3710.1472L13798.2672,-3710.1523L13798.2824,-3710.1661L13798.2951,-3710.1746L13798.3206,-3710.1899L13798.3341,-3710.1974L13798.3529,-3710.2063L13798.3646,-3710.2118L13798.3697,-3710.2136L13798.3833,-3710.2187L13798.4262,-3710.2349L13798.4547,-3710.2457L13798.5201,-3710.2688L13798.5651,-3710.2851L13798.5798,-3710.2401L13798.5861,-3710.2213"/>
<path content="1,糸魚川バス（株）,59青海～能生線,26.5,26.5,14.0," xlink:title="1" d="M13796.3795,-3708.9844L13796.3949,-3708.9926L13796.4095,-3708.9992L13796.4262,-3709.0085L13796.4574,-3709.0245L13796.4806,-3709.0363L13796.5072,-3709.0495L13796.5312,-3709.0617L13796.5452,-3709.0701L13796.5592,-3709.0798L13796.5762,-3709.0892L13796.5906,-3709.0945L13796.6006,-3709.0979L13796.6266,-3709.1041L13796.6483,-3709.1084L13796.6716,-3709.1104L13796.7066,-3709.1135L13796.7536,-3709.1198L13796.7796,-3709.1238L13796.8289,-3709.1345L13796.8832,-3709.1476L13796.9037,-3709.1544L13796.9395,-3709.1641L13796.9712,-3709.1744L13797.0042,-3709.1872L13797.0331,-3709.1985L13797.0399,-3709.2016L13797.0728,-3709.2154L13797.1045,-3709.2284L13797.1315,-3709.24L13797.1591,-3709.2516L13797.2118,-3709.2798L13797.2329,-3709.2944L13797.2532,-3709.3101L13797.2856,-3709.3434L13797.3165,-3709.3811L13797.3335,-3709.4001L13797.3486,-3709.4251L13797.3603,-3709.4499L13797.3705,-3709.4737L13797.378,-3709.4914L13797.3865,-3709.5136L13797.4011,-3709.5568L13797.4145,-3709.6017L13797.4218,-3709.629L13797.4306,-3709.6567L13797.443,-3709.6916L13797.4513,-3709.7122L13797.4625,-3709.7315L13797.4768,-3709.7507L13797.4904,-3709.7651L13797.5066,-3709.7829L13797.5233,-3709.7985L13797.5393,-3709.8132L13797.5631,-3709.8306L13797.5833,-3709.8438L13797.6048,-3709.8574L13797.6268,-3709.8701L13797.6519,-3709.8826L13797.6838,-3709.8987L13797.7142,-3709.9141L13797.7271,-3709.9207L13797.8048,-3709.9547L13797.8392,-3709.9682L13797.8947,-3709.9884L13797.9418,-3710.0036L13797.9574,-3710.009L13797.9709,-3710.0121L13798.0997,-3710.0574L13798.1254,-3710.0677L13798.1596,-3710.0813L13798.1843,-3710.0914L13798.1969,-3710.0993L13798.2124,-3710.1078L13798.2278,-3710.119L13798.2376,-3710.1252L13798.2622,-3710.1472L13798.2672,-3710.1523L13798.2824,-3710.1661L13798.2951,-3710.1746L13798.3206,-3710.1899L13798.3341,-3710.1974L13798.3529,-3710.2063L13798.3646,-3710.2118L13798.3697,-3710.2136L13798.3833,-3710.2187L13798.4262,-3710.2349L13798.4547,-3710.2457L13798.5201,-3710.2688L13798.5651,-3710.2851L13798.5798,-3710.2401L13798.5861,-3710.2213L13798.5904,-3710.199L13798.5953,-3710.1804L13798.6066,-3710.1432L13798.6129,-3710.1196L13798.6178,-3710.1067L13798.6234,-3710.092L13798.6298,-3710.0819L13798.6383,-3710.0625L13798.6501,-3710.0493L13798.6529,-3710.0436L13798.6789,-3710.0031L13798.7134,-3709.9558L13798.7543,-3709.9014L13798.7619,-3709.8899L13798.7675,-3709.8826L13798.7836,-3709.8607L13798.8281,-3709.8006"/>
<path content="1,西東京バス（株）,001,2.0,2.0,2.0," xlink:title="1" d="M13798.8281,-3709.1351L13798.8029,-3709.1241L13798.7279,-3709.091L13798.7029,-3709.0784L13798.6796,-3709.0697L13798.5698,-3709.026L13798.5023,-3709.0007L13798.4615,-3708.9844"/>
<path content="1,西武バス（株）,富山線,2.0,2.0,2.0," xlink:title="1" d="M13798.8281,-3709.1351L13798.8029,-3709.1241L13798.7279,-3709.091L13798.7029,-3709.0784L13798.6796,-3709.0697L13798.5698,-3709.026L13798.5023,-3709.0007L13798.4615,-3708.9844"/>
<path content="1,西武バス（株）,氷見線,1.0,1.0,1.0," xlink:title="1" d="M13798.8281,-3709.1351L13798.8029,-3709.1241L13798.7279,-3709.091L13798.7029,-3709.0784L13798.6796,-3709.0697L13798.5698,-3709.026L13798.5023,-3709.0007L13798.4615,-3708.9844"/>
<path content="1,西武バス（株）,金沢線,2.0,2.0,2.0," xlink:title="1" d="M13798.8281,-3709.1351L13798.8029,-3709.1241L13798.7279,-3709.091L13798.7029,-3709.0784L13798.6796,-3709.0697L13798.5698,-3709.026L13798.5023,-3709.0007L13798.4615,-3708.9844"/>
<path content="1,越後交通（株）,高速バス越後（三条・長岡・柏崎～京都・大阪線）,1.0,1.0,1.0," xlink:title="1" d="M13798.8281,-3709.1351L13798.8029,-3709.1241L13798.7279,-3709.091L13798.7029,-3709.0784L13798.6796,-3709.0697L13798.5698,-3709.026L13798.5023,-3709.0007L13798.4615,-3708.9844"/>
<path content="1,近鉄バス（株）,大阪・京都⇔山形,1.0,1.0,1.0," xlink:title="1" d="M13798.4615,-3708.9844L13798.5023,-3709.0007L13798.5698,-3709.026L13798.6796,-3709.0697L13798.7029,-3709.0784L13798.7279,-3709.091L13798.8029,-3709.1241L13798.8281,-3709.1351"/>
<path content="1,阪急バス（株）,新潟行（おけさ号）,1.0,1.0,1.0," xlink:title="1" d="M13798.4615,-3708.9844L13798.5023,-3709.0007L13798.5698,-3709.026L13798.6796,-3709.0697L13798.7029,-3709.0784L13798.7279,-3709.091L13798.8029,-3709.1241L13798.8281,-3709.1351"/>
<path content="1,頸城自動車（株）,能生線（名立区・能生方面）,2.0,2.0,2.0," xlink:title="1" d="M13798.5861,-3710.2213L13798.5798,-3710.2401L13798.5651,-3710.2851L13798.596,-3710.2964L13798.6087,-3710.3009L13798.6396,-3710.3133L13798.6501,-3710.3166L13798.6663,-3710.3223L13798.7485,-3710.3577L13798.7775,-3710.3708L13798.8281,-3710.4006"/>
</g>
</svg>
