<?xml version="1.0" encoding="UTF-8"?>
<svg  xmlns="http://www.w3.org/2000/svg" xmlns:xlink="http://www.w3.org/1999/xlink" xmlns:go="http://purl.org/svgmap/profile" property="N07_001,N07_002,N07_003,N07_004,N07_005,N07_006,N07_007" viewBox="13690.0634765625 -3517.822265625 1.0986328125 1.0986328125" go:dataArea="13690.0634765625 -3517.822265625 1.0986328125 1.0986328125" >
<metadata>
 <rdf:RDF xmlns:rdf="http://www.w3.org/1999/02/22-rdf-syntax-ns#" xmlns:crs="http://opengis.org/xmldtds/transformations.dtd" xmlns:svg="http://www.w3.org/svg" >
  <rdf:Description>
   <crs:CoordinateReferenceSystem rdf:resource="http://purl.org/crs/84" svg:transform="matrix(100.0,0.0,0.0,-100.0,0.0,0.0)" />
  </rdf:Description>
 </rdf:RDF>
</metadata>
<globalCoordinateSystem srsName="http://purl.org/crs/84" transform="matrix(100.0,0.0,0.0,-100.0,0.0,0.0)" />
<defs>
 <g id="p0" >
  <circle cx="0.0" cy="0.0" r="3" stroke="green" stroke-width="0.75" vector-effect="non-scaling-stroke" />
 </g>
</defs>
<g fill="none" fill-rule="evenodd" stroke="#FF00FF" stroke-width="0.75" opacity="0.5" vector-effect="non-scaling-stroke" stroke-linejoin="bevel" >
<path content="1,JRバステック（株）,名古屋系統（特急）,1.0,1.0,1.0," xlink:title="1" d="M13691.1621,-3517.0163L13691.0736,-3517.0106L13691.0586,-3517.0101"/>
<path content="1,JRバステック（株）,名古屋系統（特急）,1.0,1.0,1.0," xlink:title="1" d="M13691.0586,-3517.0101L13691.0543,-3517.051L13691.0221,-3517.0486"/>
<path content="1,JRバステック（株）,名古屋系統（特急）,1.0,1.0,1.0," xlink:title="1" d="M13691.0586,-3517.0101L13691.0427,-3517.0095L13690.9459,-3517.0028L13690.9272,-3517.0016L13690.9061,-3517.0003L13690.8986,-3517.0002L13690.8809,-3516.9999L13690.8548,-3517.0003L13690.8335,-3516.9969L13690.8189,-3516.9969L13690.8087,-3516.9969L13690.7891,-3516.9957L13690.7157,-3516.9894L13690.6959,-3516.988L13690.6811,-3516.987L13690.6481,-3516.9846L13690.5743,-3516.9794L13690.5655,-3516.9791L13690.5541,-3516.9782L13690.4746,-3516.9733L13690.4509,-3516.9717L13690.4268,-3516.9707L13690.3533,-3516.9669L13690.3392,-3516.9664L13690.3104,-3516.9634L13690.2365,-3516.9592L13690.22,-3516.9579L13690.1997,-3516.9558L13690.1486,-3516.954L13690.1135,-3516.9493L13690.0976,-3516.9481L13690.0757,-3516.9467L13690.0635,-3516.9459"/>
<path content="1,JRバステック（株）,名古屋系統（超特急）,3.0,3.0,3.0," xlink:title="1" d="M13691.1621,-3517.397L13691.1519,-3517.3966L13691.0509,-3517.39L13691.0261,-3517.3884L13691.0199,-3517.388L13691.0051,-3517.3871L13690.8908,-3517.3793L13690.8899,-3517.3793L13690.8702,-3517.3779L13690.8534,-3517.3767L13690.8016,-3517.3731L13690.7738,-3517.3713L13690.7511,-3517.3697L13690.6827,-3517.365L13690.6442,-3517.3628L13690.6351,-3517.3634L13690.6043,-3517.3605L13690.5981,-3517.3602L13690.5315,-3517.355L13690.431,-3517.3473L13690.4129,-3517.346L13690.3918,-3517.3444L13690.2965,-3517.3374L13690.204,-3517.3307L13690.1809,-3517.3292L13690.1695,-3517.3312L13690.0735,-3517.3204L13690.0635,-3517.3198"/>
<path content="1,JRバス関東（株）,中央ドリーム名古屋号,1.0,1.0,1.0," xlink:title="1" d="M13691.0586,-3517.0101L13691.0543,-3517.051L13691.0221,-3517.0486"/>
<path content="1,JRバス関東（株）,中央ドリーム名古屋号,1.0,1.0,1.0," xlink:title="1" d="M13691.0586,-3517.0101L13691.0427,-3517.0095L13690.9459,-3517.0028L13690.9272,-3517.0016L13690.9061,-3517.0003L13690.8986,-3517.0002L13690.8809,-3516.9999L13690.8548,-3517.0003L13690.8335,-3516.9969L13690.8189,-3516.9969L13690.8087,-3516.9969L13690.7891,-3516.9957L13690.7157,-3516.9894L13690.6959,-3516.988L13690.6811,-3516.987L13690.6481,-3516.9846L13690.5743,-3516.9794L13690.5655,-3516.9791L13690.5541,-3516.9782L13690.4746,-3516.9733L13690.4509,-3516.9717L13690.4268,-3516.9707L13690.3533,-3516.9669L13690.3392,-3516.9664L13690.3104,-3516.9634L13690.2365,-3516.9592L13690.22,-3516.9579L13690.1997,-3516.9558L13690.1486,-3516.954L13690.1135,-3516.9493L13690.0976,-3516.9481L13690.0757,-3516.9467L13690.0635,-3516.9459"/>
<path content="1,JRバス関東（株）,中央ドリーム名古屋号,1.0,1.0,1.0," xlink:title="1" d="M13691.1621,-3517.0163L13691.0736,-3517.0106L13691.0586,-3517.0101"/>
<path content="1,JRバス関東（株）,中央ライナー,2.5,2.5,2.5," xlink:title="1" d="M13691.0586,-3517.0101L13691.0543,-3517.051L13691.0221,-3517.0486"/>
<path content="1,JRバス関東（株）,中央ライナー,2.5,2.5,2.5," xlink:title="1" d="M13691.0586,-3517.0101L13691.0427,-3517.0095L13690.9459,-3517.0028L13690.9272,-3517.0016L13690.9061,-3517.0003L13690.8986,-3517.0002L13690.8809,-3516.9999L13690.8548,-3517.0003L13690.8335,-3516.9969L13690.8189,-3516.9969L13690.8087,-3516.9969L13690.7891,-3516.9957L13690.7157,-3516.9894L13690.6959,-3516.988L13690.6811,-3516.987L13690.6481,-3516.9846L13690.5743,-3516.9794L13690.5655,-3516.9791L13690.5541,-3516.9782L13690.4746,-3516.9733L13690.4509,-3516.9717L13690.4268,-3516.9707L13690.3533,-3516.9669L13690.3392,-3516.9664L13690.3104,-3516.9634L13690.2365,-3516.9592L13690.22,-3516.9579L13690.1997,-3516.9558L13690.1486,-3516.954L13690.1135,-3516.9493L13690.0976,-3516.9481L13690.0757,-3516.9467L13690.0635,-3516.9459"/>
<path content="1,JRバス関東（株）,中央ライナー,2.5,2.5,2.5," xlink:title="1" d="M13691.1621,-3517.0163L13691.0736,-3517.0106L13691.0586,-3517.0101"/>
<path content="1,JRバス関東（株）,東名ハイウェイバス,8.0,8.0,8.0," xlink:title="1" d="M13691.1621,-3517.397L13691.1519,-3517.3966L13691.0509,-3517.39L13691.0261,-3517.3884L13691.0199,-3517.388L13691.0051,-3517.3871L13690.8908,-3517.3793L13690.8899,-3517.3793L13690.8702,-3517.3779L13690.8534,-3517.3767L13690.8016,-3517.3731L13690.7738,-3517.3713L13690.7511,-3517.3697L13690.6827,-3517.365L13690.6442,-3517.3628L13690.6351,-3517.3634L13690.6043,-3517.3605L13690.5981,-3517.3602L13690.5315,-3517.355L13690.431,-3517.3473L13690.4129,-3517.346L13690.3918,-3517.3444L13690.2965,-3517.3374L13690.204,-3517.3307L13690.1809,-3517.3292L13690.1695,-3517.3312L13690.0735,-3517.3204L13690.0635,-3517.3198"/>
<path content="1,JR東海バス（株）,セレナーデ号,1.0,1.0,1.0," xlink:title="1" d="M13690.0635,-3516.9459L13690.0757,-3516.9467L13690.0976,-3516.9481L13690.1135,-3516.9493L13690.1997,-3516.9558L13690.22,-3516.9579L13690.2365,-3516.9592L13690.3104,-3516.9634L13690.3393,-3516.9664L13690.3533,-3516.9669L13690.4268,-3516.9707L13690.4509,-3516.9717L13690.4746,-3516.9733L13690.5541,-3516.9782L13690.5655,-3516.9791L13690.5743,-3516.9794L13690.6481,-3516.9846L13690.6811,-3516.987L13690.6959,-3516.988L13690.7157,-3516.9894L13690.7891,-3516.9957L13690.8087,-3516.9969L13690.8548,-3517.0003L13690.9061,-3517.0003L13690.9272,-3517.0016L13690.9459,-3517.0028L13691.0427,-3517.0095L13691.0586,-3517.0101L13691.0541,-3517.052L13691.0221,-3517.0486"/>
<path content="1,JR東海バス（株）,ドリームとよた号,1.0,1.0,1.0," xlink:title="1" d="M13691.1621,-3517.397L13691.1519,-3517.3966L13691.0509,-3517.39L13691.0261,-3517.3884L13691.0199,-3517.388L13691.0051,-3517.3871L13690.8908,-3517.3793L13690.8899,-3517.3792L13690.8702,-3517.3779L13690.8534,-3517.3767L13690.8016,-3517.3731L13690.7738,-3517.3712L13690.7511,-3517.3697L13690.6828,-3517.365L13690.6351,-3517.3634L13690.6043,-3517.3605L13690.5981,-3517.3602L13690.5315,-3517.355L13690.431,-3517.3473L13690.4129,-3517.346L13690.1695,-3517.3312L13690.0635,-3517.3217"/>
<path content="1,JR東海バス（株）,ドリームなごや号_01_on,3.0,3.0,3.0," xlink:title="1" d="M13691.0586,-3517.0101L13691.0427,-3517.0095L13690.9459,-3517.0028L13690.9272,-3517.0016L13690.9061,-3517.0003L13690.8548,-3517.0003L13690.8087,-3516.9969L13690.7891,-3516.9957L13690.7157,-3516.9894L13690.6959,-3516.988L13690.6811,-3516.987L13690.6481,-3516.9846L13690.5743,-3516.9794L13690.5655,-3516.9791L13690.5541,-3516.9782L13690.4746,-3516.9733L13690.4509,-3516.9717L13690.4268,-3516.9707L13690.3533,-3516.9669L13690.3393,-3516.9664L13690.3104,-3516.9634L13690.2365,-3516.9592L13690.22,-3516.9579L13690.1997,-3516.9558L13690.1135,-3516.9493L13690.0976,-3516.9481L13690.0757,-3516.9467L13690.0635,-3516.9459"/>
<path content="1,JR東海バス（株）,ドリームなごや号_01_on,3.0,3.0,3.0," xlink:title="1" d="M13691.0586,-3517.0101L13691.0736,-3517.0106L13691.1621,-3517.0162"/>
<path content="1,JR東海バス（株）,ドリームなごや号_01_on,3.0,3.0,3.0," xlink:title="1" d="M13691.0221,-3517.0486L13691.0541,-3517.052L13691.0586,-3517.0101"/>
<path content="1,JR東海バス（株）,ファンタジア号,1.0,1.0,1.0," xlink:title="1" d="M13691.0586,-3517.0101L13691.0427,-3517.0095L13690.9459,-3517.0028L13690.9272,-3517.0016L13690.9061,-3517.0003L13690.8548,-3517.0003L13690.8087,-3516.9969L13690.7891,-3516.9957L13690.7157,-3516.9894L13690.6959,-3516.988L13690.6811,-3516.987L13690.6481,-3516.9846L13690.5743,-3516.9794L13690.5655,-3516.9791L13690.5541,-3516.9782L13690.4746,-3516.9733L13690.4509,-3516.9717L13690.4268,-3516.9707L13690.3533,-3516.9669L13690.3393,-3516.9664L13690.3104,-3516.9634L13690.2365,-3516.9592L13690.22,-3516.9579L13690.1997,-3516.9558L13690.1135,-3516.9493L13690.0976,-3516.9481L13690.0757,-3516.9467L13690.0635,-3516.9459"/>
<path content="1,JR東海バス（株）,ファンタジア号,1.0,1.0,1.0," xlink:title="1" d="M13691.0586,-3517.0101L13691.0736,-3517.0106L13691.1621,-3517.0162"/>
<path content="1,JR東海バス（株）,ファンタジア号,1.0,1.0,1.0," xlink:title="1" d="M13691.0221,-3517.0486L13691.0541,-3517.052L13691.0586,-3517.0101"/>
<path content="1,JR東海バス（株）,レディースドリームなごや号,1.0,1.0,1.0," xlink:title="1" d="M13690.0635,-3516.9459L13690.0757,-3516.9467L13690.0976,-3516.9481L13690.1135,-3516.9493L13690.1997,-3516.9558L13690.22,-3516.9579L13690.2365,-3516.9592L13690.3104,-3516.9634L13690.3393,-3516.9664L13690.3533,-3516.9669L13690.4268,-3516.9707L13690.4509,-3516.9717L13690.4746,-3516.9733L13690.5541,-3516.9782L13690.5655,-3516.9791L13690.5743,-3516.9794L13690.6481,-3516.9846L13690.6811,-3516.987L13690.6959,-3516.988L13690.7157,-3516.9894L13690.7891,-3516.9957L13690.8087,-3516.9969L13690.8548,-3517.0003L13690.9061,-3517.0003L13690.9272,-3517.0016L13690.9459,-3517.0028L13691.0427,-3517.0095L13691.0586,-3517.0101L13691.0736,-3517.0106L13691.1621,-3517.0162"/>
<path content="1,JR東海バス（株）,中央ドリームなごや号,1.0,1.0,1.0," xlink:title="1" d="M13690.0635,-3517.3217L13690.1695,-3517.3312L13690.4129,-3517.346L13690.431,-3517.3473L13690.5315,-3517.355L13690.5981,-3517.3602L13690.6043,-3517.3605L13690.6351,-3517.3634L13690.6828,-3517.365L13690.7511,-3517.3697L13690.7738,-3517.3712L13690.8016,-3517.3731L13690.8534,-3517.3767L13690.8702,-3517.3779L13690.8899,-3517.3792L13690.8908,-3517.3793L13691.0051,-3517.3871L13691.0199,-3517.388L13691.0261,-3517.3884L13691.0509,-3517.39L13691.1519,-3517.3966L13691.1621,-3517.397"/>
<path content="1,JR東海バス（株）,名古屋ライナー甲府線,3.0,3.0,3.0," xlink:title="1" d="M13690.0635,-3517.7893L13690.1184,-3517.7948L13690.4539,-3517.8134L13690.5798,-3517.8188L13690.6606,-3517.8223"/>
<path content="1,JR東海バス（株）,東名ハイウェイバス_02_on,37.0,37.0,37.0," xlink:title="1" d="M13691.1621,-3517.0162L13691.0736,-3517.0106L13691.0586,-3517.0101"/>
<path content="1,JR東海バス（株）,東名ハイウェイバス_02_on,37.0,37.0,37.0," xlink:title="1" d="M13691.0586,-3517.0101L13691.0427,-3517.0095L13690.9459,-3517.0028L13690.9272,-3517.0016L13690.9061,-3517.0003L13690.8548,-3517.0003L13690.8087,-3516.9969L13690.7891,-3516.9957L13690.7157,-3516.9894L13690.6959,-3516.988L13690.6811,-3516.987L13690.6481,-3516.9846L13690.5743,-3516.9794L13690.5655,-3516.9791L13690.5541,-3516.9782L13690.4746,-3516.9733L13690.4509,-3516.9717L13690.4268,-3516.9707L13690.3533,-3516.9669L13690.3393,-3516.9664L13690.3104,-3516.9634L13690.2365,-3516.9592L13690.22,-3516.9579L13690.1997,-3516.9558L13690.1135,-3516.9493L13690.0976,-3516.9481L13690.0757,-3516.9467L13690.0635,-3516.9459"/>
<path content="1,JR東海バス（株）,東名ハイウェイバス_02_on,37.0,37.0,37.0," xlink:title="1" d="M13691.0221,-3517.0486L13691.0541,-3517.052L13691.0586,-3517.0101"/>
<path content="1,JR東海バス（株）,東名ハイウェイバス_03_on,37.0,37.0,37.0," xlink:title="1" d="M13691.1621,-3517.0162L13691.0736,-3517.0106L13691.0586,-3517.0101"/>
<path content="1,JR東海バス（株）,東名ハイウェイバス_03_on,37.0,37.0,37.0," xlink:title="1" d="M13691.0586,-3517.0101L13691.0427,-3517.0095L13690.9459,-3517.0028L13690.9272,-3517.0016L13690.9061,-3517.0003L13690.8548,-3517.0003L13690.8087,-3516.9969L13690.7891,-3516.9957L13690.7157,-3516.9894L13690.6959,-3516.988L13690.6811,-3516.987L13690.6481,-3516.9846L13690.5743,-3516.9794L13690.5655,-3516.9791L13690.5541,-3516.9782L13690.4746,-3516.9733L13690.4509,-3516.9717L13690.4268,-3516.9707L13690.3533,-3516.9669L13690.3393,-3516.9664L13690.3104,-3516.9634L13690.2365,-3516.9592L13690.22,-3516.9579L13690.1997,-3516.9558L13690.1135,-3516.9493L13690.0976,-3516.9481L13690.0757,-3516.9467L13690.0635,-3516.9459"/>
<path content="1,JR東海バス（株）,東名ハイウェイバス_03_on,37.0,37.0,37.0," xlink:title="1" d="M13691.0221,-3517.0486L13691.0541,-3517.052L13691.0586,-3517.0101"/>
<path content="1,JR東海バス（株）,青春ドリームなごや号,1.0,1.0,1.0," xlink:title="1" d="M13691.1621,-3517.0162L13691.0736,-3517.0106L13691.0586,-3517.0101"/>
<path content="1,JR東海バス（株）,青春ドリームなごや号,1.0,1.0,1.0," xlink:title="1" d="M13691.0586,-3517.0101L13691.0427,-3517.0095L13690.9459,-3517.0028L13690.9272,-3517.0016L13690.9061,-3517.0003L13690.8548,-3517.0003L13690.8087,-3516.9969L13690.7891,-3516.9957L13690.7157,-3516.9894L13690.6959,-3516.988L13690.6811,-3516.987L13690.6481,-3516.9846L13690.5743,-3516.9794L13690.5655,-3516.9791L13690.5541,-3516.9782L13690.4746,-3516.9733L13690.4509,-3516.9717L13690.4268,-3516.9707L13690.3533,-3516.9669L13690.3393,-3516.9664L13690.3104,-3516.9634L13690.2365,-3516.9592L13690.22,-3516.9579L13690.1997,-3516.9558L13690.1135,-3516.9493L13690.0976,-3516.9481L13690.0757,-3516.9467L13690.0635,-3516.9459"/>
<path content="1,JR東海バス（株）,青春ドリームなごや号,1.0,1.0,1.0," xlink:title="1" d="M13691.0221,-3517.0486L13691.0541,-3517.052L13691.0586,-3517.0101"/>
<path content="1,あおい交通（株）,県営名古屋空港直行バス_01_on,29.5,29.5,29.5," xlink:title="1" d="M13690.0635,-3517.3217L13690.1695,-3517.3312L13690.4129,-3517.346L13690.431,-3517.3473L13690.5315,-3517.355L13690.5981,-3517.3602L13690.6043,-3517.3605L13690.6351,-3517.3634L13690.6811,-3516.987L13690.6959,-3516.988L13690.7157,-3516.9894L13690.7891,-3516.9957L13690.8087,-3516.9969L13690.8548,-3517.0003L13690.8986,-3517.0002L13690.9061,-3517.0003L13690.9272,-3517.0016L13690.9459,-3517.0028L13691.0427,-3517.0095L13691.0586,-3517.0101L13691.0736,-3517.0106L13691.1621,-3517.0162"/>
<path content="1,エムケイ（株）,MKナイトシャトル　名古屋・豊田⇔東京便,1.0,1.0,1.0," xlink:title="1" d="M13690.6606,-3517.8223L13690.5798,-3517.8188L13690.4539,-3517.8134L13690.1184,-3517.7948L13690.0635,-3517.7893"/>
<path content="1,三重交通（株）,栄～長島温泉,6.0,6.0,6.0," xlink:title="1" d="M13691.0221,-3517.0486L13691.0541,-3517.052L13691.0586,-3517.0101L13691.0427,-3517.0095L13690.9459,-3517.0028L13690.9272,-3517.0016L13690.9061,-3517.0003L13690.8986,-3517.0002L13690.8809,-3516.9999L13690.8335,-3516.9969L13690.8189,-3516.9969L13690.8087,-3516.9969L13690.7891,-3516.9957L13690.7157,-3516.9894L13690.6959,-3516.988L13690.6811,-3516.987L13690.6481,-3516.9846L13690.5743,-3516.9794L13690.5655,-3516.9791L13690.5541,-3516.9782L13690.4746,-3516.9733L13690.4509,-3516.9717L13690.4268,-3516.9707L13690.3533,-3516.9669L13690.3393,-3516.9664L13690.3104,-3516.9634L13690.2365,-3516.9592L13690.22,-3516.9579L13690.1997,-3516.9558L13690.1135,-3516.9493L13690.0976,-3516.9481L13690.0757,-3516.9467L13690.0635,-3516.9459"/>
<path content="1,中国JRバス（株）,広島・三次～名古屋　セレナーデ号,1.0,1.0,1.0," xlink:title="1" d="M13690.0635,-3516.9399L13691.0308,-3517.0044L13691.0117,-3517.0963"/>
<path content="1,亀の井バス（株）,大分⇔名古屋,1.0,1.0,1.0," xlink:title="1" d="M13691.1621,-3517.3971L13691.1517,-3517.3966L13691.0507,-3517.39L13691.026,-3517.3884L13691.0197,-3517.388L13691.0049,-3517.3871L13690.8907,-3517.3793L13690.8898,-3517.3793L13690.8701,-3517.3779L13690.8533,-3517.3768L13690.8015,-3517.3731L13690.7737,-3517.3713L13690.7509,-3517.3697L13690.6826,-3517.365L13690.635,-3517.3634L13690.6042,-3517.3605L13690.5979,-3517.3602L13690.5314,-3517.355L13690.4308,-3517.3473L13690.4128,-3517.346L13690.3917,-3517.3444L13690.2963,-3517.3375L13690.2039,-3517.3307L13690.1694,-3517.3312L13690.0734,-3517.3204L13690.0635,-3517.3198"/>
<path content="1,京成バス（株）,ファンタジアなごや号,0.5,0.5,0.5," xlink:title="1" d="M13691.0586,-3517.0101L13691.0543,-3517.0507L13691.0221,-3517.0486"/>
<path content="1,京成バス（株）,ファンタジアなごや号,0.5,0.5,0.5," xlink:title="1" d="M13691.0586,-3517.0101L13691.0736,-3517.0106L13691.1621,-3517.0163"/>
<path content="1,京成バス（株）,ファンタジアなごや号,0.5,0.5,0.5," xlink:title="1" d="M13690.0635,-3517.3198L13690.0735,-3517.3204L13690.1695,-3517.3312L13690.1809,-3517.3292L13690.204,-3517.3307L13690.2965,-3517.3374L13690.3918,-3517.3444L13690.4129,-3517.346L13690.431,-3517.3473L13690.5315,-3517.355L13690.5981,-3517.3602L13690.6043,-3517.3605L13690.6351,-3517.3634L13690.6442,-3517.3628L13690.6827,-3517.365L13690.7511,-3517.3697L13690.7738,-3517.3713L13690.8016,-3517.3731L13690.8534,-3517.3767L13690.8702,-3517.3779L13690.8767,-3517.3049L13690.8801,-3517.2734L13690.8891,-3517.1838L13690.8904,-3517.1765L13690.8883,-3517.1435L13690.8966,-3517.1016L13690.9048,-3517.0163L13690.9061,-3517.0003L13690.9272,-3517.0016L13690.9459,-3517.0028L13691.0427,-3517.0095L13691.0586,-3517.0101"/>
<path content="1,京王バス南（株）,新宿～名古屋線,2.0,2.0,2.0," xlink:title="1" d="M13690.0635,-3517.3198L13690.0735,-3517.3204L13690.1695,-3517.3312L13690.1809,-3517.3292L13690.204,-3517.3307L13690.2965,-3517.3374L13690.3918,-3517.3444L13690.4129,-3517.346L13690.431,-3517.3473L13690.5315,-3517.355L13690.5981,-3517.3602L13690.6043,-3517.3605L13690.6351,-3517.3634L13690.6442,-3517.3628L13690.6827,-3517.365L13690.7511,-3517.3697L13690.7738,-3517.3713L13690.8016,-3517.3731L13690.8534,-3517.3767L13690.8702,-3517.3779"/>
<path content="1,京王バス南（株）,新宿～名古屋線,2.0,2.0,2.0," xlink:title="1" d="M13691.0221,-3517.0486L13691.0541,-3517.052L13691.0586,-3517.0101L13691.0427,-3517.0095L13690.9459,-3517.0028L13690.9272,-3517.0016L13690.9061,-3517.0003L13690.9048,-3517.0163L13690.8966,-3517.1016L13690.8883,-3517.1435L13690.8904,-3517.1765L13690.8891,-3517.1838L13690.8801,-3517.2734L13690.8767,-3517.3049L13690.8702,-3517.3779"/>
<path content="1,京王バス南（株）,新宿～名古屋線,2.0,2.0,2.0," xlink:title="1" d="M13690.8702,-3517.3779L13690.8899,-3517.3793L13690.8908,-3517.3793L13691.0051,-3517.3871L13691.0199,-3517.388L13691.0261,-3517.3884L13691.0509,-3517.39L13691.1519,-3517.3966L13691.1621,-3517.397"/>
<path content="1,伊那バス（株）,名古屋線,13.0,13.0,13.0," xlink:title="1" d="M13690.0635,-3516.9459L13690.0757,-3516.9467L13690.0976,-3516.9481L13690.1135,-3516.9493L13690.1997,-3516.9558L13690.22,-3516.9579L13690.2365,-3516.9592L13690.3104,-3516.9634L13690.3393,-3516.9664L13690.3533,-3516.9669L13690.4268,-3516.9707L13690.4509,-3516.9717L13690.4746,-3516.9733L13690.5541,-3516.9782L13690.5655,-3516.9791L13690.5743,-3516.9794L13690.6481,-3516.9846L13690.6811,-3516.987L13690.6959,-3516.988L13690.7157,-3516.9894L13690.7891,-3516.9957L13690.8087,-3516.9969L13690.8548,-3517.0003L13690.9061,-3517.0003L13690.9272,-3517.0016L13690.9459,-3517.0028L13691.0427,-3517.0095L13691.0586,-3517.0101L13691.0736,-3517.0106L13691.1621,-3517.0162M13690.6606,-3517.8223L13690.5798,-3517.8188L13690.4539,-3517.8134L13690.1184,-3517.7948L13690.0635,-3517.7893"/>
<path content="1,信南交通（株）,名古屋線_01_on,8.0,8.0,8.0," xlink:title="1" d="M13690.0635,-3516.9459L13690.0757,-3516.9467L13690.0976,-3516.9481L13690.1135,-3516.9493L13690.1997,-3516.9558L13690.22,-3516.9579L13690.2365,-3516.9592L13690.3104,-3516.9634L13690.3393,-3516.9664L13690.3533,-3516.9669L13690.4268,-3516.9707L13690.4509,-3516.9717L13690.4746,-3516.9733L13690.5541,-3516.9782L13690.5655,-3516.9791L13690.5743,-3516.9794L13690.6481,-3516.9846L13690.6811,-3516.987L13690.6959,-3516.988L13690.7157,-3516.9894L13690.7891,-3516.9957L13690.8087,-3516.9969L13690.8548,-3517.0003L13690.9061,-3517.0003L13690.9272,-3517.0016L13690.9459,-3517.0028L13691.0427,-3517.0095L13691.0586,-3517.0101L13691.0736,-3517.0106L13691.1621,-3517.0162M13690.6606,-3517.8223L13690.5798,-3517.8188L13690.4539,-3517.8134L13690.1184,-3517.7948L13690.0635,-3517.7893"/>
<path content="1,名鉄バス（株）,名古屋・津島線_03_on,33.5,29.0,29.0," xlink:title="1" d="M13690.0635,-3516.8425L13690.0886,-3516.8443L13690.1092,-3516.8464L13690.2221,-3516.855L13690.3486,-3516.8629L13690.3518,-3516.8631L13690.3618,-3516.8637L13690.4208,-3516.8675L13690.4396,-3516.8684L13690.4598,-3516.8706L13690.5185,-3516.8764L13690.5745,-3516.8781L13690.5899,-3516.8796L13690.6565,-3516.8842L13690.6907,-3516.8871L13690.8177,-3516.8935L13690.8703,-3516.8962L13690.9129,-3516.9032L13690.9071,-3516.9895L13690.9061,-3517.0003L13690.8548,-3517.0003"/>
<path content="1,名鉄バス（株）,名古屋・津島線_04_on,33.5,29.0,29.0," xlink:title="1" d="M13690.0635,-3516.8425L13690.0886,-3516.8443L13690.1092,-3516.8464L13690.2221,-3516.855L13690.3486,-3516.8629L13690.3518,-3516.8631L13690.3618,-3516.8637L13690.4208,-3516.8675L13690.4396,-3516.8684L13690.4598,-3516.8706L13690.5185,-3516.8764L13690.5745,-3516.8781L13690.5899,-3516.8796L13690.6565,-3516.8842L13690.6907,-3516.8871L13690.8177,-3516.8935L13690.8703,-3516.8962L13690.9129,-3516.9032L13690.9071,-3516.9895L13690.9061,-3517.0003L13690.8548,-3517.0003"/>
<path content="1,名鉄バス（株）,名古屋・津島線_05_on,33.5,29.0,29.0," xlink:title="1" d="M13690.0635,-3516.8425L13690.0886,-3516.8443L13690.1092,-3516.8464L13690.2221,-3516.855L13690.3486,-3516.8629L13690.3518,-3516.8631L13690.3618,-3516.8637L13690.4208,-3516.8675L13690.4396,-3516.8684L13690.4598,-3516.8706L13690.5185,-3516.8764L13690.5745,-3516.8781L13690.5899,-3516.8796L13690.6565,-3516.8842L13690.6907,-3516.8871L13690.8177,-3516.8935L13690.8703,-3516.8962L13690.9129,-3516.9032L13690.9071,-3516.9895L13690.9061,-3517.0003L13690.8548,-3517.0003"/>
<path content="1,名鉄バス（株）,名古屋～仙台,1.0,1.0,1.0," xlink:title="1" d="M13690.0635,-3516.9459L13690.0757,-3516.9467L13690.0976,-3516.9481L13690.1135,-3516.9493L13690.1997,-3516.9558L13690.22,-3516.9579L13690.2365,-3516.9592L13690.3104,-3516.9634L13690.3393,-3516.9664L13690.3533,-3516.9669L13690.4268,-3516.9707L13690.4509,-3516.9717L13690.4746,-3516.9733L13690.5541,-3516.9782L13690.5655,-3516.9791L13690.5743,-3516.9794L13690.6481,-3516.9846L13690.6811,-3516.987L13690.6959,-3516.988L13690.7157,-3516.9894L13690.7891,-3516.9957L13690.8087,-3516.9969L13690.8548,-3517.0003L13690.9061,-3517.0003L13690.9272,-3517.0016L13690.9459,-3517.0028L13691.0427,-3517.0095L13691.0586,-3517.0101L13691.0736,-3517.0106L13691.1621,-3517.0162"/>
<path content="1,名鉄バス（株）,名古屋～伊那,15.0,15.0,15.0," xlink:title="1" d="M13690.0635,-3516.9459L13690.0757,-3516.9467L13690.0976,-3516.9481L13690.1135,-3516.9493L13690.1997,-3516.9558L13690.22,-3516.9579L13690.2365,-3516.9592L13690.3104,-3516.9634L13690.3393,-3516.9664L13690.3533,-3516.9669L13690.4268,-3516.9707L13690.4509,-3516.9717L13690.4746,-3516.9733L13690.5541,-3516.9782L13690.5655,-3516.9791L13690.5743,-3516.9794L13690.6481,-3516.9846L13690.6811,-3516.987L13690.6959,-3516.988L13690.7157,-3516.9894L13690.7891,-3516.9957L13690.8087,-3516.9969L13690.8548,-3517.0003L13690.9061,-3517.0003L13690.9272,-3517.0016L13690.9459,-3517.0028L13691.0427,-3517.0095L13691.0586,-3517.0101L13691.0736,-3517.0106L13691.1621,-3517.0162"/>
<path content="1,名鉄バス（株）,名古屋～富士五湖,0.7,0.7,0.7," xlink:title="1" d="M13690.0635,-3516.9459L13690.0757,-3516.9467L13690.0976,-3516.9481L13690.1135,-3516.9493L13690.1997,-3516.9558L13690.22,-3516.9579L13690.2365,-3516.9592L13690.3104,-3516.9634L13690.3393,-3516.9664L13690.3533,-3516.9669L13690.4268,-3516.9707L13690.4509,-3516.9717L13690.4746,-3516.9733L13690.5541,-3516.9782L13690.5655,-3516.9791L13690.5743,-3516.9794L13690.6481,-3516.9846L13690.6811,-3516.987L13690.6959,-3516.988L13690.7157,-3516.9894L13690.7891,-3516.9957L13690.8087,-3516.9969L13690.8548,-3517.0003L13690.9061,-3517.0003L13690.9272,-3517.0016L13690.9459,-3517.0028L13691.0427,-3517.0095L13691.0586,-3517.0101L13691.0736,-3517.0106L13691.1621,-3517.0162"/>
<path content="1,名鉄バス（株）,名古屋～徳島,0.5,2.0,2.0," xlink:title="1" d="M13690.8548,-3517.0003L13690.8087,-3516.9969L13690.7891,-3516.9957L13690.7157,-3516.9894L13690.6959,-3516.988L13690.6811,-3516.987L13690.6481,-3516.9846L13690.5743,-3516.9794L13690.5655,-3516.9791L13690.5541,-3516.9782L13690.4746,-3516.9733L13690.4509,-3516.9717L13690.4268,-3516.9707L13690.3533,-3516.9669L13690.3393,-3516.9664L13690.3104,-3516.9634L13690.2365,-3516.9592L13690.22,-3516.9579L13690.1997,-3516.9558L13690.1135,-3516.9493L13690.0976,-3516.9481L13690.0757,-3516.9467L13690.0635,-3516.9459"/>
<path content="1,名鉄バス（株）,名古屋～新宿,4.0,4.0,4.0," xlink:title="1" d="M13691.1621,-3517.0162L13691.0736,-3517.0106L13691.0586,-3517.0101L13691.0427,-3517.0095L13690.9459,-3517.0028L13690.9272,-3517.0016L13690.9061,-3517.0003L13690.8548,-3517.0003L13690.8087,-3516.9969L13690.7891,-3516.9957L13690.7157,-3516.9894L13690.6959,-3516.988L13690.6811,-3516.987L13690.6481,-3516.9846L13690.5743,-3516.9794L13690.5655,-3516.9791L13690.5541,-3516.9782L13690.4746,-3516.9733L13690.4509,-3516.9717L13690.4268,-3516.9707L13690.3533,-3516.9669L13690.3393,-3516.9664L13690.3104,-3516.9634L13690.2365,-3516.9592L13690.22,-3516.9579L13690.1997,-3516.9558L13690.1135,-3516.9493L13690.0976,-3516.9481L13690.0757,-3516.9467L13690.0635,-3516.9459"/>
<path content="1,名鉄バス（株）,名古屋～福岡,1.0,1.0,1.0," xlink:title="1" d="M13691.1621,-3517.0162L13691.0736,-3517.0106L13691.0586,-3517.0101L13691.0427,-3517.0095L13690.9459,-3517.0028L13690.9272,-3517.0016L13690.9061,-3517.0003L13690.8548,-3517.0003L13690.8087,-3516.9969L13690.7891,-3516.9957L13690.7157,-3516.9894L13690.6959,-3516.988L13690.6811,-3516.987L13690.6481,-3516.9846L13690.5743,-3516.9794L13690.5655,-3516.9791L13690.5541,-3516.9782L13690.4746,-3516.9733L13690.4509,-3516.9717L13690.4268,-3516.9707L13690.3533,-3516.9669L13690.3393,-3516.9664L13690.3104,-3516.9634L13690.2365,-3516.9592L13690.22,-3516.9579L13690.1997,-3516.9558L13690.1135,-3516.9493L13690.0976,-3516.9481L13690.0757,-3516.9467L13690.0635,-3516.9459"/>
<path content="1,名鉄バス（株）,名古屋～飯田（昼神温泉）,15.0,15.0,15.0," xlink:title="1" d="M13690.0635,-3516.9459L13690.0757,-3516.9467L13690.0976,-3516.9481L13690.1135,-3516.9493L13690.1997,-3516.9558L13690.22,-3516.9579L13690.2365,-3516.9592L13690.3104,-3516.9634L13690.3393,-3516.9664L13690.3533,-3516.9669L13690.4268,-3516.9707L13690.4509,-3516.9717L13690.4746,-3516.9733L13690.5541,-3516.9782L13690.5655,-3516.9791L13690.5743,-3516.9794L13690.6481,-3516.9846L13690.6811,-3516.987L13690.6959,-3516.988L13690.7157,-3516.9894L13690.7891,-3516.9957L13690.8087,-3516.9969L13690.8548,-3517.0003L13690.9061,-3517.0003L13690.9272,-3517.0016L13690.9459,-3517.0028L13691.0427,-3517.0095L13691.0586,-3517.0101L13691.0736,-3517.0106L13691.1621,-3517.0162"/>
<path content="1,名鉄バス（株）,基幹バス本地ヶ原線_01_on,36.5,33.0,33.0," xlink:title="1" d="M13690.9295,-3516.7236L13690.9293,-3516.7258L13690.9242,-3516.7774L13690.9238,-3516.7806L13690.9224,-3516.8024L13690.9142,-3516.8836L13690.9129,-3516.9032L13690.9071,-3516.9895L13690.9061,-3517.0003L13690.8986,-3517.0002L13690.8548,-3517.0003L13690.8087,-3516.9969L13690.8012,-3517.0756L13690.7923,-3517.1618L13690.7916,-3517.1703L13690.782,-3517.2649L13690.7738,-3517.3712L13690.7511,-3517.3697L13690.6828,-3517.365L13690.6351,-3517.3634L13690.6114,-3517.5875L13690.5806,-3517.8106L13690.5798,-3517.8188L13690.5795,-3517.8223"/>
<path content="1,名鉄バス（株）,基幹バス本地ヶ原線_02_on,36.5,33.0,33.0," xlink:title="1" d="M13690.9295,-3516.7236L13690.9293,-3516.7258L13690.9242,-3516.7774L13690.9238,-3516.7806L13690.9224,-3516.8024L13690.9142,-3516.8836L13690.9129,-3516.9032L13690.9071,-3516.9895L13690.9061,-3517.0003L13690.8986,-3517.0002L13690.8548,-3517.0003L13690.8087,-3516.9969L13690.8012,-3517.0756L13690.7923,-3517.1618L13690.7916,-3517.1703L13690.782,-3517.2649L13690.7738,-3517.3712L13690.7511,-3517.3697L13690.6828,-3517.365L13690.6351,-3517.3634L13690.6114,-3517.5875L13690.5806,-3517.8106L13690.5798,-3517.8188L13690.5795,-3517.8223"/>
<path content="1,名鉄バス（株）,基幹バス本地ヶ原線_03_on,36.5,33.0,33.0," xlink:title="1" d="M13690.9295,-3516.7236L13690.9293,-3516.7258L13690.9242,-3516.7774L13690.9238,-3516.7806L13690.9224,-3516.8024L13690.9142,-3516.8836L13690.9129,-3516.9032L13690.9071,-3516.9895L13690.9061,-3517.0003L13690.8986,-3517.0002L13690.8548,-3517.0003L13690.8087,-3516.9969L13690.8012,-3517.0756L13690.7923,-3517.1618L13690.7916,-3517.1703L13690.782,-3517.2649L13690.7738,-3517.3712L13690.7511,-3517.3697L13690.6828,-3517.365L13690.6351,-3517.3634L13690.6114,-3517.5875L13690.5806,-3517.8106L13690.5798,-3517.8188L13690.5795,-3517.8223"/>
<path content="1,名鉄バス（株）,基幹バス本地ヶ原線_04_on,36.5,33.0,33.0," xlink:title="1" d="M13690.9295,-3516.7236L13690.9293,-3516.7258L13690.9242,-3516.7774L13690.9238,-3516.7806L13690.9224,-3516.8024L13690.9142,-3516.8836L13690.9129,-3516.9032L13690.9071,-3516.9895L13690.9061,-3517.0003L13690.8986,-3517.0002L13690.8548,-3517.0003L13690.8087,-3516.9969L13690.8012,-3517.0756L13690.7923,-3517.1618L13690.7916,-3517.1703L13690.782,-3517.2649L13690.7738,-3517.3712L13690.7511,-3517.3697L13690.6828,-3517.365L13690.6351,-3517.3634L13690.6114,-3517.5875L13690.5806,-3517.8106L13690.5798,-3517.8188L13690.5795,-3517.8223"/>
<path content="1,名鉄バス（株）,基幹バス本地ヶ原線_05_on,36.5,33.0,33.0," xlink:title="1" d="M13690.9295,-3516.7236L13690.9293,-3516.7258L13690.9242,-3516.7774L13690.9238,-3516.7806L13690.9224,-3516.8024L13690.9142,-3516.8836L13690.9129,-3516.9032L13690.9071,-3516.9895L13690.9061,-3517.0003L13690.8986,-3517.0002L13690.8548,-3517.0003L13690.8087,-3516.9969L13690.8012,-3517.0756L13690.7923,-3517.1618L13690.7916,-3517.1703L13690.782,-3517.2649L13690.7738,-3517.3712L13690.7511,-3517.3697L13690.6828,-3517.365L13690.6351,-3517.3634L13690.6114,-3517.5875L13690.5806,-3517.8106L13690.5798,-3517.8188L13690.5795,-3517.8223"/>
<path content="1,名鉄バス（株）,基幹バス本地ヶ原線_06_on,36.5,33.0,33.0," xlink:title="1" d="M13690.9295,-3516.7236L13690.9293,-3516.7258L13690.9242,-3516.7774L13690.9238,-3516.7806L13690.9224,-3516.8024L13690.9142,-3516.8836L13690.9129,-3516.9032L13690.9071,-3516.9895L13690.9061,-3517.0003L13690.8986,-3517.0002L13690.8548,-3517.0003L13690.8087,-3516.9969L13690.8012,-3517.0756L13690.7923,-3517.1618L13690.7916,-3517.1703L13690.782,-3517.2649L13690.7738,-3517.3712L13690.7511,-3517.3697L13690.6828,-3517.365L13690.6351,-3517.3634L13690.6114,-3517.5875L13690.5806,-3517.8106L13690.5798,-3517.8188L13690.5795,-3517.8223"/>
<path content="1,名鉄バス（株）,基幹バス本地ヶ原線_07_on,36.5,33.0,33.0," xlink:title="1" d="M13690.9295,-3516.7236L13690.9293,-3516.7258L13690.9242,-3516.7774L13690.9238,-3516.7806L13690.9224,-3516.8024L13690.9142,-3516.8836L13690.9129,-3516.9032L13690.9071,-3516.9895L13690.9061,-3517.0003L13690.8986,-3517.0002L13690.8548,-3517.0003L13690.8087,-3516.9969L13690.8012,-3517.0756L13690.7923,-3517.1618L13690.7916,-3517.1703L13690.782,-3517.2649L13690.7738,-3517.3712L13690.7511,-3517.3697L13690.6828,-3517.365L13690.6351,-3517.3634L13690.6114,-3517.5875L13690.5806,-3517.8106L13690.5798,-3517.8188L13690.5795,-3517.8223"/>
<path content="1,名鉄バス（株）,都市間高速バス可児市役所線,17.0,17.0,17.0," xlink:title="1" d="M13690.0635,-3516.8425L13690.0886,-3516.8443L13690.1092,-3516.8464L13690.2221,-3516.855L13690.22,-3516.9579L13690.2365,-3516.9592L13690.3104,-3516.9634L13690.3393,-3516.9664L13690.3533,-3516.9669L13690.4268,-3516.9707L13690.4509,-3516.9717L13690.4746,-3516.9733L13690.5541,-3516.9782L13690.5655,-3516.9791L13690.5743,-3516.9794L13690.6481,-3516.9846L13690.6811,-3516.987L13690.6959,-3516.988L13690.7157,-3516.9894L13690.7891,-3516.9957L13690.8087,-3516.9969L13690.8548,-3517.0003L13690.9061,-3517.0003L13690.9272,-3517.0016L13690.9459,-3517.0028L13691.0427,-3517.0095L13691.0586,-3517.0101L13691.0736,-3517.0106L13691.1621,-3517.0162"/>
<path content="1,名鉄バス（株）,都市間高速バス多治見線,11.5,11.5,11.5," xlink:title="1" d="M13690.0635,-3516.8425L13690.0886,-3516.8443L13690.1092,-3516.8464L13690.2221,-3516.855L13690.22,-3516.9579L13690.2365,-3516.9592L13690.3104,-3516.9634L13690.3393,-3516.9664L13690.3533,-3516.9669L13690.4268,-3516.9707L13690.4509,-3516.9717L13690.4746,-3516.9733L13690.5541,-3516.9782L13690.5655,-3516.9791L13690.5743,-3516.9794L13690.6481,-3516.9846L13690.6811,-3516.987L13690.6959,-3516.988L13690.7157,-3516.9894L13690.7891,-3516.9957L13690.8087,-3516.9969L13690.8548,-3517.0003L13690.9061,-3517.0003L13690.9272,-3517.0016L13690.9459,-3517.0028L13691.0427,-3517.0095L13691.0586,-3517.0101L13691.0736,-3517.0106L13691.1621,-3517.0162"/>
<path content="1,名鉄バス（株）,都市間高速バス桃花台線_01_on,21.0,21.0,21.0," xlink:title="1" d="M13690.0635,-3516.8425L13690.0886,-3516.8443L13690.1092,-3516.8464L13690.2221,-3516.855L13690.22,-3516.9579L13690.2365,-3516.9592L13690.3104,-3516.9634L13690.3393,-3516.9664L13690.3533,-3516.9669L13690.4268,-3516.9707L13690.4509,-3516.9717L13690.4746,-3516.9733L13690.5541,-3516.9782L13690.5655,-3516.9791L13690.5743,-3516.9794L13690.6481,-3516.9846L13690.6811,-3516.987L13690.6959,-3516.988L13690.7157,-3516.9894L13690.7891,-3516.9957L13690.8087,-3516.9969L13690.8548,-3517.0003L13690.9061,-3517.0003L13690.9272,-3517.0016L13690.9459,-3517.0028L13691.0427,-3517.0095L13691.0586,-3517.0101L13691.0736,-3517.0106L13691.1621,-3517.0162"/>
<path content="1,名鉄バス（株）,都市間高速バス桃花台線_02_on,21.0,21.0,21.0," xlink:title="1" d="M13690.0635,-3516.8425L13690.0886,-3516.8443L13690.1092,-3516.8464L13690.2221,-3516.855L13690.22,-3516.9579L13690.2365,-3516.9592L13690.3104,-3516.9634L13690.3393,-3516.9664L13690.3533,-3516.9669L13690.4268,-3516.9707L13690.4509,-3516.9717L13690.4746,-3516.9733L13690.5541,-3516.9782L13690.5655,-3516.9791L13690.5743,-3516.9794L13690.6481,-3516.9846L13690.6811,-3516.987L13690.6959,-3516.988L13690.7157,-3516.9894L13690.7891,-3516.9957L13690.8087,-3516.9969L13690.8548,-3517.0003L13690.9061,-3517.0003L13690.9272,-3517.0016L13690.9459,-3517.0028L13691.0427,-3517.0095L13691.0586,-3517.0101L13691.0736,-3517.0106L13691.1621,-3517.0162"/>
<path content="1,名鉄バス（株）,都市間高速バス関・美濃線_01_on,11.0,11.0,11.0," xlink:title="1" d="M13690.0635,-3516.8425L13690.0886,-3516.8443L13690.1092,-3516.8464L13690.2221,-3516.855L13690.22,-3516.9579L13690.2365,-3516.9592L13690.3104,-3516.9634L13690.3393,-3516.9664L13690.3533,-3516.9669L13690.4268,-3516.9707L13690.4509,-3516.9717L13690.4746,-3516.9733L13690.5541,-3516.9782L13690.5655,-3516.9791L13690.5743,-3516.9794L13690.6481,-3516.9846L13690.6811,-3516.987L13690.6959,-3516.988L13690.7157,-3516.9894L13690.7891,-3516.9957L13690.8087,-3516.9969L13690.8548,-3517.0003L13690.9061,-3517.0003L13690.9272,-3517.0016L13690.9459,-3517.0028L13691.0427,-3517.0095L13691.0586,-3517.0101L13691.0736,-3517.0106L13691.1621,-3517.0162M13690.6606,-3517.8223L13690.5798,-3517.8188L13690.4539,-3517.8134L13690.1184,-3517.7948L13690.0635,-3517.7893"/>
<path content="1,名鉄バス（株）,都市間高速バス関・美濃線_02_on,11.0,11.0,11.0," xlink:title="1" d="M13690.0635,-3516.8425L13690.0886,-3516.8443L13690.1092,-3516.8464L13690.2221,-3516.855L13690.22,-3516.9579L13690.2365,-3516.9592L13690.3104,-3516.9634L13690.3393,-3516.9664L13690.3533,-3516.9669L13690.4268,-3516.9707L13690.4509,-3516.9717L13690.4746,-3516.9733L13690.5541,-3516.9782L13690.5655,-3516.9791L13690.5743,-3516.9794L13690.6481,-3516.9846L13690.6811,-3516.987L13690.6959,-3516.988L13690.7157,-3516.9894L13690.7891,-3516.9957L13690.8087,-3516.9969L13690.8548,-3517.0003L13690.9061,-3517.0003L13690.9272,-3517.0016L13690.9459,-3517.0028L13691.0427,-3517.0095L13691.0586,-3517.0101L13691.0736,-3517.0106L13691.1621,-3517.0162M13690.6606,-3517.8223L13690.5798,-3517.8188L13690.4539,-3517.8134L13690.1184,-3517.7948L13690.0635,-3517.7893"/>
<path content="1,大分バス（株）,大分⇔名古屋,1.0,1.0,1.0," xlink:title="1" d="M13691.1621,-3517.397L13691.1518,-3517.3966L13691.0508,-3517.39L13691.026,-3517.3884L13691.0198,-3517.388L13691.005,-3517.3871L13690.8907,-3517.3793L13690.8898,-3517.3793L13690.8701,-3517.3779L13690.8533,-3517.3768L13690.8015,-3517.3731L13690.7737,-3517.3713L13690.751,-3517.3697L13690.6827,-3517.365L13690.635,-3517.3634L13690.6042,-3517.3605L13690.598,-3517.3602L13690.5314,-3517.355L13690.4309,-3517.3473L13690.4129,-3517.346L13690.3917,-3517.3444L13690.2964,-3517.3374L13690.2039,-3517.3307L13690.1695,-3517.3312L13690.0734,-3517.3204L13690.0635,-3517.3198"/>
<path content="1,大分交通（株）,大分⇔名古屋,1.0,1.0,1.0," xlink:title="1" d="M13691.1621,-3517.397L13691.1518,-3517.3966L13691.0508,-3517.39L13691.026,-3517.3884L13691.0198,-3517.388L13691.0049,-3517.3871L13690.8907,-3517.3793L13690.8898,-3517.3793L13690.8701,-3517.3779L13690.8533,-3517.3768L13690.8015,-3517.3731L13690.7737,-3517.3713L13690.7509,-3517.3697L13690.6826,-3517.365L13690.635,-3517.3634L13690.6042,-3517.3605L13690.598,-3517.3602L13690.5314,-3517.355L13690.4309,-3517.3473L13690.4128,-3517.346L13690.3917,-3517.3444L13690.2964,-3517.3375L13690.2039,-3517.3307L13690.1694,-3517.3312L13690.0734,-3517.3204L13690.0635,-3517.3198"/>
<path content="1,宮城交通（株）,仙台～名古屋線,1.0,1.0,1.0," xlink:title="1" d="M13690.0635,-3516.8426L13690.0886,-3516.8443L13690.1092,-3516.8464L13690.1182,-3516.8467L13690.2094,-3516.853L13690.2221,-3516.855L13690.2308,-3516.8544L13690.2384,-3516.8548L13690.3135,-3516.8603L13690.3486,-3516.8629L13690.3517,-3516.8631L13690.3618,-3516.8637L13690.4208,-3516.8675L13690.4396,-3516.8684L13690.4598,-3516.8706L13690.475,-3516.8717L13690.5185,-3516.8764L13690.5556,-3516.8775L13690.5745,-3516.8781L13690.5899,-3516.8796L13690.6565,-3516.8842L13690.6907,-3516.8871L13690.7323,-3516.8906L13690.7922,-3516.8948L13690.8174,-3516.8963L13690.8368,-3516.8975L13690.8703,-3516.8962L13690.8967,-3516.9017L13690.9129,-3516.9032L13690.9071,-3516.9895L13690.9061,-3517.0003L13690.9272,-3517.0016L13690.9459,-3517.0028L13691.0427,-3517.0095L13691.0586,-3517.0101"/>
<path content="1,宮城交通（株）,仙台～名古屋線,1.0,1.0,1.0," xlink:title="1" d="M13691.0586,-3517.0101L13691.0736,-3517.0106L13691.1621,-3517.0163"/>
<path content="1,宮城交通（株）,仙台～名古屋線,1.0,1.0,1.0," xlink:title="1" d="M13691.0221,-3517.0486L13691.0543,-3517.0507L13691.0586,-3517.0101"/>
<path content="1,富士急山梨バス（株）,リゾートエクスプレス,0.0,0.3,0.3," xlink:title="1" d="M13690.0635,-3516.8426L13690.0886,-3516.8443L13690.1092,-3516.8464L13690.1182,-3516.8467L13690.2094,-3516.853L13690.2221,-3516.855L13690.2308,-3516.8544L13690.2384,-3516.8548L13690.3135,-3516.8603L13690.3486,-3516.8629L13690.3517,-3516.8631L13690.3618,-3516.8637L13690.4208,-3516.8675L13690.4396,-3516.8684L13690.4598,-3516.8706L13690.475,-3516.8717L13690.5185,-3516.8764L13690.5556,-3516.8775L13690.5745,-3516.8781L13690.5899,-3516.8796L13690.6565,-3516.8842L13690.6907,-3516.8871L13690.7323,-3516.8906L13690.7922,-3516.8948L13690.8174,-3516.8963L13690.8368,-3516.8975L13690.8703,-3516.8962L13690.8967,-3516.9017L13690.9129,-3516.9032L13690.9306,-3516.9041L13691.0648,-3516.9136L13691.1621,-3516.9199"/>
<path content="1,富士急行（株）,リゾートエクスプレス,0.8,0.8,0.8," xlink:title="1" d="M13690.0635,-3516.8426L13690.0886,-3516.8443L13690.1092,-3516.8464L13690.1182,-3516.8467L13690.2094,-3516.853L13690.2221,-3516.855L13690.2308,-3516.8544L13690.2384,-3516.8548L13690.3135,-3516.8603L13690.3486,-3516.8629L13690.3517,-3516.8631L13690.3618,-3516.8637L13690.4208,-3516.8675L13690.4396,-3516.8684L13690.4598,-3516.8706L13690.475,-3516.8717L13690.5185,-3516.8764L13690.5556,-3516.8775L13690.5745,-3516.8781L13690.5899,-3516.8796L13690.6565,-3516.8842L13690.6907,-3516.8871L13690.7323,-3516.8906L13690.7922,-3516.8948L13690.8174,-3516.8963L13690.8368,-3516.8975L13690.8703,-3516.8962L13690.8967,-3516.9017L13690.9129,-3516.9032L13690.9306,-3516.9041L13691.0648,-3516.9136L13691.1621,-3516.9199"/>
<path content="1,山梨交通（株）,竜王・甲府～名古屋線,3.0,3.0,3.0," xlink:title="1" d="M13690.0635,-3517.7802L13690.2983,-3517.7955L13690.6352,-3517.8164L13690.7422,-3517.8177L13690.819,-3517.8187L13690.8778,-3517.8223"/>
<path content="1,岐阜乗合自動車（株）,高速名古屋線,11.0,11.0,11.0," xlink:title="1" d="M13690.0635,-3516.9459L13690.0757,-3516.9467L13690.0976,-3516.9481L13690.1135,-3516.9493L13690.1486,-3516.954L13690.1997,-3516.9558L13690.22,-3516.9579L13690.2365,-3516.9592L13690.3104,-3516.9634L13690.3393,-3516.9664L13690.3533,-3516.9669L13690.4268,-3516.9707L13690.4509,-3516.9717L13690.4746,-3516.9733L13690.5541,-3516.9782L13690.5655,-3516.9791L13690.5743,-3516.9794L13690.6481,-3516.9846L13690.6811,-3516.987L13690.6959,-3516.988L13690.7157,-3516.9894L13690.7891,-3516.9957L13690.8087,-3516.9969L13690.8189,-3516.9969L13690.8335,-3516.9969L13690.8548,-3517.0003L13690.9061,-3517.0003L13690.9272,-3517.0016L13690.9459,-3517.0028L13691.0427,-3517.0095L13691.0586,-3517.0101L13691.0736,-3517.0106L13691.1621,-3517.0162M13690.6606,-3517.8223L13690.5798,-3517.8188L13690.4539,-3517.8134L13690.1184,-3517.7948L13690.0635,-3517.7893"/>
<path content="1,徳島バス（株）,徳島⇔名古屋,2.0,2.0,2.0," xlink:title="1" d="M13690.0635,-3516.9459L13690.0757,-3516.9467L13690.0976,-3516.9481L13690.1135,-3516.9493L13690.1997,-3516.9558L13690.22,-3516.9579L13690.2365,-3516.9592L13690.3104,-3516.9634L13690.3393,-3516.9664L13690.3533,-3516.9669L13690.4268,-3516.9707L13690.4509,-3516.9717L13690.4746,-3516.9733L13690.5541,-3516.9782L13690.5655,-3516.9791L13690.5743,-3516.9794L13690.6481,-3516.9846L13690.6811,-3516.987L13690.6959,-3516.988L13690.7157,-3516.9894L13690.7891,-3516.9957L13690.8087,-3516.9969L13690.8189,-3516.9969L13690.8335,-3516.9969L13690.8548,-3517.0003L13690.9061,-3517.0003L13690.9272,-3517.0016L13690.9459,-3517.0028L13691.0427,-3517.0095L13691.0586,-3517.0101L13691.0736,-3517.0106L13691.1621,-3517.0162M13690.6606,-3517.8223L13690.5798,-3517.8188L13690.4539,-3517.8134L13690.1184,-3517.7948L13690.0635,-3517.7893"/>
<path content="1,東濃鉄道（株）,可児市役所前～名古屋線,17.0,17.0,17.0," xlink:title="1" d="M13690.0635,-3516.8425L13690.0886,-3516.8443L13690.1092,-3516.8464L13690.2221,-3516.855L13690.22,-3516.9579L13690.2365,-3516.9592L13690.3104,-3516.9634L13690.3393,-3516.9664L13690.3533,-3516.9669L13690.4268,-3516.9707L13690.4509,-3516.9717L13690.4746,-3516.9733L13690.5541,-3516.9782L13690.5655,-3516.9791L13690.5743,-3516.9794L13690.6481,-3516.9846L13690.6811,-3516.987L13690.6959,-3516.988L13690.7157,-3516.9894L13690.7891,-3516.9957L13690.8087,-3516.9969L13690.8189,-3516.9969L13690.8335,-3516.9969L13690.8548,-3517.0003L13690.9061,-3517.0003L13690.9272,-3517.0016L13690.9459,-3517.0028L13691.0427,-3517.0095L13691.0586,-3517.0101L13691.0736,-3517.0106L13691.1621,-3517.0162"/>
<path content="1,東濃鉄道（株）,名古屋・西可児線,9.5,9.5,9.5," xlink:title="1" d="M13690.0635,-3516.8425L13690.0886,-3516.8443L13690.1092,-3516.8464L13690.2221,-3516.855L13690.22,-3516.9579L13690.2365,-3516.9592L13690.3104,-3516.9634L13690.3393,-3516.9664L13690.3533,-3516.9669L13690.4268,-3516.9707L13690.4509,-3516.9717L13690.4746,-3516.9733L13690.5541,-3516.9782L13690.5655,-3516.9791L13690.5743,-3516.9794L13690.6481,-3516.9846L13690.6811,-3516.987L13690.6959,-3516.988L13690.7157,-3516.9894L13690.7891,-3516.9957L13690.8087,-3516.9969L13690.8189,-3516.9969L13690.8335,-3516.9969L13690.8548,-3517.0003L13690.9061,-3517.0003L13690.9272,-3517.0016L13690.9459,-3517.0028L13691.0427,-3517.0095L13691.0586,-3517.0101L13691.0736,-3517.0106L13691.1621,-3517.0162"/>
<path content="1,東濃鉄道（株）,桜ヶ丘ハイツ～名古屋線,23.0,14.5,14.5," xlink:title="1" d="M13690.0635,-3516.8425L13690.0886,-3516.8443L13690.1092,-3516.8464L13690.2221,-3516.855L13690.22,-3516.9579L13690.2365,-3516.9592L13690.3104,-3516.9634L13690.3393,-3516.9664L13690.3533,-3516.9669L13690.4268,-3516.9707L13690.4509,-3516.9717L13690.4746,-3516.9733L13690.5541,-3516.9782L13690.5655,-3516.9791L13690.5743,-3516.9794L13690.6481,-3516.9846L13690.6811,-3516.987L13690.6959,-3516.988L13690.7157,-3516.9894L13690.7891,-3516.9957L13690.8087,-3516.9969L13690.8189,-3516.9969L13690.8335,-3516.9969L13690.8548,-3517.0003L13690.9061,-3517.0003L13690.9272,-3517.0016L13690.9459,-3517.0028L13691.0427,-3517.0095L13691.0586,-3517.0101L13691.0736,-3517.0106L13691.1621,-3517.0162"/>
<path content="1,西日本鉄道（株）,福岡・北九州　～　名古屋,1.0,1.0,1.0," xlink:title="1" d="M13690.0635,-3516.852L13690.6833,-3516.8941L13690.8703,-3516.8962"/>
<path content="3,名古屋市,なごや観光ルートバス,13.0,18.0,18.0," xlink:title="3" d="M13690.0635,-3516.8425L13690.0886,-3516.8443L13690.1092,-3516.8464L13690.2221,-3516.855L13690.3486,-3516.8629L13690.3518,-3516.8631L13690.3618,-3516.8637L13690.4208,-3516.8675L13690.4396,-3516.8684L13690.4598,-3516.8706L13690.475,-3516.8717L13690.5185,-3516.8764L13690.5556,-3516.8775L13690.5745,-3516.8781L13690.5899,-3516.8796L13690.6565,-3516.8842L13690.6907,-3516.8871L13690.8703,-3516.8962L13690.9129,-3516.9032L13690.9071,-3516.9895L13690.9061,-3517.0003L13690.8883,-3517.1435L13690.8801,-3517.2734L13690.8767,-3517.3049L13690.8702,-3517.3779L13690.8604,-3517.4685L13690.8601,-3517.4717L13690.8506,-3517.5686L13690.8465,-3517.6057L13690.8437,-3517.6333L13690.8396,-3517.6688L13690.8362,-3517.6998L13690.8355,-3517.7212L13690.8287,-3517.777L13690.8269,-3517.7977L13690.825,-3517.8193L13690.8249,-3517.8223"/>
<path content="3,名古屋市,中巡回,8.0,8.0,8.0," xlink:title="3" d="M13690.8548,-3517.0003L13690.8986,-3517.0002L13690.9061,-3517.0003L13690.9071,-3516.9895L13690.9129,-3516.9032L13690.8703,-3516.8962L13690.6907,-3516.8871L13690.6565,-3516.8842L13690.5899,-3516.8796L13690.5745,-3516.8781L13690.5556,-3516.8775L13690.5185,-3516.8764L13690.475,-3516.8717L13690.4598,-3516.8706L13690.4396,-3516.8684L13690.4208,-3516.8675L13690.3618,-3516.8637L13690.3518,-3516.8631L13690.3486,-3516.8629L13690.2221,-3516.855L13690.2371,-3516.7895L13690.2412,-3516.7404L13690.2432,-3516.7281L13690.2437,-3516.7236"/>
<path content="3,名古屋市,名駅14号,27.0,15.0,15.0," xlink:title="3" d="M13690.1125,-3517.8223L13690.1135,-3517.819L13690.1184,-3517.7948L13690.0635,-3517.7893"/>
<path content="3,名古屋市,名駅16号,46.5,37.0,34.0," xlink:title="3" d="M13690.0635,-3516.8425L13690.0886,-3516.8443L13690.1092,-3516.8464L13690.2221,-3516.855L13690.3486,-3516.8629L13690.3518,-3516.8631L13690.3618,-3516.8637L13690.4208,-3516.8675L13690.4396,-3516.8684L13690.4598,-3516.8706L13690.475,-3516.8717L13690.5185,-3516.8764L13690.5556,-3516.8775L13690.5745,-3516.8781L13690.5899,-3516.8796L13690.6565,-3516.8842L13690.6907,-3516.8871L13690.8703,-3516.8962L13690.9129,-3516.9032L13690.9306,-3516.9041L13691.0648,-3516.9136L13691.1621,-3516.9199"/>
<path content="3,名古屋市,基幹2号_01_on,53.5,41.0,41.0," xlink:title="3" d="M13690.0635,-3517.3217L13690.1695,-3517.3312L13690.4129,-3517.346L13690.431,-3517.3473L13690.5315,-3517.355L13690.5981,-3517.3602L13690.6043,-3517.3605L13690.6351,-3517.3634L13690.6114,-3517.5875L13690.5806,-3517.8106L13690.5798,-3517.8188L13690.5795,-3517.8223"/>
<path content="3,名古屋市,基幹2号_02_on,53.5,41.0,41.0," xlink:title="3" d="M13690.6114,-3517.5875L13690.5806,-3517.8106L13690.5798,-3517.8188L13690.5795,-3517.8223"/>
<path content="3,名古屋市,幹名駅1号_01_on,56.5,48.5,48.5," xlink:title="3" d="M13690.0635,-3517.7893L13690.1184,-3517.7948L13690.4539,-3517.8134L13690.5798,-3517.8188L13690.6606,-3517.8223"/>
<path content="3,名古屋市,幹名駅1号_02_on,56.5,48.5,48.5," xlink:title="3" d="M13690.0635,-3517.7893L13690.1184,-3517.7948L13690.4539,-3517.8134L13690.5798,-3517.8188L13690.6606,-3517.8223"/>
<path content="3,名古屋市,幹栄2号,46.5,40.5,33.5," xlink:title="3" d="M13690.0635,-3516.8425L13690.0886,-3516.8443L13690.1092,-3516.8464L13690.2221,-3516.855L13690.3486,-3516.8629L13690.3518,-3516.8631L13690.3618,-3516.8637L13690.4208,-3516.8675L13690.4396,-3516.8684L13690.4598,-3516.8706L13690.475,-3516.8717L13690.5185,-3516.8764"/>
<path content="3,名古屋市,栄11号_01_on,65.5,49.5,49.5," xlink:title="3" d="M13690.5798,-3517.8188L13690.4539,-3517.8134"/>
<path content="3,名古屋市,栄11号_01_on,65.5,49.5,49.5," xlink:title="3" d="M13690.5798,-3517.8188L13690.5806,-3517.8106L13690.6114,-3517.5875L13690.6351,-3517.3634"/>
<path content="3,名古屋市,栄11号_01_on,65.5,49.5,49.5," xlink:title="3" d="M13690.5795,-3517.8223L13690.5798,-3517.8188"/>
<path content="3,名古屋市,栄11号_02_on,65.5,49.5,49.5," xlink:title="3" d="M13690.5798,-3517.8188L13690.4539,-3517.8134"/>
<path content="3,名古屋市,栄11号_02_on,65.5,49.5,49.5," xlink:title="3" d="M13690.5798,-3517.8188L13690.5806,-3517.8106L13690.6114,-3517.5875L13690.6351,-3517.3634"/>
<path content="3,名古屋市,栄11号_02_on,65.5,49.5,49.5," xlink:title="3" d="M13690.5795,-3517.8223L13690.5798,-3517.8188"/>
<path content="3,名古屋市,栄13号,41.5,30.5,30.5," xlink:title="3" d="M13690.1125,-3517.8223L13690.1135,-3517.819L13690.1184,-3517.7948L13690.1218,-3517.7849L13690.1364,-3517.7223L13690.1419,-3517.6756L13690.1446,-3517.6525L13690.1481,-3517.617L13690.1494,-3517.613L13690.1515,-3517.5905L13690.1556,-3517.5629L13690.1591,-3517.5246L13690.1693,-3517.4266L13690.1695,-3517.3312L13690.1906,-3517.2271L13690.1947,-3517.1922L13690.2009,-3517.1331L13690.1952,-3517.0906L13690.2119,-3517.0384L13690.2146,-3517.008L13690.2164,-3516.9894L13690.22,-3516.9579L13690.2221,-3516.855L13690.3486,-3516.8629L13690.3518,-3516.8631L13690.3618,-3516.8637L13690.4208,-3516.8675L13690.4396,-3516.8684L13690.4598,-3516.8706L13690.475,-3516.8717L13690.5185,-3516.8764"/>
<path content="3,名古屋市,栄14号,27.0,21.0,21.0," xlink:title="3" d="M13690.8548,-3517.0003L13690.8986,-3517.0002L13690.9061,-3517.0003L13690.9071,-3516.9895L13690.9129,-3516.9032L13690.9306,-3516.9041L13691.0648,-3516.9136L13691.1621,-3516.9199"/>
<path content="3,名古屋市,栄15号,24.5,21.5,21.5," xlink:title="3" d="M13690.8548,-3517.0003L13690.8986,-3517.0002L13690.9061,-3517.0003L13690.9071,-3516.9895L13690.9129,-3516.9032L13690.9306,-3516.9041L13691.0648,-3516.9136L13691.1621,-3516.9199"/>
<path content="3,名古屋市,栄16号,24.0,21.0,21.0," xlink:title="3" d="M13690.8548,-3517.0003L13690.8986,-3517.0002L13690.9061,-3517.0003L13690.9071,-3516.9895L13690.9129,-3516.9032L13690.9306,-3516.9041L13691.0648,-3516.9136L13691.1621,-3516.9199"/>
<path content="3,名古屋市,栄17号,33.0,26.0,26.0," xlink:title="3" d="M13690.8363,-3516.7236L13690.8313,-3516.7734L13690.8306,-3516.7795L13690.8174,-3516.8963L13690.8153,-3516.9177L13690.8134,-3516.9337L13690.8091,-3516.984L13690.8086,-3516.9894L13690.8087,-3516.9969L13690.8548,-3517.0003L13690.8986,-3517.0002L13690.9061,-3517.0003L13690.9071,-3516.9895L13690.9129,-3516.9032L13690.9142,-3516.8836L13690.9224,-3516.8024L13690.9238,-3516.7806L13690.9242,-3516.7774L13690.9293,-3516.7258L13690.9295,-3516.7236"/>
<path content="3,名古屋市,栄18号,39.5,30.0,30.0," xlink:title="3" d="M13690.8548,-3517.0003L13690.8087,-3516.9969L13690.7891,-3516.9957L13690.7157,-3516.9894L13690.6959,-3516.988L13690.6811,-3516.987L13690.6821,-3516.9748L13690.6834,-3516.9587L13690.6878,-3516.9141L13690.6907,-3516.8871L13690.6931,-3516.8577L13690.7026,-3516.8099L13690.7011,-3516.7723L13690.7014,-3516.7709L13690.7066,-3516.7236"/>
<path content="3,名古屋市,栄20号_01_on,28.5,21.0,21.0," xlink:title="3" d="M13690.8548,-3517.0003L13690.8087,-3516.9969L13690.8086,-3516.9894L13690.8091,-3516.984L13690.8134,-3516.9337L13690.8153,-3516.9177L13690.8174,-3516.8963L13690.8306,-3516.7795L13690.8313,-3516.7734L13690.8363,-3516.7236"/>
<path content="3,名古屋市,栄20号_02_on,28.5,21.0,21.0," xlink:title="3" d="M13690.8548,-3517.0003L13690.8087,-3516.9969L13690.8086,-3516.9894L13690.8091,-3516.984L13690.8134,-3516.9337L13690.8153,-3516.9177L13690.8174,-3516.8963L13690.8306,-3516.7795L13690.8313,-3516.7734L13690.8363,-3516.7236"/>
<path content="3,名古屋市,栄21号,38.0,34.0,34.0," xlink:title="3" d="M13690.8087,-3516.9969L13690.7891,-3516.9957L13690.7157,-3516.9894L13690.6959,-3516.988L13690.6811,-3516.987L13690.6821,-3516.9748L13690.6834,-3516.9587L13690.6878,-3516.9141L13690.6907,-3516.8871L13690.6931,-3516.8577L13690.7026,-3516.8099L13690.7011,-3516.7723L13690.7014,-3516.7709L13690.7066,-3516.7236"/>
<path content="3,名古屋市,栄21号,38.0,34.0,34.0," xlink:title="3" d="M13690.8087,-3516.9969L13690.8086,-3516.9894L13690.8091,-3516.984L13690.8134,-3516.9337L13690.8153,-3516.9177L13690.8174,-3516.8963L13690.8306,-3516.7795L13690.8313,-3516.7734L13690.8363,-3516.7236"/>
<path content="3,名古屋市,栄21号,38.0,34.0,34.0," xlink:title="3" d="M13690.8548,-3517.0003L13690.8087,-3516.9969"/>
<path content="3,名古屋市,栄22号,27.0,24.0,24.0," xlink:title="3" d="M13690.8548,-3517.0003L13690.8986,-3517.0002L13690.9061,-3517.0003L13690.9071,-3516.9895L13690.9129,-3516.9032L13690.8703,-3516.8962L13690.6907,-3516.8871L13690.6565,-3516.8842L13690.5899,-3516.8796L13690.5745,-3516.8781L13690.5556,-3516.8775L13690.5185,-3516.8764L13690.475,-3516.8717L13690.4598,-3516.8706L13690.4396,-3516.8684L13690.4208,-3516.8675L13690.3618,-3516.8637L13690.3518,-3516.8631L13690.3486,-3516.8629L13690.2221,-3516.855L13690.1092,-3516.8464L13690.0886,-3516.8443L13690.0635,-3516.8425"/>
<path content="3,名古屋市,栄23号,33.0,29.0,28.5," xlink:title="3" d="M13690.8087,-3516.9969L13690.7891,-3516.9957L13690.7157,-3516.9894L13690.6959,-3516.988L13690.6811,-3516.987L13690.6821,-3516.9748L13690.6834,-3516.9587L13690.6878,-3516.9141L13690.6907,-3516.8871L13690.6931,-3516.8577L13690.7026,-3516.8099L13690.7011,-3516.7723L13690.7014,-3516.7709L13690.7066,-3516.7236"/>
<path content="3,名古屋市,栄23号,33.0,29.0,28.5," xlink:title="3" d="M13690.8087,-3516.9969L13690.8086,-3516.9894L13690.8091,-3516.984L13690.8134,-3516.9337L13690.8153,-3516.9177L13690.8174,-3516.8963L13690.8177,-3516.8935L13690.8306,-3516.7795L13690.8313,-3516.7734L13690.8363,-3516.7236"/>
<path content="3,名古屋市,栄23号,33.0,29.0,28.5," xlink:title="3" d="M13690.8548,-3517.0003L13690.8087,-3516.9969"/>
<path content="3,名古屋市,栄24号,67.0,50.0,47.0," xlink:title="3" d="M13690.8548,-3517.0003L13690.8986,-3517.0002L13690.9061,-3517.0003L13690.9071,-3516.9895L13690.9129,-3516.9032L13690.8703,-3516.8962L13690.6907,-3516.8871L13690.6565,-3516.8842L13690.5899,-3516.8796L13690.5745,-3516.8781L13690.5556,-3516.8775L13690.5185,-3516.8764L13690.475,-3516.8717L13690.4598,-3516.8706L13690.4396,-3516.8684L13690.4208,-3516.8675L13690.3618,-3516.8637L13690.3518,-3516.8631L13690.3486,-3516.8629L13690.2221,-3516.855L13690.1092,-3516.8464L13690.0886,-3516.8443L13690.0635,-3516.8425"/>
<path content="3,名古屋市,栄25号,27.0,23.0,23.0," xlink:title="3" d="M13690.8548,-3517.0003L13690.8087,-3516.9969L13690.8012,-3517.0756L13690.7923,-3517.1618L13690.7916,-3517.1703L13690.782,-3517.2649L13690.7738,-3517.3712L13690.7511,-3517.3697L13690.6828,-3517.365L13690.6351,-3517.3634L13690.6114,-3517.5875L13690.5806,-3517.8106L13690.5798,-3517.8188"/>
<path content="3,名古屋市,栄25号,27.0,23.0,23.0," xlink:title="3" d="M13690.5798,-3517.8188L13690.4539,-3517.8134"/>
<path content="3,名古屋市,栄25号,27.0,23.0,23.0," xlink:title="3" d="M13690.5798,-3517.8188L13690.5795,-3517.8223"/>
<path content="3,名古屋市,栄26号,8.0,0.0,0.0," xlink:title="3" d="M13690.8548,-3517.0003L13690.8986,-3517.0002L13690.9061,-3517.0003L13690.9272,-3517.0016L13690.9459,-3517.0028L13691.0427,-3517.0095L13691.0586,-3517.0101L13691.0736,-3517.0106L13691.1621,-3517.0162"/>
<path content="3,名古屋市,栄27号（右回り）,6.0,6.0,5.0," xlink:title="3" d="M13690.8548,-3517.0003L13690.8087,-3516.9969L13690.8012,-3517.0756L13690.7923,-3517.1618L13690.7916,-3517.1703L13690.782,-3517.2649L13690.7738,-3517.3712L13690.7511,-3517.3697L13690.6828,-3517.365L13690.6351,-3517.3634L13690.6114,-3517.5875L13690.5806,-3517.8106L13690.5798,-3517.8188"/>
<path content="3,名古屋市,栄27号（右回り）,6.0,6.0,5.0," xlink:title="3" d="M13690.5798,-3517.8188L13690.4539,-3517.8134L13690.1184,-3517.7948L13690.1135,-3517.819L13690.1125,-3517.8223"/>
<path content="3,名古屋市,栄27号（右回り）,6.0,6.0,5.0," xlink:title="3" d="M13690.5798,-3517.8188L13690.5795,-3517.8223"/>
<path content="3,名古屋市,栄27号（左回り）,6.0,6.0,5.0," xlink:title="3" d="M13690.8548,-3517.0003L13690.8087,-3516.9969L13690.8012,-3517.0756L13690.7923,-3517.1618L13690.7916,-3517.1703L13690.782,-3517.2649L13690.7738,-3517.3712L13690.7511,-3517.3697L13690.6828,-3517.365L13690.6351,-3517.3634L13690.6114,-3517.5875L13690.5806,-3517.8106L13690.5798,-3517.8188"/>
<path content="3,名古屋市,栄27号（左回り）,6.0,6.0,5.0," xlink:title="3" d="M13690.5798,-3517.8188L13690.4539,-3517.8134L13690.1184,-3517.7948L13690.1135,-3517.819L13690.1125,-3517.8223"/>
<path content="3,名古屋市,栄27号（左回り）,6.0,6.0,5.0," xlink:title="3" d="M13690.5798,-3517.8188L13690.5795,-3517.8223"/>
<path content="3,名古屋市,栄758,52.0,52.0,52.0," xlink:title="3" d="M13690.0635,-3516.8425L13690.0886,-3516.8443L13690.1092,-3516.8464L13690.2221,-3516.855L13690.3486,-3516.8629L13690.3518,-3516.8631L13690.3618,-3516.8637L13690.4208,-3516.8675L13690.4396,-3516.8684L13690.4598,-3516.8706L13690.475,-3516.8717L13690.5185,-3516.8764L13690.5556,-3516.8775L13690.5745,-3516.8781L13690.5899,-3516.8796L13690.6565,-3516.8842L13690.6907,-3516.8871L13690.6931,-3516.8577L13690.7026,-3516.8099L13690.7011,-3516.7723L13690.7014,-3516.7709L13690.7066,-3516.7236"/>
<path content="3,名古屋市,深夜1号,28.0,0.0,0.0," xlink:title="3" d="M13690.8548,-3517.0003L13690.8986,-3517.0002L13690.9061,-3517.0003L13690.9071,-3516.9895L13690.9129,-3516.9032L13690.9306,-3516.9041L13691.0648,-3516.9136L13691.1621,-3516.9199"/>
<path content="3,名古屋市,深夜2号,13.5,0.0,0.0," xlink:title="3" d="M13690.0635,-3516.8425L13690.0886,-3516.8443L13690.1092,-3516.8464L13690.2221,-3516.855L13690.3486,-3516.8629L13690.3518,-3516.8631L13690.3618,-3516.8637L13690.4208,-3516.8675L13690.4396,-3516.8684L13690.4598,-3516.8706L13690.475,-3516.8717L13690.5185,-3516.8764L13690.5556,-3516.8775L13690.5745,-3516.8781L13690.5899,-3516.8796L13690.6565,-3516.8842L13690.6907,-3516.8871L13690.8177,-3516.8935L13690.8703,-3516.8962L13690.9129,-3516.9032L13690.9071,-3516.9895L13690.9061,-3517.0003L13690.8986,-3517.0002L13690.8548,-3517.0003"/>
<path content="3,名古屋市,西巡回（右回り）,8.0,8.0,8.0," xlink:title="3" d="M13690.8548,-3517.0003L13690.8087,-3516.9969L13690.8012,-3517.0756L13690.7923,-3517.1618L13690.7916,-3517.1703L13690.782,-3517.2649L13690.7738,-3517.3712L13690.7511,-3517.3697L13690.6828,-3517.365L13690.6351,-3517.3634L13690.6114,-3517.5875L13690.5806,-3517.8106L13690.5798,-3517.8188"/>
<path content="3,名古屋市,西巡回（右回り）,8.0,8.0,8.0," xlink:title="3" d="M13690.5798,-3517.8188L13690.5795,-3517.8223"/>
<path content="3,名古屋市,西巡回（右回り）,8.0,8.0,8.0," xlink:title="3" d="M13690.1125,-3517.8223L13690.1135,-3517.819L13690.1184,-3517.7948L13690.4539,-3517.8134L13690.5798,-3517.8188"/>
<path content="3,名古屋市,西巡回（左回り）,8.0,8.0,8.0," xlink:title="3" d="M13690.8548,-3517.0003L13690.8087,-3516.9969L13690.8012,-3517.0756L13690.7923,-3517.1618L13690.7916,-3517.1703L13690.782,-3517.2649L13690.7738,-3517.3712L13690.7511,-3517.3697L13690.6828,-3517.365L13690.6351,-3517.3634L13690.6114,-3517.5875L13690.5806,-3517.8106L13690.5798,-3517.8188"/>
<path content="3,名古屋市,西巡回（左回り）,8.0,8.0,8.0," xlink:title="3" d="M13690.5798,-3517.8188L13690.5795,-3517.8223"/>
<path content="3,名古屋市,西巡回（左回り）,8.0,8.0,8.0," xlink:title="3" d="M13690.1125,-3517.8223L13690.1135,-3517.819L13690.1184,-3517.7948L13690.4539,-3517.8134L13690.5798,-3517.8188"/>
<path content="3,名古屋市,高速1号,20.0,14.0,14.0," xlink:title="3" d="M13690.7066,-3516.7236L13690.7014,-3516.7709L13690.7011,-3516.7723L13690.7026,-3516.8099L13690.6931,-3516.8577L13690.6907,-3516.8871L13690.8177,-3516.8935L13690.8306,-3516.7795L13690.8313,-3516.7734L13690.8363,-3516.7236"/>
<path content="3,豊山町,南ルート,15.0,8.0,8.0," xlink:title="3" d="M13690.5795,-3517.8223L13690.5798,-3517.8188L13690.6606,-3517.8223M13690.8249,-3517.8223L13690.825,-3517.8193L13690.8269,-3517.7977L13690.8287,-3517.777L13690.8355,-3517.7212L13690.8362,-3517.6998L13690.8396,-3517.6688L13690.8437,-3517.6333L13690.8465,-3517.6057L13690.8506,-3517.5686L13690.8601,-3517.4717L13690.8604,-3517.4685L13690.8702,-3517.3779L13690.8767,-3517.3049L13690.8801,-3517.2734L13690.8883,-3517.1435L13690.9061,-3517.0003L13690.8986,-3517.0002L13690.8548,-3517.0003"/>
</g>
</svg>
