<?xml version="1.0" encoding="UTF-8"?>
<svg  xmlns="http://www.w3.org/2000/svg" xmlns:xlink="http://www.w3.org/1999/xlink" xmlns:go="http://purl.org/svgmap/profile" property="N07_001,N07_002,N07_003,N07_004,N07_005,N07_006,N07_007" viewBox="14081.72607421875 -3831.48193359375 0.54931640625 0.54931640625" go:dataArea="14081.72607421875 -3831.48193359375 0.54931640625 0.54931640625" >
<metadata>
 <rdf:RDF xmlns:rdf="http://www.w3.org/1999/02/22-rdf-syntax-ns#" xmlns:crs="http://opengis.org/xmldtds/transformations.dtd" xmlns:svg="http://www.w3.org/svg" >
  <rdf:Description>
   <crs:CoordinateReferenceSystem rdf:resource="http://purl.org/crs/84" svg:transform="matrix(100.0,0.0,0.0,-100.0,0.0,0.0)" />
  </rdf:Description>
 </rdf:RDF>
</metadata>
<globalCoordinateSystem srsName="http://purl.org/crs/84" transform="matrix(100.0,0.0,0.0,-100.0,0.0,0.0)" />
<defs>
 <g id="p0" >
  <circle cx="0.0" cy="0.0" r="3" stroke="green" stroke-width="0.75" vector-effect="non-scaling-stroke" />
 </g>
</defs>
<g fill="none" fill-rule="evenodd" stroke="#FF00FF" stroke-width="0.75" opacity="0.5" vector-effect="non-scaling-stroke" stroke-linejoin="bevel" >
<path content="1,JRバス東北（株）,うみねこ号,1.0,1.0,1.0," xlink:title="1" d="M14081.7261,-3831.4639L14081.7926,-3831.4662L14081.7929,-3831.4662L14081.7929,-3831.4662L14081.7929,-3831.4662L14081.793,-3831.4662L14081.793,-3831.4662L14081.7931,-3831.4662L14081.7931,-3831.4662L14081.7933,-3831.4662L14081.7954,-3831.4663L14081.7955,-3831.4663L14081.7955,-3831.4663L14081.7956,-3831.4663L14081.843,-3831.468L14081.8975,-3831.4721L14081.9546,-3831.4782L14081.984,-3831.4819L14081.984,-3831.4819L14081.984,-3831.4819L14081.984,-3831.4819L14081.984,-3831.4819L14081.984,-3831.4819"/>
<path content="1,JRバス東北（株）,けんじライナー号,1.0,1.0,1.0," xlink:title="1" d="M14081.7261,-3831.4639L14081.7926,-3831.4662L14081.7929,-3831.4662L14081.7929,-3831.4662L14081.7929,-3831.4662L14081.793,-3831.4662L14081.793,-3831.4662L14081.7931,-3831.4662L14081.7931,-3831.4662L14081.7933,-3831.4662L14081.7954,-3831.4663L14081.7955,-3831.4663L14081.7955,-3831.4663L14081.7956,-3831.4663L14081.843,-3831.468L14081.8975,-3831.4721L14081.9546,-3831.4782L14081.984,-3831.4819L14081.984,-3831.4819L14081.984,-3831.4819L14081.984,-3831.4819L14081.984,-3831.4819L14081.984,-3831.4819"/>
<path content="1,JRバス東北（株）,アーバン号,3.2,4.0,4.0," xlink:title="1" d="M14081.7261,-3831.4639L14081.7926,-3831.4662L14081.7929,-3831.4662L14081.7929,-3831.4662L14081.7929,-3831.4662L14081.793,-3831.4662L14081.793,-3831.4662L14081.7931,-3831.4662L14081.7931,-3831.4662L14081.7933,-3831.4662L14081.7954,-3831.4663L14081.7955,-3831.4663L14081.7955,-3831.4663L14081.7956,-3831.4663L14081.843,-3831.468L14081.8975,-3831.4721L14081.9546,-3831.4782L14081.984,-3831.4819L14081.984,-3831.4819L14081.984,-3831.4819L14081.984,-3831.4819L14081.984,-3831.4819L14081.984,-3831.4819"/>
<path content="1,JRバス東北（株）,キャッスル号,3.0,3.0,3.0," xlink:title="1" d="M14081.7261,-3831.4639L14081.7926,-3831.4662L14081.7929,-3831.4662L14081.7929,-3831.4662L14081.7929,-3831.4662L14081.793,-3831.4662L14081.793,-3831.4662L14081.7931,-3831.4662L14081.7931,-3831.4662L14081.7933,-3831.4662L14081.7954,-3831.4663L14081.7955,-3831.4663L14081.7955,-3831.4663L14081.7956,-3831.4663L14081.843,-3831.468L14081.8975,-3831.4721L14081.9546,-3831.4782L14081.984,-3831.4819L14081.984,-3831.4819L14081.984,-3831.4819L14081.984,-3831.4819L14081.984,-3831.4819L14081.984,-3831.4819"/>
<path content="1,JRバス東北（株）,グリーンライナー号,2.0,2.0,2.0," xlink:title="1" d="M14081.7261,-3831.4639L14081.7926,-3831.4662L14081.7929,-3831.4662L14081.7929,-3831.4662L14081.7929,-3831.4662L14081.793,-3831.4662L14081.793,-3831.4662L14081.7931,-3831.4662L14081.7931,-3831.4662L14081.7933,-3831.4662L14081.7954,-3831.4663L14081.7955,-3831.4663L14081.7955,-3831.4663L14081.7956,-3831.4663L14081.843,-3831.468L14081.8975,-3831.4721L14081.9546,-3831.4782L14081.984,-3831.4819L14081.984,-3831.4819L14081.984,-3831.4819L14081.984,-3831.4819L14081.984,-3831.4819L14081.984,-3831.4819"/>
<path content="1,JRバス東北（株）,ドリーム盛岡・らくちん号,2.2,3.0,3.0," xlink:title="1" d="M14081.7261,-3831.4638L14081.7926,-3831.4662L14081.7929,-3831.4662L14081.7929,-3831.4662L14081.7929,-3831.4662L14081.793,-3831.4662L14081.793,-3831.4662L14081.7931,-3831.4662L14081.7931,-3831.4662L14081.7933,-3831.4662L14081.7954,-3831.4663L14081.7955,-3831.4663L14081.7955,-3831.4663L14081.7956,-3831.4663L14081.843,-3831.468L14081.8975,-3831.4722L14081.9548,-3831.4783L14081.984,-3831.4819L14081.984,-3831.4819L14081.984,-3831.4819L14081.984,-3831.4819L14081.984,-3831.4819L14081.984,-3831.4819"/>
<path content="1,JRバス東北（株）,ドリーム秋田・横浜号,1.0,1.0,1.0," xlink:title="1" d="M14081.984,-3831.4819L14081.984,-3831.4819L14081.984,-3831.4819L14081.984,-3831.4819L14081.984,-3831.4819L14081.984,-3831.4819L14081.9546,-3831.4782L14081.8975,-3831.4721L14081.843,-3831.468L14081.7956,-3831.4663L14081.7955,-3831.4663L14081.7955,-3831.4663L14081.7954,-3831.4663L14081.7933,-3831.4662L14081.7931,-3831.4662L14081.7931,-3831.4662L14081.793,-3831.4662L14081.793,-3831.4662L14081.7929,-3831.4662L14081.7929,-3831.4662L14081.7929,-3831.4662L14081.7926,-3831.4662L14081.7261,-3831.4639"/>
<path content="1,JRバス東北（株）,ブルーシティ号,1.5,1.5,1.5," xlink:title="1" d="M14081.7261,-3831.4639L14081.7926,-3831.4662L14081.7929,-3831.4662L14081.7929,-3831.4662L14081.7929,-3831.4662L14081.793,-3831.4662L14081.793,-3831.4662L14081.7931,-3831.4662L14081.7931,-3831.4662L14081.7933,-3831.4662L14081.7954,-3831.4663L14081.7955,-3831.4663L14081.7955,-3831.4663L14081.7956,-3831.4663L14081.843,-3831.468L14081.8975,-3831.4721L14081.9546,-3831.4782L14081.984,-3831.4819L14081.984,-3831.4819L14081.984,-3831.4819L14081.984,-3831.4819L14081.984,-3831.4819L14081.984,-3831.4819"/>
<path content="1,JRバス東北（株）,ラ・フォーレ号,1.0,1.0,1.0," xlink:title="1" d="M14081.7261,-3831.4638L14081.7926,-3831.4662L14081.7929,-3831.4662L14081.7929,-3831.4662L14081.7929,-3831.4662L14081.793,-3831.4662L14081.793,-3831.4662L14081.7931,-3831.4662L14081.7931,-3831.4662L14081.7933,-3831.4662L14081.7954,-3831.4663L14081.7955,-3831.4663L14081.7955,-3831.4663L14081.7956,-3831.4663L14081.843,-3831.468L14081.8975,-3831.4722L14081.9548,-3831.4783L14081.984,-3831.4819L14081.984,-3831.4819L14081.984,-3831.4819L14081.984,-3831.4819L14081.984,-3831.4819L14081.984,-3831.4819"/>
<path content="1,JRバス東北（株）,仙台～大館線,1.0,1.0,1.0," xlink:title="1" d="M14081.7261,-3831.4639L14081.7926,-3831.4662L14081.7929,-3831.4662L14081.7929,-3831.4662L14081.7929,-3831.4662L14081.793,-3831.4662L14081.793,-3831.4662L14081.7931,-3831.4662L14081.7931,-3831.4662L14081.7933,-3831.4662L14081.7954,-3831.4663L14081.7955,-3831.4663L14081.7955,-3831.4663L14081.7956,-3831.4663L14081.843,-3831.468L14081.8975,-3831.4721L14081.9438,-3831.477L14081.9546,-3831.4782L14081.9546,-3831.4782L14081.9546,-3831.4782L14081.9546,-3831.4782L14081.9547,-3831.4782L14081.9547,-3831.4782L14081.984,-3831.4819L14081.984,-3831.4819L14081.984,-3831.4819L14081.984,-3831.4819L14081.984,-3831.4819L14081.984,-3831.4819"/>
<path content="1,JRバス東北（株）,仙台～江刺・水沢線,2.0,2.0,2.0," xlink:title="1" d="M14081.7261,-3831.4639L14081.7926,-3831.4662L14081.7929,-3831.4662L14081.7929,-3831.4662L14081.7929,-3831.4662L14081.793,-3831.4662L14081.793,-3831.4662L14081.7931,-3831.4662L14081.7931,-3831.4662L14081.7933,-3831.4662L14081.7954,-3831.4663L14081.7955,-3831.4663L14081.7955,-3831.4663L14081.7956,-3831.4663L14081.843,-3831.468L14081.8975,-3831.4721L14081.9546,-3831.4782L14081.984,-3831.4819L14081.984,-3831.4819L14081.984,-3831.4819L14081.984,-3831.4819L14081.984,-3831.4819L14081.984,-3831.4819"/>
<path content="1,JRバス東北（株）,仙秋号,2.0,2.0,2.0," xlink:title="1" d="M14081.7261,-3831.4639L14081.7926,-3831.4662L14081.7929,-3831.4662L14081.7929,-3831.4662L14081.7929,-3831.4662L14081.793,-3831.4662L14081.793,-3831.4662L14081.7931,-3831.4662L14081.7931,-3831.4662L14081.7933,-3831.4662L14081.7954,-3831.4663L14081.7955,-3831.4663L14081.7955,-3831.4663L14081.7956,-3831.4663L14081.843,-3831.468L14081.8975,-3831.4721L14081.9546,-3831.4782L14081.984,-3831.4819L14081.984,-3831.4819L14081.984,-3831.4819L14081.984,-3831.4819L14081.984,-3831.4819L14081.984,-3831.4819"/>
<path content="1,JRバス関東（株）,ドリーム盛岡号,2.2,3.0,3.0," xlink:title="1" d="M14081.7261,-3831.4639L14081.7926,-3831.4662L14081.7929,-3831.4662L14081.7929,-3831.4662L14081.7929,-3831.4662L14081.793,-3831.4662L14081.793,-3831.4662L14081.7931,-3831.4662L14081.7931,-3831.4662L14081.7933,-3831.4662L14081.7954,-3831.4663L14081.7955,-3831.4663L14081.7955,-3831.4663L14081.7956,-3831.4663L14081.843,-3831.468L14081.8975,-3831.4721L14081.9546,-3831.4782L14081.984,-3831.4819L14081.984,-3831.4819L14081.984,-3831.4819L14081.984,-3831.4819L14081.984,-3831.4819L14081.984,-3831.4819"/>
<path content="1,京浜急行バス（株）,ノクターン号,3.4,4.0,4.0," xlink:title="1" d="M14081.7261,-3831.4639L14081.7926,-3831.4662L14081.7929,-3831.4662L14081.7929,-3831.4662L14081.7929,-3831.4662L14081.793,-3831.4662L14081.793,-3831.4662L14081.7931,-3831.4662L14081.7931,-3831.4662L14081.7933,-3831.4662L14081.7954,-3831.4663L14081.7955,-3831.4663L14081.7955,-3831.4663L14081.7956,-3831.4663L14081.843,-3831.468L14081.8975,-3831.4721L14081.9546,-3831.4782L14081.984,-3831.4819L14081.984,-3831.4819L14081.984,-3831.4819L14081.984,-3831.4819L14081.984,-3831.4819L14081.984,-3831.4819"/>
<path content="1,京浜急行バス（株）,ビーム号,1.0,1.0,1.0," xlink:title="1" d="M14081.984,-3831.4819L14081.984,-3831.4819L14081.984,-3831.4819L14081.984,-3831.4819L14081.984,-3831.4819L14081.984,-3831.4819L14081.9546,-3831.4782L14081.8975,-3831.4721L14081.843,-3831.468L14081.7956,-3831.4663L14081.7955,-3831.4663L14081.7955,-3831.4663L14081.7954,-3831.4663L14081.7933,-3831.4662L14081.7931,-3831.4662L14081.7931,-3831.4662L14081.793,-3831.4662L14081.793,-3831.4662L14081.7929,-3831.4662L14081.7929,-3831.4662L14081.7929,-3831.4662L14081.7926,-3831.4662L14081.7261,-3831.4639"/>
<path content="1,十和田観光電鉄（株）,うみねこ号,4.0,4.0,4.0," xlink:title="1" d="M14081.984,-3831.4819L14081.984,-3831.4819L14081.984,-3831.4819L14081.984,-3831.4819L14081.984,-3831.4819L14081.984,-3831.4819L14081.9547,-3831.4782L14081.9547,-3831.4782L14081.9546,-3831.4782L14081.9546,-3831.4782L14081.9546,-3831.4782L14081.9546,-3831.4782L14081.9438,-3831.477L14081.8975,-3831.4721L14081.843,-3831.468L14081.7956,-3831.4663L14081.7955,-3831.4663L14081.7955,-3831.4663L14081.7954,-3831.4663L14081.7933,-3831.4662L14081.7931,-3831.4662L14081.7931,-3831.4662L14081.793,-3831.4662L14081.793,-3831.4662L14081.7929,-3831.4662L14081.7929,-3831.4662L14081.7929,-3831.4662L14081.7926,-3831.4662L14081.7261,-3831.4639"/>
<path content="1,十和田観光電鉄（株）,シリウス号,1.0,1.0,1.0," xlink:title="1" d="M14081.984,-3831.4819L14081.984,-3831.4819L14081.984,-3831.4819L14081.984,-3831.4819L14081.984,-3831.4819L14081.984,-3831.4819L14081.9547,-3831.4782L14081.9547,-3831.4782L14081.9546,-3831.4782L14081.9546,-3831.4782L14081.9546,-3831.4782L14081.9546,-3831.4782L14081.8975,-3831.4721L14081.843,-3831.468L14081.7956,-3831.4663L14081.7955,-3831.4663L14081.7955,-3831.4663L14081.7954,-3831.4663L14081.7933,-3831.4662L14081.7931,-3831.4662L14081.7931,-3831.4662L14081.793,-3831.4662L14081.793,-3831.4662L14081.7929,-3831.4662L14081.7929,-3831.4662L14081.7929,-3831.4662L14081.7926,-3831.4662L14081.7261,-3831.4639"/>
<path content="1,十和田観光電鉄（株）,ブルーシティー号,6.0,6.0,6.0," xlink:title="1" d="M14081.984,-3831.4819L14081.984,-3831.4819L14081.984,-3831.4819L14081.984,-3831.4819L14081.984,-3831.4819L14081.984,-3831.4819L14081.9547,-3831.4782L14081.9547,-3831.4782L14081.9546,-3831.4782L14081.9546,-3831.4782L14081.9546,-3831.4782L14081.9546,-3831.4782L14081.9438,-3831.477L14081.8975,-3831.4721L14081.843,-3831.468L14081.7956,-3831.4663L14081.7955,-3831.4663L14081.7955,-3831.4663L14081.7954,-3831.4663L14081.7933,-3831.4662L14081.7931,-3831.4662L14081.7931,-3831.4662L14081.793,-3831.4662L14081.793,-3831.4662L14081.7929,-3831.4662L14081.7929,-3831.4662L14081.7929,-3831.4662L14081.7926,-3831.4662L14081.7261,-3831.4639"/>
<path content="1,南部バス（株）,うみねこ号　仙台→八戸,4.0,4.0,4.0," xlink:title="1" d="M14081.7261,-3831.4639L14081.7926,-3831.4662L14081.7929,-3831.4662L14081.7929,-3831.4662L14081.7929,-3831.4662L14081.793,-3831.4662L14081.793,-3831.4662L14081.7931,-3831.4662L14081.7931,-3831.4662L14081.7933,-3831.4662L14081.7954,-3831.4663L14081.7955,-3831.4663L14081.7955,-3831.4663L14081.7956,-3831.4663L14081.843,-3831.468L14081.8975,-3831.4721L14081.9438,-3831.477L14081.9546,-3831.4782L14081.9546,-3831.4782L14081.9546,-3831.4782L14081.9546,-3831.4782L14081.9547,-3831.4782L14081.9547,-3831.4782L14081.984,-3831.4819L14081.984,-3831.4819L14081.984,-3831.4819L14081.984,-3831.4819L14081.984,-3831.4819L14081.984,-3831.4819"/>
<path content="1,南部バス（株）,うみねこ号　八戸→仙台,4.0,4.0,4.0," xlink:title="1" d="M14081.984,-3831.4819L14081.984,-3831.4819L14081.984,-3831.4819L14081.984,-3831.4819L14081.984,-3831.4819L14081.984,-3831.4819L14081.9547,-3831.4782L14081.9547,-3831.4782L14081.9546,-3831.4782L14081.9546,-3831.4782L14081.9546,-3831.4782L14081.9546,-3831.4782L14081.8975,-3831.4721L14081.843,-3831.468L14081.7956,-3831.4663L14081.7955,-3831.4663L14081.7955,-3831.4663L14081.7954,-3831.4663L14081.7933,-3831.4662L14081.7931,-3831.4662L14081.7931,-3831.4662L14081.793,-3831.4662L14081.793,-3831.4662L14081.7929,-3831.4662L14081.7929,-3831.4662L14081.7929,-3831.4662L14081.7926,-3831.4662L14081.7261,-3831.4639"/>
<path content="1,国際興業（株）,けせんライナー,1.0,1.0,1.0," xlink:title="1" d="M14081.7261,-3831.4639L14081.7926,-3831.4662L14081.7929,-3831.4662L14081.7929,-3831.4662L14081.7929,-3831.4662L14081.793,-3831.4662L14081.793,-3831.4662L14081.7931,-3831.4662L14081.7931,-3831.4662L14081.7933,-3831.4662L14081.7954,-3831.4663L14081.7955,-3831.4663L14081.7955,-3831.4663L14081.7956,-3831.4663L14081.843,-3831.468L14081.8975,-3831.4721L14081.9546,-3831.4782L14081.984,-3831.4819L14081.984,-3831.4819L14081.984,-3831.4819L14081.984,-3831.4819L14081.984,-3831.4819L14081.984,-3831.4819"/>
<path content="1,国際興業（株）,イーハトープ号,1.0,1.0,1.0," xlink:title="1" d="M14081.7261,-3831.4639L14081.7926,-3831.4662L14081.7929,-3831.4662L14081.7929,-3831.4662L14081.7929,-3831.4662L14081.793,-3831.4662L14081.793,-3831.4662L14081.7931,-3831.4662L14081.7931,-3831.4662L14081.7933,-3831.4662L14081.7954,-3831.4663L14081.7955,-3831.4663L14081.7955,-3831.4663L14081.7956,-3831.4663L14081.843,-3831.468L14081.8975,-3831.4721L14081.9546,-3831.4782L14081.984,-3831.4819L14081.984,-3831.4819L14081.984,-3831.4819L14081.984,-3831.4819L14081.984,-3831.4819L14081.984,-3831.4819"/>
<path content="1,国際興業（株）,シリウス号,1.0,1.0,1.0," xlink:title="1" d="M14081.7261,-3831.4639L14081.7926,-3831.4662L14081.7929,-3831.4662L14081.7929,-3831.4662L14081.7929,-3831.4662L14081.793,-3831.4662L14081.793,-3831.4662L14081.7931,-3831.4662L14081.7931,-3831.4662L14081.7933,-3831.4662L14081.7954,-3831.4663L14081.7955,-3831.4663L14081.7955,-3831.4663L14081.7956,-3831.4663L14081.843,-3831.468L14081.8975,-3831.4721L14081.9546,-3831.4782L14081.984,-3831.4819L14081.984,-3831.4819L14081.984,-3831.4819L14081.984,-3831.4819L14081.984,-3831.4819L14081.984,-3831.4819"/>
<path content="1,国際興業（株）,ジュピター号,1.0,1.0,1.0," xlink:title="1" d="M14081.7261,-3831.4639L14081.7926,-3831.4662L14081.7929,-3831.4662L14081.7929,-3831.4662L14081.7929,-3831.4662L14081.793,-3831.4662L14081.793,-3831.4662L14081.7931,-3831.4662L14081.7931,-3831.4662L14081.7933,-3831.4662L14081.7954,-3831.4663L14081.7955,-3831.4663L14081.7955,-3831.4663L14081.7956,-3831.4663L14081.843,-3831.468L14081.8975,-3831.4721L14081.9546,-3831.4782L14081.984,-3831.4819L14081.984,-3831.4819L14081.984,-3831.4819L14081.984,-3831.4819L14081.984,-3831.4819L14081.984,-3831.4819"/>
<path content="1,国際興業（株）,ドリーム盛岡（らくちん）号,2.2,3.0,3.0," xlink:title="1" d="M14081.7261,-3831.4639L14081.7926,-3831.4662L14081.7929,-3831.4662L14081.7929,-3831.4662L14081.7929,-3831.4662L14081.793,-3831.4662L14081.793,-3831.4662L14081.7931,-3831.4662L14081.7931,-3831.4662L14081.7933,-3831.4662L14081.7954,-3831.4663L14081.7955,-3831.4663L14081.7955,-3831.4663L14081.7956,-3831.4663L14081.843,-3831.468L14081.8975,-3831.4721L14081.9546,-3831.4782L14081.984,-3831.4819L14081.984,-3831.4819L14081.984,-3831.4819L14081.984,-3831.4819L14081.984,-3831.4819L14081.984,-3831.4819"/>
<path content="1,国際興業（株）,遠野・釜石号,1.0,1.0,1.0," xlink:title="1" d="M14081.7261,-3831.4639L14081.7926,-3831.4662L14081.7929,-3831.4662L14081.7929,-3831.4662L14081.7929,-3831.4662L14081.793,-3831.4662L14081.793,-3831.4662L14081.7931,-3831.4662L14081.7931,-3831.4662L14081.7933,-3831.4662L14081.7954,-3831.4663L14081.7955,-3831.4663L14081.7955,-3831.4663L14081.7956,-3831.4663L14081.843,-3831.468L14081.8975,-3831.4721L14081.9546,-3831.4782L14081.984,-3831.4819L14081.984,-3831.4819L14081.984,-3831.4819L14081.984,-3831.4819L14081.984,-3831.4819L14081.984,-3831.4819"/>
<path content="1,宮城交通（株）,うみねこ,1.0,1.0,1.0," xlink:title="1" d="M14081.7261,-3831.4639L14081.7926,-3831.4662L14081.7929,-3831.4662L14081.7929,-3831.4662L14081.7929,-3831.4662L14081.793,-3831.4662L14081.793,-3831.4662L14081.7931,-3831.4662L14081.7931,-3831.4662L14081.7933,-3831.4662L14081.7954,-3831.4663L14081.7955,-3831.4663L14081.7955,-3831.4663L14081.7956,-3831.4663L14081.843,-3831.468L14081.8975,-3831.4721L14081.9546,-3831.4782L14081.9546,-3831.4782L14081.9546,-3831.4782L14081.9546,-3831.4782L14081.9547,-3831.4782L14081.9547,-3831.4782L14081.984,-3831.4819L14081.984,-3831.4819L14081.984,-3831.4819L14081.984,-3831.4819L14081.984,-3831.4819L14081.984,-3831.4819"/>
<path content="1,宮城交通（株）,アーバン,3.2,4.0,4.0," xlink:title="1" d="M14081.7261,-3831.4639L14081.7926,-3831.4662L14081.7929,-3831.4662L14081.7929,-3831.4662L14081.7929,-3831.4662L14081.793,-3831.4662L14081.793,-3831.4662L14081.7931,-3831.4662L14081.7931,-3831.4662L14081.7933,-3831.4662L14081.7954,-3831.4663L14081.7955,-3831.4663L14081.7955,-3831.4663L14081.7956,-3831.4663L14081.843,-3831.468L14081.8975,-3831.4721L14081.9546,-3831.4782L14081.9546,-3831.4782L14081.9546,-3831.4782L14081.9546,-3831.4782L14081.9547,-3831.4782L14081.9547,-3831.4782L14081.984,-3831.4819L14081.984,-3831.4819L14081.984,-3831.4819L14081.984,-3831.4819L14081.984,-3831.4819L14081.984,-3831.4819"/>
<path content="1,宮城交通（株）,キャッスル,3.0,3.0,3.0," xlink:title="1" d="M14081.7261,-3831.4639L14081.7926,-3831.4662L14081.7929,-3831.4662L14081.7929,-3831.4662L14081.7929,-3831.4662L14081.793,-3831.4662L14081.793,-3831.4662L14081.7931,-3831.4662L14081.7931,-3831.4662L14081.7933,-3831.4662L14081.7954,-3831.4663L14081.7955,-3831.4663L14081.7955,-3831.4663L14081.7956,-3831.4663L14081.843,-3831.468L14081.8975,-3831.4721L14081.9546,-3831.4782L14081.9546,-3831.4782L14081.9546,-3831.4782L14081.9546,-3831.4782L14081.9547,-3831.4782L14081.9547,-3831.4782L14081.984,-3831.4819L14081.984,-3831.4819L14081.984,-3831.4819L14081.984,-3831.4819L14081.984,-3831.4819L14081.984,-3831.4819"/>
<path content="1,宮城交通（株）,ブルーシティ,1.5,1.5,1.5," xlink:title="1" d="M14081.7261,-3831.4639L14081.7926,-3831.4662L14081.7929,-3831.4662L14081.7929,-3831.4662L14081.7929,-3831.4662L14081.793,-3831.4662L14081.793,-3831.4662L14081.7931,-3831.4662L14081.7931,-3831.4662L14081.7933,-3831.4662L14081.7954,-3831.4663L14081.7955,-3831.4663L14081.7955,-3831.4663L14081.7956,-3831.4663L14081.843,-3831.468L14081.8975,-3831.4721L14081.9546,-3831.4782L14081.9546,-3831.4782L14081.9546,-3831.4782L14081.9546,-3831.4782L14081.9547,-3831.4782L14081.9547,-3831.4782L14081.984,-3831.4819L14081.984,-3831.4819L14081.984,-3831.4819L14081.984,-3831.4819L14081.984,-3831.4819L14081.984,-3831.4819"/>
<path content="1,宮城交通（株）,仙台～佐沼線,8.0,8.0,8.0," xlink:title="1" d="M14081.7261,-3831.4639L14081.7926,-3831.4662L14081.7929,-3831.4662L14081.7929,-3831.4662L14081.7929,-3831.4662L14081.793,-3831.4662L14081.793,-3831.4662L14081.7931,-3831.4662L14081.7931,-3831.4662L14081.7933,-3831.4662L14081.7954,-3831.4663L14081.7955,-3831.4663L14081.7955,-3831.4663L14081.7956,-3831.4663L14081.843,-3831.468L14081.8975,-3831.4721L14081.9546,-3831.4782L14081.9546,-3831.4782L14081.9546,-3831.4782L14081.9547,-3831.4782L14081.9547,-3831.4782L14081.984,-3831.4819L14081.984,-3831.4819L14081.984,-3831.4819L14081.984,-3831.4819L14081.984,-3831.4819L14081.984,-3831.4819"/>
<path content="1,宮城交通（株）,仙台～大船渡線,2.0,2.0,2.0," xlink:title="1" d="M14081.7261,-3831.4639L14081.7926,-3831.4662L14081.7929,-3831.4662L14081.7929,-3831.4662L14081.7929,-3831.4662L14081.793,-3831.4662L14081.793,-3831.4662L14081.7931,-3831.4662L14081.7931,-3831.4662L14081.7933,-3831.4662L14081.7954,-3831.4663L14081.7955,-3831.4663L14081.7955,-3831.4663L14081.7956,-3831.4663L14081.843,-3831.468L14081.8975,-3831.4721L14081.9546,-3831.4782L14081.984,-3831.4819L14081.984,-3831.4819L14081.984,-3831.4819L14081.984,-3831.4819L14081.984,-3831.4819L14081.984,-3831.4819"/>
<path content="1,宮城交通（株）,仙台～大衡線,6.0,6.0,6.0," xlink:title="1" d="M14081.7261,-3831.4639L14081.7926,-3831.4662L14081.7929,-3831.4662L14081.7929,-3831.4662L14081.7929,-3831.4662L14081.793,-3831.4662L14081.793,-3831.4662L14081.7931,-3831.4662L14081.7931,-3831.4662L14081.7933,-3831.4662L14081.7954,-3831.4663L14081.7955,-3831.4663L14081.7955,-3831.4663L14081.7956,-3831.4663L14081.843,-3831.468L14081.8975,-3831.4721L14081.9438,-3831.477L14081.9546,-3831.4782L14081.9546,-3831.4782L14081.9546,-3831.4782L14081.9546,-3831.4782L14081.9547,-3831.4782L14081.9547,-3831.4782L14081.984,-3831.4819L14081.984,-3831.4819L14081.984,-3831.4819L14081.984,-3831.4819L14081.984,-3831.4819L14081.984,-3831.4819"/>
<path content="1,宮城交通（株）,仙台～気仙沼線,3.0,3.0,3.0," xlink:title="1" d="M14081.7261,-3831.4639L14081.7926,-3831.4662L14081.7929,-3831.4662L14081.7929,-3831.4662L14081.7929,-3831.4662L14081.793,-3831.4662L14081.793,-3831.4662L14081.7931,-3831.4662L14081.7931,-3831.4662L14081.7933,-3831.4662L14081.7954,-3831.4663L14081.7955,-3831.4663L14081.7955,-3831.4663L14081.7956,-3831.4663L14081.843,-3831.468L14081.8975,-3831.4721L14081.9438,-3831.477L14081.9546,-3831.4782L14081.9546,-3831.4782L14081.9546,-3831.4782L14081.9546,-3831.4782L14081.9547,-3831.4782L14081.9547,-3831.4782L14081.984,-3831.4819L14081.984,-3831.4819L14081.984,-3831.4819L14081.984,-3831.4819L14081.984,-3831.4819L14081.984,-3831.4819"/>
<path content="1,宮城交通（株）,仙台～釜石線,1.0,1.0,1.0," xlink:title="1" d="M14081.7261,-3831.4639L14081.7926,-3831.4662L14081.7929,-3831.4662L14081.7929,-3831.4662L14081.7929,-3831.4662L14081.793,-3831.4662L14081.793,-3831.4662L14081.7931,-3831.4662L14081.7931,-3831.4662L14081.7933,-3831.4662L14081.7954,-3831.4663L14081.7955,-3831.4663L14081.7955,-3831.4663L14081.7956,-3831.4663L14081.843,-3831.468L14081.8975,-3831.4721L14081.9546,-3831.4782L14081.9546,-3831.4782L14081.9546,-3831.4782L14081.9546,-3831.4782L14081.9547,-3831.4782L14081.9547,-3831.4782L14081.984,-3831.4819L14081.984,-3831.4819L14081.984,-3831.4819L14081.984,-3831.4819L14081.984,-3831.4819L14081.984,-3831.4819"/>
<path content="1,宮城交通（株）,仙台～鳴子線,3.5,3.5,3.5," xlink:title="1" d="M14081.7261,-3831.4639L14081.7926,-3831.4662L14081.7929,-3831.4662L14081.7929,-3831.4662L14081.7929,-3831.4662L14081.793,-3831.4662L14081.793,-3831.4662L14081.7931,-3831.4662L14081.7931,-3831.4662L14081.7933,-3831.4662L14081.7954,-3831.4663L14081.7955,-3831.4663L14081.7955,-3831.4663L14081.7956,-3831.4663L14081.843,-3831.468L14081.8975,-3831.4721L14081.9438,-3831.477L14081.9546,-3831.4782L14081.9546,-3831.4782L14081.9546,-3831.4782L14081.9546,-3831.4782L14081.9547,-3831.4782L14081.9547,-3831.4782L14081.984,-3831.4819L14081.984,-3831.4819L14081.984,-3831.4819L14081.984,-3831.4819L14081.984,-3831.4819L14081.984,-3831.4819"/>
<path content="1,宮城交通（株）,仙秋,4.0,4.0,4.0," xlink:title="1" d="M14081.7261,-3831.4639L14081.7926,-3831.4662L14081.7929,-3831.4662L14081.7929,-3831.4662L14081.7929,-3831.4662L14081.793,-3831.4662L14081.793,-3831.4662L14081.7931,-3831.4662L14081.7931,-3831.4662L14081.7933,-3831.4662L14081.7954,-3831.4663L14081.7955,-3831.4663L14081.7955,-3831.4663L14081.7956,-3831.4663L14081.843,-3831.468L14081.8975,-3831.4721L14081.9546,-3831.4782L14081.9546,-3831.4782L14081.9546,-3831.4782L14081.9546,-3831.4782L14081.9547,-3831.4782L14081.9547,-3831.4782L14081.984,-3831.4819L14081.984,-3831.4819L14081.984,-3831.4819L14081.984,-3831.4819L14081.984,-3831.4819L14081.984,-3831.4819"/>
<path content="1,宮城交通（株）,南三陸～仙台線,3.0,3.0,3.0," xlink:title="1" d="M14081.7261,-3831.4639L14081.7926,-3831.4662L14081.7929,-3831.4662L14081.7929,-3831.4662L14081.7929,-3831.4662L14081.793,-3831.4662L14081.793,-3831.4662L14081.7931,-3831.4662L14081.7931,-3831.4662L14081.7933,-3831.4662L14081.7954,-3831.4663L14081.7955,-3831.4663L14081.7955,-3831.4663L14081.7956,-3831.4663L14081.843,-3831.468L14081.8975,-3831.4721L14081.9546,-3831.4782L14081.9546,-3831.4782L14081.9546,-3831.4782L14081.9547,-3831.4782L14081.9547,-3831.4782L14081.984,-3831.4819L14081.984,-3831.4819L14081.984,-3831.4819L14081.984,-3831.4819L14081.984,-3831.4819L14081.984,-3831.4819"/>
<path content="1,小田急シティバス（株）,フローラ号,1.0,1.0,1.0," xlink:title="1" d="M14081.7261,-3831.4639L14081.7926,-3831.4662L14081.7929,-3831.4662L14081.7929,-3831.4662L14081.7929,-3831.4662L14081.793,-3831.4662L14081.793,-3831.4662L14081.7931,-3831.4662L14081.7931,-3831.4662L14081.7933,-3831.4662L14081.7954,-3831.4663L14081.7955,-3831.4663L14081.7955,-3831.4663L14081.7956,-3831.4663L14081.843,-3831.468L14081.8975,-3831.4721L14081.9546,-3831.4782L14081.984,-3831.4819L14081.984,-3831.4819L14081.984,-3831.4819L14081.984,-3831.4819L14081.984,-3831.4819L14081.984,-3831.4819"/>
<path content="1,小田急バス（株）,フローラ号,1.0,1.0,1.0," xlink:title="1" d="M14081.7261,-3831.4639L14081.7926,-3831.4662L14081.7929,-3831.4662L14081.7929,-3831.4662L14081.7929,-3831.4662L14081.793,-3831.4662L14081.793,-3831.4662L14081.7931,-3831.4662L14081.7931,-3831.4662L14081.7933,-3831.4662L14081.7954,-3831.4663L14081.7955,-3831.4663L14081.7955,-3831.4663L14081.7956,-3831.4663L14081.843,-3831.468L14081.8975,-3831.4721L14081.9546,-3831.4782L14081.984,-3831.4819L14081.984,-3831.4819L14081.984,-3831.4819L14081.984,-3831.4819L14081.984,-3831.4819L14081.984,-3831.4819"/>
<path content="1,岩手急行バス（株）,一ノ関仙台線,19.0,19.0,19.0," xlink:title="1" d="M14081.7261,-3831.4639L14081.7926,-3831.4662L14081.7929,-3831.4662L14081.7929,-3831.4662L14081.7929,-3831.4662L14081.793,-3831.4662L14081.793,-3831.4662L14081.7931,-3831.4662L14081.7931,-3831.4662L14081.7933,-3831.4662L14081.7954,-3831.4663L14081.7955,-3831.4663L14081.7955,-3831.4663L14081.7956,-3831.4663L14081.843,-3831.468L14081.8975,-3831.4721L14081.9438,-3831.477L14081.9546,-3831.4782L14081.9546,-3831.4782L14081.9546,-3831.4782L14081.9546,-3831.4782L14081.9547,-3831.4782L14081.9547,-3831.4782L14081.984,-3831.4819L14081.984,-3831.4819L14081.984,-3831.4819L14081.984,-3831.4819L14081.984,-3831.4819L14081.984,-3831.4819"/>
<path content="1,岩手県交通（株）,けせんライナー,1.0,1.0,1.0," xlink:title="1" d="M14081.7261,-3831.4639L14081.7926,-3831.4662L14081.7929,-3831.4662L14081.7929,-3831.4662L14081.7929,-3831.4662L14081.793,-3831.4662L14081.793,-3831.4662L14081.7931,-3831.4662L14081.7931,-3831.4662L14081.7933,-3831.4662L14081.7954,-3831.4663L14081.7955,-3831.4663L14081.7955,-3831.4663L14081.7956,-3831.4663L14081.843,-3831.468L14081.8975,-3831.4721L14081.9546,-3831.4782L14081.984,-3831.4819L14081.984,-3831.4819L14081.984,-3831.4819L14081.984,-3831.4819L14081.984,-3831.4819L14081.984,-3831.4819"/>
<path content="1,岩手県交通（株）,けんじライナー,2.0,2.0,2.0," xlink:title="1" d="M14081.7261,-3831.4639L14081.7926,-3831.4662L14081.7929,-3831.4662L14081.7929,-3831.4662L14081.7929,-3831.4662L14081.793,-3831.4662L14081.793,-3831.4662L14081.7931,-3831.4662L14081.7931,-3831.4662L14081.7933,-3831.4662L14081.7954,-3831.4663L14081.7955,-3831.4663L14081.7955,-3831.4663L14081.7956,-3831.4663L14081.843,-3831.468L14081.8975,-3831.4721L14081.9438,-3831.477L14081.9546,-3831.4782L14081.9546,-3831.4782L14081.9546,-3831.4782L14081.9546,-3831.4782L14081.9547,-3831.4782L14081.9547,-3831.4782L14081.984,-3831.4819L14081.984,-3831.4819L14081.984,-3831.4819L14081.984,-3831.4819L14081.984,-3831.4819L14081.984,-3831.4819"/>
<path content="1,岩手県交通（株）,アーバン号,3.2,4.0,4.0," xlink:title="1" d="M14081.7261,-3831.4639L14081.7926,-3831.4662L14081.7929,-3831.4662L14081.7929,-3831.4662L14081.7929,-3831.4662L14081.793,-3831.4662L14081.793,-3831.4662L14081.7931,-3831.4662L14081.7931,-3831.4662L14081.7933,-3831.4662L14081.7954,-3831.4663L14081.7955,-3831.4663L14081.7955,-3831.4663L14081.7956,-3831.4663L14081.843,-3831.468L14081.8975,-3831.4721L14081.9438,-3831.477L14081.9546,-3831.4782L14081.9546,-3831.4782L14081.9546,-3831.4782L14081.9546,-3831.4782L14081.9547,-3831.4782L14081.9547,-3831.4782L14081.984,-3831.4819L14081.984,-3831.4819L14081.984,-3831.4819L14081.984,-3831.4819L14081.984,-3831.4819L14081.984,-3831.4819"/>
<path content="1,岩手県交通（株）,イーハトーブ号,1.0,1.0,1.0," xlink:title="1" d="M14081.7261,-3831.4639L14081.7926,-3831.4662L14081.7929,-3831.4662L14081.7929,-3831.4662L14081.7929,-3831.4662L14081.793,-3831.4662L14081.793,-3831.4662L14081.7931,-3831.4662L14081.7931,-3831.4662L14081.7933,-3831.4662L14081.7954,-3831.4663L14081.7955,-3831.4663L14081.7955,-3831.4663L14081.7956,-3831.4663L14081.843,-3831.468L14081.8975,-3831.4721L14081.9546,-3831.4782L14081.984,-3831.4819L14081.984,-3831.4819L14081.984,-3831.4819L14081.984,-3831.4819L14081.984,-3831.4819L14081.984,-3831.4819"/>
<path content="1,岩手県交通（株）,ドリーム盛岡（らくちん）号,2.3,3.0,3.0," xlink:title="1" d="M14081.7261,-3831.4639L14081.7926,-3831.4662L14081.7929,-3831.4662L14081.7929,-3831.4662L14081.7929,-3831.4662L14081.793,-3831.4662L14081.793,-3831.4662L14081.7931,-3831.4662L14081.7931,-3831.4662L14081.7933,-3831.4662L14081.7954,-3831.4663L14081.7955,-3831.4663L14081.7955,-3831.4663L14081.7956,-3831.4663L14081.843,-3831.468L14081.8975,-3831.4721L14081.9546,-3831.4782L14081.984,-3831.4819L14081.984,-3831.4819L14081.984,-3831.4819L14081.984,-3831.4819L14081.984,-3831.4819L14081.984,-3831.4819"/>
<path content="1,岩手県交通（株）,一関・仙台線,0.5,0.5,0.5," xlink:title="1" d="M14081.984,-3831.4819L14081.984,-3831.4819L14081.984,-3831.4819L14081.984,-3831.4819L14081.984,-3831.4819L14081.984,-3831.4819L14081.9547,-3831.4782L14081.9547,-3831.4782L14081.9546,-3831.4782L14081.9546,-3831.4782L14081.9546,-3831.4782L14081.9546,-3831.4782L14081.9438,-3831.477L14081.8975,-3831.4721L14081.843,-3831.468L14081.7956,-3831.4663L14081.7955,-3831.4663L14081.7955,-3831.4663L14081.7954,-3831.4663L14081.7933,-3831.4662L14081.7931,-3831.4662L14081.7931,-3831.4662L14081.793,-3831.4662L14081.793,-3831.4662L14081.7929,-3831.4662L14081.7929,-3831.4662L14081.7929,-3831.4662L14081.7926,-3831.4662L14081.7261,-3831.4639"/>
<path content="1,岩手県交通（株）,大船渡・仙台線,2.0,2.0,2.0," xlink:title="1" d="M14081.984,-3831.4819L14081.984,-3831.4819L14081.984,-3831.4819L14081.984,-3831.4819L14081.984,-3831.4819L14081.984,-3831.4819L14081.9547,-3831.4782L14081.9547,-3831.4782L14081.9546,-3831.4782L14081.9546,-3831.4782L14081.9546,-3831.4782L14081.9546,-3831.4782L14081.9438,-3831.477L14081.8975,-3831.4721L14081.843,-3831.468L14081.7956,-3831.4663L14081.7955,-3831.4663L14081.7955,-3831.4663L14081.7954,-3831.4663L14081.7933,-3831.4662L14081.7931,-3831.4662L14081.7931,-3831.4662L14081.793,-3831.4662L14081.793,-3831.4662L14081.7929,-3831.4662L14081.7929,-3831.4662L14081.7929,-3831.4662L14081.7926,-3831.4662L14081.7261,-3831.4639"/>
<path content="1,岩手県交通（株）,平泉中尊寺号,0.5,0.5,0.5," xlink:title="1" d="M14081.7261,-3831.4639L14081.7926,-3831.4662L14081.7929,-3831.4662L14081.7929,-3831.4662L14081.7929,-3831.4662L14081.793,-3831.4662L14081.793,-3831.4662L14081.7931,-3831.4662L14081.7931,-3831.4662L14081.7933,-3831.4662L14081.7954,-3831.4663L14081.7955,-3831.4663L14081.7955,-3831.4663L14081.7956,-3831.4663L14081.843,-3831.468L14081.8975,-3831.4721L14081.9438,-3831.477L14081.9546,-3831.4782L14081.9546,-3831.4782L14081.9546,-3831.4782L14081.9546,-3831.4782L14081.9547,-3831.4782L14081.9547,-3831.4782L14081.984,-3831.4819L14081.984,-3831.4819L14081.984,-3831.4819L14081.984,-3831.4819L14081.984,-3831.4819L14081.984,-3831.4819"/>
<path content="1,岩手県交通（株）,江刺・仙台線,2.0,2.0,2.0," xlink:title="1" d="M14081.7261,-3831.4639L14081.7926,-3831.4662L14081.7929,-3831.4662L14081.7929,-3831.4662L14081.7929,-3831.4662L14081.793,-3831.4662L14081.793,-3831.4662L14081.7931,-3831.4662L14081.7931,-3831.4662L14081.7933,-3831.4662L14081.7954,-3831.4663L14081.7955,-3831.4663L14081.7955,-3831.4663L14081.7956,-3831.4663L14081.843,-3831.468L14081.8975,-3831.4721L14081.9438,-3831.477L14081.9546,-3831.4782L14081.9546,-3831.4782L14081.9546,-3831.4782L14081.9546,-3831.4782L14081.9547,-3831.4782L14081.9547,-3831.4782L14081.984,-3831.4819L14081.984,-3831.4819L14081.984,-3831.4819L14081.984,-3831.4819L14081.984,-3831.4819L14081.984,-3831.4819"/>
<path content="1,岩手県交通（株）,盛岡・横浜線,1.0,1.0,1.0," xlink:title="1" d="M14081.7261,-3831.4639L14081.7926,-3831.4662L14081.7929,-3831.4662L14081.7929,-3831.4662L14081.7929,-3831.4662L14081.793,-3831.4662L14081.793,-3831.4662L14081.7931,-3831.4662L14081.7931,-3831.4662L14081.7933,-3831.4662L14081.7954,-3831.4663L14081.7955,-3831.4663L14081.7955,-3831.4663L14081.7956,-3831.4663L14081.843,-3831.468L14081.8975,-3831.4721L14081.9546,-3831.4782L14081.984,-3831.4819L14081.984,-3831.4819L14081.984,-3831.4819L14081.984,-3831.4819L14081.984,-3831.4819L14081.984,-3831.4819"/>
<path content="1,岩手県交通（株）,遠野・釜石号,1.0,1.0,1.0," xlink:title="1" d="M14081.7261,-3831.4639L14081.7926,-3831.4662L14081.7929,-3831.4662L14081.7929,-3831.4662L14081.7929,-3831.4662L14081.793,-3831.4662L14081.793,-3831.4662L14081.7931,-3831.4662L14081.7931,-3831.4662L14081.7933,-3831.4662L14081.7954,-3831.4663L14081.7955,-3831.4663L14081.7955,-3831.4663L14081.7956,-3831.4663L14081.843,-3831.468L14081.8975,-3831.4721L14081.9546,-3831.4782L14081.984,-3831.4819L14081.984,-3831.4819L14081.984,-3831.4819L14081.984,-3831.4819L14081.984,-3831.4819L14081.984,-3831.4819"/>
<path content="1,岩手県交通（株）,釜石・仙台線,1.0,1.0,1.0," xlink:title="1" d="M14081.984,-3831.4819L14081.984,-3831.4819L14081.984,-3831.4819L14081.984,-3831.4819L14081.984,-3831.4819L14081.984,-3831.4819L14081.9547,-3831.4782L14081.9547,-3831.4782L14081.9546,-3831.4782L14081.9546,-3831.4782L14081.9546,-3831.4782L14081.9546,-3831.4782L14081.9438,-3831.477L14081.8975,-3831.4721L14081.843,-3831.468L14081.7956,-3831.4663L14081.7955,-3831.4663L14081.7955,-3831.4663L14081.7954,-3831.4663L14081.7933,-3831.4662L14081.7931,-3831.4662L14081.7931,-3831.4662L14081.793,-3831.4662L14081.793,-3831.4662L14081.7929,-3831.4662L14081.7929,-3831.4662L14081.7929,-3831.4662L14081.7926,-3831.4662L14081.7261,-3831.4639"/>
<path content="1,岩手県北自動車（株）,BEAM-1　宮古・盛岡南⇔浜松町・品川,1.0,1.0,1.0," xlink:title="1" d="M14081.7261,-3831.4639L14081.7926,-3831.4662L14081.7929,-3831.4662L14081.7929,-3831.4662L14081.7929,-3831.4662L14081.793,-3831.4662L14081.793,-3831.4662L14081.7931,-3831.4662L14081.7931,-3831.4662L14081.7933,-3831.4662L14081.7954,-3831.4663L14081.7955,-3831.4663L14081.7955,-3831.4663L14081.7956,-3831.4663L14081.843,-3831.468L14081.8975,-3831.4721L14081.9546,-3831.4782L14081.984,-3831.4819L14081.984,-3831.4819L14081.984,-3831.4819L14081.984,-3831.4819L14081.984,-3831.4819L14081.984,-3831.4819"/>
<path content="1,岩手県北自動車（株）,アーバン号　盛岡⇔仙台,3.2,4.0,4.0," xlink:title="1" d="M14081.7261,-3831.4639L14081.7926,-3831.4662L14081.7929,-3831.4662L14081.7929,-3831.4662L14081.7929,-3831.4662L14081.793,-3831.4662L14081.793,-3831.4662L14081.7931,-3831.4662L14081.7931,-3831.4662L14081.7933,-3831.4662L14081.7954,-3831.4663L14081.7955,-3831.4663L14081.7955,-3831.4663L14081.7956,-3831.4663L14081.843,-3831.468L14081.8975,-3831.4721L14081.9438,-3831.477L14081.9546,-3831.4782L14081.9546,-3831.4782L14081.9546,-3831.4782L14081.9546,-3831.4782L14081.9547,-3831.4782L14081.9547,-3831.4782L14081.984,-3831.4819L14081.984,-3831.4819L14081.984,-3831.4819L14081.984,-3831.4819L14081.984,-3831.4819L14081.984,-3831.4819"/>
<path content="1,弘南バス（株）,アップル号,1.0,1.0,1.0," xlink:title="1" d="M14081.984,-3831.4819L14081.984,-3831.4819L14081.984,-3831.4819L14081.984,-3831.4819L14081.984,-3831.4819L14081.984,-3831.4819L14081.9546,-3831.4782L14081.8975,-3831.4721L14081.843,-3831.468L14081.7956,-3831.4663L14081.7955,-3831.4663L14081.7955,-3831.4663L14081.7954,-3831.4663L14081.7933,-3831.4662L14081.7931,-3831.4662L14081.7931,-3831.4662L14081.793,-3831.4662L14081.793,-3831.4662L14081.7929,-3831.4662L14081.7929,-3831.4662L14081.7929,-3831.4662L14081.7926,-3831.4662L14081.7261,-3831.4639"/>
<path content="1,弘南バス（株）,キャッスル号,6.0,6.0,6.0," xlink:title="1" d="M14081.984,-3831.4819L14081.984,-3831.4819L14081.984,-3831.4819L14081.984,-3831.4819L14081.984,-3831.4819L14081.984,-3831.4819L14081.9547,-3831.4782L14081.9547,-3831.4782L14081.9546,-3831.4782L14081.9546,-3831.4782L14081.9546,-3831.4782L14081.9438,-3831.477L14081.8975,-3831.4721L14081.843,-3831.468L14081.7956,-3831.4663L14081.7955,-3831.4663L14081.7955,-3831.4663L14081.7954,-3831.4663L14081.7933,-3831.4662L14081.7931,-3831.4662L14081.7931,-3831.4662L14081.793,-3831.4662L14081.793,-3831.4662L14081.7929,-3831.4662L14081.7929,-3831.4662L14081.7929,-3831.4662L14081.7926,-3831.4662L14081.7261,-3831.4639"/>
<path content="1,弘南バス（株）,スカイ号,1.0,1.0,1.0," xlink:title="1" d="M14081.984,-3831.4819L14081.984,-3831.4819L14081.984,-3831.4819L14081.984,-3831.4819L14081.984,-3831.4819L14081.984,-3831.4819L14081.9546,-3831.4782L14081.8975,-3831.4721L14081.843,-3831.468L14081.7956,-3831.4663L14081.7955,-3831.4663L14081.7955,-3831.4663L14081.7954,-3831.4663L14081.7933,-3831.4662L14081.7931,-3831.4662L14081.7931,-3831.4662L14081.793,-3831.4662L14081.793,-3831.4662L14081.7929,-3831.4662L14081.7929,-3831.4662L14081.7929,-3831.4662L14081.7926,-3831.4662L14081.7261,-3831.4639"/>
<path content="1,弘南バス（株）,ノクターン号,1.0,1.0,1.0," xlink:title="1" d="M14081.984,-3831.4819L14081.984,-3831.4819L14081.984,-3831.4819L14081.984,-3831.4819L14081.984,-3831.4819L14081.984,-3831.4819L14081.9546,-3831.4782L14081.8975,-3831.4721L14081.843,-3831.468L14081.7956,-3831.4663L14081.7955,-3831.4663L14081.7955,-3831.4663L14081.7954,-3831.4663L14081.7933,-3831.4662L14081.7931,-3831.4662L14081.7931,-3831.4662L14081.793,-3831.4662L14081.793,-3831.4662L14081.7929,-3831.4662L14081.7929,-3831.4662L14081.7929,-3831.4662L14081.7926,-3831.4662L14081.7261,-3831.4639"/>
<path content="1,弘南バス（株）,パンダ号,3.0,3.0,3.0," xlink:title="1" d="M14081.984,-3831.4819L14081.984,-3831.4819L14081.984,-3831.4819L14081.984,-3831.4819L14081.984,-3831.4819L14081.984,-3831.4819L14081.9546,-3831.4782L14081.8975,-3831.4721L14081.843,-3831.468L14081.7956,-3831.4663L14081.7955,-3831.4663L14081.7955,-3831.4663L14081.7954,-3831.4663L14081.7933,-3831.4662L14081.7931,-3831.4662L14081.7931,-3831.4662L14081.793,-3831.4662L14081.793,-3831.4662L14081.7929,-3831.4662L14081.7929,-3831.4662L14081.7929,-3831.4662L14081.7926,-3831.4662L14081.7261,-3831.4639"/>
<path content="1,弘南バス（株）,ブルーシティー号,4.0,4.0,4.0," xlink:title="1" d="M14081.984,-3831.4819L14081.984,-3831.4819L14081.984,-3831.4819L14081.984,-3831.4819L14081.984,-3831.4819L14081.984,-3831.4819L14081.9547,-3831.4782L14081.9547,-3831.4782L14081.9546,-3831.4782L14081.9546,-3831.4782L14081.9546,-3831.4782L14081.9546,-3831.4782L14081.8975,-3831.4721L14081.843,-3831.468L14081.7956,-3831.4663L14081.7955,-3831.4663L14081.7955,-3831.4663L14081.7954,-3831.4663L14081.7933,-3831.4662L14081.7931,-3831.4662L14081.7931,-3831.4662L14081.793,-3831.4662L14081.793,-3831.4662L14081.7929,-3831.4662L14081.7929,-3831.4662L14081.7929,-3831.4662L14081.7926,-3831.4662L14081.7261,-3831.4639"/>
<path content="1,弘南バス（株）,津軽号,1.0,1.0,1.0," xlink:title="1" d="M14081.7261,-3831.4639L14081.7926,-3831.4662L14081.7929,-3831.4662L14081.7929,-3831.4662L14081.7929,-3831.4662L14081.793,-3831.4662L14081.793,-3831.4662L14081.7931,-3831.4662L14081.7931,-3831.4662L14081.7933,-3831.4662L14081.7954,-3831.4663L14081.7955,-3831.4663L14081.7955,-3831.4663L14081.7956,-3831.4663L14081.843,-3831.468L14081.8975,-3831.4721L14081.9546,-3831.4782L14081.984,-3831.4819L14081.984,-3831.4819L14081.984,-3831.4819L14081.984,-3831.4819L14081.984,-3831.4819L14081.984,-3831.4819"/>
<path content="1,東日本急行（株）,とよま総合支所～仙台線,6.0,6.0,6.0," xlink:title="1" d="M14081.7261,-3831.4639L14081.7926,-3831.4662L14081.7929,-3831.4662L14081.7929,-3831.4662L14081.7929,-3831.4662L14081.793,-3831.4662L14081.793,-3831.4662L14081.7931,-3831.4662L14081.7931,-3831.4662L14081.7933,-3831.4662L14081.7954,-3831.4663L14081.7955,-3831.4663L14081.7955,-3831.4663L14081.7956,-3831.4663L14081.843,-3831.468L14081.8975,-3831.4721L14081.9546,-3831.4782L14081.9546,-3831.4782L14081.9546,-3831.4782L14081.9547,-3831.4782L14081.9547,-3831.4782L14081.984,-3831.4819L14081.984,-3831.4819L14081.984,-3831.4819L14081.984,-3831.4819L14081.984,-3831.4819L14081.984,-3831.4819"/>
<path content="1,東日本急行（株）,一ノ関～仙台線,19.0,19.0,19.0," xlink:title="1" d="M14081.7261,-3831.4639L14081.7926,-3831.4662L14081.7929,-3831.4662L14081.7929,-3831.4662L14081.7929,-3831.4662L14081.793,-3831.4662L14081.793,-3831.4662L14081.7931,-3831.4662L14081.7931,-3831.4662L14081.7933,-3831.4662L14081.7954,-3831.4663L14081.7955,-3831.4663L14081.7955,-3831.4663L14081.7956,-3831.4663L14081.843,-3831.468L14081.8975,-3831.4721L14081.9546,-3831.4782L14081.984,-3831.4819L14081.984,-3831.4819L14081.984,-3831.4819L14081.984,-3831.4819L14081.984,-3831.4819L14081.984,-3831.4819"/>
<path content="1,東日本急行（株）,仙台～盛岡線,16.0,20.0,20.0," xlink:title="1" d="M14081.984,-3831.4819L14081.984,-3831.4819L14081.984,-3831.4819L14081.984,-3831.4819L14081.984,-3831.4819L14081.984,-3831.4819L14081.9546,-3831.4782L14081.8975,-3831.4721L14081.843,-3831.468L14081.7956,-3831.4663L14081.7955,-3831.4663L14081.7955,-3831.4663L14081.7954,-3831.4663L14081.7933,-3831.4662L14081.7931,-3831.4662L14081.7931,-3831.4662L14081.793,-3831.4662L14081.793,-3831.4662L14081.7929,-3831.4662L14081.7929,-3831.4662L14081.7929,-3831.4662L14081.7926,-3831.4662L14081.7261,-3831.4639"/>
<path content="1,東日本急行（株）,佐野・平泉駅前・中尊寺～仙台線,1.1,1.1,1.1," xlink:title="1" d="M14081.7261,-3831.4639L14081.7926,-3831.4662L14081.7929,-3831.4662L14081.7929,-3831.4662L14081.7929,-3831.4662L14081.793,-3831.4662L14081.793,-3831.4662L14081.7931,-3831.4662L14081.7931,-3831.4662L14081.7933,-3831.4662L14081.7954,-3831.4663L14081.7955,-3831.4663L14081.7955,-3831.4663L14081.7956,-3831.4663L14081.843,-3831.468L14081.8975,-3831.4721L14081.9546,-3831.4782L14081.984,-3831.4819L14081.984,-3831.4819L14081.984,-3831.4819L14081.984,-3831.4819L14081.984,-3831.4819L14081.984,-3831.4819"/>
<path content="1,東日本急行（株）,登米（迫）～若柳～仙台線,8.0,8.0,8.0," xlink:title="1" d="M14081.7261,-3831.4639L14081.7926,-3831.4662L14081.7929,-3831.4662L14081.7929,-3831.4662L14081.7929,-3831.4662L14081.793,-3831.4662L14081.793,-3831.4662L14081.7931,-3831.4662L14081.7931,-3831.4662L14081.7933,-3831.4662L14081.7954,-3831.4663L14081.7955,-3831.4663L14081.7955,-3831.4663L14081.7956,-3831.4663L14081.843,-3831.468L14081.8975,-3831.4721L14081.9438,-3831.477L14081.9546,-3831.4782L14081.9546,-3831.4782L14081.9546,-3831.4782L14081.9546,-3831.4782L14081.9547,-3831.4782L14081.9547,-3831.4782L14081.984,-3831.4819L14081.984,-3831.4819L14081.984,-3831.4819L14081.984,-3831.4819L14081.984,-3831.4819L14081.984,-3831.4819"/>
<path content="1,江ノ電バス藤沢,レイク＆ポート号,1.0,1.0,1.0," xlink:title="1" d="M14081.7261,-3831.4639L14081.7926,-3831.4662L14081.7929,-3831.4662L14081.7929,-3831.4662L14081.7929,-3831.4662L14081.793,-3831.4662L14081.793,-3831.4662L14081.7931,-3831.4662L14081.7931,-3831.4662L14081.7933,-3831.4662L14081.7954,-3831.4663L14081.7955,-3831.4663L14081.7955,-3831.4663L14081.7956,-3831.4663L14081.843,-3831.468L14081.8975,-3831.4721L14081.9546,-3831.4782L14081.984,-3831.4819L14081.984,-3831.4819L14081.984,-3831.4819L14081.984,-3831.4819L14081.984,-3831.4819L14081.984,-3831.4819"/>
<path content="1,秋北バス（株）,ジュピター号,1.0,1.0,1.0," xlink:title="1" d="M14081.7261,-3831.4639L14081.7926,-3831.4662L14081.7929,-3831.4662L14081.7929,-3831.4662L14081.7929,-3831.4662L14081.793,-3831.4662L14081.793,-3831.4662L14081.7931,-3831.4662L14081.7931,-3831.4662L14081.7933,-3831.4662L14081.7954,-3831.4663L14081.7955,-3831.4663L14081.7955,-3831.4663L14081.7956,-3831.4663L14081.843,-3831.468L14081.8975,-3831.4721L14081.9546,-3831.4782L14081.984,-3831.4819L14081.984,-3831.4819L14081.984,-3831.4819L14081.984,-3831.4819L14081.984,-3831.4819L14081.984,-3831.4819"/>
<path content="1,秋北バス（株）,二ツ井・能代～仙台線,1.0,1.0,1.0," xlink:title="1" d="M14081.7261,-3831.4639L14081.7926,-3831.4662L14081.7929,-3831.4662L14081.7929,-3831.4662L14081.7929,-3831.4662L14081.793,-3831.4662L14081.793,-3831.4662L14081.7931,-3831.4662L14081.7931,-3831.4662L14081.7933,-3831.4662L14081.7954,-3831.4663L14081.7955,-3831.4663L14081.7955,-3831.4663L14081.7956,-3831.4663L14081.843,-3831.468L14081.8975,-3831.4721L14081.9546,-3831.4782L14081.984,-3831.4819L14081.984,-3831.4819L14081.984,-3831.4819L14081.984,-3831.4819L14081.984,-3831.4819L14081.984,-3831.4819"/>
<path content="1,秋北バス（株）,大館・鹿角～仙台線,3.0,3.0,3.0," xlink:title="1" d="M14081.7261,-3831.4639L14081.7926,-3831.4662L14081.7929,-3831.4662L14081.7929,-3831.4662L14081.7929,-3831.4662L14081.793,-3831.4662L14081.793,-3831.4662L14081.7931,-3831.4662L14081.7931,-3831.4662L14081.7933,-3831.4662L14081.7954,-3831.4663L14081.7955,-3831.4663L14081.7955,-3831.4663L14081.7956,-3831.4663L14081.843,-3831.468L14081.8975,-3831.4721L14081.9546,-3831.4782L14081.984,-3831.4819L14081.984,-3831.4819L14081.984,-3831.4819L14081.984,-3831.4819L14081.984,-3831.4819L14081.984,-3831.4819"/>
<path content="1,秋田中央交通（株）,フローラ号,1.0,1.0,1.0," xlink:title="1" d="M14081.984,-3831.4819L14081.984,-3831.4819L14081.984,-3831.4819L14081.984,-3831.4819L14081.984,-3831.4819L14081.984,-3831.4819L14081.9546,-3831.4782L14081.8975,-3831.4721L14081.843,-3831.468L14081.7956,-3831.4663L14081.7955,-3831.4663L14081.7955,-3831.4663L14081.7954,-3831.4663L14081.7933,-3831.4662L14081.7931,-3831.4662L14081.7931,-3831.4662L14081.793,-3831.4662L14081.793,-3831.4662L14081.7929,-3831.4662L14081.7929,-3831.4662L14081.7929,-3831.4662L14081.7926,-3831.4662L14081.7261,-3831.4639"/>
<path content="1,秋田中央交通（株）,仙秋号,4.0,4.0,4.0," xlink:title="1" d="M14081.984,-3831.4819L14081.984,-3831.4819L14081.984,-3831.4819L14081.984,-3831.4819L14081.984,-3831.4819L14081.984,-3831.4819L14081.9546,-3831.4782L14081.8975,-3831.4721L14081.843,-3831.468L14081.7956,-3831.4663L14081.7955,-3831.4663L14081.7955,-3831.4663L14081.7954,-3831.4663L14081.7933,-3831.4662L14081.7931,-3831.4662L14081.7931,-3831.4662L14081.793,-3831.4662L14081.793,-3831.4662L14081.7929,-3831.4662L14081.7929,-3831.4662L14081.7929,-3831.4662L14081.7926,-3831.4662L14081.7261,-3831.4639"/>
<path content="1,羽後交通（株）,グリーンライナー号,4.0,4.0,4.0," xlink:title="1" d="M14081.7261,-3831.4639L14081.7926,-3831.4662L14081.7929,-3831.4662L14081.7929,-3831.4662L14081.7929,-3831.4662L14081.793,-3831.4662L14081.793,-3831.4662L14081.7931,-3831.4662L14081.7931,-3831.4662L14081.7933,-3831.4662L14081.7954,-3831.4663L14081.7955,-3831.4663L14081.7955,-3831.4663L14081.7956,-3831.4663L14081.843,-3831.468L14081.8975,-3831.4721L14081.9546,-3831.4782L14081.984,-3831.4819L14081.984,-3831.4819L14081.984,-3831.4819L14081.984,-3831.4819L14081.984,-3831.4819L14081.984,-3831.4819"/>
<path content="1,羽後交通（株）,レーク＆ポート号,1.0,1.0,1.0," xlink:title="1" d="M14081.984,-3831.4819L14081.984,-3831.4819L14081.984,-3831.4819L14081.984,-3831.4819L14081.984,-3831.4819L14081.984,-3831.4819L14081.9546,-3831.4782L14081.8975,-3831.4721L14081.843,-3831.468L14081.7956,-3831.4663L14081.7955,-3831.4663L14081.7955,-3831.4663L14081.7954,-3831.4663L14081.7933,-3831.4662L14081.7931,-3831.4662L14081.7931,-3831.4662L14081.793,-3831.4662L14081.793,-3831.4662L14081.7929,-3831.4662L14081.7929,-3831.4662L14081.7929,-3831.4662L14081.7926,-3831.4662L14081.7261,-3831.4639"/>
<path content="2,仙台市,22,1.5,0.0,0.0," xlink:title="2" d="M14082.2754,-3831.1368L14082.2527,-3831.141L14082.2223,-3831.1449L14082.1917,-3831.148L14082.1558,-3831.1511L14082.1073,-3831.155L14082.1137,-3831.1922L14082.1142,-3831.2027L14082.1153,-3831.2277L14082.1159,-3831.2449L14082.1137,-3831.2643L14082.1108,-3831.293L14082.1058,-3831.3268L14082.1001,-3831.3589L14082.0922,-3831.3904L14082.0852,-3831.4159L14082.075,-3831.4445L14082.0658,-3831.4738L14082.0631,-3831.4819"/>
<path content="2,仙台市,28,3.5,0.0,0.0," xlink:title="2" d="M14082.0631,-3831.4819L14082.0658,-3831.4738L14082.075,-3831.4445L14082.0852,-3831.4159L14082.0922,-3831.3904L14082.1001,-3831.3589L14082.1058,-3831.3268L14082.1108,-3831.293L14082.1137,-3831.2643L14082.1159,-3831.2449L14082.1153,-3831.2277L14082.1142,-3831.2027L14082.1137,-3831.1922L14082.1073,-3831.155L14082.1558,-3831.1511L14082.1917,-3831.148L14082.2223,-3831.1449L14082.2527,-3831.141L14082.2754,-3831.1368"/>
<path content="2,仙台市,35,5.5,4.0,3.0," xlink:title="2" d="M14082.2754,-3831.1368L14082.2527,-3831.141L14082.2223,-3831.1449L14082.1917,-3831.148L14082.1558,-3831.1511L14082.1073,-3831.155L14082.1137,-3831.1922L14082.1142,-3831.2027L14082.1153,-3831.2277L14082.1159,-3831.2449L14082.1137,-3831.2643L14082.1108,-3831.293L14082.1058,-3831.3268L14082.1001,-3831.3589L14082.0922,-3831.3904L14082.0852,-3831.4159L14082.075,-3831.4445L14082.0658,-3831.4738L14082.0631,-3831.4819"/>
<path content="2,仙台市,785,2.0,0.0,0.0," xlink:title="2" d="M14082.0631,-3831.4819L14082.0658,-3831.4738L14082.075,-3831.4445L14082.0852,-3831.4159L14082.0922,-3831.3904L14082.1001,-3831.3589L14082.1058,-3831.3268L14082.1108,-3831.293L14082.1137,-3831.2643L14082.1159,-3831.2449L14082.1153,-3831.2277L14082.1142,-3831.2027L14082.1137,-3831.1922L14082.1073,-3831.155L14082.1558,-3831.1511L14082.1917,-3831.148L14082.2223,-3831.1449L14082.2527,-3831.141L14082.2754,-3831.1368"/>
<path content="2,仙台市,815,37.5,28.5,28.0," xlink:title="2" d="M14082.2754,-3831.1368L14082.2527,-3831.141L14082.2223,-3831.1449L14082.1917,-3831.148L14082.1558,-3831.1511L14082.1073,-3831.155L14082.1137,-3831.1922L14082.1142,-3831.2027L14082.1153,-3831.2277L14082.1159,-3831.2449L14082.1137,-3831.2643L14082.1108,-3831.293L14082.1058,-3831.3268L14082.1001,-3831.3589L14082.0922,-3831.3904L14082.0852,-3831.4159L14082.075,-3831.4445L14082.0658,-3831.4738L14082.0631,-3831.4819"/>
<path content="2,仙台市,817,2.5,0.0,0.0," xlink:title="2" d="M14082.2754,-3831.1368L14082.2527,-3831.141L14082.2223,-3831.1449L14082.1917,-3831.148L14082.1558,-3831.1511L14082.1073,-3831.155L14082.1137,-3831.1922L14082.1142,-3831.2027L14082.1153,-3831.2277L14082.1159,-3831.2449L14082.1137,-3831.2643L14082.1108,-3831.293L14082.1058,-3831.3268L14082.1001,-3831.3589L14082.0922,-3831.3904L14082.0852,-3831.4159L14082.075,-3831.4445L14082.0658,-3831.4738L14082.0631,-3831.4819"/>
<path content="2,仙台市,902,1.0,0.0,0.0," xlink:title="2" d="M14082.2754,-3831.1368L14082.2527,-3831.141L14082.2223,-3831.1449L14082.1917,-3831.148L14082.1558,-3831.1511L14082.1073,-3831.155L14082.1137,-3831.1922L14082.1142,-3831.2027L14082.1153,-3831.2277L14082.1159,-3831.2449L14082.1137,-3831.2643L14082.1108,-3831.293L14082.1058,-3831.3268L14082.1001,-3831.3589L14082.0922,-3831.3904L14082.0852,-3831.4159L14082.075,-3831.4445L14082.0658,-3831.4738L14082.0631,-3831.4819"/>
<path content="2,仙台市,905,35.0,17.0,16.0," xlink:title="2" d="M14082.2754,-3831.1368L14082.2527,-3831.141L14082.2223,-3831.1449L14082.1917,-3831.148L14082.1558,-3831.1511L14082.1073,-3831.155L14082.1137,-3831.1922L14082.1142,-3831.2027L14082.1153,-3831.2277L14082.1159,-3831.2449L14082.1137,-3831.2643L14082.1108,-3831.293L14082.1058,-3831.3268L14082.1001,-3831.3589L14082.0922,-3831.3904L14082.0852,-3831.4159L14082.075,-3831.4445L14082.0658,-3831.4738L14082.0631,-3831.4819"/>
<path content="2,仙台市,906,6.0,0.0,0.0," xlink:title="2" d="M14082.2754,-3831.1368L14082.2527,-3831.141L14082.2223,-3831.1449L14082.1917,-3831.148L14082.1558,-3831.1511L14082.1073,-3831.155L14082.1137,-3831.1922L14082.1142,-3831.2027L14082.1153,-3831.2277L14082.1159,-3831.2449L14082.1137,-3831.2643L14082.1108,-3831.293L14082.1058,-3831.3268L14082.1001,-3831.3589L14082.0922,-3831.3904L14082.0852,-3831.4159L14082.075,-3831.4445L14082.0658,-3831.4738L14082.0631,-3831.4819"/>
<path content="2,仙台市,911,4.5,0.0,0.0," xlink:title="2" d="M14081.7261,-3831.1521L14081.8672,-3831.16L14081.9073,-3831.1611L14081.9801,-3831.1612L14082.024,-3831.1598L14082.0774,-3831.1569L14082.1073,-3831.155L14082.1137,-3831.1922L14082.1142,-3831.2027L14082.1153,-3831.2277L14082.1159,-3831.2449L14082.1137,-3831.2643L14082.1108,-3831.293L14082.1058,-3831.3268L14082.1001,-3831.3589L14082.0922,-3831.3904L14082.0852,-3831.4159L14082.075,-3831.4445L14082.0658,-3831.4738L14082.0631,-3831.4819"/>
<path content="2,仙台市,917,30.5,22.0,21.0," xlink:title="2" d="M14082.2754,-3831.1368L14082.2527,-3831.141L14082.2223,-3831.1449L14082.1917,-3831.148L14082.1558,-3831.1511L14082.1073,-3831.155L14082.1137,-3831.1922L14082.1142,-3831.2027L14082.1153,-3831.2277L14082.1159,-3831.2449L14082.1137,-3831.2643L14082.1108,-3831.293L14082.1058,-3831.3268L14082.1001,-3831.3589L14082.0922,-3831.3904L14082.0852,-3831.4159L14082.075,-3831.4445L14082.0658,-3831.4738L14082.0631,-3831.4819"/>
</g>
</svg>
