<?xml version="1.0" encoding="UTF-8"?>
<svg  xmlns="http://www.w3.org/2000/svg" xmlns:xlink="http://www.w3.org/1999/xlink" xmlns:go="http://purl.org/svgmap/profile" property="N07_001,N07_002,N07_003,N07_004,N07_005,N07_006,N07_007" viewBox="13702.1484375 -3502.44140625 4.39453125 4.39453125" go:dataArea="13702.1484375 -3502.44140625 4.39453125 4.39453125" >
<metadata>
 <rdf:RDF xmlns:rdf="http://www.w3.org/1999/02/22-rdf-syntax-ns#" xmlns:crs="http://opengis.org/xmldtds/transformations.dtd" xmlns:svg="http://www.w3.org/svg" >
  <rdf:Description>
   <crs:CoordinateReferenceSystem rdf:resource="http://purl.org/crs/84" svg:transform="matrix(100.0,0.0,0.0,-100.0,0.0,0.0)" />
  </rdf:Description>
 </rdf:RDF>
</metadata>
<globalCoordinateSystem srsName="http://purl.org/crs/84" transform="matrix(100.0,0.0,0.0,-100.0,0.0,0.0)" />
<defs>
 <g id="p0" >
  <circle cx="0.0" cy="0.0" r="3" stroke="green" stroke-width="0.75" vector-effect="non-scaling-stroke" />
 </g>
</defs>
<g fill="none" fill-rule="evenodd" stroke="#FF00FF" stroke-width="0.75" opacity="0.5" vector-effect="non-scaling-stroke" stroke-linejoin="bevel" >
<path content="1,JRバス関東（株）,新宿ドリーム三河・なごや号,1.0,1.0,1.0," xlink:title="1" d="M13706.543,-3499.8183L13706.5212,-3499.8273L13706.4712,-3499.8485L13706.4452,-3499.8619L13706.4313,-3499.8691L13706.4182,-3499.8751L13706.39,-3499.8879L13706.3562,-3499.9032L13706.3434,-3499.91L13706.3348,-3499.9146L13706.2758,-3499.9407L13706.2593,-3499.9493L13706.2506,-3499.9538L13706.179,-3499.9864L13706.1651,-3499.9931L13706.1425,-3500.0041L13706.0744,-3500.0355L13706.007,-3500.0667L13705.9164,-3500.1084L13705.912,-3500.1104L13705.8925,-3500.1197L13705.8911,-3500.1203L13705.8647,-3500.1323L13705.8229,-3500.1524L13705.788,-3500.1692L13705.76,-3500.1836L13705.7316,-3500.1966L13705.6971,-3500.2127L13705.6301,-3500.2463L13705.5534,-3500.2859L13705.5398,-3500.2936L13705.4975,-3500.3157L13705.481,-3500.3251L13705.4507,-3500.3443L13705.4449,-3500.3482L13705.4361,-3500.3541L13705.3763,-3500.4001L13705.3433,-3500.429L13705.3346,-3500.4404L13705.3223,-3500.4551L13705.3021,-3500.4815L13705.2787,-3500.5155L13705.2605,-3500.5427L13705.2373,-3500.5761L13705.2135,-3500.6059L13705.1912,-3500.6324L13705.1636,-3500.6647L13705.1484,-3500.6826L13705.0995,-3500.7388L13705.0441,-3500.7948L13705.0264,-3500.813L13705.0165,-3500.8226L13704.943,-3500.8807L13704.8791,-3500.9288L13704.8173,-3500.9712L13704.7548,-3501.0099L13704.6808,-3501.0525L13704.6387,-3501.076L13704.5479,-3501.1243L13704.5251,-3501.1356L13704.509,-3501.1446L13704.5009,-3501.1496L13704.4916,-3501.1535L13704.3392,-3501.2343L13704.3025,-3501.2536L13704.2987,-3501.2556L13704.2808,-3501.2656L13704.2785,-3501.2669L13704.2647,-3501.2746L13704.2599,-3501.2773L13704.1695,-3501.3264L13704.1499,-3501.3372L13704.1041,-3501.3624L13704.0653,-3501.3827L13704.0167,-3501.4089L13703.9153,-3501.4634L13703.9109,-3501.4666L13703.9058,-3501.4693L13703.8583,-3501.4945L13703.8522,-3501.4977L13703.8473,-3501.4999L13703.8431,-3501.503L13703.7926,-3501.5309L13703.7634,-3501.5469L13703.7136,-3501.5735L13703.6898,-3501.5936L13703.675,-3501.6037L13703.6535,-3501.6195L13703.6425,-3501.6282L13703.6152,-3501.6514L13703.5936,-3501.6712L13703.5703,-3501.6948L13703.5532,-3501.7137L13703.5088,-3501.7581L13703.5041,-3501.7636L13703.4773,-3501.791L13703.4314,-3501.8395L13703.3753,-3501.8998L13703.3681,-3501.9067L13703.3677,-3501.9071L13703.3573,-3501.9183L13703.3509,-3501.9267L13703.2436,-3502.0418L13703.2334,-3502.0483L13703.2147,-3502.0587L13703.0806,-3502.1467L13702.9987,-3502.1982L13702.9703,-3502.2193L13702.9603,-3502.225L13702.8201,-3502.3177L13702.8041,-3502.3254L13702.7912,-3502.3322L13702.7097,-3502.3881L13702.6324,-3502.4404L13702.6308,-3502.4414"/>
<path content="1,JRバス関東（株）,新宿ライナー三河・なごや号,1.0,1.0,1.0," xlink:title="1" d="M13706.543,-3499.8183L13706.5212,-3499.8273L13706.4712,-3499.8485L13706.4452,-3499.8619L13706.4313,-3499.8691L13706.4182,-3499.8751L13706.39,-3499.8879L13706.3562,-3499.9032L13706.3434,-3499.91L13706.3348,-3499.9146L13706.2758,-3499.9407L13706.2593,-3499.9493L13706.2506,-3499.9538L13706.179,-3499.9864L13706.1651,-3499.9931L13706.1425,-3500.0041L13706.0744,-3500.0355L13706.007,-3500.0667L13705.9164,-3500.1084L13705.912,-3500.1104L13705.8925,-3500.1197L13705.8911,-3500.1203L13705.8647,-3500.1323L13705.8229,-3500.1524L13705.788,-3500.1692L13705.76,-3500.1836L13705.7316,-3500.1966L13705.6971,-3500.2127L13705.6301,-3500.2463L13705.5534,-3500.2859L13705.5398,-3500.2936L13705.4975,-3500.3157L13705.481,-3500.3251L13705.4507,-3500.3443L13705.4449,-3500.3482L13705.4361,-3500.3541L13705.3763,-3500.4001L13705.3433,-3500.429L13705.3346,-3500.4404L13705.3223,-3500.4551L13705.3021,-3500.4815L13705.2787,-3500.5155L13705.2605,-3500.5427L13705.2373,-3500.5761L13705.2135,-3500.6059L13705.1912,-3500.6324L13705.1636,-3500.6647L13705.1484,-3500.6826L13705.0995,-3500.7388L13705.0441,-3500.7948L13705.0264,-3500.813L13705.0165,-3500.8226L13704.943,-3500.8807L13704.8791,-3500.9288L13704.8173,-3500.9712L13704.7548,-3501.0099L13704.6808,-3501.0525L13704.6387,-3501.076L13704.5479,-3501.1243L13704.5251,-3501.1356L13704.509,-3501.1446L13704.5009,-3501.1496L13704.4916,-3501.1535L13704.3392,-3501.2343L13704.3025,-3501.2536L13704.2987,-3501.2556L13704.2808,-3501.2656L13704.2785,-3501.2669L13704.2647,-3501.2746L13704.2599,-3501.2773L13704.1695,-3501.3264L13704.1499,-3501.3372L13704.1041,-3501.3624L13704.0653,-3501.3827L13704.0167,-3501.4089L13703.9153,-3501.4634L13703.9109,-3501.4666L13703.9058,-3501.4693L13703.8583,-3501.4945L13703.8522,-3501.4977L13703.8473,-3501.4999L13703.8431,-3501.503L13703.7926,-3501.5309L13703.7634,-3501.5469L13703.7136,-3501.5735L13703.6898,-3501.5936L13703.675,-3501.6037L13703.6535,-3501.6195L13703.6425,-3501.6282L13703.6152,-3501.6514L13703.5936,-3501.6712L13703.5703,-3501.6948L13703.5532,-3501.7137L13703.5088,-3501.7581L13703.5041,-3501.7636L13703.4773,-3501.791L13703.4314,-3501.8395L13703.3753,-3501.8998L13703.3681,-3501.9067L13703.3677,-3501.9071L13703.3573,-3501.9183L13703.3509,-3501.9267L13703.2436,-3502.0418L13703.2334,-3502.0483L13703.2147,-3502.0587L13703.0806,-3502.1467L13702.9987,-3502.1982L13702.9703,-3502.2193L13702.9603,-3502.225L13702.8201,-3502.3177L13702.8041,-3502.3254L13702.7912,-3502.3322L13702.7097,-3502.3881L13702.6324,-3502.4404L13702.6308,-3502.4414"/>
<path content="1,JRバス関東（株）,知多シーガール号,2.0,2.0,2.0," xlink:title="1" d="M13703.8901,-3501.0177L13703.8275,-3500.9799L13703.7804,-3500.9493L13703.7259,-3500.915L13703.7202,-3500.9114L13703.6546,-3500.8696L13703.5989,-3500.8338L13703.5587,-3500.8077L13703.5225,-3500.7846L13703.4552,-3500.7419L13703.4436,-3500.7354L13703.4312,-3500.7273L13703.4286,-3500.7257L13703.3895,-3500.7025L13703.2879,-3500.6373L13703.193,-3500.578L13703.1026,-3500.5206L13703.0691,-3500.5003L13703.0397,-3500.4826L13703.0221,-3500.4681L13703.0061,-3500.4468L13702.9182,-3500.4088L13702.8924,-3500.3978L13702.8479,-3500.3797L13702.7709,-3500.3487L13702.7571,-3500.3431L13702.7497,-3500.3406L13702.7272,-3500.3327L13702.7183,-3500.3251L13702.6703,-3500.302L13702.634,-3500.2862L13702.5766,-3500.2626L13702.5736,-3500.2615L13702.5493,-3500.2524L13702.5034,-3500.2338L13702.4665,-3500.2197L13702.4229,-3500.2011L13702.3899,-3500.1871L13702.3427,-3500.1662L13702.3345,-3500.1634L13702.303,-3500.1499L13702.2594,-3500.1313L13702.2433,-3500.1245L13702.2286,-3500.1175L13702.1967,-3500.1012L13702.1784,-3500.0921L13702.1553,-3500.0805L13702.1498,-3500.0778L13702.1484,-3500.077"/>
<path content="1,JRバス関東（株）,知多シーガール号,2.0,2.0,2.0," xlink:title="1" d="M13703.8901,-3501.0177L13703.9174,-3500.9791L13703.9228,-3500.9718L13703.9488,-3500.9464L13703.981,-3500.9121L13703.994,-3500.8997L13704.0132,-3500.8817L13704.0269,-3500.8693L13704.0419,-3500.8546L13704.0814,-3500.8175L13704.0855,-3500.8136L13704.1077,-3500.7916L13704.1282,-3500.7763L13704.1734,-3500.7499L13704.1796,-3500.7583L13704.1931,-3500.7808"/>
<path content="1,JRバス関東（株）,知多シーガール号,2.0,2.0,2.0," xlink:title="1" d="M13706.543,-3499.8183L13706.5212,-3499.8273L13706.4712,-3499.8485L13706.4452,-3499.8619L13706.4313,-3499.8691L13706.4182,-3499.8751L13706.39,-3499.8879L13706.3562,-3499.9032L13706.3434,-3499.91L13706.3348,-3499.9146L13706.2758,-3499.9407L13706.2593,-3499.9493L13706.2506,-3499.9538L13706.179,-3499.9864L13706.1651,-3499.9931L13706.1425,-3500.0041L13706.0744,-3500.0355L13706.007,-3500.0667L13705.9164,-3500.1084L13705.912,-3500.1104L13705.8925,-3500.1197L13705.8911,-3500.1203L13705.8647,-3500.1323L13705.8229,-3500.1524L13705.788,-3500.1692L13705.76,-3500.1836L13705.7316,-3500.1966L13705.6971,-3500.2127L13705.6301,-3500.2463L13705.5534,-3500.2859L13705.5398,-3500.2936L13705.4975,-3500.3157L13705.481,-3500.3251L13705.4507,-3500.3443L13705.4449,-3500.3482L13705.4361,-3500.3541L13705.3763,-3500.4001L13705.3433,-3500.429L13705.3346,-3500.4404L13705.3223,-3500.4551L13705.3021,-3500.4815L13705.2787,-3500.5155L13705.2605,-3500.5427L13705.2373,-3500.5761L13705.2135,-3500.6059L13705.1912,-3500.6324L13705.1636,-3500.6647L13705.1484,-3500.6826L13705.0995,-3500.7388L13705.0441,-3500.7948L13705.0264,-3500.813L13705.0165,-3500.8226L13704.943,-3500.8807L13704.8791,-3500.9288L13704.8173,-3500.9712L13704.7548,-3501.0099L13704.6808,-3501.0525L13704.6387,-3501.076L13704.5479,-3501.1243L13704.5251,-3501.1356L13704.509,-3501.1446L13704.5009,-3501.1496L13704.4916,-3501.1535L13704.3392,-3501.2343L13704.3025,-3501.2536L13704.2987,-3501.2556L13704.2808,-3501.2656L13704.2785,-3501.2669L13704.2004,-3501.2183L13704.1601,-3501.1919L13704.1096,-3501.1586L13704.0484,-3501.1185L13704.0085,-3501.0928L13703.9726,-3501.0699L13703.9256,-3501.0393L13703.9125,-3501.0307L13703.894,-3501.0194L13703.8901,-3501.0177"/>
<path content="1,JR東海バス（株）,新宿ドリーム三河・なごや号,1.0,1.0,1.0," xlink:title="1" d="M13702.6308,-3502.4414L13702.6324,-3502.4404L13702.7097,-3502.3881L13702.7912,-3502.3322L13702.8041,-3502.3254L13702.8201,-3502.3177L13702.9603,-3502.225L13702.9703,-3502.2193L13702.9987,-3502.1982L13703.0806,-3502.1467L13703.2147,-3502.0587L13703.2334,-3502.0483L13703.2436,-3502.0418L13703.3509,-3501.9267L13703.3573,-3501.9183L13703.3677,-3501.9071L13703.3681,-3501.9067L13703.3753,-3501.8998L13703.4314,-3501.8395L13703.4773,-3501.791L13703.5041,-3501.7636L13703.5088,-3501.7581L13703.5532,-3501.7137L13703.5703,-3501.6948L13703.5936,-3501.6712L13703.6152,-3501.6514L13703.6425,-3501.6282L13703.6535,-3501.6195L13703.675,-3501.6037L13703.6898,-3501.5936L13703.7136,-3501.5735L13703.7634,-3501.5469L13703.7926,-3501.5309L13703.8431,-3501.503L13703.8473,-3501.4999L13703.8523,-3501.4977L13703.8583,-3501.4945L13703.9058,-3501.4693L13703.9109,-3501.4666L13703.9153,-3501.4634L13704.0167,-3501.4089L13704.0653,-3501.3827L13704.1041,-3501.3624L13704.1499,-3501.3372L13704.1695,-3501.3264L13704.2599,-3501.2773L13704.2648,-3501.2746L13704.2785,-3501.2669L13704.2808,-3501.2656L13704.2987,-3501.2556L13704.3025,-3501.2536L13704.3392,-3501.2343L13704.4916,-3501.1535L13704.5009,-3501.1496L13704.509,-3501.1446L13704.5251,-3501.1356L13704.5479,-3501.1243L13704.6387,-3501.076L13704.6808,-3501.0525L13704.7548,-3501.0099L13704.7727,-3500.9988L13704.8173,-3500.9712L13704.8791,-3500.9288L13704.943,-3500.8807L13705.0165,-3500.8226L13705.0264,-3500.813L13705.0441,-3500.7948L13705.0995,-3500.7388L13705.1484,-3500.6826L13705.1636,-3500.6647L13705.1912,-3500.6324L13705.2135,-3500.6059L13705.2373,-3500.5761L13705.2605,-3500.5427L13705.2787,-3500.5155L13705.289,-3500.4999L13705.3021,-3500.4815L13705.3223,-3500.4551L13705.3346,-3500.4404L13705.3433,-3500.429L13705.3763,-3500.4001L13705.4138,-3500.3707L13705.4361,-3500.3541L13705.4449,-3500.3482L13705.4508,-3500.3443L13705.481,-3500.3251L13705.4975,-3500.3157L13705.5398,-3500.2936L13705.5534,-3500.2859L13705.6301,-3500.2463L13705.6971,-3500.2127L13705.7316,-3500.1966L13705.76,-3500.1836L13705.788,-3500.1692L13705.8229,-3500.1524L13705.8647,-3500.1323L13705.8911,-3500.1203L13705.8899,-3500.1188L13705.8877,-3500.1161L13705.8501,-3500.0703L13705.8346,-3500.0514L13705.8223,-3500.0355L13705.8221,-3500.0353L13705.816,-3500.0274L13705.7964,-3500.002L13705.7963,-3500.0019L13705.7644,-3499.9605L13705.764,-3499.96L13705.7334,-3499.9203L13705.7322,-3499.9188L13705.7116,-3499.8922L13705.7003,-3499.8779L13705.6642,-3499.8326L13705.6086,-3499.7625L13705.6005,-3499.7524L13705.5459,-3499.6844L13705.5486,-3499.6793L13705.5756,-3499.6278L13705.592,-3499.6007L13705.6016,-3499.5816L13705.6036,-3499.5782L13705.6334,-3499.5283L13705.6557,-3499.4888L13705.711,-3499.39L13705.7288,-3499.3579L13705.7431,-3499.3309L13705.7657,-3499.2898L13705.7698,-3499.2836L13705.789,-3499.2492L13705.8177,-3499.1962L13705.8293,-3499.1743L13705.8581,-3499.1253L13705.8669,-3499.1123L13705.8806,-3499.0898L13705.8998,-3499.0611L13705.9261,-3499.0243L13705.9511,-3498.9895L13705.9586,-3498.9811L13705.9675,-3498.9715L13705.9743,-3498.9631L13706.0071,-3498.9309L13706.0625,-3498.8859L13706.1008,-3498.8526L13706.1319,-3498.8223L13706.1378,-3498.8166L13706.1583,-3498.7918L13706.2116,-3498.7096L13706.254,-3498.6453L13706.3484,-3498.5028L13706.3712,-3498.4687L13706.3841,-3498.4494L13706.3867,-3498.4454L13706.4298,-3498.38L13706.4338,-3498.3731L13706.4425,-3498.3597L13706.4606,-3498.3316L13706.4613,-3498.3305L13706.4674,-3498.322L13706.5164,-3498.2476L13706.5167,-3498.2471L13706.529,-3498.2302L13706.543,-3498.2129"/>
<path content="1,JR東海バス（株）,新宿ライナー三河・なごや号,1.0,1.0,1.0," xlink:title="1" d="M13706.543,-3498.2129L13706.529,-3498.2302L13706.5167,-3498.2471L13706.5164,-3498.2476L13706.4674,-3498.322L13706.4613,-3498.3305L13706.4606,-3498.3316L13706.4425,-3498.3597L13706.4338,-3498.3731L13706.4298,-3498.38L13706.3867,-3498.4454L13706.3841,-3498.4494L13706.3712,-3498.4687L13706.3484,-3498.5028L13706.254,-3498.6453L13706.2116,-3498.7096L13706.1583,-3498.7918L13706.1378,-3498.8166L13706.1319,-3498.8223L13706.1008,-3498.8526L13706.0625,-3498.8859L13706.0071,-3498.9309L13705.9743,-3498.9631L13705.9675,-3498.9715L13705.9586,-3498.9811L13705.9511,-3498.9895L13705.9261,-3499.0243L13705.8998,-3499.0611L13705.8806,-3499.0898L13705.8669,-3499.1123L13705.8581,-3499.1253L13705.8293,-3499.1743L13705.8177,-3499.1962L13705.789,-3499.2492L13705.7698,-3499.2836L13705.7657,-3499.2898L13705.7431,-3499.3309L13705.7288,-3499.3579L13705.711,-3499.39L13705.6557,-3499.4888L13705.6334,-3499.5283L13705.6036,-3499.5782L13705.6016,-3499.5816L13705.592,-3499.6007L13705.5756,-3499.6278L13705.5486,-3499.6793L13705.5459,-3499.6844L13705.6005,-3499.7524L13705.6086,-3499.7625L13705.6642,-3499.8326L13705.7003,-3499.8779L13705.7116,-3499.8922L13705.7322,-3499.9188L13705.7334,-3499.9203L13705.764,-3499.96L13705.7644,-3499.9605L13705.7963,-3500.0019L13705.7964,-3500.002L13705.816,-3500.0274L13705.8221,-3500.0353L13705.8223,-3500.0355L13705.8346,-3500.0514L13705.8501,-3500.0703L13705.8877,-3500.1161L13705.8899,-3500.1188L13705.8911,-3500.1203L13705.8647,-3500.1323L13705.8229,-3500.1524L13705.788,-3500.1692L13705.76,-3500.1836L13705.7316,-3500.1966L13705.6971,-3500.2127L13705.6301,-3500.2463L13705.5534,-3500.2859L13705.5398,-3500.2936L13705.4975,-3500.3157L13705.481,-3500.3251L13705.4508,-3500.3443L13705.4449,-3500.3482L13705.4361,-3500.3541L13705.4138,-3500.3707L13705.3763,-3500.4001L13705.3433,-3500.429L13705.3346,-3500.4404L13705.3223,-3500.4551L13705.3021,-3500.4815L13705.289,-3500.4999L13705.2787,-3500.5155L13705.2605,-3500.5427L13705.2373,-3500.5761L13705.2135,-3500.6059L13705.1912,-3500.6324L13705.1636,-3500.6647L13705.1484,-3500.6826L13705.0995,-3500.7388L13705.0441,-3500.7948L13705.0264,-3500.813L13705.0165,-3500.8226L13704.943,-3500.8807L13704.8791,-3500.9288L13704.8173,-3500.9712L13704.7727,-3500.9988L13704.7548,-3501.0099L13704.6808,-3501.0525L13704.6387,-3501.076L13704.5479,-3501.1243L13704.5251,-3501.1356L13704.509,-3501.1446L13704.5009,-3501.1496L13704.4916,-3501.1535L13704.3392,-3501.2343L13704.3025,-3501.2536L13704.2987,-3501.2556L13704.2808,-3501.2656L13704.2785,-3501.2669L13704.2648,-3501.2746L13704.2599,-3501.2773L13704.1695,-3501.3264L13704.1499,-3501.3372L13704.1041,-3501.3624L13704.0653,-3501.3827L13704.0167,-3501.4089L13703.9153,-3501.4634L13703.9109,-3501.4666L13703.9058,-3501.4693L13703.8583,-3501.4945L13703.8523,-3501.4977L13703.8473,-3501.4999L13703.8431,-3501.503L13703.7926,-3501.5309L13703.7634,-3501.5469L13703.7136,-3501.5735L13703.6898,-3501.5936L13703.675,-3501.6037L13703.6535,-3501.6195L13703.6425,-3501.6282L13703.6152,-3501.6514L13703.5936,-3501.6712L13703.5703,-3501.6948L13703.5532,-3501.7137L13703.5088,-3501.7581L13703.5041,-3501.7636L13703.4773,-3501.791L13703.4314,-3501.8395L13703.3753,-3501.8998L13703.3681,-3501.9067L13703.3677,-3501.9071L13703.3573,-3501.9183L13703.3509,-3501.9267L13703.2436,-3502.0418L13703.2334,-3502.0483L13703.2147,-3502.0587L13703.0806,-3502.1467L13702.9987,-3502.1982L13702.9703,-3502.2193L13702.9603,-3502.225L13702.8201,-3502.3177L13702.8041,-3502.3254L13702.7912,-3502.3322L13702.7097,-3502.3881L13702.6324,-3502.4404L13702.6308,-3502.4414"/>
<path content="1,名鉄バス（株）,愛教大線_01_on,14.0,13.0,13.0," xlink:title="1" d="M13703.8236,-3502.4414L13703.8215,-3502.4032L13703.8221,-3502.3891L13703.824,-3502.3625L13703.8146,-3502.2849L13703.8043,-3502.2263L13703.8009,-3502.1993L13703.7962,-3502.1739L13703.7925,-3502.1513L13703.785,-3502.1007L13703.779,-3502.0754L13703.7558,-3501.948L13703.7516,-3501.9294L13703.7476,-3501.9047L13703.74,-3501.8664L13703.7379,-3501.8512L13703.7359,-3501.8438L13703.7157,-3501.7324L13703.7113,-3501.7024L13703.6898,-3501.5936L13703.6883,-3501.585L13703.6872,-3501.5805L13703.6883,-3501.5714L13703.6914,-3501.5633L13703.6962,-3501.5554L13703.7065,-3501.5441L13703.7284,-3501.5301L13703.7373,-3501.5228L13703.7461,-3501.5098L13703.7551,-3501.4861L13703.7733,-3501.424L13703.8179,-3501.3002L13703.854,-3501.1422L13703.8732,-3501.0734L13703.8901,-3501.0177L13703.9174,-3500.9791L13703.9228,-3500.9718L13703.9488,-3500.9464L13703.981,-3500.9121L13703.994,-3500.8997L13704.0132,-3500.8817L13704.0269,-3500.8693L13704.0419,-3500.8546L13704.0814,-3500.8175L13704.0855,-3500.8136L13704.1077,-3500.7916L13704.1282,-3500.7763L13704.1734,-3500.7499L13704.1659,-3500.7352L13704.1624,-3500.7251L13704.1515,-3500.6873L13704.1478,-3500.6746L13704.1421,-3500.6542L13704.1293,-3500.6176L13704.1221,-3500.595L13704.12,-3500.5927L13704.1084,-3500.5826L13704.0697,-3500.616"/>
<path content="1,名鉄バス（株）,愛教大線_02_on,14.0,13.0,13.0," xlink:title="1" d="M13703.8236,-3502.4414L13703.8215,-3502.4032L13703.8221,-3502.3891L13703.824,-3502.3625L13703.8146,-3502.2849L13703.8043,-3502.2263L13703.8009,-3502.1993L13703.7962,-3502.1739L13703.7925,-3502.1513L13703.785,-3502.1007L13703.779,-3502.0754L13703.7558,-3501.948L13703.7516,-3501.9294L13703.7476,-3501.9047L13703.74,-3501.8664L13703.7379,-3501.8512L13703.7359,-3501.8438L13703.7157,-3501.7324L13703.7113,-3501.7024L13703.6898,-3501.5936L13703.6883,-3501.585L13703.6872,-3501.5805L13703.6883,-3501.5714L13703.6914,-3501.5633L13703.6962,-3501.5554L13703.7065,-3501.5441L13703.7284,-3501.5301L13703.7373,-3501.5228L13703.7461,-3501.5098L13703.7551,-3501.4861L13703.7733,-3501.424L13703.8179,-3501.3002L13703.854,-3501.1422L13703.8732,-3501.0734L13703.8901,-3501.0177L13703.9174,-3500.9791L13703.9228,-3500.9718L13703.9488,-3500.9464L13703.981,-3500.9121L13703.994,-3500.8997L13704.0132,-3500.8817L13704.0269,-3500.8693L13704.0419,-3500.8546L13704.0814,-3500.8175L13704.0855,-3500.8136L13704.1077,-3500.7916L13704.1282,-3500.7763L13704.1734,-3500.7499L13704.1659,-3500.7352L13704.1624,-3500.7251L13704.1515,-3500.6873L13704.1478,-3500.6746L13704.1421,-3500.6542L13704.1293,-3500.6176L13704.1221,-3500.595L13704.12,-3500.5927L13704.1084,-3500.5826L13704.0697,-3500.616"/>
<path content="1,名鉄バス（株）,愛教大線_03_on,14.0,13.0,13.0," xlink:title="1" d="M13703.8236,-3502.4414L13703.8215,-3502.4032L13703.8221,-3502.3891L13703.824,-3502.3625L13703.8146,-3502.2849L13703.8043,-3502.2263L13703.8009,-3502.1993L13703.7962,-3502.1739L13703.7925,-3502.1513L13703.785,-3502.1007L13703.779,-3502.0754L13703.7558,-3501.948L13703.7516,-3501.9294L13703.7476,-3501.9047L13703.74,-3501.8664L13703.7379,-3501.8512L13703.7359,-3501.8438L13703.7157,-3501.7324L13703.7113,-3501.7024L13703.6898,-3501.5936L13703.6883,-3501.585L13703.6872,-3501.5805L13703.6883,-3501.5714L13703.6914,-3501.5633L13703.6962,-3501.5554L13703.7065,-3501.5441L13703.7284,-3501.5301L13703.7373,-3501.5228L13703.7461,-3501.5098L13703.7551,-3501.4861L13703.7733,-3501.424L13703.8179,-3501.3002L13703.854,-3501.1422L13703.8732,-3501.0734L13703.8901,-3501.0177L13703.9174,-3500.9791L13703.9228,-3500.9718L13703.9488,-3500.9464L13703.981,-3500.9121L13703.994,-3500.8997L13704.0132,-3500.8817L13704.0269,-3500.8693L13704.0419,-3500.8546L13704.0814,-3500.8175L13704.0855,-3500.8136L13704.1077,-3500.7916L13704.1282,-3500.7763L13704.1734,-3500.7499L13704.1659,-3500.7352L13704.1624,-3500.7251L13704.1515,-3500.6873L13704.1478,-3500.6746L13704.1421,-3500.6542L13704.1293,-3500.6176L13704.1221,-3500.595L13704.12,-3500.5927L13704.1084,-3500.5826L13704.0697,-3500.616"/>
<path content="1,知多乗合（株）,刈谷・中部空港線,13.5,13.5,13.5," xlink:title="1" d="M13702.1484,-3500.077L13702.1498,-3500.0778L13702.1553,-3500.0805L13702.1784,-3500.0921L13702.1967,-3500.1012L13702.2286,-3500.1175L13702.2433,-3500.1245L13702.2594,-3500.1313L13702.303,-3500.1499L13702.3345,-3500.1634L13702.3427,-3500.1662L13702.3899,-3500.1871L13702.4229,-3500.2011L13702.4665,-3500.2197L13702.5034,-3500.2338L13702.5493,-3500.2524L13702.5736,-3500.2615L13702.5766,-3500.2626L13702.634,-3500.2862L13702.6703,-3500.302L13702.7183,-3500.3251L13702.7272,-3500.3327L13702.7497,-3500.3406L13702.7571,-3500.3431L13702.7709,-3500.3487L13702.8479,-3500.3797L13702.8924,-3500.3977L13702.9182,-3500.4088L13703.0061,-3500.4468L13703.0221,-3500.4681L13703.0397,-3500.4826L13703.0691,-3500.5003L13703.1026,-3500.5206L13703.193,-3500.578L13703.2879,-3500.6373L13703.3895,-3500.7025L13703.4286,-3500.7257L13703.4313,-3500.7273L13703.4436,-3500.7354L13703.4553,-3500.7419L13703.5225,-3500.7846L13703.5587,-3500.8077L13703.5989,-3500.8337L13703.6546,-3500.8696L13703.7202,-3500.9114L13703.7259,-3500.915L13703.7956,-3500.8593L13703.8536,-3500.8114L13703.8831,-3500.7865L13703.9023,-3500.7713L13703.9625,-3500.7251L13703.9919,-3500.7009L13703.9954,-3500.6992L13704.0522,-3500.6558L13704.0693,-3500.6411L13704.0818,-3500.6312L13704.0697,-3500.616"/>
<path content="3,刈谷市,東刈谷線,8.0,8.0,8.0," xlink:title="3" d="M13702.7718,-3498.2225L13702.8461,-3498.1924L13702.8673,-3498.184L13702.8696,-3498.1829L13702.8717,-3498.1661L13702.8727,-3498.1547L13702.8816,-3498.0961L13702.8823,-3498.0865L13702.8844,-3498.082L13702.896,-3498.0617L13702.9075,-3498.0469"/>
<path content="3,刈谷市,東刈谷線,8.0,8.0,8.0," xlink:title="3" d="M13702.7718,-3498.2225L13702.8114,-3498.3201"/>
<path content="3,刈谷市,東刈谷線,8.0,8.0,8.0," xlink:title="3" d="M13702.5573,-3498.3082L13702.5677,-3498.3039L13702.6696,-3498.2634L13702.686,-3498.2555L13702.712,-3498.2465L13702.7585,-3498.2279L13702.7718,-3498.2225"/>
<path content="3,刈谷市,東刈谷線,8.0,8.0,8.0," xlink:title="3" d="M13702.5573,-3498.3082L13702.559,-3498.3201L13702.5605,-3498.3277L13702.5622,-3498.3349L13702.5666,-3498.3458L13702.5951,-3498.3899L13702.605,-3498.4063L13702.6126,-3498.4189L13702.6314,-3498.45L13702.6423,-3498.4681L13702.6533,-3498.4857L13702.6573,-3498.4921L13702.6641,-3498.5107L13702.6641,-3498.5264L13702.6539,-3498.5569L13702.6327,-3498.6126L13702.6736,-3498.607"/>
<path content="3,刈谷市,東刈谷線,8.0,8.0,8.0," xlink:title="3" d="M13702.1484,-3498.4043L13702.1512,-3498.4048L13702.1717,-3498.4076L13702.1826,-3498.4087L13702.2207,-3498.4139L13702.2401,-3498.4166L13702.2736,-3498.4172L13702.2907,-3498.4144L13702.2969,-3498.4132L13702.3441,-3498.3946L13702.3878,-3498.3766L13702.4317,-3498.3586L13702.4329,-3498.358L13702.4357,-3498.3575L13702.4375,-3498.3567L13702.4959,-3498.3327L13702.5573,-3498.3082"/>
<path content="3,刈谷市,東境線,8.0,8.0,8.0," xlink:title="3" d="M13703.8236,-3502.4414L13703.8215,-3502.4032L13703.8221,-3502.3891L13703.6832,-3502.3125L13703.6613,-3502.3007L13703.6503,-3502.2945L13703.6047,-3502.2695L13703.5631,-3502.2472L13703.4901,-3502.206L13703.4381,-3502.1773L13703.3888,-3502.1503L13703.3731,-3502.1413L13703.3423,-3502.1232L13703.3308,-3502.1153L13703.3032,-3502.0962L13703.269,-3502.0725L13703.2601,-3502.0663L13703.2334,-3502.0483L13703.1129,-3501.9801L13703.1003,-3501.9728L13703.0768,-3501.9602L13703.0574,-3501.9497L13702.9926,-3501.9132L13702.9734,-3501.9023L13702.9726,-3501.9018L13702.9522,-3501.8903L13702.9019,-3501.8618L13702.8042,-3501.8065L13702.7966,-3501.8021L13702.7744,-3501.7905L13702.7521,-3501.7768L13702.7183,-3501.7572L13702.7004,-3501.7481L13702.6699,-3501.7306L13702.6569,-3501.7238L13702.5924,-3501.6866L13702.5623,-3501.6712L13702.5576,-3501.6685L13702.5283,-3501.6528L13702.4753,-3501.6234L13702.4399,-3501.6046L13702.4241,-3501.5962L13702.3879,-3501.5761L13702.3569,-3501.5599L13702.2891,-3501.5234L13702.2382,-3501.4967L13702.2004,-3501.4731L13702.1695,-3501.4517L13702.1484,-3501.4357M13702.1484,-3501.4008L13702.1728,-3501.382L13702.1743,-3501.3808L13702.181,-3501.3756L13702.2268,-3501.3397L13702.2852,-3501.2889L13702.315,-3501.261L13702.3199,-3501.256L13702.3449,-3501.231L13702.3931,-3501.176L13702.3988,-3501.1692L13702.4026,-3501.1645L13702.4239,-3501.1386L13702.4691,-3501.0765L13702.4873,-3501.0487L13702.49,-3501.0446L13702.4173,-3501.0549L13702.3167,-3501.085L13702.2975,-3501.0901L13702.264,-3501.0991L13702.225,-3501.1075L13702.2236,-3501.1086L13702.1565,-3501.125L13702.1484,-3501.127"/>
<path content="3,知立市,1コース,10.0,10.0,10.0," xlink:title="3" d="M13705.8014,-3499.7744L13705.8265,-3499.7563L13705.8553,-3499.7962L13705.8601,-3499.8052L13705.7003,-3499.8779"/>
<path content="3,知立市,1コース,10.0,10.0,10.0," xlink:title="3" d="M13705.7003,-3499.8779L13705.7001,-3499.878L13705.6317,-3499.9072L13705.6025,-3499.92L13705.5956,-3499.923L13705.514,-3499.9601L13705.4894,-3499.9708L13705.385,-3500.0218L13705.2983,-3500.0582L13705.2916,-3500.0606L13705.2861,-3500.062L13705.2776,-3500.0631L13705.054,-3500.0304L13704.9922,-3500.017L13704.997,-3500.0316L13705.0113,-3500.0683L13705.0147,-3500.0852L13705.0148,-3500.0852L13705.1338,-3500.1043L13705.1461,-3500.1062L13705.1428,-3500.1249L13705.1112,-3500.2108L13705.1598,-3500.2215L13705.1673,-3500.2243L13705.1563,-3500.2412L13705.1365,-3500.2722L13705.1146,-3500.3088L13705.1061,-3500.3251L13705.086,-3500.3634L13705.0627,-3500.4091L13705.0121,-3500.5116L13704.9896,-3500.5192L13704.958,-3500.5278L13704.9463,-3500.5319L13704.934,-3500.5352L13704.9053,-3500.5448L13704.8929,-3500.5499L13704.8704,-3500.5572L13704.8964,-3500.6061L13704.8389,-3500.6282L13704.7793,-3500.6513L13704.7222,-3500.6787L13704.6794,-3500.6929L13704.6656,-3500.6969L13704.6533,-3500.6992L13704.6205,-3500.7054L13704.6073,-3500.7072L13704.5944,-3500.7082L13704.5636,-3500.7104L13704.539,-3500.7116L13704.526,-3500.7116L13704.4883,-3500.7144L13704.4123,-3500.7189L13704.4007,-3500.7189L13704.3562,-3500.7217L13704.3172,-3500.7256L13704.3042,-3500.7256L13704.2829,-3500.7262L13704.2439,-3500.7307L13704.2227,-3500.7358L13704.2047,-3500.7404L13704.1844,-3500.7454L13704.1734,-3500.7499"/>
<path content="3,知立市,1コース,10.0,10.0,10.0," xlink:title="3" d="M13706.1651,-3499.9931L13706.1292,-3499.9442"/>
<path content="3,知立市,1コース,10.0,10.0,10.0," xlink:title="3" d="M13706.1651,-3499.9931L13706.1425,-3500.0041L13706.0744,-3500.0355L13706.007,-3500.0667L13705.9164,-3500.1084L13705.912,-3500.1104L13705.8925,-3500.1197L13705.8911,-3500.1203L13705.8899,-3500.1188L13705.8877,-3500.1161L13705.8501,-3500.0703L13705.8346,-3500.0514L13705.8223,-3500.0355L13705.8221,-3500.0353L13705.816,-3500.0274L13705.7964,-3500.002L13705.7963,-3500.0019L13705.7644,-3499.9605L13705.764,-3499.96L13705.7334,-3499.9203L13705.7322,-3499.9188L13705.7116,-3499.8922L13705.7003,-3499.8779"/>
<path content="3,知立市,1コース,10.0,10.0,10.0," xlink:title="3" d="M13704.0818,-3500.6312L13704.0697,-3500.616"/>
<path content="3,知立市,1コース,10.0,10.0,10.0," xlink:title="3" d="M13704.0818,-3500.6312L13704.0693,-3500.6411L13704.0522,-3500.6558L13703.9954,-3500.6992L13703.9919,-3500.7009L13703.9625,-3500.7251L13703.9023,-3500.7713L13703.8831,-3500.7865L13703.8536,-3500.8114L13703.7956,-3500.8593L13703.7259,-3500.915L13703.6702,-3500.9588L13703.6449,-3500.978L13703.6257,-3500.9938L13703.5572,-3501.0462L13703.5401,-3501.058"/>
<path content="3,知立市,1コース,10.0,10.0,10.0," xlink:title="3" d="M13704.1734,-3500.7499L13704.1659,-3500.7352L13704.1624,-3500.7251L13704.1515,-3500.6873L13704.1478,-3500.6746L13704.1421,-3500.6542L13704.1293,-3500.6176L13704.1221,-3500.595L13704.1084,-3500.6102L13704.0818,-3500.6312"/>
<path content="3,知立市,1コース,10.0,10.0,10.0," xlink:title="3" d="M13704.1734,-3500.7499L13704.1976,-3500.7952L13704.2562,-3500.8873L13704.2774,-3500.9104L13704.3522,-3500.9885L13704.4131,-3501.0554L13704.4753,-3501.123L13704.5009,-3501.1496L13704.509,-3501.1446L13704.5251,-3501.1356L13704.5479,-3501.1243L13704.6387,-3501.076L13704.6808,-3501.0525L13704.7548,-3501.0099L13704.7727,-3500.9988L13704.8173,-3500.9712L13704.8791,-3500.9288L13704.943,-3500.8807L13705.0165,-3500.8226L13705.0264,-3500.813L13705.033,-3500.8257L13705.0449,-3500.8409L13705.0573,-3500.8575L13705.062,-3500.8665L13705.0931,-3500.909L13705.1369,-3500.9689L13705.1717,-3501.0155L13705.1905,-3501.0418L13705.212,-3501.0665L13705.2216,-3501.0749L13705.2298,-3501.0839L13705.2578,-3501.0777L13705.2709,-3501.0749L13705.3249,-3501.0603L13705.3263,-3501.0591L13705.3578,-3501.049L13705.3749,-3501.0428L13705.3804,-3501.0406L13705.4427,-3501.0147L13705.5002,-3500.9949L13705.5296,-3500.9854L13705.5454,-3500.9814L13705.5851,-3500.9741L13705.6186,-3500.9657L13705.6496,-3500.9592L13705.6768,-3500.9521L13705.6886,-3500.9482L13705.7124,-3500.9403L13705.7706,-3500.9161L13705.7912,-3500.9054L13705.7994,-3500.9009L13705.8311,-3500.8849L13705.8843,-3500.8541L13705.9041,-3500.844L13705.9206,-3500.8333L13705.9281,-3500.8265"/>
<path content="3,知立市,1コース,10.0,10.0,10.0," xlink:title="3" d="M13705.9414,-3500.76L13705.939,-3500.6649L13705.9398,-3500.6535L13705.9379,-3500.6412L13705.9366,-3500.6326L13705.9363,-3500.5843L13705.9336,-3500.5375L13705.9457,-3500.4904L13705.9452,-3500.3849L13705.9432,-3500.3533L13705.9365,-3500.3252L13705.9278,-3500.3122L13705.9212,-3500.2985L13705.9066,-3500.2699L13705.897,-3500.2502L13705.9175,-3500.2457L13705.9816,-3500.2352L13705.9859,-3500.2343L13705.998,-3500.2318L13706.0365,-3500.2237L13706.0934,-3500.2125L13706.1039,-3500.2104L13706.1152,-3500.2086L13706.1446,-3500.2024L13706.2007,-3500.1916L13706.2219,-3500.1871L13706.2171,-3500.1714L13706.1973,-3500.1133L13706.188,-3500.0674L13706.1651,-3499.9931"/>
<path content="3,知立市,1コース,10.0,10.0,10.0," xlink:title="3" d="M13705.9414,-3500.76L13705.9447,-3500.7699L13705.9281,-3500.8265"/>
<path content="3,知立市,1コース,10.0,10.0,10.0," xlink:title="3" d="M13705.9281,-3500.8265L13705.9315,-3500.8355L13705.9322,-3500.844L13705.9349,-3500.8569L13705.939,-3500.8817L13705.9767,-3500.9403L13705.9849,-3500.9482L13706.0335,-3500.9538L13706.0664,-3500.9578L13706.0684,-3500.9578L13706.0753,-3500.9583L13706.1045,-3500.97L13706.1383,-3500.9955L13706.1388,-3500.9948L13706.1438,-3500.9871L13706.1588,-3500.9707L13706.1656,-3500.964L13706.1793,-3500.9487L13706.2601,-3500.8637L13706.2848,-3500.8479L13706.258,-3500.8036L13706.1953,-3500.7507L13706.1746,-3500.7296L13706.1629,-3500.7163L13706.1581,-3500.7125L13706.1523,-3500.71L13706.1464,-3500.711L13706.1378,-3500.7151L13706.0712,-3500.742L13706.0616,-3500.7449L13706.0363,-3500.755L13706.0205,-3500.7561L13706.0096,-3500.7544L13705.9938,-3500.755L13705.9685,-3500.7561L13705.95,-3500.7595L13705.9414,-3500.76"/>
<path content="3,知立市,1コース,10.0,10.0,10.0," xlink:title="3" d="M13703.5401,-3501.058L13703.5236,-3501.0324"/>
<path content="3,知立市,1コース,10.0,10.0,10.0," xlink:title="3" d="M13703.5401,-3501.058L13703.5387,-3501.1081L13703.5387,-3501.1521L13703.6004,-3501.1763L13703.6086,-3501.1819L13703.6531,-3501.2219L13703.6562,-3501.2246L13703.6101,-3501.2856L13703.6019,-3501.2949L13703.6148,-3501.2991L13703.6229,-3501.3019L13703.6332,-3501.307L13703.6414,-3501.3115L13703.6551,-3501.316L13703.6635,-3501.3203L13703.6672,-3501.3227L13703.669,-3501.3257L13703.6688,-3501.3328L13703.6686,-3501.3396L13703.6675,-3501.3447L13703.6673,-3501.3489L13703.6676,-3501.3513L13703.6681,-3501.3532L13703.6695,-3501.3549L13703.6714,-3501.3564L13703.6746,-3501.3583L13703.6785,-3501.3588L13703.7106,-3501.3616L13703.7345,-3501.3639L13703.7879,-3501.3718L13703.7919,-3501.3724"/>
<path content="3,知立市,1コース,10.0,10.0,10.0," xlink:title="3" d="M13703.7919,-3501.3724L13703.8179,-3501.3002L13703.854,-3501.1422L13703.8732,-3501.0734L13703.8901,-3501.0177L13703.9174,-3500.9791L13703.9228,-3500.9718L13703.9488,-3500.9464L13703.981,-3500.9121L13703.994,-3500.8997L13704.0132,-3500.8817L13704.0269,-3500.8693L13704.0419,-3500.8546L13704.0814,-3500.8175L13704.0855,-3500.8136L13704.1077,-3500.7916L13704.1282,-3500.7763L13704.1734,-3500.7499"/>
<path content="3,知立市,1コース,10.0,10.0,10.0," xlink:title="3" d="M13703.7919,-3501.3724L13703.7733,-3501.424L13703.7551,-3501.4861"/>
<path content="3,知立市,1コース,10.0,10.0,10.0," xlink:title="3" d="M13703.7551,-3501.4861L13703.7461,-3501.5098L13703.7373,-3501.5228L13703.7284,-3501.5301L13703.7065,-3501.5441L13703.6962,-3501.5554L13703.6914,-3501.5633L13703.6883,-3501.5714L13703.6872,-3501.5805L13703.6883,-3501.585L13703.6898,-3501.5936L13703.7113,-3501.7024L13703.7157,-3501.7324L13703.7359,-3501.8438"/>
<path content="3,知立市,1コース,10.0,10.0,10.0," xlink:title="3" d="M13703.7359,-3501.8438L13703.6833,-3501.8562L13703.6376,-3501.8793"/>
<path content="3,知立市,1コース,10.0,10.0,10.0," xlink:title="3" d="M13703.7359,-3501.8438L13703.7379,-3501.8512L13703.74,-3501.8664L13703.7476,-3501.9047L13703.7516,-3501.9294L13703.7558,-3501.948L13703.779,-3502.0754L13703.785,-3502.1007L13703.7925,-3502.1513L13703.7962,-3502.1739L13703.8009,-3502.1993L13703.8043,-3502.2263L13703.8146,-3502.2849L13703.8393,-3502.2832L13703.8885,-3502.2779L13703.8978,-3502.2768L13703.9338,-3502.272L13703.955,-3502.2686L13703.9735,-3502.2629L13703.9978,-3502.2522L13704.0097,-3502.2466L13704.0316,-3502.2376L13704.0597,-3502.224L13704.07,-3502.219L13704.0803,-3502.2151L13704.1193,-3502.1931L13704.1713,-3502.1599L13704.211,-3502.1306L13704.2507,-3502.0939L13704.2774,-3502.0652L13704.2583,-3502.0714L13704.2576,-3502.0675L13704.2521,-3502.0595L13704.2289,-3502.0258L13704.2063,-3501.9942L13704.2008,-3501.9864L13704.1868,-3501.9597L13704.1739,-3501.9255L13704.146,-3501.9199L13704.1241,-3501.9272L13704.1131,-3501.9317L13704.1049,-3501.9137L13704.1022,-3501.9103L13704.1035,-3501.9081L13704.1145,-3501.8957L13704.1172,-3501.8878L13704.1213,-3501.8816L13704.1248,-3501.8731L13704.1275,-3501.8534L13704.1286,-3501.8368L13704.1268,-3501.8196L13704.1234,-3501.7897L13704.1227,-3501.7847L13704.1131,-3501.7531L13704.102,-3501.7174L13704.0987,-3501.7176L13704.0929,-3501.7109L13704.0819,-3501.7005L13704.0711,-3501.6935L13704.0601,-3501.6856L13704.0203,-3501.6486L13703.9413,-3501.5982L13703.89,-3501.5509L13703.8431,-3501.503L13703.8473,-3501.4999L13703.8403,-3501.4932L13703.8323,-3501.4869L13703.825,-3501.4842L13703.8173,-3501.4832L13703.804,-3501.4832L13703.791,-3501.4839L13703.78,-3501.4846L13703.7699,-3501.4852L13703.7551,-3501.4861"/>
<path content="3,知立市,1コース,10.0,10.0,10.0," xlink:title="3" d="M13703.6376,-3501.8793L13703.6024,-3501.8973L13703.5593,-3501.9142L13703.5245,-3501.9293L13703.484,-3501.8889L13703.4751,-3501.8742L13703.4865,-3501.863L13703.4916,-3501.8546L13703.5045,-3501.8624L13703.5079,-3501.8596L13703.5305,-3501.8331L13703.5381,-3501.8269L13703.5483,-3501.8224L13703.562,-3501.8191L13703.5894,-3501.8162L13703.6134,-3501.8089L13703.6229,-3501.8354L13703.6376,-3501.8793"/>
<path content="3,知立市,2コース_01_on,11.0,11.0,11.0," xlink:title="3" d="M13706.334,-3499.3214L13706.4141,-3499.3247L13706.4243,-3499.3258L13706.4804,-3499.3275L13706.5426,-3499.3319"/>
<path content="3,知立市,2コース_01_on,11.0,11.0,11.0," xlink:title="3" d="M13706.334,-3499.3214L13706.3293,-3499.3562L13706.3272,-3499.3957L13706.3272,-3499.4024L13706.3299,-3499.4137L13706.3395,-3499.4334L13706.3478,-3499.4464L13706.3826,-3499.5016L13706.4182,-3499.5585"/>
<path content="3,知立市,2コース_01_on,11.0,11.0,11.0," xlink:title="3" d="M13705.711,-3499.39L13705.587,-3499.342"/>
<path content="3,知立市,2コース_01_on,11.0,11.0,11.0," xlink:title="3" d="M13705.711,-3499.39L13705.6557,-3499.4888L13705.6334,-3499.5283L13705.6036,-3499.5782L13705.6016,-3499.5816L13705.592,-3499.6007L13705.5756,-3499.6278L13705.5486,-3499.6793L13705.5459,-3499.6844L13705.5406,-3499.6924L13705.5106,-3499.737L13705.4532,-3499.8182L13705.4024,-3499.886L13705.3677,-3499.9347L13705.354,-3499.9517L13705.3437,-3499.9629L13705.2776,-3500.0631L13705.2555,-3500.0908L13705.2364,-3500.1195L13705.1892,-3500.19L13705.1673,-3500.2243"/>
<path content="3,知立市,2コース_01_on,11.0,11.0,11.0," xlink:title="3" d="M13706.4182,-3499.5585L13706.5014,-3499.5303L13706.543,-3499.5135M13706.543,-3499.0054L13706.3977,-3499.0261L13706.3861,-3499.0299L13706.376,-3499.0351L13706.3689,-3499.0414L13706.3621,-3499.0476L13706.3547,-3499.0591L13706.3535,-3499.0662L13706.3525,-3499.0847L13706.3444,-3499.1803L13706.3457,-3499.2339L13706.334,-3499.3214"/>
<path content="3,知立市,2コース_01_on,11.0,11.0,11.0," xlink:title="3" d="M13706.2534,-3499.6272L13706.2315,-3499.6058L13706.2096,-3499.5883L13706.1726,-3499.5591L13706.1638,-3499.554L13706.1535,-3499.5472L13706.1364,-3499.5331L13706.0906,-3499.4949L13706.0829,-3499.4881L13706.0605,-3499.4671L13706.0531,-3499.4601L13706.0345,-3499.4424L13706.0024,-3499.4137L13705.9705,-3499.3851L13705.9449,-3499.3624L13705.9107,-3499.3292L13705.9018,-3499.3179L13705.8861,-3499.2954L13705.8792,-3499.2836L13705.8717,-3499.2729L13705.8615,-3499.2599L13705.8512,-3499.2475L13705.8403,-3499.2301L13705.8307,-3499.2171L13705.8177,-3499.1962L13705.789,-3499.2492L13705.7698,-3499.2836L13705.7657,-3499.2898L13705.7431,-3499.3309L13705.7288,-3499.3579L13705.711,-3499.39"/>
<path content="3,知立市,2コース_01_on,11.0,11.0,11.0," xlink:title="3" d="M13706.2534,-3499.6272L13706.3022,-3499.6062L13706.3145,-3499.6009L13706.3244,-3499.5967L13706.3424,-3499.5889L13706.365,-3499.5789L13706.3688,-3499.5774L13706.4182,-3499.5585"/>
<path content="3,知立市,2コース_01_on,11.0,11.0,11.0," xlink:title="3" d="M13706.2534,-3499.6272L13706.2075,-3499.6481L13706.1699,-3499.6649L13706.0919,-3499.701L13706.1179,-3499.7387L13706.1213,-3499.7421L13706.1473,-3499.7793L13706.1638,-3499.8012L13706.1781,-3499.8244L13706.1293,-3499.8513L13706.0916,-3499.8676L13706.0906,-3499.8661L13706.0897,-3499.8647L13706.0776,-3499.8458L13706.0632,-3499.8238L13706.0379,-3499.7844L13706.0345,-3499.7787L13706.0078,-3499.7387L13705.9928,-3499.7449L13705.8601,-3499.8052L13705.8777,-3499.8276"/>
<path content="3,知立市,2コース_01_on,11.0,11.0,11.0," xlink:title="3" d="M13706.1651,-3499.9931L13706.1292,-3499.9442"/>
<path content="3,知立市,2コース_01_on,11.0,11.0,11.0," xlink:title="3" d="M13706.1651,-3499.9931L13706.179,-3499.9864L13706.2506,-3499.9538L13706.2593,-3499.9493L13706.2758,-3499.9407L13706.3348,-3499.9146L13706.3434,-3499.91L13706.3562,-3499.9032L13706.39,-3499.8879L13706.4182,-3499.8751L13706.4313,-3499.8691L13706.4452,-3499.8619L13706.4156,-3499.814L13706.3987,-3499.7866L13706.3938,-3499.7802L13706.3806,-3499.7629L13706.3532,-3499.7281L13706.3365,-3499.7035L13706.2534,-3499.6272"/>
<path content="3,知立市,2コース_01_on,11.0,11.0,11.0," xlink:title="3" d="M13705.1673,-3500.2243L13705.1598,-3500.2215L13705.1112,-3500.2108L13705.1428,-3500.1249"/>
<path content="3,知立市,2コース_01_on,11.0,11.0,11.0," xlink:title="3" d="M13705.1673,-3500.2243L13705.1563,-3500.2412L13705.1365,-3500.2722L13705.1146,-3500.3088L13705.1061,-3500.3251L13705.086,-3500.3634L13705.0627,-3500.4091L13705.0121,-3500.5116L13704.9896,-3500.5192L13704.958,-3500.5278L13704.9463,-3500.5319L13704.934,-3500.5352L13704.9634,-3500.5775"/>
<path content="3,知立市,2コース_01_on,11.0,11.0,11.0," xlink:title="3" d="M13704.9634,-3500.5775L13704.9867,-3500.5679L13705.0387,-3500.5477L13705.099,-3500.5243L13705.1223,-3500.516L13705.1586,-3500.5006L13705.2928,-3500.4401L13705.3763,-3500.4001L13705.4138,-3500.3707L13705.4361,-3500.3541L13705.4449,-3500.3482L13705.4508,-3500.3443L13705.5185,-3500.3251L13705.5908,-3500.3107L13705.6241,-3500.3037L13705.6392,-3500.2998L13705.6732,-3500.2936L13705.7089,-3500.2863L13705.7301,-3500.2829L13705.7801,-3500.2728L13705.8361,-3500.2615L13705.897,-3500.2502L13705.9066,-3500.2699L13705.9212,-3500.2985L13705.9278,-3500.3122L13705.9365,-3500.3252L13705.9432,-3500.3533L13705.9452,-3500.3849L13705.9457,-3500.4904L13705.9438,-3500.4975L13706.0702,-3500.532L13706.1253,-3500.5471L13706.1808,-3500.5629L13706.2415,-3500.5797L13706.2669,-3500.5843L13706.2738,-3500.5856L13706.3101,-3500.5922L13706.3444,-3500.5967L13706.4211,-3500.6062L13706.432,-3500.6079L13706.5186,-3500.6195L13706.543,-3500.6227M13706.543,-3500.2251L13706.5416,-3500.2248L13706.5159,-3500.2205L13706.4797,-3500.2164L13706.4695,-3500.2147L13706.451,-3500.2131L13706.4106,-3500.2069L13706.3908,-3500.2018L13706.3429,-3500.1939L13706.3169,-3500.1911L13706.2862,-3500.1854L13706.2444,-3500.1849L13706.226,-3500.186L13706.2219,-3500.1871L13706.2171,-3500.1714L13706.1973,-3500.1133L13706.188,-3500.0674L13706.1651,-3499.9931"/>
<path content="3,知立市,2コース_01_on,11.0,11.0,11.0," xlink:title="3" d="M13704.0697,-3500.616L13704.0561,-3500.6306L13704.0693,-3500.6411L13704.1084,-3500.6102L13704.1221,-3500.595L13704.1293,-3500.6176L13704.1421,-3500.6542L13704.1478,-3500.6746L13704.1515,-3500.6873L13704.1624,-3500.7251L13704.1659,-3500.7352L13704.1734,-3500.7499L13704.2047,-3500.7404L13704.2439,-3500.7307L13704.2829,-3500.7262L13704.3042,-3500.7256L13704.3172,-3500.7256L13704.3562,-3500.7217L13704.4007,-3500.7189L13704.4123,-3500.7189L13704.4883,-3500.7144L13704.526,-3500.7116L13704.539,-3500.7116L13704.5636,-3500.7104L13704.5944,-3500.7082L13704.6073,-3500.7072L13704.6205,-3500.7054L13704.6533,-3500.6992L13704.6656,-3500.6969L13704.6794,-3500.6929L13704.7222,-3500.6787L13704.7793,-3500.6513L13704.8964,-3500.6061L13704.9634,-3500.5775"/>
<path content="3,知立市,2コース_02_on,11.0,11.0,11.0," xlink:title="3" d="M13706.334,-3499.3214L13706.4141,-3499.3247L13706.4243,-3499.3258L13706.4804,-3499.3275L13706.5426,-3499.3319"/>
<path content="3,知立市,2コース_02_on,11.0,11.0,11.0," xlink:title="3" d="M13706.334,-3499.3214L13706.3293,-3499.3562L13706.3272,-3499.3957L13706.3272,-3499.4024L13706.3299,-3499.4137L13706.3395,-3499.4334L13706.3478,-3499.4464L13706.3826,-3499.5016L13706.4182,-3499.5585"/>
<path content="3,知立市,2コース_02_on,11.0,11.0,11.0," xlink:title="3" d="M13705.711,-3499.39L13705.587,-3499.342"/>
<path content="3,知立市,2コース_02_on,11.0,11.0,11.0," xlink:title="3" d="M13705.711,-3499.39L13705.6557,-3499.4888L13705.6334,-3499.5283L13705.6036,-3499.5782L13705.6016,-3499.5816L13705.592,-3499.6007L13705.5756,-3499.6278L13705.5486,-3499.6793L13705.5459,-3499.6844L13705.5406,-3499.6924L13705.5106,-3499.737L13705.4532,-3499.8182L13705.4024,-3499.886L13705.3677,-3499.9347L13705.354,-3499.9517L13705.3437,-3499.9629L13705.2776,-3500.0631L13705.054,-3500.0304L13704.9922,-3500.017L13704.8969,-3500.0004L13704.8858,-3499.9988L13704.7596,-3499.9776L13704.6454,-3499.9595L13704.6263,-3499.9556L13704.4964,-3499.9342L13704.4718,-3499.9302L13704.4211,-3499.9218L13704.3753,-3499.9139L13704.29,-3499.9831L13704.2454,-3500.0254L13704.2351,-3500.0339L13704.1865,-3500.075L13704.1681,-3500.0913L13704.138,-3500.1172L13704.0817,-3500.1588L13704.019,-3500.2181L13703.8762,-3500.3298L13703.7755,-3500.4121L13703.6887,-3500.4789L13703.6297,-3500.5239L13703.6229,-3500.529L13703.6183,-3500.5319L13703.5995,-3500.5457L13703.5743,-3500.5634L13703.5394,-3500.5893L13703.5251,-3500.6L13703.5018,-3500.6158L13703.5393,-3500.6334L13703.5668,-3500.6428L13703.6314,-3500.6705L13703.6506,-3500.6799L13703.6719,-3500.6923L13703.6963,-3500.7069L13703.7238,-3500.7211L13703.7433,-3500.7349L13703.7677,-3500.7517L13703.7966,-3500.7717L13703.8303,-3500.7947L13703.8536,-3500.8114L13703.8831,-3500.7865L13703.9023,-3500.7713L13703.9625,-3500.7251L13703.9919,-3500.7009L13703.9954,-3500.6992L13704.0522,-3500.6558L13704.0693,-3500.6411"/>
<path content="3,知立市,2コース_02_on,11.0,11.0,11.0," xlink:title="3" d="M13706.4182,-3499.5585L13706.4257,-3499.5557L13706.4337,-3499.5528L13706.4442,-3499.5495L13706.5014,-3499.5303L13706.543,-3499.5135M13706.543,-3499.0054L13706.3977,-3499.0261L13706.3861,-3499.0299L13706.376,-3499.0351L13706.3689,-3499.0414L13706.3621,-3499.0476L13706.3547,-3499.0591L13706.3535,-3499.0662L13706.3525,-3499.0847L13706.3444,-3499.1803L13706.3457,-3499.2339L13706.334,-3499.3214"/>
<path content="3,知立市,2コース_02_on,11.0,11.0,11.0," xlink:title="3" d="M13706.2534,-3499.6272L13706.2315,-3499.6058L13706.2096,-3499.5883L13706.1726,-3499.5591L13706.1638,-3499.554L13706.1535,-3499.5472L13706.1364,-3499.5331L13706.0906,-3499.4949L13706.0829,-3499.4881L13706.0605,-3499.4671L13706.0531,-3499.4601L13706.0345,-3499.4424L13706.0024,-3499.4137L13705.9705,-3499.3851L13705.9449,-3499.3624L13705.9107,-3499.3292L13705.9018,-3499.3179L13705.8861,-3499.2954L13705.8792,-3499.2836L13705.8717,-3499.2729L13705.8615,-3499.2599L13705.8512,-3499.2475L13705.8403,-3499.2301L13705.8307,-3499.2171L13705.8177,-3499.1962L13705.789,-3499.2492L13705.7698,-3499.2836L13705.7657,-3499.2898L13705.7431,-3499.3309L13705.7288,-3499.3579L13705.711,-3499.39"/>
<path content="3,知立市,2コース_02_on,11.0,11.0,11.0," xlink:title="3" d="M13706.2534,-3499.6272L13706.3022,-3499.6062L13706.3145,-3499.6009L13706.3244,-3499.5967L13706.3424,-3499.5889L13706.365,-3499.5789L13706.3688,-3499.5774L13706.4182,-3499.5585"/>
<path content="3,知立市,2コース_02_on,11.0,11.0,11.0," xlink:title="3" d="M13706.2534,-3499.6272L13706.2075,-3499.6481L13706.1699,-3499.6649L13706.0919,-3499.701L13706.1179,-3499.7387L13706.1213,-3499.7421L13706.1473,-3499.7793L13706.1638,-3499.8012L13706.1781,-3499.8244L13706.1293,-3499.8513L13706.0916,-3499.8676L13706.0906,-3499.8661L13706.0897,-3499.8647L13706.0776,-3499.8458L13706.0632,-3499.8238L13706.0379,-3499.7844L13706.0345,-3499.7787L13706.0078,-3499.7387L13705.9928,-3499.7449L13705.8601,-3499.8052L13705.8777,-3499.8276"/>
<path content="3,知立市,2コース_02_on,11.0,11.0,11.0," xlink:title="3" d="M13706.1651,-3499.9931L13706.1292,-3499.9442"/>
<path content="3,知立市,2コース_02_on,11.0,11.0,11.0," xlink:title="3" d="M13706.1651,-3499.9931L13706.179,-3499.9864L13706.2506,-3499.9538L13706.2593,-3499.9493L13706.2758,-3499.9407L13706.3348,-3499.9146L13706.3434,-3499.91L13706.3562,-3499.9032L13706.39,-3499.8879L13706.4182,-3499.8751L13706.4313,-3499.8691L13706.4452,-3499.8619L13706.4156,-3499.814L13706.3987,-3499.7866L13706.3938,-3499.7802L13706.3806,-3499.7629L13706.3532,-3499.7281L13706.3365,-3499.7035L13706.2534,-3499.6272"/>
<path content="3,知立市,2コース_02_on,11.0,11.0,11.0," xlink:title="3" d="M13704.0697,-3500.616L13704.0561,-3500.6306L13704.0693,-3500.6411"/>
<path content="3,知立市,2コース_02_on,11.0,11.0,11.0," xlink:title="3" d="M13704.0693,-3500.6411L13704.1084,-3500.6102L13704.1221,-3500.595L13704.1293,-3500.6176L13704.1421,-3500.6542L13704.1478,-3500.6746L13704.1515,-3500.6873L13704.1624,-3500.7251L13704.1659,-3500.7352L13704.1734,-3500.7499L13704.2047,-3500.7404L13704.2439,-3500.7307L13704.2829,-3500.7262L13704.3042,-3500.7256L13704.3172,-3500.7256L13704.3562,-3500.7217L13704.4007,-3500.7189L13704.4123,-3500.7189L13704.4883,-3500.7144L13704.526,-3500.7116L13704.539,-3500.7116L13704.5636,-3500.7104L13704.5944,-3500.7082L13704.6073,-3500.7072L13704.6205,-3500.7054L13704.6533,-3500.6992L13704.6656,-3500.6969L13704.6794,-3500.6929L13704.7222,-3500.6787L13704.7793,-3500.6513L13704.8964,-3500.6061L13704.9634,-3500.5775L13704.9867,-3500.5679L13705.0387,-3500.5477L13705.099,-3500.5243L13705.1223,-3500.516L13705.1586,-3500.5006L13705.2928,-3500.4401L13705.3763,-3500.4001L13705.4138,-3500.3707L13705.4361,-3500.3541L13705.4449,-3500.3482L13705.4508,-3500.3443L13705.5185,-3500.3251L13705.5908,-3500.3107L13705.6241,-3500.3037L13705.6392,-3500.2998L13705.6732,-3500.2936L13705.7089,-3500.2863L13705.7301,-3500.2829L13705.7801,-3500.2728L13705.8361,-3500.2615L13705.897,-3500.2502L13705.9066,-3500.2699L13705.9212,-3500.2985L13705.9278,-3500.3122L13705.9365,-3500.3252L13705.9432,-3500.3533L13705.9452,-3500.3849L13705.9457,-3500.4904L13705.9438,-3500.4975L13706.0702,-3500.532L13706.1253,-3500.5471L13706.1808,-3500.5629L13706.2415,-3500.5797L13706.2669,-3500.5843L13706.2738,-3500.5856L13706.3101,-3500.5922L13706.3444,-3500.5967L13706.4211,-3500.6062L13706.432,-3500.6079L13706.5186,-3500.6195L13706.543,-3500.6227M13706.543,-3500.2251L13706.5416,-3500.2248L13706.5159,-3500.2205L13706.4797,-3500.2164L13706.4695,-3500.2147L13706.451,-3500.2131L13706.4106,-3500.2069L13706.3908,-3500.2018L13706.3429,-3500.1939L13706.3169,-3500.1911L13706.2862,-3500.1854L13706.2444,-3500.1849L13706.226,-3500.186L13706.2219,-3500.1871L13706.2171,-3500.1714L13706.1973,-3500.1133L13706.188,-3500.0674L13706.1651,-3499.9931"/>
<path content="3,知立市,3コース,11.0,11.0,11.0," xlink:title="3" d="M13704.4786,-3498.2792L13704.4793,-3498.2696L13704.4841,-3498.2414L13704.4841,-3498.2364L13704.4923,-3498.1891L13704.4943,-3498.1817L13704.4977,-3498.157L13704.5018,-3498.1333L13704.5134,-3498.0827L13704.5175,-3498.0647L13704.5189,-3498.0584L13704.5232,-3498.0469"/>
<path content="3,知立市,3コース,11.0,11.0,11.0," xlink:title="3" d="M13704.4786,-3498.2792L13704.5196,-3498.2831L13704.562,-3498.2887L13704.614,-3498.2972L13704.6461,-3498.3045L13704.6734,-3498.311L13704.7027,-3498.3184L13704.7337,-3498.3265L13704.774,-3498.3355L13704.8354,-3498.3444L13704.984,-3498.371L13705.0004,-3498.3733L13705.0257,-3498.3811L13705.0449,-3498.389L13705.0599,-3498.3975L13705.0679,-3498.4024L13705.0982,-3498.4211L13705.1297,-3498.4465L13705.1481,-3498.464L13705.1891,-3498.4999L13705.3075,-3498.6239L13705.3622,-3498.6797L13705.3841,-3498.7006L13705.4573,-3498.7749L13705.5311,-3498.8487L13705.5584,-3498.876L13705.6002,-3498.918L13705.6117,-3498.9299L13705.6366,-3498.9536L13705.6606,-3498.9811L13705.6631,-3498.9839L13705.6891,-3499.0109L13705.698,-3499.0228L13705.7103,-3499.0352L13705.7206,-3499.0464L13705.7377,-3499.0661L13705.7411,-3499.0701L13705.7461,-3499.078L13705.7691,-3499.1151L13705.8027,-3499.1732L13705.8177,-3499.1962L13705.789,-3499.2492L13705.7698,-3499.2836L13705.7657,-3499.2898L13705.7431,-3499.3309L13705.7288,-3499.3579L13705.711,-3499.39"/>
<path content="3,知立市,3コース,11.0,11.0,11.0," xlink:title="3" d="M13704.6892,-3499.0988L13704.6919,-3499.0932L13704.7132,-3499.0543L13704.6899,-3499.0453L13704.6448,-3499.0306L13704.5866,-3499.0115L13704.5716,-3499.0081L13704.5972,-3498.978L13704.6386,-3498.9247L13704.6482,-3498.9101L13704.653,-3498.9062L13704.6407,-3498.9033L13704.5873,-3498.8983L13704.5374,-3498.8909L13704.4731,-3498.8819L13704.3944,-3498.8712L13704.3274,-3498.8616L13704.3395,-3498.7879L13704.3431,-3498.7366L13704.3247,-3498.7219L13704.291,-3498.6942L13704.2723,-3498.6789L13704.2667,-3498.6742L13704.1353,-3498.5776L13704.0744,-3498.5197L13704.0621,-3498.5158L13704.0566,-3498.5152L13704.0491,-3498.515L13704.0467,-3498.5064L13704.0736,-3498.4887L13704.0856,-3498.4797L13704.1129,-3498.4598L13704.1213,-3498.4544L13704.1494,-3498.4332L13704.1507,-3498.4322L13704.1618,-3498.4259L13704.1701,-3498.4194L13704.2289,-3498.3778L13704.3076,-3498.3248L13704.3169,-3498.3177L13704.3227,-3498.3147L13704.3705,-3498.2978L13704.402,-3498.2887L13704.4163,-3498.2859L13704.4333,-3498.2819L13704.4786,-3498.2792"/>
<path content="3,知立市,3コース,11.0,11.0,11.0," xlink:title="3" d="M13705.711,-3499.39L13705.587,-3499.342L13705.5017,-3499.3179L13705.473,-3499.3101L13705.4668,-3499.3095L13705.3786,-3499.287L13705.3075,-3499.2695L13705.2637,-3499.2588L13705.0285,-3499.1999L13704.8817,-3499.1628L13704.7529,-3499.1148L13704.6892,-3499.0988"/>
<path content="3,知立市,3コース,11.0,11.0,11.0," xlink:title="3" d="M13705.711,-3499.39L13705.6557,-3499.4888L13705.6334,-3499.5283L13705.6036,-3499.5782L13705.6016,-3499.5816L13705.592,-3499.6007L13705.5756,-3499.6278L13705.5486,-3499.6793L13705.5459,-3499.6844L13705.5406,-3499.6924L13705.5106,-3499.737L13705.4532,-3499.8182L13705.4024,-3499.886L13705.3677,-3499.9347L13705.354,-3499.9517L13705.3437,-3499.9629L13705.2776,-3500.0631L13705.2555,-3500.0908L13705.2364,-3500.1195L13705.1892,-3500.19L13705.1673,-3500.2243L13705.1598,-3500.2215L13705.1112,-3500.2108L13705.1428,-3500.1249L13705.1456,-3500.1061L13705.1338,-3500.1043L13705.0148,-3500.0852L13705.0113,-3500.0683L13704.997,-3500.0316L13704.9922,-3500.017L13704.8969,-3500.0004L13704.8858,-3499.9988L13704.7596,-3499.9776L13704.7385,-3500.0354L13704.7316,-3500.0795L13704.7171,-3500.1284L13704.6933,-3500.1241L13704.6509,-3500.1139L13704.6441,-3500.1133L13704.6092,-3500.1054L13704.5853,-3500.1004L13704.5326,-3500.088L13704.5126,-3500.0834L13704.4849,-3500.076"/>
<path content="3,知立市,3コース,11.0,11.0,11.0," xlink:title="3" d="M13704.4849,-3500.076L13704.4834,-3500.0638L13704.4799,-3500.0187L13704.4758,-3499.9883L13704.4752,-3499.9815L13704.4718,-3499.9302L13704.4663,-3499.8964L13704.4663,-3499.8897L13704.4651,-3499.8677L13704.4567,-3499.8424L13704.443,-3499.7894L13704.4389,-3499.7691L13704.4362,-3499.7596L13704.4328,-3499.7438L13704.4321,-3499.7382L13704.4293,-3499.7308L13704.4273,-3499.7218L13704.4211,-3499.697L13704.4129,-3499.6621L13704.4129,-3499.6587L13704.3965,-3499.5973L13704.3898,-3499.5619L13704.3767,-3499.5106L13704.3733,-3499.4937L13704.3678,-3499.4734L13704.3603,-3499.4379L13704.3385,-3499.3187L13704.3368,-3499.3092L13704.3387,-3499.3059L13704.3567,-3499.2719L13704.3593,-3499.2679L13704.3659,-3499.2591L13704.3739,-3499.2509L13704.3981,-3499.2248L13704.4409,-3499.1688L13704.4516,-3499.1562L13704.4869,-3499.1796L13704.5193,-3499.197L13704.6017,-3499.2315L13704.6198,-3499.2377L13704.6205,-3499.238L13704.6523,-3499.172L13704.6653,-3499.1444L13704.6728,-3499.1287L13704.6892,-3499.0988"/>
<path content="3,知立市,3コース,11.0,11.0,11.0," xlink:title="3" d="M13704.0697,-3500.616L13704.0561,-3500.6306L13704.0693,-3500.6411L13704.1084,-3500.6102L13704.1221,-3500.595L13704.1294,-3500.5913L13704.1344,-3500.5892L13704.1399,-3500.5876L13704.1673,-3500.5634L13704.1905,-3500.5459L13704.2165,-3500.5257L13704.2809,-3500.475L13704.2898,-3500.4688L13704.3055,-3500.4552L13704.356,-3500.4248L13704.3904,-3500.4057L13704.3943,-3500.3902L13704.4014,-3500.3696L13704.4162,-3500.3251L13704.4299,-3500.2779L13704.4311,-3500.2722L13704.4328,-3500.2575L13704.4382,-3500.2316L13704.4451,-3500.2091L13704.4451,-3500.2063L13704.4574,-3500.1696L13704.4635,-3500.1544L13704.4799,-3500.1066L13704.4813,-3500.1012L13704.4827,-3500.093L13704.4849,-3500.076"/>
<path content="3,知立市,4コース,10.0,10.0,10.0," xlink:title="3" d="M13702.8114,-3498.3201L13702.7718,-3498.2225L13702.7585,-3498.2279L13702.712,-3498.2465L13702.686,-3498.2555L13702.6696,-3498.2634L13702.5677,-3498.3039L13702.5573,-3498.3082L13702.559,-3498.3201L13702.5605,-3498.3277L13702.5622,-3498.3349L13702.5666,-3498.3458L13702.5951,-3498.3899L13702.605,-3498.4063L13702.6126,-3498.4189L13702.6314,-3498.45L13702.6423,-3498.4681L13702.6533,-3498.4857L13702.6573,-3498.4921L13702.6641,-3498.5107L13702.6641,-3498.5264L13702.6539,-3498.5569L13702.6327,-3498.6126"/>
<path content="3,知立市,4コース,10.0,10.0,10.0," xlink:title="3" d="M13704.0258,-3498.5225L13704.0467,-3498.5064L13704.0736,-3498.4887L13704.0856,-3498.4797L13704.1129,-3498.4598L13704.1213,-3498.4544L13704.1494,-3498.4332L13704.1507,-3498.4322L13704.1618,-3498.4259L13704.1701,-3498.4194L13704.2289,-3498.3778L13704.3076,-3498.3248L13704.3169,-3498.3177L13704.3227,-3498.3147L13704.3705,-3498.2978L13704.402,-3498.2887L13704.4163,-3498.2859L13704.4333,-3498.2819L13704.4786,-3498.2792L13704.4793,-3498.2696L13704.4841,-3498.2414L13704.4841,-3498.2364L13704.4923,-3498.1891L13704.4943,-3498.1817L13704.4977,-3498.157L13704.5018,-3498.1333L13704.5134,-3498.0827L13704.5175,-3498.0647L13704.5189,-3498.0584L13704.5232,-3498.0469"/>
<path content="3,知立市,4コース,10.0,10.0,10.0," xlink:title="3" d="M13704.0258,-3498.5225L13704.0256,-3498.5218L13703.9887,-3498.5499L13703.9805,-3498.5556L13703.9658,-3498.5659L13703.9408,-3498.5834L13703.9171,-3498.5999L13703.9028,-3498.61L13703.8781,-3498.6273L13703.8604,-3498.6387L13703.8282,-3498.6594L13703.7974,-3498.6729L13703.7714,-3498.6819L13703.7331,-3498.6895L13703.7174,-3498.6926L13703.6818,-3498.6994L13703.6052,-3498.7129L13703.5648,-3498.7202L13703.5662,-3498.7281L13703.5676,-3498.7366L13703.5772,-3498.7726L13703.5785,-3498.776L13703.5847,-3498.7991L13703.5858,-3498.8094L13703.5867,-3498.8188L13703.5888,-3498.9506L13703.5888,-3498.9546L13703.5525,-3498.9546L13703.5054,-3498.9546L13703.4308,-3498.954L13703.3631,-3498.9523L13703.3597,-3498.9523L13703.3207,-3498.9529L13703.0977,-3498.9512L13703.0129,-3498.9512L13702.9644,-3498.9517L13702.8474,-3498.9517L13702.8331,-3498.9489"/>
<path content="3,知立市,4コース,10.0,10.0,10.0," xlink:title="3" d="M13702.6327,-3498.6126L13702.619,-3498.6481L13702.6069,-3498.6789L13702.6057,-3498.6819L13702.5996,-3498.6989L13702.5965,-3498.7074L13702.5888,-3498.7312L13702.5784,-3498.7597L13702.5778,-3498.7614L13702.5951,-3498.7653L13702.6634,-3498.7805L13702.6714,-3498.7823L13702.7202,-3498.7934L13702.8235,-3498.8177L13702.8365,-3498.8199L13702.8541,-3498.8225"/>
<path content="3,知立市,4コース,10.0,10.0,10.0," xlink:title="3" d="M13702.8541,-3498.8225L13702.8881,-3498.683L13702.9225,-3498.5334L13702.9165,-3498.5349L13702.8331,-3498.5591L13702.8208,-3498.5636L13702.792,-3498.5715L13702.7359,-3498.5879L13702.7304,-3498.5896L13702.7216,-3498.5924L13702.6736,-3498.607L13702.6327,-3498.6126"/>
<path content="3,知立市,4コース,10.0,10.0,10.0," xlink:title="3" d="M13702.8541,-3498.8225L13702.8331,-3498.9489"/>
<path content="3,知立市,4コース,10.0,10.0,10.0," xlink:title="3" d="M13702.8331,-3498.9489L13702.8319,-3498.9631L13702.8324,-3498.9751L13702.8337,-3498.9889L13702.8355,-3499.0033L13702.8382,-3499.0198L13702.8497,-3499.0633L13702.8595,-3499.0986L13702.862,-3499.1125L13702.8603,-3499.1281L13702.8522,-3499.1591L13702.8501,-3499.1641L13702.8298,-3499.2107L13702.8276,-3499.2127L13702.8142,-3499.2492L13702.8131,-3499.2521L13702.8105,-3499.2587L13702.8071,-3499.27L13702.7852,-3499.3286L13702.7674,-3499.3714L13702.7571,-3499.3934L13702.7551,-3499.4075L13702.7558,-3499.4362L13702.7612,-3499.468L13702.6737,-3499.4497L13702.552,-3499.421L13702.5403,-3499.4677L13702.5301,-3499.4998L13702.5246,-3499.5207L13702.5054,-3499.572L13702.4706,-3499.6125L13702.4802,-3499.6181L13702.5109,-3499.6334L13702.5725,-3499.6643L13702.6272,-3499.6947L13702.6901,-3499.7285L13702.7159,-3499.7425L13702.7276,-3499.7488L13702.738,-3499.7544L13702.7941,-3499.7916L13702.8447,-3499.8237"/>
<path content="3,知立市,4コース,10.0,10.0,10.0," xlink:title="3" d="M13703.4917,-3499.7686L13703.5152,-3499.6176"/>
<path content="3,知立市,4コース,10.0,10.0,10.0," xlink:title="3" d="M13703.4917,-3499.7686L13703.6223,-3499.7843L13703.6921,-3499.7939L13703.7222,-3499.7996L13703.7557,-3499.8086L13703.7694,-3499.8147L13703.7913,-3499.8271L13703.848,-3499.8683L13703.8552,-3499.8755"/>
<path content="3,知立市,4コース,10.0,10.0,10.0," xlink:title="3" d="M13702.8447,-3499.8237L13702.8128,-3499.8576L13702.7545,-3499.9214"/>
<path content="3,知立市,4コース,10.0,10.0,10.0," xlink:title="3" d="M13702.8447,-3499.8237L13702.8707,-3499.8418L13702.8926,-3499.8553L13702.9247,-3499.8761L13702.9415,-3499.8855L13702.9514,-3499.8914L13702.9581,-3499.8948L13702.9759,-3499.904L13702.9842,-3499.9088L13703.0471,-3499.946L13703.1066,-3499.9809L13703.1229,-3499.9911L13703.16,-3500.0125L13703.2481,-3500.0654L13703.2769,-3500.0806L13703.2831,-3500.0727L13703.3173,-3500.0378L13703.3535,-3499.9792L13703.359,-3499.9482L13703.3939,-3499.8987L13703.4076,-3499.8868L13703.4486,-3499.8615L13703.4657,-3499.8429L13703.4746,-3499.8277L13703.4821,-3499.8074L13703.4917,-3499.7686"/>
<path content="3,知立市,4コース,10.0,10.0,10.0," xlink:title="3" d="M13703.8552,-3499.8755L13703.9526,-3499.813L13704.0538,-3499.7432L13704.1421,-3499.6846L13704.1462,-3499.6813L13704.1764,-3499.6612L13704.2373,-3499.6229L13704.3103,-3499.5748L13704.3069,-3499.5444L13704.3021,-3499.5016L13704.3028,-3499.4593L13704.3042,-3499.4261L13704.3083,-3499.3861L13704.3131,-3499.3641L13704.3178,-3499.3489L13704.3213,-3499.3416L13704.3291,-3499.3246L13704.3348,-3499.3135L13704.3368,-3499.3092L13704.3387,-3499.3059L13704.3567,-3499.2719L13704.3593,-3499.2679L13704.3981,-3499.2248L13704.4409,-3499.1688L13704.4222,-3499.1569L13704.4014,-3499.1422L13704.3808,-3499.1255L13704.3446,-3499.0907L13704.3119,-3499.0528L13704.2327,-3498.9617L13704.0155,-3498.9578L13703.9399,-3498.9594L13703.9061,-3498.9587L13703.8748,-3498.9581L13703.8227,-3498.9571L13703.8519,-3498.9189L13703.8698,-3498.8949L13703.9341,-3498.814L13703.9365,-3498.8106L13703.9395,-3498.8064L13703.9718,-3498.7631L13703.9821,-3498.7467L13703.9957,-3498.7214L13703.9976,-3498.7175L13703.998,-3498.7166L13704.0074,-3498.6971L13704.0094,-3498.6898L13704.0139,-3498.6756L13704.0265,-3498.6358L13704.0303,-3498.6151L13704.0306,-3498.6139L13704.0327,-3498.6025L13704.034,-3498.5879L13704.032,-3498.5558L13704.0258,-3498.5225"/>
<path content="3,知立市,4コース,10.0,10.0,10.0," xlink:title="3" d="M13703.8552,-3499.8755L13703.9294,-3499.9505L13703.9314,-3499.9533L13703.9472,-3499.9663L13703.9978,-3500.0057L13704.0134,-3500.0215L13704.138,-3500.1172L13704.0817,-3500.1588L13704.019,-3500.2181L13703.8762,-3500.3298L13703.7755,-3500.4121L13703.6887,-3500.4789L13703.6297,-3500.5239L13703.6229,-3500.529L13703.6183,-3500.5319L13703.5995,-3500.5457L13703.5743,-3500.5634L13703.5394,-3500.5893L13703.5251,-3500.6L13703.5018,-3500.6158"/>
<path content="3,知立市,4コース,10.0,10.0,10.0," xlink:title="3" d="M13702.7545,-3499.9214L13702.7202,-3499.9589L13702.6847,-3499.9978L13702.6096,-3500.1651L13702.5766,-3500.2626L13702.5736,-3500.2615L13702.5493,-3500.2524L13702.5034,-3500.2338L13702.4665,-3500.2197L13702.4229,-3500.2011L13702.3899,-3500.1871L13702.3427,-3500.1662L13702.3345,-3500.1634L13702.303,-3500.1499L13702.2594,-3500.1313L13702.3084,-3500.0316L13702.3673,-3499.9893L13702.5282,-3499.8822L13702.5357,-3499.8765L13702.5513,-3499.8666L13702.5732,-3499.8525L13702.5855,-3499.8468L13702.6012,-3499.8446L13702.6238,-3499.8457L13702.6347,-3499.8485L13702.6504,-3499.8559L13702.7545,-3499.9214"/>
<path content="3,知立市,4コース,10.0,10.0,10.0," xlink:title="3" d="M13703.5018,-3500.6158L13703.5393,-3500.6334L13703.5668,-3500.6428L13703.6314,-3500.6705L13703.6506,-3500.6799L13703.6719,-3500.6923L13703.6963,-3500.7069L13703.7238,-3500.7211L13703.7433,-3500.7349L13703.7677,-3500.7517L13703.7966,-3500.7717L13703.8303,-3500.7947L13703.8536,-3500.8114L13703.8831,-3500.7865L13703.9023,-3500.7713L13703.9625,-3500.7251L13703.9919,-3500.7009L13703.9954,-3500.6992L13704.0522,-3500.6558L13704.0693,-3500.6411L13704.0818,-3500.6312L13704.0697,-3500.616"/>
<path content="3,知立市,4コース,10.0,10.0,10.0," xlink:title="3" d="M13703.5018,-3500.6158L13703.3895,-3500.7025L13703.4286,-3500.7257L13703.4313,-3500.7273L13703.4436,-3500.7354L13703.4376,-3500.7395L13703.4395,-3500.7576L13703.4646,-3500.7739L13703.4894,-3500.7904L13703.5003,-3500.7975L13703.5163,-3500.8076L13703.544,-3500.8238L13703.484,-3500.8541L13703.4723,-3500.8597L13703.4511,-3500.8698L13703.4361,-3500.8783L13703.4121,-3500.89L13703.3625,-3500.9014L13703.3452,-3500.9138L13703.3306,-3500.8935L13703.2916,-3500.8411L13703.2649,-3500.8051L13703.2567,-3500.7966L13703.2224,-3500.7577L13703.1923,-3500.7228L13703.1643,-3500.6907"/>
<path content="3,知立市,4コース,10.0,10.0,10.0," xlink:title="3" d="M13703.1643,-3500.6907L13703.128,-3500.649L13703.1821,-3500.5904L13703.193,-3500.578L13703.2519,-3500.5211L13703.3151,-3500.4789L13703.3806,-3500.4592L13703.4237,-3500.4378L13703.497,-3500.395L13703.5189,-3500.3814L13703.5306,-3500.3736L13703.6081,-3500.3065L13703.6498,-3500.2758L13703.636,-3500.2699L13703.6196,-3500.2614L13703.556,-3500.231L13703.4506,-3500.1814L13703.4465,-3500.1786L13703.4206,-3500.1657L13703.5451,-3500.0877L13703.5997,-3500.0457L13703.6353,-3500.0221L13703.7735,-3499.9302L13703.8213,-3499.8976L13703.8261,-3499.8953L13703.8507,-3499.8784L13703.8552,-3499.8755"/>
<path content="3,知立市,4コース,10.0,10.0,10.0," xlink:title="3" d="M13703.1643,-3500.6907L13703.1748,-3500.6859"/>
<path content="3,豊田市,高岡ふれあいバス_01_on,13.0,10.0,10.0," xlink:title="3" d="M13704.0697,-3500.616L13704.0561,-3500.6306L13704.0693,-3500.6411L13704.0522,-3500.6558L13703.9954,-3500.6992L13703.9919,-3500.7009L13703.9625,-3500.7251L13703.9023,-3500.7713L13703.8831,-3500.7865L13703.8536,-3500.8114L13703.7956,-3500.8593L13703.7259,-3500.915L13703.7804,-3500.9493L13703.8275,-3500.9799L13703.8901,-3501.0177L13703.894,-3501.0194L13703.9125,-3501.0307L13703.9256,-3501.0392L13703.9726,-3501.0699L13704.0085,-3501.0927L13704.0484,-3501.1185L13704.1096,-3501.1586L13704.1601,-3501.1919L13704.2004,-3501.2182L13704.2785,-3501.2669L13704.2809,-3501.2684L13704.3036,-3501.2826L13704.3595,-3501.3195L13704.3704,-3501.3271L13704.4099,-3501.3522L13704.4491,-3501.3749L13704.4672,-3501.3864L13704.4869,-3501.4L13704.4989,-3501.4067L13704.522,-3501.4207L13704.5559,-3501.4383L13704.5814,-3501.4503L13704.6422,-3501.4796L13704.6549,-3501.4858L13704.6858,-3501.5012L13704.6959,-3501.5059L13704.701,-3501.5083L13704.7146,-3501.5154L13704.7216,-3501.5189L13704.7301,-3501.5223L13704.7361,-3501.5249L13704.7429,-3501.529L13704.7917,-3501.5526L13704.8598,-3501.5852L13704.96,-3501.634L13704.9963,-3501.6507L13705.012,-3501.6591"/>
<path content="3,豊田市,高岡ふれあいバス_01_on,13.0,10.0,10.0," xlink:title="3" d="M13705.012,-3501.6591L13705.0236,-3501.6666L13705.0861,-3501.6959L13705.1722,-3501.7374L13705.3139,-3501.8047L13705.344,-3501.8194L13705.3653,-3501.8311L13705.4151,-3501.8517L13705.4442,-3501.8669L13705.4717,-3501.8788L13705.4902,-3501.8858L13705.5005,-3501.8884L13705.5208,-3501.8955L13705.5324,-3501.8991L13705.5518,-3501.9038L13705.5822,-3501.9112L13705.5916,-3501.913L13705.6007,-3501.9143L13705.61,-3501.9154L13705.6199,-3501.9161L13705.6309,-3501.9177L13705.6683,-3501.919L13705.6842,-3501.9182L13705.7051,-3501.918L13705.7079,-3501.918L13705.7489,-3501.9141L13705.7672,-3501.9104L13705.8123,-3501.9039L13705.8444,-3501.8974L13705.8785,-3501.8911L13705.8834,-3501.8893L13705.8891,-3501.8864L13705.8984,-3501.8838L13706.0234,-3501.8601L13706.0814,-3501.8508L13706.1811,-3501.8313L13706.1922,-3501.8292L13706.282,-3501.8123L13706.2924,-3501.8102L13706.3055,-3501.8077L13706.3973,-3501.7904L13706.4238,-3501.7836L13706.3936,-3501.765L13706.3463,-3501.7364L13706.3133,-3501.7163L13706.2567,-3501.6861L13706.1999,-3501.6524L13706.1916,-3501.6478L13706.1218,-3501.6067L13706.089,-3501.5881L13706.0397,-3501.5594L13706.0082,-3501.5402L13705.9965,-3501.5341L13705.9849,-3501.5273L13705.9642,-3501.5142L13705.8426,-3501.4457L13705.7939,-3501.4174L13705.7577,-3501.3963L13705.7398,-3501.4045L13705.7313,-3501.4082L13705.6989,-3501.4183L13705.6748,-3501.4276L13705.6318,-3501.4432L13705.5782,-3501.4552L13705.5063,-3501.4721L13705.502,-3501.4732L13705.4858,-3501.4771L13705.4625,-3501.4828L13705.4413,-3501.4884L13705.3749,-3501.5047L13705.3448,-3501.5115L13705.3252,-3501.5168L13705.2929,-3501.5239L13705.2647,-3501.5329L13705.2449,-3501.5401L13705.2258,-3501.5476L13705.1887,-3501.5629L13705.1437,-3501.5791L13705.0967,-3501.5981L13705.0599,-3501.6129L13705.0497,-3501.6185L13705.0381,-3501.6292L13705.0271,-3501.6433L13705.012,-3501.6591"/>
<path content="3,豊田市,高岡ふれあいバス_01_on,13.0,10.0,10.0," xlink:title="3" d="M13705.012,-3501.6591L13705.0004,-3501.6766L13704.9456,-3501.7549L13704.8909,-3501.8337L13704.8719,-3501.8608L13704.8617,-3501.8794L13704.8198,-3501.9368L13704.8142,-3501.9481L13704.8003,-3501.9888L13704.8017,-3502.031L13704.8079,-3502.0543L13704.8101,-3502.0607L13704.8224,-3502.0799L13704.832,-3502.0883L13704.8573,-3502.1069L13704.8974,-3502.1385L13704.9299,-3502.1627L13704.947,-3502.1768L13704.9497,-3502.1779L13704.9573,-3502.1841L13704.9819,-3502.2055L13705.004,-3502.2269L13705.0141,-3502.2348L13705.0456,-3502.2675L13705.0558,-3502.2796L13705.0771,-3502.3007L13705.1133,-3502.3323L13705.1565,-3502.3808L13705.177,-3502.4066L13705.1852,-3502.4224L13705.1929,-3502.4414"/>
</g>
</svg>
