<?xml version="1.0" encoding="UTF-8"?>
<svg  xmlns="http://www.w3.org/2000/svg" xmlns:xlink="http://www.w3.org/1999/xlink" xmlns:go="http://purl.org/svgmap/profile" property="N07_001,N07_002,N07_003,N07_004,N07_005,N07_006,N07_007" viewBox="13886.71875 -3462.890625 17.578125 17.578125" go:dataArea="13886.71875 -3462.890625 17.578125 17.578125" >
<metadata>
 <rdf:RDF xmlns:rdf="http://www.w3.org/1999/02/22-rdf-syntax-ns#" xmlns:crs="http://opengis.org/xmldtds/transformations.dtd" xmlns:svg="http://www.w3.org/svg" >
  <rdf:Description>
   <crs:CoordinateReferenceSystem rdf:resource="http://purl.org/crs/84" svg:transform="matrix(100.0,0.0,0.0,-100.0,0.0,0.0)" />
  </rdf:Description>
 </rdf:RDF>
</metadata>
<globalCoordinateSystem srsName="http://purl.org/crs/84" transform="matrix(100.0,0.0,0.0,-100.0,0.0,0.0)" />
<defs>
 <g id="p0" >
  <circle cx="0.0" cy="0.0" r="3" stroke="green" stroke-width="0.75" vector-effect="non-scaling-stroke" />
 </g>
</defs>
<g fill="none" fill-rule="evenodd" stroke="#FF00FF" stroke-width="0.75" opacity="0.5" vector-effect="non-scaling-stroke" stroke-linejoin="bevel" >
<path content="1,（株）南伊豆東海バス,下田～仲木,1.5,2.0,2.0," xlink:title="1" d="M13888.8101,-3462.8906L13888.8136,-3462.8871L13888.8374,-3462.8517L13888.8538,-3462.8241L13888.8592,-3462.8083L13888.8606,-3462.7987L13888.8588,-3462.7828L13888.8518,-3462.7687L13888.8393,-3462.7525L13888.8204,-3462.7327L13888.802,-3462.7248L13888.7748,-3462.7212L13888.7578,-3462.7221L13888.7312,-3462.7283L13888.7053,-3462.7322L13888.6828,-3462.7328L13888.6651,-3462.7351L13888.6351,-3462.7294L13888.614,-3462.7221L13888.584,-3462.7064L13888.5567,-3462.6891L13888.5237,-3462.6653L13888.5047,-3462.6489L13888.4941,-3462.6348L13888.4771,-3462.6021L13888.4703,-3462.5858L13888.46,-3462.5723L13888.4546,-3462.5672L13888.4355,-3462.5559L13888.413,-3462.5469L13888.3272,-3462.5114L13888.2925,-3462.4968L13888.2741,-3462.4946L13888.2175,-3462.4974L13888.2094,-3462.4963L13888.1835,-3462.4872L13888.1671,-3462.4788L13888.1172,-3462.4468L13888.1024,-3462.4377L13888.0881,-3462.4321L13888.0758,-3462.4298L13888.0629,-3462.4298L13888.0472,-3462.4321L13888.0284,-3462.4369L13888.0166,-3462.4399L13887.9266,-3462.4631L13887.9096,-3462.4693L13887.8728,-3462.4783L13887.8656,-3462.4795L13887.8411,-3462.4818L13887.8326,-3462.4811L13887.8231,-3462.4783L13887.8059,-3462.4698L13887.7992,-3462.4665L13887.7849,-3462.4518L13887.7806,-3462.4441L13887.7706,-3462.4265L13887.7502,-3462.3893L13887.7427,-3462.3752L13887.7345,-3462.3617L13887.7134,-3462.3392L13887.6753,-3462.3155L13887.6337,-3462.2947L13887.6214,-3462.2902L13887.6099,-3462.2885L13887.5704,-3462.2885L13887.5629,-3462.2896L13887.4818,-3462.2902L13887.4538,-3462.2872L13887.4409,-3462.2812L13887.4201,-3462.2672L13887.412,-3462.2598L13887.4075,-3462.2536L13887.4021,-3462.2429L13887.3994,-3462.2327L13887.3973,-3462.2096L13887.3987,-3462.1623L13887.4034,-3462.1189L13887.4028,-3462.0885L13887.4,-3462.075L13887.3905,-3462.0581L13887.3776,-3462.0406L13887.3294,-3461.9882L13887.3217,-3461.9798L13887.3149,-3461.9758L13887.2979,-3461.9708L13887.2849,-3461.9702L13887.272,-3461.9713L13887.2556,-3461.9753L13887.1875,-3462.0025L13887.1718,-3462.0083L13887.1432,-3462.0179L13887.1262,-3462.0207L13887.1037,-3462.0224L13887.0853,-3462.0202L13887.0635,-3462.0151L13886.9855,-3461.9881L13886.9204,-3461.9661L13886.898,-3461.9622L13886.8898,-3461.9622L13886.881,-3461.9622L13886.853,-3461.9661L13886.8183,-3461.9734L13886.7291,-3461.9976L13886.7277,-3461.9988L13886.7187,-3462.0014"/>
<path content="1,（株）南伊豆東海バス,下田～吉祥,9.5,9.5,9.5," xlink:title="1" d="M13886.7187,-3462.0014L13886.7277,-3461.9988L13886.7291,-3461.9976L13886.8183,-3461.9734L13886.853,-3461.9661L13886.881,-3461.9622L13886.8898,-3461.9622L13886.898,-3461.9622L13886.9204,-3461.9661L13886.9855,-3461.9881L13887.0635,-3462.0151L13887.0853,-3462.0202L13887.1037,-3462.0224L13887.1262,-3462.0207L13887.1432,-3462.0179L13887.1718,-3462.0083L13887.1875,-3462.0025L13887.2556,-3461.9753L13887.272,-3461.9713L13887.2849,-3461.9702L13887.2979,-3461.9708L13887.3149,-3461.9758L13887.3217,-3461.9798L13887.3294,-3461.9882L13887.3776,-3462.0406L13887.3905,-3462.0581L13887.4,-3462.075L13887.4028,-3462.0885L13887.4034,-3462.1189L13887.3987,-3462.1623L13887.3973,-3462.2096L13887.3994,-3462.2327L13887.4021,-3462.2429L13887.4075,-3462.2536L13887.412,-3462.2598L13887.4201,-3462.2672L13887.4409,-3462.2812L13887.4538,-3462.2872L13887.4818,-3462.2902L13887.5629,-3462.2896L13887.5704,-3462.2885L13887.6099,-3462.2885L13887.6214,-3462.2902L13887.6337,-3462.2947L13887.6753,-3462.3155L13887.7134,-3462.3392L13887.7345,-3462.3617L13887.7427,-3462.3752L13887.7502,-3462.3893L13887.7706,-3462.4265L13887.7806,-3462.4441L13887.7849,-3462.4518L13887.7992,-3462.4665L13887.8059,-3462.4698L13887.8231,-3462.4783L13887.8326,-3462.4811L13887.8411,-3462.4818L13887.8656,-3462.4795L13887.8728,-3462.4783L13887.9096,-3462.4693L13887.9266,-3462.4631L13888.0166,-3462.4399L13888.0284,-3462.4369L13888.0472,-3462.4321L13888.0629,-3462.4298L13888.0758,-3462.4298L13888.0881,-3462.4321L13888.1024,-3462.4377L13888.1172,-3462.4468L13888.1671,-3462.4788L13888.1835,-3462.4872L13888.2094,-3462.4963L13888.2175,-3462.4974L13888.2741,-3462.4946L13888.2925,-3462.4968L13888.3272,-3462.5114L13888.413,-3462.5469L13888.4355,-3462.5559L13888.4546,-3462.5672L13888.46,-3462.5723L13888.4703,-3462.5858L13888.4771,-3462.6021L13888.4941,-3462.6348L13888.5047,-3462.6489L13888.5237,-3462.6653L13888.5567,-3462.6891L13888.584,-3462.7064L13888.614,-3462.7221L13888.6351,-3462.7294L13888.6651,-3462.7351L13888.6828,-3462.7328L13888.7053,-3462.7322L13888.7312,-3462.7283L13888.7578,-3462.7221L13888.7748,-3462.7212L13888.802,-3462.7248L13888.8204,-3462.7327L13888.8393,-3462.7525L13888.8518,-3462.7687L13888.8588,-3462.7828L13888.8606,-3462.7987L13888.8592,-3462.8083L13888.8538,-3462.8241L13888.8374,-3462.8517L13888.8136,-3462.8871L13888.8101,-3462.8906"/>
<path content="1,（株）南伊豆東海バス,下田～石廊崎港,16.0,16.0,16.0," xlink:title="1" d="M13888.8101,-3462.8906L13888.8136,-3462.8871L13888.8374,-3462.8517L13888.8538,-3462.8241L13888.8592,-3462.8083L13888.8606,-3462.7987L13888.8588,-3462.7828L13888.8518,-3462.7687L13888.8393,-3462.7525L13888.8204,-3462.7327L13888.802,-3462.7248L13888.7748,-3462.7212L13888.7578,-3462.7221L13888.7312,-3462.7283L13888.7053,-3462.7322L13888.6828,-3462.7328L13888.6651,-3462.7351L13888.6351,-3462.7294L13888.614,-3462.7221L13888.584,-3462.7064L13888.5567,-3462.6891L13888.5237,-3462.6653L13888.5047,-3462.6489L13888.4941,-3462.6348L13888.4771,-3462.6021L13888.4703,-3462.5858L13888.46,-3462.5723L13888.4546,-3462.5672L13888.4355,-3462.5559L13888.413,-3462.5469L13888.3272,-3462.5114L13888.2925,-3462.4968L13888.2741,-3462.4946L13888.2175,-3462.4974L13888.2094,-3462.4963L13888.1835,-3462.4872L13888.1671,-3462.4788L13888.1172,-3462.4468L13888.1024,-3462.4377L13888.0881,-3462.4321L13888.0758,-3462.4298L13888.0629,-3462.4298L13888.0472,-3462.4321L13888.0284,-3462.4369L13888.0166,-3462.4399L13887.9266,-3462.4631L13887.9096,-3462.4693L13887.8728,-3462.4783L13887.8656,-3462.4795L13887.8411,-3462.4818L13887.8326,-3462.4811L13887.8231,-3462.4783L13887.8059,-3462.4698L13887.7992,-3462.4665L13887.7849,-3462.4518L13887.7806,-3462.4441L13887.7706,-3462.4265L13887.7502,-3462.3893L13887.7427,-3462.3752L13887.7345,-3462.3617L13887.7134,-3462.3392L13887.6753,-3462.3155L13887.6337,-3462.2947L13887.6214,-3462.2902L13887.6099,-3462.2885L13887.5704,-3462.2885L13887.5629,-3462.2896L13887.4818,-3462.2902L13887.4538,-3462.2872L13887.4409,-3462.2812L13887.4201,-3462.2672L13887.412,-3462.2598L13887.4075,-3462.2536L13887.4021,-3462.2429L13887.3994,-3462.2327L13887.3973,-3462.2096L13887.3987,-3462.1623L13887.4034,-3462.1189L13887.4028,-3462.0885L13887.4,-3462.075L13887.3905,-3462.0581L13887.3776,-3462.0406L13887.3294,-3461.9882L13887.3217,-3461.9798L13887.3149,-3461.9758L13887.2979,-3461.9708L13887.2849,-3461.9702L13887.272,-3461.9713L13887.2556,-3461.9753L13887.1875,-3462.0025L13887.1718,-3462.0083L13887.1432,-3462.0179L13887.1262,-3462.0207L13887.1037,-3462.0224L13887.0853,-3462.0202L13887.0635,-3462.0151L13886.9855,-3461.9881L13886.9204,-3461.9661L13886.898,-3461.9622L13886.8898,-3461.9622L13886.881,-3461.9622L13886.853,-3461.9661L13886.8183,-3461.9734L13886.7291,-3461.9976L13886.7277,-3461.9988L13886.7187,-3462.0014"/>
</g>
</svg>
