<?xml version="1.0" encoding="UTF-8"?>
<svg  xmlns="http://www.w3.org/2000/svg" xmlns:xlink="http://www.w3.org/1999/xlink" xmlns:go="http://purl.org/svgmap/profile" property="N07_001,N07_002,N07_003,N07_004,N07_005,N07_006,N07_007" viewBox="13977.630615234375 -3568.90869140625 0.274658203125 0.274658203125" go:dataArea="13977.630615234375 -3568.90869140625 0.274658203125 0.274658203125" >
<metadata>
 <rdf:RDF xmlns:rdf="http://www.w3.org/1999/02/22-rdf-syntax-ns#" xmlns:crs="http://opengis.org/xmldtds/transformations.dtd" xmlns:svg="http://www.w3.org/svg" >
  <rdf:Description>
   <crs:CoordinateReferenceSystem rdf:resource="http://purl.org/crs/84" svg:transform="matrix(100.0,0.0,0.0,-100.0,0.0,0.0)" />
  </rdf:Description>
 </rdf:RDF>
</metadata>
<globalCoordinateSystem srsName="http://purl.org/crs/84" transform="matrix(100.0,0.0,0.0,-100.0,0.0,0.0)" />
<defs>
 <g id="p0" >
  <circle cx="0.0" cy="0.0" r="3" stroke="green" stroke-width="0.75" vector-effect="non-scaling-stroke" />
 </g>
</defs>
<g fill="none" fill-rule="evenodd" stroke="#FF00FF" stroke-width="0.75" opacity="0.5" vector-effect="non-scaling-stroke" stroke-linejoin="bevel" >
<path content="1,京成バス（株）,奈良～上野・東京ディズニーリゾート,0.5,0.5,0.5," xlink:title="1" d="M13977.676,-3568.634L13977.6735,-3568.677L13977.6692,-3568.7085L13977.6686,-3568.7098L13977.6681,-3568.7111L13977.6306,-3568.7987"/>
<path content="1,京浜急行バス（株）,北千住駅～羽田空港線,10.5,10.5,10.5," xlink:title="1" d="M13977.676,-3568.634L13977.6735,-3568.677L13977.6692,-3568.7085L13977.6686,-3568.7098L13977.6681,-3568.7111L13977.6306,-3568.7987"/>
<path content="1,京阪バス（株）,京都・大津⇔上野・TDR・千葉,1.0,1.0,1.0," xlink:title="1" d="M13977.676,-3568.634L13977.6735,-3568.677L13977.6692,-3568.7085L13977.6306,-3568.7986"/>
<path content="1,千葉中央バス,京都～上野・東京ディズニーリゾート,1.0,1.0,1.0," xlink:title="1" d="M13977.6306,-3568.7987L13977.6681,-3568.7111L13977.6686,-3568.7098L13977.6735,-3568.677L13977.676,-3568.634"/>
<path content="1,千葉交通,大阪なんば・京都駅～成田・銚子線,1.0,1.0,1.0," xlink:title="1" d="M13977.6605,-3568.634L13977.6563,-3568.6874L13977.652,-3568.7062L13977.6462,-3568.7251L13977.6324,-3568.7594L13977.6306,-3568.7634"/>
<path content="1,南海バス（株）,大阪（なんば）・京都⇔秋葉原・成田空港・銚子,1.0,1.0,1.0," xlink:title="1" d="M13977.676,-3568.634L13977.6735,-3568.677L13977.6692,-3568.7085L13977.6306,-3568.7986"/>
<path content="1,和歌山バス（株）,サウスウエーブ号和歌山・堺⇔横浜・上野・東京ディズニーリゾート・海浜幕張,1.0,1.0,1.0," xlink:title="1" d="M13977.676,-3568.634L13977.6735,-3568.677L13977.6692,-3568.7085L13977.6306,-3568.7986"/>
<path content="1,奈良交通（株）,やまと号　奈良-東京ディズニーリゾート・横浜線,1.0,1.0,1.0," xlink:title="1" d="M13977.676,-3568.634L13977.6735,-3568.677L13977.6692,-3568.7085L13977.6306,-3568.7986"/>
<path content="1,岩手県交通（株）,遠野・釜石号,1.0,1.0,1.0," xlink:title="1" d="M13977.6306,-3568.7987L13977.6681,-3568.7111L13977.6686,-3568.7098L13977.6692,-3568.7085L13977.6735,-3568.677L13977.676,-3568.634"/>
<path content="1,庄内交通（株）,高速バス　上野・秋葉原・東京,1.0,1.0,1.0," xlink:title="1" d="M13977.676,-3568.634L13977.6735,-3568.677L13977.6686,-3568.7098L13977.6681,-3568.7111L13977.6306,-3568.7987"/>
<path content="1,成田空港交通,和歌山線,1.0,1.0,1.0," xlink:title="1" d="M13977.676,-3568.634L13977.6735,-3568.677L13977.6692,-3568.7085L13977.6686,-3568.7098L13977.6681,-3568.7111L13977.6306,-3568.7987"/>
<path content="1,成田空港交通,有楽町千葉ニュータウン線,1.0,0.0,0.0," xlink:title="1" d="M13977.6605,-3568.634L13977.6563,-3568.6874L13977.652,-3568.7062L13977.6462,-3568.7251L13977.6324,-3568.7594L13977.6306,-3568.7634"/>
<path content="1,東京空港交通（株）,目白・九段・後楽園・秋葉原エリア～羽田空港線,5.0,5.0,5.0," xlink:title="1" d="M13977.676,-3568.634L13977.6735,-3568.677L13977.6692,-3568.7085L13977.6686,-3568.7098L13977.6681,-3568.7111L13977.6306,-3568.7987"/>
<path content="1,東武バスイースト,ミッドナイトアロー柏・我孫子,0.5,0.0,0.0," xlink:title="1" d="M13977.6306,-3568.7987L13977.6681,-3568.7111L13977.6686,-3568.7098L13977.6692,-3568.7085L13977.6735,-3568.677L13977.676,-3568.634"/>
<path content="1,東武バスセントラル（株）,北千住駅西口～羽田空港　直行バス,10.5,10.5,10.5," xlink:title="1" d="M13977.676,-3568.634L13977.6735,-3568.677L13977.6692,-3568.7085L13977.6686,-3568.7098L13977.6681,-3568.7111L13977.6306,-3568.7987"/>
<path content="3,中央区,北循環,36.0,36.0,33.0," xlink:title="3" d="M13977.6306,-3568.6998L13977.652,-3568.7062L13977.6681,-3568.7111L13977.6829,-3568.7155L13977.7502,-3568.7358L13977.8036,-3568.7516L13977.8467,-3568.7654L13977.8571,-3568.7642L13977.9053,-3568.7815"/>
</g>
</svg>
