<?xml version="1.0" encoding="UTF-8"?>
<svg  xmlns="http://www.w3.org/2000/svg" xmlns:xlink="http://www.w3.org/1999/xlink" xmlns:go="http://purl.org/svgmap/profile" property="N07_001,N07_002,N07_003,N07_004,N07_005,N07_006,N07_007" viewBox="13047.36328125 -3355.224609375 2.197265625 2.197265625" go:dataArea="13047.36328125 -3355.224609375 2.197265625 2.197265625" >
<metadata>
 <rdf:RDF xmlns:rdf="http://www.w3.org/1999/02/22-rdf-syntax-ns#" xmlns:crs="http://opengis.org/xmldtds/transformations.dtd" xmlns:svg="http://www.w3.org/svg" >
  <rdf:Description>
   <crs:CoordinateReferenceSystem rdf:resource="http://purl.org/crs/84" svg:transform="matrix(100.0,0.0,0.0,-100.0,0.0,0.0)" />
  </rdf:Description>
 </rdf:RDF>
</metadata>
<globalCoordinateSystem srsName="http://purl.org/crs/84" transform="matrix(100.0,0.0,0.0,-100.0,0.0,0.0)" />
<defs>
 <g id="p0" >
  <circle cx="0.0" cy="0.0" r="3" stroke="green" stroke-width="0.75" vector-effect="non-scaling-stroke" />
 </g>
</defs>
<g fill="none" fill-rule="evenodd" stroke="#FF00FF" stroke-width="0.75" opacity="0.5" vector-effect="non-scaling-stroke" stroke-linejoin="bevel" >
<path content="1,JR九州バス（株）,福岡～宮崎（フェニックス号）,6.0,6.0,6.0," xlink:title="1" d="M13047.7773,-3355.2246L13047.8006,-3355.2021L13047.8415,-3355.159L13047.8936,-3355.0986L13048.0501,-3354.9106L13048.1639,-3354.78L13048.2719,-3354.6597L13048.3155,-3354.6041L13048.343,-3354.5634L13048.3625,-3354.5313L13048.3781,-3354.5007L13048.3803,-3354.4964L13048.4058,-3354.4478L13048.4317,-3354.3939L13048.4677,-3354.2983L13048.4938,-3354.2128L13048.4978,-3354.1939L13048.5306,-3354.0421L13048.5586,-3353.9212L13048.5752,-3353.8666L13048.5898,-3353.8262L13048.6051,-3353.7921L13048.6331,-3353.7327L13048.6585,-3353.6914L13048.6942,-3353.6421L13048.7001,-3353.6338L13048.7421,-3353.5876L13048.7738,-3353.5509L13048.9149,-3353.3907L13049.0411,-3353.2734L13049.1255,-3353.2038L13049.1617,-3353.1855L13049.2384,-3353.1736L13049.3337,-3353.1782L13049.4006,-3353.1773L13049.4915,-3353.1589L13049.5605,-3353.1332"/>
<path content="1,JR九州バス（株）,福岡～宮崎（皆割フェニックス号）,1.0,1.0,1.0," xlink:title="1" d="M13047.7773,-3355.2246L13047.8006,-3355.2021L13047.8415,-3355.159L13047.8936,-3355.0986L13048.0501,-3354.9106L13048.1639,-3354.78L13048.2719,-3354.6597L13048.3155,-3354.6041L13048.343,-3354.5634L13048.3625,-3354.5313L13048.3781,-3354.5007L13048.3803,-3354.4964L13048.4058,-3354.4478L13048.4317,-3354.3939L13048.4677,-3354.2983L13048.4938,-3354.2128L13048.4978,-3354.1939L13048.5306,-3354.0421L13048.5586,-3353.9212L13048.5752,-3353.8666L13048.5898,-3353.8262L13048.6051,-3353.7921L13048.6331,-3353.7327L13048.6585,-3353.6914L13048.6942,-3353.6421L13048.7001,-3353.6338L13048.7421,-3353.5876L13048.7738,-3353.5509L13048.9149,-3353.3907L13049.0411,-3353.2734L13049.1255,-3353.2038L13049.1617,-3353.1855L13049.2384,-3353.1736L13049.3337,-3353.1782L13049.4006,-3353.1773L13049.4915,-3353.1589L13049.5605,-3353.1332"/>
<path content="1,JR九州バス（株）,福岡～鹿児島（桜島号）,23.0,23.0,23.0," xlink:title="1" d="M13047.7773,-3355.2246L13047.8006,-3355.2021L13047.8415,-3355.159L13047.8936,-3355.0986L13048.0501,-3354.9106L13048.1639,-3354.78L13048.2719,-3354.6597L13048.3155,-3354.6041L13048.343,-3354.5634L13048.3625,-3354.5313L13048.3781,-3354.5007L13048.3803,-3354.4964L13048.4058,-3354.4478L13048.4317,-3354.3939L13048.4677,-3354.2983L13048.4938,-3354.2128L13048.4978,-3354.1939L13048.5306,-3354.0421L13048.5586,-3353.9212L13048.5752,-3353.8666L13048.5898,-3353.8262L13048.6051,-3353.7921L13048.6331,-3353.7327L13048.6585,-3353.6914L13048.6942,-3353.6421L13048.7001,-3353.6338L13048.7421,-3353.5876L13048.7738,-3353.5509L13048.9149,-3353.3907L13049.0411,-3353.2734L13049.1255,-3353.2038L13049.1617,-3353.1855L13049.2384,-3353.1736L13049.3337,-3353.1782L13049.4006,-3353.1773L13049.4915,-3353.1589L13049.5605,-3353.1332"/>
<path content="1,いわさきバスネットワーク（株）,鹿児島～福岡（桜島号）,23.0,23.0,23.0," xlink:title="1" d="M13049.5605,-3353.1332L13049.4915,-3353.1589L13049.4006,-3353.1773L13049.3337,-3353.1782L13049.2384,-3353.1736L13049.1617,-3353.1855L13049.1255,-3353.2038L13049.0411,-3353.2734L13048.9149,-3353.3907L13048.7738,-3353.5509L13048.7421,-3353.5876L13048.7001,-3353.6338L13048.6942,-3353.6421L13048.6585,-3353.6914L13048.6331,-3353.7327L13048.6051,-3353.7921L13048.5898,-3353.8262L13048.5752,-3353.8666L13048.5586,-3353.9212L13048.5306,-3354.0421L13048.4978,-3354.1939L13048.4938,-3354.2128L13048.4677,-3354.2983L13048.4317,-3354.3939L13048.4058,-3354.4478L13048.3803,-3354.4964L13048.3781,-3354.5007L13048.3625,-3354.5313L13048.343,-3354.5634L13048.3155,-3354.6041L13048.2719,-3354.6597L13048.1639,-3354.78L13048.0501,-3354.9106L13047.8936,-3355.0986L13047.8415,-3355.159L13047.8006,-3355.2021L13047.7773,-3355.2246"/>
<path content="1,いわさきバスネットワーク（株）,鹿児島～福岡（桜島号）夜行便,1.0,1.0,1.0," xlink:title="1" d="M13049.5605,-3353.1332L13049.4915,-3353.1589L13049.4006,-3353.1773L13049.3337,-3353.1782L13049.2384,-3353.1736L13049.1617,-3353.1855L13049.1255,-3353.2038L13049.0411,-3353.2734L13048.9149,-3353.3907L13048.7738,-3353.5509L13048.7421,-3353.5876L13048.7001,-3353.6338L13048.6942,-3353.6421L13048.6585,-3353.6914L13048.6331,-3353.7327L13048.6051,-3353.7921L13048.5898,-3353.8262L13048.5752,-3353.8666L13048.5586,-3353.9212L13048.5306,-3354.0421L13048.4978,-3354.1939L13048.4938,-3354.2128L13048.4677,-3354.2983L13048.4317,-3354.3939L13048.4058,-3354.4478L13048.3803,-3354.4964L13048.3781,-3354.5007L13048.3625,-3354.5313L13048.343,-3354.5634L13048.3155,-3354.6041L13048.2719,-3354.6597L13048.1639,-3354.78L13048.0501,-3354.9106L13047.8936,-3355.0986L13047.8415,-3355.159L13047.8006,-3355.2021L13047.7773,-3355.2246"/>
<path content="1,九州急行バス（株）,福岡～長崎（スーパーノンストップ出島道路）,17.0,19.5,19.5," xlink:title="1" d="M13047.7773,-3355.2246L13047.8006,-3355.2021L13047.8415,-3355.159L13047.8936,-3355.0986L13048.0501,-3354.9106L13048.1639,-3354.78L13048.2719,-3354.6597L13048.3155,-3354.6041L13048.343,-3354.5634L13048.3625,-3354.5313L13048.3781,-3354.5007L13048.3803,-3354.4964L13048.4058,-3354.4478L13048.4317,-3354.3939L13048.4677,-3354.2983L13048.4938,-3354.2128L13048.4978,-3354.1939L13048.5306,-3354.0421L13048.5586,-3353.9212L13048.5752,-3353.8666L13048.5898,-3353.8262L13048.6051,-3353.7921L13048.6331,-3353.7327L13048.6585,-3353.6914L13048.6942,-3353.6421L13048.7001,-3353.6338L13048.7421,-3353.5876L13048.7738,-3353.5509L13048.9149,-3353.3907L13049.0411,-3353.2734L13049.1255,-3353.2038L13049.1617,-3353.1855L13049.2384,-3353.1736L13049.3337,-3353.1782L13049.4006,-3353.1773L13049.4915,-3353.1589L13049.5605,-3353.1332"/>
<path content="1,九州急行バス（株）,福岡～長崎（スーパーノンストップ（昭和町））,15.0,16.5,16.5," xlink:title="1" d="M13047.7773,-3355.2246L13047.8006,-3355.2021L13047.8415,-3355.159L13047.8936,-3355.0986L13048.0501,-3354.9106L13048.1639,-3354.78L13048.2719,-3354.6597L13048.3155,-3354.6041L13048.343,-3354.5634L13048.3625,-3354.5313L13048.3781,-3354.5007L13048.3803,-3354.4964L13048.4058,-3354.4478L13048.4317,-3354.3939L13048.4677,-3354.2983L13048.4938,-3354.2128L13048.4978,-3354.1939L13048.5306,-3354.0421L13048.5586,-3353.9212L13048.5752,-3353.8666L13048.5898,-3353.8262L13048.6051,-3353.7921L13048.6331,-3353.7327L13048.6585,-3353.6914L13048.6942,-3353.6421L13048.7001,-3353.6338L13048.7421,-3353.5876L13048.7738,-3353.5509L13048.9149,-3353.3907L13049.0411,-3353.2734L13049.1255,-3353.2038L13049.1617,-3353.1855L13049.2384,-3353.1736L13049.3337,-3353.1782L13049.4006,-3353.1773L13049.4915,-3353.1589L13049.5605,-3353.1332"/>
<path content="1,九州急行バス（株）,福岡～長崎（嬉野インター）,14.0,14.0,14.0," xlink:title="1" d="M13047.7773,-3355.2246L13047.8006,-3355.2021L13047.8415,-3355.159L13047.8936,-3355.0986L13048.0501,-3354.9106L13048.1639,-3354.78L13048.2719,-3354.6597L13048.3155,-3354.6041L13048.343,-3354.5634L13048.3625,-3354.5313L13048.3781,-3354.5007L13048.3803,-3354.4964L13048.4058,-3354.4478L13048.4317,-3354.3939L13048.4677,-3354.2983L13048.4938,-3354.2128L13048.4978,-3354.1939L13048.5306,-3354.0421L13048.5586,-3353.9212L13048.5752,-3353.8666L13048.5898,-3353.8262L13048.6051,-3353.7921L13048.6331,-3353.7327L13048.6585,-3353.6914L13048.6942,-3353.6421L13048.7001,-3353.6338L13048.7421,-3353.5876L13048.7738,-3353.5509L13048.9149,-3353.3907L13049.0411,-3353.2734L13049.1255,-3353.2038L13049.1617,-3353.1855L13049.2384,-3353.1736L13049.3337,-3353.1782L13049.4006,-3353.1773L13049.4915,-3353.1589L13049.5605,-3353.1332"/>
<path content="1,九州急行バス（株）,福岡～長崎（嬉野温泉　福岡空港）,4.0,4.0,4.0," xlink:title="1" d="M13047.7773,-3355.2246L13047.8006,-3355.2021L13047.8415,-3355.159L13047.8936,-3355.0986L13048.0501,-3354.9106L13048.1639,-3354.78L13048.2719,-3354.6597L13048.3155,-3354.6041L13048.343,-3354.5634L13048.3625,-3354.5313L13048.3781,-3354.5007L13048.3803,-3354.4964L13048.4058,-3354.4478L13048.4317,-3354.3939L13048.4677,-3354.2983L13048.4938,-3354.2128L13048.4978,-3354.1939L13048.5306,-3354.0421L13048.5586,-3353.9212L13048.5752,-3353.8666L13048.5898,-3353.8262L13048.6051,-3353.7921L13048.6331,-3353.7327L13048.6585,-3353.6914L13048.6942,-3353.6421L13048.7001,-3353.6338L13048.7421,-3353.5876L13048.7738,-3353.5509L13048.9149,-3353.3907L13049.0411,-3353.2734L13049.1255,-3353.2038L13049.1617,-3353.1855L13049.2384,-3353.1736L13049.3337,-3353.1782L13049.4006,-3353.1773L13049.4915,-3353.1589L13049.5605,-3353.1332"/>
<path content="1,九州急行バス（株）,福岡～長崎（福岡空港）,10.0,10.0,10.0," xlink:title="1" d="M13047.7773,-3355.2246L13047.8006,-3355.2021L13047.8415,-3355.159L13047.8936,-3355.0986L13048.0501,-3354.9106L13048.1639,-3354.78L13048.2719,-3354.6597L13048.3155,-3354.6041L13048.343,-3354.5634L13048.3625,-3354.5313L13048.3781,-3354.5007L13048.3803,-3354.4964L13048.4058,-3354.4478L13048.4317,-3354.3939L13048.4677,-3354.2983L13048.4938,-3354.2128L13048.4978,-3354.1939L13048.5306,-3354.0421L13048.5586,-3353.9212L13048.5752,-3353.8666L13048.5898,-3353.8262L13048.6051,-3353.7921L13048.6331,-3353.7327L13048.6585,-3353.6914L13048.6942,-3353.6421L13048.7001,-3353.6338L13048.7421,-3353.5876L13048.7738,-3353.5509L13048.9149,-3353.3907L13049.0411,-3353.2734L13049.1255,-3353.2038L13049.1617,-3353.1855L13049.2384,-3353.1736L13049.3337,-3353.1782L13049.4006,-3353.1773L13049.4915,-3353.1589L13049.5605,-3353.1332"/>
<path content="1,九州産交バス（株）,ひのくに号　スーパーノンストップ（益城インター口経由）熊本⇔天神・博多駅,13.5,13.0,13.0," xlink:title="1" d="M13047.7773,-3355.2246L13047.8006,-3355.2021L13047.8415,-3355.159L13047.8936,-3355.0986L13048.0501,-3354.9106L13048.1639,-3354.78L13048.2719,-3354.6597L13048.3155,-3354.6041L13048.343,-3354.5634L13048.3625,-3354.5313L13048.3781,-3354.5007L13048.3803,-3354.4964L13048.4058,-3354.4478L13048.4317,-3354.3939L13048.4677,-3354.2983L13048.4938,-3354.2128L13048.4978,-3354.1939L13048.5306,-3354.0421L13048.5586,-3353.9212L13048.5752,-3353.8666L13048.5898,-3353.8262L13048.6051,-3353.7921L13048.6331,-3353.7327L13048.6585,-3353.6914L13048.6942,-3353.6421L13048.7001,-3353.6338L13048.7421,-3353.5876L13048.7738,-3353.5509L13048.9149,-3353.3907L13049.0411,-3353.2734L13049.1255,-3353.2038L13049.1617,-3353.1855L13049.2384,-3353.1736L13049.3337,-3353.1782L13049.4006,-3353.1773L13049.4915,-3353.1589L13049.5605,-3353.1332"/>
<path content="1,九州産交バス（株）,ひのくに号　（植木インター経由）熊本⇔天神・博多駅,8.5,9.0,9.0," xlink:title="1" d="M13047.7773,-3355.2246L13047.8006,-3355.2021L13047.8415,-3355.159L13047.8936,-3355.0986L13048.0501,-3354.9106L13048.1639,-3354.78L13048.2719,-3354.6597L13048.3155,-3354.6041L13048.343,-3354.5634L13048.3625,-3354.5313L13048.3781,-3354.5007L13048.3803,-3354.4964L13048.4058,-3354.4478L13048.4317,-3354.3939L13048.4677,-3354.2983L13048.4938,-3354.2128L13048.4978,-3354.1939L13048.5306,-3354.0421L13048.5586,-3353.9212L13048.5752,-3353.8666L13048.5898,-3353.8262L13048.6051,-3353.7921L13048.6331,-3353.7327L13048.6585,-3353.6914L13048.6942,-3353.6421L13048.7001,-3353.6338L13048.7421,-3353.5876L13048.7738,-3353.5509L13048.9149,-3353.3907L13049.0411,-3353.2734L13049.1255,-3353.2038L13049.1617,-3353.1855L13049.2384,-3353.1736L13049.3337,-3353.1782L13049.4006,-3353.1773L13049.4915,-3353.1589L13049.5605,-3353.1332"/>
<path content="1,九州産交バス（株）,福岡～宮崎　（スーパーフェニックス号）,16.0,16.0,16.0," xlink:title="1" d="M13047.7773,-3355.2246L13047.8006,-3355.2021L13047.8415,-3355.159L13047.8936,-3355.0986L13048.0501,-3354.9106L13048.1639,-3354.78L13048.2719,-3354.6597L13048.3155,-3354.6041L13048.343,-3354.5634L13048.3625,-3354.5313L13048.3781,-3354.5007L13048.3803,-3354.4964L13048.4058,-3354.4478L13048.4317,-3354.3939L13048.4677,-3354.2983L13048.4938,-3354.2128L13048.4978,-3354.1939L13048.5306,-3354.0421L13048.5586,-3353.9212L13048.5752,-3353.8666L13048.5898,-3353.8262L13048.6051,-3353.7921L13048.6331,-3353.7327L13048.6585,-3353.6914L13048.6942,-3353.6421L13048.7001,-3353.6338L13048.7421,-3353.5876L13048.7738,-3353.5509L13048.9149,-3353.3907L13049.0411,-3353.2734L13049.1255,-3353.2038L13049.1617,-3353.1855L13049.2384,-3353.1736L13049.3337,-3353.1782L13049.4006,-3353.1773L13049.4915,-3353.1589L13049.5605,-3353.1332"/>
<path content="1,九州産交バス（株）,福岡～宮崎　（フェニックス号）,8.0,8.0,8.0," xlink:title="1" d="M13047.7773,-3355.2246L13047.8006,-3355.2021L13047.8415,-3355.159L13047.8936,-3355.0986L13048.0501,-3354.9106L13048.1639,-3354.78L13048.2719,-3354.6597L13048.3155,-3354.6041L13048.343,-3354.5634L13048.3625,-3354.5313L13048.3781,-3354.5007L13048.3803,-3354.4964L13048.4058,-3354.4478L13048.4317,-3354.3939L13048.4677,-3354.2983L13048.4938,-3354.2128L13048.4978,-3354.1939L13048.5306,-3354.0421L13048.5586,-3353.9212L13048.5752,-3353.8666L13048.5898,-3353.8262L13048.6051,-3353.7921L13048.6331,-3353.7327L13048.6585,-3353.6914L13048.6942,-3353.6421L13048.7001,-3353.6338L13048.7421,-3353.5876L13048.7738,-3353.5509L13048.9149,-3353.3907L13049.0411,-3353.2734L13049.1255,-3353.2038L13049.1617,-3353.1855L13049.2384,-3353.1736L13049.3337,-3353.1782L13049.4006,-3353.1773L13049.4915,-3353.1589L13049.5605,-3353.1332"/>
<path content="1,九州産交バス（株）,福岡～黒川温泉,2.0,2.0,2.0," xlink:title="1" d="M13047.7773,-3355.2246L13047.8006,-3355.2021L13047.8415,-3355.159L13047.8936,-3355.0986L13048.0501,-3354.9106L13048.1639,-3354.78L13048.2719,-3354.6597L13048.3155,-3354.6041L13048.343,-3354.5634L13048.3625,-3354.5313L13048.3781,-3354.5007L13048.3803,-3354.4964L13048.4058,-3354.4478L13048.4317,-3354.3939L13048.4677,-3354.2983L13048.4938,-3354.2128L13048.4978,-3354.1939L13048.5306,-3354.0421L13048.5586,-3353.9212L13048.5752,-3353.8666L13048.5898,-3353.8262L13048.6051,-3353.7921L13048.6331,-3353.7327L13048.6585,-3353.6914L13048.6942,-3353.6421L13048.7001,-3353.6338L13048.7421,-3353.5876L13048.7738,-3353.5509L13048.9149,-3353.3907L13049.0411,-3353.2734L13049.1255,-3353.2038L13049.1617,-3353.1855L13049.2384,-3353.1736L13049.3337,-3353.1782L13049.4006,-3353.1773L13049.4915,-3353.1589L13049.5605,-3353.1332"/>
<path content="1,亀の井バス（株）,とよのくに号ノンストップ,16.0,16.0,16.0," xlink:title="1" d="M13049.5605,-3353.1332L13049.4915,-3353.1589L13049.4006,-3353.1773L13049.3337,-3353.1782L13049.2384,-3353.1736L13049.1617,-3353.1855L13049.1255,-3353.2038L13049.0411,-3353.2734L13048.9149,-3353.3907L13048.7738,-3353.5509L13048.7421,-3353.5876L13048.7001,-3353.6338L13048.6942,-3353.6421L13048.6585,-3353.6914L13048.6331,-3353.7327L13048.6051,-3353.7921L13048.5898,-3353.8262L13048.5752,-3353.8666L13048.5586,-3353.9212L13048.5306,-3354.0421L13048.4978,-3354.1939L13048.4938,-3354.2128L13048.4677,-3354.2983L13048.4317,-3354.3939L13048.4058,-3354.4478L13048.3803,-3354.4964L13048.3781,-3354.5007L13048.3625,-3354.5313L13048.343,-3354.5634L13048.3155,-3354.6041L13048.2719,-3354.6597L13048.1639,-3354.78L13048.0501,-3354.9106L13047.8936,-3355.0986L13047.8415,-3355.159L13047.8006,-3355.2021L13047.7773,-3355.2246"/>
<path content="1,亀の井バス（株）,とよのくに号ノンストップ福岡空港経由,16.0,14.0,14.0," xlink:title="1" d="M13049.5605,-3353.0944L13049.5253,-3353.1325L13049.4349,-3353.1672L13049.3957,-3353.1764L13049.3543,-3353.1807L13049.3236,-3353.1803L13049.2889,-3353.1739L13049.2478,-3353.1552L13049.2198,-3353.1415L13049.2081,-3353.1362L13049.176,-3353.1286L13049.1599,-3353.1266L13049.1508,-3353.1255L13049.1297,-3353.1252L13049.1089,-3353.1281L13049.0979,-3353.1312L13049.0883,-3353.1358L13049.0858,-3353.137L13049.0716,-3353.1466L13049.0612,-3353.1562L13049.0493,-3353.1754L13049.0428,-3353.1878L13049.0382,-3353.2032L13049.0337,-3353.2347L13049.0312,-3353.2471L13049.0281,-3353.2537L13049.022,-3353.2611L13049.008,-3353.2766L13048.958,-3353.3299L13048.9489,-3353.3417L13048.942,-3353.3505L13048.9149,-3353.3907L13048.7738,-3353.5509L13048.7421,-3353.5876L13048.7001,-3353.6338L13048.6942,-3353.6421L13048.6585,-3353.6914L13048.6331,-3353.7327L13048.6051,-3353.7921L13048.5898,-3353.8262L13048.5752,-3353.8666L13048.5586,-3353.9212L13048.5306,-3354.0421L13048.4978,-3354.1939L13048.4938,-3354.2128L13048.4677,-3354.2983L13048.4317,-3354.3939L13048.4058,-3354.4478L13048.3803,-3354.4964L13048.3781,-3354.5007L13048.3625,-3354.5313L13048.343,-3354.5634L13048.3155,-3354.6041L13048.2719,-3354.6597L13048.1639,-3354.78L13048.0501,-3354.9106L13047.8936,-3355.0986L13047.8415,-3355.159L13047.8006,-3355.2021L13047.7773,-3355.2246"/>
<path content="1,南国交通（株）,鹿児島～福岡（桜島号）,23.0,23.0,23.0," xlink:title="1" d="M13049.5605,-3353.1332L13049.4915,-3353.1589L13049.4006,-3353.1773L13049.3337,-3353.1782L13049.2384,-3353.1736L13049.1617,-3353.1855L13049.1255,-3353.2038L13049.0411,-3353.2734L13048.9149,-3353.3907L13048.7738,-3353.5509L13048.7421,-3353.5876L13048.7001,-3353.6338L13048.6942,-3353.6421L13048.6585,-3353.6914L13048.6331,-3353.7327L13048.6051,-3353.7921L13048.5898,-3353.8262L13048.5752,-3353.8666L13048.5586,-3353.9212L13048.5306,-3354.0421L13048.4978,-3354.1939L13048.4938,-3354.2128L13048.4677,-3354.2983L13048.4317,-3354.3939L13048.4058,-3354.4478L13048.3803,-3354.4964L13048.3781,-3354.5007L13048.3625,-3354.5313L13048.343,-3354.5634L13048.3155,-3354.6041L13048.2719,-3354.6597L13048.1639,-3354.78L13048.0501,-3354.9106L13047.8936,-3355.0986L13047.8415,-3355.159L13047.8006,-3355.2021L13047.7773,-3355.2246"/>
<path content="1,南国交通（株）,鹿児島～福岡（桜島号）夜行便,1.0,1.0,1.0," xlink:title="1" d="M13049.5605,-3353.1332L13049.4915,-3353.1589L13049.4006,-3353.1773L13049.3337,-3353.1782L13049.2384,-3353.1736L13049.1617,-3353.1855L13049.1255,-3353.2038L13049.0411,-3353.2734L13048.9149,-3353.3907L13048.7738,-3353.5509L13048.7421,-3353.5876L13048.7001,-3353.6338L13048.6942,-3353.6421L13048.6585,-3353.6914L13048.6331,-3353.7327L13048.6051,-3353.7921L13048.5898,-3353.8262L13048.5752,-3353.8666L13048.5586,-3353.9212L13048.5306,-3354.0421L13048.4978,-3354.1939L13048.4938,-3354.2128L13048.4677,-3354.2983L13048.4317,-3354.3939L13048.4058,-3354.4478L13048.3803,-3354.4964L13048.3781,-3354.5007L13048.3625,-3354.5313L13048.343,-3354.5634L13048.3155,-3354.6041L13048.2719,-3354.6597L13048.1639,-3354.78L13048.0501,-3354.9106L13047.8936,-3355.0986L13047.8415,-3355.159L13047.8006,-3355.2021L13047.7773,-3355.2246"/>
<path content="1,大分交通（株）,福岡線,68.0,68.0,68.0," xlink:title="1" d="M13049.5605,-3353.1332L13049.4915,-3353.1589L13049.4006,-3353.1773L13049.3337,-3353.1782L13049.2384,-3353.1736L13049.1617,-3353.1855L13049.1255,-3353.2038L13049.0411,-3353.2734L13048.9149,-3353.3907L13048.7738,-3353.5509L13048.7421,-3353.5876L13048.7001,-3353.6338L13048.6942,-3353.6421L13048.6585,-3353.6914L13048.6331,-3353.7327L13048.6051,-3353.7921L13048.5898,-3353.8262L13048.5752,-3353.8666L13048.5586,-3353.9212L13048.5306,-3354.0421L13048.4978,-3354.1939L13048.4938,-3354.2128L13048.4677,-3354.2983L13048.4317,-3354.3939L13048.4058,-3354.4478L13048.3803,-3354.4964L13048.3781,-3354.5007L13048.3625,-3354.5313L13048.343,-3354.5634L13048.3155,-3354.6041L13048.2719,-3354.6597L13048.1639,-3354.78L13048.0501,-3354.9106L13047.8936,-3355.0986L13047.8415,-3355.159L13047.8006,-3355.2021L13047.7773,-3355.2246"/>
<path content="1,宮崎交通（株）,宮崎～福岡（スーパーフェニックス号）,4.0,4.0,4.0," xlink:title="1" d="M13049.5605,-3353.1332L13049.4915,-3353.1589L13049.4006,-3353.1773L13049.3337,-3353.1782L13049.2384,-3353.1736L13049.1617,-3353.1855L13049.1255,-3353.2038L13049.0411,-3353.2734L13048.9149,-3353.3907L13048.7738,-3353.5509L13048.7421,-3353.5876L13048.7001,-3353.6338L13048.6942,-3353.6421L13048.6585,-3353.6914L13048.6331,-3353.7327L13048.6051,-3353.7921L13048.5898,-3353.8262L13048.5752,-3353.8666L13048.5586,-3353.9212L13048.5306,-3354.0421L13048.4978,-3354.1939L13048.4938,-3354.2128L13048.4677,-3354.2983L13048.4317,-3354.3939L13048.4058,-3354.4478L13048.3803,-3354.4964L13048.3781,-3354.5007L13048.3625,-3354.5313L13048.343,-3354.5634L13048.3155,-3354.6041L13048.2719,-3354.6597L13048.1639,-3354.78L13048.0501,-3354.9106L13047.8936,-3355.0986L13047.8415,-3355.159L13047.8006,-3355.2021L13047.7773,-3355.2246"/>
<path content="1,宮崎交通（株）,延岡-福岡,2.0,2.0,2.0," xlink:title="1" d="M13049.5605,-3353.1332L13049.4915,-3353.1589L13049.4006,-3353.1773L13049.3337,-3353.1782L13049.2384,-3353.1736L13049.1617,-3353.1855L13049.1255,-3353.2038L13049.0411,-3353.2734L13048.9149,-3353.3907L13048.7738,-3353.5509L13048.7421,-3353.5876L13048.7001,-3353.6338L13048.6942,-3353.6421L13048.6585,-3353.6914L13048.6331,-3353.7327L13048.6051,-3353.7921L13048.5898,-3353.8262L13048.5752,-3353.8666L13048.5586,-3353.9212L13048.5306,-3354.0421L13048.4978,-3354.1939L13048.4938,-3354.2128L13048.4677,-3354.2983L13048.4317,-3354.3939L13048.4058,-3354.4478L13048.3803,-3354.4964L13048.3781,-3354.5007L13048.3625,-3354.5313L13048.343,-3354.5634L13048.3155,-3354.6041L13048.2719,-3354.6597L13048.1639,-3354.78L13048.0501,-3354.9106L13047.8936,-3355.0986L13047.8415,-3355.159L13047.8006,-3355.2021L13047.7773,-3355.2246"/>
<path content="1,日田バス（株）,福岡・長崎～大分,8.0,8.0,8.0," xlink:title="1" d="M13049.5605,-3353.1332L13049.4915,-3353.1589L13049.4006,-3353.1773L13049.3337,-3353.1782L13049.2384,-3353.1736L13049.1617,-3353.1855L13049.1255,-3353.2038L13049.0411,-3353.2734L13048.9149,-3353.3907L13048.7738,-3353.5509L13048.7421,-3353.5876L13048.7001,-3353.6338L13048.6942,-3353.6421L13048.6585,-3353.6914L13048.6331,-3353.7327L13048.6051,-3353.7921L13048.5898,-3353.8262L13048.5752,-3353.8666L13048.5586,-3353.9212L13048.5306,-3354.0421L13048.4978,-3354.1939L13048.4938,-3354.2128L13048.4677,-3354.2983L13048.4317,-3354.3939L13048.4058,-3354.4478L13048.3803,-3354.4964L13048.3781,-3354.5007L13048.3625,-3354.5313L13048.343,-3354.5634L13048.3155,-3354.6041L13048.2719,-3354.6597L13048.1639,-3354.78L13048.0501,-3354.9106L13047.8936,-3355.0986L13047.8415,-3355.159L13047.8006,-3355.2021L13047.7773,-3355.2246"/>
<path content="1,臼津交通（株）,津久見駅-川内,2.0,0.5,0.5," xlink:title="1" d="M13049.5605,-3353.1332L13049.4915,-3353.1589L13049.4006,-3353.1773L13049.3337,-3353.1782L13049.2384,-3353.1736L13049.1617,-3353.1855L13049.1255,-3353.2038L13049.0411,-3353.2734L13048.9149,-3353.3907L13048.7738,-3353.5509L13048.7421,-3353.5876L13048.7001,-3353.6338L13048.6942,-3353.6421L13048.6585,-3353.6914L13048.6331,-3353.7327L13048.6051,-3353.7921L13048.5898,-3353.8262L13048.5752,-3353.8666L13048.5586,-3353.9212L13048.5306,-3354.0421L13048.4978,-3354.1939L13048.4938,-3354.2128L13048.4677,-3354.2983L13048.4317,-3354.3939L13048.4058,-3354.4478L13048.3803,-3354.4964L13048.3781,-3354.5007L13048.3625,-3354.5313L13048.343,-3354.5634L13048.3155,-3354.6041L13048.2719,-3354.6597L13048.1639,-3354.78L13048.0501,-3354.9106L13047.8936,-3355.0986L13047.8415,-3355.159L13047.8006,-3355.2021L13047.7773,-3355.2246"/>
<path content="1,西日本鉄道（株）,41,12.0,10.5,9.5," xlink:title="1" d="M13047.582,-3353.7383L13047.5983,-3353.717L13047.6339,-3353.7423L13047.7023,-3353.814L13047.5952,-3353.8949L13047.527,-3353.9454L13047.4908,-3353.9711L13047.4466,-3354.008L13047.4092,-3354.0444L13047.3804,-3354.0767L13047.3633,-3354.0995"/>
<path content="1,西日本鉄道（株）,福岡　～　佐賀,48.0,42.0,42.0," xlink:title="1" d="M13047.7773,-3355.2246L13047.8006,-3355.2021L13047.8415,-3355.159L13047.8936,-3355.0986L13048.0501,-3354.9106L13048.1639,-3354.78L13048.2719,-3354.6597L13048.3155,-3354.6041L13048.343,-3354.5634L13048.3625,-3354.5313L13048.3781,-3354.5007L13048.3803,-3354.4964L13048.4058,-3354.4478L13048.4317,-3354.3939L13048.4677,-3354.2983L13048.4938,-3354.2128L13048.4978,-3354.1939L13048.5306,-3354.0421L13048.5586,-3353.9212L13048.5752,-3353.8666L13048.5898,-3353.8262L13048.6051,-3353.7921L13048.6331,-3353.7327L13048.6585,-3353.6914L13048.6942,-3353.6421L13048.7001,-3353.6338L13048.7421,-3353.5876L13048.7738,-3353.5509L13048.9149,-3353.3907L13049.0411,-3353.2734L13049.1255,-3353.2038L13049.1617,-3353.1855L13049.2384,-3353.1736L13049.3337,-3353.1782L13049.4006,-3353.1773L13049.4915,-3353.1589L13049.5605,-3353.1332"/>
<path content="1,西日本鉄道（株）,福岡　～　島原,3.0,3.0,3.0," xlink:title="1" d="M13047.7773,-3355.2246L13047.8006,-3355.2021L13047.8415,-3355.159L13047.8936,-3355.0986L13048.0501,-3354.9106L13048.1639,-3354.78L13048.2719,-3354.6597L13048.3155,-3354.6041L13048.343,-3354.5634L13048.3625,-3354.5313L13048.3781,-3354.5007L13048.3803,-3354.4964L13048.4058,-3354.4478L13048.4317,-3354.3939L13048.4677,-3354.2983L13048.4938,-3354.2128L13048.4978,-3354.1939L13048.5306,-3354.0421L13048.5586,-3353.9212L13048.5752,-3353.8666L13048.5898,-3353.8262L13048.6051,-3353.7921L13048.6331,-3353.7327L13048.6585,-3353.6914L13048.6942,-3353.6421L13048.7001,-3353.6338L13048.7421,-3353.5876L13048.7738,-3353.5509L13048.9149,-3353.3907L13049.0411,-3353.2734L13049.1255,-3353.2038L13049.1617,-3353.1855L13049.2384,-3353.1736L13049.3337,-3353.1782L13049.4006,-3353.1773L13049.4915,-3353.1589L13049.5605,-3353.1332"/>
<path content="1,西日本鉄道（株）,福岡　～　鳥栖プレミアム・アウトレット,0.0,4.0,4.0," xlink:title="1" d="M13047.7773,-3355.2246L13047.8006,-3355.2021L13047.8415,-3355.159L13047.8936,-3355.0986L13048.0501,-3354.9106L13048.1639,-3354.78L13048.2719,-3354.6597L13048.3155,-3354.6041L13048.343,-3354.5634L13048.3625,-3354.5313L13048.3781,-3354.5007L13048.3803,-3354.4964L13048.4058,-3354.4478L13048.4317,-3354.3939L13048.4677,-3354.2983L13048.4938,-3354.2128L13048.4978,-3354.1939L13048.5306,-3354.0421L13048.5586,-3353.9212L13048.5752,-3353.8666L13048.5898,-3353.8262L13048.6051,-3353.7921L13048.6331,-3353.7327L13048.6585,-3353.6914L13048.6942,-3353.6421L13048.7001,-3353.6338L13048.7421,-3353.5876L13048.7738,-3353.5509L13048.9149,-3353.3907L13049.0411,-3353.2734L13049.1255,-3353.2038L13049.1617,-3353.1855L13049.2384,-3353.1736L13049.3337,-3353.1782L13049.4006,-3353.1773L13049.4915,-3353.1589L13049.5605,-3353.1332"/>
<path content="1,西日本鉄道（株）,福岡　～　鹿児島,23.0,23.0,23.0," xlink:title="1" d="M13047.7773,-3355.2246L13047.8006,-3355.2021L13047.8415,-3355.159L13047.8936,-3355.0986L13048.0501,-3354.9106L13048.1639,-3354.78L13048.2719,-3354.6597L13048.3155,-3354.6041L13048.343,-3354.5634L13048.3625,-3354.5313L13048.3781,-3354.5007L13048.3803,-3354.4964L13048.4058,-3354.4478L13048.4317,-3354.3939L13048.4677,-3354.2983L13048.4938,-3354.2128L13048.4978,-3354.1939L13048.5306,-3354.0421L13048.5586,-3353.9212L13048.5752,-3353.8666L13048.5898,-3353.8262L13048.6051,-3353.7921L13048.6331,-3353.7327L13048.6585,-3353.6914L13048.6942,-3353.6421L13048.7001,-3353.6338L13048.7421,-3353.5876L13048.7738,-3353.5509L13048.9149,-3353.3907L13049.0411,-3353.2734L13049.1255,-3353.2038L13049.1617,-3353.1855L13049.2384,-3353.1736L13049.3337,-3353.1782L13049.4006,-3353.1773L13049.4915,-3353.1589L13049.5605,-3353.1332"/>
<path content="1,西日本鉄道（株）,福岡・北九州　～　大阪・京都,1.0,1.0,1.0," xlink:title="1" d="M13047.7773,-3355.2246L13047.8006,-3355.2021L13047.8415,-3355.159L13047.8936,-3355.0986L13048.0501,-3354.9106L13048.1639,-3354.78L13048.2719,-3354.6597L13048.3155,-3354.6041L13048.343,-3354.5634L13048.3625,-3354.5313L13048.3781,-3354.5007L13048.3803,-3354.4964L13048.4058,-3354.4478L13048.4317,-3354.3939L13048.4677,-3354.2983L13048.4938,-3354.2128L13048.4978,-3354.1939L13048.5306,-3354.0421L13048.5586,-3353.9212L13048.5752,-3353.8666L13048.5898,-3353.8262L13048.6051,-3353.7921L13048.6331,-3353.7327L13048.6585,-3353.6914L13048.6942,-3353.6421L13048.7001,-3353.6338L13048.7421,-3353.5876L13048.7738,-3353.5509L13048.9149,-3353.3907L13049.0411,-3353.2734L13049.1255,-3353.2038L13049.1617,-3353.1855L13049.2384,-3353.1736L13049.3337,-3353.1782L13049.4006,-3353.1773L13049.4915,-3353.1589L13049.5605,-3353.1332"/>
<path content="1,西日本鉄道（株）,福岡空港　～　久留米,38.0,38.0,38.0," xlink:title="1" d="M13047.7773,-3355.2246L13047.8006,-3355.2021L13047.8415,-3355.159L13047.8936,-3355.0986L13048.0501,-3354.9106L13048.1639,-3354.78L13048.2719,-3354.6597L13048.3155,-3354.6041L13048.343,-3354.5634L13048.3625,-3354.5313L13048.3781,-3354.5007L13048.3803,-3354.4964L13048.4058,-3354.4478L13048.4317,-3354.3939L13048.4677,-3354.2983L13048.4938,-3354.2128L13048.4978,-3354.1939L13048.5306,-3354.0421L13048.5586,-3353.9212L13048.5752,-3353.8666L13048.5898,-3353.8262L13048.6051,-3353.7921L13048.6331,-3353.7327L13048.6585,-3353.6914L13048.6942,-3353.6421L13048.7001,-3353.6338L13048.7421,-3353.5876L13048.7738,-3353.5509L13048.9149,-3353.3907L13049.0411,-3353.2734L13049.1255,-3353.2038L13049.1617,-3353.1855L13049.2384,-3353.1736L13049.3337,-3353.1782L13049.4006,-3353.1773L13049.4915,-3353.1589L13049.5605,-3353.1332"/>
<path content="1,西日本鉄道（株）,福岡空港～佐賀（吉野ヶ里経由）,1.0,1.0,1.0," xlink:title="1" d="M13047.7773,-3355.2246L13047.8006,-3355.2021L13047.8415,-3355.159L13047.8936,-3355.0986L13048.0501,-3354.9106L13048.1639,-3354.78L13048.2719,-3354.6597L13048.3155,-3354.6041L13048.343,-3354.5634L13048.3625,-3354.5313L13048.3781,-3354.5007L13048.3803,-3354.4964L13048.4058,-3354.4478L13048.4317,-3354.3939L13048.4677,-3354.2983L13048.4938,-3354.2128L13048.4978,-3354.1939L13048.5306,-3354.0421L13048.5586,-3353.9212L13048.5752,-3353.8666L13048.5898,-3353.8262L13048.6051,-3353.7921L13048.6331,-3353.7327L13048.6585,-3353.6914L13048.6942,-3353.6421L13048.7001,-3353.6338L13048.7421,-3353.5876L13048.7738,-3353.5509L13048.9149,-3353.3907L13049.0411,-3353.2734L13049.1255,-3353.2038L13049.1617,-3353.1855L13049.2384,-3353.1736L13049.3337,-3353.1782L13049.4006,-3353.1773L13049.4915,-3353.1589L13049.5605,-3353.1332"/>
<path content="1,西日本鉄道（株）,福岡空港～佐賀（高志館高校経由）,16.0,16.0,16.0," xlink:title="1" d="M13047.7773,-3355.2246L13047.8006,-3355.2021L13047.8415,-3355.159L13047.8936,-3355.0986L13048.0501,-3354.9106L13048.1639,-3354.78L13048.2719,-3354.6597L13048.3155,-3354.6041L13048.343,-3354.5634L13048.3625,-3354.5313L13048.3781,-3354.5007L13048.3803,-3354.4964L13048.4058,-3354.4478L13048.4317,-3354.3939L13048.4677,-3354.2983L13048.4938,-3354.2128L13048.4978,-3354.1939L13048.5306,-3354.0421L13048.5586,-3353.9212L13048.5752,-3353.8666L13048.5898,-3353.8262L13048.6051,-3353.7921L13048.6331,-3353.7327L13048.6585,-3353.6914L13048.6942,-3353.6421L13048.7001,-3353.6338L13048.7421,-3353.5876L13048.7738,-3353.5509L13048.9149,-3353.3907L13049.0411,-3353.2734L13049.1255,-3353.2038L13049.1617,-3353.1855L13049.2384,-3353.1736L13049.3337,-3353.1782L13049.4006,-3353.1773L13049.4915,-3353.1589L13049.5605,-3353.1332"/>
<path content="1,西日本鉄道（株）,福岡空港～日田（ひた号・福岡空港通過）,28.0,27.0,27.0," xlink:title="1" d="M13047.7773,-3355.2246L13047.8006,-3355.2021L13047.8415,-3355.159L13047.8936,-3355.0986L13048.0501,-3354.9106L13048.1639,-3354.78L13048.2719,-3354.6597L13048.3155,-3354.6041L13048.343,-3354.5634L13048.3625,-3354.5313L13048.3781,-3354.5007L13048.3803,-3354.4964L13048.4058,-3354.4478L13048.4317,-3354.3939L13048.4677,-3354.2983L13048.4938,-3354.2128L13048.4978,-3354.1939L13048.5306,-3354.0421L13048.5586,-3353.9212L13048.5752,-3353.8666L13048.5898,-3353.8262L13048.6051,-3353.7921L13048.6331,-3353.7327L13048.6585,-3353.6914L13048.6942,-3353.6421L13048.7001,-3353.6338L13048.7421,-3353.5876L13048.7738,-3353.5509L13048.9149,-3353.3907L13049.0411,-3353.2734L13049.1255,-3353.2038L13049.1617,-3353.1855L13049.2384,-3353.1736L13049.3337,-3353.1782L13049.4006,-3353.1773L13049.4915,-3353.1589L13049.5605,-3353.1332"/>
<path content="1,西日本鉄道（株）,福岡空港～熊本（ひのくに号）,20.0,20.0,20.0," xlink:title="1" d="M13047.7773,-3355.2246L13047.8006,-3355.2021L13047.8415,-3355.159L13047.8936,-3355.0986L13048.0501,-3354.9106L13048.1639,-3354.78L13048.2719,-3354.6597L13048.3155,-3354.6041L13048.343,-3354.5634L13048.3625,-3354.5313L13048.3781,-3354.5007L13048.3803,-3354.4964L13048.4058,-3354.4478L13048.4317,-3354.3939L13048.4677,-3354.2983L13048.4938,-3354.2128L13048.4978,-3354.1939L13048.5306,-3354.0421L13048.5586,-3353.9212L13048.5752,-3353.8666L13048.5898,-3353.8262L13048.6051,-3353.7921L13048.6331,-3353.7327L13048.6585,-3353.6914L13048.6942,-3353.6421L13048.7001,-3353.6338L13048.7421,-3353.5876L13048.7738,-3353.5509L13048.9149,-3353.3907L13049.0411,-3353.2734L13049.1255,-3353.2038L13049.1617,-3353.1855L13049.2384,-3353.1736L13049.3337,-3353.1782L13049.4006,-3353.1773L13049.4915,-3353.1589L13049.5605,-3353.1332"/>
<path content="1,西日本鉄道（株）,福岡空港～熊本（ひのくに号）スーパーノンストップ,54.0,56.0,56.0," xlink:title="1" d="M13047.7773,-3355.2246L13047.8006,-3355.2021L13047.8415,-3355.159L13047.8936,-3355.0986L13048.0501,-3354.9106L13048.1639,-3354.78L13048.2719,-3354.6597L13048.3155,-3354.6041L13048.343,-3354.5634L13048.3625,-3354.5313L13048.3781,-3354.5007L13048.3803,-3354.4964L13048.4058,-3354.4478L13048.4317,-3354.3939L13048.4677,-3354.2983L13048.4938,-3354.2128L13048.4978,-3354.1939L13048.5306,-3354.0421L13048.5586,-3353.9212L13048.5752,-3353.8666L13048.5898,-3353.8262L13048.6051,-3353.7921L13048.6331,-3353.7327L13048.6585,-3353.6914L13048.6942,-3353.6421L13048.7001,-3353.6338L13048.7421,-3353.5876L13048.7738,-3353.5509L13048.9149,-3353.3907L13049.0411,-3353.2734L13049.1255,-3353.2038L13049.1617,-3353.1855L13049.2384,-3353.1736L13049.3337,-3353.1782L13049.4006,-3353.1773L13049.4915,-3353.1589L13049.5605,-3353.1332"/>
<path content="1,西日本鉄道（株）,福岡空港～熊本（ひのくに号）植木IC経由,34.0,34.0,34.0," xlink:title="1" d="M13047.7773,-3355.2246L13047.8006,-3355.2021L13047.8415,-3355.159L13047.8936,-3355.0986L13048.0501,-3354.9106L13048.1639,-3354.78L13048.2719,-3354.6597L13048.3155,-3354.6041L13048.343,-3354.5634L13048.3625,-3354.5313L13048.3781,-3354.5007L13048.3803,-3354.4964L13048.4058,-3354.4478L13048.4317,-3354.3939L13048.4677,-3354.2983L13048.4938,-3354.2128L13048.4978,-3354.1939L13048.5306,-3354.0421L13048.5586,-3353.9212L13048.5752,-3353.8666L13048.5898,-3353.8262L13048.6051,-3353.7921L13048.6331,-3353.7327L13048.6585,-3353.6914L13048.6942,-3353.6421L13048.7001,-3353.6338L13048.7421,-3353.5876L13048.7738,-3353.5509L13048.9149,-3353.3907L13049.0411,-3353.2734L13049.1255,-3353.2038L13049.1617,-3353.1855L13049.2384,-3353.1736L13049.3337,-3353.1782L13049.4006,-3353.1773L13049.4915,-3353.1589L13049.5605,-3353.1332"/>
<path content="1,西日本鉄道（株）,福岡～別府（ノンストップ福岡空港経由）,8.0,8.0,8.0," xlink:title="1" d="M13047.7773,-3355.2246L13047.8006,-3355.2021L13047.8415,-3355.159L13047.8936,-3355.0986L13048.0501,-3354.9106L13048.1639,-3354.78L13048.2719,-3354.6597L13048.3155,-3354.6041L13048.343,-3354.5634L13048.3625,-3354.5313L13048.3781,-3354.5007L13048.3803,-3354.4964L13048.4058,-3354.4478L13048.4317,-3354.3939L13048.4677,-3354.2983L13048.4938,-3354.2128L13048.4978,-3354.1939L13048.5306,-3354.0421L13048.5586,-3353.9212L13048.5752,-3353.8666L13048.5898,-3353.8262L13048.6051,-3353.7921L13048.6331,-3353.7327L13048.6585,-3353.6914L13048.6942,-3353.6421L13048.7001,-3353.6338L13048.7421,-3353.5876L13048.7738,-3353.5509L13048.9149,-3353.3907L13049.0411,-3353.2734L13049.1255,-3353.2038L13049.1617,-3353.1855L13049.2384,-3353.1736L13049.3337,-3353.1782L13049.4006,-3353.1773L13049.4915,-3353.1589L13049.5605,-3353.1332"/>
<path content="1,西日本鉄道（株）,福岡～別府（ノンストップ）,3.0,3.0,3.0," xlink:title="1" d="M13047.7773,-3355.2246L13047.8006,-3355.2021L13047.8415,-3355.159L13047.8936,-3355.0986L13048.0501,-3354.9106L13048.1639,-3354.78L13048.2719,-3354.6597L13048.3155,-3354.6041L13048.343,-3354.5634L13048.3625,-3354.5313L13048.3781,-3354.5007L13048.3803,-3354.4964L13048.4058,-3354.4478L13048.4317,-3354.3939L13048.4677,-3354.2983L13048.4938,-3354.2128L13048.4978,-3354.1939L13048.5306,-3354.0421L13048.5586,-3353.9212L13048.5752,-3353.8666L13048.5898,-3353.8262L13048.6051,-3353.7921L13048.6331,-3353.7327L13048.6585,-3353.6914L13048.6942,-3353.6421L13048.7001,-3353.6338L13048.7421,-3353.5876L13048.7738,-3353.5509L13048.9149,-3353.3907L13049.0411,-3353.2734L13049.1255,-3353.2038L13049.1617,-3353.1855L13049.2384,-3353.1736L13049.3337,-3353.1782L13049.4006,-3353.1773L13049.4915,-3353.1589L13049.5605,-3353.1332"/>
<path content="1,西日本鉄道（株）,福岡～大分（スーパーノンストップ）,40.0,40.0,40.0," xlink:title="1" d="M13047.7773,-3355.2246L13047.8006,-3355.2021L13047.8415,-3355.159L13047.8936,-3355.0986L13048.0501,-3354.9106L13048.1639,-3354.78L13048.2719,-3354.6597L13048.3155,-3354.6041L13048.343,-3354.5634L13048.3625,-3354.5313L13048.3781,-3354.5007L13048.3803,-3354.4964L13048.4058,-3354.4478L13048.4317,-3354.3939L13048.4677,-3354.2983L13048.4938,-3354.2128L13048.4978,-3354.1939L13048.5306,-3354.0421L13048.5586,-3353.9212L13048.5752,-3353.8666L13048.5898,-3353.8262L13048.6051,-3353.7921L13048.6331,-3353.7327L13048.6585,-3353.6914L13048.6942,-3353.6421L13048.7001,-3353.6338L13048.7421,-3353.5876L13048.7738,-3353.5509L13048.9149,-3353.3907L13049.0411,-3353.2734L13049.1255,-3353.2038L13049.1617,-3353.1855L13049.2384,-3353.1736L13049.3337,-3353.1782L13049.4006,-3353.1773L13049.4915,-3353.1589L13049.5605,-3353.1332"/>
<path content="1,西日本鉄道（株）,福岡～宮交シティ,8.0,8.0,8.0," xlink:title="1" d="M13049.5605,-3353.1332L13049.4915,-3353.1589L13049.4006,-3353.1773L13049.3337,-3353.1782L13049.2384,-3353.1736L13049.1617,-3353.1855L13049.1255,-3353.2038L13049.0411,-3353.2734L13048.9149,-3353.3907L13048.7738,-3353.5509L13048.7421,-3353.5876L13048.7001,-3353.6338L13048.6942,-3353.6421L13048.6585,-3353.6914L13048.6331,-3353.7327L13048.6051,-3353.7921L13048.5898,-3353.8262L13048.5752,-3353.8666L13048.5586,-3353.9212L13048.5306,-3354.0421L13048.4978,-3354.1939L13048.4938,-3354.2128L13048.4677,-3354.2983L13048.4317,-3354.3939L13048.4058,-3354.4478L13048.3803,-3354.4964L13048.3781,-3354.5007L13048.3625,-3354.5313L13048.343,-3354.5634L13048.3155,-3354.6041L13048.2719,-3354.6597L13048.1639,-3354.78L13048.0501,-3354.9106L13047.8936,-3355.0986L13047.8415,-3355.159L13047.8006,-3355.2021L13047.7773,-3355.2246"/>
<path content="1,西日本鉄道（株）,福岡～宮崎（フェニックス号）,8.0,8.0,8.0," xlink:title="1" d="M13047.7773,-3355.2246L13047.8006,-3355.2021L13047.8415,-3355.159L13047.8936,-3355.0986L13048.0501,-3354.9106L13048.1639,-3354.78L13048.2719,-3354.6597L13048.3155,-3354.6041L13048.343,-3354.5634L13048.3625,-3354.5313L13048.3781,-3354.5007L13048.3803,-3354.4964L13048.4058,-3354.4478L13048.4317,-3354.3939L13048.4677,-3354.2983L13048.4938,-3354.2128L13048.4978,-3354.1939L13048.5306,-3354.0421L13048.5586,-3353.9212L13048.5752,-3353.8666L13048.5898,-3353.8262L13048.6051,-3353.7921L13048.6331,-3353.7327L13048.6585,-3353.6914L13048.6942,-3353.6421L13048.7001,-3353.6338L13048.7421,-3353.5876L13048.7738,-3353.5509L13048.9149,-3353.3907L13049.0411,-3353.2734L13049.1255,-3353.2038L13049.1617,-3353.1855L13049.2384,-3353.1736L13049.3337,-3353.1782L13049.4006,-3353.1773L13049.4915,-3353.1589L13049.5605,-3353.1332"/>
<path content="1,西日本鉄道（株）,福岡～宮崎（皆割フェニックス号）,3.0,3.0,3.0," xlink:title="1" d="M13047.7773,-3355.2246L13047.8006,-3355.2021L13047.8415,-3355.159L13047.8936,-3355.0986L13048.0501,-3354.9106L13048.1639,-3354.78L13048.2719,-3354.6597L13048.3155,-3354.6041L13048.343,-3354.5634L13048.3625,-3354.5313L13048.3781,-3354.5007L13048.3803,-3354.4964L13048.4058,-3354.4478L13048.4317,-3354.3939L13048.4677,-3354.2983L13048.4938,-3354.2128L13048.4978,-3354.1939L13048.5306,-3354.0421L13048.5586,-3353.9212L13048.5752,-3353.8666L13048.5898,-3353.8262L13048.6051,-3353.7921L13048.6331,-3353.7327L13048.6585,-3353.6914L13048.6942,-3353.6421L13048.7001,-3353.6338L13048.7421,-3353.5876L13048.7738,-3353.5509L13048.9149,-3353.3907L13049.0411,-3353.2734L13049.1255,-3353.2038L13049.1617,-3353.1855L13049.2384,-3353.1736L13049.3337,-3353.1782L13049.4006,-3353.1773L13049.4915,-3353.1589L13049.5605,-3353.1332"/>
<path content="1,西日本鉄道（株）,福岡～延岡,4.0,4.0,4.0," xlink:title="1" d="M13047.7773,-3355.2246L13047.8006,-3355.2021L13047.8415,-3355.159L13047.8936,-3355.0986L13048.0501,-3354.9106L13048.1639,-3354.78L13048.2719,-3354.6597L13048.3155,-3354.6041L13048.343,-3354.5634L13048.3625,-3354.5313L13048.3781,-3354.5007L13048.3803,-3354.4964L13048.4058,-3354.4478L13048.4317,-3354.3939L13048.4677,-3354.2983L13048.4938,-3354.2128L13048.4978,-3354.1939L13048.5306,-3354.0421L13048.5586,-3353.9212L13048.5752,-3353.8666L13048.5898,-3353.8262L13048.6051,-3353.7921L13048.6331,-3353.7327L13048.6585,-3353.6914L13048.6942,-3353.6421L13048.7001,-3353.6338L13048.7421,-3353.5876L13048.7738,-3353.5509L13048.9149,-3353.3907L13049.0411,-3353.2734L13049.1255,-3353.2038L13049.1617,-3353.1855L13049.2384,-3353.1736L13049.3337,-3353.1782L13049.4006,-3353.1773L13049.4915,-3353.1589L13049.5605,-3353.1332"/>
<path content="1,西日本鉄道（株）,福岡～熊本（スーパーノンストップ）,54.0,56.0,56.0," xlink:title="1" d="M13047.7773,-3355.2246L13047.8006,-3355.2021L13047.8415,-3355.159L13047.8936,-3355.0986L13048.0501,-3354.9106L13048.1639,-3354.78L13048.2719,-3354.6597L13048.3155,-3354.6041L13048.343,-3354.5634L13048.3625,-3354.5313L13048.3781,-3354.5007L13048.3803,-3354.4964L13048.4058,-3354.4478L13048.4317,-3354.3939L13048.4677,-3354.2983L13048.4938,-3354.2128L13048.4978,-3354.1939L13048.5306,-3354.0421L13048.5586,-3353.9212L13048.5752,-3353.8666L13048.5898,-3353.8262L13048.6051,-3353.7921L13048.6331,-3353.7327L13048.6585,-3353.6914L13048.6942,-3353.6421L13048.7001,-3353.6338L13048.7421,-3353.5876L13048.7738,-3353.5509L13048.9149,-3353.3907L13049.0411,-3353.2734L13049.1255,-3353.2038L13049.1617,-3353.1855L13049.2384,-3353.1736L13049.3337,-3353.1782L13049.4006,-3353.1773L13049.4915,-3353.1589L13049.5605,-3353.1332"/>
<path content="1,西日本鉄道（株）,福岡～熊本（植木ＩＣ経由）,34.0,34.0,34.0," xlink:title="1" d="M13047.7773,-3355.2246L13047.8006,-3355.2021L13047.8415,-3355.159L13047.8936,-3355.0986L13048.0501,-3354.9106L13048.1639,-3354.78L13048.2719,-3354.6597L13048.3155,-3354.6041L13048.343,-3354.5634L13048.3625,-3354.5313L13048.3781,-3354.5007L13048.3803,-3354.4964L13048.4058,-3354.4478L13048.4317,-3354.3939L13048.4677,-3354.2983L13048.4938,-3354.2128L13048.4978,-3354.1939L13048.5306,-3354.0421L13048.5586,-3353.9212L13048.5752,-3353.8666L13048.5898,-3353.8262L13048.6051,-3353.7921L13048.6331,-3353.7327L13048.6585,-3353.6914L13048.6942,-3353.6421L13048.7001,-3353.6338L13048.7421,-3353.5876L13048.7738,-3353.5509L13048.9149,-3353.3907L13049.0411,-3353.2734L13049.1255,-3353.2038L13049.1617,-3353.1855L13049.2384,-3353.1736L13049.3337,-3353.1782L13049.4006,-3353.1773L13049.4915,-3353.1589L13049.5605,-3353.1332"/>
<path content="1,西日本鉄道（株）,福岡･福岡空港～日田（ひた号・福岡空港経由）,18.0,20.0,20.0," xlink:title="1" d="M13047.7773,-3355.2246L13047.8006,-3355.2021L13047.8415,-3355.159L13047.8936,-3355.0986L13048.0501,-3354.9106L13048.1639,-3354.78L13048.2719,-3354.6597L13048.3155,-3354.6041L13048.343,-3354.5634L13048.3625,-3354.5313L13048.3781,-3354.5007L13048.3803,-3354.4964L13048.4058,-3354.4478L13048.4317,-3354.3939L13048.4677,-3354.2983L13048.4938,-3354.2128L13048.4978,-3354.1939L13048.5306,-3354.0421L13048.5586,-3353.9212L13048.5752,-3353.8666L13048.5898,-3353.8262L13048.6051,-3353.7921L13048.6331,-3353.7327L13048.6585,-3353.6914L13048.6942,-3353.6421L13048.7001,-3353.6338L13048.7421,-3353.5876L13048.7738,-3353.5509L13048.9149,-3353.3907L13049.0411,-3353.2734L13049.1255,-3353.2038L13049.1617,-3353.1855L13049.2384,-3353.1736L13049.3337,-3353.1782L13049.4006,-3353.1773L13049.4915,-3353.1589L13049.5605,-3353.1332"/>
<path content="1,西肥自動車（株）,佐世保～福岡・福岡空港（スーパーノンストップ）,5.0,5.0,5.0," xlink:title="1" d="M13047.7773,-3355.2246L13047.8006,-3355.2021L13047.8415,-3355.159L13047.8936,-3355.0986L13048.0501,-3354.9106L13048.1639,-3354.78L13048.2719,-3354.6597L13048.3155,-3354.6041L13048.343,-3354.5634L13048.3625,-3354.5313L13048.3781,-3354.5007L13048.3803,-3354.4964L13048.4058,-3354.4478L13048.4317,-3354.3939L13048.4677,-3354.2983L13048.4938,-3354.2128L13048.4978,-3354.1939L13048.5306,-3354.0421L13048.5586,-3353.9212L13048.5752,-3353.8666L13048.5898,-3353.8262L13048.6051,-3353.7921L13048.6331,-3353.7327L13048.6585,-3353.6914L13048.6942,-3353.6421L13048.7001,-3353.6338L13048.7421,-3353.5876L13048.7738,-3353.5509L13048.9149,-3353.3907L13049.0411,-3353.2734L13049.1255,-3353.2038L13049.1617,-3353.1855L13049.2384,-3353.1736L13049.3337,-3353.1782L13049.4006,-3353.1773L13049.4915,-3353.1589L13049.5605,-3353.1332"/>
<path content="1,西肥自動車（株）,佐世保～福岡・福岡空港（ノンストップ）,6.5,6.5,6.5," xlink:title="1" d="M13047.7773,-3355.2246L13047.8006,-3355.2021L13047.8415,-3355.159L13047.8936,-3355.0986L13048.0501,-3354.9106L13048.1639,-3354.78L13048.2719,-3354.6597L13048.3155,-3354.6041L13048.343,-3354.5634L13048.3625,-3354.5313L13048.3781,-3354.5007L13048.3803,-3354.4964L13048.4058,-3354.4478L13048.4317,-3354.3939L13048.4677,-3354.2983L13048.4938,-3354.2128L13048.4978,-3354.1939L13048.5306,-3354.0421L13048.5586,-3353.9212L13048.5752,-3353.8666L13048.5898,-3353.8262L13048.6051,-3353.7921L13048.6331,-3353.7327L13048.6585,-3353.6914L13048.6942,-3353.6421L13048.7001,-3353.6338L13048.7421,-3353.5876L13048.7738,-3353.5509L13048.9149,-3353.3907L13049.0411,-3353.2734L13049.1255,-3353.2038L13049.1617,-3353.1855L13049.2384,-3353.1736L13049.3337,-3353.1782L13049.4006,-3353.1773L13049.4915,-3353.1589L13049.5605,-3353.1332"/>
<path content="1,西肥自動車（株）,佐世保～福岡・福岡空港（空港経由）,9.5,9.5,9.5," xlink:title="1" d="M13047.7773,-3355.2246L13047.8006,-3355.2021L13047.8415,-3355.159L13047.8936,-3355.0986L13048.0501,-3354.9106L13048.1639,-3354.78L13048.2719,-3354.6597L13048.3155,-3354.6041L13048.343,-3354.5634L13048.3625,-3354.5313L13048.3781,-3354.5007L13048.3803,-3354.4964L13048.4058,-3354.4478L13048.4317,-3354.3939L13048.4677,-3354.2983L13048.4938,-3354.2128L13048.4978,-3354.1939L13048.5306,-3354.0421L13048.5586,-3353.9212L13048.5752,-3353.8666L13048.5898,-3353.8262L13048.6051,-3353.7921L13048.6331,-3353.7327L13048.6585,-3353.6914L13048.6942,-3353.6421L13048.7001,-3353.6338L13048.7421,-3353.5876L13048.7738,-3353.5509L13048.9149,-3353.3907L13049.0411,-3353.2734L13049.1255,-3353.2038L13049.1617,-3353.1855L13049.2384,-3353.1736L13049.3337,-3353.1782L13049.4006,-3353.1773L13049.4915,-3353.1589L13049.5605,-3353.1332"/>
<path content="1,西肥自動車（株）,福岡・福岡空港～ハウステンボス,2.0,2.0,2.0," xlink:title="1" d="M13047.7773,-3355.2246L13047.8006,-3355.2021L13047.8415,-3355.159L13047.8936,-3355.0986L13048.0501,-3354.9106L13048.1639,-3354.78L13048.2719,-3354.6597L13048.3155,-3354.6041L13048.343,-3354.5634L13048.3625,-3354.5313L13048.3781,-3354.5007L13048.3803,-3354.4964L13048.4058,-3354.4478L13048.4317,-3354.3939L13048.4677,-3354.2983L13048.4938,-3354.2128L13048.4978,-3354.1939L13048.5306,-3354.0421L13048.5586,-3353.9212L13048.5752,-3353.8666L13048.5898,-3353.8262L13048.6051,-3353.7921L13048.6331,-3353.7327L13048.6585,-3353.6914L13048.6942,-3353.6421L13048.7001,-3353.6338L13048.7421,-3353.5876L13048.7738,-3353.5509L13048.9149,-3353.3907L13049.0411,-3353.2734L13049.1255,-3353.2038L13049.1617,-3353.1855L13049.2384,-3353.1736L13049.3337,-3353.1782L13049.4006,-3353.1773L13049.4915,-3353.1589L13049.5605,-3353.1332"/>
<path content="1,西鉄バス二日市（株）,11,31.0,28.0,28.0," xlink:title="1" d="M13047.3633,-3354.4882L13047.4207,-3354.5165L13047.455,-3354.5356L13047.5403,-3354.5713L13047.6787,-3354.6354L13047.6877,-3354.6406"/>
<path content="1,西鉄バス二日市（株）,11,31.0,28.0,28.0," xlink:title="1" d="M13047.6877,-3354.6406L13047.6588,-3354.6754L13047.6219,-3354.7138"/>
<path content="1,西鉄バス二日市（株）,11,31.0,28.0,28.0," xlink:title="1" d="M13047.6877,-3354.6406L13047.8427,-3354.7084L13048.0765,-3354.8225L13048.1321,-3354.8601L13048.2242,-3354.9266L13048.2811,-3354.9669L13048.3736,-3355.0309L13048.4079,-3355.0487L13048.4292,-3355.0577L13048.4558,-3355.0628L13048.4985,-3355.0654L13048.5815,-3355.0589L13048.6859,-3355.0602L13048.7331,-3355.064L13048.77,-3355.068L13048.8155,-3355.0729L13048.9328,-3355.0864L13048.9928,-3355.0946L13049.0468,-3355.1042L13049.0622,-3355.108L13049.077,-3355.1115L13049.0968,-3355.1197L13049.1315,-3355.1316L13049.1556,-3355.1408L13049.1934,-3355.1596L13049.2328,-3355.1797L13049.2374,-3355.185L13049.2608,-3355.2041L13049.2732,-3355.2177L13049.2807,-3355.2246"/>
<path content="1,西鉄バス二日市（株）,21,81.5,75.0,69.0," xlink:title="1" d="M13048.702,-3353.0273L13048.704,-3353.0303L13048.5816,-3353.1421L13048.5284,-3353.1887L13048.4324,-3353.2658L13048.3464,-3353.3295L13048.3093,-3353.3569L13048.216,-3353.428L13048.1751,-3353.4545L13048.0719,-3353.5338L13047.9689,-3353.6112L13047.9139,-3353.6538L13047.8633,-3353.6938L13047.7093,-3353.8099L13047.7023,-3353.814L13047.6339,-3353.7423L13047.5983,-3353.717"/>
<path content="1,西鉄バス二日市（株）,21,81.5,75.0,69.0," xlink:title="1" d="M13047.5983,-3353.717L13047.582,-3353.7383L13047.5693,-3353.7467L13047.5354,-3353.7152L13047.5678,-3353.689L13047.5983,-3353.717"/>
<path content="1,西鉄バス二日市（株）,400,36.0,24.0,24.0," xlink:title="1" d="M13049.5605,-3353.1332L13049.4915,-3353.1589L13049.4006,-3353.1773L13049.3337,-3353.1782L13049.2384,-3353.1736L13049.1617,-3353.1855L13049.1255,-3353.2038L13049.0411,-3353.2734L13048.9149,-3353.3907L13048.7738,-3353.5509L13048.7421,-3353.5876L13048.7001,-3353.6338L13048.6942,-3353.6421L13048.6585,-3353.6914L13048.6331,-3353.7327L13048.6051,-3353.7921L13048.5898,-3353.8262L13048.5752,-3353.8666L13048.5586,-3353.9212L13048.5306,-3354.0421L13048.4978,-3354.1939L13048.4938,-3354.2128L13048.4677,-3354.2983L13048.4317,-3354.3939L13048.4058,-3354.4478L13048.3803,-3354.4964L13048.3781,-3354.5007L13048.3625,-3354.5313L13048.343,-3354.5634L13048.3155,-3354.6041L13048.2719,-3354.6597L13048.1639,-3354.78L13048.0501,-3354.9106L13047.8936,-3355.0986L13047.8415,-3355.159L13047.8006,-3355.2021L13047.7773,-3355.2246"/>
<path content="1,西鉄バス二日市（株）,43,24.0,23.5,22.0," xlink:title="1" d="M13047.3633,-3354.4882L13047.4207,-3354.5165L13047.455,-3354.5356L13047.5403,-3354.5713L13047.6787,-3354.6354L13047.6877,-3354.6406"/>
<path content="1,西鉄バス二日市（株）,43,24.0,23.5,22.0," xlink:title="1" d="M13047.6877,-3354.6406L13047.6588,-3354.6754L13047.6219,-3354.7138"/>
<path content="1,西鉄バス二日市（株）,43,24.0,23.5,22.0," xlink:title="1" d="M13047.9603,-3355.2246L13048.0212,-3355.1947L13048.0831,-3355.1639L13048.1177,-3355.1494L13048.173,-3355.093L13048.2597,-3354.9932L13048.2811,-3354.9669L13048.2242,-3354.9266L13048.1321,-3354.8601L13048.0765,-3354.8225L13047.8427,-3354.7084L13047.6877,-3354.6406"/>
<path content="1,西鉄バス佐賀（株）,わかくす号,49.0,49.0,49.0," xlink:title="1" d="M13047.7773,-3355.2246L13047.8006,-3355.2021L13047.8415,-3355.159L13047.8936,-3355.0986L13048.0501,-3354.9106L13048.1639,-3354.78L13048.2719,-3354.6597L13048.3155,-3354.6041L13048.343,-3354.5634L13048.3625,-3354.5313L13048.3781,-3354.5007L13048.3803,-3354.4964L13048.4058,-3354.4478L13048.4317,-3354.3939L13048.4677,-3354.2983L13048.4938,-3354.2128L13048.4978,-3354.1939L13048.5306,-3354.0421L13048.5586,-3353.9212L13048.5752,-3353.8666L13048.5898,-3353.8262L13048.6051,-3353.7921L13048.6331,-3353.7327L13048.6585,-3353.6914L13048.6942,-3353.6421L13048.7001,-3353.6338L13048.7421,-3353.5876L13048.7738,-3353.5509L13048.9149,-3353.3907L13049.0411,-3353.2734L13049.1255,-3353.2038L13049.1617,-3353.1855L13049.2384,-3353.1736L13049.3337,-3353.1782L13049.4006,-3353.1773L13049.4915,-3353.1589L13049.5605,-3353.1332"/>
<path content="1,西鉄バス佐賀（株）,福岡・鳥栖プレミアム・アウトレット,2.0,4.0,4.0," xlink:title="1" d="M13047.7773,-3355.2246L13047.8006,-3355.2021L13047.8415,-3355.159L13047.8936,-3355.0986L13048.0501,-3354.9106L13048.1639,-3354.78L13048.2719,-3354.6597L13048.3155,-3354.6041L13048.343,-3354.5634L13048.3625,-3354.5313L13048.3781,-3354.5007L13048.3803,-3354.4964L13048.4058,-3354.4478L13048.4317,-3354.3939L13048.4677,-3354.2983L13048.4938,-3354.2128L13048.4978,-3354.1939L13048.5306,-3354.0421L13048.5586,-3353.9212L13048.5752,-3353.8666L13048.5898,-3353.8262L13048.6051,-3353.7921L13048.6331,-3353.7327L13048.6585,-3353.6914L13048.6942,-3353.6421L13048.7001,-3353.6338L13048.7421,-3353.5876L13048.7738,-3353.5509L13048.9149,-3353.3907L13049.0411,-3353.2734L13049.1255,-3353.2038L13049.1617,-3353.1855L13049.2384,-3353.1736L13049.3337,-3353.1782L13049.4006,-3353.1773L13049.4915,-3353.1589L13049.5605,-3353.1332"/>
<path content="1,西鉄バス佐賀（株）,福岡空港～佐賀駅バスセンター,22.0,22.0,22.0," xlink:title="1" d="M13047.7773,-3355.2246L13047.8006,-3355.2021L13047.8415,-3355.159L13047.8936,-3355.0986L13048.0501,-3354.9106L13048.1639,-3354.78L13048.2719,-3354.6597L13048.3155,-3354.6041L13048.343,-3354.5634L13048.3625,-3354.5313L13048.3781,-3354.5007L13048.3803,-3354.4964L13048.4058,-3354.4478L13048.4317,-3354.3939L13048.4677,-3354.2983L13048.4938,-3354.2128L13048.4978,-3354.1939L13048.5306,-3354.0421L13048.5586,-3353.9212L13048.5752,-3353.8666L13048.5898,-3353.8262L13048.6051,-3353.7921L13048.6331,-3353.7327L13048.6585,-3353.6914L13048.6942,-3353.6421L13048.7001,-3353.6338L13048.7421,-3353.5876L13048.7738,-3353.5509L13048.9149,-3353.3907L13049.0411,-3353.2734L13049.1255,-3353.2038L13049.1617,-3353.1855L13049.2384,-3353.1736L13049.3337,-3353.1782L13049.4006,-3353.1773L13049.4915,-3353.1589L13049.5605,-3353.1332"/>
<path content="1,西鉄バス佐賀（株）,福岡（天神）～佐賀駅バスセンター,48.5,48.5,48.5," xlink:title="1" d="M13047.7773,-3355.2246L13047.8006,-3355.2021L13047.8415,-3355.159L13047.8936,-3355.0986L13048.0501,-3354.9106L13048.1639,-3354.78L13048.2719,-3354.6597L13048.3155,-3354.6041L13048.343,-3354.5634L13048.3625,-3354.5313L13048.3781,-3354.5007L13048.3803,-3354.4964L13048.4058,-3354.4478L13048.4317,-3354.3939L13048.4677,-3354.2983L13048.4938,-3354.2128L13048.4978,-3354.1939L13048.5306,-3354.0421L13048.5586,-3353.9212L13048.5752,-3353.8666L13048.5898,-3353.8262L13048.6051,-3353.7921L13048.6331,-3353.7327L13048.6585,-3353.6914L13048.6942,-3353.6421L13048.7001,-3353.6338L13048.7421,-3353.5876L13048.7738,-3353.5509L13048.9149,-3353.3907L13049.0411,-3353.2734L13049.1255,-3353.2038L13049.1617,-3353.1855L13049.2384,-3353.1736L13049.3337,-3353.1782L13049.4006,-3353.1773L13049.4915,-3353.1589L13049.5605,-3353.1332"/>
<path content="1,西鉄バス佐賀（株）,西鉄天神バスセンター～鳥栖プレミアムアウトレット,0.0,4.0,4.0," xlink:title="1" d="M13047.7773,-3355.2246L13047.8006,-3355.2021L13047.8415,-3355.159L13047.8936,-3355.0986L13048.0501,-3354.9106L13048.1639,-3354.78L13048.2719,-3354.6597L13048.3155,-3354.6041L13048.343,-3354.5634L13048.3625,-3354.5313L13048.3781,-3354.5007L13048.3803,-3354.4964L13048.4058,-3354.4478L13048.4317,-3354.3939L13048.4677,-3354.2983L13048.4938,-3354.2128L13048.4978,-3354.1939L13048.5306,-3354.0421L13048.5586,-3353.9212L13048.5752,-3353.8666L13048.5898,-3353.8262L13048.6051,-3353.7921L13048.6331,-3353.7327L13048.6585,-3353.6914L13048.6942,-3353.6421L13048.7001,-3353.6338L13048.7421,-3353.5876L13048.7738,-3353.5509L13048.9149,-3353.3907L13049.0411,-3353.2734L13049.1255,-3353.2038L13049.1617,-3353.1855L13049.2384,-3353.1736L13049.3337,-3353.1782L13049.4006,-3353.1773L13049.4915,-3353.1589L13049.5605,-3353.1332"/>
<path content="1,西鉄観光バス（株）,福岡～大分（スーパーノンストップ）,40.0,40.0,40.0," xlink:title="1" d="M13047.7773,-3355.2246L13047.8006,-3355.2021L13047.8415,-3355.159L13047.8936,-3355.0986L13048.0501,-3354.9106L13048.1639,-3354.78L13048.2719,-3354.6597L13048.3155,-3354.6041L13048.343,-3354.5634L13048.3625,-3354.5313L13048.3781,-3354.5007L13048.3803,-3354.4964L13048.4058,-3354.4478L13048.4317,-3354.3939L13048.4677,-3354.2983L13048.4938,-3354.2128L13048.4978,-3354.1939L13048.5306,-3354.0421L13048.5586,-3353.9212L13048.5752,-3353.8666L13048.5898,-3353.8262L13048.6051,-3353.7921L13048.6331,-3353.7327L13048.6585,-3353.6914L13048.6942,-3353.6421L13048.7001,-3353.6338L13048.7421,-3353.5876L13048.7738,-3353.5509L13048.9149,-3353.3907L13049.0411,-3353.2734L13049.1255,-3353.2038L13049.1617,-3353.1855L13049.2384,-3353.1736L13049.3337,-3353.1782L13049.4006,-3353.1773L13049.4915,-3353.1589L13049.5605,-3353.1332"/>
<path content="1,西鉄高速バス（株）,福岡　～　臼杵･津久見･佐伯（期間限定）,2.0,2.0,2.0," xlink:title="1" d="M13047.7773,-3355.2246L13047.8006,-3355.2021L13047.8415,-3355.159L13047.8936,-3355.0986L13048.0501,-3354.9106L13048.1639,-3354.78L13048.2719,-3354.6597L13048.3155,-3354.6041L13048.343,-3354.5634L13048.3625,-3354.5313L13048.3781,-3354.5007L13048.3803,-3354.4964L13048.4058,-3354.4478L13048.4317,-3354.3939L13048.4677,-3354.2983L13048.4938,-3354.2128L13048.4978,-3354.1939L13048.5306,-3354.0421L13048.5586,-3353.9212L13048.5752,-3353.8666L13048.5898,-3353.8262L13048.6051,-3353.7921L13048.6331,-3353.7327L13048.6585,-3353.6914L13048.6942,-3353.6421L13048.7001,-3353.6338L13048.7421,-3353.5876L13048.7738,-3353.5509L13048.9149,-3353.3907L13049.0411,-3353.2734L13049.1255,-3353.2038L13049.1617,-3353.1855L13049.2384,-3353.1736L13049.3337,-3353.1782L13049.4006,-3353.1773L13049.4915,-3353.1589L13049.5605,-3353.1332"/>
<path content="1,西鉄高速バス（株）,福岡　～　鳥栖プレミアム・アウトレット,2.0,4.0,4.0," xlink:title="1" d="M13047.7773,-3355.2246L13047.8006,-3355.2021L13047.8415,-3355.159L13047.8936,-3355.0986L13048.0501,-3354.9106L13048.1639,-3354.78L13048.2719,-3354.6597L13048.3155,-3354.6041L13048.343,-3354.5634L13048.3625,-3354.5313L13048.3781,-3354.5007L13048.3803,-3354.4964L13048.4058,-3354.4478L13048.4317,-3354.3939L13048.4677,-3354.2983L13048.4938,-3354.2128L13048.4978,-3354.1939L13048.5306,-3354.0421L13048.5586,-3353.9212L13048.5752,-3353.8666L13048.5898,-3353.8262L13048.6051,-3353.7921L13048.6331,-3353.7327L13048.6585,-3353.6914L13048.6942,-3353.6421L13048.7001,-3353.6338L13048.7421,-3353.5876L13048.7738,-3353.5509L13048.9149,-3353.3907L13049.0411,-3353.2734L13049.1255,-3353.2038L13049.1617,-3353.1855L13049.2384,-3353.1736L13049.3337,-3353.1782L13049.4006,-3353.1773L13049.4915,-3353.1589L13049.5605,-3353.1332"/>
<path content="1,西鉄高速バス（株）,福岡・福岡空港　～　ハウステンボス,2.0,2.0,2.0," xlink:title="1" d="M13047.7773,-3355.2246L13047.8006,-3355.2021L13047.8415,-3355.159L13047.8936,-3355.0986L13048.0501,-3354.9106L13048.1639,-3354.78L13048.2719,-3354.6597L13048.3155,-3354.6041L13048.343,-3354.5634L13048.3625,-3354.5313L13048.3781,-3354.5007L13048.3803,-3354.4964L13048.4058,-3354.4478L13048.4317,-3354.3939L13048.4677,-3354.2983L13048.4938,-3354.2128L13048.4978,-3354.1939L13048.5306,-3354.0421L13048.5586,-3353.9212L13048.5752,-3353.8666L13048.5898,-3353.8262L13048.6051,-3353.7921L13048.6331,-3353.7327L13048.6585,-3353.6914L13048.6942,-3353.6421L13048.7001,-3353.6338L13048.7421,-3353.5876L13048.7738,-3353.5509L13048.9149,-3353.3907L13049.0411,-3353.2734L13049.1255,-3353.2038L13049.1617,-3353.1855L13049.2384,-3353.1736L13049.3337,-3353.1782L13049.4006,-3353.1773L13049.4915,-3353.1589L13049.5605,-3353.1332"/>
<path content="1,西鉄高速バス（株）,福岡・福岡空港　～　佐世保,40.0,40.0,40.0," xlink:title="1" d="M13047.7773,-3355.2246L13047.8006,-3355.2021L13047.8415,-3355.159L13047.8936,-3355.0986L13048.0501,-3354.9106L13048.1639,-3354.78L13048.2719,-3354.6597L13048.3155,-3354.6041L13048.343,-3354.5634L13048.3625,-3354.5313L13048.3781,-3354.5007L13048.3803,-3354.4964L13048.4058,-3354.4478L13048.4317,-3354.3939L13048.4677,-3354.2983L13048.4938,-3354.2128L13048.4978,-3354.1939L13048.5306,-3354.0421L13048.5586,-3353.9212L13048.5752,-3353.8666L13048.5898,-3353.8262L13048.6051,-3353.7921L13048.6331,-3353.7327L13048.6585,-3353.6914L13048.6942,-3353.6421L13048.7001,-3353.6338L13048.7421,-3353.5876L13048.7738,-3353.5509L13048.9149,-3353.3907L13049.0411,-3353.2734L13049.1255,-3353.2038L13049.1617,-3353.1855L13049.2384,-3353.1736L13049.3337,-3353.1782L13049.4006,-3353.1773L13049.4915,-3353.1589L13049.5605,-3353.1332"/>
<path content="3,大野城市,乙金ルート,33.0,31.0,31.0," xlink:title="3" d="M13048.3566,-3353.528L13048.3432,-3353.5544L13048.3327,-3353.579"/>
<path content="3,大野城市,乙金ルート,33.0,31.0,31.0," xlink:title="3" d="M13048.3566,-3353.528L13048.3127,-3353.5041L13048.292,-3353.491L13048.2672,-3353.4737L13048.2445,-3353.4561L13048.216,-3353.428L13048.1751,-3353.4545L13048.0719,-3353.5338L13047.9689,-3353.6112"/>
<path content="3,大野城市,乙金ルート,33.0,31.0,31.0," xlink:title="3" d="M13047.9689,-3353.6112L13047.9924,-3353.6302L13048.026,-3353.6532L13048.0495,-3353.6671L13048.0785,-3353.6844L13048.1006,-3353.6969L13048.1325,-3353.7101L13048.1588,-3353.7208L13048.1538,-3353.7292L13048.1453,-3353.7389L13048.1357,-3353.7469L13048.1138,-3353.7629L13048.096,-3353.7717L13048.0723,-3353.7802L13048.0483,-3353.7887L13048.0331,-3353.7934L13047.9922,-3353.8097L13048.0218,-3353.8402L13048.0545,-3353.8696L13048.0828,-3353.8965L13048.1095,-3353.9259L13048.138,-3353.9447L13048.1547,-3353.9581L13048.1759,-3353.9727L13048.2039,-3353.9872L13048.1892,-3354.0279L13048.1817,-3354.0478L13048.1709,-3354.0761L13048.1476,-3354.1153L13048.1309,-3354.1365L13048.0917,-3354.1801L13048.0752,-3354.1994L13048.0359,-3354.2414L13048.0045,-3354.2767L13047.9774,-3354.3075L13047.9176,-3354.3752L13047.9687,-3354.407L13048.0992,-3354.4841L13048.1723,-3354.5315L13048.2235,-3354.5603L13048.279,-3354.5951L13048.3483,-3354.636L13048.3855,-3354.6575L13048.4163,-3354.6773L13048.4755,-3354.7098L13048.5318,-3354.7392L13048.5862,-3354.7665L13048.5757,-3354.7832L13048.5659,-3354.7949L13048.5514,-3354.8222L13048.5294,-3354.8573L13048.5128,-3354.881L13048.4766,-3354.93L13048.5291,-3354.955L13048.5724,-3354.9709L13048.5948,-3354.9789L13048.6242,-3354.989L13048.6576,-3354.9982L13048.6822,-3355.0043L13048.7441,-3355.0219L13048.7403,-3355.0385L13048.7331,-3355.064L13048.77,-3355.068L13048.8155,-3355.0729L13048.9328,-3355.0864L13048.9928,-3355.0946L13049.0468,-3355.1042L13049.0622,-3355.108L13049.077,-3355.1115L13049.0968,-3355.1197L13049.1315,-3355.1316L13049.1556,-3355.1408L13049.1934,-3355.1596L13049.2328,-3355.1797"/>
<path content="3,大野城市,乙金ルート,33.0,31.0,31.0," xlink:title="3" d="M13047.582,-3353.7383L13047.5983,-3353.717L13047.6339,-3353.7423L13047.7023,-3353.814L13047.7093,-3353.8099L13047.8633,-3353.6938L13047.9139,-3353.6538L13047.9689,-3353.6112"/>
<path content="3,大野城市,乙金ルート,33.0,31.0,31.0," xlink:title="3" d="M13049.2396,-3355.1702L13049.2348,-3355.1636L13049.2336,-3355.1485L13049.2324,-3355.1228L13049.2287,-3355.0996L13049.2266,-3355.0522L13049.2235,-3355.0151L13049.2212,-3355.0072L13049.2193,-3354.9691L13049.2189,-3354.9445L13049.2189,-3354.9362L13049.2204,-3354.8963L13049.2203,-3354.8867L13049.224,-3354.8367L13049.229,-3354.8015L13049.2266,-3354.7496L13049.2287,-3354.7428L13049.2294,-3354.6928L13049.2291,-3354.6646L13049.2341,-3354.5332L13049.2352,-3354.521L13049.2353,-3354.5053L13049.2348,-3354.4858L13049.2375,-3354.4384L13049.2414,-3354.3781L13049.2412,-3354.3649L13049.2417,-3354.3402L13049.2412,-3354.3039L13049.242,-3354.2918L13049.2443,-3354.278L13049.2536,-3354.252L13049.2649,-3354.2319L13049.2741,-3354.2154L13049.2833,-3354.1995L13049.3029,-3354.1655L13049.3112,-3354.1516L13049.3185,-3354.1353L13049.3235,-3354.1252L13049.3237,-3354.1084L13049.3243,-3354.0996L13049.3222,-3354.0784L13049.3211,-3354.0579L13049.3187,-3354.0429L13049.3164,-3354.0304L13049.3129,-3354.0147L13049.3083,-3354.0088L13049.2765,-3354.0229L13049.2164,-3354.0238L13049.1791,-3354.0256L13049.1597,-3354.026L13049.1582,-3354.0427L13049.1617,-3354.0696L13049.1633,-3354.1096L13049.1632,-3354.1449L13049.1629,-3354.1672L13049.1079,-3354.1679L13049.0256,-3354.1677L13049.003,-3354.1673L13048.9941,-3354.1717L13048.984,-3354.1826L13048.9722,-3354.1997L13048.9633,-3354.2154L13048.9414,-3354.2505L13048.9048,-3354.304L13048.8748,-3354.2818L13048.8797,-3354.2711L13048.8939,-3354.2473L13048.9036,-3354.2293L13048.9238,-3354.211L13048.9382,-3354.1916L13048.9477,-3354.1772L13048.9529,-3354.165L13048.9529,-3354.1441L13048.9479,-3354.0881L13048.9444,-3354.0724L13048.9366,-3354.0593L13048.9228,-3354.0466L13048.8991,-3354.0229L13048.8774,-3354.0046L13048.8535,-3353.9774L13048.8062,-3353.9317L13048.7928,-3353.9218L13048.777,-3353.9161L13048.7611,-3353.9125L13048.7365,-3353.9069L13048.7527,-3353.8595L13048.7673,-3353.8162L13048.7782,-3353.7942L13048.7969,-3353.7718L13048.751,-3353.7482L13048.6929,-3353.7136L13048.6176,-3353.6719L13048.5747,-3353.6475L13048.5306,-3353.6235L13048.4958,-3353.609L13048.4521,-3353.5839L13048.3566,-3353.528"/>
<path content="3,大野城市,乙金ルート,33.0,31.0,31.0," xlink:title="3" d="M13049.2328,-3355.1797L13049.2396,-3355.1702"/>
<path content="3,大野城市,乙金ルート,33.0,31.0,31.0," xlink:title="3" d="M13049.2328,-3355.1797L13049.2374,-3355.185L13049.2608,-3355.2041L13049.2732,-3355.2177L13049.2807,-3355.2246M13049.3538,-3355.2246L13049.3533,-3355.2239L13049.3456,-3355.2171L13049.3341,-3355.2095L13049.3233,-3355.2049L13049.3086,-3355.1944L13049.2971,-3355.1892L13049.2768,-3355.1824L13049.2493,-3355.1741L13049.2396,-3355.1702"/>
<path content="3,大野城市,仲畑ルート,29.0,29.0,29.0," xlink:title="3" d="M13047.582,-3353.7383L13047.5983,-3353.717L13047.6339,-3353.7423L13047.7023,-3353.814"/>
<path content="3,大野城市,仲畑ルート,29.0,29.0,29.0," xlink:title="3" d="M13047.7023,-3353.814L13047.5952,-3353.8949L13047.527,-3353.9454L13047.4908,-3353.9711L13047.4466,-3354.008L13047.4799,-3354.0344L13047.5224,-3354.0709L13047.5513,-3354.0925L13047.5799,-3354.117L13047.6264,-3354.1583L13047.6608,-3354.1868L13047.7604,-3354.2704L13047.8077,-3354.308L13047.8615,-3354.3452L13047.9176,-3354.3752"/>
<path content="3,大野城市,仲畑ルート,29.0,29.0,29.0," xlink:title="3" d="M13047.7023,-3353.814L13047.7093,-3353.8099L13047.8633,-3353.6938L13047.926,-3353.7544L13047.9922,-3353.8097L13048.0218,-3353.8402L13048.0545,-3353.8696L13048.0828,-3353.8965L13048.1095,-3353.9259L13048.138,-3353.9447L13048.1547,-3353.9581L13048.1759,-3353.9727L13048.2039,-3353.9872L13048.1892,-3354.0279L13048.1817,-3354.0478L13048.1709,-3354.0761L13048.1476,-3354.1153L13048.1309,-3354.1365L13048.0917,-3354.1801L13048.0752,-3354.1994L13048.0359,-3354.2414L13048.0045,-3354.2767L13047.9774,-3354.3075L13047.9176,-3354.3752"/>
<path content="3,大野城市,仲畑ルート,29.0,29.0,29.0," xlink:title="3" d="M13047.9176,-3354.3752L13047.887,-3354.4099L13047.8744,-3354.4205L13047.8517,-3354.446L13047.8074,-3354.4909L13047.7959,-3354.5066L13047.7369,-3354.582L13047.6877,-3354.6406L13047.6588,-3354.6754L13047.6219,-3354.7138L13047.5994,-3354.743L13047.5648,-3354.788L13047.5434,-3354.8165L13047.5304,-3354.8337"/>
<path content="3,大野城市,仲畑ルート,29.0,29.0,29.0," xlink:title="3" d="M13047.5304,-3354.8337L13047.4853,-3354.8117L13047.4637,-3354.8033L13047.4477,-3354.7994L13047.4331,-3354.7897L13047.3999,-3354.7731L13047.3639,-3354.7574L13047.3633,-3354.7571"/>
<path content="3,大野城市,仲畑ルート,29.0,29.0,29.0," xlink:title="3" d="M13047.3633,-3354.9864L13047.368,-3354.9821L13047.3829,-3354.9739L13047.3989,-3354.9658L13047.4098,-3354.9606L13047.4181,-3354.9543L13047.4353,-3354.9404L13047.445,-3354.9314L13047.4556,-3354.9218L13047.4653,-3354.9123L13047.4902,-3354.8849L13047.5175,-3354.8515L13047.5304,-3354.8337"/>
<path content="3,大野城市,大城ルート,33.0,31.0,31.0," xlink:title="3" d="M13048.3566,-3353.528L13048.3127,-3353.5041L13048.292,-3353.491L13048.2672,-3353.4737L13048.2445,-3353.4561L13048.216,-3353.428L13048.1751,-3353.4545L13048.0719,-3353.5338"/>
<path content="3,大野城市,大城ルート,33.0,31.0,31.0," xlink:title="3" d="M13048.3566,-3353.528L13048.3432,-3353.5544L13048.3327,-3353.579L13048.3086,-3353.6294L13048.2701,-3353.626L13048.2378,-3353.6236L13048.2,-3353.6198L13048.1539,-3353.6039L13048.1139,-3353.5753L13048.0719,-3353.5338"/>
<path content="3,大野城市,大城ルート,33.0,31.0,31.0," xlink:title="3" d="M13048.0719,-3353.5338L13048.0386,-3353.4978L13048.0216,-3353.4817L13048.006,-3353.4613L13047.9789,-3353.4278L13047.9483,-3353.3928L13047.9248,-3353.3678L13047.9067,-3353.3477L13047.8935,-3353.3376L13047.8785,-3353.3163L13047.8501,-3353.288L13047.8236,-3353.2641L13047.7838,-3353.233L13047.7409,-3353.1955L13047.6902,-3353.1516L13047.72,-3353.1279L13047.732,-3353.1157L13047.7644,-3353.0934L13047.795,-3353.0722L13047.8128,-3353.0575L13047.821,-3353.0486L13047.8284,-3353.0381L13047.8347,-3353.0273"/>
<path content="3,大野城市,大城ルート,33.0,31.0,31.0," xlink:title="3" d="M13049.143,-3353.542L13049.1558,-3353.5365L13049.1653,-3353.5301L13049.1716,-3353.5238L13049.1752,-3353.5177L13049.1763,-3353.5113L13049.1765,-3353.4957L13049.2015,-3353.4964L13049.2499,-3353.4956L13049.2843,-3353.4965L13049.3253,-3353.4965L13049.3844,-3353.4974L13049.4263,-3353.4987L13049.454,-3353.4996L13049.5278,-3353.5006L13049.5605,-3353.5016"/>
<path content="3,大野城市,大城ルート,33.0,31.0,31.0," xlink:title="3" d="M13049.143,-3353.542L13049.1299,-3353.5155L13049.1147,-3353.4898L13049.107,-3353.481L13049.0953,-3353.4664L13049.0913,-3353.4607L13049.0715,-3353.4447L13049.0382,-3353.4234L13048.9793,-3353.3906L13048.9222,-3353.3614L13048.8377,-3353.3164L13048.8079,-3353.3614L13048.7904,-3353.3845L13048.772,-3353.4056L13048.7417,-3353.4424L13048.7154,-3353.4725L13048.6839,-3353.5052L13048.6741,-3353.5199L13048.6497,-3353.548L13048.6114,-3353.5961L13048.5953,-3353.6169L13048.5747,-3353.6475L13048.5306,-3353.6235L13048.4958,-3353.609L13048.4521,-3353.5839L13048.3566,-3353.528"/>
<path content="3,大野城市,大城ルート,33.0,31.0,31.0," xlink:title="3" d="M13049.5605,-3353.7308L13049.5425,-3353.7293L13049.5089,-3353.732L13049.4931,-3353.7323L13049.481,-3353.7315L13049.4679,-3353.7288L13049.4363,-3353.7207L13049.3677,-3353.7037L13049.3489,-3353.6985L13049.3273,-3353.6932L13049.2926,-3353.6836L13049.2557,-3353.6783L13049.2296,-3353.6748L13049.209,-3353.6716L13049.1689,-3353.6667L13049.1648,-3353.6318L13049.1611,-3353.6148L13049.1609,-3353.5989L13049.1493,-3353.5611L13049.143,-3353.542"/>
<path content="3,大野城市,東部ルート,6.0,6.0,6.0," xlink:title="3" d="M13048.3566,-3353.528L13048.3432,-3353.5544L13048.3327,-3353.579"/>
<path content="3,大野城市,東部ルート,6.0,6.0,6.0," xlink:title="3" d="M13048.3566,-3353.528L13048.3127,-3353.5041L13048.292,-3353.491L13048.2672,-3353.4737L13048.2445,-3353.4561L13048.216,-3353.428L13048.1751,-3353.4545L13048.0719,-3353.5338L13047.9689,-3353.6112"/>
<path content="3,大野城市,東部ルート,6.0,6.0,6.0," xlink:title="3" d="M13047.9689,-3353.6112L13047.9924,-3353.6302L13048.026,-3353.6532L13048.0495,-3353.6671L13048.0785,-3353.6844L13048.1006,-3353.6969L13048.1325,-3353.7101L13048.1588,-3353.7208L13048.1538,-3353.7292L13048.1453,-3353.7389L13048.1357,-3353.7469L13048.1138,-3353.7629L13048.096,-3353.7717L13048.0723,-3353.7802L13048.0483,-3353.7887L13048.0331,-3353.7934L13047.9922,-3353.8097L13048.0218,-3353.8402L13048.0545,-3353.8696L13048.0828,-3353.8965L13048.1095,-3353.9259L13048.138,-3353.9447L13048.1547,-3353.9581L13048.1759,-3353.9727L13048.2039,-3353.9872L13048.1892,-3354.0279L13048.1817,-3354.0478L13048.1709,-3354.0761L13048.1476,-3354.1153L13048.1309,-3354.1365L13048.0917,-3354.1801L13048.0752,-3354.1994L13048.0359,-3354.2414L13048.0045,-3354.2767L13047.9774,-3354.3075L13047.9176,-3354.3752L13047.9687,-3354.407L13048.0992,-3354.4841L13048.1723,-3354.5315L13048.2235,-3354.5603L13048.279,-3354.5951L13048.3483,-3354.636L13048.3855,-3354.6575L13048.4163,-3354.6773L13048.4755,-3354.7098L13048.5318,-3354.7392L13048.5862,-3354.7665L13048.5757,-3354.7832L13048.5659,-3354.7949L13048.5514,-3354.8222L13048.5294,-3354.8573L13048.5128,-3354.881L13048.4766,-3354.93L13048.5291,-3354.955L13048.5724,-3354.9709L13048.5948,-3354.9789L13048.6242,-3354.989L13048.6576,-3354.9982L13048.6822,-3355.0043L13048.7441,-3355.0219L13048.7403,-3355.0385L13048.7331,-3355.064L13048.77,-3355.068L13048.8155,-3355.0729L13048.9328,-3355.0864L13048.9928,-3355.0946L13049.0468,-3355.1042L13049.0622,-3355.108L13049.077,-3355.1115L13049.0968,-3355.1197L13049.1315,-3355.1316L13049.1556,-3355.1408L13049.1934,-3355.1596L13049.2328,-3355.1797L13049.2374,-3355.185L13049.2608,-3355.2041L13049.2732,-3355.2177L13049.2807,-3355.2246M13049.3538,-3355.2246L13049.3533,-3355.2239L13049.3456,-3355.2171L13049.3341,-3355.2095L13049.3233,-3355.2049L13049.3086,-3355.1944L13049.2971,-3355.1892L13049.2768,-3355.1824L13049.2493,-3355.1741L13049.2396,-3355.1702L13049.2348,-3355.1636L13049.2336,-3355.1485L13049.2324,-3355.1228L13049.2287,-3355.0996L13049.2266,-3355.0522L13049.2235,-3355.0151L13049.2212,-3355.0072L13049.2193,-3354.9691L13049.2189,-3354.9445L13049.2189,-3354.9362L13049.2204,-3354.8963L13049.2203,-3354.8867L13049.224,-3354.8367L13049.229,-3354.8015L13049.2266,-3354.7496L13049.2287,-3354.7428L13049.2294,-3354.6928L13049.2291,-3354.6646L13049.2341,-3354.5332L13049.2352,-3354.521L13049.2353,-3354.5053L13049.2348,-3354.4858L13049.2375,-3354.4384L13049.2414,-3354.3781L13049.2412,-3354.3649L13049.2417,-3354.3402L13049.2412,-3354.3039L13049.242,-3354.2918L13049.2443,-3354.278L13049.2536,-3354.252L13049.2649,-3354.2319L13049.2741,-3354.2154L13049.2833,-3354.1995L13049.3029,-3354.1655L13049.3112,-3354.1516L13049.3185,-3354.1353L13049.3235,-3354.1252L13049.3237,-3354.1084L13049.3243,-3354.0996L13049.3222,-3354.0784L13049.3211,-3354.0579L13049.3187,-3354.0429L13049.3164,-3354.0304L13049.3129,-3354.0147L13049.3083,-3354.0088L13049.298,-3353.9946L13049.2816,-3353.9756L13049.2698,-3353.9595L13049.2636,-3353.95L13049.2588,-3353.9402L13049.2559,-3353.9329L13049.2561,-3353.9163L13049.2549,-3353.8854L13049.2518,-3353.8697L13049.2494,-3353.8566L13049.2435,-3353.8457L13049.2265,-3353.8232L13049.2228,-3353.8156L13049.2149,-3353.7972L13049.2105,-3353.7799L13049.2122,-3353.7729L13049.2081,-3353.7552L13049.1955,-3353.7329L13049.183,-3353.7113L13049.1784,-3353.6925L13049.1689,-3353.6667L13049.1648,-3353.6318L13049.1611,-3353.6148L13049.1609,-3353.5989L13049.1493,-3353.5611L13049.143,-3353.542L13049.1299,-3353.5155L13049.1147,-3353.4898L13049.107,-3353.481L13049.0953,-3353.4664L13049.0776,-3353.4946L13049.0614,-3353.519L13049.0485,-3353.5346L13049.0117,-3353.5694L13048.9562,-3353.6209L13048.9125,-3353.6609L13048.87,-3353.6971L13048.8385,-3353.7266L13048.8138,-3353.7526L13048.7969,-3353.7718L13048.751,-3353.7482L13048.6929,-3353.7136L13048.6176,-3353.6719L13048.5747,-3353.6475L13048.5306,-3353.6235L13048.4958,-3353.609L13048.4521,-3353.5839L13048.3566,-3353.528"/>
<path content="3,大野城市,東部ルート,6.0,6.0,6.0," xlink:title="3" d="M13047.582,-3353.7383L13047.5983,-3353.717L13047.6339,-3353.7423L13047.7023,-3353.814L13047.7093,-3353.8099L13047.8633,-3353.6938L13047.9139,-3353.6538L13047.9689,-3353.6112"/>
<path content="3,春日市,5春日原線,7.0,7.0,7.0," xlink:title="3" d="M13047.3633,-3353.0788L13047.3838,-3353.0616L13047.421,-3353.0273"/>
<path content="3,春日市,5春日原線,7.0,7.0,7.0," xlink:title="3" d="M13047.3633,-3353.7059L13047.3678,-3353.7013L13047.4561,-3353.6219L13047.5013,-3353.5813L13047.461,-3353.5432L13047.3633,-3353.4637"/>
</g>
</svg>
