<?xml version="1.0" encoding="UTF-8"?>
<svg  xmlns="http://www.w3.org/2000/svg" xmlns:xlink="http://www.w3.org/1999/xlink" xmlns:go="http://purl.org/svgmap/profile" property="N07_001,N07_002,N07_003,N07_004,N07_005,N07_006,N07_007" viewBox="13491.2109375 -3480.46875 4.39453125 4.39453125" go:dataArea="13491.2109375 -3480.46875 4.39453125 4.39453125" >
<metadata>
 <rdf:RDF xmlns:rdf="http://www.w3.org/1999/02/22-rdf-syntax-ns#" xmlns:crs="http://opengis.org/xmldtds/transformations.dtd" xmlns:svg="http://www.w3.org/svg" >
  <rdf:Description>
   <crs:CoordinateReferenceSystem rdf:resource="http://purl.org/crs/84" svg:transform="matrix(100.0,0.0,0.0,-100.0,0.0,0.0)" />
  </rdf:Description>
 </rdf:RDF>
</metadata>
<globalCoordinateSystem srsName="http://purl.org/crs/84" transform="matrix(100.0,0.0,0.0,-100.0,0.0,0.0)" />
<defs>
 <g id="p0" >
  <circle cx="0.0" cy="0.0" r="3" stroke="green" stroke-width="0.75" vector-effect="non-scaling-stroke" />
 </g>
</defs>
<g fill="none" fill-rule="evenodd" stroke="#FF00FF" stroke-width="0.75" opacity="0.5" vector-effect="non-scaling-stroke" stroke-linejoin="bevel" >
<path content="1,神姫バス（株）,三木営業所～三木工業団地,1.0,1.0,0.0," xlink:title="1" d="M13495.6055,-3479.4477L13495.5606,-3479.4411L13495.5339,-3479.4361L13495.5053,-3479.4293L13495.4651,-3479.4221L13495.4451,-3479.4186L13495.4144,-3479.4152L13495.342,-3479.4039L13495.2813,-3479.3961L13495.2526,-3479.3938L13495.2041,-3479.3927L13495.1437,-3479.3935L13495.1044,-3479.3932L13495.1024,-3479.3932L13495.0034,-3479.3955L13494.9392,-3479.3374L13494.887,-3479.2873L13494.8831,-3479.2828L13494.8599,-3479.2608L13494.8511,-3479.2518L13494.92,-3479.1797L13495.0143,-3479.0782L13495.0641,-3479.0252L13495.0853,-3479.0021L13495.1037,-3478.9835L13495.1215,-3478.9626L13495.1403,-3478.9306L13495.1577,-3478.8848L13495.172,-3478.8291L13495.1918,-3478.7558L13495.1939,-3478.7467L13495.2007,-3478.7315L13495.2333,-3478.6791L13495.2417,-3478.6622L13495.2444,-3478.6588L13495.2642,-3478.644L13495.3113,-3478.6121L13495.3898,-3478.5721L13495.424,-3478.5546L13495.6055,-3478.4643"/>
<path content="1,神姫バス（株）,加古川駅～水足～桐沢～上新田北口,9.0,10.0,10.0," xlink:title="1" d="M13491.2109,-3476.1899L13491.2272,-3476.188L13491.3193,-3476.1754L13491.3344,-3476.1733L13491.3924,-3476.1682L13491.5263,-3476.1592L13491.5734,-3476.1547L13491.5953,-3476.1502L13491.5958,-3476.1506L13491.6383,-3476.2516L13491.6587,-3476.295L13491.6724,-3476.3266L13491.6804,-3476.3422L13491.697,-3476.3745L13491.7088,-3476.3981L13491.7127,-3476.4061L13491.7236,-3476.4269L13491.7653,-3476.4974L13491.8015,-3476.565L13491.8247,-3476.6076L13491.8507,-3476.6552L13491.8705,-3476.6947L13491.8766,-3476.7048L13491.8951,-3476.7476L13491.8957,-3476.7503"/>
<path content="1,神姫バス（株）,加古川駅～水足～福沢～上新田～母里,6.0,1.5,1.5," xlink:title="1" d="M13491.2109,-3476.1899L13491.2272,-3476.188L13491.3193,-3476.1754L13491.3344,-3476.1733L13491.3924,-3476.1682L13491.5263,-3476.1592L13491.5734,-3476.1547L13491.5953,-3476.1502L13491.5958,-3476.1506L13491.6103,-3476.1485L13491.7066,-3476.1451L13491.7578,-3476.1406L13491.7789,-3476.1373L13492.0009,-3476.1051L13492.0596,-3476.0967L13492.1449,-3476.0843L13492.1798,-3476.0814L13492.2196,-3476.0814L13492.2249,-3476.0814L13492.2597,-3476.0837L13492.3391,-3476.0846L13492.3435,-3476.0847L13492.3811,-3476.085L13492.4365,-3476.0837L13492.5491,-3476.0786L13492.567,-3476.0764L13492.604,-3476.0742M13493.0966,-3476.0742L13493.1419,-3476.0792L13493.3782,-3476.1046L13493.6158,-3476.1299L13493.6165,-3476.1299L13493.7435,-3476.1446L13493.7551,-3476.1451L13493.7922,-3476.1415L13493.835,-3476.1316L13493.9912,-3476.0938L13494.0426,-3476.0814L13494.074,-3476.0742"/>
<path content="1,神姫バス（株）,厄神前～上新田北口～天満小学校～土山駅～東二見～西二見駅～播磨町駅,7.6,7.6,7.6," xlink:title="1" d="M13491.564,-3476.0742L13491.5953,-3476.1502L13491.5958,-3476.1506L13491.6383,-3476.2516L13491.6587,-3476.295L13491.6724,-3476.3266L13491.6804,-3476.3422L13491.697,-3476.3745L13491.7088,-3476.3981L13491.7127,-3476.4061L13491.7236,-3476.4269L13491.7653,-3476.4974L13491.8015,-3476.565L13491.8247,-3476.6076L13491.8507,-3476.6552L13491.8705,-3476.6947L13491.8766,-3476.7048L13491.8951,-3476.7476L13491.8957,-3476.7503L13491.9026,-3476.7758L13491.9101,-3476.8091L13491.9144,-3476.8394L13491.9169,-3476.8564L13491.9189,-3476.8767L13491.923,-3476.9319L13491.9355,-3477.0959L13491.938,-3477.1272L13491.9421,-3477.1799L13491.9457,-3477.2389L13491.9476,-3477.2712L13491.9537,-3477.3095L13491.9572,-3477.318L13491.9715,-3477.3796L13491.9865,-3477.4403L13492.0049,-3477.5092L13492.0135,-3477.5395L13492.0177,-3477.5543L13492.0398,-3477.637L13492.0514,-3477.6832L13492.0582,-3477.7092L13492.063,-3477.7503L13492.0603,-3477.8427L13492.0582,-3477.8726L13492.0582,-3477.8923L13492.0527,-3478.0423L13492.0519,-3478.1068L13492.048,-3478.1442L13492.0432,-3478.2795L13492.0393,-3478.3488L13492.035,-3478.4109L13492.0323,-3478.4559L13492.0258,-3478.5333L13492.0255,-3478.5376"/>
<path content="1,神姫バス（株）,厄神駅～三木鉄道三木駅～三木営業所,4.0,3.0,3.0," xlink:title="1" d="M13491.2109,-3479.842L13491.2292,-3479.8498L13491.307,-3479.8838L13491.3659,-3479.911L13491.3915,-3479.8985L13491.4297,-3479.8801L13491.4635,-3479.8633L13491.5686,-3479.8199L13491.5727,-3479.8182L13491.7307,-3479.7527L13491.7445,-3479.747L13491.822,-3479.7149L13491.8376,-3479.7078L13491.8855,-3479.6886L13491.9048,-3479.6823L13491.9528,-3479.6668L13491.9859,-3479.6542L13491.9927,-3479.6525L13492.0025,-3479.6498L13492.007,-3479.6492L13492.0152,-3479.648L13492.0339,-3479.6455L13492.0472,-3479.6449L13492.117,-3479.6451L13492.1593,-3479.6458L13492.1689,-3479.6458L13492.2269,-3479.6458L13492.2333,-3479.6455L13492.2383,-3479.6453L13492.3194,-3479.6436L13492.3498,-3479.6395L13492.3764,-3479.6356L13492.3894,-3479.6333L13492.4037,-3479.6277L13492.4427,-3479.6125L13492.5034,-3479.5809L13492.5262,-3479.5677L13492.5573,-3479.5657L13492.5784,-3479.5644L13492.6018,-3479.5629L13492.6776,-3479.5567L13492.739,-3479.5572L13492.7786,-3479.559L13492.7896,-3479.5595L13492.8777,-3479.5595L13492.9358,-3479.5551L13492.9152,-3479.5781L13492.8981,-3479.5911L13492.8777,-3479.6035L13492.8251,-3479.6435L13492.7998,-3479.6598L13492.7759,-3479.6717L13492.7595,-3479.6818L13492.7398,-3479.6977L13492.73,-3479.7119L13492.7165,-3479.7466L13492.713,-3479.7572L13492.7014,-3479.7923L13492.6953,-3479.8171L13492.6946,-3479.8289L13492.696,-3479.8453L13492.7349,-3479.9287L13492.8149,-3479.9137L13492.9479,-3479.8587L13493.1555,-3479.7903L13493.3693,-3479.7213L13493.2969,-3479.5691L13493.2532,-3479.476L13493.2947,-3479.4638L13493.301,-3479.462L13493.3536,-3479.4496L13493.4014,-3479.4423L13493.4296,-3479.4376L13493.4437,-3479.4355L13493.5359,-3479.4248L13493.6137,-3479.4186L13493.723,-3479.4186L13493.7594,-3479.4186L13493.8275,-3479.419L13493.921,-3479.4203L13493.9784,-3479.4208L13494.0173,-3479.4208L13494.0501,-3479.4191L13494.147,-3479.4191L13494.2793,-3479.4203L13494.3656,-3479.4259L13494.4763,-3479.4337L13494.5376,-3479.4361L13494.6073,-3479.4366L13494.6967,-3479.4417L13494.7513,-3479.4434L13494.7657,-3479.4434L13494.7882,-3479.4439L13494.8244,-3479.4423L13494.8299,-3479.4417L13494.8401,-3479.44L13494.864,-3479.4321L13494.8941,-3479.4208L13494.9385,-3479.4028L13494.9494,-3479.4L13494.9726,-3479.3983L13495.0034,-3479.3955L13495.1024,-3479.3932L13495.1044,-3479.3932L13495.1437,-3479.3935L13495.2041,-3479.3927L13495.2526,-3479.3938L13495.2813,-3479.3961L13495.342,-3479.4039L13495.4144,-3479.4152L13495.4451,-3479.4186L13495.4651,-3479.4221L13495.5053,-3479.4293L13495.5339,-3479.4361L13495.5606,-3479.4411L13495.6055,-3479.4477"/>
<path content="1,神姫バス（株）,厄神駅～三木鉄道三木駅～市役所前～恵比須駅,13.5,12.5,12.5," xlink:title="1" d="M13491.2109,-3479.842L13491.2292,-3479.8498L13491.307,-3479.8838L13491.3659,-3479.911L13491.3915,-3479.8985L13491.4297,-3479.8801L13491.4635,-3479.8633L13491.5686,-3479.8199L13491.5727,-3479.8182L13491.7307,-3479.7527L13491.7445,-3479.747L13491.822,-3479.7149L13491.8376,-3479.7078L13491.8855,-3479.6886L13491.9048,-3479.6823L13491.9528,-3479.6668L13491.9859,-3479.6542L13491.9927,-3479.6525L13492.0025,-3479.6498L13492.007,-3479.6492L13492.0152,-3479.648L13492.0339,-3479.6455L13492.0472,-3479.6449L13492.117,-3479.6451L13492.1593,-3479.6458L13492.1689,-3479.6458L13492.2269,-3479.6458L13492.2333,-3479.6455L13492.2383,-3479.6453L13492.3194,-3479.6436L13492.3498,-3479.6395L13492.3764,-3479.6356L13492.3894,-3479.6333L13492.4037,-3479.6277L13492.4427,-3479.6125L13492.5034,-3479.5809L13492.5262,-3479.5677L13492.5573,-3479.5657L13492.5784,-3479.5644L13492.6018,-3479.5629L13492.6776,-3479.5567L13492.739,-3479.5572L13492.7786,-3479.559L13492.7896,-3479.5595L13492.8777,-3479.5595L13492.9358,-3479.5551L13492.9152,-3479.5781L13492.8981,-3479.5911L13492.8777,-3479.6035L13492.8251,-3479.6435L13492.7998,-3479.6598L13492.7759,-3479.6717L13492.7595,-3479.6818L13492.7398,-3479.6977L13492.73,-3479.7119L13492.7165,-3479.7466L13492.713,-3479.7572L13492.7014,-3479.7923L13492.6953,-3479.8171L13492.6946,-3479.8289L13492.696,-3479.8453L13492.7349,-3479.9287L13492.8149,-3479.9137L13492.9479,-3479.8587L13493.1555,-3479.7903L13493.3693,-3479.7213L13493.2969,-3479.5691L13493.2532,-3479.476L13493.2947,-3479.4638L13493.301,-3479.462L13493.3536,-3479.4496L13493.4014,-3479.4423L13493.4296,-3479.4376L13493.4437,-3479.4355L13493.5359,-3479.4248L13493.6137,-3479.4186L13493.723,-3479.4186L13493.7594,-3479.4186L13493.8275,-3479.419L13493.921,-3479.4203L13493.9784,-3479.4208L13494.0173,-3479.4208L13494.0501,-3479.4191L13494.147,-3479.4191L13494.2793,-3479.4203L13494.3656,-3479.4259L13494.4763,-3479.4337L13494.5376,-3479.4361L13494.6073,-3479.4366L13494.6967,-3479.4417L13494.7513,-3479.4434L13494.7657,-3479.4434L13494.7882,-3479.4439L13494.8244,-3479.4423L13494.8299,-3479.4417L13494.8401,-3479.44L13494.864,-3479.4321L13494.8941,-3479.4208L13494.9385,-3479.4028L13494.9494,-3479.4L13494.9726,-3479.3983L13495.0034,-3479.3955L13495.1024,-3479.3932L13495.1044,-3479.3932L13495.1437,-3479.3935L13495.2041,-3479.3927L13495.2526,-3479.3938L13495.2813,-3479.3961L13495.342,-3479.4039L13495.4144,-3479.4152L13495.4451,-3479.4186L13495.4651,-3479.4221L13495.5053,-3479.4293L13495.5339,-3479.4361L13495.5606,-3479.4411L13495.6055,-3479.4477"/>
<path content="1,神姫バス（株）,土山駅～天満小学校～稲芙町役場前～上新田北口～厄神前～電鉄小野駅,999.9,999.9,999.9," xlink:title="1" d="M13491.564,-3476.0742L13491.5953,-3476.1502L13491.5958,-3476.1506L13491.6383,-3476.2516L13491.6587,-3476.295L13491.6724,-3476.3266L13491.6804,-3476.3422L13491.697,-3476.3745L13491.7088,-3476.3981L13491.7127,-3476.4061L13491.7236,-3476.4269L13491.7653,-3476.4974L13491.8015,-3476.565L13491.8247,-3476.6076L13491.8507,-3476.6552L13491.8705,-3476.6947L13491.8766,-3476.7048L13491.8951,-3476.7476L13491.8957,-3476.7503L13491.9026,-3476.7758L13491.9101,-3476.8091L13491.9144,-3476.8394L13491.9169,-3476.8564L13491.9189,-3476.8767L13491.923,-3476.9319L13491.9355,-3477.0959L13491.938,-3477.1272L13491.9421,-3477.1799L13491.9457,-3477.2389L13491.9476,-3477.2712L13491.9537,-3477.3095L13491.9572,-3477.318L13491.9715,-3477.3796L13491.9865,-3477.4403L13492.0049,-3477.5092L13492.0135,-3477.5395L13492.0177,-3477.5543L13492.0398,-3477.637L13492.0514,-3477.6832L13492.0582,-3477.7092L13492.063,-3477.7503L13492.0603,-3477.8427L13492.0582,-3477.8726L13492.0582,-3477.8923L13492.0527,-3478.0423L13492.0519,-3478.1068L13492.048,-3478.1442L13492.0432,-3478.2795L13492.0393,-3478.3488L13492.035,-3478.4109L13492.0323,-3478.4559L13492.0258,-3478.5333L13492.0255,-3478.5376L13492.0254,-3478.545L13492.022,-3478.5884L13492.0234,-3478.6312L13492.0298,-3478.6665L13492.0379,-3478.7116L13492.0397,-3478.7212L13492.0544,-3478.7941L13492.0624,-3478.8282L13492.0726,-3478.8708L13492.0869,-3478.922L13492.1006,-3478.9711L13492.106,-3478.9886L13492.1183,-3479.0376L13492.1246,-3479.055L13492.1315,-3479.0716L13492.1449,-3479.0996L13492.1955,-3479.1734L13492.2761,-3479.3076L13492.2963,-3479.3433L13492.2993,-3479.3487L13492.3412,-3479.4238L13492.3477,-3479.4355L13492.3559,-3479.4592L13492.358,-3479.4761L13492.3652,-3479.5154L13492.3716,-3479.5488L13492.3798,-3479.5854L13492.3804,-3479.5888L13492.3812,-3479.5931L13492.3819,-3479.5967L13492.3867,-3479.6153L13492.3894,-3479.6333L13492.3914,-3479.6452L13492.3969,-3479.6869L13492.4024,-3479.7184L13492.4133,-3479.7781L13492.4237,-3479.824L13492.4556,-3479.9315L13492.4706,-3479.98L13492.474,-3479.9901L13492.4782,-3480.0008L13492.4911,-3480.0419L13492.4963,-3480.0626L13492.5,-3480.078L13492.5041,-3480.1028L13492.5062,-3480.122L13492.5062,-3480.2336L13492.5027,-3480.2691L13492.5016,-3480.2779L13492.4946,-3480.3311L13492.4939,-3480.3469L13492.4864,-3480.4066L13492.5275,-3480.4688"/>
<path content="1,神姫バス（株）,土山駅～稲美町役場前～北新田北口～厄神前～電鉄小野駅、土山駅～稲美町役場前～上新田北口,999.9,999.9,999.9," xlink:title="1" d="M13491.564,-3476.0742L13491.5953,-3476.1502L13491.5958,-3476.1506L13491.6383,-3476.2516L13491.6587,-3476.295L13491.6724,-3476.3266L13491.6804,-3476.3422L13491.697,-3476.3745L13491.7088,-3476.3981L13491.7127,-3476.4061L13491.7236,-3476.4269L13491.7653,-3476.4974L13491.8015,-3476.565L13491.8247,-3476.6076L13491.8507,-3476.6552L13491.8705,-3476.6947L13491.8766,-3476.7048L13491.8951,-3476.7476L13491.8957,-3476.7503L13491.9026,-3476.7758L13491.9101,-3476.8091L13491.9144,-3476.8394L13491.9169,-3476.8564L13491.9189,-3476.8767L13491.923,-3476.9319L13491.9355,-3477.0959L13491.938,-3477.1272L13491.9421,-3477.1799L13491.9457,-3477.2389L13491.9476,-3477.2712L13491.9537,-3477.3095L13491.9572,-3477.318L13491.9715,-3477.3796L13491.9865,-3477.4403L13492.0049,-3477.5092L13492.0135,-3477.5395L13492.0177,-3477.5543L13492.0398,-3477.637L13492.0514,-3477.6832L13492.0582,-3477.7092L13492.063,-3477.7503L13492.0603,-3477.8427L13492.0582,-3477.8726L13492.0582,-3477.8923L13492.0527,-3478.0423L13492.0519,-3478.1068L13492.048,-3478.1442L13492.0432,-3478.2795L13492.0393,-3478.3488L13492.035,-3478.4109L13492.0323,-3478.4559L13492.0258,-3478.5333L13492.0255,-3478.5376L13492.0254,-3478.545L13492.022,-3478.5884L13492.0234,-3478.6312L13492.0298,-3478.6665L13492.0379,-3478.7116L13492.0397,-3478.7212L13492.0544,-3478.7941L13492.0624,-3478.8282L13492.0726,-3478.8708L13492.0869,-3478.922L13492.1006,-3478.9711L13492.106,-3478.9886L13492.1183,-3479.0376L13492.1246,-3479.055L13492.1315,-3479.0716L13492.1449,-3479.0996L13492.1955,-3479.1734L13492.2761,-3479.3076L13492.2963,-3479.3433L13492.2993,-3479.3487L13492.3412,-3479.4238L13492.3477,-3479.4355L13492.3559,-3479.4592L13492.358,-3479.4761L13492.3652,-3479.5154L13492.3716,-3479.5488L13492.3798,-3479.5854L13492.3804,-3479.5888L13492.3812,-3479.5931L13492.3819,-3479.5967L13492.3867,-3479.6153L13492.3894,-3479.6333L13492.3914,-3479.6452L13492.3969,-3479.6869L13492.4024,-3479.7184L13492.4133,-3479.7781L13492.4237,-3479.824L13492.4556,-3479.9315L13492.4706,-3479.98L13492.474,-3479.9901L13492.4782,-3480.0008L13492.4911,-3480.0419L13492.4963,-3480.0626L13492.5,-3480.078L13492.5041,-3480.1028L13492.5062,-3480.122L13492.5062,-3480.2336L13492.5027,-3480.2691L13492.5016,-3480.2779L13492.4946,-3480.3311L13492.4939,-3480.3469L13492.4864,-3480.4066L13492.5275,-3480.4688"/>
<path content="1,神姫バス（株）,播暦町駅～西二見駅～土山駅～上新田北口～厄神前,6.7,6.3,6.3," xlink:title="1" d="M13491.564,-3476.0742L13491.5953,-3476.1502L13491.5958,-3476.1506L13491.6383,-3476.2516L13491.6587,-3476.295L13491.6724,-3476.3266L13491.6804,-3476.3422L13491.697,-3476.3745L13491.7088,-3476.3981L13491.7127,-3476.4061L13491.7236,-3476.4269L13491.7653,-3476.4974L13491.8015,-3476.565L13491.8247,-3476.6076L13491.8507,-3476.6552L13491.8705,-3476.6947L13491.8766,-3476.7048L13491.8951,-3476.7476L13491.8957,-3476.7503L13491.9026,-3476.7758L13491.9101,-3476.8091L13491.9144,-3476.8394L13491.9169,-3476.8564L13491.9189,-3476.8767L13491.923,-3476.9319L13491.9355,-3477.0959L13491.938,-3477.1272L13491.9421,-3477.1799L13491.9457,-3477.2389L13491.9476,-3477.2712L13491.9537,-3477.3095L13491.9572,-3477.318L13491.9715,-3477.3796L13491.9865,-3477.4403L13492.0049,-3477.5092L13492.0135,-3477.5395L13492.0177,-3477.5543L13492.0398,-3477.637L13492.0514,-3477.6832L13492.0582,-3477.7092L13492.063,-3477.7503L13492.0603,-3477.8427L13492.0582,-3477.8726L13492.0582,-3477.8923L13492.0527,-3478.0423L13492.0519,-3478.1068L13492.048,-3478.1442L13492.0432,-3478.2795L13492.0393,-3478.3488L13492.035,-3478.4109L13492.0323,-3478.4559L13492.0258,-3478.5333L13492.0255,-3478.5376"/>
<path content="1,神姫バス（株）,播磨町駅～土山駅～上新田北口,1.0,0.0,0.0," xlink:title="1" d="M13491.564,-3476.0742L13491.5953,-3476.1502L13491.5958,-3476.1506L13491.6383,-3476.2516L13491.6587,-3476.295L13491.6724,-3476.3266L13491.6804,-3476.3422L13491.697,-3476.3745L13491.7088,-3476.3981L13491.7127,-3476.4061L13491.7236,-3476.4269L13491.7653,-3476.4974L13491.8015,-3476.565L13491.8247,-3476.6076L13491.8507,-3476.6552L13491.8705,-3476.6947L13491.8766,-3476.7048L13491.8951,-3476.7476L13491.8957,-3476.7503"/>
<path content="1,神姫バス（株）,播磨町駅～西二見駅～土山駅～稲美町役場前～上新田北口,4.3,0.0,0.0," xlink:title="1" d="M13491.564,-3476.0742L13491.5953,-3476.1502L13491.5958,-3476.1506L13491.6383,-3476.2516L13491.6587,-3476.295L13491.6724,-3476.3266L13491.6804,-3476.3422L13491.697,-3476.3745L13491.7088,-3476.3981L13491.7127,-3476.4061L13491.7236,-3476.4269L13491.7653,-3476.4974L13491.8015,-3476.565L13491.8247,-3476.6076L13491.8507,-3476.6552L13491.8705,-3476.6947L13491.8766,-3476.7048L13491.8951,-3476.7476L13491.8957,-3476.7503"/>
<path content="1,神姫バス（株）,播磨町駅～西二見駅～東二見～土山駅～天満小学校～稲美町役場前～上新田北口,3.5,0.0,0.0," xlink:title="1" d="M13491.564,-3476.0742L13491.5953,-3476.1502L13491.5958,-3476.1506L13491.6383,-3476.2516L13491.6587,-3476.295L13491.6724,-3476.3266L13491.6804,-3476.3422L13491.697,-3476.3745L13491.7088,-3476.3981L13491.7127,-3476.4061L13491.7236,-3476.4269L13491.7653,-3476.4974L13491.8015,-3476.565L13491.8247,-3476.6076L13491.8507,-3476.6552L13491.8705,-3476.6947L13491.8766,-3476.7048L13491.8951,-3476.7476L13491.8957,-3476.7503"/>
<path content="1,神姫バス（株）,電鉄小野駅～厄神前～上新田北口～土山駅,999.9,999.9,999.9," xlink:title="1" d="M13491.564,-3476.0742L13491.5953,-3476.1502L13491.5958,-3476.1506L13491.6383,-3476.2516L13491.6587,-3476.295L13491.6724,-3476.3266L13491.6804,-3476.3422L13491.697,-3476.3745L13491.7088,-3476.3981L13491.7127,-3476.4061L13491.7236,-3476.4269L13491.7653,-3476.4974L13491.8015,-3476.565L13491.8247,-3476.6076L13491.8507,-3476.6552L13491.8705,-3476.6947L13491.8766,-3476.7048L13491.8951,-3476.7476L13491.8957,-3476.7503L13491.9026,-3476.7758L13491.9101,-3476.8091L13491.9144,-3476.8394L13491.9169,-3476.8564L13491.9189,-3476.8767L13491.923,-3476.9319L13491.9355,-3477.0959L13491.938,-3477.1272L13491.9421,-3477.1799L13491.9457,-3477.2389L13491.9476,-3477.2712L13491.9537,-3477.3095L13491.9572,-3477.318L13491.9715,-3477.3796L13491.9865,-3477.4403L13492.0049,-3477.5092L13492.0135,-3477.5395L13492.0177,-3477.5543L13492.0398,-3477.637L13492.0514,-3477.6832L13492.0582,-3477.7092L13492.063,-3477.7503L13492.0603,-3477.8427L13492.0582,-3477.8726L13492.0582,-3477.8923L13492.0527,-3478.0423L13492.0519,-3478.1068L13492.048,-3478.1442L13492.0432,-3478.2795L13492.0393,-3478.3488L13492.035,-3478.4109L13492.0323,-3478.4559L13492.0258,-3478.5333L13492.0255,-3478.5376L13492.0254,-3478.545L13492.022,-3478.5884L13492.0234,-3478.6312L13492.0298,-3478.6665L13492.0379,-3478.7116L13492.0397,-3478.7212L13492.0544,-3478.7941L13492.0624,-3478.8282L13492.0726,-3478.8708L13492.0869,-3478.922L13492.1006,-3478.9711L13492.106,-3478.9886L13492.1183,-3479.0376L13492.1246,-3479.055L13492.1315,-3479.0716L13492.1449,-3479.0996L13492.1955,-3479.1734L13492.2761,-3479.3076L13492.2963,-3479.3433L13492.2993,-3479.3487L13492.3412,-3479.4238L13492.3477,-3479.4355L13492.3559,-3479.4592L13492.358,-3479.4761L13492.3652,-3479.5154L13492.3716,-3479.5488L13492.3798,-3479.5854L13492.3804,-3479.5888L13492.3812,-3479.5931L13492.3819,-3479.5967L13492.3867,-3479.6153L13492.3894,-3479.6333L13492.3914,-3479.6452L13492.3969,-3479.6869L13492.4024,-3479.7184L13492.4133,-3479.7781L13492.4237,-3479.824L13492.4556,-3479.9315L13492.4706,-3479.98L13492.474,-3479.9901L13492.4782,-3480.0008L13492.4911,-3480.0419L13492.4963,-3480.0626L13492.5,-3480.078L13492.5041,-3480.1028L13492.5062,-3480.122L13492.5062,-3480.2336L13492.5027,-3480.2691L13492.5016,-3480.2779L13492.4946,-3480.3311L13492.4939,-3480.3469L13492.4864,-3480.4066L13492.5275,-3480.4688"/>
<path content="1,神姫バス（株）,電鉄小野駅～厄神前～上新田北口～天満小学校～土山駅,999.9,999.9,999.9," xlink:title="1" d="M13491.564,-3476.0742L13491.5953,-3476.1502L13491.5958,-3476.1506L13491.6383,-3476.2516L13491.6587,-3476.295L13491.6724,-3476.3266L13491.6804,-3476.3422L13491.697,-3476.3745L13491.7088,-3476.3981L13491.7127,-3476.4061L13491.7236,-3476.4269L13491.7653,-3476.4974L13491.8015,-3476.565L13491.8247,-3476.6076L13491.8507,-3476.6552L13491.8705,-3476.6947L13491.8766,-3476.7048L13491.8951,-3476.7476L13491.8957,-3476.7503L13491.9026,-3476.7758L13491.9101,-3476.8091L13491.9144,-3476.8394L13491.9169,-3476.8564L13491.9189,-3476.8767L13491.923,-3476.9319L13491.9355,-3477.0959L13491.938,-3477.1272L13491.9421,-3477.1799L13491.9457,-3477.2389L13491.9476,-3477.2712L13491.9537,-3477.3095L13491.9572,-3477.318L13491.9715,-3477.3796L13491.9865,-3477.4403L13492.0049,-3477.5092L13492.0135,-3477.5395L13492.0177,-3477.5543L13492.0398,-3477.637L13492.0514,-3477.6832L13492.0582,-3477.7092L13492.063,-3477.7503L13492.0603,-3477.8427L13492.0582,-3477.8726L13492.0582,-3477.8923L13492.0527,-3478.0423L13492.0519,-3478.1068L13492.048,-3478.1442L13492.0432,-3478.2795L13492.0393,-3478.3488L13492.035,-3478.4109L13492.0323,-3478.4559L13492.0258,-3478.5333L13492.0255,-3478.5376L13492.0254,-3478.545L13492.022,-3478.5884L13492.0234,-3478.6312L13492.0298,-3478.6665L13492.0379,-3478.7116L13492.0397,-3478.7212L13492.0544,-3478.7941L13492.0624,-3478.8282L13492.0726,-3478.8708L13492.0869,-3478.922L13492.1006,-3478.9711L13492.106,-3478.9886L13492.1183,-3479.0376L13492.1246,-3479.055L13492.1315,-3479.0716L13492.1449,-3479.0996L13492.1955,-3479.1734L13492.2761,-3479.3076L13492.2963,-3479.3433L13492.2993,-3479.3487L13492.3412,-3479.4238L13492.3477,-3479.4355L13492.3559,-3479.4592L13492.358,-3479.4761L13492.3652,-3479.5154L13492.3716,-3479.5488L13492.3798,-3479.5854L13492.3804,-3479.5888L13492.3812,-3479.5931L13492.3819,-3479.5967L13492.3867,-3479.6153L13492.3894,-3479.6333L13492.3914,-3479.6452L13492.3969,-3479.6869L13492.4024,-3479.7184L13492.4133,-3479.7781L13492.4237,-3479.824L13492.4556,-3479.9315L13492.4706,-3479.98L13492.474,-3479.9901L13492.4782,-3480.0008L13492.4911,-3480.0419L13492.4963,-3480.0626L13492.5,-3480.078L13492.5041,-3480.1028L13492.5062,-3480.122L13492.5062,-3480.2336L13492.5027,-3480.2691L13492.5016,-3480.2779L13492.4946,-3480.3311L13492.4939,-3480.3469L13492.4864,-3480.4066L13492.5275,-3480.4688"/>
<path content="3,三木市,JR厄神駅行き,19.0,19.0,19.0," xlink:title="3" d="M13491.2109,-3479.842L13491.2292,-3479.8498L13491.307,-3479.8838L13491.3659,-3479.911L13491.3915,-3479.8985L13491.4297,-3479.8801L13491.4635,-3479.8633L13491.5686,-3479.8199L13491.5727,-3479.8182L13491.7307,-3479.7527L13491.7445,-3479.747L13491.822,-3479.7149L13491.8376,-3479.7078L13491.8855,-3479.6886L13491.9048,-3479.6823L13491.9528,-3479.6668L13491.9859,-3479.6542L13491.9927,-3479.6525L13492.0025,-3479.6498L13492.007,-3479.6492L13492.0152,-3479.648L13492.0339,-3479.6455L13492.0472,-3479.6449L13492.117,-3479.6451L13492.1593,-3479.6458L13492.1689,-3479.6458L13492.2269,-3479.6458L13492.2333,-3479.6455L13492.2383,-3479.6453L13492.3194,-3479.6436L13492.3498,-3479.6395L13492.3764,-3479.6356L13492.3894,-3479.6333L13492.4037,-3479.6277L13492.4427,-3479.6125L13492.5034,-3479.5809L13492.5262,-3479.5677L13492.5573,-3479.5657L13492.5784,-3479.5644L13492.6018,-3479.5629L13492.6776,-3479.5567L13492.739,-3479.5572L13492.7786,-3479.559L13492.7896,-3479.5595L13492.8777,-3479.5595L13492.9358,-3479.5551L13492.9152,-3479.5781L13492.8981,-3479.5911L13492.8777,-3479.6035L13492.8251,-3479.6435L13492.7998,-3479.6598L13492.7759,-3479.6717L13492.7595,-3479.6818L13492.7398,-3479.6977L13492.73,-3479.7119L13492.7165,-3479.7466L13492.713,-3479.7572L13492.7014,-3479.7923L13492.6953,-3479.8171L13492.6946,-3479.8289L13492.696,-3479.8453L13492.7349,-3479.9287L13492.8149,-3479.9137L13492.9479,-3479.8587L13493.1555,-3479.7903L13493.3693,-3479.7213L13493.2969,-3479.5691L13493.2532,-3479.476L13493.2947,-3479.4638L13493.301,-3479.462L13493.3536,-3479.4496L13493.4014,-3479.4423L13493.4296,-3479.4376L13493.4437,-3479.4355L13493.5359,-3479.4248L13493.6137,-3479.4186L13493.723,-3479.4186L13493.7594,-3479.4186L13493.8275,-3479.419L13493.921,-3479.4203L13493.9784,-3479.4208L13494.0173,-3479.4208L13494.0501,-3479.4191L13494.147,-3479.4191L13494.2793,-3479.4203L13494.3656,-3479.4259L13494.4763,-3479.4337L13494.5376,-3479.4361L13494.6073,-3479.4366L13494.6967,-3479.4417L13494.7513,-3479.4434L13494.7657,-3479.4434L13494.7882,-3479.4439L13494.8244,-3479.4423L13494.8299,-3479.4417L13494.8401,-3479.44L13494.864,-3479.4321L13494.8941,-3479.4208L13494.9385,-3479.4028L13494.9494,-3479.4L13494.9726,-3479.3983L13495.0034,-3479.3955L13495.1024,-3479.3932L13495.1044,-3479.3932L13495.1437,-3479.3935L13495.2041,-3479.3927L13495.2526,-3479.3938L13495.2813,-3479.3961L13495.342,-3479.4039L13495.4144,-3479.4152L13495.4451,-3479.4186L13495.4651,-3479.4221L13495.5053,-3479.4293L13495.5339,-3479.4361L13495.5606,-3479.4411L13495.6055,-3479.4477"/>
<path content="3,三木市,別所第1ルート61,3.5,3.5,3.5," xlink:title="3" d="M13495.1447,-3480.1913L13495.0621,-3480.1682L13495.0402,-3480.1614L13494.9166,-3480.1274L13494.6974,-3480.0685L13494.4874,-3480.0108L13494.2824,-3479.9539L13494.1976,-3479.9304L13494.1833,-3479.9298L13494.0685,-3479.9456L13494.046,-3479.9486L13493.8432,-3479.9754L13493.8418,-3479.9754L13493.8288,-3479.9766L13493.7503,-3479.9873L13493.7367,-3479.9929L13493.6468,-3480.0482L13493.5769,-3480.0914L13493.4544,-3480.1666L13493.3877,-3480.2076L13493.3618,-3480.2285L13493.3133,-3480.2877L13493.2914,-3480.3063L13493.2714,-3480.3198L13493.2778,-3480.3367L13493.2778,-3480.3486L13493.2573,-3480.388L13493.2382,-3480.4286L13493.2212,-3480.4688M13492.8771,-3480.4687L13492.8818,-3480.4455L13492.8893,-3480.4207L13492.9151,-3480.3688L13492.9377,-3480.3232L13492.9486,-3480.2939L13492.9541,-3480.2691L13492.9582,-3480.2486L13492.9555,-3480.2353L13492.9473,-3480.2167L13492.9432,-3480.2094L13492.9254,-3480.1716L13492.9029,-3480.1366L13492.8858,-3480.1096L13492.8777,-3480.0938L13492.8715,-3480.0808L13492.8149,-3479.9137L13492.8114,-3479.9033L13492.7728,-3479.7949"/>
<path content="3,三木市,別所第1ルート61,3.5,3.5,3.5," xlink:title="3" d="M13494.9767,-3480.3553L13495.0682,-3480.3159L13495.0832,-3480.3085L13495.1037,-3480.3001L13495.1146,-3480.2894L13495.1194,-3480.2798L13495.1228,-3480.2465L13495.1283,-3480.2251L13495.1447,-3480.1913"/>
<path content="3,三木市,別所第1ルート61,3.5,3.5,3.5," xlink:title="3" d="M13495.3356,-3480.4688L13495.3196,-3480.3694L13495.3179,-3480.3561L13495.314,-3480.3316L13495.3079,-3480.2922L13495.3001,-3480.2639L13495.2961,-3480.2546L13495.2758,-3480.2431L13495.2519,-3480.2347L13495.2,-3480.2133L13495.1652,-3480.1992L13495.1447,-3480.1913"/>
<path content="3,三木市,別所第2ルート62,4.0,4.0,4.0," xlink:title="3" d="M13493.8692,-3477.9447L13493.861,-3477.9448L13493.7681,-3477.9577L13493.7073,-3477.9673L13493.6973,-3477.9694L13493.7121,-3477.991L13493.8377,-3478.1663L13493.9446,-3478.311L13493.9688,-3478.3421L13494.1264,-3478.2672L13494.2897,-3478.1882L13494.4596,-3478.1038L13494.6209,-3478.0248L13494.7397,-3477.9676L13494.7882,-3477.9434L13494.9378,-3477.8709L13495.0996,-3477.7875L13495.1028,-3477.7856L13495.1062,-3477.7835L13495.1236,-3477.7728L13495.1713,-3477.7458L13495.1993,-3477.7311L13495.2396,-3477.7131L13495.2601,-3477.7041L13495.3011,-3477.6877L13495.366,-3477.6691L13495.4411,-3477.6488L13495.493,-3477.6342L13495.5606,-3477.6162L13495.6008,-3477.6038L13495.6055,-3477.602"/>
</g>
</svg>
