<?xml version="1.0" encoding="UTF-8"?>
<svg  xmlns="http://www.w3.org/2000/svg" xmlns:xlink="http://www.w3.org/1999/xlink" xmlns:go="http://purl.org/svgmap/profile" property="N07_001,N07_002,N07_003,N07_004,N07_005,N07_006,N07_007" viewBox="14110.83984375 -3913.330078125 1.0986328125 1.0986328125" go:dataArea="14110.83984375 -3913.330078125 1.0986328125 1.0986328125" >
<metadata>
 <rdf:RDF xmlns:rdf="http://www.w3.org/1999/02/22-rdf-syntax-ns#" xmlns:crs="http://opengis.org/xmldtds/transformations.dtd" xmlns:svg="http://www.w3.org/svg" >
  <rdf:Description>
   <crs:CoordinateReferenceSystem rdf:resource="http://purl.org/crs/84" svg:transform="matrix(100.0,0.0,0.0,-100.0,0.0,0.0)" />
  </rdf:Description>
 </rdf:RDF>
</metadata>
<globalCoordinateSystem srsName="http://purl.org/crs/84" transform="matrix(100.0,0.0,0.0,-100.0,0.0,0.0)" />
<defs>
 <g id="p0" >
  <circle cx="0.0" cy="0.0" r="3" stroke="green" stroke-width="0.75" vector-effect="non-scaling-stroke" />
 </g>
</defs>
<g fill="none" fill-rule="evenodd" stroke="#FF00FF" stroke-width="0.75" opacity="0.5" vector-effect="non-scaling-stroke" stroke-linejoin="bevel" >
<path content="1,JRバス東北（株）,うみねこ号,1.0,1.0,1.0," xlink:title="1" d="M14111.86,-3912.2314L14111.8592,-3912.2406L14111.857,-3912.279L14111.8561,-3912.2954L14111.855,-3912.3137L14111.8538,-3912.3463L14111.8537,-3912.3516L14111.8513,-3912.4224L14111.8492,-3912.4417L14111.847,-3912.4635L14111.8499,-3912.5758L14111.8499,-3912.5778L14111.85,-3912.579L14111.85,-3912.5793L14111.85,-3912.5793L14111.85,-3912.5793L14111.85,-3912.5793L14111.851,-3912.6182L14111.851,-3912.6182L14111.851,-3912.6182L14111.851,-3912.6182L14111.851,-3912.6182L14111.851,-3912.6183L14111.8517,-3912.6325L14111.8518,-3912.6333L14111.8518,-3912.6334L14111.8518,-3912.6334L14111.8518,-3912.6344L14111.8531,-3912.6583L14111.8531,-3912.6584L14111.8531,-3912.6584L14111.8581,-3912.7417L14111.8596,-3912.7585L14111.8626,-3912.792L14111.8658,-3912.818L14111.8673,-3912.8293L14111.8702,-3912.8543L14111.8727,-3912.8762L14111.8876,-3912.9918L14111.8922,-3913.0173L14111.9065,-3913.0972L14111.9227,-3913.2042L14111.9227,-3913.2042L14111.9227,-3913.2043L14111.9229,-3913.205L14111.9229,-3913.2051L14111.9229,-3913.2051L14111.9229,-3913.2052L14111.9229,-3913.2052L14111.9229,-3913.2052L14111.9229,-3913.2052L14111.9229,-3913.2053L14111.9229,-3913.2053L14111.9229,-3913.2053L14111.9229,-3913.2053L14111.9229,-3913.2054L14111.9229,-3913.2054L14111.9229,-3913.2055L14111.9229,-3913.2055L14111.9281,-3913.2391L14111.9385,-3913.2977"/>
<path content="1,JRバス東北（株）,けんじライナー号,1.0,1.0,1.0," xlink:title="1" d="M14111.86,-3912.2314L14111.8593,-3912.2397L14111.8592,-3912.2405L14111.8592,-3912.2417L14111.857,-3912.279L14111.8561,-3912.2954L14111.855,-3912.3137L14111.8538,-3912.3463L14111.8537,-3912.3516L14111.8513,-3912.4224L14111.8492,-3912.4417L14111.847,-3912.4635L14111.8499,-3912.5758L14111.8499,-3912.5778L14111.85,-3912.579L14111.85,-3912.5793L14111.85,-3912.5793L14111.85,-3912.5793L14111.85,-3912.5793L14111.851,-3912.6182L14111.851,-3912.6182L14111.851,-3912.6182L14111.851,-3912.6182L14111.851,-3912.6182L14111.851,-3912.6183L14111.8517,-3912.6325L14111.8518,-3912.6333L14111.8518,-3912.6334L14111.8518,-3912.6334L14111.8518,-3912.6344L14111.8531,-3912.6583L14111.8531,-3912.6584L14111.8531,-3912.6584L14111.8581,-3912.7417L14111.8596,-3912.7585L14111.8626,-3912.792L14111.8658,-3912.818L14111.8673,-3912.8293L14111.8702,-3912.8543L14111.8727,-3912.8762L14111.8876,-3912.9918L14111.8922,-3913.0173L14111.9065,-3913.0972L14111.9227,-3913.2042L14111.9227,-3913.2042L14111.9227,-3913.2043L14111.9229,-3913.205L14111.9229,-3913.2051L14111.9229,-3913.2051L14111.9229,-3913.2052L14111.9229,-3913.2052L14111.9229,-3913.2052L14111.9229,-3913.2052L14111.9229,-3913.2053L14111.9229,-3913.2053L14111.9229,-3913.2053L14111.9229,-3913.2053L14111.9229,-3913.2054L14111.9229,-3913.2054L14111.9229,-3913.2055L14111.9229,-3913.2055L14111.9281,-3913.2391L14111.9385,-3913.2977"/>
<path content="1,JRバス東北（株）,アーバン号,3.2,4.0,4.0," xlink:title="1" d="M14111.86,-3912.2314L14111.8592,-3912.2406L14111.857,-3912.279L14111.8561,-3912.2954L14111.855,-3912.3137L14111.8538,-3912.3463L14111.8537,-3912.3516L14111.8513,-3912.4224L14111.8492,-3912.4417L14111.847,-3912.4635L14111.8499,-3912.5758L14111.8499,-3912.5778L14111.85,-3912.579L14111.85,-3912.5793L14111.85,-3912.5793L14111.85,-3912.5793L14111.85,-3912.5793L14111.851,-3912.6182L14111.851,-3912.6182L14111.851,-3912.6182L14111.851,-3912.6182L14111.851,-3912.6182L14111.851,-3912.6183L14111.8517,-3912.6325L14111.8518,-3912.6333L14111.8518,-3912.6334L14111.8518,-3912.6334L14111.8518,-3912.6344L14111.8531,-3912.6583L14111.8531,-3912.6584L14111.8531,-3912.6584L14111.8581,-3912.7417L14111.8596,-3912.7585L14111.8626,-3912.792L14111.8658,-3912.818L14111.8673,-3912.8293L14111.8702,-3912.8543L14111.8727,-3912.8762L14111.8876,-3912.9918L14111.8922,-3913.0173L14111.9065,-3913.0972L14111.9227,-3913.2042L14111.9227,-3913.2042L14111.9227,-3913.2043L14111.9229,-3913.205L14111.9229,-3913.2051L14111.9229,-3913.2051L14111.9229,-3913.2052L14111.9229,-3913.2052L14111.9229,-3913.2052L14111.9229,-3913.2052L14111.9229,-3913.2053L14111.9229,-3913.2053L14111.9229,-3913.2053L14111.9229,-3913.2053L14111.9229,-3913.2054L14111.9229,-3913.2054L14111.9229,-3913.2055L14111.9229,-3913.2055L14111.9281,-3913.2391L14111.9385,-3913.2977"/>
<path content="1,JRバス東北（株）,キャッスル号,3.0,3.0,3.0," xlink:title="1" d="M14111.86,-3912.2314L14111.8592,-3912.2406L14111.857,-3912.279L14111.8561,-3912.2954L14111.855,-3912.3137L14111.8538,-3912.3463L14111.8537,-3912.3516L14111.8513,-3912.4224L14111.8492,-3912.4417L14111.847,-3912.4635L14111.8499,-3912.5758L14111.8499,-3912.5778L14111.85,-3912.579L14111.85,-3912.5793L14111.85,-3912.5793L14111.85,-3912.5793L14111.85,-3912.5793L14111.851,-3912.6182L14111.851,-3912.6182L14111.851,-3912.6182L14111.851,-3912.6182L14111.851,-3912.6182L14111.851,-3912.6183L14111.8517,-3912.6325L14111.8518,-3912.6333L14111.8518,-3912.6334L14111.8518,-3912.6334L14111.8518,-3912.6344L14111.8531,-3912.6583L14111.8531,-3912.6584L14111.8531,-3912.6584L14111.8581,-3912.7417L14111.8596,-3912.7585L14111.8626,-3912.792L14111.8658,-3912.818L14111.8673,-3912.8293L14111.8702,-3912.8543L14111.8727,-3912.8762L14111.8876,-3912.9918L14111.8922,-3913.0173L14111.9065,-3913.0972L14111.9227,-3913.2042L14111.9227,-3913.2042L14111.9227,-3913.2043L14111.9229,-3913.205L14111.9229,-3913.2051L14111.9229,-3913.2051L14111.9229,-3913.2052L14111.9229,-3913.2052L14111.9229,-3913.2052L14111.9229,-3913.2052L14111.9229,-3913.2053L14111.9229,-3913.2053L14111.9229,-3913.2053L14111.9229,-3913.2053L14111.9229,-3913.2054L14111.9229,-3913.2054L14111.9229,-3913.2055L14111.9229,-3913.2055L14111.9281,-3913.2391L14111.9385,-3913.2977"/>
<path content="1,JRバス東北（株）,グリーンライナー号,2.0,2.0,2.0," xlink:title="1" d="M14111.86,-3912.2314L14111.8593,-3912.2397L14111.8592,-3912.2405L14111.8592,-3912.2417L14111.857,-3912.279L14111.8561,-3912.2954L14111.855,-3912.3137L14111.8538,-3912.3463L14111.8537,-3912.3516L14111.8513,-3912.4224L14111.8492,-3912.4417L14111.847,-3912.4635L14111.8499,-3912.5758L14111.8499,-3912.5778L14111.85,-3912.579L14111.85,-3912.5793L14111.85,-3912.5793L14111.85,-3912.5793L14111.85,-3912.5793L14111.851,-3912.6182L14111.851,-3912.6182L14111.851,-3912.6182L14111.851,-3912.6182L14111.851,-3912.6182L14111.851,-3912.6183L14111.8517,-3912.6325L14111.8518,-3912.6333L14111.8518,-3912.6334L14111.8518,-3912.6334L14111.8518,-3912.6344L14111.8531,-3912.6583L14111.8531,-3912.6584L14111.8531,-3912.6584L14111.8581,-3912.7417L14111.8596,-3912.7585L14111.8626,-3912.792L14111.8658,-3912.818L14111.8673,-3912.8293L14111.8702,-3912.8543L14111.8727,-3912.8762L14111.8876,-3912.9918L14111.8922,-3913.0173L14111.9065,-3913.0972L14111.9227,-3913.2042L14111.9227,-3913.2042L14111.9227,-3913.2043L14111.9229,-3913.205L14111.9229,-3913.2051L14111.9229,-3913.2051L14111.9229,-3913.2052L14111.9229,-3913.2052L14111.9229,-3913.2052L14111.9229,-3913.2052L14111.9229,-3913.2053L14111.9229,-3913.2053L14111.9229,-3913.2053L14111.9229,-3913.2053L14111.9229,-3913.2054L14111.9229,-3913.2054L14111.9229,-3913.2055L14111.9229,-3913.2055L14111.9281,-3913.2391L14111.9385,-3913.2977"/>
<path content="1,JRバス東北（株）,ドリーム盛岡・らくちん号,2.2,3.0,3.0," xlink:title="1" d="M14111.86,-3912.2314L14111.8592,-3912.2406L14111.857,-3912.279L14111.8561,-3912.2954L14111.855,-3912.3137L14111.8538,-3912.3463L14111.8537,-3912.3516L14111.8513,-3912.4224L14111.8492,-3912.4417L14111.847,-3912.4635L14111.8499,-3912.5758L14111.8499,-3912.5778L14111.85,-3912.579L14111.85,-3912.5793L14111.85,-3912.5793L14111.85,-3912.5793L14111.85,-3912.5793L14111.851,-3912.6182L14111.851,-3912.6182L14111.851,-3912.6182L14111.851,-3912.6182L14111.851,-3912.6182L14111.851,-3912.6183L14111.8517,-3912.6325L14111.8518,-3912.6333L14111.8518,-3912.6334L14111.8518,-3912.6334L14111.8518,-3912.6344L14111.8531,-3912.6583L14111.8531,-3912.6584L14111.8531,-3912.6584L14111.8581,-3912.7417L14111.8596,-3912.7585L14111.8626,-3912.792L14111.8658,-3912.818L14111.8673,-3912.8293L14111.8702,-3912.8543L14111.8727,-3912.8762L14111.8876,-3912.9918L14111.8922,-3913.0173L14111.9065,-3913.0972L14111.9227,-3913.2042L14111.9227,-3913.2042L14111.9227,-3913.2043L14111.9229,-3913.205L14111.9229,-3913.2051L14111.9229,-3913.2051L14111.9229,-3913.2052L14111.9229,-3913.2052L14111.9229,-3913.2052L14111.9229,-3913.2052L14111.9229,-3913.2053L14111.9229,-3913.2053L14111.9229,-3913.2053L14111.9229,-3913.2053L14111.9229,-3913.2054L14111.9229,-3913.2054L14111.9229,-3913.2055L14111.9229,-3913.2055L14111.9281,-3913.2391L14111.9385,-3913.2977"/>
<path content="1,JRバス東北（株）,ドリーム秋田・横浜号,1.0,1.0,1.0," xlink:title="1" d="M14111.9385,-3913.2977L14111.9281,-3913.2391L14111.9229,-3913.2055L14111.9229,-3913.2055L14111.9229,-3913.2054L14111.9229,-3913.2054L14111.9229,-3913.2053L14111.9229,-3913.2053L14111.9229,-3913.2053L14111.9229,-3913.2053L14111.9229,-3913.2052L14111.9229,-3913.2052L14111.9229,-3913.2052L14111.9229,-3913.2052L14111.9229,-3913.2051L14111.9229,-3913.2051L14111.9229,-3913.205L14111.9227,-3913.2043L14111.9227,-3913.2042L14111.9227,-3913.2042L14111.9065,-3913.0972L14111.8922,-3913.0173L14111.8876,-3912.9918L14111.8727,-3912.8762L14111.8702,-3912.8543L14111.8673,-3912.8293L14111.8658,-3912.818L14111.8626,-3912.792L14111.8596,-3912.7585L14111.8581,-3912.7417L14111.8531,-3912.6584L14111.8531,-3912.6584L14111.8531,-3912.6583L14111.8518,-3912.6344L14111.8518,-3912.6334L14111.8518,-3912.6334L14111.8518,-3912.6333L14111.8517,-3912.6325L14111.851,-3912.6183L14111.851,-3912.6182L14111.851,-3912.6182L14111.851,-3912.6182L14111.851,-3912.6182L14111.851,-3912.6182L14111.85,-3912.5793L14111.85,-3912.5793L14111.85,-3912.5793L14111.85,-3912.5793L14111.85,-3912.579L14111.8499,-3912.5778L14111.8499,-3912.5758L14111.847,-3912.4635L14111.8492,-3912.4417L14111.8513,-3912.4224L14111.8537,-3912.3516L14111.8538,-3912.3463L14111.855,-3912.3137L14111.8561,-3912.2954L14111.857,-3912.279L14111.8592,-3912.2417L14111.8592,-3912.2405L14111.8593,-3912.2397L14111.86,-3912.2314"/>
<path content="1,JRバス東北（株）,ブルーシティ号,1.5,1.5,1.5," xlink:title="1" d="M14111.86,-3912.2314L14111.8592,-3912.2406L14111.857,-3912.279L14111.8561,-3912.2954L14111.855,-3912.3137L14111.8538,-3912.3463L14111.8537,-3912.3516L14111.8513,-3912.4224L14111.8492,-3912.4417L14111.847,-3912.4635L14111.8499,-3912.5758L14111.8499,-3912.5778L14111.85,-3912.579L14111.85,-3912.5793L14111.85,-3912.5793L14111.85,-3912.5793L14111.85,-3912.5793L14111.851,-3912.6182L14111.851,-3912.6182L14111.851,-3912.6182L14111.851,-3912.6182L14111.851,-3912.6182L14111.851,-3912.6183L14111.8517,-3912.6325L14111.8518,-3912.6333L14111.8518,-3912.6334L14111.8518,-3912.6334L14111.8518,-3912.6344L14111.8531,-3912.6583L14111.8531,-3912.6584L14111.8531,-3912.6584L14111.8581,-3912.7417L14111.8596,-3912.7585L14111.8626,-3912.792L14111.8658,-3912.818L14111.8673,-3912.8293L14111.8702,-3912.8543L14111.8727,-3912.8762L14111.8876,-3912.9918L14111.8922,-3913.0173L14111.9065,-3913.0972L14111.9227,-3913.2042L14111.9227,-3913.2042L14111.9227,-3913.2043L14111.9229,-3913.205L14111.9229,-3913.2051L14111.9229,-3913.2051L14111.9229,-3913.2052L14111.9229,-3913.2052L14111.9229,-3913.2052L14111.9229,-3913.2052L14111.9229,-3913.2053L14111.9229,-3913.2053L14111.9229,-3913.2053L14111.9229,-3913.2053L14111.9229,-3913.2054L14111.9229,-3913.2054L14111.9229,-3913.2055L14111.9229,-3913.2055L14111.9281,-3913.2391L14111.9385,-3913.2977"/>
<path content="1,JRバス東北（株）,ラ・フォーレ号,1.0,1.0,1.0," xlink:title="1" d="M14111.86,-3912.2314L14111.8592,-3912.2406L14111.857,-3912.279L14111.8561,-3912.2954L14111.855,-3912.3137L14111.8538,-3912.3463L14111.8537,-3912.3516L14111.8513,-3912.4224L14111.8492,-3912.4417L14111.847,-3912.4635L14111.8499,-3912.5758L14111.8499,-3912.5778L14111.85,-3912.579L14111.85,-3912.5793L14111.85,-3912.5793L14111.85,-3912.5793L14111.85,-3912.5793L14111.851,-3912.6182L14111.851,-3912.6182L14111.851,-3912.6182L14111.851,-3912.6182L14111.851,-3912.6182L14111.851,-3912.6183L14111.8517,-3912.6325L14111.8518,-3912.6333L14111.8518,-3912.6334L14111.8518,-3912.6334L14111.8518,-3912.6344L14111.8531,-3912.6583L14111.8531,-3912.6584L14111.8531,-3912.6584L14111.8581,-3912.7417L14111.8596,-3912.7585L14111.8626,-3912.792L14111.8658,-3912.818L14111.8673,-3912.8293L14111.8702,-3912.8543L14111.8727,-3912.8762L14111.8876,-3912.9918L14111.8922,-3913.0173L14111.9065,-3913.0972L14111.9227,-3913.2042L14111.9227,-3913.2042L14111.9227,-3913.2043L14111.9229,-3913.205L14111.9229,-3913.2051L14111.9229,-3913.2051L14111.9229,-3913.2052L14111.9229,-3913.2052L14111.9229,-3913.2052L14111.9229,-3913.2052L14111.9229,-3913.2053L14111.9229,-3913.2053L14111.9229,-3913.2053L14111.9229,-3913.2053L14111.9229,-3913.2054L14111.9229,-3913.2054L14111.9229,-3913.2055L14111.9229,-3913.2055L14111.9281,-3913.2391L14111.9385,-3913.2977"/>
<path content="1,JRバス東北（株）,仙台～大館線,1.0,1.0,1.0," xlink:title="1" d="M14111.86,-3912.2314L14111.8592,-3912.2406L14111.857,-3912.279L14111.8561,-3912.2954L14111.855,-3912.3137L14111.8538,-3912.3463L14111.8537,-3912.3516L14111.8513,-3912.4224L14111.8492,-3912.4417L14111.847,-3912.4635L14111.8499,-3912.5758L14111.8499,-3912.5778L14111.85,-3912.579L14111.85,-3912.5793L14111.85,-3912.5793L14111.85,-3912.5793L14111.85,-3912.5793L14111.851,-3912.6182L14111.851,-3912.6182L14111.851,-3912.6182L14111.851,-3912.6182L14111.851,-3912.6182L14111.851,-3912.6183L14111.8517,-3912.6325L14111.8518,-3912.6333L14111.8518,-3912.6334L14111.8518,-3912.6334L14111.8518,-3912.6344L14111.8531,-3912.6583L14111.8531,-3912.6584L14111.8531,-3912.6584L14111.8581,-3912.7417L14111.8596,-3912.7585L14111.8626,-3912.792L14111.8658,-3912.818L14111.8673,-3912.8293L14111.8702,-3912.8543L14111.8727,-3912.8762L14111.8876,-3912.9918L14111.8922,-3913.0173L14111.9065,-3913.0972L14111.9227,-3913.2042L14111.9227,-3913.2042L14111.9227,-3913.2043L14111.9229,-3913.205L14111.9229,-3913.2051L14111.9229,-3913.2051L14111.9229,-3913.2052L14111.9229,-3913.2052L14111.9229,-3913.2052L14111.9229,-3913.2052L14111.9229,-3913.2053L14111.9229,-3913.2053L14111.9229,-3913.2053L14111.9229,-3913.2053L14111.9229,-3913.2054L14111.9229,-3913.2054L14111.9229,-3913.2055L14111.9229,-3913.2055L14111.9281,-3913.2391L14111.9385,-3913.2977"/>
<path content="1,JRバス東北（株）,仙秋号,2.0,2.0,2.0," xlink:title="1" d="M14111.86,-3912.2314L14111.8593,-3912.2397L14111.8592,-3912.2405L14111.8592,-3912.2417L14111.857,-3912.279L14111.8561,-3912.2954L14111.855,-3912.3137L14111.8538,-3912.3463L14111.8537,-3912.3516L14111.8513,-3912.4224L14111.8492,-3912.4417L14111.847,-3912.4635L14111.8499,-3912.5758L14111.8499,-3912.5778L14111.85,-3912.579L14111.85,-3912.5793L14111.85,-3912.5793L14111.85,-3912.5793L14111.85,-3912.5793L14111.851,-3912.6182L14111.851,-3912.6182L14111.851,-3912.6182L14111.851,-3912.6182L14111.851,-3912.6182L14111.851,-3912.6183L14111.8517,-3912.6325L14111.8518,-3912.6333L14111.8518,-3912.6334L14111.8518,-3912.6334L14111.8518,-3912.6344L14111.8531,-3912.6583L14111.8531,-3912.6584L14111.8531,-3912.6584L14111.8581,-3912.7417L14111.8596,-3912.7585L14111.8626,-3912.792L14111.8658,-3912.818L14111.8673,-3912.8293L14111.8702,-3912.8543L14111.8727,-3912.8762L14111.8876,-3912.9918L14111.8922,-3913.0173L14111.9065,-3913.0972L14111.9227,-3913.2042L14111.9227,-3913.2042L14111.9227,-3913.2043L14111.9229,-3913.205L14111.9229,-3913.2051L14111.9229,-3913.2051L14111.9229,-3913.2052L14111.9229,-3913.2052L14111.9229,-3913.2052L14111.9229,-3913.2052L14111.9229,-3913.2053L14111.9229,-3913.2053L14111.9229,-3913.2053L14111.9229,-3913.2053L14111.9229,-3913.2054L14111.9229,-3913.2054L14111.9229,-3913.2055L14111.9229,-3913.2055L14111.9281,-3913.2391L14111.9385,-3913.2977"/>
<path content="1,JRバス関東（株）,ドリーム盛岡号,2.2,3.0,3.0," xlink:title="1" d="M14111.86,-3912.2314L14111.8592,-3912.2406L14111.857,-3912.279L14111.8561,-3912.2954L14111.855,-3912.3137L14111.8538,-3912.3463L14111.8537,-3912.3516L14111.8513,-3912.4224L14111.8492,-3912.4417L14111.847,-3912.4635L14111.8499,-3912.5758L14111.8499,-3912.5778L14111.85,-3912.579L14111.85,-3912.5793L14111.85,-3912.5793L14111.85,-3912.5793L14111.85,-3912.5793L14111.851,-3912.6182L14111.851,-3912.6182L14111.851,-3912.6182L14111.851,-3912.6182L14111.851,-3912.6182L14111.851,-3912.6183L14111.8517,-3912.6325L14111.8518,-3912.6333L14111.8518,-3912.6334L14111.8518,-3912.6334L14111.8518,-3912.6344L14111.8531,-3912.6583L14111.8531,-3912.6584L14111.8531,-3912.6584L14111.8581,-3912.7417L14111.8596,-3912.7585L14111.8626,-3912.792L14111.8658,-3912.818L14111.8673,-3912.8293L14111.8702,-3912.8543L14111.8727,-3912.8762L14111.8876,-3912.9918L14111.8922,-3913.0173L14111.9065,-3913.0972L14111.9227,-3913.2042L14111.9227,-3913.2042L14111.9227,-3913.2043L14111.9229,-3913.205L14111.9229,-3913.2051L14111.9229,-3913.2051L14111.9229,-3913.2052L14111.9229,-3913.2052L14111.9229,-3913.2052L14111.9229,-3913.2052L14111.9229,-3913.2053L14111.9229,-3913.2053L14111.9229,-3913.2053L14111.9229,-3913.2053L14111.9229,-3913.2054L14111.9229,-3913.2054L14111.9229,-3913.2055L14111.9229,-3913.2055L14111.9281,-3913.2391L14111.9385,-3913.2977"/>
<path content="1,京浜急行バス（株）,ノクターン号,3.4,4.0,4.0," xlink:title="1" d="M14111.86,-3912.2314L14111.8593,-3912.2397L14111.8592,-3912.2405L14111.8592,-3912.2417L14111.857,-3912.279L14111.8561,-3912.2954L14111.855,-3912.3137L14111.8538,-3912.3463L14111.8537,-3912.3516L14111.8513,-3912.4224L14111.8492,-3912.4417L14111.847,-3912.4635L14111.8499,-3912.5758L14111.8499,-3912.5778L14111.85,-3912.579L14111.85,-3912.5793L14111.85,-3912.5793L14111.85,-3912.5793L14111.85,-3912.5793L14111.851,-3912.6182L14111.851,-3912.6182L14111.851,-3912.6182L14111.851,-3912.6182L14111.851,-3912.6182L14111.851,-3912.6183L14111.8517,-3912.6325L14111.8518,-3912.6333L14111.8518,-3912.6334L14111.8518,-3912.6334L14111.8518,-3912.6344L14111.8531,-3912.6583L14111.8531,-3912.6584L14111.8531,-3912.6584L14111.8581,-3912.7417L14111.8596,-3912.7585L14111.8626,-3912.792L14111.8658,-3912.818L14111.8673,-3912.8293L14111.8702,-3912.8543L14111.8727,-3912.8762L14111.8876,-3912.9918L14111.8922,-3913.0173L14111.9065,-3913.0972L14111.9227,-3913.2042L14111.9227,-3913.2042L14111.9227,-3913.2043L14111.9229,-3913.205L14111.9229,-3913.2051L14111.9229,-3913.2051L14111.9229,-3913.2052L14111.9229,-3913.2052L14111.9229,-3913.2052L14111.9229,-3913.2052L14111.9229,-3913.2053L14111.9229,-3913.2053L14111.9229,-3913.2053L14111.9229,-3913.2053L14111.9229,-3913.2054L14111.9229,-3913.2054L14111.9229,-3913.2055L14111.9229,-3913.2055L14111.9281,-3913.2391L14111.9385,-3913.2977"/>
<path content="1,京浜急行バス（株）,ビーム号,1.0,1.0,1.0," xlink:title="1" d="M14111.9385,-3913.2977L14111.9281,-3913.2391L14111.9229,-3913.2055L14111.9229,-3913.2055L14111.9229,-3913.2054L14111.9229,-3913.2054L14111.9229,-3913.2053L14111.9229,-3913.2053L14111.9229,-3913.2053L14111.9229,-3913.2053L14111.9229,-3913.2052L14111.9229,-3913.2052L14111.9229,-3913.2052L14111.9229,-3913.2052L14111.9229,-3913.2051L14111.9229,-3913.2051L14111.9229,-3913.205L14111.9227,-3913.2043L14111.9227,-3913.2042L14111.9227,-3913.2042L14111.9065,-3913.0972L14111.8922,-3913.0173L14111.8876,-3912.9918L14111.8727,-3912.8762L14111.8702,-3912.8543L14111.8673,-3912.8293L14111.8658,-3912.818L14111.8626,-3912.792L14111.8596,-3912.7585L14111.8581,-3912.7417L14111.8531,-3912.6584L14111.8531,-3912.6584L14111.8531,-3912.6583L14111.8518,-3912.6344L14111.8518,-3912.6334L14111.8518,-3912.6334L14111.8518,-3912.6333L14111.8517,-3912.6325L14111.851,-3912.6183L14111.851,-3912.6182L14111.851,-3912.6182L14111.851,-3912.6182L14111.851,-3912.6182L14111.851,-3912.6182L14111.85,-3912.5793L14111.85,-3912.5793L14111.85,-3912.5793L14111.85,-3912.5793L14111.85,-3912.579L14111.8499,-3912.5778L14111.8499,-3912.5758L14111.847,-3912.4635L14111.8492,-3912.4417L14111.8513,-3912.4224L14111.8537,-3912.3516L14111.8538,-3912.3463L14111.855,-3912.3137L14111.8561,-3912.2954L14111.857,-3912.279L14111.8592,-3912.2406L14111.86,-3912.2314"/>
<path content="1,十和田観光電鉄（株）,うみねこ号,4.0,4.0,4.0," xlink:title="1" d="M14111.9385,-3913.2977L14111.9281,-3913.2391L14111.9229,-3913.2055L14111.9229,-3913.2055L14111.9229,-3913.2054L14111.9229,-3913.2054L14111.9229,-3913.2053L14111.9229,-3913.2053L14111.9229,-3913.2053L14111.9229,-3913.2053L14111.9229,-3913.2052L14111.9229,-3913.2052L14111.9229,-3913.2052L14111.9229,-3913.2052L14111.9229,-3913.2051L14111.9229,-3913.2051L14111.9229,-3913.205L14111.9227,-3913.2043L14111.9227,-3913.2042L14111.9227,-3913.2042L14111.9065,-3913.0972L14111.8922,-3913.0173L14111.8876,-3912.9918L14111.8727,-3912.8762L14111.8702,-3912.8543L14111.8673,-3912.8293L14111.8658,-3912.818L14111.8626,-3912.792L14111.8596,-3912.7585L14111.8581,-3912.7417L14111.8531,-3912.6584L14111.8531,-3912.6584L14111.8531,-3912.6583L14111.8518,-3912.6344L14111.8518,-3912.6334L14111.8518,-3912.6334L14111.8518,-3912.6333L14111.8517,-3912.6325L14111.851,-3912.6183L14111.851,-3912.6182L14111.851,-3912.6182L14111.851,-3912.6182L14111.851,-3912.6182L14111.851,-3912.6182L14111.85,-3912.5793L14111.85,-3912.5793L14111.85,-3912.5793L14111.85,-3912.5793L14111.85,-3912.579L14111.8499,-3912.5778L14111.8499,-3912.5758L14111.847,-3912.4635L14111.8492,-3912.4417L14111.8513,-3912.4224L14111.8537,-3912.3516L14111.8538,-3912.3463L14111.855,-3912.3137L14111.8561,-3912.2954L14111.857,-3912.279L14111.8592,-3912.2406L14111.86,-3912.2314"/>
<path content="1,十和田観光電鉄（株）,シリウス号,1.0,1.0,1.0," xlink:title="1" d="M14111.9385,-3913.2977L14111.9281,-3913.2391L14111.9229,-3913.2055L14111.9229,-3913.2055L14111.9229,-3913.2054L14111.9229,-3913.2054L14111.9229,-3913.2053L14111.9229,-3913.2053L14111.9229,-3913.2053L14111.9229,-3913.2053L14111.9229,-3913.2052L14111.9229,-3913.2052L14111.9229,-3913.2052L14111.9229,-3913.2052L14111.9229,-3913.2051L14111.9229,-3913.2051L14111.9229,-3913.205L14111.9227,-3913.2043L14111.9227,-3913.2042L14111.9227,-3913.2042L14111.9065,-3913.0972L14111.8922,-3913.0173L14111.8876,-3912.9918L14111.8727,-3912.8762L14111.8702,-3912.8543L14111.8673,-3912.8293L14111.8658,-3912.818L14111.8626,-3912.792L14111.8596,-3912.7585L14111.8581,-3912.7417L14111.8531,-3912.6584L14111.8531,-3912.6584L14111.8531,-3912.6583L14111.8518,-3912.6344L14111.8518,-3912.6334L14111.8518,-3912.6334L14111.8518,-3912.6333L14111.8517,-3912.6325L14111.851,-3912.6183L14111.851,-3912.6182L14111.851,-3912.6182L14111.851,-3912.6182L14111.851,-3912.6182L14111.851,-3912.6182L14111.85,-3912.5793L14111.85,-3912.5793L14111.85,-3912.5793L14111.85,-3912.5793L14111.85,-3912.579L14111.8499,-3912.5778L14111.8499,-3912.5758L14111.847,-3912.4635L14111.8492,-3912.4417L14111.8513,-3912.4224L14111.8537,-3912.3516L14111.8538,-3912.3463L14111.855,-3912.3137L14111.8561,-3912.2954L14111.857,-3912.279L14111.8592,-3912.2406L14111.86,-3912.2314"/>
<path content="1,十和田観光電鉄（株）,ブルーシティー号,6.0,6.0,6.0," xlink:title="1" d="M14111.9385,-3913.2977L14111.9281,-3913.2391L14111.9229,-3913.2055L14111.9229,-3913.2055L14111.9229,-3913.2054L14111.9229,-3913.2054L14111.9229,-3913.2053L14111.9229,-3913.2053L14111.9229,-3913.2053L14111.9229,-3913.2053L14111.9229,-3913.2052L14111.9229,-3913.2052L14111.9229,-3913.2052L14111.9229,-3913.2052L14111.9229,-3913.2051L14111.9229,-3913.2051L14111.9229,-3913.205L14111.9227,-3913.2043L14111.9227,-3913.2042L14111.9227,-3913.2042L14111.9065,-3913.0972L14111.8922,-3913.0173L14111.8876,-3912.9918L14111.8727,-3912.8762L14111.8702,-3912.8543L14111.8673,-3912.8293L14111.8658,-3912.818L14111.8626,-3912.792L14111.8596,-3912.7585L14111.8581,-3912.7417L14111.8531,-3912.6584L14111.8531,-3912.6584L14111.8531,-3912.6583L14111.8518,-3912.6344L14111.8518,-3912.6334L14111.8518,-3912.6334L14111.8518,-3912.6333L14111.8517,-3912.6325L14111.851,-3912.6183L14111.851,-3912.6182L14111.851,-3912.6182L14111.851,-3912.6182L14111.851,-3912.6182L14111.851,-3912.6182L14111.85,-3912.5793L14111.85,-3912.5793L14111.85,-3912.5793L14111.85,-3912.5793L14111.85,-3912.579L14111.8499,-3912.5778L14111.8499,-3912.5758L14111.847,-3912.4635L14111.8492,-3912.4417L14111.8513,-3912.4224L14111.8537,-3912.3516L14111.8538,-3912.3463L14111.855,-3912.3137L14111.8561,-3912.2954L14111.857,-3912.279L14111.8592,-3912.2406L14111.86,-3912.2314"/>
<path content="1,南部バス（株）,うみねこ号　仙台→八戸,4.0,4.0,4.0," xlink:title="1" d="M14111.86,-3912.2314L14111.8592,-3912.2406L14111.857,-3912.279L14111.8561,-3912.2954L14111.855,-3912.3137L14111.8538,-3912.3463L14111.8537,-3912.3516L14111.8513,-3912.4224L14111.8492,-3912.4417L14111.847,-3912.4635L14111.8499,-3912.5758L14111.8499,-3912.5778L14111.85,-3912.579L14111.85,-3912.5793L14111.85,-3912.5793L14111.85,-3912.5793L14111.85,-3912.5793L14111.851,-3912.6182L14111.851,-3912.6182L14111.851,-3912.6182L14111.851,-3912.6182L14111.851,-3912.6182L14111.851,-3912.6183L14111.8517,-3912.6325L14111.8518,-3912.6333L14111.8518,-3912.6334L14111.8518,-3912.6334L14111.8518,-3912.6344L14111.8531,-3912.6583L14111.8531,-3912.6584L14111.8531,-3912.6584L14111.8581,-3912.7417L14111.8596,-3912.7585L14111.8626,-3912.792L14111.8658,-3912.818L14111.8673,-3912.8293L14111.8702,-3912.8543L14111.8727,-3912.8762L14111.8876,-3912.9918L14111.8922,-3913.0173L14111.9065,-3913.0972L14111.9227,-3913.2042L14111.9227,-3913.2042L14111.9227,-3913.2043L14111.9229,-3913.205L14111.9229,-3913.2051L14111.9229,-3913.2051L14111.9229,-3913.2052L14111.9229,-3913.2052L14111.9229,-3913.2052L14111.9229,-3913.2052L14111.9229,-3913.2053L14111.9229,-3913.2053L14111.9229,-3913.2053L14111.9229,-3913.2053L14111.9229,-3913.2054L14111.9229,-3913.2054L14111.9229,-3913.2055L14111.9229,-3913.2055L14111.9281,-3913.2391L14111.9385,-3913.2977"/>
<path content="1,南部バス（株）,うみねこ号　八戸→仙台,4.0,4.0,4.0," xlink:title="1" d="M14111.9385,-3913.2977L14111.9281,-3913.2391L14111.9229,-3913.2055L14111.9229,-3913.2055L14111.9229,-3913.2054L14111.9229,-3913.2054L14111.9229,-3913.2053L14111.9229,-3913.2053L14111.9229,-3913.2053L14111.9229,-3913.2053L14111.9229,-3913.2052L14111.9229,-3913.2052L14111.9229,-3913.2052L14111.9229,-3913.2052L14111.9229,-3913.2051L14111.9229,-3913.2051L14111.9229,-3913.205L14111.9227,-3913.2043L14111.9227,-3913.2042L14111.9227,-3913.2042L14111.9065,-3913.0972L14111.8922,-3913.0173L14111.8876,-3912.9918L14111.8727,-3912.8762L14111.8702,-3912.8543L14111.8673,-3912.8293L14111.8658,-3912.818L14111.8626,-3912.792L14111.8596,-3912.7585L14111.8581,-3912.7417L14111.8531,-3912.6584L14111.8531,-3912.6584L14111.8531,-3912.6583L14111.8518,-3912.6344L14111.8518,-3912.6334L14111.8518,-3912.6334L14111.8518,-3912.6333L14111.8517,-3912.6325L14111.851,-3912.6183L14111.851,-3912.6182L14111.851,-3912.6182L14111.851,-3912.6182L14111.851,-3912.6182L14111.851,-3912.6182L14111.85,-3912.5793L14111.85,-3912.5793L14111.85,-3912.5793L14111.85,-3912.5793L14111.85,-3912.579L14111.8499,-3912.5778L14111.8499,-3912.5758L14111.847,-3912.4635L14111.8492,-3912.4417L14111.8513,-3912.4224L14111.8537,-3912.3516L14111.8538,-3912.3463L14111.855,-3912.3137L14111.8561,-3912.2954L14111.857,-3912.279L14111.8592,-3912.2406L14111.86,-3912.2314"/>
<path content="1,国際興業（株）,シリウス号,1.0,1.0,1.0," xlink:title="1" d="M14111.86,-3912.2314L14111.8592,-3912.2406L14111.857,-3912.279L14111.8561,-3912.2954L14111.855,-3912.3137L14111.8538,-3912.3463L14111.8537,-3912.3516L14111.8513,-3912.4224L14111.8492,-3912.4417L14111.847,-3912.4635L14111.8499,-3912.5758L14111.8499,-3912.5778L14111.85,-3912.579L14111.85,-3912.5793L14111.85,-3912.5793L14111.85,-3912.5793L14111.85,-3912.5793L14111.851,-3912.6182L14111.851,-3912.6182L14111.851,-3912.6182L14111.851,-3912.6182L14111.851,-3912.6182L14111.851,-3912.6183L14111.8517,-3912.6325L14111.8518,-3912.6333L14111.8518,-3912.6334L14111.8518,-3912.6334L14111.8518,-3912.6344L14111.8531,-3912.6583L14111.8531,-3912.6584L14111.8531,-3912.6584L14111.8581,-3912.7417L14111.8596,-3912.7585L14111.8626,-3912.792L14111.8658,-3912.818L14111.8673,-3912.8293L14111.8702,-3912.8543L14111.8727,-3912.8762L14111.8876,-3912.9918L14111.8922,-3913.0173L14111.9065,-3913.0972L14111.9227,-3913.2042L14111.9227,-3913.2042L14111.9227,-3913.2043L14111.9229,-3913.205L14111.9229,-3913.2051L14111.9229,-3913.2051L14111.9229,-3913.2052L14111.9229,-3913.2052L14111.9229,-3913.2052L14111.9229,-3913.2052L14111.9229,-3913.2053L14111.9229,-3913.2053L14111.9229,-3913.2053L14111.9229,-3913.2053L14111.9229,-3913.2054L14111.9229,-3913.2054L14111.9229,-3913.2055L14111.9229,-3913.2055L14111.9281,-3913.2391L14111.9385,-3913.2977"/>
<path content="1,国際興業（株）,ジュピター号,1.0,1.0,1.0," xlink:title="1" d="M14111.86,-3912.2314L14111.8592,-3912.2406L14111.857,-3912.279L14111.8561,-3912.2954L14111.855,-3912.3137L14111.8538,-3912.3463L14111.8537,-3912.3516L14111.8513,-3912.4224L14111.8492,-3912.4417L14111.847,-3912.4635L14111.8499,-3912.5758L14111.8499,-3912.5778L14111.85,-3912.579L14111.85,-3912.5793L14111.85,-3912.5793L14111.85,-3912.5793L14111.85,-3912.5793L14111.851,-3912.6182L14111.851,-3912.6182L14111.851,-3912.6182L14111.851,-3912.6182L14111.851,-3912.6182L14111.851,-3912.6183L14111.8517,-3912.6325L14111.8518,-3912.6333L14111.8518,-3912.6334L14111.8518,-3912.6334L14111.8518,-3912.6344L14111.8531,-3912.6583L14111.8531,-3912.6584L14111.8531,-3912.6584L14111.8581,-3912.7417L14111.8596,-3912.7585L14111.8626,-3912.792L14111.8658,-3912.818L14111.8673,-3912.8293L14111.8702,-3912.8543L14111.8727,-3912.8762L14111.8876,-3912.9918L14111.8922,-3913.0173L14111.9065,-3913.0972L14111.9227,-3913.2042L14111.9227,-3913.2042L14111.9227,-3913.2043L14111.9229,-3913.205L14111.9229,-3913.2051L14111.9229,-3913.2051L14111.9229,-3913.2052L14111.9229,-3913.2052L14111.9229,-3913.2052L14111.9229,-3913.2052L14111.9229,-3913.2053L14111.9229,-3913.2053L14111.9229,-3913.2053L14111.9229,-3913.2053L14111.9229,-3913.2054L14111.9229,-3913.2054L14111.9229,-3913.2055L14111.9229,-3913.2055L14111.9281,-3913.2391L14111.9385,-3913.2977"/>
<path content="1,国際興業（株）,ドリーム盛岡（らくちん）号,2.2,3.0,3.0," xlink:title="1" d="M14111.86,-3912.2314L14111.8592,-3912.2406L14111.857,-3912.279L14111.8561,-3912.2954L14111.855,-3912.3137L14111.8538,-3912.3463L14111.8537,-3912.3516L14111.8513,-3912.4224L14111.8492,-3912.4417L14111.847,-3912.4635L14111.8499,-3912.5758L14111.8499,-3912.5778L14111.85,-3912.579L14111.85,-3912.5793L14111.85,-3912.5793L14111.85,-3912.5793L14111.85,-3912.5793L14111.851,-3912.6182L14111.851,-3912.6182L14111.851,-3912.6182L14111.851,-3912.6182L14111.851,-3912.6182L14111.851,-3912.6183L14111.8517,-3912.6325L14111.8518,-3912.6333L14111.8518,-3912.6334L14111.8518,-3912.6334L14111.8518,-3912.6344L14111.8531,-3912.6583L14111.8531,-3912.6584L14111.8531,-3912.6584L14111.8581,-3912.7417L14111.8596,-3912.7585L14111.8626,-3912.792L14111.8658,-3912.818L14111.8673,-3912.8293L14111.8702,-3912.8543L14111.8727,-3912.8762L14111.8876,-3912.9918L14111.8922,-3913.0173L14111.9065,-3913.0972L14111.9227,-3913.2042L14111.9227,-3913.2042L14111.9227,-3913.2043L14111.9229,-3913.205L14111.9229,-3913.2051L14111.9229,-3913.2051L14111.9229,-3913.2052L14111.9229,-3913.2052L14111.9229,-3913.2052L14111.9229,-3913.2052L14111.9229,-3913.2053L14111.9229,-3913.2053L14111.9229,-3913.2053L14111.9229,-3913.2053L14111.9229,-3913.2054L14111.9229,-3913.2054L14111.9229,-3913.2055L14111.9229,-3913.2055L14111.9281,-3913.2391L14111.9385,-3913.2977"/>
<path content="1,国際興業（株）,遠野・釜石号,1.0,1.0,1.0," xlink:title="1" d="M14111.86,-3912.2314L14111.8593,-3912.2397L14111.8592,-3912.2405L14111.8592,-3912.2417L14111.857,-3912.279L14111.8561,-3912.2954L14111.855,-3912.3137L14111.8538,-3912.3463L14111.8537,-3912.3516L14111.8513,-3912.4224L14111.8492,-3912.4417L14111.847,-3912.4635L14111.8499,-3912.5758L14111.8499,-3912.5778L14111.85,-3912.579L14111.85,-3912.5793L14111.85,-3912.5793L14111.85,-3912.5793L14111.85,-3912.5793L14111.851,-3912.6182L14111.851,-3912.6182L14111.851,-3912.6182L14111.851,-3912.6182L14111.851,-3912.6182L14111.851,-3912.6183L14111.8517,-3912.6325L14111.8518,-3912.6333L14111.8518,-3912.6334L14111.8518,-3912.6334L14111.8518,-3912.6344L14111.8531,-3912.6583L14111.8531,-3912.6584L14111.8531,-3912.6584L14111.8581,-3912.7417L14111.8596,-3912.7585L14111.8626,-3912.792L14111.8658,-3912.818L14111.8673,-3912.8293L14111.8702,-3912.8543L14111.8727,-3912.8762L14111.8876,-3912.9918L14111.8922,-3913.0173L14111.9065,-3913.0972L14111.9227,-3913.2042L14111.9227,-3913.2042L14111.9227,-3913.2043L14111.9229,-3913.205L14111.9229,-3913.2051L14111.9229,-3913.2051L14111.9229,-3913.2052L14111.9229,-3913.2052L14111.9229,-3913.2052L14111.9229,-3913.2052L14111.9229,-3913.2053L14111.9229,-3913.2053L14111.9229,-3913.2053L14111.9229,-3913.2053L14111.9229,-3913.2054L14111.9229,-3913.2054L14111.9229,-3913.2055L14111.9229,-3913.2055L14111.9281,-3913.2391L14111.9385,-3913.2977"/>
<path content="1,宮城交通（株）,うみねこ,1.0,1.0,1.0," xlink:title="1" d="M14111.86,-3912.2314L14111.8592,-3912.2406L14111.857,-3912.279L14111.8561,-3912.2954L14111.855,-3912.3137L14111.8538,-3912.3463L14111.8537,-3912.3516L14111.8513,-3912.4224L14111.8492,-3912.4417L14111.847,-3912.4635L14111.8499,-3912.5758L14111.8499,-3912.5778L14111.85,-3912.579L14111.85,-3912.5793L14111.85,-3912.5793L14111.85,-3912.5793L14111.85,-3912.5793L14111.851,-3912.6182L14111.851,-3912.6182L14111.851,-3912.6182L14111.851,-3912.6182L14111.851,-3912.6182L14111.851,-3912.6183L14111.8517,-3912.6325L14111.8518,-3912.6333L14111.8518,-3912.6334L14111.8518,-3912.6334L14111.8518,-3912.6344L14111.8531,-3912.6583L14111.8531,-3912.6584L14111.8531,-3912.6584L14111.8581,-3912.7417L14111.8596,-3912.7585L14111.8626,-3912.792L14111.8658,-3912.818L14111.8673,-3912.8293L14111.8702,-3912.8543L14111.8727,-3912.8762L14111.8876,-3912.9918L14111.8922,-3913.0173L14111.9065,-3913.0972L14111.9227,-3913.2042L14111.9227,-3913.2042L14111.9227,-3913.2043L14111.9229,-3913.205L14111.9229,-3913.2051L14111.9229,-3913.2051L14111.9229,-3913.2052L14111.9229,-3913.2052L14111.9229,-3913.2052L14111.9229,-3913.2052L14111.9229,-3913.2053L14111.9229,-3913.2053L14111.9229,-3913.2053L14111.9229,-3913.2053L14111.9229,-3913.2054L14111.9229,-3913.2054L14111.9229,-3913.2055L14111.9229,-3913.2055L14111.9281,-3913.2391L14111.9385,-3913.2977"/>
<path content="1,宮城交通（株）,アーバン,3.2,4.0,4.0," xlink:title="1" d="M14111.86,-3912.2314L14111.8592,-3912.2406L14111.857,-3912.279L14111.8561,-3912.2954L14111.855,-3912.3137L14111.8538,-3912.3463L14111.8537,-3912.3516L14111.8513,-3912.4224L14111.8492,-3912.4417L14111.847,-3912.4635L14111.8499,-3912.5758L14111.8499,-3912.5778L14111.85,-3912.579L14111.85,-3912.5793L14111.85,-3912.5793L14111.85,-3912.5793L14111.85,-3912.5793L14111.851,-3912.6182L14111.851,-3912.6182L14111.851,-3912.6182L14111.851,-3912.6182L14111.851,-3912.6182L14111.851,-3912.6183L14111.8517,-3912.6325L14111.8518,-3912.6333L14111.8518,-3912.6334L14111.8518,-3912.6334L14111.8518,-3912.6344L14111.8531,-3912.6583L14111.8531,-3912.6584L14111.8531,-3912.6584L14111.8581,-3912.7417L14111.8596,-3912.7585L14111.8626,-3912.792L14111.8658,-3912.818L14111.8673,-3912.8293L14111.8702,-3912.8543L14111.8727,-3912.8762L14111.8876,-3912.9918L14111.8922,-3913.0173L14111.9065,-3913.0972L14111.9227,-3913.2042L14111.9227,-3913.2042L14111.9227,-3913.2043L14111.9229,-3913.205L14111.9229,-3913.2051L14111.9229,-3913.2051L14111.9229,-3913.2052L14111.9229,-3913.2052L14111.9229,-3913.2052L14111.9229,-3913.2052L14111.9229,-3913.2053L14111.9229,-3913.2053L14111.9229,-3913.2053L14111.9229,-3913.2053L14111.9229,-3913.2054L14111.9229,-3913.2054L14111.9229,-3913.2055L14111.9229,-3913.2055L14111.9281,-3913.2391L14111.9385,-3913.2977"/>
<path content="1,宮城交通（株）,キャッスル,3.0,3.0,3.0," xlink:title="1" d="M14111.86,-3912.2314L14111.8592,-3912.2406L14111.857,-3912.279L14111.8561,-3912.2954L14111.855,-3912.3137L14111.8538,-3912.3463L14111.8537,-3912.3516L14111.8513,-3912.4224L14111.8492,-3912.4417L14111.847,-3912.4635L14111.8499,-3912.5758L14111.8499,-3912.5778L14111.85,-3912.579L14111.85,-3912.5793L14111.85,-3912.5793L14111.85,-3912.5793L14111.85,-3912.5793L14111.851,-3912.6182L14111.851,-3912.6182L14111.851,-3912.6182L14111.851,-3912.6182L14111.851,-3912.6182L14111.851,-3912.6183L14111.8517,-3912.6325L14111.8518,-3912.6333L14111.8518,-3912.6334L14111.8518,-3912.6334L14111.8518,-3912.6344L14111.8531,-3912.6583L14111.8531,-3912.6584L14111.8531,-3912.6584L14111.8581,-3912.7417L14111.8596,-3912.7585L14111.8626,-3912.792L14111.8658,-3912.818L14111.8673,-3912.8293L14111.8702,-3912.8543L14111.8727,-3912.8762L14111.8876,-3912.9918L14111.8922,-3913.0173L14111.9065,-3913.0972L14111.9227,-3913.2042L14111.9227,-3913.2042L14111.9227,-3913.2043L14111.9229,-3913.205L14111.9229,-3913.2051L14111.9229,-3913.2051L14111.9229,-3913.2052L14111.9229,-3913.2052L14111.9229,-3913.2052L14111.9229,-3913.2052L14111.9229,-3913.2053L14111.9229,-3913.2053L14111.9229,-3913.2053L14111.9229,-3913.2053L14111.9229,-3913.2054L14111.9229,-3913.2054L14111.9229,-3913.2055L14111.9229,-3913.2055L14111.9281,-3913.2391L14111.9385,-3913.2977"/>
<path content="1,宮城交通（株）,ブルーシティ,1.5,1.5,1.5," xlink:title="1" d="M14111.86,-3912.2314L14111.8592,-3912.2406L14111.857,-3912.279L14111.8561,-3912.2954L14111.855,-3912.3137L14111.8538,-3912.3463L14111.8537,-3912.3516L14111.8513,-3912.4224L14111.8492,-3912.4417L14111.847,-3912.4635L14111.8499,-3912.5758L14111.8499,-3912.5778L14111.85,-3912.579L14111.85,-3912.5793L14111.85,-3912.5793L14111.85,-3912.5793L14111.85,-3912.5793L14111.851,-3912.6182L14111.851,-3912.6182L14111.851,-3912.6182L14111.851,-3912.6182L14111.851,-3912.6182L14111.851,-3912.6183L14111.8517,-3912.6325L14111.8518,-3912.6333L14111.8518,-3912.6334L14111.8518,-3912.6334L14111.8518,-3912.6344L14111.8531,-3912.6583L14111.8531,-3912.6584L14111.8531,-3912.6584L14111.8581,-3912.7417L14111.8596,-3912.7585L14111.8626,-3912.792L14111.8658,-3912.818L14111.8673,-3912.8293L14111.8702,-3912.8543L14111.8727,-3912.8762L14111.8876,-3912.9918L14111.8922,-3913.0173L14111.9065,-3913.0972L14111.9227,-3913.2042L14111.9227,-3913.2042L14111.9227,-3913.2043L14111.9229,-3913.205L14111.9229,-3913.2051L14111.9229,-3913.2051L14111.9229,-3913.2052L14111.9229,-3913.2052L14111.9229,-3913.2052L14111.9229,-3913.2052L14111.9229,-3913.2053L14111.9229,-3913.2053L14111.9229,-3913.2053L14111.9229,-3913.2053L14111.9229,-3913.2054L14111.9229,-3913.2054L14111.9229,-3913.2055L14111.9229,-3913.2055L14111.9281,-3913.2391L14111.9385,-3913.2977"/>
<path content="1,宮城交通（株）,仙台～釜石線,1.0,1.0,1.0," xlink:title="1" d="M14111.86,-3912.2314L14111.8592,-3912.2406L14111.8561,-3912.2954L14111.855,-3912.3137L14111.8538,-3912.3463L14111.8537,-3912.3516L14111.8513,-3912.4224L14111.8492,-3912.4417L14111.847,-3912.4635L14111.8499,-3912.5758L14111.8499,-3912.5778L14111.85,-3912.579L14111.85,-3912.5793L14111.85,-3912.5793L14111.85,-3912.5793L14111.85,-3912.5793L14111.851,-3912.6182L14111.851,-3912.6182L14111.851,-3912.6182L14111.851,-3912.6182L14111.851,-3912.6182L14111.851,-3912.6183L14111.8517,-3912.6325L14111.8518,-3912.6333L14111.8518,-3912.6334L14111.8518,-3912.6334L14111.8518,-3912.6344L14111.8531,-3912.6583L14111.8531,-3912.6584L14111.8531,-3912.6584L14111.8581,-3912.7417L14111.8596,-3912.7585L14111.8626,-3912.792L14111.8658,-3912.818L14111.8673,-3912.8293L14111.8702,-3912.8543L14111.8727,-3912.8762L14111.8876,-3912.9918L14111.8922,-3913.0173L14111.9065,-3913.0972L14111.9227,-3913.2042L14111.9227,-3913.2042L14111.9227,-3913.2043L14111.9229,-3913.205L14111.9229,-3913.2051L14111.9229,-3913.2051L14111.9229,-3913.2052L14111.9229,-3913.2052L14111.9229,-3913.2052L14111.9229,-3913.2052L14111.9229,-3913.2053L14111.9229,-3913.2053L14111.9229,-3913.2053L14111.9229,-3913.2053L14111.9229,-3913.2054L14111.9229,-3913.2054L14111.9229,-3913.2055L14111.9229,-3913.2055L14111.9281,-3913.2391L14111.9385,-3913.2977"/>
<path content="1,宮城交通（株）,仙秋,4.0,4.0,4.0," xlink:title="1" d="M14111.86,-3912.2314L14111.8593,-3912.2397L14111.8592,-3912.2405L14111.8592,-3912.2417L14111.857,-3912.279L14111.8561,-3912.2954L14111.855,-3912.3137L14111.8538,-3912.3463L14111.8537,-3912.3516L14111.8513,-3912.4224L14111.8492,-3912.4417L14111.847,-3912.4635L14111.8499,-3912.5758L14111.8499,-3912.5778L14111.85,-3912.579L14111.85,-3912.5793L14111.85,-3912.5793L14111.85,-3912.5793L14111.85,-3912.5793L14111.851,-3912.6182L14111.851,-3912.6182L14111.851,-3912.6182L14111.851,-3912.6182L14111.851,-3912.6182L14111.851,-3912.6183L14111.8517,-3912.6325L14111.8518,-3912.6333L14111.8518,-3912.6334L14111.8518,-3912.6334L14111.8518,-3912.6344L14111.8531,-3912.6583L14111.8531,-3912.6584L14111.8531,-3912.6584L14111.8581,-3912.7417L14111.8596,-3912.7585L14111.8626,-3912.792L14111.8658,-3912.818L14111.8673,-3912.8293L14111.8702,-3912.8543L14111.8727,-3912.8762L14111.8876,-3912.9918L14111.8922,-3913.0173L14111.9065,-3913.0972L14111.9227,-3913.2042L14111.9227,-3913.2042L14111.9227,-3913.2043L14111.9229,-3913.205L14111.9229,-3913.2051L14111.9229,-3913.2051L14111.9229,-3913.2052L14111.9229,-3913.2052L14111.9229,-3913.2052L14111.9229,-3913.2052L14111.9229,-3913.2053L14111.9229,-3913.2053L14111.9229,-3913.2053L14111.9229,-3913.2053L14111.9229,-3913.2054L14111.9229,-3913.2054L14111.9229,-3913.2055L14111.9229,-3913.2055L14111.9281,-3913.2391L14111.9385,-3913.2977"/>
<path content="1,小田急シティバス（株）,フローラ号,1.0,1.0,1.0," xlink:title="1" d="M14111.86,-3912.2314L14111.8593,-3912.2397L14111.8592,-3912.2405L14111.8592,-3912.2417L14111.857,-3912.279L14111.8561,-3912.2954L14111.855,-3912.3137L14111.8538,-3912.3463L14111.8537,-3912.3516L14111.8513,-3912.4224L14111.8492,-3912.4417L14111.847,-3912.4635L14111.8499,-3912.5758L14111.8499,-3912.5778L14111.85,-3912.579L14111.85,-3912.5793L14111.85,-3912.5793L14111.85,-3912.5793L14111.85,-3912.5793L14111.851,-3912.6182L14111.851,-3912.6182L14111.851,-3912.6182L14111.851,-3912.6182L14111.851,-3912.6182L14111.851,-3912.6183L14111.8517,-3912.6325L14111.8518,-3912.6333L14111.8518,-3912.6334L14111.8518,-3912.6334L14111.8518,-3912.6344L14111.8531,-3912.6583L14111.8531,-3912.6584L14111.8531,-3912.6584L14111.8581,-3912.7417L14111.8596,-3912.7585L14111.8626,-3912.792L14111.8658,-3912.818L14111.8673,-3912.8293L14111.8702,-3912.8543L14111.8727,-3912.8762L14111.8876,-3912.9918L14111.8922,-3913.0173L14111.9065,-3913.0972L14111.9227,-3913.2042L14111.9227,-3913.2042L14111.9227,-3913.2043L14111.9229,-3913.205L14111.9229,-3913.2051L14111.9229,-3913.2051L14111.9229,-3913.2052L14111.9229,-3913.2052L14111.9229,-3913.2052L14111.9229,-3913.2052L14111.9229,-3913.2053L14111.9229,-3913.2053L14111.9229,-3913.2053L14111.9229,-3913.2053L14111.9229,-3913.2054L14111.9229,-3913.2054L14111.9229,-3913.2055L14111.9229,-3913.2055L14111.9281,-3913.2391L14111.9385,-3913.2977"/>
<path content="1,小田急バス（株）,フローラ号,1.0,1.0,1.0," xlink:title="1" d="M14111.86,-3912.2314L14111.8593,-3912.2397L14111.8592,-3912.2405L14111.8592,-3912.2417L14111.857,-3912.279L14111.8561,-3912.2954L14111.855,-3912.3137L14111.8538,-3912.3463L14111.8537,-3912.3516L14111.8513,-3912.4224L14111.8492,-3912.4417L14111.847,-3912.4635L14111.8499,-3912.5758L14111.8499,-3912.5778L14111.85,-3912.579L14111.85,-3912.5793L14111.85,-3912.5793L14111.85,-3912.5793L14111.85,-3912.5793L14111.851,-3912.6182L14111.851,-3912.6182L14111.851,-3912.6182L14111.851,-3912.6182L14111.851,-3912.6182L14111.851,-3912.6183L14111.8517,-3912.6325L14111.8518,-3912.6333L14111.8518,-3912.6334L14111.8518,-3912.6334L14111.8518,-3912.6344L14111.8531,-3912.6583L14111.8531,-3912.6584L14111.8531,-3912.6584L14111.8581,-3912.7417L14111.8596,-3912.7585L14111.8626,-3912.792L14111.8658,-3912.818L14111.8673,-3912.8293L14111.8702,-3912.8543L14111.8727,-3912.8762L14111.8876,-3912.9918L14111.8922,-3913.0173L14111.9065,-3913.0972L14111.9227,-3913.2042L14111.9227,-3913.2042L14111.9227,-3913.2043L14111.9229,-3913.205L14111.9229,-3913.2051L14111.9229,-3913.2051L14111.9229,-3913.2052L14111.9229,-3913.2052L14111.9229,-3913.2052L14111.9229,-3913.2052L14111.9229,-3913.2053L14111.9229,-3913.2053L14111.9229,-3913.2053L14111.9229,-3913.2053L14111.9229,-3913.2054L14111.9229,-3913.2054L14111.9229,-3913.2055L14111.9229,-3913.2055L14111.9281,-3913.2391L14111.9385,-3913.2977"/>
<path content="1,岩手県交通（株）,けんじライナー,2.0,2.0,2.0," xlink:title="1" d="M14111.86,-3912.2314L14111.8593,-3912.2397L14111.8592,-3912.2405L14111.8592,-3912.2417L14111.857,-3912.279L14111.8561,-3912.2954L14111.855,-3912.3137L14111.8538,-3912.3463L14111.8537,-3912.3516L14111.8513,-3912.4224L14111.8492,-3912.4417L14111.847,-3912.4635L14111.8499,-3912.5758L14111.8499,-3912.5778L14111.85,-3912.579L14111.85,-3912.5793L14111.85,-3912.5793L14111.85,-3912.5793L14111.85,-3912.5793L14111.851,-3912.6182L14111.851,-3912.6182L14111.851,-3912.6182L14111.851,-3912.6182L14111.851,-3912.6182L14111.851,-3912.6183L14111.8517,-3912.6325L14111.8518,-3912.6333L14111.8518,-3912.6334L14111.8518,-3912.6334L14111.8518,-3912.6344L14111.8531,-3912.6583L14111.8531,-3912.6584L14111.8531,-3912.6584L14111.8581,-3912.7417L14111.8596,-3912.7585L14111.8626,-3912.792L14111.8658,-3912.818L14111.8673,-3912.8293L14111.8702,-3912.8543L14111.8727,-3912.8762L14111.8876,-3912.9918L14111.8922,-3913.0173L14111.9065,-3913.0972L14111.9227,-3913.2042L14111.9227,-3913.2042L14111.9227,-3913.2043L14111.9229,-3913.205L14111.9229,-3913.2051L14111.9229,-3913.2051L14111.9229,-3913.2052L14111.9229,-3913.2052L14111.9229,-3913.2052L14111.9229,-3913.2052L14111.9229,-3913.2053L14111.9229,-3913.2053L14111.9229,-3913.2053L14111.9229,-3913.2053L14111.9229,-3913.2054L14111.9229,-3913.2054L14111.9229,-3913.2055L14111.9229,-3913.2055L14111.9281,-3913.2391L14111.9385,-3913.2977"/>
<path content="1,岩手県交通（株）,アーバン号,3.2,4.0,4.0," xlink:title="1" d="M14111.86,-3912.2314L14111.8592,-3912.2406L14111.857,-3912.279L14111.8561,-3912.2954L14111.855,-3912.3137L14111.8538,-3912.3463L14111.8537,-3912.3516L14111.8513,-3912.4224L14111.8492,-3912.4417L14111.847,-3912.4635L14111.8499,-3912.5758L14111.8499,-3912.5778L14111.85,-3912.579L14111.85,-3912.5793L14111.85,-3912.5793L14111.85,-3912.5793L14111.85,-3912.5793L14111.851,-3912.6182L14111.851,-3912.6182L14111.851,-3912.6182L14111.851,-3912.6182L14111.851,-3912.6182L14111.851,-3912.6183L14111.8517,-3912.6325L14111.8518,-3912.6333L14111.8518,-3912.6334L14111.8518,-3912.6334L14111.8518,-3912.6344L14111.8531,-3912.6583L14111.8531,-3912.6584L14111.8531,-3912.6584L14111.8581,-3912.7417L14111.8596,-3912.7585L14111.8626,-3912.792L14111.8658,-3912.818L14111.8673,-3912.8293L14111.8702,-3912.8543L14111.8727,-3912.8762L14111.8876,-3912.9918L14111.8922,-3913.0173L14111.9065,-3913.0972L14111.9227,-3913.2042L14111.9227,-3913.2042L14111.9227,-3913.2043L14111.9229,-3913.205L14111.9229,-3913.2051L14111.9229,-3913.2051L14111.9229,-3913.2052L14111.9229,-3913.2052L14111.9229,-3913.2052L14111.9229,-3913.2052L14111.9229,-3913.2053L14111.9229,-3913.2053L14111.9229,-3913.2053L14111.9229,-3913.2053L14111.9229,-3913.2054L14111.9229,-3913.2054L14111.9229,-3913.2055L14111.9229,-3913.2055L14111.9281,-3913.2391L14111.9385,-3913.2977"/>
<path content="1,岩手県交通（株）,ドリーム盛岡（らくちん）号,2.3,3.0,3.0," xlink:title="1" d="M14111.86,-3912.2314L14111.8592,-3912.2406L14111.857,-3912.279L14111.8561,-3912.2954L14111.855,-3912.3137L14111.8538,-3912.3463L14111.8537,-3912.3516L14111.8513,-3912.4224L14111.8492,-3912.4417L14111.847,-3912.4635L14111.8499,-3912.5758L14111.8499,-3912.5778L14111.85,-3912.579L14111.85,-3912.5793L14111.85,-3912.5793L14111.85,-3912.5793L14111.85,-3912.5793L14111.851,-3912.6182L14111.851,-3912.6182L14111.851,-3912.6182L14111.851,-3912.6182L14111.851,-3912.6182L14111.851,-3912.6183L14111.8517,-3912.6325L14111.8518,-3912.6333L14111.8518,-3912.6334L14111.8518,-3912.6334L14111.8518,-3912.6344L14111.8531,-3912.6583L14111.8531,-3912.6584L14111.8531,-3912.6584L14111.8581,-3912.7417L14111.8596,-3912.7585L14111.8626,-3912.792L14111.8658,-3912.818L14111.8673,-3912.8293L14111.8702,-3912.8543L14111.8727,-3912.8762L14111.8876,-3912.9918L14111.8922,-3913.0173L14111.9065,-3913.0972L14111.9227,-3913.2042L14111.9227,-3913.2042L14111.9227,-3913.2043L14111.9229,-3913.205L14111.9229,-3913.2051L14111.9229,-3913.2051L14111.9229,-3913.2052L14111.9229,-3913.2052L14111.9229,-3913.2052L14111.9229,-3913.2052L14111.9229,-3913.2053L14111.9229,-3913.2053L14111.9229,-3913.2053L14111.9229,-3913.2053L14111.9229,-3913.2054L14111.9229,-3913.2054L14111.9229,-3913.2055L14111.9229,-3913.2055L14111.9281,-3913.2391L14111.9385,-3913.2977"/>
<path content="1,岩手県交通（株）,広岡線,4.0,0.0,0.0," xlink:title="1" d="M14111.3671,-3913.3301L14111.3106,-3913.3195L14111.2356,-3913.3072L14111.1639,-3913.2944L14111.0636,-3913.2762L14111.0397,-3913.27L14111.0296,-3913.2655L14110.9862,-3913.2447L14110.9812,-3913.2425L14110.8649,-3913.1898L14110.8616,-3913.1878L14110.8398,-3913.1748"/>
<path content="1,岩手県交通（株）,盛岡・平泉線,0.6,0.6,0.6," xlink:title="1" d="M14111.86,-3912.2314L14111.8592,-3912.2406L14111.857,-3912.279L14111.8561,-3912.2954L14111.855,-3912.3137L14111.8538,-3912.3463L14111.8537,-3912.3516L14111.8513,-3912.4224L14111.8492,-3912.4417L14111.847,-3912.4635L14111.8499,-3912.5758L14111.8499,-3912.5778L14111.85,-3912.579L14111.85,-3912.5793L14111.85,-3912.5793L14111.85,-3912.5793L14111.85,-3912.5793L14111.851,-3912.6182L14111.851,-3912.6182L14111.851,-3912.6182L14111.851,-3912.6182L14111.851,-3912.6182L14111.851,-3912.6183L14111.8517,-3912.6325L14111.8518,-3912.6333L14111.8518,-3912.6334L14111.8518,-3912.6334L14111.8518,-3912.6344L14111.8531,-3912.6583L14111.8531,-3912.6584L14111.8531,-3912.6584L14111.8581,-3912.7417L14111.8596,-3912.7585L14111.8626,-3912.792L14111.8658,-3912.818L14111.8673,-3912.8293L14111.8702,-3912.8543L14111.8727,-3912.8762L14111.8876,-3912.9918L14111.8922,-3913.0173L14111.9065,-3913.0972L14111.9227,-3913.2042L14111.9227,-3913.2042L14111.9227,-3913.2043L14111.9229,-3913.205L14111.9229,-3913.2051L14111.9229,-3913.2051L14111.9229,-3913.2052L14111.9229,-3913.2052L14111.9229,-3913.2052L14111.9229,-3913.2052L14111.9229,-3913.2053L14111.9229,-3913.2053L14111.9229,-3913.2053L14111.9229,-3913.2053L14111.9229,-3913.2054L14111.9229,-3913.2054L14111.9229,-3913.2055L14111.9229,-3913.2055L14111.9281,-3913.2391L14111.9385,-3913.2977"/>
<path content="1,岩手県交通（株）,盛岡・横浜線,1.0,1.0,1.0," xlink:title="1" d="M14111.86,-3912.2314L14111.8593,-3912.2397L14111.8592,-3912.2405L14111.8592,-3912.2417L14111.857,-3912.279L14111.8561,-3912.2954L14111.855,-3912.3137L14111.8538,-3912.3463L14111.8537,-3912.3516L14111.8513,-3912.4224L14111.8492,-3912.4417L14111.847,-3912.4635L14111.8499,-3912.5758L14111.8499,-3912.5778L14111.85,-3912.579L14111.85,-3912.5793L14111.85,-3912.5793L14111.85,-3912.5793L14111.85,-3912.5793L14111.851,-3912.6182L14111.851,-3912.6182L14111.851,-3912.6182L14111.851,-3912.6182L14111.851,-3912.6182L14111.851,-3912.6183L14111.8517,-3912.6325L14111.8518,-3912.6333L14111.8518,-3912.6334L14111.8518,-3912.6334L14111.8518,-3912.6344L14111.8531,-3912.6583L14111.8531,-3912.6584L14111.8531,-3912.6584L14111.8581,-3912.7417L14111.8596,-3912.7585L14111.8626,-3912.792L14111.8658,-3912.818L14111.8673,-3912.8293L14111.8702,-3912.8543L14111.8727,-3912.8762L14111.8876,-3912.9918L14111.8922,-3913.0173L14111.9065,-3913.0972L14111.9227,-3913.2042L14111.9227,-3913.2042L14111.9227,-3913.2043L14111.9229,-3913.205L14111.9229,-3913.2051L14111.9229,-3913.2051L14111.9229,-3913.2052L14111.9229,-3913.2052L14111.9229,-3913.2052L14111.9229,-3913.2052L14111.9229,-3913.2053L14111.9229,-3913.2053L14111.9229,-3913.2053L14111.9229,-3913.2053L14111.9229,-3913.2054L14111.9229,-3913.2054L14111.9229,-3913.2055L14111.9229,-3913.2055L14111.9281,-3913.2391L14111.9385,-3913.2977"/>
<path content="1,岩手県交通（株）,遠野・釜石号,1.0,1.0,1.0," xlink:title="1" d="M14111.86,-3912.2314L14111.8593,-3912.2397L14111.8592,-3912.2405L14111.8592,-3912.2417L14111.857,-3912.279L14111.8561,-3912.2954L14111.855,-3912.3137L14111.8538,-3912.3463L14111.8537,-3912.3516L14111.8513,-3912.4224L14111.8492,-3912.4417L14111.847,-3912.4635L14111.8499,-3912.5758L14111.8499,-3912.5778L14111.85,-3912.579L14111.85,-3912.5793L14111.85,-3912.5793L14111.85,-3912.5793L14111.85,-3912.5793L14111.851,-3912.6182L14111.851,-3912.6182L14111.851,-3912.6182L14111.851,-3912.6182L14111.851,-3912.6182L14111.851,-3912.6183L14111.8517,-3912.6325L14111.8518,-3912.6333L14111.8518,-3912.6334L14111.8518,-3912.6334L14111.8518,-3912.6344L14111.8531,-3912.6583L14111.8531,-3912.6584L14111.8531,-3912.6584L14111.8581,-3912.7417L14111.8596,-3912.7585L14111.8626,-3912.792L14111.8658,-3912.818L14111.8673,-3912.8293L14111.8702,-3912.8543L14111.8727,-3912.8762L14111.8876,-3912.9918L14111.8922,-3913.0173L14111.9065,-3913.0972L14111.9227,-3913.2042L14111.9227,-3913.2042L14111.9227,-3913.2043L14111.9229,-3913.205L14111.9229,-3913.2051L14111.9229,-3913.2051L14111.9229,-3913.2052L14111.9229,-3913.2052L14111.9229,-3913.2052L14111.9229,-3913.2052L14111.9229,-3913.2053L14111.9229,-3913.2053L14111.9229,-3913.2053L14111.9229,-3913.2053L14111.9229,-3913.2054L14111.9229,-3913.2054L14111.9229,-3913.2055L14111.9229,-3913.2055L14111.9281,-3913.2391L14111.9385,-3913.2977"/>
<path content="1,岩手県交通（株）,釜石・仙台線,1.0,1.0,1.0," xlink:title="1" d="M14111.9385,-3913.2977L14111.9281,-3913.2391L14111.9229,-3913.2055L14111.9229,-3913.2055L14111.9229,-3913.2054L14111.9229,-3913.2054L14111.9229,-3913.2053L14111.9229,-3913.2053L14111.9229,-3913.2053L14111.9229,-3913.2053L14111.9229,-3913.2052L14111.9229,-3913.2052L14111.9229,-3913.2052L14111.9229,-3913.2052L14111.9229,-3913.2051L14111.9229,-3913.2051L14111.9229,-3913.205L14111.9227,-3913.2043L14111.9227,-3913.2042L14111.9227,-3913.2042L14111.9065,-3913.0972L14111.8922,-3913.0173L14111.8876,-3912.9918L14111.8727,-3912.8762L14111.8702,-3912.8543L14111.8673,-3912.8293L14111.8658,-3912.818L14111.8626,-3912.792L14111.8596,-3912.7585L14111.8581,-3912.7417L14111.8531,-3912.6584L14111.8531,-3912.6584L14111.8531,-3912.6583L14111.8518,-3912.6344L14111.8518,-3912.6334L14111.8518,-3912.6334L14111.8518,-3912.6333L14111.8517,-3912.6325L14111.851,-3912.6183L14111.851,-3912.6182L14111.851,-3912.6182L14111.851,-3912.6182L14111.851,-3912.6182L14111.851,-3912.6182L14111.85,-3912.5793L14111.85,-3912.5793L14111.85,-3912.5793L14111.85,-3912.5793L14111.85,-3912.579L14111.8499,-3912.5778L14111.8499,-3912.5758L14111.847,-3912.4635L14111.8492,-3912.4417L14111.8513,-3912.4224L14111.8537,-3912.3516L14111.8538,-3912.3463L14111.855,-3912.3137L14111.8561,-3912.2954L14111.8592,-3912.2406L14111.86,-3912.2314"/>
<path content="1,岩手県北自動車（株）,BEAM-1　宮古・盛岡南⇔浜松町・品川,1.0,1.0,1.0," xlink:title="1" d="M14111.86,-3912.2314L14111.8592,-3912.2406L14111.857,-3912.279L14111.8561,-3912.2954L14111.855,-3912.3137L14111.8538,-3912.3463L14111.8537,-3912.3516L14111.8513,-3912.4224L14111.8492,-3912.4417L14111.847,-3912.4635L14111.8499,-3912.5758L14111.8499,-3912.5778L14111.85,-3912.579L14111.85,-3912.5793L14111.85,-3912.5793L14111.85,-3912.5793L14111.85,-3912.5793L14111.851,-3912.6182L14111.851,-3912.6182L14111.851,-3912.6182L14111.851,-3912.6182L14111.851,-3912.6182L14111.851,-3912.6183L14111.8517,-3912.6325L14111.8518,-3912.6333L14111.8518,-3912.6334L14111.8518,-3912.6334L14111.8518,-3912.6344L14111.8531,-3912.6583L14111.8531,-3912.6584L14111.8531,-3912.6584L14111.8581,-3912.7417L14111.8596,-3912.7585L14111.8626,-3912.792L14111.8658,-3912.818L14111.8673,-3912.8293L14111.8702,-3912.8543L14111.8727,-3912.8762L14111.8876,-3912.9918L14111.8922,-3913.0173L14111.9065,-3913.0972L14111.9227,-3913.2042L14111.9227,-3913.2042L14111.9227,-3913.2043L14111.9229,-3913.205L14111.9229,-3913.2051L14111.9229,-3913.2051L14111.9229,-3913.2052L14111.9229,-3913.2052L14111.9229,-3913.2052L14111.9229,-3913.2052L14111.9229,-3913.2053L14111.9229,-3913.2053L14111.9229,-3913.2053L14111.9229,-3913.2053L14111.9229,-3913.2054L14111.9229,-3913.2054L14111.9229,-3913.2055L14111.9229,-3913.2055L14111.9281,-3913.2391L14111.9385,-3913.2977"/>
<path content="1,岩手県北自動車（株）,アーバン号　盛岡⇔仙台,3.2,4.0,4.0," xlink:title="1" d="M14111.86,-3912.2314L14111.8592,-3912.2406L14111.857,-3912.279L14111.8561,-3912.2954L14111.855,-3912.3137L14111.8538,-3912.3463L14111.8537,-3912.3516L14111.8513,-3912.4224L14111.8492,-3912.4417L14111.847,-3912.4635L14111.8499,-3912.5758L14111.8499,-3912.5778L14111.85,-3912.579L14111.85,-3912.5793L14111.85,-3912.5793L14111.85,-3912.5793L14111.85,-3912.5793L14111.851,-3912.6182L14111.851,-3912.6182L14111.851,-3912.6182L14111.851,-3912.6182L14111.851,-3912.6182L14111.851,-3912.6183L14111.8517,-3912.6325L14111.8518,-3912.6333L14111.8518,-3912.6334L14111.8518,-3912.6334L14111.8518,-3912.6344L14111.8531,-3912.6583L14111.8531,-3912.6584L14111.8531,-3912.6584L14111.8581,-3912.7417L14111.8596,-3912.7585L14111.8626,-3912.792L14111.8658,-3912.818L14111.8673,-3912.8293L14111.8702,-3912.8543L14111.8727,-3912.8762L14111.8876,-3912.9918L14111.8922,-3913.0173L14111.9065,-3913.0972L14111.9227,-3913.2042L14111.9227,-3913.2042L14111.9227,-3913.2043L14111.9229,-3913.205L14111.9229,-3913.2051L14111.9229,-3913.2051L14111.9229,-3913.2052L14111.9229,-3913.2052L14111.9229,-3913.2052L14111.9229,-3913.2052L14111.9229,-3913.2053L14111.9229,-3913.2053L14111.9229,-3913.2053L14111.9229,-3913.2053L14111.9229,-3913.2054L14111.9229,-3913.2054L14111.9229,-3913.2055L14111.9229,-3913.2055L14111.9281,-3913.2391L14111.9385,-3913.2977"/>
<path content="1,弘南バス（株）,アップル号,1.0,1.0,1.0," xlink:title="1" d="M14111.9385,-3913.2977L14111.9281,-3913.2391L14111.9229,-3913.2055L14111.9229,-3913.2055L14111.9229,-3913.2054L14111.9229,-3913.2054L14111.9229,-3913.2053L14111.9229,-3913.2053L14111.9229,-3913.2053L14111.9229,-3913.2053L14111.9229,-3913.2052L14111.9229,-3913.2052L14111.9229,-3913.2052L14111.9229,-3913.2052L14111.9229,-3913.2051L14111.9229,-3913.2051L14111.9229,-3913.205L14111.9227,-3913.2043L14111.9227,-3913.2042L14111.9227,-3913.2042L14111.9065,-3913.0972L14111.8922,-3913.0173L14111.8876,-3912.9918L14111.8727,-3912.8762L14111.8702,-3912.8543L14111.8673,-3912.8293L14111.8658,-3912.818L14111.8626,-3912.792L14111.8596,-3912.7585L14111.8581,-3912.7417L14111.8531,-3912.6584L14111.8531,-3912.6584L14111.8531,-3912.6583L14111.8518,-3912.6344L14111.8518,-3912.6334L14111.8518,-3912.6334L14111.8518,-3912.6333L14111.8517,-3912.6325L14111.851,-3912.6183L14111.851,-3912.6182L14111.851,-3912.6182L14111.851,-3912.6182L14111.851,-3912.6182L14111.851,-3912.6182L14111.85,-3912.5793L14111.85,-3912.5793L14111.85,-3912.5793L14111.85,-3912.5793L14111.85,-3912.579L14111.8499,-3912.5778L14111.8499,-3912.5758L14111.847,-3912.4635L14111.8492,-3912.4417L14111.8513,-3912.4224L14111.8537,-3912.3516L14111.8538,-3912.3463L14111.855,-3912.3137L14111.8561,-3912.2954L14111.857,-3912.279L14111.8592,-3912.2406L14111.86,-3912.2314"/>
<path content="1,弘南バス（株）,キャッスル号,6.0,6.0,6.0," xlink:title="1" d="M14111.9385,-3913.2977L14111.9281,-3913.2391L14111.9229,-3913.2055L14111.9229,-3913.2055L14111.9229,-3913.2054L14111.9229,-3913.2054L14111.9229,-3913.2053L14111.9229,-3913.2053L14111.9229,-3913.2053L14111.9229,-3913.2053L14111.9229,-3913.2052L14111.9229,-3913.2052L14111.9229,-3913.2052L14111.9229,-3913.2052L14111.9229,-3913.2051L14111.9229,-3913.2051L14111.9229,-3913.205L14111.9227,-3913.2043L14111.9227,-3913.2042L14111.9227,-3913.2042L14111.9065,-3913.0972L14111.8922,-3913.0173L14111.8876,-3912.9918L14111.8727,-3912.8762L14111.8702,-3912.8543L14111.8673,-3912.8293L14111.8658,-3912.818L14111.8626,-3912.792L14111.8596,-3912.7585L14111.8581,-3912.7417L14111.8531,-3912.6584L14111.8531,-3912.6584L14111.8531,-3912.6583L14111.8518,-3912.6344L14111.8518,-3912.6334L14111.8518,-3912.6334L14111.8518,-3912.6333L14111.8517,-3912.6325L14111.851,-3912.6183L14111.851,-3912.6182L14111.851,-3912.6182L14111.851,-3912.6182L14111.851,-3912.6182L14111.851,-3912.6182L14111.85,-3912.5793L14111.85,-3912.5793L14111.85,-3912.5793L14111.85,-3912.5793L14111.85,-3912.579L14111.8499,-3912.5778L14111.8499,-3912.5758L14111.847,-3912.4635L14111.8492,-3912.4417L14111.8513,-3912.4224L14111.8537,-3912.3516L14111.8538,-3912.3463L14111.855,-3912.3137L14111.8561,-3912.2954L14111.857,-3912.279L14111.8592,-3912.2406L14111.86,-3912.2314"/>
<path content="1,弘南バス（株）,スカイ号,1.0,1.0,1.0," xlink:title="1" d="M14111.9385,-3913.2977L14111.9281,-3913.2391L14111.9229,-3913.2055L14111.9229,-3913.2055L14111.9229,-3913.2054L14111.9229,-3913.2054L14111.9229,-3913.2053L14111.9229,-3913.2053L14111.9229,-3913.2053L14111.9229,-3913.2053L14111.9229,-3913.2052L14111.9229,-3913.2052L14111.9229,-3913.2052L14111.9229,-3913.2052L14111.9229,-3913.2051L14111.9229,-3913.2051L14111.9229,-3913.205L14111.9227,-3913.2043L14111.9227,-3913.2042L14111.9227,-3913.2042L14111.9065,-3913.0972L14111.8922,-3913.0173L14111.8876,-3912.9918L14111.8727,-3912.8762L14111.8702,-3912.8543L14111.8673,-3912.8293L14111.8658,-3912.818L14111.8626,-3912.792L14111.8596,-3912.7585L14111.8581,-3912.7417L14111.8531,-3912.6584L14111.8531,-3912.6584L14111.8531,-3912.6583L14111.8518,-3912.6344L14111.8518,-3912.6334L14111.8518,-3912.6334L14111.8518,-3912.6333L14111.8517,-3912.6325L14111.851,-3912.6183L14111.851,-3912.6182L14111.851,-3912.6182L14111.851,-3912.6182L14111.851,-3912.6182L14111.851,-3912.6182L14111.85,-3912.5793L14111.85,-3912.5793L14111.85,-3912.5793L14111.85,-3912.5793L14111.85,-3912.579L14111.8499,-3912.5778L14111.8499,-3912.5758L14111.847,-3912.4635L14111.8492,-3912.4417L14111.8513,-3912.4224L14111.8537,-3912.3516L14111.8538,-3912.3463L14111.855,-3912.3137L14111.8561,-3912.2954L14111.857,-3912.279L14111.8592,-3912.2406L14111.86,-3912.2314"/>
<path content="1,弘南バス（株）,ノクターン号,1.0,1.0,1.0," xlink:title="1" d="M14111.9385,-3913.2977L14111.9281,-3913.2391L14111.9229,-3913.2055L14111.9229,-3913.2055L14111.9229,-3913.2054L14111.9229,-3913.2054L14111.9229,-3913.2053L14111.9229,-3913.2053L14111.9229,-3913.2053L14111.9229,-3913.2053L14111.9229,-3913.2052L14111.9229,-3913.2052L14111.9229,-3913.2052L14111.9229,-3913.2052L14111.9229,-3913.2051L14111.9229,-3913.2051L14111.9229,-3913.205L14111.9227,-3913.2043L14111.9227,-3913.2042L14111.9227,-3913.2042L14111.9065,-3913.0972L14111.8922,-3913.0173L14111.8876,-3912.9918L14111.8727,-3912.8762L14111.8702,-3912.8543L14111.8673,-3912.8293L14111.8658,-3912.818L14111.8626,-3912.792L14111.8596,-3912.7585L14111.8581,-3912.7417L14111.8531,-3912.6584L14111.8531,-3912.6584L14111.8531,-3912.6583L14111.8518,-3912.6344L14111.8518,-3912.6334L14111.8518,-3912.6334L14111.8518,-3912.6333L14111.8517,-3912.6325L14111.851,-3912.6183L14111.851,-3912.6182L14111.851,-3912.6182L14111.851,-3912.6182L14111.851,-3912.6182L14111.851,-3912.6182L14111.85,-3912.5793L14111.85,-3912.5793L14111.85,-3912.5793L14111.85,-3912.5793L14111.85,-3912.579L14111.8499,-3912.5778L14111.8499,-3912.5758L14111.847,-3912.4635L14111.8492,-3912.4417L14111.8513,-3912.4224L14111.8537,-3912.3516L14111.8538,-3912.3463L14111.855,-3912.3137L14111.8561,-3912.2954L14111.857,-3912.279L14111.8592,-3912.2406L14111.86,-3912.2314"/>
<path content="1,弘南バス（株）,パンダ号,3.0,3.0,3.0," xlink:title="1" d="M14111.9385,-3913.2977L14111.9281,-3913.2391L14111.9229,-3913.2055L14111.9229,-3913.2055L14111.9229,-3913.2054L14111.9229,-3913.2054L14111.9229,-3913.2053L14111.9229,-3913.2053L14111.9229,-3913.2053L14111.9229,-3913.2053L14111.9229,-3913.2052L14111.9229,-3913.2052L14111.9229,-3913.2052L14111.9229,-3913.2052L14111.9229,-3913.2051L14111.9229,-3913.2051L14111.9229,-3913.205L14111.9227,-3913.2043L14111.9227,-3913.2042L14111.9227,-3913.2042L14111.9065,-3913.0972L14111.8922,-3913.0173L14111.8876,-3912.9918L14111.8727,-3912.8762L14111.8702,-3912.8543L14111.8673,-3912.8293L14111.8658,-3912.818L14111.8626,-3912.792L14111.8596,-3912.7585L14111.8581,-3912.7417L14111.8531,-3912.6584L14111.8531,-3912.6584L14111.8531,-3912.6583L14111.8518,-3912.6344L14111.8518,-3912.6334L14111.8518,-3912.6334L14111.8518,-3912.6333L14111.8517,-3912.6325L14111.851,-3912.6183L14111.851,-3912.6182L14111.851,-3912.6182L14111.851,-3912.6182L14111.851,-3912.6182L14111.851,-3912.6182L14111.85,-3912.5793L14111.85,-3912.5793L14111.85,-3912.5793L14111.85,-3912.5793L14111.85,-3912.579L14111.8499,-3912.5778L14111.8499,-3912.5758L14111.847,-3912.4635L14111.8492,-3912.4417L14111.8513,-3912.4224L14111.8537,-3912.3516L14111.8538,-3912.3463L14111.855,-3912.3137L14111.8561,-3912.2954L14111.857,-3912.279L14111.8592,-3912.2406L14111.86,-3912.2314"/>
<path content="1,弘南バス（株）,ブルーシティー号,4.0,4.0,4.0," xlink:title="1" d="M14111.9385,-3913.2977L14111.9281,-3913.2391L14111.9229,-3913.2055L14111.9229,-3913.2055L14111.9229,-3913.2054L14111.9229,-3913.2054L14111.9229,-3913.2053L14111.9229,-3913.2053L14111.9229,-3913.2053L14111.9229,-3913.2053L14111.9229,-3913.2052L14111.9229,-3913.2052L14111.9229,-3913.2052L14111.9229,-3913.2052L14111.9229,-3913.2051L14111.9229,-3913.2051L14111.9229,-3913.205L14111.9227,-3913.2043L14111.9227,-3913.2042L14111.9227,-3913.2042L14111.9065,-3913.0972L14111.8922,-3913.0173L14111.8876,-3912.9918L14111.8727,-3912.8762L14111.8702,-3912.8543L14111.8673,-3912.8293L14111.8658,-3912.818L14111.8626,-3912.792L14111.8596,-3912.7585L14111.8581,-3912.7417L14111.8531,-3912.6584L14111.8531,-3912.6584L14111.8531,-3912.6583L14111.8518,-3912.6344L14111.8518,-3912.6334L14111.8518,-3912.6334L14111.8518,-3912.6333L14111.8517,-3912.6325L14111.851,-3912.6183L14111.851,-3912.6182L14111.851,-3912.6182L14111.851,-3912.6182L14111.851,-3912.6182L14111.851,-3912.6182L14111.85,-3912.5793L14111.85,-3912.5793L14111.85,-3912.5793L14111.85,-3912.5793L14111.85,-3912.579L14111.8499,-3912.5778L14111.8499,-3912.5758L14111.847,-3912.4635L14111.8492,-3912.4417L14111.8513,-3912.4224L14111.8537,-3912.3516L14111.8538,-3912.3463L14111.855,-3912.3137L14111.8561,-3912.2954L14111.857,-3912.279L14111.8592,-3912.2406L14111.86,-3912.2314"/>
<path content="1,弘南バス（株）,津軽号,1.0,1.0,1.0," xlink:title="1" d="M14111.86,-3912.2314L14111.8592,-3912.2406L14111.857,-3912.279L14111.8561,-3912.2954L14111.855,-3912.3137L14111.8538,-3912.3463L14111.8537,-3912.3516L14111.8513,-3912.4224L14111.8492,-3912.4417L14111.847,-3912.4635L14111.8499,-3912.5758L14111.8499,-3912.5778L14111.85,-3912.579L14111.85,-3912.5793L14111.85,-3912.5793L14111.85,-3912.5793L14111.85,-3912.5793L14111.851,-3912.6182L14111.851,-3912.6182L14111.851,-3912.6182L14111.851,-3912.6182L14111.851,-3912.6182L14111.851,-3912.6183L14111.8517,-3912.6325L14111.8518,-3912.6333L14111.8518,-3912.6334L14111.8518,-3912.6334L14111.8518,-3912.6344L14111.8531,-3912.6583L14111.8531,-3912.6584L14111.8531,-3912.6584L14111.8581,-3912.7417L14111.8596,-3912.7585L14111.8626,-3912.792L14111.8658,-3912.818L14111.8673,-3912.8293L14111.8702,-3912.8543L14111.8727,-3912.8762L14111.8876,-3912.9918L14111.8922,-3913.0173L14111.9065,-3913.0972L14111.9227,-3913.2042L14111.9227,-3913.2042L14111.9227,-3913.2043L14111.9229,-3913.205L14111.9229,-3913.2051L14111.9229,-3913.2051L14111.9229,-3913.2052L14111.9229,-3913.2052L14111.9229,-3913.2052L14111.9229,-3913.2052L14111.9229,-3913.2053L14111.9229,-3913.2053L14111.9229,-3913.2053L14111.9229,-3913.2053L14111.9229,-3913.2054L14111.9229,-3913.2054L14111.9229,-3913.2055L14111.9229,-3913.2055L14111.9281,-3913.2391L14111.9385,-3913.2977"/>
<path content="1,東日本急行（株）,仙台～盛岡線,16.0,20.0,20.0," xlink:title="1" d="M14111.9385,-3913.2977L14111.9281,-3913.2391L14111.9229,-3913.2055L14111.9229,-3913.2055L14111.9229,-3913.2054L14111.9229,-3913.2054L14111.9229,-3913.2053L14111.9229,-3913.2053L14111.9229,-3913.2053L14111.9229,-3913.2053L14111.9229,-3913.2052L14111.9229,-3913.2052L14111.9229,-3913.2052L14111.9229,-3913.2052L14111.9229,-3913.2051L14111.9229,-3913.2051L14111.9229,-3913.205L14111.9227,-3913.2043L14111.9227,-3913.2042L14111.9227,-3913.2042L14111.9065,-3913.0972L14111.8922,-3913.0173L14111.8876,-3912.9918L14111.8727,-3912.8762L14111.8702,-3912.8543L14111.8673,-3912.8293L14111.8658,-3912.818L14111.8626,-3912.792L14111.8596,-3912.7585L14111.8581,-3912.7417L14111.8531,-3912.6584L14111.8531,-3912.6584L14111.8531,-3912.6583L14111.8518,-3912.6344L14111.8518,-3912.6334L14111.8518,-3912.6334L14111.8518,-3912.6333L14111.8517,-3912.6325L14111.851,-3912.6183L14111.851,-3912.6182L14111.851,-3912.6182L14111.851,-3912.6182L14111.851,-3912.6182L14111.851,-3912.6182L14111.85,-3912.5793L14111.85,-3912.5793L14111.85,-3912.5793L14111.85,-3912.5793L14111.85,-3912.579L14111.8499,-3912.5778L14111.8499,-3912.5758L14111.847,-3912.4635L14111.8492,-3912.4417L14111.8513,-3912.4224L14111.8537,-3912.3516L14111.8538,-3912.3463L14111.855,-3912.3137L14111.8561,-3912.2954L14111.857,-3912.279L14111.8592,-3912.2406L14111.86,-3912.2314"/>
<path content="1,江ノ電バス藤沢,レイク＆ポート号,1.0,1.0,1.0," xlink:title="1" d="M14111.86,-3912.2314L14111.8593,-3912.2397L14111.8592,-3912.2405L14111.8592,-3912.2417L14111.857,-3912.279L14111.8561,-3912.2954L14111.855,-3912.3137L14111.8538,-3912.3463L14111.8537,-3912.3516L14111.8513,-3912.4224L14111.8492,-3912.4417L14111.847,-3912.4635L14111.8499,-3912.5758L14111.8499,-3912.5778L14111.85,-3912.579L14111.85,-3912.5793L14111.85,-3912.5793L14111.85,-3912.5793L14111.85,-3912.5793L14111.851,-3912.6182L14111.851,-3912.6182L14111.851,-3912.6182L14111.851,-3912.6182L14111.851,-3912.6182L14111.851,-3912.6183L14111.8517,-3912.6325L14111.8518,-3912.6333L14111.8518,-3912.6334L14111.8518,-3912.6334L14111.8518,-3912.6344L14111.8531,-3912.6583L14111.8531,-3912.6584L14111.8531,-3912.6584L14111.8581,-3912.7417L14111.8596,-3912.7585L14111.8626,-3912.792L14111.8658,-3912.818L14111.8673,-3912.8293L14111.8702,-3912.8543L14111.8727,-3912.8762L14111.8876,-3912.9918L14111.8922,-3913.0173L14111.9065,-3913.0972L14111.9227,-3913.2042L14111.9227,-3913.2042L14111.9227,-3913.2043L14111.9229,-3913.205L14111.9229,-3913.2051L14111.9229,-3913.2051L14111.9229,-3913.2052L14111.9229,-3913.2052L14111.9229,-3913.2052L14111.9229,-3913.2052L14111.9229,-3913.2053L14111.9229,-3913.2053L14111.9229,-3913.2053L14111.9229,-3913.2053L14111.9229,-3913.2054L14111.9229,-3913.2054L14111.9229,-3913.2055L14111.9229,-3913.2055L14111.9281,-3913.2391L14111.9385,-3913.2977"/>
<path content="1,秋北バス（株）,ジュピター号,1.0,1.0,1.0," xlink:title="1" d="M14111.86,-3912.2314L14111.8592,-3912.2406L14111.857,-3912.279L14111.8561,-3912.2954L14111.855,-3912.3137L14111.8538,-3912.3463L14111.8537,-3912.3516L14111.8513,-3912.4224L14111.8492,-3912.4417L14111.847,-3912.4635L14111.8499,-3912.5758L14111.8499,-3912.5778L14111.85,-3912.579L14111.85,-3912.5793L14111.85,-3912.5793L14111.85,-3912.5793L14111.85,-3912.5793L14111.851,-3912.6182L14111.851,-3912.6182L14111.851,-3912.6182L14111.851,-3912.6182L14111.851,-3912.6182L14111.851,-3912.6183L14111.8517,-3912.6325L14111.8518,-3912.6333L14111.8518,-3912.6334L14111.8518,-3912.6334L14111.8518,-3912.6344L14111.8531,-3912.6583L14111.8531,-3912.6584L14111.8531,-3912.6584L14111.8581,-3912.7417L14111.8596,-3912.7585L14111.8626,-3912.792L14111.8658,-3912.818L14111.8673,-3912.8293L14111.8702,-3912.8543L14111.8727,-3912.8762L14111.8876,-3912.9918L14111.8922,-3913.0173L14111.9065,-3913.0972L14111.9227,-3913.2042L14111.9227,-3913.2042L14111.9227,-3913.2043L14111.9229,-3913.205L14111.9229,-3913.2051L14111.9229,-3913.2051L14111.9229,-3913.2052L14111.9229,-3913.2052L14111.9229,-3913.2052L14111.9229,-3913.2052L14111.9229,-3913.2053L14111.9229,-3913.2053L14111.9229,-3913.2053L14111.9229,-3913.2053L14111.9229,-3913.2054L14111.9229,-3913.2054L14111.9229,-3913.2055L14111.9229,-3913.2055L14111.9281,-3913.2391L14111.9385,-3913.2977"/>
<path content="1,秋北バス（株）,二ツ井・能代～仙台線,1.0,1.0,1.0," xlink:title="1" d="M14111.86,-3912.2314L14111.8593,-3912.2397L14111.8592,-3912.2405L14111.8592,-3912.2417L14111.857,-3912.279L14111.8561,-3912.2954L14111.855,-3912.3137L14111.8538,-3912.3463L14111.8537,-3912.3516L14111.8513,-3912.4224L14111.8492,-3912.4417L14111.847,-3912.4635L14111.8499,-3912.5758L14111.8499,-3912.5778L14111.85,-3912.579L14111.85,-3912.5793L14111.85,-3912.5793L14111.85,-3912.5793L14111.85,-3912.5793L14111.851,-3912.6182L14111.851,-3912.6182L14111.851,-3912.6182L14111.851,-3912.6182L14111.851,-3912.6182L14111.851,-3912.6183L14111.8517,-3912.6325L14111.8518,-3912.6333L14111.8518,-3912.6334L14111.8518,-3912.6334L14111.8518,-3912.6344L14111.8531,-3912.6583L14111.8531,-3912.6584L14111.8531,-3912.6584L14111.8581,-3912.7417L14111.8596,-3912.7585L14111.8626,-3912.792L14111.8658,-3912.818L14111.8673,-3912.8293L14111.8702,-3912.8543L14111.8727,-3912.8762L14111.8876,-3912.9918L14111.8922,-3913.0173L14111.9065,-3913.0972L14111.9227,-3913.2042L14111.9227,-3913.2042L14111.9227,-3913.2043L14111.9229,-3913.205L14111.9229,-3913.2051L14111.9229,-3913.2051L14111.9229,-3913.2052L14111.9229,-3913.2052L14111.9229,-3913.2052L14111.9229,-3913.2052L14111.9229,-3913.2053L14111.9229,-3913.2053L14111.9229,-3913.2053L14111.9229,-3913.2053L14111.9229,-3913.2054L14111.9229,-3913.2054L14111.9229,-3913.2055L14111.9229,-3913.2055L14111.9281,-3913.2391L14111.9385,-3913.2977"/>
<path content="1,秋北バス（株）,大館・鹿角～仙台線,3.0,3.0,3.0," xlink:title="1" d="M14111.86,-3912.2314L14111.8592,-3912.2406L14111.857,-3912.279L14111.8561,-3912.2954L14111.855,-3912.3137L14111.8538,-3912.3463L14111.8537,-3912.3516L14111.8513,-3912.4224L14111.8492,-3912.4417L14111.847,-3912.4635L14111.8499,-3912.5758L14111.8499,-3912.5778L14111.85,-3912.579L14111.85,-3912.5793L14111.85,-3912.5793L14111.85,-3912.5793L14111.85,-3912.5793L14111.851,-3912.6182L14111.851,-3912.6182L14111.851,-3912.6182L14111.851,-3912.6182L14111.851,-3912.6182L14111.851,-3912.6183L14111.8517,-3912.6325L14111.8518,-3912.6333L14111.8518,-3912.6334L14111.8518,-3912.6334L14111.8518,-3912.6344L14111.8531,-3912.6583L14111.8531,-3912.6584L14111.8531,-3912.6584L14111.8581,-3912.7417L14111.8596,-3912.7585L14111.8626,-3912.792L14111.8658,-3912.818L14111.8673,-3912.8293L14111.8702,-3912.8543L14111.8727,-3912.8762L14111.8876,-3912.9918L14111.8922,-3913.0173L14111.9065,-3913.0972L14111.9227,-3913.2042L14111.9227,-3913.2042L14111.9227,-3913.2043L14111.9229,-3913.205L14111.9229,-3913.2051L14111.9229,-3913.2051L14111.9229,-3913.2052L14111.9229,-3913.2052L14111.9229,-3913.2052L14111.9229,-3913.2052L14111.9229,-3913.2053L14111.9229,-3913.2053L14111.9229,-3913.2053L14111.9229,-3913.2053L14111.9229,-3913.2054L14111.9229,-3913.2054L14111.9229,-3913.2055L14111.9229,-3913.2055L14111.9281,-3913.2391L14111.9385,-3913.2977"/>
<path content="1,秋田中央交通（株）,フローラ号,1.0,1.0,1.0," xlink:title="1" d="M14111.9385,-3913.2977L14111.9281,-3913.2391L14111.9229,-3913.2055L14111.9229,-3913.2055L14111.9229,-3913.2054L14111.9229,-3913.2054L14111.9229,-3913.2053L14111.9229,-3913.2053L14111.9229,-3913.2053L14111.9229,-3913.2053L14111.9229,-3913.2052L14111.9229,-3913.2052L14111.9229,-3913.2052L14111.9229,-3913.2052L14111.9229,-3913.2051L14111.9229,-3913.2051L14111.9229,-3913.205L14111.9227,-3913.2043L14111.9227,-3913.2042L14111.9227,-3913.2042L14111.9065,-3913.0972L14111.8922,-3913.0173L14111.8876,-3912.9918L14111.8727,-3912.8762L14111.8702,-3912.8543L14111.8673,-3912.8293L14111.8658,-3912.818L14111.8626,-3912.792L14111.8596,-3912.7585L14111.8581,-3912.7417L14111.8531,-3912.6584L14111.8531,-3912.6584L14111.8531,-3912.6583L14111.8518,-3912.6344L14111.8518,-3912.6334L14111.8518,-3912.6334L14111.8518,-3912.6333L14111.8517,-3912.6325L14111.851,-3912.6183L14111.851,-3912.6182L14111.851,-3912.6182L14111.851,-3912.6182L14111.851,-3912.6182L14111.851,-3912.6182L14111.85,-3912.5793L14111.85,-3912.5793L14111.85,-3912.5793L14111.85,-3912.5793L14111.85,-3912.579L14111.8499,-3912.5778L14111.8499,-3912.5758L14111.847,-3912.4635L14111.8492,-3912.4417L14111.8513,-3912.4224L14111.8537,-3912.3516L14111.8538,-3912.3463L14111.855,-3912.3137L14111.8561,-3912.2954L14111.857,-3912.279L14111.8592,-3912.2417L14111.8592,-3912.2405L14111.8593,-3912.2397L14111.86,-3912.2314"/>
<path content="1,秋田中央交通（株）,仙秋号,4.0,4.0,4.0," xlink:title="1" d="M14111.9385,-3913.2977L14111.9281,-3913.2391L14111.9229,-3913.2055L14111.9229,-3913.2055L14111.9229,-3913.2054L14111.9229,-3913.2054L14111.9229,-3913.2053L14111.9229,-3913.2053L14111.9229,-3913.2053L14111.9229,-3913.2053L14111.9229,-3913.2052L14111.9229,-3913.2052L14111.9229,-3913.2052L14111.9229,-3913.2052L14111.9229,-3913.2051L14111.9229,-3913.2051L14111.9229,-3913.205L14111.9227,-3913.2043L14111.9227,-3913.2042L14111.9227,-3913.2042L14111.9065,-3913.0972L14111.8922,-3913.0173L14111.8876,-3912.9918L14111.8727,-3912.8762L14111.8702,-3912.8543L14111.8673,-3912.8293L14111.8658,-3912.818L14111.8626,-3912.792L14111.8596,-3912.7585L14111.8581,-3912.7417L14111.8531,-3912.6584L14111.8531,-3912.6584L14111.8531,-3912.6583L14111.8518,-3912.6344L14111.8518,-3912.6334L14111.8518,-3912.6334L14111.8518,-3912.6333L14111.8517,-3912.6325L14111.851,-3912.6183L14111.851,-3912.6182L14111.851,-3912.6182L14111.851,-3912.6182L14111.851,-3912.6182L14111.851,-3912.6182L14111.85,-3912.5793L14111.85,-3912.5793L14111.85,-3912.5793L14111.85,-3912.5793L14111.85,-3912.579L14111.8499,-3912.5778L14111.8499,-3912.5758L14111.847,-3912.4635L14111.8492,-3912.4417L14111.8513,-3912.4224L14111.8537,-3912.3516L14111.8538,-3912.3463L14111.855,-3912.3137L14111.8561,-3912.2954L14111.857,-3912.279L14111.8592,-3912.2417L14111.8592,-3912.2405L14111.8593,-3912.2397L14111.86,-3912.2314"/>
<path content="1,羽後交通（株）,グリーンライナー号,4.0,4.0,4.0," xlink:title="1" d="M14111.86,-3912.2314L14111.8593,-3912.2397L14111.8592,-3912.2405L14111.8592,-3912.2417L14111.857,-3912.279L14111.8561,-3912.2954L14111.855,-3912.3137L14111.8538,-3912.3463L14111.8537,-3912.3516L14111.8513,-3912.4224L14111.8492,-3912.4417L14111.847,-3912.4635L14111.8499,-3912.5758L14111.8499,-3912.5778L14111.85,-3912.579L14111.85,-3912.5793L14111.85,-3912.5793L14111.85,-3912.5793L14111.85,-3912.5793L14111.851,-3912.6182L14111.851,-3912.6182L14111.851,-3912.6182L14111.851,-3912.6182L14111.851,-3912.6182L14111.851,-3912.6183L14111.8517,-3912.6325L14111.8518,-3912.6333L14111.8518,-3912.6334L14111.8518,-3912.6334L14111.8518,-3912.6344L14111.8531,-3912.6583L14111.8531,-3912.6584L14111.8531,-3912.6584L14111.8581,-3912.7417L14111.8596,-3912.7585L14111.8626,-3912.792L14111.8658,-3912.818L14111.8673,-3912.8293L14111.8702,-3912.8543L14111.8727,-3912.8762L14111.8876,-3912.9918L14111.8922,-3913.0173L14111.9065,-3913.0972L14111.9227,-3913.2042L14111.9227,-3913.2042L14111.9227,-3913.2043L14111.9229,-3913.205L14111.9229,-3913.2051L14111.9229,-3913.2051L14111.9229,-3913.2052L14111.9229,-3913.2052L14111.9229,-3913.2052L14111.9229,-3913.2052L14111.9229,-3913.2053L14111.9229,-3913.2053L14111.9229,-3913.2053L14111.9229,-3913.2053L14111.9229,-3913.2054L14111.9229,-3913.2054L14111.9229,-3913.2055L14111.9229,-3913.2055L14111.9281,-3913.2391L14111.9385,-3913.2977"/>
<path content="1,羽後交通（株）,レーク＆ポート号,1.0,1.0,1.0," xlink:title="1" d="M14111.9385,-3913.2977L14111.9281,-3913.2391L14111.9229,-3913.2055L14111.9229,-3913.2055L14111.9229,-3913.2054L14111.9229,-3913.2054L14111.9229,-3913.2053L14111.9229,-3913.2053L14111.9229,-3913.2053L14111.9229,-3913.2053L14111.9229,-3913.2052L14111.9229,-3913.2052L14111.9229,-3913.2052L14111.9229,-3913.2052L14111.9229,-3913.2051L14111.9229,-3913.2051L14111.9229,-3913.205L14111.9227,-3913.2043L14111.9227,-3913.2042L14111.9227,-3913.2042L14111.9065,-3913.0972L14111.8922,-3913.0173L14111.8876,-3912.9918L14111.8727,-3912.8762L14111.8702,-3912.8543L14111.8673,-3912.8293L14111.8658,-3912.818L14111.8626,-3912.792L14111.8596,-3912.7585L14111.8581,-3912.7417L14111.8531,-3912.6584L14111.8531,-3912.6584L14111.8531,-3912.6583L14111.8518,-3912.6344L14111.8518,-3912.6334L14111.8518,-3912.6334L14111.8518,-3912.6333L14111.8517,-3912.6325L14111.851,-3912.6183L14111.851,-3912.6182L14111.851,-3912.6182L14111.851,-3912.6182L14111.851,-3912.6182L14111.851,-3912.6182L14111.85,-3912.5793L14111.85,-3912.5793L14111.85,-3912.5793L14111.85,-3912.5793L14111.85,-3912.579L14111.8499,-3912.5778L14111.8499,-3912.5758L14111.847,-3912.4635L14111.8492,-3912.4417L14111.8513,-3912.4224L14111.8537,-3912.3516L14111.8538,-3912.3463L14111.855,-3912.3137L14111.8561,-3912.2954L14111.857,-3912.279L14111.8592,-3912.2417L14111.8592,-3912.2405L14111.8593,-3912.2397L14111.86,-3912.2314"/>
<path content="3,奥州市,見分森線,1.6,4.0,0.0," xlink:title="3" d="M14111.2701,-3912.2314L14111.287,-3912.2432L14111.3049,-3912.2489L14111.4047,-3912.3052L14111.5058,-3912.3559L14111.5174,-3912.3604L14111.5904,-3912.3841L14111.659,-3912.3993L14111.7306,-3912.4167L14111.7925,-3912.4295L14111.8492,-3912.4417L14111.8493,-3912.4417L14111.8493,-3912.4417L14111.9019,-3912.4531L14111.9385,-3912.4604"/>
</g>
</svg>
