<?xml version="1.0" encoding="UTF-8"?>
<svg  xmlns="http://www.w3.org/2000/svg" xmlns:xlink="http://www.w3.org/1999/xlink" xmlns:go="http://purl.org/svgmap/profile" property="N07_001,N07_002,N07_003,N07_004,N07_005,N07_006,N07_007" viewBox="13921.875 -3550.78125 8.7890625 8.7890625" go:dataArea="13921.875 -3550.78125 8.7890625 8.7890625" >
<metadata>
 <rdf:RDF xmlns:rdf="http://www.w3.org/1999/02/22-rdf-syntax-ns#" xmlns:crs="http://opengis.org/xmldtds/transformations.dtd" xmlns:svg="http://www.w3.org/svg" >
  <rdf:Description>
   <crs:CoordinateReferenceSystem rdf:resource="http://purl.org/crs/84" svg:transform="matrix(100.0,0.0,0.0,-100.0,0.0,0.0)" />
  </rdf:Description>
 </rdf:RDF>
</metadata>
<globalCoordinateSystem srsName="http://purl.org/crs/84" transform="matrix(100.0,0.0,0.0,-100.0,0.0,0.0)" />
<defs>
 <g id="p0" >
  <circle cx="0.0" cy="0.0" r="3" stroke="green" stroke-width="0.75" vector-effect="non-scaling-stroke" />
 </g>
</defs>
<g fill="none" fill-rule="evenodd" stroke="#FF00FF" stroke-width="0.75" opacity="0.5" vector-effect="non-scaling-stroke" stroke-linejoin="bevel" >
<path content="1,神奈川中央交通（株）,伊・10,41.5,41.5,43.0," xlink:title="1" d="M13925.5631,-3541.9922L13925.5626,-3541.9928L13925.5449,-3542.0215L13925.5366,-3542.0446L13925.527,-3542.0582L13925.5076,-3542.0796L13925.4905,-3542.0993L13925.4596,-3542.1336L13925.4509,-3542.1439L13925.4416,-3542.1539L13925.4272,-3542.1719L13925.4128,-3542.1798L13925.3322,-3542.2261L13925.313,-3542.2362L13925.2848,-3542.2486L13925.2345,-3542.2644L13925.1902,-3542.2785L13925.165,-3542.2908L13925.1349,-3542.3086L13925.1166,-3542.3228L13925.0909,-3542.3401L13925.0731,-3542.3502L13925.0471,-3542.364L13925.0257,-3542.3731L13925.0064,-3542.3794L13924.9882,-3542.3843L13924.9661,-3542.3902L13924.9465,-3542.3949L13924.9289,-3542.4014L13924.9158,-3542.4077L13924.9096,-3542.4131L13924.9131,-3542.4323L13924.9126,-3542.4417L13924.905,-3542.4481L13924.8883,-3542.4463L13924.8666,-3542.4477L13924.845,-3542.4537L13924.8197,-3542.4584"/>
<path content="1,神奈川中央交通（株）,伊・17,5.0,3.0,0.0," xlink:title="1" d="M13925.5631,-3541.9922L13925.5626,-3541.9928L13925.5449,-3542.0215L13925.5366,-3542.0446L13925.527,-3542.0582L13925.5076,-3542.0796L13925.4905,-3542.0993L13925.4596,-3542.1336L13925.4509,-3542.1439L13925.4416,-3542.1539L13925.4272,-3542.1719L13925.4128,-3542.1798L13925.3322,-3542.2261L13925.313,-3542.2362L13925.2848,-3542.2486L13925.2345,-3542.2644L13925.1902,-3542.2785L13925.165,-3542.2908L13925.1349,-3542.3086L13925.1166,-3542.3228L13925.0909,-3542.3401L13925.0731,-3542.3502L13925.0471,-3542.364L13925.0257,-3542.3731L13925.0064,-3542.3794L13924.9882,-3542.3843L13924.9661,-3542.3902L13924.9465,-3542.3949L13924.9289,-3542.4014L13924.9158,-3542.4077L13924.9096,-3542.4131L13924.9131,-3542.4323L13924.9126,-3542.4417L13924.905,-3542.4481L13924.8883,-3542.4463L13924.8666,-3542.4477L13924.845,-3542.4537L13924.8197,-3542.4584"/>
<path content="1,神奈川中央交通（株）,伊・20,29.5,36.5,36.0," xlink:title="1" d="M13929.6477,-3541.9922L13929.6469,-3541.9929L13929.6421,-3541.9983L13929.6294,-3542.0128L13929.565,-3542.0758L13929.5368,-3542.1056L13929.5196,-3542.127L13929.4515,-3542.256L13929.4453,-3542.2701L13929.4425,-3542.2785L13929.4383,-3542.2921L13929.4205,-3542.3338L13929.329,-3542.4616L13929.3269,-3542.4695L13929.3276,-3542.5044L13929.329,-3542.5321L13929.3276,-3542.5399L13929.3166,-3542.5692L13929.2822,-3542.6205L13929.2422,-3542.6774L13929.2312,-3542.6954L13929.2216,-3542.714L13929.2195,-3542.7258L13929.2188,-3542.7647L13929.2202,-3542.7934L13929.2195,-3542.8148L13929.2099,-3542.8486L13929.1975,-3542.8706L13929.17,-3542.9106L13929.1627,-3542.9211L13929.1459,-3542.9388L13929.1307,-3542.954L13929.1231,-3542.961L13929.1129,-3542.9675L13929.0716,-3542.985L13929.0516,-3542.9968L13929.0364,-3543.0103L13929.0137,-3543.0492L13929.0096,-3543.0605L13928.9903,-3543.0954L13928.9834,-3543.105L13928.9779,-3543.1106L13928.9649,-3543.1208L13928.9585,-3543.1271L13928.9449,-3543.1298L13928.8898,-3543.1427L13928.883,-3543.1444L13928.8513,-3543.1501L13928.817,-3543.1584L13928.7898,-3543.1684L13928.7703,-3543.1837L13928.7566,-3543.2031L13928.7501,-3543.2247L13928.7418,-3543.2724L13928.7293,-3543.3127L13928.708,-3543.3396L13928.6818,-3543.3608L13928.6681,-3543.3737L13928.6363,-3543.3991L13928.6135,-3543.4159L13928.5955,-3543.421L13928.5186,-3543.4416L13928.4433,-3543.461L13928.4001,-3543.4734L13928.3451,-3543.487L13928.2856,-3543.5018L13928.257,-3543.506L13928.2345,-3543.5106L13928.2142,-3543.5143L13928.2,-3543.5133L13928.1656,-3543.5103L13928.1176,-3543.5079L13928.0977,-3543.5078L13928.0795,-3543.5099L13928.0572,-3543.5193L13928.0467,-3543.5331L13928.0393,-3543.5645L13927.9882,-3543.572L13927.9545,-3543.5759L13927.8561,-3543.5866L13927.8485,-3543.5883L13927.8327,-3543.59L13927.7989,-3543.5895L13927.791,-3543.5872L13927.7776,-3543.5799L13927.7508,-3543.5653L13927.7301,-3543.5551L13927.7191,-3543.5523L13927.7019,-3543.5534"/>
<path content="1,神奈川中央交通（株）,伊・22,2.5,3.0,3.0," xlink:title="1" d="M13929.5986,-3541.9922L13929.5997,-3541.9929L13929.6294,-3542.0128L13929.565,-3542.0758L13929.5368,-3542.1056L13929.5196,-3542.127L13929.4515,-3542.256L13929.4453,-3542.2701L13929.4425,-3542.2785L13929.4383,-3542.2921L13929.4205,-3542.3338L13929.329,-3542.4616L13929.3269,-3542.4695L13929.3276,-3542.5044L13929.329,-3542.5321L13929.3276,-3542.5399L13929.3166,-3542.5692L13929.2822,-3542.6205L13929.2422,-3542.6774L13929.2312,-3542.6954L13929.2216,-3542.714L13929.2195,-3542.7258L13929.2188,-3542.7647L13929.2202,-3542.7934L13929.2195,-3542.8148L13929.2099,-3542.8486L13929.1975,-3542.8706L13929.17,-3542.9106L13929.1627,-3542.9211L13929.1459,-3542.9388L13929.1307,-3542.954L13929.1231,-3542.961L13929.1129,-3542.9675L13929.0716,-3542.985L13929.0516,-3542.9968L13929.0364,-3543.0103L13929.0137,-3543.0492L13929.0096,-3543.0605L13928.9903,-3543.0954L13928.9834,-3543.105L13928.9779,-3543.1106L13928.9649,-3543.1208L13928.9585,-3543.1271L13928.9449,-3543.1298L13928.8898,-3543.1427L13928.883,-3543.1444L13928.8513,-3543.1501L13928.817,-3543.1584L13928.7898,-3543.1684L13928.7703,-3543.1837L13928.7566,-3543.2031L13928.7501,-3543.2247L13928.7418,-3543.2724L13928.7293,-3543.3127L13928.708,-3543.3396L13928.6818,-3543.3608L13928.6681,-3543.3737L13928.6363,-3543.3991L13928.6135,-3543.4159L13928.5955,-3543.421L13928.5186,-3543.4416L13928.4433,-3543.461L13928.4001,-3543.4734L13928.3451,-3543.487L13928.2856,-3543.5018L13928.257,-3543.506L13928.2345,-3543.5106L13928.2142,-3543.5143L13928.2,-3543.5133L13928.1656,-3543.5103L13928.1176,-3543.5079L13928.0977,-3543.5078L13928.0795,-3543.5099L13928.0572,-3543.5193L13928.0467,-3543.5331L13928.0393,-3543.5645L13927.9882,-3543.572L13927.9545,-3543.5759L13927.8561,-3543.5866L13927.8485,-3543.5883L13927.8327,-3543.59L13927.7989,-3543.5895L13927.791,-3543.5872L13927.7776,-3543.5799L13927.7508,-3543.5653L13927.7301,-3543.5551L13927.7191,-3543.5523L13927.7019,-3543.5534"/>
<path content="1,神奈川中央交通（株）,伊・23,5.5,5.0,5.0," xlink:title="1" d="M13929.6477,-3541.9922L13929.6469,-3541.9929L13929.6421,-3541.9983L13929.6294,-3542.0128L13929.565,-3542.0758L13929.5155,-3542.0588L13929.4859,-3542.0492L13929.4363,-3542.034L13929.4047,-3542.0256L13929.3599,-3542.0183L13929.32,-3542.0132L13929.2808,-3542.0109L13929.2671,-3542.0109L13929.2454,-3542.0109L13929.2223,-3542.0109L13929.1948,-3542.0154L13929.1394,-3542.0259L13929.1287,-3542.0289L13929.0977,-3542.0366L13929.0896,-3542.0381L13929.0722,-3542.0413L13929.0488,-3542.0408L13929.0302,-3542.0374L13929.0227,-3542.0346L13929.0062,-3542.0205L13928.9875,-3541.9929L13928.9872,-3541.9922"/>
<path content="1,神奈川中央交通（株）,伊・31,4.5,4.5,4.5," xlink:title="1" d="M13930.2291,-3541.9922L13930.2291,-3541.9929L13930.2292,-3542.0346L13930.2306,-3542.0599L13930.232,-3542.0723L13930.232,-3542.1321L13930.2306,-3542.1467L13930.2292,-3542.2008L13930.2278,-3542.207L13930.2265,-3542.2295L13930.2251,-3542.2369L13930.2209,-3542.2954L13930.2182,-3542.3084L13930.2147,-3542.3281L13930.2114,-3542.3373L13930.2078,-3542.3436L13930.1976,-3542.3614L13930.1914,-3542.376L13930.17,-3542.4138L13930.1644,-3542.4226L13930.1583,-3542.4295L13930.1363,-3542.4622L13930.1115,-3542.4954L13930.0874,-3542.5304L13930.0413,-3542.6047L13930.0369,-3542.6152L13930.0255,-3542.6419L13930.0124,-3542.6887L13930.0097,-3542.6994L13930.0035,-3542.7146L13929.9883,-3542.7631L13929.967,-3542.8222L13929.9388,-3542.8864L13929.9201,-3542.9214L13929.9197,-3542.9307L13929.9112,-3542.9383L13929.9057,-3542.9586L13929.8761,-3543.0368L13929.8672,-3543.0566L13929.8514,-3543.0808L13929.8424,-3543.1016L13929.8376,-3543.1146L13929.8341,-3543.1259L13929.8286,-3543.1394L13929.8073,-3543.1957L13929.8004,-3543.2222L13929.7979,-3543.2448L13929.799,-3543.2673L13929.8046,-3543.2932L13929.8071,-3543.3054L13929.8107,-3543.3118L13929.8163,-3543.3242L13929.8634,-3543.4299L13929.8885,-3543.4904L13929.8992,-3543.5173L13929.9032,-3543.5258L13929.9188,-3543.5636L13929.9443,-3543.625L13929.9456,-3543.6442L13929.9505,-3543.6735L13929.9594,-3543.7039L13929.967,-3543.7202L13929.9773,-3543.7343L13929.9904,-3543.7462L13929.9973,-3543.7498L13930.0149,-3543.7528L13930.042,-3543.7546L13930.0606,-3543.7546L13930.0695,-3543.7557L13930.0929,-3543.7619L13930.1074,-3543.7692L13930.1239,-3543.7822L13930.1342,-3543.7929L13930.1432,-3543.807L13930.1533,-3543.8364L13930.1552,-3543.8565L13930.1566,-3543.8792L13930.1583,-3543.8943L13930.1611,-3543.9236L13930.162,-3543.9329L13930.1652,-3543.9642L13930.1659,-3543.9924L13930.1569,-3544.0177L13930.1404,-3544.0402L13930.1081,-3544.0757L13930.0406,-3544.14L13930.0276,-3544.1513L13929.9587,-3544.2092L13929.9438,-3544.2226L13929.9179,-3544.2432"/>
<path content="1,神奈川中央交通（株）,伊・31,4.5,4.5,4.5," xlink:title="1" d="M13929.9179,-3544.2432L13929.861,-3544.1895L13929.8465,-3544.1766L13929.766,-3544.1022L13929.7529,-3544.0999L13929.7357,-3544.0982L13929.7226,-3544.0982L13929.7061,-3544.0954L13929.6855,-3544.0926L13929.6759,-3544.0909L13929.6394,-3544.0876L13929.5919,-3544.0831L13929.5809,-3544.0808L13929.5712,-3544.0718L13929.5234,-3544.0328"/>
<path content="1,神奈川中央交通（株）,伊・31,4.5,4.5,4.5," xlink:title="1" d="M13929.9179,-3544.2432L13929.892,-3544.2696L13929.8747,-3544.2881L13929.8355,-3544.327L13929.8046,-3544.3647L13929.7478,-3544.4268L13929.735,-3544.4408L13929.7164,-3544.4594L13929.6772,-3544.4988L13929.6665,-3544.5127L13929.68,-3544.5456L13929.6985,-3544.6211L13929.7006,-3544.6357L13929.6992,-3544.6515L13929.6972,-3544.6633L13929.6917,-3544.6825L13929.6813,-3544.7016L13929.6669,-3544.7197L13929.6476,-3544.7383L13929.6258,-3544.7576L13929.6049,-3544.776L13929.5816,-3544.8025L13929.565,-3544.834L13929.5598,-3544.8451L13929.5401,-3544.9075L13929.5322,-3544.9354L13929.524,-3544.958L13929.5204,-3544.968L13929.5112,-3544.9913L13929.4797,-3545.0898L13929.4799,-3545.1071L13929.4746,-3545.119L13929.472,-3545.1267L13929.4833,-3545.1408L13929.4859,-3545.167L13929.4831,-3545.1884L13929.4804,-3545.1991L13929.4652,-3545.2673L13929.468,-3545.2881L13929.4701,-3545.3106L13929.4701,-3545.3253L13929.4645,-3545.3332L13929.4591,-3545.3373L13929.415,-3545.3799L13929.407,-3545.3916L13929.4026,-3545.398L13929.3957,-3545.4064L13929.3785,-3545.4205L13929.3482,-3545.4403L13929.309,-3545.4599L13929.3007,-3545.4654"/>
<path content="1,神奈川中央交通（株）,伊・34,11.5,11.5,11.5," xlink:title="1" d="M13930.3345,-3541.9922L13930.3349,-3541.9929L13930.3545,-3542.0341L13930.4047,-3542.1535L13930.4103,-3542.1667L13930.4168,-3542.1789L13930.4447,-3542.2132L13930.455,-3542.2335L13930.4605,-3542.2391L13930.4708,-3542.2419L13930.5224,-3542.2436L13930.541,-3542.2442L13930.5488,-3542.2459L13930.5524,-3542.2601L13930.5539,-3542.271"/>
<path content="1,神奈川中央交通（株）,伊・34,11.5,11.5,11.5," xlink:title="1" d="M13930.2291,-3541.9922L13930.2291,-3541.9929L13930.2292,-3542.0346L13930.2306,-3542.0599L13930.232,-3542.0723L13930.232,-3542.1321L13930.2306,-3542.1467L13930.2292,-3542.2008L13930.2278,-3542.207L13930.2265,-3542.2295L13930.2251,-3542.2369L13930.2209,-3542.2954L13930.2182,-3542.3084L13930.2147,-3542.3281L13930.2114,-3542.3373L13930.2078,-3542.3436L13930.1976,-3542.3614L13930.1914,-3542.376L13930.17,-3542.4138L13930.1644,-3542.4226L13930.1583,-3542.4295L13930.1363,-3542.4622L13930.1115,-3542.4954L13930.0874,-3542.5304L13930.0413,-3542.6047L13930.0369,-3542.6152L13930.0255,-3542.6419L13930.0124,-3542.6887L13930.0097,-3542.6994L13930.0035,-3542.7146L13929.9883,-3542.7631L13929.967,-3542.8222L13929.9388,-3542.8864L13929.9201,-3542.9214L13929.9197,-3542.9307L13929.9112,-3542.9383L13929.9057,-3542.9586L13929.8761,-3543.0368L13929.8672,-3543.0566L13929.8514,-3543.0808L13929.8424,-3543.1016L13929.8376,-3543.1146L13929.8341,-3543.1259L13929.8286,-3543.1394L13929.8073,-3543.1957L13929.8004,-3543.2222L13929.7979,-3543.2448L13929.799,-3543.2673L13929.8046,-3543.2932L13929.8071,-3543.3054L13929.8107,-3543.3118L13929.8163,-3543.3242L13929.8634,-3543.4299L13929.8885,-3543.4904L13929.8992,-3543.5173L13929.9032,-3543.5258L13929.9188,-3543.5636L13929.9443,-3543.625L13929.9456,-3543.6442L13929.9505,-3543.6735L13929.9594,-3543.7039L13929.967,-3543.7202L13929.9773,-3543.7343L13929.9904,-3543.7462L13929.9973,-3543.7498L13930.0149,-3543.7528L13930.042,-3543.7546L13930.0606,-3543.7546L13930.0695,-3543.7557L13930.0929,-3543.7619L13930.1074,-3543.7692L13930.1239,-3543.7822L13930.1342,-3543.7929L13930.1432,-3543.807L13930.1533,-3543.8364L13930.1552,-3543.8565L13930.1566,-3543.8792L13930.1583,-3543.8943L13930.1611,-3543.9236L13930.162,-3543.9329L13930.1652,-3543.9642L13930.1659,-3543.9924L13930.1569,-3544.0177L13930.1404,-3544.0402L13930.1081,-3544.0757L13930.0406,-3544.14L13930.0276,-3544.1513L13929.9587,-3544.2092L13929.9438,-3544.2226L13929.9179,-3544.2432"/>
<path content="1,神奈川中央交通（株）,伊・34,11.5,11.5,11.5," xlink:title="1" d="M13929.9179,-3544.2432L13929.861,-3544.1895L13929.8465,-3544.1766L13929.766,-3544.1022L13929.7529,-3544.0999L13929.7357,-3544.0982L13929.7226,-3544.0982L13929.7061,-3544.0954L13929.6855,-3544.0926L13929.6759,-3544.0909L13929.6394,-3544.0876L13929.5919,-3544.0831L13929.5809,-3544.0808L13929.5712,-3544.0718L13929.5234,-3544.0328"/>
<path content="1,神奈川中央交通（株）,伊・34,11.5,11.5,11.5," xlink:title="1" d="M13929.9179,-3544.2432L13929.892,-3544.2696L13929.8747,-3544.2881L13929.8355,-3544.327L13929.8046,-3544.3647L13929.7478,-3544.4268L13929.735,-3544.4408L13929.7164,-3544.4594L13929.6772,-3544.4988L13929.6665,-3544.5127L13929.68,-3544.5456L13929.6985,-3544.6211L13929.7006,-3544.6357L13929.6992,-3544.6515L13929.6972,-3544.6633L13929.6917,-3544.6825L13929.6813,-3544.7016L13929.6669,-3544.7197L13929.6476,-3544.7383L13929.6258,-3544.7576L13929.6049,-3544.776L13929.5816,-3544.8025L13929.565,-3544.834L13929.5598,-3544.8451L13929.5401,-3544.9075L13929.5322,-3544.9354L13929.524,-3544.958L13929.5204,-3544.968L13929.5112,-3544.9913L13929.4797,-3545.0898L13929.4799,-3545.1071L13929.4746,-3545.119L13929.472,-3545.1267L13929.4833,-3545.1408L13929.4859,-3545.167L13929.4831,-3545.1884L13929.4804,-3545.1991L13929.4652,-3545.2673L13929.468,-3545.2881L13929.4701,-3545.3106L13929.4701,-3545.3253L13929.4645,-3545.3332L13929.4591,-3545.3373L13929.415,-3545.3799L13929.407,-3545.3916L13929.4026,-3545.398L13929.3957,-3545.4064L13929.3785,-3545.4205L13929.3482,-3545.4403L13929.309,-3545.4599L13929.3007,-3545.4654"/>
<path content="1,神奈川中央交通（株）,厚18,17.0,16.0,16.0," xlink:title="1" d="M13930.6641,-3547.9195L13930.6139,-3547.9749L13930.607,-3547.9806L13930.5977,-3547.9875L13930.5866,-3547.9953L13930.5678,-3548.0088L13930.5511,-3548.0227L13930.5432,-3548.0309L13930.4556,-3548.1045L13930.4474,-3548.1096L13930.4143,-3548.1355L13930.4102,-3548.1383L13930.4037,-3548.1434L13930.3895,-3548.1547L13930.3826,-3548.1673L13930.3692,-3548.1946L13930.3276,-3548.26L13930.3049,-3548.2899L13930.2822,-3548.3124L13930.2691,-3548.3214L13930.2519,-3548.331L13930.2429,-3548.338"/>
<path content="1,神奈川中央交通（株）,厚19,8.0,1.5,1.5," xlink:title="1" d="M13930.6641,-3547.9195L13930.6139,-3547.9749L13930.607,-3547.9806L13930.5977,-3547.9875L13930.5866,-3547.9953L13930.5678,-3548.0088L13930.5511,-3548.0227L13930.5432,-3548.0309L13930.4556,-3548.1045L13930.4474,-3548.1096L13930.4143,-3548.1355L13930.4102,-3548.1383L13930.4037,-3548.1434L13930.3895,-3548.1547L13930.3826,-3548.1673L13930.3692,-3548.1946L13930.3276,-3548.26L13930.3049,-3548.2899L13930.2822,-3548.3124L13930.2691,-3548.3214L13930.2519,-3548.331L13930.2429,-3548.338L13930.234,-3548.3378L13930.2044,-3548.3428L13930.1693,-3548.3439L13930.1535,-3548.3406L13930.139,-3548.3344L13930.1108,-3548.3163L13930.0344,-3548.2594L13930.0082,-3548.242L13929.9814,-3548.2273L13929.9614,-3548.2183L13929.9332,-3548.2099L13929.9126,-3548.2065L13929.8885,-3548.2042L13929.8245,-3548.2042L13929.6992,-3548.2093L13929.6648,-3548.211L13929.6242,-3548.211L13929.6042,-3548.2076L13929.5966,-3548.2042L13929.5856,-3548.1974L13929.5815,-3548.1958L13929.5616,-3548.1794L13929.5285,-3548.1417L13929.5051,-3548.1074L13929.4933,-3548.0999L13929.4921,-3548.0668L13929.4934,-3548.0583L13929.5011,-3548.0377L13929.5073,-3548.0025L13929.5063,-3547.9864L13929.494,-3547.9661L13929.4636,-3547.9364L13929.4205,-3547.9L13929.3716,-3547.8476L13929.3427,-3547.8041L13929.3286,-3547.7778L13929.3019,-3547.7092L13929.3011,-3547.694L13929.3051,-3547.6807L13929.3241,-3547.6628L13929.3612,-3547.6318L13929.3644,-3547.6201L13929.3688,-3547.6093L13929.375,-3547.5907L13929.3881,-3547.5642L13929.3929,-3547.5507L13929.4101,-3547.5152L13929.4315,-3547.4842L13929.4638,-3547.4402L13929.4769,-3547.4239L13929.4872,-3547.4036L13929.4955,-3547.3822L13929.4955,-3547.3614L13929.4921,-3547.3428L13929.4817,-3547.3123L13929.4666,-3547.2723L13929.4638,-3547.265L13929.4625,-3547.2625L13929.4543,-3547.2495L13929.4453,-3547.2414L13929.4349,-3547.2351L13929.4246,-3547.2312L13929.4115,-3547.2295L13929.3943,-3547.2301L13929.3386,-3547.2402L13929.307,-3547.2456L13929.2928,-3547.2492L13929.2381,-3547.2566L13929.2092,-3547.2594L13929.1892,-3547.2599L13929.1624,-3547.2588L13929.1238,-3547.2532L13929.0763,-3547.2453L13929.0557,-3547.2414L13929.0048,-3547.2323L13928.9848,-3547.2284L13928.9724,-3547.2289L13928.9586,-3547.2306L13928.9243,-3547.2409L13928.9132,-3547.2442L13928.8643,-3547.2611L13928.8526,-3547.2644L13928.8203,-3547.2656L13928.7811,-3547.2594L13928.7453,-3547.2526L13928.706,-3547.2464L13928.693,-3547.2483L13928.6647,-3547.2447L13928.6483,-3547.2459L13928.6303,-3547.2492L13928.6014,-3547.2577L13928.556,-3547.2757L13928.5278,-3547.2932L13928.5195,-3547.2999L13928.514,-3547.3062L13928.5099,-3547.3152L13928.5037,-3547.336L13928.5009,-3547.3586L13928.4913,-3547.4109L13928.4837,-3547.4289L13928.472,-3547.4504L13928.4782,-3547.465L13928.4796,-3547.4819L13928.4782,-3547.5146L13928.4713,-3547.5461L13928.4693,-3547.5552L13928.4658,-3547.5625L13928.4596,-3547.5715L13928.4543,-3547.5775L13928.4431,-3547.5901L13928.4349,-3547.5982L13928.4232,-3547.607L13928.4146,-3547.6128L13928.4017,-3547.6185L13928.3867,-3547.6256L13928.3502,-3547.6357L13928.3406,-3547.6391L13928.3096,-3547.6487L13928.2786,-3547.6509L13928.2449,-3547.6751L13928.1651,-3547.7299L13928.1596,-3547.7336L13928.1512,-3547.7394L13928.1444,-3547.7444L13928.1279,-3547.7568L13928.1176,-3547.7659L13928.1066,-3547.7749L13928.1011,-3547.7805L13928.0969,-3547.7912L13928.0962,-3547.8008L13928.1015,-3547.8462L13928.1026,-3547.8738L13928.1003,-3547.8842L13928.0949,-3547.8921L13928.0872,-3547.8983L13928.0549,-3547.9169L13928.0343,-3547.9338L13928.0198,-3547.9422L13927.9915,-3547.956L13927.973,-3547.9679L13927.9517,-3547.9828L13927.9235,-3548.003L13927.9193,-3548.007L13927.9069,-3548.0205L13927.8939,-3548.038L13927.8724,-3548.0624L13927.8581,-3548.0763L13927.8488,-3548.0848L13927.8071,-3548.115L13927.8023,-3548.1186L13927.7934,-3548.1258L13927.787,-3548.1321L13927.7783,-3548.1397L13927.7644,-3548.1535L13927.7514,-3548.1698L13927.7452,-3548.1805L13927.7397,-3548.1923L13927.7245,-3548.2244L13927.7156,-3548.238L13927.7056,-3548.2476L13927.6894,-3548.2588L13927.6282,-3548.287L13927.6213,-3548.2915L13927.6103,-3548.2994L13927.5938,-3548.3107L13927.5401,-3548.3507L13927.516,-3548.3676L13927.4795,-3548.3884L13927.4458,-3548.407L13927.4073,-3548.4252L13927.3651,-3548.4438L13927.3597,-3548.4504L13927.3487,-3548.4611L13927.3419,-3548.4729L13927.3308,-3548.5016L13927.3164,-3548.518L13927.2462,-3548.5828L13927.2372,-3548.5957L13927.2317,-3548.6132L13927.2314,-3548.6151L13927.2303,-3548.6211L13927.2243,-3548.632L13927.2186,-3548.6684L13927.2076,-3548.6949L13927.1946,-3548.714L13927.187,-3548.7332L13927.1849,-3548.7456L13927.1829,-3548.7704L13927.1787,-3548.7856L13927.1698,-3548.8025L13927.1526,-3548.8267L13927.145,-3548.8532L13927.1402,-3548.8763L13927.1312,-3548.9005L13927.1079,-3548.9281L13927.0858,-3548.9518L13927.075,-3548.9642L13927.0755,-3548.9721L13927.0748,-3548.9761L13927.0679,-3549.0149L13927.0597,-3549.034L13927.0507,-3549.0459L13927.0342,-3549.0622L13927.0266,-3549.0729L13927.0184,-3549.096L13927.0087,-3549.1259L13926.9977,-3549.1535L13926.988,-3549.1672L13926.9716,-3549.1997L13926.9392,-3549.238L13926.911,-3549.2656L13926.8704,-3549.3101L13926.8504,-3549.3281L13926.8394,-3549.3366L13926.8002,-3549.358L13926.7823,-3549.3648L13926.7382,-3549.3755"/>
<path content="1,神奈川中央交通（株）,厚20,17.0,16.0,16.5," xlink:title="1" d="M13930.6641,-3547.9195L13930.6139,-3547.9749L13930.607,-3547.9806L13930.5977,-3547.9875L13930.5866,-3547.9953L13930.5678,-3548.0088L13930.5511,-3548.0227L13930.5432,-3548.0309L13930.4556,-3548.1045L13930.4474,-3548.1096L13930.4143,-3548.1355L13930.4102,-3548.1383L13930.4037,-3548.1434L13930.3895,-3548.1547L13930.3826,-3548.1673L13930.3692,-3548.1946L13930.3276,-3548.26L13930.3049,-3548.2899L13930.2822,-3548.3124L13930.2691,-3548.3214L13930.2519,-3548.331L13930.2429,-3548.338L13930.234,-3548.3378L13930.2044,-3548.3428L13930.1693,-3548.3439L13930.1535,-3548.3406L13930.139,-3548.3344L13930.1108,-3548.3163L13930.0344,-3548.2594L13930.0082,-3548.242L13929.9814,-3548.2273L13929.9614,-3548.2183L13929.9332,-3548.2099L13929.9126,-3548.2065L13929.8885,-3548.2042L13929.8245,-3548.2042L13929.6992,-3548.2093L13929.6648,-3548.211L13929.6242,-3548.211L13929.6042,-3548.2076L13929.5966,-3548.2042L13929.5856,-3548.1974L13929.5815,-3548.1958L13929.5616,-3548.1794L13929.5285,-3548.1417L13929.5051,-3548.1074L13929.4933,-3548.0999L13929.4921,-3548.0668L13929.4934,-3548.0583L13929.5011,-3548.0377L13929.5073,-3548.0025L13929.5063,-3547.9864L13929.494,-3547.9661L13929.4636,-3547.9364L13929.4205,-3547.9L13929.3716,-3547.8476L13929.3427,-3547.8041L13929.3286,-3547.7778L13929.3019,-3547.7092L13929.3011,-3547.694L13929.3051,-3547.6807L13929.3241,-3547.6628L13929.3612,-3547.6318L13929.3644,-3547.6201L13929.3688,-3547.6093L13929.375,-3547.5907L13929.3881,-3547.5642L13929.3929,-3547.5507L13929.4101,-3547.5152L13929.4315,-3547.4842L13929.4638,-3547.4402L13929.4769,-3547.4239L13929.4872,-3547.4036L13929.4955,-3547.3822L13929.4955,-3547.3614L13929.4921,-3547.3428L13929.4817,-3547.3123L13929.4666,-3547.2723L13929.4638,-3547.265L13929.4625,-3547.2625L13929.4543,-3547.2495L13929.4453,-3547.2414L13929.4349,-3547.2351L13929.4246,-3547.2312L13929.4115,-3547.2295L13929.3943,-3547.2301L13929.3386,-3547.2402L13929.307,-3547.2456L13929.2928,-3547.2492L13929.2381,-3547.2566L13929.2092,-3547.2594L13929.1892,-3547.2599L13929.1624,-3547.2588L13929.1238,-3547.2532L13929.0763,-3547.2453L13929.0557,-3547.2414L13929.0048,-3547.2323L13928.9848,-3547.2284L13928.9724,-3547.2289L13928.9586,-3547.2306L13928.9243,-3547.2409L13928.9132,-3547.2442L13928.8643,-3547.2611L13928.8526,-3547.2644L13928.8203,-3547.2656L13928.7811,-3547.2594L13928.7453,-3547.2526L13928.706,-3547.2464L13928.693,-3547.2483L13928.6647,-3547.2447L13928.6483,-3547.2459L13928.6303,-3547.2492L13928.6014,-3547.2577L13928.556,-3547.2757L13928.5278,-3547.2932L13928.5195,-3547.2999L13928.514,-3547.3062L13928.5099,-3547.3152L13928.5037,-3547.336L13928.5009,-3547.3586L13928.4913,-3547.4109L13928.4837,-3547.4289L13928.472,-3547.4504L13928.4782,-3547.465L13928.4796,-3547.4819L13928.4782,-3547.5146L13928.4713,-3547.5461L13928.4693,-3547.5552L13928.4658,-3547.5625L13928.4596,-3547.5715L13928.4543,-3547.5775L13928.4431,-3547.5901L13928.4349,-3547.5982L13928.4232,-3547.607L13928.4146,-3547.6128L13928.4017,-3547.6185L13928.3867,-3547.6256L13928.3502,-3547.6357L13928.3406,-3547.6391L13928.3096,-3547.6487L13928.2786,-3547.6509L13928.2449,-3547.6751L13928.1651,-3547.7299L13928.1596,-3547.7336L13928.1512,-3547.7394L13928.1444,-3547.7444L13928.1279,-3547.7568L13928.1176,-3547.7659L13928.1066,-3547.7749L13928.1011,-3547.7805L13928.0969,-3547.7912L13928.0962,-3547.8008L13928.1015,-3547.8462L13928.1026,-3547.8738L13928.1003,-3547.8842L13928.0949,-3547.8921L13928.0872,-3547.8983L13928.0549,-3547.9169L13928.0343,-3547.9338L13928.0198,-3547.9422L13927.9915,-3547.956L13927.973,-3547.9679L13927.9517,-3547.9828L13927.9235,-3548.003L13927.9193,-3548.007L13927.9069,-3548.0205L13927.8939,-3548.038L13927.8724,-3548.0624L13927.8581,-3548.0763L13927.8488,-3548.0848L13927.8071,-3548.115L13927.8023,-3548.1186L13927.7934,-3548.1258L13927.787,-3548.1321L13927.7783,-3548.1397L13927.7644,-3548.1535L13927.7514,-3548.1698L13927.7452,-3548.1805L13927.7397,-3548.1923L13927.7245,-3548.2244L13927.7156,-3548.238L13927.7056,-3548.2476L13927.6894,-3548.2588L13927.6282,-3548.287L13927.6213,-3548.2915L13927.6103,-3548.2994L13927.5938,-3548.3107L13927.5401,-3548.3507L13927.516,-3548.3676L13927.4795,-3548.3884L13927.4458,-3548.407L13927.4073,-3548.4252L13927.3651,-3548.4438L13927.3597,-3548.4504L13927.3487,-3548.4611L13927.3419,-3548.4729L13927.3308,-3548.5016L13927.3164,-3548.518L13927.2462,-3548.5828L13927.2372,-3548.5957L13927.2317,-3548.6132L13927.2314,-3548.6151L13927.2303,-3548.6211L13927.2243,-3548.632L13927.2186,-3548.6684L13927.2076,-3548.6949L13927.1946,-3548.714L13927.187,-3548.7332L13927.1849,-3548.7456L13927.1829,-3548.7704L13927.1787,-3548.7856L13927.1698,-3548.8025L13927.1526,-3548.8267L13927.145,-3548.8532L13927.1402,-3548.8763L13927.1312,-3548.9005L13927.1079,-3548.9281L13927.0858,-3548.9518L13927.075,-3548.9642L13927.0755,-3548.9721L13927.0748,-3548.9761L13927.0679,-3549.0149L13927.0597,-3549.034L13927.0507,-3549.0459L13927.0342,-3549.0622L13927.0266,-3549.0729L13927.0184,-3549.096L13927.0087,-3549.1259L13926.9977,-3549.1535L13926.988,-3549.1672L13926.9716,-3549.1997L13926.9392,-3549.238L13926.911,-3549.2656L13926.8704,-3549.3101L13926.8504,-3549.3281L13926.8394,-3549.3366L13926.8002,-3549.358L13926.7823,-3549.3648L13926.7382,-3549.3755L13926.708,-3549.3811L13926.688,-3549.3861L13926.6873,-3549.3878L13926.6784,-3549.3946L13926.6687,-3549.4081L13926.6577,-3549.4402L13926.6219,-3549.5067L13926.6143,-3549.5152L13926.5992,-3549.5259L13926.5793,-3549.5377L13926.5744,-3549.5428L13926.5696,-3549.5507L13926.5634,-3549.567L13926.5579,-3549.585L13926.5497,-3549.6019L13926.5442,-3549.6104L13926.5331,-3549.6199L13926.5173,-3549.6261L13926.4513,-3549.6408L13926.4407,-3549.6446L13926.434,-3549.647L13926.3989,-3549.6622L13926.3845,-3549.6706L13926.3652,-3549.687L13926.3342,-3549.7253L13926.2895,-3549.7765L13926.2709,-3549.8047L13926.2579,-3549.8211L13926.2124,-3549.8639L13926.1801,-3549.8971L13926.1539,-3549.9197L13926.1401,-3549.9269L13926.1216,-3549.932L13926.109,-3549.9302L13926.1016,-3549.9291L13926.0888,-3549.9292L13926.0807,-3549.9311L13926.0748,-3549.9343L13926.0699,-3549.9386L13926.0651,-3549.9444L13926.0569,-3549.9596L13926.046,-3549.9803L13926.0401,-3549.9886L13926.0284,-3549.9997L13926.0176,-3550.0073L13926.0011,-3550.0154L13925.9791,-3550.0329L13925.9715,-3550.0419L13925.9467,-3550.0825L13925.9378,-3550.092L13925.9144,-3550.1072L13925.9041,-3550.1202L13925.8869,-3550.1546L13925.8772,-3550.1664L13925.8476,-3550.1917L13925.8173,-3550.2075L13925.8069,-3550.2101L13925.7989,-3550.2101L13925.7923,-3550.2072L13925.7862,-3550.2021L13925.7787,-3550.1926L13925.769,-3550.1566L13925.7664,-3550.1478L13925.7629,-3550.144L13925.7581,-3550.1417L13925.7517,-3550.142L13925.7451,-3550.1446L13925.7368,-3550.1556L13925.7276,-3550.1758L13925.7239,-3550.1846L13925.7232,-3550.19L13925.7244,-3550.1963L13925.7361,-3550.2188L13925.7382,-3550.225L13925.7375,-3550.2368L13925.7341,-3550.2441L13925.7272,-3550.2531L13925.7079,-3550.2678L13925.6941,-3550.2802L13925.6824,-3550.2999L13925.6767,-3550.3107L13925.6716,-3550.3253L13925.6657,-3550.3499L13925.6515,-3550.3753L13925.6366,-3550.4086L13925.5966,-3550.4718L13925.576,-3550.4954L13925.5212,-3550.5539L13925.4961,-3550.5885L13925.4817,-3550.6159L13925.4701,-3550.6373L13925.4519,-3550.6604L13925.4292,-3550.6807L13925.3975,-3550.7021L13925.3644,-3550.7252L13925.3236,-3550.7519L13925.2792,-3550.7812"/>
<path content="1,神奈川中央交通（株）,厚21,0.0,0.5,0.0," xlink:title="1" d="M13930.6641,-3547.9195L13930.6139,-3547.9749L13930.607,-3547.9806L13930.5977,-3547.9875L13930.5866,-3547.9953L13930.5678,-3548.0088L13930.5511,-3548.0227L13930.5432,-3548.0309L13930.4556,-3548.1045L13930.4474,-3548.1096L13930.4143,-3548.1355L13930.4102,-3548.1383L13930.4037,-3548.1434L13930.3895,-3548.1547L13930.3826,-3548.1673L13930.3692,-3548.1946L13930.3276,-3548.26L13930.3049,-3548.2899L13930.2822,-3548.3124L13930.2691,-3548.3214L13930.2519,-3548.331L13930.2429,-3548.338L13930.234,-3548.3378L13930.2044,-3548.3428L13930.1693,-3548.3439L13930.1535,-3548.3406L13930.139,-3548.3344L13930.1108,-3548.3163L13930.0344,-3548.2594L13930.0082,-3548.242L13929.9814,-3548.2273L13929.9614,-3548.2183L13929.9332,-3548.2099L13929.9126,-3548.2065L13929.8885,-3548.2042L13929.8245,-3548.2042L13929.6992,-3548.2093L13929.6648,-3548.211L13929.6242,-3548.211L13929.6042,-3548.2076L13929.5966,-3548.2042L13929.5856,-3548.1974L13929.5815,-3548.1958L13929.5616,-3548.1794L13929.5285,-3548.1417L13929.5051,-3548.1074L13929.4933,-3548.0999L13929.4921,-3548.0668L13929.4934,-3548.0583L13929.5011,-3548.0377L13929.5073,-3548.0025L13929.5063,-3547.9864L13929.494,-3547.9661L13929.4636,-3547.9364L13929.4205,-3547.9L13929.3716,-3547.8476L13929.3427,-3547.8041L13929.3286,-3547.7778L13929.3019,-3547.7092L13929.3011,-3547.694L13929.3051,-3547.6807L13929.3241,-3547.6628L13929.3612,-3547.6318L13929.3644,-3547.6201L13929.3688,-3547.6093L13929.375,-3547.5907L13929.3881,-3547.5642L13929.3929,-3547.5507L13929.4101,-3547.5152L13929.4315,-3547.4842L13929.4638,-3547.4402L13929.4769,-3547.4239L13929.4872,-3547.4036L13929.4955,-3547.3822L13929.4955,-3547.3614L13929.4921,-3547.3428L13929.4817,-3547.3123L13929.4666,-3547.2723L13929.4638,-3547.265L13929.4625,-3547.2625L13929.4543,-3547.2495L13929.4453,-3547.2414L13929.4349,-3547.2351L13929.4246,-3547.2312L13929.4115,-3547.2295L13929.3943,-3547.2301L13929.3386,-3547.2402L13929.307,-3547.2456L13929.2928,-3547.2492L13929.2381,-3547.2566L13929.2092,-3547.2594L13929.1892,-3547.2599L13929.1624,-3547.2588L13929.1238,-3547.2532L13929.0763,-3547.2453L13929.0557,-3547.2414L13929.0048,-3547.2323L13928.9848,-3547.2284L13928.9724,-3547.2289L13928.9586,-3547.2306L13928.9243,-3547.2409L13928.9132,-3547.2442L13928.8643,-3547.2611L13928.8526,-3547.2644L13928.8203,-3547.2656L13928.7811,-3547.2594L13928.7453,-3547.2526L13928.706,-3547.2464L13928.693,-3547.2483L13928.6647,-3547.2447L13928.6483,-3547.2459L13928.6303,-3547.2492L13928.6014,-3547.2577L13928.556,-3547.2757L13928.5278,-3547.2932L13928.5195,-3547.2999L13928.514,-3547.3062L13928.5099,-3547.3152L13928.5037,-3547.336L13928.5009,-3547.3586L13928.4913,-3547.4109L13928.4837,-3547.4289L13928.472,-3547.4504L13928.4782,-3547.465L13928.4796,-3547.4819L13928.4782,-3547.5146L13928.4713,-3547.5461L13928.4693,-3547.5552L13928.4658,-3547.5625L13928.4596,-3547.5715L13928.4543,-3547.5775L13928.4431,-3547.5901L13928.4349,-3547.5982L13928.4232,-3547.607L13928.4146,-3547.6128L13928.4017,-3547.6185L13928.3867,-3547.6256L13928.3502,-3547.6357L13928.3406,-3547.6391L13928.3096,-3547.6487L13928.2786,-3547.6509L13928.2449,-3547.6751L13928.1651,-3547.7299L13928.1596,-3547.7336L13928.1512,-3547.7394L13928.1444,-3547.7444L13928.1279,-3547.7568L13928.1176,-3547.7659L13928.1066,-3547.7749L13928.1011,-3547.7805L13928.0969,-3547.7912L13928.0962,-3547.8008L13928.1015,-3547.8462L13928.1026,-3547.8738L13928.1003,-3547.8842L13928.0949,-3547.8921L13928.0872,-3547.8983L13928.0549,-3547.9169L13928.0343,-3547.9338L13928.0198,-3547.9422L13927.9915,-3547.956L13927.973,-3547.9679L13927.9517,-3547.9828L13927.9235,-3548.003L13927.9193,-3548.007L13927.9069,-3548.0205L13927.8939,-3548.038L13927.8724,-3548.0624L13927.8581,-3548.0763L13927.8488,-3548.0848L13927.8071,-3548.115L13927.8023,-3548.1186L13927.7934,-3548.1258L13927.787,-3548.1321L13927.7783,-3548.1397L13927.7644,-3548.1535L13927.7514,-3548.1698L13927.7452,-3548.1805L13927.7397,-3548.1923L13927.7245,-3548.2244L13927.7156,-3548.238L13927.7056,-3548.2476L13927.6894,-3548.2588L13927.6282,-3548.287L13927.6213,-3548.2915L13927.6103,-3548.2994L13927.5938,-3548.3107L13927.5401,-3548.3507L13927.516,-3548.3676L13927.4795,-3548.3884L13927.4458,-3548.407L13927.4073,-3548.4252L13927.3651,-3548.4438L13927.3597,-3548.4504L13927.3487,-3548.4611L13927.3419,-3548.4729L13927.3308,-3548.5016L13927.3164,-3548.518L13927.2462,-3548.5828L13927.2372,-3548.5957L13927.2317,-3548.6132L13927.2314,-3548.6151L13927.2303,-3548.6211L13927.2243,-3548.632L13927.2186,-3548.6684L13927.2076,-3548.6949L13927.1946,-3548.714L13927.187,-3548.7332L13927.1849,-3548.7456L13927.1829,-3548.7704L13927.1787,-3548.7856L13927.1698,-3548.8025L13927.1526,-3548.8267L13927.145,-3548.8532L13927.1402,-3548.8763L13927.1312,-3548.9005L13927.1079,-3548.9281L13927.0858,-3548.9518L13927.075,-3548.9642L13927.0755,-3548.9721L13927.0748,-3548.9761L13927.0679,-3549.0149L13927.0597,-3549.034L13927.0507,-3549.0459L13927.0342,-3549.0622L13927.0266,-3549.0729L13927.0184,-3549.096L13927.0087,-3549.1259L13926.9977,-3549.1535L13926.988,-3549.1672L13926.9716,-3549.1997L13926.9392,-3549.238L13926.911,-3549.2656L13926.8704,-3549.3101L13926.8504,-3549.3281L13926.8394,-3549.3366L13926.8002,-3549.358L13926.7823,-3549.3648L13926.7382,-3549.3755L13926.708,-3549.3811L13926.688,-3549.3861L13926.6873,-3549.3878L13926.6784,-3549.3946L13926.6687,-3549.4081L13926.6577,-3549.4402L13926.6219,-3549.5067L13926.6143,-3549.5152L13926.5992,-3549.5259L13926.5793,-3549.5377L13926.5744,-3549.5428L13926.5696,-3549.5507L13926.5634,-3549.567L13926.5579,-3549.585L13926.5497,-3549.6019L13926.5442,-3549.6104L13926.5331,-3549.6199L13926.5173,-3549.6261L13926.4513,-3549.6408L13926.4407,-3549.6446L13926.434,-3549.647L13926.3989,-3549.6622L13926.3845,-3549.6706L13926.3652,-3549.687L13926.3342,-3549.7253L13926.2895,-3549.7765L13926.2709,-3549.8047L13926.2579,-3549.8211L13926.2124,-3549.8639L13926.1801,-3549.8971L13926.1539,-3549.9197L13926.1401,-3549.9269L13926.1216,-3549.932L13926.109,-3549.9302L13926.1016,-3549.9291L13926.0888,-3549.9292L13926.0807,-3549.9311L13926.0748,-3549.9343L13926.0699,-3549.9386L13926.0651,-3549.9444L13926.0569,-3549.9596L13926.046,-3549.9803L13926.0401,-3549.9886L13926.0284,-3549.9997L13926.0176,-3550.0073L13926.0011,-3550.0154L13925.9791,-3550.0329L13925.9715,-3550.0419L13925.9467,-3550.0825L13925.9378,-3550.092L13925.9144,-3550.1072L13925.9041,-3550.1202L13925.8869,-3550.1546L13925.8772,-3550.1664L13925.8476,-3550.1917L13925.8173,-3550.2075L13925.8069,-3550.2101L13925.7989,-3550.2101L13925.7923,-3550.2072L13925.7862,-3550.2021L13925.7787,-3550.1926L13925.769,-3550.1566L13925.7664,-3550.1478L13925.7629,-3550.144L13925.7581,-3550.1417L13925.7517,-3550.142L13925.7451,-3550.1446L13925.7368,-3550.1556L13925.7276,-3550.1758L13925.7239,-3550.1846L13925.7232,-3550.19L13925.7244,-3550.1963L13925.7361,-3550.2188L13925.7382,-3550.225L13925.7375,-3550.2368L13925.7341,-3550.2441L13925.7272,-3550.2531L13925.7079,-3550.2678L13925.6941,-3550.2802L13925.6824,-3550.2999L13925.6767,-3550.3107L13925.6716,-3550.3253L13925.6657,-3550.3499L13925.6515,-3550.3753L13925.6366,-3550.4086L13925.5966,-3550.4718L13925.576,-3550.4954L13925.5212,-3550.5539L13925.4961,-3550.5885L13925.4817,-3550.6159L13925.4701,-3550.6373L13925.4519,-3550.6604L13925.4292,-3550.6807L13925.3975,-3550.7021L13925.3644,-3550.7252L13925.3236,-3550.7519L13925.2792,-3550.7812"/>
<path content="1,神奈川中央交通（株）,厚22,1.0,0.0,0.0," xlink:title="1" d="M13930.6641,-3547.9195L13930.6139,-3547.9749L13930.607,-3547.9806L13930.5977,-3547.9875L13930.5866,-3547.9953L13930.5678,-3548.0088L13930.5511,-3548.0227L13930.5432,-3548.0309L13930.4556,-3548.1045L13930.4474,-3548.1096L13930.4143,-3548.1355L13930.4102,-3548.1383L13930.4037,-3548.1434L13930.3895,-3548.1547L13930.3826,-3548.1673L13930.3692,-3548.1946L13930.3276,-3548.26L13930.3049,-3548.2899L13930.2822,-3548.3124L13930.2691,-3548.3214L13930.2519,-3548.331L13930.2429,-3548.338L13930.234,-3548.3378L13930.2044,-3548.3428L13930.1693,-3548.3439L13930.1535,-3548.3406L13930.139,-3548.3344L13930.1108,-3548.3163L13930.0344,-3548.2594L13930.0082,-3548.242L13929.9814,-3548.2273L13929.9614,-3548.2183L13929.9332,-3548.2099L13929.9126,-3548.2065L13929.8885,-3548.2042L13929.8245,-3548.2042L13929.6992,-3548.2093L13929.6648,-3548.211L13929.6242,-3548.211L13929.6042,-3548.2076L13929.5966,-3548.2042L13929.5856,-3548.1974L13929.5815,-3548.1958L13929.5616,-3548.1794L13929.5285,-3548.1417L13929.5051,-3548.1074L13929.4933,-3548.0999L13929.4921,-3548.0668L13929.4934,-3548.0583L13929.5011,-3548.0377L13929.5073,-3548.0025L13929.5063,-3547.9864L13929.494,-3547.9661L13929.4636,-3547.9364L13929.4205,-3547.9L13929.3716,-3547.8476L13929.3427,-3547.8041L13929.3286,-3547.7778L13929.3019,-3547.7092L13929.3011,-3547.694L13929.3051,-3547.6807L13929.3241,-3547.6628L13929.3612,-3547.6318L13929.3644,-3547.6201L13929.3688,-3547.6093L13929.375,-3547.5907L13929.3881,-3547.5642L13929.3929,-3547.5507L13929.4101,-3547.5152L13929.4315,-3547.4842L13929.4638,-3547.4402L13929.4769,-3547.4239L13929.4872,-3547.4036L13929.4955,-3547.3822L13929.4955,-3547.3614L13929.4921,-3547.3428L13929.4817,-3547.3123L13929.4666,-3547.2723L13929.4638,-3547.265L13929.4625,-3547.2625L13929.4543,-3547.2495L13929.4453,-3547.2414L13929.4349,-3547.2351L13929.4246,-3547.2312L13929.4115,-3547.2295L13929.3943,-3547.2301L13929.3386,-3547.2402L13929.307,-3547.2456L13929.2928,-3547.2492L13929.2381,-3547.2566L13929.2092,-3547.2594L13929.1892,-3547.2599L13929.1624,-3547.2588L13929.1238,-3547.2532L13929.0763,-3547.2453L13929.0557,-3547.2414L13929.0048,-3547.2323L13928.9848,-3547.2284L13928.9724,-3547.2289L13928.9586,-3547.2306L13928.9243,-3547.2409L13928.9132,-3547.2442L13928.8643,-3547.2611L13928.8526,-3547.2644L13928.8203,-3547.2656L13928.7811,-3547.2594L13928.7453,-3547.2526L13928.706,-3547.2464L13928.693,-3547.2483L13928.6647,-3547.2447L13928.6483,-3547.2459L13928.6303,-3547.2492L13928.6014,-3547.2577L13928.556,-3547.2757L13928.5278,-3547.2932L13928.5195,-3547.2999L13928.514,-3547.3062L13928.5099,-3547.3152L13928.5037,-3547.336L13928.5009,-3547.3586L13928.4913,-3547.4109L13928.4837,-3547.4289L13928.472,-3547.4504L13928.4782,-3547.465L13928.4796,-3547.4819L13928.4782,-3547.5146L13928.4713,-3547.5461L13928.4693,-3547.5552L13928.4658,-3547.5625L13928.4596,-3547.5715L13928.4543,-3547.5775L13928.4431,-3547.5901L13928.4349,-3547.5982L13928.4232,-3547.607L13928.4146,-3547.6128L13928.4017,-3547.6185L13928.3867,-3547.6256L13928.3502,-3547.6357L13928.3406,-3547.6391L13928.3096,-3547.6487L13928.2786,-3547.6509L13928.2449,-3547.6751L13928.1651,-3547.7299L13928.1596,-3547.7336L13928.1512,-3547.7394L13928.1444,-3547.7444L13928.1279,-3547.7568L13928.1176,-3547.7659L13928.1066,-3547.7749L13928.1011,-3547.7805L13928.0969,-3547.7912L13928.0962,-3547.8008L13928.1015,-3547.8462L13928.1026,-3547.8738L13928.1003,-3547.8842L13928.0949,-3547.8921L13928.0872,-3547.8983L13928.0549,-3547.9169L13928.0343,-3547.9338L13928.0198,-3547.9422L13927.9915,-3547.956L13927.973,-3547.9679L13927.9517,-3547.9828L13927.9235,-3548.003L13927.9193,-3548.007L13927.9069,-3548.0205L13927.8939,-3548.038L13927.8724,-3548.0624L13927.8581,-3548.0763L13927.8488,-3548.0848L13927.8071,-3548.115L13927.8023,-3548.1186L13927.7934,-3548.1258L13927.787,-3548.1321L13927.7783,-3548.1397L13927.7644,-3548.1535L13927.7514,-3548.1698L13927.7452,-3548.1805L13927.7397,-3548.1923L13927.7245,-3548.2244L13927.7156,-3548.238L13927.7056,-3548.2476L13927.6894,-3548.2588L13927.6282,-3548.287L13927.6213,-3548.2915L13927.6103,-3548.2994L13927.5938,-3548.3107L13927.5401,-3548.3507L13927.516,-3548.3676L13927.4795,-3548.3884L13927.4458,-3548.407L13927.4073,-3548.4252L13927.3651,-3548.4438L13927.3597,-3548.4504L13927.3487,-3548.4611L13927.3419,-3548.4729L13927.3308,-3548.5016L13927.3164,-3548.518L13927.2462,-3548.5828L13927.2372,-3548.5957L13927.2317,-3548.6132L13927.2314,-3548.6151L13927.2303,-3548.6211L13927.2243,-3548.632L13927.2186,-3548.6684L13927.2076,-3548.6949L13927.1946,-3548.714L13927.187,-3548.7332L13927.1849,-3548.7456L13927.1829,-3548.7704L13927.1787,-3548.7856L13927.1698,-3548.8025L13927.1526,-3548.8267L13927.145,-3548.8532L13927.1402,-3548.8763L13927.1312,-3548.9005L13927.1079,-3548.9281L13927.0858,-3548.9518L13927.075,-3548.9642L13927.0755,-3548.9721L13927.0748,-3548.9761L13927.0679,-3549.0149L13927.0597,-3549.034L13927.0507,-3549.0459L13927.0342,-3549.0622L13927.0266,-3549.0729L13927.0184,-3549.096L13927.0087,-3549.1259L13926.9977,-3549.1535L13926.988,-3549.1672L13926.9716,-3549.1997L13926.9392,-3549.238L13926.911,-3549.2656L13926.8704,-3549.3101L13926.8504,-3549.3281L13926.8394,-3549.3366L13926.8002,-3549.358L13926.7823,-3549.3648L13926.7382,-3549.3755"/>
<path content="1,神奈川中央交通（株）,厚33,23.0,24.0,24.0," xlink:title="1" d="M13930.6641,-3543.592L13930.6608,-3543.5946L13930.6374,-3543.6127L13930.6202,-3543.6234L13930.5981,-3543.6346L13930.5575,-3543.6504L13930.541,-3543.6577L13930.5183,-3543.6696L13930.499,-3543.6803L13930.473,-3543.6978L13930.4712,-3543.699L13930.4693,-3543.7002L13930.4635,-3543.7041L13930.4412,-3543.7191L13930.415,-3543.7349L13930.3868,-3543.7484L13930.3634,-3543.7558L13930.3492,-3543.7603L13930.3352,-3543.7636L13930.3229,-3543.7703L13930.2739,-3543.7794L13930.2092,-3543.7969L13930.1962,-3543.8019L13930.1831,-3543.8087L13930.1533,-3543.8364L13930.1552,-3543.8565L13930.1566,-3543.8792L13930.1583,-3543.8943L13930.1611,-3543.9236L13930.162,-3543.9329L13930.1652,-3543.9642L13930.1659,-3543.9924L13930.1569,-3544.0177L13930.1404,-3544.0402L13930.1081,-3544.0757L13930.0406,-3544.14L13930.0276,-3544.1513L13929.9587,-3544.2092L13929.9438,-3544.2226L13929.9179,-3544.2432"/>
<path content="1,神奈川中央交通（株）,厚33,23.0,24.0,24.0," xlink:title="1" d="M13929.9179,-3544.2432L13929.861,-3544.1895L13929.8465,-3544.1766L13929.766,-3544.1022L13929.7529,-3544.0999L13929.7357,-3544.0982L13929.7226,-3544.0982L13929.7061,-3544.0954L13929.6855,-3544.0926L13929.6759,-3544.0909L13929.6394,-3544.0876L13929.5919,-3544.0831L13929.5809,-3544.0808L13929.5712,-3544.0718L13929.5234,-3544.0328"/>
<path content="1,神奈川中央交通（株）,厚33,23.0,24.0,24.0," xlink:title="1" d="M13929.9179,-3544.2432L13929.892,-3544.2696L13929.8747,-3544.2881L13929.8355,-3544.327L13929.8046,-3544.3647L13929.7478,-3544.4268L13929.735,-3544.4408L13929.7164,-3544.4594L13929.6772,-3544.4988L13929.6665,-3544.5127L13929.68,-3544.5456L13929.6985,-3544.6211L13929.7006,-3544.6357L13929.6992,-3544.6515L13929.6972,-3544.6633L13929.6917,-3544.6825L13929.6813,-3544.7016L13929.6669,-3544.7197L13929.6476,-3544.7383L13929.6258,-3544.7576L13929.6049,-3544.776L13929.5816,-3544.8025L13929.565,-3544.834L13929.5598,-3544.8451L13929.5401,-3544.9075L13929.5322,-3544.9354L13929.524,-3544.958L13929.5204,-3544.968L13929.5112,-3544.9913L13929.4797,-3545.0898L13929.4799,-3545.1071L13929.4746,-3545.119L13929.472,-3545.1267L13929.4833,-3545.1408L13929.4859,-3545.167L13929.4831,-3545.1884L13929.4804,-3545.1991L13929.4652,-3545.2673L13929.468,-3545.2881L13929.4701,-3545.3106L13929.4701,-3545.3253L13929.4645,-3545.3332L13929.4591,-3545.3373L13929.415,-3545.3799L13929.407,-3545.3916L13929.4026,-3545.398L13929.3957,-3545.4064L13929.3785,-3545.4205L13929.3482,-3545.4403L13929.309,-3545.4599L13929.3007,-3545.4654"/>
<path content="1,神奈川中央交通（株）,厚34,7.5,5.5,5.5," xlink:title="1" d="M13930.6641,-3543.592L13930.6608,-3543.5946L13930.6374,-3543.6127L13930.6202,-3543.6234L13930.5981,-3543.6346L13930.5575,-3543.6504L13930.541,-3543.6577L13930.5183,-3543.6696L13930.499,-3543.6803L13930.473,-3543.6978L13930.4712,-3543.699L13930.4693,-3543.7002L13930.4635,-3543.7041L13930.4412,-3543.7191L13930.415,-3543.7349L13930.3868,-3543.7484L13930.3634,-3543.7558L13930.3492,-3543.7603L13930.3352,-3543.7636L13930.3229,-3543.7703L13930.2739,-3543.7794L13930.2092,-3543.7969L13930.1962,-3543.8019L13930.1831,-3543.8087L13930.1533,-3543.8364L13930.1552,-3543.8565L13930.1566,-3543.8792L13930.1583,-3543.8943L13930.1611,-3543.9236L13930.162,-3543.9329L13930.1652,-3543.9642L13930.1659,-3543.9924L13930.1569,-3544.0177L13930.1404,-3544.0402L13930.1081,-3544.0757L13930.0406,-3544.14L13930.0276,-3544.1513L13929.9587,-3544.2092L13929.9438,-3544.2226L13929.9179,-3544.2432L13929.892,-3544.2696L13929.8747,-3544.2881L13929.8355,-3544.327L13929.8046,-3544.3647L13929.7478,-3544.4268L13929.735,-3544.4408L13929.7164,-3544.4594L13929.6772,-3544.4988L13929.6665,-3544.5127L13929.68,-3544.5456L13929.6985,-3544.6211L13929.7006,-3544.6357L13929.6992,-3544.6515L13929.6972,-3544.6633L13929.6917,-3544.6825L13929.6813,-3544.7016L13929.6669,-3544.7197L13929.6476,-3544.7383L13929.6258,-3544.7576L13929.6049,-3544.776L13929.5816,-3544.8025L13929.565,-3544.834L13929.5598,-3544.8451L13929.5401,-3544.9075L13929.5322,-3544.9354L13929.524,-3544.958L13929.5204,-3544.968L13929.5112,-3544.9913L13929.4797,-3545.0898L13929.4799,-3545.1071L13929.4746,-3545.119L13929.472,-3545.1267L13929.4833,-3545.1408L13929.4859,-3545.167L13929.4831,-3545.1884L13929.4804,-3545.1991L13929.4652,-3545.2673L13929.468,-3545.2881L13929.4701,-3545.3106L13929.4701,-3545.3253L13929.4645,-3545.3332L13929.4591,-3545.3373L13929.415,-3545.3799L13929.407,-3545.3916L13929.4026,-3545.398L13929.3957,-3545.4064L13929.3785,-3545.4205L13929.3482,-3545.4403L13929.309,-3545.4599L13929.3007,-3545.4654"/>
<path content="1,神奈川中央交通（株）,厚38,2.0,4.0,4.0," xlink:title="1" d="M13930.6641,-3543.592L13930.6608,-3543.5946L13930.6374,-3543.6127L13930.6202,-3543.6234L13930.5981,-3543.6346L13930.5575,-3543.6504L13930.541,-3543.6577L13930.5183,-3543.6696L13930.499,-3543.6803L13930.473,-3543.6978L13930.4712,-3543.699L13930.4693,-3543.7002L13930.4635,-3543.7041L13930.4412,-3543.7191L13930.415,-3543.7349L13930.3868,-3543.7484L13930.3634,-3543.7558L13930.3492,-3543.7603L13930.3352,-3543.7636L13930.3229,-3543.7703L13930.2739,-3543.7794L13930.2092,-3543.7969L13930.1962,-3543.8019L13930.1831,-3543.8087L13930.1533,-3543.8364L13930.1552,-3543.8565L13930.1566,-3543.8792L13930.1583,-3543.8943L13930.1611,-3543.9236L13930.162,-3543.9329L13930.1652,-3543.9642L13930.1659,-3543.9924L13930.1569,-3544.0177L13930.1404,-3544.0402L13930.1081,-3544.0757L13930.0406,-3544.14L13930.0276,-3544.1513L13929.9587,-3544.2092L13929.9438,-3544.2226L13929.9179,-3544.2432"/>
<path content="1,神奈川中央交通（株）,厚38,2.0,4.0,4.0," xlink:title="1" d="M13929.9179,-3544.2432L13929.861,-3544.1895L13929.8465,-3544.1766L13929.766,-3544.1022L13929.7529,-3544.0999L13929.7357,-3544.0982L13929.7226,-3544.0982L13929.7061,-3544.0954L13929.6855,-3544.0926L13929.6759,-3544.0909L13929.6394,-3544.0876L13929.5919,-3544.0831L13929.5809,-3544.0808L13929.5712,-3544.0718L13929.5234,-3544.0328"/>
<path content="1,神奈川中央交通（株）,厚38,2.0,4.0,4.0," xlink:title="1" d="M13929.9179,-3544.2432L13929.892,-3544.2696L13929.8747,-3544.2881L13929.8355,-3544.327L13929.8046,-3544.3647L13929.7478,-3544.4268L13929.735,-3544.4408L13929.7164,-3544.4594L13929.6772,-3544.4988L13929.6665,-3544.5127"/>
<path content="1,神奈川中央交通（株）,厚38,2.0,4.0,4.0," xlink:title="1" d="M13929.6665,-3544.5127L13929.6511,-3544.5276L13929.6428,-3544.5388L13929.607,-3544.5726L13929.543,-3544.6323L13929.5423,-3544.634L13929.5361,-3544.6397L13929.5237,-3544.656L13929.5162,-3544.6712L13929.51,-3544.6853L13929.5065,-3544.6932L13929.5051,-3544.7016L13929.5038,-3544.7095L13929.5017,-3544.7428L13929.4976,-3544.7574L13929.4889,-3544.7712L13929.479,-3544.7805"/>
<path content="1,神奈川中央交通（株）,厚38,2.0,4.0,4.0," xlink:title="1" d="M13929.479,-3544.7805L13929.521,-3544.8121L13929.5598,-3544.8451"/>
<path content="1,神奈川中央交通（株）,厚38,2.0,4.0,4.0," xlink:title="1" d="M13929.479,-3544.7805L13929.4556,-3544.7889L13929.4391,-3544.8002L13929.4184,-3544.8199L13929.4102,-3544.8312L13929.3813,-3544.8769L13929.3716,-3544.8893L13929.3647,-3544.8954L13929.3475,-3544.9061L13929.3317,-3544.914L13929.3117,-3544.9202L13929.2863,-3544.9261L13929.2738,-3544.9296L13929.2677,-3544.9304L13929.2361,-3544.9315L13929.2257,-3544.9304L13929.192,-3544.9265L13929.1803,-3544.9233L13929.1507,-3544.9151L13929.1156,-3544.9033L13929.0798,-3544.8932L13929.0702,-3544.8926L13929.0337,-3544.8847L13929.0137,-3544.8791L13929.0057,-3544.8778L13928.9767,-3544.8662L13928.9453,-3544.8498L13928.9231,-3544.8328L13928.8934,-3544.8095L13928.8658,-3544.7884L13928.8527,-3544.7766L13928.8464,-3544.7704L13928.8389,-3544.7664L13928.8306,-3544.7625L13928.8169,-3544.758L13928.8059,-3544.758L13928.7804,-3544.7659L13928.7667,-3544.7681L13928.7522,-3544.7659L13928.7454,-3544.7645"/>
<path content="1,神奈川中央交通（株）,厚38,2.0,4.0,4.0," xlink:title="1" d="M13929.5598,-3544.8451L13929.565,-3544.834L13929.5816,-3544.8025L13929.6049,-3544.776L13929.6258,-3544.7576L13929.6476,-3544.7383L13929.6669,-3544.7197L13929.6813,-3544.7016L13929.6917,-3544.6825L13929.6972,-3544.6633L13929.6992,-3544.6515L13929.7006,-3544.6357L13929.6985,-3544.6211L13929.68,-3544.5456L13929.6665,-3544.5127"/>
<path content="1,神奈川中央交通（株）,厚38,2.0,4.0,4.0," xlink:title="1" d="M13929.5598,-3544.8451L13929.5401,-3544.9075L13929.5322,-3544.9354L13929.524,-3544.958L13929.5204,-3544.968L13929.5112,-3544.9913L13929.4797,-3545.0898L13929.4799,-3545.1071L13929.4746,-3545.119L13929.472,-3545.1267L13929.4629,-3545.1449L13929.4506,-3545.1468L13929.4416,-3545.1494L13929.436,-3545.1513L13929.4315,-3545.1545L13929.4275,-3545.1582L13929.4248,-3545.1616L13929.423,-3545.1672L13929.4216,-3545.1725L13929.4214,-3545.1771L13929.4208,-3545.186L13929.4183,-3545.1954L13929.391,-3545.2379L13929.3723,-3545.2574L13929.3515,-3545.2708L13929.3399,-3545.274L13929.3104,-3545.2768L13929.2918,-3545.2802L13929.2601,-3545.2904L13929.2361,-3545.2999L13929.2285,-3545.3022L13929.1779,-3545.3215L13929.1609,-3545.3259L13929.1431,-3545.3293L13929.1245,-3545.3299L13929.117,-3545.3293L13929.0936,-3545.3242L13929.0729,-3545.3191L13929.0433,-3545.314L13929.0165,-3545.3129L13928.9635,-3545.3146L13928.9298,-3545.3168L13928.8947,-3545.3168L13928.885,-3545.3152L13928.8726,-3545.3073L13928.8537,-3545.2927L13928.8412,-3545.2852L13928.8183,-3545.2836L13928.7653,-3545.2847L13928.746,-3545.2864L13928.7357,-3545.2887L13928.7095,-3545.3033L13928.7061,-3545.3056L13928.6771,-3545.3264L13928.6668,-3545.3332L13928.6469,-3545.3388L13928.6318,-3545.3399L13928.6249,-3545.3394L13928.6097,-3545.3349L13928.5808,-3545.3224L13928.5767,-3545.3196L13928.5464,-3545.3084L13928.5154,-3545.3022L13928.5099,-3545.3089L13928.4872,-3545.336L13928.4748,-3545.3444L13928.4707,-3545.3461L13928.4597,-3545.3478L13928.4438,-3545.3495L13928.4303,-3545.355"/>
<path content="1,神奈川中央交通（株）,厚39,14.5,7.0,7.0," xlink:title="1" d="M13930.6641,-3543.592L13930.6608,-3543.5946L13930.6374,-3543.6127L13930.6202,-3543.6234L13930.5981,-3543.6346L13930.5575,-3543.6504L13930.541,-3543.6577L13930.5183,-3543.6696L13930.499,-3543.6803L13930.473,-3543.6978L13930.4712,-3543.699L13930.4693,-3543.7002L13930.4635,-3543.7041L13930.4412,-3543.7191L13930.415,-3543.7349L13930.3868,-3543.7484L13930.3634,-3543.7558L13930.3492,-3543.7603L13930.3352,-3543.7636L13930.3229,-3543.7703L13930.2739,-3543.7794L13930.2092,-3543.7969L13930.1962,-3543.8019L13930.1831,-3543.8087L13930.1533,-3543.8364L13930.1552,-3543.8565L13930.1566,-3543.8792L13930.1583,-3543.8943L13930.1611,-3543.9236L13930.162,-3543.9329L13930.1652,-3543.9642L13930.1659,-3543.9924L13930.1569,-3544.0177L13930.1404,-3544.0402L13930.1081,-3544.0757L13930.0406,-3544.14L13930.0276,-3544.1513L13929.9587,-3544.2092L13929.9438,-3544.2226L13929.9179,-3544.2432L13929.861,-3544.1895L13929.8465,-3544.1766L13929.766,-3544.1022L13929.7529,-3544.0999L13929.7357,-3544.0982L13929.7226,-3544.0982L13929.7061,-3544.0954L13929.6855,-3544.0926L13929.6759,-3544.0909L13929.6394,-3544.0876L13929.5919,-3544.0831L13929.5809,-3544.0808L13929.5712,-3544.0718L13929.5234,-3544.0328"/>
<path content="1,神奈川中央交通（株）,厚43,35.0,25.5,24.0," xlink:title="1" d="M13930.6641,-3544.101L13930.6553,-3544.1045L13930.6401,-3544.1124L13930.6195,-3544.1293L13930.6078,-3544.1417L13930.6009,-3544.1513L13930.5974,-3544.1586L13930.5973,-3544.1611L13930.5971,-3544.1636L13930.5919,-3544.2374L13930.5909,-3544.28L13930.5906,-3544.3039L13930.5885,-3544.3484L13930.5892,-3544.3772L13930.5871,-3544.393L13930.5816,-3544.4088L13930.5761,-3544.4268L13930.5513,-3544.4938L13930.5452,-3544.5073L13930.5245,-3544.5546L13930.4949,-3544.6194L13930.4618,-3544.7034L13930.4542,-3544.7262L13930.4466,-3544.7494L13930.4459,-3544.7514L13930.4452,-3544.7535L13930.4434,-3544.759L13930.4219,-3544.8386L13930.4109,-3544.8735L13930.4061,-3544.8974L13930.3919,-3544.9469L13930.3912,-3544.9499L13930.3905,-3544.953L13930.3724,-3545.0375L13930.3634,-3545.0791L13930.3572,-3545.1236L13930.3551,-3545.1546L13930.3572,-3545.1698L13930.362,-3545.1856L13930.3731,-3545.2025L13930.3951,-3545.2301L13930.4301,-3545.2557L13930.4351,-3545.2616L13930.4935,-3545.2978L13930.5059,-3545.3039L13930.4956,-3545.3141L13930.4756,-3545.34L13930.4646,-3545.3586L13930.4522,-3545.3884L13930.446,-3545.4098L13930.4405,-3545.4321L13930.4357,-3545.4583L13930.4226,-3545.5141L13930.4109,-3545.5716L13930.4047,-3545.5986L13930.4013,-3545.6114"/>
<path content="1,神奈川中央交通（株）,厚44,35.5,23.0,23.0," xlink:title="1" d="M13930.6641,-3545.1831L13930.6002,-3545.229L13930.5692,-3545.2527L13930.5059,-3545.3039L13930.4956,-3545.3141L13930.4756,-3545.34L13930.4646,-3545.3586L13930.4522,-3545.3884L13930.446,-3545.4098L13930.4405,-3545.4321L13930.4357,-3545.4583L13930.4226,-3545.5141L13930.4109,-3545.5716L13930.4047,-3545.5986L13930.4013,-3545.6114"/>
<path content="1,神奈川中央交通（株）,厚45,3.0,0.0,0.0," xlink:title="1" d="M13930.6641,-3545.1831L13930.6002,-3545.229L13930.5692,-3545.2527L13930.5059,-3545.3039L13930.4956,-3545.3141L13930.4756,-3545.34L13930.4646,-3545.3586L13930.4522,-3545.3884L13930.446,-3545.4098L13930.4405,-3545.4321L13930.4357,-3545.4583L13930.4226,-3545.5141L13930.4109,-3545.5716L13930.4047,-3545.5986L13930.4013,-3545.6114"/>
<path content="1,神奈川中央交通（株）,厚・90,1.0,1.0,0.0," xlink:title="1" d="M13930.6641,-3544.101L13930.6553,-3544.1045L13930.6401,-3544.1124L13930.6195,-3544.1293L13930.6078,-3544.1417L13930.6009,-3544.1513L13930.5974,-3544.1586L13930.5973,-3544.1611L13930.5971,-3544.1636L13930.5919,-3544.2374L13930.5909,-3544.28L13930.5906,-3544.3039L13930.5885,-3544.3484L13930.5892,-3544.3772L13930.5871,-3544.393L13930.5816,-3544.4088L13930.5761,-3544.4268L13930.5513,-3544.4938L13930.5452,-3544.5073L13930.5245,-3544.5546L13930.4949,-3544.6194L13930.4618,-3544.7034L13930.4542,-3544.7262L13930.4466,-3544.7494L13930.4459,-3544.7514L13930.4452,-3544.7535L13930.4434,-3544.759L13930.4219,-3544.8386L13930.4109,-3544.8735L13930.4061,-3544.8974L13930.3919,-3544.9469L13930.3912,-3544.9499L13930.3905,-3544.953L13930.3724,-3545.0375L13930.3634,-3545.0791L13930.3572,-3545.1236L13930.3551,-3545.1546L13930.3572,-3545.1698L13930.362,-3545.1856L13930.3731,-3545.2025L13930.3951,-3545.2301L13930.4301,-3545.2557L13930.4351,-3545.2616L13930.4935,-3545.2978L13930.5059,-3545.3039L13930.4956,-3545.3141L13930.4756,-3545.34L13930.4646,-3545.3586L13930.4522,-3545.3884L13930.446,-3545.4098L13930.4405,-3545.4321L13930.4357,-3545.4583L13930.4226,-3545.5141L13930.4109,-3545.5716L13930.4047,-3545.5986L13930.4013,-3545.6114"/>
<path content="1,神奈川中央交通（株）,愛11,16.5,11.0,11.0," xlink:title="1" d="M13930.6641,-3543.592L13930.6608,-3543.5946L13930.6374,-3543.6127L13930.6202,-3543.6234L13930.5981,-3543.6346L13930.5575,-3543.6504L13930.541,-3543.6577L13930.5183,-3543.6696L13930.499,-3543.6803L13930.473,-3543.6978L13930.4712,-3543.699L13930.4693,-3543.7002L13930.4635,-3543.7041L13930.4412,-3543.7191L13930.415,-3543.7349L13930.3868,-3543.7484L13930.3634,-3543.7558L13930.3492,-3543.7603L13930.3352,-3543.7636L13930.3229,-3543.7703L13930.2739,-3543.7794L13930.2092,-3543.7969L13930.1962,-3543.8019L13930.1831,-3543.8087L13930.1533,-3543.8364L13930.1552,-3543.8565L13930.1566,-3543.8792L13930.1583,-3543.8943L13930.1611,-3543.9236L13930.162,-3543.9329L13930.1652,-3543.9642L13930.1659,-3543.9924L13930.1569,-3544.0177L13930.1404,-3544.0402L13930.1081,-3544.0757L13930.0406,-3544.14L13930.0276,-3544.1513L13929.9587,-3544.2092L13929.9438,-3544.2226L13929.9179,-3544.2432"/>
<path content="1,神奈川中央交通（株）,愛11,16.5,11.0,11.0," xlink:title="1" d="M13929.9179,-3544.2432L13929.861,-3544.1895L13929.8465,-3544.1766L13929.766,-3544.1022L13929.7529,-3544.0999L13929.7357,-3544.0982L13929.7226,-3544.0982L13929.7061,-3544.0954L13929.6855,-3544.0926L13929.6759,-3544.0909L13929.6394,-3544.0876L13929.5919,-3544.0831L13929.5809,-3544.0808L13929.5712,-3544.0718L13929.5234,-3544.0328"/>
<path content="1,神奈川中央交通（株）,愛11,16.5,11.0,11.0," xlink:title="1" d="M13929.9179,-3544.2432L13929.892,-3544.2696L13929.8747,-3544.2881L13929.8355,-3544.327L13929.8046,-3544.3647L13929.7478,-3544.4268L13929.735,-3544.4408L13929.7164,-3544.4594L13929.6772,-3544.4988L13929.6665,-3544.5127L13929.6511,-3544.5276L13929.6428,-3544.5388L13929.607,-3544.5726L13929.543,-3544.6323L13929.5423,-3544.634L13929.5361,-3544.6397L13929.5237,-3544.656L13929.5162,-3544.6712L13929.51,-3544.6853L13929.4714,-3544.6904L13929.4354,-3544.6904L13929.4177,-3544.6876L13929.3971,-3544.6819L13929.3696,-3544.6718L13929.3599,-3544.6712L13929.3551,-3544.6724L13929.3228,-3544.6786L13929.3131,-3544.6802L13929.1431,-3544.7112L13929.1252,-3544.7146L13929.1059,-3544.7208L13929.0991,-3544.7247L13929.0929,-3544.7315L13929.0901,-3544.7377L13929.0894,-3544.7523L13929.0908,-3544.7557L13929.0963,-3544.7664L13929.1041,-3544.7789"/>
<path content="1,神奈川中央交通（株）,愛15,22.5,22.0,17.5," xlink:title="1" d="M13930.6641,-3544.101L13930.6553,-3544.1045L13930.6401,-3544.1124L13930.6195,-3544.1293L13930.6078,-3544.1417L13930.6009,-3544.1513L13930.5974,-3544.1586L13930.5973,-3544.1611L13930.5971,-3544.1636L13930.5919,-3544.2374L13930.5909,-3544.28L13930.5906,-3544.3039L13930.5885,-3544.3484L13930.5892,-3544.3772L13930.5871,-3544.393L13930.5816,-3544.4088L13930.5761,-3544.4268L13930.5513,-3544.4938L13930.5452,-3544.5073L13930.5245,-3544.5546L13930.4949,-3544.6194L13930.4618,-3544.7034L13930.4542,-3544.7262L13930.4466,-3544.7494L13930.4459,-3544.7514L13930.4452,-3544.7535L13930.4434,-3544.759L13930.4219,-3544.8386L13930.4109,-3544.8735L13930.4061,-3544.8974L13930.3919,-3544.9469L13930.3912,-3544.9499L13930.3905,-3544.953L13930.3724,-3545.0375L13930.3634,-3545.0791L13930.3572,-3545.1236L13930.3551,-3545.1546L13930.3572,-3545.1698L13930.362,-3545.1856L13930.3731,-3545.2025L13930.3951,-3545.2301L13930.4301,-3545.2557L13930.4351,-3545.2616L13930.4935,-3545.2978L13930.5059,-3545.3039L13930.4956,-3545.3141L13930.4756,-3545.34L13930.4646,-3545.3586L13930.4522,-3545.3884L13930.446,-3545.4098L13930.4405,-3545.4321L13930.4357,-3545.4583L13930.4226,-3545.5141L13930.4109,-3545.5716L13930.4047,-3545.5986L13930.4013,-3545.6114"/>
<path content="1,神奈川中央交通（株）,愛16,22.5,28.0,28.0," xlink:title="1" d="M13930.6641,-3545.1831L13930.6002,-3545.229L13930.5692,-3545.2527L13930.5059,-3545.3039L13930.4956,-3545.3141L13930.4756,-3545.34L13930.4646,-3545.3586L13930.4522,-3545.3884L13930.446,-3545.4098L13930.4405,-3545.4321L13930.4357,-3545.4583L13930.4226,-3545.5141L13930.4109,-3545.5716L13930.4047,-3545.5986L13930.4013,-3545.6114"/>
<path content="1,神奈川中央交通（株）,愛17,26.0,0.0,0.0," xlink:title="1" d="M13930.6641,-3545.1831L13930.6002,-3545.229L13930.5692,-3545.2527L13930.5059,-3545.3039L13930.4956,-3545.3141L13930.4756,-3545.34L13930.4646,-3545.3586L13930.4522,-3545.3884L13930.446,-3545.4098L13930.4405,-3545.4321L13930.4357,-3545.4583L13930.4226,-3545.5141L13930.4109,-3545.5716L13930.4047,-3545.5986L13930.4013,-3545.6114"/>
<path content="1,神奈川中央交通（株）,秦21,2.0,6.0,6.5," xlink:title="1" d="M13921.875,-3542.4904L13921.8896,-3542.4834L13921.8972,-3542.4812L13921.9213,-3542.4789L13921.9477,-3542.4744L13921.9578,-3542.4725L13921.9847,-3542.4749L13922.0051,-3542.4769L13922.0188,-3542.4766L13922.0356,-3542.4743L13922.0552,-3542.4686L13922.0678,-3542.4669L13922.077,-3542.4698L13922.0921,-3542.4842L13922.114,-3542.5113L13922.1226,-3542.5147L13922.1465,-3542.515L13922.1782,-3542.5102L13922.1954,-3542.5099L13922.2048,-3542.5134L13922.215,-3542.5201L13922.2236,-3542.5288L13922.2279,-3542.5368L13922.2311,-3542.5512L13922.2324,-3542.5598L13922.2332,-3542.5731L13922.2303,-3542.5826L13922.2241,-3542.5927L13922.2069,-3542.6096L13922.1911,-3542.6203L13922.1753,-3542.6282L13922.1539,-3542.6372L13922.1395,-3542.649L13922.134,-3542.6581L13922.134,-3542.6666L13922.1361,-3542.6747L13922.1565,-3542.6937L13922.1607,-3542.7002L13922.1598,-3542.7077L13922.1547,-3542.715L13922.1477,-3542.7191L13922.1402,-3542.7211L13922.1294,-3542.7223L13922.1177,-3542.7228L13922.1026,-3542.7223L13922.073,-3542.7211L13922.0638,-3542.7211L13922.039,-3542.7245L13922.006,-3542.7346L13921.9913,-3542.7402L13921.9719,-3542.7491"/>
</g>
</svg>
