<?xml version="1.0" encoding="UTF-8"?>
<svg  xmlns="http://www.w3.org/2000/svg" xmlns:xlink="http://www.w3.org/1999/xlink" xmlns:go="http://purl.org/svgmap/profile" property="N07_001,N07_002,N07_003,N07_004,N07_005,N07_006,N07_007" viewBox="13899.90234375 -3561.767578125 2.197265625 2.197265625" go:dataArea="13899.90234375 -3561.767578125 2.197265625 2.197265625" >
<metadata>
 <rdf:RDF xmlns:rdf="http://www.w3.org/1999/02/22-rdf-syntax-ns#" xmlns:crs="http://opengis.org/xmldtds/transformations.dtd" xmlns:svg="http://www.w3.org/svg" >
  <rdf:Description>
   <crs:CoordinateReferenceSystem rdf:resource="http://purl.org/crs/84" svg:transform="matrix(100.0,0.0,0.0,-100.0,0.0,0.0)" />
  </rdf:Description>
 </rdf:RDF>
</metadata>
<globalCoordinateSystem srsName="http://purl.org/crs/84" transform="matrix(100.0,0.0,0.0,-100.0,0.0,0.0)" />
<defs>
 <g id="p0" >
  <circle cx="0.0" cy="0.0" r="3" stroke="green" stroke-width="0.75" vector-effect="non-scaling-stroke" />
 </g>
</defs>
<g fill="none" fill-rule="evenodd" stroke="#FF00FF" stroke-width="0.75" opacity="0.5" vector-effect="non-scaling-stroke" stroke-linejoin="bevel" >
<path content="1,JRバス関東（株）,プレミアム中央ドリーム号/中央ドリーム号/プレミアムドリーム号/ドリーム号/レディースドリーム号/プレミアムレディース,9.4,12.0,12.0," xlink:title="1" d="M13902.0996,-3561.1465L13902.0188,-3561.1406L13901.8937,-3561.1298L13901.8338,-3561.1229L13901.7281,-3561.1097L13901.7281,-3561.1097L13901.7281,-3561.1097L13901.7274,-3561.1096L13901.7274,-3561.1096L13901.7274,-3561.1096L13901.7274,-3561.1096L13901.7273,-3561.1096L13901.7273,-3561.1096L13901.7272,-3561.1096L13901.7272,-3561.1096L13901.7272,-3561.1096L13901.7271,-3561.1096L13901.727,-3561.1096L13901.7269,-3561.1096L13901.7268,-3561.1095L13901.7266,-3561.1095L13901.6302,-3561.0962L13901.5101,-3561.0699L13901.5073,-3561.0693L13901.5073,-3561.0693L13901.5073,-3561.0693L13901.4842,-3561.0651L13901.484,-3561.0651L13901.4839,-3561.0651L13901.4838,-3561.065L13901.4827,-3561.0648L13901.4814,-3561.0646L13901.4806,-3561.0644L13901.383,-3561.0467L13901.2292,-3561.0249L13901.2128,-3561.0234L13901.1782,-3561.0189L13901.1254,-3561.0157L13901.0496,-3561.0131L13901.0478,-3561.013L13901.0471,-3561.013L13901.043,-3561.013L13901.0319,-3561.013L13901.0303,-3561.013L13901.017,-3561.013L13900.9741,-3561.0131L13900.9278,-3561.0162L13900.8657,-3561.0249L13900.7096,-3561.0566L13900.6685,-3561.0688L13900.6421,-3561.0768L13900.5802,-3561.1005L13900.5791,-3561.1009L13900.5791,-3561.1009L13900.5143,-3561.1302L13900.4678,-3561.155L13900.4617,-3561.1589L13900.4529,-3561.1646L13900.3748,-3561.215L13900.2663,-3561.2878L13900.1703,-3561.3603L13900.0143,-3561.4824L13900,-3561.4935L13899.9023,-3561.5694"/>
<path content="1,JRバス関東（株）,中央ドリーム名古屋号,1.0,1.0,1.0," xlink:title="1" d="M13902.0996,-3561.1465L13902.0188,-3561.1406L13901.8937,-3561.1298L13901.8338,-3561.1229L13901.7281,-3561.1097L13901.7281,-3561.1097L13901.7281,-3561.1097L13901.7274,-3561.1096L13901.7274,-3561.1096L13901.7274,-3561.1096L13901.7274,-3561.1096L13901.7273,-3561.1096L13901.7273,-3561.1096L13901.7272,-3561.1096L13901.7272,-3561.1096L13901.7272,-3561.1096L13901.7271,-3561.1096L13901.727,-3561.1096L13901.7269,-3561.1096L13901.7268,-3561.1095L13901.7266,-3561.1095L13901.6302,-3561.0962L13901.5101,-3561.0699L13901.5073,-3561.0693L13901.5073,-3561.0693L13901.5073,-3561.0693L13901.4842,-3561.0651L13901.484,-3561.0651L13901.4839,-3561.0651L13901.4838,-3561.065L13901.4827,-3561.0648L13901.4814,-3561.0646L13901.4806,-3561.0644L13901.383,-3561.0467L13901.2292,-3561.0249L13901.2128,-3561.0234L13901.1782,-3561.0189L13901.1254,-3561.0157L13901.0496,-3561.0131L13901.0478,-3561.013L13901.0471,-3561.013L13901.043,-3561.013L13901.0319,-3561.013L13901.0303,-3561.013L13901.017,-3561.013L13900.9741,-3561.0131L13900.9278,-3561.0162L13900.8657,-3561.0249L13900.7096,-3561.0566L13900.6685,-3561.0688L13900.6421,-3561.0768L13900.5802,-3561.1005L13900.5791,-3561.1009L13900.5791,-3561.1009L13900.5143,-3561.1302L13900.4678,-3561.155L13900.4617,-3561.1589L13900.4529,-3561.1646L13900.3748,-3561.215L13900.2663,-3561.2878L13900.1703,-3561.3603L13900.0143,-3561.4824L13900,-3561.4935L13899.9023,-3561.5694"/>
<path content="1,JRバス関東（株）,中央ライナー,2.5,2.5,2.5," xlink:title="1" d="M13902.0996,-3561.1465L13902.0188,-3561.1406L13901.8937,-3561.1298L13901.8338,-3561.1229L13901.7281,-3561.1097L13901.7281,-3561.1097L13901.7281,-3561.1097L13901.7274,-3561.1096L13901.7274,-3561.1096L13901.7274,-3561.1096L13901.7274,-3561.1096L13901.7273,-3561.1096L13901.7273,-3561.1096L13901.7272,-3561.1096L13901.7272,-3561.1096L13901.7272,-3561.1096L13901.7271,-3561.1096L13901.727,-3561.1096L13901.7269,-3561.1096L13901.7268,-3561.1095L13901.7266,-3561.1095L13901.6302,-3561.0962L13901.5101,-3561.0699L13901.5073,-3561.0693L13901.5073,-3561.0693L13901.5073,-3561.0693L13901.4842,-3561.0651L13901.484,-3561.0651L13901.4839,-3561.0651L13901.4838,-3561.065L13901.4827,-3561.0648L13901.4814,-3561.0646L13901.4806,-3561.0644L13901.383,-3561.0467L13901.2292,-3561.0249L13901.2128,-3561.0234L13901.1782,-3561.0189L13901.1254,-3561.0157L13901.0496,-3561.0131L13901.0478,-3561.013L13901.0471,-3561.013L13901.043,-3561.013L13901.0319,-3561.013L13901.0303,-3561.013L13901.017,-3561.013L13900.9741,-3561.0131L13900.9278,-3561.0162L13900.8657,-3561.0249L13900.7096,-3561.0566L13900.6685,-3561.0688L13900.6421,-3561.0768L13900.5802,-3561.1005L13900.5791,-3561.1009L13900.5791,-3561.1009L13900.5143,-3561.1302L13900.4678,-3561.155L13900.4617,-3561.1589L13900.4529,-3561.1646L13900.3748,-3561.215L13900.2663,-3561.2878L13900.1703,-3561.3603L13900.0143,-3561.4824L13900,-3561.4935L13899.9023,-3561.5694"/>
<path content="1,JRバス関東（株）,新宿～諏訪駅・岡谷駅,2.0,2.0,2.0," xlink:title="1" d="M13902.0996,-3561.1465L13902.0188,-3561.1406L13901.8937,-3561.1298L13901.8338,-3561.1229L13901.7281,-3561.1097L13901.7281,-3561.1097L13901.7281,-3561.1097L13901.7274,-3561.1096L13901.7274,-3561.1096L13901.7274,-3561.1096L13901.7274,-3561.1096L13901.7273,-3561.1096L13901.7273,-3561.1096L13901.7272,-3561.1096L13901.7272,-3561.1096L13901.7272,-3561.1096L13901.7271,-3561.1096L13901.727,-3561.1096L13901.7269,-3561.1096L13901.7268,-3561.1095L13901.7266,-3561.1095L13901.6302,-3561.0962L13901.5101,-3561.0699L13901.5073,-3561.0693L13901.5073,-3561.0693L13901.5073,-3561.0693L13901.4842,-3561.0651L13901.484,-3561.0651L13901.4839,-3561.0651L13901.4838,-3561.065L13901.4827,-3561.0648L13901.4814,-3561.0646L13901.4806,-3561.0644L13901.383,-3561.0467L13901.2292,-3561.0249L13901.2128,-3561.0234L13901.1782,-3561.0189L13901.1254,-3561.0157L13901.0496,-3561.0131L13901.0478,-3561.013L13901.0471,-3561.013L13901.043,-3561.013L13901.0319,-3561.013L13901.0303,-3561.013L13901.017,-3561.013L13900.9741,-3561.0131L13900.9278,-3561.0162L13900.8657,-3561.0249L13900.7096,-3561.0566L13900.6685,-3561.0688L13900.6421,-3561.0768L13900.5802,-3561.1005L13900.5791,-3561.1009L13900.5791,-3561.1009L13900.5143,-3561.1302L13900.4678,-3561.155L13900.4617,-3561.1589L13900.4529,-3561.1646L13900.3748,-3561.215L13900.2663,-3561.2878L13900.1703,-3561.3603L13900.0143,-3561.4824L13900,-3561.4935L13899.9023,-3561.5694"/>
<path content="1,JRバス関東（株）,東海道昼特急号/中央道昼特急号/青春昼特急号/プレミアム昼特急号,7.2,9.0,9.0," xlink:title="1" d="M13902.0996,-3561.1465L13902.0188,-3561.1406L13901.8937,-3561.1298L13901.8338,-3561.1229L13901.7281,-3561.1097L13901.7281,-3561.1097L13901.7281,-3561.1097L13901.7274,-3561.1096L13901.7274,-3561.1096L13901.7274,-3561.1096L13901.7274,-3561.1096L13901.7273,-3561.1096L13901.7273,-3561.1096L13901.7272,-3561.1096L13901.7272,-3561.1096L13901.7272,-3561.1096L13901.7271,-3561.1096L13901.727,-3561.1096L13901.7269,-3561.1096L13901.7268,-3561.1095L13901.7266,-3561.1095L13901.6302,-3561.0962L13901.5101,-3561.0699L13901.5073,-3561.0693L13901.5073,-3561.0693L13901.5073,-3561.0693L13901.4842,-3561.0651L13901.484,-3561.0651L13901.4839,-3561.0651L13901.4838,-3561.065L13901.4827,-3561.0648L13901.4814,-3561.0646L13901.4806,-3561.0644L13901.383,-3561.0467L13901.2292,-3561.0249L13901.2128,-3561.0234L13901.1782,-3561.0189L13901.1254,-3561.0157L13901.0496,-3561.0131L13901.0478,-3561.013L13901.0471,-3561.013L13901.043,-3561.013L13901.0319,-3561.013L13901.0303,-3561.013L13901.017,-3561.013L13900.9741,-3561.0131L13900.9278,-3561.0162L13900.8657,-3561.0249L13900.7096,-3561.0566L13900.6685,-3561.0688L13900.6421,-3561.0768L13900.5802,-3561.1005L13900.5791,-3561.1009L13900.5791,-3561.1009L13900.5143,-3561.1302L13900.4678,-3561.155L13900.4617,-3561.1589L13900.4529,-3561.1646L13900.3748,-3561.215L13900.2663,-3561.2878L13900.1703,-3561.3603L13900.0143,-3561.4824L13900,-3561.4935L13899.9023,-3561.5694"/>
<path content="1,JRバス関東（株）,青春中央ドリーム号/青春中央エコドリーム号/青春ドリーム号/青春レディースドリーム号/青春エコドリーム号/超得割青春号,10.0,14.0,14.0," xlink:title="1" d="M13902.0996,-3561.1465L13902.0188,-3561.1406L13901.8937,-3561.1298L13901.8338,-3561.1229L13901.7281,-3561.1097L13901.7281,-3561.1097L13901.7281,-3561.1097L13901.7274,-3561.1096L13901.7274,-3561.1096L13901.7274,-3561.1096L13901.7274,-3561.1096L13901.7273,-3561.1096L13901.7273,-3561.1096L13901.7272,-3561.1096L13901.7272,-3561.1096L13901.7272,-3561.1096L13901.7271,-3561.1096L13901.727,-3561.1096L13901.7269,-3561.1096L13901.7268,-3561.1095L13901.7266,-3561.1095L13901.6302,-3561.0962L13901.5101,-3561.0699L13901.5073,-3561.0693L13901.5073,-3561.0693L13901.5073,-3561.0693L13901.4842,-3561.0651L13901.484,-3561.0651L13901.4839,-3561.0651L13901.4838,-3561.065L13901.4827,-3561.0648L13901.4814,-3561.0646L13901.4806,-3561.0644L13901.383,-3561.0467L13901.2292,-3561.0249L13901.2128,-3561.0234L13901.1782,-3561.0189L13901.1254,-3561.0157L13901.0496,-3561.0131L13901.0478,-3561.013L13901.0471,-3561.013L13901.043,-3561.013L13901.0319,-3561.013L13901.0303,-3561.013L13901.017,-3561.013L13900.9741,-3561.0131L13900.9278,-3561.0162L13900.8657,-3561.0249L13900.7096,-3561.0566L13900.6685,-3561.0688L13900.6421,-3561.0768L13900.5802,-3561.1005L13900.5791,-3561.1009L13900.5791,-3561.1009L13900.5143,-3561.1302L13900.4678,-3561.155L13900.4617,-3561.1589L13900.4529,-3561.1646L13900.3748,-3561.215L13900.2663,-3561.2878L13900.1703,-3561.3603L13900.0143,-3561.4824L13900,-3561.4935L13899.9023,-3561.5694"/>
<path content="1,JR東海バス（株）,中央ドリームなごや号,1.0,1.0,1.0," xlink:title="1" d="M13899.9023,-3561.5694L13899.9999,-3561.4935L13900.0143,-3561.4824L13900.1703,-3561.3603L13900.2663,-3561.2878L13900.3748,-3561.215L13900.4528,-3561.1645L13900.4616,-3561.1588L13900.4678,-3561.1549L13900.5143,-3561.1301L13900.5791,-3561.1009L13900.6421,-3561.0768L13900.6684,-3561.0688L13900.7096,-3561.0564L13900.8656,-3561.0248L13900.9278,-3561.0162L13900.9741,-3561.013L13901.0468,-3561.0129L13901.0497,-3561.0131L13901.1253,-3561.0157L13901.1782,-3561.0189L13901.2128,-3561.0233L13901.2291,-3561.0249L13901.3829,-3561.0466L13901.5073,-3561.0693L13901.6302,-3561.0961L13901.7281,-3561.1097L13901.8337,-3561.1229L13901.8936,-3561.1297L13902.0188,-3561.1405L13902.0996,-3561.1465"/>
<path content="1,おんたけ交通（株）,木曽福島・新宿線,2.0,2.0,2.0," xlink:title="1" d="M13899.9023,-3561.5694L13899.9999,-3561.4935L13900.0143,-3561.4824L13900.1703,-3561.3603L13900.2663,-3561.2878L13900.3748,-3561.215L13900.4528,-3561.1645L13900.4616,-3561.1588L13900.4678,-3561.1549L13900.5143,-3561.1301L13900.5791,-3561.1009L13900.6421,-3561.0768L13900.6684,-3561.0688L13900.7096,-3561.0564L13900.8656,-3561.0248L13900.9278,-3561.0162L13900.9741,-3561.013L13901.0468,-3561.0129L13901.0497,-3561.0131L13901.1253,-3561.0157L13901.1782,-3561.0189L13901.2128,-3561.0233L13901.2291,-3561.0249L13901.3829,-3561.0466L13901.5073,-3561.0693L13901.6302,-3561.0961L13901.7281,-3561.1097L13901.8337,-3561.1229L13901.8936,-3561.1297L13902.0188,-3561.1405L13902.0996,-3561.1465"/>
<path content="1,ロウズ観光（株）,岡山・倉敷～東京,1.0,1.0,1.0," xlink:title="1" d="M13899.9023,-3561.5694L13899.9999,-3561.4935L13900.0143,-3561.4824L13900.1703,-3561.3603L13900.2663,-3561.2878L13900.3748,-3561.215L13900.4528,-3561.1645L13900.4616,-3561.1588L13900.4678,-3561.1549L13900.5143,-3561.1301L13900.5791,-3561.1009L13900.6421,-3561.0768L13900.6684,-3561.0688L13900.7096,-3561.0564L13900.8656,-3561.0248L13900.9278,-3561.0162L13900.9741,-3561.013L13901.0468,-3561.0129L13901.0497,-3561.0131L13901.1253,-3561.0157L13901.1782,-3561.0189L13901.2128,-3561.0233L13901.2291,-3561.0249L13901.3829,-3561.0466L13901.5073,-3561.0693L13901.6302,-3561.0961L13901.7281,-3561.1097L13901.8337,-3561.1229L13901.8936,-3561.1297L13902.0188,-3561.1405L13902.0996,-3561.1465"/>
<path content="1,三交伊勢志摩交通（株）,鳥羽・伊勢～東京・大宮,2.0,2.0,2.0," xlink:title="1" d="M13902.0996,-3561.1465L13902.0188,-3561.1405L13901.8936,-3561.1297L13901.8337,-3561.1229L13901.7281,-3561.1097L13901.6302,-3561.0961L13901.5073,-3561.0693L13901.3829,-3561.0466L13901.2291,-3561.0249L13901.2128,-3561.0233L13901.1782,-3561.0189L13901.1253,-3561.0157L13901.0497,-3561.0131L13901.0468,-3561.0129L13900.9741,-3561.013L13900.9278,-3561.0162L13900.8656,-3561.0248L13900.7096,-3561.0564L13900.6684,-3561.0688L13900.6421,-3561.0768L13900.5791,-3561.1009L13900.5143,-3561.1301L13900.4678,-3561.1549L13900.4616,-3561.1588L13900.4528,-3561.1645L13900.3748,-3561.215L13900.2663,-3561.2878L13900.1703,-3561.3603L13900.0143,-3561.4824L13899.9999,-3561.4935L13899.9023,-3561.5694"/>
<path content="1,三重交通（株）,鳥羽・伊勢～東京・大宮,2.0,2.0,2.0," xlink:title="1" d="M13902.0996,-3561.1465L13902.0188,-3561.1405L13901.8936,-3561.1297L13901.8337,-3561.1229L13901.7281,-3561.1097L13901.6302,-3561.0961L13901.5073,-3561.0693L13901.3829,-3561.0466L13901.2291,-3561.0249L13901.2128,-3561.0233L13901.1782,-3561.0189L13901.1253,-3561.0157L13901.0497,-3561.0131L13901.0468,-3561.0129L13900.9741,-3561.013L13900.9278,-3561.0162L13900.8656,-3561.0248L13900.7096,-3561.0564L13900.6684,-3561.0688L13900.6421,-3561.0768L13900.5791,-3561.1009L13900.5143,-3561.1301L13900.4678,-3561.1549L13900.4616,-3561.1588L13900.4528,-3561.1645L13900.3748,-3561.215L13900.2663,-3561.2878L13900.1703,-3561.3603L13900.0143,-3561.4824L13899.9999,-3561.4935L13899.9023,-3561.5694"/>
<path content="1,下津井電鉄（株）,岡山～東京線,1.0,1.0,1.0," xlink:title="1" d="M13899.9023,-3561.5694L13899.9999,-3561.4935L13900.0143,-3561.4824L13900.1703,-3561.3603L13900.2663,-3561.2878L13900.3748,-3561.215L13900.4528,-3561.1645L13900.4616,-3561.1588L13900.4678,-3561.1549L13900.5143,-3561.1301L13900.5791,-3561.1009L13900.6421,-3561.0768L13900.6684,-3561.0688L13900.7096,-3561.0564L13900.8656,-3561.0248L13900.9278,-3561.0162L13900.9741,-3561.013L13901.0468,-3561.0129L13901.0497,-3561.0131L13901.1253,-3561.0157L13901.1782,-3561.0189L13901.2128,-3561.0233L13901.2291,-3561.0249L13901.3829,-3561.0466L13901.5073,-3561.0693L13901.6302,-3561.0961L13901.7281,-3561.1097L13901.8337,-3561.1229L13901.8936,-3561.1297L13902.0188,-3561.1405L13902.0996,-3561.1465"/>
<path content="1,両備ホールディングス（株）,マスカット　倉敷～新宿線,1.0,1.0,1.0," xlink:title="1" d="M13899.9023,-3561.5694L13899.9999,-3561.4935L13900.0143,-3561.4824L13900.1703,-3561.3603L13900.2663,-3561.2878L13900.3748,-3561.215L13900.4528,-3561.1645L13900.4616,-3561.1588L13900.4678,-3561.1549L13900.5143,-3561.1301L13900.5791,-3561.1009L13900.6421,-3561.0768L13900.6684,-3561.0688L13900.7096,-3561.0564L13900.8656,-3561.0248L13900.9278,-3561.0162L13900.9741,-3561.013L13901.0468,-3561.0129L13901.0497,-3561.0131L13901.1253,-3561.0157L13901.1782,-3561.0189L13901.2128,-3561.0233L13901.2291,-3561.0249L13901.3829,-3561.0466L13901.5073,-3561.0693L13901.6302,-3561.0961L13901.7281,-3561.1097L13901.8337,-3561.1229L13901.8936,-3561.1297L13902.0188,-3561.1405L13902.0996,-3561.1465"/>
<path content="1,中国JRバス（株）,津和野・益田・浜田・三次～東京　いわみエクスプレス,1.0,1.0,1.0," xlink:title="1" d="M13899.9023,-3561.5694L13899.9999,-3561.4935L13900.0143,-3561.4824L13900.1703,-3561.3603L13900.2663,-3561.2878L13900.3748,-3561.215L13900.4528,-3561.1645L13900.4616,-3561.1588L13900.4678,-3561.1549L13900.5143,-3561.1301L13900.5791,-3561.1009L13900.6421,-3561.0768L13900.6684,-3561.0688L13900.7096,-3561.0564L13900.8656,-3561.0248L13900.9278,-3561.0162L13900.9741,-3561.013L13901.0468,-3561.0129L13901.0497,-3561.0131L13901.1253,-3561.0157L13901.1782,-3561.0189L13901.2128,-3561.0233L13901.2291,-3561.0249L13901.3829,-3561.0466L13901.5073,-3561.0693L13901.6302,-3561.0961L13901.7281,-3561.1097L13901.8337,-3561.1229L13901.8936,-3561.1297L13902.0188,-3561.1405L13902.0996,-3561.1465"/>
<path content="1,京成バス（株）,津田沼・西船橋・新浦安～富士急ハイランド・河口湖線,0.4,0.4,0.4," xlink:title="1" d="M13899.9023,-3561.5694L13899.9999,-3561.4935L13900.0143,-3561.4824L13900.1703,-3561.3603L13900.2663,-3561.2878L13900.3748,-3561.215L13900.4528,-3561.1645L13900.4616,-3561.1588L13900.4678,-3561.1549L13900.5143,-3561.1301L13900.5791,-3561.1009L13900.6421,-3561.0768L13900.6684,-3561.0688L13900.7096,-3561.0564L13900.8656,-3561.0248L13900.9278,-3561.0162L13900.9741,-3561.013L13901.0468,-3561.0129L13901.0497,-3561.0131L13901.1253,-3561.0157L13901.1782,-3561.0189L13901.2128,-3561.0233L13901.2291,-3561.0249L13901.3829,-3561.0466L13901.4806,-3561.0644L13901.4814,-3561.0646L13901.4827,-3561.0648L13901.4838,-3561.065L13901.4839,-3561.0651L13901.484,-3561.0651L13901.4842,-3561.0651L13901.5073,-3561.0693L13901.5073,-3561.0693L13901.5073,-3561.0693L13901.5101,-3561.0699L13901.6302,-3561.0961L13901.7266,-3561.1095L13901.7268,-3561.1095L13901.7269,-3561.1096L13901.727,-3561.1096L13901.7271,-3561.1096L13901.7272,-3561.1096L13901.7272,-3561.1096L13901.7272,-3561.1096L13901.7273,-3561.1096L13901.7273,-3561.1096L13901.7274,-3561.1096L13901.7274,-3561.1096L13901.7274,-3561.1096L13901.7274,-3561.1096L13901.7281,-3561.1097L13901.7281,-3561.1097L13901.7281,-3561.1097L13901.8337,-3561.1229L13901.8936,-3561.1297L13902.0188,-3561.1405L13902.0188,-3561.1405L13902.0188,-3561.1405L13902.0996,-3561.1465"/>
<path content="1,京浜急行バス（株）,甲府駅・竜王～羽田空港線,2.0,2.0,2.0," xlink:title="1" d="M13902.0996,-3561.1465L13902.0188,-3561.1405L13902.0188,-3561.1405L13902.0188,-3561.1405L13902.0188,-3561.1405L13901.8937,-3561.1298L13901.8338,-3561.1229L13901.8338,-3561.1229L13901.7281,-3561.1097L13901.7281,-3561.1097L13901.7281,-3561.1097L13901.7274,-3561.1096L13901.7274,-3561.1096L13901.7274,-3561.1096L13901.7274,-3561.1096L13901.7273,-3561.1096L13901.7273,-3561.1096L13901.7272,-3561.1096L13901.7272,-3561.1096L13901.7272,-3561.1096L13901.7271,-3561.1096L13901.727,-3561.1096L13901.7269,-3561.1096L13901.7268,-3561.1095L13901.7266,-3561.1095L13901.6302,-3561.0962L13901.5101,-3561.0699L13901.5073,-3561.0693L13901.5073,-3561.0693L13901.5073,-3561.0693L13901.4842,-3561.0651L13901.484,-3561.0651L13901.4839,-3561.0651L13901.4838,-3561.065L13901.4827,-3561.0648L13901.4814,-3561.0646L13901.4806,-3561.0644L13901.3829,-3561.0467L13901.2292,-3561.0249L13901.2292,-3561.0249L13901.2128,-3561.0233L13901.1782,-3561.0189L13901.1253,-3561.0157L13901.1253,-3561.0157L13901.1253,-3561.0157L13901.0497,-3561.0131L13901.0473,-3561.013L13901.0469,-3561.013L13901.0303,-3561.013L13900.9741,-3561.0131L13900.9278,-3561.0162L13900.8656,-3561.0249L13900.7096,-3561.0565L13900.6684,-3561.0688L13900.6421,-3561.0768L13900.5802,-3561.1005L13900.5791,-3561.1009L13900.5791,-3561.1009L13900.5143,-3561.1301L13900.4678,-3561.1549L13900.4616,-3561.1589L13900.4529,-3561.1645L13900.3748,-3561.215L13900.2663,-3561.2878L13900.1703,-3561.3603L13900.0143,-3561.4824L13900,-3561.4935L13899.9023,-3561.5694"/>
<path content="1,京王バス南（株）,新宿・渋谷～大阪（阪急梅田）線,1.0,1.0,1.0," xlink:title="1" d="M13899.9023,-3561.5694L13900,-3561.4935L13900.0143,-3561.4824L13900.1703,-3561.3603L13900.2663,-3561.2878L13900.3748,-3561.215L13900.4529,-3561.1646L13900.4617,-3561.1589L13900.4678,-3561.155L13900.5143,-3561.1302L13900.5791,-3561.1009L13900.5791,-3561.1009L13900.5802,-3561.1005L13900.6421,-3561.0768L13900.6685,-3561.0688L13900.7096,-3561.0566L13900.8657,-3561.0249L13900.9278,-3561.0162L13900.9741,-3561.0131L13901.017,-3561.013L13901.0303,-3561.013L13901.0319,-3561.013L13901.043,-3561.013L13901.0471,-3561.013L13901.0478,-3561.013L13901.0496,-3561.0131L13901.1254,-3561.0157L13901.1782,-3561.0189L13901.2128,-3561.0234L13901.2292,-3561.0249L13901.383,-3561.0467L13901.4806,-3561.0644L13901.4814,-3561.0646L13901.4827,-3561.0648L13901.4838,-3561.065L13901.4839,-3561.0651L13901.484,-3561.0651L13901.4842,-3561.0651L13901.5073,-3561.0693L13901.5073,-3561.0693L13901.5073,-3561.0693L13901.5101,-3561.0699L13901.6302,-3561.0962L13901.7266,-3561.1095L13901.7268,-3561.1095L13901.7269,-3561.1096L13901.727,-3561.1096L13901.7271,-3561.1096L13901.7272,-3561.1096L13901.7272,-3561.1096L13901.7272,-3561.1096L13901.7273,-3561.1096L13901.7273,-3561.1096L13901.7274,-3561.1096L13901.7274,-3561.1096L13901.7274,-3561.1096L13901.7274,-3561.1096L13901.7281,-3561.1097L13901.7281,-3561.1097L13901.7281,-3561.1097L13901.8338,-3561.1229L13901.8937,-3561.1298L13902.0188,-3561.1406L13902.0996,-3561.1465"/>
<path content="1,京王バス南（株）,新宿～伊那・飯田線,9.0,9.0,9.0," xlink:title="1" d="M13902.0996,-3561.1465L13902.0188,-3561.1406L13901.8937,-3561.1298L13901.8338,-3561.1229L13901.7281,-3561.1097L13901.7281,-3561.1097L13901.7281,-3561.1097L13901.7274,-3561.1096L13901.7274,-3561.1096L13901.7274,-3561.1096L13901.7274,-3561.1096L13901.7273,-3561.1096L13901.7273,-3561.1096L13901.7272,-3561.1096L13901.7272,-3561.1096L13901.7272,-3561.1096L13901.7271,-3561.1096L13901.727,-3561.1096L13901.7269,-3561.1096L13901.7268,-3561.1095L13901.7266,-3561.1095L13901.6302,-3561.0962L13901.5101,-3561.0699L13901.5073,-3561.0693L13901.5073,-3561.0693L13901.5073,-3561.0693L13901.4842,-3561.0651L13901.484,-3561.0651L13901.4839,-3561.0651L13901.4838,-3561.065L13901.4827,-3561.0648L13901.4814,-3561.0646L13901.4806,-3561.0644L13901.383,-3561.0467L13901.2292,-3561.0249L13901.2128,-3561.0234L13901.1782,-3561.0189L13901.1254,-3561.0157L13901.0496,-3561.0131L13901.0478,-3561.013L13901.0471,-3561.013L13901.043,-3561.013L13901.0319,-3561.013L13901.0303,-3561.013L13901.017,-3561.013L13900.9741,-3561.0131L13900.9278,-3561.0162L13900.8657,-3561.0249L13900.7096,-3561.0566L13900.6685,-3561.0688L13900.6421,-3561.0768L13900.5802,-3561.1005L13900.5791,-3561.1009L13900.5791,-3561.1009L13900.5143,-3561.1302L13900.4678,-3561.155L13900.4617,-3561.1589L13900.4529,-3561.1646L13900.3748,-3561.215L13900.2663,-3561.2878L13900.1703,-3561.3603L13900.0143,-3561.4824L13900,-3561.4935L13899.9023,-3561.5694"/>
<path content="1,京王バス南（株）,新宿～名古屋線,2.0,2.0,2.0," xlink:title="1" d="M13899.9023,-3561.5694L13900,-3561.4935L13900.0143,-3561.4824L13900.1703,-3561.3603L13900.2663,-3561.2878L13900.3748,-3561.215L13900.4529,-3561.1646L13900.4617,-3561.1589L13900.4678,-3561.155L13900.5143,-3561.1302L13900.5791,-3561.1009L13900.5791,-3561.1009L13900.5802,-3561.1005L13900.6421,-3561.0768L13900.6685,-3561.0688L13900.7096,-3561.0566L13900.8657,-3561.0249L13900.9278,-3561.0162L13900.9741,-3561.0131L13901.017,-3561.013L13901.0303,-3561.013L13901.0319,-3561.013L13901.043,-3561.013L13901.0471,-3561.013L13901.0478,-3561.013L13901.0496,-3561.0131L13901.1254,-3561.0157L13901.1782,-3561.0189L13901.2128,-3561.0234L13901.2292,-3561.0249L13901.383,-3561.0467L13901.4806,-3561.0644L13901.4814,-3561.0646L13901.4827,-3561.0648L13901.4838,-3561.065L13901.4839,-3561.0651L13901.484,-3561.0651L13901.4842,-3561.0651L13901.5073,-3561.0693L13901.5073,-3561.0693L13901.5073,-3561.0693L13901.5101,-3561.0699L13901.6302,-3561.0962L13901.7266,-3561.1095L13901.7268,-3561.1095L13901.7269,-3561.1096L13901.727,-3561.1096L13901.7271,-3561.1096L13901.7272,-3561.1096L13901.7272,-3561.1096L13901.7272,-3561.1096L13901.7273,-3561.1096L13901.7273,-3561.1096L13901.7274,-3561.1096L13901.7274,-3561.1096L13901.7274,-3561.1096L13901.7274,-3561.1096L13901.7281,-3561.1097L13901.7281,-3561.1097L13901.7281,-3561.1097L13901.8338,-3561.1229L13901.8937,-3561.1298L13902.0188,-3561.1406L13902.0996,-3561.1465"/>
<path content="1,京王バス南（株）,新宿～富士五湖線,10.0,10.0,10.0," xlink:title="1" d="M13902.0996,-3561.1465L13902.0188,-3561.1405L13902.0188,-3561.1405L13902.0188,-3561.1405L13901.8936,-3561.1297L13901.8337,-3561.1229L13901.7281,-3561.1097L13901.7281,-3561.1097L13901.7281,-3561.1097L13901.7274,-3561.1096L13901.7274,-3561.1096L13901.7274,-3561.1096L13901.7274,-3561.1096L13901.7273,-3561.1096L13901.7273,-3561.1096L13901.7272,-3561.1096L13901.7272,-3561.1096L13901.7272,-3561.1096L13901.7271,-3561.1096L13901.727,-3561.1096L13901.7269,-3561.1096L13901.7268,-3561.1095L13901.7266,-3561.1095L13901.6302,-3561.0961L13901.5101,-3561.0699L13901.5073,-3561.0693L13901.5073,-3561.0693L13901.5073,-3561.0693L13901.4842,-3561.0651L13901.484,-3561.0651L13901.4839,-3561.0651L13901.4838,-3561.065L13901.4827,-3561.0648L13901.4814,-3561.0646L13901.4806,-3561.0644L13901.3829,-3561.0466L13901.2291,-3561.0249L13901.2128,-3561.0233L13901.1782,-3561.0189L13901.1253,-3561.0157L13901.0497,-3561.0131L13901.0468,-3561.0129L13900.9741,-3561.013L13900.9278,-3561.0162L13900.8656,-3561.0248L13900.7096,-3561.0564L13900.6684,-3561.0688L13900.6421,-3561.0768L13900.5791,-3561.1009L13900.5143,-3561.1301L13900.4678,-3561.1549L13900.4616,-3561.1588L13900.4528,-3561.1645L13900.3748,-3561.215L13900.2663,-3561.2878L13900.1703,-3561.3603L13900.0143,-3561.4824L13899.9999,-3561.4935L13899.9023,-3561.5694"/>
<path content="1,京王バス南（株）,新宿～富士山五合目線,0.6,0.9,0.9," xlink:title="1" d="M13899.9023,-3561.5694L13899.9999,-3561.4935L13900.0143,-3561.4824L13900.1703,-3561.3603L13900.2663,-3561.2878L13900.3748,-3561.215L13900.4528,-3561.1645L13900.4616,-3561.1588L13900.4678,-3561.1549L13900.5143,-3561.1301L13900.5791,-3561.1009L13900.6421,-3561.0768L13900.6684,-3561.0688L13900.7096,-3561.0564L13900.8656,-3561.0248L13900.9278,-3561.0162L13900.9741,-3561.013L13901.0468,-3561.0129L13901.0497,-3561.0131L13901.1253,-3561.0157L13901.1782,-3561.0189L13901.2128,-3561.0233L13901.2291,-3561.0249L13901.3829,-3561.0466L13901.4806,-3561.0644L13901.4814,-3561.0646L13901.4827,-3561.0648L13901.4838,-3561.065L13901.4839,-3561.0651L13901.484,-3561.0651L13901.4842,-3561.0651L13901.5073,-3561.0693L13901.5073,-3561.0693L13901.5073,-3561.0693L13901.5101,-3561.0699L13901.6302,-3561.0961L13901.7266,-3561.1095L13901.7268,-3561.1095L13901.7269,-3561.1096L13901.727,-3561.1096L13901.7271,-3561.1096L13901.7272,-3561.1096L13901.7272,-3561.1096L13901.7272,-3561.1096L13901.7273,-3561.1096L13901.7273,-3561.1096L13901.7274,-3561.1096L13901.7274,-3561.1096L13901.7274,-3561.1096L13901.7274,-3561.1096L13901.7281,-3561.1097L13901.7281,-3561.1097L13901.7281,-3561.1097L13901.8337,-3561.1229L13901.8936,-3561.1297L13902.0188,-3561.1405L13902.0188,-3561.1405L13902.0188,-3561.1405L13902.0996,-3561.1465"/>
<path content="1,京王バス南（株）,新宿～木曽福島線,1.0,1.0,1.0," xlink:title="1" d="M13902.0996,-3561.1465L13902.0188,-3561.1406L13901.8937,-3561.1298L13901.8338,-3561.1229L13901.7281,-3561.1097L13901.7281,-3561.1097L13901.7281,-3561.1097L13901.7274,-3561.1096L13901.7274,-3561.1096L13901.7274,-3561.1096L13901.7274,-3561.1096L13901.7273,-3561.1096L13901.7273,-3561.1096L13901.7272,-3561.1096L13901.7272,-3561.1096L13901.7272,-3561.1096L13901.7271,-3561.1096L13901.727,-3561.1096L13901.7269,-3561.1096L13901.7268,-3561.1095L13901.7266,-3561.1095L13901.6302,-3561.0962L13901.5101,-3561.0699L13901.5073,-3561.0693L13901.5073,-3561.0693L13901.5073,-3561.0693L13901.4842,-3561.0651L13901.484,-3561.0651L13901.4839,-3561.0651L13901.4838,-3561.065L13901.4827,-3561.0648L13901.4814,-3561.0646L13901.4806,-3561.0644L13901.383,-3561.0467L13901.2292,-3561.0249L13901.2128,-3561.0234L13901.1782,-3561.0189L13901.1254,-3561.0157L13901.0496,-3561.0131L13901.0478,-3561.013L13901.0471,-3561.013L13901.043,-3561.013L13901.0319,-3561.013L13901.0303,-3561.013L13901.017,-3561.013L13900.9741,-3561.0131L13900.9278,-3561.0162L13900.8657,-3561.0249L13900.7096,-3561.0566L13900.6685,-3561.0688L13900.6421,-3561.0768L13900.5802,-3561.1005L13900.5791,-3561.1009L13900.5791,-3561.1009L13900.5143,-3561.1302L13900.4678,-3561.155L13900.4617,-3561.1589L13900.4529,-3561.1646L13900.3748,-3561.215L13900.2663,-3561.2878L13900.1703,-3561.3603L13900.0143,-3561.4824L13900,-3561.4935L13899.9023,-3561.5694"/>
<path content="1,京王バス南（株）,新宿～松本線,11.0,11.0,11.0," xlink:title="1" d="M13902.0996,-3561.1465L13902.0188,-3561.1406L13901.8937,-3561.1298L13901.8338,-3561.1229L13901.7281,-3561.1097L13901.7281,-3561.1097L13901.7281,-3561.1097L13901.7274,-3561.1096L13901.7274,-3561.1096L13901.7274,-3561.1096L13901.7274,-3561.1096L13901.7273,-3561.1096L13901.7273,-3561.1096L13901.7272,-3561.1096L13901.7272,-3561.1096L13901.7272,-3561.1096L13901.7271,-3561.1096L13901.727,-3561.1096L13901.7269,-3561.1096L13901.7268,-3561.1095L13901.7266,-3561.1095L13901.6302,-3561.0962L13901.5101,-3561.0699L13901.5073,-3561.0693L13901.5073,-3561.0693L13901.5073,-3561.0693L13901.4842,-3561.0651L13901.484,-3561.0651L13901.4839,-3561.0651L13901.4838,-3561.065L13901.4827,-3561.0648L13901.4814,-3561.0646L13901.4806,-3561.0644L13901.383,-3561.0467L13901.2292,-3561.0249L13901.2128,-3561.0234L13901.1782,-3561.0189L13901.1254,-3561.0157L13901.0496,-3561.0131L13901.0478,-3561.013L13901.0471,-3561.013L13901.043,-3561.013L13901.0319,-3561.013L13901.0303,-3561.013L13901.017,-3561.013L13900.9741,-3561.0131L13900.9278,-3561.0162L13900.8657,-3561.0249L13900.7096,-3561.0566L13900.6685,-3561.0688L13900.6421,-3561.0768L13900.5802,-3561.1005L13900.5791,-3561.1009L13900.5791,-3561.1009L13900.5143,-3561.1302L13900.4678,-3561.155L13900.4617,-3561.1589L13900.4529,-3561.1646L13900.3748,-3561.215L13900.2663,-3561.2878L13900.1703,-3561.3603L13900.0143,-3561.4824L13900,-3561.4935L13899.9023,-3561.5694"/>
<path content="1,京王バス南（株）,新宿～甲府線,9.0,9.0,9.0," xlink:title="1" d="M13902.0996,-3561.1465L13902.0188,-3561.1405L13902.0188,-3561.1405L13902.0188,-3561.1405L13901.8936,-3561.1297L13901.8337,-3561.1229L13901.7281,-3561.1097L13901.7281,-3561.1097L13901.7281,-3561.1097L13901.7274,-3561.1096L13901.7274,-3561.1096L13901.7274,-3561.1096L13901.7274,-3561.1096L13901.7273,-3561.1096L13901.7273,-3561.1096L13901.7272,-3561.1096L13901.7272,-3561.1096L13901.7272,-3561.1096L13901.7271,-3561.1096L13901.727,-3561.1096L13901.7269,-3561.1096L13901.7268,-3561.1095L13901.7266,-3561.1095L13901.6302,-3561.0961L13901.5101,-3561.0699L13901.5073,-3561.0693L13901.5073,-3561.0693L13901.5073,-3561.0693L13901.4842,-3561.0651L13901.484,-3561.0651L13901.4839,-3561.0651L13901.4838,-3561.065L13901.4827,-3561.0648L13901.4814,-3561.0646L13901.4806,-3561.0644L13901.3829,-3561.0466L13901.2291,-3561.0249L13901.2128,-3561.0233L13901.1782,-3561.0189L13901.1253,-3561.0157L13901.0497,-3561.0131L13901.0468,-3561.0129L13900.9741,-3561.013L13900.9278,-3561.0162L13900.8656,-3561.0248L13900.7096,-3561.0564L13900.6684,-3561.0688L13900.6421,-3561.0768L13900.5791,-3561.1009L13900.5143,-3561.1301L13900.4678,-3561.1549L13900.4616,-3561.1588L13900.4528,-3561.1645L13900.3748,-3561.215L13900.2663,-3561.2878L13900.1703,-3561.3603L13900.0143,-3561.4824L13899.9999,-3561.4935L13899.9023,-3561.5694"/>
<path content="1,京王バス南（株）,新宿～白馬線,2.0,2.0,2.0," xlink:title="1" d="M13902.0996,-3561.1465L13902.0188,-3561.1406L13901.8937,-3561.1298L13901.8338,-3561.1229L13901.7281,-3561.1097L13901.7281,-3561.1097L13901.7281,-3561.1097L13901.7274,-3561.1096L13901.7274,-3561.1096L13901.7274,-3561.1096L13901.7274,-3561.1096L13901.7273,-3561.1096L13901.7273,-3561.1096L13901.7272,-3561.1096L13901.7272,-3561.1096L13901.7272,-3561.1096L13901.7271,-3561.1096L13901.727,-3561.1096L13901.7269,-3561.1096L13901.7268,-3561.1095L13901.7266,-3561.1095L13901.6302,-3561.0962L13901.5101,-3561.0699L13901.5073,-3561.0693L13901.5073,-3561.0693L13901.5073,-3561.0693L13901.4842,-3561.0651L13901.484,-3561.0651L13901.4839,-3561.0651L13901.4838,-3561.065L13901.4827,-3561.0648L13901.4814,-3561.0646L13901.4806,-3561.0644L13901.383,-3561.0467L13901.2292,-3561.0249L13901.2128,-3561.0234L13901.1782,-3561.0189L13901.1254,-3561.0157L13901.0496,-3561.0131L13901.0478,-3561.013L13901.0471,-3561.013L13901.043,-3561.013L13901.0319,-3561.013L13901.0303,-3561.013L13901.017,-3561.013L13900.9741,-3561.0131L13900.9278,-3561.0162L13900.8657,-3561.0249L13900.7096,-3561.0566L13900.6685,-3561.0688L13900.6421,-3561.0768L13900.5802,-3561.1005L13900.5791,-3561.1009L13900.5791,-3561.1009L13900.5143,-3561.1302L13900.4678,-3561.155L13900.4617,-3561.1589L13900.4529,-3561.1646L13900.3748,-3561.215L13900.2663,-3561.2878L13900.1703,-3561.3603L13900.0143,-3561.4824L13900,-3561.4935L13899.9023,-3561.5694"/>
<path content="1,京王バス南（株）,新宿～諏訪・岡谷・茅野線,6.0,6.0,6.0," xlink:title="1" d="M13902.0996,-3561.1465L13902.0188,-3561.1406L13901.8937,-3561.1298L13901.8338,-3561.1229L13901.7281,-3561.1097L13901.7281,-3561.1097L13901.7281,-3561.1097L13901.7274,-3561.1096L13901.7274,-3561.1096L13901.7274,-3561.1096L13901.7274,-3561.1096L13901.7273,-3561.1096L13901.7273,-3561.1096L13901.7272,-3561.1096L13901.7272,-3561.1096L13901.7272,-3561.1096L13901.7271,-3561.1096L13901.727,-3561.1096L13901.7269,-3561.1096L13901.7268,-3561.1095L13901.7266,-3561.1095L13901.6302,-3561.0962L13901.5101,-3561.0699L13901.5073,-3561.0693L13901.5073,-3561.0693L13901.5073,-3561.0693L13901.4842,-3561.0651L13901.484,-3561.0651L13901.4839,-3561.0651L13901.4838,-3561.065L13901.4827,-3561.0648L13901.4814,-3561.0646L13901.4806,-3561.0644L13901.383,-3561.0467L13901.2292,-3561.0249L13901.2128,-3561.0234L13901.1782,-3561.0189L13901.1254,-3561.0157L13901.0496,-3561.0131L13901.0478,-3561.013L13901.0471,-3561.013L13901.043,-3561.013L13901.0319,-3561.013L13901.0303,-3561.013L13901.017,-3561.013L13900.9741,-3561.0131L13900.9278,-3561.0162L13900.8657,-3561.0249L13900.7096,-3561.0566L13900.6685,-3561.0688L13900.6421,-3561.0768L13900.5802,-3561.1005L13900.5791,-3561.1009L13900.5791,-3561.1009L13900.5143,-3561.1302L13900.4678,-3561.155L13900.4617,-3561.1589L13900.4529,-3561.1646L13900.3748,-3561.215L13900.2663,-3561.2878L13900.1703,-3561.3603L13900.0143,-3561.4824L13900,-3561.4935L13899.9023,-3561.5694"/>
<path content="1,京王バス南（株）,新宿～身延線,2.0,2.0,2.0," xlink:title="1" d="M13902.0996,-3561.1465L13902.0188,-3561.1405L13902.0188,-3561.1405L13902.0188,-3561.1405L13901.8936,-3561.1297L13901.8337,-3561.1229L13901.7281,-3561.1097L13901.7281,-3561.1097L13901.7281,-3561.1097L13901.7274,-3561.1096L13901.7274,-3561.1096L13901.7274,-3561.1096L13901.7274,-3561.1096L13901.7273,-3561.1096L13901.7273,-3561.1096L13901.7272,-3561.1096L13901.7272,-3561.1096L13901.7272,-3561.1096L13901.7271,-3561.1096L13901.727,-3561.1096L13901.7269,-3561.1096L13901.7268,-3561.1095L13901.7266,-3561.1095L13901.6302,-3561.0961L13901.5101,-3561.0699L13901.5073,-3561.0693L13901.5073,-3561.0693L13901.5073,-3561.0693L13901.4842,-3561.0651L13901.484,-3561.0651L13901.4839,-3561.0651L13901.4838,-3561.065L13901.4827,-3561.0648L13901.4814,-3561.0646L13901.4806,-3561.0644L13901.3829,-3561.0466L13901.2291,-3561.0249L13901.2128,-3561.0233L13901.1782,-3561.0189L13901.1253,-3561.0157L13901.0497,-3561.0131L13901.0468,-3561.0129L13900.9741,-3561.013L13900.9278,-3561.0162L13900.8656,-3561.0248L13900.7096,-3561.0564L13900.6684,-3561.0688L13900.6421,-3561.0768L13900.5791,-3561.1009L13900.5143,-3561.1301L13900.4678,-3561.1549L13900.4616,-3561.1588L13900.4528,-3561.1645L13900.3748,-3561.215L13900.2663,-3561.2878L13900.1703,-3561.3603L13900.0143,-3561.4824L13899.9999,-3561.4935L13899.9023,-3561.5694"/>
<path content="1,京王バス南（株）,新宿～飛騨高山線,3.0,3.0,3.0," xlink:title="1" d="M13902.0996,-3561.1465L13902.0188,-3561.1406L13901.8937,-3561.1298L13901.8338,-3561.1229L13901.7281,-3561.1097L13901.7281,-3561.1097L13901.7281,-3561.1097L13901.7274,-3561.1096L13901.7274,-3561.1096L13901.7274,-3561.1096L13901.7274,-3561.1096L13901.7273,-3561.1096L13901.7273,-3561.1096L13901.7272,-3561.1096L13901.7272,-3561.1096L13901.7272,-3561.1096L13901.7271,-3561.1096L13901.727,-3561.1096L13901.7269,-3561.1096L13901.7268,-3561.1095L13901.7266,-3561.1095L13901.6302,-3561.0962L13901.5101,-3561.0699L13901.5073,-3561.0693L13901.5073,-3561.0693L13901.5073,-3561.0693L13901.4842,-3561.0651L13901.484,-3561.0651L13901.4839,-3561.0651L13901.4838,-3561.065L13901.4827,-3561.0648L13901.4814,-3561.0646L13901.4806,-3561.0644L13901.383,-3561.0467L13901.2292,-3561.0249L13901.2128,-3561.0234L13901.1782,-3561.0189L13901.1254,-3561.0157L13901.0496,-3561.0131L13901.0478,-3561.013L13901.0471,-3561.013L13901.043,-3561.013L13901.0319,-3561.013L13901.0303,-3561.013L13901.017,-3561.013L13900.9741,-3561.0131L13900.9278,-3561.0162L13900.8657,-3561.0249L13900.7096,-3561.0566L13900.6685,-3561.0688L13900.6421,-3561.0768L13900.5802,-3561.1005L13900.5791,-3561.1009L13900.5791,-3561.1009L13900.5143,-3561.1302L13900.4678,-3561.155L13900.4617,-3561.1589L13900.4529,-3561.1646L13900.3748,-3561.215L13900.2663,-3561.2878L13900.1703,-3561.3603L13900.0143,-3561.4824L13900,-3561.4935L13899.9023,-3561.5694"/>
<path content="1,伊予鉄道（株）,オレンジライナーえひめ　八幡浜・松山⇔東京,1.0,1.0,1.0," xlink:title="1" d="M13899.9023,-3561.5694L13899.9999,-3561.4935L13900.0143,-3561.4824L13900.1703,-3561.3603L13900.2663,-3561.2878L13900.3748,-3561.215L13900.4528,-3561.1645L13900.4616,-3561.1588L13900.4678,-3561.1549L13900.5143,-3561.1301L13900.5791,-3561.1009L13900.6421,-3561.0768L13900.6684,-3561.0688L13900.7096,-3561.0564L13900.8656,-3561.0248L13900.9278,-3561.0162L13900.9741,-3561.013L13901.0468,-3561.0129L13901.0497,-3561.0131L13901.1253,-3561.0157L13901.1782,-3561.0189L13901.2128,-3561.0233L13901.2291,-3561.0249L13901.3829,-3561.0466L13901.5073,-3561.0693L13901.6302,-3561.0961L13901.7281,-3561.1097L13901.8337,-3561.1229L13901.8936,-3561.1297L13902.0188,-3561.1405L13902.0996,-3561.1465"/>
<path content="1,伊那バス（株）,伊那線,16.0,16.0,16.0," xlink:title="1" d="M13899.9023,-3561.5694L13899.9999,-3561.4935L13900.0143,-3561.4824L13900.1703,-3561.3603L13900.2663,-3561.2878L13900.3748,-3561.215L13900.4528,-3561.1645L13900.4616,-3561.1588L13900.4678,-3561.1549L13900.5143,-3561.1301L13900.5791,-3561.1009L13900.6421,-3561.0768L13900.6684,-3561.0688L13900.7096,-3561.0564L13900.8656,-3561.0248L13900.9278,-3561.0162L13900.9741,-3561.013L13901.0468,-3561.0129L13901.0497,-3561.0131L13901.1253,-3561.0157L13901.1782,-3561.0189L13901.2128,-3561.0233L13901.2291,-3561.0249L13901.3829,-3561.0466L13901.5073,-3561.0693L13901.6302,-3561.0961L13901.7281,-3561.1097L13901.8337,-3561.1229L13901.8936,-3561.1297L13902.0188,-3561.1405L13902.0996,-3561.1465"/>
<path content="1,伊那バス（株）,横浜線,17.0,17.0,17.0," xlink:title="1" d="M13902.0996,-3561.1465L13902.0188,-3561.1405L13901.8936,-3561.1297L13901.8337,-3561.1229L13901.7281,-3561.1097L13901.6302,-3561.0961L13901.5073,-3561.0693L13901.3829,-3561.0466L13901.2291,-3561.0249L13901.2128,-3561.0233L13901.1782,-3561.0189L13901.1253,-3561.0157L13901.0497,-3561.0131L13901.0468,-3561.0129L13900.9741,-3561.013L13900.9278,-3561.0162L13900.8656,-3561.0248L13900.7096,-3561.0564L13900.6684,-3561.0688L13900.6421,-3561.0768L13900.5791,-3561.1009L13900.5143,-3561.1301L13900.4678,-3561.1549L13900.4616,-3561.1588L13900.4528,-3561.1645L13900.3748,-3561.215L13900.2663,-3561.2878L13900.1703,-3561.3603L13900.0143,-3561.4824L13899.9999,-3561.4935L13899.9023,-3561.5694"/>
<path content="1,伊那バス（株）,飯田線,2.0,2.0,2.0," xlink:title="1" d="M13899.9023,-3561.5694L13899.9999,-3561.4935L13900.0143,-3561.4824L13900.1703,-3561.3603L13900.2663,-3561.2878L13900.3748,-3561.215L13900.4528,-3561.1645L13900.4616,-3561.1588L13900.4678,-3561.1549L13900.5143,-3561.1301L13900.5791,-3561.1009L13900.6421,-3561.0768L13900.6684,-3561.0688L13900.7096,-3561.0564L13900.8656,-3561.0248L13900.9278,-3561.0162L13900.9741,-3561.013L13901.0468,-3561.0129L13901.0497,-3561.0131L13901.1253,-3561.0157L13901.1782,-3561.0189L13901.2128,-3561.0233L13901.2291,-3561.0249L13901.3829,-3561.0466L13901.5073,-3561.0693L13901.6302,-3561.0961L13901.7281,-3561.1097L13901.8337,-3561.1229L13901.8936,-3561.1297L13902.0188,-3561.1405L13902.0996,-3561.1465"/>
<path content="1,信南交通（株）,新宿線_01_on,5.5,5.5,5.5," xlink:title="1" d="M13899.9023,-3561.5694L13899.9999,-3561.4935L13900.0143,-3561.4824L13900.1703,-3561.3603L13900.2663,-3561.2878L13900.3748,-3561.215L13900.4528,-3561.1645L13900.4616,-3561.1588L13900.4678,-3561.1549L13900.5143,-3561.1301L13900.5791,-3561.1009L13900.6421,-3561.0768L13900.6684,-3561.0688L13900.7096,-3561.0564L13900.8656,-3561.0248L13900.9278,-3561.0162L13900.9741,-3561.013L13901.0468,-3561.0129L13901.0497,-3561.0131L13901.1253,-3561.0157L13901.1782,-3561.0189L13901.2128,-3561.0233L13901.2291,-3561.0249L13901.3829,-3561.0466L13901.5073,-3561.0693L13901.6302,-3561.0961L13901.7281,-3561.1097L13901.8337,-3561.1229L13901.8936,-3561.1297L13902.0188,-3561.1405L13902.0996,-3561.1465"/>
<path content="1,信南交通（株）,新宿線_02_on,5.5,5.5,5.5," xlink:title="1" d="M13899.9023,-3561.5694L13899.9999,-3561.4935L13900.0143,-3561.4824L13900.1703,-3561.3603L13900.2663,-3561.2878L13900.3748,-3561.215L13900.4528,-3561.1645L13900.4616,-3561.1588L13900.4678,-3561.1549L13900.5143,-3561.1301L13900.5791,-3561.1009L13900.6421,-3561.0768L13900.6684,-3561.0688L13900.7096,-3561.0564L13900.8656,-3561.0248L13900.9278,-3561.0162L13900.9741,-3561.013L13901.0468,-3561.0129L13901.0497,-3561.0131L13901.1253,-3561.0157L13901.1782,-3561.0189L13901.2128,-3561.0233L13901.2291,-3561.0249L13901.3829,-3561.0466L13901.5073,-3561.0693L13901.6302,-3561.0961L13901.7281,-3561.1097L13901.8337,-3561.1229L13901.8936,-3561.1297L13902.0188,-3561.1405L13902.0996,-3561.1465"/>
<path content="1,信南交通（株）,横浜線,2.0,2.0,2.0," xlink:title="1" d="M13902.0996,-3561.1465L13902.0188,-3561.1405L13901.8936,-3561.1297L13901.8337,-3561.1229L13901.7281,-3561.1097L13901.6302,-3561.0961L13901.5073,-3561.0693L13901.3829,-3561.0466L13901.2291,-3561.0249L13901.2128,-3561.0233L13901.1782,-3561.0189L13901.1253,-3561.0157L13901.0497,-3561.0131L13901.0468,-3561.0129L13900.9741,-3561.013L13900.9278,-3561.0162L13900.8656,-3561.0248L13900.7096,-3561.0564L13900.6684,-3561.0688L13900.6421,-3561.0768L13900.5791,-3561.1009L13900.5143,-3561.1301L13900.4678,-3561.1549L13900.4616,-3561.1588L13900.4528,-3561.1645L13900.3748,-3561.215L13900.2663,-3561.2878L13900.1703,-3561.3603L13900.0143,-3561.4824L13899.9999,-3561.4935L13899.9023,-3561.5694"/>
<path content="1,千葉交通,竜王・甲府・石和・一宮・勝沼～成田空港,3.0,3.0,3.0," xlink:title="1" d="M13902.0996,-3561.1465L13902.0188,-3561.1405L13901.8936,-3561.1298L13901.8338,-3561.1229L13901.7281,-3561.1097L13901.7281,-3561.1097L13901.7281,-3561.1097L13901.7274,-3561.1096L13901.7274,-3561.1096L13901.7274,-3561.1096L13901.7274,-3561.1096L13901.7273,-3561.1096L13901.7273,-3561.1096L13901.7272,-3561.1096L13901.7272,-3561.1096L13901.7272,-3561.1096L13901.7271,-3561.1096L13901.727,-3561.1096L13901.7269,-3561.1096L13901.7268,-3561.1095L13901.7266,-3561.1095L13901.6302,-3561.0962L13901.5101,-3561.0699L13901.5073,-3561.0693L13901.5073,-3561.0693L13901.5073,-3561.0693L13901.4842,-3561.0651L13901.484,-3561.0651L13901.4839,-3561.0651L13901.4838,-3561.065L13901.4827,-3561.0648L13901.4814,-3561.0646L13901.4806,-3561.0644L13901.3829,-3561.0466L13901.2291,-3561.0249L13901.2128,-3561.0233L13901.1782,-3561.0189L13901.1253,-3561.0157L13901.0497,-3561.0131L13901.0478,-3561.013L13901.0475,-3561.013L13901.047,-3561.013L13901.0469,-3561.013L13901.043,-3561.013L13901.0319,-3561.013L13901.017,-3561.013L13900.9741,-3561.013L13900.9278,-3561.0162L13900.8656,-3561.0249L13900.7096,-3561.0565L13900.6684,-3561.0688L13900.6421,-3561.0768L13900.5802,-3561.1005L13900.5791,-3561.1009L13900.5791,-3561.1009L13900.5143,-3561.1301L13900.4678,-3561.1549L13900.4616,-3561.1588L13900.4529,-3561.1645L13900.3748,-3561.215L13900.2663,-3561.2878L13900.1703,-3561.3603L13900.0143,-3561.4824L13900,-3561.4935L13899.9023,-3561.5694"/>
<path content="1,名鉄バス（株）,名古屋～新宿,4.0,4.0,4.0," xlink:title="1" d="M13899.9023,-3561.5694L13899.9999,-3561.4935L13900.0143,-3561.4824L13900.1703,-3561.3603L13900.2663,-3561.2878L13900.3748,-3561.215L13900.4528,-3561.1645L13900.4616,-3561.1588L13900.4678,-3561.1549L13900.5143,-3561.1301L13900.5791,-3561.1009L13900.6421,-3561.0768L13900.6684,-3561.0688L13900.7096,-3561.0564L13900.8656,-3561.0248L13900.9278,-3561.0162L13900.9741,-3561.013L13901.0468,-3561.0129L13901.0497,-3561.0131L13901.1253,-3561.0157L13901.1782,-3561.0189L13901.2128,-3561.0233L13901.2291,-3561.0249L13901.3829,-3561.0466L13901.5073,-3561.0693L13901.6302,-3561.0961L13901.7281,-3561.1097L13901.8337,-3561.1229L13901.8936,-3561.1297L13902.0188,-3561.1405L13902.0996,-3561.1465"/>
<path content="1,国際十王交通（株）,京都・大阪線,1.0,1.0,1.0," xlink:title="1" d="M13902.0996,-3561.1465L13902.0188,-3561.1406L13901.8937,-3561.1298L13901.8338,-3561.1229L13901.7281,-3561.1097L13901.7281,-3561.1097L13901.7281,-3561.1097L13901.7274,-3561.1096L13901.7274,-3561.1096L13901.7274,-3561.1096L13901.7274,-3561.1096L13901.7273,-3561.1096L13901.7273,-3561.1096L13901.7272,-3561.1096L13901.7272,-3561.1096L13901.7272,-3561.1096L13901.7271,-3561.1096L13901.727,-3561.1096L13901.7269,-3561.1096L13901.7268,-3561.1095L13901.7266,-3561.1095L13901.6302,-3561.0962L13901.5101,-3561.0699L13901.5073,-3561.0693L13901.5073,-3561.0693L13901.5073,-3561.0693L13901.4842,-3561.0651L13901.484,-3561.0651L13901.4839,-3561.0651L13901.4838,-3561.065L13901.4827,-3561.0648L13901.4814,-3561.0646L13901.4806,-3561.0644L13901.383,-3561.0467L13901.2292,-3561.0249L13901.2128,-3561.0234L13901.1782,-3561.0189L13901.1254,-3561.0157L13901.0496,-3561.0131L13901.0478,-3561.013L13901.0471,-3561.013L13901.043,-3561.013L13901.0319,-3561.013L13901.0303,-3561.013L13901.017,-3561.013L13900.9741,-3561.0131L13900.9278,-3561.0162L13900.8657,-3561.0249L13900.7096,-3561.0566L13900.6685,-3561.0688L13900.6421,-3561.0768L13900.5802,-3561.1005L13900.5791,-3561.1009L13900.5791,-3561.1009L13900.5143,-3561.1302L13900.4678,-3561.155L13900.4617,-3561.1589L13900.4529,-3561.1646L13900.3748,-3561.215L13900.2663,-3561.2878L13900.1703,-3561.3603L13900.0143,-3561.4824L13900,-3561.4935L13899.9023,-3561.5694"/>
<path content="1,富士急山梨バス（株）,河口湖～大宮・川越・所沢線,0.7,0.7,0.7," xlink:title="1" d="M13899.9023,-3561.5694L13899.9999,-3561.4935L13900.0143,-3561.4824L13900.1703,-3561.3603L13900.2663,-3561.2878L13900.3748,-3561.215L13900.4528,-3561.1645L13900.4616,-3561.1588L13900.4678,-3561.1549L13900.5143,-3561.1301L13900.5791,-3561.1009L13900.6421,-3561.0768L13900.6684,-3561.0688L13900.7096,-3561.0564L13900.8656,-3561.0248L13900.9278,-3561.0162L13900.9741,-3561.013L13901.0468,-3561.0129L13901.0497,-3561.0131L13901.1253,-3561.0157L13901.1782,-3561.0189L13901.2128,-3561.0233L13901.2291,-3561.0249L13901.3829,-3561.0466L13901.4806,-3561.0644L13901.4814,-3561.0646L13901.4827,-3561.0648L13901.4838,-3561.065L13901.4839,-3561.0651L13901.484,-3561.0651L13901.4842,-3561.0651L13901.5073,-3561.0693L13901.5073,-3561.0693L13901.5073,-3561.0693L13901.5101,-3561.0699L13901.6302,-3561.0961L13901.7266,-3561.1095L13901.7268,-3561.1095L13901.7269,-3561.1096L13901.727,-3561.1096L13901.7271,-3561.1096L13901.7272,-3561.1096L13901.7272,-3561.1096L13901.7272,-3561.1096L13901.7273,-3561.1096L13901.7273,-3561.1096L13901.7274,-3561.1096L13901.7274,-3561.1096L13901.7274,-3561.1096L13901.7274,-3561.1096L13901.7281,-3561.1097L13901.7281,-3561.1097L13901.7281,-3561.1097L13901.8337,-3561.1229L13901.8936,-3561.1297L13902.0188,-3561.1405L13902.0188,-3561.1405L13902.0188,-3561.1405L13902.0996,-3561.1465"/>
<path content="1,富士急平和観光（株）,甲府～新宿線,27.0,27.0,27.0," xlink:title="1" d="M13902.0996,-3561.1465L13902.0188,-3561.1405L13901.8936,-3561.1298L13901.8338,-3561.1229L13901.7281,-3561.1097L13901.7281,-3561.1097L13901.7281,-3561.1097L13901.7274,-3561.1096L13901.7274,-3561.1096L13901.7274,-3561.1096L13901.7274,-3561.1096L13901.7273,-3561.1096L13901.7273,-3561.1096L13901.7272,-3561.1096L13901.7272,-3561.1096L13901.7272,-3561.1096L13901.7271,-3561.1096L13901.727,-3561.1096L13901.7269,-3561.1096L13901.7268,-3561.1095L13901.7266,-3561.1095L13901.6302,-3561.0962L13901.5101,-3561.0699L13901.5073,-3561.0693L13901.5073,-3561.0693L13901.5073,-3561.0693L13901.4842,-3561.0651L13901.484,-3561.0651L13901.4839,-3561.0651L13901.4838,-3561.065L13901.4827,-3561.0648L13901.4814,-3561.0646L13901.4806,-3561.0644L13901.3829,-3561.0466L13901.2291,-3561.0249L13901.2128,-3561.0233L13901.1782,-3561.0189L13901.1253,-3561.0157L13901.0497,-3561.0131L13901.0478,-3561.013L13901.0475,-3561.013L13901.047,-3561.013L13901.0469,-3561.013L13901.043,-3561.013L13901.0319,-3561.013L13901.017,-3561.013L13900.9741,-3561.013L13900.9278,-3561.0162L13900.8656,-3561.0249L13900.7096,-3561.0565L13900.6684,-3561.0688L13900.6421,-3561.0768L13900.5802,-3561.1005L13900.5791,-3561.1009L13900.5791,-3561.1009L13900.5143,-3561.1301L13900.4678,-3561.1549L13900.4616,-3561.1588L13900.4529,-3561.1645L13900.3748,-3561.215L13900.2663,-3561.2878L13900.1703,-3561.3603L13900.0143,-3561.4824L13900,-3561.4935L13899.9023,-3561.5694"/>
<path content="1,富士急行（株）,伊那・駒ヶ根～新宿線,16.0,16.0,16.0," xlink:title="1" d="M13899.9023,-3561.5694L13900,-3561.4935L13900.0143,-3561.4824L13900.1703,-3561.3603L13900.2663,-3561.2878L13900.3748,-3561.215L13900.4529,-3561.1646L13900.4617,-3561.1589L13900.4678,-3561.155L13900.5143,-3561.1302L13900.5791,-3561.1009L13900.5791,-3561.1009L13900.5802,-3561.1005L13900.6421,-3561.0768L13900.6685,-3561.0688L13900.7096,-3561.0566L13900.8657,-3561.0249L13900.9278,-3561.0162L13900.9741,-3561.0131L13901.017,-3561.013L13901.0303,-3561.013L13901.0319,-3561.013L13901.043,-3561.013L13901.0471,-3561.013L13901.0478,-3561.013L13901.0496,-3561.0131L13901.1254,-3561.0157L13901.1782,-3561.0189L13901.2128,-3561.0234L13901.2292,-3561.0249L13901.383,-3561.0467L13901.4806,-3561.0644L13901.4814,-3561.0646L13901.4827,-3561.0648L13901.4838,-3561.065L13901.4839,-3561.0651L13901.484,-3561.0651L13901.4842,-3561.0651L13901.5073,-3561.0693L13901.5073,-3561.0693L13901.5073,-3561.0693L13901.5101,-3561.0699L13901.6302,-3561.0962L13901.7266,-3561.1095L13901.7268,-3561.1095L13901.7269,-3561.1096L13901.727,-3561.1096L13901.7271,-3561.1096L13901.7272,-3561.1096L13901.7272,-3561.1096L13901.7272,-3561.1096L13901.7273,-3561.1096L13901.7273,-3561.1096L13901.7274,-3561.1096L13901.7274,-3561.1096L13901.7274,-3561.1096L13901.7274,-3561.1096L13901.7281,-3561.1097L13901.7281,-3561.1097L13901.7281,-3561.1097L13901.8338,-3561.1229L13901.8937,-3561.1298L13902.0188,-3561.1406L13902.0996,-3561.1465"/>
<path content="1,富士急行（株）,富士五湖～新宿線,37.4,36.0,36.0," xlink:title="1" d="M13899.9023,-3561.5694L13900,-3561.4935L13900.0143,-3561.4824L13900.1703,-3561.3603L13900.2663,-3561.2878L13900.3748,-3561.215L13900.4529,-3561.1645L13900.4616,-3561.1589L13900.4678,-3561.1549L13900.5143,-3561.1301L13900.5791,-3561.1009L13900.5791,-3561.1009L13900.5802,-3561.1005L13900.6421,-3561.0768L13900.6684,-3561.0688L13900.7096,-3561.0565L13900.8656,-3561.0249L13900.9278,-3561.0162L13900.9741,-3561.0131L13901.0319,-3561.013L13901.0469,-3561.013L13901.0472,-3561.013L13901.0497,-3561.0131L13901.1253,-3561.0157L13901.1253,-3561.0157L13901.1253,-3561.0157L13901.1782,-3561.0189L13901.2128,-3561.0233L13901.2292,-3561.0249L13901.2292,-3561.0249L13901.3829,-3561.0467L13901.4806,-3561.0644L13901.4814,-3561.0646L13901.4827,-3561.0648L13901.4838,-3561.065L13901.4839,-3561.0651L13901.484,-3561.0651L13901.4842,-3561.0651L13901.5073,-3561.0693L13901.5073,-3561.0693L13901.5073,-3561.0693L13901.5101,-3561.0699L13901.6302,-3561.0962L13901.7266,-3561.1095L13901.7268,-3561.1095L13901.7269,-3561.1096L13901.727,-3561.1096L13901.7271,-3561.1096L13901.7272,-3561.1096L13901.7272,-3561.1096L13901.7272,-3561.1096L13901.7273,-3561.1096L13901.7273,-3561.1096L13901.7274,-3561.1096L13901.7274,-3561.1096L13901.7274,-3561.1096L13901.7274,-3561.1096L13901.7281,-3561.1097L13901.7281,-3561.1097L13901.7281,-3561.1097L13901.8338,-3561.1229L13901.8338,-3561.1229L13901.8937,-3561.1298L13902.0188,-3561.1405L13902.0188,-3561.1405L13902.0188,-3561.1405L13902.0188,-3561.1405L13902.0996,-3561.1465"/>
<path content="1,富士急行（株）,富士山五合目～新宿線,1.0,1.7,1.8," xlink:title="1" d="M13899.9023,-3561.5694L13900,-3561.4935L13900.0143,-3561.4824L13900.1703,-3561.3603L13900.2663,-3561.2878L13900.3748,-3561.215L13900.4529,-3561.1645L13900.4616,-3561.1589L13900.4678,-3561.1549L13900.5143,-3561.1301L13900.5791,-3561.1009L13900.5791,-3561.1009L13900.5802,-3561.1005L13900.6421,-3561.0768L13900.6684,-3561.0688L13900.7096,-3561.0565L13900.8656,-3561.0249L13900.9278,-3561.0162L13900.9741,-3561.0131L13901.0319,-3561.013L13901.0469,-3561.013L13901.0472,-3561.013L13901.0497,-3561.0131L13901.1253,-3561.0157L13901.1253,-3561.0157L13901.1253,-3561.0157L13901.1782,-3561.0189L13901.2128,-3561.0233L13901.2292,-3561.0249L13901.2292,-3561.0249L13901.3829,-3561.0467L13901.4806,-3561.0644L13901.4814,-3561.0646L13901.4827,-3561.0648L13901.4838,-3561.065L13901.4839,-3561.0651L13901.484,-3561.0651L13901.4842,-3561.0651L13901.5073,-3561.0693L13901.5073,-3561.0693L13901.5073,-3561.0693L13901.5101,-3561.0699L13901.6302,-3561.0962L13901.7266,-3561.1095L13901.7268,-3561.1095L13901.7269,-3561.1096L13901.727,-3561.1096L13901.7271,-3561.1096L13901.7272,-3561.1096L13901.7272,-3561.1096L13901.7272,-3561.1096L13901.7273,-3561.1096L13901.7273,-3561.1096L13901.7274,-3561.1096L13901.7274,-3561.1096L13901.7274,-3561.1096L13901.7274,-3561.1096L13901.7281,-3561.1097L13901.7281,-3561.1097L13901.7281,-3561.1097L13901.8338,-3561.1229L13901.8338,-3561.1229L13901.8937,-3561.1298L13902.0188,-3561.1405L13902.0188,-3561.1405L13902.0188,-3561.1405L13902.0188,-3561.1405L13902.0996,-3561.1465"/>
<path content="1,富士急行（株）,河口湖～大宮・川越・所沢線,0.7,0.7,0.7," xlink:title="1" d="M13899.9023,-3561.5694L13899.9999,-3561.4935L13900.0143,-3561.4824L13900.1703,-3561.3603L13900.2663,-3561.2878L13900.3748,-3561.215L13900.4528,-3561.1645L13900.4616,-3561.1588L13900.4678,-3561.1549L13900.5143,-3561.1301L13900.5791,-3561.1009L13900.6421,-3561.0768L13900.6684,-3561.0688L13900.7096,-3561.0564L13900.8656,-3561.0248L13900.9278,-3561.0162L13900.9741,-3561.013L13901.0468,-3561.0129L13901.0471,-3561.013L13901.0475,-3561.013L13901.0497,-3561.0131L13901.1253,-3561.0157L13901.1253,-3561.0157L13901.1253,-3561.0157L13901.1782,-3561.0189L13901.2128,-3561.0233L13901.2292,-3561.0249L13901.2292,-3561.0249L13901.3829,-3561.0467L13901.4806,-3561.0644L13901.4814,-3561.0646L13901.4827,-3561.0648L13901.4838,-3561.065L13901.4839,-3561.0651L13901.484,-3561.0651L13901.4842,-3561.0651L13901.5073,-3561.0693L13901.5073,-3561.0693L13901.5073,-3561.0693L13901.5101,-3561.0699L13901.6302,-3561.0962L13901.7266,-3561.1095L13901.7268,-3561.1095L13901.7269,-3561.1096L13901.727,-3561.1096L13901.7271,-3561.1096L13901.7272,-3561.1096L13901.7272,-3561.1096L13901.7272,-3561.1096L13901.7273,-3561.1096L13901.7273,-3561.1096L13901.7274,-3561.1096L13901.7274,-3561.1096L13901.7274,-3561.1096L13901.7274,-3561.1096L13901.7281,-3561.1097L13901.7281,-3561.1097L13901.7281,-3561.1097L13901.8338,-3561.1229L13901.8338,-3561.1229L13901.8937,-3561.1298L13902.0188,-3561.1405L13902.0188,-3561.1405L13902.0188,-3561.1405L13902.0188,-3561.1405L13902.0996,-3561.1465"/>
<path content="1,富士急行（株）,河口湖～津田沼・西船橋・新浦安線,0.3,0.3,0.3," xlink:title="1" d="M13899.9023,-3561.5694L13899.9999,-3561.4935L13900.0143,-3561.4824L13900.1703,-3561.3603L13900.2663,-3561.2878L13900.3748,-3561.215L13900.4528,-3561.1645L13900.4616,-3561.1588L13900.4678,-3561.1549L13900.5143,-3561.1301L13900.5791,-3561.1009L13900.6421,-3561.0768L13900.6684,-3561.0688L13900.7096,-3561.0564L13900.8656,-3561.0248L13900.9278,-3561.0162L13900.9741,-3561.013L13901.0468,-3561.0129L13901.0471,-3561.013L13901.0475,-3561.013L13901.0497,-3561.0131L13901.1253,-3561.0157L13901.1253,-3561.0157L13901.1253,-3561.0157L13901.1782,-3561.0189L13901.2128,-3561.0233L13901.2292,-3561.0249L13901.2292,-3561.0249L13901.3829,-3561.0467L13901.4806,-3561.0644L13901.4814,-3561.0646L13901.4827,-3561.0648L13901.4838,-3561.065L13901.4839,-3561.0651L13901.484,-3561.0651L13901.4842,-3561.0651L13901.5073,-3561.0693L13901.5073,-3561.0693L13901.5073,-3561.0693L13901.5101,-3561.0699L13901.6302,-3561.0962L13901.7266,-3561.1095L13901.7268,-3561.1095L13901.7269,-3561.1096L13901.727,-3561.1096L13901.7271,-3561.1096L13901.7272,-3561.1096L13901.7272,-3561.1096L13901.7272,-3561.1096L13901.7273,-3561.1096L13901.7273,-3561.1096L13901.7274,-3561.1096L13901.7274,-3561.1096L13901.7274,-3561.1096L13901.7274,-3561.1096L13901.7281,-3561.1097L13901.7281,-3561.1097L13901.7281,-3561.1097L13901.8338,-3561.1229L13901.8338,-3561.1229L13901.8937,-3561.1298L13902.0188,-3561.1405L13902.0188,-3561.1405L13902.0188,-3561.1405L13902.0188,-3561.1405L13902.0996,-3561.1465"/>
<path content="1,富士急行（株）,河口湖～渋川・前橋・高崎線,0.3,0.3,0.3," xlink:title="1" d="M13899.9023,-3561.5694L13899.9999,-3561.4935L13900.0143,-3561.4824L13900.1703,-3561.3603L13900.2663,-3561.2878L13900.3748,-3561.215L13900.4528,-3561.1645L13900.4616,-3561.1588L13900.4678,-3561.1549L13900.5143,-3561.1301L13900.5791,-3561.1009L13900.6421,-3561.0768L13900.6684,-3561.0688L13900.7096,-3561.0564L13900.8656,-3561.0248L13900.9278,-3561.0162L13900.9741,-3561.013L13901.0468,-3561.0129L13901.0497,-3561.0131L13901.1253,-3561.0157L13901.1782,-3561.0189L13901.2128,-3561.0233L13901.2291,-3561.0249L13901.3829,-3561.0466L13901.4806,-3561.0644L13901.4814,-3561.0646L13901.4827,-3561.0648L13901.4838,-3561.065L13901.4839,-3561.0651L13901.484,-3561.0651L13901.4842,-3561.0651L13901.5073,-3561.0693L13901.5073,-3561.0693L13901.5073,-3561.0693L13901.5101,-3561.0699L13901.6302,-3561.0961L13901.7266,-3561.1095L13901.7268,-3561.1095L13901.7269,-3561.1096L13901.727,-3561.1096L13901.7271,-3561.1096L13901.7272,-3561.1096L13901.7272,-3561.1096L13901.7272,-3561.1096L13901.7273,-3561.1096L13901.7273,-3561.1096L13901.7274,-3561.1096L13901.7274,-3561.1096L13901.7274,-3561.1096L13901.7274,-3561.1096L13901.7281,-3561.1097L13901.7281,-3561.1097L13901.7281,-3561.1097L13901.8337,-3561.1229L13901.8936,-3561.1297L13902.0188,-3561.1405L13902.0188,-3561.1405L13902.0188,-3561.1405L13902.0996,-3561.1465"/>
<path content="1,富士急行（株）,甲府～新宿線,27.0,27.0,27.0," xlink:title="1" d="M13902.0996,-3561.1465L13902.0188,-3561.1405L13901.8936,-3561.1298L13901.8338,-3561.1229L13901.7281,-3561.1097L13901.7281,-3561.1097L13901.7281,-3561.1097L13901.7274,-3561.1096L13901.7274,-3561.1096L13901.7274,-3561.1096L13901.7274,-3561.1096L13901.7273,-3561.1096L13901.7273,-3561.1096L13901.7272,-3561.1096L13901.7272,-3561.1096L13901.7272,-3561.1096L13901.7271,-3561.1096L13901.727,-3561.1096L13901.7269,-3561.1096L13901.7268,-3561.1095L13901.7266,-3561.1095L13901.6302,-3561.0962L13901.5101,-3561.0699L13901.5073,-3561.0693L13901.5073,-3561.0693L13901.5073,-3561.0693L13901.4842,-3561.0651L13901.484,-3561.0651L13901.4839,-3561.0651L13901.4838,-3561.065L13901.4827,-3561.0648L13901.4814,-3561.0646L13901.4806,-3561.0644L13901.3829,-3561.0466L13901.2291,-3561.0249L13901.2128,-3561.0233L13901.1782,-3561.0189L13901.1253,-3561.0157L13901.0497,-3561.0131L13901.0478,-3561.013L13901.0475,-3561.013L13901.047,-3561.013L13901.0469,-3561.013L13901.043,-3561.013L13901.0319,-3561.013L13901.017,-3561.013L13900.9741,-3561.013L13900.9278,-3561.0162L13900.8656,-3561.0249L13900.7096,-3561.0565L13900.6684,-3561.0688L13900.6421,-3561.0768L13900.5802,-3561.1005L13900.5791,-3561.1009L13900.5791,-3561.1009L13900.5143,-3561.1301L13900.4678,-3561.1549L13900.4616,-3561.1588L13900.4529,-3561.1645L13900.3748,-3561.215L13900.2663,-3561.2878L13900.1703,-3561.3603L13900.0143,-3561.4824L13900,-3561.4935L13899.9023,-3561.5694"/>
<path content="1,富士急行（株）,諏訪・岡谷～新宿線,15.0,15.0,15.0," xlink:title="1" d="M13899.9023,-3561.5694L13900,-3561.4935L13900.0143,-3561.4824L13900.1703,-3561.3603L13900.2663,-3561.2878L13900.3748,-3561.215L13900.4529,-3561.1646L13900.4617,-3561.1589L13900.4678,-3561.155L13900.5143,-3561.1302L13900.5791,-3561.1009L13900.5791,-3561.1009L13900.5802,-3561.1005L13900.6421,-3561.0768L13900.6685,-3561.0688L13900.7096,-3561.0566L13900.8657,-3561.0249L13900.9278,-3561.0162L13900.9741,-3561.0131L13901.017,-3561.013L13901.0303,-3561.013L13901.0319,-3561.013L13901.043,-3561.013L13901.0471,-3561.013L13901.0478,-3561.013L13901.0496,-3561.0131L13901.1254,-3561.0157L13901.1782,-3561.0189L13901.2128,-3561.0234L13901.2292,-3561.0249L13901.383,-3561.0467L13901.4806,-3561.0644L13901.4814,-3561.0646L13901.4827,-3561.0648L13901.4838,-3561.065L13901.4839,-3561.0651L13901.484,-3561.0651L13901.4842,-3561.0651L13901.5073,-3561.0693L13901.5073,-3561.0693L13901.5073,-3561.0693L13901.5101,-3561.0699L13901.6302,-3561.0962L13901.7266,-3561.1095L13901.7268,-3561.1095L13901.7269,-3561.1096L13901.727,-3561.1096L13901.7271,-3561.1096L13901.7272,-3561.1096L13901.7272,-3561.1096L13901.7272,-3561.1096L13901.7273,-3561.1096L13901.7273,-3561.1096L13901.7274,-3561.1096L13901.7274,-3561.1096L13901.7274,-3561.1096L13901.7274,-3561.1096L13901.7281,-3561.1097L13901.7281,-3561.1097L13901.7281,-3561.1097L13901.8338,-3561.1229L13901.8937,-3561.1298L13902.0188,-3561.1406L13902.0996,-3561.1465"/>
<path content="1,山梨交通（株）,北杜・白州～新宿線,1.0,1.0,1.0," xlink:title="1" d="M13902.0996,-3561.1465L13902.0188,-3561.1405L13902.0188,-3561.1405L13902.0188,-3561.1405L13901.8936,-3561.1297L13901.8337,-3561.1229L13901.7281,-3561.1097L13901.7281,-3561.1097L13901.7281,-3561.1097L13901.7274,-3561.1096L13901.7274,-3561.1096L13901.7274,-3561.1096L13901.7274,-3561.1096L13901.7273,-3561.1096L13901.7273,-3561.1096L13901.7272,-3561.1096L13901.7272,-3561.1096L13901.7272,-3561.1096L13901.7271,-3561.1096L13901.727,-3561.1096L13901.7269,-3561.1096L13901.7268,-3561.1095L13901.7266,-3561.1095L13901.6302,-3561.0961L13901.5101,-3561.0699L13901.5073,-3561.0693L13901.5073,-3561.0693L13901.5073,-3561.0693L13901.4842,-3561.0651L13901.484,-3561.0651L13901.4839,-3561.0651L13901.4838,-3561.065L13901.4827,-3561.0648L13901.4814,-3561.0646L13901.4806,-3561.0644L13901.3829,-3561.0466L13901.2291,-3561.0249L13901.2128,-3561.0233L13901.1782,-3561.0189L13901.1253,-3561.0157L13901.0497,-3561.0131L13901.0468,-3561.0129L13900.9741,-3561.013L13900.9278,-3561.0162L13900.8656,-3561.0248L13900.7096,-3561.0564L13900.6684,-3561.0688L13900.6421,-3561.0768L13900.5791,-3561.1009L13900.5143,-3561.1301L13900.4678,-3561.1549L13900.4616,-3561.1588L13900.4528,-3561.1645L13900.3748,-3561.215L13900.2663,-3561.2878L13900.1703,-3561.3603L13900.0143,-3561.4824L13899.9999,-3561.4935L13899.9023,-3561.5694"/>
<path content="1,山梨交通（株）,甲府～新宿線,9.0,9.0,9.0," xlink:title="1" d="M13902.0996,-3561.1465L13902.0188,-3561.1405L13901.8936,-3561.1298L13901.8338,-3561.1229L13901.7281,-3561.1097L13901.7281,-3561.1097L13901.7281,-3561.1097L13901.7274,-3561.1096L13901.7274,-3561.1096L13901.7274,-3561.1096L13901.7274,-3561.1096L13901.7273,-3561.1096L13901.7273,-3561.1096L13901.7272,-3561.1096L13901.7272,-3561.1096L13901.7272,-3561.1096L13901.7271,-3561.1096L13901.727,-3561.1096L13901.7269,-3561.1096L13901.7268,-3561.1095L13901.7266,-3561.1095L13901.6302,-3561.0962L13901.5101,-3561.0699L13901.5073,-3561.0693L13901.5073,-3561.0693L13901.5073,-3561.0693L13901.4842,-3561.0651L13901.484,-3561.0651L13901.4839,-3561.0651L13901.4838,-3561.065L13901.4827,-3561.0648L13901.4814,-3561.0646L13901.4806,-3561.0644L13901.3829,-3561.0466L13901.2291,-3561.0249L13901.2128,-3561.0233L13901.1782,-3561.0189L13901.1253,-3561.0157L13901.0497,-3561.0131L13901.0478,-3561.013L13901.0475,-3561.013L13901.047,-3561.013L13901.0469,-3561.013L13901.043,-3561.013L13901.0319,-3561.013L13901.017,-3561.013L13900.9741,-3561.013L13900.9278,-3561.0162L13900.8656,-3561.0249L13900.7096,-3561.0565L13900.6684,-3561.0688L13900.6421,-3561.0768L13900.5802,-3561.1005L13900.5791,-3561.1009L13900.5791,-3561.1009L13900.5143,-3561.1301L13900.4678,-3561.1549L13900.4616,-3561.1588L13900.4529,-3561.1645L13900.3748,-3561.215L13900.2663,-3561.2878L13900.1703,-3561.3603L13900.0143,-3561.4824L13900,-3561.4935L13899.9023,-3561.5694"/>
<path content="1,山梨交通（株）,竜王・甲府～成田空港線,3.0,3.0,3.0," xlink:title="1" d="M13899.9023,-3561.5694L13900,-3561.4935L13900.0143,-3561.4824L13900.1703,-3561.3603L13900.2663,-3561.2878L13900.3748,-3561.215L13900.4528,-3561.1645L13900.4616,-3561.1588L13900.4678,-3561.1549L13900.5143,-3561.1301L13900.5791,-3561.1009L13900.6421,-3561.0768L13900.6684,-3561.0688L13900.7096,-3561.0565L13900.8656,-3561.0249L13900.9278,-3561.0162L13900.9741,-3561.013L13901.043,-3561.013L13901.043,-3561.013L13901.0468,-3561.0129L13901.0469,-3561.013L13901.0471,-3561.013L13901.0497,-3561.0131L13901.1253,-3561.0157L13901.1782,-3561.0189L13901.2128,-3561.0233L13901.2291,-3561.0249L13901.3829,-3561.0466L13901.4806,-3561.0644L13901.4814,-3561.0646L13901.4827,-3561.0648L13901.4838,-3561.065L13901.4839,-3561.0651L13901.484,-3561.0651L13901.4842,-3561.0651L13901.5073,-3561.0693L13901.5073,-3561.0693L13901.5073,-3561.0693L13901.5101,-3561.0699L13901.6302,-3561.0961L13901.7266,-3561.1095L13901.7268,-3561.1095L13901.7269,-3561.1096L13901.727,-3561.1096L13901.7271,-3561.1096L13901.7272,-3561.1096L13901.7272,-3561.1096L13901.7272,-3561.1096L13901.7273,-3561.1096L13901.7273,-3561.1096L13901.7274,-3561.1096L13901.7274,-3561.1096L13901.7274,-3561.1096L13901.7274,-3561.1096L13901.7281,-3561.1097L13901.7281,-3561.1097L13901.7281,-3561.1097L13901.8338,-3561.1229L13901.8936,-3561.1298L13902.0188,-3561.1405L13902.0188,-3561.1405L13902.0188,-3561.1405L13902.0996,-3561.1465"/>
<path content="1,山梨交通（株）,竜王・甲府～羽田空港線,2.0,2.0,2.0," xlink:title="1" d="M13899.9023,-3561.5694L13899.9999,-3561.4935L13900.0143,-3561.4824L13900.1703,-3561.3603L13900.2663,-3561.2878L13900.3748,-3561.215L13900.4528,-3561.1645L13900.4616,-3561.1588L13900.4678,-3561.1549L13900.5143,-3561.1301L13900.5791,-3561.1009L13900.6421,-3561.0768L13900.6684,-3561.0688L13900.7096,-3561.0564L13900.8656,-3561.0248L13900.9278,-3561.0162L13900.9741,-3561.013L13901.0468,-3561.0129L13901.0497,-3561.0131L13901.1253,-3561.0157L13901.1782,-3561.0189L13901.2128,-3561.0233L13901.2291,-3561.0249L13901.3829,-3561.0466L13901.4806,-3561.0644L13901.4814,-3561.0646L13901.4827,-3561.0648L13901.4838,-3561.065L13901.4839,-3561.0651L13901.484,-3561.0651L13901.4842,-3561.0651L13901.5073,-3561.0693L13901.5073,-3561.0693L13901.5073,-3561.0693L13901.5101,-3561.0699L13901.6302,-3561.0961L13901.7266,-3561.1095L13901.7268,-3561.1095L13901.7269,-3561.1096L13901.727,-3561.1096L13901.7271,-3561.1096L13901.7272,-3561.1096L13901.7272,-3561.1096L13901.7272,-3561.1096L13901.7273,-3561.1096L13901.7273,-3561.1096L13901.7274,-3561.1096L13901.7274,-3561.1096L13901.7274,-3561.1096L13901.7274,-3561.1096L13901.7281,-3561.1097L13901.7281,-3561.1097L13901.7281,-3561.1097L13901.8337,-3561.1229L13901.8936,-3561.1297L13902.0188,-3561.1405L13902.0188,-3561.1405L13902.0188,-3561.1405L13902.0996,-3561.1465"/>
<path content="1,山梨交通（株）,諏訪・岡谷～新宿線,17.0,17.0,17.0," xlink:title="1" d="M13902.0996,-3561.1465L13902.0188,-3561.1406L13901.8937,-3561.1298L13901.8338,-3561.1229L13901.7281,-3561.1097L13901.7281,-3561.1097L13901.7281,-3561.1097L13901.7274,-3561.1096L13901.7274,-3561.1096L13901.7274,-3561.1096L13901.7274,-3561.1096L13901.7273,-3561.1096L13901.7273,-3561.1096L13901.7272,-3561.1096L13901.7272,-3561.1096L13901.7272,-3561.1096L13901.7271,-3561.1096L13901.727,-3561.1096L13901.7269,-3561.1096L13901.7268,-3561.1095L13901.7266,-3561.1095L13901.6302,-3561.0962L13901.5101,-3561.0699L13901.5073,-3561.0693L13901.5073,-3561.0693L13901.5073,-3561.0693L13901.4842,-3561.0651L13901.484,-3561.0651L13901.4839,-3561.0651L13901.4838,-3561.065L13901.4827,-3561.0648L13901.4814,-3561.0646L13901.4806,-3561.0644L13901.383,-3561.0467L13901.2292,-3561.0249L13901.2128,-3561.0234L13901.1782,-3561.0189L13901.1254,-3561.0157L13901.0496,-3561.0131L13901.0478,-3561.013L13901.0471,-3561.013L13901.043,-3561.013L13901.0319,-3561.013L13901.0303,-3561.013L13901.017,-3561.013L13900.9741,-3561.0131L13900.9278,-3561.0162L13900.8657,-3561.0249L13900.7096,-3561.0566L13900.6685,-3561.0688L13900.6421,-3561.0768L13900.5802,-3561.1005L13900.5791,-3561.1009L13900.5791,-3561.1009L13900.5143,-3561.1302L13900.4678,-3561.155L13900.4617,-3561.1589L13900.4529,-3561.1646L13900.3748,-3561.215L13900.2663,-3561.2878L13900.1703,-3561.3603L13900.0143,-3561.4824L13900,-3561.4935L13899.9023,-3561.5694"/>
<path content="1,山梨交通（株）,身延・身延山～新宿線,4.0,4.0,4.0," xlink:title="1" d="M13899.9023,-3561.5694L13899.9999,-3561.4935L13900.0143,-3561.4824L13900.1703,-3561.3603L13900.2663,-3561.2878L13900.3748,-3561.215L13900.4528,-3561.1645L13900.4616,-3561.1588L13900.4678,-3561.1549L13900.5143,-3561.1301L13900.5791,-3561.1009L13900.6421,-3561.0768L13900.6684,-3561.0688L13900.7096,-3561.0564L13900.8656,-3561.0248L13900.9278,-3561.0162L13900.9741,-3561.013L13901.0468,-3561.0129L13901.0497,-3561.0131L13901.1253,-3561.0157L13901.1782,-3561.0189L13901.2128,-3561.0233L13901.2291,-3561.0249L13901.3829,-3561.0466L13901.4806,-3561.0644L13901.4814,-3561.0646L13901.4827,-3561.0648L13901.4838,-3561.065L13901.4839,-3561.0651L13901.484,-3561.0651L13901.4842,-3561.0651L13901.5073,-3561.0693L13901.5073,-3561.0693L13901.5073,-3561.0693L13901.5101,-3561.0699L13901.6302,-3561.0961L13901.7266,-3561.1095L13901.7268,-3561.1095L13901.7269,-3561.1096L13901.727,-3561.1096L13901.7271,-3561.1096L13901.7272,-3561.1096L13901.7272,-3561.1096L13901.7272,-3561.1096L13901.7273,-3561.1096L13901.7273,-3561.1096L13901.7274,-3561.1096L13901.7274,-3561.1096L13901.7274,-3561.1096L13901.7274,-3561.1096L13901.7281,-3561.1097L13901.7281,-3561.1097L13901.7281,-3561.1097L13901.8337,-3561.1229L13901.8936,-3561.1297L13902.0188,-3561.1405L13902.0188,-3561.1405L13902.0188,-3561.1405L13902.0996,-3561.1465"/>
<path content="1,山梨交通（株）,駒ヶ根～新宿,2.0,2.0,2.0," xlink:title="1" d="M13899.9023,-3561.5694L13900,-3561.4935L13900.0143,-3561.4824L13900.1703,-3561.3603L13900.2663,-3561.2878L13900.3748,-3561.215L13900.4529,-3561.1646L13900.4617,-3561.1589L13900.4678,-3561.155L13900.5143,-3561.1302L13900.5791,-3561.1009L13900.5791,-3561.1009L13900.5802,-3561.1005L13900.6421,-3561.0768L13900.6685,-3561.0688L13900.7096,-3561.0566L13900.8657,-3561.0249L13900.9278,-3561.0162L13900.9741,-3561.0131L13901.017,-3561.013L13901.0303,-3561.013L13901.0319,-3561.013L13901.043,-3561.013L13901.0471,-3561.013L13901.0478,-3561.013L13901.0496,-3561.0131L13901.1254,-3561.0157L13901.1782,-3561.0189L13901.2128,-3561.0234L13901.2292,-3561.0249L13901.383,-3561.0467L13901.4806,-3561.0644L13901.4814,-3561.0646L13901.4827,-3561.0648L13901.4838,-3561.065L13901.4839,-3561.0651L13901.484,-3561.0651L13901.4842,-3561.0651L13901.5073,-3561.0693L13901.5073,-3561.0693L13901.5073,-3561.0693L13901.5101,-3561.0699L13901.6302,-3561.0962L13901.7266,-3561.1095L13901.7268,-3561.1095L13901.7269,-3561.1096L13901.727,-3561.1096L13901.7271,-3561.1096L13901.7272,-3561.1096L13901.7272,-3561.1096L13901.7272,-3561.1096L13901.7273,-3561.1096L13901.7273,-3561.1096L13901.7274,-3561.1096L13901.7274,-3561.1096L13901.7274,-3561.1096L13901.7274,-3561.1096L13901.7281,-3561.1097L13901.7281,-3561.1097L13901.7281,-3561.1097L13901.8338,-3561.1229L13901.8937,-3561.1298L13902.0188,-3561.1406L13902.0996,-3561.1465"/>
<path content="1,山陽電気鉄道（株）,レッツ号　神戸・大阪・京都～東京（立川）線,1.0,1.0,1.0," xlink:title="1" d="M13899.9023,-3561.5694L13899.9999,-3561.4935L13900.0143,-3561.4824L13900.1703,-3561.3603L13900.2663,-3561.2878L13900.3748,-3561.215L13900.4528,-3561.1645L13900.4616,-3561.1588L13900.4678,-3561.1549L13900.5143,-3561.1301L13900.5791,-3561.1009L13900.6421,-3561.0768L13900.6684,-3561.0688L13900.7096,-3561.0564L13900.8656,-3561.0248L13900.9278,-3561.0162L13900.9741,-3561.013L13901.0468,-3561.0129L13901.0497,-3561.0131L13901.1253,-3561.0157L13901.1782,-3561.0189L13901.2128,-3561.0233L13901.2291,-3561.0249L13901.3829,-3561.0466L13901.5073,-3561.0693L13901.6302,-3561.0961L13901.7281,-3561.1097L13901.8337,-3561.1229L13901.8936,-3561.1297L13902.0188,-3561.1405L13902.0996,-3561.1465"/>
<path content="1,岐阜バス観光（株）,高速新宿線,1.0,1.0,1.0," xlink:title="1" d="M13899.9023,-3561.5694L13899.9999,-3561.4935L13900.0143,-3561.4824L13900.1703,-3561.3603L13900.2663,-3561.2878L13900.3748,-3561.215L13900.4528,-3561.1645L13900.4616,-3561.1588L13900.4678,-3561.1549L13900.5143,-3561.1301L13900.5791,-3561.1009L13900.6421,-3561.0768L13900.6684,-3561.0688L13900.7096,-3561.0564L13900.8656,-3561.0248L13900.9278,-3561.0162L13900.9741,-3561.013L13901.0468,-3561.0129L13901.0497,-3561.0131L13901.1253,-3561.0157L13901.1782,-3561.0189L13901.2128,-3561.0233L13901.2291,-3561.0249L13901.3829,-3561.0466L13901.5073,-3561.0693L13901.6302,-3561.0961L13901.7281,-3561.1097L13901.8337,-3561.1229L13901.8936,-3561.1297L13902.0188,-3561.1405L13902.0996,-3561.1465"/>
<path content="1,川中島バス（株）,特急白馬～新宿線,2.0,2.0,2.0," xlink:title="1" d="M13899.9023,-3561.5694L13899.9999,-3561.4935L13900.0143,-3561.4824L13900.1703,-3561.3603L13900.2663,-3561.2878L13900.3748,-3561.215L13900.4528,-3561.1645L13900.4616,-3561.1588L13900.4678,-3561.1549L13900.5143,-3561.1301L13900.5791,-3561.1009L13900.6421,-3561.0768L13900.6684,-3561.0688L13900.7096,-3561.0564L13900.8656,-3561.0248L13900.9278,-3561.0162L13900.9741,-3561.013L13901.0468,-3561.0129L13901.0497,-3561.0131L13901.1253,-3561.0157L13901.1782,-3561.0189L13901.2128,-3561.0233L13901.2291,-3561.0249L13901.3829,-3561.0466L13901.5073,-3561.0693L13901.6302,-3561.0961L13901.7281,-3561.1097L13901.8337,-3561.1229L13901.8936,-3561.1297L13902.0188,-3561.1405L13902.0996,-3561.1465"/>
<path content="1,東濃鉄道（株）,中央ライナー号,1.0,1.0,1.0," xlink:title="1" d="M13899.9023,-3561.5694L13899.9999,-3561.4935L13900.0143,-3561.4824L13900.1703,-3561.3603L13900.2663,-3561.2878L13900.3748,-3561.215L13900.4528,-3561.1645L13900.4616,-3561.1588L13900.4678,-3561.1549L13900.5143,-3561.1301L13900.5791,-3561.1009L13900.6421,-3561.0768L13900.6684,-3561.0688L13900.7096,-3561.0564L13900.8656,-3561.0248L13900.9278,-3561.0162L13900.9741,-3561.013L13901.0468,-3561.0129L13901.0497,-3561.0131L13901.1253,-3561.0157L13901.1782,-3561.0189L13901.2128,-3561.0233L13901.2291,-3561.0249L13901.3829,-3561.0466L13901.5073,-3561.0693L13901.6302,-3561.0961L13901.7281,-3561.1097L13901.8337,-3561.1229L13901.8936,-3561.1297L13902.0188,-3561.1405L13902.0996,-3561.1465"/>
<path content="1,松本電気鉄道（株）,特急松本新宿線,11.0,11.0,11.0," xlink:title="1" d="M13899.9023,-3561.5694L13899.9999,-3561.4935L13900.0143,-3561.4824L13900.1703,-3561.3603L13900.2663,-3561.2878L13900.3748,-3561.215L13900.4528,-3561.1645L13900.4616,-3561.1588L13900.4678,-3561.1549L13900.5143,-3561.1301L13900.5791,-3561.1009L13900.6421,-3561.0768L13900.6684,-3561.0688L13900.7096,-3561.0564L13900.8656,-3561.0248L13900.9278,-3561.0162L13900.9741,-3561.013L13901.0468,-3561.0129L13901.0497,-3561.0131L13901.1253,-3561.0157L13901.1782,-3561.0189L13901.2128,-3561.0233L13901.2291,-3561.0249L13901.3829,-3561.0466L13901.5073,-3561.0693L13901.6302,-3561.0961L13901.7281,-3561.1097L13901.8337,-3561.1229L13901.8936,-3561.1297L13902.0188,-3561.1405L13902.0996,-3561.1465"/>
<path content="1,松本電気鉄道（株）,特急白馬新宿線,4.0,4.0,4.0," xlink:title="1" d="M13899.9023,-3561.5694L13899.9999,-3561.4935L13900.0143,-3561.4824L13900.1703,-3561.3603L13900.2663,-3561.2878L13900.3748,-3561.215L13900.4528,-3561.1645L13900.4616,-3561.1588L13900.4678,-3561.1549L13900.5143,-3561.1301L13900.5791,-3561.1009L13900.6421,-3561.0768L13900.6684,-3561.0688L13900.7096,-3561.0564L13900.8656,-3561.0248L13900.9278,-3561.0162L13900.9741,-3561.013L13901.0468,-3561.0129L13901.0497,-3561.0131L13901.1253,-3561.0157L13901.1782,-3561.0189L13901.2128,-3561.0233L13901.2291,-3561.0249L13901.3829,-3561.0466L13901.5073,-3561.0693L13901.6302,-3561.0961L13901.7281,-3561.1097L13901.8337,-3561.1229L13901.8936,-3561.1297L13902.0188,-3561.1405L13902.0996,-3561.1465"/>
<path content="1,濃飛乗合自動車（株）,新宿線,2.0,2.0,2.0," xlink:title="1" d="M13899.9023,-3561.5694L13899.9999,-3561.4935L13900.0143,-3561.4824L13900.1703,-3561.3603L13900.2663,-3561.2878L13900.3748,-3561.215L13900.4528,-3561.1645L13900.4616,-3561.1588L13900.4678,-3561.1549L13900.5143,-3561.1301L13900.5791,-3561.1009L13900.6421,-3561.0768L13900.6684,-3561.0688L13900.7096,-3561.0564L13900.8656,-3561.0248L13900.9278,-3561.0162L13900.9741,-3561.013L13901.0468,-3561.0129L13901.0497,-3561.0131L13901.1253,-3561.0157L13901.1782,-3561.0189L13901.2128,-3561.0233L13901.2291,-3561.0249L13901.3829,-3561.0466L13901.5073,-3561.0693L13901.6302,-3561.0961L13901.7281,-3561.1097L13901.8337,-3561.1229L13901.8936,-3561.1297L13902.0188,-3561.1405L13902.0996,-3561.1465"/>
<path content="1,石見交通（株）,いわみEX　東京線,1.0,1.0,1.0," xlink:title="1" d="M13899.9023,-3561.5694L13899.9999,-3561.4935L13900.0143,-3561.4824L13900.1703,-3561.3603L13900.2663,-3561.2878L13900.3748,-3561.215L13900.4528,-3561.1645L13900.4616,-3561.1588L13900.4678,-3561.1549L13900.5143,-3561.1301L13900.5791,-3561.1009L13900.6421,-3561.0768L13900.6684,-3561.0688L13900.7096,-3561.0564L13900.8656,-3561.0248L13900.9278,-3561.0162L13900.9741,-3561.013L13901.0468,-3561.0129L13901.0497,-3561.0131L13901.1253,-3561.0157L13901.1782,-3561.0189L13901.2128,-3561.0233L13901.2291,-3561.0249L13901.3829,-3561.0466L13901.5073,-3561.0693L13901.6302,-3561.0961L13901.7281,-3561.1097L13901.8337,-3561.1229L13901.8936,-3561.1297L13902.0188,-3561.1405L13902.0996,-3561.1465"/>
<path content="1,立川バス（株）,立川駅～京都・大阪～神戸三宮線,1.0,1.0,1.0," xlink:title="1" d="M13899.9023,-3561.5694L13900,-3561.4935L13900.0143,-3561.4824L13900.1703,-3561.3603L13900.2663,-3561.2878L13900.3748,-3561.215L13900.4529,-3561.1646L13900.4617,-3561.1589L13900.4678,-3561.155L13900.5143,-3561.1302L13900.5791,-3561.1009L13900.5791,-3561.1009L13900.5802,-3561.1005L13900.6421,-3561.0768L13900.6685,-3561.0688L13900.7096,-3561.0566L13900.8657,-3561.0249L13900.9278,-3561.0162L13900.9741,-3561.0131L13901.017,-3561.013L13901.0303,-3561.013L13901.0319,-3561.013L13901.043,-3561.013L13901.0471,-3561.013L13901.0478,-3561.013L13901.0496,-3561.0131L13901.1254,-3561.0157L13901.1782,-3561.0189L13901.2128,-3561.0234L13901.2292,-3561.0249L13901.383,-3561.0467L13901.4806,-3561.0644L13901.4814,-3561.0646L13901.4827,-3561.0648L13901.4838,-3561.065L13901.4839,-3561.0651L13901.484,-3561.0651L13901.4842,-3561.0651L13901.5073,-3561.0693L13901.5073,-3561.0693L13901.5073,-3561.0693L13901.5101,-3561.0699L13901.6302,-3561.0962L13901.7266,-3561.1095L13901.7268,-3561.1095L13901.7269,-3561.1096L13901.727,-3561.1096L13901.7271,-3561.1096L13901.7272,-3561.1096L13901.7272,-3561.1096L13901.7272,-3561.1096L13901.7273,-3561.1096L13901.7273,-3561.1096L13901.7274,-3561.1096L13901.7274,-3561.1096L13901.7274,-3561.1096L13901.7274,-3561.1096L13901.7281,-3561.1097L13901.7281,-3561.1097L13901.7281,-3561.1097L13901.8338,-3561.1229L13901.8937,-3561.1298L13902.0188,-3561.1406L13902.0996,-3561.1465"/>
<path content="1,西東京バス（株）,オレンジライナー号,1.0,1.0,1.0," xlink:title="1" d="M13899.9023,-3561.5694L13900,-3561.4935L13900.0143,-3561.4824L13900.1703,-3561.3603L13900.2663,-3561.2878L13900.3748,-3561.215L13900.4529,-3561.1646L13900.4617,-3561.1589L13900.4678,-3561.155L13900.5143,-3561.1302L13900.5791,-3561.1009L13900.5791,-3561.1009L13900.5802,-3561.1005L13900.6421,-3561.0768L13900.6685,-3561.0688L13900.7096,-3561.0566L13900.8657,-3561.0249L13900.9278,-3561.0162L13900.9741,-3561.0131L13901.017,-3561.013L13901.0303,-3561.013L13901.0319,-3561.013L13901.043,-3561.013L13901.0471,-3561.013L13901.0478,-3561.013L13901.0496,-3561.0131L13901.1254,-3561.0157L13901.1782,-3561.0189L13901.2128,-3561.0234L13901.2292,-3561.0249L13901.383,-3561.0467L13901.4806,-3561.0644L13901.4814,-3561.0646L13901.4827,-3561.0648L13901.4838,-3561.065L13901.4839,-3561.0651L13901.484,-3561.0651L13901.4842,-3561.0651L13901.5073,-3561.0693L13901.5073,-3561.0693L13901.5073,-3561.0693L13901.5101,-3561.0699L13901.6302,-3561.0962L13901.7266,-3561.1095L13901.7268,-3561.1095L13901.7269,-3561.1096L13901.727,-3561.1096L13901.7271,-3561.1096L13901.7272,-3561.1096L13901.7272,-3561.1096L13901.7272,-3561.1096L13901.7273,-3561.1096L13901.7273,-3561.1096L13901.7274,-3561.1096L13901.7274,-3561.1096L13901.7274,-3561.1096L13901.7274,-3561.1096L13901.7281,-3561.1097L13901.7281,-3561.1097L13901.7281,-3561.1097L13901.8338,-3561.1229L13901.8937,-3561.1298L13902.0188,-3561.1406L13902.0996,-3561.1465"/>
<path content="1,西東京バス（株）,ツインクル号,1.0,1.0,1.0," xlink:title="1" d="M13902.0996,-3561.1465L13902.0188,-3561.1405L13902.0188,-3561.1405L13902.0188,-3561.1405L13901.8936,-3561.1297L13901.8337,-3561.1229L13901.7281,-3561.1097L13901.7281,-3561.1097L13901.7281,-3561.1097L13901.7274,-3561.1096L13901.7274,-3561.1096L13901.7274,-3561.1096L13901.7274,-3561.1096L13901.7273,-3561.1096L13901.7273,-3561.1096L13901.7272,-3561.1096L13901.7272,-3561.1096L13901.7272,-3561.1096L13901.7271,-3561.1096L13901.727,-3561.1096L13901.7269,-3561.1096L13901.7268,-3561.1095L13901.7266,-3561.1095L13901.6302,-3561.0961L13901.5101,-3561.0699L13901.5073,-3561.0693L13901.5073,-3561.0693L13901.5073,-3561.0693L13901.4842,-3561.0651L13901.484,-3561.0651L13901.4839,-3561.0651L13901.4838,-3561.065L13901.4827,-3561.0648L13901.4814,-3561.0646L13901.4806,-3561.0644L13901.3829,-3561.0466L13901.2291,-3561.0249L13901.2128,-3561.0233L13901.1782,-3561.0189L13901.1253,-3561.0157L13901.0497,-3561.0131L13901.0468,-3561.0129L13900.9741,-3561.013L13900.9278,-3561.0162L13900.8656,-3561.0248L13900.7096,-3561.0564L13900.6684,-3561.0688L13900.6421,-3561.0768L13900.5791,-3561.1009L13900.5143,-3561.1301L13900.4678,-3561.1549L13900.4616,-3561.1588L13900.4528,-3561.1645L13900.3748,-3561.215L13900.2663,-3561.2878L13900.1703,-3561.3603L13900.0143,-3561.4824L13899.9999,-3561.4935L13899.9023,-3561.5694"/>
<path content="1,西武バス（株）,三都線,1.0,1.0,1.0," xlink:title="1" d="M13902.0996,-3561.1465L13902.0188,-3561.1406L13901.8937,-3561.1298L13901.8338,-3561.1229L13901.7281,-3561.1097L13901.7281,-3561.1097L13901.7281,-3561.1097L13901.7274,-3561.1096L13901.7274,-3561.1096L13901.7274,-3561.1096L13901.7274,-3561.1096L13901.7273,-3561.1096L13901.7273,-3561.1096L13901.7272,-3561.1096L13901.7272,-3561.1096L13901.7272,-3561.1096L13901.7271,-3561.1096L13901.727,-3561.1096L13901.7269,-3561.1096L13901.7268,-3561.1095L13901.7266,-3561.1095L13901.6302,-3561.0962L13901.5101,-3561.0699L13901.5073,-3561.0693L13901.5073,-3561.0693L13901.5073,-3561.0693L13901.4842,-3561.0651L13901.484,-3561.0651L13901.4839,-3561.0651L13901.4838,-3561.065L13901.4827,-3561.0648L13901.4814,-3561.0646L13901.4806,-3561.0644L13901.383,-3561.0467L13901.2292,-3561.0249L13901.2128,-3561.0234L13901.1782,-3561.0189L13901.1254,-3561.0157L13901.0496,-3561.0131L13901.0478,-3561.013L13901.0471,-3561.013L13901.043,-3561.013L13901.0319,-3561.013L13901.0303,-3561.013L13901.017,-3561.013L13900.9741,-3561.0131L13900.9278,-3561.0162L13900.8657,-3561.0249L13900.7096,-3561.0566L13900.6685,-3561.0688L13900.6421,-3561.0768L13900.5802,-3561.1005L13900.5791,-3561.1009L13900.5791,-3561.1009L13900.5143,-3561.1302L13900.4678,-3561.155L13900.4617,-3561.1589L13900.4529,-3561.1646L13900.3748,-3561.215L13900.2663,-3561.2878L13900.1703,-3561.3603L13900.0143,-3561.4824L13900,-3561.4935L13899.9023,-3561.5694"/>
<path content="1,西武バス（株）,伊勢・鳥羽線,2.0,2.0,2.0," xlink:title="1" d="M13902.0996,-3561.1465L13902.0188,-3561.1406L13901.8937,-3561.1298L13901.8338,-3561.1229L13901.7281,-3561.1097L13901.7281,-3561.1097L13901.7281,-3561.1097L13901.7274,-3561.1096L13901.7274,-3561.1096L13901.7274,-3561.1096L13901.7274,-3561.1096L13901.7273,-3561.1096L13901.7273,-3561.1096L13901.7272,-3561.1096L13901.7272,-3561.1096L13901.7272,-3561.1096L13901.7271,-3561.1096L13901.727,-3561.1096L13901.7269,-3561.1096L13901.7268,-3561.1095L13901.7266,-3561.1095L13901.6302,-3561.0962L13901.5101,-3561.0699L13901.5073,-3561.0693L13901.5073,-3561.0693L13901.5073,-3561.0693L13901.4842,-3561.0651L13901.484,-3561.0651L13901.4839,-3561.0651L13901.4838,-3561.065L13901.4827,-3561.0648L13901.4814,-3561.0646L13901.4806,-3561.0644L13901.383,-3561.0467L13901.2292,-3561.0249L13901.2128,-3561.0234L13901.1782,-3561.0189L13901.1254,-3561.0157L13901.0496,-3561.0131L13901.0478,-3561.013L13901.0471,-3561.013L13901.043,-3561.013L13901.0319,-3561.013L13901.0303,-3561.013L13901.017,-3561.013L13900.9741,-3561.0131L13900.9278,-3561.0162L13900.8657,-3561.0249L13900.7096,-3561.0566L13900.6685,-3561.0688L13900.6421,-3561.0768L13900.5802,-3561.1005L13900.5791,-3561.1009L13900.5791,-3561.1009L13900.5143,-3561.1302L13900.4678,-3561.155L13900.4617,-3561.1589L13900.4529,-3561.1646L13900.3748,-3561.215L13900.2663,-3561.2878L13900.1703,-3561.3603L13900.0143,-3561.4824L13900,-3561.4935L13899.9023,-3561.5694"/>
<path content="1,西武バス（株）,河口湖線,1.0,1.0,1.0," xlink:title="1" d="M13899.9023,-3561.5694L13899.9999,-3561.4935L13900.0143,-3561.4824L13900.1703,-3561.3603L13900.2663,-3561.2878L13900.3748,-3561.215L13900.4528,-3561.1645L13900.4616,-3561.1588L13900.4678,-3561.1549L13900.5143,-3561.1301L13900.5791,-3561.1009L13900.6421,-3561.0768L13900.6684,-3561.0688L13900.7096,-3561.0564L13900.8656,-3561.0248L13900.9278,-3561.0162L13900.9741,-3561.013L13901.0468,-3561.0129L13901.0497,-3561.0131L13901.1253,-3561.0157L13901.1782,-3561.0189L13901.2128,-3561.0233L13901.2291,-3561.0249L13901.3829,-3561.0466L13901.4806,-3561.0644L13901.4814,-3561.0646L13901.4827,-3561.0648L13901.4838,-3561.065L13901.4839,-3561.0651L13901.484,-3561.0651L13901.4842,-3561.0651L13901.5073,-3561.0693L13901.5073,-3561.0693L13901.5073,-3561.0693L13901.5101,-3561.0699L13901.6302,-3561.0961L13901.7266,-3561.1095L13901.7268,-3561.1095L13901.7269,-3561.1096L13901.727,-3561.1096L13901.7271,-3561.1096L13901.7272,-3561.1096L13901.7272,-3561.1096L13901.7272,-3561.1096L13901.7273,-3561.1096L13901.7273,-3561.1096L13901.7274,-3561.1096L13901.7274,-3561.1096L13901.7274,-3561.1096L13901.7274,-3561.1096L13901.7281,-3561.1097L13901.7281,-3561.1097L13901.7281,-3561.1097L13901.8337,-3561.1229L13901.8936,-3561.1297L13902.0188,-3561.1405L13902.0188,-3561.1405L13902.0188,-3561.1405L13902.0996,-3561.1465"/>
<path content="1,諏訪バス（株）,岡谷・諏訪・茅野～新宿線_01_on,17.0,17.0,17.0," xlink:title="1" d="M13899.9023,-3561.5694L13899.9999,-3561.4935L13900.0143,-3561.4824L13900.1703,-3561.3603L13900.2663,-3561.2878L13900.3748,-3561.215L13900.4528,-3561.1645L13900.4616,-3561.1588L13900.4678,-3561.1549L13900.5143,-3561.1301L13900.5791,-3561.1009L13900.6421,-3561.0768L13900.6684,-3561.0688L13900.7096,-3561.0564L13900.8656,-3561.0248L13900.9278,-3561.0162L13900.9741,-3561.013L13901.0468,-3561.0129L13901.0497,-3561.0131L13901.1253,-3561.0157L13901.1782,-3561.0189L13901.2128,-3561.0233L13901.2291,-3561.0249L13901.3829,-3561.0466L13901.5073,-3561.0693L13901.6302,-3561.0961L13901.7281,-3561.1097L13901.8337,-3561.1229L13901.8936,-3561.1297L13902.0188,-3561.1405L13902.0996,-3561.1465"/>
<path content="1,諏訪バス（株）,岡谷・諏訪・茅野～新宿線_02_on,17.0,17.0,17.0," xlink:title="1" d="M13899.9023,-3561.5694L13899.9999,-3561.4935L13900.0143,-3561.4824L13900.1703,-3561.3603L13900.2663,-3561.2878L13900.3748,-3561.215L13900.4528,-3561.1645L13900.4616,-3561.1588L13900.4678,-3561.1549L13900.5143,-3561.1301L13900.5791,-3561.1009L13900.6421,-3561.0768L13900.6684,-3561.0688L13900.7096,-3561.0564L13900.8656,-3561.0248L13900.9278,-3561.0162L13900.9741,-3561.013L13901.0468,-3561.0129L13901.0497,-3561.0131L13901.1253,-3561.0157L13901.1782,-3561.0189L13901.2128,-3561.0233L13901.2291,-3561.0249L13901.3829,-3561.0466L13901.5073,-3561.0693L13901.6302,-3561.0961L13901.7281,-3561.1097L13901.8337,-3561.1229L13901.8936,-3561.1297L13902.0188,-3561.1405L13902.0996,-3561.1465"/>
<path content="1,諏訪バス（株）,岡谷・諏訪・茅野～新宿線_03_on,17.0,17.0,17.0," xlink:title="1" d="M13899.9023,-3561.5694L13899.9999,-3561.4935L13900.0143,-3561.4824L13900.1703,-3561.3603L13900.2663,-3561.2878L13900.3748,-3561.215L13900.4528,-3561.1645L13900.4616,-3561.1588L13900.4678,-3561.1549L13900.5143,-3561.1301L13900.5791,-3561.1009L13900.6421,-3561.0768L13900.6684,-3561.0688L13900.7096,-3561.0564L13900.8656,-3561.0248L13900.9278,-3561.0162L13900.9741,-3561.013L13901.0468,-3561.0129L13901.0497,-3561.0131L13901.1253,-3561.0157L13901.1782,-3561.0189L13901.2128,-3561.0233L13901.2291,-3561.0249L13901.3829,-3561.0466L13901.5073,-3561.0693L13901.6302,-3561.0961L13901.7281,-3561.1097L13901.8337,-3561.1229L13901.8936,-3561.1297L13902.0188,-3561.1405L13902.0996,-3561.1465"/>
<path content="1,諏訪バス（株）,飯田～新宿線,12.0,12.0,12.0," xlink:title="1" d="M13899.9023,-3561.5694L13899.9999,-3561.4935L13900.0143,-3561.4824L13900.1703,-3561.3603L13900.2663,-3561.2878L13900.3748,-3561.215L13900.4528,-3561.1645L13900.4616,-3561.1588L13900.4678,-3561.1549L13900.5143,-3561.1301L13900.5791,-3561.1009L13900.6421,-3561.0768L13900.6684,-3561.0688L13900.7096,-3561.0564L13900.8656,-3561.0248L13900.9278,-3561.0162L13900.9741,-3561.013L13901.0468,-3561.0129L13901.0497,-3561.0131L13901.1253,-3561.0157L13901.1782,-3561.0189L13901.2128,-3561.0233L13901.2291,-3561.0249L13901.3829,-3561.0466L13901.5073,-3561.0693L13901.6302,-3561.0961L13901.7281,-3561.1097L13901.8337,-3561.1229L13901.8936,-3561.1297L13902.0188,-3561.1405L13902.0996,-3561.1465"/>
<path content="1,諏訪バス（株）,駒ヶ根・伊那～新宿線,11.0,11.0,11.0," xlink:title="1" d="M13899.9023,-3561.5694L13899.9999,-3561.4935L13900.0143,-3561.4824L13900.1703,-3561.3603L13900.2663,-3561.2878L13900.3748,-3561.215L13900.4528,-3561.1645L13900.4616,-3561.1588L13900.4678,-3561.1549L13900.5143,-3561.1301L13900.5791,-3561.1009L13900.6421,-3561.0768L13900.6684,-3561.0688L13900.7096,-3561.0564L13900.8656,-3561.0248L13900.9278,-3561.0162L13900.9741,-3561.013L13901.0468,-3561.0129L13901.0497,-3561.0131L13901.1253,-3561.0157L13901.1782,-3561.0189L13901.2128,-3561.0233L13901.2291,-3561.0249L13901.3829,-3561.0466L13901.5073,-3561.0693L13901.6302,-3561.0961L13901.7281,-3561.1097L13901.8337,-3561.1229L13901.8936,-3561.1297L13902.0188,-3561.1405L13902.0996,-3561.1465"/>
<path content="1,近鉄バス（株）,大阪・茨木⇔新宿・八王子,1.0,1.0,1.0," xlink:title="1" d="M13899.9023,-3561.5694L13899.9999,-3561.4935L13900.0143,-3561.4824L13900.1703,-3561.3603L13900.2663,-3561.2878L13900.3748,-3561.215L13900.4528,-3561.1645L13900.4616,-3561.1588L13900.4678,-3561.1549L13900.5143,-3561.1301L13900.5791,-3561.1009L13900.6421,-3561.0768L13900.6684,-3561.0688L13900.7096,-3561.0564L13900.8656,-3561.0248L13900.9278,-3561.0162L13900.9741,-3561.013L13901.0468,-3561.0129L13901.0497,-3561.0131L13901.1253,-3561.0157L13901.1782,-3561.0189L13901.2128,-3561.0233L13901.2291,-3561.0249L13901.3829,-3561.0466L13901.5073,-3561.0693L13901.6302,-3561.0961L13901.7281,-3561.1097L13901.8337,-3561.1229L13901.8936,-3561.1297L13902.0188,-3561.1405L13902.0996,-3561.1465"/>
<path content="1,関越交通（株）,富士急ハイランド線,999.9,999.9,999.9," xlink:title="1" d="M13899.9023,-3561.5694L13899.9999,-3561.4935L13900.0143,-3561.4824L13900.1703,-3561.3603L13900.2663,-3561.2878L13900.3748,-3561.215L13900.4528,-3561.1645L13900.4616,-3561.1588L13900.4678,-3561.1549L13900.5143,-3561.1301L13900.5791,-3561.1009L13900.6421,-3561.0768L13900.6684,-3561.0688L13900.7096,-3561.0564L13900.8656,-3561.0248L13900.9278,-3561.0162L13900.9741,-3561.013L13901.0468,-3561.0129L13901.0497,-3561.0131L13901.1253,-3561.0157L13901.1782,-3561.0189L13901.2128,-3561.0233L13901.2291,-3561.0249L13901.3829,-3561.0466L13901.4806,-3561.0644L13901.4814,-3561.0646L13901.4827,-3561.0648L13901.4838,-3561.065L13901.4839,-3561.0651L13901.484,-3561.0651L13901.4842,-3561.0651L13901.5073,-3561.0693L13901.5073,-3561.0693L13901.5073,-3561.0693L13901.5101,-3561.0699L13901.6302,-3561.0961L13901.7266,-3561.1095L13901.7268,-3561.1095L13901.7269,-3561.1096L13901.727,-3561.1096L13901.7271,-3561.1096L13901.7272,-3561.1096L13901.7272,-3561.1096L13901.7272,-3561.1096L13901.7273,-3561.1096L13901.7273,-3561.1096L13901.7274,-3561.1096L13901.7274,-3561.1096L13901.7274,-3561.1096L13901.7274,-3561.1096L13901.7281,-3561.1097L13901.7281,-3561.1097L13901.7281,-3561.1097L13901.8337,-3561.1229L13901.8936,-3561.1297L13902.0188,-3561.1405L13902.0188,-3561.1405L13902.0188,-3561.1405L13902.0996,-3561.1465"/>
<path content="1,阪急バス（株）,新宿・渋谷行,1.0,1.0,1.0," xlink:title="1" d="M13899.9023,-3561.5694L13899.9999,-3561.4935L13900.0143,-3561.4824L13900.1703,-3561.3603L13900.2663,-3561.2878L13900.3748,-3561.215L13900.4528,-3561.1645L13900.4616,-3561.1588L13900.4678,-3561.1549L13900.5143,-3561.1301L13900.5791,-3561.1009L13900.6421,-3561.0768L13900.6684,-3561.0688L13900.7096,-3561.0564L13900.8656,-3561.0248L13900.9278,-3561.0162L13900.9741,-3561.013L13901.0468,-3561.0129L13901.0497,-3561.0131L13901.1253,-3561.0157L13901.1782,-3561.0189L13901.2128,-3561.0233L13901.2291,-3561.0249L13901.3829,-3561.0466L13901.5073,-3561.0693L13901.6302,-3561.0961L13901.7281,-3561.1097L13901.8337,-3561.1229L13901.8936,-3561.1297L13902.0188,-3561.1405L13902.0996,-3561.1465"/>
</g>
</svg>
