<?xml version="1.0" encoding="UTF-8"?>
<svg  xmlns="http://www.w3.org/2000/svg" xmlns:xlink="http://www.w3.org/1999/xlink" xmlns:go="http://purl.org/svgmap/profile" property="N07_001,N07_002,N07_003,N07_004,N07_005,N07_006,N07_007" viewBox="13047.36328125 -3366.2109375 2.197265625 2.197265625" go:dataArea="13047.36328125 -3366.2109375 2.197265625 2.197265625" >
<metadata>
 <rdf:RDF xmlns:rdf="http://www.w3.org/1999/02/22-rdf-syntax-ns#" xmlns:crs="http://opengis.org/xmldtds/transformations.dtd" xmlns:svg="http://www.w3.org/svg" >
  <rdf:Description>
   <crs:CoordinateReferenceSystem rdf:resource="http://purl.org/crs/84" svg:transform="matrix(100.0,0.0,0.0,-100.0,0.0,0.0)" />
  </rdf:Description>
 </rdf:RDF>
</metadata>
<globalCoordinateSystem srsName="http://purl.org/crs/84" transform="matrix(100.0,0.0,0.0,-100.0,0.0,0.0)" />
<defs>
 <g id="p0" >
  <circle cx="0.0" cy="0.0" r="3" stroke="green" stroke-width="0.75" vector-effect="non-scaling-stroke" />
 </g>
</defs>
<g fill="none" fill-rule="evenodd" stroke="#FF00FF" stroke-width="0.75" opacity="0.5" vector-effect="non-scaling-stroke" stroke-linejoin="bevel" >
<path content="1,JR九州バス（株）,直方線　本線（博多～直方駅）,84.0,53.0,42.0," xlink:title="1" d="M13049.5605,-3364.0515L13049.4494,-3364.034L13049.3617,-3364.0279L13049.2965,-3364.0137"/>
<path content="1,JR九州バス（株）,直方線　本線（博多～直方駅）,84.0,53.0,42.0," xlink:title="1" d="M13049.5605,-3364.769L13049.5197,-3364.7977L13049.3844,-3364.8839L13049.3546,-3364.9069L13049.3406,-3364.9265L13049.3293,-3364.9612L13049.3196,-3364.9859L13049.2993,-3365.0119L13049.2182,-3365.1125L13049.1907,-3365.1536L13049.1753,-3365.1819L13049.1371,-3365.2767L13049.1234,-3365.3082L13049.0814,-3365.4134"/>
<path content="1,JR九州バス（株）,福岡・小倉～広島・福山（広福ライナー）,3.0,3.0,3.0," xlink:title="1" d="M13048.1351,-3366.2109L13048.1363,-3366.2086L13048.1499,-3366.1816L13048.203,-3366.0728L13048.2291,-3366.0212L13048.2435,-3365.9885L13048.2695,-3365.9191L13048.2864,-3365.8533L13048.2934,-3365.8145L13048.2981,-3365.7516L13048.2981,-3365.7232L13048.2965,-3365.6596L13048.2917,-3365.6204L13048.2764,-3365.5426L13048.2664,-3365.5028L13048.2468,-3365.4474L13048.2084,-3365.332L13048.1852,-3365.2614L13048.1612,-3365.1798L13048.1544,-3365.151L13048.1499,-3365.1257L13048.1448,-3365.0818L13048.1428,-3365.0491L13048.1404,-3365.0083L13048.1445,-3364.9358L13048.1474,-3364.904L13048.1483,-3364.8984L13048.1513,-3364.8801L13048.1574,-3364.8404L13048.1766,-3364.7644L13048.1907,-3364.7232L13048.1991,-3364.7011L13048.2053,-3364.6872L13048.2241,-3364.6469L13048.2356,-3364.6232L13048.2702,-3364.5634L13048.2903,-3364.5353L13048.3129,-3364.5041L13048.3512,-3364.4591L13048.386,-3364.4222L13048.4339,-3364.3759L13048.459,-3364.3527L13048.5125,-3364.3024L13048.7281,-3364.1072L13048.7848,-3364.0549L13048.8256,-3364.0137"/>
<path content="1,JR九州バス（株）,福岡・小倉～神戸・大阪（山陽道昼特急博多号）,1.0,1.0,1.0," xlink:title="1" d="M13048.1351,-3366.2109L13048.1363,-3366.2086L13048.1499,-3366.1816L13048.203,-3366.0728L13048.2291,-3366.0212L13048.2435,-3365.9885L13048.2695,-3365.9191L13048.2864,-3365.8533L13048.2934,-3365.8145L13048.2981,-3365.7516L13048.2981,-3365.7232L13048.2965,-3365.6596L13048.2917,-3365.6204L13048.2764,-3365.5426L13048.2664,-3365.5028L13048.2468,-3365.4474L13048.2084,-3365.332L13048.1852,-3365.2614L13048.1612,-3365.1798L13048.1544,-3365.151L13048.1499,-3365.1257L13048.1448,-3365.0818L13048.1428,-3365.0491L13048.1404,-3365.0083L13048.1445,-3364.9358L13048.1474,-3364.904L13048.1483,-3364.8984L13048.1513,-3364.8801L13048.1574,-3364.8404L13048.1766,-3364.7644L13048.1907,-3364.7232L13048.1991,-3364.7011L13048.2053,-3364.6872L13048.2241,-3364.6469L13048.2356,-3364.6232L13048.2702,-3364.5634L13048.2903,-3364.5353L13048.3129,-3364.5041L13048.3512,-3364.4591L13048.386,-3364.4222L13048.4339,-3364.3759L13048.459,-3364.3527L13048.5125,-3364.3024L13048.7281,-3364.1072L13048.7848,-3364.0549L13048.8256,-3364.0137"/>
<path content="1,JR九州バス（株）,福岡～宇部・山口（福岡・山口ライナー）,3.0,3.0,3.0," xlink:title="1" d="M13048.1351,-3366.2109L13048.1363,-3366.2086L13048.1499,-3366.1816L13048.203,-3366.0728L13048.2291,-3366.0212L13048.2435,-3365.9885L13048.2695,-3365.9191L13048.2864,-3365.8533L13048.2934,-3365.8145L13048.2981,-3365.7516L13048.2981,-3365.7232L13048.2965,-3365.6596L13048.2917,-3365.6204L13048.2764,-3365.5426L13048.2664,-3365.5028L13048.2468,-3365.4474L13048.2084,-3365.332L13048.1852,-3365.2614L13048.1612,-3365.1798L13048.1544,-3365.151L13048.1499,-3365.1257L13048.1448,-3365.0818L13048.1428,-3365.0491L13048.1404,-3365.0083L13048.1445,-3364.9358L13048.1474,-3364.904L13048.1483,-3364.8984L13048.1513,-3364.8801L13048.1574,-3364.8404L13048.1766,-3364.7644L13048.1907,-3364.7232L13048.1991,-3364.7011L13048.2053,-3364.6872L13048.2241,-3364.6469L13048.2356,-3364.6232L13048.2702,-3364.5634L13048.2903,-3364.5353L13048.3129,-3364.5041L13048.3512,-3364.4591L13048.386,-3364.4222L13048.4339,-3364.3759L13048.459,-3364.3527L13048.5125,-3364.3024L13048.7281,-3364.1072L13048.7848,-3364.0549L13048.8256,-3364.0137"/>
<path content="1,JR九州バス（株）,福岡～防府・徳山・下松・光（福岡・周南ライナー）,1.0,1.0,1.0," xlink:title="1" d="M13048.1351,-3366.2109L13048.1363,-3366.2086L13048.1499,-3366.1816L13048.203,-3366.0728L13048.2291,-3366.0212L13048.2435,-3365.9885L13048.2695,-3365.9191L13048.2864,-3365.8533L13048.2934,-3365.8145L13048.2981,-3365.7516L13048.2981,-3365.7232L13048.2965,-3365.6596L13048.2917,-3365.6204L13048.2764,-3365.5426L13048.2664,-3365.5028L13048.2468,-3365.4474L13048.2084,-3365.332L13048.1852,-3365.2614L13048.1612,-3365.1798L13048.1544,-3365.151L13048.1499,-3365.1257L13048.1448,-3365.0818L13048.1428,-3365.0491L13048.1404,-3365.0083L13048.1445,-3364.9358L13048.1474,-3364.904L13048.1483,-3364.8984L13048.1513,-3364.8801L13048.1574,-3364.8404L13048.1766,-3364.7644L13048.1907,-3364.7232L13048.1991,-3364.7011L13048.2053,-3364.6872L13048.2241,-3364.6469L13048.2356,-3364.6232L13048.2702,-3364.5634L13048.2903,-3364.5353L13048.3129,-3364.5041L13048.3512,-3364.4591L13048.386,-3364.4222L13048.4339,-3364.3759L13048.459,-3364.3527L13048.5125,-3364.3024L13048.7281,-3364.1072L13048.7848,-3364.0549L13048.8256,-3364.0137"/>
<path content="1,サンデン交通（株）,下関～福岡,20.0,20.0,20.0," xlink:title="1" d="M13048.8256,-3364.0137L13048.7848,-3364.0549L13048.7281,-3364.1072L13048.5125,-3364.3024L13048.459,-3364.3527L13048.4339,-3364.3759L13048.386,-3364.4222L13048.3512,-3364.4591L13048.3129,-3364.5041L13048.2903,-3364.5353L13048.2702,-3364.5634L13048.2356,-3364.6232L13048.2241,-3364.6469L13048.2053,-3364.6872L13048.1991,-3364.7011L13048.1907,-3364.7232L13048.1766,-3364.7644L13048.1574,-3364.8404L13048.1513,-3364.8801L13048.1483,-3364.8984L13048.1474,-3364.904L13048.1445,-3364.9358L13048.1404,-3365.0083L13048.1428,-3365.0491L13048.1448,-3365.0818L13048.1499,-3365.1257L13048.1544,-3365.151L13048.1612,-3365.1798L13048.1852,-3365.2614L13048.2084,-3365.332L13048.2468,-3365.4474L13048.2664,-3365.5028L13048.2764,-3365.5426L13048.2917,-3365.6204L13048.2965,-3365.6596L13048.2981,-3365.7232L13048.2981,-3365.7516L13048.2934,-3365.8145L13048.2864,-3365.8533L13048.2695,-3365.9191L13048.2435,-3365.9885L13048.2291,-3366.0212L13048.203,-3366.0728L13048.1499,-3366.1816L13048.1363,-3366.2086L13048.1351,-3366.2109"/>
<path content="1,一畑バス（株）,福岡～出雲・松江線,1.0,1.0,1.0," xlink:title="1" d="M13048.8256,-3364.0137L13048.7848,-3364.0549L13048.7281,-3364.1072L13048.5125,-3364.3024L13048.459,-3364.3527L13048.4339,-3364.3759L13048.386,-3364.4222L13048.3512,-3364.4591L13048.3129,-3364.5041L13048.2903,-3364.5353L13048.2702,-3364.5634L13048.2356,-3364.6232L13048.2241,-3364.6469L13048.2053,-3364.6872L13048.1991,-3364.7011L13048.1907,-3364.7232L13048.1766,-3364.7644L13048.1574,-3364.8404L13048.1513,-3364.8801L13048.1483,-3364.8984L13048.1474,-3364.904L13048.1445,-3364.9358L13048.1404,-3365.0083L13048.1428,-3365.0491L13048.1448,-3365.0818L13048.1499,-3365.1257L13048.1544,-3365.151L13048.1612,-3365.1798L13048.1852,-3365.2614L13048.2084,-3365.332L13048.2468,-3365.4474L13048.2664,-3365.5028L13048.2764,-3365.5426L13048.2917,-3365.6204L13048.2965,-3365.6596L13048.2981,-3365.7232L13048.2981,-3365.7516L13048.2934,-3365.8145L13048.2864,-3365.8533L13048.2695,-3365.9191L13048.2435,-3365.9885L13048.2291,-3366.0212L13048.203,-3366.0728L13048.1499,-3366.1816L13048.1363,-3366.2086L13048.1351,-3366.2109"/>
<path content="1,三重交通（株）,鳥羽～福岡,1.0,1.0,1.0," xlink:title="1" d="M13048.8256,-3364.0137L13048.7848,-3364.0549L13048.7281,-3364.1072L13048.5125,-3364.3024L13048.459,-3364.3527L13048.4339,-3364.3759L13048.386,-3364.4222L13048.3512,-3364.4591L13048.3129,-3364.5041L13048.2903,-3364.5353L13048.2702,-3364.5634L13048.2356,-3364.6232L13048.2241,-3364.6469L13048.2053,-3364.6872L13048.1991,-3364.7011L13048.1907,-3364.7232L13048.1766,-3364.7644L13048.1574,-3364.8404L13048.1513,-3364.8801L13048.1483,-3364.8984L13048.1474,-3364.904L13048.1445,-3364.9358L13048.1404,-3365.0083L13048.1428,-3365.0491L13048.1448,-3365.0818L13048.1499,-3365.1257L13048.1544,-3365.151L13048.1612,-3365.1798L13048.1852,-3365.2614L13048.2084,-3365.332L13048.2468,-3365.4474L13048.2664,-3365.5028L13048.2764,-3365.5426L13048.2917,-3365.6204L13048.2965,-3365.6596L13048.2981,-3365.7232L13048.2981,-3365.7516L13048.2934,-3365.8145L13048.2864,-3365.8533L13048.2695,-3365.9191L13048.2435,-3365.9885L13048.2291,-3366.0212L13048.203,-3366.0728L13048.1499,-3366.1816L13048.1363,-3366.2086L13048.1351,-3366.2109"/>
<path content="1,下津井電鉄（株）,岡山～福岡線,1.0,1.0,1.0," xlink:title="1" d="M13048.8256,-3364.0137L13048.7848,-3364.0549L13048.7281,-3364.1072L13048.5125,-3364.3024L13048.459,-3364.3527L13048.4339,-3364.3759L13048.386,-3364.4222L13048.3512,-3364.4591L13048.3129,-3364.5041L13048.2903,-3364.5353L13048.2702,-3364.5634L13048.2356,-3364.6232L13048.2241,-3364.6469L13048.2053,-3364.6872L13048.1991,-3364.7011L13048.1907,-3364.7232L13048.1766,-3364.7644L13048.1574,-3364.8404L13048.1513,-3364.8801L13048.1483,-3364.8984L13048.1474,-3364.904L13048.1445,-3364.9358L13048.1404,-3365.0083L13048.1428,-3365.0491L13048.1448,-3365.0818L13048.1499,-3365.1257L13048.1544,-3365.151L13048.1612,-3365.1798L13048.1852,-3365.2614L13048.2084,-3365.332L13048.2468,-3365.4474L13048.2664,-3365.5028L13048.2764,-3365.5426L13048.2917,-3365.6204L13048.2965,-3365.6596L13048.2981,-3365.7232L13048.2981,-3365.7516L13048.2934,-3365.8145L13048.2864,-3365.8533L13048.2695,-3365.9191L13048.2435,-3365.9885L13048.2291,-3366.0212L13048.203,-3366.0728L13048.1499,-3366.1816L13048.1363,-3366.2086L13048.1351,-3366.2109"/>
<path content="1,両備ホールディングス（株）,ペガサス　倉敷・岡山～小倉・福岡線,1.0,1.0,1.0," xlink:title="1" d="M13048.8256,-3364.0137L13048.7848,-3364.0549L13048.7281,-3364.1072L13048.5125,-3364.3024L13048.459,-3364.3527L13048.4339,-3364.3759L13048.386,-3364.4222L13048.3512,-3364.4591L13048.3129,-3364.5041L13048.2903,-3364.5353L13048.2702,-3364.5634L13048.2356,-3364.6232L13048.2241,-3364.6469L13048.2053,-3364.6872L13048.1991,-3364.7011L13048.1907,-3364.7232L13048.1766,-3364.7644L13048.1574,-3364.8404L13048.1513,-3364.8801L13048.1483,-3364.8984L13048.1474,-3364.904L13048.1445,-3364.9358L13048.1404,-3365.0083L13048.1428,-3365.0491L13048.1448,-3365.0818L13048.1499,-3365.1257L13048.1544,-3365.151L13048.1612,-3365.1798L13048.1852,-3365.2614L13048.2084,-3365.332L13048.2468,-3365.4474L13048.2664,-3365.5028L13048.2764,-3365.5426L13048.2917,-3365.6204L13048.2965,-3365.6596L13048.2981,-3365.7232L13048.2981,-3365.7516L13048.2934,-3365.8145L13048.2864,-3365.8533L13048.2695,-3365.9191L13048.2435,-3365.9885L13048.2291,-3366.0212L13048.203,-3366.0728L13048.1499,-3366.1816L13048.1363,-3366.2086L13048.1351,-3366.2109"/>
<path content="1,中国JRバス（株）,福山・広島～福岡　広福ライナー,10.0,10.0,10.0," xlink:title="1" d="M13048.8256,-3364.0137L13048.7848,-3364.0549L13048.7281,-3364.1072L13048.5125,-3364.3024L13048.459,-3364.3527L13048.4339,-3364.3759L13048.386,-3364.4222L13048.3512,-3364.4591L13048.3129,-3364.5041L13048.2903,-3364.5353L13048.2702,-3364.5634L13048.2356,-3364.6232L13048.2241,-3364.6469L13048.2053,-3364.6872L13048.1991,-3364.7011L13048.1907,-3364.7232L13048.1766,-3364.7644L13048.1574,-3364.8404L13048.1513,-3364.8801L13048.1483,-3364.8984L13048.1474,-3364.904L13048.1445,-3364.9358L13048.1404,-3365.0083L13048.1428,-3365.0491L13048.1448,-3365.0818L13048.1499,-3365.1257L13048.1544,-3365.151L13048.1612,-3365.1798L13048.1852,-3365.2614L13048.2084,-3365.332L13048.2468,-3365.4474L13048.2664,-3365.5028L13048.2764,-3365.5426L13048.2917,-3365.6204L13048.2965,-3365.6596L13048.2981,-3365.7232L13048.2981,-3365.7516L13048.2934,-3365.8145L13048.2864,-3365.8533L13048.2695,-3365.9191L13048.2435,-3365.9885L13048.2291,-3366.0212L13048.203,-3366.0728L13048.1499,-3366.1816L13048.1363,-3366.2086L13048.1351,-3366.2109"/>
<path content="1,九州産交バス（株）,ぎんなん号,6.0,6.0,6.0," xlink:title="1" d="M13048.1351,-3366.2109L13048.1363,-3366.2086L13048.1499,-3366.1816L13048.203,-3366.0728L13048.2291,-3366.0212L13048.2435,-3365.9885L13048.2695,-3365.9191L13048.2864,-3365.8533L13048.2934,-3365.8145L13048.2981,-3365.7516L13048.2981,-3365.7232L13048.2965,-3365.6596L13048.2917,-3365.6204L13048.2764,-3365.5426L13048.2664,-3365.5028L13048.2468,-3365.4474L13048.2084,-3365.332L13048.1852,-3365.2614L13048.1612,-3365.1798L13048.1544,-3365.151L13048.1499,-3365.1257L13048.1448,-3365.0818L13048.1428,-3365.0491L13048.1404,-3365.0083L13048.1445,-3364.9358L13048.1474,-3364.904L13048.1483,-3364.8984L13048.1513,-3364.8801L13048.1574,-3364.8404L13048.1766,-3364.7644L13048.1907,-3364.7232L13048.1991,-3364.7011L13048.2053,-3364.6872L13048.2241,-3364.6469L13048.2356,-3364.6232L13048.2702,-3364.5634L13048.2903,-3364.5353L13048.3129,-3364.5041L13048.3512,-3364.4591L13048.386,-3364.4222L13048.4339,-3364.3759L13048.459,-3364.3527L13048.5125,-3364.3024L13048.7281,-3364.1072L13048.7848,-3364.0549L13048.8256,-3364.0137"/>
<path content="1,九州産交バス（株）,熊本⇔名古屋,1.0,1.0,1.0," xlink:title="1" d="M13048.1351,-3366.2109L13048.1363,-3366.2086L13048.1499,-3366.1816L13048.203,-3366.0728L13048.2291,-3366.0212L13048.2435,-3365.9885L13048.2695,-3365.9191L13048.2864,-3365.8533L13048.2934,-3365.8145L13048.2981,-3365.7516L13048.2981,-3365.7232L13048.2965,-3365.6596L13048.2917,-3365.6204L13048.2764,-3365.5426L13048.2664,-3365.5028L13048.2468,-3365.4474L13048.2084,-3365.332L13048.1852,-3365.2614L13048.1612,-3365.1798L13048.1544,-3365.151L13048.1499,-3365.1257L13048.1448,-3365.0818L13048.1428,-3365.0491L13048.1404,-3365.0083L13048.1445,-3364.9358L13048.1474,-3364.904L13048.1483,-3364.8984L13048.1513,-3364.8801L13048.1574,-3364.8404L13048.1766,-3364.7644L13048.1907,-3364.7232L13048.1991,-3364.7011L13048.2053,-3364.6872L13048.2241,-3364.6469L13048.2356,-3364.6232L13048.2702,-3364.5634L13048.2903,-3364.5353L13048.3129,-3364.5041L13048.3512,-3364.4591L13048.386,-3364.4222L13048.4339,-3364.3759L13048.459,-3364.3527L13048.5125,-3364.3024L13048.7281,-3364.1072L13048.7848,-3364.0549L13048.8256,-3364.0137"/>
<path content="1,九州産交バス（株）,熊本⇔大阪・京都,1.0,1.0,1.0," xlink:title="1" d="M13048.1351,-3366.2109L13048.1363,-3366.2086L13048.1499,-3366.1816L13048.203,-3366.0728L13048.2291,-3366.0212L13048.2435,-3365.9885L13048.2695,-3365.9191L13048.2864,-3365.8533L13048.2934,-3365.8145L13048.2981,-3365.7516L13048.2981,-3365.7232L13048.2965,-3365.6596L13048.2917,-3365.6204L13048.2764,-3365.5426L13048.2664,-3365.5028L13048.2468,-3365.4474L13048.2084,-3365.332L13048.1852,-3365.2614L13048.1612,-3365.1798L13048.1544,-3365.151L13048.1499,-3365.1257L13048.1448,-3365.0818L13048.1428,-3365.0491L13048.1404,-3365.0083L13048.1445,-3364.9358L13048.1474,-3364.904L13048.1483,-3364.8984L13048.1513,-3364.8801L13048.1574,-3364.8404L13048.1766,-3364.7644L13048.1907,-3364.7232L13048.1991,-3364.7011L13048.2053,-3364.6872L13048.2241,-3364.6469L13048.2356,-3364.6232L13048.2702,-3364.5634L13048.2903,-3364.5353L13048.3129,-3364.5041L13048.3512,-3364.4591L13048.386,-3364.4222L13048.4339,-3364.3759L13048.459,-3364.3527L13048.5125,-3364.3024L13048.7281,-3364.1072L13048.7848,-3364.0549L13048.8256,-3364.0137"/>
<path content="1,九州産交バス（株）,鹿児島・熊本～神戸・尼崎（トワイライト号）,1.0,1.0,1.0," xlink:title="1" d="M13048.1351,-3366.2109L13048.1363,-3366.2086L13048.1499,-3366.1816L13048.203,-3366.0728L13048.2291,-3366.0212L13048.2435,-3365.9885L13048.2695,-3365.9191L13048.2864,-3365.8533L13048.2934,-3365.8145L13048.2981,-3365.7516L13048.2981,-3365.7232L13048.2965,-3365.6596L13048.2917,-3365.6204L13048.2764,-3365.5426L13048.2664,-3365.5028L13048.2468,-3365.4474L13048.2084,-3365.332L13048.1852,-3365.2614L13048.1612,-3365.1798L13048.1544,-3365.151L13048.1499,-3365.1257L13048.1448,-3365.0818L13048.1428,-3365.0491L13048.1404,-3365.0083L13048.1445,-3364.9358L13048.1474,-3364.904L13048.1483,-3364.8984L13048.1513,-3364.8801L13048.1574,-3364.8404L13048.1766,-3364.7644L13048.1907,-3364.7232L13048.1991,-3364.7011L13048.2053,-3364.6872L13048.2241,-3364.6469L13048.2356,-3364.6232L13048.2702,-3364.5634L13048.2903,-3364.5353L13048.3129,-3364.5041L13048.3512,-3364.4591L13048.386,-3364.4222L13048.4339,-3364.3759L13048.459,-3364.3527L13048.5125,-3364.3024L13048.7281,-3364.1072L13048.7848,-3364.0549L13048.8256,-3364.0137"/>
<path content="1,京阪バス（株）,京都・大阪⇔小倉・福岡,1.0,1.0,1.0," xlink:title="1" d="M13048.8256,-3364.0137L13048.7848,-3364.0549L13048.7281,-3364.1072L13048.5125,-3364.3024L13048.459,-3364.3527L13048.4339,-3364.3759L13048.386,-3364.4222L13048.3512,-3364.4591L13048.3129,-3364.5041L13048.2903,-3364.5353L13048.2702,-3364.5634L13048.2356,-3364.6232L13048.2241,-3364.6469L13048.2053,-3364.6872L13048.1991,-3364.7011L13048.1907,-3364.7232L13048.1766,-3364.7644L13048.1574,-3364.8404L13048.1513,-3364.8801L13048.1483,-3364.8984L13048.1474,-3364.904L13048.1445,-3364.9358L13048.1404,-3365.0083L13048.1428,-3365.0491L13048.1448,-3365.0818L13048.1499,-3365.1257L13048.1544,-3365.151L13048.1612,-3365.1798L13048.1852,-3365.2614L13048.2084,-3365.332L13048.2468,-3365.4474L13048.2664,-3365.5028L13048.2764,-3365.5426L13048.2917,-3365.6204L13048.2965,-3365.6596L13048.2981,-3365.7232L13048.2981,-3365.7516L13048.2934,-3365.8145L13048.2864,-3365.8533L13048.2695,-3365.9191L13048.2435,-3365.9885L13048.2291,-3366.0212L13048.203,-3366.0728L13048.1499,-3366.1816L13048.1363,-3366.2086L13048.1351,-3366.2109"/>
<path content="1,伊予鉄道（株）,道後エクスプレスふくおか号　松山⇔福岡,1.0,1.0,1.0," xlink:title="1" d="M13048.8256,-3364.0137L13048.7848,-3364.0549L13048.7281,-3364.1072L13048.5125,-3364.3024L13048.459,-3364.3527L13048.4339,-3364.3759L13048.386,-3364.4222L13048.3512,-3364.4591L13048.3129,-3364.5041L13048.2903,-3364.5353L13048.2702,-3364.5634L13048.2356,-3364.6232L13048.2241,-3364.6469L13048.2053,-3364.6872L13048.1991,-3364.7011L13048.1907,-3364.7232L13048.1766,-3364.7644L13048.1574,-3364.8404L13048.1513,-3364.8801L13048.1483,-3364.8984L13048.1474,-3364.904L13048.1445,-3364.9358L13048.1404,-3365.0083L13048.1428,-3365.0491L13048.1448,-3365.0818L13048.1499,-3365.1257L13048.1544,-3365.151L13048.1612,-3365.1798L13048.1852,-3365.2614L13048.2084,-3365.332L13048.2468,-3365.4474L13048.2664,-3365.5028L13048.2764,-3365.5426L13048.2917,-3365.6204L13048.2965,-3365.6596L13048.2981,-3365.7232L13048.2981,-3365.7516L13048.2934,-3365.8145L13048.2864,-3365.8533L13048.2695,-3365.9191L13048.2435,-3365.9885L13048.2291,-3366.0212L13048.203,-3366.0728L13048.1499,-3366.1816L13048.1363,-3366.2086L13048.1351,-3366.2109"/>
<path content="1,南国交通（株）,鹿児島～大阪,1.0,1.0,1.0," xlink:title="1" d="M13048.8256,-3364.0137L13048.7848,-3364.0549L13048.7281,-3364.1072L13048.5125,-3364.3024L13048.459,-3364.3527L13048.4339,-3364.3759L13048.386,-3364.4222L13048.3512,-3364.4591L13048.3129,-3364.5041L13048.2903,-3364.5353L13048.2702,-3364.5634L13048.2356,-3364.6232L13048.2241,-3364.6469L13048.2053,-3364.6872L13048.1991,-3364.7011L13048.1907,-3364.7232L13048.1766,-3364.7644L13048.1574,-3364.8404L13048.1513,-3364.8801L13048.1483,-3364.8984L13048.1474,-3364.904L13048.1445,-3364.9358L13048.1404,-3365.0083L13048.1428,-3365.0491L13048.1448,-3365.0818L13048.1499,-3365.1257L13048.1544,-3365.151L13048.1612,-3365.1798L13048.1852,-3365.2614L13048.2084,-3365.332L13048.2468,-3365.4474L13048.2664,-3365.5028L13048.2764,-3365.5426L13048.2917,-3365.6204L13048.2965,-3365.6596L13048.2981,-3365.7232L13048.2981,-3365.7516L13048.2934,-3365.8145L13048.2864,-3365.8533L13048.2695,-3365.9191L13048.2435,-3365.9885L13048.2291,-3366.0212L13048.203,-3366.0728L13048.1499,-3366.1816L13048.1363,-3366.2086L13048.1351,-3366.2109"/>
<path content="1,南海バス（株）,堺・大阪（なんば）・神戸（三宮）⇔佐世保・ハウステンボス,1.0,1.0,1.0," xlink:title="1" d="M13048.1351,-3366.2109L13048.1363,-3366.2086L13048.1499,-3366.1816L13048.203,-3366.0728L13048.2291,-3366.0212L13048.2435,-3365.9885L13048.2695,-3365.9191L13048.2864,-3365.8533L13048.2934,-3365.8145L13048.2981,-3365.7516L13048.2981,-3365.7232L13048.2965,-3365.6596L13048.2917,-3365.6204L13048.2764,-3365.5426L13048.2664,-3365.5028L13048.2468,-3365.4474L13048.2084,-3365.332L13048.1852,-3365.2614L13048.1612,-3365.1798L13048.1544,-3365.151L13048.1499,-3365.1257L13048.1448,-3365.0818L13048.1428,-3365.0491L13048.1404,-3365.0083L13048.1445,-3364.9358L13048.1474,-3364.904L13048.1483,-3364.8984L13048.1513,-3364.8801L13048.1574,-3364.8404L13048.1766,-3364.7644L13048.1907,-3364.7232L13048.1991,-3364.7011L13048.2053,-3364.6872L13048.2241,-3364.6469L13048.2356,-3364.6232L13048.2702,-3364.5634L13048.2903,-3364.5353L13048.3129,-3364.5041L13048.3512,-3364.4591L13048.386,-3364.4222L13048.4339,-3364.3759L13048.459,-3364.3527L13048.5125,-3364.3024L13048.7281,-3364.1072L13048.7848,-3364.0549L13048.8256,-3364.0137"/>
<path content="1,名鉄バス（株）,名古屋～熊本,1.0,1.0,1.0," xlink:title="1" d="M13048.1351,-3366.2109L13048.1363,-3366.2086L13048.1499,-3366.1816L13048.203,-3366.0728L13048.2291,-3366.0212L13048.2435,-3365.9885L13048.2695,-3365.9191L13048.2864,-3365.8533L13048.2934,-3365.8145L13048.2981,-3365.7516L13048.2981,-3365.7232L13048.2965,-3365.6596L13048.2917,-3365.6204L13048.2764,-3365.5426L13048.2664,-3365.5028L13048.2468,-3365.4474L13048.2084,-3365.332L13048.1852,-3365.2614L13048.1612,-3365.1798L13048.1544,-3365.151L13048.1499,-3365.1257L13048.1448,-3365.0818L13048.1428,-3365.0491L13048.1404,-3365.0083L13048.1445,-3364.9358L13048.1474,-3364.904L13048.1483,-3364.8984L13048.1513,-3364.8801L13048.1574,-3364.8404L13048.1766,-3364.7644L13048.1907,-3364.7232L13048.1991,-3364.7011L13048.2053,-3364.6872L13048.2241,-3364.6469L13048.2356,-3364.6232L13048.2702,-3364.5634L13048.2903,-3364.5353L13048.3129,-3364.5041L13048.3512,-3364.4591L13048.386,-3364.4222L13048.4339,-3364.3759L13048.459,-3364.3527L13048.5125,-3364.3024L13048.7281,-3364.1072L13048.7848,-3364.0549L13048.8256,-3364.0137"/>
<path content="1,名鉄バス（株）,名古屋～福岡,1.0,1.0,1.0," xlink:title="1" d="M13048.8256,-3364.0137L13048.7848,-3364.0549L13048.7281,-3364.1072L13048.5125,-3364.3024L13048.459,-3364.3527L13048.4339,-3364.3759L13048.386,-3364.4222L13048.3512,-3364.4591L13048.3129,-3364.5041L13048.2903,-3364.5353L13048.2702,-3364.5634L13048.2356,-3364.6232L13048.2241,-3364.6469L13048.2053,-3364.6872L13048.1991,-3364.7011L13048.1907,-3364.7232L13048.1766,-3364.7644L13048.1574,-3364.8404L13048.1513,-3364.8801L13048.1483,-3364.8984L13048.1474,-3364.904L13048.1445,-3364.9358L13048.1404,-3365.0083L13048.1428,-3365.0491L13048.1448,-3365.0818L13048.1499,-3365.1257L13048.1544,-3365.151L13048.1612,-3365.1798L13048.1852,-3365.2614L13048.2084,-3365.332L13048.2468,-3365.4474L13048.2664,-3365.5028L13048.2764,-3365.5426L13048.2917,-3365.6204L13048.2965,-3365.6596L13048.2981,-3365.7232L13048.2981,-3365.7516L13048.2934,-3365.8145L13048.2864,-3365.8533L13048.2695,-3365.9191L13048.2435,-3365.9885L13048.2291,-3366.0212L13048.203,-3366.0728L13048.1499,-3366.1816L13048.1363,-3366.2086L13048.1351,-3366.2109"/>
<path content="1,名鉄バス（株）,名古屋～長崎,1.0,1.0,1.0," xlink:title="1" d="M13048.1351,-3366.2109L13048.1363,-3366.2086L13048.1499,-3366.1816L13048.203,-3366.0728L13048.2291,-3366.0212L13048.2435,-3365.9885L13048.2695,-3365.9191L13048.2864,-3365.8533L13048.2934,-3365.8145L13048.2981,-3365.7516L13048.2981,-3365.7232L13048.2965,-3365.6596L13048.2917,-3365.6204L13048.2764,-3365.5426L13048.2664,-3365.5028L13048.2468,-3365.4474L13048.2084,-3365.332L13048.1852,-3365.2614L13048.1612,-3365.1798L13048.1544,-3365.151L13048.1499,-3365.1257L13048.1448,-3365.0818L13048.1428,-3365.0491L13048.1404,-3365.0083L13048.1445,-3364.9358L13048.1474,-3364.904L13048.1483,-3364.8984L13048.1513,-3364.8801L13048.1574,-3364.8404L13048.1766,-3364.7644L13048.1907,-3364.7232L13048.1991,-3364.7011L13048.2053,-3364.6872L13048.2241,-3364.6469L13048.2356,-3364.6232L13048.2702,-3364.5634L13048.2903,-3364.5353L13048.3129,-3364.5041L13048.3512,-3364.4591L13048.386,-3364.4222L13048.4339,-3364.3759L13048.459,-3364.3527L13048.5125,-3364.3024L13048.7281,-3364.1072L13048.7848,-3364.0549L13048.8256,-3364.0137"/>
<path content="1,四国高速バス（株）,さぬきエクスプレス福岡　高松・善通寺⇔福岡,1.0,1.0,1.0," xlink:title="1" d="M13048.8256,-3364.0137L13048.7848,-3364.0549L13048.7281,-3364.1072L13048.5125,-3364.3024L13048.459,-3364.3527L13048.4339,-3364.3759L13048.386,-3364.4222L13048.3512,-3364.4591L13048.3129,-3364.5041L13048.2903,-3364.5353L13048.2702,-3364.5634L13048.2356,-3364.6232L13048.2241,-3364.6469L13048.2053,-3364.6872L13048.1991,-3364.7011L13048.1907,-3364.7232L13048.1766,-3364.7644L13048.1574,-3364.8404L13048.1513,-3364.8801L13048.1483,-3364.8984L13048.1474,-3364.904L13048.1445,-3364.9358L13048.1404,-3365.0083L13048.1428,-3365.0491L13048.1448,-3365.0818L13048.1499,-3365.1257L13048.1544,-3365.151L13048.1612,-3365.1798L13048.1852,-3365.2614L13048.2084,-3365.332L13048.2468,-3365.4474L13048.2664,-3365.5028L13048.2764,-3365.5426L13048.2917,-3365.6204L13048.2965,-3365.6596L13048.2981,-3365.7232L13048.2981,-3365.7516L13048.2934,-3365.8145L13048.2864,-3365.8533L13048.2695,-3365.9191L13048.2435,-3365.9885L13048.2291,-3366.0212L13048.203,-3366.0728L13048.1499,-3366.1816L13048.1363,-3366.2086L13048.1351,-3366.2109"/>
<path content="1,土佐電気鉄道（株）,はりまや号　高知⇔福岡線,1.0,1.0,1.0," xlink:title="1" d="M13048.8256,-3364.0137L13048.7848,-3364.0549L13048.7281,-3364.1072L13048.5125,-3364.3024L13048.459,-3364.3527L13048.4339,-3364.3759L13048.386,-3364.4222L13048.3512,-3364.4591L13048.3129,-3364.5041L13048.2903,-3364.5353L13048.2702,-3364.5634L13048.2356,-3364.6232L13048.2241,-3364.6469L13048.2053,-3364.6872L13048.1991,-3364.7011L13048.1907,-3364.7232L13048.1766,-3364.7644L13048.1574,-3364.8404L13048.1513,-3364.8801L13048.1483,-3364.8984L13048.1474,-3364.904L13048.1445,-3364.9358L13048.1404,-3365.0083L13048.1428,-3365.0491L13048.1448,-3365.0818L13048.1499,-3365.1257L13048.1544,-3365.151L13048.1612,-3365.1798L13048.1852,-3365.2614L13048.2084,-3365.332L13048.2468,-3365.4474L13048.2664,-3365.5028L13048.2764,-3365.5426L13048.2917,-3365.6204L13048.2965,-3365.6596L13048.2981,-3365.7232L13048.2981,-3365.7516L13048.2934,-3365.8145L13048.2864,-3365.8533L13048.2695,-3365.9191L13048.2435,-3365.9885L13048.2291,-3366.0212L13048.203,-3366.0728L13048.1499,-3366.1816L13048.1363,-3366.2086L13048.1351,-3366.2109"/>
<path content="1,広交観光（株）,広福ライナー　広島⇔福岡,9.0,9.0,9.0," xlink:title="1" d="M13048.8256,-3364.0137L13048.7848,-3364.0549L13048.7281,-3364.1072L13048.5125,-3364.3024L13048.459,-3364.3527L13048.4339,-3364.3759L13048.386,-3364.4222L13048.3512,-3364.4591L13048.3129,-3364.5041L13048.2903,-3364.5353L13048.2702,-3364.5634L13048.2356,-3364.6232L13048.2241,-3364.6469L13048.2053,-3364.6872L13048.1991,-3364.7011L13048.1907,-3364.7232L13048.1766,-3364.7644L13048.1574,-3364.8404L13048.1513,-3364.8801L13048.1483,-3364.8984L13048.1474,-3364.904L13048.1445,-3364.9358L13048.1404,-3365.0083L13048.1428,-3365.0491L13048.1448,-3365.0818L13048.1499,-3365.1257L13048.1544,-3365.151L13048.1612,-3365.1798L13048.1852,-3365.2614L13048.2084,-3365.332L13048.2468,-3365.4474L13048.2664,-3365.5028L13048.2764,-3365.5426L13048.2917,-3365.6204L13048.2965,-3365.6596L13048.2981,-3365.7232L13048.2981,-3365.7516L13048.2934,-3365.8145L13048.2864,-3365.8533L13048.2695,-3365.9191L13048.2435,-3365.9885L13048.2291,-3366.0212L13048.203,-3366.0728L13048.1499,-3366.1816L13048.1363,-3366.2086L13048.1351,-3366.2109"/>
<path content="1,広交観光（株）,広福ライナー　福山・広島⇔福岡,1.0,1.0,1.0," xlink:title="1" d="M13048.8256,-3364.0137L13048.7848,-3364.0549L13048.7281,-3364.1072L13048.5125,-3364.3024L13048.459,-3364.3527L13048.4339,-3364.3759L13048.386,-3364.4222L13048.3512,-3364.4591L13048.3129,-3364.5041L13048.2903,-3364.5353L13048.2702,-3364.5634L13048.2356,-3364.6232L13048.2241,-3364.6469L13048.2053,-3364.6872L13048.1991,-3364.7011L13048.1907,-3364.7232L13048.1766,-3364.7644L13048.1574,-3364.8404L13048.1513,-3364.8801L13048.1483,-3364.8984L13048.1474,-3364.904L13048.1445,-3364.9358L13048.1404,-3365.0083L13048.1428,-3365.0491L13048.1448,-3365.0818L13048.1499,-3365.1257L13048.1544,-3365.151L13048.1612,-3365.1798L13048.1852,-3365.2614L13048.2084,-3365.332L13048.2468,-3365.4474L13048.2664,-3365.5028L13048.2764,-3365.5426L13048.2917,-3365.6204L13048.2965,-3365.6596L13048.2981,-3365.7232L13048.2981,-3365.7516L13048.2934,-3365.8145L13048.2864,-3365.8533L13048.2695,-3365.9191L13048.2435,-3365.9885L13048.2291,-3366.0212L13048.203,-3366.0728L13048.1499,-3366.1816L13048.1363,-3366.2086L13048.1351,-3366.2109"/>
<path content="1,日ノ丸自動車（株）,福岡‐米子・倉吉・鳥取線,1.0,1.0,1.0," xlink:title="1" d="M13048.1351,-3366.2109L13048.1363,-3366.2086L13048.1499,-3366.1816L13048.203,-3366.0728L13048.2291,-3366.0212L13048.2435,-3365.9885L13048.2695,-3365.9191L13048.2864,-3365.8533L13048.2934,-3365.8145L13048.2981,-3365.7516L13048.2981,-3365.7232L13048.2965,-3365.6596L13048.2917,-3365.6204L13048.2764,-3365.5426L13048.2664,-3365.5028L13048.2468,-3365.4474L13048.2084,-3365.332L13048.1852,-3365.2614L13048.1612,-3365.1798L13048.1544,-3365.151L13048.1499,-3365.1257L13048.1448,-3365.0818L13048.1428,-3365.0491L13048.1404,-3365.0083L13048.1445,-3364.9358L13048.1474,-3364.904L13048.1483,-3364.8984L13048.1513,-3364.8801L13048.1574,-3364.8404L13048.1766,-3364.7644L13048.1907,-3364.7232L13048.1991,-3364.7011L13048.2053,-3364.6872L13048.2241,-3364.6469L13048.2356,-3364.6232L13048.2702,-3364.5634L13048.2903,-3364.5353L13048.3129,-3364.5041L13048.3512,-3364.4591L13048.386,-3364.4222L13048.4339,-3364.3759L13048.459,-3364.3527L13048.5125,-3364.3024L13048.7281,-3364.1072L13048.7848,-3364.0549L13048.8256,-3364.0137"/>
<path content="1,日本交通（株）,鳥取・倉吉・米子～福岡線,1.0,1.0,1.0," xlink:title="1" d="M13048.1351,-3366.2109L13048.1363,-3366.2086L13048.1499,-3366.1816L13048.203,-3366.0728L13048.2291,-3366.0212L13048.2435,-3365.9885L13048.2695,-3365.9191L13048.2864,-3365.8533L13048.2934,-3365.8145L13048.2981,-3365.7516L13048.2981,-3365.7232L13048.2965,-3365.6596L13048.2917,-3365.6204L13048.2764,-3365.5426L13048.2664,-3365.5028L13048.2468,-3365.4474L13048.2084,-3365.332L13048.1852,-3365.2614L13048.1612,-3365.1798L13048.1544,-3365.151L13048.1499,-3365.1257L13048.1448,-3365.0818L13048.1428,-3365.0491L13048.1404,-3365.0083L13048.1445,-3364.9358L13048.1474,-3364.904L13048.1483,-3364.8984L13048.1513,-3364.8801L13048.1574,-3364.8404L13048.1766,-3364.7644L13048.1907,-3364.7232L13048.1991,-3364.7011L13048.2053,-3364.6872L13048.2241,-3364.6469L13048.2356,-3364.6232L13048.2702,-3364.5634L13048.2903,-3364.5353L13048.3129,-3364.5041L13048.3512,-3364.4591L13048.386,-3364.4222L13048.4339,-3364.3759L13048.459,-3364.3527L13048.5125,-3364.3024L13048.7281,-3364.1072L13048.7848,-3364.0549L13048.8256,-3364.0137"/>
<path content="1,神姫バス（株）,神戸（三ノ宮）・姫路-長崎,1.0,1.0,1.0," xlink:title="1" d="M13048.8256,-3364.0137L13048.7848,-3364.0549L13048.7281,-3364.1072L13048.5125,-3364.3024L13048.459,-3364.3527L13048.4339,-3364.3759L13048.386,-3364.4222L13048.3512,-3364.4591L13048.3129,-3364.5041L13048.2903,-3364.5353L13048.2702,-3364.5634L13048.2356,-3364.6232L13048.2241,-3364.6469L13048.2053,-3364.6872L13048.1991,-3364.7011L13048.1907,-3364.7232L13048.1766,-3364.7644L13048.1574,-3364.8404L13048.1513,-3364.8801L13048.1483,-3364.8984L13048.1474,-3364.904L13048.1445,-3364.9358L13048.1404,-3365.0083L13048.1428,-3365.0491L13048.1448,-3365.0818L13048.1499,-3365.1257L13048.1544,-3365.151L13048.1612,-3365.1798L13048.1852,-3365.2614L13048.2084,-3365.332L13048.2468,-3365.4474L13048.2664,-3365.5028L13048.2764,-3365.5426L13048.2917,-3365.6204L13048.2965,-3365.6596L13048.2981,-3365.7232L13048.2981,-3365.7516L13048.2934,-3365.8145L13048.2864,-3365.8533L13048.2695,-3365.9191L13048.2435,-3365.9885L13048.2291,-3366.0212L13048.203,-3366.0728L13048.1499,-3366.1816L13048.1363,-3366.2086L13048.1351,-3366.2109"/>
<path content="1,西日本鉄道（株）,27,4.0,0.5,0.0," xlink:title="1" d="M13047.3633,-3364.5069L13047.4317,-3364.4596L13047.4585,-3364.4417L13047.4659,-3364.4355L13047.4693,-3364.4306L13047.472,-3364.4258L13047.4731,-3364.4182L13047.472,-3364.3984L13047.4696,-3364.3887L13047.4628,-3364.3751L13047.4584,-3364.3586L13047.4591,-3364.348L13047.4655,-3364.3318L13047.5211,-3364.2882L13047.5453,-3364.3095L13047.6045,-3364.3446L13047.6236,-3364.356L13047.6597,-3364.3731L13047.6652,-3364.3785L13047.674,-3364.3916L13047.7176,-3364.4329L13047.8178,-3364.4918L13047.8941,-3364.541L13047.9466,-3364.5803L13047.9701,-3364.6048L13047.9793,-3364.6188L13047.9942,-3364.637L13047.9997,-3364.6487L13048.0024,-3364.6623L13048.0031,-3364.6908L13047.9983,-3364.7383L13047.9939,-3364.8092L13047.9905,-3364.8516L13047.9922,-3364.8647L13047.9963,-3364.8835L13048.0171,-3364.9279L13048.0506,-3364.9997L13048.0978,-3365.0583L13048.1581,-3365.1369L13048.2102,-3365.2038L13048.2668,-3365.2496L13048.2797,-3365.2707L13048.2933,-3365.3052L13048.3039,-3365.3299L13048.3138,-3365.3419L13048.3281,-3365.351L13048.3444,-3365.3538L13048.3689,-3365.3513L13048.3915,-3365.3484L13048.4015,-3365.3484L13048.4156,-3365.3438L13048.4396,-3365.34L13048.4683,-3365.3367L13048.5034,-3365.335L13048.5275,-3365.3375L13048.5506,-3365.3421L13048.5706,-3365.3501L13048.5947,-3365.3635L13048.604,-3365.3701L13048.6354,-3365.392L13048.6456,-3365.4022L13048.675,-3365.4276L13048.7371,-3365.484"/>
<path content="1,西日本鉄道（株）,27-B,18.5,15.0,14.0," xlink:title="1" d="M13047.3633,-3364.5069L13047.4317,-3364.4596L13047.4585,-3364.4417L13047.4659,-3364.4355L13047.4693,-3364.4306L13047.472,-3364.4258L13047.4731,-3364.4182L13047.472,-3364.3984L13047.4696,-3364.3887L13047.4628,-3364.3751L13047.4584,-3364.3586L13047.4591,-3364.348L13047.4655,-3364.3318L13047.5211,-3364.2882L13047.5453,-3364.3095L13047.6045,-3364.3446L13047.6236,-3364.356L13047.6597,-3364.3731L13047.6652,-3364.3785L13047.674,-3364.3916L13047.7176,-3364.4329L13047.8178,-3364.4918L13047.8941,-3364.541L13047.9466,-3364.5803L13047.9701,-3364.6048L13047.9793,-3364.6188L13047.9942,-3364.637L13047.9997,-3364.6487L13048.0024,-3364.6623L13048.0031,-3364.6908L13047.9983,-3364.7383L13047.9939,-3364.8092L13047.9905,-3364.8516L13047.9922,-3364.8647L13047.9963,-3364.8835L13048.0171,-3364.9279L13048.0506,-3364.9997L13048.0978,-3365.0583L13048.1581,-3365.1369L13048.2102,-3365.2038L13048.2668,-3365.2496L13048.2797,-3365.2707L13048.2933,-3365.3052L13048.3039,-3365.3299L13048.3138,-3365.3419L13048.3281,-3365.351L13048.3444,-3365.3538L13048.3689,-3365.3513L13048.3915,-3365.3484L13048.4015,-3365.3484L13048.4156,-3365.3438L13048.4396,-3365.34L13048.4683,-3365.3367L13048.5034,-3365.335L13048.5275,-3365.3375L13048.5506,-3365.3421L13048.5706,-3365.3501L13048.5947,-3365.3635L13048.604,-3365.3701L13048.6354,-3365.392L13048.6456,-3365.4022L13048.675,-3365.4276L13048.7371,-3365.484L13048.7689,-3365.5119L13048.7864,-3365.5245L13048.7939,-3365.53L13048.806,-3365.5358L13048.8175,-3365.5405L13048.8396,-3365.5459L13048.8677,-3365.553L13048.9284,-3365.5677L13048.9365,-3365.5711L13048.944,-3365.5732L13048.957,-3365.5803L13048.9992,-3365.6113"/>
<path content="1,西日本鉄道（株）,27-B,18.5,15.0,14.0," xlink:title="1" d="M13048.9992,-3365.6113L13048.9594,-3365.7016"/>
<path content="1,西日本鉄道（株）,27-B,18.5,15.0,14.0," xlink:title="1" d="M13048.9992,-3365.6113L13049.0986,-3365.6897L13049.1358,-3365.7188L13049.221,-3365.7866L13049.2637,-3365.8201L13049.2692,-3365.8269L13049.3093,-3365.8734L13049.3235,-3365.8711L13049.3685,-3365.8625L13049.3835,-3365.8586L13049.4032,-3365.8537L13049.4209,-3365.8472L13049.4729,-3365.8382L13049.4857,-3365.8353L13049.5121,-3365.8311L13049.5242,-3365.829L13049.5387,-3365.8281L13049.5605,-3365.8269"/>
<path content="1,西日本鉄道（株）,27-N,28.5,16.5,13.5," xlink:title="1" d="M13047.3633,-3364.5069L13047.4317,-3364.4596L13047.4585,-3364.4417L13047.4659,-3364.4355L13047.4693,-3364.4306L13047.472,-3364.4258L13047.4731,-3364.4182"/>
<path content="1,西日本鉄道（株）,72,11.0,9.5,8.5," xlink:title="1" d="M13047.3633,-3364.0646L13047.3933,-3364.1082L13047.4637,-3364.2165L13047.4901,-3364.2574L13047.5106,-3364.2783L13047.5211,-3364.2882L13047.5453,-3364.3095L13047.6045,-3364.3446L13047.6236,-3364.356L13047.6597,-3364.3731L13047.6652,-3364.3785L13047.674,-3364.3916L13047.7176,-3364.4329L13047.8178,-3364.4918L13047.8941,-3364.541L13047.9466,-3364.5803L13047.9701,-3364.6048L13047.9793,-3364.6188L13047.9942,-3364.637L13047.9997,-3364.6487L13048.0024,-3364.6623L13048.0031,-3364.6908L13047.9983,-3364.7383L13047.9939,-3364.8092L13047.9905,-3364.8516L13047.9922,-3364.8647L13047.9963,-3364.8835L13048.0171,-3364.9279L13048.0506,-3364.9997L13048.0978,-3365.0583L13048.1581,-3365.1369L13048.2102,-3365.2038L13048.2668,-3365.2496L13048.2797,-3365.2707L13048.2933,-3365.3052L13048.3039,-3365.3299L13048.3138,-3365.3419L13048.3281,-3365.351L13048.3444,-3365.3538L13048.3689,-3365.3513L13048.3915,-3365.3484L13048.4015,-3365.3484L13048.4156,-3365.3438L13048.4396,-3365.34L13048.4683,-3365.3367L13048.5034,-3365.335L13048.5275,-3365.3375L13048.5506,-3365.3421L13048.5706,-3365.3501L13048.5947,-3365.3635L13048.604,-3365.3701L13048.6354,-3365.392L13048.6456,-3365.4022L13048.675,-3365.4276L13048.7371,-3365.484L13048.7689,-3365.5119L13048.7864,-3365.5245L13048.7939,-3365.53L13048.806,-3365.5358L13048.8175,-3365.5405L13048.8396,-3365.5459L13048.8677,-3365.553L13048.9284,-3365.5677L13048.9365,-3365.5711L13048.944,-3365.5732L13048.957,-3365.5803L13048.9992,-3365.6113L13048.9594,-3365.7016L13048.9505,-3365.7145L13049.0553,-3365.7954L13049.1428,-3365.8582L13049.1653,-3365.871L13049.1887,-3365.8813L13049.2138,-3365.8873L13049.2291,-3365.8873L13049.2601,-3365.8845L13049.3093,-3365.8734L13049.3235,-3365.8711L13049.3685,-3365.8625L13049.3835,-3365.8586L13049.4032,-3365.8537L13049.4209,-3365.8472L13049.4729,-3365.8382L13049.4857,-3365.8353L13049.5121,-3365.8311L13049.5242,-3365.829L13049.5387,-3365.8281L13049.5605,-3365.8269"/>
<path content="1,西日本鉄道（株）,72-C,2.0,2.0,0.0," xlink:title="1" d="M13047.3633,-3364.5069L13047.4317,-3364.4596L13047.4585,-3364.4417L13047.4659,-3364.4355L13047.4693,-3364.4306L13047.472,-3364.4258L13047.4731,-3364.4182"/>
<path content="1,西日本鉄道（株）,73,13.0,13.5,11.0," xlink:title="1" d="M13047.3633,-3364.5069L13047.4317,-3364.4596L13047.4585,-3364.4417L13047.4659,-3364.4355L13047.4693,-3364.4306L13047.472,-3364.4258L13047.4731,-3364.4182"/>
<path content="1,西日本鉄道（株）,75_01_on,16.0,999.9,999.9," xlink:title="1" d="M13047.3633,-3364.5069L13047.4317,-3364.4596L13047.4585,-3364.4417L13047.4659,-3364.4355L13047.4693,-3364.4306L13047.472,-3364.4258L13047.4731,-3364.4182"/>
<path content="1,西日本鉄道（株）,北九州　～　久留米,12.0,12.0,12.0," xlink:title="1" d="M13048.1351,-3366.2109L13048.1363,-3366.2086L13048.1499,-3366.1816L13048.203,-3366.0728L13048.2291,-3366.0212L13048.2435,-3365.9885L13048.2695,-3365.9191L13048.2864,-3365.8533L13048.2934,-3365.8145L13048.2981,-3365.7516L13048.2981,-3365.7232L13048.2965,-3365.6596L13048.2917,-3365.6204L13048.2764,-3365.5426L13048.2664,-3365.5028L13048.2468,-3365.4474L13048.2084,-3365.332L13048.1852,-3365.2614L13048.1612,-3365.1798L13048.1544,-3365.151L13048.1499,-3365.1257L13048.1448,-3365.0818L13048.1428,-3365.0491L13048.1404,-3365.0083L13048.1445,-3364.9358L13048.1474,-3364.904L13048.1483,-3364.8984L13048.1513,-3364.8801L13048.1574,-3364.8404L13048.1766,-3364.7644L13048.1907,-3364.7232L13048.1991,-3364.7011L13048.2053,-3364.6872L13048.2241,-3364.6469L13048.2356,-3364.6232L13048.2702,-3364.5634L13048.2903,-3364.5353L13048.3129,-3364.5041L13048.3512,-3364.4591L13048.386,-3364.4222L13048.4339,-3364.3759L13048.459,-3364.3527L13048.5125,-3364.3024L13048.7281,-3364.1072L13048.7848,-3364.0549L13048.8256,-3364.0137"/>
<path content="1,西日本鉄道（株）,福岡　～　東京　（はかた号））,1.0,1.0,1.0," xlink:title="1" d="M13048.1351,-3366.2109L13048.1363,-3366.2086L13048.1499,-3366.1816L13048.203,-3366.0728L13048.2291,-3366.0212L13048.2435,-3365.9885L13048.2695,-3365.9191L13048.2864,-3365.8533L13048.2934,-3365.8145L13048.2981,-3365.7516L13048.2981,-3365.7232L13048.2965,-3365.6596L13048.2917,-3365.6204L13048.2764,-3365.5426L13048.2664,-3365.5028L13048.2468,-3365.4474L13048.2084,-3365.332L13048.1852,-3365.2614L13048.1612,-3365.1798L13048.1544,-3365.151L13048.1499,-3365.1257L13048.1448,-3365.0818L13048.1428,-3365.0491L13048.1404,-3365.0083L13048.1445,-3364.9358L13048.1474,-3364.904L13048.1483,-3364.8984L13048.1513,-3364.8801L13048.1574,-3364.8404L13048.1766,-3364.7644L13048.1907,-3364.7232L13048.1991,-3364.7011L13048.2053,-3364.6872L13048.2241,-3364.6469L13048.2356,-3364.6232L13048.2702,-3364.5634L13048.2903,-3364.5353L13048.3129,-3364.5041L13048.3512,-3364.4591L13048.386,-3364.4222L13048.4339,-3364.3759L13048.459,-3364.3527L13048.5125,-3364.3024L13048.7281,-3364.1072L13048.7848,-3364.0549L13048.8256,-3364.0137"/>
<path content="1,西日本鉄道（株）,福岡・北九州　～　名古屋,1.0,1.0,1.0," xlink:title="1" d="M13048.1351,-3366.2109L13048.1363,-3366.2086L13048.1499,-3366.1816L13048.203,-3366.0728L13048.2291,-3366.0212L13048.2435,-3365.9885L13048.2695,-3365.9191L13048.2864,-3365.8533L13048.2934,-3365.8145L13048.2981,-3365.7516L13048.2981,-3365.7232L13048.2965,-3365.6596L13048.2917,-3365.6204L13048.2764,-3365.5426L13048.2664,-3365.5028L13048.2468,-3365.4474L13048.2084,-3365.332L13048.1852,-3365.2614L13048.1612,-3365.1798L13048.1544,-3365.151L13048.1499,-3365.1257L13048.1448,-3365.0818L13048.1428,-3365.0491L13048.1404,-3365.0083L13048.1445,-3364.9358L13048.1474,-3364.904L13048.1483,-3364.8984L13048.1513,-3364.8801L13048.1574,-3364.8404L13048.1766,-3364.7644L13048.1907,-3364.7232L13048.1991,-3364.7011L13048.2053,-3364.6872L13048.2241,-3364.6469L13048.2356,-3364.6232L13048.2702,-3364.5634L13048.2903,-3364.5353L13048.3129,-3364.5041L13048.3512,-3364.4591L13048.386,-3364.4222L13048.4339,-3364.3759L13048.459,-3364.3527L13048.5125,-3364.3024L13048.7281,-3364.1072L13048.7848,-3364.0549L13048.8256,-3364.0137"/>
<path content="1,西日本鉄道（株）,福岡・北九州　～　大阪・京都,1.0,1.0,1.0," xlink:title="1" d="M13048.1351,-3366.2109L13048.1363,-3366.2086L13048.1499,-3366.1816L13048.203,-3366.0728L13048.2291,-3366.0212L13048.2435,-3365.9885L13048.2695,-3365.9191L13048.2864,-3365.8533L13048.2934,-3365.8145L13048.2981,-3365.7516L13048.2981,-3365.7232L13048.2965,-3365.6596L13048.2917,-3365.6204L13048.2764,-3365.5426L13048.2664,-3365.5028L13048.2468,-3365.4474L13048.2084,-3365.332L13048.1852,-3365.2614L13048.1612,-3365.1798L13048.1544,-3365.151L13048.1499,-3365.1257L13048.1448,-3365.0818L13048.1428,-3365.0491L13048.1404,-3365.0083L13048.1445,-3364.9358L13048.1474,-3364.904L13048.1483,-3364.8984L13048.1513,-3364.8801L13048.1574,-3364.8404L13048.1766,-3364.7644L13048.1907,-3364.7232L13048.1991,-3364.7011L13048.2053,-3364.6872L13048.2241,-3364.6469L13048.2356,-3364.6232L13048.2702,-3364.5634L13048.2903,-3364.5353L13048.3129,-3364.5041L13048.3512,-3364.4591L13048.386,-3364.4222L13048.4339,-3364.3759L13048.459,-3364.3527L13048.5125,-3364.3024L13048.7281,-3364.1072L13048.7848,-3364.0549L13048.8256,-3364.0137"/>
<path content="1,西日本鉄道（株）,福岡空港　～　小倉,17.0,17.0,17.0," xlink:title="1" d="M13048.8256,-3364.0137L13048.7848,-3364.0549L13048.7281,-3364.1072L13048.5125,-3364.3024L13048.459,-3364.3527L13048.4339,-3364.3759L13048.386,-3364.4222L13048.3512,-3364.4591L13048.3129,-3364.5041L13048.2903,-3364.5353L13048.2702,-3364.5634L13048.2356,-3364.6232L13048.2241,-3364.6469L13048.2053,-3364.6872L13048.1991,-3364.7011L13048.1907,-3364.7232L13048.1766,-3364.7644L13048.1574,-3364.8404L13048.1513,-3364.8801L13048.1483,-3364.8984L13048.1474,-3364.904L13048.1445,-3364.9358L13048.1404,-3365.0083L13048.1428,-3365.0491L13048.1448,-3365.0818L13048.1499,-3365.1257L13048.1544,-3365.151L13048.1612,-3365.1798L13048.1852,-3365.2614L13048.2084,-3365.332L13048.2468,-3365.4474L13048.2664,-3365.5028L13048.2764,-3365.5426L13048.2917,-3365.6204L13048.2965,-3365.6596L13048.2981,-3365.7232L13048.2981,-3365.7516L13048.2934,-3365.8145L13048.2864,-3365.8533L13048.2695,-3365.9191L13048.2435,-3365.9885L13048.2291,-3366.0212L13048.203,-3366.0728L13048.1499,-3366.1816L13048.1363,-3366.2086L13048.1351,-3366.2109"/>
<path content="1,西日本鉄道（株）,福岡～小倉（いとうづ号）,36.0,29.0,30.0," xlink:title="1" d="M13048.8256,-3364.0137L13048.7848,-3364.0549L13048.7281,-3364.1072L13048.5125,-3364.3024L13048.459,-3364.3527L13048.4339,-3364.3759L13048.386,-3364.4222L13048.3512,-3364.4591L13048.3129,-3364.5041L13048.2903,-3364.5353L13048.2702,-3364.5634L13048.2356,-3364.6232L13048.2241,-3364.6469L13048.2053,-3364.6872L13048.1991,-3364.7011L13048.1907,-3364.7232L13048.1766,-3364.7644L13048.1574,-3364.8404L13048.1513,-3364.8801L13048.1483,-3364.8984L13048.1474,-3364.904L13048.1445,-3364.9358L13048.1404,-3365.0083L13048.1428,-3365.0491L13048.1448,-3365.0818L13048.1499,-3365.1257L13048.1544,-3365.151L13048.1612,-3365.1798L13048.1852,-3365.2614L13048.2084,-3365.332L13048.2468,-3365.4474L13048.2664,-3365.5028L13048.2764,-3365.5426L13048.2917,-3365.6204L13048.2965,-3365.6596L13048.2981,-3365.7232L13048.2981,-3365.7516L13048.2934,-3365.8145L13048.2864,-3365.8533L13048.2695,-3365.9191L13048.2435,-3365.9885L13048.2291,-3366.0212L13048.203,-3366.0728L13048.1499,-3366.1816L13048.1363,-3366.2086L13048.1351,-3366.2109"/>
<path content="1,西日本鉄道（株）,福岡～小倉（なかたに号）,60.0,56.0,55.0," xlink:title="1" d="M13048.8256,-3364.0137L13048.7848,-3364.0549L13048.7281,-3364.1072L13048.5125,-3364.3024L13048.459,-3364.3527L13048.4339,-3364.3759L13048.386,-3364.4222L13048.3512,-3364.4591L13048.3129,-3364.5041L13048.2903,-3364.5353L13048.2702,-3364.5634L13048.2356,-3364.6232L13048.2241,-3364.6469L13048.2053,-3364.6872L13048.1991,-3364.7011L13048.1907,-3364.7232L13048.1766,-3364.7644L13048.1574,-3364.8404L13048.1513,-3364.8801L13048.1483,-3364.8984L13048.1474,-3364.904L13048.1445,-3364.9358L13048.1404,-3365.0083L13048.1428,-3365.0491L13048.1448,-3365.0818L13048.1499,-3365.1257L13048.1544,-3365.151L13048.1612,-3365.1798L13048.1852,-3365.2614L13048.2084,-3365.332L13048.2468,-3365.4474L13048.2664,-3365.5028L13048.2764,-3365.5426L13048.2917,-3365.6204L13048.2965,-3365.6596L13048.2981,-3365.7232L13048.2981,-3365.7516L13048.2934,-3365.8145L13048.2864,-3365.8533L13048.2695,-3365.9191L13048.2435,-3365.9885L13048.2291,-3366.0212L13048.203,-3366.0728L13048.1499,-3366.1816L13048.1363,-3366.2086L13048.1351,-3366.2109"/>
<path content="1,西日本鉄道（株）,福岡～小倉（ひきの号）,44.0,48.0,47.0," xlink:title="1" d="M13048.8256,-3364.0137L13048.7848,-3364.0549L13048.7281,-3364.1072L13048.5125,-3364.3024L13048.459,-3364.3527L13048.4339,-3364.3759L13048.386,-3364.4222L13048.3512,-3364.4591L13048.3129,-3364.5041L13048.2903,-3364.5353L13048.2702,-3364.5634L13048.2356,-3364.6232L13048.2241,-3364.6469L13048.2053,-3364.6872L13048.1991,-3364.7011L13048.1907,-3364.7232L13048.1766,-3364.7644L13048.1574,-3364.8404L13048.1513,-3364.8801L13048.1483,-3364.8984L13048.1474,-3364.904L13048.1445,-3364.9358L13048.1404,-3365.0083L13048.1428,-3365.0491L13048.1448,-3365.0818L13048.1499,-3365.1257L13048.1544,-3365.151L13048.1612,-3365.1798L13048.1852,-3365.2614L13048.2084,-3365.332L13048.2468,-3365.4474L13048.2664,-3365.5028L13048.2764,-3365.5426L13048.2917,-3365.6204L13048.2965,-3365.6596L13048.2981,-3365.7232L13048.2981,-3365.7516L13048.2934,-3365.8145L13048.2864,-3365.8533L13048.2695,-3365.9191L13048.2435,-3365.9885L13048.2291,-3366.0212L13048.203,-3366.0728L13048.1499,-3366.1816L13048.1363,-3366.2086L13048.1351,-3366.2109"/>
<path content="1,西肥自動車（株）,ハウステンボス・佐世保～名古屋,1.0,1.0,1.0," xlink:title="1" d="M13048.1351,-3366.2109L13048.1363,-3366.2086L13048.1499,-3366.1816L13048.203,-3366.0728L13048.2291,-3366.0212L13048.2435,-3365.9885L13048.2695,-3365.9191L13048.2864,-3365.8533L13048.2934,-3365.8145L13048.2981,-3365.7516L13048.2981,-3365.7232L13048.2965,-3365.6596L13048.2917,-3365.6204L13048.2764,-3365.5426L13048.2664,-3365.5028L13048.2468,-3365.4474L13048.2084,-3365.332L13048.1852,-3365.2614L13048.1612,-3365.1798L13048.1544,-3365.151L13048.1499,-3365.1257L13048.1448,-3365.0818L13048.1428,-3365.0491L13048.1404,-3365.0083L13048.1445,-3364.9358L13048.1474,-3364.904L13048.1483,-3364.8984L13048.1513,-3364.8801L13048.1574,-3364.8404L13048.1766,-3364.7644L13048.1907,-3364.7232L13048.1991,-3364.7011L13048.2053,-3364.6872L13048.2241,-3364.6469L13048.2356,-3364.6232L13048.2702,-3364.5634L13048.2903,-3364.5353L13048.3129,-3364.5041L13048.3512,-3364.4591L13048.386,-3364.4222L13048.4339,-3364.3759L13048.459,-3364.3527L13048.5125,-3364.3024L13048.7281,-3364.1072L13048.7848,-3364.0549L13048.8256,-3364.0137"/>
<path content="1,西肥自動車（株）,ハウステンボス・佐世保～大阪,1.0,1.0,1.0," xlink:title="1" d="M13048.1351,-3366.2109L13048.1363,-3366.2086L13048.1499,-3366.1816L13048.203,-3366.0728L13048.2291,-3366.0212L13048.2435,-3365.9885L13048.2695,-3365.9191L13048.2864,-3365.8533L13048.2934,-3365.8145L13048.2981,-3365.7516L13048.2981,-3365.7232L13048.2965,-3365.6596L13048.2917,-3365.6204L13048.2764,-3365.5426L13048.2664,-3365.5028L13048.2468,-3365.4474L13048.2084,-3365.332L13048.1852,-3365.2614L13048.1612,-3365.1798L13048.1544,-3365.151L13048.1499,-3365.1257L13048.1448,-3365.0818L13048.1428,-3365.0491L13048.1404,-3365.0083L13048.1445,-3364.9358L13048.1474,-3364.904L13048.1483,-3364.8984L13048.1513,-3364.8801L13048.1574,-3364.8404L13048.1766,-3364.7644L13048.1907,-3364.7232L13048.1991,-3364.7011L13048.2053,-3364.6872L13048.2241,-3364.6469L13048.2356,-3364.6232L13048.2702,-3364.5634L13048.2903,-3364.5353L13048.3129,-3364.5041L13048.3512,-3364.4591L13048.386,-3364.4222L13048.4339,-3364.3759L13048.459,-3364.3527L13048.5125,-3364.3024L13048.7281,-3364.1072L13048.7848,-3364.0549L13048.8256,-3364.0137"/>
<path content="1,西鉄バス北九州（株）,高速北九州-別府・大分,0.0,2.3,2.3," xlink:title="1" d="M13048.1351,-3366.2109L13048.1363,-3366.2086L13048.1499,-3366.1816L13048.203,-3366.0728L13048.2291,-3366.0212L13048.2435,-3365.9885L13048.2695,-3365.9191L13048.2864,-3365.8533L13048.2934,-3365.8145L13048.2981,-3365.7516L13048.2981,-3365.7232L13048.2965,-3365.6596L13048.2917,-3365.6204L13048.2764,-3365.5426L13048.2664,-3365.5028L13048.2468,-3365.4474L13048.2084,-3365.332L13048.1852,-3365.2614L13048.1612,-3365.1798L13048.1544,-3365.151L13048.1499,-3365.1257L13048.1448,-3365.0818L13048.1428,-3365.0491L13048.1404,-3365.0083L13048.1445,-3364.9358L13048.1474,-3364.904L13048.1483,-3364.8984L13048.1513,-3364.8801L13048.1574,-3364.8404L13048.1766,-3364.7644L13048.1907,-3364.7232L13048.1991,-3364.7011L13048.2053,-3364.6872L13048.2241,-3364.6469L13048.2356,-3364.6232L13048.2702,-3364.5634L13048.2903,-3364.5353L13048.3129,-3364.5041L13048.3512,-3364.4591L13048.386,-3364.4222L13048.4339,-3364.3759L13048.459,-3364.3527L13048.5125,-3364.3024L13048.7281,-3364.1072L13048.7848,-3364.0549L13048.8256,-3364.0137"/>
<path content="1,西鉄バス筑豊（株）,福岡　～　直方,21.0,18.0,15.0," xlink:title="1" d="M13048.8256,-3364.0137L13048.7848,-3364.0549L13048.7281,-3364.1072L13048.5125,-3364.3024L13048.459,-3364.3527L13048.4339,-3364.3759L13048.386,-3364.4222L13048.3512,-3364.4591L13048.3129,-3364.5041L13048.2903,-3364.5353L13048.2702,-3364.5634L13048.2356,-3364.6232L13048.2241,-3364.6469L13048.2053,-3364.6872L13048.1991,-3364.7011L13048.1907,-3364.7232L13048.1766,-3364.7644L13048.1574,-3364.8404L13048.1513,-3364.8801L13048.1483,-3364.8984L13048.1474,-3364.904L13048.1445,-3364.9358L13048.1404,-3365.0083L13048.1428,-3365.0491L13048.1448,-3365.0818L13048.1499,-3365.1257L13048.1544,-3365.151L13048.1612,-3365.1798L13048.1852,-3365.2614L13048.2084,-3365.332L13048.2468,-3365.4474L13048.2664,-3365.5028L13048.2764,-3365.5426L13048.2917,-3365.6204L13048.2965,-3365.6596L13048.2981,-3365.7232L13048.2981,-3365.7516L13048.2934,-3365.8145L13048.2864,-3365.8533L13048.2695,-3365.9191L13048.2435,-3365.9885L13048.2291,-3366.0212L13048.203,-3366.0728L13048.1499,-3366.1816L13048.1363,-3366.2086L13048.1351,-3366.2109"/>
<path content="1,西鉄高速バス（株）,北九州　～　久留米,8.0,8.0,8.0," xlink:title="1" d="M13048.1351,-3366.2109L13048.1363,-3366.2086L13048.1499,-3366.1816L13048.203,-3366.0728L13048.2291,-3366.0212L13048.2435,-3365.9885L13048.2695,-3365.9191L13048.2864,-3365.8533L13048.2934,-3365.8145L13048.2981,-3365.7516L13048.2981,-3365.7232L13048.2965,-3365.6596L13048.2917,-3365.6204L13048.2764,-3365.5426L13048.2664,-3365.5028L13048.2468,-3365.4474L13048.2084,-3365.332L13048.1852,-3365.2614L13048.1612,-3365.1798L13048.1544,-3365.151L13048.1499,-3365.1257L13048.1448,-3365.0818L13048.1428,-3365.0491L13048.1404,-3365.0083L13048.1445,-3364.9358L13048.1474,-3364.904L13048.1483,-3364.8984L13048.1513,-3364.8801L13048.1574,-3364.8404L13048.1766,-3364.7644L13048.1907,-3364.7232L13048.1991,-3364.7011L13048.2053,-3364.6872L13048.2241,-3364.6469L13048.2356,-3364.6232L13048.2702,-3364.5634L13048.2903,-3364.5353L13048.3129,-3364.5041L13048.3512,-3364.4591L13048.386,-3364.4222L13048.4339,-3364.3759L13048.459,-3364.3527L13048.5125,-3364.3024L13048.7281,-3364.1072L13048.7848,-3364.0549L13048.8256,-3364.0137"/>
<path content="1,西鉄高速バス（株）,北九州　～　鳥栖プレミアム・アウトレット,0.0,1.0,1.0," xlink:title="1" d="M13048.1351,-3366.2109L13048.1363,-3366.2086L13048.1499,-3366.1816L13048.203,-3366.0728L13048.2291,-3366.0212L13048.2435,-3365.9885L13048.2695,-3365.9191L13048.2864,-3365.8533L13048.2934,-3365.8145L13048.2981,-3365.7516L13048.2981,-3365.7232L13048.2965,-3365.6596L13048.2917,-3365.6204L13048.2764,-3365.5426L13048.2664,-3365.5028L13048.2468,-3365.4474L13048.2084,-3365.332L13048.1852,-3365.2614L13048.1612,-3365.1798L13048.1544,-3365.151L13048.1499,-3365.1257L13048.1448,-3365.0818L13048.1428,-3365.0491L13048.1404,-3365.0083L13048.1445,-3364.9358L13048.1474,-3364.904L13048.1483,-3364.8984L13048.1513,-3364.8801L13048.1574,-3364.8404L13048.1766,-3364.7644L13048.1907,-3364.7232L13048.1991,-3364.7011L13048.2053,-3364.6872L13048.2241,-3364.6469L13048.2356,-3364.6232L13048.2702,-3364.5634L13048.2903,-3364.5353L13048.3129,-3364.5041L13048.3512,-3364.4591L13048.386,-3364.4222L13048.4339,-3364.3759L13048.459,-3364.3527L13048.5125,-3364.3024L13048.7281,-3364.1072L13048.7848,-3364.0549L13048.8256,-3364.0137"/>
<path content="1,西鉄高速バス（株）,福岡　～　下関,16.0,20.0,20.0," xlink:title="1" d="M13048.8256,-3364.0137L13048.7848,-3364.0549L13048.7281,-3364.1072L13048.5125,-3364.3024L13048.459,-3364.3527L13048.4339,-3364.3759L13048.386,-3364.4222L13048.3512,-3364.4591L13048.3129,-3364.5041L13048.2903,-3364.5353L13048.2702,-3364.5634L13048.2356,-3364.6232L13048.2241,-3364.6469L13048.2053,-3364.6872L13048.1991,-3364.7011L13048.1907,-3364.7232L13048.1766,-3364.7644L13048.1574,-3364.8404L13048.1513,-3364.8801L13048.1483,-3364.8984L13048.1474,-3364.904L13048.1445,-3364.9358L13048.1404,-3365.0083L13048.1428,-3365.0491L13048.1448,-3365.0818L13048.1499,-3365.1257L13048.1544,-3365.151L13048.1612,-3365.1798L13048.1852,-3365.2614L13048.2084,-3365.332L13048.2468,-3365.4474L13048.2664,-3365.5028L13048.2764,-3365.5426L13048.2917,-3365.6204L13048.2965,-3365.6596L13048.2981,-3365.7232L13048.2981,-3365.7516L13048.2934,-3365.8145L13048.2864,-3365.8533L13048.2695,-3365.9191L13048.2435,-3365.9885L13048.2291,-3366.0212L13048.203,-3366.0728L13048.1499,-3366.1816L13048.1363,-3366.2086L13048.1351,-3366.2109"/>
<path content="1,西鉄高速バス（株）,福岡・北九州　～　三重,1.0,1.0,1.0," xlink:title="1" d="M13048.8256,-3364.0137L13048.7848,-3364.0549L13048.7281,-3364.1072L13048.5125,-3364.3024L13048.459,-3364.3527L13048.4339,-3364.3759L13048.386,-3364.4222L13048.3512,-3364.4591L13048.3129,-3364.5041L13048.2903,-3364.5353L13048.2702,-3364.5634L13048.2356,-3364.6232L13048.2241,-3364.6469L13048.2053,-3364.6872L13048.1991,-3364.7011L13048.1907,-3364.7232L13048.1766,-3364.7644L13048.1574,-3364.8404L13048.1513,-3364.8801L13048.1483,-3364.8984L13048.1474,-3364.904L13048.1445,-3364.9358L13048.1404,-3365.0083L13048.1428,-3365.0491L13048.1448,-3365.0818L13048.1499,-3365.1257L13048.1544,-3365.151L13048.1612,-3365.1798L13048.1852,-3365.2614L13048.2084,-3365.332L13048.2468,-3365.4474L13048.2664,-3365.5028L13048.2764,-3365.5426L13048.2917,-3365.6204L13048.2965,-3365.6596L13048.2981,-3365.7232L13048.2981,-3365.7516L13048.2934,-3365.8145L13048.2864,-3365.8533L13048.2695,-3365.9191L13048.2435,-3365.9885L13048.2291,-3366.0212L13048.203,-3366.0728L13048.1499,-3366.1816L13048.1363,-3366.2086L13048.1351,-3366.2109"/>
<path content="1,西鉄高速バス（株）,福岡・北九州　～　丸亀・高松,1.0,1.0,1.0," xlink:title="1" d="M13048.8256,-3364.0137L13048.7848,-3364.0549L13048.7281,-3364.1072L13048.5125,-3364.3024L13048.459,-3364.3527L13048.4339,-3364.3759L13048.386,-3364.4222L13048.3512,-3364.4591L13048.3129,-3364.5041L13048.2903,-3364.5353L13048.2702,-3364.5634L13048.2356,-3364.6232L13048.2241,-3364.6469L13048.2053,-3364.6872L13048.1991,-3364.7011L13048.1907,-3364.7232L13048.1766,-3364.7644L13048.1574,-3364.8404L13048.1513,-3364.8801L13048.1483,-3364.8984L13048.1474,-3364.904L13048.1445,-3364.9358L13048.1404,-3365.0083L13048.1428,-3365.0491L13048.1448,-3365.0818L13048.1499,-3365.1257L13048.1544,-3365.151L13048.1612,-3365.1798L13048.1852,-3365.2614L13048.2084,-3365.332L13048.2468,-3365.4474L13048.2664,-3365.5028L13048.2764,-3365.5426L13048.2917,-3365.6204L13048.2965,-3365.6596L13048.2981,-3365.7232L13048.2981,-3365.7516L13048.2934,-3365.8145L13048.2864,-3365.8533L13048.2695,-3365.9191L13048.2435,-3365.9885L13048.2291,-3366.0212L13048.203,-3366.0728L13048.1499,-3366.1816L13048.1363,-3366.2086L13048.1351,-3366.2109"/>
<path content="1,近鉄バス（株）,京都・大阪⇔熊本,1.0,1.0,1.0," xlink:title="1" d="M13048.1351,-3366.2109L13048.1363,-3366.2086L13048.1499,-3366.1816L13048.203,-3366.0728L13048.2291,-3366.0212L13048.2435,-3365.9885L13048.2695,-3365.9191L13048.2864,-3365.8533L13048.2934,-3365.8145L13048.2981,-3365.7516L13048.2981,-3365.7232L13048.2965,-3365.6596L13048.2917,-3365.6204L13048.2764,-3365.5426L13048.2664,-3365.5028L13048.2468,-3365.4474L13048.2084,-3365.332L13048.1852,-3365.2614L13048.1612,-3365.1798L13048.1544,-3365.151L13048.1499,-3365.1257L13048.1448,-3365.0818L13048.1428,-3365.0491L13048.1404,-3365.0083L13048.1445,-3364.9358L13048.1474,-3364.904L13048.1483,-3364.8984L13048.1513,-3364.8801L13048.1574,-3364.8404L13048.1766,-3364.7644L13048.1907,-3364.7232L13048.1991,-3364.7011L13048.2053,-3364.6872L13048.2241,-3364.6469L13048.2356,-3364.6232L13048.2702,-3364.5634L13048.2903,-3364.5353L13048.3129,-3364.5041L13048.3512,-3364.4591L13048.386,-3364.4222L13048.4339,-3364.3759L13048.459,-3364.3527L13048.5125,-3364.3024L13048.7281,-3364.1072L13048.7848,-3364.0549L13048.8256,-3364.0137"/>
<path content="1,近鉄バス（株）,京都・大阪⇔長崎,1.0,1.0,1.0," xlink:title="1" d="M13048.1351,-3366.2109L13048.1363,-3366.2086L13048.1499,-3366.1816L13048.203,-3366.0728L13048.2291,-3366.0212L13048.2435,-3365.9885L13048.2695,-3365.9191L13048.2864,-3365.8533L13048.2934,-3365.8145L13048.2981,-3365.7516L13048.2981,-3365.7232L13048.2965,-3365.6596L13048.2917,-3365.6204L13048.2764,-3365.5426L13048.2664,-3365.5028L13048.2468,-3365.4474L13048.2084,-3365.332L13048.1852,-3365.2614L13048.1612,-3365.1798L13048.1544,-3365.151L13048.1499,-3365.1257L13048.1448,-3365.0818L13048.1428,-3365.0491L13048.1404,-3365.0083L13048.1445,-3364.9358L13048.1474,-3364.904L13048.1483,-3364.8984L13048.1513,-3364.8801L13048.1574,-3364.8404L13048.1766,-3364.7644L13048.1907,-3364.7232L13048.1991,-3364.7011L13048.2053,-3364.6872L13048.2241,-3364.6469L13048.2356,-3364.6232L13048.2702,-3364.5634L13048.2903,-3364.5353L13048.3129,-3364.5041L13048.3512,-3364.4591L13048.386,-3364.4222L13048.4339,-3364.3759L13048.459,-3364.3527L13048.5125,-3364.3024L13048.7281,-3364.1072L13048.7848,-3364.0549L13048.8256,-3364.0137"/>
<path content="1,近鉄バス（株）,京都・大阪・神戸⇔宮崎,1.0,1.0,1.0," xlink:title="1" d="M13048.8256,-3364.0137L13048.7848,-3364.0549L13048.7281,-3364.1072L13048.5125,-3364.3024L13048.459,-3364.3527L13048.4339,-3364.3759L13048.386,-3364.4222L13048.3512,-3364.4591L13048.3129,-3364.5041L13048.2903,-3364.5353L13048.2702,-3364.5634L13048.2356,-3364.6232L13048.2241,-3364.6469L13048.2053,-3364.6872L13048.1991,-3364.7011L13048.1907,-3364.7232L13048.1766,-3364.7644L13048.1574,-3364.8404L13048.1513,-3364.8801L13048.1483,-3364.8984L13048.1474,-3364.904L13048.1445,-3364.9358L13048.1404,-3365.0083L13048.1428,-3365.0491L13048.1448,-3365.0818L13048.1499,-3365.1257L13048.1544,-3365.151L13048.1612,-3365.1798L13048.1852,-3365.2614L13048.2084,-3365.332L13048.2468,-3365.4474L13048.2664,-3365.5028L13048.2764,-3365.5426L13048.2917,-3365.6204L13048.2965,-3365.6596L13048.2981,-3365.7232L13048.2981,-3365.7516L13048.2934,-3365.8145L13048.2864,-3365.8533L13048.2695,-3365.9191L13048.2435,-3365.9885L13048.2291,-3366.0212L13048.203,-3366.0728L13048.1499,-3366.1816L13048.1363,-3366.2086L13048.1351,-3366.2109"/>
<path content="1,近鉄バス（株）,大阪⇔鹿児島,1.0,1.0,1.0," xlink:title="1" d="M13048.8256,-3364.0137L13048.7848,-3364.0549L13048.7281,-3364.1072L13048.5125,-3364.3024L13048.459,-3364.3527L13048.4339,-3364.3759L13048.386,-3364.4222L13048.3512,-3364.4591L13048.3129,-3364.5041L13048.2903,-3364.5353L13048.2702,-3364.5634L13048.2356,-3364.6232L13048.2241,-3364.6469L13048.2053,-3364.6872L13048.1991,-3364.7011L13048.1907,-3364.7232L13048.1766,-3364.7644L13048.1574,-3364.8404L13048.1513,-3364.8801L13048.1483,-3364.8984L13048.1474,-3364.904L13048.1445,-3364.9358L13048.1404,-3365.0083L13048.1428,-3365.0491L13048.1448,-3365.0818L13048.1499,-3365.1257L13048.1544,-3365.151L13048.1612,-3365.1798L13048.1852,-3365.2614L13048.2084,-3365.332L13048.2468,-3365.4474L13048.2664,-3365.5028L13048.2764,-3365.5426L13048.2917,-3365.6204L13048.2965,-3365.6596L13048.2981,-3365.7232L13048.2981,-3365.7516L13048.2934,-3365.8145L13048.2864,-3365.8533L13048.2695,-3365.9191L13048.2435,-3365.9885L13048.2291,-3366.0212L13048.203,-3366.0728L13048.1499,-3366.1816L13048.1363,-3366.2086L13048.1351,-3366.2109"/>
<path content="1,長崎自動車（株）,長崎～名古屋（グラバー号）,1.0,1.0,1.0," xlink:title="1" d="M13048.1351,-3366.2109L13048.1363,-3366.2086L13048.1499,-3366.1816L13048.203,-3366.0728L13048.2291,-3366.0212L13048.2435,-3365.9885L13048.2695,-3365.9191L13048.2864,-3365.8533L13048.2934,-3365.8145L13048.2981,-3365.7516L13048.2981,-3365.7232L13048.2965,-3365.6596L13048.2917,-3365.6204L13048.2764,-3365.5426L13048.2664,-3365.5028L13048.2468,-3365.4474L13048.2084,-3365.332L13048.1852,-3365.2614L13048.1612,-3365.1798L13048.1544,-3365.151L13048.1499,-3365.1257L13048.1448,-3365.0818L13048.1428,-3365.0491L13048.1404,-3365.0083L13048.1445,-3364.9358L13048.1474,-3364.904L13048.1483,-3364.8984L13048.1513,-3364.8801L13048.1574,-3364.8404L13048.1766,-3364.7644L13048.1907,-3364.7232L13048.1991,-3364.7011L13048.2053,-3364.6872L13048.2241,-3364.6469L13048.2356,-3364.6232L13048.2702,-3364.5634L13048.2903,-3364.5353L13048.3129,-3364.5041L13048.3512,-3364.4591L13048.386,-3364.4222L13048.4339,-3364.3759L13048.459,-3364.3527L13048.5125,-3364.3024L13048.7281,-3364.1072L13048.7848,-3364.0549L13048.8256,-3364.0137"/>
<path content="1,長崎自動車（株）,長崎～姫路・神戸（エトランゼ号）,1.0,1.0,1.0," xlink:title="1" d="M13048.1351,-3366.2109L13048.1363,-3366.2086L13048.1499,-3366.1816L13048.203,-3366.0728L13048.2291,-3366.0212L13048.2435,-3365.9885L13048.2695,-3365.9191L13048.2864,-3365.8533L13048.2934,-3365.8145L13048.2981,-3365.7516L13048.2981,-3365.7232L13048.2965,-3365.6596L13048.2917,-3365.6204L13048.2764,-3365.5426L13048.2664,-3365.5028L13048.2468,-3365.4474L13048.2084,-3365.332L13048.1852,-3365.2614L13048.1612,-3365.1798L13048.1544,-3365.151L13048.1499,-3365.1257L13048.1448,-3365.0818L13048.1428,-3365.0491L13048.1404,-3365.0083L13048.1445,-3364.9358L13048.1474,-3364.904L13048.1483,-3364.8984L13048.1513,-3364.8801L13048.1574,-3364.8404L13048.1766,-3364.7644L13048.1907,-3364.7232L13048.1991,-3364.7011L13048.2053,-3364.6872L13048.2241,-3364.6469L13048.2356,-3364.6232L13048.2702,-3364.5634L13048.2903,-3364.5353L13048.3129,-3364.5041L13048.3512,-3364.4591L13048.386,-3364.4222L13048.4339,-3364.3759L13048.459,-3364.3527L13048.5125,-3364.3024L13048.7281,-3364.1072L13048.7848,-3364.0549L13048.8256,-3364.0137"/>
<path content="1,阪急観光バス（株）,北九州・福岡行（ムーンライト号）,1.0,1.0,1.0," xlink:title="1" d="M13048.8256,-3364.0137L13048.7848,-3364.0549L13048.7281,-3364.1072L13048.5125,-3364.3024L13048.459,-3364.3527L13048.4339,-3364.3759L13048.386,-3364.4222L13048.3512,-3364.4591L13048.3129,-3364.5041L13048.2903,-3364.5353L13048.2702,-3364.5634L13048.2356,-3364.6232L13048.2241,-3364.6469L13048.2053,-3364.6872L13048.1991,-3364.7011L13048.1907,-3364.7232L13048.1766,-3364.7644L13048.1574,-3364.8404L13048.1513,-3364.8801L13048.1483,-3364.8984L13048.1474,-3364.904L13048.1445,-3364.9358L13048.1404,-3365.0083L13048.1428,-3365.0491L13048.1448,-3365.0818L13048.1499,-3365.1257L13048.1544,-3365.151L13048.1612,-3365.1798L13048.1852,-3365.2614L13048.2084,-3365.332L13048.2468,-3365.4474L13048.2664,-3365.5028L13048.2764,-3365.5426L13048.2917,-3365.6204L13048.2965,-3365.6596L13048.2981,-3365.7232L13048.2981,-3365.7516L13048.2934,-3365.8145L13048.2864,-3365.8533L13048.2695,-3365.9191L13048.2435,-3365.9885L13048.2291,-3366.0212L13048.203,-3366.0728L13048.1499,-3366.1816L13048.1363,-3366.2086L13048.1351,-3366.2109"/>
<path content="1,阪急観光バス（株）,長崎行（ロマン長崎号）,1.0,1.0,1.0," xlink:title="1" d="M13048.8256,-3364.0137L13048.7848,-3364.0549L13048.7281,-3364.1072L13048.5125,-3364.3024L13048.459,-3364.3527L13048.4339,-3364.3759L13048.386,-3364.4222L13048.3512,-3364.4591L13048.3129,-3364.5041L13048.2903,-3364.5353L13048.2702,-3364.5634L13048.2356,-3364.6232L13048.2241,-3364.6469L13048.2053,-3364.6872L13048.1991,-3364.7011L13048.1907,-3364.7232L13048.1766,-3364.7644L13048.1574,-3364.8404L13048.1513,-3364.8801L13048.1483,-3364.8984L13048.1474,-3364.904L13048.1445,-3364.9358L13048.1404,-3365.0083L13048.1428,-3365.0491L13048.1448,-3365.0818L13048.1499,-3365.1257L13048.1544,-3365.151L13048.1612,-3365.1798L13048.1852,-3365.2614L13048.2084,-3365.332L13048.2468,-3365.4474L13048.2664,-3365.5028L13048.2764,-3365.5426L13048.2917,-3365.6204L13048.2965,-3365.6596L13048.2981,-3365.7232L13048.2981,-3365.7516L13048.2934,-3365.8145L13048.2864,-3365.8533L13048.2695,-3365.9191L13048.2435,-3365.9885L13048.2291,-3366.0212L13048.203,-3366.0728L13048.1499,-3366.1816L13048.1363,-3366.2086L13048.1351,-3366.2109"/>
<path content="1,阪急観光バス（株）,鹿児島行（さつま号）,1.0,1.0,1.0," xlink:title="1" d="M13048.8256,-3364.0137L13048.7848,-3364.0549L13048.7281,-3364.1072L13048.5125,-3364.3024L13048.459,-3364.3527L13048.4339,-3364.3759L13048.386,-3364.4222L13048.3512,-3364.4591L13048.3129,-3364.5041L13048.2903,-3364.5353L13048.2702,-3364.5634L13048.2356,-3364.6232L13048.2241,-3364.6469L13048.2053,-3364.6872L13048.1991,-3364.7011L13048.1907,-3364.7232L13048.1766,-3364.7644L13048.1574,-3364.8404L13048.1513,-3364.8801L13048.1483,-3364.8984L13048.1474,-3364.904L13048.1445,-3364.9358L13048.1404,-3365.0083L13048.1428,-3365.0491L13048.1448,-3365.0818L13048.1499,-3365.1257L13048.1544,-3365.151L13048.1612,-3365.1798L13048.1852,-3365.2614L13048.2084,-3365.332L13048.2468,-3365.4474L13048.2664,-3365.5028L13048.2764,-3365.5426L13048.2917,-3365.6204L13048.2965,-3365.6596L13048.2981,-3365.7232L13048.2981,-3365.7516L13048.2934,-3365.8145L13048.2864,-3365.8533L13048.2695,-3365.9191L13048.2435,-3365.9885L13048.2291,-3366.0212L13048.203,-3366.0728L13048.1499,-3366.1816L13048.1363,-3366.2086L13048.1351,-3366.2109"/>
<path content="1,防長交通（株）,光・徳山・防府～福岡線（福岡・周南ライナー）,4.0,4.0,4.0," xlink:title="1" d="M13048.8256,-3364.0137L13048.7848,-3364.0549L13048.7281,-3364.1072L13048.5125,-3364.3024L13048.459,-3364.3527L13048.4339,-3364.3759L13048.386,-3364.4222L13048.3512,-3364.4591L13048.3129,-3364.5041L13048.2903,-3364.5353L13048.2702,-3364.5634L13048.2356,-3364.6232L13048.2241,-3364.6469L13048.2053,-3364.6872L13048.1991,-3364.7011L13048.1907,-3364.7232L13048.1766,-3364.7644L13048.1574,-3364.8404L13048.1513,-3364.8801L13048.1483,-3364.8984L13048.1474,-3364.904L13048.1445,-3364.9358L13048.1404,-3365.0083L13048.1428,-3365.0491L13048.1448,-3365.0818L13048.1499,-3365.1257L13048.1544,-3365.151L13048.1612,-3365.1798L13048.1852,-3365.2614L13048.2084,-3365.332L13048.2468,-3365.4474L13048.2664,-3365.5028L13048.2764,-3365.5426L13048.2917,-3365.6204L13048.2965,-3365.6596L13048.2981,-3365.7232L13048.2981,-3365.7516L13048.2934,-3365.8145L13048.2864,-3365.8533L13048.2695,-3365.9191L13048.2435,-3365.9885L13048.2291,-3366.0212L13048.203,-3366.0728L13048.1499,-3366.1816L13048.1363,-3366.2086L13048.1351,-3366.2109"/>
<path content="1,高知県交通（株）,はりまや号　高知⇔福岡線,1.0,1.0,1.0," xlink:title="1" d="M13048.8256,-3364.0137L13048.7848,-3364.0549L13048.7281,-3364.1072L13048.5125,-3364.3024L13048.459,-3364.3527L13048.4339,-3364.3759L13048.386,-3364.4222L13048.3512,-3364.4591L13048.3129,-3364.5041L13048.2903,-3364.5353L13048.2702,-3364.5634L13048.2356,-3364.6232L13048.2241,-3364.6469L13048.2053,-3364.6872L13048.1991,-3364.7011L13048.1907,-3364.7232L13048.1766,-3364.7644L13048.1574,-3364.8404L13048.1513,-3364.8801L13048.1483,-3364.8984L13048.1474,-3364.904L13048.1445,-3364.9358L13048.1404,-3365.0083L13048.1428,-3365.0491L13048.1448,-3365.0818L13048.1499,-3365.1257L13048.1544,-3365.151L13048.1612,-3365.1798L13048.1852,-3365.2614L13048.2084,-3365.332L13048.2468,-3365.4474L13048.2664,-3365.5028L13048.2764,-3365.5426L13048.2917,-3365.6204L13048.2965,-3365.6596L13048.2981,-3365.7232L13048.2981,-3365.7516L13048.2934,-3365.8145L13048.2864,-3365.8533L13048.2695,-3365.9191L13048.2435,-3365.9885L13048.2291,-3366.0212L13048.203,-3366.0728L13048.1499,-3366.1816L13048.1363,-3366.2086L13048.1351,-3366.2109"/>
<path content="1,（株）中国バス,夜行便　福岡線,10.0,10.0,10.0," xlink:title="1" d="M13048.8256,-3364.0137L13048.7848,-3364.0549L13048.7281,-3364.1072L13048.5125,-3364.3024L13048.459,-3364.3527L13048.4339,-3364.3759L13048.386,-3364.4222L13048.3512,-3364.4591L13048.3129,-3364.5041L13048.2903,-3364.5353L13048.2702,-3364.5634L13048.2356,-3364.6232L13048.2241,-3364.6469L13048.2053,-3364.6872L13048.1991,-3364.7011L13048.1907,-3364.7232L13048.1766,-3364.7644L13048.1574,-3364.8404L13048.1513,-3364.8801L13048.1483,-3364.8984L13048.1474,-3364.904L13048.1445,-3364.9358L13048.1404,-3365.0083L13048.1428,-3365.0491L13048.1448,-3365.0818L13048.1499,-3365.1257L13048.1544,-3365.151L13048.1612,-3365.1798L13048.1852,-3365.2614L13048.2084,-3365.332L13048.2468,-3365.4474L13048.2664,-3365.5028L13048.2764,-3365.5426L13048.2917,-3365.6204L13048.2965,-3365.6596L13048.2981,-3365.7232L13048.2981,-3365.7516L13048.2934,-3365.8145L13048.2864,-3365.8533L13048.2695,-3365.9191L13048.2435,-3365.9885L13048.2291,-3366.0212L13048.203,-3366.0728L13048.1499,-3366.1816L13048.1363,-3366.2086L13048.1351,-3366.2109"/>
<path content="2,長崎県,長崎～北九州（出島号）,4.0,4.0,4.0," xlink:title="2" d="M13048.1351,-3366.2109L13048.1363,-3366.2086L13048.1499,-3366.1816L13048.203,-3366.0728L13048.2291,-3366.0212L13048.2435,-3365.9885L13048.2695,-3365.9191L13048.2864,-3365.8533L13048.2934,-3365.8145L13048.2981,-3365.7516L13048.2981,-3365.7232L13048.2965,-3365.6596L13048.2917,-3365.6204L13048.2764,-3365.5426L13048.2664,-3365.5028L13048.2468,-3365.4474L13048.2084,-3365.332L13048.1852,-3365.2614L13048.1612,-3365.1798L13048.1544,-3365.151L13048.1499,-3365.1257L13048.1448,-3365.0818L13048.1428,-3365.0491L13048.1404,-3365.0083L13048.1445,-3364.9358L13048.1474,-3364.904L13048.1483,-3364.8984L13048.1513,-3364.8801L13048.1574,-3364.8404L13048.1766,-3364.7644L13048.1907,-3364.7232L13048.1991,-3364.7011L13048.2053,-3364.6872L13048.2241,-3364.6469L13048.2356,-3364.6232L13048.2702,-3364.5634L13048.2903,-3364.5353L13048.3129,-3364.5041L13048.3512,-3364.4591L13048.386,-3364.4222L13048.4339,-3364.3759L13048.459,-3364.3527L13048.5125,-3364.3024L13048.7281,-3364.1072L13048.7848,-3364.0549L13048.8256,-3364.0137"/>
<path content="2,長崎県,高速バス長崎～大阪（ロマン長崎号）,1.0,1.0,1.0," xlink:title="2" d="M13048.1351,-3366.2109L13048.1363,-3366.2086L13048.1499,-3366.1816L13048.203,-3366.0728L13048.2291,-3366.0212L13048.2435,-3365.9885L13048.2695,-3365.9191L13048.2864,-3365.8533L13048.2934,-3365.8145L13048.2981,-3365.7516L13048.2981,-3365.7232L13048.2965,-3365.6596L13048.2917,-3365.6204L13048.2764,-3365.5426L13048.2664,-3365.5028L13048.2468,-3365.4474L13048.2084,-3365.332L13048.1852,-3365.2614L13048.1612,-3365.1798L13048.1544,-3365.151L13048.1499,-3365.1257L13048.1448,-3365.0818L13048.1428,-3365.0491L13048.1404,-3365.0083L13048.1445,-3364.9358L13048.1474,-3364.904L13048.1483,-3364.8984L13048.1513,-3364.8801L13048.1574,-3364.8404L13048.1766,-3364.7644L13048.1907,-3364.7232L13048.1991,-3364.7011L13048.2053,-3364.6872L13048.2241,-3364.6469L13048.2356,-3364.6232L13048.2702,-3364.5634L13048.2903,-3364.5353L13048.3129,-3364.5041L13048.3512,-3364.4591L13048.386,-3364.4222L13048.4339,-3364.3759L13048.459,-3364.3527L13048.5125,-3364.3024L13048.7281,-3364.1072L13048.7848,-3364.0549L13048.8256,-3364.0137"/>
<path content="3,久山町,山田校区,6.0,6.0,6.0," xlink:title="3" d="M13048.4074,-3366.2109L13048.407,-3366.1921L13048.4452,-3366.1917L13048.4783,-3366.19L13048.5034,-3366.1913L13048.531,-3366.1946L13048.5531,-3366.2014L13048.5857,-3366.2072L13048.6017,-3366.1757L13048.6298,-3366.1279L13048.666,-3366.0738L13048.6916,-3366.0441L13048.7588,-3365.9543L13048.7839,-3365.9283L13048.7953,-3365.9172L13048.8111,-3365.8972L13048.84,-3365.8818L13048.8507,-3365.8734L13048.8707,-3365.8508L13048.8898,-3365.8176L13048.9124,-3365.7782L13048.938,-3365.7375L13048.9505,-3365.7145L13048.9294,-3365.6981L13048.9079,-3365.6843L13048.8922,-3365.6763L13048.8617,-3365.6516L13048.8351,-3365.6356L13048.797,-3365.6168L13048.7247,-3365.582L13048.659,-3365.5505L13048.5957,-3365.5195L13048.53,-3365.4864L13048.5099,-3365.4759L13048.4612,-3365.452L13048.4351,-3365.4381L13048.4146,-3365.426L13048.4025,-3365.4172L13048.3945,-3365.4054L13048.3794,-3365.3782L13048.3689,-3365.3513L13048.3915,-3365.3484L13048.4015,-3365.3484L13048.4156,-3365.3438L13048.4396,-3365.34L13048.4683,-3365.3367L13048.5034,-3365.335L13048.5275,-3365.3375L13048.5506,-3365.3421L13048.5706,-3365.3501L13048.5947,-3365.3635L13048.604,-3365.3701L13048.6354,-3365.392L13048.6456,-3365.4022L13048.675,-3365.4276L13048.7371,-3365.484L13048.7689,-3365.5119L13048.7864,-3365.5245L13048.7939,-3365.53L13048.806,-3365.5358L13048.8175,-3365.5405L13048.8396,-3365.5459L13048.8677,-3365.553L13048.9284,-3365.5677L13048.9365,-3365.5711L13048.944,-3365.5732L13048.957,-3365.5803L13048.9992,-3365.6113L13049.0986,-3365.6897L13049.1358,-3365.7188L13049.221,-3365.7866L13049.2637,-3365.8201L13049.2692,-3365.8269L13049.3093,-3365.8734L13049.3235,-3365.8711L13049.3685,-3365.8625L13049.3835,-3365.8586L13049.4032,-3365.8537L13049.4209,-3365.8472L13049.4729,-3365.8382L13049.4857,-3365.8353L13049.5121,-3365.8311L13049.5242,-3365.829L13049.5387,-3365.8281L13049.5605,-3365.8269"/>
</g>
</svg>
