<?xml version="1.0" encoding="UTF-8"?>
<svg  xmlns="http://www.w3.org/2000/svg" xmlns:xlink="http://www.w3.org/1999/xlink" xmlns:go="http://purl.org/svgmap/profile" property="N07_001,N07_002,N07_003,N07_004,N07_005,N07_006,N07_007" viewBox="13523.0712890625 -3483.7646484375 1.0986328125 1.0986328125" go:dataArea="13523.0712890625 -3483.7646484375 1.0986328125 1.0986328125" >
<metadata>
 <rdf:RDF xmlns:rdf="http://www.w3.org/1999/02/22-rdf-syntax-ns#" xmlns:crs="http://opengis.org/xmldtds/transformations.dtd" xmlns:svg="http://www.w3.org/svg" >
  <rdf:Description>
   <crs:CoordinateReferenceSystem rdf:resource="http://purl.org/crs/84" svg:transform="matrix(100.0,0.0,0.0,-100.0,0.0,0.0)" />
  </rdf:Description>
 </rdf:RDF>
</metadata>
<globalCoordinateSystem srsName="http://purl.org/crs/84" transform="matrix(100.0,0.0,0.0,-100.0,0.0,0.0)" />
<defs>
 <g id="p0" >
  <circle cx="0.0" cy="0.0" r="3" stroke="green" stroke-width="0.75" vector-effect="non-scaling-stroke" />
 </g>
</defs>
<g fill="none" fill-rule="evenodd" stroke="#FF00FF" stroke-width="0.75" opacity="0.5" vector-effect="non-scaling-stroke" stroke-linejoin="bevel" >
<path content="1,サンデン交通（株）,下関～大阪,1.0,1.0,1.0," xlink:title="1" d="M13523.5203,-3483.7646L13523.4616,-3483.414L13523.7354,-3483.4487"/>
<path content="1,一畑バス（株）,大阪～松江・出雲線,8.0,8.0,8.0," xlink:title="1" d="M13523.521,-3483.7646L13523.5014,-3483.6309L13523.4894,-3483.5603L13523.4616,-3483.414L13523.7354,-3483.4487"/>
<path content="1,下津井電鉄（株）,岡山～大阪線,8.0,8.0,8.0," xlink:title="1" d="M13523.5221,-3483.7646L13523.4867,-3483.5208L13523.4911,-3483.4757L13523.5148,-3483.444L13523.5502,-3483.4269L13523.6035,-3483.4281L13523.9878,-3483.4818L13523.9597,-3483.5781L13523.9185,-3483.7646"/>
<path content="1,丹後海陸交通（株）,大阪線（丹後～大阪）,2.0,2.0,2.0," xlink:title="1" d="M13523.4894,-3483.5603L13523.5014,-3483.6309L13523.521,-3483.7646"/>
<path content="1,京都交通（株）,舞鶴・綾部・福知山～大阪梅田,2.0,2.0,2.0," xlink:title="1" d="M13523.4894,-3483.5603L13523.5014,-3483.6309L13523.521,-3483.7646"/>
<path content="1,京阪バス（株）,京都・大阪⇔小倉・福岡,1.0,1.0,1.0," xlink:title="1" d="M13523.4894,-3483.5603L13523.5014,-3483.6309L13523.521,-3483.7646"/>
<path content="1,伊予鉄道（株）,オレンジライナーえひめ　八幡浜・松山⇔大阪,8.0,8.0,8.0," xlink:title="1" d="M13523.4894,-3483.5603L13523.5014,-3483.6309L13523.521,-3483.7646"/>
<path content="1,備北バス（株）,備北高速バス　新見～大阪,4.0,4.0,4.0," xlink:title="1" d="M13523.5221,-3483.7646L13523.4867,-3483.5208L13523.4911,-3483.4757L13523.5148,-3483.444L13523.5502,-3483.4269L13523.6035,-3483.4281L13523.9878,-3483.4818L13523.9597,-3483.5781L13523.9185,-3483.7646"/>
<path content="1,全但バス（株）,城崎-和田山営業所乗り継ぎ-大阪,2.0,2.2,2.0," xlink:title="1" d="M13523.4894,-3483.5603L13523.5014,-3483.6309L13523.521,-3483.7646"/>
<path content="1,全但バス（株）,大阪-城崎,2.0,2.2,2.0," xlink:title="1" d="M13523.4894,-3483.5603L13523.5014,-3483.6309L13523.521,-3483.7646"/>
<path content="1,南国交通（株）,鹿児島～大阪,1.0,1.0,1.0," xlink:title="1" d="M13523.5004,-3483.7646L13523.5005,-3483.7618L13523.5005,-3483.7289L13523.4837,-3483.6937L13523.4738,-3483.6566L13523.4699,-3483.6356L13523.4654,-3483.5745L13523.4659,-3483.5599L13523.4894,-3483.5603L13523.5113,-3483.5559L13523.5406,-3483.6278L13523.5522,-3483.6566L13523.5549,-3483.6802L13523.5563,-3483.7055L13523.5539,-3483.7348L13523.5532,-3483.7389L13523.5634,-3483.7624L13523.5647,-3483.7646"/>
<path content="1,土佐電気鉄道（株）,よさこい号　高知⇔大阪線,10.0,10.0,10.0," xlink:title="1" d="M13523.4894,-3483.5603L13523.5014,-3483.6309L13523.521,-3483.7646"/>
<path content="1,日本交通（株）,倉吉～神戸・大阪線　なんば便,2.0,2.0,2.0," xlink:title="1" d="M13523.521,-3483.7646L13523.5014,-3483.6309L13523.4894,-3483.5603L13523.4616,-3483.414L13523.7354,-3483.4487"/>
<path content="1,日本交通（株）,倉吉～神戸・大阪線　新大阪便,3.0,3.0,3.0," xlink:title="1" d="M13523.521,-3483.7646L13523.5014,-3483.6309L13523.4894,-3483.5603L13523.4616,-3483.414L13523.7354,-3483.4487"/>
<path content="1,日本交通（株）,倉吉～神戸・大阪線　湯原経由,1.0,1.0,1.0," xlink:title="1" d="M13523.521,-3483.7646L13523.5014,-3483.6309L13523.4894,-3483.5603L13523.4616,-3483.414L13523.7354,-3483.4487"/>
<path content="1,日本交通（株）,米子～神戸・大阪線　なんば便,12.0,12.0,12.0," xlink:title="1" d="M13523.521,-3483.7646L13523.5014,-3483.6309L13523.4894,-3483.5603L13523.4616,-3483.414L13523.7354,-3483.4487"/>
<path content="1,日本交通（株）,鳥取～神戸・大阪線　なんば便,8.5,8.5,8.5," xlink:title="1" d="M13523.521,-3483.7646L13523.5014,-3483.6309L13523.4894,-3483.5603L13523.4616,-3483.414L13523.7354,-3483.4487"/>
<path content="1,日本交通（株）,鳥取～神戸・大阪線　若桜経由便,3.0,3.0,3.0," xlink:title="1" d="M13523.521,-3483.7646L13523.5014,-3483.6309L13523.4894,-3483.5603L13523.4616,-3483.414L13523.7354,-3483.4487"/>
<path content="1,日本交通（株）（大阪）,倉吉～神戸・大阪線,9.0,9.0,9.0," xlink:title="1" d="M13523.4894,-3483.5603L13523.5014,-3483.6309L13523.521,-3483.7646"/>
<path content="1,日本交通（株）（大阪）,大阪・神戸～福知山・舞鶴線,5.5,6.0,5.5," xlink:title="1" d="M13523.4894,-3483.5603L13523.5014,-3483.6309L13523.521,-3483.7646"/>
<path content="1,日本交通（株）（大阪）,米子～神戸・大阪線,23.0,23.0,23.0," xlink:title="1" d="M13523.4894,-3483.5603L13523.5014,-3483.6309L13523.521,-3483.7646"/>
<path content="1,日本交通（株）（大阪）,鳥取～神戸・大阪線,20.5,20.5,20.5," xlink:title="1" d="M13523.4894,-3483.5603L13523.5014,-3483.6309L13523.521,-3483.7646"/>
<path content="1,神姫バス（株）,14,3.4,3.4,3.4," xlink:title="1" d="M13523.7354,-3483.4487L13523.6976,-3483.445L13523.6904,-3483.4441L13523.6845,-3483.4433L13523.6427,-3483.4379L13523.5966,-3483.4318L13523.5766,-3483.4291L13523.5649,-3483.4276L13523.5529,-3483.426L13523.5242,-3483.4221L13523.4881,-3483.4173L13523.4616,-3483.414L13523.4323,-3483.4103L13523.3808,-3483.4039L13523.2993,-3483.3933L13523.2877,-3483.3918L13523.2439,-3483.3861L13523.2024,-3483.3809L13523.1204,-3483.3704L13523.0713,-3483.3648"/>
<path content="1,神姫バス（株）,三ノ宮～フラワータウンセンター～えるむプラザ前～ゆりのき台4丁目～つつじが丘北口,5.0,4.0,4.0," xlink:title="1" d="M13523.9199,-3483.7646L13523.9412,-3483.6566L13523.9636,-3483.5772L13523.9783,-3483.5162L13523.9829,-3483.5067L13523.9924,-3483.4841L13523.9816,-3483.4825L13523.9444,-3483.4772L13523.9376,-3483.4763L13523.9064,-3483.4724L13523.8915,-3483.4705L13523.8883,-3483.4701L13523.8732,-3483.4679L13523.7354,-3483.4487L13523.6904,-3483.4441L13523.6845,-3483.4433L13523.6427,-3483.4379L13523.5966,-3483.4318L13523.5766,-3483.4291L13523.5649,-3483.4276L13523.5529,-3483.426L13523.5242,-3483.4221L13523.4881,-3483.4173L13523.4616,-3483.414L13523.4323,-3483.4103L13523.3808,-3483.4039L13523.2993,-3483.3933L13523.2877,-3483.3918L13523.2439,-3483.3861L13523.2024,-3483.3809L13523.1204,-3483.3704L13523.0713,-3483.3648"/>
<path content="1,神姫バス（株）,三ノ宮～フラワータウンセンター～えるむプラザ前～ゆりのき台4丁目～関西学院大学キャンパス前～関西記念墓園,0.0,1.0,1.0," xlink:title="1" d="M13523.0713,-3483.3648L13523.1204,-3483.3704L13523.2024,-3483.3809L13523.2439,-3483.3861L13523.2877,-3483.3918L13523.2993,-3483.3933L13523.3808,-3483.4039L13523.4323,-3483.4103L13523.4616,-3483.414L13523.4881,-3483.4173L13523.5242,-3483.4221L13523.5529,-3483.426L13523.5649,-3483.4276L13523.5766,-3483.4291L13523.5966,-3483.4318L13523.6427,-3483.4379L13523.6845,-3483.4433L13523.6904,-3483.4441L13523.7354,-3483.4487L13523.8732,-3483.4679L13523.8883,-3483.4701L13523.8915,-3483.4705L13523.9064,-3483.4724L13523.9376,-3483.4763L13523.9444,-3483.4772L13523.9816,-3483.4825L13523.9924,-3483.4841L13523.9829,-3483.5067L13523.9783,-3483.5162L13523.9636,-3483.5772L13523.9412,-3483.6566L13523.9199,-3483.7646"/>
<path content="1,神姫バス（株）,津山駅・加西・西脇-大阪駅・ユニバーサル・スタジオ・ジャパン,23.0,24.0,24.0," xlink:title="1" d="M13523.4894,-3483.5603L13523.5014,-3483.6309L13523.521,-3483.7646"/>
<path content="1,阪急バス（株）,三田線1,12.0,11.8,11.3," xlink:title="1" d="M13523.9199,-3483.7646L13523.9412,-3483.6566L13523.9636,-3483.5772L13523.9783,-3483.5162L13523.9829,-3483.5067L13523.9924,-3483.4841L13523.9964,-3483.4746L13524.0291,-3483.3979L13524.0421,-3483.3748L13524.0722,-3483.3281L13524.1043,-3483.2841L13524.1293,-3483.2532L13524.0918,-3483.146L13524.0617,-3483.0681L13524.0633,-3483.0528L13524.0812,-3482.9421L13524.0838,-3482.9262L13524.0838,-3482.914L13524.0838,-3482.8974L13524.0731,-3482.8293L13524.0726,-3482.8194L13524.0714,-3482.7996L13524.0697,-3482.7802L13524.0729,-3482.7566L13524.0763,-3482.747L13524.0829,-3482.7353L13524.0855,-3482.7306L13524.0956,-3482.7162L13524.1063,-3482.707L13524.1371,-3482.6912L13524.1699,-3482.6788"/>
<path content="1,阪急バス（株）,三田線17,8.0,0.0,0.0," xlink:title="1" d="M13523.9199,-3483.7646L13523.9412,-3483.6566L13523.9636,-3483.5772L13523.9783,-3483.5162L13523.9829,-3483.5067L13523.9924,-3483.4841L13523.9964,-3483.4746L13524.0291,-3483.3979L13524.0421,-3483.3748L13524.0722,-3483.3281L13524.1043,-3483.2841L13524.1293,-3483.2532L13524.0918,-3483.146L13524.0617,-3483.0681L13524.0633,-3483.0528L13524.0812,-3482.9421L13524.0838,-3482.9262L13524.0838,-3482.914L13524.0838,-3482.8974L13524.0731,-3482.8293L13524.0726,-3482.8194L13524.0714,-3482.7996L13524.0697,-3482.7802L13524.0729,-3482.7566L13524.0763,-3482.747L13524.0829,-3482.7353L13524.0855,-3482.7306L13524.0956,-3482.7162L13524.1063,-3482.707L13524.1371,-3482.6912L13524.1699,-3482.6788"/>
<path content="1,阪急バス（株）,天橋立・宮津行,3.0,3.0,3.0," xlink:title="1" d="M13523.4894,-3483.5603L13523.5014,-3483.6309L13523.521,-3483.7646"/>
<path content="1,阪急バス（株）,新見・三次行,7.0,7.0,7.0," xlink:title="1" d="M13523.4894,-3483.5603L13523.5014,-3483.6309L13523.521,-3483.7646"/>
<path content="1,阪急バス（株）,有馬系統,11.0,8.5,9.0," xlink:title="1" d="M13524.1699,-3482.6788L13524.1371,-3482.6912L13524.1063,-3482.707L13524.0956,-3482.7162L13524.0855,-3482.7306L13524.0829,-3482.7353L13524.0763,-3482.747L13524.0729,-3482.7566L13524.0697,-3482.7802L13524.0714,-3482.7996L13524.0726,-3482.8194L13524.0731,-3482.8293L13524.0838,-3482.8974L13524.0838,-3482.914L13524.0838,-3482.9262L13524.0812,-3482.9421L13524.0633,-3483.0528L13524.0617,-3483.0681L13524.0918,-3483.146L13524.1293,-3483.2532"/>
<path content="1,阪急バス（株）,有馬系統,11.0,8.5,9.0," xlink:title="1" d="M13524.1293,-3483.2532L13524.1313,-3483.2511L13524.1699,-3483.2115M13524.1699,-3483.4818L13524.148,-3483.4729L13524.1405,-3483.469L13524.1121,-3483.4495L13524.0688,-3483.4199L13524.0524,-3483.4098L13524.0401,-3483.4041L13524.0291,-3483.3979"/>
<path content="1,阪急バス（株）,有馬系統,11.0,8.5,9.0," xlink:title="1" d="M13524.0291,-3483.3979L13524.0421,-3483.3748L13524.0722,-3483.3281L13524.1043,-3483.2841L13524.1293,-3483.2532"/>
<path content="1,阪急バス（株）,有馬系統,11.0,8.5,9.0," xlink:title="1" d="M13524.0291,-3483.3979L13523.9964,-3483.4746L13523.9924,-3483.4841"/>
<path content="1,阪急バス（株）,有馬系統,11.0,8.5,9.0," xlink:title="1" d="M13523.9924,-3483.4841L13523.9816,-3483.4825L13523.9444,-3483.4772L13523.9376,-3483.4763L13523.9064,-3483.4724L13523.8915,-3483.4705L13523.8883,-3483.4701L13523.8732,-3483.4679L13523.854,-3483.4651L13523.7354,-3483.4487L13523.6976,-3483.445L13523.6904,-3483.4441L13523.6845,-3483.4433L13523.6427,-3483.4379L13523.5966,-3483.4318L13523.5766,-3483.4291L13523.5792,-3483.4043L13523.5801,-3483.3964L13523.5832,-3483.3884L13523.5928,-3483.3517L13523.5969,-3483.3207L13523.5989,-3483.2401L13523.5983,-3483.0874L13523.5976,-3483.0834L13523.5981,-3483.0381L13523.5989,-3483.0062L13523.5956,-3482.8843L13523.5942,-3482.8786L13523.5416,-3482.8422L13523.5252,-3482.8309L13523.5184,-3482.8248L13523.5184,-3482.7695L13523.517,-3482.6844L13523.5167,-3482.666"/>
<path content="1,阪急バス（株）,有馬系統,11.0,8.5,9.0," xlink:title="1" d="M13523.9924,-3483.4841L13523.9829,-3483.5067L13523.9783,-3483.5162L13523.9636,-3483.5772L13523.9412,-3483.6566L13523.9199,-3483.7646"/>
<path content="1,阪急バス（株）,有馬線151,26.5,28.8,24.6," xlink:title="1" d="M13524.1699,-3483.2115L13524.1313,-3483.2511L13524.1293,-3483.2532L13524.0918,-3483.146L13524.0617,-3483.0681L13524.0633,-3483.0528L13524.0812,-3482.9421L13524.0838,-3482.9262L13524.0838,-3482.914L13524.0838,-3482.8974L13524.0731,-3482.8293L13524.0726,-3482.8194L13524.0714,-3482.7996L13524.0697,-3482.7802L13524.0729,-3482.7566L13524.0763,-3482.747L13524.0829,-3482.7353L13524.0855,-3482.7306L13524.0956,-3482.7162L13524.1063,-3482.707L13524.1371,-3482.6912L13524.1699,-3482.6788"/>
<path content="1,阪急バス（株）,有馬線152,17.8,12.8,2.5," xlink:title="1" d="M13524.1699,-3483.2115L13524.1313,-3483.2511L13524.1293,-3483.2532"/>
<path content="1,阪急バス（株）,有馬線152,17.8,12.8,2.5," xlink:title="1" d="M13524.1293,-3483.2532L13524.0918,-3483.146L13524.0617,-3483.0681L13524.0633,-3483.0528"/>
<path content="1,阪急バス（株）,有馬線152,17.8,12.8,2.5," xlink:title="1" d="M13524.1293,-3483.2532L13524.1043,-3483.2841L13524.0722,-3483.3281L13524.0421,-3483.3748L13524.0291,-3483.3979L13523.9964,-3483.4746L13523.9924,-3483.4841L13523.9816,-3483.4825L13523.9444,-3483.4772L13523.9376,-3483.4763L13523.9064,-3483.4724L13523.8915,-3483.4705L13523.8883,-3483.4701L13523.8732,-3483.4679L13523.854,-3483.4651L13523.7354,-3483.4487L13523.6976,-3483.445L13523.6904,-3483.4441L13523.6845,-3483.4433L13523.6427,-3483.4379L13523.5966,-3483.4318L13523.5766,-3483.4291L13523.5792,-3483.4043L13523.5801,-3483.3964L13523.5832,-3483.3884L13523.5928,-3483.3517L13523.5969,-3483.3207L13523.5989,-3483.2401L13523.5983,-3483.0874L13523.5976,-3483.0834L13523.5981,-3483.0381"/>
<path content="1,阪急バス（株）,有馬線154,17.3,14.0,11.0," xlink:title="1" d="M13524.1699,-3483.4818L13524.148,-3483.4729L13524.1405,-3483.469L13524.1121,-3483.4495L13524.0688,-3483.4199L13524.0524,-3483.4098L13524.0401,-3483.4041L13524.0291,-3483.3979L13523.9964,-3483.4746L13523.9924,-3483.4841"/>
<path content="1,阪急バス（株）,有馬線154,17.3,14.0,11.0," xlink:title="1" d="M13523.9924,-3483.4841L13523.9816,-3483.4825L13523.9444,-3483.4772L13523.9376,-3483.4763L13523.9064,-3483.4724L13523.8915,-3483.4705L13523.8883,-3483.4701L13523.8732,-3483.4679L13523.854,-3483.4651L13523.7354,-3483.4487L13523.6976,-3483.445L13523.6904,-3483.4441L13523.6845,-3483.4433L13523.6427,-3483.4379L13523.5966,-3483.4318L13523.5766,-3483.4291L13523.5792,-3483.4043L13523.5801,-3483.3964L13523.5832,-3483.3884L13523.5928,-3483.3517L13523.5969,-3483.3207L13523.5989,-3483.2401L13523.5983,-3483.0874L13523.5976,-3483.0834L13523.5981,-3483.0381"/>
<path content="1,阪急バス（株）,有馬線154,17.3,14.0,11.0," xlink:title="1" d="M13523.9924,-3483.4841L13523.9829,-3483.5067L13523.9783,-3483.5162L13523.9636,-3483.5772L13523.9412,-3483.6566L13523.9199,-3483.7646"/>
<path content="1,阪急バス（株）,有馬線157,34.0,27.3,22.8," xlink:title="1" d="M13524.1699,-3483.4818L13524.148,-3483.4729L13524.1405,-3483.469L13524.1121,-3483.4495L13524.0688,-3483.4199L13524.0524,-3483.4098L13524.0401,-3483.4041L13524.0291,-3483.3979L13523.9964,-3483.4746L13523.9924,-3483.4841L13523.9816,-3483.4825L13523.9444,-3483.4772L13523.9376,-3483.4763L13523.9064,-3483.4724L13523.8915,-3483.4705L13523.8883,-3483.4701L13523.8732,-3483.4679L13523.854,-3483.4651L13523.7354,-3483.4487L13523.6976,-3483.445L13523.6904,-3483.4441L13523.6845,-3483.4433L13523.6427,-3483.4379L13523.5966,-3483.4318L13523.5766,-3483.4291L13523.5792,-3483.4043L13523.5801,-3483.3964L13523.5832,-3483.3884L13523.5928,-3483.3517L13523.5969,-3483.3207L13523.5989,-3483.2401L13523.5983,-3483.0874L13523.5976,-3483.0834L13523.5981,-3483.0381"/>
<path content="1,阪急バス（株）,有馬線160,8.3,10.0,5.3," xlink:title="1" d="M13524.1699,-3483.4818L13524.148,-3483.4729L13524.1405,-3483.469L13524.1121,-3483.4495L13524.0688,-3483.4199L13524.0524,-3483.4098L13524.0401,-3483.4041L13524.0291,-3483.3979L13524.0421,-3483.3748L13524.0722,-3483.3281L13524.1043,-3483.2841L13524.1293,-3483.2532L13524.0918,-3483.146L13524.0617,-3483.0681L13524.0633,-3483.0528L13524.0812,-3482.9421L13524.0838,-3482.9262L13524.0838,-3482.914L13524.0838,-3482.8974L13524.0731,-3482.8293L13524.0714,-3482.7996L13524.0697,-3482.7802L13524.0729,-3482.7566L13524.0763,-3482.747L13524.0829,-3482.7353L13524.0855,-3482.7306L13524.0956,-3482.7162L13524.1063,-3482.707L13524.1371,-3482.6912L13524.1699,-3482.6788M13523.5167,-3482.666L13523.517,-3482.6844L13523.5184,-3482.7695L13523.5184,-3482.8248L13523.5252,-3482.8309L13523.5416,-3482.8422L13523.5942,-3482.8786L13523.5956,-3482.8843L13523.5989,-3483.0062L13523.5981,-3483.0381"/>
<path content="1,阪急バス（株）,有馬線164,20.2,18.2,15.7," xlink:title="1" d="M13524.1699,-3483.2115L13524.1313,-3483.2511L13524.1293,-3483.2532L13524.0918,-3483.146L13524.0617,-3483.0681L13524.0633,-3483.0528L13524.0812,-3482.9421L13524.0838,-3482.9262L13524.0838,-3482.914L13524.0838,-3482.8974L13524.0731,-3482.8293L13524.0714,-3482.7996L13524.0697,-3482.7802L13524.0729,-3482.7566L13524.0763,-3482.747L13524.0829,-3482.7353L13524.0855,-3482.7306L13524.0956,-3482.7162L13524.1063,-3482.707L13524.1371,-3482.6912L13524.1699,-3482.6788M13523.5167,-3482.666L13523.517,-3482.6844L13523.5184,-3482.7695L13523.5184,-3482.8248L13523.5252,-3482.8309L13523.5416,-3482.8422L13523.5942,-3482.8786L13523.5956,-3482.8843L13523.5989,-3483.0062L13523.5981,-3483.0381"/>
<path content="1,阪急バス（株）,有馬線165,20.6,18.5,10.1," xlink:title="1" d="M13524.1699,-3483.2115L13524.1313,-3483.2511L13524.1293,-3483.2532L13524.0918,-3483.146L13524.0617,-3483.0681L13524.0633,-3483.0528L13524.0812,-3482.9421L13524.0838,-3482.9262L13524.0838,-3482.914L13524.0838,-3482.8974L13524.0731,-3482.8293L13524.0714,-3482.7996L13524.0697,-3482.7802L13524.0729,-3482.7566L13524.0763,-3482.747L13524.0829,-3482.7353L13524.0855,-3482.7306L13524.0956,-3482.7162L13524.1063,-3482.707L13524.1371,-3482.6912L13524.1699,-3482.6788"/>
<path content="1,阪急バス（株）,有馬線165,20.6,18.5,10.1," xlink:title="1" d="M13523.5167,-3482.666L13523.517,-3482.6844L13523.5184,-3482.7695L13523.5184,-3482.8248L13523.5252,-3482.8309L13523.5416,-3482.8422L13523.5942,-3482.8786L13523.5956,-3482.8843L13523.5989,-3483.0062L13523.5981,-3483.0381"/>
<path content="1,阪急バス（株）,有馬線58,5.5,5.5,8.2," xlink:title="1" d="M13523.5981,-3483.0381L13523.5976,-3483.0834L13523.5983,-3483.0874L13523.5989,-3483.2401L13523.5969,-3483.3207L13523.5928,-3483.3517L13523.5832,-3483.3884L13523.5801,-3483.3964L13523.5792,-3483.4043L13523.5766,-3483.4291L13523.5966,-3483.4318L13523.6427,-3483.4379L13523.6845,-3483.4433L13523.6904,-3483.4441L13523.6976,-3483.445L13523.7354,-3483.4487L13523.854,-3483.4651L13523.8732,-3483.4679L13523.8883,-3483.4701L13523.8915,-3483.4705L13523.9064,-3483.4724L13523.9376,-3483.4763L13523.9444,-3483.4772L13523.9816,-3483.4825L13523.9924,-3483.4841L13523.9964,-3483.4746L13524.0291,-3483.3979L13524.0421,-3483.3748L13524.0722,-3483.3281L13524.1043,-3483.2841L13524.1293,-3483.2532L13524.0918,-3483.146L13524.0617,-3483.0681L13524.0633,-3483.0528L13524.0812,-3482.9421L13524.0838,-3482.9262L13524.0838,-3482.914L13524.0838,-3482.8974L13524.0731,-3482.8293L13524.0726,-3482.8194L13524.0714,-3482.7996L13524.0697,-3482.7802L13524.0729,-3482.7566L13524.0763,-3482.747L13524.0829,-3482.7353L13524.0855,-3482.7306L13524.0956,-3482.7162L13524.1063,-3482.707L13524.1371,-3482.6912L13524.1699,-3482.6788"/>
<path content="1,阪急バス（株）,有馬線59,2.3,3.8,2.4," xlink:title="1" d="M13523.5981,-3483.0381L13523.5976,-3483.0834L13523.5983,-3483.0874L13523.5989,-3483.2401L13523.5969,-3483.3207L13523.5928,-3483.3517L13523.5832,-3483.3884L13523.5801,-3483.3964L13523.5792,-3483.4043L13523.5766,-3483.4291L13523.5966,-3483.4318L13523.6427,-3483.4379L13523.6845,-3483.4433L13523.6904,-3483.4441L13523.6976,-3483.445L13523.7354,-3483.4487L13523.854,-3483.4651L13523.8732,-3483.4679L13523.8883,-3483.4701L13523.8915,-3483.4705L13523.9064,-3483.4724L13523.9376,-3483.4763L13523.9444,-3483.4772L13523.9816,-3483.4825L13523.9924,-3483.4841L13523.9964,-3483.4746L13524.0291,-3483.3979L13524.0421,-3483.3748L13524.0722,-3483.3281L13524.1043,-3483.2841L13524.1293,-3483.2532L13524.0918,-3483.146L13524.0617,-3483.0681L13524.0633,-3483.0528L13524.0812,-3482.9421L13524.0838,-3482.9262L13524.0838,-3482.914L13524.0838,-3482.8974L13524.0731,-3482.8293L13524.0726,-3482.8194L13524.0714,-3482.7996L13524.0697,-3482.7802L13524.0729,-3482.7566L13524.0763,-3482.747L13524.0829,-3482.7353L13524.0855,-3482.7306L13524.0956,-3482.7162L13524.1063,-3482.707L13524.1371,-3482.6912L13524.1699,-3482.6788"/>
<path content="1,阪急バス（株）,有馬線60,8.8,9.0,4.0," xlink:title="1" d="M13523.5981,-3483.0381L13523.5976,-3483.0834L13523.5983,-3483.0874L13523.5989,-3483.2401L13523.5969,-3483.3207L13523.5928,-3483.3517L13523.5832,-3483.3884L13523.5801,-3483.3964L13523.5792,-3483.4043L13523.5766,-3483.4291L13523.5966,-3483.4318L13523.6427,-3483.4379L13523.6845,-3483.4433L13523.6904,-3483.4441L13523.6976,-3483.445L13523.7354,-3483.4487L13523.854,-3483.4651L13523.8732,-3483.4679L13523.8883,-3483.4701L13523.8915,-3483.4705L13523.9064,-3483.4724L13523.9376,-3483.4763L13523.9444,-3483.4772L13523.9816,-3483.4825L13523.9924,-3483.4841L13523.9964,-3483.4746L13524.0291,-3483.3979L13524.0421,-3483.3748L13524.0722,-3483.3281L13524.1043,-3483.2841L13524.1293,-3483.2532L13524.0918,-3483.146L13524.0617,-3483.0681L13524.0633,-3483.0528L13524.0812,-3482.9421L13524.0838,-3482.9262L13524.0838,-3482.914L13524.0838,-3482.8974L13524.0731,-3482.8293L13524.0726,-3482.8194L13524.0714,-3482.7996L13524.0697,-3482.7802L13524.0729,-3482.7566L13524.0763,-3482.747L13524.0829,-3482.7353L13524.0855,-3482.7306L13524.0956,-3482.7162L13524.1063,-3482.707L13524.1371,-3482.6912L13524.1699,-3482.6788"/>
<path content="1,阪急バス（株）,有馬線61,9.0,3.3,2.7," xlink:title="1" d="M13523.5981,-3483.0381L13523.5976,-3483.0834L13523.5983,-3483.0874L13523.5989,-3483.2401L13523.5969,-3483.3207L13523.5928,-3483.3517L13523.5832,-3483.3884L13523.5801,-3483.3964L13523.5792,-3483.4043L13523.5766,-3483.4291L13523.5966,-3483.4318L13523.6427,-3483.4379L13523.6845,-3483.4433L13523.6904,-3483.4441L13523.6976,-3483.445L13523.7354,-3483.4487L13523.854,-3483.4651L13523.8732,-3483.4679L13523.8883,-3483.4701L13523.8915,-3483.4705L13523.9064,-3483.4724L13523.9376,-3483.4763L13523.9444,-3483.4772L13523.9816,-3483.4825L13523.9924,-3483.4841L13523.9964,-3483.4746L13524.0291,-3483.3979L13524.0421,-3483.3748L13524.0722,-3483.3281L13524.1043,-3483.2841L13524.1293,-3483.2532L13524.0918,-3483.146L13524.0617,-3483.0681L13524.0633,-3483.0528L13524.0812,-3482.9421L13524.0838,-3482.9262L13524.0838,-3482.914L13524.0838,-3482.8974L13524.0731,-3482.8293L13524.0726,-3482.8194L13524.0714,-3482.7996L13524.0697,-3482.7802L13524.0729,-3482.7566L13524.0763,-3482.747L13524.0829,-3482.7353L13524.0855,-3482.7306L13524.0956,-3482.7162L13524.1063,-3482.707L13524.1371,-3482.6912L13524.1699,-3482.6788"/>
<path content="1,阪急バス（株）,有馬線62,7.5,7.5,6.0," xlink:title="1" d="M13523.5981,-3483.0381L13523.5989,-3483.0062L13523.5956,-3482.8843L13523.5942,-3482.8786L13523.5416,-3482.8422L13523.5252,-3482.8309L13523.5184,-3482.8248L13523.492,-3482.8244L13523.4594,-3482.8239L13523.4378,-3482.8236L13523.3729,-3482.8236L13523.365,-3482.8238L13523.3525,-3482.824L13523.3422,-3482.8242L13523.3436,-3482.8112L13523.3429,-3482.7075L13523.3417,-3482.6755L13523.3415,-3482.666"/>
<path content="1,阪急バス（株）,有馬線63,11.0,0.0,0.0," xlink:title="1" d="M13523.5981,-3483.0381L13523.5989,-3483.0062L13523.5956,-3482.8843L13523.5942,-3482.8786L13523.5416,-3482.8422L13523.5252,-3482.8309L13523.5184,-3482.8248L13523.492,-3482.8244L13523.4594,-3482.8239L13523.4378,-3482.8236L13523.3729,-3482.8236L13523.365,-3482.8238L13523.3525,-3482.824L13523.3422,-3482.8242L13523.3436,-3482.8112L13523.3429,-3482.7075L13523.3417,-3482.6755L13523.3415,-3482.666"/>
<path content="1,阪急バス（株）,松山・八幡浜行（オレンジライナーえひめ号）,8.0,8.0,8.0," xlink:title="1" d="M13523.4894,-3483.5603L13523.5014,-3483.6309L13523.521,-3483.7646"/>
<path content="1,阪急バス（株）,松江・出雲行（くにびき号）,8.0,8.0,8.0," xlink:title="1" d="M13523.4894,-3483.5603L13523.5014,-3483.6309L13523.521,-3483.7646"/>
<path content="1,阪急バス（株）,湯村温泉行（夢千代号）,4.0,4.0,4.0," xlink:title="1" d="M13523.4894,-3483.5603L13523.5014,-3483.6309L13523.521,-3483.7646"/>
<path content="1,阪急バス（株）,芦屋有馬線80,13.8,14.0,14.0," xlink:title="1" d="M13523.5981,-3483.0381L13523.5976,-3483.0834L13523.5983,-3483.0874L13523.5989,-3483.2401L13523.5969,-3483.3207L13523.5928,-3483.3517L13523.5832,-3483.3884L13523.5801,-3483.3964L13523.5792,-3483.4043L13523.5766,-3483.4291L13523.5966,-3483.4318L13523.6427,-3483.4379L13523.6845,-3483.4433L13523.6904,-3483.4441L13523.6976,-3483.445L13523.7354,-3483.4487L13523.854,-3483.4651L13523.8732,-3483.4679L13523.8883,-3483.4701L13523.8915,-3483.4705L13523.9064,-3483.4724L13523.9376,-3483.4763L13523.9444,-3483.4772L13523.9816,-3483.4825L13523.9924,-3483.4841L13523.9964,-3483.4746L13524.0291,-3483.3979L13524.0421,-3483.3748L13524.0722,-3483.3281L13524.1043,-3483.2841L13524.1293,-3483.2532L13524.0918,-3483.146L13524.0617,-3483.0681L13524.0633,-3483.0528L13524.0812,-3482.9421L13524.0838,-3482.9262L13524.0838,-3482.914L13524.0838,-3482.8974L13524.0731,-3482.8293L13524.0726,-3482.8194L13524.0714,-3482.7996L13524.0697,-3482.7802L13524.0729,-3482.7566L13524.0763,-3482.747L13524.0829,-3482.7353L13524.0855,-3482.7306L13524.0956,-3482.7162L13524.1063,-3482.707L13524.1371,-3482.6912L13524.1699,-3482.6788"/>
<path content="1,阪急バス（株）,金仙寺系統,12.0,7.5,4.0," xlink:title="1" d="M13523.5167,-3482.666L13523.517,-3482.6844L13523.5184,-3482.7695L13523.5184,-3482.8248L13523.5252,-3482.8309L13523.5416,-3482.8422L13523.5942,-3482.8786L13523.5956,-3482.8843L13523.5989,-3483.0062L13523.5981,-3483.0381L13523.5976,-3483.0834L13523.5983,-3483.0874L13523.5989,-3483.2401L13523.5969,-3483.3207L13523.5928,-3483.3517L13523.5832,-3483.3884L13523.5801,-3483.3964L13523.5792,-3483.4043L13523.5766,-3483.4291L13523.5966,-3483.4318L13523.6427,-3483.4379L13523.6845,-3483.4433L13523.6904,-3483.4441L13523.6976,-3483.445L13523.7354,-3483.4487L13523.854,-3483.4651L13523.8732,-3483.4679L13523.8883,-3483.4701L13523.8915,-3483.4705L13523.9064,-3483.4724L13523.9376,-3483.4763L13523.9444,-3483.4772L13523.9816,-3483.4825L13523.9924,-3483.4841"/>
<path content="1,阪急バス（株）,金仙寺系統,12.0,7.5,4.0," xlink:title="1" d="M13524.1293,-3483.2532L13524.0918,-3483.146L13524.0617,-3483.0681L13524.0633,-3483.0528L13524.0812,-3482.9421L13524.0838,-3482.9262L13524.0838,-3482.914L13524.0838,-3482.8974L13524.0731,-3482.8293L13524.0726,-3482.8194L13524.0714,-3482.7996L13524.0697,-3482.7802L13524.0729,-3482.7566L13524.0763,-3482.747L13524.0829,-3482.7353L13524.0855,-3482.7306L13524.0956,-3482.7162L13524.1063,-3482.707L13524.1371,-3482.6912L13524.1699,-3482.6788"/>
<path content="1,阪急バス（株）,金仙寺系統,12.0,7.5,4.0," xlink:title="1" d="M13524.0291,-3483.3979L13524.0421,-3483.3748L13524.0722,-3483.3281L13524.1043,-3483.2841L13524.1293,-3483.2532"/>
<path content="1,阪急バス（株）,金仙寺系統,12.0,7.5,4.0," xlink:title="1" d="M13524.0291,-3483.3979L13524.0401,-3483.4041L13524.0524,-3483.4098L13524.0688,-3483.4199L13524.1121,-3483.4495L13524.1405,-3483.469L13524.148,-3483.4729L13524.1699,-3483.4818M13524.1699,-3483.2115L13524.1313,-3483.2511L13524.1293,-3483.2532"/>
<path content="1,阪急バス（株）,金仙寺系統,12.0,7.5,4.0," xlink:title="1" d="M13523.9924,-3483.4841L13523.9964,-3483.4746L13524.0291,-3483.3979"/>
<path content="1,阪急バス（株）,金仙寺系統,12.0,7.5,4.0," xlink:title="1" d="M13523.9199,-3483.7646L13523.9412,-3483.6566L13523.9636,-3483.5772L13523.9783,-3483.5162L13523.9829,-3483.5067L13523.9924,-3483.4841"/>
<path content="1,阪急バス（株）,高知行（よさこい号）,10.0,10.0,10.0," xlink:title="1" d="M13523.4894,-3483.5603L13523.5014,-3483.6309L13523.521,-3483.7646"/>
<path content="1,阪急観光バス（株）,北九州・福岡行（ムーンライト号）,1.0,1.0,1.0," xlink:title="1" d="M13523.4894,-3483.5603L13523.5014,-3483.6309L13523.521,-3483.7646"/>
<path content="1,阪急観光バス（株）,長崎行（ロマン長崎号）,1.0,1.0,1.0," xlink:title="1" d="M13523.4894,-3483.5603L13523.5014,-3483.6309L13523.521,-3483.7646"/>
<path content="1,阪急観光バス（株）,鹿児島行（さつま号）,1.0,1.0,1.0," xlink:title="1" d="M13523.4894,-3483.5603L13523.5014,-3483.6309L13523.521,-3483.7646"/>
<path content="1,高知県交通（株）,よさこい号　高知⇔大阪線,10.0,10.0,10.0," xlink:title="1" d="M13523.4894,-3483.5603L13523.5014,-3483.6309L13523.521,-3483.7646"/>
<path content="1,（株）中国バス,関西　大阪線　三次・庄原～東城・新大阪,5.0,5.0,5.0," xlink:title="1" d="M13523.5014,-3483.6309L13523.5216,-3483.7646"/>
</g>
</svg>
