<?xml version="1.0" encoding="UTF-8"?>
<svg  xmlns="http://www.w3.org/2000/svg" xmlns:xlink="http://www.w3.org/1999/xlink" xmlns:go="http://purl.org/svgmap/profile" property="N07_001,N07_002,N07_003,N07_004,N07_005,N07_006,N07_007" viewBox="13236.328125 -3458.49609375 4.39453125 4.39453125" go:dataArea="13236.328125 -3458.49609375 4.39453125 4.39453125" >
<metadata>
 <rdf:RDF xmlns:rdf="http://www.w3.org/1999/02/22-rdf-syntax-ns#" xmlns:crs="http://opengis.org/xmldtds/transformations.dtd" xmlns:svg="http://www.w3.org/svg" >
  <rdf:Description>
   <crs:CoordinateReferenceSystem rdf:resource="http://purl.org/crs/84" svg:transform="matrix(100.0,0.0,0.0,-100.0,0.0,0.0)" />
  </rdf:Description>
 </rdf:RDF>
</metadata>
<globalCoordinateSystem srsName="http://purl.org/crs/84" transform="matrix(100.0,0.0,0.0,-100.0,0.0,0.0)" />
<defs>
 <g id="p0" >
  <circle cx="0.0" cy="0.0" r="3" stroke="green" stroke-width="0.75" vector-effect="non-scaling-stroke" />
 </g>
</defs>
<g fill="none" fill-rule="evenodd" stroke="#FF00FF" stroke-width="0.75" opacity="0.5" vector-effect="non-scaling-stroke" stroke-linejoin="bevel" >
<path content="1,一畑バス（株）,福岡～出雲・松江線,1.0,1.0,1.0," xlink:title="1" d="M13240.7227,-3456.732L13240.4352,-3456.6831L13240.2204,-3456.649L13239.8492,-3456.5872L13239.6874,-3456.5626L13239.4685,-3456.5442L13239.26,-3456.535L13239.1402,-3456.5364L13239.0345,-3456.5432L13238.8528,-3456.5609L13238.6105,-3456.5961L13238.2801,-3456.6473L13238.022,-3456.6818L13237.7627,-3456.7056L13237.5909,-3456.7138L13237.387,-3456.7118L13237.3139,-3456.7067L13237.2594,-3456.6964L13237.1958,-3456.676L13236.9802,-3456.5858L13236.8018,-3456.5285L13236.595,-3456.4688L13236.3811,-3456.4183L13236.3281,-3456.409"/>
<path content="1,亀の井バス（株）,大分⇔名古屋,1.0,1.0,1.0," xlink:title="1" d="M13236.3281,-3456.409L13236.3811,-3456.4183L13236.595,-3456.4688L13236.8018,-3456.5285L13236.9802,-3456.5858L13237.1958,-3456.676L13237.2594,-3456.6964L13237.3139,-3456.7067L13237.387,-3456.7118L13237.5909,-3456.7138L13237.7627,-3456.7056L13238.022,-3456.6818L13238.2801,-3456.6473L13238.6105,-3456.5961L13238.8528,-3456.5609L13239.0345,-3456.5432L13239.1402,-3456.5364L13239.26,-3456.535L13239.4685,-3456.5442L13239.6874,-3456.5626L13239.8492,-3456.5872L13240.2204,-3456.649L13240.4352,-3456.6831L13240.7227,-3456.732"/>
<path content="1,南国交通（株）,鹿児島～大阪,1.0,1.0,1.0," xlink:title="1" d="M13236.3281,-3456.409L13236.3811,-3456.4183L13236.595,-3456.4688L13236.8018,-3456.5285L13236.9802,-3456.5858L13237.1958,-3456.676L13237.2594,-3456.6964L13237.3139,-3456.7067L13237.387,-3456.7118L13237.5909,-3456.7138L13237.7627,-3456.7056L13238.022,-3456.6818L13238.2801,-3456.6473L13238.6105,-3456.5961L13238.8528,-3456.5609L13239.0345,-3456.5432L13239.1402,-3456.5364L13239.26,-3456.535L13239.4685,-3456.5442L13239.6874,-3456.5626L13239.8492,-3456.5872L13240.2204,-3456.649L13240.4352,-3456.6831L13240.7227,-3456.732"/>
<path content="1,大分バス（株）,大分⇔名古屋,1.0,1.0,1.0," xlink:title="1" d="M13236.3281,-3456.409L13236.3811,-3456.4183L13236.595,-3456.4688L13236.8018,-3456.5285L13236.9802,-3456.5858L13237.1958,-3456.676L13237.2594,-3456.6964L13237.3139,-3456.7067L13237.387,-3456.7118L13237.5909,-3456.7138L13237.7627,-3456.7056L13238.022,-3456.6818L13238.2801,-3456.6473L13238.6105,-3456.5961L13238.8528,-3456.5609L13239.0345,-3456.5432L13239.1402,-3456.5364L13239.26,-3456.535L13239.4685,-3456.5442L13239.6874,-3456.5626L13239.8492,-3456.5872L13240.2204,-3456.649L13240.4352,-3456.6831L13240.7227,-3456.732"/>
<path content="1,大分交通（株）,大分⇔名古屋,1.0,1.0,1.0," xlink:title="1" d="M13236.3281,-3456.409L13236.3811,-3456.4183L13236.595,-3456.4688L13236.8018,-3456.5285L13236.9802,-3456.5858L13237.1958,-3456.676L13237.2594,-3456.6964L13237.3139,-3456.7067L13237.387,-3456.7118L13237.5909,-3456.7138L13237.7627,-3456.7056L13238.022,-3456.6818L13238.2801,-3456.6473L13238.6105,-3456.5961L13238.8528,-3456.5609L13239.0345,-3456.5432L13239.1402,-3456.5364L13239.26,-3456.535L13239.4685,-3456.5442L13239.6874,-3456.5626L13239.8492,-3456.5872L13240.2204,-3456.649L13240.4352,-3456.6831L13240.7227,-3456.732"/>
<path content="1,広島電鉄（株）,北方面　三段峡線（一般道経由）　その1　広島BC～古市小・佐東バイパス・可部～三段峡,7.5,7.5,7.5," xlink:title="1" d="M13240.2286,-3454.1016L13240.2287,-3454.1023L13240.2341,-3454.1178L13240.247,-3454.1423L13240.2573,-3454.1562L13240.2623,-3454.1626L13240.2763,-3454.1812L13240.3038,-3454.2076L13240.322,-3454.2243L13240.3546,-3454.2534L13240.3647,-3454.2629L13240.3935,-3454.2894L13240.4304,-3454.3252L13240.4639,-3454.3583L13240.4916,-3454.3862L13240.5213,-3454.4162L13240.5383,-3454.4373L13240.5486,-3454.456L13240.5559,-3454.4774L13240.5615,-3454.5013L13240.5629,-3454.5103L13240.5635,-3454.5265L13240.5629,-3454.5402L13240.5628,-3454.5526L13240.5614,-3454.5626L13240.5539,-3454.5875L13240.5438,-3454.6108L13240.5318,-3454.6328L13240.524,-3454.6476L13240.5124,-3454.664L13240.4924,-3454.6835L13240.4679,-3454.7038L13240.4506,-3454.7162L13240.4423,-3454.7217L13240.3983,-3454.727L13240.3536,-3454.7312L13240.2955,-3454.7365L13240.2658,-3454.7366L13240.254,-3454.7373L13240.2252,-3454.7354L13240.1972,-3454.7346L13240.1697,-3454.7312L13240.1492,-3454.7273L13240.1286,-3454.7229L13240.1052,-3454.717L13240.0774,-3454.7079L13240.0612,-3454.7046L13240.0268,-3454.693L13240.0119,-3454.6872L13239.9813,-3454.6748L13239.9467,-3454.6577L13239.9373,-3454.6516L13239.9008,-3454.6318L13239.8599,-3454.6095L13239.8044,-3454.5756L13239.7709,-3454.5557L13239.7414,-3454.5392L13239.7135,-3454.5255L13239.6805,-3454.5123L13239.659,-3454.5044L13239.6516,-3454.5016L13239.641,-3454.4995L13239.6265,-3454.4966L13239.613,-3454.4953L13239.5989,-3454.4933L13239.568,-3454.4916L13239.5461,-3454.4912L13239.5291,-3454.492L13239.5166,-3454.4974L13239.4991,-3454.5094L13239.4836,-3454.5235L13239.4756,-3454.5363L13239.4684,-3454.5547L13239.4621,-3454.5896L13239.4524,-3454.6261L13239.4441,-3454.6483L13239.4333,-3454.6847L13239.4186,-3454.7352L13239.4158,-3454.7415L13239.3857,-3454.8394L13239.3787,-3454.8638L13239.3772,-3454.8762L13239.3797,-3454.8886L13239.3877,-3454.8964L13239.3942,-3454.9014L13239.4042,-3454.9063L13239.4173,-3454.9121L13239.4386,-3454.9225L13239.4624,-3454.9317L13239.4906,-3454.9407L13239.5222,-3454.952L13239.5321,-3454.9551L13239.5421,-3454.9634L13239.5491,-3454.9717L13239.5556,-3454.9845L13239.5633,-3455.0076L13239.574,-3455.0391L13239.5874,-3455.0736L13239.5925,-3455.0899L13239.5979,-3455.1072L13239.6015,-3455.1205L13239.6045,-3455.1346L13239.6045,-3455.1487L13239.6004,-3455.1566L13239.597,-3455.1669L13239.5854,-3455.1882L13239.5621,-3455.2338L13239.5367,-3455.277L13239.5101,-3455.3306L13239.485,-3455.3779L13239.4576,-3455.4336L13239.4356,-3455.4741L13239.4313,-3455.4821L13239.4183,-3455.5124L13239.4111,-3455.5378L13239.4042,-3455.5622L13239.4017,-3455.5762L13239.3952,-3455.5928L13239.3922,-3455.6242L13239.3837,-3455.6792L13239.3804,-3455.7054L13239.3802,-3455.7172L13239.3784,-3455.7469L13239.3772,-3455.7644L13239.3794,-3455.8026L13239.3794,-3455.864L13239.3792,-3455.8752L13239.3814,-3455.9155L13239.3802,-3455.9314L13239.3797,-3455.9558L13239.3737,-3455.9802L13239.3637,-3456.0112L13239.3435,-3456.0508L13239.3387,-3456.0608L13239.3209,-3456.0952L13239.3142,-3456.1071L13239.3014,-3456.1322L13239.2962,-3456.1448L13239.2827,-3456.1654L13239.2672,-3456.1832L13239.2453,-3456.1981L13239.2248,-3456.2126L13239.195,-3456.2268L13239.1579,-3456.2409L13239.1408,-3456.2477L13239.0887,-3456.2635L13239.0624,-3456.2713L13239.0369,-3456.273L13239.0119,-3456.2738L13238.9789,-3456.2717L13238.9354,-3456.2655L13238.8785,-3456.256L13238.8055,-3456.2432L13238.7346,-3456.2237L13238.7061,-3456.2138L13238.6796,-3456.2035L13238.6576,-3456.1903L13238.6441,-3456.1778L13238.6241,-3456.153L13238.5957,-3456.1104L13238.5637,-3456.0645L13238.5502,-3456.0446L13238.5252,-3456.0067L13238.4777,-3455.9431L13238.4666,-3455.908L13238.4639,-3455.8989L13238.4542,-3455.868L13238.4498,-3455.8545L13238.4431,-3455.8303L13238.4413,-3455.8185L13238.4362,-3455.7796L13238.4393,-3455.7689L13238.4436,-3455.7563L13238.4468,-3455.7441L13238.4613,-3455.7065L13238.4786,-3455.6709L13238.4865,-3455.6564L13238.4939,-3455.6442L13238.5074,-3455.6176L13238.5206,-3455.5927L13238.5357,-3455.57L13238.54,-3455.5596L13238.5451,-3455.5428L13238.5488,-3455.5287L13238.5511,-3455.5051L13238.5478,-3455.4787L13238.5391,-3455.457L13238.5271,-3455.4399L13238.5165,-3455.4277L13238.5007,-3455.4112L13238.4869,-3455.4048L13238.4754,-3455.4048L13238.4602,-3455.4086L13238.4523,-3455.4129L13238.4243,-3455.424L13238.3848,-3455.4402L13238.3656,-3455.4482L13238.3365,-3455.4574L13238.3243,-3455.4617L13238.2849,-3455.4728L13238.2751,-3455.4757L13238.2594,-3455.4811L13238.2354,-3455.4902L13238.2229,-3455.4943L13238.2022,-3455.502L13238.1796,-3455.5054L13238.1602,-3455.5062L13238.1509,-3455.5067L13238.1348,-3455.5054L13238.1215,-3455.5031L13238.108,-3455.4997L13238.0942,-3455.4967L13238.078,-3455.4919L13238.055,-3455.4845L13238.0273,-3455.4758L13238.017,-3455.4753L13238.0042,-3455.4787L13237.991,-3455.4885L13237.9796,-3455.5047L13237.9536,-3455.5481L13237.9226,-3455.6056L13237.9012,-3455.6385L13237.9027,-3455.6545L13237.9066,-3455.6614L13237.9147,-3455.6774L13237.9323,-3455.6995L13237.9516,-3455.7238L13237.9692,-3455.7513L13237.9789,-3455.7693L13237.9938,-3455.7991L13238.0125,-3455.836L13238.0176,-3455.8577L13238.0245,-3455.889L13238.031,-3455.9206L13238.0338,-3455.9347L13238.0338,-3455.9866L13238.0181,-3456.0049L13237.9959,-3456.0403L13237.9655,-3456.0857L13237.9433,-3456.1128L13237.9222,-3456.1409L13237.9124,-3456.1536L13237.9039,-3456.1615L13237.8916,-3456.1711L13237.8649,-3456.1917L13237.8409,-3456.2073L13237.8114,-3456.2259L13237.78,-3456.2363L13237.7591,-3456.2432L13237.7227,-3456.2542L13237.6862,-3456.2645L13237.6711,-3456.2676L13237.6591,-3456.269L13237.6346,-3456.2702L13237.5997,-3456.2697L13237.588,-3456.271L13237.5465,-3456.2665L13237.5335,-3456.2653L13237.4897,-3456.2603L13237.469,-3456.2608L13237.4182,-3456.2588L13237.3017,-3456.2623L13237.2729,-3456.2652L13237.2225,-3456.2679L13237.2128,-3456.2697L13237.1557,-3456.2645L13237.1221,-3456.2581L13237.1058,-3456.2519L13237.1021,-3456.25L13237.0915,-3456.2451L13237.0548,-3456.2278L13237.0462,-3456.2218L13237.035,-3456.2176L13236.9909,-3456.1993L13236.9501,-3456.1861L13236.9073,-3456.1627L13236.8681,-3456.1402L13236.8335,-3456.1212L13236.8049,-3456.1063L13236.7661,-3456.0857L13236.7073,-3456.0537L13236.6997,-3456.0487L13236.6291,-3456.0094L13236.6106,-3455.9988L13236.6024,-3455.9973L13236.5903,-3455.9923L13236.5799,-3455.9931L13236.5433,-3455.9919L13236.5317,-3455.9923L13236.4928,-3455.9904L13236.4856,-3455.9885L13236.47,-3455.9877L13236.4362,-3455.9824L13236.4279,-3455.9824L13236.3364,-3455.9719L13236.3281,-3455.9708"/>
<path content="1,広島電鉄（株）,北方面　三段峡線（一般道経由）　可部～三段峡,1.5,1.5,1.5," xlink:title="1" d="M13240.2286,-3454.1016L13240.2287,-3454.1023L13240.2341,-3454.1178L13240.247,-3454.1423L13240.2573,-3454.1562L13240.2623,-3454.1626L13240.2763,-3454.1812L13240.3038,-3454.2076L13240.322,-3454.2243L13240.3546,-3454.2534L13240.3647,-3454.2629L13240.3935,-3454.2894L13240.4304,-3454.3252L13240.4639,-3454.3583L13240.4916,-3454.3862L13240.5213,-3454.4162L13240.5383,-3454.4373L13240.5486,-3454.456L13240.5559,-3454.4774L13240.5615,-3454.5013L13240.5629,-3454.5103L13240.5635,-3454.5265L13240.5629,-3454.5402L13240.5628,-3454.5526L13240.5614,-3454.5626L13240.5539,-3454.5875L13240.5438,-3454.6108L13240.5318,-3454.6328L13240.524,-3454.6476L13240.5124,-3454.664L13240.4924,-3454.6835L13240.4679,-3454.7038L13240.4506,-3454.7162L13240.4423,-3454.7217L13240.3983,-3454.727L13240.3536,-3454.7312L13240.2955,-3454.7365L13240.2658,-3454.7366L13240.254,-3454.7373L13240.2252,-3454.7354L13240.1972,-3454.7346L13240.1697,-3454.7312L13240.1492,-3454.7273L13240.1286,-3454.7229L13240.1052,-3454.717L13240.0774,-3454.7079L13240.0612,-3454.7046L13240.0268,-3454.693L13240.0119,-3454.6872L13239.9813,-3454.6748L13239.9467,-3454.6577L13239.9373,-3454.6516L13239.9008,-3454.6318L13239.8599,-3454.6095L13239.8044,-3454.5756L13239.7709,-3454.5557L13239.7414,-3454.5392L13239.7135,-3454.5255L13239.6805,-3454.5123L13239.659,-3454.5044L13239.6516,-3454.5016L13239.641,-3454.4995L13239.6265,-3454.4966L13239.613,-3454.4953L13239.5989,-3454.4933L13239.568,-3454.4916L13239.5461,-3454.4912L13239.5291,-3454.492L13239.5166,-3454.4974L13239.4991,-3454.5094L13239.4836,-3454.5235L13239.4756,-3454.5363L13239.4684,-3454.5547L13239.4621,-3454.5896L13239.4524,-3454.6261L13239.4441,-3454.6483L13239.4333,-3454.6847L13239.4186,-3454.7352L13239.4158,-3454.7415L13239.3857,-3454.8394L13239.3787,-3454.8638L13239.3772,-3454.8762L13239.3797,-3454.8886L13239.3877,-3454.8964L13239.3942,-3454.9014L13239.4042,-3454.9063L13239.4173,-3454.9121L13239.4386,-3454.9225L13239.4624,-3454.9317L13239.4906,-3454.9407L13239.5222,-3454.952L13239.5321,-3454.9551L13239.5421,-3454.9634L13239.5491,-3454.9717L13239.5556,-3454.9845L13239.5633,-3455.0076L13239.574,-3455.0391L13239.5874,-3455.0736L13239.5925,-3455.0899L13239.5979,-3455.1072L13239.6015,-3455.1205L13239.6045,-3455.1346L13239.6045,-3455.1487L13239.6004,-3455.1566L13239.597,-3455.1669L13239.5854,-3455.1882L13239.5621,-3455.2338L13239.5367,-3455.277L13239.5101,-3455.3306L13239.485,-3455.3779L13239.4576,-3455.4336L13239.4356,-3455.4741L13239.4313,-3455.4821L13239.4183,-3455.5124L13239.4111,-3455.5378L13239.4042,-3455.5622L13239.4017,-3455.5762L13239.3952,-3455.5928L13239.3922,-3455.6242L13239.3837,-3455.6792L13239.3804,-3455.7054L13239.3802,-3455.7172L13239.3784,-3455.7469L13239.3772,-3455.7644L13239.3794,-3455.8026L13239.3794,-3455.864L13239.3792,-3455.8752L13239.3814,-3455.9155L13239.3802,-3455.9314L13239.3797,-3455.9558L13239.3737,-3455.9802L13239.3637,-3456.0112L13239.3435,-3456.0508L13239.3387,-3456.0608L13239.3209,-3456.0952L13239.3142,-3456.1071L13239.3014,-3456.1322L13239.2962,-3456.1448L13239.2827,-3456.1654L13239.2672,-3456.1832L13239.2453,-3456.1981L13239.2248,-3456.2126L13239.195,-3456.2268L13239.1579,-3456.2409L13239.1408,-3456.2477L13239.0887,-3456.2635L13239.0624,-3456.2713L13239.0369,-3456.273L13239.0119,-3456.2738L13238.9789,-3456.2717L13238.9354,-3456.2655L13238.8785,-3456.256L13238.8055,-3456.2432L13238.7346,-3456.2237L13238.7061,-3456.2138L13238.6796,-3456.2035L13238.6576,-3456.1903L13238.6441,-3456.1778L13238.6241,-3456.153L13238.5957,-3456.1104L13238.5637,-3456.0645L13238.5502,-3456.0446L13238.5252,-3456.0067L13238.4777,-3455.9431L13238.4666,-3455.908L13238.4639,-3455.8989L13238.4542,-3455.868L13238.4498,-3455.8545L13238.4431,-3455.8303L13238.4413,-3455.8185L13238.4362,-3455.7796L13238.4393,-3455.7689L13238.4436,-3455.7563L13238.4468,-3455.7441L13238.4613,-3455.7065L13238.4786,-3455.6709L13238.4865,-3455.6564L13238.4939,-3455.6442L13238.5074,-3455.6176L13238.5206,-3455.5927L13238.5357,-3455.57L13238.54,-3455.5596L13238.5451,-3455.5428L13238.5488,-3455.5287L13238.5511,-3455.5051L13238.5478,-3455.4787L13238.5391,-3455.457L13238.5271,-3455.4399L13238.5165,-3455.4277L13238.5007,-3455.4112L13238.4869,-3455.4048L13238.4754,-3455.4048L13238.4602,-3455.4086L13238.4523,-3455.4129L13238.4243,-3455.424L13238.3848,-3455.4402L13238.3656,-3455.4482L13238.3365,-3455.4574L13238.3243,-3455.4617L13238.2849,-3455.4728L13238.2751,-3455.4757L13238.2594,-3455.4811L13238.2354,-3455.4902L13238.2229,-3455.4943L13238.2022,-3455.502L13238.1796,-3455.5054L13238.1602,-3455.5062L13238.1509,-3455.5067L13238.1348,-3455.5054L13238.1215,-3455.5031L13238.108,-3455.4997L13238.0942,-3455.4967L13238.078,-3455.4919L13238.055,-3455.4845L13238.0273,-3455.4758L13238.017,-3455.4753L13238.0042,-3455.4787L13237.991,-3455.4885L13237.9796,-3455.5047L13237.9536,-3455.5481L13237.9226,-3455.6056L13237.9012,-3455.6385L13237.9027,-3455.6545L13237.9066,-3455.6614L13237.9147,-3455.6774L13237.9323,-3455.6995L13237.9516,-3455.7238L13237.9692,-3455.7513L13237.9789,-3455.7693L13237.9938,-3455.7991L13238.0125,-3455.836L13238.0176,-3455.8577L13238.0245,-3455.889L13238.031,-3455.9206L13238.0338,-3455.9347L13238.0338,-3455.9866L13238.0181,-3456.0049L13237.9959,-3456.0403L13237.9655,-3456.0857L13237.9433,-3456.1128L13237.9222,-3456.1409L13237.9124,-3456.1536L13237.9039,-3456.1615L13237.8916,-3456.1711L13237.8649,-3456.1917L13237.8409,-3456.2073L13237.8114,-3456.2259L13237.78,-3456.2363L13237.7591,-3456.2432L13237.7227,-3456.2542L13237.6862,-3456.2645L13237.6711,-3456.2676L13237.6591,-3456.269L13237.6346,-3456.2702L13237.5997,-3456.2697L13237.588,-3456.271L13237.5465,-3456.2665L13237.5335,-3456.2653L13237.4897,-3456.2603L13237.469,-3456.2608L13237.4182,-3456.2588L13237.3017,-3456.2623L13237.2729,-3456.2652L13237.2225,-3456.2679L13237.2128,-3456.2697L13237.1557,-3456.2645L13237.1221,-3456.2581L13237.1058,-3456.2519L13237.1021,-3456.25L13237.0915,-3456.2451L13237.0548,-3456.2278L13237.0462,-3456.2218L13237.035,-3456.2176L13236.9909,-3456.1993L13236.9501,-3456.1861L13236.9073,-3456.1627L13236.8681,-3456.1402L13236.8335,-3456.1212L13236.8049,-3456.1063L13236.7661,-3456.0857L13236.7073,-3456.0537L13236.6997,-3456.0487L13236.6291,-3456.0094L13236.6106,-3455.9988L13236.6024,-3455.9973L13236.5903,-3455.9923L13236.5799,-3455.9931L13236.5433,-3455.9919L13236.5317,-3455.9923L13236.4928,-3455.9904L13236.4856,-3455.9885L13236.47,-3455.9877L13236.4362,-3455.9824L13236.4279,-3455.9824L13236.3364,-3455.9719L13236.3281,-3455.9708"/>
<path content="1,広島電鉄（株）,北方面　三段峡線（高速道経由）　広島センター～古市・高速～三段峡,4.0,4.0,4.0," xlink:title="1" d="M13240.2286,-3454.1016L13240.2287,-3454.1023L13240.2341,-3454.1178L13240.247,-3454.1423L13240.2573,-3454.1562L13240.2623,-3454.1626L13240.2763,-3454.1812L13240.3038,-3454.2076L13240.322,-3454.2243L13240.3546,-3454.2534L13240.3647,-3454.2629L13240.3935,-3454.2894L13240.4304,-3454.3252L13240.4639,-3454.3583L13240.4916,-3454.3862L13240.5213,-3454.4162L13240.5383,-3454.4373L13240.5486,-3454.456L13240.5559,-3454.4774L13240.5615,-3454.5013L13240.5629,-3454.5103L13240.5635,-3454.5265L13240.5629,-3454.5402L13240.5628,-3454.5526L13240.5614,-3454.5626L13240.5539,-3454.5875L13240.5438,-3454.6108L13240.5318,-3454.6328L13240.524,-3454.6476L13240.5124,-3454.664L13240.4924,-3454.6835L13240.4679,-3454.7038L13240.4506,-3454.7162L13240.4423,-3454.7217L13240.3983,-3454.727L13240.3536,-3454.7312L13240.2955,-3454.7365L13240.2658,-3454.7366L13240.254,-3454.7373L13240.2252,-3454.7354L13240.1972,-3454.7346L13240.1697,-3454.7312L13240.1492,-3454.7273L13240.1286,-3454.7229L13240.1052,-3454.717L13240.0774,-3454.7079L13240.0612,-3454.7046L13240.0268,-3454.693L13240.0119,-3454.6872L13239.9813,-3454.6748L13239.9467,-3454.6577L13239.9373,-3454.6516L13239.9008,-3454.6318L13239.8599,-3454.6095L13239.8044,-3454.5756L13239.7709,-3454.5557L13239.7414,-3454.5392L13239.7135,-3454.5255L13239.6805,-3454.5123L13239.659,-3454.5044L13239.6516,-3454.5016L13239.641,-3454.4995L13239.6265,-3454.4966L13239.613,-3454.4953L13239.5989,-3454.4933L13239.568,-3454.4916L13239.5461,-3454.4912L13239.5291,-3454.492L13239.5166,-3454.4974L13239.4991,-3454.5094L13239.4836,-3454.5235L13239.4756,-3454.5363L13239.4684,-3454.5547L13239.4621,-3454.5896L13239.4524,-3454.6261L13239.4441,-3454.6483L13239.4333,-3454.6847L13239.4186,-3454.7352L13239.4158,-3454.7415L13239.3857,-3454.8394L13239.3787,-3454.8638L13239.3772,-3454.8762L13239.3797,-3454.8886L13239.3877,-3454.8964L13239.3942,-3454.9014L13239.4042,-3454.9063L13239.4173,-3454.9121L13239.4386,-3454.9225L13239.4624,-3454.9317L13239.4906,-3454.9407L13239.5222,-3454.952L13239.5321,-3454.9551L13239.5421,-3454.9634L13239.5491,-3454.9717L13239.5556,-3454.9845L13239.5633,-3455.0076L13239.574,-3455.0391L13239.5874,-3455.0736L13239.5925,-3455.0899L13239.5979,-3455.1072L13239.6015,-3455.1205L13239.6045,-3455.1346L13239.6045,-3455.1487L13239.6004,-3455.1566L13239.597,-3455.1669L13239.5854,-3455.1882L13239.5621,-3455.2338L13239.5367,-3455.277L13239.5101,-3455.3306L13239.485,-3455.3779L13239.4576,-3455.4336L13239.4356,-3455.4741L13239.4313,-3455.4821L13239.4183,-3455.5124L13239.4111,-3455.5378L13239.4042,-3455.5622L13239.4017,-3455.5762L13239.3952,-3455.5928L13239.3922,-3455.6242L13239.3837,-3455.6792L13239.3804,-3455.7054L13239.3802,-3455.7172L13239.3784,-3455.7469L13239.3772,-3455.7644L13239.3794,-3455.8026L13239.3794,-3455.864L13239.3792,-3455.8752L13239.3814,-3455.9155L13239.3802,-3455.9314L13239.3797,-3455.9558L13239.3737,-3455.9802L13239.3637,-3456.0112L13239.3435,-3456.0508L13239.3387,-3456.0608L13239.3209,-3456.0952L13239.3142,-3456.1071L13239.3014,-3456.1322L13239.2962,-3456.1448L13239.2827,-3456.1654L13239.2672,-3456.1832L13239.2453,-3456.1981L13239.2248,-3456.2126L13239.195,-3456.2268L13239.1579,-3456.2409L13239.1408,-3456.2477L13239.0887,-3456.2635L13239.0624,-3456.2713L13239.0369,-3456.273L13239.0119,-3456.2738L13238.9789,-3456.2717L13238.9354,-3456.2655L13238.8785,-3456.256L13238.8055,-3456.2432L13238.7346,-3456.2237L13238.7061,-3456.2138L13238.6796,-3456.2035L13238.6576,-3456.1903L13238.6441,-3456.1778L13238.6241,-3456.153L13238.5957,-3456.1104L13238.5637,-3456.0645L13238.5502,-3456.0446L13238.5252,-3456.0067L13238.4777,-3455.9431L13238.4666,-3455.908L13238.4639,-3455.8989L13238.4542,-3455.868L13238.4498,-3455.8545L13238.4431,-3455.8303L13238.4413,-3455.8185L13238.4362,-3455.7796L13238.4393,-3455.7689L13238.4436,-3455.7563L13238.4468,-3455.7441L13238.4613,-3455.7065L13238.4786,-3455.6709L13238.4865,-3455.6564L13238.4939,-3455.6442L13238.5074,-3455.6176L13238.5206,-3455.5927L13238.5357,-3455.57L13238.54,-3455.5596L13238.5451,-3455.5428L13238.5488,-3455.5287L13238.5511,-3455.5051L13238.5478,-3455.4787L13238.5391,-3455.457L13238.5271,-3455.4399L13238.5165,-3455.4277L13238.5007,-3455.4112L13238.4869,-3455.4048L13238.4754,-3455.4048L13238.4602,-3455.4086L13238.4523,-3455.4129L13238.4243,-3455.424L13238.3848,-3455.4402L13238.3656,-3455.4482L13238.3365,-3455.4574L13238.3243,-3455.4617L13238.2849,-3455.4728L13238.2751,-3455.4757L13238.2594,-3455.4811L13238.2354,-3455.4902L13238.2229,-3455.4943L13238.2022,-3455.502L13238.1796,-3455.5054L13238.1602,-3455.5062L13238.1509,-3455.5067L13238.1348,-3455.5054L13238.1215,-3455.5031L13238.108,-3455.4997L13238.0942,-3455.4967L13238.078,-3455.4919L13238.055,-3455.4845L13238.0273,-3455.4758L13238.017,-3455.4753L13238.0042,-3455.4787L13237.991,-3455.4885L13237.9796,-3455.5047L13237.9536,-3455.5481L13237.9226,-3455.6056L13237.9012,-3455.6385L13237.9027,-3455.6545L13237.9066,-3455.6614L13237.9147,-3455.6774L13237.9323,-3455.6995L13237.9516,-3455.7238L13237.9692,-3455.7513L13237.9789,-3455.7693L13237.9938,-3455.7991L13238.0125,-3455.836L13238.0176,-3455.8577L13238.0245,-3455.889L13238.031,-3455.9206L13238.0338,-3455.9347L13238.0338,-3455.9866L13238.0181,-3456.0049L13237.9959,-3456.0403L13237.9655,-3456.0857L13237.9433,-3456.1128L13237.9222,-3456.1409L13237.9124,-3456.1536L13237.9039,-3456.1615L13237.8916,-3456.1711L13237.8649,-3456.1917L13237.8409,-3456.2073L13237.8114,-3456.2259L13237.78,-3456.2363L13237.7591,-3456.2432L13237.7227,-3456.2542L13237.6862,-3456.2645L13237.6711,-3456.2676L13237.6591,-3456.269L13237.6346,-3456.2702L13237.5997,-3456.2697L13237.588,-3456.271L13237.5465,-3456.2665L13237.5335,-3456.2653L13237.4897,-3456.2603L13237.469,-3456.2608L13237.4182,-3456.2588L13237.3017,-3456.2623L13237.2729,-3456.2652L13237.2225,-3456.2679L13237.2128,-3456.2697L13237.1557,-3456.2645L13237.1221,-3456.2581L13237.1058,-3456.2519L13237.1021,-3456.25L13237.0915,-3456.2451L13237.0548,-3456.2278L13237.0462,-3456.2218L13237.035,-3456.2176L13236.9909,-3456.1993L13236.9501,-3456.1861L13236.9073,-3456.1627L13236.8681,-3456.1402L13236.8335,-3456.1212L13236.8049,-3456.1063L13236.7661,-3456.0857L13236.7073,-3456.0537L13236.6997,-3456.0487L13236.6291,-3456.0094L13236.6106,-3455.9988L13236.6024,-3455.9973L13236.5903,-3455.9923L13236.5799,-3455.9931L13236.5433,-3455.9919L13236.5317,-3455.9923L13236.4928,-3455.9904L13236.4856,-3455.9885L13236.47,-3455.9877L13236.4362,-3455.9824L13236.4279,-3455.9824L13236.3364,-3455.9719L13236.3281,-3455.9708"/>
<path content="1,広島電鉄（株）,北方面　上根・吉田線　広島センター～吉田（高速道経由）,0.0,1.0,0.0," xlink:title="1" d="M13240.2286,-3454.1016L13240.2287,-3454.1023L13240.2341,-3454.1178L13240.247,-3454.1423L13240.2573,-3454.1562L13240.2623,-3454.1626L13240.2763,-3454.1812L13240.3038,-3454.2076L13240.322,-3454.2243L13240.3546,-3454.2534L13240.3647,-3454.2629L13240.3935,-3454.2894L13240.4304,-3454.3252L13240.4639,-3454.3583L13240.4916,-3454.3862L13240.5213,-3454.4162L13240.5383,-3454.4373L13240.5486,-3454.456L13240.5559,-3454.4774L13240.5615,-3454.5013L13240.5629,-3454.5103L13240.5635,-3454.5265L13240.5629,-3454.5402L13240.5628,-3454.5526L13240.5614,-3454.5626L13240.5539,-3454.5875L13240.5438,-3454.6108L13240.5318,-3454.6328L13240.524,-3454.6476L13240.5124,-3454.664L13240.4924,-3454.6835L13240.4679,-3454.7038L13240.4506,-3454.7162L13240.4423,-3454.7217L13240.3983,-3454.727L13240.3536,-3454.7312L13240.2955,-3454.7365L13240.2658,-3454.7366L13240.254,-3454.7373L13240.2252,-3454.7354L13240.1972,-3454.7346L13240.1697,-3454.7312L13240.1492,-3454.7273L13240.1286,-3454.7229L13240.1052,-3454.717L13240.0774,-3454.7079L13240.0612,-3454.7046L13240.0268,-3454.693L13240.0119,-3454.6872L13239.9813,-3454.6748L13239.9467,-3454.6577L13239.9373,-3454.6516L13239.9008,-3454.6318L13239.8599,-3454.6095L13239.8044,-3454.5756L13239.7709,-3454.5557L13239.7414,-3454.5392L13239.7135,-3454.5255L13239.6805,-3454.5123L13239.659,-3454.5044L13239.6516,-3454.5016L13239.641,-3454.4995L13239.6265,-3454.4966L13239.613,-3454.4953L13239.5989,-3454.4933L13239.568,-3454.4916L13239.5461,-3454.4912L13239.5291,-3454.492L13239.5166,-3454.4974L13239.4991,-3454.5094L13239.4836,-3454.5235L13239.4756,-3454.5363L13239.4684,-3454.5547L13239.4621,-3454.5896L13239.4524,-3454.6261L13239.4441,-3454.6483L13239.4333,-3454.6847L13239.4186,-3454.7352L13239.4158,-3454.7415L13239.3857,-3454.8394L13239.3787,-3454.8638L13239.3772,-3454.8762L13239.3797,-3454.8886L13239.3877,-3454.8964L13239.3942,-3454.9014L13239.4042,-3454.9063L13239.4173,-3454.9121L13239.4386,-3454.9225L13239.4624,-3454.9317L13239.4906,-3454.9407L13239.5222,-3454.952L13239.5321,-3454.9551L13239.5421,-3454.9634L13239.5491,-3454.9717L13239.5556,-3454.9845L13239.5633,-3455.0076L13239.574,-3455.0391L13239.5874,-3455.0736L13239.5925,-3455.0899L13239.5979,-3455.1072L13239.6015,-3455.1205L13239.6045,-3455.1346L13239.6045,-3455.1487L13239.6004,-3455.1566L13239.597,-3455.1669L13239.5854,-3455.1882L13239.5621,-3455.2338L13239.5367,-3455.277L13239.5101,-3455.3306L13239.485,-3455.3779L13239.4576,-3455.4336L13239.4356,-3455.4741L13239.4313,-3455.4821L13239.4183,-3455.5124L13239.4111,-3455.5378L13239.4042,-3455.5622L13239.4017,-3455.5762L13239.3952,-3455.5928L13239.3922,-3455.6242L13239.3837,-3455.6792L13239.3804,-3455.7054L13239.3802,-3455.7172L13239.3784,-3455.7469L13239.3772,-3455.7644L13239.3794,-3455.8026L13239.3794,-3455.864L13239.3792,-3455.8752L13239.3814,-3455.9155L13239.3802,-3455.9314L13239.3797,-3455.9558L13239.3737,-3455.9802L13239.3637,-3456.0112L13239.3435,-3456.0508L13239.3387,-3456.0608L13239.3209,-3456.0952L13239.3142,-3456.1071L13239.3014,-3456.1322L13239.2962,-3456.1448L13239.2827,-3456.1654L13239.2672,-3456.1832L13239.2453,-3456.1981L13239.2248,-3456.2126L13239.195,-3456.2268L13239.1579,-3456.2409L13239.1408,-3456.2477L13239.0887,-3456.2635L13239.0624,-3456.2713L13239.0369,-3456.273L13239.0119,-3456.2738L13238.9789,-3456.2717L13238.9354,-3456.2655L13238.8785,-3456.256L13238.8055,-3456.2432L13238.7346,-3456.2237L13238.7061,-3456.2138L13238.6796,-3456.2035L13238.6576,-3456.1903L13238.6441,-3456.1778L13238.6241,-3456.153L13238.5957,-3456.1104L13238.5637,-3456.0645L13238.5502,-3456.0446L13238.5252,-3456.0067L13238.4777,-3455.9431L13238.4666,-3455.908L13238.4639,-3455.8989L13238.4542,-3455.868L13238.4498,-3455.8545L13238.4431,-3455.8303L13238.4413,-3455.8185L13238.4362,-3455.7796L13238.4393,-3455.7689L13238.4436,-3455.7563L13238.4468,-3455.7441L13238.4613,-3455.7065L13238.4786,-3455.6709L13238.4865,-3455.6564L13238.4939,-3455.6442L13238.5074,-3455.6176L13238.5206,-3455.5927L13238.5357,-3455.57L13238.54,-3455.5596L13238.5451,-3455.5428L13238.5488,-3455.5287L13238.5511,-3455.5051L13238.5478,-3455.4787L13238.5391,-3455.457L13238.5271,-3455.4399L13238.5165,-3455.4277L13238.5007,-3455.4112L13238.4869,-3455.4048L13238.4754,-3455.4048L13238.4602,-3455.4086L13238.4523,-3455.4129L13238.4243,-3455.424L13238.3848,-3455.4402L13238.3656,-3455.4482L13238.3365,-3455.4574L13238.3243,-3455.4617L13238.2849,-3455.4728L13238.2751,-3455.4757L13238.2594,-3455.4811L13238.2354,-3455.4902L13238.2229,-3455.4943L13238.2022,-3455.502L13238.1796,-3455.5054L13238.1602,-3455.5062L13238.1509,-3455.5067L13238.1348,-3455.5054L13238.1215,-3455.5031L13238.108,-3455.4997L13238.0942,-3455.4967L13238.078,-3455.4919L13238.055,-3455.4845L13238.0273,-3455.4758L13238.017,-3455.4753L13238.0042,-3455.4787L13237.991,-3455.4885L13237.9796,-3455.5047L13237.9536,-3455.5481L13237.9226,-3455.6056L13237.9012,-3455.6385L13237.9027,-3455.6545L13237.9066,-3455.6614L13237.9147,-3455.6774L13237.9323,-3455.6995L13237.9516,-3455.7238L13237.9692,-3455.7513L13237.9789,-3455.7693L13237.9938,-3455.7991L13238.0125,-3455.836L13238.0176,-3455.8577L13238.0245,-3455.889L13238.031,-3455.9206L13238.0338,-3455.9347L13238.0338,-3455.9866L13238.0181,-3456.0049L13237.9959,-3456.0403L13237.9655,-3456.0857L13237.9433,-3456.1128L13237.9222,-3456.1409L13237.9124,-3456.1536L13237.9039,-3456.1615L13237.8916,-3456.1711L13237.8649,-3456.1917L13237.8409,-3456.2073L13237.8114,-3456.2259L13237.78,-3456.2363L13237.7591,-3456.2432L13237.7227,-3456.2542L13237.6862,-3456.2645L13237.6711,-3456.2676L13237.6591,-3456.269L13237.6346,-3456.2702L13237.5997,-3456.2697L13237.588,-3456.271L13237.5465,-3456.2665L13237.5335,-3456.2653L13237.4897,-3456.2603L13237.469,-3456.2608L13237.4182,-3456.2588L13237.3017,-3456.2623L13237.2729,-3456.2652L13237.2225,-3456.2679L13237.2128,-3456.2697L13237.1557,-3456.2645L13237.1221,-3456.2581L13237.1058,-3456.2519L13237.1021,-3456.25L13237.0915,-3456.2451L13237.0548,-3456.2278L13237.0462,-3456.2218L13237.035,-3456.2176L13236.9909,-3456.1993L13236.9501,-3456.1861L13236.9073,-3456.1627L13236.8681,-3456.1402L13236.8335,-3456.1212L13236.8049,-3456.1063L13236.7661,-3456.0857L13236.7073,-3456.0537L13236.6997,-3456.0487L13236.6291,-3456.0094L13236.6106,-3455.9988L13236.6024,-3455.9973L13236.5903,-3455.9923L13236.5799,-3455.9931L13236.5433,-3455.9919L13236.5317,-3455.9923L13236.4928,-3455.9904L13236.4856,-3455.9885L13236.47,-3455.9877L13236.4362,-3455.9824L13236.4279,-3455.9824L13236.3364,-3455.9719L13236.3281,-3455.9708"/>
<path content="1,広島電鉄（株）,北方面　今吉田線　安佐営業所～今吉田,5.0,5.0,2.0," xlink:title="1" d="M13240.2286,-3454.1016L13240.2287,-3454.1023L13240.2341,-3454.1178L13240.247,-3454.1423L13240.2573,-3454.1562L13240.2623,-3454.1626L13240.2763,-3454.1812L13240.3038,-3454.2076L13240.322,-3454.2243L13240.3546,-3454.2534L13240.3647,-3454.2629L13240.3935,-3454.2894L13240.4304,-3454.3252L13240.4639,-3454.3583L13240.4916,-3454.3862L13240.5213,-3454.4162L13240.5383,-3454.4373L13240.5486,-3454.456L13240.5559,-3454.4774L13240.5615,-3454.5013L13240.5629,-3454.5103L13240.5635,-3454.5265L13240.5629,-3454.5402L13240.5628,-3454.5526L13240.5614,-3454.5626L13240.5539,-3454.5875L13240.5438,-3454.6108L13240.5318,-3454.6328L13240.524,-3454.6476L13240.5124,-3454.664L13240.4924,-3454.6835L13240.4679,-3454.7038L13240.4506,-3454.7162L13240.4423,-3454.7217L13240.3983,-3454.727L13240.3536,-3454.7312L13240.2955,-3454.7365L13240.2658,-3454.7366L13240.254,-3454.7373L13240.2252,-3454.7354L13240.1972,-3454.7346L13240.1873,-3454.7656L13240.1743,-3454.8026L13240.166,-3454.8314L13240.158,-3454.8531L13240.1471,-3454.8792L13240.1371,-3454.8957L13240.1282,-3454.9102L13240.1142,-3454.9272L13240.0999,-3454.9448L13240.0896,-3454.9566L13240.0787,-3454.9681L13240.0634,-3454.9794L13240.0461,-3454.9906L13240.0292,-3455.0019L13240.0116,-3455.0137L13240.0026,-3455.0225L13239.9923,-3455.0359L13239.9781,-3455.0579L13239.9522,-3455.1045L13239.9219,-3455.1564L13239.9199,-3455.1684L13239.9262,-3455.1792L13239.9326,-3455.1904L13239.9448,-3455.2069L13239.9671,-3455.2426L13239.992,-3455.2871L13240.0064,-3455.3103L13240.0142,-3455.3252L13240.0179,-3455.3366L13240.0193,-3455.3481L13240.0193,-3455.3595L13240.0175,-3455.3694L13240.0124,-3455.3808L13240.0087,-3455.3881L13239.9995,-3455.3995L13239.9898,-3455.4098L13239.9807,-3455.4213L13239.9634,-3455.4399L13239.9346,-3455.4657L13239.9116,-3455.4888L13239.9063,-3455.4981L13239.9063,-3455.5069L13239.909,-3455.5168L13239.9183,-3455.5253L13239.9319,-3455.533L13239.9578,-3455.5396L13240.0086,-3455.5497L13240.0597,-3455.5601L13240.0734,-3455.564L13240.0833,-3455.5698L13240.0903,-3455.5777L13240.0983,-3455.5931L13240.1089,-3455.6183L13240.1175,-3455.6312L13240.1318,-3455.6499L13240.1647,-3455.6848L13240.1843,-3455.7029L13240.2274,-3455.7454L13240.2457,-3455.7622L13240.264,-3455.7819L13240.2776,-3455.8041L13240.2862,-3455.8212L13240.2885,-3455.8368L13240.2872,-3455.8527L13240.2872,-3455.8859L13240.2889,-3455.9161L13240.2899,-3455.9302L13240.2988,-3455.9458L13240.3135,-3455.965L13240.334,-3455.9883L13240.3576,-3456.0119L13240.3845,-3456.038L13240.3935,-3456.0525L13240.3995,-3456.0687L13240.4005,-3456.0805L13240.3988,-3456.0912L13240.3915,-3456.1033L13240.3832,-3456.1121L13240.3742,-3456.117L13240.3619,-3456.1203L13240.347,-3456.1217L13240.3247,-3456.1217L13240.2949,-3456.1192L13240.2806,-3456.1181L13240.2666,-3456.1203L13240.2587,-3456.1253L13240.251,-3456.1346L13240.2367,-3456.159L13240.2158,-3456.1909L13240.2032,-3456.2139L13240.1992,-3456.2263L13240.1995,-3456.2367L13240.2052,-3456.2447L13240.2158,-3456.2507L13240.2334,-3456.2526L13240.2603,-3456.2499L13240.2925,-3456.2477L13240.3118,-3456.2474L13240.3264,-3456.2493L13240.3354,-3456.2556L13240.345,-3456.2735L13240.349,-3456.2919L13240.349,-3456.307L13240.348,-3456.3201L13240.3418,-3456.3313L13240.3354,-3456.3422L13240.3251,-3456.3502L13240.3138,-3456.3584L13240.2892,-3456.3735L13240.2693,-3456.3856L13240.26,-3456.3947L13240.253,-3456.4051L13240.2494,-3456.4161L13240.248,-3456.4303L13240.2527,-3456.4537L13240.2636,-3456.4891L13240.2832,-3456.5481L13240.2945,-3456.5665L13240.3042,-3456.5761L13240.3131,-3456.5799L13240.3218,-3456.5802L13240.3287,-3456.5772L13240.335,-3456.5714L13240.3374,-3456.5604L13240.34,-3456.539L13240.342,-3456.5228L13240.3473,-3456.5129L13240.3579,-3456.5033L13240.3696,-3456.4968L13240.3885,-3456.4929L13240.4041,-3456.4943L13240.4217,-3456.5L13240.4403,-3456.5097L13240.4509,-3456.5212L13240.4582,-3456.5342L13240.4835,-3456.5736L13240.5094,-3456.6134L13240.526,-3456.6422L13240.5409,-3456.6606L13240.5542,-3456.6702L13240.5673,-3456.6755L13240.5895,-3456.6826L13240.6158,-3456.6903L13240.6343,-3456.6958L13240.6739,-3456.7032L13240.6865,-3456.7101L13240.6918,-3456.7186L13240.6991,-3456.7323L13240.7044,-3456.7551L13240.7032,-3456.7704L13240.7087,-3456.7979L13240.7167,-3456.8676L13240.7227,-3456.9122M13240.7227,-3456.9573L13240.7054,-3456.9738L13240.6921,-3456.9842L13240.6835,-3456.9906L13240.6715,-3456.9982L13240.6622,-3457.0024L13240.65,-3457.0078L13240.6307,-3457.0164L13240.5955,-3457.0339L13240.5812,-3457.0435L13240.5742,-3457.0507L13240.5679,-3457.0614L13240.5626,-3457.0776L13240.5573,-3457.0905L13240.5553,-3457.1001L13240.5566,-3457.1094L13240.562,-3457.1187L13240.5699,-3457.1275L13240.5776,-3457.1349L13240.5892,-3457.1421L13240.6068,-3457.1489L13240.6314,-3457.158L13240.6477,-3457.1656L13240.6606,-3457.1681L13240.6795,-3457.1712L13240.7061,-3457.175L13240.7227,-3457.1773"/>
<path content="1,広島電鉄（株）,広島～益田,1.0,1.0,1.0," xlink:title="1" d="M13236.3281,-3456.409L13236.3811,-3456.4183L13236.595,-3456.4688L13236.8018,-3456.5285L13236.9802,-3456.5858L13237.1958,-3456.676L13237.2594,-3456.6964L13237.3139,-3456.7067L13237.387,-3456.7118L13237.5909,-3456.7138L13237.7627,-3456.7056L13238.022,-3456.6818L13238.2801,-3456.6473L13238.6105,-3456.5961L13238.8528,-3456.5609L13239.0345,-3456.5432L13239.1402,-3456.5364L13239.26,-3456.535L13239.4685,-3456.5442L13239.6874,-3456.5626L13239.8492,-3456.5872L13240.2204,-3456.649L13240.4352,-3456.6831L13240.7227,-3456.732"/>
<path content="1,石見交通（株）,新広浜線,1.0,1.0,1.0," xlink:title="1" d="M13236.3281,-3456.409L13236.3811,-3456.4183L13236.595,-3456.4688L13236.8018,-3456.5285L13236.9802,-3456.5858L13237.1958,-3456.676L13237.2594,-3456.6964L13237.3139,-3456.7067L13237.387,-3456.7118L13237.5909,-3456.7138L13237.7627,-3456.7056L13238.022,-3456.6818L13238.2801,-3456.6473L13238.6105,-3456.5961L13238.8528,-3456.5609L13239.0345,-3456.5432L13239.1402,-3456.5364L13239.26,-3456.535L13239.4685,-3456.5442L13239.6874,-3456.5626L13239.8492,-3456.5872L13240.2204,-3456.649L13240.4352,-3456.6831L13240.7227,-3456.732"/>
<path content="1,石見交通（株）,新広益線,2.0,2.0,2.0," xlink:title="1" d="M13236.3281,-3456.4091L13236.3816,-3456.4184L13236.5955,-3456.469L13236.8023,-3456.5287L13236.9807,-3456.586L13237.1963,-3456.6761L13237.2599,-3456.6966L13237.3144,-3456.7069L13237.3874,-3456.712L13237.5914,-3456.714L13237.7632,-3456.7058L13238.0225,-3456.6819L13238.2806,-3456.6475L13238.6109,-3456.5963L13238.8533,-3456.5611L13239.035,-3456.5434L13239.1407,-3456.5365L13239.2605,-3456.5352L13239.469,-3456.5444L13239.6878,-3456.5628L13239.8497,-3456.5874L13240.2209,-3456.6492L13240.4357,-3456.6833L13240.7227,-3456.7321"/>
<path content="1,第一タクシー（株）,久地線（飯室線（久地経由））,17.5,0.0,0.0," xlink:title="1" d="M13240.2286,-3454.1016L13240.2287,-3454.1023L13240.2341,-3454.1178L13240.247,-3454.1423L13240.2573,-3454.1562L13240.2623,-3454.1626L13240.2763,-3454.1812L13240.3038,-3454.2076L13240.322,-3454.2243L13240.3546,-3454.2534L13240.3647,-3454.2629L13240.3935,-3454.2894L13240.4304,-3454.3252L13240.4639,-3454.3583L13240.4916,-3454.3862L13240.5213,-3454.4162L13240.5383,-3454.4373L13240.5486,-3454.456L13240.5559,-3454.4774L13240.5615,-3454.5013L13240.5629,-3454.5103L13240.5635,-3454.5265L13240.5629,-3454.5402L13240.5628,-3454.5526L13240.5614,-3454.5626L13240.5539,-3454.5875L13240.5438,-3454.6108L13240.5318,-3454.6328L13240.524,-3454.6476L13240.5124,-3454.664L13240.4924,-3454.6835L13240.4679,-3454.7038L13240.4506,-3454.7162L13240.4423,-3454.7217L13240.3983,-3454.727L13240.3536,-3454.7312L13240.2955,-3454.7365L13240.2658,-3454.7366L13240.254,-3454.7373L13240.2252,-3454.7354L13240.1972,-3454.7346L13240.1697,-3454.7312L13240.1492,-3454.7273L13240.1286,-3454.7229L13240.1052,-3454.717L13240.0774,-3454.7079L13240.0612,-3454.7046L13240.0268,-3454.693L13240.0119,-3454.6872L13239.9813,-3454.6748L13239.9467,-3454.6577L13239.9373,-3454.6516L13239.9008,-3454.6318L13239.8599,-3454.6095L13239.8044,-3454.5756L13239.7709,-3454.5557L13239.7414,-3454.5392L13239.7135,-3454.5255L13239.6805,-3454.5123L13239.659,-3454.5044L13239.6516,-3454.5016L13239.641,-3454.4995L13239.6265,-3454.4966L13239.613,-3454.4953L13239.5989,-3454.4933L13239.568,-3454.4916L13239.5461,-3454.4912L13239.5291,-3454.492L13239.5166,-3454.4974L13239.4991,-3454.5094L13239.4836,-3454.5235L13239.4756,-3454.5363L13239.4684,-3454.5547L13239.4621,-3454.5896L13239.4524,-3454.6261L13239.4441,-3454.6483L13239.4333,-3454.6847L13239.4186,-3454.7352L13239.4158,-3454.7415L13239.3857,-3454.8394L13239.3787,-3454.8638L13239.3772,-3454.8762L13239.3797,-3454.8886L13239.3877,-3454.8964L13239.3942,-3454.9014L13239.4042,-3454.9063L13239.4173,-3454.9121L13239.4386,-3454.9225L13239.4624,-3454.9317L13239.4906,-3454.9407L13239.5222,-3454.952L13239.5321,-3454.9551L13239.5421,-3454.9634L13239.5491,-3454.9717L13239.5556,-3454.9845L13239.5633,-3455.0076L13239.574,-3455.0391L13239.5874,-3455.0736L13239.5925,-3455.0899L13239.5979,-3455.1072L13239.6015,-3455.1205L13239.6045,-3455.1346L13239.6045,-3455.1487L13239.6004,-3455.1566L13239.597,-3455.1669L13239.5854,-3455.1882L13239.5621,-3455.2338L13239.5367,-3455.277L13239.5101,-3455.3306L13239.485,-3455.3779L13239.4576,-3455.4336L13239.4356,-3455.4741L13239.4313,-3455.4821L13239.4183,-3455.5124L13239.4111,-3455.5378L13239.4042,-3455.5622L13239.4017,-3455.5762L13239.3952,-3455.5928L13239.3922,-3455.6242L13239.3837,-3455.6792L13239.3804,-3455.7054L13239.3802,-3455.7172L13239.3784,-3455.7469L13239.3772,-3455.7644L13239.3794,-3455.8026L13239.3794,-3455.864L13239.3792,-3455.8752L13239.3814,-3455.9155L13239.3802,-3455.9314L13239.3797,-3455.9558L13239.3737,-3455.9802L13239.3637,-3456.0112L13239.3435,-3456.0508L13239.3387,-3456.0608L13239.3209,-3456.0952L13239.3142,-3456.1071L13239.3014,-3456.1322L13239.2962,-3456.1448L13239.2827,-3456.1654L13239.2672,-3456.1832L13239.2453,-3456.1981L13239.2248,-3456.2126L13239.195,-3456.2268L13239.1579,-3456.2409L13239.1408,-3456.2477L13239.1438,-3456.2592L13239.1413,-3456.2687L13239.1343,-3456.2733L13239.1227,-3456.2783L13239.1117,-3456.2828L13239.1021,-3456.2841L13239.0891,-3456.2845L13239.0771,-3456.2842L13239.071,-3456.2571L13239.0655,-3456.2339L13239.06,-3456.2069L13239.054,-3456.1845L13239.0475,-3456.1546L13239.0429,-3456.1309L13239.0424,-3456.1147L13239.0429,-3456.1035L13239.05,-3456.0894L13239.06,-3456.067L13239.0645,-3456.0574L13239.0849,-3456.0607"/>
<path content="2,安芸太田町,病院線,1.5,1.5,0.0," xlink:title="2" d="M13238.0338,-3455.9866L13238.0532,-3455.9671L13238.0725,-3455.9523L13238.1235,-3455.9156L13238.1802,-3455.8876L13238.2458,-3455.8701L13238.2982,-3455.8704L13238.3467,-3455.8806L13238.4348,-3455.913L13238.4546,-3455.926L13238.4777,-3455.9431L13238.4666,-3455.908L13238.4639,-3455.8989L13238.4542,-3455.868L13238.4498,-3455.8545L13238.4431,-3455.8303L13238.4413,-3455.8185L13238.4362,-3455.7796L13238.4393,-3455.7689L13238.4436,-3455.7563L13238.4468,-3455.7441L13238.4613,-3455.7065L13238.4786,-3455.6709L13238.4865,-3455.6564L13238.4939,-3455.6442L13238.5074,-3455.6176L13238.5206,-3455.5927L13238.5357,-3455.57L13238.54,-3455.5596L13238.5451,-3455.5428L13238.5488,-3455.5287L13238.5511,-3455.5051L13238.5478,-3455.4787L13238.5391,-3455.457L13238.5271,-3455.4399L13238.5165,-3455.4277L13238.5007,-3455.4112L13238.4869,-3455.4048L13238.4754,-3455.4048L13238.4602,-3455.4086L13238.4523,-3455.4129L13238.4243,-3455.424L13238.3848,-3455.4402L13238.3656,-3455.4482L13238.3365,-3455.4574L13238.3243,-3455.4617L13238.2849,-3455.4728L13238.2751,-3455.4757L13238.2594,-3455.4811L13238.2354,-3455.4902L13238.2229,-3455.4943L13238.2022,-3455.502L13238.1796,-3455.5054L13238.1602,-3455.5062L13238.1509,-3455.5067L13238.1348,-3455.5054L13238.1215,-3455.5031L13238.108,-3455.4997L13238.0942,-3455.4967L13238.078,-3455.4919L13238.055,-3455.4845L13238.0273,-3455.4758L13238.017,-3455.4753L13238.0042,-3455.4787L13237.991,-3455.4885L13237.9796,-3455.5047L13237.9536,-3455.5481L13237.9226,-3455.6056L13237.9012,-3455.6385L13237.9027,-3455.6545L13237.9066,-3455.6614L13237.9147,-3455.6774L13237.9323,-3455.6995L13237.9516,-3455.7238L13237.9692,-3455.7513L13237.9789,-3455.7693L13237.9938,-3455.7991L13238.0125,-3455.836L13238.0176,-3455.8577L13238.0245,-3455.889L13238.031,-3455.9206L13238.0338,-3455.9347L13238.0338,-3455.9866"/>
<path content="2,安芸太田町,病院線,1.5,1.5,0.0," xlink:title="2" d="M13237.2225,-3456.2679L13237.2729,-3456.2652L13237.3017,-3456.2623L13237.4182,-3456.2588L13237.469,-3456.2608L13237.4897,-3456.2603L13237.5335,-3456.2653L13237.5465,-3456.2665L13237.588,-3456.271L13237.5997,-3456.2697L13237.6346,-3456.2702L13237.6591,-3456.269L13237.6711,-3456.2676L13237.6862,-3456.2645L13237.7227,-3456.2542L13237.7591,-3456.2432L13237.78,-3456.2363L13237.8114,-3456.2259L13237.8409,-3456.2073L13237.8649,-3456.1917L13237.8916,-3456.1711L13237.9039,-3456.1615L13237.9124,-3456.1536L13237.9222,-3456.1409L13237.9433,-3456.1128L13237.9655,-3456.0857L13237.9959,-3456.0403L13238.0181,-3456.0049L13238.0338,-3455.9866"/>
<path content="2,安芸太田町,病院線,1.5,1.5,0.0," xlink:title="2" d="M13237.2225,-3456.2679L13237.2128,-3456.2697L13237.1557,-3456.2645L13237.1221,-3456.2581L13237.1058,-3456.2519L13237.1021,-3456.25L13237.0915,-3456.2451L13237.0548,-3456.2278L13237.0462,-3456.2218L13237.035,-3456.2176L13236.9909,-3456.1993L13236.9501,-3456.1861L13236.9073,-3456.1627L13236.8681,-3456.1402L13236.8335,-3456.1212L13236.8049,-3456.1063L13236.7661,-3456.0857L13236.7073,-3456.0537L13236.6997,-3456.0487L13236.6291,-3456.0094L13236.6106,-3455.9988L13236.6024,-3455.9973L13236.5903,-3455.9923L13236.5799,-3455.9931L13236.5433,-3455.9919L13236.5317,-3455.9923L13236.4928,-3455.9904L13236.4856,-3455.9885L13236.47,-3455.9877L13236.4362,-3455.9824L13236.4279,-3455.9824L13236.3364,-3455.9719L13236.3281,-3455.9708"/>
<path content="2,安芸太田町,病院線,1.5,1.5,0.0," xlink:title="2" d="M13237.351,-3458.4961L13237.3454,-3458.4834L13237.3302,-3458.4651L13237.3182,-3458.4518L13237.3085,-3458.4457L13237.2979,-3458.43L13237.2849,-3458.4121L13237.2674,-3458.3877L13237.2522,-3458.3656L13237.2291,-3458.3416L13237.2047,-3458.3138L13237.1843,-3458.2867L13237.1677,-3458.2619L13237.1516,-3458.2413L13237.134,-3458.2223L13237.117,-3458.2047L13237.0944,-3458.1826L13237.0704,-3458.1597L13237.0487,-3458.1426L13237.0284,-3458.1269L13237.0096,-3458.1159L13237.0058,-3458.1083L13237.0044,-3458.0938L13236.9956,-3458.037L13236.9896,-3457.9901L13236.985,-3457.9523L13236.9762,-3457.8944L13236.9693,-3457.8563L13236.9647,-3457.8403L13236.9656,-3457.8197L13236.9698,-3457.8116L13236.9808,-3457.7884L13236.9961,-3457.7457L13237.0062,-3457.7186L13237.0076,-3457.703L13237.0071,-3457.6877L13237.0011,-3457.6725L13236.9933,-3457.6557L13236.9845,-3457.6347L13236.9647,-3457.6062L13236.9538,-3457.588L13236.9474,-3457.5762L13236.9377,-3457.5564L13236.9281,-3457.5341L13236.9229,-3457.5209L13236.9198,-3457.5128L13236.9182,-3457.4948L13236.9169,-3457.474L13236.9165,-3457.4474L13236.9202,-3457.4272L13236.9252,-3457.4127L13236.9308,-3457.4035L13236.9432,-3457.3829L13236.9603,-3457.3612L13236.9792,-3457.3452L13237.012,-3457.3231L13237.0263,-3457.3093L13237.0424,-3457.2895L13237.0572,-3457.2701L13237.0697,-3457.2518L13237.0812,-3457.2369L13237.1181,-3457.2041L13237.1518,-3457.1771L13237.1652,-3457.1656L13237.1841,-3457.1538L13237.21,-3457.1488L13237.234,-3457.1458L13237.2568,-3457.1448L13237.2806,-3457.1415L13237.302,-3457.1399L13237.3232,-3457.1334L13237.3837,-3457.1052L13237.3925,-3457.0999L13237.4183,-3457.0876L13237.4428,-3457.0728L13237.4755,-3457.0503L13237.488,-3457.0377L13237.4981,-3457.0228L13237.5074,-3457.0103L13237.518,-3456.9973L13237.5314,-3456.9847L13237.5457,-3456.9767L13237.5715,-3456.9626L13237.6117,-3456.9538L13237.6813,-3456.9382L13237.7192,-3456.9302L13237.7441,-3456.9245L13237.7723,-3456.9077L13237.7995,-3456.8905L13237.8148,-3456.8821L13237.8515,-3456.8612L13237.8806,-3456.8432L13237.8995,-3456.8314L13237.9115,-3456.8219L13237.9179,-3456.8124L13237.9221,-3456.8017L13237.9253,-3456.7925L13237.9239,-3456.7758L13237.9212,-3456.7575L13237.9152,-3456.7353L13237.9129,-3456.7224L13237.8889,-3456.6614L13237.8838,-3456.6461L13237.8727,-3456.6286L13237.8644,-3456.6153L13237.8543,-3456.5966L13237.8483,-3456.5874L13237.8376,-3456.5752L13237.8257,-3456.5657L13237.8095,-3456.5569L13237.7938,-3456.5497L13237.7795,-3456.5459L13237.7615,-3456.5436L13237.7186,-3456.5413L13237.6683,-3456.5428L13237.642,-3456.5428L13237.6055,-3456.5386L13237.5612,-3456.5325L13237.5423,-3456.5283L13237.5192,-3456.5207L13237.5012,-3456.5116L13237.4805,-3456.4974L13237.4712,-3456.4883L13237.4537,-3456.4704L13237.4408,-3456.454L13237.4288,-3456.4445L13237.4113,-3456.4319L13237.355,-3456.4029L13237.3259,-3456.3865L13237.2991,-3456.369L13237.2737,-3456.3484L13237.2599,-3456.335L13237.2507,-3456.3213L13237.2271,-3456.295L13237.223,-3456.2859L13237.2225,-3456.2679"/>
</g>
</svg>
