<?xml version="1.0" encoding="UTF-8"?>
<svg  xmlns="http://www.w3.org/2000/svg" xmlns:xlink="http://www.w3.org/1999/xlink" xmlns:go="http://purl.org/svgmap/profile" property="N07_001,N07_002,N07_003,N07_004,N07_005,N07_006,N07_007" viewBox="13280.2734375 -3484.86328125 4.39453125 4.39453125" go:dataArea="13280.2734375 -3484.86328125 4.39453125 4.39453125" >
<metadata>
 <rdf:RDF xmlns:rdf="http://www.w3.org/1999/02/22-rdf-syntax-ns#" xmlns:crs="http://opengis.org/xmldtds/transformations.dtd" xmlns:svg="http://www.w3.org/svg" >
  <rdf:Description>
   <crs:CoordinateReferenceSystem rdf:resource="http://purl.org/crs/84" svg:transform="matrix(100.0,0.0,0.0,-100.0,0.0,0.0)" />
  </rdf:Description>
 </rdf:RDF>
</metadata>
<globalCoordinateSystem srsName="http://purl.org/crs/84" transform="matrix(100.0,0.0,0.0,-100.0,0.0,0.0)" />
<defs>
 <g id="p0" >
  <circle cx="0.0" cy="0.0" r="3" stroke="green" stroke-width="0.75" vector-effect="non-scaling-stroke" />
 </g>
</defs>
<g fill="none" fill-rule="evenodd" stroke="#FF00FF" stroke-width="0.75" opacity="0.5" vector-effect="non-scaling-stroke" stroke-linejoin="bevel" >
<path content="1,一畑バス（株）,広島～三次・出雲線,8.0,8.0,8.0," xlink:title="1" d="M13280.4022,-3484.8633L13280.4094,-3484.8522L13280.418,-3484.8265L13280.4189,-3484.7986L13280.4156,-3484.7694L13280.4064,-3484.7317L13280.3942,-3484.7004L13280.3752,-3484.6637L13280.3579,-3484.6258L13280.3383,-3484.5957L13280.322,-3484.5723L13280.2934,-3484.551L13280.2734,-3484.5337M13280.2734,-3484.0109L13280.2975,-3483.9947L13280.3168,-3483.9837L13280.3501,-3483.9664L13280.3886,-3483.9483L13280.4353,-3483.9267L13280.4579,-3483.914L13280.495,-3483.8894L13280.5062,-3483.8751L13280.5151,-3483.8576L13280.523,-3483.8345L13280.5347,-3483.7968L13280.5427,-3483.7697L13280.5602,-3483.7174L13280.5714,-3483.6809L13280.5817,-3483.66L13280.5879,-3483.6477L13280.5935,-3483.6279L13280.5949,-3483.6148L13280.5915,-3483.571L13280.5881,-3483.5333L13280.5949,-3483.4513L13280.5987,-3483.3902L13280.6043,-3483.3404L13280.6067,-3483.2966L13280.6111,-3483.2497L13280.616,-3483.2036L13280.6192,-3483.1555L13280.6261,-3483.0576L13280.6332,-3482.9772L13280.6361,-3482.9256L13280.6405,-3482.8719L13280.6464,-3482.8125L13280.6498,-3482.7636L13280.6527,-3482.7227L13280.6562,-3482.6854L13280.663,-3482.6637L13280.6722,-3482.647L13280.6891,-3482.6298L13280.7056,-3482.6152L13280.7203,-3482.6031L13280.7364,-3482.5941L13280.7676,-3482.5827L13280.8045,-3482.5747L13280.8348,-3482.5713L13280.8681,-3482.5702L13280.892,-3482.5752L13280.9306,-3482.5866L13280.9644,-3482.5984L13280.9977,-3482.6116L13281.0506,-3482.637L13281.1346,-3482.6822L13281.1949,-3482.7147L13281.2582,-3482.7487L13281.2894,-3482.7584L13281.3124,-3482.7632L13281.344,-3482.7637L13281.3861,-3482.7626L13281.4196,-3482.7564L13281.4611,-3482.7427L13281.4988,-3482.728L13281.5256,-3482.7145L13281.5486,-3482.6995L13281.5617,-3482.683L13281.5768,-3482.6549L13281.5852,-3482.6276L13281.5905,-3482.602L13281.5945,-3482.5633L13281.5954,-3482.5266L13281.5918,-3482.4914L13281.5791,-3482.4311L13281.5664,-3482.3671L13281.5595,-3482.326L13281.5594,-3482.3156L13281.5607,-3482.3026L13281.5642,-3482.2896L13281.5743,-3482.2692L13281.5855,-3482.2553L13281.6054,-3482.2375L13281.6258,-3482.2239L13281.6444,-3482.2129L13281.6665,-3482.2036L13281.6937,-3482.1954L13281.737,-3482.1961L13281.7467,-3482.1964L13281.7844,-3482.2007L13281.8221,-3482.2082L13281.8577,-3482.2136L13281.8991,-3482.2157L13281.9304,-3482.2157L13281.9511,-3482.2151L13281.992,-3482.2136L13282.0279,-3482.2085L13282.0533,-3482.2025L13282.0808,-3482.1909L13282.1173,-3482.1718L13282.1532,-3482.1479L13282.1901,-3482.1218L13282.2286,-3482.0906L13282.258,-3482.0625L13282.2737,-3482.0454L13282.2951,-3482.0199L13282.3123,-3481.9976L13282.3281,-3481.9755L13282.3393,-3481.951L13282.3452,-3481.9285L13282.3501,-3481.8993L13282.3655,-3481.8343L13282.373,-3481.8177L13282.3834,-3481.8069L13282.3918,-3481.8018L13282.4113,-3481.7957L13282.4302,-3481.7909L13282.4605,-3481.7852L13282.4918,-3481.7852L13282.5234,-3481.7884L13282.571,-3481.797L13282.6287,-3481.8084L13282.737,-3481.8307L13282.7864,-3481.8379L13282.8259,-3481.843L13282.9083,-3481.8473L13282.9876,-3481.8487L13283.0127,-3481.8471L13283.047,-3481.8451L13283.0734,-3481.8407L13283.1101,-3481.8323L13283.1486,-3481.8234L13283.2669,-3481.7936L13283.3489,-3481.7762L13283.493,-3481.7409L13283.6824,-3481.6952L13283.7929,-3481.6706L13283.879,-3481.653L13284.0068,-3481.6281L13284.0548,-3481.6173L13284.0781,-3481.6113L13284.1175,-3481.6052L13284.1431,-3481.6056L13284.1691,-3481.6099L13284.2101,-3481.6209L13284.2375,-3481.6281L13284.2627,-3481.6338L13284.3237,-3481.6487L13284.3584,-3481.6551L13284.3759,-3481.6559L13284.4324,-3481.6535L13284.4333,-3481.6083L13284.4362,-3481.4973L13284.4362,-3481.4544L13284.4375,-3481.4226L13284.4376,-3481.2104L13284.4362,-3481.193L13284.4432,-3481.0121L13284.4423,-3480.9282L13284.4396,-3480.8781L13284.4397,-3480.8609L13284.4454,-3480.8495L13284.457,-3480.8399L13284.4781,-3480.8315L13284.5054,-3480.8222L13284.5656,-3480.8028L13284.6159,-3480.7865L13284.6468,-3480.7762L13284.6607,-3480.7721L13284.668,-3480.7712"/>
<path content="1,一畑バス（株）,広島～松江線,8.0,8.0,8.0," xlink:title="1" d="M13280.4022,-3484.8633L13280.4094,-3484.8522L13280.418,-3484.8265L13280.4189,-3484.7986L13280.4156,-3484.7694L13280.4064,-3484.7317L13280.3942,-3484.7004L13280.3752,-3484.6637L13280.3579,-3484.6258L13280.3383,-3484.5957L13280.322,-3484.5723L13280.2934,-3484.551L13280.2734,-3484.5337M13280.2734,-3484.0109L13280.2975,-3483.9947L13280.3168,-3483.9837L13280.3501,-3483.9664L13280.3886,-3483.9483L13280.4353,-3483.9267L13280.4579,-3483.914L13280.495,-3483.8894L13280.5062,-3483.8751L13280.5151,-3483.8576L13280.523,-3483.8345L13280.5347,-3483.7968L13280.5427,-3483.7697L13280.5602,-3483.7174L13280.5714,-3483.6809L13280.5817,-3483.66L13280.5879,-3483.6477L13280.5935,-3483.6279L13280.5949,-3483.6148L13280.5915,-3483.571L13280.5881,-3483.5333L13280.5949,-3483.4513L13280.5987,-3483.3902L13280.6043,-3483.3404L13280.6067,-3483.2966L13280.6111,-3483.2497L13280.616,-3483.2036L13280.6192,-3483.1555L13280.6261,-3483.0576L13280.6332,-3482.9772L13280.6361,-3482.9256L13280.6405,-3482.8719L13280.6464,-3482.8125L13280.6498,-3482.7636L13280.6527,-3482.7227L13280.6562,-3482.6854L13280.663,-3482.6637L13280.6722,-3482.647L13280.6891,-3482.6298L13280.7056,-3482.6152L13280.7203,-3482.6031L13280.7364,-3482.5941L13280.7676,-3482.5827L13280.8045,-3482.5747L13280.8348,-3482.5713L13280.8681,-3482.5702L13280.892,-3482.5752L13280.9306,-3482.5866L13280.9644,-3482.5984L13280.9977,-3482.6116L13281.0506,-3482.637L13281.1346,-3482.6822L13281.1949,-3482.7147L13281.2582,-3482.7487L13281.2894,-3482.7584L13281.3124,-3482.7632L13281.344,-3482.7637L13281.3861,-3482.7626L13281.4196,-3482.7564L13281.4611,-3482.7427L13281.4988,-3482.728L13281.5256,-3482.7145L13281.5486,-3482.6995L13281.5617,-3482.683L13281.5768,-3482.6549L13281.5852,-3482.6276L13281.5905,-3482.602L13281.5945,-3482.5633L13281.5954,-3482.5266L13281.5918,-3482.4914L13281.5791,-3482.4311L13281.5664,-3482.3671L13281.5595,-3482.326L13281.5594,-3482.3156L13281.5607,-3482.3026L13281.5642,-3482.2896L13281.5743,-3482.2692L13281.5855,-3482.2553L13281.6054,-3482.2375L13281.6258,-3482.2239L13281.6444,-3482.2129L13281.6665,-3482.2036L13281.6937,-3482.1954L13281.737,-3482.1961L13281.7467,-3482.1964L13281.7844,-3482.2007L13281.8221,-3482.2082L13281.8577,-3482.2136L13281.8991,-3482.2157L13281.9304,-3482.2157L13281.9511,-3482.2151L13281.992,-3482.2136L13282.0279,-3482.2085L13282.0533,-3482.2025L13282.0808,-3482.1909L13282.1173,-3482.1718L13282.1532,-3482.1479L13282.1901,-3482.1218L13282.2286,-3482.0906L13282.258,-3482.0625L13282.2737,-3482.0454L13282.2951,-3482.0199L13282.3123,-3481.9976L13282.3281,-3481.9755L13282.3393,-3481.951L13282.3452,-3481.9285L13282.3501,-3481.8993L13282.3655,-3481.8343L13282.373,-3481.8177L13282.3834,-3481.8069L13282.3918,-3481.8018L13282.4113,-3481.7957L13282.4302,-3481.7909L13282.4605,-3481.7852L13282.4918,-3481.7852L13282.5234,-3481.7884L13282.571,-3481.797L13282.6287,-3481.8084L13282.737,-3481.8307L13282.7864,-3481.8379L13282.8259,-3481.843L13282.9083,-3481.8473L13282.9876,-3481.8487L13283.0127,-3481.8471L13283.047,-3481.8451L13283.0734,-3481.8407L13283.1101,-3481.8323L13283.1486,-3481.8234L13283.2669,-3481.7936L13283.3489,-3481.7762L13283.493,-3481.7409L13283.6824,-3481.6952L13283.7929,-3481.6706L13283.879,-3481.653L13284.0068,-3481.6281L13284.0548,-3481.6173L13284.0781,-3481.6113L13284.1175,-3481.6052L13284.1431,-3481.6056L13284.1691,-3481.6099L13284.2101,-3481.6209L13284.2375,-3481.6281L13284.2627,-3481.6338L13284.3237,-3481.6487L13284.3584,-3481.6551L13284.3759,-3481.6559L13284.4324,-3481.6535L13284.4333,-3481.6083L13284.4362,-3481.4973L13284.4362,-3481.4544L13284.4375,-3481.4226L13284.4376,-3481.2104L13284.4362,-3481.193L13284.4432,-3481.0121L13284.4423,-3480.9282L13284.4396,-3480.8781L13284.4397,-3480.8609L13284.4454,-3480.8495L13284.457,-3480.8399L13284.4781,-3480.8315L13284.5054,-3480.8222L13284.5656,-3480.8028L13284.6159,-3480.7865L13284.6468,-3480.7762L13284.6607,-3480.7721L13284.668,-3480.7712"/>
<path content="1,一畑バス（株）,福岡～出雲・松江線,1.0,1.0,1.0," xlink:title="1" d="M13280.4022,-3484.8633L13280.4094,-3484.8522L13280.418,-3484.8265L13280.4189,-3484.7986L13280.4156,-3484.7694L13280.4064,-3484.7317L13280.3942,-3484.7004L13280.3752,-3484.6637L13280.3579,-3484.6258L13280.3383,-3484.5957L13280.322,-3484.5723L13280.2934,-3484.551L13280.2734,-3484.5337M13280.2734,-3484.0109L13280.2975,-3483.9947L13280.3168,-3483.9837L13280.3501,-3483.9664L13280.3886,-3483.9483L13280.4353,-3483.9267L13280.4579,-3483.914L13280.495,-3483.8894L13280.5062,-3483.8751L13280.5151,-3483.8576L13280.523,-3483.8345L13280.5347,-3483.7968L13280.5427,-3483.7697L13280.5602,-3483.7174L13280.5714,-3483.6809L13280.5817,-3483.66L13280.5879,-3483.6477L13280.5935,-3483.6279L13280.5949,-3483.6148L13280.5915,-3483.571L13280.5881,-3483.5333L13280.5949,-3483.4513L13280.5987,-3483.3902L13280.6043,-3483.3404L13280.6067,-3483.2966L13280.6111,-3483.2497L13280.616,-3483.2036L13280.6192,-3483.1555L13280.6261,-3483.0576L13280.6332,-3482.9772L13280.6361,-3482.9256L13280.6405,-3482.8719L13280.6464,-3482.8125L13280.6498,-3482.7636L13280.6527,-3482.7227L13280.6562,-3482.6854L13280.663,-3482.6637L13280.6722,-3482.647L13280.6891,-3482.6298L13280.7056,-3482.6152L13280.7203,-3482.6031L13280.7364,-3482.5941L13280.7676,-3482.5827L13280.8045,-3482.5747L13280.8348,-3482.5713L13280.8681,-3482.5702L13280.892,-3482.5752L13280.9306,-3482.5866L13280.9644,-3482.5984L13280.9977,-3482.6116L13281.0506,-3482.637L13281.1346,-3482.6822L13281.1949,-3482.7147L13281.2582,-3482.7487L13281.2894,-3482.7584L13281.3124,-3482.7632L13281.344,-3482.7637L13281.3861,-3482.7626L13281.4196,-3482.7564L13281.4611,-3482.7427L13281.4988,-3482.728L13281.5256,-3482.7145L13281.5486,-3482.6995L13281.5617,-3482.683L13281.5768,-3482.6549L13281.5852,-3482.6276L13281.5905,-3482.602L13281.5945,-3482.5633L13281.5954,-3482.5266L13281.5918,-3482.4914L13281.5791,-3482.4311L13281.5664,-3482.3671L13281.5595,-3482.326L13281.5594,-3482.3156L13281.5607,-3482.3026L13281.5642,-3482.2896L13281.5743,-3482.2692L13281.5855,-3482.2553L13281.6054,-3482.2375L13281.6258,-3482.2239L13281.6444,-3482.2129L13281.6665,-3482.2036L13281.6937,-3482.1954L13281.737,-3482.1961L13281.7467,-3482.1964L13281.7844,-3482.2007L13281.8221,-3482.2082L13281.8577,-3482.2136L13281.8991,-3482.2157L13281.9304,-3482.2157L13281.9511,-3482.2151L13281.992,-3482.2136L13282.0279,-3482.2085L13282.0533,-3482.2025L13282.0808,-3482.1909L13282.1173,-3482.1718L13282.1532,-3482.1479L13282.1901,-3482.1218L13282.2286,-3482.0906L13282.258,-3482.0625L13282.2737,-3482.0454L13282.2951,-3482.0199L13282.3123,-3481.9976L13282.3281,-3481.9755L13282.3393,-3481.951L13282.3452,-3481.9285L13282.3501,-3481.8993L13282.3655,-3481.8343L13282.373,-3481.8177L13282.3834,-3481.8069L13282.3918,-3481.8018L13282.4113,-3481.7957L13282.4302,-3481.7909L13282.4605,-3481.7852L13282.4918,-3481.7852L13282.5234,-3481.7884L13282.571,-3481.797L13282.6287,-3481.8084L13282.737,-3481.8307L13282.7864,-3481.8379L13282.8259,-3481.843L13282.9083,-3481.8473L13282.9876,-3481.8487L13283.0127,-3481.8471L13283.047,-3481.8451L13283.0734,-3481.8407L13283.1101,-3481.8323L13283.1486,-3481.8234L13283.2669,-3481.7936L13283.3489,-3481.7762L13283.493,-3481.7409L13283.6824,-3481.6952L13283.7929,-3481.6706L13283.879,-3481.653L13284.0068,-3481.6281L13284.0548,-3481.6173L13284.0781,-3481.6113L13284.1175,-3481.6052L13284.1431,-3481.6056L13284.1691,-3481.6099L13284.2101,-3481.6209L13284.2375,-3481.6281L13284.2627,-3481.6338L13284.3237,-3481.6487L13284.3584,-3481.6551L13284.3759,-3481.6559L13284.4324,-3481.6535L13284.4333,-3481.6083L13284.4362,-3481.4973L13284.4362,-3481.4544L13284.4375,-3481.4226L13284.4376,-3481.2104L13284.4362,-3481.193L13284.4432,-3481.0121L13284.4423,-3480.9282L13284.4396,-3480.8781L13284.4397,-3480.8609L13284.4454,-3480.8495L13284.457,-3480.8399L13284.4781,-3480.8315L13284.5054,-3480.8222L13284.5656,-3480.8028L13284.6159,-3480.7865L13284.6468,-3480.7762L13284.6607,-3480.7721L13284.668,-3480.7712"/>
<path content="1,中国JRバス（株）,広島～出雲市　みこと,8.0,8.0,8.0," xlink:title="1" d="M13280.4039,-3484.8633L13280.4093,-3484.8523L13280.4141,-3484.8388L13280.4175,-3484.8231L13280.4189,-3484.7986L13280.4182,-3484.7909L13280.4156,-3484.7694L13280.4135,-3484.7604L13280.4086,-3484.7397L13280.4064,-3484.7317L13280.3942,-3484.7004L13280.3752,-3484.6637L13280.3579,-3484.6258L13280.3383,-3484.5957L13280.322,-3484.5723L13280.2934,-3484.551L13280.2734,-3484.5337M13280.2734,-3484.0109L13280.2975,-3483.9947L13280.3168,-3483.9837L13280.3501,-3483.9664L13280.3886,-3483.9483L13280.4353,-3483.9267L13280.4579,-3483.914L13280.495,-3483.8894L13280.5062,-3483.8751L13280.5151,-3483.8576L13280.523,-3483.8345L13280.5347,-3483.7968L13280.5427,-3483.7697L13280.5602,-3483.7174L13280.5714,-3483.6809L13280.5817,-3483.66L13280.5879,-3483.6477L13280.5935,-3483.6279L13280.5949,-3483.6148L13280.5915,-3483.571L13280.5881,-3483.5333L13280.5949,-3483.4513L13280.5987,-3483.3902L13280.6043,-3483.3404L13280.6067,-3483.2966L13280.6111,-3483.2497L13280.616,-3483.2036L13280.6192,-3483.1555L13280.6261,-3483.0576L13280.6332,-3482.9772L13280.6361,-3482.9256L13280.6405,-3482.8719L13280.6464,-3482.8125L13280.6498,-3482.7636L13280.6527,-3482.7227L13280.6562,-3482.6854L13280.663,-3482.6637L13280.6722,-3482.647L13280.6891,-3482.6298L13280.7056,-3482.6152L13280.7203,-3482.6031L13280.7364,-3482.5941L13280.7676,-3482.5827L13280.8045,-3482.5747L13280.8348,-3482.5713L13280.8681,-3482.5702L13280.892,-3482.5752L13280.9306,-3482.5866L13280.9644,-3482.5984L13280.9977,-3482.6116L13281.0506,-3482.637L13281.1346,-3482.6822L13281.1949,-3482.7147L13281.2582,-3482.7487L13281.2894,-3482.7584L13281.3124,-3482.7632L13281.344,-3482.7637L13281.3861,-3482.7626L13281.4196,-3482.7564L13281.4611,-3482.7427L13281.4988,-3482.728L13281.5256,-3482.7145L13281.5486,-3482.6995L13281.5617,-3482.683L13281.5768,-3482.6549L13281.5852,-3482.6276L13281.5905,-3482.602L13281.5945,-3482.5633L13281.5954,-3482.5266L13281.5918,-3482.4914L13281.5791,-3482.4311L13281.5664,-3482.3671L13281.5595,-3482.326L13281.5594,-3482.3156L13281.5607,-3482.3026L13281.5642,-3482.2896L13281.5743,-3482.2692L13281.5855,-3482.2553L13281.6054,-3482.2375L13281.6258,-3482.2239L13281.6444,-3482.2129L13281.6665,-3482.2036L13281.6937,-3482.1954L13281.737,-3482.1961L13281.7467,-3482.1964L13281.7844,-3482.2007L13281.8221,-3482.2082L13281.8577,-3482.2136L13281.8991,-3482.2157L13281.9304,-3482.2157L13281.9511,-3482.2151L13281.992,-3482.2136L13282.0279,-3482.2085L13282.0533,-3482.2025L13282.0808,-3482.1909L13282.1173,-3482.1718L13282.1532,-3482.1479L13282.1901,-3482.1218L13282.2286,-3482.0906L13282.258,-3482.0625L13282.2737,-3482.0454L13282.2951,-3482.0199L13282.3123,-3481.9976L13282.3281,-3481.9755L13282.3393,-3481.951L13282.3452,-3481.9285L13282.3501,-3481.8993L13282.3655,-3481.8343L13282.373,-3481.8177L13282.3834,-3481.8069L13282.3918,-3481.8018L13282.4113,-3481.7957L13282.4302,-3481.7909L13282.4605,-3481.7852L13282.4918,-3481.7852L13282.5234,-3481.7884L13282.571,-3481.797L13282.6287,-3481.8084L13282.737,-3481.8307L13282.7864,-3481.8379L13282.8259,-3481.843L13282.9083,-3481.8473L13282.9876,-3481.8487L13283.0127,-3481.8471L13283.047,-3481.8451L13283.0734,-3481.8407L13283.1101,-3481.8323L13283.1486,-3481.8234L13283.2669,-3481.7936L13283.3489,-3481.7762L13283.493,-3481.7409L13283.6824,-3481.6952L13283.7929,-3481.6706L13283.879,-3481.653L13284.0068,-3481.6281L13284.0548,-3481.6173L13284.0781,-3481.6113L13284.1175,-3481.6052L13284.1431,-3481.6056L13284.1691,-3481.6099L13284.2101,-3481.6209L13284.2375,-3481.6281L13284.2729,-3481.6369L13284.322,-3481.6487L13284.3414,-3481.6521L13284.3584,-3481.6551L13284.3759,-3481.6559L13284.4337,-3481.6554L13284.4333,-3481.6083L13284.4349,-3481.5441L13284.4362,-3481.4973L13284.4362,-3481.4544L13284.4375,-3481.4226L13284.4372,-3481.3178L13284.437,-3481.2752L13284.4369,-3481.2359L13284.4368,-3481.2104L13284.4362,-3481.193L13284.4371,-3481.162L13284.4381,-3481.1322L13284.4387,-3481.1104L13284.4398,-3481.0755L13284.4407,-3481.0473L13284.4417,-3481.0128L13284.4422,-3480.9792L13284.4425,-3480.9437L13284.4421,-3480.9156L13284.4419,-3480.9011L13284.4415,-3480.8778L13284.4415,-3480.8704L13284.4414,-3480.8604L13284.4459,-3480.8493L13284.4572,-3480.8398L13284.4686,-3480.8353L13284.4781,-3480.8315L13284.5054,-3480.8222L13284.5301,-3480.8142L13284.5656,-3480.8028L13284.5997,-3480.7913L13284.6331,-3480.7808L13284.6479,-3480.7766L13284.6616,-3480.7723L13284.668,-3480.7713"/>
<path content="1,備北交通（株）,三城線,37.0,0.0,0.0," xlink:title="1" d="M13284.4375,-3481.4226L13284.4372,-3481.3178L13284.437,-3481.2752L13284.4369,-3481.2359L13284.4368,-3481.2104L13284.4362,-3481.193L13284.4371,-3481.162L13284.4381,-3481.1322L13284.4387,-3481.1104L13284.4398,-3481.0755L13284.4407,-3481.0473L13284.4417,-3481.0128L13284.4422,-3480.9792L13284.4425,-3480.9437L13284.4421,-3480.9156L13284.4419,-3480.9011L13284.4415,-3480.8778L13284.4415,-3480.8704L13284.4414,-3480.8604L13284.4459,-3480.8493L13284.4572,-3480.8398L13284.4686,-3480.8353L13284.4781,-3480.8315L13284.5054,-3480.8222L13284.5301,-3480.8142L13284.5656,-3480.8028L13284.5997,-3480.7913L13284.6331,-3480.7808L13284.6479,-3480.7766L13284.6616,-3480.7723L13284.668,-3480.7713"/>
<path content="1,備北交通（株）,三次～布野～作木～都賀都橋,1.0,1.0,0.0," xlink:title="1" d="M13284.668,-3480.7713L13284.6616,-3480.7723L13284.6479,-3480.7766L13284.6331,-3480.7808L13284.5997,-3480.7913L13284.5656,-3480.8028L13284.5301,-3480.8142L13284.5054,-3480.8222L13284.4781,-3480.8315L13284.4686,-3480.8353L13284.4572,-3480.8398L13284.4459,-3480.8493L13284.4414,-3480.8604L13284.4415,-3480.8704L13284.4415,-3480.8778L13284.4419,-3480.9011L13284.4421,-3480.9156L13284.4425,-3480.9437L13284.4422,-3480.9792L13284.4417,-3481.0128L13284.4407,-3481.0473L13284.4398,-3481.0755L13284.4387,-3481.1104L13284.4381,-3481.1322L13284.4371,-3481.162L13284.4362,-3481.193L13284.4368,-3481.2104L13284.4369,-3481.2359L13284.437,-3481.2752L13284.4372,-3481.3178L13284.4375,-3481.4226L13284.4362,-3481.4544L13284.4362,-3481.4973L13284.4349,-3481.5441L13284.4333,-3481.6083L13284.4337,-3481.6554L13284.3759,-3481.6559L13284.3584,-3481.6551L13284.3414,-3481.6521L13284.322,-3481.6487L13284.2729,-3481.6369L13284.2375,-3481.6281L13284.2101,-3481.6209L13284.1691,-3481.6099L13284.1431,-3481.6056L13284.1175,-3481.6052L13284.0781,-3481.6113L13284.0548,-3481.6173L13284.0068,-3481.6281L13283.879,-3481.653L13283.7929,-3481.6706L13283.6824,-3481.6952L13283.493,-3481.7409L13283.3489,-3481.7762L13283.2669,-3481.7936L13283.1486,-3481.8234L13283.1101,-3481.8323L13283.0734,-3481.8407L13283.047,-3481.8451L13283.0127,-3481.8471L13282.9876,-3481.8487L13282.9083,-3481.8473L13282.8259,-3481.843L13282.7864,-3481.8379L13282.737,-3481.8307L13282.6287,-3481.8084L13282.571,-3481.797L13282.5234,-3481.7884L13282.4918,-3481.7852L13282.4605,-3481.7852L13282.4302,-3481.7909L13282.4113,-3481.7957L13282.3918,-3481.8018L13282.3834,-3481.8069L13282.373,-3481.8177L13282.3655,-3481.8343L13282.3501,-3481.8993L13282.3452,-3481.9285L13282.3393,-3481.951L13282.3281,-3481.9755L13282.3123,-3481.9976L13282.2951,-3482.0199L13282.2737,-3482.0454L13282.258,-3482.0625L13282.2286,-3482.0906L13282.1901,-3482.1218L13282.1532,-3482.1479L13282.1173,-3482.1718L13282.0808,-3482.1909L13282.0533,-3482.2025L13282.0279,-3482.2085L13281.992,-3482.2136L13281.9511,-3482.2151L13281.9304,-3482.2157L13281.8991,-3482.2157L13281.8577,-3482.2136L13281.8221,-3482.2082L13281.7844,-3482.2007L13281.7467,-3482.1964L13281.737,-3482.1961L13281.6937,-3482.1954L13281.6665,-3482.2036L13281.6444,-3482.2129L13281.6258,-3482.2239L13281.6054,-3482.2375L13281.5855,-3482.2553L13281.5743,-3482.2692L13281.5642,-3482.2896L13281.5607,-3482.3026L13281.5594,-3482.3156L13281.5595,-3482.326L13281.5664,-3482.3671L13281.5791,-3482.4311L13281.5918,-3482.4914L13281.5954,-3482.5266L13281.5945,-3482.5633L13281.5905,-3482.602L13281.5852,-3482.6276L13281.5768,-3482.6549L13281.5617,-3482.683L13281.5486,-3482.6995L13281.5256,-3482.7145L13281.4988,-3482.728L13281.4611,-3482.7427L13281.4196,-3482.7564L13281.3861,-3482.7626L13281.344,-3482.7637L13281.3124,-3482.7632L13281.2894,-3482.7584L13281.2582,-3482.7487L13281.1949,-3482.7147L13281.1346,-3482.6822L13281.0506,-3482.637L13280.9977,-3482.6116L13280.9644,-3482.5984L13280.9306,-3482.5866L13280.892,-3482.5752L13280.8681,-3482.5702L13280.8348,-3482.5713L13280.8045,-3482.5747L13280.7676,-3482.5827L13280.7364,-3482.5941L13280.7203,-3482.6031L13280.7056,-3482.6152L13280.6891,-3482.6298L13280.6722,-3482.647L13280.663,-3482.6637L13280.6562,-3482.6854L13280.6527,-3482.7227L13280.6498,-3482.7636L13280.6464,-3482.8125L13280.6405,-3482.8719L13280.6361,-3482.9256L13280.6332,-3482.9772L13280.6261,-3483.0576L13280.6192,-3483.1555L13280.616,-3483.2036L13280.6111,-3483.2497L13280.6067,-3483.2966L13280.6043,-3483.3404L13280.5987,-3483.3902L13280.5949,-3483.4513L13280.5881,-3483.5333L13280.5915,-3483.571L13280.5949,-3483.6148L13280.5935,-3483.6279L13280.5879,-3483.6477L13280.5817,-3483.66L13280.5714,-3483.6809L13280.5602,-3483.7174L13280.5427,-3483.7697L13280.5347,-3483.7968L13280.523,-3483.8345L13280.5151,-3483.8576L13280.5062,-3483.8751L13280.495,-3483.8894L13280.4579,-3483.914L13280.4353,-3483.9267L13280.3886,-3483.9483L13280.3501,-3483.9664L13280.3168,-3483.9837L13280.2975,-3483.9947L13280.2734,-3484.0109M13280.2734,-3484.5337L13280.2934,-3484.551L13280.322,-3484.5723L13280.3383,-3484.5957L13280.3579,-3484.6258L13280.3752,-3484.6637L13280.3942,-3484.7004L13280.4064,-3484.7317L13280.4086,-3484.7397L13280.4135,-3484.7604L13280.4156,-3484.7694L13280.4182,-3484.7909L13280.4189,-3484.7986L13280.4175,-3484.8231L13280.4141,-3484.8388L13280.4093,-3484.8523L13280.4039,-3484.8633"/>
<path content="1,備北交通（株）,上村線,1.0,0.0,0.0," xlink:title="1" d="M13284.4375,-3481.4226L13284.4372,-3481.3178L13284.437,-3481.2752L13284.4369,-3481.2359L13284.4368,-3481.2104L13284.4362,-3481.193L13284.4371,-3481.162L13284.4381,-3481.1322L13284.4387,-3481.1104L13284.4398,-3481.0755L13284.4407,-3481.0473L13284.4417,-3481.0128L13284.4422,-3480.9792L13284.4425,-3480.9437L13284.4421,-3480.9156L13284.4419,-3480.9011L13284.4415,-3480.8778L13284.4415,-3480.8704L13284.4414,-3480.8604L13284.4459,-3480.8493L13284.4572,-3480.8398L13284.4686,-3480.8353L13284.4781,-3480.8315L13284.5054,-3480.8222L13284.5301,-3480.8142L13284.5656,-3480.8028L13284.5997,-3480.7913L13284.6331,-3480.7808L13284.6479,-3480.7766L13284.6616,-3480.7723L13284.668,-3480.7713"/>
<path content="1,備北交通（株）,下高野山線,5.0,0.0,0.0," xlink:title="1" d="M13284.668,-3482.809L13284.6266,-3482.7928L13284.588,-3482.7791L13284.5616,-3482.7688L13284.5418,-3482.7577L13284.4889,-3482.7285L13284.4279,-3482.696L13284.4024,-3482.6797L13284.378,-3482.6639L13284.3637,-3482.6539L13284.3543,-3482.6425L13284.3381,-3482.6155L13284.3184,-3482.5874L13284.3094,-3482.5741L13284.2995,-3482.5686L13284.2789,-3482.5645L13284.2618,-3482.559L13284.2394,-3482.5449L13284.2188,-3482.5283L13284.2013,-3482.5109L13284.1865,-3482.4832L13284.1739,-3482.4555L13284.1622,-3482.4282L13284.1519,-3482.4009L13284.1465,-3482.3794L13284.1456,-3482.3576L13284.1456,-3482.3262L13284.1474,-3482.3015L13284.1524,-3482.2797L13284.1582,-3482.259L13284.1676,-3482.2398L13284.1797,-3482.2213L13284.1932,-3482.2043L13284.2161,-3482.1829L13284.2439,-3482.1563L13284.2717,-3482.1334L13284.2964,-3482.1146L13284.3309,-3482.0928L13284.3736,-3482.064L13284.4,-3482.0481L13284.4166,-3482.0374L13284.4382,-3482.0255L13284.4588,-3482.013L13284.4786,-3481.9967L13284.4947,-3481.9812L13284.5068,-3481.9627L13284.5182,-3481.9406L13284.5266,-3481.9197L13284.5391,-3481.8992L13284.5477,-3481.8745L13284.5477,-3481.8623L13284.5418,-3481.8512L13284.5311,-3481.8405L13284.5014,-3481.8013L13284.4759,-3481.7677L13284.4566,-3481.7381L13284.4427,-3481.7156L13284.4341,-3481.7016L13284.4328,-3481.682L13284.4337,-3481.6554L13284.4333,-3481.6083L13284.4349,-3481.5441L13284.4362,-3481.4973L13284.4362,-3481.4544L13284.4375,-3481.4226L13284.4372,-3481.3178L13284.437,-3481.2752L13284.4369,-3481.2359L13284.4368,-3481.2104L13284.4362,-3481.193L13284.4371,-3481.162L13284.4381,-3481.1322L13284.4387,-3481.1104L13284.4398,-3481.0755L13284.4407,-3481.0473L13284.4417,-3481.0128L13284.4422,-3480.9792L13284.4425,-3480.9437L13284.4421,-3480.9156L13284.4419,-3480.9011L13284.4415,-3480.8778L13284.4415,-3480.8704L13284.4414,-3480.8604L13284.4459,-3480.8493L13284.4572,-3480.8398L13284.4686,-3480.8353L13284.4781,-3480.8315L13284.5054,-3480.8222L13284.5301,-3480.8142L13284.5656,-3480.8028L13284.5997,-3480.7913L13284.6331,-3480.7808L13284.6479,-3480.7766L13284.6616,-3480.7723L13284.668,-3480.7713"/>
<path content="1,備北交通（株）,作木線,3.0,3.0,1.0," xlink:title="1" d="M13284.668,-3480.7713L13284.6616,-3480.7723L13284.6479,-3480.7766L13284.6331,-3480.7808L13284.5997,-3480.7913L13284.5656,-3480.8028L13284.5301,-3480.8142L13284.5054,-3480.8222L13284.4781,-3480.8315L13284.4686,-3480.8353L13284.4572,-3480.8398L13284.4459,-3480.8493L13284.4414,-3480.8604L13284.4415,-3480.8704L13284.4415,-3480.8778L13284.4419,-3480.9011L13284.4421,-3480.9156L13284.4425,-3480.9437L13284.4422,-3480.9792L13284.4417,-3481.0128L13284.4407,-3481.0473L13284.4398,-3481.0755L13284.4387,-3481.1104L13284.4381,-3481.1322L13284.4371,-3481.162L13284.4362,-3481.193L13284.4368,-3481.2104L13284.4369,-3481.2359L13284.437,-3481.2752L13284.4372,-3481.3178L13284.4375,-3481.4226L13284.4362,-3481.4544L13284.4362,-3481.4973L13284.4349,-3481.5441L13284.4333,-3481.6083L13284.4337,-3481.6554L13284.3759,-3481.6559L13284.3584,-3481.6551L13284.3414,-3481.6521L13284.322,-3481.6487L13284.2729,-3481.6369L13284.2375,-3481.6281L13284.2101,-3481.6209L13284.1691,-3481.6099L13284.1431,-3481.6056L13284.1175,-3481.6052L13284.0781,-3481.6113L13284.0548,-3481.6173L13284.0068,-3481.6281L13283.879,-3481.653L13283.7929,-3481.6706L13283.6824,-3481.6952L13283.493,-3481.7409L13283.3489,-3481.7762L13283.2669,-3481.7936L13283.1486,-3481.8234L13283.1101,-3481.8323L13283.0734,-3481.8407L13283.047,-3481.8451L13283.0127,-3481.8471L13282.9876,-3481.8487L13282.9083,-3481.8473L13282.8259,-3481.843L13282.7864,-3481.8379L13282.737,-3481.8307L13282.6287,-3481.8084L13282.571,-3481.797L13282.5234,-3481.7884L13282.4918,-3481.7852L13282.4605,-3481.7852L13282.4302,-3481.7909L13282.4113,-3481.7957L13282.3918,-3481.8018L13282.3834,-3481.8069L13282.373,-3481.8177L13282.3655,-3481.8343L13282.3501,-3481.8993L13282.3452,-3481.9285L13282.3393,-3481.951L13282.3281,-3481.9755L13282.3123,-3481.9976L13282.2951,-3482.0199L13282.2737,-3482.0454L13282.258,-3482.0625L13282.2286,-3482.0906L13282.1901,-3482.1218L13282.1532,-3482.1479L13282.1173,-3482.1718L13282.0808,-3482.1909L13282.0533,-3482.2025L13282.0279,-3482.2085L13281.992,-3482.2136L13281.9511,-3482.2151L13281.9304,-3482.2157L13281.8991,-3482.2157L13281.8577,-3482.2136L13281.8221,-3482.2082L13281.7844,-3482.2007L13281.7467,-3482.1964L13281.737,-3482.1961L13281.6937,-3482.1954L13281.6665,-3482.2036L13281.6444,-3482.2129L13281.6258,-3482.2239L13281.6054,-3482.2375L13281.5855,-3482.2553L13281.5743,-3482.2692L13281.5642,-3482.2896L13281.5607,-3482.3026L13281.5594,-3482.3156L13281.5595,-3482.326L13281.5664,-3482.3671L13281.5791,-3482.4311L13281.5918,-3482.4914L13281.5954,-3482.5266L13281.5945,-3482.5633L13281.5905,-3482.602L13281.5852,-3482.6276L13281.5768,-3482.6549L13281.5617,-3482.683L13281.5486,-3482.6995L13281.5256,-3482.7145L13281.4988,-3482.728L13281.4611,-3482.7427L13281.4196,-3482.7564L13281.3861,-3482.7626L13281.344,-3482.7637L13281.3124,-3482.7632L13281.2894,-3482.7584L13281.2582,-3482.7487L13281.1949,-3482.7147L13281.1346,-3482.6822L13281.0506,-3482.637L13280.9977,-3482.6116L13280.9644,-3482.5984L13280.9306,-3482.5866L13280.892,-3482.5752L13280.8681,-3482.5702L13280.8348,-3482.5713L13280.8045,-3482.5747L13280.7676,-3482.5827L13280.7364,-3482.5941L13280.7203,-3482.6031L13280.7056,-3482.6152L13280.6891,-3482.6298L13280.6722,-3482.647L13280.663,-3482.6637L13280.6562,-3482.6854L13280.6527,-3482.7227L13280.6498,-3482.7636L13280.6464,-3482.8125L13280.6405,-3482.8719L13280.6361,-3482.9256L13280.6332,-3482.9772L13280.6261,-3483.0576L13280.6192,-3483.1555L13280.616,-3483.2036L13280.6111,-3483.2497L13280.6067,-3483.2966L13280.6043,-3483.3404L13280.5987,-3483.3902L13280.5949,-3483.4513L13280.5881,-3483.5333L13280.5915,-3483.571L13280.5949,-3483.6148L13280.5935,-3483.6279L13280.5879,-3483.6477L13280.5817,-3483.66L13280.5714,-3483.6809L13280.5602,-3483.7174L13280.5427,-3483.7697L13280.5347,-3483.7968L13280.523,-3483.8345L13280.5151,-3483.8576L13280.5062,-3483.8751L13280.495,-3483.8894L13280.4579,-3483.914L13280.4353,-3483.9267L13280.3886,-3483.9483L13280.3501,-3483.9664L13280.3168,-3483.9837L13280.2975,-3483.9947L13280.2734,-3484.0109M13280.2734,-3484.5337L13280.2934,-3484.551L13280.322,-3484.5723L13280.3383,-3484.5957L13280.3579,-3484.6258L13280.3752,-3484.6637L13280.3942,-3484.7004L13280.4064,-3484.7317L13280.4086,-3484.7397L13280.4135,-3484.7604L13280.4156,-3484.7694L13280.4182,-3484.7909L13280.4189,-3484.7986L13280.4175,-3484.8231L13280.4141,-3484.8388L13280.4093,-3484.8523L13280.4039,-3484.8633"/>
<path content="1,備北交通（株）,宮内線,6.0,0.0,0.0," xlink:title="1" d="M13284.668,-3482.809L13284.6266,-3482.7928L13284.588,-3482.7791L13284.5616,-3482.7688L13284.5418,-3482.7577L13284.4889,-3482.7285L13284.4279,-3482.696L13284.4024,-3482.6797L13284.378,-3482.6639L13284.3637,-3482.6539L13284.3543,-3482.6425L13284.3381,-3482.6155L13284.3184,-3482.5874L13284.3094,-3482.5741L13284.2995,-3482.5686L13284.2789,-3482.5645L13284.2618,-3482.559L13284.2394,-3482.5449L13284.2188,-3482.5283L13284.2013,-3482.5109L13284.1865,-3482.4832L13284.1739,-3482.4555L13284.1622,-3482.4282L13284.1519,-3482.4009L13284.1465,-3482.3794L13284.1456,-3482.3576L13284.1456,-3482.3262L13284.1474,-3482.3015L13284.1524,-3482.2797L13284.1582,-3482.259L13284.1676,-3482.2398L13284.1797,-3482.2213L13284.1932,-3482.2043L13284.2161,-3482.1829L13284.2439,-3482.1563L13284.2717,-3482.1334L13284.2964,-3482.1146L13284.3309,-3482.0928L13284.3736,-3482.064L13284.4,-3482.0481L13284.4166,-3482.0374L13284.4382,-3482.0255L13284.4588,-3482.013L13284.4786,-3481.9967L13284.4947,-3481.9812L13284.5068,-3481.9627L13284.5182,-3481.9406L13284.5266,-3481.9197L13284.5391,-3481.8992L13284.5477,-3481.8745L13284.5477,-3481.8623L13284.5418,-3481.8512L13284.5311,-3481.8405L13284.5014,-3481.8013L13284.4759,-3481.7677L13284.4566,-3481.7381L13284.4427,-3481.7156L13284.4341,-3481.7016L13284.4328,-3481.682L13284.4337,-3481.6554L13284.4333,-3481.6083L13284.4349,-3481.5441L13284.4362,-3481.4973L13284.4362,-3481.4544L13284.4375,-3481.4226L13284.4372,-3481.3178L13284.437,-3481.2752L13284.4369,-3481.2359L13284.4368,-3481.2104L13284.4362,-3481.193L13284.4371,-3481.162L13284.4381,-3481.1322L13284.4387,-3481.1104L13284.4398,-3481.0755L13284.4407,-3481.0473L13284.4417,-3481.0128L13284.4422,-3480.9792L13284.4425,-3480.9437L13284.4421,-3480.9156L13284.4419,-3480.9011L13284.4415,-3480.8778L13284.4415,-3480.8704L13284.4414,-3480.8604L13284.4459,-3480.8493L13284.4572,-3480.8398L13284.4686,-3480.8353L13284.4781,-3480.8315L13284.5054,-3480.8222L13284.5301,-3480.8142L13284.5656,-3480.8028L13284.5997,-3480.7913L13284.6331,-3480.7808L13284.6479,-3480.7766L13284.6616,-3480.7723L13284.668,-3480.7713"/>
<path content="1,備北交通（株）,広島線（高野～広島）,2.0,2.0,2.0," xlink:title="1" d="M13284.668,-3480.7713L13284.6616,-3480.7723L13284.6479,-3480.7766L13284.6331,-3480.7808L13284.5997,-3480.7913L13284.5656,-3480.8028L13284.5301,-3480.8142L13284.5054,-3480.8222L13284.4781,-3480.8315L13284.4686,-3480.8353L13284.4572,-3480.8398L13284.4459,-3480.8493L13284.4414,-3480.8604L13284.4415,-3480.8704L13284.4415,-3480.8778L13284.4419,-3480.9011L13284.4421,-3480.9156L13284.4425,-3480.9437L13284.4422,-3480.9792L13284.4417,-3481.0128L13284.4407,-3481.0473L13284.4398,-3481.0755L13284.4387,-3481.1104L13284.4381,-3481.1322L13284.4371,-3481.162L13284.4362,-3481.193L13284.4368,-3481.2104L13284.4369,-3481.2359L13284.437,-3481.2752L13284.4372,-3481.3178L13284.4375,-3481.4226L13284.4362,-3481.4544L13284.4362,-3481.4973L13284.4349,-3481.5441L13284.4333,-3481.6083L13284.4337,-3481.6554L13284.4328,-3481.682L13284.4341,-3481.7016L13284.4427,-3481.7156L13284.4566,-3481.7381L13284.4759,-3481.7677L13284.5014,-3481.8013L13284.5311,-3481.8405L13284.5418,-3481.8512L13284.5477,-3481.8623L13284.5477,-3481.8745L13284.5391,-3481.8992L13284.5266,-3481.9197L13284.5182,-3481.9406L13284.5068,-3481.9627L13284.4947,-3481.9812L13284.4786,-3481.9967L13284.4588,-3482.013L13284.4382,-3482.0255L13284.4166,-3482.0374L13284.4,-3482.0481L13284.3736,-3482.064L13284.3309,-3482.0928L13284.2964,-3482.1146L13284.2717,-3482.1334L13284.2439,-3482.1563L13284.2161,-3482.1829L13284.1932,-3482.2043L13284.1797,-3482.2213L13284.1676,-3482.2398L13284.1582,-3482.259L13284.1524,-3482.2797L13284.1474,-3482.3015L13284.1456,-3482.3262L13284.1456,-3482.3576L13284.1465,-3482.3794L13284.1519,-3482.4009L13284.1622,-3482.4282L13284.1739,-3482.4555L13284.1865,-3482.4832L13284.2013,-3482.5109L13284.2188,-3482.5283L13284.2394,-3482.5449L13284.2618,-3482.559L13284.2789,-3482.5645L13284.2995,-3482.5686L13284.3094,-3482.5741L13284.3184,-3482.5874L13284.3381,-3482.6155L13284.3543,-3482.6425L13284.3637,-3482.6539L13284.378,-3482.6639L13284.4024,-3482.6797L13284.4279,-3482.696L13284.4889,-3482.7285L13284.5418,-3482.7577L13284.5616,-3482.7688L13284.588,-3482.7791L13284.6266,-3482.7928L13284.668,-3482.809"/>
<path content="1,備北交通（株）,敷名廻神線,6.5,0.0,0.0," xlink:title="1" d="M13284.668,-3480.7713L13284.6616,-3480.7723L13284.6479,-3480.7766L13284.6331,-3480.7808L13284.5997,-3480.7913L13284.5656,-3480.8028L13284.5301,-3480.8142L13284.5054,-3480.8222L13284.4781,-3480.8315L13284.4686,-3480.8353L13284.4572,-3480.8398L13284.4459,-3480.8493L13284.4414,-3480.8604L13284.4415,-3480.8704L13284.4415,-3480.8778L13284.4419,-3480.9011L13284.4421,-3480.9156L13284.4425,-3480.9437L13284.4422,-3480.9792L13284.4417,-3481.0128L13284.4407,-3481.0473L13284.4398,-3481.0755L13284.4387,-3481.1104L13284.4381,-3481.1322L13284.4371,-3481.162L13284.4362,-3481.193L13284.4368,-3481.2104L13284.4369,-3481.2359L13284.437,-3481.2752L13284.4372,-3481.3178L13284.4375,-3481.4226"/>
<path content="1,備北交通（株）,敷名志和地線,4.0,0.0,0.0," xlink:title="1" d="M13284.4375,-3481.4226L13284.4372,-3481.3178L13284.437,-3481.2752L13284.4369,-3481.2359L13284.4368,-3481.2104L13284.4362,-3481.193L13284.4371,-3481.162L13284.4381,-3481.1322L13284.4387,-3481.1104L13284.4398,-3481.0755L13284.4407,-3481.0473L13284.4417,-3481.0128L13284.4422,-3480.9792L13284.4425,-3480.9437L13284.4421,-3480.9156L13284.4419,-3480.9011L13284.4415,-3480.8778L13284.4415,-3480.8704L13284.4414,-3480.8604L13284.4459,-3480.8493L13284.4572,-3480.8398L13284.4686,-3480.8353L13284.4781,-3480.8315L13284.5054,-3480.8222L13284.5301,-3480.8142L13284.5656,-3480.8028L13284.5997,-3480.7913L13284.6331,-3480.7808L13284.6479,-3480.7766L13284.6616,-3480.7723L13284.668,-3480.7713"/>
<path content="1,備北交通（株）,湯木線,4.0,0.0,0.0," xlink:title="1" d="M13284.668,-3480.7713L13284.6616,-3480.7723L13284.6479,-3480.7766L13284.6331,-3480.7808L13284.5997,-3480.7913L13284.5656,-3480.8028L13284.5301,-3480.8142L13284.5054,-3480.8222L13284.4781,-3480.8315L13284.4686,-3480.8353L13284.4572,-3480.8398L13284.4459,-3480.8493L13284.4414,-3480.8604L13284.4415,-3480.8704L13284.4415,-3480.8778L13284.4419,-3480.9011L13284.4421,-3480.9156L13284.4425,-3480.9437L13284.4422,-3480.9792L13284.4417,-3481.0128L13284.4407,-3481.0473L13284.4398,-3481.0755L13284.4387,-3481.1104L13284.4381,-3481.1322L13284.4371,-3481.162L13284.4362,-3481.193L13284.4368,-3481.2104L13284.4369,-3481.2359L13284.437,-3481.2752L13284.4372,-3481.3178L13284.4375,-3481.4226L13284.4362,-3481.4544L13284.4362,-3481.4973L13284.4349,-3481.5441L13284.4333,-3481.6083L13284.4337,-3481.6554L13284.4328,-3481.682L13284.4341,-3481.7016L13284.4427,-3481.7156L13284.4566,-3481.7381L13284.4759,-3481.7677L13284.5014,-3481.8013L13284.5311,-3481.8405L13284.5418,-3481.8512L13284.5477,-3481.8623L13284.5477,-3481.8745L13284.5391,-3481.8992L13284.5266,-3481.9197L13284.5182,-3481.9406L13284.5068,-3481.9627L13284.4947,-3481.9812L13284.4786,-3481.9967L13284.4588,-3482.013L13284.4382,-3482.0255L13284.4166,-3482.0374L13284.4,-3482.0481L13284.3736,-3482.064L13284.3309,-3482.0928L13284.2964,-3482.1146L13284.2717,-3482.1334L13284.2439,-3482.1563L13284.2161,-3482.1829L13284.1932,-3482.2043L13284.1797,-3482.2213L13284.1676,-3482.2398L13284.1582,-3482.259L13284.1524,-3482.2797L13284.1474,-3482.3015L13284.1456,-3482.3262L13284.1456,-3482.3576L13284.1465,-3482.3794L13284.1519,-3482.4009L13284.1622,-3482.4282L13284.1739,-3482.4555L13284.1865,-3482.4832L13284.2013,-3482.5109L13284.2188,-3482.5283L13284.2394,-3482.5449L13284.2618,-3482.559L13284.2789,-3482.5645L13284.2995,-3482.5686L13284.3094,-3482.5741L13284.3184,-3482.5874L13284.3381,-3482.6155L13284.3543,-3482.6425L13284.3637,-3482.6539L13284.378,-3482.6639L13284.4024,-3482.6797L13284.4279,-3482.696L13284.4889,-3482.7285L13284.5418,-3482.7577L13284.5616,-3482.7688L13284.588,-3482.7791L13284.6266,-3482.7928L13284.668,-3482.809"/>
<path content="1,備北交通（株）,神野瀬線,3.0,0.0,0.0," xlink:title="1" d="M13284.668,-3480.7713L13284.6616,-3480.7723L13284.6479,-3480.7766L13284.6331,-3480.7808L13284.5997,-3480.7913L13284.5656,-3480.8028L13284.5301,-3480.8142L13284.5054,-3480.8222L13284.4781,-3480.8315L13284.4686,-3480.8353L13284.4572,-3480.8398L13284.4459,-3480.8493L13284.4414,-3480.8604L13284.4415,-3480.8704L13284.4415,-3480.8778L13284.4419,-3480.9011L13284.4421,-3480.9156L13284.4425,-3480.9437L13284.4422,-3480.9792L13284.4417,-3481.0128L13284.4407,-3481.0473L13284.4398,-3481.0755L13284.4387,-3481.1104L13284.4381,-3481.1322L13284.4371,-3481.162L13284.4362,-3481.193L13284.4368,-3481.2104L13284.4369,-3481.2359L13284.437,-3481.2752L13284.4372,-3481.3178L13284.4375,-3481.4226L13284.4362,-3481.4544L13284.4362,-3481.4973L13284.4349,-3481.5441L13284.4333,-3481.6083L13284.4337,-3481.6554L13284.4328,-3481.682L13284.4341,-3481.7016L13284.4427,-3481.7156L13284.4566,-3481.7381L13284.4759,-3481.7677L13284.5014,-3481.8013L13284.5311,-3481.8405L13284.5418,-3481.8512L13284.5477,-3481.8623L13284.5477,-3481.8745L13284.5391,-3481.8992L13284.5266,-3481.9197L13284.5182,-3481.9406L13284.5068,-3481.9627L13284.4947,-3481.9812L13284.4786,-3481.9967L13284.4588,-3482.013L13284.4382,-3482.0255L13284.4166,-3482.0374L13284.4,-3482.0481L13284.3736,-3482.064L13284.3309,-3482.0928L13284.2964,-3482.1146L13284.2717,-3482.1334L13284.2439,-3482.1563L13284.2161,-3482.1829L13284.1932,-3482.2043L13284.1797,-3482.2213L13284.1676,-3482.2398L13284.1582,-3482.259L13284.1524,-3482.2797L13284.1474,-3482.3015L13284.1456,-3482.3262L13284.1456,-3482.3576L13284.1465,-3482.3794L13284.1519,-3482.4009L13284.1622,-3482.4282L13284.1739,-3482.4555L13284.1865,-3482.4832L13284.2013,-3482.5109L13284.2188,-3482.5283L13284.2394,-3482.5449L13284.2618,-3482.559L13284.2789,-3482.5645L13284.2995,-3482.5686L13284.3094,-3482.5741L13284.3184,-3482.5874L13284.3381,-3482.6155L13284.3543,-3482.6425L13284.3637,-3482.6539L13284.378,-3482.6639L13284.4024,-3482.6797L13284.4279,-3482.696L13284.4889,-3482.7285L13284.5418,-3482.7577L13284.5616,-3482.7688L13284.588,-3482.7791L13284.6266,-3482.7928L13284.668,-3482.809"/>
<path content="1,備北交通（株）,赤名線,4.0,0.0,0.0," xlink:title="1" d="M13284.668,-3480.7713L13284.6616,-3480.7723L13284.6479,-3480.7766L13284.6331,-3480.7808L13284.5997,-3480.7913L13284.5656,-3480.8028L13284.5301,-3480.8142L13284.5054,-3480.8222L13284.4781,-3480.8315L13284.4686,-3480.8353L13284.4572,-3480.8398L13284.4459,-3480.8493L13284.4414,-3480.8604L13284.4415,-3480.8704L13284.4415,-3480.8778L13284.4419,-3480.9011L13284.4421,-3480.9156L13284.4425,-3480.9437L13284.4422,-3480.9792L13284.4417,-3481.0128L13284.4407,-3481.0473L13284.4398,-3481.0755L13284.4387,-3481.1104L13284.4381,-3481.1322L13284.4371,-3481.162L13284.4362,-3481.193L13284.4368,-3481.2104L13284.4369,-3481.2359L13284.437,-3481.2752L13284.4372,-3481.3178L13284.4375,-3481.4226L13284.4362,-3481.4544L13284.4362,-3481.4973L13284.4349,-3481.5441L13284.4333,-3481.6083L13284.4337,-3481.6554L13284.3759,-3481.6559L13284.3584,-3481.6551L13284.3414,-3481.6521L13284.322,-3481.6487L13284.2729,-3481.6369L13284.2375,-3481.6281L13284.2101,-3481.6209L13284.1691,-3481.6099L13284.1431,-3481.6056L13284.1175,-3481.6052L13284.0781,-3481.6113L13284.0548,-3481.6173L13284.0068,-3481.6281L13283.879,-3481.653L13283.7929,-3481.6706L13283.6824,-3481.6952L13283.493,-3481.7409L13283.3489,-3481.7762L13283.2669,-3481.7936L13283.1486,-3481.8234L13283.1101,-3481.8323L13283.0734,-3481.8407L13283.047,-3481.8451L13283.0127,-3481.8471L13282.9876,-3481.8487L13282.9083,-3481.8473L13282.8259,-3481.843L13282.7864,-3481.8379L13282.737,-3481.8307L13282.6287,-3481.8084L13282.571,-3481.797L13282.5234,-3481.7884L13282.4918,-3481.7852L13282.4605,-3481.7852L13282.4302,-3481.7909L13282.4113,-3481.7957L13282.3918,-3481.8018L13282.3834,-3481.8069L13282.373,-3481.8177L13282.3655,-3481.8343L13282.3501,-3481.8993L13282.3452,-3481.9285L13282.3393,-3481.951L13282.3281,-3481.9755L13282.3123,-3481.9976L13282.2951,-3482.0199L13282.2737,-3482.0454L13282.258,-3482.0625L13282.2286,-3482.0906L13282.1901,-3482.1218L13282.1532,-3482.1479L13282.1173,-3482.1718L13282.0808,-3482.1909L13282.0533,-3482.2025L13282.0279,-3482.2085L13281.992,-3482.2136L13281.9511,-3482.2151L13281.9304,-3482.2157L13281.8991,-3482.2157L13281.8577,-3482.2136L13281.8221,-3482.2082L13281.7844,-3482.2007L13281.7467,-3482.1964L13281.737,-3482.1961L13281.6937,-3482.1954L13281.6665,-3482.2036L13281.6444,-3482.2129L13281.6258,-3482.2239L13281.6054,-3482.2375L13281.5855,-3482.2553L13281.5743,-3482.2692L13281.5642,-3482.2896L13281.5607,-3482.3026L13281.5594,-3482.3156L13281.5595,-3482.326L13281.5664,-3482.3671L13281.5791,-3482.4311L13281.5918,-3482.4914L13281.5954,-3482.5266L13281.5945,-3482.5633L13281.5905,-3482.602L13281.5852,-3482.6276L13281.5768,-3482.6549L13281.5617,-3482.683L13281.5486,-3482.6995L13281.5256,-3482.7145L13281.4988,-3482.728L13281.4611,-3482.7427L13281.4196,-3482.7564L13281.3861,-3482.7626L13281.344,-3482.7637L13281.3124,-3482.7632L13281.2894,-3482.7584L13281.2582,-3482.7487L13281.1949,-3482.7147L13281.1346,-3482.6822L13281.0506,-3482.637L13280.9977,-3482.6116L13280.9644,-3482.5984L13280.9306,-3482.5866L13280.892,-3482.5752L13280.8681,-3482.5702L13280.8348,-3482.5713L13280.8045,-3482.5747L13280.7676,-3482.5827L13280.7364,-3482.5941L13280.7203,-3482.6031L13280.7056,-3482.6152L13280.6891,-3482.6298L13280.6722,-3482.647L13280.663,-3482.6637L13280.6562,-3482.6854L13280.6527,-3482.7227L13280.6498,-3482.7636L13280.6464,-3482.8125L13280.6405,-3482.8719L13280.6361,-3482.9256L13280.6332,-3482.9772L13280.6261,-3483.0576L13280.6192,-3483.1555L13280.616,-3483.2036L13280.6111,-3483.2497L13280.6067,-3483.2966L13280.6043,-3483.3404L13280.5987,-3483.3902L13280.5949,-3483.4513L13280.5881,-3483.5333L13280.5915,-3483.571L13280.5949,-3483.6148L13280.5935,-3483.6279L13280.5879,-3483.6477L13280.5817,-3483.66L13280.5714,-3483.6809L13280.5602,-3483.7174L13280.5427,-3483.7697L13280.5347,-3483.7968L13280.523,-3483.8345L13280.5151,-3483.8576L13280.5062,-3483.8751L13280.495,-3483.8894L13280.4579,-3483.914L13280.4353,-3483.9267L13280.3886,-3483.9483L13280.3501,-3483.9664L13280.3168,-3483.9837L13280.2975,-3483.9947L13280.2734,-3484.0109M13280.2734,-3484.5337L13280.2934,-3484.551L13280.322,-3484.5723L13280.3383,-3484.5957L13280.3579,-3484.6258L13280.3752,-3484.6637L13280.3942,-3484.7004L13280.4064,-3484.7317L13280.4086,-3484.7397L13280.4135,-3484.7604L13280.4156,-3484.7694L13280.4182,-3484.7909L13280.4189,-3484.7986L13280.4175,-3484.8231L13280.4141,-3484.8388L13280.4093,-3484.8523L13280.4039,-3484.8633"/>
<path content="1,広島電鉄（株）,北方面　三次線　広島駅・バスセンター～中国自動車道・三次IC～三次小学校前（中筋・沼田経由）,2.5,1.5,2.0," xlink:title="1" d="M13284.668,-3480.7713L13284.6616,-3480.7723L13284.6479,-3480.7766L13284.6331,-3480.7808L13284.5997,-3480.7913L13284.5656,-3480.8028L13284.5301,-3480.8142L13284.5054,-3480.8222L13284.4781,-3480.8315L13284.4686,-3480.8353L13284.4572,-3480.8398L13284.4459,-3480.8493L13284.4414,-3480.8604L13284.4415,-3480.8704L13284.4415,-3480.8778L13284.4419,-3480.9011L13284.4421,-3480.9156L13284.4425,-3480.9437L13284.4422,-3480.9792L13284.4417,-3481.0128L13284.4407,-3481.0473L13284.4398,-3481.0755L13284.4387,-3481.1104L13284.4381,-3481.1322L13284.4371,-3481.162L13284.4362,-3481.193"/>
<path content="1,広島電鉄（株）,北方面　三次線　広島駅・バスセンター～中国自動車道・三次IC～三次小学校前（大塚駅経由）,4.0,2.0,2.5," xlink:title="1" d="M13284.668,-3480.7713L13284.6616,-3480.7723L13284.6479,-3480.7766L13284.6331,-3480.7808L13284.5997,-3480.7913L13284.5656,-3480.8028L13284.5301,-3480.8142L13284.5054,-3480.8222L13284.4781,-3480.8315L13284.4686,-3480.8353L13284.4572,-3480.8398L13284.4459,-3480.8493L13284.4414,-3480.8604L13284.4415,-3480.8704L13284.4415,-3480.8778L13284.4419,-3480.9011L13284.4421,-3480.9156L13284.4425,-3480.9437L13284.4422,-3480.9792L13284.4417,-3481.0128L13284.4407,-3481.0473L13284.4398,-3481.0755L13284.4387,-3481.1104L13284.4381,-3481.1322L13284.4371,-3481.162L13284.4362,-3481.193"/>
<path content="1,広島電鉄（株）,北方面　三次線（急行）　広島駅・バスセンター～中国自動車道・三次IC～三次小学校前,5.5,5.5,4.5," xlink:title="1" d="M13284.668,-3480.7713L13284.6616,-3480.7723L13284.6479,-3480.7766L13284.6331,-3480.7808L13284.5997,-3480.7913L13284.5656,-3480.8028L13284.5301,-3480.8142L13284.5054,-3480.8222L13284.4781,-3480.8315L13284.4686,-3480.8353L13284.4572,-3480.8398L13284.4459,-3480.8493L13284.4414,-3480.8604L13284.4415,-3480.8704L13284.4415,-3480.8778L13284.4419,-3480.9011L13284.4421,-3480.9156L13284.4425,-3480.9437L13284.4422,-3480.9792L13284.4417,-3481.0128L13284.4407,-3481.0473L13284.4398,-3481.0755L13284.4387,-3481.1104L13284.4381,-3481.1322L13284.4371,-3481.162L13284.4362,-3481.193"/>
<path content="1,広島電鉄（株）,広島～松江線,7.0,7.0,7.0," xlink:title="1" d="M13284.668,-3480.7713L13284.6616,-3480.7723L13284.6479,-3480.7766L13284.6331,-3480.7808L13284.5997,-3480.7913L13284.5656,-3480.8028L13284.5301,-3480.8142L13284.5054,-3480.8222L13284.4781,-3480.8315L13284.4686,-3480.8353L13284.4572,-3480.8398L13284.4459,-3480.8493L13284.4414,-3480.8604L13284.4415,-3480.8704L13284.4415,-3480.8778L13284.4419,-3480.9011L13284.4421,-3480.9156L13284.4425,-3480.9437L13284.4422,-3480.9792L13284.4417,-3481.0128L13284.4407,-3481.0473L13284.4398,-3481.0755L13284.4387,-3481.1104L13284.4381,-3481.1322L13284.4371,-3481.162L13284.4362,-3481.193L13284.4368,-3481.2104L13284.4369,-3481.2359L13284.437,-3481.2752L13284.4372,-3481.3178L13284.4375,-3481.4226L13284.4362,-3481.4544L13284.4362,-3481.4973L13284.4349,-3481.5441L13284.4333,-3481.6083L13284.4337,-3481.6554L13284.3759,-3481.6559L13284.3584,-3481.6551L13284.3414,-3481.6521L13284.322,-3481.6487L13284.2729,-3481.6369L13284.2375,-3481.6281L13284.2101,-3481.6209L13284.1691,-3481.6099L13284.1431,-3481.6056L13284.1175,-3481.6052L13284.0781,-3481.6113L13284.0548,-3481.6173L13284.0068,-3481.6281L13283.879,-3481.653L13283.7929,-3481.6706L13283.6824,-3481.6952L13283.493,-3481.7409L13283.3489,-3481.7762L13283.2669,-3481.7936L13283.1486,-3481.8234L13283.1101,-3481.8323L13283.0734,-3481.8407L13283.047,-3481.8451L13283.0127,-3481.8471L13282.9876,-3481.8487L13282.9083,-3481.8473L13282.8259,-3481.843L13282.7864,-3481.8379L13282.737,-3481.8307L13282.6287,-3481.8084L13282.571,-3481.797L13282.5234,-3481.7884L13282.4918,-3481.7852L13282.4605,-3481.7852L13282.4302,-3481.7909L13282.4113,-3481.7957L13282.3918,-3481.8018L13282.3834,-3481.8069L13282.373,-3481.8177L13282.3655,-3481.8343L13282.3501,-3481.8993L13282.3452,-3481.9285L13282.3393,-3481.951L13282.3281,-3481.9755L13282.3123,-3481.9976L13282.2951,-3482.0199L13282.2737,-3482.0454L13282.258,-3482.0625L13282.2286,-3482.0906L13282.1901,-3482.1218L13282.1532,-3482.1479L13282.1173,-3482.1718L13282.0808,-3482.1909L13282.0533,-3482.2025L13282.0279,-3482.2085L13281.992,-3482.2136L13281.9511,-3482.2151L13281.9304,-3482.2157L13281.8991,-3482.2157L13281.8577,-3482.2136L13281.8221,-3482.2082L13281.7844,-3482.2007L13281.7467,-3482.1964L13281.737,-3482.1961L13281.6937,-3482.1954L13281.6665,-3482.2036L13281.6444,-3482.2129L13281.6258,-3482.2239L13281.6054,-3482.2375L13281.5855,-3482.2553L13281.5743,-3482.2692L13281.5642,-3482.2896L13281.5607,-3482.3026L13281.5594,-3482.3156L13281.5595,-3482.326L13281.5664,-3482.3671L13281.5791,-3482.4311L13281.5918,-3482.4914L13281.5954,-3482.5266L13281.5945,-3482.5633L13281.5905,-3482.602L13281.5852,-3482.6276L13281.5768,-3482.6549L13281.5617,-3482.683L13281.5486,-3482.6995L13281.5256,-3482.7145L13281.4988,-3482.728L13281.4611,-3482.7427L13281.4196,-3482.7564L13281.3861,-3482.7626L13281.344,-3482.7637L13281.3124,-3482.7632L13281.2894,-3482.7584L13281.2582,-3482.7487L13281.1949,-3482.7147L13281.1346,-3482.6822L13281.0506,-3482.637L13280.9977,-3482.6116L13280.9644,-3482.5984L13280.9306,-3482.5866L13280.892,-3482.5752L13280.8681,-3482.5702L13280.8348,-3482.5713L13280.8045,-3482.5747L13280.7676,-3482.5827L13280.7364,-3482.5941L13280.7203,-3482.6031L13280.7056,-3482.6152L13280.6891,-3482.6298L13280.6722,-3482.647L13280.663,-3482.6637L13280.6562,-3482.6854L13280.6527,-3482.7227L13280.6498,-3482.7636L13280.6464,-3482.8125L13280.6405,-3482.8719L13280.6361,-3482.9256L13280.6332,-3482.9772L13280.6261,-3483.0576L13280.6192,-3483.1555L13280.616,-3483.2036L13280.6111,-3483.2497L13280.6067,-3483.2966L13280.6043,-3483.3404L13280.5987,-3483.3902L13280.5949,-3483.4513L13280.5881,-3483.5333L13280.5915,-3483.571L13280.5949,-3483.6148L13280.5935,-3483.6279L13280.5879,-3483.6477L13280.5817,-3483.66L13280.5714,-3483.6809L13280.5602,-3483.7174L13280.5427,-3483.7697L13280.5347,-3483.7968L13280.523,-3483.8345L13280.5151,-3483.8576L13280.5062,-3483.8751L13280.495,-3483.8894L13280.4579,-3483.914L13280.4353,-3483.9267L13280.3886,-3483.9483L13280.3501,-3483.9664L13280.3168,-3483.9837L13280.2975,-3483.9947L13280.2734,-3484.0109M13280.2734,-3484.5337L13280.2934,-3484.551L13280.322,-3484.5723L13280.3383,-3484.5957L13280.3579,-3484.6258L13280.3752,-3484.6637L13280.3942,-3484.7004L13280.4064,-3484.7317L13280.4086,-3484.7397L13280.4135,-3484.7604L13280.4156,-3484.7694L13280.4182,-3484.7909L13280.4189,-3484.7986L13280.4175,-3484.8231L13280.4141,-3484.8388L13280.4093,-3484.8523L13280.4039,-3484.8633"/>
<path content="1,阪急バス（株）,新見・三次行,7.0,7.0,7.0," xlink:title="1" d="M13284.668,-3480.7707L13284.661,-3480.772L13284.634,-3480.7802L13284.614,-3480.7875L13284.5642,-3480.8039L13284.5246,-3480.8163L13284.4781,-3480.8315L13284.457,-3480.8399L13284.4454,-3480.8495L13284.4397,-3480.8609L13284.4379,-3480.8765L13284.4386,-3480.9289L13284.4386,-3481.0095L13284.344,-3481.0044L13284.3017,-3481.0034L13284.2672,-3481.0033L13284.2229,-3481.0038L13284.2191,-3481.0166L13284.2148,-3481.0232L13284.1952,-3481.0208L13284.1854,-3481.0196L13284.0926,-3481.0055L13283.9997,-3480.992L13283.9685,-3480.9875L13283.9564,-3480.9857L13283.795,-3480.9469L13283.7881,-3481.0455L13283.7834,-3481.0894L13283.78,-3481.0979L13283.7766,-3481.117L13283.767,-3481.1474L13283.752,-3481.1818L13283.7445,-3481.1959L13283.739,-3481.206L13283.724,-3481.2258L13283.6899,-3481.2669L13283.6762,-3481.2809L13283.6178,-3481.3315L13283.6038,-3481.3431L13283.5896,-3481.3558L13283.585,-3481.3594L13283.5774,-3481.3606L13283.5537,-3481.3599L13283.5375,-3481.3586L13283.5308,-3481.3589L13283.5261,-3481.3598L13283.4742,-3481.388L13283.4524,-3481.3998L13283.3274,-3481.4522L13283.2879,-3481.4674L13283.2817,-3481.4691L13283.2128,-3481.4933L13283.1991,-3481.4989L13283.1807,-3481.5029L13283.1582,-3481.504L13283.1234,-3481.4995L13283.0892,-3481.4936L13283.0626,-3481.4871L13283.034,-3481.4798L13283.0073,-3481.473L13282.9821,-3481.4685L13282.9652,-3481.4641L13282.9412,-3481.455L13282.9057,-3481.4409L13282.8511,-3481.4268L13282.7691,-3481.4094L13282.733,-3481.3998L13282.7084,-3481.393L13282.6716,-3481.3823L13282.6307,-3481.363"/>
<path content="1,（株）中国バス,甲山発　甲山・吉舎・三次線,6.0,6.0,6.0," xlink:title="1" d="M13284.2101,-3481.6209L13284.2375,-3481.6281L13284.2729,-3481.6369L13284.322,-3481.6487L13284.3414,-3481.6521L13284.3584,-3481.6551L13284.3759,-3481.6559L13284.4337,-3481.6554L13284.4333,-3481.6083L13284.4349,-3481.5441L13284.4362,-3481.4973L13284.4362,-3481.4544L13284.4375,-3481.4226L13284.4372,-3481.3178L13284.437,-3481.2752L13284.4369,-3481.2359L13284.4368,-3481.2104L13284.4362,-3481.193L13284.4371,-3481.162L13284.4381,-3481.1322L13284.4387,-3481.1104L13284.4398,-3481.0755L13284.4407,-3481.0473L13284.4417,-3481.0128L13284.4422,-3480.9792L13284.4425,-3480.9437L13284.4421,-3480.9156L13284.4419,-3480.9011L13284.4415,-3480.8778L13284.4415,-3480.8704L13284.4414,-3480.8604L13284.4459,-3480.8493L13284.4572,-3480.8398L13284.4686,-3480.8353L13284.4781,-3480.8315L13284.5054,-3480.8222L13284.5301,-3480.8142L13284.5656,-3480.8028L13284.5997,-3480.7913L13284.6331,-3480.7808L13284.6479,-3480.7766L13284.6616,-3480.7723L13284.668,-3480.7713"/>
<path content="1,（株）中国バス,郊外線　尾道・市・甲山・三次線,18.7,15.7,11.0," xlink:title="1" d="M13284.2101,-3481.6209L13284.2375,-3481.6281L13284.2729,-3481.6369L13284.322,-3481.6487L13284.3414,-3481.6521L13284.3584,-3481.6551L13284.3759,-3481.6559L13284.4337,-3481.6554L13284.4333,-3481.6083L13284.4349,-3481.5441L13284.4362,-3481.4973L13284.4362,-3481.4544L13284.4375,-3481.4226L13284.4372,-3481.3178L13284.437,-3481.2752L13284.4369,-3481.2359L13284.4368,-3481.2104L13284.4362,-3481.193L13284.4371,-3481.162L13284.4381,-3481.1322L13284.4387,-3481.1104L13284.4398,-3481.0755L13284.4407,-3481.0473L13284.4417,-3481.0128L13284.4422,-3480.9792L13284.4425,-3480.9437L13284.4421,-3480.9156L13284.4419,-3480.9011L13284.4415,-3480.8778L13284.4415,-3480.8704L13284.4414,-3480.8604L13284.4459,-3480.8493L13284.4572,-3480.8398L13284.4686,-3480.8353L13284.4781,-3480.8315L13284.5054,-3480.8222L13284.5301,-3480.8142L13284.5656,-3480.8028L13284.5997,-3480.7913L13284.6331,-3480.7808L13284.6479,-3480.7766L13284.6616,-3480.7723L13284.668,-3480.7713"/>
<path content="1,（株）中国バス,関西　大阪線　三次・庄原～東城・新大阪,5.0,5.0,5.0," xlink:title="1" d="M13282.6307,-3481.363L13282.4502,-3481.7019L13282.3834,-3481.8069L13282.3918,-3481.8018L13282.4113,-3481.7957L13282.4302,-3481.7909L13282.4605,-3481.7852L13282.4918,-3481.7852L13282.5234,-3481.7884L13282.571,-3481.797L13282.6287,-3481.8084L13282.737,-3481.8307L13282.7864,-3481.8379L13282.8259,-3481.843L13282.9083,-3481.8473L13282.9876,-3481.8487L13283.0127,-3481.8471L13283.047,-3481.8451L13283.0734,-3481.8407L13283.1101,-3481.8323L13283.1486,-3481.8234L13283.2669,-3481.7936L13283.3489,-3481.7762L13283.493,-3481.7409L13283.6824,-3481.6952L13283.7929,-3481.6706L13283.879,-3481.653L13284.0068,-3481.6281L13284.0548,-3481.6173L13284.0781,-3481.6113L13284.1175,-3481.6052L13284.1431,-3481.6056L13284.1691,-3481.6099L13284.2101,-3481.6209L13284.2375,-3481.6281L13284.2729,-3481.6369L13284.322,-3481.6487L13284.3414,-3481.6521L13284.3584,-3481.6551L13284.3759,-3481.6559L13284.4337,-3481.6554L13284.4333,-3481.6083L13284.4349,-3481.5441L13284.4362,-3481.4973L13284.4362,-3481.4544L13284.4375,-3481.4226L13284.4372,-3481.3178L13284.437,-3481.2752L13284.4369,-3481.2359L13284.4368,-3481.2104L13284.4362,-3481.193L13284.4371,-3481.162L13284.4381,-3481.1322L13284.4387,-3481.1104L13284.4398,-3481.0755L13284.4407,-3481.0473L13284.4417,-3481.0128L13284.4422,-3480.9792L13284.4425,-3480.9437L13284.4421,-3480.9156L13284.4419,-3480.9011L13284.4415,-3480.8778L13284.4415,-3480.8704L13284.4414,-3480.8604L13284.4459,-3480.8493L13284.4572,-3480.8398L13284.4686,-3480.8353L13284.4781,-3480.8315L13284.5054,-3480.8222L13284.5301,-3480.8142L13284.5656,-3480.8028L13284.5997,-3480.7913L13284.6331,-3480.7808L13284.6479,-3480.7766L13284.6616,-3480.7723L13284.668,-3480.7713"/>
<path content="2,三次市,布野町線　月・金コース,2.0,0.0,0.0," xlink:title="2" d="M13280.3752,-3484.6637L13280.3942,-3484.7004L13280.4064,-3484.7317L13280.4086,-3484.7397L13280.4135,-3484.7604L13280.4156,-3484.7694L13280.4182,-3484.7909L13280.4189,-3484.7986L13280.4175,-3484.8231L13280.4141,-3484.8388L13280.4093,-3484.8523L13280.4039,-3484.8633"/>
<path content="2,三次市,布野町線　水コース,1.0,0.0,0.0," xlink:title="2" d="M13280.3752,-3484.6637L13280.3942,-3484.7004L13280.4064,-3484.7317L13280.4086,-3484.7397L13280.4135,-3484.7604L13280.4156,-3484.7694L13280.4182,-3484.7909L13280.4189,-3484.7986L13280.4175,-3484.8231L13280.4141,-3484.8388L13280.4093,-3484.8523L13280.4039,-3484.8633"/>
<path content="3,三次市,くるるん,8.0,8.0,8.0," xlink:title="3" d="M13284.668,-3481.2206L13284.5334,-3481.2145L13284.4368,-3481.2104"/>
<path content="3,三次市,くるるん,8.0,8.0,8.0," xlink:title="3" d="M13284.4368,-3481.2104L13284.4362,-3481.193L13284.4371,-3481.162L13284.4381,-3481.1322L13284.4387,-3481.1104L13284.4398,-3481.0755L13284.4407,-3481.0473L13284.4417,-3481.0128L13284.4422,-3480.9792L13284.4425,-3480.9437L13284.4421,-3480.9156L13284.4419,-3480.9011L13284.4415,-3480.8778L13284.4415,-3480.8704L13284.4414,-3480.8604L13284.4459,-3480.8493L13284.4572,-3480.8398L13284.4686,-3480.8353L13284.4781,-3480.8315L13284.5054,-3480.8222L13284.5301,-3480.8142L13284.5656,-3480.8028L13284.5997,-3480.7913L13284.6331,-3480.7808L13284.6479,-3480.7766L13284.6616,-3480.7723L13284.668,-3480.7713"/>
<path content="3,三次市,くるるん,8.0,8.0,8.0," xlink:title="3" d="M13284.4368,-3481.2104L13284.4369,-3481.2359L13284.437,-3481.2752L13284.4372,-3481.3178L13284.4375,-3481.4226"/>
<path content="3,三次市,畠敷線,10.0,10.0,0.0," xlink:title="3" d="M13284.668,-3481.2206L13284.5334,-3481.2145L13284.4368,-3481.2104L13284.4362,-3481.193L13284.4371,-3481.162L13284.4381,-3481.1322L13284.4387,-3481.1104L13284.4398,-3481.0755L13284.4407,-3481.0473L13284.4417,-3481.0128L13284.4422,-3480.9792L13284.4425,-3480.9437L13284.4421,-3480.9156L13284.4419,-3480.9011L13284.4415,-3480.8778L13284.4415,-3480.8704L13284.4414,-3480.8604L13284.4459,-3480.8493L13284.4572,-3480.8398L13284.4686,-3480.8353L13284.4781,-3480.8315L13284.5054,-3480.8222L13284.5301,-3480.8142L13284.5656,-3480.8028L13284.5997,-3480.7913L13284.6331,-3480.7808L13284.6479,-3480.7766L13284.6616,-3480.7723L13284.668,-3480.7713"/>
<path content="3,庄原市,本村東城線,7.0,0.0,0.0," xlink:title="3" d="M13284.668,-3480.7713L13284.6616,-3480.7723L13284.6479,-3480.7766L13284.6331,-3480.7808L13284.5997,-3480.7913L13284.5656,-3480.8028L13284.5301,-3480.8142L13284.5054,-3480.8222L13284.4781,-3480.8315L13284.4686,-3480.8353L13284.4572,-3480.8398L13284.4459,-3480.8493L13284.4414,-3480.8604L13284.4415,-3480.8704L13284.4415,-3480.8778L13284.4419,-3480.9011L13284.4421,-3480.9156L13284.4425,-3480.9437L13284.4422,-3480.9792L13284.4417,-3481.0128L13284.4407,-3481.0473L13284.4398,-3481.0755L13284.4387,-3481.1104L13284.4381,-3481.1322L13284.4371,-3481.162L13284.4362,-3481.193L13284.4368,-3481.2104L13284.4369,-3481.2359L13284.437,-3481.2752L13284.4372,-3481.3178L13284.4375,-3481.4226"/>
</g>
</svg>
