<?xml version="1.0" encoding="UTF-8"?>
<svg  xmlns="http://www.w3.org/2000/svg" xmlns:xlink="http://www.w3.org/1999/xlink" xmlns:go="http://purl.org/svgmap/profile" property="N07_001,N07_002,N07_003,N07_004,N07_005,N07_006,N07_007" viewBox="13306.640625 -3498.046875 8.7890625 8.7890625" go:dataArea="13306.640625 -3498.046875 8.7890625 8.7890625" >
<metadata>
 <rdf:RDF xmlns:rdf="http://www.w3.org/1999/02/22-rdf-syntax-ns#" xmlns:crs="http://opengis.org/xmldtds/transformations.dtd" xmlns:svg="http://www.w3.org/svg" >
  <rdf:Description>
   <crs:CoordinateReferenceSystem rdf:resource="http://purl.org/crs/84" svg:transform="matrix(100.0,0.0,0.0,-100.0,0.0,0.0)" />
  </rdf:Description>
 </rdf:RDF>
</metadata>
<globalCoordinateSystem srsName="http://purl.org/crs/84" transform="matrix(100.0,0.0,0.0,-100.0,0.0,0.0)" />
<defs>
 <g id="p0" >
  <circle cx="0.0" cy="0.0" r="3" stroke="green" stroke-width="0.75" vector-effect="non-scaling-stroke" />
 </g>
</defs>
<g fill="none" fill-rule="evenodd" stroke="#FF00FF" stroke-width="0.75" opacity="0.5" vector-effect="non-scaling-stroke" stroke-linejoin="bevel" >
<path content="1,備北交通（株）,三城線,37.0,0.0,0.0," xlink:title="1" d="M13307.8411,-3489.2578L13307.846,-3489.2689L13307.8623,-3489.3042L13307.8789,-3489.3446L13307.8868,-3489.3648L13307.9171,-3489.4398L13307.9346,-3489.4836L13307.9508,-3489.5261L13307.9678,-3489.5635L13307.9824,-3489.597L13307.9965,-3489.6279L13308.0073,-3489.6535L13308.0227,-3489.6854L13308.031,-3489.7046L13308.0398,-3489.7249L13308.058,-3489.7556L13308.0738,-3489.7775L13308.0988,-3489.8094L13308.1246,-3489.8375L13308.1561,-3489.8728L13308.2069,-3489.9259L13308.2414,-3489.9618L13308.2688,-3489.992L13308.3116,-3490.0372L13308.344,-3490.0714L13308.3802,-3490.1064L13308.4201,-3490.1451L13308.4513,-3490.1749L13308.487,-3490.2102L13308.5253,-3490.2482L13308.5556,-3490.2804L13308.5893,-3490.3129L13308.6213,-3490.3475L13308.6454,-3490.3712L13308.6733,-3490.3986L13308.7036,-3490.4264L13308.7369,-3490.4565L13308.7739,-3490.491L13308.7984,-3490.515L13308.8229,-3490.5356L13308.8379,-3490.5448L13308.8537,-3490.5506L13308.8919,-3490.562L13308.9544,-3490.584L13308.9958,-3490.5965L13309.0295,-3490.6068L13309.0719,-3490.6157L13309.1114,-3490.6233L13309.1351,-3490.6284L13309.1555,-3490.6335L13309.175,-3490.6404L13309.1975,-3490.6538L13309.2332,-3490.6777L13309.2769,-3490.7065L13309.3492,-3490.7541L13309.3712,-3490.773L13309.4232,-3490.8134L13309.4531,-3490.8387L13309.4776,-3490.8565L13309.5188,-3490.887L13309.5475,-3490.9048L13309.5732,-3490.9229L13309.6107,-3490.9497L13309.6497,-3490.9747L13309.6905,-3491.0018L13309.7466,-3491.0401L13309.7882,-3491.072L13309.8189,-3491.0939L13309.8368,-3491.1138L13309.8676,-3491.1515L13309.907,-3491.1991L13309.9253,-3491.2227L13309.944,-3491.2461L13309.9769,-3491.2895L13309.9935,-3491.3125L13310.0122,-3491.332L13310.0293,-3491.347L13310.043,-3491.3584L13310.0584,-3491.3673L13310.0692,-3491.3714L13310.0908,-3491.3738L13310.117,-3491.3755L13310.1353,-3491.3765L13310.1527,-3491.3799L13310.1747,-3491.3892L13310.2026,-3491.407L13310.24,-3491.4317L13310.2816,-3491.457L13310.3032,-3491.469L13310.3327,-3491.4793L13310.3651,-3491.4885L13310.3876,-3491.4943L13310.4159,-3491.4984L13310.4449,-3491.5032L13310.4947,-3491.5086L13310.5568,-3491.5145L13310.6403,-3491.5204L13310.6939,-3491.5241L13310.7771,-3491.5234L13310.8332,-3491.5286L13310.8918,-3491.5348L13310.9479,-3491.5423L13310.9986,-3491.5502L13311.0415,-3491.557L13311.1017,-3491.5676L13311.152,-3491.5765L13311.2069,-3491.5892L13311.2701,-3491.6039L13311.3111,-3491.6174L13311.3574,-3491.6358L13311.3861,-3491.6437L13311.426,-3491.6499L13311.4609,-3491.6536L13311.4854,-3491.6591L13311.5066,-3491.6677L13311.5216,-3491.6786L13311.5295,-3491.691L13311.5428,-3491.7232L13311.5469,-3491.7396L13311.5569,-3491.7653L13311.5667,-3491.8048L13311.5873,-3491.8571L13311.5948,-3491.8722L13311.6027,-3491.8872L13311.6155,-3491.9006L13311.6355,-3491.9146L13311.6575,-3491.9273L13311.6958,-3491.9444L13311.729,-3491.9585L13311.7299,-3491.9749L13311.7299,-3492.0037L13311.7265,-3492.0345L13311.7236,-3492.0609L13311.7178,-3492.0856L13311.7103,-3492.1157L13311.7028,-3492.1383L13311.6958,-3492.1623L13311.6829,-3492.1972L13311.6721,-3492.2325L13311.6621,-3492.2626L13311.6492,-3492.2935L13311.6409,-3492.3212L13311.6209,-3492.364L13311.6097,-3492.3925L13311.5989,-3492.4199L13311.591,-3492.4401L13311.5852,-3492.4599L13311.5837,-3492.4774L13311.5893,-3492.4973L13311.6018,-3492.5202L13311.6172,-3492.5363L13311.6446,-3492.5607L13311.6729,-3492.5898L13311.7062,-3492.6196L13311.7315,-3492.6439L13311.7432,-3492.6555L13311.7535,-3492.6696L13311.7635,-3492.6874L13311.7714,-3492.7117L13311.7752,-3492.7347L13311.7806,-3492.7638L13311.7856,-3492.8056L13311.7856,-3492.8354L13311.7831,-3492.8707L13311.7759,-3492.9324L13311.7706,-3492.9731L13311.7689,-3492.9905L13311.7702,-3493.0097L13311.7785,-3493.0279L13311.7856,-3493.0484L13311.7959,-3493.0721L13311.8051,-3493.096L13311.8126,-3493.1183L13311.818,-3493.1382L13311.8219,-3493.1556L13311.766,-3493.1721L13311.7339,-3493.1876L13311.7394,-3493.2015L13311.7439,-3493.2291L13311.7644,-3493.2759L13311.7705,-3493.3073L13311.7889,-3493.3523L13311.7943,-3493.373L13311.8099,-3493.4122L13311.8147,-3493.4215L13311.8147,-3493.4361L13311.8147,-3493.4673L13311.8138,-3493.4862L13311.8103,-3493.5056L13311.8076,-3493.5177L13311.7919,-3493.543L13311.7772,-3493.5735L13311.7494,-3493.6319L13311.7402,-3493.6438L13311.7274,-3493.6594L13311.7115,-3493.6699L13311.7016,-3493.6763L13311.6796,-3493.682L13311.6451,-3493.6931L13311.6034,-3493.7084L13311.5923,-3493.7152L13311.5836,-3493.722L13311.5781,-3493.7273L13311.5732,-3493.7394L13311.5721,-3493.7535L13311.5712,-3493.7725L13311.5733,-3493.7978L13311.5757,-3493.8127L13311.5794,-3493.8322L13311.5812,-3493.8391L13311.5882,-3493.8555L13311.6097,-3493.8863L13311.622,-3493.907L13311.6255,-3493.914L13311.638,-3493.9311L13311.6536,-3493.9602L13311.6875,-3494.0164L13311.6924,-3494.0244L13311.7095,-3494.0408L13311.7334,-3494.0683L13311.7402,-3494.0723L13311.7816,-3494.1175L13311.8379,-3494.174L13311.845,-3494.1831L13311.8562,-3494.1942L13311.8681,-3494.2011L13311.8941,-3494.2172L13311.91,-3494.2299L13311.9443,-3494.2463L13311.9646,-3494.2585L13311.9755,-3494.2614L13311.9944,-3494.2719L13312.0391,-3494.2884L13312.0616,-3494.298L13312.094,-3494.312L13312.1022,-3494.3147L13312.1268,-3494.3223L13312.1464,-3494.3284L13312.1568,-3494.3302L13312.201,-3494.3421L13312.2114,-3494.3473L13312.2188,-3494.3532"/>
<path content="1,広島電鉄（株）,広島～米子線（法勝寺経由）,1.0,1.0,1.0," xlink:title="1" d="M13307.8411,-3489.2578L13307.846,-3489.2689L13307.8623,-3489.3042L13307.8789,-3489.3446L13307.8868,-3489.3648L13307.9171,-3489.4398L13307.9346,-3489.4836L13307.9508,-3489.5261L13307.9678,-3489.5635L13307.9824,-3489.597L13307.9965,-3489.6279L13308.0073,-3489.6535L13308.0227,-3489.6854L13308.031,-3489.7046L13308.0398,-3489.7249L13308.058,-3489.7556L13308.0738,-3489.7775L13308.0988,-3489.8094L13308.1246,-3489.8375L13308.1561,-3489.8728L13308.2069,-3489.9259L13308.2414,-3489.9618L13308.2688,-3489.992L13308.3116,-3490.0372L13308.344,-3490.0714L13308.3802,-3490.1064L13308.4201,-3490.1451L13308.4513,-3490.1749L13308.487,-3490.2102L13308.5253,-3490.2482L13308.5556,-3490.2804L13308.5893,-3490.3129L13308.6213,-3490.3475L13308.6454,-3490.3712L13308.6733,-3490.3986L13308.7036,-3490.4264L13308.7369,-3490.4565L13308.7739,-3490.491L13308.7984,-3490.515L13308.8229,-3490.5356L13308.8379,-3490.5448L13308.8537,-3490.5506L13308.8919,-3490.562L13308.9544,-3490.584L13308.9958,-3490.5965L13309.0295,-3490.6068L13309.0719,-3490.6157L13309.1114,-3490.6233L13309.1351,-3490.6284L13309.1555,-3490.6335L13309.175,-3490.6404L13309.1975,-3490.6538L13309.2332,-3490.6777L13309.2769,-3490.7065L13309.3492,-3490.7541L13309.3712,-3490.773L13309.4232,-3490.8134L13309.4531,-3490.8387L13309.4776,-3490.8565L13309.5188,-3490.887L13309.5475,-3490.9048L13309.5732,-3490.9229L13309.6107,-3490.9497L13309.6497,-3490.9747L13309.6905,-3491.0018L13309.7466,-3491.0401L13309.7882,-3491.072L13309.8189,-3491.0939L13309.8368,-3491.1138L13309.8676,-3491.1515L13309.907,-3491.1991L13309.9253,-3491.2227L13309.944,-3491.2461L13309.9769,-3491.2895L13309.9935,-3491.3125L13310.0122,-3491.332L13310.0293,-3491.347L13310.043,-3491.3584L13310.0584,-3491.3673L13310.0692,-3491.3714L13310.0908,-3491.3738L13310.117,-3491.3755L13310.1353,-3491.3765L13310.1527,-3491.3799L13310.1747,-3491.3892L13310.2026,-3491.407L13310.24,-3491.4317L13310.2816,-3491.457L13310.3032,-3491.469L13310.3327,-3491.4793L13310.3651,-3491.4885L13310.3876,-3491.4943L13310.4159,-3491.4984L13310.4449,-3491.5032L13310.4947,-3491.5086L13310.5568,-3491.5145L13310.6403,-3491.5204L13310.6939,-3491.5241L13310.7771,-3491.5234L13310.8332,-3491.5286L13310.8918,-3491.5348L13310.9479,-3491.5423L13310.9986,-3491.5502L13311.0415,-3491.557L13311.1017,-3491.5676L13311.152,-3491.5765L13311.2069,-3491.5892L13311.2701,-3491.6039L13311.3111,-3491.6174L13311.3574,-3491.6358L13311.3861,-3491.6437L13311.426,-3491.6499L13311.4609,-3491.6536L13311.4854,-3491.6591L13311.5066,-3491.6677L13311.5216,-3491.6786L13311.5295,-3491.691L13311.5428,-3491.7232L13311.5469,-3491.7396L13311.5569,-3491.7653L13311.5667,-3491.8048L13311.5873,-3491.8571L13311.5948,-3491.8722L13311.6027,-3491.8872L13311.6155,-3491.9006L13311.6355,-3491.9146L13311.6575,-3491.9273L13311.6958,-3491.9444L13311.729,-3491.9585L13311.7299,-3491.9749L13311.7299,-3492.0037L13311.7265,-3492.0345L13311.7236,-3492.0609L13311.7178,-3492.0856L13311.7103,-3492.1157L13311.7028,-3492.1383L13311.6958,-3492.1623L13311.6829,-3492.1972L13311.6721,-3492.2325L13311.6621,-3492.2626L13311.6492,-3492.2935L13311.6409,-3492.3212L13311.6209,-3492.364L13311.6097,-3492.3925L13311.5989,-3492.4199L13311.591,-3492.4401L13311.5852,-3492.4599L13311.5837,-3492.4774L13311.5893,-3492.4973L13311.6018,-3492.5202L13311.6172,-3492.5363L13311.6446,-3492.5607L13311.6729,-3492.5898L13311.7062,-3492.6196L13311.7315,-3492.6439L13311.7432,-3492.6555L13311.7535,-3492.6696L13311.7635,-3492.6874L13311.7714,-3492.7117L13311.7752,-3492.7347L13311.7806,-3492.7638L13311.7856,-3492.8056L13311.7856,-3492.8354L13311.7831,-3492.8707L13311.7759,-3492.9324L13311.7706,-3492.9731L13311.7689,-3492.9905L13311.7702,-3493.0097L13311.7785,-3493.0279L13311.7856,-3493.0484L13311.7959,-3493.0721L13311.8051,-3493.096L13311.8126,-3493.1183L13311.818,-3493.1382L13311.8219,-3493.1556L13311.8576,-3493.2225L13311.8904,-3493.2787L13311.912,-3493.3165L13311.9281,-3493.3577L13311.9339,-3493.3786L13311.9366,-3493.3996L13311.9377,-3493.4249L13311.9344,-3493.4536L13311.9252,-3493.4881L13311.8894,-3493.5737L13311.8682,-3493.6175L13311.8447,-3493.6568L13311.8231,-3493.6898L13311.795,-3493.7233L13311.7646,-3493.7512L13311.7226,-3493.7755L13311.6993,-3493.7843L13311.6507,-3493.7988L13311.5757,-3493.8127L13311.5794,-3493.8322L13311.5812,-3493.8391L13311.5882,-3493.8555L13311.6097,-3493.8863L13311.622,-3493.907L13311.6255,-3493.914L13311.638,-3493.9311L13311.6536,-3493.9602L13311.6875,-3494.0164L13311.6924,-3494.0244L13311.7095,-3494.0408L13311.7334,-3494.0683L13311.7402,-3494.0723L13311.7816,-3494.1175L13311.8379,-3494.174L13311.845,-3494.1831L13311.8562,-3494.1942L13311.8681,-3494.2011L13311.8941,-3494.2172L13311.91,-3494.2299L13311.9443,-3494.2463L13311.9646,-3494.2585L13311.9755,-3494.2614L13311.9944,-3494.2719L13312.0391,-3494.2884L13312.0616,-3494.298L13312.094,-3494.312L13312.1022,-3494.3147L13312.1268,-3494.3223L13312.1464,-3494.3284L13312.1568,-3494.3302L13312.201,-3494.3421L13312.2114,-3494.3473L13312.2188,-3494.3532L13312.2416,-3494.3635L13312.2578,-3494.3721L13312.2715,-3494.3945L13312.2794,-3494.4062L13312.2894,-3494.4393L13312.2927,-3494.4575L13312.2935,-3494.4963L13312.2953,-3494.5823L13312.2995,-3494.6733L13312.3,-3494.7165L13312.3035,-3494.8368L13312.3055,-3494.9584L13312.3065,-3494.9696L13312.3209,-3495.04L13312.3262,-3495.0647L13312.3357,-3495.1027L13312.3592,-3495.2023L13312.3748,-3495.2755L13312.3946,-3495.3564L13312.4198,-3495.4418L13312.4274,-3495.4722L13312.4446,-3495.5289L13312.4541,-3495.5638L13312.4642,-3495.633L13312.4763,-3495.7177L13312.4778,-3495.7694L13312.4757,-3495.8005L13312.4738,-3495.8291L13312.4586,-3495.8907L13312.4378,-3495.9481L13312.423,-3495.9815L13312.3791,-3496.0658L13312.3467,-3496.1283L13312.3108,-3496.2015L13312.3072,-3496.2182L13312.303,-3496.2503L13312.2994,-3496.3188L13312.2954,-3496.4327L13312.2957,-3496.5286L13312.2926,-3496.5693L13312.279,-3496.6621L13312.2787,-3496.6703L13312.2772,-3496.7423L13312.2754,-3496.7856L13312.278,-3496.8977L13312.2739,-3496.9118L13312.2624,-3496.9465L13312.2572,-3496.9705L13312.2598,-3497.0381L13312.2633,-3497.0532L13312.2666,-3497.0664L13312.2922,-3497.1183L13312.3262,-3497.1878L13312.3389,-3497.209L13312.3551,-3497.2274L13312.3791,-3497.2475L13312.4277,-3497.2816L13312.4501,-3497.3023L13312.4839,-3497.3357L13312.501,-3497.354L13312.5128,-3497.3687L13312.5289,-3497.3849L13312.5454,-3497.3982L13312.5653,-3497.4059L13312.584,-3497.4093L13312.6163,-3497.405L13312.6423,-3497.3935L13312.6829,-3497.3772L13312.7027,-3497.3768L13312.7735,-3497.3768L13312.825,-3497.38L13312.8833,-3497.3815L13312.9176,-3497.3853L13312.9634,-3497.4008L13313.017,-3497.4256L13313.0862,-3497.4646L13313.1388,-3497.4967L13313.2116,-3497.5386L13313.2652,-3497.5686L13313.3251,-3497.5998L13313.3813,-3497.6294L13313.4489,-3497.6748L13313.488,-3497.7069L13313.5208,-3497.7377L13313.5546,-3497.7715L13313.578,-3497.7865L13313.6144,-3497.8054L13313.6425,-3497.8169L13313.6758,-3497.8242L13313.6956,-3497.828L13313.7222,-3497.8268L13313.7539,-3497.8199L13313.7685,-3497.8182L13313.7966,-3497.8203L13313.8392,-3497.8332L13313.8882,-3497.8567L13313.9532,-3497.8854L13313.9985,-3497.9055L13314.0183,-3497.9201L13314.0297,-3497.9445L13314.0261,-3497.9728L13314.0177,-3498.0014L13314.0068,-3498.0147L13313.9844,-3498.0417L13313.979,-3498.0469"/>
<path content="1,広島電鉄（株）,広島～米子線（溝口経由）,1.0,1.0,1.0," xlink:title="1" d="M13307.8411,-3489.2578L13307.846,-3489.2689L13307.8623,-3489.3042L13307.8789,-3489.3446L13307.8868,-3489.3648L13307.9171,-3489.4398L13307.9346,-3489.4836L13307.9508,-3489.5261L13307.9678,-3489.5635L13307.9824,-3489.597L13307.9965,-3489.6279L13308.0073,-3489.6535L13308.0227,-3489.6854L13308.031,-3489.7046L13308.0398,-3489.7249L13308.058,-3489.7556L13308.0738,-3489.7775L13308.0988,-3489.8094L13308.1246,-3489.8375L13308.1561,-3489.8728L13308.2069,-3489.9259L13308.2414,-3489.9618L13308.2688,-3489.992L13308.3116,-3490.0372L13308.344,-3490.0714L13308.3802,-3490.1064L13308.4201,-3490.1451L13308.4513,-3490.1749L13308.487,-3490.2102L13308.5253,-3490.2482L13308.5556,-3490.2804L13308.5893,-3490.3129L13308.6213,-3490.3475L13308.6454,-3490.3712L13308.6733,-3490.3986L13308.7036,-3490.4264L13308.7369,-3490.4565L13308.7739,-3490.491L13308.7984,-3490.515L13308.8229,-3490.5356L13308.8379,-3490.5448L13308.8537,-3490.5506L13308.8919,-3490.562L13308.9544,-3490.584L13308.9958,-3490.5965L13309.0295,-3490.6068L13309.0719,-3490.6157L13309.1114,-3490.6233L13309.1351,-3490.6284L13309.1555,-3490.6335L13309.175,-3490.6404L13309.1975,-3490.6538L13309.2332,-3490.6777L13309.2769,-3490.7065L13309.3492,-3490.7541L13309.3712,-3490.773L13309.4232,-3490.8134L13309.4531,-3490.8387L13309.4776,-3490.8565L13309.5188,-3490.887L13309.5475,-3490.9048L13309.5732,-3490.9229L13309.6107,-3490.9497L13309.6497,-3490.9747L13309.6905,-3491.0018L13309.7466,-3491.0401L13309.7882,-3491.072L13309.8189,-3491.0939L13309.8368,-3491.1138L13309.8676,-3491.1515L13309.907,-3491.1991L13309.9253,-3491.2227L13309.944,-3491.2461L13309.9769,-3491.2895L13309.9935,-3491.3125L13310.0122,-3491.332L13310.0293,-3491.347L13310.043,-3491.3584L13310.0584,-3491.3673L13310.0692,-3491.3714L13310.0908,-3491.3738L13310.117,-3491.3755L13310.1353,-3491.3765L13310.1527,-3491.3799L13310.1747,-3491.3892L13310.2026,-3491.407L13310.24,-3491.4317L13310.2816,-3491.457L13310.3032,-3491.469L13310.3327,-3491.4793L13310.3651,-3491.4885L13310.3876,-3491.4943L13310.4159,-3491.4984L13310.4449,-3491.5032L13310.4947,-3491.5086L13310.5568,-3491.5145L13310.6403,-3491.5204L13310.6939,-3491.5241L13310.7771,-3491.5234L13310.8332,-3491.5286L13310.8918,-3491.5348L13310.9479,-3491.5423L13310.9986,-3491.5502L13311.0415,-3491.557L13311.1017,-3491.5676L13311.152,-3491.5765L13311.2069,-3491.5892L13311.2701,-3491.6039L13311.3111,-3491.6174L13311.3574,-3491.6358L13311.3861,-3491.6437L13311.426,-3491.6499L13311.4609,-3491.6536L13311.4854,-3491.6591L13311.5066,-3491.6677L13311.5216,-3491.6786L13311.5295,-3491.691L13311.5428,-3491.7232L13311.5469,-3491.7396L13311.5569,-3491.7653L13311.5667,-3491.8048L13311.5873,-3491.8571L13311.5948,-3491.8722L13311.6027,-3491.8872L13311.6155,-3491.9006L13311.6355,-3491.9146L13311.6575,-3491.9273L13311.6958,-3491.9444L13311.729,-3491.9585L13311.7299,-3491.9749L13311.7299,-3492.0037L13311.7265,-3492.0345L13311.7236,-3492.0609L13311.7178,-3492.0856L13311.7103,-3492.1157L13311.7028,-3492.1383L13311.6958,-3492.1623L13311.6829,-3492.1972L13311.6721,-3492.2325L13311.6621,-3492.2626L13311.6492,-3492.2935L13311.6409,-3492.3212L13311.6209,-3492.364L13311.6097,-3492.3925L13311.5989,-3492.4199L13311.591,-3492.4401L13311.5852,-3492.4599L13311.5837,-3492.4774L13311.5893,-3492.4973L13311.6018,-3492.5202L13311.6172,-3492.5363L13311.6446,-3492.5607L13311.6729,-3492.5898L13311.7062,-3492.6196L13311.7315,-3492.6439L13311.7432,-3492.6555L13311.7535,-3492.6696L13311.7635,-3492.6874L13311.7714,-3492.7117L13311.7752,-3492.7347L13311.7806,-3492.7638L13311.7856,-3492.8056L13311.7856,-3492.8354L13311.7831,-3492.8707L13311.7759,-3492.9324L13311.7706,-3492.9731L13311.7689,-3492.9905L13311.7702,-3493.0097L13311.7785,-3493.0279L13311.7856,-3493.0484L13311.7959,-3493.0721L13311.8051,-3493.096L13311.8126,-3493.1183L13311.818,-3493.1382L13311.8219,-3493.1556L13311.8576,-3493.2225L13311.8904,-3493.2787L13311.912,-3493.3165L13311.9281,-3493.3577L13311.9339,-3493.3786L13311.9366,-3493.3996L13311.9377,-3493.4249L13311.9344,-3493.4536L13311.9252,-3493.4881L13311.8894,-3493.5737L13311.8682,-3493.6175L13311.8447,-3493.6568L13311.8231,-3493.6898L13311.795,-3493.7233L13311.7646,-3493.7512L13311.7226,-3493.7755L13311.6993,-3493.7843L13311.6507,-3493.7988L13311.5757,-3493.8127L13311.5794,-3493.8322L13311.5812,-3493.8391L13311.5882,-3493.8555L13311.6097,-3493.8863L13311.622,-3493.907L13311.6255,-3493.914L13311.638,-3493.9311L13311.6536,-3493.9602L13311.6875,-3494.0164L13311.6924,-3494.0244L13311.7095,-3494.0408L13311.7334,-3494.0683L13311.7402,-3494.0723L13311.7816,-3494.1175L13311.8379,-3494.174L13311.845,-3494.1831L13311.8562,-3494.1942L13311.8681,-3494.2011L13311.8941,-3494.2172L13311.91,-3494.2299L13311.9443,-3494.2463L13311.9646,-3494.2585L13311.9755,-3494.2614L13311.9944,-3494.2719L13312.0391,-3494.2884L13312.0616,-3494.298L13312.094,-3494.312L13312.1022,-3494.3147L13312.1268,-3494.3223L13312.1464,-3494.3284L13312.1568,-3494.3302L13312.201,-3494.3421L13312.2114,-3494.3473L13312.2188,-3494.3532L13312.2416,-3494.3635L13312.2578,-3494.3721L13312.2715,-3494.3945L13312.2794,-3494.4062L13312.2894,-3494.4393L13312.2927,-3494.4575L13312.2935,-3494.4963L13312.2953,-3494.5823L13312.2995,-3494.6733L13312.3,-3494.7165L13312.3035,-3494.8368L13312.3055,-3494.9584L13312.3065,-3494.9696L13312.3209,-3495.04L13312.3262,-3495.0647L13312.3357,-3495.1027L13312.3592,-3495.2023L13312.3748,-3495.2755L13312.3946,-3495.3564L13312.4198,-3495.4418L13312.4274,-3495.4722L13312.4446,-3495.5289L13312.4541,-3495.5638L13312.4642,-3495.633L13312.4763,-3495.7177L13312.4778,-3495.7694L13312.4757,-3495.8005L13312.4738,-3495.8291L13312.4586,-3495.8907L13312.4378,-3495.9481L13312.423,-3495.9815L13312.3791,-3496.0658L13312.3467,-3496.1283L13312.3108,-3496.2015L13312.3072,-3496.2182L13312.303,-3496.2503L13312.2994,-3496.3188L13312.2954,-3496.4327L13312.2957,-3496.5286L13312.2926,-3496.5693L13312.279,-3496.6621L13312.2787,-3496.6703L13312.2772,-3496.7423L13312.2754,-3496.7856L13312.278,-3496.8977L13312.2739,-3496.9118L13312.2624,-3496.9465L13312.2572,-3496.9705L13312.2598,-3497.0381L13312.2633,-3497.0532L13312.2666,-3497.0664L13312.2922,-3497.1183L13312.3262,-3497.1878L13312.3389,-3497.209L13312.3551,-3497.2274L13312.3791,-3497.2475L13312.4277,-3497.2816L13312.4501,-3497.3023L13312.4839,-3497.3357L13312.501,-3497.354L13312.5128,-3497.3687L13312.5289,-3497.3849L13312.5454,-3497.3982L13312.5653,-3497.4059L13312.584,-3497.4093L13312.6163,-3497.405L13312.6423,-3497.3935L13312.6829,-3497.3772L13312.7027,-3497.3768L13312.7735,-3497.3768L13312.825,-3497.38L13312.8833,-3497.3815L13312.9176,-3497.3853L13312.9634,-3497.4008L13313.017,-3497.4256L13313.0862,-3497.4646L13313.1388,-3497.4967L13313.2116,-3497.5386L13313.2652,-3497.5686L13313.3251,-3497.5998L13313.3813,-3497.6294L13313.4489,-3497.6748L13313.488,-3497.7069L13313.5208,-3497.7377L13313.5546,-3497.7715L13313.578,-3497.7865L13313.6144,-3497.8054L13313.6425,-3497.8169L13313.6758,-3497.8242L13313.6956,-3497.828L13313.7222,-3497.8268L13313.7539,-3497.8199L13313.7685,-3497.8182L13313.7966,-3497.8203L13313.8392,-3497.8332L13313.8882,-3497.8567L13313.9532,-3497.8854L13313.9985,-3497.9055L13314.0183,-3497.9201L13314.0297,-3497.9445L13314.0261,-3497.9728L13314.0177,-3498.0014L13314.0068,-3498.0147L13313.9844,-3498.0417L13313.979,-3498.0469"/>
<path content="1,日ノ丸自動車（株）,広島‐米子線,5.0,5.0,5.0," xlink:title="1" d="M13307.8411,-3489.2578L13307.846,-3489.2689L13307.8623,-3489.3042L13307.8789,-3489.3446L13307.8868,-3489.3648L13307.9346,-3489.4836L13307.9508,-3489.5261L13307.9678,-3489.5635L13307.9824,-3489.597L13307.9965,-3489.6279L13308.0073,-3489.6535L13308.0227,-3489.6854L13308.0398,-3489.7249L13308.058,-3489.7556L13308.0738,-3489.7775L13308.0988,-3489.8094L13308.1246,-3489.8375L13308.1561,-3489.8728L13308.2069,-3489.9259L13308.2414,-3489.9618L13308.2688,-3489.992L13308.3116,-3490.0372L13308.344,-3490.0714L13308.4513,-3490.1749L13308.5253,-3490.2482L13308.5556,-3490.2804L13308.5893,-3490.3129L13308.6213,-3490.3475L13308.6454,-3490.3712L13308.6733,-3490.3986L13308.7036,-3490.4264L13308.7288,-3490.449L13308.7739,-3490.491L13308.7984,-3490.515L13308.8229,-3490.5356L13308.8379,-3490.5448L13308.8537,-3490.5506L13308.8919,-3490.562L13308.9544,-3490.584L13308.9958,-3490.5965L13309.0295,-3490.6068L13309.0719,-3490.6157L13309.1114,-3490.6233L13309.1351,-3490.6284L13309.1555,-3490.6335L13309.175,-3490.6404L13309.1975,-3490.6538L13309.2332,-3490.6777L13309.2769,-3490.7065L13309.3492,-3490.7541L13309.3712,-3490.773L13309.4232,-3490.8134L13309.4531,-3490.8387L13309.4776,-3490.8565L13309.5188,-3490.887L13309.5475,-3490.9048L13309.5732,-3490.9229L13309.6107,-3490.9497L13309.6497,-3490.9747L13309.6905,-3491.0018L13309.7466,-3491.0401L13309.7882,-3491.072L13309.8189,-3491.0939L13309.8368,-3491.1138L13309.8676,-3491.1515L13309.907,-3491.1991L13309.9253,-3491.2227"/>
<path content="1,日ノ丸自動車（株）,広島‐米子線,5.0,5.0,5.0," xlink:title="1" d="M13309.925,-3491.2231L13309.9437,-3491.2464L13309.9765,-3491.2898L13309.9932,-3491.3128L13310.0119,-3491.3323L13310.0289,-3491.3474L13310.0426,-3491.3587L13310.058,-3491.3676L13310.0688,-3491.3717L13310.0904,-3491.3741L13310.1166,-3491.3758L13310.1353,-3491.3765L13310.1527,-3491.3799L13310.1747,-3491.3892L13310.2026,-3491.407L13310.24,-3491.4317L13310.2816,-3491.457L13310.3032,-3491.469L13310.3327,-3491.4793L13310.3651,-3491.4885L13310.3876,-3491.4943L13310.4159,-3491.4984L13310.4449,-3491.5032L13310.4947,-3491.5086L13310.5568,-3491.5145L13310.6939,-3491.5241L13310.7771,-3491.5234L13310.8332,-3491.5286L13310.8918,-3491.5348L13310.9479,-3491.5423L13311.0415,-3491.557L13311.1017,-3491.5676L13311.152,-3491.5765L13311.2069,-3491.5892L13311.2701,-3491.6039L13311.3111,-3491.6174L13311.3574,-3491.6358L13311.3861,-3491.6437L13311.426,-3491.6499L13311.4609,-3491.6536L13311.4854,-3491.6591L13311.5066,-3491.6677L13311.5216,-3491.6786L13311.5295,-3491.691L13311.5428,-3491.7232L13311.5469,-3491.7396L13311.5569,-3491.7653L13311.5667,-3491.8048L13311.5873,-3491.8571L13311.5948,-3491.8722L13311.6027,-3491.8872L13311.6155,-3491.9006L13311.6355,-3491.9146L13311.6575,-3491.9273L13311.6958,-3491.9444L13311.729,-3491.9585L13311.7299,-3491.9749L13311.7299,-3492.0037L13311.7265,-3492.0345L13311.7236,-3492.0609L13311.7103,-3492.1157L13311.7028,-3492.1383L13311.6958,-3492.1623L13311.6829,-3492.1972L13311.6721,-3492.2325L13311.6621,-3492.2626L13311.6492,-3492.2935L13311.6409,-3492.3212L13311.6209,-3492.364L13311.5989,-3492.4199L13311.591,-3492.4401L13311.5852,-3492.4599L13311.5837,-3492.4774L13311.5893,-3492.4973L13311.6018,-3492.5202L13311.6172,-3492.5363L13311.6446,-3492.5607L13311.6729,-3492.5898L13311.7062,-3492.6196L13311.7315,-3492.6439L13311.7432,-3492.6555L13311.7535,-3492.6696L13311.7635,-3492.6874L13311.7714,-3492.7117L13311.7752,-3492.7347L13311.7806,-3492.7638L13311.7856,-3492.8056L13311.7856,-3492.8354L13311.7827,-3492.871L13311.7759,-3492.9324L13311.7706,-3492.9731L13311.7689,-3492.9905L13311.7698,-3493.0098L13311.7781,-3493.0282L13311.7852,-3493.0488L13311.7956,-3493.0724L13311.8126,-3493.1183L13311.818,-3493.1382L13311.8219,-3493.1556L13311.8576,-3493.2225L13311.8904,-3493.2787L13311.912,-3493.3165L13311.9281,-3493.3577L13311.9339,-3493.3786L13311.9366,-3493.3996L13311.9377,-3493.4249L13311.9344,-3493.4536L13311.9252,-3493.4881L13311.9041,-3493.5383L13311.8894,-3493.5737L13311.8682,-3493.6175L13311.8447,-3493.6568L13311.8231,-3493.6898L13311.795,-3493.7233L13311.7646,-3493.7512L13311.7226,-3493.7755L13311.6993,-3493.7843L13311.6507,-3493.7988L13311.5757,-3493.8127L13311.5794,-3493.8322L13311.5812,-3493.8391L13311.5882,-3493.8555L13311.6097,-3493.8863L13311.622,-3493.907L13311.6255,-3493.914L13311.638,-3493.9311L13311.6536,-3493.9602L13311.6875,-3494.0164L13311.6924,-3494.0244L13311.7095,-3494.0408L13311.7334,-3494.0683L13311.7402,-3494.0723L13311.7816,-3494.1175L13311.8379,-3494.174L13311.845,-3494.1831L13311.8562,-3494.1942L13311.8681,-3494.2011L13311.8941,-3494.2172L13311.91,-3494.2299L13311.9443,-3494.2463L13311.9646,-3494.2585L13311.9755,-3494.2614L13311.9944,-3494.2719L13312.0391,-3494.2884L13312.094,-3494.312L13312.1464,-3494.3284L13312.1568,-3494.3302L13312.201,-3494.3421L13312.2114,-3494.3473L13312.2188,-3494.3532L13312.2416,-3494.3635L13312.2578,-3494.3721L13312.2715,-3494.3945L13312.2794,-3494.4062L13312.2894,-3494.4393L13312.2927,-3494.4575L13312.2935,-3494.4963L13312.2953,-3494.5823L13312.2995,-3494.6733L13312.3,-3494.7165L13312.3035,-3494.8368L13312.3055,-3494.9584L13312.3065,-3494.9696L13312.3209,-3495.04L13312.3262,-3495.0647L13312.3357,-3495.1027L13312.3592,-3495.2023L13312.3748,-3495.2755L13312.3946,-3495.3564L13312.4198,-3495.4418L13312.4274,-3495.4722L13312.4446,-3495.5289L13312.4541,-3495.5638L13312.4642,-3495.633L13312.4763,-3495.7177L13312.4778,-3495.7694L13312.4757,-3495.8005L13312.4738,-3495.8291L13312.4586,-3495.8907L13312.4378,-3495.9481L13312.423,-3495.9815L13312.3791,-3496.0658L13312.3467,-3496.1283L13312.3108,-3496.2015L13312.3072,-3496.2182L13312.303,-3496.2503L13312.2994,-3496.3188L13312.2954,-3496.4327L13312.2957,-3496.5286L13312.2926,-3496.5693L13312.279,-3496.6621L13312.2787,-3496.6703L13312.2772,-3496.7423L13312.2754,-3496.7856L13312.278,-3496.8977L13312.2739,-3496.9118L13312.2624,-3496.9465L13312.2572,-3496.9705L13312.2598,-3497.0381L13312.2633,-3497.0532L13312.2666,-3497.0664L13312.2922,-3497.1183L13312.3262,-3497.1878L13312.3389,-3497.209L13312.3551,-3497.2274L13312.3791,-3497.2475L13312.4277,-3497.2816L13312.4501,-3497.3023L13312.4839,-3497.3357L13312.501,-3497.354L13312.5128,-3497.3687L13312.5289,-3497.3849L13312.5454,-3497.3982L13312.5653,-3497.4059L13312.584,-3497.4093L13312.6163,-3497.405L13312.6423,-3497.3935L13312.6829,-3497.3772L13312.7027,-3497.3768L13312.7735,-3497.3768L13312.825,-3497.38L13312.8833,-3497.3815L13312.9176,-3497.3853L13312.9634,-3497.4008L13313.017,-3497.4256L13313.0862,-3497.4646L13313.1388,-3497.4967L13313.2116,-3497.5386L13313.2652,-3497.5686L13313.3251,-3497.5998L13313.3813,-3497.6294L13313.4489,-3497.6748L13313.488,-3497.7069L13313.5208,-3497.7377L13313.5546,-3497.7715L13313.578,-3497.7865L13313.6144,-3497.8054L13313.6425,-3497.8169L13313.6758,-3497.8242L13313.6956,-3497.828L13313.7222,-3497.8268L13313.7539,-3497.8199L13313.7685,-3497.8182L13313.7966,-3497.8203L13313.8392,-3497.8332L13313.8882,-3497.8567L13313.9532,-3497.8854L13313.9985,-3497.9055L13314.0183,-3497.9201L13314.0297,-3497.9445L13314.0261,-3497.9728L13314.0177,-3498.0014L13314.0068,-3498.0147L13313.9844,-3498.0417L13313.979,-3498.0469"/>
<path content="1,日本交通（株）,米子～広島線　R180経由ノンストップ便,2.0,2.0,2.0," xlink:title="1" d="M13307.8411,-3489.2578L13307.846,-3489.2689L13307.8623,-3489.3042L13307.8789,-3489.3446L13307.8868,-3489.3648L13307.9346,-3489.4836L13307.9508,-3489.5261L13307.9678,-3489.5635L13307.9824,-3489.597L13307.9965,-3489.6279L13308.0073,-3489.6535L13308.0227,-3489.6854L13308.0398,-3489.7249L13308.058,-3489.7556L13308.0738,-3489.7775L13308.0988,-3489.8094L13308.1246,-3489.8375L13308.1561,-3489.8728L13308.2069,-3489.9259L13308.2414,-3489.9618L13308.2688,-3489.992L13308.344,-3490.0714L13308.4513,-3490.1749L13308.5253,-3490.2482L13308.5556,-3490.2804L13308.5893,-3490.3129L13308.6213,-3490.3475L13308.6454,-3490.3712L13308.6733,-3490.3986L13308.7036,-3490.4264L13308.7288,-3490.449L13308.7739,-3490.491L13308.7984,-3490.515L13308.8229,-3490.5356L13308.8379,-3490.5448L13308.8537,-3490.5506L13308.8919,-3490.562L13308.9544,-3490.584L13308.9958,-3490.5965L13309.0295,-3490.6068L13309.0719,-3490.6157L13309.1114,-3490.6233L13309.1351,-3490.6284L13309.1543,-3490.6333L13309.175,-3490.6404L13309.1975,-3490.6538L13309.2332,-3490.6777L13309.2769,-3490.7065L13309.3492,-3490.7541L13309.3712,-3490.773L13309.4232,-3490.8134L13309.4531,-3490.8387L13309.4776,-3490.8565L13309.5188,-3490.887L13309.5475,-3490.9048L13309.5732,-3490.9229L13309.6107,-3490.9497L13309.6497,-3490.9747L13309.6905,-3491.0018L13309.7466,-3491.0401L13309.7882,-3491.072L13309.8189,-3491.0939L13309.8368,-3491.1138L13309.8676,-3491.1515L13309.907,-3491.1991L13309.9253,-3491.2227"/>
<path content="1,日本交通（株）,米子～広島線　R180経由ノンストップ便,2.0,2.0,2.0," xlink:title="1" d="M13309.9252,-3491.2221L13309.9439,-3491.2455L13309.9767,-3491.2889L13309.9934,-3491.3119L13310.0121,-3491.3314L13310.0291,-3491.3465L13310.0428,-3491.3578L13310.0582,-3491.3667L13310.069,-3491.3708L13310.0906,-3491.3732L13310.1168,-3491.3749L13310.1351,-3491.3759L13310.1526,-3491.3793L13310.1746,-3491.3886L13310.2025,-3491.4064L13310.2399,-3491.4311L13310.2814,-3491.4564L13310.3031,-3491.4684L13310.3326,-3491.4787L13310.365,-3491.4879L13310.3874,-3491.4938L13310.4157,-3491.4979L13310.4448,-3491.5027L13310.4945,-3491.5081L13310.5566,-3491.514L13310.6938,-3491.5236L13310.7769,-3491.5228L13310.8331,-3491.528L13310.8917,-3491.5342L13310.9478,-3491.5417L13311.0413,-3491.5564L13311.1016,-3491.5671L13311.1519,-3491.576L13311.2068,-3491.5886L13311.27,-3491.6034L13311.311,-3491.6169L13311.3572,-3491.6352L13311.3859,-3491.6431L13311.4258,-3491.6493L13311.4608,-3491.653L13311.4853,-3491.6585L13311.5066,-3491.6677L13311.5216,-3491.6786L13311.5295,-3491.691L13311.5428,-3491.7232L13311.5468,-3491.739L13311.5568,-3491.7647L13311.5666,-3491.8042L13311.5873,-3491.8571L13311.5948,-3491.8722L13311.6027,-3491.8872L13311.6155,-3491.9006L13311.6355,-3491.9146L13311.6575,-3491.9273L13311.6958,-3491.9444L13311.729,-3491.9585L13311.7299,-3491.9749L13311.7299,-3492.0037L13311.7265,-3492.0345L13311.7236,-3492.0609L13311.7103,-3492.1157L13311.7028,-3492.1383L13311.6958,-3492.1623L13311.6829,-3492.1972L13311.6721,-3492.2325L13311.6621,-3492.2626L13311.6492,-3492.2935L13311.6409,-3492.3212L13311.6209,-3492.364L13311.5989,-3492.4199L13311.591,-3492.4401L13311.5852,-3492.4599L13311.5837,-3492.4774L13311.5893,-3492.4973L13311.6018,-3492.5202L13311.6172,-3492.5363L13311.6446,-3492.5607L13311.6729,-3492.5898L13311.7062,-3492.6196L13311.7315,-3492.6439L13311.7432,-3492.6555L13311.7535,-3492.6696L13311.7635,-3492.6874L13311.7714,-3492.7117L13311.7752,-3492.7347L13311.7806,-3492.7638L13311.7856,-3492.8056L13311.7856,-3492.8354L13311.7831,-3492.8707L13311.7759,-3492.9324L13311.7706,-3492.9731L13311.7689,-3492.9905L13311.77,-3493.0088L13311.7785,-3493.0279L13311.7856,-3493.0484L13311.7959,-3493.0721L13311.8126,-3493.1183L13311.818,-3493.1382L13311.8219,-3493.1556L13311.8576,-3493.2225L13311.8904,-3493.2787L13311.912,-3493.3165L13311.9281,-3493.3577L13311.9339,-3493.3786L13311.9366,-3493.3996L13311.9377,-3493.4249L13311.9344,-3493.4536L13311.9252,-3493.4881L13311.8894,-3493.5737L13311.8682,-3493.6175L13311.8447,-3493.6568L13311.8231,-3493.6898L13311.795,-3493.7233L13311.7646,-3493.7512L13311.7226,-3493.7755L13311.6993,-3493.7843L13311.6712,-3493.7928L13311.6507,-3493.7988L13311.5757,-3493.8127L13311.5794,-3493.8322L13311.5812,-3493.8391L13311.5883,-3493.8558L13311.6097,-3493.8863L13311.622,-3493.907L13311.6255,-3493.914L13311.638,-3493.9311L13311.6536,-3493.9602L13311.6875,-3494.0164L13311.6924,-3494.0244L13311.7095,-3494.0408L13311.7334,-3494.0683L13311.7402,-3494.0723L13311.7816,-3494.1175L13311.8379,-3494.174L13311.845,-3494.1831L13311.8562,-3494.1942L13311.8681,-3494.2011L13311.8941,-3494.2172L13311.91,-3494.2299L13311.9443,-3494.2463L13311.9646,-3494.2585L13311.9755,-3494.2614L13311.9944,-3494.2719L13312.0391,-3494.2884L13312.094,-3494.312L13312.1464,-3494.3284L13312.1568,-3494.3302L13312.201,-3494.3421L13312.2114,-3494.3473L13312.2188,-3494.3532L13312.2416,-3494.3635L13312.2578,-3494.3721L13312.2715,-3494.3945L13312.2794,-3494.4062L13312.2894,-3494.4393L13312.2927,-3494.4575L13312.2935,-3494.4963L13312.2953,-3494.5823L13312.2995,-3494.6733L13312.3,-3494.7165L13312.3035,-3494.8368L13312.3055,-3494.9584L13312.3065,-3494.9696L13312.3209,-3495.04L13312.3262,-3495.0647L13312.3357,-3495.1027L13312.3592,-3495.2023L13312.3748,-3495.2755L13312.3946,-3495.3564L13312.4198,-3495.4418L13312.4274,-3495.4722L13312.4446,-3495.5289L13312.4541,-3495.5638L13312.4642,-3495.633L13312.4763,-3495.7177L13312.4778,-3495.7694L13312.4757,-3495.8005L13312.4738,-3495.8291L13312.4586,-3495.8907L13312.4378,-3495.9481L13312.423,-3495.9815L13312.3791,-3496.0658L13312.3467,-3496.1283L13312.3108,-3496.2015L13312.3072,-3496.2182L13312.303,-3496.2503L13312.2994,-3496.3188L13312.2954,-3496.4327L13312.2957,-3496.5286L13312.2926,-3496.5693L13312.279,-3496.6621L13312.2787,-3496.6703L13312.2772,-3496.7423L13312.2754,-3496.7856L13312.278,-3496.8977L13312.2739,-3496.9118L13312.2624,-3496.9465L13312.2572,-3496.9705L13312.2598,-3497.0381L13312.2633,-3497.0532L13312.2666,-3497.0664L13312.2922,-3497.1183L13312.3262,-3497.1878L13312.3389,-3497.209L13312.3551,-3497.2274L13312.3791,-3497.2475L13312.4277,-3497.2816L13312.4501,-3497.3023L13312.4839,-3497.3357L13312.501,-3497.354L13312.5128,-3497.3687L13312.5289,-3497.3849L13312.5454,-3497.3982L13312.5653,-3497.4059L13312.584,-3497.4093L13312.6163,-3497.405L13312.6423,-3497.3935L13312.6829,-3497.3772L13312.7027,-3497.3768L13312.7735,-3497.3768L13312.825,-3497.38L13312.8833,-3497.3815L13312.9176,-3497.3853L13312.9634,-3497.4008L13313.017,-3497.4256L13313.0862,-3497.4646L13313.1388,-3497.4967L13313.2116,-3497.5386L13313.2652,-3497.5686L13313.3251,-3497.5998L13313.3813,-3497.6294L13313.4489,-3497.6748L13313.488,-3497.7069L13313.5208,-3497.7377L13313.5546,-3497.7715L13313.578,-3497.7865L13313.6144,-3497.8054L13313.6425,-3497.8169L13313.6758,-3497.8242L13313.6956,-3497.828L13313.7222,-3497.8268L13313.7539,-3497.8199L13313.7685,-3497.8182L13313.7966,-3497.8203L13313.8392,-3497.8332L13313.8882,-3497.8567L13313.9532,-3497.8854L13313.9985,-3497.9055L13314.0183,-3497.9201L13314.0297,-3497.9445L13314.0261,-3497.9728L13314.0177,-3498.0014L13314.0068,-3498.0147L13313.9844,-3498.0417L13313.979,-3498.0469"/>
<path content="1,日本交通（株）,米子～広島線　通常便,3.0,3.0,3.0," xlink:title="1" d="M13307.8414,-3489.2578L13307.8463,-3489.2689L13307.8625,-3489.3042L13307.8791,-3489.3446L13307.887,-3489.3648L13307.9348,-3489.4836L13307.951,-3489.5261L13307.9681,-3489.5635L13307.9826,-3489.597L13307.9967,-3489.6279L13308.0076,-3489.6535L13308.0229,-3489.6854L13308.04,-3489.7249L13308.0583,-3489.7556L13308.0741,-3489.7775L13308.099,-3489.8094L13308.1248,-3489.8375L13308.1564,-3489.8728L13308.2071,-3489.9259L13308.2416,-3489.9618L13308.269,-3489.992L13308.3118,-3490.0372L13308.3443,-3490.0714L13308.4515,-3490.1749L13308.5255,-3490.2482L13308.5558,-3490.2804L13308.5895,-3490.3129L13308.6215,-3490.3475L13308.6456,-3490.3712L13308.6735,-3490.3986L13308.7038,-3490.4264L13308.729,-3490.449L13308.7741,-3490.491L13308.7986,-3490.515L13308.8231,-3490.5356L13308.8381,-3490.5448L13308.8539,-3490.5506L13308.8921,-3490.562L13308.9546,-3490.584L13308.9961,-3490.5965L13309.0297,-3490.6068L13309.0721,-3490.6157L13309.1114,-3490.6233L13309.1351,-3490.6284L13309.1555,-3490.6335L13309.175,-3490.6404L13309.1975,-3490.6538L13309.2332,-3490.6777L13309.2769,-3490.7065L13309.3492,-3490.7541L13309.3712,-3490.773L13309.4232,-3490.8134L13309.4531,-3490.8387L13309.4776,-3490.8565L13309.5188,-3490.887L13309.5475,-3490.9048L13309.5732,-3490.9229L13309.6107,-3490.9497L13309.6497,-3490.9747L13309.6905,-3491.0018L13309.7466,-3491.0401L13309.7882,-3491.072L13309.8189,-3491.0939L13309.8368,-3491.1138L13309.8676,-3491.1515L13309.907,-3491.1991L13309.9253,-3491.2227"/>
<path content="1,日本交通（株）,米子～広島線　通常便,3.0,3.0,3.0," xlink:title="1" d="M13309.9251,-3491.2225L13309.9438,-3491.2458L13309.9767,-3491.2893L13309.9933,-3491.3122L13310.0122,-3491.332L13310.017,-3491.3362L13310.0293,-3491.347L13310.043,-3491.3584L13310.0584,-3491.3673L13310.0692,-3491.3714L13310.0908,-3491.3738L13310.117,-3491.3755L13310.1353,-3491.3765L13310.1527,-3491.3799L13310.1747,-3491.3892L13310.2026,-3491.407L13310.24,-3491.4317L13310.2816,-3491.457L13310.3032,-3491.469L13310.3327,-3491.4793L13310.3651,-3491.4885L13310.3876,-3491.4943L13310.4159,-3491.4984L13310.4449,-3491.5032L13310.4947,-3491.5086L13310.5568,-3491.5145L13310.6939,-3491.5241L13310.7771,-3491.5234L13310.8332,-3491.5286L13310.8918,-3491.5348L13310.9479,-3491.5423L13311.0415,-3491.557L13311.1017,-3491.5676L13311.152,-3491.5765L13311.2069,-3491.5892L13311.2701,-3491.6039L13311.3111,-3491.6174L13311.3574,-3491.6358L13311.3861,-3491.6437L13311.426,-3491.6499L13311.4609,-3491.6536L13311.4854,-3491.6591L13311.5066,-3491.6677L13311.5216,-3491.6786L13311.5295,-3491.691L13311.5428,-3491.7232L13311.5469,-3491.7396L13311.5569,-3491.7653L13311.5667,-3491.8048L13311.5873,-3491.8571L13311.5948,-3491.8722L13311.6027,-3491.8872L13311.6155,-3491.9006L13311.6355,-3491.9146L13311.6575,-3491.9273L13311.6958,-3491.9444L13311.729,-3491.9585L13311.7299,-3491.9749L13311.7299,-3492.0037L13311.7265,-3492.0345L13311.7236,-3492.0609L13311.7103,-3492.1157L13311.7028,-3492.1383L13311.6958,-3492.1623L13311.6829,-3492.1972L13311.6721,-3492.2325L13311.6621,-3492.2626L13311.6492,-3492.2935L13311.6409,-3492.3212L13311.6209,-3492.364L13311.5989,-3492.4199L13311.591,-3492.4401L13311.5852,-3492.4599L13311.5837,-3492.4774L13311.5893,-3492.4973L13311.6018,-3492.5202L13311.6172,-3492.5363L13311.6446,-3492.5607L13311.6729,-3492.5898L13311.7062,-3492.6196L13311.7315,-3492.6439L13311.7432,-3492.6555L13311.7535,-3492.6696L13311.7635,-3492.6874L13311.7714,-3492.7117L13311.7752,-3492.7347L13311.7806,-3492.7638L13311.7856,-3492.8056L13311.7856,-3492.8354L13311.7831,-3492.8707L13311.7759,-3492.9324L13311.7706,-3492.9731L13311.7689,-3492.9905L13311.7702,-3493.0097L13311.7785,-3493.0279L13311.7856,-3493.0484L13311.7959,-3493.0721L13311.8126,-3493.1183L13311.818,-3493.1382L13311.8219,-3493.1556L13311.8576,-3493.2225L13311.8904,-3493.2787L13311.912,-3493.3165L13311.9281,-3493.3577L13311.9339,-3493.3786L13311.9366,-3493.3996L13311.9377,-3493.4249L13311.9344,-3493.4536L13311.9252,-3493.4881L13311.9072,-3493.5308L13311.8894,-3493.5737L13311.8682,-3493.6175L13311.8447,-3493.6568L13311.8231,-3493.6898L13311.795,-3493.7233L13311.7646,-3493.7512L13311.7226,-3493.7755L13311.6993,-3493.7843L13311.6507,-3493.7988L13311.5757,-3493.8127L13311.5794,-3493.8322L13311.5812,-3493.8391L13311.5882,-3493.8555L13311.6097,-3493.8863L13311.622,-3493.907L13311.6255,-3493.914L13311.638,-3493.9311L13311.6536,-3493.9602L13311.6875,-3494.0164L13311.6924,-3494.0244L13311.7095,-3494.0408L13311.7334,-3494.0683L13311.7402,-3494.0723L13311.7816,-3494.1175L13311.8157,-3494.1518L13311.8379,-3494.174L13311.845,-3494.1831L13311.8562,-3494.1942L13311.8681,-3494.2011L13311.8941,-3494.2172L13311.91,-3494.2299L13311.9443,-3494.2463L13311.9646,-3494.2585L13311.9755,-3494.2614L13311.9944,-3494.2719L13312.0391,-3494.2884L13312.094,-3494.312L13312.1464,-3494.3284L13312.1568,-3494.3302L13312.201,-3494.3421L13312.2114,-3494.3473L13312.2188,-3494.3532L13312.2416,-3494.3635L13312.2578,-3494.3721L13312.2715,-3494.3945L13312.2794,-3494.4062L13312.2894,-3494.4393L13312.2927,-3494.4575L13312.2935,-3494.4963L13312.2952,-3494.5709L13312.2953,-3494.5823L13312.2995,-3494.6733L13312.3,-3494.7165L13312.3035,-3494.8368L13312.3055,-3494.9587L13312.3065,-3494.9696L13312.3209,-3495.04L13312.3262,-3495.0647L13312.3357,-3495.1027L13312.3592,-3495.2023L13312.3748,-3495.2755L13312.3946,-3495.3564L13312.4198,-3495.4418L13312.4274,-3495.4722L13312.4446,-3495.5289L13312.4541,-3495.5638L13312.4642,-3495.633L13312.4763,-3495.7177L13312.4778,-3495.7694L13312.4757,-3495.8005L13312.4738,-3495.8291L13312.4586,-3495.8907L13312.4378,-3495.9481L13312.423,-3495.9815L13312.3791,-3496.0658L13312.3467,-3496.1283L13312.3108,-3496.2015L13312.3072,-3496.2182L13312.303,-3496.2503L13312.2994,-3496.3188L13312.2954,-3496.4327L13312.2957,-3496.5286L13312.2926,-3496.5693L13312.279,-3496.6621L13312.2787,-3496.6703L13312.2772,-3496.7423L13312.2754,-3496.7856L13312.278,-3496.8977L13312.2739,-3496.9118L13312.2624,-3496.9465L13312.2572,-3496.9705L13312.2598,-3497.0381L13312.2633,-3497.0532L13312.2666,-3497.0664L13312.2922,-3497.1183L13312.3262,-3497.1878L13312.3389,-3497.209L13312.3551,-3497.2274L13312.3791,-3497.2475L13312.4277,-3497.2816L13312.4501,-3497.3023L13312.4839,-3497.3357L13312.501,-3497.354L13312.5128,-3497.3687L13312.5289,-3497.3849L13312.5454,-3497.3982L13312.5653,-3497.4059L13312.584,-3497.4093L13312.6163,-3497.405L13312.6423,-3497.3935L13312.6829,-3497.3772L13312.7027,-3497.3768L13312.7735,-3497.3768L13312.825,-3497.38L13312.8833,-3497.3815L13312.9176,-3497.3853L13312.9634,-3497.4008L13313.017,-3497.4256L13313.0862,-3497.4646L13313.1388,-3497.4967L13313.2116,-3497.5386L13313.2652,-3497.5686L13313.3251,-3497.5998L13313.3813,-3497.6294L13313.4489,-3497.6748L13313.488,-3497.7069L13313.5208,-3497.7377L13313.5546,-3497.7715L13313.578,-3497.7865L13313.6144,-3497.8054L13313.6425,-3497.8169L13313.6758,-3497.8242L13313.6956,-3497.828L13313.7222,-3497.8268L13313.7539,-3497.8199L13313.7685,-3497.8182L13313.7966,-3497.8203L13313.8392,-3497.8332L13313.8882,-3497.8567L13313.9532,-3497.8854L13313.9985,-3497.9055L13314.0183,-3497.9201L13314.0297,-3497.9445L13314.0261,-3497.9728L13314.0177,-3498.0014L13314.0068,-3498.0147L13313.9844,-3498.0417L13313.979,-3498.0469"/>
<path content="2,庄原市,上尺田・八鳥線,3.0,3.0,0.0," xlink:title="2" d="M13311.5757,-3493.8127L13311.5733,-3493.7978L13311.5712,-3493.7725L13311.5721,-3493.7535L13311.5732,-3493.7394L13311.5781,-3493.7273L13311.5836,-3493.722L13311.5923,-3493.7152L13311.6034,-3493.7084L13311.6451,-3493.6931L13311.6796,-3493.682L13311.7016,-3493.6763L13311.7115,-3493.6699L13311.7274,-3493.6594L13311.7402,-3493.6438L13311.7494,-3493.6319L13311.7772,-3493.5735L13311.7919,-3493.543L13311.8076,-3493.5177L13311.8103,-3493.5056L13311.8138,-3493.4862L13311.8147,-3493.4673L13311.8147,-3493.4361L13311.8147,-3493.4215L13311.8099,-3493.4122L13311.7943,-3493.373L13311.7889,-3493.3523L13311.7705,-3493.3073L13311.7644,-3493.2759L13311.7439,-3493.2291"/>
<path content="2,庄原市,上尺田・八鳥線,3.0,3.0,0.0," xlink:title="2" d="M13311.5757,-3493.8127L13311.6507,-3493.7988L13311.6993,-3493.7843L13311.7226,-3493.7755"/>
<path content="2,庄原市,上尺田・八鳥線,3.0,3.0,0.0," xlink:title="2" d="M13311.638,-3493.9311L13311.6255,-3493.914L13311.622,-3493.907L13311.6097,-3493.8863L13311.5882,-3493.8555L13311.5812,-3493.8391L13311.5794,-3493.8322L13311.5757,-3493.8127"/>
<path content="2,庄原市,上尺田・八鳥線,3.0,3.0,0.0," xlink:title="2" d="M13311.638,-3493.9311L13311.673,-3493.9201L13311.7894,-3493.8702L13311.8943,-3493.8332L13311.911,-3493.8262L13311.9237,-3493.8206L13311.9331,-3493.8165L13311.9421,-3493.8265L13311.9795,-3493.8874L13312.0188,-3493.9698L13312.0438,-3494.0089L13312.0928,-3494.1026L13312.1187,-3494.1514L13312.1314,-3494.17L13312.14,-3494.1778L13312.1494,-3494.1846L13312.1655,-3494.1921L13312.1933,-3494.205L13312.2172,-3494.2187L13312.2404,-3494.2335L13312.2611,-3494.2456L13312.3211,-3494.2837L13312.4014,-3494.3237L13312.4943,-3494.3719L13312.5162,-3494.3867L13312.5322,-3494.4021L13312.5509,-3494.4293L13312.5844,-3494.5021L13312.6123,-3494.5713L13312.6171,-3494.5965L13312.6302,-3494.6595L13312.649,-3494.7595L13312.6601,-3494.8113L13312.6717,-3494.8671L13312.6876,-3494.9431L13312.6936,-3494.975L13312.7079,-3495.0549L13312.7235,-3495.1208L13312.7755,-3495.3831L13312.7946,-3495.4841L13312.8094,-3495.5539L13312.8195,-3495.5969L13312.8319,-3495.6382L13312.8395,-3495.6599L13312.8654,-3495.6943L13312.9044,-3495.7464L13312.9403,-3495.7969L13312.979,-3495.8506L13313.0045,-3495.8763L13313.0376,-3495.9042L13313.0938,-3495.9491L13313.152,-3495.9953L13313.2508,-3496.0737L13313.3381,-3496.1412L13313.3513,-3496.1518"/>
<path content="2,庄原市,上尺田・八鳥線,3.0,3.0,0.0," xlink:title="2" d="M13313.3513,-3496.1518L13313.3757,-3496.1713L13313.5812,-3496.3353L13313.643,-3496.3848L13313.7052,-3496.4314L13313.7343,-3496.4517L13313.7579,-3496.4664L13313.8236,-3496.4963L13313.9559,-3496.5573L13314.0436,-3496.5898L13314.1054,-3496.6104L13314.1512,-3496.6268L13314.1915,-3496.6324L13314.2616,-3496.6393L13314.3151,-3496.6437"/>
<path content="2,庄原市,上尺田・八鳥線,3.0,3.0,0.0," xlink:title="2" d="M13312.2787,-3496.6703L13312.279,-3496.6621L13312.2926,-3496.5693L13312.2957,-3496.5286L13312.2954,-3496.4327L13312.2994,-3496.3188L13312.303,-3496.2503L13312.3072,-3496.2182L13312.3108,-3496.2015L13312.3467,-3496.1283L13312.3791,-3496.0658L13312.423,-3495.9815L13312.4378,-3495.9481L13312.4586,-3495.8907L13312.4738,-3495.8291L13312.4757,-3495.8005L13312.4778,-3495.7694L13312.4763,-3495.7177L13312.4642,-3495.633L13312.4541,-3495.5638L13312.4446,-3495.5289L13312.4274,-3495.4722L13312.4198,-3495.4418L13312.3946,-3495.3564L13312.3748,-3495.2755L13312.3592,-3495.2023L13312.3357,-3495.1027L13312.3262,-3495.0647L13312.3209,-3495.04L13312.3065,-3494.9696L13312.3055,-3494.9584L13312.3035,-3494.8368L13312.3,-3494.7165L13312.2995,-3494.6733L13312.2953,-3494.5823L13312.2935,-3494.4963L13312.2927,-3494.4575L13312.2894,-3494.4393L13312.2794,-3494.4062L13312.2715,-3494.3945L13312.2578,-3494.3721L13312.2416,-3494.3635L13312.2188,-3494.3532L13312.2114,-3494.3473L13312.201,-3494.3421L13312.1568,-3494.3302L13312.1464,-3494.3284L13312.1268,-3494.3223L13312.1022,-3494.3147L13312.094,-3494.312L13312.0616,-3494.298L13312.0391,-3494.2884L13311.9944,-3494.2719L13311.9755,-3494.2614L13311.9646,-3494.2585L13311.9443,-3494.2463L13311.91,-3494.2299L13311.8941,-3494.2172L13311.8681,-3494.2011L13311.8562,-3494.1942L13311.845,-3494.1831L13311.8379,-3494.174L13311.7816,-3494.1175L13311.7402,-3494.0723L13311.7334,-3494.0683L13311.7095,-3494.0408L13311.6924,-3494.0244L13311.6875,-3494.0164L13311.6536,-3493.9602L13311.638,-3493.9311"/>
<path content="2,庄原市,上尺田・八鳥線,3.0,3.0,0.0," xlink:title="2" d="M13312.2787,-3496.6703L13312.412,-3496.6698L13312.4606,-3496.6731L13312.5053,-3496.6901L13312.5236,-3496.7078L13312.5268,-3496.719L13312.527,-3496.7498L13312.5382,-3496.7675L13312.5573,-3496.7924L13312.5613,-3496.8042L13312.5609,-3496.8147L13312.5529,-3496.8236L13312.5298,-3496.8403L13312.4927,-3496.8662L13312.4784,-3496.8809L13312.4696,-3496.8973L13312.4636,-3496.915L13312.4636,-3496.9564L13312.476,-3496.9692L13312.4955,-3496.9721L13312.5114,-3496.9678L13312.5146,-3496.9573L13312.517,-3496.9308L13312.5226,-3496.9072L13312.5274,-3496.8941L13312.5401,-3496.8793L13312.5625,-3496.8609L13312.5788,-3496.8485L13312.5932,-3496.8393L13312.6103,-3496.8344L13312.633,-3496.8321L13312.6438,-3496.8295L13312.6505,-3496.8236L13312.6517,-3496.8157L13312.6478,-3496.8059L13312.647,-3496.7904L13312.6505,-3496.7777L13312.6617,-3496.7629L13312.6729,-3496.756L13312.688,-3496.7501L13312.7143,-3496.7429L13312.7394,-3496.7314L13312.7861,-3496.7081L13312.8466,-3496.6688L13312.8582,-3496.6603L13312.8753,-3496.6772L13312.9331,-3496.7255L13312.9646,-3496.7603L13312.9869,-3496.7895L13313.0085,-3496.8206L13313.0312,-3496.8672L13313.0483,-3496.8895L13313.0718,-3496.9118L13313.0974,-3496.9232L13313.1157,-3496.9275L13313.138,-3496.9236L13313.1544,-3496.9111L13313.1635,-3496.8905L13313.1663,-3496.8632L13313.1707,-3496.8495L13313.1767,-3496.8331L13313.1751,-3496.8023L13313.1731,-3496.7773L13313.1767,-3496.7649L13313.1842,-3496.7583L13313.2123,-3496.7481L13313.2333,-3496.737L13313.2428,-3496.7255L13313.262,-3496.7131L13313.2847,-3496.7003L13313.2887,-3496.6934L13313.2867,-3496.6763L13313.2771,-3496.6573L13313.2751,-3496.6465L13313.2787,-3496.6314L13313.2966,-3496.6055L13313.3086,-3496.5858L13313.3102,-3496.5685L13313.2951,-3496.5455L13313.2883,-3496.5298L13313.2879,-3496.5124L13313.2927,-3496.4865L13313.3086,-3496.454L13313.3142,-3496.4314L13313.3134,-3496.417L13313.3118,-3496.4078L13313.299,-3496.3944L13313.2373,-3496.3432L13313.2233,-3496.3304L13313.2213,-3496.3193L13313.2233,-3496.3078L13313.2277,-3496.2989L13313.2576,-3496.2727L13313.2859,-3496.2406L13313.3094,-3496.2153L13313.3349,-3496.1806L13313.3513,-3496.1518"/>
<path content="2,庄原市,上尺田・八鳥線,3.0,3.0,0.0," xlink:title="2" d="M13312.7921,-3498.0469L13312.7928,-3498.0392L13312.7881,-3498.0248L13312.7789,-3498.0084L13312.759,-3497.9776L13312.7147,-3497.9218L13312.6992,-3497.9018L13312.682,-3497.8736L13312.6466,-3497.8081L13312.6394,-3497.7972L13312.6258,-3497.7874L13312.5995,-3497.773L13312.5322,-3497.7349L13312.4675,-3497.694L13312.4508,-3497.6807L13312.444,-3497.6687L13312.4432,-3497.653L13312.4486,-3497.6402L13312.4697,-3497.62L13312.486,-3497.6058L13312.4978,-3497.5907L13312.5002,-3497.5703L13312.5,-3497.553L13312.492,-3497.5113L13312.4896,-3497.4874L13312.4914,-3497.4687L13312.4944,-3497.4584L13312.508,-3497.4297L13312.5174,-3497.4088L13312.5289,-3497.3849L13312.5128,-3497.3687L13312.501,-3497.354L13312.4839,-3497.3357L13312.4501,-3497.3023L13312.4277,-3497.2816L13312.3791,-3497.2475L13312.3551,-3497.2274L13312.3389,-3497.209L13312.3262,-3497.1878L13312.2922,-3497.1183L13312.2666,-3497.0664L13312.2633,-3497.0532L13312.2598,-3497.0381L13312.2572,-3496.9705L13312.2624,-3496.9465L13312.2739,-3496.9118L13312.278,-3496.8977L13312.2754,-3496.7856L13312.2772,-3496.7423L13312.2787,-3496.6703"/>
<path content="2,庄原市,大戸・本谷線,3.0,3.0,0.0," xlink:title="2" d="M13311.5721,-3493.7535L13311.4811,-3493.745L13311.4488,-3493.7426L13311.4006,-3493.7424L13311.3779,-3493.7443L13311.3426,-3493.7544L13311.3108,-3493.7633L13311.2745,-3493.7769L13311.2286,-3493.7983L13311.1835,-3493.8163L13311.1394,-3493.8315L13311.1021,-3493.844L13311.088,-3493.8494L13311.0692,-3493.8606L13311.0313,-3493.8651L13310.994,-3493.8738L13310.9646,-3493.8832L13310.9228,-3493.8988L13310.9016,-3493.9052L13310.8837,-3493.9071L13310.8382,-3493.9054L13310.7785,-3493.9005L13310.684,-3493.8965L13310.6671,-3493.8988L13310.6501,-3493.9044L13310.6317,-3493.9173L13310.6138,-3493.9396L13310.6055,-3493.9472L13310.5936,-3493.9495L13310.5232,-3493.9495L13310.4464,-3493.9544L13310.3706,-3493.9646L13310.3356,-3493.9703L13310.3154,-3493.9757L13310.2887,-3493.989L13310.2723,-3494.001L13310.2543,-3494.0236L13310.2451,-3494.0335L13310.2317,-3494.0475L13310.211,-3494.0592L13310.1807,-3494.0675L13310.133,-3494.0755L13310.0925,-3494.08L13310.0516,-3494.0751L13310.0116,-3494.0651L13309.9571,-3494.0461L13309.8558,-3494.0072L13309.8282,-3493.996L13309.7994,-3493.9921L13309.7694,-3493.9972L13309.7476,-3494.0044L13309.7293,-3494.0103L13309.6808,-3494.0251L13309.5705,-3494.0514L13309.5348,-3494.0604L13309.5041,-3494.0733L13309.4678,-3494.0897L13309.4155,-3494.1142L13309.3513,-3494.137L13309.2938,-3494.1642L13309.2671,-3494.1802L13309.2331,-3494.203L13309.1879,-3494.2294L13309.1564,-3494.2478L13309.1261,-3494.2609L13309.0579,-3494.28L13309.0428,-3494.2865L13309.0281,-3494.2937L13308.994,-3494.3224L13308.9821,-3494.337L13308.9779,-3494.3445L13308.8615,-3494.315L13308.8208,-3494.3048L13308.7937,-3494.2989L13308.7757,-3494.2976L13308.7564,-3494.2997L13308.7403,-3494.3086L13308.719,-3494.33L13308.6955,-3494.3601L13308.6443,-3494.4212L13308.6238,-3494.4462L13308.6174,-3494.4628L13308.6111,-3494.5205L13308.6063,-3494.5305L13308.5997,-3494.5398L13308.5889,-3494.5481L13308.5307,-3494.5671L13308.493,-3494.5816L13308.488,-3494.5845L13308.4824,-3494.5877"/>
<path content="2,庄原市,大戸・本谷線,3.0,3.0,0.0," xlink:title="2" d="M13311.5757,-3493.8127L13311.5733,-3493.7978L13311.5712,-3493.7725L13311.5721,-3493.7535"/>
<path content="2,庄原市,大戸・本谷線,3.0,3.0,0.0," xlink:title="2" d="M13311.5757,-3493.8127L13311.6507,-3493.7988L13311.6993,-3493.7843L13311.7226,-3493.7755L13311.7646,-3493.7512L13311.795,-3493.7233L13311.8231,-3493.6898L13311.8447,-3493.6568L13311.8682,-3493.6175L13311.8894,-3493.5737L13311.9252,-3493.4881L13311.9344,-3493.4536L13311.9377,-3493.4249L13311.9366,-3493.3996L13311.9339,-3493.3786L13311.9281,-3493.3577L13311.912,-3493.3165L13311.8904,-3493.2787L13311.8576,-3493.2225L13311.8219,-3493.1556L13311.766,-3493.1721L13311.7339,-3493.1876L13311.7394,-3493.2015L13311.7439,-3493.2291L13311.7644,-3493.2759L13311.7705,-3493.3073L13311.7889,-3493.3523L13311.7943,-3493.373L13311.8099,-3493.4122L13311.8147,-3493.4215L13311.8147,-3493.4361L13311.8147,-3493.4673L13311.8138,-3493.4862L13311.8103,-3493.5056L13311.8076,-3493.5177L13311.7919,-3493.543L13311.7772,-3493.5735L13311.7494,-3493.6319L13311.7402,-3493.6438L13311.7274,-3493.6594L13311.7115,-3493.6699L13311.7016,-3493.6763L13311.6796,-3493.682L13311.6451,-3493.6931L13311.6034,-3493.7084L13311.5923,-3493.7152L13311.5836,-3493.722L13311.5781,-3493.7273L13311.5732,-3493.7394L13311.5721,-3493.7535"/>
<path content="2,庄原市,大戸・本谷線,3.0,3.0,0.0," xlink:title="2" d="M13311.5757,-3493.8127L13311.5794,-3493.8322L13311.5812,-3493.8391L13311.5882,-3493.8555L13311.6097,-3493.8863L13311.622,-3493.907L13311.6255,-3493.914L13311.638,-3493.9311L13311.6536,-3493.9602L13311.6875,-3494.0164L13311.6924,-3494.0244L13311.7095,-3494.0408L13311.7334,-3494.0683L13311.7402,-3494.0723L13311.7816,-3494.1175L13311.8379,-3494.174L13311.845,-3494.1831L13311.8562,-3494.1942L13311.8681,-3494.2011L13311.8941,-3494.2172L13311.91,-3494.2299L13311.9443,-3494.2463L13311.9646,-3494.2585L13311.9755,-3494.2614L13311.9944,-3494.2719L13312.0391,-3494.2884L13312.0616,-3494.298L13312.094,-3494.312L13312.1022,-3494.3147L13312.1268,-3494.3223L13312.1464,-3494.3284L13312.1568,-3494.3302L13312.201,-3494.3421L13312.2114,-3494.3473L13312.2188,-3494.3532L13312.2416,-3494.3635L13312.2578,-3494.3721L13312.2715,-3494.3945L13312.2794,-3494.4062L13312.3342,-3494.3978L13312.3542,-3494.3934L13312.3624,-3494.3875L13312.4014,-3494.3237L13312.4943,-3494.3719L13312.5162,-3494.3867L13312.5322,-3494.4021L13312.5509,-3494.4293L13312.5844,-3494.5021L13312.6123,-3494.5713L13312.6171,-3494.5965L13312.6302,-3494.6595L13312.649,-3494.7595L13312.6601,-3494.8113L13312.6717,-3494.8671"/>
<path content="2,庄原市,大戸・本谷線,3.0,3.0,0.0," xlink:title="2" d="M13307.8849,-3494.5357L13307.841,-3494.5411L13307.7914,-3494.5519L13307.7482,-3494.5657L13307.698,-3494.5894L13307.6493,-3494.6136L13307.5941,-3494.6422L13307.5597,-3494.6605L13307.5433,-3494.6645L13307.5298,-3494.6656L13307.5086,-3494.6643L13307.4606,-3494.6586L13307.4263,-3494.6586L13307.4026,-3494.66L13307.387,-3494.667L13307.3686,-3494.6751L13307.3323,-3494.7033L13307.3045,-3494.7182L13307.2778,-3494.7379L13307.2534,-3494.7591L13307.2284,-3494.7752L13307.178,-3494.8021L13307.1599,-3494.8149L13307.1316,-3494.8323L13307.1045,-3494.8439L13307.0905,-3494.8501L13307.0817,-3494.8505L13307.0714,-3494.8446L13307.0258,-3494.8144L13306.9962,-3494.7932L13306.9608,-3494.7758L13306.9396,-3494.7659L13306.9065,-3494.7521L13306.8863,-3494.7468L13306.8647,-3494.7419L13306.8493,-3494.7428L13306.8399,-3494.7461L13306.8171,-3494.7591L13306.8047,-3494.7654L13306.7944,-3494.7671L13306.7776,-3494.7667L13306.7619,-3494.7633L13306.7509,-3494.754L13306.7438,-3494.7428L13306.7371,-3494.7256L13306.7291,-3494.7095L13306.7217,-3494.6967L13306.718,-3494.6893L13306.7116,-3494.6717L13306.7075,-3494.6452L13306.707,-3494.6227L13306.71,-3494.606L13306.7206,-3494.5841L13306.7277,-3494.5724L13306.7321,-3494.5673L13306.7755,-3494.5415L13306.7967,-3494.5317L13306.8125,-3494.5243L13306.8275,-3494.5201L13306.8541,-3494.5128L13306.867,-3494.5075L13306.8806,-3494.5005L13306.904,-3494.4804L13306.9196,-3494.466L13306.933,-3494.4622L13306.9459,-3494.463L13306.9619,-3494.4655L13306.9854,-3494.4778L13307.0151,-3494.4959L13307.0445,-3494.5169L13307.0631,-3494.5341L13307.0824,-3494.555L13307.1024,-3494.5638L13307.1587,-3494.5794L13307.1898,-3494.5843L13307.2056,-3494.5831L13307.2222,-3494.5773L13307.2583,-3494.558L13307.3132,-3494.5234L13307.3309,-3494.5171L13307.3424,-3494.5112L13307.3534,-3494.4982L13307.3737,-3494.4709L13307.3895,-3494.4609L13307.407,-3494.4571L13307.4353,-3494.4521L13307.4859,-3494.4479L13307.5167,-3494.4469L13307.5603,-3494.4501L13307.6001,-3494.4467L13307.6923,-3494.4357L13307.6964,-3494.4494L13307.7077,-3494.4638L13307.7295,-3494.481L13307.7488,-3494.4851L13307.7888,-3494.4851L13307.8134,-3494.4874L13307.8341,-3494.4955L13307.8502,-3494.508L13307.8849,-3494.5357"/>
<path content="2,庄原市,大戸・本谷線,3.0,3.0,0.0," xlink:title="2" d="M13308.4824,-3494.5877L13308.4599,-3494.5434L13308.4376,-3494.5169L13308.4279,-3494.5058L13308.4203,-3494.4955L13308.4013,-3494.455L13308.3826,-3494.4191L13308.3505,-3494.3497L13308.3479,-3494.3362L13308.3463,-3494.298L13308.3459,-3494.2624L13308.3438,-3494.249L13308.3341,-3494.22L13308.3164,-3494.1839L13308.3082,-3494.1629L13308.3056,-3494.1515L13308.3045,-3494.1321L13308.3077,-3494.1186L13308.3206,-3494.0897L13308.3415,-3494.0533L13308.3632,-3494.0238L13308.3384,-3494.0174L13308.3007,-3494.0041L13308.2575,-3493.9841L13308.228,-3493.9655L13308.1876,-3493.9288L13308.1572,-3493.8986L13308.1131,-3493.8426L13308.0897,-3493.7987L13308.0736,-3493.7756L13308.0621,-3493.7423L13308.0565,-3493.712L13308.052,-3493.6972L13308.0354,-3493.6825L13308.011,-3493.6726L13307.9971,-3493.6674L13307.9628,-3493.6458L13307.9375,-3493.6208L13307.9228,-3493.5928L13307.9163,-3493.5674L13307.9172,-3493.5296L13307.9177,-3493.4581L13307.9306,-3493.4123L13307.9549,-3493.3688L13307.9844,-3493.3449L13308.0207,-3493.3177L13308.0363,-3493.3025L13308.0777,-3493.2511L13308.1241,-3493.175L13308.1462,-3493.1341L13308.1614,-3493.0906L13308.1628,-3493.0195L13308.1628,-3492.9381L13308.1613,-3492.8673L13308.1597,-3492.8418L13308.1525,-3492.8257L13308.1293,-3492.799L13308.1054,-3492.7748L13308.0928,-3492.7555L13308.0741,-3492.722L13308.0649,-3492.691L13308.0509,-3492.6363L13308.0433,-3492.6164L13308.0298,-3492.5822L13308.0141,-3492.5417L13307.9877,-3492.497L13307.9679,-3492.4758L13307.9362,-3492.4425L13307.9098,-3492.424L13307.8739,-3492.4005L13307.8477,-3492.3833L13307.773,-3492.3277L13307.7199,-3492.2896L13307.69,-3492.2688L13307.6632,-3492.2482L13307.6503,-3492.2353L13307.6393,-3492.2149L13307.6214,-3492.1805L13307.6151,-3492.1614L13307.6072,-3492.139L13307.5946,-3492.1214L13307.5817,-3492.1146L13307.5656,-3492.1144L13307.5431,-3492.1182L13307.5093,-3492.1277L13307.4914,-3492.1337L13307.479,-3492.1479L13307.4597,-3492.1657L13307.4472,-3492.1742L13307.4261,-3492.178L13307.3438,-3492.1814L13307.2741,-3492.1827L13307.2509,-3492.1801L13307.2348,-3492.1731L13307.2276,-3492.1705L13307.2111,-3492.1608L13307.1838,-3492.151L13307.1374,-3492.1368L13307.1033,-3492.1284L13307.056,-3492.1177L13307.0351,-3492.1089L13307.0075,-3492.0944L13306.9472,-3492.0558L13306.8555,-3492.0047L13306.8236,-3491.9911L13306.7836,-3491.9759L13306.7396,-3491.9612L13306.6978,-3491.9506L13306.6619,-3491.9377L13306.6406,-3491.9297"/>
<path content="2,庄原市,大戸・本谷線,3.0,3.0,0.0," xlink:title="2" d="M13308.4824,-3494.5877L13308.4746,-3494.5964L13308.4654,-3494.6138L13308.4528,-3494.6583L13308.4471,-3494.6761L13308.4411,-3494.6904L13308.432,-3494.701L13308.4071,-3494.7169L13308.4017,-3494.7212"/>
<path content="2,庄原市,大戸・本谷線,3.0,3.0,0.0," xlink:title="2" d="M13308.4017,-3494.7212L13308.3868,-3494.7156L13308.3665,-3494.7107L13308.3498,-3494.7054L13308.3245,-3494.6893L13308.3082,-3494.6776L13308.2882,-3494.6681L13308.2659,-3494.6603L13308.2282,-3494.6513L13308.2137,-3494.6465L13308.2003,-3494.6371L13308.1764,-3494.6206L13308.1505,-3494.6021L13308.1295,-3494.5922L13308.0939,-3494.5794L13308.0265,-3494.5629L13307.9571,-3494.5512L13307.919,-3494.5444L13307.8921,-3494.5366L13307.8849,-3494.5357"/>
<path content="2,庄原市,大戸・本谷線,3.0,3.0,0.0," xlink:title="2" d="M13308.4017,-3494.7212L13308.3943,-3494.7271L13308.3846,-3494.7381L13308.3763,-3494.7525L13308.3699,-3494.7635L13308.3575,-3494.7729L13308.3377,-3494.7873L13308.3211,-3494.7956L13308.3093,-3494.8055L13308.2997,-3494.8174L13308.2925,-3494.8265L13308.2831,-3494.8325L13308.2695,-3494.8409L13308.2498,-3494.8454L13308.23,-3494.8522L13308.2208,-3494.8588L13308.2132,-3494.8683L13308.2026,-3494.8817L13308.1925,-3494.8946L13308.1728,-3494.9105L13308.1468,-3494.9334L13308.1311,-3494.9485L13308.1054,-3494.9816L13308.0928,-3494.9928L13308.0824,-3494.9992L13308.0707,-3494.9996L13308.0528,-3494.9945L13308.0364,-3494.9905L13308.0279,-3494.9903L13308.0155,-3494.9932L13308.0015,-3495L13307.9767,-3495.0185L13307.9371,-3495.0458L13307.91,-3495.0602L13307.8987,-3495.0719L13307.89,-3495.0834L13307.8849,-3495.1025L13307.8672,-3495.155L13307.8603,-3495.1746L13307.8561,-3495.1917L13307.8477,-3495.2412L13307.8387,-3495.2679L13307.827,-3495.2933L13307.8164,-3495.3109L13307.8068,-3495.3219L13307.7934,-3495.3279L13307.7739,-3495.3381L13307.7557,-3495.3474L13307.7456,-3495.355L13307.7385,-3495.3661L13307.7339,-3495.3769L13307.7309,-3495.3972L13307.7286,-3495.4151L13307.7231,-3495.4361L13307.7141,-3495.4549L13307.704,-3495.4687L13307.6847,-3495.4844L13307.6521,-3495.5026L13307.6201,-3495.5164L13307.5971,-3495.5255"/>
<path content="2,庄原市,小奴可西城線,1.0,0.0,0.0," xlink:title="2" d="M13312.2794,-3494.4062L13312.3342,-3494.3978L13312.3542,-3494.3934L13312.3624,-3494.3875L13312.4014,-3494.3237L13312.3211,-3494.2837L13312.2611,-3494.2456L13312.2404,-3494.2335L13312.2172,-3494.2187L13312.1933,-3494.205L13312.1655,-3494.1921L13312.1494,-3494.1846L13312.14,-3494.1778L13312.1314,-3494.17L13312.1187,-3494.1514L13312.0928,-3494.1026L13312.0438,-3494.0089L13312.0188,-3493.9698L13311.9795,-3493.8874L13311.9421,-3493.8265L13311.9331,-3493.8165L13311.9237,-3493.8206L13311.911,-3493.8262L13311.8943,-3493.8332L13311.7894,-3493.8702L13311.673,-3493.9201L13311.638,-3493.9311L13311.6536,-3493.9602L13311.6875,-3494.0164L13311.6924,-3494.0244L13311.7095,-3494.0408L13311.7334,-3494.0683L13311.7402,-3494.0723L13311.7816,-3494.1175L13311.8379,-3494.174L13311.845,-3494.1831L13311.8562,-3494.1942L13311.8681,-3494.2011L13311.8941,-3494.2172L13311.91,-3494.2299L13311.9443,-3494.2463L13311.9646,-3494.2585L13311.9755,-3494.2614L13311.9944,-3494.2719L13312.0391,-3494.2884L13312.0616,-3494.298L13312.094,-3494.312L13312.1022,-3494.3147L13312.1268,-3494.3223L13312.1464,-3494.3284L13312.1568,-3494.3302L13312.201,-3494.3421L13312.2114,-3494.3473L13312.2188,-3494.3532L13312.2416,-3494.3635L13312.2578,-3494.3721L13312.2715,-3494.3945L13312.2794,-3494.4062"/>
<path content="2,庄原市,小奴可西城線,1.0,0.0,0.0," xlink:title="2" d="M13312.2794,-3494.4062L13312.2894,-3494.4393L13312.2927,-3494.4575L13312.2935,-3494.4963L13312.2953,-3494.5823L13312.2995,-3494.6733L13312.3,-3494.7165L13312.3035,-3494.8368L13312.3055,-3494.9584L13312.3065,-3494.9696L13312.3209,-3495.04L13312.3262,-3495.0647L13312.3357,-3495.1027L13312.3592,-3495.2023L13312.3748,-3495.2755L13312.3946,-3495.3564L13312.4198,-3495.4418L13312.4274,-3495.4722L13312.4446,-3495.5289L13312.4541,-3495.5638L13312.4642,-3495.633L13312.4763,-3495.7177L13312.4778,-3495.7694L13312.4757,-3495.8005L13312.4738,-3495.8291L13312.4586,-3495.8907L13312.4378,-3495.9481L13312.423,-3495.9815L13312.3791,-3496.0658L13312.3467,-3496.1283L13312.3108,-3496.2015L13312.3072,-3496.2182L13312.303,-3496.2503L13312.2994,-3496.3188L13312.2954,-3496.4327L13312.2957,-3496.5286L13312.2926,-3496.5693L13312.279,-3496.6621L13312.2787,-3496.6703L13312.2772,-3496.7423L13312.2754,-3496.7856L13312.278,-3496.8977L13312.2739,-3496.9118L13312.2624,-3496.9465L13312.2572,-3496.9705L13312.2598,-3497.0381L13312.2633,-3497.0532L13312.2666,-3497.0664L13312.2922,-3497.1183L13312.3262,-3497.1878L13312.3389,-3497.209L13312.3551,-3497.2274L13312.3791,-3497.2475L13312.4277,-3497.2816L13312.4501,-3497.3023L13312.4839,-3497.3357L13312.501,-3497.354L13312.5128,-3497.3687L13312.5289,-3497.3849"/>
<path content="2,庄原市,小奴可西城線,1.0,0.0,0.0," xlink:title="2" d="M13312.5289,-3497.3849L13312.5174,-3497.4088"/>
<path content="2,庄原市,小奴可西城線,1.0,0.0,0.0," xlink:title="2" d="M13312.5289,-3497.3849L13312.5454,-3497.3982L13312.5653,-3497.4059L13312.584,-3497.4093L13312.6163,-3497.405L13312.6423,-3497.3935L13312.6829,-3497.3772L13312.7027,-3497.3768L13312.7735,-3497.3768L13312.825,-3497.38L13312.8833,-3497.3815L13312.9176,-3497.3853L13312.9634,-3497.4008L13313.017,-3497.4256L13313.0862,-3497.4646L13313.1388,-3497.4967L13313.2116,-3497.5386L13313.2652,-3497.5686L13313.3251,-3497.5998L13313.3813,-3497.6294L13313.4489,-3497.6748L13313.488,-3497.7069L13313.5208,-3497.7377L13313.5546,-3497.7715L13313.578,-3497.7865L13313.6144,-3497.8054L13313.6425,-3497.8169L13313.6758,-3497.8242L13313.6956,-3497.828L13313.7222,-3497.8268L13313.7539,-3497.8199L13313.7685,-3497.8182L13313.7966,-3497.8203L13313.8392,-3497.8332L13313.8882,-3497.8567L13313.9532,-3497.8854L13313.9985,-3497.9055L13314.0183,-3497.9201L13314.0297,-3497.9445L13314.0261,-3497.9728L13314.0177,-3498.0014L13314.0068,-3498.0147L13313.9844,-3498.0417L13313.979,-3498.0469"/>
<path content="2,庄原市,油木線,3.0,3.0,0.0," xlink:title="2" d="M13311.5757,-3493.8127L13311.5733,-3493.7978L13311.5712,-3493.7725L13311.5721,-3493.7535L13311.5732,-3493.7394L13311.5781,-3493.7273L13311.5836,-3493.722L13311.5923,-3493.7152L13311.6034,-3493.7084L13311.6451,-3493.6931L13311.6796,-3493.682L13311.7016,-3493.6763L13311.7115,-3493.6699L13311.7274,-3493.6594L13311.7402,-3493.6438L13311.7494,-3493.6319L13311.7772,-3493.5735L13311.7919,-3493.543L13311.8076,-3493.5177L13311.8103,-3493.5056L13311.8138,-3493.4862L13311.8147,-3493.4673L13311.8147,-3493.4361L13311.8147,-3493.4215L13311.8099,-3493.4122L13311.7943,-3493.373L13311.7889,-3493.3523L13311.7705,-3493.3073L13311.7644,-3493.2759L13311.7439,-3493.2291"/>
<path content="2,庄原市,油木線,3.0,3.0,0.0," xlink:title="2" d="M13311.5757,-3493.8127L13311.6507,-3493.7988L13311.6993,-3493.7843L13311.7226,-3493.7755"/>
<path content="2,庄原市,油木線,3.0,3.0,0.0," xlink:title="2" d="M13311.638,-3493.9311L13311.6255,-3493.914L13311.622,-3493.907L13311.6097,-3493.8863L13311.5882,-3493.8555L13311.5812,-3493.8391L13311.5794,-3493.8322L13311.5757,-3493.8127"/>
<path content="2,庄原市,油木線,3.0,3.0,0.0," xlink:title="2" d="M13311.638,-3493.9311L13311.673,-3493.9201L13311.7894,-3493.8702L13311.8943,-3493.8332L13311.911,-3493.8262L13311.9237,-3493.8206L13311.9331,-3493.8165L13311.9421,-3493.8265L13311.9795,-3493.8874L13312.0188,-3493.9698L13312.0438,-3494.0089L13312.0928,-3494.1026L13312.1187,-3494.1514L13312.1314,-3494.17L13312.14,-3494.1778L13312.1494,-3494.1846L13312.1655,-3494.1921L13312.1933,-3494.205L13312.2172,-3494.2187L13312.2404,-3494.2335L13312.2611,-3494.2456L13312.3211,-3494.2837L13312.4014,-3494.3237L13312.4943,-3494.3719L13312.5162,-3494.3867L13312.5322,-3494.4021L13312.5509,-3494.4293L13312.5844,-3494.5021L13312.6123,-3494.5713L13312.6171,-3494.5965L13312.6302,-3494.6595L13312.649,-3494.7595L13312.6601,-3494.8113L13312.6717,-3494.8671"/>
<path content="2,庄原市,油木線,3.0,3.0,0.0," xlink:title="2" d="M13311.638,-3493.9311L13311.6536,-3493.9602L13311.6875,-3494.0164L13311.6924,-3494.0244L13311.7095,-3494.0408L13311.7334,-3494.0683L13311.7402,-3494.0723L13311.7816,-3494.1175L13311.8379,-3494.174L13311.845,-3494.1831L13311.8562,-3494.1942L13311.8681,-3494.2011L13311.8941,-3494.2172L13311.91,-3494.2299L13311.9443,-3494.2463L13311.9646,-3494.2585L13311.9755,-3494.2614L13311.9944,-3494.2719L13312.0391,-3494.2884L13312.0616,-3494.298L13312.094,-3494.312L13312.1022,-3494.3147L13312.1268,-3494.3223L13312.1464,-3494.3284L13312.1568,-3494.3302L13312.201,-3494.3421L13312.2114,-3494.3473L13312.2188,-3494.3532L13312.2416,-3494.3635L13312.2578,-3494.3721L13312.2715,-3494.3945L13312.2794,-3494.4062L13312.2894,-3494.4393L13312.2927,-3494.4575L13312.2935,-3494.4963L13312.2953,-3494.5823L13312.2995,-3494.6733L13312.3,-3494.7165L13312.3035,-3494.8368L13312.3055,-3494.9584L13312.3065,-3494.9696L13312.3209,-3495.04L13312.3262,-3495.0647L13312.3357,-3495.1027L13312.3592,-3495.2023L13312.3748,-3495.2755L13312.3946,-3495.3564L13312.4198,-3495.4418L13312.4274,-3495.4722L13312.4446,-3495.5289L13312.4541,-3495.5638L13312.4642,-3495.633L13312.4763,-3495.7177L13312.4778,-3495.7694L13312.4757,-3495.8005L13312.4738,-3495.8291L13312.4586,-3495.8907L13312.4378,-3495.9481L13312.423,-3495.9815L13312.3791,-3496.0658L13312.3467,-3496.1283L13312.3108,-3496.2015L13312.3072,-3496.2182L13312.303,-3496.2503L13312.2994,-3496.3188L13312.2954,-3496.4327L13312.2957,-3496.5286L13312.2926,-3496.5693L13312.279,-3496.6621L13312.2787,-3496.6703L13312.2772,-3496.7423L13312.2754,-3496.7856L13312.278,-3496.8977L13312.2739,-3496.9118L13312.2624,-3496.9465L13312.2572,-3496.9705L13312.2598,-3497.0381L13312.2633,-3497.0532L13312.2666,-3497.0664L13312.2922,-3497.1183L13312.3262,-3497.1878L13312.3389,-3497.209L13312.3551,-3497.2274L13312.3791,-3497.2475L13312.4277,-3497.2816L13312.4501,-3497.3023L13312.4839,-3497.3357L13312.501,-3497.354L13312.5128,-3497.3687L13312.5289,-3497.3849"/>
<path content="2,庄原市,油木線,3.0,3.0,0.0," xlink:title="2" d="M13312.5289,-3497.3849L13312.5174,-3497.4088"/>
<path content="2,庄原市,油木線,3.0,3.0,0.0," xlink:title="2" d="M13312.5289,-3497.3849L13312.5454,-3497.3982L13312.5653,-3497.4059L13312.584,-3497.4093L13312.6163,-3497.405L13312.6423,-3497.3935L13312.6829,-3497.3772L13312.7027,-3497.3768L13312.7735,-3497.3768L13312.825,-3497.38L13312.8833,-3497.3815L13312.9176,-3497.3853L13312.9634,-3497.4008L13313.017,-3497.4256L13313.0862,-3497.4646L13313.1388,-3497.4967L13313.2116,-3497.5386L13313.2652,-3497.5686L13313.3251,-3497.5998L13313.3813,-3497.6294L13313.4489,-3497.6748L13313.488,-3497.7069L13313.5208,-3497.7377L13313.5546,-3497.7715L13313.578,-3497.7865L13313.6144,-3497.8054L13313.6425,-3497.8169L13313.6758,-3497.8242L13313.6956,-3497.828L13313.7222,-3497.8268L13313.7539,-3497.8199L13313.7685,-3497.8182L13313.7966,-3497.8203L13313.8392,-3497.8332L13313.8882,-3497.8567L13313.9532,-3497.8854L13313.9985,-3497.9055L13314.0183,-3497.9201L13314.0297,-3497.9445L13314.0261,-3497.9728L13314.0177,-3498.0014L13314.0068,-3498.0147L13313.9844,-3498.0417L13313.979,-3498.0469"/>
<path content="2,庄原市,道後山線,3.0,3.0,0.0," xlink:title="2" d="M13311.638,-3493.9311L13311.6255,-3493.914L13311.622,-3493.907L13311.6097,-3493.8863L13311.5882,-3493.8555L13311.5812,-3493.8391L13311.5794,-3493.8322L13311.5757,-3493.8127L13311.5733,-3493.7978L13311.5712,-3493.7725L13311.5721,-3493.7535L13311.5732,-3493.7394L13311.5781,-3493.7273L13311.5836,-3493.722L13311.5923,-3493.7152L13311.6034,-3493.7084L13311.6451,-3493.6931L13311.6796,-3493.682L13311.7016,-3493.6763L13311.7115,-3493.6699L13311.7274,-3493.6594L13311.7402,-3493.6438L13311.7494,-3493.6319L13311.7772,-3493.5735L13311.7919,-3493.543L13311.8076,-3493.5177L13311.8103,-3493.5056L13311.8138,-3493.4862L13311.8147,-3493.4673L13311.8147,-3493.4361L13311.8147,-3493.4215L13311.8099,-3493.4122L13311.7943,-3493.373L13311.7889,-3493.3523L13311.7705,-3493.3073L13311.7644,-3493.2759L13311.7439,-3493.2291"/>
<path content="2,庄原市,道後山線,3.0,3.0,0.0," xlink:title="2" d="M13311.638,-3493.9311L13311.673,-3493.9201L13311.7894,-3493.8702L13311.8943,-3493.8332L13311.911,-3493.8262L13311.9237,-3493.8206L13311.9331,-3493.8165L13311.9421,-3493.8265L13311.9795,-3493.8874L13312.0188,-3493.9698L13312.0438,-3494.0089L13312.0928,-3494.1026L13312.1187,-3494.1514L13312.1314,-3494.17L13312.14,-3494.1778L13312.1494,-3494.1846L13312.1655,-3494.1921L13312.1933,-3494.205L13312.2172,-3494.2187L13312.2404,-3494.2335L13312.2611,-3494.2456L13312.3211,-3494.2837L13312.4014,-3494.3237L13312.4943,-3494.3719L13312.5162,-3494.3867L13312.5322,-3494.4021L13312.5509,-3494.4293L13312.5844,-3494.5021L13312.6123,-3494.5713L13312.6171,-3494.5965L13312.6302,-3494.6595L13312.649,-3494.7595L13312.6601,-3494.8113L13312.6717,-3494.8671"/>
<path content="2,庄原市,道後山線,3.0,3.0,0.0," xlink:title="2" d="M13311.638,-3493.9311L13311.6536,-3493.9602L13311.6875,-3494.0164L13311.6924,-3494.0244L13311.7095,-3494.0408L13311.7334,-3494.0683L13311.7402,-3494.0723L13311.7816,-3494.1175L13311.8379,-3494.174L13311.845,-3494.1831L13311.8562,-3494.1942L13311.8681,-3494.2011L13311.8941,-3494.2172L13311.91,-3494.2299L13311.9443,-3494.2463L13311.9646,-3494.2585L13311.9755,-3494.2614L13311.9944,-3494.2719L13312.0391,-3494.2884L13312.0616,-3494.298L13312.094,-3494.312L13312.1022,-3494.3147L13312.1268,-3494.3223L13312.1464,-3494.3284L13312.1568,-3494.3302L13312.201,-3494.3421L13312.2114,-3494.3473L13312.2188,-3494.3532L13312.2416,-3494.3635L13312.2578,-3494.3721L13312.2715,-3494.3945L13312.2794,-3494.4062L13312.2894,-3494.4393L13312.2927,-3494.4575L13312.2935,-3494.4963L13312.2953,-3494.5823L13312.2995,-3494.6733L13312.3,-3494.7165L13312.3035,-3494.8368L13312.3055,-3494.9584L13312.3065,-3494.9696L13312.3209,-3495.04L13312.3262,-3495.0647L13312.3357,-3495.1027L13312.3592,-3495.2023L13312.3748,-3495.2755L13312.3946,-3495.3564L13312.4198,-3495.4418L13312.4274,-3495.4722L13312.4446,-3495.5289L13312.4541,-3495.5638L13312.4642,-3495.633L13312.4763,-3495.7177L13312.4778,-3495.7694L13312.4757,-3495.8005L13312.4738,-3495.8291L13312.4586,-3495.8907L13312.4378,-3495.9481L13312.423,-3495.9815L13312.3791,-3496.0658L13312.3467,-3496.1283L13312.3108,-3496.2015L13312.3072,-3496.2182L13312.303,-3496.2503L13312.2994,-3496.3188L13312.2954,-3496.4327L13312.2957,-3496.5286L13312.2926,-3496.5693L13312.279,-3496.6621L13312.2787,-3496.6703L13312.2772,-3496.7423L13312.2754,-3496.7856L13312.278,-3496.8977L13312.2739,-3496.9118L13312.2624,-3496.9465L13312.2572,-3496.9705L13312.2598,-3497.0381L13312.2633,-3497.0532L13312.2666,-3497.0664L13312.2922,-3497.1183L13312.3262,-3497.1878L13312.3389,-3497.209L13312.3551,-3497.2274L13312.3791,-3497.2475L13312.4277,-3497.2816L13312.4501,-3497.3023L13312.4839,-3497.3357L13312.501,-3497.354L13312.5128,-3497.3687L13312.5289,-3497.3849"/>
<path content="2,庄原市,道後山線,3.0,3.0,0.0," xlink:title="2" d="M13312.5289,-3497.3849L13312.5174,-3497.4088"/>
<path content="2,庄原市,道後山線,3.0,3.0,0.0," xlink:title="2" d="M13312.5289,-3497.3849L13312.5454,-3497.3982L13312.5653,-3497.4059L13312.584,-3497.4093L13312.6163,-3497.405L13312.6423,-3497.3935L13312.6829,-3497.3772L13312.7027,-3497.3768L13312.7735,-3497.3768L13312.825,-3497.38L13312.8833,-3497.3815L13312.9176,-3497.3853L13312.9634,-3497.4008L13313.017,-3497.4256L13313.0862,-3497.4646L13313.1388,-3497.4967L13313.2116,-3497.5386L13313.2652,-3497.5686L13313.3251,-3497.5998L13313.3813,-3497.6294L13313.4489,-3497.6748L13313.488,-3497.7069L13313.5208,-3497.7377L13313.5546,-3497.7715L13313.578,-3497.7865L13313.6144,-3497.8054L13313.6425,-3497.8169L13313.6758,-3497.8242L13313.6956,-3497.828L13313.7222,-3497.8268L13313.7539,-3497.8199L13313.7685,-3497.8182L13313.7966,-3497.8203L13313.8392,-3497.8332L13313.8882,-3497.8567L13313.9532,-3497.8854L13313.9985,-3497.9055L13314.0183,-3497.9201L13314.0297,-3497.9445L13314.0261,-3497.9728L13314.0177,-3498.0014L13314.0068,-3498.0147L13313.9844,-3498.0417L13313.979,-3498.0469"/>
<path content="2,庄原市,馬酔線,3.5,3.5,0.0," xlink:title="2" d="M13311.5721,-3493.7535L13311.5732,-3493.7394L13311.5781,-3493.7273L13311.5836,-3493.722L13311.5923,-3493.7152L13311.6034,-3493.7084L13311.6451,-3493.6931L13311.6796,-3493.682L13311.7016,-3493.6763L13311.7115,-3493.6699L13311.7274,-3493.6594L13311.7402,-3493.6438L13311.7494,-3493.6319L13311.7772,-3493.5735L13311.7919,-3493.543L13311.8076,-3493.5177L13311.8103,-3493.5056L13311.8138,-3493.4862L13311.8147,-3493.4673L13311.8147,-3493.4361L13311.8147,-3493.4215L13311.8099,-3493.4122L13311.7943,-3493.373L13311.7889,-3493.3523L13311.7705,-3493.3073L13311.7644,-3493.2759L13311.7439,-3493.2291"/>
<path content="2,庄原市,馬酔線,3.5,3.5,0.0," xlink:title="2" d="M13311.5721,-3493.7535L13311.4811,-3493.745L13311.4488,-3493.7426L13311.4006,-3493.7424L13311.3779,-3493.7443L13311.3426,-3493.7544L13311.3108,-3493.7633L13311.2745,-3493.7769L13311.2286,-3493.7983L13311.1835,-3493.8163L13311.1394,-3493.8315L13311.1021,-3493.844L13311.088,-3493.8494L13311.0692,-3493.8606L13311.0313,-3493.8651L13310.994,-3493.8738L13310.9646,-3493.8832L13310.9228,-3493.8988L13310.9016,-3493.9052L13310.8837,-3493.9071L13310.8382,-3493.9054L13310.7785,-3493.9005L13310.684,-3493.8965L13310.6671,-3493.8988L13310.6501,-3493.9044L13310.6317,-3493.9173L13310.6138,-3493.9396L13310.6055,-3493.9472L13310.5936,-3493.9495L13310.5232,-3493.9495L13310.4464,-3493.9544L13310.3706,-3493.9646L13310.3356,-3493.9703L13310.3154,-3493.9757L13310.2887,-3493.989L13310.2723,-3494.001L13310.2543,-3494.0236L13310.2451,-3494.0335L13310.2317,-3494.0475L13310.211,-3494.0592L13310.1807,-3494.0675L13310.133,-3494.0755L13310.0925,-3494.08L13310.0516,-3494.0751L13310.0116,-3494.0651L13309.9571,-3494.0461L13309.8558,-3494.0072L13309.8282,-3493.996L13309.7994,-3493.9921L13309.7694,-3493.9972L13309.7476,-3494.0044L13309.7293,-3494.0103L13309.6808,-3494.0251L13309.5705,-3494.0514L13309.5348,-3494.0604L13309.5041,-3494.0733L13309.4678,-3494.0897L13309.4155,-3494.1142L13309.3513,-3494.137L13309.2938,-3494.1642L13309.2671,-3494.1802L13309.2331,-3494.203L13309.1879,-3494.2294L13309.1564,-3494.2478L13309.1261,-3494.2609L13309.0579,-3494.28L13309.0428,-3494.2865L13309.0281,-3494.2937L13308.994,-3494.3224L13308.9821,-3494.337L13308.9779,-3494.3445L13308.9707,-3494.358L13308.9492,-3494.4049L13308.9205,-3494.4446L13308.899,-3494.4787L13308.889,-3494.5109L13308.8862,-3494.5528L13308.8902,-3494.6329L13308.897,-3494.6936L13308.893,-3494.7264L13308.8822,-3494.7539L13308.8635,-3494.7831L13308.8491,-3494.8002L13308.8196,-3494.8228L13308.7858,-3494.85L13308.7798,-3494.8569L13308.7658,-3494.8835L13308.7475,-3494.9313L13308.7366,-3494.9625L13308.714,-3494.9937L13308.6909,-3495.0189L13308.6658,-3495.0419L13308.6355,-3495.0648L13308.6088,-3495.0855L13308.5841,-3495.1081L13308.5271,-3495.1783L13308.5048,-3495.2154L13308.4964,-3495.2384L13308.4854,-3495.2935L13308.4775,-3495.3381L13308.4757,-3495.3656L13308.4669,-3495.3889L13308.443,-3495.4115L13308.3963,-3495.4493L13308.3756,-3495.4676L13308.3485,-3495.4975L13308.3354,-3495.5201L13308.3202,-3495.5536L13308.2991,-3495.6008L13308.2624,-3495.691L13308.2497,-3495.7238L13308.2325,-3495.7523L13308.201,-3495.7822L13308.1791,-3495.7973L13308.1656,-3495.8087L13308.154,-3495.8212L13308.1444,-3495.8343L13308.1377,-3495.855L13308.1345,-3495.8806L13308.1344,-3495.9023L13308.137,-3495.9522L13308.1356,-3495.9614L13308.1274,-3495.9747L13308.1139,-3495.9921L13308.0967,-3496.0164L13308.086,-3496.0308L13308.0533,-3496.0631L13308.0383,-3496.0772L13308.0306,-3496.088L13308.0132,-3496.1105L13307.9901,-3496.1334L13307.965,-3496.1503L13307.9325,-3496.1713L13307.9008,-3496.1972L13307.8873,-3496.2097L13307.8787,-3496.2205L13307.8733,-3496.2317L13307.8701,-3496.2407L13307.8703,-3496.2584L13307.8725,-3496.2737L13307.8705,-3496.2804L13307.8667,-3496.2863L13307.8516,-3496.3033L13307.8442,-3496.3134L13307.8416,-3496.3214L13307.8402,-3496.337L13307.8394,-3496.3708L13307.837,-3496.3814L13307.8269,-3496.4134L13307.8243,-3496.4304L13307.8217,-3496.4511L13307.8229,-3496.4729L13307.8241,-3496.4828L13307.8348,-3496.5015L13307.8462,-3496.5218L13307.8479,-3496.5289L13307.8534,-3496.5477L13307.8552,-3496.5639L13307.8518,-3496.5982L13307.8474,-3496.6195L13307.838,-3496.6354L13307.8137,-3496.6628L13307.7799,-3496.6471L13307.7898,-3496.6182L13307.7914,-3496.6044L13307.7908,-3496.593L13307.7892,-3496.5828L13307.7846,-3496.5764L13307.7775,-3496.5712L13307.7667,-3496.5685L13307.7579,-3496.5698L13307.744,-3496.5746L13307.7211,-3496.5903L13307.6963,-3496.6059L13307.6786,-3496.6104L13307.6587,-3496.6143L13307.6485,-3496.6186L13307.6338,-3496.6307L13307.6192,-3496.6489L13307.6053,-3496.6689L13307.5981,-3496.6897L13307.5977,-3496.7229L13307.5939,-3496.7353L13307.5851,-3496.7537L13307.5748,-3496.7811L13307.5672,-3496.8093L13307.564,-3496.8235L13307.5594,-3496.8311L13307.5523,-3496.8385L13307.5391,-3496.8427L13307.5172,-3496.847L13307.5076,-3496.8486L13307.5016,-3496.8536L13307.4847,-3496.8677L13307.4524,-3496.8852L13307.4313,-3496.8951L13307.4211,-3496.9013L13307.4088,-3496.9144L13307.3913,-3496.9366L13307.3809,-3496.9441L13307.3645,-3496.9541L13307.3494,-3496.9693L13307.341,-3496.9825L13307.3366,-3496.9962L13307.3358,-3497.0112L13307.341,-3497.034L13307.34,-3497.0413L13307.336,-3497.0449L13307.3299,-3497.0474L13307.3241,-3497.0459L13307.3069,-3497.0305L13307.3002,-3497.0271L13307.2922,-3497.0276L13307.2826,-3497.0302L13307.2742,-3497.0343L13307.2583,-3497.0366L13307.2418,-3497.042L13307.2316,-3497.0474L13307.221,-3497.0589L13307.2075,-3497.0763L13307.1911,-3497.0945L13307.1607,-3497.1135L13307.1222,-3497.1422L13307.1094,-3497.1512L13307.0933,-3497.1558L13307.0644,-3497.1579L13307.0377,-3497.1597L13307.0241,-3497.1627L13307.0174,-3497.1689L13307.0122,-3497.1793L13307.0065,-3497.204L13306.9989,-3497.2421L13306.9854,-3497.2699L13306.9794,-3497.2841L13306.9794,-3497.307L13306.979,-3497.3736L13306.9766,-3497.4149L13306.975,-3497.4251L13306.9682,-3497.4287L13306.9515,-3497.4261L13306.9168,-3497.4107L13306.8821,-3497.389L13306.8734,-3497.3798L13306.8718,-3497.3687L13306.8718,-3497.3542L13306.8674,-3497.3415L13306.8574,-3497.3339L13306.8503,-3497.3333L13306.8415,-3497.3369L13306.8295,-3497.3477L13306.8176,-3497.3536L13306.8052,-3497.3562L13306.7853,-3497.3575L13306.767,-3497.3615L13306.7483,-3497.3695L13306.7318,-3497.3728L13306.724,-3497.3724L13306.7091,-3497.3675L13306.6808,-3497.3503L13306.6475,-3497.3303L13306.6413,-3497.3275L13306.6406,-3497.3272"/>
<path content="2,庄原市,馬酔線,3.5,3.5,0.0," xlink:title="2" d="M13311.5757,-3493.8127L13311.5733,-3493.7978L13311.5712,-3493.7725L13311.5721,-3493.7535"/>
<path content="2,庄原市,馬酔線,3.5,3.5,0.0," xlink:title="2" d="M13311.5757,-3493.8127L13311.6507,-3493.7988L13311.6993,-3493.7843L13311.7226,-3493.7755"/>
<path content="2,庄原市,馬酔線,3.5,3.5,0.0," xlink:title="2" d="M13311.638,-3493.9311L13311.6255,-3493.914L13311.622,-3493.907L13311.6097,-3493.8863L13311.5882,-3493.8555L13311.5812,-3493.8391L13311.5794,-3493.8322L13311.5757,-3493.8127"/>
<path content="2,庄原市,馬酔線,3.5,3.5,0.0," xlink:title="2" d="M13311.638,-3493.9311L13311.673,-3493.9201L13311.7894,-3493.8702L13311.8943,-3493.8332L13311.911,-3493.8262L13311.9237,-3493.8206L13311.9331,-3493.8165L13311.9421,-3493.8265L13311.9795,-3493.8874L13312.0188,-3493.9698L13312.0438,-3494.0089L13312.0928,-3494.1026L13312.1187,-3494.1514L13312.1314,-3494.17L13312.14,-3494.1778L13312.1494,-3494.1846L13312.1655,-3494.1921L13312.1933,-3494.205L13312.2172,-3494.2187L13312.2404,-3494.2335L13312.2611,-3494.2456L13312.3211,-3494.2837L13312.4014,-3494.3237L13312.4943,-3494.3719L13312.5162,-3494.3867L13312.5322,-3494.4021L13312.5509,-3494.4293L13312.5844,-3494.5021L13312.6123,-3494.5713L13312.6171,-3494.5965L13312.6302,-3494.6595L13312.649,-3494.7595L13312.6601,-3494.8113L13312.6717,-3494.8671"/>
<path content="2,庄原市,馬酔線,3.5,3.5,0.0," xlink:title="2" d="M13312.2188,-3494.3532L13312.2114,-3494.3473L13312.201,-3494.3421L13312.1568,-3494.3302L13312.1464,-3494.3284L13312.1268,-3494.3223L13312.1022,-3494.3147L13312.094,-3494.312L13312.0616,-3494.298L13312.0391,-3494.2884L13311.9944,-3494.2719L13311.9755,-3494.2614L13311.9646,-3494.2585L13311.9443,-3494.2463L13311.91,-3494.2299L13311.8941,-3494.2172L13311.8681,-3494.2011L13311.8562,-3494.1942L13311.845,-3494.1831L13311.8379,-3494.174L13311.7816,-3494.1175L13311.7402,-3494.0723L13311.7334,-3494.0683L13311.7095,-3494.0408L13311.6924,-3494.0244L13311.6875,-3494.0164L13311.6536,-3493.9602L13311.638,-3493.9311"/>
</g>
</svg>
