<?xml version="1.0" encoding="UTF-8"?>
<svg  xmlns="http://www.w3.org/2000/svg" xmlns:xlink="http://www.w3.org/1999/xlink" xmlns:go="http://purl.org/svgmap/profile" property="N07_001,N07_002,N07_003,N07_004,N07_005,N07_006,N07_007" viewBox="13728.515625 -3665.0390625 8.7890625 8.7890625" go:dataArea="13728.515625 -3665.0390625 8.7890625 8.7890625" >
<metadata>
 <rdf:RDF xmlns:rdf="http://www.w3.org/1999/02/22-rdf-syntax-ns#" xmlns:crs="http://opengis.org/xmldtds/transformations.dtd" xmlns:svg="http://www.w3.org/svg" >
  <rdf:Description>
   <crs:CoordinateReferenceSystem rdf:resource="http://purl.org/crs/84" svg:transform="matrix(100.0,0.0,0.0,-100.0,0.0,0.0)" />
  </rdf:Description>
 </rdf:RDF>
</metadata>
<globalCoordinateSystem srsName="http://purl.org/crs/84" transform="matrix(100.0,0.0,0.0,-100.0,0.0,0.0)" />
<defs>
 <g id="p0" >
  <circle cx="0.0" cy="0.0" r="3" stroke="green" stroke-width="0.75" vector-effect="non-scaling-stroke" />
 </g>
</defs>
<g fill="none" fill-rule="evenodd" stroke="#FF00FF" stroke-width="0.75" opacity="0.5" vector-effect="non-scaling-stroke" stroke-linejoin="bevel" >
<path content="1,富山地方鉄道（株）,大森,2.0,0.0,0.0," xlink:title="1" d="M13729.9773,-3663.2538L13729.9696,-3663.2695L13729.8946,-3663.2845L13729.8729,-3663.2907L13729.8526,-3663.2997L13729.8064,-3663.3253L13729.8038,-3663.3267L13729.7919,-3663.334L13729.7549,-3663.3538L13729.5761,-3663.4545L13729.5294,-3663.4807L13729.5229,-3663.4843L13729.487,-3663.5051L13729.4455,-3663.5283L13729.4009,-3663.5548L13729.382,-3663.5655L13729.351,-3663.5874L13729.3296,-3663.6133L13729.315,-3663.6353L13729.2969,-3663.6732L13729.2884,-3663.691L13729.2381,-3663.8155L13729.2256,-3663.8448L13729.1963,-3663.9163L13729.1822,-3663.942L13729.1809,-3663.9444L13729.1585,-3663.985L13729.1494,-3664.0002L13729.1425,-3664.0199L13729.1298,-3664.0672L13729.118,-3664.0909L13729.1152,-3664.0982L13729.102,-3664.1303L13729.0761,-3664.1922L13729.0733,-3664.1984L13729.0709,-3664.2042L13729.0475,-3664.2603L13729.0363,-3664.2879L13728.9595,-3664.4428L13728.9518,-3664.4591L13728.8959,-3664.5892L13728.875,-3664.6388L13728.872,-3664.6458L13728.8541,-3664.6878L13728.8485,-3664.7058L13728.8443,-3664.7238L13728.8394,-3664.7564L13728.8262,-3664.8132L13728.824,-3664.8223L13728.8226,-3664.8297L13728.8128,-3664.8719L13728.8079,-3664.8894L13728.8345,-3664.8905L13728.8666,-3664.8922L13728.8981,-3664.895L13728.9455,-3664.8978L13729.0843,-3664.9069L13729.0922,-3664.9074L13729.1672,-3664.912L13729.3102,-3664.9216L13729.3209,-3664.9221L13729.3324,-3664.9226L13729.3903,-3664.9257L13729.5014,-3664.9322L13729.5621,-3664.9297L13729.8925,-3664.8768L13729.9371,-3664.8691L13730.0286,-3664.8544L13729.9947,-3664.9256L13729.9671,-3664.9834L13729.9616,-3665.0014L13729.9612,-3665.0391"/>
<path content="1,富山地方鉄道（株）,富山斎場前65,13.0,10.0,10.0," xlink:title="1" d="M13728.5156,-3663.076L13728.535,-3663.0637L13728.5713,-3663.0406L13728.6217,-3663.0091L13728.8601,-3662.8682"/>
<path content="2,立山町,伊勢屋線,5.5,5.5,0.0," xlink:title="2" d="M13735.9439,-3665.0391L13735.9422,-3665.0286L13735.9431,-3665.0144L13735.9469,-3664.9801L13735.9488,-3664.9628L13735.9484,-3664.9446L13735.9439,-3664.9266L13735.9286,-3664.881L13735.9195,-3664.8517L13735.9195,-3664.8444L13735.9244,-3664.8371L13735.9719,-3664.787L13735.9858,-3664.7729L13736.0075,-3664.7504L13736.0166,-3664.7369L13736.0228,-3664.72L13736.0272,-3664.7043L13736.0291,-3664.698L13736.0382,-3664.6513L13736.0424,-3664.5933L13736.0445,-3664.5826L13736.0543,-3664.5617L13736.0644,-3664.5483L13736.0871,-3664.5133L13736.1393,-3664.4384L13736.1569,-3664.4131L13736.1918,-3664.3624L13736.1995,-3664.3489L13736.2023,-3664.3258L13736.1974,-3664.2779L13736.188,-3664.1939L13736.1869,-3664.1867L13736.185,-3664.1692L13736.1805,-3664.1276L13736.1764,-3664.0949L13736.166,-3663.9992L13736.1555,-3663.9063L13736.1471,-3663.8415L13736.1451,-3663.8134L13736.1429,-3663.8049L13736.1423,-3663.7751L13736.1457,-3663.7587L13736.1506,-3663.7474L13736.1513,-3663.7435L13736.1925,-3663.6652L13736.2134,-3663.6253L13736.2218,-3663.5971L13736.2477,-3663.4805L13736.2518,-3663.458L13736.2554,-3663.4181L13736.2568,-3663.3843L13736.2589,-3663.3708L13736.2665,-3663.3482L13736.2959,-3663.2981L13736.3217,-3663.2559L13736.3322,-3663.2333L13736.3406,-3663.2041L13736.3441,-3663.1849L13736.3524,-3663.163L13736.3636,-3663.1494L13736.378,-3663.1347L13736.3894,-3663.123L13736.4083,-3663.0993L13736.4272,-3663.07L13736.4355,-3663.0441L13736.4397,-3663.0284L13736.4474,-3663.0115L13736.46,-3662.9951L13736.4739,-3662.9856L13736.5082,-3662.9743L13736.5144,-3662.9709L13736.52,-3662.9625L13736.5235,-3662.9489L13736.5256,-3662.9321L13736.527,-3662.8966L13736.5326,-3662.8758L13736.5382,-3662.8667L13736.5494,-3662.8561L13736.6247,-3662.8228L13736.6338,-3662.8172L13736.645,-3662.8065L13736.6492,-3662.7964L13736.6485,-3662.789L13736.6415,-3662.7744L13736.6422,-3662.7637L13736.6513,-3662.7406L13736.6569,-3662.7316L13736.666,-3662.7175L13736.6771,-3662.7068L13736.6883,-3662.704L13736.7623,-3662.6899L13736.7966,-3662.6815L13736.8322,-3662.6696L13736.8741,-3662.6556L13736.9348,-3662.6303L13736.9628,-3662.6173L13737.0004,-3662.6015L13737.034,-3662.5919L13737.0836,-3662.5813L13737.1052,-3662.5807L13737.1482,-3662.5883L13737.1764,-3662.5953L13737.1848,-3662.5953L13737.1967,-3662.5929L13737.2122,-3662.585L13737.2181,-3662.5734L13737.22,-3662.5644L13737.2129,-3662.5517L13737.1967,-3662.5348L13737.1758,-3662.5143L13737.1667,-3662.5058L13737.1318,-3662.4613L13737.1276,-3662.4562L13737.1024,-3662.4366L13737.0619,-3662.4112L13737.0576,-3662.4086L13737.0363,-3662.3957L13737.0228,-3662.3876L13737.0109,-3662.378L13737.0053,-3662.3701L13736.9984,-3662.3515L13737,-3662.333L13737.057,-3662.1914L13737.0696,-3662.1736L13737.0787,-3662.1646L13737.1108,-3662.1409L13737.1136,-3662.1398L13737.1276,-3662.1291L13737.1736,-3662.0992L13737.1876,-3662.0863L13737.1967,-3662.0756L13737.2106,-3662.0539L13737.2158,-3662.0354L13737.2178,-3662.0212L13737.2152,-3661.9947L13737.2171,-3661.9804L13737.2197,-3661.9667L13737.2354,-3661.9402L13737.2562,-3661.9069L13737.2797,-3661.8852L13737.2934,-3661.8747L13737.3047,-3661.8719"/>
<path content="2,立山町,利田・大森おでかけワゴン,1.0,0.0,0.0," xlink:title="2" d="M13731.6809,-3661.0692L13731.6804,-3661.0681"/>
<path content="2,立山町,利田・大森おでかけワゴン,1.0,0.0,0.0," xlink:title="2" d="M13731.6809,-3661.0692L13731.6976,-3661.0726L13731.7639,-3661.09L13731.7835,-3661.0945L13731.8534,-3661.1126L13731.8685,-3661.1166L13731.8827,-3661.1204L13731.9064,-3661.1261L13731.9218,-3661.1283L13731.9952,-3661.1287L13732.0429,-3661.1289L13732.0482,-3661.1289L13732.1625,-3661.1276L13732.1599,-3661.1008L13732.1257,-3661.0658L13732.0978,-3661.031L13732.03,-3660.9504L13732.0167,-3660.9341L13732.016,-3660.9307L13732.0174,-3660.9166L13732.0195,-3660.8676L13732.0174,-3660.8434L13732.0171,-3660.8242L13732.016,-3660.7702L13732.016,-3660.6953L13732.0531,-3660.6953L13732.0677,-3660.6964L13732.0859,-3660.6953L13732.1082,-3660.6908L13732.1396,-3660.6863L13732.2577,-3660.6863L13732.2583,-3660.6857L13732.3205,-3660.6868L13732.3491,-3660.6835L13732.4253,-3660.6672L13732.4895,-3660.6531L13732.5265,-3660.6497L13732.5379,-3660.6483L13732.5496,-3660.6508L13732.5824,-3660.6519L13732.6368,-3660.6519L13732.6819,-3660.6433L13732.6931,-3660.6402L13732.7234,-3660.6349L13732.7528,-3660.6306L13732.765,-3660.6294L13732.7821,-3660.6283L13732.8331,-3660.6283L13732.854,-3660.6238L13732.9085,-3660.6069L13732.9608,-3660.5934L13732.9741,-3660.5928L13732.9853,-3660.5985L13732.9881,-3660.6103L13732.9874,-3660.6142L13732.9804,-3660.621L13732.9692,-3660.6255L13732.9176,-3660.6362L13732.9022,-3660.6429L13732.8861,-3660.6542L13732.8652,-3660.6717L13732.8477,-3660.6903L13732.8421,-3660.6981L13732.8449,-3660.7122L13732.8505,-3660.7252L13732.8624,-3660.7325L13732.868,-3660.7342L13732.9336,-3660.7348L13732.9343,-3660.7843L13732.9357,-3660.9099L13732.9322,-3660.9921L13732.9259,-3661.076L13732.9231,-3661.1036L13732.9231,-3661.1537L13732.9252,-3661.1762L13732.9294,-3661.2044L13732.9357,-3661.2303L13732.9448,-3661.2641L13732.898,-3661.2804L13732.8833,-3661.2877L13732.8749,-3661.2939L13732.8694,-3661.3013L13732.8666,-3661.3102L13732.8652,-3661.3412L13732.859,-3661.3545L13732.8549,-3661.3586"/>
<path content="2,立山町,利田・大森おでかけワゴン,1.0,0.0,0.0," xlink:title="2" d="M13730.9728,-3662.4437L13730.9253,-3662.4353L13730.8973,-3662.4286L13730.8024,-3662.3976L13730.7947,-3662.3959L13730.7723,-3662.3884L13730.736,-3662.3762L13730.6585,-3662.3514L13730.6453,-3662.3463L13730.5468,-3662.3154L13730.5377,-3662.3135L13730.5236,-3662.3106L13730.5125,-3662.3092L13730.4933,-3662.3072L13730.4852,-3662.3074L13730.4651,-3662.3142L13730.4546,-3662.3204L13730.4337,-3662.339L13730.3317,-3662.4494L13730.3059,-3662.4387L13730.2832,-3662.4269"/>
<path content="2,立山町,利田・大森おでかけワゴン,1.0,0.0,0.0," xlink:title="2" d="M13730.9728,-3662.4437L13730.9965,-3662.4471L13731.0168,-3662.4488L13731.0754,-3662.4561L13731.0984,-3662.4584L13731.1005,-3662.4584L13731.1899,-3662.4691L13731.2905,-3662.4804L13731.3398,-3662.4859L13731.4677,-3662.4994L13731.5531,-3662.5091L13731.5503,-3662.4759L13731.5503,-3662.4308L13731.5663,-3662.2456L13731.567,-3662.2258L13731.5684,-3662.2134L13731.5698,-3662.1988L13731.5803,-3662.0744L13731.5894,-3661.9578L13731.5915,-3661.9274L13731.6012,-3661.8232L13731.6061,-3661.7861L13731.6069,-3661.7811L13731.6071,-3661.7802L13731.6473,-3661.5208L13731.6585,-3661.4414L13731.6627,-3661.4161L13731.6805,-3661.2942L13731.6809,-3661.2916L13731.6809,-3661.2635L13731.6753,-3661.2179L13731.6683,-3661.1537L13731.6655,-3661.1289L13731.6662,-3661.1109L13731.6746,-3661.0844L13731.6809,-3661.0692"/>
<path content="2,立山町,利田・大森おでかけワゴン,1.0,0.0,0.0," xlink:title="2" d="M13729.4673,-3665.0391L13729.4958,-3664.9474L13729.5014,-3664.9322L13729.5453,-3664.9312L13729.5621,-3664.9297L13729.578,-3664.9274L13729.6362,-3664.9186L13729.7688,-3664.8984L13729.8925,-3664.8768L13729.9371,-3664.8691L13730.0286,-3664.8544L13730.0562,-3664.7994L13730.0614,-3664.7891L13730.0803,-3664.7638L13730.0866,-3664.7497L13730.0873,-3664.7317L13730.0824,-3664.7041L13730.0754,-3664.6692L13730.0761,-3664.6506L13730.0796,-3664.623L13730.0852,-3664.5954L13730.0929,-3664.5458L13730.1145,-3664.4434L13730.1194,-3664.4214L13730.1201,-3664.4158L13730.1362,-3664.3572L13730.1423,-3664.3353L13730.1388,-3664.3351L13730.0803,-3664.3324L13730.0754,-3664.3319L13730.0712,-3664.3302L13729.9155,-3664.3138L13729.9134,-3664.3138L13729.8134,-3664.3021L13729.7221,-3664.293L13729.6843,-3664.2885L13729.6592,-3664.2829L13729.5684,-3664.2582L13729.514,-3664.2434L13729.5126,-3664.2423L13729.4693,-3664.2305L13729.3541,-3664.1989L13729.3467,-3664.1971L13729.3226,-3664.1911L13729.2521,-3664.1714L13729.2353,-3664.1674L13729.102,-3664.1303L13729.1152,-3664.0982L13729.118,-3664.0909L13729.1257,-3664.074L13729.1298,-3664.0672L13729.1425,-3664.0199L13729.1494,-3664.0002L13729.1585,-3663.985L13729.1809,-3663.9444L13729.1822,-3663.942L13729.1963,-3663.9163L13729.2256,-3663.8448L13729.2381,-3663.8155L13729.2884,-3663.691L13729.2969,-3663.6732L13729.315,-3663.6353L13729.3296,-3663.6133L13729.351,-3663.5874L13729.382,-3663.5655L13729.4009,-3663.5548L13729.4455,-3663.5283L13729.487,-3663.5051L13729.5229,-3663.4843L13729.5294,-3663.4807L13729.5761,-3663.4545L13729.7549,-3663.3538L13729.7919,-3663.334L13729.8038,-3663.3267L13729.8064,-3663.3253L13729.8526,-3663.2997L13729.8729,-3663.2907L13729.8946,-3663.2845L13729.9696,-3663.2695L13729.9773,-3663.2538L13730.0225,-3663.1499L13730.0314,-3663.1341L13730.0342,-3663.1313L13730.0656,-3663.0851L13730.0845,-3663.0581L13730.1138,-3662.9916L13730.1201,-3662.9815L13730.1327,-3662.968L13730.1744,-3662.9339L13730.1921,-3662.9309L13730.2095,-3662.9309L13730.2178,-3662.9323L13730.2228,-3662.9331L13730.3254,-3662.9663L13730.3589,-3662.9781L13730.4254,-3663.0007L13730.4503,-3663.0092L13730.5726,-3663.0508L13730.5803,-3663.053L13730.5873,-3663.0547L13730.6404,-3663.0756L13730.6669,-3663.0885L13730.6997,-3663.1054L13730.7082,-3663.0854L13730.7395,-3663.0058L13730.7709,-3662.9365L13730.8265,-3662.8191L13730.8373,-3662.7963L13730.8617,-3662.7416L13730.8917,-3662.6681L13730.8927,-3662.6656L13730.9028,-3662.6416L13730.9066,-3662.6311L13730.9728,-3662.4437"/>
<path content="2,立山町,吉峰線,3.5,2.6,0.0," xlink:title="2" d="M13734.8305,-3665.0391L13734.8176,-3665.0122L13734.8162,-3665.0071L13734.8113,-3664.9964L13734.7771,-3664.8945L13734.7722,-3664.8838L13734.7484,-3664.8174L13734.7206,-3664.7338L13734.7051,-3664.6929L13734.6765,-3664.6293L13734.6507,-3664.578L13734.6324,-3664.5419L13734.6262,-3664.5296L13734.6234,-3664.5268L13734.6039,-3664.4947L13734.5746,-3664.4559L13734.5689,-3664.4498L13734.5683,-3664.4491L13734.5012,-3664.3601L13734.4978,-3664.3567L13734.4866,-3664.3421L13734.4766,-3664.3271L13734.4653,-3664.3128L13734.4649,-3664.3123L13734.4518,-3664.2931L13734.4502,-3664.2908L13734.4398,-3664.2728L13734.4168,-3664.2221L13734.4105,-3664.1974L13734.4049,-3664.1794L13734.3923,-3664.1292L13734.3804,-3664.0673L13734.3735,-3664.0093L13734.3721,-3664.0065L13734.3707,-3663.9952L13734.3637,-3663.9293L13734.3588,-3663.9012L13734.3511,-3663.8713L13734.3212,-3663.7909L13734.3141,-3663.7712L13734.3123,-3663.7673L13734.3071,-3663.7592L13734.3029,-3663.748L13734.2617,-3663.6596L13734.2387,-3663.5673L13734.2303,-3663.5301L13734.2179,-3663.4797L13734.1526,-3663.2251L13734.1402,-3663.1725L13734.1549,-3663.1719L13734.2136,-3663.1747L13734.2366,-3663.1759L13734.2704,-3663.1759L13734.2882,-3663.1759L13734.3351,-3663.1759L13734.3693,-3663.1747L13734.3895,-3663.1736L13734.4168,-3663.1719L13734.4286,-3663.1714L13734.6339,-3663.1635L13734.7296,-3663.1629L13734.782,-3663.1607L13734.8001,-3663.159L13734.826,-3663.1579L13734.8574,-3663.1556L13734.8671,-3663.1556L13734.8652,-3663.0837L13734.8623,-3663.0142L13734.8274,-3662.9157L13734.826,-3662.9039L13734.8329,-3662.8769L13734.8413,-3662.8543L13734.842,-3662.8521L13734.8448,-3662.8386L13734.8455,-3662.8132L13734.8427,-3662.7997L13734.8413,-3662.798L13734.8364,-3662.7682L13734.8364,-3662.6905L13734.8386,-3662.6849L13734.7798,-3662.6676L13734.7338,-3662.6556L13734.7226,-3662.6533L13734.6968,-3662.6454L13734.673,-3662.6438L13734.6325,-3662.6488L13734.5418,-3662.6623L13734.4943,-3662.6696L13734.4181,-3662.6792L13734.4063,-3662.6826L13734.3441,-3662.6927L13734.363,-3662.6555L13734.3644,-3662.6544L13734.3839,-3662.615L13734.3846,-3662.6077L13734.3714,-3662.5497L13734.3749,-3662.441L13734.3735,-3662.4258L13734.3693,-3662.4078L13734.3616,-3662.3824L13734.3498,-3662.3492L13734.3487,-3662.3451L13734.3148,-3662.3215L13734.2373,-3662.2687L13734.2275,-3662.2602L13734.2129,-3662.2428L13734.2045,-3662.2372L13734.1975,-3662.2343L13734.1786,-3662.2321L13734.1717,-3662.2298L13734.1354,-3662.209L13734.0188,-3662.138L13734.0041,-3662.127L13734.0004,-3662.1234L13733.9573,-3662.0958L13733.9356,-3662.0828L13733.921,-3662.0772L13733.9063,-3662.0744L13733.8784,-3662.0716L13733.8721,-3662.0699L13733.8707,-3662.0693L13733.8588,-3662.0592L13733.8491,-3662.0429L13733.7813,-3661.9145L13733.7359,-3661.8396L13733.7234,-3661.8228L13733.712,-3661.8142L13733.6824,-3661.7964L13733.6698,-3661.7899L13733.6596,-3661.785L13733.6549,-3661.7824L13733.65,-3661.779L13733.6423,-3661.7721L13733.6368,-3661.763L13733.634,-3661.7495L13733.634,-3661.714L13733.6375,-3661.6949L13733.6473,-3661.6678L13733.6703,-3661.6177L13733.6717,-3661.6126L13733.6722,-3661.6034L13733.6724,-3661.5991L13733.657,-3661.5879L13733.6312,-3661.5749L13733.6117,-3661.5682L13733.5865,-3661.562L13733.5691,-3661.5597L13733.5411,-3661.5597L13733.5167,-3661.5642L13733.509,-3661.5659L13733.4901,-3661.5659L13733.4643,-3661.5603L13733.4427,-3661.5535L13733.4203,-3661.5451L13733.4126,-3661.5428L13733.3889,-3661.5361L13733.3784,-3661.5349L13733.347,-3661.5355L13733.2911,-3661.5417L13733.2213,-3661.5512L13733.1752,-3661.5586L13733.1305,-3661.5659L13733.09,-3661.5732L13733.0844,-3661.5749L13733.0733,-3661.5147L13733.0656,-3661.4882L13733.0586,-3661.4696L13733.0495,-3661.4533L13733.0363,-3661.4324L13733.0083,-3661.3913L13732.9853,-3661.3542L13732.9671,-3661.3209L13732.9546,-3661.2934L13732.9448,-3661.2641L13732.898,-3661.2804L13732.8833,-3661.2877L13732.8749,-3661.2939L13732.8694,-3661.3013L13732.8666,-3661.3102L13732.8652,-3661.3412L13732.8589,-3661.3547L13732.8549,-3661.3586"/>
<path content="2,立山町,新川・下段おでかけワゴン,1.2,0.0,0.0," xlink:title="2" d="M13732.8504,-3665.0391L13732.8323,-3664.9643L13732.8204,-3664.9204L13732.8072,-3664.8659L13732.8016,-3664.8427L13732.7729,-3664.7244L13732.7681,-3664.7007L13732.7625,-3664.6822L13732.928,-3664.6805L13732.9573,-3664.6777L13732.9734,-3664.6743L13733.0013,-3664.6636L13733.012,-3664.6576L13733.0243,-3664.6507L13733.0383,-3664.6422L13733.0571,-3664.6303L13733.143,-3664.5757L13733.1577,-3664.5673L13733.187,-3664.5504L13733.2066,-3664.5425L13733.2401,-3664.5341L13733.2468,-3664.5333L13733.259,-3664.5318L13733.2889,-3664.5316L13733.3738,-3664.5338L13733.5368,-3664.5332L13733.539,-3664.5178L13733.5446,-3664.5037L13733.5557,-3664.4862L13733.569,-3664.4722L13733.5711,-3664.4676L13733.5725,-3664.4451L13733.5788,-3664.4265L13733.5858,-3664.4186L13733.599,-3664.4147L13733.6151,-3664.4141L13733.627,-3664.413L13733.6151,-3664.3821L13733.5899,-3664.3308L13733.5879,-3664.324L13733.5893,-3664.306L13733.5948,-3664.2734L13733.599,-3664.2385L13733.6039,-3664.2148L13733.6032,-3664.1974L13733.5946,-3664.1723L13733.5886,-3664.1546L13733.5474,-3664.0571L13733.5292,-3664.0217L13733.4761,-3663.931L13733.4698,-3663.9161L13733.4678,-3663.9113L13733.4636,-3663.8921L13733.4587,-3663.8088L13733.4587,-3663.8037L13733.4545,-3663.8048L13733.3749,-3663.8048L13733.3106,-3663.8045L13733.2651,-3663.7997L13733.2353,-3663.793L13733.2338,-3663.793L13733.2336,-3663.7931L13733.2289,-3663.793L13733.2157,-3663.7998L13733.2017,-3663.8105L13733.1912,-3663.8212L13733.1752,-3663.8448L13733.1577,-3663.8753L13733.1539,-3663.8876L13733.1424,-3663.9254L13733.1382,-3663.9383L13733.1256,-3663.967L13733.1186,-3663.9771L13733.1179,-3663.9783L13733.1102,-3663.9839L13733.1067,-3663.985L13733.1026,-3663.9867L13733.0984,-3663.9895L13733.0278,-3664.0205L13733.0083,-3664.0301L13732.9664,-3664.0492L13732.9405,-3664.0622L13732.8616,-3664.0982L13732.826,-3664.1129L13732.826,-3664.0487L13732.8274,-3663.9777L13732.8267,-3663.9597L13732.8278,-3663.886L13732.8281,-3663.8662L13732.8295,-3663.7547L13732.8316,-3663.5853L13732.8337,-3663.4095L13732.8345,-3663.2839L13732.8358,-3663.0874L13732.8365,-3663.0058L13732.8372,-3662.9495L13732.8651,-3662.9461L13733.002,-3662.9224L13733.0286,-3662.9146L13733.0341,-3662.9129L13733.0411,-3662.9101L13733.0418,-3662.9101L13733.0617,-3662.9043L13733.0916,-3662.8945L13733.1179,-3662.8864L13733.1382,-3662.8785L13733.1766,-3662.865L13733.1871,-3662.8622L13733.2142,-3662.8533L13733.2498,-3662.8417L13733.2785,-3662.8335L13733.3519,-3662.829L13733.3694,-3662.8289L13733.3707,-3662.8211L13733.3714,-3662.7991L13733.3749,-3662.7851L13733.3798,-3662.7755L13733.4259,-3662.7349L13733.4356,-3662.7248L13733.4419,-3662.7141L13733.452,-3662.689L13733.4919,-3662.5892L13733.5124,-3662.5381L13733.5132,-3662.5361L13733.5222,-3662.5209L13733.5446,-3662.4996L13733.5886,-3662.4618L13733.5997,-3662.4573L13733.6053,-3662.4556L13733.6221,-3662.4528L13733.6626,-3662.4522L13733.6766,-3662.4539L13733.6829,-3662.4545L13733.6982,-3662.4584L13733.7052,-3662.4635L13733.738,-3662.5001L13733.7611,-3662.5306L13733.7659,-3662.5401L13733.7708,-3662.5615L13733.7722,-3662.5632L13733.7778,-3662.5885L13733.7953,-3662.6161L13733.8714,-3662.7158L13733.8833,-3662.7259L13733.9091,-3662.7265L13733.9119,-3662.7265L13734.0467,-3662.7181L13734.0439,-3662.7102L13734.025,-3662.4354L13734.0041,-3662.127L13734.0004,-3662.1234L13733.9573,-3662.0958L13733.9356,-3662.0828L13733.921,-3662.0772L13733.9063,-3662.0744L13733.8784,-3662.0716L13733.8721,-3662.0699L13733.8707,-3662.0693L13733.8588,-3662.0592L13733.8491,-3662.0429L13733.7813,-3661.9145L13733.7359,-3661.8396L13733.7234,-3661.8228L13733.712,-3661.8142L13733.6824,-3661.7964L13733.6698,-3661.7899L13733.6596,-3661.785L13733.6549,-3661.7824L13733.65,-3661.779L13733.6423,-3661.7721L13733.6368,-3661.763L13733.634,-3661.7495L13733.634,-3661.714L13733.6375,-3661.6949L13733.6473,-3661.6678L13733.6703,-3661.6177L13733.6717,-3661.6126L13733.6722,-3661.6034L13733.6724,-3661.5991L13733.657,-3661.5879L13733.6312,-3661.5749L13733.6117,-3661.5682L13733.5865,-3661.562L13733.5691,-3661.5597L13733.5411,-3661.5597L13733.5167,-3661.5642L13733.509,-3661.5659L13733.4901,-3661.5659L13733.4643,-3661.5603L13733.4427,-3661.5535L13733.4203,-3661.5451L13733.4126,-3661.5428L13733.3889,-3661.5361L13733.3784,-3661.5349L13733.347,-3661.5355L13733.2911,-3661.5417L13733.2213,-3661.5512L13733.1752,-3661.5586L13733.1305,-3661.5659L13733.09,-3661.5732L13733.0844,-3661.5749L13733.0733,-3661.5147L13733.0656,-3661.4882L13733.0586,-3661.4696L13733.0495,-3661.4533L13733.0363,-3661.4324L13733.0083,-3661.3913L13732.9853,-3661.3542L13732.9671,-3661.3209L13732.9546,-3661.2934L13732.9448,-3661.2641L13732.898,-3661.2804L13732.8833,-3661.2877L13732.8749,-3661.2939L13732.8694,-3661.3013L13732.8666,-3661.3102L13732.8652,-3661.3412L13732.8589,-3661.3547L13732.8549,-3661.3586"/>
<path content="3,富山市,国際大学線,2.0,2.0,0.0," xlink:title="3" d="M13728.5156,-3660.8083L13728.5253,-3660.809L13728.5783,-3660.8152L13728.6544,-3660.8309L13728.6866,-3660.8433L13728.7501,-3660.8732L13728.7948,-3660.8951L13728.8206,-3660.9058L13728.8318,-3660.9092L13728.8667,-3660.9143L13728.9086,-3660.9188L13729.0123,-3660.9297L13729.0804,-3660.9368L13729.1439,-3660.9447L13729.2166,-3660.9559L13729.2326,-3660.9588L13729.2718,-3660.9706L13729.2927,-3660.9774L13729.3206,-3660.9875L13729.3254,-3660.989L13729.3702,-3661.0033L13729.4289,-3661.0235L13729.4366,-3661.0265L13729.4449,-3661.0297L13729.4638,-3661.0399L13729.4756,-3661.05L13729.5029,-3661.0917L13729.5148,-3661.0742L13729.5594,-3661.0252L13729.5853,-3661L13729.5887,-3660.9959L13729.6118,-3660.9785L13729.6272,-3660.9695L13729.6383,-3660.9644L13729.6523,-3660.9582L13729.6726,-3660.9531L13729.6893,-3660.9492L13729.711,-3660.9464L13729.7836,-3660.9351L13729.8367,-3660.9284L13729.8478,-3660.9267L13729.8506,-3660.9267L13729.8642,-3660.9238"/>
<path content="3,富山市,小坂線,8.0,6.0,0.0," xlink:title="3" d="M13729.8642,-3660.9238L13729.8506,-3660.9267L13729.8478,-3660.9267L13729.8367,-3660.9284L13729.7836,-3660.9351L13729.711,-3660.9464L13729.6893,-3660.9492L13729.6726,-3660.9531L13729.6523,-3660.9582L13729.6383,-3660.9644L13729.6272,-3660.9695L13729.6118,-3660.9785L13729.5887,-3660.9959L13729.5853,-3661L13729.5594,-3661.0252L13729.5148,-3661.0742L13729.5029,-3661.0917L13729.4756,-3661.05L13729.4638,-3661.0399L13729.4449,-3661.0297L13729.4366,-3661.0265L13729.4289,-3661.0235L13729.3702,-3661.0033L13729.3254,-3660.989L13729.3206,-3660.9875L13729.2927,-3660.9774L13729.2718,-3660.9706L13729.2326,-3660.9588L13729.2166,-3660.9559L13729.1439,-3660.9447L13729.0804,-3660.9368L13729.0123,-3660.9297L13728.9086,-3660.9188L13728.8667,-3660.9143L13728.8318,-3660.9092L13728.8206,-3660.9058L13728.7948,-3660.8951L13728.7501,-3660.8732L13728.6866,-3660.8433L13728.6544,-3660.8309L13728.5783,-3660.8152L13728.5253,-3660.809L13728.5156,-3660.8083"/>
<path content="3,富山市,才覚地線,4.0,3.0,0.0," xlink:title="3" d="M13728.5156,-3660.8083L13728.5253,-3660.809L13728.5783,-3660.8152L13728.6544,-3660.8309L13728.6866,-3660.8433L13728.7501,-3660.8732L13728.7948,-3660.8951L13728.8206,-3660.9058L13728.8318,-3660.9092L13728.8667,-3660.9143L13728.9086,-3660.9188L13729.0123,-3660.9297L13729.0804,-3660.9368L13729.1439,-3660.9447L13729.2166,-3660.9559L13729.2326,-3660.9588L13729.2718,-3660.9706L13729.2927,-3660.9774L13729.3206,-3660.9875L13729.3254,-3660.989L13729.3702,-3661.0033L13729.4289,-3661.0235L13729.4366,-3661.0265L13729.4449,-3661.0297L13729.4638,-3661.0399L13729.4756,-3661.05L13729.5029,-3661.0917L13729.5148,-3661.0742L13729.5594,-3661.0252L13729.5853,-3661L13729.5887,-3660.9959L13729.6118,-3660.9785L13729.6272,-3660.9695L13729.6383,-3660.9644L13729.6523,-3660.9582L13729.6726,-3660.9531L13729.6893,-3660.9492L13729.711,-3660.9464L13729.7836,-3660.9351L13729.8367,-3660.9284L13729.8478,-3660.9267L13729.8506,-3660.9267L13729.8642,-3660.9238L13729.9121,-3660.9199L13729.9379,-3660.9165L13729.9561,-3660.9154L13730.0203,-3660.9086L13730.0559,-3660.9064L13730.1579,-3660.9042L13730.1823,-3660.9031L13730.213,-3660.9031L13730.3011,-3660.8998L13730.3073,-3660.9002L13730.3534,-3660.8946L13730.4002,-3660.8856L13730.4505,-3660.8698L13730.4533,-3660.8681L13730.5126,-3660.8484L13730.5412,-3660.84L13730.5461,-3660.8366L13730.5559,-3660.8321L13730.6097,-3660.8163L13730.632,-3660.8129L13730.6683,-3660.8129L13730.6914,-3660.818L13730.7521,-3660.8321L13730.7744,-3660.8376L13730.7853,-3660.8404L13730.7873,-3660.8186L13730.7787,-3660.791L13730.7675,-3660.7718L13730.7598,-3660.7628L13730.7336,-3660.7441L13730.7024,-3660.7298L13730.653,-3660.7133L13730.6429,-3660.7114L13730.6146,-3660.706L13730.5901,-3660.7054L13730.5699,-3660.7076L13730.5481,-3660.71L13730.5318,-3660.7117L13730.5119,-3660.7138L13730.4896,-3660.7138L13730.4658,-3660.711L13730.4484,-3660.7065L13730.3869,-3660.6845L13730.4218,-3660.5956L13730.4323,-3660.5601L13730.4344,-3660.5449L13730.4358,-3660.5111L13730.4386,-3660.4644L13730.4386,-3660.4497L13730.4393,-3660.4159L13730.4421,-3660.403L13730.4484,-3660.3872L13730.454,-3660.3788L13730.5671,-3660.2594L13730.5978,-3660.2273L13730.6258,-3660.1986L13730.6439,-3660.1811L13730.7305,-3660.0927L13730.8031,-3660.0206L13730.8388,-3659.9846L13730.8625,-3659.9621L13730.8974,-3659.9283L13730.9016,-3659.9235L13730.9323,-3659.8877L13730.9672,-3659.8449L13730.97,-3659.841L13730.9924,-3659.8213L13731.0294,-3659.792L13731.0524,-3659.7717L13731.0908,-3659.734L13731.1278,-3659.6941L13731.139,-3659.6833L13731.1489,-3659.6722L13731.1795,-3659.6287L13731.2277,-3659.5639L13731.2312,-3659.5606L13731.2675,-3659.5127L13731.2933,-3659.484L13731.2989,-3659.4795L13731.3052,-3659.4761L13731.3492,-3659.4699L13731.359,-3659.4688L13731.4065,-3659.4581L13731.4274,-3659.4508L13731.4595,-3659.4378L13731.4938,-3659.4204L13731.5077,-3659.4119L13731.5217,-3659.3939L13731.5368,-3659.3633L13731.564,-3659.2923L13731.5727,-3659.2807L13731.6034,-3659.252L13731.6313,-3659.2233L13731.7214,-3659.1478L13731.7424,-3659.1259L13731.7682,-3659.0926L13731.815,-3659.0284L13731.8457,-3658.9896L13731.8694,-3658.9631L13731.8904,-3658.9429L13731.9071,-3658.9299L13731.9281,-3658.9186L13731.9861,-3658.8967L13732.0063,-3658.886L13732.0182,-3658.8769L13732.0343,-3658.8607L13732.0866,-3658.7987L13732.2277,-3658.6399L13732.246,-3658.6209L13732.2532,-3658.6134L13732.2727,-3658.5966L13732.2957,-3658.5796L13732.3125,-3658.5622L13732.3243,-3658.5481L13732.3334,-3658.5329L13732.3517,-3658.4846L13732.356,-3658.4743L13732.3634,-3658.4477L13732.3697,-3658.4045L13732.3766,-3658.3837L13732.3836,-3658.3708L13732.3913,-3658.3612L13732.4073,-3658.3471L13732.4332,-3658.3296L13732.4527,-3658.3195L13732.4743,-3658.3116L13732.6375,-3658.2587L13732.6857,-3658.2412L13732.7087,-3658.2305L13732.7345,-3658.2147L13732.7469,-3658.2049L13732.7631,-3658.195L13732.7702,-3658.1899L13732.8022,-3658.1669L13732.8196,-3658.1551L13732.8384,-3658.1466L13732.8586,-3658.141L13732.8803,-3658.1388L13732.9717,-3658.1371L13733.0017,-3658.1342L13733.0344,-3658.1286L13733.0512,-3658.1247L13733.0826,-3658.1156L13733.1049,-3658.1061L13733.1195,-3658.0959L13733.1342,-3658.0796L13733.1495,-3658.0492L13733.1544,-3658.0317L13733.1551,-3658.0047L13733.1546,-3657.9982L13733.1523,-3657.9664L13733.1412,-3657.8482L13733.1412,-3657.8133L13733.1454,-3657.7952L13733.1502,-3657.7834L13733.1732,-3657.7502L13733.1837,-3657.7406L13733.1928,-3657.7338L13733.2102,-3657.7248L13733.2319,-3657.7164L13733.2535,-3657.7108L13733.2863,-3657.7068L13733.3491,-3657.7057L13733.3602,-3657.704L13733.3761,-3657.7007L13733.4007,-3657.6956L13733.4676,-3657.6776L13733.5848,-3657.6499L13733.6469,-3657.6336L13733.6818,-3657.6263L13733.7125,-3657.6218L13733.7551,-3657.6139L13733.7816,-3657.6066L13733.7969,-3657.5993L13733.845,-3657.561L13733.8604,-3657.5531L13733.8764,-3657.5492L13733.9071,-3657.5481L13733.9224,-3657.5458L13733.9427,-3657.5402L13733.9657,-3657.5295L13734.0341,-3657.4872L13734.0871,-3657.4596L13734.1157,-3657.4472L13734.1589,-3657.4467L13734.2008,-3657.4478L13734.2168,-3657.4467L13734.3438,-3657.4134L13734.387,-3657.4022L13734.3968,-3657.3983L13734.4149,-3657.3915L13734.4296,-3657.3842L13734.4505,-3657.3713L13734.4714,-3657.3532L13734.494,-3657.3295L13734.5992,-3657.2116L13734.6033,-3657.2068L13734.6214,-3657.1928L13734.6388,-3657.1849L13734.6737,-3657.1725L13734.7038,-3657.1644L13734.7623,-3657.1444L13734.8104,-3657.1111L13734.83,-3657.0998L13734.8823,-3657.0768L13734.9465,-3657.0508L13734.9967,-3657.0323L13735.0147,-3657.0265L13735.0232,-3657.0238L13735.0574,-3657.0159L13735.1118,-3657.0064L13735.1683,-3656.9979L13735.2039,-3656.9911L13735.2182,-3656.9871L13735.2666,-3656.9771L13735.2764,-3656.9759L13735.2966,-3656.9737L13735.3524,-3656.9737L13735.3846,-3656.9777L13735.4146,-3656.9827L13735.4599,-3656.9957L13735.5317,-3657.0216L13735.5471,-3657.025L13735.5631,-3657.025L13735.614,-3657.0221L13735.8063,-3656.9964L13735.8198,-3656.9946L13735.8386,-3656.9918L13735.8742,-3656.9861L13735.9524,-3656.9703L13736.0675,-3656.9467L13736.1044,-3656.9383L13736.1595,-3656.9259L13736.1972,-3656.9152L13736.2335,-3656.9022L13736.2942,-3656.8791L13736.3618,-3656.8493L13736.3744,-3656.8403L13736.3779,-3656.8352L13736.3807,-3656.8267L13736.3821,-3656.7834L13736.3856,-3656.7722L13736.3911,-3656.7637L13736.4023,-3656.7552L13736.4121,-3656.7502L13736.4285,-3656.7482L13736.4362,-3656.7486L13736.449,-3656.7514L13736.5415,-3656.793L13736.5575,-3656.8002L13736.5662,-3656.8076L13736.5732,-3656.8212L13736.5732,-3656.833L13736.5718,-3656.8386L13736.5591,-3656.8639L13736.5313,-3656.9214L13736.5237,-3656.936L13736.5202,-3656.949L13736.5202,-3656.9698L13736.5258,-3656.9833L13736.5355,-3656.9963L13736.5502,-3657.0087L13736.5725,-3657.0233L13736.6122,-3657.0419L13736.6569,-3657.0599L13736.6799,-3657.0672L13736.7239,-3657.0779L13736.8138,-3657.0965L13736.8508,-3657.1112L13736.8546,-3657.113L13736.8504,-3657.1052L13736.8416,-3657.0936L13736.8215,-3657.0791L13736.7943,-3657.0678L13736.7783,-3657.0633L13736.7232,-3657.0515L13736.6981,-3657.0447L13736.6792,-3657.0374L13736.6736,-3657.0334L13736.6576,-3657.0194L13736.6527,-3657.0115L13736.6492,-3656.998L13736.6506,-3656.9816L13736.6695,-3656.9248L13736.6778,-3656.9062L13736.6859,-3656.8927L13736.7082,-3656.8666"/>
<path content="3,富山市,楜ヶ原線,2.0,2.0,0.0," xlink:title="3" d="M13729.8642,-3660.9238L13729.8506,-3660.9267L13729.8478,-3660.9267L13729.8367,-3660.9284L13729.7836,-3660.9351L13729.711,-3660.9464L13729.6893,-3660.9492L13729.6726,-3660.9531L13729.6523,-3660.9582L13729.6383,-3660.9644L13729.6272,-3660.9695L13729.6118,-3660.9785L13729.5887,-3660.9959L13729.5853,-3661L13729.5594,-3661.0252L13729.5148,-3661.0742L13729.5029,-3661.0917L13729.4756,-3661.05L13729.4638,-3661.0399L13729.4449,-3661.0297L13729.4366,-3661.0265L13729.4289,-3661.0235L13729.3702,-3661.0033L13729.3254,-3660.989L13729.3206,-3660.9875L13729.2927,-3660.9774L13729.2718,-3660.9706L13729.2326,-3660.9588L13729.2166,-3660.9559L13729.1439,-3660.9447L13729.0804,-3660.9368L13729.0123,-3660.9297L13728.9086,-3660.9188L13728.8667,-3660.9143L13728.8318,-3660.9092L13728.8206,-3660.9058L13728.7948,-3660.8951L13728.7501,-3660.8732L13728.6866,-3660.8433L13728.7033,-3660.8354L13728.7313,-3660.8169L13728.7885,-3660.7791L13728.8032,-3660.7701L13728.8465,-3660.7403L13728.8491,-3660.7384L13728.8681,-3660.7245L13728.8974,-3660.7037L13728.9366,-3660.6744L13728.9414,-3660.671L13728.9736,-3660.6474L13728.9813,-3660.6412L13728.9834,-3660.6316L13728.9834,-3660.6237L13728.985,-3660.6173L13728.9912,-3660.5637L13728.9915,-3660.5573L13728.9638,-3660.5573L13728.9421,-3660.5539L13728.8933,-3660.5409L13728.8695,-3660.533L13728.8598,-3660.5297L13728.8304,-3660.5195L13728.8102,-3660.5083L13728.8018,-3660.5015L13728.7851,-3660.4829L13728.7718,-3660.4644L13728.7578,-3660.4452L13728.7431,-3660.4323L13728.7292,-3660.4289L13728.6898,-3660.4257L13728.5979,-3660.4227L13728.5302,-3660.4154L13728.5156,-3660.4125M13728.5156,-3658.3188L13728.5283,-3658.2918L13728.5423,-3658.2609L13728.5443,-3658.2524L13728.5687,-3658.1972L13728.5729,-3658.1905L13728.5806,-3658.1747L13728.5855,-3658.1668L13728.6566,-3658.1077L13728.6789,-3658.0863L13728.6873,-3658.0751L13728.6922,-3658.0638L13728.7013,-3657.9951L13728.7096,-3657.9658L13728.7152,-3657.9579L13728.7299,-3657.9511L13728.7571,-3657.941L13728.7766,-3657.9354L13728.8394,-3657.9134L13728.868,-3657.901L13728.8813,-3657.8909L13728.8889,-3657.8785L13728.8931,-3657.8633L13728.8973,-3657.8368L13728.9029,-3657.8216L13728.9119,-3657.807L13728.9514,-3657.759L13728.9686,-3657.7418"/>
<path content="3,富山市,西小俣循環線,4.0,3.0,0.0," xlink:title="3" d="M13730.1726,-3659.8736L13730.2005,-3659.8793L13730.2096,-3659.8803L13730.2962,-3659.8979L13730.3594,-3659.9079L13730.4069,-3659.9127L13730.4282,-3659.9131L13730.4344,-3659.9102L13730.4407,-3659.9052L13730.4449,-3659.8979L13730.4477,-3659.8804L13730.4533,-3659.8607L13730.4589,-3659.8455L13730.468,-3659.832L13730.4749,-3659.8247L13730.4924,-3659.8128L13730.514,-3659.8044L13730.5685,-3659.8001L13730.5888,-3659.7993L13730.6076,-3659.7976L13730.6181,-3659.7982L13730.6446,-3659.7914L13730.6607,-3659.7847L13730.6754,-3659.7757L13730.7019,-3659.756L13730.7096,-3659.7509L13730.734,-3659.7318L13730.7578,-3659.7047L13730.7787,-3659.6822L13730.8094,-3659.6563L13730.8583,-3659.6186L13730.8771,-3659.6022L13730.9086,-3659.5696L13730.9421,-3659.5319L13730.9735,-3659.4997L13731.0287,-3659.4648L13731.035,-3659.4586L13731.0538,-3659.4311L13731.0629,-3659.4232L13731.0727,-3659.417L13731.0938,-3659.4071L13731.0964,-3659.4012L13731.0867,-3659.3736L13731.0853,-3659.3629L13731.0874,-3659.355L13731.1004,-3659.3431L13731.1152,-3659.3354L13731.1132,-3659.3134L13731.1216,-3659.2711L13731.1195,-3659.2537L13731.1188,-3659.2351L13731.1216,-3659.2261L13731.1292,-3659.2143L13731.1481,-3659.194L13731.1614,-3659.1771L13731.1642,-3659.1681L13731.1649,-3659.0301L13731.1691,-3659.011L13731.1788,-3658.9912L13731.1858,-3658.9834L13731.2815,-3658.891L13731.2954,-3658.8747L13731.2996,-3658.8679L13731.3035,-3658.8586L13731.3031,-3658.8454L13731.3017,-3658.8375L13731.2808,-3658.7761L13731.2773,-3658.7615L13731.2773,-3658.7435L13731.2794,-3658.739L13731.2864,-3658.7305L13731.3011,-3658.7193L13731.2599,-3658.6844L13731.2123,-3658.6399L13731.2062,-3658.6347L13731.1959,-3658.6307L13731.1557,-3658.6181L13731.1486,-3658.616L13731.1392,-3658.6112L13731.1336,-3658.6061L13731.1259,-3658.5954L13731.1203,-3658.5836L13731.1196,-3658.5729L13731.1204,-3658.5714L13731.1238,-3658.5644L13731.1336,-3658.5515L13731.1615,-3658.5205L13731.1692,-3658.5075L13731.1748,-3658.4934L13731.1782,-3658.4754L13731.1776,-3658.4529L13731.1413,-3658.4614L13731.128,-3658.4681L13731.1203,-3658.4777L13731.0848,-3658.5295L13731.0771,-3658.5453L13731.0729,-3658.5599L13731.0733,-3658.5776L13731.0778,-3658.5886L13731.0819,-3658.5961L13731.0876,-3658.6061L13731.0882,-3658.6213L13731.0834,-3658.6314L13731.0771,-3658.6399L13731.0664,-3658.6607L13731.0378,-3658.7046L13731.0217,-3658.7322L13731.0148,-3658.7531L13731.0127,-3658.766L13731.0127,-3658.7885L13731.0203,-3658.8144L13731.021,-3658.8251L13731.0189,-3658.833L13731.0057,-3658.8623L13730.9791,-3658.9175L13730.9631,-3658.9439L13730.9568,-3658.9569L13730.9575,-3658.9676L13730.9652,-3658.9862L13730.968,-3658.9907L13730.9882,-3659.0325L13730.9952,-3659.0673L13730.9959,-3659.1005L13730.9903,-3659.1191L13730.9854,-3659.1287L13730.9686,-3659.1501L13730.9205,-3659.1962L13730.8981,-3659.2216L13730.8527,-3659.2835L13730.8416,-3659.3032L13730.8213,-3659.35L13730.7787,-3659.4429L13730.7626,-3659.4699L13730.7487,-3659.4862L13730.697,-3659.5358L13730.6341,-3659.5994L13730.5797,-3659.645L13730.5134,-3659.6963L13730.4519,-3659.7391L13730.44,-3659.7447L13730.4247,-3659.7486L13730.3849,-3659.7498L13730.3737,-3659.7543L13730.3716,-3659.7543L13730.3618,-3659.7622L13730.3499,-3659.7763L13730.3367,-3659.7965L13730.3311,-3659.8027L13730.2892,-3659.8258L13730.2452,-3659.8455L13730.2135,-3659.8588L13730.1726,-3659.8736"/>
<path content="3,富山市,西小俣循環線,4.0,3.0,0.0," xlink:title="3" d="M13728.6866,-3660.8433L13728.7033,-3660.8354L13728.7313,-3660.8169L13728.7885,-3660.7791L13728.8032,-3660.7701L13728.8465,-3660.7403L13728.8491,-3660.7384L13728.8681,-3660.7245L13728.8974,-3660.7037L13728.9366,-3660.6744L13728.9414,-3660.671L13728.9736,-3660.6474L13728.9813,-3660.6412L13728.9834,-3660.6316L13728.9834,-3660.6237L13728.985,-3660.6173L13728.9912,-3660.5637L13728.9915,-3660.5573L13729.0155,-3660.5573L13729.0314,-3660.5557L13729.0546,-3660.5539L13729.1161,-3660.5454L13729.137,-3660.5415L13729.167,-3660.5342L13729.1866,-3660.5274L13729.2152,-3660.5099L13729.2382,-3660.4919L13729.299,-3660.4328L13729.3542,-3660.3911L13729.3596,-3660.387L13729.3954,-3660.3658L13729.4212,-3660.3523L13729.4359,-3660.3461L13729.4505,-3660.3421L13729.4575,-3660.3416L13729.4603,-3660.3405L13729.4833,-3660.3371L13729.5134,-3660.3359L13729.5511,-3660.3331L13729.572,-3660.3281L13729.5874,-3660.3213L13729.6006,-3660.3129L13729.6225,-3660.2921L13729.6237,-3660.2909L13729.6516,-3660.2577L13729.7278,-3660.1636L13729.7466,-3660.1467L13729.7493,-3660.1451L13729.7704,-3660.1321L13729.7983,-3660.1175L13729.8102,-3660.1124L13729.8151,-3660.109L13729.9358,-3660.051L13729.998,-3660.0212L13730.0385,-3660.0004L13730.0546,-3659.9885L13730.0636,-3659.9744L13730.0664,-3659.9654L13730.0699,-3659.948L13730.072,-3659.9204L13730.072,-3659.9198L13730.0748,-3659.9074L13730.0797,-3659.8951L13730.0867,-3659.8849L13730.0986,-3659.8748L13730.1181,-3659.8686L13730.1398,-3659.8686L13730.1586,-3659.8708L13730.1726,-3659.8736"/>
<path content="3,富山市,西小俣循環線,4.0,3.0,0.0," xlink:title="3" d="M13728.6866,-3660.8433L13728.6544,-3660.8309L13728.5783,-3660.8152L13728.5253,-3660.809L13728.5156,-3660.8083"/>
<path content="3,富山市,西小俣循環線,4.0,3.0,0.0," xlink:title="3" d="M13729.8642,-3660.9238L13729.8506,-3660.9267L13729.8478,-3660.9267L13729.8367,-3660.9284L13729.7836,-3660.9351L13729.711,-3660.9464L13729.6893,-3660.9492L13729.6726,-3660.9531L13729.6523,-3660.9582L13729.6383,-3660.9644L13729.6272,-3660.9695L13729.6118,-3660.9785L13729.5887,-3660.9959L13729.5853,-3661L13729.5594,-3661.0252L13729.5148,-3661.0742L13729.5029,-3661.0917L13729.4756,-3661.05L13729.4638,-3661.0399L13729.4449,-3661.0297L13729.4366,-3661.0265L13729.4289,-3661.0235L13729.3702,-3661.0033L13729.3254,-3660.989L13729.3206,-3660.9875L13729.2927,-3660.9774L13729.2718,-3660.9706L13729.2326,-3660.9588L13729.2166,-3660.9559L13729.1439,-3660.9447L13729.0804,-3660.9368L13729.0123,-3660.9297L13728.9086,-3660.9188L13728.8667,-3660.9143L13728.8318,-3660.9092L13728.8206,-3660.9058L13728.7948,-3660.8951L13728.7501,-3660.8732L13728.6866,-3660.8433"/>
</g>
</svg>
