<?xml version="1.0" encoding="UTF-8"?>
<svg  xmlns="http://www.w3.org/2000/svg" xmlns:xlink="http://www.w3.org/1999/xlink" xmlns:go="http://purl.org/svgmap/profile" property="N07_001,N07_002,N07_003,N07_004,N07_005,N07_006,N07_007" viewBox="13902.099609375 -3791.3818359375 1.0986328125 1.0986328125" go:dataArea="13902.099609375 -3791.3818359375 1.0986328125 1.0986328125" >
<metadata>
 <rdf:RDF xmlns:rdf="http://www.w3.org/1999/02/22-rdf-syntax-ns#" xmlns:crs="http://opengis.org/xmldtds/transformations.dtd" xmlns:svg="http://www.w3.org/svg" >
  <rdf:Description>
   <crs:CoordinateReferenceSystem rdf:resource="http://purl.org/crs/84" svg:transform="matrix(100.0,0.0,0.0,-100.0,0.0,0.0)" />
  </rdf:Description>
 </rdf:RDF>
</metadata>
<globalCoordinateSystem srsName="http://purl.org/crs/84" transform="matrix(100.0,0.0,0.0,-100.0,0.0,0.0)" />
<defs>
 <g id="p0" >
  <circle cx="0.0" cy="0.0" r="3" stroke="green" stroke-width="0.75" vector-effect="non-scaling-stroke" />
 </g>
</defs>
<g fill="none" fill-rule="evenodd" stroke="#FF00FF" stroke-width="0.75" opacity="0.5" vector-effect="non-scaling-stroke" stroke-linejoin="bevel" >
<path content="1,会津乗合自動車,新潟線,4.0,4.0,4.0," xlink:title="1" d="M13902.6362,-3790.2832L13902.6329,-3790.2861L13902.6296,-3790.2894L13902.6263,-3790.2928L13902.6384,-3790.3006L13902.7159,-3790.3514L13902.743,-3790.3683L13902.7536,-3790.3751L13902.797,-3790.4007L13902.8028,-3790.4042L13902.8281,-3790.4184L13902.858,-3790.4348L13902.8954,-3790.4522L13902.9226,-3790.4635L13903.012,-3790.4961L13903.1058,-3790.526L13903.1982,-3790.5539"/>
<path content="1,北陸鉄道（株）,高速バス　金沢⇔新潟,2.0,2.0,2.0," xlink:title="1" d="M13902.6048,-3790.2832L13902.6232,-3790.2968L13902.6263,-3790.2928L13902.6384,-3790.3006L13902.7159,-3790.3514L13902.743,-3790.3683L13902.797,-3790.4007L13902.8028,-3790.4042L13902.8281,-3790.4184L13902.858,-3790.4348L13902.8949,-3790.4522L13902.8954,-3790.4522L13902.9226,-3790.4635L13903.012,-3790.4961L13903.1058,-3790.526L13903.1982,-3790.5539"/>
<path content="1,名鉄バス（株）,名古屋～新潟,2.0,2.0,2.0," xlink:title="1" d="M13902.6048,-3790.2832L13902.6232,-3790.2968L13902.6263,-3790.2928L13902.6384,-3790.3006L13902.7159,-3790.3514L13902.743,-3790.3683L13902.797,-3790.4007L13902.8028,-3790.4042L13902.8281,-3790.4184L13902.858,-3790.4348L13902.8949,-3790.4522L13902.8954,-3790.4522L13902.9226,-3790.4635L13903.012,-3790.4961L13903.1058,-3790.526L13903.1982,-3790.5539"/>
<path content="1,富山地方鉄道（株）,新潟（高速バス）,2.0,2.0,2.0," xlink:title="1" d="M13902.6048,-3790.2832L13902.6232,-3790.2968L13902.6263,-3790.2928L13902.6384,-3790.3006L13902.7159,-3790.3514L13902.743,-3790.3683L13902.797,-3790.4007L13902.8028,-3790.4042L13902.8281,-3790.4184L13902.858,-3790.4348L13902.8949,-3790.4522L13902.8954,-3790.4522L13902.9226,-3790.4635L13903.012,-3790.4961L13903.1058,-3790.526L13903.1982,-3790.5539"/>
<path content="1,新潟交通（株）,がんセンター～入船（営）～みなとトンネル～臨港病院前線（入船営業所経由臨港病院前行）,8.0,2.0,2.0," xlink:title="1" d="M13903.0014,-3791.062L13903.0177,-3791.0232L13903.0355,-3791.0277L13903.1086,-3791.0463L13903.1142,-3791.0478L13903.1796,-3791.066L13903.1931,-3791.0694L13903.1982,-3791.0707"/>
<path content="1,新潟交通（株）,中央循環：新潟南口～笹出線～県庁～川岸町～新潟駅前線（県庁経由新潟駅前行）,45.0,42.0,42.0," xlink:title="1" d="M13902.6048,-3790.2832L13902.6232,-3790.2968"/>
<path content="1,新潟交通（株）,中央循環：新潟南口～笹出線～県庁～川岸町～新潟駅前線（県庁経由新潟駅前行）,45.0,42.0,42.0," xlink:title="1" d="M13902.6232,-3790.2968L13902.6263,-3790.2928L13902.6296,-3790.2894L13902.6329,-3790.2861L13902.6362,-3790.2832"/>
<path content="1,新潟交通（株）,中央循環：新潟南口～笹出線～県庁～川岸町～新潟駅前線（県庁経由新潟駅前行）,45.0,42.0,42.0," xlink:title="1" d="M13903.1982,-3791.0707L13903.1931,-3791.0694L13903.1796,-3791.066L13903.1142,-3791.0478L13903.1086,-3791.0463L13903.0355,-3791.0277L13903.0177,-3791.0232L13902.8615,-3790.981L13902.7147,-3790.9434L13902.6925,-3790.9365L13902.6281,-3790.9197L13902.5974,-3790.9117L13902.564,-3790.9021L13902.5058,-3790.8824L13902.471,-3790.8706L13902.3822,-3790.8469L13902.3091,-3790.8267L13902.2633,-3790.814L13902.2228,-3790.8102L13902.2149,-3790.8098L13902.1993,-3790.8075L13902.1746,-3790.8003L13902.0996,-3790.754M13902.0996,-3790.7343L13902.1064,-3790.7286L13902.1181,-3790.7188L13902.1394,-3790.7009L13902.1608,-3790.683L13902.1753,-3790.6707L13902.3269,-3790.5435L13902.4155,-3790.4709L13902.4701,-3790.4262L13902.5092,-3790.3938L13902.5289,-3790.3781L13902.5758,-3790.3383L13902.6191,-3790.3009L13902.6212,-3790.2989L13902.6232,-3790.2968"/>
<path content="1,新潟交通（株）,中央循環：新潟駅前～川岸町～県庁～笹出線～新潟駅南口線（県庁経由新潟駅南口行）,45.0,43.0,43.0," xlink:title="1" d="M13902.6048,-3790.2832L13902.6232,-3790.2968"/>
<path content="1,新潟交通（株）,中央循環：新潟駅前～川岸町～県庁～笹出線～新潟駅南口線（県庁経由新潟駅南口行）,45.0,43.0,43.0," xlink:title="1" d="M13902.6232,-3790.2968L13902.6263,-3790.2928L13902.6296,-3790.2894L13902.6329,-3790.2861L13902.6362,-3790.2832"/>
<path content="1,新潟交通（株）,中央循環：新潟駅前～川岸町～県庁～笹出線～新潟駅南口線（県庁経由新潟駅南口行）,45.0,43.0,43.0," xlink:title="1" d="M13903.1982,-3791.0707L13903.1931,-3791.0694L13903.1796,-3791.066L13903.1142,-3791.0478L13903.1086,-3791.0463L13903.0355,-3791.0277L13903.0177,-3791.0232L13902.8615,-3790.981L13902.7147,-3790.9434L13902.6925,-3790.9365L13902.6281,-3790.9197L13902.5974,-3790.9117L13902.564,-3790.9021L13902.5058,-3790.8824L13902.471,-3790.8706L13902.3822,-3790.8469L13902.3091,-3790.8267L13902.2633,-3790.814L13902.2228,-3790.8102L13902.2149,-3790.8098L13902.1993,-3790.8075L13902.1746,-3790.8003L13902.0996,-3790.754M13902.0996,-3790.7343L13902.1064,-3790.7286L13902.1181,-3790.7188L13902.1394,-3790.7009L13902.1608,-3790.683L13902.1753,-3790.6707L13902.3269,-3790.5435L13902.4155,-3790.4709L13902.4701,-3790.4262L13902.5092,-3790.3938L13902.5289,-3790.3781L13902.5758,-3790.3383L13902.6191,-3790.3009L13902.6212,-3790.2989L13902.6232,-3790.2968"/>
<path content="1,新潟交通（株）,快速：新潟駅前～大野～白根～潟東営業所線（＜快速＞新潟駅前行）,6.0,3.0,3.0," xlink:title="1" d="M13903.1663,-3791.3818L13903.1001,-3791.3566L13903.0411,-3791.3329L13903.034,-3791.3301L13902.9701,-3791.2913L13902.9105,-3791.2547L13902.8714,-3791.2316L13902.8518,-3791.2166L13902.8139,-3791.1916L13902.8075,-3791.1876L13902.799,-3791.1814L13902.7514,-3791.1471L13902.733,-3791.1341L13902.7031,-3791.1144L13902.6953,-3791.1099L13902.6879,-3791.1046L13902.6392,-3791.0846L13902.5853,-3791.0609L13902.5583,-3791.0491L13902.5477,-3791.0441L13902.4333,-3790.968L13902.4085,-3790.9517L13902.3621,-3790.9189L13902.3524,-3790.9134L13902.2787,-3790.8637L13902.2131,-3790.8249L13902.1891,-3790.8092L13902.1746,-3790.8003L13902.0996,-3790.754"/>
<path content="1,新潟交通（株）,快速：新潟駅前～大野～白根～潟東営業所線（＜快速＞潟東営業所行）,3.0,0.0,0.0," xlink:title="1" d="M13903.1663,-3791.3818L13903.1001,-3791.3566L13903.0411,-3791.3329L13903.034,-3791.3301L13902.9701,-3791.2913L13902.9105,-3791.2547L13902.8714,-3791.2316L13902.8518,-3791.2166L13902.8139,-3791.1916L13902.8075,-3791.1876L13902.799,-3791.1814L13902.7514,-3791.1471L13902.733,-3791.1341L13902.7031,-3791.1144L13902.6879,-3791.1046L13902.5853,-3791.0609L13902.5583,-3791.0491L13902.5477,-3791.0441L13902.4333,-3790.968L13902.4085,-3790.9517L13902.3621,-3790.9189L13902.3524,-3790.9134L13902.2787,-3790.8637L13902.2131,-3790.8249L13902.1891,-3790.8092L13902.1746,-3790.8003L13902.0996,-3790.754"/>
<path content="1,新潟交通（株）,急行：新潟駅前～大野～白根～潟東営業所線（＜急行＞新潟駅前行）,9.0,6.0,6.0," xlink:title="1" d="M13903.1982,-3790.5539L13903.1058,-3790.526L13903.012,-3790.4961L13902.9226,-3790.4635L13902.8954,-3790.4522L13902.858,-3790.4348L13902.8281,-3790.4184L13902.8028,-3790.4042L13902.797,-3790.4007L13902.7536,-3790.3751L13902.743,-3790.3683L13902.7159,-3790.3514L13902.6384,-3790.3006L13902.6263,-3790.2928L13902.6296,-3790.2894L13902.6329,-3790.2861L13902.6362,-3790.2832"/>
<path content="1,新潟交通（株）,急行：新潟駅前～大野～白根～潟東営業所線（＜急行＞潟東営業所行）,9.0,6.0,6.0," xlink:title="1" d="M13903.1982,-3790.5539L13903.1058,-3790.526L13903.012,-3790.4961L13902.9226,-3790.4635L13902.8954,-3790.4522L13902.858,-3790.4348L13902.8281,-3790.4184L13902.8028,-3790.4042L13902.797,-3790.4007L13902.7536,-3790.3751L13902.743,-3790.3683L13902.7159,-3790.3514L13902.6384,-3790.3006L13902.6263,-3790.2928L13902.6296,-3790.2894L13902.6329,-3790.2861L13902.6362,-3790.2832"/>
<path content="1,新潟交通（株）,新潟駅前～ときめき～大野仲町線（ときめき経由大野行）,9.0,6.0,6.0," xlink:title="1" d="M13903.1663,-3791.3818L13903.1001,-3791.3566L13903.0411,-3791.3329L13903.034,-3791.3301L13902.9701,-3791.2913L13902.9105,-3791.2547L13902.8714,-3791.2316L13902.8518,-3791.2166L13902.8139,-3791.1916L13902.8075,-3791.1876L13902.799,-3791.1814L13902.7514,-3791.1471L13902.733,-3791.1341L13902.7031,-3791.1144L13902.6879,-3791.1046L13902.6392,-3791.0846L13902.5853,-3791.0609L13902.5583,-3791.0491L13902.5477,-3791.0441L13902.4333,-3790.968L13902.4085,-3790.9517L13902.3621,-3790.9189L13902.3524,-3790.9134L13902.2787,-3790.8637L13902.2131,-3790.8249L13902.1891,-3790.8092L13902.1746,-3790.8003L13902.0996,-3790.754"/>
<path content="1,新潟交通（株）,新潟駅前～ときめき～大野仲町線（ときめき経由新潟駅前行）,8.0,6.0,6.0," xlink:title="1" d="M13903.1663,-3791.3818L13903.1001,-3791.3566L13903.0411,-3791.3329L13903.034,-3791.3301L13902.9701,-3791.2913L13902.9105,-3791.2547L13902.8714,-3791.2316L13902.8518,-3791.2166L13902.8139,-3791.1916L13902.8075,-3791.1876L13902.799,-3791.1814L13902.7514,-3791.1471L13902.733,-3791.1341L13902.7031,-3791.1144L13902.6879,-3791.1046L13902.6392,-3791.0846L13902.5853,-3791.0609L13902.5583,-3791.0491L13902.5477,-3791.0441L13902.4333,-3790.968L13902.4085,-3790.9517L13902.3621,-3790.9189L13902.3524,-3790.9134L13902.2787,-3790.8637L13902.2131,-3790.8249L13902.1891,-3790.8092L13902.1746,-3790.8003L13902.0996,-3790.754"/>
<path content="1,新潟交通（株）,新潟駅前～大堀～信楽園病院線（大堀経由信楽園病院行）,13.0,12.0,12.0," xlink:title="1" d="M13903.1663,-3791.3818L13903.1001,-3791.3566L13903.0411,-3791.3329L13903.034,-3791.3301L13902.9701,-3791.2913L13902.9105,-3791.2547L13902.8714,-3791.2316L13902.8518,-3791.2166L13902.8139,-3791.1916L13902.8075,-3791.1876L13902.799,-3791.1814L13902.7514,-3791.1471L13902.733,-3791.1341L13902.7031,-3791.1144L13902.6879,-3791.1046L13902.6392,-3791.0846L13902.5853,-3791.0609L13902.5583,-3791.0491L13902.5477,-3791.0441L13902.4333,-3790.968L13902.4085,-3790.9517L13902.3621,-3790.9189L13902.3524,-3790.9134L13902.2787,-3790.8637L13902.2131,-3790.8249L13902.1891,-3790.8092L13902.1746,-3790.8003L13902.0996,-3790.754"/>
<path content="1,新潟交通（株）,新潟駅前～大堀～信楽園病院線（大堀経由新潟駅前行）,13.0,7.0,7.0," xlink:title="1" d="M13903.1663,-3791.3818L13903.1001,-3791.3566L13903.0411,-3791.3329L13903.034,-3791.3301L13902.9701,-3791.2913L13902.9105,-3791.2547L13902.8714,-3791.2316L13902.8518,-3791.2166L13902.8139,-3791.1916L13902.8075,-3791.1876L13902.799,-3791.1814L13902.7514,-3791.1471L13902.733,-3791.1341L13902.7031,-3791.1144L13902.6879,-3791.1046L13902.6392,-3791.0846L13902.5853,-3791.0609L13902.5583,-3791.0491L13902.5477,-3791.0441L13902.4333,-3790.968L13902.4085,-3790.9517L13902.3621,-3790.9189L13902.3524,-3790.9134L13902.2787,-3790.8637L13902.2131,-3790.8249L13902.1891,-3790.8092L13902.1746,-3790.8003L13902.0996,-3790.754"/>
<path content="1,新潟交通（株）,新潟駅前～大堀～内野営業所線（大堀経由内野営業所行）,30.0,23.0,23.0," xlink:title="1" d="M13903.1663,-3791.3818L13903.1001,-3791.3566L13903.0411,-3791.3329L13903.034,-3791.3301L13902.9701,-3791.2913L13902.9105,-3791.2547L13902.8714,-3791.2316L13902.8518,-3791.2166L13902.8139,-3791.1916L13902.8075,-3791.1876L13902.799,-3791.1814L13902.7514,-3791.1471L13902.733,-3791.1341L13902.7031,-3791.1144L13902.6879,-3791.1046L13902.6392,-3791.0846L13902.5853,-3791.0609L13902.5583,-3791.0491L13902.5477,-3791.0441L13902.4333,-3790.968L13902.4085,-3790.9517L13902.3621,-3790.9189L13902.3524,-3790.9134L13902.2787,-3790.8637L13902.2131,-3790.8249L13902.1891,-3790.8092L13902.1746,-3790.8003L13902.0996,-3790.754"/>
<path content="1,新潟交通（株）,新潟駅前～大堀～内野営業所線（大堀経由新潟駅前行）,27.0,28.0,28.0," xlink:title="1" d="M13903.1663,-3791.3818L13903.1001,-3791.3566L13903.0411,-3791.3329L13903.034,-3791.3301L13902.9701,-3791.2913L13902.9105,-3791.2547L13902.8714,-3791.2316L13902.8518,-3791.2166L13902.8139,-3791.1916L13902.8075,-3791.1876L13902.799,-3791.1814L13902.7514,-3791.1471L13902.733,-3791.1341L13902.7031,-3791.1144L13902.6879,-3791.1046L13902.6392,-3791.0846L13902.5853,-3791.0609L13902.5583,-3791.0491L13902.5477,-3791.0441L13902.4333,-3790.968L13902.4085,-3790.9517L13902.3621,-3790.9189L13902.3524,-3790.9134L13902.2787,-3790.8637L13902.2131,-3790.8249L13902.1891,-3790.8092L13902.1746,-3790.8003L13902.0996,-3790.754"/>
<path content="1,新潟交通（株）,新潟駅前～大堀～文理高校前～内野営業所線（大堀・槙尾経由内野営業所行）,6.0,6.0,6.0," xlink:title="1" d="M13903.1663,-3791.3818L13903.1001,-3791.3566L13903.0411,-3791.3329L13903.034,-3791.3301L13902.9701,-3791.2913L13902.9105,-3791.2547L13902.8714,-3791.2316L13902.8518,-3791.2166L13902.8139,-3791.1916L13902.8075,-3791.1876L13902.799,-3791.1814L13902.7514,-3791.1471L13902.733,-3791.1341L13902.7031,-3791.1144L13902.6879,-3791.1046L13902.6392,-3791.0846L13902.5853,-3791.0609L13902.5583,-3791.0491L13902.5477,-3791.0441L13902.4333,-3790.968L13902.4085,-3790.9517L13902.3621,-3790.9189L13902.3524,-3790.9134L13902.2787,-3790.8637L13902.2131,-3790.8249L13902.1891,-3790.8092L13902.1746,-3790.8003L13902.0996,-3790.754"/>
<path content="1,新潟交通（株）,新潟駅前～大堀～文理高校前～内野営業所線（槙尾・大堀経由新潟駅前行）,10.0,6.0,6.0," xlink:title="1" d="M13903.1663,-3791.3818L13903.1001,-3791.3566L13903.0411,-3791.3329L13903.034,-3791.3301L13902.9701,-3791.2913L13902.9105,-3791.2547L13902.8714,-3791.2316L13902.8518,-3791.2166L13902.8139,-3791.1916L13902.8075,-3791.1876L13902.799,-3791.1814L13902.7514,-3791.1471L13902.733,-3791.1341L13902.7031,-3791.1144L13902.6879,-3791.1046L13902.6392,-3791.0846L13902.5853,-3791.0609L13902.5583,-3791.0491L13902.5477,-3791.0441L13902.4333,-3790.968L13902.4085,-3790.9517L13902.3621,-3790.9189L13902.3524,-3790.9134L13902.2787,-3790.8637L13902.2131,-3790.8249L13902.1891,-3790.8092L13902.1746,-3790.8003L13902.0996,-3790.754"/>
<path content="1,新潟交通（株）,新潟駅前～大堀～流通センター線（大堀経由新潟駅前行）,19.0,15.0,15.0," xlink:title="1" d="M13903.1663,-3791.3818L13903.1001,-3791.3566L13903.0411,-3791.3329L13903.034,-3791.3301L13902.9701,-3791.2913L13902.9105,-3791.2547L13902.8714,-3791.2316L13902.8518,-3791.2166L13902.8139,-3791.1916L13902.8075,-3791.1876L13902.799,-3791.1814L13902.7514,-3791.1471L13902.733,-3791.1341L13902.7031,-3791.1144L13902.6879,-3791.1046L13902.6392,-3791.0846L13902.5853,-3791.0609L13902.5583,-3791.0491L13902.5477,-3791.0441L13902.4333,-3790.968L13902.4085,-3790.9517L13902.3621,-3790.9189L13902.3524,-3790.9134L13902.2787,-3790.8637L13902.2131,-3790.8249L13902.1891,-3790.8092L13902.1746,-3790.8003L13902.0996,-3790.754"/>
<path content="1,新潟交通（株）,新潟駅前～大堀～流通センター線（大堀経由流通センター行）140,14.0,14.0,14.0," xlink:title="1" d="M13903.1663,-3791.3818L13903.1001,-3791.3566L13903.0411,-3791.3329L13903.034,-3791.3301L13902.9701,-3791.2913L13902.9105,-3791.2547L13902.8714,-3791.2316L13902.8518,-3791.2166L13902.8139,-3791.1916L13902.8075,-3791.1876L13902.799,-3791.1814L13902.7514,-3791.1471L13902.733,-3791.1341L13902.7031,-3791.1144L13902.6879,-3791.1046L13902.6392,-3791.0846L13902.5853,-3791.0609L13902.5583,-3791.0491L13902.5477,-3791.0441L13902.4333,-3790.968L13902.4085,-3790.9517L13902.3621,-3790.9189L13902.3524,-3790.9134L13902.2787,-3790.8637L13902.2131,-3790.8249L13902.1891,-3790.8092L13902.1746,-3790.8003L13902.0996,-3790.754"/>
<path content="1,新潟交通（株）,新潟駅前～大堀～西警察署前線（大堀経由新潟駅前行）,2.0,0.0,0.0," xlink:title="1" d="M13903.1663,-3791.3818L13903.1001,-3791.3566L13903.0411,-3791.3329L13903.034,-3791.3301L13902.9701,-3791.2913L13902.9105,-3791.2547L13902.8714,-3791.2316L13902.8518,-3791.2166L13902.8139,-3791.1916L13902.8075,-3791.1876L13902.799,-3791.1814L13902.7514,-3791.1471L13902.733,-3791.1341L13902.7031,-3791.1144L13902.6879,-3791.1046L13902.6392,-3791.0846L13902.5853,-3791.0609L13902.5583,-3791.0491L13902.5477,-3791.0441L13902.4333,-3790.968L13902.4085,-3790.9517L13902.3621,-3790.9189L13902.3524,-3790.9134L13902.2787,-3790.8637L13902.2131,-3790.8249L13902.1891,-3790.8092L13902.1746,-3790.8003L13902.0996,-3790.754"/>
<path content="1,新潟交通（株）,新潟駅前～大堀～西警察署前線（大堀経由西警察署前行）,2.0,0.0,0.0," xlink:title="1" d="M13903.1663,-3791.3818L13903.1001,-3791.3566L13903.0411,-3791.3329L13903.034,-3791.3301L13902.9701,-3791.2913L13902.9105,-3791.2547L13902.8714,-3791.2316L13902.8518,-3791.2166L13902.8139,-3791.1916L13902.8075,-3791.1876L13902.799,-3791.1814L13902.7514,-3791.1471L13902.733,-3791.1341L13902.7031,-3791.1144L13902.6879,-3791.1046L13902.6392,-3791.0846L13902.5853,-3791.0609L13902.5583,-3791.0491L13902.5477,-3791.0441L13902.4333,-3790.968L13902.4085,-3790.9517L13902.3621,-3790.9189L13902.3524,-3790.9134L13902.2787,-3790.8637L13902.2131,-3790.8249L13902.1891,-3790.8092L13902.1746,-3790.8003L13902.0996,-3790.754"/>
<path content="1,新潟交通（株）,新潟駅前～大野～白根～潟東営業所線（大野経由潟東営業所行）,15.0,15.0,15.0," xlink:title="1" d="M13903.1663,-3791.3818L13903.1001,-3791.3566L13903.0411,-3791.3329L13903.034,-3791.3301L13902.9701,-3791.2913L13902.9105,-3791.2547L13902.8714,-3791.2316L13902.8518,-3791.2166L13902.8139,-3791.1916L13902.8075,-3791.1876L13902.799,-3791.1814L13902.7514,-3791.1471L13902.733,-3791.1341L13902.7031,-3791.1144L13902.6953,-3791.1099L13902.6879,-3791.1046L13902.6392,-3791.0846L13902.5853,-3791.0609L13902.5583,-3791.0491L13902.5477,-3791.0441L13902.4333,-3790.968L13902.4085,-3790.9517L13902.3621,-3790.9189L13902.3524,-3790.9134L13902.2787,-3790.8637L13902.2131,-3790.8249L13902.1891,-3790.8092L13902.1746,-3790.8003L13902.0996,-3790.754"/>
<path content="1,新潟交通（株）,新潟駅前～大野～白根～潟東営業所線（白根・大野経由新潟駅前行）,11.0,12.0,12.0," xlink:title="1" d="M13903.1663,-3791.3818L13903.1001,-3791.3566L13903.0411,-3791.3329L13903.034,-3791.3301L13902.9701,-3791.2913L13902.9105,-3791.2547L13902.8714,-3791.2316L13902.8518,-3791.2166L13902.8139,-3791.1916L13902.8075,-3791.1876L13902.799,-3791.1814L13902.7514,-3791.1471L13902.733,-3791.1341L13902.7031,-3791.1144L13902.6953,-3791.1099L13902.6879,-3791.1046L13902.6392,-3791.0846L13902.5853,-3791.0609L13902.5583,-3791.0491L13902.5477,-3791.0441L13902.4333,-3790.968L13902.4085,-3790.9517L13902.3621,-3790.9189L13902.3524,-3790.9134L13902.2787,-3790.8637L13902.2131,-3790.8249L13902.1891,-3790.8092L13902.1746,-3790.8003L13902.0996,-3790.754"/>
<path content="1,新潟交通（株）,新潟駅前～川岸町～県庁線（川岸町経由県庁行）,2.0,0.0,0.0," xlink:title="1" d="M13903.1982,-3791.0707L13903.1931,-3791.0694L13903.1796,-3791.066L13903.1142,-3791.0478L13903.1086,-3791.0463L13903.0355,-3791.0277L13903.0177,-3791.0232L13902.8615,-3790.981L13902.7147,-3790.9434L13902.6925,-3790.9365L13902.6281,-3790.9197L13902.5974,-3790.9117L13902.564,-3790.9021L13902.5058,-3790.8824L13902.471,-3790.8706L13902.3822,-3790.8469L13902.3091,-3790.8267L13902.2633,-3790.814L13902.2228,-3790.8102L13902.2149,-3790.8098L13902.1993,-3790.8075L13902.1746,-3790.8003L13902.0996,-3790.754M13902.0996,-3790.7343L13902.1064,-3790.7286L13902.1181,-3790.7188L13902.1394,-3790.7009L13902.1608,-3790.683L13902.1753,-3790.6707L13902.3269,-3790.5435L13902.4155,-3790.4709L13902.4701,-3790.4262L13902.5092,-3790.3938L13902.5289,-3790.3781L13902.5758,-3790.3383L13902.6191,-3790.3009L13902.6212,-3790.2989L13902.6232,-3790.2968L13902.6048,-3790.2832"/>
<path content="1,新潟交通（株）,新潟駅前～川岸町～県庁～女池インター前～新潟市民病院前線（県庁経由新潟市民病院行）,39.0,24.0,24.0," xlink:title="1" d="M13902.6048,-3790.2832L13902.6232,-3790.2968"/>
<path content="1,新潟交通（株）,新潟駅前～川岸町～県庁～女池インター前～新潟市民病院前線（県庁経由新潟市民病院行）,39.0,24.0,24.0," xlink:title="1" d="M13902.6232,-3790.2968L13902.6263,-3790.2928L13902.6296,-3790.2894L13902.6329,-3790.2861L13902.6362,-3790.2832"/>
<path content="1,新潟交通（株）,新潟駅前～川岸町～県庁～女池インター前～新潟市民病院前線（県庁経由新潟市民病院行）,39.0,24.0,24.0," xlink:title="1" d="M13903.1982,-3791.0707L13903.1931,-3791.0694L13903.1796,-3791.066L13903.1142,-3791.0478L13903.1086,-3791.0463L13903.0355,-3791.0277L13903.0177,-3791.0232L13902.8615,-3790.981L13902.7147,-3790.9434L13902.6925,-3790.9365L13902.6281,-3790.9197L13902.5974,-3790.9117L13902.564,-3790.9021L13902.5058,-3790.8824L13902.471,-3790.8706L13902.3822,-3790.8469L13902.3091,-3790.8267L13902.2633,-3790.814L13902.2228,-3790.8102L13902.2149,-3790.8098L13902.1993,-3790.8075L13902.1746,-3790.8003L13902.0996,-3790.754M13902.0996,-3790.7343L13902.1064,-3790.7286L13902.1181,-3790.7188L13902.1394,-3790.7009L13902.1608,-3790.683L13902.1753,-3790.6707L13902.3269,-3790.5435L13902.4155,-3790.4709L13902.4701,-3790.4262L13902.5092,-3790.3938L13902.5289,-3790.3781L13902.5758,-3790.3383L13902.6191,-3790.3009L13902.6212,-3790.2989L13902.6232,-3790.2968"/>
<path content="1,新潟交通（株）,新潟駅前～平島～大野仲町線（平島経由大野行）,8.0,7.0,7.0," xlink:title="1" d="M13903.1663,-3791.3818L13903.1001,-3791.3566L13903.0411,-3791.3329L13903.034,-3791.3301L13902.9701,-3791.2913L13902.9105,-3791.2547L13902.8714,-3791.2316L13902.8518,-3791.2166L13902.8139,-3791.1916L13902.8075,-3791.1876L13902.799,-3791.1814L13902.7514,-3791.1471L13902.733,-3791.1341L13902.7031,-3791.1144L13902.6879,-3791.1046L13902.6392,-3791.0846L13902.5853,-3791.0609L13902.5583,-3791.0491L13902.5477,-3791.0441L13902.4333,-3790.968L13902.4085,-3790.9517L13902.3621,-3790.9189L13902.3524,-3790.9134L13902.2787,-3790.8637L13902.2131,-3790.8249L13902.1891,-3790.8092L13902.1746,-3790.8003L13902.0996,-3790.754"/>
<path content="1,新潟交通（株）,新潟駅前～平島～大野仲町線（平島経由新潟駅前行）,41.0,34.0,34.0," xlink:title="1" d="M13903.1663,-3791.3818L13903.1001,-3791.3566L13903.0411,-3791.3329L13903.034,-3791.3301L13902.9701,-3791.2913L13902.9105,-3791.2547L13902.8714,-3791.2316L13902.8518,-3791.2166L13902.8139,-3791.1916L13902.8075,-3791.1876L13902.799,-3791.1814L13902.7514,-3791.1471L13902.733,-3791.1341L13902.7031,-3791.1144L13902.6879,-3791.1046L13902.6392,-3791.0846L13902.5853,-3791.0609L13902.5583,-3791.0491L13902.5477,-3791.0441L13902.4333,-3790.968L13902.4085,-3790.9517L13902.3621,-3790.9189L13902.3524,-3790.9134L13902.2787,-3790.8637L13902.2131,-3790.8249L13902.1891,-3790.8092L13902.1746,-3790.8003L13902.0996,-3790.754"/>
<path content="1,新潟交通（株）,新潟駅前～平島～大野～木場学校前線（大野経由新潟駅前行）,3.0,1.0,1.0," xlink:title="1" d="M13903.1663,-3791.3818L13903.1001,-3791.3566L13903.0411,-3791.3329L13903.034,-3791.3301L13902.9701,-3791.2913L13902.9105,-3791.2547L13902.8714,-3791.2316L13902.8518,-3791.2166L13902.8139,-3791.1916L13902.8075,-3791.1876L13902.799,-3791.1814L13902.7514,-3791.1471L13902.733,-3791.1341L13902.7031,-3791.1144L13902.6879,-3791.1046L13902.6392,-3791.0846L13902.5853,-3791.0609L13902.5583,-3791.0491L13902.5477,-3791.0441L13902.4333,-3790.968L13902.4085,-3790.9517L13902.3621,-3790.9189L13902.3524,-3790.9134L13902.2787,-3790.8637L13902.2131,-3790.8249L13902.1891,-3790.8092L13902.1746,-3790.8003L13902.0996,-3790.754"/>
<path content="1,新潟交通（株）,新潟駅前～平島～大野～木場学校前線（大野経由木場学校前行）,3.0,1.0,1.0," xlink:title="1" d="M13903.1663,-3791.3818L13903.1001,-3791.3566L13903.0411,-3791.3329L13903.034,-3791.3301L13902.9701,-3791.2913L13902.9105,-3791.2547L13902.8714,-3791.2316L13902.8518,-3791.2166L13902.8139,-3791.1916L13902.8075,-3791.1876L13902.799,-3791.1814L13902.7514,-3791.1471L13902.733,-3791.1341L13902.7031,-3791.1144L13902.6879,-3791.1046L13902.6392,-3791.0846L13902.5853,-3791.0609L13902.5583,-3791.0491L13902.5477,-3791.0441L13902.4333,-3790.968L13902.4085,-3790.9517L13902.3621,-3790.9189L13902.3524,-3790.9134L13902.2787,-3790.8637L13902.2131,-3790.8249L13902.1891,-3790.8092L13902.1746,-3790.8003L13902.0996,-3790.754"/>
<path content="1,新潟交通（株）,新潟駅前～水島町～県庁前～美咲合同庁舎線（水島町経由新潟駅前行）,11.0,0.0,0.0," xlink:title="1" d="M13903.1982,-3790.5539L13903.1058,-3790.526L13903.012,-3790.4961L13902.9226,-3790.4635L13902.8954,-3790.4522L13902.858,-3790.4348L13902.8281,-3790.4184L13902.8028,-3790.4042L13902.797,-3790.4007L13902.7536,-3790.3751L13902.743,-3790.3683L13902.7159,-3790.3514L13902.6384,-3790.3006L13902.6263,-3790.2928L13902.6232,-3790.2968L13902.6048,-3790.2832"/>
<path content="1,新潟交通（株）,新潟駅前～水島町～県庁前～美咲合同庁舎線（水島町経由美咲合同庁舎行）,6.0,0.0,0.0," xlink:title="1" d="M13902.6048,-3790.2832L13902.6232,-3790.2968L13902.6263,-3790.2928L13902.6384,-3790.3006L13902.7159,-3790.3514L13902.743,-3790.3683L13902.7536,-3790.3751L13902.797,-3790.4007L13902.8028,-3790.4042L13902.8281,-3790.4184L13902.858,-3790.4348L13902.8954,-3790.4522L13902.9226,-3790.4635L13903.012,-3790.4961L13903.1058,-3790.526L13903.1982,-3790.5539"/>
<path content="1,新潟交通（株）,新潟駅前～水島町～県庁前～西部営業所線（水島経由新潟駅前行）,9.0,3.0,3.0," xlink:title="1" d="M13902.6048,-3790.2832L13902.6232,-3790.2968L13902.6263,-3790.2928L13902.6384,-3790.3006L13902.7159,-3790.3514L13902.743,-3790.3683L13902.7536,-3790.3751L13902.797,-3790.4007L13902.8028,-3790.4042L13902.8281,-3790.4184L13902.858,-3790.4348L13902.8954,-3790.4522L13902.9226,-3790.4635L13903.012,-3790.4961L13903.1058,-3790.526L13903.1982,-3790.5539"/>
<path content="1,新潟交通（株）,新潟駅前～水島町～県庁前～西部営業所線（県庁前経由西部営業所行）,2.0,0.0,0.0," xlink:title="1" d="M13902.6048,-3790.2832L13902.6232,-3790.2968L13902.6263,-3790.2928L13902.6384,-3790.3006L13902.7159,-3790.3514L13902.743,-3790.3683L13902.7536,-3790.3751L13902.797,-3790.4007L13902.8028,-3790.4042L13902.8281,-3790.4184L13902.858,-3790.4348L13902.8954,-3790.4522L13902.9226,-3790.4635L13903.012,-3790.4961L13903.1058,-3790.526L13903.1982,-3790.5539"/>
<path content="1,新潟交通（株）,新潟駅前～鳥屋野～小須戸神社前線（県庁前経由小須戸行）,7.0,6.0,6.0," xlink:title="1" d="M13903.1982,-3790.5539L13903.1058,-3790.526L13903.012,-3790.4961L13902.9226,-3790.4635L13902.8954,-3790.4522L13902.858,-3790.4348L13902.8281,-3790.4184L13902.8028,-3790.4042L13902.797,-3790.4007L13902.7536,-3790.3751L13902.743,-3790.3683L13902.7159,-3790.3514L13902.6384,-3790.3006L13902.6263,-3790.2928L13902.6232,-3790.2968L13902.6048,-3790.2832"/>
<path content="1,新潟交通（株）,新潟駅前～鳥屋野～小須戸神社前線（県庁前経由新潟駅前行）,7.0,6.0,6.0," xlink:title="1" d="M13903.1982,-3790.5539L13903.1058,-3790.526L13903.012,-3790.4961L13902.9226,-3790.4635L13902.8954,-3790.4522L13902.858,-3790.4348L13902.8281,-3790.4184L13902.8028,-3790.4042L13902.797,-3790.4007L13902.7536,-3790.3751L13902.743,-3790.3683L13902.7159,-3790.3514L13902.6384,-3790.3006L13902.6263,-3790.2928L13902.6232,-3790.2968L13902.6048,-3790.2832"/>
<path content="1,新潟交通（株）,新潟駅前～鳥屋野～曽川・嘉木線（県庁前経由嘉木行）,11.0,12.0,12.0," xlink:title="1" d="M13903.1982,-3790.5539L13903.1058,-3790.526L13903.012,-3790.4961L13902.9226,-3790.4635L13902.8954,-3790.4522L13902.858,-3790.4348L13902.8281,-3790.4184L13902.8028,-3790.4042L13902.797,-3790.4007L13902.7536,-3790.3751L13902.743,-3790.3683L13902.7159,-3790.3514L13902.6384,-3790.3006L13902.6263,-3790.2928L13902.6232,-3790.2968L13902.6048,-3790.2832"/>
<path content="1,新潟交通（株）,新潟駅前～鳥屋野～曽川・嘉木線（県庁前経由新潟駅前行）,10.0,11.0,11.0," xlink:title="1" d="M13903.1982,-3790.5539L13903.1058,-3790.526L13903.012,-3790.4961L13902.9226,-3790.4635L13902.8954,-3790.4522L13902.858,-3790.4348L13902.8281,-3790.4184L13902.8028,-3790.4042L13902.797,-3790.4007L13902.7536,-3790.3751L13902.743,-3790.3683L13902.7159,-3790.3514L13902.6384,-3790.3006L13902.6263,-3790.2928L13902.6232,-3790.2968L13902.6048,-3790.2832"/>
<path content="1,新潟交通（株）,新潟駅前～鳥屋野～曽野木ニュータウン線（県庁前経由新潟駅前行）,33.0,25.0,25.0," xlink:title="1" d="M13903.1982,-3790.5539L13903.1058,-3790.526L13903.012,-3790.4961L13902.9226,-3790.4635L13902.8954,-3790.4522L13902.858,-3790.4348L13902.8281,-3790.4184L13902.8028,-3790.4042L13902.797,-3790.4007L13902.7536,-3790.3751L13902.743,-3790.3683L13902.7159,-3790.3514L13902.6384,-3790.3006L13902.6263,-3790.2928L13902.6232,-3790.2968L13902.6048,-3790.2832"/>
<path content="1,新潟交通（株）,新潟駅前～鳥屋野～曽野木ニュータウン線（県庁前経由曽野木ニュータウン行）,27.0,24.0,24.0," xlink:title="1" d="M13903.1982,-3790.5539L13903.1058,-3790.526L13903.012,-3790.4961L13902.9226,-3790.4635L13902.8954,-3790.4522L13902.858,-3790.4348L13902.8281,-3790.4184L13902.8028,-3790.4042L13902.797,-3790.4007L13902.7536,-3790.3751L13902.743,-3790.3683L13902.7159,-3790.3514L13902.6384,-3790.3006L13902.6263,-3790.2928L13902.6232,-3790.2968L13902.6048,-3790.2832"/>
<path content="1,新潟交通（株）,新潟駅前～鳥屋野～酒屋車庫線（県庁前経由新潟駅前行）,3.0,0.0,0.0," xlink:title="1" d="M13903.1982,-3790.5539L13903.1058,-3790.526L13903.012,-3790.4961L13902.9226,-3790.4635L13902.8954,-3790.4522L13902.858,-3790.4348L13902.8281,-3790.4184L13902.8028,-3790.4042L13902.797,-3790.4007L13902.7536,-3790.3751L13902.743,-3790.3683L13902.7159,-3790.3514L13902.6384,-3790.3006L13902.6263,-3790.2928L13902.6232,-3790.2968L13902.6048,-3790.2832"/>
<path content="1,新潟交通（株）,新潟駅前～鳥屋野～酒屋車庫線（県庁前経由酒屋車庫行）,3.0,0.0,0.0," xlink:title="1" d="M13903.1982,-3790.5539L13903.1058,-3790.526L13903.012,-3790.4961L13902.9226,-3790.4635L13902.8954,-3790.4522L13902.858,-3790.4348L13902.8281,-3790.4184L13902.8028,-3790.4042L13902.797,-3790.4007L13902.7536,-3790.3751L13902.743,-3790.3683L13902.7159,-3790.3514L13902.6384,-3790.3006L13902.6263,-3790.2928L13902.6232,-3790.2968L13902.6048,-3790.2832"/>
<path content="1,新潟交通（株）,新潟駅南口～笹出線～県庁前～美咲合同庁舎前線（笹出線経由美咲合同庁舎行）,2.0,0.0,0.0," xlink:title="1" d="M13902.6362,-3790.2832L13902.6329,-3790.2861L13902.6296,-3790.2894L13902.6263,-3790.2928L13902.6232,-3790.2968L13902.6048,-3790.2832"/>
<path content="1,新潟交通（株）,新潟駅南口～笹出線～県庁線（笹出線経由県庁行）,3.0,1.0,1.0," xlink:title="1" d="M13902.6362,-3790.2832L13902.6329,-3790.2861L13902.6296,-3790.2894L13902.6263,-3790.2928L13902.6232,-3790.2968L13902.6048,-3790.2832"/>
<path content="1,新潟交通（株）,美咲合同庁舎～大堀～内野営業所線（大堀経由内野営業所行）,2.0,0.0,0.0," xlink:title="1" d="M13902.0996,-3790.7343L13902.1064,-3790.7286L13902.1181,-3790.7188L13902.1394,-3790.7009L13902.1608,-3790.683L13902.1753,-3790.6707L13902.3269,-3790.5435L13902.4155,-3790.4709L13902.4701,-3790.4262L13902.5092,-3790.3938L13902.5289,-3790.3781L13902.5758,-3790.3383L13902.6191,-3790.3009L13902.6212,-3790.2989L13902.6232,-3790.2968L13902.6048,-3790.2832"/>
<path content="1,新潟交通（株）,美咲合同庁舎～大堀～内野営業所線（大堀経由美咲合同庁舎行）,2.0,0.0,0.0," xlink:title="1" d="M13902.0996,-3790.7343L13902.1064,-3790.7286L13902.1181,-3790.7188L13902.1394,-3790.7009L13902.1608,-3790.683L13902.1753,-3790.6707L13902.3269,-3790.5435L13902.4155,-3790.4709L13902.4701,-3790.4262L13902.5092,-3790.3938L13902.5289,-3790.3781L13902.5758,-3790.3383L13902.6191,-3790.3009L13902.6212,-3790.2989L13902.6232,-3790.2968L13902.6048,-3790.2832"/>
<path content="1,新潟交通（株）,西循環（信濃町先回り）線（信濃町先回り新潟駅前行）,4.0,1.0,1.0," xlink:title="1" d="M13902.0996,-3791.261L13902.1472,-3791.289L13902.167,-3791.3014L13902.2594,-3791.356L13902.2686,-3791.3611L13902.3049,-3791.3818"/>
<path content="1,新潟交通（株）,西循環（浜浦町先回り）線（浜浦町先回り新潟駅前行）,20.0,12.0,12.0," xlink:title="1" d="M13902.0996,-3791.261L13902.1472,-3791.289L13902.167,-3791.3014L13902.2594,-3791.356L13902.3056,-3791.3818"/>
<path content="1,新潟交通（株）・北陸鉄道（株）,金沢高速バス,2.0,2.0,2.0," xlink:title="1" d="M13902.6048,-3790.2832L13902.6232,-3790.2968L13902.6263,-3790.2928L13902.6384,-3790.3006L13902.7159,-3790.3514L13902.743,-3790.3683L13902.797,-3790.4007L13902.8028,-3790.4042L13902.8281,-3790.4184L13902.858,-3790.4348L13902.8949,-3790.4522L13902.8954,-3790.4522L13902.9226,-3790.4635L13903.012,-3790.4961L13903.1058,-3790.526L13903.1982,-3790.5539"/>
<path content="1,新潟交通（株）・名鉄バス（株）,名古屋高速バス,2.0,2.0,2.0," xlink:title="1" d="M13902.6048,-3790.2832L13902.6232,-3790.2968L13902.6263,-3790.2928L13902.6384,-3790.3006L13902.7159,-3790.3514L13902.743,-3790.3683L13902.797,-3790.4007L13902.8028,-3790.4042L13902.8281,-3790.4184L13902.858,-3790.4348L13902.8949,-3790.4522L13902.8954,-3790.4522L13902.9226,-3790.4635L13903.012,-3790.4961L13903.1058,-3790.526L13903.1982,-3790.5539"/>
<path content="1,新潟交通（株）・富山地方鉄道（株）,富山高速バス,2.0,2.0,2.0," xlink:title="1" d="M13902.6048,-3790.2832L13902.6232,-3790.2968L13902.6263,-3790.2928L13902.6384,-3790.3006L13902.7159,-3790.3514L13902.743,-3790.3683L13902.797,-3790.4007L13902.8028,-3790.4042L13902.8281,-3790.4184L13902.858,-3790.4348L13902.8949,-3790.4522L13902.8954,-3790.4522L13902.9226,-3790.4635L13903.012,-3790.4961L13903.1058,-3790.526L13903.1982,-3790.5539"/>
<path content="1,新潟交通（株）・日本中央バス（株）,高崎・前橋高速バス,2.0,2.0,2.0," xlink:title="1" d="M13902.6048,-3790.2832L13902.6232,-3790.2968L13902.6263,-3790.2928L13902.6384,-3790.3006L13902.7159,-3790.3514L13902.743,-3790.3683L13902.797,-3790.4007L13902.8028,-3790.4042L13902.8281,-3790.4184L13902.858,-3790.4348L13902.8949,-3790.4522L13902.8954,-3790.4522L13902.9226,-3790.4635L13903.012,-3790.4961L13903.1058,-3790.526L13903.1982,-3790.5539"/>
<path content="1,新潟交通（株）・越後交通（株）,十日町線,5.0,5.0,5.0," xlink:title="1" d="M13902.6362,-3790.2832L13902.6329,-3790.2861L13902.6296,-3790.2894L13902.6263,-3790.2928"/>
<path content="1,新潟交通（株）・越後交通（株）,十日町線,5.0,5.0,5.0," xlink:title="1" d="M13902.6048,-3790.2832L13902.6232,-3790.2968"/>
<path content="1,新潟交通（株）・越後交通（株）,十日町線,5.0,5.0,5.0," xlink:title="1" d="M13902.6263,-3790.2928L13902.6232,-3790.2968"/>
<path content="1,新潟交通（株）・越後交通（株）,十日町線,5.0,5.0,5.0," xlink:title="1" d="M13902.6263,-3790.2928L13902.6384,-3790.3006L13902.7159,-3790.3514L13902.743,-3790.3683"/>
<path content="1,新潟交通（株）・越後交通（株）,十日町線,5.0,5.0,5.0," xlink:title="1" d="M13902.6232,-3790.2968L13902.5758,-3790.3383L13902.5289,-3790.3781L13902.5092,-3790.3938L13902.4701,-3790.4262L13902.4155,-3790.4709L13902.3269,-3790.5435L13902.1753,-3790.6707L13902.1608,-3790.683L13902.1394,-3790.7009L13902.1181,-3790.7188L13902.1064,-3790.7286L13902.0996,-3790.7343M13902.0996,-3790.754L13902.1746,-3790.8003L13902.1993,-3790.8075L13902.2149,-3790.8098L13902.2228,-3790.8102L13902.2633,-3790.814L13902.3091,-3790.8267L13902.3822,-3790.8469L13902.471,-3790.8706L13902.6281,-3790.9197L13902.6925,-3790.9365L13902.7147,-3790.9434L13902.8615,-3790.981L13903.0177,-3791.0232L13903.1142,-3791.0478L13903.1931,-3791.0694L13903.1654,-3791.1409L13903.1476,-3791.1843L13903.1455,-3791.1905L13903.1221,-3791.2429L13903.1015,-3791.2868L13903.0922,-3791.2986L13903.0688,-3791.3161L13903.0411,-3791.3329L13903.1001,-3791.3566L13903.1663,-3791.3818"/>
<path content="1,新潟交通（株）・越後交通（株）,柏崎線,11.0,11.0,11.0," xlink:title="1" d="M13902.6048,-3790.2832L13902.6232,-3790.2968"/>
<path content="1,新潟交通（株）・越後交通（株）,柏崎線,11.0,11.0,11.0," xlink:title="1" d="M13902.6263,-3790.2928L13902.6296,-3790.2894L13902.6329,-3790.2861L13902.6362,-3790.2832"/>
<path content="1,新潟交通（株）・越後交通（株）,柏崎線,11.0,11.0,11.0," xlink:title="1" d="M13902.6263,-3790.2928L13902.6384,-3790.3006L13902.7159,-3790.3514L13902.743,-3790.3683"/>
<path content="1,新潟交通（株）・越後交通（株）,柏崎線,11.0,11.0,11.0," xlink:title="1" d="M13902.6232,-3790.2968L13902.6263,-3790.2928"/>
<path content="1,新潟交通（株）・越後交通（株）,柏崎線,11.0,11.0,11.0," xlink:title="1" d="M13903.1663,-3791.3818L13903.1001,-3791.3566L13903.0411,-3791.3329L13903.0688,-3791.3161L13903.0922,-3791.2986L13903.1015,-3791.2868L13903.1221,-3791.2429L13903.1455,-3791.1905L13903.1476,-3791.1843L13903.1654,-3791.1409L13903.1931,-3791.0694L13903.1142,-3791.0478L13903.0177,-3791.0232L13902.8615,-3790.981L13902.7147,-3790.9434L13902.6925,-3790.9365L13902.6281,-3790.9197L13902.471,-3790.8706L13902.3822,-3790.8469L13902.3091,-3790.8267L13902.2633,-3790.814L13902.2228,-3790.8102L13902.2149,-3790.8098L13902.1993,-3790.8075L13902.1746,-3790.8003L13902.0996,-3790.754M13902.0996,-3790.7343L13902.1064,-3790.7286L13902.1181,-3790.7188L13902.1394,-3790.7009L13902.1608,-3790.683L13902.1753,-3790.6707L13902.3269,-3790.5435L13902.4155,-3790.4709L13902.4701,-3790.4262L13902.5092,-3790.3938L13902.5289,-3790.3781L13902.5758,-3790.3383L13902.6232,-3790.2968"/>
<path content="1,新潟交通（株）・越後交通（株）,長岡線（中之島・見附インター～北長岡経由）,2.5,2.0,2.0," xlink:title="1" d="M13902.6362,-3790.2832L13902.6329,-3790.2861L13902.6296,-3790.2894L13902.6263,-3790.2928"/>
<path content="1,新潟交通（株）・越後交通（株）,長岡線（中之島・見附インター～北長岡経由）,2.5,2.0,2.0," xlink:title="1" d="M13902.6048,-3790.2832L13902.6232,-3790.2968"/>
<path content="1,新潟交通（株）・越後交通（株）,長岡線（中之島・見附インター～北長岡経由）,2.5,2.0,2.0," xlink:title="1" d="M13902.6263,-3790.2928L13902.6232,-3790.2968"/>
<path content="1,新潟交通（株）・越後交通（株）,長岡線（中之島・見附インター～北長岡経由）,2.5,2.0,2.0," xlink:title="1" d="M13902.6263,-3790.2928L13902.6384,-3790.3006L13902.7159,-3790.3514L13902.743,-3790.3683"/>
<path content="1,新潟交通（株）・越後交通（株）,長岡線（中之島・見附インター～北長岡経由）,2.5,2.0,2.0," xlink:title="1" d="M13902.6232,-3790.2968L13902.5758,-3790.3383L13902.5289,-3790.3781L13902.5092,-3790.3938L13902.4701,-3790.4262L13902.4155,-3790.4709L13902.3269,-3790.5435L13902.1753,-3790.6707L13902.1608,-3790.683L13902.1394,-3790.7009L13902.1181,-3790.7188L13902.1064,-3790.7286L13902.0996,-3790.7343M13902.0996,-3790.754L13902.1746,-3790.8003L13902.1993,-3790.8075L13902.2149,-3790.8098L13902.2228,-3790.8102L13902.2633,-3790.814L13902.3091,-3790.8267L13902.3822,-3790.8469L13902.471,-3790.8706L13902.6281,-3790.9197L13902.6925,-3790.9365L13902.7147,-3790.9434L13902.8615,-3790.981L13903.0177,-3791.0232L13903.1142,-3791.0478L13903.1931,-3791.0694L13903.1654,-3791.1409L13903.1476,-3791.1843L13903.1455,-3791.1905L13903.1221,-3791.2429L13903.1015,-3791.2868L13903.0922,-3791.2986L13903.0688,-3791.3161L13903.0411,-3791.3329L13903.1001,-3791.3566L13903.1663,-3791.3818"/>
<path content="1,新潟交通（株）・越後交通（株）,長岡線（中之島・見附インター～東バイパス経由）,1.0,0.0,0.0," xlink:title="1" d="M13902.6362,-3790.2832L13902.6329,-3790.2861L13902.6296,-3790.2894L13902.6263,-3790.2928"/>
<path content="1,新潟交通（株）・越後交通（株）,長岡線（中之島・見附インター～東バイパス経由）,1.0,0.0,0.0," xlink:title="1" d="M13902.6048,-3790.2832L13902.6232,-3790.2968"/>
<path content="1,新潟交通（株）・越後交通（株）,長岡線（中之島・見附インター～東バイパス経由）,1.0,0.0,0.0," xlink:title="1" d="M13902.6263,-3790.2928L13902.6232,-3790.2968"/>
<path content="1,新潟交通（株）・越後交通（株）,長岡線（中之島・見附インター～東バイパス経由）,1.0,0.0,0.0," xlink:title="1" d="M13902.6263,-3790.2928L13902.6384,-3790.3006L13902.7159,-3790.3514L13902.743,-3790.3683"/>
<path content="1,新潟交通（株）・越後交通（株）,長岡線（中之島・見附インター～東バイパス経由）,1.0,0.0,0.0," xlink:title="1" d="M13902.6232,-3790.2968L13902.5758,-3790.3383L13902.5289,-3790.3781L13902.5092,-3790.3938L13902.4701,-3790.4262L13902.4155,-3790.4709L13902.3269,-3790.5435L13902.1753,-3790.6707L13902.1608,-3790.683L13902.1394,-3790.7009L13902.1181,-3790.7188L13902.1064,-3790.7286L13902.0996,-3790.7343M13902.0996,-3790.754L13902.1746,-3790.8003L13902.1993,-3790.8075L13902.2149,-3790.8098L13902.2228,-3790.8102L13902.2633,-3790.814L13902.3091,-3790.8267L13902.3822,-3790.8469L13902.471,-3790.8706L13902.6281,-3790.9197L13902.6925,-3790.9365L13902.7147,-3790.9434L13902.8615,-3790.981L13903.0177,-3791.0232L13903.1142,-3791.0478L13903.1931,-3791.0694L13903.1654,-3791.1409L13903.1476,-3791.1843L13903.1455,-3791.1905L13903.1221,-3791.2429L13903.1015,-3791.2868L13903.0922,-3791.2986L13903.0688,-3791.3161L13903.0411,-3791.3329L13903.1001,-3791.3566L13903.1663,-3791.3818"/>
<path content="1,新潟交通（株）・越後交通（株）,高田・直江津線,15.0,15.0,15.0," xlink:title="1" d="M13902.6362,-3790.2832L13902.6329,-3790.2861L13902.6296,-3790.2894L13902.6263,-3790.2928"/>
<path content="1,新潟交通（株）・越後交通（株）,高田・直江津線,15.0,15.0,15.0," xlink:title="1" d="M13902.6048,-3790.2832L13902.6232,-3790.2968"/>
<path content="1,新潟交通（株）・越後交通（株）,高田・直江津線,15.0,15.0,15.0," xlink:title="1" d="M13902.6263,-3790.2928L13902.6232,-3790.2968"/>
<path content="1,新潟交通（株）・越後交通（株）,高田・直江津線,15.0,15.0,15.0," xlink:title="1" d="M13902.6263,-3790.2928L13902.6384,-3790.3006L13902.7159,-3790.3514L13902.743,-3790.3683"/>
<path content="1,新潟交通（株）・越後交通（株）,高田・直江津線,15.0,15.0,15.0," xlink:title="1" d="M13902.6232,-3790.2968L13902.5758,-3790.3383L13902.5289,-3790.3781L13902.5092,-3790.3938L13902.4701,-3790.4262L13902.4155,-3790.4709L13902.3269,-3790.5435L13902.1753,-3790.6707L13902.1608,-3790.683L13902.1394,-3790.7009L13902.1181,-3790.7188L13902.1064,-3790.7286L13902.0996,-3790.7343M13902.0996,-3790.754L13902.1746,-3790.8003L13902.1993,-3790.8075L13902.2149,-3790.8098L13902.2228,-3790.8102L13902.2633,-3790.814L13902.3091,-3790.8267L13902.3822,-3790.8469L13902.471,-3790.8706L13902.6281,-3790.9197L13902.6925,-3790.9365L13902.7147,-3790.9434L13902.8615,-3790.981L13903.0177,-3791.0232L13903.1142,-3791.0478L13903.1931,-3791.0694L13903.1654,-3791.1409L13903.1476,-3791.1843L13903.1455,-3791.1905L13903.1221,-3791.2429L13903.1015,-3791.2868L13903.0922,-3791.2986L13903.0688,-3791.3161L13903.0411,-3791.3329L13903.1001,-3791.3566L13903.1663,-3791.3818"/>
<path content="1,新潟交通（株）・越後交通（株）・西部バス（株）,高速バス新潟・越後（新潟・長岡～池袋線）,16.0,16.0,16.0," xlink:title="1" d="M13902.6048,-3790.2832L13902.6232,-3790.2968L13902.6263,-3790.2928L13902.6384,-3790.3006L13902.7159,-3790.3514L13902.743,-3790.3683L13902.797,-3790.4007L13902.8028,-3790.4042L13902.8281,-3790.4184L13902.858,-3790.4348L13902.8949,-3790.4522L13902.8954,-3790.4522L13902.9226,-3790.4635L13903.012,-3790.4961L13903.1058,-3790.526L13903.1982,-3790.5539"/>
<path content="1,新潟交通（株）・長電バス（株）,長野高速バス,8.0,8.0,8.0," xlink:title="1" d="M13902.6048,-3790.2832L13902.6232,-3790.2968L13902.6263,-3790.2928L13902.6384,-3790.3006L13902.7159,-3790.3514L13902.743,-3790.3683L13902.797,-3790.4007L13902.8028,-3790.4042L13902.8281,-3790.4184L13902.858,-3790.4348L13902.8949,-3790.4522L13902.8954,-3790.4522L13902.9226,-3790.4635L13903.012,-3790.4961L13903.1058,-3790.526L13903.1982,-3790.5539"/>
<path content="1,新潟交通（株）・阪急バス（株）,京都・大阪高速バス,1.0,1.0,1.0," xlink:title="1" d="M13902.6048,-3790.2832L13902.6232,-3790.2968L13902.6263,-3790.2928L13902.6384,-3790.3006L13902.7159,-3790.3514L13902.743,-3790.3683L13902.797,-3790.4007L13902.8028,-3790.4042L13902.8281,-3790.4184L13902.858,-3790.4348L13902.8949,-3790.4522L13902.8954,-3790.4522L13902.9226,-3790.4635L13903.012,-3790.4961L13903.1058,-3790.526L13903.1982,-3790.5539"/>
<path content="1,新潟交通（株）・頸城自動車（株）,糸魚川線,2.0,2.0,2.0," xlink:title="1" d="M13902.6362,-3790.2832L13902.6329,-3790.2861L13902.6296,-3790.2894L13902.6263,-3790.2928"/>
<path content="1,新潟交通（株）・頸城自動車（株）,糸魚川線,2.0,2.0,2.0," xlink:title="1" d="M13902.6048,-3790.2832L13902.6232,-3790.2968"/>
<path content="1,新潟交通（株）・頸城自動車（株）,糸魚川線,2.0,2.0,2.0," xlink:title="1" d="M13902.6263,-3790.2928L13902.6232,-3790.2968"/>
<path content="1,新潟交通（株）・頸城自動車（株）,糸魚川線,2.0,2.0,2.0," xlink:title="1" d="M13902.6263,-3790.2928L13902.6384,-3790.3006L13902.7159,-3790.3514L13902.743,-3790.3683"/>
<path content="1,新潟交通（株）・頸城自動車（株）,糸魚川線,2.0,2.0,2.0," xlink:title="1" d="M13902.6232,-3790.2968L13902.5758,-3790.3383L13902.5289,-3790.3781L13902.5092,-3790.3938L13902.4701,-3790.4262L13902.4155,-3790.4709L13902.3269,-3790.5435L13902.1753,-3790.6707L13902.1608,-3790.683L13902.1394,-3790.7009L13902.1181,-3790.7188L13902.1064,-3790.7286L13902.0996,-3790.7343M13902.0996,-3790.754L13902.1746,-3790.8003L13902.1993,-3790.8075L13902.2149,-3790.8098L13902.2228,-3790.8102L13902.2633,-3790.814L13902.3091,-3790.8267L13902.3822,-3790.8469L13902.471,-3790.8706L13902.6281,-3790.9197L13902.6925,-3790.9365L13902.7147,-3790.9434L13902.8615,-3790.981L13903.0177,-3791.0232L13903.1142,-3791.0478L13903.1931,-3791.0694L13903.1654,-3791.1409L13903.1476,-3791.1843L13903.1455,-3791.1905L13903.1221,-3791.2429L13903.1015,-3791.2868L13903.0922,-3791.2986L13903.0688,-3791.3161L13903.0411,-3791.3329L13903.1001,-3791.3566L13903.1663,-3791.3818"/>
<path content="1,日本中央バス（株）,前橋・高崎～新潟線,2.0,2.0,2.0," xlink:title="1" d="M13902.6362,-3790.2832L13902.6329,-3790.2861L13902.6296,-3790.2894L13902.6263,-3790.2928L13902.6384,-3790.3006L13902.7159,-3790.3514L13902.743,-3790.3683L13902.7536,-3790.3751L13902.797,-3790.4007L13902.8028,-3790.4042L13902.8281,-3790.4184L13902.858,-3790.4348L13902.8954,-3790.4522L13902.9226,-3790.4635L13903.012,-3790.4961L13903.1058,-3790.526L13903.1982,-3790.5539"/>
<path content="1,福島交通（株）,郡山駅前～万代シティバスセンター,1.0,1.0,1.0," xlink:title="1" d="M13902.6362,-3790.2832L13902.6329,-3790.2861L13902.6296,-3790.2894L13902.6263,-3790.2928L13902.6384,-3790.3006L13902.7159,-3790.3514L13902.743,-3790.3683L13902.7536,-3790.3751L13902.797,-3790.4007L13902.8028,-3790.4042L13902.8281,-3790.4184L13902.858,-3790.4348L13902.8954,-3790.4522L13902.9226,-3790.4635L13903.012,-3790.4961L13903.1058,-3790.526L13903.1982,-3790.5539"/>
<path content="1,蒲原鉄道（株）・新潟交通（株）,村松駅～新潟駅間（磐越自動車道経由）「新潟行」,9.0,8.0,8.0," xlink:title="1" d="M13903.1982,-3791.0707L13903.1931,-3791.0694L13903.1796,-3791.066L13903.1142,-3791.0478L13903.1086,-3791.0463L13903.0355,-3791.0277L13903.0177,-3791.0232L13902.8615,-3790.981L13902.7147,-3790.9434L13902.6925,-3790.9365L13902.6281,-3790.9197L13902.5974,-3790.9117L13902.564,-3790.9021L13902.5058,-3790.8824L13902.471,-3790.8706L13902.3822,-3790.8469L13902.3091,-3790.8267L13902.2633,-3790.814L13902.2228,-3790.8102L13902.2149,-3790.8098L13902.1993,-3790.8075L13902.1746,-3790.8003L13902.0996,-3790.754M13902.0996,-3790.7343L13902.1064,-3790.7286L13902.1181,-3790.7188L13902.1394,-3790.7009L13902.1608,-3790.683L13902.1753,-3790.6707L13902.3269,-3790.5435L13902.4155,-3790.4709L13902.4701,-3790.4262L13902.5092,-3790.3938L13902.5289,-3790.3781L13902.5758,-3790.3383L13902.6191,-3790.3009L13902.6212,-3790.2989L13902.6232,-3790.2968L13902.6263,-3790.2928L13902.6296,-3790.2894L13902.6329,-3790.2861L13902.6362,-3790.2832"/>
<path content="1,蒲原鉄道（株）・新潟交通（株）,村松駅～新潟駅間（磐越自動車道経由）「村松行」,9.0,8.0,8.0," xlink:title="1" d="M13903.1982,-3791.0707L13903.1931,-3791.0694L13903.1796,-3791.066L13903.1142,-3791.0478L13903.1086,-3791.0463L13903.0355,-3791.0277L13903.0177,-3791.0232L13902.8615,-3790.981L13902.7147,-3790.9434L13902.6925,-3790.9365L13902.6281,-3790.9197L13902.5974,-3790.9117L13902.564,-3790.9021L13902.5058,-3790.8824L13902.471,-3790.8706L13902.3822,-3790.8469L13902.3091,-3790.8267L13902.2633,-3790.814L13902.2228,-3790.8102L13902.2149,-3790.8098L13902.1993,-3790.8075L13902.1746,-3790.8003L13902.0996,-3790.754M13902.0996,-3790.7343L13902.1064,-3790.7286L13902.1181,-3790.7188L13902.1394,-3790.7009L13902.1608,-3790.683L13902.1753,-3790.6707L13902.3269,-3790.5435L13902.4155,-3790.4709L13902.4701,-3790.4262L13902.5092,-3790.3938L13902.5289,-3790.3781L13902.5758,-3790.3383L13902.6191,-3790.3009L13902.6212,-3790.2989L13902.6232,-3790.2968L13902.6263,-3790.2928L13902.6296,-3790.2894L13902.6329,-3790.2861L13902.6362,-3790.2832"/>
<path content="1,西武バス（株）,新潟線,8.0,8.0,8.0," xlink:title="1" d="M13902.6362,-3790.2832L13902.6329,-3790.2861L13902.6296,-3790.2894L13902.6263,-3790.2928L13902.6384,-3790.3006L13902.7159,-3790.3514L13902.743,-3790.3683L13902.7536,-3790.3751L13902.797,-3790.4007L13902.8028,-3790.4042L13902.8281,-3790.4184L13902.858,-3790.4348L13902.8954,-3790.4522L13902.9226,-3790.4635L13903.012,-3790.4961L13903.1058,-3790.526L13903.1982,-3790.5539"/>
<path content="1,越後交通（株）,長岡駅前～北陸自動車道～新潟駅前線（長岡駅前～北長岡～新潟駅前）,31.0,27.0,27.0," xlink:title="1" d="M13902.6362,-3790.2832L13902.6329,-3790.2861L13902.6296,-3790.2894L13902.6263,-3790.2928L13902.6232,-3790.2968"/>
<path content="1,越後交通（株）,長岡駅前～北陸自動車道～新潟駅前線（長岡駅前～北長岡～新潟駅前）,31.0,27.0,27.0," xlink:title="1" d="M13902.6048,-3790.2832L13902.6232,-3790.2968"/>
<path content="1,越後交通（株）,長岡駅前～北陸自動車道～新潟駅前線（長岡駅前～北長岡～新潟駅前）,31.0,27.0,27.0," xlink:title="1" d="M13902.6232,-3790.2968L13902.5758,-3790.3383L13902.5289,-3790.3781L13902.5092,-3790.3938L13902.4701,-3790.4262L13902.4155,-3790.4709L13902.3269,-3790.5435L13902.1753,-3790.6707L13902.1608,-3790.683L13902.1394,-3790.7009L13902.1181,-3790.7188L13902.1064,-3790.7286L13902.0996,-3790.7343M13902.0996,-3790.754L13902.1746,-3790.8003L13902.1993,-3790.8075L13902.2149,-3790.8098L13902.2228,-3790.8102L13902.2633,-3790.814L13902.3091,-3790.8267L13902.3822,-3790.8469L13902.471,-3790.8706L13902.6281,-3790.9197L13902.6925,-3790.9365L13902.7147,-3790.9434L13902.8615,-3790.981L13903.0177,-3791.0232L13903.1142,-3791.0478L13903.1931,-3791.0694L13903.1654,-3791.1409L13903.1476,-3791.1843L13903.1455,-3791.1905L13903.1221,-3791.2429L13903.1015,-3791.2868L13903.0922,-3791.2986L13903.0688,-3791.3161L13903.0411,-3791.3329L13903.1001,-3791.3566L13903.1663,-3791.3818"/>
<path content="1,越後交通（株）,長岡駅前～北陸自動車道～新潟駅前線（長岡駅前～東バイパス～新潟駅前）,31.0,27.0,27.0," xlink:title="1" d="M13902.6362,-3790.2832L13902.6329,-3790.2861L13902.6296,-3790.2894L13902.6263,-3790.2928L13902.6232,-3790.2968"/>
<path content="1,越後交通（株）,長岡駅前～北陸自動車道～新潟駅前線（長岡駅前～東バイパス～新潟駅前）,31.0,27.0,27.0," xlink:title="1" d="M13902.6048,-3790.2832L13902.6232,-3790.2968"/>
<path content="1,越後交通（株）,長岡駅前～北陸自動車道～新潟駅前線（長岡駅前～東バイパス～新潟駅前）,31.0,27.0,27.0," xlink:title="1" d="M13902.6232,-3790.2968L13902.5758,-3790.3383L13902.5289,-3790.3781L13902.5092,-3790.3938L13902.4701,-3790.4262L13902.4155,-3790.4709L13902.3269,-3790.5435L13902.1753,-3790.6707L13902.1608,-3790.683L13902.1394,-3790.7009L13902.1181,-3790.7188L13902.1064,-3790.7286L13902.0996,-3790.7343M13902.0996,-3790.754L13902.1746,-3790.8003L13902.1993,-3790.8075L13902.2149,-3790.8098L13902.2228,-3790.8102L13902.2633,-3790.814L13902.3091,-3790.8267L13902.3822,-3790.8469L13902.471,-3790.8706L13902.6281,-3790.9197L13902.6925,-3790.9365L13902.7147,-3790.9434L13902.8615,-3790.981L13903.0177,-3791.0232L13903.1142,-3791.0478L13903.1931,-3791.0694L13903.1654,-3791.1409L13903.1476,-3791.1843L13903.1455,-3791.1905L13903.1221,-3791.2429L13903.1015,-3791.2868L13903.0922,-3791.2986L13903.0688,-3791.3161L13903.0411,-3791.3329L13903.1001,-3791.3566L13903.1663,-3791.3818"/>
<path content="1,越後交通（株）,長岡駅前～北陸自動車道～新潟駅前線（長岡駅前～長生橋～新潟駅前）,31.0,27.0,27.0," xlink:title="1" d="M13902.6362,-3790.2832L13902.6329,-3790.2861L13902.6296,-3790.2894L13902.6263,-3790.2928L13902.6232,-3790.2968"/>
<path content="1,越後交通（株）,長岡駅前～北陸自動車道～新潟駅前線（長岡駅前～長生橋～新潟駅前）,31.0,27.0,27.0," xlink:title="1" d="M13902.6048,-3790.2832L13902.6232,-3790.2968"/>
<path content="1,越後交通（株）,長岡駅前～北陸自動車道～新潟駅前線（長岡駅前～長生橋～新潟駅前）,31.0,27.0,27.0," xlink:title="1" d="M13902.6232,-3790.2968L13902.5758,-3790.3383L13902.5289,-3790.3781L13902.5092,-3790.3938L13902.4701,-3790.4262L13902.4155,-3790.4709L13902.3269,-3790.5435L13902.1753,-3790.6707L13902.1608,-3790.683L13902.1394,-3790.7009L13902.1181,-3790.7188L13902.1064,-3790.7286L13902.0996,-3790.7343M13902.0996,-3790.754L13902.1746,-3790.8003L13902.1993,-3790.8075L13902.2149,-3790.8098L13902.2228,-3790.8102L13902.2633,-3790.814L13902.3091,-3790.8267L13902.3822,-3790.8469L13902.471,-3790.8706L13902.6281,-3790.9197L13902.6925,-3790.9365L13902.7147,-3790.9434L13902.8615,-3790.981L13903.0177,-3791.0232L13903.1142,-3791.0478L13903.1931,-3791.0694L13903.1654,-3791.1409L13903.1476,-3791.1843L13903.1455,-3791.1905L13903.1221,-3791.2429L13903.1015,-3791.2868L13903.0922,-3791.2986L13903.0688,-3791.3161L13903.0411,-3791.3329L13903.1001,-3791.3566L13903.1663,-3791.3818"/>
<path content="1,長電バス（株）,長野～新潟線,4.0,4.0,4.0," xlink:title="1" d="M13902.6048,-3790.2832L13902.6232,-3790.2968L13902.6263,-3790.2928L13902.6384,-3790.3006L13902.7159,-3790.3514L13902.743,-3790.3683L13902.797,-3790.4007L13902.8028,-3790.4042L13902.8281,-3790.4184L13902.858,-3790.4348L13902.8949,-3790.4522L13902.8954,-3790.4522L13902.9226,-3790.4635L13903.012,-3790.4961L13903.1058,-3790.526L13903.1982,-3790.5539"/>
<path content="1,阪急バス（株）,新潟行（おけさ号）,1.0,1.0,1.0," xlink:title="1" d="M13902.6048,-3790.2832L13902.6232,-3790.2968L13902.6263,-3790.2928L13902.6384,-3790.3006L13902.7159,-3790.3514L13902.743,-3790.3683L13902.797,-3790.4007L13902.8028,-3790.4042L13902.8281,-3790.4184L13902.858,-3790.4348L13902.8949,-3790.4522L13902.8954,-3790.4522L13902.9226,-3790.4635L13903.012,-3790.4961L13903.1058,-3790.526L13903.1982,-3790.5539"/>
<path content="1,頸城自動車（株）,高速バス頸城（上越～新潟）,17.0,17.0,17.0," xlink:title="1" d="M13902.6362,-3790.2832L13902.6329,-3790.2861L13902.6296,-3790.2894L13902.6263,-3790.2928"/>
<path content="1,頸城自動車（株）,高速バス頸城（上越～新潟）,17.0,17.0,17.0," xlink:title="1" d="M13902.6263,-3790.2928L13902.6384,-3790.3006L13902.7159,-3790.3514L13902.743,-3790.3683"/>
<path content="1,頸城自動車（株）,高速バス頸城（上越～新潟）,17.0,17.0,17.0," xlink:title="1" d="M13902.6263,-3790.2928L13902.6232,-3790.2968L13902.5758,-3790.3383L13902.5289,-3790.3781L13902.5092,-3790.3938L13902.4701,-3790.4262L13902.4155,-3790.4709L13902.3269,-3790.5435L13902.1753,-3790.6707L13902.1608,-3790.683L13902.1394,-3790.7009L13902.1181,-3790.7188L13902.1064,-3790.7286L13902.0996,-3790.7343M13902.0996,-3790.754L13902.1746,-3790.8003L13902.1993,-3790.8075L13902.2149,-3790.8098L13902.2228,-3790.8102L13902.2633,-3790.814L13902.3091,-3790.8267L13902.3822,-3790.8469L13902.471,-3790.8706L13902.6281,-3790.9197L13902.6925,-3790.9365L13902.7147,-3790.9434L13902.8615,-3790.981L13903.0177,-3791.0232L13903.1142,-3791.0478L13903.1931,-3791.0694L13903.1654,-3791.1409L13903.1476,-3791.1843L13903.1455,-3791.1905L13903.1221,-3791.2429L13903.1015,-3791.2868L13903.0922,-3791.2986L13903.0688,-3791.3161L13903.0411,-3791.3329L13903.1001,-3791.3566L13903.1663,-3791.3818"/>
<path content="3,新潟市西区,内野上新町バス,5.0,0.0,0.0," xlink:title="3" d="M13902.3056,-3791.3818L13902.2594,-3791.356L13902.0996,-3791.2606"/>
</g>
</svg>
