<?xml version="1.0" encoding="UTF-8"?>
<svg  xmlns="http://www.w3.org/2000/svg" xmlns:xlink="http://www.w3.org/1999/xlink" xmlns:go="http://purl.org/svgmap/profile" viewBox="12374.693694 -4552.224923 2206.5089170000006 2126.3241730000004" go:dataArea="12374.693694 -4552.224923 2206.5089170000006 2126.3241730000004" >
<metadata>
 <rdf:RDF xmlns:rdf="http://www.w3.org/1999/02/22-rdf-syntax-ns#" xmlns:crs="http://opengis.org/xmldtds/transformations.dtd" xmlns:svg="http://www.w3.org/svg" >
  <rdf:Description>
   <crs:CoordinateReferenceSystem rdf:resource="http://purl.org/crs/84" svg:transform="matrix(100.0,0.0,0.0,-100.0,0.0,0.0)" />
  </rdf:Description>
 </rdf:RDF>
</metadata>
<globalCoordinateSystem srsName="http://purl.org/crs/84" transform="matrix(100.0,0.0,0.0,-100.0,0.0,0.0)" />
<g >
<image xlink:href="tile11_23.png" preserveAspectRatio="none" x="12796.875" y="-3515.625" width="140.625" height="140.625"/>
<image xlink:href="tile12_23.png" preserveAspectRatio="none" x="12937.5" y="-3515.625" width="140.625" height="140.625"/>
<image xlink:href="tile13_23.png" preserveAspectRatio="none" x="13078.125" y="-3515.625" width="140.625" height="140.625"/>
<image xlink:href="tile14_23.png" preserveAspectRatio="none" x="13218.75" y="-3515.625" width="140.625" height="140.625"/>
<image xlink:href="tile14_22.png" preserveAspectRatio="none" x="13218.75" y="-3656.25" width="140.625" height="140.625"/>
<image xlink:href="tile15_23.png" preserveAspectRatio="none" x="13359.375" y="-3515.625" width="140.625" height="140.625"/>
<image xlink:href="tile15_22.png" preserveAspectRatio="none" x="13359.375" y="-3656.25" width="140.625" height="140.625"/>
<image xlink:href="tile8_30.png" preserveAspectRatio="none" x="12375" y="-2531.25" width="140.625" height="140.625"/>
<image xlink:href="tile9_30.png" preserveAspectRatio="none" x="12515.625" y="-2531.25" width="140.625" height="140.625"/>
<image xlink:href="tile10_29.png" preserveAspectRatio="none" x="12656.25" y="-2671.875" width="140.625" height="140.625"/>
<image xlink:href="tile10_28.png" preserveAspectRatio="none" x="12656.25" y="-2812.5" width="140.625" height="140.625"/>
<image xlink:href="tile11_29.png" preserveAspectRatio="none" x="12796.875" y="-2671.875" width="140.625" height="140.625"/>
<image xlink:href="tile11_28.png" preserveAspectRatio="none" x="12796.875" y="-2812.5" width="140.625" height="140.625"/>
<image xlink:href="tile11_27.png" preserveAspectRatio="none" x="12796.875" y="-2953.125" width="140.625" height="140.625"/>
<image xlink:href="tile11_24.png" preserveAspectRatio="none" x="12796.875" y="-3375" width="140.625" height="140.625"/>
<image xlink:href="tile12_27.png" preserveAspectRatio="none" x="12937.5" y="-2953.125" width="140.625" height="140.625"/>
<image xlink:href="tile12_26.png" preserveAspectRatio="none" x="12937.5" y="-3093.75" width="140.625" height="140.625"/>
<image xlink:href="tile12_25.png" preserveAspectRatio="none" x="12937.5" y="-3234.375" width="140.625" height="140.625"/>
<image xlink:href="tile12_24.png" preserveAspectRatio="none" x="12937.5" y="-3375" width="140.625" height="140.625"/>
<image xlink:href="tile13_26.png" preserveAspectRatio="none" x="13078.125" y="-3093.75" width="140.625" height="140.625"/>
<image xlink:href="tile13_25.png" preserveAspectRatio="none" x="13078.125" y="-3234.375" width="140.625" height="140.625"/>
<image xlink:href="tile13_24.png" preserveAspectRatio="none" x="13078.125" y="-3375" width="140.625" height="140.625"/>
<image xlink:href="tile14_24.png" preserveAspectRatio="none" x="13218.75" y="-3375" width="140.625" height="140.625"/>
<image xlink:href="tile15_24.png" preserveAspectRatio="none" x="13359.375" y="-3375" width="140.625" height="140.625"/>
</g>
</svg>
